0, 0, Header, 1, 17, 240
1, 0, Start_track
1, 0, Copyright_t, "                                                                "
1, 0, Title_t, "Chopin : Piano Concerto No.1 Op.11 Mov.1 Play by K.Oguri        "
1, 0, Time_signature, 3, 2, 24, 8
1, 0, Tempo, 500000
1, 0, Key_signature, 1, "minor"
1, 649440, End_track
2, 0, Start_track
2, 0, Title_t, "PIANO SOLO                          "
2, 0, Control_c, 0, 121, 0
2, 165, System_exclusive, 0A, 41, 10, 42, 12, 40, 10, 14, 01, 1B, F7
2, 185, Control_c, 0, 10, 64
2, 205, Control_c, 0, 7, 120
2, 225, Control_c, 0, 0, 0
2, 245, Control_c, 0, 32, 1
2, 265, Program_c, 0, 0
2, 285, Control_c, 0, 7, 120
2, 325, Control_c, 0, 11, 100
2, 385, Control_c, 0, 10, 64
2, 405, Control_c, 0, 1, 0
2, 405, Control_c, 0, 91, 80
2, 425, Control_c, 0, 99, 1
2, 445, Control_c, 0, 98, 32
2, 465, Control_c, 0, 6, 62
2, 485, Control_c, 0, 99, 1
2, 505, Control_c, 0, 98, 33
2, 525, Control_c, 0, 6, 54
2, 545, Control_c, 0, 99, 1
2, 565, Control_c, 0, 98, 99
2, 585, Control_c, 0, 6, 62
2, 605, Control_c, 0, 99, 1
2, 625, Control_c, 0, 98, 100
2, 645, Control_c, 0, 6, 60
2, 665, Control_c, 0, 99, 1
2, 685, Control_c, 0, 98, 102
2, 705, Control_c, 0, 6, 70
2, 131234, Note_on_c, 0, 76, 103
2, 131236, Note_on_c, 0, 71, 101
2, 131237, Note_on_c, 0, 52, 122
2, 131237, Note_on_c, 0, 64, 102
2, 131239, Note_on_c, 0, 40, 113
2, 131239, Note_on_c, 0, 67, 101
2, 131256, Control_c, 0, 64, 63
2, 131256, Control_c, 0, 64, 127
2, 131292, Note_on_c, 0, 52, 0
2, 131295, Note_on_c, 0, 40, 0
2, 131469, Note_on_c, 0, 76, 0
2, 131479, Note_on_c, 0, 64, 0
2, 131488, Note_on_c, 0, 67, 0
2, 131493, Note_on_c, 0, 71, 0
2, 131764, Note_on_c, 0, 75, 108
2, 131765, Note_on_c, 0, 63, 108
2, 131768, Note_on_c, 0, 51, 113
2, 131772, Note_on_c, 0, 39, 105
2, 131794, Note_on_c, 0, 63, 0
2, 131803, Note_on_c, 0, 51, 0
2, 131805, Note_on_c, 0, 75, 0
2, 131805, Note_on_c, 0, 39, 0
2, 131935, Control_c, 0, 64, 63
2, 131938, Note_on_c, 0, 76, 104
2, 131939, Note_on_c, 0, 64, 99
2, 131942, Note_on_c, 0, 52, 111
2, 131942, Note_on_c, 0, 40, 109
2, 131947, Control_c, 0, 64, 127
2, 131972, Note_on_c, 0, 64, 0
2, 131975, Note_on_c, 0, 52, 0
2, 131976, Note_on_c, 0, 40, 0
2, 131981, Note_on_c, 0, 76, 0
2, 132144, Note_on_c, 0, 43, 88
2, 132148, Note_on_c, 0, 79, 94
2, 132150, Note_on_c, 0, 67, 82
2, 132156, Note_on_c, 0, 55, 76
2, 132175, Note_on_c, 0, 55, 0
2, 132178, Note_on_c, 0, 43, 0
2, 132178, Note_on_c, 0, 67, 0
2, 132185, Note_on_c, 0, 79, 0
2, 132217, Note_on_c, 0, 71, 108
2, 132219, Note_on_c, 0, 83, 99
2, 132220, Note_on_c, 0, 59, 112
2, 132224, Note_on_c, 0, 47, 101
2, 132233, Note_on_c, 0, 71, 0
2, 132235, Note_on_c, 0, 83, 0
2, 132238, Note_on_c, 0, 59, 0
2, 132239, Note_on_c, 0, 47, 0
2, 132403, Control_c, 0, 64, 63
2, 132406, Note_on_c, 0, 51, 97
2, 132410, Control_c, 0, 64, 0
2, 132443, Note_on_c, 0, 57, 71
2, 132467, Note_on_c, 0, 51, 0
2, 132473, Note_on_c, 0, 59, 84
2, 132490, Control_c, 0, 64, 63
2, 132496, Control_c, 0, 64, 127
2, 132516, Note_on_c, 0, 71, 107
2, 132517, Note_on_c, 0, 83, 104
2, 132517, Note_on_c, 0, 78, 110
2, 132523, Note_on_c, 0, 66, 116
2, 132548, Note_on_c, 0, 57, 0
2, 132563, Note_on_c, 0, 66, 0
2, 132565, Note_on_c, 0, 71, 0
2, 132570, Note_on_c, 0, 59, 0
2, 132576, Note_on_c, 0, 83, 0
2, 132578, Note_on_c, 0, 78, 0
2, 132677, Control_c, 0, 64, 63
2, 132680, Control_c, 0, 64, 0
2, 132691, Note_on_c, 0, 55, 98
2, 132692, Note_on_c, 0, 52, 104
2, 132697, Note_on_c, 0, 59, 107
2, 132714, Control_c, 0, 64, 63
2, 132725, Control_c, 0, 64, 127
2, 132747, Note_on_c, 0, 52, 0
2, 132765, Note_on_c, 0, 59, 0
2, 132766, Note_on_c, 0, 55, 0
2, 132838, Note_on_c, 0, 71, 86
2, 132843, Note_on_c, 0, 67, 112
2, 132851, Note_on_c, 0, 76, 100
2, 132852, Note_on_c, 0, 79, 102
2, 132856, Note_on_c, 0, 83, 106
2, 132871, Note_on_c, 0, 67, 0
2, 132877, Note_on_c, 0, 71, 0
2, 132882, Note_on_c, 0, 76, 0
2, 132895, Note_on_c, 0, 79, 0
2, 132897, Note_on_c, 0, 83, 0
2, 133212, Note_on_c, 0, 47, 118
2, 133214, Note_on_c, 0, 40, 113
2, 133250, Control_c, 0, 64, 63
2, 133258, Control_c, 0, 64, 0
2, 133441, Note_on_c, 0, 51, 118
2, 133476, Control_c, 0, 64, 63
2, 133478, Control_c, 0, 64, 127
2, 133574, Note_on_c, 0, 51, 0
2, 133576, Note_on_c, 0, 52, 103
2, 133666, Note_on_c, 0, 55, 96
2, 133668, Note_on_c, 0, 52, 0
2, 133733, Note_on_c, 0, 55, 0
2, 133737, Note_on_c, 0, 59, 101
2, 133774, Note_on_c, 0, 59, 0
2, 133821, Note_on_c, 0, 64, 81
2, 133867, Note_on_c, 0, 64, 0
2, 133873, Note_on_c, 0, 67, 89
2, 133923, Note_on_c, 0, 67, 0
2, 133931, Note_on_c, 0, 71, 97
2, 133949, Note_on_c, 0, 71, 0
2, 133989, Note_on_c, 0, 76, 98
2, 134043, Note_on_c, 0, 79, 84
2, 134044, Note_on_c, 0, 76, 0
2, 134082, Note_on_c, 0, 83, 99
2, 134089, Note_on_c, 0, 79, 0
2, 134107, Note_on_c, 0, 83, 0
2, 134140, Note_on_c, 0, 88, 103
2, 134187, Note_on_c, 0, 88, 0
2, 134205, Note_on_c, 0, 100, 118
2, 134239, Note_on_c, 0, 40, 0
2, 134247, Note_on_c, 0, 47, 0
2, 134257, Note_on_c, 0, 100, 0
2, 134674, Control_c, 0, 64, 63
2, 134697, Control_c, 0, 64, 0
2, 134947, Note_on_c, 0, 83, 65
2, 134958, Note_on_c, 0, 91, 104
2, 135023, Control_c, 0, 64, 63
2, 135052, Control_c, 0, 64, 127
2, 135082, Note_on_c, 0, 95, 88
2, 135087, Note_on_c, 0, 86, 52
2, 135091, Note_on_c, 0, 91, 0
2, 135113, Note_on_c, 0, 83, 0
2, 135177, Note_on_c, 0, 95, 0
2, 135180, Note_on_c, 0, 86, 0
2, 135183, Note_on_c, 0, 93, 85
2, 135193, Note_on_c, 0, 84, 61
2, 135257, Note_on_c, 0, 93, 0
2, 135258, Note_on_c, 0, 90, 91
2, 135270, Note_on_c, 0, 81, 55
2, 135272, Note_on_c, 0, 84, 0
2, 135337, Note_on_c, 0, 90, 0
2, 135338, Note_on_c, 0, 79, 61
2, 135346, Note_on_c, 0, 81, 0
2, 135347, Note_on_c, 0, 88, 84
2, 135405, Note_on_c, 0, 88, 0
2, 135419, Note_on_c, 0, 91, 86
2, 135421, Note_on_c, 0, 79, 0
2, 135421, Note_on_c, 0, 83, 61
2, 135492, Note_on_c, 0, 90, 92
2, 135497, Note_on_c, 0, 81, 60
2, 135498, Note_on_c, 0, 83, 0
2, 135507, Note_on_c, 0, 91, 0
2, 135549, Note_on_c, 0, 78, 82
2, 135551, Note_on_c, 0, 90, 0
2, 135558, Note_on_c, 0, 86, 88
2, 135560, Note_on_c, 0, 81, 0
2, 135609, Note_on_c, 0, 86, 0
2, 135620, Note_on_c, 0, 76, 65
2, 135622, Note_on_c, 0, 78, 0
2, 135627, Note_on_c, 0, 84, 93
2, 135672, Note_on_c, 0, 84, 0
2, 135679, Note_on_c, 0, 88, 92
2, 135682, Note_on_c, 0, 76, 0
2, 135695, Note_on_c, 0, 79, 57
2, 135739, Note_on_c, 0, 86, 86
2, 135747, Note_on_c, 0, 88, 0
2, 135747, Note_on_c, 0, 78, 76
2, 135759, Note_on_c, 0, 79, 0
2, 135790, Note_on_c, 0, 86, 0
2, 135796, Note_on_c, 0, 83, 83
2, 135814, Note_on_c, 0, 74, 71
2, 135820, Note_on_c, 0, 78, 0
2, 135864, Note_on_c, 0, 83, 0
2, 135869, Note_on_c, 0, 72, 79
2, 135872, Note_on_c, 0, 81, 86
2, 135884, Note_on_c, 0, 74, 0
2, 135917, Note_on_c, 0, 81, 0
2, 135924, Note_on_c, 0, 84, 94
2, 135931, Note_on_c, 0, 72, 0
2, 135935, Note_on_c, 0, 76, 66
2, 135978, Note_on_c, 0, 83, 89
2, 135979, Note_on_c, 0, 74, 80
2, 135981, Note_on_c, 0, 84, 0
2, 135988, Note_on_c, 0, 76, 0
2, 136029, Note_on_c, 0, 83, 0
2, 136034, Note_on_c, 0, 79, 85
2, 136035, Note_on_c, 0, 71, 78
2, 136042, Note_on_c, 0, 74, 0
2, 136079, Note_on_c, 0, 79, 0
2, 136081, Note_on_c, 0, 69, 73
2, 136089, Note_on_c, 0, 78, 104
2, 136107, Note_on_c, 0, 71, 0
2, 136142, Note_on_c, 0, 78, 0
2, 136144, Note_on_c, 0, 81, 83
2, 136145, Note_on_c, 0, 69, 0
2, 136148, Note_on_c, 0, 72, 75
2, 136193, Note_on_c, 0, 71, 76
2, 136196, Note_on_c, 0, 79, 90
2, 136206, Note_on_c, 0, 72, 0
2, 136213, Note_on_c, 0, 81, 0
2, 136248, Note_on_c, 0, 76, 80
2, 136253, Note_on_c, 0, 79, 0
2, 136256, Note_on_c, 0, 67, 71
2, 136266, Note_on_c, 0, 71, 0
2, 136306, Note_on_c, 0, 76, 0
2, 136313, Note_on_c, 0, 66, 90
2, 136314, Note_on_c, 0, 75, 94
2, 136323, Note_on_c, 0, 67, 0
2, 136359, Note_on_c, 0, 78, 92
2, 136365, Note_on_c, 0, 75, 0
2, 136380, Note_on_c, 0, 69, 64
2, 136386, Note_on_c, 0, 66, 0
2, 136432, Note_on_c, 0, 76, 79
2, 136434, Note_on_c, 0, 78, 0
2, 136444, Note_on_c, 0, 67, 59
2, 136457, Note_on_c, 0, 69, 0
2, 136488, Note_on_c, 0, 72, 80
2, 136494, Note_on_c, 0, 64, 72
2, 136495, Note_on_c, 0, 76, 0
2, 136500, Note_on_c, 0, 67, 0
2, 136554, Note_on_c, 0, 71, 76
2, 136556, Note_on_c, 0, 72, 0
2, 136556, Note_on_c, 0, 62, 74
2, 136576, Note_on_c, 0, 64, 0
2, 136582, Control_c, 0, 64, 63
2, 136599, Control_c, 0, 64, 0
2, 136613, Note_on_c, 0, 74, 80
2, 136615, Note_on_c, 0, 71, 0
2, 136621, Note_on_c, 0, 62, 0
2, 136621, Note_on_c, 0, 65, 55
2, 136678, Control_c, 0, 64, 63
2, 136689, Control_c, 0, 64, 127
2, 136690, Note_on_c, 0, 64, 59
2, 136691, Note_on_c, 0, 72, 90
2, 136700, Note_on_c, 0, 65, 0
2, 136719, Note_on_c, 0, 74, 0
2, 136755, Note_on_c, 0, 60, 71
2, 136757, Note_on_c, 0, 69, 83
2, 136761, Note_on_c, 0, 72, 0
2, 136801, Note_on_c, 0, 60, 0
2, 136809, Note_on_c, 0, 64, 0
2, 136821, Note_on_c, 0, 69, 0
2, 136868, Note_on_c, 0, 69, 67
2, 136882, Note_on_c, 0, 62, 52
2, 136882, Note_on_c, 0, 65, 45
2, 136887, Control_c, 0, 64, 63
2, 136896, Control_c, 0, 64, 0
2, 136897, Note_on_c, 0, 59, 42
2, 136950, Control_c, 0, 64, 63
2, 136957, Control_c, 0, 64, 127
2, 137071, Note_on_c, 0, 69, 0
2, 137246, Note_on_c, 0, 68, 64
2, 137349, Note_on_c, 0, 68, 0
2, 137363, Note_on_c, 0, 69, 67
2, 137410, Note_on_c, 0, 69, 0
2, 137416, Note_on_c, 0, 68, 73
2, 137458, Note_on_c, 0, 68, 0
2, 137460, Note_on_c, 0, 69, 76
2, 137494, Note_on_c, 0, 68, 78
2, 137507, Note_on_c, 0, 69, 0
2, 137536, Note_on_c, 0, 68, 0
2, 137547, Note_on_c, 0, 69, 76
2, 137588, Note_on_c, 0, 68, 66
2, 137594, Note_on_c, 0, 69, 0
2, 137616, Note_on_c, 0, 59, 0
2, 137647, Note_on_c, 0, 68, 0
2, 137649, Note_on_c, 0, 66, 60
2, 137694, Note_on_c, 0, 68, 77
2, 137708, Note_on_c, 0, 57, 47
2, 137712, Note_on_c, 0, 66, 0
2, 137749, Control_c, 0, 64, 63
2, 137767, Control_c, 0, 64, 0
2, 137905, Control_c, 0, 64, 63
2, 137914, Control_c, 0, 64, 127
2, 137985, Note_on_c, 0, 57, 0
2, 137990, Note_on_c, 0, 68, 0
2, 137998, Note_on_c, 0, 69, 70
2, 138081, Note_on_c, 0, 71, 82
2, 138090, Note_on_c, 0, 69, 0
2, 138094, Note_on_c, 0, 56, 46
2, 138156, Control_c, 0, 64, 63
2, 138180, Control_c, 0, 64, 0
2, 138363, Control_c, 0, 64, 63
2, 138372, Control_c, 0, 64, 127
2, 138556, Note_on_c, 0, 65, 0
2, 138623, Note_on_c, 0, 64, 33
2, 138792, Control_c, 0, 64, 63
2, 138827, Control_c, 0, 64, 0
2, 138980, Control_c, 0, 64, 63
2, 138994, Control_c, 0, 64, 127
2, 139093, Note_on_c, 0, 64, 0
2, 139102, Note_on_c, 0, 62, 0
2, 139121, Note_on_c, 0, 71, 0
2, 139126, Note_on_c, 0, 56, 0
2, 139157, Control_c, 0, 64, 63
2, 139180, Control_c, 0, 64, 0
2, 139552, Note_on_c, 0, 69, 100
2, 139554, Note_on_c, 0, 57, 108
2, 139558, Note_on_c, 0, 45, 124
2, 139560, Note_on_c, 0, 33, 118
2, 139605, Control_c, 0, 64, 63
2, 139605, Control_c, 0, 64, 127
2, 139735, Note_on_c, 0, 57, 0
2, 139735, Note_on_c, 0, 45, 0
2, 139739, Note_on_c, 0, 33, 0
2, 139746, Note_on_c, 0, 69, 0
2, 140043, Control_c, 0, 64, 63
2, 140054, Note_on_c, 0, 68, 108
2, 140055, Note_on_c, 0, 56, 109
2, 140060, Note_on_c, 0, 44, 109
2, 140065, Note_on_c, 0, 32, 109
2, 140072, Control_c, 0, 64, 127
2, 140089, Note_on_c, 0, 56, 0
2, 140095, Note_on_c, 0, 44, 0
2, 140097, Note_on_c, 0, 68, 0
2, 140100, Note_on_c, 0, 32, 0
2, 140230, Control_c, 0, 64, 63
2, 140233, Note_on_c, 0, 57, 104
2, 140235, Note_on_c, 0, 69, 104
2, 140237, Note_on_c, 0, 45, 108
2, 140238, Note_on_c, 0, 33, 104
2, 140239, Control_c, 0, 64, 127
2, 140266, Note_on_c, 0, 57, 0
2, 140268, Note_on_c, 0, 69, 0
2, 140268, Note_on_c, 0, 33, 0
2, 140271, Note_on_c, 0, 45, 0
2, 140434, Note_on_c, 0, 36, 90
2, 140436, Note_on_c, 0, 72, 100
2, 140438, Note_on_c, 0, 60, 97
2, 140439, Note_on_c, 0, 48, 103
2, 140459, Note_on_c, 0, 60, 0
2, 140464, Note_on_c, 0, 36, 0
2, 140467, Note_on_c, 0, 48, 0
2, 140472, Note_on_c, 0, 72, 0
2, 140508, Note_on_c, 0, 66, 118
2, 140508, Note_on_c, 0, 78, 119
2, 140516, Note_on_c, 0, 42, 112
2, 140517, Note_on_c, 0, 54, 119
2, 140521, Note_on_c, 0, 78, 0
2, 140524, Note_on_c, 0, 66, 0
2, 140533, Note_on_c, 0, 54, 0
2, 140539, Note_on_c, 0, 42, 0
2, 140610, Control_c, 0, 64, 63
2, 140621, Control_c, 0, 64, 0
2, 140711, Note_on_c, 0, 51, 92
2, 140725, Control_c, 0, 64, 63
2, 140739, Control_c, 0, 64, 127
2, 140755, Note_on_c, 0, 57, 74
2, 140774, Note_on_c, 0, 51, 0
2, 140789, Note_on_c, 0, 60, 81
2, 140791, Note_on_c, 0, 66, 97
2, 140801, Note_on_c, 0, 69, 92
2, 140813, Note_on_c, 0, 72, 99
2, 140822, Note_on_c, 0, 63, 110
2, 140828, Note_on_c, 0, 78, 108
2, 140830, Note_on_c, 0, 66, 0
2, 140840, Note_on_c, 0, 57, 0
2, 140841, Note_on_c, 0, 69, 0
2, 140846, Note_on_c, 0, 60, 0
2, 140848, Note_on_c, 0, 72, 0
2, 140855, Note_on_c, 0, 63, 0
2, 140866, Note_on_c, 0, 78, 0
2, 140911, Control_c, 0, 64, 63
2, 140925, Control_c, 0, 64, 0
2, 140953, Control_c, 0, 64, 63
2, 140973, Control_c, 0, 64, 127
2, 140997, Note_on_c, 0, 52, 91
2, 141009, Note_on_c, 0, 57, 97
2, 141035, Note_on_c, 0, 60, 99
2, 141052, Note_on_c, 0, 52, 0
2, 141086, Note_on_c, 0, 64, 94
2, 141086, Note_on_c, 0, 66, 95
2, 141094, Note_on_c, 0, 69, 92
2, 141101, Note_on_c, 0, 57, 0
2, 141107, Note_on_c, 0, 60, 0
2, 141117, Note_on_c, 0, 76, 111
2, 141121, Note_on_c, 0, 66, 0
2, 141123, Note_on_c, 0, 64, 0
2, 141132, Note_on_c, 0, 69, 0
2, 141132, Note_on_c, 0, 78, 107
2, 141157, Note_on_c, 0, 76, 0
2, 141162, Note_on_c, 0, 78, 0
2, 141224, Control_c, 0, 64, 63
2, 141230, Control_c, 0, 64, 0
2, 141296, Control_c, 0, 64, 63
2, 141299, Note_on_c, 0, 54, 104
2, 141302, Control_c, 0, 64, 127
2, 141315, Note_on_c, 0, 57, 68
2, 141349, Note_on_c, 0, 60, 71
2, 141386, Note_on_c, 0, 54, 0
2, 141387, Note_on_c, 0, 57, 0
2, 141387, Note_on_c, 0, 63, 103
2, 141411, Note_on_c, 0, 60, 0
2, 141427, Note_on_c, 0, 69, 74
2, 141436, Note_on_c, 0, 63, 0
2, 141455, Note_on_c, 0, 72, 87
2, 141475, Note_on_c, 0, 69, 0
2, 141475, Note_on_c, 0, 75, 108
2, 141490, Note_on_c, 0, 81, 113
2, 141497, Note_on_c, 0, 72, 0
2, 141500, Note_on_c, 0, 66, 120
2, 141506, Note_on_c, 0, 75, 0
2, 141523, Note_on_c, 0, 81, 0
2, 141529, Note_on_c, 0, 66, 0
2, 141801, Note_on_c, 0, 44, 125
2, 141853, Control_c, 0, 64, 63
2, 141859, Control_c, 0, 64, 0
2, 141937, Note_on_c, 0, 45, 111
2, 141947, Control_c, 0, 64, 63
2, 141957, Control_c, 0, 64, 127
2, 141960, Note_on_c, 0, 44, 0
2, 142011, Note_on_c, 0, 48, 108
2, 142020, Note_on_c, 0, 45, 0
2, 142060, Note_on_c, 0, 48, 0
2, 142076, Note_on_c, 0, 51, 104
2, 142109, Note_on_c, 0, 54, 105
2, 142118, Note_on_c, 0, 51, 0
2, 142141, Note_on_c, 0, 54, 0
2, 142176, Note_on_c, 0, 57, 95
2, 142199, Note_on_c, 0, 57, 0
2, 142207, Note_on_c, 0, 60, 98
2, 142243, Note_on_c, 0, 63, 101
2, 142250, Note_on_c, 0, 60, 0
2, 142276, Note_on_c, 0, 66, 94
2, 142282, Note_on_c, 0, 63, 0
2, 142293, Note_on_c, 0, 66, 0
2, 142324, Note_on_c, 0, 69, 99
2, 142354, Note_on_c, 0, 72, 101
2, 142367, Note_on_c, 0, 69, 0
2, 142388, Note_on_c, 0, 75, 106
2, 142401, Note_on_c, 0, 72, 0
2, 142411, Note_on_c, 0, 78, 98
2, 142425, Note_on_c, 0, 75, 0
2, 142439, Note_on_c, 0, 78, 0
2, 142459, Note_on_c, 0, 81, 104
2, 142509, Note_on_c, 0, 81, 0
2, 142530, Note_on_c, 0, 93, 116
2, 142758, Note_on_c, 0, 93, 0
2, 143015, Control_c, 0, 64, 63
2, 143030, Control_c, 0, 64, 0
2, 143264, Note_on_c, 0, 93, 102
2, 143271, Note_on_c, 0, 84, 91
2, 143395, Note_on_c, 0, 88, 76
2, 143407, Note_on_c, 0, 93, 0
2, 143407, Note_on_c, 0, 84, 0
2, 143408, Note_on_c, 0, 96, 87
2, 143497, Note_on_c, 0, 86, 72
2, 143503, Note_on_c, 0, 88, 0
2, 143506, Note_on_c, 0, 95, 98
2, 143532, Note_on_c, 0, 96, 0
2, 143578, Note_on_c, 0, 91, 88
2, 143581, Note_on_c, 0, 83, 76
2, 143582, Note_on_c, 0, 95, 0
2, 143591, Note_on_c, 0, 86, 0
2, 143654, Note_on_c, 0, 81, 76
2, 143655, Note_on_c, 0, 90, 107
2, 143668, Note_on_c, 0, 91, 0
2, 143679, Note_on_c, 0, 83, 0
2, 143704, Note_on_c, 0, 90, 0
2, 143720, Note_on_c, 0, 93, 84
2, 143728, Note_on_c, 0, 84, 76
2, 143732, Note_on_c, 0, 81, 0
2, 143781, Note_on_c, 0, 83, 73
2, 143781, Note_on_c, 0, 91, 89
2, 143792, Note_on_c, 0, 84, 0
2, 143809, Note_on_c, 0, 93, 0
2, 143842, Note_on_c, 0, 88, 73
2, 143845, Note_on_c, 0, 79, 75
2, 143849, Note_on_c, 0, 91, 0
2, 143859, Note_on_c, 0, 83, 0
2, 143897, Note_on_c, 0, 87, 97
2, 143899, Note_on_c, 0, 88, 0
2, 143913, Note_on_c, 0, 78, 83
2, 143937, Note_on_c, 0, 79, 0
2, 143956, Note_on_c, 0, 87, 0
2, 143958, Note_on_c, 0, 90, 93
2, 143970, Note_on_c, 0, 81, 70
2, 143981, Note_on_c, 0, 78, 0
2, 144016, Note_on_c, 0, 88, 91
2, 144019, Note_on_c, 0, 79, 73
2, 144023, Note_on_c, 0, 90, 0
2, 144030, Note_on_c, 0, 81, 0
2, 144062, Note_on_c, 0, 84, 98
2, 144071, Note_on_c, 0, 88, 0
2, 144071, Note_on_c, 0, 76, 79
2, 144079, Note_on_c, 0, 79, 0
2, 144120, Note_on_c, 0, 84, 0
2, 144123, Note_on_c, 0, 83, 88
2, 144125, Note_on_c, 0, 74, 71
2, 144147, Note_on_c, 0, 76, 0
2, 144177, Note_on_c, 0, 83, 0
2, 144181, Note_on_c, 0, 74, 0
2, 144181, Note_on_c, 0, 77, 71
2, 144182, Note_on_c, 0, 86, 98
2, 144231, Note_on_c, 0, 76, 76
2, 144238, Note_on_c, 0, 77, 0
2, 144245, Note_on_c, 0, 84, 89
2, 144263, Note_on_c, 0, 86, 0
2, 144295, Note_on_c, 0, 84, 0
2, 144296, Note_on_c, 0, 81, 78
2, 144296, Note_on_c, 0, 72, 71
2, 144306, Note_on_c, 0, 76, 0
2, 144349, Note_on_c, 0, 71, 74
2, 144357, Note_on_c, 0, 81, 0
2, 144361, Note_on_c, 0, 79, 87
2, 144377, Note_on_c, 0, 72, 0
2, 144417, Note_on_c, 0, 83, 84
2, 144418, Note_on_c, 0, 74, 66
2, 144420, Note_on_c, 0, 79, 0
2, 144421, Note_on_c, 0, 71, 0
2, 144471, Note_on_c, 0, 72, 75
2, 144480, Note_on_c, 0, 74, 0
2, 144485, Note_on_c, 0, 81, 83
2, 144488, Note_on_c, 0, 83, 0
2, 144541, Note_on_c, 0, 69, 65
2, 144542, Note_on_c, 0, 78, 88
2, 144547, Note_on_c, 0, 81, 0
2, 144548, Note_on_c, 0, 72, 0
2, 144605, Note_on_c, 0, 67, 68
2, 144610, Note_on_c, 0, 78, 0
2, 144616, Note_on_c, 0, 76, 83
2, 144631, Note_on_c, 0, 69, 0
2, 144676, Note_on_c, 0, 71, 64
2, 144681, Note_on_c, 0, 79, 80
2, 144683, Note_on_c, 0, 67, 0
2, 144684, Note_on_c, 0, 76, 0
2, 144753, Note_on_c, 0, 78, 82
2, 144757, Note_on_c, 0, 69, 35
2, 144762, Note_on_c, 0, 79, 0
2, 144763, Note_on_c, 0, 71, 0
2, 144817, Note_on_c, 0, 66, 70
2, 144822, Note_on_c, 0, 75, 68
2, 144824, Note_on_c, 0, 78, 0
2, 144834, Note_on_c, 0, 69, 0
2, 144905, Note_on_c, 0, 75, 0
2, 144907, Note_on_c, 0, 72, 63
2, 144913, Note_on_c, 0, 64, 58
2, 144920, Control_c, 0, 64, 63
2, 144936, Note_on_c, 0, 66, 0
2, 144937, Control_c, 0, 64, 127
2, 145002, Note_on_c, 0, 78, 67
2, 145012, Note_on_c, 0, 69, 38
2, 145023, Note_on_c, 0, 64, 0
2, 145043, Note_on_c, 0, 72, 0
2, 145097, Note_on_c, 0, 78, 0
2, 145100, Note_on_c, 0, 71, 63
2, 145117, Note_on_c, 0, 63, 62
2, 145187, Note_on_c, 0, 71, 0
2, 145196, Note_on_c, 0, 63, 0
2, 145198, Note_on_c, 0, 83, 72
2, 145210, Note_on_c, 0, 59, 49
2, 145217, Note_on_c, 0, 69, 0
2, 145253, Note_on_c, 0, 83, 0
2, 145334, Note_on_c, 0, 59, 0
2, 145361, Note_on_c, 0, 76, 67
2, 145366, Note_on_c, 0, 71, 30
2, 145368, Note_on_c, 0, 64, 29
2, 145370, Note_on_c, 0, 67, 28
2, 145408, Control_c, 0, 64, 63
2, 145449, Control_c, 0, 64, 127
2, 145552, Note_on_c, 0, 71, 0
2, 145587, Note_on_c, 0, 76, 0
2, 145594, Note_on_c, 0, 67, 0
2, 145608, Note_on_c, 0, 64, 0
2, 145723, Note_on_c, 0, 69, 45
2, 145728, Note_on_c, 0, 76, 64
2, 145733, Note_on_c, 0, 72, 40
2, 145737, Note_on_c, 0, 57, 41
2, 145767, Control_c, 0, 64, 63
2, 145787, Control_c, 0, 64, 127
2, 145826, Note_on_c, 0, 78, 84
2, 145853, Note_on_c, 0, 76, 0
2, 145920, Note_on_c, 0, 76, 85
2, 145941, Note_on_c, 0, 78, 0
2, 145992, Note_on_c, 0, 69, 0
2, 145995, Note_on_c, 0, 75, 96
2, 146025, Note_on_c, 0, 76, 0
2, 146026, Note_on_c, 0, 72, 0
2, 146101, Note_on_c, 0, 57, 0
2, 146114, Note_on_c, 0, 75, 0
2, 146121, Note_on_c, 0, 76, 84
2, 146125, Note_on_c, 0, 63, 52
2, 146133, Note_on_c, 0, 59, 43
2, 146137, Note_on_c, 0, 71, 38
2, 146187, Control_c, 0, 64, 63
2, 146210, Control_c, 0, 64, 0
2, 146220, Control_c, 0, 64, 63
2, 146239, Control_c, 0, 64, 127
2, 146323, Note_on_c, 0, 71, 0
2, 146376, Note_on_c, 0, 63, 0
2, 146387, Note_on_c, 0, 59, 0
2, 146484, Note_on_c, 0, 76, 0
2, 146536, Note_on_c, 0, 69, 40
2, 146536, Note_on_c, 0, 78, 70
2, 146592, Note_on_c, 0, 69, 0
2, 146594, Note_on_c, 0, 78, 0
2, 146728, Note_on_c, 0, 79, 67
2, 146736, Note_on_c, 0, 52, 25
2, 146737, Note_on_c, 0, 64, 10
2, 146737, Note_on_c, 0, 67, 21
2, 146823, Control_c, 0, 64, 63
2, 146838, Control_c, 0, 64, 0
2, 146901, Control_c, 0, 64, 63
2, 146912, Control_c, 0, 64, 127
2, 147055, Note_on_c, 0, 52, 0
2, 147062, Note_on_c, 0, 64, 0
2, 147096, Note_on_c, 0, 79, 0
2, 147121, Note_on_c, 0, 67, 0
2, 147321, Control_c, 0, 64, 63
2, 147346, Control_c, 0, 64, 0
2, 148295, Control_c, 0, 64, 63
2, 148318, Control_c, 0, 64, 127
2, 148357, Note_on_c, 0, 40, 41
2, 148442, Note_on_c, 0, 40, 0
2, 148732, Note_on_c, 0, 59, 33
2, 148741, Note_on_c, 0, 55, 32
2, 148746, Note_on_c, 0, 64, 15
2, 148813, Note_on_c, 0, 59, 0
2, 148823, Note_on_c, 0, 55, 0
2, 148828, Note_on_c, 0, 64, 0
2, 148987, Note_on_c, 0, 59, 34
2, 148990, Note_on_c, 0, 55, 33
2, 148991, Note_on_c, 0, 64, 20
2, 149067, Note_on_c, 0, 64, 0
2, 149069, Note_on_c, 0, 59, 0
2, 149083, Note_on_c, 0, 55, 0
2, 149184, Note_on_c, 0, 59, 39
2, 149189, Note_on_c, 0, 55, 29
2, 149193, Note_on_c, 0, 64, 17
2, 149267, Note_on_c, 0, 64, 0
2, 149272, Note_on_c, 0, 59, 0
2, 149278, Note_on_c, 0, 83, 53
2, 149281, Note_on_c, 0, 55, 0
2, 149400, Note_on_c, 0, 59, 31
2, 149403, Note_on_c, 0, 55, 22
2, 149405, Note_on_c, 0, 64, 20
2, 149405, Note_on_c, 0, 79, 64
2, 149441, Note_on_c, 0, 83, 0
2, 149513, Note_on_c, 0, 64, 0
2, 149515, Note_on_c, 0, 59, 0
2, 149519, Note_on_c, 0, 55, 0
2, 149598, Note_on_c, 0, 79, 0
2, 149598, Note_on_c, 0, 59, 49
2, 149599, Note_on_c, 0, 55, 33
2, 149600, Note_on_c, 0, 64, 35
2, 149670, Note_on_c, 0, 64, 0
2, 149673, Note_on_c, 0, 59, 0
2, 149685, Note_on_c, 0, 55, 0
2, 149686, Note_on_c, 0, 81, 77
2, 149760, Note_on_c, 0, 81, 0
2, 149763, Note_on_c, 0, 59, 49
2, 149766, Note_on_c, 0, 64, 33
2, 149769, Note_on_c, 0, 55, 32
2, 149780, Note_on_c, 0, 83, 78
2, 149863, Note_on_c, 0, 59, 0
2, 149865, Note_on_c, 0, 64, 0
2, 149873, Note_on_c, 0, 55, 0
2, 149946, Note_on_c, 0, 64, 50
2, 149948, Note_on_c, 0, 59, 57
2, 149948, Note_on_c, 0, 55, 40
2, 150035, Note_on_c, 0, 64, 0
2, 150041, Note_on_c, 0, 59, 0
2, 150048, Note_on_c, 0, 55, 0
2, 150109, Note_on_c, 0, 59, 55
2, 150111, Note_on_c, 0, 64, 50
2, 150116, Note_on_c, 0, 55, 41
2, 150152, Note_on_c, 0, 83, 0
2, 150194, Note_on_c, 0, 59, 0
2, 150195, Note_on_c, 0, 64, 0
2, 150200, Note_on_c, 0, 55, 0
2, 150271, Note_on_c, 0, 59, 55
2, 150272, Note_on_c, 0, 64, 45
2, 150277, Note_on_c, 0, 88, 91
2, 150279, Note_on_c, 0, 55, 42
2, 150381, Note_on_c, 0, 59, 0
2, 150381, Note_on_c, 0, 55, 0
2, 150384, Note_on_c, 0, 64, 0
2, 150463, Note_on_c, 0, 59, 61
2, 150465, Note_on_c, 0, 64, 52
2, 150467, Note_on_c, 0, 90, 94
2, 150469, Note_on_c, 0, 55, 47
2, 150495, Note_on_c, 0, 88, 0
2, 150562, Note_on_c, 0, 59, 0
2, 150563, Note_on_c, 0, 64, 0
2, 150571, Note_on_c, 0, 55, 0
2, 150628, Note_on_c, 0, 91, 91
2, 150634, Note_on_c, 0, 59, 55
2, 150635, Note_on_c, 0, 64, 50
2, 150638, Note_on_c, 0, 55, 42
2, 150663, Note_on_c, 0, 90, 0
2, 150735, Note_on_c, 0, 64, 0
2, 150739, Note_on_c, 0, 59, 0
2, 150746, Note_on_c, 0, 55, 0
2, 150795, Note_on_c, 0, 90, 98
2, 150802, Note_on_c, 0, 59, 50
2, 150805, Note_on_c, 0, 55, 38
2, 150807, Note_on_c, 0, 64, 46
2, 150827, Note_on_c, 0, 91, 0
2, 150896, Note_on_c, 0, 64, 0
2, 150900, Note_on_c, 0, 59, 0
2, 150907, Note_on_c, 0, 55, 0
2, 150956, Note_on_c, 0, 88, 94
2, 150961, Note_on_c, 0, 59, 61
2, 150961, Note_on_c, 0, 64, 50
2, 150964, Note_on_c, 0, 55, 36
2, 150991, Note_on_c, 0, 90, 0
2, 151050, Note_on_c, 0, 59, 0
2, 151050, Note_on_c, 0, 64, 0
2, 151054, Note_on_c, 0, 55, 0
2, 151115, Note_on_c, 0, 83, 78
2, 151120, Note_on_c, 0, 59, 48
2, 151123, Note_on_c, 0, 64, 40
2, 151125, Note_on_c, 0, 55, 39
2, 151154, Note_on_c, 0, 88, 0
2, 151210, Note_on_c, 0, 64, 0
2, 151213, Note_on_c, 0, 59, 0
2, 151219, Note_on_c, 0, 55, 0
2, 151271, Note_on_c, 0, 83, 0
2, 151280, Note_on_c, 0, 59, 53
2, 151281, Note_on_c, 0, 64, 44
2, 151283, Note_on_c, 0, 55, 36
2, 151309, Note_on_c, 0, 84, 86
2, 151366, Note_on_c, 0, 59, 0
2, 151367, Note_on_c, 0, 64, 0
2, 151372, Note_on_c, 0, 86, 86
2, 151375, Note_on_c, 0, 55, 0
2, 151389, Note_on_c, 0, 84, 0
2, 151447, Note_on_c, 0, 59, 50
2, 151449, Note_on_c, 0, 64, 36
2, 151450, Note_on_c, 0, 55, 35
2, 151456, Note_on_c, 0, 84, 87
2, 151506, Note_on_c, 0, 86, 0
2, 151558, Note_on_c, 0, 59, 0
2, 151567, Note_on_c, 0, 55, 0
2, 151570, Note_on_c, 0, 64, 0
2, 151693, Note_on_c, 0, 59, 47
2, 151695, Note_on_c, 0, 55, 41
2, 151701, Note_on_c, 0, 64, 24
2, 151754, Note_on_c, 0, 55, 0
2, 151762, Note_on_c, 0, 59, 0
2, 151780, Note_on_c, 0, 64, 0
2, 151790, Note_on_c, 0, 83, 79
2, 151813, Note_on_c, 0, 84, 0
2, 151885, Note_on_c, 0, 83, 0
2, 151930, Note_on_c, 0, 83, 62
2, 151938, Note_on_c, 0, 57, 38
2, 151942, Note_on_c, 0, 54, 36
2, 151943, Note_on_c, 0, 60, 43
2, 151961, Note_on_c, 0, 64, 8
2, 152004, Control_c, 0, 64, 63
2, 152025, Control_c, 0, 64, 127
2, 152102, Note_on_c, 0, 60, 0
2, 152107, Note_on_c, 0, 57, 0
2, 152110, Note_on_c, 0, 64, 0
2, 152168, Note_on_c, 0, 64, 46
2, 152186, Note_on_c, 0, 60, 34
2, 152187, Note_on_c, 0, 57, 28
2, 152245, Note_on_c, 0, 60, 0
2, 152250, Note_on_c, 0, 64, 0
2, 152252, Note_on_c, 0, 57, 0
2, 152351, Note_on_c, 0, 64, 25
2, 152353, Note_on_c, 0, 81, 78
2, 152353, Note_on_c, 0, 57, 39
2, 152356, Note_on_c, 0, 60, 50
2, 152389, Note_on_c, 0, 83, 0
2, 152430, Note_on_c, 0, 60, 0
2, 152436, Note_on_c, 0, 64, 0
2, 152441, Note_on_c, 0, 57, 0
2, 152528, Note_on_c, 0, 64, 25
2, 152542, Note_on_c, 0, 60, 35
2, 152545, Note_on_c, 0, 57, 21
2, 152561, Note_on_c, 0, 81, 0
2, 152602, Note_on_c, 0, 64, 0
2, 152603, Note_on_c, 0, 60, 0
2, 152619, Note_on_c, 0, 57, 0
2, 152701, Note_on_c, 0, 57, 35
2, 152707, Note_on_c, 0, 64, 10
2, 152709, Note_on_c, 0, 60, 35
2, 152769, Note_on_c, 0, 64, 0
2, 152774, Note_on_c, 0, 60, 0
2, 152781, Note_on_c, 0, 57, 0
2, 152894, Note_on_c, 0, 64, 14
2, 152897, Note_on_c, 0, 60, 32
2, 152903, Note_on_c, 0, 57, 11
2, 152996, Note_on_c, 0, 64, 0
2, 152997, Note_on_c, 0, 60, 0
2, 153003, Note_on_c, 0, 57, 0
2, 153059, Control_c, 0, 64, 63
2, 153065, Note_on_c, 0, 54, 0
2, 153116, Note_on_c, 0, 42, 45
2, 153126, Control_c, 0, 64, 127
2, 153397, Note_on_c, 0, 64, 21
2, 153397, Note_on_c, 0, 57, 25
2, 153399, Note_on_c, 0, 60, 32
2, 153527, Note_on_c, 0, 60, 0
2, 153529, Note_on_c, 0, 57, 0
2, 153535, Note_on_c, 0, 64, 0
2, 153627, Note_on_c, 0, 64, 28
2, 153634, Note_on_c, 0, 60, 36
2, 153643, Note_on_c, 0, 57, 27
2, 153649, Note_on_c, 0, 42, 0
2, 153700, Note_on_c, 0, 60, 0
2, 153702, Note_on_c, 0, 64, 0
2, 153706, Note_on_c, 0, 57, 0
2, 153804, Note_on_c, 0, 60, 51
2, 153805, Note_on_c, 0, 64, 31
2, 153810, Note_on_c, 0, 57, 41
2, 153878, Note_on_c, 0, 60, 0
2, 153883, Note_on_c, 0, 64, 0
2, 153886, Note_on_c, 0, 57, 0
2, 153929, Note_on_c, 0, 84, 68
2, 154036, Note_on_c, 0, 64, 32
2, 154036, Note_on_c, 0, 60, 41
2, 154037, Note_on_c, 0, 81, 81
2, 154040, Note_on_c, 0, 57, 38
2, 154054, Note_on_c, 0, 84, 0
2, 154081, Note_on_c, 0, 60, 0
2, 154134, Note_on_c, 0, 64, 0
2, 154137, Note_on_c, 0, 57, 0
2, 154180, Note_on_c, 0, 81, 0
2, 154221, Note_on_c, 0, 57, 58
2, 154222, Note_on_c, 0, 64, 63
2, 154223, Note_on_c, 0, 60, 69
2, 154277, Note_on_c, 0, 60, 0
2, 154280, Note_on_c, 0, 64, 0
2, 154292, Note_on_c, 0, 57, 0
2, 154304, Note_on_c, 0, 83, 87
2, 154375, Note_on_c, 0, 83, 0
2, 154387, Note_on_c, 0, 57, 55
2, 154392, Note_on_c, 0, 84, 88
2, 154394, Note_on_c, 0, 64, 63
2, 154394, Note_on_c, 0, 60, 68
2, 154409, Note_on_c, 0, 54, 67
2, 154528, Note_on_c, 0, 64, 0
2, 154528, Note_on_c, 0, 60, 0
2, 154533, Note_on_c, 0, 57, 0
2, 154573, Note_on_c, 0, 64, 72
2, 154575, Note_on_c, 0, 57, 50
2, 154579, Note_on_c, 0, 60, 65
2, 154647, Note_on_c, 0, 64, 0
2, 154655, Note_on_c, 0, 57, 0
2, 154657, Note_on_c, 0, 60, 0
2, 154708, Note_on_c, 0, 84, 0
2, 154715, Note_on_c, 0, 57, 69
2, 154717, Note_on_c, 0, 64, 72
2, 154721, Note_on_c, 0, 60, 69
2, 154798, Note_on_c, 0, 57, 0
2, 154798, Note_on_c, 0, 64, 0
2, 154799, Note_on_c, 0, 60, 0
2, 154869, Note_on_c, 0, 64, 65
2, 154870, Note_on_c, 0, 90, 105
2, 154873, Note_on_c, 0, 57, 63
2, 154881, Note_on_c, 0, 60, 56
2, 154937, Note_on_c, 0, 60, 0
2, 154940, Note_on_c, 0, 64, 0
2, 154947, Note_on_c, 0, 57, 0
2, 155044, Note_on_c, 0, 57, 57
2, 155050, Note_on_c, 0, 64, 47
2, 155053, Note_on_c, 0, 60, 58
2, 155064, Note_on_c, 0, 91, 104
2, 155095, Note_on_c, 0, 90, 0
2, 155148, Note_on_c, 0, 57, 0
2, 155148, Note_on_c, 0, 60, 0
2, 155149, Note_on_c, 0, 64, 0
2, 155225, Note_on_c, 0, 64, 70
2, 155227, Note_on_c, 0, 57, 63
2, 155228, Note_on_c, 0, 93, 99
2, 155230, Note_on_c, 0, 60, 62
2, 155266, Note_on_c, 0, 60, 0
2, 155268, Note_on_c, 0, 64, 0
2, 155283, Note_on_c, 0, 91, 0
2, 155284, Note_on_c, 0, 57, 0
2, 155304, Note_on_c, 0, 54, 0
2, 155420, Note_on_c, 0, 93, 0
2, 155446, Note_on_c, 0, 47, 94
2, 155454, Control_c, 0, 64, 63
2, 155461, Note_on_c, 0, 93, 90
2, 155500, Control_c, 0, 64, 127
2, 155558, Note_on_c, 0, 47, 0
2, 155607, Note_on_c, 0, 93, 0
2, 155621, Note_on_c, 0, 87, 91
2, 155681, Note_on_c, 0, 87, 0
2, 155712, Note_on_c, 0, 88, 77
2, 155714, Note_on_c, 0, 63, 81
2, 155720, Note_on_c, 0, 54, 69
2, 155722, Note_on_c, 0, 57, 52
2, 155771, Note_on_c, 0, 63, 0
2, 155781, Note_on_c, 0, 54, 0
2, 155790, Note_on_c, 0, 57, 0
2, 155792, Note_on_c, 0, 88, 0
2, 155793, Note_on_c, 0, 91, 85
2, 155844, Note_on_c, 0, 90, 83
2, 155858, Note_on_c, 0, 91, 0
2, 155897, Note_on_c, 0, 63, 73
2, 155898, Note_on_c, 0, 90, 0
2, 155899, Note_on_c, 0, 54, 67
2, 155904, Note_on_c, 0, 57, 57
2, 155906, Note_on_c, 0, 88, 73
2, 155956, Note_on_c, 0, 63, 0
2, 155965, Note_on_c, 0, 87, 84
2, 155966, Note_on_c, 0, 88, 0
2, 155968, Note_on_c, 0, 57, 0
2, 155970, Note_on_c, 0, 54, 0
2, 156010, Note_on_c, 0, 87, 0
2, 156017, Note_on_c, 0, 84, 83
2, 156064, Note_on_c, 0, 83, 72
2, 156067, Note_on_c, 0, 84, 0
2, 156072, Note_on_c, 0, 63, 72
2, 156075, Note_on_c, 0, 54, 63
2, 156083, Note_on_c, 0, 57, 56
2, 156105, Note_on_c, 0, 83, 0
2, 156114, Note_on_c, 0, 81, 59
2, 156127, Note_on_c, 0, 63, 0
2, 156135, Note_on_c, 0, 54, 0
2, 156137, Note_on_c, 0, 57, 0
2, 156156, Note_on_c, 0, 81, 0
2, 156159, Note_on_c, 0, 79, 82
2, 156202, Note_on_c, 0, 79, 0
2, 156207, Note_on_c, 0, 78, 86
2, 156234, Note_on_c, 0, 63, 76
2, 156236, Note_on_c, 0, 54, 73
2, 156243, Note_on_c, 0, 78, 0
2, 156243, Note_on_c, 0, 57, 61
2, 156255, Note_on_c, 0, 76, 71
2, 156287, Note_on_c, 0, 76, 0
2, 156288, Note_on_c, 0, 63, 0
2, 156296, Note_on_c, 0, 54, 0
2, 156297, Note_on_c, 0, 75, 91
2, 156300, Note_on_c, 0, 57, 0
2, 156325, Note_on_c, 0, 75, 0
2, 156344, Note_on_c, 0, 72, 58
2, 156384, Note_on_c, 0, 71, 84
2, 156393, Note_on_c, 0, 72, 0
2, 156394, Note_on_c, 0, 63, 75
2, 156398, Note_on_c, 0, 57, 60
2, 156399, Note_on_c, 0, 54, 66
2, 156423, Note_on_c, 0, 71, 0
2, 156425, Note_on_c, 0, 69, 71
2, 156443, Note_on_c, 0, 63, 0
2, 156457, Note_on_c, 0, 57, 0
2, 156465, Note_on_c, 0, 54, 0
2, 156468, Note_on_c, 0, 69, 0
2, 156469, Note_on_c, 0, 71, 82
2, 156505, Note_on_c, 0, 69, 88
2, 156515, Note_on_c, 0, 71, 0
2, 156548, Note_on_c, 0, 67, 77
2, 156554, Note_on_c, 0, 69, 0
2, 156586, Note_on_c, 0, 69, 71
2, 156599, Note_on_c, 0, 52, 35
2, 156600, Note_on_c, 0, 67, 0
2, 156614, Control_c, 0, 64, 63
2, 156622, Control_c, 0, 64, 0
2, 156641, Note_on_c, 0, 71, 93
2, 156644, Note_on_c, 0, 69, 0
2, 156706, Control_c, 0, 64, 63
2, 156712, Control_c, 0, 64, 127
2, 156810, Note_on_c, 0, 71, 0
2, 156835, Note_on_c, 0, 64, 46
2, 156837, Note_on_c, 0, 55, 44
2, 156839, Note_on_c, 0, 59, 61
2, 156922, Note_on_c, 0, 64, 0
2, 156926, Note_on_c, 0, 55, 0
2, 156927, Note_on_c, 0, 59, 0
2, 156928, Note_on_c, 0, 69, 64
2, 156966, Note_on_c, 0, 67, 81
2, 156994, Note_on_c, 0, 69, 0
2, 157016, Note_on_c, 0, 67, 0
2, 157043, Note_on_c, 0, 59, 42
2, 157044, Note_on_c, 0, 55, 38
2, 157046, Note_on_c, 0, 67, 59
2, 157050, Note_on_c, 0, 64, 23
2, 157129, Note_on_c, 0, 55, 0
2, 157130, Note_on_c, 0, 59, 0
2, 157131, Note_on_c, 0, 64, 0
2, 157145, Note_on_c, 0, 67, 0
2, 157221, Note_on_c, 0, 59, 52
2, 157222, Note_on_c, 0, 55, 49
2, 157224, Note_on_c, 0, 64, 30
2, 157289, Note_on_c, 0, 59, 0
2, 157290, Note_on_c, 0, 64, 0
2, 157297, Note_on_c, 0, 55, 0
2, 157300, Note_on_c, 0, 52, 0
2, 157385, Note_on_c, 0, 64, 28
2, 157391, Note_on_c, 0, 59, 40
2, 157397, Note_on_c, 0, 55, 28
2, 157442, Note_on_c, 0, 76, 88
2, 157473, Note_on_c, 0, 59, 0
2, 157474, Note_on_c, 0, 64, 0
2, 157480, Note_on_c, 0, 55, 0
2, 157678, Note_on_c, 0, 59, 41
2, 157681, Note_on_c, 0, 55, 33
2, 157684, Note_on_c, 0, 64, 35
2, 157750, Note_on_c, 0, 64, 0
2, 157752, Note_on_c, 0, 55, 0
2, 157753, Note_on_c, 0, 59, 0
2, 157915, Note_on_c, 0, 54, 60
2, 157975, Control_c, 0, 64, 63
2, 158027, Control_c, 0, 64, 127
2, 158168, Note_on_c, 0, 60, 38
2, 158174, Note_on_c, 0, 57, 35
2, 158249, Note_on_c, 0, 60, 0
2, 158257, Note_on_c, 0, 57, 0
2, 158264, Note_on_c, 0, 76, 0
2, 158348, Note_on_c, 0, 75, 88
2, 158348, Note_on_c, 0, 60, 41
2, 158352, Note_on_c, 0, 57, 39
2, 158401, Note_on_c, 0, 60, 0
2, 158422, Note_on_c, 0, 57, 0
2, 158511, Note_on_c, 0, 60, 61
2, 158511, Note_on_c, 0, 57, 62
2, 158657, Note_on_c, 0, 52, 67
2, 158658, Note_on_c, 0, 75, 0
2, 158661, Note_on_c, 0, 60, 0
2, 158672, Note_on_c, 0, 76, 89
2, 158723, Note_on_c, 0, 57, 0
2, 158727, Control_c, 0, 64, 63
2, 158742, Note_on_c, 0, 54, 0
2, 158784, Control_c, 0, 64, 127
2, 158819, Note_on_c, 0, 57, 65
2, 158822, Note_on_c, 0, 60, 76
2, 158882, Note_on_c, 0, 60, 0
2, 158926, Note_on_c, 0, 52, 0
2, 158980, Note_on_c, 0, 76, 0
2, 159015, Note_on_c, 0, 51, 70
2, 159026, Note_on_c, 0, 79, 90
2, 159038, Note_on_c, 0, 57, 0
2, 159136, Control_c, 0, 64, 63
2, 159205, Control_c, 0, 64, 127
2, 159251, Note_on_c, 0, 57, 39
2, 159260, Note_on_c, 0, 60, 36
2, 159331, Note_on_c, 0, 57, 0
2, 159332, Note_on_c, 0, 60, 0
2, 159360, Note_on_c, 0, 79, 0
2, 159393, Note_on_c, 0, 57, 51
2, 159396, Note_on_c, 0, 60, 47
2, 159437, Note_on_c, 0, 60, 0
2, 159454, Note_on_c, 0, 57, 0
2, 159536, Note_on_c, 0, 78, 89
2, 159543, Note_on_c, 0, 57, 38
2, 159547, Note_on_c, 0, 60, 34
2, 159604, Note_on_c, 0, 60, 0
2, 159619, Note_on_c, 0, 78, 0
2, 159667, Note_on_c, 0, 51, 0
2, 159690, Note_on_c, 0, 52, 60
2, 159703, Note_on_c, 0, 76, 77
2, 159712, Note_on_c, 0, 57, 0
2, 159764, Control_c, 0, 64, 63
2, 159800, Control_c, 0, 64, 127
2, 159823, Note_on_c, 0, 74, 66
2, 159848, Note_on_c, 0, 76, 0
2, 159899, Note_on_c, 0, 72, 58
2, 159900, Note_on_c, 0, 57, 47
2, 159900, Note_on_c, 0, 60, 32
2, 159913, Note_on_c, 0, 74, 0
2, 159944, Note_on_c, 0, 71, 71
2, 159956, Note_on_c, 0, 72, 0
2, 159966, Note_on_c, 0, 60, 0
2, 159977, Note_on_c, 0, 57, 0
2, 159987, Note_on_c, 0, 71, 0
2, 159987, Note_on_c, 0, 69, 66
2, 160034, Note_on_c, 0, 67, 85
2, 160042, Note_on_c, 0, 69, 0
2, 160084, Note_on_c, 0, 67, 0
2, 160084, Note_on_c, 0, 66, 80
2, 160126, Note_on_c, 0, 66, 0
2, 160127, Note_on_c, 0, 54, 64
2, 160130, Note_on_c, 0, 64, 71
2, 160164, Control_c, 0, 64, 63
2, 160171, Note_on_c, 0, 52, 0
2, 160173, Control_c, 0, 64, 0
2, 160222, Control_c, 0, 64, 63
2, 160233, Control_c, 0, 64, 127
2, 160315, Note_on_c, 0, 60, 38
2, 160315, Note_on_c, 0, 57, 45
2, 160361, Note_on_c, 0, 60, 0
2, 160379, Note_on_c, 0, 57, 0
2, 160406, Note_on_c, 0, 64, 0
2, 160464, Note_on_c, 0, 63, 80
2, 160472, Note_on_c, 0, 60, 30
2, 160475, Note_on_c, 0, 57, 35
2, 160515, Note_on_c, 0, 60, 0
2, 160529, Note_on_c, 0, 57, 0
2, 160566, Note_on_c, 0, 63, 0
2, 160567, Note_on_c, 0, 66, 88
2, 160601, Note_on_c, 0, 66, 0
2, 160624, Note_on_c, 0, 69, 74
2, 160631, Note_on_c, 0, 57, 50
2, 160639, Note_on_c, 0, 60, 46
2, 160673, Note_on_c, 0, 69, 0
2, 160680, Note_on_c, 0, 72, 73
2, 160692, Note_on_c, 0, 60, 0
2, 160714, Note_on_c, 0, 75, 96
2, 160720, Note_on_c, 0, 72, 0
2, 160747, Note_on_c, 0, 54, 0
2, 160748, Control_c, 0, 64, 63
2, 160755, Control_c, 0, 64, 0
2, 160761, Note_on_c, 0, 75, 0
2, 160762, Note_on_c, 0, 57, 0
2, 160770, Note_on_c, 0, 78, 88
2, 160813, Control_c, 0, 64, 63
2, 160820, Control_c, 0, 64, 127
2, 160826, Note_on_c, 0, 78, 0
2, 160850, Note_on_c, 0, 51, 64
2, 160854, Note_on_c, 0, 81, 78
2, 160920, Note_on_c, 0, 51, 0
2, 160985, Note_on_c, 0, 81, 0
2, 161095, Note_on_c, 0, 66, 45
2, 161109, Note_on_c, 0, 59, 37
2, 161158, Note_on_c, 0, 66, 0
2, 161163, Note_on_c, 0, 59, 0
2, 161198, Note_on_c, 0, 83, 71
2, 161324, Note_on_c, 0, 52, 32
2, 161333, Note_on_c, 0, 83, 0
2, 161340, Note_on_c, 0, 81, 75
2, 161378, Control_c, 0, 64, 63
2, 161383, Control_c, 0, 64, 0
2, 161441, Control_c, 0, 64, 63
2, 161447, Control_c, 0, 64, 127
2, 161541, Note_on_c, 0, 59, 48
2, 161545, Note_on_c, 0, 64, 41
2, 161549, Note_on_c, 0, 55, 37
2, 161602, Note_on_c, 0, 59, 0
2, 161609, Note_on_c, 0, 64, 0
2, 161626, Note_on_c, 0, 55, 0
2, 161709, Note_on_c, 0, 79, 72
2, 161718, Note_on_c, 0, 59, 39
2, 161721, Note_on_c, 0, 55, 25
2, 161727, Note_on_c, 0, 81, 0
2, 161729, Note_on_c, 0, 64, 13
2, 161765, Note_on_c, 0, 59, 0
2, 161771, Note_on_c, 0, 64, 0
2, 161786, Note_on_c, 0, 55, 0
2, 161846, Note_on_c, 0, 79, 0
2, 161859, Note_on_c, 0, 64, 47
2, 161860, Note_on_c, 0, 59, 56
2, 161892, Note_on_c, 0, 64, 0
2, 161899, Note_on_c, 0, 59, 0
2, 161951, Note_on_c, 0, 52, 0
2, 162002, Note_on_c, 0, 78, 82
2, 162012, Note_on_c, 0, 50, 81
2, 162096, Control_c, 0, 64, 63
2, 162118, Control_c, 0, 64, 127
2, 162165, Note_on_c, 0, 59, 53
2, 162169, Note_on_c, 0, 54, 57
2, 162219, Note_on_c, 0, 59, 0
2, 162277, Note_on_c, 0, 50, 0
2, 162289, Note_on_c, 0, 54, 0
2, 162321, Note_on_c, 0, 48, 82
2, 162375, Control_c, 0, 64, 63
2, 162398, Control_c, 0, 64, 127
2, 162486, Note_on_c, 0, 48, 0
2, 162530, Note_on_c, 0, 78, 0
2, 162542, Note_on_c, 0, 54, 67
2, 162548, Note_on_c, 0, 64, 53
2, 162574, Note_on_c, 0, 76, 48
2, 162597, Note_on_c, 0, 64, 0
2, 162600, Note_on_c, 0, 54, 0
2, 162619, Note_on_c, 0, 76, 0
2, 162625, Note_on_c, 0, 78, 78
2, 162666, Note_on_c, 0, 76, 79
2, 162671, Note_on_c, 0, 78, 0
2, 162718, Note_on_c, 0, 54, 62
2, 162722, Note_on_c, 0, 64, 49
2, 162725, Note_on_c, 0, 75, 93
2, 162745, Note_on_c, 0, 76, 0
2, 162794, Note_on_c, 0, 54, 0
2, 162797, Note_on_c, 0, 64, 0
2, 162861, Note_on_c, 0, 76, 108
2, 162874, Note_on_c, 0, 54, 72
2, 162877, Note_on_c, 0, 64, 52
2, 162894, Note_on_c, 0, 75, 0
2, 162924, Note_on_c, 0, 54, 0
2, 162947, Note_on_c, 0, 64, 0
2, 163003, Note_on_c, 0, 54, 56
2, 163020, Note_on_c, 0, 58, 60
2, 163028, Note_on_c, 0, 64, 40
2, 163060, Note_on_c, 0, 79, 83
2, 163067, Note_on_c, 0, 76, 0
2, 163082, Control_c, 0, 64, 63
2, 163108, Control_c, 0, 64, 127
2, 163205, Note_on_c, 0, 64, 0
2, 163207, Note_on_c, 0, 58, 0
2, 163212, Note_on_c, 0, 54, 0
2, 163229, Note_on_c, 0, 79, 0
2, 163276, Note_on_c, 0, 58, 70
2, 163278, Note_on_c, 0, 64, 57
2, 163285, Note_on_c, 0, 54, 58
2, 163313, Note_on_c, 0, 64, 0
2, 163324, Note_on_c, 0, 58, 0
2, 163328, Note_on_c, 0, 54, 0
2, 163371, Note_on_c, 0, 78, 80
2, 163472, Note_on_c, 0, 47, 65
2, 163490, Note_on_c, 0, 75, 94
2, 163492, Note_on_c, 0, 78, 0
2, 163496, Control_c, 0, 64, 63
2, 163514, Control_c, 0, 64, 127
2, 163548, Note_on_c, 0, 47, 0
2, 163671, Note_on_c, 0, 75, 0
2, 163719, Note_on_c, 0, 59, 29
2, 163721, Note_on_c, 0, 63, 65
2, 163726, Note_on_c, 0, 54, 47
2, 163784, Note_on_c, 0, 63, 0
2, 163787, Note_on_c, 0, 59, 0
2, 163804, Note_on_c, 0, 54, 0
2, 163949, Note_on_c, 0, 47, 48
2, 163951, Note_on_c, 0, 74, 65
2, 163990, Control_c, 0, 64, 63
2, 164013, Control_c, 0, 64, 127
2, 164072, Note_on_c, 0, 47, 0
2, 164086, Note_on_c, 0, 74, 0
2, 164088, Note_on_c, 0, 76, 71
2, 164174, Note_on_c, 0, 74, 84
2, 164180, Note_on_c, 0, 62, 51
2, 164184, Note_on_c, 0, 56, 63
2, 164189, Note_on_c, 0, 53, 40
2, 164191, Note_on_c, 0, 76, 0
2, 164243, Note_on_c, 0, 73, 82
2, 164247, Note_on_c, 0, 62, 0
2, 164262, Note_on_c, 0, 74, 0
2, 164268, Note_on_c, 0, 56, 0
2, 164270, Note_on_c, 0, 53, 0
2, 164299, Note_on_c, 0, 74, 77
2, 164323, Note_on_c, 0, 73, 0
2, 164361, Note_on_c, 0, 47, 47
2, 164382, Note_on_c, 0, 77, 74
2, 164397, Control_c, 0, 64, 63
2, 164408, Control_c, 0, 64, 0
2, 164415, Control_c, 0, 64, 63
2, 164436, Control_c, 0, 64, 127
2, 164441, Note_on_c, 0, 74, 0
2, 164501, Note_on_c, 0, 47, 0
2, 164537, Note_on_c, 0, 77, 0
2, 164594, Note_on_c, 0, 56, 67
2, 164597, Note_on_c, 0, 52, 29
2, 164598, Note_on_c, 0, 62, 54
2, 164647, Note_on_c, 0, 62, 0
2, 164653, Note_on_c, 0, 56, 0
2, 164660, Note_on_c, 0, 52, 0
2, 164702, Note_on_c, 0, 76, 77
2, 164841, Note_on_c, 0, 76, 0
2, 164852, Note_on_c, 0, 45, 45
2, 164859, Note_on_c, 0, 74, 68
2, 164900, Control_c, 0, 64, 63
2, 164904, Control_c, 0, 64, 0
2, 164985, Control_c, 0, 64, 63
2, 164990, Control_c, 0, 64, 127
2, 165108, Note_on_c, 0, 52, 52
2, 165128, Note_on_c, 0, 72, 60
2, 165133, Note_on_c, 0, 45, 0
2, 165165, Note_on_c, 0, 74, 0
2, 165304, Note_on_c, 0, 54, 61
2, 165309, Note_on_c, 0, 71, 67
2, 165318, Note_on_c, 0, 72, 0
2, 165416, Note_on_c, 0, 52, 0
2, 165474, Note_on_c, 0, 69, 73
2, 165477, Note_on_c, 0, 60, 30
2, 165489, Note_on_c, 0, 71, 0
2, 165540, Note_on_c, 0, 54, 0
2, 165601, Note_on_c, 0, 60, 0
2, 165646, Note_on_c, 0, 67, 64
2, 165655, Note_on_c, 0, 52, 46
2, 165685, Note_on_c, 0, 69, 0
2, 165797, Note_on_c, 0, 67, 0
2, 165845, Note_on_c, 0, 54, 63
2, 165908, Note_on_c, 0, 52, 0
2, 165931, Note_on_c, 0, 69, 69
2, 166001, Note_on_c, 0, 54, 0
2, 166035, Note_on_c, 0, 47, 41
2, 166038, Note_on_c, 0, 69, 0
2, 166043, Note_on_c, 0, 71, 57
2, 166111, Control_c, 0, 64, 63
2, 166119, Control_c, 0, 64, 0
2, 166195, Control_c, 0, 64, 63
2, 166203, Control_c, 0, 64, 127
2, 166216, Note_on_c, 0, 54, 55
2, 166423, Note_on_c, 0, 66, 49
2, 166426, Note_on_c, 0, 57, 21
2, 166433, Note_on_c, 0, 71, 0
2, 166445, Note_on_c, 0, 47, 0
2, 166478, Note_on_c, 0, 54, 0
2, 166650, Note_on_c, 0, 60, 55
2, 166680, Note_on_c, 0, 57, 0
2, 166710, Note_on_c, 0, 60, 0
2, 166747, Note_on_c, 0, 66, 0
2, 166893, Note_on_c, 0, 55, 37
2, 166903, Note_on_c, 0, 59, 39
2, 167070, Note_on_c, 0, 59, 0
2, 167091, Note_on_c, 0, 55, 0
2, 167211, Note_on_c, 0, 54, 26
2, 167218, Note_on_c, 0, 71, 29
2, 167221, Note_on_c, 0, 57, 16
2, 167258, Control_c, 0, 64, 63
2, 167297, Control_c, 0, 64, 127
2, 167416, Note_on_c, 0, 57, 0
2, 167446, Note_on_c, 0, 54, 0
2, 167684, Note_on_c, 0, 40, 40
2, 167686, Note_on_c, 0, 71, 0
2, 167736, Note_on_c, 0, 83, 50
2, 167777, Control_c, 0, 64, 63
2, 167800, Control_c, 0, 64, 127
2, 167881, Note_on_c, 0, 40, 0
2, 167946, Note_on_c, 0, 83, 0
2, 168171, Note_on_c, 0, 59, 24
2, 168176, Note_on_c, 0, 64, 16
2, 168186, Note_on_c, 0, 55, 21
2, 168266, Note_on_c, 0, 59, 0
2, 168269, Note_on_c, 0, 64, 0
2, 168271, Note_on_c, 0, 55, 0
2, 168439, Note_on_c, 0, 59, 21
2, 168444, Note_on_c, 0, 55, 22
2, 168448, Note_on_c, 0, 84, 58
2, 168449, Note_on_c, 0, 64, 13
2, 168530, Note_on_c, 0, 59, 0
2, 168542, Note_on_c, 0, 64, 0
2, 168545, Note_on_c, 0, 55, 0
2, 168674, Note_on_c, 0, 83, 59
2, 168683, Note_on_c, 0, 84, 0
2, 168690, Note_on_c, 0, 59, 27
2, 168694, Note_on_c, 0, 55, 24
2, 168696, Note_on_c, 0, 64, 17
2, 168771, Note_on_c, 0, 59, 0
2, 168772, Note_on_c, 0, 64, 0
2, 168782, Note_on_c, 0, 55, 0
2, 168864, Note_on_c, 0, 83, 0
2, 168871, Note_on_c, 0, 79, 71
2, 168871, Note_on_c, 0, 59, 34
2, 168877, Note_on_c, 0, 55, 27
2, 168880, Note_on_c, 0, 64, 18
2, 168957, Note_on_c, 0, 59, 0
2, 168959, Note_on_c, 0, 64, 0
2, 168967, Note_on_c, 0, 55, 0
2, 169027, Note_on_c, 0, 79, 0
2, 169040, Note_on_c, 0, 59, 49
2, 169043, Note_on_c, 0, 64, 28
2, 169045, Note_on_c, 0, 55, 32
2, 169106, Note_on_c, 0, 59, 0
2, 169109, Note_on_c, 0, 81, 86
2, 169116, Note_on_c, 0, 64, 0
2, 169125, Note_on_c, 0, 55, 0
2, 169163, Note_on_c, 0, 81, 0
2, 169206, Note_on_c, 0, 83, 84
2, 169207, Note_on_c, 0, 64, 27
2, 169210, Note_on_c, 0, 59, 43
2, 169214, Note_on_c, 0, 55, 28
2, 169334, Note_on_c, 0, 59, 0
2, 169335, Note_on_c, 0, 64, 0
2, 169339, Note_on_c, 0, 55, 0
2, 169388, Note_on_c, 0, 64, 62
2, 169389, Note_on_c, 0, 59, 63
2, 169391, Note_on_c, 0, 55, 48
2, 169462, Note_on_c, 0, 64, 0
2, 169464, Note_on_c, 0, 59, 0
2, 169479, Note_on_c, 0, 55, 0
2, 169519, Note_on_c, 0, 83, 0
2, 169537, Note_on_c, 0, 64, 61
2, 169540, Note_on_c, 0, 55, 53
2, 169540, Note_on_c, 0, 59, 63
2, 169634, Note_on_c, 0, 59, 0
2, 169639, Note_on_c, 0, 64, 0
2, 169648, Note_on_c, 0, 55, 0
2, 169689, Note_on_c, 0, 88, 100
2, 169699, Note_on_c, 0, 55, 43
2, 169700, Note_on_c, 0, 59, 65
2, 169703, Note_on_c, 0, 64, 47
2, 169865, Note_on_c, 0, 59, 0
2, 169871, Note_on_c, 0, 64, 0
2, 169890, Note_on_c, 0, 90, 101
2, 169900, Note_on_c, 0, 59, 67
2, 169903, Note_on_c, 0, 64, 51
2, 169933, Note_on_c, 0, 88, 0
2, 169979, Note_on_c, 0, 64, 0
2, 169982, Note_on_c, 0, 59, 0
2, 169993, Note_on_c, 0, 55, 0
2, 170059, Note_on_c, 0, 64, 68
2, 170061, Note_on_c, 0, 55, 59
2, 170065, Note_on_c, 0, 59, 62
2, 170073, Note_on_c, 0, 91, 99
2, 170085, Note_on_c, 0, 64, 0
2, 170086, Note_on_c, 0, 59, 0
2, 170107, Note_on_c, 0, 90, 0
2, 170108, Note_on_c, 0, 55, 0
2, 170251, Control_c, 0, 64, 63
2, 170256, Control_c, 0, 64, 0
2, 170272, Note_on_c, 0, 52, 85
2, 170274, Note_on_c, 0, 90, 96
2, 170276, Note_on_c, 0, 40, 91
2, 170293, Note_on_c, 0, 91, 0
2, 170300, Control_c, 0, 64, 63
2, 170305, Control_c, 0, 64, 127
2, 170344, Note_on_c, 0, 40, 0
2, 170372, Note_on_c, 0, 52, 0
2, 170554, Note_on_c, 0, 88, 84
2, 170556, Note_on_c, 0, 59, 60
2, 170557, Note_on_c, 0, 64, 55
2, 170558, Note_on_c, 0, 90, 0
2, 170561, Note_on_c, 0, 55, 56
2, 170657, Note_on_c, 0, 59, 0
2, 170668, Note_on_c, 0, 55, 0
2, 170670, Note_on_c, 0, 64, 0
2, 170718, Note_on_c, 0, 83, 85
2, 170722, Note_on_c, 0, 88, 0
2, 170722, Note_on_c, 0, 59, 65
2, 170724, Note_on_c, 0, 64, 62
2, 170725, Note_on_c, 0, 55, 62
2, 170795, Note_on_c, 0, 64, 0
2, 170796, Note_on_c, 0, 59, 0
2, 170805, Note_on_c, 0, 55, 0
2, 170843, Note_on_c, 0, 83, 0
2, 170862, Note_on_c, 0, 59, 74
2, 170863, Note_on_c, 0, 64, 72
2, 170865, Note_on_c, 0, 55, 61
2, 170868, Note_on_c, 0, 84, 98
2, 170927, Note_on_c, 0, 86, 102
2, 170932, Note_on_c, 0, 64, 0
2, 170963, Note_on_c, 0, 84, 0
2, 171010, Note_on_c, 0, 56, 91
2, 171012, Note_on_c, 0, 84, 101
2, 171015, Note_on_c, 0, 62, 76
2, 171017, Note_on_c, 0, 64, 74
2, 171021, Control_c, 0, 64, 63
2, 171042, Control_c, 0, 64, 127
2, 171043, Note_on_c, 0, 55, 0
2, 171051, Note_on_c, 0, 86, 0
2, 171064, Note_on_c, 0, 59, 0
2, 171146, Note_on_c, 0, 64, 0
2, 171148, Note_on_c, 0, 56, 0
2, 171148, Note_on_c, 0, 62, 0
2, 171203, Note_on_c, 0, 62, 87
2, 171205, Note_on_c, 0, 64, 84
2, 171207, Note_on_c, 0, 56, 93
2, 171231, Note_on_c, 0, 64, 0
2, 171233, Note_on_c, 0, 62, 0
2, 171241, Note_on_c, 0, 56, 0
2, 171275, Note_on_c, 0, 83, 102
2, 171296, Note_on_c, 0, 84, 0
2, 171358, Note_on_c, 0, 83, 0
2, 171383, Control_c, 0, 64, 63
2, 171385, Note_on_c, 0, 40, 94
2, 171388, Note_on_c, 0, 52, 101
2, 171390, Note_on_c, 0, 83, 85
2, 171392, Control_c, 0, 64, 0
2, 171425, Control_c, 0, 64, 63
2, 171432, Control_c, 0, 64, 127
2, 171447, Note_on_c, 0, 40, 0
2, 171470, Note_on_c, 0, 52, 0
2, 171601, Note_on_c, 0, 64, 71
2, 171604, Note_on_c, 0, 60, 68
2, 171607, Note_on_c, 0, 57, 56
2, 171694, Note_on_c, 0, 60, 0
2, 171702, Note_on_c, 0, 64, 0
2, 171704, Note_on_c, 0, 57, 0
2, 171740, Note_on_c, 0, 81, 99
2, 171745, Note_on_c, 0, 64, 69
2, 171748, Note_on_c, 0, 60, 79
2, 171751, Note_on_c, 0, 57, 63
2, 171765, Note_on_c, 0, 83, 0
2, 171825, Note_on_c, 0, 64, 0
2, 171828, Note_on_c, 0, 60, 0
2, 171839, Note_on_c, 0, 57, 0
2, 171885, Note_on_c, 0, 64, 92
2, 171885, Note_on_c, 0, 60, 94
2, 171886, Note_on_c, 0, 57, 91
2, 171899, Note_on_c, 0, 81, 0
2, 171947, Note_on_c, 0, 64, 0
2, 171949, Note_on_c, 0, 60, 0
2, 171962, Note_on_c, 0, 57, 0
2, 172026, Note_on_c, 0, 64, 99
2, 172027, Note_on_c, 0, 60, 102
2, 172029, Note_on_c, 0, 57, 87
2, 172081, Note_on_c, 0, 60, 0
2, 172086, Note_on_c, 0, 81, 101
2, 172091, Note_on_c, 0, 64, 0
2, 172097, Note_on_c, 0, 57, 0
2, 172105, Note_on_c, 0, 83, 93
2, 172126, Note_on_c, 0, 81, 0
2, 172138, Note_on_c, 0, 83, 0
2, 172148, Note_on_c, 0, 81, 98
2, 172196, Note_on_c, 0, 80, 120
2, 172199, Note_on_c, 0, 64, 109
2, 172201, Note_on_c, 0, 57, 103
2, 172202, Note_on_c, 0, 60, 106
2, 172220, Note_on_c, 0, 81, 0
2, 172232, Note_on_c, 0, 64, 0
2, 172233, Note_on_c, 0, 60, 0
2, 172253, Note_on_c, 0, 57, 0
2, 172355, Note_on_c, 0, 81, 120
2, 172371, Note_on_c, 0, 80, 0
2, 172400, Note_on_c, 0, 81, 0
2, 172472, Control_c, 0, 64, 63
2, 172477, Control_c, 0, 64, 0
2, 172500, Note_on_c, 0, 51, 125
2, 172501, Note_on_c, 0, 39, 119
2, 172531, Note_on_c, 0, 96, 121
2, 172535, Control_c, 0, 64, 63
2, 172536, Control_c, 0, 64, 127
2, 172538, Note_on_c, 0, 39, 0
2, 172542, Note_on_c, 0, 51, 0
2, 172809, Note_on_c, 0, 66, 105
2, 172812, Note_on_c, 0, 59, 84
2, 172813, Note_on_c, 0, 57, 74
2, 172863, Note_on_c, 0, 66, 0
2, 172887, Note_on_c, 0, 59, 0
2, 172887, Note_on_c, 0, 57, 0
2, 172903, Note_on_c, 0, 96, 0
2, 172966, Note_on_c, 0, 66, 103
2, 172968, Note_on_c, 0, 59, 86
2, 172975, Note_on_c, 0, 57, 65
2, 173018, Note_on_c, 0, 66, 0
2, 173025, Note_on_c, 0, 95, 111
2, 173035, Note_on_c, 0, 59, 0
2, 173039, Note_on_c, 0, 57, 0
2, 173096, Note_on_c, 0, 66, 106
2, 173100, Note_on_c, 0, 59, 84
2, 173106, Note_on_c, 0, 57, 60
2, 173112, Note_on_c, 0, 89, 97
2, 173120, Note_on_c, 0, 66, 0
2, 173130, Note_on_c, 0, 95, 0
2, 173130, Note_on_c, 0, 59, 0
2, 173141, Note_on_c, 0, 57, 0
2, 173185, Note_on_c, 0, 90, 116
2, 173207, Note_on_c, 0, 89, 0
2, 173247, Control_c, 0, 64, 63
2, 173252, Control_c, 0, 64, 0
2, 173277, Note_on_c, 0, 90, 0
2, 173281, Note_on_c, 0, 40, 96
2, 173283, Note_on_c, 0, 93, 114
2, 173283, Note_on_c, 0, 52, 104
2, 173296, Note_on_c, 0, 40, 0
2, 173298, Control_c, 0, 64, 63
2, 173302, Control_c, 0, 64, 127
2, 173313, Note_on_c, 0, 52, 0
2, 173483, Note_on_c, 0, 64, 85
2, 173483, Note_on_c, 0, 55, 85
2, 173483, Note_on_c, 0, 59, 86
2, 173490, Note_on_c, 0, 91, 111
2, 173501, Note_on_c, 0, 64, 0
2, 173502, Note_on_c, 0, 93, 0
2, 173504, Note_on_c, 0, 59, 0
2, 173523, Note_on_c, 0, 55, 0
2, 173604, Control_c, 0, 64, 63
2, 173609, Control_c, 0, 64, 0
2, 173645, Note_on_c, 0, 42, 103
2, 173646, Control_c, 0, 64, 63
2, 173648, Note_on_c, 0, 54, 121
2, 173651, Control_c, 0, 64, 127
2, 173673, Note_on_c, 0, 42, 0
2, 173679, Note_on_c, 0, 54, 0
2, 173738, Note_on_c, 0, 90, 96
2, 173763, Note_on_c, 0, 91, 0
2, 173812, Note_on_c, 0, 63, 95
2, 173813, Note_on_c, 0, 57, 79
2, 173813, Note_on_c, 0, 59, 74
2, 173819, Note_on_c, 0, 90, 0
2, 173820, Note_on_c, 0, 86, 92
2, 173834, Note_on_c, 0, 59, 0
2, 173838, Note_on_c, 0, 63, 0
2, 173852, Note_on_c, 0, 57, 0
2, 173876, Note_on_c, 0, 87, 114
2, 173893, Note_on_c, 0, 86, 0
2, 173930, Control_c, 0, 64, 63
2, 173936, Control_c, 0, 64, 0
2, 173940, Note_on_c, 0, 90, 113
2, 173947, Note_on_c, 0, 55, 113
2, 173947, Note_on_c, 0, 43, 114
2, 173956, Control_c, 0, 64, 63
2, 173965, Control_c, 0, 64, 127
2, 173970, Note_on_c, 0, 87, 0
2, 173988, Note_on_c, 0, 43, 0
2, 173999, Note_on_c, 0, 55, 0
2, 174075, Note_on_c, 0, 90, 0
2, 174090, Note_on_c, 0, 59, 90
2, 174093, Note_on_c, 0, 64, 88
2, 174095, Note_on_c, 0, 88, 114
2, 174096, Note_on_c, 0, 55, 90
2, 174114, Note_on_c, 0, 64, 0
2, 174116, Note_on_c, 0, 59, 0
2, 174130, Note_on_c, 0, 55, 0
2, 174187, Note_on_c, 0, 51, 55
2, 174206, Control_c, 0, 64, 63
2, 174207, Note_on_c, 0, 51, 0
2, 174210, Control_c, 0, 64, 0
2, 174239, Control_c, 0, 64, 63
2, 174249, Control_c, 0, 64, 127
2, 174252, Note_on_c, 0, 44, 115
2, 174285, Note_on_c, 0, 44, 0
2, 174356, Note_on_c, 0, 86, 104
2, 174378, Note_on_c, 0, 88, 0
2, 174460, Note_on_c, 0, 62, 84
2, 174460, Note_on_c, 0, 59, 76
2, 174461, Note_on_c, 0, 86, 0
2, 174466, Note_on_c, 0, 52, 74
2, 174469, Note_on_c, 0, 82, 101
2, 174484, Note_on_c, 0, 62, 0
2, 174494, Note_on_c, 0, 59, 0
2, 174518, Note_on_c, 0, 52, 0
2, 174566, Note_on_c, 0, 83, 100
2, 174594, Note_on_c, 0, 82, 0
2, 174661, Note_on_c, 0, 83, 0
2, 174666, Note_on_c, 0, 45, 106
2, 174717, Note_on_c, 0, 86, 108
2, 174791, Control_c, 0, 64, 63
2, 174796, Control_c, 0, 64, 0
2, 174853, Note_on_c, 0, 85, 107
2, 174891, Note_on_c, 0, 86, 0
2, 174899, Control_c, 0, 64, 63
2, 174902, Control_c, 0, 64, 127
2, 174942, Note_on_c, 0, 48, 86
2, 174954, Note_on_c, 0, 84, 102
2, 175004, Note_on_c, 0, 85, 0
2, 175033, Note_on_c, 0, 83, 86
2, 175041, Note_on_c, 0, 84, 0
2, 175092, Note_on_c, 0, 83, 0
2, 175099, Note_on_c, 0, 82, 106
2, 175141, Note_on_c, 0, 53, 65
2, 175156, Note_on_c, 0, 82, 0
2, 175157, Note_on_c, 0, 81, 88
2, 175185, Note_on_c, 0, 45, 0
2, 175205, Note_on_c, 0, 81, 0
2, 175210, Note_on_c, 0, 80, 103
2, 175261, Note_on_c, 0, 80, 0
2, 175267, Note_on_c, 0, 79, 83
2, 175293, Note_on_c, 0, 48, 0
2, 175297, Note_on_c, 0, 57, 61
2, 175312, Note_on_c, 0, 79, 0
2, 175314, Note_on_c, 0, 78, 101
2, 175318, Note_on_c, 0, 53, 0
2, 175360, Note_on_c, 0, 78, 0
2, 175370, Note_on_c, 0, 77, 88
2, 175414, Note_on_c, 0, 77, 0
2, 175414, Note_on_c, 0, 57, 0
2, 175414, Note_on_c, 0, 76, 90
2, 175428, Note_on_c, 0, 48, 89
2, 175462, Note_on_c, 0, 75, 96
2, 175471, Note_on_c, 0, 76, 0
2, 175503, Note_on_c, 0, 75, 0
2, 175505, Note_on_c, 0, 74, 86
2, 175552, Note_on_c, 0, 73, 100
2, 175564, Note_on_c, 0, 74, 0
2, 175606, Note_on_c, 0, 72, 97
2, 175606, Control_c, 0, 64, 63
2, 175607, Note_on_c, 0, 60, 69
2, 175615, Control_c, 0, 64, 0
2, 175634, Note_on_c, 0, 73, 0
2, 175655, Control_c, 0, 64, 63
2, 175667, Control_c, 0, 64, 127
2, 175681, Note_on_c, 0, 60, 0
2, 175750, Note_on_c, 0, 48, 0
2, 175810, Note_on_c, 0, 47, 104
2, 175933, Note_on_c, 0, 71, 98
2, 175960, Note_on_c, 0, 72, 0
2, 176050, Note_on_c, 0, 64, 84
2, 176050, Note_on_c, 0, 55, 76
2, 176059, Note_on_c, 0, 71, 0
2, 176153, Note_on_c, 0, 66, 106
2, 176184, Note_on_c, 0, 64, 0
2, 176268, Note_on_c, 0, 67, 94
2, 176270, Note_on_c, 0, 52, 76
2, 176276, Control_c, 0, 64, 63
2, 176289, Control_c, 0, 64, 0
2, 176302, Note_on_c, 0, 66, 0
2, 176309, Note_on_c, 0, 55, 0
2, 176369, Control_c, 0, 64, 63
2, 176377, Control_c, 0, 64, 127
2, 176444, Note_on_c, 0, 59, 84
2, 176487, Note_on_c, 0, 52, 0
2, 176628, Note_on_c, 0, 47, 0
2, 176699, Note_on_c, 0, 47, 74
2, 176782, Control_c, 0, 64, 63
2, 176791, Control_c, 0, 64, 0
2, 176860, Control_c, 0, 64, 63
2, 176866, Control_c, 0, 64, 127
2, 176866, Note_on_c, 0, 69, 69
2, 176906, Note_on_c, 0, 67, 0
2, 176931, Note_on_c, 0, 59, 0
2, 177074, Note_on_c, 0, 66, 81
2, 177076, Note_on_c, 0, 57, 38
2, 177168, Control_c, 0, 64, 63
2, 177203, Control_c, 0, 64, 127
2, 177284, Note_on_c, 0, 57, 0
2, 177301, Note_on_c, 0, 59, 67
2, 177343, Note_on_c, 0, 47, 0
2, 177411, Note_on_c, 0, 69, 0
2, 177434, Note_on_c, 0, 66, 0
2, 177533, Note_on_c, 0, 59, 0
2, 177542, Note_on_c, 0, 40, 48
2, 177611, Note_on_c, 0, 64, 71
2, 177664, Control_c, 0, 64, 63
2, 177708, Control_c, 0, 64, 127
2, 177785, Note_on_c, 0, 47, 37
2, 177826, Note_on_c, 0, 40, 0
2, 177854, Note_on_c, 0, 64, 0
2, 177878, Note_on_c, 0, 47, 0
2, 177884, Note_on_c, 0, 52, 63
2, 177941, Note_on_c, 0, 52, 0
2, 177963, Note_on_c, 0, 55, 59
2, 178048, Note_on_c, 0, 59, 58
2, 178104, Control_c, 0, 64, 63
2, 178139, Note_on_c, 0, 64, 63
2, 178139, Control_c, 0, 64, 127
2, 178214, Note_on_c, 0, 71, 72
2, 178221, Note_on_c, 0, 64, 0
2, 178272, Note_on_c, 0, 67, 66
2, 178284, Note_on_c, 0, 71, 0
2, 178287, Note_on_c, 0, 55, 0
2, 178314, Note_on_c, 0, 59, 0
2, 178319, Note_on_c, 0, 67, 0
2, 178333, Note_on_c, 0, 57, 58
2, 178342, Note_on_c, 0, 60, 42
2, 178345, Note_on_c, 0, 76, 76
2, 178396, Note_on_c, 0, 60, 0
2, 178414, Note_on_c, 0, 57, 0
2, 178423, Note_on_c, 0, 66, 60
2, 178434, Note_on_c, 0, 76, 0
2, 178468, Note_on_c, 0, 66, 0
2, 178476, Note_on_c, 0, 75, 86
2, 178542, Note_on_c, 0, 69, 60
2, 178544, Note_on_c, 0, 75, 0
2, 178615, Note_on_c, 0, 40, 59
2, 178618, Control_c, 0, 64, 63
2, 178623, Control_c, 0, 64, 0
2, 178631, Note_on_c, 0, 69, 0
2, 178639, Note_on_c, 0, 67, 55
2, 178641, Note_on_c, 0, 76, 63
2, 178673, Control_c, 0, 64, 63
2, 178681, Control_c, 0, 64, 127
2, 178725, Note_on_c, 0, 47, 63
2, 178737, Note_on_c, 0, 40, 0
2, 178776, Note_on_c, 0, 47, 0
2, 178784, Note_on_c, 0, 76, 0
2, 178784, Note_on_c, 0, 52, 58
2, 178787, Note_on_c, 0, 67, 0
2, 178823, Note_on_c, 0, 52, 0
2, 178839, Note_on_c, 0, 55, 84
2, 178905, Note_on_c, 0, 59, 77
2, 178958, Control_c, 0, 64, 63
2, 178963, Note_on_c, 0, 64, 80
2, 178967, Control_c, 0, 64, 0
2, 178985, Control_c, 0, 64, 63
2, 179007, Control_c, 0, 64, 127
2, 179007, Note_on_c, 0, 71, 89
2, 179023, Note_on_c, 0, 64, 0
2, 179059, Note_on_c, 0, 67, 89
2, 179072, Note_on_c, 0, 71, 0
2, 179099, Note_on_c, 0, 67, 0
2, 179120, Note_on_c, 0, 60, 71
2, 179120, Note_on_c, 0, 76, 93
2, 179122, Note_on_c, 0, 57, 76
2, 179124, Control_c, 0, 64, 63
2, 179136, Note_on_c, 0, 59, 0
2, 179137, Note_on_c, 0, 55, 0
2, 179146, Control_c, 0, 64, 127
2, 179167, Note_on_c, 0, 60, 0
2, 179179, Note_on_c, 0, 66, 88
2, 179182, Note_on_c, 0, 57, 0
2, 179194, Note_on_c, 0, 76, 0
2, 179226, Note_on_c, 0, 66, 0
2, 179227, Note_on_c, 0, 75, 81
2, 179275, Note_on_c, 0, 75, 0
2, 179278, Note_on_c, 0, 69, 83
2, 179337, Note_on_c, 0, 69, 0
2, 179351, Note_on_c, 0, 40, 77
2, 179356, Control_c, 0, 64, 63
2, 179364, Control_c, 0, 64, 0
2, 179368, Note_on_c, 0, 76, 88
2, 179369, Note_on_c, 0, 67, 74
2, 179380, Control_c, 0, 64, 63
2, 179400, Control_c, 0, 64, 127
2, 179427, Note_on_c, 0, 47, 64
2, 179439, Note_on_c, 0, 40, 0
2, 179448, Note_on_c, 0, 67, 0
2, 179474, Note_on_c, 0, 47, 0
2, 179485, Note_on_c, 0, 52, 63
2, 179488, Note_on_c, 0, 76, 0
2, 179506, Note_on_c, 0, 52, 0
2, 179563, Note_on_c, 0, 59, 71
2, 179688, Control_c, 0, 64, 63
2, 179693, Note_on_c, 0, 67, 62
2, 179700, Control_c, 0, 64, 0
2, 179721, Control_c, 0, 64, 63
2, 179742, Control_c, 0, 64, 127
2, 179777, Note_on_c, 0, 71, 82
2, 179826, Note_on_c, 0, 71, 0
2, 179854, Note_on_c, 0, 83, 90
2, 179892, Note_on_c, 0, 83, 0
2, 179908, Note_on_c, 0, 71, 82
2, 179925, Note_on_c, 0, 67, 0
2, 179946, Note_on_c, 0, 66, 83
2, 179951, Note_on_c, 0, 71, 0
2, 179968, Note_on_c, 0, 66, 0
2, 179968, Note_on_c, 0, 74, 48
2, 179976, Note_on_c, 0, 72, 77
2, 179992, Note_on_c, 0, 74, 0
2, 179994, Note_on_c, 0, 59, 0
2, 180013, Note_on_c, 0, 71, 88
2, 180022, Note_on_c, 0, 72, 0
2, 180060, Note_on_c, 0, 71, 0
2, 180067, Note_on_c, 0, 81, 109
2, 180114, Note_on_c, 0, 71, 92
2, 180120, Note_on_c, 0, 81, 0
2, 180163, Note_on_c, 0, 40, 84
2, 180164, Control_c, 0, 64, 63
2, 180168, Control_c, 0, 64, 0
2, 180170, Note_on_c, 0, 74, 97
2, 180182, Note_on_c, 0, 71, 0
2, 180187, Note_on_c, 0, 72, 91
2, 180211, Control_c, 0, 64, 63
2, 180214, Note_on_c, 0, 47, 77
2, 180215, Note_on_c, 0, 74, 0
2, 180220, Control_c, 0, 64, 127
2, 180232, Note_on_c, 0, 71, 89
2, 180235, Note_on_c, 0, 40, 0
2, 180250, Note_on_c, 0, 72, 0
2, 180265, Note_on_c, 0, 47, 0
2, 180272, Note_on_c, 0, 52, 73
2, 180289, Note_on_c, 0, 71, 0
2, 180295, Note_on_c, 0, 52, 0
2, 180298, Note_on_c, 0, 79, 97
2, 180342, Note_on_c, 0, 59, 71
2, 180343, Note_on_c, 0, 71, 81
2, 180347, Note_on_c, 0, 79, 0
2, 180398, Note_on_c, 0, 71, 0
2, 180405, Note_on_c, 0, 73, 85
2, 180418, Control_c, 0, 64, 63
2, 180423, Note_on_c, 0, 61, 81
2, 180428, Note_on_c, 0, 71, 76
2, 180442, Control_c, 0, 64, 127
2, 180460, Note_on_c, 0, 73, 0
2, 180485, Note_on_c, 0, 70, 91
2, 180486, Note_on_c, 0, 71, 0
2, 180527, Note_on_c, 0, 79, 90
2, 180528, Note_on_c, 0, 70, 0
2, 180568, Note_on_c, 0, 70, 86
2, 180573, Note_on_c, 0, 79, 0
2, 180619, Control_c, 0, 64, 63
2, 180625, Control_c, 0, 64, 0
2, 180629, Note_on_c, 0, 70, 0
2, 180639, Note_on_c, 0, 73, 84
2, 180650, Control_c, 0, 64, 63
2, 180654, Note_on_c, 0, 63, 80
2, 180662, Control_c, 0, 64, 127
2, 180670, Note_on_c, 0, 71, 67
2, 180681, Note_on_c, 0, 61, 0
2, 180709, Note_on_c, 0, 63, 0
2, 180717, Note_on_c, 0, 73, 0
2, 180726, Note_on_c, 0, 69, 69
2, 180732, Note_on_c, 0, 59, 0
2, 180740, Note_on_c, 0, 71, 0
2, 180785, Note_on_c, 0, 69, 0
2, 180799, Note_on_c, 0, 78, 88
2, 180877, Note_on_c, 0, 69, 59
2, 180878, Note_on_c, 0, 78, 0
2, 180913, Control_c, 0, 64, 63
2, 180933, Control_c, 0, 64, 0
2, 180950, Note_on_c, 0, 40, 60
2, 180976, Note_on_c, 0, 69, 0
2, 180979, Note_on_c, 0, 76, 66
2, 180983, Note_on_c, 0, 67, 56
2, 181083, Note_on_c, 0, 47, 62
2, 181091, Control_c, 0, 64, 63
2, 181092, Control_c, 0, 64, 127
2, 181107, Note_on_c, 0, 40, 0
2, 181146, Note_on_c, 0, 47, 0
2, 181150, Note_on_c, 0, 52, 73
2, 181160, Note_on_c, 0, 76, 0
2, 181179, Note_on_c, 0, 67, 0
2, 181194, Note_on_c, 0, 52, 0
2, 181218, Note_on_c, 0, 55, 73
2, 181274, Note_on_c, 0, 59, 74
2, 181325, Control_c, 0, 64, 63
2, 181327, Note_on_c, 0, 64, 87
2, 181334, Control_c, 0, 64, 0
2, 181364, Control_c, 0, 64, 63
2, 181382, Note_on_c, 0, 71, 98
2, 181382, Control_c, 0, 64, 127
2, 181402, Note_on_c, 0, 64, 0
2, 181430, Note_on_c, 0, 67, 98
2, 181453, Note_on_c, 0, 71, 0
2, 181476, Note_on_c, 0, 67, 0
2, 181480, Control_c, 0, 64, 63
2, 181489, Control_c, 0, 64, 0
2, 181496, Note_on_c, 0, 57, 75
2, 181497, Note_on_c, 0, 76, 101
2, 181499, Note_on_c, 0, 60, 63
2, 181515, Note_on_c, 0, 59, 0
2, 181518, Control_c, 0, 64, 63
2, 181524, Note_on_c, 0, 55, 0
2, 181535, Control_c, 0, 64, 127
2, 181548, Note_on_c, 0, 60, 0
2, 181558, Note_on_c, 0, 66, 94
2, 181562, Note_on_c, 0, 57, 0
2, 181576, Note_on_c, 0, 76, 0
2, 181603, Note_on_c, 0, 66, 0
2, 181606, Note_on_c, 0, 75, 92
2, 181650, Note_on_c, 0, 75, 0
2, 181658, Note_on_c, 0, 69, 82
2, 181715, Note_on_c, 0, 40, 70
2, 181718, Note_on_c, 0, 69, 0
2, 181726, Control_c, 0, 64, 63
2, 181735, Control_c, 0, 64, 0
2, 181739, Note_on_c, 0, 76, 71
2, 181739, Note_on_c, 0, 67, 59
2, 181761, Control_c, 0, 64, 63
2, 181784, Control_c, 0, 64, 127
2, 181798, Note_on_c, 0, 47, 63
2, 181807, Note_on_c, 0, 40, 0
2, 181851, Note_on_c, 0, 47, 0
2, 181859, Note_on_c, 0, 52, 63
2, 181872, Note_on_c, 0, 76, 0
2, 181880, Note_on_c, 0, 67, 0
2, 181893, Note_on_c, 0, 52, 0
2, 181922, Note_on_c, 0, 55, 80
2, 181976, Note_on_c, 0, 59, 82
2, 181985, Control_c, 0, 64, 63
2, 181993, Control_c, 0, 64, 0
2, 182027, Note_on_c, 0, 64, 84
2, 182038, Control_c, 0, 64, 63
2, 182051, Control_c, 0, 64, 127
2, 182073, Note_on_c, 0, 71, 98
2, 182092, Note_on_c, 0, 64, 0
2, 182124, Note_on_c, 0, 67, 97
2, 182140, Note_on_c, 0, 71, 0
2, 182152, Control_c, 0, 64, 63
2, 182162, Control_c, 0, 64, 0
2, 182164, Note_on_c, 0, 67, 0
2, 182183, Note_on_c, 0, 60, 63
2, 182185, Note_on_c, 0, 57, 77
2, 182189, Note_on_c, 0, 76, 92
2, 182190, Control_c, 0, 64, 63
2, 182193, Note_on_c, 0, 59, 0
2, 182206, Note_on_c, 0, 55, 0
2, 182209, Control_c, 0, 64, 127
2, 182224, Note_on_c, 0, 60, 0
2, 182236, Note_on_c, 0, 57, 0
2, 182245, Note_on_c, 0, 66, 84
2, 182270, Note_on_c, 0, 76, 0
2, 182288, Note_on_c, 0, 75, 95
2, 182292, Note_on_c, 0, 66, 0
2, 182343, Note_on_c, 0, 75, 0
2, 182348, Note_on_c, 0, 69, 87
2, 182402, Note_on_c, 0, 69, 0
2, 182412, Control_c, 0, 64, 63
2, 182412, Note_on_c, 0, 40, 65
2, 182421, Control_c, 0, 64, 0
2, 182438, Note_on_c, 0, 76, 89
2, 182439, Note_on_c, 0, 67, 79
2, 182449, Control_c, 0, 64, 63
2, 182470, Control_c, 0, 64, 127
2, 182511, Note_on_c, 0, 47, 62
2, 182519, Note_on_c, 0, 67, 0
2, 182526, Note_on_c, 0, 40, 0
2, 182565, Note_on_c, 0, 76, 0
2, 182567, Note_on_c, 0, 47, 0
2, 182575, Note_on_c, 0, 52, 65
2, 182600, Note_on_c, 0, 52, 0
2, 182653, Note_on_c, 0, 59, 73
2, 182742, Control_c, 0, 64, 63
2, 182759, Control_c, 0, 64, 0
2, 182764, Note_on_c, 0, 67, 84
2, 182818, Control_c, 0, 64, 63
2, 182829, Control_c, 0, 64, 127
2, 182857, Note_on_c, 0, 71, 90
2, 182904, Note_on_c, 0, 71, 0
2, 182914, Note_on_c, 0, 67, 0
2, 182918, Note_on_c, 0, 83, 96
2, 182924, Note_on_c, 0, 59, 0
2, 182959, Note_on_c, 0, 83, 0
2, 182968, Note_on_c, 0, 53, 68
2, 182972, Note_on_c, 0, 71, 72
2, 182990, Control_c, 0, 64, 127
2, 183008, Note_on_c, 0, 53, 0
2, 183013, Note_on_c, 0, 62, 63
2, 183019, Note_on_c, 0, 71, 0
2, 183057, Note_on_c, 0, 74, 84
2, 183059, Note_on_c, 0, 68, 100
2, 183065, Note_on_c, 0, 73, 100
2, 183089, Note_on_c, 0, 68, 0
2, 183092, Note_on_c, 0, 62, 0
2, 183097, Note_on_c, 0, 74, 0
2, 183128, Note_on_c, 0, 71, 91
2, 183132, Note_on_c, 0, 73, 0
2, 183188, Note_on_c, 0, 71, 0
2, 183204, Note_on_c, 0, 83, 102
2, 183244, Note_on_c, 0, 83, 0
2, 183260, Note_on_c, 0, 71, 71
2, 183298, Note_on_c, 0, 71, 0
2, 183314, Note_on_c, 0, 30, 78
2, 183316, Control_c, 0, 64, 63
2, 183327, Control_c, 0, 64, 127
2, 183335, Note_on_c, 0, 69, 98
2, 183349, Note_on_c, 0, 42, 95
2, 183352, Note_on_c, 0, 30, 0
2, 183352, Note_on_c, 0, 67, 78
2, 183375, Note_on_c, 0, 69, 0
2, 183382, Note_on_c, 0, 42, 0
2, 183399, Note_on_c, 0, 66, 103
2, 183407, Note_on_c, 0, 67, 0
2, 183440, Note_on_c, 0, 47, 87
2, 183445, Note_on_c, 0, 66, 0
2, 183464, Note_on_c, 0, 74, 100
2, 183507, Note_on_c, 0, 74, 0
2, 183512, Note_on_c, 0, 54, 93
2, 183515, Note_on_c, 0, 66, 92
2, 183554, Note_on_c, 0, 66, 0
2, 183582, Control_c, 0, 64, 63
2, 183583, Note_on_c, 0, 67, 93
2, 183586, Note_on_c, 0, 56, 96
2, 183601, Note_on_c, 0, 66, 101
2, 183613, Control_c, 0, 64, 127
2, 183621, Note_on_c, 0, 67, 0
2, 183647, Note_on_c, 0, 65, 94
2, 183650, Note_on_c, 0, 66, 0
2, 183687, Note_on_c, 0, 47, 0
2, 183708, Note_on_c, 0, 74, 104
2, 183710, Note_on_c, 0, 65, 0
2, 183769, Note_on_c, 0, 65, 74
2, 183803, Note_on_c, 0, 56, 0
2, 183817, Note_on_c, 0, 74, 0
2, 183853, Note_on_c, 0, 67, 93
2, 183869, Note_on_c, 0, 58, 67
2, 183870, Note_on_c, 0, 65, 0
2, 183905, Note_on_c, 0, 66, 87
2, 183923, Note_on_c, 0, 67, 0
2, 183956, Note_on_c, 0, 66, 0
2, 183962, Note_on_c, 0, 64, 52
2, 184011, Note_on_c, 0, 64, 0
2, 184033, Note_on_c, 0, 73, 88
2, 184059, Note_on_c, 0, 58, 0
2, 184093, Note_on_c, 0, 73, 0
2, 184094, Note_on_c, 0, 54, 0
2, 184102, Note_on_c, 0, 64, 51
2, 184209, Note_on_c, 0, 64, 0
2, 184214, Note_on_c, 0, 47, 70
2, 184266, Note_on_c, 0, 71, 72
2, 184272, Note_on_c, 0, 62, 69
2, 184294, Control_c, 0, 64, 63
2, 184300, Control_c, 0, 64, 0
2, 184334, Control_c, 0, 64, 63
2, 184344, Control_c, 0, 64, 127
2, 184386, Note_on_c, 0, 54, 51
2, 184397, Note_on_c, 0, 47, 0
2, 184417, Note_on_c, 0, 62, 0
2, 184445, Note_on_c, 0, 54, 0
2, 184452, Note_on_c, 0, 59, 68
2, 184464, Note_on_c, 0, 71, 0
2, 184487, Note_on_c, 0, 59, 0
2, 184525, Note_on_c, 0, 62, 71
2, 184592, Note_on_c, 0, 66, 95
2, 184610, Control_c, 0, 64, 63
2, 184639, Control_c, 0, 64, 127
2, 184660, Note_on_c, 0, 71, 88
2, 184715, Note_on_c, 0, 78, 101
2, 184732, Note_on_c, 0, 71, 0
2, 184762, Control_c, 0, 64, 63
2, 184771, Note_on_c, 0, 74, 96
2, 184787, Control_c, 0, 64, 127
2, 184797, Note_on_c, 0, 78, 0
2, 184821, Note_on_c, 0, 74, 0
2, 184837, Note_on_c, 0, 83, 93
2, 184845, Note_on_c, 0, 67, 74
2, 184849, Note_on_c, 0, 64, 66
2, 184851, Note_on_c, 0, 66, 0
2, 184878, Note_on_c, 0, 62, 0
2, 184889, Note_on_c, 0, 67, 0
2, 184904, Note_on_c, 0, 64, 0
2, 184915, Note_on_c, 0, 73, 88
2, 184943, Note_on_c, 0, 83, 0
2, 184976, Note_on_c, 0, 82, 88
2, 184977, Note_on_c, 0, 73, 0
2, 185030, Note_on_c, 0, 76, 60
2, 185040, Note_on_c, 0, 82, 0
2, 185074, Control_c, 0, 64, 63
2, 185078, Control_c, 0, 64, 0
2, 185098, Note_on_c, 0, 47, 80
2, 185110, Note_on_c, 0, 83, 84
2, 185114, Note_on_c, 0, 74, 75
2, 185120, Note_on_c, 0, 76, 0
2, 185151, Control_c, 0, 64, 63
2, 185155, Control_c, 0, 64, 127
2, 185174, Note_on_c, 0, 47, 0
2, 185180, Note_on_c, 0, 54, 73
2, 185225, Note_on_c, 0, 54, 0
2, 185225, Note_on_c, 0, 59, 74
2, 185229, Note_on_c, 0, 74, 0
2, 185241, Note_on_c, 0, 83, 0
2, 185255, Note_on_c, 0, 59, 0
2, 185292, Note_on_c, 0, 62, 77
2, 185344, Note_on_c, 0, 66, 104
2, 185402, Note_on_c, 0, 71, 89
2, 185409, Control_c, 0, 64, 63
2, 185426, Control_c, 0, 64, 127
2, 185455, Note_on_c, 0, 78, 106
2, 185480, Note_on_c, 0, 71, 0
2, 185507, Note_on_c, 0, 74, 97
2, 185529, Note_on_c, 0, 78, 0
2, 185548, Note_on_c, 0, 66, 0
2, 185551, Note_on_c, 0, 74, 0
2, 185560, Control_c, 0, 64, 63
2, 185575, Control_c, 0, 64, 127
2, 185575, Note_on_c, 0, 83, 91
2, 185575, Note_on_c, 0, 67, 84
2, 185579, Note_on_c, 0, 64, 90
2, 185605, Note_on_c, 0, 62, 0
2, 185610, Note_on_c, 0, 67, 0
2, 185619, Note_on_c, 0, 64, 0
2, 185637, Note_on_c, 0, 73, 100
2, 185653, Note_on_c, 0, 83, 0
2, 185695, Note_on_c, 0, 82, 88
2, 185697, Note_on_c, 0, 73, 0
2, 185741, Note_on_c, 0, 76, 85
2, 185751, Note_on_c, 0, 82, 0
2, 185807, Control_c, 0, 64, 63
2, 185811, Note_on_c, 0, 47, 77
2, 185812, Control_c, 0, 64, 0
2, 185821, Note_on_c, 0, 76, 0
2, 185838, Note_on_c, 0, 83, 92
2, 185846, Note_on_c, 0, 74, 81
2, 185857, Control_c, 0, 64, 63
2, 185865, Control_c, 0, 64, 127
2, 185884, Note_on_c, 0, 54, 69
2, 185893, Note_on_c, 0, 47, 0
2, 185908, Note_on_c, 0, 74, 0
2, 185938, Note_on_c, 0, 54, 0
2, 185953, Note_on_c, 0, 59, 69
2, 185956, Note_on_c, 0, 83, 0
2, 185983, Note_on_c, 0, 59, 0
2, 186045, Note_on_c, 0, 66, 66
2, 186164, Control_c, 0, 64, 63
2, 186166, Note_on_c, 0, 74, 93
2, 186170, Control_c, 0, 64, 127
2, 186271, Note_on_c, 0, 78, 96
2, 186336, Note_on_c, 0, 78, 0
2, 186357, Note_on_c, 0, 90, 103
2, 186401, Note_on_c, 0, 90, 0
2, 186401, Note_on_c, 0, 78, 95
2, 186451, Note_on_c, 0, 74, 0
2, 186457, Note_on_c, 0, 78, 0
2, 186459, Note_on_c, 0, 73, 93
2, 186470, Note_on_c, 0, 81, 84
2, 186485, Note_on_c, 0, 79, 77
2, 186488, Note_on_c, 0, 73, 0
2, 186489, Note_on_c, 0, 66, 0
2, 186507, Note_on_c, 0, 81, 0
2, 186526, Note_on_c, 0, 78, 93
2, 186535, Note_on_c, 0, 79, 0
2, 186574, Note_on_c, 0, 78, 0
2, 186584, Note_on_c, 0, 88, 109
2, 186626, Note_on_c, 0, 78, 107
2, 186629, Note_on_c, 0, 88, 0
2, 186677, Note_on_c, 0, 78, 0
2, 186689, Note_on_c, 0, 47, 71
2, 186691, Control_c, 0, 64, 63
2, 186697, Note_on_c, 0, 81, 77
2, 186712, Control_c, 0, 64, 127
2, 186714, Note_on_c, 0, 79, 71
2, 186739, Note_on_c, 0, 81, 0
2, 186747, Note_on_c, 0, 54, 78
2, 186751, Note_on_c, 0, 47, 0
2, 186759, Note_on_c, 0, 78, 106
2, 186769, Note_on_c, 0, 79, 0
2, 186795, Note_on_c, 0, 54, 0
2, 186805, Note_on_c, 0, 59, 73
2, 186809, Note_on_c, 0, 78, 0
2, 186821, Note_on_c, 0, 86, 100
2, 186842, Note_on_c, 0, 59, 0
2, 186860, Note_on_c, 0, 78, 90
2, 186875, Note_on_c, 0, 86, 0
2, 186879, Note_on_c, 0, 66, 88
2, 186904, Note_on_c, 0, 78, 0
2, 186934, Note_on_c, 0, 80, 96
2, 186947, Note_on_c, 0, 79, 91
2, 186950, Note_on_c, 0, 80, 0
2, 186956, Note_on_c, 0, 68, 80
2, 186956, Control_c, 0, 64, 63
2, 186958, Note_on_c, 0, 78, 99
2, 186970, Control_c, 0, 64, 127
2, 186982, Note_on_c, 0, 79, 0
2, 187004, Note_on_c, 0, 77, 98
2, 187008, Note_on_c, 0, 78, 0
2, 187065, Note_on_c, 0, 86, 104
2, 187067, Note_on_c, 0, 77, 0
2, 187118, Note_on_c, 0, 77, 90
2, 187128, Note_on_c, 0, 86, 0
2, 187177, Note_on_c, 0, 77, 0
2, 187193, Note_on_c, 0, 79, 90
2, 187195, Note_on_c, 0, 70, 63
2, 187209, Note_on_c, 0, 78, 88
2, 187218, Note_on_c, 0, 68, 0
2, 187235, Note_on_c, 0, 79, 0
2, 187245, Note_on_c, 0, 70, 0
2, 187254, Note_on_c, 0, 76, 84
2, 187263, Note_on_c, 0, 66, 0
2, 187276, Note_on_c, 0, 78, 0
2, 187324, Note_on_c, 0, 76, 0
2, 187351, Note_on_c, 0, 85, 94
2, 187408, Note_on_c, 0, 76, 79
2, 187410, Note_on_c, 0, 85, 0
2, 187483, Note_on_c, 0, 47, 65
2, 187496, Note_on_c, 0, 76, 0
2, 187520, Note_on_c, 0, 83, 81
2, 187524, Control_c, 0, 64, 63
2, 187527, Note_on_c, 0, 74, 71
2, 187532, Control_c, 0, 64, 0
2, 187558, Control_c, 0, 64, 63
2, 187575, Control_c, 0, 64, 127
2, 187609, Note_on_c, 0, 54, 69
2, 187618, Note_on_c, 0, 47, 0
2, 187658, Note_on_c, 0, 54, 0
2, 187659, Note_on_c, 0, 59, 68
2, 187660, Note_on_c, 0, 83, 0
2, 187669, Note_on_c, 0, 74, 0
2, 187694, Note_on_c, 0, 59, 0
2, 187724, Note_on_c, 0, 62, 88
2, 187779, Note_on_c, 0, 66, 101
2, 187808, Control_c, 0, 64, 63
2, 187825, Note_on_c, 0, 71, 89
2, 187840, Control_c, 0, 64, 127
2, 187879, Note_on_c, 0, 78, 105
2, 187903, Note_on_c, 0, 71, 0
2, 187937, Note_on_c, 0, 74, 94
2, 187953, Note_on_c, 0, 78, 0
2, 187978, Control_c, 0, 64, 63
2, 187982, Note_on_c, 0, 74, 0
2, 187991, Note_on_c, 0, 66, 0
2, 188007, Note_on_c, 0, 83, 99
2, 188009, Note_on_c, 0, 67, 81
2, 188011, Note_on_c, 0, 64, 81
2, 188017, Control_c, 0, 64, 127
2, 188043, Note_on_c, 0, 62, 0
2, 188049, Note_on_c, 0, 67, 0
2, 188059, Note_on_c, 0, 64, 0
2, 188072, Note_on_c, 0, 73, 90
2, 188077, Note_on_c, 0, 83, 0
2, 188130, Note_on_c, 0, 82, 90
2, 188133, Note_on_c, 0, 73, 0
2, 188180, Note_on_c, 0, 76, 63
2, 188190, Note_on_c, 0, 82, 0
2, 188242, Note_on_c, 0, 47, 72
2, 188245, Note_on_c, 0, 76, 0
2, 188245, Control_c, 0, 64, 63
2, 188251, Control_c, 0, 64, 0
2, 188262, Note_on_c, 0, 83, 93
2, 188268, Note_on_c, 0, 74, 83
2, 188307, Control_c, 0, 64, 63
2, 188314, Control_c, 0, 64, 127
2, 188321, Note_on_c, 0, 54, 78
2, 188326, Note_on_c, 0, 47, 0
2, 188370, Note_on_c, 0, 54, 0
2, 188372, Note_on_c, 0, 59, 68
2, 188389, Note_on_c, 0, 74, 0
2, 188391, Note_on_c, 0, 83, 0
2, 188405, Note_on_c, 0, 59, 0
2, 188433, Note_on_c, 0, 62, 90
2, 188499, Note_on_c, 0, 66, 106
2, 188536, Control_c, 0, 64, 63
2, 188541, Control_c, 0, 64, 0
2, 188557, Note_on_c, 0, 71, 97
2, 188585, Control_c, 0, 64, 63
2, 188592, Control_c, 0, 64, 127
2, 188610, Note_on_c, 0, 78, 112
2, 188638, Note_on_c, 0, 71, 0
2, 188666, Note_on_c, 0, 74, 102
2, 188685, Control_c, 0, 64, 63
2, 188689, Control_c, 0, 64, 0
2, 188692, Note_on_c, 0, 78, 0
2, 188707, Note_on_c, 0, 74, 0
2, 188715, Note_on_c, 0, 66, 0
2, 188730, Note_on_c, 0, 67, 85
2, 188731, Note_on_c, 0, 83, 111
2, 188732, Note_on_c, 0, 64, 90
2, 188734, Control_c, 0, 64, 63
2, 188740, Control_c, 0, 64, 127
2, 188772, Note_on_c, 0, 62, 0
2, 188781, Note_on_c, 0, 67, 0
2, 188801, Note_on_c, 0, 64, 0
2, 188801, Note_on_c, 0, 73, 104
2, 188817, Note_on_c, 0, 83, 0
2, 188852, Note_on_c, 0, 73, 0
2, 188867, Note_on_c, 0, 82, 108
2, 188935, Note_on_c, 0, 76, 98
2, 188945, Note_on_c, 0, 82, 0
2, 189015, Note_on_c, 0, 47, 93
2, 189038, Note_on_c, 0, 76, 0
2, 189074, Note_on_c, 0, 81, 109
2, 189080, Note_on_c, 0, 72, 104
2, 189085, Control_c, 0, 64, 63
2, 189089, Control_c, 0, 64, 0
2, 189131, Control_c, 0, 64, 63
2, 189138, Control_c, 0, 64, 127
2, 189184, Note_on_c, 0, 54, 82
2, 189194, Note_on_c, 0, 47, 0
2, 189228, Note_on_c, 0, 72, 0
2, 189244, Note_on_c, 0, 81, 0
2, 189255, Note_on_c, 0, 54, 0
2, 189256, Note_on_c, 0, 60, 76
2, 189295, Note_on_c, 0, 60, 0
2, 189333, Note_on_c, 0, 64, 83
2, 189432, Note_on_c, 0, 69, 81
2, 189519, Note_on_c, 0, 72, 92
2, 189595, Note_on_c, 0, 76, 96
2, 189609, Note_on_c, 0, 72, 0
2, 189655, Note_on_c, 0, 78, 98
2, 189678, Note_on_c, 0, 76, 0
2, 189708, Note_on_c, 0, 81, 97
2, 189717, Note_on_c, 0, 78, 0
2, 189742, Note_on_c, 0, 81, 0
2, 189775, Note_on_c, 0, 84, 97
2, 189783, Note_on_c, 0, 83, 37
2, 189807, Note_on_c, 0, 83, 0
2, 189820, Note_on_c, 0, 84, 0
2, 189859, Note_on_c, 0, 96, 106
2, 189909, Note_on_c, 0, 64, 0
2, 189919, Note_on_c, 0, 69, 0
2, 189976, Note_on_c, 0, 95, 99
2, 190009, Note_on_c, 0, 96, 0
2, 190070, Note_on_c, 0, 93, 91
2, 190073, Note_on_c, 0, 69, 69
2, 190076, Note_on_c, 0, 59, 67
2, 190076, Note_on_c, 0, 63, 82
2, 190097, Note_on_c, 0, 95, 0
2, 190105, Control_c, 0, 64, 63
2, 190113, Control_c, 0, 64, 0
2, 190143, Control_c, 0, 64, 63
2, 190148, Note_on_c, 0, 93, 0
2, 190155, Note_on_c, 0, 91, 81
2, 190162, Control_c, 0, 64, 127
2, 190205, Note_on_c, 0, 91, 0
2, 190226, Note_on_c, 0, 90, 95
2, 190258, Note_on_c, 0, 90, 0
2, 190279, Note_on_c, 0, 88, 89
2, 190335, Note_on_c, 0, 87, 105
2, 190343, Note_on_c, 0, 88, 0
2, 190382, Note_on_c, 0, 87, 0
2, 190392, Note_on_c, 0, 90, 103
2, 190443, Note_on_c, 0, 90, 0
2, 190450, Note_on_c, 0, 81, 85
2, 190507, Note_on_c, 0, 81, 0
2, 190509, Note_on_c, 0, 83, 84
2, 190561, Note_on_c, 0, 83, 0
2, 190564, Note_on_c, 0, 84, 88
2, 190609, Note_on_c, 0, 69, 0
2, 190637, Note_on_c, 0, 63, 0
2, 190637, Note_on_c, 0, 78, 89
2, 190648, Note_on_c, 0, 59, 0
2, 190649, Note_on_c, 0, 84, 0
2, 190684, Note_on_c, 0, 78, 0
2, 190703, Note_on_c, 0, 83, 68
2, 190768, Control_c, 0, 64, 63
2, 190772, Note_on_c, 0, 81, 65
2, 190774, Note_on_c, 0, 52, 75
2, 190775, Control_c, 0, 64, 0
2, 190798, Note_on_c, 0, 83, 0
2, 190803, Control_c, 0, 64, 63
2, 190816, Control_c, 0, 64, 127
2, 190826, Note_on_c, 0, 59, 55
2, 190835, Note_on_c, 0, 52, 0
2, 190871, Note_on_c, 0, 81, 0
2, 190881, Note_on_c, 0, 79, 79
2, 190903, Note_on_c, 0, 67, 46
2, 190927, Note_on_c, 0, 79, 0
2, 190993, Note_on_c, 0, 67, 0
2, 191032, Note_on_c, 0, 91, 77
2, 191060, Note_on_c, 0, 59, 0
2, 191150, Note_on_c, 0, 90, 80
2, 191189, Note_on_c, 0, 91, 0
2, 191228, Control_c, 0, 64, 63
2, 191242, Control_c, 0, 64, 127
2, 191248, Note_on_c, 0, 89, 88
2, 191258, Note_on_c, 0, 52, 46
2, 191288, Note_on_c, 0, 90, 0
2, 191297, Note_on_c, 0, 52, 0
2, 191325, Note_on_c, 0, 61, 68
2, 191359, Note_on_c, 0, 88, 91
2, 191366, Note_on_c, 0, 89, 0
2, 191381, Note_on_c, 0, 67, 68
2, 191437, Note_on_c, 0, 88, 0
2, 191451, Note_on_c, 0, 87, 96
2, 191515, Note_on_c, 0, 86, 89
2, 191526, Note_on_c, 0, 87, 0
2, 191582, Note_on_c, 0, 85, 103
2, 191611, Note_on_c, 0, 86, 0
2, 191653, Note_on_c, 0, 84, 85
2, 191656, Note_on_c, 0, 85, 0
2, 191712, Note_on_c, 0, 83, 97
2, 191719, Note_on_c, 0, 84, 0
2, 191778, Note_on_c, 0, 82, 99
2, 191793, Note_on_c, 0, 83, 0
2, 191825, Note_on_c, 0, 81, 84
2, 191826, Note_on_c, 0, 82, 0
2, 191876, Note_on_c, 0, 81, 0
2, 191880, Note_on_c, 0, 80, 107
2, 191930, Note_on_c, 0, 79, 87
2, 191938, Note_on_c, 0, 80, 0
2, 191948, Note_on_c, 0, 67, 0
2, 191965, Note_on_c, 0, 61, 0
2, 191980, Note_on_c, 0, 83, 92
2, 191982, Note_on_c, 0, 79, 0
2, 192033, Note_on_c, 0, 78, 106
2, 192046, Note_on_c, 0, 83, 0
2, 192081, Note_on_c, 0, 78, 0
2, 192084, Note_on_c, 0, 77, 93
2, 192102, Note_on_c, 0, 61, 84
2, 192103, Note_on_c, 0, 64, 84
2, 192106, Note_on_c, 0, 55, 67
2, 192112, Control_c, 0, 64, 63
2, 192139, Note_on_c, 0, 77, 0
2, 192139, Note_on_c, 0, 76, 98
2, 192150, Control_c, 0, 64, 127
2, 192188, Note_on_c, 0, 79, 86
2, 192192, Note_on_c, 0, 76, 0
2, 192211, Note_on_c, 0, 61, 0
2, 192222, Note_on_c, 0, 64, 0
2, 192224, Note_on_c, 0, 55, 0
2, 192243, Note_on_c, 0, 75, 103
2, 192245, Note_on_c, 0, 79, 0
2, 192299, Note_on_c, 0, 75, 0
2, 192301, Note_on_c, 0, 74, 88
2, 192318, Note_on_c, 0, 64, 88
2, 192320, Note_on_c, 0, 61, 84
2, 192327, Note_on_c, 0, 55, 65
2, 192333, Control_c, 0, 64, 63
2, 192350, Control_c, 0, 64, 127
2, 192356, Note_on_c, 0, 74, 0
2, 192358, Note_on_c, 0, 73, 101
2, 192416, Note_on_c, 0, 76, 89
2, 192422, Note_on_c, 0, 73, 0
2, 192429, Note_on_c, 0, 61, 0
2, 192434, Note_on_c, 0, 55, 0
2, 192449, Note_on_c, 0, 64, 0
2, 192472, Note_on_c, 0, 71, 86
2, 192482, Note_on_c, 0, 76, 0
2, 192514, Control_c, 0, 64, 63
2, 192520, Control_c, 0, 64, 0
2, 192552, Control_c, 0, 64, 63
2, 192554, Note_on_c, 0, 70, 100
2, 192559, Note_on_c, 0, 61, 57
2, 192561, Control_c, 0, 64, 127
2, 192562, Note_on_c, 0, 54, 69
2, 192569, Note_on_c, 0, 71, 0
2, 192569, Note_on_c, 0, 64, 49
2, 192591, Note_on_c, 0, 70, 0
2, 192733, Note_on_c, 0, 61, 0
2, 192740, Note_on_c, 0, 54, 0
2, 192742, Note_on_c, 0, 64, 0
2, 192747, Note_on_c, 0, 91, 68
2, 192825, Control_c, 0, 64, 63
2, 192830, Control_c, 0, 64, 0
2, 192854, Note_on_c, 0, 91, 0
2, 192870, Note_on_c, 0, 90, 67
2, 192896, Control_c, 0, 64, 63
2, 192899, Control_c, 0, 64, 127
2, 192909, Note_on_c, 0, 52, 52
2, 192979, Note_on_c, 0, 89, 68
2, 192988, Note_on_c, 0, 90, 0
2, 193009, Note_on_c, 0, 61, 72
2, 193015, Note_on_c, 0, 52, 0
2, 193091, Note_on_c, 0, 89, 0
2, 193109, Note_on_c, 0, 67, 70
2, 193119, Note_on_c, 0, 88, 61
2, 193154, Note_on_c, 0, 61, 0
2, 193182, Note_on_c, 0, 67, 0
2, 193189, Note_on_c, 0, 88, 0
2, 193200, Note_on_c, 0, 87, 80
2, 193261, Note_on_c, 0, 86, 76
2, 193269, Note_on_c, 0, 87, 0
2, 193326, Note_on_c, 0, 85, 82
2, 193331, Note_on_c, 0, 86, 0
2, 193386, Note_on_c, 0, 85, 0
2, 193386, Note_on_c, 0, 84, 78
2, 193439, Note_on_c, 0, 84, 0
2, 193441, Note_on_c, 0, 83, 80
2, 193507, Note_on_c, 0, 82, 94
2, 193517, Note_on_c, 0, 83, 0
2, 193543, Note_on_c, 0, 55, 79
2, 193554, Note_on_c, 0, 82, 0
2, 193556, Note_on_c, 0, 81, 84
2, 193568, Control_c, 0, 64, 63
2, 193589, Note_on_c, 0, 61, 86
2, 193590, Note_on_c, 0, 55, 0
2, 193602, Control_c, 0, 64, 127
2, 193624, Note_on_c, 0, 81, 0
2, 193634, Note_on_c, 0, 80, 96
2, 193658, Note_on_c, 0, 71, 56
2, 193699, Note_on_c, 0, 79, 80
2, 193707, Note_on_c, 0, 80, 0
2, 193750, Note_on_c, 0, 71, 0
2, 193750, Note_on_c, 0, 83, 78
2, 193757, Note_on_c, 0, 79, 0
2, 193807, Note_on_c, 0, 78, 95
2, 193811, Note_on_c, 0, 83, 0
2, 193851, Note_on_c, 0, 78, 0
2, 193859, Note_on_c, 0, 70, 80
2, 193860, Note_on_c, 0, 77, 80
2, 193908, Note_on_c, 0, 77, 0
2, 193911, Note_on_c, 0, 76, 94
2, 193919, Note_on_c, 0, 70, 0
2, 193956, Note_on_c, 0, 76, 0
2, 193958, Note_on_c, 0, 79, 85
2, 194015, Note_on_c, 0, 75, 101
2, 194018, Note_on_c, 0, 79, 0
2, 194074, Note_on_c, 0, 75, 0
2, 194077, Note_on_c, 0, 74, 82
2, 194080, Note_on_c, 0, 54, 91
2, 194087, Control_c, 0, 64, 63
2, 194096, Control_c, 0, 64, 0
2, 194112, Control_c, 0, 64, 63
2, 194115, Note_on_c, 0, 61, 0
2, 194130, Control_c, 0, 64, 127
2, 194138, Note_on_c, 0, 73, 100
2, 194143, Note_on_c, 0, 74, 0
2, 194186, Note_on_c, 0, 76, 84
2, 194189, Note_on_c, 0, 73, 0
2, 194237, Control_c, 0, 64, 63
2, 194241, Control_c, 0, 64, 0
2, 194251, Note_on_c, 0, 70, 89
2, 194267, Note_on_c, 0, 76, 0
2, 194312, Control_c, 0, 64, 63
2, 194315, Control_c, 0, 64, 127
2, 194343, Note_on_c, 0, 60, 71
2, 194348, Note_on_c, 0, 69, 71
2, 194351, Note_on_c, 0, 70, 0
2, 194390, Note_on_c, 0, 69, 0
2, 194401, Note_on_c, 0, 60, 0
2, 194547, Note_on_c, 0, 96, 82
2, 194549, Note_on_c, 0, 54, 0
2, 194643, Note_on_c, 0, 95, 80
2, 194654, Note_on_c, 0, 96, 0
2, 194660, Control_c, 0, 64, 63
2, 194664, Control_c, 0, 64, 0
2, 194673, Note_on_c, 0, 55, 75
2, 194698, Control_c, 0, 64, 63
2, 194709, Control_c, 0, 64, 127
2, 194723, Note_on_c, 0, 94, 88
2, 194732, Note_on_c, 0, 95, 0
2, 194742, Note_on_c, 0, 55, 0
2, 194744, Note_on_c, 0, 64, 77
2, 194828, Note_on_c, 0, 72, 71
2, 194836, Note_on_c, 0, 93, 82
2, 194839, Note_on_c, 0, 94, 0
2, 194906, Note_on_c, 0, 93, 0
2, 194921, Note_on_c, 0, 92, 95
2, 194977, Note_on_c, 0, 91, 93
2, 194999, Note_on_c, 0, 92, 0
2, 195040, Note_on_c, 0, 90, 101
2, 195065, Note_on_c, 0, 91, 0
2, 195094, Note_on_c, 0, 89, 87
2, 195096, Note_on_c, 0, 90, 0
2, 195146, Note_on_c, 0, 88, 102
2, 195147, Note_on_c, 0, 89, 0
2, 195201, Note_on_c, 0, 87, 106
2, 195229, Note_on_c, 0, 88, 0
2, 195250, Note_on_c, 0, 86, 100
2, 195257, Note_on_c, 0, 87, 0
2, 195308, Note_on_c, 0, 86, 0
2, 195309, Note_on_c, 0, 85, 112
2, 195327, Note_on_c, 0, 57, 99
2, 195339, Note_on_c, 0, 72, 0
2, 195363, Note_on_c, 0, 84, 102
2, 195367, Note_on_c, 0, 64, 0
2, 195379, Note_on_c, 0, 85, 0
2, 195408, Note_on_c, 0, 88, 99
2, 195418, Note_on_c, 0, 84, 0
2, 195465, Note_on_c, 0, 83, 93
2, 195473, Note_on_c, 0, 88, 0
2, 195505, Control_c, 0, 64, 63
2, 195512, Control_c, 0, 64, 0
2, 195520, Note_on_c, 0, 82, 110
2, 195527, Note_on_c, 0, 83, 0
2, 195531, Note_on_c, 0, 69, 100
2, 195534, Note_on_c, 0, 57, 0
2, 195535, Note_on_c, 0, 66, 97
2, 195537, Note_on_c, 0, 60, 91
2, 195557, Control_c, 0, 64, 63
2, 195571, Control_c, 0, 64, 127
2, 195583, Note_on_c, 0, 81, 97
2, 195586, Note_on_c, 0, 82, 0
2, 195639, Note_on_c, 0, 84, 87
2, 195641, Note_on_c, 0, 81, 0
2, 195662, Note_on_c, 0, 66, 0
2, 195670, Note_on_c, 0, 69, 0
2, 195672, Note_on_c, 0, 60, 0
2, 195689, Note_on_c, 0, 80, 106
2, 195698, Note_on_c, 0, 84, 0
2, 195749, Note_on_c, 0, 80, 0
2, 195752, Note_on_c, 0, 79, 89
2, 195757, Note_on_c, 0, 69, 96
2, 195759, Note_on_c, 0, 60, 99
2, 195760, Note_on_c, 0, 66, 97
2, 195760, Control_c, 0, 64, 63
2, 195795, Control_c, 0, 64, 127
2, 195808, Note_on_c, 0, 79, 0
2, 195815, Note_on_c, 0, 78, 95
2, 195841, Note_on_c, 0, 60, 0
2, 195868, Note_on_c, 0, 81, 86
2, 195875, Note_on_c, 0, 78, 0
2, 195925, Note_on_c, 0, 76, 84
2, 195932, Note_on_c, 0, 66, 0
2, 195938, Note_on_c, 0, 81, 0
2, 195951, Note_on_c, 0, 69, 0
2, 195965, Control_c, 0, 64, 63
2, 195974, Control_c, 0, 64, 0
2, 195995, Control_c, 0, 64, 63
2, 196005, Note_on_c, 0, 59, 67
2, 196011, Control_c, 0, 64, 127
2, 196013, Note_on_c, 0, 75, 100
2, 196017, Note_on_c, 0, 66, 70
2, 196019, Note_on_c, 0, 69, 61
2, 196032, Note_on_c, 0, 76, 0
2, 196052, Note_on_c, 0, 75, 0
2, 196167, Note_on_c, 0, 69, 0
2, 196171, Note_on_c, 0, 59, 0
2, 196174, Note_on_c, 0, 66, 0
2, 196186, Note_on_c, 0, 96, 68
2, 196274, Note_on_c, 0, 96, 0
2, 196293, Control_c, 0, 64, 63
2, 196297, Control_c, 0, 64, 0
2, 196308, Note_on_c, 0, 95, 63
2, 196352, Control_c, 0, 64, 63
2, 196356, Note_on_c, 0, 57, 63
2, 196357, Control_c, 0, 64, 127
2, 196398, Note_on_c, 0, 95, 0
2, 196402, Note_on_c, 0, 94, 69
2, 196431, Note_on_c, 0, 57, 0
2, 196440, Note_on_c, 0, 66, 66
2, 196503, Note_on_c, 0, 94, 0
2, 196519, Note_on_c, 0, 93, 67
2, 196521, Note_on_c, 0, 72, 69
2, 196580, Note_on_c, 0, 93, 0
2, 196586, Note_on_c, 0, 92, 79
2, 196646, Note_on_c, 0, 91, 83
2, 196661, Note_on_c, 0, 92, 0
2, 196710, Note_on_c, 0, 90, 99
2, 196744, Note_on_c, 0, 91, 0
2, 196765, Note_on_c, 0, 89, 86
2, 196772, Note_on_c, 0, 90, 0
2, 196784, Note_on_c, 0, 72, 0
2, 196807, Note_on_c, 0, 66, 0
2, 196822, Note_on_c, 0, 88, 99
2, 196823, Note_on_c, 0, 89, 0
2, 196870, Note_on_c, 0, 87, 103
2, 196889, Note_on_c, 0, 60, 88
2, 196895, Note_on_c, 0, 88, 0
2, 196921, Note_on_c, 0, 86, 97
2, 196929, Control_c, 0, 64, 63
2, 196929, Note_on_c, 0, 66, 99
2, 196932, Note_on_c, 0, 87, 0
2, 196943, Note_on_c, 0, 60, 0
2, 196958, Control_c, 0, 64, 127
2, 196981, Note_on_c, 0, 86, 0
2, 196993, Note_on_c, 0, 85, 110
2, 196993, Note_on_c, 0, 76, 102
2, 197054, Note_on_c, 0, 84, 101
2, 197063, Note_on_c, 0, 85, 0
2, 197102, Note_on_c, 0, 76, 0
2, 197104, Note_on_c, 0, 88, 89
2, 197116, Note_on_c, 0, 84, 0
2, 197164, Note_on_c, 0, 83, 82
2, 197170, Note_on_c, 0, 88, 0
2, 197219, Note_on_c, 0, 75, 112
2, 197220, Note_on_c, 0, 82, 112
2, 197223, Note_on_c, 0, 83, 0
2, 197271, Note_on_c, 0, 81, 103
2, 197291, Note_on_c, 0, 82, 0
2, 197297, Note_on_c, 0, 75, 0
2, 197326, Note_on_c, 0, 84, 102
2, 197334, Note_on_c, 0, 66, 0
2, 197339, Note_on_c, 0, 81, 0
2, 197384, Note_on_c, 0, 80, 112
2, 197399, Note_on_c, 0, 84, 0
2, 197429, Control_c, 0, 64, 63
2, 197434, Control_c, 0, 64, 0
2, 197458, Note_on_c, 0, 69, 107
2, 197458, Note_on_c, 0, 66, 113
2, 197459, Note_on_c, 0, 60, 91
2, 197460, Note_on_c, 0, 79, 106
2, 197466, Note_on_c, 0, 80, 0
2, 197478, Control_c, 0, 64, 63
2, 197483, Control_c, 0, 64, 127
2, 197521, Note_on_c, 0, 78, 113
2, 197539, Note_on_c, 0, 79, 0
2, 197572, Note_on_c, 0, 78, 0
2, 197577, Note_on_c, 0, 81, 92
2, 197634, Note_on_c, 0, 75, 116
2, 197645, Note_on_c, 0, 81, 0
2, 197676, Control_c, 0, 64, 63
2, 197679, Control_c, 0, 64, 0
2, 197687, Note_on_c, 0, 75, 0
2, 197719, Note_on_c, 0, 69, 0
2, 197719, Note_on_c, 0, 66, 0
2, 197731, Note_on_c, 0, 76, 124
2, 197734, Note_on_c, 0, 67, 97
2, 197735, Note_on_c, 0, 70, 112
2, 197736, Note_on_c, 0, 79, 107
2, 197741, Control_c, 0, 64, 63
2, 197745, Control_c, 0, 64, 127
2, 197765, Note_on_c, 0, 70, 0
2, 197769, Note_on_c, 0, 76, 0
2, 197774, Note_on_c, 0, 67, 0
2, 197776, Note_on_c, 0, 79, 0
2, 197798, Note_on_c, 0, 60, 0
2, 197907, Note_on_c, 0, 52, 122
2, 197922, Control_c, 0, 64, 63
2, 197922, Control_c, 0, 64, 127
2, 197950, Note_on_c, 0, 52, 0
2, 197993, Note_on_c, 0, 55, 107
2, 197997, Control_c, 0, 64, 63
2, 198012, Control_c, 0, 64, 0
2, 198036, Note_on_c, 0, 55, 0
2, 198081, Note_on_c, 0, 48, 124
2, 198083, Note_on_c, 0, 36, 117
2, 198084, Note_on_c, 0, 64, 107
2, 198085, Note_on_c, 0, 67, 100
2, 198090, Control_c, 0, 64, 63
2, 198093, Control_c, 0, 64, 0
2, 198115, Control_c, 0, 64, 63
2, 198120, Control_c, 0, 64, 127
2, 198150, Note_on_c, 0, 58, 109
2, 198156, Note_on_c, 0, 67, 0
2, 198173, Note_on_c, 0, 64, 0
2, 198194, Note_on_c, 0, 58, 0
2, 198226, Note_on_c, 0, 67, 31
2, 198243, Note_on_c, 0, 67, 0
2, 198266, Note_on_c, 0, 67, 102
2, 198284, Note_on_c, 0, 36, 0
2, 198298, Note_on_c, 0, 67, 0
2, 198314, Note_on_c, 0, 48, 0
2, 198329, Note_on_c, 0, 79, 101
2, 198329, Note_on_c, 0, 76, 107
2, 198375, Note_on_c, 0, 70, 113
2, 198377, Note_on_c, 0, 79, 0
2, 198394, Note_on_c, 0, 76, 0
2, 198414, Note_on_c, 0, 70, 0
2, 198436, Note_on_c, 0, 79, 94
2, 198437, Note_on_c, 0, 76, 86
2, 198455, Note_on_c, 0, 76, 0
2, 198463, Note_on_c, 0, 79, 0
2, 198490, Note_on_c, 0, 79, 92
2, 198518, Note_on_c, 0, 79, 0
2, 198550, Note_on_c, 0, 88, 114
2, 198550, Note_on_c, 0, 91, 111
2, 198585, Note_on_c, 0, 88, 0
2, 198593, Note_on_c, 0, 91, 0
2, 198604, Note_on_c, 0, 82, 112
2, 198645, Note_on_c, 0, 82, 0
2, 198658, Note_on_c, 0, 79, 93
2, 198681, Note_on_c, 0, 79, 0
2, 198717, Note_on_c, 0, 70, 121
2, 198741, Note_on_c, 0, 70, 0
2, 198770, Note_on_c, 0, 60, 122
2, 198772, Note_on_c, 0, 48, 117
2, 198774, Note_on_c, 0, 79, 94
2, 198775, Note_on_c, 0, 76, 109
2, 198800, Note_on_c, 0, 60, 0
2, 198807, Note_on_c, 0, 48, 0
2, 198819, Note_on_c, 0, 79, 0
2, 198824, Note_on_c, 0, 76, 0
2, 198827, Note_on_c, 0, 70, 110
2, 198867, Note_on_c, 0, 70, 0
2, 198882, Note_on_c, 0, 67, 81
2, 198899, Note_on_c, 0, 67, 0
2, 198939, Note_on_c, 0, 58, 116
2, 198966, Note_on_c, 0, 58, 0
2, 198994, Note_on_c, 0, 60, 116
2, 198998, Note_on_c, 0, 48, 108
2, 199000, Note_on_c, 0, 67, 90
2, 199002, Note_on_c, 0, 64, 101
2, 199028, Note_on_c, 0, 60, 0
2, 199032, Note_on_c, 0, 48, 0
2, 199044, Note_on_c, 0, 67, 0
2, 199047, Note_on_c, 0, 58, 105
2, 199049, Note_on_c, 0, 64, 0
2, 199088, Note_on_c, 0, 58, 0
2, 199105, Note_on_c, 0, 67, 84
2, 199111, Note_on_c, 0, 64, 66
2, 199127, Note_on_c, 0, 67, 0
2, 199129, Note_on_c, 0, 64, 0
2, 199160, Note_on_c, 0, 67, 102
2, 199192, Note_on_c, 0, 67, 0
2, 199192, Control_c, 0, 64, 63
2, 199197, Control_c, 0, 64, 0
2, 199241, Note_on_c, 0, 71, 118
2, 199242, Note_on_c, 0, 76, 113
2, 199242, Note_on_c, 0, 59, 122
2, 199243, Note_on_c, 0, 79, 103
2, 199243, Note_on_c, 0, 47, 118
2, 199249, Control_c, 0, 64, 63
2, 199251, Control_c, 0, 64, 127
2, 199264, Note_on_c, 0, 71, 0
2, 199265, Note_on_c, 0, 76, 0
2, 199268, Note_on_c, 0, 79, 0
2, 199272, Note_on_c, 0, 59, 0
2, 199287, Note_on_c, 0, 47, 0
2, 199373, Control_c, 0, 64, 63
2, 199376, Control_c, 0, 64, 0
2, 199388, Note_on_c, 0, 52, 121
2, 199443, Note_on_c, 0, 55, 107
2, 199449, Note_on_c, 0, 52, 0
2, 199506, Note_on_c, 0, 55, 0
2, 199521, Note_on_c, 0, 47, 122
2, 199524, Note_on_c, 0, 35, 122
2, 199527, Note_on_c, 0, 67, 102
2, 199528, Note_on_c, 0, 64, 108
2, 199553, Control_c, 0, 64, 127
2, 199588, Note_on_c, 0, 67, 0
2, 199607, Note_on_c, 0, 64, 0
2, 199607, Note_on_c, 0, 59, 90
2, 199653, Note_on_c, 0, 59, 0
2, 199659, Note_on_c, 0, 67, 70
2, 199684, Note_on_c, 0, 67, 0
2, 199717, Note_on_c, 0, 67, 96
2, 199764, Note_on_c, 0, 67, 0
2, 199782, Note_on_c, 0, 79, 98
2, 199783, Note_on_c, 0, 76, 101
2, 199837, Note_on_c, 0, 71, 103
2, 199838, Note_on_c, 0, 79, 0
2, 199848, Note_on_c, 0, 76, 0
2, 199886, Note_on_c, 0, 71, 0
2, 199893, Note_on_c, 0, 76, 88
2, 199894, Note_on_c, 0, 79, 76
2, 199912, Note_on_c, 0, 76, 0
2, 199915, Note_on_c, 0, 79, 0
2, 199948, Note_on_c, 0, 79, 94
2, 199984, Note_on_c, 0, 79, 0
2, 200011, Note_on_c, 0, 91, 109
2, 200012, Note_on_c, 0, 88, 109
2, 200060, Note_on_c, 0, 88, 0
2, 200061, Note_on_c, 0, 91, 0
2, 200075, Note_on_c, 0, 83, 97
2, 200087, Note_on_c, 0, 35, 0
2, 200108, Note_on_c, 0, 47, 0
2, 200111, Note_on_c, 0, 83, 0
2, 200133, Note_on_c, 0, 79, 88
2, 200160, Note_on_c, 0, 79, 0
2, 200189, Note_on_c, 0, 71, 112
2, 200220, Note_on_c, 0, 71, 0
2, 200244, Note_on_c, 0, 59, 117
2, 200247, Note_on_c, 0, 47, 104
2, 200248, Note_on_c, 0, 79, 104
2, 200250, Note_on_c, 0, 76, 108
2, 200296, Note_on_c, 0, 79, 0
2, 200311, Note_on_c, 0, 47, 0
2, 200312, Note_on_c, 0, 59, 0
2, 200312, Note_on_c, 0, 71, 99
2, 200322, Note_on_c, 0, 76, 0
2, 200354, Note_on_c, 0, 71, 0
2, 200365, Note_on_c, 0, 67, 97
2, 200393, Note_on_c, 0, 67, 0
2, 200424, Note_on_c, 0, 59, 104
2, 200447, Note_on_c, 0, 59, 0
2, 200471, Note_on_c, 0, 47, 113
2, 200477, Note_on_c, 0, 67, 103
2, 200484, Note_on_c, 0, 64, 100
2, 200517, Note_on_c, 0, 47, 0
2, 200527, Note_on_c, 0, 59, 106
2, 200532, Note_on_c, 0, 67, 0
2, 200539, Note_on_c, 0, 64, 0
2, 200571, Note_on_c, 0, 59, 0
2, 200585, Note_on_c, 0, 64, 94
2, 200589, Note_on_c, 0, 67, 76
2, 200599, Note_on_c, 0, 64, 0
2, 200607, Note_on_c, 0, 67, 0
2, 200627, Note_on_c, 0, 67, 108
2, 200652, Control_c, 0, 64, 63
2, 200654, Note_on_c, 0, 46, 97
2, 200657, Control_c, 0, 64, 0
2, 200681, Note_on_c, 0, 67, 0
2, 200693, Note_on_c, 0, 52, 88
2, 200697, Note_on_c, 0, 46, 0
2, 200697, Note_on_c, 0, 55, 97
2, 200703, Control_c, 0, 64, 63
2, 200703, Control_c, 0, 64, 127
2, 200706, Note_on_c, 0, 76, 111
2, 200708, Note_on_c, 0, 79, 101
2, 200711, Note_on_c, 0, 58, 124
2, 200712, Note_on_c, 0, 72, 76
2, 200728, Note_on_c, 0, 72, 0
2, 200735, Note_on_c, 0, 76, 0
2, 200737, Note_on_c, 0, 79, 0
2, 200740, Note_on_c, 0, 58, 0
2, 200741, Note_on_c, 0, 55, 0
2, 200744, Note_on_c, 0, 52, 0
2, 200849, Note_on_c, 0, 52, 124
2, 200859, Control_c, 0, 64, 63
2, 200863, Control_c, 0, 64, 0
2, 200913, Note_on_c, 0, 55, 108
2, 200918, Note_on_c, 0, 52, 0
2, 200992, Note_on_c, 0, 55, 0
2, 200995, Note_on_c, 0, 46, 125
2, 200996, Note_on_c, 0, 34, 116
2, 201000, Note_on_c, 0, 64, 106
2, 201002, Note_on_c, 0, 67, 101
2, 201056, Control_c, 0, 64, 127
2, 201070, Note_on_c, 0, 60, 92
2, 201072, Note_on_c, 0, 67, 0
2, 201087, Note_on_c, 0, 64, 0
2, 201124, Note_on_c, 0, 67, 83
2, 201128, Note_on_c, 0, 60, 0
2, 201131, Note_on_c, 0, 64, 77
2, 201146, Note_on_c, 0, 64, 0
2, 201153, Note_on_c, 0, 67, 0
2, 201172, Note_on_c, 0, 67, 92
2, 201219, Note_on_c, 0, 67, 0
2, 201231, Note_on_c, 0, 79, 94
2, 201232, Note_on_c, 0, 76, 101
2, 201279, Note_on_c, 0, 72, 108
2, 201287, Note_on_c, 0, 79, 0
2, 201294, Note_on_c, 0, 76, 0
2, 201333, Note_on_c, 0, 72, 0
2, 201334, Note_on_c, 0, 76, 100
2, 201338, Note_on_c, 0, 79, 84
2, 201359, Note_on_c, 0, 79, 0
2, 201360, Note_on_c, 0, 76, 0
2, 201387, Note_on_c, 0, 79, 100
2, 201432, Note_on_c, 0, 79, 0
2, 201456, Note_on_c, 0, 34, 0
2, 201458, Note_on_c, 0, 91, 111
2, 201458, Note_on_c, 0, 88, 112
2, 201477, Note_on_c, 0, 46, 0
2, 201519, Note_on_c, 0, 91, 0
2, 201524, Note_on_c, 0, 84, 103
2, 201536, Note_on_c, 0, 88, 0
2, 201566, Note_on_c, 0, 84, 0
2, 201574, Note_on_c, 0, 79, 92
2, 201604, Note_on_c, 0, 79, 0
2, 201630, Note_on_c, 0, 72, 107
2, 201660, Note_on_c, 0, 72, 0
2, 201685, Note_on_c, 0, 46, 124
2, 201687, Note_on_c, 0, 79, 103
2, 201688, Note_on_c, 0, 34, 120
2, 201690, Note_on_c, 0, 76, 111
2, 201720, Note_on_c, 0, 46, 0
2, 201722, Note_on_c, 0, 34, 0
2, 201749, Note_on_c, 0, 72, 101
2, 201752, Note_on_c, 0, 79, 0
2, 201768, Note_on_c, 0, 76, 0
2, 201793, Note_on_c, 0, 72, 0
2, 201804, Note_on_c, 0, 67, 94
2, 201838, Note_on_c, 0, 67, 0
2, 201862, Note_on_c, 0, 60, 101
2, 201897, Note_on_c, 0, 60, 0
2, 201922, Note_on_c, 0, 47, 121
2, 201922, Note_on_c, 0, 67, 102
2, 201924, Control_c, 0, 64, 63
2, 201924, Note_on_c, 0, 64, 103
2, 201925, Note_on_c, 0, 35, 117
2, 201930, Control_c, 0, 64, 0
2, 201962, Control_c, 0, 64, 63
2, 201969, Control_c, 0, 64, 127
2, 201979, Note_on_c, 0, 59, 109
2, 201984, Note_on_c, 0, 67, 0
2, 201998, Note_on_c, 0, 64, 0
2, 202034, Note_on_c, 0, 59, 0
2, 202041, Note_on_c, 0, 67, 87
2, 202042, Note_on_c, 0, 64, 92
2, 202068, Note_on_c, 0, 64, 0
2, 202070, Note_on_c, 0, 67, 0
2, 202084, Note_on_c, 0, 35, 0
2, 202099, Note_on_c, 0, 67, 111
2, 202106, Note_on_c, 0, 47, 0
2, 202133, Note_on_c, 0, 67, 0
2, 202186, Control_c, 0, 64, 63
2, 202189, Control_c, 0, 64, 0
2, 202213, Control_c, 0, 64, 63
2, 202214, Note_on_c, 0, 48, 125
2, 202216, Note_on_c, 0, 36, 117
2, 202218, Control_c, 0, 64, 127
2, 202218, Note_on_c, 0, 79, 91
2, 202218, Note_on_c, 0, 70, 112
2, 202219, Note_on_c, 0, 76, 101
2, 202247, Note_on_c, 0, 70, 0
2, 202248, Note_on_c, 0, 76, 0
2, 202249, Note_on_c, 0, 79, 0
2, 202412, Note_on_c, 0, 52, 113
2, 202443, Note_on_c, 0, 52, 0
2, 202523, Note_on_c, 0, 55, 102
2, 202557, Note_on_c, 0, 55, 0
2, 202609, Note_on_c, 0, 67, 93
2, 202610, Note_on_c, 0, 64, 103
2, 202648, Note_on_c, 0, 64, 0
2, 202655, Note_on_c, 0, 67, 0
2, 202680, Note_on_c, 0, 58, 113
2, 202718, Note_on_c, 0, 58, 0
2, 202744, Note_on_c, 0, 67, 81
2, 202745, Note_on_c, 0, 64, 90
2, 202765, Note_on_c, 0, 64, 0
2, 202766, Note_on_c, 0, 67, 0
2, 202802, Note_on_c, 0, 67, 96
2, 202833, Note_on_c, 0, 67, 0
2, 202863, Note_on_c, 0, 79, 94
2, 202864, Note_on_c, 0, 76, 104
2, 202865, Note_on_c, 0, 36, 0
2, 202890, Note_on_c, 0, 48, 0
2, 202910, Note_on_c, 0, 79, 0
2, 202912, Note_on_c, 0, 70, 116
2, 202929, Note_on_c, 0, 76, 0
2, 202949, Note_on_c, 0, 70, 0
2, 202967, Note_on_c, 0, 79, 92
2, 202968, Note_on_c, 0, 76, 92
2, 202987, Note_on_c, 0, 76, 0
2, 202992, Note_on_c, 0, 79, 0
2, 203019, Note_on_c, 0, 48, 98
2, 203019, Note_on_c, 0, 79, 93
2, 203047, Note_on_c, 0, 79, 0
2, 203076, Note_on_c, 0, 48, 0
2, 203084, Note_on_c, 0, 55, 68
2, 203111, Note_on_c, 0, 88, 107
2, 203111, Note_on_c, 0, 91, 99
2, 203112, Note_on_c, 0, 58, 108
2, 203115, Note_on_c, 0, 64, 101
2, 203168, Note_on_c, 0, 91, 0
2, 203177, Note_on_c, 0, 82, 107
2, 203190, Note_on_c, 0, 88, 0
2, 203212, Note_on_c, 0, 82, 0
2, 203234, Note_on_c, 0, 91, 91
2, 203235, Note_on_c, 0, 88, 86
2, 203255, Note_on_c, 0, 88, 0
2, 203262, Note_on_c, 0, 91, 0
2, 203284, Note_on_c, 0, 91, 104
2, 203325, Note_on_c, 0, 91, 0
2, 203354, Note_on_c, 0, 100, 108
2, 203354, Note_on_c, 0, 94, 114
2, 203386, Note_on_c, 0, 64, 0
2, 203390, Note_on_c, 0, 58, 0
2, 203397, Note_on_c, 0, 55, 0
2, 203423, Note_on_c, 0, 94, 0
2, 203425, Note_on_c, 0, 91, 90
2, 203454, Note_on_c, 0, 100, 0
2, 203478, Note_on_c, 0, 91, 0
2, 203499, Note_on_c, 0, 94, 114
2, 203500, Note_on_c, 0, 100, 106
2, 203567, Note_on_c, 0, 100, 0
2, 203578, Note_on_c, 0, 90, 115
2, 203611, Note_on_c, 0, 94, 0
2, 203645, Note_on_c, 0, 90, 0
2, 203653, Note_on_c, 0, 48, 117
2, 203654, Control_c, 0, 64, 63
2, 203656, Note_on_c, 0, 36, 117
2, 203662, Control_c, 0, 64, 0
2, 203663, Note_on_c, 0, 94, 110
2, 203667, Note_on_c, 0, 100, 102
2, 203669, Control_c, 0, 64, 63
2, 203683, Control_c, 0, 64, 127
2, 203734, Note_on_c, 0, 100, 0
2, 203746, Note_on_c, 0, 89, 94
2, 203774, Note_on_c, 0, 94, 0
2, 203832, Note_on_c, 0, 89, 0
2, 203841, Note_on_c, 0, 94, 113
2, 203845, Note_on_c, 0, 100, 111
2, 203877, Note_on_c, 0, 48, 0
2, 203903, Note_on_c, 0, 100, 0
2, 203905, Note_on_c, 0, 36, 0
2, 203927, Note_on_c, 0, 88, 106
2, 203940, Note_on_c, 0, 94, 0
2, 203969, Note_on_c, 0, 88, 0
2, 204049, Control_c, 0, 64, 63
2, 204050, Note_on_c, 0, 47, 122
2, 204051, Note_on_c, 0, 95, 108
2, 204052, Control_c, 0, 64, 0
2, 204054, Note_on_c, 0, 35, 117
2, 204079, Control_c, 0, 64, 127
2, 204157, Control_c, 0, 64, 63
2, 204162, Control_c, 0, 64, 0
2, 204190, Control_c, 0, 64, 63
2, 204192, Control_c, 0, 64, 127
2, 204205, Note_on_c, 0, 87, 100
2, 204235, Note_on_c, 0, 95, 0
2, 204303, Note_on_c, 0, 35, 0
2, 204308, Note_on_c, 0, 81, 73
2, 204331, Note_on_c, 0, 47, 0
2, 204341, Note_on_c, 0, 87, 0
2, 204376, Note_on_c, 0, 81, 0
2, 204399, Note_on_c, 0, 90, 105
2, 204487, Note_on_c, 0, 90, 0
2, 204489, Note_on_c, 0, 94, 106
2, 204492, Note_on_c, 0, 59, 104
2, 204561, Note_on_c, 0, 59, 0
2, 204567, Note_on_c, 0, 94, 0
2, 204571, Note_on_c, 0, 86, 88
2, 204583, Note_on_c, 0, 65, 93
2, 204649, Note_on_c, 0, 65, 0
2, 204650, Note_on_c, 0, 80, 93
2, 204658, Note_on_c, 0, 68, 97
2, 204682, Note_on_c, 0, 86, 0
2, 204711, Note_on_c, 0, 74, 89
2, 204714, Note_on_c, 0, 68, 0
2, 204717, Note_on_c, 0, 80, 0
2, 204718, Note_on_c, 0, 89, 82
2, 204739, Note_on_c, 0, 74, 0
2, 204776, Note_on_c, 0, 93, 89
2, 204781, Note_on_c, 0, 59, 74
2, 204787, Note_on_c, 0, 89, 0
2, 204828, Note_on_c, 0, 85, 105
2, 204830, Note_on_c, 0, 93, 0
2, 204830, Note_on_c, 0, 59, 0
2, 204842, Note_on_c, 0, 64, 76
2, 204891, Note_on_c, 0, 67, 84
2, 204891, Note_on_c, 0, 79, 96
2, 204898, Note_on_c, 0, 64, 0
2, 204919, Note_on_c, 0, 85, 0
2, 204938, Note_on_c, 0, 73, 101
2, 204946, Note_on_c, 0, 79, 0
2, 204955, Note_on_c, 0, 88, 80
2, 204960, Note_on_c, 0, 67, 0
2, 204967, Note_on_c, 0, 73, 0
2, 204993, Note_on_c, 0, 92, 100
2, 205001, Note_on_c, 0, 59, 89
2, 205008, Note_on_c, 0, 88, 0
2, 205049, Note_on_c, 0, 84, 80
2, 205056, Note_on_c, 0, 92, 0
2, 205059, Note_on_c, 0, 63, 98
2, 205060, Note_on_c, 0, 59, 0
2, 205105, Note_on_c, 0, 78, 96
2, 205112, Note_on_c, 0, 66, 94
2, 205116, Note_on_c, 0, 84, 0
2, 205124, Note_on_c, 0, 63, 0
2, 205147, Note_on_c, 0, 72, 88
2, 205157, Note_on_c, 0, 87, 101
2, 205166, Note_on_c, 0, 78, 0
2, 205169, Note_on_c, 0, 66, 0
2, 205177, Note_on_c, 0, 72, 0
2, 205204, Note_on_c, 0, 91, 97
2, 205208, Note_on_c, 0, 59, 96
2, 205216, Note_on_c, 0, 87, 0
2, 205248, Note_on_c, 0, 83, 91
2, 205249, Note_on_c, 0, 89, 18
2, 205255, Note_on_c, 0, 62, 91
2, 205265, Note_on_c, 0, 59, 0
2, 205266, Note_on_c, 0, 91, 0
2, 205275, Note_on_c, 0, 89, 0
2, 205300, Note_on_c, 0, 77, 87
2, 205309, Note_on_c, 0, 65, 83
2, 205314, Note_on_c, 0, 62, 0
2, 205335, Note_on_c, 0, 83, 0
2, 205346, Note_on_c, 0, 77, 0
2, 205355, Note_on_c, 0, 71, 88
2, 205355, Note_on_c, 0, 86, 87
2, 205366, Note_on_c, 0, 65, 0
2, 205402, Note_on_c, 0, 90, 105
2, 205404, Note_on_c, 0, 71, 0
2, 205410, Note_on_c, 0, 86, 0
2, 205415, Note_on_c, 0, 59, 85
2, 205460, Note_on_c, 0, 82, 97
2, 205461, Note_on_c, 0, 61, 89
2, 205468, Note_on_c, 0, 90, 0
2, 205482, Note_on_c, 0, 59, 0
2, 205511, Note_on_c, 0, 76, 73
2, 205512, Note_on_c, 0, 64, 73
2, 205528, Note_on_c, 0, 82, 0
2, 205528, Note_on_c, 0, 61, 0
2, 205557, Note_on_c, 0, 70, 103
2, 205558, Note_on_c, 0, 76, 0
2, 205564, Note_on_c, 0, 85, 101
2, 205575, Note_on_c, 0, 64, 0
2, 205598, Note_on_c, 0, 70, 0
2, 205613, Note_on_c, 0, 89, 84
2, 205616, Note_on_c, 0, 59, 78
2, 205620, Note_on_c, 0, 85, 0
2, 205662, Note_on_c, 0, 89, 0
2, 205667, Note_on_c, 0, 81, 83
2, 205672, Note_on_c, 0, 60, 93
2, 205689, Note_on_c, 0, 59, 0
2, 205715, Note_on_c, 0, 63, 93
2, 205716, Note_on_c, 0, 75, 96
2, 205732, Note_on_c, 0, 60, 0
2, 205733, Note_on_c, 0, 81, 0
2, 205759, Note_on_c, 0, 75, 0
2, 205759, Note_on_c, 0, 69, 77
2, 205763, Note_on_c, 0, 84, 86
2, 205778, Note_on_c, 0, 63, 0
2, 205808, Note_on_c, 0, 69, 0
2, 205809, Note_on_c, 0, 88, 97
2, 205811, Note_on_c, 0, 59, 97
2, 205822, Note_on_c, 0, 84, 0
2, 205864, Note_on_c, 0, 80, 100
2, 205866, Note_on_c, 0, 62, 100
2, 205867, Note_on_c, 0, 88, 0
2, 205923, Note_on_c, 0, 74, 79
2, 205943, Note_on_c, 0, 68, 106
2, 205955, Note_on_c, 0, 80, 0
2, 205972, Note_on_c, 0, 62, 0
2, 205973, Note_on_c, 0, 74, 0
2, 205985, Note_on_c, 0, 83, 76
2, 205995, Note_on_c, 0, 59, 0
2, 206030, Note_on_c, 0, 68, 0
2, 206038, Note_on_c, 0, 59, 101
2, 206038, Note_on_c, 0, 87, 97
2, 206050, Note_on_c, 0, 83, 0
2, 206110, Note_on_c, 0, 87, 0
2, 206111, Note_on_c, 0, 79, 65
2, 206151, Note_on_c, 0, 67, 108
2, 206161, Note_on_c, 0, 73, 96
2, 206181, Note_on_c, 0, 79, 0
2, 206183, Note_on_c, 0, 59, 0
2, 206216, Note_on_c, 0, 82, 99
2, 206237, Note_on_c, 0, 73, 0
2, 206258, Note_on_c, 0, 67, 0
2, 206275, Note_on_c, 0, 59, 118
2, 206280, Note_on_c, 0, 86, 99
2, 206295, Note_on_c, 0, 82, 0
2, 206337, Note_on_c, 0, 78, 103
2, 206340, Note_on_c, 0, 86, 0
2, 206385, Note_on_c, 0, 66, 114
2, 206391, Note_on_c, 0, 72, 66
2, 206404, Note_on_c, 0, 59, 0
2, 206424, Note_on_c, 0, 78, 0
2, 206446, Note_on_c, 0, 72, 0
2, 206447, Note_on_c, 0, 66, 0
2, 206447, Note_on_c, 0, 81, 91
2, 206470, Note_on_c, 0, 59, 99
2, 206491, Note_on_c, 0, 85, 107
2, 206507, Note_on_c, 0, 81, 0
2, 206544, Note_on_c, 0, 77, 85
2, 206545, Note_on_c, 0, 85, 0
2, 206586, Note_on_c, 0, 65, 117
2, 206594, Note_on_c, 0, 71, 72
2, 206595, Note_on_c, 0, 59, 0
2, 206614, Note_on_c, 0, 77, 0
2, 206640, Note_on_c, 0, 71, 0
2, 206651, Note_on_c, 0, 80, 100
2, 206704, Note_on_c, 0, 65, 0
2, 206707, Note_on_c, 0, 84, 93
2, 206713, Note_on_c, 0, 80, 0
2, 206719, Note_on_c, 0, 59, 121
2, 206768, Note_on_c, 0, 84, 0
2, 206781, Note_on_c, 0, 76, 71
2, 206848, Note_on_c, 0, 64, 122
2, 206858, Note_on_c, 0, 70, 95
2, 206869, Note_on_c, 0, 59, 0
2, 206881, Note_on_c, 0, 76, 0
2, 206905, Note_on_c, 0, 70, 0
2, 206926, Note_on_c, 0, 79, 70
2, 206998, Note_on_c, 0, 64, 0
2, 207003, Note_on_c, 0, 63, 114
2, 207004, Control_c, 0, 64, 63
2, 207004, Note_on_c, 0, 83, 112
2, 207004, Note_on_c, 0, 59, 97
2, 207008, Note_on_c, 0, 79, 0
2, 207050, Control_c, 0, 64, 127
2, 207108, Note_on_c, 0, 75, 100
2, 207113, Note_on_c, 0, 83, 0
2, 207179, Note_on_c, 0, 75, 0
2, 207182, Note_on_c, 0, 63, 0
2, 207183, Note_on_c, 0, 69, 77
2, 207215, Note_on_c, 0, 59, 0
2, 207223, Note_on_c, 0, 69, 0
2, 207244, Note_on_c, 0, 66, 108
2, 207287, Note_on_c, 0, 66, 0
2, 207305, Note_on_c, 0, 71, 100
2, 207362, Note_on_c, 0, 71, 0
2, 207373, Note_on_c, 0, 63, 108
2, 207413, Note_on_c, 0, 63, 0
2, 207432, Note_on_c, 0, 57, 64
2, 207454, Note_on_c, 0, 57, 0
2, 207483, Note_on_c, 0, 54, 103
2, 207527, Note_on_c, 0, 54, 0
2, 207533, Note_on_c, 0, 59, 97
2, 207582, Note_on_c, 0, 54, 103
2, 207590, Note_on_c, 0, 59, 0
2, 207634, Note_on_c, 0, 51, 98
2, 207639, Note_on_c, 0, 54, 0
2, 207669, Note_on_c, 0, 45, 81
2, 207673, Note_on_c, 0, 51, 0
2, 207703, Note_on_c, 0, 45, 0
2, 207732, Note_on_c, 0, 52, 113
2, 207733, Note_on_c, 0, 36, 84
2, 207734, Note_on_c, 0, 48, 106
2, 207741, Control_c, 0, 64, 63
2, 207746, Control_c, 0, 64, 0
2, 207772, Control_c, 0, 64, 63
2, 207780, Control_c, 0, 64, 127
2, 207791, Note_on_c, 0, 57, 96
2, 207798, Note_on_c, 0, 52, 0
2, 207836, Note_on_c, 0, 54, 104
2, 207845, Note_on_c, 0, 57, 0
2, 207871, Note_on_c, 0, 54, 0
2, 207886, Note_on_c, 0, 57, 92
2, 207931, Note_on_c, 0, 57, 0
2, 207954, Note_on_c, 0, 64, 107
2, 208001, Note_on_c, 0, 69, 97
2, 208011, Note_on_c, 0, 64, 0
2, 208053, Note_on_c, 0, 66, 107
2, 208060, Note_on_c, 0, 69, 0
2, 208083, Note_on_c, 0, 66, 0
2, 208107, Note_on_c, 0, 69, 84
2, 208145, Note_on_c, 0, 69, 0
2, 208172, Note_on_c, 0, 76, 112
2, 208212, Note_on_c, 0, 48, 0
2, 208223, Note_on_c, 0, 81, 107
2, 208226, Note_on_c, 0, 36, 0
2, 208230, Note_on_c, 0, 76, 0
2, 208273, Note_on_c, 0, 78, 112
2, 208285, Note_on_c, 0, 81, 0
2, 208316, Note_on_c, 0, 81, 112
2, 208322, Note_on_c, 0, 78, 0
2, 208350, Note_on_c, 0, 81, 0
2, 208377, Control_c, 0, 64, 63
2, 208380, Note_on_c, 0, 83, 103
2, 208383, Note_on_c, 0, 47, 112
2, 208383, Note_on_c, 0, 35, 104
2, 208384, Control_c, 0, 64, 0
2, 208397, Control_c, 0, 64, 63
2, 208412, Control_c, 0, 64, 127
2, 208463, Note_on_c, 0, 83, 0
2, 208491, Note_on_c, 0, 75, 110
2, 208545, Note_on_c, 0, 75, 0
2, 208557, Note_on_c, 0, 69, 77
2, 208587, Note_on_c, 0, 69, 0
2, 208612, Note_on_c, 0, 66, 109
2, 208652, Note_on_c, 0, 66, 0
2, 208665, Note_on_c, 0, 71, 99
2, 208718, Note_on_c, 0, 71, 0
2, 208719, Note_on_c, 0, 63, 106
2, 208740, Note_on_c, 0, 47, 0
2, 208760, Note_on_c, 0, 63, 0
2, 208772, Note_on_c, 0, 57, 79
2, 208804, Note_on_c, 0, 57, 0
2, 208824, Note_on_c, 0, 54, 106
2, 208872, Note_on_c, 0, 54, 0
2, 208883, Note_on_c, 0, 59, 93
2, 208942, Note_on_c, 0, 54, 103
2, 208955, Note_on_c, 0, 59, 0
2, 209009, Note_on_c, 0, 51, 104
2, 209018, Note_on_c, 0, 35, 0
2, 209023, Note_on_c, 0, 54, 0
2, 209058, Note_on_c, 0, 51, 0
2, 209059, Note_on_c, 0, 45, 92
2, 209097, Note_on_c, 0, 45, 0
2, 209164, Note_on_c, 0, 33, 100
2, 209165, Note_on_c, 0, 45, 112
2, 209165, Note_on_c, 0, 52, 112
2, 209182, Control_c, 0, 64, 63
2, 209189, Control_c, 0, 64, 0
2, 209217, Control_c, 0, 64, 63
2, 209228, Control_c, 0, 64, 127
2, 209286, Note_on_c, 0, 60, 106
2, 209291, Note_on_c, 0, 52, 0
2, 209353, Note_on_c, 0, 60, 0
2, 209355, Note_on_c, 0, 54, 105
2, 209388, Note_on_c, 0, 54, 0
2, 209410, Note_on_c, 0, 57, 92
2, 209450, Note_on_c, 0, 57, 0
2, 209474, Note_on_c, 0, 64, 106
2, 209519, Note_on_c, 0, 64, 0
2, 209531, Note_on_c, 0, 72, 103
2, 209580, Note_on_c, 0, 72, 0
2, 209587, Note_on_c, 0, 66, 112
2, 209618, Note_on_c, 0, 66, 0
2, 209650, Note_on_c, 0, 69, 94
2, 209696, Note_on_c, 0, 69, 0
2, 209732, Note_on_c, 0, 76, 103
2, 209768, Note_on_c, 0, 76, 0
2, 209812, Note_on_c, 0, 84, 101
2, 209855, Note_on_c, 0, 84, 0
2, 209862, Note_on_c, 0, 45, 0
2, 209903, Note_on_c, 0, 78, 114
2, 209911, Note_on_c, 0, 33, 0
2, 209936, Note_on_c, 0, 78, 0
2, 209999, Note_on_c, 0, 81, 111
2, 210033, Note_on_c, 0, 81, 0
2, 210180, Note_on_c, 0, 42, 114
2, 210181, Note_on_c, 0, 30, 106
2, 210200, Note_on_c, 0, 100, 106
2, 210241, Control_c, 0, 64, 63
2, 210246, Control_c, 0, 64, 0
2, 210292, Control_c, 0, 64, 63
2, 210298, Control_c, 0, 64, 127
2, 210337, Note_on_c, 0, 100, 0
2, 210366, Note_on_c, 0, 30, 0
2, 210405, Note_on_c, 0, 42, 0
2, 210493, Note_on_c, 0, 96, 104
2, 210562, Note_on_c, 0, 96, 0
2, 210585, Note_on_c, 0, 93, 93
2, 210662, Note_on_c, 0, 90, 103
2, 210674, Note_on_c, 0, 93, 0
2, 210681, Note_on_c, 0, 54, 88
2, 210724, Note_on_c, 0, 54, 0
2, 210740, Note_on_c, 0, 60, 70
2, 210759, Note_on_c, 0, 88, 84
2, 210760, Note_on_c, 0, 90, 0
2, 210783, Note_on_c, 0, 64, 72
2, 210816, Note_on_c, 0, 69, 94
2, 210892, Note_on_c, 0, 88, 0
2, 210892, Note_on_c, 0, 84, 86
2, 210925, Note_on_c, 0, 84, 0
2, 210961, Note_on_c, 0, 60, 0
2, 210964, Note_on_c, 0, 81, 76
2, 211013, Note_on_c, 0, 81, 0
2, 211016, Note_on_c, 0, 78, 98
2, 211039, Note_on_c, 0, 69, 0
2, 211078, Note_on_c, 0, 76, 92
2, 211080, Note_on_c, 0, 78, 0
2, 211122, Note_on_c, 0, 76, 0
2, 211129, Note_on_c, 0, 72, 90
2, 211162, Note_on_c, 0, 72, 0
2, 211189, Note_on_c, 0, 69, 89
2, 211195, Note_on_c, 0, 64, 0
2, 211241, Note_on_c, 0, 69, 0
2, 211244, Note_on_c, 0, 66, 99
2, 211298, Note_on_c, 0, 66, 0
2, 211302, Note_on_c, 0, 64, 82
2, 211353, Note_on_c, 0, 64, 0
2, 211360, Note_on_c, 0, 60, 87
2, 211401, Note_on_c, 0, 60, 0
2, 211434, Note_on_c, 0, 57, 81
2, 211498, Note_on_c, 0, 54, 88
2, 211502, Note_on_c, 0, 57, 0
2, 211561, Note_on_c, 0, 54, 0
2, 211570, Note_on_c, 0, 52, 75
2, 211631, Note_on_c, 0, 52, 0
2, 211647, Note_on_c, 0, 48, 62
2, 211744, Note_on_c, 0, 48, 0
2, 211751, Note_on_c, 0, 45, 61
2, 211856, Note_on_c, 0, 42, 51
2, 212015, Note_on_c, 0, 40, 61
2, 212045, Note_on_c, 0, 42, 0
2, 212046, Note_on_c, 0, 75, 75
2, 212085, Control_c, 0, 64, 63
2, 212087, Note_on_c, 0, 45, 0
2, 212123, Control_c, 0, 64, 127
2, 212172, Note_on_c, 0, 76, 76
2, 212201, Note_on_c, 0, 75, 0
2, 212261, Note_on_c, 0, 75, 83
2, 212279, Note_on_c, 0, 76, 0
2, 212289, Note_on_c, 0, 40, 0
2, 212315, Note_on_c, 0, 73, 79
2, 212331, Note_on_c, 0, 75, 0
2, 212384, Note_on_c, 0, 75, 75
2, 212411, Note_on_c, 0, 73, 0
2, 212464, Note_on_c, 0, 36, 54
2, 212489, Note_on_c, 0, 76, 63
2, 212490, Note_on_c, 0, 75, 0
2, 212544, Control_c, 0, 64, 63
2, 212630, Control_c, 0, 64, 0
2, 212799, Control_c, 0, 64, 63
2, 212805, Control_c, 0, 64, 127
2, 212840, Note_on_c, 0, 76, 0
2, 212841, Note_on_c, 0, 78, 63
2, 212883, Note_on_c, 0, 36, 0
2, 212968, Note_on_c, 0, 78, 0
2, 213058, Note_on_c, 0, 35, 36
2, 213064, Note_on_c, 0, 78, 55
2, 213366, Control_c, 0, 64, 63
2, 213368, Control_c, 0, 64, 127
2, 213414, Control_c, 0, 64, 63
2, 213426, Control_c, 0, 64, 0
2, 213443, Control_c, 0, 64, 63
2, 213452, Control_c, 0, 64, 127
2, 213538, Note_on_c, 0, 35, 0
2, 213567, Note_on_c, 0, 78, 0
2, 213783, Note_on_c, 0, 47, 41
2, 213872, Note_on_c, 0, 54, 52
2, 213946, Note_on_c, 0, 57, 26
2, 213986, Note_on_c, 0, 47, 0
2, 214011, Note_on_c, 0, 63, 43
2, 214031, Note_on_c, 0, 54, 0
2, 214056, Note_on_c, 0, 57, 0
2, 214104, Note_on_c, 0, 63, 0
2, 214118, Note_on_c, 0, 69, 44
2, 215477, Note_on_c, 0, 68, 49
2, 215514, Note_on_c, 0, 69, 0
2, 215743, Note_on_c, 0, 69, 38
2, 215778, Note_on_c, 0, 68, 0
2, 215933, Note_on_c, 0, 68, 51
2, 215985, Note_on_c, 0, 69, 0
2, 216084, Note_on_c, 0, 66, 58
2, 216109, Note_on_c, 0, 68, 0
2, 216223, Note_on_c, 0, 68, 65
2, 216235, Note_on_c, 0, 66, 0
2, 216358, Note_on_c, 0, 69, 57
2, 216362, Note_on_c, 0, 68, 0
2, 216459, Note_on_c, 0, 40, 55
2, 216531, Control_c, 0, 64, 63
2, 216545, Note_on_c, 0, 71, 65
2, 216547, Note_on_c, 0, 69, 0
2, 216557, Control_c, 0, 64, 0
2, 216658, Control_c, 0, 64, 63
2, 216670, Control_c, 0, 64, 127
2, 216780, Note_on_c, 0, 71, 0
2, 216782, Note_on_c, 0, 40, 0
2, 216782, Note_on_c, 0, 52, 35
2, 216832, Note_on_c, 0, 52, 0
2, 216995, Note_on_c, 0, 59, 50
2, 216998, Note_on_c, 0, 71, 59
2, 217151, Note_on_c, 0, 71, 0
2, 217157, Note_on_c, 0, 59, 0
2, 217161, Note_on_c, 0, 68, 61
2, 217237, Note_on_c, 0, 68, 0
2, 217318, Note_on_c, 0, 73, 80
2, 217323, Note_on_c, 0, 69, 40
2, 217447, Note_on_c, 0, 69, 0
2, 217480, Note_on_c, 0, 59, 55
2, 217544, Note_on_c, 0, 73, 0
2, 217564, Note_on_c, 0, 75, 88
2, 217639, Note_on_c, 0, 75, 0
2, 217649, Note_on_c, 0, 52, 38
2, 217652, Note_on_c, 0, 76, 84
2, 217693, Control_c, 0, 64, 63
2, 217695, Note_on_c, 0, 59, 0
2, 217711, Control_c, 0, 64, 127
2, 217802, Note_on_c, 0, 59, 54
2, 217813, Note_on_c, 0, 52, 0
2, 217849, Note_on_c, 0, 76, 0
2, 217861, Note_on_c, 0, 59, 0
2, 217946, Note_on_c, 0, 68, 67
2, 217949, Note_on_c, 0, 76, 87
2, 218083, Note_on_c, 0, 59, 67
2, 218095, Note_on_c, 0, 68, 0
2, 218119, Note_on_c, 0, 76, 0
2, 218214, Note_on_c, 0, 78, 93
2, 218221, Note_on_c, 0, 59, 0
2, 218221, Note_on_c, 0, 69, 49
2, 218354, Note_on_c, 0, 59, 82
2, 218359, Note_on_c, 0, 69, 0
2, 218377, Note_on_c, 0, 78, 0
2, 218406, Note_on_c, 0, 59, 0
2, 218535, Note_on_c, 0, 52, 42
2, 218543, Note_on_c, 0, 80, 80
2, 218591, Control_c, 0, 64, 63
2, 218606, Control_c, 0, 64, 0
2, 218624, Control_c, 0, 64, 63
2, 218645, Control_c, 0, 64, 127
2, 218734, Note_on_c, 0, 59, 61
2, 218750, Note_on_c, 0, 52, 0
2, 218782, Note_on_c, 0, 59, 0
2, 218802, Note_on_c, 0, 80, 0
2, 218901, Note_on_c, 0, 78, 73
2, 218913, Note_on_c, 0, 71, 34
2, 218979, Note_on_c, 0, 71, 0
2, 219068, Note_on_c, 0, 59, 57
2, 219071, Note_on_c, 0, 76, 56
2, 219084, Note_on_c, 0, 78, 0
2, 219209, Note_on_c, 0, 75, 65
2, 219222, Note_on_c, 0, 76, 0
2, 219224, Note_on_c, 0, 59, 0
2, 219233, Note_on_c, 0, 56, 34
2, 219350, Note_on_c, 0, 59, 38
2, 219351, Note_on_c, 0, 73, 54
2, 219358, Note_on_c, 0, 75, 0
2, 219360, Note_on_c, 0, 56, 0
2, 219500, Note_on_c, 0, 75, 69
2, 219500, Note_on_c, 0, 47, 28
2, 219530, Note_on_c, 0, 73, 0
2, 219535, Note_on_c, 0, 59, 0
2, 219566, Control_c, 0, 64, 63
2, 219576, Control_c, 0, 64, 0
2, 219634, Control_c, 0, 64, 63
2, 219643, Control_c, 0, 64, 127
2, 219645, Note_on_c, 0, 54, 54
2, 219718, Note_on_c, 0, 47, 0
2, 219778, Note_on_c, 0, 59, 58
2, 219789, Note_on_c, 0, 54, 0
2, 219894, Note_on_c, 0, 59, 0
2, 219912, Note_on_c, 0, 54, 63
2, 220022, Note_on_c, 0, 54, 0
2, 220073, Note_on_c, 0, 63, 55
2, 220125, Note_on_c, 0, 75, 0
2, 220143, Note_on_c, 0, 63, 0
2, 220231, Note_on_c, 0, 51, 59
2, 220401, Note_on_c, 0, 45, 54
2, 220416, Note_on_c, 0, 51, 0
2, 220456, Note_on_c, 0, 73, 76
2, 220487, Control_c, 0, 64, 63
2, 220503, Control_c, 0, 64, 0
2, 220524, Control_c, 0, 64, 63
2, 220548, Control_c, 0, 64, 127
2, 220642, Note_on_c, 0, 45, 0
2, 220652, Note_on_c, 0, 52, 57
2, 220675, Note_on_c, 0, 73, 0
2, 220732, Note_on_c, 0, 52, 0
2, 220794, Note_on_c, 0, 73, 91
2, 220809, Note_on_c, 0, 61, 44
2, 220891, Note_on_c, 0, 61, 0
2, 220893, Note_on_c, 0, 73, 0
2, 220947, Note_on_c, 0, 51, 58
2, 221013, Control_c, 0, 64, 63
2, 221018, Note_on_c, 0, 44, 60
2, 221030, Control_c, 0, 64, 127
2, 221102, Note_on_c, 0, 44, 0
2, 221136, Note_on_c, 0, 71, 74
2, 221150, Note_on_c, 0, 51, 0
2, 221154, Note_on_c, 0, 59, 55
2, 221321, Note_on_c, 0, 59, 0
2, 221340, Note_on_c, 0, 52, 75
2, 221404, Note_on_c, 0, 71, 0
2, 221409, Note_on_c, 0, 68, 76
2, 221418, Note_on_c, 0, 52, 0
2, 221497, Note_on_c, 0, 42, 72
2, 221509, Note_on_c, 0, 71, 80
2, 221519, Note_on_c, 0, 68, 0
2, 221559, Control_c, 0, 64, 63
2, 221563, Control_c, 0, 64, 0
2, 221642, Control_c, 0, 64, 63
2, 221649, Control_c, 0, 64, 127
2, 221679, Note_on_c, 0, 49, 50
2, 221748, Note_on_c, 0, 42, 0
2, 221805, Note_on_c, 0, 51, 73
2, 221816, Note_on_c, 0, 69, 75
2, 221837, Note_on_c, 0, 49, 0
2, 221853, Note_on_c, 0, 71, 0
2, 221956, Note_on_c, 0, 59, 52
2, 222074, Note_on_c, 0, 51, 0
2, 222094, Note_on_c, 0, 52, 49
2, 222097, Note_on_c, 0, 68, 71
2, 222104, Note_on_c, 0, 59, 0
2, 222137, Control_c, 0, 64, 63
2, 222148, Control_c, 0, 64, 0
2, 222152, Note_on_c, 0, 69, 0
2, 222185, Control_c, 0, 64, 63
2, 222200, Control_c, 0, 64, 127
2, 222255, Note_on_c, 0, 59, 44
2, 222309, Note_on_c, 0, 68, 0
2, 222337, Note_on_c, 0, 59, 0
2, 222428, Note_on_c, 0, 45, 42
2, 222451, Note_on_c, 0, 68, 72
2, 222475, Note_on_c, 0, 52, 0
2, 222525, Control_c, 0, 64, 63
2, 222540, Control_c, 0, 64, 0
2, 222565, Control_c, 0, 64, 63
2, 222584, Control_c, 0, 64, 127
2, 222666, Note_on_c, 0, 45, 0
2, 222677, Note_on_c, 0, 52, 42
2, 222822, Note_on_c, 0, 54, 60
2, 222857, Note_on_c, 0, 52, 0
2, 222951, Note_on_c, 0, 66, 79
2, 222967, Note_on_c, 0, 52, 46
2, 223007, Note_on_c, 0, 68, 0
2, 223063, Note_on_c, 0, 54, 0
2, 223093, Note_on_c, 0, 64, 65
2, 223098, Note_on_c, 0, 52, 0
2, 223102, Note_on_c, 0, 61, 55
2, 223105, Note_on_c, 0, 66, 0
2, 223198, Note_on_c, 0, 61, 0
2, 223245, Note_on_c, 0, 51, 55
2, 223247, Note_on_c, 0, 66, 68
2, 223280, Note_on_c, 0, 64, 0
2, 223398, Control_c, 0, 64, 63
2, 223400, Note_on_c, 0, 44, 52
2, 223405, Control_c, 0, 64, 0
2, 223430, Note_on_c, 0, 63, 56
2, 223457, Note_on_c, 0, 51, 0
2, 223488, Note_on_c, 0, 66, 0
2, 223492, Control_c, 0, 64, 63
2, 223500, Control_c, 0, 64, 127
2, 223605, Note_on_c, 0, 51, 55
2, 223772, Note_on_c, 0, 60, 54
2, 223865, Note_on_c, 0, 51, 0
2, 223921, Note_on_c, 0, 60, 0
2, 223971, Note_on_c, 0, 51, 47
2, 223993, Note_on_c, 0, 44, 0
2, 224146, Note_on_c, 0, 42, 34
2, 224175, Note_on_c, 0, 59, 52
2, 224207, Control_c, 0, 64, 63
2, 224214, Note_on_c, 0, 51, 0
2, 224230, Control_c, 0, 64, 127
2, 224326, Note_on_c, 0, 42, 0
2, 224406, Note_on_c, 0, 59, 0
2, 224458, Note_on_c, 0, 63, 0
2, 224462, Note_on_c, 0, 57, 31
2, 224573, Note_on_c, 0, 57, 0
2, 224608, Note_on_c, 0, 64, 39
2, 224764, Note_on_c, 0, 64, 0
2, 224805, Note_on_c, 0, 40, 39
2, 224863, Note_on_c, 0, 64, 48
2, 224872, Note_on_c, 0, 56, 42
2, 224972, Control_c, 0, 64, 63
2, 225002, Control_c, 0, 64, 127
2, 225126, Note_on_c, 0, 40, 0
2, 225133, Note_on_c, 0, 56, 0
2, 225137, Note_on_c, 0, 59, 40
2, 225201, Note_on_c, 0, 59, 0
2, 225238, Note_on_c, 0, 64, 0
2, 225325, Note_on_c, 0, 64, 61
2, 225350, Note_on_c, 0, 68, 67
2, 225475, Note_on_c, 0, 68, 0
2, 225493, Note_on_c, 0, 59, 61
2, 225538, Note_on_c, 0, 64, 0
2, 225621, Note_on_c, 0, 66, 79
2, 225625, Note_on_c, 0, 69, 87
2, 225698, Note_on_c, 0, 59, 0
2, 225758, Note_on_c, 0, 59, 77
2, 225807, Note_on_c, 0, 69, 0
2, 225871, Note_on_c, 0, 68, 72
2, 225880, Note_on_c, 0, 71, 83
2, 225909, Note_on_c, 0, 66, 0
2, 225953, Note_on_c, 0, 59, 0
2, 225997, Note_on_c, 0, 71, 0
2, 225998, Note_on_c, 0, 73, 79
2, 226017, Note_on_c, 0, 59, 41
2, 226044, Note_on_c, 0, 71, 71
2, 226051, Note_on_c, 0, 73, 0
2, 226069, Note_on_c, 0, 68, 0
2, 226091, Note_on_c, 0, 70, 88
2, 226102, Note_on_c, 0, 71, 0
2, 226136, Note_on_c, 0, 71, 80
2, 226137, Note_on_c, 0, 70, 0
2, 226200, Note_on_c, 0, 69, 51
2, 226215, Control_c, 0, 64, 63
2, 226215, Note_on_c, 0, 73, 70
2, 226220, Note_on_c, 0, 71, 0
2, 226226, Control_c, 0, 64, 0
2, 226301, Control_c, 0, 64, 63
2, 226307, Control_c, 0, 64, 127
2, 226363, Note_on_c, 0, 59, 0
2, 226408, Note_on_c, 0, 59, 60
2, 226417, Note_on_c, 0, 73, 0
2, 226417, Note_on_c, 0, 75, 89
2, 226478, Note_on_c, 0, 69, 0
2, 226546, Note_on_c, 0, 76, 90
2, 226560, Note_on_c, 0, 59, 0
2, 226560, Note_on_c, 0, 69, 60
2, 226562, Note_on_c, 0, 75, 0
2, 226627, Note_on_c, 0, 69, 0
2, 226667, Note_on_c, 0, 59, 56
2, 226683, Note_on_c, 0, 78, 97
2, 226711, Note_on_c, 0, 76, 0
2, 226790, Note_on_c, 0, 52, 91
2, 226831, Control_c, 0, 64, 63
2, 226836, Control_c, 0, 64, 0
2, 226849, Note_on_c, 0, 80, 81
2, 226858, Note_on_c, 0, 59, 0
2, 226871, Note_on_c, 0, 78, 0
2, 226884, Control_c, 0, 64, 63
2, 226894, Control_c, 0, 64, 127
2, 227011, Note_on_c, 0, 80, 0
2, 227013, Note_on_c, 0, 59, 76
2, 227029, Note_on_c, 0, 52, 0
2, 227064, Note_on_c, 0, 59, 0
2, 227183, Note_on_c, 0, 78, 81
2, 227196, Note_on_c, 0, 71, 61
2, 227282, Note_on_c, 0, 71, 0
2, 227315, Note_on_c, 0, 80, 77
2, 227344, Note_on_c, 0, 78, 0
2, 227395, Note_on_c, 0, 78, 70
2, 227409, Note_on_c, 0, 59, 57
2, 227416, Note_on_c, 0, 80, 0
2, 227469, Note_on_c, 0, 76, 60
2, 227470, Note_on_c, 0, 78, 0
2, 227510, Note_on_c, 0, 78, 71
2, 227526, Note_on_c, 0, 76, 0
2, 227572, Note_on_c, 0, 80, 57
2, 227581, Note_on_c, 0, 78, 0
2, 227616, Note_on_c, 0, 80, 0
2, 227618, Note_on_c, 0, 56, 50
2, 227624, Note_on_c, 0, 59, 0
2, 227626, Note_on_c, 0, 76, 47
2, 227675, Note_on_c, 0, 75, 64
2, 227681, Note_on_c, 0, 76, 0
2, 227726, Note_on_c, 0, 75, 0
2, 227738, Note_on_c, 0, 76, 56
2, 227780, Note_on_c, 0, 75, 55
2, 227795, Note_on_c, 0, 76, 0
2, 227813, Note_on_c, 0, 59, 43
2, 227837, Note_on_c, 0, 73, 61
2, 227839, Note_on_c, 0, 75, 0
2, 227888, Note_on_c, 0, 56, 0
2, 227897, Note_on_c, 0, 75, 67
2, 227920, Note_on_c, 0, 73, 0
2, 227950, Note_on_c, 0, 76, 68
2, 227966, Note_on_c, 0, 75, 0
2, 228020, Note_on_c, 0, 73, 72
2, 228029, Note_on_c, 0, 76, 0
2, 228067, Note_on_c, 0, 47, 52
2, 228120, Note_on_c, 0, 59, 0
2, 228147, Note_on_c, 0, 75, 66
2, 228149, Note_on_c, 0, 73, 0
2, 228209, Control_c, 0, 64, 63
2, 228225, Control_c, 0, 64, 0
2, 228283, Control_c, 0, 64, 63
2, 228294, Control_c, 0, 64, 127
2, 228312, Note_on_c, 0, 54, 43
2, 228395, Note_on_c, 0, 47, 0
2, 228448, Note_on_c, 0, 59, 58
2, 228468, Note_on_c, 0, 54, 0
2, 228576, Note_on_c, 0, 59, 0
2, 228577, Note_on_c, 0, 54, 70
2, 228683, Note_on_c, 0, 54, 0
2, 228708, Note_on_c, 0, 63, 72
2, 228778, Note_on_c, 0, 63, 0
2, 228832, Note_on_c, 0, 51, 76
2, 228985, Note_on_c, 0, 45, 71
2, 228988, Note_on_c, 0, 51, 0
2, 228996, Control_c, 0, 64, 63
2, 229001, Control_c, 0, 64, 0
2, 229081, Control_c, 0, 64, 63
2, 229089, Control_c, 0, 64, 127
2, 229147, Note_on_c, 0, 52, 44
2, 229150, Note_on_c, 0, 45, 0
2, 229163, Note_on_c, 0, 73, 77
2, 229190, Note_on_c, 0, 75, 0
2, 229225, Note_on_c, 0, 73, 0
2, 229248, Note_on_c, 0, 52, 0
2, 229351, Note_on_c, 0, 61, 55
2, 229366, Note_on_c, 0, 75, 76
2, 229408, Note_on_c, 0, 75, 0
2, 229497, Note_on_c, 0, 61, 0
2, 229555, Note_on_c, 0, 51, 40
2, 229589, Note_on_c, 0, 73, 60
2, 229682, Note_on_c, 0, 71, 58
2, 229687, Note_on_c, 0, 73, 0
2, 229729, Note_on_c, 0, 71, 0
2, 229753, Note_on_c, 0, 59, 52
2, 229766, Note_on_c, 0, 71, 68
2, 229802, Control_c, 0, 64, 63
2, 229809, Control_c, 0, 64, 127
2, 229868, Note_on_c, 0, 51, 0
2, 229915, Note_on_c, 0, 52, 64
2, 229917, Note_on_c, 0, 59, 0
2, 229981, Note_on_c, 0, 52, 0
2, 230083, Note_on_c, 0, 42, 61
2, 230166, Control_c, 0, 64, 63
2, 230193, Control_c, 0, 64, 127
2, 230288, Note_on_c, 0, 49, 60
2, 230344, Note_on_c, 0, 42, 0
2, 230415, Note_on_c, 0, 51, 72
2, 230427, Note_on_c, 0, 69, 63
2, 230463, Note_on_c, 0, 71, 0
2, 230530, Note_on_c, 0, 49, 0
2, 230555, Note_on_c, 0, 59, 55
2, 230670, Note_on_c, 0, 51, 0
2, 230689, Note_on_c, 0, 52, 65
2, 230689, Note_on_c, 0, 68, 82
2, 230704, Note_on_c, 0, 59, 0
2, 230708, Control_c, 0, 64, 63
2, 230713, Note_on_c, 0, 69, 0
2, 230753, Control_c, 0, 64, 127
2, 230847, Note_on_c, 0, 59, 63
2, 230872, Note_on_c, 0, 68, 0
2, 230881, Note_on_c, 0, 59, 0
2, 230906, Note_on_c, 0, 52, 0
2, 231017, Note_on_c, 0, 68, 73
2, 231041, Note_on_c, 0, 35, 71
2, 231088, Control_c, 0, 64, 63
2, 231123, Control_c, 0, 64, 127
2, 231209, Note_on_c, 0, 35, 0
2, 231236, Note_on_c, 0, 66, 73
2, 231236, Note_on_c, 0, 47, 68
2, 231254, Note_on_c, 0, 68, 0
2, 231277, Note_on_c, 0, 47, 0
2, 231390, Note_on_c, 0, 66, 0
2, 231391, Note_on_c, 0, 54, 47
2, 231406, Note_on_c, 0, 75, 81
2, 231544, Note_on_c, 0, 73, 79
2, 231549, Note_on_c, 0, 75, 0
2, 231549, Note_on_c, 0, 57, 47
2, 231597, Note_on_c, 0, 54, 0
2, 231691, Note_on_c, 0, 69, 57
2, 231699, Note_on_c, 0, 61, 52
2, 231707, Note_on_c, 0, 57, 0
2, 231720, Note_on_c, 0, 73, 0
2, 231832, Note_on_c, 0, 61, 0
2, 231859, Note_on_c, 0, 63, 58
2, 231871, Note_on_c, 0, 69, 0
2, 231872, Note_on_c, 0, 59, 40
2, 231941, Note_on_c, 0, 59, 0
2, 232059, Note_on_c, 0, 40, 48
2, 232060, Note_on_c, 0, 64, 60
2, 232072, Note_on_c, 0, 63, 0
2, 232181, Control_c, 0, 64, 63
2, 232207, Control_c, 0, 64, 0
2, 232232, Note_on_c, 0, 47, 48
2, 232239, Control_c, 0, 64, 63
2, 232263, Control_c, 0, 64, 127
2, 232328, Note_on_c, 0, 40, 0
2, 232391, Note_on_c, 0, 47, 0
2, 232397, Note_on_c, 0, 52, 42
2, 232535, Note_on_c, 0, 56, 42
2, 232536, Note_on_c, 0, 52, 0
2, 232716, Note_on_c, 0, 59, 42
2, 232727, Note_on_c, 0, 64, 0
2, 232738, Note_on_c, 0, 56, 0
2, 232934, Note_on_c, 0, 52, 32
2, 233027, Note_on_c, 0, 59, 0
2, 233191, Note_on_c, 0, 47, 31
2, 233232, Note_on_c, 0, 63, 34
2, 233273, Note_on_c, 0, 52, 0
2, 233378, Control_c, 0, 64, 63
2, 233391, Control_c, 0, 64, 0
2, 233443, Note_on_c, 0, 54, 46
2, 233444, Control_c, 0, 64, 63
2, 233456, Control_c, 0, 64, 127
2, 233534, Note_on_c, 0, 63, 0
2, 233642, Note_on_c, 0, 59, 24
2, 233650, Note_on_c, 0, 75, 59
2, 233655, Note_on_c, 0, 63, 36
2, 233687, Note_on_c, 0, 54, 0
2, 233747, Note_on_c, 0, 63, 0
2, 233790, Note_on_c, 0, 75, 0
2, 233831, Note_on_c, 0, 54, 43
2, 233887, Note_on_c, 0, 59, 0
2, 233910, Note_on_c, 0, 54, 0
2, 233964, Note_on_c, 0, 76, 72
2, 233969, Note_on_c, 0, 55, 41
2, 233975, Note_on_c, 0, 64, 36
2, 234091, Note_on_c, 0, 64, 0
2, 234094, Note_on_c, 0, 59, 45
2, 234114, Note_on_c, 0, 76, 0
2, 234141, Note_on_c, 0, 55, 0
2, 234250, Note_on_c, 0, 51, 52
2, 234258, Note_on_c, 0, 78, 61
2, 234266, Note_on_c, 0, 66, 39
2, 234279, Note_on_c, 0, 59, 0
2, 234318, Control_c, 0, 64, 63
2, 234336, Control_c, 0, 64, 127
2, 234392, Note_on_c, 0, 54, 54
2, 234453, Note_on_c, 0, 51, 0
2, 234469, Note_on_c, 0, 78, 0
2, 234470, Note_on_c, 0, 66, 0
2, 234500, Note_on_c, 0, 47, 0
2, 234533, Note_on_c, 0, 78, 87
2, 234539, Note_on_c, 0, 59, 48
2, 234543, Note_on_c, 0, 66, 62
2, 234563, Note_on_c, 0, 54, 0
2, 234655, Note_on_c, 0, 59, 0
2, 234656, Note_on_c, 0, 66, 0
2, 234658, Note_on_c, 0, 78, 0
2, 234668, Note_on_c, 0, 54, 54
2, 234800, Note_on_c, 0, 63, 80
2, 234806, Note_on_c, 0, 78, 90
2, 234807, Note_on_c, 0, 54, 0
2, 234813, Note_on_c, 0, 66, 70
2, 234829, Control_c, 0, 64, 63
2, 234847, Control_c, 0, 64, 127
2, 234905, Note_on_c, 0, 63, 0
2, 234946, Note_on_c, 0, 66, 0
2, 234946, Note_on_c, 0, 51, 65
2, 234965, Note_on_c, 0, 78, 0
2, 235087, Note_on_c, 0, 46, 64
2, 235093, Note_on_c, 0, 52, 66
2, 235119, Note_on_c, 0, 51, 0
2, 235138, Note_on_c, 0, 79, 80
2, 235141, Note_on_c, 0, 67, 41
2, 235164, Control_c, 0, 64, 63
2, 235173, Control_c, 0, 64, 0
2, 235190, Control_c, 0, 64, 63
2, 235210, Control_c, 0, 64, 127
2, 235306, Note_on_c, 0, 67, 0
2, 235316, Note_on_c, 0, 79, 0
2, 235319, Note_on_c, 0, 55, 42
2, 235343, Note_on_c, 0, 52, 0
2, 235351, Note_on_c, 0, 46, 0
2, 235353, Note_on_c, 0, 55, 0
2, 235492, Note_on_c, 0, 78, 82
2, 235495, Note_on_c, 0, 66, 75
2, 235495, Note_on_c, 0, 61, 74
2, 235537, Note_on_c, 0, 66, 0
2, 235542, Note_on_c, 0, 78, 0
2, 235568, Note_on_c, 0, 61, 0
2, 235634, Note_on_c, 0, 55, 43
2, 235642, Note_on_c, 0, 76, 87
2, 235650, Note_on_c, 0, 64, 54
2, 235694, Note_on_c, 0, 76, 0
2, 235702, Note_on_c, 0, 64, 0
2, 235757, Note_on_c, 0, 52, 68
2, 235768, Note_on_c, 0, 55, 0
2, 235769, Note_on_c, 0, 75, 97
2, 235777, Note_on_c, 0, 63, 72
2, 235819, Note_on_c, 0, 63, 0
2, 235823, Note_on_c, 0, 75, 0
2, 235891, Note_on_c, 0, 73, 88
2, 235896, Note_on_c, 0, 61, 73
2, 235905, Note_on_c, 0, 52, 0
2, 235916, Note_on_c, 0, 61, 0
2, 235918, Note_on_c, 0, 55, 40
2, 235929, Note_on_c, 0, 73, 0
2, 236009, Note_on_c, 0, 47, 43
2, 236039, Note_on_c, 0, 76, 84
2, 236045, Note_on_c, 0, 55, 0
2, 236050, Note_on_c, 0, 64, 55
2, 236054, Control_c, 0, 64, 63
2, 236059, Control_c, 0, 64, 0
2, 236170, Control_c, 0, 64, 63
2, 236174, Control_c, 0, 64, 127
2, 236187, Note_on_c, 0, 54, 48
2, 236319, Note_on_c, 0, 59, 50
2, 236339, Note_on_c, 0, 54, 0
2, 236369, Note_on_c, 0, 76, 0
2, 236396, Note_on_c, 0, 64, 0
2, 236441, Note_on_c, 0, 59, 0
2, 236449, Note_on_c, 0, 54, 43
2, 236585, Note_on_c, 0, 75, 48
2, 236590, Note_on_c, 0, 63, 44
2, 236594, Note_on_c, 0, 59, 39
2, 236620, Note_on_c, 0, 54, 0
2, 236663, Control_c, 0, 64, 63
2, 236668, Control_c, 0, 64, 0
2, 236724, Note_on_c, 0, 54, 51
2, 236776, Note_on_c, 0, 59, 0
2, 236819, Note_on_c, 0, 47, 0
2, 236889, Note_on_c, 0, 47, 64
2, 236890, Note_on_c, 0, 54, 0
2, 236942, Control_c, 0, 64, 63
2, 236944, Note_on_c, 0, 75, 0
2, 236944, Control_c, 0, 64, 127
2, 236947, Note_on_c, 0, 63, 0
2, 237090, Note_on_c, 0, 54, 50
2, 237240, Note_on_c, 0, 75, 84
2, 237258, Note_on_c, 0, 59, 34
2, 237264, Note_on_c, 0, 63, 27
2, 237301, Note_on_c, 0, 54, 0
2, 237385, Note_on_c, 0, 63, 0
2, 237389, Note_on_c, 0, 54, 50
2, 237400, Note_on_c, 0, 75, 0
2, 237442, Note_on_c, 0, 59, 0
2, 237462, Note_on_c, 0, 54, 0
2, 237510, Note_on_c, 0, 76, 92
2, 237523, Note_on_c, 0, 55, 57
2, 237523, Note_on_c, 0, 64, 43
2, 237564, Note_on_c, 0, 64, 0
2, 237597, Note_on_c, 0, 76, 0
2, 237625, Note_on_c, 0, 59, 68
2, 237629, Note_on_c, 0, 55, 0
2, 237709, Note_on_c, 0, 47, 0
2, 237749, Note_on_c, 0, 59, 0
2, 237755, Note_on_c, 0, 51, 77
2, 237760, Note_on_c, 0, 78, 90
2, 237762, Note_on_c, 0, 47, 7
2, 237771, Note_on_c, 0, 66, 62
2, 237816, Control_c, 0, 64, 63
2, 237820, Control_c, 0, 64, 0
2, 237875, Control_c, 0, 64, 63
2, 237884, Control_c, 0, 64, 127
2, 237894, Note_on_c, 0, 54, 81
2, 237978, Note_on_c, 0, 66, 0
2, 237981, Note_on_c, 0, 78, 0
2, 238022, Note_on_c, 0, 47, 0
2, 238031, Note_on_c, 0, 78, 99
2, 238033, Note_on_c, 0, 66, 93
2, 238034, Note_on_c, 0, 59, 52
2, 238049, Note_on_c, 0, 51, 0
2, 238069, Note_on_c, 0, 54, 0
2, 238142, Note_on_c, 0, 59, 0
2, 238148, Note_on_c, 0, 54, 84
2, 238170, Note_on_c, 0, 66, 0
2, 238174, Note_on_c, 0, 78, 0
2, 238245, Note_on_c, 0, 54, 0
2, 238282, Note_on_c, 0, 78, 108
2, 238285, Note_on_c, 0, 63, 78
2, 238287, Note_on_c, 0, 66, 101
2, 238316, Note_on_c, 0, 66, 0
2, 238343, Note_on_c, 0, 63, 0
2, 238405, Note_on_c, 0, 78, 0
2, 238428, Note_on_c, 0, 51, 81
2, 238569, Note_on_c, 0, 46, 73
2, 238571, Note_on_c, 0, 52, 79
2, 238607, Note_on_c, 0, 79, 94
2, 238608, Note_on_c, 0, 51, 0
2, 238616, Note_on_c, 0, 67, 61
2, 238646, Control_c, 0, 64, 63
2, 238650, Control_c, 0, 64, 0
2, 238701, Control_c, 0, 64, 63
2, 238709, Control_c, 0, 64, 127
2, 238784, Note_on_c, 0, 67, 0
2, 238788, Note_on_c, 0, 55, 57
2, 238789, Note_on_c, 0, 79, 0
2, 238799, Note_on_c, 0, 52, 0
2, 238806, Note_on_c, 0, 46, 0
2, 238823, Note_on_c, 0, 55, 0
2, 238939, Note_on_c, 0, 78, 87
2, 238946, Note_on_c, 0, 66, 78
2, 238950, Note_on_c, 0, 61, 76
2, 238981, Note_on_c, 0, 78, 0
2, 238987, Note_on_c, 0, 66, 0
2, 239001, Note_on_c, 0, 61, 0
2, 239077, Note_on_c, 0, 55, 41
2, 239077, Note_on_c, 0, 76, 99
2, 239083, Note_on_c, 0, 64, 70
2, 239120, Note_on_c, 0, 76, 0
2, 239126, Note_on_c, 0, 64, 0
2, 239197, Note_on_c, 0, 52, 74
2, 239198, Note_on_c, 0, 75, 101
2, 239204, Note_on_c, 0, 63, 80
2, 239205, Note_on_c, 0, 55, 0
2, 239229, Note_on_c, 0, 63, 0
2, 239246, Note_on_c, 0, 75, 0
2, 239312, Note_on_c, 0, 73, 100
2, 239316, Note_on_c, 0, 61, 98
2, 239327, Note_on_c, 0, 55, 74
2, 239329, Note_on_c, 0, 52, 0
2, 239343, Note_on_c, 0, 61, 0
2, 239347, Note_on_c, 0, 73, 0
2, 239414, Note_on_c, 0, 47, 76
2, 239418, Control_c, 0, 64, 63
2, 239424, Control_c, 0, 64, 0
2, 239447, Note_on_c, 0, 55, 0
2, 239451, Note_on_c, 0, 76, 96
2, 239457, Note_on_c, 0, 64, 79
2, 239490, Control_c, 0, 64, 63
2, 239495, Control_c, 0, 64, 127
2, 239581, Note_on_c, 0, 54, 106
2, 239626, Note_on_c, 0, 76, 0
2, 239650, Note_on_c, 0, 64, 0
2, 239719, Note_on_c, 0, 75, 109
2, 239721, Note_on_c, 0, 59, 80
2, 239723, Note_on_c, 0, 63, 104
2, 239759, Note_on_c, 0, 54, 0
2, 239784, Control_c, 0, 64, 63
2, 239788, Control_c, 0, 64, 0
2, 239828, Control_c, 0, 64, 63
2, 239837, Control_c, 0, 64, 127
2, 239873, Note_on_c, 0, 54, 81
2, 239915, Note_on_c, 0, 63, 0
2, 239931, Note_on_c, 0, 59, 0
2, 239940, Note_on_c, 0, 75, 0
2, 240017, Note_on_c, 0, 57, 86
2, 240029, Control_c, 0, 64, 63
2, 240032, Note_on_c, 0, 76, 101
2, 240033, Control_c, 0, 64, 0
2, 240037, Note_on_c, 0, 64, 84
2, 240070, Control_c, 0, 64, 63
2, 240077, Control_c, 0, 64, 127
2, 240081, Note_on_c, 0, 54, 0
2, 240136, Note_on_c, 0, 47, 0
2, 240162, Note_on_c, 0, 64, 0
2, 240182, Note_on_c, 0, 76, 0
2, 240241, Note_on_c, 0, 57, 0
2, 240259, Note_on_c, 0, 47, 100
2, 240306, Note_on_c, 0, 47, 0
2, 240349, Note_on_c, 0, 78, 108
2, 240351, Note_on_c, 0, 66, 107
2, 240399, Note_on_c, 0, 66, 0
2, 240427, Note_on_c, 0, 78, 0
2, 240440, Note_on_c, 0, 40, 103
2, 240466, Note_on_c, 0, 80, 106
2, 240471, Note_on_c, 0, 68, 95
2, 240527, Control_c, 0, 64, 63
2, 240531, Control_c, 0, 64, 0
2, 240616, Control_c, 0, 64, 63
2, 240619, Control_c, 0, 64, 127
2, 240666, Note_on_c, 0, 40, 0
2, 240670, Note_on_c, 0, 52, 91
2, 240707, Note_on_c, 0, 52, 0
2, 240765, Note_on_c, 0, 68, 0
2, 240819, Note_on_c, 0, 59, 84
2, 240850, Note_on_c, 0, 80, 0
2, 240955, Note_on_c, 0, 64, 92
2, 241069, Note_on_c, 0, 81, 106
2, 241072, Note_on_c, 0, 69, 96
2, 241082, Note_on_c, 0, 66, 98
2, 241092, Note_on_c, 0, 64, 0
2, 241140, Note_on_c, 0, 59, 0
2, 241194, Note_on_c, 0, 59, 96
2, 241200, Note_on_c, 0, 69, 0
2, 241214, Note_on_c, 0, 66, 0
2, 241221, Note_on_c, 0, 81, 0
2, 241314, Note_on_c, 0, 68, 98
2, 241316, Note_on_c, 0, 83, 98
2, 241320, Note_on_c, 0, 71, 89
2, 241354, Control_c, 0, 64, 63
2, 241363, Control_c, 0, 64, 127
2, 241413, Note_on_c, 0, 59, 0
2, 241449, Note_on_c, 0, 59, 84
2, 241460, Note_on_c, 0, 71, 0
2, 241481, Note_on_c, 0, 83, 0
2, 241491, Note_on_c, 0, 68, 0
2, 241594, Note_on_c, 0, 69, 86
2, 241606, Note_on_c, 0, 85, 100
2, 241608, Control_c, 0, 64, 63
2, 241610, Note_on_c, 0, 73, 92
2, 241617, Control_c, 0, 64, 0
2, 241631, Control_c, 0, 64, 63
2, 241647, Control_c, 0, 64, 127
2, 241705, Note_on_c, 0, 59, 0
2, 241724, Note_on_c, 0, 73, 0
2, 241733, Note_on_c, 0, 85, 0
2, 241778, Note_on_c, 0, 59, 93
2, 241785, Note_on_c, 0, 87, 108
2, 241786, Note_on_c, 0, 75, 104
2, 241794, Note_on_c, 0, 69, 0
2, 241822, Note_on_c, 0, 75, 0
2, 241831, Note_on_c, 0, 87, 0
2, 241922, Note_on_c, 0, 88, 98
2, 241925, Note_on_c, 0, 69, 81
2, 241926, Note_on_c, 0, 59, 0
2, 241927, Note_on_c, 0, 76, 84
2, 241945, Note_on_c, 0, 76, 0
2, 241954, Note_on_c, 0, 88, 0
2, 241977, Note_on_c, 0, 69, 0
2, 242039, Note_on_c, 0, 59, 85
2, 242043, Note_on_c, 0, 78, 107
2, 242043, Note_on_c, 0, 90, 110
2, 242116, Note_on_c, 0, 78, 0
2, 242151, Note_on_c, 0, 52, 100
2, 242167, Note_on_c, 0, 90, 0
2, 242211, Note_on_c, 0, 92, 110
2, 242213, Note_on_c, 0, 80, 98
2, 242214, Note_on_c, 0, 59, 0
2, 242225, Control_c, 0, 64, 63
2, 242231, Control_c, 0, 64, 0
2, 242273, Control_c, 0, 64, 63
2, 242284, Control_c, 0, 64, 127
2, 242388, Note_on_c, 0, 59, 103
2, 242411, Note_on_c, 0, 52, 0
2, 242423, Note_on_c, 0, 80, 0
2, 242424, Note_on_c, 0, 92, 0
2, 242429, Note_on_c, 0, 59, 0
2, 242557, Note_on_c, 0, 71, 68
2, 242561, Note_on_c, 0, 90, 100
2, 242564, Note_on_c, 0, 78, 98
2, 242612, Note_on_c, 0, 71, 0
2, 242614, Note_on_c, 0, 78, 0
2, 242618, Note_on_c, 0, 90, 0
2, 242708, Note_on_c, 0, 59, 59
2, 242716, Note_on_c, 0, 88, 93
2, 242718, Note_on_c, 0, 76, 86
2, 242756, Note_on_c, 0, 88, 0
2, 242770, Note_on_c, 0, 76, 0
2, 242843, Note_on_c, 0, 87, 100
2, 242850, Note_on_c, 0, 75, 79
2, 242850, Note_on_c, 0, 56, 67
2, 242867, Note_on_c, 0, 59, 0
2, 242889, Note_on_c, 0, 87, 0
2, 242890, Note_on_c, 0, 75, 0
2, 242960, Note_on_c, 0, 85, 101
2, 242962, Note_on_c, 0, 73, 97
2, 242965, Note_on_c, 0, 56, 0
2, 242968, Note_on_c, 0, 59, 78
2, 242998, Note_on_c, 0, 73, 0
2, 243013, Note_on_c, 0, 85, 0
2, 243087, Note_on_c, 0, 47, 80
2, 243100, Note_on_c, 0, 59, 0
2, 243111, Control_c, 0, 64, 63
2, 243120, Control_c, 0, 64, 0
2, 243123, Note_on_c, 0, 87, 98
2, 243133, Note_on_c, 0, 75, 91
2, 243135, Control_c, 0, 64, 63
2, 243157, Control_c, 0, 64, 127
2, 243254, Note_on_c, 0, 87, 0
2, 243277, Note_on_c, 0, 75, 0
2, 243304, Note_on_c, 0, 47, 0
2, 243304, Note_on_c, 0, 54, 77
2, 243414, Note_on_c, 0, 54, 0
2, 243436, Note_on_c, 0, 59, 62
2, 243525, Note_on_c, 0, 59, 0
2, 243558, Note_on_c, 0, 54, 53
2, 243625, Note_on_c, 0, 54, 0
2, 243689, Note_on_c, 0, 63, 79
2, 243760, Note_on_c, 0, 63, 0
2, 243831, Note_on_c, 0, 51, 83
2, 243962, Note_on_c, 0, 45, 86
2, 243979, Note_on_c, 0, 49, 45
2, 244001, Note_on_c, 0, 49, 0
2, 244003, Note_on_c, 0, 51, 0
2, 244030, Note_on_c, 0, 85, 100
2, 244037, Note_on_c, 0, 73, 88
2, 244057, Control_c, 0, 64, 63
2, 244093, Control_c, 0, 64, 127
2, 244155, Note_on_c, 0, 73, 0
2, 244175, Note_on_c, 0, 85, 0
2, 244183, Note_on_c, 0, 45, 0
2, 244186, Note_on_c, 0, 52, 79
2, 244247, Note_on_c, 0, 52, 0
2, 244289, Note_on_c, 0, 87, 94
2, 244292, Note_on_c, 0, 75, 95
2, 244310, Note_on_c, 0, 75, 0
2, 244312, Note_on_c, 0, 87, 0
2, 244353, Note_on_c, 0, 73, 112
2, 244357, Note_on_c, 0, 61, 76
2, 244358, Note_on_c, 0, 85, 90
2, 244384, Note_on_c, 0, 85, 0
2, 244385, Note_on_c, 0, 73, 0
2, 244407, Note_on_c, 0, 61, 0
2, 244479, Note_on_c, 0, 51, 82
2, 244542, Note_on_c, 0, 71, 94
2, 244543, Note_on_c, 0, 83, 96
2, 244544, Note_on_c, 0, 44, 94
2, 244562, Control_c, 0, 64, 63
2, 244570, Control_c, 0, 64, 0
2, 244576, Note_on_c, 0, 71, 0
2, 244580, Control_c, 0, 64, 63
2, 244585, Note_on_c, 0, 83, 0
2, 244596, Control_c, 0, 64, 127
2, 244599, Note_on_c, 0, 44, 0
2, 244609, Note_on_c, 0, 83, 94
2, 244613, Note_on_c, 0, 71, 86
2, 244624, Note_on_c, 0, 59, 94
2, 244636, Note_on_c, 0, 51, 0
2, 244649, Note_on_c, 0, 71, 0
2, 244657, Note_on_c, 0, 83, 0
2, 244719, Note_on_c, 0, 59, 0
2, 244756, Note_on_c, 0, 52, 99
2, 244799, Note_on_c, 0, 52, 0
2, 244812, Note_on_c, 0, 68, 103
2, 244812, Note_on_c, 0, 80, 101
2, 244842, Note_on_c, 0, 68, 0
2, 244846, Note_on_c, 0, 80, 0
2, 244894, Note_on_c, 0, 42, 108
2, 244956, Note_on_c, 0, 83, 96
2, 244961, Note_on_c, 0, 71, 92
2, 244972, Note_on_c, 0, 80, 51
2, 244973, Control_c, 0, 64, 63
2, 244978, Control_c, 0, 64, 0
2, 244994, Note_on_c, 0, 80, 0
2, 245029, Control_c, 0, 64, 63
2, 245036, Control_c, 0, 64, 127
2, 245116, Note_on_c, 0, 83, 0
2, 245139, Note_on_c, 0, 71, 0
2, 245141, Note_on_c, 0, 49, 112
2, 245156, Note_on_c, 0, 42, 0
2, 245264, Note_on_c, 0, 81, 108
2, 245267, Note_on_c, 0, 69, 99
2, 245271, Note_on_c, 0, 51, 97
2, 245303, Note_on_c, 0, 49, 0
2, 245386, Note_on_c, 0, 81, 0
2, 245388, Note_on_c, 0, 69, 0
2, 245392, Note_on_c, 0, 51, 0
2, 245395, Note_on_c, 0, 59, 101
2, 245515, Note_on_c, 0, 52, 99
2, 245519, Control_c, 0, 64, 63
2, 245523, Control_c, 0, 64, 0
2, 245523, Note_on_c, 0, 80, 99
2, 245528, Note_on_c, 0, 68, 103
2, 245536, Note_on_c, 0, 59, 0
2, 245591, Control_c, 0, 64, 63
2, 245594, Control_c, 0, 64, 127
2, 245641, Note_on_c, 0, 80, 0
2, 245646, Note_on_c, 0, 68, 0
2, 245656, Note_on_c, 0, 52, 0
2, 245662, Note_on_c, 0, 59, 85
2, 245699, Note_on_c, 0, 59, 0
2, 245700, Note_on_c, 0, 67, 84
2, 245736, Note_on_c, 0, 73, 88
2, 245752, Note_on_c, 0, 76, 87
2, 245822, Note_on_c, 0, 79, 108
2, 245824, Control_c, 0, 64, 63
2, 245827, Control_c, 0, 64, 0
2, 245831, Note_on_c, 0, 46, 100
2, 245870, Control_c, 0, 64, 63
2, 245880, Control_c, 0, 64, 127
2, 245981, Note_on_c, 0, 52, 91
2, 245988, Note_on_c, 0, 46, 0
2, 246089, Note_on_c, 0, 79, 0
2, 246094, Note_on_c, 0, 67, 0
2, 246094, Note_on_c, 0, 55, 103
2, 246120, Note_on_c, 0, 73, 0
2, 246120, Note_on_c, 0, 52, 0
2, 246121, Note_on_c, 0, 76, 0
2, 246187, Note_on_c, 0, 52, 99
2, 246206, Note_on_c, 0, 55, 0
2, 246256, Note_on_c, 0, 52, 0
2, 246318, Note_on_c, 0, 66, 107
2, 246318, Note_on_c, 0, 78, 99
2, 246329, Note_on_c, 0, 61, 94
2, 246356, Note_on_c, 0, 66, 0
2, 246361, Note_on_c, 0, 78, 0
2, 246397, Note_on_c, 0, 61, 0
2, 246491, Note_on_c, 0, 52, 96
2, 246492, Note_on_c, 0, 76, 106
2, 246496, Note_on_c, 0, 64, 87
2, 246514, Note_on_c, 0, 64, 0
2, 246525, Note_on_c, 0, 76, 0
2, 246536, Note_on_c, 0, 52, 0
2, 246607, Note_on_c, 0, 45, 87
2, 246664, Note_on_c, 0, 75, 97
2, 246666, Note_on_c, 0, 63, 92
2, 246703, Control_c, 0, 64, 63
2, 246704, Control_c, 0, 64, 127
2, 246787, Control_c, 0, 64, 63
2, 246787, Note_on_c, 0, 51, 95
2, 246791, Control_c, 0, 64, 0
2, 246800, Note_on_c, 0, 63, 0
2, 246810, Control_c, 0, 64, 63
2, 246813, Note_on_c, 0, 75, 0
2, 246819, Control_c, 0, 64, 127
2, 246858, Note_on_c, 0, 76, 97
2, 246861, Note_on_c, 0, 64, 79
2, 246905, Note_on_c, 0, 76, 0
2, 246911, Note_on_c, 0, 64, 0
2, 246919, Note_on_c, 0, 45, 0
2, 246950, Note_on_c, 0, 54, 77
2, 246981, Note_on_c, 0, 75, 105
2, 246985, Note_on_c, 0, 63, 93
2, 246993, Note_on_c, 0, 51, 0
2, 247033, Note_on_c, 0, 63, 0
2, 247037, Note_on_c, 0, 75, 0
2, 247066, Note_on_c, 0, 51, 85
2, 247102, Note_on_c, 0, 61, 98
2, 247103, Note_on_c, 0, 73, 97
2, 247151, Note_on_c, 0, 61, 0
2, 247174, Note_on_c, 0, 73, 0
2, 247195, Note_on_c, 0, 59, 84
2, 247214, Note_on_c, 0, 54, 0
2, 247228, Note_on_c, 0, 75, 103
2, 247229, Note_on_c, 0, 63, 99
2, 247235, Note_on_c, 0, 51, 0
2, 247291, Note_on_c, 0, 63, 0
2, 247300, Note_on_c, 0, 75, 0
2, 247336, Note_on_c, 0, 76, 98
2, 247339, Note_on_c, 0, 64, 69
2, 247367, Note_on_c, 0, 64, 0
2, 247382, Note_on_c, 0, 76, 0
2, 247386, Note_on_c, 0, 59, 0
2, 247402, Note_on_c, 0, 51, 98
2, 247455, Note_on_c, 0, 78, 105
2, 247456, Note_on_c, 0, 66, 96
2, 247503, Note_on_c, 0, 66, 0
2, 247535, Note_on_c, 0, 78, 0
2, 247570, Note_on_c, 0, 44, 81
2, 247633, Note_on_c, 0, 51, 0
2, 247652, Note_on_c, 0, 80, 103
2, 247654, Note_on_c, 0, 68, 90
2, 247710, Control_c, 0, 64, 63
2, 247716, Control_c, 0, 64, 0
2, 247812, Control_c, 0, 64, 63
2, 247815, Control_c, 0, 64, 127
2, 247900, Note_on_c, 0, 51, 80
2, 247955, Note_on_c, 0, 44, 0
2, 248040, Note_on_c, 0, 68, 0
2, 248040, Note_on_c, 0, 54, 88
2, 248077, Note_on_c, 0, 51, 0
2, 248170, Note_on_c, 0, 51, 89
2, 248219, Note_on_c, 0, 80, 0
2, 248253, Note_on_c, 0, 54, 0
2, 248303, Note_on_c, 0, 51, 0
2, 248304, Note_on_c, 0, 60, 72
2, 248401, Note_on_c, 0, 60, 0
2, 248414, Note_on_c, 0, 51, 86
2, 248499, Note_on_c, 0, 78, 83
2, 248506, Note_on_c, 0, 66, 80
2, 248553, Note_on_c, 0, 66, 0
2, 248559, Note_on_c, 0, 78, 0
2, 248607, Note_on_c, 0, 45, 62
2, 248644, Note_on_c, 0, 51, 0
2, 248678, Note_on_c, 0, 75, 76
2, 248685, Note_on_c, 0, 63, 54
2, 248768, Control_c, 0, 64, 63
2, 248778, Control_c, 0, 64, 0
2, 248800, Control_c, 0, 64, 63
2, 248822, Control_c, 0, 64, 127
2, 248835, Note_on_c, 0, 51, 57
2, 248904, Note_on_c, 0, 45, 0
2, 248964, Note_on_c, 0, 54, 58
2, 248996, Note_on_c, 0, 51, 0
2, 249061, Note_on_c, 0, 63, 0
2, 249086, Note_on_c, 0, 51, 63
2, 249120, Note_on_c, 0, 54, 0
2, 249195, Note_on_c, 0, 75, 0
2, 249221, Note_on_c, 0, 51, 0
2, 249229, Note_on_c, 0, 61, 44
2, 249392, Note_on_c, 0, 51, 51
2, 249406, Note_on_c, 0, 61, 0
2, 249639, Note_on_c, 0, 44, 70
2, 249725, Note_on_c, 0, 80, 88
2, 249731, Note_on_c, 0, 68, 64
2, 249756, Note_on_c, 0, 51, 0
2, 249873, Control_c, 0, 64, 63
2, 249894, Control_c, 0, 64, 0
2, 249911, Control_c, 0, 64, 63
2, 249932, Note_on_c, 0, 51, 54
2, 249935, Control_c, 0, 64, 127
2, 250002, Note_on_c, 0, 44, 0
2, 250067, Note_on_c, 0, 54, 52
2, 250100, Note_on_c, 0, 51, 0
2, 250187, Note_on_c, 0, 51, 64
2, 250228, Note_on_c, 0, 68, 0
2, 250263, Note_on_c, 0, 80, 0
2, 250324, Note_on_c, 0, 54, 0
2, 250331, Note_on_c, 0, 51, 0
2, 250340, Note_on_c, 0, 60, 45
2, 250484, Note_on_c, 0, 51, 51
2, 250489, Note_on_c, 0, 60, 0
2, 250569, Note_on_c, 0, 78, 76
2, 250583, Note_on_c, 0, 66, 46
2, 250621, Note_on_c, 0, 78, 0
2, 250634, Note_on_c, 0, 66, 0
2, 250677, Note_on_c, 0, 45, 45
2, 250713, Note_on_c, 0, 75, 81
2, 250722, Note_on_c, 0, 63, 60
2, 250725, Note_on_c, 0, 51, 0
2, 250808, Control_c, 0, 64, 63
2, 250864, Control_c, 0, 64, 127
2, 250880, Note_on_c, 0, 51, 57
2, 250965, Note_on_c, 0, 45, 0
2, 251005, Note_on_c, 0, 54, 75
2, 251059, Note_on_c, 0, 51, 0
2, 251093, Note_on_c, 0, 63, 0
2, 251135, Note_on_c, 0, 51, 78
2, 251191, Note_on_c, 0, 54, 0
2, 251204, Note_on_c, 0, 75, 0
2, 251301, Note_on_c, 0, 61, 94
2, 251333, Note_on_c, 0, 51, 0
2, 251488, Note_on_c, 0, 51, 81
2, 251524, Note_on_c, 0, 61, 0
2, 251723, Note_on_c, 0, 44, 87
2, 251795, Note_on_c, 0, 92, 104
2, 251799, Note_on_c, 0, 80, 87
2, 251809, Note_on_c, 0, 51, 0
2, 251844, Control_c, 0, 64, 63
2, 251853, Control_c, 0, 64, 0
2, 251948, Control_c, 0, 64, 63
2, 251951, Control_c, 0, 64, 127
2, 252067, Note_on_c, 0, 51, 67
2, 252150, Note_on_c, 0, 44, 0
2, 252222, Note_on_c, 0, 54, 94
2, 252272, Note_on_c, 0, 51, 0
2, 252352, Note_on_c, 0, 51, 88
2, 252466, Note_on_c, 0, 60, 94
2, 252490, Note_on_c, 0, 54, 0
2, 252500, Note_on_c, 0, 51, 0
2, 252585, Note_on_c, 0, 51, 95
2, 252604, Note_on_c, 0, 60, 0
2, 252688, Note_on_c, 0, 45, 94
2, 252690, Control_c, 0, 64, 63
2, 252737, Note_on_c, 0, 51, 0
2, 252739, Control_c, 0, 64, 127
2, 252813, Note_on_c, 0, 92, 0
2, 252823, Note_on_c, 0, 51, 89
2, 252834, Note_on_c, 0, 80, 0
2, 252875, Note_on_c, 0, 90, 98
2, 252876, Note_on_c, 0, 78, 91
2, 252946, Note_on_c, 0, 90, 0
2, 252954, Note_on_c, 0, 45, 0
2, 252965, Note_on_c, 0, 78, 0
2, 253032, Note_on_c, 0, 54, 75
2, 253038, Note_on_c, 0, 76, 90
2, 253039, Note_on_c, 0, 88, 84
2, 253075, Note_on_c, 0, 51, 0
2, 253079, Note_on_c, 0, 88, 0
2, 253091, Note_on_c, 0, 76, 0
2, 253186, Note_on_c, 0, 87, 106
2, 253189, Note_on_c, 0, 51, 81
2, 253190, Note_on_c, 0, 75, 90
2, 253252, Note_on_c, 0, 54, 0
2, 253258, Note_on_c, 0, 75, 0
2, 253262, Note_on_c, 0, 87, 0
2, 253308, Note_on_c, 0, 59, 77
2, 253312, Note_on_c, 0, 85, 90
2, 253313, Note_on_c, 0, 73, 95
2, 253346, Note_on_c, 0, 51, 0
2, 253362, Note_on_c, 0, 73, 0
2, 253371, Note_on_c, 0, 85, 0
2, 253418, Note_on_c, 0, 83, 97
2, 253421, Note_on_c, 0, 51, 104
2, 253423, Note_on_c, 0, 71, 77
2, 253428, Note_on_c, 0, 59, 0
2, 253459, Note_on_c, 0, 83, 0
2, 253459, Note_on_c, 0, 71, 0
2, 253529, Note_on_c, 0, 44, 97
2, 253564, Note_on_c, 0, 81, 99
2, 253569, Note_on_c, 0, 69, 76
2, 253579, Note_on_c, 0, 51, 0
2, 253618, Control_c, 0, 64, 63
2, 253625, Control_c, 0, 64, 0
2, 253680, Control_c, 0, 64, 63
2, 253686, Control_c, 0, 64, 127
2, 253690, Note_on_c, 0, 51, 97
2, 253790, Note_on_c, 0, 44, 0
2, 253799, Note_on_c, 0, 52, 79
2, 253803, Note_on_c, 0, 81, 0
2, 253820, Note_on_c, 0, 51, 0
2, 253823, Note_on_c, 0, 69, 0
2, 253900, Note_on_c, 0, 51, 103
2, 253933, Note_on_c, 0, 52, 0
2, 254035, Note_on_c, 0, 80, 89
2, 254036, Note_on_c, 0, 68, 81
2, 254039, Note_on_c, 0, 59, 57
2, 254051, Note_on_c, 0, 51, 0
2, 254094, Note_on_c, 0, 68, 0
2, 254130, Note_on_c, 0, 80, 0
2, 254164, Note_on_c, 0, 59, 0
2, 254173, Note_on_c, 0, 51, 64
2, 254317, Note_on_c, 0, 44, 80
2, 254350, Control_c, 0, 64, 63
2, 254356, Control_c, 0, 64, 0
2, 254380, Note_on_c, 0, 51, 0
2, 254384, Note_on_c, 0, 90, 82
2, 254384, Note_on_c, 0, 78, 76
2, 254395, Control_c, 0, 64, 63
2, 254403, Control_c, 0, 64, 127
2, 254494, Note_on_c, 0, 90, 0
2, 254508, Note_on_c, 0, 78, 0
2, 254560, Note_on_c, 0, 49, 67
2, 254602, Note_on_c, 0, 76, 87
2, 254603, Note_on_c, 0, 88, 91
2, 254615, Note_on_c, 0, 44, 0
2, 254662, Note_on_c, 0, 88, 0
2, 254665, Note_on_c, 0, 76, 0
2, 254709, Note_on_c, 0, 52, 70
2, 254735, Note_on_c, 0, 49, 0
2, 254744, Note_on_c, 0, 87, 107
2, 254745, Note_on_c, 0, 75, 101
2, 254802, Note_on_c, 0, 75, 0
2, 254809, Note_on_c, 0, 87, 0
2, 254864, Note_on_c, 0, 49, 66
2, 254866, Note_on_c, 0, 73, 100
2, 254867, Note_on_c, 0, 85, 94
2, 254919, Note_on_c, 0, 85, 0
2, 254922, Note_on_c, 0, 73, 0
2, 254979, Note_on_c, 0, 57, 75
2, 254979, Note_on_c, 0, 83, 102
2, 254981, Note_on_c, 0, 71, 85
2, 254991, Note_on_c, 0, 52, 0
2, 254993, Note_on_c, 0, 49, 0
2, 255017, Note_on_c, 0, 71, 0
2, 255024, Note_on_c, 0, 83, 0
2, 255079, Note_on_c, 0, 57, 0
2, 255087, Note_on_c, 0, 49, 95
2, 255088, Note_on_c, 0, 81, 102
2, 255093, Note_on_c, 0, 69, 88
2, 255114, Note_on_c, 0, 69, 0
2, 255121, Note_on_c, 0, 81, 0
2, 255200, Note_on_c, 0, 42, 89
2, 255210, Note_on_c, 0, 80, 109
2, 255212, Note_on_c, 0, 68, 101
2, 255254, Note_on_c, 0, 49, 0
2, 255271, Control_c, 0, 64, 63
2, 255278, Control_c, 0, 64, 0
2, 255325, Control_c, 0, 64, 63
2, 255332, Control_c, 0, 64, 127
2, 255356, Note_on_c, 0, 49, 95
2, 255412, Note_on_c, 0, 42, 0
2, 255460, Note_on_c, 0, 51, 108
2, 255465, Note_on_c, 0, 80, 0
2, 255482, Note_on_c, 0, 68, 0
2, 255487, Note_on_c, 0, 49, 0
2, 255542, Note_on_c, 0, 49, 100
2, 255588, Note_on_c, 0, 51, 0
2, 255654, Note_on_c, 0, 78, 107
2, 255655, Note_on_c, 0, 66, 105
2, 255660, Note_on_c, 0, 57, 73
2, 255681, Note_on_c, 0, 49, 0
2, 255682, Note_on_c, 0, 66, 0
2, 255686, Note_on_c, 0, 78, 0
2, 255792, Note_on_c, 0, 49, 91
2, 255821, Note_on_c, 0, 57, 0
2, 255834, Note_on_c, 0, 88, 106
2, 255837, Note_on_c, 0, 76, 99
2, 255946, Control_c, 0, 64, 63
2, 255950, Control_c, 0, 64, 0
2, 255988, Note_on_c, 0, 42, 106
2, 256013, Control_c, 0, 64, 63
2, 256017, Control_c, 0, 64, 127
2, 256034, Note_on_c, 0, 49, 0
2, 256145, Note_on_c, 0, 88, 0
2, 256147, Note_on_c, 0, 76, 0
2, 256175, Note_on_c, 0, 48, 84
2, 256197, Note_on_c, 0, 87, 107
2, 256202, Note_on_c, 0, 75, 98
2, 256222, Note_on_c, 0, 42, 0
2, 256261, Note_on_c, 0, 75, 0
2, 256269, Note_on_c, 0, 87, 0
2, 256341, Note_on_c, 0, 51, 81
2, 256357, Note_on_c, 0, 85, 96
2, 256360, Note_on_c, 0, 73, 99
2, 256377, Note_on_c, 0, 48, 0
2, 256403, Note_on_c, 0, 73, 0
2, 256415, Note_on_c, 0, 85, 0
2, 256482, Note_on_c, 0, 84, 98
2, 256483, Note_on_c, 0, 48, 68
2, 256484, Note_on_c, 0, 72, 97
2, 256498, Note_on_c, 0, 51, 0
2, 256516, Note_on_c, 0, 84, 0
2, 256520, Note_on_c, 0, 72, 0
2, 256602, Note_on_c, 0, 81, 102
2, 256605, Note_on_c, 0, 56, 74
2, 256605, Note_on_c, 0, 69, 92
2, 256611, Note_on_c, 0, 48, 0
2, 256624, Note_on_c, 0, 69, 0
2, 256636, Note_on_c, 0, 81, 0
2, 256654, Note_on_c, 0, 56, 0
2, 256710, Note_on_c, 0, 48, 82
2, 256716, Note_on_c, 0, 80, 106
2, 256722, Note_on_c, 0, 68, 89
2, 256744, Note_on_c, 0, 68, 0
2, 256755, Note_on_c, 0, 80, 0
2, 256814, Note_on_c, 0, 40, 104
2, 256830, Note_on_c, 0, 48, 0
2, 256855, Note_on_c, 0, 78, 105
2, 256859, Note_on_c, 0, 66, 100
2, 256881, Control_c, 0, 64, 63
2, 256888, Control_c, 0, 64, 0
2, 256954, Control_c, 0, 64, 63
2, 256958, Control_c, 0, 64, 127
2, 256987, Note_on_c, 0, 44, 90
2, 257019, Note_on_c, 0, 40, 0
2, 257097, Note_on_c, 0, 49, 100
2, 257101, Note_on_c, 0, 78, 0
2, 257104, Note_on_c, 0, 66, 0
2, 257118, Note_on_c, 0, 44, 0
2, 257204, Note_on_c, 0, 44, 98
2, 257239, Note_on_c, 0, 49, 0
2, 257314, Note_on_c, 0, 76, 104
2, 257319, Note_on_c, 0, 64, 88
2, 257320, Note_on_c, 0, 44, 0
2, 257322, Note_on_c, 0, 56, 80
2, 257352, Note_on_c, 0, 64, 0
2, 257379, Note_on_c, 0, 76, 0
2, 257432, Note_on_c, 0, 56, 0
2, 257469, Note_on_c, 0, 49, 84
2, 257510, Note_on_c, 0, 49, 0
2, 257654, Note_on_c, 0, 48, 92
2, 257664, Note_on_c, 0, 78, 80
2, 257664, Note_on_c, 0, 76, 82
2, 257668, Note_on_c, 0, 69, 80
2, 257674, Note_on_c, 0, 66, 73
2, 257702, Control_c, 0, 64, 63
2, 257710, Control_c, 0, 64, 0
2, 257791, Control_c, 0, 64, 63
2, 257799, Control_c, 0, 64, 127
2, 257827, Note_on_c, 0, 52, 61
2, 257968, Note_on_c, 0, 54, 81
2, 257971, Note_on_c, 0, 66, 0
2, 258007, Note_on_c, 0, 69, 0
2, 258056, Note_on_c, 0, 76, 0
2, 258086, Note_on_c, 0, 57, 72
2, 258107, Note_on_c, 0, 48, 0
2, 258177, Note_on_c, 0, 78, 0
2, 258178, Note_on_c, 0, 52, 0
2, 258208, Note_on_c, 0, 47, 69
2, 258232, Note_on_c, 0, 57, 0
2, 258240, Note_on_c, 0, 78, 86
2, 258243, Note_on_c, 0, 54, 0
2, 258247, Note_on_c, 0, 66, 60
2, 258248, Note_on_c, 0, 75, 77
2, 258259, Note_on_c, 0, 71, 60
2, 258285, Control_c, 0, 64, 63
2, 258308, Control_c, 0, 64, 0
2, 258327, Control_c, 0, 64, 63
2, 258346, Control_c, 0, 64, 127
2, 258394, Note_on_c, 0, 59, 60
2, 258418, Note_on_c, 0, 47, 0
2, 258420, Note_on_c, 0, 66, 0
2, 258426, Note_on_c, 0, 75, 0
2, 258432, Note_on_c, 0, 78, 0
2, 258436, Note_on_c, 0, 71, 0
2, 258579, Note_on_c, 0, 59, 0
2, 258585, Note_on_c, 0, 52, 57
2, 258611, Note_on_c, 0, 80, 70
2, 258616, Note_on_c, 0, 78, 67
2, 258624, Note_on_c, 0, 68, 23
2, 258641, Note_on_c, 0, 71, 29
2, 258741, Control_c, 0, 64, 63
2, 258756, Control_c, 0, 64, 0
2, 258802, Control_c, 0, 64, 63
2, 258804, Note_on_c, 0, 56, 55
2, 258813, Control_c, 0, 64, 127
2, 258926, Note_on_c, 0, 52, 0
2, 258950, Note_on_c, 0, 78, 0
2, 258952, Note_on_c, 0, 76, 71
2, 258972, Note_on_c, 0, 59, 30
2, 258982, Note_on_c, 0, 56, 0
2, 259104, Note_on_c, 0, 56, 50
2, 259110, Note_on_c, 0, 59, 0
2, 259111, Note_on_c, 0, 68, 0
2, 259190, Note_on_c, 0, 71, 0
2, 259244, Note_on_c, 0, 56, 0
2, 259269, Note_on_c, 0, 64, 54
2, 259324, Note_on_c, 0, 64, 0
2, 259333, Note_on_c, 0, 76, 0
2, 259338, Note_on_c, 0, 80, 0
2, 259490, Note_on_c, 0, 51, 54
2, 259758, Note_on_c, 0, 49, 46
2, 259773, Control_c, 0, 64, 63
2, 259781, Control_c, 0, 64, 127
2, 259814, Note_on_c, 0, 90, 67
2, 259817, Note_on_c, 0, 78, 43
2, 259820, Note_on_c, 0, 51, 0
2, 259930, Note_on_c, 0, 90, 0
2, 259961, Note_on_c, 0, 78, 0
2, 259962, Note_on_c, 0, 49, 0
2, 260032, Note_on_c, 0, 56, 70
2, 260096, Note_on_c, 0, 76, 62
2, 260097, Note_on_c, 0, 88, 70
2, 260156, Note_on_c, 0, 88, 0
2, 260177, Note_on_c, 0, 76, 0
2, 260191, Note_on_c, 0, 56, 0
2, 260253, Note_on_c, 0, 57, 38
2, 260283, Note_on_c, 0, 87, 81
2, 260286, Note_on_c, 0, 75, 70
2, 260350, Note_on_c, 0, 87, 0
2, 260362, Note_on_c, 0, 75, 0
2, 260435, Note_on_c, 0, 85, 80
2, 260436, Note_on_c, 0, 73, 76
2, 260455, Note_on_c, 0, 56, 51
2, 260487, Note_on_c, 0, 85, 0
2, 260492, Note_on_c, 0, 57, 0
2, 260495, Note_on_c, 0, 73, 0
2, 260550, Note_on_c, 0, 83, 82
2, 260553, Note_on_c, 0, 71, 69
2, 260589, Note_on_c, 0, 71, 0
2, 260593, Note_on_c, 0, 83, 0
2, 260652, Note_on_c, 0, 56, 0
2, 260655, Note_on_c, 0, 69, 76
2, 260655, Note_on_c, 0, 81, 84
2, 260656, Note_on_c, 0, 64, 58
2, 260684, Note_on_c, 0, 69, 0
2, 260689, Note_on_c, 0, 64, 0
2, 260696, Note_on_c, 0, 81, 0
2, 260746, Note_on_c, 0, 83, 91
2, 260749, Note_on_c, 0, 71, 60
2, 260778, Note_on_c, 0, 71, 0
2, 260785, Note_on_c, 0, 83, 0
2, 260809, Note_on_c, 0, 49, 73
2, 260842, Note_on_c, 0, 73, 88
2, 260845, Note_on_c, 0, 85, 87
2, 260866, Note_on_c, 0, 49, 0
2, 260881, Note_on_c, 0, 73, 0
2, 260894, Note_on_c, 0, 85, 0
2, 260937, Note_on_c, 0, 85, 93
2, 260939, Note_on_c, 0, 51, 69
2, 260946, Note_on_c, 0, 73, 69
2, 260967, Control_c, 0, 64, 63
2, 261012, Control_c, 0, 64, 127
2, 261080, Note_on_c, 0, 85, 0
2, 261085, Note_on_c, 0, 54, 73
2, 261097, Note_on_c, 0, 73, 0
2, 261193, Note_on_c, 0, 51, 0
2, 261205, Note_on_c, 0, 66, 93
2, 261208, Note_on_c, 0, 78, 93
2, 261213, Note_on_c, 0, 57, 57
2, 261227, Note_on_c, 0, 54, 0
2, 261244, Note_on_c, 0, 66, 0
2, 261273, Note_on_c, 0, 78, 0
2, 261322, Note_on_c, 0, 57, 0
2, 261334, Note_on_c, 0, 54, 98
2, 261465, Note_on_c, 0, 54, 0
2, 261466, Note_on_c, 0, 63, 92
2, 261497, Control_c, 0, 64, 63
2, 261506, Control_c, 0, 64, 0
2, 261512, Note_on_c, 0, 88, 103
2, 261514, Note_on_c, 0, 76, 90
2, 261530, Control_c, 0, 64, 63
2, 261542, Control_c, 0, 64, 127
2, 261577, Note_on_c, 0, 63, 0
2, 261663, Note_on_c, 0, 49, 91
2, 261800, Control_c, 0, 64, 63
2, 261813, Note_on_c, 0, 48, 98
2, 261828, Control_c, 0, 64, 127
2, 261846, Note_on_c, 0, 49, 0
2, 261960, Note_on_c, 0, 88, 0
2, 261966, Note_on_c, 0, 76, 0
2, 262002, Note_on_c, 0, 54, 83
2, 262027, Note_on_c, 0, 48, 0
2, 262083, Note_on_c, 0, 87, 95
2, 262089, Note_on_c, 0, 75, 87
2, 262125, Note_on_c, 0, 75, 0
2, 262129, Note_on_c, 0, 87, 0
2, 262194, Note_on_c, 0, 54, 0
2, 262202, Note_on_c, 0, 56, 61
2, 262210, Note_on_c, 0, 85, 93
2, 262210, Note_on_c, 0, 73, 91
2, 262274, Note_on_c, 0, 73, 0
2, 262281, Note_on_c, 0, 85, 0
2, 262330, Note_on_c, 0, 72, 88
2, 262333, Note_on_c, 0, 84, 64
2, 262347, Note_on_c, 0, 54, 70
2, 262366, Note_on_c, 0, 56, 0
2, 262367, Note_on_c, 0, 72, 0
2, 262374, Note_on_c, 0, 84, 0
2, 262419, Note_on_c, 0, 85, 101
2, 262424, Note_on_c, 0, 73, 84
2, 262445, Note_on_c, 0, 73, 0
2, 262458, Note_on_c, 0, 85, 0
2, 262480, Note_on_c, 0, 54, 0
2, 262511, Note_on_c, 0, 87, 103
2, 262512, Note_on_c, 0, 63, 77
2, 262513, Note_on_c, 0, 75, 93
2, 262544, Note_on_c, 0, 75, 0
2, 262546, Note_on_c, 0, 87, 0
2, 262554, Note_on_c, 0, 63, 0
2, 262641, Note_on_c, 0, 81, 106
2, 262644, Note_on_c, 0, 69, 85
2, 262665, Note_on_c, 0, 69, 0
2, 262670, Note_on_c, 0, 81, 0
2, 262758, Note_on_c, 0, 48, 65
2, 262884, Note_on_c, 0, 80, 85
2, 262886, Note_on_c, 0, 68, 82
2, 262921, Control_c, 0, 64, 63
2, 262927, Control_c, 0, 64, 0
2, 262956, Note_on_c, 0, 49, 79
2, 262985, Control_c, 0, 64, 63
2, 262989, Control_c, 0, 64, 127
2, 262995, Note_on_c, 0, 48, 0
2, 263039, Note_on_c, 0, 80, 0
2, 263056, Note_on_c, 0, 68, 0
2, 263099, Note_on_c, 0, 78, 85
2, 263100, Note_on_c, 0, 66, 85
2, 263144, Note_on_c, 0, 66, 0
2, 263147, Note_on_c, 0, 78, 0
2, 263191, Note_on_c, 0, 52, 71
2, 263204, Note_on_c, 0, 76, 92
2, 263208, Note_on_c, 0, 64, 62
2, 263241, Note_on_c, 0, 64, 0
2, 263247, Note_on_c, 0, 76, 0
2, 263292, Note_on_c, 0, 56, 88
2, 263293, Note_on_c, 0, 76, 92
2, 263296, Note_on_c, 0, 64, 76
2, 263314, Control_c, 0, 64, 63
2, 263320, Note_on_c, 0, 52, 0
2, 263327, Control_c, 0, 64, 127
2, 263409, Note_on_c, 0, 52, 94
2, 263417, Note_on_c, 0, 56, 0
2, 263431, Note_on_c, 0, 49, 0
2, 263489, Note_on_c, 0, 52, 0
2, 263534, Note_on_c, 0, 61, 99
2, 263573, Note_on_c, 0, 61, 0
2, 263640, Note_on_c, 0, 47, 103
2, 263697, Note_on_c, 0, 47, 0
2, 263783, Note_on_c, 0, 46, 109
2, 263802, Control_c, 0, 64, 63
2, 263806, Control_c, 0, 64, 0
2, 263898, Control_c, 0, 64, 63
2, 263901, Control_c, 0, 64, 127
2, 263991, Note_on_c, 0, 52, 62
2, 264025, Note_on_c, 0, 64, 0
2, 264059, Note_on_c, 0, 76, 0
2, 264118, Note_on_c, 0, 55, 80
2, 264145, Note_on_c, 0, 52, 0
2, 264155, Note_on_c, 0, 46, 0
2, 264224, Note_on_c, 0, 55, 0
2, 264241, Note_on_c, 0, 79, 97
2, 264244, Note_on_c, 0, 67, 80
2, 264248, Note_on_c, 0, 52, 72
2, 264265, Note_on_c, 0, 67, 0
2, 264278, Note_on_c, 0, 79, 0
2, 264292, Note_on_c, 0, 52, 0
2, 264419, Note_on_c, 0, 61, 77
2, 264425, Note_on_c, 0, 82, 95
2, 264429, Note_on_c, 0, 70, 81
2, 264463, Note_on_c, 0, 70, 0
2, 264469, Note_on_c, 0, 61, 0
2, 264486, Note_on_c, 0, 82, 0
2, 264558, Note_on_c, 0, 85, 100
2, 264558, Note_on_c, 0, 73, 94
2, 264593, Note_on_c, 0, 73, 0
2, 264608, Note_on_c, 0, 85, 0
2, 264611, Note_on_c, 0, 52, 48
2, 264664, Note_on_c, 0, 87, 107
2, 264666, Note_on_c, 0, 75, 96
2, 264703, Note_on_c, 0, 75, 0
2, 264722, Note_on_c, 0, 87, 0
2, 264733, Note_on_c, 0, 49, 103
2, 264743, Note_on_c, 0, 52, 0
2, 264763, Control_c, 0, 64, 63
2, 264770, Control_c, 0, 64, 0
2, 264782, Note_on_c, 0, 88, 100
2, 264784, Note_on_c, 0, 76, 89
2, 264827, Control_c, 0, 64, 63
2, 264830, Control_c, 0, 64, 127
2, 264864, Note_on_c, 0, 49, 0
2, 264892, Note_on_c, 0, 88, 0
2, 264917, Note_on_c, 0, 76, 0
2, 264930, Note_on_c, 0, 55, 78
2, 264960, Note_on_c, 0, 55, 0
2, 265048, Note_on_c, 0, 82, 95
2, 265051, Note_on_c, 0, 70, 89
2, 265054, Note_on_c, 0, 58, 73
2, 265102, Note_on_c, 0, 58, 0
2, 265157, Note_on_c, 0, 55, 84
2, 265199, Note_on_c, 0, 55, 0
2, 265277, Note_on_c, 0, 64, 93
2, 265290, Note_on_c, 0, 70, 0
2, 265306, Note_on_c, 0, 82, 0
2, 265334, Note_on_c, 0, 64, 0
2, 265377, Note_on_c, 0, 55, 94
2, 265451, Control_c, 0, 64, 63
2, 265456, Control_c, 0, 64, 0
2, 265460, Note_on_c, 0, 55, 0
2, 265491, Note_on_c, 0, 49, 116
2, 265493, Note_on_c, 0, 88, 111
2, 265495, Note_on_c, 0, 76, 108
2, 265514, Control_c, 0, 64, 63
2, 265516, Control_c, 0, 64, 127
2, 265566, Note_on_c, 0, 49, 0
2, 265601, Note_on_c, 0, 88, 0
2, 265619, Note_on_c, 0, 76, 0
2, 265643, Note_on_c, 0, 55, 100
2, 265693, Note_on_c, 0, 55, 0
2, 265774, Note_on_c, 0, 58, 95
2, 265776, Note_on_c, 0, 70, 112
2, 265778, Note_on_c, 0, 82, 99
2, 265803, Note_on_c, 0, 70, 0
2, 265815, Note_on_c, 0, 82, 0
2, 265817, Note_on_c, 0, 58, 0
2, 265879, Note_on_c, 0, 55, 102
2, 265955, Note_on_c, 0, 55, 0
2, 266000, Note_on_c, 0, 64, 111
2, 266051, Note_on_c, 0, 64, 0
2, 266098, Note_on_c, 0, 55, 111
2, 266146, Note_on_c, 0, 55, 0
2, 266170, Control_c, 0, 64, 63
2, 266176, Control_c, 0, 64, 0
2, 266223, Note_on_c, 0, 91, 108
2, 266226, Note_on_c, 0, 79, 108
2, 266228, Note_on_c, 0, 48, 127
2, 266262, Control_c, 0, 64, 63
2, 266263, Control_c, 0, 64, 127
2, 266331, Note_on_c, 0, 48, 0
2, 266373, Note_on_c, 0, 55, 102
2, 266402, Note_on_c, 0, 91, 0
2, 266404, Note_on_c, 0, 79, 0
2, 266439, Note_on_c, 0, 55, 0
2, 266482, Note_on_c, 0, 58, 107
2, 266537, Note_on_c, 0, 58, 0
2, 266584, Note_on_c, 0, 55, 104
2, 266677, Note_on_c, 0, 55, 0
2, 266705, Note_on_c, 0, 82, 115
2, 266708, Note_on_c, 0, 64, 90
2, 266708, Note_on_c, 0, 70, 121
2, 266738, Note_on_c, 0, 70, 0
2, 266755, Note_on_c, 0, 82, 0
2, 266764, Note_on_c, 0, 64, 0
2, 266837, Note_on_c, 0, 55, 96
2, 266869, Note_on_c, 0, 55, 0
2, 266973, Note_on_c, 0, 47, 59
2, 266974, Control_c, 0, 64, 63
2, 266979, Control_c, 0, 64, 0
2, 267000, Note_on_c, 0, 52, 91
2, 267000, Note_on_c, 0, 83, 106
2, 267003, Note_on_c, 0, 47, 0
2, 267003, Note_on_c, 0, 80, 109
2, 267003, Note_on_c, 0, 71, 111
2, 267004, Note_on_c, 0, 76, 108
2, 267009, Control_c, 0, 64, 63
2, 267012, Note_on_c, 0, 56, 98
2, 267014, Note_on_c, 0, 59, 113
2, 267017, Control_c, 0, 64, 127
2, 267037, Note_on_c, 0, 56, 0
2, 267038, Note_on_c, 0, 52, 0
2, 267046, Note_on_c, 0, 59, 0
2, 267057, Note_on_c, 0, 71, 0
2, 267063, Note_on_c, 0, 83, 0
2, 267068, Note_on_c, 0, 76, 0
2, 267071, Note_on_c, 0, 80, 0
2, 267269, Control_c, 0, 64, 63
2, 267273, Control_c, 0, 64, 0
2, 267297, Note_on_c, 0, 35, 108
2, 267298, Note_on_c, 0, 47, 117
2, 267299, Note_on_c, 0, 59, 104
2, 267330, Control_c, 0, 64, 63
2, 267337, Control_c, 0, 64, 127
2, 267360, Note_on_c, 0, 64, 93
2, 267366, Note_on_c, 0, 59, 0
2, 267394, Note_on_c, 0, 35, 0
2, 267401, Note_on_c, 0, 47, 0
2, 267407, Note_on_c, 0, 66, 97
2, 267422, Note_on_c, 0, 64, 0
2, 267449, Note_on_c, 0, 68, 96
2, 267456, Note_on_c, 0, 66, 0
2, 267482, Note_on_c, 0, 68, 0
2, 267510, Note_on_c, 0, 71, 94
2, 267554, Note_on_c, 0, 71, 0
2, 267567, Note_on_c, 0, 80, 96
2, 267605, Note_on_c, 0, 78, 90
2, 267618, Note_on_c, 0, 80, 0
2, 267659, Note_on_c, 0, 76, 85
2, 267668, Note_on_c, 0, 78, 0
2, 267699, Note_on_c, 0, 76, 0
2, 267712, Note_on_c, 0, 83, 78
2, 267735, Control_c, 0, 64, 63
2, 267741, Control_c, 0, 64, 0
2, 267742, Note_on_c, 0, 83, 0
2, 267754, Note_on_c, 0, 71, 72
2, 267802, Note_on_c, 0, 71, 0
2, 267824, Note_on_c, 0, 73, 78
2, 267855, Note_on_c, 0, 73, 0
2, 267861, Note_on_c, 0, 71, 87
2, 267905, Note_on_c, 0, 71, 0
2, 267908, Note_on_c, 0, 68, 86
2, 267915, Note_on_c, 0, 64, 70
2, 267918, Note_on_c, 0, 59, 59
2, 267960, Note_on_c, 0, 71, 70
2, 267972, Control_c, 0, 64, 63
2, 267975, Control_c, 0, 64, 127
2, 268013, Note_on_c, 0, 76, 87
2, 268021, Note_on_c, 0, 68, 0
2, 268022, Note_on_c, 0, 71, 0
2, 268031, Note_on_c, 0, 64, 0
2, 268035, Note_on_c, 0, 59, 0
2, 268063, Note_on_c, 0, 78, 95
2, 268086, Note_on_c, 0, 76, 0
2, 268107, Note_on_c, 0, 68, 106
2, 268111, Note_on_c, 0, 59, 87
2, 268112, Note_on_c, 0, 80, 92
2, 268113, Note_on_c, 0, 64, 98
2, 268128, Note_on_c, 0, 78, 0
2, 268145, Note_on_c, 0, 80, 0
2, 268172, Note_on_c, 0, 83, 93
2, 268215, Note_on_c, 0, 68, 0
2, 268219, Note_on_c, 0, 83, 0
2, 268225, Note_on_c, 0, 64, 0
2, 268226, Note_on_c, 0, 88, 97
2, 268229, Note_on_c, 0, 59, 0
2, 268267, Note_on_c, 0, 90, 101
2, 268288, Note_on_c, 0, 88, 0
2, 268318, Note_on_c, 0, 92, 116
2, 268330, Note_on_c, 0, 90, 0
2, 268330, Note_on_c, 0, 59, 88
2, 268331, Note_on_c, 0, 68, 116
2, 268332, Note_on_c, 0, 64, 104
2, 268352, Note_on_c, 0, 92, 0
2, 268365, Note_on_c, 0, 59, 0
2, 268369, Note_on_c, 0, 64, 0
2, 268379, Note_on_c, 0, 68, 0
2, 268560, Note_on_c, 0, 71, 99
2, 268584, Control_c, 0, 64, 63
2, 268585, Control_c, 0, 64, 127
2, 268608, Note_on_c, 0, 76, 100
2, 268623, Note_on_c, 0, 71, 0
2, 268656, Note_on_c, 0, 78, 98
2, 268680, Note_on_c, 0, 76, 0
2, 268704, Note_on_c, 0, 80, 101
2, 268717, Note_on_c, 0, 78, 0
2, 268737, Note_on_c, 0, 80, 0
2, 268768, Note_on_c, 0, 83, 82
2, 268807, Note_on_c, 0, 83, 0
2, 268814, Note_on_c, 0, 92, 98
2, 268816, Control_c, 0, 64, 63
2, 268819, Control_c, 0, 64, 0
2, 268870, Note_on_c, 0, 90, 90
2, 268872, Note_on_c, 0, 59, 82
2, 268878, Note_on_c, 0, 92, 0
2, 268881, Control_c, 0, 64, 63
2, 268882, Control_c, 0, 64, 127
2, 268912, Note_on_c, 0, 64, 64
2, 268915, Note_on_c, 0, 88, 77
2, 268920, Note_on_c, 0, 90, 0
2, 268927, Note_on_c, 0, 59, 0
2, 268952, Note_on_c, 0, 68, 105
2, 268961, Note_on_c, 0, 88, 0
2, 268969, Note_on_c, 0, 64, 0
2, 268994, Note_on_c, 0, 68, 0
2, 269028, Note_on_c, 0, 76, 109
2, 269031, Note_on_c, 0, 97, 108
2, 269059, Note_on_c, 0, 76, 0
2, 269065, Note_on_c, 0, 97, 0
2, 269227, Note_on_c, 0, 95, 94
2, 269267, Note_on_c, 0, 93, 92
2, 269270, Control_c, 0, 64, 63
2, 269279, Control_c, 0, 64, 0
2, 269290, Control_c, 0, 64, 63
2, 269292, Note_on_c, 0, 95, 0
2, 269306, Control_c, 0, 64, 127
2, 269316, Note_on_c, 0, 92, 99
2, 269328, Note_on_c, 0, 93, 0
2, 269360, Note_on_c, 0, 92, 0
2, 269362, Note_on_c, 0, 59, 70
2, 269370, Note_on_c, 0, 90, 97
2, 269410, Note_on_c, 0, 64, 82
2, 269415, Note_on_c, 0, 90, 0
2, 269419, Note_on_c, 0, 59, 0
2, 269423, Note_on_c, 0, 88, 82
2, 269434, Control_c, 0, 64, 63
2, 269447, Note_on_c, 0, 67, 82
2, 269449, Control_c, 0, 64, 127
2, 269471, Note_on_c, 0, 88, 0
2, 269477, Note_on_c, 0, 87, 105
2, 269491, Note_on_c, 0, 73, 112
2, 269506, Note_on_c, 0, 64, 0
2, 269524, Note_on_c, 0, 87, 0
2, 269531, Note_on_c, 0, 67, 0
2, 269532, Note_on_c, 0, 88, 86
2, 269534, Note_on_c, 0, 73, 0
2, 269566, Note_on_c, 0, 88, 0
2, 269580, Note_on_c, 0, 100, 99
2, 269625, Note_on_c, 0, 94, 103
2, 269628, Note_on_c, 0, 59, 82
2, 269630, Note_on_c, 0, 100, 0
2, 269643, Control_c, 0, 64, 63
2, 269651, Control_c, 0, 64, 0
2, 269664, Note_on_c, 0, 64, 82
2, 269670, Control_c, 0, 64, 63
2, 269672, Note_on_c, 0, 94, 0
2, 269678, Note_on_c, 0, 59, 0
2, 269682, Control_c, 0, 64, 127
2, 269703, Note_on_c, 0, 68, 100
2, 269719, Note_on_c, 0, 97, 116
2, 269729, Note_on_c, 0, 71, 106
2, 269764, Note_on_c, 0, 97, 0
2, 269823, Note_on_c, 0, 71, 0
2, 269848, Note_on_c, 0, 68, 0
2, 269874, Note_on_c, 0, 64, 0
2, 269908, Note_on_c, 0, 95, 104
2, 269944, Control_c, 0, 64, 63
2, 269947, Control_c, 0, 64, 0
2, 269950, Note_on_c, 0, 95, 0
2, 269952, Note_on_c, 0, 93, 89
2, 269997, Note_on_c, 0, 93, 0
2, 270001, Note_on_c, 0, 59, 82
2, 270006, Note_on_c, 0, 92, 107
2, 270006, Control_c, 0, 64, 63
2, 270010, Control_c, 0, 64, 127
2, 270046, Note_on_c, 0, 64, 60
2, 270049, Note_on_c, 0, 92, 0
2, 270054, Note_on_c, 0, 90, 107
2, 270063, Note_on_c, 0, 59, 0
2, 270093, Note_on_c, 0, 67, 77
2, 270104, Note_on_c, 0, 90, 0
2, 270107, Note_on_c, 0, 88, 80
2, 270151, Note_on_c, 0, 88, 0
2, 270154, Note_on_c, 0, 73, 108
2, 270157, Note_on_c, 0, 87, 108
2, 270193, Note_on_c, 0, 64, 0
2, 270200, Note_on_c, 0, 73, 0
2, 270200, Note_on_c, 0, 87, 0
2, 270203, Note_on_c, 0, 67, 0
2, 270204, Note_on_c, 0, 88, 99
2, 270239, Note_on_c, 0, 88, 0
2, 270251, Note_on_c, 0, 100, 84
2, 270276, Control_c, 0, 64, 63
2, 270281, Note_on_c, 0, 59, 78
2, 270282, Control_c, 0, 64, 0
2, 270293, Note_on_c, 0, 94, 103
2, 270298, Note_on_c, 0, 100, 0
2, 270318, Note_on_c, 0, 64, 78
2, 270332, Control_c, 0, 64, 63
2, 270334, Note_on_c, 0, 59, 0
2, 270337, Control_c, 0, 64, 127
2, 270341, Note_on_c, 0, 94, 0
2, 270355, Note_on_c, 0, 68, 97
2, 270377, Note_on_c, 0, 97, 114
2, 270388, Note_on_c, 0, 71, 83
2, 270445, Note_on_c, 0, 97, 0
2, 270448, Note_on_c, 0, 99, 109
2, 270500, Note_on_c, 0, 97, 103
2, 270514, Note_on_c, 0, 71, 0
2, 270518, Note_on_c, 0, 99, 0
2, 270531, Note_on_c, 0, 68, 0
2, 270542, Note_on_c, 0, 64, 0
2, 270550, Note_on_c, 0, 95, 100
2, 270582, Note_on_c, 0, 97, 0
2, 270605, Note_on_c, 0, 93, 91
2, 270624, Note_on_c, 0, 95, 0
2, 270646, Note_on_c, 0, 93, 0
2, 270653, Note_on_c, 0, 92, 103
2, 270698, Note_on_c, 0, 92, 0
2, 270699, Note_on_c, 0, 90, 112
2, 270716, Note_on_c, 0, 59, 84
2, 270745, Control_c, 0, 64, 63
2, 270745, Note_on_c, 0, 88, 98
2, 270746, Note_on_c, 0, 64, 94
2, 270747, Note_on_c, 0, 90, 0
2, 270753, Control_c, 0, 64, 0
2, 270762, Note_on_c, 0, 59, 0
2, 270776, Note_on_c, 0, 67, 94
2, 270778, Control_c, 0, 64, 63
2, 270789, Control_c, 0, 64, 127
2, 270792, Note_on_c, 0, 88, 0
2, 270803, Note_on_c, 0, 87, 107
2, 270815, Note_on_c, 0, 73, 110
2, 270851, Note_on_c, 0, 87, 0
2, 270852, Note_on_c, 0, 67, 0
2, 270852, Note_on_c, 0, 88, 99
2, 270855, Note_on_c, 0, 73, 0
2, 270890, Note_on_c, 0, 88, 0
2, 270891, Note_on_c, 0, 64, 0
2, 270901, Note_on_c, 0, 100, 99
2, 270938, Note_on_c, 0, 59, 87
2, 270948, Note_on_c, 0, 100, 0
2, 270953, Note_on_c, 0, 94, 104
2, 270962, Control_c, 0, 64, 63
2, 270973, Control_c, 0, 64, 0
2, 270974, Note_on_c, 0, 64, 84
2, 270981, Note_on_c, 0, 94, 0
2, 270982, Control_c, 0, 64, 63
2, 270990, Note_on_c, 0, 59, 0
2, 270999, Control_c, 0, 64, 127
2, 271001, Note_on_c, 0, 68, 100
2, 271031, Note_on_c, 0, 71, 100
2, 271037, Note_on_c, 0, 97, 106
2, 271094, Note_on_c, 0, 99, 103
2, 271101, Note_on_c, 0, 97, 0
2, 271149, Note_on_c, 0, 97, 101
2, 271168, Note_on_c, 0, 99, 0
2, 271200, Note_on_c, 0, 95, 102
2, 271229, Note_on_c, 0, 97, 0
2, 271258, Note_on_c, 0, 95, 0
2, 271258, Note_on_c, 0, 93, 87
2, 271291, Note_on_c, 0, 93, 0
2, 271311, Note_on_c, 0, 95, 81
2, 271368, Note_on_c, 0, 93, 74
2, 271375, Note_on_c, 0, 95, 0
2, 271419, Note_on_c, 0, 92, 103
2, 271431, Note_on_c, 0, 93, 0
2, 271469, Note_on_c, 0, 90, 106
2, 271475, Note_on_c, 0, 71, 0
2, 271491, Note_on_c, 0, 92, 0
2, 271493, Note_on_c, 0, 68, 0
2, 271505, Note_on_c, 0, 64, 0
2, 271519, Note_on_c, 0, 90, 0
2, 271519, Note_on_c, 0, 88, 97
2, 271570, Note_on_c, 0, 87, 108
2, 271571, Note_on_c, 0, 88, 0
2, 271620, Note_on_c, 0, 85, 109
2, 271634, Note_on_c, 0, 87, 0
2, 271668, Note_on_c, 0, 85, 0
2, 271670, Note_on_c, 0, 83, 95
2, 271720, Note_on_c, 0, 83, 0
2, 271724, Note_on_c, 0, 82, 108
2, 271773, Note_on_c, 0, 82, 0
2, 271775, Note_on_c, 0, 81, 101
2, 271821, Note_on_c, 0, 81, 0
2, 271832, Note_on_c, 0, 80, 107
2, 271889, Note_on_c, 0, 78, 112
2, 271897, Note_on_c, 0, 80, 0
2, 271939, Note_on_c, 0, 78, 0
2, 271940, Note_on_c, 0, 76, 98
2, 271942, Control_c, 0, 64, 63
2, 271950, Control_c, 0, 64, 0
2, 271990, Note_on_c, 0, 76, 0
2, 271996, Note_on_c, 0, 75, 109
2, 272051, Note_on_c, 0, 73, 115
2, 272063, Note_on_c, 0, 75, 0
2, 272089, Note_on_c, 0, 73, 0
2, 272114, Note_on_c, 0, 59, 112
2, 272117, Note_on_c, 0, 47, 108
2, 272123, Note_on_c, 0, 71, 116
2, 272150, Note_on_c, 0, 59, 0
2, 272186, Note_on_c, 0, 68, 114
2, 272202, Note_on_c, 0, 71, 0
2, 272237, Note_on_c, 0, 68, 0
2, 272265, Note_on_c, 0, 57, 113
2, 272268, Note_on_c, 0, 71, 118
2, 272300, Note_on_c, 0, 57, 0
2, 272320, Note_on_c, 0, 47, 0
2, 272341, Note_on_c, 0, 66, 116
2, 272350, Note_on_c, 0, 71, 0
2, 272418, Note_on_c, 0, 66, 0
2, 272444, Note_on_c, 0, 64, 111
2, 272444, Note_on_c, 0, 56, 120
2, 272445, Note_on_c, 0, 52, 104
2, 272465, Control_c, 0, 64, 127
2, 272487, Note_on_c, 0, 64, 0
2, 272502, Note_on_c, 0, 56, 0
2, 272509, Note_on_c, 0, 52, 0
2, 272633, Control_c, 0, 64, 63
2, 272642, Control_c, 0, 64, 0
2, 272657, Note_on_c, 0, 56, 105
2, 272661, Note_on_c, 0, 52, 87
2, 272667, Control_c, 0, 64, 127
2, 272695, Note_on_c, 0, 56, 0
2, 272710, Control_c, 0, 64, 63
2, 272718, Note_on_c, 0, 57, 83
2, 272721, Control_c, 0, 64, 127
2, 272724, Note_on_c, 0, 54, 87
2, 272730, Note_on_c, 0, 52, 0
2, 272758, Control_c, 0, 64, 63
2, 272759, Note_on_c, 0, 57, 0
2, 272763, Control_c, 0, 64, 0
2, 272778, Note_on_c, 0, 54, 0
2, 272779, Note_on_c, 0, 59, 90
2, 272785, Note_on_c, 0, 56, 84
2, 272790, Control_c, 0, 64, 63
2, 272792, Control_c, 0, 64, 127
2, 272825, Note_on_c, 0, 59, 0
2, 272831, Note_on_c, 0, 64, 69
2, 272836, Note_on_c, 0, 52, 76
2, 272837, Note_on_c, 0, 56, 0
2, 272862, Control_c, 0, 64, 63
2, 272864, Control_c, 0, 64, 0
2, 272891, Control_c, 0, 64, 63
2, 272892, Note_on_c, 0, 54, 84
2, 272893, Control_c, 0, 64, 127
2, 272894, Note_on_c, 0, 63, 97
2, 272896, Note_on_c, 0, 64, 0
2, 272896, Note_on_c, 0, 52, 0
2, 272944, Note_on_c, 0, 61, 93
2, 272946, Control_c, 0, 64, 63
2, 272949, Note_on_c, 0, 54, 0
2, 272949, Control_c, 0, 64, 0
2, 272951, Note_on_c, 0, 63, 0
2, 272951, Note_on_c, 0, 57, 75
2, 272970, Control_c, 0, 64, 63
2, 272973, Control_c, 0, 64, 127
2, 272991, Note_on_c, 0, 61, 0
2, 272995, Note_on_c, 0, 56, 95
2, 273002, Note_on_c, 0, 57, 0
2, 273005, Note_on_c, 0, 59, 93
2, 273029, Control_c, 0, 64, 63
2, 273042, Note_on_c, 0, 59, 0
2, 273048, Note_on_c, 0, 56, 0
2, 273048, Note_on_c, 0, 52, 92
2, 273051, Control_c, 0, 64, 127
2, 273053, Note_on_c, 0, 68, 107
2, 273088, Control_c, 0, 64, 63
2, 273091, Control_c, 0, 64, 0
2, 273096, Note_on_c, 0, 57, 84
2, 273100, Note_on_c, 0, 66, 106
2, 273115, Note_on_c, 0, 52, 0
2, 273115, Note_on_c, 0, 68, 0
2, 273118, Control_c, 0, 64, 63
2, 273122, Control_c, 0, 64, 127
2, 273147, Note_on_c, 0, 64, 98
2, 273149, Note_on_c, 0, 61, 110
2, 273156, Note_on_c, 0, 66, 0
2, 273164, Note_on_c, 0, 57, 0
2, 273171, Note_on_c, 0, 64, 0
2, 273180, Note_on_c, 0, 61, 0
2, 273197, Control_c, 0, 64, 63
2, 273199, Control_c, 0, 64, 0
2, 273232, Note_on_c, 0, 54, 90
2, 273232, Note_on_c, 0, 63, 97
2, 273233, Note_on_c, 0, 59, 84
2, 273233, Control_c, 0, 64, 63
2, 273234, Control_c, 0, 64, 127
2, 273242, Note_on_c, 0, 71, 63
2, 273254, Note_on_c, 0, 59, 0
2, 273259, Note_on_c, 0, 63, 0
2, 273262, Note_on_c, 0, 54, 0
2, 273273, Note_on_c, 0, 78, 110
2, 273277, Note_on_c, 0, 71, 0
2, 273280, Note_on_c, 0, 47, 116
2, 273295, Note_on_c, 0, 78, 0
2, 273296, Note_on_c, 0, 47, 0
2, 273412, Note_on_c, 0, 59, 65
2, 273416, Note_on_c, 0, 63, 96
2, 273447, Control_c, 0, 64, 63
2, 273448, Note_on_c, 0, 63, 0
2, 273451, Control_c, 0, 64, 0
2, 273462, Note_on_c, 0, 61, 86
2, 273463, Note_on_c, 0, 64, 78
2, 273468, Note_on_c, 0, 59, 0
2, 273502, Note_on_c, 0, 64, 0
2, 273515, Note_on_c, 0, 61, 0
2, 273515, Note_on_c, 0, 66, 100
2, 273520, Note_on_c, 0, 63, 82
2, 273532, Control_c, 0, 64, 63
2, 273534, Control_c, 0, 64, 127
2, 273553, Note_on_c, 0, 66, 0
2, 273564, Note_on_c, 0, 63, 0
2, 273571, Note_on_c, 0, 71, 87
2, 273572, Note_on_c, 0, 59, 80
2, 273607, Control_c, 0, 64, 63
2, 273627, Note_on_c, 0, 61, 88
2, 273632, Control_c, 0, 64, 127
2, 273633, Note_on_c, 0, 59, 0
2, 273636, Note_on_c, 0, 69, 86
2, 273646, Note_on_c, 0, 71, 0
2, 273678, Note_on_c, 0, 61, 0
2, 273678, Note_on_c, 0, 68, 100
2, 273680, Note_on_c, 0, 64, 80
2, 273686, Note_on_c, 0, 69, 0
2, 273712, Note_on_c, 0, 68, 0
2, 273721, Control_c, 0, 64, 63
2, 273729, Note_on_c, 0, 64, 0
2, 273729, Control_c, 0, 64, 0
2, 273735, Note_on_c, 0, 63, 103
2, 273742, Note_on_c, 0, 66, 106
2, 273742, Control_c, 0, 64, 63
2, 273754, Control_c, 0, 64, 127
2, 273772, Note_on_c, 0, 66, 0
2, 273786, Note_on_c, 0, 59, 90
2, 273788, Note_on_c, 0, 63, 0
2, 273791, Note_on_c, 0, 73, 94
2, 273794, Control_c, 0, 64, 63
2, 273802, Control_c, 0, 64, 0
2, 273841, Note_on_c, 0, 63, 99
2, 273847, Note_on_c, 0, 71, 94
2, 273856, Note_on_c, 0, 59, 0
2, 273868, Note_on_c, 0, 73, 0
2, 273880, Control_c, 0, 64, 63
2, 273884, Control_c, 0, 64, 127
2, 273889, Note_on_c, 0, 69, 92
2, 273889, Note_on_c, 0, 66, 104
2, 273893, Note_on_c, 0, 63, 0
2, 273903, Note_on_c, 0, 71, 0
2, 273913, Note_on_c, 0, 66, 0
2, 273914, Note_on_c, 0, 69, 0
2, 273952, Control_c, 0, 64, 63
2, 273959, Control_c, 0, 64, 0
2, 273967, Note_on_c, 0, 68, 89
2, 273967, Note_on_c, 0, 64, 71
2, 273967, Note_on_c, 0, 59, 81
2, 273977, Control_c, 0, 64, 63
2, 273982, Note_on_c, 0, 76, 80
2, 273985, Note_on_c, 0, 64, 0
2, 273988, Note_on_c, 0, 68, 0
2, 273989, Control_c, 0, 64, 127
2, 274000, Note_on_c, 0, 59, 0
2, 274014, Note_on_c, 0, 83, 111
2, 274018, Note_on_c, 0, 76, 0
2, 274019, Note_on_c, 0, 52, 120
2, 274038, Note_on_c, 0, 83, 0
2, 274039, Note_on_c, 0, 52, 0
2, 274156, Note_on_c, 0, 68, 99
2, 274158, Note_on_c, 0, 64, 69
2, 274191, Note_on_c, 0, 68, 0
2, 274197, Note_on_c, 0, 69, 91
2, 274202, Note_on_c, 0, 66, 88
2, 274207, Note_on_c, 0, 64, 0
2, 274232, Control_c, 0, 64, 63
2, 274237, Control_c, 0, 64, 0
2, 274243, Note_on_c, 0, 69, 0
2, 274250, Note_on_c, 0, 68, 98
2, 274252, Note_on_c, 0, 71, 100
2, 274255, Note_on_c, 0, 66, 0
2, 274299, Note_on_c, 0, 76, 98
2, 274300, Note_on_c, 0, 64, 89
2, 274304, Note_on_c, 0, 68, 0
2, 274307, Note_on_c, 0, 71, 0
2, 274355, Note_on_c, 0, 66, 90
2, 274359, Note_on_c, 0, 75, 100
2, 274363, Note_on_c, 0, 64, 0
2, 274364, Note_on_c, 0, 76, 0
2, 274383, Control_c, 0, 64, 63
2, 274385, Control_c, 0, 64, 127
2, 274404, Note_on_c, 0, 73, 105
2, 274404, Note_on_c, 0, 69, 91
2, 274420, Note_on_c, 0, 66, 0
2, 274421, Note_on_c, 0, 75, 0
2, 274442, Control_c, 0, 64, 63
2, 274445, Control_c, 0, 64, 0
2, 274449, Note_on_c, 0, 73, 0
2, 274452, Note_on_c, 0, 68, 101
2, 274458, Note_on_c, 0, 71, 103
2, 274467, Control_c, 0, 64, 63
2, 274471, Control_c, 0, 64, 127
2, 274472, Note_on_c, 0, 69, 0
2, 274499, Note_on_c, 0, 71, 0
2, 274511, Note_on_c, 0, 64, 91
2, 274511, Note_on_c, 0, 80, 114
2, 274516, Control_c, 0, 64, 63
2, 274518, Note_on_c, 0, 68, 0
2, 274522, Control_c, 0, 64, 0
2, 274532, Control_c, 0, 64, 63
2, 274540, Control_c, 0, 64, 127
2, 274561, Note_on_c, 0, 69, 91
2, 274565, Note_on_c, 0, 78, 104
2, 274581, Note_on_c, 0, 64, 0
2, 274585, Note_on_c, 0, 80, 0
2, 274613, Note_on_c, 0, 73, 107
2, 274615, Note_on_c, 0, 76, 87
2, 274619, Note_on_c, 0, 78, 0
2, 274626, Note_on_c, 0, 69, 0
2, 274636, Note_on_c, 0, 76, 0
2, 274638, Control_c, 0, 64, 63
2, 274642, Control_c, 0, 64, 0
2, 274643, Note_on_c, 0, 73, 0
2, 274687, Control_c, 0, 64, 63
2, 274690, Note_on_c, 0, 66, 99
2, 274691, Control_c, 0, 64, 127
2, 274692, Note_on_c, 0, 71, 90
2, 274694, Note_on_c, 0, 75, 93
2, 274702, Note_on_c, 0, 83, 78
2, 274719, Note_on_c, 0, 71, 0
2, 274723, Note_on_c, 0, 75, 0
2, 274725, Note_on_c, 0, 66, 0
2, 274742, Note_on_c, 0, 90, 100
2, 274743, Note_on_c, 0, 83, 0
2, 274744, Note_on_c, 0, 59, 122
2, 274754, Note_on_c, 0, 90, 0
2, 274765, Note_on_c, 0, 59, 0
2, 274884, Note_on_c, 0, 75, 106
2, 274890, Note_on_c, 0, 71, 82
2, 274926, Note_on_c, 0, 75, 0
2, 274928, Note_on_c, 0, 76, 99
2, 274938, Note_on_c, 0, 73, 100
2, 274949, Note_on_c, 0, 71, 0
2, 274980, Note_on_c, 0, 78, 110
2, 274981, Note_on_c, 0, 76, 0
2, 274993, Note_on_c, 0, 75, 105
2, 275002, Note_on_c, 0, 73, 0
2, 275005, Control_c, 0, 64, 63
2, 275010, Control_c, 0, 64, 0
2, 275026, Note_on_c, 0, 78, 0
2, 275036, Note_on_c, 0, 83, 99
2, 275039, Note_on_c, 0, 71, 96
2, 275044, Note_on_c, 0, 75, 0
2, 275093, Note_on_c, 0, 73, 97
2, 275097, Note_on_c, 0, 81, 92
2, 275105, Note_on_c, 0, 71, 0
2, 275120, Note_on_c, 0, 83, 0
2, 275124, Control_c, 0, 64, 63
2, 275130, Control_c, 0, 64, 127
2, 275138, Note_on_c, 0, 80, 107
2, 275142, Note_on_c, 0, 76, 97
2, 275155, Note_on_c, 0, 81, 0
2, 275161, Note_on_c, 0, 73, 0
2, 275181, Note_on_c, 0, 80, 0
2, 275198, Note_on_c, 0, 75, 106
2, 275200, Control_c, 0, 64, 63
2, 275200, Note_on_c, 0, 78, 109
2, 275208, Control_c, 0, 64, 0
2, 275214, Note_on_c, 0, 76, 0
2, 275245, Note_on_c, 0, 71, 79
2, 275250, Note_on_c, 0, 78, 0
2, 275253, Note_on_c, 0, 85, 103
2, 275258, Note_on_c, 0, 75, 0
2, 275302, Note_on_c, 0, 75, 97
2, 275315, Note_on_c, 0, 83, 84
2, 275318, Note_on_c, 0, 71, 0
2, 275326, Note_on_c, 0, 85, 0
2, 275354, Note_on_c, 0, 78, 90
2, 275360, Note_on_c, 0, 81, 98
2, 275363, Note_on_c, 0, 75, 0
2, 275378, Note_on_c, 0, 83, 0
2, 275389, Note_on_c, 0, 78, 0
2, 275413, Note_on_c, 0, 81, 0
2, 275418, Note_on_c, 0, 80, 115
2, 275424, Note_on_c, 0, 76, 117
2, 275428, Control_c, 0, 64, 63
2, 275428, Control_c, 0, 64, 127
2, 275446, Note_on_c, 0, 80, 0
2, 275450, Note_on_c, 0, 76, 0
2, 275559, Note_on_c, 0, 93, 114
2, 275592, Control_c, 0, 64, 63
2, 275596, Control_c, 0, 64, 0
2, 275625, Control_c, 0, 64, 63
2, 275630, Control_c, 0, 64, 127
2, 275637, Note_on_c, 0, 88, 71
2, 275678, Note_on_c, 0, 93, 0
2, 275690, Note_on_c, 0, 88, 0
2, 275704, Note_on_c, 0, 47, 112
2, 275708, Note_on_c, 0, 92, 107
2, 275739, Note_on_c, 0, 47, 0
2, 275768, Note_on_c, 0, 87, 95
2, 275771, Note_on_c, 0, 92, 0
2, 275811, Note_on_c, 0, 87, 0
2, 275826, Note_on_c, 0, 90, 103
2, 275866, Note_on_c, 0, 90, 0
2, 275870, Note_on_c, 0, 83, 73
2, 275908, Note_on_c, 0, 83, 0
2, 275933, Note_on_c, 0, 69, 79
2, 275935, Note_on_c, 0, 63, 86
2, 275946, Note_on_c, 0, 80, 103
2, 275948, Control_c, 0, 64, 63
2, 275959, Note_on_c, 0, 59, 50
2, 275967, Control_c, 0, 64, 127
2, 275993, Note_on_c, 0, 69, 0
2, 275999, Note_on_c, 0, 78, 103
2, 276001, Note_on_c, 0, 63, 0
2, 276003, Note_on_c, 0, 80, 0
2, 276011, Note_on_c, 0, 59, 0
2, 276052, Note_on_c, 0, 75, 91
2, 276057, Note_on_c, 0, 78, 0
2, 276065, Control_c, 0, 64, 63
2, 276072, Control_c, 0, 64, 0
2, 276076, Control_c, 0, 64, 63
2, 276080, Note_on_c, 0, 52, 87
2, 276087, Note_on_c, 0, 75, 0
2, 276087, Control_c, 0, 64, 127
2, 276091, Note_on_c, 0, 71, 84
2, 276112, Note_on_c, 0, 52, 0
2, 276113, Note_on_c, 0, 59, 86
2, 276128, Note_on_c, 0, 71, 0
2, 276144, Note_on_c, 0, 59, 0
2, 276155, Note_on_c, 0, 76, 82
2, 276156, Note_on_c, 0, 68, 110
2, 276181, Note_on_c, 0, 68, 0
2, 276207, Note_on_c, 0, 76, 0
2, 276212, Note_on_c, 0, 80, 103
2, 276241, Note_on_c, 0, 80, 0
2, 276269, Note_on_c, 0, 83, 103
2, 276304, Note_on_c, 0, 83, 0
2, 276316, Note_on_c, 0, 93, 108
2, 276350, Control_c, 0, 64, 63
2, 276360, Control_c, 0, 64, 0
2, 276372, Note_on_c, 0, 92, 106
2, 276374, Control_c, 0, 64, 63
2, 276378, Note_on_c, 0, 47, 112
2, 276388, Note_on_c, 0, 93, 0
2, 276391, Control_c, 0, 64, 127
2, 276420, Note_on_c, 0, 47, 0
2, 276426, Note_on_c, 0, 87, 107
2, 276436, Note_on_c, 0, 92, 0
2, 276483, Note_on_c, 0, 90, 103
2, 276487, Note_on_c, 0, 87, 0
2, 276523, Note_on_c, 0, 90, 0
2, 276529, Note_on_c, 0, 83, 84
2, 276566, Note_on_c, 0, 83, 0
2, 276587, Note_on_c, 0, 63, 89
2, 276589, Control_c, 0, 64, 63
2, 276590, Note_on_c, 0, 69, 81
2, 276602, Note_on_c, 0, 80, 105
2, 276603, Note_on_c, 0, 59, 57
2, 276632, Note_on_c, 0, 69, 0
2, 276636, Control_c, 0, 64, 127
2, 276648, Note_on_c, 0, 63, 0
2, 276648, Note_on_c, 0, 78, 103
2, 276659, Note_on_c, 0, 80, 0
2, 276664, Note_on_c, 0, 59, 0
2, 276702, Note_on_c, 0, 75, 94
2, 276724, Note_on_c, 0, 78, 0
2, 276744, Note_on_c, 0, 71, 86
2, 276752, Note_on_c, 0, 75, 0
2, 276757, Control_c, 0, 64, 63
2, 276766, Control_c, 0, 64, 0
2, 276785, Note_on_c, 0, 71, 0
2, 276795, Control_c, 0, 64, 63
2, 276799, Control_c, 0, 64, 127
2, 276814, Note_on_c, 0, 52, 86
2, 276825, Note_on_c, 0, 83, 91
2, 276828, Note_on_c, 0, 80, 94
2, 276870, Note_on_c, 0, 83, 0
2, 276887, Note_on_c, 0, 71, 80
2, 276910, Note_on_c, 0, 80, 0
2, 276917, Note_on_c, 0, 71, 0
2, 276929, Note_on_c, 0, 52, 0
2, 276944, Note_on_c, 0, 56, 80
2, 276945, Note_on_c, 0, 81, 98
2, 276945, Note_on_c, 0, 64, 78
2, 276950, Note_on_c, 0, 59, 64
2, 276950, Note_on_c, 0, 78, 86
2, 276977, Note_on_c, 0, 78, 0
2, 276979, Note_on_c, 0, 59, 0
2, 276980, Note_on_c, 0, 64, 0
2, 276984, Note_on_c, 0, 56, 0
2, 276995, Note_on_c, 0, 76, 99
2, 276997, Note_on_c, 0, 80, 98
2, 277003, Note_on_c, 0, 81, 0
2, 277026, Note_on_c, 0, 76, 0
2, 277039, Note_on_c, 0, 80, 0
2, 277053, Note_on_c, 0, 78, 113
2, 277058, Note_on_c, 0, 66, 101
2, 277060, Note_on_c, 0, 59, 81
2, 277063, Control_c, 0, 64, 63
2, 277066, Note_on_c, 0, 57, 65
2, 277066, Control_c, 0, 64, 127
2, 277071, Note_on_c, 0, 75, 84
2, 277109, Note_on_c, 0, 71, 89
2, 277118, Note_on_c, 0, 78, 0
2, 277125, Note_on_c, 0, 66, 0
2, 277129, Note_on_c, 0, 75, 0
2, 277137, Note_on_c, 0, 59, 0
2, 277147, Note_on_c, 0, 71, 0
2, 277159, Note_on_c, 0, 57, 0
2, 277164, Note_on_c, 0, 78, 110
2, 277170, Note_on_c, 0, 75, 91
2, 277212, Note_on_c, 0, 80, 103
2, 277216, Note_on_c, 0, 76, 100
2, 277223, Note_on_c, 0, 75, 0
2, 277232, Note_on_c, 0, 78, 0
2, 277251, Note_on_c, 0, 76, 0
2, 277252, Note_on_c, 0, 80, 0
2, 277274, Note_on_c, 0, 81, 108
2, 277278, Note_on_c, 0, 78, 106
2, 277322, Note_on_c, 0, 71, 100
2, 277324, Note_on_c, 0, 81, 0
2, 277346, Note_on_c, 0, 78, 0
2, 277370, Note_on_c, 0, 71, 0
2, 277383, Note_on_c, 0, 35, 89
2, 277385, Note_on_c, 0, 47, 107
2, 277389, Note_on_c, 0, 78, 103
2, 277389, Note_on_c, 0, 81, 102
2, 277406, Note_on_c, 0, 35, 0
2, 277412, Note_on_c, 0, 47, 0
2, 277414, Note_on_c, 0, 81, 0
2, 277420, Note_on_c, 0, 78, 0
2, 277447, Note_on_c, 0, 85, 112
2, 277480, Note_on_c, 0, 85, 0
2, 277497, Control_c, 0, 64, 63
2, 277501, Control_c, 0, 64, 0
2, 277521, Note_on_c, 0, 40, 99
2, 277523, Note_on_c, 0, 52, 101
2, 277526, Note_on_c, 0, 83, 103
2, 277527, Control_c, 0, 64, 63
2, 277528, Note_on_c, 0, 80, 105
2, 277532, Control_c, 0, 64, 127
2, 277551, Note_on_c, 0, 40, 0
2, 277558, Note_on_c, 0, 83, 0
2, 277563, Note_on_c, 0, 52, 0
2, 277563, Note_on_c, 0, 80, 0
2, 277589, Note_on_c, 0, 71, 89
2, 277615, Note_on_c, 0, 71, 0
2, 277658, Note_on_c, 0, 56, 95
2, 277659, Note_on_c, 0, 78, 107
2, 277660, Note_on_c, 0, 81, 94
2, 277660, Note_on_c, 0, 64, 88
2, 277664, Note_on_c, 0, 59, 77
2, 277684, Note_on_c, 0, 59, 0
2, 277687, Note_on_c, 0, 78, 0
2, 277689, Note_on_c, 0, 64, 0
2, 277693, Note_on_c, 0, 56, 0
2, 277708, Note_on_c, 0, 76, 109
2, 277714, Note_on_c, 0, 80, 97
2, 277730, Note_on_c, 0, 81, 0
2, 277737, Note_on_c, 0, 76, 0
2, 277749, Note_on_c, 0, 80, 0
2, 277767, Note_on_c, 0, 78, 115
2, 277768, Note_on_c, 0, 66, 114
2, 277769, Note_on_c, 0, 59, 91
2, 277776, Note_on_c, 0, 57, 69
2, 277779, Note_on_c, 0, 75, 90
2, 277815, Note_on_c, 0, 78, 0
2, 277822, Note_on_c, 0, 71, 84
2, 277842, Note_on_c, 0, 75, 0
2, 277858, Note_on_c, 0, 71, 0
2, 277860, Note_on_c, 0, 66, 0
2, 277874, Note_on_c, 0, 59, 0
2, 277879, Note_on_c, 0, 78, 115
2, 277886, Note_on_c, 0, 75, 101
2, 277891, Note_on_c, 0, 57, 0
2, 277930, Note_on_c, 0, 76, 111
2, 277935, Note_on_c, 0, 80, 108
2, 277949, Note_on_c, 0, 75, 0
2, 277953, Note_on_c, 0, 78, 0
2, 277968, Note_on_c, 0, 76, 0
2, 277978, Note_on_c, 0, 80, 0
2, 277994, Note_on_c, 0, 81, 114
2, 277996, Note_on_c, 0, 78, 112
2, 278015, Control_c, 0, 64, 63
2, 278019, Control_c, 0, 64, 0
2, 278046, Note_on_c, 0, 71, 103
2, 278060, Note_on_c, 0, 75, 59
2, 278061, Note_on_c, 0, 81, 0
2, 278076, Note_on_c, 0, 75, 0
2, 278084, Note_on_c, 0, 78, 0
2, 278124, Note_on_c, 0, 35, 125
2, 278126, Control_c, 0, 64, 127
2, 278127, Note_on_c, 0, 81, 112
2, 278128, Note_on_c, 0, 78, 106
2, 278142, Note_on_c, 0, 71, 0
2, 278164, Note_on_c, 0, 81, 0
2, 278169, Note_on_c, 0, 78, 0
2, 278171, Note_on_c, 0, 35, 0
2, 278209, Note_on_c, 0, 85, 99
2, 278236, Note_on_c, 0, 85, 0
2, 278336, Note_on_c, 0, 38, 127
2, 278359, Note_on_c, 0, 80, 109
2, 278359, Note_on_c, 0, 83, 101
2, 278361, Note_on_c, 0, 71, 104
2, 278363, Note_on_c, 0, 78, 101
2, 278387, Control_c, 0, 64, 63
2, 278389, Control_c, 0, 64, 0
2, 278458, Control_c, 0, 64, 127
2, 278484, Note_on_c, 0, 42, 97
2, 278509, Note_on_c, 0, 38, 0
2, 278539, Note_on_c, 0, 44, 88
2, 278558, Note_on_c, 0, 42, 0
2, 278581, Note_on_c, 0, 44, 0
2, 278586, Note_on_c, 0, 50, 88
2, 278628, Note_on_c, 0, 50, 0
2, 278647, Note_on_c, 0, 54, 99
2, 278699, Note_on_c, 0, 54, 0
2, 278699, Note_on_c, 0, 56, 99
2, 278741, Note_on_c, 0, 83, 0
2, 278747, Note_on_c, 0, 62, 92
2, 278754, Note_on_c, 0, 78, 0
2, 278760, Note_on_c, 0, 80, 0
2, 278763, Note_on_c, 0, 56, 0
2, 278765, Note_on_c, 0, 71, 0
2, 278790, Note_on_c, 0, 62, 0
2, 278797, Note_on_c, 0, 50, 104
2, 278838, Note_on_c, 0, 50, 0
2, 278868, Note_on_c, 0, 71, 111
2, 278868, Note_on_c, 0, 77, 111
2, 278868, Note_on_c, 0, 83, 111
2, 278869, Control_c, 0, 64, 63
2, 278875, Control_c, 0, 64, 0
2, 278880, Note_on_c, 0, 49, 92
2, 278889, Control_c, 0, 64, 63
2, 278896, Control_c, 0, 64, 127
2, 278929, Note_on_c, 0, 49, 0
2, 278934, Note_on_c, 0, 48, 87
2, 278983, Note_on_c, 0, 49, 99
2, 278990, Note_on_c, 0, 48, 0
2, 279006, Note_on_c, 0, 83, 0
2, 279011, Note_on_c, 0, 77, 0
2, 279023, Note_on_c, 0, 71, 0
2, 279024, Note_on_c, 0, 49, 0
2, 279037, Note_on_c, 0, 61, 108
2, 279064, Note_on_c, 0, 61, 0
2, 279106, Note_on_c, 0, 55, 111
2, 279109, Note_on_c, 0, 83, 108
2, 279111, Note_on_c, 0, 71, 109
2, 279111, Note_on_c, 0, 76, 108
2, 279116, Control_c, 0, 64, 63
2, 279122, Control_c, 0, 64, 0
2, 279138, Control_c, 0, 64, 63
2, 279149, Control_c, 0, 64, 127
2, 279195, Note_on_c, 0, 55, 0
2, 279215, Note_on_c, 0, 67, 82
2, 279276, Note_on_c, 0, 61, 94
2, 279278, Note_on_c, 0, 67, 0
2, 279315, Note_on_c, 0, 59, 93
2, 279322, Note_on_c, 0, 61, 0
2, 279340, Note_on_c, 0, 59, 0
2, 279376, Note_on_c, 0, 55, 86
2, 279430, Note_on_c, 0, 49, 98
2, 279432, Note_on_c, 0, 55, 0
2, 279483, Note_on_c, 0, 47, 85
2, 279488, Note_on_c, 0, 49, 0
2, 279491, Note_on_c, 0, 83, 0
2, 279496, Note_on_c, 0, 71, 0
2, 279510, Note_on_c, 0, 76, 0
2, 279530, Note_on_c, 0, 43, 99
2, 279543, Note_on_c, 0, 47, 0
2, 279580, Note_on_c, 0, 43, 0
2, 279598, Control_c, 0, 64, 63
2, 279602, Note_on_c, 0, 82, 114
2, 279604, Note_on_c, 0, 70, 112
2, 279604, Note_on_c, 0, 76, 100
2, 279605, Note_on_c, 0, 42, 107
2, 279617, Control_c, 0, 64, 127
2, 279659, Note_on_c, 0, 41, 94
2, 279660, Note_on_c, 0, 42, 0
2, 279718, Note_on_c, 0, 42, 96
2, 279726, Note_on_c, 0, 82, 0
2, 279727, Note_on_c, 0, 41, 0
2, 279728, Note_on_c, 0, 70, 0
2, 279731, Note_on_c, 0, 76, 0
2, 279771, Note_on_c, 0, 42, 0
2, 279779, Note_on_c, 0, 54, 110
2, 279805, Note_on_c, 0, 54, 0
2, 279883, Note_on_c, 0, 81, 108
2, 279884, Note_on_c, 0, 36, 120
2, 279884, Note_on_c, 0, 69, 104
2, 279885, Note_on_c, 0, 76, 103
2, 279929, Control_c, 0, 64, 63
2, 279936, Control_c, 0, 64, 0
2, 279958, Control_c, 0, 64, 63
2, 279970, Control_c, 0, 64, 127
2, 279999, Note_on_c, 0, 40, 80
2, 280030, Note_on_c, 0, 36, 0
2, 280058, Note_on_c, 0, 42, 88
2, 280069, Note_on_c, 0, 69, 0
2, 280071, Note_on_c, 0, 40, 0
2, 280075, Note_on_c, 0, 81, 0
2, 280091, Note_on_c, 0, 76, 0
2, 280096, Note_on_c, 0, 42, 0
2, 280096, Note_on_c, 0, 48, 90
2, 280137, Note_on_c, 0, 48, 0
2, 280157, Note_on_c, 0, 52, 104
2, 280209, Note_on_c, 0, 54, 105
2, 280237, Note_on_c, 0, 52, 0
2, 280260, Note_on_c, 0, 60, 91
2, 280264, Note_on_c, 0, 54, 0
2, 280266, Note_on_c, 0, 78, 115
2, 280291, Note_on_c, 0, 60, 0
2, 280314, Note_on_c, 0, 48, 97
2, 280317, Note_on_c, 0, 76, 106
2, 280335, Note_on_c, 0, 78, 0
2, 280349, Note_on_c, 0, 48, 0
2, 280357, Note_on_c, 0, 76, 0
2, 280380, Note_on_c, 0, 81, 106
2, 280381, Note_on_c, 0, 47, 84
2, 280382, Note_on_c, 0, 75, 113
2, 280386, Note_on_c, 0, 69, 86
2, 280399, Control_c, 0, 64, 63
2, 280424, Control_c, 0, 64, 127
2, 280445, Note_on_c, 0, 46, 103
2, 280455, Note_on_c, 0, 47, 0
2, 280492, Note_on_c, 0, 47, 86
2, 280495, Note_on_c, 0, 46, 0
2, 280527, Note_on_c, 0, 81, 0
2, 280533, Note_on_c, 0, 47, 0
2, 280535, Note_on_c, 0, 69, 0
2, 280538, Note_on_c, 0, 75, 0
2, 280545, Note_on_c, 0, 59, 93
2, 280547, Note_on_c, 0, 57, 81
2, 280561, Note_on_c, 0, 57, 0
2, 280577, Note_on_c, 0, 59, 0
2, 280603, Note_on_c, 0, 81, 111
2, 280604, Note_on_c, 0, 53, 117
2, 280605, Note_on_c, 0, 74, 107
2, 280605, Note_on_c, 0, 69, 106
2, 280614, Control_c, 0, 64, 63
2, 280620, Control_c, 0, 64, 0
2, 280637, Control_c, 0, 64, 63
2, 280649, Control_c, 0, 64, 127
2, 280676, Note_on_c, 0, 65, 97
2, 280688, Note_on_c, 0, 53, 0
2, 280731, Note_on_c, 0, 65, 0
2, 280737, Note_on_c, 0, 59, 94
2, 280779, Note_on_c, 0, 57, 98
2, 280794, Note_on_c, 0, 59, 0
2, 280808, Note_on_c, 0, 57, 0
2, 280837, Note_on_c, 0, 53, 97
2, 280893, Note_on_c, 0, 47, 101
2, 280896, Note_on_c, 0, 53, 0
2, 280946, Note_on_c, 0, 45, 98
2, 280949, Note_on_c, 0, 81, 0
2, 280957, Note_on_c, 0, 47, 0
2, 280959, Note_on_c, 0, 69, 0
2, 280978, Note_on_c, 0, 74, 0
2, 280992, Note_on_c, 0, 41, 101
2, 281009, Note_on_c, 0, 45, 0
2, 281034, Note_on_c, 0, 41, 0
2, 281056, Note_on_c, 0, 80, 114
2, 281057, Note_on_c, 0, 71, 104
2, 281058, Note_on_c, 0, 74, 100
2, 281063, Note_on_c, 0, 40, 104
2, 281068, Control_c, 0, 64, 63
2, 281091, Control_c, 0, 64, 127
2, 281107, Note_on_c, 0, 40, 0
2, 281131, Note_on_c, 0, 39, 109
2, 281188, Note_on_c, 0, 39, 0
2, 281189, Note_on_c, 0, 40, 77
2, 281192, Note_on_c, 0, 41, 63
2, 281226, Note_on_c, 0, 71, 0
2, 281229, Note_on_c, 0, 41, 0
2, 281237, Note_on_c, 0, 40, 0
2, 281244, Note_on_c, 0, 80, 0
2, 281250, Note_on_c, 0, 52, 99
2, 281259, Note_on_c, 0, 74, 0
2, 281303, Note_on_c, 0, 52, 0
2, 281332, Note_on_c, 0, 80, 116
2, 281332, Note_on_c, 0, 39, 108
2, 281335, Note_on_c, 0, 75, 110
2, 281335, Note_on_c, 0, 72, 108
2, 281353, Control_c, 0, 64, 63
2, 281356, Control_c, 0, 64, 0
2, 281403, Control_c, 0, 64, 63
2, 281406, Control_c, 0, 64, 127
2, 281435, Note_on_c, 0, 39, 0
2, 281440, Note_on_c, 0, 51, 93
2, 281466, Note_on_c, 0, 51, 0
2, 281509, Note_on_c, 0, 56, 87
2, 281553, Note_on_c, 0, 56, 0
2, 281562, Note_on_c, 0, 60, 102
2, 281617, Note_on_c, 0, 60, 0
2, 281629, Note_on_c, 0, 63, 107
2, 281667, Note_on_c, 0, 63, 0
2, 281684, Note_on_c, 0, 51, 101
2, 281712, Note_on_c, 0, 51, 0
2, 281718, Note_on_c, 0, 80, 0
2, 281718, Note_on_c, 0, 72, 0
2, 281732, Note_on_c, 0, 75, 0
2, 281739, Note_on_c, 0, 65, 101
2, 281789, Note_on_c, 0, 63, 113
2, 281791, Note_on_c, 0, 65, 0
2, 281814, Note_on_c, 0, 63, 0
2, 281849, Note_on_c, 0, 79, 109
2, 281850, Note_on_c, 0, 58, 107
2, 281850, Note_on_c, 0, 67, 106
2, 281851, Note_on_c, 0, 73, 109
2, 281872, Control_c, 0, 64, 63
2, 281877, Control_c, 0, 64, 0
2, 281890, Control_c, 0, 64, 63
2, 281894, Note_on_c, 0, 58, 0
2, 281899, Note_on_c, 0, 51, 96
2, 281903, Control_c, 0, 64, 127
2, 281940, Note_on_c, 0, 79, 0
2, 281943, Note_on_c, 0, 67, 0
2, 281947, Note_on_c, 0, 51, 0
2, 281961, Note_on_c, 0, 73, 0
2, 281964, Note_on_c, 0, 57, 100
2, 282011, Note_on_c, 0, 58, 106
2, 282012, Note_on_c, 0, 57, 0
2, 282012, Control_c, 0, 64, 63
2, 282015, Control_c, 0, 64, 0
2, 282050, Control_c, 0, 64, 63
2, 282052, Note_on_c, 0, 58, 0
2, 282054, Control_c, 0, 64, 127
2, 282063, Note_on_c, 0, 59, 99
2, 282069, Note_on_c, 0, 71, 99
2, 282069, Note_on_c, 0, 80, 109
2, 282072, Note_on_c, 0, 68, 99
2, 282088, Note_on_c, 0, 59, 0
2, 282141, Note_on_c, 0, 40, 89
2, 282207, Note_on_c, 0, 47, 88
2, 282216, Note_on_c, 0, 40, 0
2, 282241, Note_on_c, 0, 47, 0
2, 282252, Note_on_c, 0, 52, 89
2, 282290, Note_on_c, 0, 52, 0
2, 282309, Note_on_c, 0, 56, 94
2, 282354, Note_on_c, 0, 56, 0
2, 282358, Note_on_c, 0, 52, 84
2, 282395, Note_on_c, 0, 80, 0
2, 282418, Note_on_c, 0, 61, 103
2, 282419, Note_on_c, 0, 52, 0
2, 282440, Note_on_c, 0, 68, 0
2, 282447, Note_on_c, 0, 71, 0
2, 282460, Note_on_c, 0, 61, 0
2, 282475, Note_on_c, 0, 59, 84
2, 282505, Note_on_c, 0, 59, 0
2, 282528, Note_on_c, 0, 78, 119
2, 282530, Note_on_c, 0, 73, 113
2, 282530, Note_on_c, 0, 69, 109
2, 282531, Control_c, 0, 64, 63
2, 282531, Note_on_c, 0, 57, 88
2, 282537, Control_c, 0, 64, 0
2, 282556, Control_c, 0, 64, 63
2, 282565, Control_c, 0, 64, 127
2, 282573, Note_on_c, 0, 57, 0
2, 282582, Note_on_c, 0, 45, 96
2, 282648, Note_on_c, 0, 49, 97
2, 282657, Note_on_c, 0, 45, 0
2, 282704, Note_on_c, 0, 49, 0
2, 282709, Note_on_c, 0, 78, 0
2, 282716, Note_on_c, 0, 54, 72
2, 282764, Note_on_c, 0, 54, 0
2, 282769, Note_on_c, 0, 47, 87
2, 282772, Note_on_c, 0, 69, 0
2, 282772, Note_on_c, 0, 78, 101
2, 282772, Note_on_c, 0, 68, 95
2, 282785, Control_c, 0, 64, 127
2, 282788, Note_on_c, 0, 73, 0
2, 282822, Control_c, 0, 64, 63
2, 282827, Control_c, 0, 64, 0
2, 282836, Note_on_c, 0, 49, 86
2, 282860, Control_c, 0, 64, 63
2, 282861, Control_c, 0, 64, 127
2, 282870, Note_on_c, 0, 47, 0
2, 282901, Note_on_c, 0, 51, 88
2, 282926, Note_on_c, 0, 49, 0
2, 282942, Note_on_c, 0, 52, 82
2, 282952, Note_on_c, 0, 51, 0
2, 282995, Note_on_c, 0, 54, 98
2, 283002, Note_on_c, 0, 71, 101
2, 283006, Control_c, 0, 64, 63
2, 283008, Control_c, 0, 64, 0
2, 283011, Note_on_c, 0, 52, 0
2, 283042, Control_c, 0, 64, 63
2, 283045, Control_c, 0, 64, 127
2, 283055, Note_on_c, 0, 56, 93
2, 283073, Note_on_c, 0, 54, 0
2, 283105, Note_on_c, 0, 57, 81
2, 283111, Note_on_c, 0, 56, 0
2, 283125, Note_on_c, 0, 78, 0
2, 283155, Note_on_c, 0, 58, 96
2, 283171, Note_on_c, 0, 57, 0
2, 283213, Control_c, 0, 64, 63
2, 283215, Note_on_c, 0, 76, 108
2, 283220, Control_c, 0, 64, 0
2, 283224, Note_on_c, 0, 59, 86
2, 283225, Control_c, 0, 64, 63
2, 283226, Note_on_c, 0, 58, 0
2, 283235, Control_c, 0, 64, 127
2, 283278, Note_on_c, 0, 61, 99
2, 283292, Note_on_c, 0, 59, 0
2, 283307, Note_on_c, 0, 68, 0
2, 283326, Note_on_c, 0, 71, 0
2, 283329, Note_on_c, 0, 63, 106
2, 283350, Note_on_c, 0, 61, 0
2, 283370, Note_on_c, 0, 64, 100
2, 283379, Note_on_c, 0, 76, 0
2, 283383, Note_on_c, 0, 73, 108
2, 283387, Note_on_c, 0, 63, 0
2, 283409, Note_on_c, 0, 73, 0
2, 283433, Note_on_c, 0, 71, 108
2, 283435, Note_on_c, 0, 69, 109
2, 283436, Note_on_c, 0, 66, 104
2, 283443, Control_c, 0, 64, 63
2, 283445, Note_on_c, 0, 64, 0
2, 283450, Control_c, 0, 64, 127
2, 283489, Note_on_c, 0, 68, 107
2, 283492, Note_on_c, 0, 65, 84
2, 283497, Note_on_c, 0, 66, 0
2, 283501, Note_on_c, 0, 71, 0
2, 283517, Note_on_c, 0, 69, 0
2, 283548, Note_on_c, 0, 68, 0
2, 283552, Note_on_c, 0, 69, 90
2, 283555, Note_on_c, 0, 66, 90
2, 283556, Note_on_c, 0, 65, 0
2, 283603, Note_on_c, 0, 66, 0
2, 283603, Note_on_c, 0, 68, 98
2, 283608, Note_on_c, 0, 64, 86
2, 283619, Note_on_c, 0, 69, 0
2, 283662, Note_on_c, 0, 63, 105
2, 283665, Note_on_c, 0, 66, 113
2, 283673, Note_on_c, 0, 64, 0
2, 283677, Control_c, 0, 64, 63
2, 283688, Control_c, 0, 64, 127
2, 283695, Note_on_c, 0, 68, 0
2, 283715, Note_on_c, 0, 65, 99
2, 283718, Note_on_c, 0, 62, 94
2, 283726, Note_on_c, 0, 63, 0
2, 283738, Note_on_c, 0, 66, 0
2, 283771, Note_on_c, 0, 65, 0
2, 283777, Note_on_c, 0, 63, 107
2, 283781, Note_on_c, 0, 62, 0
2, 283783, Note_on_c, 0, 66, 112
2, 283784, Control_c, 0, 64, 63
2, 283787, Control_c, 0, 64, 0
2, 283827, Note_on_c, 0, 63, 0
2, 283837, Note_on_c, 0, 64, 101
2, 283840, Note_on_c, 0, 61, 107
2, 283842, Note_on_c, 0, 66, 0
2, 283890, Note_on_c, 0, 64, 0
2, 283900, Note_on_c, 0, 61, 0
2, 283904, Note_on_c, 0, 59, 103
2, 283906, Note_on_c, 0, 63, 114
2, 283911, Control_c, 0, 64, 63
2, 283911, Control_c, 0, 64, 127
2, 283947, Note_on_c, 0, 63, 0
2, 283961, Control_c, 0, 64, 63
2, 283964, Control_c, 0, 64, 0
2, 283968, Note_on_c, 0, 66, 110
2, 283969, Note_on_c, 0, 58, 109
2, 283975, Note_on_c, 0, 59, 0
2, 283988, Control_c, 0, 64, 63
2, 283991, Control_c, 0, 64, 127
2, 284009, Note_on_c, 0, 66, 0
2, 284015, Control_c, 0, 64, 63
2, 284019, Control_c, 0, 64, 0
2, 284025, Note_on_c, 0, 58, 0
2, 284046, Note_on_c, 0, 57, 89
2, 284048, Note_on_c, 0, 61, 115
2, 284048, Control_c, 0, 64, 63
2, 284050, Control_c, 0, 64, 127
2, 284081, Note_on_c, 0, 61, 0
2, 284083, Control_c, 0, 64, 63
2, 284085, Control_c, 0, 64, 0
2, 284113, Note_on_c, 0, 57, 0
2, 284120, Control_c, 0, 64, 63
2, 284123, Control_c, 0, 64, 127
2, 284135, Note_on_c, 0, 63, 121
2, 284136, Note_on_c, 0, 47, 99
2, 284165, Note_on_c, 0, 47, 0
2, 284170, Note_on_c, 0, 63, 0
2, 284202, Control_c, 0, 64, 63
2, 284204, Control_c, 0, 64, 0
2, 284221, Note_on_c, 0, 40, 84
2, 284245, Control_c, 0, 64, 63
2, 284248, Control_c, 0, 64, 127
2, 284268, Note_on_c, 0, 47, 86
2, 284272, Note_on_c, 0, 40, 0
2, 284303, Note_on_c, 0, 47, 0
2, 284306, Note_on_c, 0, 64, 91
2, 284317, Note_on_c, 0, 56, 116
2, 284319, Note_on_c, 0, 71, 107
2, 284326, Note_on_c, 0, 76, 112
2, 284335, Note_on_c, 0, 64, 0
2, 284339, Note_on_c, 0, 56, 0
2, 284341, Note_on_c, 0, 71, 0
2, 284353, Note_on_c, 0, 76, 0
2, 284525, Note_on_c, 0, 52, 97
2, 284532, Note_on_c, 0, 56, 109
2, 284534, Control_c, 0, 64, 63
2, 284539, Control_c, 0, 64, 0
2, 284565, Note_on_c, 0, 56, 0
2, 284585, Note_on_c, 0, 52, 0
2, 284586, Note_on_c, 0, 54, 89
2, 284594, Note_on_c, 0, 57, 87
2, 284633, Note_on_c, 0, 57, 0
2, 284646, Note_on_c, 0, 54, 0
2, 284654, Note_on_c, 0, 59, 93
2, 284655, Note_on_c, 0, 56, 79
2, 284703, Note_on_c, 0, 56, 0
2, 284705, Note_on_c, 0, 52, 76
2, 284705, Note_on_c, 0, 64, 77
2, 284708, Note_on_c, 0, 59, 0
2, 284759, Note_on_c, 0, 54, 83
2, 284765, Note_on_c, 0, 52, 0
2, 284769, Note_on_c, 0, 63, 97
2, 284773, Note_on_c, 0, 64, 0
2, 284813, Note_on_c, 0, 54, 0
2, 284815, Note_on_c, 0, 57, 66
2, 284831, Note_on_c, 0, 61, 97
2, 284841, Note_on_c, 0, 63, 0
2, 284871, Note_on_c, 0, 56, 84
2, 284872, Control_c, 0, 64, 63
2, 284873, Control_c, 0, 64, 127
2, 284878, Note_on_c, 0, 57, 0
2, 284880, Note_on_c, 0, 61, 0
2, 284888, Note_on_c, 0, 59, 96
2, 284922, Note_on_c, 0, 52, 76
2, 284924, Note_on_c, 0, 56, 0
2, 284926, Control_c, 0, 64, 63
2, 284927, Note_on_c, 0, 59, 0
2, 284941, Control_c, 0, 64, 127
2, 284942, Note_on_c, 0, 68, 108
2, 284979, Control_c, 0, 64, 63
2, 284981, Note_on_c, 0, 57, 85
2, 284984, Control_c, 0, 64, 0
2, 284993, Note_on_c, 0, 66, 108
2, 284996, Note_on_c, 0, 52, 0
2, 285004, Control_c, 0, 64, 63
2, 285007, Control_c, 0, 64, 127
2, 285010, Note_on_c, 0, 68, 0
2, 285036, Note_on_c, 0, 61, 103
2, 285043, Note_on_c, 0, 57, 0
2, 285047, Note_on_c, 0, 64, 90
2, 285058, Note_on_c, 0, 66, 0
2, 285062, Control_c, 0, 64, 63
2, 285064, Control_c, 0, 64, 0
2, 285072, Note_on_c, 0, 64, 0
2, 285074, Note_on_c, 0, 61, 0
2, 285116, Note_on_c, 0, 54, 70
2, 285121, Note_on_c, 0, 59, 78
2, 285123, Control_c, 0, 64, 63
2, 285124, Control_c, 0, 64, 127
2, 285135, Note_on_c, 0, 63, 95
2, 285152, Note_on_c, 0, 71, 69
2, 285159, Note_on_c, 0, 59, 0
2, 285161, Note_on_c, 0, 54, 0
2, 285168, Note_on_c, 0, 63, 0
2, 285186, Note_on_c, 0, 78, 107
2, 285187, Note_on_c, 0, 47, 118
2, 285189, Note_on_c, 0, 71, 0
2, 285197, Note_on_c, 0, 78, 0
2, 285211, Note_on_c, 0, 47, 0
2, 285318, Note_on_c, 0, 59, 60
2, 285326, Note_on_c, 0, 63, 104
2, 285352, Control_c, 0, 64, 63
2, 285355, Control_c, 0, 64, 0
2, 285364, Note_on_c, 0, 63, 0
2, 285367, Note_on_c, 0, 61, 86
2, 285375, Note_on_c, 0, 64, 78
2, 285377, Note_on_c, 0, 59, 0
2, 285424, Note_on_c, 0, 63, 77
2, 285425, Note_on_c, 0, 64, 0
2, 285430, Note_on_c, 0, 66, 103
2, 285432, Note_on_c, 0, 61, 0
2, 285462, Control_c, 0, 64, 63
2, 285462, Control_c, 0, 64, 127
2, 285479, Note_on_c, 0, 66, 0
2, 285484, Note_on_c, 0, 59, 79
2, 285485, Note_on_c, 0, 71, 88
2, 285486, Note_on_c, 0, 63, 0
2, 285524, Control_c, 0, 64, 63
2, 285526, Control_c, 0, 64, 0
2, 285541, Note_on_c, 0, 61, 86
2, 285544, Note_on_c, 0, 59, 0
2, 285544, Note_on_c, 0, 71, 0
2, 285552, Control_c, 0, 64, 63
2, 285556, Control_c, 0, 64, 127
2, 285557, Note_on_c, 0, 69, 84
2, 285590, Note_on_c, 0, 61, 0
2, 285597, Note_on_c, 0, 68, 104
2, 285601, Note_on_c, 0, 64, 68
2, 285608, Note_on_c, 0, 69, 0
2, 285632, Control_c, 0, 64, 63
2, 285634, Note_on_c, 0, 68, 0
2, 285634, Control_c, 0, 64, 0
2, 285651, Note_on_c, 0, 63, 90
2, 285652, Note_on_c, 0, 64, 0
2, 285655, Control_c, 0, 64, 63
2, 285658, Note_on_c, 0, 66, 115
2, 285660, Control_c, 0, 64, 127
2, 285692, Note_on_c, 0, 66, 0
2, 285705, Note_on_c, 0, 59, 87
2, 285707, Note_on_c, 0, 63, 0
2, 285710, Control_c, 0, 64, 63
2, 285715, Note_on_c, 0, 73, 106
2, 285716, Control_c, 0, 64, 0
2, 285726, Control_c, 0, 64, 63
2, 285733, Control_c, 0, 64, 127
2, 285757, Note_on_c, 0, 63, 92
2, 285770, Note_on_c, 0, 59, 0
2, 285771, Note_on_c, 0, 71, 96
2, 285771, Control_c, 0, 64, 63
2, 285774, Control_c, 0, 64, 0
2, 285784, Note_on_c, 0, 73, 0
2, 285796, Control_c, 0, 64, 63
2, 285799, Control_c, 0, 64, 127
2, 285812, Note_on_c, 0, 66, 101
2, 285814, Note_on_c, 0, 69, 84
2, 285817, Note_on_c, 0, 63, 0
2, 285825, Note_on_c, 0, 71, 0
2, 285839, Note_on_c, 0, 69, 0
2, 285840, Note_on_c, 0, 66, 0
2, 285875, Control_c, 0, 64, 63
2, 285880, Control_c, 0, 64, 0
2, 285893, Note_on_c, 0, 68, 93
2, 285895, Control_c, 0, 64, 63
2, 285898, Note_on_c, 0, 64, 63
2, 285902, Control_c, 0, 64, 127
2, 285902, Note_on_c, 0, 59, 75
2, 285908, Note_on_c, 0, 76, 80
2, 285916, Note_on_c, 0, 64, 0
2, 285919, Note_on_c, 0, 68, 0
2, 285943, Note_on_c, 0, 76, 0
2, 285943, Note_on_c, 0, 83, 113
2, 285944, Note_on_c, 0, 59, 0
2, 285951, Note_on_c, 0, 52, 122
2, 285966, Note_on_c, 0, 83, 0
2, 285982, Note_on_c, 0, 52, 0
2, 286093, Note_on_c, 0, 64, 60
2, 286100, Note_on_c, 0, 68, 100
2, 286133, Control_c, 0, 64, 63
2, 286138, Note_on_c, 0, 68, 0
2, 286138, Control_c, 0, 64, 0
2, 286141, Note_on_c, 0, 66, 90
2, 286143, Note_on_c, 0, 69, 87
2, 286148, Note_on_c, 0, 64, 0
2, 286187, Note_on_c, 0, 69, 0
2, 286192, Note_on_c, 0, 66, 0
2, 286196, Note_on_c, 0, 68, 89
2, 286199, Note_on_c, 0, 71, 106
2, 286220, Control_c, 0, 64, 63
2, 286221, Control_c, 0, 64, 127
2, 286240, Note_on_c, 0, 68, 0
2, 286243, Note_on_c, 0, 76, 98
2, 286245, Note_on_c, 0, 64, 78
2, 286251, Note_on_c, 0, 71, 0
2, 286290, Control_c, 0, 64, 63
2, 286294, Control_c, 0, 64, 0
2, 286297, Note_on_c, 0, 66, 90
2, 286305, Note_on_c, 0, 64, 0
2, 286308, Note_on_c, 0, 76, 0
2, 286311, Note_on_c, 0, 75, 88
2, 286314, Control_c, 0, 64, 63
2, 286320, Control_c, 0, 64, 127
2, 286354, Note_on_c, 0, 66, 0
2, 286354, Control_c, 0, 64, 63
2, 286355, Note_on_c, 0, 73, 105
2, 286359, Note_on_c, 0, 69, 65
2, 286361, Control_c, 0, 64, 0
2, 286364, Note_on_c, 0, 75, 0
2, 286390, Control_c, 0, 64, 63
2, 286396, Control_c, 0, 64, 127
2, 286399, Note_on_c, 0, 73, 0
2, 286405, Note_on_c, 0, 68, 90
2, 286415, Note_on_c, 0, 71, 102
2, 286417, Note_on_c, 0, 69, 0
2, 286460, Note_on_c, 0, 71, 0
2, 286465, Note_on_c, 0, 64, 88
2, 286468, Note_on_c, 0, 68, 0
2, 286471, Note_on_c, 0, 80, 114
2, 286483, Control_c, 0, 64, 63
2, 286488, Control_c, 0, 64, 0
2, 286516, Note_on_c, 0, 69, 86
2, 286525, Control_c, 0, 64, 63
2, 286528, Note_on_c, 0, 78, 106
2, 286530, Control_c, 0, 64, 127
2, 286541, Note_on_c, 0, 80, 0
2, 286546, Note_on_c, 0, 64, 0
2, 286571, Note_on_c, 0, 73, 107
2, 286575, Note_on_c, 0, 76, 97
2, 286581, Note_on_c, 0, 69, 0
2, 286585, Note_on_c, 0, 78, 0
2, 286598, Control_c, 0, 64, 63
2, 286600, Note_on_c, 0, 76, 0
2, 286602, Note_on_c, 0, 73, 0
2, 286604, Control_c, 0, 64, 0
2, 286648, Control_c, 0, 64, 63
2, 286655, Control_c, 0, 64, 127
2, 286662, Note_on_c, 0, 71, 86
2, 286664, Note_on_c, 0, 66, 90
2, 286666, Note_on_c, 0, 75, 104
2, 286680, Note_on_c, 0, 83, 72
2, 286693, Note_on_c, 0, 71, 0
2, 286694, Note_on_c, 0, 75, 0
2, 286695, Note_on_c, 0, 66, 0
2, 286708, Note_on_c, 0, 90, 110
2, 286710, Note_on_c, 0, 83, 0
2, 286714, Note_on_c, 0, 59, 121
2, 286730, Note_on_c, 0, 90, 0
2, 286742, Note_on_c, 0, 59, 0
2, 286851, Note_on_c, 0, 75, 106
2, 286853, Note_on_c, 0, 71, 71
2, 286894, Note_on_c, 0, 73, 99
2, 286897, Note_on_c, 0, 75, 0
2, 286897, Note_on_c, 0, 76, 98
2, 286909, Note_on_c, 0, 71, 0
2, 286943, Note_on_c, 0, 76, 0
2, 286952, Control_c, 0, 64, 63
2, 286952, Note_on_c, 0, 78, 110
2, 286956, Control_c, 0, 64, 0
2, 286956, Note_on_c, 0, 75, 108
2, 286967, Note_on_c, 0, 73, 0
2, 286996, Note_on_c, 0, 78, 0
2, 287005, Note_on_c, 0, 83, 88
2, 287007, Note_on_c, 0, 71, 91
2, 287008, Note_on_c, 0, 75, 0
2, 287052, Note_on_c, 0, 73, 90
2, 287062, Note_on_c, 0, 71, 0
2, 287067, Note_on_c, 0, 81, 92
2, 287081, Note_on_c, 0, 83, 0
2, 287106, Control_c, 0, 64, 63
2, 287108, Control_c, 0, 64, 127
2, 287108, Note_on_c, 0, 76, 84
2, 287109, Note_on_c, 0, 80, 107
2, 287118, Note_on_c, 0, 73, 0
2, 287122, Note_on_c, 0, 81, 0
2, 287148, Note_on_c, 0, 80, 0
2, 287171, Note_on_c, 0, 75, 98
2, 287172, Note_on_c, 0, 78, 110
2, 287173, Note_on_c, 0, 76, 0
2, 287176, Control_c, 0, 64, 63
2, 287183, Control_c, 0, 64, 0
2, 287204, Control_c, 0, 64, 63
2, 287205, Note_on_c, 0, 78, 0
2, 287217, Control_c, 0, 64, 127
2, 287223, Note_on_c, 0, 71, 82
2, 287224, Note_on_c, 0, 75, 0
2, 287234, Control_c, 0, 64, 63
2, 287235, Note_on_c, 0, 85, 104
2, 287262, Control_c, 0, 64, 127
2, 287278, Note_on_c, 0, 75, 93
2, 287294, Note_on_c, 0, 83, 91
2, 287297, Note_on_c, 0, 71, 0
2, 287297, Control_c, 0, 64, 63
2, 287307, Note_on_c, 0, 85, 0
2, 287309, Control_c, 0, 64, 0
2, 287337, Note_on_c, 0, 78, 89
2, 287339, Note_on_c, 0, 81, 102
2, 287350, Note_on_c, 0, 75, 0
2, 287360, Note_on_c, 0, 83, 0
2, 287370, Note_on_c, 0, 78, 0
2, 287401, Note_on_c, 0, 80, 121
2, 287405, Note_on_c, 0, 81, 0
2, 287406, Control_c, 0, 64, 127
2, 287406, Note_on_c, 0, 76, 114
2, 287428, Note_on_c, 0, 80, 0
2, 287436, Note_on_c, 0, 76, 0
2, 287581, Note_on_c, 0, 93, 101
2, 287633, Control_c, 0, 64, 63
2, 287636, Control_c, 0, 64, 0
2, 287661, Note_on_c, 0, 88, 69
2, 287664, Control_c, 0, 64, 63
2, 287670, Control_c, 0, 64, 127
2, 287689, Note_on_c, 0, 93, 0
2, 287722, Note_on_c, 0, 88, 0
2, 287737, Note_on_c, 0, 92, 84
2, 287743, Note_on_c, 0, 47, 63
2, 287798, Note_on_c, 0, 87, 87
2, 287799, Note_on_c, 0, 92, 0
2, 287839, Note_on_c, 0, 47, 0
2, 287847, Note_on_c, 0, 87, 0
2, 287856, Note_on_c, 0, 90, 100
2, 287897, Note_on_c, 0, 90, 0
2, 287906, Note_on_c, 0, 83, 85
2, 287943, Note_on_c, 0, 83, 0
2, 287968, Note_on_c, 0, 63, 82
2, 287969, Note_on_c, 0, 69, 70
2, 287987, Note_on_c, 0, 59, 50
2, 287989, Note_on_c, 0, 80, 91
2, 288034, Note_on_c, 0, 69, 0
2, 288042, Note_on_c, 0, 78, 103
2, 288045, Note_on_c, 0, 59, 0
2, 288046, Note_on_c, 0, 63, 0
2, 288049, Note_on_c, 0, 80, 0
2, 288089, Note_on_c, 0, 75, 92
2, 288114, Note_on_c, 0, 78, 0
2, 288134, Note_on_c, 0, 52, 68
2, 288138, Note_on_c, 0, 75, 0
2, 288138, Note_on_c, 0, 71, 89
2, 288169, Control_c, 0, 64, 63
2, 288176, Note_on_c, 0, 59, 78
2, 288179, Note_on_c, 0, 71, 0
2, 288181, Note_on_c, 0, 52, 0
2, 288185, Control_c, 0, 64, 127
2, 288203, Note_on_c, 0, 76, 82
2, 288214, Note_on_c, 0, 59, 0
2, 288216, Note_on_c, 0, 68, 107
2, 288241, Note_on_c, 0, 68, 0
2, 288269, Note_on_c, 0, 76, 0
2, 288269, Note_on_c, 0, 80, 104
2, 288304, Note_on_c, 0, 80, 0
2, 288330, Note_on_c, 0, 83, 96
2, 288368, Note_on_c, 0, 83, 0
2, 288381, Note_on_c, 0, 93, 101
2, 288437, Note_on_c, 0, 47, 113
2, 288440, Control_c, 0, 64, 63
2, 288442, Note_on_c, 0, 92, 104
2, 288457, Note_on_c, 0, 93, 0
2, 288461, Control_c, 0, 64, 127
2, 288497, Note_on_c, 0, 87, 106
2, 288501, Note_on_c, 0, 47, 0
2, 288503, Note_on_c, 0, 92, 0
2, 288554, Note_on_c, 0, 90, 104
2, 288560, Note_on_c, 0, 87, 0
2, 288594, Note_on_c, 0, 90, 0
2, 288604, Note_on_c, 0, 83, 88
2, 288639, Note_on_c, 0, 83, 0
2, 288659, Note_on_c, 0, 69, 107
2, 288661, Note_on_c, 0, 59, 101
2, 288662, Note_on_c, 0, 63, 103
2, 288672, Note_on_c, 0, 80, 109
2, 288685, Note_on_c, 0, 69, 0
2, 288689, Note_on_c, 0, 63, 0
2, 288696, Note_on_c, 0, 59, 0
2, 288725, Note_on_c, 0, 78, 109
2, 288738, Note_on_c, 0, 80, 0
2, 288773, Note_on_c, 0, 75, 105
2, 288795, Note_on_c, 0, 78, 0
2, 288820, Note_on_c, 0, 71, 91
2, 288842, Note_on_c, 0, 75, 0
2, 288848, Control_c, 0, 64, 63
2, 288859, Note_on_c, 0, 71, 0
2, 288867, Control_c, 0, 64, 127
2, 288883, Note_on_c, 0, 52, 85
2, 288885, Note_on_c, 0, 83, 91
2, 288888, Note_on_c, 0, 80, 92
2, 288920, Note_on_c, 0, 52, 0
2, 288927, Note_on_c, 0, 83, 0
2, 288945, Note_on_c, 0, 80, 0
2, 288945, Note_on_c, 0, 71, 76
2, 288973, Note_on_c, 0, 71, 0
2, 288998, Note_on_c, 0, 81, 97
2, 289000, Note_on_c, 0, 56, 77
2, 289001, Note_on_c, 0, 64, 79
2, 289003, Note_on_c, 0, 59, 74
2, 289007, Note_on_c, 0, 78, 98
2, 289030, Note_on_c, 0, 64, 0
2, 289032, Note_on_c, 0, 56, 0
2, 289038, Note_on_c, 0, 81, 0
2, 289039, Note_on_c, 0, 78, 0
2, 289043, Note_on_c, 0, 59, 0
2, 289050, Note_on_c, 0, 76, 104
2, 289061, Note_on_c, 0, 80, 98
2, 289084, Note_on_c, 0, 76, 0
2, 289092, Control_c, 0, 64, 63
2, 289096, Note_on_c, 0, 80, 0
2, 289110, Control_c, 0, 64, 127
2, 289110, Note_on_c, 0, 78, 115
2, 289112, Note_on_c, 0, 66, 114
2, 289114, Note_on_c, 0, 59, 87
2, 289118, Note_on_c, 0, 57, 74
2, 289138, Note_on_c, 0, 75, 97
2, 289152, Note_on_c, 0, 66, 0
2, 289164, Note_on_c, 0, 71, 79
2, 289165, Note_on_c, 0, 59, 0
2, 289173, Note_on_c, 0, 78, 0
2, 289183, Note_on_c, 0, 57, 0
2, 289189, Note_on_c, 0, 75, 0
2, 289205, Note_on_c, 0, 71, 0
2, 289221, Note_on_c, 0, 78, 114
2, 289230, Note_on_c, 0, 75, 94
2, 289264, Note_on_c, 0, 75, 0
2, 289275, Note_on_c, 0, 76, 100
2, 289277, Note_on_c, 0, 80, 105
2, 289293, Note_on_c, 0, 78, 0
2, 289309, Note_on_c, 0, 76, 0
2, 289310, Note_on_c, 0, 80, 0
2, 289332, Note_on_c, 0, 81, 117
2, 289334, Note_on_c, 0, 78, 110
2, 289375, Note_on_c, 0, 71, 101
2, 289384, Note_on_c, 0, 81, 0
2, 289401, Note_on_c, 0, 78, 0
2, 289418, Control_c, 0, 64, 63
2, 289421, Note_on_c, 0, 71, 0
2, 289422, Control_c, 0, 64, 0
2, 289435, Note_on_c, 0, 35, 108
2, 289436, Note_on_c, 0, 47, 118
2, 289439, Note_on_c, 0, 81, 109
2, 289440, Control_c, 0, 64, 63
2, 289441, Note_on_c, 0, 78, 105
2, 289446, Control_c, 0, 64, 127
2, 289457, Note_on_c, 0, 35, 0
2, 289461, Note_on_c, 0, 47, 0
2, 289463, Note_on_c, 0, 81, 0
2, 289466, Note_on_c, 0, 78, 0
2, 289495, Note_on_c, 0, 85, 105
2, 289501, Control_c, 0, 64, 63
2, 289504, Control_c, 0, 64, 0
2, 289529, Note_on_c, 0, 85, 0
2, 289564, Control_c, 0, 64, 127
2, 289567, Note_on_c, 0, 40, 109
2, 289568, Note_on_c, 0, 52, 112
2, 289572, Note_on_c, 0, 80, 107
2, 289573, Note_on_c, 0, 83, 98
2, 289592, Note_on_c, 0, 40, 0
2, 289594, Note_on_c, 0, 52, 0
2, 289603, Note_on_c, 0, 83, 0
2, 289614, Note_on_c, 0, 80, 0
2, 289619, Note_on_c, 0, 71, 88
2, 289650, Note_on_c, 0, 71, 0
2, 289687, Note_on_c, 0, 56, 94
2, 289687, Note_on_c, 0, 64, 97
2, 289688, Note_on_c, 0, 81, 106
2, 289690, Note_on_c, 0, 78, 106
2, 289693, Note_on_c, 0, 59, 78
2, 289716, Note_on_c, 0, 78, 0
2, 289718, Note_on_c, 0, 59, 0
2, 289721, Note_on_c, 0, 64, 0
2, 289732, Note_on_c, 0, 56, 0
2, 289737, Note_on_c, 0, 76, 104
2, 289744, Note_on_c, 0, 80, 99
2, 289761, Note_on_c, 0, 81, 0
2, 289771, Note_on_c, 0, 76, 0
2, 289783, Note_on_c, 0, 80, 0
2, 289792, Control_c, 0, 64, 63
2, 289796, Control_c, 0, 64, 0
2, 289799, Note_on_c, 0, 66, 123
2, 289799, Note_on_c, 0, 59, 102
2, 289800, Note_on_c, 0, 78, 120
2, 289802, Note_on_c, 0, 57, 87
2, 289812, Note_on_c, 0, 75, 103
2, 289816, Control_c, 0, 64, 63
2, 289821, Control_c, 0, 64, 127
2, 289848, Note_on_c, 0, 71, 90
2, 289863, Note_on_c, 0, 78, 0
2, 289870, Note_on_c, 0, 66, 0
2, 289872, Note_on_c, 0, 75, 0
2, 289881, Note_on_c, 0, 59, 0
2, 289889, Note_on_c, 0, 71, 0
2, 289901, Note_on_c, 0, 57, 0
2, 289908, Note_on_c, 0, 78, 112
2, 289911, Note_on_c, 0, 75, 106
2, 289961, Note_on_c, 0, 80, 108
2, 289964, Note_on_c, 0, 76, 93
2, 289983, Note_on_c, 0, 78, 0
2, 289983, Note_on_c, 0, 75, 0
2, 290000, Note_on_c, 0, 76, 0
2, 290002, Note_on_c, 0, 80, 0
2, 290026, Note_on_c, 0, 81, 113
2, 290029, Note_on_c, 0, 78, 108
2, 290078, Note_on_c, 0, 71, 93
2, 290082, Note_on_c, 0, 81, 0
2, 290105, Note_on_c, 0, 78, 0
2, 290130, Note_on_c, 0, 71, 0
2, 290152, Note_on_c, 0, 35, 127
2, 290156, Note_on_c, 0, 81, 106
2, 290158, Note_on_c, 0, 78, 106
2, 290185, Note_on_c, 0, 81, 0
2, 290192, Note_on_c, 0, 78, 0
2, 290193, Note_on_c, 0, 35, 0
2, 290228, Note_on_c, 0, 85, 114
2, 290258, Note_on_c, 0, 85, 0
2, 290344, Note_on_c, 0, 38, 127
2, 290352, Note_on_c, 0, 80, 109
2, 290354, Note_on_c, 0, 83, 106
2, 290354, Note_on_c, 0, 71, 109
2, 290355, Note_on_c, 0, 78, 103
2, 290361, Control_c, 0, 64, 63
2, 290365, Control_c, 0, 64, 0
2, 290467, Note_on_c, 0, 42, 81
2, 290480, Control_c, 0, 64, 127
2, 290492, Note_on_c, 0, 38, 0
2, 290521, Note_on_c, 0, 44, 80
2, 290532, Note_on_c, 0, 42, 0
2, 290556, Note_on_c, 0, 44, 0
2, 290564, Note_on_c, 0, 50, 81
2, 290605, Note_on_c, 0, 50, 0
2, 290620, Note_on_c, 0, 54, 100
2, 290675, Note_on_c, 0, 56, 95
2, 290688, Note_on_c, 0, 83, 0
2, 290694, Note_on_c, 0, 54, 0
2, 290696, Note_on_c, 0, 78, 0
2, 290701, Note_on_c, 0, 80, 0
2, 290707, Note_on_c, 0, 71, 0
2, 290720, Note_on_c, 0, 62, 91
2, 290721, Note_on_c, 0, 56, 0
2, 290757, Note_on_c, 0, 62, 0
2, 290769, Note_on_c, 0, 50, 88
2, 290778, Note_on_c, 0, 52, 51
2, 290796, Note_on_c, 0, 52, 0
2, 290804, Note_on_c, 0, 50, 0
2, 290814, Control_c, 0, 64, 63
2, 290815, Control_c, 0, 64, 0
2, 290827, Note_on_c, 0, 71, 107
2, 290827, Note_on_c, 0, 83, 107
2, 290827, Note_on_c, 0, 77, 107
2, 290841, Note_on_c, 0, 49, 104
2, 290850, Control_c, 0, 64, 63
2, 290854, Control_c, 0, 64, 127
2, 290893, Note_on_c, 0, 49, 0
2, 290894, Note_on_c, 0, 48, 93
2, 290944, Note_on_c, 0, 49, 98
2, 290952, Note_on_c, 0, 48, 0
2, 290960, Note_on_c, 0, 83, 0
2, 290963, Note_on_c, 0, 77, 0
2, 290977, Note_on_c, 0, 71, 0
2, 290982, Note_on_c, 0, 49, 0
2, 290994, Note_on_c, 0, 61, 108
2, 291023, Note_on_c, 0, 61, 0
2, 291062, Note_on_c, 0, 83, 104
2, 291063, Note_on_c, 0, 71, 106
2, 291063, Note_on_c, 0, 55, 116
2, 291064, Note_on_c, 0, 76, 103
2, 291073, Control_c, 0, 64, 63
2, 291082, Control_c, 0, 64, 0
2, 291092, Control_c, 0, 64, 63
2, 291107, Control_c, 0, 64, 127
2, 291149, Note_on_c, 0, 55, 0
2, 291176, Note_on_c, 0, 67, 93
2, 291228, Note_on_c, 0, 67, 0
2, 291230, Note_on_c, 0, 61, 100
2, 291271, Note_on_c, 0, 59, 96
2, 291276, Note_on_c, 0, 61, 0
2, 291295, Note_on_c, 0, 59, 0
2, 291329, Note_on_c, 0, 55, 94
2, 291381, Note_on_c, 0, 49, 104
2, 291382, Note_on_c, 0, 55, 0
2, 291411, Note_on_c, 0, 83, 0
2, 291426, Note_on_c, 0, 71, 0
2, 291433, Note_on_c, 0, 47, 93
2, 291437, Note_on_c, 0, 76, 0
2, 291437, Note_on_c, 0, 49, 0
2, 291476, Note_on_c, 0, 43, 98
2, 291487, Note_on_c, 0, 47, 0
2, 291523, Note_on_c, 0, 43, 0
2, 291546, Note_on_c, 0, 76, 103
2, 291547, Control_c, 0, 64, 63
2, 291547, Note_on_c, 0, 82, 113
2, 291548, Note_on_c, 0, 70, 116
2, 291556, Note_on_c, 0, 42, 105
2, 291569, Control_c, 0, 64, 127
2, 291610, Note_on_c, 0, 42, 0
2, 291612, Note_on_c, 0, 41, 83
2, 291637, Note_on_c, 0, 82, 0
2, 291643, Note_on_c, 0, 70, 0
2, 291671, Note_on_c, 0, 76, 0
2, 291671, Note_on_c, 0, 42, 95
2, 291676, Note_on_c, 0, 41, 0
2, 291724, Note_on_c, 0, 42, 0
2, 291734, Note_on_c, 0, 54, 106
2, 291760, Note_on_c, 0, 54, 0
2, 291837, Note_on_c, 0, 36, 120
2, 291858, Note_on_c, 0, 81, 108
2, 291860, Note_on_c, 0, 69, 96
2, 291861, Note_on_c, 0, 76, 100
2, 291885, Control_c, 0, 64, 63
2, 291887, Control_c, 0, 64, 0
2, 291935, Control_c, 0, 64, 63
2, 291939, Control_c, 0, 64, 127
2, 291958, Note_on_c, 0, 40, 72
2, 291978, Note_on_c, 0, 36, 0
2, 292007, Note_on_c, 0, 69, 0
2, 292015, Note_on_c, 0, 42, 84
2, 292027, Note_on_c, 0, 40, 0
2, 292049, Note_on_c, 0, 42, 0
2, 292049, Note_on_c, 0, 81, 0
2, 292052, Note_on_c, 0, 48, 86
2, 292055, Note_on_c, 0, 76, 0
2, 292089, Note_on_c, 0, 48, 0
2, 292107, Note_on_c, 0, 52, 100
2, 292159, Note_on_c, 0, 54, 103
2, 292179, Note_on_c, 0, 52, 0
2, 292202, Note_on_c, 0, 78, 115
2, 292204, Note_on_c, 0, 60, 91
2, 292213, Note_on_c, 0, 54, 0
2, 292241, Note_on_c, 0, 60, 0
2, 292248, Note_on_c, 0, 48, 103
2, 292254, Note_on_c, 0, 76, 99
2, 292277, Note_on_c, 0, 78, 0
2, 292281, Note_on_c, 0, 48, 0
2, 292294, Note_on_c, 0, 76, 0
2, 292314, Note_on_c, 0, 47, 104
2, 292318, Note_on_c, 0, 75, 112
2, 292318, Note_on_c, 0, 81, 100
2, 292321, Note_on_c, 0, 69, 91
2, 292331, Control_c, 0, 64, 63
2, 292336, Control_c, 0, 64, 0
2, 292351, Control_c, 0, 64, 63
2, 292363, Control_c, 0, 64, 127
2, 292370, Note_on_c, 0, 47, 0
2, 292399, Note_on_c, 0, 46, 110
2, 292448, Note_on_c, 0, 46, 0
2, 292450, Note_on_c, 0, 81, 0
2, 292451, Note_on_c, 0, 47, 65
2, 292455, Note_on_c, 0, 69, 0
2, 292457, Note_on_c, 0, 75, 0
2, 292505, Note_on_c, 0, 47, 0
2, 292509, Note_on_c, 0, 59, 106
2, 292541, Note_on_c, 0, 59, 0
2, 292556, Note_on_c, 0, 81, 113
2, 292557, Note_on_c, 0, 69, 107
2, 292558, Note_on_c, 0, 74, 106
2, 292568, Note_on_c, 0, 53, 113
2, 292568, Control_c, 0, 64, 63
2, 292575, Control_c, 0, 64, 0
2, 292587, Control_c, 0, 64, 63
2, 292602, Control_c, 0, 64, 127
2, 292634, Note_on_c, 0, 65, 99
2, 292651, Note_on_c, 0, 53, 0
2, 292675, Note_on_c, 0, 65, 0
2, 292699, Note_on_c, 0, 59, 86
2, 292736, Note_on_c, 0, 57, 83
2, 292746, Note_on_c, 0, 59, 0
2, 292761, Note_on_c, 0, 57, 0
2, 292796, Note_on_c, 0, 53, 93
2, 292852, Note_on_c, 0, 47, 92
2, 292854, Note_on_c, 0, 53, 0
2, 292906, Note_on_c, 0, 45, 93
2, 292913, Note_on_c, 0, 47, 0
2, 292928, Note_on_c, 0, 81, 0
2, 292945, Note_on_c, 0, 69, 0
2, 292950, Note_on_c, 0, 41, 90
2, 292966, Note_on_c, 0, 45, 0
2, 292970, Note_on_c, 0, 74, 0
2, 292999, Note_on_c, 0, 41, 0
2, 293027, Note_on_c, 0, 40, 98
2, 293029, Note_on_c, 0, 80, 112
2, 293030, Note_on_c, 0, 74, 101
2, 293031, Note_on_c, 0, 71, 102
2, 293038, Note_on_c, 0, 39, 73
2, 293046, Control_c, 0, 64, 63
2, 293054, Note_on_c, 0, 39, 0
2, 293072, Control_c, 0, 64, 127
2, 293117, Note_on_c, 0, 39, 104
2, 293131, Note_on_c, 0, 40, 0
2, 293167, Note_on_c, 0, 40, 89
2, 293173, Note_on_c, 0, 71, 0
2, 293183, Note_on_c, 0, 39, 0
2, 293203, Note_on_c, 0, 80, 0
2, 293225, Note_on_c, 0, 40, 0
2, 293226, Note_on_c, 0, 74, 0
2, 293229, Note_on_c, 0, 52, 93
2, 293283, Note_on_c, 0, 52, 0
2, 293318, Note_on_c, 0, 39, 109
2, 293323, Note_on_c, 0, 80, 114
2, 293327, Note_on_c, 0, 75, 113
2, 293328, Note_on_c, 0, 72, 107
2, 293339, Control_c, 0, 64, 63
2, 293342, Control_c, 0, 64, 0
2, 293393, Control_c, 0, 64, 63
2, 293396, Control_c, 0, 64, 127
2, 293418, Note_on_c, 0, 39, 0
2, 293429, Note_on_c, 0, 51, 84
2, 293461, Note_on_c, 0, 51, 0
2, 293498, Note_on_c, 0, 56, 83
2, 293543, Note_on_c, 0, 56, 0
2, 293548, Note_on_c, 0, 60, 87
2, 293602, Note_on_c, 0, 63, 100
2, 293606, Note_on_c, 0, 60, 0
2, 293644, Note_on_c, 0, 63, 0
2, 293656, Note_on_c, 0, 51, 99
2, 293681, Note_on_c, 0, 51, 0
2, 293681, Note_on_c, 0, 72, 0
2, 293697, Note_on_c, 0, 80, 0
2, 293715, Note_on_c, 0, 75, 0
2, 293715, Note_on_c, 0, 65, 86
2, 293761, Note_on_c, 0, 63, 105
2, 293763, Note_on_c, 0, 65, 0
2, 293788, Note_on_c, 0, 63, 0
2, 293827, Note_on_c, 0, 58, 97
2, 293828, Note_on_c, 0, 79, 106
2, 293830, Note_on_c, 0, 67, 97
2, 293831, Note_on_c, 0, 73, 100
2, 293861, Control_c, 0, 64, 63
2, 293866, Control_c, 0, 64, 0
2, 293878, Note_on_c, 0, 51, 85
2, 293879, Note_on_c, 0, 58, 0
2, 293883, Control_c, 0, 64, 63
2, 293896, Control_c, 0, 64, 127
2, 293932, Note_on_c, 0, 67, 0
2, 293933, Note_on_c, 0, 79, 0
2, 293935, Note_on_c, 0, 51, 0
2, 293940, Note_on_c, 0, 57, 80
2, 293952, Note_on_c, 0, 73, 0
2, 293990, Note_on_c, 0, 58, 103
2, 293999, Note_on_c, 0, 57, 0
2, 294018, Control_c, 0, 64, 63
2, 294020, Control_c, 0, 64, 0
2, 294045, Note_on_c, 0, 58, 0
2, 294046, Note_on_c, 0, 59, 108
2, 294048, Note_on_c, 0, 71, 100
2, 294049, Note_on_c, 0, 80, 109
2, 294051, Control_c, 0, 64, 63
2, 294052, Note_on_c, 0, 68, 101
2, 294057, Control_c, 0, 64, 127
2, 294076, Note_on_c, 0, 59, 0
2, 294113, Note_on_c, 0, 40, 97
2, 294175, Note_on_c, 0, 40, 0
2, 294178, Note_on_c, 0, 47, 76
2, 294211, Note_on_c, 0, 47, 0
2, 294223, Note_on_c, 0, 52, 88
2, 294260, Note_on_c, 0, 52, 0
2, 294273, Note_on_c, 0, 56, 100
2, 294315, Note_on_c, 0, 56, 0
2, 294318, Note_on_c, 0, 52, 85
2, 294358, Note_on_c, 0, 80, 0
2, 294374, Note_on_c, 0, 52, 0
2, 294388, Note_on_c, 0, 61, 107
2, 294402, Note_on_c, 0, 68, 0
2, 294408, Note_on_c, 0, 71, 0
2, 294419, Note_on_c, 0, 61, 0
2, 294439, Note_on_c, 0, 59, 75
2, 294475, Note_on_c, 0, 59, 0
2, 294499, Note_on_c, 0, 57, 83
2, 294501, Note_on_c, 0, 78, 114
2, 294502, Note_on_c, 0, 73, 110
2, 294503, Note_on_c, 0, 69, 101
2, 294511, Control_c, 0, 64, 63
2, 294515, Control_c, 0, 64, 0
2, 294537, Control_c, 0, 64, 63
2, 294538, Note_on_c, 0, 57, 0
2, 294549, Control_c, 0, 64, 127
2, 294550, Note_on_c, 0, 45, 81
2, 294609, Note_on_c, 0, 49, 89
2, 294610, Note_on_c, 0, 45, 0
2, 294638, Note_on_c, 0, 69, 0
2, 294654, Note_on_c, 0, 49, 0
2, 294661, Note_on_c, 0, 54, 83
2, 294699, Note_on_c, 0, 54, 0
2, 294716, Note_on_c, 0, 47, 82
2, 294737, Note_on_c, 0, 68, 93
2, 294772, Control_c, 0, 64, 63
2, 294779, Control_c, 0, 64, 0
2, 294782, Note_on_c, 0, 49, 70
2, 294804, Note_on_c, 0, 47, 0
2, 294816, Control_c, 0, 64, 63
2, 294825, Control_c, 0, 64, 127
2, 294848, Note_on_c, 0, 51, 88
2, 294870, Note_on_c, 0, 49, 0
2, 294891, Note_on_c, 0, 52, 73
2, 294895, Note_on_c, 0, 51, 0
2, 294942, Note_on_c, 0, 54, 93
2, 294958, Note_on_c, 0, 71, 99
2, 294961, Note_on_c, 0, 52, 0
2, 294968, Control_c, 0, 64, 63
2, 294976, Control_c, 0, 64, 0
2, 294992, Note_on_c, 0, 73, 0
2, 295006, Note_on_c, 0, 56, 99
2, 295008, Control_c, 0, 64, 63
2, 295018, Control_c, 0, 64, 127
2, 295029, Note_on_c, 0, 54, 0
2, 295057, Note_on_c, 0, 78, 0
2, 295057, Note_on_c, 0, 57, 98
2, 295069, Note_on_c, 0, 56, 0
2, 295105, Note_on_c, 0, 58, 112
2, 295129, Note_on_c, 0, 57, 0
2, 295170, Note_on_c, 0, 59, 99
2, 295171, Note_on_c, 0, 76, 108
2, 295171, Control_c, 0, 64, 63
2, 295176, Note_on_c, 0, 58, 0
2, 295210, Control_c, 0, 64, 127
2, 295221, Note_on_c, 0, 61, 113
2, 295237, Note_on_c, 0, 59, 0
2, 295274, Note_on_c, 0, 63, 115
2, 295282, Note_on_c, 0, 68, 0
2, 295285, Note_on_c, 0, 76, 0
2, 295292, Note_on_c, 0, 61, 0
2, 295293, Note_on_c, 0, 71, 0
2, 295318, Note_on_c, 0, 64, 103
2, 295338, Note_on_c, 0, 63, 0
2, 295366, Control_c, 0, 64, 127
2, 295376, Note_on_c, 0, 66, 96
2, 295380, Note_on_c, 0, 76, 100
2, 295384, Note_on_c, 0, 69, 76
2, 295386, Note_on_c, 0, 71, 81
2, 295397, Note_on_c, 0, 64, 0
2, 295423, Control_c, 0, 64, 63
2, 295426, Control_c, 0, 64, 0
2, 295434, Note_on_c, 0, 65, 87
2, 295446, Note_on_c, 0, 66, 0
2, 295459, Control_c, 0, 64, 63
2, 295461, Control_c, 0, 64, 127
2, 295489, Control_c, 0, 64, 63
2, 295492, Note_on_c, 0, 76, 0
2, 295492, Control_c, 0, 64, 0
2, 295495, Note_on_c, 0, 75, 104
2, 295498, Note_on_c, 0, 66, 101
2, 295513, Note_on_c, 0, 65, 0
2, 295541, Control_c, 0, 64, 63
2, 295542, Control_c, 0, 64, 127
2, 295551, Note_on_c, 0, 64, 96
2, 295557, Note_on_c, 0, 66, 0
2, 295580, Control_c, 0, 64, 63
2, 295582, Control_c, 0, 64, 0
2, 295608, Note_on_c, 0, 63, 104
2, 295609, Note_on_c, 0, 78, 107
2, 295626, Note_on_c, 0, 64, 0
2, 295629, Note_on_c, 0, 75, 0
2, 295653, Note_on_c, 0, 62, 91
2, 295659, Note_on_c, 0, 63, 0
2, 295714, Note_on_c, 0, 63, 108
2, 295718, Note_on_c, 0, 62, 0
2, 295770, Note_on_c, 0, 61, 112
2, 295784, Note_on_c, 0, 63, 0
2, 295814, Note_on_c, 0, 69, 0
2, 295824, Note_on_c, 0, 61, 0
2, 295826, Note_on_c, 0, 59, 109
2, 295879, Note_on_c, 0, 57, 104
2, 295881, Note_on_c, 0, 71, 0
2, 295890, Note_on_c, 0, 59, 0
2, 295902, Note_on_c, 0, 78, 0
2, 295913, Control_c, 0, 64, 127
2, 295933, Note_on_c, 0, 56, 109
2, 295942, Note_on_c, 0, 57, 0
2, 295982, Note_on_c, 0, 54, 106
2, 295982, Control_c, 0, 64, 63
2, 295984, Control_c, 0, 64, 0
2, 296010, Note_on_c, 0, 56, 0
2, 296012, Control_c, 0, 64, 63
2, 296013, Control_c, 0, 64, 127
2, 296030, Note_on_c, 0, 54, 0
2, 296067, Control_c, 0, 64, 63
2, 296069, Control_c, 0, 64, 0
2, 296095, Note_on_c, 0, 53, 86
2, 296096, Control_c, 0, 64, 63
2, 296096, Note_on_c, 0, 61, 103
2, 296097, Control_c, 0, 64, 127
2, 296099, Note_on_c, 0, 65, 106
2, 296103, Note_on_c, 0, 68, 120
2, 296117, Note_on_c, 0, 61, 0
2, 296122, Note_on_c, 0, 53, 0
2, 296124, Note_on_c, 0, 65, 0
2, 296143, Note_on_c, 0, 68, 0
2, 296161, Note_on_c, 0, 80, 113
2, 296219, Note_on_c, 0, 73, 112
2, 296233, Note_on_c, 0, 80, 0
2, 296265, Note_on_c, 0, 73, 0
2, 296267, Note_on_c, 0, 71, 99
2, 296298, Note_on_c, 0, 71, 0
2, 296311, Control_c, 0, 64, 63
2, 296314, Control_c, 0, 64, 0
2, 296345, Control_c, 0, 64, 63
2, 296347, Note_on_c, 0, 66, 116
2, 296348, Control_c, 0, 64, 127
2, 296349, Note_on_c, 0, 54, 109
2, 296349, Note_on_c, 0, 81, 113
2, 296350, Note_on_c, 0, 61, 106
2, 296350, Note_on_c, 0, 69, 111
2, 296371, Note_on_c, 0, 66, 0
2, 296375, Note_on_c, 0, 61, 0
2, 296379, Note_on_c, 0, 69, 0
2, 296388, Note_on_c, 0, 54, 0
2, 296499, Note_on_c, 0, 73, 105
2, 296514, Note_on_c, 0, 81, 0
2, 296536, Note_on_c, 0, 77, 88
2, 296557, Note_on_c, 0, 73, 0
2, 296589, Note_on_c, 0, 78, 104
2, 296600, Note_on_c, 0, 54, 116
2, 296602, Note_on_c, 0, 42, 104
2, 296603, Note_on_c, 0, 77, 0
2, 296622, Note_on_c, 0, 78, 0
2, 296625, Note_on_c, 0, 42, 0
2, 296633, Note_on_c, 0, 54, 0
2, 296649, Note_on_c, 0, 81, 93
2, 296684, Note_on_c, 0, 81, 0
2, 296702, Note_on_c, 0, 85, 110
2, 296722, Control_c, 0, 64, 63
2, 296726, Control_c, 0, 64, 0
2, 296735, Note_on_c, 0, 85, 0
2, 296752, Note_on_c, 0, 93, 106
2, 296779, Note_on_c, 0, 93, 0
2, 296828, Note_on_c, 0, 67, 108
2, 296831, Note_on_c, 0, 70, 121
2, 296831, Note_on_c, 0, 55, 90
2, 296833, Note_on_c, 0, 63, 103
2, 296844, Control_c, 0, 64, 127
2, 296875, Note_on_c, 0, 55, 0
2, 296879, Note_on_c, 0, 67, 0
2, 296880, Note_on_c, 0, 70, 0
2, 296886, Note_on_c, 0, 63, 0
2, 296892, Note_on_c, 0, 82, 99
2, 296927, Note_on_c, 0, 82, 0
2, 296954, Note_on_c, 0, 75, 105
2, 297000, Note_on_c, 0, 75, 0
2, 297006, Note_on_c, 0, 73, 103
2, 297031, Note_on_c, 0, 73, 0
2, 297076, Control_c, 0, 64, 63
2, 297079, Control_c, 0, 64, 0
2, 297095, Note_on_c, 0, 68, 113
2, 297097, Note_on_c, 0, 71, 100
2, 297097, Note_on_c, 0, 83, 100
2, 297098, Note_on_c, 0, 63, 103
2, 297100, Note_on_c, 0, 56, 96
2, 297106, Control_c, 0, 64, 63
2, 297110, Control_c, 0, 64, 127
2, 297140, Note_on_c, 0, 71, 0
2, 297153, Note_on_c, 0, 68, 0
2, 297173, Note_on_c, 0, 63, 0
2, 297193, Note_on_c, 0, 56, 0
2, 297255, Note_on_c, 0, 75, 100
2, 297279, Note_on_c, 0, 83, 0
2, 297290, Note_on_c, 0, 79, 78
2, 297298, Note_on_c, 0, 75, 0
2, 297345, Note_on_c, 0, 80, 104
2, 297353, Note_on_c, 0, 79, 0
2, 297361, Note_on_c, 0, 56, 116
2, 297363, Note_on_c, 0, 44, 109
2, 297374, Note_on_c, 0, 80, 0
2, 297385, Note_on_c, 0, 44, 0
2, 297389, Note_on_c, 0, 56, 0
2, 297408, Note_on_c, 0, 83, 84
2, 297451, Note_on_c, 0, 83, 0
2, 297457, Note_on_c, 0, 87, 114
2, 297492, Note_on_c, 0, 87, 0
2, 297507, Note_on_c, 0, 95, 109
2, 297528, Note_on_c, 0, 95, 0
2, 297594, Control_c, 0, 64, 63
2, 297598, Control_c, 0, 64, 0
2, 297628, Note_on_c, 0, 74, 104
2, 297633, Note_on_c, 0, 68, 96
2, 297634, Note_on_c, 0, 70, 116
2, 297635, Note_on_c, 0, 58, 112
2, 297656, Control_c, 0, 64, 63
2, 297658, Control_c, 0, 64, 127
2, 297695, Note_on_c, 0, 70, 0
2, 297699, Note_on_c, 0, 58, 0
2, 297700, Note_on_c, 0, 68, 0
2, 297702, Note_on_c, 0, 86, 106
2, 297729, Note_on_c, 0, 74, 0
2, 297767, Note_on_c, 0, 82, 104
2, 297770, Note_on_c, 0, 86, 0
2, 297807, Note_on_c, 0, 80, 107
2, 297813, Note_on_c, 0, 82, 0
2, 297841, Note_on_c, 0, 80, 0
2, 297846, Control_c, 0, 64, 63
2, 297849, Control_c, 0, 64, 0
2, 297865, Note_on_c, 0, 71, 108
2, 297865, Note_on_c, 0, 69, 103
2, 297867, Note_on_c, 0, 59, 100
2, 297868, Note_on_c, 0, 66, 106
2, 297873, Note_on_c, 0, 87, 114
2, 297875, Control_c, 0, 64, 63
2, 297875, Note_on_c, 0, 75, 119
2, 297879, Control_c, 0, 64, 127
2, 297897, Note_on_c, 0, 71, 0
2, 297898, Note_on_c, 0, 69, 0
2, 297902, Note_on_c, 0, 75, 0
2, 297903, Note_on_c, 0, 87, 0
2, 297904, Note_on_c, 0, 66, 0
2, 297918, Note_on_c, 0, 59, 0
2, 298006, Note_on_c, 0, 78, 108
2, 298061, Note_on_c, 0, 78, 0
2, 298061, Note_on_c, 0, 81, 93
2, 298101, Note_on_c, 0, 47, 91
2, 298103, Note_on_c, 0, 59, 113
2, 298115, Note_on_c, 0, 83, 103
2, 298126, Note_on_c, 0, 81, 0
2, 298128, Note_on_c, 0, 47, 0
2, 298135, Note_on_c, 0, 59, 0
2, 298141, Note_on_c, 0, 83, 0
2, 298175, Note_on_c, 0, 87, 110
2, 298205, Note_on_c, 0, 87, 0
2, 298223, Note_on_c, 0, 90, 107
2, 298259, Note_on_c, 0, 90, 0
2, 298276, Note_on_c, 0, 99, 101
2, 298285, Note_on_c, 0, 99, 0
2, 298310, Control_c, 0, 64, 63
2, 298314, Control_c, 0, 64, 0
2, 298324, Note_on_c, 0, 60, 104
2, 298330, Control_c, 0, 64, 127
2, 298350, Note_on_c, 0, 60, 0
2, 298391, Note_on_c, 0, 72, 113
2, 298392, Note_on_c, 0, 76, 109
2, 298393, Note_on_c, 0, 70, 113
2, 298448, Note_on_c, 0, 72, 0
2, 298456, Note_on_c, 0, 70, 0
2, 298475, Note_on_c, 0, 88, 108
2, 298533, Note_on_c, 0, 84, 102
2, 298550, Control_c, 0, 64, 63
2, 298551, Control_c, 0, 64, 0
2, 298555, Note_on_c, 0, 61, 104
2, 298556, Note_on_c, 0, 88, 0
2, 298571, Control_c, 0, 64, 63
2, 298575, Control_c, 0, 64, 127
2, 298581, Note_on_c, 0, 82, 101
2, 298582, Note_on_c, 0, 76, 0
2, 298584, Note_on_c, 0, 68, 90
2, 298598, Note_on_c, 0, 84, 0
2, 298604, Note_on_c, 0, 61, 0
2, 298606, Note_on_c, 0, 71, 76
2, 298613, Note_on_c, 0, 68, 0
2, 298620, Note_on_c, 0, 82, 0
2, 298641, Note_on_c, 0, 77, 106
2, 298643, Note_on_c, 0, 73, 115
2, 298652, Note_on_c, 0, 71, 0
2, 298662, Note_on_c, 0, 73, 0
2, 298708, Note_on_c, 0, 89, 103
2, 298759, Control_c, 0, 64, 63
2, 298762, Control_c, 0, 64, 0
2, 298767, Note_on_c, 0, 85, 107
2, 298772, Note_on_c, 0, 89, 0
2, 298782, Control_c, 0, 64, 63
2, 298787, Control_c, 0, 64, 127
2, 298793, Note_on_c, 0, 77, 0
2, 298803, Note_on_c, 0, 61, 76
2, 298821, Note_on_c, 0, 85, 0
2, 298822, Note_on_c, 0, 83, 89
2, 298848, Note_on_c, 0, 67, 76
2, 298852, Note_on_c, 0, 61, 0
2, 298854, Note_on_c, 0, 83, 0
2, 298891, Note_on_c, 0, 70, 101
2, 298898, Note_on_c, 0, 67, 0
2, 298904, Note_on_c, 0, 79, 111
2, 298906, Note_on_c, 0, 76, 102
2, 298918, Note_on_c, 0, 70, 0
2, 298927, Note_on_c, 0, 76, 0
2, 298964, Note_on_c, 0, 79, 0
2, 298981, Note_on_c, 0, 91, 106
2, 299061, Note_on_c, 0, 88, 103
2, 299069, Note_on_c, 0, 91, 0
2, 299127, Control_c, 0, 64, 63
2, 299132, Control_c, 0, 64, 0
2, 299137, Note_on_c, 0, 85, 110
2, 299142, Control_c, 0, 64, 63
2, 299146, Note_on_c, 0, 88, 0
2, 299151, Control_c, 0, 64, 127
2, 299162, Note_on_c, 0, 59, 81
2, 299163, Note_on_c, 0, 85, 0
2, 299182, Note_on_c, 0, 64, 79
2, 299200, Note_on_c, 0, 59, 0
2, 299208, Note_on_c, 0, 68, 60
2, 299219, Note_on_c, 0, 64, 0
2, 299230, Note_on_c, 0, 68, 0
2, 299235, Note_on_c, 0, 71, 80
2, 299261, Note_on_c, 0, 71, 0
2, 299269, Note_on_c, 0, 76, 117
2, 299272, Note_on_c, 0, 80, 120
2, 299273, Note_on_c, 0, 92, 121
2, 299288, Note_on_c, 0, 76, 0
2, 299292, Note_on_c, 0, 80, 0
2, 299299, Note_on_c, 0, 92, 0
2, 299443, Control_c, 0, 64, 63
2, 299451, Control_c, 0, 64, 0
2, 299454, Note_on_c, 0, 80, 104
2, 299458, Note_on_c, 0, 95, 91
2, 299458, Note_on_c, 0, 88, 87
2, 299473, Note_on_c, 0, 80, 0
2, 299477, Note_on_c, 0, 88, 0
2, 299483, Note_on_c, 0, 95, 0
2, 299516, Note_on_c, 0, 85, 77
2, 299527, Note_on_c, 0, 79, 24
2, 299531, Note_on_c, 0, 85, 0
2, 299544, Note_on_c, 0, 79, 0
2, 299576, Note_on_c, 0, 78, 101
2, 299579, Note_on_c, 0, 95, 94
2, 299580, Note_on_c, 0, 87, 107
2, 299598, Note_on_c, 0, 95, 0
2, 299603, Note_on_c, 0, 78, 0
2, 299606, Note_on_c, 0, 87, 0
2, 299627, Note_on_c, 0, 83, 86
2, 299632, Note_on_c, 0, 77, 83
2, 299652, Note_on_c, 0, 83, 0
2, 299664, Note_on_c, 0, 77, 0
2, 299691, Note_on_c, 0, 76, 104
2, 299695, Note_on_c, 0, 85, 91
2, 299714, Note_on_c, 0, 76, 0
2, 299733, Note_on_c, 0, 85, 0
2, 299749, Note_on_c, 0, 81, 79
2, 299774, Note_on_c, 0, 81, 0
2, 299831, Note_on_c, 0, 83, 91
2, 299835, Note_on_c, 0, 69, 93
2, 299836, Note_on_c, 0, 78, 95
2, 299838, Control_c, 0, 64, 63
2, 299839, Control_c, 0, 64, 127
2, 299841, Note_on_c, 0, 59, 79
2, 299882, Note_on_c, 0, 78, 0
2, 299883, Note_on_c, 0, 76, 97
2, 299891, Note_on_c, 0, 83, 0
2, 299911, Note_on_c, 0, 69, 0
2, 299946, Note_on_c, 0, 75, 101
2, 299951, Note_on_c, 0, 76, 0
2, 299979, Note_on_c, 0, 75, 0
2, 300002, Note_on_c, 0, 78, 88
2, 300049, Control_c, 0, 64, 63
2, 300052, Note_on_c, 0, 78, 0
2, 300052, Control_c, 0, 64, 0
2, 300081, Note_on_c, 0, 68, 94
2, 300082, Note_on_c, 0, 71, 99
2, 300083, Control_c, 0, 64, 63
2, 300085, Note_on_c, 0, 59, 0
2, 300086, Note_on_c, 0, 64, 68
2, 300088, Control_c, 0, 64, 127
2, 300100, Note_on_c, 0, 64, 0
2, 300107, Note_on_c, 0, 71, 0
2, 300109, Note_on_c, 0, 68, 0
2, 300218, Note_on_c, 0, 80, 108
2, 300220, Note_on_c, 0, 88, 102
2, 300222, Note_on_c, 0, 95, 98
2, 300227, Control_c, 0, 64, 63
2, 300230, Control_c, 0, 64, 0
2, 300240, Note_on_c, 0, 80, 0
2, 300242, Note_on_c, 0, 95, 0
2, 300246, Note_on_c, 0, 88, 0
2, 300266, Note_on_c, 0, 85, 97
2, 300271, Note_on_c, 0, 79, 84
2, 300292, Note_on_c, 0, 85, 0
2, 300297, Note_on_c, 0, 79, 0
2, 300323, Note_on_c, 0, 78, 108
2, 300328, Note_on_c, 0, 95, 98
2, 300329, Note_on_c, 0, 87, 112
2, 300349, Note_on_c, 0, 95, 0
2, 300352, Note_on_c, 0, 78, 0
2, 300355, Note_on_c, 0, 87, 0
2, 300373, Note_on_c, 0, 83, 84
2, 300374, Note_on_c, 0, 77, 92
2, 300400, Note_on_c, 0, 83, 0
2, 300413, Note_on_c, 0, 77, 0
2, 300436, Note_on_c, 0, 76, 106
2, 300437, Note_on_c, 0, 85, 106
2, 300442, Note_on_c, 0, 95, 61
2, 300457, Note_on_c, 0, 95, 0
2, 300460, Note_on_c, 0, 76, 0
2, 300481, Note_on_c, 0, 85, 0
2, 300486, Note_on_c, 0, 81, 99
2, 300517, Note_on_c, 0, 81, 0
2, 300572, Note_on_c, 0, 59, 71
2, 300574, Note_on_c, 0, 69, 74
2, 300575, Note_on_c, 0, 83, 82
2, 300579, Note_on_c, 0, 78, 88
2, 300586, Control_c, 0, 64, 63
2, 300587, Control_c, 0, 64, 127
2, 300628, Note_on_c, 0, 76, 90
2, 300638, Note_on_c, 0, 78, 0
2, 300657, Note_on_c, 0, 69, 0
2, 300688, Note_on_c, 0, 75, 100
2, 300703, Note_on_c, 0, 76, 0
2, 300721, Note_on_c, 0, 75, 0
2, 300738, Note_on_c, 0, 83, 0
2, 300738, Note_on_c, 0, 78, 87
2, 300785, Control_c, 0, 64, 63
2, 300791, Control_c, 0, 64, 0
2, 300804, Note_on_c, 0, 68, 90
2, 300810, Note_on_c, 0, 64, 73
2, 300811, Note_on_c, 0, 78, 0
2, 300812, Note_on_c, 0, 59, 0
2, 300812, Note_on_c, 0, 71, 78
2, 300816, Control_c, 0, 64, 63
2, 300823, Control_c, 0, 64, 127
2, 300833, Note_on_c, 0, 64, 0
2, 300837, Note_on_c, 0, 68, 0
2, 300840, Note_on_c, 0, 71, 0
2, 300923, Note_on_c, 0, 68, 106
2, 300927, Note_on_c, 0, 76, 98
2, 300929, Note_on_c, 0, 83, 90
2, 300943, Control_c, 0, 64, 63
2, 300948, Note_on_c, 0, 68, 0
2, 300964, Note_on_c, 0, 83, 0
2, 300970, Note_on_c, 0, 76, 0
2, 300975, Note_on_c, 0, 73, 94
2, 300981, Note_on_c, 0, 67, 75
2, 301001, Note_on_c, 0, 73, 0
2, 301007, Note_on_c, 0, 67, 0
2, 301036, Note_on_c, 0, 66, 107
2, 301040, Note_on_c, 0, 75, 116
2, 301042, Note_on_c, 0, 83, 94
2, 301065, Note_on_c, 0, 83, 0
2, 301068, Note_on_c, 0, 66, 0
2, 301087, Note_on_c, 0, 65, 91
2, 301087, Note_on_c, 0, 71, 67
2, 301093, Note_on_c, 0, 72, 65
2, 301097, Note_on_c, 0, 75, 0
2, 301111, Note_on_c, 0, 72, 0
2, 301116, Note_on_c, 0, 71, 0
2, 301133, Note_on_c, 0, 65, 0
2, 301153, Note_on_c, 0, 64, 112
2, 301154, Note_on_c, 0, 73, 100
2, 301156, Control_c, 0, 64, 127
2, 301156, Note_on_c, 0, 83, 72
2, 301172, Note_on_c, 0, 83, 0
2, 301183, Note_on_c, 0, 64, 0
2, 301200, Note_on_c, 0, 73, 0
2, 301211, Note_on_c, 0, 69, 77
2, 301243, Note_on_c, 0, 69, 0
2, 301320, Control_c, 0, 64, 63
2, 301320, Note_on_c, 0, 57, 60
2, 301321, Note_on_c, 0, 71, 59
2, 301321, Note_on_c, 0, 47, 57
2, 301324, Note_on_c, 0, 66, 86
2, 301325, Control_c, 0, 64, 0
2, 301368, Note_on_c, 0, 64, 72
2, 301371, Control_c, 0, 64, 63
2, 301378, Control_c, 0, 64, 127
2, 301387, Note_on_c, 0, 66, 0
2, 301406, Note_on_c, 0, 57, 0
2, 301446, Note_on_c, 0, 63, 87
2, 301453, Note_on_c, 0, 64, 0
2, 301485, Note_on_c, 0, 63, 0
2, 301507, Note_on_c, 0, 66, 88
2, 301514, Note_on_c, 0, 71, 0
2, 301547, Note_on_c, 0, 66, 0
2, 301567, Note_on_c, 0, 58, 80
2, 301578, Note_on_c, 0, 73, 87
2, 301582, Note_on_c, 0, 67, 75
2, 301594, Control_c, 0, 64, 63
2, 301617, Control_c, 0, 64, 127
2, 301631, Note_on_c, 0, 66, 106
2, 301638, Note_on_c, 0, 73, 0
2, 301658, Note_on_c, 0, 47, 0
2, 301671, Note_on_c, 0, 67, 0
2, 301690, Note_on_c, 0, 64, 84
2, 301692, Note_on_c, 0, 58, 0
2, 301709, Note_on_c, 0, 66, 0
2, 301742, Note_on_c, 0, 67, 97
2, 301744, Note_on_c, 0, 64, 0
2, 301778, Note_on_c, 0, 67, 0
2, 301804, Note_on_c, 0, 68, 105
2, 301805, Note_on_c, 0, 59, 86
2, 301808, Note_on_c, 0, 74, 93
2, 301828, Control_c, 0, 64, 63
2, 301844, Control_c, 0, 64, 127
2, 301856, Note_on_c, 0, 57, 84
2, 301861, Note_on_c, 0, 66, 112
2, 301863, Note_on_c, 0, 59, 0
2, 301902, Note_on_c, 0, 74, 0
2, 301907, Note_on_c, 0, 68, 0
2, 301921, Note_on_c, 0, 56, 100
2, 301926, Note_on_c, 0, 65, 92
2, 301938, Note_on_c, 0, 57, 0
2, 301947, Note_on_c, 0, 66, 0
2, 301972, Note_on_c, 0, 59, 83
2, 301975, Note_on_c, 0, 68, 95
2, 301983, Note_on_c, 0, 56, 0
2, 301987, Note_on_c, 0, 65, 0
2, 302010, Note_on_c, 0, 68, 0
2, 302030, Control_c, 0, 64, 63
2, 302031, Note_on_c, 0, 75, 94
2, 302032, Note_on_c, 0, 69, 86
2, 302032, Note_on_c, 0, 60, 103
2, 302037, Note_on_c, 0, 59, 0
2, 302050, Control_c, 0, 64, 127
2, 302083, Note_on_c, 0, 59, 103
2, 302086, Note_on_c, 0, 67, 92
2, 302092, Note_on_c, 0, 60, 0
2, 302095, Note_on_c, 0, 75, 0
2, 302117, Note_on_c, 0, 69, 0
2, 302141, Note_on_c, 0, 57, 94
2, 302148, Note_on_c, 0, 66, 103
2, 302167, Note_on_c, 0, 59, 0
2, 302169, Note_on_c, 0, 67, 0
2, 302189, Note_on_c, 0, 66, 0
2, 302198, Note_on_c, 0, 60, 101
2, 302199, Note_on_c, 0, 69, 83
2, 302216, Note_on_c, 0, 57, 0
2, 302228, Note_on_c, 0, 69, 0
2, 302253, Control_c, 0, 64, 63
2, 302258, Note_on_c, 0, 61, 113
2, 302260, Note_on_c, 0, 70, 114
2, 302264, Note_on_c, 0, 76, 98
2, 302278, Note_on_c, 0, 60, 0
2, 302286, Control_c, 0, 64, 127
2, 302313, Note_on_c, 0, 59, 93
2, 302314, Note_on_c, 0, 68, 110
2, 302318, Note_on_c, 0, 61, 0
2, 302349, Note_on_c, 0, 70, 0
2, 302363, Note_on_c, 0, 76, 0
2, 302375, Note_on_c, 0, 67, 94
2, 302376, Note_on_c, 0, 58, 104
2, 302396, Note_on_c, 0, 68, 0
2, 302407, Note_on_c, 0, 59, 0
2, 302423, Note_on_c, 0, 70, 112
2, 302427, Note_on_c, 0, 61, 113
2, 302437, Note_on_c, 0, 67, 0
2, 302454, Note_on_c, 0, 58, 0
2, 302456, Note_on_c, 0, 70, 0
2, 302482, Note_on_c, 0, 62, 109
2, 302487, Control_c, 0, 64, 63
2, 302488, Note_on_c, 0, 71, 107
2, 302490, Note_on_c, 0, 77, 102
2, 302491, Note_on_c, 0, 61, 0
2, 302506, Control_c, 0, 64, 127
2, 302524, Note_on_c, 0, 77, 0
2, 302535, Note_on_c, 0, 62, 0
2, 302542, Note_on_c, 0, 69, 104
2, 302544, Note_on_c, 0, 60, 108
2, 302558, Note_on_c, 0, 71, 0
2, 302583, Note_on_c, 0, 69, 0
2, 302597, Note_on_c, 0, 59, 100
2, 302605, Note_on_c, 0, 68, 108
2, 302619, Note_on_c, 0, 60, 0
2, 302638, Note_on_c, 0, 68, 0
2, 302648, Note_on_c, 0, 62, 107
2, 302651, Note_on_c, 0, 71, 75
2, 302665, Note_on_c, 0, 59, 0
2, 302686, Note_on_c, 0, 71, 0
2, 302695, Control_c, 0, 64, 63
2, 302707, Control_c, 0, 64, 127
2, 302707, Note_on_c, 0, 63, 116
2, 302712, Note_on_c, 0, 72, 111
2, 302713, Note_on_c, 0, 78, 106
2, 302728, Note_on_c, 0, 62, 0
2, 302760, Note_on_c, 0, 78, 0
2, 302763, Note_on_c, 0, 63, 0
2, 302763, Note_on_c, 0, 62, 99
2, 302766, Note_on_c, 0, 71, 108
2, 302802, Note_on_c, 0, 72, 0
2, 302820, Note_on_c, 0, 69, 91
2, 302823, Note_on_c, 0, 60, 101
2, 302841, Note_on_c, 0, 71, 0
2, 302856, Note_on_c, 0, 62, 0
2, 302863, Note_on_c, 0, 69, 0
2, 302870, Note_on_c, 0, 72, 106
2, 302873, Note_on_c, 0, 63, 116
2, 302893, Note_on_c, 0, 60, 0
2, 302900, Note_on_c, 0, 72, 0
2, 302922, Control_c, 0, 64, 63
2, 302929, Note_on_c, 0, 64, 111
2, 302930, Note_on_c, 0, 73, 115
2, 302931, Note_on_c, 0, 79, 102
2, 302948, Note_on_c, 0, 63, 0
2, 302949, Control_c, 0, 64, 127
2, 302983, Note_on_c, 0, 71, 102
2, 302987, Note_on_c, 0, 79, 0
2, 302989, Note_on_c, 0, 62, 101
2, 303002, Note_on_c, 0, 64, 0
2, 303003, Note_on_c, 0, 73, 0
2, 303028, Note_on_c, 0, 71, 0
2, 303044, Note_on_c, 0, 61, 105
2, 303056, Note_on_c, 0, 70, 101
2, 303069, Note_on_c, 0, 62, 0
2, 303090, Note_on_c, 0, 64, 108
2, 303091, Note_on_c, 0, 70, 0
2, 303100, Note_on_c, 0, 73, 105
2, 303109, Note_on_c, 0, 61, 0
2, 303131, Note_on_c, 0, 73, 0
2, 303139, Control_c, 0, 64, 63
2, 303144, Note_on_c, 0, 64, 0
2, 303154, Control_c, 0, 64, 127
2, 303156, Note_on_c, 0, 65, 111
2, 303160, Note_on_c, 0, 74, 117
2, 303162, Note_on_c, 0, 80, 107
2, 303200, Note_on_c, 0, 80, 0
2, 303206, Note_on_c, 0, 64, 106
2, 303213, Note_on_c, 0, 72, 106
2, 303215, Note_on_c, 0, 65, 0
2, 303248, Note_on_c, 0, 74, 0
2, 303261, Note_on_c, 0, 62, 103
2, 303267, Note_on_c, 0, 71, 90
2, 303281, Note_on_c, 0, 64, 0
2, 303286, Note_on_c, 0, 72, 0
2, 303313, Note_on_c, 0, 71, 0
2, 303313, Note_on_c, 0, 74, 103
2, 303313, Note_on_c, 0, 65, 112
2, 303334, Note_on_c, 0, 62, 0
2, 303339, Note_on_c, 0, 74, 0
2, 303357, Control_c, 0, 64, 63
2, 303364, Note_on_c, 0, 75, 119
2, 303367, Note_on_c, 0, 81, 99
2, 303370, Control_c, 0, 64, 127
2, 303371, Note_on_c, 0, 66, 116
2, 303390, Note_on_c, 0, 65, 0
2, 303418, Note_on_c, 0, 73, 115
2, 303426, Note_on_c, 0, 64, 90
2, 303431, Note_on_c, 0, 66, 0
2, 303458, Note_on_c, 0, 75, 0
2, 303470, Note_on_c, 0, 81, 0
2, 303475, Note_on_c, 0, 72, 100
2, 303482, Note_on_c, 0, 63, 112
2, 303500, Note_on_c, 0, 73, 0
2, 303513, Note_on_c, 0, 64, 0
2, 303515, Control_c, 0, 64, 63
2, 303522, Control_c, 0, 64, 0
2, 303541, Note_on_c, 0, 75, 116
2, 303542, Note_on_c, 0, 66, 116
2, 303544, Note_on_c, 0, 72, 0
2, 303558, Note_on_c, 0, 63, 0
2, 303573, Control_c, 0, 64, 63
2, 303575, Control_c, 0, 64, 127
2, 303576, Note_on_c, 0, 75, 0
2, 303631, Control_c, 0, 64, 63
2, 303633, Control_c, 0, 64, 0
2, 303634, Note_on_c, 0, 66, 0
2, 303660, Note_on_c, 0, 67, 88
2, 303661, Note_on_c, 0, 76, 88
2, 303662, Note_on_c, 0, 82, 96
2, 303670, Control_c, 0, 64, 63
2, 303672, Control_c, 0, 64, 127
2, 303717, Note_on_c, 0, 67, 0
2, 303734, Note_on_c, 0, 64, 70
2, 303735, Note_on_c, 0, 76, 0
2, 303737, Note_on_c, 0, 73, 79
2, 303776, Note_on_c, 0, 82, 0
2, 303782, Note_on_c, 0, 73, 0
2, 303801, Note_on_c, 0, 64, 0
2, 303813, Note_on_c, 0, 68, 93
2, 303821, Note_on_c, 0, 77, 86
2, 303825, Note_on_c, 0, 83, 76
2, 303862, Note_on_c, 0, 68, 0
2, 303870, Note_on_c, 0, 77, 0
2, 303878, Note_on_c, 0, 65, 68
2, 303882, Note_on_c, 0, 74, 77
2, 303910, Note_on_c, 0, 83, 0
2, 303911, Note_on_c, 0, 74, 0
2, 303930, Note_on_c, 0, 65, 0
2, 303953, Note_on_c, 0, 69, 88
2, 303955, Note_on_c, 0, 78, 101
2, 303957, Note_on_c, 0, 84, 72
2, 303981, Note_on_c, 0, 84, 0
2, 304009, Note_on_c, 0, 69, 0
2, 304011, Note_on_c, 0, 75, 81
2, 304016, Note_on_c, 0, 66, 95
2, 304022, Note_on_c, 0, 78, 0
2, 304047, Note_on_c, 0, 75, 0
2, 304078, Note_on_c, 0, 70, 107
2, 304079, Note_on_c, 0, 85, 92
2, 304081, Note_on_c, 0, 79, 84
2, 304082, Note_on_c, 0, 66, 0
2, 304112, Note_on_c, 0, 85, 0
2, 304128, Note_on_c, 0, 70, 0
2, 304135, Note_on_c, 0, 67, 97
2, 304136, Note_on_c, 0, 76, 87
2, 304144, Note_on_c, 0, 79, 0
2, 304173, Note_on_c, 0, 76, 0
2, 304198, Note_on_c, 0, 71, 103
2, 304199, Note_on_c, 0, 67, 0
2, 304202, Note_on_c, 0, 86, 107
2, 304208, Note_on_c, 0, 80, 92
2, 304247, Note_on_c, 0, 80, 0
2, 304255, Note_on_c, 0, 77, 80
2, 304259, Note_on_c, 0, 68, 110
2, 304266, Note_on_c, 0, 71, 0
2, 304267, Note_on_c, 0, 86, 0
2, 304288, Note_on_c, 0, 77, 0
2, 304315, Note_on_c, 0, 81, 101
2, 304316, Note_on_c, 0, 72, 104
2, 304316, Note_on_c, 0, 87, 107
2, 304328, Note_on_c, 0, 68, 0
2, 304364, Note_on_c, 0, 78, 88
2, 304366, Note_on_c, 0, 81, 0
2, 304369, Note_on_c, 0, 69, 103
2, 304373, Note_on_c, 0, 72, 0
2, 304394, Note_on_c, 0, 87, 0
2, 304398, Note_on_c, 0, 78, 0
2, 304430, Note_on_c, 0, 73, 114
2, 304434, Note_on_c, 0, 82, 115
2, 304435, Note_on_c, 0, 88, 107
2, 304438, Note_on_c, 0, 69, 0
2, 304481, Note_on_c, 0, 79, 87
2, 304488, Note_on_c, 0, 70, 110
2, 304497, Note_on_c, 0, 73, 0
2, 304499, Note_on_c, 0, 82, 0
2, 304510, Note_on_c, 0, 88, 0
2, 304516, Note_on_c, 0, 79, 0
2, 304542, Note_on_c, 0, 70, 0
2, 304549, Note_on_c, 0, 74, 107
2, 304550, Note_on_c, 0, 83, 109
2, 304552, Note_on_c, 0, 89, 100
2, 304602, Note_on_c, 0, 74, 0
2, 304605, Note_on_c, 0, 89, 0
2, 304606, Note_on_c, 0, 80, 97
2, 304607, Note_on_c, 0, 71, 106
2, 304617, Note_on_c, 0, 83, 0
2, 304642, Note_on_c, 0, 80, 0
2, 304669, Note_on_c, 0, 75, 115
2, 304671, Note_on_c, 0, 84, 99
2, 304672, Note_on_c, 0, 90, 108
2, 304678, Note_on_c, 0, 71, 0
2, 304718, Note_on_c, 0, 71, 96
2, 304722, Note_on_c, 0, 75, 0
2, 304726, Note_on_c, 0, 81, 79
2, 304736, Note_on_c, 0, 84, 0
2, 304752, Note_on_c, 0, 90, 0
2, 304759, Note_on_c, 0, 81, 0
2, 304771, Note_on_c, 0, 71, 0
2, 304779, Note_on_c, 0, 76, 108
2, 304789, Note_on_c, 0, 91, 108
2, 304792, Note_on_c, 0, 85, 110
2, 304835, Note_on_c, 0, 76, 0
2, 304837, Note_on_c, 0, 82, 88
2, 304837, Note_on_c, 0, 71, 102
2, 304853, Note_on_c, 0, 91, 0
2, 304858, Note_on_c, 0, 85, 0
2, 304874, Note_on_c, 0, 82, 0
2, 304895, Note_on_c, 0, 71, 0
2, 304897, Note_on_c, 0, 77, 109
2, 304899, Note_on_c, 0, 86, 106
2, 304900, Note_on_c, 0, 92, 109
2, 304947, Note_on_c, 0, 71, 87
2, 304948, Note_on_c, 0, 83, 74
2, 304954, Note_on_c, 0, 77, 0
2, 304965, Note_on_c, 0, 86, 0
2, 304974, Note_on_c, 0, 92, 0
2, 304981, Note_on_c, 0, 83, 0
2, 305009, Note_on_c, 0, 78, 118
2, 305014, Note_on_c, 0, 93, 108
2, 305014, Note_on_c, 0, 87, 116
2, 305026, Note_on_c, 0, 71, 0
2, 305059, Note_on_c, 0, 78, 0
2, 305061, Note_on_c, 0, 71, 83
2, 305071, Note_on_c, 0, 84, 83
2, 305087, Note_on_c, 0, 87, 0
2, 305088, Note_on_c, 0, 93, 0
2, 305100, Note_on_c, 0, 84, 0
2, 305120, Note_on_c, 0, 71, 0
2, 305123, Note_on_c, 0, 79, 104
2, 305132, Note_on_c, 0, 94, 110
2, 305133, Note_on_c, 0, 88, 108
2, 305179, Note_on_c, 0, 85, 94
2, 305181, Note_on_c, 0, 71, 82
2, 305184, Note_on_c, 0, 79, 0
2, 305194, Note_on_c, 0, 88, 0
2, 305210, Note_on_c, 0, 85, 0
2, 305212, Note_on_c, 0, 94, 0
2, 305244, Note_on_c, 0, 80, 119
2, 305246, Note_on_c, 0, 89, 116
2, 305247, Note_on_c, 0, 95, 111
2, 305266, Note_on_c, 0, 71, 0
2, 305293, Note_on_c, 0, 80, 0
2, 305293, Note_on_c, 0, 86, 87
2, 305297, Note_on_c, 0, 71, 82
2, 305300, Note_on_c, 0, 89, 0
2, 305318, Note_on_c, 0, 95, 0
2, 305322, Note_on_c, 0, 86, 0
2, 305353, Note_on_c, 0, 71, 0
2, 305355, Note_on_c, 0, 81, 116
2, 305362, Note_on_c, 0, 96, 118
2, 305362, Note_on_c, 0, 90, 119
2, 305398, Note_on_c, 0, 81, 0
2, 305411, Note_on_c, 0, 71, 98
2, 305412, Note_on_c, 0, 87, 84
2, 305421, Note_on_c, 0, 96, 0
2, 305427, Note_on_c, 0, 90, 0
2, 305445, Note_on_c, 0, 87, 0
2, 305452, Note_on_c, 0, 71, 0
2, 305475, Note_on_c, 0, 82, 119
2, 305475, Note_on_c, 0, 97, 115
2, 305476, Note_on_c, 0, 91, 106
2, 305506, Note_on_c, 0, 82, 0
2, 305524, Note_on_c, 0, 91, 0
2, 305529, Note_on_c, 0, 71, 96
2, 305533, Note_on_c, 0, 97, 0
2, 305558, Note_on_c, 0, 71, 0
2, 305589, Note_on_c, 0, 83, 113
2, 305594, Note_on_c, 0, 98, 117
2, 305595, Note_on_c, 0, 92, 120
2, 305623, Note_on_c, 0, 83, 0
2, 305649, Note_on_c, 0, 71, 111
2, 305653, Note_on_c, 0, 89, 82
2, 305660, Note_on_c, 0, 92, 0
2, 305663, Note_on_c, 0, 98, 0
2, 305676, Note_on_c, 0, 71, 0
2, 305685, Note_on_c, 0, 89, 0
2, 305718, Note_on_c, 0, 84, 122
2, 305720, Note_on_c, 0, 93, 113
2, 305720, Note_on_c, 0, 99, 118
2, 305752, Note_on_c, 0, 84, 0
2, 305788, Note_on_c, 0, 90, 93
2, 305792, Note_on_c, 0, 71, 102
2, 305794, Note_on_c, 0, 93, 0
2, 305812, Note_on_c, 0, 99, 0
2, 305817, Note_on_c, 0, 71, 0
2, 305825, Note_on_c, 0, 90, 0
2, 305885, Note_on_c, 0, 100, 124
2, 305885, Note_on_c, 0, 94, 127
2, 305890, Note_on_c, 0, 85, 127
2, 305923, Note_on_c, 0, 85, 0
2, 305989, Note_on_c, 0, 71, 101
2, 305992, Note_on_c, 0, 91, 89
2, 305997, Note_on_c, 0, 100, 0
2, 306009, Note_on_c, 0, 94, 0
2, 306013, Note_on_c, 0, 71, 0
2, 306026, Note_on_c, 0, 91, 0
2, 306061, Note_on_c, 0, 84, 116
2, 306064, Note_on_c, 0, 99, 115
2, 306066, Note_on_c, 0, 93, 103
2, 306092, Note_on_c, 0, 84, 0
2, 306108, Note_on_c, 0, 90, 92
2, 306123, Note_on_c, 0, 93, 0
2, 306123, Note_on_c, 0, 71, 107
2, 306131, Note_on_c, 0, 99, 0
2, 306144, Note_on_c, 0, 90, 0
2, 306145, Note_on_c, 0, 71, 0
2, 306173, Note_on_c, 0, 83, 106
2, 306177, Note_on_c, 0, 98, 114
2, 306178, Note_on_c, 0, 92, 120
2, 306205, Note_on_c, 0, 83, 0
2, 306224, Note_on_c, 0, 71, 103
2, 306227, Note_on_c, 0, 89, 90
2, 306240, Note_on_c, 0, 92, 0
2, 306243, Note_on_c, 0, 98, 0
2, 306246, Control_c, 0, 64, 63
2, 306253, Control_c, 0, 64, 0
2, 306261, Note_on_c, 0, 89, 0
2, 306271, Control_c, 0, 64, 63
2, 306276, Control_c, 0, 64, 127
2, 306283, Note_on_c, 0, 91, 108
2, 306285, Note_on_c, 0, 97, 113
2, 306286, Note_on_c, 0, 82, 123
2, 306304, Note_on_c, 0, 71, 0
2, 306319, Note_on_c, 0, 82, 0
2, 306336, Note_on_c, 0, 88, 92
2, 306339, Note_on_c, 0, 71, 97
2, 306348, Note_on_c, 0, 97, 0
2, 306356, Note_on_c, 0, 91, 0
2, 306371, Note_on_c, 0, 88, 0
2, 306377, Note_on_c, 0, 71, 0
2, 306395, Note_on_c, 0, 81, 118
2, 306403, Note_on_c, 0, 96, 112
2, 306405, Note_on_c, 0, 90, 114
2, 306444, Note_on_c, 0, 96, 0
2, 306445, Note_on_c, 0, 81, 0
2, 306459, Note_on_c, 0, 87, 99
2, 306464, Note_on_c, 0, 71, 92
2, 306477, Note_on_c, 0, 90, 0
2, 306493, Note_on_c, 0, 87, 0
2, 306541, Note_on_c, 0, 89, 122
2, 306541, Note_on_c, 0, 95, 120
2, 306544, Note_on_c, 0, 80, 124
2, 306564, Note_on_c, 0, 71, 0
2, 306594, Note_on_c, 0, 80, 0
2, 306629, Note_on_c, 0, 86, 103
2, 306629, Note_on_c, 0, 71, 112
2, 306634, Note_on_c, 0, 89, 0
2, 306648, Note_on_c, 0, 95, 0
2, 306662, Note_on_c, 0, 86, 0
2, 306725, Control_c, 0, 64, 63
2, 306732, Control_c, 0, 64, 0
2, 306784, Note_on_c, 0, 81, 124
2, 306786, Note_on_c, 0, 95, 117
2, 306788, Note_on_c, 0, 92, 116
2, 306795, Control_c, 0, 64, 63
2, 306795, Control_c, 0, 64, 127
2, 306814, Note_on_c, 0, 81, 0
2, 306822, Note_on_c, 0, 71, 0
2, 306855, Note_on_c, 0, 95, 0
2, 306895, Note_on_c, 0, 90, 113
2, 306906, Note_on_c, 0, 83, 96
2, 306908, Note_on_c, 0, 81, 113
2, 306922, Note_on_c, 0, 92, 0
2, 306944, Note_on_c, 0, 81, 0
2, 306948, Note_on_c, 0, 83, 0
2, 306962, Note_on_c, 0, 90, 0
2, 306970, Note_on_c, 0, 92, 113
2, 306974, Note_on_c, 0, 95, 104
2, 307015, Note_on_c, 0, 95, 0
2, 307023, Note_on_c, 0, 90, 110
2, 307031, Note_on_c, 0, 83, 87
2, 307032, Note_on_c, 0, 81, 102
2, 307045, Note_on_c, 0, 92, 0
2, 307065, Note_on_c, 0, 81, 0
2, 307073, Note_on_c, 0, 83, 0
2, 307075, Note_on_c, 0, 47, 118
2, 307078, Note_on_c, 0, 35, 117
2, 307078, Note_on_c, 0, 92, 113
2, 307085, Note_on_c, 0, 95, 103
2, 307095, Note_on_c, 0, 90, 0
2, 307100, Note_on_c, 0, 47, 0
2, 307100, Note_on_c, 0, 35, 0
2, 307139, Note_on_c, 0, 95, 0
2, 307146, Note_on_c, 0, 90, 107
2, 307156, Note_on_c, 0, 83, 73
2, 307161, Note_on_c, 0, 81, 74
2, 307166, Note_on_c, 0, 92, 0
2, 307179, Note_on_c, 0, 81, 0
2, 307186, Note_on_c, 0, 83, 0
2, 307196, Note_on_c, 0, 92, 96
2, 307203, Note_on_c, 0, 90, 0
2, 307204, Note_on_c, 0, 95, 90
2, 307240, Note_on_c, 0, 95, 0
2, 307246, Note_on_c, 0, 34, 106
2, 307246, Note_on_c, 0, 46, 115
2, 307247, Note_on_c, 0, 90, 105
2, 307258, Note_on_c, 0, 81, 107
2, 307258, Note_on_c, 0, 83, 92
2, 307270, Note_on_c, 0, 92, 0
2, 307271, Note_on_c, 0, 46, 0
2, 307274, Note_on_c, 0, 34, 0
2, 307292, Note_on_c, 0, 81, 0
2, 307299, Note_on_c, 0, 92, 105
2, 307304, Note_on_c, 0, 47, 99
2, 307305, Note_on_c, 0, 95, 101
2, 307306, Note_on_c, 0, 35, 78
2, 307311, Note_on_c, 0, 83, 0
2, 307313, Note_on_c, 0, 90, 0
2, 307317, Note_on_c, 0, 47, 0
2, 307321, Note_on_c, 0, 35, 0
2, 307354, Note_on_c, 0, 95, 0
2, 307361, Note_on_c, 0, 90, 106
2, 307376, Note_on_c, 0, 83, 66
2, 307376, Note_on_c, 0, 81, 83
2, 307383, Note_on_c, 0, 92, 0
2, 307400, Note_on_c, 0, 81, 0
2, 307411, Note_on_c, 0, 83, 0
2, 307412, Note_on_c, 0, 92, 92
2, 307418, Note_on_c, 0, 95, 98
2, 307427, Note_on_c, 0, 90, 0
2, 307456, Note_on_c, 0, 51, 121
2, 307456, Note_on_c, 0, 39, 115
2, 307461, Note_on_c, 0, 95, 0
2, 307467, Note_on_c, 0, 90, 108
2, 307472, Note_on_c, 0, 81, 101
2, 307472, Note_on_c, 0, 83, 84
2, 307476, Note_on_c, 0, 51, 0
2, 307478, Note_on_c, 0, 39, 0
2, 307487, Note_on_c, 0, 92, 0
2, 307498, Control_c, 0, 64, 63
2, 307501, Control_c, 0, 64, 0
2, 307505, Note_on_c, 0, 81, 0
2, 307508, Note_on_c, 0, 83, 0
2, 307509, Note_on_c, 0, 54, 124
2, 307510, Note_on_c, 0, 42, 116
2, 307513, Note_on_c, 0, 92, 92
2, 307517, Note_on_c, 0, 95, 104
2, 307525, Control_c, 0, 64, 63
2, 307529, Note_on_c, 0, 90, 0
2, 307531, Control_c, 0, 64, 127
2, 307552, Note_on_c, 0, 42, 0
2, 307553, Note_on_c, 0, 54, 0
2, 307560, Note_on_c, 0, 95, 0
2, 307572, Note_on_c, 0, 90, 106
2, 307580, Note_on_c, 0, 81, 94
2, 307580, Note_on_c, 0, 83, 85
2, 307593, Note_on_c, 0, 92, 0
2, 307612, Note_on_c, 0, 81, 0
2, 307616, Note_on_c, 0, 83, 0
2, 307621, Note_on_c, 0, 92, 96
2, 307628, Note_on_c, 0, 95, 96
2, 307634, Note_on_c, 0, 90, 0
2, 307662, Note_on_c, 0, 95, 0
2, 307673, Note_on_c, 0, 90, 109
2, 307682, Note_on_c, 0, 81, 90
2, 307682, Note_on_c, 0, 83, 85
2, 307693, Note_on_c, 0, 92, 0
2, 307717, Note_on_c, 0, 81, 0
2, 307721, Note_on_c, 0, 83, 0
2, 307723, Note_on_c, 0, 92, 105
2, 307724, Note_on_c, 0, 59, 126
2, 307725, Note_on_c, 0, 47, 116
2, 307728, Note_on_c, 0, 95, 104
2, 307739, Note_on_c, 0, 90, 0
2, 307752, Note_on_c, 0, 47, 0
2, 307760, Note_on_c, 0, 59, 0
2, 307779, Note_on_c, 0, 95, 0
2, 307788, Note_on_c, 0, 90, 109
2, 307797, Note_on_c, 0, 83, 72
2, 307798, Note_on_c, 0, 81, 88
2, 307809, Note_on_c, 0, 92, 0
2, 307828, Note_on_c, 0, 81, 0
2, 307832, Note_on_c, 0, 83, 0
2, 307842, Note_on_c, 0, 92, 105
2, 307848, Note_on_c, 0, 95, 98
2, 307855, Note_on_c, 0, 90, 0
2, 307885, Note_on_c, 0, 95, 0
2, 307889, Note_on_c, 0, 90, 103
2, 307898, Note_on_c, 0, 83, 81
2, 307899, Note_on_c, 0, 81, 94
2, 307912, Note_on_c, 0, 92, 0
2, 307934, Note_on_c, 0, 81, 0
2, 307942, Note_on_c, 0, 92, 101
2, 307947, Note_on_c, 0, 95, 100
2, 307950, Note_on_c, 0, 83, 0
2, 307950, Note_on_c, 0, 66, 127
2, 307952, Note_on_c, 0, 54, 121
2, 307959, Note_on_c, 0, 90, 0
2, 307985, Note_on_c, 0, 54, 0
2, 307998, Note_on_c, 0, 95, 0
2, 308004, Note_on_c, 0, 90, 101
2, 308013, Note_on_c, 0, 66, 0
2, 308014, Note_on_c, 0, 81, 91
2, 308015, Note_on_c, 0, 83, 81
2, 308026, Note_on_c, 0, 92, 0
2, 308049, Note_on_c, 0, 81, 0
2, 308052, Note_on_c, 0, 83, 0
2, 308060, Note_on_c, 0, 92, 107
2, 308066, Note_on_c, 0, 95, 98
2, 308073, Note_on_c, 0, 90, 0
2, 308105, Note_on_c, 0, 95, 0
2, 308108, Note_on_c, 0, 90, 103
2, 308122, Note_on_c, 0, 83, 62
2, 308122, Note_on_c, 0, 81, 71
2, 308136, Note_on_c, 0, 92, 0
2, 308140, Control_c, 0, 64, 63
2, 308143, Control_c, 0, 64, 0
2, 308159, Note_on_c, 0, 81, 0
2, 308166, Note_on_c, 0, 83, 0
2, 308166, Control_c, 0, 64, 63
2, 308167, Note_on_c, 0, 59, 94
2, 308168, Note_on_c, 0, 92, 109
2, 308169, Note_on_c, 0, 71, 125
2, 308172, Control_c, 0, 64, 127
2, 308175, Note_on_c, 0, 95, 102
2, 308193, Note_on_c, 0, 90, 0
2, 308206, Note_on_c, 0, 59, 0
2, 308218, Note_on_c, 0, 71, 0
2, 308221, Note_on_c, 0, 95, 0
2, 308230, Note_on_c, 0, 90, 107
2, 308237, Note_on_c, 0, 83, 84
2, 308238, Note_on_c, 0, 81, 99
2, 308256, Note_on_c, 0, 92, 0
2, 308269, Note_on_c, 0, 81, 0
2, 308273, Note_on_c, 0, 83, 0
2, 308280, Note_on_c, 0, 92, 93
2, 308285, Note_on_c, 0, 95, 98
2, 308295, Note_on_c, 0, 90, 0
2, 308322, Note_on_c, 0, 95, 0
2, 308323, Note_on_c, 0, 90, 92
2, 308332, Note_on_c, 0, 83, 74
2, 308333, Note_on_c, 0, 81, 92
2, 308350, Note_on_c, 0, 92, 0
2, 308365, Note_on_c, 0, 81, 0
2, 308371, Note_on_c, 0, 83, 0
2, 308378, Note_on_c, 0, 92, 92
2, 308384, Note_on_c, 0, 95, 94
2, 308384, Note_on_c, 0, 71, 122
2, 308386, Note_on_c, 0, 76, 127
2, 308393, Note_on_c, 0, 90, 0
2, 308428, Note_on_c, 0, 95, 0
2, 308449, Note_on_c, 0, 90, 100
2, 308461, Note_on_c, 0, 75, 98
2, 308461, Note_on_c, 0, 83, 76
2, 308461, Note_on_c, 0, 81, 83
2, 308467, Note_on_c, 0, 76, 0
2, 308471, Note_on_c, 0, 92, 0
2, 308474, Note_on_c, 0, 71, 0
2, 308489, Note_on_c, 0, 81, 0
2, 308495, Note_on_c, 0, 83, 0
2, 308498, Note_on_c, 0, 75, 0
2, 308501, Note_on_c, 0, 92, 87
2, 308505, Note_on_c, 0, 95, 90
2, 308508, Note_on_c, 0, 76, 103
2, 308515, Note_on_c, 0, 90, 0
2, 308539, Note_on_c, 0, 75, 109
2, 308541, Note_on_c, 0, 95, 0
2, 308548, Note_on_c, 0, 90, 94
2, 308551, Note_on_c, 0, 76, 0
2, 308556, Note_on_c, 0, 81, 91
2, 308557, Note_on_c, 0, 83, 84
2, 308566, Note_on_c, 0, 75, 0
2, 308567, Note_on_c, 0, 92, 0
2, 308580, Note_on_c, 0, 76, 100
2, 308582, Note_on_c, 0, 81, 0
2, 308584, Note_on_c, 0, 83, 0
2, 308592, Note_on_c, 0, 92, 87
2, 308595, Note_on_c, 0, 95, 97
2, 308602, Note_on_c, 0, 90, 0
2, 308609, Note_on_c, 0, 75, 112
2, 308621, Note_on_c, 0, 76, 0
2, 308629, Note_on_c, 0, 95, 0
2, 308633, Note_on_c, 0, 75, 0
2, 308633, Note_on_c, 0, 90, 91
2, 308638, Note_on_c, 0, 76, 107
2, 308640, Note_on_c, 0, 83, 71
2, 308641, Note_on_c, 0, 81, 90
2, 308650, Note_on_c, 0, 92, 0
2, 308665, Note_on_c, 0, 81, 0
2, 308668, Note_on_c, 0, 83, 0
2, 308672, Note_on_c, 0, 75, 115
2, 308672, Note_on_c, 0, 92, 94
2, 308677, Note_on_c, 0, 95, 98
2, 308684, Note_on_c, 0, 76, 0
2, 308687, Note_on_c, 0, 90, 0
2, 308701, Note_on_c, 0, 75, 0
2, 308708, Note_on_c, 0, 76, 102
2, 308712, Note_on_c, 0, 95, 0
2, 308720, Note_on_c, 0, 90, 93
2, 308724, Note_on_c, 0, 83, 74
2, 308725, Note_on_c, 0, 81, 89
2, 308733, Note_on_c, 0, 92, 0
2, 308744, Note_on_c, 0, 75, 115
2, 308754, Note_on_c, 0, 81, 0
2, 308760, Note_on_c, 0, 83, 0
2, 308761, Note_on_c, 0, 76, 0
2, 308761, Note_on_c, 0, 92, 94
2, 308767, Note_on_c, 0, 95, 89
2, 308780, Note_on_c, 0, 90, 0
2, 308785, Note_on_c, 0, 75, 0
2, 308785, Note_on_c, 0, 76, 111
2, 308804, Note_on_c, 0, 95, 0
2, 308809, Note_on_c, 0, 90, 89
2, 308816, Note_on_c, 0, 81, 99
2, 308816, Note_on_c, 0, 83, 93
2, 308822, Note_on_c, 0, 92, 0
2, 308833, Note_on_c, 0, 71, 113
2, 308836, Note_on_c, 0, 81, 0
2, 308837, Note_on_c, 0, 83, 0
2, 308844, Note_on_c, 0, 92, 99
2, 308847, Note_on_c, 0, 95, 102
2, 308848, Note_on_c, 0, 76, 0
2, 308869, Note_on_c, 0, 90, 0
2, 308869, Note_on_c, 0, 76, 107
2, 308874, Note_on_c, 0, 71, 0
2, 308881, Note_on_c, 0, 95, 0
2, 308885, Note_on_c, 0, 90, 104
2, 308888, Note_on_c, 0, 83, 74
2, 308888, Note_on_c, 0, 81, 94
2, 308897, Note_on_c, 0, 92, 0
2, 308905, Note_on_c, 0, 75, 113
2, 308911, Note_on_c, 0, 76, 0
2, 308913, Note_on_c, 0, 83, 0
2, 308913, Note_on_c, 0, 81, 0
2, 308921, Note_on_c, 0, 95, 100
2, 308921, Note_on_c, 0, 92, 79
2, 308927, Note_on_c, 0, 75, 0
2, 308934, Note_on_c, 0, 90, 0
2, 308936, Note_on_c, 0, 76, 99
2, 308953, Note_on_c, 0, 95, 0
2, 308955, Note_on_c, 0, 90, 86
2, 308956, Note_on_c, 0, 83, 76
2, 308958, Note_on_c, 0, 81, 99
2, 308964, Note_on_c, 0, 75, 109
2, 308966, Note_on_c, 0, 92, 0
2, 308975, Note_on_c, 0, 76, 0
2, 308978, Note_on_c, 0, 81, 0
2, 308982, Note_on_c, 0, 83, 0
2, 308983, Note_on_c, 0, 75, 0
2, 308990, Note_on_c, 0, 92, 75
2, 308992, Note_on_c, 0, 95, 92
2, 308993, Note_on_c, 0, 76, 99
2, 309017, Note_on_c, 0, 90, 0
2, 309018, Note_on_c, 0, 95, 0
2, 309018, Note_on_c, 0, 75, 115
2, 309024, Note_on_c, 0, 83, 81
2, 309024, Note_on_c, 0, 81, 102
2, 309031, Note_on_c, 0, 76, 0
2, 309032, Note_on_c, 0, 92, 0
2, 309040, Note_on_c, 0, 75, 0
2, 309049, Note_on_c, 0, 76, 96
2, 309050, Note_on_c, 0, 81, 0
2, 309052, Note_on_c, 0, 83, 0
2, 309052, Note_on_c, 0, 90, 90
2, 309058, Note_on_c, 0, 92, 85
2, 309061, Note_on_c, 0, 95, 76
2, 309067, Note_on_c, 0, 75, 110
2, 309080, Note_on_c, 0, 95, 0
2, 309082, Note_on_c, 0, 83, 99
2, 309082, Note_on_c, 0, 81, 106
2, 309083, Note_on_c, 0, 90, 0
2, 309084, Note_on_c, 0, 76, 0
2, 309092, Note_on_c, 0, 92, 0
2, 309092, Note_on_c, 0, 75, 0
2, 309098, Note_on_c, 0, 76, 108
2, 309107, Note_on_c, 0, 81, 0
2, 309107, Note_on_c, 0, 90, 93
2, 309110, Note_on_c, 0, 83, 0
2, 309110, Note_on_c, 0, 92, 89
2, 309115, Note_on_c, 0, 75, 101
2, 309119, Note_on_c, 0, 95, 64
2, 309132, Note_on_c, 0, 76, 0
2, 309136, Note_on_c, 0, 81, 101
2, 309136, Note_on_c, 0, 83, 99
2, 309137, Note_on_c, 0, 95, 0
2, 309139, Note_on_c, 0, 75, 0
2, 309141, Note_on_c, 0, 92, 0
2, 309145, Note_on_c, 0, 90, 0
2, 309146, Note_on_c, 0, 76, 104
2, 309163, Note_on_c, 0, 81, 0
2, 309164, Note_on_c, 0, 83, 0
2, 309165, Note_on_c, 0, 90, 97
2, 309165, Note_on_c, 0, 75, 107
2, 309171, Note_on_c, 0, 92, 78
2, 309174, Note_on_c, 0, 95, 68
2, 309179, Note_on_c, 0, 76, 0
2, 309189, Note_on_c, 0, 75, 0
2, 309190, Note_on_c, 0, 95, 0
2, 309190, Note_on_c, 0, 83, 71
2, 309191, Note_on_c, 0, 81, 86
2, 309193, Note_on_c, 0, 76, 101
2, 309196, Note_on_c, 0, 92, 0
2, 309200, Note_on_c, 0, 90, 0
2, 309212, Note_on_c, 0, 75, 103
2, 309217, Note_on_c, 0, 81, 0
2, 309219, Note_on_c, 0, 83, 0
2, 309221, Note_on_c, 0, 90, 88
2, 309224, Note_on_c, 0, 92, 82
2, 309228, Note_on_c, 0, 76, 0
2, 309228, Note_on_c, 0, 95, 71
2, 309237, Note_on_c, 0, 75, 0
2, 309241, Note_on_c, 0, 76, 102
2, 309244, Note_on_c, 0, 95, 0
2, 309244, Note_on_c, 0, 83, 60
2, 309245, Note_on_c, 0, 81, 85
2, 309253, Note_on_c, 0, 92, 0
2, 309254, Note_on_c, 0, 90, 0
2, 309264, Note_on_c, 0, 75, 101
2, 309272, Note_on_c, 0, 81, 0
2, 309276, Note_on_c, 0, 83, 0
2, 309277, Note_on_c, 0, 90, 88
2, 309279, Note_on_c, 0, 76, 0
2, 309279, Note_on_c, 0, 92, 74
2, 309285, Note_on_c, 0, 95, 67
2, 309289, Note_on_c, 0, 75, 0
2, 309289, Note_on_c, 0, 76, 88
2, 309300, Note_on_c, 0, 83, 71
2, 309301, Note_on_c, 0, 81, 84
2, 309302, Note_on_c, 0, 95, 0
2, 309309, Note_on_c, 0, 92, 0
2, 309312, Note_on_c, 0, 90, 0
2, 309314, Note_on_c, 0, 75, 110
2, 309328, Note_on_c, 0, 81, 0
2, 309329, Note_on_c, 0, 76, 0
2, 309330, Note_on_c, 0, 90, 96
2, 309331, Note_on_c, 0, 83, 0
2, 309333, Note_on_c, 0, 92, 81
2, 309339, Note_on_c, 0, 95, 79
2, 309340, Note_on_c, 0, 76, 109
2, 309350, Note_on_c, 0, 83, 67
2, 309350, Note_on_c, 0, 81, 92
2, 309352, Note_on_c, 0, 75, 0
2, 309354, Note_on_c, 0, 95, 0
2, 309372, Note_on_c, 0, 75, 110
2, 309405, Note_on_c, 0, 81, 0
2, 309408, Note_on_c, 0, 83, 0
2, 309426, Note_on_c, 0, 75, 0
2, 309430, Note_on_c, 0, 92, 0
2, 309448, Note_on_c, 0, 88, 111
2, 309452, Note_on_c, 0, 73, 116
2, 309471, Note_on_c, 0, 90, 0
2, 309471, Note_on_c, 0, 76, 0
2, 309498, Note_on_c, 0, 75, 115
2, 309503, Note_on_c, 0, 90, 112
2, 309521, Note_on_c, 0, 73, 0
2, 309529, Note_on_c, 0, 88, 0
2, 309546, Control_c, 0, 64, 63
2, 309549, Control_c, 0, 64, 0
2, 309560, Note_on_c, 0, 75, 0
2, 309561, Note_on_c, 0, 90, 0
2, 309614, Note_on_c, 0, 92, 114
2, 309614, Note_on_c, 0, 71, 94
2, 309614, Note_on_c, 0, 74, 83
2, 309615, Note_on_c, 0, 77, 112
2, 309615, Note_on_c, 0, 83, 112
2, 309616, Note_on_c, 0, 80, 124
2, 309617, Note_on_c, 0, 95, 111
2, 309631, Control_c, 0, 64, 127
2, 309669, Note_on_c, 0, 83, 0
2, 309684, Note_on_c, 0, 95, 0
2, 309695, Note_on_c, 0, 92, 0
2, 309742, Note_on_c, 0, 80, 0
2, 309743, Note_on_c, 0, 77, 0
2, 309751, Note_on_c, 0, 74, 0
2, 309752, Note_on_c, 0, 71, 0
2, 310123, Control_c, 0, 64, 63
2, 310131, Control_c, 0, 64, 0
2, 351253, Control_c, 0, 67, 127
2, 352225, Note_on_c, 0, 48, 30
2, 352235, Control_c, 0, 64, 63
2, 352237, Note_on_c, 0, 36, 29
2, 352247, Control_c, 0, 64, 127
2, 352352, Note_on_c, 0, 36, 0
2, 352390, Note_on_c, 0, 48, 0
2, 352677, Note_on_c, 0, 55, 13
2, 352679, Note_on_c, 0, 64, 11
2, 352681, Note_on_c, 0, 60, 23
2, 352766, Note_on_c, 0, 60, 0
2, 352776, Note_on_c, 0, 64, 0
2, 352778, Note_on_c, 0, 55, 0
2, 352965, Note_on_c, 0, 64, 17
2, 352967, Note_on_c, 0, 55, 14
2, 352968, Note_on_c, 0, 60, 34
2, 353053, Note_on_c, 0, 60, 0
2, 353067, Note_on_c, 0, 64, 0
2, 353077, Note_on_c, 0, 55, 0
2, 353184, Note_on_c, 0, 55, 15
2, 353191, Note_on_c, 0, 64, 21
2, 353191, Note_on_c, 0, 60, 44
2, 353263, Note_on_c, 0, 60, 0
2, 353275, Note_on_c, 0, 64, 0
2, 353280, Note_on_c, 0, 55, 0
2, 353303, Note_on_c, 0, 79, 47
2, 353453, Note_on_c, 0, 55, 9
2, 353458, Note_on_c, 0, 60, 27
2, 353461, Note_on_c, 0, 64, 14
2, 353474, Note_on_c, 0, 76, 62
2, 353515, Note_on_c, 0, 79, 0
2, 353521, Note_on_c, 0, 60, 0
2, 353570, Note_on_c, 0, 64, 0
2, 353585, Note_on_c, 0, 55, 0
2, 353658, Note_on_c, 0, 76, 0
2, 353686, Note_on_c, 0, 55, 17
2, 353690, Note_on_c, 0, 64, 24
2, 353693, Note_on_c, 0, 60, 44
2, 353774, Note_on_c, 0, 60, 0
2, 353775, Note_on_c, 0, 77, 80
2, 353777, Note_on_c, 0, 64, 0
2, 353791, Note_on_c, 0, 55, 0
2, 353843, Note_on_c, 0, 77, 0
2, 353875, Note_on_c, 0, 55, 19
2, 353879, Note_on_c, 0, 79, 75
2, 353880, Note_on_c, 0, 60, 46
2, 353880, Note_on_c, 0, 64, 22
2, 354000, Note_on_c, 0, 60, 0
2, 354010, Note_on_c, 0, 64, 0
2, 354018, Note_on_c, 0, 55, 0
2, 354049, Control_c, 0, 64, 63
2, 354068, Control_c, 0, 64, 127
2, 354075, Note_on_c, 0, 55, 23
2, 354079, Note_on_c, 0, 64, 37
2, 354083, Note_on_c, 0, 60, 58
2, 354189, Note_on_c, 0, 60, 0
2, 354196, Note_on_c, 0, 64, 0
2, 354213, Note_on_c, 0, 55, 0
2, 354240, Note_on_c, 0, 55, 20
2, 354244, Note_on_c, 0, 64, 37
2, 354246, Note_on_c, 0, 60, 49
2, 354299, Note_on_c, 0, 79, 0
2, 354312, Note_on_c, 0, 60, 0
2, 354316, Note_on_c, 0, 64, 0
2, 354329, Note_on_c, 0, 55, 0
2, 354398, Note_on_c, 0, 84, 90
2, 354400, Note_on_c, 0, 55, 26
2, 354408, Note_on_c, 0, 60, 54
2, 354409, Note_on_c, 0, 64, 31
2, 354511, Note_on_c, 0, 60, 0
2, 354519, Note_on_c, 0, 64, 0
2, 354532, Note_on_c, 0, 55, 0
2, 354609, Note_on_c, 0, 55, 19
2, 354616, Note_on_c, 0, 60, 52
2, 354619, Note_on_c, 0, 86, 85
2, 354619, Note_on_c, 0, 64, 29
2, 354665, Note_on_c, 0, 84, 0
2, 354706, Note_on_c, 0, 60, 0
2, 354716, Note_on_c, 0, 64, 0
2, 354724, Note_on_c, 0, 55, 0
2, 354801, Note_on_c, 0, 88, 93
2, 354820, Note_on_c, 0, 55, 10
2, 354829, Note_on_c, 0, 64, 11
2, 354829, Note_on_c, 0, 60, 29
2, 354850, Note_on_c, 0, 86, 0
2, 354891, Note_on_c, 0, 60, 0
2, 354895, Note_on_c, 0, 64, 0
2, 354909, Note_on_c, 0, 55, 0
2, 354971, Note_on_c, 0, 55, 25
2, 354976, Note_on_c, 0, 64, 35
2, 354979, Note_on_c, 0, 60, 57
2, 354987, Note_on_c, 0, 86, 78
2, 355027, Note_on_c, 0, 88, 0
2, 355079, Note_on_c, 0, 60, 0
2, 355085, Note_on_c, 0, 64, 0
2, 355102, Note_on_c, 0, 55, 0
2, 355138, Note_on_c, 0, 84, 66
2, 355156, Note_on_c, 0, 55, 21
2, 355158, Note_on_c, 0, 64, 32
2, 355162, Note_on_c, 0, 60, 48
2, 355180, Note_on_c, 0, 86, 0
2, 355233, Note_on_c, 0, 64, 0
2, 355243, Note_on_c, 0, 60, 0
2, 355261, Note_on_c, 0, 55, 0
2, 355295, Note_on_c, 0, 55, 27
2, 355301, Note_on_c, 0, 64, 38
2, 355304, Note_on_c, 0, 60, 51
2, 355315, Note_on_c, 0, 79, 70
2, 355327, Control_c, 0, 64, 63
2, 355348, Control_c, 0, 64, 127
2, 355355, Note_on_c, 0, 84, 0
2, 355420, Note_on_c, 0, 60, 0
2, 355422, Note_on_c, 0, 64, 0
2, 355435, Note_on_c, 0, 55, 0
2, 355470, Note_on_c, 0, 55, 39
2, 355473, Note_on_c, 0, 64, 36
2, 355477, Note_on_c, 0, 60, 49
2, 355541, Note_on_c, 0, 60, 0
2, 355544, Note_on_c, 0, 64, 0
2, 355552, Note_on_c, 0, 79, 0
2, 355553, Note_on_c, 0, 55, 0
2, 355660, Note_on_c, 0, 81, 71
2, 355666, Note_on_c, 0, 55, 17
2, 355668, Note_on_c, 0, 60, 42
2, 355671, Note_on_c, 0, 64, 30
2, 355681, Note_on_c, 0, 60, 0
2, 355733, Note_on_c, 0, 81, 0
2, 355756, Note_on_c, 0, 64, 0
2, 355757, Note_on_c, 0, 55, 0
2, 355876, Note_on_c, 0, 55, 39
2, 355882, Note_on_c, 0, 60, 48
2, 355885, Note_on_c, 0, 64, 23
2, 355927, Note_on_c, 0, 60, 0
2, 355937, Note_on_c, 0, 64, 0
2, 355946, Note_on_c, 0, 55, 0
2, 355980, Note_on_c, 0, 76, 67
2, 356078, Note_on_c, 0, 48, 38
2, 356091, Note_on_c, 0, 76, 0
2, 356106, Note_on_c, 0, 79, 68
2, 356125, Control_c, 0, 64, 63
2, 356132, Control_c, 0, 64, 0
2, 356206, Control_c, 0, 64, 63
2, 356212, Control_c, 0, 64, 127
2, 356324, Note_on_c, 0, 48, 0
2, 356365, Note_on_c, 0, 57, 34
2, 356368, Note_on_c, 0, 62, 35
2, 356375, Note_on_c, 0, 53, 40
2, 356408, Note_on_c, 0, 79, 0
2, 356438, Note_on_c, 0, 53, 0
2, 356443, Note_on_c, 0, 62, 0
2, 356446, Note_on_c, 0, 57, 0
2, 356558, Note_on_c, 0, 57, 27
2, 356559, Note_on_c, 0, 62, 23
2, 356568, Note_on_c, 0, 53, 29
2, 356579, Note_on_c, 0, 77, 65
2, 356645, Note_on_c, 0, 62, 0
2, 356657, Note_on_c, 0, 57, 0
2, 356658, Note_on_c, 0, 53, 0
2, 356751, Note_on_c, 0, 57, 31
2, 356753, Note_on_c, 0, 62, 22
2, 356758, Note_on_c, 0, 53, 38
2, 356821, Note_on_c, 0, 77, 0
2, 356828, Note_on_c, 0, 62, 0
2, 356836, Note_on_c, 0, 53, 0
2, 356839, Note_on_c, 0, 57, 0
2, 356927, Note_on_c, 0, 62, 40
2, 356928, Note_on_c, 0, 57, 34
2, 356936, Note_on_c, 0, 53, 44
2, 357000, Note_on_c, 0, 62, 0
2, 357011, Note_on_c, 0, 53, 0
2, 357013, Note_on_c, 0, 57, 0
2, 357097, Note_on_c, 0, 62, 43
2, 357100, Note_on_c, 0, 57, 37
2, 357106, Note_on_c, 0, 53, 44
2, 357191, Note_on_c, 0, 62, 0
2, 357203, Note_on_c, 0, 53, 0
2, 357209, Note_on_c, 0, 57, 0
2, 357301, Note_on_c, 0, 36, 63
2, 357375, Note_on_c, 0, 36, 0
2, 357538, Note_on_c, 0, 62, 27
2, 357539, Note_on_c, 0, 57, 22
2, 357555, Note_on_c, 0, 53, 15
2, 357649, Note_on_c, 0, 62, 0
2, 357651, Note_on_c, 0, 57, 0
2, 357660, Note_on_c, 0, 53, 0
2, 357788, Note_on_c, 0, 57, 32
2, 357790, Note_on_c, 0, 53, 30
2, 357795, Note_on_c, 0, 62, 26
2, 357885, Note_on_c, 0, 53, 0
2, 357886, Note_on_c, 0, 62, 0
2, 357888, Note_on_c, 0, 57, 0
2, 357982, Note_on_c, 0, 62, 38
2, 357984, Note_on_c, 0, 57, 43
2, 357994, Note_on_c, 0, 53, 49
2, 358055, Note_on_c, 0, 62, 0
2, 358068, Note_on_c, 0, 53, 0
2, 358069, Note_on_c, 0, 57, 0
2, 358074, Note_on_c, 0, 81, 51
2, 358201, Note_on_c, 0, 57, 24
2, 358204, Note_on_c, 0, 77, 81
2, 358206, Note_on_c, 0, 62, 16
2, 358207, Note_on_c, 0, 53, 29
2, 358229, Note_on_c, 0, 81, 0
2, 358279, Note_on_c, 0, 62, 0
2, 358282, Note_on_c, 0, 57, 0
2, 358282, Note_on_c, 0, 53, 0
2, 358345, Note_on_c, 0, 77, 0
2, 358357, Note_on_c, 0, 62, 47
2, 358361, Note_on_c, 0, 57, 45
2, 358368, Note_on_c, 0, 53, 41
2, 358430, Note_on_c, 0, 62, 0
2, 358433, Note_on_c, 0, 57, 0
2, 358433, Note_on_c, 0, 53, 0
2, 358433, Note_on_c, 0, 79, 83
2, 358491, Note_on_c, 0, 79, 0
2, 358527, Note_on_c, 0, 62, 38
2, 358531, Note_on_c, 0, 57, 37
2, 358540, Note_on_c, 0, 81, 86
2, 358540, Note_on_c, 0, 53, 42
2, 358554, Control_c, 0, 64, 63
2, 358604, Control_c, 0, 64, 127
2, 358658, Note_on_c, 0, 62, 0
2, 358665, Note_on_c, 0, 57, 0
2, 358666, Note_on_c, 0, 53, 0
2, 358717, Note_on_c, 0, 62, 50
2, 358717, Note_on_c, 0, 57, 48
2, 358723, Note_on_c, 0, 53, 48
2, 358783, Note_on_c, 0, 62, 0
2, 358793, Note_on_c, 0, 53, 0
2, 358794, Note_on_c, 0, 57, 0
2, 358813, Note_on_c, 0, 81, 0
2, 358864, Note_on_c, 0, 57, 59
2, 358865, Note_on_c, 0, 62, 65
2, 358870, Note_on_c, 0, 53, 57
2, 358928, Note_on_c, 0, 62, 0
2, 358938, Note_on_c, 0, 53, 0
2, 358941, Note_on_c, 0, 57, 0
2, 359016, Note_on_c, 0, 62, 59
2, 359018, Note_on_c, 0, 57, 48
2, 359027, Note_on_c, 0, 53, 46
2, 359029, Note_on_c, 0, 86, 89
2, 359076, Note_on_c, 0, 62, 0
2, 359083, Note_on_c, 0, 86, 0
2, 359087, Note_on_c, 0, 57, 0
2, 359087, Note_on_c, 0, 53, 0
2, 359093, Note_on_c, 0, 88, 74
2, 359114, Note_on_c, 0, 86, 79
2, 359128, Note_on_c, 0, 88, 0
2, 359166, Note_on_c, 0, 86, 0
2, 359170, Note_on_c, 0, 85, 78
2, 359198, Note_on_c, 0, 86, 77
2, 359209, Note_on_c, 0, 85, 0
2, 359215, Note_on_c, 0, 57, 41
2, 359218, Note_on_c, 0, 62, 51
2, 359220, Note_on_c, 0, 53, 49
2, 359242, Note_on_c, 0, 88, 94
2, 359266, Note_on_c, 0, 86, 0
2, 359282, Note_on_c, 0, 62, 0
2, 359287, Note_on_c, 0, 53, 0
2, 359288, Note_on_c, 0, 57, 0
2, 359424, Note_on_c, 0, 62, 68
2, 359427, Note_on_c, 0, 57, 54
2, 359431, Note_on_c, 0, 53, 58
2, 359456, Note_on_c, 0, 89, 103
2, 359469, Note_on_c, 0, 62, 0
2, 359471, Note_on_c, 0, 88, 0
2, 359475, Note_on_c, 0, 57, 0
2, 359494, Note_on_c, 0, 53, 0
2, 359601, Note_on_c, 0, 89, 0
2, 359665, Note_on_c, 0, 47, 86
2, 359710, Control_c, 0, 64, 63
2, 359716, Control_c, 0, 64, 0
2, 359726, Note_on_c, 0, 79, 91
2, 359767, Control_c, 0, 64, 63
2, 359774, Control_c, 0, 64, 127
2, 359801, Note_on_c, 0, 47, 0
2, 359819, Note_on_c, 0, 79, 0
2, 360015, Note_on_c, 0, 55, 43
2, 360016, Note_on_c, 0, 62, 49
2, 360023, Note_on_c, 0, 65, 31
2, 360031, Note_on_c, 0, 101, 86
2, 360037, Note_on_c, 0, 98, 76
2, 360096, Note_on_c, 0, 62, 0
2, 360099, Note_on_c, 0, 55, 0
2, 360109, Note_on_c, 0, 65, 0
2, 360124, Note_on_c, 0, 101, 0
2, 360138, Note_on_c, 0, 98, 0
2, 360147, Note_on_c, 0, 96, 68
2, 360190, Note_on_c, 0, 96, 0
2, 360230, Note_on_c, 0, 98, 69
2, 360231, Note_on_c, 0, 95, 56
2, 360289, Note_on_c, 0, 98, 0
2, 360289, Note_on_c, 0, 93, 79
2, 360291, Note_on_c, 0, 95, 0
2, 360307, Note_on_c, 0, 55, 40
2, 360313, Note_on_c, 0, 62, 54
2, 360315, Note_on_c, 0, 65, 30
2, 360330, Note_on_c, 0, 93, 0
2, 360357, Note_on_c, 0, 95, 73
2, 360361, Note_on_c, 0, 91, 69
2, 360368, Note_on_c, 0, 62, 0
2, 360369, Note_on_c, 0, 65, 0
2, 360371, Note_on_c, 0, 55, 0
2, 360394, Note_on_c, 0, 95, 0
2, 360409, Note_on_c, 0, 89, 88
2, 360413, Note_on_c, 0, 91, 0
2, 360447, Note_on_c, 0, 89, 0
2, 360463, Note_on_c, 0, 91, 84
2, 360476, Note_on_c, 0, 88, 68
2, 360487, Note_on_c, 0, 55, 26
2, 360488, Note_on_c, 0, 62, 51
2, 360491, Note_on_c, 0, 65, 23
2, 360513, Note_on_c, 0, 91, 0
2, 360518, Note_on_c, 0, 86, 97
2, 360528, Note_on_c, 0, 88, 0
2, 360528, Note_on_c, 0, 65, 0
2, 360531, Note_on_c, 0, 62, 0
2, 360538, Note_on_c, 0, 55, 0
2, 360555, Note_on_c, 0, 86, 0
2, 360568, Note_on_c, 0, 88, 86
2, 360578, Note_on_c, 0, 84, 78
2, 360618, Note_on_c, 0, 65, 50
2, 360620, Note_on_c, 0, 88, 0
2, 360621, Note_on_c, 0, 55, 33
2, 360622, Note_on_c, 0, 62, 65
2, 360623, Note_on_c, 0, 83, 97
2, 360631, Note_on_c, 0, 84, 0
2, 360664, Note_on_c, 0, 83, 0
2, 360672, Note_on_c, 0, 65, 0
2, 360674, Note_on_c, 0, 62, 0
2, 360677, Note_on_c, 0, 84, 102
2, 360686, Note_on_c, 0, 55, 0
2, 360686, Note_on_c, 0, 81, 79
2, 360729, Note_on_c, 0, 84, 0
2, 360738, Note_on_c, 0, 79, 92
2, 360746, Note_on_c, 0, 81, 0
2, 360778, Note_on_c, 0, 79, 0
2, 360792, Note_on_c, 0, 65, 52
2, 360793, Note_on_c, 0, 55, 38
2, 360794, Note_on_c, 0, 62, 62
2, 360797, Note_on_c, 0, 81, 90
2, 360805, Note_on_c, 0, 77, 72
2, 360828, Note_on_c, 0, 65, 0
2, 360832, Note_on_c, 0, 62, 0
2, 360859, Note_on_c, 0, 81, 0
2, 360861, Note_on_c, 0, 55, 0
2, 360862, Note_on_c, 0, 76, 97
2, 360870, Note_on_c, 0, 77, 0
2, 360913, Note_on_c, 0, 76, 0
2, 360932, Note_on_c, 0, 74, 85
2, 360934, Note_on_c, 0, 77, 79
2, 361053, Note_on_c, 0, 48, 59
2, 361059, Note_on_c, 0, 74, 0
2, 361063, Note_on_c, 0, 77, 0
2, 361068, Note_on_c, 0, 71, 43
2, 361068, Note_on_c, 0, 75, 88
2, 361084, Control_c, 0, 64, 63
2, 361096, Control_c, 0, 64, 0
2, 361151, Control_c, 0, 64, 63
2, 361160, Control_c, 0, 64, 127
2, 361216, Note_on_c, 0, 48, 0
2, 361284, Note_on_c, 0, 55, 35
2, 361300, Note_on_c, 0, 64, 34
2, 361395, Note_on_c, 0, 64, 0
2, 361396, Note_on_c, 0, 55, 0
2, 361437, Note_on_c, 0, 75, 0
2, 361444, Note_on_c, 0, 71, 0
2, 361493, Note_on_c, 0, 64, 27
2, 361495, Note_on_c, 0, 55, 34
2, 361526, Note_on_c, 0, 76, 57
2, 361543, Note_on_c, 0, 72, 56
2, 361547, Control_c, 0, 64, 63
2, 361589, Control_c, 0, 64, 127
2, 361672, Note_on_c, 0, 55, 0
2, 361679, Note_on_c, 0, 64, 0
2, 361770, Note_on_c, 0, 55, 32
2, 361772, Note_on_c, 0, 72, 0
2, 361773, Note_on_c, 0, 64, 24
2, 361801, Note_on_c, 0, 76, 0
2, 361811, Note_on_c, 0, 64, 0
2, 361838, Note_on_c, 0, 55, 0
2, 361943, Note_on_c, 0, 47, 71
2, 362184, Note_on_c, 0, 62, 52
2, 362200, Note_on_c, 0, 52, 39
2, 362202, Note_on_c, 0, 56, 47
2, 362215, Control_c, 0, 64, 63
2, 362232, Control_c, 0, 64, 0
2, 362250, Control_c, 0, 64, 63
2, 362275, Control_c, 0, 64, 127
2, 362325, Note_on_c, 0, 52, 0
2, 362326, Note_on_c, 0, 56, 0
2, 362353, Note_on_c, 0, 47, 0
2, 362379, Note_on_c, 0, 62, 0
2, 362526, Note_on_c, 0, 45, 46
2, 362572, Control_c, 0, 64, 63
2, 362583, Control_c, 0, 64, 0
2, 362604, Control_c, 0, 64, 63
2, 362624, Control_c, 0, 64, 127
2, 362696, Note_on_c, 0, 45, 0
2, 362922, Note_on_c, 0, 57, 26
2, 362925, Note_on_c, 0, 60, 33
2, 362930, Note_on_c, 0, 52, 27
2, 363008, Note_on_c, 0, 60, 0
2, 363012, Note_on_c, 0, 57, 0
2, 363012, Note_on_c, 0, 52, 0
2, 363156, Note_on_c, 0, 57, 29
2, 363158, Note_on_c, 0, 60, 27
2, 363160, Note_on_c, 0, 52, 26
2, 363231, Note_on_c, 0, 60, 0
2, 363236, Note_on_c, 0, 57, 0
2, 363240, Note_on_c, 0, 52, 0
2, 363333, Note_on_c, 0, 57, 31
2, 363335, Note_on_c, 0, 60, 20
2, 363336, Note_on_c, 0, 52, 19
2, 363402, Note_on_c, 0, 60, 0
2, 363410, Note_on_c, 0, 57, 0
2, 363412, Note_on_c, 0, 76, 56
2, 363413, Note_on_c, 0, 52, 0
2, 363564, Note_on_c, 0, 57, 28
2, 363566, Note_on_c, 0, 52, 17
2, 363567, Note_on_c, 0, 60, 25
2, 363583, Note_on_c, 0, 76, 0
2, 363585, Note_on_c, 0, 72, 72
2, 363601, Note_on_c, 0, 60, 0
2, 363657, Note_on_c, 0, 57, 0
2, 363661, Note_on_c, 0, 52, 0
2, 363671, Note_on_c, 0, 72, 0
2, 363764, Note_on_c, 0, 57, 33
2, 363765, Note_on_c, 0, 52, 27
2, 363766, Note_on_c, 0, 60, 23
2, 363838, Note_on_c, 0, 60, 0
2, 363846, Note_on_c, 0, 57, 0
2, 363850, Note_on_c, 0, 52, 0
2, 363861, Note_on_c, 0, 74, 85
2, 363909, Note_on_c, 0, 74, 0
2, 363968, Note_on_c, 0, 57, 33
2, 363970, Note_on_c, 0, 60, 21
2, 363970, Note_on_c, 0, 52, 37
2, 363970, Note_on_c, 0, 76, 62
2, 364006, Control_c, 0, 64, 63
2, 364038, Control_c, 0, 64, 127
2, 364129, Note_on_c, 0, 60, 0
2, 364130, Note_on_c, 0, 57, 0
2, 364134, Note_on_c, 0, 52, 0
2, 364199, Control_c, 0, 64, 63
2, 364205, Note_on_c, 0, 52, 36
2, 364206, Note_on_c, 0, 57, 50
2, 364207, Note_on_c, 0, 60, 43
2, 364214, Control_c, 0, 64, 127
2, 364321, Note_on_c, 0, 60, 0
2, 364330, Note_on_c, 0, 57, 0
2, 364341, Note_on_c, 0, 52, 0
2, 364378, Note_on_c, 0, 60, 54
2, 364379, Note_on_c, 0, 52, 55
2, 364380, Note_on_c, 0, 57, 53
2, 364447, Note_on_c, 0, 60, 0
2, 364457, Note_on_c, 0, 57, 0
2, 364458, Note_on_c, 0, 52, 0
2, 364471, Note_on_c, 0, 76, 0
2, 364509, Note_on_c, 0, 81, 84
2, 364520, Note_on_c, 0, 52, 43
2, 364521, Note_on_c, 0, 57, 46
2, 364521, Note_on_c, 0, 60, 48
2, 364597, Note_on_c, 0, 60, 0
2, 364600, Note_on_c, 0, 52, 0
2, 364604, Note_on_c, 0, 57, 0
2, 364699, Note_on_c, 0, 83, 88
2, 364706, Note_on_c, 0, 60, 36
2, 364707, Note_on_c, 0, 52, 40
2, 364707, Note_on_c, 0, 57, 46
2, 364735, Note_on_c, 0, 81, 0
2, 364775, Note_on_c, 0, 60, 0
2, 364786, Note_on_c, 0, 52, 0
2, 364791, Note_on_c, 0, 57, 0
2, 364857, Note_on_c, 0, 60, 62
2, 364858, Note_on_c, 0, 57, 64
2, 364858, Note_on_c, 0, 84, 104
2, 364865, Note_on_c, 0, 52, 60
2, 364882, Note_on_c, 0, 60, 0
2, 364891, Note_on_c, 0, 57, 0
2, 364903, Note_on_c, 0, 83, 0
2, 364921, Note_on_c, 0, 52, 0
2, 365003, Control_c, 0, 64, 63
2, 365008, Control_c, 0, 64, 0
2, 365025, Note_on_c, 0, 44, 65
2, 365040, Note_on_c, 0, 76, 97
2, 365046, Note_on_c, 0, 84, 0
2, 365083, Control_c, 0, 64, 63
2, 365086, Control_c, 0, 64, 127
2, 365089, Note_on_c, 0, 44, 0
2, 365210, Note_on_c, 0, 76, 0
2, 365246, Note_on_c, 0, 52, 35
2, 365249, Note_on_c, 0, 59, 67
2, 365251, Note_on_c, 0, 62, 67
2, 365314, Note_on_c, 0, 62, 0
2, 365319, Note_on_c, 0, 52, 0
2, 365321, Note_on_c, 0, 77, 72
2, 365323, Note_on_c, 0, 59, 0
2, 365357, Note_on_c, 0, 79, 75
2, 365363, Note_on_c, 0, 77, 0
2, 365412, Note_on_c, 0, 77, 87
2, 365434, Note_on_c, 0, 79, 0
2, 365451, Note_on_c, 0, 62, 44
2, 365454, Note_on_c, 0, 59, 50
2, 365457, Note_on_c, 0, 52, 39
2, 365462, Note_on_c, 0, 76, 102
2, 365494, Note_on_c, 0, 77, 0
2, 365558, Note_on_c, 0, 62, 0
2, 365560, Note_on_c, 0, 59, 0
2, 365562, Note_on_c, 0, 52, 0
2, 365571, Note_on_c, 0, 76, 0
2, 365646, Note_on_c, 0, 62, 60
2, 365647, Note_on_c, 0, 59, 60
2, 365649, Note_on_c, 0, 52, 46
2, 365649, Note_on_c, 0, 76, 106
2, 365749, Note_on_c, 0, 62, 0
2, 365752, Note_on_c, 0, 59, 0
2, 365753, Note_on_c, 0, 52, 0
2, 365808, Note_on_c, 0, 71, 87
2, 365812, Note_on_c, 0, 62, 67
2, 365813, Note_on_c, 0, 59, 63
2, 365814, Note_on_c, 0, 52, 53
2, 365820, Note_on_c, 0, 76, 0
2, 365891, Note_on_c, 0, 62, 0
2, 365898, Note_on_c, 0, 59, 0
2, 365898, Note_on_c, 0, 52, 0
2, 365925, Note_on_c, 0, 71, 0
2, 365959, Note_on_c, 0, 75, 109
2, 365960, Note_on_c, 0, 52, 60
2, 365962, Note_on_c, 0, 62, 65
2, 365963, Note_on_c, 0, 59, 65
2, 366021, Note_on_c, 0, 75, 0
2, 366034, Note_on_c, 0, 62, 0
2, 366038, Note_on_c, 0, 59, 0
2, 366043, Note_on_c, 0, 52, 0
2, 366114, Note_on_c, 0, 76, 104
2, 366118, Note_on_c, 0, 62, 65
2, 366119, Note_on_c, 0, 59, 65
2, 366119, Note_on_c, 0, 52, 57
2, 366148, Control_c, 0, 64, 63
2, 366151, Control_c, 0, 64, 0
2, 366226, Control_c, 0, 64, 63
2, 366229, Control_c, 0, 64, 127
2, 366263, Note_on_c, 0, 62, 0
2, 366266, Note_on_c, 0, 59, 0
2, 366269, Note_on_c, 0, 52, 0
2, 366331, Note_on_c, 0, 59, 68
2, 366333, Note_on_c, 0, 62, 66
2, 366334, Note_on_c, 0, 52, 50
2, 366371, Note_on_c, 0, 76, 0
2, 366405, Note_on_c, 0, 62, 0
2, 366413, Note_on_c, 0, 59, 0
2, 366416, Note_on_c, 0, 52, 0
2, 366464, Note_on_c, 0, 59, 85
2, 366464, Note_on_c, 0, 62, 79
2, 366466, Note_on_c, 0, 52, 73
2, 366535, Note_on_c, 0, 62, 0
2, 366539, Note_on_c, 0, 59, 0
2, 366542, Note_on_c, 0, 52, 0
2, 366591, Note_on_c, 0, 83, 111
2, 366595, Note_on_c, 0, 62, 71
2, 366595, Note_on_c, 0, 59, 69
2, 366600, Note_on_c, 0, 52, 56
2, 366645, Note_on_c, 0, 83, 0
2, 366661, Note_on_c, 0, 62, 0
2, 366662, Note_on_c, 0, 59, 0
2, 366668, Note_on_c, 0, 52, 0
2, 366771, Note_on_c, 0, 62, 84
2, 366772, Note_on_c, 0, 59, 84
2, 366777, Note_on_c, 0, 52, 68
2, 366777, Note_on_c, 0, 84, 114
2, 366841, Note_on_c, 0, 62, 0
2, 366842, Note_on_c, 0, 59, 0
2, 366852, Note_on_c, 0, 52, 0
2, 366960, Note_on_c, 0, 84, 0
2, 366997, Note_on_c, 0, 62, 98
2, 366998, Note_on_c, 0, 59, 96
2, 367004, Note_on_c, 0, 52, 84
2, 367040, Note_on_c, 0, 62, 0
2, 367044, Note_on_c, 0, 59, 0
2, 367075, Note_on_c, 0, 52, 0
2, 367098, Note_on_c, 0, 86, 116
2, 367222, Note_on_c, 0, 86, 0
2, 367258, Note_on_c, 0, 43, 114
2, 367269, Control_c, 0, 64, 63
2, 367274, Control_c, 0, 64, 0
2, 367285, Note_on_c, 0, 86, 112
2, 367362, Control_c, 0, 64, 63
2, 367364, Control_c, 0, 64, 127
2, 367368, Note_on_c, 0, 43, 0
2, 367468, Note_on_c, 0, 86, 0
2, 367606, Note_on_c, 0, 58, 87
2, 367606, Note_on_c, 0, 61, 98
2, 367608, Note_on_c, 0, 64, 89
2, 367612, Note_on_c, 0, 55, 74
2, 367703, Note_on_c, 0, 85, 118
2, 367741, Note_on_c, 0, 85, 0
2, 367776, Note_on_c, 0, 85, 106
2, 367789, Note_on_c, 0, 61, 0
2, 367791, Note_on_c, 0, 58, 0
2, 367791, Note_on_c, 0, 64, 0
2, 367799, Note_on_c, 0, 55, 0
2, 367869, Note_on_c, 0, 58, 74
2, 367871, Note_on_c, 0, 61, 82
2, 367874, Note_on_c, 0, 64, 71
2, 367874, Note_on_c, 0, 55, 63
2, 367953, Control_c, 0, 67, 127
2, 368000, Note_on_c, 0, 94, 112
2, 368093, Note_on_c, 0, 85, 0
2, 368213, Note_on_c, 0, 64, 0
2, 368215, Note_on_c, 0, 61, 0
2, 368217, Note_on_c, 0, 55, 0
2, 368220, Note_on_c, 0, 58, 0
2, 368287, Note_on_c, 0, 94, 0
2, 368294, Note_on_c, 0, 61, 70
2, 368295, Note_on_c, 0, 58, 52
2, 368299, Note_on_c, 0, 64, 51
2, 368309, Note_on_c, 0, 55, 45
2, 368392, Note_on_c, 0, 58, 0
2, 368395, Note_on_c, 0, 61, 0
2, 368396, Note_on_c, 0, 55, 0
2, 368404, Note_on_c, 0, 64, 0
2, 368475, Note_on_c, 0, 61, 58
2, 368479, Note_on_c, 0, 58, 53
2, 368480, Note_on_c, 0, 64, 31
2, 368484, Note_on_c, 0, 87, 87
2, 368490, Note_on_c, 0, 55, 36
2, 368562, Note_on_c, 0, 58, 0
2, 368565, Note_on_c, 0, 61, 0
2, 368569, Note_on_c, 0, 55, 0
2, 368574, Note_on_c, 0, 64, 0
2, 368581, Note_on_c, 0, 87, 0
2, 368589, Note_on_c, 0, 88, 69
2, 368660, Note_on_c, 0, 89, 72
2, 368663, Note_on_c, 0, 88, 0
2, 368710, Note_on_c, 0, 90, 88
2, 368721, Note_on_c, 0, 89, 0
2, 368769, Note_on_c, 0, 93, 63
2, 368773, Note_on_c, 0, 90, 0
2, 368777, Note_on_c, 0, 61, 48
2, 368782, Note_on_c, 0, 58, 48
2, 368784, Note_on_c, 0, 64, 38
2, 368787, Note_on_c, 0, 55, 34
2, 368824, Note_on_c, 0, 91, 76
2, 368838, Note_on_c, 0, 93, 0
2, 368856, Note_on_c, 0, 58, 0
2, 368856, Note_on_c, 0, 64, 0
2, 368857, Note_on_c, 0, 61, 0
2, 368859, Note_on_c, 0, 89, 65
2, 368863, Note_on_c, 0, 55, 0
2, 368878, Note_on_c, 0, 91, 0
2, 368898, Note_on_c, 0, 88, 81
2, 368904, Note_on_c, 0, 89, 0
2, 368932, Note_on_c, 0, 88, 0
2, 368933, Note_on_c, 0, 84, 67
2, 368945, Note_on_c, 0, 61, 65
2, 368946, Note_on_c, 0, 64, 47
2, 368949, Note_on_c, 0, 58, 60
2, 368957, Note_on_c, 0, 55, 31
2, 368984, Note_on_c, 0, 85, 95
2, 368985, Note_on_c, 0, 84, 0
2, 369005, Note_on_c, 0, 64, 0
2, 369010, Note_on_c, 0, 61, 0
2, 369015, Note_on_c, 0, 58, 0
2, 369019, Note_on_c, 0, 55, 0
2, 369021, Note_on_c, 0, 86, 79
2, 369031, Note_on_c, 0, 85, 0
2, 369050, Note_on_c, 0, 87, 90
2, 369068, Note_on_c, 0, 86, 0
2, 369086, Note_on_c, 0, 87, 0
2, 369095, Note_on_c, 0, 89, 81
2, 369110, Note_on_c, 0, 61, 59
2, 369112, Note_on_c, 0, 58, 45
2, 369114, Note_on_c, 0, 64, 37
2, 369121, Note_on_c, 0, 55, 29
2, 369133, Note_on_c, 0, 88, 83
2, 369157, Note_on_c, 0, 89, 0
2, 369174, Note_on_c, 0, 61, 0
2, 369176, Note_on_c, 0, 64, 0
2, 369179, Note_on_c, 0, 86, 89
2, 369180, Note_on_c, 0, 55, 0
2, 369181, Note_on_c, 0, 58, 0
2, 369188, Note_on_c, 0, 88, 0
2, 369208, Note_on_c, 0, 85, 94
2, 369215, Note_on_c, 0, 86, 0
2, 369243, Note_on_c, 0, 85, 0
2, 369257, Note_on_c, 0, 58, 37
2, 369258, Note_on_c, 0, 61, 50
2, 369258, Control_c, 0, 64, 63
2, 369261, Note_on_c, 0, 64, 35
2, 369264, Note_on_c, 0, 78, 75
2, 369266, Note_on_c, 0, 55, 46
2, 369267, Control_c, 0, 64, 127
2, 369332, Note_on_c, 0, 78, 0
2, 369337, Note_on_c, 0, 79, 69
2, 369361, Note_on_c, 0, 61, 0
2, 369365, Note_on_c, 0, 64, 0
2, 369370, Note_on_c, 0, 58, 0
2, 369371, Note_on_c, 0, 80, 73
2, 369376, Note_on_c, 0, 55, 0
2, 369403, Note_on_c, 0, 79, 0
2, 369421, Note_on_c, 0, 81, 57
2, 369447, Note_on_c, 0, 61, 66
2, 369448, Note_on_c, 0, 80, 0
2, 369450, Note_on_c, 0, 64, 47
2, 369452, Note_on_c, 0, 58, 49
2, 369456, Note_on_c, 0, 55, 33
2, 369459, Note_on_c, 0, 81, 0
2, 369464, Note_on_c, 0, 84, 63
2, 369501, Note_on_c, 0, 82, 91
2, 369510, Note_on_c, 0, 84, 0
2, 369512, Note_on_c, 0, 61, 0
2, 369515, Note_on_c, 0, 64, 0
2, 369525, Note_on_c, 0, 58, 0
2, 369537, Note_on_c, 0, 55, 0
2, 369544, Note_on_c, 0, 81, 86
2, 369566, Note_on_c, 0, 82, 0
2, 369592, Note_on_c, 0, 79, 94
2, 369595, Note_on_c, 0, 81, 0
2, 369600, Note_on_c, 0, 80, 39
2, 369614, Note_on_c, 0, 80, 0
2, 369630, Note_on_c, 0, 61, 67
2, 369631, Note_on_c, 0, 58, 58
2, 369634, Note_on_c, 0, 64, 48
2, 369635, Note_on_c, 0, 79, 0
2, 369637, Note_on_c, 0, 55, 38
2, 369646, Note_on_c, 0, 75, 99
2, 369695, Note_on_c, 0, 75, 0
2, 369696, Note_on_c, 0, 61, 0
2, 369701, Note_on_c, 0, 64, 0
2, 369714, Note_on_c, 0, 58, 0
2, 369729, Note_on_c, 0, 55, 0
2, 369747, Note_on_c, 0, 76, 93
2, 369810, Note_on_c, 0, 77, 94
2, 369821, Note_on_c, 0, 76, 0
2, 369874, Note_on_c, 0, 78, 97
2, 369889, Note_on_c, 0, 77, 0
2, 369894, Note_on_c, 0, 61, 55
2, 369895, Note_on_c, 0, 58, 43
2, 369901, Note_on_c, 0, 64, 35
2, 369908, Note_on_c, 0, 55, 26
2, 369932, Note_on_c, 0, 81, 90
2, 369938, Note_on_c, 0, 78, 0
2, 369969, Note_on_c, 0, 64, 0
2, 369970, Note_on_c, 0, 61, 0
2, 369985, Note_on_c, 0, 79, 90
2, 369995, Note_on_c, 0, 58, 0
2, 370013, Note_on_c, 0, 55, 0
2, 370027, Note_on_c, 0, 81, 0
2, 370045, Note_on_c, 0, 77, 93
2, 370085, Note_on_c, 0, 79, 0
2, 370104, Note_on_c, 0, 76, 107
2, 370155, Note_on_c, 0, 77, 0
2, 370166, Note_on_c, 0, 41, 99
2, 370194, Note_on_c, 0, 76, 0
2, 370232, Control_c, 0, 64, 63
2, 370238, Control_c, 0, 64, 0
2, 370240, Note_on_c, 0, 76, 102
2, 370329, Control_c, 0, 64, 63
2, 370332, Control_c, 0, 64, 127
2, 370400, Note_on_c, 0, 41, 0
2, 370577, Note_on_c, 0, 57, 59
2, 370579, Note_on_c, 0, 62, 63
2, 370584, Note_on_c, 0, 53, 54
2, 370659, Note_on_c, 0, 57, 0
2, 370667, Note_on_c, 0, 62, 0
2, 370675, Note_on_c, 0, 53, 0
2, 370741, Note_on_c, 0, 62, 44
2, 370743, Note_on_c, 0, 57, 41
2, 370747, Note_on_c, 0, 53, 40
2, 370761, Note_on_c, 0, 74, 84
2, 370792, Note_on_c, 0, 76, 0
2, 370818, Note_on_c, 0, 74, 0
2, 370827, Note_on_c, 0, 62, 0
2, 370831, Note_on_c, 0, 57, 0
2, 370836, Note_on_c, 0, 53, 0
2, 370903, Note_on_c, 0, 53, 43
2, 370909, Note_on_c, 0, 57, 45
2, 370920, Note_on_c, 0, 62, 39
2, 370985, Note_on_c, 0, 69, 80
2, 371001, Note_on_c, 0, 53, 0
2, 371001, Note_on_c, 0, 57, 0
2, 371008, Note_on_c, 0, 62, 0
2, 371012, Control_c, 0, 67, 127
2, 371107, Note_on_c, 0, 70, 88
2, 371126, Note_on_c, 0, 69, 0
2, 371189, Note_on_c, 0, 69, 84
2, 371224, Note_on_c, 0, 70, 0
2, 371226, Note_on_c, 0, 57, 44
2, 371226, Note_on_c, 0, 62, 38
2, 371233, Note_on_c, 0, 53, 43
2, 371258, Note_on_c, 0, 68, 98
2, 371282, Note_on_c, 0, 69, 0
2, 371310, Note_on_c, 0, 57, 0
2, 371312, Note_on_c, 0, 62, 0
2, 371323, Note_on_c, 0, 69, 83
2, 371325, Note_on_c, 0, 53, 0
2, 371328, Note_on_c, 0, 68, 0
2, 371384, Note_on_c, 0, 71, 101
2, 371395, Note_on_c, 0, 69, 0
2, 371418, Note_on_c, 0, 62, 63
2, 371419, Note_on_c, 0, 57, 57
2, 371428, Note_on_c, 0, 53, 48
2, 371439, Note_on_c, 0, 73, 104
2, 371450, Note_on_c, 0, 71, 0
2, 371489, Note_on_c, 0, 74, 98
2, 371492, Note_on_c, 0, 73, 0
2, 371543, Note_on_c, 0, 76, 108
2, 371554, Note_on_c, 0, 74, 0
2, 371606, Note_on_c, 0, 50, 67
2, 371615, Note_on_c, 0, 77, 100
2, 371645, Control_c, 0, 64, 63
2, 371650, Note_on_c, 0, 76, 0
2, 371656, Control_c, 0, 64, 0
2, 371669, Note_on_c, 0, 53, 0
2, 371686, Note_on_c, 0, 62, 0
2, 371687, Note_on_c, 0, 57, 0
2, 371751, Control_c, 0, 64, 63
2, 371756, Control_c, 0, 64, 127
2, 371853, Note_on_c, 0, 58, 63
2, 371860, Note_on_c, 0, 62, 35
2, 371864, Note_on_c, 0, 53, 26
2, 371877, Note_on_c, 0, 77, 0
2, 371911, Note_on_c, 0, 50, 0
2, 371916, Note_on_c, 0, 62, 0
2, 371923, Note_on_c, 0, 58, 0
2, 371940, Note_on_c, 0, 53, 0
2, 372028, Note_on_c, 0, 58, 37
2, 372034, Note_on_c, 0, 62, 35
2, 372034, Note_on_c, 0, 53, 35
2, 372042, Note_on_c, 0, 70, 81
2, 372109, Note_on_c, 0, 58, 0
2, 372110, Note_on_c, 0, 62, 0
2, 372118, Note_on_c, 0, 53, 0
2, 372145, Note_on_c, 0, 70, 0
2, 372192, Note_on_c, 0, 62, 55
2, 372195, Note_on_c, 0, 58, 53
2, 372203, Note_on_c, 0, 53, 49
2, 372289, Note_on_c, 0, 62, 0
2, 372289, Note_on_c, 0, 58, 0
2, 372305, Note_on_c, 0, 53, 0
2, 372350, Note_on_c, 0, 69, 90
2, 372354, Note_on_c, 0, 62, 60
2, 372358, Note_on_c, 0, 58, 57
2, 372362, Note_on_c, 0, 53, 38
2, 372410, Note_on_c, 0, 62, 0
2, 372418, Note_on_c, 0, 58, 0
2, 372429, Note_on_c, 0, 53, 0
2, 372435, Note_on_c, 0, 69, 0
2, 372500, Note_on_c, 0, 62, 76
2, 372502, Note_on_c, 0, 58, 76
2, 372507, Note_on_c, 0, 53, 63
2, 372551, Note_on_c, 0, 62, 0
2, 372559, Note_on_c, 0, 58, 0
2, 372575, Note_on_c, 0, 53, 0
2, 372661, Note_on_c, 0, 50, 79
2, 372732, Note_on_c, 0, 66, 94
2, 372854, Control_c, 0, 64, 63
2, 372858, Control_c, 0, 64, 127
2, 372871, Note_on_c, 0, 68, 88
2, 372890, Note_on_c, 0, 66, 0
2, 372962, Note_on_c, 0, 50, 0
2, 372975, Note_on_c, 0, 68, 0
2, 372978, Note_on_c, 0, 62, 62
2, 372979, Note_on_c, 0, 69, 71
2, 372983, Note_on_c, 0, 59, 47
2, 372994, Note_on_c, 0, 53, 37
2, 373038, Note_on_c, 0, 62, 0
2, 373046, Note_on_c, 0, 59, 0
2, 373050, Note_on_c, 0, 69, 0
2, 373053, Note_on_c, 0, 68, 86
2, 373057, Note_on_c, 0, 53, 0
2, 373095, Note_on_c, 0, 68, 0
2, 373101, Note_on_c, 0, 69, 65
2, 373137, Note_on_c, 0, 69, 0
2, 373144, Note_on_c, 0, 68, 89
2, 373171, Note_on_c, 0, 69, 65
2, 373175, Note_on_c, 0, 68, 0
2, 373210, Note_on_c, 0, 68, 77
2, 373212, Note_on_c, 0, 69, 0
2, 373214, Note_on_c, 0, 62, 41
2, 373215, Note_on_c, 0, 59, 43
2, 373232, Note_on_c, 0, 53, 25
2, 373239, Note_on_c, 0, 69, 78
2, 373243, Note_on_c, 0, 68, 0
2, 373250, Note_on_c, 0, 62, 0
2, 373260, Note_on_c, 0, 59, 0
2, 373267, Note_on_c, 0, 53, 0
2, 373273, Note_on_c, 0, 68, 86
2, 373289, Note_on_c, 0, 69, 0
2, 373311, Note_on_c, 0, 68, 0
2, 373335, Note_on_c, 0, 68, 80
2, 373359, Note_on_c, 0, 69, 76
2, 373367, Note_on_c, 0, 68, 0
2, 373410, Note_on_c, 0, 68, 84
2, 373414, Note_on_c, 0, 69, 0
2, 373427, Note_on_c, 0, 59, 45
2, 373429, Note_on_c, 0, 62, 38
2, 373436, Note_on_c, 0, 53, 36
2, 373457, Note_on_c, 0, 68, 0
2, 373459, Note_on_c, 0, 66, 85
2, 373487, Note_on_c, 0, 62, 0
2, 373497, Note_on_c, 0, 59, 0
2, 373505, Note_on_c, 0, 68, 65
2, 373511, Note_on_c, 0, 66, 0
2, 373517, Note_on_c, 0, 53, 0
2, 373570, Note_on_c, 0, 69, 74
2, 373590, Note_on_c, 0, 68, 0
2, 373634, Note_on_c, 0, 71, 78
2, 373648, Note_on_c, 0, 69, 0
2, 373692, Note_on_c, 0, 48, 49
2, 373696, Control_c, 0, 64, 63
2, 373704, Note_on_c, 0, 71, 0
2, 373710, Control_c, 0, 64, 0
2, 373718, Note_on_c, 0, 69, 70
2, 373795, Control_c, 0, 64, 63
2, 373804, Control_c, 0, 64, 127
2, 373856, Note_on_c, 0, 48, 0
2, 373890, Note_on_c, 0, 69, 0
2, 373930, Note_on_c, 0, 57, 40
2, 373931, Note_on_c, 0, 52, 48
2, 373937, Note_on_c, 0, 60, 26
2, 373991, Note_on_c, 0, 60, 0
2, 374000, Note_on_c, 0, 57, 0
2, 374003, Note_on_c, 0, 52, 0
2, 374169, Note_on_c, 0, 50, 43
2, 374174, Control_c, 0, 64, 63
2, 374215, Note_on_c, 0, 70, 73
2, 374224, Control_c, 0, 64, 127
2, 374279, Note_on_c, 0, 50, 0
2, 374299, Note_on_c, 0, 70, 0
2, 374338, Note_on_c, 0, 72, 74
2, 374389, Note_on_c, 0, 70, 87
2, 374399, Note_on_c, 0, 72, 0
2, 374438, Note_on_c, 0, 70, 0
2, 374438, Note_on_c, 0, 69, 80
2, 374440, Note_on_c, 0, 58, 61
2, 374445, Note_on_c, 0, 53, 39
2, 374449, Note_on_c, 0, 65, 35
2, 374470, Note_on_c, 0, 70, 97
2, 374484, Note_on_c, 0, 69, 0
2, 374493, Note_on_c, 0, 65, 0
2, 374495, Note_on_c, 0, 58, 0
2, 374498, Note_on_c, 0, 70, 0
2, 374509, Note_on_c, 0, 53, 0
2, 374523, Note_on_c, 0, 74, 85
2, 374565, Note_on_c, 0, 77, 77
2, 374570, Note_on_c, 0, 74, 0
2, 374604, Note_on_c, 0, 82, 108
2, 374612, Note_on_c, 0, 77, 0
2, 374614, Note_on_c, 0, 58, 48
2, 374623, Note_on_c, 0, 65, 34
2, 374639, Note_on_c, 0, 53, 20
2, 374646, Note_on_c, 0, 86, 86
2, 374649, Note_on_c, 0, 82, 0
2, 374673, Note_on_c, 0, 58, 0
2, 374681, Note_on_c, 0, 65, 0
2, 374682, Note_on_c, 0, 86, 0
2, 374690, Note_on_c, 0, 53, 0
2, 374798, Note_on_c, 0, 65, 68
2, 374799, Note_on_c, 0, 58, 69
2, 374806, Note_on_c, 0, 53, 62
2, 374892, Note_on_c, 0, 53, 0
2, 374899, Note_on_c, 0, 65, 0
2, 374928, Note_on_c, 0, 53, 69
2, 374946, Note_on_c, 0, 65, 31
2, 374975, Control_c, 0, 64, 63
2, 374981, Control_c, 0, 64, 0
2, 374992, Note_on_c, 0, 69, 109
2, 375026, Control_c, 0, 64, 63
2, 375035, Control_c, 0, 64, 127
2, 375118, Note_on_c, 0, 53, 0
2, 375123, Note_on_c, 0, 65, 0
2, 375124, Note_on_c, 0, 58, 0
2, 375158, Note_on_c, 0, 69, 0
2, 375185, Note_on_c, 0, 58, 82
2, 375187, Note_on_c, 0, 65, 86
2, 375196, Note_on_c, 0, 53, 66
2, 375229, Note_on_c, 0, 65, 0
2, 375237, Note_on_c, 0, 58, 0
2, 375255, Note_on_c, 0, 53, 0
2, 375262, Note_on_c, 0, 68, 114
2, 375297, Note_on_c, 0, 68, 0
2, 375395, Note_on_c, 0, 50, 107
2, 375463, Control_c, 0, 64, 63
2, 375468, Control_c, 0, 64, 0
2, 375469, Note_on_c, 0, 89, 113
2, 375510, Control_c, 0, 64, 63
2, 375516, Control_c, 0, 64, 127
2, 375551, Note_on_c, 0, 50, 0
2, 375614, Note_on_c, 0, 89, 0
2, 375683, Note_on_c, 0, 59, 50
2, 375686, Note_on_c, 0, 53, 15
2, 375691, Note_on_c, 0, 65, 65
2, 375711, Note_on_c, 0, 88, 101
2, 375782, Note_on_c, 0, 88, 0
2, 375785, Note_on_c, 0, 59, 0
2, 375791, Note_on_c, 0, 65, 0
2, 375799, Note_on_c, 0, 53, 0
2, 375812, Note_on_c, 0, 86, 91
2, 375836, Note_on_c, 0, 88, 97
2, 375846, Note_on_c, 0, 86, 0
2, 375854, Note_on_c, 0, 88, 0
2, 375874, Note_on_c, 0, 86, 76
2, 375901, Note_on_c, 0, 65, 61
2, 375901, Note_on_c, 0, 84, 100
2, 375906, Note_on_c, 0, 53, 50
2, 375907, Note_on_c, 0, 86, 0
2, 375907, Note_on_c, 0, 59, 65
2, 375949, Note_on_c, 0, 84, 0
2, 375973, Note_on_c, 0, 65, 0
2, 375975, Note_on_c, 0, 83, 88
2, 375976, Note_on_c, 0, 59, 0
2, 375978, Note_on_c, 0, 53, 0
2, 376007, Note_on_c, 0, 84, 101
2, 376018, Note_on_c, 0, 83, 0
2, 376024, Note_on_c, 0, 84, 0
2, 376036, Note_on_c, 0, 83, 77
2, 376056, Note_on_c, 0, 65, 71
2, 376064, Note_on_c, 0, 59, 65
2, 376066, Note_on_c, 0, 81, 100
2, 376071, Control_c, 0, 67, 127
2, 376073, Note_on_c, 0, 53, 40
2, 376074, Note_on_c, 0, 83, 0
2, 376095, Note_on_c, 0, 59, 0
2, 376097, Note_on_c, 0, 65, 0
2, 376124, Note_on_c, 0, 53, 0
2, 376144, Note_on_c, 0, 81, 0
2, 376177, Note_on_c, 0, 80, 101
2, 376220, Note_on_c, 0, 80, 0
2, 376246, Note_on_c, 0, 48, 80
2, 376306, Note_on_c, 0, 81, 91
2, 376312, Control_c, 0, 64, 63
2, 376321, Control_c, 0, 64, 0
2, 376351, Control_c, 0, 64, 63
2, 376365, Control_c, 0, 64, 127
2, 376423, Note_on_c, 0, 48, 0
2, 376509, Note_on_c, 0, 57, 20
2, 376526, Note_on_c, 0, 64, 39
2, 376535, Note_on_c, 0, 81, 0
2, 376597, Note_on_c, 0, 57, 0
2, 376600, Note_on_c, 0, 64, 0
2, 376847, Note_on_c, 0, 47, 54
2, 376900, Note_on_c, 0, 79, 51
2, 376904, Note_on_c, 0, 72, 43
2, 376924, Control_c, 0, 64, 127
2, 377021, Note_on_c, 0, 47, 0
2, 377088, Note_on_c, 0, 74, 51
2, 377127, Note_on_c, 0, 72, 0
2, 377195, Note_on_c, 0, 55, 44
2, 377204, Note_on_c, 0, 76, 61
2, 377214, Note_on_c, 0, 74, 0
2, 377259, Note_on_c, 0, 79, 0
2, 377290, Note_on_c, 0, 76, 0
2, 377305, Note_on_c, 0, 74, 55
2, 377307, Note_on_c, 0, 55, 0
2, 377347, Note_on_c, 0, 62, 37
2, 377353, Note_on_c, 0, 76, 57
2, 377354, Note_on_c, 0, 74, 0
2, 377383, Note_on_c, 0, 65, 51
2, 377390, Note_on_c, 0, 76, 0
2, 377400, Note_on_c, 0, 74, 51
2, 377434, Note_on_c, 0, 76, 57
2, 377436, Note_on_c, 0, 74, 0
2, 377441, Note_on_c, 0, 71, 76
2, 377460, Note_on_c, 0, 76, 0
2, 377475, Note_on_c, 0, 74, 65
2, 377480, Note_on_c, 0, 65, 0
2, 377485, Note_on_c, 0, 62, 0
2, 377491, Note_on_c, 0, 71, 0
2, 377496, Note_on_c, 0, 76, 66
2, 377503, Note_on_c, 0, 74, 0
2, 377529, Note_on_c, 0, 76, 0
2, 377537, Note_on_c, 0, 74, 59
2, 377560, Note_on_c, 0, 76, 68
2, 377566, Note_on_c, 0, 74, 0
2, 377592, Note_on_c, 0, 76, 0
2, 377603, Note_on_c, 0, 74, 66
2, 377626, Note_on_c, 0, 55, 48
2, 377628, Note_on_c, 0, 69, 79
2, 377633, Note_on_c, 0, 76, 55
2, 377641, Note_on_c, 0, 74, 0
2, 377672, Note_on_c, 0, 69, 0
2, 377672, Note_on_c, 0, 76, 0
2, 377674, Note_on_c, 0, 74, 55
2, 377697, Note_on_c, 0, 55, 0
2, 377697, Note_on_c, 0, 76, 38
2, 377730, Note_on_c, 0, 76, 0
2, 377768, Note_on_c, 0, 74, 0
2, 377784, Note_on_c, 0, 72, 48
2, 377831, Note_on_c, 0, 72, 0
2, 377831, Note_on_c, 0, 74, 62
2, 377894, Note_on_c, 0, 48, 63
2, 377911, Note_on_c, 0, 74, 0
2, 377924, Control_c, 0, 64, 63
2, 377928, Note_on_c, 0, 76, 70
2, 377936, Control_c, 0, 64, 0
2, 377952, Note_on_c, 0, 67, 24
2, 378000, Control_c, 0, 64, 63
2, 378008, Control_c, 0, 64, 127
2, 378018, Note_on_c, 0, 48, 0
2, 378087, Note_on_c, 0, 55, 33
2, 378124, Note_on_c, 0, 67, 0
2, 378152, Note_on_c, 0, 64, 56
2, 378195, Note_on_c, 0, 64, 0
2, 378196, Note_on_c, 0, 55, 0
2, 378257, Note_on_c, 0, 76, 0
2, 378260, Note_on_c, 0, 74, 67
2, 378330, Note_on_c, 0, 74, 0
2, 378426, Note_on_c, 0, 41, 52
2, 378436, Control_c, 0, 64, 63
2, 378439, Control_c, 0, 64, 0
2, 378480, Note_on_c, 0, 77, 73
2, 378485, Note_on_c, 0, 71, 54
2, 378509, Control_c, 0, 64, 63
2, 378514, Control_c, 0, 64, 127
2, 378553, Note_on_c, 0, 41, 0
2, 378643, Note_on_c, 0, 71, 0
2, 378644, Note_on_c, 0, 72, 57
2, 378664, Note_on_c, 0, 77, 0
2, 378725, Note_on_c, 0, 72, 0
2, 378739, Note_on_c, 0, 74, 48
2, 378744, Note_on_c, 0, 53, 54
2, 378771, Note_on_c, 0, 74, 0
2, 378781, Note_on_c, 0, 72, 69
2, 378813, Note_on_c, 0, 53, 0
2, 378815, Note_on_c, 0, 72, 0
2, 378817, Note_on_c, 0, 74, 69
2, 378832, Note_on_c, 0, 60, 72
2, 378842, Note_on_c, 0, 74, 0
2, 378858, Note_on_c, 0, 72, 69
2, 378868, Note_on_c, 0, 64, 63
2, 378879, Note_on_c, 0, 74, 77
2, 378886, Note_on_c, 0, 72, 0
2, 378913, Note_on_c, 0, 74, 0
2, 378915, Note_on_c, 0, 69, 76
2, 378924, Note_on_c, 0, 72, 74
2, 378940, Note_on_c, 0, 60, 0
2, 378946, Note_on_c, 0, 64, 0
2, 378946, Note_on_c, 0, 74, 86
2, 378961, Note_on_c, 0, 72, 0
2, 378965, Note_on_c, 0, 69, 0
2, 378982, Note_on_c, 0, 74, 0
2, 378996, Note_on_c, 0, 72, 70
2, 379015, Note_on_c, 0, 74, 79
2, 379027, Note_on_c, 0, 72, 0
2, 379051, Note_on_c, 0, 74, 0
2, 379067, Note_on_c, 0, 53, 59
2, 379077, Note_on_c, 0, 67, 76
2, 379094, Note_on_c, 0, 74, 63
2, 379118, Note_on_c, 0, 67, 0
2, 379126, Note_on_c, 0, 53, 0
2, 379132, Note_on_c, 0, 72, 71
2, 379133, Note_on_c, 0, 74, 0
2, 379184, Note_on_c, 0, 72, 0
2, 379195, Note_on_c, 0, 71, 69
2, 379244, Note_on_c, 0, 72, 65
2, 379245, Note_on_c, 0, 71, 0
2, 379316, Note_on_c, 0, 47, 45
2, 379323, Control_c, 0, 64, 63
2, 379329, Control_c, 0, 64, 0
2, 379330, Note_on_c, 0, 72, 0
2, 379352, Note_on_c, 0, 65, 58
2, 379353, Note_on_c, 0, 74, 71
2, 379401, Control_c, 0, 64, 63
2, 379408, Control_c, 0, 64, 127
2, 379445, Note_on_c, 0, 47, 0
2, 379524, Note_on_c, 0, 65, 0
2, 379602, Note_on_c, 0, 74, 0
2, 379604, Note_on_c, 0, 59, 37
2, 379607, Note_on_c, 0, 62, 42
2, 379653, Note_on_c, 0, 62, 0
2, 379661, Note_on_c, 0, 59, 0
2, 379723, Note_on_c, 0, 72, 68
2, 379784, Note_on_c, 0, 72, 0
2, 379905, Note_on_c, 0, 40, 59
2, 379915, Control_c, 0, 64, 63
2, 379919, Control_c, 0, 64, 0
2, 379960, Control_c, 0, 64, 63
2, 379963, Note_on_c, 0, 76, 82
2, 379973, Control_c, 0, 64, 127
2, 379973, Note_on_c, 0, 69, 47
2, 380005, Note_on_c, 0, 40, 0
2, 380124, Note_on_c, 0, 69, 0
2, 380127, Note_on_c, 0, 71, 54
2, 380150, Note_on_c, 0, 76, 0
2, 380201, Note_on_c, 0, 71, 0
2, 380221, Note_on_c, 0, 52, 61
2, 380259, Note_on_c, 0, 72, 55
2, 380274, Note_on_c, 0, 52, 0
2, 380312, Note_on_c, 0, 72, 0
2, 380331, Note_on_c, 0, 71, 59
2, 380373, Note_on_c, 0, 71, 0
2, 380385, Note_on_c, 0, 72, 63
2, 380419, Note_on_c, 0, 72, 0
2, 380420, Note_on_c, 0, 59, 49
2, 380432, Note_on_c, 0, 62, 54
2, 380441, Note_on_c, 0, 71, 55
2, 380472, Note_on_c, 0, 71, 0
2, 380482, Note_on_c, 0, 68, 74
2, 380485, Note_on_c, 0, 72, 60
2, 380505, Note_on_c, 0, 59, 0
2, 380511, Note_on_c, 0, 72, 0
2, 380512, Note_on_c, 0, 62, 0
2, 380526, Note_on_c, 0, 71, 63
2, 380529, Note_on_c, 0, 68, 0
2, 380554, Note_on_c, 0, 71, 0
2, 380560, Note_on_c, 0, 72, 65
2, 380583, Note_on_c, 0, 72, 0
2, 380592, Note_on_c, 0, 71, 65
2, 380620, Note_on_c, 0, 72, 78
2, 380630, Note_on_c, 0, 71, 0
2, 380657, Note_on_c, 0, 72, 0
2, 380663, Note_on_c, 0, 71, 68
2, 380690, Note_on_c, 0, 71, 0
2, 380697, Note_on_c, 0, 72, 34
2, 380708, Note_on_c, 0, 52, 79
2, 380723, Note_on_c, 0, 71, 72
2, 380724, Note_on_c, 0, 72, 0
2, 380757, Note_on_c, 0, 72, 72
2, 380760, Note_on_c, 0, 71, 0
2, 380764, Note_on_c, 0, 52, 0
2, 380792, Note_on_c, 0, 72, 0
2, 380793, Note_on_c, 0, 71, 72
2, 380836, Note_on_c, 0, 71, 0
2, 380844, Note_on_c, 0, 69, 82
2, 380901, Note_on_c, 0, 71, 78
2, 380913, Note_on_c, 0, 69, 0
2, 380963, Note_on_c, 0, 71, 0
2, 380967, Note_on_c, 0, 45, 63
2, 380976, Control_c, 0, 64, 63
2, 380981, Control_c, 0, 64, 0
2, 380994, Note_on_c, 0, 72, 90
2, 380995, Note_on_c, 0, 69, 67
2, 381067, Control_c, 0, 64, 63
2, 381073, Control_c, 0, 64, 127
2, 381115, Note_on_c, 0, 45, 0
2, 381213, Note_on_c, 0, 69, 0
2, 381237, Note_on_c, 0, 72, 0
2, 381241, Note_on_c, 0, 57, 63
2, 381242, Note_on_c, 0, 60, 75
2, 381298, Note_on_c, 0, 60, 0
2, 381302, Note_on_c, 0, 57, 0
2, 381384, Note_on_c, 0, 76, 90
2, 381387, Note_on_c, 0, 64, 69
2, 381560, Note_on_c, 0, 76, 0
2, 381566, Note_on_c, 0, 64, 0
2, 381611, Note_on_c, 0, 41, 78
2, 381653, Note_on_c, 0, 76, 100
2, 381663, Note_on_c, 0, 64, 60
2, 381672, Note_on_c, 0, 69, 60
2, 381681, Control_c, 0, 64, 63
2, 381684, Control_c, 0, 64, 0
2, 381746, Control_c, 0, 64, 63
2, 381751, Control_c, 0, 64, 127
2, 381797, Note_on_c, 0, 41, 0
2, 381953, Note_on_c, 0, 53, 50
2, 382031, Note_on_c, 0, 53, 0
2, 382155, Note_on_c, 0, 76, 0
2, 382166, Note_on_c, 0, 57, 58
2, 382189, Note_on_c, 0, 64, 0
2, 382242, Note_on_c, 0, 57, 0
2, 382440, Note_on_c, 0, 74, 78
2, 382446, Note_on_c, 0, 53, 48
2, 382449, Note_on_c, 0, 62, 39
2, 382480, Note_on_c, 0, 53, 0
2, 382500, Note_on_c, 0, 69, 0
2, 382520, Note_on_c, 0, 62, 0
2, 382524, Note_on_c, 0, 74, 0
2, 382727, Control_c, 0, 67, 127
2, 382768, Note_on_c, 0, 72, 62
2, 382778, Note_on_c, 0, 41, 32
2, 382781, Note_on_c, 0, 60, 33
2, 382789, Control_c, 0, 64, 63
2, 382799, Control_c, 0, 64, 0
2, 382810, Control_c, 0, 64, 63
2, 382834, Control_c, 0, 64, 127
2, 382916, Note_on_c, 0, 41, 0
2, 382930, Note_on_c, 0, 60, 0
2, 382957, Note_on_c, 0, 72, 0
2, 383162, Note_on_c, 0, 57, 34
2, 383168, Note_on_c, 0, 74, 61
2, 383169, Note_on_c, 0, 62, 40
2, 383212, Note_on_c, 0, 57, 0
2, 383215, Note_on_c, 0, 62, 0
2, 383229, Note_on_c, 0, 74, 0
2, 383704, Control_c, 0, 64, 63
2, 383710, Control_c, 0, 64, 0
2, 383725, Note_on_c, 0, 76, 65
2, 383726, Note_on_c, 0, 40, 69
2, 383730, Note_on_c, 0, 68, 52
2, 383732, Note_on_c, 0, 52, 50
2, 383733, Note_on_c, 0, 71, 64
2, 383737, Note_on_c, 0, 64, 34
2, 383758, Note_on_c, 0, 52, 0
2, 383761, Note_on_c, 0, 40, 0
2, 383762, Note_on_c, 0, 64, 0
2, 383763, Note_on_c, 0, 68, 0
2, 383764, Note_on_c, 0, 71, 0
2, 383766, Note_on_c, 0, 76, 0
2, 383796, Control_c, 0, 67, 0
2, 383976, Note_on_c, 0, 56, 72
2, 383977, Note_on_c, 0, 59, 69
2, 383977, Note_on_c, 0, 64, 55
2, 384004, Note_on_c, 0, 56, 0
2, 384006, Note_on_c, 0, 59, 0
2, 384013, Note_on_c, 0, 64, 0
2, 384067, Note_on_c, 0, 56, 53
2, 384068, Note_on_c, 0, 64, 60
2, 384073, Note_on_c, 0, 59, 49
2, 384109, Note_on_c, 0, 59, 0
2, 384114, Note_on_c, 0, 64, 0
2, 384133, Note_on_c, 0, 56, 0
2, 384145, Note_on_c, 0, 57, 56
2, 384148, Note_on_c, 0, 65, 89
2, 384150, Note_on_c, 0, 60, 79
2, 384183, Note_on_c, 0, 65, 0
2, 384196, Note_on_c, 0, 60, 0
2, 384210, Note_on_c, 0, 57, 0
2, 384217, Note_on_c, 0, 58, 65
2, 384219, Note_on_c, 0, 66, 95
2, 384229, Note_on_c, 0, 61, 62
2, 384265, Note_on_c, 0, 66, 0
2, 384270, Note_on_c, 0, 61, 0
2, 384282, Note_on_c, 0, 58, 0
2, 384285, Note_on_c, 0, 59, 69
2, 384287, Note_on_c, 0, 67, 79
2, 384293, Note_on_c, 0, 62, 82
2, 384320, Note_on_c, 0, 67, 0
2, 384348, Note_on_c, 0, 62, 0
2, 384349, Note_on_c, 0, 59, 0
2, 384350, Note_on_c, 0, 68, 91
2, 384352, Note_on_c, 0, 63, 84
2, 384353, Note_on_c, 0, 60, 58
2, 384401, Note_on_c, 0, 68, 0
2, 384402, Note_on_c, 0, 63, 0
2, 384420, Note_on_c, 0, 61, 80
2, 384421, Note_on_c, 0, 69, 77
2, 384424, Note_on_c, 0, 60, 0
2, 384425, Note_on_c, 0, 64, 72
2, 384456, Note_on_c, 0, 64, 0
2, 384457, Note_on_c, 0, 69, 0
2, 384482, Note_on_c, 0, 62, 80
2, 384486, Note_on_c, 0, 61, 0
2, 384486, Note_on_c, 0, 70, 85
2, 384487, Note_on_c, 0, 65, 76
2, 384524, Note_on_c, 0, 70, 0
2, 384526, Note_on_c, 0, 65, 0
2, 384554, Note_on_c, 0, 63, 87
2, 384555, Note_on_c, 0, 62, 0
2, 384557, Note_on_c, 0, 66, 94
2, 384558, Note_on_c, 0, 71, 88
2, 384585, Note_on_c, 0, 66, 0
2, 384591, Note_on_c, 0, 71, 0
2, 384609, Note_on_c, 0, 63, 0
2, 384613, Note_on_c, 0, 71, 100
2, 384620, Note_on_c, 0, 59, 93
2, 384621, Note_on_c, 0, 69, 82
2, 384636, Note_on_c, 0, 69, 0
2, 384645, Note_on_c, 0, 71, 0
2, 384647, Note_on_c, 0, 59, 0
2, 384690, Note_on_c, 0, 52, 98
2, 384693, Note_on_c, 0, 64, 93
2, 384701, Note_on_c, 0, 68, 112
2, 384701, Note_on_c, 0, 76, 104
2, 384704, Control_c, 0, 64, 63
2, 384705, Control_c, 0, 64, 127
2, 384713, Note_on_c, 0, 52, 0
2, 384718, Note_on_c, 0, 68, 0
2, 384719, Note_on_c, 0, 64, 0
2, 384724, Note_on_c, 0, 76, 0
2, 384790, Control_c, 0, 64, 63
2, 384796, Control_c, 0, 64, 0
2, 384838, Note_on_c, 0, 71, 100
2, 384839, Note_on_c, 0, 68, 74
2, 384843, Note_on_c, 0, 76, 85
2, 384844, Control_c, 0, 64, 63
2, 384854, Control_c, 0, 64, 127
2, 384861, Note_on_c, 0, 68, 0
2, 384862, Note_on_c, 0, 76, 0
2, 384863, Note_on_c, 0, 71, 0
2, 384895, Note_on_c, 0, 76, 87
2, 384900, Note_on_c, 0, 71, 80
2, 384904, Control_c, 0, 64, 63
2, 384904, Note_on_c, 0, 68, 59
2, 384912, Control_c, 0, 64, 0
2, 384931, Control_c, 0, 64, 63
2, 384942, Control_c, 0, 64, 127
2, 384949, Note_on_c, 0, 76, 0
2, 384955, Note_on_c, 0, 71, 0
2, 384974, Note_on_c, 0, 68, 0
2, 384974, Note_on_c, 0, 69, 60
2, 384975, Note_on_c, 0, 77, 96
2, 384977, Note_on_c, 0, 72, 78
2, 385009, Note_on_c, 0, 77, 0
2, 385035, Note_on_c, 0, 78, 98
2, 385036, Note_on_c, 0, 69, 0
2, 385038, Note_on_c, 0, 70, 65
2, 385038, Note_on_c, 0, 73, 92
2, 385041, Note_on_c, 0, 72, 0
2, 385062, Control_c, 0, 64, 63
2, 385093, Note_on_c, 0, 73, 0
2, 385098, Note_on_c, 0, 78, 0
2, 385098, Control_c, 0, 64, 127
2, 385100, Note_on_c, 0, 79, 91
2, 385103, Note_on_c, 0, 71, 75
2, 385104, Note_on_c, 0, 74, 87
2, 385107, Note_on_c, 0, 70, 0
2, 385137, Note_on_c, 0, 79, 0
2, 385162, Note_on_c, 0, 80, 105
2, 385163, Note_on_c, 0, 75, 98
2, 385169, Note_on_c, 0, 72, 97
2, 385174, Note_on_c, 0, 74, 0
2, 385177, Note_on_c, 0, 71, 0
2, 385215, Note_on_c, 0, 75, 0
2, 385226, Note_on_c, 0, 73, 107
2, 385228, Note_on_c, 0, 81, 99
2, 385231, Note_on_c, 0, 80, 0
2, 385232, Note_on_c, 0, 76, 90
2, 385248, Note_on_c, 0, 72, 0
2, 385263, Note_on_c, 0, 76, 0
2, 385264, Note_on_c, 0, 81, 0
2, 385284, Note_on_c, 0, 74, 94
2, 385294, Note_on_c, 0, 82, 92
2, 385296, Note_on_c, 0, 77, 78
2, 385300, Note_on_c, 0, 73, 0
2, 385323, Note_on_c, 0, 82, 0
2, 385328, Note_on_c, 0, 77, 0
2, 385360, Note_on_c, 0, 83, 100
2, 385361, Note_on_c, 0, 75, 110
2, 385363, Note_on_c, 0, 78, 101
2, 385370, Note_on_c, 0, 74, 0
2, 385393, Note_on_c, 0, 78, 0
2, 385394, Note_on_c, 0, 83, 0
2, 385408, Note_on_c, 0, 75, 0
2, 385418, Note_on_c, 0, 83, 103
2, 385421, Note_on_c, 0, 71, 106
2, 385424, Note_on_c, 0, 81, 100
2, 385439, Control_c, 0, 64, 63
2, 385446, Control_c, 0, 64, 0
2, 385455, Note_on_c, 0, 81, 0
2, 385458, Note_on_c, 0, 83, 0
2, 385498, Note_on_c, 0, 76, 114
2, 385504, Note_on_c, 0, 80, 115
2, 385505, Note_on_c, 0, 88, 100
2, 385508, Control_c, 0, 64, 63
2, 385510, Control_c, 0, 64, 127
2, 385514, Note_on_c, 0, 80, 0
2, 385516, Note_on_c, 0, 88, 0
2, 385522, Note_on_c, 0, 71, 0
2, 385534, Note_on_c, 0, 76, 0
2, 385687, Note_on_c, 0, 58, 106
2, 385764, Note_on_c, 0, 58, 0
2, 385774, Note_on_c, 0, 59, 85
2, 385844, Note_on_c, 0, 59, 0
2, 385856, Note_on_c, 0, 40, 118
2, 385861, Note_on_c, 0, 69, 104
2, 385864, Note_on_c, 0, 59, 27
2, 385866, Control_c, 0, 64, 63
2, 385869, Control_c, 0, 64, 0
2, 385896, Control_c, 0, 64, 63
2, 385926, Control_c, 0, 64, 127
2, 385940, Note_on_c, 0, 59, 0
2, 385943, Note_on_c, 0, 64, 84
2, 385971, Note_on_c, 0, 69, 0
2, 385973, Control_c, 0, 64, 63
2, 385983, Control_c, 0, 64, 127
2, 386008, Note_on_c, 0, 68, 108
2, 386019, Note_on_c, 0, 64, 0
2, 386041, Note_on_c, 0, 68, 0
2, 386068, Note_on_c, 0, 71, 91
2, 386095, Note_on_c, 0, 71, 0
2, 386129, Note_on_c, 0, 81, 109
2, 386133, Note_on_c, 0, 52, 116
2, 386157, Control_c, 0, 64, 63
2, 386160, Control_c, 0, 64, 0
2, 386164, Control_c, 0, 64, 0
2, 386197, Note_on_c, 0, 76, 91
2, 386208, Control_c, 0, 64, 63
2, 386211, Control_c, 0, 64, 127
2, 386231, Note_on_c, 0, 40, 0
2, 386233, Note_on_c, 0, 81, 0
2, 386251, Note_on_c, 0, 76, 0
2, 386254, Note_on_c, 0, 52, 0
2, 386268, Note_on_c, 0, 80, 112
2, 386299, Note_on_c, 0, 80, 0
2, 386328, Note_on_c, 0, 83, 103
2, 386359, Note_on_c, 0, 83, 0
2, 386410, Note_on_c, 0, 93, 116
2, 386411, Note_on_c, 0, 59, 94
2, 386412, Note_on_c, 0, 68, 110
2, 386509, Note_on_c, 0, 88, 93
2, 386527, Note_on_c, 0, 93, 0
2, 386566, Note_on_c, 0, 88, 0
2, 386571, Note_on_c, 0, 68, 0
2, 386574, Note_on_c, 0, 92, 108
2, 386606, Note_on_c, 0, 59, 0
2, 386623, Note_on_c, 0, 92, 0
2, 386633, Note_on_c, 0, 83, 86
2, 386652, Note_on_c, 0, 83, 0
2, 386697, Note_on_c, 0, 81, 111
2, 386765, Note_on_c, 0, 76, 57
2, 386782, Note_on_c, 0, 81, 0
2, 386806, Note_on_c, 0, 76, 0
2, 386830, Note_on_c, 0, 80, 109
2, 386877, Note_on_c, 0, 80, 0
2, 386886, Note_on_c, 0, 71, 82
2, 386909, Note_on_c, 0, 71, 0
2, 386959, Note_on_c, 0, 52, 107
2, 386962, Note_on_c, 0, 69, 114
2, 386963, Note_on_c, 0, 40, 97
2, 386998, Control_c, 0, 64, 63
2, 387004, Control_c, 0, 64, 0
2, 387027, Note_on_c, 0, 64, 66
2, 387037, Control_c, 0, 64, 63
2, 387043, Control_c, 0, 64, 127
2, 387091, Note_on_c, 0, 69, 0
2, 387092, Note_on_c, 0, 52, 0
2, 387094, Note_on_c, 0, 68, 101
2, 387108, Note_on_c, 0, 64, 0
2, 387159, Note_on_c, 0, 59, 83
2, 387198, Note_on_c, 0, 68, 0
2, 387246, Control_c, 0, 64, 63
2, 387248, Control_c, 0, 64, 0
2, 387265, Note_on_c, 0, 38, 97
2, 387275, Note_on_c, 0, 50, 116
2, 387277, Note_on_c, 0, 71, 112
2, 387280, Note_on_c, 0, 65, 101
2, 387280, Note_on_c, 0, 68, 105
2, 387291, Note_on_c, 0, 40, 0
2, 387302, Control_c, 0, 64, 63
2, 387304, Control_c, 0, 64, 127
2, 387322, Note_on_c, 0, 59, 0
2, 387328, Note_on_c, 0, 65, 0
2, 387329, Note_on_c, 0, 38, 0
2, 387333, Note_on_c, 0, 68, 0
2, 387342, Note_on_c, 0, 50, 0
2, 387349, Note_on_c, 0, 71, 0
2, 387473, Note_on_c, 0, 71, 81
2, 387477, Note_on_c, 0, 68, 86
2, 387489, Control_c, 0, 64, 63
2, 387490, Note_on_c, 0, 65, 35
2, 387496, Control_c, 0, 64, 0
2, 387504, Note_on_c, 0, 68, 0
2, 387508, Note_on_c, 0, 71, 0
2, 387510, Note_on_c, 0, 65, 0
2, 387523, Control_c, 0, 64, 63
2, 387531, Control_c, 0, 64, 127
2, 387534, Note_on_c, 0, 65, 72
2, 387540, Note_on_c, 0, 68, 58
2, 387542, Note_on_c, 0, 71, 56
2, 387577, Note_on_c, 0, 68, 0
2, 387594, Note_on_c, 0, 71, 0
2, 387613, Note_on_c, 0, 65, 0
2, 387617, Note_on_c, 0, 64, 57
2, 387623, Note_on_c, 0, 72, 65
2, 387680, Note_on_c, 0, 64, 0
2, 387685, Note_on_c, 0, 63, 75
2, 387685, Note_on_c, 0, 73, 84
2, 387691, Note_on_c, 0, 72, 0
2, 387729, Note_on_c, 0, 73, 0
2, 387741, Note_on_c, 0, 63, 0
2, 387752, Note_on_c, 0, 74, 74
2, 387755, Note_on_c, 0, 62, 76
2, 387809, Note_on_c, 0, 75, 98
2, 387816, Note_on_c, 0, 61, 97
2, 387824, Note_on_c, 0, 62, 0
2, 387830, Note_on_c, 0, 74, 0
2, 387876, Note_on_c, 0, 60, 92
2, 387877, Note_on_c, 0, 76, 101
2, 387879, Note_on_c, 0, 61, 0
2, 387884, Note_on_c, 0, 75, 0
2, 387911, Control_c, 0, 64, 63
2, 387925, Note_on_c, 0, 76, 0
2, 387927, Control_c, 0, 64, 127
2, 387939, Note_on_c, 0, 79, 106
2, 387942, Note_on_c, 0, 59, 98
2, 387951, Note_on_c, 0, 60, 0
2, 388006, Note_on_c, 0, 50, 83
2, 388009, Note_on_c, 0, 77, 108
2, 388014, Note_on_c, 0, 59, 0
2, 388027, Control_c, 0, 64, 63
2, 388034, Control_c, 0, 64, 0
2, 388035, Note_on_c, 0, 79, 0
2, 388045, Note_on_c, 0, 77, 0
2, 388053, Control_c, 0, 64, 63
2, 388062, Note_on_c, 0, 77, 107
2, 388065, Control_c, 0, 64, 127
2, 388069, Note_on_c, 0, 53, 100
2, 388084, Note_on_c, 0, 50, 0
2, 388094, Note_on_c, 0, 77, 0
2, 388111, Note_on_c, 0, 53, 0
2, 388138, Note_on_c, 0, 65, 102
2, 388142, Note_on_c, 0, 71, 103
2, 388143, Note_on_c, 0, 68, 101
2, 388161, Note_on_c, 0, 65, 0
2, 388162, Note_on_c, 0, 68, 0
2, 388166, Note_on_c, 0, 71, 0
2, 388284, Control_c, 0, 64, 63
2, 388286, Control_c, 0, 64, 0
2, 388293, Note_on_c, 0, 83, 90
2, 388293, Note_on_c, 0, 80, 94
2, 388294, Note_on_c, 0, 77, 98
2, 388316, Control_c, 0, 64, 63
2, 388320, Control_c, 0, 64, 127
2, 388337, Note_on_c, 0, 80, 0
2, 388338, Note_on_c, 0, 83, 0
2, 388338, Note_on_c, 0, 77, 0
2, 388359, Note_on_c, 0, 77, 89
2, 388362, Note_on_c, 0, 80, 78
2, 388363, Note_on_c, 0, 83, 84
2, 388417, Note_on_c, 0, 80, 0
2, 388430, Note_on_c, 0, 83, 0
2, 388443, Note_on_c, 0, 77, 0
2, 388444, Note_on_c, 0, 76, 65
2, 388454, Note_on_c, 0, 84, 79
2, 388520, Note_on_c, 0, 75, 83
2, 388522, Note_on_c, 0, 85, 95
2, 388524, Note_on_c, 0, 76, 0
2, 388526, Note_on_c, 0, 84, 0
2, 388568, Note_on_c, 0, 85, 0
2, 388577, Note_on_c, 0, 75, 0
2, 388581, Note_on_c, 0, 74, 89
2, 388582, Note_on_c, 0, 86, 93
2, 388639, Note_on_c, 0, 87, 108
2, 388645, Note_on_c, 0, 73, 105
2, 388654, Note_on_c, 0, 86, 0
2, 388659, Note_on_c, 0, 74, 0
2, 388705, Note_on_c, 0, 88, 102
2, 388706, Note_on_c, 0, 72, 93
2, 388708, Note_on_c, 0, 87, 0
2, 388711, Note_on_c, 0, 73, 0
2, 388747, Note_on_c, 0, 88, 0
2, 388760, Note_on_c, 0, 91, 106
2, 388767, Note_on_c, 0, 71, 99
2, 388782, Note_on_c, 0, 72, 0
2, 388826, Note_on_c, 0, 62, 85
2, 388831, Note_on_c, 0, 89, 108
2, 388839, Note_on_c, 0, 71, 0
2, 388850, Control_c, 0, 64, 63
2, 388854, Control_c, 0, 64, 0
2, 388855, Note_on_c, 0, 91, 0
2, 388869, Note_on_c, 0, 89, 0
2, 388877, Control_c, 0, 64, 63
2, 388888, Control_c, 0, 64, 127
2, 388888, Note_on_c, 0, 89, 108
2, 388893, Note_on_c, 0, 65, 102
2, 388905, Note_on_c, 0, 62, 0
2, 388923, Note_on_c, 0, 89, 0
2, 388935, Note_on_c, 0, 65, 0
2, 388968, Note_on_c, 0, 77, 102
2, 388970, Note_on_c, 0, 83, 101
2, 388971, Note_on_c, 0, 80, 104
2, 388992, Note_on_c, 0, 77, 0
2, 388995, Note_on_c, 0, 83, 0
2, 388997, Note_on_c, 0, 80, 0
2, 389172, Note_on_c, 0, 58, 113
2, 389183, Control_c, 0, 64, 63
2, 389188, Control_c, 0, 64, 0
2, 389269, Note_on_c, 0, 59, 109
2, 389273, Note_on_c, 0, 58, 0
2, 389275, Control_c, 0, 64, 63
2, 389277, Control_c, 0, 64, 127
2, 389352, Note_on_c, 0, 59, 0
2, 389352, Control_c, 0, 64, 63
2, 389353, Control_c, 0, 64, 0
2, 389358, Note_on_c, 0, 38, 118
2, 389365, Note_on_c, 0, 69, 111
2, 389374, Control_c, 0, 64, 63
2, 389380, Control_c, 0, 64, 127
2, 389451, Note_on_c, 0, 65, 83
2, 389469, Note_on_c, 0, 69, 0
2, 389515, Note_on_c, 0, 65, 0
2, 389520, Note_on_c, 0, 68, 100
2, 389549, Note_on_c, 0, 68, 0
2, 389578, Note_on_c, 0, 71, 98
2, 389604, Note_on_c, 0, 71, 0
2, 389650, Note_on_c, 0, 81, 113
2, 389652, Note_on_c, 0, 50, 120
2, 389716, Note_on_c, 0, 77, 89
2, 389730, Note_on_c, 0, 38, 0
2, 389730, Note_on_c, 0, 81, 0
2, 389762, Note_on_c, 0, 50, 0
2, 389769, Note_on_c, 0, 77, 0
2, 389785, Note_on_c, 0, 80, 112
2, 389818, Note_on_c, 0, 80, 0
2, 389848, Note_on_c, 0, 83, 102
2, 389880, Note_on_c, 0, 83, 0
2, 389928, Note_on_c, 0, 93, 116
2, 389930, Note_on_c, 0, 65, 109
2, 389931, Note_on_c, 0, 59, 114
2, 390013, Note_on_c, 0, 89, 94
2, 390027, Note_on_c, 0, 93, 0
2, 390082, Note_on_c, 0, 92, 110
2, 390088, Note_on_c, 0, 89, 0
2, 390107, Note_on_c, 0, 65, 0
2, 390120, Note_on_c, 0, 92, 0
2, 390127, Note_on_c, 0, 83, 90
2, 390141, Note_on_c, 0, 59, 0
2, 390156, Note_on_c, 0, 83, 0
2, 390202, Note_on_c, 0, 81, 103
2, 390259, Note_on_c, 0, 77, 93
2, 390274, Note_on_c, 0, 81, 0
2, 390339, Note_on_c, 0, 80, 112
2, 390356, Note_on_c, 0, 77, 0
2, 390393, Note_on_c, 0, 71, 90
2, 390396, Note_on_c, 0, 80, 0
2, 390420, Note_on_c, 0, 71, 0
2, 390473, Note_on_c, 0, 69, 116
2, 390475, Note_on_c, 0, 50, 109
2, 390477, Note_on_c, 0, 38, 99
2, 390516, Control_c, 0, 64, 63
2, 390522, Control_c, 0, 64, 0
2, 390544, Control_c, 0, 64, 63
2, 390550, Note_on_c, 0, 64, 63
2, 390559, Control_c, 0, 64, 127
2, 390594, Note_on_c, 0, 69, 0
2, 390616, Note_on_c, 0, 68, 109
2, 390625, Note_on_c, 0, 64, 0
2, 390640, Note_on_c, 0, 50, 0
2, 390674, Note_on_c, 0, 59, 85
2, 390735, Note_on_c, 0, 36, 100
2, 390762, Control_c, 0, 64, 63
2, 390765, Control_c, 0, 64, 0
2, 390766, Note_on_c, 0, 38, 0
2, 390769, Note_on_c, 0, 68, 0
2, 390780, Note_on_c, 0, 59, 0
2, 390788, Note_on_c, 0, 64, 107
2, 390789, Note_on_c, 0, 71, 113
2, 390790, Note_on_c, 0, 48, 102
2, 390794, Control_c, 0, 64, 63
2, 390802, Control_c, 0, 64, 127
2, 390846, Note_on_c, 0, 64, 0
2, 390846, Note_on_c, 0, 36, 0
2, 390860, Note_on_c, 0, 71, 0
2, 390868, Note_on_c, 0, 48, 0
2, 390969, Note_on_c, 0, 64, 97
2, 390997, Note_on_c, 0, 64, 0
2, 391007, Control_c, 0, 64, 63
2, 391010, Control_c, 0, 64, 0
2, 391027, Note_on_c, 0, 64, 92
2, 391033, Control_c, 0, 64, 63
2, 391043, Control_c, 0, 64, 127
2, 391062, Note_on_c, 0, 64, 0
2, 391105, Note_on_c, 0, 64, 88
2, 391118, Control_c, 0, 64, 63
2, 391120, Note_on_c, 0, 60, 68
2, 391121, Control_c, 0, 64, 127
2, 391161, Note_on_c, 0, 71, 79
2, 391165, Note_on_c, 0, 64, 0
2, 391179, Note_on_c, 0, 60, 0
2, 391186, Note_on_c, 0, 48, 74
2, 391228, Note_on_c, 0, 48, 0
2, 391239, Note_on_c, 0, 71, 0
2, 391239, Note_on_c, 0, 76, 86
2, 391249, Note_on_c, 0, 60, 48
2, 391291, Note_on_c, 0, 69, 80
2, 391293, Note_on_c, 0, 76, 0
2, 391293, Note_on_c, 0, 60, 0
2, 391302, Note_on_c, 0, 64, 82
2, 391328, Note_on_c, 0, 64, 0
2, 391329, Note_on_c, 0, 69, 0
2, 391371, Note_on_c, 0, 66, 96
2, 391373, Note_on_c, 0, 63, 91
2, 391382, Control_c, 0, 64, 63
2, 391386, Control_c, 0, 64, 0
2, 391411, Control_c, 0, 64, 63
2, 391420, Control_c, 0, 64, 127
2, 391434, Note_on_c, 0, 72, 84
2, 391436, Note_on_c, 0, 63, 0
2, 391440, Note_on_c, 0, 51, 100
2, 391441, Note_on_c, 0, 66, 0
2, 391482, Note_on_c, 0, 51, 0
2, 391491, Note_on_c, 0, 63, 80
2, 391501, Note_on_c, 0, 78, 95
2, 391515, Note_on_c, 0, 72, 0
2, 391551, Note_on_c, 0, 63, 0
2, 391559, Note_on_c, 0, 78, 0
2, 391559, Note_on_c, 0, 71, 91
2, 391569, Note_on_c, 0, 66, 68
2, 391605, Note_on_c, 0, 66, 0
2, 391621, Control_c, 0, 64, 63
2, 391626, Control_c, 0, 64, 0
2, 391631, Note_on_c, 0, 64, 90
2, 391633, Note_on_c, 0, 67, 89
2, 391637, Note_on_c, 0, 71, 0
2, 391642, Control_c, 0, 64, 63
2, 391655, Control_c, 0, 64, 127
2, 391690, Note_on_c, 0, 64, 0
2, 391696, Note_on_c, 0, 72, 100
2, 391699, Note_on_c, 0, 52, 89
2, 391704, Note_on_c, 0, 67, 0
2, 391733, Note_on_c, 0, 52, 0
2, 391762, Note_on_c, 0, 64, 63
2, 391766, Note_on_c, 0, 72, 0
2, 391767, Note_on_c, 0, 79, 79
2, 391803, Note_on_c, 0, 79, 0
2, 391803, Note_on_c, 0, 64, 0
2, 391817, Note_on_c, 0, 71, 73
2, 391819, Note_on_c, 0, 67, 84
2, 391841, Note_on_c, 0, 67, 0
2, 391842, Note_on_c, 0, 71, 0
2, 391882, Control_c, 0, 64, 63
2, 391885, Control_c, 0, 64, 0
2, 391887, Note_on_c, 0, 66, 95
2, 391900, Note_on_c, 0, 70, 92
2, 391913, Control_c, 0, 64, 63
2, 391922, Control_c, 0, 64, 127
2, 391946, Note_on_c, 0, 70, 0
2, 391948, Note_on_c, 0, 78, 98
2, 391950, Note_on_c, 0, 66, 0
2, 391953, Note_on_c, 0, 54, 100
2, 391998, Note_on_c, 0, 54, 0
2, 392018, Note_on_c, 0, 66, 78
2, 392020, Note_on_c, 0, 85, 110
2, 392030, Note_on_c, 0, 78, 0
2, 392066, Note_on_c, 0, 85, 0
2, 392068, Note_on_c, 0, 66, 0
2, 392076, Note_on_c, 0, 76, 82
2, 392086, Note_on_c, 0, 70, 74
2, 392107, Note_on_c, 0, 70, 0
2, 392128, Note_on_c, 0, 76, 0
2, 392154, Note_on_c, 0, 74, 91
2, 392162, Note_on_c, 0, 71, 71
2, 392188, Note_on_c, 0, 74, 0
2, 392208, Note_on_c, 0, 83, 103
2, 392211, Note_on_c, 0, 66, 90
2, 392231, Note_on_c, 0, 71, 0
2, 392266, Note_on_c, 0, 76, 69
2, 392275, Control_c, 0, 64, 63
2, 392277, Note_on_c, 0, 73, 107
2, 392278, Control_c, 0, 64, 0
2, 392302, Note_on_c, 0, 83, 0
2, 392302, Note_on_c, 0, 66, 0
2, 392308, Control_c, 0, 64, 63
2, 392317, Control_c, 0, 64, 127
2, 392330, Note_on_c, 0, 82, 112
2, 392336, Note_on_c, 0, 66, 100
2, 392392, Note_on_c, 0, 76, 0
2, 392408, Note_on_c, 0, 82, 0
2, 392409, Note_on_c, 0, 73, 0
2, 392410, Control_c, 0, 64, 63
2, 392412, Note_on_c, 0, 74, 96
2, 392413, Note_on_c, 0, 66, 0
2, 392414, Note_on_c, 0, 83, 106
2, 392415, Note_on_c, 0, 71, 88
2, 392416, Control_c, 0, 64, 0
2, 392419, Note_on_c, 0, 78, 112
2, 392434, Control_c, 0, 64, 63
2, 392443, Control_c, 0, 64, 127
2, 392466, Note_on_c, 0, 78, 0
2, 392469, Note_on_c, 0, 83, 0
2, 392488, Note_on_c, 0, 74, 0
2, 392503, Note_on_c, 0, 71, 0
2, 392547, Control_c, 0, 64, 63
2, 392550, Control_c, 0, 64, 0
2, 392570, Note_on_c, 0, 78, 99
2, 392598, Note_on_c, 0, 78, 0
2, 392626, Note_on_c, 0, 78, 96
2, 392692, Note_on_c, 0, 78, 0
2, 392706, Control_c, 0, 64, 63
2, 392706, Note_on_c, 0, 74, 75
2, 392706, Control_c, 0, 64, 127
2, 392716, Note_on_c, 0, 71, 58
2, 392774, Note_on_c, 0, 79, 76
2, 392776, Note_on_c, 0, 74, 0
2, 392784, Note_on_c, 0, 59, 66
2, 392790, Note_on_c, 0, 71, 0
2, 392825, Note_on_c, 0, 79, 0
2, 392827, Note_on_c, 0, 59, 0
2, 392848, Note_on_c, 0, 86, 92
2, 392854, Note_on_c, 0, 71, 49
2, 392895, Note_on_c, 0, 86, 0
2, 392897, Note_on_c, 0, 71, 0
2, 392901, Note_on_c, 0, 78, 94
2, 392906, Note_on_c, 0, 74, 79
2, 392931, Note_on_c, 0, 74, 0
2, 392943, Note_on_c, 0, 78, 0
2, 392963, Control_c, 0, 64, 63
2, 392968, Control_c, 0, 64, 0
2, 392973, Note_on_c, 0, 77, 96
2, 392974, Note_on_c, 0, 73, 95
2, 392984, Control_c, 0, 64, 63
2, 392998, Control_c, 0, 64, 127
2, 393030, Note_on_c, 0, 77, 0
2, 393036, Note_on_c, 0, 73, 0
2, 393036, Note_on_c, 0, 85, 110
2, 393041, Note_on_c, 0, 61, 101
2, 393087, Note_on_c, 0, 61, 0
2, 393102, Note_on_c, 0, 92, 107
2, 393103, Note_on_c, 0, 73, 74
2, 393117, Note_on_c, 0, 85, 0
2, 393135, Note_on_c, 0, 73, 0
2, 393149, Note_on_c, 0, 92, 0
2, 393157, Note_on_c, 0, 77, 86
2, 393164, Note_on_c, 0, 83, 84
2, 393191, Note_on_c, 0, 77, 0
2, 393206, Note_on_c, 0, 83, 0
2, 393211, Control_c, 0, 64, 63
2, 393219, Control_c, 0, 64, 0
2, 393226, Note_on_c, 0, 78, 97
2, 393226, Note_on_c, 0, 81, 102
2, 393228, Control_c, 0, 64, 63
2, 393244, Control_c, 0, 64, 127
2, 393288, Note_on_c, 0, 78, 0
2, 393292, Note_on_c, 0, 86, 103
2, 393297, Note_on_c, 0, 66, 99
2, 393298, Note_on_c, 0, 81, 0
2, 393343, Note_on_c, 0, 86, 0
2, 393350, Note_on_c, 0, 66, 0
2, 393363, Note_on_c, 0, 78, 76
2, 393370, Note_on_c, 0, 93, 96
2, 393393, Note_on_c, 0, 78, 0
2, 393409, Note_on_c, 0, 93, 0
2, 393426, Note_on_c, 0, 85, 107
2, 393430, Note_on_c, 0, 81, 76
2, 393454, Control_c, 0, 64, 63
2, 393457, Note_on_c, 0, 85, 0
2, 393459, Note_on_c, 0, 81, 0
2, 393459, Control_c, 0, 64, 0
2, 393488, Control_c, 0, 64, 63
2, 393493, Note_on_c, 0, 84, 93
2, 393495, Note_on_c, 0, 80, 99
2, 393498, Control_c, 0, 64, 127
2, 393538, Note_on_c, 0, 84, 0
2, 393554, Note_on_c, 0, 80, 0
2, 393555, Note_on_c, 0, 92, 106
2, 393566, Note_on_c, 0, 68, 95
2, 393600, Note_on_c, 0, 92, 0
2, 393606, Note_on_c, 0, 68, 0
2, 393631, Note_on_c, 0, 99, 115
2, 393635, Note_on_c, 0, 80, 81
2, 393666, Note_on_c, 0, 80, 0
2, 393673, Note_on_c, 0, 99, 0
2, 393701, Note_on_c, 0, 84, 66
2, 393705, Note_on_c, 0, 90, 96
2, 393737, Note_on_c, 0, 84, 0
2, 393742, Note_on_c, 0, 90, 0
2, 393770, Note_on_c, 0, 85, 95
2, 393774, Note_on_c, 0, 88, 84
2, 393831, Note_on_c, 0, 97, 113
2, 393831, Note_on_c, 0, 80, 89
2, 393847, Note_on_c, 0, 85, 0
2, 393874, Note_on_c, 0, 88, 0
2, 393891, Note_on_c, 0, 97, 0
2, 393897, Note_on_c, 0, 90, 103
2, 393901, Note_on_c, 0, 87, 106
2, 393903, Note_on_c, 0, 80, 0
2, 393951, Control_c, 0, 64, 63
2, 393954, Note_on_c, 0, 96, 106
2, 393957, Note_on_c, 0, 80, 82
2, 393958, Control_c, 0, 64, 0
2, 393960, Note_on_c, 0, 87, 0
2, 393962, Note_on_c, 0, 90, 0
2, 393992, Note_on_c, 0, 96, 0
2, 394032, Note_on_c, 0, 97, 114
2, 394034, Note_on_c, 0, 88, 112
2, 394036, Note_on_c, 0, 80, 0
2, 394037, Note_on_c, 0, 85, 109
2, 394038, Note_on_c, 0, 92, 110
2, 394057, Note_on_c, 0, 97, 0
2, 394057, Note_on_c, 0, 92, 0
2, 394058, Note_on_c, 0, 88, 0
2, 394066, Note_on_c, 0, 85, 0
2, 394210, Note_on_c, 0, 68, 98
2, 394237, Control_c, 0, 64, 63
2, 394237, Control_c, 0, 64, 127
2, 394260, Note_on_c, 0, 68, 0
2, 394299, Note_on_c, 0, 68, 83
2, 394343, Control_c, 0, 64, 63
2, 394347, Control_c, 0, 64, 0
2, 394382, Note_on_c, 0, 64, 85
2, 394390, Note_on_c, 0, 61, 87
2, 394420, Control_c, 0, 64, 63
2, 394421, Control_c, 0, 64, 127
2, 394443, Note_on_c, 0, 68, 0
2, 394470, Note_on_c, 0, 69, 83
2, 394478, Note_on_c, 0, 49, 85
2, 394480, Note_on_c, 0, 64, 0
2, 394496, Note_on_c, 0, 61, 0
2, 394538, Note_on_c, 0, 49, 0
2, 394544, Note_on_c, 0, 61, 80
2, 394546, Note_on_c, 0, 76, 87
2, 394551, Note_on_c, 0, 69, 0
2, 394583, Note_on_c, 0, 61, 0
2, 394602, Note_on_c, 0, 76, 0
2, 394608, Note_on_c, 0, 68, 96
2, 394611, Note_on_c, 0, 64, 85
2, 394643, Note_on_c, 0, 64, 0
2, 394649, Note_on_c, 0, 68, 0
2, 394667, Control_c, 0, 64, 63
2, 394670, Control_c, 0, 64, 0
2, 394683, Note_on_c, 0, 67, 90
2, 394685, Note_on_c, 0, 63, 99
2, 394691, Control_c, 0, 64, 63
2, 394698, Control_c, 0, 64, 127
2, 394740, Note_on_c, 0, 67, 0
2, 394753, Note_on_c, 0, 75, 104
2, 394754, Note_on_c, 0, 63, 0
2, 394761, Note_on_c, 0, 51, 107
2, 394816, Note_on_c, 0, 51, 0
2, 394824, Note_on_c, 0, 82, 112
2, 394826, Note_on_c, 0, 63, 86
2, 394840, Note_on_c, 0, 75, 0
2, 394863, Note_on_c, 0, 63, 0
2, 394888, Note_on_c, 0, 82, 0
2, 394888, Note_on_c, 0, 67, 85
2, 394891, Note_on_c, 0, 73, 106
2, 394916, Note_on_c, 0, 67, 0
2, 394917, Control_c, 0, 64, 63
2, 394924, Control_c, 0, 64, 0
2, 394930, Control_c, 0, 64, 63
2, 394940, Control_c, 0, 64, 127
2, 394966, Note_on_c, 0, 68, 100
2, 394966, Note_on_c, 0, 71, 96
2, 394979, Note_on_c, 0, 73, 0
2, 395020, Control_c, 0, 64, 63
2, 395023, Control_c, 0, 64, 0
2, 395037, Note_on_c, 0, 71, 0
2, 395038, Note_on_c, 0, 68, 0
2, 395038, Control_c, 0, 64, 63
2, 395040, Note_on_c, 0, 76, 103
2, 395043, Note_on_c, 0, 56, 100
2, 395044, Control_c, 0, 64, 127
2, 395095, Note_on_c, 0, 56, 0
2, 395108, Note_on_c, 0, 68, 84
2, 395111, Note_on_c, 0, 83, 103
2, 395117, Note_on_c, 0, 76, 0
2, 395139, Note_on_c, 0, 68, 0
2, 395164, Note_on_c, 0, 83, 0
2, 395166, Note_on_c, 0, 71, 88
2, 395172, Note_on_c, 0, 75, 104
2, 395194, Note_on_c, 0, 71, 0
2, 395213, Note_on_c, 0, 75, 0
2, 395232, Control_c, 0, 64, 63
2, 395238, Control_c, 0, 64, 0
2, 395243, Note_on_c, 0, 70, 94
2, 395244, Note_on_c, 0, 74, 96
2, 395250, Control_c, 0, 64, 63
2, 395260, Control_c, 0, 64, 127
2, 395287, Note_on_c, 0, 74, 0
2, 395305, Note_on_c, 0, 70, 0
2, 395315, Note_on_c, 0, 82, 114
2, 395316, Note_on_c, 0, 58, 100
2, 395359, Note_on_c, 0, 82, 0
2, 395367, Note_on_c, 0, 58, 0
2, 395389, Note_on_c, 0, 70, 76
2, 395392, Note_on_c, 0, 89, 108
2, 395416, Note_on_c, 0, 70, 0
2, 395421, Note_on_c, 0, 89, 0
2, 395461, Note_on_c, 0, 80, 112
2, 395461, Note_on_c, 0, 74, 85
2, 395490, Note_on_c, 0, 74, 0
2, 395491, Note_on_c, 0, 80, 0
2, 395531, Note_on_c, 0, 75, 104
2, 395536, Note_on_c, 0, 78, 106
2, 395545, Control_c, 0, 64, 63
2, 395549, Control_c, 0, 64, 0
2, 395571, Control_c, 0, 64, 63
2, 395579, Control_c, 0, 64, 127
2, 395589, Note_on_c, 0, 70, 94
2, 395592, Note_on_c, 0, 78, 0
2, 395598, Note_on_c, 0, 87, 112
2, 395599, Note_on_c, 0, 75, 0
2, 395653, Note_on_c, 0, 70, 0
2, 395658, Note_on_c, 0, 87, 0
2, 395660, Note_on_c, 0, 77, 106
2, 395661, Note_on_c, 0, 80, 104
2, 395684, Control_c, 0, 64, 63
2, 395691, Control_c, 0, 64, 0
2, 395714, Note_on_c, 0, 70, 104
2, 395722, Note_on_c, 0, 77, 0
2, 395723, Note_on_c, 0, 86, 108
2, 395732, Note_on_c, 0, 80, 0
2, 395772, Note_on_c, 0, 86, 0
2, 395802, Note_on_c, 0, 87, 114
2, 395803, Note_on_c, 0, 78, 107
2, 395804, Note_on_c, 0, 75, 94
2, 395806, Note_on_c, 0, 70, 0
2, 395806, Note_on_c, 0, 82, 112
2, 395810, Control_c, 0, 64, 63
2, 395810, Control_c, 0, 64, 127
2, 395834, Note_on_c, 0, 82, 0
2, 395835, Note_on_c, 0, 87, 0
2, 395839, Note_on_c, 0, 78, 0
2, 395855, Note_on_c, 0, 75, 0
2, 395960, Note_on_c, 0, 82, 119
2, 395971, Control_c, 0, 64, 63
2, 395973, Control_c, 0, 64, 0
2, 395988, Note_on_c, 0, 82, 0
2, 396012, Note_on_c, 0, 82, 103
2, 396089, Note_on_c, 0, 75, 110
2, 396091, Note_on_c, 0, 78, 115
2, 396094, Control_c, 0, 64, 63
2, 396094, Control_c, 0, 64, 127
2, 396113, Note_on_c, 0, 82, 0
2, 396156, Note_on_c, 0, 63, 103
2, 396158, Note_on_c, 0, 75, 0
2, 396158, Note_on_c, 0, 83, 92
2, 396160, Note_on_c, 0, 78, 0
2, 396211, Note_on_c, 0, 63, 0
2, 396227, Note_on_c, 0, 75, 97
2, 396229, Note_on_c, 0, 90, 107
2, 396242, Note_on_c, 0, 83, 0
2, 396278, Note_on_c, 0, 75, 0
2, 396282, Note_on_c, 0, 90, 0
2, 396288, Note_on_c, 0, 82, 97
2, 396290, Note_on_c, 0, 78, 88
2, 396312, Note_on_c, 0, 78, 0
2, 396323, Control_c, 0, 64, 63
2, 396328, Control_c, 0, 64, 0
2, 396346, Control_c, 0, 64, 63
2, 396348, Note_on_c, 0, 82, 0
2, 396356, Control_c, 0, 64, 127
2, 396358, Note_on_c, 0, 76, 109
2, 396360, Note_on_c, 0, 80, 110
2, 396425, Note_on_c, 0, 76, 0
2, 396428, Note_on_c, 0, 80, 0
2, 396429, Note_on_c, 0, 64, 103
2, 396431, Note_on_c, 0, 85, 105
2, 396467, Note_on_c, 0, 64, 0
2, 396493, Note_on_c, 0, 85, 0
2, 396493, Note_on_c, 0, 76, 81
2, 396495, Note_on_c, 0, 92, 101
2, 396543, Note_on_c, 0, 92, 0
2, 396546, Note_on_c, 0, 76, 0
2, 396556, Note_on_c, 0, 83, 89
2, 396560, Note_on_c, 0, 80, 100
2, 396583, Note_on_c, 0, 80, 0
2, 396593, Note_on_c, 0, 83, 0
2, 396608, Control_c, 0, 64, 63
2, 396613, Control_c, 0, 64, 0
2, 396630, Control_c, 0, 64, 63
2, 396632, Note_on_c, 0, 78, 118
2, 396635, Note_on_c, 0, 82, 108
2, 396641, Control_c, 0, 64, 127
2, 396700, Note_on_c, 0, 87, 113
2, 396700, Note_on_c, 0, 66, 110
2, 396701, Note_on_c, 0, 82, 0
2, 396704, Note_on_c, 0, 78, 0
2, 396746, Note_on_c, 0, 66, 0
2, 396766, Note_on_c, 0, 78, 96
2, 396766, Note_on_c, 0, 94, 110
2, 396776, Note_on_c, 0, 87, 0
2, 396820, Note_on_c, 0, 78, 0
2, 396822, Note_on_c, 0, 94, 0
2, 396829, Note_on_c, 0, 85, 110
2, 396834, Note_on_c, 0, 82, 99
2, 396857, Note_on_c, 0, 82, 0
2, 396886, Control_c, 0, 64, 63
2, 396893, Control_c, 0, 64, 0
2, 396896, Note_on_c, 0, 83, 92
2, 396900, Note_on_c, 0, 80, 113
2, 396904, Control_c, 0, 64, 63
2, 396917, Control_c, 0, 64, 127
2, 396922, Note_on_c, 0, 85, 0
2, 396966, Note_on_c, 0, 88, 103
2, 396968, Note_on_c, 0, 80, 0
2, 396970, Note_on_c, 0, 68, 108
2, 396972, Note_on_c, 0, 83, 0
2, 397022, Note_on_c, 0, 88, 0
2, 397022, Note_on_c, 0, 68, 0
2, 397033, Note_on_c, 0, 80, 97
2, 397034, Note_on_c, 0, 95, 109
2, 397065, Note_on_c, 0, 80, 0
2, 397078, Note_on_c, 0, 95, 0
2, 397093, Note_on_c, 0, 87, 110
2, 397097, Note_on_c, 0, 83, 85
2, 397121, Note_on_c, 0, 87, 0
2, 397123, Note_on_c, 0, 83, 0
2, 397130, Control_c, 0, 64, 63
2, 397141, Control_c, 0, 64, 0
2, 397150, Control_c, 0, 64, 63
2, 397163, Note_on_c, 0, 82, 110
2, 397164, Control_c, 0, 64, 127
2, 397166, Note_on_c, 0, 85, 110
2, 397227, Note_on_c, 0, 82, 0
2, 397231, Note_on_c, 0, 85, 0
2, 397231, Note_on_c, 0, 90, 114
2, 397235, Note_on_c, 0, 70, 109
2, 397279, Note_on_c, 0, 70, 0
2, 397294, Note_on_c, 0, 82, 88
2, 397294, Note_on_c, 0, 97, 105
2, 397303, Note_on_c, 0, 90, 0
2, 397345, Note_on_c, 0, 97, 0
2, 397350, Note_on_c, 0, 82, 0
2, 397355, Note_on_c, 0, 88, 101
2, 397361, Note_on_c, 0, 85, 96
2, 397373, Note_on_c, 0, 85, 0
2, 397381, Note_on_c, 0, 88, 0
2, 397412, Control_c, 0, 64, 63
2, 397424, Control_c, 0, 64, 0
2, 397436, Control_c, 0, 64, 63
2, 397451, Control_c, 0, 64, 127
2, 397463, Note_on_c, 0, 83, 99
2, 397463, Note_on_c, 0, 71, 92
2, 397463, Note_on_c, 0, 99, 118
2, 397465, Note_on_c, 0, 87, 116
2, 397475, Note_on_c, 0, 71, 0
2, 397476, Note_on_c, 0, 83, 0
2, 397479, Note_on_c, 0, 87, 0
2, 397485, Note_on_c, 0, 99, 0
2, 397673, Note_on_c, 0, 59, 104
2, 397679, Note_on_c, 0, 75, 98
2, 397760, Note_on_c, 0, 61, 103
2, 397763, Note_on_c, 0, 75, 0
2, 397763, Note_on_c, 0, 76, 101
2, 397784, Note_on_c, 0, 59, 0
2, 397836, Note_on_c, 0, 63, 106
2, 397837, Note_on_c, 0, 78, 108
2, 397838, Control_c, 0, 64, 63
2, 397844, Control_c, 0, 64, 0
2, 397846, Note_on_c, 0, 76, 0
2, 397861, Note_on_c, 0, 61, 0
2, 397885, Control_c, 0, 64, 63
2, 397892, Control_c, 0, 64, 127
2, 397898, Note_on_c, 0, 64, 97
2, 397900, Note_on_c, 0, 63, 0
2, 397900, Note_on_c, 0, 80, 107
2, 397909, Note_on_c, 0, 78, 0
2, 397966, Note_on_c, 0, 66, 110
2, 397967, Note_on_c, 0, 82, 106
2, 397986, Note_on_c, 0, 80, 0
2, 397986, Note_on_c, 0, 64, 0
2, 398026, Note_on_c, 0, 82, 0
2, 398029, Note_on_c, 0, 68, 104
2, 398033, Note_on_c, 0, 83, 93
2, 398043, Note_on_c, 0, 66, 0
2, 398102, Note_on_c, 0, 70, 106
2, 398103, Note_on_c, 0, 85, 110
2, 398109, Note_on_c, 0, 83, 0
2, 398120, Note_on_c, 0, 68, 0
2, 398166, Note_on_c, 0, 71, 103
2, 398167, Note_on_c, 0, 87, 113
2, 398173, Note_on_c, 0, 70, 0
2, 398184, Note_on_c, 0, 85, 0
2, 398231, Note_on_c, 0, 73, 113
2, 398235, Note_on_c, 0, 88, 97
2, 398243, Note_on_c, 0, 87, 0
2, 398247, Note_on_c, 0, 71, 0
2, 398293, Note_on_c, 0, 75, 109
2, 398293, Note_on_c, 0, 90, 110
2, 398303, Note_on_c, 0, 88, 0
2, 398305, Note_on_c, 0, 73, 0
2, 398327, Note_on_c, 0, 90, 0
2, 398350, Control_c, 0, 64, 63
2, 398355, Control_c, 0, 64, 0
2, 398365, Note_on_c, 0, 75, 0
2, 398375, Note_on_c, 0, 93, 93
2, 398376, Note_on_c, 0, 69, 87
2, 398377, Note_on_c, 0, 78, 125
2, 398377, Note_on_c, 0, 73, 110
2, 398383, Note_on_c, 0, 85, 99
2, 398390, Control_c, 0, 64, 63
2, 398395, Control_c, 0, 64, 127
2, 398420, Note_on_c, 0, 78, 0
2, 398421, Note_on_c, 0, 85, 0
2, 398436, Note_on_c, 0, 73, 0
2, 398449, Note_on_c, 0, 69, 0
2, 398457, Note_on_c, 0, 90, 105
2, 398470, Note_on_c, 0, 93, 0
2, 398528, Note_on_c, 0, 85, 103
2, 398548, Note_on_c, 0, 90, 0
2, 398577, Note_on_c, 0, 81, 91
2, 398580, Note_on_c, 0, 85, 0
2, 398610, Note_on_c, 0, 81, 0
2, 398645, Note_on_c, 0, 57, 116
2, 398648, Note_on_c, 0, 45, 116
2, 398648, Note_on_c, 0, 78, 114
2, 398654, Note_on_c, 0, 85, 93
2, 398700, Note_on_c, 0, 85, 0
2, 398706, Note_on_c, 0, 78, 0
2, 398710, Note_on_c, 0, 57, 0
2, 398714, Note_on_c, 0, 81, 92
2, 398746, Note_on_c, 0, 45, 0
2, 398780, Note_on_c, 0, 78, 108
2, 398794, Note_on_c, 0, 81, 0
2, 398839, Note_on_c, 0, 78, 0
2, 398841, Note_on_c, 0, 73, 101
2, 398858, Note_on_c, 0, 73, 0
2, 398914, Note_on_c, 0, 45, 101
2, 398918, Note_on_c, 0, 73, 107
2, 398918, Note_on_c, 0, 33, 112
2, 398920, Note_on_c, 0, 66, 108
2, 398952, Control_c, 0, 64, 63
2, 398961, Control_c, 0, 64, 0
2, 398973, Control_c, 0, 64, 63
2, 398977, Note_on_c, 0, 73, 0
2, 398978, Note_on_c, 0, 69, 103
2, 398993, Note_on_c, 0, 66, 0
2, 398993, Control_c, 0, 64, 127
2, 399050, Note_on_c, 0, 66, 108
2, 399052, Note_on_c, 0, 45, 0
2, 399071, Note_on_c, 0, 69, 0
2, 399074, Note_on_c, 0, 33, 0
2, 399101, Note_on_c, 0, 61, 107
2, 399137, Note_on_c, 0, 66, 0
2, 399139, Note_on_c, 0, 61, 0
2, 399152, Control_c, 0, 64, 63
2, 399155, Control_c, 0, 64, 0
2, 399178, Note_on_c, 0, 66, 116
2, 399178, Note_on_c, 0, 72, 103
2, 399179, Note_on_c, 0, 32, 106
2, 399180, Note_on_c, 0, 44, 127
2, 399181, Control_c, 0, 64, 63
2, 399188, Control_c, 0, 64, 127
2, 399198, Note_on_c, 0, 32, 0
2, 399201, Note_on_c, 0, 66, 0
2, 399202, Note_on_c, 0, 72, 0
2, 399206, Note_on_c, 0, 44, 0
2, 399336, Note_on_c, 0, 51, 99
2, 399344, Note_on_c, 0, 60, 107
2, 399416, Note_on_c, 0, 66, 99
2, 399419, Note_on_c, 0, 54, 96
2, 399426, Control_c, 0, 64, 63
2, 399432, Control_c, 0, 64, 0
2, 399457, Note_on_c, 0, 60, 0
2, 399497, Note_on_c, 0, 68, 100
2, 399497, Note_on_c, 0, 60, 94
2, 399503, Note_on_c, 0, 51, 0
2, 399508, Note_on_c, 0, 66, 0
2, 399510, Note_on_c, 0, 54, 0
2, 399554, Note_on_c, 0, 68, 0
2, 399562, Note_on_c, 0, 54, 101
2, 399563, Note_on_c, 0, 60, 0
2, 399563, Note_on_c, 0, 66, 101
2, 399593, Control_c, 0, 64, 63
2, 399594, Control_c, 0, 64, 127
2, 399630, Note_on_c, 0, 68, 96
2, 399631, Note_on_c, 0, 60, 79
2, 399634, Note_on_c, 0, 54, 0
2, 399637, Note_on_c, 0, 66, 0
2, 399691, Note_on_c, 0, 68, 0
2, 399694, Note_on_c, 0, 72, 85
2, 399694, Note_on_c, 0, 63, 103
2, 399706, Note_on_c, 0, 60, 0
2, 399752, Note_on_c, 0, 72, 0
2, 399752, Note_on_c, 0, 63, 0
2, 399759, Note_on_c, 0, 66, 98
2, 399763, Note_on_c, 0, 78, 98
2, 399792, Note_on_c, 0, 66, 0
2, 399800, Note_on_c, 0, 78, 0
2, 399824, Note_on_c, 0, 63, 94
2, 399827, Note_on_c, 0, 72, 92
2, 399886, Note_on_c, 0, 72, 0
2, 399894, Note_on_c, 0, 78, 104
2, 399900, Note_on_c, 0, 66, 96
2, 399909, Note_on_c, 0, 63, 0
2, 399959, Note_on_c, 0, 80, 104
2, 399962, Note_on_c, 0, 72, 98
2, 399967, Note_on_c, 0, 66, 0
2, 399968, Note_on_c, 0, 78, 0
2, 399991, Note_on_c, 0, 80, 0
2, 400036, Control_c, 0, 64, 63
2, 400039, Control_c, 0, 64, 0
2, 400047, Note_on_c, 0, 75, 115
2, 400047, Note_on_c, 0, 84, 103
2, 400055, Note_on_c, 0, 72, 0
2, 400064, Control_c, 0, 64, 63
2, 400069, Control_c, 0, 64, 127
2, 400085, Note_on_c, 0, 75, 0
2, 400136, Note_on_c, 0, 92, 110
2, 400146, Note_on_c, 0, 84, 0
2, 400202, Note_on_c, 0, 90, 107
2, 400221, Note_on_c, 0, 92, 0
2, 400264, Note_on_c, 0, 90, 0
2, 400268, Note_on_c, 0, 99, 100
2, 400307, Note_on_c, 0, 99, 0
2, 400341, Note_on_c, 0, 68, 124
2, 400344, Note_on_c, 0, 56, 116
2, 400346, Note_on_c, 0, 84, 84
2, 400367, Note_on_c, 0, 68, 0
2, 400377, Note_on_c, 0, 84, 0
2, 400389, Note_on_c, 0, 56, 0
2, 400422, Note_on_c, 0, 80, 110
2, 400490, Note_on_c, 0, 78, 107
2, 400498, Note_on_c, 0, 80, 0
2, 400538, Note_on_c, 0, 78, 0
2, 400551, Note_on_c, 0, 87, 106
2, 400582, Note_on_c, 0, 87, 0
2, 400583, Control_c, 0, 64, 63
2, 400586, Control_c, 0, 64, 0
2, 400606, Control_c, 0, 64, 63
2, 400613, Control_c, 0, 64, 127
2, 400622, Note_on_c, 0, 56, 121
2, 400623, Note_on_c, 0, 44, 120
2, 400624, Note_on_c, 0, 72, 104
2, 400645, Note_on_c, 0, 56, 0
2, 400654, Note_on_c, 0, 72, 0
2, 400655, Note_on_c, 0, 44, 0
2, 400708, Note_on_c, 0, 68, 97
2, 400774, Note_on_c, 0, 66, 108
2, 400796, Note_on_c, 0, 68, 0
2, 400834, Note_on_c, 0, 75, 100
2, 400842, Note_on_c, 0, 66, 0
2, 400868, Note_on_c, 0, 75, 0
2, 400900, Control_c, 0, 64, 63
2, 400903, Control_c, 0, 64, 0
2, 400923, Note_on_c, 0, 68, 108
2, 400924, Note_on_c, 0, 76, 107
2, 400924, Note_on_c, 0, 49, 125
2, 400924, Note_on_c, 0, 37, 114
2, 400925, Note_on_c, 0, 73, 110
2, 400927, Note_on_c, 0, 64, 81
2, 400936, Control_c, 0, 64, 63
2, 400937, Control_c, 0, 64, 127
2, 400943, Note_on_c, 0, 64, 0
2, 400945, Note_on_c, 0, 68, 0
2, 400949, Note_on_c, 0, 73, 0
2, 400951, Note_on_c, 0, 76, 0
2, 400957, Note_on_c, 0, 37, 0
2, 400967, Note_on_c, 0, 49, 0
2, 401125, Note_on_c, 0, 73, 101
2, 401126, Note_on_c, 0, 64, 80
2, 401196, Note_on_c, 0, 66, 96
2, 401202, Note_on_c, 0, 75, 104
2, 401217, Note_on_c, 0, 73, 0
2, 401219, Note_on_c, 0, 64, 0
2, 401261, Note_on_c, 0, 68, 108
2, 401273, Note_on_c, 0, 76, 83
2, 401274, Note_on_c, 0, 75, 0
2, 401294, Note_on_c, 0, 66, 0
2, 401334, Note_on_c, 0, 78, 108
2, 401335, Note_on_c, 0, 70, 103
2, 401339, Note_on_c, 0, 76, 0
2, 401361, Note_on_c, 0, 68, 0
2, 401369, Control_c, 0, 64, 63
2, 401372, Control_c, 0, 64, 0
2, 401403, Note_on_c, 0, 80, 107
2, 401408, Note_on_c, 0, 72, 102
2, 401418, Note_on_c, 0, 70, 0
2, 401420, Note_on_c, 0, 78, 0
2, 401429, Control_c, 0, 64, 63
2, 401431, Control_c, 0, 64, 127
2, 401466, Note_on_c, 0, 82, 105
2, 401469, Note_on_c, 0, 73, 110
2, 401484, Note_on_c, 0, 80, 0
2, 401485, Note_on_c, 0, 72, 0
2, 401516, Note_on_c, 0, 82, 0
2, 401537, Note_on_c, 0, 75, 110
2, 401539, Note_on_c, 0, 84, 91
2, 401555, Note_on_c, 0, 73, 0
2, 401569, Control_c, 0, 64, 63
2, 401571, Control_c, 0, 64, 0
2, 401600, Note_on_c, 0, 76, 97
2, 401600, Note_on_c, 0, 85, 109
2, 401612, Note_on_c, 0, 84, 0
2, 401620, Note_on_c, 0, 75, 0
2, 401669, Note_on_c, 0, 87, 106
2, 401674, Control_c, 0, 64, 63
2, 401675, Control_c, 0, 64, 127
2, 401678, Note_on_c, 0, 72, 92
2, 401693, Note_on_c, 0, 85, 0
2, 401700, Note_on_c, 0, 76, 0
2, 401727, Note_on_c, 0, 88, 102
2, 401729, Note_on_c, 0, 73, 96
2, 401743, Note_on_c, 0, 72, 0
2, 401748, Note_on_c, 0, 87, 0
2, 401774, Note_on_c, 0, 73, 0
2, 401783, Control_c, 0, 64, 63
2, 401785, Control_c, 0, 64, 0
2, 401805, Note_on_c, 0, 88, 0
2, 401810, Note_on_c, 0, 67, 98
2, 401810, Note_on_c, 0, 76, 109
2, 401812, Control_c, 0, 64, 63
2, 401812, Note_on_c, 0, 71, 94
2, 401815, Note_on_c, 0, 91, 107
2, 401816, Control_c, 0, 64, 127
2, 401817, Note_on_c, 0, 83, 98
2, 401842, Note_on_c, 0, 76, 0
2, 401845, Note_on_c, 0, 71, 0
2, 401856, Note_on_c, 0, 67, 0
2, 401878, Note_on_c, 0, 83, 0
2, 401901, Note_on_c, 0, 88, 91
2, 401905, Note_on_c, 0, 91, 0
2, 401912, Note_on_c, 0, 83, 35
2, 401931, Note_on_c, 0, 83, 0
2, 401971, Note_on_c, 0, 83, 86
2, 401985, Note_on_c, 0, 88, 0
2, 402033, Note_on_c, 0, 79, 85
2, 402038, Note_on_c, 0, 83, 0
2, 402064, Note_on_c, 0, 79, 0
2, 402110, Note_on_c, 0, 55, 113
2, 402112, Note_on_c, 0, 83, 108
2, 402112, Note_on_c, 0, 43, 114
2, 402112, Note_on_c, 0, 76, 109
2, 402154, Note_on_c, 0, 76, 0
2, 402175, Note_on_c, 0, 55, 0
2, 402182, Note_on_c, 0, 79, 97
2, 402198, Note_on_c, 0, 83, 0
2, 402212, Note_on_c, 0, 43, 0
2, 402254, Note_on_c, 0, 76, 104
2, 402274, Note_on_c, 0, 79, 0
2, 402313, Note_on_c, 0, 71, 98
2, 402314, Note_on_c, 0, 76, 0
2, 402342, Note_on_c, 0, 71, 0
2, 402390, Note_on_c, 0, 43, 114
2, 402393, Note_on_c, 0, 31, 112
2, 402396, Note_on_c, 0, 64, 100
2, 402398, Note_on_c, 0, 71, 94
2, 402455, Note_on_c, 0, 64, 0
2, 402460, Note_on_c, 0, 67, 100
2, 402471, Note_on_c, 0, 71, 0
2, 402479, Note_on_c, 0, 43, 0
2, 402514, Note_on_c, 0, 31, 0
2, 402536, Note_on_c, 0, 64, 107
2, 402557, Note_on_c, 0, 67, 0
2, 402591, Note_on_c, 0, 59, 98
2, 402617, Note_on_c, 0, 64, 0
2, 402632, Note_on_c, 0, 59, 0
2, 402667, Control_c, 0, 64, 63
2, 402671, Control_c, 0, 64, 0
2, 402689, Note_on_c, 0, 42, 118
2, 402689, Note_on_c, 0, 64, 113
2, 402692, Note_on_c, 0, 30, 116
2, 402692, Note_on_c, 0, 70, 109
2, 402697, Note_on_c, 0, 58, 97
2, 402734, Control_c, 0, 64, 63
2, 402735, Control_c, 0, 64, 127
2, 402740, Note_on_c, 0, 58, 0
2, 402746, Note_on_c, 0, 70, 0
2, 402755, Note_on_c, 0, 30, 0
2, 402760, Note_on_c, 0, 64, 0
2, 402770, Note_on_c, 0, 42, 0
2, 402838, Control_c, 0, 64, 63
2, 402839, Control_c, 0, 64, 0
2, 402889, Note_on_c, 0, 58, 106
2, 402910, Note_on_c, 0, 49, 97
2, 402964, Note_on_c, 0, 61, 94
2, 402975, Note_on_c, 0, 52, 89
2, 402976, Control_c, 0, 64, 127
2, 402984, Note_on_c, 0, 58, 0
2, 403035, Note_on_c, 0, 49, 0
2, 403045, Note_on_c, 0, 64, 91
2, 403046, Note_on_c, 0, 58, 96
2, 403052, Note_on_c, 0, 61, 0
2, 403055, Note_on_c, 0, 52, 0
2, 403081, Note_on_c, 0, 58, 0
2, 403097, Note_on_c, 0, 64, 0
2, 403107, Note_on_c, 0, 61, 99
2, 403129, Note_on_c, 0, 52, 14
2, 403150, Note_on_c, 0, 61, 0
2, 403159, Note_on_c, 0, 52, 0
2, 403177, Note_on_c, 0, 64, 83
2, 403181, Note_on_c, 0, 58, 94
2, 403237, Note_on_c, 0, 61, 104
2, 403240, Note_on_c, 0, 64, 0
2, 403241, Note_on_c, 0, 70, 101
2, 403243, Note_on_c, 0, 58, 0
2, 403297, Note_on_c, 0, 61, 0
2, 403303, Note_on_c, 0, 64, 84
2, 403312, Note_on_c, 0, 70, 0
2, 403314, Note_on_c, 0, 73, 93
2, 403351, Note_on_c, 0, 73, 0
2, 403358, Note_on_c, 0, 64, 0
2, 403376, Note_on_c, 0, 70, 97
2, 403377, Note_on_c, 0, 61, 80
2, 403436, Note_on_c, 0, 70, 0
2, 403441, Note_on_c, 0, 73, 93
2, 403450, Note_on_c, 0, 64, 84
2, 403478, Note_on_c, 0, 61, 0
2, 403506, Note_on_c, 0, 76, 93
2, 403507, Note_on_c, 0, 73, 0
2, 403517, Note_on_c, 0, 70, 112
2, 403520, Note_on_c, 0, 64, 0
2, 403540, Note_on_c, 0, 76, 0
2, 403570, Note_on_c, 0, 70, 0
2, 403599, Note_on_c, 0, 82, 108
2, 403603, Note_on_c, 0, 73, 107
2, 403628, Note_on_c, 0, 73, 0
2, 403701, Note_on_c, 0, 92, 109
2, 403720, Note_on_c, 0, 82, 0
2, 403779, Note_on_c, 0, 90, 105
2, 403794, Note_on_c, 0, 92, 0
2, 403834, Note_on_c, 0, 90, 0
2, 403851, Note_on_c, 0, 97, 90
2, 403883, Note_on_c, 0, 97, 0
2, 403935, Control_c, 0, 64, 63
2, 403936, Note_on_c, 0, 82, 106
2, 403940, Control_c, 0, 64, 0
2, 403942, Note_on_c, 0, 66, 118
2, 403945, Note_on_c, 0, 54, 114
2, 403969, Control_c, 0, 64, 63
2, 403972, Control_c, 0, 64, 127
2, 404000, Note_on_c, 0, 82, 0
2, 404024, Note_on_c, 0, 80, 105
2, 404025, Note_on_c, 0, 66, 0
2, 404067, Note_on_c, 0, 54, 0
2, 404094, Note_on_c, 0, 78, 104
2, 404104, Note_on_c, 0, 80, 0
2, 404152, Note_on_c, 0, 85, 109
2, 404157, Note_on_c, 0, 78, 0
2, 404188, Note_on_c, 0, 85, 0
2, 404232, Note_on_c, 0, 54, 119
2, 404236, Note_on_c, 0, 42, 116
2, 404240, Note_on_c, 0, 70, 110
2, 404259, Note_on_c, 0, 70, 0
2, 404282, Note_on_c, 0, 54, 0
2, 404303, Note_on_c, 0, 68, 105
2, 404329, Note_on_c, 0, 42, 0
2, 404376, Note_on_c, 0, 66, 109
2, 404392, Note_on_c, 0, 68, 0
2, 404432, Note_on_c, 0, 73, 109
2, 404449, Note_on_c, 0, 66, 0
2, 404477, Control_c, 0, 64, 63
2, 404480, Control_c, 0, 64, 0
2, 404483, Note_on_c, 0, 73, 0
2, 404521, Note_on_c, 0, 47, 122
2, 404522, Note_on_c, 0, 66, 104
2, 404523, Note_on_c, 0, 35, 124
2, 404523, Note_on_c, 0, 75, 105
2, 404524, Note_on_c, 0, 71, 94
2, 404524, Note_on_c, 0, 63, 106
2, 404531, Control_c, 0, 64, 63
2, 404533, Control_c, 0, 64, 127
2, 404556, Note_on_c, 0, 66, 0
2, 404564, Note_on_c, 0, 35, 0
2, 404566, Note_on_c, 0, 63, 0
2, 404573, Note_on_c, 0, 75, 0
2, 404575, Note_on_c, 0, 71, 0
2, 404580, Note_on_c, 0, 47, 0
2, 404745, Note_on_c, 0, 63, 77
2, 404757, Note_on_c, 0, 71, 86
2, 404758, Note_on_c, 0, 66, 96
2, 404768, Control_c, 0, 64, 63
2, 404785, Note_on_c, 0, 63, 0
2, 404787, Control_c, 0, 64, 0
2, 404791, Note_on_c, 0, 66, 0
2, 404804, Note_on_c, 0, 71, 0
2, 404830, Note_on_c, 0, 63, 72
2, 404836, Note_on_c, 0, 66, 83
2, 404837, Note_on_c, 0, 71, 68
2, 404837, Control_c, 0, 64, 63
2, 404859, Control_c, 0, 64, 127
2, 404878, Control_c, 0, 64, 63
2, 404894, Control_c, 0, 64, 0
2, 404910, Note_on_c, 0, 63, 0
2, 404910, Note_on_c, 0, 64, 61
2, 404916, Note_on_c, 0, 72, 84
2, 404918, Note_on_c, 0, 71, 0
2, 404918, Note_on_c, 0, 67, 80
2, 404929, Note_on_c, 0, 66, 0
2, 404961, Note_on_c, 0, 72, 0
2, 404983, Note_on_c, 0, 73, 100
2, 404986, Note_on_c, 0, 65, 75
2, 404989, Note_on_c, 0, 68, 80
2, 404993, Note_on_c, 0, 67, 0
2, 404995, Note_on_c, 0, 64, 0
2, 405051, Note_on_c, 0, 74, 89
2, 405053, Note_on_c, 0, 66, 88
2, 405056, Control_c, 0, 64, 63
2, 405056, Note_on_c, 0, 69, 83
2, 405058, Note_on_c, 0, 68, 0
2, 405059, Note_on_c, 0, 73, 0
2, 405060, Control_c, 0, 64, 127
2, 405074, Note_on_c, 0, 65, 0
2, 405091, Note_on_c, 0, 74, 0
2, 405116, Note_on_c, 0, 67, 84
2, 405117, Note_on_c, 0, 69, 0
2, 405119, Control_c, 0, 64, 63
2, 405121, Note_on_c, 0, 75, 98
2, 405122, Note_on_c, 0, 70, 90
2, 405122, Control_c, 0, 64, 0
2, 405124, Note_on_c, 0, 66, 0
2, 405176, Note_on_c, 0, 70, 0
2, 405182, Control_c, 0, 64, 63
2, 405184, Control_c, 0, 64, 127
2, 405188, Note_on_c, 0, 68, 96
2, 405191, Note_on_c, 0, 76, 97
2, 405191, Note_on_c, 0, 71, 89
2, 405203, Note_on_c, 0, 67, 0
2, 405209, Note_on_c, 0, 75, 0
2, 405226, Note_on_c, 0, 71, 0
2, 405231, Note_on_c, 0, 76, 0
2, 405252, Note_on_c, 0, 69, 90
2, 405254, Note_on_c, 0, 77, 108
2, 405260, Note_on_c, 0, 72, 88
2, 405277, Note_on_c, 0, 68, 0
2, 405290, Note_on_c, 0, 72, 0
2, 405295, Note_on_c, 0, 77, 0
2, 405329, Note_on_c, 0, 78, 109
2, 405329, Note_on_c, 0, 70, 109
2, 405329, Note_on_c, 0, 73, 110
2, 405338, Control_c, 0, 64, 63
2, 405342, Control_c, 0, 64, 0
2, 405345, Note_on_c, 0, 69, 0
2, 405361, Note_on_c, 0, 73, 0
2, 405367, Note_on_c, 0, 78, 0
2, 405397, Note_on_c, 0, 78, 88
2, 405398, Note_on_c, 0, 66, 113
2, 405400, Note_on_c, 0, 70, 0
2, 405405, Note_on_c, 0, 76, 84
2, 405420, Note_on_c, 0, 76, 0
2, 405432, Note_on_c, 0, 78, 0
2, 405434, Note_on_c, 0, 66, 0
2, 405482, Note_on_c, 0, 71, 109
2, 405482, Note_on_c, 0, 83, 104
2, 405484, Note_on_c, 0, 75, 115
2, 405485, Note_on_c, 0, 59, 85
2, 405486, Control_c, 0, 64, 127
2, 405503, Note_on_c, 0, 75, 0
2, 405505, Note_on_c, 0, 71, 0
2, 405506, Note_on_c, 0, 59, 0
2, 405508, Note_on_c, 0, 83, 0
2, 405632, Note_on_c, 0, 75, 87
2, 405641, Note_on_c, 0, 83, 90
2, 405644, Note_on_c, 0, 78, 96
2, 405660, Note_on_c, 0, 75, 0
2, 405660, Note_on_c, 0, 78, 0
2, 405672, Note_on_c, 0, 83, 0
2, 405694, Note_on_c, 0, 83, 73
2, 405697, Control_c, 0, 64, 63
2, 405700, Note_on_c, 0, 78, 90
2, 405701, Note_on_c, 0, 75, 78
2, 405713, Control_c, 0, 64, 0
2, 405762, Note_on_c, 0, 78, 0
2, 405764, Note_on_c, 0, 83, 0
2, 405772, Note_on_c, 0, 76, 81
2, 405775, Note_on_c, 0, 79, 84
2, 405776, Note_on_c, 0, 75, 0
2, 405776, Note_on_c, 0, 84, 83
2, 405810, Note_on_c, 0, 84, 0
2, 405839, Note_on_c, 0, 85, 96
2, 405840, Note_on_c, 0, 77, 92
2, 405843, Note_on_c, 0, 80, 85
2, 405846, Note_on_c, 0, 79, 0
2, 405853, Note_on_c, 0, 76, 0
2, 405893, Note_on_c, 0, 80, 0
2, 405907, Note_on_c, 0, 78, 95
2, 405907, Note_on_c, 0, 86, 94
2, 405910, Note_on_c, 0, 85, 0
2, 405911, Note_on_c, 0, 81, 83
2, 405931, Note_on_c, 0, 77, 0
2, 405952, Note_on_c, 0, 86, 0
2, 405969, Note_on_c, 0, 79, 93
2, 405975, Note_on_c, 0, 87, 106
2, 405977, Note_on_c, 0, 82, 98
2, 405985, Note_on_c, 0, 78, 0
2, 405990, Note_on_c, 0, 81, 0
2, 406037, Note_on_c, 0, 82, 0
2, 406042, Note_on_c, 0, 88, 99
2, 406043, Note_on_c, 0, 87, 0
2, 406045, Note_on_c, 0, 80, 107
2, 406045, Note_on_c, 0, 83, 92
2, 406060, Note_on_c, 0, 79, 0
2, 406081, Note_on_c, 0, 83, 0
2, 406082, Note_on_c, 0, 88, 0
2, 406103, Note_on_c, 0, 81, 100
2, 406106, Note_on_c, 0, 89, 109
2, 406108, Note_on_c, 0, 84, 102
2, 406129, Note_on_c, 0, 80, 0
2, 406139, Note_on_c, 0, 89, 0
2, 406139, Note_on_c, 0, 84, 0
2, 406174, Note_on_c, 0, 82, 113
2, 406177, Note_on_c, 0, 90, 106
2, 406177, Note_on_c, 0, 85, 108
2, 406186, Note_on_c, 0, 81, 0
2, 406203, Note_on_c, 0, 85, 0
2, 406215, Note_on_c, 0, 90, 0
2, 406240, Note_on_c, 0, 90, 86
2, 406241, Note_on_c, 0, 88, 101
2, 406242, Note_on_c, 0, 78, 112
2, 406243, Note_on_c, 0, 82, 0
2, 406274, Note_on_c, 0, 88, 0
2, 406285, Note_on_c, 0, 90, 0
2, 406321, Note_on_c, 0, 83, 116
2, 406325, Note_on_c, 0, 95, 111
2, 406328, Note_on_c, 0, 87, 116
2, 406330, Control_c, 0, 64, 63
2, 406330, Control_c, 0, 64, 127
2, 406340, Note_on_c, 0, 87, 0
2, 406345, Note_on_c, 0, 95, 0
2, 406354, Note_on_c, 0, 78, 0
2, 406377, Note_on_c, 0, 83, 0
2, 406518, Note_on_c, 0, 54, 121
2, 406578, Note_on_c, 0, 54, 0
2, 406617, Note_on_c, 0, 54, 118
2, 406704, Note_on_c, 0, 54, 0
2, 406705, Note_on_c, 0, 35, 120
2, 406707, Note_on_c, 0, 64, 96
2, 406709, Control_c, 0, 64, 63
2, 406712, Control_c, 0, 64, 0
2, 406737, Control_c, 0, 64, 63
2, 406747, Control_c, 0, 64, 127
2, 406786, Note_on_c, 0, 59, 85
2, 406813, Note_on_c, 0, 64, 0
2, 406819, Note_on_c, 0, 35, 0
2, 406852, Note_on_c, 0, 63, 107
2, 406853, Note_on_c, 0, 59, 0
2, 406877, Note_on_c, 0, 63, 0
2, 406911, Note_on_c, 0, 66, 113
2, 406959, Note_on_c, 0, 66, 0
2, 406980, Note_on_c, 0, 76, 109
2, 406981, Note_on_c, 0, 54, 119
2, 407038, Note_on_c, 0, 71, 97
2, 407044, Note_on_c, 0, 54, 0
2, 407059, Note_on_c, 0, 76, 0
2, 407095, Note_on_c, 0, 71, 0
2, 407114, Note_on_c, 0, 75, 112
2, 407143, Note_on_c, 0, 75, 0
2, 407177, Note_on_c, 0, 78, 118
2, 407213, Note_on_c, 0, 78, 0
2, 407237, Note_on_c, 0, 59, 79
2, 407242, Note_on_c, 0, 63, 103
2, 407244, Note_on_c, 0, 71, 109
2, 407246, Note_on_c, 0, 88, 112
2, 407319, Note_on_c, 0, 83, 90
2, 407330, Note_on_c, 0, 88, 0
2, 407342, Note_on_c, 0, 71, 0
2, 407375, Note_on_c, 0, 63, 0
2, 407388, Note_on_c, 0, 87, 109
2, 407389, Note_on_c, 0, 83, 0
2, 407397, Note_on_c, 0, 59, 0
2, 407431, Note_on_c, 0, 87, 0
2, 407440, Note_on_c, 0, 78, 97
2, 407454, Note_on_c, 0, 78, 0
2, 407512, Note_on_c, 0, 76, 116
2, 407576, Note_on_c, 0, 71, 87
2, 407603, Note_on_c, 0, 76, 0
2, 407642, Note_on_c, 0, 71, 0
2, 407644, Note_on_c, 0, 75, 113
2, 407690, Note_on_c, 0, 75, 0
2, 407705, Note_on_c, 0, 66, 107
2, 407730, Note_on_c, 0, 66, 0
2, 407787, Note_on_c, 0, 47, 111
2, 407788, Note_on_c, 0, 64, 114
2, 407789, Note_on_c, 0, 35, 107
2, 407843, Control_c, 0, 64, 63
2, 407848, Control_c, 0, 64, 0
2, 407866, Note_on_c, 0, 59, 82
2, 407885, Control_c, 0, 64, 63
2, 407891, Control_c, 0, 64, 127
2, 407896, Note_on_c, 0, 64, 0
2, 407907, Note_on_c, 0, 47, 0
2, 407932, Note_on_c, 0, 63, 109
2, 407945, Note_on_c, 0, 59, 0
2, 407984, Note_on_c, 0, 54, 114
2, 408010, Note_on_c, 0, 63, 0
2, 408070, Control_c, 0, 64, 63
2, 408072, Control_c, 0, 64, 0
2, 408077, Note_on_c, 0, 33, 100
2, 408083, Note_on_c, 0, 35, 0
2, 408088, Note_on_c, 0, 45, 118
2, 408091, Note_on_c, 0, 63, 107
2, 408091, Note_on_c, 0, 66, 109
2, 408094, Note_on_c, 0, 60, 94
2, 408155, Control_c, 0, 64, 63
2, 408156, Control_c, 0, 64, 127
2, 408178, Note_on_c, 0, 54, 0
2, 408179, Note_on_c, 0, 60, 0
2, 408188, Note_on_c, 0, 63, 0
2, 408189, Note_on_c, 0, 33, 0
2, 408193, Note_on_c, 0, 66, 0
2, 408205, Note_on_c, 0, 45, 0
2, 408308, Control_c, 0, 64, 63
2, 408310, Control_c, 0, 64, 0
2, 408327, Note_on_c, 0, 63, 99
2, 408328, Note_on_c, 0, 60, 80
2, 408328, Note_on_c, 0, 66, 96
2, 408364, Control_c, 0, 64, 63
2, 408366, Control_c, 0, 64, 127
2, 408374, Note_on_c, 0, 66, 0
2, 408376, Note_on_c, 0, 60, 0
2, 408377, Note_on_c, 0, 63, 0
2, 408403, Note_on_c, 0, 60, 85
2, 408405, Note_on_c, 0, 63, 76
2, 408411, Note_on_c, 0, 66, 94
2, 408449, Note_on_c, 0, 63, 0
2, 408484, Note_on_c, 0, 66, 0
2, 408487, Note_on_c, 0, 59, 68
2, 408490, Note_on_c, 0, 60, 0
2, 408492, Note_on_c, 0, 67, 76
2, 408554, Note_on_c, 0, 58, 79
2, 408555, Note_on_c, 0, 68, 90
2, 408558, Note_on_c, 0, 59, 0
2, 408562, Note_on_c, 0, 67, 0
2, 408609, Note_on_c, 0, 58, 0
2, 408611, Note_on_c, 0, 68, 0
2, 408619, Note_on_c, 0, 57, 83
2, 408620, Note_on_c, 0, 69, 71
2, 408680, Note_on_c, 0, 70, 100
2, 408684, Note_on_c, 0, 69, 0
2, 408686, Note_on_c, 0, 56, 100
2, 408700, Note_on_c, 0, 57, 0
2, 408748, Note_on_c, 0, 55, 86
2, 408748, Note_on_c, 0, 71, 99
2, 408751, Note_on_c, 0, 56, 0
2, 408769, Control_c, 0, 64, 63
2, 408773, Control_c, 0, 64, 0
2, 408774, Note_on_c, 0, 70, 0
2, 408796, Control_c, 0, 64, 63
2, 408804, Control_c, 0, 64, 127
2, 408807, Note_on_c, 0, 74, 102
2, 408808, Note_on_c, 0, 54, 108
2, 408820, Note_on_c, 0, 71, 0
2, 408830, Note_on_c, 0, 55, 0
2, 408873, Note_on_c, 0, 54, 0
2, 408880, Control_c, 0, 64, 63
2, 408885, Note_on_c, 0, 45, 89
2, 408887, Control_c, 0, 64, 0
2, 408887, Note_on_c, 0, 72, 106
2, 408897, Control_c, 0, 64, 63
2, 408904, Control_c, 0, 64, 127
2, 408911, Note_on_c, 0, 74, 0
2, 408925, Note_on_c, 0, 72, 0
2, 408942, Note_on_c, 0, 72, 91
2, 408946, Note_on_c, 0, 48, 94
2, 408953, Note_on_c, 0, 45, 0
2, 408972, Note_on_c, 0, 72, 0
2, 408973, Control_c, 0, 64, 63
2, 408978, Control_c, 0, 64, 0
2, 408991, Control_c, 0, 64, 63
2, 408998, Control_c, 0, 64, 127
2, 409009, Note_on_c, 0, 48, 0
2, 409031, Note_on_c, 0, 63, 103
2, 409034, Note_on_c, 0, 60, 70
2, 409036, Note_on_c, 0, 66, 100
2, 409051, Note_on_c, 0, 63, 0
2, 409052, Note_on_c, 0, 60, 0
2, 409059, Note_on_c, 0, 66, 0
2, 409195, Note_on_c, 0, 72, 79
2, 409202, Note_on_c, 0, 78, 93
2, 409205, Note_on_c, 0, 75, 65
2, 409220, Note_on_c, 0, 75, 0
2, 409232, Note_on_c, 0, 72, 0
2, 409232, Note_on_c, 0, 78, 0
2, 409236, Control_c, 0, 64, 63
2, 409242, Control_c, 0, 64, 0
2, 409256, Note_on_c, 0, 78, 67
2, 409256, Note_on_c, 0, 72, 83
2, 409263, Note_on_c, 0, 75, 88
2, 409267, Control_c, 0, 64, 63
2, 409277, Control_c, 0, 64, 127
2, 409321, Note_on_c, 0, 75, 0
2, 409327, Note_on_c, 0, 79, 96
2, 409332, Note_on_c, 0, 71, 92
2, 409349, Note_on_c, 0, 72, 0
2, 409350, Note_on_c, 0, 78, 0
2, 409390, Note_on_c, 0, 80, 105
2, 409396, Note_on_c, 0, 70, 107
2, 409408, Note_on_c, 0, 79, 0
2, 409411, Note_on_c, 0, 71, 0
2, 409433, Note_on_c, 0, 80, 0
2, 409448, Note_on_c, 0, 81, 94
2, 409451, Note_on_c, 0, 70, 0
2, 409451, Note_on_c, 0, 69, 92
2, 409512, Note_on_c, 0, 82, 112
2, 409518, Note_on_c, 0, 68, 106
2, 409528, Note_on_c, 0, 81, 0
2, 409529, Note_on_c, 0, 69, 0
2, 409581, Note_on_c, 0, 67, 90
2, 409582, Control_c, 0, 64, 63
2, 409583, Note_on_c, 0, 68, 0
2, 409584, Note_on_c, 0, 83, 101
2, 409587, Control_c, 0, 64, 0
2, 409606, Note_on_c, 0, 82, 0
2, 409621, Control_c, 0, 64, 63
2, 409628, Control_c, 0, 64, 127
2, 409633, Note_on_c, 0, 83, 0
2, 409644, Note_on_c, 0, 86, 109
2, 409645, Note_on_c, 0, 66, 112
2, 409664, Note_on_c, 0, 67, 0
2, 409707, Note_on_c, 0, 66, 0
2, 409723, Note_on_c, 0, 84, 103
2, 409724, Note_on_c, 0, 57, 83
2, 409749, Note_on_c, 0, 86, 0
2, 409760, Note_on_c, 0, 84, 0
2, 409784, Note_on_c, 0, 84, 97
2, 409788, Note_on_c, 0, 60, 98
2, 409795, Note_on_c, 0, 57, 0
2, 409819, Note_on_c, 0, 84, 0
2, 409820, Control_c, 0, 64, 63
2, 409828, Note_on_c, 0, 60, 0
2, 409829, Control_c, 0, 64, 0
2, 409861, Control_c, 0, 64, 63
2, 409868, Control_c, 0, 64, 127
2, 409869, Note_on_c, 0, 72, 88
2, 409871, Note_on_c, 0, 75, 112
2, 409871, Note_on_c, 0, 78, 106
2, 409894, Note_on_c, 0, 72, 0
2, 409894, Note_on_c, 0, 75, 0
2, 409895, Note_on_c, 0, 78, 0
2, 410033, Control_c, 0, 64, 63
2, 410036, Control_c, 0, 64, 0
2, 410099, Note_on_c, 0, 59, 114
2, 410126, Control_c, 0, 64, 63
2, 410127, Control_c, 0, 64, 127
2, 410199, Note_on_c, 0, 59, 0
2, 410211, Note_on_c, 0, 60, 113
2, 410244, Note_on_c, 0, 60, 0
2, 410294, Note_on_c, 0, 39, 109
2, 410323, Note_on_c, 0, 71, 113
2, 410341, Control_c, 0, 64, 63
2, 410346, Control_c, 0, 64, 0
2, 410371, Control_c, 0, 64, 63
2, 410379, Control_c, 0, 64, 127
2, 410416, Note_on_c, 0, 66, 106
2, 410447, Note_on_c, 0, 71, 0
2, 410476, Note_on_c, 0, 69, 99
2, 410482, Note_on_c, 0, 66, 0
2, 410506, Note_on_c, 0, 69, 0
2, 410529, Note_on_c, 0, 72, 101
2, 410560, Note_on_c, 0, 72, 0
2, 410603, Note_on_c, 0, 83, 104
2, 410607, Note_on_c, 0, 51, 119
2, 410669, Note_on_c, 0, 39, 0
2, 410675, Note_on_c, 0, 78, 100
2, 410701, Note_on_c, 0, 51, 0
2, 410731, Note_on_c, 0, 83, 0
2, 410744, Note_on_c, 0, 78, 0
2, 410748, Note_on_c, 0, 81, 100
2, 410783, Note_on_c, 0, 81, 0
2, 410812, Note_on_c, 0, 84, 96
2, 410843, Note_on_c, 0, 84, 0
2, 410906, Note_on_c, 0, 95, 113
2, 410907, Note_on_c, 0, 66, 119
2, 410911, Note_on_c, 0, 59, 98
2, 410959, Note_on_c, 0, 66, 0
2, 410960, Note_on_c, 0, 59, 0
2, 411011, Note_on_c, 0, 90, 95
2, 411053, Note_on_c, 0, 95, 0
2, 411077, Note_on_c, 0, 93, 98
2, 411088, Note_on_c, 0, 90, 0
2, 411147, Note_on_c, 0, 84, 89
2, 411154, Note_on_c, 0, 93, 0
2, 411179, Note_on_c, 0, 84, 0
2, 411223, Note_on_c, 0, 83, 112
2, 411293, Note_on_c, 0, 78, 104
2, 411330, Note_on_c, 0, 83, 0
2, 411357, Note_on_c, 0, 81, 94
2, 411367, Note_on_c, 0, 78, 0
2, 411426, Note_on_c, 0, 81, 0
2, 411428, Note_on_c, 0, 72, 104
2, 411455, Note_on_c, 0, 72, 0
2, 411528, Note_on_c, 0, 71, 112
2, 411530, Note_on_c, 0, 51, 114
2, 411532, Note_on_c, 0, 39, 104
2, 411605, Control_c, 0, 64, 63
2, 411610, Control_c, 0, 64, 0
2, 411626, Note_on_c, 0, 66, 90
2, 411629, Control_c, 0, 64, 63
2, 411642, Control_c, 0, 64, 127
2, 411686, Note_on_c, 0, 69, 92
2, 411694, Note_on_c, 0, 51, 0
2, 411695, Note_on_c, 0, 66, 0
2, 411705, Note_on_c, 0, 39, 0
2, 411713, Note_on_c, 0, 71, 0
2, 411744, Note_on_c, 0, 59, 91
2, 411750, Note_on_c, 0, 69, 0
2, 411823, Note_on_c, 0, 40, 97
2, 411848, Control_c, 0, 64, 63
2, 411852, Control_c, 0, 64, 0
2, 411857, Note_on_c, 0, 52, 75
2, 411862, Note_on_c, 0, 67, 99
2, 411865, Note_on_c, 0, 64, 92
2, 411890, Control_c, 0, 64, 63
2, 411899, Control_c, 0, 64, 127
2, 411936, Note_on_c, 0, 64, 0
2, 411940, Note_on_c, 0, 67, 0
2, 411951, Note_on_c, 0, 59, 0
2, 411960, Note_on_c, 0, 40, 0
2, 411971, Note_on_c, 0, 52, 0
2, 412096, Note_on_c, 0, 59, 77
2, 412126, Note_on_c, 0, 59, 0
2, 412175, Note_on_c, 0, 59, 65
2, 412257, Control_c, 0, 64, 63
2, 412265, Control_c, 0, 64, 0
2, 412275, Note_on_c, 0, 59, 0
2, 412279, Note_on_c, 0, 52, 23
2, 412280, Note_on_c, 0, 55, 54
2, 412305, Control_c, 0, 64, 63
2, 412313, Control_c, 0, 64, 127
2, 412365, Note_on_c, 0, 60, 88
2, 412370, Note_on_c, 0, 40, 65
2, 412382, Note_on_c, 0, 52, 0
2, 412386, Note_on_c, 0, 55, 0
2, 412412, Note_on_c, 0, 40, 0
2, 412428, Note_on_c, 0, 60, 0
2, 412439, Note_on_c, 0, 52, 59
2, 412441, Note_on_c, 0, 67, 87
2, 412494, Note_on_c, 0, 52, 0
2, 412499, Note_on_c, 0, 67, 0
2, 412503, Note_on_c, 0, 55, 60
2, 412504, Note_on_c, 0, 59, 82
2, 412526, Note_on_c, 0, 55, 0
2, 412545, Note_on_c, 0, 59, 0
2, 412583, Note_on_c, 0, 54, 75
2, 412585, Note_on_c, 0, 58, 94
2, 412626, Control_c, 0, 64, 63
2, 412633, Control_c, 0, 64, 0
2, 412657, Note_on_c, 0, 66, 103
2, 412661, Control_c, 0, 64, 63
2, 412663, Note_on_c, 0, 42, 86
2, 412668, Note_on_c, 0, 58, 0
2, 412669, Control_c, 0, 64, 127
2, 412670, Note_on_c, 0, 54, 0
2, 412714, Note_on_c, 0, 42, 0
2, 412734, Note_on_c, 0, 54, 68
2, 412738, Note_on_c, 0, 73, 85
2, 412784, Note_on_c, 0, 54, 0
2, 412794, Note_on_c, 0, 73, 0
2, 412798, Note_on_c, 0, 64, 89
2, 412801, Note_on_c, 0, 66, 0
2, 412802, Note_on_c, 0, 58, 86
2, 412850, Note_on_c, 0, 58, 0
2, 412870, Note_on_c, 0, 62, 86
2, 412875, Note_on_c, 0, 59, 78
2, 412877, Note_on_c, 0, 64, 0
2, 412879, Control_c, 0, 64, 63
2, 412882, Control_c, 0, 64, 0
2, 412909, Control_c, 0, 64, 63
2, 412919, Control_c, 0, 64, 127
2, 412929, Note_on_c, 0, 59, 0
2, 412940, Note_on_c, 0, 62, 0
2, 412941, Note_on_c, 0, 47, 91
2, 412945, Note_on_c, 0, 67, 98
2, 412991, Note_on_c, 0, 47, 0
2, 413017, Note_on_c, 0, 74, 88
2, 413020, Note_on_c, 0, 59, 54
2, 413027, Note_on_c, 0, 67, 0
2, 413071, Note_on_c, 0, 74, 0
2, 413072, Note_on_c, 0, 59, 0
2, 413083, Note_on_c, 0, 66, 93
2, 413084, Note_on_c, 0, 62, 66
2, 413109, Note_on_c, 0, 62, 0
2, 413143, Note_on_c, 0, 66, 0
2, 413152, Control_c, 0, 64, 63
2, 413156, Control_c, 0, 64, 0
2, 413158, Note_on_c, 0, 65, 77
2, 413158, Note_on_c, 0, 61, 81
2, 413181, Control_c, 0, 64, 63
2, 413188, Control_c, 0, 64, 127
2, 413212, Note_on_c, 0, 65, 0
2, 413230, Note_on_c, 0, 73, 108
2, 413237, Note_on_c, 0, 49, 99
2, 413238, Note_on_c, 0, 61, 0
2, 413289, Note_on_c, 0, 49, 0
2, 413313, Note_on_c, 0, 80, 101
2, 413314, Note_on_c, 0, 61, 76
2, 413344, Note_on_c, 0, 61, 0
2, 413368, Note_on_c, 0, 73, 0
2, 413371, Note_on_c, 0, 80, 0
2, 413376, Note_on_c, 0, 71, 102
2, 413383, Note_on_c, 0, 65, 76
2, 413419, Note_on_c, 0, 65, 0
2, 413455, Note_on_c, 0, 69, 88
2, 413455, Note_on_c, 0, 66, 92
2, 413459, Note_on_c, 0, 71, 0
2, 413475, Control_c, 0, 64, 63
2, 413479, Control_c, 0, 64, 0
2, 413506, Note_on_c, 0, 66, 0
2, 413509, Control_c, 0, 64, 63
2, 413516, Control_c, 0, 64, 127
2, 413526, Note_on_c, 0, 69, 0
2, 413534, Note_on_c, 0, 78, 109
2, 413535, Note_on_c, 0, 61, 84
2, 413612, Note_on_c, 0, 61, 0
2, 413614, Note_on_c, 0, 71, 77
2, 413619, Note_on_c, 0, 68, 83
2, 413636, Note_on_c, 0, 78, 0
2, 413670, Note_on_c, 0, 61, 86
2, 413674, Note_on_c, 0, 68, 0
2, 413675, Note_on_c, 0, 77, 107
2, 413691, Note_on_c, 0, 71, 0
2, 413730, Note_on_c, 0, 77, 0
2, 413761, Note_on_c, 0, 69, 70
2, 413762, Note_on_c, 0, 78, 103
2, 413766, Note_on_c, 0, 66, 78
2, 413769, Control_c, 0, 64, 63
2, 413771, Note_on_c, 0, 61, 0
2, 413771, Note_on_c, 0, 73, 95
2, 413773, Control_c, 0, 64, 0
2, 413806, Control_c, 0, 64, 63
2, 413807, Note_on_c, 0, 73, 0
2, 413808, Note_on_c, 0, 78, 0
2, 413813, Control_c, 0, 64, 127
2, 413854, Note_on_c, 0, 69, 0
2, 413882, Note_on_c, 0, 66, 0
2, 413925, Note_on_c, 0, 73, 96
2, 413959, Control_c, 0, 64, 63
2, 413960, Note_on_c, 0, 73, 0
2, 413961, Control_c, 0, 64, 0
2, 413983, Note_on_c, 0, 73, 80
2, 414061, Note_on_c, 0, 69, 72
2, 414064, Control_c, 0, 64, 63
2, 414065, Control_c, 0, 64, 127
2, 414074, Note_on_c, 0, 66, 63
2, 414091, Note_on_c, 0, 73, 0
2, 414139, Note_on_c, 0, 74, 92
2, 414142, Note_on_c, 0, 54, 81
2, 414149, Note_on_c, 0, 69, 0
2, 414154, Note_on_c, 0, 66, 0
2, 414202, Note_on_c, 0, 54, 0
2, 414211, Note_on_c, 0, 81, 84
2, 414212, Note_on_c, 0, 66, 70
2, 414218, Note_on_c, 0, 74, 0
2, 414245, Note_on_c, 0, 66, 0
2, 414262, Note_on_c, 0, 81, 0
2, 414269, Note_on_c, 0, 73, 103
2, 414277, Note_on_c, 0, 69, 36
2, 414302, Note_on_c, 0, 69, 0
2, 414319, Note_on_c, 0, 73, 0
2, 414338, Control_c, 0, 64, 63
2, 414341, Note_on_c, 0, 72, 92
2, 414342, Note_on_c, 0, 68, 98
2, 414345, Control_c, 0, 64, 0
2, 414355, Control_c, 0, 64, 63
2, 414367, Control_c, 0, 64, 127
2, 414406, Note_on_c, 0, 72, 0
2, 414408, Note_on_c, 0, 80, 104
2, 414420, Note_on_c, 0, 68, 0
2, 414420, Note_on_c, 0, 56, 98
2, 414476, Note_on_c, 0, 56, 0
2, 414482, Note_on_c, 0, 87, 108
2, 414485, Note_on_c, 0, 68, 88
2, 414504, Note_on_c, 0, 80, 0
2, 414524, Note_on_c, 0, 68, 0
2, 414543, Note_on_c, 0, 78, 100
2, 414546, Note_on_c, 0, 87, 0
2, 414548, Note_on_c, 0, 72, 84
2, 414577, Note_on_c, 0, 72, 0
2, 414611, Control_c, 0, 64, 63
2, 414614, Note_on_c, 0, 76, 92
2, 414622, Note_on_c, 0, 73, 101
2, 414635, Note_on_c, 0, 78, 0
2, 414641, Control_c, 0, 64, 127
2, 414678, Note_on_c, 0, 81, 99
2, 414684, Note_on_c, 0, 76, 0
2, 414695, Note_on_c, 0, 73, 0
2, 414698, Note_on_c, 0, 61, 106
2, 414762, Note_on_c, 0, 61, 0
2, 414763, Note_on_c, 0, 88, 104
2, 414766, Note_on_c, 0, 73, 96
2, 414775, Note_on_c, 0, 81, 0
2, 414803, Note_on_c, 0, 73, 0
2, 414821, Note_on_c, 0, 88, 0
2, 414830, Note_on_c, 0, 76, 88
2, 414830, Note_on_c, 0, 80, 101
2, 414860, Note_on_c, 0, 76, 0
2, 414874, Note_on_c, 0, 80, 0
2, 414904, Note_on_c, 0, 79, 85
2, 414904, Control_c, 0, 64, 63
2, 414905, Note_on_c, 0, 75, 104
2, 414909, Control_c, 0, 64, 0
2, 414932, Control_c, 0, 64, 63
2, 414943, Control_c, 0, 64, 127
2, 414971, Note_on_c, 0, 79, 0
2, 414971, Note_on_c, 0, 87, 109
2, 414980, Note_on_c, 0, 75, 0
2, 414982, Note_on_c, 0, 63, 108
2, 415038, Note_on_c, 0, 63, 0
2, 415046, Note_on_c, 0, 94, 113
2, 415051, Note_on_c, 0, 75, 89
2, 415070, Note_on_c, 0, 87, 0
2, 415089, Note_on_c, 0, 75, 0
2, 415116, Note_on_c, 0, 94, 0
2, 415117, Note_on_c, 0, 85, 99
2, 415120, Note_on_c, 0, 79, 84
2, 415151, Note_on_c, 0, 79, 0
2, 415186, Note_on_c, 0, 83, 90
2, 415187, Note_on_c, 0, 80, 101
2, 415201, Control_c, 0, 64, 63
2, 415210, Note_on_c, 0, 85, 0
2, 415210, Control_c, 0, 64, 0
2, 415233, Control_c, 0, 64, 63
2, 415240, Note_on_c, 0, 80, 0
2, 415244, Control_c, 0, 64, 127
2, 415248, Note_on_c, 0, 75, 85
2, 415254, Note_on_c, 0, 92, 109
2, 415263, Note_on_c, 0, 83, 0
2, 415308, Note_on_c, 0, 92, 0
2, 415322, Note_on_c, 0, 75, 0
2, 415324, Note_on_c, 0, 85, 104
2, 415328, Note_on_c, 0, 82, 109
2, 415369, Note_on_c, 0, 85, 0
2, 415378, Note_on_c, 0, 75, 101
2, 415387, Note_on_c, 0, 91, 103
2, 415391, Note_on_c, 0, 82, 0
2, 415435, Note_on_c, 0, 91, 0
2, 415440, Control_c, 0, 64, 63
2, 415444, Control_c, 0, 64, 0
2, 415469, Note_on_c, 0, 92, 109
2, 415471, Note_on_c, 0, 83, 107
2, 415473, Note_on_c, 0, 80, 104
2, 415474, Note_on_c, 0, 87, 112
2, 415477, Note_on_c, 0, 75, 0
2, 415479, Control_c, 0, 64, 63
2, 415484, Control_c, 0, 64, 127
2, 415495, Note_on_c, 0, 92, 0
2, 415497, Note_on_c, 0, 87, 0
2, 415506, Note_on_c, 0, 83, 0
2, 415509, Note_on_c, 0, 80, 0
2, 415673, Note_on_c, 0, 63, 70
2, 415717, Note_on_c, 0, 63, 0
2, 415748, Note_on_c, 0, 63, 74
2, 415833, Note_on_c, 0, 59, 74
2, 415837, Control_c, 0, 64, 63
2, 415842, Note_on_c, 0, 56, 74
2, 415844, Control_c, 0, 64, 0
2, 415853, Note_on_c, 0, 63, 0
2, 415862, Control_c, 0, 64, 63
2, 415878, Control_c, 0, 64, 127
2, 415930, Note_on_c, 0, 44, 80
2, 415933, Note_on_c, 0, 64, 79
2, 415939, Note_on_c, 0, 59, 0
2, 415944, Note_on_c, 0, 56, 0
2, 416000, Note_on_c, 0, 64, 0
2, 416005, Note_on_c, 0, 71, 86
2, 416009, Note_on_c, 0, 44, 0
2, 416011, Note_on_c, 0, 56, 73
2, 416042, Note_on_c, 0, 56, 0
2, 416066, Note_on_c, 0, 71, 0
2, 416068, Note_on_c, 0, 63, 96
2, 416071, Note_on_c, 0, 59, 90
2, 416100, Note_on_c, 0, 59, 0
2, 416105, Note_on_c, 0, 63, 0
2, 416140, Control_c, 0, 64, 63
2, 416141, Note_on_c, 0, 62, 91
2, 416148, Control_c, 0, 64, 0
2, 416149, Note_on_c, 0, 58, 98
2, 416156, Control_c, 0, 64, 63
2, 416174, Control_c, 0, 64, 127
2, 416214, Note_on_c, 0, 62, 0
2, 416215, Note_on_c, 0, 70, 104
2, 416219, Note_on_c, 0, 58, 0
2, 416222, Note_on_c, 0, 46, 100
2, 416261, Note_on_c, 0, 70, 0
2, 416275, Note_on_c, 0, 46, 0
2, 416286, Note_on_c, 0, 77, 94
2, 416289, Note_on_c, 0, 58, 80
2, 416316, Note_on_c, 0, 58, 0
2, 416320, Note_on_c, 0, 77, 0
2, 416337, Note_on_c, 0, 68, 108
2, 416351, Note_on_c, 0, 62, 59
2, 416352, Note_on_c, 0, 60, 53
2, 416368, Note_on_c, 0, 62, 0
2, 416371, Note_on_c, 0, 60, 0
2, 416399, Note_on_c, 0, 68, 0
2, 416413, Note_on_c, 0, 66, 108
2, 416419, Note_on_c, 0, 63, 93
2, 416424, Control_c, 0, 64, 63
2, 416427, Control_c, 0, 64, 0
2, 416485, Note_on_c, 0, 71, 80
2, 416487, Control_c, 0, 64, 63
2, 416488, Note_on_c, 0, 63, 0
2, 416490, Control_c, 0, 64, 127
2, 416492, Note_on_c, 0, 51, 105
2, 416498, Note_on_c, 0, 66, 0
2, 416560, Note_on_c, 0, 51, 0
2, 416560, Note_on_c, 0, 63, 89
2, 416561, Note_on_c, 0, 78, 104
2, 416572, Note_on_c, 0, 71, 0
2, 416624, Note_on_c, 0, 63, 0
2, 416626, Note_on_c, 0, 70, 104
2, 416631, Note_on_c, 0, 66, 106
2, 416641, Note_on_c, 0, 78, 0
2, 416670, Note_on_c, 0, 66, 0
2, 416695, Note_on_c, 0, 69, 93
2, 416696, Note_on_c, 0, 70, 0
2, 416696, Note_on_c, 0, 65, 103
2, 416702, Control_c, 0, 64, 63
2, 416707, Control_c, 0, 64, 0
2, 416725, Control_c, 0, 64, 63
2, 416736, Control_c, 0, 64, 127
2, 416761, Note_on_c, 0, 69, 0
2, 416767, Note_on_c, 0, 77, 100
2, 416767, Note_on_c, 0, 53, 102
2, 416770, Note_on_c, 0, 65, 0
2, 416824, Note_on_c, 0, 53, 0
2, 416836, Note_on_c, 0, 84, 101
2, 416842, Note_on_c, 0, 65, 76
2, 416845, Note_on_c, 0, 77, 0
2, 416885, Note_on_c, 0, 84, 0
2, 416892, Note_on_c, 0, 65, 0
2, 416897, Note_on_c, 0, 75, 110
2, 416906, Note_on_c, 0, 69, 76
2, 416926, Note_on_c, 0, 75, 0
2, 416929, Note_on_c, 0, 69, 0
2, 416975, Note_on_c, 0, 70, 109
2, 416977, Note_on_c, 0, 73, 108
2, 417041, Note_on_c, 0, 70, 0
2, 417043, Note_on_c, 0, 65, 65
2, 417046, Note_on_c, 0, 82, 105
2, 417071, Note_on_c, 0, 73, 0
2, 417094, Control_c, 0, 64, 63
2, 417097, Control_c, 0, 64, 0
2, 417108, Note_on_c, 0, 82, 0
2, 417111, Note_on_c, 0, 72, 107
2, 417115, Note_on_c, 0, 75, 107
2, 417175, Note_on_c, 0, 81, 102
2, 417178, Note_on_c, 0, 75, 0
2, 417184, Note_on_c, 0, 72, 0
2, 417228, Note_on_c, 0, 81, 0
2, 417259, Note_on_c, 0, 82, 108
2, 417261, Note_on_c, 0, 73, 116
2, 417262, Note_on_c, 0, 70, 95
2, 417262, Note_on_c, 0, 77, 88
2, 417272, Control_c, 0, 64, 63
2, 417272, Control_c, 0, 64, 127
2, 417273, Note_on_c, 0, 65, 0
2, 417297, Note_on_c, 0, 77, 0
2, 417304, Note_on_c, 0, 82, 0
2, 417304, Note_on_c, 0, 73, 0
2, 417317, Note_on_c, 0, 70, 0
2, 417425, Note_on_c, 0, 77, 112
2, 417445, Control_c, 0, 64, 63
2, 417447, Control_c, 0, 64, 0
2, 417456, Note_on_c, 0, 77, 0
2, 417479, Note_on_c, 0, 77, 103
2, 417501, Control_c, 0, 64, 63
2, 417503, Control_c, 0, 64, 127
2, 417533, Note_on_c, 0, 77, 0
2, 417563, Note_on_c, 0, 70, 109
2, 417565, Note_on_c, 0, 73, 113
2, 417644, Note_on_c, 0, 70, 0
2, 417648, Note_on_c, 0, 78, 99
2, 417649, Note_on_c, 0, 58, 88
2, 417659, Note_on_c, 0, 73, 0
2, 417707, Note_on_c, 0, 58, 0
2, 417726, Note_on_c, 0, 70, 83
2, 417727, Note_on_c, 0, 85, 95
2, 417750, Note_on_c, 0, 78, 0
2, 417779, Note_on_c, 0, 85, 0
2, 417783, Note_on_c, 0, 77, 86
2, 417785, Note_on_c, 0, 70, 0
2, 417789, Note_on_c, 0, 73, 93
2, 417829, Note_on_c, 0, 73, 0
2, 417839, Control_c, 0, 64, 63
2, 417843, Note_on_c, 0, 77, 0
2, 417847, Control_c, 0, 64, 0
2, 417853, Note_on_c, 0, 71, 98
2, 417855, Control_c, 0, 64, 63
2, 417856, Note_on_c, 0, 75, 113
2, 417873, Control_c, 0, 64, 127
2, 417917, Note_on_c, 0, 71, 0
2, 417927, Note_on_c, 0, 59, 97
2, 417929, Note_on_c, 0, 80, 108
2, 417934, Note_on_c, 0, 75, 0
2, 417970, Note_on_c, 0, 59, 0
2, 417994, Note_on_c, 0, 80, 0
2, 417996, Note_on_c, 0, 71, 74
2, 417999, Note_on_c, 0, 87, 103
2, 418048, Note_on_c, 0, 71, 0
2, 418060, Note_on_c, 0, 87, 0
2, 418060, Note_on_c, 0, 78, 106
2, 418065, Note_on_c, 0, 75, 96
2, 418089, Note_on_c, 0, 75, 0
2, 418113, Note_on_c, 0, 78, 0
2, 418119, Control_c, 0, 64, 63
2, 418130, Control_c, 0, 64, 0
2, 418133, Note_on_c, 0, 77, 93
2, 418133, Note_on_c, 0, 73, 114
2, 418148, Control_c, 0, 64, 63
2, 418162, Control_c, 0, 64, 127
2, 418211, Note_on_c, 0, 77, 0
2, 418213, Note_on_c, 0, 61, 108
2, 418217, Note_on_c, 0, 82, 94
2, 418222, Note_on_c, 0, 73, 0
2, 418242, Note_on_c, 0, 82, 0
2, 418258, Note_on_c, 0, 61, 0
2, 418276, Note_on_c, 0, 73, 89
2, 418278, Note_on_c, 0, 89, 107
2, 418309, Note_on_c, 0, 73, 0
2, 418319, Note_on_c, 0, 89, 0
2, 418335, Note_on_c, 0, 77, 94
2, 418336, Note_on_c, 0, 80, 108
2, 418365, Note_on_c, 0, 77, 0
2, 418368, Note_on_c, 0, 80, 0
2, 418400, Control_c, 0, 64, 63
2, 418406, Control_c, 0, 64, 0
2, 418412, Note_on_c, 0, 75, 112
2, 418414, Note_on_c, 0, 78, 114
2, 418441, Control_c, 0, 64, 63
2, 418448, Control_c, 0, 64, 127
2, 418484, Note_on_c, 0, 83, 89
2, 418489, Note_on_c, 0, 78, 0
2, 418492, Note_on_c, 0, 75, 0
2, 418495, Note_on_c, 0, 63, 112
2, 418543, Note_on_c, 0, 63, 0
2, 418550, Note_on_c, 0, 83, 0
2, 418559, Note_on_c, 0, 75, 100
2, 418562, Note_on_c, 0, 90, 110
2, 418605, Note_on_c, 0, 75, 0
2, 418625, Note_on_c, 0, 78, 107
2, 418626, Note_on_c, 0, 82, 108
2, 418627, Note_on_c, 0, 90, 0
2, 418655, Note_on_c, 0, 78, 0
2, 418686, Control_c, 0, 64, 63
2, 418687, Note_on_c, 0, 82, 0
2, 418695, Note_on_c, 0, 80, 115
2, 418698, Note_on_c, 0, 77, 111
2, 418721, Control_c, 0, 64, 127
2, 418753, Note_on_c, 0, 77, 0
2, 418762, Note_on_c, 0, 65, 102
2, 418768, Note_on_c, 0, 85, 110
2, 418776, Note_on_c, 0, 80, 0
2, 418805, Note_on_c, 0, 65, 0
2, 418829, Note_on_c, 0, 77, 86
2, 418837, Note_on_c, 0, 85, 0
2, 418837, Note_on_c, 0, 92, 110
2, 418887, Note_on_c, 0, 92, 0
2, 418894, Note_on_c, 0, 80, 109
2, 418897, Note_on_c, 0, 84, 83
2, 418898, Note_on_c, 0, 83, 81
2, 418899, Note_on_c, 0, 77, 0
2, 418918, Note_on_c, 0, 80, 0
2, 418921, Note_on_c, 0, 84, 0
2, 418921, Note_on_c, 0, 83, 0
2, 418987, Note_on_c, 0, 78, 123
2, 418989, Note_on_c, 0, 90, 114
2, 418990, Note_on_c, 0, 82, 119
2, 418991, Control_c, 0, 64, 127
2, 419050, Control_c, 0, 64, 63
2, 419051, Control_c, 0, 64, 0
2, 419062, Note_on_c, 0, 82, 0
2, 419078, Note_on_c, 0, 82, 57
2, 419082, Note_on_c, 0, 85, 103
2, 419087, Control_c, 0, 64, 127
2, 419115, Note_on_c, 0, 82, 0
2, 419120, Note_on_c, 0, 78, 0
2, 419123, Note_on_c, 0, 90, 0
2, 419142, Control_c, 0, 64, 63
2, 419147, Note_on_c, 0, 85, 0
2, 419150, Control_c, 0, 64, 127
2, 419159, Note_on_c, 0, 78, 109
2, 419161, Note_on_c, 0, 94, 106
2, 419230, Note_on_c, 0, 94, 0
2, 419238, Note_on_c, 0, 73, 89
2, 419239, Note_on_c, 0, 82, 105
2, 419241, Note_on_c, 0, 78, 0
2, 419271, Note_on_c, 0, 82, 0
2, 419322, Note_on_c, 0, 70, 77
2, 419323, Note_on_c, 0, 78, 101
2, 419328, Note_on_c, 0, 73, 0
2, 419342, Note_on_c, 0, 70, 0
2, 419389, Note_on_c, 0, 66, 100
2, 419394, Note_on_c, 0, 73, 101
2, 419401, Note_on_c, 0, 78, 0
2, 419439, Note_on_c, 0, 73, 0
2, 419455, Note_on_c, 0, 61, 88
2, 419456, Note_on_c, 0, 66, 0
2, 419456, Note_on_c, 0, 82, 103
2, 419518, Note_on_c, 0, 82, 0
2, 419525, Note_on_c, 0, 70, 103
2, 419526, Note_on_c, 0, 58, 90
2, 419536, Note_on_c, 0, 61, 0
2, 419551, Note_on_c, 0, 70, 0
2, 419555, Note_on_c, 0, 58, 0
2, 419594, Note_on_c, 0, 54, 88
2, 419605, Note_on_c, 0, 66, 103
2, 419663, Note_on_c, 0, 49, 80
2, 419666, Note_on_c, 0, 54, 0
2, 419672, Note_on_c, 0, 61, 100
2, 419686, Note_on_c, 0, 66, 0
2, 419736, Note_on_c, 0, 61, 0
2, 419746, Note_on_c, 0, 70, 109
2, 419746, Note_on_c, 0, 42, 107
2, 419757, Note_on_c, 0, 49, 0
2, 419788, Note_on_c, 0, 42, 0
2, 419830, Note_on_c, 0, 58, 110
2, 419833, Note_on_c, 0, 70, 0
2, 419860, Note_on_c, 0, 58, 0
2, 419912, Control_c, 0, 64, 63
2, 419916, Control_c, 0, 64, 0
2, 419944, Note_on_c, 0, 37, 121
2, 419948, Note_on_c, 0, 56, 112
2, 419949, Note_on_c, 0, 68, 109
2, 419978, Control_c, 0, 64, 127
2, 420049, Note_on_c, 0, 56, 0
2, 420070, Note_on_c, 0, 37, 0
2, 420072, Note_on_c, 0, 61, 80
2, 420074, Note_on_c, 0, 68, 0
2, 420125, Note_on_c, 0, 61, 0
2, 420141, Note_on_c, 0, 66, 87
2, 420204, Note_on_c, 0, 66, 0
2, 420207, Note_on_c, 0, 68, 88
2, 420236, Note_on_c, 0, 68, 0
2, 420287, Note_on_c, 0, 61, 120
2, 420292, Note_on_c, 0, 73, 108
2, 420374, Note_on_c, 0, 66, 61
2, 420381, Note_on_c, 0, 73, 0
2, 420432, Note_on_c, 0, 66, 0
2, 420444, Note_on_c, 0, 68, 78
2, 420448, Note_on_c, 0, 61, 0
2, 420488, Note_on_c, 0, 68, 0
2, 420515, Note_on_c, 0, 73, 72
2, 420552, Note_on_c, 0, 73, 0
2, 420583, Note_on_c, 0, 66, 121
2, 420589, Note_on_c, 0, 78, 99
2, 420605, Control_c, 0, 64, 63
2, 420608, Control_c, 0, 64, 0
2, 420633, Control_c, 0, 64, 63
2, 420634, Control_c, 0, 64, 127
2, 420664, Note_on_c, 0, 68, 84
2, 420680, Note_on_c, 0, 78, 0
2, 420731, Note_on_c, 0, 68, 0
2, 420747, Note_on_c, 0, 73, 75
2, 420757, Note_on_c, 0, 66, 0
2, 420793, Note_on_c, 0, 73, 0
2, 420805, Note_on_c, 0, 78, 80
2, 420844, Note_on_c, 0, 78, 0
2, 420868, Control_c, 0, 64, 63
2, 420869, Control_c, 0, 64, 0
2, 420877, Note_on_c, 0, 80, 107
2, 420879, Note_on_c, 0, 68, 114
2, 420909, Control_c, 0, 64, 63
2, 420911, Control_c, 0, 64, 127
2, 420947, Note_on_c, 0, 67, 91
2, 420958, Note_on_c, 0, 73, 88
2, 420964, Note_on_c, 0, 80, 0
2, 420966, Note_on_c, 0, 68, 0
2, 421012, Note_on_c, 0, 73, 0
2, 421025, Note_on_c, 0, 78, 94
2, 421027, Note_on_c, 0, 66, 100
2, 421033, Note_on_c, 0, 67, 0
2, 421081, Note_on_c, 0, 65, 87
2, 421084, Note_on_c, 0, 80, 96
2, 421088, Note_on_c, 0, 66, 0
2, 421094, Note_on_c, 0, 78, 0
2, 421114, Note_on_c, 0, 80, 0
2, 421147, Note_on_c, 0, 65, 0
2, 421159, Note_on_c, 0, 64, 106
2, 421163, Note_on_c, 0, 85, 107
2, 421168, Note_on_c, 0, 73, 95
2, 421187, Note_on_c, 0, 73, 0
2, 421199, Note_on_c, 0, 85, 0
2, 421231, Note_on_c, 0, 63, 103
2, 421238, Note_on_c, 0, 76, 71
2, 421247, Note_on_c, 0, 64, 0
2, 421281, Note_on_c, 0, 76, 0
2, 421296, Note_on_c, 0, 62, 101
2, 421299, Note_on_c, 0, 63, 0
2, 421316, Note_on_c, 0, 80, 30
2, 421319, Note_on_c, 0, 81, 54
2, 421357, Note_on_c, 0, 80, 0
2, 421357, Note_on_c, 0, 81, 0
2, 421364, Note_on_c, 0, 61, 109
2, 421374, Note_on_c, 0, 85, 94
2, 421380, Note_on_c, 0, 62, 0
2, 421402, Note_on_c, 0, 85, 0
2, 421438, Note_on_c, 0, 60, 109
2, 421442, Note_on_c, 0, 61, 0
2, 421447, Note_on_c, 0, 88, 107
2, 421451, Note_on_c, 0, 76, 82
2, 421462, Note_on_c, 0, 77, 38
2, 421469, Note_on_c, 0, 76, 0
2, 421477, Note_on_c, 0, 77, 0
2, 421483, Note_on_c, 0, 88, 0
2, 421511, Note_on_c, 0, 59, 101
2, 421516, Note_on_c, 0, 80, 104
2, 421521, Note_on_c, 0, 60, 0
2, 421553, Note_on_c, 0, 80, 0
2, 421581, Note_on_c, 0, 85, 109
2, 421582, Note_on_c, 0, 58, 108
2, 421603, Note_on_c, 0, 59, 0
2, 421635, Note_on_c, 0, 85, 0
2, 421641, Note_on_c, 0, 57, 106
2, 421643, Note_on_c, 0, 88, 100
2, 421654, Note_on_c, 0, 58, 0
2, 421675, Note_on_c, 0, 88, 0
2, 421721, Note_on_c, 0, 56, 104
2, 421724, Note_on_c, 0, 92, 106
2, 421725, Note_on_c, 0, 80, 99
2, 421738, Note_on_c, 0, 57, 0
2, 421781, Note_on_c, 0, 80, 0
2, 421790, Note_on_c, 0, 55, 98
2, 421793, Note_on_c, 0, 85, 96
2, 421802, Note_on_c, 0, 56, 0
2, 421846, Note_on_c, 0, 92, 0
2, 421868, Note_on_c, 0, 88, 97
2, 421868, Note_on_c, 0, 54, 110
2, 421884, Note_on_c, 0, 85, 0
2, 421886, Note_on_c, 0, 55, 0
2, 421936, Note_on_c, 0, 52, 108
2, 421941, Note_on_c, 0, 92, 105
2, 421943, Note_on_c, 0, 54, 0
2, 421952, Note_on_c, 0, 88, 0
2, 421969, Note_on_c, 0, 92, 0
2, 422033, Note_on_c, 0, 52, 0
2, 422033, Control_c, 0, 64, 63
2, 422036, Note_on_c, 0, 51, 114
2, 422041, Control_c, 0, 64, 0
2, 422048, Note_on_c, 0, 95, 99
2, 422049, Note_on_c, 0, 83, 92
2, 422075, Control_c, 0, 64, 63
2, 422078, Control_c, 0, 64, 127
2, 422147, Note_on_c, 0, 50, 107
2, 422147, Note_on_c, 0, 87, 104
2, 422155, Note_on_c, 0, 51, 0
2, 422167, Note_on_c, 0, 83, 0
2, 422198, Note_on_c, 0, 95, 0
2, 422222, Note_on_c, 0, 92, 109
2, 422222, Note_on_c, 0, 52, 102
2, 422240, Note_on_c, 0, 87, 0
2, 422245, Note_on_c, 0, 50, 0
2, 422279, Note_on_c, 0, 95, 96
2, 422279, Note_on_c, 0, 51, 115
2, 422294, Note_on_c, 0, 52, 0
2, 422300, Note_on_c, 0, 92, 0
2, 422307, Note_on_c, 0, 51, 0
2, 422312, Note_on_c, 0, 95, 0
2, 422363, Note_on_c, 0, 39, 112
2, 422369, Note_on_c, 0, 94, 103
2, 422373, Note_on_c, 0, 85, 104
2, 422421, Control_c, 0, 64, 63
2, 422424, Control_c, 0, 64, 0
2, 422446, Note_on_c, 0, 87, 103
2, 422467, Note_on_c, 0, 85, 0
2, 422469, Control_c, 0, 64, 63
2, 422472, Control_c, 0, 64, 127
2, 422473, Note_on_c, 0, 94, 0
2, 422512, Note_on_c, 0, 91, 96
2, 422526, Note_on_c, 0, 87, 0
2, 422543, Note_on_c, 0, 39, 0
2, 422582, Note_on_c, 0, 94, 103
2, 422584, Note_on_c, 0, 91, 0
2, 422623, Note_on_c, 0, 94, 0
2, 422644, Control_c, 0, 64, 63
2, 422647, Control_c, 0, 64, 0
2, 422663, Note_on_c, 0, 92, 107
2, 422663, Note_on_c, 0, 40, 126
2, 422685, Control_c, 0, 64, 127
2, 422720, Note_on_c, 0, 40, 0
2, 422765, Note_on_c, 0, 88, 82
2, 422844, Note_on_c, 0, 92, 0
2, 422860, Note_on_c, 0, 76, 104
2, 422862, Note_on_c, 0, 95, 99
2, 422870, Note_on_c, 0, 92, 41
2, 422878, Note_on_c, 0, 88, 0
2, 422885, Note_on_c, 0, 92, 0
2, 422943, Note_on_c, 0, 95, 0
2, 422953, Note_on_c, 0, 71, 98
2, 422957, Note_on_c, 0, 83, 68
2, 422971, Note_on_c, 0, 76, 0
2, 422985, Note_on_c, 0, 83, 0
2, 423038, Note_on_c, 0, 68, 103
2, 423049, Note_on_c, 0, 71, 0
2, 423049, Note_on_c, 0, 80, 104
2, 423065, Note_on_c, 0, 68, 0
2, 423112, Note_on_c, 0, 64, 98
2, 423113, Note_on_c, 0, 76, 100
2, 423123, Note_on_c, 0, 80, 0
2, 423176, Note_on_c, 0, 59, 96
2, 423183, Note_on_c, 0, 83, 91
2, 423187, Note_on_c, 0, 64, 0
2, 423192, Note_on_c, 0, 76, 0
2, 423230, Note_on_c, 0, 83, 0
2, 423243, Note_on_c, 0, 71, 86
2, 423244, Note_on_c, 0, 56, 110
2, 423257, Note_on_c, 0, 59, 0
2, 423272, Note_on_c, 0, 56, 0
2, 423278, Note_on_c, 0, 71, 0
2, 423317, Note_on_c, 0, 52, 93
2, 423321, Note_on_c, 0, 68, 105
2, 423377, Note_on_c, 0, 47, 89
2, 423383, Note_on_c, 0, 64, 92
2, 423388, Note_on_c, 0, 52, 0
2, 423392, Note_on_c, 0, 68, 0
2, 423452, Note_on_c, 0, 64, 0
2, 423455, Note_on_c, 0, 71, 92
2, 423456, Note_on_c, 0, 40, 114
2, 423465, Note_on_c, 0, 47, 0
2, 423499, Note_on_c, 0, 40, 0
2, 423505, Note_on_c, 0, 71, 0
2, 423527, Note_on_c, 0, 59, 95
2, 423552, Note_on_c, 0, 59, 0
2, 423586, Control_c, 0, 64, 63
2, 423591, Control_c, 0, 64, 0
2, 423615, Note_on_c, 0, 35, 126
2, 423619, Note_on_c, 0, 66, 116
2, 423620, Note_on_c, 0, 54, 121
2, 423633, Control_c, 0, 64, 127
2, 423737, Note_on_c, 0, 59, 78
2, 423760, Note_on_c, 0, 66, 0
2, 423765, Note_on_c, 0, 54, 0
2, 423784, Note_on_c, 0, 35, 0
2, 423824, Note_on_c, 0, 64, 76
2, 423834, Note_on_c, 0, 59, 0
2, 423890, Note_on_c, 0, 66, 96
2, 423901, Note_on_c, 0, 64, 0
2, 423920, Note_on_c, 0, 66, 0
2, 423967, Note_on_c, 0, 59, 118
2, 423969, Note_on_c, 0, 71, 108
2, 424047, Note_on_c, 0, 64, 73
2, 424050, Note_on_c, 0, 71, 0
2, 424105, Note_on_c, 0, 59, 0
2, 424113, Note_on_c, 0, 66, 96
2, 424119, Note_on_c, 0, 64, 0
2, 424170, Note_on_c, 0, 66, 0
2, 424183, Note_on_c, 0, 71, 86
2, 424212, Note_on_c, 0, 71, 0
2, 424261, Note_on_c, 0, 64, 125
2, 424261, Note_on_c, 0, 76, 114
2, 424327, Note_on_c, 0, 66, 82
2, 424369, Note_on_c, 0, 76, 0
2, 424384, Note_on_c, 0, 66, 0
2, 424407, Note_on_c, 0, 71, 80
2, 424458, Note_on_c, 0, 64, 0
2, 424459, Note_on_c, 0, 71, 0
2, 424470, Note_on_c, 0, 76, 77
2, 424534, Note_on_c, 0, 76, 0
2, 424545, Note_on_c, 0, 66, 125
2, 424546, Note_on_c, 0, 78, 118
2, 424547, Control_c, 0, 64, 63
2, 424550, Control_c, 0, 64, 0
2, 424565, Control_c, 0, 64, 63
2, 424572, Control_c, 0, 64, 127
2, 424615, Note_on_c, 0, 65, 104
2, 424629, Note_on_c, 0, 71, 81
2, 424639, Note_on_c, 0, 66, 0
2, 424651, Note_on_c, 0, 78, 0
2, 424683, Note_on_c, 0, 64, 99
2, 424693, Note_on_c, 0, 76, 83
2, 424696, Note_on_c, 0, 65, 0
2, 424701, Note_on_c, 0, 71, 0
2, 424749, Note_on_c, 0, 63, 112
2, 424758, Note_on_c, 0, 78, 91
2, 424764, Note_on_c, 0, 76, 0
2, 424767, Note_on_c, 0, 64, 0
2, 424786, Note_on_c, 0, 78, 0
2, 424815, Note_on_c, 0, 63, 0
2, 424823, Note_on_c, 0, 62, 111
2, 424826, Note_on_c, 0, 83, 106
2, 424830, Note_on_c, 0, 71, 102
2, 424849, Note_on_c, 0, 83, 0
2, 424855, Note_on_c, 0, 71, 0
2, 424901, Note_on_c, 0, 61, 97
2, 424902, Note_on_c, 0, 74, 101
2, 424909, Note_on_c, 0, 62, 0
2, 424937, Note_on_c, 0, 74, 0
2, 424963, Note_on_c, 0, 78, 106
2, 424970, Note_on_c, 0, 60, 103
2, 424974, Note_on_c, 0, 61, 0
2, 425006, Note_on_c, 0, 78, 0
2, 425022, Note_on_c, 0, 59, 104
2, 425025, Note_on_c, 0, 83, 86
2, 425036, Note_on_c, 0, 60, 0
2, 425055, Note_on_c, 0, 83, 0
2, 425097, Note_on_c, 0, 58, 114
2, 425099, Note_on_c, 0, 86, 108
2, 425102, Note_on_c, 0, 74, 96
2, 425119, Note_on_c, 0, 59, 0
2, 425128, Note_on_c, 0, 74, 0
2, 425139, Note_on_c, 0, 86, 0
2, 425170, Note_on_c, 0, 57, 87
2, 425173, Note_on_c, 0, 78, 105
2, 425184, Note_on_c, 0, 58, 0
2, 425208, Note_on_c, 0, 78, 0
2, 425243, Note_on_c, 0, 83, 103
2, 425246, Note_on_c, 0, 56, 104
2, 425259, Note_on_c, 0, 57, 0
2, 425305, Note_on_c, 0, 83, 0
2, 425306, Note_on_c, 0, 55, 104
2, 425308, Note_on_c, 0, 86, 107
2, 425321, Note_on_c, 0, 56, 0
2, 425337, Note_on_c, 0, 86, 0
2, 425387, Note_on_c, 0, 54, 113
2, 425391, Note_on_c, 0, 90, 109
2, 425393, Note_on_c, 0, 78, 101
2, 425403, Note_on_c, 0, 55, 0
2, 425421, Control_c, 0, 64, 63
2, 425426, Control_c, 0, 64, 0
2, 425435, Control_c, 0, 64, 63
2, 425445, Control_c, 0, 64, 127
2, 425473, Note_on_c, 0, 53, 103
2, 425479, Note_on_c, 0, 83, 93
2, 425490, Note_on_c, 0, 54, 0
2, 425520, Note_on_c, 0, 90, 0
2, 425532, Note_on_c, 0, 78, 0
2, 425545, Note_on_c, 0, 52, 97
2, 425553, Note_on_c, 0, 86, 98
2, 425559, Note_on_c, 0, 53, 0
2, 425569, Note_on_c, 0, 83, 0
2, 425616, Note_on_c, 0, 50, 116
2, 425625, Note_on_c, 0, 90, 101
2, 425629, Note_on_c, 0, 52, 0
2, 425632, Note_on_c, 0, 86, 0
2, 425649, Note_on_c, 0, 90, 0
2, 425706, Note_on_c, 0, 50, 0
2, 425722, Note_on_c, 0, 49, 114
2, 425727, Note_on_c, 0, 93, 103
2, 425728, Note_on_c, 0, 81, 99
2, 425740, Note_on_c, 0, 90, 40
2, 425742, Note_on_c, 0, 83, 34
2, 425751, Control_c, 0, 64, 63
2, 425754, Note_on_c, 0, 90, 0
2, 425773, Note_on_c, 0, 81, 0
2, 425775, Control_c, 0, 64, 127
2, 425810, Note_on_c, 0, 83, 0
2, 425842, Note_on_c, 0, 48, 93
2, 425846, Note_on_c, 0, 85, 106
2, 425864, Note_on_c, 0, 49, 0
2, 425912, Note_on_c, 0, 93, 0
2, 425920, Note_on_c, 0, 90, 108
2, 425927, Note_on_c, 0, 50, 99
2, 425931, Note_on_c, 0, 48, 0
2, 425934, Note_on_c, 0, 85, 0
2, 425983, Note_on_c, 0, 49, 118
2, 425984, Note_on_c, 0, 93, 96
2, 425998, Note_on_c, 0, 50, 0
2, 426009, Note_on_c, 0, 49, 0
2, 426030, Note_on_c, 0, 93, 0
2, 426053, Note_on_c, 0, 90, 0
2, 426067, Note_on_c, 0, 92, 112
2, 426067, Note_on_c, 0, 37, 113
2, 426068, Note_on_c, 0, 83, 96
2, 426089, Control_c, 0, 64, 63
2, 426092, Control_c, 0, 64, 0
2, 426116, Control_c, 0, 64, 63
2, 426124, Control_c, 0, 64, 127
2, 426141, Note_on_c, 0, 85, 98
2, 426215, Note_on_c, 0, 89, 96
2, 426230, Note_on_c, 0, 85, 0
2, 426232, Note_on_c, 0, 37, 0
2, 426232, Note_on_c, 0, 83, 0
2, 426267, Note_on_c, 0, 92, 0
2, 426284, Note_on_c, 0, 92, 94
2, 426316, Note_on_c, 0, 89, 0
2, 426382, Note_on_c, 0, 38, 125
2, 426384, Note_on_c, 0, 90, 114
2, 426405, Control_c, 0, 64, 127
2, 426434, Note_on_c, 0, 92, 0
2, 426463, Control_c, 0, 64, 63
2, 426466, Control_c, 0, 64, 0
2, 426479, Control_c, 0, 64, 63
2, 426480, Control_c, 0, 64, 127
2, 426506, Note_on_c, 0, 86, 100
2, 426507, Note_on_c, 0, 38, 0
2, 426540, Note_on_c, 0, 90, 0
2, 426614, Note_on_c, 0, 74, 91
2, 426615, Note_on_c, 0, 93, 101
2, 426628, Note_on_c, 0, 86, 0
2, 426687, Note_on_c, 0, 93, 0
2, 426703, Note_on_c, 0, 81, 83
2, 426703, Note_on_c, 0, 69, 88
2, 426732, Note_on_c, 0, 74, 0
2, 426742, Note_on_c, 0, 81, 0
2, 426778, Note_on_c, 0, 66, 105
2, 426787, Note_on_c, 0, 69, 0
2, 426791, Note_on_c, 0, 78, 103
2, 426802, Note_on_c, 0, 66, 0
2, 426854, Note_on_c, 0, 62, 84
2, 426856, Note_on_c, 0, 74, 96
2, 426868, Note_on_c, 0, 78, 0
2, 426923, Note_on_c, 0, 57, 86
2, 426931, Note_on_c, 0, 74, 0
2, 426931, Note_on_c, 0, 81, 86
2, 426938, Note_on_c, 0, 62, 0
2, 426974, Note_on_c, 0, 81, 0
2, 426991, Note_on_c, 0, 69, 81
2, 426992, Note_on_c, 0, 54, 109
2, 427005, Note_on_c, 0, 57, 0
2, 427021, Note_on_c, 0, 54, 0
2, 427028, Note_on_c, 0, 69, 0
2, 427063, Note_on_c, 0, 50, 101
2, 427077, Note_on_c, 0, 66, 105
2, 427123, Note_on_c, 0, 45, 89
2, 427129, Note_on_c, 0, 50, 0
2, 427135, Note_on_c, 0, 62, 100
2, 427145, Note_on_c, 0, 66, 0
2, 427200, Note_on_c, 0, 38, 121
2, 427207, Note_on_c, 0, 45, 0
2, 427211, Note_on_c, 0, 62, 0
2, 427212, Note_on_c, 0, 69, 91
2, 427242, Note_on_c, 0, 38, 0
2, 427249, Note_on_c, 0, 69, 0
2, 427273, Note_on_c, 0, 57, 87
2, 427309, Note_on_c, 0, 57, 0
2, 427359, Note_on_c, 0, 43, 111
2, 427365, Note_on_c, 0, 62, 114
2, 427383, Control_c, 0, 64, 127
2, 427468, Control_c, 0, 64, 63
2, 427470, Control_c, 0, 64, 0
2, 427472, Note_on_c, 0, 59, 76
2, 427473, Note_on_c, 0, 44, 90
2, 427491, Control_c, 0, 64, 63
2, 427492, Control_c, 0, 64, 127
2, 427524, Note_on_c, 0, 43, 0
2, 427575, Note_on_c, 0, 56, 95
2, 427576, Note_on_c, 0, 62, 0
2, 427577, Note_on_c, 0, 44, 0
2, 427579, Note_on_c, 0, 64, 86
2, 427587, Note_on_c, 0, 59, 0
2, 427605, Note_on_c, 0, 56, 0
2, 427615, Note_on_c, 0, 64, 0
2, 427644, Note_on_c, 0, 64, 87
2, 427688, Note_on_c, 0, 64, 0
2, 427711, Note_on_c, 0, 55, 81
2, 427722, Note_on_c, 0, 74, 100
2, 427781, Note_on_c, 0, 56, 95
2, 427798, Note_on_c, 0, 71, 82
2, 427804, Note_on_c, 0, 55, 0
2, 427854, Note_on_c, 0, 71, 0
2, 427860, Note_on_c, 0, 74, 0
2, 427877, Note_on_c, 0, 68, 101
2, 427878, Note_on_c, 0, 76, 85
2, 427888, Note_on_c, 0, 56, 0
2, 427905, Note_on_c, 0, 76, 0
2, 427914, Note_on_c, 0, 68, 0
2, 427944, Note_on_c, 0, 76, 84
2, 428016, Note_on_c, 0, 57, 78
2, 428020, Note_on_c, 0, 85, 113
2, 428036, Note_on_c, 0, 76, 0
2, 428050, Control_c, 0, 64, 63
2, 428056, Control_c, 0, 64, 0
2, 428062, Control_c, 0, 64, 63
2, 428074, Control_c, 0, 64, 127
2, 428086, Note_on_c, 0, 58, 100
2, 428091, Note_on_c, 0, 78, 99
2, 428102, Note_on_c, 0, 57, 0
2, 428147, Note_on_c, 0, 78, 0
2, 428164, Note_on_c, 0, 85, 0
2, 428165, Note_on_c, 0, 88, 99
2, 428169, Note_on_c, 0, 70, 100
2, 428206, Note_on_c, 0, 70, 0
2, 428215, Note_on_c, 0, 88, 0
2, 428220, Note_on_c, 0, 58, 0
2, 428229, Note_on_c, 0, 76, 75
2, 428301, Note_on_c, 0, 76, 0
2, 428307, Note_on_c, 0, 59, 99
2, 428309, Note_on_c, 0, 85, 115
2, 428326, Control_c, 0, 64, 63
2, 428343, Control_c, 0, 64, 127
2, 428378, Note_on_c, 0, 78, 103
2, 428422, Note_on_c, 0, 85, 0
2, 428446, Note_on_c, 0, 86, 93
2, 428449, Note_on_c, 0, 78, 0
2, 428449, Note_on_c, 0, 71, 100
2, 428489, Note_on_c, 0, 86, 0
2, 428514, Note_on_c, 0, 74, 82
2, 428516, Note_on_c, 0, 66, 88
2, 428520, Note_on_c, 0, 71, 0
2, 428544, Note_on_c, 0, 74, 0
2, 428570, Note_on_c, 0, 59, 0
2, 428574, Note_on_c, 0, 66, 0
2, 428594, Note_on_c, 0, 62, 93
2, 428596, Note_on_c, 0, 73, 98
2, 428613, Note_on_c, 0, 62, 0
2, 428662, Note_on_c, 0, 66, 98
2, 428665, Note_on_c, 0, 59, 76
2, 428674, Note_on_c, 0, 73, 0
2, 428727, Note_on_c, 0, 66, 0
2, 428732, Note_on_c, 0, 54, 80
2, 428738, Note_on_c, 0, 74, 82
2, 428741, Note_on_c, 0, 59, 0
2, 428781, Note_on_c, 0, 74, 0
2, 428793, Note_on_c, 0, 54, 0
2, 428794, Note_on_c, 0, 62, 75
2, 428799, Note_on_c, 0, 50, 82
2, 428822, Note_on_c, 0, 50, 0
2, 428829, Note_on_c, 0, 62, 0
2, 428868, Note_on_c, 0, 47, 76
2, 428877, Note_on_c, 0, 59, 92
2, 428939, Note_on_c, 0, 42, 72
2, 428952, Note_on_c, 0, 47, 0
2, 428952, Note_on_c, 0, 54, 79
2, 429005, Note_on_c, 0, 42, 0
2, 429016, Note_on_c, 0, 54, 0
2, 429020, Note_on_c, 0, 59, 0
2, 429024, Note_on_c, 0, 35, 97
2, 429030, Note_on_c, 0, 62, 98
2, 429065, Note_on_c, 0, 35, 0
2, 429069, Note_on_c, 0, 62, 0
2, 429094, Note_on_c, 0, 50, 78
2, 429141, Note_on_c, 0, 50, 0
2, 429202, Note_on_c, 0, 39, 101
2, 429205, Note_on_c, 0, 59, 108
2, 429221, Control_c, 0, 64, 63
2, 429225, Control_c, 0, 64, 0
2, 429286, Control_c, 0, 64, 63
2, 429288, Control_c, 0, 64, 127
2, 429325, Note_on_c, 0, 40, 71
2, 429326, Note_on_c, 0, 55, 78
2, 429341, Note_on_c, 0, 39, 0
2, 429380, Note_on_c, 0, 40, 0
2, 429414, Note_on_c, 0, 52, 86
2, 429421, Note_on_c, 0, 59, 0
2, 429421, Note_on_c, 0, 60, 94
2, 429429, Note_on_c, 0, 55, 0
2, 429447, Note_on_c, 0, 52, 0
2, 429452, Note_on_c, 0, 60, 0
2, 429483, Note_on_c, 0, 60, 94
2, 429530, Note_on_c, 0, 60, 0
2, 429553, Note_on_c, 0, 51, 92
2, 429553, Note_on_c, 0, 71, 97
2, 429622, Note_on_c, 0, 67, 91
2, 429625, Note_on_c, 0, 52, 80
2, 429643, Note_on_c, 0, 51, 0
2, 429679, Note_on_c, 0, 71, 0
2, 429679, Note_on_c, 0, 52, 0
2, 429690, Note_on_c, 0, 67, 0
2, 429699, Note_on_c, 0, 64, 93
2, 429699, Note_on_c, 0, 72, 76
2, 429725, Note_on_c, 0, 72, 0
2, 429739, Note_on_c, 0, 64, 0
2, 429762, Note_on_c, 0, 72, 92
2, 429822, Note_on_c, 0, 72, 0
2, 429832, Note_on_c, 0, 53, 86
2, 429834, Note_on_c, 0, 81, 108
2, 429844, Control_c, 0, 64, 63
2, 429847, Control_c, 0, 64, 0
2, 429879, Control_c, 0, 64, 63
2, 429885, Control_c, 0, 64, 127
2, 429905, Note_on_c, 0, 74, 96
2, 429906, Note_on_c, 0, 54, 104
2, 429928, Note_on_c, 0, 53, 0
2, 429959, Note_on_c, 0, 74, 0
2, 429992, Note_on_c, 0, 84, 99
2, 429993, Note_on_c, 0, 81, 0
2, 429993, Note_on_c, 0, 66, 109
2, 430028, Note_on_c, 0, 66, 0
2, 430030, Note_on_c, 0, 54, 0
2, 430032, Note_on_c, 0, 84, 0
2, 430051, Note_on_c, 0, 72, 88
2, 430102, Note_on_c, 0, 72, 0
2, 430116, Note_on_c, 0, 55, 106
2, 430124, Note_on_c, 0, 81, 99
2, 430138, Control_c, 0, 64, 63
2, 430141, Control_c, 0, 64, 0
2, 430166, Control_c, 0, 64, 63
2, 430174, Control_c, 0, 64, 127
2, 430189, Note_on_c, 0, 74, 80
2, 430256, Note_on_c, 0, 74, 0
2, 430278, Note_on_c, 0, 83, 99
2, 430278, Note_on_c, 0, 67, 96
2, 430283, Note_on_c, 0, 81, 0
2, 430332, Note_on_c, 0, 83, 0
2, 430348, Note_on_c, 0, 67, 0
2, 430355, Note_on_c, 0, 71, 79
2, 430361, Note_on_c, 0, 62, 84
2, 430383, Note_on_c, 0, 71, 0
2, 430392, Note_on_c, 0, 55, 0
2, 430429, Note_on_c, 0, 62, 0
2, 430434, Note_on_c, 0, 59, 65
2, 430435, Note_on_c, 0, 69, 97
2, 430455, Note_on_c, 0, 59, 0
2, 430498, Note_on_c, 0, 62, 83
2, 430499, Note_on_c, 0, 55, 82
2, 430556, Note_on_c, 0, 62, 0
2, 430572, Note_on_c, 0, 71, 101
2, 430575, Note_on_c, 0, 55, 0
2, 430579, Note_on_c, 0, 69, 0
2, 430579, Note_on_c, 0, 50, 78
2, 430615, Note_on_c, 0, 71, 0
2, 430635, Note_on_c, 0, 59, 53
2, 430638, Note_on_c, 0, 47, 94
2, 430648, Note_on_c, 0, 50, 0
2, 430651, Note_on_c, 0, 59, 0
2, 430666, Note_on_c, 0, 47, 0
2, 430708, Note_on_c, 0, 43, 81
2, 430712, Note_on_c, 0, 55, 93
2, 430773, Note_on_c, 0, 38, 79
2, 430773, Note_on_c, 0, 50, 86
2, 430779, Note_on_c, 0, 43, 0
2, 430834, Note_on_c, 0, 50, 0
2, 430842, Note_on_c, 0, 31, 114
2, 430847, Note_on_c, 0, 38, 0
2, 430850, Note_on_c, 0, 59, 96
2, 430851, Note_on_c, 0, 55, 0
2, 430887, Note_on_c, 0, 59, 0
2, 430891, Note_on_c, 0, 31, 0
2, 430906, Note_on_c, 0, 47, 87
2, 430948, Note_on_c, 0, 47, 0
2, 430996, Note_on_c, 0, 36, 112
2, 430999, Note_on_c, 0, 55, 92
2, 431033, Control_c, 0, 64, 63
2, 431037, Control_c, 0, 64, 0
2, 431115, Note_on_c, 0, 37, 90
2, 431117, Control_c, 0, 64, 63
2, 431118, Control_c, 0, 64, 127
2, 431118, Note_on_c, 0, 52, 50
2, 431144, Note_on_c, 0, 36, 0
2, 431205, Note_on_c, 0, 49, 100
2, 431206, Note_on_c, 0, 57, 84
2, 431208, Note_on_c, 0, 37, 0
2, 431211, Note_on_c, 0, 52, 0
2, 431220, Note_on_c, 0, 55, 0
2, 431234, Note_on_c, 0, 49, 0
2, 431241, Note_on_c, 0, 57, 0
2, 431268, Note_on_c, 0, 57, 59
2, 431312, Note_on_c, 0, 57, 0
2, 431334, Note_on_c, 0, 48, 96
2, 431334, Note_on_c, 0, 67, 97
2, 431404, Note_on_c, 0, 49, 104
2, 431416, Note_on_c, 0, 64, 52
2, 431437, Note_on_c, 0, 48, 0
2, 431463, Note_on_c, 0, 64, 0
2, 431475, Note_on_c, 0, 67, 0
2, 431486, Note_on_c, 0, 69, 75
2, 431487, Note_on_c, 0, 61, 114
2, 431496, Note_on_c, 0, 51, 46
2, 431505, Note_on_c, 0, 69, 0
2, 431511, Note_on_c, 0, 51, 0
2, 431513, Note_on_c, 0, 49, 0
2, 431541, Note_on_c, 0, 69, 88
2, 431574, Note_on_c, 0, 61, 0
2, 431612, Note_on_c, 0, 69, 0
2, 431620, Note_on_c, 0, 78, 113
2, 431621, Note_on_c, 0, 50, 99
2, 431638, Control_c, 0, 64, 63
2, 431642, Control_c, 0, 64, 0
2, 431673, Control_c, 0, 64, 63
2, 431680, Control_c, 0, 64, 127
2, 431688, Note_on_c, 0, 51, 93
2, 431692, Note_on_c, 0, 71, 88
2, 431705, Note_on_c, 0, 50, 0
2, 431760, Note_on_c, 0, 71, 0
2, 431770, Note_on_c, 0, 81, 101
2, 431775, Note_on_c, 0, 63, 101
2, 431776, Note_on_c, 0, 78, 0
2, 431786, Note_on_c, 0, 51, 0
2, 431812, Note_on_c, 0, 81, 0
2, 431816, Note_on_c, 0, 63, 0
2, 431829, Note_on_c, 0, 69, 76
2, 431886, Note_on_c, 0, 69, 0
2, 431913, Note_on_c, 0, 59, 90
2, 431914, Note_on_c, 0, 64, 108
2, 431914, Note_on_c, 0, 52, 91
2, 431914, Note_on_c, 0, 55, 81
2, 431919, Note_on_c, 0, 67, 99
2, 431949, Control_c, 0, 64, 63
2, 431952, Control_c, 0, 64, 0
2, 432023, Control_c, 0, 64, 63
2, 432025, Control_c, 0, 64, 127
2, 432030, Note_on_c, 0, 71, 84
2, 432034, Note_on_c, 0, 67, 0
2, 432086, Note_on_c, 0, 71, 0
2, 432104, Note_on_c, 0, 79, 99
2, 432170, Note_on_c, 0, 78, 93
2, 432177, Note_on_c, 0, 79, 0
2, 432201, Note_on_c, 0, 52, 0
2, 432223, Note_on_c, 0, 55, 0
2, 432224, Note_on_c, 0, 64, 0
2, 432230, Note_on_c, 0, 78, 0
2, 432231, Note_on_c, 0, 59, 0
2, 432237, Note_on_c, 0, 76, 99
2, 432300, Note_on_c, 0, 79, 106
2, 432310, Note_on_c, 0, 76, 0
2, 432337, Note_on_c, 0, 79, 0
2, 432373, Note_on_c, 0, 91, 98
2, 432439, Note_on_c, 0, 90, 98
2, 432458, Note_on_c, 0, 91, 0
2, 432497, Note_on_c, 0, 59, 93
2, 432497, Note_on_c, 0, 55, 83
2, 432498, Note_on_c, 0, 64, 100
2, 432506, Note_on_c, 0, 88, 102
2, 432523, Control_c, 0, 64, 63
2, 432528, Control_c, 0, 64, 0
2, 432529, Note_on_c, 0, 90, 0
2, 432577, Note_on_c, 0, 86, 91
2, 432580, Note_on_c, 0, 88, 0
2, 432613, Control_c, 0, 64, 63
2, 432615, Control_c, 0, 64, 127
2, 432654, Note_on_c, 0, 59, 0
2, 432654, Note_on_c, 0, 64, 0
2, 432659, Note_on_c, 0, 55, 0
2, 432660, Note_on_c, 0, 85, 100
2, 432672, Note_on_c, 0, 86, 0
2, 432721, Note_on_c, 0, 83, 98
2, 432736, Control_c, 0, 64, 63
2, 432738, Control_c, 0, 64, 0
2, 432745, Note_on_c, 0, 85, 0
2, 432790, Note_on_c, 0, 85, 96
2, 432791, Note_on_c, 0, 61, 107
2, 432792, Note_on_c, 0, 64, 101
2, 432792, Note_on_c, 0, 54, 110
2, 432793, Note_on_c, 0, 82, 101
2, 432797, Note_on_c, 0, 83, 0
2, 432803, Control_c, 0, 64, 63
2, 432806, Control_c, 0, 64, 127
2, 432858, Note_on_c, 0, 85, 0
2, 432872, Note_on_c, 0, 79, 84
2, 432874, Note_on_c, 0, 82, 0
2, 432930, Note_on_c, 0, 79, 0
2, 432955, Note_on_c, 0, 78, 92
2, 433021, Note_on_c, 0, 78, 0
2, 433023, Note_on_c, 0, 76, 71
2, 433084, Note_on_c, 0, 76, 0
2, 433089, Note_on_c, 0, 74, 86
2, 433126, Note_on_c, 0, 64, 0
2, 433147, Note_on_c, 0, 61, 0
2, 433153, Note_on_c, 0, 73, 101
2, 433154, Note_on_c, 0, 74, 0
2, 433183, Note_on_c, 0, 54, 0
2, 433219, Note_on_c, 0, 71, 83
2, 433231, Note_on_c, 0, 73, 0
2, 433236, Control_c, 0, 64, 63
2, 433240, Control_c, 0, 64, 0
2, 433284, Note_on_c, 0, 70, 112
2, 433299, Note_on_c, 0, 71, 0
2, 433356, Note_on_c, 0, 54, 105
2, 433357, Note_on_c, 0, 46, 113
2, 433357, Note_on_c, 0, 78, 104
2, 433358, Note_on_c, 0, 73, 106
2, 433376, Note_on_c, 0, 70, 0
2, 433386, Control_c, 0, 64, 63
2, 433387, Control_c, 0, 64, 127
2, 433429, Control_c, 0, 64, 63
2, 433430, Note_on_c, 0, 70, 99
2, 433434, Control_c, 0, 64, 0
2, 433437, Note_on_c, 0, 54, 0
2, 433440, Note_on_c, 0, 78, 0
2, 433443, Note_on_c, 0, 46, 0
2, 433459, Note_on_c, 0, 73, 0
2, 433509, Note_on_c, 0, 67, 80
2, 433513, Note_on_c, 0, 70, 0
2, 433572, Note_on_c, 0, 67, 0
2, 433576, Note_on_c, 0, 66, 101
2, 433637, Note_on_c, 0, 66, 0
2, 433639, Note_on_c, 0, 59, 101
2, 433642, Note_on_c, 0, 47, 93
2, 433642, Note_on_c, 0, 54, 95
2, 433648, Note_on_c, 0, 62, 88
2, 433657, Control_c, 0, 64, 63
2, 433658, Control_c, 0, 64, 127
2, 433718, Note_on_c, 0, 62, 0
2, 433723, Note_on_c, 0, 66, 92
2, 433764, Note_on_c, 0, 66, 0
2, 433785, Note_on_c, 0, 74, 77
2, 433837, Note_on_c, 0, 59, 0
2, 433857, Note_on_c, 0, 73, 93
2, 433864, Note_on_c, 0, 74, 0
2, 433877, Note_on_c, 0, 47, 0
2, 433893, Note_on_c, 0, 54, 0
2, 433921, Note_on_c, 0, 73, 0
2, 433928, Control_c, 0, 64, 63
2, 433931, Control_c, 0, 64, 0
2, 433936, Note_on_c, 0, 71, 91
2, 433959, Control_c, 0, 64, 63
2, 433964, Control_c, 0, 64, 127
2, 434004, Note_on_c, 0, 74, 93
2, 434007, Note_on_c, 0, 71, 0
2, 434043, Note_on_c, 0, 74, 0
2, 434083, Note_on_c, 0, 86, 87
2, 434157, Note_on_c, 0, 85, 91
2, 434186, Note_on_c, 0, 86, 0
2, 434232, Note_on_c, 0, 83, 81
2, 434235, Note_on_c, 0, 54, 104
2, 434235, Note_on_c, 0, 59, 101
2, 434236, Note_on_c, 0, 50, 90
2, 434253, Note_on_c, 0, 85, 0
2, 434274, Control_c, 0, 64, 63
2, 434276, Control_c, 0, 64, 0
2, 434301, Note_on_c, 0, 81, 91
2, 434306, Note_on_c, 0, 83, 0
2, 434321, Control_c, 0, 64, 63
2, 434325, Control_c, 0, 64, 127
2, 434364, Note_on_c, 0, 59, 0
2, 434376, Note_on_c, 0, 80, 104
2, 434382, Note_on_c, 0, 50, 0
2, 434393, Note_on_c, 0, 54, 0
2, 434395, Note_on_c, 0, 81, 0
2, 434429, Note_on_c, 0, 78, 110
2, 434460, Note_on_c, 0, 80, 0
2, 434490, Control_c, 0, 64, 63
2, 434492, Control_c, 0, 64, 0
2, 434507, Note_on_c, 0, 80, 104
2, 434508, Note_on_c, 0, 59, 100
2, 434508, Note_on_c, 0, 56, 104
2, 434508, Note_on_c, 0, 49, 108
2, 434509, Note_on_c, 0, 77, 98
2, 434532, Note_on_c, 0, 78, 0
2, 434549, Control_c, 0, 64, 63
2, 434552, Control_c, 0, 64, 127
2, 434584, Note_on_c, 0, 80, 0
2, 434590, Note_on_c, 0, 74, 77
2, 434594, Note_on_c, 0, 77, 0
2, 434653, Note_on_c, 0, 74, 0
2, 434669, Note_on_c, 0, 73, 97
2, 434729, Note_on_c, 0, 71, 84
2, 434734, Note_on_c, 0, 73, 0
2, 434771, Note_on_c, 0, 71, 0
2, 434799, Note_on_c, 0, 69, 91
2, 434823, Note_on_c, 0, 59, 0
2, 434844, Note_on_c, 0, 56, 0
2, 434862, Note_on_c, 0, 68, 98
2, 434866, Note_on_c, 0, 49, 0
2, 434883, Note_on_c, 0, 69, 0
2, 434906, Control_c, 0, 64, 63
2, 434911, Control_c, 0, 64, 0
2, 434922, Note_on_c, 0, 66, 107
2, 434953, Note_on_c, 0, 68, 0
2, 434981, Note_on_c, 0, 65, 96
2, 435013, Note_on_c, 0, 66, 0
2, 435061, Note_on_c, 0, 49, 109
2, 435062, Note_on_c, 0, 41, 102
2, 435066, Note_on_c, 0, 73, 106
2, 435070, Note_on_c, 0, 68, 100
2, 435085, Control_c, 0, 64, 63
2, 435086, Note_on_c, 0, 65, 0
2, 435087, Control_c, 0, 64, 127
2, 435144, Note_on_c, 0, 65, 85
2, 435149, Note_on_c, 0, 68, 0
2, 435157, Note_on_c, 0, 73, 0
2, 435172, Note_on_c, 0, 41, 0
2, 435187, Note_on_c, 0, 65, 0
2, 435193, Note_on_c, 0, 49, 0
2, 435226, Note_on_c, 0, 62, 80
2, 435286, Note_on_c, 0, 61, 105
2, 435291, Note_on_c, 0, 62, 0
2, 435400, Note_on_c, 0, 57, 102
2, 435401, Note_on_c, 0, 54, 127
2, 435404, Note_on_c, 0, 42, 120
2, 435433, Control_c, 0, 64, 63
2, 435434, Note_on_c, 0, 61, 0
2, 435438, Control_c, 0, 64, 0
2, 435544, Note_on_c, 0, 61, 104
2, 435579, Control_c, 0, 64, 127
2, 435587, Note_on_c, 0, 57, 0
2, 435621, Note_on_c, 0, 69, 84
2, 435623, Note_on_c, 0, 61, 0
2, 435693, Note_on_c, 0, 68, 98
2, 435703, Note_on_c, 0, 69, 0
2, 435762, Note_on_c, 0, 54, 0
2, 435764, Note_on_c, 0, 66, 107
2, 435768, Note_on_c, 0, 42, 0
2, 435784, Note_on_c, 0, 68, 0
2, 435800, Note_on_c, 0, 66, 0
2, 435822, Note_on_c, 0, 69, 83
2, 435869, Note_on_c, 0, 69, 0
2, 435897, Note_on_c, 0, 81, 98
2, 435898, Note_on_c, 0, 53, 102
2, 435900, Note_on_c, 0, 41, 99
2, 435924, Control_c, 0, 64, 63
2, 435932, Control_c, 0, 64, 0
2, 435935, Control_c, 0, 64, 63
2, 435948, Control_c, 0, 64, 127
2, 435952, Note_on_c, 0, 53, 0
2, 435952, Note_on_c, 0, 41, 0
2, 435967, Note_on_c, 0, 80, 88
2, 435970, Note_on_c, 0, 81, 0
2, 436042, Note_on_c, 0, 54, 107
2, 436043, Note_on_c, 0, 78, 105
2, 436044, Note_on_c, 0, 42, 92
2, 436060, Note_on_c, 0, 80, 0
2, 436067, Note_on_c, 0, 42, 0
2, 436069, Note_on_c, 0, 54, 0
2, 436076, Note_on_c, 0, 78, 0
2, 436099, Note_on_c, 0, 81, 89
2, 436141, Note_on_c, 0, 81, 0
2, 436176, Note_on_c, 0, 57, 102
2, 436179, Note_on_c, 0, 93, 96
2, 436179, Note_on_c, 0, 45, 99
2, 436202, Note_on_c, 0, 57, 0
2, 436215, Note_on_c, 0, 45, 0
2, 436247, Note_on_c, 0, 92, 99
2, 436255, Note_on_c, 0, 93, 0
2, 436359, Note_on_c, 0, 90, 106
2, 436360, Note_on_c, 0, 52, 120
2, 436361, Note_on_c, 0, 40, 117
2, 436362, Control_c, 0, 64, 63
2, 436366, Control_c, 0, 64, 0
2, 436378, Note_on_c, 0, 92, 0
2, 436418, Control_c, 0, 64, 63
2, 436423, Control_c, 0, 64, 127
2, 436476, Note_on_c, 0, 81, 77
2, 436482, Note_on_c, 0, 90, 0
2, 436517, Note_on_c, 0, 81, 0
2, 436561, Note_on_c, 0, 81, 85
2, 436627, Note_on_c, 0, 80, 104
2, 436640, Note_on_c, 0, 81, 0
2, 436701, Note_on_c, 0, 78, 103
2, 436718, Note_on_c, 0, 52, 0
2, 436722, Note_on_c, 0, 40, 0
2, 436723, Note_on_c, 0, 80, 0
2, 436750, Note_on_c, 0, 78, 0
2, 436753, Note_on_c, 0, 69, 90
2, 436786, Note_on_c, 0, 69, 0
2, 436833, Note_on_c, 0, 69, 97
2, 436834, Note_on_c, 0, 51, 114
2, 436834, Note_on_c, 0, 39, 105
2, 436872, Note_on_c, 0, 51, 0
2, 436875, Note_on_c, 0, 39, 0
2, 436898, Note_on_c, 0, 68, 101
2, 436908, Note_on_c, 0, 69, 0
2, 436975, Note_on_c, 0, 66, 103
2, 436977, Note_on_c, 0, 52, 107
2, 436979, Note_on_c, 0, 40, 91
2, 436982, Note_on_c, 0, 68, 0
2, 437004, Note_on_c, 0, 40, 0
2, 437010, Note_on_c, 0, 52, 0
2, 437015, Note_on_c, 0, 66, 0
2, 437037, Note_on_c, 0, 57, 95
2, 437081, Note_on_c, 0, 57, 0
2, 437124, Note_on_c, 0, 57, 99
2, 437125, Note_on_c, 0, 45, 93
2, 437188, Note_on_c, 0, 45, 0
2, 437208, Note_on_c, 0, 56, 103
2, 437226, Note_on_c, 0, 57, 0
2, 437316, Note_on_c, 0, 54, 105
2, 437328, Note_on_c, 0, 50, 120
2, 437328, Note_on_c, 0, 38, 112
2, 437338, Note_on_c, 0, 56, 0
2, 437354, Control_c, 0, 64, 63
2, 437359, Control_c, 0, 64, 0
2, 437414, Control_c, 0, 64, 63
2, 437417, Control_c, 0, 64, 127
2, 437428, Note_on_c, 0, 54, 0
2, 437432, Note_on_c, 0, 57, 84
2, 437482, Note_on_c, 0, 57, 0
2, 437509, Note_on_c, 0, 69, 86
2, 437570, Note_on_c, 0, 68, 96
2, 437577, Note_on_c, 0, 69, 0
2, 437604, Note_on_c, 0, 50, 0
2, 437631, Note_on_c, 0, 38, 0
2, 437638, Note_on_c, 0, 66, 106
2, 437658, Note_on_c, 0, 68, 0
2, 437675, Note_on_c, 0, 66, 0
2, 437701, Note_on_c, 0, 69, 81
2, 437736, Note_on_c, 0, 69, 0
2, 437772, Note_on_c, 0, 81, 92
2, 437779, Note_on_c, 0, 49, 115
2, 437782, Note_on_c, 0, 37, 103
2, 437820, Note_on_c, 0, 49, 0
2, 437832, Note_on_c, 0, 37, 0
2, 437834, Note_on_c, 0, 80, 96
2, 437846, Note_on_c, 0, 81, 0
2, 437919, Note_on_c, 0, 50, 109
2, 437921, Note_on_c, 0, 38, 104
2, 437923, Note_on_c, 0, 78, 106
2, 437938, Note_on_c, 0, 80, 0
2, 437945, Note_on_c, 0, 38, 0
2, 437948, Note_on_c, 0, 50, 0
2, 437956, Note_on_c, 0, 78, 0
2, 437989, Note_on_c, 0, 79, 63
2, 437990, Note_on_c, 0, 81, 76
2, 438009, Note_on_c, 0, 79, 0
2, 438019, Note_on_c, 0, 81, 0
2, 438078, Note_on_c, 0, 57, 113
2, 438081, Note_on_c, 0, 45, 103
2, 438090, Note_on_c, 0, 93, 96
2, 438101, Note_on_c, 0, 57, 0
2, 438120, Note_on_c, 0, 45, 0
2, 438168, Note_on_c, 0, 92, 97
2, 438178, Note_on_c, 0, 93, 0
2, 438250, Note_on_c, 0, 49, 119
2, 438252, Note_on_c, 0, 37, 110
2, 438255, Note_on_c, 0, 90, 100
2, 438267, Note_on_c, 0, 92, 0
2, 438267, Control_c, 0, 64, 63
2, 438272, Control_c, 0, 64, 0
2, 438343, Control_c, 0, 64, 63
2, 438346, Control_c, 0, 64, 127
2, 438355, Note_on_c, 0, 81, 83
2, 438358, Note_on_c, 0, 90, 0
2, 438387, Note_on_c, 0, 49, 0
2, 438389, Note_on_c, 0, 81, 0
2, 438390, Note_on_c, 0, 37, 0
2, 438411, Control_c, 0, 64, 63
2, 438413, Control_c, 0, 64, 0
2, 438431, Note_on_c, 0, 81, 101
2, 438469, Control_c, 0, 64, 63
2, 438470, Control_c, 0, 64, 127
2, 438493, Note_on_c, 0, 80, 104
2, 438508, Note_on_c, 0, 81, 0
2, 438556, Note_on_c, 0, 49, 115
2, 438559, Note_on_c, 0, 37, 105
2, 438564, Note_on_c, 0, 78, 101
2, 438575, Note_on_c, 0, 80, 0
2, 438609, Note_on_c, 0, 78, 0
2, 438628, Note_on_c, 0, 69, 59
2, 438656, Note_on_c, 0, 69, 0
2, 438691, Note_on_c, 0, 37, 0
2, 438699, Note_on_c, 0, 49, 0
2, 438705, Note_on_c, 0, 69, 84
2, 438766, Note_on_c, 0, 68, 94
2, 438781, Note_on_c, 0, 69, 0
2, 438838, Note_on_c, 0, 49, 118
2, 438841, Note_on_c, 0, 37, 113
2, 438845, Note_on_c, 0, 66, 105
2, 438860, Note_on_c, 0, 68, 0
2, 438893, Note_on_c, 0, 66, 0
2, 438922, Note_on_c, 0, 57, 46
2, 438945, Note_on_c, 0, 57, 0
2, 438977, Note_on_c, 0, 49, 0
2, 438979, Note_on_c, 0, 37, 0
2, 439017, Note_on_c, 0, 57, 92
2, 439100, Note_on_c, 0, 56, 100
2, 439126, Note_on_c, 0, 57, 0
2, 439206, Note_on_c, 0, 56, 0
2, 439208, Note_on_c, 0, 48, 122
2, 439209, Note_on_c, 0, 54, 115
2, 439210, Note_on_c, 0, 36, 116
2, 439237, Control_c, 0, 64, 127
2, 439305, Note_on_c, 0, 54, 0
2, 439328, Note_on_c, 0, 57, 90
2, 439404, Note_on_c, 0, 57, 0
2, 439421, Note_on_c, 0, 63, 101
2, 439427, Control_c, 0, 64, 63
2, 439431, Control_c, 0, 64, 0
2, 439453, Control_c, 0, 64, 63
2, 439456, Control_c, 0, 64, 127
2, 439500, Note_on_c, 0, 63, 0
2, 439500, Note_on_c, 0, 69, 91
2, 439570, Note_on_c, 0, 69, 0
2, 439594, Note_on_c, 0, 66, 104
2, 439647, Note_on_c, 0, 66, 0
2, 439647, Note_on_c, 0, 36, 0
2, 439668, Note_on_c, 0, 69, 84
2, 439672, Note_on_c, 0, 48, 0
2, 439734, Note_on_c, 0, 69, 0
2, 439743, Note_on_c, 0, 75, 106
2, 439792, Note_on_c, 0, 75, 0
2, 439811, Note_on_c, 0, 81, 80
2, 439869, Note_on_c, 0, 81, 0
2, 439879, Note_on_c, 0, 63, 127
2, 439888, Note_on_c, 0, 78, 100
2, 439922, Note_on_c, 0, 78, 0
2, 439950, Note_on_c, 0, 63, 0
2, 439950, Note_on_c, 0, 81, 99
2, 440012, Note_on_c, 0, 81, 0
2, 440025, Note_on_c, 0, 87, 114
2, 440076, Control_c, 0, 64, 63
2, 440079, Control_c, 0, 64, 0
2, 440084, Note_on_c, 0, 87, 0
2, 440095, Note_on_c, 0, 48, 121
2, 440096, Note_on_c, 0, 93, 106
2, 440108, Control_c, 0, 64, 63
2, 440113, Control_c, 0, 64, 127
2, 440149, Note_on_c, 0, 48, 0
2, 440169, Note_on_c, 0, 93, 0
2, 440213, Note_on_c, 0, 64, 116
2, 440218, Note_on_c, 0, 91, 111
2, 440248, Note_on_c, 0, 64, 0
2, 440311, Note_on_c, 0, 88, 107
2, 440322, Note_on_c, 0, 91, 0
2, 440388, Note_on_c, 0, 84, 100
2, 440407, Note_on_c, 0, 88, 0
2, 440445, Note_on_c, 0, 79, 86
2, 440449, Note_on_c, 0, 84, 0
2, 440475, Note_on_c, 0, 79, 0
2, 440516, Note_on_c, 0, 48, 120
2, 440517, Note_on_c, 0, 76, 109
2, 440518, Note_on_c, 0, 36, 117
2, 440589, Note_on_c, 0, 72, 100
2, 440598, Note_on_c, 0, 76, 0
2, 440638, Note_on_c, 0, 72, 0
2, 440640, Note_on_c, 0, 48, 0
2, 440655, Note_on_c, 0, 67, 77
2, 440674, Note_on_c, 0, 67, 0
2, 440677, Note_on_c, 0, 36, 0
2, 440719, Note_on_c, 0, 64, 94
2, 440748, Note_on_c, 0, 64, 0
2, 440796, Note_on_c, 0, 47, 121
2, 440798, Note_on_c, 0, 35, 114
2, 440799, Note_on_c, 0, 59, 120
2, 440824, Note_on_c, 0, 47, 0
2, 440837, Note_on_c, 0, 35, 0
2, 440868, Note_on_c, 0, 55, 97
2, 440874, Note_on_c, 0, 59, 0
2, 440927, Note_on_c, 0, 52, 102
2, 440935, Note_on_c, 0, 55, 0
2, 440971, Note_on_c, 0, 52, 0
2, 440991, Note_on_c, 0, 47, 100
2, 441024, Note_on_c, 0, 47, 0
2, 441061, Control_c, 0, 64, 63
2, 441066, Control_c, 0, 64, 0
2, 441072, Note_on_c, 0, 46, 127
2, 441072, Note_on_c, 0, 34, 121
2, 441088, Control_c, 0, 64, 63
2, 441093, Control_c, 0, 64, 127
2, 441108, Note_on_c, 0, 34, 0
2, 441120, Note_on_c, 0, 46, 0
2, 441152, Note_on_c, 0, 52, 99
2, 441212, Note_on_c, 0, 52, 0
2, 441221, Note_on_c, 0, 55, 89
2, 441259, Note_on_c, 0, 55, 0
2, 441282, Note_on_c, 0, 64, 96
2, 441342, Note_on_c, 0, 64, 0
2, 441356, Note_on_c, 0, 61, 105
2, 441388, Note_on_c, 0, 61, 0
2, 441421, Note_on_c, 0, 64, 94
2, 441462, Note_on_c, 0, 64, 0
2, 441491, Note_on_c, 0, 67, 98
2, 441519, Note_on_c, 0, 67, 0
2, 441547, Note_on_c, 0, 76, 106
2, 441605, Note_on_c, 0, 76, 0
2, 441617, Note_on_c, 0, 58, 124
2, 441621, Note_on_c, 0, 73, 108
2, 441649, Note_on_c, 0, 58, 0
2, 441653, Note_on_c, 0, 73, 0
2, 441686, Note_on_c, 0, 76, 80
2, 441729, Note_on_c, 0, 76, 0
2, 441762, Note_on_c, 0, 79, 100
2, 441794, Note_on_c, 0, 79, 0
2, 441815, Note_on_c, 0, 88, 107
2, 441882, Note_on_c, 0, 73, 125
2, 441891, Note_on_c, 0, 85, 107
2, 441892, Note_on_c, 0, 88, 0
2, 441925, Note_on_c, 0, 85, 0
2, 441956, Note_on_c, 0, 88, 97
2, 442003, Note_on_c, 0, 73, 0
2, 442005, Note_on_c, 0, 88, 0
2, 442031, Note_on_c, 0, 91, 108
2, 442074, Note_on_c, 0, 91, 0
2, 442097, Note_on_c, 0, 100, 107
2, 442157, Note_on_c, 0, 97, 89
2, 442161, Note_on_c, 0, 100, 0
2, 442231, Note_on_c, 0, 91, 95
2, 442245, Note_on_c, 0, 97, 0
2, 442275, Note_on_c, 0, 91, 0
2, 442301, Note_on_c, 0, 88, 71
2, 442332, Note_on_c, 0, 88, 0
2, 442365, Note_on_c, 0, 85, 101
2, 442438, Note_on_c, 0, 79, 90
2, 442439, Note_on_c, 0, 46, 113
2, 442442, Note_on_c, 0, 34, 112
2, 442445, Note_on_c, 0, 85, 0
2, 442483, Note_on_c, 0, 79, 0
2, 442503, Note_on_c, 0, 76, 85
2, 442540, Note_on_c, 0, 76, 0
2, 442585, Note_on_c, 0, 73, 112
2, 442614, Note_on_c, 0, 34, 0
2, 442618, Note_on_c, 0, 46, 0
2, 442625, Note_on_c, 0, 73, 0
2, 442650, Note_on_c, 0, 64, 111
2, 442683, Note_on_c, 0, 64, 0
2, 442748, Note_on_c, 0, 47, 118
2, 442748, Note_on_c, 0, 35, 116
2, 442756, Note_on_c, 0, 71, 124
2, 442756, Control_c, 0, 64, 63
2, 442762, Control_c, 0, 64, 0
2, 442811, Control_c, 0, 64, 63
2, 442812, Control_c, 0, 64, 127
2, 442841, Note_on_c, 0, 71, 0
2, 442846, Note_on_c, 0, 35, 0
2, 442851, Note_on_c, 0, 47, 0
2, 442905, Control_c, 0, 64, 63
2, 442905, Control_c, 0, 64, 0
2, 442977, Note_on_c, 0, 58, 62
2, 442988, Control_c, 0, 64, 63
2, 442989, Control_c, 0, 64, 127
2, 443068, Note_on_c, 0, 58, 0
2, 443077, Note_on_c, 0, 59, 52
2, 443169, Note_on_c, 0, 63, 72
2, 443176, Note_on_c, 0, 54, 54
2, 443187, Control_c, 0, 64, 63
2, 443189, Control_c, 0, 64, 0
2, 443195, Note_on_c, 0, 59, 0
2, 443206, Control_c, 0, 64, 63
2, 443211, Control_c, 0, 64, 127
2, 443247, Note_on_c, 0, 59, 61
2, 443253, Note_on_c, 0, 51, 61
2, 443280, Note_on_c, 0, 63, 0
2, 443286, Note_on_c, 0, 54, 0
2, 443300, Note_on_c, 0, 59, 0
2, 443317, Note_on_c, 0, 47, 55
2, 443322, Note_on_c, 0, 51, 0
2, 443325, Note_on_c, 0, 71, 68
2, 443361, Note_on_c, 0, 71, 0
2, 443375, Note_on_c, 0, 59, 60
2, 443386, Note_on_c, 0, 51, 63
2, 443427, Control_c, 0, 64, 63
2, 443428, Control_c, 0, 64, 0
2, 443430, Note_on_c, 0, 47, 0
2, 443445, Note_on_c, 0, 57, 66
2, 443448, Control_c, 0, 64, 63
2, 443452, Note_on_c, 0, 66, 84
2, 443454, Note_on_c, 0, 51, 0
2, 443455, Control_c, 0, 64, 127
2, 443458, Note_on_c, 0, 59, 0
2, 443511, Note_on_c, 0, 59, 53
2, 443517, Note_on_c, 0, 51, 50
2, 443544, Note_on_c, 0, 66, 0
2, 443566, Note_on_c, 0, 57, 0
2, 443577, Note_on_c, 0, 51, 0
2, 443578, Note_on_c, 0, 59, 0
2, 443584, Note_on_c, 0, 47, 63
2, 443590, Note_on_c, 0, 71, 75
2, 443629, Note_on_c, 0, 71, 0
2, 443640, Note_on_c, 0, 59, 67
2, 443652, Note_on_c, 0, 51, 74
2, 443656, Note_on_c, 0, 47, 0
2, 443676, Control_c, 0, 64, 63
2, 443679, Control_c, 0, 64, 0
2, 443704, Note_on_c, 0, 59, 0
2, 443705, Control_c, 0, 64, 63
2, 443711, Control_c, 0, 64, 127
2, 443720, Note_on_c, 0, 54, 70
2, 443720, Note_on_c, 0, 62, 65
2, 443725, Note_on_c, 0, 51, 0
2, 443775, Note_on_c, 0, 62, 0
2, 443778, Note_on_c, 0, 54, 0
2, 443784, Note_on_c, 0, 52, 64
2, 443787, Note_on_c, 0, 60, 71
2, 443834, Note_on_c, 0, 60, 0
2, 443839, Note_on_c, 0, 52, 0
2, 443842, Note_on_c, 0, 47, 62
2, 443852, Note_on_c, 0, 72, 79
2, 443895, Note_on_c, 0, 72, 0
2, 443900, Control_c, 0, 64, 63
2, 443902, Control_c, 0, 64, 0
2, 443910, Note_on_c, 0, 60, 64
2, 443910, Note_on_c, 0, 52, 71
2, 443928, Control_c, 0, 64, 63
2, 443931, Note_on_c, 0, 47, 0
2, 443934, Control_c, 0, 64, 127
2, 443976, Note_on_c, 0, 60, 0
2, 443977, Note_on_c, 0, 55, 72
2, 443979, Note_on_c, 0, 64, 81
2, 443980, Note_on_c, 0, 52, 0
2, 444041, Note_on_c, 0, 64, 0
2, 444043, Note_on_c, 0, 60, 81
2, 444047, Note_on_c, 0, 52, 76
2, 444050, Note_on_c, 0, 55, 0
2, 444102, Note_on_c, 0, 60, 0
2, 444111, Note_on_c, 0, 47, 85
2, 444117, Note_on_c, 0, 52, 0
2, 444119, Control_c, 0, 64, 63
2, 444121, Note_on_c, 0, 72, 83
2, 444122, Control_c, 0, 64, 0
2, 444139, Control_c, 0, 64, 63
2, 444146, Control_c, 0, 64, 127
2, 444172, Note_on_c, 0, 72, 0
2, 444174, Note_on_c, 0, 60, 79
2, 444177, Note_on_c, 0, 52, 82
2, 444214, Note_on_c, 0, 47, 0
2, 444239, Note_on_c, 0, 60, 0
2, 444241, Note_on_c, 0, 59, 77
2, 444242, Note_on_c, 0, 67, 86
2, 444244, Note_on_c, 0, 52, 0
2, 444247, Control_c, 0, 64, 63
2, 444252, Control_c, 0, 64, 0
2, 444259, Control_c, 0, 64, 63
2, 444268, Control_c, 0, 64, 127
2, 444302, Note_on_c, 0, 52, 80
2, 444303, Note_on_c, 0, 60, 71
2, 444316, Note_on_c, 0, 59, 0
2, 444317, Note_on_c, 0, 67, 0
2, 444368, Note_on_c, 0, 47, 85
2, 444375, Note_on_c, 0, 52, 0
2, 444377, Note_on_c, 0, 60, 0
2, 444380, Control_c, 0, 64, 63
2, 444382, Note_on_c, 0, 72, 98
2, 444384, Control_c, 0, 64, 127
2, 444424, Note_on_c, 0, 72, 0
2, 444435, Note_on_c, 0, 60, 81
2, 444437, Note_on_c, 0, 52, 77
2, 444467, Control_c, 0, 64, 63
2, 444483, Note_on_c, 0, 60, 0
2, 444486, Control_c, 0, 64, 127
2, 444501, Note_on_c, 0, 52, 0
2, 444501, Note_on_c, 0, 62, 85
2, 444506, Note_on_c, 0, 54, 97
2, 444546, Note_on_c, 0, 62, 0
2, 444547, Note_on_c, 0, 47, 0
2, 444560, Note_on_c, 0, 53, 79
2, 444565, Note_on_c, 0, 54, 0
2, 444565, Note_on_c, 0, 61, 106
2, 444627, Note_on_c, 0, 61, 0
2, 444637, Control_c, 0, 64, 63
2, 444638, Note_on_c, 0, 47, 76
2, 444640, Note_on_c, 0, 73, 106
2, 444642, Control_c, 0, 64, 0
2, 444649, Note_on_c, 0, 53, 0
2, 444655, Control_c, 0, 64, 63
2, 444665, Control_c, 0, 64, 127
2, 444688, Note_on_c, 0, 61, 89
2, 444697, Note_on_c, 0, 53, 77
2, 444702, Note_on_c, 0, 73, 0
2, 444748, Control_c, 0, 64, 63
2, 444751, Note_on_c, 0, 61, 0
2, 444753, Control_c, 0, 64, 0
2, 444761, Note_on_c, 0, 56, 94
2, 444765, Note_on_c, 0, 65, 79
2, 444768, Control_c, 0, 64, 63
2, 444771, Note_on_c, 0, 53, 0
2, 444776, Control_c, 0, 64, 127
2, 444803, Note_on_c, 0, 47, 0
2, 444820, Note_on_c, 0, 61, 89
2, 444824, Note_on_c, 0, 53, 75
2, 444825, Note_on_c, 0, 65, 0
2, 444828, Note_on_c, 0, 56, 0
2, 444882, Control_c, 0, 64, 63
2, 444883, Note_on_c, 0, 61, 0
2, 444886, Control_c, 0, 64, 0
2, 444896, Note_on_c, 0, 47, 92
2, 444899, Note_on_c, 0, 73, 110
2, 444901, Note_on_c, 0, 53, 0
2, 444905, Control_c, 0, 64, 63
2, 444913, Control_c, 0, 64, 127
2, 444951, Note_on_c, 0, 61, 97
2, 444957, Note_on_c, 0, 53, 89
2, 444965, Note_on_c, 0, 73, 0
2, 445012, Note_on_c, 0, 47, 0
2, 445016, Note_on_c, 0, 61, 0
2, 445021, Control_c, 0, 64, 63
2, 445025, Note_on_c, 0, 53, 0
2, 445026, Note_on_c, 0, 59, 94
2, 445030, Note_on_c, 0, 68, 100
2, 445044, Control_c, 0, 64, 127
2, 445086, Note_on_c, 0, 53, 85
2, 445091, Note_on_c, 0, 61, 85
2, 445095, Note_on_c, 0, 59, 0
2, 445098, Note_on_c, 0, 68, 0
2, 445151, Note_on_c, 0, 61, 0
2, 445153, Control_c, 0, 64, 63
2, 445159, Note_on_c, 0, 47, 91
2, 445163, Note_on_c, 0, 73, 108
2, 445170, Note_on_c, 0, 53, 0
2, 445177, Control_c, 0, 64, 127
2, 445214, Note_on_c, 0, 61, 96
2, 445221, Note_on_c, 0, 73, 0
2, 445221, Note_on_c, 0, 53, 94
2, 445257, Note_on_c, 0, 61, 0
2, 445279, Control_c, 0, 64, 63
2, 445281, Note_on_c, 0, 53, 0
2, 445288, Note_on_c, 0, 55, 101
2, 445293, Note_on_c, 0, 64, 116
2, 445308, Control_c, 0, 64, 127
2, 445334, Note_on_c, 0, 47, 0
2, 445351, Note_on_c, 0, 64, 0
2, 445353, Note_on_c, 0, 54, 87
2, 445355, Note_on_c, 0, 62, 84
2, 445371, Note_on_c, 0, 55, 0
2, 445396, Note_on_c, 0, 62, 0
2, 445417, Note_on_c, 0, 47, 89
2, 445419, Note_on_c, 0, 74, 108
2, 445420, Note_on_c, 0, 54, 0
2, 445423, Control_c, 0, 64, 63
2, 445426, Control_c, 0, 64, 0
2, 445443, Control_c, 0, 64, 63
2, 445452, Control_c, 0, 64, 127
2, 445457, Note_on_c, 0, 74, 0
2, 445468, Note_on_c, 0, 62, 71
2, 445482, Note_on_c, 0, 54, 93
2, 445515, Control_c, 0, 64, 63
2, 445523, Note_on_c, 0, 62, 0
2, 445538, Note_on_c, 0, 54, 0
2, 445540, Control_c, 0, 64, 127
2, 445542, Note_on_c, 0, 57, 108
2, 445546, Note_on_c, 0, 66, 110
2, 445601, Note_on_c, 0, 62, 81
2, 445604, Note_on_c, 0, 54, 101
2, 445606, Note_on_c, 0, 66, 0
2, 445624, Note_on_c, 0, 47, 0
2, 445656, Note_on_c, 0, 62, 0
2, 445669, Control_c, 0, 64, 63
2, 445672, Control_c, 0, 64, 0
2, 445679, Note_on_c, 0, 57, 0
2, 445680, Note_on_c, 0, 74, 114
2, 445686, Control_c, 0, 64, 63
2, 445688, Note_on_c, 0, 47, 108
2, 445693, Control_c, 0, 64, 127
2, 445695, Note_on_c, 0, 54, 0
2, 445723, Note_on_c, 0, 74, 0
2, 445731, Note_on_c, 0, 62, 83
2, 445751, Note_on_c, 0, 54, 105
2, 445763, Note_on_c, 0, 47, 0
2, 445786, Note_on_c, 0, 62, 0
2, 445804, Control_c, 0, 64, 63
2, 445810, Note_on_c, 0, 69, 112
2, 445811, Note_on_c, 0, 54, 0
2, 445811, Note_on_c, 0, 60, 108
2, 445819, Control_c, 0, 64, 127
2, 445860, Note_on_c, 0, 54, 105
2, 445862, Note_on_c, 0, 62, 89
2, 445877, Note_on_c, 0, 60, 0
2, 445894, Note_on_c, 0, 69, 0
2, 445917, Note_on_c, 0, 62, 0
2, 445929, Note_on_c, 0, 47, 109
2, 445934, Note_on_c, 0, 74, 113
2, 445940, Note_on_c, 0, 54, 0
2, 445940, Control_c, 0, 64, 63
2, 445958, Control_c, 0, 64, 127
2, 445983, Note_on_c, 0, 74, 0
2, 445987, Note_on_c, 0, 62, 87
2, 445989, Note_on_c, 0, 54, 123
2, 446018, Note_on_c, 0, 62, 0
2, 446023, Note_on_c, 0, 47, 0
2, 446049, Note_on_c, 0, 47, 67
2, 446052, Control_c, 0, 64, 63
2, 446053, Control_c, 0, 64, 0
2, 446098, Note_on_c, 0, 57, 117
2, 446102, Note_on_c, 0, 63, 118
2, 446110, Control_c, 0, 64, 127
2, 446140, Note_on_c, 0, 47, 0
2, 446175, Note_on_c, 0, 54, 0
2, 446179, Note_on_c, 0, 66, 103
2, 446190, Note_on_c, 0, 63, 0
2, 446194, Note_on_c, 0, 57, 0
2, 446248, Note_on_c, 0, 69, 85
2, 446260, Note_on_c, 0, 66, 0
2, 446304, Note_on_c, 0, 72, 108
2, 446316, Note_on_c, 0, 69, 0
2, 446335, Note_on_c, 0, 72, 0
2, 446366, Note_on_c, 0, 69, 114
2, 446367, Note_on_c, 0, 66, 114
2, 446386, Note_on_c, 0, 75, 91
2, 446405, Note_on_c, 0, 75, 0
2, 446461, Note_on_c, 0, 78, 99
2, 446500, Note_on_c, 0, 78, 0
2, 446513, Note_on_c, 0, 81, 96
2, 446568, Note_on_c, 0, 84, 107
2, 446580, Note_on_c, 0, 81, 0
2, 446593, Note_on_c, 0, 69, 0
2, 446596, Note_on_c, 0, 66, 0
2, 446599, Note_on_c, 0, 84, 0
2, 446637, Note_on_c, 0, 87, 119
2, 446708, Note_on_c, 0, 90, 99
2, 446712, Note_on_c, 0, 87, 0
2, 446765, Note_on_c, 0, 90, 0
2, 446778, Note_on_c, 0, 93, 92
2, 446836, Note_on_c, 0, 81, 120
2, 446839, Note_on_c, 0, 96, 118
2, 446844, Note_on_c, 0, 93, 0
2, 446881, Control_c, 0, 64, 63
2, 446882, Control_c, 0, 64, 127
2, 446947, Note_on_c, 0, 95, 112
2, 446952, Note_on_c, 0, 80, 108
2, 446972, Note_on_c, 0, 96, 0
2, 446981, Note_on_c, 0, 81, 0
2, 447048, Note_on_c, 0, 94, 115
2, 447049, Note_on_c, 0, 79, 79
2, 447052, Note_on_c, 0, 80, 0
2, 447074, Note_on_c, 0, 95, 0
2, 447124, Note_on_c, 0, 93, 97
2, 447127, Note_on_c, 0, 94, 0
2, 447128, Note_on_c, 0, 78, 92
2, 447143, Note_on_c, 0, 79, 0
2, 447156, Note_on_c, 0, 93, 0
2, 447169, Note_on_c, 0, 78, 0
2, 447188, Note_on_c, 0, 93, 109
2, 447189, Note_on_c, 0, 78, 104
2, 447257, Note_on_c, 0, 78, 0
2, 447260, Note_on_c, 0, 92, 101
2, 447263, Note_on_c, 0, 77, 81
2, 447279, Note_on_c, 0, 93, 0
2, 447330, Note_on_c, 0, 91, 99
2, 447336, Note_on_c, 0, 76, 91
2, 447346, Note_on_c, 0, 77, 0
2, 447370, Note_on_c, 0, 92, 0
2, 447398, Note_on_c, 0, 91, 0
2, 447400, Note_on_c, 0, 90, 101
2, 447404, Note_on_c, 0, 75, 92
2, 447408, Note_on_c, 0, 76, 0
2, 447427, Note_on_c, 0, 90, 0
2, 447443, Note_on_c, 0, 75, 0
2, 447457, Note_on_c, 0, 90, 100
2, 447461, Note_on_c, 0, 75, 103
2, 447521, Note_on_c, 0, 75, 0
2, 447522, Note_on_c, 0, 89, 98
2, 447524, Note_on_c, 0, 74, 74
2, 447544, Note_on_c, 0, 90, 0
2, 447582, Note_on_c, 0, 73, 91
2, 447587, Note_on_c, 0, 88, 100
2, 447591, Note_on_c, 0, 74, 0
2, 447598, Note_on_c, 0, 89, 0
2, 447646, Note_on_c, 0, 88, 0
2, 447649, Control_c, 0, 64, 63
2, 447651, Note_on_c, 0, 87, 103
2, 447652, Note_on_c, 0, 72, 84
2, 447655, Note_on_c, 0, 73, 0
2, 447657, Control_c, 0, 64, 0
2, 447679, Note_on_c, 0, 87, 0
2, 447684, Control_c, 0, 64, 63
2, 447690, Control_c, 0, 64, 127
2, 447691, Note_on_c, 0, 72, 0
2, 447712, Note_on_c, 0, 87, 106
2, 447712, Note_on_c, 0, 72, 103
2, 447775, Note_on_c, 0, 86, 103
2, 447776, Note_on_c, 0, 71, 93
2, 447792, Note_on_c, 0, 72, 0
2, 447800, Note_on_c, 0, 87, 0
2, 447837, Note_on_c, 0, 70, 85
2, 447844, Note_on_c, 0, 85, 110
2, 447850, Note_on_c, 0, 71, 0
2, 447865, Note_on_c, 0, 86, 0
2, 447905, Note_on_c, 0, 69, 76
2, 447907, Note_on_c, 0, 84, 98
2, 447913, Note_on_c, 0, 85, 0
2, 447917, Note_on_c, 0, 70, 0
2, 447940, Note_on_c, 0, 84, 0
2, 447946, Note_on_c, 0, 69, 0
2, 447962, Note_on_c, 0, 69, 106
2, 447965, Note_on_c, 0, 84, 104
2, 447971, Control_c, 0, 64, 63
2, 448005, Control_c, 0, 64, 127
2, 448028, Note_on_c, 0, 68, 96
2, 448033, Note_on_c, 0, 83, 102
2, 448053, Note_on_c, 0, 69, 0
2, 448053, Note_on_c, 0, 84, 0
2, 448097, Note_on_c, 0, 67, 78
2, 448100, Note_on_c, 0, 82, 109
2, 448104, Note_on_c, 0, 68, 0
2, 448126, Note_on_c, 0, 83, 0
2, 448157, Note_on_c, 0, 66, 91
2, 448163, Note_on_c, 0, 81, 96
2, 448166, Note_on_c, 0, 67, 0
2, 448171, Note_on_c, 0, 82, 0
2, 448195, Note_on_c, 0, 81, 0
2, 448205, Note_on_c, 0, 66, 0
2, 448220, Note_on_c, 0, 66, 105
2, 448222, Note_on_c, 0, 81, 107
2, 448277, Control_c, 0, 64, 63
2, 448284, Note_on_c, 0, 65, 82
2, 448286, Note_on_c, 0, 80, 106
2, 448288, Note_on_c, 0, 66, 0
2, 448304, Control_c, 0, 64, 127
2, 448305, Note_on_c, 0, 81, 0
2, 448350, Note_on_c, 0, 79, 99
2, 448352, Note_on_c, 0, 64, 84
2, 448362, Note_on_c, 0, 65, 0
2, 448385, Note_on_c, 0, 80, 0
2, 448412, Note_on_c, 0, 79, 0
2, 448412, Note_on_c, 0, 63, 91
2, 448413, Note_on_c, 0, 78, 104
2, 448420, Note_on_c, 0, 64, 0
2, 448441, Note_on_c, 0, 78, 0
2, 448457, Note_on_c, 0, 63, 0
2, 448468, Note_on_c, 0, 78, 96
2, 448474, Note_on_c, 0, 63, 103
2, 448532, Note_on_c, 0, 77, 93
2, 448540, Note_on_c, 0, 63, 0
2, 448541, Note_on_c, 0, 62, 78
2, 448567, Note_on_c, 0, 78, 0
2, 448602, Note_on_c, 0, 76, 97
2, 448604, Note_on_c, 0, 61, 88
2, 448614, Note_on_c, 0, 62, 0
2, 448615, Note_on_c, 0, 77, 0
2, 448670, Note_on_c, 0, 60, 81
2, 448671, Note_on_c, 0, 75, 101
2, 448674, Note_on_c, 0, 76, 0
2, 448685, Note_on_c, 0, 61, 0
2, 448701, Note_on_c, 0, 75, 0
2, 448703, Note_on_c, 0, 60, 0
2, 448725, Note_on_c, 0, 60, 99
2, 448728, Note_on_c, 0, 75, 98
2, 448742, Control_c, 0, 64, 63
2, 448769, Control_c, 0, 64, 127
2, 448789, Note_on_c, 0, 59, 84
2, 448791, Note_on_c, 0, 74, 102
2, 448795, Note_on_c, 0, 60, 0
2, 448818, Note_on_c, 0, 75, 0
2, 448850, Note_on_c, 0, 58, 85
2, 448858, Note_on_c, 0, 73, 112
2, 448866, Note_on_c, 0, 59, 0
2, 448882, Note_on_c, 0, 74, 0
2, 448911, Note_on_c, 0, 57, 68
2, 448917, Note_on_c, 0, 72, 96
2, 448929, Note_on_c, 0, 58, 0
2, 448930, Note_on_c, 0, 73, 0
2, 448952, Note_on_c, 0, 72, 0
2, 448955, Note_on_c, 0, 57, 0
2, 448975, Note_on_c, 0, 57, 89
2, 448977, Note_on_c, 0, 72, 104
2, 449002, Control_c, 0, 64, 63
2, 449040, Control_c, 0, 64, 127
2, 449044, Note_on_c, 0, 56, 92
2, 449044, Note_on_c, 0, 71, 101
2, 449067, Note_on_c, 0, 72, 0
2, 449069, Note_on_c, 0, 57, 0
2, 449111, Note_on_c, 0, 55, 76
2, 449112, Note_on_c, 0, 70, 109
2, 449120, Note_on_c, 0, 56, 0
2, 449135, Note_on_c, 0, 71, 0
2, 449168, Note_on_c, 0, 54, 81
2, 449176, Note_on_c, 0, 69, 72
2, 449179, Note_on_c, 0, 55, 0
2, 449181, Note_on_c, 0, 70, 0
2, 449210, Note_on_c, 0, 69, 0
2, 449215, Control_c, 0, 64, 63
2, 449222, Note_on_c, 0, 54, 0
2, 449236, Note_on_c, 0, 69, 100
2, 449237, Note_on_c, 0, 54, 94
2, 449252, Control_c, 0, 64, 127
2, 449291, Note_on_c, 0, 54, 0
2, 449297, Note_on_c, 0, 68, 105
2, 449302, Note_on_c, 0, 53, 71
2, 449316, Note_on_c, 0, 69, 0
2, 449328, Control_c, 0, 64, 63
2, 449331, Control_c, 0, 64, 127
2, 449362, Note_on_c, 0, 52, 80
2, 449364, Note_on_c, 0, 67, 94
2, 449380, Note_on_c, 0, 53, 0
2, 449394, Note_on_c, 0, 68, 0
2, 449422, Note_on_c, 0, 51, 88
2, 449426, Note_on_c, 0, 66, 97
2, 449427, Note_on_c, 0, 67, 0
2, 449439, Note_on_c, 0, 52, 0
2, 449456, Note_on_c, 0, 66, 0
2, 449470, Control_c, 0, 64, 63
2, 449477, Control_c, 0, 64, 0
2, 449485, Note_on_c, 0, 72, 107
2, 449486, Note_on_c, 0, 57, 101
2, 449502, Note_on_c, 0, 51, 0
2, 449505, Control_c, 0, 64, 63
2, 449516, Control_c, 0, 64, 127
2, 449558, Note_on_c, 0, 71, 102
2, 449571, Note_on_c, 0, 56, 99
2, 449591, Note_on_c, 0, 72, 0
2, 449592, Note_on_c, 0, 57, 0
2, 449634, Note_on_c, 0, 70, 109
2, 449635, Note_on_c, 0, 55, 81
2, 449639, Note_on_c, 0, 56, 0
2, 449658, Note_on_c, 0, 71, 0
2, 449691, Note_on_c, 0, 54, 90
2, 449700, Note_on_c, 0, 69, 76
2, 449701, Note_on_c, 0, 55, 0
2, 449706, Note_on_c, 0, 70, 0
2, 449734, Note_on_c, 0, 69, 0
2, 449747, Note_on_c, 0, 54, 0
2, 449758, Note_on_c, 0, 69, 101
2, 449764, Note_on_c, 0, 54, 91
2, 449781, Control_c, 0, 64, 63
2, 449805, Control_c, 0, 64, 127
2, 449824, Note_on_c, 0, 68, 100
2, 449830, Note_on_c, 0, 53, 75
2, 449836, Note_on_c, 0, 54, 0
2, 449845, Note_on_c, 0, 69, 0
2, 449890, Note_on_c, 0, 52, 76
2, 449895, Note_on_c, 0, 67, 94
2, 449903, Note_on_c, 0, 53, 0
2, 449924, Note_on_c, 0, 68, 0
2, 449948, Control_c, 0, 64, 63
2, 449955, Note_on_c, 0, 51, 87
2, 449959, Note_on_c, 0, 67, 0
2, 449959, Note_on_c, 0, 66, 100
2, 449962, Note_on_c, 0, 52, 0
2, 449978, Control_c, 0, 64, 127
2, 449988, Note_on_c, 0, 66, 0
2, 450005, Note_on_c, 0, 51, 0
2, 450015, Note_on_c, 0, 66, 97
2, 450017, Note_on_c, 0, 51, 88
2, 450043, Control_c, 0, 64, 63
2, 450070, Note_on_c, 0, 51, 0
2, 450074, Control_c, 0, 64, 127
2, 450077, Note_on_c, 0, 50, 71
2, 450079, Note_on_c, 0, 65, 91
2, 450101, Note_on_c, 0, 66, 0
2, 450132, Note_on_c, 0, 49, 66
2, 450144, Note_on_c, 0, 65, 0
2, 450145, Note_on_c, 0, 64, 76
2, 450148, Note_on_c, 0, 50, 0
2, 450197, Note_on_c, 0, 64, 0
2, 450200, Note_on_c, 0, 48, 74
2, 450209, Note_on_c, 0, 63, 86
2, 450223, Note_on_c, 0, 49, 0
2, 450238, Note_on_c, 0, 63, 0
2, 450271, Note_on_c, 0, 48, 0
2, 450271, Note_on_c, 0, 57, 92
2, 450273, Control_c, 0, 64, 63
2, 450273, Note_on_c, 0, 72, 108
2, 450299, Control_c, 0, 64, 127
2, 450336, Note_on_c, 0, 71, 109
2, 450349, Note_on_c, 0, 56, 107
2, 450366, Note_on_c, 0, 57, 0
2, 450372, Note_on_c, 0, 72, 0
2, 450405, Note_on_c, 0, 70, 112
2, 450413, Note_on_c, 0, 55, 91
2, 450418, Note_on_c, 0, 56, 0
2, 450438, Note_on_c, 0, 71, 0
2, 450464, Note_on_c, 0, 54, 87
2, 450473, Note_on_c, 0, 55, 0
2, 450475, Note_on_c, 0, 69, 90
2, 450485, Note_on_c, 0, 70, 0
2, 450510, Note_on_c, 0, 69, 0
2, 450517, Control_c, 0, 64, 63
2, 450523, Note_on_c, 0, 54, 0
2, 450532, Note_on_c, 0, 69, 102
2, 450537, Note_on_c, 0, 54, 98
2, 450538, Control_c, 0, 64, 127
2, 450592, Note_on_c, 0, 54, 0
2, 450594, Note_on_c, 0, 68, 105
2, 450600, Note_on_c, 0, 53, 76
2, 450617, Note_on_c, 0, 69, 0
2, 450662, Note_on_c, 0, 67, 96
2, 450667, Note_on_c, 0, 52, 87
2, 450680, Note_on_c, 0, 53, 0
2, 450690, Note_on_c, 0, 68, 0
2, 450725, Note_on_c, 0, 66, 105
2, 450725, Note_on_c, 0, 51, 94
2, 450726, Note_on_c, 0, 67, 0
2, 450737, Note_on_c, 0, 52, 0
2, 450752, Note_on_c, 0, 66, 0
2, 450775, Note_on_c, 0, 51, 0
2, 450777, Control_c, 0, 64, 63
2, 450779, Note_on_c, 0, 66, 103
2, 450793, Note_on_c, 0, 51, 103
2, 450797, Control_c, 0, 64, 127
2, 450842, Note_on_c, 0, 65, 101
2, 450851, Note_on_c, 0, 51, 0
2, 450854, Note_on_c, 0, 50, 84
2, 450886, Note_on_c, 0, 66, 0
2, 450897, Note_on_c, 0, 49, 76
2, 450910, Note_on_c, 0, 64, 87
2, 450914, Note_on_c, 0, 50, 0
2, 450918, Note_on_c, 0, 65, 0
2, 450970, Note_on_c, 0, 48, 85
2, 450973, Note_on_c, 0, 64, 0
2, 450974, Note_on_c, 0, 63, 97
2, 450993, Note_on_c, 0, 49, 0
2, 451006, Note_on_c, 0, 63, 0
2, 451037, Note_on_c, 0, 48, 0
2, 451057, Note_on_c, 0, 57, 102
2, 451061, Control_c, 0, 64, 63
2, 451062, Note_on_c, 0, 72, 111
2, 451077, Control_c, 0, 64, 0
2, 451115, Control_c, 0, 64, 63
2, 451128, Control_c, 0, 64, 127
2, 451156, Note_on_c, 0, 71, 103
2, 451159, Note_on_c, 0, 56, 104
2, 451186, Note_on_c, 0, 57, 0
2, 451190, Note_on_c, 0, 72, 0
2, 451237, Note_on_c, 0, 70, 113
2, 451239, Note_on_c, 0, 55, 79
2, 451249, Note_on_c, 0, 56, 0
2, 451267, Note_on_c, 0, 71, 0
2, 451301, Note_on_c, 0, 54, 96
2, 451305, Note_on_c, 0, 69, 96
2, 451321, Note_on_c, 0, 70, 0
2, 451327, Note_on_c, 0, 55, 0
2, 451340, Note_on_c, 0, 69, 0
2, 451358, Note_on_c, 0, 54, 0
2, 451361, Note_on_c, 0, 60, 98
2, 451362, Note_on_c, 0, 69, 102
2, 451376, Control_c, 0, 64, 63
2, 451394, Control_c, 0, 64, 127
2, 451426, Note_on_c, 0, 68, 105
2, 451432, Note_on_c, 0, 59, 92
2, 451441, Note_on_c, 0, 60, 0
2, 451449, Note_on_c, 0, 69, 0
2, 451485, Note_on_c, 0, 58, 78
2, 451495, Note_on_c, 0, 67, 102
2, 451513, Note_on_c, 0, 59, 0
2, 451519, Note_on_c, 0, 68, 0
2, 451556, Note_on_c, 0, 57, 71
2, 451557, Note_on_c, 0, 66, 107
2, 451560, Note_on_c, 0, 67, 0
2, 451575, Note_on_c, 0, 58, 0
2, 451584, Note_on_c, 0, 66, 0
2, 451598, Note_on_c, 0, 57, 0
2, 451613, Note_on_c, 0, 66, 104
2, 451615, Note_on_c, 0, 57, 94
2, 451625, Control_c, 0, 64, 63
2, 451670, Control_c, 0, 64, 127
2, 451680, Note_on_c, 0, 65, 99
2, 451684, Note_on_c, 0, 56, 96
2, 451711, Note_on_c, 0, 66, 0
2, 451712, Note_on_c, 0, 57, 0
2, 451745, Note_on_c, 0, 55, 71
2, 451752, Note_on_c, 0, 64, 98
2, 451760, Note_on_c, 0, 56, 0
2, 451766, Note_on_c, 0, 65, 0
2, 451807, Note_on_c, 0, 54, 91
2, 451818, Note_on_c, 0, 63, 106
2, 451819, Note_on_c, 0, 55, 0
2, 451820, Note_on_c, 0, 64, 0
2, 451850, Note_on_c, 0, 63, 0
2, 451873, Note_on_c, 0, 63, 106
2, 451940, Note_on_c, 0, 62, 106
2, 451940, Note_on_c, 0, 53, 78
2, 451941, Note_on_c, 0, 54, 0
2, 451973, Note_on_c, 0, 63, 0
2, 452002, Note_on_c, 0, 52, 83
2, 452005, Note_on_c, 0, 61, 113
2, 452012, Note_on_c, 0, 53, 0
2, 452030, Note_on_c, 0, 62, 0
2, 452068, Note_on_c, 0, 60, 103
2, 452068, Note_on_c, 0, 51, 99
2, 452084, Note_on_c, 0, 52, 0
2, 452084, Note_on_c, 0, 61, 0
2, 452103, Note_on_c, 0, 60, 0
2, 452127, Note_on_c, 0, 60, 108
2, 452130, Note_on_c, 0, 51, 0
2, 452138, Note_on_c, 0, 51, 80
2, 452161, Note_on_c, 0, 60, 0
2, 452193, Note_on_c, 0, 51, 0
2, 452202, Note_on_c, 0, 59, 107
2, 452211, Note_on_c, 0, 50, 86
2, 452262, Note_on_c, 0, 58, 112
2, 452266, Note_on_c, 0, 49, 100
2, 452283, Note_on_c, 0, 50, 0
2, 452297, Note_on_c, 0, 59, 0
2, 452320, Note_on_c, 0, 57, 93
2, 452333, Note_on_c, 0, 48, 106
2, 452337, Note_on_c, 0, 58, 0
2, 452353, Note_on_c, 0, 49, 0
2, 452371, Note_on_c, 0, 57, 0
2, 452387, Note_on_c, 0, 63, 119
2, 452398, Note_on_c, 0, 47, 113
2, 452415, Note_on_c, 0, 48, 0
2, 452457, Note_on_c, 0, 63, 0
2, 452474, Note_on_c, 0, 64, 117
2, 452475, Note_on_c, 0, 59, 117
2, 452478, Control_c, 0, 64, 63
2, 452478, Note_on_c, 0, 40, 121
2, 452479, Note_on_c, 0, 55, 107
2, 452485, Control_c, 0, 64, 0
2, 452497, Note_on_c, 0, 47, 0
2, 452571, Control_c, 0, 64, 63
2, 452574, Control_c, 0, 64, 127
2, 452605, Note_on_c, 0, 40, 0
2, 452677, Note_on_c, 0, 55, 0
2, 452680, Note_on_c, 0, 59, 0
2, 452700, Note_on_c, 0, 64, 0
2, 452799, Control_c, 0, 64, 63
2, 452805, Control_c, 0, 64, 0
2, 474465, Note_on_c, 0, 40, 53
2, 474538, Control_c, 0, 64, 63
2, 474540, Control_c, 0, 64, 127
2, 474612, Note_on_c, 0, 40, 0
2, 474863, Note_on_c, 0, 59, 44
2, 474864, Note_on_c, 0, 55, 41
2, 474865, Note_on_c, 0, 64, 35
2, 474929, Note_on_c, 0, 59, 0
2, 474935, Note_on_c, 0, 55, 0
2, 474942, Note_on_c, 0, 64, 0
2, 475090, Note_on_c, 0, 59, 34
2, 475094, Note_on_c, 0, 64, 29
2, 475099, Note_on_c, 0, 55, 36
2, 475181, Note_on_c, 0, 59, 0
2, 475182, Note_on_c, 0, 64, 0
2, 475185, Note_on_c, 0, 55, 0
2, 475247, Note_on_c, 0, 59, 54
2, 475248, Note_on_c, 0, 64, 50
2, 475254, Note_on_c, 0, 55, 45
2, 475309, Note_on_c, 0, 59, 0
2, 475314, Note_on_c, 0, 64, 0
2, 475327, Note_on_c, 0, 55, 0
2, 475332, Note_on_c, 0, 83, 74
2, 475431, Note_on_c, 0, 59, 35
2, 475435, Note_on_c, 0, 55, 27
2, 475439, Note_on_c, 0, 64, 23
2, 475463, Note_on_c, 0, 79, 86
2, 475490, Note_on_c, 0, 83, 0
2, 475528, Note_on_c, 0, 59, 0
2, 475536, Note_on_c, 0, 64, 0
2, 475539, Note_on_c, 0, 55, 0
2, 475574, Note_on_c, 0, 79, 0
2, 475625, Note_on_c, 0, 64, 50
2, 475627, Note_on_c, 0, 59, 58
2, 475632, Note_on_c, 0, 55, 44
2, 475700, Note_on_c, 0, 81, 100
2, 475704, Note_on_c, 0, 64, 0
2, 475710, Note_on_c, 0, 59, 0
2, 475723, Note_on_c, 0, 55, 0
2, 475746, Note_on_c, 0, 81, 0
2, 475802, Note_on_c, 0, 59, 45
2, 475804, Note_on_c, 0, 64, 33
2, 475805, Note_on_c, 0, 83, 93
2, 475810, Note_on_c, 0, 55, 35
2, 475888, Control_c, 0, 64, 63
2, 475895, Control_c, 0, 64, 0
2, 475916, Control_c, 0, 64, 63
2, 475931, Control_c, 0, 64, 127
2, 476009, Note_on_c, 0, 59, 0
2, 476011, Note_on_c, 0, 64, 0
2, 476021, Note_on_c, 0, 55, 0
2, 476058, Note_on_c, 0, 64, 58
2, 476059, Note_on_c, 0, 59, 51
2, 476063, Note_on_c, 0, 55, 53
2, 476131, Note_on_c, 0, 59, 0
2, 476137, Note_on_c, 0, 64, 0
2, 476139, Note_on_c, 0, 55, 0
2, 476153, Note_on_c, 0, 83, 0
2, 476211, Note_on_c, 0, 64, 50
2, 476213, Note_on_c, 0, 59, 55
2, 476217, Note_on_c, 0, 55, 51
2, 476320, Note_on_c, 0, 59, 0
2, 476321, Note_on_c, 0, 64, 0
2, 476327, Note_on_c, 0, 55, 0
2, 476370, Note_on_c, 0, 88, 85
2, 476370, Note_on_c, 0, 59, 51
2, 476374, Note_on_c, 0, 64, 45
2, 476376, Note_on_c, 0, 55, 47
2, 476499, Note_on_c, 0, 59, 0
2, 476503, Note_on_c, 0, 64, 0
2, 476508, Note_on_c, 0, 55, 0
2, 476587, Note_on_c, 0, 64, 43
2, 476589, Note_on_c, 0, 90, 86
2, 476590, Note_on_c, 0, 59, 52
2, 476591, Note_on_c, 0, 55, 36
2, 476631, Note_on_c, 0, 88, 0
2, 476707, Note_on_c, 0, 64, 0
2, 476707, Note_on_c, 0, 59, 0
2, 476724, Note_on_c, 0, 55, 0
2, 476758, Note_on_c, 0, 59, 50
2, 476760, Note_on_c, 0, 55, 47
2, 476763, Note_on_c, 0, 64, 52
2, 476764, Note_on_c, 0, 91, 93
2, 476809, Note_on_c, 0, 90, 0
2, 476845, Note_on_c, 0, 64, 0
2, 476848, Note_on_c, 0, 59, 0
2, 476859, Note_on_c, 0, 55, 0
2, 476916, Note_on_c, 0, 55, 35
2, 476918, Note_on_c, 0, 59, 50
2, 476920, Note_on_c, 0, 64, 46
2, 476936, Note_on_c, 0, 90, 101
2, 476978, Note_on_c, 0, 91, 0
2, 477025, Note_on_c, 0, 64, 0
2, 477026, Note_on_c, 0, 59, 0
2, 477031, Note_on_c, 0, 55, 0
2, 477091, Note_on_c, 0, 88, 98
2, 477093, Note_on_c, 0, 59, 59
2, 477093, Note_on_c, 0, 64, 59
2, 477097, Note_on_c, 0, 55, 47
2, 477128, Note_on_c, 0, 90, 0
2, 477168, Note_on_c, 0, 59, 0
2, 477176, Note_on_c, 0, 55, 0
2, 477178, Note_on_c, 0, 64, 0
2, 477245, Note_on_c, 0, 83, 85
2, 477254, Note_on_c, 0, 64, 49
2, 477256, Note_on_c, 0, 59, 52
2, 477257, Note_on_c, 0, 88, 0
2, 477261, Note_on_c, 0, 55, 37
2, 477309, Note_on_c, 0, 83, 0
2, 477325, Note_on_c, 0, 59, 0
2, 477336, Note_on_c, 0, 64, 0
2, 477347, Note_on_c, 0, 55, 0
2, 477432, Note_on_c, 0, 84, 83
2, 477433, Note_on_c, 0, 59, 52
2, 477435, Note_on_c, 0, 64, 41
2, 477436, Note_on_c, 0, 55, 39
2, 477493, Note_on_c, 0, 86, 76
2, 477495, Note_on_c, 0, 59, 0
2, 477500, Note_on_c, 0, 84, 0
2, 477501, Note_on_c, 0, 64, 0
2, 477511, Note_on_c, 0, 55, 0
2, 477588, Note_on_c, 0, 84, 74
2, 477599, Note_on_c, 0, 59, 47
2, 477602, Note_on_c, 0, 64, 32
2, 477607, Note_on_c, 0, 55, 34
2, 477608, Note_on_c, 0, 86, 0
2, 477662, Note_on_c, 0, 59, 0
2, 477664, Note_on_c, 0, 84, 0
2, 477669, Note_on_c, 0, 64, 0
2, 477682, Note_on_c, 0, 55, 0
2, 477807, Note_on_c, 0, 59, 54
2, 477813, Note_on_c, 0, 64, 45
2, 477819, Note_on_c, 0, 55, 38
2, 477867, Note_on_c, 0, 59, 0
2, 477869, Note_on_c, 0, 55, 0
2, 477873, Note_on_c, 0, 64, 0
2, 477917, Note_on_c, 0, 83, 71
2, 478017, Note_on_c, 0, 83, 0
2, 478068, Note_on_c, 0, 57, 38
2, 478072, Note_on_c, 0, 54, 49
2, 478077, Note_on_c, 0, 60, 53
2, 478078, Note_on_c, 0, 64, 28
2, 478081, Note_on_c, 0, 60, 0
2, 478085, Note_on_c, 0, 83, 65
2, 478122, Control_c, 0, 64, 63
2, 478133, Control_c, 0, 64, 0
2, 478141, Control_c, 0, 64, 63
2, 478161, Control_c, 0, 64, 127
2, 478276, Note_on_c, 0, 64, 0
2, 478286, Note_on_c, 0, 57, 0
2, 478306, Note_on_c, 0, 54, 0
2, 478335, Note_on_c, 0, 83, 0
2, 478346, Note_on_c, 0, 57, 49
2, 478360, Note_on_c, 0, 64, 25
2, 478362, Note_on_c, 0, 60, 42
2, 478415, Note_on_c, 0, 60, 0
2, 478418, Note_on_c, 0, 64, 0
2, 478425, Note_on_c, 0, 57, 0
2, 478522, Note_on_c, 0, 57, 35
2, 478532, Note_on_c, 0, 81, 68
2, 478534, Note_on_c, 0, 64, 38
2, 478538, Note_on_c, 0, 60, 38
2, 478597, Note_on_c, 0, 60, 0
2, 478601, Note_on_c, 0, 57, 0
2, 478608, Note_on_c, 0, 64, 0
2, 478648, Note_on_c, 0, 81, 0
2, 478689, Note_on_c, 0, 57, 45
2, 478691, Note_on_c, 0, 64, 35
2, 478692, Note_on_c, 0, 60, 51
2, 478758, Note_on_c, 0, 60, 0
2, 478763, Note_on_c, 0, 57, 0
2, 478766, Note_on_c, 0, 64, 0
2, 478853, Note_on_c, 0, 64, 26
2, 478854, Note_on_c, 0, 57, 34
2, 478859, Note_on_c, 0, 60, 42
2, 478916, Note_on_c, 0, 60, 0
2, 478917, Note_on_c, 0, 64, 0
2, 478930, Note_on_c, 0, 57, 0
2, 479033, Note_on_c, 0, 57, 14
2, 479037, Note_on_c, 0, 60, 26
2, 479039, Note_on_c, 0, 64, 12
2, 479168, Note_on_c, 0, 60, 0
2, 479181, Note_on_c, 0, 64, 0
2, 479189, Note_on_c, 0, 57, 0
2, 479219, Note_on_c, 0, 42, 56
2, 479332, Control_c, 0, 64, 63
2, 479371, Control_c, 0, 64, 127
2, 479456, Note_on_c, 0, 57, 38
2, 479465, Note_on_c, 0, 60, 41
2, 479472, Note_on_c, 0, 64, 29
2, 479512, Note_on_c, 0, 42, 0
2, 479521, Note_on_c, 0, 60, 0
2, 479544, Note_on_c, 0, 57, 0
2, 479564, Note_on_c, 0, 64, 0
2, 479648, Note_on_c, 0, 64, 38
2, 479659, Note_on_c, 0, 57, 38
2, 479660, Note_on_c, 0, 60, 44
2, 479722, Note_on_c, 0, 60, 0
2, 479724, Note_on_c, 0, 64, 0
2, 479731, Note_on_c, 0, 57, 0
2, 479799, Note_on_c, 0, 64, 55
2, 479805, Note_on_c, 0, 57, 50
2, 479806, Note_on_c, 0, 60, 57
2, 479872, Note_on_c, 0, 60, 0
2, 479873, Note_on_c, 0, 84, 87
2, 479877, Note_on_c, 0, 57, 0
2, 479878, Note_on_c, 0, 64, 0
2, 479971, Note_on_c, 0, 81, 88
2, 479977, Note_on_c, 0, 57, 51
2, 479980, Note_on_c, 0, 64, 46
2, 479984, Note_on_c, 0, 60, 55
2, 479998, Note_on_c, 0, 84, 0
2, 480048, Note_on_c, 0, 60, 0
2, 480054, Note_on_c, 0, 64, 0
2, 480061, Note_on_c, 0, 57, 0
2, 480078, Note_on_c, 0, 81, 0
2, 480120, Note_on_c, 0, 57, 55
2, 480127, Note_on_c, 0, 60, 65
2, 480127, Note_on_c, 0, 64, 63
2, 480176, Note_on_c, 0, 83, 93
2, 480180, Note_on_c, 0, 64, 0
2, 480193, Note_on_c, 0, 57, 0
2, 480195, Note_on_c, 0, 60, 0
2, 480233, Note_on_c, 0, 83, 0
2, 480266, Note_on_c, 0, 84, 99
2, 480269, Note_on_c, 0, 57, 55
2, 480279, Note_on_c, 0, 64, 49
2, 480281, Note_on_c, 0, 60, 65
2, 480282, Note_on_c, 0, 54, 80
2, 480328, Control_c, 0, 64, 63
2, 480335, Control_c, 0, 64, 0
2, 480359, Control_c, 0, 64, 63
2, 480374, Control_c, 0, 64, 127
2, 480432, Note_on_c, 0, 64, 0
2, 480433, Note_on_c, 0, 60, 0
2, 480437, Note_on_c, 0, 57, 0
2, 480459, Note_on_c, 0, 54, 0
2, 480474, Note_on_c, 0, 57, 60
2, 480476, Note_on_c, 0, 64, 71
2, 480482, Note_on_c, 0, 60, 54
2, 480503, Note_on_c, 0, 84, 0
2, 480538, Note_on_c, 0, 64, 0
2, 480544, Note_on_c, 0, 57, 0
2, 480545, Note_on_c, 0, 60, 0
2, 480600, Note_on_c, 0, 57, 67
2, 480602, Note_on_c, 0, 60, 80
2, 480604, Note_on_c, 0, 64, 77
2, 480673, Note_on_c, 0, 60, 0
2, 480679, Note_on_c, 0, 57, 0
2, 480681, Note_on_c, 0, 64, 0
2, 480740, Note_on_c, 0, 90, 108
2, 480745, Note_on_c, 0, 64, 54
2, 480745, Note_on_c, 0, 57, 46
2, 480752, Note_on_c, 0, 60, 62
2, 480834, Note_on_c, 0, 60, 0
2, 480838, Note_on_c, 0, 57, 0
2, 480843, Note_on_c, 0, 64, 0
2, 480870, Note_on_c, 0, 90, 0
2, 480932, Note_on_c, 0, 91, 113
2, 480945, Note_on_c, 0, 57, 45
2, 480945, Note_on_c, 0, 64, 45
2, 480955, Note_on_c, 0, 60, 49
2, 480961, Note_on_c, 0, 60, 0
2, 481001, Note_on_c, 0, 91, 0
2, 481009, Note_on_c, 0, 64, 0
2, 481019, Note_on_c, 0, 57, 0
2, 481121, Note_on_c, 0, 64, 79
2, 481121, Note_on_c, 0, 57, 65
2, 481125, Note_on_c, 0, 60, 73
2, 481161, Note_on_c, 0, 60, 0
2, 481163, Note_on_c, 0, 64, 0
2, 481185, Note_on_c, 0, 57, 0
2, 481220, Note_on_c, 0, 93, 103
2, 481281, Note_on_c, 0, 93, 0
2, 481345, Control_c, 0, 64, 63
2, 481349, Note_on_c, 0, 47, 97
2, 481351, Control_c, 0, 64, 0
2, 481351, Note_on_c, 0, 93, 90
2, 481387, Control_c, 0, 64, 63
2, 481397, Control_c, 0, 64, 127
2, 481407, Note_on_c, 0, 47, 0
2, 481486, Note_on_c, 0, 93, 0
2, 481486, Note_on_c, 0, 87, 85
2, 481545, Note_on_c, 0, 87, 0
2, 481547, Note_on_c, 0, 88, 84
2, 481596, Note_on_c, 0, 63, 78
2, 481602, Note_on_c, 0, 54, 68
2, 481607, Note_on_c, 0, 57, 50
2, 481617, Note_on_c, 0, 91, 88
2, 481627, Note_on_c, 0, 88, 0
2, 481662, Note_on_c, 0, 63, 0
2, 481664, Note_on_c, 0, 54, 0
2, 481670, Note_on_c, 0, 57, 0
2, 481679, Note_on_c, 0, 90, 86
2, 481686, Note_on_c, 0, 91, 0
2, 481731, Note_on_c, 0, 90, 0
2, 481739, Note_on_c, 0, 88, 71
2, 481772, Note_on_c, 0, 63, 71
2, 481775, Note_on_c, 0, 54, 70
2, 481781, Note_on_c, 0, 57, 56
2, 481796, Note_on_c, 0, 88, 0
2, 481801, Note_on_c, 0, 87, 82
2, 481826, Note_on_c, 0, 63, 0
2, 481840, Note_on_c, 0, 57, 0
2, 481841, Note_on_c, 0, 54, 0
2, 481846, Note_on_c, 0, 87, 0
2, 481858, Note_on_c, 0, 84, 84
2, 481901, Note_on_c, 0, 84, 0
2, 481906, Note_on_c, 0, 83, 76
2, 481928, Note_on_c, 0, 63, 77
2, 481932, Note_on_c, 0, 54, 72
2, 481938, Note_on_c, 0, 57, 61
2, 481942, Note_on_c, 0, 83, 0
2, 481947, Note_on_c, 0, 81, 81
2, 481980, Note_on_c, 0, 63, 0
2, 481986, Note_on_c, 0, 81, 0
2, 481986, Note_on_c, 0, 57, 0
2, 481994, Note_on_c, 0, 79, 86
2, 481995, Note_on_c, 0, 54, 0
2, 482037, Note_on_c, 0, 78, 100
2, 482045, Note_on_c, 0, 79, 0
2, 482072, Note_on_c, 0, 78, 0
2, 482078, Note_on_c, 0, 76, 86
2, 482078, Note_on_c, 0, 63, 88
2, 482078, Note_on_c, 0, 54, 81
2, 482086, Note_on_c, 0, 57, 67
2, 482120, Note_on_c, 0, 63, 0
2, 482126, Note_on_c, 0, 57, 0
2, 482126, Note_on_c, 0, 75, 97
2, 482132, Note_on_c, 0, 76, 0
2, 482135, Note_on_c, 0, 54, 0
2, 482172, Note_on_c, 0, 75, 0
2, 482176, Note_on_c, 0, 72, 89
2, 482205, Note_on_c, 0, 54, 68
2, 482206, Note_on_c, 0, 63, 80
2, 482210, Note_on_c, 0, 71, 98
2, 482212, Note_on_c, 0, 57, 61
2, 482217, Note_on_c, 0, 72, 0
2, 482247, Note_on_c, 0, 63, 0
2, 482249, Note_on_c, 0, 71, 0
2, 482251, Note_on_c, 0, 69, 75
2, 482266, Note_on_c, 0, 57, 0
2, 482277, Note_on_c, 0, 54, 0
2, 482292, Note_on_c, 0, 69, 0
2, 482292, Note_on_c, 0, 67, 90
2, 482322, Note_on_c, 0, 69, 85
2, 482339, Note_on_c, 0, 67, 0
2, 482356, Note_on_c, 0, 52, 68
2, 482357, Control_c, 0, 64, 63
2, 482365, Control_c, 0, 64, 0
2, 482374, Note_on_c, 0, 71, 98
2, 482394, Note_on_c, 0, 69, 0
2, 482430, Control_c, 0, 64, 63
2, 482435, Control_c, 0, 64, 127
2, 482511, Note_on_c, 0, 52, 0
2, 482518, Note_on_c, 0, 64, 62
2, 482522, Note_on_c, 0, 55, 52
2, 482523, Note_on_c, 0, 59, 62
2, 482568, Note_on_c, 0, 64, 0
2, 482570, Note_on_c, 0, 71, 0
2, 482573, Note_on_c, 0, 69, 68
2, 482576, Note_on_c, 0, 59, 0
2, 482591, Note_on_c, 0, 55, 0
2, 482613, Note_on_c, 0, 67, 82
2, 482631, Note_on_c, 0, 69, 0
2, 482654, Note_on_c, 0, 67, 0
2, 482686, Note_on_c, 0, 67, 64
2, 482693, Note_on_c, 0, 55, 40
2, 482695, Note_on_c, 0, 59, 50
2, 482696, Note_on_c, 0, 64, 39
2, 482747, Note_on_c, 0, 67, 0
2, 482765, Note_on_c, 0, 59, 0
2, 482765, Note_on_c, 0, 64, 0
2, 482776, Note_on_c, 0, 55, 0
2, 482854, Note_on_c, 0, 64, 43
2, 482855, Note_on_c, 0, 59, 57
2, 482856, Note_on_c, 0, 55, 50
2, 482931, Note_on_c, 0, 59, 0
2, 482935, Note_on_c, 0, 64, 0
2, 482941, Note_on_c, 0, 55, 0
2, 483012, Note_on_c, 0, 55, 35
2, 483013, Note_on_c, 0, 59, 49
2, 483018, Note_on_c, 0, 64, 25
2, 483049, Note_on_c, 0, 76, 98
2, 483114, Note_on_c, 0, 59, 0
2, 483117, Note_on_c, 0, 64, 0
2, 483121, Note_on_c, 0, 55, 0
2, 483269, Note_on_c, 0, 59, 48
2, 483270, Note_on_c, 0, 55, 44
2, 483274, Note_on_c, 0, 64, 38
2, 483333, Note_on_c, 0, 59, 0
2, 483335, Note_on_c, 0, 64, 0
2, 483341, Note_on_c, 0, 55, 0
2, 483496, Note_on_c, 0, 54, 75
2, 483566, Control_c, 0, 64, 63
2, 483582, Control_c, 0, 64, 0
2, 483618, Control_c, 0, 64, 63
2, 483637, Control_c, 0, 64, 127
2, 483734, Note_on_c, 0, 57, 33
2, 483737, Note_on_c, 0, 60, 34
2, 483803, Note_on_c, 0, 60, 0
2, 483811, Note_on_c, 0, 57, 0
2, 483821, Note_on_c, 0, 76, 0
2, 483906, Note_on_c, 0, 75, 92
2, 483916, Note_on_c, 0, 57, 38
2, 483919, Note_on_c, 0, 60, 31
2, 483954, Note_on_c, 0, 75, 0
2, 483959, Note_on_c, 0, 60, 0
2, 483975, Note_on_c, 0, 57, 0
2, 484046, Note_on_c, 0, 57, 63
2, 484047, Note_on_c, 0, 60, 63
2, 484176, Note_on_c, 0, 52, 82
2, 484184, Note_on_c, 0, 76, 100
2, 484190, Note_on_c, 0, 60, 0
2, 484221, Note_on_c, 0, 57, 0
2, 484223, Note_on_c, 0, 54, 0
2, 484240, Control_c, 0, 64, 63
2, 484294, Control_c, 0, 64, 127
2, 484317, Note_on_c, 0, 57, 57
2, 484320, Note_on_c, 0, 60, 59
2, 484373, Note_on_c, 0, 60, 0
2, 484383, Note_on_c, 0, 57, 0
2, 484405, Note_on_c, 0, 76, 0
2, 484445, Note_on_c, 0, 51, 81
2, 484473, Note_on_c, 0, 52, 0
2, 484484, Note_on_c, 0, 79, 100
2, 484532, Control_c, 0, 64, 63
2, 484585, Control_c, 0, 64, 127
2, 484674, Note_on_c, 0, 57, 46
2, 484675, Note_on_c, 0, 60, 41
2, 484741, Note_on_c, 0, 79, 0
2, 484743, Note_on_c, 0, 60, 0
2, 484758, Note_on_c, 0, 57, 0
2, 484791, Note_on_c, 0, 51, 0
2, 484826, Note_on_c, 0, 60, 54
2, 484826, Note_on_c, 0, 57, 58
2, 484881, Note_on_c, 0, 60, 0
2, 484896, Note_on_c, 0, 57, 0
2, 484957, Note_on_c, 0, 78, 86
2, 484969, Note_on_c, 0, 57, 39
2, 484973, Note_on_c, 0, 60, 42
2, 485019, Note_on_c, 0, 78, 0
2, 485042, Note_on_c, 0, 60, 0
2, 485078, Note_on_c, 0, 57, 0
2, 485094, Note_on_c, 0, 76, 86
2, 485096, Note_on_c, 0, 52, 42
2, 485143, Control_c, 0, 64, 63
2, 485166, Control_c, 0, 64, 127
2, 485215, Note_on_c, 0, 74, 59
2, 485219, Note_on_c, 0, 76, 0
2, 485244, Note_on_c, 0, 57, 43
2, 485252, Note_on_c, 0, 60, 45
2, 485257, Note_on_c, 0, 72, 67
2, 485270, Note_on_c, 0, 74, 0
2, 485281, Note_on_c, 0, 60, 0
2, 485289, Note_on_c, 0, 71, 68
2, 485299, Note_on_c, 0, 72, 0
2, 485318, Note_on_c, 0, 52, 0
2, 485325, Note_on_c, 0, 71, 0
2, 485327, Note_on_c, 0, 69, 72
2, 485332, Note_on_c, 0, 57, 0
2, 485371, Note_on_c, 0, 67, 85
2, 485377, Note_on_c, 0, 69, 0
2, 485418, Note_on_c, 0, 66, 85
2, 485420, Note_on_c, 0, 67, 0
2, 485452, Note_on_c, 0, 54, 58
2, 485458, Note_on_c, 0, 66, 0
2, 485460, Note_on_c, 0, 64, 83
2, 485496, Control_c, 0, 64, 63
2, 485503, Control_c, 0, 64, 0
2, 485527, Control_c, 0, 64, 63
2, 485546, Control_c, 0, 64, 127
2, 485614, Note_on_c, 0, 60, 68
2, 485615, Note_on_c, 0, 57, 65
2, 485627, Note_on_c, 0, 64, 0
2, 485672, Note_on_c, 0, 54, 0
2, 485673, Note_on_c, 0, 60, 0
2, 485685, Note_on_c, 0, 57, 0
2, 485765, Note_on_c, 0, 63, 97
2, 485774, Note_on_c, 0, 60, 52
2, 485777, Note_on_c, 0, 57, 45
2, 485816, Note_on_c, 0, 60, 0
2, 485821, Note_on_c, 0, 57, 0
2, 485862, Note_on_c, 0, 63, 0
2, 485864, Note_on_c, 0, 66, 95
2, 485898, Note_on_c, 0, 66, 0
2, 485921, Note_on_c, 0, 57, 61
2, 485922, Note_on_c, 0, 69, 84
2, 485928, Note_on_c, 0, 60, 62
2, 485972, Note_on_c, 0, 69, 0
2, 485985, Note_on_c, 0, 72, 84
2, 485986, Note_on_c, 0, 60, 0
2, 486011, Note_on_c, 0, 57, 0
2, 486018, Note_on_c, 0, 75, 88
2, 486023, Note_on_c, 0, 72, 0
2, 486070, Note_on_c, 0, 75, 0
2, 486084, Note_on_c, 0, 78, 89
2, 486092, Control_c, 0, 64, 63
2, 486097, Control_c, 0, 64, 0
2, 486131, Note_on_c, 0, 78, 0
2, 486133, Note_on_c, 0, 51, 76
2, 486138, Control_c, 0, 64, 63
2, 486146, Control_c, 0, 64, 127
2, 486157, Note_on_c, 0, 81, 80
2, 486214, Note_on_c, 0, 51, 0
2, 486266, Note_on_c, 0, 81, 0
2, 486384, Note_on_c, 0, 59, 60
2, 486397, Note_on_c, 0, 66, 50
2, 486434, Note_on_c, 0, 66, 0
2, 486441, Note_on_c, 0, 59, 0
2, 486494, Note_on_c, 0, 83, 84
2, 486547, Note_on_c, 0, 83, 0
2, 486638, Note_on_c, 0, 52, 35
2, 486659, Note_on_c, 0, 81, 70
2, 486679, Control_c, 0, 64, 63
2, 486682, Control_c, 0, 64, 0
2, 486766, Control_c, 0, 64, 63
2, 486770, Control_c, 0, 64, 127
2, 486854, Note_on_c, 0, 55, 32
2, 486854, Note_on_c, 0, 59, 41
2, 486858, Note_on_c, 0, 64, 36
2, 486872, Note_on_c, 0, 81, 0
2, 486926, Note_on_c, 0, 64, 0
2, 486928, Note_on_c, 0, 52, 0
2, 486928, Note_on_c, 0, 59, 0
2, 486936, Note_on_c, 0, 55, 0
2, 487010, Note_on_c, 0, 59, 51
2, 487011, Note_on_c, 0, 79, 85
2, 487016, Note_on_c, 0, 55, 43
2, 487016, Note_on_c, 0, 64, 33
2, 487075, Note_on_c, 0, 64, 0
2, 487081, Note_on_c, 0, 59, 0
2, 487093, Note_on_c, 0, 55, 0
2, 487154, Note_on_c, 0, 64, 63
2, 487155, Note_on_c, 0, 59, 67
2, 487157, Note_on_c, 0, 55, 55
2, 487158, Note_on_c, 0, 79, 0
2, 487190, Note_on_c, 0, 64, 0
2, 487190, Note_on_c, 0, 59, 0
2, 487213, Note_on_c, 0, 55, 0
2, 487300, Note_on_c, 0, 50, 88
2, 487310, Note_on_c, 0, 78, 86
2, 487377, Control_c, 0, 64, 63
2, 487387, Control_c, 0, 64, 0
2, 487398, Control_c, 0, 64, 63
2, 487422, Control_c, 0, 64, 127
2, 487473, Note_on_c, 0, 54, 65
2, 487473, Note_on_c, 0, 59, 61
2, 487524, Note_on_c, 0, 59, 0
2, 487536, Note_on_c, 0, 54, 0
2, 487555, Note_on_c, 0, 50, 0
2, 487638, Note_on_c, 0, 48, 86
2, 487654, Control_c, 0, 64, 63
2, 487663, Control_c, 0, 64, 0
2, 487673, Control_c, 0, 64, 63
2, 487693, Control_c, 0, 64, 127
2, 487791, Note_on_c, 0, 48, 0
2, 487797, Note_on_c, 0, 78, 0
2, 487891, Note_on_c, 0, 54, 55
2, 487902, Note_on_c, 0, 76, 62
2, 487904, Note_on_c, 0, 64, 28
2, 487958, Note_on_c, 0, 76, 0
2, 487958, Note_on_c, 0, 78, 67
2, 487965, Note_on_c, 0, 54, 0
2, 487966, Note_on_c, 0, 64, 0
2, 488002, Note_on_c, 0, 76, 59
2, 488006, Note_on_c, 0, 78, 0
2, 488057, Note_on_c, 0, 54, 72
2, 488058, Note_on_c, 0, 64, 64
2, 488067, Note_on_c, 0, 75, 88
2, 488078, Note_on_c, 0, 76, 0
2, 488122, Note_on_c, 0, 64, 0
2, 488123, Note_on_c, 0, 54, 0
2, 488197, Note_on_c, 0, 76, 100
2, 488204, Note_on_c, 0, 54, 77
2, 488210, Note_on_c, 0, 64, 54
2, 488215, Note_on_c, 0, 75, 0
2, 488263, Note_on_c, 0, 54, 0
2, 488263, Note_on_c, 0, 64, 0
2, 488356, Note_on_c, 0, 76, 0
2, 488360, Note_on_c, 0, 54, 54
2, 488361, Note_on_c, 0, 58, 60
2, 488363, Note_on_c, 0, 64, 34
2, 488376, Note_on_c, 0, 79, 79
2, 488409, Control_c, 0, 64, 63
2, 488434, Control_c, 0, 64, 127
2, 488507, Note_on_c, 0, 64, 0
2, 488508, Note_on_c, 0, 79, 0
2, 488509, Note_on_c, 0, 58, 0
2, 488513, Note_on_c, 0, 54, 0
2, 488596, Note_on_c, 0, 58, 54
2, 488598, Note_on_c, 0, 54, 59
2, 488605, Note_on_c, 0, 64, 23
2, 488638, Note_on_c, 0, 64, 0
2, 488644, Note_on_c, 0, 58, 0
2, 488655, Note_on_c, 0, 54, 0
2, 488685, Note_on_c, 0, 78, 74
2, 488765, Note_on_c, 0, 78, 0
2, 488792, Note_on_c, 0, 47, 49
2, 488798, Control_c, 0, 64, 63
2, 488803, Note_on_c, 0, 75, 80
2, 488826, Control_c, 0, 64, 127
2, 488861, Note_on_c, 0, 47, 0
2, 488985, Note_on_c, 0, 75, 0
2, 489044, Note_on_c, 0, 59, 51
2, 489052, Note_on_c, 0, 63, 56
2, 489057, Note_on_c, 0, 54, 48
2, 489121, Note_on_c, 0, 59, 0
2, 489126, Note_on_c, 0, 63, 0
2, 489136, Note_on_c, 0, 54, 0
2, 489336, Note_on_c, 0, 47, 34
2, 489341, Note_on_c, 0, 74, 60
2, 489375, Control_c, 0, 64, 63
2, 489403, Control_c, 0, 64, 127
2, 489480, Note_on_c, 0, 47, 0
2, 489491, Note_on_c, 0, 76, 58
2, 489521, Note_on_c, 0, 74, 0
2, 489593, Note_on_c, 0, 74, 81
2, 489605, Note_on_c, 0, 56, 48
2, 489605, Note_on_c, 0, 62, 36
2, 489620, Note_on_c, 0, 76, 0
2, 489642, Note_on_c, 0, 62, 0
2, 489645, Note_on_c, 0, 56, 0
2, 489667, Note_on_c, 0, 73, 78
2, 489683, Note_on_c, 0, 74, 0
2, 489721, Note_on_c, 0, 74, 75
2, 489745, Note_on_c, 0, 73, 0
2, 489796, Note_on_c, 0, 47, 70
2, 489808, Note_on_c, 0, 77, 85
2, 489830, Control_c, 0, 64, 63
2, 489846, Note_on_c, 0, 74, 0
2, 489860, Control_c, 0, 64, 127
2, 489926, Note_on_c, 0, 47, 0
2, 489969, Note_on_c, 0, 77, 0
2, 490009, Note_on_c, 0, 62, 65
2, 490012, Note_on_c, 0, 56, 80
2, 490014, Note_on_c, 0, 52, 63
2, 490046, Note_on_c, 0, 62, 0
2, 490047, Note_on_c, 0, 56, 0
2, 490055, Note_on_c, 0, 52, 0
2, 490091, Note_on_c, 0, 76, 87
2, 490202, Note_on_c, 0, 76, 0
2, 490204, Note_on_c, 0, 74, 79
2, 490211, Note_on_c, 0, 45, 68
2, 490267, Control_c, 0, 64, 63
2, 490312, Control_c, 0, 64, 127
2, 490393, Note_on_c, 0, 72, 85
2, 490402, Note_on_c, 0, 52, 61
2, 490430, Note_on_c, 0, 45, 0
2, 490431, Note_on_c, 0, 74, 0
2, 490542, Note_on_c, 0, 54, 65
2, 490548, Note_on_c, 0, 71, 81
2, 490557, Note_on_c, 0, 72, 0
2, 490686, Note_on_c, 0, 69, 80
2, 490688, Note_on_c, 0, 71, 0
2, 490693, Note_on_c, 0, 60, 36
2, 490702, Note_on_c, 0, 52, 0
2, 490855, Note_on_c, 0, 67, 66
2, 490858, Note_on_c, 0, 69, 0
2, 490872, Note_on_c, 0, 52, 35
2, 490876, Note_on_c, 0, 54, 0
2, 490907, Note_on_c, 0, 60, 0
2, 491027, Note_on_c, 0, 67, 0
2, 491043, Note_on_c, 0, 54, 68
2, 491074, Note_on_c, 0, 52, 0
2, 491128, Note_on_c, 0, 69, 74
2, 491232, Note_on_c, 0, 69, 0
2, 491238, Note_on_c, 0, 47, 46
2, 491242, Note_on_c, 0, 71, 68
2, 491277, Note_on_c, 0, 54, 0
2, 491309, Control_c, 0, 64, 63
2, 491379, Control_c, 0, 64, 127
2, 491431, Note_on_c, 0, 54, 53
2, 491566, Note_on_c, 0, 71, 0
2, 491591, Note_on_c, 0, 47, 0
2, 491615, Note_on_c, 0, 66, 61
2, 491629, Note_on_c, 0, 57, 21
2, 491630, Note_on_c, 0, 54, 0
2, 491671, Note_on_c, 0, 57, 0
2, 491682, Note_on_c, 0, 66, 0
2, 491827, Note_on_c, 0, 60, 46
2, 491882, Note_on_c, 0, 60, 0
2, 492063, Note_on_c, 0, 59, 34
2, 492064, Note_on_c, 0, 55, 34
2, 492417, Note_on_c, 0, 54, 32
2, 492429, Note_on_c, 0, 55, 0
2, 492429, Note_on_c, 0, 71, 64
2, 492433, Note_on_c, 0, 59, 0
2, 492434, Note_on_c, 0, 57, 20
2, 492527, Note_on_c, 0, 57, 0
2, 492544, Note_on_c, 0, 54, 0
2, 492656, Note_on_c, 0, 71, 0
2, 492886, Note_on_c, 0, 40, 56
2, 492966, Note_on_c, 0, 83, 65
2, 493063, Control_c, 0, 64, 63
2, 493064, Control_c, 0, 64, 127
2, 493154, Note_on_c, 0, 40, 0
2, 493367, Note_on_c, 0, 59, 36
2, 493369, Note_on_c, 0, 55, 36
2, 493370, Note_on_c, 0, 64, 34
2, 493450, Note_on_c, 0, 59, 0
2, 493454, Note_on_c, 0, 64, 0
2, 493457, Note_on_c, 0, 55, 0
2, 493613, Note_on_c, 0, 59, 25
2, 493614, Note_on_c, 0, 84, 63
2, 493616, Note_on_c, 0, 55, 26
2, 493626, Note_on_c, 0, 64, 13
2, 493631, Note_on_c, 0, 83, 0
2, 493746, Note_on_c, 0, 59, 0
2, 493752, Note_on_c, 0, 55, 0
2, 493754, Note_on_c, 0, 64, 0
2, 493848, Note_on_c, 0, 83, 72
2, 493850, Note_on_c, 0, 59, 41
2, 493851, Note_on_c, 0, 64, 25
2, 493854, Note_on_c, 0, 55, 35
2, 493869, Note_on_c, 0, 84, 0
2, 493935, Note_on_c, 0, 59, 0
2, 493935, Note_on_c, 0, 64, 0
2, 493942, Note_on_c, 0, 55, 0
2, 494023, Note_on_c, 0, 79, 81
2, 494030, Note_on_c, 0, 59, 34
2, 494031, Note_on_c, 0, 64, 23
2, 494033, Note_on_c, 0, 55, 26
2, 494049, Note_on_c, 0, 83, 0
2, 494108, Note_on_c, 0, 59, 0
2, 494113, Note_on_c, 0, 64, 0
2, 494115, Note_on_c, 0, 55, 0
2, 494173, Note_on_c, 0, 79, 0
2, 494193, Note_on_c, 0, 59, 59
2, 494194, Note_on_c, 0, 64, 48
2, 494197, Note_on_c, 0, 55, 47
2, 494267, Note_on_c, 0, 59, 0
2, 494269, Note_on_c, 0, 64, 0
2, 494272, Note_on_c, 0, 81, 92
2, 494283, Note_on_c, 0, 55, 0
2, 494325, Note_on_c, 0, 81, 0
2, 494374, Note_on_c, 0, 64, 28
2, 494374, Note_on_c, 0, 59, 42
2, 494375, Note_on_c, 0, 83, 82
2, 494376, Note_on_c, 0, 55, 35
2, 494548, Note_on_c, 0, 59, 0
2, 494550, Note_on_c, 0, 64, 0
2, 494556, Note_on_c, 0, 55, 0
2, 494615, Note_on_c, 0, 64, 52
2, 494615, Note_on_c, 0, 59, 57
2, 494618, Note_on_c, 0, 55, 46
2, 494692, Note_on_c, 0, 59, 0
2, 494693, Note_on_c, 0, 64, 0
2, 494704, Note_on_c, 0, 83, 0
2, 494706, Note_on_c, 0, 55, 0
2, 494764, Note_on_c, 0, 64, 63
2, 494764, Note_on_c, 0, 59, 69
2, 494766, Note_on_c, 0, 55, 54
2, 494848, Note_on_c, 0, 64, 0
2, 494848, Note_on_c, 0, 59, 0
2, 494859, Note_on_c, 0, 55, 0
2, 494916, Note_on_c, 0, 88, 99
2, 494921, Note_on_c, 0, 64, 55
2, 494922, Note_on_c, 0, 59, 60
2, 494924, Note_on_c, 0, 55, 47
2, 494998, Note_on_c, 0, 59, 0
2, 495003, Note_on_c, 0, 64, 0
2, 495013, Note_on_c, 0, 55, 0
2, 495094, Note_on_c, 0, 59, 63
2, 495095, Note_on_c, 0, 55, 51
2, 495095, Note_on_c, 0, 64, 56
2, 495095, Note_on_c, 0, 90, 99
2, 495130, Note_on_c, 0, 88, 0
2, 495170, Note_on_c, 0, 59, 0
2, 495173, Note_on_c, 0, 64, 0
2, 495184, Note_on_c, 0, 55, 0
2, 495242, Note_on_c, 0, 64, 63
2, 495244, Note_on_c, 0, 55, 63
2, 495244, Note_on_c, 0, 59, 65
2, 495245, Note_on_c, 0, 91, 88
2, 495265, Note_on_c, 0, 59, 0
2, 495266, Note_on_c, 0, 64, 0
2, 495284, Note_on_c, 0, 90, 0
2, 495290, Note_on_c, 0, 55, 0
2, 495412, Control_c, 0, 64, 63
2, 495413, Note_on_c, 0, 40, 86
2, 495419, Control_c, 0, 64, 0
2, 495424, Note_on_c, 0, 90, 89
2, 495451, Control_c, 0, 64, 63
2, 495462, Note_on_c, 0, 91, 0
2, 495465, Control_c, 0, 64, 127
2, 495506, Note_on_c, 0, 40, 0
2, 495660, Note_on_c, 0, 59, 63
2, 495663, Note_on_c, 0, 88, 91
2, 495665, Note_on_c, 0, 64, 66
2, 495667, Note_on_c, 0, 55, 53
2, 495671, Note_on_c, 0, 90, 0
2, 495763, Note_on_c, 0, 59, 0
2, 495777, Note_on_c, 0, 55, 0
2, 495778, Note_on_c, 0, 64, 0
2, 495829, Note_on_c, 0, 83, 86
2, 495833, Note_on_c, 0, 64, 72
2, 495833, Note_on_c, 0, 59, 74
2, 495835, Note_on_c, 0, 55, 63
2, 495842, Note_on_c, 0, 88, 0
2, 495907, Note_on_c, 0, 59, 0
2, 495912, Note_on_c, 0, 64, 0
2, 495921, Note_on_c, 0, 55, 0
2, 495927, Note_on_c, 0, 83, 0
2, 495983, Note_on_c, 0, 55, 62
2, 495985, Note_on_c, 0, 59, 71
2, 495987, Note_on_c, 0, 64, 67
2, 495991, Note_on_c, 0, 84, 102
2, 496039, Note_on_c, 0, 64, 0
2, 496056, Note_on_c, 0, 86, 102
2, 496083, Note_on_c, 0, 84, 0
2, 496138, Note_on_c, 0, 55, 0
2, 496146, Note_on_c, 0, 56, 88
2, 496150, Control_c, 0, 64, 63
2, 496152, Note_on_c, 0, 84, 103
2, 496155, Control_c, 0, 64, 0
2, 496156, Note_on_c, 0, 62, 61
2, 496157, Note_on_c, 0, 64, 60
2, 496176, Note_on_c, 0, 59, 0
2, 496183, Note_on_c, 0, 86, 0
2, 496187, Control_c, 0, 64, 63
2, 496200, Control_c, 0, 64, 127
2, 496286, Note_on_c, 0, 84, 0
2, 496306, Note_on_c, 0, 56, 0
2, 496310, Note_on_c, 0, 64, 0
2, 496311, Note_on_c, 0, 62, 0
2, 496367, Note_on_c, 0, 62, 76
2, 496369, Note_on_c, 0, 56, 91
2, 496369, Note_on_c, 0, 64, 77
2, 496404, Note_on_c, 0, 62, 0
2, 496405, Note_on_c, 0, 64, 0
2, 496414, Note_on_c, 0, 56, 0
2, 496458, Note_on_c, 0, 83, 98
2, 496552, Note_on_c, 0, 83, 0
2, 496575, Note_on_c, 0, 40, 103
2, 496590, Control_c, 0, 64, 63
2, 496591, Note_on_c, 0, 83, 88
2, 496595, Control_c, 0, 64, 0
2, 496655, Control_c, 0, 64, 63
2, 496658, Control_c, 0, 64, 127
2, 496683, Note_on_c, 0, 40, 0
2, 496847, Note_on_c, 0, 64, 63
2, 496849, Note_on_c, 0, 60, 72
2, 496852, Note_on_c, 0, 57, 57
2, 496924, Note_on_c, 0, 60, 0
2, 496933, Note_on_c, 0, 64, 0
2, 496935, Note_on_c, 0, 57, 0
2, 496980, Note_on_c, 0, 83, 0
2, 497005, Note_on_c, 0, 64, 65
2, 497006, Note_on_c, 0, 81, 100
2, 497010, Note_on_c, 0, 60, 71
2, 497013, Note_on_c, 0, 57, 52
2, 497079, Note_on_c, 0, 60, 0
2, 497083, Note_on_c, 0, 64, 0
2, 497095, Note_on_c, 0, 57, 0
2, 497131, Note_on_c, 0, 81, 0
2, 497148, Note_on_c, 0, 64, 83
2, 497149, Note_on_c, 0, 57, 73
2, 497149, Note_on_c, 0, 60, 87
2, 497202, Note_on_c, 0, 64, 0
2, 497206, Note_on_c, 0, 60, 0
2, 497218, Note_on_c, 0, 57, 0
2, 497286, Note_on_c, 0, 57, 79
2, 497287, Note_on_c, 0, 64, 83
2, 497288, Note_on_c, 0, 60, 86
2, 497331, Note_on_c, 0, 64, 0
2, 497332, Note_on_c, 0, 60, 0
2, 497344, Note_on_c, 0, 81, 91
2, 497345, Note_on_c, 0, 57, 0
2, 497368, Note_on_c, 0, 83, 89
2, 497385, Note_on_c, 0, 81, 0
2, 497406, Note_on_c, 0, 83, 0
2, 497415, Note_on_c, 0, 81, 92
2, 497465, Note_on_c, 0, 64, 92
2, 497469, Note_on_c, 0, 80, 116
2, 497469, Note_on_c, 0, 57, 83
2, 497469, Note_on_c, 0, 60, 89
2, 497491, Note_on_c, 0, 81, 0
2, 497497, Note_on_c, 0, 60, 0
2, 497499, Note_on_c, 0, 64, 0
2, 497508, Note_on_c, 0, 80, 0
2, 497519, Note_on_c, 0, 57, 0
2, 497694, Note_on_c, 0, 81, 121
2, 497717, Control_c, 0, 64, 63
2, 497721, Control_c, 0, 64, 0
2, 497739, Note_on_c, 0, 39, 109
2, 497748, Note_on_c, 0, 81, 0
2, 497755, Control_c, 0, 64, 63
2, 497761, Control_c, 0, 64, 127
2, 497828, Note_on_c, 0, 51, 112
2, 497859, Note_on_c, 0, 96, 122
2, 497863, Note_on_c, 0, 39, 0
2, 497872, Note_on_c, 0, 51, 0
2, 497900, Note_on_c, 0, 96, 0
2, 498092, Note_on_c, 0, 66, 93
2, 498097, Note_on_c, 0, 59, 82
2, 498099, Note_on_c, 0, 57, 68
2, 498147, Note_on_c, 0, 66, 0
2, 498167, Note_on_c, 0, 59, 0
2, 498170, Note_on_c, 0, 57, 0
2, 498229, Note_on_c, 0, 66, 99
2, 498232, Note_on_c, 0, 59, 79
2, 498237, Note_on_c, 0, 57, 58
2, 498283, Note_on_c, 0, 66, 0
2, 498296, Note_on_c, 0, 59, 0
2, 498315, Note_on_c, 0, 57, 0
2, 498315, Note_on_c, 0, 95, 109
2, 498406, Note_on_c, 0, 66, 88
2, 498413, Note_on_c, 0, 57, 62
2, 498413, Note_on_c, 0, 59, 67
2, 498417, Note_on_c, 0, 89, 97
2, 498425, Note_on_c, 0, 66, 0
2, 498434, Note_on_c, 0, 95, 0
2, 498435, Note_on_c, 0, 59, 0
2, 498453, Note_on_c, 0, 57, 0
2, 498497, Note_on_c, 0, 90, 113
2, 498516, Note_on_c, 0, 89, 0
2, 498573, Control_c, 0, 64, 63
2, 498577, Control_c, 0, 64, 0
2, 498609, Note_on_c, 0, 40, 97
2, 498612, Note_on_c, 0, 52, 86
2, 498613, Note_on_c, 0, 90, 0
2, 498615, Note_on_c, 0, 93, 111
2, 498623, Note_on_c, 0, 40, 0
2, 498625, Control_c, 0, 64, 63
2, 498628, Control_c, 0, 64, 127
2, 498644, Note_on_c, 0, 52, 0
2, 498750, Note_on_c, 0, 93, 0
2, 498834, Note_on_c, 0, 64, 90
2, 498835, Note_on_c, 0, 59, 84
2, 498836, Note_on_c, 0, 55, 84
2, 498839, Note_on_c, 0, 91, 114
2, 498860, Note_on_c, 0, 64, 0
2, 498860, Note_on_c, 0, 59, 0
2, 498880, Note_on_c, 0, 55, 0
2, 499003, Control_c, 0, 64, 63
2, 499013, Note_on_c, 0, 42, 94
2, 499015, Note_on_c, 0, 54, 112
2, 499031, Control_c, 0, 64, 127
2, 499040, Note_on_c, 0, 42, 0
2, 499050, Note_on_c, 0, 54, 0
2, 499091, Note_on_c, 0, 90, 99
2, 499114, Note_on_c, 0, 91, 0
2, 499170, Note_on_c, 0, 59, 88
2, 499170, Note_on_c, 0, 63, 104
2, 499172, Note_on_c, 0, 57, 89
2, 499176, Note_on_c, 0, 86, 96
2, 499182, Note_on_c, 0, 90, 0
2, 499195, Note_on_c, 0, 59, 0
2, 499196, Note_on_c, 0, 63, 0
2, 499212, Note_on_c, 0, 57, 0
2, 499234, Note_on_c, 0, 87, 113
2, 499237, Note_on_c, 0, 86, 0
2, 499325, Note_on_c, 0, 43, 97
2, 499328, Note_on_c, 0, 55, 97
2, 499342, Note_on_c, 0, 87, 0
2, 499360, Control_c, 0, 64, 63
2, 499361, Control_c, 0, 64, 127
2, 499401, Control_c, 0, 64, 63
2, 499405, Note_on_c, 0, 90, 103
2, 499408, Control_c, 0, 64, 0
2, 499456, Control_c, 0, 64, 63
2, 499457, Control_c, 0, 64, 127
2, 499491, Note_on_c, 0, 43, 0
2, 499521, Note_on_c, 0, 55, 0
2, 499642, Note_on_c, 0, 64, 89
2, 499643, Note_on_c, 0, 55, 75
2, 499645, Note_on_c, 0, 59, 77
2, 499652, Note_on_c, 0, 90, 0
2, 499665, Note_on_c, 0, 88, 102
2, 499686, Note_on_c, 0, 59, 0
2, 499689, Note_on_c, 0, 64, 0
2, 499711, Note_on_c, 0, 55, 0
2, 499845, Note_on_c, 0, 44, 107
2, 499872, Control_c, 0, 64, 63
2, 499876, Control_c, 0, 64, 0
2, 499897, Control_c, 0, 64, 63
2, 499907, Control_c, 0, 64, 127
2, 499933, Note_on_c, 0, 44, 0
2, 499988, Note_on_c, 0, 86, 92
2, 499994, Note_on_c, 0, 88, 0
2, 500104, Note_on_c, 0, 52, 55
2, 500106, Note_on_c, 0, 59, 24
2, 500109, Note_on_c, 0, 62, 89
2, 500112, Note_on_c, 0, 82, 105
2, 500141, Note_on_c, 0, 86, 0
2, 500169, Note_on_c, 0, 62, 0
2, 500183, Note_on_c, 0, 59, 0
2, 500215, Note_on_c, 0, 52, 0
2, 500249, Note_on_c, 0, 83, 90
2, 500263, Note_on_c, 0, 82, 0
2, 500379, Note_on_c, 0, 83, 0
2, 500426, Note_on_c, 0, 45, 63
2, 500480, Note_on_c, 0, 86, 94
2, 500594, Control_c, 0, 64, 63
2, 500597, Control_c, 0, 64, 0
2, 500627, Note_on_c, 0, 85, 89
2, 500657, Control_c, 0, 64, 63
2, 500662, Control_c, 0, 64, 127
2, 500671, Note_on_c, 0, 86, 0
2, 500705, Note_on_c, 0, 48, 68
2, 500744, Note_on_c, 0, 84, 86
2, 500770, Note_on_c, 0, 85, 0
2, 500826, Note_on_c, 0, 84, 0
2, 500828, Note_on_c, 0, 83, 76
2, 500885, Note_on_c, 0, 83, 0
2, 500892, Note_on_c, 0, 82, 97
2, 500895, Note_on_c, 0, 45, 0
2, 500914, Note_on_c, 0, 53, 40
2, 500943, Note_on_c, 0, 82, 0
2, 500955, Note_on_c, 0, 81, 73
2, 500999, Note_on_c, 0, 81, 0
2, 501009, Note_on_c, 0, 80, 85
2, 501054, Note_on_c, 0, 80, 0
2, 501056, Note_on_c, 0, 48, 0
2, 501058, Note_on_c, 0, 79, 77
2, 501072, Note_on_c, 0, 57, 38
2, 501081, Note_on_c, 0, 53, 0
2, 501102, Note_on_c, 0, 79, 0
2, 501113, Note_on_c, 0, 78, 81
2, 501148, Note_on_c, 0, 78, 0
2, 501153, Note_on_c, 0, 77, 79
2, 501207, Note_on_c, 0, 48, 66
2, 501209, Note_on_c, 0, 77, 0
2, 501210, Note_on_c, 0, 57, 0
2, 501210, Note_on_c, 0, 76, 80
2, 501212, Control_c, 0, 64, 63
2, 501259, Note_on_c, 0, 75, 88
2, 501261, Control_c, 0, 64, 127
2, 501267, Note_on_c, 0, 76, 0
2, 501298, Note_on_c, 0, 75, 0
2, 501306, Note_on_c, 0, 74, 67
2, 501340, Note_on_c, 0, 73, 91
2, 501353, Note_on_c, 0, 74, 0
2, 501360, Control_c, 0, 64, 63
2, 501366, Control_c, 0, 64, 0
2, 501391, Note_on_c, 0, 73, 0
2, 501395, Note_on_c, 0, 60, 57
2, 501398, Note_on_c, 0, 72, 100
2, 501424, Control_c, 0, 64, 63
2, 501431, Control_c, 0, 64, 127
2, 501521, Note_on_c, 0, 60, 0
2, 501538, Note_on_c, 0, 48, 0
2, 501604, Note_on_c, 0, 47, 93
2, 501737, Note_on_c, 0, 71, 92
2, 501746, Note_on_c, 0, 72, 0
2, 501847, Note_on_c, 0, 64, 85
2, 501849, Note_on_c, 0, 55, 64
2, 501868, Note_on_c, 0, 71, 0
2, 501954, Note_on_c, 0, 66, 104
2, 501980, Note_on_c, 0, 64, 0
2, 502066, Note_on_c, 0, 52, 55
2, 502075, Note_on_c, 0, 67, 90
2, 502093, Note_on_c, 0, 66, 0
2, 502141, Note_on_c, 0, 55, 0
2, 502170, Control_c, 0, 64, 63
2, 502183, Control_c, 0, 64, 0
2, 502242, Note_on_c, 0, 59, 79
2, 502284, Control_c, 0, 64, 63
2, 502289, Control_c, 0, 64, 127
2, 502303, Note_on_c, 0, 52, 0
2, 502396, Note_on_c, 0, 47, 0
2, 502472, Note_on_c, 0, 47, 76
2, 502634, Control_c, 0, 64, 63
2, 502638, Note_on_c, 0, 69, 71
2, 502643, Note_on_c, 0, 67, 0
2, 502650, Control_c, 0, 64, 0
2, 502702, Control_c, 0, 64, 63
2, 502712, Control_c, 0, 64, 127
2, 502745, Note_on_c, 0, 59, 0
2, 502831, Note_on_c, 0, 66, 82
2, 502831, Note_on_c, 0, 57, 51
2, 502849, Note_on_c, 0, 69, 0
2, 502929, Control_c, 0, 64, 63
2, 502961, Control_c, 0, 64, 127
2, 503023, Note_on_c, 0, 57, 0
2, 503030, Note_on_c, 0, 59, 47
2, 503081, Note_on_c, 0, 47, 0
2, 503125, Note_on_c, 0, 66, 0
2, 503190, Note_on_c, 0, 59, 0
2, 503230, Note_on_c, 0, 40, 72
2, 503308, Note_on_c, 0, 64, 71
2, 503328, Control_c, 0, 64, 63
2, 503332, Control_c, 0, 64, 0
2, 503381, Control_c, 0, 64, 63
2, 503387, Control_c, 0, 64, 127
2, 503425, Note_on_c, 0, 47, 57
2, 503435, Note_on_c, 0, 40, 0
2, 503465, Note_on_c, 0, 64, 0
2, 503485, Note_on_c, 0, 47, 0
2, 503497, Note_on_c, 0, 52, 59
2, 503538, Note_on_c, 0, 52, 0
2, 503566, Note_on_c, 0, 55, 64
2, 503669, Note_on_c, 0, 59, 57
2, 503707, Control_c, 0, 64, 63
2, 503715, Control_c, 0, 64, 0
2, 503741, Control_c, 0, 64, 63
2, 503755, Note_on_c, 0, 64, 63
2, 503756, Control_c, 0, 64, 127
2, 503803, Note_on_c, 0, 71, 81
2, 503811, Note_on_c, 0, 64, 0
2, 503858, Note_on_c, 0, 71, 0
2, 503861, Note_on_c, 0, 67, 72
2, 503885, Note_on_c, 0, 59, 0
2, 503887, Note_on_c, 0, 55, 0
2, 503890, Note_on_c, 0, 67, 0
2, 503916, Note_on_c, 0, 57, 48
2, 503918, Note_on_c, 0, 60, 53
2, 503920, Note_on_c, 0, 76, 91
2, 503948, Note_on_c, 0, 60, 0
2, 503954, Note_on_c, 0, 57, 0
2, 503975, Note_on_c, 0, 76, 0
2, 503988, Note_on_c, 0, 66, 85
2, 504027, Note_on_c, 0, 66, 0
2, 504035, Note_on_c, 0, 75, 83
2, 504085, Note_on_c, 0, 75, 0
2, 504085, Note_on_c, 0, 69, 80
2, 504148, Note_on_c, 0, 69, 0
2, 504178, Note_on_c, 0, 40, 43
2, 504190, Note_on_c, 0, 76, 63
2, 504191, Control_c, 0, 64, 63
2, 504193, Note_on_c, 0, 67, 42
2, 504198, Control_c, 0, 64, 0
2, 504248, Control_c, 0, 64, 63
2, 504255, Control_c, 0, 64, 127
2, 504284, Note_on_c, 0, 47, 55
2, 504291, Note_on_c, 0, 40, 0
2, 504337, Note_on_c, 0, 47, 0
2, 504344, Note_on_c, 0, 52, 63
2, 504346, Note_on_c, 0, 76, 0
2, 504346, Note_on_c, 0, 67, 0
2, 504386, Note_on_c, 0, 52, 0
2, 504408, Note_on_c, 0, 55, 80
2, 504470, Note_on_c, 0, 59, 81
2, 504531, Note_on_c, 0, 64, 75
2, 504553, Control_c, 0, 64, 63
2, 504558, Control_c, 0, 64, 0
2, 504575, Note_on_c, 0, 71, 90
2, 504591, Note_on_c, 0, 64, 0
2, 504617, Control_c, 0, 64, 63
2, 504624, Note_on_c, 0, 67, 85
2, 504625, Control_c, 0, 64, 127
2, 504631, Note_on_c, 0, 71, 0
2, 504656, Note_on_c, 0, 67, 0
2, 504673, Note_on_c, 0, 55, 0
2, 504674, Note_on_c, 0, 59, 0
2, 504679, Note_on_c, 0, 57, 68
2, 504680, Note_on_c, 0, 76, 89
2, 504681, Note_on_c, 0, 60, 62
2, 504721, Note_on_c, 0, 60, 0
2, 504728, Note_on_c, 0, 57, 0
2, 504743, Note_on_c, 0, 66, 80
2, 504744, Note_on_c, 0, 76, 0
2, 504783, Note_on_c, 0, 66, 0
2, 504784, Note_on_c, 0, 75, 89
2, 504837, Note_on_c, 0, 69, 89
2, 504839, Note_on_c, 0, 75, 0
2, 504888, Note_on_c, 0, 69, 0
2, 504915, Note_on_c, 0, 40, 76
2, 504916, Control_c, 0, 64, 63
2, 504922, Control_c, 0, 64, 0
2, 504924, Note_on_c, 0, 67, 78
2, 504926, Note_on_c, 0, 76, 88
2, 504966, Control_c, 0, 64, 63
2, 504973, Control_c, 0, 64, 127
2, 505001, Note_on_c, 0, 47, 68
2, 505011, Note_on_c, 0, 40, 0
2, 505018, Note_on_c, 0, 67, 0
2, 505040, Note_on_c, 0, 47, 0
2, 505044, Note_on_c, 0, 52, 70
2, 505050, Note_on_c, 0, 76, 0
2, 505067, Note_on_c, 0, 52, 0
2, 505131, Note_on_c, 0, 59, 66
2, 505247, Note_on_c, 0, 67, 72
2, 505267, Control_c, 0, 64, 63
2, 505282, Control_c, 0, 64, 0
2, 505294, Control_c, 0, 64, 63
2, 505316, Control_c, 0, 64, 127
2, 505330, Note_on_c, 0, 71, 89
2, 505377, Note_on_c, 0, 71, 0
2, 505397, Note_on_c, 0, 83, 90
2, 505436, Note_on_c, 0, 83, 0
2, 505452, Note_on_c, 0, 71, 85
2, 505482, Note_on_c, 0, 67, 0
2, 505491, Note_on_c, 0, 71, 0
2, 505498, Note_on_c, 0, 66, 74
2, 505502, Note_on_c, 0, 74, 87
2, 505516, Note_on_c, 0, 66, 0
2, 505527, Note_on_c, 0, 72, 65
2, 505529, Note_on_c, 0, 74, 0
2, 505535, Note_on_c, 0, 59, 0
2, 505557, Note_on_c, 0, 72, 0
2, 505557, Note_on_c, 0, 71, 86
2, 505597, Note_on_c, 0, 71, 0
2, 505609, Note_on_c, 0, 81, 104
2, 505656, Note_on_c, 0, 81, 0
2, 505656, Note_on_c, 0, 71, 92
2, 505707, Note_on_c, 0, 71, 0
2, 505714, Note_on_c, 0, 40, 69
2, 505720, Note_on_c, 0, 74, 92
2, 505737, Note_on_c, 0, 72, 86
2, 505742, Control_c, 0, 64, 63
2, 505752, Note_on_c, 0, 74, 0
2, 505779, Note_on_c, 0, 47, 58
2, 505783, Note_on_c, 0, 71, 84
2, 505784, Control_c, 0, 64, 127
2, 505787, Note_on_c, 0, 40, 0
2, 505787, Note_on_c, 0, 72, 0
2, 505814, Note_on_c, 0, 47, 0
2, 505823, Note_on_c, 0, 52, 68
2, 505837, Note_on_c, 0, 71, 0
2, 505848, Note_on_c, 0, 52, 0
2, 505851, Note_on_c, 0, 79, 96
2, 505896, Note_on_c, 0, 71, 82
2, 505896, Note_on_c, 0, 59, 68
2, 505900, Note_on_c, 0, 79, 0
2, 505945, Note_on_c, 0, 71, 0
2, 505963, Control_c, 0, 64, 63
2, 505977, Note_on_c, 0, 61, 81
2, 505999, Control_c, 0, 64, 127
2, 506008, Note_on_c, 0, 71, 55
2, 506043, Note_on_c, 0, 70, 89
2, 506047, Note_on_c, 0, 71, 0
2, 506095, Note_on_c, 0, 79, 93
2, 506100, Note_on_c, 0, 70, 0
2, 506143, Note_on_c, 0, 70, 86
2, 506147, Note_on_c, 0, 79, 0
2, 506156, Control_c, 0, 64, 63
2, 506168, Control_c, 0, 64, 127
2, 506197, Note_on_c, 0, 70, 0
2, 506212, Note_on_c, 0, 73, 89
2, 506228, Note_on_c, 0, 63, 73
2, 506239, Note_on_c, 0, 71, 61
2, 506261, Note_on_c, 0, 63, 0
2, 506278, Note_on_c, 0, 61, 0
2, 506284, Note_on_c, 0, 59, 0
2, 506287, Note_on_c, 0, 73, 0
2, 506294, Note_on_c, 0, 69, 69
2, 506310, Note_on_c, 0, 71, 0
2, 506350, Note_on_c, 0, 69, 0
2, 506356, Note_on_c, 0, 78, 94
2, 506408, Note_on_c, 0, 69, 77
2, 506412, Note_on_c, 0, 78, 0
2, 506479, Note_on_c, 0, 40, 65
2, 506481, Note_on_c, 0, 69, 0
2, 506495, Note_on_c, 0, 67, 72
2, 506506, Note_on_c, 0, 76, 83
2, 506525, Control_c, 0, 64, 63
2, 506568, Note_on_c, 0, 47, 58
2, 506571, Control_c, 0, 64, 127
2, 506573, Note_on_c, 0, 40, 0
2, 506605, Note_on_c, 0, 47, 0
2, 506614, Note_on_c, 0, 52, 67
2, 506632, Note_on_c, 0, 76, 0
2, 506644, Note_on_c, 0, 52, 0
2, 506650, Note_on_c, 0, 67, 0
2, 506673, Note_on_c, 0, 55, 84
2, 506725, Note_on_c, 0, 59, 85
2, 506782, Note_on_c, 0, 64, 86
2, 506794, Control_c, 0, 64, 63
2, 506801, Control_c, 0, 64, 0
2, 506836, Note_on_c, 0, 71, 92
2, 506846, Note_on_c, 0, 64, 0
2, 506882, Note_on_c, 0, 67, 90
2, 506892, Note_on_c, 0, 71, 0
2, 506920, Note_on_c, 0, 67, 0
2, 506934, Note_on_c, 0, 55, 0
2, 506936, Note_on_c, 0, 57, 70
2, 506941, Note_on_c, 0, 59, 0
2, 506941, Note_on_c, 0, 60, 70
2, 506942, Note_on_c, 0, 76, 102
2, 506954, Control_c, 0, 64, 63
2, 506958, Control_c, 0, 64, 127
2, 506982, Note_on_c, 0, 60, 0
2, 506988, Note_on_c, 0, 57, 0
2, 507005, Note_on_c, 0, 76, 0
2, 507006, Note_on_c, 0, 66, 78
2, 507036, Note_on_c, 0, 66, 0
2, 507053, Note_on_c, 0, 75, 79
2, 507093, Note_on_c, 0, 75, 0
2, 507097, Note_on_c, 0, 69, 74
2, 507154, Note_on_c, 0, 69, 0
2, 507166, Note_on_c, 0, 40, 71
2, 507176, Control_c, 0, 64, 63
2, 507182, Control_c, 0, 64, 0
2, 507183, Note_on_c, 0, 67, 63
2, 507185, Note_on_c, 0, 76, 71
2, 507226, Control_c, 0, 64, 63
2, 507234, Control_c, 0, 64, 127
2, 507247, Note_on_c, 0, 47, 59
2, 507249, Note_on_c, 0, 40, 0
2, 507289, Note_on_c, 0, 67, 0
2, 507293, Note_on_c, 0, 47, 0
2, 507296, Note_on_c, 0, 52, 63
2, 507300, Note_on_c, 0, 76, 0
2, 507333, Note_on_c, 0, 52, 0
2, 507362, Note_on_c, 0, 55, 80
2, 507420, Note_on_c, 0, 59, 81
2, 507467, Control_c, 0, 64, 63
2, 507472, Control_c, 0, 64, 0
2, 507483, Note_on_c, 0, 64, 90
2, 507538, Note_on_c, 0, 71, 101
2, 507557, Note_on_c, 0, 64, 0
2, 507562, Control_c, 0, 64, 63
2, 507566, Control_c, 0, 64, 127
2, 507588, Note_on_c, 0, 67, 99
2, 507610, Note_on_c, 0, 71, 0
2, 507638, Note_on_c, 0, 67, 0
2, 507656, Note_on_c, 0, 76, 104
2, 507661, Note_on_c, 0, 57, 69
2, 507663, Note_on_c, 0, 60, 84
2, 507675, Note_on_c, 0, 59, 0
2, 507680, Note_on_c, 0, 55, 0
2, 507700, Note_on_c, 0, 60, 0
2, 507704, Note_on_c, 0, 57, 0
2, 507720, Note_on_c, 0, 76, 0
2, 507730, Note_on_c, 0, 66, 84
2, 507760, Note_on_c, 0, 66, 0
2, 507770, Note_on_c, 0, 75, 81
2, 507820, Note_on_c, 0, 75, 0
2, 507824, Note_on_c, 0, 69, 76
2, 507863, Control_c, 0, 64, 63
2, 507870, Control_c, 0, 64, 0
2, 507877, Note_on_c, 0, 69, 0
2, 507879, Note_on_c, 0, 40, 75
2, 507903, Note_on_c, 0, 76, 89
2, 507907, Note_on_c, 0, 67, 73
2, 507915, Control_c, 0, 64, 63
2, 507924, Control_c, 0, 64, 127
2, 507953, Note_on_c, 0, 67, 0
2, 507956, Note_on_c, 0, 47, 66
2, 507959, Note_on_c, 0, 40, 0
2, 507975, Note_on_c, 0, 76, 0
2, 508001, Note_on_c, 0, 47, 0
2, 508005, Note_on_c, 0, 52, 65
2, 508029, Note_on_c, 0, 52, 0
2, 508080, Note_on_c, 0, 59, 80
2, 508124, Control_c, 0, 64, 63
2, 508127, Control_c, 0, 64, 0
2, 508209, Control_c, 0, 64, 63
2, 508211, Note_on_c, 0, 67, 71
2, 508212, Control_c, 0, 64, 127
2, 508246, Note_on_c, 0, 67, 0
2, 508260, Note_on_c, 0, 59, 0
2, 508282, Note_on_c, 0, 71, 59
2, 508313, Note_on_c, 0, 71, 0
2, 508329, Note_on_c, 0, 83, 92
2, 508367, Note_on_c, 0, 83, 0
2, 508377, Note_on_c, 0, 53, 60
2, 508384, Note_on_c, 0, 71, 68
2, 508400, Note_on_c, 0, 53, 0
2, 508423, Note_on_c, 0, 71, 0
2, 508443, Note_on_c, 0, 74, 80
2, 508452, Note_on_c, 0, 62, 81
2, 508472, Note_on_c, 0, 73, 90
2, 508480, Note_on_c, 0, 74, 0
2, 508483, Note_on_c, 0, 68, 86
2, 508499, Note_on_c, 0, 62, 0
2, 508500, Note_on_c, 0, 68, 0
2, 508515, Note_on_c, 0, 71, 85
2, 508516, Note_on_c, 0, 73, 0
2, 508559, Note_on_c, 0, 71, 0
2, 508576, Note_on_c, 0, 83, 92
2, 508604, Note_on_c, 0, 83, 0
2, 508616, Note_on_c, 0, 71, 73
2, 508644, Note_on_c, 0, 71, 0
2, 508680, Control_c, 0, 64, 63
2, 508686, Control_c, 0, 64, 0
2, 508690, Note_on_c, 0, 30, 84
2, 508695, Note_on_c, 0, 69, 94
2, 508714, Note_on_c, 0, 67, 78
2, 508719, Control_c, 0, 64, 63
2, 508721, Note_on_c, 0, 30, 0
2, 508721, Note_on_c, 0, 42, 80
2, 508728, Note_on_c, 0, 69, 0
2, 508730, Control_c, 0, 64, 127
2, 508741, Note_on_c, 0, 42, 0
2, 508755, Note_on_c, 0, 67, 0
2, 508758, Note_on_c, 0, 66, 88
2, 508794, Note_on_c, 0, 66, 0
2, 508812, Note_on_c, 0, 47, 83
2, 508818, Note_on_c, 0, 74, 99
2, 508855, Note_on_c, 0, 74, 0
2, 508872, Note_on_c, 0, 66, 95
2, 508886, Note_on_c, 0, 54, 61
2, 508911, Note_on_c, 0, 66, 0
2, 508915, Control_c, 0, 64, 63
2, 508919, Control_c, 0, 64, 0
2, 508928, Note_on_c, 0, 67, 84
2, 508933, Note_on_c, 0, 56, 74
2, 508966, Note_on_c, 0, 66, 96
2, 508979, Note_on_c, 0, 67, 0
2, 509006, Note_on_c, 0, 65, 80
2, 509012, Note_on_c, 0, 66, 0
2, 509054, Note_on_c, 0, 74, 106
2, 509057, Note_on_c, 0, 65, 0
2, 509066, Control_c, 0, 64, 63
2, 509069, Control_c, 0, 64, 127
2, 509089, Note_on_c, 0, 47, 0
2, 509116, Note_on_c, 0, 56, 0
2, 509117, Note_on_c, 0, 65, 76
2, 509192, Note_on_c, 0, 74, 0
2, 509205, Note_on_c, 0, 58, 67
2, 509213, Note_on_c, 0, 65, 0
2, 509216, Note_on_c, 0, 67, 60
2, 509257, Note_on_c, 0, 66, 92
2, 509265, Note_on_c, 0, 67, 0
2, 509300, Note_on_c, 0, 58, 0
2, 509300, Note_on_c, 0, 66, 0
2, 509307, Note_on_c, 0, 64, 62
2, 509316, Note_on_c, 0, 54, 0
2, 509351, Note_on_c, 0, 64, 0
2, 509361, Note_on_c, 0, 73, 104
2, 509423, Note_on_c, 0, 64, 63
2, 509427, Note_on_c, 0, 73, 0
2, 509507, Note_on_c, 0, 47, 62
2, 509513, Note_on_c, 0, 64, 0
2, 509562, Note_on_c, 0, 71, 88
2, 509571, Note_on_c, 0, 62, 74
2, 509599, Control_c, 0, 64, 63
2, 509604, Control_c, 0, 64, 0
2, 509646, Control_c, 0, 64, 63
2, 509651, Control_c, 0, 64, 127
2, 509669, Note_on_c, 0, 54, 63
2, 509673, Note_on_c, 0, 47, 0
2, 509697, Note_on_c, 0, 62, 0
2, 509714, Note_on_c, 0, 54, 0
2, 509716, Note_on_c, 0, 59, 69
2, 509744, Note_on_c, 0, 71, 0
2, 509748, Note_on_c, 0, 59, 0
2, 509774, Note_on_c, 0, 62, 92
2, 509830, Note_on_c, 0, 66, 109
2, 509885, Note_on_c, 0, 71, 97
2, 509888, Control_c, 0, 64, 63
2, 509892, Control_c, 0, 64, 0
2, 509937, Note_on_c, 0, 78, 103
2, 509949, Note_on_c, 0, 71, 0
2, 509984, Note_on_c, 0, 74, 99
2, 510003, Note_on_c, 0, 78, 0
2, 510024, Note_on_c, 0, 74, 0
2, 510042, Note_on_c, 0, 64, 84
2, 510043, Note_on_c, 0, 67, 78
2, 510045, Note_on_c, 0, 83, 102
2, 510046, Note_on_c, 0, 66, 0
2, 510055, Note_on_c, 0, 62, 0
2, 510082, Control_c, 0, 64, 63
2, 510083, Control_c, 0, 64, 127
2, 510094, Note_on_c, 0, 67, 0
2, 510099, Note_on_c, 0, 64, 0
2, 510110, Note_on_c, 0, 73, 88
2, 510126, Note_on_c, 0, 83, 0
2, 510158, Note_on_c, 0, 82, 88
2, 510163, Note_on_c, 0, 73, 0
2, 510213, Note_on_c, 0, 76, 73
2, 510214, Note_on_c, 0, 82, 0
2, 510264, Note_on_c, 0, 76, 0
2, 510268, Note_on_c, 0, 47, 74
2, 510287, Note_on_c, 0, 83, 88
2, 510292, Note_on_c, 0, 74, 76
2, 510305, Control_c, 0, 64, 63
2, 510326, Control_c, 0, 64, 0
2, 510328, Control_c, 0, 64, 63
2, 510354, Control_c, 0, 64, 127
2, 510360, Note_on_c, 0, 54, 86
2, 510365, Note_on_c, 0, 47, 0
2, 510407, Note_on_c, 0, 54, 0
2, 510410, Note_on_c, 0, 59, 71
2, 510423, Note_on_c, 0, 74, 0
2, 510431, Note_on_c, 0, 83, 0
2, 510445, Note_on_c, 0, 59, 0
2, 510473, Note_on_c, 0, 62, 81
2, 510521, Note_on_c, 0, 66, 109
2, 510563, Control_c, 0, 64, 63
2, 510583, Note_on_c, 0, 71, 96
2, 510601, Control_c, 0, 64, 127
2, 510634, Note_on_c, 0, 78, 103
2, 510658, Note_on_c, 0, 71, 0
2, 510675, Note_on_c, 0, 66, 0
2, 510682, Note_on_c, 0, 74, 92
2, 510705, Note_on_c, 0, 78, 0
2, 510728, Note_on_c, 0, 74, 0
2, 510733, Control_c, 0, 64, 63
2, 510736, Note_on_c, 0, 62, 0
2, 510753, Note_on_c, 0, 64, 94
2, 510754, Control_c, 0, 64, 127
2, 510755, Note_on_c, 0, 83, 91
2, 510757, Note_on_c, 0, 67, 83
2, 510782, Note_on_c, 0, 67, 0
2, 510786, Note_on_c, 0, 64, 0
2, 510822, Note_on_c, 0, 73, 80
2, 510831, Note_on_c, 0, 83, 0
2, 510859, Note_on_c, 0, 82, 87
2, 510871, Note_on_c, 0, 73, 0
2, 510912, Note_on_c, 0, 76, 79
2, 510917, Note_on_c, 0, 82, 0
2, 510945, Control_c, 0, 64, 63
2, 510970, Control_c, 0, 64, 0
2, 510975, Note_on_c, 0, 47, 55
2, 510984, Note_on_c, 0, 76, 0
2, 510996, Control_c, 0, 64, 63
2, 510998, Note_on_c, 0, 83, 97
2, 511000, Note_on_c, 0, 74, 96
2, 511016, Control_c, 0, 64, 127
2, 511039, Note_on_c, 0, 54, 76
2, 511045, Note_on_c, 0, 74, 0
2, 511050, Note_on_c, 0, 47, 0
2, 511070, Note_on_c, 0, 83, 0
2, 511085, Note_on_c, 0, 54, 0
2, 511095, Note_on_c, 0, 59, 63
2, 511122, Note_on_c, 0, 59, 0
2, 511174, Note_on_c, 0, 66, 93
2, 511296, Note_on_c, 0, 74, 91
2, 511309, Control_c, 0, 64, 63
2, 511369, Control_c, 0, 64, 127
2, 511385, Note_on_c, 0, 78, 95
2, 511429, Note_on_c, 0, 78, 0
2, 511446, Note_on_c, 0, 90, 105
2, 511484, Note_on_c, 0, 78, 96
2, 511495, Note_on_c, 0, 90, 0
2, 511538, Note_on_c, 0, 78, 0
2, 511542, Note_on_c, 0, 74, 0
2, 511552, Note_on_c, 0, 73, 88
2, 511552, Note_on_c, 0, 81, 79
2, 511564, Note_on_c, 0, 79, 86
2, 511565, Note_on_c, 0, 66, 0
2, 511585, Note_on_c, 0, 73, 0
2, 511591, Note_on_c, 0, 81, 0
2, 511615, Note_on_c, 0, 78, 104
2, 511622, Note_on_c, 0, 79, 0
2, 511656, Note_on_c, 0, 78, 0
2, 511668, Note_on_c, 0, 88, 107
2, 511706, Note_on_c, 0, 78, 88
2, 511708, Note_on_c, 0, 88, 0
2, 511753, Note_on_c, 0, 78, 0
2, 511763, Note_on_c, 0, 81, 86
2, 511771, Note_on_c, 0, 47, 77
2, 511772, Control_c, 0, 64, 63
2, 511781, Note_on_c, 0, 79, 76
2, 511813, Note_on_c, 0, 81, 0
2, 511814, Note_on_c, 0, 54, 80
2, 511821, Note_on_c, 0, 47, 0
2, 511822, Control_c, 0, 64, 127
2, 511833, Note_on_c, 0, 78, 104
2, 511842, Note_on_c, 0, 79, 0
2, 511856, Note_on_c, 0, 54, 0
2, 511863, Note_on_c, 0, 59, 62
2, 511878, Note_on_c, 0, 78, 0
2, 511891, Note_on_c, 0, 59, 0
2, 511895, Note_on_c, 0, 86, 101
2, 511933, Note_on_c, 0, 66, 104
2, 511933, Note_on_c, 0, 78, 88
2, 511953, Note_on_c, 0, 86, 0
2, 511977, Note_on_c, 0, 78, 0
2, 512024, Note_on_c, 0, 79, 100
2, 512024, Note_on_c, 0, 68, 93
2, 512035, Control_c, 0, 64, 63
2, 512042, Note_on_c, 0, 78, 96
2, 512067, Note_on_c, 0, 79, 0
2, 512079, Control_c, 0, 64, 127
2, 512088, Note_on_c, 0, 77, 97
2, 512092, Note_on_c, 0, 78, 0
2, 512137, Note_on_c, 0, 77, 0
2, 512143, Note_on_c, 0, 86, 107
2, 512196, Note_on_c, 0, 77, 90
2, 512201, Note_on_c, 0, 86, 0
2, 512248, Note_on_c, 0, 77, 0
2, 512256, Note_on_c, 0, 79, 91
2, 512263, Note_on_c, 0, 70, 78
2, 512278, Note_on_c, 0, 78, 89
2, 512293, Note_on_c, 0, 79, 0
2, 512294, Note_on_c, 0, 68, 0
2, 512297, Note_on_c, 0, 70, 0
2, 512315, Note_on_c, 0, 66, 0
2, 512321, Note_on_c, 0, 76, 84
2, 512328, Note_on_c, 0, 78, 0
2, 512363, Note_on_c, 0, 76, 0
2, 512379, Note_on_c, 0, 85, 106
2, 512424, Note_on_c, 0, 76, 80
2, 512433, Note_on_c, 0, 85, 0
2, 512480, Note_on_c, 0, 76, 0
2, 512493, Note_on_c, 0, 47, 78
2, 512511, Note_on_c, 0, 74, 69
2, 512520, Note_on_c, 0, 83, 84
2, 512527, Control_c, 0, 64, 63
2, 512580, Note_on_c, 0, 47, 0
2, 512585, Control_c, 0, 64, 127
2, 512592, Note_on_c, 0, 54, 81
2, 512627, Note_on_c, 0, 54, 0
2, 512635, Note_on_c, 0, 59, 71
2, 512643, Note_on_c, 0, 83, 0
2, 512657, Note_on_c, 0, 74, 0
2, 512671, Note_on_c, 0, 59, 0
2, 512703, Note_on_c, 0, 62, 63
2, 512749, Note_on_c, 0, 66, 107
2, 512780, Control_c, 0, 64, 63
2, 512809, Note_on_c, 0, 71, 93
2, 512826, Control_c, 0, 64, 127
2, 512858, Note_on_c, 0, 78, 104
2, 512879, Note_on_c, 0, 71, 0
2, 512908, Note_on_c, 0, 74, 97
2, 512925, Note_on_c, 0, 78, 0
2, 512933, Control_c, 0, 64, 63
2, 512937, Note_on_c, 0, 66, 0
2, 512950, Note_on_c, 0, 74, 0
2, 512968, Note_on_c, 0, 64, 85
2, 512970, Note_on_c, 0, 83, 98
2, 512971, Note_on_c, 0, 67, 67
2, 512991, Note_on_c, 0, 62, 0
2, 512998, Control_c, 0, 64, 127
2, 513002, Note_on_c, 0, 67, 0
2, 513010, Note_on_c, 0, 64, 0
2, 513031, Note_on_c, 0, 73, 88
2, 513050, Note_on_c, 0, 83, 0
2, 513076, Note_on_c, 0, 73, 0
2, 513081, Note_on_c, 0, 82, 87
2, 513133, Note_on_c, 0, 76, 69
2, 513134, Note_on_c, 0, 82, 0
2, 513193, Note_on_c, 0, 76, 0
2, 513205, Note_on_c, 0, 47, 75
2, 513217, Control_c, 0, 64, 63
2, 513218, Note_on_c, 0, 83, 96
2, 513224, Note_on_c, 0, 74, 84
2, 513238, Control_c, 0, 64, 0
2, 513273, Control_c, 0, 64, 63
2, 513277, Note_on_c, 0, 54, 85
2, 513287, Note_on_c, 0, 47, 0
2, 513292, Control_c, 0, 64, 127
2, 513327, Note_on_c, 0, 54, 0
2, 513334, Note_on_c, 0, 59, 77
2, 513342, Note_on_c, 0, 74, 0
2, 513347, Note_on_c, 0, 83, 0
2, 513371, Note_on_c, 0, 59, 0
2, 513391, Note_on_c, 0, 62, 96
2, 513454, Note_on_c, 0, 66, 114
2, 513487, Control_c, 0, 64, 63
2, 513495, Control_c, 0, 64, 0
2, 513520, Note_on_c, 0, 71, 92
2, 513572, Control_c, 0, 64, 63
2, 513575, Note_on_c, 0, 78, 107
2, 513576, Control_c, 0, 64, 127
2, 513600, Note_on_c, 0, 71, 0
2, 513621, Note_on_c, 0, 74, 94
2, 513640, Note_on_c, 0, 78, 0
2, 513650, Note_on_c, 0, 66, 0
2, 513659, Control_c, 0, 64, 63
2, 513662, Control_c, 0, 64, 0
2, 513664, Note_on_c, 0, 74, 0
2, 513688, Note_on_c, 0, 64, 78
2, 513691, Note_on_c, 0, 62, 0
2, 513692, Note_on_c, 0, 67, 74
2, 513693, Note_on_c, 0, 83, 107
2, 513728, Control_c, 0, 64, 63
2, 513731, Control_c, 0, 64, 127
2, 513761, Note_on_c, 0, 73, 99
2, 513763, Note_on_c, 0, 67, 0
2, 513785, Note_on_c, 0, 64, 0
2, 513788, Note_on_c, 0, 83, 0
2, 513816, Note_on_c, 0, 73, 0
2, 513822, Note_on_c, 0, 82, 92
2, 513871, Note_on_c, 0, 76, 94
2, 513880, Note_on_c, 0, 82, 0
2, 513942, Note_on_c, 0, 76, 0
2, 513963, Note_on_c, 0, 47, 93
2, 514002, Control_c, 0, 64, 63
2, 514005, Control_c, 0, 64, 0
2, 514024, Note_on_c, 0, 81, 114
2, 514028, Note_on_c, 0, 72, 108
2, 514054, Control_c, 0, 64, 63
2, 514058, Control_c, 0, 64, 127
2, 514122, Note_on_c, 0, 47, 0
2, 514127, Note_on_c, 0, 54, 78
2, 514139, Note_on_c, 0, 72, 0
2, 514148, Note_on_c, 0, 81, 0
2, 514177, Note_on_c, 0, 54, 0
2, 514178, Note_on_c, 0, 60, 64
2, 514211, Note_on_c, 0, 60, 0
2, 514250, Note_on_c, 0, 64, 96
2, 514326, Note_on_c, 0, 69, 100
2, 514396, Note_on_c, 0, 72, 102
2, 514445, Note_on_c, 0, 76, 98
2, 514463, Note_on_c, 0, 72, 0
2, 514499, Note_on_c, 0, 78, 94
2, 514526, Note_on_c, 0, 76, 0
2, 514550, Note_on_c, 0, 81, 89
2, 514559, Note_on_c, 0, 78, 0
2, 514573, Note_on_c, 0, 81, 0
2, 514610, Note_on_c, 0, 84, 107
2, 514622, Note_on_c, 0, 64, 0
2, 514629, Note_on_c, 0, 69, 0
2, 514651, Note_on_c, 0, 84, 0
2, 514699, Note_on_c, 0, 96, 107
2, 514796, Note_on_c, 0, 95, 93
2, 514799, Note_on_c, 0, 96, 0
2, 514875, Note_on_c, 0, 93, 92
2, 514880, Control_c, 0, 64, 63
2, 514886, Control_c, 0, 64, 0
2, 514888, Note_on_c, 0, 95, 0
2, 514899, Note_on_c, 0, 59, 96
2, 514900, Note_on_c, 0, 69, 102
2, 514901, Note_on_c, 0, 63, 101
2, 514920, Control_c, 0, 64, 63
2, 514929, Control_c, 0, 64, 127
2, 514935, Note_on_c, 0, 93, 0
2, 514939, Note_on_c, 0, 63, 0
2, 514946, Note_on_c, 0, 69, 0
2, 514950, Note_on_c, 0, 59, 0
2, 514960, Note_on_c, 0, 91, 68
2, 515023, Note_on_c, 0, 91, 0
2, 515032, Note_on_c, 0, 90, 99
2, 515090, Note_on_c, 0, 88, 90
2, 515093, Note_on_c, 0, 90, 0
2, 515146, Note_on_c, 0, 87, 99
2, 515150, Note_on_c, 0, 88, 0
2, 515194, Note_on_c, 0, 87, 0
2, 515203, Note_on_c, 0, 90, 103
2, 515249, Note_on_c, 0, 90, 0
2, 515256, Note_on_c, 0, 81, 91
2, 515301, Note_on_c, 0, 81, 0
2, 515312, Note_on_c, 0, 83, 71
2, 515357, Note_on_c, 0, 84, 92
2, 515362, Note_on_c, 0, 83, 0
2, 515406, Note_on_c, 0, 84, 0
2, 515421, Note_on_c, 0, 78, 98
2, 515462, Note_on_c, 0, 78, 0
2, 515471, Note_on_c, 0, 83, 90
2, 515484, Control_c, 0, 64, 63
2, 515489, Control_c, 0, 64, 0
2, 515512, Note_on_c, 0, 52, 55
2, 515513, Note_on_c, 0, 81, 93
2, 515538, Note_on_c, 0, 83, 0
2, 515557, Note_on_c, 0, 59, 60
2, 515563, Control_c, 0, 64, 63
2, 515567, Control_c, 0, 64, 127
2, 515575, Note_on_c, 0, 52, 0
2, 515591, Note_on_c, 0, 81, 0
2, 515613, Note_on_c, 0, 79, 75
2, 515617, Note_on_c, 0, 67, 63
2, 515640, Note_on_c, 0, 79, 0
2, 515662, Note_on_c, 0, 59, 0
2, 515662, Note_on_c, 0, 67, 0
2, 515776, Note_on_c, 0, 91, 77
2, 515906, Note_on_c, 0, 90, 87
2, 515980, Note_on_c, 0, 52, 72
2, 516006, Note_on_c, 0, 91, 0
2, 516018, Note_on_c, 0, 89, 85
2, 516046, Control_c, 0, 64, 63
2, 516047, Control_c, 0, 64, 127
2, 516060, Note_on_c, 0, 61, 83
2, 516065, Note_on_c, 0, 90, 0
2, 516067, Note_on_c, 0, 52, 0
2, 516147, Note_on_c, 0, 88, 85
2, 516152, Note_on_c, 0, 89, 0
2, 516155, Note_on_c, 0, 67, 54
2, 516240, Note_on_c, 0, 88, 0
2, 516244, Note_on_c, 0, 87, 89
2, 516313, Note_on_c, 0, 86, 90
2, 516326, Note_on_c, 0, 87, 0
2, 516386, Note_on_c, 0, 85, 99
2, 516410, Note_on_c, 0, 86, 0
2, 516452, Note_on_c, 0, 85, 0
2, 516453, Note_on_c, 0, 84, 83
2, 516505, Note_on_c, 0, 84, 0
2, 516505, Note_on_c, 0, 83, 88
2, 516558, Note_on_c, 0, 82, 87
2, 516577, Note_on_c, 0, 83, 0
2, 516607, Note_on_c, 0, 81, 81
2, 516609, Note_on_c, 0, 67, 0
2, 516609, Note_on_c, 0, 82, 0
2, 516654, Note_on_c, 0, 80, 103
2, 516658, Note_on_c, 0, 81, 0
2, 516661, Note_on_c, 0, 61, 0
2, 516708, Note_on_c, 0, 79, 97
2, 516733, Note_on_c, 0, 80, 0
2, 516762, Note_on_c, 0, 83, 89
2, 516770, Note_on_c, 0, 79, 0
2, 516817, Note_on_c, 0, 78, 101
2, 516831, Note_on_c, 0, 83, 0
2, 516865, Note_on_c, 0, 61, 69
2, 516871, Note_on_c, 0, 78, 0
2, 516872, Note_on_c, 0, 64, 57
2, 516873, Note_on_c, 0, 55, 53
2, 516874, Note_on_c, 0, 77, 89
2, 516888, Control_c, 0, 64, 63
2, 516930, Note_on_c, 0, 76, 92
2, 516931, Note_on_c, 0, 77, 0
2, 516946, Control_c, 0, 64, 127
2, 516982, Note_on_c, 0, 76, 0
2, 516983, Note_on_c, 0, 79, 78
2, 516995, Note_on_c, 0, 61, 0
2, 517011, Note_on_c, 0, 55, 0
2, 517014, Note_on_c, 0, 64, 0
2, 517043, Note_on_c, 0, 75, 96
2, 517044, Note_on_c, 0, 79, 0
2, 517093, Note_on_c, 0, 61, 57
2, 517095, Note_on_c, 0, 55, 41
2, 517098, Note_on_c, 0, 64, 44
2, 517101, Note_on_c, 0, 75, 0
2, 517103, Note_on_c, 0, 74, 81
2, 517109, Control_c, 0, 64, 63
2, 517163, Note_on_c, 0, 73, 91
2, 517165, Note_on_c, 0, 74, 0
2, 517174, Control_c, 0, 64, 127
2, 517199, Note_on_c, 0, 61, 0
2, 517216, Note_on_c, 0, 55, 0
2, 517217, Note_on_c, 0, 64, 0
2, 517227, Note_on_c, 0, 76, 67
2, 517232, Note_on_c, 0, 73, 0
2, 517298, Note_on_c, 0, 71, 68
2, 517305, Note_on_c, 0, 76, 0
2, 517326, Control_c, 0, 64, 63
2, 517346, Control_c, 0, 64, 0
2, 517372, Note_on_c, 0, 61, 45
2, 517376, Note_on_c, 0, 54, 45
2, 517380, Note_on_c, 0, 64, 44
2, 517382, Note_on_c, 0, 70, 88
2, 517394, Note_on_c, 0, 71, 0
2, 517395, Control_c, 0, 64, 63
2, 517408, Control_c, 0, 64, 127
2, 517425, Note_on_c, 0, 70, 0
2, 517537, Note_on_c, 0, 61, 0
2, 517550, Note_on_c, 0, 64, 0
2, 517566, Note_on_c, 0, 54, 0
2, 517586, Note_on_c, 0, 91, 64
2, 517629, Control_c, 0, 64, 63
2, 517635, Control_c, 0, 64, 0
2, 517696, Note_on_c, 0, 90, 75
2, 517704, Note_on_c, 0, 52, 55
2, 517707, Note_on_c, 0, 91, 0
2, 517728, Control_c, 0, 64, 63
2, 517731, Control_c, 0, 64, 127
2, 517757, Note_on_c, 0, 52, 0
2, 517787, Note_on_c, 0, 89, 80
2, 517800, Note_on_c, 0, 90, 0
2, 517836, Note_on_c, 0, 61, 56
2, 517871, Note_on_c, 0, 67, 44
2, 517876, Note_on_c, 0, 89, 0
2, 517887, Note_on_c, 0, 88, 72
2, 517952, Note_on_c, 0, 88, 0
2, 517952, Note_on_c, 0, 87, 90
2, 518011, Note_on_c, 0, 86, 74
2, 518017, Note_on_c, 0, 87, 0
2, 518071, Note_on_c, 0, 85, 89
2, 518079, Note_on_c, 0, 86, 0
2, 518122, Note_on_c, 0, 85, 0
2, 518124, Note_on_c, 0, 84, 80
2, 518129, Note_on_c, 0, 67, 0
2, 518168, Note_on_c, 0, 84, 0
2, 518168, Note_on_c, 0, 61, 0
2, 518172, Note_on_c, 0, 83, 93
2, 518232, Note_on_c, 0, 83, 0
2, 518233, Note_on_c, 0, 82, 104
2, 518240, Note_on_c, 0, 55, 70
2, 518261, Control_c, 0, 64, 63
2, 518267, Control_c, 0, 64, 0
2, 518280, Note_on_c, 0, 55, 0
2, 518287, Note_on_c, 0, 61, 90
2, 518288, Note_on_c, 0, 82, 0
2, 518291, Note_on_c, 0, 81, 86
2, 518306, Control_c, 0, 64, 63
2, 518316, Control_c, 0, 64, 127
2, 518345, Note_on_c, 0, 81, 0
2, 518346, Note_on_c, 0, 71, 76
2, 518352, Note_on_c, 0, 80, 101
2, 518412, Note_on_c, 0, 79, 88
2, 518425, Note_on_c, 0, 80, 0
2, 518457, Note_on_c, 0, 83, 84
2, 518465, Note_on_c, 0, 71, 0
2, 518468, Note_on_c, 0, 79, 0
2, 518516, Note_on_c, 0, 78, 101
2, 518522, Note_on_c, 0, 83, 0
2, 518566, Note_on_c, 0, 78, 0
2, 518569, Note_on_c, 0, 70, 98
2, 518570, Note_on_c, 0, 77, 90
2, 518623, Note_on_c, 0, 77, 0
2, 518626, Note_on_c, 0, 76, 96
2, 518644, Note_on_c, 0, 70, 0
2, 518676, Note_on_c, 0, 79, 85
2, 518677, Note_on_c, 0, 76, 0
2, 518730, Note_on_c, 0, 75, 104
2, 518736, Note_on_c, 0, 79, 0
2, 518793, Note_on_c, 0, 75, 0
2, 518794, Note_on_c, 0, 74, 90
2, 518797, Note_on_c, 0, 54, 87
2, 518843, Note_on_c, 0, 73, 106
2, 518848, Note_on_c, 0, 74, 0
2, 518856, Control_c, 0, 64, 63
2, 518863, Note_on_c, 0, 61, 0
2, 518867, Control_c, 0, 64, 0
2, 518904, Note_on_c, 0, 76, 91
2, 518911, Note_on_c, 0, 73, 0
2, 518967, Note_on_c, 0, 70, 92
2, 518997, Note_on_c, 0, 76, 0
2, 519054, Note_on_c, 0, 60, 68
2, 519062, Note_on_c, 0, 69, 84
2, 519067, Note_on_c, 0, 70, 0
2, 519121, Note_on_c, 0, 60, 0
2, 519133, Note_on_c, 0, 69, 0
2, 519145, Note_on_c, 0, 96, 89
2, 519248, Note_on_c, 0, 54, 0
2, 519254, Note_on_c, 0, 95, 89
2, 519286, Note_on_c, 0, 96, 0
2, 519299, Note_on_c, 0, 55, 79
2, 519343, Note_on_c, 0, 94, 88
2, 519372, Note_on_c, 0, 95, 0
2, 519377, Note_on_c, 0, 64, 73
2, 519391, Note_on_c, 0, 55, 0
2, 519399, Control_c, 0, 64, 127
2, 519451, Note_on_c, 0, 93, 65
2, 519456, Note_on_c, 0, 94, 0
2, 519459, Note_on_c, 0, 72, 76
2, 519537, Note_on_c, 0, 92, 97
2, 519541, Note_on_c, 0, 93, 0
2, 519601, Note_on_c, 0, 91, 84
2, 519623, Note_on_c, 0, 92, 0
2, 519662, Note_on_c, 0, 90, 103
2, 519692, Note_on_c, 0, 91, 0
2, 519719, Note_on_c, 0, 89, 89
2, 519722, Note_on_c, 0, 90, 0
2, 519771, Note_on_c, 0, 88, 100
2, 519798, Note_on_c, 0, 89, 0
2, 519821, Note_on_c, 0, 72, 0
2, 519823, Note_on_c, 0, 87, 98
2, 519850, Note_on_c, 0, 88, 0
2, 519873, Note_on_c, 0, 86, 93
2, 519880, Note_on_c, 0, 87, 0
2, 519911, Note_on_c, 0, 57, 86
2, 519917, Control_c, 0, 64, 63
2, 519924, Control_c, 0, 64, 0
2, 519933, Note_on_c, 0, 86, 0
2, 519937, Note_on_c, 0, 85, 107
2, 519949, Control_c, 0, 64, 63
2, 519959, Control_c, 0, 64, 127
2, 519995, Note_on_c, 0, 84, 91
2, 520002, Note_on_c, 0, 85, 0
2, 520041, Note_on_c, 0, 88, 94
2, 520044, Note_on_c, 0, 57, 0
2, 520045, Note_on_c, 0, 84, 0
2, 520069, Note_on_c, 0, 64, 0
2, 520093, Note_on_c, 0, 88, 0
2, 520096, Note_on_c, 0, 83, 92
2, 520148, Note_on_c, 0, 82, 107
2, 520155, Note_on_c, 0, 83, 0
2, 520163, Note_on_c, 0, 66, 87
2, 520165, Note_on_c, 0, 69, 80
2, 520175, Note_on_c, 0, 60, 72
2, 520210, Note_on_c, 0, 81, 98
2, 520213, Note_on_c, 0, 82, 0
2, 520244, Control_c, 0, 64, 63
2, 520254, Control_c, 0, 64, 127
2, 520266, Note_on_c, 0, 81, 0
2, 520266, Note_on_c, 0, 84, 93
2, 520322, Note_on_c, 0, 80, 107
2, 520330, Note_on_c, 0, 84, 0
2, 520331, Note_on_c, 0, 66, 0
2, 520331, Note_on_c, 0, 60, 0
2, 520333, Note_on_c, 0, 69, 0
2, 520372, Note_on_c, 0, 80, 0
2, 520379, Note_on_c, 0, 79, 84
2, 520383, Note_on_c, 0, 66, 60
2, 520384, Note_on_c, 0, 69, 53
2, 520398, Note_on_c, 0, 60, 42
2, 520404, Control_c, 0, 64, 63
2, 520417, Control_c, 0, 64, 127
2, 520433, Note_on_c, 0, 79, 0
2, 520434, Note_on_c, 0, 78, 103
2, 520470, Note_on_c, 0, 66, 0
2, 520470, Note_on_c, 0, 60, 0
2, 520480, Note_on_c, 0, 69, 0
2, 520490, Note_on_c, 0, 81, 77
2, 520493, Note_on_c, 0, 78, 0
2, 520549, Note_on_c, 0, 81, 0
2, 520550, Note_on_c, 0, 76, 93
2, 520600, Control_c, 0, 64, 63
2, 520603, Note_on_c, 0, 59, 42
2, 520605, Note_on_c, 0, 66, 59
2, 520617, Note_on_c, 0, 69, 65
2, 520619, Note_on_c, 0, 75, 100
2, 520621, Note_on_c, 0, 76, 0
2, 520635, Control_c, 0, 64, 127
2, 520654, Note_on_c, 0, 75, 0
2, 520754, Note_on_c, 0, 59, 0
2, 520764, Note_on_c, 0, 66, 0
2, 520764, Note_on_c, 0, 96, 77
2, 520769, Note_on_c, 0, 69, 0
2, 520846, Note_on_c, 0, 96, 0
2, 520915, Note_on_c, 0, 95, 76
2, 520976, Note_on_c, 0, 57, 67
2, 520979, Control_c, 0, 64, 63
2, 521002, Note_on_c, 0, 95, 0
2, 521006, Note_on_c, 0, 94, 76
2, 521021, Control_c, 0, 64, 127
2, 521066, Note_on_c, 0, 66, 70
2, 521068, Note_on_c, 0, 57, 0
2, 521103, Note_on_c, 0, 94, 0
2, 521116, Note_on_c, 0, 93, 77
2, 521160, Note_on_c, 0, 72, 82
2, 521191, Note_on_c, 0, 92, 87
2, 521200, Note_on_c, 0, 93, 0
2, 521256, Note_on_c, 0, 91, 79
2, 521275, Note_on_c, 0, 92, 0
2, 521317, Note_on_c, 0, 90, 96
2, 521334, Note_on_c, 0, 91, 0
2, 521365, Note_on_c, 0, 90, 0
2, 521367, Note_on_c, 0, 89, 83
2, 521420, Note_on_c, 0, 88, 98
2, 521426, Note_on_c, 0, 89, 0
2, 521426, Note_on_c, 0, 66, 0
2, 521459, Note_on_c, 0, 72, 0
2, 521465, Note_on_c, 0, 87, 101
2, 521469, Note_on_c, 0, 60, 82
2, 521488, Note_on_c, 0, 88, 0
2, 521513, Note_on_c, 0, 86, 98
2, 521520, Note_on_c, 0, 66, 89
2, 521522, Note_on_c, 0, 87, 0
2, 521531, Note_on_c, 0, 60, 0
2, 521557, Control_c, 0, 64, 63
2, 521577, Note_on_c, 0, 86, 0
2, 521578, Note_on_c, 0, 85, 107
2, 521593, Control_c, 0, 64, 127
2, 521595, Note_on_c, 0, 76, 92
2, 521640, Note_on_c, 0, 84, 90
2, 521655, Note_on_c, 0, 85, 0
2, 521692, Note_on_c, 0, 88, 84
2, 521698, Note_on_c, 0, 84, 0
2, 521751, Note_on_c, 0, 83, 73
2, 521754, Note_on_c, 0, 88, 0
2, 521760, Note_on_c, 0, 76, 0
2, 521810, Note_on_c, 0, 82, 90
2, 521813, Note_on_c, 0, 83, 0
2, 521871, Note_on_c, 0, 81, 76
2, 521879, Note_on_c, 0, 82, 0
2, 521928, Note_on_c, 0, 81, 0
2, 521933, Note_on_c, 0, 84, 78
2, 521991, Note_on_c, 0, 84, 0
2, 521994, Note_on_c, 0, 80, 94
2, 522002, Note_on_c, 0, 66, 0
2, 522051, Note_on_c, 0, 80, 0
2, 522055, Note_on_c, 0, 79, 71
2, 522124, Note_on_c, 0, 78, 95
2, 522126, Note_on_c, 0, 79, 0
2, 522195, Note_on_c, 0, 81, 68
2, 522197, Note_on_c, 0, 78, 0
2, 522264, Note_on_c, 0, 81, 0
2, 522264, Note_on_c, 0, 76, 87
2, 522306, Note_on_c, 0, 76, 0
2, 522367, Note_on_c, 0, 60, 35
2, 522373, Note_on_c, 0, 62, 54
2, 522384, Note_on_c, 0, 66, 55
2, 522410, Control_c, 0, 64, 63
2, 522415, Control_c, 0, 64, 0
2, 522422, Note_on_c, 0, 69, 31
2, 522438, Note_on_c, 0, 74, 84
2, 522475, Note_on_c, 0, 74, 0
2, 522479, Control_c, 0, 64, 63
2, 522482, Note_on_c, 0, 76, 79
2, 522483, Control_c, 0, 64, 127
2, 522506, Note_on_c, 0, 76, 0
2, 522516, Note_on_c, 0, 74, 55
2, 522545, Note_on_c, 0, 76, 74
2, 522556, Note_on_c, 0, 74, 0
2, 522574, Note_on_c, 0, 74, 37
2, 522577, Note_on_c, 0, 66, 0
2, 522580, Note_on_c, 0, 76, 0
2, 522581, Note_on_c, 0, 62, 0
2, 522583, Note_on_c, 0, 69, 0
2, 522591, Note_on_c, 0, 60, 0
2, 522608, Note_on_c, 0, 73, 77
2, 522614, Note_on_c, 0, 74, 0
2, 522646, Note_on_c, 0, 73, 0
2, 522653, Note_on_c, 0, 74, 92
2, 522709, Note_on_c, 0, 74, 0
2, 522711, Note_on_c, 0, 76, 94
2, 522722, Note_on_c, 0, 59, 65
2, 522724, Note_on_c, 0, 62, 74
2, 522734, Note_on_c, 0, 67, 77
2, 522741, Control_c, 0, 64, 63
2, 522744, Control_c, 0, 64, 0
2, 522763, Note_on_c, 0, 78, 108
2, 522768, Note_on_c, 0, 76, 0
2, 522796, Control_c, 0, 64, 63
2, 522802, Control_c, 0, 64, 127
2, 522811, Note_on_c, 0, 78, 0
2, 522820, Note_on_c, 0, 79, 93
2, 522874, Note_on_c, 0, 81, 98
2, 522912, Note_on_c, 0, 79, 0
2, 522920, Note_on_c, 0, 83, 104
2, 522934, Note_on_c, 0, 81, 0
2, 522941, Note_on_c, 0, 59, 0
2, 522956, Note_on_c, 0, 62, 0
2, 522956, Note_on_c, 0, 67, 0
2, 522965, Note_on_c, 0, 83, 0
2, 522974, Note_on_c, 0, 84, 106
2, 523029, Note_on_c, 0, 86, 106
2, 523058, Note_on_c, 0, 84, 0
2, 523069, Note_on_c, 0, 86, 0
2, 523080, Note_on_c, 0, 95, 106
2, 523114, Note_on_c, 0, 95, 0
2, 523154, Note_on_c, 0, 59, 11
2, 523155, Note_on_c, 0, 60, 34
2, 523184, Control_c, 0, 64, 63
2, 523186, Note_on_c, 0, 64, 48
2, 523190, Control_c, 0, 64, 0
2, 523191, Note_on_c, 0, 67, 60
2, 523205, Note_on_c, 0, 72, 98
2, 523225, Control_c, 0, 64, 63
2, 523233, Control_c, 0, 64, 127
2, 523237, Note_on_c, 0, 74, 80
2, 523242, Note_on_c, 0, 72, 0
2, 523256, Note_on_c, 0, 67, 0
2, 523262, Note_on_c, 0, 64, 0
2, 523262, Note_on_c, 0, 74, 0
2, 523267, Note_on_c, 0, 60, 0
2, 523277, Note_on_c, 0, 59, 0
2, 523277, Note_on_c, 0, 72, 75
2, 523299, Note_on_c, 0, 74, 87
2, 523313, Note_on_c, 0, 72, 0
2, 523333, Note_on_c, 0, 74, 0
2, 523336, Note_on_c, 0, 72, 77
2, 523376, Note_on_c, 0, 71, 80
2, 523379, Note_on_c, 0, 72, 0
2, 523393, Note_on_c, 0, 57, 68
2, 523403, Note_on_c, 0, 60, 68
2, 523418, Note_on_c, 0, 71, 0
2, 523419, Note_on_c, 0, 72, 101
2, 523419, Note_on_c, 0, 64, 84
2, 523429, Control_c, 0, 64, 63
2, 523431, Control_c, 0, 64, 0
2, 523441, Note_on_c, 0, 60, 0
2, 523450, Note_on_c, 0, 66, 75
2, 523476, Note_on_c, 0, 74, 98
2, 523484, Note_on_c, 0, 72, 0
2, 523518, Control_c, 0, 64, 63
2, 523522, Control_c, 0, 64, 127
2, 523528, Note_on_c, 0, 76, 97
2, 523543, Note_on_c, 0, 74, 0
2, 523586, Note_on_c, 0, 78, 101
2, 523598, Note_on_c, 0, 76, 0
2, 523632, Note_on_c, 0, 78, 0
2, 523634, Note_on_c, 0, 79, 93
2, 523687, Note_on_c, 0, 81, 103
2, 523696, Note_on_c, 0, 79, 0
2, 523721, Note_on_c, 0, 64, 0
2, 523729, Note_on_c, 0, 66, 0
2, 523735, Note_on_c, 0, 57, 0
2, 523737, Note_on_c, 0, 83, 106
2, 523751, Note_on_c, 0, 81, 0
2, 523783, Note_on_c, 0, 83, 0
2, 523789, Note_on_c, 0, 84, 108
2, 523843, Note_on_c, 0, 84, 0
2, 523851, Note_on_c, 0, 93, 102
2, 523879, Note_on_c, 0, 93, 0
2, 523895, Note_on_c, 0, 57, 54
2, 523912, Note_on_c, 0, 59, 46
2, 523938, Note_on_c, 0, 63, 76
2, 523950, Control_c, 0, 64, 63
2, 523955, Control_c, 0, 64, 0
2, 523961, Note_on_c, 0, 66, 77
2, 523982, Note_on_c, 0, 71, 90
2, 524014, Control_c, 0, 64, 63
2, 524016, Note_on_c, 0, 72, 72
2, 524017, Control_c, 0, 64, 127
2, 524019, Note_on_c, 0, 71, 0
2, 524043, Note_on_c, 0, 72, 0
2, 524053, Note_on_c, 0, 71, 79
2, 524065, Note_on_c, 0, 66, 0
2, 524070, Note_on_c, 0, 63, 0
2, 524077, Note_on_c, 0, 59, 0
2, 524093, Note_on_c, 0, 72, 57
2, 524095, Note_on_c, 0, 57, 0
2, 524119, Note_on_c, 0, 72, 0
2, 524148, Note_on_c, 0, 70, 70
2, 524154, Note_on_c, 0, 71, 0
2, 524188, Note_on_c, 0, 70, 0
2, 524196, Note_on_c, 0, 71, 101
2, 524237, Note_on_c, 0, 59, 65
2, 524239, Note_on_c, 0, 55, 62
2, 524242, Control_c, 0, 64, 63
2, 524245, Control_c, 0, 64, 0
2, 524250, Note_on_c, 0, 71, 0
2, 524251, Note_on_c, 0, 73, 105
2, 524252, Note_on_c, 0, 64, 76
2, 524305, Note_on_c, 0, 75, 109
2, 524310, Control_c, 0, 64, 63
2, 524313, Control_c, 0, 64, 127
2, 524326, Note_on_c, 0, 73, 0
2, 524365, Note_on_c, 0, 75, 0
2, 524367, Note_on_c, 0, 76, 90
2, 524430, Note_on_c, 0, 78, 112
2, 524433, Note_on_c, 0, 76, 0
2, 524487, Note_on_c, 0, 79, 106
2, 524490, Note_on_c, 0, 78, 0
2, 524529, Note_on_c, 0, 59, 0
2, 524531, Note_on_c, 0, 55, 0
2, 524541, Note_on_c, 0, 79, 0
2, 524542, Note_on_c, 0, 64, 0
2, 524550, Note_on_c, 0, 81, 106
2, 524607, Note_on_c, 0, 81, 0
2, 524610, Note_on_c, 0, 83, 111
2, 524664, Note_on_c, 0, 83, 0
2, 524668, Note_on_c, 0, 91, 111
2, 524702, Note_on_c, 0, 91, 0
2, 524734, Control_c, 0, 64, 63
2, 524737, Note_on_c, 0, 57, 81
2, 524741, Control_c, 0, 64, 0
2, 524746, Note_on_c, 0, 61, 109
2, 524749, Note_on_c, 0, 67, 116
2, 524761, Note_on_c, 0, 76, 113
2, 524784, Control_c, 0, 64, 63
2, 524786, Control_c, 0, 64, 127
2, 524799, Note_on_c, 0, 57, 0
2, 524803, Note_on_c, 0, 61, 0
2, 524806, Note_on_c, 0, 67, 0
2, 524830, Note_on_c, 0, 78, 103
2, 524843, Note_on_c, 0, 76, 0
2, 524891, Note_on_c, 0, 79, 99
2, 524912, Note_on_c, 0, 78, 0
2, 524959, Note_on_c, 0, 80, 103
2, 524981, Note_on_c, 0, 79, 0
2, 525018, Note_on_c, 0, 80, 0
2, 525021, Note_on_c, 0, 81, 92
2, 525084, Note_on_c, 0, 83, 98
2, 525093, Note_on_c, 0, 81, 0
2, 525147, Note_on_c, 0, 85, 112
2, 525160, Note_on_c, 0, 83, 0
2, 525199, Note_on_c, 0, 85, 0
2, 525209, Note_on_c, 0, 86, 106
2, 525270, Note_on_c, 0, 86, 0
2, 525297, Note_on_c, 0, 33, 101
2, 525298, Note_on_c, 0, 45, 118
2, 525299, Control_c, 0, 64, 63
2, 525303, Note_on_c, 0, 88, 114
2, 525305, Control_c, 0, 64, 0
2, 525353, Control_c, 0, 64, 63
2, 525357, Control_c, 0, 64, 127
2, 525382, Note_on_c, 0, 90, 107
2, 525386, Note_on_c, 0, 88, 0
2, 525446, Note_on_c, 0, 90, 0
2, 525459, Note_on_c, 0, 33, 0
2, 525463, Note_on_c, 0, 91, 94
2, 525505, Note_on_c, 0, 45, 0
2, 525549, Note_on_c, 0, 91, 0
2, 525562, Note_on_c, 0, 97, 107
2, 525617, Note_on_c, 0, 97, 0
2, 525687, Note_on_c, 0, 50, 122
2, 525689, Note_on_c, 0, 38, 117
2, 525689, Note_on_c, 0, 98, 109
2, 525714, Control_c, 0, 64, 127
2, 525785, Control_c, 0, 64, 63
2, 525787, Control_c, 0, 64, 0
2, 525831, Note_on_c, 0, 90, 106
2, 525839, Control_c, 0, 64, 127
2, 525897, Note_on_c, 0, 38, 0
2, 525903, Note_on_c, 0, 98, 0
2, 525927, Note_on_c, 0, 50, 0
2, 525928, Note_on_c, 0, 86, 98
2, 525985, Note_on_c, 0, 90, 0
2, 526002, Note_on_c, 0, 86, 0
2, 526006, Note_on_c, 0, 93, 87
2, 526075, Note_on_c, 0, 62, 107
2, 526082, Note_on_c, 0, 97, 107
2, 526095, Note_on_c, 0, 93, 0
2, 526130, Note_on_c, 0, 97, 0
2, 526154, Note_on_c, 0, 89, 93
2, 526162, Note_on_c, 0, 68, 96
2, 526167, Note_on_c, 0, 62, 0
2, 526216, Note_on_c, 0, 89, 0
2, 526235, Note_on_c, 0, 71, 92
2, 526239, Note_on_c, 0, 83, 83
2, 526240, Note_on_c, 0, 68, 0
2, 526280, Note_on_c, 0, 83, 0
2, 526282, Note_on_c, 0, 71, 0
2, 526304, Note_on_c, 0, 77, 87
2, 526307, Note_on_c, 0, 92, 112
2, 526335, Note_on_c, 0, 77, 0
2, 526347, Note_on_c, 0, 92, 0
2, 526372, Note_on_c, 0, 62, 93
2, 526373, Note_on_c, 0, 96, 106
2, 526410, Note_on_c, 0, 96, 0
2, 526436, Note_on_c, 0, 88, 59
2, 526443, Note_on_c, 0, 62, 0
2, 526446, Note_on_c, 0, 67, 88
2, 526507, Note_on_c, 0, 70, 87
2, 526509, Note_on_c, 0, 82, 100
2, 526512, Note_on_c, 0, 67, 0
2, 526534, Note_on_c, 0, 88, 0
2, 526555, Note_on_c, 0, 70, 0
2, 526555, Note_on_c, 0, 82, 0
2, 526562, Note_on_c, 0, 76, 49
2, 526565, Note_on_c, 0, 91, 89
2, 526592, Note_on_c, 0, 76, 0
2, 526617, Note_on_c, 0, 95, 107
2, 526618, Note_on_c, 0, 62, 99
2, 526625, Note_on_c, 0, 91, 0
2, 526667, Note_on_c, 0, 95, 0
2, 526679, Note_on_c, 0, 66, 90
2, 526682, Note_on_c, 0, 62, 0
2, 526684, Note_on_c, 0, 87, 108
2, 526737, Note_on_c, 0, 69, 55
2, 526738, Note_on_c, 0, 66, 0
2, 526739, Note_on_c, 0, 81, 90
2, 526750, Note_on_c, 0, 87, 0
2, 526781, Note_on_c, 0, 81, 0
2, 526788, Note_on_c, 0, 69, 0
2, 526792, Note_on_c, 0, 75, 93
2, 526800, Note_on_c, 0, 90, 107
2, 526824, Note_on_c, 0, 75, 0
2, 526846, Note_on_c, 0, 62, 92
2, 526857, Note_on_c, 0, 94, 108
2, 526868, Note_on_c, 0, 90, 0
2, 526909, Note_on_c, 0, 86, 89
2, 526918, Note_on_c, 0, 94, 0
2, 526918, Note_on_c, 0, 65, 81
2, 526930, Note_on_c, 0, 62, 0
2, 526963, Note_on_c, 0, 80, 98
2, 526970, Note_on_c, 0, 68, 88
2, 526988, Note_on_c, 0, 86, 0
2, 526988, Note_on_c, 0, 65, 0
2, 527008, Note_on_c, 0, 80, 0
2, 527015, Note_on_c, 0, 89, 86
2, 527015, Note_on_c, 0, 74, 77
2, 527037, Note_on_c, 0, 68, 0
2, 527060, Note_on_c, 0, 74, 0
2, 527068, Note_on_c, 0, 93, 103
2, 527075, Note_on_c, 0, 62, 84
2, 527080, Note_on_c, 0, 89, 0
2, 527119, Note_on_c, 0, 93, 0
2, 527119, Note_on_c, 0, 85, 108
2, 527126, Note_on_c, 0, 64, 84
2, 527133, Note_on_c, 0, 62, 0
2, 527170, Note_on_c, 0, 79, 89
2, 527177, Note_on_c, 0, 67, 84
2, 527190, Note_on_c, 0, 64, 0
2, 527204, Note_on_c, 0, 85, 0
2, 527217, Note_on_c, 0, 88, 88
2, 527218, Note_on_c, 0, 79, 0
2, 527228, Note_on_c, 0, 67, 0
2, 527228, Note_on_c, 0, 73, 96
2, 527261, Note_on_c, 0, 73, 0
2, 527273, Note_on_c, 0, 62, 98
2, 527276, Note_on_c, 0, 92, 106
2, 527280, Note_on_c, 0, 88, 0
2, 527290, Control_c, 0, 64, 63
2, 527315, Control_c, 0, 64, 127
2, 527326, Note_on_c, 0, 63, 104
2, 527331, Note_on_c, 0, 92, 0
2, 527331, Note_on_c, 0, 84, 81
2, 527342, Note_on_c, 0, 62, 0
2, 527382, Note_on_c, 0, 78, 95
2, 527386, Note_on_c, 0, 66, 92
2, 527399, Note_on_c, 0, 63, 0
2, 527401, Note_on_c, 0, 84, 0
2, 527425, Note_on_c, 0, 78, 0
2, 527428, Note_on_c, 0, 72, 85
2, 527430, Note_on_c, 0, 87, 98
2, 527437, Note_on_c, 0, 66, 0
2, 527475, Note_on_c, 0, 72, 0
2, 527482, Note_on_c, 0, 91, 91
2, 527484, Note_on_c, 0, 62, 96
2, 527494, Note_on_c, 0, 87, 0
2, 527535, Note_on_c, 0, 91, 0
2, 527538, Note_on_c, 0, 83, 89
2, 527557, Note_on_c, 0, 65, 87
2, 527574, Note_on_c, 0, 62, 0
2, 527595, Note_on_c, 0, 77, 83
2, 527610, Note_on_c, 0, 83, 0
2, 527622, Note_on_c, 0, 65, 0
2, 527643, Note_on_c, 0, 77, 0
2, 527644, Note_on_c, 0, 71, 90
2, 527654, Note_on_c, 0, 86, 85
2, 527686, Note_on_c, 0, 71, 0
2, 527704, Note_on_c, 0, 86, 0
2, 527711, Note_on_c, 0, 90, 110
2, 527712, Note_on_c, 0, 62, 116
2, 527744, Note_on_c, 0, 62, 0
2, 527777, Note_on_c, 0, 90, 0
2, 527780, Note_on_c, 0, 82, 91
2, 527836, Note_on_c, 0, 76, 74
2, 527839, Note_on_c, 0, 70, 124
2, 527862, Note_on_c, 0, 82, 0
2, 527873, Note_on_c, 0, 70, 0
2, 527878, Note_on_c, 0, 76, 0
2, 527899, Note_on_c, 0, 85, 88
2, 527968, Note_on_c, 0, 62, 104
2, 527969, Note_on_c, 0, 89, 79
2, 527974, Note_on_c, 0, 85, 0
2, 528013, Note_on_c, 0, 89, 0
2, 528020, Note_on_c, 0, 81, 84
2, 528061, Note_on_c, 0, 69, 109
2, 528068, Note_on_c, 0, 75, 106
2, 528087, Note_on_c, 0, 81, 0
2, 528111, Note_on_c, 0, 75, 0
2, 528112, Note_on_c, 0, 84, 92
2, 528122, Note_on_c, 0, 62, 0
2, 528161, Note_on_c, 0, 88, 101
2, 528173, Note_on_c, 0, 84, 0
2, 528173, Note_on_c, 0, 62, 118
2, 528174, Note_on_c, 0, 69, 0
2, 528210, Note_on_c, 0, 88, 0
2, 528218, Note_on_c, 0, 80, 97
2, 528262, Note_on_c, 0, 74, 74
2, 528271, Note_on_c, 0, 68, 119
2, 528296, Note_on_c, 0, 62, 0
2, 528310, Note_on_c, 0, 74, 0
2, 528315, Note_on_c, 0, 80, 0
2, 528315, Note_on_c, 0, 83, 77
2, 528356, Note_on_c, 0, 68, 0
2, 528375, Note_on_c, 0, 87, 95
2, 528378, Note_on_c, 0, 62, 117
2, 528393, Note_on_c, 0, 83, 0
2, 528433, Note_on_c, 0, 87, 0
2, 528438, Note_on_c, 0, 79, 63
2, 528491, Note_on_c, 0, 67, 113
2, 528494, Note_on_c, 0, 73, 98
2, 528523, Note_on_c, 0, 79, 0
2, 528524, Note_on_c, 0, 62, 0
2, 528549, Note_on_c, 0, 73, 0
2, 528551, Note_on_c, 0, 82, 97
2, 528616, Note_on_c, 0, 67, 0
2, 528629, Note_on_c, 0, 66, 124
2, 528630, Note_on_c, 0, 62, 114
2, 528630, Note_on_c, 0, 86, 108
2, 528633, Control_c, 0, 64, 63
2, 528641, Control_c, 0, 64, 0
2, 528646, Note_on_c, 0, 82, 0
2, 528656, Control_c, 0, 64, 63
2, 528666, Control_c, 0, 64, 127
2, 528741, Note_on_c, 0, 86, 0
2, 528743, Note_on_c, 0, 78, 105
2, 528782, Note_on_c, 0, 66, 0
2, 528799, Note_on_c, 0, 78, 0
2, 528807, Note_on_c, 0, 72, 90
2, 528809, Note_on_c, 0, 62, 0
2, 528835, Note_on_c, 0, 72, 0
2, 528860, Note_on_c, 0, 69, 84
2, 528909, Note_on_c, 0, 69, 0
2, 528910, Note_on_c, 0, 74, 102
2, 528959, Note_on_c, 0, 74, 0
2, 528971, Note_on_c, 0, 66, 114
2, 529008, Note_on_c, 0, 66, 0
2, 529022, Note_on_c, 0, 60, 86
2, 529049, Note_on_c, 0, 60, 0
2, 529064, Note_on_c, 0, 57, 99
2, 529117, Note_on_c, 0, 62, 109
2, 529122, Note_on_c, 0, 57, 0
2, 529164, Note_on_c, 0, 57, 98
2, 529173, Note_on_c, 0, 62, 0
2, 529217, Note_on_c, 0, 57, 0
2, 529217, Note_on_c, 0, 54, 107
2, 529256, Note_on_c, 0, 54, 0
2, 529262, Note_on_c, 0, 48, 99
2, 529311, Note_on_c, 0, 48, 0
2, 529345, Note_on_c, 0, 55, 104
2, 529355, Note_on_c, 0, 51, 124
2, 529357, Note_on_c, 0, 39, 119
2, 529360, Control_c, 0, 64, 63
2, 529365, Control_c, 0, 64, 0
2, 529402, Control_c, 0, 64, 63
2, 529410, Control_c, 0, 64, 127
2, 529443, Note_on_c, 0, 60, 100
2, 529453, Note_on_c, 0, 55, 0
2, 529499, Note_on_c, 0, 57, 82
2, 529503, Note_on_c, 0, 60, 0
2, 529530, Note_on_c, 0, 57, 0
2, 529552, Note_on_c, 0, 60, 87
2, 529593, Note_on_c, 0, 60, 0
2, 529613, Note_on_c, 0, 67, 106
2, 529662, Note_on_c, 0, 72, 106
2, 529675, Note_on_c, 0, 67, 0
2, 529712, Note_on_c, 0, 69, 89
2, 529726, Note_on_c, 0, 72, 0
2, 529746, Note_on_c, 0, 69, 0
2, 529774, Note_on_c, 0, 72, 91
2, 529798, Note_on_c, 0, 72, 0
2, 529829, Note_on_c, 0, 79, 109
2, 529888, Note_on_c, 0, 84, 113
2, 529903, Note_on_c, 0, 79, 0
2, 529906, Note_on_c, 0, 51, 0
2, 529914, Note_on_c, 0, 39, 0
2, 529932, Note_on_c, 0, 81, 106
2, 529951, Note_on_c, 0, 84, 0
2, 529984, Note_on_c, 0, 84, 116
2, 530001, Note_on_c, 0, 81, 0
2, 530019, Note_on_c, 0, 84, 0
2, 530058, Note_on_c, 0, 50, 118
2, 530058, Note_on_c, 0, 86, 117
2, 530062, Note_on_c, 0, 38, 112
2, 530069, Control_c, 0, 64, 63
2, 530074, Control_c, 0, 64, 0
2, 530097, Control_c, 0, 64, 63
2, 530107, Control_c, 0, 64, 127
2, 530159, Note_on_c, 0, 86, 0
2, 530169, Note_on_c, 0, 78, 105
2, 530215, Note_on_c, 0, 78, 0
2, 530235, Note_on_c, 0, 72, 88
2, 530253, Note_on_c, 0, 72, 0
2, 530273, Note_on_c, 0, 69, 99
2, 530311, Note_on_c, 0, 69, 0
2, 530321, Note_on_c, 0, 74, 101
2, 530376, Note_on_c, 0, 74, 0
2, 530386, Note_on_c, 0, 66, 113
2, 530425, Note_on_c, 0, 66, 0
2, 530440, Note_on_c, 0, 60, 85
2, 530455, Note_on_c, 0, 50, 0
2, 530467, Note_on_c, 0, 60, 0
2, 530493, Note_on_c, 0, 57, 91
2, 530538, Note_on_c, 0, 57, 0
2, 530548, Note_on_c, 0, 62, 102
2, 530601, Note_on_c, 0, 57, 96
2, 530604, Note_on_c, 0, 38, 0
2, 530609, Note_on_c, 0, 62, 0
2, 530646, Note_on_c, 0, 57, 0
2, 530661, Note_on_c, 0, 54, 105
2, 530712, Note_on_c, 0, 48, 86
2, 530720, Note_on_c, 0, 54, 0
2, 530745, Note_on_c, 0, 48, 0
2, 530782, Note_on_c, 0, 55, 107
2, 530789, Control_c, 0, 64, 63
2, 530791, Note_on_c, 0, 48, 120
2, 530794, Note_on_c, 0, 36, 113
2, 530795, Control_c, 0, 64, 0
2, 530830, Control_c, 0, 64, 63
2, 530835, Control_c, 0, 64, 127
2, 530883, Note_on_c, 0, 63, 105
2, 530905, Note_on_c, 0, 55, 0
2, 530950, Note_on_c, 0, 63, 0
2, 530953, Note_on_c, 0, 57, 86
2, 530991, Note_on_c, 0, 57, 0
2, 531020, Note_on_c, 0, 60, 85
2, 531047, Note_on_c, 0, 60, 0
2, 531082, Note_on_c, 0, 67, 101
2, 531135, Note_on_c, 0, 67, 0
2, 531137, Note_on_c, 0, 75, 108
2, 531194, Note_on_c, 0, 75, 0
2, 531194, Note_on_c, 0, 69, 97
2, 531227, Note_on_c, 0, 69, 0
2, 531253, Note_on_c, 0, 72, 102
2, 531293, Note_on_c, 0, 72, 0
2, 531328, Note_on_c, 0, 79, 101
2, 531390, Note_on_c, 0, 79, 0
2, 531402, Note_on_c, 0, 87, 113
2, 531456, Note_on_c, 0, 87, 0
2, 531483, Note_on_c, 0, 81, 108
2, 531518, Note_on_c, 0, 81, 0
2, 531537, Note_on_c, 0, 48, 0
2, 531566, Note_on_c, 0, 36, 0
2, 531584, Note_on_c, 0, 84, 121
2, 531618, Note_on_c, 0, 84, 0
2, 531753, Note_on_c, 0, 42, 118
2, 531755, Note_on_c, 0, 30, 118
2, 531756, Note_on_c, 0, 99, 116
2, 531764, Control_c, 0, 64, 63
2, 531769, Control_c, 0, 64, 0
2, 531840, Control_c, 0, 64, 63
2, 531842, Control_c, 0, 64, 127
2, 531868, Note_on_c, 0, 30, 0
2, 531884, Note_on_c, 0, 99, 0
2, 531893, Note_on_c, 0, 42, 0
2, 532032, Note_on_c, 0, 96, 113
2, 532118, Note_on_c, 0, 96, 0
2, 532132, Note_on_c, 0, 93, 103
2, 532182, Note_on_c, 0, 54, 94
2, 532206, Note_on_c, 0, 90, 112
2, 532223, Note_on_c, 0, 93, 0
2, 532227, Note_on_c, 0, 60, 84
2, 532232, Note_on_c, 0, 54, 0
2, 532263, Note_on_c, 0, 63, 88
2, 532295, Note_on_c, 0, 87, 105
2, 532297, Note_on_c, 0, 69, 109
2, 532318, Note_on_c, 0, 90, 0
2, 532386, Note_on_c, 0, 84, 87
2, 532392, Note_on_c, 0, 87, 0
2, 532418, Note_on_c, 0, 84, 0
2, 532464, Note_on_c, 0, 81, 90
2, 532537, Note_on_c, 0, 78, 93
2, 532540, Note_on_c, 0, 81, 0
2, 532556, Note_on_c, 0, 69, 0
2, 532602, Note_on_c, 0, 75, 97
2, 532623, Note_on_c, 0, 78, 0
2, 532648, Note_on_c, 0, 75, 0
2, 532656, Note_on_c, 0, 72, 82
2, 532672, Note_on_c, 0, 63, 0
2, 532685, Note_on_c, 0, 72, 0
2, 532692, Note_on_c, 0, 60, 0
2, 532721, Note_on_c, 0, 69, 76
2, 532770, Note_on_c, 0, 66, 100
2, 532771, Note_on_c, 0, 69, 0
2, 532813, Note_on_c, 0, 66, 0
2, 532827, Note_on_c, 0, 63, 99
2, 532870, Note_on_c, 0, 63, 0
2, 532875, Note_on_c, 0, 60, 90
2, 532911, Note_on_c, 0, 60, 0
2, 532941, Note_on_c, 0, 57, 78
2, 532995, Note_on_c, 0, 54, 96
2, 532997, Note_on_c, 0, 57, 0
2, 533048, Note_on_c, 0, 54, 0
2, 533065, Note_on_c, 0, 51, 101
2, 533122, Note_on_c, 0, 51, 0
2, 533126, Note_on_c, 0, 48, 88
2, 533185, Note_on_c, 0, 48, 0
2, 533205, Note_on_c, 0, 45, 87
2, 533288, Note_on_c, 0, 43, 97
2, 533311, Note_on_c, 0, 45, 0
2, 533433, Note_on_c, 0, 42, 71
2, 533440, Note_on_c, 0, 69, 83
2, 533472, Note_on_c, 0, 43, 0
2, 533484, Control_c, 0, 64, 63
2, 533500, Control_c, 0, 64, 0
2, 533550, Note_on_c, 0, 70, 82
2, 533557, Control_c, 0, 64, 63
2, 533565, Control_c, 0, 64, 127
2, 533577, Note_on_c, 0, 69, 0
2, 533625, Note_on_c, 0, 69, 76
2, 533645, Note_on_c, 0, 70, 0
2, 533686, Note_on_c, 0, 68, 89
2, 533695, Note_on_c, 0, 69, 0
2, 533738, Note_on_c, 0, 68, 0
2, 533739, Note_on_c, 0, 69, 75
2, 533814, Note_on_c, 0, 39, 52
2, 533828, Note_on_c, 0, 70, 77
2, 533859, Note_on_c, 0, 69, 0
2, 533870, Note_on_c, 0, 42, 0
2, 533888, Control_c, 0, 64, 63
2, 533913, Control_c, 0, 64, 0
2, 534011, Control_c, 0, 64, 63
2, 534015, Control_c, 0, 64, 127
2, 534170, Note_on_c, 0, 72, 55
2, 534181, Note_on_c, 0, 39, 0
2, 534200, Note_on_c, 0, 70, 0
2, 534326, Note_on_c, 0, 72, 0
2, 534353, Note_on_c, 0, 38, 39
2, 534398, Note_on_c, 0, 72, 63
2, 534501, Control_c, 0, 64, 63
2, 534555, Control_c, 0, 64, 127
2, 534616, Note_on_c, 0, 38, 0
2, 534639, Note_on_c, 0, 72, 0
2, 534979, Note_on_c, 0, 50, 19
2, 535056, Note_on_c, 0, 57, 21
2, 535117, Note_on_c, 0, 60, 25
2, 535151, Note_on_c, 0, 50, 0
2, 535174, Note_on_c, 0, 57, 0
2, 535185, Note_on_c, 0, 60, 0
2, 535201, Note_on_c, 0, 66, 44
2, 535393, Note_on_c, 0, 66, 0
2, 535989, Note_on_c, 0, 76, 38
2, 536089, Note_on_c, 0, 76, 0
2, 536423, Note_on_c, 0, 75, 38
2, 536501, Note_on_c, 0, 75, 0
2, 537097, Note_on_c, 0, 74, 25
2, 537608, Control_c, 0, 64, 63
2, 537763, Control_c, 0, 64, 0
2, 537898, Note_on_c, 0, 74, 0
2, 538467, Note_on_c, 0, 62, 34
2, 538547, Control_c, 0, 64, 63
2, 538562, Control_c, 0, 64, 127
2, 538679, Note_on_c, 0, 62, 0
2, 539094, Note_on_c, 0, 43, 35
2, 539176, Note_on_c, 0, 74, 41
2, 539262, Control_c, 0, 64, 63
2, 539319, Control_c, 0, 64, 127
2, 539503, Note_on_c, 0, 50, 26
2, 539519, Note_on_c, 0, 43, 0
2, 539560, Note_on_c, 0, 74, 0
2, 539661, Note_on_c, 0, 50, 0
2, 539693, Note_on_c, 0, 74, 59
2, 539695, Note_on_c, 0, 59, 24
2, 539895, Note_on_c, 0, 50, 27
2, 539958, Note_on_c, 0, 50, 0
2, 539960, Note_on_c, 0, 59, 0
2, 540051, Note_on_c, 0, 74, 0
2, 540077, Note_on_c, 0, 76, 71
2, 540088, Note_on_c, 0, 60, 40
2, 540199, Note_on_c, 0, 76, 0
2, 540264, Note_on_c, 0, 60, 0
2, 540266, Note_on_c, 0, 50, 52
2, 540314, Note_on_c, 0, 50, 0
2, 540337, Note_on_c, 0, 78, 64
2, 540429, Note_on_c, 0, 78, 0
2, 540434, Note_on_c, 0, 43, 48
2, 540444, Note_on_c, 0, 79, 63
2, 540469, Control_c, 0, 64, 63
2, 540536, Control_c, 0, 64, 127
2, 540646, Note_on_c, 0, 50, 41
2, 540663, Note_on_c, 0, 43, 0
2, 540715, Note_on_c, 0, 79, 0
2, 540742, Note_on_c, 0, 50, 0
2, 540779, Note_on_c, 0, 59, 42
2, 540782, Note_on_c, 0, 79, 83
2, 540922, Note_on_c, 0, 50, 58
2, 540936, Note_on_c, 0, 59, 0
2, 540941, Note_on_c, 0, 79, 0
2, 541066, Note_on_c, 0, 81, 84
2, 541070, Note_on_c, 0, 60, 54
2, 541085, Note_on_c, 0, 50, 0
2, 541162, Note_on_c, 0, 60, 0
2, 541168, Note_on_c, 0, 81, 0
2, 541210, Note_on_c, 0, 50, 64
2, 541343, Note_on_c, 0, 43, 62
2, 541372, Note_on_c, 0, 83, 84
2, 541382, Note_on_c, 0, 50, 0
2, 541394, Control_c, 0, 64, 63
2, 541455, Control_c, 0, 64, 127
2, 541531, Note_on_c, 0, 50, 63
2, 541546, Note_on_c, 0, 43, 0
2, 541577, Note_on_c, 0, 50, 0
2, 541598, Note_on_c, 0, 83, 0
2, 541727, Note_on_c, 0, 81, 72
2, 541734, Note_on_c, 0, 62, 43
2, 541842, Note_on_c, 0, 62, 0
2, 541908, Note_on_c, 0, 79, 55
2, 541911, Note_on_c, 0, 50, 48
2, 541913, Note_on_c, 0, 81, 0
2, 542051, Note_on_c, 0, 50, 0
2, 542058, Note_on_c, 0, 78, 53
2, 542064, Note_on_c, 0, 59, 33
2, 542072, Note_on_c, 0, 79, 0
2, 542201, Note_on_c, 0, 76, 63
2, 542205, Note_on_c, 0, 59, 0
2, 542209, Note_on_c, 0, 78, 0
2, 542209, Note_on_c, 0, 50, 52
2, 542253, Note_on_c, 0, 50, 0
2, 542380, Note_on_c, 0, 76, 0
2, 542380, Note_on_c, 0, 78, 67
2, 542396, Note_on_c, 0, 38, 31
2, 542438, Control_c, 0, 64, 63
2, 542459, Control_c, 0, 64, 0
2, 542491, Control_c, 0, 64, 63
2, 542506, Control_c, 0, 64, 127
2, 542578, Note_on_c, 0, 50, 28
2, 542589, Note_on_c, 0, 38, 0
2, 542666, Note_on_c, 0, 50, 0
2, 542740, Note_on_c, 0, 57, 35
2, 542908, Note_on_c, 0, 54, 45
2, 543012, Note_on_c, 0, 57, 0
2, 543051, Note_on_c, 0, 54, 0
2, 543063, Note_on_c, 0, 62, 31
2, 543069, Note_on_c, 0, 78, 0
2, 543213, Note_on_c, 0, 62, 0
2, 543219, Note_on_c, 0, 50, 43
2, 543440, Note_on_c, 0, 48, 36
2, 543460, Note_on_c, 0, 50, 0
2, 543482, Note_on_c, 0, 76, 47
2, 543526, Control_c, 0, 64, 63
2, 543577, Control_c, 0, 64, 127
2, 543686, Note_on_c, 0, 48, 0
2, 543690, Note_on_c, 0, 55, 44
2, 543710, Note_on_c, 0, 76, 0
2, 543764, Note_on_c, 0, 55, 0
2, 543843, Note_on_c, 0, 78, 65
2, 543894, Note_on_c, 0, 64, 39
2, 543939, Note_on_c, 0, 78, 0
2, 543939, Note_on_c, 0, 76, 73
2, 544008, Note_on_c, 0, 64, 0
2, 544024, Note_on_c, 0, 76, 0
2, 544085, Note_on_c, 0, 54, 54
2, 544154, Control_c, 0, 64, 63
2, 544165, Note_on_c, 0, 74, 76
2, 544167, Control_c, 0, 64, 127
2, 544168, Note_on_c, 0, 47, 59
2, 544181, Note_on_c, 0, 54, 0
2, 544216, Note_on_c, 0, 74, 0
2, 544230, Note_on_c, 0, 47, 0
2, 544252, Note_on_c, 0, 74, 72
2, 544275, Note_on_c, 0, 62, 68
2, 544379, Note_on_c, 0, 74, 0
2, 544385, Note_on_c, 0, 62, 0
2, 544428, Note_on_c, 0, 55, 77
2, 544458, Note_on_c, 0, 55, 0
2, 544491, Note_on_c, 0, 71, 74
2, 544577, Note_on_c, 0, 45, 40
2, 544588, Note_on_c, 0, 74, 72
2, 544597, Note_on_c, 0, 71, 0
2, 544638, Control_c, 0, 64, 63
2, 544652, Control_c, 0, 64, 0
2, 544684, Control_c, 0, 64, 63
2, 544701, Control_c, 0, 64, 127
2, 544734, Note_on_c, 0, 52, 64
2, 544852, Note_on_c, 0, 52, 0
2, 544861, Note_on_c, 0, 54, 65
2, 544876, Note_on_c, 0, 72, 74
2, 544896, Note_on_c, 0, 74, 0
2, 544982, Note_on_c, 0, 45, 0
2, 545019, Note_on_c, 0, 54, 0
2, 545019, Note_on_c, 0, 50, 38
2, 545144, Note_on_c, 0, 43, 63
2, 545160, Control_c, 0, 64, 63
2, 545163, Note_on_c, 0, 71, 68
2, 545181, Control_c, 0, 64, 0
2, 545197, Note_on_c, 0, 50, 0
2, 545197, Note_on_c, 0, 72, 0
2, 545230, Control_c, 0, 64, 63
2, 545240, Control_c, 0, 64, 127
2, 545292, Note_on_c, 0, 55, 56
2, 545335, Note_on_c, 0, 55, 0
2, 545346, Note_on_c, 0, 71, 0
2, 545347, Note_on_c, 0, 43, 0
2, 545472, Note_on_c, 0, 36, 68
2, 545476, Note_on_c, 0, 71, 74
2, 545517, Control_c, 0, 64, 63
2, 545582, Control_c, 0, 64, 127
2, 545637, Note_on_c, 0, 36, 0
2, 545661, Note_on_c, 0, 48, 56
2, 545712, Note_on_c, 0, 48, 0
2, 545796, Note_on_c, 0, 54, 54
2, 545930, Note_on_c, 0, 69, 59
2, 545944, Note_on_c, 0, 57, 47
2, 545950, Note_on_c, 0, 71, 0
2, 546086, Note_on_c, 0, 54, 0
2, 546099, Note_on_c, 0, 67, 52
2, 546101, Note_on_c, 0, 69, 0
2, 546118, Note_on_c, 0, 64, 25
2, 546120, Note_on_c, 0, 57, 0
2, 546211, Note_on_c, 0, 64, 0
2, 546272, Note_on_c, 0, 54, 51
2, 546274, Note_on_c, 0, 69, 56
2, 546294, Note_on_c, 0, 67, 0
2, 546447, Note_on_c, 0, 47, 43
2, 546457, Note_on_c, 0, 66, 60
2, 546478, Note_on_c, 0, 69, 0
2, 546492, Note_on_c, 0, 54, 0
2, 546529, Control_c, 0, 64, 63
2, 546546, Control_c, 0, 64, 0
2, 546610, Control_c, 0, 64, 63
2, 546620, Control_c, 0, 64, 127
2, 546639, Note_on_c, 0, 54, 41
2, 546776, Note_on_c, 0, 54, 0
2, 546790, Note_on_c, 0, 63, 55
2, 546934, Note_on_c, 0, 54, 44
2, 546971, Note_on_c, 0, 63, 0
2, 547022, Note_on_c, 0, 54, 0
2, 547137, Note_on_c, 0, 45, 41
2, 547153, Note_on_c, 0, 62, 47
2, 547159, Note_on_c, 0, 47, 0
2, 547200, Control_c, 0, 64, 63
2, 547258, Control_c, 0, 64, 127
2, 547393, Note_on_c, 0, 50, 31
2, 547411, Note_on_c, 0, 60, 38
2, 547442, Note_on_c, 0, 62, 0
2, 547457, Note_on_c, 0, 66, 0
2, 547491, Note_on_c, 0, 45, 0
2, 547525, Note_on_c, 0, 67, 50
2, 547645, Note_on_c, 0, 60, 0
2, 547676, Note_on_c, 0, 67, 0
2, 547696, Note_on_c, 0, 43, 42
2, 547721, Note_on_c, 0, 50, 0
2, 547764, Note_on_c, 0, 59, 35
2, 547767, Note_on_c, 0, 67, 44
2, 547787, Control_c, 0, 64, 63
2, 547802, Control_c, 0, 64, 0
2, 547865, Control_c, 0, 64, 63
2, 547875, Control_c, 0, 64, 127
2, 547976, Note_on_c, 0, 50, 41
2, 547994, Note_on_c, 0, 59, 0
2, 548024, Note_on_c, 0, 67, 0
2, 548087, Note_on_c, 0, 43, 0
2, 548138, Note_on_c, 0, 50, 0
2, 548141, Note_on_c, 0, 55, 38
2, 548170, Note_on_c, 0, 71, 71
2, 548198, Note_on_c, 0, 55, 0
2, 548319, Note_on_c, 0, 71, 0
2, 548322, Note_on_c, 0, 62, 63
2, 548382, Note_on_c, 0, 62, 0
2, 548460, Note_on_c, 0, 72, 86
2, 548468, Note_on_c, 0, 69, 39
2, 548594, Note_on_c, 0, 62, 63
2, 548606, Note_on_c, 0, 72, 0
2, 548618, Note_on_c, 0, 69, 0
2, 548685, Control_c, 0, 64, 63
2, 548708, Note_on_c, 0, 74, 78
2, 548715, Note_on_c, 0, 71, 65
2, 548744, Control_c, 0, 64, 127
2, 548808, Note_on_c, 0, 62, 0
2, 548835, Note_on_c, 0, 74, 0
2, 548867, Note_on_c, 0, 71, 0
2, 548875, Note_on_c, 0, 76, 67
2, 548882, Note_on_c, 0, 62, 59
2, 548901, Note_on_c, 0, 76, 0
2, 548902, Note_on_c, 0, 74, 74
2, 548926, Note_on_c, 0, 62, 0
2, 548946, Note_on_c, 0, 74, 0
2, 548948, Note_on_c, 0, 73, 74
2, 548987, Note_on_c, 0, 73, 0
2, 548987, Note_on_c, 0, 74, 76
2, 549061, Note_on_c, 0, 74, 0
2, 549077, Note_on_c, 0, 72, 55
2, 549079, Note_on_c, 0, 76, 83
2, 549102, Control_c, 0, 64, 63
2, 549142, Control_c, 0, 64, 127
2, 549249, Note_on_c, 0, 72, 0
2, 549288, Note_on_c, 0, 76, 0
2, 549293, Note_on_c, 0, 62, 72
2, 549297, Note_on_c, 0, 78, 93
2, 549331, Note_on_c, 0, 62, 0
2, 549438, Note_on_c, 0, 78, 0
2, 549440, Note_on_c, 0, 79, 84
2, 549442, Note_on_c, 0, 60, 59
2, 549565, Note_on_c, 0, 81, 91
2, 549566, Note_on_c, 0, 60, 0
2, 549570, Note_on_c, 0, 50, 71
2, 549573, Note_on_c, 0, 79, 0
2, 549611, Note_on_c, 0, 50, 0
2, 549690, Note_on_c, 0, 81, 0
2, 549718, Note_on_c, 0, 43, 68
2, 549759, Note_on_c, 0, 83, 85
2, 549795, Control_c, 0, 64, 63
2, 549809, Control_c, 0, 64, 0
2, 549853, Control_c, 0, 64, 63
2, 549863, Control_c, 0, 64, 127
2, 549953, Note_on_c, 0, 43, 0
2, 549955, Note_on_c, 0, 50, 78
2, 549969, Note_on_c, 0, 83, 0
2, 549995, Note_on_c, 0, 50, 0
2, 550166, Note_on_c, 0, 62, 56
2, 550174, Note_on_c, 0, 81, 74
2, 550288, Note_on_c, 0, 83, 52
2, 550294, Note_on_c, 0, 81, 0
2, 550309, Note_on_c, 0, 62, 0
2, 550355, Note_on_c, 0, 83, 0
2, 550366, Note_on_c, 0, 81, 45
2, 550389, Note_on_c, 0, 50, 51
2, 550418, Note_on_c, 0, 81, 0
2, 550436, Note_on_c, 0, 79, 54
2, 550480, Note_on_c, 0, 79, 0
2, 550488, Note_on_c, 0, 81, 54
2, 550548, Note_on_c, 0, 81, 0
2, 550548, Note_on_c, 0, 83, 55
2, 550595, Note_on_c, 0, 83, 0
2, 550606, Note_on_c, 0, 79, 48
2, 550636, Note_on_c, 0, 50, 0
2, 550642, Note_on_c, 0, 59, 38
2, 550660, Note_on_c, 0, 79, 0
2, 550668, Note_on_c, 0, 78, 57
2, 550717, Note_on_c, 0, 78, 0
2, 550733, Note_on_c, 0, 79, 58
2, 550766, Note_on_c, 0, 78, 50
2, 550780, Note_on_c, 0, 79, 0
2, 550815, Note_on_c, 0, 78, 0
2, 550820, Note_on_c, 0, 59, 0
2, 550827, Note_on_c, 0, 76, 66
2, 550831, Note_on_c, 0, 50, 65
2, 550874, Note_on_c, 0, 78, 57
2, 550875, Note_on_c, 0, 50, 0
2, 550886, Note_on_c, 0, 76, 0
2, 550919, Note_on_c, 0, 79, 52
2, 550925, Note_on_c, 0, 78, 0
2, 550976, Note_on_c, 0, 79, 0
2, 550977, Note_on_c, 0, 76, 76
2, 551013, Note_on_c, 0, 38, 72
2, 551024, Control_c, 0, 64, 63
2, 551026, Note_on_c, 0, 78, 69
2, 551032, Note_on_c, 0, 76, 0
2, 551036, Control_c, 0, 64, 0
2, 551094, Control_c, 0, 64, 63
2, 551104, Control_c, 0, 64, 127
2, 551168, Note_on_c, 0, 38, 0
2, 551189, Note_on_c, 0, 78, 0
2, 551192, Note_on_c, 0, 50, 62
2, 551237, Note_on_c, 0, 50, 0
2, 551329, Note_on_c, 0, 57, 67
2, 551464, Note_on_c, 0, 54, 76
2, 551532, Note_on_c, 0, 57, 0
2, 551619, Note_on_c, 0, 62, 63
2, 551624, Note_on_c, 0, 54, 0
2, 551724, Note_on_c, 0, 62, 0
2, 551759, Note_on_c, 0, 50, 71
2, 551928, Note_on_c, 0, 48, 75
2, 551962, Note_on_c, 0, 50, 0
2, 552132, Note_on_c, 0, 76, 86
2, 552138, Control_c, 0, 64, 63
2, 552138, Note_on_c, 0, 55, 58
2, 552156, Control_c, 0, 64, 0
2, 552187, Control_c, 0, 64, 63
2, 552203, Note_on_c, 0, 48, 0
2, 552204, Control_c, 0, 64, 127
2, 552260, Note_on_c, 0, 76, 0
2, 552322, Note_on_c, 0, 55, 0
2, 552335, Note_on_c, 0, 64, 42
2, 552344, Note_on_c, 0, 78, 83
2, 552388, Note_on_c, 0, 78, 0
2, 552412, Note_on_c, 0, 64, 0
2, 552547, Note_on_c, 0, 54, 53
2, 552563, Note_on_c, 0, 76, 71
2, 552627, Control_c, 0, 64, 63
2, 552633, Note_on_c, 0, 74, 75
2, 552648, Control_c, 0, 64, 127
2, 552651, Note_on_c, 0, 76, 0
2, 552651, Note_on_c, 0, 47, 71
2, 552667, Note_on_c, 0, 54, 0
2, 552699, Note_on_c, 0, 74, 0
2, 552711, Note_on_c, 0, 47, 0
2, 552732, Note_on_c, 0, 74, 84
2, 552748, Note_on_c, 0, 62, 54
2, 552872, Note_on_c, 0, 62, 0
2, 552900, Note_on_c, 0, 55, 74
2, 552926, Note_on_c, 0, 55, 0
2, 553040, Note_on_c, 0, 45, 70
2, 553124, Control_c, 0, 64, 63
2, 553133, Control_c, 0, 64, 0
2, 553207, Note_on_c, 0, 52, 70
2, 553209, Control_c, 0, 64, 63
2, 553211, Control_c, 0, 64, 127
2, 553235, Note_on_c, 0, 45, 0
2, 553257, Note_on_c, 0, 52, 0
2, 553342, Note_on_c, 0, 54, 64
2, 553350, Note_on_c, 0, 72, 70
2, 553368, Note_on_c, 0, 74, 0
2, 553495, Note_on_c, 0, 62, 57
2, 553547, Control_c, 0, 64, 63
2, 553574, Control_c, 0, 64, 127
2, 553640, Note_on_c, 0, 71, 68
2, 553645, Note_on_c, 0, 55, 57
2, 553656, Note_on_c, 0, 54, 0
2, 553660, Note_on_c, 0, 62, 0
2, 553679, Note_on_c, 0, 72, 0
2, 553689, Control_c, 0, 64, 63
2, 553725, Control_c, 0, 64, 127
2, 553823, Note_on_c, 0, 62, 51
2, 553853, Note_on_c, 0, 55, 0
2, 553858, Note_on_c, 0, 62, 0
2, 553863, Note_on_c, 0, 71, 0
2, 554034, Note_on_c, 0, 71, 60
2, 554041, Note_on_c, 0, 38, 69
2, 554097, Control_c, 0, 64, 63
2, 554103, Control_c, 0, 64, 0
2, 554134, Control_c, 0, 64, 63
2, 554148, Control_c, 0, 64, 127
2, 554264, Note_on_c, 0, 50, 56
2, 554266, Note_on_c, 0, 38, 0
2, 554270, Note_on_c, 0, 69, 49
2, 554279, Note_on_c, 0, 71, 0
2, 554303, Note_on_c, 0, 50, 0
2, 554458, Note_on_c, 0, 54, 44
2, 554475, Note_on_c, 0, 78, 66
2, 554483, Note_on_c, 0, 69, 0
2, 554644, Note_on_c, 0, 76, 71
2, 554647, Note_on_c, 0, 78, 0
2, 554659, Note_on_c, 0, 60, 38
2, 554786, Note_on_c, 0, 60, 0
2, 554793, Note_on_c, 0, 54, 0
2, 554801, Note_on_c, 0, 72, 59
2, 554806, Note_on_c, 0, 76, 0
2, 554812, Note_on_c, 0, 64, 30
2, 554958, Note_on_c, 0, 66, 56
2, 554960, Note_on_c, 0, 64, 0
2, 554962, Note_on_c, 0, 62, 56
2, 554971, Note_on_c, 0, 72, 0
2, 555009, Note_on_c, 0, 62, 0
2, 555145, Note_on_c, 0, 66, 0
2, 555165, Note_on_c, 0, 43, 41
2, 555170, Note_on_c, 0, 67, 49
2, 555293, Control_c, 0, 64, 63
2, 555313, Control_c, 0, 64, 0
2, 555354, Note_on_c, 0, 50, 39
2, 555362, Control_c, 0, 64, 63
2, 555374, Control_c, 0, 64, 127
2, 555422, Note_on_c, 0, 43, 0
2, 555490, Note_on_c, 0, 50, 0
2, 555511, Note_on_c, 0, 55, 45
2, 555651, Note_on_c, 0, 55, 0
2, 555665, Note_on_c, 0, 59, 49
2, 555838, Note_on_c, 0, 62, 41
2, 555845, Note_on_c, 0, 59, 0
2, 556044, Note_on_c, 0, 55, 28
2, 556150, Note_on_c, 0, 62, 0
2, 556272, Note_on_c, 0, 50, 38
2, 556297, Note_on_c, 0, 67, 0
2, 556305, Note_on_c, 0, 55, 0
2, 556322, Note_on_c, 0, 66, 54
2, 556379, Control_c, 0, 64, 63
2, 556392, Control_c, 0, 64, 0
2, 556466, Control_c, 0, 64, 63
2, 556477, Control_c, 0, 64, 127
2, 556547, Note_on_c, 0, 66, 0
2, 556569, Note_on_c, 0, 57, 20
2, 556788, Note_on_c, 0, 78, 58
2, 556796, Note_on_c, 0, 62, 19
2, 556806, Note_on_c, 0, 66, 24
2, 556813, Note_on_c, 0, 57, 0
2, 556972, Note_on_c, 0, 66, 0
2, 556989, Note_on_c, 0, 78, 0
2, 556998, Note_on_c, 0, 57, 32
2, 557034, Note_on_c, 0, 62, 0
2, 557050, Note_on_c, 0, 57, 0
2, 557153, Note_on_c, 0, 58, 58
2, 557156, Note_on_c, 0, 79, 67
2, 557173, Note_on_c, 0, 67, 13
2, 557304, Note_on_c, 0, 67, 0
2, 557309, Note_on_c, 0, 62, 57
2, 557323, Note_on_c, 0, 79, 0
2, 557356, Note_on_c, 0, 58, 0
2, 557446, Note_on_c, 0, 81, 74
2, 557448, Note_on_c, 0, 54, 56
2, 557457, Note_on_c, 0, 69, 44
2, 557459, Note_on_c, 0, 62, 0
2, 557505, Control_c, 0, 64, 63
2, 557530, Control_c, 0, 64, 0
2, 557562, Control_c, 0, 64, 63
2, 557578, Control_c, 0, 64, 127
2, 557599, Note_on_c, 0, 57, 57
2, 557636, Note_on_c, 0, 54, 0
2, 557667, Note_on_c, 0, 81, 0
2, 557672, Note_on_c, 0, 69, 0
2, 557731, Note_on_c, 0, 81, 98
2, 557736, Control_c, 0, 64, 63
2, 557737, Note_on_c, 0, 69, 68
2, 557738, Note_on_c, 0, 62, 55
2, 557765, Note_on_c, 0, 57, 0
2, 557768, Control_c, 0, 64, 127
2, 557786, Note_on_c, 0, 50, 0
2, 557860, Note_on_c, 0, 62, 0
2, 557863, Note_on_c, 0, 57, 66
2, 557884, Note_on_c, 0, 81, 0
2, 557890, Note_on_c, 0, 69, 0
2, 557910, Note_on_c, 0, 57, 0
2, 558009, Note_on_c, 0, 66, 75
2, 558010, Note_on_c, 0, 81, 94
2, 558015, Note_on_c, 0, 69, 70
2, 558058, Note_on_c, 0, 69, 0
2, 558079, Note_on_c, 0, 66, 0
2, 558128, Note_on_c, 0, 81, 0
2, 558167, Note_on_c, 0, 57, 52
2, 558242, Note_on_c, 0, 57, 0
2, 558364, Note_on_c, 0, 55, 49
2, 558377, Note_on_c, 0, 49, 54
2, 558379, Note_on_c, 0, 82, 91
2, 558405, Note_on_c, 0, 70, 30
2, 558415, Control_c, 0, 64, 63
2, 558421, Control_c, 0, 64, 0
2, 558509, Control_c, 0, 64, 63
2, 558512, Control_c, 0, 64, 127
2, 558604, Note_on_c, 0, 49, 0
2, 558610, Note_on_c, 0, 58, 62
2, 558628, Note_on_c, 0, 70, 0
2, 558635, Note_on_c, 0, 82, 0
2, 558708, Note_on_c, 0, 55, 0
2, 558765, Note_on_c, 0, 81, 87
2, 558770, Note_on_c, 0, 58, 0
2, 558771, Note_on_c, 0, 69, 46
2, 558779, Note_on_c, 0, 64, 36
2, 558826, Note_on_c, 0, 81, 0
2, 558868, Note_on_c, 0, 69, 0
2, 558919, Note_on_c, 0, 64, 0
2, 558922, Note_on_c, 0, 58, 63
2, 558930, Note_on_c, 0, 79, 84
2, 558937, Note_on_c, 0, 67, 51
2, 558969, Note_on_c, 0, 79, 0
2, 558979, Note_on_c, 0, 67, 0
2, 559063, Note_on_c, 0, 78, 93
2, 559069, Note_on_c, 0, 66, 74
2, 559072, Note_on_c, 0, 58, 0
2, 559080, Note_on_c, 0, 55, 40
2, 559111, Note_on_c, 0, 78, 0
2, 559111, Note_on_c, 0, 66, 0
2, 559185, Note_on_c, 0, 76, 92
2, 559188, Note_on_c, 0, 64, 68
2, 559202, Note_on_c, 0, 58, 58
2, 559214, Note_on_c, 0, 55, 0
2, 559224, Note_on_c, 0, 64, 0
2, 559234, Note_on_c, 0, 76, 0
2, 559265, Note_on_c, 0, 58, 0
2, 559331, Note_on_c, 0, 50, 63
2, 559352, Note_on_c, 0, 79, 89
2, 559355, Note_on_c, 0, 67, 65
2, 559379, Control_c, 0, 64, 63
2, 559398, Control_c, 0, 64, 0
2, 559467, Control_c, 0, 64, 63
2, 559482, Control_c, 0, 64, 127
2, 559529, Note_on_c, 0, 57, 36
2, 559589, Note_on_c, 0, 67, 0
2, 559626, Note_on_c, 0, 79, 0
2, 559646, Note_on_c, 0, 62, 52
2, 559676, Note_on_c, 0, 57, 0
2, 559773, Note_on_c, 0, 62, 0
2, 559778, Note_on_c, 0, 57, 36
2, 559911, Note_on_c, 0, 78, 53
2, 559923, Note_on_c, 0, 66, 43
2, 559924, Note_on_c, 0, 62, 39
2, 559937, Control_c, 0, 64, 63
2, 559950, Note_on_c, 0, 57, 0
2, 559982, Control_c, 0, 64, 127
2, 560048, Note_on_c, 0, 62, 0
2, 560061, Note_on_c, 0, 57, 51
2, 560083, Note_on_c, 0, 50, 0
2, 560090, Note_on_c, 0, 57, 0
2, 560240, Note_on_c, 0, 38, 54
2, 560307, Control_c, 0, 64, 63
2, 560366, Control_c, 0, 64, 127
2, 560417, Note_on_c, 0, 66, 0
2, 560426, Note_on_c, 0, 78, 0
2, 560453, Note_on_c, 0, 38, 0
2, 560463, Note_on_c, 0, 50, 30
2, 560504, Note_on_c, 0, 50, 0
2, 560624, Note_on_c, 0, 57, 40
2, 560639, Note_on_c, 0, 78, 69
2, 560639, Note_on_c, 0, 66, 60
2, 560728, Note_on_c, 0, 66, 0
2, 560761, Note_on_c, 0, 78, 0
2, 560784, Note_on_c, 0, 62, 52
2, 560789, Note_on_c, 0, 57, 0
2, 560906, Note_on_c, 0, 67, 66
2, 560907, Note_on_c, 0, 79, 81
2, 560909, Note_on_c, 0, 62, 0
2, 560910, Note_on_c, 0, 58, 72
2, 560967, Note_on_c, 0, 67, 0
2, 561001, Note_on_c, 0, 79, 0
2, 561041, Note_on_c, 0, 62, 68
2, 561062, Note_on_c, 0, 58, 0
2, 561160, Note_on_c, 0, 54, 76
2, 561167, Note_on_c, 0, 81, 84
2, 561168, Note_on_c, 0, 69, 65
2, 561176, Note_on_c, 0, 62, 0
2, 561308, Note_on_c, 0, 57, 60
2, 561387, Note_on_c, 0, 81, 0
2, 561390, Note_on_c, 0, 69, 0
2, 561438, Note_on_c, 0, 62, 72
2, 561438, Note_on_c, 0, 81, 89
2, 561440, Note_on_c, 0, 69, 76
2, 561478, Note_on_c, 0, 57, 0
2, 561561, Note_on_c, 0, 57, 80
2, 561573, Note_on_c, 0, 62, 0
2, 561581, Note_on_c, 0, 81, 0
2, 561598, Note_on_c, 0, 54, 0
2, 561600, Note_on_c, 0, 69, 0
2, 561650, Note_on_c, 0, 57, 0
2, 561677, Note_on_c, 0, 81, 100
2, 561679, Note_on_c, 0, 69, 87
2, 561693, Note_on_c, 0, 66, 88
2, 561753, Note_on_c, 0, 66, 0
2, 561773, Note_on_c, 0, 69, 0
2, 561796, Note_on_c, 0, 81, 0
2, 561821, Note_on_c, 0, 57, 83
2, 561956, Note_on_c, 0, 49, 76
2, 561959, Note_on_c, 0, 55, 76
2, 561972, Note_on_c, 0, 57, 0
2, 562005, Note_on_c, 0, 82, 97
2, 562007, Note_on_c, 0, 70, 87
2, 562018, Control_c, 0, 64, 63
2, 562026, Control_c, 0, 64, 0
2, 562113, Control_c, 0, 64, 63
2, 562115, Control_c, 0, 64, 127
2, 562188, Note_on_c, 0, 58, 89
2, 562190, Note_on_c, 0, 49, 0
2, 562211, Note_on_c, 0, 82, 0
2, 562211, Note_on_c, 0, 70, 0
2, 562278, Note_on_c, 0, 55, 0
2, 562326, Note_on_c, 0, 81, 91
2, 562331, Note_on_c, 0, 69, 64
2, 562341, Note_on_c, 0, 64, 58
2, 562342, Note_on_c, 0, 58, 0
2, 562371, Note_on_c, 0, 81, 0
2, 562383, Note_on_c, 0, 69, 0
2, 562453, Note_on_c, 0, 58, 70
2, 562455, Note_on_c, 0, 79, 89
2, 562458, Note_on_c, 0, 64, 0
2, 562462, Note_on_c, 0, 67, 68
2, 562498, Note_on_c, 0, 67, 0
2, 562502, Note_on_c, 0, 79, 0
2, 562579, Note_on_c, 0, 55, 59
2, 562581, Note_on_c, 0, 78, 98
2, 562582, Note_on_c, 0, 58, 0
2, 562582, Note_on_c, 0, 66, 98
2, 562622, Note_on_c, 0, 66, 0
2, 562628, Note_on_c, 0, 78, 0
2, 562702, Note_on_c, 0, 76, 104
2, 562704, Note_on_c, 0, 64, 86
2, 562710, Note_on_c, 0, 58, 77
2, 562726, Note_on_c, 0, 64, 0
2, 562731, Note_on_c, 0, 55, 0
2, 562738, Note_on_c, 0, 76, 0
2, 562793, Note_on_c, 0, 58, 0
2, 562847, Note_on_c, 0, 50, 79
2, 562873, Note_on_c, 0, 79, 89
2, 562879, Note_on_c, 0, 67, 65
2, 562915, Control_c, 0, 64, 63
2, 562920, Control_c, 0, 64, 0
2, 563009, Control_c, 0, 64, 63
2, 563011, Control_c, 0, 64, 127
2, 563041, Note_on_c, 0, 57, 68
2, 563051, Note_on_c, 0, 79, 0
2, 563066, Note_on_c, 0, 67, 0
2, 563089, Note_on_c, 0, 57, 0
2, 563227, Note_on_c, 0, 62, 84
2, 563238, Note_on_c, 0, 78, 95
2, 563242, Note_on_c, 0, 66, 85
2, 563290, Control_c, 0, 64, 63
2, 563338, Control_c, 0, 64, 127
2, 563394, Note_on_c, 0, 57, 82
2, 563395, Note_on_c, 0, 66, 0
2, 563406, Note_on_c, 0, 62, 0
2, 563417, Note_on_c, 0, 78, 0
2, 563523, Note_on_c, 0, 60, 92
2, 563545, Note_on_c, 0, 79, 93
2, 563546, Note_on_c, 0, 67, 83
2, 563578, Control_c, 0, 64, 63
2, 563633, Control_c, 0, 64, 127
2, 563672, Note_on_c, 0, 57, 0
2, 563673, Note_on_c, 0, 50, 0
2, 563699, Note_on_c, 0, 67, 0
2, 563721, Note_on_c, 0, 79, 0
2, 563761, Note_on_c, 0, 60, 0
2, 563769, Note_on_c, 0, 50, 96
2, 563811, Note_on_c, 0, 50, 0
2, 563852, Note_on_c, 0, 81, 100
2, 563853, Note_on_c, 0, 69, 89
2, 563912, Note_on_c, 0, 69, 0
2, 563924, Note_on_c, 0, 81, 0
2, 563937, Note_on_c, 0, 43, 89
2, 563971, Note_on_c, 0, 71, 89
2, 563974, Note_on_c, 0, 83, 92
2, 564057, Control_c, 0, 64, 63
2, 564063, Control_c, 0, 64, 0
2, 564157, Control_c, 0, 64, 63
2, 564158, Control_c, 0, 64, 127
2, 564171, Note_on_c, 0, 55, 90
2, 564184, Note_on_c, 0, 43, 0
2, 564222, Note_on_c, 0, 55, 0
2, 564319, Note_on_c, 0, 71, 0
2, 564329, Note_on_c, 0, 62, 86
2, 564449, Note_on_c, 0, 67, 96
2, 564562, Note_on_c, 0, 84, 104
2, 564568, Note_on_c, 0, 69, 70
2, 564568, Note_on_c, 0, 72, 83
2, 564583, Note_on_c, 0, 83, 0
2, 564613, Note_on_c, 0, 62, 0
2, 564622, Note_on_c, 0, 67, 0
2, 564687, Note_on_c, 0, 72, 0
2, 564699, Note_on_c, 0, 62, 100
2, 564729, Note_on_c, 0, 84, 0
2, 564729, Note_on_c, 0, 69, 0
2, 564824, Note_on_c, 0, 71, 73
2, 564826, Note_on_c, 0, 86, 100
2, 564828, Note_on_c, 0, 74, 85
2, 564868, Control_c, 0, 64, 63
2, 564914, Note_on_c, 0, 62, 0
2, 564915, Control_c, 0, 64, 127
2, 564965, Note_on_c, 0, 62, 102
2, 564970, Note_on_c, 0, 74, 0
2, 564983, Note_on_c, 0, 86, 0
2, 565007, Note_on_c, 0, 71, 0
2, 565133, Control_c, 0, 64, 63
2, 565135, Note_on_c, 0, 88, 106
2, 565135, Note_on_c, 0, 76, 100
2, 565139, Note_on_c, 0, 72, 63
2, 565179, Control_c, 0, 64, 127
2, 565228, Note_on_c, 0, 76, 0
2, 565238, Note_on_c, 0, 88, 0
2, 565270, Note_on_c, 0, 62, 0
2, 565329, Note_on_c, 0, 72, 0
2, 565337, Note_on_c, 0, 90, 105
2, 565340, Note_on_c, 0, 78, 94
2, 565349, Note_on_c, 0, 62, 85
2, 565370, Note_on_c, 0, 78, 0
2, 565386, Note_on_c, 0, 90, 0
2, 565488, Note_on_c, 0, 91, 109
2, 565489, Note_on_c, 0, 79, 99
2, 565491, Note_on_c, 0, 72, 76
2, 565508, Note_on_c, 0, 62, 0
2, 565516, Note_on_c, 0, 79, 0
2, 565526, Note_on_c, 0, 91, 0
2, 565584, Note_on_c, 0, 72, 0
2, 565620, Note_on_c, 0, 62, 85
2, 565626, Note_on_c, 0, 93, 102
2, 565628, Note_on_c, 0, 81, 99
2, 565657, Note_on_c, 0, 81, 0
2, 565660, Note_on_c, 0, 62, 0
2, 565666, Note_on_c, 0, 93, 0
2, 565803, Note_on_c, 0, 55, 94
2, 565851, Note_on_c, 0, 95, 99
2, 565853, Note_on_c, 0, 83, 79
2, 565909, Control_c, 0, 64, 63
2, 565956, Control_c, 0, 64, 127
2, 566076, Note_on_c, 0, 95, 0
2, 566079, Note_on_c, 0, 62, 79
2, 566105, Note_on_c, 0, 55, 0
2, 566126, Note_on_c, 0, 83, 0
2, 566195, Note_on_c, 0, 62, 0
2, 566207, Note_on_c, 0, 93, 94
2, 566210, Note_on_c, 0, 71, 62
2, 566214, Note_on_c, 0, 81, 73
2, 566248, Note_on_c, 0, 93, 0
2, 566259, Note_on_c, 0, 81, 0
2, 566304, Note_on_c, 0, 71, 0
2, 566350, Note_on_c, 0, 91, 94
2, 566353, Note_on_c, 0, 62, 67
2, 566358, Note_on_c, 0, 79, 67
2, 566382, Note_on_c, 0, 91, 0
2, 566396, Note_on_c, 0, 79, 0
2, 566535, Note_on_c, 0, 86, 100
2, 566535, Note_on_c, 0, 74, 88
2, 566542, Note_on_c, 0, 59, 34
2, 566565, Note_on_c, 0, 62, 0
2, 566575, Note_on_c, 0, 74, 0
2, 566593, Note_on_c, 0, 86, 0
2, 566744, Note_on_c, 0, 62, 66
2, 566768, Note_on_c, 0, 59, 0
2, 566769, Note_on_c, 0, 62, 0
2, 566816, Note_on_c, 0, 88, 97
2, 566822, Note_on_c, 0, 76, 60
2, 566859, Note_on_c, 0, 76, 0
2, 566873, Note_on_c, 0, 88, 0
2, 566908, Note_on_c, 0, 50, 65
2, 566944, Note_on_c, 0, 90, 92
2, 566955, Note_on_c, 0, 78, 51
2, 567035, Control_c, 0, 64, 63
2, 567047, Control_c, 0, 64, 0
2, 567091, Control_c, 0, 64, 63
2, 567103, Control_c, 0, 64, 127
2, 567125, Note_on_c, 0, 57, 58
2, 567270, Note_on_c, 0, 50, 0
2, 567272, Note_on_c, 0, 62, 80
2, 567294, Note_on_c, 0, 57, 0
2, 567380, Note_on_c, 0, 62, 0
2, 567386, Note_on_c, 0, 57, 78
2, 567442, Note_on_c, 0, 57, 0
2, 567511, Note_on_c, 0, 66, 89
2, 567559, Note_on_c, 0, 66, 0
2, 567630, Note_on_c, 0, 50, 77
2, 567795, Note_on_c, 0, 48, 88
2, 567823, Note_on_c, 0, 50, 0
2, 567844, Control_c, 0, 64, 63
2, 567851, Control_c, 0, 64, 0
2, 567999, Control_c, 0, 64, 63
2, 568000, Control_c, 0, 64, 127
2, 568017, Note_on_c, 0, 55, 62
2, 568111, Note_on_c, 0, 90, 0
2, 568141, Note_on_c, 0, 78, 0
2, 568159, Note_on_c, 0, 55, 0
2, 568163, Note_on_c, 0, 60, 80
2, 568249, Note_on_c, 0, 48, 0
2, 568263, Note_on_c, 0, 60, 0
2, 568267, Note_on_c, 0, 88, 93
2, 568268, Note_on_c, 0, 76, 84
2, 568282, Note_on_c, 0, 88, 0
2, 568283, Note_on_c, 0, 55, 57
2, 568303, Note_on_c, 0, 76, 0
2, 568373, Note_on_c, 0, 55, 0
2, 568453, Note_on_c, 0, 64, 58
2, 568455, Note_on_c, 0, 79, 86
2, 568461, Note_on_c, 0, 67, 44
2, 568479, Note_on_c, 0, 79, 0
2, 568484, Note_on_c, 0, 67, 0
2, 568502, Note_on_c, 0, 64, 0
2, 568607, Note_on_c, 0, 52, 41
2, 568618, Note_on_c, 0, 81, 91
2, 568622, Note_on_c, 0, 69, 63
2, 568656, Note_on_c, 0, 69, 0
2, 568664, Note_on_c, 0, 81, 0
2, 568669, Note_on_c, 0, 52, 0
2, 568760, Note_on_c, 0, 43, 60
2, 568780, Note_on_c, 0, 83, 77
2, 568784, Note_on_c, 0, 71, 71
2, 568880, Control_c, 0, 64, 63
2, 568893, Control_c, 0, 64, 0
2, 568932, Note_on_c, 0, 50, 52
2, 569022, Control_c, 0, 64, 63
2, 569029, Control_c, 0, 64, 127
2, 569072, Note_on_c, 0, 55, 53
2, 569084, Note_on_c, 0, 50, 0
2, 569204, Note_on_c, 0, 55, 0
2, 569215, Note_on_c, 0, 43, 0
2, 569218, Note_on_c, 0, 50, 60
2, 569276, Note_on_c, 0, 50, 0
2, 569295, Note_on_c, 0, 71, 0
2, 569390, Note_on_c, 0, 83, 0
2, 569392, Note_on_c, 0, 59, 50
2, 569439, Note_on_c, 0, 59, 0
2, 569556, Note_on_c, 0, 43, 50
2, 569632, Note_on_c, 0, 43, 0
2, 569747, Control_c, 0, 64, 63
2, 569749, Note_on_c, 0, 45, 47
2, 569766, Note_on_c, 0, 83, 69
2, 569773, Note_on_c, 0, 71, 57
2, 569803, Control_c, 0, 64, 127
2, 569831, Note_on_c, 0, 71, 0
2, 569865, Note_on_c, 0, 83, 0
2, 569940, Note_on_c, 0, 84, 70
2, 569990, Note_on_c, 0, 52, 41
2, 570022, Note_on_c, 0, 84, 0
2, 570024, Note_on_c, 0, 83, 84
2, 570064, Note_on_c, 0, 83, 0
2, 570112, Note_on_c, 0, 69, 76
2, 570155, Note_on_c, 0, 69, 0
2, 570181, Note_on_c, 0, 81, 87
2, 570230, Note_on_c, 0, 81, 0
2, 570271, Note_on_c, 0, 71, 67
2, 570276, Note_on_c, 0, 83, 96
2, 570301, Note_on_c, 0, 71, 0
2, 570325, Note_on_c, 0, 83, 0
2, 570387, Note_on_c, 0, 45, 0
2, 570405, Note_on_c, 0, 86, 101
2, 570408, Note_on_c, 0, 74, 73
2, 570409, Note_on_c, 0, 52, 0
2, 570411, Note_on_c, 0, 57, 43
2, 570437, Note_on_c, 0, 74, 0
2, 570440, Note_on_c, 0, 86, 0
2, 570629, Note_on_c, 0, 52, 44
2, 570645, Note_on_c, 0, 57, 0
2, 570659, Note_on_c, 0, 84, 84
2, 570664, Note_on_c, 0, 72, 54
2, 570677, Note_on_c, 0, 84, 0
2, 570691, Note_on_c, 0, 72, 0
2, 570818, Note_on_c, 0, 60, 55
2, 570821, Note_on_c, 0, 64, 85
2, 570825, Note_on_c, 0, 76, 76
2, 570828, Note_on_c, 0, 52, 0
2, 570843, Note_on_c, 0, 64, 0
2, 570856, Note_on_c, 0, 76, 0
2, 570946, Note_on_c, 0, 60, 0
2, 570965, Note_on_c, 0, 52, 63
2, 570973, Note_on_c, 0, 78, 96
2, 570978, Note_on_c, 0, 66, 83
2, 570987, Note_on_c, 0, 52, 0
2, 571011, Note_on_c, 0, 66, 0
2, 571036, Note_on_c, 0, 78, 0
2, 571097, Note_on_c, 0, 40, 63
2, 571155, Note_on_c, 0, 79, 90
2, 571156, Note_on_c, 0, 67, 71
2, 571158, Control_c, 0, 64, 63
2, 571169, Control_c, 0, 64, 0
2, 571245, Control_c, 0, 64, 63
2, 571254, Control_c, 0, 64, 127
2, 571272, Note_on_c, 0, 40, 0
2, 571292, Note_on_c, 0, 52, 63
2, 571312, Note_on_c, 0, 52, 0
2, 571421, Note_on_c, 0, 59, 76
2, 571469, Note_on_c, 0, 59, 0
2, 571550, Note_on_c, 0, 55, 85
2, 571583, Note_on_c, 0, 55, 0
2, 571689, Note_on_c, 0, 64, 80
2, 571737, Note_on_c, 0, 64, 0
2, 571739, Note_on_c, 0, 67, 0
2, 571817, Note_on_c, 0, 79, 0
2, 571856, Note_on_c, 0, 52, 98
2, 571884, Note_on_c, 0, 52, 0
2, 572052, Note_on_c, 0, 69, 52
2, 572083, Note_on_c, 0, 76, 72
2, 572098, Note_on_c, 0, 79, 85
2, 572107, Note_on_c, 0, 49, 95
2, 572113, Note_on_c, 0, 81, 98
2, 572136, Control_c, 0, 64, 63
2, 572148, Control_c, 0, 64, 0
2, 572236, Control_c, 0, 64, 63
2, 572245, Control_c, 0, 64, 127
2, 572296, Note_on_c, 0, 49, 0
2, 572325, Note_on_c, 0, 55, 55
2, 572349, Note_on_c, 0, 79, 0
2, 572351, Note_on_c, 0, 81, 0
2, 572362, Note_on_c, 0, 76, 0
2, 572377, Note_on_c, 0, 69, 0
2, 572424, Note_on_c, 0, 55, 0
2, 572470, Note_on_c, 0, 57, 68
2, 572497, Note_on_c, 0, 57, 0
2, 572628, Note_on_c, 0, 55, 60
2, 572632, Note_on_c, 0, 69, 86
2, 572663, Note_on_c, 0, 55, 0
2, 572686, Note_on_c, 0, 69, 0
2, 572711, Note_on_c, 0, 71, 47
2, 572742, Note_on_c, 0, 69, 76
2, 572743, Note_on_c, 0, 71, 0
2, 572796, Note_on_c, 0, 69, 0
2, 572796, Note_on_c, 0, 68, 84
2, 572802, Note_on_c, 0, 64, 73
2, 572831, Note_on_c, 0, 68, 0
2, 572840, Note_on_c, 0, 69, 72
2, 572861, Note_on_c, 0, 64, 0
2, 572881, Note_on_c, 0, 71, 90
2, 572891, Note_on_c, 0, 69, 0
2, 572923, Note_on_c, 0, 73, 95
2, 572927, Note_on_c, 0, 71, 0
2, 572945, Note_on_c, 0, 57, 71
2, 572958, Note_on_c, 0, 73, 0
2, 572968, Note_on_c, 0, 74, 89
2, 572971, Note_on_c, 0, 57, 0
2, 573009, Note_on_c, 0, 76, 82
2, 573016, Note_on_c, 0, 74, 0
2, 573039, Note_on_c, 0, 78, 92
2, 573043, Note_on_c, 0, 76, 0
2, 573078, Note_on_c, 0, 78, 0
2, 573080, Note_on_c, 0, 79, 77
2, 573127, Note_on_c, 0, 80, 96
2, 573132, Note_on_c, 0, 48, 80
2, 573138, Note_on_c, 0, 79, 0
2, 573167, Control_c, 0, 64, 63
2, 573185, Control_c, 0, 64, 0
2, 573242, Note_on_c, 0, 81, 90
2, 573255, Note_on_c, 0, 80, 0
2, 573258, Control_c, 0, 64, 63
2, 573266, Control_c, 0, 64, 127
2, 573300, Note_on_c, 0, 80, 91
2, 573309, Note_on_c, 0, 81, 0
2, 573310, Note_on_c, 0, 54, 78
2, 573342, Note_on_c, 0, 79, 83
2, 573347, Note_on_c, 0, 80, 0
2, 573381, Note_on_c, 0, 80, 94
2, 573406, Note_on_c, 0, 79, 0
2, 573414, Control_c, 0, 64, 63
2, 573429, Control_c, 0, 64, 0
2, 573443, Note_on_c, 0, 83, 86
2, 573452, Note_on_c, 0, 57, 60
2, 573466, Note_on_c, 0, 80, 0
2, 573486, Note_on_c, 0, 54, 0
2, 573523, Control_c, 0, 64, 63
2, 573528, Control_c, 0, 64, 127
2, 573577, Note_on_c, 0, 81, 90
2, 573596, Note_on_c, 0, 54, 61
2, 573608, Note_on_c, 0, 83, 0
2, 573660, Note_on_c, 0, 79, 90
2, 573681, Note_on_c, 0, 81, 0
2, 573744, Control_c, 0, 64, 63
2, 573752, Note_on_c, 0, 78, 89
2, 573758, Note_on_c, 0, 79, 0
2, 573760, Note_on_c, 0, 62, 42
2, 573783, Note_on_c, 0, 54, 0
2, 573799, Control_c, 0, 64, 127
2, 573803, Note_on_c, 0, 78, 0
2, 573807, Note_on_c, 0, 79, 65
2, 573809, Note_on_c, 0, 57, 0
2, 573833, Note_on_c, 0, 78, 79
2, 573842, Note_on_c, 0, 79, 0
2, 573878, Note_on_c, 0, 78, 0
2, 573881, Note_on_c, 0, 76, 77
2, 573911, Note_on_c, 0, 62, 0
2, 573913, Note_on_c, 0, 78, 63
2, 573930, Note_on_c, 0, 76, 0
2, 573962, Note_on_c, 0, 79, 86
2, 573971, Note_on_c, 0, 78, 0
2, 573975, Note_on_c, 0, 54, 62
2, 573988, Note_on_c, 0, 48, 0
2, 574001, Note_on_c, 0, 79, 0
2, 574020, Note_on_c, 0, 54, 0
2, 574141, Note_on_c, 0, 81, 79
2, 574172, Note_on_c, 0, 81, 0
2, 574216, Note_on_c, 0, 47, 59
2, 574217, Note_on_c, 0, 81, 71
2, 574279, Control_c, 0, 64, 63
2, 574284, Note_on_c, 0, 74, 70
2, 574289, Control_c, 0, 64, 0
2, 574323, Note_on_c, 0, 81, 0
2, 574418, Control_c, 0, 64, 63
2, 574422, Control_c, 0, 64, 127
2, 574425, Note_on_c, 0, 54, 54
2, 574546, Note_on_c, 0, 47, 0
2, 574559, Note_on_c, 0, 55, 63
2, 574593, Note_on_c, 0, 54, 0
2, 574673, Note_on_c, 0, 54, 84
2, 574705, Note_on_c, 0, 74, 0
2, 574736, Note_on_c, 0, 55, 0
2, 574799, Note_on_c, 0, 62, 76
2, 574813, Note_on_c, 0, 54, 0
2, 574916, Note_on_c, 0, 62, 0
2, 574920, Note_on_c, 0, 54, 91
2, 575024, Note_on_c, 0, 47, 81
2, 575075, Note_on_c, 0, 81, 88
2, 575099, Control_c, 0, 64, 63
2, 575110, Control_c, 0, 64, 0
2, 575142, Note_on_c, 0, 54, 0
2, 575210, Note_on_c, 0, 52, 75
2, 575218, Control_c, 0, 64, 63
2, 575223, Control_c, 0, 64, 127
2, 575252, Note_on_c, 0, 79, 93
2, 575290, Note_on_c, 0, 81, 0
2, 575362, Note_on_c, 0, 78, 99
2, 575364, Note_on_c, 0, 55, 59
2, 575367, Note_on_c, 0, 47, 0
2, 575394, Note_on_c, 0, 79, 0
2, 575403, Note_on_c, 0, 52, 0
2, 575438, Note_on_c, 0, 78, 0
2, 575478, Note_on_c, 0, 76, 74
2, 575482, Note_on_c, 0, 52, 57
2, 575516, Note_on_c, 0, 78, 89
2, 575525, Note_on_c, 0, 76, 0
2, 575558, Note_on_c, 0, 78, 0
2, 575562, Note_on_c, 0, 76, 71
2, 575609, Note_on_c, 0, 76, 0
2, 575611, Note_on_c, 0, 75, 74
2, 575644, Note_on_c, 0, 75, 0
2, 575648, Note_on_c, 0, 60, 41
2, 575652, Note_on_c, 0, 76, 75
2, 575679, Control_c, 0, 64, 63
2, 575694, Control_c, 0, 64, 0
2, 575706, Note_on_c, 0, 78, 88
2, 575709, Note_on_c, 0, 55, 0
2, 575723, Note_on_c, 0, 52, 0
2, 575731, Note_on_c, 0, 76, 0
2, 575751, Control_c, 0, 64, 63
2, 575762, Control_c, 0, 64, 127
2, 575825, Note_on_c, 0, 78, 0
2, 575848, Note_on_c, 0, 60, 0
2, 575868, Note_on_c, 0, 52, 73
2, 575893, Note_on_c, 0, 52, 0
2, 575924, Note_on_c, 0, 79, 84
2, 575981, Note_on_c, 0, 79, 0
2, 575998, Note_on_c, 0, 79, 38
2, 576014, Note_on_c, 0, 45, 57
2, 576074, Note_on_c, 0, 72, 72
2, 576088, Note_on_c, 0, 79, 0
2, 576101, Control_c, 0, 64, 63
2, 576113, Control_c, 0, 64, 0
2, 576162, Control_c, 0, 64, 63
2, 576171, Control_c, 0, 64, 127
2, 576230, Note_on_c, 0, 52, 59
2, 576252, Note_on_c, 0, 45, 0
2, 576332, Note_on_c, 0, 72, 0
2, 576349, Note_on_c, 0, 54, 86
2, 576395, Note_on_c, 0, 52, 0
2, 576461, Note_on_c, 0, 52, 84
2, 576516, Note_on_c, 0, 54, 0
2, 576585, Note_on_c, 0, 79, 93
2, 576590, Note_on_c, 0, 60, 68
2, 576600, Note_on_c, 0, 52, 0
2, 576700, Note_on_c, 0, 60, 0
2, 576731, Note_on_c, 0, 52, 84
2, 576865, Note_on_c, 0, 45, 80
2, 576883, Control_c, 0, 64, 63
2, 576893, Note_on_c, 0, 52, 0
2, 576897, Control_c, 0, 64, 0
2, 576998, Note_on_c, 0, 78, 81
2, 577002, Control_c, 0, 64, 63
2, 577010, Control_c, 0, 64, 127
2, 577034, Note_on_c, 0, 79, 0
2, 577046, Note_on_c, 0, 51, 52
2, 577116, Note_on_c, 0, 76, 78
2, 577130, Note_on_c, 0, 78, 0
2, 577188, Note_on_c, 0, 45, 0
2, 577209, Note_on_c, 0, 54, 52
2, 577215, Note_on_c, 0, 75, 92
2, 577225, Note_on_c, 0, 76, 0
2, 577240, Note_on_c, 0, 51, 0
2, 577303, Note_on_c, 0, 75, 0
2, 577312, Note_on_c, 0, 76, 81
2, 577356, Note_on_c, 0, 75, 94
2, 577360, Note_on_c, 0, 51, 70
2, 577365, Note_on_c, 0, 76, 0
2, 577403, Note_on_c, 0, 75, 0
2, 577408, Note_on_c, 0, 73, 85
2, 577425, Note_on_c, 0, 54, 0
2, 577449, Note_on_c, 0, 75, 86
2, 577471, Note_on_c, 0, 73, 0
2, 577486, Note_on_c, 0, 76, 87
2, 577511, Note_on_c, 0, 75, 0
2, 577521, Note_on_c, 0, 59, 44
2, 577552, Note_on_c, 0, 78, 94
2, 577554, Control_c, 0, 64, 63
2, 577566, Note_on_c, 0, 76, 0
2, 577572, Note_on_c, 0, 51, 0
2, 577596, Control_c, 0, 64, 127
2, 577650, Note_on_c, 0, 71, 76
2, 577653, Note_on_c, 0, 78, 0
2, 577711, Note_on_c, 0, 59, 0
2, 577738, Note_on_c, 0, 51, 64
2, 577741, Note_on_c, 0, 71, 0
2, 577744, Note_on_c, 0, 74, 65
2, 577803, Note_on_c, 0, 72, 80
2, 577812, Note_on_c, 0, 74, 0
2, 577826, Note_on_c, 0, 51, 0
2, 577847, Note_on_c, 0, 71, 81
2, 577871, Note_on_c, 0, 72, 0
2, 577888, Note_on_c, 0, 71, 0
2, 577902, Note_on_c, 0, 43, 68
2, 577911, Note_on_c, 0, 71, 70
2, 577965, Control_c, 0, 64, 63
2, 577973, Control_c, 0, 64, 0
2, 578059, Note_on_c, 0, 47, 71
2, 578073, Control_c, 0, 64, 63
2, 578075, Control_c, 0, 64, 127
2, 578103, Note_on_c, 0, 43, 0
2, 578181, Note_on_c, 0, 52, 83
2, 578197, Note_on_c, 0, 47, 0
2, 578217, Note_on_c, 0, 71, 0
2, 578241, Note_on_c, 0, 52, 0
2, 578308, Note_on_c, 0, 59, 93
2, 578355, Note_on_c, 0, 59, 0
2, 578469, Note_on_c, 0, 39, 53
2, 578469, Note_on_c, 0, 69, 87
2, 578474, Control_c, 0, 64, 63
2, 578505, Control_c, 0, 64, 127
2, 578537, Note_on_c, 0, 39, 0
2, 578584, Note_on_c, 0, 69, 0
2, 578606, Note_on_c, 0, 71, 68
2, 578642, Note_on_c, 0, 71, 0
2, 578668, Note_on_c, 0, 69, 66
2, 578693, Note_on_c, 0, 71, 80
2, 578695, Note_on_c, 0, 59, 60
2, 578699, Note_on_c, 0, 69, 0
2, 578723, Note_on_c, 0, 71, 0
2, 578733, Note_on_c, 0, 69, 71
2, 578738, Note_on_c, 0, 59, 0
2, 578774, Note_on_c, 0, 69, 0
2, 578776, Note_on_c, 0, 67, 77
2, 578803, Note_on_c, 0, 69, 72
2, 578817, Note_on_c, 0, 67, 0
2, 578857, Note_on_c, 0, 71, 84
2, 578864, Note_on_c, 0, 69, 0
2, 578890, Note_on_c, 0, 71, 0
2, 578891, Note_on_c, 0, 69, 68
2, 578926, Note_on_c, 0, 67, 82
2, 578933, Note_on_c, 0, 69, 0
2, 578967, Note_on_c, 0, 67, 0
2, 578988, Note_on_c, 0, 40, 72
2, 578997, Note_on_c, 0, 67, 84
2, 579060, Control_c, 0, 64, 63
2, 579121, Control_c, 0, 64, 127
2, 579193, Note_on_c, 0, 47, 68
2, 579196, Note_on_c, 0, 67, 0
2, 579309, Note_on_c, 0, 40, 0
2, 579335, Note_on_c, 0, 47, 0
2, 579335, Note_on_c, 0, 52, 78
2, 579414, Note_on_c, 0, 52, 0
2, 579451, Note_on_c, 0, 47, 72
2, 579607, Note_on_c, 0, 59, 56
2, 579746, Note_on_c, 0, 59, 0
2, 579760, Note_on_c, 0, 47, 0
2, 579776, Note_on_c, 0, 52, 52
2, 579941, Note_on_c, 0, 45, 60
2, 579986, Note_on_c, 0, 52, 0
2, 580006, Note_on_c, 0, 66, 93
2, 580058, Control_c, 0, 64, 63
2, 580073, Control_c, 0, 64, 0
2, 580150, Control_c, 0, 64, 63
2, 580160, Control_c, 0, 64, 127
2, 580183, Note_on_c, 0, 52, 60
2, 580218, Note_on_c, 0, 45, 0
2, 580299, Note_on_c, 0, 54, 89
2, 580349, Note_on_c, 0, 52, 0
2, 580416, Note_on_c, 0, 52, 84
2, 580550, Note_on_c, 0, 64, 96
2, 580559, Note_on_c, 0, 60, 59
2, 580562, Note_on_c, 0, 54, 0
2, 580593, Note_on_c, 0, 66, 0
2, 580602, Control_c, 0, 64, 63
2, 580656, Control_c, 0, 64, 127
2, 580696, Note_on_c, 0, 60, 0
2, 580696, Note_on_c, 0, 54, 88
2, 580713, Note_on_c, 0, 52, 0
2, 580722, Note_on_c, 0, 64, 0
2, 580765, Note_on_c, 0, 66, 106
2, 580815, Note_on_c, 0, 54, 0
2, 580815, Note_on_c, 0, 66, 0
2, 580850, Note_on_c, 0, 47, 74
2, 580856, Note_on_c, 0, 66, 100
2, 580882, Control_c, 0, 64, 63
2, 580942, Control_c, 0, 64, 127
2, 580989, Note_on_c, 0, 66, 0
2, 580995, Note_on_c, 0, 68, 90
2, 581009, Note_on_c, 0, 52, 67
2, 581073, Note_on_c, 0, 68, 0
2, 581088, Note_on_c, 0, 69, 65
2, 581121, Note_on_c, 0, 47, 0
2, 581147, Note_on_c, 0, 69, 0
2, 581155, Note_on_c, 0, 52, 0
2, 581160, Note_on_c, 0, 68, 77
2, 581161, Note_on_c, 0, 59, 48
2, 581200, Note_on_c, 0, 68, 0
2, 581204, Note_on_c, 0, 69, 63
2, 581236, Note_on_c, 0, 69, 0
2, 581246, Note_on_c, 0, 68, 92
2, 581266, Note_on_c, 0, 59, 0
2, 581275, Note_on_c, 0, 52, 54
2, 581281, Note_on_c, 0, 69, 76
2, 581283, Note_on_c, 0, 68, 0
2, 581317, Note_on_c, 0, 69, 0
2, 581321, Note_on_c, 0, 68, 89
2, 581354, Note_on_c, 0, 69, 60
2, 581359, Note_on_c, 0, 68, 0
2, 581395, Note_on_c, 0, 68, 84
2, 581405, Note_on_c, 0, 69, 0
2, 581408, Note_on_c, 0, 62, 81
2, 581438, Note_on_c, 0, 68, 0
2, 581439, Note_on_c, 0, 69, 69
2, 581483, Note_on_c, 0, 68, 96
2, 581486, Note_on_c, 0, 69, 0
2, 581506, Note_on_c, 0, 62, 0
2, 581525, Note_on_c, 0, 52, 0
2, 581534, Note_on_c, 0, 68, 0
2, 581537, Note_on_c, 0, 53, 84
2, 581539, Note_on_c, 0, 66, 94
2, 581571, Note_on_c, 0, 68, 73
2, 581577, Note_on_c, 0, 53, 0
2, 581590, Note_on_c, 0, 66, 0
2, 581655, Note_on_c, 0, 68, 0
2, 581666, Note_on_c, 0, 69, 92
2, 581676, Note_on_c, 0, 48, 67
2, 581725, Control_c, 0, 64, 63
2, 581733, Control_c, 0, 64, 0
2, 581811, Note_on_c, 0, 53, 89
2, 581843, Control_c, 0, 64, 63
2, 581844, Control_c, 0, 64, 127
2, 581889, Note_on_c, 0, 69, 0
2, 581941, Note_on_c, 0, 57, 71
2, 581941, Note_on_c, 0, 70, 97
2, 581965, Note_on_c, 0, 53, 0
2, 582021, Note_on_c, 0, 69, 82
2, 582029, Note_on_c, 0, 70, 0
2, 582084, Note_on_c, 0, 70, 100
2, 582089, Note_on_c, 0, 53, 74
2, 582097, Note_on_c, 0, 69, 0
2, 582138, Note_on_c, 0, 70, 0
2, 582148, Note_on_c, 0, 71, 84
2, 582200, Note_on_c, 0, 74, 99
2, 582208, Note_on_c, 0, 71, 0
2, 582241, Control_c, 0, 64, 63
2, 582261, Note_on_c, 0, 60, 82
2, 582262, Note_on_c, 0, 74, 0
2, 582269, Note_on_c, 0, 72, 97
2, 582285, Control_c, 0, 64, 127
2, 582294, Note_on_c, 0, 57, 0
2, 582296, Note_on_c, 0, 53, 0
2, 582354, Note_on_c, 0, 76, 104
2, 582374, Note_on_c, 0, 72, 0
2, 582445, Note_on_c, 0, 77, 109
2, 582450, Note_on_c, 0, 60, 0
2, 582452, Note_on_c, 0, 53, 91
2, 582461, Note_on_c, 0, 76, 0
2, 582500, Note_on_c, 0, 48, 0
2, 582536, Note_on_c, 0, 81, 114
2, 582556, Note_on_c, 0, 77, 0
2, 582590, Note_on_c, 0, 81, 0
2, 582654, Note_on_c, 0, 48, 99
2, 582695, Note_on_c, 0, 53, 0
2, 582717, Note_on_c, 0, 82, 113
2, 582720, Note_on_c, 0, 70, 94
2, 582784, Control_c, 0, 64, 63
2, 582795, Control_c, 0, 64, 0
2, 582931, Note_on_c, 0, 55, 93
2, 582998, Control_c, 0, 64, 127
2, 583041, Note_on_c, 0, 48, 0
2, 583059, Note_on_c, 0, 70, 0
2, 583091, Note_on_c, 0, 75, 98
2, 583099, Note_on_c, 0, 58, 91
2, 583132, Note_on_c, 0, 55, 0
2, 583214, Note_on_c, 0, 76, 92
2, 583228, Note_on_c, 0, 75, 0
2, 583247, Note_on_c, 0, 55, 52
2, 583308, Note_on_c, 0, 78, 105
2, 583333, Note_on_c, 0, 76, 0
2, 583387, Note_on_c, 0, 76, 100
2, 583412, Note_on_c, 0, 78, 0
2, 583445, Note_on_c, 0, 76, 0
2, 583454, Note_on_c, 0, 64, 76
2, 583481, Note_on_c, 0, 76, 97
2, 583495, Note_on_c, 0, 55, 0
2, 583531, Control_c, 0, 64, 63
2, 583557, Note_on_c, 0, 58, 0
2, 583561, Control_c, 0, 64, 127
2, 583624, Note_on_c, 0, 74, 102
2, 583651, Note_on_c, 0, 76, 0
2, 583696, Note_on_c, 0, 82, 0
2, 583703, Note_on_c, 0, 64, 0
2, 583713, Note_on_c, 0, 54, 97
2, 583746, Note_on_c, 0, 54, 0
2, 583778, Note_on_c, 0, 72, 108
2, 583789, Note_on_c, 0, 74, 0
2, 583827, Note_on_c, 0, 72, 0
2, 583931, Note_on_c, 0, 47, 104
2, 583982, Note_on_c, 0, 83, 103
2, 583987, Note_on_c, 0, 71, 89
2, 584118, Control_c, 0, 64, 63
2, 584134, Control_c, 0, 64, 0
2, 584252, Note_on_c, 0, 55, 88
2, 584273, Control_c, 0, 64, 63
2, 584273, Control_c, 0, 64, 127
2, 584365, Note_on_c, 0, 71, 0
2, 584412, Note_on_c, 0, 59, 83
2, 584434, Note_on_c, 0, 79, 106
2, 584457, Note_on_c, 0, 83, 0
2, 584459, Note_on_c, 0, 55, 0
2, 584576, Note_on_c, 0, 47, 0
2, 584595, Note_on_c, 0, 55, 75
2, 584599, Note_on_c, 0, 59, 0
2, 584632, Note_on_c, 0, 55, 0
2, 584741, Note_on_c, 0, 64, 83
2, 584814, Note_on_c, 0, 64, 0
2, 584902, Note_on_c, 0, 55, 70
2, 584929, Note_on_c, 0, 55, 0
2, 585099, Note_on_c, 0, 45, 80
2, 585209, Control_c, 0, 64, 63
2, 585222, Control_c, 0, 64, 0
2, 585239, Control_c, 0, 64, 63
2, 585262, Control_c, 0, 64, 127
2, 585285, Note_on_c, 0, 52, 78
2, 585306, Note_on_c, 0, 45, 0
2, 585424, Note_on_c, 0, 54, 79
2, 585433, Note_on_c, 0, 79, 0
2, 585459, Note_on_c, 0, 52, 0
2, 585531, Note_on_c, 0, 78, 82
2, 585624, Note_on_c, 0, 78, 0
2, 585627, Note_on_c, 0, 76, 71
2, 585630, Note_on_c, 0, 52, 42
2, 585649, Note_on_c, 0, 54, 0
2, 585704, Note_on_c, 0, 72, 76
2, 585706, Note_on_c, 0, 76, 0
2, 585759, Note_on_c, 0, 72, 0
2, 585771, Note_on_c, 0, 69, 68
2, 585838, Note_on_c, 0, 69, 0
2, 585853, Note_on_c, 0, 66, 83
2, 585871, Note_on_c, 0, 60, 34
2, 585887, Note_on_c, 0, 52, 0
2, 585927, Control_c, 0, 64, 63
2, 585960, Control_c, 0, 64, 127
2, 586035, Note_on_c, 0, 66, 0
2, 586047, Note_on_c, 0, 67, 60
2, 586081, Note_on_c, 0, 60, 0
2, 586082, Note_on_c, 0, 66, 76
2, 586085, Note_on_c, 0, 67, 0
2, 586124, Note_on_c, 0, 66, 0
2, 586141, Note_on_c, 0, 64, 57
2, 586179, Note_on_c, 0, 66, 78
2, 586184, Note_on_c, 0, 64, 0
2, 586199, Note_on_c, 0, 52, 37
2, 586226, Note_on_c, 0, 67, 71
2, 586231, Note_on_c, 0, 66, 0
2, 586266, Note_on_c, 0, 67, 0
2, 586437, Note_on_c, 0, 69, 77
2, 586482, Note_on_c, 0, 69, 0
2, 586517, Note_on_c, 0, 69, 64
2, 586520, Note_on_c, 0, 47, 41
2, 586547, Note_on_c, 0, 52, 0
2, 586635, Control_c, 0, 64, 63
2, 586673, Control_c, 0, 64, 0
2, 586699, Control_c, 0, 64, 63
2, 586726, Note_on_c, 0, 52, 42
2, 586728, Control_c, 0, 64, 127
2, 586860, Note_on_c, 0, 64, 76
2, 586870, Note_on_c, 0, 55, 41
2, 586875, Note_on_c, 0, 69, 0
2, 586897, Note_on_c, 0, 52, 0
2, 586926, Control_c, 0, 64, 63
2, 586983, Control_c, 0, 64, 127
2, 587013, Note_on_c, 0, 52, 76
2, 587023, Note_on_c, 0, 55, 0
2, 587113, Note_on_c, 0, 64, 0
2, 587149, Note_on_c, 0, 59, 68
2, 587192, Note_on_c, 0, 52, 0
2, 587199, Note_on_c, 0, 72, 93
2, 587395, Note_on_c, 0, 52, 49
2, 587460, Note_on_c, 0, 47, 0
2, 587585, Note_on_c, 0, 47, 52
2, 587603, Note_on_c, 0, 72, 0
2, 587605, Note_on_c, 0, 71, 67
2, 587665, Note_on_c, 0, 52, 0
2, 587752, Control_c, 0, 64, 63
2, 587761, Note_on_c, 0, 64, 5
2, 587816, Note_on_c, 0, 54, 52
2, 587823, Note_on_c, 0, 59, 0
2, 587828, Control_c, 0, 64, 127
2, 588028, Note_on_c, 0, 63, 71
2, 588035, Note_on_c, 0, 57, 46
2, 588042, Note_on_c, 0, 64, 0
2, 588055, Note_on_c, 0, 54, 0
2, 588185, Note_on_c, 0, 63, 0
2, 588192, Note_on_c, 0, 64, 63
2, 588293, Note_on_c, 0, 54, 53
2, 588314, Note_on_c, 0, 63, 76
2, 588341, Note_on_c, 0, 57, 0
2, 588343, Note_on_c, 0, 64, 0
2, 588440, Note_on_c, 0, 61, 53
2, 588453, Note_on_c, 0, 63, 0
2, 588542, Note_on_c, 0, 61, 0
2, 588573, Note_on_c, 0, 63, 71
2, 588592, Note_on_c, 0, 59, 47
2, 588614, Note_on_c, 0, 54, 0
2, 588704, Note_on_c, 0, 64, 67
2, 588705, Note_on_c, 0, 63, 0
2, 588709, Note_on_c, 0, 59, 0
2, 588797, Note_on_c, 0, 71, 0
2, 588801, Note_on_c, 0, 64, 0
2, 588844, Note_on_c, 0, 67, 52
2, 588949, Note_on_c, 0, 67, 0
2, 588978, Note_on_c, 0, 57, 22
2, 589006, Note_on_c, 0, 66, 71
2, 589034, Note_on_c, 0, 66, 0
2, 589093, Note_on_c, 0, 57, 0
2, 589161, Note_on_c, 0, 47, 0
2, 589377, Note_on_c, 0, 64, 60
2, 589393, Control_c, 0, 64, 63
2, 589407, Control_c, 0, 64, 0
2, 589424, Note_on_c, 0, 64, 0
2, 589493, Note_on_c, 0, 40, 83
2, 589527, Note_on_c, 0, 47, 71
2, 589534, Control_c, 0, 64, 127
2, 589542, Note_on_c, 0, 40, 0
2, 589570, Note_on_c, 0, 55, 69
2, 589570, Note_on_c, 0, 64, 80
2, 589571, Note_on_c, 0, 47, 0
2, 589579, Note_on_c, 0, 76, 80
2, 589595, Note_on_c, 0, 64, 0
2, 589596, Note_on_c, 0, 55, 0
2, 589606, Note_on_c, 0, 76, 0
2, 589723, Control_c, 0, 64, 63
2, 589731, Control_c, 0, 64, 0
2, 589860, Control_c, 0, 64, 63
2, 589863, Control_c, 0, 64, 127
2, 589882, Note_on_c, 0, 59, 77
2, 589886, Note_on_c, 0, 71, 79
2, 589939, Note_on_c, 0, 71, 0
2, 589955, Note_on_c, 0, 59, 0
2, 589961, Note_on_c, 0, 60, 62
2, 589976, Note_on_c, 0, 79, 72
2, 589982, Note_on_c, 0, 60, 0
2, 589986, Note_on_c, 0, 59, 62
2, 590018, Note_on_c, 0, 59, 0
2, 590018, Note_on_c, 0, 60, 79
2, 590030, Note_on_c, 0, 79, 0
2, 590041, Note_on_c, 0, 67, 69
2, 590042, Note_on_c, 0, 59, 71
2, 590046, Note_on_c, 0, 78, 87
2, 590058, Note_on_c, 0, 60, 0
2, 590063, Note_on_c, 0, 67, 0
2, 590080, Note_on_c, 0, 58, 97
2, 590083, Note_on_c, 0, 59, 0
2, 590091, Note_on_c, 0, 78, 0
2, 590103, Note_on_c, 0, 76, 86
2, 590114, Note_on_c, 0, 58, 0
2, 590118, Note_on_c, 0, 59, 68
2, 590155, Note_on_c, 0, 76, 0
2, 590163, Note_on_c, 0, 47, 88
2, 590165, Note_on_c, 0, 71, 84
2, 590165, Control_c, 0, 64, 63
2, 590166, Control_c, 0, 64, 0
2, 590177, Note_on_c, 0, 59, 0
2, 590199, Note_on_c, 0, 71, 0
2, 590224, Note_on_c, 0, 83, 78
2, 590264, Note_on_c, 0, 47, 0
2, 590291, Note_on_c, 0, 76, 71
2, 590293, Note_on_c, 0, 81, 81
2, 590295, Note_on_c, 0, 83, 0
2, 590320, Note_on_c, 0, 76, 0
2, 590357, Note_on_c, 0, 79, 69
2, 590364, Note_on_c, 0, 81, 0
2, 590395, Note_on_c, 0, 79, 0
2, 590414, Note_on_c, 0, 71, 83
2, 590428, Note_on_c, 0, 52, 56
2, 590438, Note_on_c, 0, 40, 38
2, 590445, Control_c, 0, 64, 63
2, 590447, Control_c, 0, 64, 127
2, 590450, Note_on_c, 0, 71, 0
2, 590473, Note_on_c, 0, 79, 77
2, 590526, Note_on_c, 0, 52, 0
2, 590531, Note_on_c, 0, 40, 0
2, 590532, Note_on_c, 0, 78, 81
2, 590539, Note_on_c, 0, 67, 67
2, 590553, Note_on_c, 0, 79, 0
2, 590574, Note_on_c, 0, 67, 0
2, 590604, Note_on_c, 0, 78, 0
2, 590604, Note_on_c, 0, 76, 80
2, 590634, Control_c, 0, 64, 63
2, 590637, Control_c, 0, 64, 0
2, 590642, Note_on_c, 0, 76, 0
2, 590655, Note_on_c, 0, 71, 87
2, 590668, Control_c, 0, 64, 63
2, 590670, Note_on_c, 0, 59, 92
2, 590677, Control_c, 0, 64, 127
2, 590686, Note_on_c, 0, 71, 0
2, 590707, Note_on_c, 0, 59, 0
2, 590712, Note_on_c, 0, 60, 79
2, 590716, Note_on_c, 0, 79, 93
2, 590740, Note_on_c, 0, 59, 62
2, 590747, Note_on_c, 0, 60, 0
2, 590772, Note_on_c, 0, 60, 80
2, 590775, Note_on_c, 0, 59, 0
2, 590775, Note_on_c, 0, 78, 92
2, 590783, Note_on_c, 0, 67, 81
2, 590796, Note_on_c, 0, 79, 0
2, 590805, Note_on_c, 0, 59, 84
2, 590809, Note_on_c, 0, 60, 0
2, 590817, Note_on_c, 0, 67, 0
2, 590832, Note_on_c, 0, 78, 0
2, 590834, Note_on_c, 0, 76, 91
2, 590835, Note_on_c, 0, 58, 96
2, 590837, Note_on_c, 0, 59, 0
2, 590867, Note_on_c, 0, 59, 74
2, 590868, Note_on_c, 0, 58, 0
2, 590889, Note_on_c, 0, 71, 88
2, 590893, Control_c, 0, 64, 63
2, 590895, Control_c, 0, 64, 0
2, 590904, Note_on_c, 0, 47, 92
2, 590906, Note_on_c, 0, 76, 0
2, 590911, Note_on_c, 0, 59, 0
2, 590921, Note_on_c, 0, 71, 0
2, 590946, Note_on_c, 0, 83, 99
2, 590998, Note_on_c, 0, 47, 0
2, 591002, Note_on_c, 0, 81, 99
2, 591016, Note_on_c, 0, 76, 88
2, 591030, Note_on_c, 0, 83, 0
2, 591044, Note_on_c, 0, 76, 0
2, 591060, Note_on_c, 0, 79, 101
2, 591081, Note_on_c, 0, 81, 0
2, 591093, Note_on_c, 0, 79, 0
2, 591131, Note_on_c, 0, 42, 107
2, 591142, Note_on_c, 0, 84, 102
2, 591150, Note_on_c, 0, 42, 0
2, 591153, Control_c, 0, 64, 63
2, 591155, Control_c, 0, 64, 127
2, 591180, Note_on_c, 0, 84, 0
2, 591223, Note_on_c, 0, 96, 101
2, 591292, Note_on_c, 0, 95, 98
2, 591298, Note_on_c, 0, 88, 88
2, 591311, Note_on_c, 0, 96, 0
2, 591324, Note_on_c, 0, 88, 0
2, 591359, Note_on_c, 0, 93, 96
2, 591371, Control_c, 0, 64, 63
2, 591372, Control_c, 0, 64, 0
2, 591378, Note_on_c, 0, 95, 0
2, 591393, Note_on_c, 0, 93, 0
2, 591414, Note_on_c, 0, 81, 100
2, 591431, Note_on_c, 0, 54, 86
2, 591446, Control_c, 0, 64, 63
2, 591450, Note_on_c, 0, 81, 0
2, 591450, Control_c, 0, 64, 127
2, 591468, Note_on_c, 0, 54, 0
2, 591478, Note_on_c, 0, 93, 98
2, 591480, Note_on_c, 0, 55, 65
2, 591513, Note_on_c, 0, 54, 85
2, 591518, Note_on_c, 0, 55, 0
2, 591532, Note_on_c, 0, 84, 83
2, 591541, Note_on_c, 0, 91, 96
2, 591543, Note_on_c, 0, 54, 0
2, 591548, Note_on_c, 0, 55, 66
2, 591564, Note_on_c, 0, 93, 0
2, 591564, Note_on_c, 0, 54, 80
2, 591565, Note_on_c, 0, 84, 0
2, 591584, Note_on_c, 0, 55, 0
2, 591596, Note_on_c, 0, 90, 100
2, 591603, Note_on_c, 0, 53, 94
2, 591609, Note_on_c, 0, 54, 0
2, 591609, Note_on_c, 0, 91, 0
2, 591618, Control_c, 0, 64, 63
2, 591621, Control_c, 0, 64, 0
2, 591631, Note_on_c, 0, 90, 0
2, 591642, Note_on_c, 0, 54, 85
2, 591646, Note_on_c, 0, 53, 0
2, 591654, Note_on_c, 0, 78, 92
2, 591662, Note_on_c, 0, 66, 83
2, 591685, Note_on_c, 0, 54, 0
2, 591687, Note_on_c, 0, 78, 0
2, 591716, Note_on_c, 0, 90, 86
2, 591778, Note_on_c, 0, 81, 70
2, 591779, Note_on_c, 0, 88, 91
2, 591780, Note_on_c, 0, 66, 0
2, 591803, Note_on_c, 0, 90, 0
2, 591809, Note_on_c, 0, 81, 0
2, 591841, Note_on_c, 0, 87, 93
2, 591851, Note_on_c, 0, 88, 0
2, 591881, Note_on_c, 0, 87, 0
2, 591899, Note_on_c, 0, 75, 95
2, 591908, Note_on_c, 0, 47, 98
2, 591928, Control_c, 0, 64, 63
2, 591930, Control_c, 0, 64, 127
2, 591931, Note_on_c, 0, 75, 0
2, 591960, Note_on_c, 0, 47, 0
2, 591961, Note_on_c, 0, 87, 95
2, 592021, Note_on_c, 0, 84, 83
2, 592028, Note_on_c, 0, 78, 80
2, 592037, Note_on_c, 0, 87, 0
2, 592069, Note_on_c, 0, 78, 0
2, 592077, Control_c, 0, 64, 63
2, 592079, Control_c, 0, 64, 0
2, 592084, Note_on_c, 0, 83, 83
2, 592101, Note_on_c, 0, 84, 0
2, 592130, Note_on_c, 0, 83, 0
2, 592138, Note_on_c, 0, 71, 89
2, 592143, Control_c, 0, 64, 63
2, 592148, Control_c, 0, 64, 127
2, 592159, Note_on_c, 0, 59, 83
2, 592176, Note_on_c, 0, 71, 0
2, 592190, Note_on_c, 0, 59, 0
2, 592191, Note_on_c, 0, 60, 80
2, 592194, Note_on_c, 0, 83, 83
2, 592217, Note_on_c, 0, 59, 63
2, 592220, Note_on_c, 0, 60, 0
2, 592247, Note_on_c, 0, 60, 89
2, 592253, Note_on_c, 0, 59, 0
2, 592259, Note_on_c, 0, 82, 96
2, 592264, Note_on_c, 0, 75, 81
2, 592274, Note_on_c, 0, 83, 0
2, 592281, Note_on_c, 0, 59, 69
2, 592283, Note_on_c, 0, 60, 0
2, 592299, Note_on_c, 0, 75, 0
2, 592302, Note_on_c, 0, 58, 91
2, 592308, Note_on_c, 0, 59, 0
2, 592321, Note_on_c, 0, 81, 85
2, 592336, Note_on_c, 0, 82, 0
2, 592338, Note_on_c, 0, 59, 55
2, 592340, Note_on_c, 0, 58, 0
2, 592345, Control_c, 0, 64, 63
2, 592349, Control_c, 0, 64, 0
2, 592368, Note_on_c, 0, 81, 0
2, 592374, Note_on_c, 0, 59, 0
2, 592379, Note_on_c, 0, 69, 54
2, 592379, Note_on_c, 0, 51, 78
2, 592440, Note_on_c, 0, 81, 65
2, 592456, Note_on_c, 0, 69, 0
2, 592462, Note_on_c, 0, 51, 0
2, 592508, Note_on_c, 0, 79, 79
2, 592512, Note_on_c, 0, 81, 0
2, 592514, Note_on_c, 0, 71, 71
2, 592553, Note_on_c, 0, 71, 0
2, 592574, Note_on_c, 0, 78, 78
2, 592595, Note_on_c, 0, 79, 0
2, 592629, Note_on_c, 0, 78, 0
2, 592641, Note_on_c, 0, 52, 47
2, 592643, Note_on_c, 0, 40, 59
2, 592651, Note_on_c, 0, 71, 63
2, 592667, Control_c, 0, 64, 63
2, 592671, Control_c, 0, 64, 127
2, 592726, Note_on_c, 0, 79, 69
2, 592728, Note_on_c, 0, 40, 0
2, 592730, Note_on_c, 0, 52, 0
2, 592754, Note_on_c, 0, 71, 0
2, 592797, Note_on_c, 0, 78, 77
2, 592804, Note_on_c, 0, 67, 63
2, 592817, Note_on_c, 0, 79, 0
2, 592826, Control_c, 0, 64, 63
2, 592829, Control_c, 0, 64, 0
2, 592854, Note_on_c, 0, 67, 0
2, 592862, Note_on_c, 0, 76, 76
2, 592871, Note_on_c, 0, 78, 0
2, 592898, Control_c, 0, 64, 63
2, 592904, Control_c, 0, 64, 127
2, 592909, Note_on_c, 0, 76, 0
2, 592928, Note_on_c, 0, 59, 76
2, 592929, Note_on_c, 0, 71, 78
2, 592965, Note_on_c, 0, 59, 0
2, 592974, Note_on_c, 0, 60, 55
2, 592988, Note_on_c, 0, 79, 90
2, 592998, Note_on_c, 0, 59, 57
2, 593004, Note_on_c, 0, 60, 0
2, 593013, Note_on_c, 0, 71, 0
2, 593033, Note_on_c, 0, 59, 0
2, 593033, Note_on_c, 0, 60, 64
2, 593047, Note_on_c, 0, 78, 89
2, 593056, Note_on_c, 0, 67, 77
2, 593059, Note_on_c, 0, 59, 68
2, 593074, Note_on_c, 0, 60, 0
2, 593079, Note_on_c, 0, 79, 0
2, 593093, Note_on_c, 0, 58, 92
2, 593096, Note_on_c, 0, 59, 0
2, 593101, Note_on_c, 0, 76, 94
2, 593106, Note_on_c, 0, 78, 0
2, 593122, Note_on_c, 0, 59, 70
2, 593125, Note_on_c, 0, 67, 0
2, 593126, Note_on_c, 0, 58, 0
2, 593126, Control_c, 0, 64, 63
2, 593130, Control_c, 0, 64, 0
2, 593157, Note_on_c, 0, 71, 99
2, 593168, Note_on_c, 0, 47, 90
2, 593171, Note_on_c, 0, 59, 0
2, 593173, Note_on_c, 0, 76, 0
2, 593201, Note_on_c, 0, 71, 0
2, 593223, Note_on_c, 0, 83, 91
2, 593246, Note_on_c, 0, 47, 0
2, 593276, Note_on_c, 0, 81, 88
2, 593286, Note_on_c, 0, 76, 84
2, 593303, Note_on_c, 0, 83, 0
2, 593329, Note_on_c, 0, 76, 0
2, 593338, Note_on_c, 0, 79, 82
2, 593366, Note_on_c, 0, 81, 0
2, 593392, Note_on_c, 0, 79, 0
2, 593393, Note_on_c, 0, 52, 80
2, 593395, Note_on_c, 0, 40, 76
2, 593401, Note_on_c, 0, 71, 90
2, 593409, Control_c, 0, 64, 63
2, 593412, Control_c, 0, 64, 127
2, 593424, Note_on_c, 0, 52, 0
2, 593429, Note_on_c, 0, 40, 0
2, 593449, Note_on_c, 0, 71, 0
2, 593460, Note_on_c, 0, 79, 79
2, 593515, Note_on_c, 0, 78, 86
2, 593527, Note_on_c, 0, 67, 72
2, 593544, Note_on_c, 0, 79, 0
2, 593551, Control_c, 0, 64, 63
2, 593554, Control_c, 0, 64, 0
2, 593579, Note_on_c, 0, 67, 0
2, 593584, Note_on_c, 0, 76, 81
2, 593602, Note_on_c, 0, 78, 0
2, 593617, Control_c, 0, 64, 63
2, 593623, Control_c, 0, 64, 127
2, 593634, Note_on_c, 0, 76, 0
2, 593644, Note_on_c, 0, 59, 71
2, 593646, Note_on_c, 0, 71, 91
2, 593675, Note_on_c, 0, 59, 0
2, 593687, Note_on_c, 0, 71, 0
2, 593696, Note_on_c, 0, 60, 48
2, 593706, Note_on_c, 0, 79, 88
2, 593721, Note_on_c, 0, 59, 53
2, 593723, Note_on_c, 0, 60, 0
2, 593755, Note_on_c, 0, 60, 68
2, 593758, Note_on_c, 0, 59, 0
2, 593761, Note_on_c, 0, 78, 88
2, 593773, Note_on_c, 0, 67, 74
2, 593785, Note_on_c, 0, 59, 59
2, 593791, Note_on_c, 0, 79, 0
2, 593793, Note_on_c, 0, 60, 0
2, 593805, Note_on_c, 0, 58, 88
2, 593811, Note_on_c, 0, 59, 0
2, 593817, Note_on_c, 0, 76, 85
2, 593821, Note_on_c, 0, 78, 0
2, 593823, Note_on_c, 0, 67, 0
2, 593829, Control_c, 0, 64, 63
2, 593832, Control_c, 0, 64, 0
2, 593840, Note_on_c, 0, 58, 0
2, 593843, Note_on_c, 0, 59, 49
2, 593864, Note_on_c, 0, 76, 0
2, 593874, Note_on_c, 0, 71, 89
2, 593882, Note_on_c, 0, 47, 94
2, 593894, Note_on_c, 0, 59, 0
2, 593912, Note_on_c, 0, 71, 0
2, 593936, Note_on_c, 0, 83, 87
2, 593975, Note_on_c, 0, 47, 0
2, 593995, Note_on_c, 0, 81, 81
2, 593996, Note_on_c, 0, 76, 76
2, 594016, Note_on_c, 0, 83, 0
2, 594022, Note_on_c, 0, 76, 0
2, 594064, Note_on_c, 0, 79, 77
2, 594082, Note_on_c, 0, 81, 0
2, 594120, Note_on_c, 0, 79, 0
2, 594132, Note_on_c, 0, 42, 67
2, 594155, Control_c, 0, 64, 63
2, 594157, Note_on_c, 0, 84, 91
2, 594158, Control_c, 0, 64, 127
2, 594168, Note_on_c, 0, 42, 0
2, 594231, Note_on_c, 0, 84, 0
2, 594245, Note_on_c, 0, 96, 80
2, 594326, Note_on_c, 0, 95, 93
2, 594326, Note_on_c, 0, 88, 85
2, 594346, Note_on_c, 0, 96, 0
2, 594363, Note_on_c, 0, 88, 0
2, 594381, Control_c, 0, 64, 63
2, 594382, Control_c, 0, 64, 0
2, 594390, Note_on_c, 0, 93, 90
2, 594417, Note_on_c, 0, 95, 0
2, 594448, Note_on_c, 0, 93, 0
2, 594453, Control_c, 0, 64, 63
2, 594458, Control_c, 0, 64, 127
2, 594459, Note_on_c, 0, 81, 88
2, 594467, Note_on_c, 0, 54, 81
2, 594494, Note_on_c, 0, 54, 0
2, 594495, Note_on_c, 0, 81, 0
2, 594513, Note_on_c, 0, 55, 52
2, 594521, Note_on_c, 0, 93, 100
2, 594541, Note_on_c, 0, 55, 0
2, 594542, Note_on_c, 0, 54, 78
2, 594563, Note_on_c, 0, 54, 0
2, 594571, Note_on_c, 0, 55, 71
2, 594587, Note_on_c, 0, 91, 96
2, 594588, Note_on_c, 0, 84, 84
2, 594593, Note_on_c, 0, 54, 80
2, 594603, Note_on_c, 0, 55, 0
2, 594617, Note_on_c, 0, 93, 0
2, 594617, Note_on_c, 0, 84, 0
2, 594621, Note_on_c, 0, 53, 83
2, 594624, Note_on_c, 0, 54, 0
2, 594636, Control_c, 0, 64, 63
2, 594639, Control_c, 0, 64, 0
2, 594649, Note_on_c, 0, 90, 98
2, 594659, Note_on_c, 0, 53, 0
2, 594662, Note_on_c, 0, 54, 86
2, 594670, Note_on_c, 0, 91, 0
2, 594699, Note_on_c, 0, 90, 0
2, 594709, Note_on_c, 0, 78, 99
2, 594709, Note_on_c, 0, 66, 83
2, 594734, Note_on_c, 0, 54, 0
2, 594751, Note_on_c, 0, 78, 0
2, 594769, Note_on_c, 0, 90, 90
2, 594785, Note_on_c, 0, 66, 0
2, 594830, Note_on_c, 0, 81, 80
2, 594831, Note_on_c, 0, 88, 90
2, 594858, Note_on_c, 0, 90, 0
2, 594869, Note_on_c, 0, 81, 0
2, 594893, Note_on_c, 0, 87, 88
2, 594909, Note_on_c, 0, 88, 0
2, 594936, Note_on_c, 0, 47, 89
2, 594939, Note_on_c, 0, 87, 0
2, 594954, Note_on_c, 0, 75, 96
2, 594955, Control_c, 0, 64, 63
2, 594958, Control_c, 0, 64, 127
2, 594965, Note_on_c, 0, 47, 0
2, 594994, Note_on_c, 0, 75, 0
2, 595017, Note_on_c, 0, 87, 97
2, 595081, Note_on_c, 0, 84, 77
2, 595083, Note_on_c, 0, 78, 85
2, 595106, Note_on_c, 0, 87, 0
2, 595107, Control_c, 0, 64, 63
2, 595112, Control_c, 0, 64, 0
2, 595124, Note_on_c, 0, 78, 0
2, 595142, Note_on_c, 0, 83, 78
2, 595165, Note_on_c, 0, 84, 0
2, 595173, Control_c, 0, 64, 63
2, 595181, Control_c, 0, 64, 127
2, 595192, Note_on_c, 0, 71, 86
2, 595194, Note_on_c, 0, 83, 0
2, 595194, Note_on_c, 0, 59, 82
2, 595229, Note_on_c, 0, 59, 0
2, 595232, Note_on_c, 0, 60, 67
2, 595241, Note_on_c, 0, 71, 0
2, 595249, Note_on_c, 0, 83, 84
2, 595265, Note_on_c, 0, 59, 48
2, 595266, Note_on_c, 0, 60, 0
2, 595295, Note_on_c, 0, 60, 68
2, 595297, Note_on_c, 0, 59, 0
2, 595316, Note_on_c, 0, 82, 91
2, 595321, Note_on_c, 0, 75, 81
2, 595328, Note_on_c, 0, 83, 0
2, 595334, Note_on_c, 0, 59, 26
2, 595336, Note_on_c, 0, 60, 0
2, 595346, Note_on_c, 0, 58, 87
2, 595353, Note_on_c, 0, 59, 0
2, 595357, Note_on_c, 0, 75, 0
2, 595378, Note_on_c, 0, 81, 78
2, 595384, Note_on_c, 0, 58, 0
2, 595391, Note_on_c, 0, 82, 0
2, 595394, Note_on_c, 0, 59, 35
2, 595402, Control_c, 0, 64, 63
2, 595410, Control_c, 0, 64, 0
2, 595428, Note_on_c, 0, 81, 0
2, 595434, Note_on_c, 0, 69, 69
2, 595445, Note_on_c, 0, 51, 80
2, 595460, Note_on_c, 0, 59, 0
2, 595494, Note_on_c, 0, 81, 76
2, 595495, Note_on_c, 0, 69, 0
2, 595527, Note_on_c, 0, 51, 0
2, 595562, Note_on_c, 0, 79, 72
2, 595567, Note_on_c, 0, 81, 0
2, 595571, Note_on_c, 0, 71, 62
2, 595601, Note_on_c, 0, 71, 0
2, 595628, Note_on_c, 0, 78, 82
2, 595644, Note_on_c, 0, 79, 0
2, 595676, Note_on_c, 0, 78, 0
2, 595723, Note_on_c, 0, 78, 89
2, 595727, Note_on_c, 0, 38, 57
2, 595728, Note_on_c, 0, 50, 54
2, 595744, Control_c, 0, 64, 63
2, 595747, Control_c, 0, 64, 127
2, 595766, Note_on_c, 0, 38, 0
2, 595767, Note_on_c, 0, 50, 0
2, 595780, Note_on_c, 0, 78, 0
2, 595807, Note_on_c, 0, 83, 82
2, 595874, Note_on_c, 0, 71, 64
2, 595878, Note_on_c, 0, 81, 84
2, 595904, Note_on_c, 0, 83, 0
2, 595906, Note_on_c, 0, 71, 0
2, 595939, Note_on_c, 0, 80, 90
2, 595940, Control_c, 0, 64, 63
2, 595944, Control_c, 0, 64, 0
2, 595957, Note_on_c, 0, 81, 0
2, 595990, Note_on_c, 0, 80, 0
2, 596001, Note_on_c, 0, 78, 94
2, 596007, Control_c, 0, 64, 63
2, 596014, Control_c, 0, 64, 127
2, 596018, Note_on_c, 0, 62, 76
2, 596042, Note_on_c, 0, 78, 0
2, 596059, Note_on_c, 0, 83, 100
2, 596061, Note_on_c, 0, 62, 0
2, 596069, Note_on_c, 0, 64, 59
2, 596096, Note_on_c, 0, 64, 0
2, 596098, Note_on_c, 0, 62, 68
2, 596120, Note_on_c, 0, 71, 80
2, 596122, Note_on_c, 0, 81, 96
2, 596131, Note_on_c, 0, 62, 0
2, 596131, Note_on_c, 0, 64, 72
2, 596156, Note_on_c, 0, 83, 0
2, 596160, Note_on_c, 0, 64, 0
2, 596162, Note_on_c, 0, 71, 0
2, 596165, Note_on_c, 0, 62, 35
2, 596178, Note_on_c, 0, 61, 100
2, 596181, Note_on_c, 0, 80, 103
2, 596184, Note_on_c, 0, 62, 0
2, 596200, Note_on_c, 0, 81, 0
2, 596210, Note_on_c, 0, 61, 0
2, 596212, Note_on_c, 0, 62, 70
2, 596218, Note_on_c, 0, 80, 0
2, 596219, Control_c, 0, 64, 63
2, 596223, Control_c, 0, 64, 0
2, 596244, Note_on_c, 0, 78, 97
2, 596254, Note_on_c, 0, 62, 0
2, 596255, Note_on_c, 0, 50, 101
2, 596294, Note_on_c, 0, 78, 0
2, 596307, Note_on_c, 0, 90, 96
2, 596343, Note_on_c, 0, 50, 0
2, 596370, Note_on_c, 0, 83, 74
2, 596384, Note_on_c, 0, 88, 88
2, 596387, Note_on_c, 0, 90, 0
2, 596410, Note_on_c, 0, 83, 0
2, 596440, Note_on_c, 0, 86, 90
2, 596459, Note_on_c, 0, 88, 0
2, 596474, Note_on_c, 0, 86, 0
2, 596506, Note_on_c, 0, 78, 88
2, 596507, Note_on_c, 0, 38, 88
2, 596519, Control_c, 0, 64, 63
2, 596522, Control_c, 0, 64, 127
2, 596532, Note_on_c, 0, 38, 0
2, 596551, Note_on_c, 0, 78, 0
2, 596576, Note_on_c, 0, 83, 84
2, 596636, Note_on_c, 0, 81, 85
2, 596640, Note_on_c, 0, 71, 70
2, 596666, Note_on_c, 0, 83, 0
2, 596682, Note_on_c, 0, 71, 0
2, 596696, Note_on_c, 0, 80, 97
2, 596703, Control_c, 0, 64, 63
2, 596705, Control_c, 0, 64, 0
2, 596718, Note_on_c, 0, 81, 0
2, 596747, Note_on_c, 0, 80, 0
2, 596756, Note_on_c, 0, 78, 97
2, 596771, Note_on_c, 0, 62, 79
2, 596798, Note_on_c, 0, 78, 0
2, 596806, Note_on_c, 0, 62, 0
2, 596809, Note_on_c, 0, 64, 65
2, 596811, Note_on_c, 0, 83, 101
2, 596835, Note_on_c, 0, 62, 57
2, 596844, Note_on_c, 0, 64, 0
2, 596872, Note_on_c, 0, 64, 72
2, 596877, Note_on_c, 0, 62, 0
2, 596879, Note_on_c, 0, 81, 94
2, 596884, Note_on_c, 0, 71, 90
2, 596902, Note_on_c, 0, 62, 69
2, 596912, Note_on_c, 0, 64, 0
2, 596913, Note_on_c, 0, 83, 0
2, 596925, Note_on_c, 0, 71, 0
2, 596926, Note_on_c, 0, 61, 93
2, 596931, Note_on_c, 0, 62, 0
2, 596937, Note_on_c, 0, 80, 101
2, 596953, Note_on_c, 0, 61, 0
2, 596953, Note_on_c, 0, 81, 0
2, 596961, Note_on_c, 0, 62, 70
2, 596971, Note_on_c, 0, 80, 0
2, 596998, Note_on_c, 0, 78, 105
2, 597000, Control_c, 0, 64, 63
2, 597002, Note_on_c, 0, 62, 0
2, 597003, Control_c, 0, 64, 127
2, 597008, Note_on_c, 0, 50, 92
2, 597042, Note_on_c, 0, 78, 0
2, 597058, Note_on_c, 0, 90, 93
2, 597061, Note_on_c, 0, 50, 0
2, 597119, Control_c, 0, 64, 63
2, 597121, Control_c, 0, 64, 0
2, 597122, Note_on_c, 0, 83, 81
2, 597127, Note_on_c, 0, 88, 97
2, 597134, Note_on_c, 0, 90, 0
2, 597166, Note_on_c, 0, 83, 0
2, 597183, Note_on_c, 0, 86, 93
2, 597207, Note_on_c, 0, 88, 0
2, 597233, Note_on_c, 0, 86, 0
2, 597255, Control_c, 0, 64, 63
2, 597258, Control_c, 0, 64, 127
2, 597262, Note_on_c, 0, 37, 80
2, 597271, Note_on_c, 0, 80, 94
2, 597285, Note_on_c, 0, 37, 0
2, 597329, Note_on_c, 0, 80, 0
2, 597371, Note_on_c, 0, 89, 88
2, 597453, Note_on_c, 0, 83, 65
2, 597461, Note_on_c, 0, 86, 89
2, 597465, Note_on_c, 0, 89, 0
2, 597496, Note_on_c, 0, 83, 0
2, 597531, Note_on_c, 0, 85, 88
2, 597549, Note_on_c, 0, 86, 0
2, 597584, Note_on_c, 0, 49, 70
2, 597588, Note_on_c, 0, 85, 0
2, 597595, Note_on_c, 0, 77, 86
2, 597605, Note_on_c, 0, 49, 0
2, 597623, Note_on_c, 0, 50, 57
2, 597637, Note_on_c, 0, 77, 0
2, 597652, Note_on_c, 0, 50, 0
2, 597653, Note_on_c, 0, 49, 74
2, 597659, Note_on_c, 0, 86, 99
2, 597677, Note_on_c, 0, 49, 0
2, 597688, Note_on_c, 0, 50, 63
2, 597705, Note_on_c, 0, 49, 75
2, 597716, Note_on_c, 0, 50, 0
2, 597721, Note_on_c, 0, 85, 100
2, 597729, Note_on_c, 0, 80, 88
2, 597738, Note_on_c, 0, 48, 76
2, 597744, Note_on_c, 0, 49, 0
2, 597750, Note_on_c, 0, 86, 0
2, 597767, Note_on_c, 0, 80, 0
2, 597779, Note_on_c, 0, 49, 86
2, 597780, Note_on_c, 0, 48, 0
2, 597780, Note_on_c, 0, 83, 96
2, 597802, Note_on_c, 0, 85, 0
2, 597803, Control_c, 0, 64, 63
2, 597808, Control_c, 0, 64, 0
2, 597830, Note_on_c, 0, 83, 0
2, 597842, Note_on_c, 0, 61, 80
2, 597845, Note_on_c, 0, 74, 96
2, 597862, Note_on_c, 0, 49, 0
2, 597889, Note_on_c, 0, 74, 0
2, 597904, Note_on_c, 0, 83, 80
2, 597920, Note_on_c, 0, 61, 0
2, 597968, Note_on_c, 0, 77, 71
2, 597971, Note_on_c, 0, 81, 89
2, 598002, Note_on_c, 0, 83, 0
2, 598005, Note_on_c, 0, 77, 0
2, 598028, Note_on_c, 0, 80, 88
2, 598050, Note_on_c, 0, 81, 0
2, 598081, Note_on_c, 0, 80, 0
2, 598089, Note_on_c, 0, 71, 85
2, 598097, Note_on_c, 0, 37, 99
2, 598109, Control_c, 0, 64, 63
2, 598110, Control_c, 0, 64, 127
2, 598112, Note_on_c, 0, 37, 0
2, 598126, Note_on_c, 0, 71, 0
2, 598154, Note_on_c, 0, 80, 90
2, 598216, Note_on_c, 0, 74, 61
2, 598219, Note_on_c, 0, 78, 88
2, 598236, Note_on_c, 0, 80, 0
2, 598249, Note_on_c, 0, 74, 0
2, 598281, Note_on_c, 0, 77, 86
2, 598297, Note_on_c, 0, 78, 0
2, 598319, Note_on_c, 0, 77, 0
2, 598320, Control_c, 0, 64, 63
2, 598324, Control_c, 0, 64, 0
2, 598328, Note_on_c, 0, 49, 85
2, 598335, Note_on_c, 0, 68, 84
2, 598350, Note_on_c, 0, 49, 0
2, 598361, Note_on_c, 0, 50, 70
2, 598366, Control_c, 0, 64, 63
2, 598373, Note_on_c, 0, 68, 0
2, 598375, Control_c, 0, 64, 127
2, 598387, Note_on_c, 0, 77, 83
2, 598396, Note_on_c, 0, 49, 71
2, 598400, Note_on_c, 0, 50, 0
2, 598429, Note_on_c, 0, 49, 0
2, 598437, Note_on_c, 0, 50, 56
2, 598446, Control_c, 0, 64, 63
2, 598449, Note_on_c, 0, 71, 70
2, 598450, Control_c, 0, 64, 0
2, 598454, Note_on_c, 0, 74, 81
2, 598457, Note_on_c, 0, 49, 49
2, 598466, Note_on_c, 0, 77, 0
2, 598471, Note_on_c, 0, 50, 0
2, 598477, Note_on_c, 0, 71, 0
2, 598486, Note_on_c, 0, 48, 64
2, 598487, Note_on_c, 0, 49, 0
2, 598514, Note_on_c, 0, 73, 84
2, 598531, Note_on_c, 0, 74, 0
2, 598534, Note_on_c, 0, 48, 0
2, 598534, Note_on_c, 0, 49, 73
2, 598561, Note_on_c, 0, 73, 0
2, 598572, Control_c, 0, 64, 63
2, 598575, Note_on_c, 0, 65, 67
2, 598577, Control_c, 0, 64, 127
2, 598585, Note_on_c, 0, 61, 67
2, 598598, Note_on_c, 0, 49, 0
2, 598615, Note_on_c, 0, 65, 0
2, 598617, Note_on_c, 0, 61, 0
2, 598634, Note_on_c, 0, 74, 76
2, 598666, Control_c, 0, 64, 63
2, 598670, Control_c, 0, 64, 0
2, 598689, Note_on_c, 0, 73, 80
2, 598704, Note_on_c, 0, 74, 0
2, 598704, Note_on_c, 0, 68, 74
2, 598737, Note_on_c, 0, 68, 0
2, 598749, Note_on_c, 0, 71, 66
2, 598761, Note_on_c, 0, 73, 0
2, 598787, Note_on_c, 0, 71, 0
2, 598828, Note_on_c, 0, 71, 84
2, 598839, Note_on_c, 0, 43, 84
2, 598850, Control_c, 0, 64, 63
2, 598853, Control_c, 0, 64, 127
2, 598869, Note_on_c, 0, 43, 0
2, 598871, Note_on_c, 0, 71, 0
2, 598898, Note_on_c, 0, 76, 84
2, 598962, Note_on_c, 0, 74, 77
2, 598968, Note_on_c, 0, 64, 71
2, 598984, Note_on_c, 0, 76, 0
2, 599002, Note_on_c, 0, 64, 0
2, 599015, Control_c, 0, 64, 63
2, 599016, Control_c, 0, 64, 0
2, 599019, Note_on_c, 0, 73, 88
2, 599038, Note_on_c, 0, 74, 0
2, 599063, Note_on_c, 0, 73, 0
2, 599081, Note_on_c, 0, 71, 90
2, 599091, Note_on_c, 0, 55, 76
2, 599109, Control_c, 0, 64, 63
2, 599112, Control_c, 0, 64, 127
2, 599113, Note_on_c, 0, 71, 0
2, 599131, Note_on_c, 0, 76, 89
2, 599141, Note_on_c, 0, 55, 0
2, 599142, Note_on_c, 0, 57, 68
2, 599168, Note_on_c, 0, 55, 72
2, 599175, Note_on_c, 0, 57, 0
2, 599197, Note_on_c, 0, 64, 88
2, 599199, Note_on_c, 0, 57, 68
2, 599203, Note_on_c, 0, 55, 0
2, 599203, Note_on_c, 0, 74, 93
2, 599216, Note_on_c, 0, 76, 0
2, 599228, Note_on_c, 0, 64, 0
2, 599229, Note_on_c, 0, 57, 0
2, 599229, Note_on_c, 0, 55, 52
2, 599242, Note_on_c, 0, 54, 99
2, 599250, Note_on_c, 0, 55, 0
2, 599259, Note_on_c, 0, 73, 97
2, 599273, Note_on_c, 0, 74, 0
2, 599275, Note_on_c, 0, 54, 0
2, 599278, Note_on_c, 0, 55, 53
2, 599299, Control_c, 0, 64, 63
2, 599304, Control_c, 0, 64, 0
2, 599307, Note_on_c, 0, 73, 0
2, 599314, Note_on_c, 0, 55, 0
2, 599318, Note_on_c, 0, 43, 97
2, 599321, Note_on_c, 0, 71, 85
2, 599359, Note_on_c, 0, 71, 0
2, 599383, Note_on_c, 0, 83, 90
2, 599419, Note_on_c, 0, 43, 0
2, 599456, Note_on_c, 0, 76, 90
2, 599464, Note_on_c, 0, 81, 93
2, 599478, Note_on_c, 0, 83, 0
2, 599530, Note_on_c, 0, 79, 84
2, 599532, Note_on_c, 0, 76, 0
2, 599547, Note_on_c, 0, 81, 0
2, 599576, Note_on_c, 0, 79, 0
2, 599596, Note_on_c, 0, 31, 86
2, 599603, Note_on_c, 0, 71, 82
2, 599639, Control_c, 0, 64, 63
2, 599643, Control_c, 0, 64, 127
2, 599669, Note_on_c, 0, 31, 0
2, 599669, Note_on_c, 0, 76, 68
2, 599676, Note_on_c, 0, 71, 0
2, 599720, Note_on_c, 0, 74, 84
2, 599747, Note_on_c, 0, 64, 67
2, 599748, Note_on_c, 0, 76, 0
2, 599786, Note_on_c, 0, 73, 87
2, 599790, Note_on_c, 0, 64, 0
2, 599797, Control_c, 0, 64, 63
2, 599806, Control_c, 0, 64, 0
2, 599813, Note_on_c, 0, 74, 0
2, 599838, Note_on_c, 0, 73, 0
2, 599845, Note_on_c, 0, 71, 87
2, 599857, Note_on_c, 0, 55, 76
2, 599886, Note_on_c, 0, 71, 0
2, 599886, Control_c, 0, 64, 63
2, 599892, Control_c, 0, 64, 127
2, 599901, Note_on_c, 0, 76, 100
2, 599902, Note_on_c, 0, 55, 0
2, 599903, Note_on_c, 0, 57, 60
2, 599931, Note_on_c, 0, 55, 64
2, 599937, Note_on_c, 0, 57, 0
2, 599962, Note_on_c, 0, 57, 76
2, 599966, Note_on_c, 0, 74, 91
2, 599969, Note_on_c, 0, 55, 0
2, 599974, Note_on_c, 0, 64, 77
2, 599997, Note_on_c, 0, 55, 47
2, 599998, Note_on_c, 0, 57, 0
2, 600005, Note_on_c, 0, 76, 0
2, 600011, Note_on_c, 0, 54, 96
2, 600018, Note_on_c, 0, 73, 98
2, 600019, Note_on_c, 0, 55, 0
2, 600033, Note_on_c, 0, 74, 0
2, 600042, Note_on_c, 0, 54, 0
2, 600046, Note_on_c, 0, 55, 56
2, 600051, Note_on_c, 0, 73, 0
2, 600063, Control_c, 0, 64, 63
2, 600067, Control_c, 0, 64, 0
2, 600074, Note_on_c, 0, 64, 0
2, 600082, Note_on_c, 0, 71, 101
2, 600086, Note_on_c, 0, 55, 0
2, 600088, Note_on_c, 0, 43, 94
2, 600145, Note_on_c, 0, 83, 86
2, 600161, Note_on_c, 0, 71, 0
2, 600181, Note_on_c, 0, 43, 0
2, 600220, Note_on_c, 0, 81, 86
2, 600225, Note_on_c, 0, 83, 0
2, 600228, Note_on_c, 0, 76, 60
2, 600291, Note_on_c, 0, 79, 80
2, 600309, Note_on_c, 0, 76, 0
2, 600324, Note_on_c, 0, 81, 0
2, 600347, Note_on_c, 0, 79, 0
2, 600387, Note_on_c, 0, 82, 86
2, 600408, Note_on_c, 0, 42, 65
2, 600433, Control_c, 0, 64, 63
2, 600434, Control_c, 0, 64, 127
2, 600467, Note_on_c, 0, 42, 0
2, 600479, Note_on_c, 0, 82, 0
2, 600479, Note_on_c, 0, 91, 80
2, 600564, Note_on_c, 0, 90, 85
2, 600568, Note_on_c, 0, 85, 67
2, 600579, Note_on_c, 0, 91, 0
2, 600620, Note_on_c, 0, 85, 0
2, 600639, Note_on_c, 0, 88, 77
2, 600664, Note_on_c, 0, 90, 0
2, 600690, Note_on_c, 0, 54, 79
2, 600709, Note_on_c, 0, 54, 0
2, 600711, Note_on_c, 0, 88, 0
2, 600711, Note_on_c, 0, 79, 71
2, 600736, Note_on_c, 0, 55, 37
2, 600752, Note_on_c, 0, 54, 78
2, 600758, Note_on_c, 0, 55, 0
2, 600769, Note_on_c, 0, 79, 0
2, 600779, Note_on_c, 0, 54, 0
2, 600779, Note_on_c, 0, 88, 84
2, 600786, Note_on_c, 0, 55, 57
2, 600809, Note_on_c, 0, 54, 51
2, 600824, Note_on_c, 0, 55, 0
2, 600825, Note_on_c, 0, 53, 73
2, 600828, Note_on_c, 0, 54, 0
2, 600841, Note_on_c, 0, 82, 81
2, 600844, Note_on_c, 0, 86, 85
2, 600864, Control_c, 0, 64, 63
2, 600869, Control_c, 0, 64, 0
2, 600870, Note_on_c, 0, 54, 88
2, 600872, Note_on_c, 0, 88, 0
2, 600872, Note_on_c, 0, 53, 0
2, 600881, Note_on_c, 0, 82, 0
2, 600907, Note_on_c, 0, 85, 86
2, 600920, Control_c, 0, 64, 63
2, 600928, Note_on_c, 0, 86, 0
2, 600930, Control_c, 0, 64, 127
2, 600936, Note_on_c, 0, 66, 88
2, 600944, Note_on_c, 0, 54, 0
2, 600958, Note_on_c, 0, 85, 0
2, 600964, Note_on_c, 0, 76, 84
2, 600968, Note_on_c, 0, 66, 0
2, 601010, Note_on_c, 0, 76, 0
2, 601025, Note_on_c, 0, 85, 76
2, 601068, Control_c, 0, 64, 63
2, 601070, Control_c, 0, 64, 0
2, 601091, Note_on_c, 0, 79, 58
2, 601093, Note_on_c, 0, 83, 71
2, 601123, Note_on_c, 0, 85, 0
2, 601131, Note_on_c, 0, 79, 0
2, 601157, Note_on_c, 0, 82, 88
2, 601166, Note_on_c, 0, 83, 0
2, 601204, Note_on_c, 0, 82, 0
2, 601217, Note_on_c, 0, 42, 88
2, 601219, Note_on_c, 0, 73, 88
2, 601226, Control_c, 0, 64, 63
2, 601229, Control_c, 0, 64, 127
2, 601243, Note_on_c, 0, 42, 0
2, 601259, Note_on_c, 0, 73, 0
2, 601274, Note_on_c, 0, 82, 75
2, 601337, Note_on_c, 0, 76, 71
2, 601339, Note_on_c, 0, 79, 85
2, 601349, Note_on_c, 0, 82, 0
2, 601372, Note_on_c, 0, 76, 0
2, 601401, Note_on_c, 0, 78, 81
2, 601421, Note_on_c, 0, 79, 0
2, 601430, Control_c, 0, 64, 63
2, 601436, Control_c, 0, 64, 0
2, 601451, Note_on_c, 0, 78, 0
2, 601457, Note_on_c, 0, 70, 94
2, 601458, Note_on_c, 0, 54, 94
2, 601487, Control_c, 0, 64, 63
2, 601489, Note_on_c, 0, 54, 0
2, 601490, Note_on_c, 0, 55, 54
2, 601497, Note_on_c, 0, 70, 0
2, 601497, Control_c, 0, 64, 127
2, 601521, Note_on_c, 0, 79, 72
2, 601525, Note_on_c, 0, 54, 83
2, 601537, Note_on_c, 0, 55, 0
2, 601560, Note_on_c, 0, 55, 68
2, 601563, Note_on_c, 0, 54, 0
2, 601577, Note_on_c, 0, 78, 84
2, 601579, Note_on_c, 0, 73, 84
2, 601593, Note_on_c, 0, 54, 70
2, 601594, Note_on_c, 0, 79, 0
2, 601596, Note_on_c, 0, 55, 0
2, 601609, Note_on_c, 0, 73, 0
2, 601621, Note_on_c, 0, 54, 0
2, 601629, Note_on_c, 0, 53, 41
2, 601642, Note_on_c, 0, 76, 74
2, 601646, Control_c, 0, 64, 63
2, 601650, Note_on_c, 0, 78, 0
2, 601656, Note_on_c, 0, 54, 75
2, 601659, Note_on_c, 0, 53, 0
2, 601660, Control_c, 0, 64, 0
2, 601691, Note_on_c, 0, 76, 0
2, 601693, Note_on_c, 0, 54, 0
2, 601693, Note_on_c, 0, 64, 71
2, 601706, Note_on_c, 0, 42, 74
2, 601740, Note_on_c, 0, 64, 0
2, 601756, Note_on_c, 0, 76, 76
2, 601793, Note_on_c, 0, 42, 0
2, 601819, Note_on_c, 0, 74, 74
2, 601824, Note_on_c, 0, 70, 76
2, 601830, Note_on_c, 0, 76, 0
2, 601859, Note_on_c, 0, 70, 0
2, 601891, Note_on_c, 0, 73, 63
2, 601913, Note_on_c, 0, 74, 0
2, 601971, Control_c, 0, 64, 63
2, 601973, Note_on_c, 0, 66, 75
2, 601973, Note_on_c, 0, 47, 63
2, 601977, Note_on_c, 0, 73, 0
2, 601980, Note_on_c, 0, 35, 68
2, 601983, Control_c, 0, 64, 127
2, 602003, Note_on_c, 0, 35, 0
2, 602006, Note_on_c, 0, 47, 0
2, 602025, Note_on_c, 0, 66, 0
2, 602048, Note_on_c, 0, 74, 67
2, 602115, Note_on_c, 0, 73, 67
2, 602118, Note_on_c, 0, 62, 47
2, 602124, Note_on_c, 0, 74, 0
2, 602172, Note_on_c, 0, 71, 56
2, 602172, Control_c, 0, 64, 63
2, 602178, Control_c, 0, 64, 0
2, 602181, Note_on_c, 0, 62, 0
2, 602190, Note_on_c, 0, 73, 0
2, 602238, Control_c, 0, 64, 63
2, 602241, Note_on_c, 0, 71, 0
2, 602242, Note_on_c, 0, 66, 76
2, 602249, Note_on_c, 0, 54, 85
2, 602250, Control_c, 0, 64, 127
2, 602282, Note_on_c, 0, 54, 0
2, 602284, Note_on_c, 0, 66, 0
2, 602288, Note_on_c, 0, 55, 59
2, 602308, Note_on_c, 0, 74, 79
2, 602322, Note_on_c, 0, 54, 86
2, 602332, Note_on_c, 0, 55, 0
2, 602357, Note_on_c, 0, 55, 69
2, 602358, Note_on_c, 0, 54, 0
2, 602360, Note_on_c, 0, 62, 76
2, 602370, Note_on_c, 0, 73, 83
2, 602384, Note_on_c, 0, 54, 84
2, 602387, Note_on_c, 0, 55, 0
2, 602391, Note_on_c, 0, 74, 0
2, 602416, Note_on_c, 0, 62, 0
2, 602416, Note_on_c, 0, 54, 0
2, 602423, Note_on_c, 0, 73, 0
2, 602423, Note_on_c, 0, 53, 68
2, 602424, Control_c, 0, 64, 63
2, 602426, Note_on_c, 0, 71, 81
2, 602435, Control_c, 0, 64, 0
2, 602454, Note_on_c, 0, 54, 94
2, 602459, Note_on_c, 0, 53, 0
2, 602481, Note_on_c, 0, 71, 0
2, 602484, Note_on_c, 0, 66, 87
2, 602485, Note_on_c, 0, 54, 0
2, 602495, Note_on_c, 0, 42, 88
2, 602531, Note_on_c, 0, 66, 0
2, 602540, Note_on_c, 0, 78, 91
2, 602573, Note_on_c, 0, 42, 0
2, 602604, Note_on_c, 0, 76, 81
2, 602611, Note_on_c, 0, 71, 78
2, 602634, Note_on_c, 0, 78, 0
2, 602652, Note_on_c, 0, 71, 0
2, 602664, Note_on_c, 0, 74, 82
2, 602689, Note_on_c, 0, 76, 0
2, 602723, Note_on_c, 0, 74, 0
2, 602727, Note_on_c, 0, 66, 92
2, 602731, Note_on_c, 0, 47, 86
2, 602732, Note_on_c, 0, 35, 88
2, 602755, Control_c, 0, 64, 63
2, 602759, Note_on_c, 0, 47, 0
2, 602759, Note_on_c, 0, 35, 0
2, 602759, Control_c, 0, 64, 127
2, 602779, Note_on_c, 0, 74, 74
2, 602806, Note_on_c, 0, 66, 0
2, 602836, Note_on_c, 0, 73, 79
2, 602853, Note_on_c, 0, 62, 82
2, 602854, Control_c, 0, 64, 63
2, 602858, Control_c, 0, 64, 0
2, 602861, Note_on_c, 0, 74, 0
2, 602899, Note_on_c, 0, 71, 76
2, 602901, Note_on_c, 0, 62, 0
2, 602926, Note_on_c, 0, 73, 0
2, 602957, Control_c, 0, 64, 63
2, 602958, Note_on_c, 0, 71, 0
2, 602960, Note_on_c, 0, 54, 87
2, 602961, Control_c, 0, 64, 127
2, 602970, Note_on_c, 0, 66, 97
2, 602998, Note_on_c, 0, 54, 0
2, 603005, Note_on_c, 0, 55, 58
2, 603026, Note_on_c, 0, 74, 89
2, 603027, Note_on_c, 0, 66, 0
2, 603039, Note_on_c, 0, 54, 85
2, 603051, Note_on_c, 0, 55, 0
2, 603073, Note_on_c, 0, 55, 73
2, 603076, Note_on_c, 0, 54, 0
2, 603084, Note_on_c, 0, 73, 86
2, 603095, Note_on_c, 0, 62, 84
2, 603101, Note_on_c, 0, 54, 74
2, 603104, Note_on_c, 0, 55, 0
2, 603114, Note_on_c, 0, 74, 0
2, 603122, Control_c, 0, 64, 63
2, 603126, Control_c, 0, 64, 0
2, 603132, Note_on_c, 0, 54, 0
2, 603136, Note_on_c, 0, 53, 65
2, 603143, Note_on_c, 0, 71, 87
2, 603148, Note_on_c, 0, 73, 0
2, 603152, Note_on_c, 0, 62, 0
2, 603165, Note_on_c, 0, 54, 85
2, 603171, Note_on_c, 0, 53, 0
2, 603200, Note_on_c, 0, 54, 0
2, 603204, Note_on_c, 0, 66, 95
2, 603209, Note_on_c, 0, 71, 0
2, 603212, Note_on_c, 0, 42, 96
2, 603269, Note_on_c, 0, 78, 94
2, 603279, Note_on_c, 0, 66, 0
2, 603287, Note_on_c, 0, 42, 0
2, 603328, Note_on_c, 0, 71, 80
2, 603329, Note_on_c, 0, 76, 86
2, 603354, Note_on_c, 0, 71, 0
2, 603357, Note_on_c, 0, 78, 0
2, 603393, Note_on_c, 0, 74, 88
2, 603417, Note_on_c, 0, 76, 0
2, 603429, Note_on_c, 0, 74, 0
2, 603478, Note_on_c, 0, 37, 87
2, 603481, Note_on_c, 0, 79, 93
2, 603497, Note_on_c, 0, 37, 0
2, 603498, Control_c, 0, 64, 63
2, 603500, Control_c, 0, 64, 127
2, 603564, Note_on_c, 0, 91, 84
2, 603568, Note_on_c, 0, 79, 0
2, 603643, Note_on_c, 0, 83, 75
2, 603651, Note_on_c, 0, 90, 93
2, 603671, Note_on_c, 0, 91, 0
2, 603682, Note_on_c, 0, 83, 0
2, 603715, Note_on_c, 0, 88, 90
2, 603749, Note_on_c, 0, 90, 0
2, 603758, Control_c, 0, 64, 63
2, 603763, Control_c, 0, 64, 0
2, 603768, Note_on_c, 0, 49, 83
2, 603772, Note_on_c, 0, 88, 0
2, 603780, Note_on_c, 0, 76, 94
2, 603791, Note_on_c, 0, 49, 0
2, 603807, Note_on_c, 0, 50, 71
2, 603809, Control_c, 0, 64, 63
2, 603817, Control_c, 0, 64, 127
2, 603826, Note_on_c, 0, 76, 0
2, 603834, Note_on_c, 0, 49, 82
2, 603840, Note_on_c, 0, 50, 0
2, 603844, Note_on_c, 0, 88, 91
2, 603861, Note_on_c, 0, 49, 0
2, 603867, Note_on_c, 0, 50, 74
2, 603886, Note_on_c, 0, 49, 72
2, 603896, Note_on_c, 0, 79, 79
2, 603900, Note_on_c, 0, 50, 0
2, 603906, Note_on_c, 0, 86, 92
2, 603906, Control_c, 0, 64, 63
2, 603910, Control_c, 0, 64, 0
2, 603923, Note_on_c, 0, 49, 0
2, 603923, Note_on_c, 0, 48, 74
2, 603934, Note_on_c, 0, 79, 0
2, 603942, Note_on_c, 0, 88, 0
2, 603966, Note_on_c, 0, 85, 91
2, 603966, Note_on_c, 0, 49, 91
2, 603971, Note_on_c, 0, 48, 0
2, 603980, Control_c, 0, 64, 63
2, 603986, Control_c, 0, 64, 127
2, 603989, Note_on_c, 0, 86, 0
2, 604011, Note_on_c, 0, 49, 0
2, 604022, Note_on_c, 0, 73, 94
2, 604024, Note_on_c, 0, 85, 0
2, 604026, Note_on_c, 0, 61, 76
2, 604054, Note_on_c, 0, 61, 0
2, 604076, Note_on_c, 0, 73, 0
2, 604080, Control_c, 0, 64, 63
2, 604081, Note_on_c, 0, 85, 82
2, 604084, Control_c, 0, 64, 0
2, 604142, Note_on_c, 0, 83, 77
2, 604151, Note_on_c, 0, 76, 76
2, 604181, Note_on_c, 0, 85, 0
2, 604191, Note_on_c, 0, 76, 0
2, 604209, Note_on_c, 0, 82, 88
2, 604221, Note_on_c, 0, 83, 0
2, 604254, Note_on_c, 0, 82, 0
2, 604260, Note_on_c, 0, 42, 77
2, 604267, Note_on_c, 0, 70, 98
2, 604268, Control_c, 0, 64, 63
2, 604270, Control_c, 0, 64, 127
2, 604289, Note_on_c, 0, 42, 0
2, 604310, Note_on_c, 0, 70, 0
2, 604326, Note_on_c, 0, 82, 76
2, 604393, Note_on_c, 0, 79, 88
2, 604394, Note_on_c, 0, 73, 89
2, 604414, Note_on_c, 0, 82, 0
2, 604430, Note_on_c, 0, 73, 0
2, 604458, Note_on_c, 0, 78, 84
2, 604467, Control_c, 0, 64, 63
2, 604472, Control_c, 0, 64, 0
2, 604479, Note_on_c, 0, 79, 0
2, 604500, Note_on_c, 0, 54, 85
2, 604514, Note_on_c, 0, 66, 85
2, 604515, Note_on_c, 0, 78, 0
2, 604528, Control_c, 0, 64, 63
2, 604537, Control_c, 0, 64, 127
2, 604545, Note_on_c, 0, 54, 0
2, 604551, Note_on_c, 0, 55, 55
2, 604553, Note_on_c, 0, 66, 0
2, 604579, Note_on_c, 0, 79, 71
2, 604584, Note_on_c, 0, 54, 84
2, 604596, Note_on_c, 0, 55, 0
2, 604616, Note_on_c, 0, 55, 76
2, 604618, Note_on_c, 0, 54, 0
2, 604638, Note_on_c, 0, 78, 79
2, 604644, Note_on_c, 0, 70, 74
2, 604647, Note_on_c, 0, 54, 75
2, 604652, Note_on_c, 0, 55, 0
2, 604659, Note_on_c, 0, 79, 0
2, 604661, Control_c, 0, 64, 63
2, 604668, Control_c, 0, 64, 0
2, 604675, Note_on_c, 0, 54, 0
2, 604679, Note_on_c, 0, 70, 0
2, 604679, Note_on_c, 0, 53, 56
2, 604701, Note_on_c, 0, 76, 75
2, 604707, Note_on_c, 0, 54, 70
2, 604712, Note_on_c, 0, 53, 0
2, 604714, Note_on_c, 0, 78, 0
2, 604742, Note_on_c, 0, 54, 0
2, 604749, Note_on_c, 0, 76, 0
2, 604757, Note_on_c, 0, 46, 73
2, 604759, Note_on_c, 0, 64, 65
2, 604820, Note_on_c, 0, 76, 77
2, 604826, Note_on_c, 0, 64, 0
2, 604850, Note_on_c, 0, 46, 0
2, 604883, Note_on_c, 0, 74, 75
2, 604889, Note_on_c, 0, 66, 72
2, 604896, Note_on_c, 0, 76, 0
2, 604937, Note_on_c, 0, 66, 0
2, 604947, Note_on_c, 0, 73, 65
2, 604968, Note_on_c, 0, 74, 0
2, 605014, Note_on_c, 0, 66, 72
2, 605018, Note_on_c, 0, 73, 0
2, 605019, Note_on_c, 0, 47, 62
2, 605028, Note_on_c, 0, 35, 57
2, 605055, Control_c, 0, 64, 63
2, 605060, Control_c, 0, 64, 127
2, 605083, Note_on_c, 0, 66, 0
2, 605090, Note_on_c, 0, 74, 68
2, 605147, Note_on_c, 0, 47, 0
2, 605151, Note_on_c, 0, 35, 0
2, 605153, Note_on_c, 0, 73, 69
2, 605164, Control_c, 0, 64, 63
2, 605166, Note_on_c, 0, 62, 68
2, 605166, Control_c, 0, 64, 0
2, 605169, Note_on_c, 0, 74, 0
2, 605214, Note_on_c, 0, 62, 0
2, 605221, Note_on_c, 0, 71, 67
2, 605243, Note_on_c, 0, 73, 0
2, 605251, Control_c, 0, 64, 63
2, 605255, Control_c, 0, 64, 127
2, 605277, Note_on_c, 0, 54, 88
2, 605282, Note_on_c, 0, 71, 0
2, 605283, Note_on_c, 0, 66, 80
2, 605315, Note_on_c, 0, 54, 0
2, 605324, Note_on_c, 0, 55, 47
2, 605339, Note_on_c, 0, 66, 0
2, 605345, Note_on_c, 0, 74, 84
2, 605352, Note_on_c, 0, 54, 73
2, 605368, Note_on_c, 0, 55, 0
2, 605382, Note_on_c, 0, 54, 0
2, 605382, Note_on_c, 0, 55, 56
2, 605401, Note_on_c, 0, 73, 83
2, 605406, Note_on_c, 0, 62, 80
2, 605412, Note_on_c, 0, 54, 78
2, 605419, Note_on_c, 0, 55, 0
2, 605430, Note_on_c, 0, 74, 0
2, 605445, Note_on_c, 0, 54, 0
2, 605449, Note_on_c, 0, 53, 59
2, 605459, Note_on_c, 0, 73, 0
2, 605460, Note_on_c, 0, 62, 0
2, 605462, Note_on_c, 0, 71, 82
2, 605474, Note_on_c, 0, 54, 74
2, 605487, Note_on_c, 0, 53, 0
2, 605496, Control_c, 0, 64, 63
2, 605500, Control_c, 0, 64, 0
2, 605510, Note_on_c, 0, 54, 0
2, 605511, Note_on_c, 0, 71, 0
2, 605514, Note_on_c, 0, 66, 93
2, 605515, Note_on_c, 0, 42, 93
2, 605558, Note_on_c, 0, 66, 0
2, 605573, Note_on_c, 0, 78, 96
2, 605603, Note_on_c, 0, 42, 0
2, 605631, Note_on_c, 0, 76, 87
2, 605638, Note_on_c, 0, 71, 82
2, 605672, Note_on_c, 0, 78, 0
2, 605676, Note_on_c, 0, 71, 0
2, 605696, Note_on_c, 0, 74, 85
2, 605730, Note_on_c, 0, 76, 0
2, 605757, Note_on_c, 0, 66, 98
2, 605760, Note_on_c, 0, 74, 0
2, 605761, Note_on_c, 0, 47, 87
2, 605768, Note_on_c, 0, 35, 81
2, 605787, Control_c, 0, 64, 63
2, 605790, Control_c, 0, 64, 127
2, 605811, Note_on_c, 0, 74, 88
2, 605815, Note_on_c, 0, 66, 0
2, 605832, Note_on_c, 0, 47, 0
2, 605835, Note_on_c, 0, 35, 0
2, 605869, Note_on_c, 0, 73, 88
2, 605884, Note_on_c, 0, 62, 82
2, 605893, Control_c, 0, 64, 63
2, 605895, Control_c, 0, 64, 0
2, 605901, Note_on_c, 0, 74, 0
2, 605931, Note_on_c, 0, 71, 87
2, 605934, Note_on_c, 0, 62, 0
2, 605971, Note_on_c, 0, 73, 0
2, 605986, Note_on_c, 0, 54, 100
2, 605993, Note_on_c, 0, 71, 0
2, 605995, Note_on_c, 0, 66, 106
2, 606005, Control_c, 0, 64, 63
2, 606008, Control_c, 0, 64, 127
2, 606022, Note_on_c, 0, 54, 0
2, 606024, Note_on_c, 0, 55, 59
2, 606042, Note_on_c, 0, 66, 0
2, 606058, Note_on_c, 0, 74, 99
2, 606058, Note_on_c, 0, 54, 85
2, 606072, Note_on_c, 0, 55, 0
2, 606093, Note_on_c, 0, 55, 71
2, 606094, Note_on_c, 0, 54, 0
2, 606116, Note_on_c, 0, 73, 95
2, 606120, Note_on_c, 0, 62, 90
2, 606121, Note_on_c, 0, 54, 83
2, 606126, Note_on_c, 0, 55, 0
2, 606149, Note_on_c, 0, 74, 0
2, 606153, Note_on_c, 0, 54, 0
2, 606156, Note_on_c, 0, 53, 74
2, 606172, Note_on_c, 0, 71, 96
2, 606174, Note_on_c, 0, 73, 0
2, 606183, Note_on_c, 0, 62, 0
2, 606184, Note_on_c, 0, 54, 91
2, 606192, Note_on_c, 0, 53, 0
2, 606218, Note_on_c, 0, 54, 0
2, 606224, Note_on_c, 0, 66, 107
2, 606232, Note_on_c, 0, 71, 0
2, 606237, Control_c, 0, 64, 63
2, 606240, Control_c, 0, 64, 0
2, 606241, Note_on_c, 0, 42, 110
2, 606282, Note_on_c, 0, 66, 0
2, 606285, Note_on_c, 0, 78, 103
2, 606327, Note_on_c, 0, 42, 0
2, 606344, Note_on_c, 0, 71, 96
2, 606350, Note_on_c, 0, 76, 97
2, 606374, Note_on_c, 0, 71, 0
2, 606381, Note_on_c, 0, 78, 0
2, 606406, Note_on_c, 0, 74, 102
2, 606431, Note_on_c, 0, 76, 0
2, 606443, Note_on_c, 0, 74, 0
2, 606488, Note_on_c, 0, 78, 112
2, 606510, Note_on_c, 0, 45, 111
2, 606512, Note_on_c, 0, 33, 112
2, 606544, Control_c, 0, 64, 63
2, 606545, Control_c, 0, 64, 127
2, 606580, Note_on_c, 0, 78, 0
2, 606585, Note_on_c, 0, 93, 111
2, 606631, Note_on_c, 0, 33, 0
2, 606657, Note_on_c, 0, 45, 0
2, 606669, Note_on_c, 0, 84, 94
2, 606674, Note_on_c, 0, 91, 100
2, 606699, Note_on_c, 0, 93, 0
2, 606717, Note_on_c, 0, 84, 0
2, 606741, Note_on_c, 0, 90, 106
2, 606770, Note_on_c, 0, 91, 0
2, 606799, Note_on_c, 0, 81, 106
2, 606808, Note_on_c, 0, 57, 93
2, 606812, Note_on_c, 0, 90, 0
2, 606838, Note_on_c, 0, 57, 0
2, 606838, Note_on_c, 0, 59, 78
2, 606858, Note_on_c, 0, 90, 104
2, 606859, Note_on_c, 0, 81, 0
2, 606872, Note_on_c, 0, 57, 57
2, 606879, Note_on_c, 0, 59, 0
2, 606908, Note_on_c, 0, 57, 0
2, 606909, Note_on_c, 0, 59, 88
2, 606919, Note_on_c, 0, 84, 98
2, 606921, Note_on_c, 0, 88, 91
2, 606927, Note_on_c, 0, 57, 77
2, 606942, Note_on_c, 0, 59, 0
2, 606954, Note_on_c, 0, 90, 0
2, 606960, Note_on_c, 0, 84, 0
2, 606960, Note_on_c, 0, 56, 108
2, 606969, Note_on_c, 0, 57, 0
2, 606979, Note_on_c, 0, 87, 108
2, 606998, Note_on_c, 0, 57, 104
2, 607001, Note_on_c, 0, 56, 0
2, 607001, Note_on_c, 0, 88, 0
2, 607034, Note_on_c, 0, 87, 0
2, 607037, Note_on_c, 0, 78, 109
2, 607043, Note_on_c, 0, 69, 106
2, 607052, Control_c, 0, 64, 63
2, 607055, Control_c, 0, 64, 0
2, 607067, Control_c, 0, 64, 63
2, 607078, Control_c, 0, 64, 127
2, 607082, Note_on_c, 0, 57, 0
2, 607096, Note_on_c, 0, 87, 101
2, 607099, Note_on_c, 0, 78, 0
2, 607121, Note_on_c, 0, 69, 0
2, 607159, Note_on_c, 0, 86, 98
2, 607160, Control_c, 0, 64, 63
2, 607162, Control_c, 0, 64, 0
2, 607163, Note_on_c, 0, 81, 92
2, 607193, Note_on_c, 0, 87, 0
2, 607203, Note_on_c, 0, 81, 0
2, 607221, Note_on_c, 0, 84, 100
2, 607247, Note_on_c, 0, 86, 0
2, 607273, Note_on_c, 0, 84, 0
2, 607279, Note_on_c, 0, 75, 115
2, 607290, Note_on_c, 0, 47, 108
2, 607293, Control_c, 0, 64, 63
2, 607294, Note_on_c, 0, 35, 106
2, 607295, Control_c, 0, 64, 127
2, 607334, Note_on_c, 0, 84, 106
2, 607350, Note_on_c, 0, 75, 0
2, 607383, Note_on_c, 0, 47, 0
2, 607386, Note_on_c, 0, 35, 0
2, 607401, Note_on_c, 0, 83, 101
2, 607404, Note_on_c, 0, 78, 101
2, 607436, Note_on_c, 0, 78, 0
2, 607436, Note_on_c, 0, 84, 0
2, 607457, Note_on_c, 0, 81, 102
2, 607511, Note_on_c, 0, 69, 94
2, 607512, Note_on_c, 0, 83, 0
2, 607521, Note_on_c, 0, 71, 57
2, 607524, Note_on_c, 0, 59, 106
2, 607530, Note_on_c, 0, 81, 0
2, 607545, Note_on_c, 0, 71, 0
2, 607555, Note_on_c, 0, 60, 81
2, 607557, Note_on_c, 0, 59, 0
2, 607572, Note_on_c, 0, 81, 107
2, 607581, Note_on_c, 0, 59, 75
2, 607590, Note_on_c, 0, 60, 0
2, 607614, Note_on_c, 0, 60, 78
2, 607620, Note_on_c, 0, 59, 0
2, 607634, Note_on_c, 0, 75, 99
2, 607634, Note_on_c, 0, 79, 99
2, 607637, Note_on_c, 0, 69, 0
2, 607644, Note_on_c, 0, 58, 103
2, 607650, Note_on_c, 0, 60, 0
2, 607667, Control_c, 0, 64, 63
2, 607668, Control_c, 0, 64, 0
2, 607670, Note_on_c, 0, 81, 0
2, 607673, Note_on_c, 0, 75, 0
2, 607682, Note_on_c, 0, 58, 0
2, 607684, Note_on_c, 0, 59, 68
2, 607691, Note_on_c, 0, 78, 104
2, 607721, Note_on_c, 0, 79, 0
2, 607736, Note_on_c, 0, 47, 118
2, 607743, Note_on_c, 0, 59, 0
2, 607751, Note_on_c, 0, 78, 0
2, 607754, Note_on_c, 0, 69, 99
2, 607757, Control_c, 0, 64, 63
2, 607759, Control_c, 0, 64, 127
2, 607792, Note_on_c, 0, 47, 0
2, 607811, Note_on_c, 0, 78, 103
2, 607819, Note_on_c, 0, 69, 0
2, 607822, Control_c, 0, 64, 63
2, 607824, Control_c, 0, 64, 0
2, 607876, Note_on_c, 0, 71, 107
2, 607883, Note_on_c, 0, 76, 103
2, 607906, Note_on_c, 0, 71, 0
2, 607924, Note_on_c, 0, 78, 0
2, 607936, Note_on_c, 0, 75, 106
2, 607957, Note_on_c, 0, 76, 0
2, 607983, Note_on_c, 0, 75, 0
2, 608008, Note_on_c, 0, 67, 99
2, 608008, Note_on_c, 0, 59, 89
2, 608009, Note_on_c, 0, 64, 92
2, 608012, Note_on_c, 0, 52, 52
2, 608014, Control_c, 0, 64, 63
2, 608023, Control_c, 0, 64, 127
2, 608026, Note_on_c, 0, 64, 0
2, 608031, Note_on_c, 0, 52, 0
2, 608033, Note_on_c, 0, 59, 0
2, 608042, Note_on_c, 0, 67, 0
2, 608076, Note_on_c, 0, 79, 96
2, 608122, Note_on_c, 0, 79, 0
2, 608143, Note_on_c, 0, 78, 106
2, 608143, Note_on_c, 0, 71, 99
2, 608154, Control_c, 0, 64, 63
2, 608162, Control_c, 0, 64, 0
2, 608196, Note_on_c, 0, 76, 101
2, 608206, Note_on_c, 0, 71, 0
2, 608220, Note_on_c, 0, 78, 0
2, 608241, Note_on_c, 0, 76, 0
2, 608260, Control_c, 0, 64, 63
2, 608260, Note_on_c, 0, 70, 115
2, 608262, Note_on_c, 0, 64, 103
2, 608263, Control_c, 0, 64, 127
2, 608265, Note_on_c, 0, 61, 103
2, 608265, Note_on_c, 0, 54, 108
2, 608288, Note_on_c, 0, 64, 0
2, 608289, Note_on_c, 0, 61, 0
2, 608300, Note_on_c, 0, 54, 0
2, 608329, Note_on_c, 0, 78, 95
2, 608337, Note_on_c, 0, 70, 0
2, 608390, Note_on_c, 0, 76, 94
2, 608396, Note_on_c, 0, 78, 0
2, 608435, Note_on_c, 0, 76, 0
2, 608444, Note_on_c, 0, 85, 107
2, 608468, Note_on_c, 0, 85, 0
2, 608506, Note_on_c, 0, 82, 113
2, 608576, Note_on_c, 0, 90, 106
2, 608577, Note_on_c, 0, 82, 0
2, 608636, Note_on_c, 0, 88, 96
2, 608650, Note_on_c, 0, 90, 0
2, 608691, Note_on_c, 0, 97, 110
2, 608694, Note_on_c, 0, 88, 0
2, 608729, Note_on_c, 0, 97, 0
2, 608752, Control_c, 0, 64, 63
2, 608754, Note_on_c, 0, 69, 107
2, 608754, Note_on_c, 0, 60, 103
2, 608755, Note_on_c, 0, 96, 109
2, 608755, Note_on_c, 0, 64, 101
2, 608780, Control_c, 0, 64, 127
2, 608828, Note_on_c, 0, 93, 90
2, 608833, Note_on_c, 0, 96, 0
2, 608893, Note_on_c, 0, 90, 104
2, 608905, Note_on_c, 0, 93, 0
2, 608948, Note_on_c, 0, 88, 98
2, 608960, Note_on_c, 0, 90, 0
2, 608996, Note_on_c, 0, 88, 0
2, 609004, Note_on_c, 0, 84, 93
2, 609032, Note_on_c, 0, 84, 0
2, 609065, Note_on_c, 0, 81, 94
2, 609119, Note_on_c, 0, 81, 0
2, 609121, Note_on_c, 0, 60, 0
2, 609125, Note_on_c, 0, 78, 101
2, 609171, Note_on_c, 0, 78, 0
2, 609172, Note_on_c, 0, 76, 92
2, 609181, Note_on_c, 0, 69, 0
2, 609229, Note_on_c, 0, 76, 0
2, 609240, Note_on_c, 0, 75, 108
2, 609241, Note_on_c, 0, 69, 78
2, 609242, Note_on_c, 0, 66, 90
2, 609245, Control_c, 0, 64, 63
2, 609247, Note_on_c, 0, 59, 66
2, 609252, Note_on_c, 0, 64, 0
2, 609280, Control_c, 0, 64, 127
2, 609293, Note_on_c, 0, 78, 101
2, 609308, Note_on_c, 0, 69, 0
2, 609310, Note_on_c, 0, 75, 0
2, 609328, Note_on_c, 0, 66, 0
2, 609338, Note_on_c, 0, 59, 0
2, 609343, Note_on_c, 0, 78, 0
2, 609350, Note_on_c, 0, 83, 99
2, 609391, Note_on_c, 0, 83, 0
2, 609409, Note_on_c, 0, 71, 96
2, 609426, Control_c, 0, 64, 63
2, 609435, Note_on_c, 0, 71, 0
2, 609437, Control_c, 0, 64, 0
2, 609481, Note_on_c, 0, 64, 100
2, 609483, Note_on_c, 0, 59, 90
2, 609483, Note_on_c, 0, 52, 91
2, 609489, Note_on_c, 0, 67, 88
2, 609519, Note_on_c, 0, 67, 0
2, 609520, Control_c, 0, 64, 63
2, 609526, Control_c, 0, 64, 127
2, 609545, Note_on_c, 0, 79, 101
2, 609580, Note_on_c, 0, 52, 0
2, 609591, Note_on_c, 0, 64, 0
2, 609598, Note_on_c, 0, 59, 0
2, 609610, Note_on_c, 0, 78, 105
2, 609615, Note_on_c, 0, 71, 99
2, 609616, Note_on_c, 0, 79, 0
2, 609630, Control_c, 0, 64, 63
2, 609635, Control_c, 0, 64, 0
2, 609666, Note_on_c, 0, 76, 97
2, 609678, Note_on_c, 0, 71, 0
2, 609706, Note_on_c, 0, 78, 0
2, 609718, Note_on_c, 0, 76, 0
2, 609732, Note_on_c, 0, 70, 115
2, 609734, Note_on_c, 0, 64, 107
2, 609735, Note_on_c, 0, 61, 110
2, 609735, Note_on_c, 0, 54, 113
2, 609750, Control_c, 0, 64, 63
2, 609752, Control_c, 0, 64, 127
2, 609820, Note_on_c, 0, 78, 91
2, 609838, Note_on_c, 0, 70, 0
2, 609881, Note_on_c, 0, 76, 90
2, 609886, Note_on_c, 0, 78, 0
2, 609913, Note_on_c, 0, 76, 0
2, 609927, Note_on_c, 0, 85, 96
2, 609949, Note_on_c, 0, 85, 0
2, 609986, Note_on_c, 0, 82, 114
2, 610003, Note_on_c, 0, 54, 0
2, 610026, Note_on_c, 0, 61, 0
2, 610027, Note_on_c, 0, 82, 0
2, 610033, Note_on_c, 0, 64, 0
2, 610049, Note_on_c, 0, 90, 105
2, 610112, Note_on_c, 0, 88, 92
2, 610119, Note_on_c, 0, 90, 0
2, 610163, Note_on_c, 0, 88, 0
2, 610163, Note_on_c, 0, 97, 103
2, 610200, Note_on_c, 0, 97, 0
2, 610229, Note_on_c, 0, 69, 114
2, 610229, Note_on_c, 0, 64, 107
2, 610230, Note_on_c, 0, 60, 106
2, 610230, Note_on_c, 0, 96, 108
2, 610255, Control_c, 0, 64, 63
2, 610297, Control_c, 0, 64, 127
2, 610301, Note_on_c, 0, 93, 92
2, 610304, Note_on_c, 0, 96, 0
2, 610362, Note_on_c, 0, 90, 109
2, 610368, Note_on_c, 0, 93, 0
2, 610417, Note_on_c, 0, 88, 96
2, 610430, Note_on_c, 0, 90, 0
2, 610468, Note_on_c, 0, 88, 0
2, 610474, Note_on_c, 0, 84, 92
2, 610503, Note_on_c, 0, 84, 0
2, 610537, Note_on_c, 0, 81, 92
2, 610561, Note_on_c, 0, 60, 0
2, 610591, Note_on_c, 0, 81, 0
2, 610592, Note_on_c, 0, 78, 100
2, 610645, Note_on_c, 0, 78, 0
2, 610647, Note_on_c, 0, 76, 94
2, 610652, Note_on_c, 0, 69, 0
2, 610707, Control_c, 0, 64, 63
2, 610714, Note_on_c, 0, 66, 100
2, 610715, Note_on_c, 0, 69, 94
2, 610716, Note_on_c, 0, 75, 109
2, 610718, Note_on_c, 0, 59, 75
2, 610729, Note_on_c, 0, 64, 0
2, 610731, Note_on_c, 0, 76, 0
2, 610739, Control_c, 0, 64, 127
2, 610768, Note_on_c, 0, 78, 103
2, 610775, Note_on_c, 0, 75, 0
2, 610795, Note_on_c, 0, 78, 0
2, 610805, Note_on_c, 0, 59, 0
2, 610836, Note_on_c, 0, 83, 101
2, 610837, Note_on_c, 0, 69, 0
2, 610840, Note_on_c, 0, 66, 0
2, 610867, Note_on_c, 0, 83, 0
2, 610894, Note_on_c, 0, 95, 108
2, 610934, Control_c, 0, 64, 63
2, 610938, Control_c, 0, 64, 0
2, 610940, Note_on_c, 0, 95, 0
2, 610981, Note_on_c, 0, 71, 109
2, 610984, Note_on_c, 0, 66, 103
2, 610984, Note_on_c, 0, 62, 100
2, 610985, Note_on_c, 0, 92, 115
2, 610996, Control_c, 0, 64, 63
2, 611002, Control_c, 0, 64, 127
2, 611062, Note_on_c, 0, 95, 98
2, 611085, Note_on_c, 0, 92, 0
2, 611128, Note_on_c, 0, 92, 104
2, 611141, Note_on_c, 0, 95, 0
2, 611179, Note_on_c, 0, 90, 104
2, 611201, Note_on_c, 0, 92, 0
2, 611236, Note_on_c, 0, 90, 0
2, 611238, Note_on_c, 0, 86, 91
2, 611269, Note_on_c, 0, 86, 0
2, 611298, Note_on_c, 0, 83, 85
2, 611309, Note_on_c, 0, 62, 0
2, 611350, Note_on_c, 0, 71, 0
2, 611350, Note_on_c, 0, 83, 0
2, 611359, Note_on_c, 0, 80, 103
2, 611407, Note_on_c, 0, 80, 0
2, 611410, Note_on_c, 0, 78, 107
2, 611448, Control_c, 0, 64, 63
2, 611456, Note_on_c, 0, 78, 0
2, 611465, Note_on_c, 0, 68, 100
2, 611466, Note_on_c, 0, 77, 93
2, 611466, Note_on_c, 0, 71, 98
2, 611468, Note_on_c, 0, 61, 96
2, 611476, Control_c, 0, 64, 127
2, 611492, Note_on_c, 0, 66, 0
2, 611519, Note_on_c, 0, 77, 0
2, 611520, Note_on_c, 0, 80, 104
2, 611571, Note_on_c, 0, 80, 0
2, 611587, Note_on_c, 0, 85, 100
2, 611612, Note_on_c, 0, 85, 0
2, 611612, Note_on_c, 0, 61, 0
2, 611618, Note_on_c, 0, 71, 0
2, 611623, Note_on_c, 0, 68, 0
2, 611648, Note_on_c, 0, 97, 108
2, 611682, Note_on_c, 0, 97, 0
2, 611734, Note_on_c, 0, 71, 113
2, 611737, Note_on_c, 0, 66, 107
2, 611737, Note_on_c, 0, 62, 106
2, 611741, Note_on_c, 0, 92, 114
2, 611757, Control_c, 0, 64, 63
2, 611794, Control_c, 0, 64, 127
2, 611814, Note_on_c, 0, 95, 98
2, 611828, Note_on_c, 0, 92, 0
2, 611875, Note_on_c, 0, 92, 105
2, 611886, Note_on_c, 0, 95, 0
2, 611929, Note_on_c, 0, 90, 103
2, 611947, Note_on_c, 0, 92, 0
2, 611983, Note_on_c, 0, 90, 0
2, 611989, Note_on_c, 0, 86, 87
2, 612017, Note_on_c, 0, 86, 0
2, 612056, Note_on_c, 0, 83, 84
2, 612103, Note_on_c, 0, 83, 0
2, 612118, Note_on_c, 0, 80, 98
2, 612131, Note_on_c, 0, 62, 0
2, 612139, Note_on_c, 0, 71, 0
2, 612166, Note_on_c, 0, 80, 0
2, 612167, Note_on_c, 0, 78, 108
2, 612215, Note_on_c, 0, 78, 0
2, 612221, Note_on_c, 0, 77, 94
2, 612228, Control_c, 0, 64, 63
2, 612229, Note_on_c, 0, 68, 105
2, 612230, Note_on_c, 0, 61, 103
2, 612230, Note_on_c, 0, 71, 103
2, 612253, Note_on_c, 0, 66, 0
2, 612255, Control_c, 0, 64, 127
2, 612284, Note_on_c, 0, 77, 0
2, 612286, Note_on_c, 0, 80, 95
2, 612344, Note_on_c, 0, 80, 0
2, 612364, Note_on_c, 0, 85, 84
2, 612373, Note_on_c, 0, 61, 0
2, 612380, Note_on_c, 0, 85, 0
2, 612390, Note_on_c, 0, 71, 0
2, 612395, Note_on_c, 0, 68, 0
2, 612431, Control_c, 0, 64, 63
2, 612437, Control_c, 0, 64, 0
2, 612443, Control_c, 0, 64, 63
2, 612446, Note_on_c, 0, 97, 106
2, 612455, Control_c, 0, 64, 127
2, 612462, Note_on_c, 0, 61, 100
2, 612505, Note_on_c, 0, 67, 92
2, 612524, Note_on_c, 0, 61, 0
2, 612539, Note_on_c, 0, 70, 91
2, 612547, Note_on_c, 0, 97, 0
2, 612577, Note_on_c, 0, 76, 116
2, 612578, Note_on_c, 0, 100, 111
2, 612699, Note_on_c, 0, 100, 0
2, 612716, Note_on_c, 0, 97, 100
2, 612785, Note_on_c, 0, 94, 105
2, 612790, Note_on_c, 0, 97, 0
2, 612839, Note_on_c, 0, 91, 99
2, 612842, Note_on_c, 0, 94, 0
2, 612895, Note_on_c, 0, 91, 0
2, 612903, Note_on_c, 0, 88, 102
2, 612945, Note_on_c, 0, 88, 0
2, 612959, Note_on_c, 0, 76, 0
2, 612968, Note_on_c, 0, 85, 104
2, 612988, Note_on_c, 0, 70, 0
2, 613002, Note_on_c, 0, 67, 0
2, 613026, Note_on_c, 0, 82, 106
2, 613035, Note_on_c, 0, 85, 0
2, 613064, Note_on_c, 0, 82, 0
2, 613070, Note_on_c, 0, 79, 100
2, 613100, Note_on_c, 0, 79, 0
2, 613142, Note_on_c, 0, 73, 121
2, 613210, Note_on_c, 0, 79, 81
2, 613213, Note_on_c, 0, 73, 0
2, 613265, Note_on_c, 0, 85, 91
2, 613291, Note_on_c, 0, 79, 0
2, 613309, Note_on_c, 0, 85, 0
2, 613317, Note_on_c, 0, 76, 78
2, 613376, Note_on_c, 0, 76, 0
2, 613382, Note_on_c, 0, 70, 118
2, 613445, Note_on_c, 0, 70, 0
2, 613445, Note_on_c, 0, 76, 71
2, 613505, Note_on_c, 0, 82, 81
2, 613529, Note_on_c, 0, 76, 0
2, 613558, Note_on_c, 0, 82, 0
2, 613559, Note_on_c, 0, 73, 70
2, 613611, Note_on_c, 0, 73, 0
2, 613623, Note_on_c, 0, 67, 103
2, 613686, Note_on_c, 0, 73, 99
2, 613699, Note_on_c, 0, 67, 0
2, 613733, Note_on_c, 0, 73, 0
2, 613739, Note_on_c, 0, 79, 80
2, 613769, Note_on_c, 0, 79, 0
2, 613788, Note_on_c, 0, 70, 107
2, 613824, Note_on_c, 0, 70, 0
2, 613826, Control_c, 0, 64, 63
2, 613832, Control_c, 0, 64, 0
2, 613850, Note_on_c, 0, 66, 118
2, 613852, Note_on_c, 0, 60, 118
2, 613855, Note_on_c, 0, 48, 109
2, 613880, Control_c, 0, 64, 63
2, 613883, Control_c, 0, 64, 127
2, 613924, Note_on_c, 0, 75, 89
2, 613949, Note_on_c, 0, 66, 0
2, 613969, Note_on_c, 0, 48, 0
2, 613973, Note_on_c, 0, 60, 0
2, 613977, Note_on_c, 0, 78, 87
2, 614003, Note_on_c, 0, 75, 0
2, 614026, Note_on_c, 0, 78, 0
2, 614030, Note_on_c, 0, 69, 64
2, 614081, Note_on_c, 0, 69, 0
2, 614091, Note_on_c, 0, 59, 118
2, 614092, Note_on_c, 0, 63, 108
2, 614095, Note_on_c, 0, 51, 105
2, 614096, Note_on_c, 0, 47, 98
2, 614098, Note_on_c, 0, 54, 106
2, 614108, Control_c, 0, 64, 63
2, 614111, Control_c, 0, 64, 0
2, 614135, Control_c, 0, 64, 63
2, 614144, Control_c, 0, 64, 127
2, 614150, Note_on_c, 0, 69, 70
2, 614176, Note_on_c, 0, 63, 0
2, 614187, Note_on_c, 0, 47, 0
2, 614213, Note_on_c, 0, 59, 0
2, 614213, Note_on_c, 0, 51, 0
2, 614221, Note_on_c, 0, 75, 87
2, 614225, Note_on_c, 0, 54, 0
2, 614240, Note_on_c, 0, 69, 0
2, 614269, Note_on_c, 0, 66, 92
2, 614273, Note_on_c, 0, 75, 0
2, 614285, Note_on_c, 0, 46, 76
2, 614313, Note_on_c, 0, 50, 76
2, 614328, Note_on_c, 0, 55, 68
2, 614334, Note_on_c, 0, 66, 0
2, 614335, Note_on_c, 0, 46, 0
2, 614336, Note_on_c, 0, 62, 91
2, 614345, Note_on_c, 0, 58, 101
2, 614365, Control_c, 0, 64, 63
2, 614368, Control_c, 0, 64, 0
2, 614397, Control_c, 0, 64, 63
2, 614405, Control_c, 0, 64, 127
2, 614411, Note_on_c, 0, 70, 98
2, 614418, Note_on_c, 0, 62, 0
2, 614423, Note_on_c, 0, 58, 0
2, 614428, Note_on_c, 0, 55, 0
2, 614440, Note_on_c, 0, 50, 0
2, 614464, Note_on_c, 0, 74, 89
2, 614475, Note_on_c, 0, 70, 0
2, 614516, Note_on_c, 0, 67, 91
2, 614523, Note_on_c, 0, 74, 0
2, 614552, Note_on_c, 0, 67, 0
2, 614581, Note_on_c, 0, 55, 111
2, 614584, Note_on_c, 0, 43, 109
2, 614584, Note_on_c, 0, 67, 106
2, 614585, Control_c, 0, 64, 63
2, 614588, Control_c, 0, 64, 0
2, 614615, Control_c, 0, 64, 63
2, 614625, Control_c, 0, 64, 127
2, 614650, Note_on_c, 0, 74, 94
2, 614673, Note_on_c, 0, 67, 0
2, 614708, Note_on_c, 0, 55, 0
2, 614713, Note_on_c, 0, 74, 0
2, 614713, Note_on_c, 0, 79, 71
2, 614716, Note_on_c, 0, 43, 0
2, 614750, Note_on_c, 0, 79, 0
2, 614763, Note_on_c, 0, 70, 97
2, 614793, Note_on_c, 0, 70, 0
2, 614823, Note_on_c, 0, 71, 107
2, 614824, Note_on_c, 0, 53, 113
2, 614827, Note_on_c, 0, 41, 109
2, 614868, Control_c, 0, 64, 63
2, 614886, Control_c, 0, 64, 127
2, 614905, Note_on_c, 0, 80, 97
2, 614936, Note_on_c, 0, 71, 0
2, 614951, Note_on_c, 0, 53, 0
2, 614957, Note_on_c, 0, 83, 92
2, 614961, Note_on_c, 0, 41, 0
2, 614966, Note_on_c, 0, 80, 0
2, 615000, Note_on_c, 0, 83, 0
2, 615007, Note_on_c, 0, 74, 101
2, 615044, Note_on_c, 0, 74, 0
2, 615064, Note_on_c, 0, 72, 101
2, 615065, Note_on_c, 0, 51, 118
2, 615067, Note_on_c, 0, 39, 110
2, 615095, Control_c, 0, 64, 63
2, 615116, Control_c, 0, 64, 127
2, 615127, Note_on_c, 0, 79, 90
2, 615142, Note_on_c, 0, 72, 0
2, 615170, Note_on_c, 0, 51, 0
2, 615185, Note_on_c, 0, 39, 0
2, 615191, Note_on_c, 0, 84, 69
2, 615193, Note_on_c, 0, 79, 0
2, 615221, Note_on_c, 0, 84, 0
2, 615233, Note_on_c, 0, 75, 114
2, 615280, Note_on_c, 0, 75, 0
2, 615295, Note_on_c, 0, 72, 89
2, 615298, Note_on_c, 0, 48, 113
2, 615301, Note_on_c, 0, 36, 108
2, 615301, Control_c, 0, 64, 63
2, 615325, Control_c, 0, 64, 127
2, 615328, Note_on_c, 0, 72, 0
2, 615356, Note_on_c, 0, 67, 101
2, 615368, Note_on_c, 0, 36, 0
2, 615399, Note_on_c, 0, 48, 0
2, 615400, Note_on_c, 0, 67, 0
2, 615413, Note_on_c, 0, 72, 104
2, 615468, Note_on_c, 0, 72, 0
2, 615468, Note_on_c, 0, 63, 96
2, 615490, Control_c, 0, 64, 63
2, 615496, Note_on_c, 0, 63, 0
2, 615502, Control_c, 0, 64, 0
2, 615534, Control_c, 0, 64, 63
2, 615540, Note_on_c, 0, 48, 84
2, 615542, Note_on_c, 0, 55, 104
2, 615542, Note_on_c, 0, 64, 108
2, 615543, Control_c, 0, 64, 127
2, 615545, Note_on_c, 0, 60, 117
2, 615546, Note_on_c, 0, 52, 94
2, 615601, Note_on_c, 0, 60, 0
2, 615610, Note_on_c, 0, 70, 110
2, 615636, Note_on_c, 0, 64, 0
2, 615650, Note_on_c, 0, 48, 0
2, 615667, Note_on_c, 0, 55, 0
2, 615668, Note_on_c, 0, 52, 0
2, 615670, Note_on_c, 0, 76, 106
2, 615676, Note_on_c, 0, 70, 0
2, 615711, Note_on_c, 0, 76, 0
2, 615714, Note_on_c, 0, 67, 106
2, 615735, Note_on_c, 0, 47, 88
2, 615745, Note_on_c, 0, 67, 0
2, 615778, Note_on_c, 0, 51, 88
2, 615782, Note_on_c, 0, 47, 0
2, 615783, Note_on_c, 0, 63, 115
2, 615792, Note_on_c, 0, 59, 93
2, 615794, Note_on_c, 0, 56, 88
2, 615809, Control_c, 0, 64, 63
2, 615815, Control_c, 0, 64, 0
2, 615838, Control_c, 0, 64, 63
2, 615839, Note_on_c, 0, 71, 82
2, 615852, Control_c, 0, 64, 127
2, 615862, Note_on_c, 0, 63, 0
2, 615862, Note_on_c, 0, 59, 0
2, 615875, Note_on_c, 0, 56, 0
2, 615893, Note_on_c, 0, 51, 0
2, 615901, Note_on_c, 0, 75, 97
2, 615917, Note_on_c, 0, 71, 0
2, 615950, Note_on_c, 0, 68, 96
2, 615958, Note_on_c, 0, 75, 0
2, 615979, Note_on_c, 0, 68, 0
2, 616016, Note_on_c, 0, 56, 115
2, 616019, Note_on_c, 0, 68, 112
2, 616020, Note_on_c, 0, 44, 112
2, 616051, Control_c, 0, 64, 63
2, 616084, Note_on_c, 0, 75, 107
2, 616090, Control_c, 0, 64, 127
2, 616103, Note_on_c, 0, 68, 0
2, 616141, Note_on_c, 0, 80, 95
2, 616149, Note_on_c, 0, 56, 0
2, 616151, Note_on_c, 0, 75, 0
2, 616168, Note_on_c, 0, 44, 0
2, 616184, Note_on_c, 0, 80, 0
2, 616193, Note_on_c, 0, 71, 78
2, 616207, Note_on_c, 0, 71, 0
2, 616252, Note_on_c, 0, 72, 111
2, 616259, Note_on_c, 0, 54, 119
2, 616261, Note_on_c, 0, 42, 115
2, 616286, Control_c, 0, 64, 63
2, 616312, Control_c, 0, 64, 127
2, 616316, Note_on_c, 0, 81, 96
2, 616364, Note_on_c, 0, 54, 0
2, 616366, Note_on_c, 0, 84, 103
2, 616373, Note_on_c, 0, 42, 0
2, 616375, Note_on_c, 0, 81, 0
2, 616376, Note_on_c, 0, 72, 0
2, 616405, Note_on_c, 0, 84, 0
2, 616415, Note_on_c, 0, 75, 115
2, 616447, Note_on_c, 0, 75, 0
2, 616477, Note_on_c, 0, 73, 113
2, 616479, Note_on_c, 0, 52, 108
2, 616483, Note_on_c, 0, 40, 104
2, 616533, Control_c, 0, 64, 63
2, 616544, Note_on_c, 0, 80, 100
2, 616562, Note_on_c, 0, 73, 0
2, 616567, Control_c, 0, 64, 127
2, 616593, Note_on_c, 0, 52, 0
2, 616603, Note_on_c, 0, 85, 103
2, 616612, Note_on_c, 0, 40, 0
2, 616627, Note_on_c, 0, 80, 0
2, 616660, Note_on_c, 0, 85, 0
2, 616661, Note_on_c, 0, 76, 66
2, 616710, Note_on_c, 0, 76, 0
2, 616718, Note_on_c, 0, 73, 92
2, 616721, Note_on_c, 0, 49, 118
2, 616723, Note_on_c, 0, 37, 115
2, 616745, Note_on_c, 0, 73, 0
2, 616786, Note_on_c, 0, 68, 106
2, 616790, Note_on_c, 0, 37, 0
2, 616817, Note_on_c, 0, 49, 0
2, 616840, Note_on_c, 0, 73, 106
2, 616846, Note_on_c, 0, 68, 0
2, 616888, Note_on_c, 0, 73, 0
2, 616900, Note_on_c, 0, 64, 112
2, 616936, Note_on_c, 0, 64, 0
2, 616979, Control_c, 0, 64, 63
2, 616984, Control_c, 0, 64, 0
2, 616998, Note_on_c, 0, 49, 78
2, 617005, Note_on_c, 0, 65, 113
2, 617008, Note_on_c, 0, 56, 100
2, 617010, Note_on_c, 0, 53, 80
2, 617011, Note_on_c, 0, 61, 114
2, 617027, Control_c, 0, 64, 63
2, 617032, Control_c, 0, 64, 127
2, 617091, Note_on_c, 0, 71, 89
2, 617107, Note_on_c, 0, 53, 0
2, 617112, Note_on_c, 0, 65, 0
2, 617114, Note_on_c, 0, 61, 0
2, 617117, Note_on_c, 0, 56, 0
2, 617121, Note_on_c, 0, 49, 0
2, 617142, Note_on_c, 0, 77, 76
2, 617148, Note_on_c, 0, 71, 0
2, 617174, Note_on_c, 0, 77, 0
2, 617186, Note_on_c, 0, 68, 92
2, 617219, Note_on_c, 0, 68, 0
2, 617242, Note_on_c, 0, 48, 34
2, 617243, Note_on_c, 0, 52, 92
2, 617244, Note_on_c, 0, 57, 106
2, 617248, Note_on_c, 0, 60, 113
2, 617252, Note_on_c, 0, 64, 97
2, 617281, Control_c, 0, 64, 63
2, 617288, Control_c, 0, 64, 0
2, 617303, Note_on_c, 0, 64, 0
2, 617311, Note_on_c, 0, 72, 101
2, 617314, Control_c, 0, 64, 63
2, 617321, Note_on_c, 0, 60, 0
2, 617329, Control_c, 0, 64, 127
2, 617332, Note_on_c, 0, 57, 0
2, 617355, Note_on_c, 0, 52, 0
2, 617360, Note_on_c, 0, 48, 0
2, 617362, Note_on_c, 0, 76, 101
2, 617372, Note_on_c, 0, 72, 0
2, 617417, Note_on_c, 0, 69, 99
2, 617420, Note_on_c, 0, 76, 0
2, 617444, Note_on_c, 0, 69, 0
2, 617476, Note_on_c, 0, 57, 112
2, 617477, Note_on_c, 0, 69, 108
2, 617478, Control_c, 0, 64, 63
2, 617480, Note_on_c, 0, 45, 104
2, 617482, Control_c, 0, 64, 0
2, 617533, Note_on_c, 0, 76, 103
2, 617533, Control_c, 0, 64, 63
2, 617540, Control_c, 0, 64, 127
2, 617557, Note_on_c, 0, 69, 0
2, 617568, Note_on_c, 0, 45, 0
2, 617594, Note_on_c, 0, 57, 0
2, 617596, Note_on_c, 0, 81, 76
2, 617605, Note_on_c, 0, 76, 0
2, 617630, Note_on_c, 0, 81, 0
2, 617633, Note_on_c, 0, 72, 99
2, 617645, Control_c, 0, 64, 63
2, 617647, Control_c, 0, 64, 0
2, 617667, Note_on_c, 0, 72, 0
2, 617703, Note_on_c, 0, 67, 103
2, 617707, Note_on_c, 0, 52, 79
2, 617709, Note_on_c, 0, 64, 116
2, 617710, Note_on_c, 0, 55, 94
2, 617710, Note_on_c, 0, 58, 110
2, 617720, Control_c, 0, 64, 63
2, 617720, Control_c, 0, 64, 127
2, 617774, Note_on_c, 0, 73, 104
2, 617791, Note_on_c, 0, 67, 0
2, 617828, Note_on_c, 0, 52, 0
2, 617829, Note_on_c, 0, 79, 92
2, 617832, Note_on_c, 0, 64, 0
2, 617838, Note_on_c, 0, 73, 0
2, 617853, Note_on_c, 0, 55, 0
2, 617853, Note_on_c, 0, 58, 0
2, 617877, Note_on_c, 0, 79, 0
2, 617880, Note_on_c, 0, 70, 106
2, 617937, Note_on_c, 0, 70, 0
2, 617941, Note_on_c, 0, 54, 97
2, 617941, Note_on_c, 0, 62, 114
2, 617941, Note_on_c, 0, 59, 103
2, 617942, Note_on_c, 0, 50, 48
2, 617948, Note_on_c, 0, 66, 113
2, 617967, Control_c, 0, 64, 63
2, 617969, Control_c, 0, 64, 0
2, 618011, Note_on_c, 0, 74, 87
2, 618013, Control_c, 0, 64, 63
2, 618017, Control_c, 0, 64, 127
2, 618019, Note_on_c, 0, 66, 0
2, 618024, Note_on_c, 0, 62, 0
2, 618034, Note_on_c, 0, 59, 0
2, 618041, Note_on_c, 0, 50, 0
2, 618045, Note_on_c, 0, 54, 0
2, 618059, Note_on_c, 0, 78, 99
2, 618077, Note_on_c, 0, 74, 0
2, 618091, Control_c, 0, 64, 63
2, 618094, Control_c, 0, 64, 0
2, 618110, Note_on_c, 0, 71, 91
2, 618116, Note_on_c, 0, 78, 0
2, 618149, Note_on_c, 0, 71, 0
2, 618170, Note_on_c, 0, 59, 117
2, 618171, Note_on_c, 0, 71, 98
2, 618171, Note_on_c, 0, 47, 107
2, 618178, Control_c, 0, 64, 63
2, 618179, Control_c, 0, 64, 127
2, 618227, Note_on_c, 0, 47, 0
2, 618236, Note_on_c, 0, 78, 108
2, 618253, Note_on_c, 0, 71, 0
2, 618254, Note_on_c, 0, 59, 0
2, 618293, Note_on_c, 0, 83, 93
2, 618300, Note_on_c, 0, 78, 0
2, 618334, Note_on_c, 0, 83, 0
2, 618338, Note_on_c, 0, 74, 106
2, 618362, Control_c, 0, 64, 63
2, 618365, Control_c, 0, 64, 0
2, 618369, Note_on_c, 0, 74, 0
2, 618400, Note_on_c, 0, 69, 103
2, 618400, Note_on_c, 0, 66, 120
2, 618401, Note_on_c, 0, 59, 97
2, 618403, Note_on_c, 0, 57, 79
2, 618404, Note_on_c, 0, 54, 88
2, 618406, Control_c, 0, 64, 63
2, 618409, Control_c, 0, 64, 127
2, 618475, Note_on_c, 0, 75, 104
2, 618487, Note_on_c, 0, 69, 0
2, 618501, Note_on_c, 0, 66, 0
2, 618505, Note_on_c, 0, 57, 0
2, 618509, Note_on_c, 0, 59, 0
2, 618509, Note_on_c, 0, 54, 0
2, 618522, Note_on_c, 0, 75, 0
2, 618532, Note_on_c, 0, 81, 91
2, 618560, Note_on_c, 0, 81, 0
2, 618575, Note_on_c, 0, 71, 104
2, 618603, Note_on_c, 0, 71, 0
2, 618631, Note_on_c, 0, 67, 98
2, 618634, Note_on_c, 0, 59, 104
2, 618634, Note_on_c, 0, 64, 114
2, 618635, Note_on_c, 0, 52, 97
2, 618636, Note_on_c, 0, 55, 84
2, 618659, Control_c, 0, 64, 63
2, 618663, Control_c, 0, 64, 0
2, 618684, Control_c, 0, 64, 63
2, 618693, Note_on_c, 0, 76, 100
2, 618694, Control_c, 0, 64, 127
2, 618695, Note_on_c, 0, 67, 0
2, 618715, Note_on_c, 0, 64, 0
2, 618727, Note_on_c, 0, 59, 0
2, 618741, Note_on_c, 0, 55, 0
2, 618749, Note_on_c, 0, 52, 0
2, 618749, Note_on_c, 0, 79, 99
2, 618759, Note_on_c, 0, 76, 0
2, 618792, Note_on_c, 0, 79, 0
2, 618802, Note_on_c, 0, 71, 100
2, 618832, Note_on_c, 0, 71, 0
2, 618853, Control_c, 0, 64, 63
2, 618857, Control_c, 0, 64, 0
2, 618880, Note_on_c, 0, 60, 120
2, 618880, Note_on_c, 0, 48, 116
2, 618886, Control_c, 0, 64, 63
2, 618889, Note_on_c, 0, 70, 116
2, 618893, Control_c, 0, 64, 127
2, 618959, Note_on_c, 0, 79, 86
2, 618970, Note_on_c, 0, 60, 0
2, 618971, Note_on_c, 0, 70, 0
2, 618983, Note_on_c, 0, 48, 0
2, 619016, Note_on_c, 0, 82, 97
2, 619054, Note_on_c, 0, 79, 0
2, 619066, Note_on_c, 0, 76, 99
2, 619073, Note_on_c, 0, 47, 88
2, 619078, Note_on_c, 0, 82, 0
2, 619097, Note_on_c, 0, 52, 66
2, 619108, Note_on_c, 0, 55, 98
2, 619114, Note_on_c, 0, 59, 117
2, 619120, Note_on_c, 0, 71, 101
2, 619120, Control_c, 0, 64, 63
2, 619124, Control_c, 0, 64, 0
2, 619139, Control_c, 0, 64, 63
2, 619141, Note_on_c, 0, 47, 0
2, 619145, Note_on_c, 0, 76, 0
2, 619148, Control_c, 0, 64, 127
2, 619174, Note_on_c, 0, 79, 98
2, 619186, Note_on_c, 0, 59, 0
2, 619191, Note_on_c, 0, 71, 0
2, 619206, Note_on_c, 0, 55, 0
2, 619219, Note_on_c, 0, 52, 0
2, 619226, Note_on_c, 0, 83, 97
2, 619252, Note_on_c, 0, 79, 0
2, 619263, Note_on_c, 0, 46, 95
2, 619270, Control_c, 0, 64, 63
2, 619273, Note_on_c, 0, 76, 100
2, 619277, Control_c, 0, 64, 127
2, 619283, Note_on_c, 0, 83, 0
2, 619296, Note_on_c, 0, 52, 77
2, 619297, Note_on_c, 0, 46, 0
2, 619304, Note_on_c, 0, 76, 0
2, 619305, Note_on_c, 0, 55, 77
2, 619343, Note_on_c, 0, 61, 121
2, 619351, Note_on_c, 0, 73, 110
2, 619381, Note_on_c, 0, 73, 0
2, 619386, Note_on_c, 0, 61, 0
2, 619394, Note_on_c, 0, 55, 0
2, 619410, Note_on_c, 0, 76, 104
2, 619412, Note_on_c, 0, 52, 0
2, 619475, Note_on_c, 0, 79, 103
2, 619483, Note_on_c, 0, 76, 0
2, 619547, Note_on_c, 0, 85, 112
2, 619553, Note_on_c, 0, 79, 0
2, 619587, Note_on_c, 0, 85, 0
2, 619632, Note_on_c, 0, 34, 94
2, 619660, Note_on_c, 0, 46, 124
2, 619669, Note_on_c, 0, 100, 125
2, 619691, Note_on_c, 0, 100, 0
2, 619871, Note_on_c, 0, 34, 0
2, 619893, Note_on_c, 0, 46, 0
2, 619981, Note_on_c, 0, 58, 121
2, 619997, Control_c, 0, 64, 63
2, 620000, Control_c, 0, 64, 0
2, 620126, Control_c, 0, 64, 63
2, 620127, Control_c, 0, 64, 127
2, 620185, Note_on_c, 0, 35, 100
2, 620201, Note_on_c, 0, 58, 0
2, 620228, Note_on_c, 0, 59, 126
2, 620230, Note_on_c, 0, 47, 122
2, 620240, Control_c, 0, 64, 63
2, 620242, Control_c, 0, 64, 0
2, 620282, Control_c, 0, 64, 63
2, 620287, Control_c, 0, 64, 127
2, 620326, Note_on_c, 0, 35, 0
2, 620355, Note_on_c, 0, 47, 0
2, 620376, Note_on_c, 0, 59, 0
2, 620482, Note_on_c, 0, 59, 111
2, 620483, Note_on_c, 0, 51, 112
2, 620550, Note_on_c, 0, 59, 0
2, 620586, Note_on_c, 0, 51, 0
2, 620586, Note_on_c, 0, 52, 85
2, 620660, Note_on_c, 0, 54, 91
2, 620661, Note_on_c, 0, 64, 114
2, 620662, Note_on_c, 0, 52, 0
2, 620715, Note_on_c, 0, 64, 0
2, 620721, Note_on_c, 0, 54, 0
2, 620724, Note_on_c, 0, 55, 80
2, 620767, Control_c, 0, 64, 63
2, 620785, Control_c, 0, 64, 127
2, 620791, Note_on_c, 0, 58, 92
2, 620794, Note_on_c, 0, 55, 0
2, 620798, Note_on_c, 0, 67, 112
2, 620839, Note_on_c, 0, 67, 0
2, 620854, Note_on_c, 0, 59, 73
2, 620857, Note_on_c, 0, 58, 0
2, 620909, Note_on_c, 0, 59, 0
2, 620926, Note_on_c, 0, 71, 108
2, 620926, Note_on_c, 0, 63, 83
2, 620960, Note_on_c, 0, 71, 0
2, 620979, Note_on_c, 0, 64, 81
2, 620984, Note_on_c, 0, 63, 0
2, 621024, Control_c, 0, 64, 63
2, 621027, Control_c, 0, 64, 0
2, 621033, Note_on_c, 0, 64, 0
2, 621038, Control_c, 0, 64, 63
2, 621042, Note_on_c, 0, 76, 113
2, 621042, Note_on_c, 0, 66, 101
2, 621045, Control_c, 0, 64, 127
2, 621091, Note_on_c, 0, 67, 83
2, 621097, Note_on_c, 0, 66, 0
2, 621102, Note_on_c, 0, 76, 0
2, 621162, Note_on_c, 0, 70, 101
2, 621167, Note_on_c, 0, 67, 0
2, 621169, Note_on_c, 0, 79, 113
2, 621220, Note_on_c, 0, 71, 84
2, 621229, Note_on_c, 0, 70, 0
2, 621230, Note_on_c, 0, 79, 0
2, 621272, Control_c, 0, 64, 63
2, 621276, Control_c, 0, 64, 0
2, 621277, Note_on_c, 0, 71, 0
2, 621286, Control_c, 0, 64, 63
2, 621292, Note_on_c, 0, 75, 106
2, 621292, Note_on_c, 0, 83, 107
2, 621297, Control_c, 0, 64, 127
2, 621345, Note_on_c, 0, 76, 93
2, 621362, Note_on_c, 0, 75, 0
2, 621383, Note_on_c, 0, 83, 0
2, 621411, Note_on_c, 0, 88, 112
2, 621414, Note_on_c, 0, 78, 103
2, 621421, Note_on_c, 0, 76, 0
2, 621468, Note_on_c, 0, 79, 84
2, 621475, Note_on_c, 0, 78, 0
2, 621505, Note_on_c, 0, 88, 0
2, 621528, Note_on_c, 0, 79, 0
2, 621537, Note_on_c, 0, 91, 114
2, 621539, Note_on_c, 0, 82, 103
2, 621572, Note_on_c, 0, 91, 0
2, 621591, Note_on_c, 0, 83, 86
2, 621597, Note_on_c, 0, 82, 0
2, 621660, Note_on_c, 0, 95, 94
2, 621665, Note_on_c, 0, 87, 92
2, 621667, Note_on_c, 0, 83, 0
2, 621689, Note_on_c, 0, 95, 0
2, 621704, Note_on_c, 0, 87, 0
2, 621722, Note_on_c, 0, 88, 90
2, 621748, Note_on_c, 0, 88, 0
2, 621776, Note_on_c, 0, 90, 106
2, 621785, Note_on_c, 0, 100, 88
2, 621821, Note_on_c, 0, 90, 0
2, 621843, Note_on_c, 0, 91, 80
2, 621874, Note_on_c, 0, 100, 0
2, 621880, Note_on_c, 0, 91, 0
2, 621897, Note_on_c, 0, 90, 99
2, 621897, Note_on_c, 0, 100, 78
2, 621909, Control_c, 0, 64, 127
2, 621943, Note_on_c, 0, 91, 70
2, 621951, Note_on_c, 0, 100, 0
2, 621966, Note_on_c, 0, 90, 0
2, 621984, Note_on_c, 0, 91, 0
2, 622025, Note_on_c, 0, 46, 99
2, 622028, Note_on_c, 0, 100, 86
2, 622029, Note_on_c, 0, 90, 88
2, 622081, Note_on_c, 0, 47, 96
2, 622093, Note_on_c, 0, 91, 64
2, 622098, Note_on_c, 0, 90, 0
2, 622114, Note_on_c, 0, 100, 0
2, 622125, Note_on_c, 0, 46, 0
2, 622131, Note_on_c, 0, 91, 0
2, 622153, Note_on_c, 0, 51, 119
2, 622159, Note_on_c, 0, 100, 91
2, 622163, Note_on_c, 0, 90, 83
2, 622177, Note_on_c, 0, 47, 0
2, 622197, Note_on_c, 0, 100, 0
2, 622203, Note_on_c, 0, 91, 63
2, 622205, Note_on_c, 0, 52, 94
2, 622213, Note_on_c, 0, 90, 0
2, 622225, Note_on_c, 0, 51, 0
2, 622229, Note_on_c, 0, 91, 0
2, 622279, Note_on_c, 0, 54, 119
2, 622283, Note_on_c, 0, 87, 113
2, 622284, Note_on_c, 0, 95, 100
2, 622285, Note_on_c, 0, 52, 0
2, 622307, Note_on_c, 0, 95, 0
2, 622313, Note_on_c, 0, 87, 0
2, 622333, Note_on_c, 0, 55, 92
2, 622343, Note_on_c, 0, 54, 0
2, 622366, Note_on_c, 0, 88, 65
2, 622380, Note_on_c, 0, 88, 0
2, 622396, Control_c, 0, 64, 63
2, 622399, Note_on_c, 0, 55, 0
2, 622403, Note_on_c, 0, 58, 110
2, 622407, Note_on_c, 0, 90, 96
2, 622410, Control_c, 0, 64, 127
2, 622411, Note_on_c, 0, 100, 101
2, 622457, Note_on_c, 0, 100, 0
2, 622458, Note_on_c, 0, 91, 78
2, 622462, Note_on_c, 0, 59, 76
2, 622476, Note_on_c, 0, 90, 0
2, 622477, Note_on_c, 0, 58, 0
2, 622496, Note_on_c, 0, 91, 0
2, 622519, Note_on_c, 0, 59, 0
2, 622532, Note_on_c, 0, 63, 116
2, 622536, Note_on_c, 0, 90, 107
2, 622536, Note_on_c, 0, 100, 104
2, 622579, Note_on_c, 0, 100, 0
2, 622585, Note_on_c, 0, 91, 76
2, 622590, Note_on_c, 0, 64, 101
2, 622597, Note_on_c, 0, 90, 0
2, 622599, Note_on_c, 0, 63, 0
2, 622614, Note_on_c, 0, 91, 0
2, 622660, Note_on_c, 0, 66, 121
2, 622666, Note_on_c, 0, 64, 0
2, 622666, Note_on_c, 0, 95, 97
2, 622678, Note_on_c, 0, 87, 99
2, 622692, Note_on_c, 0, 87, 0
2, 622696, Note_on_c, 0, 95, 0
2, 622718, Note_on_c, 0, 67, 107
2, 622725, Note_on_c, 0, 66, 0
2, 622755, Note_on_c, 0, 88, 34
2, 622768, Note_on_c, 0, 88, 0
2, 622774, Control_c, 0, 64, 63
2, 622782, Note_on_c, 0, 70, 120
2, 622785, Note_on_c, 0, 67, 0
2, 622785, Note_on_c, 0, 90, 98
2, 622789, Control_c, 0, 64, 127
2, 622792, Note_on_c, 0, 100, 97
2, 622828, Note_on_c, 0, 100, 0
2, 622834, Note_on_c, 0, 91, 61
2, 622840, Note_on_c, 0, 71, 106
2, 622846, Note_on_c, 0, 70, 0
2, 622852, Note_on_c, 0, 90, 0
2, 622880, Note_on_c, 0, 91, 0
2, 622896, Note_on_c, 0, 71, 0
2, 622908, Note_on_c, 0, 75, 119
2, 622911, Note_on_c, 0, 100, 108
2, 622913, Note_on_c, 0, 90, 101
2, 622953, Note_on_c, 0, 100, 0
2, 622954, Note_on_c, 0, 91, 78
2, 622963, Note_on_c, 0, 76, 99
2, 622972, Note_on_c, 0, 90, 0
2, 622981, Note_on_c, 0, 75, 0
2, 622983, Note_on_c, 0, 91, 0
2, 623020, Note_on_c, 0, 76, 0
2, 623028, Note_on_c, 0, 87, 116
2, 623029, Note_on_c, 0, 78, 121
2, 623030, Note_on_c, 0, 95, 98
2, 623063, Note_on_c, 0, 95, 0
2, 623072, Note_on_c, 0, 86, 62
2, 623076, Note_on_c, 0, 87, 0
2, 623079, Note_on_c, 0, 79, 109
2, 623091, Note_on_c, 0, 86, 0
2, 623094, Note_on_c, 0, 78, 0
2, 623144, Note_on_c, 0, 79, 0
2, 623151, Note_on_c, 0, 82, 120
2, 623163, Note_on_c, 0, 90, 106
2, 623164, Note_on_c, 0, 100, 81
2, 623179, Note_on_c, 0, 98, 32
2, 623194, Note_on_c, 0, 98, 0
2, 623205, Note_on_c, 0, 100, 0
2, 623215, Note_on_c, 0, 91, 77
2, 623216, Note_on_c, 0, 83, 107
2, 623217, Note_on_c, 0, 82, 0
2, 623238, Note_on_c, 0, 90, 0
2, 623260, Note_on_c, 0, 91, 0
2, 623275, Note_on_c, 0, 83, 0
2, 623294, Note_on_c, 0, 87, 121
2, 623299, Note_on_c, 0, 100, 113
2, 623299, Note_on_c, 0, 90, 118
2, 623349, Note_on_c, 0, 90, 0
2, 623351, Note_on_c, 0, 100, 0
2, 623369, Note_on_c, 0, 88, 116
2, 623375, Note_on_c, 0, 91, 102
2, 623383, Note_on_c, 0, 87, 0
2, 623403, Note_on_c, 0, 91, 0
2, 623410, Note_on_c, 0, 88, 0
2, 623470, Note_on_c, 0, 91, 126
2, 623474, Note_on_c, 0, 95, 125
2, 623474, Note_on_c, 0, 100, 122
2, 623478, Control_c, 0, 64, 63
2, 623482, Control_c, 0, 64, 0
2, 623518, Control_c, 0, 64, 63
2, 623523, Control_c, 0, 64, 127
2, 623551, Note_on_c, 0, 95, 0
2, 623556, Note_on_c, 0, 100, 0
2, 623559, Note_on_c, 0, 91, 0
2, 623668, Note_on_c, 0, 90, 126
2, 623668, Note_on_c, 0, 99, 123
2, 623669, Note_on_c, 0, 94, 121
2, 623676, Note_on_c, 0, 93, 102
2, 623704, Note_on_c, 0, 93, 0
2, 623710, Note_on_c, 0, 94, 0
2, 623739, Note_on_c, 0, 99, 0
2, 623775, Note_on_c, 0, 90, 0
2, 623780, Note_on_c, 0, 89, 113
2, 623785, Note_on_c, 0, 93, 121
2, 623786, Note_on_c, 0, 98, 109
2, 623810, Note_on_c, 0, 93, 0
2, 623824, Note_on_c, 0, 98, 0
2, 623843, Note_on_c, 0, 89, 0
2, 623865, Note_on_c, 0, 88, 113
2, 623867, Note_on_c, 0, 92, 118
2, 623867, Note_on_c, 0, 97, 114
2, 623892, Note_on_c, 0, 92, 0
2, 623906, Note_on_c, 0, 97, 0
2, 623914, Note_on_c, 0, 88, 0
2, 623940, Note_on_c, 0, 87, 114
2, 623942, Note_on_c, 0, 91, 117
2, 623943, Note_on_c, 0, 96, 116
2, 623967, Note_on_c, 0, 91, 0
2, 623971, Note_on_c, 0, 96, 0
2, 623983, Note_on_c, 0, 87, 0
2, 624001, Note_on_c, 0, 86, 102
2, 624006, Note_on_c, 0, 95, 111
2, 624007, Note_on_c, 0, 90, 115
2, 624029, Note_on_c, 0, 90, 0
2, 624037, Note_on_c, 0, 95, 0
2, 624043, Note_on_c, 0, 86, 0
2, 624064, Note_on_c, 0, 89, 101
2, 624064, Note_on_c, 0, 94, 114
2, 624066, Note_on_c, 0, 85, 114
2, 624090, Note_on_c, 0, 89, 0
2, 624095, Note_on_c, 0, 94, 0
2, 624103, Note_on_c, 0, 85, 0
2, 624122, Note_on_c, 0, 84, 102
2, 624126, Note_on_c, 0, 88, 112
2, 624126, Note_on_c, 0, 93, 108
2, 624151, Note_on_c, 0, 88, 0
2, 624154, Note_on_c, 0, 93, 0
2, 624164, Note_on_c, 0, 84, 0
2, 624177, Note_on_c, 0, 92, 106
2, 624179, Note_on_c, 0, 87, 107
2, 624182, Note_on_c, 0, 83, 103
2, 624207, Note_on_c, 0, 92, 0
2, 624210, Note_on_c, 0, 87, 0
2, 624225, Note_on_c, 0, 83, 0
2, 624241, Note_on_c, 0, 86, 108
2, 624241, Note_on_c, 0, 82, 112
2, 624241, Note_on_c, 0, 91, 106
2, 624269, Note_on_c, 0, 86, 0
2, 624270, Note_on_c, 0, 91, 0
2, 624295, Note_on_c, 0, 82, 0
2, 624296, Note_on_c, 0, 81, 101
2, 624297, Note_on_c, 0, 90, 106
2, 624299, Note_on_c, 0, 85, 108
2, 624327, Note_on_c, 0, 90, 0
2, 624332, Note_on_c, 0, 85, 0
2, 624360, Note_on_c, 0, 89, 107
2, 624361, Note_on_c, 0, 81, 0
2, 624361, Note_on_c, 0, 84, 103
2, 624361, Note_on_c, 0, 80, 116
2, 624388, Note_on_c, 0, 84, 0
2, 624390, Note_on_c, 0, 89, 0
2, 624414, Note_on_c, 0, 79, 101
2, 624419, Note_on_c, 0, 83, 106
2, 624419, Note_on_c, 0, 88, 111
2, 624420, Note_on_c, 0, 80, 0
2, 624448, Note_on_c, 0, 83, 0
2, 624452, Note_on_c, 0, 88, 0
2, 624475, Note_on_c, 0, 82, 113
2, 624475, Note_on_c, 0, 87, 108
2, 624477, Note_on_c, 0, 78, 115
2, 624487, Note_on_c, 0, 79, 0
2, 624504, Note_on_c, 0, 82, 0
2, 624507, Note_on_c, 0, 87, 0
2, 624530, Note_on_c, 0, 86, 100
2, 624531, Note_on_c, 0, 81, 99
2, 624531, Note_on_c, 0, 77, 104
2, 624543, Note_on_c, 0, 78, 0
2, 624560, Note_on_c, 0, 81, 0
2, 624561, Note_on_c, 0, 86, 0
2, 624593, Note_on_c, 0, 85, 113
2, 624596, Note_on_c, 0, 76, 113
2, 624597, Note_on_c, 0, 80, 114
2, 624607, Note_on_c, 0, 77, 0
2, 624626, Note_on_c, 0, 85, 0
2, 624635, Note_on_c, 0, 80, 0
2, 624658, Note_on_c, 0, 75, 115
2, 624660, Note_on_c, 0, 84, 114
2, 624660, Note_on_c, 0, 79, 111
2, 624675, Note_on_c, 0, 76, 0
2, 624687, Note_on_c, 0, 79, 0
2, 624690, Note_on_c, 0, 84, 0
2, 624716, Note_on_c, 0, 74, 106
2, 624723, Note_on_c, 0, 83, 111
2, 624732, Note_on_c, 0, 75, 0
2, 624736, Note_on_c, 0, 78, 79
2, 624741, Note_on_c, 0, 77, 52
2, 624760, Note_on_c, 0, 78, 0
2, 624760, Note_on_c, 0, 77, 0
2, 624764, Note_on_c, 0, 83, 0
2, 624795, Note_on_c, 0, 73, 121
2, 624798, Note_on_c, 0, 77, 118
2, 624800, Note_on_c, 0, 83, 97
2, 624800, Note_on_c, 0, 82, 114
2, 624804, Note_on_c, 0, 78, 88
2, 624807, Note_on_c, 0, 74, 0
2, 624813, Note_on_c, 0, 83, 0
2, 624816, Note_on_c, 0, 78, 0
2, 624823, Note_on_c, 0, 77, 0
2, 624834, Note_on_c, 0, 82, 0
2, 624881, Note_on_c, 0, 81, 121
2, 624882, Note_on_c, 0, 72, 114
2, 624882, Note_on_c, 0, 76, 118
2, 624898, Note_on_c, 0, 73, 0
2, 624910, Control_c, 0, 64, 63
2, 624916, Control_c, 0, 64, 0
2, 624980, Note_on_c, 0, 71, 117
2, 624983, Note_on_c, 0, 79, 112
2, 624991, Note_on_c, 0, 72, 0
2, 625011, Note_on_c, 0, 81, 0
2, 625013, Control_c, 0, 64, 63
2, 625014, Control_c, 0, 64, 127
2, 625059, Note_on_c, 0, 76, 0
2, 625073, Note_on_c, 0, 78, 120
2, 625076, Note_on_c, 0, 70, 118
2, 625086, Note_on_c, 0, 79, 0
2, 625089, Note_on_c, 0, 71, 0
2, 625110, Note_on_c, 0, 78, 0
2, 625146, Note_on_c, 0, 70, 0
2, 625182, Note_on_c, 0, 71, 124
2, 625186, Note_on_c, 0, 79, 127
2, 625215, Note_on_c, 0, 71, 0
2, 625245, Note_on_c, 0, 79, 0
2, 625354, Control_c, 0, 64, 63
2, 625357, Control_c, 0, 64, 0
2, 625378, Note_on_c, 0, 47, 122
2, 625380, Note_on_c, 0, 35, 118
2, 625381, Note_on_c, 0, 79, 118
2, 625382, Note_on_c, 0, 83, 114
2, 625471, Control_c, 0, 64, 63
2, 625472, Control_c, 0, 64, 127
2, 625500, Note_on_c, 0, 83, 0
2, 625524, Note_on_c, 0, 78, 104
2, 625530, Note_on_c, 0, 71, 78
2, 625531, Note_on_c, 0, 69, 93
2, 625550, Note_on_c, 0, 79, 0
2, 625560, Note_on_c, 0, 69, 0
2, 625579, Note_on_c, 0, 71, 0
2, 625610, Note_on_c, 0, 79, 108
2, 625614, Note_on_c, 0, 83, 101
2, 625631, Note_on_c, 0, 78, 0
2, 625667, Note_on_c, 0, 35, 0
2, 625675, Note_on_c, 0, 83, 0
2, 625677, Note_on_c, 0, 78, 104
2, 625678, Note_on_c, 0, 47, 0
2, 625687, Note_on_c, 0, 71, 90
2, 625687, Note_on_c, 0, 69, 98
2, 625701, Note_on_c, 0, 79, 0
2, 625723, Note_on_c, 0, 69, 0
2, 625727, Note_on_c, 0, 71, 0
2, 625741, Note_on_c, 0, 79, 104
2, 625746, Note_on_c, 0, 83, 92
2, 625754, Note_on_c, 0, 78, 0
2, 625788, Note_on_c, 0, 78, 104
2, 625791, Note_on_c, 0, 83, 0
2, 625798, Note_on_c, 0, 71, 83
2, 625799, Note_on_c, 0, 69, 92
2, 625814, Note_on_c, 0, 79, 0
2, 625840, Note_on_c, 0, 69, 0
2, 625850, Note_on_c, 0, 46, 120
2, 625850, Note_on_c, 0, 79, 104
2, 625852, Note_on_c, 0, 34, 118
2, 625855, Note_on_c, 0, 83, 96
2, 625866, Note_on_c, 0, 71, 0
2, 625867, Note_on_c, 0, 78, 0
2, 625881, Note_on_c, 0, 46, 0
2, 625881, Note_on_c, 0, 34, 0
2, 625903, Note_on_c, 0, 83, 0
2, 625905, Note_on_c, 0, 78, 100
2, 625914, Note_on_c, 0, 71, 76
2, 625915, Note_on_c, 0, 69, 89
2, 625933, Note_on_c, 0, 79, 0
2, 625962, Note_on_c, 0, 69, 0
2, 625976, Note_on_c, 0, 47, 117
2, 625977, Note_on_c, 0, 79, 104
2, 625978, Note_on_c, 0, 35, 120
2, 625980, Note_on_c, 0, 83, 97
2, 625988, Control_c, 0, 64, 63
2, 625990, Note_on_c, 0, 71, 0
2, 625999, Note_on_c, 0, 78, 0
2, 626011, Control_c, 0, 64, 127
2, 626035, Note_on_c, 0, 35, 0
2, 626040, Note_on_c, 0, 83, 0
2, 626044, Note_on_c, 0, 78, 89
2, 626051, Note_on_c, 0, 47, 0
2, 626053, Note_on_c, 0, 71, 81
2, 626053, Note_on_c, 0, 69, 87
2, 626066, Note_on_c, 0, 79, 0
2, 626086, Note_on_c, 0, 69, 0
2, 626094, Note_on_c, 0, 71, 0
2, 626104, Note_on_c, 0, 79, 93
2, 626106, Note_on_c, 0, 83, 85
2, 626116, Note_on_c, 0, 78, 0
2, 626149, Note_on_c, 0, 51, 120
2, 626151, Note_on_c, 0, 39, 106
2, 626154, Note_on_c, 0, 83, 0
2, 626155, Note_on_c, 0, 78, 103
2, 626161, Note_on_c, 0, 71, 91
2, 626161, Note_on_c, 0, 69, 97
2, 626167, Note_on_c, 0, 39, 0
2, 626170, Note_on_c, 0, 51, 0
2, 626177, Note_on_c, 0, 79, 0
2, 626196, Note_on_c, 0, 69, 0
2, 626204, Note_on_c, 0, 79, 96
2, 626207, Note_on_c, 0, 83, 94
2, 626208, Control_c, 0, 64, 63
2, 626209, Note_on_c, 0, 42, 112
2, 626209, Note_on_c, 0, 54, 113
2, 626215, Note_on_c, 0, 71, 0
2, 626225, Control_c, 0, 64, 127
2, 626228, Note_on_c, 0, 78, 0
2, 626254, Note_on_c, 0, 83, 0
2, 626261, Note_on_c, 0, 42, 0
2, 626266, Note_on_c, 0, 78, 96
2, 626268, Note_on_c, 0, 54, 0
2, 626271, Note_on_c, 0, 69, 90
2, 626271, Note_on_c, 0, 71, 91
2, 626286, Note_on_c, 0, 79, 0
2, 626314, Note_on_c, 0, 69, 0
2, 626316, Note_on_c, 0, 71, 0
2, 626325, Note_on_c, 0, 79, 91
2, 626326, Note_on_c, 0, 83, 84
2, 626342, Note_on_c, 0, 78, 0
2, 626371, Note_on_c, 0, 78, 92
2, 626372, Note_on_c, 0, 83, 0
2, 626383, Note_on_c, 0, 71, 84
2, 626383, Note_on_c, 0, 69, 89
2, 626402, Note_on_c, 0, 79, 0
2, 626428, Note_on_c, 0, 69, 0
2, 626434, Note_on_c, 0, 59, 121
2, 626435, Note_on_c, 0, 47, 116
2, 626437, Note_on_c, 0, 79, 102
2, 626440, Note_on_c, 0, 83, 94
2, 626442, Note_on_c, 0, 71, 0
2, 626445, Control_c, 0, 64, 63
2, 626458, Note_on_c, 0, 78, 0
2, 626462, Control_c, 0, 64, 127
2, 626490, Note_on_c, 0, 47, 0
2, 626492, Note_on_c, 0, 83, 0
2, 626502, Note_on_c, 0, 78, 93
2, 626508, Note_on_c, 0, 59, 0
2, 626515, Note_on_c, 0, 69, 85
2, 626515, Note_on_c, 0, 71, 87
2, 626528, Note_on_c, 0, 79, 0
2, 626553, Note_on_c, 0, 69, 0
2, 626556, Note_on_c, 0, 71, 0
2, 626564, Note_on_c, 0, 79, 101
2, 626566, Note_on_c, 0, 83, 97
2, 626581, Note_on_c, 0, 78, 0
2, 626610, Note_on_c, 0, 78, 91
2, 626612, Note_on_c, 0, 83, 0
2, 626620, Note_on_c, 0, 71, 78
2, 626622, Note_on_c, 0, 69, 94
2, 626641, Note_on_c, 0, 79, 0
2, 626663, Note_on_c, 0, 69, 0
2, 626676, Note_on_c, 0, 79, 102
2, 626681, Note_on_c, 0, 83, 97
2, 626681, Note_on_c, 0, 66, 124
2, 626683, Note_on_c, 0, 54, 119
2, 626692, Note_on_c, 0, 78, 0
2, 626693, Note_on_c, 0, 71, 0
2, 626708, Note_on_c, 0, 54, 0
2, 626711, Note_on_c, 0, 66, 0
2, 626735, Note_on_c, 0, 83, 0
2, 626738, Note_on_c, 0, 78, 95
2, 626749, Note_on_c, 0, 71, 80
2, 626749, Note_on_c, 0, 69, 85
2, 626771, Note_on_c, 0, 79, 0
2, 626787, Note_on_c, 0, 69, 0
2, 626800, Note_on_c, 0, 71, 0
2, 626800, Note_on_c, 0, 79, 78
2, 626806, Note_on_c, 0, 78, 0
2, 626807, Note_on_c, 0, 83, 77
2, 626838, Note_on_c, 0, 78, 88
2, 626841, Note_on_c, 0, 69, 76
2, 626841, Note_on_c, 0, 71, 76
2, 626864, Note_on_c, 0, 69, 0
2, 626864, Note_on_c, 0, 71, 0
2, 626868, Note_on_c, 0, 83, 0
2, 626871, Note_on_c, 0, 79, 0
2, 626880, Note_on_c, 0, 78, 0
2, 626934, Note_on_c, 0, 71, 124
2, 626934, Note_on_c, 0, 59, 121
2, 626935, Note_on_c, 0, 91, 122
2, 626937, Note_on_c, 0, 95, 116
2, 626958, Control_c, 0, 64, 127
2, 627003, Note_on_c, 0, 95, 0
2, 627036, Note_on_c, 0, 59, 0
2, 627040, Note_on_c, 0, 90, 109
2, 627047, Note_on_c, 0, 83, 79
2, 627047, Note_on_c, 0, 81, 89
2, 627054, Note_on_c, 0, 71, 0
2, 627066, Note_on_c, 0, 91, 0
2, 627093, Note_on_c, 0, 81, 0
2, 627095, Note_on_c, 0, 83, 0
2, 627119, Note_on_c, 0, 91, 97
2, 627121, Note_on_c, 0, 95, 97
2, 627141, Note_on_c, 0, 90, 0
2, 627187, Note_on_c, 0, 95, 0
2, 627189, Note_on_c, 0, 90, 112
2, 627200, Note_on_c, 0, 81, 104
2, 627200, Note_on_c, 0, 83, 89
2, 627223, Note_on_c, 0, 91, 0
2, 627269, Note_on_c, 0, 81, 0
2, 627279, Note_on_c, 0, 91, 108
2, 627280, Note_on_c, 0, 71, 125
2, 627280, Note_on_c, 0, 76, 125
2, 627288, Note_on_c, 0, 95, 106
2, 627298, Note_on_c, 0, 83, 0
2, 627309, Note_on_c, 0, 90, 0
2, 627362, Note_on_c, 0, 95, 0
2, 627369, Note_on_c, 0, 90, 100
2, 627378, Note_on_c, 0, 83, 86
2, 627378, Note_on_c, 0, 81, 102
2, 627381, Note_on_c, 0, 75, 105
2, 627396, Note_on_c, 0, 71, 0
2, 627398, Note_on_c, 0, 76, 0
2, 627402, Note_on_c, 0, 91, 0
2, 627436, Note_on_c, 0, 81, 0
2, 627441, Note_on_c, 0, 75, 0
2, 627444, Note_on_c, 0, 83, 0
2, 627455, Note_on_c, 0, 76, 94
2, 627457, Note_on_c, 0, 91, 100
2, 627460, Note_on_c, 0, 95, 94
2, 627482, Note_on_c, 0, 90, 0
2, 627508, Note_on_c, 0, 75, 101
2, 627516, Note_on_c, 0, 76, 0
2, 627522, Note_on_c, 0, 95, 0
2, 627531, Note_on_c, 0, 90, 105
2, 627538, Note_on_c, 0, 83, 84
2, 627538, Note_on_c, 0, 81, 98
2, 627547, Note_on_c, 0, 75, 0
2, 627555, Note_on_c, 0, 76, 90
2, 627558, Note_on_c, 0, 91, 0
2, 627580, Note_on_c, 0, 81, 0
2, 627586, Note_on_c, 0, 83, 0
2, 627596, Note_on_c, 0, 91, 90
2, 627597, Note_on_c, 0, 95, 91
2, 627608, Note_on_c, 0, 76, 0
2, 627608, Note_on_c, 0, 75, 101
2, 627617, Note_on_c, 0, 90, 0
2, 627646, Note_on_c, 0, 75, 0
2, 627655, Note_on_c, 0, 95, 0
2, 627655, Note_on_c, 0, 76, 93
2, 627661, Note_on_c, 0, 90, 97
2, 627667, Note_on_c, 0, 81, 102
2, 627668, Note_on_c, 0, 83, 89
2, 627688, Note_on_c, 0, 91, 0
2, 627713, Note_on_c, 0, 81, 0
2, 627717, Note_on_c, 0, 83, 0
2, 627718, Note_on_c, 0, 75, 105
2, 627719, Note_on_c, 0, 76, 0
2, 627727, Note_on_c, 0, 95, 94
2, 627731, Note_on_c, 0, 91, 87
2, 627752, Note_on_c, 0, 90, 0
2, 627754, Note_on_c, 0, 75, 0
2, 627760, Note_on_c, 0, 76, 99
2, 627788, Note_on_c, 0, 95, 0
2, 627792, Note_on_c, 0, 90, 87
2, 627801, Note_on_c, 0, 81, 100
2, 627801, Note_on_c, 0, 83, 90
2, 627813, Note_on_c, 0, 75, 100
2, 627820, Note_on_c, 0, 91, 0
2, 627826, Note_on_c, 0, 76, 0
2, 627841, Note_on_c, 0, 81, 0
2, 627844, Note_on_c, 0, 83, 0
2, 627852, Note_on_c, 0, 95, 101
2, 627853, Note_on_c, 0, 75, 0
2, 627854, Note_on_c, 0, 76, 96
2, 627854, Note_on_c, 0, 91, 84
2, 627877, Note_on_c, 0, 90, 0
2, 627896, Note_on_c, 0, 75, 118
2, 627905, Note_on_c, 0, 95, 0
2, 627905, Note_on_c, 0, 90, 93
2, 627912, Note_on_c, 0, 76, 0
2, 627914, Note_on_c, 0, 81, 113
2, 627914, Note_on_c, 0, 83, 92
2, 627935, Note_on_c, 0, 75, 0
2, 627935, Note_on_c, 0, 91, 0
2, 627941, Note_on_c, 0, 76, 104
2, 627956, Note_on_c, 0, 81, 0
2, 627960, Note_on_c, 0, 83, 0
2, 627960, Note_on_c, 0, 71, 99
2, 627965, Note_on_c, 0, 95, 107
2, 627965, Note_on_c, 0, 91, 92
2, 627989, Note_on_c, 0, 90, 0
2, 628019, Note_on_c, 0, 95, 0
2, 628020, Note_on_c, 0, 90, 79
2, 628025, Note_on_c, 0, 71, 0
2, 628029, Note_on_c, 0, 83, 80
2, 628030, Note_on_c, 0, 81, 97
2, 628042, Note_on_c, 0, 75, 106
2, 628047, Note_on_c, 0, 91, 0
2, 628055, Note_on_c, 0, 76, 0
2, 628067, Note_on_c, 0, 81, 0
2, 628076, Note_on_c, 0, 83, 0
2, 628077, Note_on_c, 0, 75, 0
2, 628077, Note_on_c, 0, 95, 97
2, 628077, Note_on_c, 0, 91, 81
2, 628083, Note_on_c, 0, 76, 86
2, 628098, Note_on_c, 0, 90, 0
2, 628122, Note_on_c, 0, 95, 0
2, 628125, Note_on_c, 0, 75, 105
2, 628125, Note_on_c, 0, 90, 92
2, 628130, Note_on_c, 0, 81, 101
2, 628130, Note_on_c, 0, 83, 89
2, 628136, Note_on_c, 0, 76, 0
2, 628150, Note_on_c, 0, 91, 0
2, 628153, Note_on_c, 0, 75, 0
2, 628159, Note_on_c, 0, 76, 82
2, 628167, Note_on_c, 0, 81, 0
2, 628170, Note_on_c, 0, 83, 0
2, 628177, Note_on_c, 0, 95, 101
2, 628186, Note_on_c, 0, 91, 85
2, 628195, Note_on_c, 0, 75, 107
2, 628205, Note_on_c, 0, 76, 0
2, 628205, Note_on_c, 0, 90, 0
2, 628221, Note_on_c, 0, 95, 0
2, 628224, Note_on_c, 0, 75, 0
2, 628227, Note_on_c, 0, 76, 89
2, 628227, Note_on_c, 0, 83, 78
2, 628228, Note_on_c, 0, 81, 91
2, 628239, Note_on_c, 0, 90, 46
2, 628244, Note_on_c, 0, 91, 0
2, 628261, Note_on_c, 0, 75, 103
2, 628266, Note_on_c, 0, 81, 0
2, 628270, Note_on_c, 0, 83, 0
2, 628271, Note_on_c, 0, 95, 100
2, 628275, Note_on_c, 0, 76, 0
2, 628279, Note_on_c, 0, 91, 63
2, 628290, Note_on_c, 0, 75, 0
2, 628291, Note_on_c, 0, 76, 85
2, 628307, Note_on_c, 0, 83, 92
2, 628308, Note_on_c, 0, 81, 94
2, 628310, Note_on_c, 0, 95, 0
2, 628321, Note_on_c, 0, 75, 106
2, 628325, Note_on_c, 0, 91, 0
2, 628338, Note_on_c, 0, 76, 0
2, 628344, Note_on_c, 0, 81, 0
2, 628348, Note_on_c, 0, 95, 75
2, 628349, Note_on_c, 0, 83, 0
2, 628351, Note_on_c, 0, 91, 94
2, 628353, Note_on_c, 0, 76, 88
2, 628354, Note_on_c, 0, 75, 0
2, 628372, Note_on_c, 0, 95, 0
2, 628380, Note_on_c, 0, 83, 71
2, 628380, Note_on_c, 0, 81, 94
2, 628382, Note_on_c, 0, 75, 104
2, 628395, Note_on_c, 0, 91, 0
2, 628400, Note_on_c, 0, 76, 0
2, 628401, Note_on_c, 0, 90, 0
2, 628412, Note_on_c, 0, 75, 0
2, 628414, Note_on_c, 0, 76, 73
2, 628419, Note_on_c, 0, 81, 0
2, 628421, Note_on_c, 0, 91, 87
2, 628421, Note_on_c, 0, 90, 84
2, 628422, Note_on_c, 0, 83, 0
2, 628425, Note_on_c, 0, 95, 87
2, 628444, Note_on_c, 0, 75, 99
2, 628448, Note_on_c, 0, 83, 78
2, 628448, Note_on_c, 0, 81, 103
2, 628456, Note_on_c, 0, 95, 0
2, 628465, Note_on_c, 0, 91, 0
2, 628471, Note_on_c, 0, 75, 0
2, 628474, Note_on_c, 0, 90, 0
2, 628490, Note_on_c, 0, 81, 0
2, 628493, Note_on_c, 0, 90, 95
2, 628494, Note_on_c, 0, 83, 0
2, 628495, Note_on_c, 0, 91, 85
2, 628497, Note_on_c, 0, 95, 81
2, 628500, Note_on_c, 0, 75, 100
2, 628517, Note_on_c, 0, 83, 59
2, 628520, Note_on_c, 0, 81, 79
2, 628523, Note_on_c, 0, 76, 0
2, 628528, Note_on_c, 0, 95, 0
2, 628533, Note_on_c, 0, 91, 0
2, 628533, Note_on_c, 0, 75, 0
2, 628535, Note_on_c, 0, 76, 85
2, 628544, Note_on_c, 0, 90, 0
2, 628560, Note_on_c, 0, 75, 107
2, 628565, Note_on_c, 0, 91, 88
2, 628566, Note_on_c, 0, 90, 87
2, 628577, Note_on_c, 0, 95, 69
2, 628585, Note_on_c, 0, 76, 0
2, 628602, Note_on_c, 0, 81, 0
2, 628606, Note_on_c, 0, 83, 0
2, 628627, Note_on_c, 0, 95, 0
2, 628668, Note_on_c, 0, 75, 0
2, 628677, Note_on_c, 0, 73, 123
2, 628687, Note_on_c, 0, 91, 0
2, 628693, Note_on_c, 0, 88, 96
2, 628701, Note_on_c, 0, 90, 0
2, 628753, Note_on_c, 0, 88, 0
2, 628790, Note_on_c, 0, 73, 0
2, 628799, Note_on_c, 0, 90, 121
2, 628801, Note_on_c, 0, 75, 124
2, 628839, Note_on_c, 0, 90, 0
2, 628856, Note_on_c, 0, 75, 0
2, 629023, Note_on_c, 0, 72, 117
2, 629023, Note_on_c, 0, 76, 122
2, 629024, Note_on_c, 0, 91, 109
2, 629025, Note_on_c, 0, 79, 118
2, 629028, Note_on_c, 0, 88, 111
2, 629028, Note_on_c, 0, 100, 100
2, 629029, Note_on_c, 0, 96, 107
2, 629062, Control_c, 0, 64, 63
2, 629067, Control_c, 0, 64, 0
2, 629122, Control_c, 0, 64, 63
2, 629126, Control_c, 0, 64, 127
2, 629145, Note_on_c, 0, 79, 0
2, 629147, Note_on_c, 0, 76, 0
2, 629162, Note_on_c, 0, 72, 0
2, 629164, Note_on_c, 0, 100, 0
2, 629168, Note_on_c, 0, 91, 0
2, 629171, Note_on_c, 0, 88, 0
2, 629172, Note_on_c, 0, 96, 0
2, 629686, Control_c, 0, 64, 63
2, 629714, Control_c, 0, 64, 0
2, 649440, End_track
3, 0, Start_track
3, 0, Title_t, "Timpani                             "
3, 0, Control_c, 1, 121, 0
3, 80, Control_c, 1, 101, 0
3, 100, Control_c, 1, 100, 0
3, 120, Control_c, 1, 6, 12
3, 140, Control_c, 1, 10, 64
3, 160, Control_c, 1, 7, 100
3, 180, Control_c, 1, 0, 0
3, 200, Program_c, 1, 47
3, 220, Control_c, 1, 91, 120
3, 240, Control_c, 1, 93, 0
3, 260, Control_c, 1, 1, 12
3, 280, Control_c, 1, 11, 80
3, 300, Pitch_bend_c, 1, 8192
3, 320, Control_c, 1, 99, 1
3, 340, Control_c, 1, 98, 32
3, 360, Control_c, 1, 6, 64
3, 380, Control_c, 1, 98, 33
3, 400, Control_c, 1, 6, 54
3, 420, Control_c, 1, 98, 99
3, 440, Control_c, 1, 6, 64
3, 460, Control_c, 1, 98, 100
3, 480, Control_c, 1, 6, 64
3, 500, Control_c, 1, 98, 102
3, 705, Control_c, 1, 6, 66
3, 1735, Note_on_c, 1, 40, 122
3, 1862, Note_on_c, 1, 41, 59
3, 1872, Note_on_c, 1, 40, 0
3, 1914, Note_on_c, 1, 40, 59
3, 1928, Note_on_c, 1, 41, 0
3, 1968, Note_on_c, 1, 41, 65
3, 1977, Note_on_c, 1, 40, 0
3, 2011, Note_on_c, 1, 40, 50
3, 2025, Note_on_c, 1, 41, 0
3, 2050, Note_on_c, 1, 41, 47
3, 2063, Note_on_c, 1, 40, 0
3, 2097, Note_on_c, 1, 40, 68
3, 2098, Note_on_c, 1, 41, 0
3, 2132, Note_on_c, 1, 41, 82
3, 2136, Note_on_c, 1, 40, 0
3, 2170, Note_on_c, 1, 40, 73
3, 2177, Note_on_c, 1, 41, 0
3, 2204, Note_on_c, 1, 41, 74
3, 2210, Note_on_c, 1, 40, 0
3, 2239, Note_on_c, 1, 40, 84
3, 2247, Note_on_c, 1, 41, 0
3, 2273, Note_on_c, 1, 41, 80
3, 2278, Note_on_c, 1, 40, 0
3, 2305, Note_on_c, 1, 40, 88
3, 2317, Note_on_c, 1, 41, 0
3, 2342, Note_on_c, 1, 41, 80
3, 2345, Note_on_c, 1, 40, 0
3, 2374, Note_on_c, 1, 40, 86
3, 2386, Note_on_c, 1, 41, 0
3, 2408, Note_on_c, 1, 41, 66
3, 2411, Note_on_c, 1, 40, 0
3, 2443, Note_on_c, 1, 40, 73
3, 2447, Note_on_c, 1, 41, 0
3, 2477, Note_on_c, 1, 40, 0
3, 2478, Note_on_c, 1, 41, 65
3, 2509, Note_on_c, 1, 40, 74
3, 2519, Note_on_c, 1, 41, 0
3, 2543, Note_on_c, 1, 41, 24
3, 2576, Note_on_c, 1, 47, 97
3, 2578, Note_on_c, 1, 40, 0
3, 2581, Note_on_c, 1, 41, 0
3, 2620, Note_on_c, 1, 47, 0
3, 2875, Note_on_c, 1, 47, 107
3, 2911, Note_on_c, 1, 47, 0
3, 3188, Note_on_c, 1, 47, 122
3, 3226, Note_on_c, 1, 47, 0
3, 3488, Note_on_c, 1, 40, 118
3, 3647, Note_on_c, 1, 41, 62
3, 3667, Note_on_c, 1, 40, 0
3, 3711, Note_on_c, 1, 40, 64
3, 3712, Note_on_c, 1, 41, 0
3, 3754, Note_on_c, 1, 41, 57
3, 3779, Note_on_c, 1, 40, 0
3, 3800, Note_on_c, 1, 40, 39
3, 3804, Note_on_c, 1, 41, 0
3, 3835, Note_on_c, 1, 41, 76
3, 3842, Note_on_c, 1, 40, 0
3, 3877, Note_on_c, 1, 40, 77
3, 3884, Note_on_c, 1, 41, 0
3, 3913, Note_on_c, 1, 41, 83
3, 3919, Note_on_c, 1, 40, 0
3, 3947, Note_on_c, 1, 40, 90
3, 3956, Note_on_c, 1, 41, 0
3, 3981, Note_on_c, 1, 41, 85
3, 3987, Note_on_c, 1, 40, 0
3, 4013, Note_on_c, 1, 40, 92
3, 4031, Note_on_c, 1, 41, 0
3, 4049, Note_on_c, 1, 41, 68
3, 4056, Note_on_c, 1, 40, 0
3, 4082, Note_on_c, 1, 40, 92
3, 4100, Note_on_c, 1, 41, 0
3, 4120, Note_on_c, 1, 41, 76
3, 4125, Note_on_c, 1, 40, 0
3, 4151, Note_on_c, 1, 40, 91
3, 4171, Note_on_c, 1, 41, 0
3, 4188, Note_on_c, 1, 41, 68
3, 4193, Note_on_c, 1, 40, 0
3, 4219, Note_on_c, 1, 40, 93
3, 4238, Note_on_c, 1, 41, 0
3, 4256, Note_on_c, 1, 41, 76
3, 4259, Note_on_c, 1, 40, 0
3, 4276, Note_on_c, 1, 40, 72
3, 4331, Note_on_c, 1, 40, 0
3, 4359, Note_on_c, 1, 41, 0
3, 4382, Note_on_c, 1, 47, 82
3, 4424, Note_on_c, 1, 47, 0
3, 4650, Note_on_c, 1, 47, 111
3, 4694, Note_on_c, 1, 47, 0
3, 4946, Note_on_c, 1, 47, 122
3, 5008, Note_on_c, 1, 48, 91
3, 5030, Note_on_c, 1, 47, 0
3, 5065, Note_on_c, 1, 48, 0
3, 5070, Note_on_c, 1, 47, 63
3, 5093, Note_on_c, 1, 48, 91
3, 5098, Note_on_c, 1, 47, 0
3, 5127, Note_on_c, 1, 47, 79
3, 5133, Note_on_c, 1, 48, 0
3, 5148, Note_on_c, 1, 48, 72
3, 5166, Note_on_c, 1, 47, 0
3, 5185, Note_on_c, 1, 47, 94
3, 5234, Note_on_c, 1, 48, 0
3, 5240, Note_on_c, 1, 47, 0
3, 5256, Note_on_c, 1, 40, 109
3, 5341, Note_on_c, 1, 40, 0
3, 5535, Note_on_c, 1, 47, 101
3, 5773, Note_on_c, 1, 47, 0
3, 5828, Note_on_c, 1, 48, 106
3, 5866, Note_on_c, 1, 48, 0
3, 6108, Note_on_c, 1, 40, 118
3, 6183, Note_on_c, 1, 41, 68
3, 6187, Note_on_c, 1, 40, 0
3, 6232, Note_on_c, 1, 41, 0
3, 6234, Note_on_c, 1, 40, 78
3, 6272, Note_on_c, 1, 41, 69
3, 6276, Note_on_c, 1, 40, 0
3, 6310, Note_on_c, 1, 40, 71
3, 6315, Note_on_c, 1, 41, 0
3, 6345, Note_on_c, 1, 41, 74
3, 6347, Note_on_c, 1, 40, 0
3, 6379, Note_on_c, 1, 40, 76
3, 6380, Note_on_c, 1, 41, 0
3, 6407, Note_on_c, 1, 40, 0
3, 6413, Note_on_c, 1, 41, 71
3, 6436, Note_on_c, 1, 40, 84
3, 6437, Note_on_c, 1, 41, 0
3, 6478, Note_on_c, 1, 40, 0
3, 8482, Note_on_c, 1, 40, 118
3, 8561, Note_on_c, 1, 41, 76
3, 8580, Note_on_c, 1, 40, 0
3, 8620, Note_on_c, 1, 40, 74
3, 8621, Note_on_c, 1, 41, 0
3, 8662, Note_on_c, 1, 41, 58
3, 8667, Note_on_c, 1, 40, 0
3, 8707, Note_on_c, 1, 41, 0
3, 8707, Note_on_c, 1, 40, 80
3, 8742, Note_on_c, 1, 41, 75
3, 8744, Note_on_c, 1, 40, 0
3, 8773, Note_on_c, 1, 40, 99
3, 8789, Note_on_c, 1, 41, 0
3, 8815, Note_on_c, 1, 41, 85
3, 8818, Note_on_c, 1, 40, 0
3, 8850, Note_on_c, 1, 40, 77
3, 8861, Note_on_c, 1, 41, 0
3, 8893, Note_on_c, 1, 40, 0
3, 8897, Note_on_c, 1, 41, 59
3, 8925, Note_on_c, 1, 41, 0
3, 8933, Note_on_c, 1, 40, 55
3, 8967, Note_on_c, 1, 41, 55
3, 8971, Note_on_c, 1, 40, 0
3, 9009, Note_on_c, 1, 41, 0
3, 9015, Note_on_c, 1, 40, 40
3, 9048, Note_on_c, 1, 41, 51
3, 9060, Note_on_c, 1, 40, 0
3, 9087, Note_on_c, 1, 40, 37
3, 9091, Note_on_c, 1, 41, 0
3, 9121, Note_on_c, 1, 41, 63
3, 9136, Note_on_c, 1, 40, 0
3, 9167, Note_on_c, 1, 41, 0
3, 9170, Note_on_c, 1, 40, 42
3, 9198, Note_on_c, 1, 41, 71
3, 9206, Note_on_c, 1, 40, 0
3, 9238, Note_on_c, 1, 40, 51
3, 9240, Note_on_c, 1, 41, 0
3, 9271, Note_on_c, 1, 41, 79
3, 9276, Note_on_c, 1, 40, 0
3, 9308, Note_on_c, 1, 40, 76
3, 9310, Note_on_c, 1, 41, 0
3, 9340, Note_on_c, 1, 41, 84
3, 9342, Note_on_c, 1, 40, 0
3, 9374, Note_on_c, 1, 40, 76
3, 9384, Note_on_c, 1, 41, 0
3, 9411, Note_on_c, 1, 40, 0
3, 9412, Note_on_c, 1, 41, 86
3, 9440, Note_on_c, 1, 40, 88
3, 9451, Note_on_c, 1, 41, 0
3, 9481, Note_on_c, 1, 41, 78
3, 9483, Note_on_c, 1, 40, 0
3, 9498, Note_on_c, 1, 40, 55
3, 9516, Note_on_c, 1, 41, 0
3, 9544, Note_on_c, 1, 41, 89
3, 9547, Note_on_c, 1, 40, 0
3, 9574, Note_on_c, 1, 40, 90
3, 9586, Note_on_c, 1, 41, 0
3, 9614, Note_on_c, 1, 41, 82
3, 9651, Note_on_c, 1, 41, 0
3, 9674, Note_on_c, 1, 40, 0
3, 9892, Note_on_c, 1, 40, 120
3, 9933, Note_on_c, 1, 40, 0
3, 10222, Note_on_c, 1, 40, 126
3, 10262, Note_on_c, 1, 40, 0
3, 10540, Note_on_c, 1, 48, 122
3, 10658, Note_on_c, 1, 48, 0
3, 10661, Note_on_c, 1, 50, 59
3, 10699, Note_on_c, 1, 50, 0
3, 10701, Note_on_c, 1, 48, 65
3, 10747, Note_on_c, 1, 50, 64
3, 10753, Note_on_c, 1, 48, 0
3, 10778, Note_on_c, 1, 50, 0
3, 10779, Note_on_c, 1, 48, 67
3, 10815, Note_on_c, 1, 50, 79
3, 10827, Note_on_c, 1, 48, 0
3, 10850, Note_on_c, 1, 48, 69
3, 10852, Note_on_c, 1, 50, 0
3, 10881, Note_on_c, 1, 50, 89
3, 10893, Note_on_c, 1, 48, 0
3, 10915, Note_on_c, 1, 50, 0
3, 10915, Note_on_c, 1, 48, 81
3, 10942, Note_on_c, 1, 50, 100
3, 10963, Note_on_c, 1, 48, 0
3, 10981, Note_on_c, 1, 50, 0
3, 10984, Note_on_c, 1, 48, 99
3, 11008, Note_on_c, 1, 50, 98
3, 11032, Note_on_c, 1, 48, 0
3, 11050, Note_on_c, 1, 48, 90
3, 11051, Note_on_c, 1, 50, 0
3, 11075, Note_on_c, 1, 50, 102
3, 11096, Note_on_c, 1, 48, 0
3, 11113, Note_on_c, 1, 48, 87
3, 11117, Note_on_c, 1, 50, 0
3, 11141, Note_on_c, 1, 50, 103
3, 11159, Note_on_c, 1, 48, 0
3, 11178, Note_on_c, 1, 48, 86
3, 11180, Note_on_c, 1, 50, 0
3, 11205, Note_on_c, 1, 50, 102
3, 11224, Note_on_c, 1, 48, 0
3, 11243, Note_on_c, 1, 48, 77
3, 11248, Note_on_c, 1, 50, 0
3, 11260, Note_on_c, 1, 50, 64
3, 11284, Note_on_c, 1, 48, 0
3, 11306, Note_on_c, 1, 48, 96
3, 11310, Note_on_c, 1, 50, 0
3, 11373, Note_on_c, 1, 47, 116
3, 11398, Note_on_c, 1, 48, 0
3, 11422, Note_on_c, 1, 47, 0
3, 11659, Note_on_c, 1, 47, 114
3, 11696, Note_on_c, 1, 47, 0
3, 12210, Note_on_c, 1, 40, 125
3, 12259, Note_on_c, 1, 40, 0
3, 15149, Note_on_c, 1, 40, 114
3, 15193, Note_on_c, 1, 40, 0
3, 15438, Note_on_c, 1, 48, 114
3, 15485, Note_on_c, 1, 48, 0
3, 15745, Note_on_c, 1, 40, 112
3, 15788, Note_on_c, 1, 40, 0
3, 18845, Note_on_c, 1, 40, 112
3, 18914, Note_on_c, 1, 40, 0
3, 19136, Note_on_c, 1, 48, 106
3, 19207, Note_on_c, 1, 48, 0
3, 19424, Note_on_c, 1, 40, 106
3, 19493, Note_on_c, 1, 40, 0
3, 20603, Note_on_c, 1, 47, 109
3, 20663, Note_on_c, 1, 47, 0
3, 20910, Note_on_c, 1, 48, 116
3, 20958, Note_on_c, 1, 48, 0
3, 21323, Note_on_c, 1, 48, 108
3, 21483, Note_on_c, 1, 50, 54
3, 21488, Note_on_c, 1, 48, 0
3, 21550, Note_on_c, 1, 50, 0
3, 21555, Note_on_c, 1, 48, 39
3, 21631, Note_on_c, 1, 48, 0
3, 21633, Note_on_c, 1, 50, 43
3, 21678, Note_on_c, 1, 48, 29
3, 21682, Note_on_c, 1, 50, 0
3, 21742, Note_on_c, 1, 48, 0
3, 21747, Note_on_c, 1, 50, 39
3, 21778, Note_on_c, 1, 48, 33
3, 21783, Note_on_c, 1, 50, 0
3, 21829, Note_on_c, 1, 50, 48
3, 21833, Note_on_c, 1, 48, 0
3, 21863, Note_on_c, 1, 48, 21
3, 21867, Note_on_c, 1, 50, 0
3, 21908, Note_on_c, 1, 50, 54
3, 21911, Note_on_c, 1, 48, 0
3, 21946, Note_on_c, 1, 48, 31
3, 21949, Note_on_c, 1, 50, 0
3, 21984, Note_on_c, 1, 50, 39
3, 22027, Note_on_c, 1, 50, 0
3, 22069, Note_on_c, 1, 50, 39
3, 22104, Note_on_c, 1, 50, 0
3, 22146, Note_on_c, 1, 50, 40
3, 22186, Note_on_c, 1, 50, 0
3, 22222, Note_on_c, 1, 50, 18
3, 22271, Note_on_c, 1, 50, 0
3, 22299, Note_on_c, 1, 50, 22
3, 22356, Note_on_c, 1, 50, 0
3, 22466, Note_on_c, 1, 50, 5
3, 22566, Note_on_c, 1, 50, 0
3, 22714, Note_on_c, 1, 48, 0
3, 36240, Control_c, 1, 11, 100
3, 36318, Note_on_c, 1, 40, 118
3, 36394, Note_on_c, 1, 40, 0
3, 36401, Note_on_c, 1, 41, 68
3, 36444, Note_on_c, 1, 40, 72
3, 36448, Note_on_c, 1, 41, 0
3, 36488, Note_on_c, 1, 41, 63
3, 36495, Note_on_c, 1, 40, 0
3, 36524, Note_on_c, 1, 40, 54
3, 36527, Note_on_c, 1, 41, 0
3, 36565, Note_on_c, 1, 41, 55
3, 36575, Note_on_c, 1, 40, 0
3, 36601, Note_on_c, 1, 40, 42
3, 36603, Note_on_c, 1, 41, 0
3, 36635, Note_on_c, 1, 41, 46
3, 36648, Note_on_c, 1, 40, 0
3, 36678, Note_on_c, 1, 40, 35
3, 36679, Note_on_c, 1, 41, 0
3, 36712, Note_on_c, 1, 41, 39
3, 36724, Note_on_c, 1, 40, 0
3, 36752, Note_on_c, 1, 40, 49
3, 36756, Note_on_c, 1, 41, 0
3, 36799, Note_on_c, 1, 41, 59
3, 36812, Note_on_c, 1, 40, 0
3, 36845, Note_on_c, 1, 40, 79
3, 36860, Note_on_c, 1, 41, 0
3, 36886, Note_on_c, 1, 40, 0
3, 37091, Note_on_c, 1, 40, 122
3, 37168, Note_on_c, 1, 40, 0
3, 37212, Note_on_c, 1, 40, 65
3, 37254, Note_on_c, 1, 41, 57
3, 37257, Note_on_c, 1, 40, 0
3, 37286, Note_on_c, 1, 41, 0
3, 37289, Note_on_c, 1, 40, 43
3, 37322, Note_on_c, 1, 41, 57
3, 37326, Note_on_c, 1, 40, 0
3, 37363, Note_on_c, 1, 41, 0
3, 37366, Note_on_c, 1, 40, 55
3, 37399, Note_on_c, 1, 41, 64
3, 37400, Note_on_c, 1, 40, 0
3, 37438, Note_on_c, 1, 41, 0
3, 37440, Note_on_c, 1, 40, 52
3, 37478, Note_on_c, 1, 41, 54
3, 37514, Note_on_c, 1, 41, 0
3, 37553, Note_on_c, 1, 41, 52
3, 37565, Note_on_c, 1, 40, 0
3, 37620, Note_on_c, 1, 40, 70
3, 37626, Note_on_c, 1, 41, 0
3, 37649, Note_on_c, 1, 40, 0
3, 37871, Note_on_c, 1, 47, 124
3, 37950, Note_on_c, 1, 47, 0
3, 37950, Note_on_c, 1, 48, 66
3, 37986, Note_on_c, 1, 47, 64
3, 37990, Note_on_c, 1, 48, 0
3, 38024, Note_on_c, 1, 48, 65
3, 38033, Note_on_c, 1, 47, 0
3, 38065, Note_on_c, 1, 47, 62
3, 38066, Note_on_c, 1, 48, 0
3, 38102, Note_on_c, 1, 47, 0
3, 38102, Note_on_c, 1, 48, 58
3, 38142, Note_on_c, 1, 48, 0
3, 38143, Note_on_c, 1, 47, 57
3, 38177, Note_on_c, 1, 47, 0
3, 38179, Note_on_c, 1, 48, 57
3, 38218, Note_on_c, 1, 47, 56
3, 38219, Note_on_c, 1, 48, 0
3, 38257, Note_on_c, 1, 47, 0
3, 38262, Note_on_c, 1, 48, 54
3, 38311, Note_on_c, 1, 47, 33
3, 38363, Note_on_c, 1, 48, 0
3, 38393, Note_on_c, 1, 47, 0
3, 38393, Note_on_c, 1, 40, 96
3, 38417, Note_on_c, 1, 40, 0
3, 38664, Note_on_c, 1, 47, 121
3, 38712, Note_on_c, 1, 47, 0
3, 38729, Note_on_c, 1, 48, 76
3, 38759, Note_on_c, 1, 47, 79
3, 38766, Note_on_c, 1, 48, 0
3, 38796, Note_on_c, 1, 48, 65
3, 38801, Note_on_c, 1, 47, 0
3, 38835, Note_on_c, 1, 47, 63
3, 38843, Note_on_c, 1, 48, 0
3, 38870, Note_on_c, 1, 48, 71
3, 38872, Note_on_c, 1, 47, 0
3, 38914, Note_on_c, 1, 47, 57
3, 38918, Note_on_c, 1, 48, 0
3, 38941, Note_on_c, 1, 47, 0
3, 38947, Note_on_c, 1, 48, 50
3, 38996, Note_on_c, 1, 48, 0
3, 38996, Note_on_c, 1, 47, 45
3, 39026, Note_on_c, 1, 47, 0
3, 39058, Note_on_c, 1, 48, 33
3, 39110, Note_on_c, 1, 47, 51
3, 39125, Note_on_c, 1, 48, 0
3, 39186, Note_on_c, 1, 40, 90
3, 39196, Note_on_c, 1, 47, 0
3, 39221, Note_on_c, 1, 40, 0
3, 39460, Note_on_c, 1, 40, 124
3, 39537, Note_on_c, 1, 40, 0
3, 39550, Note_on_c, 1, 41, 47
3, 39582, Note_on_c, 1, 41, 0
3, 39582, Note_on_c, 1, 40, 68
3, 39620, Note_on_c, 1, 41, 58
3, 39626, Note_on_c, 1, 40, 0
3, 39661, Note_on_c, 1, 41, 0
3, 39662, Note_on_c, 1, 40, 70
3, 39696, Note_on_c, 1, 41, 71
3, 39698, Note_on_c, 1, 40, 0
3, 39742, Note_on_c, 1, 41, 0
3, 39750, Note_on_c, 1, 40, 58
3, 39782, Note_on_c, 1, 40, 0
3, 39787, Note_on_c, 1, 41, 43
3, 39851, Note_on_c, 1, 41, 0
3, 39858, Note_on_c, 1, 40, 50
3, 39971, Note_on_c, 1, 47, 87
3, 39981, Note_on_c, 1, 40, 0
3, 40008, Note_on_c, 1, 47, 0
3, 40254, Note_on_c, 1, 40, 118
3, 40321, Note_on_c, 1, 41, 88
3, 40325, Note_on_c, 1, 40, 0
3, 40373, Note_on_c, 1, 41, 0
3, 40380, Note_on_c, 1, 40, 86
3, 40417, Note_on_c, 1, 40, 0
3, 40420, Note_on_c, 1, 41, 76
3, 40457, Note_on_c, 1, 41, 0
3, 40458, Note_on_c, 1, 40, 87
3, 40495, Note_on_c, 1, 40, 0
3, 40502, Note_on_c, 1, 41, 84
3, 40537, Note_on_c, 1, 40, 83
3, 40541, Note_on_c, 1, 41, 0
3, 40577, Note_on_c, 1, 40, 0
3, 40587, Note_on_c, 1, 41, 65
3, 40620, Note_on_c, 1, 41, 0
3, 40632, Note_on_c, 1, 40, 82
3, 40753, Note_on_c, 1, 40, 0
3, 40782, Note_on_c, 1, 47, 121
3, 40796, Note_on_c, 1, 48, 57
3, 40822, Note_on_c, 1, 48, 0
3, 40888, Note_on_c, 1, 47, 0
3, 40896, Note_on_c, 1, 48, 47
3, 40945, Note_on_c, 1, 48, 0
3, 41014, Note_on_c, 1, 47, 58
3, 41048, Note_on_c, 1, 47, 0
3, 41059, Note_on_c, 1, 48, 22
3, 41077, Note_on_c, 1, 47, 49
3, 41083, Note_on_c, 1, 48, 0
3, 41118, Note_on_c, 1, 47, 0
3, 41122, Note_on_c, 1, 48, 37
3, 41157, Note_on_c, 1, 47, 37
3, 41329, Note_on_c, 1, 47, 0
3, 41352, Note_on_c, 1, 47, 36
3, 41521, Note_on_c, 1, 47, 0
3, 41542, Note_on_c, 1, 47, 41
3, 41561, Note_on_c, 1, 48, 0
3, 41593, Note_on_c, 1, 47, 0
3, 41603, Note_on_c, 1, 40, 116
3, 41637, Note_on_c, 1, 40, 0
3, 41877, Note_on_c, 1, 40, 111
3, 41905, Note_on_c, 1, 40, 0
3, 42142, Note_on_c, 1, 40, 104
3, 42178, Note_on_c, 1, 40, 0
3, 42414, Note_on_c, 1, 47, 124
3, 42510, Note_on_c, 1, 48, 80
3, 42519, Note_on_c, 1, 47, 0
3, 42562, Note_on_c, 1, 48, 0
3, 42564, Note_on_c, 1, 47, 40
3, 42599, Note_on_c, 1, 48, 65
3, 42600, Note_on_c, 1, 47, 0
3, 42633, Note_on_c, 1, 47, 47
3, 42642, Note_on_c, 1, 48, 0
3, 42671, Note_on_c, 1, 48, 41
3, 42678, Note_on_c, 1, 47, 0
3, 42704, Note_on_c, 1, 47, 46
3, 42715, Note_on_c, 1, 48, 0
3, 42746, Note_on_c, 1, 48, 42
3, 42752, Note_on_c, 1, 47, 0
3, 42775, Note_on_c, 1, 47, 38
3, 42786, Note_on_c, 1, 48, 0
3, 42817, Note_on_c, 1, 48, 47
3, 42822, Note_on_c, 1, 47, 0
3, 42848, Note_on_c, 1, 47, 44
3, 42858, Note_on_c, 1, 48, 0
3, 42882, Note_on_c, 1, 48, 44
3, 42894, Note_on_c, 1, 47, 0
3, 42917, Note_on_c, 1, 47, 45
3, 42928, Note_on_c, 1, 48, 0
3, 42947, Note_on_c, 1, 48, 45
3, 42962, Note_on_c, 1, 47, 0
3, 42982, Note_on_c, 1, 47, 47
3, 43026, Note_on_c, 1, 47, 0
3, 43056, Note_on_c, 1, 47, 46
3, 43121, Note_on_c, 1, 48, 0
3, 43140, Note_on_c, 1, 47, 0
3, 43158, Note_on_c, 1, 40, 97
3, 43182, Note_on_c, 1, 40, 0
3, 43420, Note_on_c, 1, 40, 93
3, 43437, Note_on_c, 1, 40, 0
3, 43666, Note_on_c, 1, 40, 124
3, 43711, Note_on_c, 1, 40, 0
3, 43735, Note_on_c, 1, 41, 88
3, 43769, Note_on_c, 1, 40, 87
3, 43774, Note_on_c, 1, 41, 0
3, 43805, Note_on_c, 1, 41, 82
3, 43806, Note_on_c, 1, 40, 0
3, 43836, Note_on_c, 1, 40, 80
3, 43847, Note_on_c, 1, 41, 0
3, 43871, Note_on_c, 1, 41, 77
3, 43874, Note_on_c, 1, 40, 0
3, 43893, Note_on_c, 1, 40, 80
3, 43914, Note_on_c, 1, 41, 0
3, 43917, Note_on_c, 1, 47, 125
3, 43930, Note_on_c, 1, 40, 0
3, 44021, Note_on_c, 1, 47, 0
3, 83520, Control_c, 1, 11, 100
3, 84491, Note_on_c, 1, 40, 122
3, 84612, Note_on_c, 1, 40, 0
3, 84614, Note_on_c, 1, 41, 58
3, 84660, Note_on_c, 1, 41, 0
3, 84667, Note_on_c, 1, 40, 66
3, 84711, Note_on_c, 1, 40, 0
3, 84712, Note_on_c, 1, 41, 51
3, 84753, Note_on_c, 1, 41, 0
3, 84759, Note_on_c, 1, 40, 51
3, 84787, Note_on_c, 1, 40, 0
3, 84800, Note_on_c, 1, 41, 47
3, 84832, Note_on_c, 1, 41, 0
3, 84836, Note_on_c, 1, 40, 51
3, 84864, Note_on_c, 1, 40, 0
3, 84877, Note_on_c, 1, 41, 51
3, 84907, Note_on_c, 1, 41, 0
3, 84911, Note_on_c, 1, 40, 60
3, 84937, Note_on_c, 1, 40, 0
3, 84948, Note_on_c, 1, 41, 60
3, 84982, Note_on_c, 1, 41, 0
3, 84984, Note_on_c, 1, 40, 65
3, 85011, Note_on_c, 1, 40, 0
3, 85018, Note_on_c, 1, 41, 65
3, 85053, Note_on_c, 1, 40, 72
3, 85057, Note_on_c, 1, 41, 0
3, 85086, Note_on_c, 1, 41, 71
3, 85087, Note_on_c, 1, 40, 0
3, 85122, Note_on_c, 1, 40, 73
3, 85128, Note_on_c, 1, 41, 0
3, 85152, Note_on_c, 1, 41, 65
3, 85157, Note_on_c, 1, 40, 0
3, 85190, Note_on_c, 1, 40, 77
3, 85193, Note_on_c, 1, 41, 0
3, 85219, Note_on_c, 1, 41, 63
3, 85227, Note_on_c, 1, 40, 0
3, 85256, Note_on_c, 1, 40, 84
3, 85261, Note_on_c, 1, 41, 0
3, 85287, Note_on_c, 1, 41, 78
3, 85291, Note_on_c, 1, 40, 0
3, 85318, Note_on_c, 1, 40, 94
3, 85328, Note_on_c, 1, 41, 0
3, 85353, Note_on_c, 1, 41, 92
3, 85393, Note_on_c, 1, 41, 0
3, 85411, Note_on_c, 1, 47, 118
3, 85420, Note_on_c, 1, 40, 0
3, 85499, Note_on_c, 1, 47, 0
3, 87381, Note_on_c, 1, 40, 94
3, 87407, Note_on_c, 1, 40, 0
3, 87665, Note_on_c, 1, 40, 117
3, 87695, Note_on_c, 1, 40, 0
3, 87981, Note_on_c, 1, 40, 125
3, 88086, Note_on_c, 1, 40, 0
3, 88088, Note_on_c, 1, 41, 64
3, 88134, Note_on_c, 1, 41, 0
3, 88137, Note_on_c, 1, 40, 69
3, 88170, Note_on_c, 1, 40, 0
3, 88175, Note_on_c, 1, 41, 63
3, 88214, Note_on_c, 1, 41, 0
3, 88215, Note_on_c, 1, 40, 69
3, 88246, Note_on_c, 1, 40, 0
3, 88253, Note_on_c, 1, 41, 59
3, 88291, Note_on_c, 1, 41, 0
3, 88291, Note_on_c, 1, 40, 67
3, 88317, Note_on_c, 1, 40, 0
3, 88327, Note_on_c, 1, 41, 65
3, 88360, Note_on_c, 1, 40, 80
3, 88361, Note_on_c, 1, 41, 0
3, 88394, Note_on_c, 1, 40, 0
3, 88394, Note_on_c, 1, 41, 76
3, 88431, Note_on_c, 1, 40, 85
3, 88436, Note_on_c, 1, 41, 0
3, 88463, Note_on_c, 1, 41, 76
3, 88464, Note_on_c, 1, 40, 0
3, 88498, Note_on_c, 1, 40, 89
3, 88506, Note_on_c, 1, 41, 0
3, 88532, Note_on_c, 1, 41, 83
3, 88533, Note_on_c, 1, 40, 0
3, 88565, Note_on_c, 1, 40, 93
3, 88575, Note_on_c, 1, 41, 0
3, 88598, Note_on_c, 1, 41, 93
3, 88602, Note_on_c, 1, 40, 0
3, 88632, Note_on_c, 1, 40, 101
3, 88644, Note_on_c, 1, 41, 0
3, 88667, Note_on_c, 1, 41, 93
3, 88670, Note_on_c, 1, 40, 0
3, 88696, Note_on_c, 1, 40, 98
3, 88712, Note_on_c, 1, 41, 0
3, 88732, Note_on_c, 1, 41, 91
3, 88736, Note_on_c, 1, 40, 0
3, 88760, Note_on_c, 1, 40, 102
3, 88778, Note_on_c, 1, 41, 0
3, 88797, Note_on_c, 1, 41, 93
3, 88802, Note_on_c, 1, 40, 0
3, 88818, Note_on_c, 1, 40, 83
3, 88872, Note_on_c, 1, 47, 121
3, 88877, Note_on_c, 1, 40, 0
3, 88894, Note_on_c, 1, 41, 0
3, 88917, Note_on_c, 1, 47, 0
3, 91096, Note_on_c, 1, 47, 121
3, 91131, Note_on_c, 1, 47, 0
3, 91361, Note_on_c, 1, 48, 127
3, 91479, Note_on_c, 1, 48, 0
3, 91482, Note_on_c, 1, 50, 62
3, 91519, Note_on_c, 1, 50, 0
3, 91536, Note_on_c, 1, 48, 45
3, 91569, Note_on_c, 1, 48, 0
3, 91573, Note_on_c, 1, 50, 50
3, 91598, Note_on_c, 1, 50, 0
3, 91605, Note_on_c, 1, 48, 33
3, 91652, Note_on_c, 1, 50, 35
3, 91683, Note_on_c, 1, 50, 0
3, 91723, Note_on_c, 1, 50, 31
3, 91753, Note_on_c, 1, 50, 0
3, 91789, Note_on_c, 1, 50, 57
3, 91822, Note_on_c, 1, 50, 0
3, 91857, Note_on_c, 1, 50, 63
3, 91868, Note_on_c, 1, 48, 0
3, 91885, Note_on_c, 1, 48, 29
3, 91891, Note_on_c, 1, 50, 0
3, 91925, Note_on_c, 1, 50, 79
3, 91936, Note_on_c, 1, 48, 0
3, 91953, Note_on_c, 1, 48, 34
3, 91957, Note_on_c, 1, 50, 0
3, 91989, Note_on_c, 1, 50, 87
3, 92002, Note_on_c, 1, 48, 0
3, 92021, Note_on_c, 1, 48, 44
3, 92025, Note_on_c, 1, 50, 0
3, 92050, Note_on_c, 1, 50, 83
3, 92067, Note_on_c, 1, 48, 0
3, 92084, Note_on_c, 1, 48, 55
3, 92089, Note_on_c, 1, 50, 0
3, 92133, Note_on_c, 1, 48, 0
3, 92954, Note_on_c, 1, 48, 127
3, 93056, Note_on_c, 1, 50, 91
3, 93065, Note_on_c, 1, 48, 0
3, 93100, Note_on_c, 1, 50, 0
3, 93109, Note_on_c, 1, 48, 54
3, 93149, Note_on_c, 1, 50, 64
3, 93157, Note_on_c, 1, 48, 0
3, 93172, Note_on_c, 1, 50, 0
3, 93176, Note_on_c, 1, 48, 29
3, 93215, Note_on_c, 1, 50, 67
3, 93224, Note_on_c, 1, 48, 0
3, 93249, Note_on_c, 1, 50, 0
3, 93250, Note_on_c, 1, 48, 57
3, 93290, Note_on_c, 1, 50, 63
3, 93304, Note_on_c, 1, 48, 0
3, 93320, Note_on_c, 1, 50, 0
3, 93324, Note_on_c, 1, 48, 35
3, 93360, Note_on_c, 1, 50, 65
3, 93373, Note_on_c, 1, 48, 0
3, 93390, Note_on_c, 1, 50, 0
3, 93395, Note_on_c, 1, 48, 43
3, 93430, Note_on_c, 1, 50, 73
3, 93448, Note_on_c, 1, 48, 0
3, 93461, Note_on_c, 1, 50, 0
3, 93462, Note_on_c, 1, 48, 33
3, 93494, Note_on_c, 1, 50, 85
3, 93511, Note_on_c, 1, 48, 0
3, 93532, Note_on_c, 1, 50, 0
3, 93533, Note_on_c, 1, 48, 60
3, 93559, Note_on_c, 1, 50, 92
3, 93579, Note_on_c, 1, 48, 0
3, 93600, Note_on_c, 1, 50, 0
3, 93601, Note_on_c, 1, 48, 64
3, 93631, Note_on_c, 1, 50, 76
3, 93730, Note_on_c, 1, 50, 0
3, 93770, Note_on_c, 1, 48, 0
3, 94583, Note_on_c, 1, 48, 126
3, 94631, Note_on_c, 1, 48, 0
3, 101984, Note_on_c, 1, 48, 127
3, 102094, Note_on_c, 1, 50, 79
3, 102097, Note_on_c, 1, 48, 0
3, 102132, Note_on_c, 1, 48, 84
3, 102141, Note_on_c, 1, 50, 0
3, 102182, Note_on_c, 1, 50, 76
3, 102188, Note_on_c, 1, 48, 0
3, 102218, Note_on_c, 1, 48, 90
3, 102226, Note_on_c, 1, 50, 0
3, 102260, Note_on_c, 1, 50, 77
3, 102270, Note_on_c, 1, 48, 0
3, 102296, Note_on_c, 1, 48, 88
3, 102303, Note_on_c, 1, 50, 0
3, 102335, Note_on_c, 1, 50, 84
3, 102341, Note_on_c, 1, 48, 0
3, 102368, Note_on_c, 1, 48, 84
3, 102376, Note_on_c, 1, 50, 0
3, 102407, Note_on_c, 1, 50, 87
3, 102412, Note_on_c, 1, 48, 0
3, 102437, Note_on_c, 1, 48, 79
3, 102447, Note_on_c, 1, 50, 0
3, 102480, Note_on_c, 1, 50, 78
3, 102483, Note_on_c, 1, 48, 0
3, 102509, Note_on_c, 1, 48, 74
3, 102518, Note_on_c, 1, 50, 0
3, 102549, Note_on_c, 1, 50, 80
3, 102552, Note_on_c, 1, 48, 0
3, 102580, Note_on_c, 1, 48, 71
3, 102589, Note_on_c, 1, 50, 0
3, 102619, Note_on_c, 1, 50, 75
3, 102624, Note_on_c, 1, 48, 0
3, 102652, Note_on_c, 1, 48, 63
3, 102661, Note_on_c, 1, 50, 0
3, 102693, Note_on_c, 1, 50, 67
3, 102700, Note_on_c, 1, 48, 0
3, 102726, Note_on_c, 1, 48, 55
3, 102736, Note_on_c, 1, 50, 0
3, 102774, Note_on_c, 1, 50, 59
3, 102834, Note_on_c, 1, 50, 0
3, 102860, Note_on_c, 1, 48, 0
3, 103696, Note_on_c, 1, 48, 127
3, 103814, Note_on_c, 1, 50, 82
3, 103820, Note_on_c, 1, 48, 0
3, 103862, Note_on_c, 1, 50, 0
3, 103862, Note_on_c, 1, 48, 85
3, 103909, Note_on_c, 1, 50, 87
3, 103916, Note_on_c, 1, 48, 0
3, 103949, Note_on_c, 1, 48, 97
3, 103958, Note_on_c, 1, 50, 0
3, 103991, Note_on_c, 1, 50, 87
3, 104001, Note_on_c, 1, 48, 0
3, 104025, Note_on_c, 1, 48, 98
3, 104035, Note_on_c, 1, 50, 0
3, 104064, Note_on_c, 1, 50, 85
3, 104074, Note_on_c, 1, 48, 0
3, 104097, Note_on_c, 1, 48, 91
3, 104110, Note_on_c, 1, 50, 0
3, 104138, Note_on_c, 1, 50, 89
3, 104143, Note_on_c, 1, 48, 0
3, 104171, Note_on_c, 1, 48, 91
3, 104184, Note_on_c, 1, 50, 0
3, 104214, Note_on_c, 1, 50, 87
3, 104216, Note_on_c, 1, 48, 0
3, 104245, Note_on_c, 1, 48, 89
3, 104254, Note_on_c, 1, 50, 0
3, 104287, Note_on_c, 1, 50, 76
3, 104292, Note_on_c, 1, 48, 0
3, 104320, Note_on_c, 1, 48, 70
3, 104329, Note_on_c, 1, 50, 0
3, 104365, Note_on_c, 1, 50, 71
3, 104373, Note_on_c, 1, 48, 0
3, 104399, Note_on_c, 1, 48, 61
3, 104408, Note_on_c, 1, 50, 0
3, 104447, Note_on_c, 1, 50, 60
3, 104451, Note_on_c, 1, 48, 0
3, 104489, Note_on_c, 1, 48, 65
3, 104500, Note_on_c, 1, 50, 0
3, 104545, Note_on_c, 1, 48, 0
3, 105396, Note_on_c, 1, 48, 127
3, 105514, Note_on_c, 1, 48, 0
3, 197460, Note_on_c, 1, 48, 117
3, 197498, Note_on_c, 1, 48, 0
3, 197770, Note_on_c, 1, 48, 116
3, 197808, Note_on_c, 1, 48, 0
3, 199009, Note_on_c, 1, 48, 116
3, 199049, Note_on_c, 1, 48, 0
3, 199272, Note_on_c, 1, 47, 117
3, 199314, Note_on_c, 1, 47, 0
3, 200497, Note_on_c, 1, 47, 121
3, 200538, Note_on_c, 1, 47, 0
3, 200751, Note_on_c, 1, 40, 120
3, 200792, Note_on_c, 1, 40, 0
3, 309600, Control_c, 1, 11, 100
3, 309625, Note_on_c, 1, 47, 125
3, 309642, Note_on_c, 1, 49, 74
3, 309659, Note_on_c, 1, 49, 0
3, 309731, Note_on_c, 1, 47, 0
3, 309731, Note_on_c, 1, 48, 89
3, 309769, Note_on_c, 1, 47, 77
3, 309777, Note_on_c, 1, 48, 0
3, 309807, Note_on_c, 1, 48, 87
3, 309817, Note_on_c, 1, 47, 0
3, 309834, Note_on_c, 1, 47, 53
3, 309844, Note_on_c, 1, 48, 0
3, 309869, Note_on_c, 1, 48, 89
3, 309879, Note_on_c, 1, 47, 0
3, 309905, Note_on_c, 1, 47, 78
3, 309911, Note_on_c, 1, 48, 0
3, 309940, Note_on_c, 1, 48, 93
3, 309955, Note_on_c, 1, 47, 0
3, 309974, Note_on_c, 1, 47, 55
3, 309981, Note_on_c, 1, 48, 0
3, 310007, Note_on_c, 1, 48, 81
3, 310019, Note_on_c, 1, 47, 0
3, 310043, Note_on_c, 1, 47, 60
3, 310050, Note_on_c, 1, 48, 0
3, 310081, Note_on_c, 1, 48, 81
3, 310093, Note_on_c, 1, 47, 0
3, 310111, Note_on_c, 1, 47, 44
3, 310120, Note_on_c, 1, 48, 0
3, 310147, Note_on_c, 1, 48, 71
3, 310164, Note_on_c, 1, 47, 0
3, 310183, Note_on_c, 1, 47, 43
3, 310195, Note_on_c, 1, 48, 0
3, 310222, Note_on_c, 1, 48, 64
3, 310268, Note_on_c, 1, 48, 0
3, 310295, Note_on_c, 1, 48, 51
3, 310381, Note_on_c, 1, 47, 0
3, 310400, Note_on_c, 1, 47, 32
3, 310553, Note_on_c, 1, 48, 0
3, 310578, Note_on_c, 1, 48, 38
3, 310882, Note_on_c, 1, 47, 0
3, 310901, Note_on_c, 1, 47, 32
3, 310916, Note_on_c, 1, 48, 0
3, 310939, Note_on_c, 1, 48, 30
3, 310989, Note_on_c, 1, 48, 0
3, 311013, Note_on_c, 1, 48, 24
3, 311098, Note_on_c, 1, 47, 0
3, 311123, Note_on_c, 1, 47, 38
3, 311134, Note_on_c, 1, 48, 0
3, 311156, Note_on_c, 1, 48, 38
3, 311170, Note_on_c, 1, 47, 0
3, 311198, Note_on_c, 1, 47, 46
3, 311203, Note_on_c, 1, 48, 0
3, 311240, Note_on_c, 1, 48, 76
3, 311244, Note_on_c, 1, 47, 0
3, 311277, Note_on_c, 1, 47, 57
3, 311282, Note_on_c, 1, 48, 0
3, 311322, Note_on_c, 1, 48, 65
3, 311325, Note_on_c, 1, 47, 0
3, 311352, Note_on_c, 1, 47, 51
3, 311356, Note_on_c, 1, 48, 0
3, 311402, Note_on_c, 1, 48, 49
3, 311404, Note_on_c, 1, 47, 0
3, 311428, Note_on_c, 1, 47, 47
3, 311480, Note_on_c, 1, 47, 0
3, 311505, Note_on_c, 1, 47, 39
3, 311552, Note_on_c, 1, 47, 0
3, 311589, Note_on_c, 1, 47, 53
3, 311595, Note_on_c, 1, 48, 0
3, 311630, Note_on_c, 1, 48, 52
3, 311632, Note_on_c, 1, 47, 0
3, 311661, Note_on_c, 1, 47, 51
3, 311678, Note_on_c, 1, 48, 0
3, 311710, Note_on_c, 1, 48, 38
3, 311713, Note_on_c, 1, 47, 0
3, 311739, Note_on_c, 1, 47, 43
3, 311755, Note_on_c, 1, 48, 0
3, 311785, Note_on_c, 1, 48, 42
3, 311789, Note_on_c, 1, 47, 0
3, 311822, Note_on_c, 1, 47, 48
3, 311833, Note_on_c, 1, 48, 0
3, 311869, Note_on_c, 1, 48, 55
3, 311870, Note_on_c, 1, 47, 0
3, 311903, Note_on_c, 1, 47, 51
3, 311914, Note_on_c, 1, 48, 0
3, 311950, Note_on_c, 1, 47, 0
3, 311952, Note_on_c, 1, 48, 50
3, 311986, Note_on_c, 1, 47, 61
3, 311992, Note_on_c, 1, 48, 0
3, 312031, Note_on_c, 1, 47, 0
3, 312033, Note_on_c, 1, 48, 54
3, 312067, Note_on_c, 1, 47, 62
3, 312072, Note_on_c, 1, 48, 0
3, 312107, Note_on_c, 1, 48, 38
3, 312111, Note_on_c, 1, 47, 0
3, 312142, Note_on_c, 1, 47, 50
3, 312156, Note_on_c, 1, 48, 0
3, 312185, Note_on_c, 1, 48, 26
3, 312189, Note_on_c, 1, 47, 0
3, 312216, Note_on_c, 1, 47, 46
3, 312229, Note_on_c, 1, 48, 0
3, 312256, Note_on_c, 1, 48, 36
3, 312264, Note_on_c, 1, 47, 0
3, 312293, Note_on_c, 1, 47, 43
3, 312301, Note_on_c, 1, 48, 0
3, 312338, Note_on_c, 1, 47, 0
3, 312339, Note_on_c, 1, 48, 55
3, 312369, Note_on_c, 1, 47, 62
3, 312371, Note_on_c, 1, 48, 0
3, 312412, Note_on_c, 1, 48, 63
3, 312415, Note_on_c, 1, 47, 0
3, 312449, Note_on_c, 1, 48, 0
3, 312449, Note_on_c, 1, 47, 62
3, 312488, Note_on_c, 1, 48, 60
3, 312493, Note_on_c, 1, 47, 0
3, 312519, Note_on_c, 1, 47, 63
3, 312521, Note_on_c, 1, 48, 0
3, 312560, Note_on_c, 1, 48, 64
3, 312561, Note_on_c, 1, 47, 0
3, 312592, Note_on_c, 1, 48, 0
3, 312593, Note_on_c, 1, 47, 76
3, 312627, Note_on_c, 1, 48, 74
3, 312634, Note_on_c, 1, 47, 0
3, 312665, Note_on_c, 1, 47, 77
3, 312666, Note_on_c, 1, 48, 0
3, 312694, Note_on_c, 1, 48, 93
3, 312704, Note_on_c, 1, 47, 0
3, 312729, Note_on_c, 1, 47, 74
3, 312738, Note_on_c, 1, 48, 0
3, 312765, Note_on_c, 1, 48, 96
3, 312777, Note_on_c, 1, 47, 0
3, 312797, Note_on_c, 1, 47, 60
3, 312806, Note_on_c, 1, 48, 0
3, 312829, Note_on_c, 1, 48, 90
3, 312838, Note_on_c, 1, 47, 0
3, 312864, Note_on_c, 1, 47, 80
3, 312867, Note_on_c, 1, 48, 0
3, 312892, Note_on_c, 1, 48, 101
3, 312902, Note_on_c, 1, 47, 0
3, 312927, Note_on_c, 1, 47, 91
3, 312928, Note_on_c, 1, 48, 0
3, 312971, Note_on_c, 1, 47, 0
3, 312987, Note_on_c, 1, 40, 126
3, 313029, Note_on_c, 1, 40, 0
3, 313246, Note_on_c, 1, 40, 125
3, 313298, Note_on_c, 1, 40, 0
3, 313507, Note_on_c, 1, 47, 121
3, 313565, Note_on_c, 1, 47, 0
3, 315278, Note_on_c, 1, 48, 121
3, 315314, Note_on_c, 1, 50, 82
3, 315318, Note_on_c, 1, 48, 0
3, 315331, Note_on_c, 1, 50, 0
3, 315347, Note_on_c, 1, 48, 93
3, 315373, Note_on_c, 1, 50, 74
3, 315400, Note_on_c, 1, 50, 0
3, 315430, Note_on_c, 1, 50, 94
3, 315442, Note_on_c, 1, 48, 0
3, 315461, Note_on_c, 1, 48, 91
3, 315467, Note_on_c, 1, 50, 0
3, 315512, Note_on_c, 1, 48, 0
3, 315525, Note_on_c, 1, 47, 125
3, 315643, Note_on_c, 1, 47, 0
3, 316751, Note_on_c, 1, 40, 124
3, 316792, Note_on_c, 1, 40, 0
3, 316805, Note_on_c, 1, 41, 87
3, 316832, Note_on_c, 1, 40, 100
3, 316841, Note_on_c, 1, 41, 0
3, 316870, Note_on_c, 1, 40, 0
3, 316870, Note_on_c, 1, 41, 84
3, 316898, Note_on_c, 1, 40, 87
3, 316914, Note_on_c, 1, 41, 0
3, 316934, Note_on_c, 1, 40, 0
3, 316935, Note_on_c, 1, 41, 56
3, 316958, Note_on_c, 1, 40, 106
3, 316979, Note_on_c, 1, 41, 0
3, 317003, Note_on_c, 1, 40, 0
3, 317008, Note_on_c, 1, 47, 121
3, 317066, Note_on_c, 1, 47, 0
3, 318215, Note_on_c, 1, 47, 120
3, 318253, Note_on_c, 1, 48, 84
3, 318259, Note_on_c, 1, 47, 0
3, 318278, Note_on_c, 1, 47, 93
3, 318285, Note_on_c, 1, 48, 0
3, 318309, Note_on_c, 1, 48, 90
3, 318317, Note_on_c, 1, 47, 0
3, 318331, Note_on_c, 1, 48, 0
3, 318335, Note_on_c, 1, 47, 82
3, 318361, Note_on_c, 1, 48, 92
3, 318377, Note_on_c, 1, 47, 0
3, 318396, Note_on_c, 1, 47, 73
3, 318399, Note_on_c, 1, 48, 0
3, 318416, Note_on_c, 1, 48, 97
3, 318438, Note_on_c, 1, 47, 0
3, 318457, Note_on_c, 1, 48, 0
3, 318464, Note_on_c, 1, 47, 111
3, 318551, Note_on_c, 1, 47, 0
3, 319641, Note_on_c, 1, 47, 122
3, 319697, Note_on_c, 1, 47, 0
3, 325340, Note_on_c, 1, 40, 124
3, 325381, Note_on_c, 1, 40, 0
3, 325388, Note_on_c, 1, 41, 101
3, 325422, Note_on_c, 1, 40, 104
3, 325431, Note_on_c, 1, 41, 0
3, 325460, Note_on_c, 1, 41, 87
3, 325465, Note_on_c, 1, 40, 0
3, 325488, Note_on_c, 1, 40, 104
3, 325508, Note_on_c, 1, 41, 0
3, 325529, Note_on_c, 1, 40, 0
3, 325538, Note_on_c, 1, 41, 64
3, 325552, Note_on_c, 1, 40, 108
3, 325597, Note_on_c, 1, 47, 121
3, 325613, Note_on_c, 1, 40, 0
3, 325614, Note_on_c, 1, 41, 0
3, 325634, Note_on_c, 1, 47, 0
3, 325825, Note_on_c, 1, 40, 127
3, 325861, Note_on_c, 1, 40, 0
3, 330331, Note_on_c, 1, 40, 125
3, 330376, Note_on_c, 1, 40, 0
3, 330393, Note_on_c, 1, 41, 81
3, 330416, Note_on_c, 1, 40, 77
3, 330420, Note_on_c, 1, 41, 0
3, 330460, Note_on_c, 1, 41, 68
3, 330472, Note_on_c, 1, 40, 0
3, 330501, Note_on_c, 1, 40, 85
3, 330515, Note_on_c, 1, 41, 0
3, 330545, Note_on_c, 1, 41, 89
3, 330546, Note_on_c, 1, 40, 0
3, 330569, Note_on_c, 1, 40, 102
3, 330587, Note_on_c, 1, 41, 0
3, 330602, Note_on_c, 1, 47, 114
3, 330612, Note_on_c, 1, 40, 0
3, 330694, Note_on_c, 1, 47, 0
3, 330849, Note_on_c, 1, 47, 102
3, 330882, Note_on_c, 1, 47, 0
3, 331073, Note_on_c, 1, 47, 116
3, 331110, Note_on_c, 1, 47, 0
3, 331300, Note_on_c, 1, 47, 121
3, 331337, Note_on_c, 1, 47, 0
3, 331543, Note_on_c, 1, 40, 122
3, 331583, Note_on_c, 1, 40, 0
3, 331772, Note_on_c, 1, 47, 122
3, 331807, Note_on_c, 1, 47, 0
3, 332018, Note_on_c, 1, 40, 125
3, 332054, Note_on_c, 1, 40, 0
3, 332256, Note_on_c, 1, 47, 126
3, 332342, Note_on_c, 1, 48, 98
3, 332351, Note_on_c, 1, 47, 0
3, 332383, Note_on_c, 1, 48, 0
3, 332385, Note_on_c, 1, 47, 70
3, 332411, Note_on_c, 1, 48, 89
3, 332445, Note_on_c, 1, 48, 0
3, 332470, Note_on_c, 1, 48, 86
3, 332482, Note_on_c, 1, 47, 0
3, 332499, Note_on_c, 1, 47, 58
3, 332502, Note_on_c, 1, 48, 0
3, 332524, Note_on_c, 1, 48, 90
3, 332539, Note_on_c, 1, 47, 0
3, 332558, Note_on_c, 1, 47, 71
3, 332562, Note_on_c, 1, 48, 0
3, 332580, Note_on_c, 1, 48, 80
3, 332601, Note_on_c, 1, 47, 0
3, 332622, Note_on_c, 1, 47, 63
3, 332677, Note_on_c, 1, 48, 0
3, 332700, Note_on_c, 1, 47, 0
3, 332724, Note_on_c, 1, 40, 113
3, 332758, Note_on_c, 1, 40, 0
3, 332953, Note_on_c, 1, 47, 127
3, 333045, Note_on_c, 1, 48, 85
3, 333055, Note_on_c, 1, 47, 0
3, 333084, Note_on_c, 1, 48, 0
3, 333085, Note_on_c, 1, 47, 72
3, 333112, Note_on_c, 1, 48, 89
3, 333120, Note_on_c, 1, 47, 0
3, 333140, Note_on_c, 1, 48, 0
3, 333143, Note_on_c, 1, 47, 71
3, 333168, Note_on_c, 1, 48, 97
3, 333185, Note_on_c, 1, 47, 0
3, 333204, Note_on_c, 1, 47, 80
3, 333206, Note_on_c, 1, 48, 0
3, 333228, Note_on_c, 1, 48, 84
3, 333254, Note_on_c, 1, 48, 0
3, 333282, Note_on_c, 1, 48, 81
3, 333316, Note_on_c, 1, 48, 0
3, 333342, Note_on_c, 1, 48, 73
3, 333382, Note_on_c, 1, 48, 0
3, 333415, Note_on_c, 1, 47, 0
3, 333430, Note_on_c, 1, 40, 116
3, 333469, Note_on_c, 1, 40, 0
3, 334530, Note_on_c, 1, 48, 107
3, 334572, Note_on_c, 1, 48, 0
3, 334574, Note_on_c, 1, 50, 45
3, 334593, Note_on_c, 1, 48, 79
3, 334597, Note_on_c, 1, 50, 0
3, 334620, Note_on_c, 1, 50, 98
3, 334631, Note_on_c, 1, 48, 0
3, 334652, Note_on_c, 1, 48, 83
3, 334653, Note_on_c, 1, 50, 0
3, 334672, Note_on_c, 1, 50, 89
3, 334693, Note_on_c, 1, 48, 0
3, 334708, Note_on_c, 1, 48, 87
3, 334719, Note_on_c, 1, 50, 0
3, 334755, Note_on_c, 1, 48, 0
3, 334768, Note_on_c, 1, 47, 120
3, 334827, Note_on_c, 1, 47, 0
3, 335007, Note_on_c, 1, 47, 122
3, 335100, Note_on_c, 1, 47, 0
3, 335109, Note_on_c, 1, 48, 60
3, 335134, Note_on_c, 1, 48, 0
3, 335139, Note_on_c, 1, 47, 57
3, 335167, Note_on_c, 1, 48, 73
3, 335172, Note_on_c, 1, 47, 0
3, 335202, Note_on_c, 1, 48, 0
3, 335204, Note_on_c, 1, 47, 70
3, 335230, Note_on_c, 1, 48, 94
3, 335240, Note_on_c, 1, 47, 0
3, 335266, Note_on_c, 1, 47, 89
3, 335267, Note_on_c, 1, 48, 0
3, 335292, Note_on_c, 1, 48, 102
3, 335310, Note_on_c, 1, 47, 0
3, 335328, Note_on_c, 1, 47, 82
3, 335331, Note_on_c, 1, 48, 0
3, 335354, Note_on_c, 1, 48, 97
3, 335371, Note_on_c, 1, 47, 0
3, 335389, Note_on_c, 1, 47, 80
3, 335432, Note_on_c, 1, 47, 0
3, 335445, Note_on_c, 1, 48, 0
3, 335487, Note_on_c, 1, 40, 120
3, 335529, Note_on_c, 1, 40, 0
3, 335716, Note_on_c, 1, 47, 121
3, 335779, Note_on_c, 1, 48, 90
3, 335780, Note_on_c, 1, 47, 0
3, 335817, Note_on_c, 1, 47, 62
3, 335820, Note_on_c, 1, 48, 0
3, 335850, Note_on_c, 1, 48, 84
3, 335857, Note_on_c, 1, 47, 0
3, 335872, Note_on_c, 1, 48, 0
3, 335882, Note_on_c, 1, 47, 76
3, 335905, Note_on_c, 1, 48, 96
3, 335920, Note_on_c, 1, 47, 0
3, 335942, Note_on_c, 1, 47, 91
3, 335943, Note_on_c, 1, 48, 0
3, 335966, Note_on_c, 1, 48, 102
3, 335983, Note_on_c, 1, 47, 0
3, 335999, Note_on_c, 1, 47, 75
3, 336005, Note_on_c, 1, 48, 0
3, 336023, Note_on_c, 1, 48, 82
3, 336041, Note_on_c, 1, 47, 0
3, 336058, Note_on_c, 1, 48, 0
3, 336064, Note_on_c, 1, 47, 76
3, 336080, Note_on_c, 1, 48, 98
3, 336095, Note_on_c, 1, 47, 0
3, 336115, Note_on_c, 1, 47, 76
3, 336120, Note_on_c, 1, 48, 0
3, 336157, Note_on_c, 1, 47, 0
3, 336208, Note_on_c, 1, 40, 122
3, 336249, Note_on_c, 1, 40, 0
3, 336960, Control_c, 1, 11, 80
3, 450848, Note_on_c, 1, 47, 70
3, 450902, Note_on_c, 1, 47, 0
3, 450904, Note_on_c, 1, 48, 56
3, 450949, Note_on_c, 1, 47, 54
3, 450950, Note_on_c, 1, 48, 0
3, 450985, Note_on_c, 1, 48, 55
3, 450993, Note_on_c, 1, 47, 0
3, 451013, Note_on_c, 1, 47, 30
3, 451014, Note_on_c, 1, 48, 0
3, 451049, Note_on_c, 1, 48, 56
3, 451063, Note_on_c, 1, 47, 0
3, 451084, Note_on_c, 1, 48, 0
3, 451084, Note_on_c, 1, 47, 32
3, 451122, Note_on_c, 1, 48, 56
3, 451134, Note_on_c, 1, 47, 0
3, 451152, Note_on_c, 1, 48, 0
3, 451159, Note_on_c, 1, 47, 47
3, 451191, Note_on_c, 1, 48, 63
3, 451204, Note_on_c, 1, 47, 0
3, 451229, Note_on_c, 1, 47, 63
3, 451230, Note_on_c, 1, 48, 0
3, 451259, Note_on_c, 1, 48, 73
3, 451275, Note_on_c, 1, 47, 0
3, 451301, Note_on_c, 1, 47, 59
3, 451302, Note_on_c, 1, 48, 0
3, 451331, Note_on_c, 1, 48, 73
3, 451344, Note_on_c, 1, 47, 0
3, 451367, Note_on_c, 1, 47, 54
3, 451368, Note_on_c, 1, 48, 0
3, 451396, Note_on_c, 1, 48, 76
3, 451413, Note_on_c, 1, 47, 0
3, 451438, Note_on_c, 1, 48, 0
3, 451440, Note_on_c, 1, 47, 78
3, 451469, Note_on_c, 1, 48, 81
3, 451489, Note_on_c, 1, 47, 0
3, 451506, Note_on_c, 1, 47, 59
3, 451512, Note_on_c, 1, 48, 0
3, 451535, Note_on_c, 1, 48, 80
3, 451549, Note_on_c, 1, 47, 0
3, 451575, Note_on_c, 1, 48, 0
3, 451578, Note_on_c, 1, 47, 67
3, 451605, Note_on_c, 1, 48, 86
3, 451623, Note_on_c, 1, 47, 0
3, 451649, Note_on_c, 1, 48, 0
3, 451649, Note_on_c, 1, 47, 74
3, 451675, Note_on_c, 1, 48, 89
3, 451692, Note_on_c, 1, 47, 0
3, 451717, Note_on_c, 1, 48, 0
3, 451722, Note_on_c, 1, 47, 67
3, 451749, Note_on_c, 1, 48, 80
3, 451765, Note_on_c, 1, 47, 0
3, 451792, Note_on_c, 1, 47, 65
3, 451793, Note_on_c, 1, 48, 0
3, 451821, Note_on_c, 1, 48, 94
3, 451832, Note_on_c, 1, 47, 0
3, 451861, Note_on_c, 1, 48, 0
3, 451862, Note_on_c, 1, 47, 78
3, 451888, Note_on_c, 1, 48, 99
3, 451905, Note_on_c, 1, 47, 0
3, 451931, Note_on_c, 1, 48, 0
3, 451931, Note_on_c, 1, 47, 88
3, 451962, Note_on_c, 1, 48, 99
3, 451978, Note_on_c, 1, 47, 0
3, 451998, Note_on_c, 1, 47, 87
3, 452005, Note_on_c, 1, 48, 0
3, 452029, Note_on_c, 1, 48, 108
3, 452043, Note_on_c, 1, 47, 0
3, 452067, Note_on_c, 1, 47, 98
3, 452074, Note_on_c, 1, 48, 0
3, 452098, Note_on_c, 1, 48, 107
3, 452116, Note_on_c, 1, 47, 0
3, 452137, Note_on_c, 1, 47, 101
3, 452145, Note_on_c, 1, 48, 0
3, 452168, Note_on_c, 1, 48, 107
3, 452182, Note_on_c, 1, 47, 0
3, 452204, Note_on_c, 1, 47, 101
3, 452210, Note_on_c, 1, 48, 0
3, 452236, Note_on_c, 1, 48, 106
3, 452252, Note_on_c, 1, 47, 0
3, 452269, Note_on_c, 1, 47, 100
3, 452280, Note_on_c, 1, 48, 0
3, 452303, Note_on_c, 1, 48, 111
3, 452314, Note_on_c, 1, 47, 0
3, 452337, Note_on_c, 1, 47, 97
3, 452345, Note_on_c, 1, 48, 0
3, 452366, Note_on_c, 1, 48, 99
3, 452377, Note_on_c, 1, 47, 0
3, 452401, Note_on_c, 1, 47, 98
3, 452408, Note_on_c, 1, 48, 0
3, 452434, Note_on_c, 1, 48, 107
3, 452488, Note_on_c, 1, 48, 0
3, 452520, Note_on_c, 1, 40, 127
3, 452531, Note_on_c, 1, 47, 0
3, 452623, Note_on_c, 1, 41, 66
3, 452672, Note_on_c, 1, 41, 0
3, 452702, Note_on_c, 1, 41, 76
3, 452709, Note_on_c, 1, 40, 0
3, 452738, Note_on_c, 1, 40, 86
3, 452741, Note_on_c, 1, 41, 0
3, 452770, Note_on_c, 1, 41, 84
3, 452781, Note_on_c, 1, 40, 0
3, 452801, Note_on_c, 1, 40, 88
3, 452809, Note_on_c, 1, 41, 0
3, 452834, Note_on_c, 1, 41, 99
3, 452844, Note_on_c, 1, 40, 0
3, 452860, Note_on_c, 1, 40, 65
3, 452876, Note_on_c, 1, 41, 0
3, 452904, Note_on_c, 1, 41, 76
3, 452967, Note_on_c, 1, 41, 0
3, 452967, Note_on_c, 1, 41, 76
3, 453062, Note_on_c, 1, 41, 0
3, 453062, Note_on_c, 1, 41, 80
3, 453087, Note_on_c, 1, 40, 0
3, 453094, Note_on_c, 1, 40, 86
3, 453106, Note_on_c, 1, 41, 0
3, 453128, Note_on_c, 1, 41, 66
3, 453131, Note_on_c, 1, 40, 0
3, 453163, Note_on_c, 1, 40, 73
3, 453167, Note_on_c, 1, 41, 0
3, 453197, Note_on_c, 1, 40, 0
3, 453198, Note_on_c, 1, 41, 65
3, 453229, Note_on_c, 1, 40, 74
3, 453239, Note_on_c, 1, 41, 0
3, 453263, Note_on_c, 1, 41, 24
3, 453296, Note_on_c, 1, 47, 97
3, 453298, Note_on_c, 1, 40, 0
3, 453301, Note_on_c, 1, 41, 0
3, 453340, Note_on_c, 1, 47, 0
3, 453595, Note_on_c, 1, 47, 107
3, 453631, Note_on_c, 1, 47, 0
3, 453908, Note_on_c, 1, 47, 122
3, 453946, Note_on_c, 1, 47, 0
3, 454208, Note_on_c, 1, 40, 118
3, 454367, Note_on_c, 1, 41, 62
3, 454387, Note_on_c, 1, 40, 0
3, 454431, Note_on_c, 1, 40, 64
3, 454432, Note_on_c, 1, 41, 0
3, 454474, Note_on_c, 1, 41, 57
3, 454499, Note_on_c, 1, 40, 0
3, 454520, Note_on_c, 1, 40, 39
3, 454524, Note_on_c, 1, 41, 0
3, 454555, Note_on_c, 1, 41, 76
3, 454562, Note_on_c, 1, 40, 0
3, 454597, Note_on_c, 1, 40, 77
3, 454604, Note_on_c, 1, 41, 0
3, 454633, Note_on_c, 1, 41, 83
3, 454639, Note_on_c, 1, 40, 0
3, 454667, Note_on_c, 1, 40, 90
3, 454676, Note_on_c, 1, 41, 0
3, 454701, Note_on_c, 1, 41, 85
3, 454707, Note_on_c, 1, 40, 0
3, 454733, Note_on_c, 1, 40, 92
3, 454751, Note_on_c, 1, 41, 0
3, 454769, Note_on_c, 1, 41, 68
3, 454776, Note_on_c, 1, 40, 0
3, 454802, Note_on_c, 1, 40, 92
3, 454820, Note_on_c, 1, 41, 0
3, 454840, Note_on_c, 1, 41, 76
3, 454845, Note_on_c, 1, 40, 0
3, 454871, Note_on_c, 1, 40, 91
3, 454891, Note_on_c, 1, 41, 0
3, 454908, Note_on_c, 1, 41, 68
3, 454913, Note_on_c, 1, 40, 0
3, 454939, Note_on_c, 1, 40, 93
3, 454958, Note_on_c, 1, 41, 0
3, 454976, Note_on_c, 1, 41, 76
3, 454979, Note_on_c, 1, 40, 0
3, 454996, Note_on_c, 1, 40, 72
3, 455051, Note_on_c, 1, 40, 0
3, 455079, Note_on_c, 1, 41, 0
3, 455102, Note_on_c, 1, 47, 82
3, 455144, Note_on_c, 1, 47, 0
3, 455370, Note_on_c, 1, 47, 111
3, 455414, Note_on_c, 1, 47, 0
3, 455666, Note_on_c, 1, 47, 122
3, 455728, Note_on_c, 1, 48, 91
3, 455750, Note_on_c, 1, 47, 0
3, 455785, Note_on_c, 1, 48, 0
3, 455790, Note_on_c, 1, 47, 63
3, 455813, Note_on_c, 1, 48, 91
3, 455818, Note_on_c, 1, 47, 0
3, 455847, Note_on_c, 1, 47, 79
3, 455853, Note_on_c, 1, 48, 0
3, 455868, Note_on_c, 1, 48, 72
3, 455886, Note_on_c, 1, 47, 0
3, 455905, Note_on_c, 1, 47, 94
3, 455954, Note_on_c, 1, 48, 0
3, 455960, Note_on_c, 1, 47, 0
3, 455976, Note_on_c, 1, 40, 109
3, 456061, Note_on_c, 1, 40, 0
3, 456255, Note_on_c, 1, 47, 101
3, 456493, Note_on_c, 1, 47, 0
3, 456548, Note_on_c, 1, 48, 106
3, 456586, Note_on_c, 1, 48, 0
3, 456828, Note_on_c, 1, 40, 118
3, 456903, Note_on_c, 1, 41, 68
3, 456907, Note_on_c, 1, 40, 0
3, 456952, Note_on_c, 1, 41, 0
3, 456954, Note_on_c, 1, 40, 78
3, 456992, Note_on_c, 1, 41, 69
3, 456996, Note_on_c, 1, 40, 0
3, 457030, Note_on_c, 1, 40, 71
3, 457035, Note_on_c, 1, 41, 0
3, 457065, Note_on_c, 1, 41, 74
3, 457067, Note_on_c, 1, 40, 0
3, 457099, Note_on_c, 1, 40, 76
3, 457100, Note_on_c, 1, 41, 0
3, 457127, Note_on_c, 1, 40, 0
3, 457133, Note_on_c, 1, 41, 71
3, 457156, Note_on_c, 1, 40, 84
3, 457157, Note_on_c, 1, 41, 0
3, 457198, Note_on_c, 1, 40, 0
3, 459202, Note_on_c, 1, 40, 118
3, 459281, Note_on_c, 1, 41, 76
3, 459300, Note_on_c, 1, 40, 0
3, 459340, Note_on_c, 1, 40, 74
3, 459341, Note_on_c, 1, 41, 0
3, 459382, Note_on_c, 1, 41, 58
3, 459387, Note_on_c, 1, 40, 0
3, 459427, Note_on_c, 1, 41, 0
3, 459427, Note_on_c, 1, 40, 80
3, 459462, Note_on_c, 1, 41, 75
3, 459464, Note_on_c, 1, 40, 0
3, 459493, Note_on_c, 1, 40, 99
3, 459509, Note_on_c, 1, 41, 0
3, 459535, Note_on_c, 1, 41, 85
3, 459538, Note_on_c, 1, 40, 0
3, 459570, Note_on_c, 1, 40, 77
3, 459581, Note_on_c, 1, 41, 0
3, 459613, Note_on_c, 1, 40, 0
3, 459617, Note_on_c, 1, 41, 59
3, 459645, Note_on_c, 1, 41, 0
3, 459653, Note_on_c, 1, 40, 55
3, 459687, Note_on_c, 1, 41, 55
3, 459691, Note_on_c, 1, 40, 0
3, 459729, Note_on_c, 1, 41, 0
3, 459735, Note_on_c, 1, 40, 40
3, 459768, Note_on_c, 1, 41, 51
3, 459780, Note_on_c, 1, 40, 0
3, 459807, Note_on_c, 1, 40, 37
3, 459811, Note_on_c, 1, 41, 0
3, 459841, Note_on_c, 1, 41, 63
3, 459856, Note_on_c, 1, 40, 0
3, 459887, Note_on_c, 1, 41, 0
3, 459890, Note_on_c, 1, 40, 42
3, 459918, Note_on_c, 1, 41, 71
3, 459926, Note_on_c, 1, 40, 0
3, 459958, Note_on_c, 1, 40, 51
3, 459960, Note_on_c, 1, 41, 0
3, 459991, Note_on_c, 1, 41, 79
3, 459996, Note_on_c, 1, 40, 0
3, 460028, Note_on_c, 1, 40, 76
3, 460030, Note_on_c, 1, 41, 0
3, 460060, Note_on_c, 1, 41, 84
3, 460062, Note_on_c, 1, 40, 0
3, 460094, Note_on_c, 1, 40, 76
3, 460104, Note_on_c, 1, 41, 0
3, 460131, Note_on_c, 1, 40, 0
3, 460132, Note_on_c, 1, 41, 86
3, 460160, Note_on_c, 1, 40, 88
3, 460171, Note_on_c, 1, 41, 0
3, 460201, Note_on_c, 1, 41, 78
3, 460203, Note_on_c, 1, 40, 0
3, 460218, Note_on_c, 1, 40, 55
3, 460236, Note_on_c, 1, 41, 0
3, 460264, Note_on_c, 1, 41, 89
3, 460267, Note_on_c, 1, 40, 0
3, 460294, Note_on_c, 1, 40, 90
3, 460306, Note_on_c, 1, 41, 0
3, 460334, Note_on_c, 1, 41, 82
3, 460371, Note_on_c, 1, 41, 0
3, 460394, Note_on_c, 1, 40, 0
3, 460612, Note_on_c, 1, 40, 120
3, 460653, Note_on_c, 1, 40, 0
3, 460942, Note_on_c, 1, 40, 126
3, 460982, Note_on_c, 1, 40, 0
3, 461260, Note_on_c, 1, 48, 122
3, 461378, Note_on_c, 1, 48, 0
3, 461381, Note_on_c, 1, 50, 59
3, 461419, Note_on_c, 1, 50, 0
3, 461421, Note_on_c, 1, 48, 65
3, 461467, Note_on_c, 1, 50, 64
3, 461473, Note_on_c, 1, 48, 0
3, 461498, Note_on_c, 1, 50, 0
3, 461499, Note_on_c, 1, 48, 67
3, 461535, Note_on_c, 1, 50, 79
3, 461547, Note_on_c, 1, 48, 0
3, 461570, Note_on_c, 1, 48, 69
3, 461572, Note_on_c, 1, 50, 0
3, 461601, Note_on_c, 1, 50, 89
3, 461613, Note_on_c, 1, 48, 0
3, 461635, Note_on_c, 1, 50, 0
3, 461635, Note_on_c, 1, 48, 81
3, 461662, Note_on_c, 1, 50, 100
3, 461683, Note_on_c, 1, 48, 0
3, 461701, Note_on_c, 1, 50, 0
3, 461704, Note_on_c, 1, 48, 99
3, 461728, Note_on_c, 1, 50, 98
3, 461752, Note_on_c, 1, 48, 0
3, 461770, Note_on_c, 1, 48, 90
3, 461771, Note_on_c, 1, 50, 0
3, 461795, Note_on_c, 1, 50, 102
3, 461816, Note_on_c, 1, 48, 0
3, 461833, Note_on_c, 1, 48, 87
3, 461837, Note_on_c, 1, 50, 0
3, 461861, Note_on_c, 1, 50, 103
3, 461879, Note_on_c, 1, 48, 0
3, 461898, Note_on_c, 1, 48, 86
3, 461900, Note_on_c, 1, 50, 0
3, 461925, Note_on_c, 1, 50, 102
3, 461944, Note_on_c, 1, 48, 0
3, 461963, Note_on_c, 1, 48, 77
3, 461968, Note_on_c, 1, 50, 0
3, 461980, Note_on_c, 1, 50, 64
3, 462004, Note_on_c, 1, 48, 0
3, 462026, Note_on_c, 1, 48, 96
3, 462030, Note_on_c, 1, 50, 0
3, 462093, Note_on_c, 1, 47, 116
3, 462118, Note_on_c, 1, 48, 0
3, 462142, Note_on_c, 1, 47, 0
3, 462379, Note_on_c, 1, 47, 114
3, 462416, Note_on_c, 1, 47, 0
3, 462930, Note_on_c, 1, 40, 125
3, 462979, Note_on_c, 1, 40, 0
3, 465869, Note_on_c, 1, 40, 114
3, 465913, Note_on_c, 1, 40, 0
3, 466158, Note_on_c, 1, 48, 114
3, 466205, Note_on_c, 1, 48, 0
3, 466465, Note_on_c, 1, 40, 112
3, 466508, Note_on_c, 1, 40, 0
3, 469565, Note_on_c, 1, 40, 112
3, 469634, Note_on_c, 1, 40, 0
3, 469856, Note_on_c, 1, 48, 106
3, 469927, Note_on_c, 1, 48, 0
3, 470144, Note_on_c, 1, 40, 106
3, 470213, Note_on_c, 1, 40, 0
3, 471323, Note_on_c, 1, 47, 109
3, 471383, Note_on_c, 1, 47, 0
3, 471630, Note_on_c, 1, 48, 116
3, 471678, Note_on_c, 1, 48, 0
3, 472043, Note_on_c, 1, 48, 108
3, 472203, Note_on_c, 1, 50, 54
3, 472208, Note_on_c, 1, 48, 0
3, 472270, Note_on_c, 1, 50, 0
3, 472275, Note_on_c, 1, 48, 39
3, 472351, Note_on_c, 1, 48, 0
3, 472353, Note_on_c, 1, 50, 43
3, 472398, Note_on_c, 1, 48, 29
3, 472402, Note_on_c, 1, 50, 0
3, 472462, Note_on_c, 1, 48, 0
3, 472467, Note_on_c, 1, 50, 39
3, 472498, Note_on_c, 1, 48, 33
3, 472503, Note_on_c, 1, 50, 0
3, 472549, Note_on_c, 1, 50, 48
3, 472553, Note_on_c, 1, 48, 0
3, 472583, Note_on_c, 1, 48, 21
3, 472587, Note_on_c, 1, 50, 0
3, 472628, Note_on_c, 1, 50, 54
3, 472631, Note_on_c, 1, 48, 0
3, 472666, Note_on_c, 1, 48, 31
3, 472669, Note_on_c, 1, 50, 0
3, 472704, Note_on_c, 1, 50, 39
3, 472747, Note_on_c, 1, 50, 0
3, 472789, Note_on_c, 1, 50, 39
3, 472824, Note_on_c, 1, 50, 0
3, 472866, Note_on_c, 1, 50, 40
3, 472906, Note_on_c, 1, 50, 0
3, 472942, Note_on_c, 1, 50, 18
3, 472991, Note_on_c, 1, 50, 0
3, 473019, Note_on_c, 1, 50, 22
3, 473076, Note_on_c, 1, 50, 0
3, 473186, Note_on_c, 1, 50, 5
3, 473286, Note_on_c, 1, 50, 0
3, 473434, Note_on_c, 1, 48, 0
3, 629024, Note_on_c, 1, 48, 127
3, 629134, Note_on_c, 1, 50, 79
3, 629137, Note_on_c, 1, 48, 0
3, 629172, Note_on_c, 1, 48, 84
3, 629181, Note_on_c, 1, 50, 0
3, 629222, Note_on_c, 1, 50, 76
3, 629228, Note_on_c, 1, 48, 0
3, 629258, Note_on_c, 1, 48, 90
3, 629266, Note_on_c, 1, 50, 0
3, 629300, Note_on_c, 1, 50, 77
3, 629310, Note_on_c, 1, 48, 0
3, 629336, Note_on_c, 1, 48, 88
3, 629343, Note_on_c, 1, 50, 0
3, 629375, Note_on_c, 1, 50, 84
3, 629381, Note_on_c, 1, 48, 0
3, 629408, Note_on_c, 1, 48, 84
3, 629416, Note_on_c, 1, 50, 0
3, 629447, Note_on_c, 1, 50, 87
3, 629452, Note_on_c, 1, 48, 0
3, 629477, Note_on_c, 1, 48, 79
3, 629487, Note_on_c, 1, 50, 0
3, 629520, Note_on_c, 1, 50, 78
3, 629523, Note_on_c, 1, 48, 0
3, 629549, Note_on_c, 1, 48, 74
3, 629558, Note_on_c, 1, 50, 0
3, 629589, Note_on_c, 1, 50, 80
3, 629592, Note_on_c, 1, 48, 0
3, 629620, Note_on_c, 1, 48, 71
3, 629629, Note_on_c, 1, 50, 0
3, 629659, Note_on_c, 1, 50, 75
3, 629664, Note_on_c, 1, 48, 0
3, 629692, Note_on_c, 1, 48, 63
3, 629701, Note_on_c, 1, 50, 0
3, 629733, Note_on_c, 1, 50, 67
3, 629740, Note_on_c, 1, 48, 0
3, 629766, Note_on_c, 1, 48, 55
3, 629776, Note_on_c, 1, 50, 0
3, 629814, Note_on_c, 1, 50, 59
3, 629874, Note_on_c, 1, 50, 0
3, 629900, Note_on_c, 1, 48, 0
3, 630736, Note_on_c, 1, 48, 127
3, 630854, Note_on_c, 1, 50, 82
3, 630860, Note_on_c, 1, 48, 0
3, 630902, Note_on_c, 1, 50, 0
3, 630902, Note_on_c, 1, 48, 85
3, 630949, Note_on_c, 1, 50, 87
3, 630956, Note_on_c, 1, 48, 0
3, 630989, Note_on_c, 1, 48, 97
3, 630998, Note_on_c, 1, 50, 0
3, 631031, Note_on_c, 1, 50, 87
3, 631041, Note_on_c, 1, 48, 0
3, 631065, Note_on_c, 1, 48, 98
3, 631075, Note_on_c, 1, 50, 0
3, 631104, Note_on_c, 1, 50, 85
3, 631114, Note_on_c, 1, 48, 0
3, 631137, Note_on_c, 1, 48, 91
3, 631150, Note_on_c, 1, 50, 0
3, 631178, Note_on_c, 1, 50, 89
3, 631183, Note_on_c, 1, 48, 0
3, 631211, Note_on_c, 1, 48, 91
3, 631224, Note_on_c, 1, 50, 0
3, 631254, Note_on_c, 1, 50, 87
3, 631256, Note_on_c, 1, 48, 0
3, 631285, Note_on_c, 1, 48, 89
3, 631294, Note_on_c, 1, 50, 0
3, 631327, Note_on_c, 1, 50, 76
3, 631332, Note_on_c, 1, 48, 0
3, 631360, Note_on_c, 1, 48, 70
3, 631369, Note_on_c, 1, 50, 0
3, 631405, Note_on_c, 1, 50, 71
3, 631413, Note_on_c, 1, 48, 0
3, 631439, Note_on_c, 1, 48, 61
3, 631448, Note_on_c, 1, 50, 0
3, 631487, Note_on_c, 1, 50, 60
3, 631491, Note_on_c, 1, 48, 0
3, 631529, Note_on_c, 1, 48, 65
3, 631540, Note_on_c, 1, 50, 0
3, 631585, Note_on_c, 1, 48, 0
3, 632436, Note_on_c, 1, 48, 127
3, 632554, Note_on_c, 1, 48, 0
3, 645942, Note_on_c, 1, 40, 127
3, 646061, Note_on_c, 1, 40, 0
3, 647024, Note_on_c, 1, 40, 125
3, 647066, Note_on_c, 1, 40, 0
3, 647254, Note_on_c, 1, 40, 127
3, 647414, Note_on_c, 1, 41, 78
3, 647416, Note_on_c, 1, 40, 0
3, 647478, Note_on_c, 1, 41, 0
3, 647497, Note_on_c, 1, 40, 63
3, 647529, Note_on_c, 1, 41, 79
3, 647539, Note_on_c, 1, 40, 0
3, 647569, Note_on_c, 1, 40, 68
3, 647579, Note_on_c, 1, 41, 0
3, 647605, Note_on_c, 1, 41, 93
3, 647620, Note_on_c, 1, 40, 0
3, 647645, Note_on_c, 1, 40, 84
3, 647651, Note_on_c, 1, 41, 0
3, 647675, Note_on_c, 1, 41, 100
3, 647688, Note_on_c, 1, 40, 0
3, 647716, Note_on_c, 1, 41, 0
3, 647716, Note_on_c, 1, 40, 91
3, 647738, Note_on_c, 1, 41, 104
3, 647752, Note_on_c, 1, 40, 0
3, 647780, Note_on_c, 1, 40, 93
3, 647781, Note_on_c, 1, 41, 0
3, 647804, Note_on_c, 1, 41, 104
3, 647819, Note_on_c, 1, 40, 0
3, 647840, Note_on_c, 1, 40, 76
3, 647843, Note_on_c, 1, 41, 0
3, 647865, Note_on_c, 1, 41, 104
3, 647882, Note_on_c, 1, 40, 0
3, 647908, Note_on_c, 1, 41, 0
3, 647909, Note_on_c, 1, 40, 96
3, 647931, Note_on_c, 1, 41, 103
3, 647951, Note_on_c, 1, 40, 0
3, 647972, Note_on_c, 1, 40, 94
3, 647973, Note_on_c, 1, 41, 0
3, 647996, Note_on_c, 1, 41, 102
3, 648013, Note_on_c, 1, 40, 0
3, 648039, Note_on_c, 1, 40, 98
3, 648042, Note_on_c, 1, 41, 0
3, 648064, Note_on_c, 1, 41, 104
3, 648078, Note_on_c, 1, 40, 0
3, 648103, Note_on_c, 1, 40, 90
3, 648106, Note_on_c, 1, 41, 0
3, 648128, Note_on_c, 1, 41, 103
3, 648147, Note_on_c, 1, 40, 0
3, 648173, Note_on_c, 1, 41, 0
3, 648173, Note_on_c, 1, 40, 96
3, 648197, Note_on_c, 1, 41, 100
3, 648217, Note_on_c, 1, 40, 0
3, 648238, Note_on_c, 1, 40, 84
3, 648243, Note_on_c, 1, 41, 0
3, 648265, Note_on_c, 1, 41, 104
3, 648281, Note_on_c, 1, 40, 0
3, 648308, Note_on_c, 1, 40, 87
3, 648309, Note_on_c, 1, 41, 0
3, 648335, Note_on_c, 1, 41, 99
3, 648353, Note_on_c, 1, 40, 0
3, 648374, Note_on_c, 1, 40, 78
3, 648378, Note_on_c, 1, 41, 0
3, 648401, Note_on_c, 1, 41, 103
3, 648417, Note_on_c, 1, 40, 0
3, 648445, Note_on_c, 1, 41, 0
3, 648445, Note_on_c, 1, 40, 84
3, 648474, Note_on_c, 1, 41, 94
3, 648494, Note_on_c, 1, 40, 0
3, 648514, Note_on_c, 1, 40, 69
3, 648520, Note_on_c, 1, 41, 0
3, 648543, Note_on_c, 1, 41, 104
3, 648555, Note_on_c, 1, 40, 0
3, 648586, Note_on_c, 1, 40, 83
3, 648588, Note_on_c, 1, 41, 0
3, 648612, Note_on_c, 1, 41, 94
3, 648633, Note_on_c, 1, 40, 0
3, 648654, Note_on_c, 1, 40, 65
3, 648658, Note_on_c, 1, 41, 0
3, 648682, Note_on_c, 1, 41, 101
3, 648697, Note_on_c, 1, 40, 0
3, 648726, Note_on_c, 1, 40, 85
3, 648727, Note_on_c, 1, 41, 0
3, 648750, Note_on_c, 1, 41, 101
3, 648771, Note_on_c, 1, 40, 0
3, 648799, Note_on_c, 1, 41, 0
3, 648799, Note_on_c, 1, 40, 85
3, 648823, Note_on_c, 1, 41, 99
3, 648843, Note_on_c, 1, 40, 0
3, 648870, Note_on_c, 1, 40, 85
3, 648872, Note_on_c, 1, 41, 0
3, 648897, Note_on_c, 1, 41, 96
3, 648918, Note_on_c, 1, 40, 0
3, 648941, Note_on_c, 1, 40, 65
3, 648945, Note_on_c, 1, 41, 0
3, 648970, Note_on_c, 1, 41, 100
3, 648979, Note_on_c, 1, 40, 0
3, 649010, Note_on_c, 1, 40, 73
3, 649012, Note_on_c, 1, 41, 0
3, 649037, Note_on_c, 1, 41, 96
3, 649055, Note_on_c, 1, 40, 0
3, 649079, Note_on_c, 1, 40, 59
3, 649083, Note_on_c, 1, 41, 0
3, 649108, Note_on_c, 1, 41, 92
3, 649129, Note_on_c, 1, 40, 0
3, 649148, Note_on_c, 1, 40, 55
3, 649156, Note_on_c, 1, 41, 0
3, 649178, Note_on_c, 1, 41, 76
3, 649232, Note_on_c, 1, 41, 0
3, 649316, Note_on_c, 1, 40, 0
3, 649440, End_track
4, 0, Start_track
4, 0, Title_t, "Violini I                           "
4, 100, Control_c, 2, 0, 0
4, 120, Control_c, 2, 32, 0
4, 140, Program_c, 2, 49
4, 160, Control_c, 2, 10, 19
4, 180, Control_c, 2, 7, 120
4, 200, Control_c, 2, 11, 100
4, 220, Control_c, 2, 1, 19
4, 240, Control_c, 2, 91, 60
4, 260, Control_c, 2, 93, 38
4, 280, Control_c, 2, 101, 0
4, 300, Control_c, 2, 100, 0
4, 320, Control_c, 2, 6, 12
4, 340, Pitch_bend_c, 2, 8208
4, 360, Control_c, 2, 99, 1
4, 380, Control_c, 2, 98, 32
4, 400, Control_c, 2, 6, 62
4, 420, Control_c, 2, 98, 33
4, 440, Control_c, 2, 6, 60
4, 460, Control_c, 2, 98, 99
4, 480, Control_c, 2, 6, 57
4, 500, Control_c, 2, 98, 100
4, 520, Control_c, 2, 6, 64
4, 540, Control_c, 2, 98, 102
4, 560, Control_c, 2, 6, 66
4, 580, Control_c, 2, 99, 1
4, 600, Control_c, 2, 98, 8
4, 620, Control_c, 2, 6, 90
4, 640, Control_c, 2, 98, 9
4, 660, Control_c, 2, 6, 50
4, 680, Control_c, 2, 98, 10
4, 700, Control_c, 2, 6, 70
4, 1370, Control_c, 2, 11, 20
4, 1370, Note_on_c, 2, 59, 114
4, 1371, Control_c, 2, 11, 21
4, 1372, Control_c, 2, 11, 24
4, 1373, Control_c, 2, 11, 26
4, 1374, Control_c, 2, 11, 27
4, 1375, Control_c, 2, 11, 29
4, 1377, Control_c, 2, 11, 30
4, 1378, Control_c, 2, 11, 32
4, 1379, Control_c, 2, 11, 33
4, 1380, Control_c, 2, 11, 35
4, 1381, Control_c, 2, 11, 36
4, 1383, Control_c, 2, 11, 38
4, 1384, Control_c, 2, 11, 39
4, 1385, Control_c, 2, 11, 40
4, 1386, Control_c, 2, 11, 41
4, 1387, Control_c, 2, 11, 43
4, 1389, Control_c, 2, 11, 44
4, 1390, Control_c, 2, 11, 45
4, 1391, Control_c, 2, 11, 46
4, 1392, Control_c, 2, 11, 48
4, 1393, Control_c, 2, 11, 49
4, 1395, Control_c, 2, 11, 50
4, 1396, Control_c, 2, 11, 51
4, 1397, Control_c, 2, 11, 52
4, 1398, Control_c, 2, 11, 53
4, 1399, Control_c, 2, 11, 54
4, 1401, Control_c, 2, 11, 55
4, 1402, Control_c, 2, 11, 56
4, 1403, Control_c, 2, 11, 57
4, 1404, Control_c, 2, 11, 58
4, 1406, Control_c, 2, 11, 59
4, 1407, Control_c, 2, 11, 60
4, 1409, Control_c, 2, 11, 61
4, 1410, Control_c, 2, 11, 62
4, 1412, Control_c, 2, 11, 63
4, 1413, Control_c, 2, 11, 64
4, 1414, Control_c, 2, 11, 65
4, 1416, Control_c, 2, 11, 66
4, 1418, Control_c, 2, 11, 67
4, 1419, Control_c, 2, 11, 68
4, 1421, Control_c, 2, 11, 69
4, 1422, Control_c, 2, 11, 70
4, 1425, Control_c, 2, 11, 71
4, 1426, Control_c, 2, 11, 72
4, 1428, Control_c, 2, 11, 73
4, 1430, Control_c, 2, 11, 74
4, 1432, Control_c, 2, 11, 75
4, 1434, Control_c, 2, 11, 76
4, 1437, Control_c, 2, 11, 77
4, 1439, Control_c, 2, 11, 78
4, 1442, Control_c, 2, 11, 79
4, 1444, Control_c, 2, 11, 80
4, 1448, Control_c, 2, 11, 81
4, 1450, Control_c, 2, 11, 82
4, 1453, Control_c, 2, 11, 83
4, 1455, Control_c, 2, 11, 84
4, 1459, Control_c, 2, 11, 85
4, 1463, Control_c, 2, 11, 86
4, 1467, Control_c, 2, 11, 87
4, 1471, Control_c, 2, 11, 88
4, 1474, Control_c, 2, 11, 89
4, 1479, Control_c, 2, 11, 90
4, 1486, Control_c, 2, 11, 91
4, 1491, Control_c, 2, 11, 92
4, 1497, Control_c, 2, 11, 93
4, 1504, Control_c, 2, 11, 94
4, 1512, Control_c, 2, 11, 95
4, 1525, Control_c, 2, 11, 96
4, 1536, Control_c, 2, 11, 97
4, 1550, Control_c, 2, 11, 98
4, 1571, Control_c, 2, 11, 99
4, 1602, Control_c, 2, 11, 100
4, 1684, Note_on_c, 2, 59, 0
4, 1703, Note_on_c, 2, 64, 112
4, 2178, Note_on_c, 2, 63, 107
4, 2191, Note_on_c, 2, 64, 0
4, 2327, Note_on_c, 2, 64, 98
4, 2350, Note_on_c, 2, 63, 0
4, 2455, Note_on_c, 2, 67, 89
4, 2465, Note_on_c, 2, 64, 0
4, 2606, Note_on_c, 2, 71, 103
4, 2624, Note_on_c, 2, 67, 0
4, 2693, Note_on_c, 2, 71, 0
4, 2899, Note_on_c, 2, 71, 116
4, 2953, Note_on_c, 2, 71, 0
4, 3176, Note_on_c, 2, 71, 118
4, 3283, Note_on_c, 2, 71, 0
4, 3469, Note_on_c, 2, 76, 116
4, 3759, Note_on_c, 2, 75, 114
4, 3784, Note_on_c, 2, 76, 0
4, 3895, Note_on_c, 2, 76, 118
4, 3924, Note_on_c, 2, 75, 0
4, 4038, Note_on_c, 2, 78, 118
4, 4047, Note_on_c, 2, 76, 0
4, 4256, Note_on_c, 2, 76, 109
4, 4277, Note_on_c, 2, 78, 0
4, 4299, Note_on_c, 2, 76, 0
4, 4319, Note_on_c, 2, 76, 114
4, 4606, Note_on_c, 2, 75, 119
4, 4639, Note_on_c, 2, 76, 0
4, 4722, Note_on_c, 2, 75, 0
4, 4903, Note_on_c, 2, 83, 120
4, 5121, Note_on_c, 2, 81, 109
4, 5138, Note_on_c, 2, 83, 0
4, 5190, Note_on_c, 2, 79, 108
4, 5220, Note_on_c, 2, 81, 0
4, 5308, Note_on_c, 2, 79, 0
4, 5497, Note_on_c, 2, 79, 120
4, 5726, Note_on_c, 2, 78, 109
4, 5742, Note_on_c, 2, 79, 0
4, 5778, Note_on_c, 2, 76, 111
4, 5799, Note_on_c, 2, 78, 0
4, 5919, Note_on_c, 2, 76, 0
4, 6068, Note_on_c, 2, 76, 118
4, 6296, Note_on_c, 2, 74, 94
4, 6304, Note_on_c, 2, 76, 0
4, 6361, Note_on_c, 2, 72, 100
4, 6388, Note_on_c, 2, 74, 0
4, 6656, Note_on_c, 2, 71, 87
4, 6690, Note_on_c, 2, 72, 0
4, 7238, Note_on_c, 2, 72, 83
4, 7260, Note_on_c, 2, 71, 0
4, 7388, Note_on_c, 2, 71, 76
4, 7419, Note_on_c, 2, 72, 0
4, 7539, Note_on_c, 2, 67, 68
4, 7561, Note_on_c, 2, 71, 0
4, 7768, Note_on_c, 2, 67, 0
4, 7773, Note_on_c, 2, 64, 76
4, 7842, Note_on_c, 2, 67, 75
4, 7858, Note_on_c, 2, 64, 0
4, 8131, Note_on_c, 2, 66, 78
4, 8146, Note_on_c, 2, 67, 0
4, 8258, Note_on_c, 2, 66, 0
4, 8439, Note_on_c, 2, 68, 127
4, 8531, Note_on_c, 2, 69, 81
4, 8532, Note_on_c, 2, 68, 0
4, 8581, Note_on_c, 2, 68, 103
4, 8592, Note_on_c, 2, 69, 0
4, 8625, Note_on_c, 2, 69, 100
4, 8629, Note_on_c, 2, 68, 0
4, 8667, Note_on_c, 2, 68, 106
4, 8681, Note_on_c, 2, 69, 0
4, 8713, Note_on_c, 2, 66, 104
4, 8718, Note_on_c, 2, 68, 0
4, 8751, Note_on_c, 2, 68, 90
4, 8763, Note_on_c, 2, 66, 0
4, 8776, Note_on_c, 2, 69, 99
4, 8801, Note_on_c, 2, 68, 0
4, 9218, Note_on_c, 2, 68, 114
4, 9245, Note_on_c, 2, 69, 0
4, 9354, Note_on_c, 2, 69, 116
4, 9358, Note_on_c, 2, 68, 0
4, 9471, Note_on_c, 2, 69, 0
4, 9480, Note_on_c, 2, 72, 118
4, 9613, Note_on_c, 2, 72, 0
4, 9618, Note_on_c, 2, 76, 116
4, 9682, Note_on_c, 2, 76, 0
4, 9898, Note_on_c, 2, 76, 120
4, 10008, Note_on_c, 2, 76, 0
4, 10187, Note_on_c, 2, 76, 120
4, 10315, Note_on_c, 2, 76, 0
4, 10481, Note_on_c, 2, 81, 117
4, 10750, Note_on_c, 2, 80, 98
4, 10756, Note_on_c, 2, 81, 0
4, 10891, Note_on_c, 2, 81, 106
4, 10923, Note_on_c, 2, 80, 0
4, 11016, Note_on_c, 2, 83, 114
4, 11043, Note_on_c, 2, 81, 0
4, 11148, Note_on_c, 2, 84, 117
4, 11184, Note_on_c, 2, 83, 0
4, 11272, Note_on_c, 2, 84, 0
4, 11305, Note_on_c, 2, 84, 122
4, 11588, Note_on_c, 2, 83, 104
4, 11613, Note_on_c, 2, 84, 0
4, 11716, Note_on_c, 2, 81, 106
4, 11752, Note_on_c, 2, 83, 0
4, 11855, Note_on_c, 2, 79, 92
4, 11881, Note_on_c, 2, 81, 0
4, 11979, Note_on_c, 2, 78, 113
4, 12006, Note_on_c, 2, 79, 0
4, 12120, Note_on_c, 2, 79, 111
4, 12150, Note_on_c, 2, 78, 0
4, 12288, Note_on_c, 2, 79, 0
4, 13104, Note_on_c, 2, 61, 41
4, 14295, Note_on_c, 2, 61, 0
4, 14422, Note_on_c, 2, 67, 122
4, 14570, Note_on_c, 2, 64, 112
4, 14572, Note_on_c, 2, 67, 0
4, 14777, Note_on_c, 2, 61, 113
4, 14783, Note_on_c, 2, 64, 0
4, 14852, Note_on_c, 2, 59, 118
4, 14867, Note_on_c, 2, 61, 0
4, 14953, Note_on_c, 2, 59, 0
4, 15134, Note_on_c, 2, 79, 118
4, 15210, Note_on_c, 2, 79, 0
4, 15416, Note_on_c, 2, 78, 125
4, 15512, Note_on_c, 2, 78, 0
4, 15707, Note_on_c, 2, 85, 107
4, 15836, Note_on_c, 2, 85, 0
4, 16701, Note_on_c, 2, 61, 43
4, 17922, Note_on_c, 2, 61, 0
4, 18089, Note_on_c, 2, 67, 117
4, 18249, Note_on_c, 2, 64, 112
4, 18270, Note_on_c, 2, 67, 0
4, 18445, Note_on_c, 2, 64, 0
4, 18459, Note_on_c, 2, 61, 113
4, 18535, Note_on_c, 2, 59, 117
4, 18538, Note_on_c, 2, 61, 0
4, 18643, Note_on_c, 2, 59, 0
4, 18824, Note_on_c, 2, 79, 120
4, 18925, Note_on_c, 2, 79, 0
4, 19115, Note_on_c, 2, 78, 120
4, 19200, Note_on_c, 2, 78, 0
4, 19403, Note_on_c, 2, 76, 120
4, 19502, Note_on_c, 2, 76, 0
4, 19693, Note_on_c, 2, 85, 120
4, 19797, Note_on_c, 2, 85, 0
4, 19977, Note_on_c, 2, 82, 121
4, 20099, Note_on_c, 2, 82, 0
4, 20260, Note_on_c, 2, 90, 118
4, 20372, Note_on_c, 2, 90, 0
4, 20558, Note_on_c, 2, 87, 118
4, 20649, Note_on_c, 2, 87, 0
4, 20892, Note_on_c, 2, 88, 114
4, 20997, Note_on_c, 2, 88, 0
4, 21321, Note_on_c, 2, 84, 112
4, 21973, Note_on_c, 2, 84, 0
4, 22445, Note_on_c, 2, 64, 41
4, 23213, Note_on_c, 2, 63, 42
4, 23284, Note_on_c, 2, 64, 0
4, 23700, Note_on_c, 2, 64, 34
4, 23764, Note_on_c, 2, 63, 0
4, 24028, Note_on_c, 2, 64, 0
4, 24371, Note_on_c, 2, 71, 37
4, 24525, Note_on_c, 2, 67, 51
4, 24553, Note_on_c, 2, 71, 0
4, 24685, Note_on_c, 2, 69, 57
4, 24714, Note_on_c, 2, 67, 0
4, 24834, Control_c, 2, 11, 100
4, 24834, Note_on_c, 2, 71, 58
4, 24856, Control_c, 2, 11, 101
4, 24870, Note_on_c, 2, 69, 0
4, 24877, Control_c, 2, 11, 102
4, 24898, Control_c, 2, 11, 103
4, 24919, Control_c, 2, 11, 104
4, 24940, Control_c, 2, 11, 105
4, 24961, Control_c, 2, 11, 106
4, 24983, Control_c, 2, 11, 107
4, 25004, Control_c, 2, 11, 108
4, 25025, Control_c, 2, 11, 109
4, 25046, Control_c, 2, 11, 110
4, 25067, Control_c, 2, 11, 111
4, 25088, Control_c, 2, 11, 112
4, 25109, Control_c, 2, 11, 113
4, 25131, Control_c, 2, 11, 114
4, 25152, Control_c, 2, 11, 115
4, 25173, Control_c, 2, 11, 116
4, 25194, Control_c, 2, 11, 117
4, 25215, Control_c, 2, 11, 118
4, 25231, Note_on_c, 2, 71, 0
4, 25236, Control_c, 2, 11, 119
4, 25257, Control_c, 2, 11, 120
4, 25258, Control_c, 2, 11, 100
4, 25258, Note_on_c, 2, 76, 74
4, 25406, Note_on_c, 2, 78, 82
4, 25441, Note_on_c, 2, 76, 0
4, 25560, Note_on_c, 2, 79, 76
4, 25592, Note_on_c, 2, 78, 0
4, 25711, Note_on_c, 2, 78, 76
4, 25745, Note_on_c, 2, 79, 0
4, 25861, Note_on_c, 2, 76, 71
4, 25884, Note_on_c, 2, 78, 0
4, 26026, Note_on_c, 2, 71, 68
4, 26038, Note_on_c, 2, 76, 0
4, 26186, Note_on_c, 2, 72, 75
4, 26197, Note_on_c, 2, 71, 0
4, 26260, Note_on_c, 2, 74, 61
4, 26285, Note_on_c, 2, 72, 0
4, 26351, Note_on_c, 2, 72, 58
4, 26365, Note_on_c, 2, 74, 0
4, 26479, Note_on_c, 2, 71, 61
4, 26512, Note_on_c, 2, 72, 0
4, 26577, Note_on_c, 2, 71, 0
4, 26628, Note_on_c, 2, 71, 57
4, 26912, Note_on_c, 2, 69, 36
4, 26959, Note_on_c, 2, 71, 0
4, 27228, Note_on_c, 2, 69, 0
4, 27945, Note_on_c, 2, 72, 42
4, 28102, Note_on_c, 2, 69, 45
4, 28124, Note_on_c, 2, 72, 0
4, 28249, Note_on_c, 2, 71, 59
4, 28279, Note_on_c, 2, 69, 0
4, 28408, Control_c, 2, 11, 100
4, 28408, Note_on_c, 2, 72, 65
4, 28430, Control_c, 2, 11, 101
4, 28432, Note_on_c, 2, 71, 0
4, 28452, Control_c, 2, 11, 102
4, 28474, Control_c, 2, 11, 103
4, 28495, Control_c, 2, 11, 104
4, 28517, Control_c, 2, 11, 105
4, 28539, Control_c, 2, 11, 106
4, 28560, Control_c, 2, 11, 107
4, 28582, Control_c, 2, 11, 108
4, 28604, Control_c, 2, 11, 109
4, 28625, Control_c, 2, 11, 110
4, 28647, Control_c, 2, 11, 111
4, 28669, Control_c, 2, 11, 112
4, 28690, Control_c, 2, 11, 113
4, 28712, Control_c, 2, 11, 114
4, 28734, Control_c, 2, 11, 115
4, 28755, Control_c, 2, 11, 116
4, 28777, Control_c, 2, 11, 117
4, 28799, Control_c, 2, 11, 118
4, 28820, Note_on_c, 2, 72, 0
4, 28820, Control_c, 2, 11, 119
4, 28821, Control_c, 2, 11, 100
4, 28821, Note_on_c, 2, 78, 76
4, 28978, Note_on_c, 2, 79, 76
4, 29016, Note_on_c, 2, 78, 0
4, 29131, Note_on_c, 2, 81, 78
4, 29167, Note_on_c, 2, 79, 0
4, 29226, Note_on_c, 2, 81, 0
4, 29272, Note_on_c, 2, 81, 80
4, 29431, Note_on_c, 2, 75, 71
4, 29522, Note_on_c, 2, 81, 0
4, 29558, Note_on_c, 2, 78, 76
4, 29584, Note_on_c, 2, 75, 0
4, 29699, Note_on_c, 2, 78, 0
4, 29700, Note_on_c, 2, 72, 73
4, 29841, Note_on_c, 2, 71, 66
4, 29855, Note_on_c, 2, 72, 0
4, 29972, Note_on_c, 2, 69, 62
4, 29999, Note_on_c, 2, 71, 0
4, 30091, Note_on_c, 2, 69, 0
4, 30125, Note_on_c, 2, 69, 72
4, 30423, Note_on_c, 2, 67, 56
4, 30431, Note_on_c, 2, 69, 0
4, 30606, Note_on_c, 2, 67, 0
4, 30711, Note_on_c, 2, 76, 70
4, 31283, Note_on_c, 2, 75, 64
4, 31326, Note_on_c, 2, 76, 0
4, 31560, Note_on_c, 2, 75, 0
4, 31578, Note_on_c, 2, 72, 61
4, 31822, Note_on_c, 2, 72, 0
4, 31855, Note_on_c, 2, 72, 75
4, 32138, Note_on_c, 2, 71, 77
4, 32151, Note_on_c, 2, 72, 0
4, 32271, Note_on_c, 2, 70, 83
4, 32304, Note_on_c, 2, 71, 0
4, 32418, Note_on_c, 2, 71, 85
4, 32432, Note_on_c, 2, 70, 0
4, 32547, Control_c, 2, 11, 100
4, 32547, Note_on_c, 2, 76, 88
4, 32568, Note_on_c, 2, 71, 0
4, 32671, Note_on_c, 2, 76, 0
4, 32716, Note_on_c, 2, 76, 92
4, 32722, Control_c, 2, 11, 101
4, 32897, Control_c, 2, 11, 102
4, 33020, Note_on_c, 2, 75, 89
4, 33047, Note_on_c, 2, 76, 0
4, 33067, Control_c, 2, 11, 103
4, 33242, Control_c, 2, 11, 104
4, 33311, Note_on_c, 2, 72, 86
4, 33329, Note_on_c, 2, 75, 0
4, 33412, Control_c, 2, 11, 105
4, 33553, Note_on_c, 2, 72, 0
4, 33587, Control_c, 2, 11, 106
4, 33593, Note_on_c, 2, 72, 93
4, 33757, Control_c, 2, 11, 107
4, 33857, Note_on_c, 2, 72, 0
4, 33896, Note_on_c, 2, 71, 102
4, 33932, Control_c, 2, 11, 108
4, 33933, Note_on_c, 2, 71, 0
4, 33963, Note_on_c, 2, 71, 76
4, 34006, Note_on_c, 2, 71, 0
4, 34045, Note_on_c, 2, 77, 108
4, 34079, Note_on_c, 2, 77, 0
4, 34102, Control_c, 2, 11, 109
4, 34115, Note_on_c, 2, 77, 47
4, 34141, Note_on_c, 2, 77, 0
4, 34173, Note_on_c, 2, 76, 109
4, 34209, Note_on_c, 2, 76, 0
4, 34235, Note_on_c, 2, 76, 92
4, 34256, Note_on_c, 2, 76, 0
4, 34277, Control_c, 2, 11, 110
4, 34302, Note_on_c, 2, 74, 107
4, 34340, Note_on_c, 2, 74, 0
4, 34365, Note_on_c, 2, 74, 90
4, 34400, Note_on_c, 2, 74, 0
4, 34441, Note_on_c, 2, 72, 98
4, 34447, Control_c, 2, 11, 111
4, 34477, Note_on_c, 2, 72, 0
4, 34505, Note_on_c, 2, 72, 83
4, 34539, Note_on_c, 2, 72, 0
4, 34572, Note_on_c, 2, 74, 112
4, 34611, Note_on_c, 2, 74, 0
4, 34622, Control_c, 2, 11, 112
4, 34626, Note_on_c, 2, 74, 84
4, 34661, Note_on_c, 2, 74, 0
4, 34700, Note_on_c, 2, 76, 118
4, 34733, Note_on_c, 2, 76, 0
4, 34757, Note_on_c, 2, 76, 100
4, 34792, Control_c, 2, 11, 113
4, 34796, Note_on_c, 2, 76, 0
4, 34844, Note_on_c, 2, 84, 121
4, 34878, Note_on_c, 2, 84, 0
4, 34902, Note_on_c, 2, 84, 98
4, 34945, Note_on_c, 2, 84, 0
4, 34967, Control_c, 2, 11, 114
4, 34970, Note_on_c, 2, 83, 102
4, 35010, Note_on_c, 2, 83, 0
4, 35031, Note_on_c, 2, 83, 96
4, 35054, Note_on_c, 2, 83, 0
4, 35101, Note_on_c, 2, 81, 106
4, 35135, Note_on_c, 2, 81, 0
4, 35137, Control_c, 2, 11, 115
4, 35161, Note_on_c, 2, 81, 83
4, 35204, Note_on_c, 2, 81, 0
4, 35234, Note_on_c, 2, 76, 113
4, 35270, Note_on_c, 2, 76, 0
4, 35300, Note_on_c, 2, 76, 71
4, 35312, Control_c, 2, 11, 116
4, 35327, Note_on_c, 2, 76, 0
4, 35365, Note_on_c, 2, 77, 118
4, 35399, Note_on_c, 2, 77, 0
4, 35418, Note_on_c, 2, 77, 92
4, 35446, Note_on_c, 2, 77, 0
4, 35482, Control_c, 2, 11, 117
4, 35485, Note_on_c, 2, 76, 109
4, 35516, Note_on_c, 2, 76, 0
4, 35542, Note_on_c, 2, 76, 77
4, 35562, Note_on_c, 2, 76, 0
4, 35619, Note_on_c, 2, 86, 127
4, 35649, Note_on_c, 2, 86, 0
4, 35657, Control_c, 2, 11, 118
4, 35683, Note_on_c, 2, 86, 85
4, 35724, Note_on_c, 2, 86, 0
4, 35753, Note_on_c, 2, 84, 116
4, 35788, Note_on_c, 2, 84, 0
4, 35806, Note_on_c, 2, 84, 107
4, 35827, Control_c, 2, 11, 119
4, 35840, Note_on_c, 2, 84, 0
4, 35880, Note_on_c, 2, 83, 113
4, 35915, Note_on_c, 2, 83, 0
4, 35935, Note_on_c, 2, 83, 101
4, 35975, Note_on_c, 2, 83, 0
4, 36000, Control_c, 2, 11, 100
4, 36017, Note_on_c, 2, 84, 122
4, 36051, Note_on_c, 2, 84, 0
4, 36078, Note_on_c, 2, 84, 84
4, 36117, Note_on_c, 2, 84, 0
4, 36134, Note_on_c, 2, 84, 99
4, 36174, Note_on_c, 2, 84, 0
4, 36197, Note_on_c, 2, 84, 91
4, 36230, Note_on_c, 2, 84, 0
4, 36278, Note_on_c, 2, 84, 127
4, 36384, Note_on_c, 2, 84, 0
4, 36433, Note_on_c, 2, 83, 102
4, 36468, Note_on_c, 2, 83, 0
4, 36485, Note_on_c, 2, 83, 77
4, 36514, Note_on_c, 2, 83, 0
4, 36545, Note_on_c, 2, 81, 99
4, 36581, Note_on_c, 2, 81, 0
4, 36603, Note_on_c, 2, 81, 85
4, 36635, Note_on_c, 2, 81, 0
4, 36666, Note_on_c, 2, 80, 101
4, 36703, Note_on_c, 2, 80, 0
4, 36723, Note_on_c, 2, 80, 87
4, 36741, Note_on_c, 2, 80, 0
4, 36786, Note_on_c, 2, 81, 101
4, 36821, Note_on_c, 2, 81, 0
4, 36849, Note_on_c, 2, 81, 87
4, 36887, Note_on_c, 2, 81, 0
4, 36929, Note_on_c, 2, 84, 112
4, 36961, Note_on_c, 2, 84, 0
4, 36991, Note_on_c, 2, 84, 84
4, 37023, Note_on_c, 2, 84, 0
4, 37053, Note_on_c, 2, 84, 125
4, 37148, Note_on_c, 2, 84, 0
4, 37191, Note_on_c, 2, 83, 97
4, 37228, Note_on_c, 2, 83, 0
4, 37250, Note_on_c, 2, 83, 81
4, 37278, Note_on_c, 2, 83, 0
4, 37311, Note_on_c, 2, 81, 99
4, 37352, Note_on_c, 2, 81, 0
4, 37375, Note_on_c, 2, 81, 85
4, 37406, Note_on_c, 2, 81, 0
4, 37439, Note_on_c, 2, 80, 104
4, 37474, Note_on_c, 2, 80, 0
4, 37492, Note_on_c, 2, 80, 91
4, 37519, Note_on_c, 2, 80, 0
4, 37568, Note_on_c, 2, 81, 101
4, 37606, Note_on_c, 2, 81, 0
4, 37637, Note_on_c, 2, 81, 86
4, 37674, Note_on_c, 2, 81, 0
4, 37712, Note_on_c, 2, 84, 104
4, 37743, Note_on_c, 2, 84, 0
4, 37767, Note_on_c, 2, 84, 94
4, 37802, Note_on_c, 2, 84, 0
4, 37845, Note_on_c, 2, 83, 121
4, 37957, Note_on_c, 2, 83, 0
4, 37990, Note_on_c, 2, 81, 99
4, 38074, Note_on_c, 2, 81, 0
4, 38108, Note_on_c, 2, 79, 98
4, 38143, Note_on_c, 2, 79, 0
4, 38167, Note_on_c, 2, 79, 89
4, 38204, Note_on_c, 2, 79, 0
4, 38231, Note_on_c, 2, 78, 96
4, 38265, Note_on_c, 2, 78, 0
4, 38287, Note_on_c, 2, 78, 103
4, 38318, Note_on_c, 2, 78, 0
4, 38363, Note_on_c, 2, 79, 101
4, 38401, Note_on_c, 2, 79, 0
4, 38424, Note_on_c, 2, 79, 94
4, 38467, Note_on_c, 2, 79, 0
4, 38497, Note_on_c, 2, 83, 94
4, 38528, Note_on_c, 2, 83, 0
4, 38550, Note_on_c, 2, 83, 99
4, 38589, Note_on_c, 2, 83, 0
4, 38626, Note_on_c, 2, 83, 118
4, 38723, Note_on_c, 2, 83, 0
4, 38777, Note_on_c, 2, 81, 107
4, 38814, Note_on_c, 2, 81, 0
4, 38835, Note_on_c, 2, 81, 99
4, 38868, Note_on_c, 2, 81, 0
4, 38894, Note_on_c, 2, 79, 99
4, 38930, Note_on_c, 2, 79, 0
4, 38955, Note_on_c, 2, 79, 85
4, 39000, Note_on_c, 2, 79, 0
4, 39022, Note_on_c, 2, 78, 101
4, 39055, Note_on_c, 2, 78, 0
4, 39079, Note_on_c, 2, 78, 95
4, 39116, Note_on_c, 2, 78, 0
4, 39158, Note_on_c, 2, 79, 102
4, 39198, Note_on_c, 2, 79, 0
4, 39221, Note_on_c, 2, 79, 89
4, 39248, Note_on_c, 2, 79, 0
4, 39291, Note_on_c, 2, 79, 84
4, 39324, Note_on_c, 2, 79, 0
4, 39351, Note_on_c, 2, 79, 79
4, 39387, Note_on_c, 2, 79, 0
4, 39433, Note_on_c, 2, 79, 125
4, 39543, Note_on_c, 2, 79, 0
4, 39573, Note_on_c, 2, 78, 114
4, 39605, Note_on_c, 2, 78, 0
4, 39625, Note_on_c, 2, 78, 104
4, 39672, Note_on_c, 2, 78, 0
4, 39707, Note_on_c, 2, 78, 88
4, 39742, Note_on_c, 2, 78, 0
4, 39762, Note_on_c, 2, 78, 86
4, 39796, Note_on_c, 2, 78, 0
4, 39840, Note_on_c, 2, 76, 94
4, 39869, Note_on_c, 2, 76, 0
4, 39897, Note_on_c, 2, 76, 91
4, 39942, Note_on_c, 2, 76, 0
4, 39980, Note_on_c, 2, 75, 112
4, 40008, Note_on_c, 2, 75, 0
4, 40030, Note_on_c, 2, 75, 100
4, 40064, Note_on_c, 2, 75, 0
4, 40116, Note_on_c, 2, 79, 117
4, 40150, Note_on_c, 2, 79, 0
4, 40186, Note_on_c, 2, 79, 80
4, 40216, Note_on_c, 2, 79, 0
4, 40253, Note_on_c, 2, 79, 124
4, 40352, Note_on_c, 2, 79, 0
4, 40387, Note_on_c, 2, 78, 118
4, 40418, Note_on_c, 2, 78, 0
4, 40436, Note_on_c, 2, 78, 107
4, 40480, Note_on_c, 2, 78, 0
4, 40516, Note_on_c, 2, 78, 103
4, 40556, Note_on_c, 2, 78, 0
4, 40571, Note_on_c, 2, 78, 89
4, 40607, Note_on_c, 2, 78, 0
4, 40649, Note_on_c, 2, 76, 98
4, 40714, Note_on_c, 2, 76, 0
4, 40807, Note_on_c, 2, 75, 103
4, 40839, Note_on_c, 2, 75, 0
4, 40871, Note_on_c, 2, 75, 85
4, 40907, Note_on_c, 2, 75, 0
4, 40936, Note_on_c, 2, 75, 90
4, 40970, Note_on_c, 2, 75, 0
4, 40991, Note_on_c, 2, 75, 101
4, 41027, Note_on_c, 2, 75, 0
4, 41077, Note_on_c, 2, 83, 120
4, 41111, Note_on_c, 2, 83, 0
4, 41131, Note_on_c, 2, 83, 100
4, 41170, Note_on_c, 2, 83, 0
4, 41193, Note_on_c, 2, 83, 92
4, 41238, Note_on_c, 2, 83, 0
4, 41255, Note_on_c, 2, 83, 86
4, 41293, Note_on_c, 2, 83, 0
4, 41327, Note_on_c, 2, 83, 106
4, 41363, Note_on_c, 2, 83, 0
4, 41382, Note_on_c, 2, 83, 103
4, 41423, Note_on_c, 2, 83, 0
4, 41459, Note_on_c, 2, 83, 104
4, 41496, Note_on_c, 2, 83, 0
4, 41512, Note_on_c, 2, 83, 101
4, 41546, Note_on_c, 2, 83, 0
4, 41587, Note_on_c, 2, 83, 124
4, 41622, Note_on_c, 2, 83, 0
4, 41645, Note_on_c, 2, 83, 101
4, 41684, Note_on_c, 2, 83, 0
4, 41715, Note_on_c, 2, 83, 93
4, 41755, Note_on_c, 2, 83, 0
4, 41767, Note_on_c, 2, 83, 76
4, 41810, Note_on_c, 2, 83, 0
4, 41838, Note_on_c, 2, 83, 101
4, 41879, Note_on_c, 2, 83, 0
4, 41894, Note_on_c, 2, 83, 93
4, 41935, Note_on_c, 2, 83, 0
4, 41963, Note_on_c, 2, 83, 98
4, 41997, Note_on_c, 2, 83, 0
4, 42022, Note_on_c, 2, 83, 90
4, 42060, Note_on_c, 2, 83, 0
4, 42090, Note_on_c, 2, 82, 127
4, 42121, Note_on_c, 2, 82, 0
4, 42144, Note_on_c, 2, 82, 101
4, 42185, Note_on_c, 2, 82, 0
4, 42216, Note_on_c, 2, 82, 92
4, 42254, Note_on_c, 2, 82, 0
4, 42272, Note_on_c, 2, 82, 96
4, 42309, Note_on_c, 2, 82, 0
4, 42354, Note_on_c, 2, 83, 124
4, 42391, Note_on_c, 2, 83, 0
4, 42417, Note_on_c, 2, 83, 92
4, 42458, Note_on_c, 2, 83, 0
4, 42482, Note_on_c, 2, 83, 94
4, 42520, Note_on_c, 2, 83, 0
4, 42542, Note_on_c, 2, 83, 92
4, 42585, Note_on_c, 2, 83, 0
4, 42611, Note_on_c, 2, 83, 102
4, 42648, Note_on_c, 2, 83, 0
4, 42674, Note_on_c, 2, 83, 92
4, 42714, Note_on_c, 2, 83, 0
4, 42742, Note_on_c, 2, 83, 106
4, 42777, Note_on_c, 2, 83, 0
4, 42804, Note_on_c, 2, 83, 102
4, 42843, Note_on_c, 2, 83, 0
4, 42869, Note_on_c, 2, 83, 109
4, 42906, Note_on_c, 2, 83, 0
4, 42928, Note_on_c, 2, 83, 104
4, 42966, Note_on_c, 2, 83, 0
4, 42995, Note_on_c, 2, 83, 98
4, 43031, Note_on_c, 2, 83, 0
4, 43044, Note_on_c, 2, 83, 87
4, 43080, Note_on_c, 2, 83, 0
4, 43106, Note_on_c, 2, 83, 109
4, 43144, Note_on_c, 2, 83, 0
4, 43157, Note_on_c, 2, 83, 102
4, 43197, Note_on_c, 2, 83, 0
4, 43230, Note_on_c, 2, 83, 107
4, 43266, Note_on_c, 2, 83, 0
4, 43283, Note_on_c, 2, 83, 111
4, 43323, Note_on_c, 2, 83, 0
4, 43349, Note_on_c, 2, 83, 106
4, 43389, Note_on_c, 2, 83, 0
4, 43405, Note_on_c, 2, 83, 109
4, 43443, Note_on_c, 2, 83, 0
4, 43472, Note_on_c, 2, 83, 111
4, 43506, Note_on_c, 2, 83, 0
4, 43525, Note_on_c, 2, 83, 108
4, 43566, Note_on_c, 2, 83, 0
4, 43591, Note_on_c, 2, 82, 126
4, 43623, Note_on_c, 2, 82, 0
4, 43653, Note_on_c, 2, 82, 99
4, 43693, Note_on_c, 2, 82, 0
4, 43716, Note_on_c, 2, 82, 112
4, 43755, Note_on_c, 2, 82, 0
4, 43770, Note_on_c, 2, 82, 116
4, 43811, Note_on_c, 2, 82, 0
4, 43853, Note_on_c, 2, 83, 118
4, 44088, Note_on_c, 2, 83, 0
4, 44291, Control_c, 2, 11, 100
4, 44291, Note_on_c, 2, 58, 48
4, 44438, Note_on_c, 2, 59, 57
4, 44462, Note_on_c, 2, 58, 0
4, 44591, Note_on_c, 2, 63, 65
4, 44667, Note_on_c, 2, 59, 0
4, 44771, Note_on_c, 2, 66, 57
4, 44804, Note_on_c, 2, 63, 0
4, 45026, Note_on_c, 2, 66, 0
4, 45267, Note_on_c, 2, 65, 44
4, 45418, Note_on_c, 2, 66, 47
4, 45489, Note_on_c, 2, 65, 0
4, 45588, Note_on_c, 2, 69, 50
4, 45623, Note_on_c, 2, 66, 0
4, 45797, Note_on_c, 2, 72, 63
4, 45839, Note_on_c, 2, 69, 0
4, 45840, Control_c, 2, 11, 100
4, 46223, Control_c, 2, 11, 99
4, 46342, Control_c, 2, 11, 98
4, 46406, Control_c, 2, 11, 97
4, 46459, Control_c, 2, 11, 96
4, 46492, Control_c, 2, 11, 95
4, 46526, Control_c, 2, 11, 94
4, 46552, Control_c, 2, 11, 93
4, 46575, Control_c, 2, 11, 92
4, 46593, Control_c, 2, 11, 91
4, 46612, Control_c, 2, 11, 90
4, 46627, Control_c, 2, 11, 89
4, 46642, Control_c, 2, 11, 88
4, 46657, Control_c, 2, 11, 87
4, 46672, Control_c, 2, 11, 86
4, 46680, Control_c, 2, 11, 85
4, 46695, Control_c, 2, 11, 84
4, 46706, Control_c, 2, 11, 83
4, 46713, Control_c, 2, 11, 82
4, 46725, Control_c, 2, 11, 81
4, 46732, Control_c, 2, 11, 80
4, 46740, Control_c, 2, 11, 79
4, 46747, Control_c, 2, 11, 78
4, 46755, Control_c, 2, 11, 77
4, 46762, Control_c, 2, 11, 76
4, 46770, Control_c, 2, 11, 75
4, 46777, Control_c, 2, 11, 74
4, 46785, Control_c, 2, 11, 73
4, 46788, Control_c, 2, 11, 72
4, 46796, Control_c, 2, 11, 71
4, 46799, Control_c, 2, 11, 70
4, 47161, Note_on_c, 2, 72, 0
4, 47373, Control_c, 2, 11, 80
4, 47373, Note_on_c, 2, 60, 52
4, 47521, Note_on_c, 2, 60, 0
4, 48057, Note_on_c, 2, 59, 45
4, 48390, Note_on_c, 2, 59, 0
4, 48693, Note_on_c, 2, 69, 33
4, 48878, Note_on_c, 2, 69, 0
4, 49013, Note_on_c, 2, 69, 47
4, 49177, Note_on_c, 2, 69, 0
4, 49331, Note_on_c, 2, 69, 57
4, 49504, Note_on_c, 2, 69, 0
4, 49656, Note_on_c, 2, 69, 61
4, 49991, Note_on_c, 2, 68, 51
4, 50005, Note_on_c, 2, 69, 0
4, 50158, Note_on_c, 2, 68, 0
4, 50316, Note_on_c, 2, 73, 51
4, 50542, Note_on_c, 2, 73, 0
4, 50611, Note_on_c, 2, 73, 55
4, 50830, Note_on_c, 2, 73, 0
4, 50930, Note_on_c, 2, 73, 60
4, 51080, Note_on_c, 2, 73, 0
4, 51228, Note_on_c, 2, 73, 65
4, 51438, Note_on_c, 2, 73, 0
4, 51581, Note_on_c, 2, 73, 74
4, 51917, Note_on_c, 2, 71, 52
4, 51965, Note_on_c, 2, 73, 0
4, 52132, Note_on_c, 2, 71, 0
4, 52271, Control_c, 2, 11, 50
4, 52271, Note_on_c, 2, 76, 77
4, 52282, Control_c, 2, 11, 51
4, 52292, Control_c, 2, 11, 52
4, 52301, Control_c, 2, 11, 53
4, 52311, Control_c, 2, 11, 54
4, 52320, Control_c, 2, 11, 55
4, 52330, Control_c, 2, 11, 56
4, 52339, Control_c, 2, 11, 57
4, 52349, Control_c, 2, 11, 58
4, 52359, Control_c, 2, 11, 59
4, 52368, Control_c, 2, 11, 60
4, 52378, Control_c, 2, 11, 61
4, 52387, Control_c, 2, 11, 62
4, 52397, Control_c, 2, 11, 63
4, 52406, Control_c, 2, 11, 64
4, 52416, Control_c, 2, 11, 65
4, 52426, Control_c, 2, 11, 66
4, 52435, Control_c, 2, 11, 67
4, 52445, Control_c, 2, 11, 68
4, 52454, Control_c, 2, 11, 69
4, 52464, Control_c, 2, 11, 70
4, 52473, Control_c, 2, 11, 71
4, 52483, Control_c, 2, 11, 72
4, 52493, Control_c, 2, 11, 73
4, 52502, Control_c, 2, 11, 74
4, 52512, Control_c, 2, 11, 75
4, 52521, Control_c, 2, 11, 76
4, 52531, Control_c, 2, 11, 77
4, 52540, Control_c, 2, 11, 78
4, 52550, Control_c, 2, 11, 79
4, 52559, Control_c, 2, 11, 80
4, 52932, Note_on_c, 2, 75, 67
4, 52977, Note_on_c, 2, 76, 0
4, 53300, Note_on_c, 2, 75, 0
4, 53335, Control_c, 2, 11, 70
4, 53335, Note_on_c, 2, 78, 71
4, 53358, Control_c, 2, 11, 71
4, 53380, Control_c, 2, 11, 72
4, 53402, Control_c, 2, 11, 73
4, 53424, Control_c, 2, 11, 74
4, 53446, Control_c, 2, 11, 75
4, 53468, Control_c, 2, 11, 76
4, 53490, Control_c, 2, 11, 77
4, 53513, Control_c, 2, 11, 78
4, 53535, Control_c, 2, 11, 79
4, 53557, Control_c, 2, 11, 80
4, 53579, Control_c, 2, 11, 81
4, 53601, Control_c, 2, 11, 82
4, 53623, Control_c, 2, 11, 83
4, 53645, Control_c, 2, 11, 84
4, 53667, Control_c, 2, 11, 85
4, 53690, Control_c, 2, 11, 86
4, 53712, Control_c, 2, 11, 87
4, 53734, Control_c, 2, 11, 88
4, 53756, Control_c, 2, 11, 89
4, 53778, Control_c, 2, 11, 90
4, 53800, Control_c, 2, 11, 91
4, 53822, Control_c, 2, 11, 92
4, 53845, Control_c, 2, 11, 93
4, 53867, Control_c, 2, 11, 94
4, 53889, Control_c, 2, 11, 95
4, 53911, Control_c, 2, 11, 96
4, 53933, Control_c, 2, 11, 97
4, 53955, Control_c, 2, 11, 98
4, 53977, Control_c, 2, 11, 99
4, 53999, Control_c, 2, 11, 100
4, 54021, Note_on_c, 2, 76, 65
4, 54036, Note_on_c, 2, 78, 0
4, 54395, Note_on_c, 2, 69, 45
4, 54424, Note_on_c, 2, 76, 0
4, 54893, Control_c, 2, 11, 100
4, 54893, Note_on_c, 2, 66, 45
4, 54923, Note_on_c, 2, 69, 0
4, 54960, Control_c, 2, 11, 99
4, 55027, Control_c, 2, 11, 98
4, 55093, Control_c, 2, 11, 97
4, 55160, Control_c, 2, 11, 96
4, 55227, Control_c, 2, 11, 95
4, 55293, Control_c, 2, 11, 94
4, 55360, Control_c, 2, 11, 93
4, 55427, Control_c, 2, 11, 92
4, 55493, Control_c, 2, 11, 91
4, 55560, Control_c, 2, 11, 90
4, 55627, Control_c, 2, 11, 89
4, 55693, Control_c, 2, 11, 88
4, 55760, Control_c, 2, 11, 87
4, 55827, Control_c, 2, 11, 86
4, 55893, Control_c, 2, 11, 85
4, 55960, Control_c, 2, 11, 84
4, 56027, Control_c, 2, 11, 83
4, 56093, Control_c, 2, 11, 82
4, 56160, Control_c, 2, 11, 81
4, 56226, Control_c, 2, 11, 80
4, 56227, Note_on_c, 2, 64, 39
4, 56308, Note_on_c, 2, 66, 0
4, 56387, Note_on_c, 2, 64, 0
4, 56446, Note_on_c, 2, 64, 39
4, 56823, Note_on_c, 2, 68, 45
4, 56882, Note_on_c, 2, 64, 0
4, 57141, Note_on_c, 2, 69, 48
4, 57194, Note_on_c, 2, 68, 0
4, 57410, Note_on_c, 2, 71, 55
4, 57468, Note_on_c, 2, 69, 0
4, 57697, Note_on_c, 2, 73, 60
4, 57731, Note_on_c, 2, 71, 0
4, 57830, Note_on_c, 2, 75, 58
4, 57853, Note_on_c, 2, 73, 0
4, 57975, Note_on_c, 2, 76, 68
4, 57994, Note_on_c, 2, 75, 0
4, 58112, Note_on_c, 2, 78, 73
4, 58152, Note_on_c, 2, 76, 0
4, 58258, Control_c, 2, 11, 80
4, 58258, Note_on_c, 2, 80, 70
4, 58288, Control_c, 2, 11, 81
4, 58301, Note_on_c, 2, 78, 0
4, 58313, Control_c, 2, 11, 82
4, 58343, Control_c, 2, 11, 83
4, 58368, Control_c, 2, 11, 84
4, 58398, Control_c, 2, 11, 85
4, 58423, Control_c, 2, 11, 86
4, 58448, Control_c, 2, 11, 87
4, 58478, Control_c, 2, 11, 88
4, 58503, Control_c, 2, 11, 89
4, 58533, Control_c, 2, 11, 90
4, 58558, Control_c, 2, 11, 91
4, 58567, Note_on_c, 2, 78, 60
4, 58583, Control_c, 2, 11, 92
4, 58587, Note_on_c, 2, 80, 0
4, 58613, Control_c, 2, 11, 93
4, 58638, Control_c, 2, 11, 94
4, 58668, Control_c, 2, 11, 95
4, 58693, Control_c, 2, 11, 96
4, 58708, Note_on_c, 2, 76, 55
4, 58718, Control_c, 2, 11, 97
4, 58730, Note_on_c, 2, 78, 0
4, 58748, Control_c, 2, 11, 98
4, 58773, Control_c, 2, 11, 99
4, 58800, Control_c, 2, 11, 100
4, 58846, Note_on_c, 2, 75, 45
4, 58886, Note_on_c, 2, 76, 0
4, 58984, Note_on_c, 2, 73, 40
4, 59006, Note_on_c, 2, 75, 0
4, 59128, Note_on_c, 2, 73, 0
4, 59128, Control_c, 2, 11, 100
4, 59128, Note_on_c, 2, 75, 50
4, 59423, Control_c, 2, 11, 99
4, 59503, Control_c, 2, 11, 98
4, 59548, Control_c, 2, 11, 97
4, 59583, Control_c, 2, 11, 96
4, 59603, Control_c, 2, 11, 95
4, 59628, Control_c, 2, 11, 94
4, 59643, Control_c, 2, 11, 93
4, 59658, Control_c, 2, 11, 92
4, 59673, Control_c, 2, 11, 91
4, 59683, Control_c, 2, 11, 90
4, 59693, Control_c, 2, 11, 89
4, 59703, Control_c, 2, 11, 88
4, 59713, Control_c, 2, 11, 87
4, 59723, Control_c, 2, 11, 86
4, 59728, Control_c, 2, 11, 85
4, 59738, Control_c, 2, 11, 84
4, 59743, Control_c, 2, 11, 83
4, 59753, Control_c, 2, 11, 82
4, 59758, Control_c, 2, 11, 81
4, 59760, Control_c, 2, 11, 80
4, 60039, Note_on_c, 2, 73, 54
4, 60065, Note_on_c, 2, 75, 0
4, 60206, Note_on_c, 2, 73, 0
4, 60318, Note_on_c, 2, 73, 67
4, 60629, Note_on_c, 2, 71, 60
4, 60685, Note_on_c, 2, 73, 0
4, 60873, Note_on_c, 2, 71, 0
4, 60909, Note_on_c, 2, 71, 66
4, 61202, Note_on_c, 2, 69, 62
4, 61234, Note_on_c, 2, 71, 0
4, 61514, Note_on_c, 2, 68, 57
4, 61647, Note_on_c, 2, 69, 0
4, 61769, Note_on_c, 2, 68, 0
4, 61826, Note_on_c, 2, 68, 59
4, 62273, Note_on_c, 2, 66, 60
4, 62313, Note_on_c, 2, 68, 0
4, 62413, Note_on_c, 2, 64, 50
4, 62440, Note_on_c, 2, 66, 0
4, 62565, Note_on_c, 2, 66, 49
4, 62598, Note_on_c, 2, 64, 0
4, 62746, Control_c, 2, 11, 80
4, 62746, Note_on_c, 2, 63, 52
4, 62802, Note_on_c, 2, 66, 0
4, 63216, Control_c, 2, 11, 79
4, 63361, Control_c, 2, 11, 78
4, 63436, Control_c, 2, 11, 77
4, 63501, Control_c, 2, 11, 76
4, 63541, Control_c, 2, 11, 75
4, 63586, Control_c, 2, 11, 74
4, 63616, Control_c, 2, 11, 73
4, 63646, Control_c, 2, 11, 72
4, 63666, Control_c, 2, 11, 71
4, 63691, Control_c, 2, 11, 70
4, 63706, Control_c, 2, 11, 69
4, 63726, Control_c, 2, 11, 68
4, 63746, Control_c, 2, 11, 67
4, 63761, Control_c, 2, 11, 66
4, 63771, Control_c, 2, 11, 65
4, 63791, Control_c, 2, 11, 64
4, 63801, Control_c, 2, 11, 63
4, 63811, Control_c, 2, 11, 62
4, 63826, Control_c, 2, 11, 61
4, 63836, Control_c, 2, 11, 60
4, 63846, Control_c, 2, 11, 59
4, 63856, Control_c, 2, 11, 58
4, 63861, Control_c, 2, 11, 57
4, 63871, Control_c, 2, 11, 56
4, 63881, Control_c, 2, 11, 55
4, 63891, Control_c, 2, 11, 54
4, 63901, Control_c, 2, 11, 53
4, 63906, Control_c, 2, 11, 52
4, 63911, Control_c, 2, 11, 51
4, 63916, Control_c, 2, 11, 50
4, 63916, Note_on_c, 2, 64, 62
4, 63996, Note_on_c, 2, 63, 0
4, 64229, Note_on_c, 2, 64, 0
4, 64279, Control_c, 2, 11, 80
4, 64279, Note_on_c, 2, 68, 57
4, 64594, Note_on_c, 2, 69, 64
4, 64617, Note_on_c, 2, 68, 0
4, 64895, Note_on_c, 2, 71, 67
4, 64905, Note_on_c, 2, 69, 0
4, 65194, Note_on_c, 2, 73, 70
4, 65217, Note_on_c, 2, 71, 0
4, 65334, Note_on_c, 2, 75, 70
4, 65360, Note_on_c, 2, 73, 0
4, 65467, Note_on_c, 2, 76, 63
4, 65499, Note_on_c, 2, 75, 0
4, 65614, Note_on_c, 2, 78, 76
4, 65670, Note_on_c, 2, 76, 0
4, 65779, Control_c, 2, 11, 80
4, 65779, Note_on_c, 2, 80, 68
4, 65804, Control_c, 2, 11, 81
4, 65829, Control_c, 2, 11, 82
4, 65848, Note_on_c, 2, 78, 0
4, 65849, Control_c, 2, 11, 83
4, 65874, Control_c, 2, 11, 84
4, 65894, Control_c, 2, 11, 85
4, 65919, Control_c, 2, 11, 86
4, 65944, Control_c, 2, 11, 87
4, 65964, Control_c, 2, 11, 88
4, 65989, Control_c, 2, 11, 89
4, 66009, Control_c, 2, 11, 90
4, 66034, Control_c, 2, 11, 91
4, 66059, Control_c, 2, 11, 92
4, 66079, Control_c, 2, 11, 93
4, 66093, Note_on_c, 2, 78, 68
4, 66104, Control_c, 2, 11, 94
4, 66123, Note_on_c, 2, 80, 0
4, 66124, Control_c, 2, 11, 95
4, 66149, Control_c, 2, 11, 96
4, 66174, Control_c, 2, 11, 97
4, 66194, Control_c, 2, 11, 98
4, 66219, Control_c, 2, 11, 99
4, 66239, Note_on_c, 2, 76, 58
4, 66239, Control_c, 2, 11, 100
4, 66265, Note_on_c, 2, 78, 0
4, 66390, Note_on_c, 2, 75, 65
4, 66431, Note_on_c, 2, 76, 0
4, 66530, Note_on_c, 2, 73, 61
4, 66561, Note_on_c, 2, 75, 0
4, 66677, Control_c, 2, 11, 100
4, 66677, Note_on_c, 2, 75, 65
4, 66697, Note_on_c, 2, 73, 0
4, 67032, Control_c, 2, 11, 99
4, 67127, Control_c, 2, 11, 98
4, 67187, Control_c, 2, 11, 97
4, 67222, Control_c, 2, 11, 96
4, 67252, Control_c, 2, 11, 95
4, 67277, Control_c, 2, 11, 94
4, 67297, Control_c, 2, 11, 93
4, 67317, Control_c, 2, 11, 92
4, 67332, Control_c, 2, 11, 91
4, 67347, Control_c, 2, 11, 90
4, 67362, Control_c, 2, 11, 89
4, 67372, Control_c, 2, 11, 88
4, 67387, Control_c, 2, 11, 87
4, 67392, Control_c, 2, 11, 86
4, 67402, Control_c, 2, 11, 85
4, 67412, Control_c, 2, 11, 84
4, 67422, Control_c, 2, 11, 83
4, 67432, Control_c, 2, 11, 82
4, 67437, Control_c, 2, 11, 81
4, 67440, Control_c, 2, 11, 80
4, 67541, Note_on_c, 2, 73, 49
4, 67602, Note_on_c, 2, 75, 0
4, 67724, Note_on_c, 2, 73, 0
4, 67832, Note_on_c, 2, 73, 67
4, 68153, Note_on_c, 2, 71, 63
4, 68199, Note_on_c, 2, 73, 0
4, 68740, Note_on_c, 2, 69, 56
4, 68783, Note_on_c, 2, 71, 0
4, 69101, Note_on_c, 2, 68, 47
4, 69169, Note_on_c, 2, 69, 0
4, 69617, Note_on_c, 2, 66, 55
4, 69631, Note_on_c, 2, 68, 0
4, 69803, Note_on_c, 2, 75, 46
4, 69877, Note_on_c, 2, 66, 0
4, 69954, Note_on_c, 2, 73, 52
4, 70017, Note_on_c, 2, 75, 0
4, 70121, Note_on_c, 2, 69, 47
4, 70254, Note_on_c, 2, 73, 0
4, 70288, Note_on_c, 2, 63, 42
4, 70314, Note_on_c, 2, 69, 0
4, 70476, Note_on_c, 2, 64, 45
4, 70520, Note_on_c, 2, 63, 0
4, 71028, Note_on_c, 2, 64, 0
4, 72480, Program_c, 2, 45
4, 72480, Control_c, 2, 91, 120
4, 72918, Note_on_c, 2, 75, 31
4, 72920, Note_on_c, 2, 66, 28
4, 72980, Note_on_c, 2, 66, 0
4, 73001, Note_on_c, 2, 75, 0
4, 73230, Note_on_c, 2, 73, 24
4, 73269, Note_on_c, 2, 64, 27
4, 73363, Note_on_c, 2, 64, 0
4, 73374, Note_on_c, 2, 73, 0
4, 74447, Note_on_c, 2, 71, 37
4, 74508, Note_on_c, 2, 71, 0
4, 74761, Note_on_c, 2, 71, 32
4, 74822, Note_on_c, 2, 71, 0
4, 75073, Note_on_c, 2, 71, 28
4, 75170, Note_on_c, 2, 71, 0
4, 76615, Note_on_c, 2, 75, 29
4, 76622, Note_on_c, 2, 66, 30
4, 76681, Note_on_c, 2, 75, 0
4, 76687, Note_on_c, 2, 66, 0
4, 76931, Note_on_c, 2, 73, 28
4, 76941, Note_on_c, 2, 64, 32
4, 77020, Note_on_c, 2, 73, 0
4, 77031, Note_on_c, 2, 64, 0
4, 78000, Program_c, 2, 49
4, 78000, Control_c, 2, 91, 60
4, 78195, Note_on_c, 2, 71, 51
4, 78561, Note_on_c, 2, 69, 59
4, 78599, Note_on_c, 2, 71, 0
4, 78917, Note_on_c, 2, 68, 65
4, 78977, Note_on_c, 2, 69, 0
4, 79557, Note_on_c, 2, 69, 65
4, 79582, Note_on_c, 2, 68, 0
4, 79853, Note_on_c, 2, 71, 72
4, 79863, Note_on_c, 2, 69, 0
4, 80156, Note_on_c, 2, 73, 74
4, 80184, Note_on_c, 2, 71, 0
4, 80297, Note_on_c, 2, 75, 76
4, 80322, Note_on_c, 2, 73, 0
4, 80437, Note_on_c, 2, 76, 78
4, 80465, Note_on_c, 2, 75, 0
4, 80590, Note_on_c, 2, 78, 78
4, 80646, Note_on_c, 2, 76, 0
4, 80751, Note_on_c, 2, 80, 71
4, 80792, Note_on_c, 2, 78, 0
4, 81070, Note_on_c, 2, 78, 73
4, 81097, Note_on_c, 2, 80, 0
4, 81208, Note_on_c, 2, 76, 68
4, 81236, Note_on_c, 2, 78, 0
4, 81365, Note_on_c, 2, 75, 71
4, 81398, Note_on_c, 2, 76, 0
4, 81508, Note_on_c, 2, 73, 72
4, 81531, Note_on_c, 2, 75, 0
4, 81646, Note_on_c, 2, 75, 76
4, 81661, Note_on_c, 2, 73, 0
4, 82588, Note_on_c, 2, 73, 67
4, 82611, Note_on_c, 2, 75, 0
4, 82814, Note_on_c, 2, 73, 0
4, 82895, Note_on_c, 2, 73, 85
4, 83198, Control_c, 2, 11, 80
4, 83198, Note_on_c, 2, 71, 77
4, 83224, Note_on_c, 2, 73, 0
4, 83264, Control_c, 2, 11, 81
4, 83330, Control_c, 2, 11, 82
4, 83396, Control_c, 2, 11, 83
4, 83456, Control_c, 2, 11, 84
4, 83522, Control_c, 2, 11, 85
4, 83588, Control_c, 2, 11, 86
4, 83648, Control_c, 2, 11, 87
4, 83714, Control_c, 2, 11, 88
4, 83780, Control_c, 2, 11, 89
4, 83840, Control_c, 2, 11, 90
4, 83841, Note_on_c, 2, 69, 79
4, 83875, Note_on_c, 2, 71, 0
4, 83906, Control_c, 2, 11, 91
4, 83972, Control_c, 2, 11, 92
4, 84032, Control_c, 2, 11, 93
4, 84098, Control_c, 2, 11, 94
4, 84164, Control_c, 2, 11, 95
4, 84177, Note_on_c, 2, 68, 88
4, 84221, Note_on_c, 2, 69, 0
4, 84224, Control_c, 2, 11, 96
4, 84290, Control_c, 2, 11, 97
4, 84356, Control_c, 2, 11, 98
4, 84416, Control_c, 2, 11, 99
4, 84439, Note_on_c, 2, 68, 0
4, 84480, Control_c, 2, 11, 100
4, 84482, Note_on_c, 2, 67, 127
4, 84518, Note_on_c, 2, 67, 0
4, 84558, Note_on_c, 2, 67, 100
4, 84599, Note_on_c, 2, 67, 0
4, 84660, Note_on_c, 2, 79, 126
4, 84693, Note_on_c, 2, 79, 0
4, 84725, Note_on_c, 2, 79, 103
4, 84766, Note_on_c, 2, 79, 0
4, 84794, Note_on_c, 2, 79, 114
4, 84832, Note_on_c, 2, 79, 0
4, 84859, Note_on_c, 2, 79, 107
4, 84898, Note_on_c, 2, 79, 0
4, 84928, Note_on_c, 2, 79, 116
4, 84964, Note_on_c, 2, 79, 0
4, 84988, Note_on_c, 2, 79, 107
4, 85028, Note_on_c, 2, 79, 0
4, 85065, Note_on_c, 2, 78, 123
4, 85098, Note_on_c, 2, 78, 0
4, 85121, Note_on_c, 2, 78, 108
4, 85161, Note_on_c, 2, 78, 0
4, 85200, Note_on_c, 2, 76, 118
4, 85236, Note_on_c, 2, 76, 0
4, 85259, Note_on_c, 2, 76, 106
4, 85299, Note_on_c, 2, 76, 0
4, 85340, Note_on_c, 2, 75, 127
4, 85382, Note_on_c, 2, 75, 0
4, 85510, Note_on_c, 2, 76, 90
4, 85566, Note_on_c, 2, 76, 0
4, 85575, Note_on_c, 2, 78, 97
4, 85632, Note_on_c, 2, 80, 103
4, 85653, Note_on_c, 2, 78, 0
4, 85694, Note_on_c, 2, 81, 93
4, 85697, Note_on_c, 2, 80, 0
4, 85758, Note_on_c, 2, 83, 99
4, 85768, Note_on_c, 2, 81, 0
4, 85815, Note_on_c, 2, 85, 110
4, 85832, Note_on_c, 2, 83, 0
4, 85880, Note_on_c, 2, 87, 107
4, 85900, Note_on_c, 2, 85, 0
4, 85936, Note_on_c, 2, 87, 0
4, 85943, Note_on_c, 2, 88, 103
4, 86016, Note_on_c, 2, 90, 106
4, 86019, Note_on_c, 2, 88, 0
4, 86074, Note_on_c, 2, 90, 0
4, 86078, Note_on_c, 2, 91, 99
4, 86175, Note_on_c, 2, 91, 0
4, 86233, Note_on_c, 2, 92, 127
4, 86275, Note_on_c, 2, 92, 0
4, 86312, Note_on_c, 2, 92, 96
4, 86351, Note_on_c, 2, 92, 0
4, 86381, Note_on_c, 2, 92, 95
4, 86417, Note_on_c, 2, 92, 0
4, 86428, Note_on_c, 2, 92, 98
4, 86464, Note_on_c, 2, 92, 0
4, 86506, Note_on_c, 2, 92, 120
4, 86545, Note_on_c, 2, 92, 0
4, 86572, Note_on_c, 2, 92, 88
4, 86607, Note_on_c, 2, 92, 0
4, 86663, Note_on_c, 2, 88, 122
4, 86694, Note_on_c, 2, 88, 0
4, 86726, Note_on_c, 2, 88, 108
4, 86763, Note_on_c, 2, 88, 0
4, 86808, Note_on_c, 2, 85, 127
4, 86842, Note_on_c, 2, 85, 0
4, 86861, Note_on_c, 2, 85, 110
4, 86903, Note_on_c, 2, 85, 0
4, 86942, Note_on_c, 2, 85, 89
4, 86976, Note_on_c, 2, 85, 0
4, 87003, Note_on_c, 2, 85, 94
4, 87032, Note_on_c, 2, 85, 0
4, 87085, Note_on_c, 2, 83, 121
4, 87123, Note_on_c, 2, 83, 0
4, 87150, Note_on_c, 2, 83, 92
4, 87191, Note_on_c, 2, 83, 0
4, 87230, Note_on_c, 2, 83, 88
4, 87271, Note_on_c, 2, 83, 0
4, 87296, Note_on_c, 2, 83, 85
4, 87336, Note_on_c, 2, 83, 0
4, 87373, Note_on_c, 2, 80, 125
4, 87407, Note_on_c, 2, 80, 0
4, 87441, Note_on_c, 2, 80, 80
4, 87489, Note_on_c, 2, 80, 0
4, 87517, Note_on_c, 2, 80, 91
4, 87557, Note_on_c, 2, 80, 0
4, 87580, Note_on_c, 2, 80, 101
4, 87626, Note_on_c, 2, 80, 0
4, 87650, Note_on_c, 2, 78, 124
4, 87690, Note_on_c, 2, 78, 0
4, 87715, Note_on_c, 2, 78, 91
4, 87766, Note_on_c, 2, 78, 0
4, 87804, Note_on_c, 2, 78, 89
4, 87842, Note_on_c, 2, 78, 0
4, 87859, Note_on_c, 2, 78, 88
4, 87895, Note_on_c, 2, 78, 0
4, 87958, Note_on_c, 2, 76, 127
4, 87998, Note_on_c, 2, 76, 0
4, 88028, Note_on_c, 2, 76, 99
4, 88070, Note_on_c, 2, 76, 0
4, 88106, Note_on_c, 2, 76, 102
4, 88145, Note_on_c, 2, 76, 0
4, 88162, Note_on_c, 2, 76, 100
4, 88204, Note_on_c, 2, 76, 0
4, 88239, Note_on_c, 2, 76, 118
4, 88280, Note_on_c, 2, 76, 0
4, 88302, Note_on_c, 2, 76, 108
4, 88345, Note_on_c, 2, 76, 0
4, 88379, Note_on_c, 2, 76, 106
4, 88420, Note_on_c, 2, 76, 0
4, 88443, Note_on_c, 2, 76, 101
4, 88477, Note_on_c, 2, 76, 0
4, 88530, Note_on_c, 2, 75, 115
4, 88566, Note_on_c, 2, 75, 0
4, 88587, Note_on_c, 2, 75, 100
4, 88637, Note_on_c, 2, 75, 0
4, 88676, Note_on_c, 2, 73, 115
4, 88716, Note_on_c, 2, 73, 0
4, 88733, Note_on_c, 2, 73, 81
4, 88769, Note_on_c, 2, 73, 0
4, 88827, Note_on_c, 2, 71, 120
4, 88870, Note_on_c, 2, 71, 0
4, 88958, Note_on_c, 2, 78, 93
4, 88997, Note_on_c, 2, 78, 0
4, 89042, Note_on_c, 2, 77, 79
4, 89104, Note_on_c, 2, 77, 0
4, 89111, Note_on_c, 2, 78, 95
4, 89177, Note_on_c, 2, 80, 92
4, 89187, Note_on_c, 2, 78, 0
4, 89230, Note_on_c, 2, 80, 0
4, 89235, Note_on_c, 2, 81, 92
4, 89298, Note_on_c, 2, 81, 0
4, 89307, Note_on_c, 2, 83, 98
4, 89367, Note_on_c, 2, 85, 109
4, 89376, Note_on_c, 2, 83, 0
4, 89438, Note_on_c, 2, 87, 107
4, 89457, Note_on_c, 2, 85, 0
4, 89498, Note_on_c, 2, 87, 0
4, 89517, Note_on_c, 2, 88, 100
4, 89579, Note_on_c, 2, 90, 107
4, 89588, Note_on_c, 2, 88, 0
4, 89639, Note_on_c, 2, 91, 74
4, 89642, Note_on_c, 2, 89, 84
4, 89644, Note_on_c, 2, 90, 0
4, 89659, Note_on_c, 2, 89, 0
4, 89677, Note_on_c, 2, 91, 0
4, 89707, Note_on_c, 2, 92, 127
4, 89740, Note_on_c, 2, 92, 0
4, 89766, Note_on_c, 2, 92, 103
4, 89812, Note_on_c, 2, 92, 0
4, 89834, Note_on_c, 2, 92, 109
4, 89875, Note_on_c, 2, 92, 0
4, 89891, Note_on_c, 2, 92, 113
4, 89929, Note_on_c, 2, 92, 0
4, 89968, Note_on_c, 2, 92, 120
4, 90064, Note_on_c, 2, 92, 0
4, 90124, Note_on_c, 2, 88, 116
4, 90159, Note_on_c, 2, 88, 0
4, 90185, Note_on_c, 2, 88, 94
4, 90225, Note_on_c, 2, 88, 0
4, 90268, Note_on_c, 2, 85, 123
4, 90314, Note_on_c, 2, 85, 0
4, 90328, Note_on_c, 2, 85, 94
4, 90367, Note_on_c, 2, 85, 0
4, 90400, Note_on_c, 2, 85, 93
4, 90449, Note_on_c, 2, 85, 0
4, 90464, Note_on_c, 2, 85, 103
4, 90503, Note_on_c, 2, 85, 0
4, 90543, Note_on_c, 2, 84, 124
4, 90579, Note_on_c, 2, 84, 0
4, 90610, Note_on_c, 2, 84, 102
4, 90649, Note_on_c, 2, 84, 0
4, 90681, Note_on_c, 2, 84, 114
4, 90718, Note_on_c, 2, 84, 0
4, 90735, Note_on_c, 2, 84, 104
4, 90776, Note_on_c, 2, 84, 0
4, 90812, Note_on_c, 2, 83, 121
4, 90849, Note_on_c, 2, 83, 0
4, 90873, Note_on_c, 2, 83, 88
4, 90917, Note_on_c, 2, 83, 0
4, 90957, Note_on_c, 2, 83, 114
4, 90994, Note_on_c, 2, 83, 0
4, 91012, Note_on_c, 2, 83, 109
4, 91054, Note_on_c, 2, 83, 0
4, 91085, Note_on_c, 2, 81, 126
4, 91120, Note_on_c, 2, 81, 0
4, 91148, Note_on_c, 2, 81, 104
4, 91191, Note_on_c, 2, 81, 0
4, 91218, Note_on_c, 2, 81, 112
4, 91255, Note_on_c, 2, 81, 0
4, 91274, Note_on_c, 2, 81, 112
4, 91315, Note_on_c, 2, 81, 0
4, 91347, Note_on_c, 2, 79, 125
4, 91383, Note_on_c, 2, 79, 0
4, 91404, Note_on_c, 2, 79, 106
4, 91446, Note_on_c, 2, 79, 0
4, 91478, Note_on_c, 2, 79, 117
4, 91514, Note_on_c, 2, 79, 0
4, 91528, Note_on_c, 2, 79, 109
4, 91566, Note_on_c, 2, 79, 0
4, 91622, Note_on_c, 2, 76, 125
4, 91626, Note_on_c, 2, 84, 125
4, 91654, Note_on_c, 2, 76, 0
4, 91661, Note_on_c, 2, 84, 0
4, 91683, Note_on_c, 2, 84, 117
4, 91684, Note_on_c, 2, 76, 106
4, 91722, Note_on_c, 2, 84, 0
4, 91725, Note_on_c, 2, 76, 0
4, 91753, Note_on_c, 2, 84, 114
4, 91768, Note_on_c, 2, 76, 113
4, 91791, Note_on_c, 2, 84, 0
4, 91800, Note_on_c, 2, 76, 0
4, 91807, Note_on_c, 2, 84, 122
4, 91823, Note_on_c, 2, 76, 93
4, 91844, Note_on_c, 2, 84, 0
4, 91857, Note_on_c, 2, 76, 0
4, 91889, Note_on_c, 2, 84, 121
4, 91909, Note_on_c, 2, 76, 98
4, 91925, Note_on_c, 2, 84, 0
4, 91936, Note_on_c, 2, 84, 118
4, 91941, Note_on_c, 2, 76, 0
4, 91954, Note_on_c, 2, 76, 73
4, 91974, Note_on_c, 2, 84, 0
4, 91996, Note_on_c, 2, 76, 0
4, 92015, Note_on_c, 2, 84, 112
4, 92043, Note_on_c, 2, 76, 102
4, 92077, Note_on_c, 2, 76, 0
4, 92092, Note_on_c, 2, 84, 0
4, 92095, Note_on_c, 2, 76, 84
4, 92138, Note_on_c, 2, 76, 0
4, 92139, Note_on_c, 2, 84, 120
4, 92170, Note_on_c, 2, 74, 113
4, 92177, Note_on_c, 2, 84, 0
4, 92191, Note_on_c, 2, 84, 122
4, 92201, Note_on_c, 2, 74, 0
4, 92228, Note_on_c, 2, 74, 96
4, 92230, Note_on_c, 2, 84, 0
4, 92264, Note_on_c, 2, 84, 111
4, 92266, Note_on_c, 2, 74, 0
4, 92301, Note_on_c, 2, 84, 0
4, 92304, Note_on_c, 2, 74, 104
4, 92319, Note_on_c, 2, 84, 118
4, 92335, Note_on_c, 2, 74, 0
4, 92357, Note_on_c, 2, 74, 101
4, 92358, Note_on_c, 2, 84, 0
4, 92393, Note_on_c, 2, 84, 112
4, 92398, Note_on_c, 2, 74, 0
4, 92429, Note_on_c, 2, 84, 0
4, 92442, Note_on_c, 2, 84, 116
4, 92449, Note_on_c, 2, 74, 86
4, 92470, Note_on_c, 2, 74, 0
4, 92486, Note_on_c, 2, 84, 0
4, 92487, Note_on_c, 2, 74, 103
4, 92514, Note_on_c, 2, 84, 112
4, 92527, Note_on_c, 2, 74, 0
4, 92556, Note_on_c, 2, 84, 0
4, 92569, Note_on_c, 2, 84, 121
4, 92573, Note_on_c, 2, 74, 107
4, 92611, Note_on_c, 2, 74, 0
4, 92626, Note_on_c, 2, 84, 0
4, 92628, Note_on_c, 2, 74, 98
4, 92670, Note_on_c, 2, 74, 0
4, 92677, Note_on_c, 2, 83, 116
4, 92693, Note_on_c, 2, 74, 109
4, 92717, Note_on_c, 2, 83, 0
4, 92731, Note_on_c, 2, 74, 0
4, 92733, Note_on_c, 2, 83, 113
4, 92744, Note_on_c, 2, 74, 92
4, 92778, Note_on_c, 2, 83, 0
4, 92790, Note_on_c, 2, 74, 0
4, 92802, Note_on_c, 2, 83, 100
4, 92820, Note_on_c, 2, 74, 101
4, 92895, Note_on_c, 2, 83, 0
4, 92910, Note_on_c, 2, 74, 0
4, 92939, Note_on_c, 2, 84, 122
4, 92948, Note_on_c, 2, 76, 112
4, 92977, Note_on_c, 2, 84, 0
4, 92981, Note_on_c, 2, 76, 0
4, 92995, Note_on_c, 2, 84, 116
4, 93003, Note_on_c, 2, 76, 104
4, 93033, Note_on_c, 2, 84, 0
4, 93041, Note_on_c, 2, 76, 0
4, 93073, Note_on_c, 2, 84, 113
4, 93075, Note_on_c, 2, 76, 107
4, 93106, Note_on_c, 2, 84, 0
4, 93108, Note_on_c, 2, 76, 0
4, 93122, Note_on_c, 2, 84, 109
4, 93134, Note_on_c, 2, 76, 102
4, 93159, Note_on_c, 2, 84, 0
4, 93174, Note_on_c, 2, 76, 0
4, 93201, Note_on_c, 2, 84, 109
4, 93214, Note_on_c, 2, 76, 106
4, 93232, Note_on_c, 2, 84, 0
4, 93247, Note_on_c, 2, 76, 0
4, 93253, Note_on_c, 2, 84, 107
4, 93263, Note_on_c, 2, 76, 94
4, 93290, Note_on_c, 2, 84, 0
4, 93302, Note_on_c, 2, 76, 0
4, 93338, Note_on_c, 2, 84, 104
4, 93349, Note_on_c, 2, 76, 107
4, 93365, Note_on_c, 2, 84, 0
4, 93383, Note_on_c, 2, 76, 0
4, 93389, Note_on_c, 2, 84, 107
4, 93400, Note_on_c, 2, 76, 99
4, 93426, Note_on_c, 2, 84, 0
4, 93438, Note_on_c, 2, 76, 0
4, 93471, Note_on_c, 2, 84, 116
4, 93477, Note_on_c, 2, 76, 108
4, 93505, Note_on_c, 2, 84, 0
4, 93509, Note_on_c, 2, 76, 0
4, 93523, Note_on_c, 2, 84, 107
4, 93530, Note_on_c, 2, 76, 104
4, 93557, Note_on_c, 2, 84, 0
4, 93569, Note_on_c, 2, 76, 0
4, 93589, Note_on_c, 2, 84, 113
4, 93609, Note_on_c, 2, 76, 104
4, 93626, Note_on_c, 2, 84, 0
4, 93645, Note_on_c, 2, 84, 116
4, 93646, Note_on_c, 2, 76, 0
4, 93662, Note_on_c, 2, 76, 106
4, 93688, Note_on_c, 2, 84, 0
4, 93706, Note_on_c, 2, 76, 0
4, 93718, Note_on_c, 2, 84, 118
4, 93748, Note_on_c, 2, 74, 112
4, 93756, Note_on_c, 2, 84, 0
4, 93778, Note_on_c, 2, 84, 114
4, 93780, Note_on_c, 2, 74, 0
4, 93804, Note_on_c, 2, 74, 97
4, 93822, Note_on_c, 2, 84, 0
4, 93833, Note_on_c, 2, 74, 0
4, 93855, Note_on_c, 2, 84, 117
4, 93884, Note_on_c, 2, 74, 103
4, 93890, Note_on_c, 2, 84, 0
4, 93908, Note_on_c, 2, 84, 120
4, 93919, Note_on_c, 2, 74, 0
4, 93936, Note_on_c, 2, 74, 89
4, 93950, Note_on_c, 2, 84, 0
4, 93974, Note_on_c, 2, 74, 0
4, 93977, Note_on_c, 2, 84, 117
4, 94005, Note_on_c, 2, 74, 101
4, 94014, Note_on_c, 2, 84, 0
4, 94033, Note_on_c, 2, 84, 118
4, 94042, Note_on_c, 2, 74, 0
4, 94064, Note_on_c, 2, 74, 104
4, 94081, Note_on_c, 2, 84, 0
4, 94103, Note_on_c, 2, 74, 0
4, 94110, Note_on_c, 2, 84, 109
4, 94141, Note_on_c, 2, 74, 101
4, 94151, Note_on_c, 2, 84, 0
4, 94171, Note_on_c, 2, 84, 116
4, 94178, Note_on_c, 2, 74, 0
4, 94198, Note_on_c, 2, 74, 102
4, 94221, Note_on_c, 2, 84, 0
4, 94246, Note_on_c, 2, 74, 0
4, 94257, Note_on_c, 2, 83, 113
4, 94275, Note_on_c, 2, 74, 101
4, 94294, Note_on_c, 2, 83, 0
4, 94311, Note_on_c, 2, 83, 112
4, 94317, Note_on_c, 2, 74, 0
4, 94333, Note_on_c, 2, 74, 97
4, 94358, Note_on_c, 2, 83, 0
4, 94382, Note_on_c, 2, 74, 0
4, 94388, Note_on_c, 2, 83, 107
4, 94403, Note_on_c, 2, 74, 107
4, 94427, Note_on_c, 2, 83, 0
4, 94445, Note_on_c, 2, 83, 113
4, 94491, Note_on_c, 2, 83, 0
4, 94502, Note_on_c, 2, 74, 0
4, 94551, Note_on_c, 2, 84, 124
4, 94569, Note_on_c, 2, 76, 121
4, 94595, Note_on_c, 2, 84, 0
4, 94676, Note_on_c, 2, 76, 0
4, 101999, Note_on_c, 2, 84, 127
4, 102016, Note_on_c, 2, 76, 127
4, 102054, Note_on_c, 2, 76, 0
4, 102060, Note_on_c, 2, 84, 0
4, 102071, Note_on_c, 2, 84, 89
4, 102080, Note_on_c, 2, 76, 94
4, 102113, Note_on_c, 2, 84, 0
4, 102125, Note_on_c, 2, 76, 0
4, 102148, Note_on_c, 2, 84, 114
4, 102159, Note_on_c, 2, 76, 111
4, 102186, Note_on_c, 2, 84, 0
4, 102198, Note_on_c, 2, 84, 96
4, 102199, Note_on_c, 2, 76, 0
4, 102215, Note_on_c, 2, 76, 90
4, 102240, Note_on_c, 2, 84, 0
4, 102254, Note_on_c, 2, 76, 0
4, 102277, Note_on_c, 2, 84, 113
4, 102294, Note_on_c, 2, 76, 107
4, 102313, Note_on_c, 2, 84, 0
4, 102325, Note_on_c, 2, 84, 100
4, 102330, Note_on_c, 2, 76, 0
4, 102350, Note_on_c, 2, 76, 97
4, 102363, Note_on_c, 2, 84, 0
4, 102388, Note_on_c, 2, 76, 0
4, 102410, Note_on_c, 2, 84, 113
4, 102422, Note_on_c, 2, 76, 104
4, 102446, Note_on_c, 2, 84, 0
4, 102457, Note_on_c, 2, 76, 0
4, 102459, Note_on_c, 2, 84, 106
4, 102477, Note_on_c, 2, 76, 98
4, 102496, Note_on_c, 2, 84, 0
4, 102514, Note_on_c, 2, 76, 0
4, 102541, Note_on_c, 2, 84, 116
4, 102563, Note_on_c, 2, 76, 111
4, 102579, Note_on_c, 2, 84, 0
4, 102592, Note_on_c, 2, 84, 107
4, 102603, Note_on_c, 2, 76, 0
4, 102613, Note_on_c, 2, 76, 65
4, 102634, Note_on_c, 2, 84, 0
4, 102657, Note_on_c, 2, 76, 0
4, 102677, Note_on_c, 2, 84, 109
4, 102693, Note_on_c, 2, 76, 106
4, 102734, Note_on_c, 2, 76, 0
4, 102748, Note_on_c, 2, 76, 88
4, 102764, Note_on_c, 2, 84, 0
4, 102796, Note_on_c, 2, 76, 0
4, 102809, Note_on_c, 2, 84, 118
4, 102836, Note_on_c, 2, 74, 113
4, 102849, Note_on_c, 2, 84, 0
4, 102860, Note_on_c, 2, 84, 108
4, 102874, Note_on_c, 2, 74, 0
4, 102898, Note_on_c, 2, 74, 91
4, 102900, Note_on_c, 2, 84, 0
4, 102942, Note_on_c, 2, 74, 0
4, 102945, Note_on_c, 2, 84, 111
4, 102968, Note_on_c, 2, 74, 103
4, 102982, Note_on_c, 2, 84, 0
4, 102999, Note_on_c, 2, 84, 117
4, 103007, Note_on_c, 2, 74, 0
4, 103023, Note_on_c, 2, 74, 91
4, 103041, Note_on_c, 2, 84, 0
4, 103067, Note_on_c, 2, 74, 0
4, 103086, Note_on_c, 2, 84, 113
4, 103109, Note_on_c, 2, 74, 111
4, 103125, Note_on_c, 2, 84, 0
4, 103135, Note_on_c, 2, 84, 107
4, 103147, Note_on_c, 2, 74, 0
4, 103165, Note_on_c, 2, 74, 98
4, 103178, Note_on_c, 2, 84, 0
4, 103209, Note_on_c, 2, 74, 0
4, 103231, Note_on_c, 2, 84, 112
4, 103252, Note_on_c, 2, 74, 109
4, 103272, Note_on_c, 2, 84, 0
4, 103291, Note_on_c, 2, 74, 0
4, 103291, Note_on_c, 2, 84, 117
4, 103311, Note_on_c, 2, 74, 94
4, 103334, Note_on_c, 2, 84, 0
4, 103349, Note_on_c, 2, 74, 0
4, 103380, Note_on_c, 2, 83, 122
4, 103392, Note_on_c, 2, 74, 108
4, 103417, Note_on_c, 2, 83, 0
4, 103434, Note_on_c, 2, 83, 108
4, 103479, Note_on_c, 2, 83, 0
4, 103487, Note_on_c, 2, 74, 0
4, 103524, Note_on_c, 2, 83, 100
4, 103525, Note_on_c, 2, 74, 102
4, 103564, Note_on_c, 2, 74, 0
4, 103580, Note_on_c, 2, 74, 89
4, 103616, Note_on_c, 2, 83, 0
4, 103622, Note_on_c, 2, 74, 0
4, 103668, Note_on_c, 2, 84, 126
4, 103670, Note_on_c, 2, 76, 121
4, 103708, Note_on_c, 2, 84, 0
4, 103713, Note_on_c, 2, 76, 0
4, 103735, Note_on_c, 2, 84, 99
4, 103737, Note_on_c, 2, 76, 87
4, 103760, Note_on_c, 2, 76, 0
4, 103779, Note_on_c, 2, 84, 0
4, 103813, Note_on_c, 2, 84, 101
4, 103814, Note_on_c, 2, 76, 103
4, 103850, Note_on_c, 2, 76, 0
4, 103867, Note_on_c, 2, 76, 70
4, 103902, Note_on_c, 2, 76, 0
4, 103903, Note_on_c, 2, 84, 0
4, 103943, Note_on_c, 2, 84, 99
4, 103943, Note_on_c, 2, 76, 102
4, 103979, Note_on_c, 2, 76, 0
4, 104002, Note_on_c, 2, 76, 100
4, 104030, Note_on_c, 2, 84, 0
4, 104048, Note_on_c, 2, 76, 0
4, 104072, Note_on_c, 2, 84, 111
4, 104089, Note_on_c, 2, 76, 106
4, 104110, Note_on_c, 2, 84, 0
4, 104118, Note_on_c, 2, 84, 90
4, 104128, Note_on_c, 2, 76, 0
4, 104152, Note_on_c, 2, 76, 99
4, 104157, Note_on_c, 2, 84, 0
4, 104199, Note_on_c, 2, 76, 0
4, 104206, Note_on_c, 2, 84, 118
4, 104231, Note_on_c, 2, 76, 100
4, 104273, Note_on_c, 2, 76, 0
4, 104287, Note_on_c, 2, 84, 0
4, 104297, Note_on_c, 2, 76, 98
4, 104336, Note_on_c, 2, 84, 118
4, 104346, Note_on_c, 2, 76, 0
4, 104370, Note_on_c, 2, 76, 101
4, 104375, Note_on_c, 2, 84, 0
4, 104395, Note_on_c, 2, 84, 118
4, 104413, Note_on_c, 2, 76, 0
4, 104430, Note_on_c, 2, 74, 94
4, 104436, Note_on_c, 2, 84, 0
4, 104474, Note_on_c, 2, 74, 0
4, 104475, Note_on_c, 2, 84, 118
4, 104517, Note_on_c, 2, 74, 117
4, 104519, Note_on_c, 2, 84, 0
4, 104532, Note_on_c, 2, 84, 109
4, 104558, Note_on_c, 2, 74, 0
4, 104571, Note_on_c, 2, 84, 0
4, 104580, Note_on_c, 2, 74, 99
4, 104614, Note_on_c, 2, 84, 112
4, 104619, Note_on_c, 2, 74, 0
4, 104654, Note_on_c, 2, 84, 0
4, 104654, Note_on_c, 2, 74, 101
4, 104666, Note_on_c, 2, 84, 104
4, 104710, Note_on_c, 2, 84, 0
4, 104754, Note_on_c, 2, 84, 120
4, 104756, Note_on_c, 2, 74, 0
4, 104796, Note_on_c, 2, 84, 0
4, 104796, Note_on_c, 2, 74, 113
4, 104807, Note_on_c, 2, 84, 109
4, 104842, Note_on_c, 2, 74, 0
4, 104855, Note_on_c, 2, 84, 0
4, 104858, Note_on_c, 2, 74, 93
4, 104893, Note_on_c, 2, 84, 117
4, 104905, Note_on_c, 2, 74, 0
4, 104945, Note_on_c, 2, 84, 0
4, 104946, Note_on_c, 2, 74, 111
4, 104953, Note_on_c, 2, 84, 98
4, 104986, Note_on_c, 2, 74, 0
4, 105001, Note_on_c, 2, 84, 0
4, 105001, Note_on_c, 2, 74, 82
4, 105045, Note_on_c, 2, 74, 0
4, 105045, Note_on_c, 2, 83, 121
4, 105082, Note_on_c, 2, 74, 120
4, 105084, Note_on_c, 2, 83, 0
4, 105099, Note_on_c, 2, 83, 107
4, 105110, Note_on_c, 2, 84, 76
4, 105118, Note_on_c, 2, 74, 0
4, 105132, Note_on_c, 2, 84, 0
4, 105141, Note_on_c, 2, 74, 99
4, 105147, Note_on_c, 2, 83, 0
4, 105182, Note_on_c, 2, 74, 0
4, 105184, Note_on_c, 2, 83, 117
4, 105211, Note_on_c, 2, 74, 113
4, 105222, Note_on_c, 2, 83, 0
4, 105237, Note_on_c, 2, 83, 106
4, 105249, Note_on_c, 2, 74, 0
4, 105267, Note_on_c, 2, 74, 97
4, 105279, Note_on_c, 2, 83, 0
4, 105303, Note_on_c, 2, 74, 0
4, 105360, Note_on_c, 2, 76, 126
4, 105382, Note_on_c, 2, 84, 124
4, 105541, Note_on_c, 2, 84, 0
4, 105600, Note_on_c, 2, 76, 0
4, 108720, Control_c, 2, 11, 80
4, 108872, Note_on_c, 2, 72, 42
4, 109136, Note_on_c, 2, 71, 45
4, 109193, Note_on_c, 2, 72, 0
4, 109425, Note_on_c, 2, 70, 48
4, 109465, Note_on_c, 2, 71, 0
4, 109944, Note_on_c, 2, 71, 43
4, 109994, Note_on_c, 2, 70, 0
4, 110532, Note_on_c, 2, 72, 51
4, 110568, Note_on_c, 2, 71, 0
4, 110834, Note_on_c, 2, 76, 46
4, 110866, Note_on_c, 2, 72, 0
4, 111253, Note_on_c, 2, 64, 38
4, 111319, Note_on_c, 2, 76, 0
4, 112165, Note_on_c, 2, 63, 29
4, 112230, Note_on_c, 2, 64, 0
4, 113330, Note_on_c, 2, 64, 36
4, 113422, Note_on_c, 2, 63, 0
4, 113808, Note_on_c, 2, 63, 39
4, 113896, Note_on_c, 2, 64, 0
4, 114006, Note_on_c, 2, 64, 40
4, 114018, Note_on_c, 2, 63, 0
4, 114150, Note_on_c, 2, 67, 48
4, 114203, Note_on_c, 2, 64, 0
4, 114331, Note_on_c, 2, 67, 0
4, 114331, Note_on_c, 2, 71, 44
4, 114782, Note_on_c, 2, 70, 53
4, 114831, Note_on_c, 2, 71, 0
4, 114939, Note_on_c, 2, 71, 54
4, 114951, Note_on_c, 2, 70, 0
4, 115074, Note_on_c, 2, 77, 45
4, 115122, Note_on_c, 2, 71, 0
4, 115241, Note_on_c, 2, 76, 52
4, 115264, Note_on_c, 2, 77, 0
4, 115741, Note_on_c, 2, 75, 58
4, 115769, Note_on_c, 2, 76, 0
4, 115898, Note_on_c, 2, 76, 63
4, 115913, Note_on_c, 2, 75, 0
4, 116059, Note_on_c, 2, 81, 47
4, 116079, Note_on_c, 2, 76, 0
4, 116215, Note_on_c, 2, 81, 0
4, 116232, Note_on_c, 2, 75, 33
4, 116412, Note_on_c, 2, 75, 0
4, 116568, Note_on_c, 2, 75, 37
4, 116764, Note_on_c, 2, 75, 0
4, 116903, Note_on_c, 2, 75, 49
4, 117100, Note_on_c, 2, 75, 0
4, 117249, Note_on_c, 2, 76, 60
4, 117409, Note_on_c, 2, 78, 71
4, 117439, Note_on_c, 2, 76, 0
4, 117570, Note_on_c, 2, 78, 0
4, 117572, Note_on_c, 2, 79, 53
4, 117847, Note_on_c, 2, 79, 0
4, 117917, Note_on_c, 2, 71, 66
4, 118411, Note_on_c, 2, 72, 57
4, 118412, Note_on_c, 2, 71, 0
4, 118584, Note_on_c, 2, 74, 55
4, 118592, Note_on_c, 2, 72, 0
4, 118926, Note_on_c, 2, 77, 57
4, 118947, Note_on_c, 2, 74, 0
4, 119274, Note_on_c, 2, 76, 60
4, 119290, Note_on_c, 2, 77, 0
4, 119649, Note_on_c, 2, 74, 58
4, 119653, Note_on_c, 2, 76, 0
4, 119807, Note_on_c, 2, 72, 51
4, 119846, Note_on_c, 2, 74, 0
4, 119972, Note_on_c, 2, 71, 50
4, 120011, Note_on_c, 2, 72, 0
4, 120148, Note_on_c, 2, 69, 47
4, 120154, Note_on_c, 2, 71, 0
4, 120333, Note_on_c, 2, 71, 43
4, 120350, Note_on_c, 2, 69, 0
4, 120894, Note_on_c, 2, 69, 42
4, 120931, Note_on_c, 2, 71, 0
4, 121069, Note_on_c, 2, 69, 0
4, 121075, Note_on_c, 2, 67, 39
4, 121261, Note_on_c, 2, 66, 36
4, 121306, Note_on_c, 2, 67, 0
4, 121475, Control_c, 2, 11, 80
4, 121475, Note_on_c, 2, 64, 33
4, 121514, Note_on_c, 2, 66, 0
4, 121550, Control_c, 2, 11, 81
4, 121625, Control_c, 2, 11, 82
4, 121700, Control_c, 2, 11, 83
4, 121770, Control_c, 2, 11, 84
4, 121845, Control_c, 2, 11, 85
4, 121920, Control_c, 2, 11, 86
4, 121990, Control_c, 2, 11, 87
4, 122065, Control_c, 2, 11, 88
4, 122140, Control_c, 2, 11, 89
4, 122210, Control_c, 2, 11, 90
4, 122285, Control_c, 2, 11, 91
4, 122360, Control_c, 2, 11, 92
4, 122430, Control_c, 2, 11, 93
4, 122505, Control_c, 2, 11, 94
4, 122580, Control_c, 2, 11, 95
4, 122650, Control_c, 2, 11, 96
4, 122680, Note_on_c, 2, 64, 0
4, 122725, Control_c, 2, 11, 97
4, 122800, Control_c, 2, 11, 98
4, 122870, Control_c, 2, 11, 99
4, 122944, Control_c, 2, 11, 80
4, 122944, Note_on_c, 2, 69, 31
4, 123340, Note_on_c, 2, 66, 38
4, 123445, Note_on_c, 2, 69, 0
4, 123791, Control_c, 2, 11, 80
4, 123791, Note_on_c, 2, 64, 37
4, 123844, Note_on_c, 2, 66, 0
4, 123866, Control_c, 2, 11, 81
4, 123941, Control_c, 2, 11, 82
4, 124011, Control_c, 2, 11, 83
4, 124086, Control_c, 2, 11, 84
4, 124156, Control_c, 2, 11, 85
4, 124231, Control_c, 2, 11, 86
4, 124306, Control_c, 2, 11, 87
4, 124376, Control_c, 2, 11, 88
4, 124451, Control_c, 2, 11, 89
4, 124521, Control_c, 2, 11, 90
4, 124596, Control_c, 2, 11, 91
4, 124666, Control_c, 2, 11, 92
4, 124741, Control_c, 2, 11, 93
4, 124816, Control_c, 2, 11, 94
4, 124886, Control_c, 2, 11, 95
4, 124961, Control_c, 2, 11, 96
4, 125031, Control_c, 2, 11, 97
4, 125106, Control_c, 2, 11, 98
4, 125181, Control_c, 2, 11, 99
4, 125250, Control_c, 2, 11, 100
4, 125250, Note_on_c, 2, 69, 31
4, 125295, Control_c, 2, 11, 99
4, 125340, Control_c, 2, 11, 98
4, 125363, Note_on_c, 2, 64, 0
4, 125385, Control_c, 2, 11, 97
4, 125430, Control_c, 2, 11, 96
4, 125475, Control_c, 2, 11, 95
4, 125520, Control_c, 2, 11, 94
4, 125565, Control_c, 2, 11, 93
4, 125610, Control_c, 2, 11, 92
4, 125655, Control_c, 2, 11, 91
4, 125657, Note_on_c, 2, 66, 38
4, 125700, Control_c, 2, 11, 90
4, 125707, Note_on_c, 2, 69, 0
4, 125745, Control_c, 2, 11, 89
4, 125790, Control_c, 2, 11, 88
4, 125830, Control_c, 2, 11, 87
4, 125875, Control_c, 2, 11, 86
4, 125920, Control_c, 2, 11, 85
4, 125965, Control_c, 2, 11, 84
4, 126010, Control_c, 2, 11, 83
4, 126055, Control_c, 2, 11, 82
4, 126100, Control_c, 2, 11, 81
4, 126143, Control_c, 2, 11, 80
4, 126143, Note_on_c, 2, 64, 34
4, 126185, Note_on_c, 2, 66, 0
4, 127230, Note_on_c, 2, 64, 0
4, 127248, Control_c, 2, 11, 50
4, 127248, Note_on_c, 2, 69, 44
4, 127283, Control_c, 2, 11, 51
4, 127313, Control_c, 2, 11, 52
4, 127343, Control_c, 2, 11, 53
4, 127373, Control_c, 2, 11, 54
4, 127403, Control_c, 2, 11, 55
4, 127433, Control_c, 2, 11, 56
4, 127463, Control_c, 2, 11, 57
4, 127493, Control_c, 2, 11, 58
4, 127523, Control_c, 2, 11, 59
4, 127553, Control_c, 2, 11, 60
4, 127583, Control_c, 2, 11, 61
4, 127613, Control_c, 2, 11, 62
4, 127643, Control_c, 2, 11, 63
4, 127678, Control_c, 2, 11, 64
4, 127708, Control_c, 2, 11, 65
4, 127738, Control_c, 2, 11, 66
4, 127768, Control_c, 2, 11, 67
4, 127798, Control_c, 2, 11, 68
4, 127828, Control_c, 2, 11, 69
4, 127858, Control_c, 2, 11, 70
4, 127888, Control_c, 2, 11, 71
4, 127918, Control_c, 2, 11, 72
4, 127948, Control_c, 2, 11, 73
4, 127978, Control_c, 2, 11, 74
4, 128008, Control_c, 2, 11, 75
4, 128038, Control_c, 2, 11, 76
4, 128068, Control_c, 2, 11, 77
4, 128103, Control_c, 2, 11, 78
4, 128133, Control_c, 2, 11, 79
4, 128160, Control_c, 2, 11, 80
4, 128533, Control_c, 2, 11, 80
4, 128533, Note_on_c, 2, 66, 43
4, 128604, Note_on_c, 2, 69, 0
4, 128673, Control_c, 2, 11, 79
4, 128808, Control_c, 2, 11, 78
4, 128943, Control_c, 2, 11, 77
4, 129078, Control_c, 2, 11, 76
4, 129218, Control_c, 2, 11, 75
4, 129353, Control_c, 2, 11, 74
4, 129488, Control_c, 2, 11, 73
4, 129623, Control_c, 2, 11, 72
4, 129763, Control_c, 2, 11, 71
4, 129830, Note_on_c, 2, 67, 37
4, 129889, Note_on_c, 2, 66, 0
4, 129898, Control_c, 2, 11, 70
4, 130033, Control_c, 2, 11, 69
4, 130168, Control_c, 2, 11, 68
4, 130308, Control_c, 2, 11, 67
4, 130443, Control_c, 2, 11, 66
4, 130578, Control_c, 2, 11, 65
4, 130713, Control_c, 2, 11, 64
4, 130853, Control_c, 2, 11, 63
4, 130988, Control_c, 2, 11, 62
4, 131123, Control_c, 2, 11, 61
4, 131258, Control_c, 2, 11, 60
4, 131259, Note_on_c, 2, 64, 30
4, 131297, Note_on_c, 2, 67, 0
4, 131624, Note_on_c, 2, 64, 0
4, 131760, Program_c, 2, 45
4, 131760, Control_c, 2, 91, 120
4, 131760, Control_c, 2, 11, 80
4, 132502, Note_on_c, 2, 71, 88
4, 132538, Note_on_c, 2, 71, 0
4, 132845, Note_on_c, 2, 71, 90
4, 132886, Note_on_c, 2, 71, 0
4, 133227, Note_on_c, 2, 76, 86
4, 133301, Note_on_c, 2, 76, 0
4, 140794, Note_on_c, 2, 78, 103
4, 140824, Note_on_c, 2, 78, 0
4, 141126, Note_on_c, 2, 76, 98
4, 141160, Note_on_c, 2, 76, 0
4, 141430, Note_on_c, 2, 75, 109
4, 141459, Note_on_c, 2, 75, 0
4, 141840, Program_c, 2, 49
4, 141840, Control_c, 2, 91, 60
4, 144925, Control_c, 2, 11, 60
4, 144925, Note_on_c, 2, 69, 55
4, 144930, Control_c, 2, 11, 62
4, 144935, Control_c, 2, 11, 63
4, 144940, Control_c, 2, 11, 64
4, 144945, Control_c, 2, 11, 66
4, 144950, Control_c, 2, 11, 67
4, 144955, Control_c, 2, 11, 68
4, 144960, Control_c, 2, 11, 69
4, 144970, Control_c, 2, 11, 70
4, 144975, Control_c, 2, 11, 71
4, 144980, Control_c, 2, 11, 72
4, 144990, Control_c, 2, 11, 73
4, 145000, Control_c, 2, 11, 74
4, 145010, Control_c, 2, 11, 75
4, 145025, Control_c, 2, 11, 76
4, 145040, Control_c, 2, 11, 77
4, 145060, Control_c, 2, 11, 78
4, 145085, Control_c, 2, 11, 79
4, 145135, Control_c, 2, 11, 80
4, 145315, Note_on_c, 2, 67, 44
4, 145331, Note_on_c, 2, 69, 0
4, 145738, Note_on_c, 2, 72, 56
4, 145862, Note_on_c, 2, 67, 0
4, 146132, Note_on_c, 2, 71, 47
4, 146168, Note_on_c, 2, 72, 0
4, 146683, Note_on_c, 2, 67, 30
4, 146746, Note_on_c, 2, 71, 0
4, 147308, Note_on_c, 2, 67, 0
4, 147600, Control_c, 2, 11, 80
4, 150817, Control_c, 2, 11, 60
4, 150817, Note_on_c, 2, 64, 41
4, 150822, Control_c, 2, 11, 62
4, 150827, Control_c, 2, 11, 63
4, 150832, Control_c, 2, 11, 65
4, 150837, Control_c, 2, 11, 66
4, 150842, Control_c, 2, 11, 67
4, 150847, Control_c, 2, 11, 68
4, 150852, Control_c, 2, 11, 69
4, 150862, Control_c, 2, 11, 70
4, 150867, Control_c, 2, 11, 71
4, 150872, Control_c, 2, 11, 72
4, 150882, Control_c, 2, 11, 73
4, 150892, Control_c, 2, 11, 74
4, 150902, Control_c, 2, 11, 75
4, 150917, Control_c, 2, 11, 76
4, 150927, Control_c, 2, 11, 77
4, 150947, Control_c, 2, 11, 78
4, 150977, Control_c, 2, 11, 79
4, 151022, Control_c, 2, 11, 80
4, 151920, Control_c, 2, 11, 80
4, 151960, Control_c, 2, 11, 79
4, 151995, Control_c, 2, 11, 78
4, 152030, Control_c, 2, 11, 77
4, 152065, Control_c, 2, 11, 76
4, 152100, Control_c, 2, 11, 75
4, 152140, Control_c, 2, 11, 74
4, 152175, Control_c, 2, 11, 73
4, 152210, Control_c, 2, 11, 72
4, 152245, Control_c, 2, 11, 71
4, 152280, Control_c, 2, 11, 70
4, 152320, Control_c, 2, 11, 69
4, 152355, Control_c, 2, 11, 68
4, 152390, Control_c, 2, 11, 67
4, 152425, Control_c, 2, 11, 66
4, 152460, Control_c, 2, 11, 65
4, 152500, Control_c, 2, 11, 64
4, 152535, Control_c, 2, 11, 63
4, 152570, Control_c, 2, 11, 62
4, 152605, Control_c, 2, 11, 61
4, 152640, Control_c, 2, 11, 60
4, 154560, Control_c, 2, 11, 60
4, 154595, Control_c, 2, 11, 61
4, 154625, Control_c, 2, 11, 62
4, 154660, Control_c, 2, 11, 63
4, 154690, Control_c, 2, 11, 64
4, 154720, Control_c, 2, 11, 65
4, 154755, Control_c, 2, 11, 66
4, 154785, Control_c, 2, 11, 67
4, 154820, Control_c, 2, 11, 68
4, 154850, Control_c, 2, 11, 69
4, 154880, Control_c, 2, 11, 70
4, 154915, Control_c, 2, 11, 71
4, 154945, Control_c, 2, 11, 72
4, 154980, Control_c, 2, 11, 73
4, 155010, Control_c, 2, 11, 74
4, 155040, Control_c, 2, 11, 75
4, 155075, Control_c, 2, 11, 76
4, 155105, Control_c, 2, 11, 77
4, 155140, Control_c, 2, 11, 78
4, 155170, Control_c, 2, 11, 79
4, 155200, Control_c, 2, 11, 80
4, 155235, Control_c, 2, 11, 81
4, 155265, Control_c, 2, 11, 82
4, 155300, Control_c, 2, 11, 83
4, 155330, Control_c, 2, 11, 84
4, 155360, Control_c, 2, 11, 85
4, 155395, Control_c, 2, 11, 86
4, 155412, Control_c, 2, 11, 86
4, 155412, Note_on_c, 2, 63, 55
4, 155447, Control_c, 2, 11, 85
4, 155477, Control_c, 2, 11, 84
4, 155479, Note_on_c, 2, 64, 0
4, 155512, Control_c, 2, 11, 83
4, 155542, Control_c, 2, 11, 82
4, 155572, Control_c, 2, 11, 81
4, 155607, Control_c, 2, 11, 80
4, 155637, Control_c, 2, 11, 79
4, 155667, Control_c, 2, 11, 78
4, 155702, Control_c, 2, 11, 77
4, 155732, Control_c, 2, 11, 76
4, 155762, Control_c, 2, 11, 75
4, 155797, Control_c, 2, 11, 74
4, 155827, Control_c, 2, 11, 73
4, 155862, Control_c, 2, 11, 72
4, 155892, Control_c, 2, 11, 71
4, 155922, Control_c, 2, 11, 70
4, 155957, Control_c, 2, 11, 69
4, 155987, Control_c, 2, 11, 68
4, 156017, Control_c, 2, 11, 67
4, 156052, Control_c, 2, 11, 66
4, 156082, Control_c, 2, 11, 65
4, 156112, Control_c, 2, 11, 64
4, 156147, Control_c, 2, 11, 63
4, 156177, Control_c, 2, 11, 62
4, 156212, Control_c, 2, 11, 61
4, 156240, Control_c, 2, 11, 60
4, 156581, Note_on_c, 2, 64, 66
4, 156629, Note_on_c, 2, 63, 0
4, 157064, Note_on_c, 2, 64, 0
4, 160800, Control_c, 2, 11, 80
4, 160862, Note_on_c, 2, 71, 39
4, 162744, Note_on_c, 2, 70, 45
4, 162819, Note_on_c, 2, 71, 0
4, 163465, Note_on_c, 2, 71, 36
4, 163515, Note_on_c, 2, 70, 0
4, 163666, Note_on_c, 2, 71, 0
4, 163915, Note_on_c, 2, 68, 58
4, 164831, Note_on_c, 2, 69, 52
4, 164893, Note_on_c, 2, 68, 0
4, 165313, Note_on_c, 2, 64, 48
4, 165336, Note_on_c, 2, 69, 0
4, 166416, Note_on_c, 2, 63, 42
4, 166572, Note_on_c, 2, 64, 0
4, 166886, Note_on_c, 2, 63, 0
4, 167653, Note_on_c, 2, 64, 22
4, 172446, Note_on_c, 2, 64, 0
4, 172503, Note_on_c, 2, 66, 77
4, 173244, Note_on_c, 2, 67, 71
4, 173284, Note_on_c, 2, 66, 0
4, 173635, Note_on_c, 2, 71, 72
4, 173748, Note_on_c, 2, 67, 0
4, 174258, Note_on_c, 2, 64, 76
4, 174277, Note_on_c, 2, 71, 0
4, 174700, Note_on_c, 2, 64, 0
4, 174707, Note_on_c, 2, 65, 71
4, 174720, Control_c, 2, 11, 80
4, 174760, Control_c, 2, 11, 79
4, 174795, Control_c, 2, 11, 78
4, 174830, Control_c, 2, 11, 77
4, 174865, Control_c, 2, 11, 76
4, 174900, Control_c, 2, 11, 75
4, 174940, Control_c, 2, 11, 74
4, 174975, Control_c, 2, 11, 73
4, 175010, Control_c, 2, 11, 72
4, 175045, Control_c, 2, 11, 71
4, 175080, Control_c, 2, 11, 70
4, 175120, Control_c, 2, 11, 69
4, 175155, Control_c, 2, 11, 68
4, 175190, Control_c, 2, 11, 67
4, 175225, Control_c, 2, 11, 66
4, 175260, Control_c, 2, 11, 65
4, 175300, Control_c, 2, 11, 64
4, 175335, Control_c, 2, 11, 63
4, 175370, Control_c, 2, 11, 62
4, 175405, Control_c, 2, 11, 61
4, 175440, Control_c, 2, 11, 60
4, 175489, Note_on_c, 2, 69, 71
4, 175532, Note_on_c, 2, 65, 0
4, 175835, Note_on_c, 2, 64, 50
4, 175869, Note_on_c, 2, 69, 0
4, 176240, Note_on_c, 2, 64, 0
4, 176674, Note_on_c, 2, 63, 65
4, 177590, Note_on_c, 2, 64, 42
4, 177637, Note_on_c, 2, 63, 0
4, 177832, Note_on_c, 2, 64, 0
4, 178051, Note_on_c, 2, 71, 63
4, 178388, Note_on_c, 2, 72, 67
4, 178419, Note_on_c, 2, 71, 0
4, 178540, Note_on_c, 2, 72, 0
4, 178908, Note_on_c, 2, 71, 81
4, 179164, Note_on_c, 2, 72, 63
4, 179206, Note_on_c, 2, 71, 0
4, 179296, Note_on_c, 2, 72, 0
4, 179600, Note_on_c, 2, 71, 81
4, 179979, Note_on_c, 2, 69, 60
4, 180035, Note_on_c, 2, 71, 0
4, 180198, Note_on_c, 2, 67, 77
4, 180238, Note_on_c, 2, 69, 0
4, 180432, Note_on_c, 2, 64, 76
4, 180462, Note_on_c, 2, 67, 0
4, 180681, Note_on_c, 2, 66, 70
4, 180682, Note_on_c, 2, 64, 0
4, 180900, Note_on_c, 2, 66, 0
4, 180908, Note_on_c, 2, 67, 41
4, 181124, Note_on_c, 2, 67, 0
4, 181274, Note_on_c, 2, 71, 80
4, 181528, Note_on_c, 2, 72, 73
4, 181547, Note_on_c, 2, 71, 0
4, 181659, Note_on_c, 2, 72, 0
4, 181982, Note_on_c, 2, 71, 77
4, 182209, Note_on_c, 2, 72, 69
4, 182258, Note_on_c, 2, 71, 0
4, 182430, Note_on_c, 2, 71, 66
4, 182481, Note_on_c, 2, 72, 0
4, 182725, Note_on_c, 2, 71, 0
4, 183052, Note_on_c, 2, 62, 78
4, 183580, Note_on_c, 2, 59, 79
4, 183615, Note_on_c, 2, 62, 0
4, 183820, Note_on_c, 2, 61, 80
4, 183844, Note_on_c, 2, 59, 0
4, 184169, Note_on_c, 2, 61, 0
4, 184193, Note_on_c, 2, 62, 45
4, 184419, Note_on_c, 2, 62, 0
4, 184590, Note_on_c, 2, 66, 92
4, 184847, Note_on_c, 2, 67, 72
4, 184868, Note_on_c, 2, 66, 0
4, 184982, Note_on_c, 2, 67, 0
4, 185354, Note_on_c, 2, 66, 91
4, 185593, Note_on_c, 2, 67, 76
4, 185617, Note_on_c, 2, 66, 0
4, 185797, Note_on_c, 2, 67, 0
4, 185834, Note_on_c, 2, 66, 68
4, 186015, Note_on_c, 2, 66, 0
4, 186078, Note_on_c, 2, 74, 89
4, 186475, Note_on_c, 2, 73, 84
4, 186518, Note_on_c, 2, 74, 0
4, 186716, Note_on_c, 2, 71, 76
4, 186787, Note_on_c, 2, 73, 0
4, 186963, Note_on_c, 2, 68, 88
4, 187017, Note_on_c, 2, 71, 0
4, 187239, Note_on_c, 2, 70, 76
4, 187243, Note_on_c, 2, 68, 0
4, 187477, Note_on_c, 2, 71, 60
4, 187501, Note_on_c, 2, 70, 0
4, 187693, Note_on_c, 2, 71, 0
4, 187782, Note_on_c, 2, 66, 80
4, 188039, Note_on_c, 2, 67, 59
4, 188044, Note_on_c, 2, 66, 0
4, 188181, Note_on_c, 2, 67, 0
4, 188504, Note_on_c, 2, 66, 96
4, 188742, Note_on_c, 2, 67, 90
4, 188760, Note_on_c, 2, 66, 0
4, 189054, Note_on_c, 2, 67, 0
4, 189058, Note_on_c, 2, 69, 84
4, 190888, Note_on_c, 2, 67, 67
4, 190929, Note_on_c, 2, 69, 0
4, 191050, Note_on_c, 2, 67, 0
4, 191318, Note_on_c, 2, 67, 64
4, 192086, Note_on_c, 2, 71, 80
4, 192117, Note_on_c, 2, 67, 0
4, 192282, Note_on_c, 2, 71, 0
4, 192317, Note_on_c, 2, 71, 70
4, 192549, Note_on_c, 2, 71, 0
4, 192556, Note_on_c, 2, 70, 72
4, 192710, Note_on_c, 2, 70, 0
4, 194078, Note_on_c, 2, 70, 83
4, 194344, Note_on_c, 2, 69, 75
4, 194391, Note_on_c, 2, 70, 0
4, 194514, Note_on_c, 2, 69, 0
4, 194781, Note_on_c, 2, 72, 97
4, 195532, Note_on_c, 2, 76, 89
4, 195544, Note_on_c, 2, 72, 0
4, 195716, Note_on_c, 2, 76, 0
4, 195765, Note_on_c, 2, 76, 100
4, 195997, Note_on_c, 2, 75, 76
4, 196023, Note_on_c, 2, 76, 0
4, 196160, Note_on_c, 2, 75, 0
4, 197040, Control_c, 2, 11, 80
4, 197454, Note_on_c, 2, 75, 120
4, 197707, Note_on_c, 2, 75, 0
4, 197731, Note_on_c, 2, 76, 113
4, 197817, Note_on_c, 2, 76, 0
4, 198065, Note_on_c, 2, 60, 127
4, 198721, Note_on_c, 2, 60, 0
4, 198996, Note_on_c, 2, 76, 120
4, 199163, Note_on_c, 2, 76, 0
4, 199191, Note_on_c, 2, 64, 118
4, 199245, Note_on_c, 2, 71, 118
4, 199268, Note_on_c, 2, 79, 124
4, 199332, Note_on_c, 2, 79, 0
4, 199345, Note_on_c, 2, 64, 0
4, 199348, Note_on_c, 2, 71, 0
4, 199531, Note_on_c, 2, 59, 124
4, 200227, Note_on_c, 2, 59, 0
4, 200463, Note_on_c, 2, 76, 121
4, 200700, Note_on_c, 2, 64, 86
4, 200712, Note_on_c, 2, 76, 0
4, 200763, Note_on_c, 2, 79, 122
4, 200765, Note_on_c, 2, 72, 114
4, 200817, Note_on_c, 2, 79, 0
4, 200818, Note_on_c, 2, 64, 0
4, 200826, Note_on_c, 2, 72, 0
4, 201001, Note_on_c, 2, 58, 119
4, 201472, Note_on_c, 2, 58, 0
4, 201664, Note_on_c, 2, 58, 115
4, 201931, Note_on_c, 2, 59, 117
4, 201964, Note_on_c, 2, 58, 0
4, 202160, Note_on_c, 2, 59, 0
4, 202166, Note_on_c, 2, 60, 118
4, 202321, Note_on_c, 2, 60, 0
4, 203659, Note_on_c, 2, 60, 114
4, 204074, Note_on_c, 2, 60, 0
4, 204074, Control_c, 2, 11, 80
4, 204074, Note_on_c, 2, 59, 116
4, 204079, Control_c, 2, 11, 78
4, 204084, Control_c, 2, 11, 77
4, 204089, Control_c, 2, 11, 76
4, 204094, Control_c, 2, 11, 75
4, 204099, Control_c, 2, 11, 74
4, 204104, Control_c, 2, 11, 73
4, 204109, Control_c, 2, 11, 72
4, 204114, Control_c, 2, 11, 71
4, 204119, Control_c, 2, 11, 70
4, 204124, Control_c, 2, 11, 69
4, 204129, Control_c, 2, 11, 68
4, 204134, Control_c, 2, 11, 67
4, 204139, Control_c, 2, 11, 66
4, 204149, Control_c, 2, 11, 65
4, 204159, Control_c, 2, 11, 64
4, 204164, Control_c, 2, 11, 63
4, 204174, Control_c, 2, 11, 62
4, 204184, Control_c, 2, 11, 61
4, 204194, Control_c, 2, 11, 60
4, 204204, Control_c, 2, 11, 59
4, 204214, Control_c, 2, 11, 58
4, 204229, Control_c, 2, 11, 57
4, 204244, Control_c, 2, 11, 56
4, 204259, Control_c, 2, 11, 55
4, 204284, Control_c, 2, 11, 54
4, 204304, Control_c, 2, 11, 53
4, 204339, Control_c, 2, 11, 52
4, 204384, Control_c, 2, 11, 51
4, 204464, Control_c, 2, 11, 50
4, 207272, Note_on_c, 2, 59, 0
4, 207755, Control_c, 2, 11, 80
4, 207755, Note_on_c, 2, 69, 77
4, 208388, Note_on_c, 2, 71, 66
4, 208429, Note_on_c, 2, 69, 0
4, 209078, Note_on_c, 2, 72, 88
4, 209118, Note_on_c, 2, 71, 0
4, 211304, Note_on_c, 2, 72, 0
4, 213109, Control_c, 2, 11, 50
4, 213109, Note_on_c, 2, 63, 43
4, 213114, Control_c, 2, 11, 52
4, 213119, Control_c, 2, 11, 53
4, 213124, Control_c, 2, 11, 54
4, 213129, Control_c, 2, 11, 55
4, 213134, Control_c, 2, 11, 56
4, 213139, Control_c, 2, 11, 57
4, 213144, Control_c, 2, 11, 58
4, 213149, Control_c, 2, 11, 59
4, 213159, Control_c, 2, 11, 60
4, 213164, Control_c, 2, 11, 61
4, 213169, Control_c, 2, 11, 62
4, 213179, Control_c, 2, 11, 63
4, 213184, Control_c, 2, 11, 64
4, 213189, Control_c, 2, 11, 65
4, 213204, Control_c, 2, 11, 66
4, 213209, Control_c, 2, 11, 67
4, 213219, Control_c, 2, 11, 68
4, 213229, Control_c, 2, 11, 69
4, 213244, Control_c, 2, 11, 70
4, 213254, Control_c, 2, 11, 71
4, 213269, Control_c, 2, 11, 72
4, 213284, Control_c, 2, 11, 73
4, 213299, Control_c, 2, 11, 74
4, 213319, Control_c, 2, 11, 75
4, 213344, Control_c, 2, 11, 76
4, 213369, Control_c, 2, 11, 77
4, 213409, Control_c, 2, 11, 78
4, 213459, Control_c, 2, 11, 79
4, 213549, Control_c, 2, 11, 80
4, 214560, Control_c, 2, 11, 80
4, 214585, Control_c, 2, 11, 79
4, 214610, Control_c, 2, 11, 78
4, 214635, Control_c, 2, 11, 77
4, 214660, Control_c, 2, 11, 76
4, 214680, Control_c, 2, 11, 75
4, 214705, Control_c, 2, 11, 74
4, 214730, Control_c, 2, 11, 73
4, 214755, Control_c, 2, 11, 72
4, 214780, Control_c, 2, 11, 71
4, 214800, Control_c, 2, 11, 70
4, 214825, Control_c, 2, 11, 69
4, 214850, Control_c, 2, 11, 68
4, 214875, Control_c, 2, 11, 67
4, 214900, Control_c, 2, 11, 66
4, 214920, Control_c, 2, 11, 65
4, 214945, Control_c, 2, 11, 64
4, 214970, Control_c, 2, 11, 63
4, 214995, Control_c, 2, 11, 62
4, 215020, Control_c, 2, 11, 61
4, 215040, Control_c, 2, 11, 60
4, 215065, Control_c, 2, 11, 59
4, 215090, Control_c, 2, 11, 58
4, 215115, Control_c, 2, 11, 57
4, 215140, Control_c, 2, 11, 56
4, 215160, Control_c, 2, 11, 55
4, 215185, Control_c, 2, 11, 54
4, 215210, Control_c, 2, 11, 53
4, 215235, Control_c, 2, 11, 52
4, 215260, Control_c, 2, 11, 51
4, 215280, Control_c, 2, 11, 50
4, 215305, Control_c, 2, 11, 49
4, 215330, Control_c, 2, 11, 48
4, 215355, Control_c, 2, 11, 47
4, 215380, Control_c, 2, 11, 46
4, 215400, Control_c, 2, 11, 45
4, 215415, Note_on_c, 2, 63, 0
4, 215425, Control_c, 2, 11, 44
4, 215450, Control_c, 2, 11, 43
4, 215475, Control_c, 2, 11, 42
4, 215500, Control_c, 2, 11, 41
4, 215520, Control_c, 2, 11, 40
4, 224160, Control_c, 2, 11, 60
4, 224185, Note_on_c, 2, 59, 60
4, 224783, Note_on_c, 2, 64, 57
4, 224902, Note_on_c, 2, 59, 0
4, 225245, Note_on_c, 2, 64, 0
4, 231023, Note_on_c, 2, 63, 65
4, 231695, Note_on_c, 2, 66, 70
4, 231718, Note_on_c, 2, 63, 0
4, 232066, Note_on_c, 2, 64, 55
4, 232135, Note_on_c, 2, 66, 0
4, 232584, Note_on_c, 2, 64, 0
4, 233280, Program_c, 2, 45
4, 233280, Control_c, 2, 91, 120
4, 234543, Note_on_c, 2, 71, 63
4, 234576, Note_on_c, 2, 71, 0
4, 234838, Note_on_c, 2, 71, 76
4, 234865, Note_on_c, 2, 71, 0
4, 235144, Note_on_c, 2, 73, 41
4, 235235, Note_on_c, 2, 73, 0
4, 236592, Note_on_c, 2, 63, 60
4, 236619, Note_on_c, 2, 63, 0
4, 236893, Note_on_c, 2, 63, 60
4, 236942, Note_on_c, 2, 63, 0
4, 237600, Program_c, 2, 49
4, 237600, Control_c, 2, 91, 60
4, 238290, Control_c, 2, 11, 60
4, 238290, Note_on_c, 2, 71, 73
4, 238330, Control_c, 2, 11, 61
4, 238365, Control_c, 2, 11, 62
4, 238405, Control_c, 2, 11, 63
4, 238440, Control_c, 2, 11, 64
4, 238480, Control_c, 2, 11, 65
4, 238515, Control_c, 2, 11, 66
4, 238555, Control_c, 2, 11, 67
4, 238590, Control_c, 2, 11, 68
4, 238606, Note_on_c, 2, 73, 65
4, 238630, Control_c, 2, 11, 69
4, 238665, Note_on_c, 2, 71, 0
4, 238665, Control_c, 2, 11, 70
4, 238705, Control_c, 2, 11, 71
4, 238740, Control_c, 2, 11, 72
4, 238780, Control_c, 2, 11, 73
4, 238815, Control_c, 2, 11, 74
4, 238855, Control_c, 2, 11, 75
4, 238890, Control_c, 2, 11, 76
4, 238930, Control_c, 2, 11, 77
4, 238965, Control_c, 2, 11, 78
4, 239005, Control_c, 2, 11, 79
4, 239040, Control_c, 2, 11, 80
4, 239255, Note_on_c, 2, 73, 0
4, 239704, Note_on_c, 2, 71, 71
4, 240026, Note_on_c, 2, 69, 71
4, 240085, Note_on_c, 2, 71, 0
4, 240471, Note_on_c, 2, 68, 73
4, 240517, Note_on_c, 2, 69, 0
4, 241070, Note_on_c, 2, 69, 67
4, 241100, Note_on_c, 2, 68, 0
4, 241329, Note_on_c, 2, 71, 87
4, 241377, Note_on_c, 2, 69, 0
4, 241590, Note_on_c, 2, 69, 73
4, 241616, Note_on_c, 2, 71, 0
4, 242207, Control_c, 2, 11, 80
4, 242207, Note_on_c, 2, 68, 82
4, 242253, Note_on_c, 2, 69, 0
4, 242272, Control_c, 2, 11, 79
4, 242332, Control_c, 2, 11, 78
4, 242397, Control_c, 2, 11, 77
4, 242457, Control_c, 2, 11, 76
4, 242522, Control_c, 2, 11, 75
4, 242582, Control_c, 2, 11, 74
4, 242647, Control_c, 2, 11, 73
4, 242707, Control_c, 2, 11, 72
4, 242772, Control_c, 2, 11, 71
4, 242832, Control_c, 2, 11, 70
4, 242897, Control_c, 2, 11, 69
4, 242957, Control_c, 2, 11, 68
4, 243022, Control_c, 2, 11, 67
4, 243075, Note_on_c, 2, 66, 81
4, 243082, Control_c, 2, 11, 66
4, 243129, Note_on_c, 2, 68, 0
4, 243147, Control_c, 2, 11, 65
4, 243207, Control_c, 2, 11, 64
4, 243272, Control_c, 2, 11, 63
4, 243332, Control_c, 2, 11, 62
4, 243397, Control_c, 2, 11, 61
4, 243457, Control_c, 2, 11, 60
4, 243522, Control_c, 2, 11, 59
4, 243582, Control_c, 2, 11, 58
4, 243647, Control_c, 2, 11, 57
4, 243661, Note_on_c, 2, 68, 73
4, 243707, Control_c, 2, 11, 56
4, 243718, Note_on_c, 2, 66, 0
4, 243767, Control_c, 2, 11, 55
4, 243832, Control_c, 2, 11, 54
4, 243892, Control_c, 2, 11, 53
4, 243957, Control_c, 2, 11, 52
4, 244017, Control_c, 2, 11, 51
4, 244033, Note_on_c, 2, 69, 73
4, 244077, Note_on_c, 2, 68, 0
4, 244080, Control_c, 2, 11, 50
4, 244297, Note_on_c, 2, 69, 0
4, 244620, Note_on_c, 2, 64, 73
4, 244782, Note_on_c, 2, 64, 0
4, 245040, Control_c, 2, 11, 80
4, 245263, Note_on_c, 2, 66, 91
4, 245538, Note_on_c, 2, 64, 74
4, 245557, Note_on_c, 2, 66, 0
4, 246158, Note_on_c, 2, 64, 0
4, 246645, Control_c, 2, 11, 50
4, 246645, Note_on_c, 2, 63, 76
4, 246680, Control_c, 2, 11, 51
4, 246715, Control_c, 2, 11, 52
4, 246750, Control_c, 2, 11, 53
4, 246780, Control_c, 2, 11, 54
4, 246815, Control_c, 2, 11, 55
4, 246850, Control_c, 2, 11, 56
4, 246880, Control_c, 2, 11, 57
4, 246915, Control_c, 2, 11, 58
4, 246950, Control_c, 2, 11, 59
4, 246980, Control_c, 2, 11, 60
4, 247015, Control_c, 2, 11, 61
4, 247050, Control_c, 2, 11, 62
4, 247080, Control_c, 2, 11, 63
4, 247115, Control_c, 2, 11, 64
4, 247150, Control_c, 2, 11, 65
4, 247180, Control_c, 2, 11, 66
4, 247215, Control_c, 2, 11, 67
4, 247250, Control_c, 2, 11, 68
4, 247280, Control_c, 2, 11, 69
4, 247315, Control_c, 2, 11, 70
4, 247350, Control_c, 2, 11, 71
4, 247380, Control_c, 2, 11, 72
4, 247415, Control_c, 2, 11, 73
4, 247450, Control_c, 2, 11, 74
4, 247480, Control_c, 2, 11, 75
4, 247515, Control_c, 2, 11, 76
4, 247550, Control_c, 2, 11, 77
4, 247580, Control_c, 2, 11, 78
4, 247615, Control_c, 2, 11, 79
4, 247620, Note_on_c, 2, 66, 80
4, 247650, Control_c, 2, 11, 80
4, 247680, Control_c, 2, 11, 81
4, 247680, Control_c, 2, 11, 80
4, 247740, Control_c, 2, 11, 79
4, 247746, Note_on_c, 2, 63, 0
4, 247795, Control_c, 2, 11, 78
4, 247850, Control_c, 2, 11, 77
4, 247905, Control_c, 2, 11, 76
4, 247960, Control_c, 2, 11, 75
4, 248020, Control_c, 2, 11, 74
4, 248075, Control_c, 2, 11, 73
4, 248130, Control_c, 2, 11, 72
4, 248185, Control_c, 2, 11, 71
4, 248240, Control_c, 2, 11, 70
4, 248300, Control_c, 2, 11, 69
4, 248355, Control_c, 2, 11, 68
4, 248410, Control_c, 2, 11, 67
4, 248465, Control_c, 2, 11, 66
4, 248520, Control_c, 2, 11, 65
4, 248580, Control_c, 2, 11, 64
4, 248635, Control_c, 2, 11, 63
4, 248690, Control_c, 2, 11, 62
4, 248745, Control_c, 2, 11, 61
4, 248800, Control_c, 2, 11, 60
4, 248860, Control_c, 2, 11, 59
4, 248915, Control_c, 2, 11, 58
4, 248970, Control_c, 2, 11, 57
4, 249025, Control_c, 2, 11, 56
4, 249080, Control_c, 2, 11, 55
4, 249140, Control_c, 2, 11, 54
4, 249195, Control_c, 2, 11, 53
4, 249250, Control_c, 2, 11, 52
4, 249305, Control_c, 2, 11, 51
4, 249360, Control_c, 2, 11, 50
4, 249435, Control_c, 2, 11, 51
4, 249505, Control_c, 2, 11, 52
4, 249580, Control_c, 2, 11, 53
4, 249650, Control_c, 2, 11, 54
4, 249720, Control_c, 2, 11, 55
4, 249795, Control_c, 2, 11, 56
4, 249865, Control_c, 2, 11, 57
4, 249940, Control_c, 2, 11, 58
4, 250010, Control_c, 2, 11, 59
4, 250080, Control_c, 2, 11, 60
4, 253558, Note_on_c, 2, 64, 68
4, 253642, Note_on_c, 2, 66, 0
4, 255197, Note_on_c, 2, 63, 68
4, 255255, Note_on_c, 2, 64, 0
4, 256825, Note_on_c, 2, 68, 63
4, 256890, Note_on_c, 2, 63, 0
4, 257561, Note_on_c, 2, 69, 60
4, 257601, Note_on_c, 2, 68, 0
4, 258600, Note_on_c, 2, 68, 39
4, 258691, Note_on_c, 2, 69, 0
4, 259248, Note_on_c, 2, 68, 0
4, 263784, Note_on_c, 2, 64, 84
4, 265005, Note_on_c, 2, 64, 0
4, 265511, Note_on_c, 2, 64, 90
4, 265748, Note_on_c, 2, 64, 0
4, 266252, Note_on_c, 2, 76, 104
4, 266964, Note_on_c, 2, 71, 90
4, 267006, Note_on_c, 2, 76, 0
4, 267250, Note_on_c, 2, 71, 0
4, 267360, Program_c, 2, 45
4, 267360, Control_c, 2, 91, 120
4, 267927, Note_on_c, 2, 68, 87
4, 267947, Note_on_c, 2, 68, 0
4, 268126, Note_on_c, 2, 68, 110
4, 268154, Note_on_c, 2, 68, 0
4, 268326, Note_on_c, 2, 68, 114
4, 268354, Note_on_c, 2, 68, 0
4, 271028, Note_on_c, 2, 71, 109
4, 271058, Note_on_c, 2, 71, 0
4, 271440, Program_c, 2, 49
4, 271440, Control_c, 2, 91, 60
4, 271920, Control_c, 2, 11, 80
4, 272112, Note_on_c, 2, 63, 101
4, 272458, Note_on_c, 2, 63, 0
4, 272465, Note_on_c, 2, 64, 100
4, 272618, Note_on_c, 2, 64, 0
4, 272880, Program_c, 2, 45
4, 272880, Control_c, 2, 91, 120
4, 273229, Note_on_c, 2, 71, 111
4, 273264, Note_on_c, 2, 71, 0
4, 273999, Note_on_c, 2, 71, 116
4, 274038, Note_on_c, 2, 71, 0
4, 274731, Note_on_c, 2, 71, 114
4, 274766, Note_on_c, 2, 71, 0
4, 275760, Control_c, 2, 11, 60
4, 275930, Note_on_c, 2, 69, 84
4, 276161, Note_on_c, 2, 68, 70
4, 276191, Note_on_c, 2, 69, 0
4, 276318, Note_on_c, 2, 68, 0
4, 276600, Note_on_c, 2, 69, 89
4, 276811, Note_on_c, 2, 68, 74
4, 276829, Note_on_c, 2, 69, 0
4, 276967, Note_on_c, 2, 68, 0
4, 277396, Note_on_c, 2, 71, 116
4, 277424, Note_on_c, 2, 71, 0
4, 277518, Note_on_c, 2, 71, 121
4, 277607, Note_on_c, 2, 71, 0
4, 277920, Program_c, 2, 49
4, 277920, Control_c, 2, 91, 60
4, 278115, Note_on_c, 2, 69, 117
4, 278302, Note_on_c, 2, 69, 0
4, 278333, Note_on_c, 2, 68, 110
4, 278864, Note_on_c, 2, 68, 0
4, 278884, Note_on_c, 2, 71, 106
4, 279079, Note_on_c, 2, 71, 0
4, 279103, Note_on_c, 2, 71, 107
4, 279584, Note_on_c, 2, 70, 104
4, 279631, Note_on_c, 2, 71, 0
4, 279844, Note_on_c, 2, 70, 0
4, 279855, Note_on_c, 2, 69, 87
4, 281058, Note_on_c, 2, 68, 76
4, 281114, Note_on_c, 2, 69, 0
4, 281254, Note_on_c, 2, 68, 0
4, 281294, Note_on_c, 2, 68, 91
4, 281839, Note_on_c, 2, 67, 96
4, 281861, Note_on_c, 2, 68, 0
4, 282080, Note_on_c, 2, 68, 103
4, 282121, Note_on_c, 2, 67, 0
4, 282486, Note_on_c, 2, 68, 0
4, 282501, Note_on_c, 2, 69, 93
4, 282757, Note_on_c, 2, 68, 94
4, 282790, Note_on_c, 2, 69, 0
4, 283015, Note_on_c, 2, 68, 0
4, 283680, Control_c, 2, 11, 80
4, 283907, Note_on_c, 2, 75, 118
4, 284229, Note_on_c, 2, 75, 0
4, 284272, Note_on_c, 2, 76, 120
4, 284413, Note_on_c, 2, 76, 0
4, 284640, Program_c, 2, 45
4, 284640, Control_c, 2, 91, 120
4, 285112, Note_on_c, 2, 71, 118
4, 285151, Note_on_c, 2, 71, 0
4, 285921, Note_on_c, 2, 71, 111
4, 285955, Note_on_c, 2, 71, 0
4, 286692, Note_on_c, 2, 71, 122
4, 286728, Note_on_c, 2, 71, 0
4, 287760, Control_c, 2, 11, 60
4, 287977, Note_on_c, 2, 69, 91
4, 288182, Note_on_c, 2, 68, 75
4, 288230, Note_on_c, 2, 69, 0
4, 288447, Note_on_c, 2, 68, 0
4, 288672, Note_on_c, 2, 69, 90
4, 288880, Note_on_c, 2, 68, 81
4, 288921, Note_on_c, 2, 69, 0
4, 289085, Note_on_c, 2, 68, 0
4, 289441, Note_on_c, 2, 71, 116
4, 289495, Note_on_c, 2, 71, 0
4, 289571, Note_on_c, 2, 71, 122
4, 289731, Note_on_c, 2, 71, 0
4, 289920, Program_c, 2, 49
4, 289920, Control_c, 2, 91, 60
4, 290150, Note_on_c, 2, 69, 118
4, 290344, Note_on_c, 2, 68, 106
4, 290378, Note_on_c, 2, 69, 0
4, 290838, Note_on_c, 2, 73, 112
4, 290855, Note_on_c, 2, 68, 0
4, 291033, Note_on_c, 2, 73, 0
4, 291059, Note_on_c, 2, 73, 110
4, 291531, Note_on_c, 2, 66, 96
4, 291588, Note_on_c, 2, 73, 0
4, 291763, Note_on_c, 2, 66, 0
4, 291784, Note_on_c, 2, 66, 87
4, 292323, Note_on_c, 2, 71, 89
4, 292380, Note_on_c, 2, 66, 0
4, 292536, Note_on_c, 2, 71, 0
4, 292564, Note_on_c, 2, 71, 85
4, 293029, Note_on_c, 2, 68, 86
4, 293074, Note_on_c, 2, 71, 0
4, 293240, Note_on_c, 2, 68, 0
4, 293274, Note_on_c, 2, 68, 98
4, 293805, Note_on_c, 2, 67, 91
4, 293846, Note_on_c, 2, 68, 0
4, 294058, Note_on_c, 2, 68, 103
4, 294111, Note_on_c, 2, 67, 0
4, 294508, Note_on_c, 2, 68, 0
4, 294510, Note_on_c, 2, 69, 98
4, 294732, Note_on_c, 2, 68, 86
4, 294781, Note_on_c, 2, 69, 0
4, 295029, Note_on_c, 2, 68, 0
4, 295826, Control_c, 2, 11, 60
4, 295826, Note_on_c, 2, 71, 112
4, 296001, Control_c, 2, 11, 61
4, 296171, Control_c, 2, 11, 62
4, 296331, Note_on_c, 2, 71, 0
4, 296336, Note_on_c, 2, 69, 113
4, 296341, Control_c, 2, 11, 63
4, 296511, Control_c, 2, 11, 64
4, 296681, Control_c, 2, 11, 65
4, 296769, Note_on_c, 2, 69, 0
4, 296811, Note_on_c, 2, 73, 116
4, 296851, Control_c, 2, 11, 66
4, 297021, Control_c, 2, 11, 67
4, 297065, Note_on_c, 2, 71, 104
4, 297096, Note_on_c, 2, 73, 0
4, 297191, Control_c, 2, 11, 68
4, 297366, Control_c, 2, 11, 69
4, 297505, Note_on_c, 2, 71, 0
4, 297536, Control_c, 2, 11, 70
4, 297567, Note_on_c, 2, 74, 111
4, 297706, Control_c, 2, 11, 71
4, 297876, Control_c, 2, 11, 72
4, 297893, Note_on_c, 2, 75, 114
4, 297916, Note_on_c, 2, 74, 0
4, 298046, Control_c, 2, 11, 73
4, 298216, Control_c, 2, 11, 74
4, 298322, Note_on_c, 2, 75, 0
4, 298330, Note_on_c, 2, 76, 118
4, 298386, Control_c, 2, 11, 75
4, 298556, Control_c, 2, 11, 76
4, 298636, Note_on_c, 2, 76, 0
4, 298647, Note_on_c, 2, 77, 120
4, 298731, Control_c, 2, 11, 77
4, 298883, Note_on_c, 2, 79, 114
4, 298901, Control_c, 2, 11, 78
4, 298905, Note_on_c, 2, 77, 0
4, 299071, Control_c, 2, 11, 79
4, 299239, Control_c, 2, 11, 80
4, 299239, Note_on_c, 2, 80, 121
4, 299270, Note_on_c, 2, 79, 0
4, 299412, Note_on_c, 2, 80, 0
4, 299816, Note_on_c, 2, 69, 91
4, 300071, Note_on_c, 2, 68, 86
4, 300093, Note_on_c, 2, 69, 0
4, 300196, Note_on_c, 2, 68, 0
4, 300544, Note_on_c, 2, 69, 78
4, 300545, Note_on_c, 2, 67, 78
4, 300610, Note_on_c, 2, 67, 0
4, 300790, Note_on_c, 2, 68, 70
4, 300815, Note_on_c, 2, 69, 0
4, 300938, Note_on_c, 2, 68, 0
4, 301268, Note_on_c, 2, 66, 80
4, 301580, Note_on_c, 2, 67, 76
4, 301624, Note_on_c, 2, 66, 0
4, 301804, Note_on_c, 2, 68, 94
4, 301871, Note_on_c, 2, 67, 0
4, 302047, Note_on_c, 2, 69, 97
4, 302094, Note_on_c, 2, 68, 0
4, 302274, Note_on_c, 2, 70, 116
4, 302313, Note_on_c, 2, 69, 0
4, 302490, Note_on_c, 2, 71, 111
4, 302519, Note_on_c, 2, 70, 0
4, 302718, Note_on_c, 2, 71, 0
4, 307537, Control_c, 2, 11, 80
4, 307537, Note_on_c, 2, 71, 112
4, 307642, Control_c, 2, 11, 81
4, 307747, Control_c, 2, 11, 82
4, 307847, Control_c, 2, 11, 83
4, 307952, Control_c, 2, 11, 84
4, 308057, Control_c, 2, 11, 85
4, 308157, Control_c, 2, 11, 86
4, 308160, Note_on_c, 2, 71, 0
4, 308167, Note_on_c, 2, 75, 98
4, 308214, Note_on_c, 2, 75, 0
4, 308262, Control_c, 2, 11, 87
4, 308304, Note_on_c, 2, 75, 121
4, 308362, Control_c, 2, 11, 88
4, 308467, Control_c, 2, 11, 89
4, 308491, Note_on_c, 2, 75, 0
4, 308512, Note_on_c, 2, 75, 119
4, 308572, Control_c, 2, 11, 90
4, 308672, Control_c, 2, 11, 91
4, 308707, Note_on_c, 2, 75, 0
4, 308737, Note_on_c, 2, 75, 124
4, 308777, Control_c, 2, 11, 92
4, 308818, Note_on_c, 2, 75, 0
4, 308851, Note_on_c, 2, 78, 125
4, 308882, Control_c, 2, 11, 93
4, 308889, Note_on_c, 2, 78, 0
4, 308951, Note_on_c, 2, 78, 127
4, 308982, Control_c, 2, 11, 94
4, 309067, Note_on_c, 2, 78, 0
4, 309087, Control_c, 2, 11, 95
4, 309164, Note_on_c, 2, 78, 127
4, 309187, Control_c, 2, 11, 96
4, 309292, Control_c, 2, 11, 97
4, 309372, Note_on_c, 2, 78, 0
4, 309397, Control_c, 2, 11, 98
4, 309409, Note_on_c, 2, 78, 125
4, 309497, Control_c, 2, 11, 99
4, 309560, Note_on_c, 2, 78, 0
4, 309600, Control_c, 2, 11, 100
4, 309610, Note_on_c, 2, 80, 127
4, 309641, Note_on_c, 2, 80, 0
4, 309676, Note_on_c, 2, 80, 86
4, 309757, Note_on_c, 2, 80, 0
4, 309776, Note_on_c, 2, 80, 107
4, 309816, Note_on_c, 2, 80, 0
4, 309854, Note_on_c, 2, 80, 115
4, 309887, Note_on_c, 2, 80, 0
4, 309907, Note_on_c, 2, 80, 106
4, 309948, Note_on_c, 2, 80, 0
4, 309972, Note_on_c, 2, 80, 105
4, 310009, Note_on_c, 2, 80, 0
4, 310027, Note_on_c, 2, 80, 101
4, 310062, Note_on_c, 2, 80, 0
4, 310093, Note_on_c, 2, 80, 110
4, 310127, Note_on_c, 2, 80, 0
4, 310146, Note_on_c, 2, 80, 107
4, 310184, Note_on_c, 2, 80, 0
4, 310214, Note_on_c, 2, 80, 103
4, 310251, Note_on_c, 2, 80, 0
4, 310266, Note_on_c, 2, 80, 101
4, 310298, Note_on_c, 2, 80, 0
4, 310333, Note_on_c, 2, 80, 115
4, 310371, Note_on_c, 2, 80, 0
4, 310390, Note_on_c, 2, 80, 105
4, 310433, Note_on_c, 2, 80, 0
4, 310452, Note_on_c, 2, 80, 108
4, 310493, Note_on_c, 2, 80, 0
4, 310507, Note_on_c, 2, 80, 83
4, 310546, Note_on_c, 2, 80, 0
4, 310577, Note_on_c, 2, 81, 121
4, 310610, Note_on_c, 2, 81, 0
4, 310630, Note_on_c, 2, 81, 100
4, 310672, Note_on_c, 2, 81, 0
4, 310683, Note_on_c, 2, 81, 97
4, 310713, Note_on_c, 2, 81, 0
4, 310737, Note_on_c, 2, 81, 98
4, 310782, Note_on_c, 2, 81, 0
4, 310811, Note_on_c, 2, 78, 120
4, 310843, Note_on_c, 2, 78, 0
4, 310866, Note_on_c, 2, 78, 91
4, 310906, Note_on_c, 2, 78, 0
4, 310925, Note_on_c, 2, 78, 99
4, 310953, Note_on_c, 2, 78, 0
4, 310976, Note_on_c, 2, 78, 106
4, 311010, Note_on_c, 2, 78, 0
4, 311046, Note_on_c, 2, 77, 122
4, 311081, Note_on_c, 2, 77, 0
4, 311104, Note_on_c, 2, 77, 103
4, 311146, Note_on_c, 2, 77, 0
4, 311161, Note_on_c, 2, 77, 101
4, 311195, Note_on_c, 2, 77, 0
4, 311228, Note_on_c, 2, 77, 93
4, 311315, Note_on_c, 2, 77, 0
4, 311342, Note_on_c, 2, 77, 99
4, 311385, Note_on_c, 2, 77, 0
4, 311394, Note_on_c, 2, 77, 100
4, 311434, Note_on_c, 2, 77, 0
4, 311456, Note_on_c, 2, 77, 106
4, 311493, Note_on_c, 2, 77, 0
4, 311518, Note_on_c, 2, 78, 124
4, 311550, Note_on_c, 2, 78, 0
4, 311575, Note_on_c, 2, 78, 94
4, 311621, Note_on_c, 2, 78, 0
4, 311640, Note_on_c, 2, 78, 110
4, 311673, Note_on_c, 2, 78, 0
4, 311702, Note_on_c, 2, 78, 89
4, 311745, Note_on_c, 2, 78, 0
4, 311777, Note_on_c, 2, 78, 120
4, 311814, Note_on_c, 2, 78, 0
4, 311833, Note_on_c, 2, 78, 100
4, 311879, Note_on_c, 2, 78, 0
4, 311899, Note_on_c, 2, 78, 104
4, 311933, Note_on_c, 2, 78, 0
4, 311956, Note_on_c, 2, 78, 95
4, 312000, Note_on_c, 2, 78, 0
4, 312025, Note_on_c, 2, 80, 127
4, 312062, Note_on_c, 2, 80, 0
4, 312086, Note_on_c, 2, 80, 84
4, 312130, Note_on_c, 2, 80, 0
4, 312154, Note_on_c, 2, 80, 99
4, 312248, Note_on_c, 2, 80, 0
4, 312275, Note_on_c, 2, 76, 117
4, 312310, Note_on_c, 2, 76, 0
4, 312335, Note_on_c, 2, 76, 97
4, 312375, Note_on_c, 2, 76, 0
4, 312384, Note_on_c, 2, 76, 79
4, 312420, Note_on_c, 2, 76, 0
4, 312448, Note_on_c, 2, 76, 79
4, 312473, Note_on_c, 2, 76, 0
4, 312502, Note_on_c, 2, 75, 125
4, 312535, Note_on_c, 2, 75, 0
4, 312567, Note_on_c, 2, 75, 91
4, 312649, Note_on_c, 2, 75, 0
4, 312682, Note_on_c, 2, 75, 100
4, 312728, Note_on_c, 2, 75, 0
4, 312746, Note_on_c, 2, 75, 113
4, 312779, Note_on_c, 2, 75, 0
4, 312812, Note_on_c, 2, 75, 93
4, 312900, Note_on_c, 2, 75, 0
4, 312920, Note_on_c, 2, 75, 103
4, 312955, Note_on_c, 2, 75, 0
4, 313003, Note_on_c, 2, 76, 118
4, 313041, Note_on_c, 2, 76, 0
4, 313066, Note_on_c, 2, 76, 100
4, 313104, Note_on_c, 2, 76, 0
4, 313130, Note_on_c, 2, 76, 99
4, 313166, Note_on_c, 2, 76, 0
4, 313177, Note_on_c, 2, 76, 64
4, 313213, Note_on_c, 2, 76, 0
4, 313275, Note_on_c, 2, 88, 125
4, 313311, Note_on_c, 2, 88, 0
4, 313340, Note_on_c, 2, 88, 96
4, 313380, Note_on_c, 2, 88, 0
4, 313391, Note_on_c, 2, 88, 68
4, 313424, Note_on_c, 2, 88, 0
4, 313443, Note_on_c, 2, 88, 89
4, 313485, Note_on_c, 2, 88, 0
4, 313525, Note_on_c, 2, 87, 125
4, 313560, Note_on_c, 2, 87, 0
4, 313581, Note_on_c, 2, 87, 103
4, 313627, Note_on_c, 2, 87, 0
4, 313652, Note_on_c, 2, 87, 95
4, 313744, Note_on_c, 2, 87, 0
4, 313785, Note_on_c, 2, 86, 124
4, 313823, Note_on_c, 2, 86, 0
4, 313850, Note_on_c, 2, 86, 97
4, 313889, Note_on_c, 2, 86, 0
4, 313924, Note_on_c, 2, 86, 93
4, 314011, Note_on_c, 2, 86, 0
4, 314044, Note_on_c, 2, 84, 122
4, 314079, Note_on_c, 2, 84, 0
4, 314102, Note_on_c, 2, 84, 94
4, 314139, Note_on_c, 2, 84, 0
4, 314164, Note_on_c, 2, 84, 98
4, 314199, Note_on_c, 2, 84, 0
4, 314220, Note_on_c, 2, 84, 93
4, 314259, Note_on_c, 2, 84, 0
4, 314292, Note_on_c, 2, 83, 114
4, 314329, Note_on_c, 2, 83, 0
4, 314347, Note_on_c, 2, 83, 90
4, 314390, Note_on_c, 2, 83, 0
4, 314413, Note_on_c, 2, 83, 96
4, 314452, Note_on_c, 2, 83, 0
4, 314466, Note_on_c, 2, 83, 77
4, 314511, Note_on_c, 2, 83, 0
4, 314537, Note_on_c, 2, 81, 114
4, 314575, Note_on_c, 2, 81, 0
4, 314595, Note_on_c, 2, 81, 100
4, 314640, Note_on_c, 2, 81, 0
4, 314660, Note_on_c, 2, 81, 107
4, 314696, Note_on_c, 2, 81, 0
4, 314715, Note_on_c, 2, 81, 99
4, 314758, Note_on_c, 2, 81, 0
4, 314781, Note_on_c, 2, 81, 116
4, 314823, Note_on_c, 2, 81, 0
4, 314837, Note_on_c, 2, 81, 97
4, 314878, Note_on_c, 2, 81, 0
4, 314901, Note_on_c, 2, 81, 107
4, 314938, Note_on_c, 2, 81, 0
4, 314953, Note_on_c, 2, 81, 104
4, 314999, Note_on_c, 2, 81, 0
4, 315022, Note_on_c, 2, 79, 124
4, 315060, Note_on_c, 2, 79, 0
4, 315079, Note_on_c, 2, 79, 109
4, 315122, Note_on_c, 2, 79, 0
4, 315136, Note_on_c, 2, 79, 98
4, 315173, Note_on_c, 2, 79, 0
4, 315186, Note_on_c, 2, 79, 97
4, 315232, Note_on_c, 2, 79, 0
4, 315256, Note_on_c, 2, 78, 126
4, 315289, Note_on_c, 2, 78, 0
4, 315307, Note_on_c, 2, 78, 113
4, 315353, Note_on_c, 2, 78, 0
4, 315372, Note_on_c, 2, 78, 115
4, 315459, Note_on_c, 2, 78, 0
4, 315491, Note_on_c, 2, 78, 123
4, 315535, Note_on_c, 2, 78, 0
4, 315738, Note_on_c, 2, 59, 113
4, 315775, Note_on_c, 2, 59, 0
4, 315795, Note_on_c, 2, 59, 111
4, 315833, Note_on_c, 2, 59, 0
4, 315864, Note_on_c, 2, 58, 119
4, 315901, Note_on_c, 2, 58, 0
4, 315916, Note_on_c, 2, 58, 104
4, 315950, Note_on_c, 2, 58, 0
4, 315993, Note_on_c, 2, 59, 103
4, 316029, Note_on_c, 2, 59, 0
4, 316049, Note_on_c, 2, 59, 101
4, 316090, Note_on_c, 2, 59, 0
4, 316120, Note_on_c, 2, 63, 115
4, 316148, Note_on_c, 2, 63, 0
4, 316170, Note_on_c, 2, 63, 110
4, 316205, Note_on_c, 2, 63, 0
4, 316255, Note_on_c, 2, 66, 121
4, 316464, Note_on_c, 2, 66, 0
4, 316484, Note_on_c, 2, 67, 116
4, 316579, Note_on_c, 2, 67, 0
4, 316742, Note_on_c, 2, 79, 117
4, 316746, Note_on_c, 2, 71, 114
4, 316776, Note_on_c, 2, 71, 0
4, 316790, Note_on_c, 2, 79, 0
4, 316999, Note_on_c, 2, 79, 124
4, 317000, Note_on_c, 2, 71, 120
4, 317042, Note_on_c, 2, 71, 0
4, 317058, Note_on_c, 2, 79, 0
4, 317251, Note_on_c, 2, 59, 111
4, 317291, Note_on_c, 2, 59, 0
4, 317313, Note_on_c, 2, 59, 88
4, 317348, Note_on_c, 2, 59, 0
4, 317367, Note_on_c, 2, 58, 115
4, 317408, Note_on_c, 2, 58, 0
4, 317428, Note_on_c, 2, 58, 103
4, 317461, Note_on_c, 2, 58, 0
4, 317496, Note_on_c, 2, 59, 117
4, 317531, Note_on_c, 2, 59, 0
4, 317548, Note_on_c, 2, 59, 101
4, 317585, Note_on_c, 2, 59, 0
4, 317628, Note_on_c, 2, 64, 116
4, 317658, Note_on_c, 2, 64, 0
4, 317669, Note_on_c, 2, 64, 94
4, 317704, Note_on_c, 2, 64, 0
4, 317743, Note_on_c, 2, 67, 120
4, 317977, Note_on_c, 2, 68, 121
4, 317993, Note_on_c, 2, 67, 0
4, 318048, Note_on_c, 2, 68, 0
4, 318199, Note_on_c, 2, 80, 119
4, 318202, Note_on_c, 2, 71, 113
4, 318235, Note_on_c, 2, 71, 0
4, 318254, Note_on_c, 2, 80, 0
4, 318439, Note_on_c, 2, 80, 119
4, 318441, Note_on_c, 2, 71, 118
4, 318505, Note_on_c, 2, 80, 0
4, 318506, Note_on_c, 2, 71, 0
4, 318691, Note_on_c, 2, 59, 113
4, 318729, Note_on_c, 2, 59, 0
4, 318741, Note_on_c, 2, 59, 91
4, 318783, Note_on_c, 2, 59, 0
4, 318801, Note_on_c, 2, 58, 118
4, 318839, Note_on_c, 2, 58, 0
4, 318858, Note_on_c, 2, 58, 107
4, 318883, Note_on_c, 2, 58, 0
4, 318912, Note_on_c, 2, 59, 113
4, 318949, Note_on_c, 2, 59, 0
4, 318962, Note_on_c, 2, 59, 100
4, 319001, Note_on_c, 2, 59, 0
4, 319047, Note_on_c, 2, 65, 120
4, 319085, Note_on_c, 2, 65, 0
4, 319172, Note_on_c, 2, 68, 118
4, 319391, Note_on_c, 2, 68, 0
4, 319402, Note_on_c, 2, 69, 120
4, 319479, Note_on_c, 2, 69, 0
4, 319622, Note_on_c, 2, 69, 118
4, 319627, Note_on_c, 2, 81, 121
4, 319699, Note_on_c, 2, 81, 0
4, 319722, Note_on_c, 2, 69, 0
4, 319879, Note_on_c, 2, 69, 98
4, 320117, Note_on_c, 2, 70, 123
4, 320140, Note_on_c, 2, 69, 0
4, 320168, Note_on_c, 2, 70, 0
4, 320354, Note_on_c, 2, 82, 119
4, 320354, Note_on_c, 2, 70, 124
4, 320417, Note_on_c, 2, 82, 0
4, 320428, Note_on_c, 2, 70, 0
4, 320587, Note_on_c, 2, 70, 108
4, 320821, Note_on_c, 2, 71, 111
4, 320832, Note_on_c, 2, 70, 0
4, 320874, Note_on_c, 2, 71, 0
4, 321037, Note_on_c, 2, 66, 125
4, 321059, Note_on_c, 2, 75, 96
4, 321096, Note_on_c, 2, 83, 102
4, 321169, Note_on_c, 2, 66, 0
4, 321184, Note_on_c, 2, 75, 0
4, 321243, Note_on_c, 2, 83, 0
4, 321298, Note_on_c, 2, 83, 126
4, 321332, Note_on_c, 2, 83, 0
4, 321353, Note_on_c, 2, 83, 91
4, 321393, Note_on_c, 2, 83, 0
4, 321406, Note_on_c, 2, 83, 101
4, 321440, Note_on_c, 2, 83, 0
4, 321458, Note_on_c, 2, 83, 112
4, 321493, Note_on_c, 2, 83, 0
4, 321534, Note_on_c, 2, 84, 127
4, 321651, Note_on_c, 2, 84, 0
4, 321693, Note_on_c, 2, 84, 114
4, 321763, Note_on_c, 2, 84, 0
4, 321803, Note_on_c, 2, 84, 112
4, 321840, Note_on_c, 2, 84, 0
4, 321852, Note_on_c, 2, 84, 89
4, 321882, Note_on_c, 2, 84, 0
4, 321926, Note_on_c, 2, 84, 109
4, 321995, Note_on_c, 2, 84, 0
4, 322049, Note_on_c, 2, 84, 127
4, 322089, Note_on_c, 2, 84, 0
4, 322112, Note_on_c, 2, 84, 102
4, 322141, Note_on_c, 2, 84, 0
4, 322166, Note_on_c, 2, 84, 103
4, 322191, Note_on_c, 2, 84, 0
4, 322210, Note_on_c, 2, 84, 95
4, 322246, Note_on_c, 2, 84, 0
4, 322277, Note_on_c, 2, 78, 125
4, 322311, Note_on_c, 2, 78, 0
4, 322327, Note_on_c, 2, 78, 92
4, 322360, Note_on_c, 2, 78, 0
4, 322387, Note_on_c, 2, 78, 88
4, 322455, Note_on_c, 2, 78, 0
4, 322503, Note_on_c, 2, 76, 124
4, 322539, Note_on_c, 2, 76, 0
4, 322574, Note_on_c, 2, 76, 97
4, 322601, Note_on_c, 2, 76, 0
4, 322613, Note_on_c, 2, 76, 82
4, 322699, Note_on_c, 2, 76, 0
4, 322733, Note_on_c, 2, 75, 126
4, 322764, Note_on_c, 2, 75, 0
4, 322786, Note_on_c, 2, 75, 97
4, 322825, Note_on_c, 2, 75, 0
4, 322852, Note_on_c, 2, 75, 76
4, 322898, Note_on_c, 2, 75, 0
4, 322965, Note_on_c, 2, 83, 124
4, 323001, Note_on_c, 2, 83, 0
4, 323029, Note_on_c, 2, 83, 90
4, 323112, Note_on_c, 2, 83, 0
4, 323128, Note_on_c, 2, 83, 103
4, 323160, Note_on_c, 2, 83, 0
4, 323208, Note_on_c, 2, 84, 126
4, 323244, Note_on_c, 2, 84, 0
4, 323265, Note_on_c, 2, 84, 113
4, 323304, Note_on_c, 2, 84, 0
4, 323331, Note_on_c, 2, 84, 101
4, 323401, Note_on_c, 2, 84, 0
4, 323457, Note_on_c, 2, 84, 126
4, 323494, Note_on_c, 2, 84, 0
4, 323509, Note_on_c, 2, 84, 100
4, 323543, Note_on_c, 2, 84, 0
4, 323574, Note_on_c, 2, 84, 88
4, 323604, Note_on_c, 2, 84, 0
4, 323614, Note_on_c, 2, 84, 73
4, 323648, Note_on_c, 2, 84, 0
4, 323702, Note_on_c, 2, 78, 123
4, 323735, Note_on_c, 2, 78, 0
4, 323759, Note_on_c, 2, 78, 84
4, 323778, Note_on_c, 2, 78, 0
4, 323820, Note_on_c, 2, 78, 103
4, 323885, Note_on_c, 2, 78, 0
4, 323932, Note_on_c, 2, 76, 116
4, 323967, Note_on_c, 2, 76, 0
4, 323984, Note_on_c, 2, 76, 102
4, 324019, Note_on_c, 2, 76, 0
4, 324049, Note_on_c, 2, 76, 111
4, 324081, Note_on_c, 2, 76, 0
4, 324093, Note_on_c, 2, 76, 91
4, 324129, Note_on_c, 2, 76, 0
4, 324162, Note_on_c, 2, 74, 113
4, 324194, Note_on_c, 2, 74, 0
4, 324206, Note_on_c, 2, 74, 109
4, 324245, Note_on_c, 2, 74, 0
4, 324273, Note_on_c, 2, 74, 108
4, 324313, Note_on_c, 2, 74, 0
4, 324319, Note_on_c, 2, 74, 96
4, 324357, Note_on_c, 2, 74, 0
4, 324398, Note_on_c, 2, 83, 107
4, 324487, Note_on_c, 2, 83, 0
4, 324499, Note_on_c, 2, 83, 104
4, 324539, Note_on_c, 2, 83, 0
4, 324547, Note_on_c, 2, 83, 111
4, 324596, Note_on_c, 2, 83, 0
4, 324625, Note_on_c, 2, 74, 116
4, 324660, Note_on_c, 2, 74, 0
4, 324674, Note_on_c, 2, 74, 107
4, 324710, Note_on_c, 2, 74, 0
4, 324739, Note_on_c, 2, 74, 106
4, 324806, Note_on_c, 2, 74, 0
4, 324855, Note_on_c, 2, 72, 124
4, 324889, Note_on_c, 2, 72, 0
4, 324908, Note_on_c, 2, 72, 101
4, 324939, Note_on_c, 2, 72, 0
4, 324962, Note_on_c, 2, 72, 112
4, 324993, Note_on_c, 2, 72, 0
4, 325005, Note_on_c, 2, 72, 92
4, 325038, Note_on_c, 2, 72, 0
4, 325077, Note_on_c, 2, 81, 124
4, 325107, Note_on_c, 2, 81, 0
4, 325144, Note_on_c, 2, 81, 110
4, 325208, Note_on_c, 2, 81, 0
4, 325231, Note_on_c, 2, 81, 106
4, 325285, Note_on_c, 2, 81, 0
4, 325308, Note_on_c, 2, 72, 112
4, 325345, Note_on_c, 2, 72, 0
4, 325354, Note_on_c, 2, 72, 88
4, 325393, Note_on_c, 2, 72, 0
4, 325423, Note_on_c, 2, 72, 102
4, 325495, Note_on_c, 2, 72, 0
4, 325547, Note_on_c, 2, 71, 126
4, 325597, Note_on_c, 2, 71, 0
4, 325761, Note_on_c, 2, 64, 114
4, 325792, Note_on_c, 2, 71, 111
4, 325827, Note_on_c, 2, 79, 118
4, 325962, Note_on_c, 2, 79, 0
4, 325975, Note_on_c, 2, 71, 0
4, 325998, Note_on_c, 2, 64, 0
4, 327233, Note_on_c, 2, 76, 39
4, 328391, Note_on_c, 2, 76, 0
4, 328895, Note_on_c, 2, 76, 29
4, 330076, Note_on_c, 2, 76, 0
4, 330324, Note_on_c, 2, 76, 125
4, 330361, Note_on_c, 2, 76, 0
4, 330396, Note_on_c, 2, 76, 98
4, 330467, Note_on_c, 2, 76, 0
4, 330511, Note_on_c, 2, 76, 90
4, 330545, Note_on_c, 2, 76, 0
4, 330571, Note_on_c, 2, 75, 121
4, 330603, Note_on_c, 2, 75, 0
4, 330642, Note_on_c, 2, 75, 84
4, 330714, Note_on_c, 2, 75, 0
4, 330736, Note_on_c, 2, 75, 112
4, 330767, Note_on_c, 2, 75, 0
4, 330806, Note_on_c, 2, 78, 127
4, 330836, Note_on_c, 2, 78, 0
4, 330866, Note_on_c, 2, 78, 90
4, 330899, Note_on_c, 2, 78, 0
4, 330916, Note_on_c, 2, 78, 103
4, 330938, Note_on_c, 2, 78, 0
4, 330968, Note_on_c, 2, 78, 101
4, 331000, Note_on_c, 2, 78, 0
4, 331037, Note_on_c, 2, 76, 124
4, 331071, Note_on_c, 2, 76, 0
4, 331102, Note_on_c, 2, 76, 98
4, 331174, Note_on_c, 2, 76, 0
4, 331210, Note_on_c, 2, 76, 94
4, 331245, Note_on_c, 2, 76, 0
4, 331269, Note_on_c, 2, 81, 125
4, 331301, Note_on_c, 2, 81, 0
4, 331328, Note_on_c, 2, 81, 101
4, 331403, Note_on_c, 2, 81, 0
4, 331426, Note_on_c, 2, 81, 102
4, 331464, Note_on_c, 2, 81, 0
4, 331497, Note_on_c, 2, 79, 124
4, 331534, Note_on_c, 2, 79, 0
4, 331562, Note_on_c, 2, 79, 86
4, 331629, Note_on_c, 2, 79, 0
4, 331652, Note_on_c, 2, 79, 96
4, 331691, Note_on_c, 2, 79, 0
4, 331730, Note_on_c, 2, 83, 122
4, 331762, Note_on_c, 2, 83, 0
4, 331793, Note_on_c, 2, 83, 77
4, 331829, Note_on_c, 2, 83, 0
4, 331841, Note_on_c, 2, 83, 97
4, 331877, Note_on_c, 2, 83, 0
4, 331891, Note_on_c, 2, 83, 99
4, 331928, Note_on_c, 2, 83, 0
4, 331961, Note_on_c, 2, 83, 118
4, 331998, Note_on_c, 2, 83, 0
4, 332006, Note_on_c, 2, 83, 70
4, 332043, Note_on_c, 2, 83, 0
4, 332083, Note_on_c, 2, 91, 120
4, 332117, Note_on_c, 2, 91, 0
4, 332135, Note_on_c, 2, 91, 92
4, 332163, Note_on_c, 2, 91, 0
4, 332185, Note_on_c, 2, 91, 109
4, 332264, Note_on_c, 2, 91, 0
4, 332297, Note_on_c, 2, 90, 118
4, 332373, Note_on_c, 2, 90, 0
4, 332414, Note_on_c, 2, 88, 103
4, 332495, Note_on_c, 2, 88, 0
4, 332528, Note_on_c, 2, 87, 113
4, 332598, Note_on_c, 2, 87, 0
4, 332646, Note_on_c, 2, 88, 96
4, 332677, Note_on_c, 2, 88, 0
4, 332700, Note_on_c, 2, 88, 97
4, 332739, Note_on_c, 2, 88, 0
4, 332768, Note_on_c, 2, 91, 114
4, 332802, Note_on_c, 2, 91, 0
4, 332836, Note_on_c, 2, 91, 59
4, 332859, Note_on_c, 2, 91, 0
4, 332876, Note_on_c, 2, 91, 114
4, 332913, Note_on_c, 2, 91, 0
4, 332933, Note_on_c, 2, 91, 104
4, 332969, Note_on_c, 2, 91, 0
4, 332994, Note_on_c, 2, 90, 119
4, 333027, Note_on_c, 2, 90, 0
4, 333044, Note_on_c, 2, 90, 107
4, 333078, Note_on_c, 2, 90, 0
4, 333112, Note_on_c, 2, 88, 106
4, 333144, Note_on_c, 2, 88, 0
4, 333155, Note_on_c, 2, 88, 69
4, 333195, Note_on_c, 2, 88, 0
4, 333216, Note_on_c, 2, 87, 114
4, 333250, Note_on_c, 2, 87, 0
4, 333267, Note_on_c, 2, 87, 99
4, 333300, Note_on_c, 2, 87, 0
4, 333340, Note_on_c, 2, 88, 125
4, 333373, Note_on_c, 2, 88, 0
4, 333394, Note_on_c, 2, 88, 98
4, 333472, Note_on_c, 2, 88, 0
4, 333495, Note_on_c, 2, 88, 103
4, 333535, Note_on_c, 2, 88, 0
4, 333577, Note_on_c, 2, 79, 121
4, 333608, Note_on_c, 2, 79, 0
4, 333626, Note_on_c, 2, 79, 100
4, 333661, Note_on_c, 2, 79, 0
4, 333678, Note_on_c, 2, 79, 85
4, 333700, Note_on_c, 2, 79, 0
4, 333724, Note_on_c, 2, 79, 92
4, 333760, Note_on_c, 2, 79, 0
4, 333798, Note_on_c, 2, 78, 124
4, 333829, Note_on_c, 2, 78, 0
4, 333850, Note_on_c, 2, 78, 105
4, 333889, Note_on_c, 2, 78, 0
4, 333909, Note_on_c, 2, 78, 99
4, 333932, Note_on_c, 2, 78, 0
4, 333953, Note_on_c, 2, 78, 107
4, 333983, Note_on_c, 2, 78, 0
4, 334035, Note_on_c, 2, 84, 126
4, 334067, Note_on_c, 2, 84, 0
4, 334099, Note_on_c, 2, 84, 88
4, 334163, Note_on_c, 2, 84, 0
4, 334193, Note_on_c, 2, 84, 98
4, 334233, Note_on_c, 2, 84, 0
4, 334258, Note_on_c, 2, 83, 117
4, 334292, Note_on_c, 2, 83, 0
4, 334314, Note_on_c, 2, 83, 96
4, 334396, Note_on_c, 2, 83, 0
4, 334410, Note_on_c, 2, 83, 84
4, 334449, Note_on_c, 2, 83, 0
4, 334495, Note_on_c, 2, 88, 125
4, 334531, Note_on_c, 2, 88, 0
4, 334552, Note_on_c, 2, 88, 102
4, 334591, Note_on_c, 2, 88, 0
4, 334613, Note_on_c, 2, 88, 99
4, 334688, Note_on_c, 2, 88, 0
4, 334731, Note_on_c, 2, 88, 122
4, 334768, Note_on_c, 2, 88, 0
4, 334786, Note_on_c, 2, 88, 97
4, 334812, Note_on_c, 2, 88, 0
4, 334859, Note_on_c, 2, 91, 118
4, 334946, Note_on_c, 2, 91, 0
4, 334975, Note_on_c, 2, 91, 120
4, 335059, Note_on_c, 2, 91, 0
4, 335108, Note_on_c, 2, 90, 88
4, 335170, Note_on_c, 2, 90, 0
4, 335226, Note_on_c, 2, 88, 102
4, 335258, Note_on_c, 2, 88, 0
4, 335278, Note_on_c, 2, 88, 57
4, 335318, Note_on_c, 2, 88, 0
4, 335335, Note_on_c, 2, 87, 110
4, 335377, Note_on_c, 2, 87, 0
4, 335384, Note_on_c, 2, 87, 73
4, 335419, Note_on_c, 2, 87, 0
4, 335464, Note_on_c, 2, 88, 124
4, 335498, Note_on_c, 2, 88, 0
4, 335523, Note_on_c, 2, 88, 84
4, 335562, Note_on_c, 2, 88, 0
4, 335595, Note_on_c, 2, 91, 124
4, 335627, Note_on_c, 2, 91, 0
4, 335655, Note_on_c, 2, 91, 84
4, 335690, Note_on_c, 2, 91, 0
4, 335710, Note_on_c, 2, 91, 126
4, 335747, Note_on_c, 2, 91, 0
4, 335766, Note_on_c, 2, 91, 108
4, 335806, Note_on_c, 2, 91, 0
4, 335830, Note_on_c, 2, 90, 118
4, 335863, Note_on_c, 2, 90, 0
4, 335877, Note_on_c, 2, 90, 97
4, 335916, Note_on_c, 2, 90, 0
4, 335956, Note_on_c, 2, 88, 90
4, 335988, Note_on_c, 2, 88, 0
4, 335998, Note_on_c, 2, 88, 82
4, 336038, Note_on_c, 2, 88, 0
4, 336066, Note_on_c, 2, 87, 112
4, 336100, Note_on_c, 2, 87, 0
4, 336118, Note_on_c, 2, 87, 110
4, 336152, Note_on_c, 2, 87, 0
4, 336206, Note_on_c, 2, 88, 126
4, 336241, Note_on_c, 2, 88, 0
4, 336480, Program_c, 2, 45
4, 336480, Control_c, 2, 91, 120
4, 336710, Note_on_c, 2, 68, 37
4, 336772, Note_on_c, 2, 68, 0
4, 336983, Note_on_c, 2, 69, 51
4, 337110, Note_on_c, 2, 69, 0
4, 337440, Program_c, 2, 49
4, 337440, Control_c, 2, 91, 60
4, 337468, Note_on_c, 2, 71, 66
4, 337727, Note_on_c, 2, 72, 65
4, 337748, Note_on_c, 2, 71, 0
4, 337827, Note_on_c, 2, 72, 0
4, 337873, Note_on_c, 2, 72, 59
4, 337948, Note_on_c, 2, 72, 0
4, 337987, Note_on_c, 2, 72, 65
4, 338104, Note_on_c, 2, 71, 79
4, 338162, Note_on_c, 2, 72, 0
4, 338199, Note_on_c, 2, 71, 0
4, 338233, Note_on_c, 2, 71, 69
4, 338342, Note_on_c, 2, 69, 63
4, 338370, Note_on_c, 2, 71, 0
4, 338466, Note_on_c, 2, 69, 0
4, 338483, Note_on_c, 2, 67, 60
4, 338599, Note_on_c, 2, 67, 0
4, 338612, Note_on_c, 2, 72, 66
4, 338696, Note_on_c, 2, 72, 0
4, 338751, Note_on_c, 2, 72, 59
4, 338865, Note_on_c, 2, 71, 58
4, 338901, Note_on_c, 2, 72, 0
4, 338943, Note_on_c, 2, 71, 0
4, 338996, Note_on_c, 2, 71, 56
4, 339122, Note_on_c, 2, 69, 52
4, 339141, Note_on_c, 2, 71, 0
4, 339271, Note_on_c, 2, 69, 0
4, 339272, Note_on_c, 2, 67, 46
4, 339404, Note_on_c, 2, 67, 0
4, 339600, Control_c, 2, 11, 80
4, 339779, Note_on_c, 2, 76, 45
4, 340811, Note_on_c, 2, 72, 37
4, 340898, Note_on_c, 2, 76, 0
4, 341065, Note_on_c, 2, 72, 0
4, 341417, Note_on_c, 2, 66, 40
4, 341665, Note_on_c, 2, 67, 42
4, 341674, Note_on_c, 2, 66, 0
4, 341986, Note_on_c, 2, 66, 37
4, 342058, Note_on_c, 2, 67, 0
4, 342324, Note_on_c, 2, 63, 32
4, 342383, Note_on_c, 2, 66, 0
4, 342695, Note_on_c, 2, 64, 27
4, 342733, Note_on_c, 2, 63, 0
4, 346705, Control_c, 2, 11, 80
4, 346705, Note_on_c, 2, 62, 42
4, 346730, Note_on_c, 2, 64, 0
4, 346821, Control_c, 2, 11, 81
4, 346936, Control_c, 2, 11, 82
4, 347052, Control_c, 2, 11, 83
4, 347167, Control_c, 2, 11, 84
4, 347282, Control_c, 2, 11, 85
4, 347398, Control_c, 2, 11, 86
4, 347513, Control_c, 2, 11, 87
4, 347629, Control_c, 2, 11, 88
4, 347744, Control_c, 2, 11, 89
4, 347852, Note_on_c, 2, 69, 52
4, 347859, Control_c, 2, 11, 90
4, 347891, Note_on_c, 2, 62, 0
4, 347975, Control_c, 2, 11, 91
4, 348090, Control_c, 2, 11, 92
4, 348206, Control_c, 2, 11, 93
4, 348321, Control_c, 2, 11, 94
4, 348436, Control_c, 2, 11, 95
4, 348552, Control_c, 2, 11, 96
4, 348667, Control_c, 2, 11, 97
4, 348783, Control_c, 2, 11, 98
4, 348898, Control_c, 2, 11, 99
4, 349013, Control_c, 2, 11, 100
4, 349014, Note_on_c, 2, 67, 48
4, 349060, Note_on_c, 2, 69, 0
4, 349200, Control_c, 2, 11, 100
4, 349257, Control_c, 2, 11, 99
4, 349314, Control_c, 2, 11, 98
4, 349371, Control_c, 2, 11, 97
4, 349428, Control_c, 2, 11, 96
4, 349485, Control_c, 2, 11, 95
4, 349542, Control_c, 2, 11, 94
4, 349599, Control_c, 2, 11, 93
4, 349656, Control_c, 2, 11, 92
4, 349713, Control_c, 2, 11, 91
4, 349769, Control_c, 2, 11, 90
4, 349826, Control_c, 2, 11, 89
4, 349883, Control_c, 2, 11, 88
4, 349940, Control_c, 2, 11, 87
4, 349997, Control_c, 2, 11, 86
4, 350054, Control_c, 2, 11, 85
4, 350111, Control_c, 2, 11, 84
4, 350168, Control_c, 2, 11, 83
4, 350184, Note_on_c, 2, 67, 0
4, 350225, Control_c, 2, 11, 82
4, 350282, Control_c, 2, 11, 81
4, 350338, Control_c, 2, 11, 80
4, 350339, Note_on_c, 2, 67, 47
4, 350538, Note_on_c, 2, 67, 0
4, 350541, Control_c, 2, 11, 80
4, 350541, Note_on_c, 2, 65, 39
4, 350654, Control_c, 2, 11, 79
4, 350767, Control_c, 2, 11, 78
4, 350880, Control_c, 2, 11, 77
4, 350993, Control_c, 2, 11, 76
4, 351106, Control_c, 2, 11, 75
4, 351219, Control_c, 2, 11, 74
4, 351332, Control_c, 2, 11, 73
4, 351445, Control_c, 2, 11, 72
4, 351558, Control_c, 2, 11, 71
4, 351670, Control_c, 2, 11, 70
4, 351783, Control_c, 2, 11, 69
4, 351851, Note_on_c, 2, 64, 33
4, 351896, Control_c, 2, 11, 68
4, 351965, Note_on_c, 2, 65, 0
4, 352009, Control_c, 2, 11, 67
4, 352122, Control_c, 2, 11, 66
4, 352131, Note_on_c, 2, 64, 0
4, 352146, Note_on_c, 2, 64, 29
4, 352235, Control_c, 2, 11, 65
4, 352348, Control_c, 2, 11, 64
4, 352461, Control_c, 2, 11, 63
4, 352574, Control_c, 2, 11, 62
4, 352596, Note_on_c, 2, 64, 0
4, 352687, Control_c, 2, 11, 61
4, 352799, Control_c, 2, 11, 60
4, 355017, Note_on_c, 2, 64, 45
4, 356096, Note_on_c, 2, 65, 43
4, 356183, Note_on_c, 2, 64, 0
4, 357713, Note_on_c, 2, 65, 0
4, 359717, Note_on_c, 2, 65, 53
4, 361024, Control_c, 2, 11, 60
4, 361024, Note_on_c, 2, 64, 45
4, 361096, Note_on_c, 2, 65, 0
4, 361779, Control_c, 2, 11, 59
4, 362050, Control_c, 2, 11, 58
4, 362221, Control_c, 2, 11, 57
4, 362372, Control_c, 2, 11, 56
4, 362463, Control_c, 2, 11, 55
4, 362543, Control_c, 2, 11, 54
4, 362614, Control_c, 2, 11, 53
4, 362684, Control_c, 2, 11, 52
4, 362734, Control_c, 2, 11, 51
4, 362775, Control_c, 2, 11, 50
4, 362815, Control_c, 2, 11, 49
4, 362865, Control_c, 2, 11, 48
4, 362895, Control_c, 2, 11, 47
4, 362936, Control_c, 2, 11, 46
4, 362956, Control_c, 2, 11, 45
4, 362996, Control_c, 2, 11, 44
4, 363026, Control_c, 2, 11, 43
4, 363046, Control_c, 2, 11, 42
4, 363076, Control_c, 2, 11, 41
4, 363097, Control_c, 2, 11, 40
4, 363117, Control_c, 2, 11, 39
4, 363137, Control_c, 2, 11, 38
4, 363167, Control_c, 2, 11, 37
4, 363177, Control_c, 2, 11, 36
4, 363197, Control_c, 2, 11, 35
4, 363217, Control_c, 2, 11, 34
4, 363237, Control_c, 2, 11, 33
4, 363258, Control_c, 2, 11, 32
4, 363268, Control_c, 2, 11, 31
4, 363278, Control_c, 2, 11, 30
4, 363298, Control_c, 2, 11, 29
4, 363318, Control_c, 2, 11, 28
4, 363328, Control_c, 2, 11, 27
4, 363348, Control_c, 2, 11, 26
4, 363358, Control_c, 2, 11, 25
4, 363368, Control_c, 2, 11, 24
4, 363378, Control_c, 2, 11, 23
4, 363398, Control_c, 2, 11, 22
4, 363408, Control_c, 2, 11, 21
4, 363418, Control_c, 2, 11, 20
4, 363429, Control_c, 2, 11, 19
4, 363439, Control_c, 2, 11, 18
4, 363449, Control_c, 2, 11, 17
4, 363459, Control_c, 2, 11, 16
4, 363469, Control_c, 2, 11, 15
4, 363479, Control_c, 2, 11, 14
4, 363489, Control_c, 2, 11, 13
4, 363499, Control_c, 2, 11, 12
4, 363509, Control_c, 2, 11, 11
4, 363519, Control_c, 2, 11, 10
4, 363529, Control_c, 2, 11, 9
4, 363539, Control_c, 2, 11, 8
4, 363549, Control_c, 2, 11, 7
4, 363559, Control_c, 2, 11, 6
4, 363565, Note_on_c, 2, 64, 0
4, 363569, Control_c, 2, 11, 4
4, 363579, Control_c, 2, 11, 3
4, 363589, Control_c, 2, 11, 1
4, 363599, Control_c, 2, 11, 0
4, 364800, Control_c, 2, 11, 60
4, 365034, Note_on_c, 2, 64, 43
4, 366450, Note_on_c, 2, 64, 0
4, 367250, Note_on_c, 2, 64, 65
4, 369174, Note_on_c, 2, 64, 0
4, 370248, Note_on_c, 2, 62, 60
4, 370818, Note_on_c, 2, 62, 0
4, 372365, Note_on_c, 2, 65, 51
4, 373621, Note_on_c, 2, 64, 44
4, 373686, Note_on_c, 2, 65, 0
4, 374154, Note_on_c, 2, 64, 0
4, 374962, Note_on_c, 2, 65, 64
4, 376250, Note_on_c, 2, 64, 58
4, 376330, Note_on_c, 2, 65, 0
4, 376781, Note_on_c, 2, 67, 52
4, 376860, Note_on_c, 2, 64, 0
4, 377825, Note_on_c, 2, 64, 44
4, 377898, Note_on_c, 2, 67, 0
4, 378365, Note_on_c, 2, 64, 0
4, 378407, Note_on_c, 2, 64, 57
4, 379268, Note_on_c, 2, 62, 53
4, 379354, Note_on_c, 2, 64, 0
4, 379829, Note_on_c, 2, 62, 0
4, 379875, Note_on_c, 2, 62, 60
4, 381016, Note_on_c, 2, 60, 62
4, 381048, Note_on_c, 2, 62, 0
4, 381529, Note_on_c, 2, 60, 0
4, 381568, Note_on_c, 2, 69, 67
4, 381600, Control_c, 2, 11, 60
4, 381672, Control_c, 2, 11, 59
4, 381744, Control_c, 2, 11, 58
4, 381816, Control_c, 2, 11, 57
4, 381888, Control_c, 2, 11, 56
4, 381960, Control_c, 2, 11, 55
4, 382032, Control_c, 2, 11, 54
4, 382104, Control_c, 2, 11, 53
4, 382176, Control_c, 2, 11, 52
4, 382248, Control_c, 2, 11, 51
4, 382320, Control_c, 2, 11, 50
4, 382392, Control_c, 2, 11, 49
4, 382464, Control_c, 2, 11, 48
4, 382536, Control_c, 2, 11, 47
4, 382608, Control_c, 2, 11, 46
4, 382680, Control_c, 2, 11, 45
4, 382752, Control_c, 2, 11, 44
4, 382824, Control_c, 2, 11, 43
4, 382896, Control_c, 2, 11, 42
4, 382968, Control_c, 2, 11, 41
4, 383040, Control_c, 2, 11, 40
4, 383112, Control_c, 2, 11, 39
4, 383184, Control_c, 2, 11, 38
4, 383256, Control_c, 2, 11, 37
4, 383328, Control_c, 2, 11, 36
4, 383400, Control_c, 2, 11, 35
4, 383472, Control_c, 2, 11, 34
4, 383544, Control_c, 2, 11, 33
4, 383616, Control_c, 2, 11, 32
4, 383669, Note_on_c, 2, 64, 84
4, 383686, Note_on_c, 2, 69, 0
4, 383688, Control_c, 2, 11, 31
4, 383759, Control_c, 2, 11, 30
4, 383978, Note_on_c, 2, 64, 0
4, 384480, Control_c, 2, 11, 80
4, 384480, Program_c, 2, 45
4, 384480, Control_c, 2, 91, 120
4, 384561, Note_on_c, 2, 69, 63
4, 384592, Note_on_c, 2, 69, 0
4, 384720, Note_on_c, 2, 68, 69
4, 384753, Note_on_c, 2, 68, 0
4, 385366, Note_on_c, 2, 69, 76
4, 385405, Note_on_c, 2, 69, 0
4, 385515, Note_on_c, 2, 68, 82
4, 385549, Note_on_c, 2, 68, 0
4, 387241, Note_on_c, 2, 68, 73
4, 387285, Note_on_c, 2, 68, 0
4, 388005, Note_on_c, 2, 68, 72
4, 388037, Note_on_c, 2, 68, 0
4, 388158, Note_on_c, 2, 68, 87
4, 388197, Note_on_c, 2, 68, 0
4, 388838, Note_on_c, 2, 68, 79
4, 388866, Note_on_c, 2, 68, 0
4, 388981, Note_on_c, 2, 68, 85
4, 389006, Note_on_c, 2, 68, 0
4, 390240, Program_c, 2, 49
4, 390240, Control_c, 2, 91, 60
4, 390456, Note_on_c, 2, 68, 63
4, 390715, Note_on_c, 2, 71, 67
4, 390731, Note_on_c, 2, 68, 0
4, 391217, Note_on_c, 2, 69, 71
4, 391222, Note_on_c, 2, 71, 0
4, 391369, Note_on_c, 2, 72, 78
4, 391445, Note_on_c, 2, 69, 0
4, 391496, Note_on_c, 2, 71, 68
4, 391543, Note_on_c, 2, 72, 0
4, 391650, Note_on_c, 2, 67, 48
4, 391659, Note_on_c, 2, 71, 0
4, 391834, Note_on_c, 2, 67, 0
4, 393120, Program_c, 2, 45
4, 393120, Control_c, 2, 91, 120
4, 393897, Note_on_c, 2, 72, 67
4, 393923, Note_on_c, 2, 72, 0
4, 394049, Note_on_c, 2, 73, 69
4, 394075, Note_on_c, 2, 73, 0
4, 394329, Program_c, 2, 49
4, 394329, Control_c, 2, 91, 60
4, 394329, Note_on_c, 2, 76, 80
4, 394663, Note_on_c, 2, 75, 85
4, 394677, Note_on_c, 2, 76, 0
4, 394828, Note_on_c, 2, 73, 79
4, 394854, Note_on_c, 2, 75, 0
4, 394958, Note_on_c, 2, 71, 63
4, 394990, Note_on_c, 2, 73, 0
4, 395149, Note_on_c, 2, 71, 0
4, 395806, Note_on_c, 2, 70, 46
4, 396097, Note_on_c, 2, 71, 59
4, 396122, Note_on_c, 2, 70, 0
4, 396371, Note_on_c, 2, 73, 68
4, 396431, Note_on_c, 2, 71, 0
4, 396632, Note_on_c, 2, 75, 78
4, 396689, Note_on_c, 2, 73, 0
4, 396886, Note_on_c, 2, 76, 88
4, 396917, Note_on_c, 2, 75, 0
4, 397448, Note_on_c, 2, 75, 79
4, 397502, Note_on_c, 2, 76, 0
4, 398365, Note_on_c, 2, 73, 75
4, 398404, Note_on_c, 2, 75, 0
4, 399190, Note_on_c, 2, 72, 72
4, 399233, Note_on_c, 2, 73, 0
4, 400892, Note_on_c, 2, 72, 0
4, 400909, Note_on_c, 2, 73, 65
4, 401818, Note_on_c, 2, 71, 62
4, 401891, Note_on_c, 2, 73, 0
4, 402664, Note_on_c, 2, 70, 60
4, 402738, Note_on_c, 2, 71, 0
4, 404543, Note_on_c, 2, 71, 58
4, 404553, Note_on_c, 2, 70, 0
4, 404640, Program_c, 2, 45
4, 404640, Control_c, 2, 91, 120
4, 404762, Note_on_c, 2, 71, 0
4, 405320, Note_on_c, 2, 70, 68
4, 405350, Note_on_c, 2, 70, 0
4, 405478, Note_on_c, 2, 71, 71
4, 405512, Note_on_c, 2, 71, 0
4, 406186, Note_on_c, 2, 70, 72
4, 406213, Note_on_c, 2, 70, 0
4, 406339, Note_on_c, 2, 71, 65
4, 406368, Note_on_c, 2, 71, 0
4, 408085, Note_on_c, 2, 72, 71
4, 408130, Note_on_c, 2, 72, 0
4, 408885, Note_on_c, 2, 72, 76
4, 408924, Note_on_c, 2, 72, 0
4, 409049, Note_on_c, 2, 72, 78
4, 409079, Note_on_c, 2, 72, 0
4, 409715, Note_on_c, 2, 72, 74
4, 409752, Note_on_c, 2, 72, 0
4, 409875, Note_on_c, 2, 72, 78
4, 409903, Note_on_c, 2, 72, 0
4, 411494, Program_c, 2, 49
4, 411494, Control_c, 2, 91, 60
4, 411494, Note_on_c, 2, 66, 85
4, 411827, Note_on_c, 2, 67, 63
4, 411849, Note_on_c, 2, 66, 0
4, 412576, Note_on_c, 2, 66, 71
4, 412612, Note_on_c, 2, 67, 0
4, 412726, Note_on_c, 2, 64, 67
4, 412777, Note_on_c, 2, 66, 0
4, 412882, Note_on_c, 2, 62, 61
4, 412888, Note_on_c, 2, 64, 0
4, 413101, Note_on_c, 2, 62, 0
4, 414720, Program_c, 2, 45
4, 414720, Control_c, 2, 91, 120
4, 415325, Note_on_c, 2, 67, 71
4, 415347, Note_on_c, 2, 67, 0
4, 415474, Note_on_c, 2, 68, 77
4, 415503, Note_on_c, 2, 68, 0
4, 415767, Program_c, 2, 49
4, 415767, Control_c, 2, 91, 120
4, 415767, Note_on_c, 2, 71, 55
4, 416109, Note_on_c, 2, 70, 64
4, 416140, Note_on_c, 2, 71, 0
4, 416271, Note_on_c, 2, 68, 63
4, 416315, Note_on_c, 2, 70, 0
4, 416422, Note_on_c, 2, 66, 58
4, 416452, Note_on_c, 2, 68, 0
4, 416649, Note_on_c, 2, 66, 0
4, 417227, Note_on_c, 2, 65, 60
4, 417565, Note_on_c, 2, 66, 65
4, 417569, Note_on_c, 2, 65, 0
4, 417841, Note_on_c, 2, 68, 72
4, 417871, Note_on_c, 2, 66, 0
4, 418126, Note_on_c, 2, 70, 83
4, 418146, Note_on_c, 2, 68, 0
4, 418404, Note_on_c, 2, 70, 0
4, 418407, Note_on_c, 2, 71, 88
4, 418958, Note_on_c, 2, 70, 76
4, 418999, Note_on_c, 2, 71, 0
4, 419871, Note_on_c, 2, 68, 65
4, 419921, Note_on_c, 2, 70, 0
4, 422352, Note_on_c, 2, 67, 74
4, 422385, Note_on_c, 2, 68, 0
4, 422636, Note_on_c, 2, 67, 0
4, 422650, Note_on_c, 2, 68, 73
4, 423609, Note_on_c, 2, 66, 82
4, 423631, Note_on_c, 2, 68, 0
4, 426066, Note_on_c, 2, 65, 63
4, 426115, Note_on_c, 2, 66, 0
4, 426352, Note_on_c, 2, 66, 73
4, 426399, Note_on_c, 2, 65, 0
4, 426701, Note_on_c, 2, 66, 0
4, 427062, Note_on_c, 2, 74, 75
4, 427332, Note_on_c, 2, 74, 0
4, 427371, Note_on_c, 2, 74, 85
4, 428003, Note_on_c, 2, 73, 81
4, 428065, Note_on_c, 2, 74, 0
4, 428277, Note_on_c, 2, 73, 0
4, 428309, Note_on_c, 2, 73, 90
4, 428861, Note_on_c, 2, 71, 83
4, 428902, Note_on_c, 2, 73, 0
4, 429128, Note_on_c, 2, 71, 0
4, 429188, Note_on_c, 2, 71, 80
4, 429837, Note_on_c, 2, 69, 69
4, 429870, Note_on_c, 2, 71, 0
4, 430072, Note_on_c, 2, 69, 0
4, 430113, Note_on_c, 2, 69, 66
4, 430716, Note_on_c, 2, 67, 65
4, 430738, Note_on_c, 2, 69, 0
4, 430930, Note_on_c, 2, 67, 0
4, 431019, Note_on_c, 2, 67, 75
4, 431622, Note_on_c, 2, 66, 71
4, 431667, Note_on_c, 2, 67, 0
4, 431924, Note_on_c, 2, 64, 79
4, 431962, Note_on_c, 2, 66, 0
4, 432217, Note_on_c, 2, 64, 0
4, 432510, Note_on_c, 2, 71, 78
4, 432795, Note_on_c, 2, 70, 61
4, 432826, Note_on_c, 2, 71, 0
4, 433077, Note_on_c, 2, 70, 0
4, 433385, Note_on_c, 2, 73, 71
4, 433666, Note_on_c, 2, 71, 70
4, 433681, Note_on_c, 2, 73, 0
4, 433865, Note_on_c, 2, 71, 0
4, 434218, Note_on_c, 2, 66, 63
4, 434543, Note_on_c, 2, 65, 65
4, 434569, Note_on_c, 2, 66, 0
4, 434720, Note_on_c, 2, 65, 0
4, 435065, Note_on_c, 2, 73, 67
4, 435356, Note_on_c, 2, 73, 0
4, 435371, Note_on_c, 2, 69, 89
4, 435698, Note_on_c, 2, 69, 0
4, 436323, Note_on_c, 2, 69, 91
4, 436573, Note_on_c, 2, 69, 0
4, 437283, Note_on_c, 2, 69, 92
4, 437594, Note_on_c, 2, 69, 0
4, 438243, Note_on_c, 2, 69, 67
4, 440167, Note_on_c, 2, 67, 71
4, 440241, Note_on_c, 2, 69, 0
4, 442197, Note_on_c, 2, 64, 61
4, 442226, Note_on_c, 2, 64, 0
4, 442339, Note_on_c, 2, 67, 0
4, 442911, Note_on_c, 2, 71, 50
4, 443718, Note_on_c, 2, 72, 55
4, 443740, Note_on_c, 2, 71, 0
4, 444490, Note_on_c, 2, 73, 59
4, 444533, Note_on_c, 2, 72, 0
4, 445277, Note_on_c, 2, 74, 64
4, 445375, Note_on_c, 2, 73, 0
4, 446079, Note_on_c, 2, 75, 81
4, 446216, Note_on_c, 2, 74, 0
4, 446863, Note_on_c, 2, 75, 0
4, 447120, Program_c, 2, 45
4, 447120, Control_c, 2, 91, 120
4, 447802, Note_on_c, 2, 69, 61
4, 447836, Note_on_c, 2, 69, 0
4, 449308, Note_on_c, 2, 69, 68
4, 449347, Note_on_c, 2, 69, 0
4, 450068, Note_on_c, 2, 69, 72
4, 450100, Note_on_c, 2, 69, 0
4, 450841, Note_on_c, 2, 69, 75
4, 450876, Note_on_c, 2, 69, 0
4, 452160, Control_c, 2, 11, 100
4, 452160, Program_c, 2, 49
4, 452160, Control_c, 2, 91, 60
4, 452219, Note_on_c, 2, 59, 106
4, 452257, Note_on_c, 2, 59, 0
4, 452262, Note_on_c, 2, 60, 104
4, 452280, Note_on_c, 2, 59, 101
4, 452304, Note_on_c, 2, 60, 0
4, 452322, Note_on_c, 2, 60, 96
4, 452327, Note_on_c, 2, 59, 0
4, 452350, Note_on_c, 2, 59, 92
4, 452376, Note_on_c, 2, 60, 0
4, 452397, Note_on_c, 2, 58, 98
4, 452416, Note_on_c, 2, 59, 0
4, 452442, Note_on_c, 2, 59, 90
4, 452466, Note_on_c, 2, 58, 0
4, 452506, Note_on_c, 2, 64, 125
4, 452538, Note_on_c, 2, 59, 0
4, 452898, Note_on_c, 2, 63, 107
4, 452906, Note_on_c, 2, 64, 0
4, 453047, Note_on_c, 2, 64, 98
4, 453070, Note_on_c, 2, 63, 0
4, 453175, Note_on_c, 2, 67, 89
4, 453185, Note_on_c, 2, 64, 0
4, 453326, Note_on_c, 2, 71, 103
4, 453344, Note_on_c, 2, 67, 0
4, 453413, Note_on_c, 2, 71, 0
4, 453619, Note_on_c, 2, 71, 116
4, 453673, Note_on_c, 2, 71, 0
4, 453896, Note_on_c, 2, 71, 118
4, 454003, Note_on_c, 2, 71, 0
4, 454189, Note_on_c, 2, 76, 116
4, 454479, Note_on_c, 2, 75, 114
4, 454504, Note_on_c, 2, 76, 0
4, 454615, Note_on_c, 2, 76, 118
4, 454644, Note_on_c, 2, 75, 0
4, 454758, Note_on_c, 2, 78, 118
4, 454767, Note_on_c, 2, 76, 0
4, 454976, Note_on_c, 2, 76, 109
4, 454997, Note_on_c, 2, 78, 0
4, 455019, Note_on_c, 2, 76, 0
4, 455039, Note_on_c, 2, 76, 114
4, 455326, Note_on_c, 2, 75, 119
4, 455359, Note_on_c, 2, 76, 0
4, 455442, Note_on_c, 2, 75, 0
4, 455623, Note_on_c, 2, 83, 120
4, 455841, Note_on_c, 2, 81, 109
4, 455858, Note_on_c, 2, 83, 0
4, 455910, Note_on_c, 2, 79, 108
4, 455940, Note_on_c, 2, 81, 0
4, 456028, Note_on_c, 2, 79, 0
4, 456217, Note_on_c, 2, 79, 120
4, 456446, Note_on_c, 2, 78, 109
4, 456462, Note_on_c, 2, 79, 0
4, 456498, Note_on_c, 2, 76, 111
4, 456519, Note_on_c, 2, 78, 0
4, 456639, Note_on_c, 2, 76, 0
4, 456788, Note_on_c, 2, 76, 118
4, 457016, Note_on_c, 2, 74, 94
4, 457024, Note_on_c, 2, 76, 0
4, 457081, Note_on_c, 2, 72, 100
4, 457108, Note_on_c, 2, 74, 0
4, 457376, Note_on_c, 2, 71, 87
4, 457410, Note_on_c, 2, 72, 0
4, 457958, Note_on_c, 2, 72, 83
4, 457980, Note_on_c, 2, 71, 0
4, 458108, Note_on_c, 2, 71, 76
4, 458139, Note_on_c, 2, 72, 0
4, 458259, Note_on_c, 2, 67, 68
4, 458281, Note_on_c, 2, 71, 0
4, 458488, Note_on_c, 2, 67, 0
4, 458493, Note_on_c, 2, 64, 76
4, 458562, Note_on_c, 2, 67, 75
4, 458578, Note_on_c, 2, 64, 0
4, 458851, Note_on_c, 2, 66, 78
4, 458866, Note_on_c, 2, 67, 0
4, 458978, Note_on_c, 2, 66, 0
4, 459159, Note_on_c, 2, 68, 127
4, 459251, Note_on_c, 2, 69, 81
4, 459252, Note_on_c, 2, 68, 0
4, 459301, Note_on_c, 2, 68, 103
4, 459312, Note_on_c, 2, 69, 0
4, 459345, Note_on_c, 2, 69, 100
4, 459349, Note_on_c, 2, 68, 0
4, 459387, Note_on_c, 2, 68, 106
4, 459401, Note_on_c, 2, 69, 0
4, 459433, Note_on_c, 2, 66, 104
4, 459438, Note_on_c, 2, 68, 0
4, 459471, Note_on_c, 2, 68, 90
4, 459483, Note_on_c, 2, 66, 0
4, 459496, Note_on_c, 2, 69, 99
4, 459521, Note_on_c, 2, 68, 0
4, 459938, Note_on_c, 2, 68, 114
4, 459965, Note_on_c, 2, 69, 0
4, 460074, Note_on_c, 2, 69, 116
4, 460078, Note_on_c, 2, 68, 0
4, 460191, Note_on_c, 2, 69, 0
4, 460200, Note_on_c, 2, 72, 118
4, 460333, Note_on_c, 2, 72, 0
4, 460338, Note_on_c, 2, 76, 116
4, 460402, Note_on_c, 2, 76, 0
4, 460618, Note_on_c, 2, 76, 120
4, 460728, Note_on_c, 2, 76, 0
4, 460907, Note_on_c, 2, 76, 120
4, 461035, Note_on_c, 2, 76, 0
4, 461201, Note_on_c, 2, 81, 117
4, 461470, Note_on_c, 2, 80, 98
4, 461476, Note_on_c, 2, 81, 0
4, 461611, Note_on_c, 2, 81, 106
4, 461643, Note_on_c, 2, 80, 0
4, 461736, Note_on_c, 2, 83, 114
4, 461763, Note_on_c, 2, 81, 0
4, 461868, Note_on_c, 2, 84, 117
4, 461904, Note_on_c, 2, 83, 0
4, 461992, Note_on_c, 2, 84, 0
4, 462025, Note_on_c, 2, 84, 122
4, 462308, Note_on_c, 2, 83, 104
4, 462333, Note_on_c, 2, 84, 0
4, 462436, Note_on_c, 2, 81, 106
4, 462472, Note_on_c, 2, 83, 0
4, 462575, Note_on_c, 2, 79, 92
4, 462601, Note_on_c, 2, 81, 0
4, 462699, Note_on_c, 2, 78, 113
4, 462726, Note_on_c, 2, 79, 0
4, 462840, Note_on_c, 2, 79, 111
4, 462870, Note_on_c, 2, 78, 0
4, 463008, Note_on_c, 2, 79, 0
4, 463824, Note_on_c, 2, 61, 41
4, 465015, Note_on_c, 2, 61, 0
4, 465142, Note_on_c, 2, 67, 122
4, 465290, Note_on_c, 2, 64, 112
4, 465292, Note_on_c, 2, 67, 0
4, 465497, Note_on_c, 2, 61, 113
4, 465503, Note_on_c, 2, 64, 0
4, 465572, Note_on_c, 2, 59, 118
4, 465587, Note_on_c, 2, 61, 0
4, 465673, Note_on_c, 2, 59, 0
4, 465854, Note_on_c, 2, 79, 118
4, 465930, Note_on_c, 2, 79, 0
4, 466136, Note_on_c, 2, 78, 125
4, 466232, Note_on_c, 2, 78, 0
4, 466427, Note_on_c, 2, 85, 107
4, 466556, Note_on_c, 2, 85, 0
4, 467421, Note_on_c, 2, 61, 43
4, 468642, Note_on_c, 2, 61, 0
4, 468809, Note_on_c, 2, 67, 117
4, 468969, Note_on_c, 2, 64, 112
4, 468990, Note_on_c, 2, 67, 0
4, 469165, Note_on_c, 2, 64, 0
4, 469179, Note_on_c, 2, 61, 113
4, 469255, Note_on_c, 2, 59, 117
4, 469258, Note_on_c, 2, 61, 0
4, 469363, Note_on_c, 2, 59, 0
4, 469544, Note_on_c, 2, 79, 120
4, 469645, Note_on_c, 2, 79, 0
4, 469835, Note_on_c, 2, 78, 120
4, 469920, Note_on_c, 2, 78, 0
4, 470123, Note_on_c, 2, 76, 120
4, 470222, Note_on_c, 2, 76, 0
4, 470413, Note_on_c, 2, 85, 120
4, 470517, Note_on_c, 2, 85, 0
4, 470697, Note_on_c, 2, 82, 121
4, 470819, Note_on_c, 2, 82, 0
4, 470980, Note_on_c, 2, 90, 118
4, 471092, Note_on_c, 2, 90, 0
4, 471278, Note_on_c, 2, 87, 118
4, 471369, Note_on_c, 2, 87, 0
4, 471612, Note_on_c, 2, 88, 114
4, 471717, Note_on_c, 2, 88, 0
4, 472041, Note_on_c, 2, 84, 112
4, 472693, Note_on_c, 2, 84, 0
4, 473165, Note_on_c, 2, 64, 41
4, 473933, Note_on_c, 2, 63, 42
4, 474004, Note_on_c, 2, 64, 0
4, 474420, Note_on_c, 2, 64, 34
4, 474484, Note_on_c, 2, 63, 0
4, 474748, Note_on_c, 2, 64, 0
4, 476640, Control_c, 2, 11, 80
4, 476946, Note_on_c, 2, 64, 49
4, 481367, Note_on_c, 2, 63, 62
4, 481529, Note_on_c, 2, 64, 0
4, 482400, Note_on_c, 2, 64, 55
4, 482467, Note_on_c, 2, 63, 0
4, 482633, Note_on_c, 2, 64, 0
4, 486149, Note_on_c, 2, 71, 53
4, 488102, Note_on_c, 2, 70, 59
4, 488184, Note_on_c, 2, 71, 0
4, 488764, Note_on_c, 2, 71, 62
4, 488804, Note_on_c, 2, 70, 0
4, 489067, Note_on_c, 2, 71, 0
4, 489248, Note_on_c, 2, 68, 65
4, 490180, Note_on_c, 2, 69, 47
4, 490183, Note_on_c, 2, 68, 0
4, 490486, Note_on_c, 2, 69, 0
4, 490583, Note_on_c, 2, 64, 58
4, 491622, Note_on_c, 2, 63, 47
4, 491743, Note_on_c, 2, 64, 0
4, 492039, Note_on_c, 2, 63, 0
4, 492892, Note_on_c, 2, 64, 46
4, 497853, Note_on_c, 2, 64, 0
4, 497853, Note_on_c, 2, 66, 70
4, 498568, Note_on_c, 2, 67, 69
4, 498586, Note_on_c, 2, 66, 0
4, 499007, Note_on_c, 2, 71, 75
4, 499094, Note_on_c, 2, 67, 0
4, 499835, Note_on_c, 2, 64, 58
4, 499847, Note_on_c, 2, 71, 0
4, 500426, Note_on_c, 2, 65, 63
4, 500454, Note_on_c, 2, 64, 0
4, 501243, Note_on_c, 2, 69, 49
4, 501343, Note_on_c, 2, 65, 0
4, 501602, Note_on_c, 2, 64, 48
4, 501687, Note_on_c, 2, 69, 0
4, 501991, Note_on_c, 2, 64, 0
4, 502486, Note_on_c, 2, 63, 47
4, 503270, Note_on_c, 2, 64, 46
4, 503320, Note_on_c, 2, 63, 0
4, 503591, Note_on_c, 2, 64, 0
4, 503650, Note_on_c, 2, 71, 69
4, 503945, Note_on_c, 2, 72, 83
4, 503953, Note_on_c, 2, 71, 0
4, 504095, Note_on_c, 2, 72, 0
4, 504451, Note_on_c, 2, 71, 73
4, 504730, Note_on_c, 2, 72, 77
4, 504752, Note_on_c, 2, 71, 0
4, 504906, Note_on_c, 2, 72, 0
4, 505153, Note_on_c, 2, 71, 76
4, 505488, Note_on_c, 2, 69, 75
4, 505533, Note_on_c, 2, 71, 0
4, 505723, Note_on_c, 2, 67, 81
4, 505767, Note_on_c, 2, 69, 0
4, 505943, Note_on_c, 2, 64, 81
4, 505988, Note_on_c, 2, 67, 0
4, 506207, Note_on_c, 2, 66, 77
4, 506249, Note_on_c, 2, 64, 0
4, 506482, Note_on_c, 2, 67, 49
4, 506496, Note_on_c, 2, 66, 0
4, 506668, Note_on_c, 2, 67, 0
4, 506757, Note_on_c, 2, 71, 79
4, 506969, Note_on_c, 2, 72, 71
4, 507002, Note_on_c, 2, 71, 0
4, 507087, Note_on_c, 2, 72, 0
4, 507394, Note_on_c, 2, 71, 92
4, 507632, Note_on_c, 2, 72, 89
4, 507684, Note_on_c, 2, 71, 0
4, 507905, Note_on_c, 2, 71, 71
4, 507932, Note_on_c, 2, 72, 0
4, 508158, Note_on_c, 2, 71, 0
4, 508448, Note_on_c, 2, 62, 98
4, 508912, Note_on_c, 2, 59, 76
4, 508964, Note_on_c, 2, 62, 0
4, 509177, Note_on_c, 2, 61, 80
4, 509224, Note_on_c, 2, 59, 0
4, 509502, Note_on_c, 2, 62, 52
4, 509517, Note_on_c, 2, 61, 0
4, 509751, Note_on_c, 2, 62, 0
4, 509833, Note_on_c, 2, 66, 95
4, 510045, Note_on_c, 2, 66, 0
4, 510064, Note_on_c, 2, 67, 38
4, 510207, Note_on_c, 2, 67, 0
4, 510517, Note_on_c, 2, 66, 86
4, 510739, Note_on_c, 2, 67, 65
4, 510764, Note_on_c, 2, 66, 0
4, 510990, Note_on_c, 2, 67, 0
4, 511005, Note_on_c, 2, 66, 68
4, 511236, Note_on_c, 2, 74, 84
4, 511257, Note_on_c, 2, 66, 0
4, 511532, Note_on_c, 2, 73, 88
4, 511561, Note_on_c, 2, 74, 0
4, 511791, Note_on_c, 2, 71, 79
4, 511824, Note_on_c, 2, 73, 0
4, 512009, Note_on_c, 2, 68, 77
4, 512021, Note_on_c, 2, 71, 0
4, 512274, Note_on_c, 2, 70, 72
4, 512306, Note_on_c, 2, 68, 0
4, 512504, Note_on_c, 2, 71, 63
4, 512516, Note_on_c, 2, 70, 0
4, 512674, Note_on_c, 2, 71, 0
4, 512753, Note_on_c, 2, 66, 78
4, 512995, Note_on_c, 2, 67, 60
4, 513015, Note_on_c, 2, 66, 0
4, 513139, Note_on_c, 2, 67, 0
4, 513438, Note_on_c, 2, 66, 75
4, 513670, Note_on_c, 2, 67, 80
4, 513698, Note_on_c, 2, 66, 0
4, 513949, Note_on_c, 2, 69, 68
4, 514008, Note_on_c, 2, 67, 0
4, 515605, Note_on_c, 2, 67, 61
4, 515642, Note_on_c, 2, 69, 0
4, 515723, Note_on_c, 2, 67, 0
4, 516074, Note_on_c, 2, 67, 82
4, 516850, Note_on_c, 2, 71, 73
4, 516919, Note_on_c, 2, 67, 0
4, 517072, Note_on_c, 2, 71, 0
4, 517103, Note_on_c, 2, 71, 88
4, 517363, Note_on_c, 2, 71, 0
4, 517370, Note_on_c, 2, 70, 43
4, 517556, Note_on_c, 2, 70, 0
4, 518800, Note_on_c, 2, 70, 91
4, 519027, Note_on_c, 2, 69, 85
4, 519061, Note_on_c, 2, 70, 0
4, 519203, Note_on_c, 2, 69, 0
4, 519398, Note_on_c, 2, 72, 98
4, 520149, Note_on_c, 2, 72, 0
4, 520152, Note_on_c, 2, 76, 84
4, 520353, Note_on_c, 2, 76, 0
4, 520383, Note_on_c, 2, 76, 91
4, 520640, Note_on_c, 2, 75, 76
4, 520656, Note_on_c, 2, 76, 0
4, 520822, Note_on_c, 2, 75, 0
4, 522397, Note_on_c, 2, 69, 66
4, 522721, Note_on_c, 2, 67, 76
4, 522722, Note_on_c, 2, 69, 0
4, 523427, Note_on_c, 2, 66, 89
4, 523471, Note_on_c, 2, 67, 0
4, 524185, Note_on_c, 2, 64, 92
4, 524233, Note_on_c, 2, 66, 0
4, 524757, Note_on_c, 2, 67, 90
4, 524779, Note_on_c, 2, 64, 0
4, 525720, Note_on_c, 2, 66, 81
4, 525773, Note_on_c, 2, 67, 0
4, 525928, Note_on_c, 2, 66, 0
4, 529346, Note_on_c, 2, 72, 81
4, 530066, Note_on_c, 2, 74, 86
4, 530120, Note_on_c, 2, 72, 0
4, 530765, Note_on_c, 2, 75, 68
4, 530829, Note_on_c, 2, 74, 0
4, 532864, Note_on_c, 2, 75, 0
4, 534444, Note_on_c, 2, 66, 48
4, 536888, Note_on_c, 2, 66, 0
4, 547142, Note_on_c, 2, 62, 49
4, 547723, Note_on_c, 2, 67, 44
4, 547780, Note_on_c, 2, 62, 0
4, 548178, Note_on_c, 2, 67, 0
4, 554026, Note_on_c, 2, 66, 46
4, 554784, Note_on_c, 2, 69, 49
4, 554876, Note_on_c, 2, 66, 0
4, 555141, Note_on_c, 2, 67, 38
4, 555178, Note_on_c, 2, 69, 0
4, 555536, Note_on_c, 2, 67, 0
4, 557280, Program_c, 2, 45
4, 557280, Control_c, 2, 91, 120
4, 557762, Note_on_c, 2, 74, 36
4, 557791, Note_on_c, 2, 74, 0
4, 558033, Note_on_c, 2, 74, 37
4, 558069, Note_on_c, 2, 74, 0
4, 558354, Note_on_c, 2, 76, 41
4, 558442, Note_on_c, 2, 76, 0
4, 559941, Note_on_c, 2, 66, 41
4, 559973, Note_on_c, 2, 66, 0
4, 560243, Note_on_c, 2, 66, 39
4, 560288, Note_on_c, 2, 66, 0
4, 561600, Program_c, 2, 49
4, 561600, Control_c, 2, 91, 60
4, 561698, Note_on_c, 2, 74, 70
4, 561955, Note_on_c, 2, 76, 68
4, 561997, Note_on_c, 2, 74, 0
4, 562635, Note_on_c, 2, 76, 0
4, 563206, Note_on_c, 2, 74, 79
4, 563552, Note_on_c, 2, 72, 81
4, 563587, Note_on_c, 2, 74, 0
4, 564004, Note_on_c, 2, 71, 72
4, 564036, Note_on_c, 2, 72, 0
4, 564572, Note_on_c, 2, 72, 88
4, 564623, Note_on_c, 2, 71, 0
4, 564809, Note_on_c, 2, 74, 91
4, 564837, Note_on_c, 2, 72, 0
4, 565105, Note_on_c, 2, 72, 91
4, 565155, Note_on_c, 2, 74, 0
4, 565763, Note_on_c, 2, 71, 75
4, 565865, Note_on_c, 2, 72, 0
4, 566940, Note_on_c, 2, 69, 54
4, 566996, Note_on_c, 2, 71, 0
4, 567523, Note_on_c, 2, 71, 60
4, 567573, Note_on_c, 2, 69, 0
4, 567795, Note_on_c, 2, 72, 48
4, 567845, Note_on_c, 2, 71, 0
4, 568403, Note_on_c, 2, 67, 62
4, 568476, Note_on_c, 2, 72, 0
4, 568755, Note_on_c, 2, 71, 56
4, 568931, Note_on_c, 2, 67, 0
4, 569770, Note_on_c, 2, 64, 50
4, 569873, Note_on_c, 2, 71, 0
4, 571111, Note_on_c, 2, 67, 43
4, 571191, Note_on_c, 2, 64, 0
4, 572102, Note_on_c, 2, 76, 67
4, 572164, Note_on_c, 2, 67, 0
4, 572621, Note_on_c, 2, 76, 0
4, 573135, Note_on_c, 2, 76, 63
4, 573751, Note_on_c, 2, 74, 52
4, 573852, Note_on_c, 2, 76, 0
4, 574191, Note_on_c, 2, 74, 0
4, 574266, Note_on_c, 2, 74, 59
4, 575616, Note_on_c, 2, 72, 55
4, 575678, Note_on_c, 2, 74, 0
4, 576052, Note_on_c, 2, 72, 0
4, 576090, Note_on_c, 2, 72, 60
4, 577517, Note_on_c, 2, 71, 45
4, 577614, Note_on_c, 2, 72, 0
4, 578312, Note_on_c, 2, 71, 0
4, 578464, Note_on_c, 2, 69, 67
4, 578893, Note_on_c, 2, 67, 66
4, 578924, Note_on_c, 2, 69, 0
4, 580000, Note_on_c, 2, 66, 57
4, 580047, Note_on_c, 2, 67, 0
4, 580418, Note_on_c, 2, 66, 0
4, 580875, Note_on_c, 2, 68, 78
4, 581286, Note_on_c, 2, 68, 0
4, 581718, Note_on_c, 2, 69, 89
4, 582075, Note_on_c, 2, 69, 0
4, 582714, Note_on_c, 2, 70, 85
4, 583209, Note_on_c, 2, 70, 0
4, 583976, Note_on_c, 2, 71, 84
4, 585095, Note_on_c, 2, 72, 62
4, 585176, Note_on_c, 2, 71, 0
4, 585519, Note_on_c, 2, 72, 0
4, 587635, Note_on_c, 2, 71, 45
4, 588698, Note_on_c, 2, 63, 57
4, 588749, Note_on_c, 2, 71, 0
4, 589575, Note_on_c, 2, 64, 51
4, 589593, Note_on_c, 2, 63, 0
4, 589664, Note_on_c, 2, 64, 0
4, 589755, Note_on_c, 2, 59, 84
4, 590047, Note_on_c, 2, 59, 0
4, 590125, Note_on_c, 2, 59, 84
4, 590229, Note_on_c, 2, 67, 84
4, 590242, Note_on_c, 2, 59, 0
4, 590344, Note_on_c, 2, 67, 0
4, 590536, Note_on_c, 2, 59, 94
4, 590725, Note_on_c, 2, 59, 0
4, 590757, Note_on_c, 2, 59, 89
4, 590892, Note_on_c, 2, 59, 0
4, 590892, Note_on_c, 2, 64, 83
4, 590971, Note_on_c, 2, 64, 0
4, 591262, Program_c, 2, 45
4, 591262, Control_c, 2, 91, 120
4, 591262, Note_on_c, 2, 60, 35
4, 591295, Note_on_c, 2, 60, 0
4, 591431, Note_on_c, 2, 64, 47
4, 591461, Note_on_c, 2, 64, 0
4, 591542, Note_on_c, 2, 60, 56
4, 591591, Note_on_c, 2, 60, 0
4, 591675, Note_on_c, 2, 69, 60
4, 591718, Note_on_c, 2, 69, 0
4, 592019, Note_on_c, 2, 63, 72
4, 592062, Note_on_c, 2, 63, 0
4, 592159, Note_on_c, 2, 66, 60
4, 592192, Note_on_c, 2, 66, 0
4, 592268, Note_on_c, 2, 63, 70
4, 592315, Note_on_c, 2, 63, 0
4, 592401, Note_on_c, 2, 71, 63
4, 592443, Note_on_c, 2, 71, 0
4, 592772, Program_c, 2, 49
4, 592772, Control_c, 2, 91, 60
4, 592772, Note_on_c, 2, 59, 102
4, 592984, Note_on_c, 2, 59, 0
4, 593032, Note_on_c, 2, 59, 81
4, 593182, Note_on_c, 2, 67, 84
4, 593187, Note_on_c, 2, 59, 0
4, 593287, Note_on_c, 2, 67, 0
4, 593516, Note_on_c, 2, 59, 102
4, 593710, Note_on_c, 2, 59, 0
4, 593750, Note_on_c, 2, 59, 91
4, 593868, Note_on_c, 2, 59, 0
4, 593893, Note_on_c, 2, 64, 78
4, 594015, Note_on_c, 2, 64, 0
4, 594271, Program_c, 2, 45
4, 594271, Control_c, 2, 91, 120
4, 594271, Note_on_c, 2, 60, 52
4, 594313, Note_on_c, 2, 60, 0
4, 594410, Note_on_c, 2, 64, 49
4, 594443, Note_on_c, 2, 64, 0
4, 594550, Note_on_c, 2, 60, 61
4, 594584, Note_on_c, 2, 60, 0
4, 594715, Note_on_c, 2, 69, 55
4, 594754, Note_on_c, 2, 69, 0
4, 595060, Note_on_c, 2, 63, 75
4, 595107, Note_on_c, 2, 63, 0
4, 595198, Note_on_c, 2, 66, 74
4, 595231, Note_on_c, 2, 66, 0
4, 595316, Note_on_c, 2, 63, 65
4, 595358, Note_on_c, 2, 63, 0
4, 595455, Note_on_c, 2, 71, 52
4, 595511, Note_on_c, 2, 71, 0
4, 595865, Program_c, 2, 49
4, 595865, Control_c, 2, 91, 60
4, 595865, Note_on_c, 2, 66, 101
4, 596076, Note_on_c, 2, 66, 0
4, 596112, Note_on_c, 2, 66, 80
4, 596262, Note_on_c, 2, 66, 0
4, 596264, Note_on_c, 2, 71, 77
4, 596380, Note_on_c, 2, 71, 0
4, 596619, Note_on_c, 2, 66, 105
4, 596805, Note_on_c, 2, 66, 0
4, 596853, Note_on_c, 2, 66, 107
4, 596997, Note_on_c, 2, 66, 0
4, 597003, Program_c, 2, 45
4, 597003, Control_c, 2, 91, 120
4, 597003, Note_on_c, 2, 71, 81
4, 597099, Note_on_c, 2, 71, 0
4, 597400, Note_on_c, 2, 59, 60
4, 597445, Note_on_c, 2, 59, 0
4, 597551, Note_on_c, 2, 65, 38
4, 597602, Note_on_c, 2, 65, 0
4, 597682, Note_on_c, 2, 59, 57
4, 597730, Note_on_c, 2, 59, 0
4, 597826, Note_on_c, 2, 68, 72
4, 597873, Note_on_c, 2, 68, 0
4, 598221, Note_on_c, 2, 59, 68
4, 598266, Note_on_c, 2, 59, 0
4, 598357, Note_on_c, 2, 65, 68
4, 598403, Note_on_c, 2, 65, 0
4, 598473, Note_on_c, 2, 59, 66
4, 598520, Note_on_c, 2, 59, 0
4, 598601, Note_on_c, 2, 68, 73
4, 598645, Note_on_c, 2, 68, 0
4, 598957, Program_c, 2, 49
4, 598957, Control_c, 2, 91, 60
4, 598957, Note_on_c, 2, 59, 89
4, 599159, Note_on_c, 2, 59, 0
4, 599194, Note_on_c, 2, 59, 100
4, 599334, Note_on_c, 2, 64, 84
4, 599369, Note_on_c, 2, 59, 0
4, 599484, Note_on_c, 2, 64, 0
4, 599705, Note_on_c, 2, 59, 99
4, 599900, Note_on_c, 2, 59, 0
4, 599938, Note_on_c, 2, 59, 99
4, 600090, Note_on_c, 2, 64, 84
4, 600093, Note_on_c, 2, 59, 0
4, 600228, Note_on_c, 2, 64, 0
4, 600548, Program_c, 2, 45
4, 600548, Control_c, 2, 91, 120
4, 600548, Note_on_c, 2, 64, 57
4, 600590, Note_on_c, 2, 64, 0
4, 600683, Note_on_c, 2, 70, 71
4, 600727, Note_on_c, 2, 70, 0
4, 600824, Note_on_c, 2, 64, 51
4, 600866, Note_on_c, 2, 64, 0
4, 600949, Note_on_c, 2, 73, 70
4, 600992, Note_on_c, 2, 73, 0
4, 601350, Note_on_c, 2, 64, 72
4, 601390, Note_on_c, 2, 64, 0
4, 601467, Note_on_c, 2, 70, 69
4, 601512, Note_on_c, 2, 70, 0
4, 601599, Note_on_c, 2, 64, 61
4, 601644, Note_on_c, 2, 64, 0
4, 601727, Note_on_c, 2, 73, 69
4, 601773, Note_on_c, 2, 73, 0
4, 601920, Program_c, 2, 49
4, 601920, Control_c, 2, 91, 60
4, 602145, Note_on_c, 2, 66, 101
4, 602320, Note_on_c, 2, 66, 0
4, 602358, Note_on_c, 2, 66, 110
4, 602492, Note_on_c, 2, 74, 86
4, 602511, Note_on_c, 2, 66, 0
4, 602661, Note_on_c, 2, 74, 0
4, 602844, Note_on_c, 2, 66, 107
4, 603026, Note_on_c, 2, 66, 0
4, 603057, Note_on_c, 2, 66, 83
4, 603190, Note_on_c, 2, 66, 0
4, 603197, Note_on_c, 2, 71, 67
4, 603348, Note_on_c, 2, 71, 0
4, 603360, Program_c, 2, 45
4, 603360, Control_c, 2, 91, 120
4, 603602, Note_on_c, 2, 64, 65
4, 603638, Note_on_c, 2, 64, 0
4, 603761, Note_on_c, 2, 67, 43
4, 603792, Note_on_c, 2, 67, 0
4, 603902, Note_on_c, 2, 64, 54
4, 603937, Note_on_c, 2, 64, 0
4, 604028, Note_on_c, 2, 71, 78
4, 604059, Note_on_c, 2, 71, 0
4, 604384, Note_on_c, 2, 64, 62
4, 604420, Note_on_c, 2, 64, 0
4, 604511, Note_on_c, 2, 70, 72
4, 604557, Note_on_c, 2, 70, 0
4, 604639, Note_on_c, 2, 64, 51
4, 604684, Note_on_c, 2, 64, 0
4, 604761, Note_on_c, 2, 73, 80
4, 604800, Program_c, 2, 49
4, 604800, Control_c, 2, 91, 60
4, 604805, Note_on_c, 2, 73, 0
4, 605136, Note_on_c, 2, 66, 92
4, 605327, Note_on_c, 2, 66, 0
4, 605368, Note_on_c, 2, 66, 103
4, 605498, Note_on_c, 2, 66, 0
4, 605511, Note_on_c, 2, 74, 84
4, 605644, Note_on_c, 2, 74, 0
4, 605866, Note_on_c, 2, 66, 110
4, 606045, Note_on_c, 2, 66, 0
4, 606094, Note_on_c, 2, 66, 115
4, 606203, Note_on_c, 2, 66, 0
4, 606236, Note_on_c, 2, 71, 87
4, 606362, Note_on_c, 2, 71, 0
4, 606625, Program_c, 2, 45
4, 606625, Control_c, 2, 91, 120
4, 606625, Note_on_c, 2, 66, 87
4, 606668, Note_on_c, 2, 66, 0
4, 606789, Note_on_c, 2, 69, 53
4, 606835, Note_on_c, 2, 69, 0
4, 606928, Note_on_c, 2, 66, 70
4, 606992, Note_on_c, 2, 66, 0
4, 607064, Note_on_c, 2, 72, 81
4, 607103, Note_on_c, 2, 72, 0
4, 607406, Note_on_c, 2, 63, 82
4, 607449, Note_on_c, 2, 63, 0
4, 607530, Note_on_c, 2, 66, 84
4, 607566, Note_on_c, 2, 66, 0
4, 607652, Note_on_c, 2, 63, 84
4, 607695, Note_on_c, 2, 63, 0
4, 607778, Note_on_c, 2, 71, 73
4, 607806, Note_on_c, 2, 71, 0
4, 607992, Program_c, 2, 49
4, 607992, Control_c, 2, 91, 60
4, 607992, Note_on_c, 2, 67, 98
4, 608243, Note_on_c, 2, 66, 98
4, 608261, Note_on_c, 2, 67, 0
4, 608431, Note_on_c, 2, 66, 0
4, 608767, Note_on_c, 2, 69, 100
4, 609474, Note_on_c, 2, 67, 73
4, 609497, Note_on_c, 2, 69, 0
4, 609714, Note_on_c, 2, 66, 108
4, 609771, Note_on_c, 2, 67, 0
4, 609964, Note_on_c, 2, 64, 93
4, 610007, Note_on_c, 2, 66, 0
4, 610212, Note_on_c, 2, 69, 94
4, 610295, Note_on_c, 2, 64, 0
4, 610950, Note_on_c, 2, 71, 101
4, 611007, Note_on_c, 2, 69, 0
4, 612566, Note_on_c, 2, 76, 107
4, 612612, Note_on_c, 2, 71, 0
4, 612869, Note_on_c, 2, 76, 0
4, 613870, Note_on_c, 2, 69, 96
4, 614313, Note_on_c, 2, 67, 96
4, 614352, Note_on_c, 2, 69, 0
4, 614569, Note_on_c, 2, 70, 110
4, 614578, Note_on_c, 2, 67, 0
4, 614781, Note_on_c, 2, 70, 0
4, 614798, Note_on_c, 2, 71, 104
4, 615040, Note_on_c, 2, 72, 100
4, 615125, Note_on_c, 2, 71, 0
4, 615465, Note_on_c, 2, 72, 0
4, 615531, Note_on_c, 2, 70, 101
4, 615767, Note_on_c, 2, 68, 103
4, 615816, Note_on_c, 2, 70, 0
4, 615987, Note_on_c, 2, 68, 0
4, 616013, Note_on_c, 2, 71, 101
4, 616231, Note_on_c, 2, 72, 113
4, 616242, Note_on_c, 2, 71, 0
4, 616468, Note_on_c, 2, 73, 110
4, 616509, Note_on_c, 2, 72, 0
4, 616862, Note_on_c, 2, 73, 0
4, 616960, Note_on_c, 2, 71, 112
4, 617247, Note_on_c, 2, 69, 106
4, 617288, Note_on_c, 2, 71, 0
4, 617391, Note_on_c, 2, 69, 0
4, 617494, Note_on_c, 2, 72, 107
4, 617700, Note_on_c, 2, 73, 114
4, 617740, Note_on_c, 2, 72, 0
4, 617918, Note_on_c, 2, 71, 116
4, 617950, Note_on_c, 2, 73, 0
4, 618025, Note_on_c, 2, 71, 0
4, 618160, Note_on_c, 2, 74, 114
4, 618351, Note_on_c, 2, 74, 0
4, 618393, Note_on_c, 2, 75, 120
4, 618527, Note_on_c, 2, 75, 0
4, 618637, Note_on_c, 2, 76, 124
4, 620195, Note_on_c, 2, 76, 0
4, 620195, Note_on_c, 2, 64, 106
4, 620268, Note_on_c, 2, 71, 110
4, 620284, Note_on_c, 2, 79, 121
4, 620411, Note_on_c, 2, 64, 0
4, 620417, Note_on_c, 2, 71, 0
4, 620466, Note_on_c, 2, 79, 0
4, 621924, Program_c, 2, 45
4, 621924, Control_c, 2, 91, 120
4, 621924, Note_on_c, 2, 76, 84
4, 621960, Note_on_c, 2, 76, 0
4, 628560, Program_c, 2, 49
4, 628560, Control_c, 2, 91, 60
4, 628560, Control_c, 2, 11, 100
4, 629039, Note_on_c, 2, 84, 127
4, 629056, Note_on_c, 2, 76, 127
4, 629094, Note_on_c, 2, 76, 0
4, 629100, Note_on_c, 2, 84, 0
4, 629111, Note_on_c, 2, 84, 89
4, 629120, Note_on_c, 2, 76, 94
4, 629153, Note_on_c, 2, 84, 0
4, 629165, Note_on_c, 2, 76, 0
4, 629188, Note_on_c, 2, 84, 114
4, 629199, Note_on_c, 2, 76, 111
4, 629226, Note_on_c, 2, 84, 0
4, 629238, Note_on_c, 2, 84, 96
4, 629239, Note_on_c, 2, 76, 0
4, 629255, Note_on_c, 2, 76, 90
4, 629280, Note_on_c, 2, 84, 0
4, 629294, Note_on_c, 2, 76, 0
4, 629317, Note_on_c, 2, 84, 113
4, 629334, Note_on_c, 2, 76, 107
4, 629353, Note_on_c, 2, 84, 0
4, 629365, Note_on_c, 2, 84, 100
4, 629370, Note_on_c, 2, 76, 0
4, 629390, Note_on_c, 2, 76, 97
4, 629403, Note_on_c, 2, 84, 0
4, 629428, Note_on_c, 2, 76, 0
4, 629450, Note_on_c, 2, 84, 113
4, 629462, Note_on_c, 2, 76, 104
4, 629486, Note_on_c, 2, 84, 0
4, 629497, Note_on_c, 2, 76, 0
4, 629499, Note_on_c, 2, 84, 106
4, 629517, Note_on_c, 2, 76, 98
4, 629536, Note_on_c, 2, 84, 0
4, 629554, Note_on_c, 2, 76, 0
4, 629581, Note_on_c, 2, 84, 116
4, 629603, Note_on_c, 2, 76, 111
4, 629619, Note_on_c, 2, 84, 0
4, 629632, Note_on_c, 2, 84, 107
4, 629643, Note_on_c, 2, 76, 0
4, 629653, Note_on_c, 2, 76, 65
4, 629674, Note_on_c, 2, 84, 0
4, 629697, Note_on_c, 2, 76, 0
4, 629717, Note_on_c, 2, 84, 109
4, 629733, Note_on_c, 2, 76, 106
4, 629774, Note_on_c, 2, 76, 0
4, 629788, Note_on_c, 2, 76, 88
4, 629804, Note_on_c, 2, 84, 0
4, 629836, Note_on_c, 2, 76, 0
4, 629849, Note_on_c, 2, 84, 118
4, 629876, Note_on_c, 2, 74, 113
4, 629889, Note_on_c, 2, 84, 0
4, 629900, Note_on_c, 2, 84, 108
4, 629914, Note_on_c, 2, 74, 0
4, 629938, Note_on_c, 2, 74, 91
4, 629940, Note_on_c, 2, 84, 0
4, 629982, Note_on_c, 2, 74, 0
4, 629985, Note_on_c, 2, 84, 111
4, 630008, Note_on_c, 2, 74, 103
4, 630022, Note_on_c, 2, 84, 0
4, 630039, Note_on_c, 2, 84, 117
4, 630047, Note_on_c, 2, 74, 0
4, 630063, Note_on_c, 2, 74, 91
4, 630081, Note_on_c, 2, 84, 0
4, 630107, Note_on_c, 2, 74, 0
4, 630126, Note_on_c, 2, 84, 113
4, 630149, Note_on_c, 2, 74, 111
4, 630165, Note_on_c, 2, 84, 0
4, 630175, Note_on_c, 2, 84, 107
4, 630187, Note_on_c, 2, 74, 0
4, 630205, Note_on_c, 2, 74, 98
4, 630218, Note_on_c, 2, 84, 0
4, 630249, Note_on_c, 2, 74, 0
4, 630271, Note_on_c, 2, 84, 112
4, 630292, Note_on_c, 2, 74, 109
4, 630312, Note_on_c, 2, 84, 0
4, 630331, Note_on_c, 2, 74, 0
4, 630331, Note_on_c, 2, 84, 117
4, 630351, Note_on_c, 2, 74, 94
4, 630374, Note_on_c, 2, 84, 0
4, 630389, Note_on_c, 2, 74, 0
4, 630420, Note_on_c, 2, 83, 122
4, 630432, Note_on_c, 2, 74, 108
4, 630457, Note_on_c, 2, 83, 0
4, 630474, Note_on_c, 2, 83, 108
4, 630519, Note_on_c, 2, 83, 0
4, 630527, Note_on_c, 2, 74, 0
4, 630564, Note_on_c, 2, 83, 100
4, 630565, Note_on_c, 2, 74, 102
4, 630604, Note_on_c, 2, 74, 0
4, 630620, Note_on_c, 2, 74, 89
4, 630656, Note_on_c, 2, 83, 0
4, 630662, Note_on_c, 2, 74, 0
4, 630708, Note_on_c, 2, 84, 126
4, 630710, Note_on_c, 2, 76, 121
4, 630748, Note_on_c, 2, 84, 0
4, 630753, Note_on_c, 2, 76, 0
4, 630775, Note_on_c, 2, 84, 99
4, 630777, Note_on_c, 2, 76, 87
4, 630800, Note_on_c, 2, 76, 0
4, 630819, Note_on_c, 2, 84, 0
4, 630853, Note_on_c, 2, 84, 101
4, 630854, Note_on_c, 2, 76, 103
4, 630890, Note_on_c, 2, 76, 0
4, 630907, Note_on_c, 2, 76, 70
4, 630942, Note_on_c, 2, 76, 0
4, 630943, Note_on_c, 2, 84, 0
4, 630983, Note_on_c, 2, 84, 99
4, 630983, Note_on_c, 2, 76, 102
4, 631019, Note_on_c, 2, 76, 0
4, 631042, Note_on_c, 2, 76, 100
4, 631070, Note_on_c, 2, 84, 0
4, 631088, Note_on_c, 2, 76, 0
4, 631112, Note_on_c, 2, 84, 111
4, 631129, Note_on_c, 2, 76, 106
4, 631150, Note_on_c, 2, 84, 0
4, 631158, Note_on_c, 2, 84, 90
4, 631168, Note_on_c, 2, 76, 0
4, 631192, Note_on_c, 2, 76, 99
4, 631197, Note_on_c, 2, 84, 0
4, 631239, Note_on_c, 2, 76, 0
4, 631246, Note_on_c, 2, 84, 118
4, 631271, Note_on_c, 2, 76, 100
4, 631313, Note_on_c, 2, 76, 0
4, 631327, Note_on_c, 2, 84, 0
4, 631337, Note_on_c, 2, 76, 98
4, 631376, Note_on_c, 2, 84, 118
4, 631386, Note_on_c, 2, 76, 0
4, 631410, Note_on_c, 2, 76, 101
4, 631415, Note_on_c, 2, 84, 0
4, 631435, Note_on_c, 2, 84, 118
4, 631453, Note_on_c, 2, 76, 0
4, 631470, Note_on_c, 2, 74, 94
4, 631476, Note_on_c, 2, 84, 0
4, 631514, Note_on_c, 2, 74, 0
4, 631515, Note_on_c, 2, 84, 118
4, 631557, Note_on_c, 2, 74, 117
4, 631559, Note_on_c, 2, 84, 0
4, 631572, Note_on_c, 2, 84, 109
4, 631598, Note_on_c, 2, 74, 0
4, 631611, Note_on_c, 2, 84, 0
4, 631620, Note_on_c, 2, 74, 99
4, 631654, Note_on_c, 2, 84, 112
4, 631659, Note_on_c, 2, 74, 0
4, 631694, Note_on_c, 2, 84, 0
4, 631694, Note_on_c, 2, 74, 101
4, 631706, Note_on_c, 2, 84, 104
4, 631750, Note_on_c, 2, 84, 0
4, 631794, Note_on_c, 2, 84, 120
4, 631796, Note_on_c, 2, 74, 0
4, 631836, Note_on_c, 2, 84, 0
4, 631836, Note_on_c, 2, 74, 113
4, 631847, Note_on_c, 2, 84, 109
4, 631882, Note_on_c, 2, 74, 0
4, 631895, Note_on_c, 2, 84, 0
4, 631898, Note_on_c, 2, 74, 93
4, 631933, Note_on_c, 2, 84, 117
4, 631945, Note_on_c, 2, 74, 0
4, 631985, Note_on_c, 2, 84, 0
4, 631986, Note_on_c, 2, 74, 111
4, 631993, Note_on_c, 2, 84, 98
4, 632026, Note_on_c, 2, 74, 0
4, 632041, Note_on_c, 2, 84, 0
4, 632041, Note_on_c, 2, 74, 82
4, 632085, Note_on_c, 2, 74, 0
4, 632085, Note_on_c, 2, 83, 121
4, 632122, Note_on_c, 2, 74, 120
4, 632124, Note_on_c, 2, 83, 0
4, 632139, Note_on_c, 2, 83, 107
4, 632150, Note_on_c, 2, 84, 76
4, 632158, Note_on_c, 2, 74, 0
4, 632172, Note_on_c, 2, 84, 0
4, 632181, Note_on_c, 2, 74, 99
4, 632187, Note_on_c, 2, 83, 0
4, 632222, Note_on_c, 2, 74, 0
4, 632224, Note_on_c, 2, 83, 117
4, 632251, Note_on_c, 2, 74, 113
4, 632262, Note_on_c, 2, 83, 0
4, 632277, Note_on_c, 2, 83, 106
4, 632289, Note_on_c, 2, 74, 0
4, 632307, Note_on_c, 2, 74, 97
4, 632319, Note_on_c, 2, 83, 0
4, 632343, Note_on_c, 2, 74, 0
4, 632400, Note_on_c, 2, 76, 126
4, 632422, Note_on_c, 2, 84, 124
4, 632581, Note_on_c, 2, 84, 0
4, 632640, Note_on_c, 2, 76, 0
4, 635760, Control_c, 2, 11, 80
4, 635912, Note_on_c, 2, 72, 42
4, 636176, Note_on_c, 2, 71, 45
4, 636233, Note_on_c, 2, 72, 0
4, 636465, Note_on_c, 2, 70, 48
4, 636505, Note_on_c, 2, 71, 0
4, 636984, Note_on_c, 2, 71, 43
4, 637034, Note_on_c, 2, 70, 0
4, 637572, Note_on_c, 2, 72, 51
4, 637608, Note_on_c, 2, 71, 0
4, 637874, Note_on_c, 2, 76, 46
4, 637906, Note_on_c, 2, 72, 0
4, 638293, Note_on_c, 2, 64, 38
4, 638359, Note_on_c, 2, 76, 0
4, 639205, Note_on_c, 2, 63, 29
4, 639270, Note_on_c, 2, 64, 0
4, 640356, Note_on_c, 2, 64, 47
4, 640462, Note_on_c, 2, 63, 0
4, 640820, Control_c, 2, 11, 80
4, 640850, Control_c, 2, 11, 81
4, 640890, Control_c, 2, 11, 82
4, 640940, Control_c, 2, 11, 83
4, 640990, Control_c, 2, 11, 84
4, 641030, Control_c, 2, 11, 85
4, 641080, Control_c, 2, 11, 86
4, 641120, Control_c, 2, 11, 87
4, 641170, Control_c, 2, 11, 88
4, 641220, Control_c, 2, 11, 89
4, 641260, Control_c, 2, 11, 90
4, 641310, Control_c, 2, 11, 91
4, 641350, Control_c, 2, 11, 92
4, 641400, Control_c, 2, 11, 93
4, 641450, Control_c, 2, 11, 94
4, 641490, Control_c, 2, 11, 95
4, 641540, Control_c, 2, 11, 96
4, 641580, Control_c, 2, 11, 97
4, 641630, Control_c, 2, 11, 98
4, 641680, Control_c, 2, 11, 99
4, 641720, Control_c, 2, 11, 100
4, 641741, Note_on_c, 2, 69, 49
4, 641741, Control_c, 2, 11, 100
4, 641761, Control_c, 2, 11, 99
4, 641781, Control_c, 2, 11, 98
4, 641800, Note_on_c, 2, 64, 0
4, 641811, Control_c, 2, 11, 97
4, 641831, Control_c, 2, 11, 96
4, 641861, Control_c, 2, 11, 95
4, 641881, Control_c, 2, 11, 94
4, 641911, Control_c, 2, 11, 93
4, 641931, Control_c, 2, 11, 92
4, 641961, Control_c, 2, 11, 91
4, 641981, Control_c, 2, 11, 90
4, 642011, Control_c, 2, 11, 89
4, 642031, Control_c, 2, 11, 88
4, 642061, Control_c, 2, 11, 87
4, 642081, Control_c, 2, 11, 86
4, 642099, Note_on_c, 2, 66, 53
4, 642111, Control_c, 2, 11, 85
4, 642131, Control_c, 2, 11, 84
4, 642161, Control_c, 2, 11, 83
4, 642164, Note_on_c, 2, 69, 0
4, 642181, Control_c, 2, 11, 82
4, 642211, Control_c, 2, 11, 81
4, 642231, Control_c, 2, 11, 80
4, 642419, Note_on_c, 2, 64, 57
4, 642419, Control_c, 2, 11, 80
4, 642449, Note_on_c, 2, 66, 0
4, 642459, Control_c, 2, 11, 81
4, 642529, Control_c, 2, 11, 82
4, 642609, Control_c, 2, 11, 83
4, 642679, Control_c, 2, 11, 84
4, 642749, Control_c, 2, 11, 85
4, 642829, Control_c, 2, 11, 86
4, 642899, Control_c, 2, 11, 87
4, 642969, Control_c, 2, 11, 88
4, 643039, Control_c, 2, 11, 89
4, 643119, Control_c, 2, 11, 90
4, 643189, Control_c, 2, 11, 91
4, 643259, Control_c, 2, 11, 92
4, 643339, Control_c, 2, 11, 93
4, 643409, Control_c, 2, 11, 94
4, 643479, Control_c, 2, 11, 95
4, 643549, Control_c, 2, 11, 96
4, 643629, Control_c, 2, 11, 97
4, 643699, Control_c, 2, 11, 98
4, 643769, Control_c, 2, 11, 99
4, 643849, Control_c, 2, 11, 100
4, 643877, Note_on_c, 2, 69, 44
4, 643942, Note_on_c, 2, 64, 0
4, 644270, Note_on_c, 2, 63, 48
4, 644275, Note_on_c, 2, 69, 0
4, 644708, Note_on_c, 2, 64, 40
4, 644732, Note_on_c, 2, 63, 0
4, 645070, Note_on_c, 2, 64, 0
4, 645808, Note_on_c, 2, 55, 88
4, 645880, Note_on_c, 2, 64, 120
4, 645885, Note_on_c, 2, 71, 113
4, 645887, Note_on_c, 2, 76, 127
4, 646092, Note_on_c, 2, 55, 0
4, 646099, Note_on_c, 2, 71, 0
4, 646106, Note_on_c, 2, 76, 0
4, 646107, Note_on_c, 2, 64, 0
4, 647034, Note_on_c, 2, 64, 126
4, 647148, Note_on_c, 2, 64, 0
4, 647181, Note_on_c, 2, 64, 127
4, 649124, Note_on_c, 2, 64, 0
4, 649440, End_track
5, 0, Start_track
5, 0, Title_t, "Violini II                          "
5, 100, Control_c, 3, 0, 0
5, 120, Control_c, 3, 32, 0
5, 140, Program_c, 3, 49
5, 160, Control_c, 3, 10, 49
5, 180, Control_c, 3, 7, 100
5, 200, Control_c, 3, 11, 100
5, 220, Control_c, 3, 1, 19
5, 240, Control_c, 3, 91, 60
5, 260, Control_c, 3, 93, 38
5, 280, Control_c, 3, 101, 0
5, 300, Control_c, 3, 100, 0
5, 320, Control_c, 3, 6, 12
5, 340, Pitch_bend_c, 3, 8208
5, 360, Control_c, 3, 99, 1
5, 380, Control_c, 3, 98, 32
5, 400, Control_c, 3, 6, 62
5, 420, Control_c, 3, 98, 33
5, 440, Control_c, 3, 6, 60
5, 460, Control_c, 3, 98, 99
5, 480, Control_c, 3, 6, 57
5, 500, Control_c, 3, 98, 100
5, 520, Control_c, 3, 6, 64
5, 540, Control_c, 3, 98, 102
5, 560, Control_c, 3, 6, 66
5, 580, Control_c, 3, 99, 1
5, 600, Control_c, 3, 98, 8
5, 620, Control_c, 3, 6, 90
5, 640, Control_c, 3, 98, 9
5, 660, Control_c, 3, 6, 50
5, 680, Control_c, 3, 98, 10
5, 700, Control_c, 3, 6, 70
5, 1715, Note_on_c, 3, 55, 92
5, 1776, Note_on_c, 3, 55, 0
5, 2000, Note_on_c, 3, 55, 90
5, 2059, Note_on_c, 3, 55, 0
5, 2306, Note_on_c, 3, 59, 102
5, 2405, Note_on_c, 3, 59, 0
5, 2599, Note_on_c, 3, 66, 115
5, 2606, Note_on_c, 3, 59, 88
5, 2636, Note_on_c, 3, 59, 0
5, 2657, Note_on_c, 3, 66, 0
5, 2889, Note_on_c, 3, 66, 105
5, 2893, Note_on_c, 3, 59, 91
5, 2961, Note_on_c, 3, 59, 0
5, 2980, Note_on_c, 3, 66, 0
5, 3187, Note_on_c, 3, 68, 106
5, 3188, Note_on_c, 3, 59, 101
5, 3264, Note_on_c, 3, 59, 0
5, 3270, Note_on_c, 3, 68, 0
5, 3472, Note_on_c, 3, 68, 107
5, 3475, Note_on_c, 3, 59, 102
5, 3624, Note_on_c, 3, 68, 0
5, 3628, Note_on_c, 3, 59, 0
5, 3768, Note_on_c, 3, 69, 94
5, 3769, Note_on_c, 3, 61, 110
5, 3850, Note_on_c, 3, 61, 0
5, 3874, Note_on_c, 3, 69, 0
5, 4063, Note_on_c, 3, 70, 107
5, 4068, Note_on_c, 3, 64, 88
5, 4141, Note_on_c, 3, 64, 0
5, 4156, Note_on_c, 3, 70, 0
5, 4352, Note_on_c, 3, 71, 109
5, 4356, Note_on_c, 3, 64, 99
5, 4468, Note_on_c, 3, 64, 0
5, 4470, Note_on_c, 3, 71, 0
5, 4640, Note_on_c, 3, 71, 107
5, 4645, Note_on_c, 3, 66, 112
5, 4714, Note_on_c, 3, 71, 0
5, 4714, Note_on_c, 3, 66, 0
5, 4933, Note_on_c, 3, 71, 107
5, 4934, Note_on_c, 3, 66, 116
5, 5118, Note_on_c, 3, 66, 0
5, 5155, Note_on_c, 3, 71, 0
5, 5204, Note_on_c, 3, 71, 97
5, 5206, Note_on_c, 3, 67, 98
5, 5308, Note_on_c, 3, 71, 0
5, 5323, Note_on_c, 3, 67, 0
5, 5486, Note_on_c, 3, 75, 105
5, 5777, Note_on_c, 3, 75, 0
5, 5781, Note_on_c, 3, 76, 81
5, 5908, Note_on_c, 3, 76, 0
5, 6090, Note_on_c, 3, 71, 98
5, 6365, Note_on_c, 3, 69, 73
5, 6383, Note_on_c, 3, 71, 0
5, 6538, Note_on_c, 3, 69, 0
5, 6672, Note_on_c, 3, 67, 76
5, 6947, Note_on_c, 3, 66, 77
5, 6956, Note_on_c, 3, 67, 0
5, 7213, Note_on_c, 3, 66, 0
5, 7272, Note_on_c, 3, 67, 67
5, 7577, Note_on_c, 3, 64, 76
5, 7612, Note_on_c, 3, 67, 0
5, 8167, Note_on_c, 3, 63, 76
5, 8176, Note_on_c, 3, 64, 0
5, 8349, Note_on_c, 3, 63, 0
5, 8470, Note_on_c, 3, 62, 91
5, 8760, Note_on_c, 3, 60, 107
5, 8789, Note_on_c, 3, 62, 0
5, 8964, Note_on_c, 3, 60, 0
5, 9052, Note_on_c, 3, 64, 102
5, 9144, Note_on_c, 3, 64, 0
5, 9339, Note_on_c, 3, 64, 89
5, 9468, Note_on_c, 3, 64, 0
5, 9637, Note_on_c, 3, 64, 84
5, 9768, Note_on_c, 3, 64, 0
5, 9921, Note_on_c, 3, 71, 102
5, 9926, Note_on_c, 3, 64, 94
5, 10031, Note_on_c, 3, 64, 0
5, 10038, Note_on_c, 3, 71, 0
5, 10195, Note_on_c, 3, 70, 114
5, 10202, Note_on_c, 3, 64, 88
5, 10316, Note_on_c, 3, 64, 0
5, 10322, Note_on_c, 3, 70, 0
5, 10487, Note_on_c, 3, 69, 106
5, 10494, Note_on_c, 3, 64, 96
5, 10608, Note_on_c, 3, 69, 0
5, 10613, Note_on_c, 3, 64, 0
5, 10774, Note_on_c, 3, 63, 115
5, 10776, Note_on_c, 3, 69, 104
5, 10917, Note_on_c, 3, 63, 0
5, 10919, Note_on_c, 3, 69, 0
5, 11071, Note_on_c, 3, 69, 111
5, 11074, Note_on_c, 3, 64, 109
5, 11186, Note_on_c, 3, 69, 0
5, 11188, Note_on_c, 3, 64, 0
5, 11340, Note_on_c, 3, 69, 109
5, 11344, Note_on_c, 3, 66, 107
5, 11634, Note_on_c, 3, 69, 0
5, 11665, Note_on_c, 3, 66, 0
5, 12205, Note_on_c, 3, 67, 96
5, 12206, Note_on_c, 3, 73, 114
5, 12348, Note_on_c, 3, 67, 0
5, 12392, Note_on_c, 3, 73, 0
5, 13089, Note_on_c, 3, 76, 36
5, 14274, Note_on_c, 3, 76, 0
5, 15147, Note_on_c, 3, 73, 119
5, 15236, Note_on_c, 3, 73, 0
5, 15438, Note_on_c, 3, 72, 114
5, 15511, Note_on_c, 3, 72, 0
5, 15733, Note_on_c, 3, 70, 114
5, 15865, Note_on_c, 3, 70, 0
5, 16711, Note_on_c, 3, 76, 37
5, 17980, Note_on_c, 3, 76, 0
5, 18830, Note_on_c, 3, 73, 114
5, 18925, Note_on_c, 3, 73, 0
5, 19115, Note_on_c, 3, 72, 112
5, 19226, Note_on_c, 3, 72, 0
5, 19424, Note_on_c, 3, 70, 119
5, 19500, Note_on_c, 3, 70, 0
5, 19716, Note_on_c, 3, 70, 121
5, 19797, Note_on_c, 3, 70, 0
5, 19996, Note_on_c, 3, 76, 116
5, 20090, Note_on_c, 3, 76, 0
5, 20279, Note_on_c, 3, 82, 118
5, 20378, Note_on_c, 3, 82, 0
5, 20572, Note_on_c, 3, 81, 116
5, 20629, Note_on_c, 3, 81, 0
5, 20900, Note_on_c, 3, 79, 114
5, 20998, Note_on_c, 3, 79, 0
5, 21314, Note_on_c, 3, 66, 105
5, 21322, Note_on_c, 3, 76, 101
5, 22049, Note_on_c, 3, 66, 0
5, 22056, Note_on_c, 3, 76, 0
5, 22432, Note_on_c, 3, 60, 28
5, 23041, Note_on_c, 3, 60, 0
5, 23194, Note_on_c, 3, 59, 23
5, 23643, Note_on_c, 3, 59, 0
5, 23727, Note_on_c, 3, 59, 30
5, 23960, Note_on_c, 3, 64, 32
5, 23962, Note_on_c, 3, 55, 23
5, 24038, Note_on_c, 3, 59, 0
5, 24049, Note_on_c, 3, 55, 0
5, 24102, Note_on_c, 3, 64, 0
5, 24164, Note_on_c, 3, 55, 27
5, 24166, Note_on_c, 3, 64, 29
5, 24233, Note_on_c, 3, 55, 0
5, 24256, Note_on_c, 3, 64, 0
5, 24331, Note_on_c, 3, 55, 28
5, 24337, Note_on_c, 3, 64, 38
5, 24395, Note_on_c, 3, 55, 0
5, 24400, Note_on_c, 3, 64, 0
5, 24494, Note_on_c, 3, 55, 32
5, 24501, Note_on_c, 3, 64, 34
5, 24558, Note_on_c, 3, 55, 0
5, 24566, Note_on_c, 3, 64, 0
5, 24647, Note_on_c, 3, 55, 34
5, 24653, Note_on_c, 3, 64, 32
5, 24710, Note_on_c, 3, 64, 0
5, 24713, Note_on_c, 3, 55, 0
5, 24801, Note_on_c, 3, 64, 40
5, 24802, Note_on_c, 3, 55, 31
5, 24868, Note_on_c, 3, 55, 0
5, 24869, Note_on_c, 3, 64, 0
5, 24955, Note_on_c, 3, 55, 31
5, 24962, Note_on_c, 3, 64, 39
5, 25027, Note_on_c, 3, 64, 0
5, 25029, Note_on_c, 3, 55, 0
5, 25106, Note_on_c, 3, 55, 35
5, 25110, Note_on_c, 3, 64, 38
5, 25171, Note_on_c, 3, 64, 0
5, 25179, Note_on_c, 3, 55, 0
5, 25260, Note_on_c, 3, 64, 39
5, 25261, Note_on_c, 3, 55, 36
5, 25324, Note_on_c, 3, 64, 0
5, 25327, Note_on_c, 3, 55, 0
5, 25405, Note_on_c, 3, 64, 43
5, 25412, Note_on_c, 3, 55, 32
5, 25469, Note_on_c, 3, 64, 0
5, 25483, Note_on_c, 3, 55, 0
5, 25558, Note_on_c, 3, 64, 39
5, 25565, Note_on_c, 3, 55, 28
5, 25629, Note_on_c, 3, 64, 0
5, 25636, Note_on_c, 3, 55, 0
5, 25712, Note_on_c, 3, 55, 35
5, 25713, Note_on_c, 3, 64, 44
5, 25779, Note_on_c, 3, 55, 0
5, 25787, Note_on_c, 3, 64, 0
5, 25858, Note_on_c, 3, 55, 36
5, 25865, Note_on_c, 3, 64, 45
5, 25907, Note_on_c, 3, 55, 0
5, 25931, Note_on_c, 3, 64, 0
5, 26011, Note_on_c, 3, 64, 41
5, 26012, Note_on_c, 3, 55, 39
5, 26072, Note_on_c, 3, 55, 0
5, 26085, Note_on_c, 3, 64, 0
5, 26163, Note_on_c, 3, 64, 42
5, 26163, Note_on_c, 3, 55, 39
5, 26238, Note_on_c, 3, 64, 0
5, 26238, Note_on_c, 3, 55, 0
5, 26307, Note_on_c, 3, 55, 47
5, 26310, Note_on_c, 3, 64, 52
5, 26355, Note_on_c, 3, 55, 0
5, 26371, Note_on_c, 3, 64, 0
5, 26449, Note_on_c, 3, 55, 44
5, 26455, Note_on_c, 3, 64, 33
5, 26520, Note_on_c, 3, 64, 0
5, 26524, Note_on_c, 3, 55, 0
5, 26609, Note_on_c, 3, 64, 41
5, 26613, Note_on_c, 3, 57, 32
5, 26674, Note_on_c, 3, 64, 0
5, 26675, Note_on_c, 3, 57, 0
5, 26756, Note_on_c, 3, 57, 28
5, 26760, Note_on_c, 3, 64, 28
5, 26821, Note_on_c, 3, 57, 0
5, 26826, Note_on_c, 3, 64, 0
5, 26903, Note_on_c, 3, 57, 31
5, 26913, Note_on_c, 3, 64, 21
5, 26968, Note_on_c, 3, 64, 0
5, 26970, Note_on_c, 3, 57, 0
5, 27049, Note_on_c, 3, 64, 32
5, 27056, Note_on_c, 3, 57, 24
5, 27108, Note_on_c, 3, 57, 0
5, 27119, Note_on_c, 3, 64, 0
5, 27195, Note_on_c, 3, 57, 33
5, 27207, Note_on_c, 3, 64, 27
5, 27262, Note_on_c, 3, 57, 0
5, 27270, Note_on_c, 3, 64, 0
5, 27343, Note_on_c, 3, 64, 30
5, 27344, Note_on_c, 3, 57, 21
5, 27403, Note_on_c, 3, 57, 0
5, 27414, Note_on_c, 3, 64, 0
5, 27487, Note_on_c, 3, 57, 28
5, 27496, Note_on_c, 3, 64, 32
5, 27547, Note_on_c, 3, 57, 0
5, 27554, Note_on_c, 3, 64, 0
5, 27638, Note_on_c, 3, 57, 25
5, 27638, Note_on_c, 3, 64, 36
5, 27696, Note_on_c, 3, 57, 0
5, 27703, Note_on_c, 3, 64, 0
5, 27780, Note_on_c, 3, 57, 25
5, 27787, Note_on_c, 3, 64, 34
5, 27849, Note_on_c, 3, 57, 0
5, 27853, Note_on_c, 3, 64, 0
5, 27931, Note_on_c, 3, 57, 20
5, 27933, Note_on_c, 3, 64, 37
5, 27984, Note_on_c, 3, 57, 0
5, 27996, Note_on_c, 3, 64, 0
5, 28070, Note_on_c, 3, 57, 36
5, 28077, Note_on_c, 3, 64, 41
5, 28128, Note_on_c, 3, 57, 0
5, 28146, Note_on_c, 3, 64, 0
5, 28219, Note_on_c, 3, 57, 38
5, 28226, Note_on_c, 3, 64, 44
5, 28288, Note_on_c, 3, 57, 0
5, 28296, Note_on_c, 3, 64, 0
5, 28366, Note_on_c, 3, 57, 33
5, 28376, Note_on_c, 3, 64, 38
5, 28426, Note_on_c, 3, 57, 0
5, 28437, Note_on_c, 3, 64, 0
5, 28514, Note_on_c, 3, 57, 37
5, 28520, Note_on_c, 3, 64, 51
5, 28568, Note_on_c, 3, 57, 0
5, 28583, Note_on_c, 3, 64, 0
5, 28663, Note_on_c, 3, 57, 34
5, 28667, Note_on_c, 3, 63, 63
5, 28727, Note_on_c, 3, 57, 0
5, 28728, Note_on_c, 3, 63, 0
5, 28808, Note_on_c, 3, 57, 38
5, 28811, Note_on_c, 3, 63, 65
5, 28870, Note_on_c, 3, 57, 0
5, 28872, Note_on_c, 3, 63, 0
5, 28959, Note_on_c, 3, 57, 41
5, 28961, Note_on_c, 3, 63, 58
5, 29012, Note_on_c, 3, 63, 0
5, 29013, Note_on_c, 3, 57, 0
5, 29099, Note_on_c, 3, 57, 38
5, 29103, Note_on_c, 3, 63, 52
5, 29146, Note_on_c, 3, 63, 0
5, 29151, Note_on_c, 3, 57, 0
5, 29242, Note_on_c, 3, 63, 51
5, 29244, Note_on_c, 3, 57, 34
5, 29292, Note_on_c, 3, 63, 0
5, 29300, Note_on_c, 3, 57, 0
5, 29372, Note_on_c, 3, 63, 56
5, 29378, Note_on_c, 3, 57, 40
5, 29429, Note_on_c, 3, 63, 0
5, 29429, Note_on_c, 3, 57, 0
5, 29517, Note_on_c, 3, 63, 65
5, 29519, Note_on_c, 3, 57, 45
5, 29567, Note_on_c, 3, 57, 0
5, 29578, Note_on_c, 3, 63, 0
5, 29653, Note_on_c, 3, 63, 67
5, 29671, Note_on_c, 3, 57, 38
5, 29713, Note_on_c, 3, 63, 0
5, 29720, Note_on_c, 3, 57, 0
5, 29804, Note_on_c, 3, 57, 43
5, 29814, Note_on_c, 3, 66, 65
5, 29865, Note_on_c, 3, 57, 0
5, 29885, Note_on_c, 3, 66, 0
5, 29949, Note_on_c, 3, 66, 55
5, 30017, Note_on_c, 3, 66, 0
5, 30093, Note_on_c, 3, 66, 67
5, 30180, Note_on_c, 3, 66, 0
5, 30237, Note_on_c, 3, 66, 56
5, 30311, Note_on_c, 3, 66, 0
5, 30390, Note_on_c, 3, 64, 44
5, 30456, Note_on_c, 3, 64, 0
5, 30534, Note_on_c, 3, 64, 40
5, 30623, Note_on_c, 3, 64, 0
5, 30686, Note_on_c, 3, 67, 46
5, 30754, Note_on_c, 3, 67, 0
5, 30828, Note_on_c, 3, 67, 55
5, 30904, Note_on_c, 3, 67, 0
5, 30974, Note_on_c, 3, 69, 52
5, 31052, Note_on_c, 3, 69, 0
5, 31115, Note_on_c, 3, 69, 57
5, 31186, Note_on_c, 3, 69, 0
5, 31265, Note_on_c, 3, 69, 59
5, 31324, Note_on_c, 3, 69, 0
5, 31398, Note_on_c, 3, 69, 52
5, 31452, Note_on_c, 3, 69, 0
5, 31543, Note_on_c, 3, 69, 64
5, 31605, Note_on_c, 3, 69, 0
5, 31689, Note_on_c, 3, 66, 54
5, 31756, Note_on_c, 3, 66, 0
5, 31840, Note_on_c, 3, 64, 51
5, 31904, Note_on_c, 3, 64, 0
5, 31983, Note_on_c, 3, 64, 55
5, 32050, Note_on_c, 3, 64, 0
5, 32133, Note_on_c, 3, 64, 38
5, 32134, Note_on_c, 3, 59, 53
5, 32194, Note_on_c, 3, 59, 0
5, 32199, Note_on_c, 3, 64, 0
5, 32274, Note_on_c, 3, 64, 52
5, 32277, Note_on_c, 3, 59, 53
5, 32343, Note_on_c, 3, 59, 0
5, 32348, Note_on_c, 3, 64, 0
5, 32427, Note_on_c, 3, 64, 62
5, 32429, Control_c, 3, 11, 100
5, 32429, Note_on_c, 3, 59, 67
5, 32494, Note_on_c, 3, 59, 0
5, 32515, Note_on_c, 3, 64, 0
5, 32585, Note_on_c, 3, 71, 73
5, 32609, Control_c, 3, 11, 101
5, 32651, Note_on_c, 3, 71, 0
5, 32737, Note_on_c, 3, 69, 55
5, 32789, Control_c, 3, 11, 102
5, 32805, Note_on_c, 3, 69, 0
5, 32878, Note_on_c, 3, 69, 52
5, 32941, Note_on_c, 3, 69, 0
5, 32969, Control_c, 3, 11, 103
5, 33020, Note_on_c, 3, 69, 52
5, 33079, Note_on_c, 3, 69, 0
5, 33144, Control_c, 3, 11, 104
5, 33163, Note_on_c, 3, 69, 53
5, 33219, Note_on_c, 3, 69, 0
5, 33304, Note_on_c, 3, 69, 61
5, 33324, Control_c, 3, 11, 105
5, 33360, Note_on_c, 3, 69, 0
5, 33446, Note_on_c, 3, 66, 69
5, 33504, Control_c, 3, 11, 106
5, 33521, Note_on_c, 3, 66, 0
5, 33589, Note_on_c, 3, 65, 57
5, 33649, Note_on_c, 3, 65, 0
5, 33679, Control_c, 3, 11, 107
5, 33733, Note_on_c, 3, 65, 62
5, 33787, Note_on_c, 3, 65, 0
5, 33859, Control_c, 3, 11, 108
5, 33868, Note_on_c, 3, 65, 65
5, 33937, Note_on_c, 3, 65, 0
5, 34013, Note_on_c, 3, 71, 67
5, 34017, Note_on_c, 3, 65, 47
5, 34039, Control_c, 3, 11, 109
5, 34056, Note_on_c, 3, 65, 0
5, 34068, Note_on_c, 3, 71, 0
5, 34158, Note_on_c, 3, 71, 66
5, 34163, Note_on_c, 3, 65, 38
5, 34205, Note_on_c, 3, 65, 0
5, 34214, Control_c, 3, 11, 110
5, 34226, Note_on_c, 3, 71, 0
5, 34301, Note_on_c, 3, 65, 43
5, 34302, Note_on_c, 3, 71, 74
5, 34345, Note_on_c, 3, 65, 0
5, 34361, Note_on_c, 3, 71, 0
5, 34394, Control_c, 3, 11, 111
5, 34436, Note_on_c, 3, 69, 72
5, 34437, Note_on_c, 3, 64, 56
5, 34465, Note_on_c, 3, 69, 0
5, 34481, Note_on_c, 3, 64, 0
5, 34506, Note_on_c, 3, 69, 74
5, 34550, Note_on_c, 3, 69, 0
5, 34574, Control_c, 3, 11, 112
5, 34582, Note_on_c, 3, 71, 81
5, 34615, Note_on_c, 3, 71, 0
5, 34644, Note_on_c, 3, 71, 80
5, 34684, Note_on_c, 3, 71, 0
5, 34722, Note_on_c, 3, 72, 84
5, 34754, Control_c, 3, 11, 113
5, 34755, Note_on_c, 3, 72, 0
5, 34789, Note_on_c, 3, 72, 81
5, 34816, Note_on_c, 3, 72, 0
5, 34845, Note_on_c, 3, 72, 80
5, 34880, Note_on_c, 3, 72, 0
5, 34913, Note_on_c, 3, 72, 74
5, 34929, Control_c, 3, 11, 114
5, 34953, Note_on_c, 3, 72, 0
5, 34981, Note_on_c, 3, 72, 69
5, 35010, Note_on_c, 3, 72, 0
5, 35043, Note_on_c, 3, 72, 74
5, 35081, Note_on_c, 3, 72, 0
5, 35096, Note_on_c, 3, 72, 76
5, 35109, Control_c, 3, 11, 115
5, 35130, Note_on_c, 3, 72, 0
5, 35162, Note_on_c, 3, 72, 84
5, 35201, Note_on_c, 3, 72, 0
5, 35222, Note_on_c, 3, 74, 99
5, 35254, Note_on_c, 3, 74, 0
5, 35287, Note_on_c, 3, 74, 72
5, 35289, Control_c, 3, 11, 116
5, 35322, Note_on_c, 3, 74, 0
5, 35345, Note_on_c, 3, 74, 102
5, 35378, Note_on_c, 3, 74, 0
5, 35401, Note_on_c, 3, 74, 93
5, 35439, Note_on_c, 3, 74, 0
5, 35464, Control_c, 3, 11, 117
5, 35465, Note_on_c, 3, 74, 97
5, 35500, Note_on_c, 3, 74, 0
5, 35526, Note_on_c, 3, 74, 89
5, 35554, Note_on_c, 3, 74, 0
5, 35623, Note_on_c, 3, 76, 71
5, 35625, Note_on_c, 3, 71, 70
5, 35644, Control_c, 3, 11, 118
5, 35648, Note_on_c, 3, 76, 0
5, 35657, Note_on_c, 3, 71, 0
5, 35687, Note_on_c, 3, 76, 68
5, 35691, Note_on_c, 3, 71, 54
5, 35720, Note_on_c, 3, 71, 0
5, 35728, Note_on_c, 3, 76, 0
5, 35748, Note_on_c, 3, 76, 61
5, 35755, Note_on_c, 3, 72, 80
5, 35791, Note_on_c, 3, 76, 0
5, 35806, Note_on_c, 3, 72, 0
5, 35816, Note_on_c, 3, 76, 102
5, 35824, Control_c, 3, 11, 119
5, 35831, Note_on_c, 3, 72, 99
5, 35864, Note_on_c, 3, 76, 0
5, 35864, Note_on_c, 3, 72, 0
5, 35885, Note_on_c, 3, 74, 88
5, 35888, Note_on_c, 3, 76, 91
5, 35926, Note_on_c, 3, 76, 0
5, 35929, Note_on_c, 3, 74, 0
5, 35944, Note_on_c, 3, 76, 84
5, 35945, Note_on_c, 3, 74, 76
5, 35985, Note_on_c, 3, 74, 0
5, 35987, Note_on_c, 3, 76, 0
5, 35999, Control_c, 3, 11, 120
5, 36010, Note_on_c, 3, 72, 91
5, 36010, Note_on_c, 3, 76, 92
5, 36037, Note_on_c, 3, 76, 0
5, 36053, Note_on_c, 3, 72, 0
5, 36070, Note_on_c, 3, 76, 91
5, 36075, Note_on_c, 3, 72, 88
5, 36103, Note_on_c, 3, 72, 0
5, 36114, Note_on_c, 3, 76, 0
5, 36124, Note_on_c, 3, 76, 53
5, 36128, Note_on_c, 3, 72, 69
5, 36158, Note_on_c, 3, 76, 0
5, 36168, Note_on_c, 3, 72, 0
5, 36186, Note_on_c, 3, 76, 99
5, 36196, Note_on_c, 3, 72, 84
5, 36216, Note_on_c, 3, 72, 0
5, 36237, Note_on_c, 3, 76, 0
5, 36257, Note_on_c, 3, 76, 103
5, 36300, Note_on_c, 3, 76, 0
5, 36310, Note_on_c, 3, 76, 86
5, 36353, Note_on_c, 3, 76, 0
5, 36378, Note_on_c, 3, 74, 103
5, 36420, Note_on_c, 3, 74, 0
5, 36437, Note_on_c, 3, 74, 92
5, 36480, Note_on_c, 3, 74, 0
5, 36506, Note_on_c, 3, 72, 102
5, 36545, Note_on_c, 3, 72, 0
5, 36570, Note_on_c, 3, 72, 68
5, 36613, Note_on_c, 3, 72, 0
5, 36625, Note_on_c, 3, 71, 107
5, 36658, Note_on_c, 3, 71, 0
5, 36693, Note_on_c, 3, 71, 63
5, 36700, Note_on_c, 3, 72, 59
5, 36730, Note_on_c, 3, 72, 0
5, 36732, Note_on_c, 3, 71, 0
5, 36761, Note_on_c, 3, 72, 109
5, 36799, Note_on_c, 3, 72, 0
5, 36823, Note_on_c, 3, 72, 74
5, 36857, Note_on_c, 3, 72, 0
5, 36900, Note_on_c, 3, 76, 107
5, 36931, Note_on_c, 3, 76, 0
5, 36957, Note_on_c, 3, 76, 91
5, 37002, Note_on_c, 3, 76, 0
5, 37030, Note_on_c, 3, 76, 122
5, 37079, Note_on_c, 3, 76, 0
5, 37101, Note_on_c, 3, 76, 93
5, 37145, Note_on_c, 3, 76, 0
5, 37175, Note_on_c, 3, 74, 102
5, 37208, Note_on_c, 3, 74, 0
5, 37235, Note_on_c, 3, 74, 78
5, 37283, Note_on_c, 3, 74, 0
5, 37307, Note_on_c, 3, 72, 101
5, 37344, Note_on_c, 3, 72, 0
5, 37374, Note_on_c, 3, 72, 75
5, 37414, Note_on_c, 3, 72, 0
5, 37433, Note_on_c, 3, 71, 106
5, 37466, Note_on_c, 3, 71, 0
5, 37490, Note_on_c, 3, 71, 88
5, 37538, Note_on_c, 3, 71, 0
5, 37567, Note_on_c, 3, 72, 109
5, 37602, Note_on_c, 3, 72, 0
5, 37635, Note_on_c, 3, 72, 54
5, 37666, Note_on_c, 3, 72, 0
5, 37710, Note_on_c, 3, 69, 89
5, 37740, Note_on_c, 3, 69, 0
5, 37762, Note_on_c, 3, 69, 67
5, 37815, Note_on_c, 3, 69, 0
5, 37840, Note_on_c, 3, 69, 114
5, 37880, Note_on_c, 3, 69, 0
5, 37905, Note_on_c, 3, 69, 98
5, 37948, Note_on_c, 3, 69, 0
5, 37972, Note_on_c, 3, 66, 106
5, 38004, Note_on_c, 3, 66, 0
5, 38025, Note_on_c, 3, 66, 107
5, 38068, Note_on_c, 3, 66, 0
5, 38108, Note_on_c, 3, 67, 100
5, 38145, Note_on_c, 3, 67, 0
5, 38170, Note_on_c, 3, 67, 82
5, 38219, Note_on_c, 3, 67, 0
5, 38250, Note_on_c, 3, 69, 101
5, 38284, Note_on_c, 3, 69, 0
5, 38309, Note_on_c, 3, 69, 85
5, 38357, Note_on_c, 3, 69, 0
5, 38386, Note_on_c, 3, 67, 97
5, 38422, Note_on_c, 3, 67, 0
5, 38450, Note_on_c, 3, 67, 62
5, 38482, Note_on_c, 3, 67, 0
5, 38515, Note_on_c, 3, 67, 93
5, 38551, Note_on_c, 3, 67, 0
5, 38577, Note_on_c, 3, 67, 79
5, 38620, Note_on_c, 3, 67, 0
5, 38650, Note_on_c, 3, 66, 119
5, 38683, Note_on_c, 3, 66, 0
5, 38710, Note_on_c, 3, 66, 86
5, 38757, Note_on_c, 3, 66, 0
5, 38780, Note_on_c, 3, 66, 76
5, 38801, Note_on_c, 3, 66, 0
5, 38846, Note_on_c, 3, 66, 90
5, 38883, Note_on_c, 3, 66, 0
5, 38917, Note_on_c, 3, 67, 91
5, 38952, Note_on_c, 3, 67, 0
5, 38976, Note_on_c, 3, 67, 82
5, 39012, Note_on_c, 3, 67, 0
5, 39050, Note_on_c, 3, 69, 87
5, 39084, Note_on_c, 3, 69, 0
5, 39109, Note_on_c, 3, 69, 76
5, 39147, Note_on_c, 3, 69, 0
5, 39183, Note_on_c, 3, 67, 100
5, 39217, Note_on_c, 3, 67, 0
5, 39254, Note_on_c, 3, 67, 24
5, 39277, Note_on_c, 3, 67, 0
5, 39318, Note_on_c, 3, 64, 92
5, 39353, Note_on_c, 3, 64, 0
5, 39376, Note_on_c, 3, 64, 78
5, 39418, Note_on_c, 3, 64, 0
5, 39455, Note_on_c, 3, 64, 117
5, 39496, Note_on_c, 3, 64, 0
5, 39516, Note_on_c, 3, 64, 98
5, 39560, Note_on_c, 3, 64, 0
5, 39584, Note_on_c, 3, 64, 79
5, 39615, Note_on_c, 3, 64, 0
5, 39643, Note_on_c, 3, 64, 71
5, 39674, Note_on_c, 3, 64, 0
5, 39727, Note_on_c, 3, 66, 105
5, 39760, Note_on_c, 3, 66, 0
5, 39777, Note_on_c, 3, 66, 73
5, 39819, Note_on_c, 3, 66, 0
5, 39863, Note_on_c, 3, 67, 98
5, 39896, Note_on_c, 3, 67, 0
5, 39923, Note_on_c, 3, 67, 86
5, 39963, Note_on_c, 3, 67, 0
5, 39998, Note_on_c, 3, 66, 110
5, 40030, Note_on_c, 3, 66, 0
5, 40055, Note_on_c, 3, 66, 86
5, 40079, Note_on_c, 3, 66, 0
5, 40133, Note_on_c, 3, 64, 109
5, 40168, Note_on_c, 3, 64, 0
5, 40194, Note_on_c, 3, 64, 87
5, 40227, Note_on_c, 3, 64, 0
5, 40269, Note_on_c, 3, 64, 122
5, 40308, Note_on_c, 3, 64, 0
5, 40328, Note_on_c, 3, 64, 98
5, 40366, Note_on_c, 3, 64, 0
5, 40404, Note_on_c, 3, 66, 115
5, 40436, Note_on_c, 3, 66, 0
5, 40459, Note_on_c, 3, 66, 88
5, 40487, Note_on_c, 3, 66, 0
5, 40532, Note_on_c, 3, 66, 105
5, 40566, Note_on_c, 3, 66, 0
5, 40587, Note_on_c, 3, 66, 105
5, 40629, Note_on_c, 3, 66, 0
5, 40666, Note_on_c, 3, 67, 114
5, 40699, Note_on_c, 3, 67, 0
5, 40721, Note_on_c, 3, 67, 91
5, 40769, Note_on_c, 3, 67, 0
5, 40804, Note_on_c, 3, 66, 119
5, 40836, Note_on_c, 3, 66, 0
5, 40855, Note_on_c, 3, 66, 104
5, 40896, Note_on_c, 3, 66, 0
5, 40926, Note_on_c, 3, 66, 100
5, 40959, Note_on_c, 3, 66, 0
5, 40982, Note_on_c, 3, 66, 106
5, 41020, Note_on_c, 3, 66, 0
5, 41080, Note_on_c, 3, 75, 127
5, 41110, Note_on_c, 3, 75, 0
5, 41134, Note_on_c, 3, 75, 100
5, 41168, Note_on_c, 3, 75, 0
5, 41203, Note_on_c, 3, 75, 84
5, 41231, Note_on_c, 3, 75, 0
5, 41250, Note_on_c, 3, 75, 109
5, 41283, Note_on_c, 3, 75, 0
5, 41322, Note_on_c, 3, 75, 99
5, 41356, Note_on_c, 3, 75, 0
5, 41379, Note_on_c, 3, 75, 106
5, 41414, Note_on_c, 3, 75, 0
5, 41441, Note_on_c, 3, 75, 98
5, 41473, Note_on_c, 3, 75, 0
5, 41496, Note_on_c, 3, 75, 98
5, 41536, Note_on_c, 3, 75, 0
5, 41586, Note_on_c, 3, 76, 122
5, 41620, Note_on_c, 3, 76, 0
5, 41653, Note_on_c, 3, 76, 97
5, 41684, Note_on_c, 3, 76, 0
5, 41709, Note_on_c, 3, 76, 94
5, 41745, Note_on_c, 3, 76, 0
5, 41769, Note_on_c, 3, 76, 103
5, 41802, Note_on_c, 3, 76, 0
5, 41832, Note_on_c, 3, 76, 100
5, 41866, Note_on_c, 3, 76, 0
5, 41889, Note_on_c, 3, 76, 101
5, 41925, Note_on_c, 3, 76, 0
5, 41960, Note_on_c, 3, 76, 101
5, 41989, Note_on_c, 3, 76, 0
5, 42021, Note_on_c, 3, 76, 91
5, 42056, Note_on_c, 3, 76, 0
5, 42081, Note_on_c, 3, 76, 107
5, 42115, Note_on_c, 3, 76, 0
5, 42145, Note_on_c, 3, 76, 103
5, 42178, Note_on_c, 3, 76, 0
5, 42211, Note_on_c, 3, 76, 96
5, 42250, Note_on_c, 3, 76, 0
5, 42276, Note_on_c, 3, 76, 83
5, 42306, Note_on_c, 3, 76, 0
5, 42345, Note_on_c, 3, 75, 123
5, 42381, Note_on_c, 3, 75, 0
5, 42414, Note_on_c, 3, 75, 100
5, 42448, Note_on_c, 3, 75, 0
5, 42475, Note_on_c, 3, 75, 92
5, 42507, Note_on_c, 3, 75, 0
5, 42538, Note_on_c, 3, 75, 87
5, 42574, Note_on_c, 3, 75, 0
5, 42600, Note_on_c, 3, 75, 100
5, 42637, Note_on_c, 3, 75, 0
5, 42658, Note_on_c, 3, 75, 105
5, 42689, Note_on_c, 3, 75, 0
5, 42726, Note_on_c, 3, 75, 100
5, 42758, Note_on_c, 3, 75, 0
5, 42781, Note_on_c, 3, 75, 105
5, 42822, Note_on_c, 3, 75, 0
5, 42845, Note_on_c, 3, 75, 106
5, 42877, Note_on_c, 3, 75, 0
5, 42908, Note_on_c, 3, 75, 100
5, 42939, Note_on_c, 3, 75, 0
5, 42968, Note_on_c, 3, 75, 104
5, 43005, Note_on_c, 3, 75, 0
5, 43025, Note_on_c, 3, 75, 103
5, 43056, Note_on_c, 3, 75, 0
5, 43099, Note_on_c, 3, 76, 121
5, 43131, Note_on_c, 3, 76, 0
5, 43171, Note_on_c, 3, 76, 101
5, 43205, Note_on_c, 3, 76, 0
5, 43229, Note_on_c, 3, 76, 98
5, 43267, Note_on_c, 3, 76, 0
5, 43291, Note_on_c, 3, 76, 109
5, 43323, Note_on_c, 3, 76, 0
5, 43352, Note_on_c, 3, 76, 100
5, 43387, Note_on_c, 3, 76, 0
5, 43409, Note_on_c, 3, 76, 107
5, 43446, Note_on_c, 3, 76, 0
5, 43475, Note_on_c, 3, 76, 109
5, 43507, Note_on_c, 3, 76, 0
5, 43533, Note_on_c, 3, 76, 107
5, 43571, Note_on_c, 3, 76, 0
5, 43597, Note_on_c, 3, 76, 108
5, 43633, Note_on_c, 3, 76, 0
5, 43660, Note_on_c, 3, 76, 109
5, 43690, Note_on_c, 3, 76, 0
5, 43720, Note_on_c, 3, 76, 103
5, 43757, Note_on_c, 3, 76, 0
5, 43785, Note_on_c, 3, 76, 98
5, 43823, Note_on_c, 3, 76, 0
5, 43863, Note_on_c, 3, 75, 125
5, 43950, Note_on_c, 3, 75, 0
5, 47520, Control_c, 3, 11, 80
5, 48708, Note_on_c, 3, 66, 43
5, 49024, Note_on_c, 3, 64, 38
5, 49106, Note_on_c, 3, 66, 0
5, 49361, Note_on_c, 3, 63, 41
5, 49476, Note_on_c, 3, 64, 0
5, 49693, Note_on_c, 3, 64, 44
5, 49753, Note_on_c, 3, 63, 0
5, 50219, Note_on_c, 3, 64, 0
5, 50310, Note_on_c, 3, 64, 36
5, 50575, Note_on_c, 3, 64, 0
5, 50632, Note_on_c, 3, 64, 44
5, 50936, Note_on_c, 3, 66, 60
5, 51000, Note_on_c, 3, 64, 0
5, 51271, Note_on_c, 3, 67, 59
5, 51331, Note_on_c, 3, 66, 0
5, 51898, Note_on_c, 3, 68, 49
5, 51948, Note_on_c, 3, 67, 0
5, 52583, Control_c, 3, 11, 70
5, 52583, Note_on_c, 3, 69, 40
5, 52623, Control_c, 3, 11, 71
5, 52644, Note_on_c, 3, 68, 0
5, 52662, Control_c, 3, 11, 72
5, 52701, Control_c, 3, 11, 73
5, 52740, Control_c, 3, 11, 74
5, 52779, Control_c, 3, 11, 75
5, 52819, Control_c, 3, 11, 76
5, 52858, Control_c, 3, 11, 77
5, 52897, Control_c, 3, 11, 78
5, 52936, Control_c, 3, 11, 79
5, 52975, Control_c, 3, 11, 80
5, 53015, Control_c, 3, 11, 81
5, 53054, Control_c, 3, 11, 82
5, 53093, Control_c, 3, 11, 83
5, 53132, Control_c, 3, 11, 84
5, 53171, Control_c, 3, 11, 85
5, 53211, Control_c, 3, 11, 86
5, 53250, Control_c, 3, 11, 87
5, 53289, Control_c, 3, 11, 88
5, 53328, Control_c, 3, 11, 89
5, 53367, Control_c, 3, 11, 90
5, 53407, Control_c, 3, 11, 91
5, 53446, Control_c, 3, 11, 92
5, 53485, Control_c, 3, 11, 93
5, 53524, Control_c, 3, 11, 94
5, 53563, Control_c, 3, 11, 95
5, 53603, Control_c, 3, 11, 96
5, 53642, Control_c, 3, 11, 97
5, 53681, Control_c, 3, 11, 98
5, 53720, Control_c, 3, 11, 99
5, 53759, Control_c, 3, 11, 100
5, 53760, Control_c, 3, 11, 100
5, 53775, Control_c, 3, 11, 99
5, 53789, Control_c, 3, 11, 98
5, 53803, Control_c, 3, 11, 97
5, 53817, Control_c, 3, 11, 96
5, 53831, Control_c, 3, 11, 95
5, 53846, Control_c, 3, 11, 94
5, 53860, Control_c, 3, 11, 93
5, 53874, Control_c, 3, 11, 92
5, 53888, Control_c, 3, 11, 91
5, 53902, Control_c, 3, 11, 90
5, 53917, Control_c, 3, 11, 89
5, 53931, Control_c, 3, 11, 88
5, 53945, Control_c, 3, 11, 87
5, 53959, Control_c, 3, 11, 86
5, 53973, Control_c, 3, 11, 85
5, 53988, Control_c, 3, 11, 84
5, 54002, Control_c, 3, 11, 83
5, 54016, Control_c, 3, 11, 82
5, 54030, Control_c, 3, 11, 81
5, 54044, Control_c, 3, 11, 80
5, 54045, Note_on_c, 3, 68, 32
5, 54136, Note_on_c, 3, 69, 0
5, 54441, Note_on_c, 3, 61, 42
5, 54622, Note_on_c, 3, 68, 0
5, 55820, Note_on_c, 3, 57, 40
5, 55874, Note_on_c, 3, 61, 0
5, 56376, Note_on_c, 3, 56, 36
5, 56460, Note_on_c, 3, 57, 0
5, 56611, Note_on_c, 3, 59, 44
5, 56645, Note_on_c, 3, 56, 0
5, 56790, Note_on_c, 3, 64, 45
5, 56837, Note_on_c, 3, 59, 0
5, 56954, Note_on_c, 3, 59, 48
5, 57011, Note_on_c, 3, 64, 0
5, 57109, Note_on_c, 3, 66, 55
5, 57137, Note_on_c, 3, 59, 0
5, 57229, Note_on_c, 3, 66, 0
5, 57255, Note_on_c, 3, 59, 45
5, 57390, Note_on_c, 3, 68, 65
5, 57429, Note_on_c, 3, 59, 0
5, 57529, Note_on_c, 3, 59, 54
5, 57534, Note_on_c, 3, 68, 0
5, 57682, Note_on_c, 3, 68, 55
5, 57710, Note_on_c, 3, 59, 0
5, 57795, Note_on_c, 3, 68, 0
5, 57819, Note_on_c, 3, 59, 53
5, 57979, Note_on_c, 3, 69, 60
5, 57996, Note_on_c, 3, 59, 0
5, 58130, Note_on_c, 3, 59, 55
5, 58163, Note_on_c, 3, 69, 0
5, 58258, Note_on_c, 3, 59, 0
5, 58274, Note_on_c, 3, 68, 48
5, 58394, Note_on_c, 3, 68, 0
5, 58410, Note_on_c, 3, 59, 42
5, 58556, Note_on_c, 3, 68, 41
5, 58559, Note_on_c, 3, 59, 0
5, 58655, Note_on_c, 3, 68, 0
5, 58694, Note_on_c, 3, 59, 45
5, 58837, Note_on_c, 3, 68, 45
5, 58849, Note_on_c, 3, 59, 0
5, 58939, Note_on_c, 3, 68, 0
5, 58976, Note_on_c, 3, 59, 43
5, 59129, Note_on_c, 3, 59, 0
5, 59130, Note_on_c, 3, 66, 37
5, 59261, Note_on_c, 3, 66, 0
5, 59268, Note_on_c, 3, 59, 45
5, 59412, Note_on_c, 3, 59, 0
5, 59425, Note_on_c, 3, 66, 44
5, 59511, Note_on_c, 3, 66, 0
5, 59571, Note_on_c, 3, 59, 34
5, 59707, Note_on_c, 3, 66, 47
5, 59740, Note_on_c, 3, 59, 0
5, 59784, Note_on_c, 3, 66, 0
5, 59856, Note_on_c, 3, 59, 41
5, 60004, Note_on_c, 3, 61, 44
5, 60032, Note_on_c, 3, 59, 0
5, 60147, Note_on_c, 3, 61, 0
5, 60165, Note_on_c, 3, 64, 43
5, 60321, Note_on_c, 3, 63, 48
5, 60352, Note_on_c, 3, 64, 0
5, 60460, Note_on_c, 3, 66, 50
5, 60482, Note_on_c, 3, 63, 0
5, 60601, Note_on_c, 3, 64, 55
5, 60604, Note_on_c, 3, 66, 0
5, 60745, Note_on_c, 3, 59, 56
5, 60773, Note_on_c, 3, 64, 0
5, 60886, Note_on_c, 3, 61, 62
5, 60902, Note_on_c, 3, 59, 0
5, 61031, Note_on_c, 3, 64, 55
5, 61042, Note_on_c, 3, 61, 0
5, 61199, Note_on_c, 3, 63, 58
5, 61222, Note_on_c, 3, 64, 0
5, 61531, Note_on_c, 3, 64, 54
5, 61561, Note_on_c, 3, 63, 0
5, 61876, Note_on_c, 3, 61, 40
5, 61922, Note_on_c, 3, 64, 0
5, 62814, Note_on_c, 3, 60, 45
5, 62857, Note_on_c, 3, 61, 0
5, 63361, Note_on_c, 3, 60, 0
5, 63507, Note_on_c, 3, 59, 42
5, 64061, Note_on_c, 3, 59, 0
5, 64104, Note_on_c, 3, 59, 50
5, 64292, Note_on_c, 3, 64, 51
5, 64342, Note_on_c, 3, 59, 0
5, 64453, Note_on_c, 3, 59, 45
5, 64483, Note_on_c, 3, 64, 0
5, 64604, Note_on_c, 3, 66, 61
5, 64666, Note_on_c, 3, 59, 0
5, 64743, Note_on_c, 3, 59, 52
5, 64757, Note_on_c, 3, 66, 0
5, 64886, Note_on_c, 3, 68, 63
5, 64924, Note_on_c, 3, 59, 0
5, 65037, Note_on_c, 3, 59, 41
5, 65086, Note_on_c, 3, 68, 0
5, 65176, Note_on_c, 3, 68, 60
5, 65232, Note_on_c, 3, 59, 0
5, 65331, Note_on_c, 3, 59, 56
5, 65368, Note_on_c, 3, 68, 0
5, 65484, Note_on_c, 3, 69, 52
5, 65530, Note_on_c, 3, 59, 0
5, 65634, Note_on_c, 3, 59, 48
5, 65680, Note_on_c, 3, 69, 0
5, 65781, Note_on_c, 3, 68, 52
5, 65833, Note_on_c, 3, 59, 0
5, 65926, Note_on_c, 3, 59, 44
5, 65968, Note_on_c, 3, 68, 0
5, 66073, Note_on_c, 3, 68, 54
5, 66126, Note_on_c, 3, 59, 0
5, 66218, Note_on_c, 3, 59, 46
5, 66234, Note_on_c, 3, 68, 0
5, 66362, Note_on_c, 3, 68, 64
5, 66402, Note_on_c, 3, 59, 0
5, 66512, Note_on_c, 3, 59, 54
5, 66524, Note_on_c, 3, 68, 0
5, 66657, Note_on_c, 3, 66, 63
5, 66723, Note_on_c, 3, 59, 0
5, 66802, Note_on_c, 3, 59, 51
5, 66820, Note_on_c, 3, 66, 0
5, 66943, Note_on_c, 3, 66, 52
5, 66977, Note_on_c, 3, 59, 0
5, 67098, Note_on_c, 3, 59, 51
5, 67126, Note_on_c, 3, 66, 0
5, 67242, Note_on_c, 3, 66, 48
5, 67272, Note_on_c, 3, 59, 0
5, 67385, Note_on_c, 3, 59, 41
5, 67408, Note_on_c, 3, 66, 0
5, 67537, Note_on_c, 3, 61, 47
5, 67574, Note_on_c, 3, 59, 0
5, 67690, Note_on_c, 3, 64, 49
5, 67701, Note_on_c, 3, 61, 0
5, 67841, Note_on_c, 3, 63, 55
5, 67901, Note_on_c, 3, 64, 0
5, 67985, Note_on_c, 3, 66, 57
5, 68024, Note_on_c, 3, 63, 0
5, 68139, Note_on_c, 3, 64, 49
5, 68159, Note_on_c, 3, 66, 0
5, 68285, Note_on_c, 3, 59, 41
5, 68317, Note_on_c, 3, 64, 0
5, 68447, Note_on_c, 3, 61, 51
5, 68507, Note_on_c, 3, 59, 0
5, 68600, Note_on_c, 3, 64, 38
5, 68643, Note_on_c, 3, 61, 0
5, 68778, Note_on_c, 3, 63, 49
5, 68836, Note_on_c, 3, 64, 0
5, 69126, Note_on_c, 3, 64, 36
5, 69150, Note_on_c, 3, 63, 0
5, 69476, Note_on_c, 3, 64, 0
5, 69482, Note_on_c, 3, 63, 33
5, 70431, Note_on_c, 3, 63, 0
5, 70448, Note_on_c, 3, 64, 38
5, 71429, Note_on_c, 3, 63, 31
5, 71496, Note_on_c, 3, 64, 0
5, 72007, Note_on_c, 3, 64, 40
5, 72120, Note_on_c, 3, 63, 0
5, 72291, Note_on_c, 3, 63, 39
5, 72367, Note_on_c, 3, 64, 0
5, 72805, Note_on_c, 3, 63, 0
5, 72895, Program_c, 3, 45
5, 72895, Control_c, 3, 91, 120
5, 72895, Note_on_c, 3, 63, 37
5, 73013, Note_on_c, 3, 63, 0
5, 73244, Note_on_c, 3, 64, 36
5, 73258, Note_on_c, 3, 55, 33
5, 73436, Note_on_c, 3, 55, 0
5, 73455, Note_on_c, 3, 64, 0
5, 74448, Note_on_c, 3, 63, 36
5, 74518, Note_on_c, 3, 63, 0
5, 74748, Note_on_c, 3, 63, 44
5, 74830, Note_on_c, 3, 63, 0
5, 75083, Note_on_c, 3, 63, 34
5, 75196, Note_on_c, 3, 63, 0
5, 75600, Program_c, 3, 49
5, 75600, Control_c, 3, 91, 60
5, 75703, Note_on_c, 3, 64, 48
5, 76016, Note_on_c, 3, 63, 42
5, 76137, Note_on_c, 3, 64, 0
5, 76360, Note_on_c, 3, 63, 0
5, 76560, Program_c, 3, 45
5, 76560, Control_c, 3, 91, 120
5, 76598, Note_on_c, 3, 63, 35
5, 76695, Note_on_c, 3, 63, 0
5, 76941, Note_on_c, 3, 64, 41
5, 76957, Note_on_c, 3, 55, 31
5, 77107, Note_on_c, 3, 55, 0
5, 77116, Note_on_c, 3, 64, 0
5, 77760, Program_c, 3, 49
5, 77760, Control_c, 3, 91, 60
5, 77894, Note_on_c, 3, 63, 47
5, 78891, Note_on_c, 3, 64, 43
5, 78951, Note_on_c, 3, 63, 0
5, 79079, Note_on_c, 3, 59, 46
5, 79127, Note_on_c, 3, 64, 0
5, 79236, Note_on_c, 3, 64, 41
5, 79283, Note_on_c, 3, 59, 0
5, 79380, Note_on_c, 3, 59, 51
5, 79434, Note_on_c, 3, 64, 0
5, 79549, Note_on_c, 3, 66, 66
5, 79616, Note_on_c, 3, 59, 0
5, 79693, Note_on_c, 3, 59, 60
5, 79743, Note_on_c, 3, 66, 0
5, 79872, Note_on_c, 3, 68, 60
5, 79922, Note_on_c, 3, 59, 0
5, 80000, Note_on_c, 3, 59, 54
5, 80058, Note_on_c, 3, 68, 0
5, 80159, Note_on_c, 3, 68, 67
5, 80228, Note_on_c, 3, 59, 0
5, 80305, Note_on_c, 3, 59, 55
5, 80353, Note_on_c, 3, 68, 0
5, 80457, Note_on_c, 3, 69, 68
5, 80493, Note_on_c, 3, 59, 0
5, 80603, Note_on_c, 3, 59, 65
5, 80668, Note_on_c, 3, 69, 0
5, 80764, Note_on_c, 3, 68, 65
5, 80815, Note_on_c, 3, 59, 0
5, 80916, Note_on_c, 3, 59, 56
5, 80965, Note_on_c, 3, 68, 0
5, 81072, Note_on_c, 3, 68, 58
5, 81128, Note_on_c, 3, 59, 0
5, 81225, Note_on_c, 3, 59, 50
5, 81272, Note_on_c, 3, 68, 0
5, 81384, Note_on_c, 3, 68, 61
5, 81440, Note_on_c, 3, 59, 0
5, 81539, Note_on_c, 3, 59, 51
5, 81563, Note_on_c, 3, 68, 0
5, 81687, Note_on_c, 3, 66, 58
5, 81753, Note_on_c, 3, 59, 0
5, 81833, Note_on_c, 3, 59, 55
5, 81854, Note_on_c, 3, 66, 0
5, 81979, Note_on_c, 3, 66, 61
5, 82018, Note_on_c, 3, 59, 0
5, 82123, Note_on_c, 3, 59, 51
5, 82147, Note_on_c, 3, 66, 0
5, 82276, Note_on_c, 3, 66, 61
5, 82323, Note_on_c, 3, 59, 0
5, 82426, Note_on_c, 3, 59, 57
5, 82450, Note_on_c, 3, 66, 0
5, 82592, Note_on_c, 3, 61, 62
5, 82663, Note_on_c, 3, 59, 0
5, 82743, Note_on_c, 3, 64, 64
5, 82764, Note_on_c, 3, 61, 0
5, 82893, Note_on_c, 3, 63, 71
5, 82959, Note_on_c, 3, 64, 0
5, 83060, Control_c, 3, 11, 80
5, 83060, Note_on_c, 3, 66, 63
5, 83100, Note_on_c, 3, 63, 0
5, 83114, Control_c, 3, 11, 81
5, 83168, Control_c, 3, 11, 82
5, 83220, Note_on_c, 3, 64, 67
5, 83222, Control_c, 3, 11, 83
5, 83258, Note_on_c, 3, 66, 0
5, 83276, Control_c, 3, 11, 84
5, 83330, Control_c, 3, 11, 85
5, 83355, Note_on_c, 3, 59, 63
5, 83384, Control_c, 3, 11, 86
5, 83415, Note_on_c, 3, 64, 0
5, 83438, Control_c, 3, 11, 87
5, 83492, Control_c, 3, 11, 88
5, 83504, Note_on_c, 3, 61, 74
5, 83540, Note_on_c, 3, 59, 0
5, 83546, Control_c, 3, 11, 89
5, 83600, Control_c, 3, 11, 90
5, 83654, Control_c, 3, 11, 91
5, 83655, Note_on_c, 3, 64, 82
5, 83678, Note_on_c, 3, 61, 0
5, 83708, Control_c, 3, 11, 92
5, 83762, Control_c, 3, 11, 93
5, 83795, Note_on_c, 3, 64, 0
5, 83810, Control_c, 3, 11, 94
5, 83826, Note_on_c, 3, 63, 104
5, 83862, Note_on_c, 3, 63, 0
5, 83864, Control_c, 3, 11, 95
5, 83899, Note_on_c, 3, 63, 74
5, 83918, Control_c, 3, 11, 96
5, 83944, Note_on_c, 3, 63, 0
5, 83972, Control_c, 3, 11, 97
5, 83980, Note_on_c, 3, 63, 92
5, 84019, Note_on_c, 3, 63, 0
5, 84026, Control_c, 3, 11, 98
5, 84031, Note_on_c, 3, 63, 92
5, 84079, Note_on_c, 3, 63, 0
5, 84080, Control_c, 3, 11, 99
5, 84132, Control_c, 3, 11, 100
5, 84132, Note_on_c, 3, 64, 120
5, 84169, Note_on_c, 3, 64, 0
5, 84200, Note_on_c, 3, 64, 101
5, 84237, Control_c, 3, 11, 101
5, 84243, Note_on_c, 3, 64, 0
5, 84287, Note_on_c, 3, 64, 98
5, 84323, Note_on_c, 3, 64, 0
5, 84337, Control_c, 3, 11, 102
5, 84351, Note_on_c, 3, 64, 82
5, 84390, Note_on_c, 3, 64, 0
5, 84442, Control_c, 3, 11, 103
5, 84469, Note_on_c, 3, 64, 122
5, 84508, Note_on_c, 3, 64, 0
5, 84535, Note_on_c, 3, 64, 83
5, 84542, Control_c, 3, 11, 104
5, 84581, Note_on_c, 3, 64, 0
5, 84625, Note_on_c, 3, 64, 84
5, 84647, Control_c, 3, 11, 105
5, 84659, Note_on_c, 3, 64, 0
5, 84675, Note_on_c, 3, 64, 62
5, 84722, Note_on_c, 3, 64, 0
5, 84747, Control_c, 3, 11, 106
5, 84764, Note_on_c, 3, 64, 94
5, 84802, Note_on_c, 3, 64, 0
5, 84819, Note_on_c, 3, 64, 65
5, 84852, Control_c, 3, 11, 107
5, 84865, Note_on_c, 3, 64, 0
5, 84917, Note_on_c, 3, 66, 124
5, 84949, Note_on_c, 3, 66, 0
5, 84952, Control_c, 3, 11, 108
5, 84983, Note_on_c, 3, 66, 89
5, 85023, Note_on_c, 3, 66, 0
5, 85052, Control_c, 3, 11, 109
5, 85076, Note_on_c, 3, 66, 93
5, 85104, Note_on_c, 3, 66, 0
5, 85125, Note_on_c, 3, 66, 77
5, 85157, Control_c, 3, 11, 110
5, 85160, Note_on_c, 3, 66, 0
5, 85215, Note_on_c, 3, 67, 121
5, 85252, Note_on_c, 3, 67, 0
5, 85257, Control_c, 3, 11, 111
5, 85274, Note_on_c, 3, 67, 92
5, 85325, Note_on_c, 3, 67, 0
5, 85362, Control_c, 3, 11, 112
5, 85378, Note_on_c, 3, 66, 126
5, 85414, Note_on_c, 3, 66, 0
5, 85440, Note_on_c, 3, 66, 92
5, 85462, Control_c, 3, 11, 113
5, 85483, Note_on_c, 3, 66, 0
5, 85514, Note_on_c, 3, 66, 71
5, 85535, Note_on_c, 3, 66, 0
5, 85567, Control_c, 3, 11, 114
5, 85573, Note_on_c, 3, 66, 85
5, 85622, Note_on_c, 3, 66, 0
5, 85667, Control_c, 3, 11, 115
5, 85702, Note_on_c, 3, 66, 109
5, 85737, Note_on_c, 3, 66, 0
5, 85762, Note_on_c, 3, 66, 87
5, 85767, Control_c, 3, 11, 116
5, 85791, Note_on_c, 3, 66, 0
5, 85807, Note_on_c, 3, 66, 87
5, 85844, Note_on_c, 3, 66, 0
5, 85866, Note_on_c, 3, 66, 105
5, 85872, Control_c, 3, 11, 117
5, 85924, Note_on_c, 3, 66, 0
5, 85972, Control_c, 3, 11, 118
5, 85987, Note_on_c, 3, 71, 125
5, 86024, Note_on_c, 3, 71, 0
5, 86045, Note_on_c, 3, 71, 101
5, 86077, Control_c, 3, 11, 119
5, 86088, Note_on_c, 3, 71, 0
5, 86114, Note_on_c, 3, 71, 98
5, 86153, Note_on_c, 3, 71, 0
5, 86176, Control_c, 3, 11, 120
5, 86176, Note_on_c, 3, 71, 99
5, 86215, Note_on_c, 3, 71, 0
5, 86255, Note_on_c, 3, 72, 122
5, 86295, Note_on_c, 3, 72, 0
5, 86316, Note_on_c, 3, 72, 98
5, 86366, Note_on_c, 3, 72, 0
5, 86385, Note_on_c, 3, 72, 102
5, 86430, Note_on_c, 3, 72, 0
5, 86452, Note_on_c, 3, 72, 100
5, 86503, Note_on_c, 3, 72, 0
5, 86530, Note_on_c, 3, 73, 119
5, 86566, Note_on_c, 3, 73, 0
5, 86596, Note_on_c, 3, 73, 81
5, 86641, Note_on_c, 3, 73, 0
5, 86665, Note_on_c, 3, 73, 92
5, 86707, Note_on_c, 3, 73, 0
5, 86729, Note_on_c, 3, 73, 100
5, 86770, Note_on_c, 3, 73, 0
5, 86806, Note_on_c, 3, 69, 116
5, 86846, Note_on_c, 3, 69, 0
5, 86867, Note_on_c, 3, 69, 100
5, 86907, Note_on_c, 3, 69, 0
5, 86943, Note_on_c, 3, 69, 98
5, 86982, Note_on_c, 3, 69, 0
5, 87001, Note_on_c, 3, 69, 100
5, 87046, Note_on_c, 3, 69, 0
5, 87085, Note_on_c, 3, 68, 119
5, 87119, Note_on_c, 3, 68, 0
5, 87150, Note_on_c, 3, 68, 90
5, 87197, Note_on_c, 3, 68, 0
5, 87222, Note_on_c, 3, 68, 95
5, 87258, Note_on_c, 3, 68, 0
5, 87276, Note_on_c, 3, 68, 103
5, 87320, Note_on_c, 3, 68, 0
5, 87344, Note_on_c, 3, 68, 112
5, 87381, Note_on_c, 3, 68, 0
5, 87401, Note_on_c, 3, 68, 109
5, 87451, Note_on_c, 3, 68, 0
5, 87477, Note_on_c, 3, 68, 95
5, 87520, Note_on_c, 3, 68, 0
5, 87543, Note_on_c, 3, 68, 100
5, 87600, Note_on_c, 3, 68, 0
5, 87659, Note_on_c, 3, 70, 119
5, 87696, Note_on_c, 3, 70, 0
5, 87726, Note_on_c, 3, 70, 88
5, 87774, Note_on_c, 3, 70, 0
5, 87795, Note_on_c, 3, 70, 89
5, 87821, Note_on_c, 3, 70, 0
5, 87851, Note_on_c, 3, 70, 107
5, 87903, Note_on_c, 3, 70, 0
5, 87940, Note_on_c, 3, 71, 117
5, 87976, Note_on_c, 3, 71, 0
5, 88000, Note_on_c, 3, 71, 101
5, 88046, Note_on_c, 3, 71, 0
5, 88078, Note_on_c, 3, 71, 90
5, 88118, Note_on_c, 3, 71, 0
5, 88148, Note_on_c, 3, 71, 91
5, 88210, Note_on_c, 3, 71, 0
5, 88242, Note_on_c, 3, 70, 121
5, 88276, Note_on_c, 3, 70, 0
5, 88302, Note_on_c, 3, 70, 91
5, 88351, Note_on_c, 3, 70, 0
5, 88376, Note_on_c, 3, 70, 88
5, 88409, Note_on_c, 3, 70, 0
5, 88434, Note_on_c, 3, 70, 97
5, 88482, Note_on_c, 3, 70, 0
5, 88509, Note_on_c, 3, 70, 91
5, 88545, Note_on_c, 3, 70, 0
5, 88581, Note_on_c, 3, 70, 91
5, 88630, Note_on_c, 3, 70, 0
5, 88678, Note_on_c, 3, 70, 73
5, 88718, Note_on_c, 3, 70, 0
5, 88744, Note_on_c, 3, 70, 98
5, 88789, Note_on_c, 3, 70, 0
5, 88834, Note_on_c, 3, 71, 125
5, 88870, Note_on_c, 3, 71, 0
5, 88891, Note_on_c, 3, 71, 97
5, 88937, Note_on_c, 3, 71, 0
5, 88983, Note_on_c, 3, 71, 100
5, 89020, Note_on_c, 3, 71, 0
5, 89043, Note_on_c, 3, 71, 86
5, 89088, Note_on_c, 3, 71, 0
5, 89146, Note_on_c, 3, 71, 69
5, 89151, Note_on_c, 3, 72, 71
5, 89172, Note_on_c, 3, 72, 0
5, 89174, Note_on_c, 3, 71, 0
5, 89190, Note_on_c, 3, 71, 59
5, 89238, Note_on_c, 3, 71, 0
5, 89277, Note_on_c, 3, 71, 91
5, 89315, Note_on_c, 3, 71, 0
5, 89335, Note_on_c, 3, 71, 91
5, 89387, Note_on_c, 3, 71, 0
5, 89409, Note_on_c, 3, 71, 113
5, 89453, Note_on_c, 3, 71, 0
5, 89470, Note_on_c, 3, 71, 102
5, 89525, Note_on_c, 3, 71, 0
5, 89560, Note_on_c, 3, 71, 91
5, 89662, Note_on_c, 3, 71, 0
5, 89689, Note_on_c, 3, 72, 116
5, 89707, Note_on_c, 3, 66, 101
5, 89732, Note_on_c, 3, 72, 0
5, 89741, Note_on_c, 3, 66, 0
5, 89755, Note_on_c, 3, 72, 86
5, 89768, Note_on_c, 3, 66, 98
5, 89803, Note_on_c, 3, 72, 0
5, 89808, Note_on_c, 3, 66, 0
5, 89829, Note_on_c, 3, 66, 98
5, 89837, Note_on_c, 3, 72, 98
5, 89861, Note_on_c, 3, 66, 0
5, 89874, Note_on_c, 3, 72, 0
5, 89885, Note_on_c, 3, 66, 101
5, 89894, Note_on_c, 3, 72, 92
5, 89918, Note_on_c, 3, 66, 0
5, 89939, Note_on_c, 3, 72, 0
5, 89939, Note_on_c, 3, 66, 98
5, 89960, Note_on_c, 3, 66, 0
5, 89978, Note_on_c, 3, 73, 119
5, 89992, Note_on_c, 3, 64, 116
5, 90014, Note_on_c, 3, 73, 0
5, 90033, Note_on_c, 3, 64, 0
5, 90035, Note_on_c, 3, 73, 103
5, 90062, Note_on_c, 3, 64, 90
5, 90084, Note_on_c, 3, 73, 0
5, 90102, Note_on_c, 3, 64, 0
5, 90121, Note_on_c, 3, 73, 81
5, 90122, Note_on_c, 3, 64, 101
5, 90154, Note_on_c, 3, 73, 0
5, 90161, Note_on_c, 3, 64, 0
5, 90179, Note_on_c, 3, 73, 95
5, 90185, Note_on_c, 3, 64, 98
5, 90223, Note_on_c, 3, 73, 0
5, 90227, Note_on_c, 3, 64, 0
5, 90269, Note_on_c, 3, 73, 96
5, 90302, Note_on_c, 3, 73, 0
5, 90327, Note_on_c, 3, 73, 97
5, 90374, Note_on_c, 3, 73, 0
5, 90422, Note_on_c, 3, 73, 74
5, 90445, Note_on_c, 3, 73, 0
5, 90472, Note_on_c, 3, 73, 93
5, 90502, Note_on_c, 3, 73, 0
5, 90560, Note_on_c, 3, 76, 117
5, 90598, Note_on_c, 3, 76, 0
5, 90619, Note_on_c, 3, 76, 75
5, 90657, Note_on_c, 3, 76, 0
5, 90687, Note_on_c, 3, 76, 108
5, 90784, Note_on_c, 3, 76, 0
5, 90811, Note_on_c, 3, 76, 112
5, 90852, Note_on_c, 3, 76, 0
5, 90870, Note_on_c, 3, 76, 112
5, 90922, Note_on_c, 3, 76, 0
5, 90954, Note_on_c, 3, 76, 112
5, 90995, Note_on_c, 3, 76, 0
5, 91012, Note_on_c, 3, 76, 108
5, 91065, Note_on_c, 3, 76, 0
5, 91087, Note_on_c, 3, 75, 115
5, 91121, Note_on_c, 3, 75, 0
5, 91141, Note_on_c, 3, 75, 107
5, 91191, Note_on_c, 3, 75, 0
5, 91215, Note_on_c, 3, 75, 94
5, 91240, Note_on_c, 3, 75, 0
5, 91264, Note_on_c, 3, 75, 105
5, 91305, Note_on_c, 3, 75, 0
5, 91351, Note_on_c, 3, 76, 121
5, 91376, Note_on_c, 3, 72, 127
5, 91388, Note_on_c, 3, 76, 0
5, 91407, Note_on_c, 3, 76, 106
5, 91414, Note_on_c, 3, 72, 0
5, 91441, Note_on_c, 3, 72, 103
5, 91449, Note_on_c, 3, 76, 0
5, 91486, Note_on_c, 3, 76, 92
5, 91489, Note_on_c, 3, 72, 0
5, 91511, Note_on_c, 3, 72, 107
5, 91522, Note_on_c, 3, 76, 0
5, 91535, Note_on_c, 3, 76, 84
5, 91580, Note_on_c, 3, 76, 0
5, 91607, Note_on_c, 3, 72, 0
5, 91625, Note_on_c, 3, 76, 103
5, 91635, Note_on_c, 3, 72, 107
5, 91658, Note_on_c, 3, 76, 0
5, 91676, Note_on_c, 3, 72, 0
5, 91681, Note_on_c, 3, 76, 101
5, 91691, Note_on_c, 3, 72, 96
5, 91724, Note_on_c, 3, 76, 0
5, 91739, Note_on_c, 3, 72, 0
5, 91754, Note_on_c, 3, 76, 92
5, 91771, Note_on_c, 3, 72, 93
5, 91785, Note_on_c, 3, 76, 0
5, 91804, Note_on_c, 3, 76, 100
5, 91810, Note_on_c, 3, 72, 0
5, 91822, Note_on_c, 3, 72, 77
5, 91848, Note_on_c, 3, 76, 0
5, 91870, Note_on_c, 3, 72, 0
5, 91885, Note_on_c, 3, 76, 103
5, 91901, Note_on_c, 3, 72, 101
5, 91922, Note_on_c, 3, 76, 0
5, 91931, Note_on_c, 3, 76, 78
5, 91987, Note_on_c, 3, 76, 0
5, 91993, Note_on_c, 3, 72, 0
5, 92011, Note_on_c, 3, 76, 104
5, 92031, Note_on_c, 3, 72, 96
5, 92066, Note_on_c, 3, 72, 0
5, 92083, Note_on_c, 3, 72, 97
5, 92128, Note_on_c, 3, 72, 0
5, 92159, Note_on_c, 3, 76, 0
5, 92163, Note_on_c, 3, 67, 114
5, 92176, Note_on_c, 3, 74, 116
5, 92200, Note_on_c, 3, 67, 0
5, 92212, Note_on_c, 3, 67, 81
5, 92214, Note_on_c, 3, 74, 0
5, 92234, Note_on_c, 3, 74, 102
5, 92250, Note_on_c, 3, 67, 0
5, 92277, Note_on_c, 3, 74, 0
5, 92286, Note_on_c, 3, 67, 94
5, 92297, Note_on_c, 3, 74, 109
5, 92332, Note_on_c, 3, 74, 0
5, 92351, Note_on_c, 3, 74, 113
5, 92369, Note_on_c, 3, 67, 0
5, 92399, Note_on_c, 3, 74, 0
5, 92409, Note_on_c, 3, 67, 107
5, 92421, Note_on_c, 3, 74, 114
5, 92441, Note_on_c, 3, 67, 0
5, 92460, Note_on_c, 3, 67, 107
5, 92462, Note_on_c, 3, 74, 0
5, 92480, Note_on_c, 3, 74, 117
5, 92500, Note_on_c, 3, 67, 0
5, 92535, Note_on_c, 3, 67, 106
5, 92537, Note_on_c, 3, 74, 0
5, 92559, Note_on_c, 3, 74, 108
5, 92599, Note_on_c, 3, 74, 0
5, 92614, Note_on_c, 3, 74, 106
5, 92621, Note_on_c, 3, 67, 0
5, 92649, Note_on_c, 3, 67, 112
5, 92659, Note_on_c, 3, 74, 0
5, 92688, Note_on_c, 3, 67, 0
5, 92688, Note_on_c, 3, 77, 127
5, 92705, Note_on_c, 3, 67, 117
5, 92732, Note_on_c, 3, 77, 0
5, 92741, Note_on_c, 3, 77, 100
5, 92751, Note_on_c, 3, 67, 0
5, 92780, Note_on_c, 3, 67, 100
5, 92785, Note_on_c, 3, 77, 0
5, 92810, Note_on_c, 3, 77, 111
5, 92821, Note_on_c, 3, 67, 0
5, 92840, Note_on_c, 3, 67, 106
5, 92888, Note_on_c, 3, 67, 0
5, 92905, Note_on_c, 3, 77, 0
5, 92944, Note_on_c, 3, 72, 122
5, 92955, Note_on_c, 3, 76, 111
5, 92983, Note_on_c, 3, 72, 0
5, 92990, Note_on_c, 3, 76, 0
5, 93009, Note_on_c, 3, 72, 99
5, 93012, Note_on_c, 3, 76, 97
5, 93050, Note_on_c, 3, 72, 0
5, 93053, Note_on_c, 3, 76, 0
5, 93076, Note_on_c, 3, 72, 99
5, 93084, Note_on_c, 3, 76, 97
5, 93112, Note_on_c, 3, 72, 0
5, 93120, Note_on_c, 3, 76, 0
5, 93126, Note_on_c, 3, 72, 99
5, 93138, Note_on_c, 3, 76, 94
5, 93166, Note_on_c, 3, 72, 0
5, 93184, Note_on_c, 3, 76, 0
5, 93212, Note_on_c, 3, 72, 107
5, 93221, Note_on_c, 3, 76, 97
5, 93246, Note_on_c, 3, 72, 0
5, 93255, Note_on_c, 3, 76, 0
5, 93268, Note_on_c, 3, 72, 100
5, 93281, Note_on_c, 3, 76, 98
5, 93307, Note_on_c, 3, 72, 0
5, 93324, Note_on_c, 3, 76, 0
5, 93355, Note_on_c, 3, 76, 94
5, 93357, Note_on_c, 3, 72, 92
5, 93388, Note_on_c, 3, 72, 0
5, 93391, Note_on_c, 3, 76, 0
5, 93414, Note_on_c, 3, 76, 101
5, 93414, Note_on_c, 3, 72, 92
5, 93456, Note_on_c, 3, 72, 0
5, 93462, Note_on_c, 3, 76, 0
5, 93499, Note_on_c, 3, 76, 100
5, 93499, Note_on_c, 3, 72, 93
5, 93535, Note_on_c, 3, 72, 0
5, 93536, Note_on_c, 3, 76, 0
5, 93547, Note_on_c, 3, 72, 84
5, 93552, Note_on_c, 3, 76, 102
5, 93594, Note_on_c, 3, 72, 0
5, 93604, Note_on_c, 3, 76, 0
5, 93628, Note_on_c, 3, 76, 106
5, 93628, Note_on_c, 3, 72, 107
5, 93669, Note_on_c, 3, 72, 0
5, 93672, Note_on_c, 3, 76, 0
5, 93682, Note_on_c, 3, 72, 107
5, 93685, Note_on_c, 3, 76, 94
5, 93730, Note_on_c, 3, 72, 0
5, 93734, Note_on_c, 3, 76, 0
5, 93770, Note_on_c, 3, 74, 116
5, 93777, Note_on_c, 3, 67, 116
5, 93810, Note_on_c, 3, 67, 0
5, 93812, Note_on_c, 3, 74, 0
5, 93831, Note_on_c, 3, 67, 100
5, 93834, Note_on_c, 3, 74, 99
5, 93872, Note_on_c, 3, 67, 0
5, 93878, Note_on_c, 3, 74, 0
5, 93901, Note_on_c, 3, 74, 99
5, 93912, Note_on_c, 3, 67, 96
5, 93943, Note_on_c, 3, 74, 0
5, 93946, Note_on_c, 3, 67, 0
5, 93954, Note_on_c, 3, 74, 82
5, 93959, Note_on_c, 3, 67, 92
5, 94001, Note_on_c, 3, 67, 0
5, 94006, Note_on_c, 3, 74, 0
5, 94033, Note_on_c, 3, 74, 108
5, 94035, Note_on_c, 3, 67, 106
5, 94073, Note_on_c, 3, 67, 0
5, 94077, Note_on_c, 3, 74, 0
5, 94086, Note_on_c, 3, 67, 106
5, 94090, Note_on_c, 3, 74, 100
5, 94129, Note_on_c, 3, 67, 0
5, 94148, Note_on_c, 3, 74, 0
5, 94155, Note_on_c, 3, 67, 112
5, 94169, Note_on_c, 3, 74, 109
5, 94212, Note_on_c, 3, 74, 0
5, 94222, Note_on_c, 3, 74, 93
5, 94244, Note_on_c, 3, 67, 0
5, 94271, Note_on_c, 3, 67, 109
5, 94274, Note_on_c, 3, 74, 0
5, 94299, Note_on_c, 3, 77, 125
5, 94311, Note_on_c, 3, 67, 0
5, 94330, Note_on_c, 3, 67, 114
5, 94345, Note_on_c, 3, 77, 0
5, 94355, Note_on_c, 3, 77, 100
5, 94373, Note_on_c, 3, 67, 0
5, 94400, Note_on_c, 3, 77, 0
5, 94405, Note_on_c, 3, 67, 117
5, 94422, Note_on_c, 3, 77, 113
5, 94445, Note_on_c, 3, 67, 0
5, 94456, Note_on_c, 3, 67, 120
5, 94494, Note_on_c, 3, 67, 0
5, 94523, Note_on_c, 3, 77, 0
5, 94570, Note_on_c, 3, 76, 127
5, 94583, Note_on_c, 3, 67, 118
5, 94652, Note_on_c, 3, 67, 0
5, 94695, Note_on_c, 3, 76, 0
5, 101989, Note_on_c, 3, 76, 126
5, 102028, Note_on_c, 3, 76, 0
5, 102057, Note_on_c, 3, 76, 80
5, 102103, Note_on_c, 3, 76, 0
5, 102122, Note_on_c, 3, 76, 116
5, 102162, Note_on_c, 3, 76, 0
5, 102186, Note_on_c, 3, 76, 96
5, 102232, Note_on_c, 3, 76, 0
5, 102263, Note_on_c, 3, 76, 100
5, 102304, Note_on_c, 3, 76, 0
5, 102326, Note_on_c, 3, 76, 96
5, 102367, Note_on_c, 3, 76, 0
5, 102402, Note_on_c, 3, 76, 109
5, 102444, Note_on_c, 3, 76, 0
5, 102462, Note_on_c, 3, 76, 94
5, 102507, Note_on_c, 3, 76, 0
5, 102548, Note_on_c, 3, 76, 114
5, 102589, Note_on_c, 3, 76, 0
5, 102609, Note_on_c, 3, 76, 99
5, 102658, Note_on_c, 3, 76, 0
5, 102687, Note_on_c, 3, 76, 102
5, 102736, Note_on_c, 3, 76, 0
5, 102749, Note_on_c, 3, 76, 85
5, 102799, Note_on_c, 3, 76, 0
5, 102832, Note_on_c, 3, 74, 114
5, 102875, Note_on_c, 3, 74, 0
5, 102898, Note_on_c, 3, 74, 93
5, 102941, Note_on_c, 3, 74, 0
5, 102969, Note_on_c, 3, 74, 101
5, 103069, Note_on_c, 3, 74, 0
5, 103118, Note_on_c, 3, 74, 111
5, 103219, Note_on_c, 3, 74, 0
5, 103252, Note_on_c, 3, 74, 92
5, 103288, Note_on_c, 3, 74, 0
5, 103312, Note_on_c, 3, 74, 90
5, 103354, Note_on_c, 3, 74, 0
5, 103403, Note_on_c, 3, 77, 127
5, 103442, Note_on_c, 3, 77, 0
5, 103471, Note_on_c, 3, 77, 84
5, 103517, Note_on_c, 3, 77, 0
5, 103538, Note_on_c, 3, 77, 108
5, 103643, Note_on_c, 3, 77, 0
5, 103680, Note_on_c, 3, 76, 121
5, 103721, Note_on_c, 3, 76, 0
5, 103744, Note_on_c, 3, 76, 99
5, 103789, Note_on_c, 3, 76, 0
5, 103823, Note_on_c, 3, 76, 103
5, 103861, Note_on_c, 3, 76, 0
5, 103875, Note_on_c, 3, 76, 76
5, 103916, Note_on_c, 3, 76, 0
5, 103950, Note_on_c, 3, 76, 101
5, 103989, Note_on_c, 3, 76, 0
5, 104013, Note_on_c, 3, 76, 99
5, 104055, Note_on_c, 3, 76, 0
5, 104093, Note_on_c, 3, 76, 113
5, 104131, Note_on_c, 3, 76, 0
5, 104154, Note_on_c, 3, 76, 102
5, 104198, Note_on_c, 3, 76, 0
5, 104235, Note_on_c, 3, 76, 112
5, 104273, Note_on_c, 3, 76, 0
5, 104293, Note_on_c, 3, 76, 109
5, 104338, Note_on_c, 3, 76, 0
5, 104373, Note_on_c, 3, 76, 109
5, 104412, Note_on_c, 3, 76, 0
5, 104431, Note_on_c, 3, 76, 106
5, 104475, Note_on_c, 3, 76, 0
5, 104516, Note_on_c, 3, 74, 113
5, 104555, Note_on_c, 3, 74, 0
5, 104578, Note_on_c, 3, 74, 97
5, 104621, Note_on_c, 3, 74, 0
5, 104647, Note_on_c, 3, 74, 103
5, 104689, Note_on_c, 3, 74, 0
5, 104711, Note_on_c, 3, 74, 103
5, 104758, Note_on_c, 3, 74, 0
5, 104784, Note_on_c, 3, 74, 114
5, 104824, Note_on_c, 3, 74, 0
5, 104844, Note_on_c, 3, 74, 107
5, 104889, Note_on_c, 3, 74, 0
5, 104918, Note_on_c, 3, 74, 114
5, 104958, Note_on_c, 3, 74, 0
5, 104977, Note_on_c, 3, 74, 111
5, 105022, Note_on_c, 3, 74, 0
5, 105062, Note_on_c, 3, 77, 126
5, 105106, Note_on_c, 3, 77, 0
5, 105126, Note_on_c, 3, 77, 111
5, 105166, Note_on_c, 3, 77, 0
5, 105202, Note_on_c, 3, 77, 120
5, 105298, Note_on_c, 3, 77, 0
5, 105361, Note_on_c, 3, 76, 126
5, 105577, Note_on_c, 3, 76, 0
5, 108720, Control_c, 3, 11, 80
5, 110261, Note_on_c, 3, 65, 50
5, 110556, Note_on_c, 3, 64, 46
5, 110597, Note_on_c, 3, 65, 0
5, 110879, Note_on_c, 3, 60, 48
5, 110881, Note_on_c, 3, 60, 0
5, 110947, Note_on_c, 3, 64, 0
5, 111244, Note_on_c, 3, 55, 30
5, 112206, Note_on_c, 3, 57, 26
5, 112241, Note_on_c, 3, 55, 0
5, 113351, Note_on_c, 3, 55, 25
5, 113359, Note_on_c, 3, 57, 0
5, 113838, Note_on_c, 3, 55, 0
5, 114340, Note_on_c, 3, 68, 50
5, 114475, Note_on_c, 3, 68, 0
5, 114642, Note_on_c, 3, 68, 53
5, 114770, Note_on_c, 3, 68, 0
5, 114944, Note_on_c, 3, 68, 57
5, 115050, Note_on_c, 3, 68, 0
5, 115249, Note_on_c, 3, 68, 50
5, 115592, Note_on_c, 3, 69, 39
5, 115641, Note_on_c, 3, 68, 0
5, 116791, Note_on_c, 3, 69, 0
5, 116905, Note_on_c, 3, 69, 40
5, 117250, Note_on_c, 3, 67, 38
5, 117272, Note_on_c, 3, 69, 0
5, 117406, Note_on_c, 3, 69, 46
5, 117458, Note_on_c, 3, 67, 0
5, 117590, Note_on_c, 3, 71, 35
5, 117669, Note_on_c, 3, 69, 0
5, 117854, Note_on_c, 3, 71, 0
5, 117933, Note_on_c, 3, 67, 44
5, 118241, Note_on_c, 3, 68, 51
5, 118262, Note_on_c, 3, 67, 0
5, 118425, Note_on_c, 3, 69, 52
5, 118432, Note_on_c, 3, 68, 0
5, 118599, Note_on_c, 3, 71, 53
5, 118622, Note_on_c, 3, 69, 0
5, 118918, Note_on_c, 3, 69, 52
5, 118926, Note_on_c, 3, 71, 0
5, 119089, Note_on_c, 3, 68, 55
5, 119116, Note_on_c, 3, 69, 0
5, 119267, Note_on_c, 3, 68, 0
5, 119277, Note_on_c, 3, 69, 38
5, 120045, Note_on_c, 3, 64, 40
5, 120046, Note_on_c, 3, 69, 0
5, 120738, Note_on_c, 3, 63, 46
5, 120860, Note_on_c, 3, 64, 0
5, 121529, Note_on_c, 3, 63, 0
5, 122661, Note_on_c, 3, 60, 38
5, 123121, Note_on_c, 3, 60, 0
5, 123379, Note_on_c, 3, 63, 39
5, 123738, Note_on_c, 3, 64, 46
5, 123779, Note_on_c, 3, 63, 0
5, 124858, Note_on_c, 3, 60, 30
5, 124903, Note_on_c, 3, 64, 0
5, 125281, Note_on_c, 3, 60, 0
5, 125603, Note_on_c, 3, 63, 39
5, 126002, Note_on_c, 3, 64, 26
5, 126043, Note_on_c, 3, 63, 0
5, 128203, Note_on_c, 3, 64, 0
5, 128543, Control_c, 3, 11, 80
5, 128543, Note_on_c, 3, 63, 44
5, 128683, Control_c, 3, 11, 79
5, 128823, Control_c, 3, 11, 78
5, 128963, Control_c, 3, 11, 77
5, 129103, Control_c, 3, 11, 76
5, 129243, Control_c, 3, 11, 75
5, 129383, Control_c, 3, 11, 74
5, 129523, Control_c, 3, 11, 73
5, 129663, Control_c, 3, 11, 72
5, 129798, Control_c, 3, 11, 71
5, 129938, Control_c, 3, 11, 70
5, 130078, Control_c, 3, 11, 69
5, 130218, Control_c, 3, 11, 68
5, 130358, Control_c, 3, 11, 67
5, 130498, Control_c, 3, 11, 66
5, 130638, Control_c, 3, 11, 65
5, 130778, Control_c, 3, 11, 64
5, 130913, Control_c, 3, 11, 63
5, 131053, Control_c, 3, 11, 62
5, 131193, Control_c, 3, 11, 61
5, 131332, Control_c, 3, 11, 60
5, 131332, Note_on_c, 3, 64, 33
5, 131446, Note_on_c, 3, 63, 0
5, 131695, Note_on_c, 3, 64, 0
5, 131760, Program_c, 3, 45
5, 131760, Control_c, 3, 91, 120
5, 131760, Control_c, 3, 11, 80
5, 132505, Note_on_c, 3, 66, 103
5, 132540, Note_on_c, 3, 66, 0
5, 132850, Note_on_c, 3, 64, 85
5, 132897, Note_on_c, 3, 64, 0
5, 133270, Note_on_c, 3, 67, 81
5, 133323, Note_on_c, 3, 67, 0
5, 140788, Note_on_c, 3, 69, 92
5, 140826, Note_on_c, 3, 69, 0
5, 141120, Note_on_c, 3, 69, 100
5, 141157, Note_on_c, 3, 69, 0
5, 141439, Note_on_c, 3, 69, 76
5, 141469, Note_on_c, 3, 69, 0
5, 141840, Program_c, 3, 49
5, 141840, Control_c, 3, 91, 60
5, 141840, Control_c, 3, 11, 60
5, 144924, Control_c, 3, 11, 60
5, 144924, Note_on_c, 3, 66, 53
5, 144929, Control_c, 3, 11, 63
5, 144934, Control_c, 3, 11, 64
5, 144939, Control_c, 3, 11, 66
5, 144944, Control_c, 3, 11, 67
5, 144949, Control_c, 3, 11, 69
5, 144954, Control_c, 3, 11, 70
5, 144959, Control_c, 3, 11, 71
5, 144964, Control_c, 3, 11, 72
5, 144974, Control_c, 3, 11, 73
5, 144979, Control_c, 3, 11, 74
5, 144984, Control_c, 3, 11, 75
5, 144994, Control_c, 3, 11, 76
5, 145004, Control_c, 3, 11, 77
5, 145019, Control_c, 3, 11, 78
5, 145039, Control_c, 3, 11, 79
5, 145074, Control_c, 3, 11, 80
5, 145326, Note_on_c, 3, 64, 56
5, 145387, Note_on_c, 3, 66, 0
5, 146129, Note_on_c, 3, 63, 62
5, 146334, Note_on_c, 3, 64, 0
5, 146688, Note_on_c, 3, 64, 42
5, 146782, Note_on_c, 3, 63, 0
5, 147298, Note_on_c, 3, 64, 0
5, 148010, Control_c, 3, 11, 80
5, 150813, Control_c, 3, 11, 50
5, 150813, Note_on_c, 3, 55, 59
5, 150818, Control_c, 3, 11, 53
5, 150823, Control_c, 3, 11, 55
5, 150828, Control_c, 3, 11, 56
5, 150833, Control_c, 3, 11, 58
5, 150838, Control_c, 3, 11, 60
5, 150843, Control_c, 3, 11, 61
5, 150848, Control_c, 3, 11, 63
5, 150853, Control_c, 3, 11, 64
5, 150858, Control_c, 3, 11, 65
5, 150863, Control_c, 3, 11, 66
5, 150868, Control_c, 3, 11, 67
5, 150873, Control_c, 3, 11, 68
5, 150878, Control_c, 3, 11, 69
5, 150883, Control_c, 3, 11, 70
5, 150893, Control_c, 3, 11, 71
5, 150898, Control_c, 3, 11, 72
5, 150908, Control_c, 3, 11, 73
5, 150913, Control_c, 3, 11, 74
5, 150928, Control_c, 3, 11, 75
5, 150938, Control_c, 3, 11, 76
5, 150953, Control_c, 3, 11, 77
5, 150973, Control_c, 3, 11, 78
5, 150998, Control_c, 3, 11, 79
5, 151048, Control_c, 3, 11, 80
5, 151460, Note_on_c, 3, 59, 55
5, 151590, Note_on_c, 3, 55, 0
5, 151914, Note_on_c, 3, 57, 59
5, 151920, Control_c, 3, 11, 80
5, 151960, Control_c, 3, 11, 79
5, 151965, Note_on_c, 3, 59, 0
5, 151995, Control_c, 3, 11, 78
5, 152030, Control_c, 3, 11, 77
5, 152065, Control_c, 3, 11, 76
5, 152100, Control_c, 3, 11, 75
5, 152140, Control_c, 3, 11, 74
5, 152175, Control_c, 3, 11, 73
5, 152210, Control_c, 3, 11, 72
5, 152245, Control_c, 3, 11, 71
5, 152280, Control_c, 3, 11, 70
5, 152320, Control_c, 3, 11, 69
5, 152355, Control_c, 3, 11, 68
5, 152390, Control_c, 3, 11, 67
5, 152425, Control_c, 3, 11, 66
5, 152460, Control_c, 3, 11, 65
5, 152500, Control_c, 3, 11, 64
5, 152535, Control_c, 3, 11, 63
5, 152570, Control_c, 3, 11, 62
5, 152605, Control_c, 3, 11, 61
5, 152640, Control_c, 3, 11, 60
5, 154560, Control_c, 3, 11, 60
5, 154595, Control_c, 3, 11, 61
5, 154625, Control_c, 3, 11, 62
5, 154660, Control_c, 3, 11, 63
5, 154690, Control_c, 3, 11, 64
5, 154720, Control_c, 3, 11, 65
5, 154755, Control_c, 3, 11, 66
5, 154785, Control_c, 3, 11, 67
5, 154820, Control_c, 3, 11, 68
5, 154850, Control_c, 3, 11, 69
5, 154880, Control_c, 3, 11, 70
5, 154915, Control_c, 3, 11, 71
5, 154945, Control_c, 3, 11, 72
5, 154980, Control_c, 3, 11, 73
5, 155010, Control_c, 3, 11, 74
5, 155040, Control_c, 3, 11, 75
5, 155075, Control_c, 3, 11, 76
5, 155105, Control_c, 3, 11, 77
5, 155140, Control_c, 3, 11, 78
5, 155170, Control_c, 3, 11, 79
5, 155200, Control_c, 3, 11, 80
5, 155235, Control_c, 3, 11, 81
5, 155265, Control_c, 3, 11, 82
5, 155300, Control_c, 3, 11, 83
5, 155330, Control_c, 3, 11, 84
5, 155360, Control_c, 3, 11, 85
5, 155395, Control_c, 3, 11, 86
5, 155425, Control_c, 3, 11, 87
5, 155460, Control_c, 3, 11, 86
5, 155490, Control_c, 3, 11, 85
5, 155520, Control_c, 3, 11, 84
5, 155550, Control_c, 3, 11, 83
5, 155580, Control_c, 3, 11, 82
5, 155610, Control_c, 3, 11, 81
5, 155640, Control_c, 3, 11, 80
5, 155670, Control_c, 3, 11, 79
5, 155700, Control_c, 3, 11, 78
5, 155730, Control_c, 3, 11, 77
5, 155760, Control_c, 3, 11, 76
5, 155790, Control_c, 3, 11, 75
5, 155820, Control_c, 3, 11, 74
5, 155850, Control_c, 3, 11, 73
5, 155880, Control_c, 3, 11, 72
5, 155910, Control_c, 3, 11, 71
5, 155940, Control_c, 3, 11, 70
5, 155970, Control_c, 3, 11, 69
5, 156000, Control_c, 3, 11, 68
5, 156030, Control_c, 3, 11, 67
5, 156060, Control_c, 3, 11, 66
5, 156090, Control_c, 3, 11, 65
5, 156120, Control_c, 3, 11, 64
5, 156150, Control_c, 3, 11, 63
5, 156180, Control_c, 3, 11, 62
5, 156210, Control_c, 3, 11, 61
5, 156240, Control_c, 3, 11, 60
5, 156639, Note_on_c, 3, 55, 66
5, 156684, Note_on_c, 3, 57, 0
5, 157128, Note_on_c, 3, 55, 0
5, 160800, Control_c, 3, 11, 80
5, 160845, Note_on_c, 3, 66, 74
5, 161319, Note_on_c, 3, 67, 62
5, 161328, Note_on_c, 3, 66, 0
5, 162018, Note_on_c, 3, 66, 69
5, 162093, Note_on_c, 3, 67, 0
5, 162335, Note_on_c, 3, 64, 62
5, 162360, Note_on_c, 3, 66, 0
5, 163469, Note_on_c, 3, 63, 70
5, 163481, Note_on_c, 3, 64, 0
5, 163874, Note_on_c, 3, 63, 0
5, 163918, Note_on_c, 3, 65, 51
5, 164376, Note_on_c, 3, 62, 66
5, 164453, Note_on_c, 3, 65, 0
5, 164798, Note_on_c, 3, 64, 52
5, 164848, Note_on_c, 3, 62, 0
5, 165634, Note_on_c, 3, 64, 0
5, 165636, Note_on_c, 3, 60, 62
5, 166037, Note_on_c, 3, 59, 42
5, 166087, Note_on_c, 3, 60, 0
5, 166958, Note_on_c, 3, 59, 0
5, 167644, Note_on_c, 3, 55, 36
5, 170996, Note_on_c, 3, 55, 0
5, 171024, Note_on_c, 3, 56, 76
5, 171409, Note_on_c, 3, 57, 76
5, 171451, Note_on_c, 3, 56, 0
5, 172336, Note_on_c, 3, 57, 0
5, 172492, Note_on_c, 3, 57, 88
5, 173233, Note_on_c, 3, 55, 89
5, 173249, Note_on_c, 3, 57, 0
5, 173575, Note_on_c, 3, 55, 0
5, 173642, Note_on_c, 3, 63, 99
5, 173950, Note_on_c, 3, 64, 87
5, 173984, Note_on_c, 3, 63, 0
5, 174237, Note_on_c, 3, 62, 103
5, 174257, Note_on_c, 3, 64, 0
5, 174689, Note_on_c, 3, 60, 86
5, 174749, Note_on_c, 3, 62, 0
5, 174960, Control_c, 3, 11, 80
5, 174961, Note_on_c, 3, 60, 0
5, 175000, Control_c, 3, 11, 79
5, 175035, Control_c, 3, 11, 78
5, 175070, Control_c, 3, 11, 77
5, 175105, Control_c, 3, 11, 76
5, 175140, Control_c, 3, 11, 75
5, 175180, Control_c, 3, 11, 74
5, 175215, Control_c, 3, 11, 73
5, 175250, Control_c, 3, 11, 72
5, 175285, Control_c, 3, 11, 71
5, 175320, Control_c, 3, 11, 70
5, 175360, Control_c, 3, 11, 69
5, 175395, Control_c, 3, 11, 68
5, 175430, Control_c, 3, 11, 67
5, 175465, Control_c, 3, 11, 66
5, 175500, Control_c, 3, 11, 65
5, 175540, Control_c, 3, 11, 64
5, 175575, Control_c, 3, 11, 63
5, 175610, Control_c, 3, 11, 62
5, 175645, Control_c, 3, 11, 61
5, 175680, Control_c, 3, 11, 60
5, 175864, Note_on_c, 3, 59, 58
5, 176458, Note_on_c, 3, 59, 0
5, 176717, Note_on_c, 3, 57, 65
5, 177607, Note_on_c, 3, 55, 48
5, 177638, Note_on_c, 3, 57, 0
5, 177815, Note_on_c, 3, 55, 0
5, 178053, Note_on_c, 3, 67, 54
5, 178378, Note_on_c, 3, 69, 60
5, 178387, Note_on_c, 3, 67, 0
5, 178574, Note_on_c, 3, 69, 0
5, 178883, Note_on_c, 3, 67, 78
5, 179154, Note_on_c, 3, 69, 64
5, 179189, Note_on_c, 3, 67, 0
5, 179306, Note_on_c, 3, 69, 0
5, 179622, Note_on_c, 3, 67, 80
5, 179923, Note_on_c, 3, 66, 84
5, 179973, Note_on_c, 3, 67, 0
5, 180205, Note_on_c, 3, 64, 81
5, 180242, Note_on_c, 3, 66, 0
5, 180433, Note_on_c, 3, 61, 87
5, 180447, Note_on_c, 3, 64, 0
5, 180685, Note_on_c, 3, 63, 83
5, 180706, Note_on_c, 3, 61, 0
5, 180925, Note_on_c, 3, 64, 59
5, 180938, Note_on_c, 3, 63, 0
5, 181104, Note_on_c, 3, 64, 0
5, 181263, Note_on_c, 3, 67, 80
5, 181524, Note_on_c, 3, 67, 0
5, 181532, Note_on_c, 3, 69, 38
5, 181674, Note_on_c, 3, 69, 0
5, 181969, Note_on_c, 3, 67, 76
5, 182211, Note_on_c, 3, 69, 71
5, 182221, Note_on_c, 3, 67, 0
5, 182442, Note_on_c, 3, 67, 77
5, 182462, Note_on_c, 3, 69, 0
5, 182720, Note_on_c, 3, 67, 0
5, 183051, Note_on_c, 3, 59, 82
5, 183585, Note_on_c, 3, 56, 85
5, 183586, Note_on_c, 3, 59, 0
5, 183835, Note_on_c, 3, 58, 99
5, 183854, Note_on_c, 3, 56, 0
5, 184176, Note_on_c, 3, 58, 0
5, 184227, Note_on_c, 3, 59, 59
5, 184417, Note_on_c, 3, 59, 0
5, 184577, Note_on_c, 3, 62, 87
5, 184843, Note_on_c, 3, 64, 77
5, 184852, Note_on_c, 3, 62, 0
5, 184999, Note_on_c, 3, 64, 0
5, 185340, Note_on_c, 3, 62, 88
5, 185584, Note_on_c, 3, 62, 0
5, 185590, Note_on_c, 3, 64, 68
5, 185764, Note_on_c, 3, 64, 0
5, 185829, Note_on_c, 3, 62, 65
5, 185983, Note_on_c, 3, 62, 0
5, 186080, Note_on_c, 3, 66, 94
5, 186450, Note_on_c, 3, 64, 89
5, 186492, Note_on_c, 3, 66, 0
5, 186719, Note_on_c, 3, 62, 98
5, 186774, Note_on_c, 3, 64, 0
5, 186958, Note_on_c, 3, 59, 89
5, 187002, Note_on_c, 3, 62, 0
5, 187200, Note_on_c, 3, 61, 105
5, 187233, Note_on_c, 3, 59, 0
5, 187493, Note_on_c, 3, 61, 0
5, 187503, Note_on_c, 3, 62, 74
5, 187677, Note_on_c, 3, 62, 0
5, 187799, Note_on_c, 3, 62, 96
5, 188029, Note_on_c, 3, 64, 63
5, 188060, Note_on_c, 3, 62, 0
5, 188211, Note_on_c, 3, 64, 0
5, 188496, Note_on_c, 3, 62, 99
5, 188754, Note_on_c, 3, 64, 97
5, 188787, Note_on_c, 3, 62, 0
5, 189995, Note_on_c, 3, 63, 93
5, 190037, Note_on_c, 3, 64, 0
5, 190534, Note_on_c, 3, 63, 0
5, 190574, Note_on_c, 3, 66, 105
5, 190912, Note_on_c, 3, 64, 88
5, 190932, Note_on_c, 3, 66, 0
5, 191063, Note_on_c, 3, 64, 0
5, 191350, Note_on_c, 3, 61, 85
5, 192052, Note_on_c, 3, 61, 0
5, 192118, Note_on_c, 3, 61, 82
5, 192210, Note_on_c, 3, 61, 0
5, 192357, Note_on_c, 3, 61, 70
5, 192462, Note_on_c, 3, 61, 0
5, 192577, Note_on_c, 3, 61, 40
5, 192792, Note_on_c, 3, 61, 0
5, 194073, Note_on_c, 3, 64, 91
5, 194335, Note_on_c, 3, 63, 86
5, 194366, Note_on_c, 3, 64, 0
5, 194502, Note_on_c, 3, 63, 0
5, 194768, Note_on_c, 3, 64, 91
5, 195332, Note_on_c, 3, 66, 87
5, 195370, Note_on_c, 3, 64, 0
5, 195551, Note_on_c, 3, 66, 0
5, 195572, Note_on_c, 3, 66, 106
5, 195746, Note_on_c, 3, 66, 0
5, 195773, Note_on_c, 3, 66, 101
5, 195929, Note_on_c, 3, 66, 0
5, 196016, Note_on_c, 3, 66, 80
5, 196201, Note_on_c, 3, 66, 0
5, 197040, Control_c, 3, 11, 80
5, 197444, Note_on_c, 3, 69, 120
5, 197751, Note_on_c, 3, 67, 117
5, 197786, Note_on_c, 3, 69, 0
5, 197842, Note_on_c, 3, 67, 0
5, 198095, Note_on_c, 3, 60, 122
5, 198720, Note_on_c, 3, 60, 0
5, 198986, Note_on_c, 3, 67, 124
5, 199223, Note_on_c, 3, 67, 0
5, 199266, Note_on_c, 3, 76, 125
5, 199355, Note_on_c, 3, 76, 0
5, 199554, Note_on_c, 3, 59, 122
5, 200239, Note_on_c, 3, 59, 0
5, 200446, Note_on_c, 3, 67, 108
5, 200712, Note_on_c, 3, 67, 0
5, 200723, Note_on_c, 3, 76, 120
5, 200784, Note_on_c, 3, 76, 0
5, 200989, Note_on_c, 3, 58, 120
5, 201490, Note_on_c, 3, 58, 0
5, 201672, Note_on_c, 3, 58, 120
5, 201925, Note_on_c, 3, 59, 118
5, 201958, Note_on_c, 3, 58, 0
5, 202145, Note_on_c, 3, 59, 0
5, 202176, Note_on_c, 3, 60, 124
5, 202321, Note_on_c, 3, 60, 0
5, 203679, Note_on_c, 3, 60, 126
5, 203761, Note_on_c, 3, 60, 0
5, 204063, Control_c, 3, 11, 80
5, 204063, Note_on_c, 3, 59, 118
5, 204068, Control_c, 3, 11, 78
5, 204073, Control_c, 3, 11, 77
5, 204078, Control_c, 3, 11, 76
5, 204083, Control_c, 3, 11, 75
5, 204088, Control_c, 3, 11, 74
5, 204093, Control_c, 3, 11, 73
5, 204098, Control_c, 3, 11, 72
5, 204103, Control_c, 3, 11, 71
5, 204108, Control_c, 3, 11, 70
5, 204113, Control_c, 3, 11, 69
5, 204118, Control_c, 3, 11, 68
5, 204123, Control_c, 3, 11, 67
5, 204128, Control_c, 3, 11, 66
5, 204138, Control_c, 3, 11, 65
5, 204148, Control_c, 3, 11, 64
5, 204153, Control_c, 3, 11, 63
5, 204163, Control_c, 3, 11, 62
5, 204173, Control_c, 3, 11, 61
5, 204183, Control_c, 3, 11, 60
5, 204193, Control_c, 3, 11, 59
5, 204208, Control_c, 3, 11, 58
5, 204218, Control_c, 3, 11, 57
5, 204233, Control_c, 3, 11, 56
5, 204253, Control_c, 3, 11, 55
5, 204278, Control_c, 3, 11, 54
5, 204298, Control_c, 3, 11, 53
5, 204333, Control_c, 3, 11, 52
5, 204378, Control_c, 3, 11, 51
5, 204458, Control_c, 3, 11, 50
5, 206068, Note_on_c, 3, 59, 0
5, 207752, Control_c, 3, 11, 80
5, 207752, Note_on_c, 3, 64, 78
5, 208414, Note_on_c, 3, 63, 84
5, 208443, Note_on_c, 3, 64, 0
5, 209086, Note_on_c, 3, 63, 0
5, 209135, Note_on_c, 3, 64, 85
5, 211149, Note_on_c, 3, 64, 0
5, 213070, Control_c, 3, 11, 50
5, 213070, Note_on_c, 3, 57, 53
5, 213075, Control_c, 3, 11, 52
5, 213080, Control_c, 3, 11, 53
5, 213085, Control_c, 3, 11, 54
5, 213090, Control_c, 3, 11, 55
5, 213095, Control_c, 3, 11, 56
5, 213105, Control_c, 3, 11, 57
5, 213110, Control_c, 3, 11, 58
5, 213115, Control_c, 3, 11, 59
5, 213120, Control_c, 3, 11, 60
5, 213125, Control_c, 3, 11, 61
5, 213135, Control_c, 3, 11, 62
5, 213140, Control_c, 3, 11, 63
5, 213150, Control_c, 3, 11, 64
5, 213155, Control_c, 3, 11, 65
5, 213170, Control_c, 3, 11, 66
5, 213175, Control_c, 3, 11, 67
5, 213185, Control_c, 3, 11, 68
5, 213200, Control_c, 3, 11, 69
5, 213210, Control_c, 3, 11, 70
5, 213225, Control_c, 3, 11, 71
5, 213240, Control_c, 3, 11, 72
5, 213255, Control_c, 3, 11, 73
5, 213270, Control_c, 3, 11, 74
5, 213290, Control_c, 3, 11, 75
5, 213320, Control_c, 3, 11, 76
5, 213345, Control_c, 3, 11, 77
5, 213390, Control_c, 3, 11, 78
5, 213440, Control_c, 3, 11, 79
5, 213535, Control_c, 3, 11, 80
5, 214560, Control_c, 3, 11, 80
5, 214585, Control_c, 3, 11, 79
5, 214610, Control_c, 3, 11, 78
5, 214635, Control_c, 3, 11, 77
5, 214660, Control_c, 3, 11, 76
5, 214680, Control_c, 3, 11, 75
5, 214705, Control_c, 3, 11, 74
5, 214730, Control_c, 3, 11, 73
5, 214755, Control_c, 3, 11, 72
5, 214780, Control_c, 3, 11, 71
5, 214800, Control_c, 3, 11, 70
5, 214825, Control_c, 3, 11, 69
5, 214850, Control_c, 3, 11, 68
5, 214875, Control_c, 3, 11, 67
5, 214900, Control_c, 3, 11, 66
5, 214920, Control_c, 3, 11, 65
5, 214945, Control_c, 3, 11, 64
5, 214970, Control_c, 3, 11, 63
5, 214995, Control_c, 3, 11, 62
5, 215020, Control_c, 3, 11, 61
5, 215040, Control_c, 3, 11, 60
5, 215065, Control_c, 3, 11, 59
5, 215090, Control_c, 3, 11, 58
5, 215115, Control_c, 3, 11, 57
5, 215140, Control_c, 3, 11, 56
5, 215160, Control_c, 3, 11, 55
5, 215185, Control_c, 3, 11, 54
5, 215210, Control_c, 3, 11, 53
5, 215235, Control_c, 3, 11, 52
5, 215260, Control_c, 3, 11, 51
5, 215280, Control_c, 3, 11, 50
5, 215305, Control_c, 3, 11, 49
5, 215330, Control_c, 3, 11, 48
5, 215355, Control_c, 3, 11, 47
5, 215380, Control_c, 3, 11, 46
5, 215400, Control_c, 3, 11, 45
5, 215425, Control_c, 3, 11, 44
5, 215446, Note_on_c, 3, 57, 0
5, 215450, Control_c, 3, 11, 43
5, 215475, Control_c, 3, 11, 42
5, 215500, Control_c, 3, 11, 41
5, 215520, Control_c, 3, 11, 40
5, 224160, Control_c, 3, 11, 60
5, 224172, Note_on_c, 3, 57, 69
5, 224760, Note_on_c, 3, 56, 74
5, 224976, Note_on_c, 3, 57, 0
5, 225161, Note_on_c, 3, 56, 0
5, 231019, Note_on_c, 3, 57, 63
5, 232064, Note_on_c, 3, 56, 68
5, 232095, Note_on_c, 3, 57, 0
5, 232420, Note_on_c, 3, 56, 0
5, 233280, Program_c, 3, 45
5, 233280, Control_c, 3, 91, 120
5, 234544, Note_on_c, 3, 63, 69
5, 234575, Note_on_c, 3, 63, 0
5, 234824, Note_on_c, 3, 63, 87
5, 234863, Note_on_c, 3, 63, 0
5, 235139, Note_on_c, 3, 64, 52
5, 235244, Note_on_c, 3, 64, 0
5, 236595, Note_on_c, 3, 59, 78
5, 236632, Note_on_c, 3, 59, 0
5, 236886, Note_on_c, 3, 59, 59
5, 236967, Note_on_c, 3, 59, 0
5, 237600, Program_c, 3, 49
5, 237600, Control_c, 3, 91, 60
5, 238298, Control_c, 3, 11, 60
5, 238298, Note_on_c, 3, 63, 88
5, 238338, Control_c, 3, 11, 61
5, 238373, Control_c, 3, 11, 62
5, 238413, Control_c, 3, 11, 63
5, 238448, Control_c, 3, 11, 64
5, 238488, Control_c, 3, 11, 65
5, 238523, Control_c, 3, 11, 66
5, 238558, Control_c, 3, 11, 67
5, 238598, Control_c, 3, 11, 68
5, 238602, Note_on_c, 3, 64, 74
5, 238633, Control_c, 3, 11, 69
5, 238658, Note_on_c, 3, 63, 0
5, 238673, Control_c, 3, 11, 70
5, 238708, Control_c, 3, 11, 71
5, 238743, Control_c, 3, 11, 72
5, 238783, Control_c, 3, 11, 73
5, 238818, Control_c, 3, 11, 74
5, 238858, Control_c, 3, 11, 75
5, 238893, Control_c, 3, 11, 76
5, 238928, Control_c, 3, 11, 77
5, 238968, Control_c, 3, 11, 78
5, 239003, Control_c, 3, 11, 79
5, 239040, Control_c, 3, 11, 80
5, 239227, Note_on_c, 3, 64, 0
5, 239721, Note_on_c, 3, 63, 91
5, 240044, Note_on_c, 3, 59, 74
5, 240067, Note_on_c, 3, 63, 0
5, 240768, Note_on_c, 3, 64, 66
5, 240809, Note_on_c, 3, 59, 0
5, 241093, Note_on_c, 3, 66, 99
5, 241153, Note_on_c, 3, 64, 0
5, 241342, Note_on_c, 3, 68, 91
5, 241385, Note_on_c, 3, 66, 0
5, 241582, Note_on_c, 3, 66, 89
5, 241617, Note_on_c, 3, 68, 0
5, 241933, Note_on_c, 3, 63, 82
5, 241938, Note_on_c, 3, 66, 0
5, 242201, Control_c, 3, 11, 80
5, 242201, Note_on_c, 3, 64, 77
5, 242207, Note_on_c, 3, 63, 0
5, 242281, Control_c, 3, 11, 79
5, 242361, Control_c, 3, 11, 78
5, 242441, Control_c, 3, 11, 77
5, 242516, Control_c, 3, 11, 76
5, 242596, Control_c, 3, 11, 75
5, 242676, Control_c, 3, 11, 74
5, 242756, Control_c, 3, 11, 73
5, 242831, Control_c, 3, 11, 72
5, 242911, Control_c, 3, 11, 71
5, 242991, Control_c, 3, 11, 70
5, 243066, Control_c, 3, 11, 69
5, 243092, Note_on_c, 3, 63, 82
5, 243146, Note_on_c, 3, 64, 0
5, 243146, Control_c, 3, 11, 68
5, 243226, Control_c, 3, 11, 67
5, 243306, Control_c, 3, 11, 66
5, 243381, Control_c, 3, 11, 65
5, 243461, Control_c, 3, 11, 64
5, 243541, Control_c, 3, 11, 63
5, 243616, Control_c, 3, 11, 62
5, 243696, Control_c, 3, 11, 61
5, 243776, Control_c, 3, 11, 60
5, 243856, Control_c, 3, 11, 59
5, 243931, Control_c, 3, 11, 58
5, 243980, Note_on_c, 3, 61, 72
5, 244011, Control_c, 3, 11, 57
5, 244028, Note_on_c, 3, 63, 0
5, 244091, Control_c, 3, 11, 56
5, 244166, Control_c, 3, 11, 55
5, 244246, Control_c, 3, 11, 54
5, 244326, Control_c, 3, 11, 53
5, 244360, Note_on_c, 3, 61, 0
5, 244406, Control_c, 3, 11, 52
5, 244481, Control_c, 3, 11, 51
5, 244560, Control_c, 3, 11, 50
5, 244612, Note_on_c, 3, 59, 61
5, 244820, Note_on_c, 3, 59, 0
5, 245040, Control_c, 3, 11, 80
5, 245291, Note_on_c, 3, 59, 83
5, 245837, Note_on_c, 3, 61, 72
5, 245888, Note_on_c, 3, 59, 0
5, 246149, Note_on_c, 3, 61, 0
5, 246652, Control_c, 3, 11, 50
5, 246652, Note_on_c, 3, 59, 65
5, 246687, Control_c, 3, 11, 51
5, 246717, Control_c, 3, 11, 52
5, 246752, Control_c, 3, 11, 53
5, 246782, Control_c, 3, 11, 54
5, 246817, Control_c, 3, 11, 55
5, 246847, Control_c, 3, 11, 56
5, 246882, Control_c, 3, 11, 57
5, 246912, Control_c, 3, 11, 58
5, 246947, Control_c, 3, 11, 59
5, 246977, Control_c, 3, 11, 60
5, 247012, Control_c, 3, 11, 61
5, 247042, Control_c, 3, 11, 62
5, 247077, Control_c, 3, 11, 63
5, 247107, Control_c, 3, 11, 64
5, 247142, Control_c, 3, 11, 65
5, 247172, Control_c, 3, 11, 66
5, 247207, Control_c, 3, 11, 67
5, 247237, Control_c, 3, 11, 68
5, 247272, Control_c, 3, 11, 69
5, 247302, Control_c, 3, 11, 70
5, 247337, Control_c, 3, 11, 71
5, 247367, Control_c, 3, 11, 72
5, 247402, Control_c, 3, 11, 73
5, 247432, Control_c, 3, 11, 74
5, 247467, Control_c, 3, 11, 75
5, 247497, Control_c, 3, 11, 76
5, 247532, Control_c, 3, 11, 77
5, 247562, Control_c, 3, 11, 78
5, 247597, Control_c, 3, 11, 79
5, 247627, Control_c, 3, 11, 80
5, 247627, Control_c, 3, 11, 80
5, 247627, Note_on_c, 3, 60, 85
5, 247633, Note_on_c, 3, 59, 0
5, 247662, Control_c, 3, 11, 79
5, 247697, Control_c, 3, 11, 78
5, 247727, Control_c, 3, 11, 77
5, 247762, Control_c, 3, 11, 76
5, 247792, Control_c, 3, 11, 75
5, 247827, Control_c, 3, 11, 74
5, 247862, Control_c, 3, 11, 73
5, 247892, Control_c, 3, 11, 72
5, 247927, Control_c, 3, 11, 71
5, 247957, Control_c, 3, 11, 70
5, 247992, Control_c, 3, 11, 69
5, 248027, Control_c, 3, 11, 68
5, 248057, Control_c, 3, 11, 67
5, 248092, Control_c, 3, 11, 66
5, 248122, Control_c, 3, 11, 65
5, 248157, Control_c, 3, 11, 64
5, 248187, Control_c, 3, 11, 63
5, 248222, Control_c, 3, 11, 62
5, 248257, Control_c, 3, 11, 61
5, 248287, Control_c, 3, 11, 60
5, 248322, Control_c, 3, 11, 59
5, 248352, Control_c, 3, 11, 58
5, 248387, Control_c, 3, 11, 57
5, 248422, Control_c, 3, 11, 56
5, 248452, Control_c, 3, 11, 55
5, 248487, Control_c, 3, 11, 54
5, 248517, Control_c, 3, 11, 53
5, 248552, Control_c, 3, 11, 52
5, 248581, Note_on_c, 3, 60, 0
5, 248587, Control_c, 3, 11, 51
5, 248616, Control_c, 3, 11, 50
5, 248616, Control_c, 3, 11, 50
5, 248616, Note_on_c, 3, 61, 82
5, 248651, Control_c, 3, 11, 51
5, 248686, Control_c, 3, 11, 52
5, 248716, Control_c, 3, 11, 53
5, 248751, Control_c, 3, 11, 54
5, 248781, Control_c, 3, 11, 55
5, 248816, Control_c, 3, 11, 56
5, 248846, Control_c, 3, 11, 57
5, 248881, Control_c, 3, 11, 58
5, 248911, Control_c, 3, 11, 59
5, 248946, Control_c, 3, 11, 60
5, 248981, Control_c, 3, 11, 61
5, 249011, Control_c, 3, 11, 62
5, 249046, Control_c, 3, 11, 63
5, 249076, Control_c, 3, 11, 64
5, 249111, Control_c, 3, 11, 65
5, 249141, Control_c, 3, 11, 66
5, 249176, Control_c, 3, 11, 67
5, 249206, Control_c, 3, 11, 68
5, 249241, Control_c, 3, 11, 69
5, 249276, Control_c, 3, 11, 70
5, 249306, Control_c, 3, 11, 71
5, 249341, Control_c, 3, 11, 72
5, 249371, Control_c, 3, 11, 73
5, 249406, Control_c, 3, 11, 74
5, 249436, Control_c, 3, 11, 75
5, 249471, Control_c, 3, 11, 76
5, 249501, Control_c, 3, 11, 77
5, 249536, Control_c, 3, 11, 78
5, 249571, Control_c, 3, 11, 79
5, 249574, Note_on_c, 3, 61, 0
5, 249585, Note_on_c, 3, 60, 71
5, 249600, Control_c, 3, 11, 80
5, 249635, Control_c, 3, 11, 79
5, 249665, Control_c, 3, 11, 78
5, 249700, Control_c, 3, 11, 77
5, 249730, Control_c, 3, 11, 76
5, 249760, Control_c, 3, 11, 75
5, 249795, Control_c, 3, 11, 74
5, 249825, Control_c, 3, 11, 73
5, 249860, Control_c, 3, 11, 72
5, 249890, Control_c, 3, 11, 71
5, 249920, Control_c, 3, 11, 70
5, 249955, Control_c, 3, 11, 69
5, 249985, Control_c, 3, 11, 68
5, 250020, Control_c, 3, 11, 67
5, 250050, Control_c, 3, 11, 66
5, 250080, Control_c, 3, 11, 65
5, 250115, Control_c, 3, 11, 64
5, 250145, Control_c, 3, 11, 63
5, 250180, Control_c, 3, 11, 62
5, 250210, Control_c, 3, 11, 61
5, 250240, Control_c, 3, 11, 60
5, 250275, Control_c, 3, 11, 59
5, 250305, Control_c, 3, 11, 58
5, 250340, Control_c, 3, 11, 57
5, 250370, Control_c, 3, 11, 56
5, 250400, Control_c, 3, 11, 55
5, 250435, Control_c, 3, 11, 54
5, 250465, Control_c, 3, 11, 53
5, 250500, Control_c, 3, 11, 52
5, 250530, Control_c, 3, 11, 51
5, 250560, Control_c, 3, 11, 50
5, 250674, Control_c, 3, 11, 50
5, 250674, Note_on_c, 3, 61, 75
5, 250675, Note_on_c, 3, 60, 0
5, 250714, Control_c, 3, 11, 51
5, 250749, Control_c, 3, 11, 52
5, 250784, Control_c, 3, 11, 53
5, 250819, Control_c, 3, 11, 54
5, 250859, Control_c, 3, 11, 55
5, 250894, Control_c, 3, 11, 56
5, 250929, Control_c, 3, 11, 57
5, 250964, Control_c, 3, 11, 58
5, 250999, Control_c, 3, 11, 59
5, 251039, Control_c, 3, 11, 60
5, 251074, Control_c, 3, 11, 61
5, 251109, Control_c, 3, 11, 62
5, 251144, Control_c, 3, 11, 63
5, 251179, Control_c, 3, 11, 64
5, 251219, Control_c, 3, 11, 65
5, 251254, Control_c, 3, 11, 66
5, 251289, Control_c, 3, 11, 67
5, 251324, Control_c, 3, 11, 68
5, 251364, Control_c, 3, 11, 69
5, 251399, Control_c, 3, 11, 70
5, 251434, Control_c, 3, 11, 71
5, 251469, Control_c, 3, 11, 72
5, 251504, Control_c, 3, 11, 73
5, 251544, Control_c, 3, 11, 74
5, 251579, Control_c, 3, 11, 75
5, 251614, Control_c, 3, 11, 76
5, 251649, Control_c, 3, 11, 77
5, 251684, Control_c, 3, 11, 78
5, 251724, Control_c, 3, 11, 79
5, 251745, Note_on_c, 3, 61, 0
5, 251757, Control_c, 3, 11, 80
5, 251757, Note_on_c, 3, 60, 88
5, 251807, Control_c, 3, 11, 79
5, 251857, Control_c, 3, 11, 78
5, 251902, Control_c, 3, 11, 77
5, 251952, Control_c, 3, 11, 76
5, 252002, Control_c, 3, 11, 75
5, 252047, Control_c, 3, 11, 74
5, 252097, Control_c, 3, 11, 73
5, 252142, Control_c, 3, 11, 72
5, 252192, Control_c, 3, 11, 71
5, 252242, Control_c, 3, 11, 70
5, 252287, Control_c, 3, 11, 69
5, 252337, Control_c, 3, 11, 68
5, 252387, Control_c, 3, 11, 67
5, 252432, Control_c, 3, 11, 66
5, 252482, Control_c, 3, 11, 65
5, 252527, Control_c, 3, 11, 64
5, 252577, Control_c, 3, 11, 63
5, 252627, Control_c, 3, 11, 62
5, 252657, Note_on_c, 3, 60, 0
5, 252672, Control_c, 3, 11, 61
5, 252719, Note_on_c, 3, 59, 89
5, 252720, Control_c, 3, 11, 60
5, 254314, Note_on_c, 3, 59, 0
5, 254331, Note_on_c, 3, 57, 63
5, 255183, Note_on_c, 3, 57, 0
5, 255216, Note_on_c, 3, 57, 72
5, 255967, Note_on_c, 3, 56, 87
5, 256015, Note_on_c, 3, 57, 0
5, 257335, Note_on_c, 3, 64, 90
5, 257386, Note_on_c, 3, 56, 0
5, 258224, Note_on_c, 3, 63, 78
5, 258278, Note_on_c, 3, 64, 0
5, 258607, Note_on_c, 3, 64, 60
5, 258658, Note_on_c, 3, 63, 0
5, 259324, Note_on_c, 3, 64, 0
5, 263777, Note_on_c, 3, 55, 89
5, 264831, Note_on_c, 3, 55, 0
5, 265501, Note_on_c, 3, 58, 104
5, 265749, Note_on_c, 3, 58, 0
5, 266246, Note_on_c, 3, 64, 120
5, 267268, Note_on_c, 3, 64, 0
5, 267360, Program_c, 3, 45
5, 267360, Control_c, 3, 91, 120
5, 267905, Note_on_c, 3, 64, 96
5, 267942, Note_on_c, 3, 64, 0
5, 268122, Note_on_c, 3, 64, 101
5, 268159, Note_on_c, 3, 64, 0
5, 268333, Note_on_c, 3, 64, 108
5, 268375, Note_on_c, 3, 64, 0
5, 271018, Note_on_c, 3, 64, 112
5, 271064, Note_on_c, 3, 64, 0
5, 271440, Program_c, 3, 49
5, 271440, Control_c, 3, 91, 60
5, 271920, Control_c, 3, 11, 80
5, 272116, Note_on_c, 3, 57, 111
5, 272466, Note_on_c, 3, 56, 119
5, 272494, Note_on_c, 3, 57, 0
5, 272619, Note_on_c, 3, 56, 0
5, 272880, Program_c, 3, 45
5, 272880, Control_c, 3, 91, 120
5, 273242, Note_on_c, 3, 63, 127
5, 273313, Note_on_c, 3, 63, 0
5, 273985, Note_on_c, 3, 64, 125
5, 274067, Note_on_c, 3, 64, 0
5, 274686, Note_on_c, 3, 63, 127
5, 274801, Note_on_c, 3, 63, 0
5, 275760, Control_c, 3, 11, 60
5, 275941, Note_on_c, 3, 63, 100
5, 276182, Note_on_c, 3, 64, 78
5, 276198, Note_on_c, 3, 63, 0
5, 276365, Note_on_c, 3, 64, 0
5, 276603, Note_on_c, 3, 63, 115
5, 276822, Note_on_c, 3, 64, 93
5, 276841, Note_on_c, 3, 63, 0
5, 277027, Note_on_c, 3, 64, 0
5, 277397, Note_on_c, 3, 63, 127
5, 277476, Note_on_c, 3, 63, 0
5, 277518, Note_on_c, 3, 64, 125
5, 277531, Note_on_c, 3, 63, 99
5, 277545, Note_on_c, 3, 63, 0
5, 277752, Note_on_c, 3, 64, 0
5, 277920, Program_c, 3, 49
5, 277920, Control_c, 3, 91, 60
5, 278119, Note_on_c, 3, 66, 127
5, 278855, Note_on_c, 3, 66, 0
5, 278872, Note_on_c, 3, 65, 116
5, 279121, Note_on_c, 3, 64, 116
5, 279146, Note_on_c, 3, 65, 0
5, 279837, Note_on_c, 3, 64, 0
5, 279862, Note_on_c, 3, 64, 109
5, 280382, Note_on_c, 3, 63, 115
5, 280420, Note_on_c, 3, 64, 0
5, 280623, Note_on_c, 3, 62, 114
5, 280660, Note_on_c, 3, 63, 0
5, 281072, Note_on_c, 3, 59, 112
5, 281083, Note_on_c, 3, 62, 0
5, 281287, Note_on_c, 3, 59, 0
5, 281307, Note_on_c, 3, 60, 120
5, 281521, Note_on_c, 3, 60, 0
5, 281793, Note_on_c, 3, 61, 120
5, 282076, Note_on_c, 3, 59, 114
5, 282110, Note_on_c, 3, 61, 0
5, 282516, Note_on_c, 3, 61, 114
5, 282538, Note_on_c, 3, 59, 0
5, 282758, Note_on_c, 3, 59, 97
5, 282799, Note_on_c, 3, 61, 0
5, 283201, Note_on_c, 3, 59, 0
5, 283680, Control_c, 3, 11, 80
5, 283899, Note_on_c, 3, 69, 125
5, 284267, Note_on_c, 3, 68, 125
5, 284300, Note_on_c, 3, 69, 0
5, 284429, Note_on_c, 3, 68, 0
5, 284640, Program_c, 3, 45
5, 284640, Control_c, 3, 91, 120
5, 285132, Note_on_c, 3, 63, 125
5, 285200, Note_on_c, 3, 63, 0
5, 285915, Note_on_c, 3, 64, 122
5, 285997, Note_on_c, 3, 64, 0
5, 286681, Note_on_c, 3, 63, 124
5, 286783, Note_on_c, 3, 63, 0
5, 287760, Control_c, 3, 11, 60
5, 287982, Note_on_c, 3, 63, 110
5, 288215, Note_on_c, 3, 64, 96
5, 288242, Note_on_c, 3, 63, 0
5, 288354, Note_on_c, 3, 64, 0
5, 288676, Note_on_c, 3, 63, 120
5, 288901, Note_on_c, 3, 64, 113
5, 288920, Note_on_c, 3, 63, 0
5, 289090, Note_on_c, 3, 64, 0
5, 289455, Note_on_c, 3, 63, 127
5, 289523, Note_on_c, 3, 63, 0
5, 289574, Note_on_c, 3, 64, 125
5, 289758, Note_on_c, 3, 64, 0
5, 289920, Program_c, 3, 49
5, 289920, Control_c, 3, 91, 60
5, 290154, Note_on_c, 3, 59, 113
5, 290395, Note_on_c, 3, 57, 84
5, 290487, Note_on_c, 3, 57, 0
5, 291517, Note_on_c, 3, 58, 114
5, 291553, Note_on_c, 3, 59, 0
5, 291809, Note_on_c, 3, 58, 0
5, 291810, Note_on_c, 3, 57, 111
5, 293010, Note_on_c, 3, 59, 116
5, 293032, Note_on_c, 3, 57, 0
5, 293283, Note_on_c, 3, 60, 122
5, 293291, Note_on_c, 3, 59, 0
5, 293761, Note_on_c, 3, 60, 0
5, 293814, Note_on_c, 3, 61, 120
5, 294063, Note_on_c, 3, 59, 113
5, 294097, Note_on_c, 3, 61, 0
5, 294501, Note_on_c, 3, 61, 118
5, 294532, Note_on_c, 3, 59, 0
5, 294734, Note_on_c, 3, 59, 103
5, 294741, Note_on_c, 3, 61, 0
5, 295011, Note_on_c, 3, 59, 0
5, 295829, Control_c, 3, 11, 60
5, 295829, Note_on_c, 3, 63, 124
5, 296004, Control_c, 3, 11, 61
5, 296098, Note_on_c, 3, 61, 114
5, 296137, Note_on_c, 3, 63, 0
5, 296174, Control_c, 3, 11, 62
5, 296344, Control_c, 3, 11, 63
5, 296514, Control_c, 3, 11, 64
5, 296684, Control_c, 3, 11, 65
5, 296750, Note_on_c, 3, 61, 0
5, 296806, Note_on_c, 3, 63, 126
5, 296854, Control_c, 3, 11, 66
5, 297024, Control_c, 3, 11, 67
5, 297199, Control_c, 3, 11, 68
5, 297369, Control_c, 3, 11, 69
5, 297474, Note_on_c, 3, 63, 0
5, 297539, Control_c, 3, 11, 70
5, 297575, Note_on_c, 3, 68, 123
5, 297709, Control_c, 3, 11, 71
5, 297879, Control_c, 3, 11, 72
5, 297889, Note_on_c, 3, 68, 0
5, 297901, Note_on_c, 3, 66, 124
5, 298049, Control_c, 3, 11, 73
5, 298219, Control_c, 3, 11, 74
5, 298241, Note_on_c, 3, 66, 0
5, 298368, Note_on_c, 3, 70, 127
5, 298389, Control_c, 3, 11, 75
5, 298564, Control_c, 3, 11, 76
5, 298637, Note_on_c, 3, 70, 0
5, 298650, Note_on_c, 3, 68, 120
5, 298734, Control_c, 3, 11, 77
5, 298838, Note_on_c, 3, 68, 0
5, 298900, Note_on_c, 3, 70, 125
5, 298904, Control_c, 3, 11, 78
5, 299074, Control_c, 3, 11, 79
5, 299168, Note_on_c, 3, 70, 0
5, 299243, Control_c, 3, 11, 80
5, 299243, Note_on_c, 3, 71, 124
5, 299417, Note_on_c, 3, 71, 0
5, 299813, Note_on_c, 3, 59, 85
5, 300137, Note_on_c, 3, 59, 0
5, 300549, Note_on_c, 3, 59, 82
5, 300847, Note_on_c, 3, 59, 0
5, 301290, Note_on_c, 3, 57, 72
5, 301566, Note_on_c, 3, 58, 105
5, 301604, Note_on_c, 3, 57, 0
5, 301808, Note_on_c, 3, 59, 107
5, 301842, Note_on_c, 3, 58, 0
5, 302051, Note_on_c, 3, 59, 0
5, 302057, Note_on_c, 3, 60, 121
5, 302278, Note_on_c, 3, 61, 127
5, 302303, Note_on_c, 3, 60, 0
5, 302499, Note_on_c, 3, 62, 125
5, 302531, Note_on_c, 3, 61, 0
5, 302719, Note_on_c, 3, 62, 0
5, 307505, Control_c, 3, 11, 80
5, 307505, Note_on_c, 3, 69, 112
5, 307610, Control_c, 3, 11, 81
5, 307715, Control_c, 3, 11, 82
5, 307820, Control_c, 3, 11, 83
5, 307925, Control_c, 3, 11, 84
5, 308030, Control_c, 3, 11, 85
5, 308135, Control_c, 3, 11, 86
5, 308136, Note_on_c, 3, 69, 0
5, 308181, Note_on_c, 3, 69, 109
5, 308211, Note_on_c, 3, 69, 0
5, 308237, Note_on_c, 3, 69, 94
5, 308240, Control_c, 3, 11, 87
5, 308322, Note_on_c, 3, 69, 0
5, 308342, Note_on_c, 3, 69, 109
5, 308345, Control_c, 3, 11, 88
5, 308385, Note_on_c, 3, 69, 0
5, 308399, Note_on_c, 3, 69, 118
5, 308432, Note_on_c, 3, 69, 0
5, 308450, Control_c, 3, 11, 89
5, 308453, Note_on_c, 3, 69, 113
5, 308495, Note_on_c, 3, 69, 0
5, 308511, Note_on_c, 3, 69, 118
5, 308548, Note_on_c, 3, 69, 0
5, 308555, Control_c, 3, 11, 90
5, 308563, Note_on_c, 3, 69, 120
5, 308604, Note_on_c, 3, 69, 0
5, 308614, Note_on_c, 3, 69, 111
5, 308650, Note_on_c, 3, 69, 0
5, 308660, Control_c, 3, 11, 91
5, 308665, Note_on_c, 3, 69, 120
5, 308754, Note_on_c, 3, 69, 0
5, 308765, Control_c, 3, 11, 92
5, 308769, Note_on_c, 3, 69, 120
5, 308820, Note_on_c, 3, 69, 0
5, 308827, Note_on_c, 3, 69, 94
5, 308868, Note_on_c, 3, 69, 0
5, 308870, Control_c, 3, 11, 93
5, 308877, Note_on_c, 3, 69, 106
5, 308973, Note_on_c, 3, 69, 0
5, 308975, Control_c, 3, 11, 94
5, 308986, Note_on_c, 3, 69, 118
5, 309030, Note_on_c, 3, 69, 0
5, 309067, Note_on_c, 3, 75, 125
5, 309080, Control_c, 3, 11, 95
5, 309098, Note_on_c, 3, 75, 0
5, 309118, Note_on_c, 3, 75, 115
5, 309156, Note_on_c, 3, 75, 0
5, 309185, Control_c, 3, 11, 96
5, 309191, Note_on_c, 3, 75, 112
5, 309219, Note_on_c, 3, 75, 0
5, 309228, Note_on_c, 3, 75, 114
5, 309267, Note_on_c, 3, 75, 0
5, 309285, Control_c, 3, 11, 97
5, 309301, Note_on_c, 3, 75, 118
5, 309390, Control_c, 3, 11, 98
5, 309391, Note_on_c, 3, 75, 0
5, 309412, Note_on_c, 3, 75, 125
5, 309495, Control_c, 3, 11, 99
5, 309506, Note_on_c, 3, 75, 0
5, 309558, Note_on_c, 3, 75, 124
5, 309593, Note_on_c, 3, 75, 0
5, 309600, Control_c, 3, 11, 120
5, 309605, Note_on_c, 3, 74, 126
5, 309640, Note_on_c, 3, 74, 0
5, 309669, Note_on_c, 3, 74, 100
5, 309708, Note_on_c, 3, 74, 0
5, 309733, Note_on_c, 3, 74, 117
5, 309768, Note_on_c, 3, 74, 0
5, 309787, Note_on_c, 3, 74, 99
5, 309822, Note_on_c, 3, 74, 0
5, 309849, Note_on_c, 3, 74, 109
5, 309887, Note_on_c, 3, 74, 0
5, 309910, Note_on_c, 3, 74, 100
5, 309948, Note_on_c, 3, 74, 0
5, 309983, Note_on_c, 3, 74, 102
5, 310016, Note_on_c, 3, 74, 0
5, 310040, Note_on_c, 3, 74, 92
5, 310075, Note_on_c, 3, 74, 0
5, 310109, Note_on_c, 3, 74, 107
5, 310144, Note_on_c, 3, 74, 0
5, 310171, Note_on_c, 3, 74, 96
5, 310209, Note_on_c, 3, 74, 0
5, 310230, Note_on_c, 3, 74, 102
5, 310266, Note_on_c, 3, 74, 0
5, 310291, Note_on_c, 3, 74, 97
5, 310332, Note_on_c, 3, 74, 0
5, 310357, Note_on_c, 3, 74, 111
5, 310396, Note_on_c, 3, 74, 0
5, 310417, Note_on_c, 3, 74, 101
5, 310455, Note_on_c, 3, 74, 0
5, 310472, Note_on_c, 3, 74, 97
5, 310506, Note_on_c, 3, 74, 0
5, 310534, Note_on_c, 3, 74, 91
5, 310570, Note_on_c, 3, 74, 0
5, 310599, Note_on_c, 3, 73, 113
5, 310628, Note_on_c, 3, 73, 0
5, 310648, Note_on_c, 3, 73, 99
5, 310687, Note_on_c, 3, 73, 0
5, 310715, Note_on_c, 3, 73, 91
5, 310793, Note_on_c, 3, 73, 0
5, 310837, Note_on_c, 3, 69, 101
5, 310870, Note_on_c, 3, 69, 0
5, 310888, Note_on_c, 3, 69, 94
5, 310926, Note_on_c, 3, 69, 0
5, 310949, Note_on_c, 3, 69, 96
5, 310985, Note_on_c, 3, 69, 0
5, 311005, Note_on_c, 3, 69, 86
5, 311036, Note_on_c, 3, 69, 0
5, 311076, Note_on_c, 3, 68, 119
5, 311106, Note_on_c, 3, 68, 0
5, 311127, Note_on_c, 3, 68, 97
5, 311162, Note_on_c, 3, 68, 0
5, 311183, Note_on_c, 3, 68, 104
5, 311208, Note_on_c, 3, 68, 0
5, 311234, Note_on_c, 3, 68, 99
5, 311273, Note_on_c, 3, 68, 0
5, 311300, Note_on_c, 3, 68, 96
5, 311334, Note_on_c, 3, 68, 0
5, 311349, Note_on_c, 3, 68, 86
5, 311385, Note_on_c, 3, 68, 0
5, 311416, Note_on_c, 3, 68, 85
5, 311446, Note_on_c, 3, 68, 0
5, 311467, Note_on_c, 3, 68, 97
5, 311497, Note_on_c, 3, 68, 0
5, 311534, Note_on_c, 3, 69, 120
5, 311569, Note_on_c, 3, 69, 0
5, 311592, Note_on_c, 3, 69, 94
5, 311628, Note_on_c, 3, 69, 0
5, 311650, Note_on_c, 3, 69, 92
5, 311676, Note_on_c, 3, 69, 0
5, 311702, Note_on_c, 3, 69, 93
5, 311740, Note_on_c, 3, 69, 0
5, 311777, Note_on_c, 3, 69, 107
5, 311811, Note_on_c, 3, 69, 0
5, 311834, Note_on_c, 3, 69, 87
5, 311864, Note_on_c, 3, 69, 0
5, 311895, Note_on_c, 3, 69, 88
5, 311934, Note_on_c, 3, 69, 0
5, 311948, Note_on_c, 3, 69, 78
5, 311987, Note_on_c, 3, 69, 0
5, 312026, Note_on_c, 3, 68, 115
5, 312056, Note_on_c, 3, 68, 0
5, 312076, Note_on_c, 3, 68, 96
5, 312116, Note_on_c, 3, 68, 0
5, 312138, Note_on_c, 3, 68, 98
5, 312171, Note_on_c, 3, 68, 0
5, 312198, Note_on_c, 3, 68, 94
5, 312238, Note_on_c, 3, 68, 0
5, 312260, Note_on_c, 3, 68, 104
5, 312292, Note_on_c, 3, 68, 0
5, 312315, Note_on_c, 3, 68, 98
5, 312354, Note_on_c, 3, 68, 0
5, 312380, Note_on_c, 3, 68, 86
5, 312403, Note_on_c, 3, 68, 0
5, 312428, Note_on_c, 3, 68, 95
5, 312458, Note_on_c, 3, 68, 0
5, 312503, Note_on_c, 3, 69, 118
5, 312537, Note_on_c, 3, 69, 0
5, 312558, Note_on_c, 3, 69, 99
5, 312598, Note_on_c, 3, 69, 0
5, 312619, Note_on_c, 3, 69, 94
5, 312648, Note_on_c, 3, 69, 0
5, 312681, Note_on_c, 3, 69, 81
5, 312719, Note_on_c, 3, 69, 0
5, 312760, Note_on_c, 3, 69, 78
5, 312833, Note_on_c, 3, 69, 0
5, 312875, Note_on_c, 3, 69, 74
5, 312904, Note_on_c, 3, 69, 0
5, 312926, Note_on_c, 3, 69, 96
5, 312966, Note_on_c, 3, 69, 0
5, 313009, Note_on_c, 3, 67, 120
5, 313044, Note_on_c, 3, 67, 0
5, 313065, Note_on_c, 3, 67, 101
5, 313105, Note_on_c, 3, 67, 0
5, 313125, Note_on_c, 3, 67, 88
5, 313144, Note_on_c, 3, 67, 0
5, 313166, Note_on_c, 3, 67, 89
5, 313206, Note_on_c, 3, 67, 0
5, 313280, Note_on_c, 3, 79, 126
5, 313369, Note_on_c, 3, 79, 0
5, 313390, Note_on_c, 3, 79, 96
5, 313423, Note_on_c, 3, 79, 0
5, 313442, Note_on_c, 3, 79, 94
5, 313481, Note_on_c, 3, 79, 0
5, 313521, Note_on_c, 3, 78, 124
5, 313554, Note_on_c, 3, 78, 0
5, 313575, Note_on_c, 3, 78, 95
5, 313603, Note_on_c, 3, 78, 0
5, 313634, Note_on_c, 3, 78, 83
5, 313716, Note_on_c, 3, 78, 0
5, 313767, Note_on_c, 3, 77, 124
5, 313800, Note_on_c, 3, 77, 0
5, 313824, Note_on_c, 3, 77, 100
5, 313863, Note_on_c, 3, 77, 0
5, 313884, Note_on_c, 3, 77, 96
5, 313916, Note_on_c, 3, 77, 0
5, 313934, Note_on_c, 3, 77, 86
5, 313975, Note_on_c, 3, 77, 0
5, 314013, Note_on_c, 3, 76, 125
5, 314049, Note_on_c, 3, 76, 0
5, 314071, Note_on_c, 3, 76, 98
5, 314107, Note_on_c, 3, 76, 0
5, 314131, Note_on_c, 3, 76, 93
5, 314157, Note_on_c, 3, 76, 0
5, 314184, Note_on_c, 3, 76, 91
5, 314225, Note_on_c, 3, 76, 0
5, 314279, Note_on_c, 3, 68, 124
5, 314292, Note_on_c, 3, 69, 71
5, 314319, Note_on_c, 3, 69, 0
5, 314365, Note_on_c, 3, 68, 0
5, 314394, Note_on_c, 3, 68, 83
5, 314472, Note_on_c, 3, 68, 0
5, 314524, Note_on_c, 3, 69, 118
5, 314559, Note_on_c, 3, 69, 0
5, 314576, Note_on_c, 3, 69, 74
5, 314606, Note_on_c, 3, 69, 0
5, 314634, Note_on_c, 3, 69, 86
5, 314664, Note_on_c, 3, 69, 0
5, 314681, Note_on_c, 3, 69, 74
5, 314716, Note_on_c, 3, 69, 0
5, 314766, Note_on_c, 3, 71, 124
5, 314800, Note_on_c, 3, 71, 0
5, 314819, Note_on_c, 3, 71, 102
5, 314853, Note_on_c, 3, 71, 0
5, 314878, Note_on_c, 3, 71, 98
5, 314912, Note_on_c, 3, 71, 0
5, 314926, Note_on_c, 3, 71, 91
5, 314967, Note_on_c, 3, 71, 0
5, 314996, Note_on_c, 3, 71, 109
5, 315035, Note_on_c, 3, 71, 0
5, 315053, Note_on_c, 3, 71, 113
5, 315099, Note_on_c, 3, 71, 0
5, 315116, Note_on_c, 3, 71, 117
5, 315157, Note_on_c, 3, 71, 0
5, 315175, Note_on_c, 3, 71, 107
5, 315215, Note_on_c, 3, 71, 0
5, 315242, Note_on_c, 3, 70, 119
5, 315273, Note_on_c, 3, 70, 0
5, 315299, Note_on_c, 3, 70, 104
5, 315334, Note_on_c, 3, 70, 0
5, 315355, Note_on_c, 3, 70, 106
5, 315395, Note_on_c, 3, 70, 0
5, 315405, Note_on_c, 3, 70, 88
5, 315437, Note_on_c, 3, 70, 0
5, 315484, Note_on_c, 3, 71, 127
5, 315521, Note_on_c, 3, 71, 0
5, 315755, Note_on_c, 3, 59, 116
5, 315785, Note_on_c, 3, 59, 0
5, 315797, Note_on_c, 3, 59, 84
5, 315824, Note_on_c, 3, 59, 0
5, 315873, Note_on_c, 3, 58, 107
5, 315903, Note_on_c, 3, 58, 0
5, 315916, Note_on_c, 3, 58, 94
5, 315948, Note_on_c, 3, 58, 0
5, 315997, Note_on_c, 3, 59, 102
5, 316036, Note_on_c, 3, 59, 0
5, 316046, Note_on_c, 3, 59, 90
5, 316084, Note_on_c, 3, 59, 0
5, 316129, Note_on_c, 3, 63, 117
5, 316162, Note_on_c, 3, 63, 0
5, 316183, Note_on_c, 3, 63, 100
5, 316218, Note_on_c, 3, 63, 0
5, 316278, Note_on_c, 3, 66, 124
5, 316506, Note_on_c, 3, 67, 118
5, 316508, Note_on_c, 3, 66, 0
5, 316560, Note_on_c, 3, 67, 0
5, 316752, Note_on_c, 3, 64, 122
5, 316756, Note_on_c, 3, 71, 120
5, 316799, Note_on_c, 3, 71, 0
5, 316807, Note_on_c, 3, 64, 0
5, 316989, Note_on_c, 3, 64, 116
5, 316995, Note_on_c, 3, 71, 118
5, 317038, Note_on_c, 3, 71, 0
5, 317054, Note_on_c, 3, 64, 0
5, 317248, Note_on_c, 3, 59, 113
5, 317285, Note_on_c, 3, 59, 0
5, 317298, Note_on_c, 3, 59, 72
5, 317339, Note_on_c, 3, 59, 0
5, 317364, Note_on_c, 3, 58, 105
5, 317400, Note_on_c, 3, 58, 0
5, 317412, Note_on_c, 3, 58, 77
5, 317447, Note_on_c, 3, 58, 0
5, 317479, Note_on_c, 3, 59, 113
5, 317515, Note_on_c, 3, 59, 0
5, 317531, Note_on_c, 3, 59, 106
5, 317569, Note_on_c, 3, 59, 0
5, 317605, Note_on_c, 3, 64, 117
5, 317641, Note_on_c, 3, 64, 0
5, 317649, Note_on_c, 3, 64, 74
5, 317683, Note_on_c, 3, 64, 0
5, 317732, Note_on_c, 3, 67, 114
5, 317962, Note_on_c, 3, 68, 123
5, 317978, Note_on_c, 3, 67, 0
5, 318028, Note_on_c, 3, 68, 0
5, 318194, Note_on_c, 3, 65, 121
5, 318195, Note_on_c, 3, 71, 117
5, 318232, Note_on_c, 3, 71, 0
5, 318270, Note_on_c, 3, 65, 0
5, 318445, Note_on_c, 3, 71, 120
5, 318446, Note_on_c, 3, 65, 120
5, 318498, Note_on_c, 3, 65, 0
5, 318508, Note_on_c, 3, 71, 0
5, 318698, Note_on_c, 3, 59, 109
5, 318735, Note_on_c, 3, 59, 0
5, 318754, Note_on_c, 3, 59, 101
5, 318796, Note_on_c, 3, 59, 0
5, 318810, Note_on_c, 3, 58, 109
5, 318846, Note_on_c, 3, 58, 0
5, 318858, Note_on_c, 3, 58, 93
5, 318888, Note_on_c, 3, 58, 0
5, 318924, Note_on_c, 3, 59, 109
5, 318961, Note_on_c, 3, 59, 0
5, 318970, Note_on_c, 3, 59, 84
5, 319007, Note_on_c, 3, 59, 0
5, 319054, Note_on_c, 3, 65, 120
5, 319094, Note_on_c, 3, 65, 0
5, 319193, Note_on_c, 3, 68, 123
5, 319423, Note_on_c, 3, 69, 114
5, 319450, Note_on_c, 3, 68, 0
5, 319513, Note_on_c, 3, 69, 0
5, 319652, Note_on_c, 3, 66, 125
5, 319658, Note_on_c, 3, 75, 113
5, 319735, Note_on_c, 3, 75, 0
5, 319748, Note_on_c, 3, 66, 0
5, 319893, Note_on_c, 3, 69, 108
5, 320137, Note_on_c, 3, 70, 121
5, 320164, Note_on_c, 3, 69, 0
5, 320179, Note_on_c, 3, 70, 0
5, 320370, Note_on_c, 3, 75, 118
5, 320370, Note_on_c, 3, 66, 120
5, 320435, Note_on_c, 3, 66, 0
5, 320440, Note_on_c, 3, 75, 0
5, 320610, Note_on_c, 3, 70, 115
5, 320836, Note_on_c, 3, 71, 117
5, 320858, Note_on_c, 3, 70, 0
5, 320899, Note_on_c, 3, 71, 0
5, 321065, Note_on_c, 3, 75, 124
5, 321139, Note_on_c, 3, 75, 0
5, 321330, Note_on_c, 3, 75, 127
5, 321362, Note_on_c, 3, 75, 0
5, 321406, Note_on_c, 3, 75, 53
5, 321426, Note_on_c, 3, 75, 0
5, 321446, Note_on_c, 3, 75, 101
5, 321470, Note_on_c, 3, 75, 0
5, 321493, Note_on_c, 3, 75, 100
5, 321527, Note_on_c, 3, 75, 0
5, 321554, Note_on_c, 3, 75, 114
5, 321588, Note_on_c, 3, 75, 0
5, 321610, Note_on_c, 3, 75, 101
5, 321644, Note_on_c, 3, 75, 0
5, 321671, Note_on_c, 3, 75, 89
5, 321704, Note_on_c, 3, 75, 0
5, 321728, Note_on_c, 3, 75, 83
5, 321752, Note_on_c, 3, 75, 0
5, 321794, Note_on_c, 3, 75, 110
5, 321825, Note_on_c, 3, 75, 0
5, 321844, Note_on_c, 3, 75, 106
5, 321882, Note_on_c, 3, 75, 0
5, 321905, Note_on_c, 3, 75, 93
5, 321926, Note_on_c, 3, 75, 0
5, 321952, Note_on_c, 3, 75, 101
5, 321989, Note_on_c, 3, 75, 0
5, 322031, Note_on_c, 3, 75, 120
5, 322105, Note_on_c, 3, 75, 0
5, 322136, Note_on_c, 3, 75, 79
5, 322212, Note_on_c, 3, 75, 0
5, 322273, Note_on_c, 3, 72, 120
5, 322308, Note_on_c, 3, 72, 0
5, 322337, Note_on_c, 3, 72, 76
5, 322413, Note_on_c, 3, 72, 0
5, 322431, Note_on_c, 3, 72, 76
5, 322473, Note_on_c, 3, 72, 0
5, 322499, Note_on_c, 3, 73, 123
5, 322533, Note_on_c, 3, 73, 0
5, 322559, Note_on_c, 3, 73, 88
5, 322593, Note_on_c, 3, 73, 0
5, 322613, Note_on_c, 3, 73, 75
5, 322689, Note_on_c, 3, 73, 0
5, 322734, Note_on_c, 3, 71, 121
5, 322771, Note_on_c, 3, 71, 0
5, 322793, Note_on_c, 3, 71, 96
5, 322822, Note_on_c, 3, 71, 0
5, 322843, Note_on_c, 3, 71, 102
5, 322877, Note_on_c, 3, 71, 0
5, 322900, Note_on_c, 3, 71, 98
5, 322939, Note_on_c, 3, 71, 0
5, 322969, Note_on_c, 3, 75, 123
5, 323002, Note_on_c, 3, 75, 0
5, 323025, Note_on_c, 3, 75, 104
5, 323106, Note_on_c, 3, 75, 0
5, 323135, Note_on_c, 3, 75, 94
5, 323171, Note_on_c, 3, 75, 0
5, 323202, Note_on_c, 3, 75, 106
5, 323236, Note_on_c, 3, 75, 0
5, 323255, Note_on_c, 3, 75, 101
5, 323291, Note_on_c, 3, 75, 0
5, 323317, Note_on_c, 3, 75, 94
5, 323350, Note_on_c, 3, 75, 0
5, 323374, Note_on_c, 3, 75, 96
5, 323413, Note_on_c, 3, 75, 0
5, 323450, Note_on_c, 3, 75, 103
5, 323482, Note_on_c, 3, 75, 0
5, 323496, Note_on_c, 3, 75, 65
5, 323525, Note_on_c, 3, 75, 0
5, 323562, Note_on_c, 3, 75, 74
5, 323630, Note_on_c, 3, 75, 0
5, 323695, Note_on_c, 3, 75, 115
5, 323767, Note_on_c, 3, 75, 0
5, 323820, Note_on_c, 3, 75, 99
5, 323903, Note_on_c, 3, 75, 0
5, 323937, Note_on_c, 3, 72, 121
5, 323976, Note_on_c, 3, 72, 0
5, 323991, Note_on_c, 3, 72, 84
5, 324028, Note_on_c, 3, 72, 0
5, 324052, Note_on_c, 3, 72, 104
5, 324136, Note_on_c, 3, 72, 0
5, 324171, Note_on_c, 3, 72, 113
5, 324207, Note_on_c, 3, 72, 0
5, 324227, Note_on_c, 3, 72, 88
5, 324262, Note_on_c, 3, 72, 0
5, 324289, Note_on_c, 3, 72, 98
5, 324373, Note_on_c, 3, 72, 0
5, 324400, Note_on_c, 3, 71, 118
5, 324440, Note_on_c, 3, 71, 0
5, 324453, Note_on_c, 3, 71, 76
5, 324486, Note_on_c, 3, 71, 0
5, 324520, Note_on_c, 3, 71, 99
5, 324553, Note_on_c, 3, 71, 0
5, 324569, Note_on_c, 3, 71, 84
5, 324603, Note_on_c, 3, 71, 0
5, 324627, Note_on_c, 3, 71, 117
5, 324666, Note_on_c, 3, 71, 0
5, 324679, Note_on_c, 3, 71, 84
5, 324716, Note_on_c, 3, 71, 0
5, 324746, Note_on_c, 3, 71, 98
5, 324780, Note_on_c, 3, 71, 0
5, 324792, Note_on_c, 3, 71, 76
5, 324828, Note_on_c, 3, 71, 0
5, 324863, Note_on_c, 3, 71, 118
5, 324900, Note_on_c, 3, 71, 0
5, 324911, Note_on_c, 3, 71, 78
5, 324949, Note_on_c, 3, 71, 0
5, 324979, Note_on_c, 3, 71, 90
5, 325015, Note_on_c, 3, 71, 0
5, 325026, Note_on_c, 3, 71, 69
5, 325067, Note_on_c, 3, 71, 0
5, 325094, Note_on_c, 3, 69, 124
5, 325133, Note_on_c, 3, 69, 0
5, 325153, Note_on_c, 3, 69, 100
5, 325193, Note_on_c, 3, 69, 0
5, 325207, Note_on_c, 3, 69, 93
5, 325242, Note_on_c, 3, 69, 0
5, 325256, Note_on_c, 3, 69, 88
5, 325296, Note_on_c, 3, 69, 0
5, 325318, Note_on_c, 3, 69, 116
5, 325356, Note_on_c, 3, 69, 0
5, 325364, Note_on_c, 3, 69, 76
5, 325402, Note_on_c, 3, 69, 0
5, 325429, Note_on_c, 3, 69, 102
5, 325518, Note_on_c, 3, 69, 0
5, 325558, Note_on_c, 3, 69, 124
5, 325600, Note_on_c, 3, 69, 0
5, 325815, Note_on_c, 3, 67, 118
5, 325932, Note_on_c, 3, 67, 0
5, 327237, Note_on_c, 3, 61, 27
5, 328351, Note_on_c, 3, 61, 0
5, 328884, Note_on_c, 3, 61, 26
5, 330058, Note_on_c, 3, 61, 0
5, 330337, Note_on_c, 3, 67, 126
5, 330371, Note_on_c, 3, 67, 0
5, 330402, Note_on_c, 3, 67, 72
5, 330466, Note_on_c, 3, 67, 0
5, 330489, Note_on_c, 3, 67, 92
5, 330536, Note_on_c, 3, 67, 0
5, 330567, Note_on_c, 3, 66, 123
5, 330602, Note_on_c, 3, 66, 0
5, 330623, Note_on_c, 3, 66, 95
5, 330653, Note_on_c, 3, 66, 0
5, 330676, Note_on_c, 3, 66, 98
5, 330708, Note_on_c, 3, 66, 0
5, 330727, Note_on_c, 3, 66, 98
5, 330761, Note_on_c, 3, 66, 0
5, 330803, Note_on_c, 3, 63, 120
5, 330833, Note_on_c, 3, 63, 0
5, 330853, Note_on_c, 3, 63, 99
5, 330885, Note_on_c, 3, 63, 0
5, 330913, Note_on_c, 3, 63, 89
5, 330935, Note_on_c, 3, 63, 0
5, 330955, Note_on_c, 3, 63, 103
5, 330990, Note_on_c, 3, 63, 0
5, 331041, Note_on_c, 3, 64, 117
5, 331076, Note_on_c, 3, 64, 0
5, 331095, Note_on_c, 3, 64, 96
5, 331135, Note_on_c, 3, 64, 0
5, 331154, Note_on_c, 3, 64, 94
5, 331188, Note_on_c, 3, 64, 0
5, 331204, Note_on_c, 3, 64, 85
5, 331243, Note_on_c, 3, 64, 0
5, 331279, Note_on_c, 3, 63, 120
5, 331309, Note_on_c, 3, 63, 0
5, 331326, Note_on_c, 3, 63, 93
5, 331361, Note_on_c, 3, 63, 0
5, 331390, Note_on_c, 3, 63, 88
5, 331420, Note_on_c, 3, 63, 0
5, 331431, Note_on_c, 3, 63, 86
5, 331466, Note_on_c, 3, 63, 0
5, 331509, Note_on_c, 3, 64, 109
5, 331583, Note_on_c, 3, 64, 0
5, 331632, Note_on_c, 3, 76, 121
5, 331665, Note_on_c, 3, 76, 0
5, 331683, Note_on_c, 3, 76, 90
5, 331720, Note_on_c, 3, 76, 0
5, 331761, Note_on_c, 3, 78, 124
5, 331794, Note_on_c, 3, 78, 0
5, 331811, Note_on_c, 3, 78, 88
5, 331842, Note_on_c, 3, 78, 0
5, 331868, Note_on_c, 3, 78, 104
5, 331945, Note_on_c, 3, 78, 0
5, 331988, Note_on_c, 3, 79, 92
5, 332068, Note_on_c, 3, 79, 0
5, 332112, Note_on_c, 3, 83, 118
5, 332146, Note_on_c, 3, 83, 0
5, 332167, Note_on_c, 3, 83, 80
5, 332196, Note_on_c, 3, 83, 0
5, 332230, Note_on_c, 3, 83, 124
5, 332314, Note_on_c, 3, 83, 0
5, 332348, Note_on_c, 3, 81, 114
5, 332426, Note_on_c, 3, 81, 0
5, 332462, Note_on_c, 3, 79, 99
5, 332534, Note_on_c, 3, 79, 0
5, 332571, Note_on_c, 3, 78, 107
5, 332636, Note_on_c, 3, 78, 0
5, 332680, Note_on_c, 3, 79, 114
5, 332714, Note_on_c, 3, 79, 0
5, 332723, Note_on_c, 3, 79, 47
5, 332757, Note_on_c, 3, 79, 0
5, 332795, Note_on_c, 3, 83, 118
5, 332826, Note_on_c, 3, 83, 0
5, 332904, Note_on_c, 3, 83, 125
5, 332944, Note_on_c, 3, 83, 0
5, 332963, Note_on_c, 3, 83, 99
5, 332998, Note_on_c, 3, 83, 0
5, 333019, Note_on_c, 3, 81, 104
5, 333053, Note_on_c, 3, 81, 0
5, 333071, Note_on_c, 3, 81, 92
5, 333107, Note_on_c, 3, 81, 0
5, 333131, Note_on_c, 3, 79, 104
5, 333165, Note_on_c, 3, 79, 0
5, 333182, Note_on_c, 3, 79, 89
5, 333217, Note_on_c, 3, 79, 0
5, 333245, Note_on_c, 3, 78, 106
5, 333317, Note_on_c, 3, 78, 0
5, 333359, Note_on_c, 3, 79, 118
5, 333399, Note_on_c, 3, 79, 0
5, 333410, Note_on_c, 3, 79, 60
5, 333443, Note_on_c, 3, 79, 0
5, 333463, Note_on_c, 3, 79, 108
5, 333502, Note_on_c, 3, 79, 0
5, 333517, Note_on_c, 3, 79, 102
5, 333555, Note_on_c, 3, 79, 0
5, 333604, Note_on_c, 3, 73, 115
5, 333633, Note_on_c, 3, 73, 0
5, 333657, Note_on_c, 3, 73, 86
5, 333687, Note_on_c, 3, 73, 0
5, 333711, Note_on_c, 3, 73, 92
5, 333733, Note_on_c, 3, 73, 0
5, 333755, Note_on_c, 3, 73, 105
5, 333791, Note_on_c, 3, 73, 0
5, 333830, Note_on_c, 3, 75, 118
5, 333862, Note_on_c, 3, 75, 0
5, 333881, Note_on_c, 3, 75, 106
5, 333912, Note_on_c, 3, 75, 0
5, 333947, Note_on_c, 3, 75, 84
5, 333970, Note_on_c, 3, 75, 0
5, 333991, Note_on_c, 3, 75, 107
5, 334024, Note_on_c, 3, 75, 0
5, 334057, Note_on_c, 3, 75, 119
5, 334091, Note_on_c, 3, 75, 0
5, 334112, Note_on_c, 3, 75, 109
5, 334147, Note_on_c, 3, 75, 0
5, 334164, Note_on_c, 3, 75, 72
5, 334187, Note_on_c, 3, 75, 0
5, 334214, Note_on_c, 3, 75, 106
5, 334247, Note_on_c, 3, 75, 0
5, 334277, Note_on_c, 3, 76, 125
5, 334311, Note_on_c, 3, 76, 0
5, 334331, Note_on_c, 3, 76, 104
5, 334366, Note_on_c, 3, 76, 0
5, 334375, Note_on_c, 3, 76, 78
5, 334407, Note_on_c, 3, 76, 0
5, 334426, Note_on_c, 3, 76, 104
5, 334462, Note_on_c, 3, 76, 0
5, 334503, Note_on_c, 3, 79, 118
5, 334539, Note_on_c, 3, 79, 0
5, 334554, Note_on_c, 3, 79, 88
5, 334590, Note_on_c, 3, 79, 0
5, 334603, Note_on_c, 3, 79, 97
5, 334640, Note_on_c, 3, 79, 0
5, 334660, Note_on_c, 3, 79, 97
5, 334699, Note_on_c, 3, 79, 0
5, 334730, Note_on_c, 3, 79, 116
5, 334812, Note_on_c, 3, 79, 0
5, 334856, Note_on_c, 3, 83, 114
5, 334890, Note_on_c, 3, 83, 0
5, 334907, Note_on_c, 3, 83, 83
5, 334930, Note_on_c, 3, 83, 0
5, 334982, Note_on_c, 3, 83, 124
5, 335067, Note_on_c, 3, 83, 0
5, 335114, Note_on_c, 3, 81, 103
5, 335146, Note_on_c, 3, 81, 0
5, 335153, Note_on_c, 3, 81, 63
5, 335186, Note_on_c, 3, 81, 0
5, 335221, Note_on_c, 3, 79, 102
5, 335301, Note_on_c, 3, 79, 0
5, 335339, Note_on_c, 3, 78, 106
5, 335413, Note_on_c, 3, 78, 0
5, 335456, Note_on_c, 3, 79, 117
5, 335492, Note_on_c, 3, 79, 0
5, 335505, Note_on_c, 3, 79, 92
5, 335540, Note_on_c, 3, 79, 0
5, 335581, Note_on_c, 3, 83, 113
5, 335614, Note_on_c, 3, 83, 0
5, 335638, Note_on_c, 3, 83, 72
5, 335662, Note_on_c, 3, 83, 0
5, 335705, Note_on_c, 3, 83, 124
5, 335750, Note_on_c, 3, 83, 0
5, 335759, Note_on_c, 3, 83, 88
5, 335794, Note_on_c, 3, 83, 0
5, 335823, Note_on_c, 3, 81, 102
5, 335856, Note_on_c, 3, 81, 0
5, 335876, Note_on_c, 3, 81, 96
5, 335909, Note_on_c, 3, 81, 0
5, 335931, Note_on_c, 3, 79, 104
5, 335965, Note_on_c, 3, 79, 0
5, 335978, Note_on_c, 3, 79, 93
5, 336014, Note_on_c, 3, 79, 0
5, 336052, Note_on_c, 3, 78, 106
5, 336130, Note_on_c, 3, 78, 0
5, 336194, Note_on_c, 3, 79, 117
5, 336251, Note_on_c, 3, 79, 0
5, 336480, Control_c, 3, 11, 80
5, 336480, Program_c, 3, 45
5, 336480, Control_c, 3, 91, 120
5, 336710, Note_on_c, 3, 62, 47
5, 336749, Note_on_c, 3, 62, 0
5, 336957, Note_on_c, 3, 60, 52
5, 336961, Note_on_c, 3, 60, 0
5, 337448, Note_on_c, 3, 68, 42
5, 337479, Note_on_c, 3, 68, 0
5, 337725, Note_on_c, 3, 69, 47
5, 337777, Note_on_c, 3, 69, 0
5, 338241, Note_on_c, 3, 63, 50
5, 338279, Note_on_c, 3, 63, 0
5, 338483, Note_on_c, 3, 64, 44
5, 338536, Note_on_c, 3, 64, 0
5, 338979, Note_on_c, 3, 66, 52
5, 339018, Note_on_c, 3, 66, 0
5, 339251, Note_on_c, 3, 67, 36
5, 339306, Note_on_c, 3, 67, 0
5, 339600, Program_c, 3, 49
5, 339600, Control_c, 3, 91, 60
5, 339782, Note_on_c, 3, 68, 52
5, 340069, Note_on_c, 3, 69, 45
5, 340131, Note_on_c, 3, 68, 0
5, 340476, Note_on_c, 3, 69, 0
5, 341429, Note_on_c, 3, 59, 47
5, 341980, Note_on_c, 3, 60, 56
5, 342001, Note_on_c, 3, 60, 0
5, 342070, Note_on_c, 3, 59, 0
5, 342294, Note_on_c, 3, 57, 46
5, 342699, Note_on_c, 3, 55, 40
5, 342775, Note_on_c, 3, 57, 0
5, 343630, Note_on_c, 3, 57, 34
5, 343662, Note_on_c, 3, 55, 0
5, 344614, Note_on_c, 3, 55, 37
5, 344672, Note_on_c, 3, 57, 0
5, 346629, Control_c, 3, 11, 80
5, 346629, Note_on_c, 3, 62, 50
5, 346644, Note_on_c, 3, 57, 32
5, 346672, Note_on_c, 3, 55, 0
5, 346722, Control_c, 3, 11, 81
5, 346814, Control_c, 3, 11, 82
5, 346907, Control_c, 3, 11, 83
5, 346999, Control_c, 3, 11, 84
5, 347092, Control_c, 3, 11, 85
5, 347184, Control_c, 3, 11, 86
5, 347277, Control_c, 3, 11, 87
5, 347369, Control_c, 3, 11, 88
5, 347462, Control_c, 3, 11, 89
5, 347554, Control_c, 3, 11, 90
5, 347647, Control_c, 3, 11, 91
5, 347706, Note_on_c, 3, 57, 0
5, 347739, Control_c, 3, 11, 92
5, 347832, Control_c, 3, 11, 93
5, 347924, Control_c, 3, 11, 94
5, 348017, Control_c, 3, 11, 95
5, 348109, Control_c, 3, 11, 96
5, 348202, Control_c, 3, 11, 97
5, 348294, Control_c, 3, 11, 98
5, 348387, Control_c, 3, 11, 99
5, 348479, Control_c, 3, 11, 100
5, 349200, Control_c, 3, 11, 100
5, 349256, Control_c, 3, 11, 99
5, 349311, Control_c, 3, 11, 98
5, 349366, Control_c, 3, 11, 97
5, 349421, Control_c, 3, 11, 96
5, 349476, Control_c, 3, 11, 95
5, 349531, Control_c, 3, 11, 94
5, 349586, Control_c, 3, 11, 93
5, 349641, Control_c, 3, 11, 92
5, 349696, Control_c, 3, 11, 91
5, 349751, Control_c, 3, 11, 90
5, 349807, Control_c, 3, 11, 89
5, 349862, Control_c, 3, 11, 88
5, 349917, Control_c, 3, 11, 87
5, 349972, Control_c, 3, 11, 86
5, 350027, Control_c, 3, 11, 85
5, 350082, Control_c, 3, 11, 84
5, 350137, Control_c, 3, 11, 83
5, 350192, Control_c, 3, 11, 82
5, 350247, Control_c, 3, 11, 81
5, 350302, Control_c, 3, 11, 80
5, 350303, Note_on_c, 3, 64, 40
5, 350358, Note_on_c, 3, 62, 0
5, 350499, Control_c, 3, 11, 80
5, 350499, Note_on_c, 3, 62, 41
5, 350549, Note_on_c, 3, 64, 0
5, 350602, Control_c, 3, 11, 79
5, 350705, Control_c, 3, 11, 78
5, 350808, Control_c, 3, 11, 77
5, 350911, Control_c, 3, 11, 76
5, 351014, Control_c, 3, 11, 75
5, 351117, Control_c, 3, 11, 74
5, 351220, Control_c, 3, 11, 73
5, 351323, Control_c, 3, 11, 72
5, 351426, Control_c, 3, 11, 71
5, 351529, Control_c, 3, 11, 70
5, 351632, Control_c, 3, 11, 69
5, 351735, Control_c, 3, 11, 68
5, 351838, Control_c, 3, 11, 67
5, 351845, Note_on_c, 3, 60, 37
5, 351854, Note_on_c, 3, 62, 0
5, 351941, Control_c, 3, 11, 66
5, 352010, Note_on_c, 3, 60, 0
5, 352044, Control_c, 3, 11, 65
5, 352082, Note_on_c, 3, 55, 34
5, 352147, Control_c, 3, 11, 64
5, 352250, Control_c, 3, 11, 63
5, 352353, Control_c, 3, 11, 62
5, 352456, Control_c, 3, 11, 61
5, 352505, Note_on_c, 3, 55, 0
5, 352559, Control_c, 3, 11, 60
5, 355000, Note_on_c, 3, 55, 55
5, 356099, Note_on_c, 3, 57, 56
5, 356155, Note_on_c, 3, 55, 0
5, 357792, Note_on_c, 3, 57, 0
5, 359692, Note_on_c, 3, 55, 55
5, 362019, Note_on_c, 3, 56, 61
5, 362120, Note_on_c, 3, 55, 0
5, 362423, Note_on_c, 3, 57, 57
5, 362488, Note_on_c, 3, 56, 0
5, 363425, Note_on_c, 3, 57, 0
5, 365035, Note_on_c, 3, 59, 60
5, 366520, Note_on_c, 3, 59, 0
5, 367245, Note_on_c, 3, 58, 80
5, 369349, Note_on_c, 3, 58, 0
5, 370209, Note_on_c, 3, 57, 44
5, 370898, Note_on_c, 3, 57, 0
5, 372362, Note_on_c, 3, 58, 61
5, 372686, Note_on_c, 3, 59, 73
5, 372806, Note_on_c, 3, 58, 0
5, 373653, Note_on_c, 3, 60, 69
5, 373681, Note_on_c, 3, 60, 0
5, 373684, Note_on_c, 3, 59, 0
5, 374967, Note_on_c, 3, 58, 68
5, 375412, Note_on_c, 3, 59, 84
5, 375435, Note_on_c, 3, 58, 0
5, 376284, Note_on_c, 3, 60, 67
5, 376345, Note_on_c, 3, 59, 0
5, 376561, Note_on_c, 3, 60, 0
5, 376792, Note_on_c, 3, 62, 60
5, 376808, Note_on_c, 3, 55, 47
5, 377842, Note_on_c, 3, 60, 59
5, 377843, Note_on_c, 3, 62, 0
5, 377899, Note_on_c, 3, 55, 0
5, 378001, Note_on_c, 3, 60, 0
5, 378400, Note_on_c, 3, 57, 60
5, 379852, Note_on_c, 3, 57, 0
5, 379868, Note_on_c, 3, 59, 56
5, 380938, Note_on_c, 3, 57, 60
5, 380989, Note_on_c, 3, 59, 0
5, 381507, Note_on_c, 3, 57, 0
5, 381558, Control_c, 3, 11, 60
5, 381558, Note_on_c, 3, 57, 66
5, 381664, Control_c, 3, 11, 59
5, 381770, Control_c, 3, 11, 58
5, 381876, Control_c, 3, 11, 57
5, 381982, Control_c, 3, 11, 56
5, 382087, Control_c, 3, 11, 55
5, 382193, Control_c, 3, 11, 54
5, 382299, Control_c, 3, 11, 53
5, 382405, Control_c, 3, 11, 52
5, 382511, Control_c, 3, 11, 51
5, 382616, Control_c, 3, 11, 50
5, 382722, Control_c, 3, 11, 49
5, 382828, Control_c, 3, 11, 48
5, 382934, Control_c, 3, 11, 47
5, 383040, Control_c, 3, 11, 46
5, 383145, Control_c, 3, 11, 45
5, 383251, Control_c, 3, 11, 44
5, 383357, Control_c, 3, 11, 43
5, 383463, Control_c, 3, 11, 42
5, 383569, Control_c, 3, 11, 41
5, 383658, Note_on_c, 3, 57, 0
5, 383674, Control_c, 3, 11, 40
5, 383675, Note_on_c, 3, 64, 84
5, 383896, Note_on_c, 3, 64, 0
5, 384480, Control_c, 3, 11, 100
5, 384480, Program_c, 3, 45
5, 384480, Control_c, 3, 91, 120
5, 384574, Note_on_c, 3, 59, 63
5, 384605, Note_on_c, 3, 59, 0
5, 384726, Note_on_c, 3, 59, 68
5, 384760, Note_on_c, 3, 59, 0
5, 385368, Note_on_c, 3, 59, 68
5, 385406, Note_on_c, 3, 59, 0
5, 385525, Note_on_c, 3, 59, 86
5, 385557, Note_on_c, 3, 59, 0
5, 387246, Note_on_c, 3, 59, 66
5, 387285, Note_on_c, 3, 59, 0
5, 387998, Note_on_c, 3, 59, 64
5, 388034, Note_on_c, 3, 59, 0
5, 388171, Note_on_c, 3, 59, 71
5, 388206, Note_on_c, 3, 59, 0
5, 388849, Note_on_c, 3, 59, 63
5, 388880, Note_on_c, 3, 59, 0
5, 389006, Note_on_c, 3, 59, 64
5, 389042, Note_on_c, 3, 59, 0
5, 390240, Program_c, 3, 49
5, 390240, Control_c, 3, 91, 60
5, 390481, Note_on_c, 3, 64, 89
5, 391380, Note_on_c, 3, 66, 107
5, 391407, Note_on_c, 3, 64, 0
5, 391633, Note_on_c, 3, 59, 75
5, 391650, Note_on_c, 3, 66, 0
5, 391910, Note_on_c, 3, 59, 0
5, 393840, Program_c, 3, 45
5, 393840, Control_c, 3, 91, 120
5, 393912, Note_on_c, 3, 63, 65
5, 393936, Note_on_c, 3, 63, 0
5, 394049, Note_on_c, 3, 64, 59
5, 394088, Note_on_c, 3, 64, 0
5, 394341, Program_c, 3, 49
5, 394341, Control_c, 3, 91, 60
5, 394341, Note_on_c, 3, 69, 83
5, 394548, Note_on_c, 3, 68, 93
5, 394603, Note_on_c, 3, 69, 0
5, 394702, Note_on_c, 3, 67, 97
5, 394750, Note_on_c, 3, 68, 0
5, 394945, Note_on_c, 3, 68, 70
5, 394952, Note_on_c, 3, 67, 0
5, 395214, Note_on_c, 3, 68, 0
5, 395806, Note_on_c, 3, 66, 91
5, 396354, Note_on_c, 3, 68, 89
5, 396373, Note_on_c, 3, 66, 0
5, 396616, Note_on_c, 3, 70, 100
5, 396635, Note_on_c, 3, 68, 0
5, 396884, Note_on_c, 3, 71, 99
5, 396915, Note_on_c, 3, 70, 0
5, 397154, Note_on_c, 3, 66, 88
5, 397157, Note_on_c, 3, 71, 0
5, 397432, Note_on_c, 3, 66, 0
5, 397458, Note_on_c, 3, 66, 93
5, 400934, Note_on_c, 3, 64, 83
5, 400946, Note_on_c, 3, 66, 0
5, 404538, Note_on_c, 3, 63, 86
5, 404561, Note_on_c, 3, 64, 0
5, 404640, Program_c, 3, 45
5, 404640, Control_c, 3, 91, 120
5, 404738, Note_on_c, 3, 63, 0
5, 405316, Note_on_c, 3, 61, 65
5, 405337, Note_on_c, 3, 61, 0
5, 405487, Note_on_c, 3, 63, 70
5, 405507, Note_on_c, 3, 63, 0
5, 406175, Note_on_c, 3, 61, 69
5, 406202, Note_on_c, 3, 61, 0
5, 406346, Note_on_c, 3, 63, 77
5, 406371, Note_on_c, 3, 63, 0
5, 408095, Note_on_c, 3, 63, 69
5, 408120, Note_on_c, 3, 63, 0
5, 408884, Note_on_c, 3, 63, 74
5, 408908, Note_on_c, 3, 63, 0
5, 409045, Note_on_c, 3, 63, 78
5, 409079, Note_on_c, 3, 63, 0
5, 409714, Note_on_c, 3, 63, 73
5, 409749, Note_on_c, 3, 63, 0
5, 409880, Note_on_c, 3, 63, 81
5, 409913, Note_on_c, 3, 63, 0
5, 411487, Program_c, 3, 49
5, 411487, Control_c, 3, 91, 60
5, 411487, Note_on_c, 3, 59, 76
5, 411830, Note_on_c, 3, 59, 0
5, 411855, Note_on_c, 3, 59, 69
5, 412165, Note_on_c, 3, 60, 84
5, 412199, Note_on_c, 3, 59, 0
5, 412374, Note_on_c, 3, 59, 88
5, 412431, Note_on_c, 3, 60, 0
5, 412562, Note_on_c, 3, 58, 83
5, 412604, Note_on_c, 3, 59, 0
5, 412866, Note_on_c, 3, 59, 76
5, 412901, Note_on_c, 3, 58, 0
5, 413150, Note_on_c, 3, 59, 0
5, 414720, Program_c, 3, 45
5, 414720, Control_c, 3, 91, 120
5, 415328, Note_on_c, 3, 61, 65
5, 415359, Note_on_c, 3, 61, 0
5, 415471, Note_on_c, 3, 59, 67
5, 415516, Note_on_c, 3, 59, 0
5, 415824, Program_c, 3, 49
5, 415824, Control_c, 3, 91, 60
5, 415824, Note_on_c, 3, 64, 63
5, 416003, Note_on_c, 3, 63, 87
5, 416051, Note_on_c, 3, 64, 0
5, 416163, Note_on_c, 3, 62, 85
5, 416222, Note_on_c, 3, 63, 0
5, 416420, Note_on_c, 3, 63, 94
5, 416461, Note_on_c, 3, 62, 0
5, 416715, Note_on_c, 3, 63, 0
5, 417240, Note_on_c, 3, 61, 100
5, 417820, Note_on_c, 3, 61, 0
5, 417831, Note_on_c, 3, 63, 100
5, 418117, Note_on_c, 3, 65, 101
5, 418137, Note_on_c, 3, 63, 0
5, 418397, Note_on_c, 3, 66, 108
5, 418440, Note_on_c, 3, 65, 0
5, 418695, Note_on_c, 3, 68, 106
5, 418736, Note_on_c, 3, 66, 0
5, 418985, Note_on_c, 3, 68, 0
5, 419004, Note_on_c, 3, 66, 114
5, 421145, Note_on_c, 3, 66, 0
5, 421162, Note_on_c, 3, 64, 99
5, 422018, Note_on_c, 3, 63, 91
5, 422087, Note_on_c, 3, 64, 0
5, 422329, Note_on_c, 3, 61, 92
5, 422385, Note_on_c, 3, 63, 0
5, 422659, Note_on_c, 3, 59, 83
5, 422682, Note_on_c, 3, 61, 0
5, 423197, Note_on_c, 3, 59, 0
5, 423292, Note_on_c, 3, 64, 98
5, 424844, Note_on_c, 3, 62, 101
5, 424896, Note_on_c, 3, 64, 0
5, 425663, Note_on_c, 3, 61, 88
5, 425696, Note_on_c, 3, 62, 0
5, 426028, Note_on_c, 3, 59, 76
5, 426073, Note_on_c, 3, 61, 0
5, 426343, Note_on_c, 3, 57, 81
5, 426381, Note_on_c, 3, 59, 0
5, 426712, Note_on_c, 3, 57, 0
5, 427055, Note_on_c, 3, 66, 88
5, 427378, Note_on_c, 3, 64, 88
5, 427414, Note_on_c, 3, 66, 0
5, 428303, Note_on_c, 3, 62, 92
5, 428353, Note_on_c, 3, 64, 0
5, 429195, Note_on_c, 3, 60, 98
5, 429233, Note_on_c, 3, 62, 0
5, 429841, Note_on_c, 3, 60, 0
5, 430134, Note_on_c, 3, 59, 90
5, 430998, Note_on_c, 3, 57, 86
5, 431040, Note_on_c, 3, 59, 0
5, 431914, Note_on_c, 3, 55, 80
5, 431940, Note_on_c, 3, 57, 0
5, 432225, Note_on_c, 3, 55, 0
5, 432521, Note_on_c, 3, 59, 90
5, 432787, Note_on_c, 3, 61, 70
5, 432846, Note_on_c, 3, 59, 0
5, 433079, Note_on_c, 3, 61, 0
5, 433375, Note_on_c, 3, 64, 98
5, 433649, Note_on_c, 3, 62, 88
5, 433703, Note_on_c, 3, 64, 0
5, 433909, Note_on_c, 3, 62, 0
5, 434202, Note_on_c, 3, 59, 76
5, 434776, Note_on_c, 3, 59, 0
5, 435072, Note_on_c, 3, 61, 104
5, 435338, Note_on_c, 3, 61, 0
5, 435379, Note_on_c, 3, 61, 123
5, 435551, Note_on_c, 3, 61, 0
5, 436327, Note_on_c, 3, 61, 118
5, 436518, Note_on_c, 3, 61, 0
5, 437325, Note_on_c, 3, 66, 118
5, 437543, Note_on_c, 3, 66, 0
5, 438233, Note_on_c, 3, 66, 100
5, 439156, Note_on_c, 3, 63, 96
5, 439191, Note_on_c, 3, 66, 0
5, 440167, Note_on_c, 3, 63, 0
5, 440171, Note_on_c, 3, 64, 100
5, 441130, Note_on_c, 3, 61, 89
5, 441184, Note_on_c, 3, 64, 0
5, 442190, Note_on_c, 3, 61, 0
5, 442432, Note_on_c, 3, 64, 97
5, 442769, Note_on_c, 3, 63, 65
5, 442849, Note_on_c, 3, 64, 0
5, 443723, Note_on_c, 3, 64, 74
5, 443767, Note_on_c, 3, 63, 0
5, 444482, Note_on_c, 3, 65, 87
5, 444526, Note_on_c, 3, 64, 0
5, 445290, Note_on_c, 3, 66, 104
5, 445341, Note_on_c, 3, 65, 0
5, 446874, Note_on_c, 3, 66, 0
5, 447120, Program_c, 3, 45
5, 447120, Control_c, 3, 91, 120
5, 447781, Note_on_c, 3, 63, 67
5, 447812, Note_on_c, 3, 63, 0
5, 449308, Note_on_c, 3, 66, 79
5, 449347, Note_on_c, 3, 66, 0
5, 450062, Note_on_c, 3, 63, 80
5, 450089, Note_on_c, 3, 63, 0
5, 450853, Note_on_c, 3, 59, 82
5, 450911, Note_on_c, 3, 59, 0
5, 452160, Program_c, 3, 49
5, 452160, Control_c, 3, 91, 120
5, 452193, Note_on_c, 3, 59, 122
5, 452216, Note_on_c, 3, 60, 86
5, 452231, Note_on_c, 3, 59, 0
5, 452252, Note_on_c, 3, 59, 102
5, 452255, Note_on_c, 3, 60, 0
5, 452284, Note_on_c, 3, 60, 91
5, 452292, Note_on_c, 3, 59, 0
5, 452316, Note_on_c, 3, 59, 88
5, 452341, Note_on_c, 3, 60, 0
5, 452363, Note_on_c, 3, 58, 113
5, 452377, Note_on_c, 3, 59, 0
5, 452412, Note_on_c, 3, 58, 0
5, 452422, Note_on_c, 3, 59, 102
5, 452497, Note_on_c, 3, 55, 116
5, 452501, Note_on_c, 3, 59, 0
5, 452619, Note_on_c, 3, 55, 0
5, 452767, Note_on_c, 3, 55, 124
5, 452888, Note_on_c, 3, 55, 0
5, 453026, Note_on_c, 3, 59, 102
5, 453125, Note_on_c, 3, 59, 0
5, 453319, Note_on_c, 3, 66, 115
5, 453326, Note_on_c, 3, 59, 88
5, 453356, Note_on_c, 3, 59, 0
5, 453377, Note_on_c, 3, 66, 0
5, 453609, Note_on_c, 3, 66, 105
5, 453613, Note_on_c, 3, 59, 91
5, 453681, Note_on_c, 3, 59, 0
5, 453700, Note_on_c, 3, 66, 0
5, 453907, Note_on_c, 3, 68, 106
5, 453908, Note_on_c, 3, 59, 101
5, 453984, Note_on_c, 3, 59, 0
5, 453990, Note_on_c, 3, 68, 0
5, 454192, Note_on_c, 3, 68, 107
5, 454195, Note_on_c, 3, 59, 102
5, 454344, Note_on_c, 3, 68, 0
5, 454348, Note_on_c, 3, 59, 0
5, 454488, Note_on_c, 3, 69, 94
5, 454489, Note_on_c, 3, 61, 110
5, 454570, Note_on_c, 3, 61, 0
5, 454594, Note_on_c, 3, 69, 0
5, 454783, Note_on_c, 3, 70, 107
5, 454788, Note_on_c, 3, 64, 88
5, 454861, Note_on_c, 3, 64, 0
5, 454876, Note_on_c, 3, 70, 0
5, 455072, Note_on_c, 3, 71, 109
5, 455076, Note_on_c, 3, 64, 99
5, 455188, Note_on_c, 3, 64, 0
5, 455190, Note_on_c, 3, 71, 0
5, 455360, Note_on_c, 3, 71, 107
5, 455365, Note_on_c, 3, 66, 112
5, 455434, Note_on_c, 3, 71, 0
5, 455434, Note_on_c, 3, 66, 0
5, 455653, Note_on_c, 3, 71, 107
5, 455654, Note_on_c, 3, 66, 116
5, 455838, Note_on_c, 3, 66, 0
5, 455875, Note_on_c, 3, 71, 0
5, 455924, Note_on_c, 3, 71, 97
5, 455926, Note_on_c, 3, 67, 98
5, 456028, Note_on_c, 3, 71, 0
5, 456043, Note_on_c, 3, 67, 0
5, 456206, Note_on_c, 3, 75, 105
5, 456497, Note_on_c, 3, 75, 0
5, 456501, Note_on_c, 3, 76, 81
5, 456628, Note_on_c, 3, 76, 0
5, 456810, Note_on_c, 3, 71, 98
5, 457085, Note_on_c, 3, 69, 73
5, 457103, Note_on_c, 3, 71, 0
5, 457258, Note_on_c, 3, 69, 0
5, 457392, Note_on_c, 3, 67, 76
5, 457667, Note_on_c, 3, 66, 77
5, 457676, Note_on_c, 3, 67, 0
5, 457933, Note_on_c, 3, 66, 0
5, 457992, Note_on_c, 3, 67, 67
5, 458297, Note_on_c, 3, 64, 76
5, 458332, Note_on_c, 3, 67, 0
5, 458887, Note_on_c, 3, 63, 76
5, 458896, Note_on_c, 3, 64, 0
5, 459069, Note_on_c, 3, 63, 0
5, 459190, Note_on_c, 3, 62, 91
5, 459480, Note_on_c, 3, 60, 107
5, 459509, Note_on_c, 3, 62, 0
5, 459684, Note_on_c, 3, 60, 0
5, 459772, Note_on_c, 3, 64, 102
5, 459864, Note_on_c, 3, 64, 0
5, 460059, Note_on_c, 3, 64, 89
5, 460188, Note_on_c, 3, 64, 0
5, 460357, Note_on_c, 3, 64, 84
5, 460488, Note_on_c, 3, 64, 0
5, 460641, Note_on_c, 3, 71, 102
5, 460646, Note_on_c, 3, 64, 94
5, 460751, Note_on_c, 3, 64, 0
5, 460758, Note_on_c, 3, 71, 0
5, 460915, Note_on_c, 3, 70, 114
5, 460922, Note_on_c, 3, 64, 88
5, 461036, Note_on_c, 3, 64, 0
5, 461042, Note_on_c, 3, 70, 0
5, 461207, Note_on_c, 3, 69, 106
5, 461214, Note_on_c, 3, 64, 96
5, 461328, Note_on_c, 3, 69, 0
5, 461333, Note_on_c, 3, 64, 0
5, 461494, Note_on_c, 3, 63, 115
5, 461496, Note_on_c, 3, 69, 104
5, 461637, Note_on_c, 3, 63, 0
5, 461639, Note_on_c, 3, 69, 0
5, 461791, Note_on_c, 3, 69, 111
5, 461794, Note_on_c, 3, 64, 109
5, 461906, Note_on_c, 3, 69, 0
5, 461908, Note_on_c, 3, 64, 0
5, 462060, Note_on_c, 3, 69, 109
5, 462064, Note_on_c, 3, 66, 107
5, 462354, Note_on_c, 3, 69, 0
5, 462385, Note_on_c, 3, 66, 0
5, 462925, Note_on_c, 3, 67, 96
5, 462926, Note_on_c, 3, 73, 114
5, 463068, Note_on_c, 3, 67, 0
5, 463112, Note_on_c, 3, 73, 0
5, 463809, Note_on_c, 3, 76, 36
5, 464994, Note_on_c, 3, 76, 0
5, 465867, Note_on_c, 3, 73, 119
5, 465956, Note_on_c, 3, 73, 0
5, 466158, Note_on_c, 3, 72, 114
5, 466231, Note_on_c, 3, 72, 0
5, 466453, Note_on_c, 3, 70, 114
5, 466585, Note_on_c, 3, 70, 0
5, 467431, Note_on_c, 3, 76, 37
5, 468700, Note_on_c, 3, 76, 0
5, 469550, Note_on_c, 3, 73, 114
5, 469645, Note_on_c, 3, 73, 0
5, 469835, Note_on_c, 3, 72, 112
5, 469946, Note_on_c, 3, 72, 0
5, 470144, Note_on_c, 3, 70, 119
5, 470220, Note_on_c, 3, 70, 0
5, 470436, Note_on_c, 3, 70, 121
5, 470517, Note_on_c, 3, 70, 0
5, 470716, Note_on_c, 3, 76, 116
5, 470810, Note_on_c, 3, 76, 0
5, 470999, Note_on_c, 3, 82, 118
5, 471098, Note_on_c, 3, 82, 0
5, 471292, Note_on_c, 3, 81, 116
5, 471349, Note_on_c, 3, 81, 0
5, 471620, Note_on_c, 3, 79, 114
5, 471718, Note_on_c, 3, 79, 0
5, 472034, Note_on_c, 3, 66, 105
5, 472042, Note_on_c, 3, 76, 101
5, 472769, Note_on_c, 3, 66, 0
5, 472776, Note_on_c, 3, 76, 0
5, 473152, Note_on_c, 3, 60, 28
5, 473761, Note_on_c, 3, 60, 0
5, 473914, Note_on_c, 3, 59, 23
5, 474363, Note_on_c, 3, 59, 0
5, 474447, Note_on_c, 3, 59, 30
5, 474758, Note_on_c, 3, 59, 0
5, 475920, Control_c, 3, 11, 80
5, 476918, Note_on_c, 3, 55, 53
5, 477606, Note_on_c, 3, 59, 49
5, 477657, Note_on_c, 3, 55, 0
5, 478059, Note_on_c, 3, 57, 46
5, 478117, Note_on_c, 3, 59, 0
5, 482394, Note_on_c, 3, 55, 38
5, 482453, Note_on_c, 3, 57, 0
5, 482763, Note_on_c, 3, 55, 0
5, 486143, Note_on_c, 3, 66, 57
5, 486583, Note_on_c, 3, 67, 68
5, 486625, Note_on_c, 3, 66, 0
5, 487278, Note_on_c, 3, 66, 67
5, 487339, Note_on_c, 3, 67, 0
5, 487641, Note_on_c, 3, 64, 69
5, 487690, Note_on_c, 3, 66, 0
5, 488803, Note_on_c, 3, 63, 67
5, 488866, Note_on_c, 3, 64, 0
5, 489228, Note_on_c, 3, 63, 0
5, 489238, Note_on_c, 3, 65, 57
5, 489754, Note_on_c, 3, 62, 71
5, 489785, Note_on_c, 3, 65, 0
5, 490196, Note_on_c, 3, 60, 63
5, 490238, Note_on_c, 3, 62, 0
5, 491215, Note_on_c, 3, 60, 0
5, 491218, Note_on_c, 3, 59, 46
5, 492015, Note_on_c, 3, 59, 0
5, 492892, Note_on_c, 3, 55, 46
5, 496162, Note_on_c, 3, 56, 84
5, 496174, Note_on_c, 3, 55, 0
5, 496583, Note_on_c, 3, 57, 71
5, 496619, Note_on_c, 3, 56, 0
5, 498573, Note_on_c, 3, 55, 82
5, 498597, Note_on_c, 3, 57, 0
5, 498998, Note_on_c, 3, 55, 0
5, 499014, Note_on_c, 3, 63, 91
5, 499327, Note_on_c, 3, 64, 89
5, 499349, Note_on_c, 3, 63, 0
5, 499809, Note_on_c, 3, 62, 85
5, 499864, Note_on_c, 3, 64, 0
5, 500410, Note_on_c, 3, 60, 72
5, 500481, Note_on_c, 3, 62, 0
5, 501588, Note_on_c, 3, 59, 60
5, 501626, Note_on_c, 3, 60, 0
5, 502041, Note_on_c, 3, 59, 0
5, 502482, Note_on_c, 3, 57, 48
5, 503271, Note_on_c, 3, 55, 48
5, 503316, Note_on_c, 3, 57, 0
5, 503501, Note_on_c, 3, 55, 0
5, 503668, Note_on_c, 3, 67, 78
5, 503949, Note_on_c, 3, 69, 67
5, 503968, Note_on_c, 3, 67, 0
5, 504117, Note_on_c, 3, 69, 0
5, 504460, Note_on_c, 3, 67, 71
5, 504717, Note_on_c, 3, 69, 65
5, 504727, Note_on_c, 3, 67, 0
5, 504888, Note_on_c, 3, 69, 0
5, 505162, Note_on_c, 3, 67, 79
5, 505489, Note_on_c, 3, 66, 84
5, 505542, Note_on_c, 3, 67, 0
5, 505748, Note_on_c, 3, 64, 82
5, 505782, Note_on_c, 3, 66, 0
5, 505956, Note_on_c, 3, 61, 83
5, 505980, Note_on_c, 3, 64, 0
5, 506228, Note_on_c, 3, 63, 86
5, 506232, Note_on_c, 3, 61, 0
5, 506480, Note_on_c, 3, 64, 59
5, 506508, Note_on_c, 3, 63, 0
5, 506692, Note_on_c, 3, 64, 0
5, 506761, Note_on_c, 3, 67, 84
5, 506967, Note_on_c, 3, 69, 71
5, 506979, Note_on_c, 3, 67, 0
5, 507120, Note_on_c, 3, 69, 0
5, 507411, Note_on_c, 3, 67, 89
5, 507651, Note_on_c, 3, 69, 76
5, 507686, Note_on_c, 3, 67, 0
5, 507902, Note_on_c, 3, 67, 67
5, 507933, Note_on_c, 3, 69, 0
5, 508174, Note_on_c, 3, 67, 0
5, 508457, Note_on_c, 3, 59, 86
5, 508937, Note_on_c, 3, 56, 80
5, 508974, Note_on_c, 3, 59, 0
5, 509190, Note_on_c, 3, 58, 82
5, 509255, Note_on_c, 3, 56, 0
5, 509499, Note_on_c, 3, 59, 47
5, 509516, Note_on_c, 3, 58, 0
5, 509721, Note_on_c, 3, 59, 0
5, 509818, Note_on_c, 3, 62, 78
5, 510056, Note_on_c, 3, 64, 67
5, 510084, Note_on_c, 3, 62, 0
5, 510224, Note_on_c, 3, 64, 0
5, 510498, Note_on_c, 3, 62, 84
5, 510743, Note_on_c, 3, 64, 68
5, 510765, Note_on_c, 3, 62, 0
5, 510992, Note_on_c, 3, 64, 0
5, 511002, Note_on_c, 3, 62, 79
5, 511240, Note_on_c, 3, 66, 88
5, 511266, Note_on_c, 3, 62, 0
5, 511563, Note_on_c, 3, 64, 84
5, 511608, Note_on_c, 3, 66, 0
5, 511792, Note_on_c, 3, 62, 79
5, 511828, Note_on_c, 3, 64, 0
5, 512025, Note_on_c, 3, 59, 82
5, 512056, Note_on_c, 3, 62, 0
5, 512269, Note_on_c, 3, 61, 91
5, 512306, Note_on_c, 3, 59, 0
5, 512523, Note_on_c, 3, 62, 72
5, 512536, Note_on_c, 3, 61, 0
5, 512689, Note_on_c, 3, 62, 0
5, 512736, Note_on_c, 3, 62, 84
5, 512974, Note_on_c, 3, 64, 71
5, 512988, Note_on_c, 3, 62, 0
5, 513138, Note_on_c, 3, 64, 0
5, 513443, Note_on_c, 3, 62, 92
5, 513673, Note_on_c, 3, 64, 91
5, 513678, Note_on_c, 3, 62, 0
5, 513872, Note_on_c, 3, 64, 0
5, 513948, Note_on_c, 3, 64, 85
5, 514865, Note_on_c, 3, 63, 80
5, 514946, Note_on_c, 3, 64, 0
5, 515363, Note_on_c, 3, 66, 104
5, 515474, Note_on_c, 3, 63, 0
5, 515621, Note_on_c, 3, 64, 93
5, 515654, Note_on_c, 3, 66, 0
5, 515768, Note_on_c, 3, 64, 0
5, 516062, Note_on_c, 3, 61, 98
5, 516831, Note_on_c, 3, 61, 0
5, 516871, Note_on_c, 3, 61, 71
5, 517026, Note_on_c, 3, 61, 0
5, 517103, Note_on_c, 3, 61, 70
5, 517542, Note_on_c, 3, 61, 0
5, 518797, Note_on_c, 3, 64, 89
5, 519037, Note_on_c, 3, 63, 85
5, 519072, Note_on_c, 3, 64, 0
5, 519242, Note_on_c, 3, 63, 0
5, 519373, Note_on_c, 3, 64, 89
5, 519923, Note_on_c, 3, 66, 73
5, 519985, Note_on_c, 3, 64, 0
5, 520142, Note_on_c, 3, 66, 0
5, 520176, Note_on_c, 3, 66, 108
5, 520380, Note_on_c, 3, 66, 0
5, 520427, Note_on_c, 3, 66, 118
5, 520829, Note_on_c, 3, 66, 0
5, 522392, Note_on_c, 3, 62, 71
5, 523154, Note_on_c, 3, 60, 98
5, 523187, Note_on_c, 3, 62, 0
5, 523922, Note_on_c, 3, 59, 97
5, 523988, Note_on_c, 3, 60, 0
5, 524737, Note_on_c, 3, 61, 97
5, 524776, Note_on_c, 3, 59, 0
5, 525289, Note_on_c, 3, 64, 107
5, 525307, Note_on_c, 3, 61, 0
5, 525704, Note_on_c, 3, 62, 109
5, 525726, Note_on_c, 3, 64, 0
5, 525938, Note_on_c, 3, 62, 0
5, 529341, Note_on_c, 3, 67, 94
5, 530063, Note_on_c, 3, 66, 85
5, 530132, Note_on_c, 3, 67, 0
5, 530756, Note_on_c, 3, 67, 86
5, 530788, Note_on_c, 3, 66, 0
5, 531767, Note_on_c, 3, 69, 79
5, 531813, Note_on_c, 3, 67, 0
5, 532992, Note_on_c, 3, 69, 0
5, 534399, Note_on_c, 3, 60, 45
5, 535506, Note_on_c, 3, 60, 0
5, 547101, Note_on_c, 3, 60, 54
5, 547680, Note_on_c, 3, 59, 59
5, 547732, Note_on_c, 3, 60, 0
5, 548180, Note_on_c, 3, 59, 0
5, 554031, Note_on_c, 3, 60, 41
5, 555127, Note_on_c, 3, 59, 51
5, 555157, Note_on_c, 3, 60, 0
5, 555584, Note_on_c, 3, 59, 0
5, 557280, Program_c, 3, 45
5, 557280, Control_c, 3, 91, 120
5, 557751, Note_on_c, 3, 66, 67
5, 557783, Note_on_c, 3, 66, 0
5, 558027, Note_on_c, 3, 66, 76
5, 558056, Note_on_c, 3, 66, 0
5, 558368, Note_on_c, 3, 67, 44
5, 558442, Note_on_c, 3, 67, 0
5, 559936, Note_on_c, 3, 57, 39
5, 559963, Note_on_c, 3, 57, 0
5, 560233, Note_on_c, 3, 57, 55
5, 560280, Note_on_c, 3, 57, 0
5, 561600, Program_c, 3, 49
5, 561600, Control_c, 3, 91, 60
5, 561724, Note_on_c, 3, 66, 79
5, 561988, Note_on_c, 3, 67, 71
5, 562040, Note_on_c, 3, 66, 0
5, 562585, Note_on_c, 3, 67, 0
5, 563192, Note_on_c, 3, 66, 88
5, 563557, Note_on_c, 3, 62, 83
5, 563606, Note_on_c, 3, 66, 0
5, 564302, Note_on_c, 3, 67, 82
5, 564348, Note_on_c, 3, 62, 0
5, 564588, Note_on_c, 3, 69, 87
5, 564626, Note_on_c, 3, 67, 0
5, 564826, Note_on_c, 3, 71, 90
5, 564864, Note_on_c, 3, 69, 0
5, 565092, Note_on_c, 3, 69, 83
5, 565140, Note_on_c, 3, 71, 0
5, 565447, Note_on_c, 3, 66, 80
5, 565497, Note_on_c, 3, 69, 0
5, 565785, Note_on_c, 3, 67, 69
5, 565788, Note_on_c, 3, 66, 0
5, 566892, Note_on_c, 3, 66, 60
5, 566968, Note_on_c, 3, 67, 0
5, 567787, Note_on_c, 3, 64, 68
5, 567835, Note_on_c, 3, 66, 0
5, 568760, Note_on_c, 3, 62, 63
5, 568923, Note_on_c, 3, 64, 0
5, 569770, Note_on_c, 3, 60, 64
5, 569795, Note_on_c, 3, 62, 0
5, 571129, Note_on_c, 3, 59, 60
5, 571161, Note_on_c, 3, 60, 0
5, 572004, Note_on_c, 3, 59, 0
5, 572076, Note_on_c, 3, 67, 89
5, 572522, Note_on_c, 3, 67, 0
5, 573177, Note_on_c, 3, 66, 78
5, 575071, Note_on_c, 3, 64, 78
5, 575116, Note_on_c, 3, 66, 0
5, 576896, Note_on_c, 3, 63, 76
5, 576995, Note_on_c, 3, 64, 0
5, 577953, Note_on_c, 3, 64, 66
5, 577966, Note_on_c, 3, 63, 0
5, 578253, Note_on_c, 3, 64, 0
5, 578457, Note_on_c, 3, 59, 60
5, 579949, Note_on_c, 3, 59, 0
5, 579953, Note_on_c, 3, 60, 50
5, 580487, Note_on_c, 3, 60, 0
5, 580855, Note_on_c, 3, 62, 81
5, 581266, Note_on_c, 3, 62, 0
5, 581695, Note_on_c, 3, 60, 93
5, 582050, Note_on_c, 3, 60, 0
5, 582680, Note_on_c, 3, 55, 87
5, 583109, Note_on_c, 3, 55, 0
5, 583969, Note_on_c, 3, 64, 85
5, 585540, Note_on_c, 3, 64, 0
5, 587626, Note_on_c, 3, 64, 51
5, 588040, Note_on_c, 3, 63, 50
5, 588113, Note_on_c, 3, 64, 0
5, 588719, Note_on_c, 3, 63, 0
5, 588719, Note_on_c, 3, 57, 49
5, 589583, Note_on_c, 3, 55, 85
5, 589593, Note_on_c, 3, 57, 0
5, 589646, Note_on_c, 3, 55, 0
5, 589764, Note_on_c, 3, 55, 89
5, 589978, Note_on_c, 3, 55, 0
5, 590005, Note_on_c, 3, 55, 89
5, 590055, Note_on_c, 3, 55, 0
5, 590540, Note_on_c, 3, 55, 84
5, 590701, Note_on_c, 3, 55, 0
5, 590753, Note_on_c, 3, 55, 94
5, 590831, Note_on_c, 3, 55, 0
5, 591267, Program_c, 3, 45
5, 591267, Control_c, 3, 91, 120
5, 591267, Note_on_c, 3, 57, 62
5, 591294, Note_on_c, 3, 57, 0
5, 591409, Note_on_c, 3, 57, 55
5, 591442, Note_on_c, 3, 57, 0
5, 591548, Note_on_c, 3, 57, 49
5, 591596, Note_on_c, 3, 57, 0
5, 591674, Note_on_c, 3, 60, 76
5, 591698, Note_on_c, 3, 60, 0
5, 592014, Note_on_c, 3, 59, 71
5, 592050, Note_on_c, 3, 59, 0
5, 592144, Note_on_c, 3, 59, 72
5, 592179, Note_on_c, 3, 59, 0
5, 592267, Note_on_c, 3, 59, 70
5, 592305, Note_on_c, 3, 59, 0
5, 592397, Note_on_c, 3, 59, 67
5, 592421, Note_on_c, 3, 59, 0
5, 592560, Program_c, 3, 49
5, 592560, Control_c, 3, 91, 60
5, 592773, Note_on_c, 3, 55, 84
5, 592985, Note_on_c, 3, 55, 0
5, 593026, Note_on_c, 3, 55, 68
5, 593105, Note_on_c, 3, 55, 0
5, 593525, Note_on_c, 3, 55, 102
5, 593705, Note_on_c, 3, 55, 0
5, 593758, Note_on_c, 3, 55, 97
5, 593896, Note_on_c, 3, 55, 0
5, 594000, Program_c, 3, 45
5, 594000, Control_c, 3, 91, 120
5, 594273, Note_on_c, 3, 57, 64
5, 594323, Note_on_c, 3, 57, 0
5, 594434, Note_on_c, 3, 57, 49
5, 594469, Note_on_c, 3, 57, 0
5, 594547, Note_on_c, 3, 57, 52
5, 594585, Note_on_c, 3, 57, 0
5, 594705, Note_on_c, 3, 60, 73
5, 594737, Note_on_c, 3, 60, 0
5, 595058, Note_on_c, 3, 59, 65
5, 595099, Note_on_c, 3, 59, 0
5, 595215, Note_on_c, 3, 59, 73
5, 595258, Note_on_c, 3, 59, 0
5, 595331, Note_on_c, 3, 59, 66
5, 595368, Note_on_c, 3, 59, 0
5, 595458, Note_on_c, 3, 59, 67
5, 595483, Note_on_c, 3, 59, 0
5, 595871, Program_c, 3, 49
5, 595871, Control_c, 3, 91, 60
5, 595871, Note_on_c, 3, 62, 100
5, 596092, Note_on_c, 3, 62, 0
5, 596123, Note_on_c, 3, 62, 86
5, 596249, Note_on_c, 3, 62, 0
5, 596631, Note_on_c, 3, 62, 103
5, 596825, Note_on_c, 3, 62, 0
5, 596863, Note_on_c, 3, 62, 93
5, 596991, Note_on_c, 3, 62, 0
5, 597392, Program_c, 3, 45
5, 597392, Control_c, 3, 91, 120
5, 597392, Note_on_c, 3, 59, 68
5, 597432, Note_on_c, 3, 59, 0
5, 597548, Note_on_c, 3, 59, 52
5, 597587, Note_on_c, 3, 59, 0
5, 597686, Note_on_c, 3, 59, 51
5, 597735, Note_on_c, 3, 59, 0
5, 597851, Note_on_c, 3, 59, 54
5, 597886, Note_on_c, 3, 59, 0
5, 598209, Note_on_c, 3, 59, 66
5, 598252, Note_on_c, 3, 59, 0
5, 598348, Note_on_c, 3, 59, 60
5, 598386, Note_on_c, 3, 59, 0
5, 598467, Note_on_c, 3, 59, 57
5, 598509, Note_on_c, 3, 59, 0
5, 598602, Note_on_c, 3, 59, 42
5, 598635, Note_on_c, 3, 59, 0
5, 598964, Program_c, 3, 49
5, 598964, Control_c, 3, 91, 60
5, 598964, Note_on_c, 3, 55, 73
5, 599178, Note_on_c, 3, 55, 0
5, 599204, Note_on_c, 3, 55, 93
5, 599311, Note_on_c, 3, 55, 0
5, 599722, Note_on_c, 3, 55, 101
5, 599923, Note_on_c, 3, 55, 0
5, 599958, Note_on_c, 3, 55, 81
5, 600035, Note_on_c, 3, 55, 0
5, 600480, Program_c, 3, 45
5, 600480, Control_c, 3, 91, 120
5, 600534, Note_on_c, 3, 61, 62
5, 600554, Note_on_c, 3, 61, 0
5, 600678, Note_on_c, 3, 61, 55
5, 600709, Note_on_c, 3, 61, 0
5, 600822, Note_on_c, 3, 61, 49
5, 600847, Note_on_c, 3, 61, 0
5, 600961, Note_on_c, 3, 64, 63
5, 600986, Note_on_c, 3, 64, 0
5, 601339, Note_on_c, 3, 61, 76
5, 601372, Note_on_c, 3, 61, 0
5, 601478, Note_on_c, 3, 61, 72
5, 601513, Note_on_c, 3, 61, 0
5, 601601, Note_on_c, 3, 61, 68
5, 601630, Note_on_c, 3, 61, 0
5, 601741, Note_on_c, 3, 64, 51
5, 601766, Note_on_c, 3, 64, 0
5, 602121, Program_c, 3, 49
5, 602121, Control_c, 3, 91, 60
5, 602121, Note_on_c, 3, 62, 91
5, 602329, Note_on_c, 3, 62, 0
5, 602367, Note_on_c, 3, 62, 100
5, 602512, Note_on_c, 3, 66, 95
5, 602529, Note_on_c, 3, 62, 0
5, 602677, Note_on_c, 3, 66, 0
5, 602866, Note_on_c, 3, 62, 96
5, 603054, Note_on_c, 3, 62, 0
5, 603084, Note_on_c, 3, 62, 84
5, 603198, Note_on_c, 3, 62, 0
5, 603606, Program_c, 3, 45
5, 603606, Control_c, 3, 91, 120
5, 603606, Note_on_c, 3, 59, 67
5, 603642, Note_on_c, 3, 59, 0
5, 603764, Note_on_c, 3, 59, 62
5, 603803, Note_on_c, 3, 59, 0
5, 603901, Note_on_c, 3, 59, 62
5, 603937, Note_on_c, 3, 59, 0
5, 604035, Note_on_c, 3, 64, 59
5, 604071, Note_on_c, 3, 64, 0
5, 604392, Note_on_c, 3, 61, 49
5, 604425, Note_on_c, 3, 61, 0
5, 604506, Note_on_c, 3, 61, 65
5, 604543, Note_on_c, 3, 61, 0
5, 604628, Note_on_c, 3, 61, 65
5, 604657, Note_on_c, 3, 61, 0
5, 604788, Note_on_c, 3, 64, 34
5, 604800, Program_c, 3, 49
5, 604800, Control_c, 3, 91, 60
5, 604818, Note_on_c, 3, 64, 0
5, 605152, Note_on_c, 3, 62, 96
5, 605357, Note_on_c, 3, 62, 0
5, 605390, Note_on_c, 3, 62, 100
5, 605536, Note_on_c, 3, 66, 78
5, 605539, Note_on_c, 3, 62, 0
5, 605641, Note_on_c, 3, 66, 0
5, 605874, Note_on_c, 3, 62, 103
5, 606064, Note_on_c, 3, 62, 0
5, 606114, Note_on_c, 3, 62, 99
5, 606230, Note_on_c, 3, 62, 0
5, 606633, Program_c, 3, 45
5, 606633, Control_c, 3, 91, 120
5, 606633, Note_on_c, 3, 60, 63
5, 606664, Note_on_c, 3, 60, 0
5, 606804, Note_on_c, 3, 60, 56
5, 606840, Note_on_c, 3, 60, 0
5, 606933, Note_on_c, 3, 60, 52
5, 606959, Note_on_c, 3, 60, 0
5, 607059, Note_on_c, 3, 60, 51
5, 607085, Note_on_c, 3, 60, 0
5, 607402, Note_on_c, 3, 59, 67
5, 607436, Note_on_c, 3, 59, 0
5, 607525, Note_on_c, 3, 59, 74
5, 607559, Note_on_c, 3, 59, 0
5, 607653, Note_on_c, 3, 59, 55
5, 607689, Note_on_c, 3, 59, 0
5, 607776, Note_on_c, 3, 63, 80
5, 607801, Note_on_c, 3, 63, 0
5, 607997, Program_c, 3, 49
5, 607997, Control_c, 3, 91, 60
5, 607997, Note_on_c, 3, 64, 99
5, 608252, Note_on_c, 3, 61, 105
5, 608259, Note_on_c, 3, 64, 0
5, 608492, Note_on_c, 3, 61, 0
5, 608766, Note_on_c, 3, 64, 98
5, 609215, Note_on_c, 3, 66, 89
5, 609234, Note_on_c, 3, 64, 0
5, 609471, Note_on_c, 3, 66, 0
5, 609488, Note_on_c, 3, 64, 101
5, 609722, Note_on_c, 3, 64, 0
5, 609735, Note_on_c, 3, 61, 109
5, 610026, Note_on_c, 3, 61, 0
5, 610224, Note_on_c, 3, 64, 106
5, 610690, Note_on_c, 3, 66, 103
5, 610717, Note_on_c, 3, 64, 0
5, 610880, Note_on_c, 3, 66, 0
5, 610962, Note_on_c, 3, 66, 112
5, 611428, Note_on_c, 3, 68, 95
5, 611458, Note_on_c, 3, 66, 0
5, 611686, Note_on_c, 3, 68, 0
5, 611708, Note_on_c, 3, 66, 108
5, 612196, Note_on_c, 3, 68, 110
5, 612210, Note_on_c, 3, 66, 0
5, 612458, Note_on_c, 3, 68, 0
5, 612484, Note_on_c, 3, 67, 108
5, 612887, Note_on_c, 3, 67, 0
5, 613862, Note_on_c, 3, 63, 114
5, 614291, Note_on_c, 3, 63, 0
5, 614328, Note_on_c, 3, 62, 116
5, 615010, Note_on_c, 3, 62, 0
5, 615044, Note_on_c, 3, 63, 113
5, 615453, Note_on_c, 3, 63, 0
5, 615512, Note_on_c, 3, 64, 107
5, 615772, Note_on_c, 3, 63, 114
5, 615803, Note_on_c, 3, 64, 0
5, 616303, Note_on_c, 3, 63, 0
5, 616464, Note_on_c, 3, 64, 111
5, 616894, Note_on_c, 3, 64, 0
5, 616970, Note_on_c, 3, 65, 117
5, 617257, Note_on_c, 3, 64, 116
5, 617286, Note_on_c, 3, 65, 0
5, 617675, Note_on_c, 3, 64, 0
5, 617699, Note_on_c, 3, 67, 117
5, 617941, Note_on_c, 3, 66, 115
5, 617961, Note_on_c, 3, 67, 0
5, 618372, Note_on_c, 3, 66, 0
5, 618406, Note_on_c, 3, 69, 117
5, 618635, Note_on_c, 3, 67, 118
5, 618641, Note_on_c, 3, 69, 0
5, 619119, Note_on_c, 3, 67, 0
5, 619142, Note_on_c, 3, 67, 114
5, 620205, Note_on_c, 3, 67, 0
5, 620205, Note_on_c, 3, 59, 106
5, 620260, Note_on_c, 3, 64, 117
5, 620287, Note_on_c, 3, 71, 114
5, 620297, Note_on_c, 3, 76, 125
5, 620332, Note_on_c, 3, 59, 0
5, 620336, Note_on_c, 3, 64, 0
5, 620449, Note_on_c, 3, 71, 0
5, 620476, Note_on_c, 3, 76, 0
5, 621360, Program_c, 3, 45
5, 621360, Control_c, 3, 91, 120
5, 621916, Note_on_c, 3, 67, 77
5, 621956, Note_on_c, 3, 67, 0
5, 628560, Program_c, 3, 49
5, 628560, Control_c, 3, 91, 60
5, 628560, Control_c, 3, 11, 120
5, 629029, Note_on_c, 3, 76, 126
5, 629068, Note_on_c, 3, 76, 0
5, 629097, Note_on_c, 3, 76, 80
5, 629143, Note_on_c, 3, 76, 0
5, 629162, Note_on_c, 3, 76, 116
5, 629202, Note_on_c, 3, 76, 0
5, 629226, Note_on_c, 3, 76, 96
5, 629272, Note_on_c, 3, 76, 0
5, 629303, Note_on_c, 3, 76, 100
5, 629344, Note_on_c, 3, 76, 0
5, 629366, Note_on_c, 3, 76, 96
5, 629407, Note_on_c, 3, 76, 0
5, 629442, Note_on_c, 3, 76, 109
5, 629484, Note_on_c, 3, 76, 0
5, 629502, Note_on_c, 3, 76, 94
5, 629547, Note_on_c, 3, 76, 0
5, 629588, Note_on_c, 3, 76, 114
5, 629629, Note_on_c, 3, 76, 0
5, 629649, Note_on_c, 3, 76, 99
5, 629698, Note_on_c, 3, 76, 0
5, 629727, Note_on_c, 3, 76, 102
5, 629776, Note_on_c, 3, 76, 0
5, 629789, Note_on_c, 3, 76, 85
5, 629839, Note_on_c, 3, 76, 0
5, 629872, Note_on_c, 3, 74, 114
5, 629915, Note_on_c, 3, 74, 0
5, 629938, Note_on_c, 3, 74, 93
5, 629981, Note_on_c, 3, 74, 0
5, 630009, Note_on_c, 3, 74, 101
5, 630109, Note_on_c, 3, 74, 0
5, 630158, Note_on_c, 3, 74, 111
5, 630259, Note_on_c, 3, 74, 0
5, 630292, Note_on_c, 3, 74, 92
5, 630328, Note_on_c, 3, 74, 0
5, 630352, Note_on_c, 3, 74, 90
5, 630394, Note_on_c, 3, 74, 0
5, 630443, Note_on_c, 3, 77, 127
5, 630482, Note_on_c, 3, 77, 0
5, 630511, Note_on_c, 3, 77, 84
5, 630557, Note_on_c, 3, 77, 0
5, 630578, Note_on_c, 3, 77, 108
5, 630683, Note_on_c, 3, 77, 0
5, 630720, Note_on_c, 3, 76, 121
5, 630761, Note_on_c, 3, 76, 0
5, 630784, Note_on_c, 3, 76, 99
5, 630829, Note_on_c, 3, 76, 0
5, 630863, Note_on_c, 3, 76, 103
5, 630901, Note_on_c, 3, 76, 0
5, 630915, Note_on_c, 3, 76, 76
5, 630956, Note_on_c, 3, 76, 0
5, 630990, Note_on_c, 3, 76, 101
5, 631029, Note_on_c, 3, 76, 0
5, 631053, Note_on_c, 3, 76, 99
5, 631095, Note_on_c, 3, 76, 0
5, 631133, Note_on_c, 3, 76, 113
5, 631171, Note_on_c, 3, 76, 0
5, 631194, Note_on_c, 3, 76, 102
5, 631238, Note_on_c, 3, 76, 0
5, 631275, Note_on_c, 3, 76, 112
5, 631313, Note_on_c, 3, 76, 0
5, 631333, Note_on_c, 3, 76, 109
5, 631378, Note_on_c, 3, 76, 0
5, 631413, Note_on_c, 3, 76, 109
5, 631452, Note_on_c, 3, 76, 0
5, 631471, Note_on_c, 3, 76, 106
5, 631515, Note_on_c, 3, 76, 0
5, 631556, Note_on_c, 3, 74, 113
5, 631595, Note_on_c, 3, 74, 0
5, 631618, Note_on_c, 3, 74, 97
5, 631661, Note_on_c, 3, 74, 0
5, 631687, Note_on_c, 3, 74, 103
5, 631729, Note_on_c, 3, 74, 0
5, 631751, Note_on_c, 3, 74, 103
5, 631798, Note_on_c, 3, 74, 0
5, 631824, Note_on_c, 3, 74, 114
5, 631864, Note_on_c, 3, 74, 0
5, 631884, Note_on_c, 3, 74, 107
5, 631929, Note_on_c, 3, 74, 0
5, 631958, Note_on_c, 3, 74, 114
5, 631998, Note_on_c, 3, 74, 0
5, 632017, Note_on_c, 3, 74, 111
5, 632062, Note_on_c, 3, 74, 0
5, 632102, Note_on_c, 3, 77, 126
5, 632146, Note_on_c, 3, 77, 0
5, 632166, Note_on_c, 3, 77, 111
5, 632206, Note_on_c, 3, 77, 0
5, 632242, Note_on_c, 3, 77, 120
5, 632338, Note_on_c, 3, 77, 0
5, 632401, Note_on_c, 3, 76, 126
5, 632617, Note_on_c, 3, 76, 0
5, 635760, Control_c, 3, 11, 80
5, 637301, Note_on_c, 3, 65, 50
5, 637596, Note_on_c, 3, 64, 46
5, 637637, Note_on_c, 3, 65, 0
5, 637919, Note_on_c, 3, 60, 48
5, 637921, Note_on_c, 3, 60, 0
5, 637987, Note_on_c, 3, 64, 0
5, 638284, Note_on_c, 3, 55, 40
5, 639246, Note_on_c, 3, 57, 36
5, 639281, Note_on_c, 3, 55, 0
5, 640348, Note_on_c, 3, 55, 50
5, 640399, Note_on_c, 3, 57, 0
5, 641402, Note_on_c, 3, 60, 52
5, 641405, Note_on_c, 3, 55, 0
5, 642076, Note_on_c, 3, 63, 64
5, 642080, Note_on_c, 3, 60, 0
5, 642486, Note_on_c, 3, 64, 64
5, 642540, Note_on_c, 3, 63, 0
5, 643497, Note_on_c, 3, 60, 48
5, 643557, Note_on_c, 3, 64, 0
5, 644256, Note_on_c, 3, 57, 47
5, 644333, Note_on_c, 3, 60, 0
5, 644716, Note_on_c, 3, 55, 34
5, 644796, Note_on_c, 3, 57, 0
5, 645160, Note_on_c, 3, 55, 0
5, 645860, Control_c, 3, 11, 100
5, 645860, Note_on_c, 3, 55, 112
5, 645910, Note_on_c, 3, 64, 121
5, 645934, Note_on_c, 3, 71, 101
5, 645958, Note_on_c, 3, 76, 111
5, 646224, Note_on_c, 3, 64, 0
5, 646225, Note_on_c, 3, 71, 0
5, 646233, Note_on_c, 3, 55, 0
5, 646248, Note_on_c, 3, 76, 0
5, 647057, Note_on_c, 3, 64, 117
5, 647225, Note_on_c, 3, 64, 0
5, 647249, Note_on_c, 3, 64, 118
5, 649136, Note_on_c, 3, 64, 0
5, 649440, End_track
6, 0, Start_track
6, 0, Title_t, "Viole                               "
6, 100, Control_c, 4, 0, 0
6, 120, Control_c, 4, 32, 0
6, 140, Program_c, 4, 49
6, 160, Control_c, 4, 10, 79
6, 180, Control_c, 4, 7, 100
6, 200, Control_c, 4, 11, 100
6, 220, Control_c, 4, 1, 19
6, 240, Control_c, 4, 91, 60
6, 260, Control_c, 4, 93, 38
6, 280, Control_c, 4, 101, 0
6, 300, Control_c, 4, 100, 0
6, 320, Control_c, 4, 6, 12
6, 340, Pitch_bend_c, 4, 8208
6, 360, Control_c, 4, 99, 1
6, 380, Control_c, 4, 98, 32
6, 400, Control_c, 4, 6, 62
6, 420, Control_c, 4, 98, 33
6, 440, Control_c, 4, 6, 60
6, 460, Control_c, 4, 98, 99
6, 480, Control_c, 4, 6, 57
6, 500, Control_c, 4, 98, 100
6, 520, Control_c, 4, 6, 64
6, 540, Control_c, 4, 98, 102
6, 560, Control_c, 4, 6, 66
6, 580, Control_c, 4, 99, 1
6, 600, Control_c, 4, 98, 8
6, 620, Control_c, 4, 6, 90
6, 640, Control_c, 4, 98, 9
6, 660, Control_c, 4, 6, 50
6, 680, Control_c, 4, 98, 10
6, 700, Control_c, 4, 6, 70
6, 1685, Note_on_c, 4, 59, 79
6, 1759, Note_on_c, 4, 59, 0
6, 2004, Note_on_c, 4, 59, 96
6, 2093, Note_on_c, 4, 59, 0
6, 2305, Note_on_c, 4, 55, 88
6, 2417, Note_on_c, 4, 55, 0
6, 2611, Note_on_c, 4, 54, 103
6, 2716, Note_on_c, 4, 54, 0
6, 2890, Note_on_c, 4, 66, 100
6, 2977, Note_on_c, 4, 66, 0
6, 3184, Note_on_c, 4, 65, 101
6, 3316, Note_on_c, 4, 65, 0
6, 3478, Note_on_c, 4, 64, 96
6, 3578, Note_on_c, 4, 64, 0
6, 3770, Note_on_c, 4, 64, 96
6, 3773, Note_on_c, 4, 57, 77
6, 3870, Note_on_c, 4, 57, 0
6, 3905, Note_on_c, 4, 64, 0
6, 4051, Note_on_c, 4, 67, 89
6, 4053, Note_on_c, 4, 55, 77
6, 4133, Note_on_c, 4, 55, 0
6, 4145, Note_on_c, 4, 67, 0
6, 4341, Note_on_c, 4, 67, 89
6, 4342, Note_on_c, 4, 55, 77
6, 4459, Note_on_c, 4, 55, 0
6, 4518, Note_on_c, 4, 67, 0
6, 4643, Note_on_c, 4, 59, 76
6, 4647, Note_on_c, 4, 66, 88
6, 4709, Note_on_c, 4, 59, 0
6, 4726, Note_on_c, 4, 66, 0
6, 4916, Note_on_c, 4, 66, 113
6, 4921, Note_on_c, 4, 59, 96
6, 5083, Note_on_c, 4, 59, 0
6, 5179, Note_on_c, 4, 66, 0
6, 5210, Note_on_c, 4, 64, 90
6, 5316, Note_on_c, 4, 64, 0
6, 5508, Note_on_c, 4, 69, 98
6, 5798, Note_on_c, 4, 69, 0
6, 5805, Note_on_c, 4, 67, 65
6, 5939, Note_on_c, 4, 67, 0
6, 6085, Note_on_c, 4, 65, 103
6, 6371, Note_on_c, 4, 64, 76
6, 6375, Note_on_c, 4, 65, 0
6, 6513, Note_on_c, 4, 64, 0
6, 6669, Note_on_c, 4, 64, 90
6, 6926, Note_on_c, 4, 64, 0
6, 6978, Note_on_c, 4, 59, 83
6, 7095, Note_on_c, 4, 59, 0
6, 7292, Note_on_c, 4, 59, 76
6, 7384, Note_on_c, 4, 59, 0
6, 7589, Note_on_c, 4, 59, 73
6, 7681, Note_on_c, 4, 59, 0
6, 7862, Note_on_c, 4, 61, 78
6, 8149, Note_on_c, 4, 61, 0
6, 8160, Note_on_c, 4, 63, 59
6, 8331, Note_on_c, 4, 63, 0
6, 8457, Note_on_c, 4, 64, 107
6, 8461, Note_on_c, 4, 59, 93
6, 8686, Note_on_c, 4, 64, 0
6, 8705, Note_on_c, 4, 59, 0
6, 8743, Note_on_c, 4, 64, 100
6, 8745, Note_on_c, 4, 57, 98
6, 8877, Note_on_c, 4, 64, 0
6, 8881, Note_on_c, 4, 57, 0
6, 9048, Note_on_c, 4, 57, 92
6, 9159, Note_on_c, 4, 57, 0
6, 9337, Note_on_c, 4, 60, 106
6, 9361, Note_on_c, 4, 60, 0
6, 9632, Note_on_c, 4, 59, 101
6, 9738, Note_on_c, 4, 59, 0
6, 9919, Note_on_c, 4, 64, 107
6, 10048, Note_on_c, 4, 64, 0
6, 10206, Note_on_c, 4, 61, 113
6, 10316, Note_on_c, 4, 61, 0
6, 10499, Note_on_c, 4, 60, 104
6, 10629, Note_on_c, 4, 60, 0
6, 10788, Note_on_c, 4, 60, 96
6, 10793, Note_on_c, 4, 48, 83
6, 10801, Note_on_c, 4, 60, 0
6, 10879, Note_on_c, 4, 48, 0
6, 11080, Note_on_c, 4, 48, 107
6, 11086, Note_on_c, 4, 60, 106
6, 11158, Note_on_c, 4, 48, 0
6, 11171, Note_on_c, 4, 60, 0
6, 11358, Note_on_c, 4, 57, 103
6, 11642, Note_on_c, 4, 59, 72
6, 11648, Note_on_c, 4, 57, 0
6, 11863, Note_on_c, 4, 59, 0
6, 12190, Note_on_c, 4, 58, 101
6, 12394, Note_on_c, 4, 58, 0
6, 13107, Note_on_c, 4, 67, 30
6, 14316, Note_on_c, 4, 67, 0
6, 15150, Note_on_c, 4, 61, 119
6, 15226, Note_on_c, 4, 61, 0
6, 15442, Note_on_c, 4, 63, 119
6, 15499, Note_on_c, 4, 63, 0
6, 15736, Note_on_c, 4, 55, 109
6, 15764, Note_on_c, 4, 64, 100
6, 15842, Note_on_c, 4, 55, 0
6, 15863, Note_on_c, 4, 64, 0
6, 16699, Note_on_c, 4, 67, 39
6, 18020, Note_on_c, 4, 67, 0
6, 18843, Note_on_c, 4, 61, 105
6, 18930, Note_on_c, 4, 61, 0
6, 19123, Note_on_c, 4, 63, 108
6, 19240, Note_on_c, 4, 63, 0
6, 19412, Note_on_c, 4, 64, 97
6, 19413, Note_on_c, 4, 61, 107
6, 19507, Note_on_c, 4, 61, 0
6, 19519, Note_on_c, 4, 64, 0
6, 19701, Note_on_c, 4, 64, 81
6, 19703, Note_on_c, 4, 61, 84
6, 19782, Note_on_c, 4, 61, 0
6, 19800, Note_on_c, 4, 64, 0
6, 19980, Note_on_c, 4, 64, 90
6, 19982, Note_on_c, 4, 61, 84
6, 20060, Note_on_c, 4, 61, 0
6, 20074, Note_on_c, 4, 64, 0
6, 20286, Note_on_c, 4, 64, 96
6, 20287, Note_on_c, 4, 61, 104
6, 20371, Note_on_c, 4, 61, 0
6, 20380, Note_on_c, 4, 64, 0
6, 20580, Note_on_c, 4, 69, 100
6, 20583, Note_on_c, 4, 66, 104
6, 20673, Note_on_c, 4, 66, 0
6, 20677, Note_on_c, 4, 69, 0
6, 20898, Note_on_c, 4, 64, 97
6, 20986, Note_on_c, 4, 64, 0
6, 21331, Note_on_c, 4, 69, 77
6, 21334, Note_on_c, 4, 64, 81
6, 22090, Note_on_c, 4, 69, 0
6, 22095, Note_on_c, 4, 64, 0
6, 22467, Note_on_c, 4, 54, 30
6, 23750, Note_on_c, 4, 55, 30
6, 23770, Note_on_c, 4, 54, 0
6, 23974, Note_on_c, 4, 59, 29
6, 24013, Note_on_c, 4, 55, 0
6, 24070, Note_on_c, 4, 59, 0
6, 24140, Note_on_c, 4, 59, 25
6, 24206, Note_on_c, 4, 59, 0
6, 24309, Note_on_c, 4, 59, 34
6, 24371, Note_on_c, 4, 59, 0
6, 24479, Note_on_c, 4, 59, 40
6, 24535, Note_on_c, 4, 59, 0
6, 24638, Note_on_c, 4, 59, 37
6, 24698, Note_on_c, 4, 59, 0
6, 24800, Note_on_c, 4, 59, 44
6, 24863, Note_on_c, 4, 59, 0
6, 24962, Note_on_c, 4, 59, 38
6, 25019, Note_on_c, 4, 59, 0
6, 25106, Note_on_c, 4, 59, 47
6, 25162, Note_on_c, 4, 59, 0
6, 25249, Note_on_c, 4, 59, 46
6, 25306, Note_on_c, 4, 59, 0
6, 25395, Note_on_c, 4, 59, 43
6, 25447, Note_on_c, 4, 59, 0
6, 25533, Note_on_c, 4, 59, 51
6, 25592, Note_on_c, 4, 59, 0
6, 25686, Note_on_c, 4, 59, 42
6, 25744, Note_on_c, 4, 59, 0
6, 25847, Note_on_c, 4, 59, 28
6, 25908, Note_on_c, 4, 59, 0
6, 25996, Note_on_c, 4, 59, 38
6, 26052, Note_on_c, 4, 59, 0
6, 26141, Note_on_c, 4, 59, 36
6, 26202, Note_on_c, 4, 59, 0
6, 26293, Note_on_c, 4, 59, 31
6, 26353, Note_on_c, 4, 59, 0
6, 26447, Note_on_c, 4, 59, 41
6, 26503, Note_on_c, 4, 59, 0
6, 26613, Note_on_c, 4, 60, 57
6, 26641, Note_on_c, 4, 60, 0
6, 26774, Note_on_c, 4, 60, 37
6, 26828, Note_on_c, 4, 60, 0
6, 26928, Note_on_c, 4, 60, 39
6, 26990, Note_on_c, 4, 60, 0
6, 27082, Note_on_c, 4, 60, 38
6, 27135, Note_on_c, 4, 60, 0
6, 27228, Note_on_c, 4, 60, 42
6, 27286, Note_on_c, 4, 60, 0
6, 27373, Note_on_c, 4, 60, 41
6, 27429, Note_on_c, 4, 60, 0
6, 27518, Note_on_c, 4, 60, 41
6, 27568, Note_on_c, 4, 60, 0
6, 27659, Note_on_c, 4, 60, 48
6, 27712, Note_on_c, 4, 60, 0
6, 27809, Note_on_c, 4, 60, 36
6, 27863, Note_on_c, 4, 60, 0
6, 27957, Note_on_c, 4, 60, 39
6, 28010, Note_on_c, 4, 60, 0
6, 28103, Note_on_c, 4, 60, 38
6, 28158, Note_on_c, 4, 60, 0
6, 28246, Note_on_c, 4, 60, 33
6, 28297, Note_on_c, 4, 60, 0
6, 28389, Note_on_c, 4, 60, 41
6, 28444, Note_on_c, 4, 60, 0
6, 28532, Note_on_c, 4, 60, 47
6, 28588, Note_on_c, 4, 60, 0
6, 28678, Note_on_c, 4, 60, 39
6, 28731, Note_on_c, 4, 60, 0
6, 28822, Note_on_c, 4, 60, 42
6, 28876, Note_on_c, 4, 60, 0
6, 28964, Note_on_c, 4, 60, 41
6, 29022, Note_on_c, 4, 60, 0
6, 29114, Note_on_c, 4, 60, 37
6, 29164, Note_on_c, 4, 60, 0
6, 29259, Note_on_c, 4, 59, 45
6, 29309, Note_on_c, 4, 59, 0
6, 29405, Note_on_c, 4, 59, 37
6, 29461, Note_on_c, 4, 59, 0
6, 29556, Note_on_c, 4, 59, 39
6, 29608, Note_on_c, 4, 59, 0
6, 29696, Note_on_c, 4, 59, 42
6, 29743, Note_on_c, 4, 59, 0
6, 29840, Note_on_c, 4, 59, 45
6, 29888, Note_on_c, 4, 59, 0
6, 29977, Note_on_c, 4, 59, 49
6, 30026, Note_on_c, 4, 59, 0
6, 30118, Note_on_c, 4, 59, 53
6, 30170, Note_on_c, 4, 59, 0
6, 30263, Note_on_c, 4, 59, 41
6, 30311, Note_on_c, 4, 59, 0
6, 30412, Note_on_c, 4, 59, 48
6, 30460, Note_on_c, 4, 59, 0
6, 30568, Note_on_c, 4, 59, 38
6, 30620, Note_on_c, 4, 59, 0
6, 30721, Note_on_c, 4, 59, 26
6, 30766, Note_on_c, 4, 59, 0
6, 30856, Note_on_c, 4, 59, 45
6, 30906, Note_on_c, 4, 59, 0
6, 31003, Note_on_c, 4, 60, 49
6, 31045, Note_on_c, 4, 60, 0
6, 31147, Note_on_c, 4, 60, 51
6, 31195, Note_on_c, 4, 60, 0
6, 31293, Note_on_c, 4, 60, 57
6, 31342, Note_on_c, 4, 60, 0
6, 31566, Note_on_c, 4, 63, 61
6, 31624, Note_on_c, 4, 63, 0
6, 31712, Note_on_c, 4, 63, 58
6, 31784, Note_on_c, 4, 63, 0
6, 31859, Note_on_c, 4, 64, 59
6, 31928, Note_on_c, 4, 64, 0
6, 32014, Note_on_c, 4, 64, 63
6, 32072, Note_on_c, 4, 64, 0
6, 32171, Note_on_c, 4, 64, 60
6, 32229, Note_on_c, 4, 64, 0
6, 32318, Note_on_c, 4, 64, 50
6, 32365, Note_on_c, 4, 64, 0
6, 32460, Note_on_c, 4, 59, 78
6, 32464, Control_c, 4, 11, 100
6, 32464, Note_on_c, 4, 64, 54
6, 32508, Note_on_c, 4, 64, 0
6, 32511, Note_on_c, 4, 59, 0
6, 32604, Control_c, 4, 11, 101
6, 32605, Note_on_c, 4, 59, 64
6, 32606, Note_on_c, 4, 64, 43
6, 32668, Note_on_c, 4, 59, 0
6, 32694, Note_on_c, 4, 64, 0
6, 32739, Note_on_c, 4, 60, 73
6, 32739, Control_c, 4, 11, 102
6, 32808, Note_on_c, 4, 60, 0
6, 32872, Note_on_c, 4, 60, 61
6, 32874, Control_c, 4, 11, 103
6, 32936, Note_on_c, 4, 60, 0
6, 33009, Control_c, 4, 11, 104
6, 33020, Note_on_c, 4, 60, 76
6, 33069, Note_on_c, 4, 60, 0
6, 33144, Control_c, 4, 11, 105
6, 33152, Note_on_c, 4, 60, 90
6, 33193, Note_on_c, 4, 60, 0
6, 33279, Control_c, 4, 11, 106
6, 33293, Note_on_c, 4, 63, 83
6, 33339, Note_on_c, 4, 63, 0
6, 33414, Control_c, 4, 11, 107
6, 33437, Note_on_c, 4, 63, 93
6, 33491, Note_on_c, 4, 63, 0
6, 33549, Control_c, 4, 11, 108
6, 33585, Note_on_c, 4, 62, 82
6, 33646, Note_on_c, 4, 62, 0
6, 33684, Control_c, 4, 11, 109
6, 33738, Note_on_c, 4, 62, 75
6, 33784, Note_on_c, 4, 62, 0
6, 33824, Control_c, 4, 11, 110
6, 33880, Note_on_c, 4, 62, 84
6, 33919, Note_on_c, 4, 62, 0
6, 33959, Control_c, 4, 11, 111
6, 34024, Note_on_c, 4, 62, 94
6, 34062, Note_on_c, 4, 62, 0
6, 34094, Control_c, 4, 11, 112
6, 34160, Note_on_c, 4, 62, 91
6, 34198, Note_on_c, 4, 62, 0
6, 34229, Control_c, 4, 11, 113
6, 34303, Note_on_c, 4, 62, 100
6, 34343, Note_on_c, 4, 62, 0
6, 34364, Control_c, 4, 11, 114
6, 34441, Note_on_c, 4, 60, 80
6, 34472, Note_on_c, 4, 60, 0
6, 34499, Control_c, 4, 11, 115
6, 34519, Note_on_c, 4, 64, 65
6, 34547, Note_on_c, 4, 64, 0
6, 34594, Note_on_c, 4, 64, 36
6, 34627, Note_on_c, 4, 64, 0
6, 34634, Control_c, 4, 11, 116
6, 34645, Note_on_c, 4, 64, 68
6, 34680, Note_on_c, 4, 64, 0
6, 34729, Note_on_c, 4, 64, 86
6, 34757, Note_on_c, 4, 64, 0
6, 34769, Control_c, 4, 11, 117
6, 34783, Note_on_c, 4, 64, 94
6, 34813, Note_on_c, 4, 64, 0
6, 34844, Note_on_c, 4, 64, 92
6, 34882, Note_on_c, 4, 64, 0
6, 34904, Control_c, 4, 11, 118
6, 34906, Note_on_c, 4, 64, 83
6, 34934, Note_on_c, 4, 64, 0
6, 34981, Note_on_c, 4, 64, 101
6, 35014, Note_on_c, 4, 64, 0
6, 35044, Control_c, 4, 11, 119
6, 35046, Note_on_c, 4, 64, 84
6, 35076, Note_on_c, 4, 64, 0
6, 35118, Note_on_c, 4, 64, 106
6, 35151, Note_on_c, 4, 64, 0
6, 35176, Control_c, 4, 11, 120
6, 35176, Note_on_c, 4, 64, 84
6, 35200, Note_on_c, 4, 64, 0
6, 35251, Note_on_c, 4, 64, 116
6, 35282, Note_on_c, 4, 64, 0
6, 35312, Note_on_c, 4, 64, 80
6, 35342, Note_on_c, 4, 64, 0
6, 35376, Note_on_c, 4, 64, 111
6, 35406, Note_on_c, 4, 64, 0
6, 35446, Note_on_c, 4, 64, 91
6, 35479, Note_on_c, 4, 64, 0
6, 35520, Note_on_c, 4, 64, 116
6, 35554, Note_on_c, 4, 64, 0
6, 35591, Note_on_c, 4, 64, 76
6, 35622, Note_on_c, 4, 64, 0
6, 35666, Note_on_c, 4, 64, 111
6, 35698, Note_on_c, 4, 64, 0
6, 35733, Note_on_c, 4, 64, 81
6, 35772, Note_on_c, 4, 64, 0
6, 35800, Note_on_c, 4, 64, 103
6, 35835, Note_on_c, 4, 64, 0
6, 35861, Note_on_c, 4, 64, 91
6, 35901, Note_on_c, 4, 64, 0
6, 35923, Note_on_c, 4, 64, 113
6, 35961, Note_on_c, 4, 64, 0
6, 35982, Note_on_c, 4, 64, 84
6, 36012, Note_on_c, 4, 64, 0
6, 36046, Note_on_c, 4, 64, 125
6, 36080, Note_on_c, 4, 64, 0
6, 36111, Note_on_c, 4, 64, 90
6, 36143, Note_on_c, 4, 64, 0
6, 36166, Note_on_c, 4, 64, 102
6, 36201, Note_on_c, 4, 64, 0
6, 36227, Note_on_c, 4, 64, 83
6, 36264, Note_on_c, 4, 64, 0
6, 36300, Note_on_c, 4, 64, 114
6, 36336, Note_on_c, 4, 64, 0
6, 36368, Note_on_c, 4, 64, 55
6, 36394, Note_on_c, 4, 64, 0
6, 36419, Note_on_c, 4, 64, 90
6, 36456, Note_on_c, 4, 64, 0
6, 36491, Note_on_c, 4, 64, 69
6, 36527, Note_on_c, 4, 64, 0
6, 36567, Note_on_c, 4, 64, 83
6, 36597, Note_on_c, 4, 64, 0
6, 36627, Note_on_c, 4, 64, 76
6, 36667, Note_on_c, 4, 64, 0
6, 36697, Note_on_c, 4, 64, 87
6, 36733, Note_on_c, 4, 64, 0
6, 36753, Note_on_c, 4, 64, 80
6, 36789, Note_on_c, 4, 64, 0
6, 36821, Note_on_c, 4, 64, 109
6, 36857, Note_on_c, 4, 64, 0
6, 36889, Note_on_c, 4, 64, 87
6, 36926, Note_on_c, 4, 64, 0
6, 36950, Note_on_c, 4, 64, 99
6, 36985, Note_on_c, 4, 64, 0
6, 37016, Note_on_c, 4, 64, 85
6, 37055, Note_on_c, 4, 64, 0
6, 37078, Note_on_c, 4, 64, 113
6, 37118, Note_on_c, 4, 64, 0
6, 37146, Note_on_c, 4, 64, 75
6, 37177, Note_on_c, 4, 64, 0
6, 37203, Note_on_c, 4, 64, 92
6, 37240, Note_on_c, 4, 64, 0
6, 37270, Note_on_c, 4, 64, 80
6, 37311, Note_on_c, 4, 64, 0
6, 37338, Note_on_c, 4, 64, 86
6, 37372, Note_on_c, 4, 64, 0
6, 37404, Note_on_c, 4, 64, 69
6, 37439, Note_on_c, 4, 64, 0
6, 37466, Note_on_c, 4, 64, 91
6, 37505, Note_on_c, 4, 64, 0
6, 37529, Note_on_c, 4, 64, 52
6, 37560, Note_on_c, 4, 64, 0
6, 37586, Note_on_c, 4, 64, 97
6, 37619, Note_on_c, 4, 64, 0
6, 37647, Note_on_c, 4, 64, 40
6, 37670, Note_on_c, 4, 64, 0
6, 37716, Note_on_c, 4, 69, 114
6, 37788, Note_on_c, 4, 69, 0
6, 37854, Note_on_c, 4, 71, 124
6, 37905, Note_on_c, 4, 71, 0
6, 37928, Note_on_c, 4, 71, 82
6, 37951, Note_on_c, 4, 71, 0
6, 37980, Note_on_c, 4, 71, 94
6, 38017, Note_on_c, 4, 71, 0
6, 38047, Note_on_c, 4, 71, 79
6, 38079, Note_on_c, 4, 71, 0
6, 38115, Note_on_c, 4, 71, 91
6, 38147, Note_on_c, 4, 71, 0
6, 38174, Note_on_c, 4, 71, 81
6, 38208, Note_on_c, 4, 71, 0
6, 38240, Note_on_c, 4, 71, 88
6, 38277, Note_on_c, 4, 71, 0
6, 38300, Note_on_c, 4, 71, 88
6, 38337, Note_on_c, 4, 71, 0
6, 38381, Note_on_c, 4, 71, 103
6, 38417, Note_on_c, 4, 71, 0
6, 38447, Note_on_c, 4, 71, 74
6, 38478, Note_on_c, 4, 71, 0
6, 38520, Note_on_c, 4, 71, 91
6, 38555, Note_on_c, 4, 71, 0
6, 38580, Note_on_c, 4, 71, 64
6, 38605, Note_on_c, 4, 71, 0
6, 38643, Note_on_c, 4, 71, 112
6, 38682, Note_on_c, 4, 71, 0
6, 38713, Note_on_c, 4, 71, 73
6, 38748, Note_on_c, 4, 71, 0
6, 38772, Note_on_c, 4, 71, 92
6, 38808, Note_on_c, 4, 71, 0
6, 38845, Note_on_c, 4, 71, 80
6, 38880, Note_on_c, 4, 71, 0
6, 38911, Note_on_c, 4, 71, 97
6, 38946, Note_on_c, 4, 71, 0
6, 38976, Note_on_c, 4, 71, 78
6, 39014, Note_on_c, 4, 71, 0
6, 39041, Note_on_c, 4, 71, 89
6, 39079, Note_on_c, 4, 71, 0
6, 39099, Note_on_c, 4, 71, 63
6, 39132, Note_on_c, 4, 71, 0
6, 39174, Note_on_c, 4, 71, 111
6, 39212, Note_on_c, 4, 71, 0
6, 39237, Note_on_c, 4, 71, 89
6, 39280, Note_on_c, 4, 71, 0
6, 39299, Note_on_c, 4, 71, 91
6, 39324, Note_on_c, 4, 71, 0
6, 39359, Note_on_c, 4, 71, 77
6, 39389, Note_on_c, 4, 71, 0
6, 39440, Note_on_c, 4, 73, 126
6, 39474, Note_on_c, 4, 73, 0
6, 39495, Note_on_c, 4, 73, 99
6, 39528, Note_on_c, 4, 73, 0
6, 39571, Note_on_c, 4, 73, 83
6, 39595, Note_on_c, 4, 73, 0
6, 39622, Note_on_c, 4, 73, 86
6, 39659, Note_on_c, 4, 73, 0
6, 39711, Note_on_c, 4, 73, 96
6, 39744, Note_on_c, 4, 73, 0
6, 39775, Note_on_c, 4, 73, 76
6, 39806, Note_on_c, 4, 73, 0
6, 39838, Note_on_c, 4, 73, 96
6, 39871, Note_on_c, 4, 73, 0
6, 39903, Note_on_c, 4, 73, 43
6, 39923, Note_on_c, 4, 73, 0
6, 39969, Note_on_c, 4, 71, 101
6, 40002, Note_on_c, 4, 71, 0
6, 40024, Note_on_c, 4, 71, 96
6, 40071, Note_on_c, 4, 71, 0
6, 40094, Note_on_c, 4, 71, 89
6, 40137, Note_on_c, 4, 71, 0
6, 40164, Note_on_c, 4, 71, 79
6, 40202, Note_on_c, 4, 71, 0
6, 40238, Note_on_c, 4, 73, 123
6, 40278, Note_on_c, 4, 73, 0
6, 40306, Note_on_c, 4, 73, 99
6, 40341, Note_on_c, 4, 73, 0
6, 40370, Note_on_c, 4, 73, 86
6, 40399, Note_on_c, 4, 73, 0
6, 40422, Note_on_c, 4, 73, 106
6, 40458, Note_on_c, 4, 73, 0
6, 40489, Note_on_c, 4, 73, 106
6, 40524, Note_on_c, 4, 73, 0
6, 40549, Note_on_c, 4, 73, 107
6, 40583, Note_on_c, 4, 73, 0
6, 40617, Note_on_c, 4, 73, 87
6, 40646, Note_on_c, 4, 73, 0
6, 40681, Note_on_c, 4, 73, 90
6, 40720, Note_on_c, 4, 73, 0
6, 40795, Note_on_c, 4, 71, 106
6, 40829, Note_on_c, 4, 71, 0
6, 40857, Note_on_c, 4, 71, 65
6, 40911, Note_on_c, 4, 71, 0
6, 40935, Note_on_c, 4, 71, 93
6, 40971, Note_on_c, 4, 71, 0
6, 40996, Note_on_c, 4, 71, 82
6, 41033, Note_on_c, 4, 71, 0
6, 41063, Note_on_c, 4, 71, 89
6, 41101, Note_on_c, 4, 71, 0
6, 41128, Note_on_c, 4, 71, 76
6, 41159, Note_on_c, 4, 71, 0
6, 41209, Note_on_c, 4, 71, 103
6, 41243, Note_on_c, 4, 71, 0
6, 41267, Note_on_c, 4, 71, 85
6, 41295, Note_on_c, 4, 71, 0
6, 41345, Note_on_c, 4, 71, 111
6, 41376, Note_on_c, 4, 71, 0
6, 41410, Note_on_c, 4, 71, 80
6, 41438, Note_on_c, 4, 71, 0
6, 41483, Note_on_c, 4, 71, 103
6, 41515, Note_on_c, 4, 71, 0
6, 41540, Note_on_c, 4, 71, 80
6, 41575, Note_on_c, 4, 71, 0
6, 41616, Note_on_c, 4, 71, 111
6, 41650, Note_on_c, 4, 71, 0
6, 41675, Note_on_c, 4, 71, 85
6, 41716, Note_on_c, 4, 71, 0
6, 41754, Note_on_c, 4, 71, 88
6, 41788, Note_on_c, 4, 71, 0
6, 41812, Note_on_c, 4, 71, 91
6, 41852, Note_on_c, 4, 71, 0
6, 41875, Note_on_c, 4, 71, 108
6, 41912, Note_on_c, 4, 71, 0
6, 41936, Note_on_c, 4, 71, 91
6, 41977, Note_on_c, 4, 71, 0
6, 42000, Note_on_c, 4, 71, 101
6, 42034, Note_on_c, 4, 71, 0
6, 42054, Note_on_c, 4, 71, 101
6, 42088, Note_on_c, 4, 71, 0
6, 42114, Note_on_c, 4, 73, 123
6, 42146, Note_on_c, 4, 73, 0
6, 42170, Note_on_c, 4, 73, 91
6, 42201, Note_on_c, 4, 73, 0
6, 42244, Note_on_c, 4, 73, 74
6, 42321, Note_on_c, 4, 73, 0
6, 42366, Note_on_c, 4, 71, 114
6, 42402, Note_on_c, 4, 71, 0
6, 42430, Note_on_c, 4, 71, 72
6, 42458, Note_on_c, 4, 71, 0
6, 42505, Note_on_c, 4, 71, 81
6, 42531, Note_on_c, 4, 71, 0
6, 42559, Note_on_c, 4, 71, 72
6, 42587, Note_on_c, 4, 71, 0
6, 42623, Note_on_c, 4, 71, 106
6, 42660, Note_on_c, 4, 71, 0
6, 42683, Note_on_c, 4, 71, 92
6, 42723, Note_on_c, 4, 71, 0
6, 42761, Note_on_c, 4, 71, 86
6, 42789, Note_on_c, 4, 71, 0
6, 42817, Note_on_c, 4, 71, 75
6, 42842, Note_on_c, 4, 71, 0
6, 42893, Note_on_c, 4, 71, 107
6, 42929, Note_on_c, 4, 71, 0
6, 42955, Note_on_c, 4, 71, 73
6, 42979, Note_on_c, 4, 71, 0
6, 43018, Note_on_c, 4, 71, 90
6, 43050, Note_on_c, 4, 71, 0
6, 43077, Note_on_c, 4, 71, 83
6, 43106, Note_on_c, 4, 71, 0
6, 43147, Note_on_c, 4, 71, 118
6, 43183, Note_on_c, 4, 71, 0
6, 43207, Note_on_c, 4, 71, 86
6, 43242, Note_on_c, 4, 71, 0
6, 43285, Note_on_c, 4, 71, 79
6, 43308, Note_on_c, 4, 71, 0
6, 43323, Note_on_c, 4, 71, 63
6, 43367, Note_on_c, 4, 71, 0
6, 43397, Note_on_c, 4, 71, 114
6, 43440, Note_on_c, 4, 71, 0
6, 43454, Note_on_c, 4, 71, 61
6, 43493, Note_on_c, 4, 71, 0
6, 43519, Note_on_c, 4, 71, 87
6, 43549, Note_on_c, 4, 71, 0
6, 43573, Note_on_c, 4, 71, 68
6, 43601, Note_on_c, 4, 71, 0
6, 43644, Note_on_c, 4, 73, 127
6, 43680, Note_on_c, 4, 73, 0
6, 43695, Note_on_c, 4, 73, 62
6, 43722, Note_on_c, 4, 73, 0
6, 43785, Note_on_c, 4, 73, 56
6, 43852, Note_on_c, 4, 73, 0
6, 43902, Note_on_c, 4, 71, 116
6, 44141, Note_on_c, 4, 71, 0
6, 47520, Control_c, 4, 11, 80
6, 48722, Note_on_c, 4, 59, 23
6, 48885, Note_on_c, 4, 59, 0
6, 49027, Note_on_c, 4, 59, 34
6, 49198, Note_on_c, 4, 59, 0
6, 49335, Note_on_c, 4, 59, 37
6, 49487, Note_on_c, 4, 59, 0
6, 49671, Note_on_c, 4, 59, 30
6, 50324, Note_on_c, 4, 57, 28
6, 50398, Note_on_c, 4, 59, 0
6, 50648, Note_on_c, 4, 61, 45
6, 50729, Note_on_c, 4, 57, 0
6, 50966, Note_on_c, 4, 63, 52
6, 51003, Note_on_c, 4, 61, 0
6, 51163, Note_on_c, 4, 63, 0
6, 51266, Note_on_c, 4, 63, 60
6, 51516, Note_on_c, 4, 63, 0
6, 51597, Note_on_c, 4, 63, 60
6, 52246, Note_on_c, 4, 61, 47
6, 52319, Note_on_c, 4, 63, 0
6, 52563, Note_on_c, 4, 61, 0
6, 52602, Note_on_c, 4, 61, 58
6, 52919, Note_on_c, 4, 59, 46
6, 52985, Note_on_c, 4, 61, 0
6, 53266, Note_on_c, 4, 60, 59
6, 53301, Note_on_c, 4, 59, 0
6, 53680, Note_on_c, 4, 60, 0
6, 53683, Note_on_c, 4, 63, 61
6, 54057, Note_on_c, 4, 64, 46
6, 54164, Note_on_c, 4, 63, 0
6, 54758, Note_on_c, 4, 64, 0
6, 54841, Note_on_c, 4, 64, 32
6, 55861, Note_on_c, 4, 64, 0
6, 55861, Note_on_c, 4, 63, 31
6, 56377, Note_on_c, 4, 64, 27
6, 56482, Note_on_c, 4, 63, 0
6, 56932, Note_on_c, 4, 64, 0
6, 57978, Note_on_c, 4, 66, 38
6, 58319, Note_on_c, 4, 64, 33
6, 58415, Note_on_c, 4, 66, 0
6, 59135, Note_on_c, 4, 66, 34
6, 59219, Note_on_c, 4, 64, 0
6, 60293, Note_on_c, 4, 63, 36
6, 60380, Note_on_c, 4, 66, 0
6, 60654, Note_on_c, 4, 64, 48
6, 60800, Note_on_c, 4, 63, 0
6, 60943, Note_on_c, 4, 57, 42
6, 61013, Note_on_c, 4, 64, 0
6, 61374, Note_on_c, 4, 59, 43
6, 61436, Note_on_c, 4, 57, 0
6, 61529, Note_on_c, 4, 56, 45
6, 61591, Note_on_c, 4, 59, 0
6, 61665, Note_on_c, 4, 59, 49
6, 61666, Note_on_c, 4, 56, 0
6, 61831, Note_on_c, 4, 61, 53
6, 61870, Note_on_c, 4, 59, 0
6, 61986, Note_on_c, 4, 54, 48
6, 62009, Note_on_c, 4, 61, 0
6, 62144, Note_on_c, 4, 61, 58
6, 62202, Note_on_c, 4, 54, 0
6, 62301, Note_on_c, 4, 54, 55
6, 62326, Note_on_c, 4, 61, 0
6, 62459, Note_on_c, 4, 61, 49
6, 62485, Note_on_c, 4, 54, 0
6, 62634, Note_on_c, 4, 54, 42
6, 62646, Note_on_c, 4, 61, 0
6, 62799, Note_on_c, 4, 60, 50
6, 62815, Note_on_c, 4, 54, 0
6, 62961, Note_on_c, 4, 54, 51
6, 62963, Note_on_c, 4, 60, 0
6, 63133, Note_on_c, 4, 54, 0
6, 63135, Note_on_c, 4, 60, 57
6, 63291, Note_on_c, 4, 56, 49
6, 63345, Note_on_c, 4, 60, 0
6, 63470, Note_on_c, 4, 59, 44
6, 63545, Note_on_c, 4, 56, 0
6, 63643, Note_on_c, 4, 57, 38
6, 63704, Note_on_c, 4, 59, 0
6, 63829, Note_on_c, 4, 56, 34
6, 63871, Note_on_c, 4, 57, 0
6, 64217, Note_on_c, 4, 56, 0
6, 65467, Note_on_c, 4, 66, 56
6, 65805, Note_on_c, 4, 64, 53
6, 65860, Note_on_c, 4, 66, 0
6, 66650, Note_on_c, 4, 66, 61
6, 66726, Note_on_c, 4, 64, 0
6, 67869, Note_on_c, 4, 63, 60
6, 67946, Note_on_c, 4, 66, 0
6, 68150, Note_on_c, 4, 64, 54
6, 68173, Note_on_c, 4, 63, 0
6, 68468, Note_on_c, 4, 57, 40
6, 68507, Note_on_c, 4, 64, 0
6, 68950, Note_on_c, 4, 59, 48
6, 69083, Note_on_c, 4, 57, 0
6, 69100, Note_on_c, 4, 56, 43
6, 69149, Note_on_c, 4, 59, 0
6, 69259, Note_on_c, 4, 59, 43
6, 69281, Note_on_c, 4, 56, 0
6, 69456, Note_on_c, 4, 54, 46
6, 69464, Note_on_c, 4, 59, 0
6, 69601, Note_on_c, 4, 57, 51
6, 69620, Note_on_c, 4, 54, 0
6, 69772, Note_on_c, 4, 61, 55
6, 69822, Note_on_c, 4, 57, 0
6, 69899, Note_on_c, 4, 59, 45
6, 69931, Note_on_c, 4, 61, 0
6, 70079, Note_on_c, 4, 61, 57
6, 70112, Note_on_c, 4, 59, 0
6, 70236, Note_on_c, 4, 59, 65
6, 70260, Note_on_c, 4, 61, 0
6, 70413, Note_on_c, 4, 56, 51
6, 70432, Note_on_c, 4, 59, 0
6, 70566, Note_on_c, 4, 59, 51
6, 70597, Note_on_c, 4, 56, 0
6, 70727, Note_on_c, 4, 56, 47
6, 70754, Note_on_c, 4, 59, 0
6, 70877, Note_on_c, 4, 59, 37
6, 70927, Note_on_c, 4, 56, 0
6, 71030, Note_on_c, 4, 56, 42
6, 71060, Note_on_c, 4, 59, 0
6, 71189, Note_on_c, 4, 59, 41
6, 71197, Note_on_c, 4, 56, 0
6, 71362, Note_on_c, 4, 59, 0
6, 71375, Note_on_c, 4, 54, 41
6, 71517, Note_on_c, 4, 59, 31
6, 71527, Note_on_c, 4, 54, 0
6, 71667, Note_on_c, 4, 54, 33
6, 71707, Note_on_c, 4, 59, 0
6, 71815, Note_on_c, 4, 59, 31
6, 71838, Note_on_c, 4, 54, 0
6, 71972, Note_on_c, 4, 55, 38
6, 71988, Note_on_c, 4, 59, 0
6, 72109, Note_on_c, 4, 59, 41
6, 72134, Note_on_c, 4, 55, 0
6, 72268, Note_on_c, 4, 54, 45
6, 72294, Note_on_c, 4, 59, 0
6, 72408, Note_on_c, 4, 59, 42
6, 72425, Note_on_c, 4, 54, 0
6, 72564, Note_on_c, 4, 54, 44
6, 72608, Note_on_c, 4, 59, 0
6, 72718, Note_on_c, 4, 59, 34
6, 72725, Note_on_c, 4, 54, 0
6, 72877, Note_on_c, 4, 54, 35
6, 72918, Note_on_c, 4, 59, 0
6, 73038, Note_on_c, 4, 63, 43
6, 73106, Note_on_c, 4, 54, 0
6, 73190, Note_on_c, 4, 63, 0
6, 73232, Note_on_c, 4, 52, 47
6, 73369, Note_on_c, 4, 61, 50
6, 73499, Note_on_c, 4, 52, 0
6, 73526, Note_on_c, 4, 61, 0
6, 73529, Note_on_c, 4, 55, 38
6, 73679, Note_on_c, 4, 61, 61
6, 73734, Note_on_c, 4, 55, 0
6, 73832, Note_on_c, 4, 55, 51
6, 73835, Note_on_c, 4, 61, 0
6, 73988, Note_on_c, 4, 64, 55
6, 74009, Note_on_c, 4, 55, 0
6, 74103, Note_on_c, 4, 64, 0
6, 74136, Note_on_c, 4, 54, 62
6, 74279, Note_on_c, 4, 59, 45
6, 74311, Note_on_c, 4, 54, 0
6, 74437, Note_on_c, 4, 54, 48
6, 74473, Note_on_c, 4, 59, 0
6, 74580, Note_on_c, 4, 59, 38
6, 74608, Note_on_c, 4, 54, 0
6, 74745, Note_on_c, 4, 54, 36
6, 74768, Note_on_c, 4, 59, 0
6, 74905, Note_on_c, 4, 63, 43
6, 74932, Note_on_c, 4, 54, 0
6, 75063, Note_on_c, 4, 63, 0
6, 75073, Note_on_c, 4, 54, 51
6, 75223, Note_on_c, 4, 59, 33
6, 75254, Note_on_c, 4, 54, 0
6, 75367, Note_on_c, 4, 54, 55
6, 75405, Note_on_c, 4, 59, 0
6, 75502, Note_on_c, 4, 59, 41
6, 75522, Note_on_c, 4, 54, 0
6, 75663, Note_on_c, 4, 55, 48
6, 75672, Note_on_c, 4, 59, 0
6, 75813, Note_on_c, 4, 59, 41
6, 75833, Note_on_c, 4, 55, 0
6, 75972, Note_on_c, 4, 54, 50
6, 76011, Note_on_c, 4, 59, 0
6, 76124, Note_on_c, 4, 59, 42
6, 76150, Note_on_c, 4, 54, 0
6, 76277, Note_on_c, 4, 54, 48
6, 76318, Note_on_c, 4, 59, 0
6, 76443, Note_on_c, 4, 59, 30
6, 76467, Note_on_c, 4, 54, 0
6, 76601, Note_on_c, 4, 54, 45
6, 76645, Note_on_c, 4, 59, 0
6, 76777, Note_on_c, 4, 63, 52
6, 76800, Note_on_c, 4, 54, 0
6, 76885, Note_on_c, 4, 63, 0
6, 76932, Note_on_c, 4, 52, 34
6, 77089, Note_on_c, 4, 61, 33
6, 77136, Note_on_c, 4, 52, 0
6, 77248, Note_on_c, 4, 55, 42
6, 77256, Note_on_c, 4, 61, 0
6, 77381, Note_on_c, 4, 61, 52
6, 77430, Note_on_c, 4, 55, 0
6, 77540, Note_on_c, 4, 55, 54
6, 77549, Note_on_c, 4, 61, 0
6, 77701, Note_on_c, 4, 64, 49
6, 77716, Note_on_c, 4, 55, 0
6, 77841, Note_on_c, 4, 54, 51
6, 77872, Note_on_c, 4, 64, 0
6, 77977, Note_on_c, 4, 59, 45
6, 78045, Note_on_c, 4, 54, 0
6, 78161, Note_on_c, 4, 54, 37
6, 78235, Note_on_c, 4, 59, 0
6, 78325, Note_on_c, 4, 59, 52
6, 78371, Note_on_c, 4, 54, 0
6, 78485, Note_on_c, 4, 54, 47
6, 78517, Note_on_c, 4, 59, 0
6, 78649, Note_on_c, 4, 59, 42
6, 78671, Note_on_c, 4, 54, 0
6, 78843, Note_on_c, 4, 52, 34
6, 78887, Note_on_c, 4, 59, 0
6, 79202, Note_on_c, 4, 52, 0
6, 79216, Note_on_c, 4, 64, 51
6, 79385, Note_on_c, 4, 59, 48
6, 79437, Note_on_c, 4, 64, 0
6, 79533, Note_on_c, 4, 66, 50
6, 79581, Note_on_c, 4, 59, 0
6, 79671, Note_on_c, 4, 59, 56
6, 79706, Note_on_c, 4, 66, 0
6, 79835, Note_on_c, 4, 68, 57
6, 79895, Note_on_c, 4, 59, 0
6, 79979, Note_on_c, 4, 59, 50
6, 80026, Note_on_c, 4, 68, 0
6, 80132, Note_on_c, 4, 68, 55
6, 80195, Note_on_c, 4, 59, 0
6, 80282, Note_on_c, 4, 59, 44
6, 80334, Note_on_c, 4, 68, 0
6, 80468, Note_on_c, 4, 66, 65
6, 80469, Note_on_c, 4, 59, 0
6, 80798, Note_on_c, 4, 64, 55
6, 80851, Note_on_c, 4, 66, 0
6, 81353, Note_on_c, 4, 64, 0
6, 81403, Note_on_c, 4, 64, 54
6, 81677, Note_on_c, 4, 66, 57
6, 81733, Note_on_c, 4, 64, 0
6, 82923, Control_c, 4, 11, 80
6, 82923, Note_on_c, 4, 63, 71
6, 83001, Control_c, 4, 11, 81
6, 83005, Note_on_c, 4, 66, 0
6, 83079, Control_c, 4, 11, 82
6, 83157, Control_c, 4, 11, 83
6, 83229, Control_c, 4, 11, 84
6, 83230, Note_on_c, 4, 64, 68
6, 83270, Note_on_c, 4, 63, 0
6, 83307, Control_c, 4, 11, 85
6, 83385, Control_c, 4, 11, 86
6, 83457, Control_c, 4, 11, 87
6, 83535, Control_c, 4, 11, 88
6, 83547, Note_on_c, 4, 57, 64
6, 83567, Note_on_c, 4, 64, 0
6, 83613, Control_c, 4, 11, 89
6, 83685, Control_c, 4, 11, 90
6, 83763, Control_c, 4, 11, 91
6, 83841, Control_c, 4, 11, 92
6, 83855, Note_on_c, 4, 57, 0
6, 83881, Note_on_c, 4, 57, 78
6, 83913, Control_c, 4, 11, 93
6, 83922, Note_on_c, 4, 57, 0
6, 83974, Note_on_c, 4, 59, 99
6, 83991, Control_c, 4, 11, 94
6, 84009, Note_on_c, 4, 59, 0
6, 84036, Note_on_c, 4, 59, 74
6, 84063, Note_on_c, 4, 59, 0
6, 84069, Control_c, 4, 11, 95
6, 84113, Note_on_c, 4, 56, 106
6, 84141, Control_c, 4, 11, 96
6, 84147, Note_on_c, 4, 56, 0
6, 84172, Note_on_c, 4, 56, 86
6, 84208, Note_on_c, 4, 56, 0
6, 84219, Control_c, 4, 11, 97
6, 84274, Note_on_c, 4, 59, 111
6, 84297, Control_c, 4, 11, 98
6, 84308, Note_on_c, 4, 59, 0
6, 84339, Note_on_c, 4, 59, 83
6, 84369, Control_c, 4, 11, 99
6, 84377, Note_on_c, 4, 59, 0
6, 84446, Control_c, 4, 11, 100
6, 84446, Note_on_c, 4, 61, 124
6, 84478, Note_on_c, 4, 61, 0
6, 84517, Note_on_c, 4, 61, 84
6, 84546, Control_c, 4, 11, 101
6, 84556, Note_on_c, 4, 61, 0
6, 84594, Note_on_c, 4, 61, 82
6, 84628, Note_on_c, 4, 61, 0
6, 84646, Control_c, 4, 11, 102
6, 84650, Note_on_c, 4, 61, 89
6, 84685, Note_on_c, 4, 61, 0
6, 84736, Note_on_c, 4, 61, 114
6, 84746, Control_c, 4, 11, 103
6, 84767, Note_on_c, 4, 61, 0
6, 84795, Note_on_c, 4, 61, 97
6, 84836, Note_on_c, 4, 61, 0
6, 84846, Control_c, 4, 11, 104
6, 84907, Note_on_c, 4, 73, 124
6, 84941, Note_on_c, 4, 73, 0
6, 84946, Control_c, 4, 11, 105
6, 84984, Note_on_c, 4, 73, 98
6, 85019, Note_on_c, 4, 73, 0
6, 85046, Control_c, 4, 11, 106
6, 85060, Note_on_c, 4, 73, 108
6, 85094, Note_on_c, 4, 73, 0
6, 85123, Note_on_c, 4, 73, 100
6, 85146, Control_c, 4, 11, 107
6, 85165, Note_on_c, 4, 73, 0
6, 85222, Note_on_c, 4, 73, 114
6, 85246, Control_c, 4, 11, 108
6, 85257, Note_on_c, 4, 73, 0
6, 85280, Note_on_c, 4, 73, 104
6, 85317, Note_on_c, 4, 73, 0
6, 85346, Control_c, 4, 11, 109
6, 85372, Note_on_c, 4, 71, 113
6, 85412, Note_on_c, 4, 71, 0
6, 85446, Note_on_c, 4, 71, 98
6, 85446, Control_c, 4, 11, 110
6, 85482, Note_on_c, 4, 71, 0
6, 85524, Note_on_c, 4, 71, 93
6, 85546, Control_c, 4, 11, 111
6, 85550, Note_on_c, 4, 71, 0
6, 85578, Note_on_c, 4, 71, 89
6, 85620, Note_on_c, 4, 71, 0
6, 85639, Note_on_c, 4, 71, 103
6, 85641, Control_c, 4, 11, 112
6, 85667, Note_on_c, 4, 71, 0
6, 85704, Note_on_c, 4, 71, 97
6, 85740, Note_on_c, 4, 71, 0
6, 85741, Control_c, 4, 11, 113
6, 85762, Note_on_c, 4, 71, 100
6, 85799, Note_on_c, 4, 71, 0
6, 85822, Note_on_c, 4, 71, 97
6, 85841, Control_c, 4, 11, 114
6, 85851, Note_on_c, 4, 71, 0
6, 85871, Note_on_c, 4, 71, 102
6, 85906, Note_on_c, 4, 71, 0
6, 85941, Control_c, 4, 11, 115
6, 85953, Note_on_c, 4, 66, 116
6, 85985, Note_on_c, 4, 66, 0
6, 86003, Note_on_c, 4, 66, 110
6, 86039, Note_on_c, 4, 66, 0
6, 86041, Control_c, 4, 11, 116
6, 86090, Note_on_c, 4, 66, 95
6, 86119, Note_on_c, 4, 66, 0
6, 86135, Note_on_c, 4, 66, 95
6, 86141, Control_c, 4, 11, 117
6, 86177, Note_on_c, 4, 66, 0
6, 86241, Control_c, 4, 11, 118
6, 86253, Note_on_c, 4, 66, 115
6, 86287, Note_on_c, 4, 66, 0
6, 86308, Note_on_c, 4, 66, 100
6, 86341, Control_c, 4, 11, 119
6, 86350, Note_on_c, 4, 66, 0
6, 86375, Note_on_c, 4, 66, 94
6, 86419, Note_on_c, 4, 66, 0
6, 86438, Control_c, 4, 11, 120
6, 86438, Note_on_c, 4, 66, 88
6, 86476, Note_on_c, 4, 66, 0
6, 86511, Note_on_c, 4, 64, 104
6, 86551, Note_on_c, 4, 64, 0
6, 86574, Note_on_c, 4, 64, 77
6, 86615, Note_on_c, 4, 64, 0
6, 86640, Note_on_c, 4, 64, 97
6, 86680, Note_on_c, 4, 64, 0
6, 86707, Note_on_c, 4, 64, 81
6, 86737, Note_on_c, 4, 64, 0
6, 86778, Note_on_c, 4, 66, 109
6, 86810, Note_on_c, 4, 66, 0
6, 86840, Note_on_c, 4, 66, 93
6, 86882, Note_on_c, 4, 66, 0
6, 86940, Note_on_c, 4, 66, 87
6, 86966, Note_on_c, 4, 66, 0
6, 86993, Note_on_c, 4, 66, 92
6, 87037, Note_on_c, 4, 66, 0
6, 87084, Note_on_c, 4, 68, 121
6, 87123, Note_on_c, 4, 68, 0
6, 87142, Note_on_c, 4, 68, 94
6, 87181, Note_on_c, 4, 68, 0
6, 87231, Note_on_c, 4, 68, 91
6, 87260, Note_on_c, 4, 68, 0
6, 87282, Note_on_c, 4, 68, 91
6, 87321, Note_on_c, 4, 68, 0
6, 87374, Note_on_c, 4, 64, 120
6, 87408, Note_on_c, 4, 64, 0
6, 87438, Note_on_c, 4, 64, 83
6, 87482, Note_on_c, 4, 64, 0
6, 87519, Note_on_c, 4, 64, 88
6, 87557, Note_on_c, 4, 64, 0
6, 87573, Note_on_c, 4, 64, 78
6, 87619, Note_on_c, 4, 64, 0
6, 87655, Note_on_c, 4, 64, 102
6, 87694, Note_on_c, 4, 64, 0
6, 87718, Note_on_c, 4, 64, 94
6, 87759, Note_on_c, 4, 64, 0
6, 87807, Note_on_c, 4, 64, 92
6, 87838, Note_on_c, 4, 64, 0
6, 87849, Note_on_c, 4, 64, 54
6, 87887, Note_on_c, 4, 64, 0
6, 87934, Note_on_c, 4, 64, 101
6, 87972, Note_on_c, 4, 64, 0
6, 87994, Note_on_c, 4, 64, 92
6, 88034, Note_on_c, 4, 64, 0
6, 88081, Note_on_c, 4, 64, 96
6, 88118, Note_on_c, 4, 64, 0
6, 88142, Note_on_c, 4, 64, 96
6, 88182, Note_on_c, 4, 64, 0
6, 88223, Note_on_c, 4, 64, 104
6, 88257, Note_on_c, 4, 64, 0
6, 88281, Note_on_c, 4, 64, 101
6, 88321, Note_on_c, 4, 64, 0
6, 88367, Note_on_c, 4, 64, 97
6, 88403, Note_on_c, 4, 64, 0
6, 88430, Note_on_c, 4, 64, 89
6, 88467, Note_on_c, 4, 64, 0
6, 88517, Note_on_c, 4, 64, 104
6, 88550, Note_on_c, 4, 64, 0
6, 88574, Note_on_c, 4, 64, 103
6, 88620, Note_on_c, 4, 64, 0
6, 88673, Note_on_c, 4, 64, 93
6, 88711, Note_on_c, 4, 64, 0
6, 88743, Note_on_c, 4, 64, 98
6, 88787, Note_on_c, 4, 64, 0
6, 88834, Note_on_c, 4, 63, 121
6, 88867, Note_on_c, 4, 63, 0
6, 89017, Note_on_c, 4, 63, 81
6, 89036, Note_on_c, 4, 63, 0
6, 89062, Note_on_c, 4, 63, 66
6, 89088, Note_on_c, 4, 63, 0
6, 89136, Note_on_c, 4, 63, 101
6, 89168, Note_on_c, 4, 63, 0
6, 89191, Note_on_c, 4, 63, 103
6, 89233, Note_on_c, 4, 63, 0
6, 89270, Note_on_c, 4, 63, 114
6, 89303, Note_on_c, 4, 63, 0
6, 89324, Note_on_c, 4, 63, 109
6, 89369, Note_on_c, 4, 63, 0
6, 89410, Note_on_c, 4, 63, 119
6, 89448, Note_on_c, 4, 63, 0
6, 89473, Note_on_c, 4, 63, 106
6, 89514, Note_on_c, 4, 63, 0
6, 89571, Note_on_c, 4, 63, 86
6, 89589, Note_on_c, 4, 63, 0
6, 89616, Note_on_c, 4, 63, 97
6, 89656, Note_on_c, 4, 63, 0
6, 89702, Note_on_c, 4, 63, 120
6, 89755, Note_on_c, 4, 63, 0
6, 89766, Note_on_c, 4, 63, 67
6, 89812, Note_on_c, 4, 63, 0
6, 89864, Note_on_c, 4, 63, 80
6, 89888, Note_on_c, 4, 63, 0
6, 89904, Note_on_c, 4, 63, 83
6, 89944, Note_on_c, 4, 63, 0
6, 89995, Note_on_c, 4, 64, 120
6, 90031, Note_on_c, 4, 64, 0
6, 90064, Note_on_c, 4, 64, 92
6, 90108, Note_on_c, 4, 64, 0
6, 90141, Note_on_c, 4, 64, 94
6, 90176, Note_on_c, 4, 64, 0
6, 90192, Note_on_c, 4, 64, 82
6, 90250, Note_on_c, 4, 64, 0
6, 90278, Note_on_c, 4, 64, 109
6, 90384, Note_on_c, 4, 64, 0
6, 90418, Note_on_c, 4, 64, 93
6, 90507, Note_on_c, 4, 64, 0
6, 90555, Note_on_c, 4, 67, 126
6, 90654, Note_on_c, 4, 67, 0
6, 90700, Note_on_c, 4, 67, 97
6, 90776, Note_on_c, 4, 67, 0
6, 90823, Note_on_c, 4, 67, 111
6, 90867, Note_on_c, 4, 67, 0
6, 90877, Note_on_c, 4, 67, 78
6, 90924, Note_on_c, 4, 67, 0
6, 90961, Note_on_c, 4, 67, 108
6, 91058, Note_on_c, 4, 67, 0
6, 91090, Note_on_c, 4, 66, 123
6, 91122, Note_on_c, 4, 66, 0
6, 91142, Note_on_c, 4, 66, 105
6, 91192, Note_on_c, 4, 66, 0
6, 91225, Note_on_c, 4, 66, 92
6, 91306, Note_on_c, 4, 66, 0
6, 91350, Note_on_c, 4, 64, 116
6, 91390, Note_on_c, 4, 64, 0
6, 91449, Note_on_c, 4, 64, 63
6, 91478, Note_on_c, 4, 64, 0
6, 91523, Note_on_c, 4, 64, 99
6, 91571, Note_on_c, 4, 64, 0
6, 91616, Note_on_c, 4, 67, 125
6, 91646, Note_on_c, 4, 55, 120
6, 91648, Note_on_c, 4, 67, 0
6, 91681, Note_on_c, 4, 67, 91
6, 91685, Note_on_c, 4, 55, 0
6, 91712, Note_on_c, 4, 55, 94
6, 91724, Note_on_c, 4, 67, 0
6, 91744, Note_on_c, 4, 67, 97
6, 91756, Note_on_c, 4, 55, 0
6, 91780, Note_on_c, 4, 55, 109
6, 91786, Note_on_c, 4, 67, 0
6, 91813, Note_on_c, 4, 67, 97
6, 91820, Note_on_c, 4, 55, 0
6, 91832, Note_on_c, 4, 55, 87
6, 91843, Note_on_c, 4, 67, 0
6, 91874, Note_on_c, 4, 67, 92
6, 91876, Note_on_c, 4, 55, 0
6, 91908, Note_on_c, 4, 55, 100
6, 91911, Note_on_c, 4, 67, 0
6, 91938, Note_on_c, 4, 67, 99
6, 91946, Note_on_c, 4, 55, 0
6, 91966, Note_on_c, 4, 55, 100
6, 91980, Note_on_c, 4, 67, 0
6, 92004, Note_on_c, 4, 67, 93
6, 92008, Note_on_c, 4, 55, 0
6, 92034, Note_on_c, 4, 67, 0
6, 92055, Note_on_c, 4, 55, 88
6, 92056, Note_on_c, 4, 67, 97
6, 92089, Note_on_c, 4, 55, 0
6, 92097, Note_on_c, 4, 67, 0
6, 92102, Note_on_c, 4, 55, 62
6, 92124, Note_on_c, 4, 67, 94
6, 92145, Note_on_c, 4, 55, 0
6, 92164, Note_on_c, 4, 67, 0
6, 92188, Note_on_c, 4, 55, 107
6, 92193, Note_on_c, 4, 67, 107
6, 92222, Note_on_c, 4, 67, 0
6, 92227, Note_on_c, 4, 55, 0
6, 92245, Note_on_c, 4, 55, 91
6, 92248, Note_on_c, 4, 67, 94
6, 92283, Note_on_c, 4, 55, 0
6, 92286, Note_on_c, 4, 67, 0
6, 92306, Note_on_c, 4, 67, 103
6, 92316, Note_on_c, 4, 55, 101
6, 92348, Note_on_c, 4, 67, 0
6, 92359, Note_on_c, 4, 55, 0
6, 92368, Note_on_c, 4, 67, 103
6, 92372, Note_on_c, 4, 55, 78
6, 92395, Note_on_c, 4, 67, 0
6, 92416, Note_on_c, 4, 55, 0
6, 92418, Note_on_c, 4, 67, 92
6, 92455, Note_on_c, 4, 67, 0
6, 92455, Note_on_c, 4, 55, 107
6, 92473, Note_on_c, 4, 67, 107
6, 92495, Note_on_c, 4, 55, 0
6, 92511, Note_on_c, 4, 67, 0
6, 92512, Note_on_c, 4, 55, 92
6, 92540, Note_on_c, 4, 67, 88
6, 92555, Note_on_c, 4, 55, 0
6, 92561, Note_on_c, 4, 67, 0
6, 92574, Note_on_c, 4, 55, 107
6, 92583, Note_on_c, 4, 67, 96
6, 92617, Note_on_c, 4, 55, 0
6, 92623, Note_on_c, 4, 67, 0
6, 92627, Note_on_c, 4, 55, 79
6, 92644, Note_on_c, 4, 67, 97
6, 92675, Note_on_c, 4, 55, 0
6, 92685, Note_on_c, 4, 67, 0
6, 92698, Note_on_c, 4, 55, 106
6, 92705, Note_on_c, 4, 67, 99
6, 92723, Note_on_c, 4, 67, 0
6, 92739, Note_on_c, 4, 55, 0
6, 92751, Note_on_c, 4, 67, 77
6, 92755, Note_on_c, 4, 55, 101
6, 92784, Note_on_c, 4, 67, 0
6, 92800, Note_on_c, 4, 55, 0
6, 92807, Note_on_c, 4, 67, 90
6, 92825, Note_on_c, 4, 55, 99
6, 92852, Note_on_c, 4, 67, 0
6, 92866, Note_on_c, 4, 55, 0
6, 92871, Note_on_c, 4, 67, 97
6, 92883, Note_on_c, 4, 55, 109
6, 92886, Note_on_c, 4, 67, 0
6, 92913, Note_on_c, 4, 67, 83
6, 92925, Note_on_c, 4, 55, 0
6, 92946, Note_on_c, 4, 67, 0
6, 92954, Note_on_c, 4, 55, 97
6, 92975, Note_on_c, 4, 67, 101
6, 92997, Note_on_c, 4, 55, 0
6, 93015, Note_on_c, 4, 55, 108
6, 93018, Note_on_c, 4, 67, 0
6, 93048, Note_on_c, 4, 67, 83
6, 93054, Note_on_c, 4, 55, 0
6, 93066, Note_on_c, 4, 67, 0
6, 93087, Note_on_c, 4, 55, 97
6, 93102, Note_on_c, 4, 67, 84
6, 93128, Note_on_c, 4, 55, 0
6, 93139, Note_on_c, 4, 67, 0
6, 93140, Note_on_c, 4, 55, 98
6, 93168, Note_on_c, 4, 67, 91
6, 93180, Note_on_c, 4, 55, 0
6, 93211, Note_on_c, 4, 67, 0
6, 93215, Note_on_c, 4, 55, 99
6, 93236, Note_on_c, 4, 67, 102
6, 93257, Note_on_c, 4, 55, 0
6, 93262, Note_on_c, 4, 67, 0
6, 93272, Note_on_c, 4, 55, 103
6, 93288, Note_on_c, 4, 67, 94
6, 93315, Note_on_c, 4, 55, 0
6, 93323, Note_on_c, 4, 67, 0
6, 93349, Note_on_c, 4, 55, 102
6, 93351, Note_on_c, 4, 67, 87
6, 93391, Note_on_c, 4, 55, 0
6, 93398, Note_on_c, 4, 67, 0
6, 93405, Note_on_c, 4, 55, 101
6, 93421, Note_on_c, 4, 67, 96
6, 93448, Note_on_c, 4, 55, 0
6, 93453, Note_on_c, 4, 67, 0
6, 93473, Note_on_c, 4, 67, 102
6, 93480, Note_on_c, 4, 55, 103
6, 93506, Note_on_c, 4, 67, 0
6, 93520, Note_on_c, 4, 55, 0
6, 93533, Note_on_c, 4, 67, 102
6, 93540, Note_on_c, 4, 55, 104
6, 93578, Note_on_c, 4, 67, 0
6, 93584, Note_on_c, 4, 55, 0
6, 93613, Note_on_c, 4, 67, 83
6, 93617, Note_on_c, 4, 55, 99
6, 93631, Note_on_c, 4, 67, 0
6, 93657, Note_on_c, 4, 55, 0
6, 93659, Note_on_c, 4, 67, 84
6, 93681, Note_on_c, 4, 55, 97
6, 93700, Note_on_c, 4, 67, 0
6, 93723, Note_on_c, 4, 55, 0
6, 93728, Note_on_c, 4, 67, 94
6, 93770, Note_on_c, 4, 67, 0
6, 93772, Note_on_c, 4, 55, 108
6, 93789, Note_on_c, 4, 67, 114
6, 93811, Note_on_c, 4, 55, 0
6, 93816, Note_on_c, 4, 67, 0
6, 93832, Note_on_c, 4, 55, 97
6, 93843, Note_on_c, 4, 67, 89
6, 93874, Note_on_c, 4, 55, 0
6, 93880, Note_on_c, 4, 67, 0
6, 93899, Note_on_c, 4, 67, 100
6, 93906, Note_on_c, 4, 55, 96
6, 93942, Note_on_c, 4, 67, 0
6, 93962, Note_on_c, 4, 67, 104
6, 93989, Note_on_c, 4, 67, 0
6, 93997, Note_on_c, 4, 55, 0
6, 94018, Note_on_c, 4, 67, 99
6, 94023, Note_on_c, 4, 55, 106
6, 94065, Note_on_c, 4, 55, 0
6, 94083, Note_on_c, 4, 55, 108
6, 94111, Note_on_c, 4, 67, 0
6, 94127, Note_on_c, 4, 55, 0
6, 94152, Note_on_c, 4, 67, 96
6, 94159, Note_on_c, 4, 55, 104
6, 94176, Note_on_c, 4, 67, 0
6, 94200, Note_on_c, 4, 55, 0
6, 94205, Note_on_c, 4, 67, 100
6, 94215, Note_on_c, 4, 55, 108
6, 94241, Note_on_c, 4, 67, 0
6, 94258, Note_on_c, 4, 55, 0
6, 94272, Note_on_c, 4, 67, 101
6, 94282, Note_on_c, 4, 55, 106
6, 94313, Note_on_c, 4, 67, 0
6, 94326, Note_on_c, 4, 55, 0
6, 94335, Note_on_c, 4, 67, 107
6, 94343, Note_on_c, 4, 55, 112
6, 94371, Note_on_c, 4, 67, 0
6, 94391, Note_on_c, 4, 55, 0
6, 94397, Note_on_c, 4, 67, 89
6, 94419, Note_on_c, 4, 55, 107
6, 94438, Note_on_c, 4, 67, 0
6, 94458, Note_on_c, 4, 67, 100
6, 94460, Note_on_c, 4, 55, 0
6, 94471, Note_on_c, 4, 55, 108
6, 94497, Note_on_c, 4, 67, 0
6, 94517, Note_on_c, 4, 55, 0
6, 94554, Note_on_c, 4, 67, 125
6, 94556, Note_on_c, 4, 55, 121
6, 94603, Note_on_c, 4, 55, 0
6, 94674, Note_on_c, 4, 67, 0
6, 97835, Control_c, 4, 11, 100
6, 97835, Note_on_c, 4, 60, 48
6, 98128, Note_on_c, 4, 60, 0
6, 98128, Note_on_c, 4, 59, 56
6, 98412, Note_on_c, 4, 58, 67
6, 98487, Note_on_c, 4, 59, 0
6, 98973, Note_on_c, 4, 59, 73
6, 99030, Note_on_c, 4, 58, 0
6, 99206, Control_c, 4, 11, 100
6, 99206, Note_on_c, 4, 56, 65
6, 99265, Note_on_c, 4, 59, 0
6, 99271, Control_c, 4, 11, 99
6, 99336, Control_c, 4, 11, 98
6, 99401, Control_c, 4, 11, 97
6, 99466, Control_c, 4, 11, 96
6, 99485, Note_on_c, 4, 57, 54
6, 99523, Note_on_c, 4, 56, 0
6, 99526, Control_c, 4, 11, 95
6, 99591, Control_c, 4, 11, 94
6, 99656, Control_c, 4, 11, 93
6, 99721, Control_c, 4, 11, 92
6, 99781, Control_c, 4, 11, 91
6, 99846, Control_c, 4, 11, 90
6, 99911, Control_c, 4, 11, 89
6, 99976, Control_c, 4, 11, 88
6, 100036, Control_c, 4, 11, 87
6, 100101, Control_c, 4, 11, 86
6, 100104, Note_on_c, 4, 59, 44
6, 100166, Control_c, 4, 11, 85
6, 100185, Note_on_c, 4, 57, 0
6, 100231, Control_c, 4, 11, 84
6, 100296, Control_c, 4, 11, 83
6, 100356, Control_c, 4, 11, 82
6, 100421, Control_c, 4, 11, 81
6, 100486, Control_c, 4, 11, 80
6, 100551, Control_c, 4, 11, 79
6, 100611, Control_c, 4, 11, 78
6, 100676, Control_c, 4, 11, 77
6, 100741, Control_c, 4, 11, 76
6, 100806, Control_c, 4, 11, 75
6, 100866, Control_c, 4, 11, 74
6, 100931, Control_c, 4, 11, 73
6, 100996, Control_c, 4, 11, 72
6, 101061, Control_c, 4, 11, 71
6, 101121, Control_c, 4, 11, 70
6, 101186, Control_c, 4, 11, 69
6, 101251, Control_c, 4, 11, 68
6, 101316, Control_c, 4, 11, 67
6, 101381, Control_c, 4, 11, 66
6, 101441, Control_c, 4, 11, 65
6, 101506, Control_c, 4, 11, 64
6, 101571, Control_c, 4, 11, 63
6, 101636, Control_c, 4, 11, 62
6, 101661, Note_on_c, 4, 59, 0
6, 101696, Control_c, 4, 11, 61
6, 101760, Control_c, 4, 11, 120
6, 101984, Note_on_c, 4, 55, 124
6, 102003, Note_on_c, 4, 67, 126
6, 102031, Note_on_c, 4, 55, 0
6, 102039, Note_on_c, 4, 67, 0
6, 102062, Note_on_c, 4, 55, 91
6, 102069, Note_on_c, 4, 67, 94
6, 102098, Note_on_c, 4, 55, 0
6, 102112, Note_on_c, 4, 67, 0
6, 102123, Note_on_c, 4, 55, 84
6, 102131, Note_on_c, 4, 67, 108
6, 102171, Note_on_c, 4, 55, 0
6, 102171, Note_on_c, 4, 67, 0
6, 102193, Note_on_c, 4, 67, 97
6, 102193, Note_on_c, 4, 55, 92
6, 102228, Note_on_c, 4, 55, 0
6, 102230, Note_on_c, 4, 67, 0
6, 102272, Note_on_c, 4, 55, 101
6, 102273, Note_on_c, 4, 67, 103
6, 102315, Note_on_c, 4, 55, 0
6, 102336, Note_on_c, 4, 55, 98
6, 102358, Note_on_c, 4, 67, 0
6, 102374, Note_on_c, 4, 55, 0
6, 102403, Note_on_c, 4, 67, 102
6, 102410, Note_on_c, 4, 55, 111
6, 102443, Note_on_c, 4, 67, 0
6, 102453, Note_on_c, 4, 55, 0
6, 102459, Note_on_c, 4, 67, 82
6, 102472, Note_on_c, 4, 55, 103
6, 102495, Note_on_c, 4, 67, 0
6, 102512, Note_on_c, 4, 55, 0
6, 102540, Note_on_c, 4, 67, 104
6, 102555, Note_on_c, 4, 55, 117
6, 102581, Note_on_c, 4, 67, 0
6, 102598, Note_on_c, 4, 55, 0
6, 102603, Note_on_c, 4, 67, 92
6, 102627, Note_on_c, 4, 55, 91
6, 102640, Note_on_c, 4, 67, 0
6, 102668, Note_on_c, 4, 55, 0
6, 102684, Note_on_c, 4, 67, 103
6, 102693, Note_on_c, 4, 55, 103
6, 102720, Note_on_c, 4, 67, 0
6, 102736, Note_on_c, 4, 55, 0
6, 102743, Note_on_c, 4, 67, 85
6, 102756, Note_on_c, 4, 55, 98
6, 102779, Note_on_c, 4, 67, 0
6, 102797, Note_on_c, 4, 55, 0
6, 102830, Note_on_c, 4, 55, 108
6, 102831, Note_on_c, 4, 67, 98
6, 102873, Note_on_c, 4, 67, 0
6, 102875, Note_on_c, 4, 55, 0
6, 102899, Note_on_c, 4, 67, 86
6, 102899, Note_on_c, 4, 55, 94
6, 102940, Note_on_c, 4, 67, 0
6, 102943, Note_on_c, 4, 55, 0
6, 102970, Note_on_c, 4, 67, 93
6, 102972, Note_on_c, 4, 55, 103
6, 103012, Note_on_c, 4, 67, 0
6, 103015, Note_on_c, 4, 55, 0
6, 103035, Note_on_c, 4, 55, 99
6, 103036, Note_on_c, 4, 67, 93
6, 103080, Note_on_c, 4, 67, 0
6, 103083, Note_on_c, 4, 55, 0
6, 103118, Note_on_c, 4, 55, 108
6, 103124, Note_on_c, 4, 67, 106
6, 103163, Note_on_c, 4, 55, 0
6, 103166, Note_on_c, 4, 67, 0
6, 103188, Note_on_c, 4, 67, 99
6, 103189, Note_on_c, 4, 55, 93
6, 103232, Note_on_c, 4, 67, 0
6, 103234, Note_on_c, 4, 55, 0
6, 103252, Note_on_c, 4, 55, 107
6, 103263, Note_on_c, 4, 67, 97
6, 103297, Note_on_c, 4, 55, 0
6, 103304, Note_on_c, 4, 67, 0
6, 103319, Note_on_c, 4, 55, 96
6, 103325, Note_on_c, 4, 67, 102
6, 103365, Note_on_c, 4, 55, 0
6, 103369, Note_on_c, 4, 67, 0
6, 103395, Note_on_c, 4, 55, 107
6, 103401, Note_on_c, 4, 67, 99
6, 103439, Note_on_c, 4, 55, 0
6, 103445, Note_on_c, 4, 67, 0
6, 103460, Note_on_c, 4, 55, 92
6, 103467, Note_on_c, 4, 67, 99
6, 103505, Note_on_c, 4, 55, 0
6, 103511, Note_on_c, 4, 67, 0
6, 103527, Note_on_c, 4, 55, 103
6, 103536, Note_on_c, 4, 67, 98
6, 103570, Note_on_c, 4, 55, 0
6, 103582, Note_on_c, 4, 67, 0
6, 103593, Note_on_c, 4, 55, 85
6, 103602, Note_on_c, 4, 67, 104
6, 103633, Note_on_c, 4, 55, 0
6, 103649, Note_on_c, 4, 67, 0
6, 103664, Note_on_c, 4, 55, 112
6, 103680, Note_on_c, 4, 67, 100
6, 103708, Note_on_c, 4, 55, 0
6, 103729, Note_on_c, 4, 67, 0
6, 103734, Note_on_c, 4, 55, 82
6, 103750, Note_on_c, 4, 67, 100
6, 103776, Note_on_c, 4, 55, 0
6, 103795, Note_on_c, 4, 67, 0
6, 103798, Note_on_c, 4, 55, 100
6, 103817, Note_on_c, 4, 67, 97
6, 103841, Note_on_c, 4, 55, 0
6, 103862, Note_on_c, 4, 67, 0
6, 103864, Note_on_c, 4, 55, 84
6, 103884, Note_on_c, 4, 67, 96
6, 103915, Note_on_c, 4, 55, 0
6, 103928, Note_on_c, 4, 67, 0
6, 103942, Note_on_c, 4, 55, 103
6, 103949, Note_on_c, 4, 67, 103
6, 103989, Note_on_c, 4, 55, 0
6, 103995, Note_on_c, 4, 67, 0
6, 104012, Note_on_c, 4, 55, 84
6, 104016, Note_on_c, 4, 67, 106
6, 104061, Note_on_c, 4, 55, 0
6, 104064, Note_on_c, 4, 67, 0
6, 104080, Note_on_c, 4, 55, 108
6, 104084, Note_on_c, 4, 67, 102
6, 104123, Note_on_c, 4, 67, 0
6, 104125, Note_on_c, 4, 55, 0
6, 104149, Note_on_c, 4, 55, 84
6, 104154, Note_on_c, 4, 67, 90
6, 104197, Note_on_c, 4, 55, 0
6, 104201, Note_on_c, 4, 67, 0
6, 104221, Note_on_c, 4, 55, 107
6, 104224, Note_on_c, 4, 67, 100
6, 104265, Note_on_c, 4, 55, 0
6, 104268, Note_on_c, 4, 67, 0
6, 104294, Note_on_c, 4, 55, 76
6, 104299, Note_on_c, 4, 67, 93
6, 104338, Note_on_c, 4, 55, 0
6, 104346, Note_on_c, 4, 67, 0
6, 104356, Note_on_c, 4, 55, 113
6, 104370, Note_on_c, 4, 67, 98
6, 104399, Note_on_c, 4, 55, 0
6, 104413, Note_on_c, 4, 67, 0
6, 104429, Note_on_c, 4, 55, 76
6, 104434, Note_on_c, 4, 67, 104
6, 104475, Note_on_c, 4, 55, 0
6, 104481, Note_on_c, 4, 67, 0
6, 104498, Note_on_c, 4, 55, 111
6, 104508, Note_on_c, 4, 67, 101
6, 104543, Note_on_c, 4, 55, 0
6, 104552, Note_on_c, 4, 67, 0
6, 104568, Note_on_c, 4, 55, 88
6, 104575, Note_on_c, 4, 67, 93
6, 104617, Note_on_c, 4, 55, 0
6, 104626, Note_on_c, 4, 67, 0
6, 104634, Note_on_c, 4, 55, 116
6, 104643, Note_on_c, 4, 67, 102
6, 104676, Note_on_c, 4, 55, 0
6, 104685, Note_on_c, 4, 67, 0
6, 104700, Note_on_c, 4, 55, 99
6, 104707, Note_on_c, 4, 67, 103
6, 104748, Note_on_c, 4, 55, 0
6, 104752, Note_on_c, 4, 67, 0
6, 104766, Note_on_c, 4, 55, 112
6, 104780, Note_on_c, 4, 67, 98
6, 104811, Note_on_c, 4, 55, 0
6, 104827, Note_on_c, 4, 67, 0
6, 104831, Note_on_c, 4, 55, 103
6, 104850, Note_on_c, 4, 67, 99
6, 104880, Note_on_c, 4, 55, 0
6, 104892, Note_on_c, 4, 67, 0
6, 104900, Note_on_c, 4, 55, 109
6, 104918, Note_on_c, 4, 67, 94
6, 104948, Note_on_c, 4, 55, 0
6, 104965, Note_on_c, 4, 55, 114
6, 104967, Note_on_c, 4, 67, 0
6, 104986, Note_on_c, 4, 67, 91
6, 105015, Note_on_c, 4, 55, 0
6, 105033, Note_on_c, 4, 67, 0
6, 105043, Note_on_c, 4, 55, 108
6, 105060, Note_on_c, 4, 67, 99
6, 105090, Note_on_c, 4, 55, 0
6, 105107, Note_on_c, 4, 67, 0
6, 105107, Note_on_c, 4, 55, 113
6, 105127, Note_on_c, 4, 67, 96
6, 105155, Note_on_c, 4, 55, 0
6, 105172, Note_on_c, 4, 67, 0
6, 105180, Note_on_c, 4, 55, 111
6, 105194, Note_on_c, 4, 67, 101
6, 105227, Note_on_c, 4, 55, 0
6, 105238, Note_on_c, 4, 67, 0
6, 105244, Note_on_c, 4, 55, 118
6, 105264, Note_on_c, 4, 67, 93
6, 105283, Note_on_c, 4, 55, 0
6, 105302, Note_on_c, 4, 67, 0
6, 105333, Note_on_c, 4, 55, 121
6, 105417, Note_on_c, 4, 67, 117
6, 105464, Note_on_c, 4, 55, 0
6, 105521, Note_on_c, 4, 67, 0
6, 108720, Control_c, 4, 11, 80
6, 108907, Note_on_c, 4, 60, 34
6, 109171, Note_on_c, 4, 59, 40
6, 109232, Note_on_c, 4, 60, 0
6, 109438, Note_on_c, 4, 58, 36
6, 109553, Note_on_c, 4, 59, 0
6, 109946, Note_on_c, 4, 59, 31
6, 109984, Note_on_c, 4, 58, 0
6, 110266, Note_on_c, 4, 56, 38
6, 110359, Note_on_c, 4, 59, 0
6, 110561, Note_on_c, 4, 57, 42
6, 110601, Note_on_c, 4, 56, 0
6, 111198, Note_on_c, 4, 59, 46
6, 111257, Note_on_c, 4, 57, 0
6, 112186, Note_on_c, 4, 54, 32
6, 112267, Note_on_c, 4, 59, 0
6, 113319, Note_on_c, 4, 52, 29
6, 113427, Note_on_c, 4, 54, 0
6, 113690, Note_on_c, 4, 52, 0
6, 114972, Note_on_c, 4, 71, 48
6, 115568, Note_on_c, 4, 69, 28
6, 115579, Note_on_c, 4, 71, 0
6, 115912, Note_on_c, 4, 69, 0
6, 120022, Note_on_c, 4, 57, 33
6, 120374, Note_on_c, 4, 54, 38
6, 120540, Note_on_c, 4, 57, 0
6, 120931, Note_on_c, 4, 60, 40
6, 120961, Note_on_c, 4, 60, 0
6, 120973, Note_on_c, 4, 54, 0
6, 121123, Note_on_c, 4, 59, 39
6, 121267, Note_on_c, 4, 59, 0
6, 121272, Note_on_c, 4, 57, 21
6, 121540, Note_on_c, 4, 55, 26
6, 121626, Note_on_c, 4, 57, 0
6, 122600, Note_on_c, 4, 54, 23
6, 122679, Note_on_c, 4, 55, 0
6, 123369, Note_on_c, 4, 57, 19
6, 123432, Note_on_c, 4, 54, 0
6, 123765, Note_on_c, 4, 55, 25
6, 123864, Note_on_c, 4, 57, 0
6, 124867, Note_on_c, 4, 57, 29
6, 124928, Note_on_c, 4, 55, 0
6, 126020, Note_on_c, 4, 55, 22
6, 126052, Note_on_c, 4, 57, 0
6, 127206, Note_on_c, 4, 57, 25
6, 127314, Note_on_c, 4, 55, 0
6, 128880, Control_c, 4, 11, 80
6, 129005, Control_c, 4, 11, 79
6, 129130, Control_c, 4, 11, 78
6, 129255, Control_c, 4, 11, 77
6, 129380, Control_c, 4, 11, 76
6, 129505, Control_c, 4, 11, 75
6, 129630, Control_c, 4, 11, 74
6, 129755, Control_c, 4, 11, 73
6, 129880, Control_c, 4, 11, 72
6, 129890, Note_on_c, 4, 59, 42
6, 129936, Note_on_c, 4, 57, 0
6, 130005, Control_c, 4, 11, 71
6, 130130, Control_c, 4, 11, 70
6, 130255, Control_c, 4, 11, 69
6, 130380, Control_c, 4, 11, 68
6, 130505, Control_c, 4, 11, 67
6, 130630, Control_c, 4, 11, 66
6, 130755, Control_c, 4, 11, 65
6, 130880, Control_c, 4, 11, 64
6, 131005, Control_c, 4, 11, 63
6, 131130, Control_c, 4, 11, 62
6, 131255, Control_c, 4, 11, 61
6, 131378, Control_c, 4, 11, 60
6, 131378, Note_on_c, 4, 55, 29
6, 131661, Note_on_c, 4, 59, 0
6, 131669, Note_on_c, 4, 55, 0
6, 131760, Program_c, 4, 45
6, 131760, Control_c, 4, 91, 120
6, 131760, Control_c, 4, 11, 80
6, 132500, Note_on_c, 4, 57, 91
6, 132544, Note_on_c, 4, 57, 0
6, 132857, Note_on_c, 4, 55, 90
6, 132905, Note_on_c, 4, 55, 0
6, 133230, Note_on_c, 4, 59, 91
6, 133270, Note_on_c, 4, 59, 0
6, 140790, Note_on_c, 4, 60, 91
6, 140816, Note_on_c, 4, 60, 0
6, 141121, Note_on_c, 4, 60, 83
6, 141150, Note_on_c, 4, 60, 0
6, 141455, Note_on_c, 4, 60, 71
6, 141484, Note_on_c, 4, 60, 0
6, 141840, Program_c, 4, 49
6, 141840, Control_c, 4, 91, 60
6, 141840, Control_c, 4, 11, 80
6, 164379, Note_on_c, 4, 52, 68
6, 165318, Note_on_c, 4, 54, 63
6, 165337, Note_on_c, 4, 52, 0
6, 166619, Note_on_c, 4, 54, 0
6, 169210, Note_on_c, 4, 59, 55
6, 171000, Note_on_c, 4, 62, 84
6, 171031, Note_on_c, 4, 59, 0
6, 171386, Note_on_c, 4, 60, 76
6, 171446, Note_on_c, 4, 62, 0
6, 172081, Note_on_c, 4, 60, 0
6, 172483, Note_on_c, 4, 59, 99
6, 174704, Note_on_c, 4, 57, 94
6, 174720, Control_c, 4, 11, 80
6, 174733, Note_on_c, 4, 59, 0
6, 174760, Control_c, 4, 11, 79
6, 174795, Control_c, 4, 11, 78
6, 174830, Control_c, 4, 11, 77
6, 174865, Control_c, 4, 11, 76
6, 174900, Control_c, 4, 11, 75
6, 174940, Control_c, 4, 11, 74
6, 174975, Control_c, 4, 11, 73
6, 175010, Control_c, 4, 11, 72
6, 175045, Control_c, 4, 11, 71
6, 175080, Control_c, 4, 11, 70
6, 175120, Control_c, 4, 11, 69
6, 175155, Control_c, 4, 11, 68
6, 175190, Control_c, 4, 11, 67
6, 175225, Control_c, 4, 11, 66
6, 175260, Control_c, 4, 11, 65
6, 175300, Control_c, 4, 11, 64
6, 175335, Control_c, 4, 11, 63
6, 175370, Control_c, 4, 11, 62
6, 175405, Control_c, 4, 11, 61
6, 175440, Control_c, 4, 11, 60
6, 175505, Note_on_c, 4, 53, 92
6, 175517, Note_on_c, 4, 57, 0
6, 175824, Note_on_c, 4, 55, 60
6, 175868, Note_on_c, 4, 53, 0
6, 176240, Note_on_c, 4, 55, 0
6, 180638, Note_on_c, 4, 59, 92
6, 181182, Note_on_c, 4, 59, 0
6, 183046, Note_on_c, 4, 53, 77
6, 183353, Note_on_c, 4, 54, 85
6, 183361, Note_on_c, 4, 53, 0
6, 184525, Note_on_c, 4, 54, 0
6, 187205, Note_on_c, 4, 54, 86
6, 187751, Note_on_c, 4, 54, 0
6, 189039, Note_on_c, 4, 54, 75
6, 190589, Note_on_c, 4, 59, 67
6, 190595, Note_on_c, 4, 54, 0
6, 191234, Note_on_c, 4, 59, 0
6, 192328, Note_on_c, 4, 64, 93
6, 192663, Note_on_c, 4, 64, 0
6, 194079, Note_on_c, 4, 61, 95
6, 194365, Note_on_c, 4, 60, 96
6, 194400, Note_on_c, 4, 61, 0
6, 194401, Note_on_c, 4, 60, 0
6, 194757, Note_on_c, 4, 60, 102
6, 195121, Note_on_c, 4, 60, 0
6, 195774, Note_on_c, 4, 69, 103
6, 195944, Note_on_c, 4, 69, 0
6, 196021, Note_on_c, 4, 69, 87
6, 196210, Note_on_c, 4, 69, 0
6, 197040, Control_c, 4, 11, 80
6, 197453, Note_on_c, 4, 66, 127
6, 197725, Note_on_c, 4, 64, 122
6, 197760, Note_on_c, 4, 66, 0
6, 197837, Note_on_c, 4, 64, 0
6, 198067, Note_on_c, 4, 60, 125
6, 198643, Note_on_c, 4, 60, 0
6, 199006, Note_on_c, 4, 70, 127
6, 199219, Note_on_c, 4, 70, 0
6, 199241, Note_on_c, 4, 71, 118
6, 199332, Note_on_c, 4, 71, 0
6, 199544, Note_on_c, 4, 59, 125
6, 200216, Note_on_c, 4, 59, 0
6, 200462, Note_on_c, 4, 71, 122
6, 200711, Note_on_c, 4, 71, 0
6, 200726, Note_on_c, 4, 72, 120
6, 200800, Note_on_c, 4, 72, 0
6, 200991, Note_on_c, 4, 58, 119
6, 201474, Note_on_c, 4, 58, 0
6, 201673, Note_on_c, 4, 58, 115
6, 201903, Note_on_c, 4, 59, 116
6, 201940, Note_on_c, 4, 58, 0
6, 202155, Note_on_c, 4, 59, 0
6, 202181, Note_on_c, 4, 60, 122
6, 202321, Note_on_c, 4, 60, 0
6, 203639, Note_on_c, 4, 60, 125
6, 203761, Note_on_c, 4, 60, 0
6, 204067, Control_c, 4, 11, 80
6, 204067, Note_on_c, 4, 59, 120
6, 204072, Control_c, 4, 11, 78
6, 204077, Control_c, 4, 11, 77
6, 204082, Control_c, 4, 11, 76
6, 204087, Control_c, 4, 11, 75
6, 204092, Control_c, 4, 11, 74
6, 204097, Control_c, 4, 11, 73
6, 204102, Control_c, 4, 11, 72
6, 204107, Control_c, 4, 11, 71
6, 204112, Control_c, 4, 11, 70
6, 204117, Control_c, 4, 11, 69
6, 204122, Control_c, 4, 11, 68
6, 204127, Control_c, 4, 11, 67
6, 204132, Control_c, 4, 11, 66
6, 204142, Control_c, 4, 11, 65
6, 204152, Control_c, 4, 11, 64
6, 204157, Control_c, 4, 11, 63
6, 204167, Control_c, 4, 11, 62
6, 204177, Control_c, 4, 11, 61
6, 204187, Control_c, 4, 11, 60
6, 204197, Control_c, 4, 11, 59
6, 204212, Control_c, 4, 11, 58
6, 204222, Control_c, 4, 11, 57
6, 204237, Control_c, 4, 11, 56
6, 204257, Control_c, 4, 11, 55
6, 204277, Control_c, 4, 11, 54
6, 204302, Control_c, 4, 11, 53
6, 204337, Control_c, 4, 11, 52
6, 204382, Control_c, 4, 11, 51
6, 204462, Control_c, 4, 11, 50
6, 205798, Note_on_c, 4, 59, 0
6, 207757, Control_c, 4, 11, 80
6, 207757, Note_on_c, 4, 54, 86
6, 210182, Note_on_c, 4, 57, 78
6, 210219, Note_on_c, 4, 54, 0
6, 210808, Note_on_c, 4, 57, 0
6, 224160, Control_c, 4, 11, 60
6, 224191, Note_on_c, 4, 59, 48
6, 225343, Note_on_c, 4, 59, 0
6, 233280, Program_c, 4, 45
6, 233280, Control_c, 4, 91, 120
6, 234534, Note_on_c, 4, 54, 79
6, 234568, Note_on_c, 4, 54, 0
6, 234826, Note_on_c, 4, 54, 88
6, 234870, Note_on_c, 4, 54, 0
6, 235123, Note_on_c, 4, 55, 72
6, 235215, Note_on_c, 4, 55, 0
6, 236590, Note_on_c, 4, 54, 65
6, 236619, Note_on_c, 4, 54, 0
6, 236886, Note_on_c, 4, 54, 61
6, 236931, Note_on_c, 4, 54, 0
6, 237600, Program_c, 4, 49
6, 237600, Control_c, 4, 91, 60
6, 238289, Control_c, 4, 11, 60
6, 238289, Note_on_c, 4, 54, 86
6, 238329, Control_c, 4, 11, 61
6, 238364, Control_c, 4, 11, 62
6, 238404, Control_c, 4, 11, 63
6, 238439, Control_c, 4, 11, 64
6, 238479, Control_c, 4, 11, 65
6, 238514, Control_c, 4, 11, 66
6, 238554, Control_c, 4, 11, 67
6, 238589, Control_c, 4, 11, 68
6, 238607, Note_on_c, 4, 55, 84
6, 238629, Control_c, 4, 11, 69
6, 238636, Note_on_c, 4, 54, 0
6, 238664, Control_c, 4, 11, 70
6, 238704, Control_c, 4, 11, 71
6, 238739, Control_c, 4, 11, 72
6, 238779, Control_c, 4, 11, 73
6, 238814, Control_c, 4, 11, 74
6, 238854, Control_c, 4, 11, 75
6, 238889, Control_c, 4, 11, 76
6, 238929, Control_c, 4, 11, 77
6, 238964, Control_c, 4, 11, 78
6, 239004, Control_c, 4, 11, 79
6, 239039, Control_c, 4, 11, 80
6, 239306, Note_on_c, 4, 55, 0
6, 239719, Note_on_c, 4, 54, 88
6, 240023, Note_on_c, 4, 59, 82
6, 240056, Note_on_c, 4, 54, 0
6, 240436, Note_on_c, 4, 59, 0
6, 240476, Note_on_c, 4, 59, 84
6, 242209, Note_on_c, 4, 59, 0
6, 242229, Note_on_c, 4, 59, 108
6, 242400, Control_c, 4, 11, 80
6, 242475, Control_c, 4, 11, 79
6, 242545, Control_c, 4, 11, 78
6, 242620, Control_c, 4, 11, 77
6, 242690, Control_c, 4, 11, 76
6, 242760, Control_c, 4, 11, 75
6, 242835, Control_c, 4, 11, 74
6, 242905, Control_c, 4, 11, 73
6, 242980, Control_c, 4, 11, 72
6, 243050, Control_c, 4, 11, 71
6, 243120, Control_c, 4, 11, 70
6, 243195, Control_c, 4, 11, 69
6, 243265, Control_c, 4, 11, 68
6, 243340, Control_c, 4, 11, 67
6, 243410, Control_c, 4, 11, 66
6, 243480, Control_c, 4, 11, 65
6, 243555, Control_c, 4, 11, 64
6, 243625, Control_c, 4, 11, 63
6, 243700, Control_c, 4, 11, 62
6, 243770, Control_c, 4, 11, 61
6, 243840, Control_c, 4, 11, 60
6, 243915, Control_c, 4, 11, 59
6, 243982, Note_on_c, 4, 61, 67
6, 243985, Control_c, 4, 11, 58
6, 244033, Note_on_c, 4, 59, 0
6, 244060, Control_c, 4, 11, 57
6, 244130, Control_c, 4, 11, 56
6, 244200, Control_c, 4, 11, 55
6, 244275, Control_c, 4, 11, 54
6, 244345, Control_c, 4, 11, 53
6, 244420, Control_c, 4, 11, 52
6, 244428, Note_on_c, 4, 61, 0
6, 244490, Control_c, 4, 11, 51
6, 244560, Control_c, 4, 11, 50
6, 245520, Control_c, 4, 11, 80
6, 245823, Note_on_c, 4, 55, 100
6, 246162, Note_on_c, 4, 55, 0
6, 246651, Control_c, 4, 11, 50
6, 246651, Note_on_c, 4, 54, 77
6, 246676, Control_c, 4, 11, 51
6, 246701, Control_c, 4, 11, 52
6, 246721, Control_c, 4, 11, 53
6, 246746, Control_c, 4, 11, 54
6, 246771, Control_c, 4, 11, 55
6, 246791, Control_c, 4, 11, 56
6, 246816, Control_c, 4, 11, 57
6, 246841, Control_c, 4, 11, 58
6, 246861, Control_c, 4, 11, 59
6, 246886, Control_c, 4, 11, 60
6, 246911, Control_c, 4, 11, 61
6, 246931, Control_c, 4, 11, 62
6, 246956, Control_c, 4, 11, 63
6, 246981, Control_c, 4, 11, 64
6, 247001, Control_c, 4, 11, 65
6, 247026, Control_c, 4, 11, 66
6, 247051, Control_c, 4, 11, 67
6, 247071, Control_c, 4, 11, 68
6, 247096, Control_c, 4, 11, 69
6, 247116, Control_c, 4, 11, 70
6, 247141, Control_c, 4, 11, 71
6, 247166, Control_c, 4, 11, 72
6, 247186, Control_c, 4, 11, 73
6, 247211, Control_c, 4, 11, 74
6, 247236, Control_c, 4, 11, 75
6, 247256, Control_c, 4, 11, 76
6, 247281, Control_c, 4, 11, 77
6, 247306, Control_c, 4, 11, 78
6, 247326, Control_c, 4, 11, 79
6, 247351, Control_c, 4, 11, 80
6, 247376, Control_c, 4, 11, 81
6, 247396, Control_c, 4, 11, 82
6, 247421, Control_c, 4, 11, 83
6, 247446, Control_c, 4, 11, 84
6, 247466, Control_c, 4, 11, 85
6, 247491, Control_c, 4, 11, 86
6, 247516, Control_c, 4, 11, 87
6, 247536, Control_c, 4, 11, 88
6, 247561, Control_c, 4, 11, 89
6, 247581, Control_c, 4, 11, 90
6, 247582, Control_c, 4, 11, 90
6, 247582, Note_on_c, 4, 51, 65
6, 247612, Control_c, 4, 11, 89
6, 247637, Control_c, 4, 11, 88
6, 247662, Note_on_c, 4, 54, 0
6, 247667, Control_c, 4, 11, 87
6, 247692, Control_c, 4, 11, 86
6, 247722, Control_c, 4, 11, 85
6, 247747, Control_c, 4, 11, 84
6, 247777, Control_c, 4, 11, 83
6, 247802, Control_c, 4, 11, 82
6, 247832, Control_c, 4, 11, 81
6, 247857, Control_c, 4, 11, 80
6, 247882, Control_c, 4, 11, 79
6, 247912, Control_c, 4, 11, 78
6, 247937, Control_c, 4, 11, 77
6, 247967, Control_c, 4, 11, 76
6, 247992, Control_c, 4, 11, 75
6, 248022, Control_c, 4, 11, 74
6, 248047, Control_c, 4, 11, 73
6, 248077, Control_c, 4, 11, 72
6, 248102, Control_c, 4, 11, 71
6, 248127, Control_c, 4, 11, 70
6, 248157, Control_c, 4, 11, 69
6, 248182, Control_c, 4, 11, 68
6, 248212, Control_c, 4, 11, 67
6, 248237, Control_c, 4, 11, 66
6, 248267, Control_c, 4, 11, 65
6, 248292, Control_c, 4, 11, 64
6, 248322, Control_c, 4, 11, 63
6, 248347, Control_c, 4, 11, 62
6, 248372, Control_c, 4, 11, 61
6, 248400, Control_c, 4, 11, 60
6, 254324, Note_on_c, 4, 49, 91
6, 254334, Note_on_c, 4, 51, 0
6, 255213, Note_on_c, 4, 61, 96
6, 255251, Note_on_c, 4, 49, 0
6, 255896, Note_on_c, 4, 60, 90
6, 255910, Note_on_c, 4, 61, 0
6, 256321, Note_on_c, 4, 60, 0
6, 256835, Note_on_c, 4, 61, 94
6, 257327, Note_on_c, 4, 61, 0
6, 257345, Note_on_c, 4, 56, 93
6, 257590, Note_on_c, 4, 54, 88
6, 257609, Note_on_c, 4, 56, 0
6, 258236, Note_on_c, 4, 59, 69
6, 258258, Note_on_c, 4, 54, 0
6, 258581, Note_on_c, 4, 52, 64
6, 258645, Note_on_c, 4, 59, 0
6, 258997, Note_on_c, 4, 52, 0
6, 263795, Note_on_c, 4, 61, 97
6, 264782, Note_on_c, 4, 58, 73
6, 264811, Note_on_c, 4, 61, 0
6, 265070, Note_on_c, 4, 58, 0
6, 265517, Note_on_c, 4, 55, 102
6, 265762, Note_on_c, 4, 55, 0
6, 266234, Note_on_c, 4, 55, 106
6, 266991, Note_on_c, 4, 56, 121
6, 267021, Note_on_c, 4, 55, 0
6, 267128, Note_on_c, 4, 56, 0
6, 267360, Program_c, 4, 45
6, 267360, Control_c, 4, 91, 120
6, 267916, Note_on_c, 4, 59, 106
6, 267956, Note_on_c, 4, 59, 0
6, 268128, Note_on_c, 4, 59, 114
6, 268166, Note_on_c, 4, 59, 0
6, 268329, Note_on_c, 4, 59, 121
6, 268373, Note_on_c, 4, 59, 0
6, 271019, Note_on_c, 4, 56, 118
6, 271065, Note_on_c, 4, 56, 0
6, 271440, Program_c, 4, 49
6, 271440, Control_c, 4, 91, 60
6, 271920, Control_c, 4, 11, 80
6, 272107, Note_on_c, 4, 59, 109
6, 272539, Note_on_c, 4, 59, 0
6, 272880, Program_c, 4, 45
6, 272880, Control_c, 4, 91, 120
6, 273254, Note_on_c, 4, 54, 120
6, 273317, Note_on_c, 4, 54, 0
6, 273993, Note_on_c, 4, 56, 120
6, 274047, Note_on_c, 4, 56, 0
6, 274720, Note_on_c, 4, 54, 119
6, 274779, Note_on_c, 4, 54, 0
6, 275760, Control_c, 4, 11, 60
6, 275940, Note_on_c, 4, 59, 89
6, 276049, Note_on_c, 4, 59, 0
6, 276164, Note_on_c, 4, 59, 82
6, 276335, Note_on_c, 4, 59, 0
6, 276584, Note_on_c, 4, 59, 102
6, 276768, Note_on_c, 4, 59, 0
6, 276831, Note_on_c, 4, 59, 77
6, 276974, Note_on_c, 4, 59, 0
6, 277390, Note_on_c, 4, 59, 124
6, 277457, Note_on_c, 4, 59, 0
6, 277523, Note_on_c, 4, 56, 123
6, 277704, Note_on_c, 4, 56, 0
6, 277920, Program_c, 4, 49
6, 277920, Control_c, 4, 91, 60
6, 278115, Note_on_c, 4, 59, 116
6, 278886, Note_on_c, 4, 59, 0
6, 283680, Control_c, 4, 11, 80
6, 283899, Note_on_c, 4, 59, 117
6, 284354, Note_on_c, 4, 59, 0
6, 284640, Program_c, 4, 45
6, 284640, Control_c, 4, 91, 120
6, 285131, Note_on_c, 4, 54, 121
6, 285167, Note_on_c, 4, 54, 0
6, 285924, Note_on_c, 4, 56, 113
6, 285973, Note_on_c, 4, 56, 0
6, 286687, Note_on_c, 4, 54, 120
6, 286746, Note_on_c, 4, 54, 0
6, 287760, Control_c, 4, 11, 60
6, 287974, Note_on_c, 4, 59, 101
6, 288190, Note_on_c, 4, 59, 0
6, 288216, Note_on_c, 4, 59, 96
6, 288373, Note_on_c, 4, 59, 0
6, 288658, Note_on_c, 4, 59, 112
6, 288868, Note_on_c, 4, 59, 0
6, 288890, Note_on_c, 4, 59, 106
6, 289012, Note_on_c, 4, 59, 0
6, 289443, Note_on_c, 4, 54, 127
6, 289510, Note_on_c, 4, 54, 0
6, 289577, Note_on_c, 4, 56, 116
6, 289764, Note_on_c, 4, 56, 0
6, 289920, Program_c, 4, 49
6, 289920, Control_c, 4, 91, 60
6, 290143, Note_on_c, 4, 66, 114
6, 290871, Note_on_c, 4, 66, 0
6, 290873, Note_on_c, 4, 65, 111
6, 291080, Note_on_c, 4, 64, 117
6, 291115, Note_on_c, 4, 65, 0
6, 291769, Note_on_c, 4, 64, 0
6, 291791, Note_on_c, 4, 64, 114
6, 292326, Note_on_c, 4, 63, 120
6, 292359, Note_on_c, 4, 64, 0
6, 292575, Note_on_c, 4, 62, 116
6, 292600, Note_on_c, 4, 63, 0
6, 293305, Note_on_c, 4, 63, 87
6, 293342, Note_on_c, 4, 62, 0
6, 293596, Note_on_c, 4, 63, 0
6, 295822, Control_c, 4, 11, 60
6, 295822, Note_on_c, 4, 66, 121
6, 295997, Control_c, 4, 11, 61
6, 296089, Note_on_c, 4, 68, 119
6, 296097, Note_on_c, 4, 66, 0
6, 296167, Control_c, 4, 11, 62
6, 296236, Note_on_c, 4, 68, 0
6, 296342, Control_c, 4, 11, 63
6, 296365, Note_on_c, 4, 66, 124
6, 296512, Control_c, 4, 11, 64
6, 296682, Control_c, 4, 11, 65
6, 296814, Note_on_c, 4, 70, 114
6, 296832, Note_on_c, 4, 66, 0
6, 296857, Control_c, 4, 11, 66
6, 296948, Note_on_c, 4, 70, 0
6, 297027, Control_c, 4, 11, 67
6, 297087, Note_on_c, 4, 68, 120
6, 297197, Control_c, 4, 11, 68
6, 297372, Control_c, 4, 11, 69
6, 297542, Control_c, 4, 11, 70
6, 297563, Note_on_c, 4, 68, 0
6, 297564, Note_on_c, 4, 65, 97
6, 297717, Control_c, 4, 11, 71
6, 297886, Note_on_c, 4, 63, 120
6, 297887, Control_c, 4, 11, 72
6, 297905, Note_on_c, 4, 65, 0
6, 298048, Note_on_c, 4, 63, 0
6, 298057, Control_c, 4, 11, 73
6, 298131, Note_on_c, 4, 69, 121
6, 298232, Control_c, 4, 11, 74
6, 298344, Note_on_c, 4, 67, 114
6, 298346, Note_on_c, 4, 69, 0
6, 298402, Control_c, 4, 11, 75
6, 298572, Control_c, 4, 11, 76
6, 298645, Note_on_c, 4, 67, 0
6, 298656, Note_on_c, 4, 65, 126
6, 298747, Control_c, 4, 11, 77
6, 298845, Note_on_c, 4, 65, 0
6, 298917, Control_c, 4, 11, 78
6, 298923, Note_on_c, 4, 64, 126
6, 299092, Control_c, 4, 11, 79
6, 299148, Note_on_c, 4, 64, 0
6, 299260, Control_c, 4, 11, 80
6, 299260, Note_on_c, 4, 64, 126
6, 299461, Note_on_c, 4, 64, 0
6, 301300, Note_on_c, 4, 63, 63
6, 301579, Note_on_c, 4, 64, 91
6, 301617, Note_on_c, 4, 63, 0
6, 301805, Note_on_c, 4, 65, 101
6, 301833, Note_on_c, 4, 64, 0
6, 302033, Note_on_c, 4, 66, 115
6, 302064, Note_on_c, 4, 65, 0
6, 302254, Note_on_c, 4, 67, 114
6, 302269, Note_on_c, 4, 66, 0
6, 302491, Note_on_c, 4, 68, 121
6, 302511, Note_on_c, 4, 67, 0
6, 302697, Note_on_c, 4, 68, 0
6, 307680, Control_c, 4, 11, 80
6, 307780, Control_c, 4, 11, 81
6, 307875, Control_c, 4, 11, 82
6, 307970, Control_c, 4, 11, 83
6, 308065, Control_c, 4, 11, 84
6, 308160, Control_c, 4, 11, 85
6, 308195, Note_on_c, 4, 66, 123
6, 308226, Note_on_c, 4, 66, 0
6, 308247, Note_on_c, 4, 66, 110
6, 308260, Control_c, 4, 11, 86
6, 308286, Note_on_c, 4, 66, 0
6, 308304, Note_on_c, 4, 66, 121
6, 308336, Note_on_c, 4, 66, 0
6, 308347, Note_on_c, 4, 66, 105
6, 308355, Control_c, 4, 11, 87
6, 308384, Note_on_c, 4, 66, 0
6, 308410, Note_on_c, 4, 66, 114
6, 308442, Note_on_c, 4, 66, 0
6, 308450, Control_c, 4, 11, 88
6, 308462, Note_on_c, 4, 66, 116
6, 308500, Note_on_c, 4, 66, 0
6, 308533, Note_on_c, 4, 66, 107
6, 308545, Control_c, 4, 11, 89
6, 308566, Note_on_c, 4, 66, 0
6, 308572, Note_on_c, 4, 66, 106
6, 308609, Note_on_c, 4, 66, 0
6, 308638, Note_on_c, 4, 66, 112
6, 308640, Control_c, 4, 11, 90
6, 308672, Note_on_c, 4, 66, 0
6, 308687, Note_on_c, 4, 66, 118
6, 308725, Note_on_c, 4, 66, 0
6, 308740, Control_c, 4, 11, 91
6, 308746, Note_on_c, 4, 66, 112
6, 308781, Note_on_c, 4, 66, 0
6, 308794, Note_on_c, 4, 66, 116
6, 308835, Control_c, 4, 11, 92
6, 308840, Note_on_c, 4, 66, 0
6, 308858, Note_on_c, 4, 66, 114
6, 308895, Note_on_c, 4, 66, 0
6, 308911, Note_on_c, 4, 66, 116
6, 308930, Control_c, 4, 11, 93
6, 309005, Note_on_c, 4, 66, 0
6, 309015, Note_on_c, 4, 66, 88
6, 309025, Control_c, 4, 11, 94
6, 309043, Note_on_c, 4, 66, 0
6, 309077, Note_on_c, 4, 69, 125
6, 309112, Note_on_c, 4, 69, 0
6, 309120, Control_c, 4, 11, 95
6, 309123, Note_on_c, 4, 69, 99
6, 309165, Note_on_c, 4, 69, 0
6, 309177, Note_on_c, 4, 69, 109
6, 309220, Control_c, 4, 11, 96
6, 309258, Note_on_c, 4, 69, 0
6, 309283, Note_on_c, 4, 69, 118
6, 309315, Control_c, 4, 11, 97
6, 309321, Note_on_c, 4, 69, 0
6, 309332, Note_on_c, 4, 69, 118
6, 309383, Note_on_c, 4, 69, 0
6, 309398, Note_on_c, 4, 69, 125
6, 309410, Control_c, 4, 11, 98
6, 309491, Note_on_c, 4, 69, 0
6, 309505, Control_c, 4, 11, 99
6, 309546, Note_on_c, 4, 69, 87
6, 309565, Note_on_c, 4, 69, 0
6, 309600, Control_c, 4, 11, 120
6, 309620, Note_on_c, 4, 65, 122
6, 309654, Note_on_c, 4, 65, 0
6, 309677, Note_on_c, 4, 65, 98
6, 309718, Note_on_c, 4, 65, 0
6, 309738, Note_on_c, 4, 65, 112
6, 309772, Note_on_c, 4, 65, 0
6, 309794, Note_on_c, 4, 65, 100
6, 309834, Note_on_c, 4, 65, 0
6, 309869, Note_on_c, 4, 65, 100
6, 309902, Note_on_c, 4, 65, 0
6, 309924, Note_on_c, 4, 65, 84
6, 309957, Note_on_c, 4, 65, 0
6, 309995, Note_on_c, 4, 65, 82
6, 310027, Note_on_c, 4, 65, 0
6, 310047, Note_on_c, 4, 65, 56
6, 310073, Note_on_c, 4, 65, 0
6, 310115, Note_on_c, 4, 65, 109
6, 310154, Note_on_c, 4, 65, 0
6, 310167, Note_on_c, 4, 65, 71
6, 310205, Note_on_c, 4, 65, 0
6, 310230, Note_on_c, 4, 65, 89
6, 310260, Note_on_c, 4, 65, 0
6, 310284, Note_on_c, 4, 65, 93
6, 310323, Note_on_c, 4, 65, 0
6, 310348, Note_on_c, 4, 65, 117
6, 310392, Note_on_c, 4, 65, 0
6, 310404, Note_on_c, 4, 65, 80
6, 310442, Note_on_c, 4, 65, 0
6, 310465, Note_on_c, 4, 65, 100
6, 310500, Note_on_c, 4, 65, 0
6, 310514, Note_on_c, 4, 65, 78
6, 310552, Note_on_c, 4, 65, 0
6, 310589, Note_on_c, 4, 66, 120
6, 310620, Note_on_c, 4, 66, 0
6, 310638, Note_on_c, 4, 66, 88
6, 310668, Note_on_c, 4, 66, 0
6, 310713, Note_on_c, 4, 66, 73
6, 310733, Note_on_c, 4, 66, 0
6, 310742, Note_on_c, 4, 66, 76
6, 310778, Note_on_c, 4, 66, 0
6, 310831, Note_on_c, 4, 73, 118
6, 310864, Note_on_c, 4, 73, 0
6, 310888, Note_on_c, 4, 73, 88
6, 310970, Note_on_c, 4, 73, 0
6, 310981, Note_on_c, 4, 73, 76
6, 311017, Note_on_c, 4, 73, 0
6, 311074, Note_on_c, 4, 74, 125
6, 311112, Note_on_c, 4, 74, 0
6, 311131, Note_on_c, 4, 74, 89
6, 311168, Note_on_c, 4, 74, 0
6, 311189, Note_on_c, 4, 74, 104
6, 311225, Note_on_c, 4, 74, 0
6, 311243, Note_on_c, 4, 74, 60
6, 311280, Note_on_c, 4, 74, 0
6, 311309, Note_on_c, 4, 74, 102
6, 311392, Note_on_c, 4, 74, 0
6, 311418, Note_on_c, 4, 74, 94
6, 311504, Note_on_c, 4, 74, 0
6, 311537, Note_on_c, 4, 73, 116
6, 311571, Note_on_c, 4, 73, 0
6, 311591, Note_on_c, 4, 73, 104
6, 311625, Note_on_c, 4, 73, 0
6, 311652, Note_on_c, 4, 73, 81
6, 311675, Note_on_c, 4, 73, 0
6, 311698, Note_on_c, 4, 73, 103
6, 311732, Note_on_c, 4, 73, 0
6, 311771, Note_on_c, 4, 73, 103
6, 311808, Note_on_c, 4, 73, 0
6, 311818, Note_on_c, 4, 73, 69
6, 311855, Note_on_c, 4, 73, 0
6, 311893, Note_on_c, 4, 73, 77
6, 311980, Note_on_c, 4, 73, 0
6, 312027, Note_on_c, 4, 71, 120
6, 312062, Note_on_c, 4, 71, 0
6, 312077, Note_on_c, 4, 71, 92
6, 312117, Note_on_c, 4, 71, 0
6, 312138, Note_on_c, 4, 71, 107
6, 312174, Note_on_c, 4, 71, 0
6, 312190, Note_on_c, 4, 71, 86
6, 312228, Note_on_c, 4, 71, 0
6, 312257, Note_on_c, 4, 71, 103
6, 312336, Note_on_c, 4, 71, 0
6, 312368, Note_on_c, 4, 71, 94
6, 312403, Note_on_c, 4, 71, 0
6, 312430, Note_on_c, 4, 71, 83
6, 312473, Note_on_c, 4, 71, 0
6, 312518, Note_on_c, 4, 66, 120
6, 312592, Note_on_c, 4, 66, 0
6, 312627, Note_on_c, 4, 66, 80
6, 312654, Note_on_c, 4, 66, 0
6, 312670, Note_on_c, 4, 66, 88
6, 312703, Note_on_c, 4, 66, 0
6, 312747, Note_on_c, 4, 66, 89
6, 312769, Note_on_c, 4, 66, 0
6, 312792, Note_on_c, 4, 66, 93
6, 312824, Note_on_c, 4, 66, 0
6, 312868, Note_on_c, 4, 66, 73
6, 312894, Note_on_c, 4, 66, 0
6, 312908, Note_on_c, 4, 66, 76
6, 312946, Note_on_c, 4, 66, 0
6, 312995, Note_on_c, 4, 64, 116
6, 313029, Note_on_c, 4, 64, 0
6, 313055, Note_on_c, 4, 64, 89
6, 313090, Note_on_c, 4, 64, 0
6, 313118, Note_on_c, 4, 64, 79
6, 313193, Note_on_c, 4, 64, 0
6, 313240, Note_on_c, 4, 64, 116
6, 313279, Note_on_c, 4, 64, 0
6, 313301, Note_on_c, 4, 64, 96
6, 313337, Note_on_c, 4, 64, 0
6, 313357, Note_on_c, 4, 64, 84
6, 313387, Note_on_c, 4, 64, 0
6, 313409, Note_on_c, 4, 64, 86
6, 313458, Note_on_c, 4, 64, 0
6, 313552, Note_on_c, 4, 71, 124
6, 313589, Note_on_c, 4, 71, 0
6, 313612, Note_on_c, 4, 71, 93
6, 313651, Note_on_c, 4, 71, 0
6, 313665, Note_on_c, 4, 71, 69
6, 313700, Note_on_c, 4, 71, 0
6, 313711, Note_on_c, 4, 71, 62
6, 313752, Note_on_c, 4, 71, 0
6, 313776, Note_on_c, 4, 71, 109
6, 313861, Note_on_c, 4, 71, 0
6, 313893, Note_on_c, 4, 71, 79
6, 313976, Note_on_c, 4, 71, 0
6, 314017, Note_on_c, 4, 72, 121
6, 314060, Note_on_c, 4, 72, 0
6, 314074, Note_on_c, 4, 72, 76
6, 314107, Note_on_c, 4, 72, 0
6, 314135, Note_on_c, 4, 72, 83
6, 314215, Note_on_c, 4, 72, 0
6, 314276, Note_on_c, 4, 76, 124
6, 314318, Note_on_c, 4, 76, 0
6, 314337, Note_on_c, 4, 76, 79
6, 314363, Note_on_c, 4, 76, 0
6, 314401, Note_on_c, 4, 76, 98
6, 314435, Note_on_c, 4, 76, 0
6, 314448, Note_on_c, 4, 76, 79
6, 314484, Note_on_c, 4, 76, 0
6, 314524, Note_on_c, 4, 64, 114
6, 314560, Note_on_c, 4, 64, 0
6, 314575, Note_on_c, 4, 64, 83
6, 314609, Note_on_c, 4, 64, 0
6, 314637, Note_on_c, 4, 64, 86
6, 314721, Note_on_c, 4, 64, 0
6, 314771, Note_on_c, 4, 66, 118
6, 314800, Note_on_c, 4, 66, 0
6, 314823, Note_on_c, 4, 66, 90
6, 314854, Note_on_c, 4, 66, 0
6, 314924, Note_on_c, 4, 66, 99
6, 314965, Note_on_c, 4, 66, 0
6, 315010, Note_on_c, 4, 64, 122
6, 315050, Note_on_c, 4, 64, 0
6, 315065, Note_on_c, 4, 64, 71
6, 315108, Note_on_c, 4, 64, 0
6, 315137, Note_on_c, 4, 64, 76
6, 315159, Note_on_c, 4, 64, 0
6, 315172, Note_on_c, 4, 64, 72
6, 315215, Note_on_c, 4, 64, 0
6, 315247, Note_on_c, 4, 64, 118
6, 315286, Note_on_c, 4, 64, 0
6, 315302, Note_on_c, 4, 64, 99
6, 315343, Note_on_c, 4, 64, 0
6, 315368, Note_on_c, 4, 64, 108
6, 315471, Note_on_c, 4, 64, 0
6, 315513, Note_on_c, 4, 63, 127
6, 315559, Note_on_c, 4, 63, 0
6, 315769, Note_on_c, 4, 59, 121
6, 315815, Note_on_c, 4, 59, 0
6, 315824, Note_on_c, 4, 59, 107
6, 315861, Note_on_c, 4, 59, 0
6, 315882, Note_on_c, 4, 58, 120
6, 315955, Note_on_c, 4, 58, 0
6, 315997, Note_on_c, 4, 59, 116
6, 316048, Note_on_c, 4, 59, 0
6, 316050, Note_on_c, 4, 59, 88
6, 316087, Note_on_c, 4, 59, 0
6, 316108, Note_on_c, 4, 63, 116
6, 316204, Note_on_c, 4, 63, 0
6, 316248, Note_on_c, 4, 66, 126
6, 316492, Note_on_c, 4, 67, 124
6, 316511, Note_on_c, 4, 66, 0
6, 316561, Note_on_c, 4, 67, 0
6, 316735, Note_on_c, 4, 59, 125
6, 316742, Note_on_c, 4, 64, 124
6, 316781, Note_on_c, 4, 64, 0
6, 316814, Note_on_c, 4, 59, 0
6, 316986, Note_on_c, 4, 64, 118
6, 316989, Note_on_c, 4, 59, 121
6, 317085, Note_on_c, 4, 64, 0
6, 317088, Note_on_c, 4, 59, 0
6, 317261, Note_on_c, 4, 59, 113
6, 317301, Note_on_c, 4, 59, 0
6, 317322, Note_on_c, 4, 59, 102
6, 317365, Note_on_c, 4, 59, 0
6, 317373, Note_on_c, 4, 58, 114
6, 317414, Note_on_c, 4, 58, 0
6, 317435, Note_on_c, 4, 58, 103
6, 317456, Note_on_c, 4, 58, 0
6, 317495, Note_on_c, 4, 59, 116
6, 317527, Note_on_c, 4, 59, 0
6, 317549, Note_on_c, 4, 59, 98
6, 317586, Note_on_c, 4, 59, 0
6, 317616, Note_on_c, 4, 64, 124
6, 317693, Note_on_c, 4, 64, 0
6, 317730, Note_on_c, 4, 67, 120
6, 317969, Note_on_c, 4, 68, 121
6, 317990, Note_on_c, 4, 67, 0
6, 318014, Note_on_c, 4, 68, 0
6, 318203, Note_on_c, 4, 65, 116
6, 318204, Note_on_c, 4, 59, 118
6, 318242, Note_on_c, 4, 65, 0
6, 318251, Note_on_c, 4, 59, 0
6, 318441, Note_on_c, 4, 65, 117
6, 318442, Note_on_c, 4, 59, 120
6, 318495, Note_on_c, 4, 65, 0
6, 318509, Note_on_c, 4, 59, 0
6, 318698, Note_on_c, 4, 59, 116
6, 318735, Note_on_c, 4, 59, 0
6, 318781, Note_on_c, 4, 59, 100
6, 318818, Note_on_c, 4, 59, 0
6, 318827, Note_on_c, 4, 58, 109
6, 318864, Note_on_c, 4, 58, 0
6, 318914, Note_on_c, 4, 59, 94
6, 318953, Note_on_c, 4, 59, 0
6, 319031, Note_on_c, 4, 65, 117
6, 319072, Note_on_c, 4, 65, 0
6, 319183, Note_on_c, 4, 68, 125
6, 319377, Note_on_c, 4, 68, 0
6, 319422, Note_on_c, 4, 69, 121
6, 319499, Note_on_c, 4, 69, 0
6, 319662, Note_on_c, 4, 66, 127
6, 319738, Note_on_c, 4, 66, 0
6, 319902, Note_on_c, 4, 69, 117
6, 320137, Note_on_c, 4, 70, 105
6, 320149, Note_on_c, 4, 69, 0
6, 320230, Note_on_c, 4, 70, 0
6, 320362, Note_on_c, 4, 66, 127
6, 320419, Note_on_c, 4, 66, 0
6, 320609, Note_on_c, 4, 70, 113
6, 320809, Note_on_c, 4, 70, 0
6, 320842, Note_on_c, 4, 71, 108
6, 320896, Note_on_c, 4, 71, 0
6, 321076, Note_on_c, 4, 66, 127
6, 321191, Note_on_c, 4, 66, 0
6, 321356, Note_on_c, 4, 66, 125
6, 321387, Note_on_c, 4, 66, 0
6, 321432, Note_on_c, 4, 66, 78
6, 321457, Note_on_c, 4, 66, 0
6, 321477, Note_on_c, 4, 66, 108
6, 321505, Note_on_c, 4, 66, 0
6, 321527, Note_on_c, 4, 66, 112
6, 321562, Note_on_c, 4, 66, 0
6, 321587, Note_on_c, 4, 66, 107
6, 321619, Note_on_c, 4, 66, 0
6, 321639, Note_on_c, 4, 66, 110
6, 321675, Note_on_c, 4, 66, 0
6, 321704, Note_on_c, 4, 66, 85
6, 321736, Note_on_c, 4, 66, 0
6, 321758, Note_on_c, 4, 66, 105
6, 321794, Note_on_c, 4, 66, 0
6, 321822, Note_on_c, 4, 66, 100
6, 321855, Note_on_c, 4, 66, 0
6, 321876, Note_on_c, 4, 66, 103
6, 321904, Note_on_c, 4, 66, 0
6, 321938, Note_on_c, 4, 66, 75
6, 321958, Note_on_c, 4, 66, 0
6, 321981, Note_on_c, 4, 66, 96
6, 322015, Note_on_c, 4, 66, 0
6, 322038, Note_on_c, 4, 66, 109
6, 322074, Note_on_c, 4, 66, 0
6, 322110, Note_on_c, 4, 66, 83
6, 322142, Note_on_c, 4, 66, 0
6, 322173, Note_on_c, 4, 66, 70
6, 322192, Note_on_c, 4, 66, 0
6, 322229, Note_on_c, 4, 66, 79
6, 322306, Note_on_c, 4, 66, 0
6, 322351, Note_on_c, 4, 66, 78
6, 322421, Note_on_c, 4, 66, 0
6, 322506, Note_on_c, 4, 67, 118
6, 322546, Note_on_c, 4, 67, 0
6, 322561, Note_on_c, 4, 67, 84
6, 322589, Note_on_c, 4, 67, 0
6, 322608, Note_on_c, 4, 67, 100
6, 322705, Note_on_c, 4, 67, 0
6, 322739, Note_on_c, 4, 66, 118
6, 322768, Note_on_c, 4, 66, 0
6, 322791, Note_on_c, 4, 66, 101
6, 322824, Note_on_c, 4, 66, 0
6, 322847, Note_on_c, 4, 66, 90
6, 322871, Note_on_c, 4, 66, 0
6, 322894, Note_on_c, 4, 66, 105
6, 322927, Note_on_c, 4, 66, 0
6, 322970, Note_on_c, 4, 66, 100
6, 323004, Note_on_c, 4, 66, 0
6, 323024, Note_on_c, 4, 66, 104
6, 323061, Note_on_c, 4, 66, 0
6, 323081, Note_on_c, 4, 66, 99
6, 323115, Note_on_c, 4, 66, 0
6, 323135, Note_on_c, 4, 66, 101
6, 323173, Note_on_c, 4, 66, 0
6, 323207, Note_on_c, 4, 66, 99
6, 323290, Note_on_c, 4, 66, 0
6, 323317, Note_on_c, 4, 66, 88
6, 323401, Note_on_c, 4, 66, 0
6, 323449, Note_on_c, 4, 66, 120
6, 323483, Note_on_c, 4, 66, 0
6, 323503, Note_on_c, 4, 66, 101
6, 323541, Note_on_c, 4, 66, 0
6, 323561, Note_on_c, 4, 66, 105
6, 323596, Note_on_c, 4, 66, 0
6, 323620, Note_on_c, 4, 66, 94
6, 323659, Note_on_c, 4, 66, 0
6, 323684, Note_on_c, 4, 66, 107
6, 323720, Note_on_c, 4, 66, 0
6, 323744, Note_on_c, 4, 66, 98
6, 323783, Note_on_c, 4, 66, 0
6, 323805, Note_on_c, 4, 66, 98
6, 323844, Note_on_c, 4, 66, 0
6, 323854, Note_on_c, 4, 66, 72
6, 323895, Note_on_c, 4, 66, 0
6, 323940, Note_on_c, 4, 67, 116
6, 323976, Note_on_c, 4, 67, 0
6, 323996, Note_on_c, 4, 67, 78
6, 324078, Note_on_c, 4, 67, 0
6, 324095, Note_on_c, 4, 67, 98
6, 324136, Note_on_c, 4, 67, 0
6, 324167, Note_on_c, 4, 69, 125
6, 324204, Note_on_c, 4, 69, 0
6, 324222, Note_on_c, 4, 69, 98
6, 324255, Note_on_c, 4, 69, 0
6, 324274, Note_on_c, 4, 69, 87
6, 324315, Note_on_c, 4, 69, 0
6, 324324, Note_on_c, 4, 69, 71
6, 324370, Note_on_c, 4, 69, 0
6, 324398, Note_on_c, 4, 67, 121
6, 324442, Note_on_c, 4, 67, 0
6, 324452, Note_on_c, 4, 67, 89
6, 324489, Note_on_c, 4, 67, 0
6, 324512, Note_on_c, 4, 67, 91
6, 324605, Note_on_c, 4, 67, 0
6, 324638, Note_on_c, 4, 67, 107
6, 324721, Note_on_c, 4, 67, 0
6, 324752, Note_on_c, 4, 67, 85
6, 324824, Note_on_c, 4, 67, 0
6, 324863, Note_on_c, 4, 67, 126
6, 324901, Note_on_c, 4, 67, 0
6, 324923, Note_on_c, 4, 67, 96
6, 324995, Note_on_c, 4, 67, 0
6, 325017, Note_on_c, 4, 67, 91
6, 325059, Note_on_c, 4, 67, 0
6, 325095, Note_on_c, 4, 66, 123
6, 325179, Note_on_c, 4, 66, 0
6, 325198, Note_on_c, 4, 66, 109
6, 325232, Note_on_c, 4, 66, 0
6, 325250, Note_on_c, 4, 66, 106
6, 325284, Note_on_c, 4, 66, 0
6, 325313, Note_on_c, 4, 66, 109
6, 325347, Note_on_c, 4, 66, 0
6, 325363, Note_on_c, 4, 66, 109
6, 325397, Note_on_c, 4, 66, 0
6, 325427, Note_on_c, 4, 66, 104
6, 325507, Note_on_c, 4, 66, 0
6, 325557, Note_on_c, 4, 66, 127
6, 325599, Note_on_c, 4, 66, 0
6, 325821, Note_on_c, 4, 64, 114
6, 325905, Note_on_c, 4, 64, 0
6, 327245, Note_on_c, 4, 67, 29
6, 328488, Note_on_c, 4, 67, 0
6, 328889, Note_on_c, 4, 67, 24
6, 330062, Note_on_c, 4, 67, 0
6, 330334, Note_on_c, 4, 73, 121
6, 330368, Note_on_c, 4, 73, 0
6, 330395, Note_on_c, 4, 73, 98
6, 330474, Note_on_c, 4, 73, 0
6, 330495, Note_on_c, 4, 73, 110
6, 330536, Note_on_c, 4, 73, 0
6, 330582, Note_on_c, 4, 71, 118
6, 330616, Note_on_c, 4, 71, 0
6, 330643, Note_on_c, 4, 71, 94
6, 330720, Note_on_c, 4, 71, 0
6, 330743, Note_on_c, 4, 71, 98
6, 330781, Note_on_c, 4, 71, 0
6, 330800, Note_on_c, 4, 71, 117
6, 330836, Note_on_c, 4, 71, 0
6, 330856, Note_on_c, 4, 71, 104
6, 330893, Note_on_c, 4, 71, 0
6, 330914, Note_on_c, 4, 71, 100
6, 330951, Note_on_c, 4, 71, 0
6, 330966, Note_on_c, 4, 71, 89
6, 331001, Note_on_c, 4, 71, 0
6, 331032, Note_on_c, 4, 71, 106
6, 331065, Note_on_c, 4, 71, 0
6, 331084, Note_on_c, 4, 71, 100
6, 331121, Note_on_c, 4, 71, 0
6, 331147, Note_on_c, 4, 71, 94
6, 331184, Note_on_c, 4, 71, 0
6, 331194, Note_on_c, 4, 71, 45
6, 331236, Note_on_c, 4, 71, 0
6, 331262, Note_on_c, 4, 71, 112
6, 331299, Note_on_c, 4, 71, 0
6, 331318, Note_on_c, 4, 71, 106
6, 331357, Note_on_c, 4, 71, 0
6, 331376, Note_on_c, 4, 71, 103
6, 331410, Note_on_c, 4, 71, 0
6, 331430, Note_on_c, 4, 71, 98
6, 331465, Note_on_c, 4, 71, 0
6, 331494, Note_on_c, 4, 71, 107
6, 331579, Note_on_c, 4, 71, 0
6, 331605, Note_on_c, 4, 71, 93
6, 331691, Note_on_c, 4, 71, 0
6, 331729, Note_on_c, 4, 71, 108
6, 331767, Note_on_c, 4, 71, 0
6, 331779, Note_on_c, 4, 71, 71
6, 331816, Note_on_c, 4, 71, 0
6, 331839, Note_on_c, 4, 71, 94
6, 331921, Note_on_c, 4, 71, 0
6, 331976, Note_on_c, 4, 71, 109
6, 332009, Note_on_c, 4, 71, 0
6, 332033, Note_on_c, 4, 71, 85
6, 332061, Note_on_c, 4, 71, 0
6, 332084, Note_on_c, 4, 71, 99
6, 332121, Note_on_c, 4, 71, 0
6, 332143, Note_on_c, 4, 71, 97
6, 332185, Note_on_c, 4, 71, 0
6, 332233, Note_on_c, 4, 71, 127
6, 332270, Note_on_c, 4, 71, 0
6, 332298, Note_on_c, 4, 71, 93
6, 332368, Note_on_c, 4, 71, 0
6, 332399, Note_on_c, 4, 71, 91
6, 332437, Note_on_c, 4, 71, 0
6, 332460, Note_on_c, 4, 71, 101
6, 332495, Note_on_c, 4, 71, 0
6, 332513, Note_on_c, 4, 71, 84
6, 332545, Note_on_c, 4, 71, 0
6, 332572, Note_on_c, 4, 71, 96
6, 332643, Note_on_c, 4, 71, 0
6, 332677, Note_on_c, 4, 71, 118
6, 332714, Note_on_c, 4, 71, 0
6, 332735, Note_on_c, 4, 71, 96
6, 332764, Note_on_c, 4, 71, 0
6, 332788, Note_on_c, 4, 71, 91
6, 332810, Note_on_c, 4, 71, 0
6, 332832, Note_on_c, 4, 71, 90
6, 332866, Note_on_c, 4, 71, 0
6, 332904, Note_on_c, 4, 71, 122
6, 332945, Note_on_c, 4, 71, 0
6, 332954, Note_on_c, 4, 71, 61
6, 332987, Note_on_c, 4, 71, 0
6, 333010, Note_on_c, 4, 71, 102
6, 333048, Note_on_c, 4, 71, 0
6, 333063, Note_on_c, 4, 71, 68
6, 333096, Note_on_c, 4, 71, 0
6, 333136, Note_on_c, 4, 71, 107
6, 333171, Note_on_c, 4, 71, 0
6, 333182, Note_on_c, 4, 71, 52
6, 333218, Note_on_c, 4, 71, 0
6, 333248, Note_on_c, 4, 71, 92
6, 333285, Note_on_c, 4, 71, 0
6, 333300, Note_on_c, 4, 71, 78
6, 333330, Note_on_c, 4, 71, 0
6, 333379, Note_on_c, 4, 64, 120
6, 333413, Note_on_c, 4, 64, 0
6, 333435, Note_on_c, 4, 64, 87
6, 333470, Note_on_c, 4, 64, 0
6, 333485, Note_on_c, 4, 64, 94
6, 333521, Note_on_c, 4, 64, 0
6, 333536, Note_on_c, 4, 64, 83
6, 333574, Note_on_c, 4, 64, 0
6, 333608, Note_on_c, 4, 64, 116
6, 333643, Note_on_c, 4, 64, 0
6, 333661, Note_on_c, 4, 64, 92
6, 333698, Note_on_c, 4, 64, 0
6, 333718, Note_on_c, 4, 64, 101
6, 333750, Note_on_c, 4, 64, 0
6, 333761, Note_on_c, 4, 64, 52
6, 333803, Note_on_c, 4, 64, 0
6, 333859, Note_on_c, 4, 72, 122
6, 333898, Note_on_c, 4, 72, 0
6, 333913, Note_on_c, 4, 72, 87
6, 333948, Note_on_c, 4, 72, 0
6, 333957, Note_on_c, 4, 72, 72
6, 333991, Note_on_c, 4, 72, 0
6, 334000, Note_on_c, 4, 72, 60
6, 334037, Note_on_c, 4, 72, 0
6, 334074, Note_on_c, 4, 66, 114
6, 334103, Note_on_c, 4, 66, 0
6, 334115, Note_on_c, 4, 66, 88
6, 334140, Note_on_c, 4, 66, 0
6, 334170, Note_on_c, 4, 66, 88
6, 334234, Note_on_c, 4, 66, 0
6, 334288, Note_on_c, 4, 67, 118
6, 334325, Note_on_c, 4, 67, 0
6, 334346, Note_on_c, 4, 67, 94
6, 334410, Note_on_c, 4, 67, 0
6, 334431, Note_on_c, 4, 67, 98
6, 334465, Note_on_c, 4, 67, 0
6, 334517, Note_on_c, 4, 76, 126
6, 334550, Note_on_c, 4, 76, 0
6, 334576, Note_on_c, 4, 76, 89
6, 334646, Note_on_c, 4, 76, 0
6, 334667, Note_on_c, 4, 76, 102
6, 334704, Note_on_c, 4, 76, 0
6, 334741, Note_on_c, 4, 76, 127
6, 334779, Note_on_c, 4, 76, 0
6, 334801, Note_on_c, 4, 76, 102
6, 334879, Note_on_c, 4, 76, 0
6, 334902, Note_on_c, 4, 76, 99
6, 334940, Note_on_c, 4, 76, 0
6, 334985, Note_on_c, 4, 71, 121
6, 335070, Note_on_c, 4, 71, 0
6, 335095, Note_on_c, 4, 71, 99
6, 335135, Note_on_c, 4, 71, 0
6, 335152, Note_on_c, 4, 71, 97
6, 335190, Note_on_c, 4, 71, 0
6, 335213, Note_on_c, 4, 71, 111
6, 335249, Note_on_c, 4, 71, 0
6, 335259, Note_on_c, 4, 71, 85
6, 335296, Note_on_c, 4, 71, 0
6, 335317, Note_on_c, 4, 71, 99
6, 335354, Note_on_c, 4, 71, 0
6, 335366, Note_on_c, 4, 71, 94
6, 335407, Note_on_c, 4, 71, 0
6, 335448, Note_on_c, 4, 71, 124
6, 335482, Note_on_c, 4, 71, 0
6, 335500, Note_on_c, 4, 71, 108
6, 335537, Note_on_c, 4, 71, 0
6, 335555, Note_on_c, 4, 71, 109
6, 335589, Note_on_c, 4, 71, 0
6, 335609, Note_on_c, 4, 71, 100
6, 335645, Note_on_c, 4, 71, 0
6, 335688, Note_on_c, 4, 71, 124
6, 335767, Note_on_c, 4, 71, 0
6, 335801, Note_on_c, 4, 71, 100
6, 335834, Note_on_c, 4, 71, 0
6, 335854, Note_on_c, 4, 71, 97
6, 335891, Note_on_c, 4, 71, 0
6, 335934, Note_on_c, 4, 71, 118
6, 336009, Note_on_c, 4, 71, 0
6, 336046, Note_on_c, 4, 71, 93
6, 336115, Note_on_c, 4, 71, 0
6, 336188, Note_on_c, 4, 71, 124
6, 336254, Note_on_c, 4, 71, 0
6, 336343, Control_c, 4, 11, 100
6, 336343, Note_on_c, 4, 64, 96
6, 336386, Note_on_c, 4, 64, 0
6, 336479, Note_on_c, 4, 64, 76
6, 336597, Note_on_c, 4, 62, 73
6, 336628, Note_on_c, 4, 64, 0
6, 336717, Note_on_c, 4, 60, 73
6, 336727, Note_on_c, 4, 62, 0
6, 336834, Note_on_c, 4, 59, 64
6, 336855, Note_on_c, 4, 60, 0
6, 336968, Note_on_c, 4, 59, 0
6, 336969, Note_on_c, 4, 60, 72
6, 337035, Note_on_c, 4, 60, 0
6, 337082, Note_on_c, 4, 64, 82
6, 337137, Note_on_c, 4, 64, 0
6, 337208, Note_on_c, 4, 64, 82
6, 337316, Note_on_c, 4, 62, 79
6, 337330, Note_on_c, 4, 64, 0
6, 337440, Note_on_c, 4, 60, 70
6, 337441, Note_on_c, 4, 62, 0
6, 337552, Note_on_c, 4, 59, 60
6, 337570, Note_on_c, 4, 60, 0
6, 337709, Note_on_c, 4, 57, 51
6, 337754, Note_on_c, 4, 59, 0
6, 337862, Note_on_c, 4, 57, 0
6, 337920, Control_c, 4, 11, 80
6, 338160, Program_c, 4, 45
6, 338160, Control_c, 4, 91, 120
6, 338238, Note_on_c, 4, 57, 50
6, 338295, Note_on_c, 4, 57, 0
6, 338501, Note_on_c, 4, 55, 46
6, 338544, Note_on_c, 4, 55, 0
6, 338993, Note_on_c, 4, 63, 54
6, 339024, Note_on_c, 4, 63, 0
6, 339242, Note_on_c, 4, 64, 46
6, 339282, Note_on_c, 4, 64, 0
6, 339600, Program_c, 4, 49
6, 339600, Control_c, 4, 91, 60
6, 339787, Note_on_c, 4, 62, 43
6, 340051, Note_on_c, 4, 60, 43
6, 340117, Note_on_c, 4, 62, 0
6, 340552, Note_on_c, 4, 64, 49
6, 340561, Note_on_c, 4, 60, 0
6, 341068, Note_on_c, 4, 64, 0
6, 343637, Note_on_c, 4, 60, 31
6, 344161, Note_on_c, 4, 60, 0
6, 347040, Control_c, 4, 11, 80
6, 347112, Control_c, 4, 11, 81
6, 347184, Control_c, 4, 11, 82
6, 347256, Control_c, 4, 11, 83
6, 347328, Control_c, 4, 11, 84
6, 347400, Control_c, 4, 11, 85
6, 347472, Control_c, 4, 11, 86
6, 347544, Control_c, 4, 11, 87
6, 347616, Control_c, 4, 11, 88
6, 347688, Control_c, 4, 11, 89
6, 347760, Control_c, 4, 11, 90
6, 347832, Control_c, 4, 11, 91
6, 347904, Control_c, 4, 11, 92
6, 347976, Control_c, 4, 11, 93
6, 348048, Control_c, 4, 11, 94
6, 348120, Control_c, 4, 11, 95
6, 348192, Control_c, 4, 11, 96
6, 348264, Control_c, 4, 11, 97
6, 348336, Control_c, 4, 11, 98
6, 348408, Control_c, 4, 11, 99
6, 348479, Control_c, 4, 11, 100
6, 349200, Control_c, 4, 11, 100
6, 349265, Control_c, 4, 11, 99
6, 349329, Control_c, 4, 11, 98
6, 349393, Control_c, 4, 11, 97
6, 349457, Control_c, 4, 11, 96
6, 349521, Control_c, 4, 11, 95
6, 349585, Control_c, 4, 11, 94
6, 349649, Control_c, 4, 11, 93
6, 349713, Control_c, 4, 11, 92
6, 349777, Control_c, 4, 11, 91
6, 349841, Control_c, 4, 11, 90
6, 349905, Control_c, 4, 11, 89
6, 349969, Control_c, 4, 11, 88
6, 350033, Control_c, 4, 11, 87
6, 350097, Control_c, 4, 11, 86
6, 350161, Control_c, 4, 11, 85
6, 350225, Control_c, 4, 11, 84
6, 350289, Control_c, 4, 11, 83
6, 350353, Control_c, 4, 11, 82
6, 350417, Control_c, 4, 11, 81
6, 350481, Control_c, 4, 11, 80
6, 350482, Note_on_c, 4, 59, 39
6, 350585, Control_c, 4, 11, 79
6, 350689, Control_c, 4, 11, 78
6, 350793, Control_c, 4, 11, 77
6, 350897, Control_c, 4, 11, 76
6, 351001, Control_c, 4, 11, 75
6, 351105, Control_c, 4, 11, 74
6, 351209, Control_c, 4, 11, 73
6, 351313, Control_c, 4, 11, 72
6, 351417, Control_c, 4, 11, 71
6, 351520, Control_c, 4, 11, 70
6, 351624, Control_c, 4, 11, 69
6, 351728, Control_c, 4, 11, 68
6, 351816, Note_on_c, 4, 60, 35
6, 351832, Control_c, 4, 11, 67
6, 351845, Note_on_c, 4, 59, 0
6, 351936, Control_c, 4, 11, 66
6, 352040, Control_c, 4, 11, 65
6, 352070, Note_on_c, 4, 60, 0
6, 352113, Note_on_c, 4, 60, 32
6, 352144, Control_c, 4, 11, 64
6, 352248, Control_c, 4, 11, 63
6, 352352, Control_c, 4, 11, 62
6, 352433, Note_on_c, 4, 60, 0
6, 352456, Control_c, 4, 11, 61
6, 352559, Control_c, 4, 11, 60
6, 355005, Note_on_c, 4, 60, 55
6, 355681, Note_on_c, 4, 60, 0
6, 356114, Note_on_c, 4, 62, 47
6, 357736, Note_on_c, 4, 62, 0
6, 359713, Note_on_c, 4, 62, 59
6, 360982, Note_on_c, 4, 60, 52
6, 361052, Note_on_c, 4, 62, 0
6, 361441, Note_on_c, 4, 60, 0
6, 361982, Note_on_c, 4, 62, 60
6, 362493, Note_on_c, 4, 60, 51
6, 362589, Note_on_c, 4, 62, 0
6, 362881, Note_on_c, 4, 60, 0
6, 365050, Note_on_c, 4, 62, 68
6, 366561, Note_on_c, 4, 62, 0
6, 367288, Note_on_c, 4, 61, 86
6, 369318, Note_on_c, 4, 61, 0
6, 381586, Control_c, 4, 11, 60
6, 381586, Note_on_c, 4, 53, 56
6, 381687, Control_c, 4, 11, 59
6, 381788, Control_c, 4, 11, 58
6, 381888, Control_c, 4, 11, 57
6, 381989, Control_c, 4, 11, 56
6, 382089, Control_c, 4, 11, 55
6, 382190, Control_c, 4, 11, 54
6, 382290, Control_c, 4, 11, 53
6, 382391, Control_c, 4, 11, 52
6, 382491, Control_c, 4, 11, 51
6, 382592, Control_c, 4, 11, 50
6, 382692, Control_c, 4, 11, 49
6, 382793, Control_c, 4, 11, 48
6, 382893, Control_c, 4, 11, 47
6, 382994, Control_c, 4, 11, 46
6, 383094, Control_c, 4, 11, 45
6, 383195, Control_c, 4, 11, 44
6, 383295, Control_c, 4, 11, 43
6, 383396, Control_c, 4, 11, 42
6, 383496, Control_c, 4, 11, 41
6, 383597, Control_c, 4, 11, 40
6, 383697, Control_c, 4, 11, 39
6, 383698, Note_on_c, 4, 52, 87
6, 383750, Note_on_c, 4, 53, 0
6, 383868, Note_on_c, 4, 52, 0
6, 384480, Control_c, 4, 11, 100
6, 384480, Program_c, 4, 45
6, 384480, Control_c, 4, 91, 120
6, 384571, Note_on_c, 4, 66, 60
6, 384595, Note_on_c, 4, 66, 0
6, 384736, Note_on_c, 4, 64, 52
6, 384768, Note_on_c, 4, 64, 0
6, 385362, Note_on_c, 4, 66, 62
6, 385387, Note_on_c, 4, 66, 0
6, 385526, Note_on_c, 4, 64, 59
6, 385561, Note_on_c, 4, 64, 0
6, 387257, Note_on_c, 4, 65, 60
6, 387299, Note_on_c, 4, 65, 0
6, 387999, Note_on_c, 4, 65, 55
6, 388033, Note_on_c, 4, 65, 0
6, 388164, Note_on_c, 4, 65, 76
6, 388208, Note_on_c, 4, 65, 0
6, 388847, Note_on_c, 4, 65, 50
6, 388879, Note_on_c, 4, 65, 0
6, 388984, Note_on_c, 4, 65, 80
6, 389029, Note_on_c, 4, 65, 0
6, 395280, Program_c, 4, 49
6, 395280, Control_c, 4, 91, 60
6, 395823, Note_on_c, 4, 63, 84
6, 396353, Note_on_c, 4, 64, 76
6, 396388, Note_on_c, 4, 63, 0
6, 396626, Note_on_c, 4, 66, 91
6, 396675, Note_on_c, 4, 64, 0
6, 396887, Note_on_c, 4, 68, 89
6, 396917, Note_on_c, 4, 66, 0
6, 397165, Note_on_c, 4, 61, 99
6, 397190, Note_on_c, 4, 68, 0
6, 397458, Note_on_c, 4, 61, 0
6, 397464, Note_on_c, 4, 63, 101
6, 400910, Note_on_c, 4, 64, 76
6, 400949, Note_on_c, 4, 63, 0
6, 401261, Note_on_c, 4, 64, 0
6, 403596, Note_on_c, 4, 61, 77
6, 404528, Note_on_c, 4, 59, 74
6, 404538, Note_on_c, 4, 61, 0
6, 404640, Program_c, 4, 45
6, 404640, Control_c, 4, 91, 120
6, 404814, Note_on_c, 4, 59, 0
6, 405318, Note_on_c, 4, 54, 68
6, 405347, Note_on_c, 4, 54, 0
6, 405493, Note_on_c, 4, 54, 62
6, 405534, Note_on_c, 4, 54, 0
6, 406177, Note_on_c, 4, 54, 52
6, 406206, Note_on_c, 4, 54, 0
6, 406333, Note_on_c, 4, 54, 67
6, 406373, Note_on_c, 4, 54, 0
6, 408088, Note_on_c, 4, 54, 72
6, 408152, Note_on_c, 4, 54, 0
6, 408881, Note_on_c, 4, 54, 67
6, 408908, Note_on_c, 4, 54, 0
6, 409045, Note_on_c, 4, 54, 82
6, 409081, Note_on_c, 4, 54, 0
6, 409710, Note_on_c, 4, 54, 75
6, 409747, Note_on_c, 4, 54, 0
6, 409879, Note_on_c, 4, 54, 82
6, 409916, Note_on_c, 4, 54, 0
6, 416880, Program_c, 4, 49
6, 416880, Control_c, 4, 91, 120
6, 417258, Note_on_c, 4, 58, 73
6, 417829, Note_on_c, 4, 59, 76
6, 417869, Note_on_c, 4, 58, 0
6, 418115, Note_on_c, 4, 61, 88
6, 418181, Note_on_c, 4, 59, 0
6, 418404, Note_on_c, 4, 63, 98
6, 418450, Note_on_c, 4, 61, 0
6, 418688, Note_on_c, 4, 61, 98
6, 418731, Note_on_c, 4, 63, 0
6, 418936, Note_on_c, 4, 61, 0
6, 419000, Note_on_c, 4, 61, 106
6, 421993, Note_on_c, 4, 61, 0
6, 422008, Note_on_c, 4, 59, 92
6, 422338, Note_on_c, 4, 58, 94
6, 422389, Note_on_c, 4, 59, 0
6, 422661, Note_on_c, 4, 56, 99
6, 422703, Note_on_c, 4, 58, 0
6, 423251, Note_on_c, 4, 56, 0
6, 423282, Note_on_c, 4, 59, 98
6, 425678, Note_on_c, 4, 57, 79
6, 425702, Note_on_c, 4, 59, 0
6, 426027, Note_on_c, 4, 56, 88
6, 426080, Note_on_c, 4, 57, 0
6, 426362, Note_on_c, 4, 54, 95
6, 426430, Note_on_c, 4, 56, 0
6, 426732, Note_on_c, 4, 54, 0
6, 428012, Note_on_c, 4, 66, 85
6, 428282, Note_on_c, 4, 66, 0
6, 428315, Note_on_c, 4, 66, 82
6, 429185, Note_on_c, 4, 66, 0
6, 429195, Note_on_c, 4, 67, 88
6, 429780, Note_on_c, 4, 69, 85
6, 429785, Note_on_c, 4, 62, 84
6, 429810, Note_on_c, 4, 67, 0
6, 430061, Note_on_c, 4, 62, 0
6, 430132, Note_on_c, 4, 62, 87
6, 430176, Note_on_c, 4, 69, 0
6, 431020, Note_on_c, 4, 64, 96
6, 431022, Note_on_c, 4, 62, 0
6, 431590, Note_on_c, 4, 59, 81
6, 431639, Note_on_c, 4, 64, 0
6, 432239, Note_on_c, 4, 59, 0
6, 433371, Note_on_c, 4, 54, 88
6, 433892, Note_on_c, 4, 54, 0
6, 434231, Note_on_c, 4, 54, 90
6, 434514, Note_on_c, 4, 56, 94
6, 434556, Note_on_c, 4, 54, 0
6, 434720, Note_on_c, 4, 56, 0
6, 435069, Note_on_c, 4, 56, 90
6, 435382, Note_on_c, 4, 56, 0
6, 435400, Note_on_c, 4, 54, 116
6, 435638, Note_on_c, 4, 54, 0
6, 436352, Note_on_c, 4, 57, 112
6, 436581, Note_on_c, 4, 57, 0
6, 437293, Note_on_c, 4, 57, 107
6, 437538, Note_on_c, 4, 57, 0
6, 438229, Note_on_c, 4, 57, 70
6, 439121, Note_on_c, 4, 54, 86
6, 439182, Note_on_c, 4, 57, 0
6, 440173, Note_on_c, 4, 55, 103
6, 440209, Note_on_c, 4, 54, 0
6, 442190, Note_on_c, 4, 55, 0
6, 442422, Note_on_c, 4, 55, 90
6, 442760, Note_on_c, 4, 54, 60
6, 442804, Note_on_c, 4, 55, 0
6, 443712, Note_on_c, 4, 55, 63
6, 443722, Note_on_c, 4, 54, 0
6, 444510, Note_on_c, 4, 56, 81
6, 444547, Note_on_c, 4, 55, 0
6, 445294, Note_on_c, 4, 57, 97
6, 445327, Note_on_c, 4, 56, 0
6, 446968, Note_on_c, 4, 57, 0
6, 447120, Program_c, 4, 45
6, 447120, Control_c, 4, 91, 120
6, 447780, Note_on_c, 4, 54, 54
6, 447824, Note_on_c, 4, 54, 0
6, 449306, Note_on_c, 4, 59, 64
6, 449343, Note_on_c, 4, 59, 0
6, 450061, Note_on_c, 4, 59, 68
6, 450103, Note_on_c, 4, 59, 0
6, 450849, Note_on_c, 4, 54, 72
6, 450890, Note_on_c, 4, 54, 0
6, 452160, Program_c, 4, 49
6, 452160, Control_c, 4, 91, 60
6, 452182, Note_on_c, 4, 59, 127
6, 452220, Note_on_c, 4, 60, 99
6, 452221, Note_on_c, 4, 59, 0
6, 452242, Note_on_c, 4, 59, 88
6, 452255, Note_on_c, 4, 60, 0
6, 452282, Note_on_c, 4, 60, 96
6, 452285, Note_on_c, 4, 59, 0
6, 452310, Note_on_c, 4, 59, 91
6, 452342, Note_on_c, 4, 60, 0
6, 452355, Note_on_c, 4, 58, 109
6, 452367, Note_on_c, 4, 59, 0
6, 452397, Note_on_c, 4, 59, 101
6, 452415, Note_on_c, 4, 58, 0
6, 452476, Note_on_c, 4, 59, 0
6, 452485, Note_on_c, 4, 59, 117
6, 452564, Note_on_c, 4, 59, 0
6, 452757, Note_on_c, 4, 59, 126
6, 452873, Note_on_c, 4, 59, 0
6, 453025, Note_on_c, 4, 55, 88
6, 453137, Note_on_c, 4, 55, 0
6, 453331, Note_on_c, 4, 54, 103
6, 453436, Note_on_c, 4, 54, 0
6, 453610, Note_on_c, 4, 66, 100
6, 453697, Note_on_c, 4, 66, 0
6, 453904, Note_on_c, 4, 65, 101
6, 454036, Note_on_c, 4, 65, 0
6, 454198, Note_on_c, 4, 64, 96
6, 454298, Note_on_c, 4, 64, 0
6, 454490, Note_on_c, 4, 64, 96
6, 454493, Note_on_c, 4, 57, 77
6, 454590, Note_on_c, 4, 57, 0
6, 454625, Note_on_c, 4, 64, 0
6, 454771, Note_on_c, 4, 67, 89
6, 454773, Note_on_c, 4, 55, 77
6, 454853, Note_on_c, 4, 55, 0
6, 454865, Note_on_c, 4, 67, 0
6, 455061, Note_on_c, 4, 67, 89
6, 455062, Note_on_c, 4, 55, 77
6, 455179, Note_on_c, 4, 55, 0
6, 455238, Note_on_c, 4, 67, 0
6, 455363, Note_on_c, 4, 59, 76
6, 455367, Note_on_c, 4, 66, 88
6, 455429, Note_on_c, 4, 59, 0
6, 455446, Note_on_c, 4, 66, 0
6, 455636, Note_on_c, 4, 66, 113
6, 455641, Note_on_c, 4, 59, 96
6, 455803, Note_on_c, 4, 59, 0
6, 455899, Note_on_c, 4, 66, 0
6, 455930, Note_on_c, 4, 64, 90
6, 456036, Note_on_c, 4, 64, 0
6, 456228, Note_on_c, 4, 69, 98
6, 456518, Note_on_c, 4, 69, 0
6, 456525, Note_on_c, 4, 67, 65
6, 456659, Note_on_c, 4, 67, 0
6, 456805, Note_on_c, 4, 65, 103
6, 457091, Note_on_c, 4, 64, 76
6, 457095, Note_on_c, 4, 65, 0
6, 457233, Note_on_c, 4, 64, 0
6, 457389, Note_on_c, 4, 64, 90
6, 457646, Note_on_c, 4, 64, 0
6, 457698, Note_on_c, 4, 59, 83
6, 457815, Note_on_c, 4, 59, 0
6, 458012, Note_on_c, 4, 59, 76
6, 458104, Note_on_c, 4, 59, 0
6, 458309, Note_on_c, 4, 59, 73
6, 458401, Note_on_c, 4, 59, 0
6, 458582, Note_on_c, 4, 61, 78
6, 458869, Note_on_c, 4, 61, 0
6, 458880, Note_on_c, 4, 63, 59
6, 459051, Note_on_c, 4, 63, 0
6, 459177, Note_on_c, 4, 64, 107
6, 459181, Note_on_c, 4, 59, 93
6, 459406, Note_on_c, 4, 64, 0
6, 459425, Note_on_c, 4, 59, 0
6, 459463, Note_on_c, 4, 64, 100
6, 459465, Note_on_c, 4, 57, 98
6, 459597, Note_on_c, 4, 64, 0
6, 459601, Note_on_c, 4, 57, 0
6, 459768, Note_on_c, 4, 57, 92
6, 459879, Note_on_c, 4, 57, 0
6, 460057, Note_on_c, 4, 60, 106
6, 460081, Note_on_c, 4, 60, 0
6, 460352, Note_on_c, 4, 59, 101
6, 460458, Note_on_c, 4, 59, 0
6, 460639, Note_on_c, 4, 64, 107
6, 460768, Note_on_c, 4, 64, 0
6, 460926, Note_on_c, 4, 61, 113
6, 461036, Note_on_c, 4, 61, 0
6, 461219, Note_on_c, 4, 60, 104
6, 461349, Note_on_c, 4, 60, 0
6, 461508, Note_on_c, 4, 60, 96
6, 461513, Note_on_c, 4, 48, 83
6, 461521, Note_on_c, 4, 60, 0
6, 461599, Note_on_c, 4, 48, 0
6, 461800, Note_on_c, 4, 48, 107
6, 461806, Note_on_c, 4, 60, 106
6, 461878, Note_on_c, 4, 48, 0
6, 461891, Note_on_c, 4, 60, 0
6, 462078, Note_on_c, 4, 57, 103
6, 462362, Note_on_c, 4, 59, 72
6, 462368, Note_on_c, 4, 57, 0
6, 462583, Note_on_c, 4, 59, 0
6, 462910, Note_on_c, 4, 58, 101
6, 463114, Note_on_c, 4, 58, 0
6, 463827, Note_on_c, 4, 67, 30
6, 465036, Note_on_c, 4, 67, 0
6, 465870, Note_on_c, 4, 61, 119
6, 465946, Note_on_c, 4, 61, 0
6, 466162, Note_on_c, 4, 63, 119
6, 466219, Note_on_c, 4, 63, 0
6, 466456, Note_on_c, 4, 55, 109
6, 466484, Note_on_c, 4, 64, 100
6, 466562, Note_on_c, 4, 55, 0
6, 466583, Note_on_c, 4, 64, 0
6, 467419, Note_on_c, 4, 67, 39
6, 468740, Note_on_c, 4, 67, 0
6, 469563, Note_on_c, 4, 61, 105
6, 469650, Note_on_c, 4, 61, 0
6, 469843, Note_on_c, 4, 63, 108
6, 469960, Note_on_c, 4, 63, 0
6, 470132, Note_on_c, 4, 64, 97
6, 470133, Note_on_c, 4, 61, 107
6, 470227, Note_on_c, 4, 61, 0
6, 470239, Note_on_c, 4, 64, 0
6, 470421, Note_on_c, 4, 64, 81
6, 470423, Note_on_c, 4, 61, 84
6, 470502, Note_on_c, 4, 61, 0
6, 470520, Note_on_c, 4, 64, 0
6, 470700, Note_on_c, 4, 64, 90
6, 470702, Note_on_c, 4, 61, 84
6, 470780, Note_on_c, 4, 61, 0
6, 470794, Note_on_c, 4, 64, 0
6, 471006, Note_on_c, 4, 64, 96
6, 471007, Note_on_c, 4, 61, 104
6, 471091, Note_on_c, 4, 61, 0
6, 471100, Note_on_c, 4, 64, 0
6, 471300, Note_on_c, 4, 69, 100
6, 471303, Note_on_c, 4, 66, 104
6, 471393, Note_on_c, 4, 66, 0
6, 471397, Note_on_c, 4, 69, 0
6, 471618, Note_on_c, 4, 64, 97
6, 471706, Note_on_c, 4, 64, 0
6, 472051, Note_on_c, 4, 69, 77
6, 472054, Note_on_c, 4, 64, 81
6, 472810, Note_on_c, 4, 69, 0
6, 472815, Note_on_c, 4, 64, 0
6, 473187, Note_on_c, 4, 54, 30
6, 474470, Note_on_c, 4, 55, 30
6, 474490, Note_on_c, 4, 54, 0
6, 474733, Note_on_c, 4, 55, 0
6, 489600, Control_c, 4, 11, 80
6, 489795, Note_on_c, 4, 52, 52
6, 490571, Note_on_c, 4, 54, 60
6, 490585, Note_on_c, 4, 52, 0
6, 492076, Note_on_c, 4, 54, 0
6, 494366, Note_on_c, 4, 59, 58
6, 496150, Note_on_c, 4, 62, 80
6, 496151, Note_on_c, 4, 59, 0
6, 496596, Note_on_c, 4, 60, 73
6, 496658, Note_on_c, 4, 62, 0
6, 496801, Note_on_c, 4, 60, 0
6, 497835, Note_on_c, 4, 59, 81
6, 500404, Note_on_c, 4, 57, 69
6, 500442, Note_on_c, 4, 59, 0
6, 501255, Note_on_c, 4, 53, 73
6, 501300, Note_on_c, 4, 57, 0
6, 501617, Note_on_c, 4, 55, 75
6, 501659, Note_on_c, 4, 53, 0
6, 502075, Note_on_c, 4, 55, 0
6, 506243, Note_on_c, 4, 59, 74
6, 506798, Note_on_c, 4, 59, 0
6, 508467, Note_on_c, 4, 53, 76
6, 508707, Note_on_c, 4, 54, 88
6, 508733, Note_on_c, 4, 53, 0
6, 509881, Note_on_c, 4, 54, 0
6, 512259, Note_on_c, 4, 54, 77
6, 512805, Note_on_c, 4, 54, 0
6, 513977, Note_on_c, 4, 54, 88
6, 515374, Note_on_c, 4, 54, 0
6, 515377, Note_on_c, 4, 59, 88
6, 515851, Note_on_c, 4, 59, 0
6, 517119, Note_on_c, 4, 64, 83
6, 517551, Note_on_c, 4, 64, 0
6, 518802, Note_on_c, 4, 61, 101
6, 519073, Note_on_c, 4, 60, 104
6, 519109, Note_on_c, 4, 61, 0
6, 519121, Note_on_c, 4, 60, 0
6, 519418, Note_on_c, 4, 60, 108
6, 519841, Note_on_c, 4, 60, 0
6, 520412, Note_on_c, 4, 69, 91
6, 520742, Note_on_c, 4, 69, 0
6, 522388, Note_on_c, 4, 66, 81
6, 522689, Note_on_c, 4, 67, 84
6, 522715, Note_on_c, 4, 66, 0
6, 523165, Note_on_c, 4, 64, 91
6, 523197, Note_on_c, 4, 67, 0
6, 523436, Note_on_c, 4, 66, 98
6, 523482, Note_on_c, 4, 64, 0
6, 523920, Note_on_c, 4, 63, 106
6, 523930, Note_on_c, 4, 66, 0
6, 524230, Note_on_c, 4, 64, 97
6, 524282, Note_on_c, 4, 63, 0
6, 524671, Note_on_c, 4, 64, 0
6, 524752, Note_on_c, 4, 57, 102
6, 525696, Note_on_c, 4, 62, 106
6, 525735, Note_on_c, 4, 57, 0
6, 525995, Note_on_c, 4, 62, 0
6, 529339, Note_on_c, 4, 57, 76
6, 531766, Note_on_c, 4, 60, 93
6, 531806, Note_on_c, 4, 57, 0
6, 532081, Note_on_c, 4, 60, 0
6, 534378, Note_on_c, 4, 57, 44
6, 536878, Note_on_c, 4, 57, 0
6, 555120, Program_c, 4, 45
6, 555120, Control_c, 4, 91, 120
6, 557738, Note_on_c, 4, 57, 53
6, 557788, Note_on_c, 4, 57, 0
6, 558019, Note_on_c, 4, 57, 71
6, 558062, Note_on_c, 4, 57, 0
6, 558369, Note_on_c, 4, 58, 57
6, 558443, Note_on_c, 4, 58, 0
6, 559933, Note_on_c, 4, 62, 65
6, 559963, Note_on_c, 4, 62, 0
6, 560241, Note_on_c, 4, 62, 59
6, 560286, Note_on_c, 4, 62, 0
6, 560880, Program_c, 4, 49
6, 560880, Control_c, 4, 91, 60
6, 563175, Note_on_c, 4, 57, 57
6, 563563, Note_on_c, 4, 62, 88
6, 563605, Note_on_c, 4, 57, 0
6, 563939, Note_on_c, 4, 62, 0
6, 563985, Note_on_c, 4, 62, 76
6, 567799, Note_on_c, 4, 62, 0
6, 567818, Note_on_c, 4, 55, 68
6, 569749, Note_on_c, 4, 55, 0
6, 569772, Note_on_c, 4, 52, 72
6, 571165, Note_on_c, 4, 52, 0
6, 571165, Note_on_c, 4, 64, 69
6, 572043, Note_on_c, 4, 57, 75
6, 572063, Note_on_c, 4, 64, 0
6, 572552, Note_on_c, 4, 57, 0
6, 573139, Note_on_c, 4, 57, 65
6, 574270, Note_on_c, 4, 55, 69
6, 574282, Note_on_c, 4, 57, 0
6, 576070, Note_on_c, 4, 54, 72
6, 576179, Note_on_c, 4, 55, 0
6, 577998, Note_on_c, 4, 55, 68
6, 578025, Note_on_c, 4, 54, 0
6, 578215, Note_on_c, 4, 55, 0
6, 578459, Note_on_c, 4, 54, 88
6, 578940, Note_on_c, 4, 52, 75
6, 578962, Note_on_c, 4, 54, 0
6, 580187, Note_on_c, 4, 52, 0
6, 580859, Note_on_c, 4, 64, 82
6, 581174, Note_on_c, 4, 64, 0
6, 581699, Note_on_c, 4, 65, 96
6, 581991, Note_on_c, 4, 65, 0
6, 582693, Note_on_c, 4, 64, 90
6, 583099, Note_on_c, 4, 64, 0
6, 583986, Note_on_c, 4, 55, 94
6, 585091, Note_on_c, 4, 54, 83
6, 585160, Note_on_c, 4, 55, 0
6, 585522, Note_on_c, 4, 54, 0
6, 587612, Note_on_c, 4, 54, 66
6, 589584, Note_on_c, 4, 52, 60
6, 589599, Note_on_c, 4, 54, 0
6, 589738, Note_on_c, 4, 52, 0
6, 602239, Note_on_c, 4, 54, 78
6, 602610, Note_on_c, 4, 54, 0
6, 602958, Note_on_c, 4, 54, 97
6, 603335, Note_on_c, 4, 54, 0
6, 603360, Program_c, 4, 45
6, 603360, Control_c, 4, 91, 120
6, 603632, Note_on_c, 4, 55, 40
6, 603666, Note_on_c, 4, 55, 0
6, 603754, Note_on_c, 4, 55, 63
6, 603783, Note_on_c, 4, 55, 0
6, 603910, Note_on_c, 4, 55, 68
6, 603936, Note_on_c, 4, 55, 0
6, 604042, Note_on_c, 4, 55, 63
6, 604067, Note_on_c, 4, 55, 0
6, 604399, Note_on_c, 4, 54, 81
6, 604426, Note_on_c, 4, 54, 0
6, 604530, Note_on_c, 4, 54, 89
6, 604558, Note_on_c, 4, 54, 0
6, 604666, Note_on_c, 4, 54, 67
6, 604687, Note_on_c, 4, 54, 0
6, 604797, Note_on_c, 4, 54, 63
6, 604817, Note_on_c, 4, 54, 0
6, 605295, Program_c, 4, 49
6, 605295, Control_c, 4, 91, 60
6, 605295, Note_on_c, 4, 54, 109
6, 605662, Note_on_c, 4, 54, 0
6, 605974, Note_on_c, 4, 54, 108
6, 606240, Program_c, 4, 45
6, 606240, Control_c, 4, 91, 120
6, 606339, Note_on_c, 4, 54, 0
6, 606658, Note_on_c, 4, 57, 63
6, 606694, Note_on_c, 4, 57, 0
6, 606801, Note_on_c, 4, 57, 69
6, 606836, Note_on_c, 4, 57, 0
6, 606938, Note_on_c, 4, 57, 71
6, 606968, Note_on_c, 4, 57, 0
6, 607061, Note_on_c, 4, 54, 82
6, 607083, Note_on_c, 4, 54, 0
6, 607406, Note_on_c, 4, 57, 85
6, 607446, Note_on_c, 4, 57, 0
6, 607536, Note_on_c, 4, 57, 84
6, 607572, Note_on_c, 4, 57, 0
6, 607666, Note_on_c, 4, 57, 68
6, 607694, Note_on_c, 4, 57, 0
6, 607787, Note_on_c, 4, 57, 94
6, 607813, Note_on_c, 4, 57, 0
6, 608018, Program_c, 4, 49
6, 608018, Control_c, 4, 91, 60
6, 608018, Note_on_c, 4, 59, 97
6, 608281, Note_on_c, 4, 58, 95
6, 608315, Note_on_c, 4, 59, 0
6, 608486, Note_on_c, 4, 58, 0
6, 609257, Note_on_c, 4, 59, 96
6, 609632, Note_on_c, 4, 59, 0
6, 609717, Note_on_c, 4, 58, 83
6, 609926, Note_on_c, 4, 58, 0
6, 610219, Note_on_c, 4, 54, 94
6, 610693, Note_on_c, 4, 54, 0
6, 610707, Note_on_c, 4, 59, 84
6, 610912, Note_on_c, 4, 59, 0
6, 610963, Note_on_c, 4, 59, 93
6, 612544, Note_on_c, 4, 58, 106
6, 612577, Note_on_c, 4, 59, 0
6, 612877, Note_on_c, 4, 58, 0
6, 613864, Note_on_c, 4, 66, 94
6, 614340, Note_on_c, 4, 66, 0
6, 614343, Note_on_c, 4, 67, 93
6, 614800, Note_on_c, 4, 67, 0
6, 614825, Note_on_c, 4, 68, 101
6, 615081, Note_on_c, 4, 67, 93
6, 615113, Note_on_c, 4, 68, 0
6, 615792, Note_on_c, 4, 68, 110
6, 615826, Note_on_c, 4, 67, 0
6, 616133, Note_on_c, 4, 68, 0
6, 616246, Note_on_c, 4, 69, 101
6, 616497, Note_on_c, 4, 68, 101
6, 616534, Note_on_c, 4, 69, 0
6, 617237, Note_on_c, 4, 69, 92
6, 617254, Note_on_c, 4, 68, 0
6, 617651, Note_on_c, 4, 69, 0
6, 617698, Note_on_c, 4, 70, 109
6, 617943, Note_on_c, 4, 71, 107
6, 617978, Note_on_c, 4, 70, 0
6, 618856, Note_on_c, 4, 70, 108
6, 618883, Note_on_c, 4, 71, 0
6, 619135, Note_on_c, 4, 71, 109
6, 619162, Note_on_c, 4, 70, 0
6, 619402, Note_on_c, 4, 71, 0
6, 619402, Note_on_c, 4, 73, 108
6, 620230, Note_on_c, 4, 73, 0
6, 620250, Note_on_c, 4, 71, 102
6, 620569, Note_on_c, 4, 71, 0
6, 620640, Program_c, 4, 45
6, 620640, Control_c, 4, 91, 120
6, 621914, Note_on_c, 4, 59, 69
6, 621937, Note_on_c, 4, 59, 0
6, 628560, Program_c, 4, 49
6, 628560, Control_c, 4, 91, 60
6, 628611, Control_c, 4, 11, 63
6, 628676, Control_c, 4, 11, 62
6, 628736, Control_c, 4, 11, 61
6, 628800, Control_c, 4, 11, 120
6, 629024, Note_on_c, 4, 55, 124
6, 629043, Note_on_c, 4, 67, 126
6, 629071, Note_on_c, 4, 55, 0
6, 629079, Note_on_c, 4, 67, 0
6, 629102, Note_on_c, 4, 55, 91
6, 629109, Note_on_c, 4, 67, 94
6, 629138, Note_on_c, 4, 55, 0
6, 629152, Note_on_c, 4, 67, 0
6, 629163, Note_on_c, 4, 55, 84
6, 629171, Note_on_c, 4, 67, 108
6, 629211, Note_on_c, 4, 55, 0
6, 629211, Note_on_c, 4, 67, 0
6, 629233, Note_on_c, 4, 67, 97
6, 629233, Note_on_c, 4, 55, 92
6, 629268, Note_on_c, 4, 55, 0
6, 629270, Note_on_c, 4, 67, 0
6, 629312, Note_on_c, 4, 55, 101
6, 629313, Note_on_c, 4, 67, 103
6, 629355, Note_on_c, 4, 55, 0
6, 629376, Note_on_c, 4, 55, 98
6, 629398, Note_on_c, 4, 67, 0
6, 629414, Note_on_c, 4, 55, 0
6, 629443, Note_on_c, 4, 67, 102
6, 629450, Note_on_c, 4, 55, 111
6, 629483, Note_on_c, 4, 67, 0
6, 629493, Note_on_c, 4, 55, 0
6, 629499, Note_on_c, 4, 67, 82
6, 629512, Note_on_c, 4, 55, 103
6, 629535, Note_on_c, 4, 67, 0
6, 629552, Note_on_c, 4, 55, 0
6, 629580, Note_on_c, 4, 67, 104
6, 629595, Note_on_c, 4, 55, 117
6, 629621, Note_on_c, 4, 67, 0
6, 629638, Note_on_c, 4, 55, 0
6, 629643, Note_on_c, 4, 67, 92
6, 629667, Note_on_c, 4, 55, 91
6, 629680, Note_on_c, 4, 67, 0
6, 629708, Note_on_c, 4, 55, 0
6, 629724, Note_on_c, 4, 67, 103
6, 629733, Note_on_c, 4, 55, 103
6, 629760, Note_on_c, 4, 67, 0
6, 629776, Note_on_c, 4, 55, 0
6, 629783, Note_on_c, 4, 67, 85
6, 629796, Note_on_c, 4, 55, 98
6, 629819, Note_on_c, 4, 67, 0
6, 629837, Note_on_c, 4, 55, 0
6, 629870, Note_on_c, 4, 55, 108
6, 629871, Note_on_c, 4, 67, 98
6, 629913, Note_on_c, 4, 67, 0
6, 629915, Note_on_c, 4, 55, 0
6, 629939, Note_on_c, 4, 67, 86
6, 629939, Note_on_c, 4, 55, 94
6, 629980, Note_on_c, 4, 67, 0
6, 629983, Note_on_c, 4, 55, 0
6, 630010, Note_on_c, 4, 67, 93
6, 630012, Note_on_c, 4, 55, 103
6, 630052, Note_on_c, 4, 67, 0
6, 630055, Note_on_c, 4, 55, 0
6, 630075, Note_on_c, 4, 55, 99
6, 630076, Note_on_c, 4, 67, 93
6, 630120, Note_on_c, 4, 67, 0
6, 630123, Note_on_c, 4, 55, 0
6, 630158, Note_on_c, 4, 55, 108
6, 630164, Note_on_c, 4, 67, 106
6, 630203, Note_on_c, 4, 55, 0
6, 630206, Note_on_c, 4, 67, 0
6, 630228, Note_on_c, 4, 67, 99
6, 630229, Note_on_c, 4, 55, 93
6, 630272, Note_on_c, 4, 67, 0
6, 630274, Note_on_c, 4, 55, 0
6, 630292, Note_on_c, 4, 55, 107
6, 630303, Note_on_c, 4, 67, 97
6, 630337, Note_on_c, 4, 55, 0
6, 630344, Note_on_c, 4, 67, 0
6, 630359, Note_on_c, 4, 55, 96
6, 630365, Note_on_c, 4, 67, 102
6, 630405, Note_on_c, 4, 55, 0
6, 630409, Note_on_c, 4, 67, 0
6, 630435, Note_on_c, 4, 55, 107
6, 630441, Note_on_c, 4, 67, 99
6, 630479, Note_on_c, 4, 55, 0
6, 630485, Note_on_c, 4, 67, 0
6, 630500, Note_on_c, 4, 55, 92
6, 630507, Note_on_c, 4, 67, 99
6, 630545, Note_on_c, 4, 55, 0
6, 630551, Note_on_c, 4, 67, 0
6, 630567, Note_on_c, 4, 55, 103
6, 630576, Note_on_c, 4, 67, 98
6, 630610, Note_on_c, 4, 55, 0
6, 630622, Note_on_c, 4, 67, 0
6, 630633, Note_on_c, 4, 55, 85
6, 630642, Note_on_c, 4, 67, 104
6, 630673, Note_on_c, 4, 55, 0
6, 630689, Note_on_c, 4, 67, 0
6, 630704, Note_on_c, 4, 55, 112
6, 630720, Note_on_c, 4, 67, 100
6, 630748, Note_on_c, 4, 55, 0
6, 630769, Note_on_c, 4, 67, 0
6, 630774, Note_on_c, 4, 55, 82
6, 630790, Note_on_c, 4, 67, 100
6, 630816, Note_on_c, 4, 55, 0
6, 630835, Note_on_c, 4, 67, 0
6, 630838, Note_on_c, 4, 55, 100
6, 630857, Note_on_c, 4, 67, 97
6, 630881, Note_on_c, 4, 55, 0
6, 630902, Note_on_c, 4, 67, 0
6, 630904, Note_on_c, 4, 55, 84
6, 630924, Note_on_c, 4, 67, 96
6, 630955, Note_on_c, 4, 55, 0
6, 630968, Note_on_c, 4, 67, 0
6, 630982, Note_on_c, 4, 55, 103
6, 630989, Note_on_c, 4, 67, 103
6, 631029, Note_on_c, 4, 55, 0
6, 631035, Note_on_c, 4, 67, 0
6, 631052, Note_on_c, 4, 55, 84
6, 631056, Note_on_c, 4, 67, 106
6, 631101, Note_on_c, 4, 55, 0
6, 631104, Note_on_c, 4, 67, 0
6, 631120, Note_on_c, 4, 55, 108
6, 631124, Note_on_c, 4, 67, 102
6, 631163, Note_on_c, 4, 67, 0
6, 631165, Note_on_c, 4, 55, 0
6, 631189, Note_on_c, 4, 55, 84
6, 631194, Note_on_c, 4, 67, 90
6, 631237, Note_on_c, 4, 55, 0
6, 631241, Note_on_c, 4, 67, 0
6, 631261, Note_on_c, 4, 55, 107
6, 631264, Note_on_c, 4, 67, 100
6, 631305, Note_on_c, 4, 55, 0
6, 631308, Note_on_c, 4, 67, 0
6, 631334, Note_on_c, 4, 55, 76
6, 631339, Note_on_c, 4, 67, 93
6, 631378, Note_on_c, 4, 55, 0
6, 631386, Note_on_c, 4, 67, 0
6, 631396, Note_on_c, 4, 55, 113
6, 631410, Note_on_c, 4, 67, 98
6, 631439, Note_on_c, 4, 55, 0
6, 631453, Note_on_c, 4, 67, 0
6, 631469, Note_on_c, 4, 55, 76
6, 631474, Note_on_c, 4, 67, 104
6, 631515, Note_on_c, 4, 55, 0
6, 631521, Note_on_c, 4, 67, 0
6, 631538, Note_on_c, 4, 55, 111
6, 631548, Note_on_c, 4, 67, 101
6, 631583, Note_on_c, 4, 55, 0
6, 631592, Note_on_c, 4, 67, 0
6, 631608, Note_on_c, 4, 55, 88
6, 631615, Note_on_c, 4, 67, 93
6, 631657, Note_on_c, 4, 55, 0
6, 631666, Note_on_c, 4, 67, 0
6, 631674, Note_on_c, 4, 55, 116
6, 631683, Note_on_c, 4, 67, 102
6, 631716, Note_on_c, 4, 55, 0
6, 631725, Note_on_c, 4, 67, 0
6, 631740, Note_on_c, 4, 55, 99
6, 631747, Note_on_c, 4, 67, 103
6, 631788, Note_on_c, 4, 55, 0
6, 631792, Note_on_c, 4, 67, 0
6, 631806, Note_on_c, 4, 55, 112
6, 631820, Note_on_c, 4, 67, 98
6, 631851, Note_on_c, 4, 55, 0
6, 631867, Note_on_c, 4, 67, 0
6, 631871, Note_on_c, 4, 55, 103
6, 631890, Note_on_c, 4, 67, 99
6, 631920, Note_on_c, 4, 55, 0
6, 631932, Note_on_c, 4, 67, 0
6, 631940, Note_on_c, 4, 55, 109
6, 631958, Note_on_c, 4, 67, 94
6, 631988, Note_on_c, 4, 55, 0
6, 632005, Note_on_c, 4, 55, 114
6, 632007, Note_on_c, 4, 67, 0
6, 632026, Note_on_c, 4, 67, 91
6, 632055, Note_on_c, 4, 55, 0
6, 632073, Note_on_c, 4, 67, 0
6, 632083, Note_on_c, 4, 55, 108
6, 632100, Note_on_c, 4, 67, 99
6, 632130, Note_on_c, 4, 55, 0
6, 632147, Note_on_c, 4, 67, 0
6, 632147, Note_on_c, 4, 55, 113
6, 632167, Note_on_c, 4, 67, 96
6, 632195, Note_on_c, 4, 55, 0
6, 632212, Note_on_c, 4, 67, 0
6, 632220, Note_on_c, 4, 55, 111
6, 632234, Note_on_c, 4, 67, 101
6, 632267, Note_on_c, 4, 55, 0
6, 632278, Note_on_c, 4, 67, 0
6, 632284, Note_on_c, 4, 55, 118
6, 632304, Note_on_c, 4, 67, 93
6, 632323, Note_on_c, 4, 55, 0
6, 632342, Note_on_c, 4, 67, 0
6, 632373, Note_on_c, 4, 55, 121
6, 632457, Note_on_c, 4, 67, 117
6, 632504, Note_on_c, 4, 55, 0
6, 632561, Note_on_c, 4, 67, 0
6, 635760, Control_c, 4, 11, 80
6, 635947, Note_on_c, 4, 60, 34
6, 636211, Note_on_c, 4, 59, 40
6, 636272, Note_on_c, 4, 60, 0
6, 636478, Note_on_c, 4, 58, 36
6, 636593, Note_on_c, 4, 59, 0
6, 636986, Note_on_c, 4, 59, 31
6, 637024, Note_on_c, 4, 58, 0
6, 637306, Note_on_c, 4, 56, 38
6, 637399, Note_on_c, 4, 59, 0
6, 637601, Note_on_c, 4, 57, 42
6, 637641, Note_on_c, 4, 56, 0
6, 638238, Note_on_c, 4, 59, 46
6, 638297, Note_on_c, 4, 57, 0
6, 639226, Note_on_c, 4, 54, 32
6, 639307, Note_on_c, 4, 59, 0
6, 640359, Note_on_c, 4, 52, 29
6, 640375, Note_on_c, 4, 55, 29
6, 640467, Note_on_c, 4, 54, 0
6, 640730, Note_on_c, 4, 52, 0
6, 641397, Note_on_c, 4, 55, 0
6, 641412, Note_on_c, 4, 54, 56
6, 642068, Note_on_c, 4, 57, 54
6, 642120, Note_on_c, 4, 54, 0
6, 642470, Note_on_c, 4, 55, 65
6, 642537, Note_on_c, 4, 57, 0
6, 643492, Note_on_c, 4, 57, 49
6, 643532, Note_on_c, 4, 55, 0
6, 644259, Note_on_c, 4, 59, 58
6, 644292, Note_on_c, 4, 57, 0
6, 645106, Note_on_c, 4, 59, 0
6, 645120, Control_c, 4, 11, 100
6, 645830, Note_on_c, 4, 55, 108
6, 645890, Note_on_c, 4, 64, 112
6, 645896, Note_on_c, 4, 71, 124
6, 646141, Note_on_c, 4, 55, 0
6, 646152, Note_on_c, 4, 71, 0
6, 646165, Note_on_c, 4, 64, 0
6, 647070, Note_on_c, 4, 52, 122
6, 647238, Note_on_c, 4, 52, 0
6, 647260, Note_on_c, 4, 52, 124
6, 649310, Note_on_c, 4, 52, 0
6, 649440, End_track
7, 0, Start_track
7, 0, Title_t, "Violoncelli                         "
7, 100, Control_c, 5, 0, 0
7, 120, Control_c, 5, 32, 0
7, 140, Program_c, 5, 49
7, 160, Control_c, 5, 10, 109
7, 180, Control_c, 5, 7, 100
7, 200, Control_c, 5, 11, 100
7, 220, Control_c, 5, 1, 19
7, 240, Control_c, 5, 91, 60
7, 260, Control_c, 5, 93, 38
7, 280, Control_c, 5, 101, 0
7, 300, Control_c, 5, 100, 0
7, 320, Control_c, 5, 6, 12
7, 340, Pitch_bend_c, 5, 8208
7, 360, Control_c, 5, 99, 1
7, 380, Control_c, 5, 98, 32
7, 400, Control_c, 5, 6, 62
7, 420, Control_c, 5, 98, 33
7, 440, Control_c, 5, 6, 60
7, 460, Control_c, 5, 98, 99
7, 480, Control_c, 5, 6, 57
7, 500, Control_c, 5, 98, 100
7, 520, Control_c, 5, 6, 64
7, 540, Control_c, 5, 98, 102
7, 560, Control_c, 5, 6, 66
7, 580, Control_c, 5, 99, 1
7, 600, Control_c, 5, 98, 8
7, 620, Control_c, 5, 6, 90
7, 640, Control_c, 5, 98, 9
7, 660, Control_c, 5, 6, 50
7, 680, Control_c, 5, 98, 10
7, 700, Control_c, 5, 6, 70
7, 1712, Note_on_c, 5, 52, 86
7, 1816, Note_on_c, 5, 52, 0
7, 2014, Note_on_c, 5, 55, 92
7, 2125, Note_on_c, 5, 55, 0
7, 2313, Note_on_c, 5, 52, 94
7, 2402, Note_on_c, 5, 52, 0
7, 2613, Note_on_c, 5, 51, 105
7, 2675, Note_on_c, 5, 51, 0
7, 2895, Note_on_c, 5, 51, 92
7, 2975, Note_on_c, 5, 51, 0
7, 3183, Note_on_c, 5, 50, 93
7, 3253, Note_on_c, 5, 50, 0
7, 3475, Note_on_c, 5, 49, 100
7, 3559, Note_on_c, 5, 49, 0
7, 3764, Note_on_c, 5, 52, 98
7, 3846, Note_on_c, 5, 52, 0
7, 4056, Note_on_c, 5, 48, 106
7, 4133, Note_on_c, 5, 48, 0
7, 4348, Note_on_c, 5, 47, 92
7, 4426, Note_on_c, 5, 47, 0
7, 4644, Note_on_c, 5, 59, 101
7, 4737, Note_on_c, 5, 59, 0
7, 4938, Note_on_c, 5, 63, 112
7, 5189, Note_on_c, 5, 63, 0
7, 5211, Note_on_c, 5, 64, 91
7, 5326, Note_on_c, 5, 64, 0
7, 5516, Note_on_c, 5, 59, 100
7, 5786, Note_on_c, 5, 60, 86
7, 5788, Note_on_c, 5, 59, 0
7, 5922, Note_on_c, 5, 60, 0
7, 6082, Note_on_c, 5, 56, 95
7, 6365, Note_on_c, 5, 56, 0
7, 6367, Note_on_c, 5, 57, 57
7, 6500, Note_on_c, 5, 57, 0
7, 6671, Note_on_c, 5, 52, 71
7, 6961, Note_on_c, 5, 51, 78
7, 6976, Note_on_c, 5, 52, 0
7, 7266, Note_on_c, 5, 52, 66
7, 7267, Note_on_c, 5, 51, 0
7, 7552, Note_on_c, 5, 52, 0
7, 7563, Note_on_c, 5, 55, 57
7, 7807, Note_on_c, 5, 55, 0
7, 7844, Note_on_c, 5, 58, 64
7, 8145, Note_on_c, 5, 58, 0
7, 8147, Note_on_c, 5, 59, 35
7, 8338, Note_on_c, 5, 59, 0
7, 8461, Note_on_c, 5, 52, 124
7, 8591, Note_on_c, 5, 52, 0
7, 8742, Note_on_c, 5, 45, 118
7, 8876, Note_on_c, 5, 45, 0
7, 9045, Note_on_c, 5, 48, 109
7, 9145, Note_on_c, 5, 48, 0
7, 9324, Note_on_c, 5, 45, 104
7, 9434, Note_on_c, 5, 45, 0
7, 9618, Note_on_c, 5, 44, 113
7, 9699, Note_on_c, 5, 44, 0
7, 9908, Note_on_c, 5, 44, 114
7, 9997, Note_on_c, 5, 44, 0
7, 10184, Note_on_c, 5, 43, 117
7, 10313, Note_on_c, 5, 43, 0
7, 10484, Note_on_c, 5, 42, 105
7, 10634, Note_on_c, 5, 42, 0
7, 10782, Note_on_c, 5, 54, 115
7, 10880, Note_on_c, 5, 54, 0
7, 10918, Note_on_c, 5, 54, 51
7, 10943, Note_on_c, 5, 54, 0
7, 11058, Note_on_c, 5, 52, 106
7, 11231, Note_on_c, 5, 52, 0
7, 11321, Note_on_c, 5, 51, 119
7, 11537, Note_on_c, 5, 51, 0
7, 11609, Note_on_c, 5, 63, 116
7, 11713, Note_on_c, 5, 63, 0
7, 12152, Note_on_c, 5, 64, 122
7, 12342, Note_on_c, 5, 64, 0
7, 14429, Note_on_c, 5, 55, 118
7, 14570, Note_on_c, 5, 52, 106
7, 14585, Note_on_c, 5, 55, 0
7, 14778, Note_on_c, 5, 52, 0
7, 14783, Note_on_c, 5, 49, 110
7, 14840, Note_on_c, 5, 47, 111
7, 14868, Note_on_c, 5, 49, 0
7, 14937, Note_on_c, 5, 47, 0
7, 15129, Note_on_c, 5, 46, 123
7, 15216, Note_on_c, 5, 46, 0
7, 15417, Note_on_c, 5, 45, 122
7, 15505, Note_on_c, 5, 45, 0
7, 15721, Note_on_c, 5, 43, 120
7, 15827, Note_on_c, 5, 43, 0
7, 18098, Note_on_c, 5, 55, 103
7, 18246, Note_on_c, 5, 52, 109
7, 18275, Note_on_c, 5, 55, 0
7, 18467, Note_on_c, 5, 49, 105
7, 18475, Note_on_c, 5, 52, 0
7, 18534, Note_on_c, 5, 47, 111
7, 18562, Note_on_c, 5, 49, 0
7, 18650, Note_on_c, 5, 47, 0
7, 18832, Note_on_c, 5, 46, 119
7, 18936, Note_on_c, 5, 46, 0
7, 19113, Note_on_c, 5, 45, 113
7, 19226, Note_on_c, 5, 45, 0
7, 19414, Note_on_c, 5, 43, 114
7, 19522, Note_on_c, 5, 43, 0
7, 19709, Note_on_c, 5, 42, 120
7, 19799, Note_on_c, 5, 42, 0
7, 20002, Note_on_c, 5, 54, 121
7, 20092, Note_on_c, 5, 54, 0
7, 20280, Note_on_c, 5, 54, 124
7, 20368, Note_on_c, 5, 54, 0
7, 20600, Note_on_c, 5, 59, 116
7, 20698, Note_on_c, 5, 59, 0
7, 20924, Note_on_c, 5, 60, 122
7, 21035, Note_on_c, 5, 60, 0
7, 21339, Note_on_c, 5, 57, 88
7, 22076, Note_on_c, 5, 57, 0
7, 22407, Note_on_c, 5, 45, 51
7, 22529, Note_on_c, 5, 45, 0
7, 22533, Note_on_c, 5, 47, 39
7, 22601, Note_on_c, 5, 47, 0
7, 22603, Note_on_c, 5, 45, 36
7, 22654, Note_on_c, 5, 47, 52
7, 22657, Note_on_c, 5, 45, 0
7, 22708, Note_on_c, 5, 47, 0
7, 22708, Note_on_c, 5, 45, 37
7, 22751, Note_on_c, 5, 47, 59
7, 22753, Note_on_c, 5, 45, 0
7, 22799, Note_on_c, 5, 45, 50
7, 22800, Note_on_c, 5, 47, 0
7, 22844, Note_on_c, 5, 47, 57
7, 22845, Note_on_c, 5, 45, 0
7, 22872, Note_on_c, 5, 47, 0
7, 22881, Note_on_c, 5, 45, 32
7, 22912, Note_on_c, 5, 47, 60
7, 22918, Note_on_c, 5, 45, 0
7, 22955, Note_on_c, 5, 47, 0
7, 22961, Note_on_c, 5, 45, 38
7, 23025, Note_on_c, 5, 45, 0
7, 23029, Note_on_c, 5, 43, 44
7, 23080, Note_on_c, 5, 43, 0
7, 23089, Note_on_c, 5, 45, 42
7, 23214, Note_on_c, 5, 47, 34
7, 23220, Note_on_c, 5, 45, 0
7, 23659, Note_on_c, 5, 47, 0
7, 23673, Note_on_c, 5, 40, 35
7, 24044, Note_on_c, 5, 40, 0
7, 26317, Note_on_c, 5, 40, 49
7, 26628, Note_on_c, 5, 42, 67
7, 26672, Note_on_c, 5, 40, 0
7, 27062, Note_on_c, 5, 41, 63
7, 27087, Note_on_c, 5, 42, 0
7, 27195, Note_on_c, 5, 42, 66
7, 27243, Note_on_c, 5, 41, 0
7, 27327, Note_on_c, 5, 45, 70
7, 27367, Note_on_c, 5, 42, 0
7, 27483, Note_on_c, 5, 45, 0
7, 27497, Note_on_c, 5, 54, 53
7, 27557, Note_on_c, 5, 54, 0
7, 27801, Note_on_c, 5, 54, 65
7, 27855, Note_on_c, 5, 54, 0
7, 28086, Note_on_c, 5, 54, 52
7, 28145, Note_on_c, 5, 54, 0
7, 28397, Note_on_c, 5, 54, 39
7, 28674, Note_on_c, 5, 54, 0
7, 29845, Note_on_c, 5, 51, 60
7, 30116, Note_on_c, 5, 52, 56
7, 30143, Note_on_c, 5, 51, 0
7, 30483, Note_on_c, 5, 52, 0
7, 30523, Note_on_c, 5, 51, 50
7, 30683, Note_on_c, 5, 52, 63
7, 30695, Note_on_c, 5, 51, 0
7, 30824, Note_on_c, 5, 55, 59
7, 30840, Note_on_c, 5, 52, 0
7, 30962, Note_on_c, 5, 55, 0
7, 30994, Note_on_c, 5, 55, 75
7, 31279, Note_on_c, 5, 54, 72
7, 31316, Note_on_c, 5, 55, 0
7, 31361, Note_on_c, 5, 54, 0
7, 31434, Note_on_c, 5, 53, 59
7, 31582, Note_on_c, 5, 54, 82
7, 31618, Note_on_c, 5, 53, 0
7, 31732, Note_on_c, 5, 57, 71
7, 31747, Note_on_c, 5, 54, 0
7, 31877, Note_on_c, 5, 55, 48
7, 31900, Note_on_c, 5, 57, 0
7, 32023, Note_on_c, 5, 55, 0
7, 32175, Note_on_c, 5, 55, 54
7, 32277, Note_on_c, 5, 55, 0
7, 32439, Note_on_c, 5, 55, 68
7, 32570, Note_on_c, 5, 55, 0
7, 32726, Control_c, 5, 11, 100
7, 32726, Note_on_c, 5, 54, 67
7, 32891, Control_c, 5, 11, 101
7, 33056, Control_c, 5, 11, 102
7, 33161, Note_on_c, 5, 53, 80
7, 33188, Note_on_c, 5, 54, 0
7, 33221, Control_c, 5, 11, 103
7, 33296, Note_on_c, 5, 54, 96
7, 33316, Note_on_c, 5, 53, 0
7, 33381, Control_c, 5, 11, 104
7, 33425, Note_on_c, 5, 54, 0
7, 33442, Note_on_c, 5, 57, 72
7, 33546, Control_c, 5, 11, 105
7, 33568, Note_on_c, 5, 57, 0
7, 33585, Note_on_c, 5, 56, 88
7, 33623, Note_on_c, 5, 56, 0
7, 33711, Control_c, 5, 11, 106
7, 33728, Note_on_c, 5, 56, 72
7, 33769, Note_on_c, 5, 56, 0
7, 33866, Note_on_c, 5, 56, 82
7, 33876, Control_c, 5, 11, 107
7, 33903, Note_on_c, 5, 56, 0
7, 34029, Note_on_c, 5, 56, 82
7, 34036, Control_c, 5, 11, 108
7, 34054, Note_on_c, 5, 56, 0
7, 34171, Note_on_c, 5, 56, 98
7, 34197, Note_on_c, 5, 56, 0
7, 34201, Control_c, 5, 11, 109
7, 34317, Note_on_c, 5, 56, 95
7, 34344, Note_on_c, 5, 56, 0
7, 34366, Control_c, 5, 11, 110
7, 34454, Note_on_c, 5, 57, 96
7, 34490, Note_on_c, 5, 57, 0
7, 34531, Control_c, 5, 11, 111
7, 34592, Note_on_c, 5, 57, 99
7, 34628, Note_on_c, 5, 57, 0
7, 34691, Control_c, 5, 11, 112
7, 34729, Note_on_c, 5, 57, 101
7, 34763, Note_on_c, 5, 57, 0
7, 34856, Note_on_c, 5, 57, 104
7, 34856, Control_c, 5, 11, 113
7, 34888, Note_on_c, 5, 57, 0
7, 34986, Note_on_c, 5, 57, 107
7, 35019, Note_on_c, 5, 57, 0
7, 35021, Control_c, 5, 11, 114
7, 35119, Note_on_c, 5, 57, 114
7, 35154, Note_on_c, 5, 57, 0
7, 35181, Control_c, 5, 11, 115
7, 35260, Note_on_c, 5, 56, 118
7, 35292, Note_on_c, 5, 56, 0
7, 35346, Control_c, 5, 11, 116
7, 35387, Note_on_c, 5, 56, 118
7, 35419, Note_on_c, 5, 56, 0
7, 35511, Control_c, 5, 11, 117
7, 35512, Note_on_c, 5, 56, 121
7, 35544, Note_on_c, 5, 56, 0
7, 35641, Note_on_c, 5, 56, 120
7, 35673, Note_on_c, 5, 56, 0
7, 35676, Control_c, 5, 11, 118
7, 35776, Note_on_c, 5, 56, 123
7, 35808, Note_on_c, 5, 56, 0
7, 35836, Control_c, 5, 11, 119
7, 35906, Note_on_c, 5, 56, 125
7, 35941, Note_on_c, 5, 56, 0
7, 36000, Control_c, 5, 11, 120
7, 36040, Note_on_c, 5, 57, 125
7, 36074, Note_on_c, 5, 57, 0
7, 36308, Note_on_c, 5, 52, 127
7, 36816, Note_on_c, 5, 52, 0
7, 36824, Note_on_c, 5, 57, 87
7, 36884, Note_on_c, 5, 57, 0
7, 37079, Note_on_c, 5, 52, 117
7, 37547, Note_on_c, 5, 52, 0
7, 37575, Note_on_c, 5, 57, 102
7, 37628, Note_on_c, 5, 57, 0
7, 37846, Note_on_c, 5, 51, 119
7, 38331, Note_on_c, 5, 51, 0
7, 38361, Note_on_c, 5, 52, 93
7, 38424, Note_on_c, 5, 52, 0
7, 38637, Note_on_c, 5, 51, 119
7, 39134, Note_on_c, 5, 51, 0
7, 39153, Note_on_c, 5, 52, 107
7, 39215, Note_on_c, 5, 52, 0
7, 39428, Note_on_c, 5, 46, 124
7, 39478, Note_on_c, 5, 46, 0
7, 39560, Note_on_c, 5, 46, 103
7, 39600, Note_on_c, 5, 46, 0
7, 39702, Note_on_c, 5, 46, 104
7, 39744, Note_on_c, 5, 46, 0
7, 39829, Note_on_c, 5, 46, 112
7, 39876, Note_on_c, 5, 46, 0
7, 39973, Note_on_c, 5, 47, 106
7, 40013, Note_on_c, 5, 47, 0
7, 40106, Note_on_c, 5, 47, 99
7, 40142, Note_on_c, 5, 47, 0
7, 40230, Note_on_c, 5, 46, 125
7, 40278, Note_on_c, 5, 46, 0
7, 40367, Note_on_c, 5, 46, 109
7, 40407, Note_on_c, 5, 46, 0
7, 40503, Note_on_c, 5, 46, 124
7, 40540, Note_on_c, 5, 46, 0
7, 40646, Note_on_c, 5, 46, 127
7, 40679, Note_on_c, 5, 46, 0
7, 40792, Note_on_c, 5, 47, 127
7, 41128, Note_on_c, 5, 47, 0
7, 41213, Note_on_c, 5, 46, 121
7, 41332, Note_on_c, 5, 46, 0
7, 41339, Note_on_c, 5, 47, 120
7, 41451, Note_on_c, 5, 47, 0
7, 41461, Note_on_c, 5, 54, 126
7, 41560, Note_on_c, 5, 54, 0
7, 41596, Note_on_c, 5, 55, 121
7, 41666, Note_on_c, 5, 55, 0
7, 41875, Note_on_c, 5, 55, 122
7, 41960, Note_on_c, 5, 55, 0
7, 42136, Note_on_c, 5, 54, 125
7, 42202, Note_on_c, 5, 54, 0
7, 42386, Note_on_c, 5, 47, 118
7, 42701, Note_on_c, 5, 47, 0
7, 42753, Note_on_c, 5, 46, 119
7, 42880, Note_on_c, 5, 47, 117
7, 42901, Note_on_c, 5, 46, 0
7, 42990, Note_on_c, 5, 47, 0
7, 43004, Note_on_c, 5, 54, 121
7, 43102, Note_on_c, 5, 54, 0
7, 43136, Note_on_c, 5, 55, 120
7, 43200, Note_on_c, 5, 55, 0
7, 43393, Note_on_c, 5, 55, 122
7, 43456, Note_on_c, 5, 55, 0
7, 43635, Note_on_c, 5, 54, 124
7, 43682, Note_on_c, 5, 54, 0
7, 43904, Note_on_c, 5, 47, 113
7, 44046, Note_on_c, 5, 47, 0
7, 44316, Control_c, 5, 11, 100
7, 44316, Note_on_c, 5, 46, 41
7, 44454, Note_on_c, 5, 46, 0
7, 44463, Note_on_c, 5, 47, 46
7, 44599, Note_on_c, 5, 51, 50
7, 44621, Note_on_c, 5, 47, 0
7, 44751, Note_on_c, 5, 54, 42
7, 44776, Note_on_c, 5, 51, 0
7, 44978, Note_on_c, 5, 54, 0
7, 45273, Note_on_c, 5, 53, 28
7, 45452, Note_on_c, 5, 54, 39
7, 45508, Note_on_c, 5, 53, 0
7, 45628, Note_on_c, 5, 57, 44
7, 45676, Note_on_c, 5, 54, 0
7, 45834, Control_c, 5, 11, 100
7, 45834, Note_on_c, 5, 60, 53
7, 45917, Note_on_c, 5, 57, 0
7, 46174, Control_c, 5, 11, 99
7, 46283, Control_c, 5, 11, 98
7, 46358, Control_c, 5, 11, 97
7, 46404, Control_c, 5, 11, 96
7, 46438, Control_c, 5, 11, 95
7, 46475, Control_c, 5, 11, 94
7, 46498, Control_c, 5, 11, 93
7, 46524, Control_c, 5, 11, 92
7, 46543, Control_c, 5, 11, 91
7, 46558, Control_c, 5, 11, 90
7, 46577, Control_c, 5, 11, 89
7, 46592, Control_c, 5, 11, 88
7, 46607, Control_c, 5, 11, 87
7, 46619, Control_c, 5, 11, 86
7, 46630, Control_c, 5, 11, 85
7, 46641, Control_c, 5, 11, 84
7, 46652, Control_c, 5, 11, 83
7, 46664, Control_c, 5, 11, 82
7, 46671, Control_c, 5, 11, 81
7, 46679, Control_c, 5, 11, 80
7, 46690, Control_c, 5, 11, 79
7, 46698, Control_c, 5, 11, 78
7, 46705, Control_c, 5, 11, 77
7, 46713, Control_c, 5, 11, 76
7, 46720, Control_c, 5, 11, 75
7, 46728, Control_c, 5, 11, 74
7, 46732, Control_c, 5, 11, 73
7, 46739, Control_c, 5, 11, 72
7, 46747, Control_c, 5, 11, 71
7, 46750, Control_c, 5, 11, 70
7, 46758, Control_c, 5, 11, 69
7, 46762, Control_c, 5, 11, 68
7, 46769, Control_c, 5, 11, 67
7, 46773, Control_c, 5, 11, 66
7, 46777, Control_c, 5, 11, 65
7, 46784, Control_c, 5, 11, 64
7, 46788, Control_c, 5, 11, 63
7, 46792, Control_c, 5, 11, 62
7, 46796, Control_c, 5, 11, 61
7, 46799, Control_c, 5, 11, 60
7, 47371, Note_on_c, 5, 60, 0
7, 47374, Control_c, 5, 11, 80
7, 47374, Note_on_c, 5, 48, 43
7, 48056, Note_on_c, 5, 47, 30
7, 48150, Note_on_c, 5, 48, 0
7, 48440, Note_on_c, 5, 47, 0
7, 48688, Note_on_c, 5, 51, 36
7, 49021, Note_on_c, 5, 52, 39
7, 49053, Note_on_c, 5, 51, 0
7, 49354, Note_on_c, 5, 54, 41
7, 49457, Note_on_c, 5, 52, 0
7, 49686, Note_on_c, 5, 52, 49
7, 49729, Note_on_c, 5, 54, 0
7, 50159, Note_on_c, 5, 52, 0
7, 50297, Note_on_c, 5, 57, 43
7, 50480, Note_on_c, 5, 57, 0
7, 50637, Note_on_c, 5, 57, 50
7, 50824, Note_on_c, 5, 57, 0
7, 50942, Note_on_c, 5, 57, 54
7, 51143, Note_on_c, 5, 57, 0
7, 51267, Note_on_c, 5, 57, 61
7, 51525, Note_on_c, 5, 57, 0
7, 51592, Note_on_c, 5, 57, 54
7, 51918, Note_on_c, 5, 56, 56
7, 51999, Note_on_c, 5, 57, 0
7, 52212, Note_on_c, 5, 56, 0
7, 52254, Note_on_c, 5, 61, 54
7, 52609, Note_on_c, 5, 54, 46
7, 52674, Note_on_c, 5, 61, 0
7, 53263, Note_on_c, 5, 51, 50
7, 53275, Note_on_c, 5, 54, 0
7, 53661, Note_on_c, 5, 48, 63
7, 53835, Note_on_c, 5, 51, 0
7, 54037, Note_on_c, 5, 49, 49
7, 54103, Note_on_c, 5, 48, 0
7, 54410, Note_on_c, 5, 49, 0
7, 54450, Note_on_c, 5, 54, 49
7, 54867, Note_on_c, 5, 57, 48
7, 54897, Note_on_c, 5, 54, 0
7, 55844, Note_on_c, 5, 59, 28
7, 55885, Note_on_c, 5, 57, 0
7, 56510, Note_on_c, 5, 52, 28
7, 56723, Note_on_c, 5, 59, 0
7, 56987, Note_on_c, 5, 52, 0
7, 58009, Control_c, 5, 11, 70
7, 58009, Note_on_c, 5, 47, 51
7, 58038, Control_c, 5, 11, 71
7, 58066, Control_c, 5, 11, 72
7, 58094, Control_c, 5, 11, 73
7, 58123, Control_c, 5, 11, 74
7, 58151, Control_c, 5, 11, 75
7, 58179, Control_c, 5, 11, 76
7, 58208, Control_c, 5, 11, 77
7, 58236, Control_c, 5, 11, 78
7, 58264, Control_c, 5, 11, 79
7, 58293, Control_c, 5, 11, 80
7, 58299, Note_on_c, 5, 52, 56
7, 58321, Control_c, 5, 11, 81
7, 58349, Control_c, 5, 11, 82
7, 58361, Note_on_c, 5, 47, 0
7, 58378, Control_c, 5, 11, 83
7, 58406, Control_c, 5, 11, 84
7, 58434, Control_c, 5, 11, 85
7, 58463, Control_c, 5, 11, 86
7, 58491, Control_c, 5, 11, 87
7, 58519, Control_c, 5, 11, 88
7, 58548, Control_c, 5, 11, 89
7, 58576, Control_c, 5, 11, 90
7, 58604, Control_c, 5, 11, 91
7, 58633, Control_c, 5, 11, 92
7, 58661, Control_c, 5, 11, 93
7, 58689, Control_c, 5, 11, 94
7, 58718, Control_c, 5, 11, 95
7, 58746, Control_c, 5, 11, 96
7, 58774, Control_c, 5, 11, 97
7, 58803, Control_c, 5, 11, 98
7, 58831, Control_c, 5, 11, 99
7, 58859, Control_c, 5, 11, 100
7, 58860, Control_c, 5, 11, 70
7, 58860, Note_on_c, 5, 56, 63
7, 58865, Control_c, 5, 11, 75
7, 58870, Control_c, 5, 11, 79
7, 58875, Control_c, 5, 11, 82
7, 58880, Control_c, 5, 11, 85
7, 58885, Control_c, 5, 11, 87
7, 58890, Control_c, 5, 11, 89
7, 58895, Control_c, 5, 11, 91
7, 58900, Control_c, 5, 11, 92
7, 58905, Control_c, 5, 11, 93
7, 58910, Control_c, 5, 11, 94
7, 58915, Control_c, 5, 11, 95
7, 58920, Control_c, 5, 11, 96
7, 58925, Control_c, 5, 11, 97
7, 58935, Control_c, 5, 11, 98
7, 58950, Control_c, 5, 11, 99
7, 58970, Control_c, 5, 11, 100
7, 58995, Note_on_c, 5, 52, 0
7, 59040, Control_c, 5, 11, 100
7, 59065, Control_c, 5, 11, 99
7, 59090, Control_c, 5, 11, 98
7, 59115, Control_c, 5, 11, 97
7, 59140, Control_c, 5, 11, 96
7, 59145, Note_on_c, 5, 47, 56
7, 59160, Control_c, 5, 11, 95
7, 59171, Note_on_c, 5, 56, 0
7, 59185, Control_c, 5, 11, 94
7, 59210, Control_c, 5, 11, 93
7, 59235, Control_c, 5, 11, 92
7, 59260, Control_c, 5, 11, 91
7, 59280, Control_c, 5, 11, 90
7, 59305, Control_c, 5, 11, 89
7, 59330, Control_c, 5, 11, 88
7, 59355, Control_c, 5, 11, 87
7, 59380, Control_c, 5, 11, 86
7, 59400, Control_c, 5, 11, 85
7, 59425, Control_c, 5, 11, 84
7, 59450, Control_c, 5, 11, 83
7, 59475, Control_c, 5, 11, 82
7, 59500, Control_c, 5, 11, 81
7, 59520, Control_c, 5, 11, 80
7, 59520, Control_c, 5, 11, 80
7, 59540, Control_c, 5, 11, 81
7, 59560, Control_c, 5, 11, 82
7, 59575, Control_c, 5, 11, 83
7, 59595, Control_c, 5, 11, 84
7, 59610, Control_c, 5, 11, 85
7, 59630, Control_c, 5, 11, 86
7, 59645, Control_c, 5, 11, 87
7, 59665, Control_c, 5, 11, 88
7, 59680, Control_c, 5, 11, 89
7, 59700, Control_c, 5, 11, 90
7, 59720, Control_c, 5, 11, 91
7, 59735, Control_c, 5, 11, 92
7, 59750, Note_on_c, 5, 47, 0
7, 59755, Control_c, 5, 11, 93
7, 59766, Note_on_c, 5, 59, 50
7, 59770, Control_c, 5, 11, 94
7, 59790, Control_c, 5, 11, 95
7, 59805, Control_c, 5, 11, 96
7, 59825, Control_c, 5, 11, 97
7, 59840, Control_c, 5, 11, 98
7, 59860, Control_c, 5, 11, 99
7, 59880, Control_c, 5, 11, 100
7, 59900, Control_c, 5, 11, 101
7, 59915, Control_c, 5, 11, 102
7, 59935, Control_c, 5, 11, 103
7, 59955, Control_c, 5, 11, 104
7, 59970, Control_c, 5, 11, 105
7, 59990, Control_c, 5, 11, 106
7, 60005, Control_c, 5, 11, 107
7, 60025, Control_c, 5, 11, 108
7, 60045, Control_c, 5, 11, 109
7, 60060, Control_c, 5, 11, 110
7, 60080, Control_c, 5, 11, 111
7, 60095, Control_c, 5, 11, 112
7, 60115, Control_c, 5, 11, 113
7, 60135, Control_c, 5, 11, 114
7, 60150, Control_c, 5, 11, 115
7, 60170, Control_c, 5, 11, 116
7, 60185, Control_c, 5, 11, 117
7, 60205, Control_c, 5, 11, 118
7, 60225, Control_c, 5, 11, 119
7, 60240, Control_c, 5, 11, 120
7, 60339, Note_on_c, 5, 57, 43
7, 60425, Note_on_c, 5, 59, 0
7, 60668, Note_on_c, 5, 56, 54
7, 60718, Note_on_c, 5, 57, 0
7, 60953, Note_on_c, 5, 54, 59
7, 61005, Note_on_c, 5, 56, 0
7, 61258, Note_on_c, 5, 47, 61
7, 61269, Note_on_c, 5, 54, 0
7, 61549, Note_on_c, 5, 47, 0
7, 61555, Note_on_c, 5, 52, 51
7, 61889, Note_on_c, 5, 52, 0
7, 61906, Control_c, 5, 11, 120
7, 61906, Note_on_c, 5, 45, 44
7, 61936, Control_c, 5, 11, 119
7, 61966, Control_c, 5, 11, 118
7, 61996, Control_c, 5, 11, 117
7, 62026, Control_c, 5, 11, 116
7, 62056, Control_c, 5, 11, 115
7, 62086, Control_c, 5, 11, 114
7, 62116, Control_c, 5, 11, 113
7, 62146, Control_c, 5, 11, 112
7, 62176, Control_c, 5, 11, 111
7, 62206, Control_c, 5, 11, 110
7, 62236, Control_c, 5, 11, 109
7, 62266, Control_c, 5, 11, 108
7, 62296, Control_c, 5, 11, 107
7, 62326, Control_c, 5, 11, 106
7, 62356, Control_c, 5, 11, 105
7, 62386, Control_c, 5, 11, 104
7, 62416, Control_c, 5, 11, 103
7, 62446, Control_c, 5, 11, 102
7, 62476, Control_c, 5, 11, 101
7, 62506, Control_c, 5, 11, 100
7, 62536, Control_c, 5, 11, 99
7, 62566, Control_c, 5, 11, 98
7, 62596, Control_c, 5, 11, 97
7, 62626, Control_c, 5, 11, 96
7, 62656, Control_c, 5, 11, 95
7, 62686, Control_c, 5, 11, 94
7, 62716, Control_c, 5, 11, 93
7, 62746, Control_c, 5, 11, 92
7, 62771, Control_c, 5, 11, 91
7, 62801, Control_c, 5, 11, 90
7, 62831, Control_c, 5, 11, 89
7, 62861, Control_c, 5, 11, 88
7, 62891, Control_c, 5, 11, 87
7, 62921, Control_c, 5, 11, 86
7, 62951, Control_c, 5, 11, 85
7, 62981, Control_c, 5, 11, 84
7, 63011, Control_c, 5, 11, 83
7, 63041, Control_c, 5, 11, 82
7, 63071, Control_c, 5, 11, 81
7, 63100, Control_c, 5, 11, 80
7, 63100, Note_on_c, 5, 44, 39
7, 63105, Note_on_c, 5, 45, 0
7, 63479, Note_on_c, 5, 42, 41
7, 63517, Note_on_c, 5, 44, 0
7, 63969, Note_on_c, 5, 42, 0
7, 63971, Note_on_c, 5, 40, 38
7, 64473, Note_on_c, 5, 40, 0
7, 65507, Control_c, 5, 11, 80
7, 65507, Note_on_c, 5, 47, 55
7, 65552, Control_c, 5, 11, 81
7, 65597, Control_c, 5, 11, 82
7, 65642, Control_c, 5, 11, 83
7, 65687, Control_c, 5, 11, 84
7, 65732, Control_c, 5, 11, 85
7, 65777, Control_c, 5, 11, 86
7, 65813, Note_on_c, 5, 52, 61
7, 65817, Control_c, 5, 11, 87
7, 65838, Note_on_c, 5, 47, 0
7, 65862, Control_c, 5, 11, 88
7, 65907, Control_c, 5, 11, 89
7, 65952, Control_c, 5, 11, 90
7, 65997, Control_c, 5, 11, 91
7, 66042, Control_c, 5, 11, 92
7, 66087, Control_c, 5, 11, 93
7, 66127, Control_c, 5, 11, 94
7, 66172, Control_c, 5, 11, 95
7, 66217, Control_c, 5, 11, 96
7, 66262, Control_c, 5, 11, 97
7, 66307, Control_c, 5, 11, 98
7, 66352, Control_c, 5, 11, 99
7, 66392, Control_c, 5, 11, 100
7, 66393, Note_on_c, 5, 56, 63
7, 66441, Note_on_c, 5, 52, 0
7, 66665, Note_on_c, 5, 56, 0
7, 66698, Control_c, 5, 11, 80
7, 66698, Note_on_c, 5, 47, 61
7, 66960, Control_c, 5, 11, 80
7, 66985, Control_c, 5, 11, 81
7, 67010, Control_c, 5, 11, 82
7, 67030, Control_c, 5, 11, 83
7, 67055, Control_c, 5, 11, 84
7, 67080, Control_c, 5, 11, 85
7, 67100, Control_c, 5, 11, 86
7, 67125, Control_c, 5, 11, 87
7, 67145, Control_c, 5, 11, 88
7, 67170, Control_c, 5, 11, 89
7, 67195, Control_c, 5, 11, 90
7, 67215, Control_c, 5, 11, 91
7, 67240, Control_c, 5, 11, 92
7, 67260, Control_c, 5, 11, 93
7, 67283, Note_on_c, 5, 59, 54
7, 67285, Control_c, 5, 11, 94
7, 67306, Note_on_c, 5, 47, 0
7, 67310, Control_c, 5, 11, 95
7, 67330, Control_c, 5, 11, 96
7, 67355, Control_c, 5, 11, 97
7, 67375, Control_c, 5, 11, 98
7, 67400, Control_c, 5, 11, 99
7, 67425, Control_c, 5, 11, 100
7, 67445, Control_c, 5, 11, 101
7, 67470, Control_c, 5, 11, 102
7, 67495, Control_c, 5, 11, 103
7, 67515, Control_c, 5, 11, 104
7, 67540, Control_c, 5, 11, 105
7, 67560, Control_c, 5, 11, 106
7, 67585, Control_c, 5, 11, 107
7, 67610, Control_c, 5, 11, 108
7, 67630, Control_c, 5, 11, 109
7, 67655, Control_c, 5, 11, 110
7, 67675, Control_c, 5, 11, 111
7, 67700, Control_c, 5, 11, 112
7, 67725, Control_c, 5, 11, 113
7, 67745, Control_c, 5, 11, 114
7, 67770, Control_c, 5, 11, 115
7, 67790, Control_c, 5, 11, 116
7, 67815, Control_c, 5, 11, 117
7, 67840, Control_c, 5, 11, 118
7, 67860, Control_c, 5, 11, 119
7, 67883, Control_c, 5, 11, 120
7, 67883, Note_on_c, 5, 57, 53
7, 67946, Note_on_c, 5, 59, 0
7, 68176, Note_on_c, 5, 56, 60
7, 68236, Note_on_c, 5, 57, 0
7, 68814, Note_on_c, 5, 54, 55
7, 68868, Note_on_c, 5, 56, 0
7, 69105, Note_on_c, 5, 52, 47
7, 69137, Note_on_c, 5, 54, 0
7, 69435, Note_on_c, 5, 52, 0
7, 69452, Control_c, 5, 11, 120
7, 69452, Note_on_c, 5, 47, 42
7, 69457, Control_c, 5, 11, 118
7, 69462, Control_c, 5, 11, 117
7, 69467, Control_c, 5, 11, 116
7, 69472, Control_c, 5, 11, 115
7, 69482, Control_c, 5, 11, 113
7, 69487, Control_c, 5, 11, 112
7, 69497, Control_c, 5, 11, 111
7, 69502, Control_c, 5, 11, 110
7, 69512, Control_c, 5, 11, 108
7, 69522, Control_c, 5, 11, 107
7, 69532, Control_c, 5, 11, 106
7, 69537, Control_c, 5, 11, 105
7, 69542, Control_c, 5, 11, 104
7, 69552, Control_c, 5, 11, 103
7, 69562, Control_c, 5, 11, 102
7, 69567, Control_c, 5, 11, 101
7, 69577, Control_c, 5, 11, 100
7, 69592, Control_c, 5, 11, 99
7, 69597, Control_c, 5, 11, 98
7, 69607, Control_c, 5, 11, 97
7, 69622, Control_c, 5, 11, 96
7, 69632, Control_c, 5, 11, 95
7, 69647, Control_c, 5, 11, 94
7, 69657, Control_c, 5, 11, 93
7, 69672, Control_c, 5, 11, 92
7, 69687, Control_c, 5, 11, 91
7, 69707, Control_c, 5, 11, 90
7, 69727, Control_c, 5, 11, 89
7, 69742, Control_c, 5, 11, 88
7, 69762, Control_c, 5, 11, 87
7, 69792, Control_c, 5, 11, 86
7, 69817, Control_c, 5, 11, 85
7, 69862, Control_c, 5, 11, 84
7, 69902, Control_c, 5, 11, 83
7, 69952, Control_c, 5, 11, 82
7, 70037, Control_c, 5, 11, 81
7, 70157, Control_c, 5, 11, 80
7, 70531, Note_on_c, 5, 47, 0
7, 70538, Note_on_c, 5, 52, 32
7, 71252, Note_on_c, 5, 52, 0
7, 71440, Note_on_c, 5, 47, 40
7, 73175, Note_on_c, 5, 47, 0
7, 73202, Note_on_c, 5, 46, 48
7, 74158, Note_on_c, 5, 46, 0
7, 74160, Note_on_c, 5, 47, 50
7, 76910, Note_on_c, 5, 47, 0
7, 76944, Note_on_c, 5, 46, 51
7, 77880, Note_on_c, 5, 47, 51
7, 77891, Note_on_c, 5, 46, 0
7, 78868, Note_on_c, 5, 47, 0
7, 78924, Note_on_c, 5, 52, 39
7, 79314, Note_on_c, 5, 52, 0
7, 80453, Note_on_c, 5, 47, 59
7, 80765, Note_on_c, 5, 47, 0
7, 80771, Note_on_c, 5, 52, 57
7, 81390, Note_on_c, 5, 56, 57
7, 81427, Note_on_c, 5, 52, 0
7, 81663, Note_on_c, 5, 47, 63
7, 81678, Note_on_c, 5, 56, 0
7, 82292, Note_on_c, 5, 59, 71
7, 82300, Note_on_c, 5, 47, 0
7, 82896, Control_c, 5, 11, 80
7, 82896, Note_on_c, 5, 57, 71
7, 82927, Note_on_c, 5, 59, 0
7, 82980, Control_c, 5, 11, 81
7, 83058, Control_c, 5, 11, 82
7, 83136, Control_c, 5, 11, 83
7, 83214, Control_c, 5, 11, 84
7, 83222, Note_on_c, 5, 56, 72
7, 83267, Note_on_c, 5, 57, 0
7, 83292, Control_c, 5, 11, 85
7, 83376, Control_c, 5, 11, 86
7, 83454, Control_c, 5, 11, 87
7, 83532, Control_c, 5, 11, 88
7, 83545, Note_on_c, 5, 54, 81
7, 83573, Note_on_c, 5, 56, 0
7, 83610, Control_c, 5, 11, 89
7, 83688, Control_c, 5, 11, 90
7, 83772, Control_c, 5, 11, 91
7, 83850, Control_c, 5, 11, 92
7, 83863, Note_on_c, 5, 47, 76
7, 83869, Note_on_c, 5, 54, 0
7, 83928, Control_c, 5, 11, 93
7, 84006, Control_c, 5, 11, 94
7, 84084, Control_c, 5, 11, 95
7, 84160, Note_on_c, 5, 47, 0
7, 84168, Control_c, 5, 11, 96
7, 84184, Note_on_c, 5, 52, 81
7, 84246, Control_c, 5, 11, 97
7, 84324, Control_c, 5, 11, 98
7, 84402, Control_c, 5, 11, 99
7, 84480, Control_c, 5, 11, 100
7, 84491, Note_on_c, 5, 46, 87
7, 84494, Note_on_c, 5, 52, 0
7, 84565, Control_c, 5, 11, 101
7, 84586, Note_on_c, 5, 46, 0
7, 84648, Note_on_c, 5, 46, 88
7, 84650, Control_c, 5, 11, 102
7, 84696, Note_on_c, 5, 46, 0
7, 84735, Control_c, 5, 11, 103
7, 84793, Note_on_c, 5, 46, 96
7, 84820, Control_c, 5, 11, 104
7, 84831, Note_on_c, 5, 46, 0
7, 84900, Control_c, 5, 11, 105
7, 84936, Note_on_c, 5, 46, 101
7, 84979, Note_on_c, 5, 46, 0
7, 84985, Control_c, 5, 11, 106
7, 85070, Control_c, 5, 11, 107
7, 85085, Note_on_c, 5, 46, 103
7, 85129, Note_on_c, 5, 46, 0
7, 85155, Control_c, 5, 11, 108
7, 85220, Note_on_c, 5, 46, 109
7, 85240, Control_c, 5, 11, 109
7, 85266, Note_on_c, 5, 46, 0
7, 85320, Control_c, 5, 11, 110
7, 85358, Note_on_c, 5, 45, 104
7, 85405, Note_on_c, 5, 45, 0
7, 85405, Control_c, 5, 11, 111
7, 85488, Note_on_c, 5, 45, 102
7, 85490, Control_c, 5, 11, 112
7, 85537, Note_on_c, 5, 45, 0
7, 85575, Control_c, 5, 11, 113
7, 85629, Note_on_c, 5, 45, 111
7, 85660, Control_c, 5, 11, 114
7, 85674, Note_on_c, 5, 45, 0
7, 85740, Control_c, 5, 11, 115
7, 85773, Note_on_c, 5, 45, 112
7, 85813, Note_on_c, 5, 45, 0
7, 85825, Control_c, 5, 11, 116
7, 85910, Control_c, 5, 11, 117
7, 85912, Note_on_c, 5, 45, 116
7, 85952, Note_on_c, 5, 45, 0
7, 85995, Control_c, 5, 11, 118
7, 86044, Note_on_c, 5, 45, 116
7, 86080, Control_c, 5, 11, 119
7, 86086, Note_on_c, 5, 45, 0
7, 86160, Control_c, 5, 11, 120
7, 86183, Note_on_c, 5, 44, 119
7, 86378, Note_on_c, 5, 44, 0
7, 86466, Note_on_c, 5, 49, 101
7, 86746, Note_on_c, 5, 49, 0
7, 86774, Note_on_c, 5, 51, 112
7, 87037, Note_on_c, 5, 51, 0
7, 87071, Note_on_c, 5, 52, 99
7, 87290, Note_on_c, 5, 52, 0
7, 87369, Note_on_c, 5, 52, 106
7, 87674, Note_on_c, 5, 54, 106
7, 87697, Note_on_c, 5, 52, 0
7, 87967, Note_on_c, 5, 55, 100
7, 87971, Note_on_c, 5, 54, 0
7, 88271, Note_on_c, 5, 54, 91
7, 88298, Note_on_c, 5, 55, 0
7, 88574, Note_on_c, 5, 54, 0
7, 88848, Note_on_c, 5, 47, 97
7, 88900, Note_on_c, 5, 47, 0
7, 89005, Note_on_c, 5, 47, 88
7, 89047, Note_on_c, 5, 47, 0
7, 89132, Note_on_c, 5, 47, 96
7, 89171, Note_on_c, 5, 47, 0
7, 89265, Note_on_c, 5, 47, 101
7, 89309, Note_on_c, 5, 47, 0
7, 89407, Note_on_c, 5, 45, 103
7, 89450, Note_on_c, 5, 45, 0
7, 89544, Note_on_c, 5, 45, 108
7, 89585, Note_on_c, 5, 45, 0
7, 89680, Note_on_c, 5, 44, 116
7, 89721, Note_on_c, 5, 44, 0
7, 89814, Note_on_c, 5, 44, 115
7, 89854, Note_on_c, 5, 44, 0
7, 89951, Note_on_c, 5, 44, 115
7, 89994, Note_on_c, 5, 44, 0
7, 90082, Note_on_c, 5, 44, 115
7, 90123, Note_on_c, 5, 44, 0
7, 90222, Note_on_c, 5, 45, 114
7, 90261, Note_on_c, 5, 45, 0
7, 90347, Note_on_c, 5, 45, 111
7, 90394, Note_on_c, 5, 45, 0
7, 90484, Note_on_c, 5, 46, 115
7, 90525, Note_on_c, 5, 46, 0
7, 90616, Note_on_c, 5, 46, 116
7, 90653, Note_on_c, 5, 46, 0
7, 90753, Note_on_c, 5, 47, 118
7, 90794, Note_on_c, 5, 47, 0
7, 90886, Note_on_c, 5, 47, 122
7, 90923, Note_on_c, 5, 47, 0
7, 91028, Note_on_c, 5, 47, 126
7, 91064, Note_on_c, 5, 47, 0
7, 91159, Note_on_c, 5, 47, 126
7, 91198, Note_on_c, 5, 47, 0
7, 91312, Note_on_c, 5, 48, 127
7, 91664, Note_on_c, 5, 48, 0
7, 91713, Note_on_c, 5, 47, 118
7, 91823, Note_on_c, 5, 47, 0
7, 91840, Note_on_c, 5, 48, 118
7, 91966, Note_on_c, 5, 52, 117
7, 91981, Note_on_c, 5, 48, 0
7, 92094, Note_on_c, 5, 52, 0
7, 92104, Note_on_c, 5, 55, 122
7, 92181, Note_on_c, 5, 55, 0
7, 92370, Note_on_c, 5, 55, 121
7, 92418, Note_on_c, 5, 55, 0
7, 92632, Note_on_c, 5, 55, 117
7, 92691, Note_on_c, 5, 55, 0
7, 92913, Note_on_c, 5, 48, 122
7, 93272, Note_on_c, 5, 48, 0
7, 93317, Note_on_c, 5, 47, 116
7, 93456, Note_on_c, 5, 48, 117
7, 93482, Note_on_c, 5, 47, 0
7, 93572, Note_on_c, 5, 52, 116
7, 93604, Note_on_c, 5, 48, 0
7, 93713, Note_on_c, 5, 55, 120
7, 93718, Note_on_c, 5, 52, 0
7, 93769, Note_on_c, 5, 55, 0
7, 93974, Note_on_c, 5, 55, 121
7, 94015, Note_on_c, 5, 55, 0
7, 94242, Note_on_c, 5, 55, 122
7, 94304, Note_on_c, 5, 55, 0
7, 94550, Note_on_c, 5, 48, 121
7, 94697, Note_on_c, 5, 48, 0
7, 97920, Control_c, 5, 11, 100
7, 99360, Control_c, 5, 11, 100
7, 99430, Control_c, 5, 11, 99
7, 99495, Control_c, 5, 11, 98
7, 99560, Control_c, 5, 11, 97
7, 99625, Control_c, 5, 11, 96
7, 99690, Control_c, 5, 11, 95
7, 99755, Control_c, 5, 11, 94
7, 99790, Note_on_c, 5, 45, 55
7, 99820, Control_c, 5, 11, 93
7, 99885, Control_c, 5, 11, 92
7, 99955, Control_c, 5, 11, 91
7, 100020, Control_c, 5, 11, 90
7, 100085, Control_c, 5, 11, 89
7, 100146, Note_on_c, 5, 47, 64
7, 100150, Control_c, 5, 11, 88
7, 100208, Note_on_c, 5, 45, 0
7, 100215, Control_c, 5, 11, 87
7, 100280, Control_c, 5, 11, 86
7, 100345, Control_c, 5, 11, 85
7, 100410, Control_c, 5, 11, 84
7, 100480, Control_c, 5, 11, 83
7, 100545, Control_c, 5, 11, 82
7, 100610, Control_c, 5, 11, 81
7, 100675, Control_c, 5, 11, 80
7, 100740, Control_c, 5, 11, 79
7, 100805, Control_c, 5, 11, 78
7, 100870, Control_c, 5, 11, 77
7, 100935, Control_c, 5, 11, 76
7, 101005, Control_c, 5, 11, 75
7, 101070, Control_c, 5, 11, 74
7, 101135, Control_c, 5, 11, 73
7, 101200, Control_c, 5, 11, 72
7, 101265, Control_c, 5, 11, 71
7, 101330, Control_c, 5, 11, 70
7, 101395, Control_c, 5, 11, 69
7, 101460, Control_c, 5, 11, 68
7, 101530, Control_c, 5, 11, 67
7, 101595, Control_c, 5, 11, 66
7, 101660, Control_c, 5, 11, 65
7, 101725, Control_c, 5, 11, 64
7, 101790, Control_c, 5, 11, 63
7, 101855, Control_c, 5, 11, 62
7, 101920, Control_c, 5, 11, 61
7, 101942, Note_on_c, 5, 47, 0
7, 101985, Control_c, 5, 11, 60
7, 101986, Control_c, 5, 11, 120
7, 101986, Note_on_c, 5, 48, 125
7, 102394, Note_on_c, 5, 48, 0
7, 102452, Note_on_c, 5, 47, 120
7, 102573, Note_on_c, 5, 47, 0
7, 102592, Note_on_c, 5, 48, 113
7, 102714, Note_on_c, 5, 52, 118
7, 102745, Note_on_c, 5, 48, 0
7, 102860, Note_on_c, 5, 55, 116
7, 102867, Note_on_c, 5, 52, 0
7, 102924, Note_on_c, 5, 55, 0
7, 103125, Note_on_c, 5, 55, 116
7, 103179, Note_on_c, 5, 55, 0
7, 103384, Note_on_c, 5, 55, 118
7, 103460, Note_on_c, 5, 55, 0
7, 103681, Note_on_c, 5, 48, 122
7, 104117, Note_on_c, 5, 47, 103
7, 104138, Note_on_c, 5, 48, 0
7, 104259, Note_on_c, 5, 48, 113
7, 104300, Note_on_c, 5, 47, 0
7, 104369, Note_on_c, 5, 52, 117
7, 104406, Note_on_c, 5, 48, 0
7, 104503, Note_on_c, 5, 55, 114
7, 104518, Note_on_c, 5, 52, 0
7, 104597, Note_on_c, 5, 55, 0
7, 104782, Note_on_c, 5, 55, 116
7, 104839, Note_on_c, 5, 55, 0
7, 105052, Note_on_c, 5, 55, 120
7, 105143, Note_on_c, 5, 55, 0
7, 105391, Note_on_c, 5, 48, 112
7, 105629, Note_on_c, 5, 48, 0
7, 108720, Control_c, 5, 11, 80
7, 110884, Note_on_c, 5, 45, 55
7, 111244, Note_on_c, 5, 47, 59
7, 111278, Note_on_c, 5, 45, 0
7, 113329, Note_on_c, 5, 52, 50
7, 113394, Note_on_c, 5, 47, 0
7, 113825, Note_on_c, 5, 54, 60
7, 113893, Note_on_c, 5, 52, 0
7, 114004, Note_on_c, 5, 55, 58
7, 114030, Note_on_c, 5, 54, 0
7, 114180, Note_on_c, 5, 64, 41
7, 114193, Note_on_c, 5, 55, 0
7, 114358, Note_on_c, 5, 62, 43
7, 114371, Note_on_c, 5, 64, 0
7, 114517, Note_on_c, 5, 62, 0
7, 114692, Note_on_c, 5, 62, 48
7, 114802, Note_on_c, 5, 62, 0
7, 114974, Note_on_c, 5, 62, 52
7, 115084, Note_on_c, 5, 62, 0
7, 115271, Note_on_c, 5, 62, 47
7, 115602, Note_on_c, 5, 60, 40
7, 115604, Note_on_c, 5, 62, 0
7, 115921, Note_on_c, 5, 60, 0
7, 116600, Note_on_c, 5, 60, 54
7, 116641, Note_on_c, 5, 60, 0
7, 116901, Note_on_c, 5, 60, 51
7, 117014, Note_on_c, 5, 60, 0
7, 117216, Note_on_c, 5, 59, 52
7, 117565, Note_on_c, 5, 57, 48
7, 117585, Note_on_c, 5, 59, 0
7, 117720, Note_on_c, 5, 55, 36
7, 117740, Note_on_c, 5, 57, 0
7, 117898, Note_on_c, 5, 54, 52
7, 117933, Note_on_c, 5, 55, 0
7, 118062, Note_on_c, 5, 52, 31
7, 118063, Note_on_c, 5, 54, 0
7, 118256, Note_on_c, 5, 50, 40
7, 118285, Note_on_c, 5, 52, 0
7, 119288, Note_on_c, 5, 48, 49
7, 119304, Note_on_c, 5, 50, 0
7, 119449, Note_on_c, 5, 47, 46
7, 119486, Note_on_c, 5, 48, 0
7, 119660, Note_on_c, 5, 45, 34
7, 119695, Note_on_c, 5, 47, 0
7, 119898, Note_on_c, 5, 45, 0
7, 120012, Note_on_c, 5, 48, 36
7, 120380, Note_on_c, 5, 47, 28
7, 120437, Note_on_c, 5, 48, 0
7, 121441, Note_on_c, 5, 47, 0
7, 121468, Control_c, 5, 11, 50
7, 121468, Note_on_c, 5, 52, 46
7, 121486, Control_c, 5, 11, 51
7, 121504, Control_c, 5, 11, 52
7, 121522, Control_c, 5, 11, 53
7, 121540, Control_c, 5, 11, 54
7, 121558, Control_c, 5, 11, 55
7, 121576, Control_c, 5, 11, 56
7, 121594, Control_c, 5, 11, 57
7, 121612, Control_c, 5, 11, 58
7, 121630, Control_c, 5, 11, 59
7, 121648, Control_c, 5, 11, 60
7, 121660, Control_c, 5, 11, 61
7, 121678, Control_c, 5, 11, 62
7, 121696, Control_c, 5, 11, 63
7, 121714, Control_c, 5, 11, 64
7, 121732, Control_c, 5, 11, 65
7, 121750, Control_c, 5, 11, 66
7, 121768, Control_c, 5, 11, 67
7, 121786, Control_c, 5, 11, 68
7, 121804, Control_c, 5, 11, 69
7, 121822, Control_c, 5, 11, 70
7, 121840, Control_c, 5, 11, 71
7, 121852, Control_c, 5, 11, 72
7, 121870, Control_c, 5, 11, 73
7, 121888, Control_c, 5, 11, 74
7, 121906, Control_c, 5, 11, 75
7, 121924, Control_c, 5, 11, 76
7, 121942, Control_c, 5, 11, 77
7, 121960, Control_c, 5, 11, 78
7, 121978, Control_c, 5, 11, 79
7, 121992, Control_c, 5, 11, 80
7, 121992, Note_on_c, 5, 50, 47
7, 122034, Note_on_c, 5, 52, 0
7, 122160, Note_on_c, 5, 48, 42
7, 122197, Note_on_c, 5, 50, 0
7, 122330, Note_on_c, 5, 47, 51
7, 122368, Note_on_c, 5, 48, 0
7, 122543, Note_on_c, 5, 45, 49
7, 122570, Note_on_c, 5, 47, 0
7, 123326, Note_on_c, 5, 47, 30
7, 123375, Note_on_c, 5, 45, 0
7, 123742, Note_on_c, 5, 47, 0
7, 123783, Control_c, 5, 11, 50
7, 123783, Note_on_c, 5, 48, 47
7, 123801, Control_c, 5, 11, 51
7, 123819, Control_c, 5, 11, 52
7, 123837, Control_c, 5, 11, 53
7, 123855, Control_c, 5, 11, 54
7, 123873, Control_c, 5, 11, 55
7, 123891, Control_c, 5, 11, 56
7, 123909, Control_c, 5, 11, 57
7, 123927, Control_c, 5, 11, 58
7, 123945, Control_c, 5, 11, 59
7, 123963, Control_c, 5, 11, 60
7, 123981, Control_c, 5, 11, 61
7, 123999, Control_c, 5, 11, 62
7, 124017, Control_c, 5, 11, 63
7, 124035, Control_c, 5, 11, 64
7, 124053, Control_c, 5, 11, 65
7, 124071, Control_c, 5, 11, 66
7, 124089, Control_c, 5, 11, 67
7, 124107, Control_c, 5, 11, 68
7, 124125, Control_c, 5, 11, 69
7, 124143, Control_c, 5, 11, 70
7, 124161, Control_c, 5, 11, 71
7, 124179, Control_c, 5, 11, 72
7, 124197, Control_c, 5, 11, 73
7, 124215, Control_c, 5, 11, 74
7, 124233, Control_c, 5, 11, 75
7, 124251, Control_c, 5, 11, 76
7, 124269, Control_c, 5, 11, 77
7, 124280, Note_on_c, 5, 47, 51
7, 124287, Control_c, 5, 11, 78
7, 124305, Control_c, 5, 11, 79
7, 124320, Control_c, 5, 11, 80
7, 124325, Note_on_c, 5, 48, 0
7, 124455, Note_on_c, 5, 45, 42
7, 124458, Note_on_c, 5, 47, 0
7, 124633, Note_on_c, 5, 43, 40
7, 124664, Note_on_c, 5, 45, 0
7, 124873, Note_on_c, 5, 42, 36
7, 124926, Note_on_c, 5, 43, 0
7, 125627, Note_on_c, 5, 47, 31
7, 125648, Note_on_c, 5, 42, 0
7, 126059, Note_on_c, 5, 52, 30
7, 126074, Note_on_c, 5, 47, 0
7, 126771, Note_on_c, 5, 52, 0
7, 126828, Control_c, 5, 11, 52
7, 126828, Note_on_c, 5, 55, 45
7, 126833, Control_c, 5, 11, 55
7, 126838, Control_c, 5, 11, 57
7, 126843, Control_c, 5, 11, 59
7, 126848, Control_c, 5, 11, 60
7, 126853, Control_c, 5, 11, 62
7, 126858, Control_c, 5, 11, 63
7, 126863, Control_c, 5, 11, 64
7, 126868, Control_c, 5, 11, 65
7, 126873, Control_c, 5, 11, 66
7, 126878, Control_c, 5, 11, 67
7, 126883, Control_c, 5, 11, 68
7, 126888, Control_c, 5, 11, 69
7, 126893, Control_c, 5, 11, 70
7, 126898, Control_c, 5, 11, 71
7, 126903, Control_c, 5, 11, 72
7, 126913, Control_c, 5, 11, 73
7, 126923, Control_c, 5, 11, 74
7, 126933, Control_c, 5, 11, 75
7, 126943, Control_c, 5, 11, 76
7, 126958, Control_c, 5, 11, 77
7, 126978, Control_c, 5, 11, 78
7, 127003, Control_c, 5, 11, 79
7, 127048, Control_c, 5, 11, 80
7, 127078, Control_c, 5, 11, 81
7, 127108, Control_c, 5, 11, 82
7, 127133, Control_c, 5, 11, 83
7, 127163, Control_c, 5, 11, 84
7, 127188, Control_c, 5, 11, 85
7, 127218, Control_c, 5, 11, 86
7, 127248, Control_c, 5, 11, 87
7, 127273, Control_c, 5, 11, 88
7, 127303, Control_c, 5, 11, 89
7, 127328, Control_c, 5, 11, 90
7, 127358, Control_c, 5, 11, 91
7, 127383, Control_c, 5, 11, 92
7, 127413, Control_c, 5, 11, 93
7, 127443, Control_c, 5, 11, 94
7, 127468, Control_c, 5, 11, 95
7, 127498, Control_c, 5, 11, 96
7, 127523, Control_c, 5, 11, 97
7, 127553, Control_c, 5, 11, 98
7, 127583, Control_c, 5, 11, 99
7, 127607, Control_c, 5, 11, 100
7, 127607, Note_on_c, 5, 54, 60
7, 127690, Note_on_c, 5, 55, 0
7, 128015, Note_on_c, 5, 54, 0
7, 128033, Control_c, 5, 11, 80
7, 128033, Note_on_c, 5, 60, 61
7, 128078, Control_c, 5, 11, 81
7, 128118, Control_c, 5, 11, 82
7, 128163, Control_c, 5, 11, 83
7, 128203, Control_c, 5, 11, 84
7, 128248, Control_c, 5, 11, 85
7, 128288, Control_c, 5, 11, 86
7, 128333, Control_c, 5, 11, 87
7, 128373, Control_c, 5, 11, 88
7, 128418, Control_c, 5, 11, 89
7, 128458, Control_c, 5, 11, 90
7, 128503, Control_c, 5, 11, 91
7, 128543, Control_c, 5, 11, 92
7, 128583, Control_c, 5, 11, 93
7, 128628, Control_c, 5, 11, 94
7, 128668, Control_c, 5, 11, 95
7, 128713, Control_c, 5, 11, 96
7, 128753, Control_c, 5, 11, 97
7, 128798, Control_c, 5, 11, 98
7, 128838, Control_c, 5, 11, 99
7, 128880, Control_c, 5, 11, 100
7, 128880, Control_c, 5, 11, 100
7, 128940, Control_c, 5, 11, 99
7, 129000, Control_c, 5, 11, 98
7, 129060, Control_c, 5, 11, 97
7, 129120, Control_c, 5, 11, 96
7, 129180, Control_c, 5, 11, 95
7, 129240, Control_c, 5, 11, 94
7, 129300, Control_c, 5, 11, 93
7, 129360, Control_c, 5, 11, 92
7, 129420, Control_c, 5, 11, 91
7, 129475, Control_c, 5, 11, 90
7, 129535, Control_c, 5, 11, 89
7, 129595, Control_c, 5, 11, 88
7, 129655, Control_c, 5, 11, 87
7, 129715, Control_c, 5, 11, 86
7, 129733, Note_on_c, 5, 60, 0
7, 129756, Note_on_c, 5, 59, 36
7, 129775, Control_c, 5, 11, 85
7, 129835, Control_c, 5, 11, 84
7, 129895, Control_c, 5, 11, 83
7, 129955, Control_c, 5, 11, 82
7, 130015, Control_c, 5, 11, 81
7, 130070, Control_c, 5, 11, 80
7, 130130, Control_c, 5, 11, 79
7, 130190, Control_c, 5, 11, 78
7, 130250, Control_c, 5, 11, 77
7, 130310, Control_c, 5, 11, 76
7, 130370, Control_c, 5, 11, 75
7, 130430, Control_c, 5, 11, 74
7, 130490, Control_c, 5, 11, 73
7, 130550, Control_c, 5, 11, 72
7, 130610, Control_c, 5, 11, 71
7, 130665, Control_c, 5, 11, 70
7, 130725, Control_c, 5, 11, 69
7, 130785, Control_c, 5, 11, 68
7, 130845, Control_c, 5, 11, 67
7, 130905, Control_c, 5, 11, 66
7, 130965, Control_c, 5, 11, 65
7, 131025, Control_c, 5, 11, 64
7, 131085, Control_c, 5, 11, 63
7, 131145, Control_c, 5, 11, 62
7, 131205, Control_c, 5, 11, 61
7, 131260, Control_c, 5, 11, 60
7, 131261, Note_on_c, 5, 55, 36
7, 131323, Note_on_c, 5, 59, 0
7, 131616, Note_on_c, 5, 55, 0
7, 131760, Program_c, 5, 45
7, 131760, Control_c, 5, 91, 120
7, 131760, Control_c, 5, 11, 80
7, 132490, Note_on_c, 5, 51, 108
7, 132545, Note_on_c, 5, 51, 0
7, 132846, Note_on_c, 5, 52, 106
7, 132911, Note_on_c, 5, 52, 0
7, 133268, Note_on_c, 5, 40, 106
7, 133303, Note_on_c, 5, 40, 0
7, 140793, Note_on_c, 5, 51, 94
7, 140819, Note_on_c, 5, 51, 0
7, 141119, Note_on_c, 5, 52, 102
7, 141150, Note_on_c, 5, 52, 0
7, 141428, Note_on_c, 5, 54, 103
7, 141453, Note_on_c, 5, 54, 0
7, 141840, Program_c, 5, 49
7, 141840, Control_c, 5, 91, 60
7, 141840, Control_c, 5, 11, 80
7, 144950, Note_on_c, 5, 59, 53
7, 145350, Note_on_c, 5, 64, 46
7, 145463, Note_on_c, 5, 59, 0
7, 145776, Note_on_c, 5, 57, 50
7, 145863, Note_on_c, 5, 64, 0
7, 146121, Note_on_c, 5, 59, 44
7, 146201, Note_on_c, 5, 57, 0
7, 146715, Note_on_c, 5, 52, 45
7, 146776, Note_on_c, 5, 59, 0
7, 147558, Note_on_c, 5, 47, 52
7, 147632, Note_on_c, 5, 52, 0
7, 147841, Note_on_c, 5, 43, 52
7, 147898, Note_on_c, 5, 47, 0
7, 148073, Note_on_c, 5, 42, 59
7, 148116, Note_on_c, 5, 43, 0
7, 148306, Note_on_c, 5, 42, 0
7, 148317, Note_on_c, 5, 40, 54
7, 148516, Note_on_c, 5, 40, 0
7, 149010, Control_c, 5, 11, 60
7, 151477, Note_on_c, 5, 43, 97
7, 151924, Note_on_c, 5, 42, 110
7, 151941, Note_on_c, 5, 43, 0
7, 152518, Note_on_c, 5, 41, 101
7, 152528, Note_on_c, 5, 42, 0
7, 152746, Note_on_c, 5, 42, 108
7, 152776, Note_on_c, 5, 41, 0
7, 152887, Note_on_c, 5, 45, 106
7, 152919, Note_on_c, 5, 42, 0
7, 153129, Note_on_c, 5, 45, 0
7, 153132, Note_on_c, 5, 54, 76
7, 153240, Note_on_c, 5, 54, 0
7, 153585, Program_c, 5, 45
7, 153585, Control_c, 5, 91, 120
7, 153585, Note_on_c, 5, 54, 88
7, 153618, Note_on_c, 5, 54, 0
7, 154014, Note_on_c, 5, 54, 83
7, 154051, Note_on_c, 5, 54, 0
7, 154438, Note_on_c, 5, 54, 54
7, 154505, Note_on_c, 5, 54, 0
7, 155040, Program_c, 5, 49
7, 155040, Control_c, 5, 91, 60
7, 155434, Control_c, 5, 11, 90
7, 155434, Note_on_c, 5, 47, 91
7, 155464, Control_c, 5, 11, 89
7, 155489, Control_c, 5, 11, 88
7, 155519, Control_c, 5, 11, 87
7, 155544, Control_c, 5, 11, 86
7, 155569, Control_c, 5, 11, 85
7, 155599, Control_c, 5, 11, 84
7, 155624, Control_c, 5, 11, 83
7, 155649, Control_c, 5, 11, 82
7, 155679, Control_c, 5, 11, 81
7, 155704, Control_c, 5, 11, 80
7, 155734, Control_c, 5, 11, 79
7, 155759, Control_c, 5, 11, 78
7, 155784, Control_c, 5, 11, 77
7, 155814, Control_c, 5, 11, 76
7, 155839, Control_c, 5, 11, 75
7, 155864, Control_c, 5, 11, 74
7, 155894, Control_c, 5, 11, 73
7, 155919, Control_c, 5, 11, 72
7, 155944, Control_c, 5, 11, 71
7, 155974, Control_c, 5, 11, 70
7, 155999, Control_c, 5, 11, 69
7, 156029, Control_c, 5, 11, 68
7, 156054, Control_c, 5, 11, 67
7, 156079, Control_c, 5, 11, 66
7, 156109, Control_c, 5, 11, 65
7, 156134, Control_c, 5, 11, 64
7, 156159, Control_c, 5, 11, 63
7, 156189, Control_c, 5, 11, 62
7, 156214, Control_c, 5, 11, 61
7, 156239, Control_c, 5, 11, 60
7, 156625, Note_on_c, 5, 52, 71
7, 156645, Note_on_c, 5, 47, 0
7, 157021, Note_on_c, 5, 52, 0
7, 157680, Control_c, 5, 11, 80
7, 157914, Note_on_c, 5, 54, 59
7, 158654, Note_on_c, 5, 52, 66
7, 158687, Note_on_c, 5, 54, 0
7, 158983, Note_on_c, 5, 51, 71
7, 159047, Note_on_c, 5, 52, 0
7, 159698, Note_on_c, 5, 52, 75
7, 159736, Note_on_c, 5, 51, 0
7, 160090, Note_on_c, 5, 54, 48
7, 160123, Note_on_c, 5, 52, 0
7, 160801, Note_on_c, 5, 51, 77
7, 160854, Note_on_c, 5, 54, 0
7, 161330, Note_on_c, 5, 52, 83
7, 161353, Note_on_c, 5, 51, 0
7, 162032, Note_on_c, 5, 50, 90
7, 162054, Note_on_c, 5, 52, 0
7, 162356, Note_on_c, 5, 48, 87
7, 162404, Note_on_c, 5, 50, 0
7, 163491, Note_on_c, 5, 47, 76
7, 163534, Note_on_c, 5, 48, 0
7, 164827, Note_on_c, 5, 45, 76
7, 164851, Note_on_c, 5, 47, 0
7, 166051, Note_on_c, 5, 47, 61
7, 166095, Note_on_c, 5, 45, 0
7, 166651, Note_on_c, 5, 47, 0
7, 167646, Program_c, 5, 45
7, 167646, Control_c, 5, 91, 120
7, 167646, Note_on_c, 5, 40, 51
7, 167977, Note_on_c, 5, 40, 0
7, 170160, Program_c, 5, 49
7, 170160, Control_c, 5, 91, 60
7, 170255, Note_on_c, 5, 40, 82
7, 172498, Note_on_c, 5, 39, 114
7, 172525, Note_on_c, 5, 40, 0
7, 173247, Note_on_c, 5, 40, 106
7, 173276, Note_on_c, 5, 39, 0
7, 173586, Note_on_c, 5, 40, 0
7, 173602, Note_on_c, 5, 42, 113
7, 173956, Note_on_c, 5, 43, 112
7, 173981, Note_on_c, 5, 42, 0
7, 174247, Note_on_c, 5, 44, 119
7, 174284, Note_on_c, 5, 43, 0
7, 174681, Control_c, 5, 11, 80
7, 174681, Note_on_c, 5, 45, 106
7, 174709, Note_on_c, 5, 44, 0
7, 174721, Control_c, 5, 11, 79
7, 174761, Control_c, 5, 11, 78
7, 174796, Control_c, 5, 11, 77
7, 174836, Control_c, 5, 11, 76
7, 174871, Control_c, 5, 11, 75
7, 174911, Control_c, 5, 11, 74
7, 174951, Control_c, 5, 11, 73
7, 174986, Control_c, 5, 11, 72
7, 175026, Control_c, 5, 11, 71
7, 175061, Control_c, 5, 11, 70
7, 175101, Control_c, 5, 11, 69
7, 175136, Control_c, 5, 11, 68
7, 175176, Control_c, 5, 11, 67
7, 175216, Control_c, 5, 11, 66
7, 175251, Control_c, 5, 11, 65
7, 175291, Control_c, 5, 11, 64
7, 175326, Control_c, 5, 11, 63
7, 175366, Control_c, 5, 11, 62
7, 175406, Control_c, 5, 11, 61
7, 175440, Control_c, 5, 11, 60
7, 175836, Note_on_c, 5, 47, 76
7, 175883, Note_on_c, 5, 45, 0
7, 176423, Note_on_c, 5, 47, 0
7, 176645, Note_on_c, 5, 47, 69
7, 177572, Note_on_c, 5, 52, 86
7, 177613, Note_on_c, 5, 47, 0
7, 179596, Note_on_c, 5, 52, 0
7, 180673, Note_on_c, 5, 59, 94
7, 180945, Note_on_c, 5, 59, 0
7, 180974, Note_on_c, 5, 52, 76
7, 182723, Note_on_c, 5, 52, 0
7, 183042, Note_on_c, 5, 53, 103
7, 183363, Note_on_c, 5, 54, 76
7, 183387, Note_on_c, 5, 53, 0
7, 183598, Note_on_c, 5, 54, 0
7, 183832, Note_on_c, 5, 42, 108
7, 184242, Note_on_c, 5, 47, 90
7, 184266, Note_on_c, 5, 42, 0
7, 186074, Note_on_c, 5, 47, 0
7, 187196, Note_on_c, 5, 54, 107
7, 187467, Note_on_c, 5, 54, 0
7, 187504, Note_on_c, 5, 47, 83
7, 190585, Note_on_c, 5, 51, 114
7, 190589, Note_on_c, 5, 47, 0
7, 190870, Note_on_c, 5, 52, 102
7, 190899, Note_on_c, 5, 51, 0
7, 191121, Note_on_c, 5, 52, 0
7, 191293, Note_on_c, 5, 52, 91
7, 192017, Note_on_c, 5, 52, 0
7, 192105, Note_on_c, 5, 55, 83
7, 192233, Note_on_c, 5, 55, 0
7, 192358, Note_on_c, 5, 55, 76
7, 192487, Note_on_c, 5, 55, 0
7, 192608, Note_on_c, 5, 54, 49
7, 192750, Note_on_c, 5, 54, 0
7, 194079, Note_on_c, 5, 54, 101
7, 194530, Note_on_c, 5, 54, 0
7, 194777, Note_on_c, 5, 55, 103
7, 195347, Note_on_c, 5, 57, 102
7, 195378, Note_on_c, 5, 55, 0
7, 195583, Note_on_c, 5, 60, 106
7, 195598, Note_on_c, 5, 57, 0
7, 195660, Note_on_c, 5, 60, 0
7, 195786, Note_on_c, 5, 60, 109
7, 195841, Note_on_c, 5, 60, 0
7, 196031, Note_on_c, 5, 59, 68
7, 196212, Note_on_c, 5, 59, 0
7, 197040, Control_c, 5, 11, 80
7, 197463, Note_on_c, 5, 60, 127
7, 197729, Note_on_c, 5, 60, 0
7, 197744, Note_on_c, 5, 60, 120
7, 197804, Note_on_c, 5, 60, 0
7, 198048, Note_on_c, 5, 48, 124
7, 198791, Note_on_c, 5, 48, 0
7, 198996, Note_on_c, 5, 60, 125
7, 199237, Note_on_c, 5, 59, 120
7, 199267, Note_on_c, 5, 60, 0
7, 199313, Note_on_c, 5, 59, 0
7, 199532, Note_on_c, 5, 47, 125
7, 200227, Note_on_c, 5, 47, 0
7, 200464, Note_on_c, 5, 59, 114
7, 200716, Note_on_c, 5, 58, 123
7, 200741, Note_on_c, 5, 59, 0
7, 200780, Note_on_c, 5, 58, 0
7, 200989, Note_on_c, 5, 46, 119
7, 201479, Note_on_c, 5, 46, 0
7, 201675, Note_on_c, 5, 46, 119
7, 201910, Note_on_c, 5, 47, 116
7, 201939, Note_on_c, 5, 46, 0
7, 202178, Note_on_c, 5, 47, 0
7, 202190, Note_on_c, 5, 48, 117
7, 202621, Note_on_c, 5, 48, 0
7, 203660, Note_on_c, 5, 48, 124
7, 204071, Control_c, 5, 11, 80
7, 204071, Note_on_c, 5, 47, 116
7, 204076, Control_c, 5, 11, 78
7, 204086, Control_c, 5, 11, 77
7, 204091, Control_c, 5, 11, 76
7, 204101, Control_c, 5, 11, 75
7, 204111, Note_on_c, 5, 48, 0
7, 204111, Control_c, 5, 11, 74
7, 204116, Control_c, 5, 11, 73
7, 204126, Control_c, 5, 11, 72
7, 204136, Control_c, 5, 11, 71
7, 204146, Control_c, 5, 11, 70
7, 204151, Control_c, 5, 11, 69
7, 204161, Control_c, 5, 11, 68
7, 204176, Control_c, 5, 11, 67
7, 204186, Control_c, 5, 11, 66
7, 204196, Control_c, 5, 11, 65
7, 204216, Control_c, 5, 11, 64
7, 204221, Control_c, 5, 11, 63
7, 204241, Control_c, 5, 11, 62
7, 204261, Control_c, 5, 11, 61
7, 204276, Control_c, 5, 11, 60
7, 204296, Control_c, 5, 11, 59
7, 204316, Control_c, 5, 11, 58
7, 204336, Control_c, 5, 11, 57
7, 204366, Control_c, 5, 11, 56
7, 204396, Control_c, 5, 11, 55
7, 204436, Control_c, 5, 11, 54
7, 204476, Control_c, 5, 11, 53
7, 204536, Control_c, 5, 11, 52
7, 204611, Control_c, 5, 11, 51
7, 204751, Control_c, 5, 11, 50
7, 205799, Note_on_c, 5, 47, 0
7, 207748, Control_c, 5, 11, 80
7, 207748, Note_on_c, 5, 48, 111
7, 208415, Note_on_c, 5, 47, 91
7, 208439, Note_on_c, 5, 48, 0
7, 209127, Note_on_c, 5, 45, 106
7, 209154, Note_on_c, 5, 47, 0
7, 210196, Note_on_c, 5, 42, 89
7, 210232, Note_on_c, 5, 45, 0
7, 211268, Note_on_c, 5, 42, 0
7, 213081, Control_c, 5, 11, 50
7, 213081, Note_on_c, 5, 47, 45
7, 213086, Control_c, 5, 11, 52
7, 213091, Control_c, 5, 11, 53
7, 213096, Control_c, 5, 11, 54
7, 213101, Control_c, 5, 11, 55
7, 213106, Control_c, 5, 11, 56
7, 213111, Control_c, 5, 11, 57
7, 213121, Control_c, 5, 11, 58
7, 213126, Control_c, 5, 11, 59
7, 213131, Control_c, 5, 11, 60
7, 213136, Control_c, 5, 11, 61
7, 213141, Control_c, 5, 11, 62
7, 213151, Control_c, 5, 11, 63
7, 213156, Control_c, 5, 11, 64
7, 213166, Control_c, 5, 11, 65
7, 213176, Control_c, 5, 11, 66
7, 213186, Control_c, 5, 11, 67
7, 213196, Control_c, 5, 11, 68
7, 213206, Control_c, 5, 11, 69
7, 213221, Control_c, 5, 11, 70
7, 213231, Control_c, 5, 11, 71
7, 213246, Control_c, 5, 11, 72
7, 213261, Control_c, 5, 11, 73
7, 213281, Control_c, 5, 11, 74
7, 213301, Control_c, 5, 11, 75
7, 213326, Control_c, 5, 11, 76
7, 213351, Control_c, 5, 11, 77
7, 213396, Control_c, 5, 11, 78
7, 213446, Control_c, 5, 11, 79
7, 213541, Control_c, 5, 11, 80
7, 214560, Control_c, 5, 11, 80
7, 214590, Control_c, 5, 11, 79
7, 214620, Control_c, 5, 11, 78
7, 214650, Control_c, 5, 11, 77
7, 214680, Control_c, 5, 11, 76
7, 214710, Control_c, 5, 11, 75
7, 214740, Control_c, 5, 11, 74
7, 214770, Control_c, 5, 11, 73
7, 214800, Control_c, 5, 11, 72
7, 214830, Control_c, 5, 11, 71
7, 214860, Control_c, 5, 11, 70
7, 214890, Control_c, 5, 11, 69
7, 214920, Control_c, 5, 11, 68
7, 214950, Control_c, 5, 11, 67
7, 214980, Control_c, 5, 11, 66
7, 215010, Control_c, 5, 11, 65
7, 215040, Control_c, 5, 11, 64
7, 215070, Control_c, 5, 11, 63
7, 215100, Control_c, 5, 11, 62
7, 215130, Control_c, 5, 11, 61
7, 215160, Control_c, 5, 11, 60
7, 215190, Control_c, 5, 11, 59
7, 215220, Control_c, 5, 11, 58
7, 215250, Control_c, 5, 11, 57
7, 215280, Control_c, 5, 11, 56
7, 215310, Control_c, 5, 11, 55
7, 215340, Control_c, 5, 11, 54
7, 215370, Control_c, 5, 11, 53
7, 215400, Control_c, 5, 11, 52
7, 215430, Control_c, 5, 11, 51
7, 215460, Control_c, 5, 11, 50
7, 215490, Control_c, 5, 11, 49
7, 215520, Control_c, 5, 11, 48
7, 215550, Control_c, 5, 11, 47
7, 215573, Note_on_c, 5, 47, 0
7, 215580, Control_c, 5, 11, 46
7, 215610, Control_c, 5, 11, 45
7, 215640, Control_c, 5, 11, 44
7, 215670, Control_c, 5, 11, 43
7, 215700, Control_c, 5, 11, 42
7, 215730, Control_c, 5, 11, 41
7, 215760, Control_c, 5, 11, 40
7, 224160, Control_c, 5, 11, 60
7, 224190, Note_on_c, 5, 42, 57
7, 224797, Note_on_c, 5, 40, 68
7, 224823, Note_on_c, 5, 42, 0
7, 225229, Note_on_c, 5, 40, 0
7, 231016, Note_on_c, 5, 47, 61
7, 232057, Note_on_c, 5, 40, 56
7, 232064, Note_on_c, 5, 47, 0
7, 232415, Note_on_c, 5, 40, 0
7, 233280, Program_c, 5, 45
7, 233280, Control_c, 5, 91, 120
7, 234536, Note_on_c, 5, 47, 78
7, 234591, Note_on_c, 5, 47, 0
7, 234827, Note_on_c, 5, 47, 100
7, 234876, Note_on_c, 5, 47, 0
7, 235117, Note_on_c, 5, 46, 93
7, 235249, Note_on_c, 5, 46, 0
7, 236577, Note_on_c, 5, 47, 84
7, 236619, Note_on_c, 5, 47, 0
7, 236900, Note_on_c, 5, 47, 84
7, 236962, Note_on_c, 5, 47, 0
7, 237600, Program_c, 5, 49
7, 237600, Control_c, 5, 91, 60
7, 238284, Control_c, 5, 11, 60
7, 238284, Note_on_c, 5, 47, 97
7, 238324, Control_c, 5, 11, 61
7, 238364, Control_c, 5, 11, 62
7, 238399, Control_c, 5, 11, 63
7, 238439, Control_c, 5, 11, 64
7, 238474, Control_c, 5, 11, 65
7, 238514, Control_c, 5, 11, 66
7, 238549, Control_c, 5, 11, 67
7, 238589, Control_c, 5, 11, 68
7, 238595, Note_on_c, 5, 46, 88
7, 238624, Control_c, 5, 11, 69
7, 238630, Note_on_c, 5, 47, 0
7, 238664, Control_c, 5, 11, 70
7, 238704, Control_c, 5, 11, 71
7, 238739, Control_c, 5, 11, 72
7, 238779, Control_c, 5, 11, 73
7, 238814, Control_c, 5, 11, 74
7, 238854, Control_c, 5, 11, 75
7, 238889, Control_c, 5, 11, 76
7, 238929, Control_c, 5, 11, 77
7, 238964, Control_c, 5, 11, 78
7, 239004, Control_c, 5, 11, 79
7, 239039, Control_c, 5, 11, 80
7, 239285, Note_on_c, 5, 46, 0
7, 239716, Note_on_c, 5, 47, 100
7, 240485, Note_on_c, 5, 52, 98
7, 240507, Note_on_c, 5, 47, 0
7, 241589, Note_on_c, 5, 47, 108
7, 241592, Note_on_c, 5, 52, 0
7, 242194, Control_c, 5, 11, 80
7, 242194, Note_on_c, 5, 40, 111
7, 242211, Note_on_c, 5, 47, 0
7, 242259, Control_c, 5, 11, 79
7, 242324, Control_c, 5, 11, 78
7, 242384, Control_c, 5, 11, 77
7, 242449, Control_c, 5, 11, 76
7, 242509, Control_c, 5, 11, 75
7, 242574, Control_c, 5, 11, 74
7, 242634, Control_c, 5, 11, 73
7, 242699, Control_c, 5, 11, 72
7, 242764, Control_c, 5, 11, 71
7, 242824, Control_c, 5, 11, 70
7, 242889, Control_c, 5, 11, 69
7, 242949, Control_c, 5, 11, 68
7, 243014, Control_c, 5, 11, 67
7, 243074, Control_c, 5, 11, 66
7, 243095, Note_on_c, 5, 47, 98
7, 243110, Note_on_c, 5, 40, 0
7, 243139, Control_c, 5, 11, 65
7, 243204, Control_c, 5, 11, 64
7, 243264, Control_c, 5, 11, 63
7, 243329, Control_c, 5, 11, 62
7, 243389, Control_c, 5, 11, 61
7, 243454, Control_c, 5, 11, 60
7, 243514, Control_c, 5, 11, 59
7, 243579, Control_c, 5, 11, 58
7, 243644, Control_c, 5, 11, 57
7, 243704, Control_c, 5, 11, 56
7, 243769, Control_c, 5, 11, 55
7, 243829, Control_c, 5, 11, 54
7, 243894, Control_c, 5, 11, 53
7, 243954, Control_c, 5, 11, 52
7, 244001, Note_on_c, 5, 45, 84
7, 244019, Control_c, 5, 11, 51
7, 244032, Note_on_c, 5, 47, 0
7, 244079, Control_c, 5, 11, 50
7, 244368, Note_on_c, 5, 45, 0
7, 244617, Note_on_c, 5, 44, 88
7, 244858, Note_on_c, 5, 44, 0
7, 245040, Control_c, 5, 11, 80
7, 245260, Note_on_c, 5, 51, 99
7, 245528, Note_on_c, 5, 52, 104
7, 245553, Note_on_c, 5, 51, 0
7, 245804, Note_on_c, 5, 52, 0
7, 245827, Control_c, 5, 11, 80
7, 245827, Note_on_c, 5, 46, 107
7, 245887, Control_c, 5, 11, 79
7, 245947, Control_c, 5, 11, 78
7, 246007, Control_c, 5, 11, 77
7, 246067, Control_c, 5, 11, 76
7, 246127, Control_c, 5, 11, 75
7, 246182, Control_c, 5, 11, 74
7, 246242, Control_c, 5, 11, 73
7, 246302, Control_c, 5, 11, 72
7, 246362, Control_c, 5, 11, 71
7, 246422, Control_c, 5, 11, 70
7, 246477, Control_c, 5, 11, 69
7, 246537, Control_c, 5, 11, 68
7, 246597, Control_c, 5, 11, 67
7, 246644, Control_c, 5, 11, 67
7, 246644, Note_on_c, 5, 45, 93
7, 246659, Note_on_c, 5, 46, 0
7, 246689, Control_c, 5, 11, 68
7, 246729, Control_c, 5, 11, 69
7, 246769, Control_c, 5, 11, 70
7, 246814, Control_c, 5, 11, 71
7, 246854, Control_c, 5, 11, 72
7, 246894, Control_c, 5, 11, 73
7, 246939, Control_c, 5, 11, 74
7, 246979, Control_c, 5, 11, 75
7, 247019, Control_c, 5, 11, 76
7, 247064, Control_c, 5, 11, 77
7, 247104, Control_c, 5, 11, 78
7, 247144, Control_c, 5, 11, 79
7, 247184, Control_c, 5, 11, 80
7, 247229, Control_c, 5, 11, 81
7, 247269, Control_c, 5, 11, 82
7, 247309, Control_c, 5, 11, 83
7, 247354, Control_c, 5, 11, 84
7, 247394, Control_c, 5, 11, 85
7, 247434, Control_c, 5, 11, 86
7, 247479, Control_c, 5, 11, 87
7, 247519, Control_c, 5, 11, 88
7, 247559, Control_c, 5, 11, 89
7, 247599, Control_c, 5, 11, 90
7, 247600, Control_c, 5, 11, 90
7, 247600, Note_on_c, 5, 44, 90
7, 247635, Control_c, 5, 11, 89
7, 247637, Note_on_c, 5, 45, 0
7, 247670, Control_c, 5, 11, 88
7, 247700, Control_c, 5, 11, 87
7, 247735, Control_c, 5, 11, 86
7, 247765, Control_c, 5, 11, 85
7, 247800, Control_c, 5, 11, 84
7, 247835, Control_c, 5, 11, 83
7, 247865, Control_c, 5, 11, 82
7, 247900, Control_c, 5, 11, 81
7, 247930, Control_c, 5, 11, 80
7, 247965, Control_c, 5, 11, 79
7, 247995, Control_c, 5, 11, 78
7, 248030, Control_c, 5, 11, 77
7, 248065, Control_c, 5, 11, 76
7, 248095, Control_c, 5, 11, 75
7, 248130, Control_c, 5, 11, 74
7, 248160, Control_c, 5, 11, 73
7, 248195, Control_c, 5, 11, 72
7, 248225, Control_c, 5, 11, 71
7, 248260, Control_c, 5, 11, 70
7, 248295, Control_c, 5, 11, 69
7, 248325, Control_c, 5, 11, 68
7, 248360, Control_c, 5, 11, 67
7, 248390, Control_c, 5, 11, 66
7, 248425, Control_c, 5, 11, 65
7, 248455, Control_c, 5, 11, 64
7, 248490, Control_c, 5, 11, 63
7, 248525, Control_c, 5, 11, 62
7, 248555, Control_c, 5, 11, 61
7, 248590, Control_c, 5, 11, 60
7, 248620, Control_c, 5, 11, 59
7, 248620, Control_c, 5, 11, 59
7, 248620, Note_on_c, 5, 45, 70
7, 248653, Note_on_c, 5, 44, 0
7, 248670, Control_c, 5, 11, 60
7, 248715, Control_c, 5, 11, 61
7, 248760, Control_c, 5, 11, 62
7, 248810, Control_c, 5, 11, 63
7, 248855, Control_c, 5, 11, 64
7, 248900, Control_c, 5, 11, 65
7, 248950, Control_c, 5, 11, 66
7, 248995, Control_c, 5, 11, 67
7, 249040, Control_c, 5, 11, 68
7, 249090, Control_c, 5, 11, 69
7, 249135, Control_c, 5, 11, 70
7, 249180, Control_c, 5, 11, 71
7, 249230, Control_c, 5, 11, 72
7, 249275, Control_c, 5, 11, 73
7, 249320, Control_c, 5, 11, 74
7, 249370, Control_c, 5, 11, 75
7, 249415, Control_c, 5, 11, 76
7, 249460, Control_c, 5, 11, 77
7, 249510, Control_c, 5, 11, 78
7, 249555, Control_c, 5, 11, 79
7, 249580, Note_on_c, 5, 44, 70
7, 249600, Control_c, 5, 11, 80
7, 249600, Control_c, 5, 11, 80
7, 249615, Note_on_c, 5, 45, 0
7, 249640, Control_c, 5, 11, 79
7, 249680, Control_c, 5, 11, 78
7, 249720, Control_c, 5, 11, 77
7, 249760, Control_c, 5, 11, 76
7, 249800, Control_c, 5, 11, 75
7, 249840, Control_c, 5, 11, 74
7, 249880, Control_c, 5, 11, 73
7, 249920, Control_c, 5, 11, 72
7, 249960, Control_c, 5, 11, 71
7, 250000, Control_c, 5, 11, 70
7, 250040, Control_c, 5, 11, 69
7, 250080, Control_c, 5, 11, 68
7, 250120, Control_c, 5, 11, 67
7, 250160, Control_c, 5, 11, 66
7, 250200, Control_c, 5, 11, 65
7, 250240, Control_c, 5, 11, 64
7, 250280, Control_c, 5, 11, 63
7, 250320, Control_c, 5, 11, 62
7, 250360, Control_c, 5, 11, 61
7, 250400, Control_c, 5, 11, 60
7, 250440, Control_c, 5, 11, 59
7, 250480, Control_c, 5, 11, 58
7, 250520, Control_c, 5, 11, 57
7, 250560, Control_c, 5, 11, 56
7, 250600, Control_c, 5, 11, 55
7, 250640, Control_c, 5, 11, 54
7, 250680, Control_c, 5, 11, 53
7, 250691, Note_on_c, 5, 45, 70
7, 250725, Control_c, 5, 11, 54
7, 250727, Note_on_c, 5, 44, 0
7, 250765, Control_c, 5, 11, 55
7, 250805, Control_c, 5, 11, 56
7, 250845, Control_c, 5, 11, 57
7, 250885, Control_c, 5, 11, 58
7, 250925, Control_c, 5, 11, 59
7, 250965, Control_c, 5, 11, 60
7, 251005, Control_c, 5, 11, 61
7, 251045, Control_c, 5, 11, 62
7, 251085, Control_c, 5, 11, 63
7, 251125, Control_c, 5, 11, 64
7, 251165, Control_c, 5, 11, 65
7, 251205, Control_c, 5, 11, 66
7, 251245, Control_c, 5, 11, 67
7, 251285, Control_c, 5, 11, 68
7, 251325, Control_c, 5, 11, 69
7, 251365, Control_c, 5, 11, 70
7, 251405, Control_c, 5, 11, 71
7, 251445, Control_c, 5, 11, 72
7, 251485, Control_c, 5, 11, 73
7, 251525, Control_c, 5, 11, 74
7, 251565, Control_c, 5, 11, 75
7, 251605, Control_c, 5, 11, 76
7, 251645, Control_c, 5, 11, 77
7, 251685, Control_c, 5, 11, 78
7, 251725, Control_c, 5, 11, 79
7, 251760, Control_c, 5, 11, 79
7, 251766, Note_on_c, 5, 44, 95
7, 251803, Note_on_c, 5, 45, 0
7, 251810, Control_c, 5, 11, 78
7, 251860, Control_c, 5, 11, 77
7, 251910, Control_c, 5, 11, 76
7, 251960, Control_c, 5, 11, 75
7, 252010, Control_c, 5, 11, 74
7, 252060, Control_c, 5, 11, 73
7, 252110, Control_c, 5, 11, 72
7, 252160, Control_c, 5, 11, 71
7, 252210, Control_c, 5, 11, 70
7, 252260, Control_c, 5, 11, 69
7, 252310, Control_c, 5, 11, 68
7, 252360, Control_c, 5, 11, 67
7, 252410, Control_c, 5, 11, 66
7, 252460, Control_c, 5, 11, 65
7, 252510, Control_c, 5, 11, 64
7, 252560, Control_c, 5, 11, 63
7, 252610, Control_c, 5, 11, 62
7, 252660, Control_c, 5, 11, 61
7, 252709, Control_c, 5, 11, 60
7, 252709, Note_on_c, 5, 45, 94
7, 252745, Note_on_c, 5, 44, 0
7, 253544, Note_on_c, 5, 44, 100
7, 253574, Note_on_c, 5, 45, 0
7, 255212, Note_on_c, 5, 42, 108
7, 255228, Note_on_c, 5, 44, 0
7, 256841, Note_on_c, 5, 40, 108
7, 256868, Note_on_c, 5, 42, 0
7, 257305, Note_on_c, 5, 40, 0
7, 257329, Note_on_c, 5, 49, 107
7, 257617, Note_on_c, 5, 49, 0
7, 257624, Note_on_c, 5, 48, 76
7, 258227, Note_on_c, 5, 47, 69
7, 258274, Note_on_c, 5, 48, 0
7, 258582, Note_on_c, 5, 52, 50
7, 258593, Note_on_c, 5, 47, 0
7, 259347, Note_on_c, 5, 52, 0
7, 263776, Note_on_c, 5, 46, 95
7, 264774, Note_on_c, 5, 49, 94
7, 264803, Note_on_c, 5, 46, 0
7, 264951, Note_on_c, 5, 49, 0
7, 265509, Note_on_c, 5, 49, 116
7, 265673, Note_on_c, 5, 49, 0
7, 266234, Note_on_c, 5, 48, 120
7, 266999, Note_on_c, 5, 47, 121
7, 267032, Note_on_c, 5, 48, 0
7, 267262, Note_on_c, 5, 47, 0
7, 267360, Program_c, 5, 45
7, 267360, Control_c, 5, 91, 120
7, 267928, Note_on_c, 5, 47, 112
7, 267957, Note_on_c, 5, 47, 0
7, 268136, Note_on_c, 5, 47, 120
7, 268166, Note_on_c, 5, 47, 0
7, 268338, Note_on_c, 5, 47, 121
7, 268372, Note_on_c, 5, 47, 0
7, 271032, Note_on_c, 5, 47, 113
7, 271067, Note_on_c, 5, 47, 0
7, 271440, Program_c, 5, 49
7, 271440, Control_c, 5, 91, 60
7, 271920, Control_c, 5, 11, 80
7, 272120, Note_on_c, 5, 47, 114
7, 272463, Note_on_c, 5, 40, 120
7, 272478, Note_on_c, 5, 47, 0
7, 272653, Note_on_c, 5, 40, 0
7, 272880, Program_c, 5, 45
7, 272880, Control_c, 5, 91, 120
7, 273236, Note_on_c, 5, 47, 126
7, 273283, Note_on_c, 5, 47, 0
7, 274017, Note_on_c, 5, 40, 126
7, 274097, Note_on_c, 5, 40, 0
7, 274687, Note_on_c, 5, 47, 121
7, 274757, Note_on_c, 5, 47, 0
7, 275760, Control_c, 5, 11, 60
7, 275940, Note_on_c, 5, 47, 107
7, 276176, Note_on_c, 5, 52, 111
7, 276178, Note_on_c, 5, 47, 0
7, 276338, Note_on_c, 5, 52, 0
7, 276594, Note_on_c, 5, 47, 118
7, 276824, Note_on_c, 5, 47, 0
7, 276828, Note_on_c, 5, 52, 111
7, 277000, Note_on_c, 5, 52, 0
7, 277377, Note_on_c, 5, 47, 127
7, 277437, Note_on_c, 5, 47, 0
7, 277519, Note_on_c, 5, 52, 126
7, 277668, Note_on_c, 5, 52, 0
7, 277920, Program_c, 5, 49
7, 277920, Control_c, 5, 91, 60
7, 278132, Note_on_c, 5, 47, 122
7, 278283, Note_on_c, 5, 47, 0
7, 278330, Note_on_c, 5, 50, 118
7, 278852, Note_on_c, 5, 49, 120
7, 278864, Note_on_c, 5, 50, 0
7, 279134, Note_on_c, 5, 49, 0
7, 279137, Note_on_c, 5, 55, 114
7, 279590, Note_on_c, 5, 54, 92
7, 279613, Note_on_c, 5, 55, 0
7, 279832, Note_on_c, 5, 54, 0
7, 279867, Note_on_c, 5, 48, 118
7, 280340, Note_on_c, 5, 47, 107
7, 280366, Note_on_c, 5, 48, 0
7, 280624, Note_on_c, 5, 47, 0
7, 280634, Note_on_c, 5, 53, 118
7, 281068, Note_on_c, 5, 52, 112
7, 281080, Note_on_c, 5, 53, 0
7, 281312, Note_on_c, 5, 51, 121
7, 281331, Note_on_c, 5, 52, 0
7, 281813, Note_on_c, 5, 51, 0
7, 281821, Note_on_c, 5, 58, 116
7, 282090, Note_on_c, 5, 59, 109
7, 282102, Note_on_c, 5, 58, 0
7, 282538, Note_on_c, 5, 57, 108
7, 282543, Note_on_c, 5, 59, 0
7, 282789, Note_on_c, 5, 59, 101
7, 282800, Note_on_c, 5, 57, 0
7, 283031, Note_on_c, 5, 59, 0
7, 283680, Control_c, 5, 11, 80
7, 283924, Note_on_c, 5, 47, 126
7, 284219, Note_on_c, 5, 47, 0
7, 284266, Note_on_c, 5, 52, 109
7, 284436, Note_on_c, 5, 52, 0
7, 284640, Program_c, 5, 45
7, 284640, Control_c, 5, 91, 120
7, 285159, Note_on_c, 5, 47, 114
7, 285264, Note_on_c, 5, 47, 0
7, 285930, Note_on_c, 5, 40, 121
7, 286023, Note_on_c, 5, 40, 0
7, 286685, Note_on_c, 5, 47, 120
7, 286808, Note_on_c, 5, 47, 0
7, 287760, Control_c, 5, 11, 60
7, 287981, Note_on_c, 5, 47, 112
7, 288220, Note_on_c, 5, 52, 96
7, 288225, Note_on_c, 5, 47, 0
7, 288387, Note_on_c, 5, 52, 0
7, 288673, Note_on_c, 5, 47, 120
7, 288903, Note_on_c, 5, 52, 116
7, 288918, Note_on_c, 5, 47, 0
7, 289038, Note_on_c, 5, 52, 0
7, 289455, Note_on_c, 5, 47, 126
7, 289493, Note_on_c, 5, 47, 0
7, 289583, Note_on_c, 5, 52, 127
7, 289734, Note_on_c, 5, 52, 0
7, 289920, Program_c, 5, 49
7, 289920, Control_c, 5, 91, 60
7, 290166, Note_on_c, 5, 47, 124
7, 290345, Note_on_c, 5, 47, 0
7, 290349, Note_on_c, 5, 38, 125
7, 290844, Note_on_c, 5, 37, 124
7, 290864, Note_on_c, 5, 38, 0
7, 291080, Note_on_c, 5, 43, 116
7, 291102, Note_on_c, 5, 37, 0
7, 291516, Note_on_c, 5, 43, 0
7, 291524, Note_on_c, 5, 42, 99
7, 291803, Note_on_c, 5, 48, 121
7, 291807, Note_on_c, 5, 42, 0
7, 292319, Note_on_c, 5, 47, 120
7, 292335, Note_on_c, 5, 48, 0
7, 292543, Note_on_c, 5, 47, 0
7, 292558, Note_on_c, 5, 53, 124
7, 293019, Note_on_c, 5, 52, 111
7, 293034, Note_on_c, 5, 53, 0
7, 293289, Note_on_c, 5, 51, 119
7, 293320, Note_on_c, 5, 52, 0
7, 293829, Note_on_c, 5, 58, 109
7, 293869, Note_on_c, 5, 51, 0
7, 294076, Note_on_c, 5, 59, 98
7, 294103, Note_on_c, 5, 58, 0
7, 294502, Note_on_c, 5, 57, 109
7, 294537, Note_on_c, 5, 59, 0
7, 294734, Note_on_c, 5, 59, 89
7, 294784, Note_on_c, 5, 57, 0
7, 295005, Note_on_c, 5, 59, 0
7, 295821, Control_c, 5, 11, 60
7, 295821, Note_on_c, 5, 59, 121
7, 295996, Control_c, 5, 11, 61
7, 296100, Note_on_c, 5, 59, 0
7, 296103, Note_on_c, 5, 53, 114
7, 296166, Control_c, 5, 11, 62
7, 296307, Note_on_c, 5, 53, 0
7, 296341, Control_c, 5, 11, 63
7, 296358, Note_on_c, 5, 54, 124
7, 296511, Control_c, 5, 11, 64
7, 296681, Control_c, 5, 11, 65
7, 296780, Note_on_c, 5, 54, 0
7, 296810, Note_on_c, 5, 55, 118
7, 296856, Control_c, 5, 11, 66
7, 297026, Control_c, 5, 11, 67
7, 297077, Note_on_c, 5, 56, 123
7, 297105, Note_on_c, 5, 55, 0
7, 297196, Control_c, 5, 11, 68
7, 297371, Control_c, 5, 11, 69
7, 297541, Control_c, 5, 11, 70
7, 297547, Note_on_c, 5, 56, 0
7, 297570, Note_on_c, 5, 58, 119
7, 297711, Control_c, 5, 11, 71
7, 297886, Control_c, 5, 11, 72
7, 297887, Note_on_c, 5, 59, 121
7, 297920, Note_on_c, 5, 58, 0
7, 298056, Control_c, 5, 11, 73
7, 298226, Control_c, 5, 11, 74
7, 298301, Note_on_c, 5, 59, 0
7, 298360, Note_on_c, 5, 60, 126
7, 298401, Control_c, 5, 11, 75
7, 298571, Control_c, 5, 11, 76
7, 298657, Note_on_c, 5, 61, 126
7, 298685, Note_on_c, 5, 60, 0
7, 298741, Control_c, 5, 11, 77
7, 298908, Note_on_c, 5, 61, 0
7, 298914, Note_on_c, 5, 49, 121
7, 298916, Control_c, 5, 11, 78
7, 299086, Control_c, 5, 11, 79
7, 299231, Note_on_c, 5, 49, 0
7, 299256, Control_c, 5, 11, 80
7, 299256, Note_on_c, 5, 47, 122
7, 299512, Note_on_c, 5, 47, 0
7, 299804, Note_on_c, 5, 47, 96
7, 300086, Note_on_c, 5, 47, 0
7, 300088, Note_on_c, 5, 52, 87
7, 300272, Note_on_c, 5, 52, 0
7, 300545, Note_on_c, 5, 47, 94
7, 300833, Note_on_c, 5, 52, 81
7, 300834, Note_on_c, 5, 47, 0
7, 301006, Note_on_c, 5, 52, 0
7, 301302, Note_on_c, 5, 47, 88
7, 302773, Note_on_c, 5, 47, 0
7, 307680, Control_c, 5, 11, 80
7, 307780, Control_c, 5, 11, 81
7, 307875, Control_c, 5, 11, 82
7, 307970, Control_c, 5, 11, 83
7, 308065, Control_c, 5, 11, 84
7, 308160, Control_c, 5, 11, 85
7, 308178, Note_on_c, 5, 47, 120
7, 308260, Control_c, 5, 11, 86
7, 308355, Control_c, 5, 11, 87
7, 308450, Control_c, 5, 11, 88
7, 308545, Control_c, 5, 11, 89
7, 308640, Control_c, 5, 11, 90
7, 308740, Control_c, 5, 11, 91
7, 308835, Control_c, 5, 11, 92
7, 308930, Control_c, 5, 11, 93
7, 309017, Note_on_c, 5, 47, 0
7, 309025, Control_c, 5, 11, 94
7, 309062, Note_on_c, 5, 47, 126
7, 309120, Control_c, 5, 11, 95
7, 309220, Control_c, 5, 11, 96
7, 309262, Note_on_c, 5, 47, 0
7, 309315, Control_c, 5, 11, 97
7, 309344, Note_on_c, 5, 47, 126
7, 309410, Control_c, 5, 11, 98
7, 309498, Note_on_c, 5, 47, 0
7, 309505, Control_c, 5, 11, 99
7, 309600, Control_c, 5, 11, 100
7, 309603, Note_on_c, 5, 47, 124
7, 309643, Note_on_c, 5, 47, 0
7, 309727, Note_on_c, 5, 47, 118
7, 309760, Note_on_c, 5, 47, 0
7, 309868, Note_on_c, 5, 47, 118
7, 309899, Note_on_c, 5, 47, 0
7, 309983, Note_on_c, 5, 47, 111
7, 310017, Note_on_c, 5, 47, 0
7, 310100, Note_on_c, 5, 47, 112
7, 310136, Note_on_c, 5, 47, 0
7, 310217, Note_on_c, 5, 47, 118
7, 310252, Note_on_c, 5, 47, 0
7, 310345, Note_on_c, 5, 47, 122
7, 310380, Note_on_c, 5, 47, 0
7, 310463, Note_on_c, 5, 47, 112
7, 310501, Note_on_c, 5, 47, 0
7, 310590, Note_on_c, 5, 47, 113
7, 310627, Note_on_c, 5, 47, 0
7, 310705, Note_on_c, 5, 47, 106
7, 310745, Note_on_c, 5, 47, 0
7, 310827, Note_on_c, 5, 47, 107
7, 310867, Note_on_c, 5, 47, 0
7, 310946, Note_on_c, 5, 47, 112
7, 310985, Note_on_c, 5, 47, 0
7, 311072, Note_on_c, 5, 47, 121
7, 311110, Note_on_c, 5, 47, 0
7, 311195, Note_on_c, 5, 47, 112
7, 311231, Note_on_c, 5, 47, 0
7, 311325, Note_on_c, 5, 47, 112
7, 311362, Note_on_c, 5, 47, 0
7, 311441, Note_on_c, 5, 47, 114
7, 311481, Note_on_c, 5, 47, 0
7, 311566, Note_on_c, 5, 47, 111
7, 311603, Note_on_c, 5, 47, 0
7, 311683, Note_on_c, 5, 47, 114
7, 311718, Note_on_c, 5, 47, 0
7, 311803, Note_on_c, 5, 47, 121
7, 311838, Note_on_c, 5, 47, 0
7, 311922, Note_on_c, 5, 47, 114
7, 311957, Note_on_c, 5, 47, 0
7, 312046, Note_on_c, 5, 47, 109
7, 312081, Note_on_c, 5, 47, 0
7, 312160, Note_on_c, 5, 47, 111
7, 312196, Note_on_c, 5, 47, 0
7, 312276, Note_on_c, 5, 47, 112
7, 312312, Note_on_c, 5, 47, 0
7, 312403, Note_on_c, 5, 47, 114
7, 312438, Note_on_c, 5, 47, 0
7, 312542, Note_on_c, 5, 47, 126
7, 312862, Note_on_c, 5, 47, 0
7, 312899, Note_on_c, 5, 46, 109
7, 312958, Note_on_c, 5, 46, 0
7, 313025, Note_on_c, 5, 47, 113
7, 313118, Note_on_c, 5, 47, 0
7, 313145, Note_on_c, 5, 52, 116
7, 313233, Note_on_c, 5, 52, 0
7, 313291, Note_on_c, 5, 58, 124
7, 313400, Note_on_c, 5, 58, 0
7, 313548, Note_on_c, 5, 59, 118
7, 313661, Note_on_c, 5, 59, 0
7, 313788, Note_on_c, 5, 56, 121
7, 313905, Note_on_c, 5, 56, 0
7, 314031, Note_on_c, 5, 57, 116
7, 314143, Note_on_c, 5, 57, 0
7, 314271, Note_on_c, 5, 59, 114
7, 314366, Note_on_c, 5, 59, 0
7, 314516, Note_on_c, 5, 60, 122
7, 314590, Note_on_c, 5, 60, 0
7, 314756, Note_on_c, 5, 51, 119
7, 314851, Note_on_c, 5, 51, 0
7, 315000, Note_on_c, 5, 52, 116
7, 315096, Note_on_c, 5, 52, 0
7, 315243, Note_on_c, 5, 48, 121
7, 315343, Note_on_c, 5, 48, 0
7, 315485, Note_on_c, 5, 47, 124
7, 315555, Note_on_c, 5, 47, 0
7, 315747, Note_on_c, 5, 47, 118
7, 315867, Note_on_c, 5, 46, 118
7, 315894, Note_on_c, 5, 47, 0
7, 315987, Note_on_c, 5, 47, 118
7, 316006, Note_on_c, 5, 46, 0
7, 316084, Note_on_c, 5, 47, 0
7, 316094, Note_on_c, 5, 51, 121
7, 316184, Note_on_c, 5, 51, 0
7, 316231, Note_on_c, 5, 54, 119
7, 316434, Note_on_c, 5, 54, 0
7, 316469, Note_on_c, 5, 55, 117
7, 316556, Note_on_c, 5, 55, 0
7, 316720, Note_on_c, 5, 52, 125
7, 316771, Note_on_c, 5, 52, 0
7, 316967, Note_on_c, 5, 47, 126
7, 317027, Note_on_c, 5, 47, 0
7, 317219, Note_on_c, 5, 47, 107
7, 317323, Note_on_c, 5, 46, 109
7, 317350, Note_on_c, 5, 47, 0
7, 317437, Note_on_c, 5, 47, 109
7, 317443, Note_on_c, 5, 46, 0
7, 317537, Note_on_c, 5, 47, 0
7, 317548, Note_on_c, 5, 52, 101
7, 317634, Note_on_c, 5, 52, 0
7, 317686, Note_on_c, 5, 55, 108
7, 317899, Note_on_c, 5, 55, 0
7, 317918, Note_on_c, 5, 56, 119
7, 317985, Note_on_c, 5, 56, 0
7, 318172, Note_on_c, 5, 53, 117
7, 318216, Note_on_c, 5, 53, 0
7, 318406, Note_on_c, 5, 47, 120
7, 318455, Note_on_c, 5, 47, 0
7, 318653, Note_on_c, 5, 47, 113
7, 318763, Note_on_c, 5, 46, 109
7, 318764, Note_on_c, 5, 47, 0
7, 318866, Note_on_c, 5, 46, 0
7, 318891, Note_on_c, 5, 47, 94
7, 318950, Note_on_c, 5, 47, 0
7, 318989, Note_on_c, 5, 53, 112
7, 319076, Note_on_c, 5, 53, 0
7, 319114, Note_on_c, 5, 56, 120
7, 319320, Note_on_c, 5, 56, 0
7, 319348, Note_on_c, 5, 57, 121
7, 319427, Note_on_c, 5, 57, 0
7, 319618, Note_on_c, 5, 47, 120
7, 319662, Note_on_c, 5, 47, 0
7, 319851, Note_on_c, 5, 57, 121
7, 320052, Note_on_c, 5, 57, 0
7, 320082, Note_on_c, 5, 58, 119
7, 320149, Note_on_c, 5, 58, 0
7, 320322, Note_on_c, 5, 46, 126
7, 320386, Note_on_c, 5, 46, 0
7, 320559, Note_on_c, 5, 58, 119
7, 320741, Note_on_c, 5, 58, 0
7, 320793, Note_on_c, 5, 59, 117
7, 320857, Note_on_c, 5, 59, 0
7, 321040, Note_on_c, 5, 45, 127
7, 321231, Note_on_c, 5, 45, 0
7, 321286, Note_on_c, 5, 45, 124
7, 321322, Note_on_c, 5, 45, 0
7, 321400, Note_on_c, 5, 45, 108
7, 321439, Note_on_c, 5, 45, 0
7, 321517, Note_on_c, 5, 45, 111
7, 321555, Note_on_c, 5, 45, 0
7, 321635, Note_on_c, 5, 45, 112
7, 321674, Note_on_c, 5, 45, 0
7, 321754, Note_on_c, 5, 45, 108
7, 321792, Note_on_c, 5, 45, 0
7, 321870, Note_on_c, 5, 45, 111
7, 321908, Note_on_c, 5, 45, 0
7, 321994, Note_on_c, 5, 45, 114
7, 322035, Note_on_c, 5, 45, 0
7, 322113, Note_on_c, 5, 45, 112
7, 322152, Note_on_c, 5, 45, 0
7, 322233, Note_on_c, 5, 57, 106
7, 322274, Note_on_c, 5, 57, 0
7, 322359, Note_on_c, 5, 57, 112
7, 322396, Note_on_c, 5, 57, 0
7, 322478, Note_on_c, 5, 58, 126
7, 322521, Note_on_c, 5, 58, 0
7, 322589, Note_on_c, 5, 58, 118
7, 322654, Note_on_c, 5, 58, 0
7, 322711, Note_on_c, 5, 59, 112
7, 322771, Note_on_c, 5, 59, 0
7, 322822, Note_on_c, 5, 59, 100
7, 322882, Note_on_c, 5, 59, 0
7, 322958, Note_on_c, 5, 47, 103
7, 323005, Note_on_c, 5, 47, 0
7, 323066, Note_on_c, 5, 47, 108
7, 323112, Note_on_c, 5, 47, 0
7, 323193, Note_on_c, 5, 45, 119
7, 323237, Note_on_c, 5, 45, 0
7, 323309, Note_on_c, 5, 45, 96
7, 323356, Note_on_c, 5, 45, 0
7, 323433, Note_on_c, 5, 45, 117
7, 323475, Note_on_c, 5, 45, 0
7, 323535, Note_on_c, 5, 45, 101
7, 323574, Note_on_c, 5, 45, 0
7, 323663, Note_on_c, 5, 57, 114
7, 323705, Note_on_c, 5, 57, 0
7, 323784, Note_on_c, 5, 57, 111
7, 323826, Note_on_c, 5, 57, 0
7, 323908, Note_on_c, 5, 55, 112
7, 323950, Note_on_c, 5, 55, 0
7, 324016, Note_on_c, 5, 55, 92
7, 324066, Note_on_c, 5, 55, 0
7, 324152, Note_on_c, 5, 54, 118
7, 324188, Note_on_c, 5, 54, 0
7, 324262, Note_on_c, 5, 54, 116
7, 324299, Note_on_c, 5, 54, 0
7, 324393, Note_on_c, 5, 55, 111
7, 324432, Note_on_c, 5, 55, 0
7, 324500, Note_on_c, 5, 55, 108
7, 324542, Note_on_c, 5, 55, 0
7, 324619, Note_on_c, 5, 54, 121
7, 324657, Note_on_c, 5, 54, 0
7, 324728, Note_on_c, 5, 54, 124
7, 324762, Note_on_c, 5, 54, 0
7, 324860, Note_on_c, 5, 52, 117
7, 324896, Note_on_c, 5, 52, 0
7, 324967, Note_on_c, 5, 52, 118
7, 325004, Note_on_c, 5, 52, 0
7, 325092, Note_on_c, 5, 54, 121
7, 325129, Note_on_c, 5, 54, 0
7, 325214, Note_on_c, 5, 54, 118
7, 325249, Note_on_c, 5, 54, 0
7, 325328, Note_on_c, 5, 52, 114
7, 325372, Note_on_c, 5, 52, 0
7, 325435, Note_on_c, 5, 52, 118
7, 325480, Note_on_c, 5, 52, 0
7, 325569, Note_on_c, 5, 51, 126
7, 325613, Note_on_c, 5, 51, 0
7, 325827, Note_on_c, 5, 52, 126
7, 325921, Note_on_c, 5, 52, 0
7, 330320, Note_on_c, 5, 58, 105
7, 330556, Note_on_c, 5, 58, 0
7, 330577, Note_on_c, 5, 59, 106
7, 330812, Note_on_c, 5, 57, 108
7, 330843, Note_on_c, 5, 59, 0
7, 331050, Note_on_c, 5, 55, 108
7, 331063, Note_on_c, 5, 57, 0
7, 331276, Note_on_c, 5, 55, 0
7, 331292, Note_on_c, 5, 54, 119
7, 331509, Note_on_c, 5, 54, 0
7, 331510, Note_on_c, 5, 52, 109
7, 331733, Note_on_c, 5, 51, 124
7, 331764, Note_on_c, 5, 52, 0
7, 331968, Note_on_c, 5, 51, 0
7, 331976, Note_on_c, 5, 52, 117
7, 332001, Note_on_c, 5, 51, 41
7, 332019, Note_on_c, 5, 51, 0
7, 332077, Note_on_c, 5, 52, 0
7, 332223, Note_on_c, 5, 47, 122
7, 332665, Note_on_c, 5, 47, 0
7, 332676, Note_on_c, 5, 52, 117
7, 332750, Note_on_c, 5, 52, 0
7, 332910, Note_on_c, 5, 47, 122
7, 333349, Note_on_c, 5, 46, 124
7, 333354, Note_on_c, 5, 47, 0
7, 333546, Note_on_c, 5, 46, 0
7, 333589, Note_on_c, 5, 58, 123
7, 333807, Note_on_c, 5, 58, 0
7, 333828, Note_on_c, 5, 57, 112
7, 334025, Note_on_c, 5, 57, 0
7, 334058, Note_on_c, 5, 57, 111
7, 334268, Note_on_c, 5, 55, 112
7, 334271, Note_on_c, 5, 57, 0
7, 334457, Note_on_c, 5, 55, 0
7, 334510, Note_on_c, 5, 48, 122
7, 334721, Note_on_c, 5, 48, 0
7, 334740, Note_on_c, 5, 47, 120
7, 334809, Note_on_c, 5, 47, 0
7, 334994, Note_on_c, 5, 47, 124
7, 335465, Note_on_c, 5, 47, 0
7, 335473, Note_on_c, 5, 52, 106
7, 335559, Note_on_c, 5, 52, 0
7, 335713, Note_on_c, 5, 47, 124
7, 336172, Note_on_c, 5, 47, 0
7, 336200, Note_on_c, 5, 52, 109
7, 336321, Note_on_c, 5, 52, 0
7, 336480, Program_c, 5, 45
7, 336480, Control_c, 5, 91, 120
7, 336686, Note_on_c, 5, 40, 63
7, 336739, Note_on_c, 5, 40, 0
7, 336937, Note_on_c, 5, 45, 67
7, 336980, Note_on_c, 5, 45, 0
7, 337456, Note_on_c, 5, 52, 74
7, 337494, Note_on_c, 5, 52, 0
7, 337716, Note_on_c, 5, 45, 59
7, 337760, Note_on_c, 5, 45, 0
7, 338226, Note_on_c, 5, 47, 59
7, 338283, Note_on_c, 5, 47, 0
7, 338489, Note_on_c, 5, 52, 55
7, 338541, Note_on_c, 5, 52, 0
7, 338978, Note_on_c, 5, 59, 33
7, 339035, Note_on_c, 5, 59, 0
7, 339266, Note_on_c, 5, 52, 31
7, 339323, Note_on_c, 5, 52, 0
7, 339600, Program_c, 5, 49
7, 339600, Control_c, 5, 91, 60
7, 339773, Note_on_c, 5, 52, 42
7, 340050, Note_on_c, 5, 57, 47
7, 340099, Note_on_c, 5, 52, 0
7, 340510, Note_on_c, 5, 56, 55
7, 340598, Note_on_c, 5, 57, 0
7, 340798, Note_on_c, 5, 57, 45
7, 340841, Note_on_c, 5, 56, 0
7, 341064, Note_on_c, 5, 57, 0
7, 341280, Control_c, 5, 11, 80
7, 341366, Note_on_c, 5, 51, 49
7, 341662, Note_on_c, 5, 52, 57
7, 341703, Note_on_c, 5, 51, 0
7, 341968, Note_on_c, 5, 45, 51
7, 341981, Note_on_c, 5, 52, 0
7, 342306, Note_on_c, 5, 47, 51
7, 342378, Note_on_c, 5, 45, 0
7, 342695, Note_on_c, 5, 52, 38
7, 342715, Note_on_c, 5, 47, 0
7, 343661, Control_c, 5, 11, 80
7, 343661, Note_on_c, 5, 45, 43
7, 343724, Note_on_c, 5, 52, 0
7, 343814, Control_c, 5, 11, 81
7, 343967, Control_c, 5, 11, 82
7, 344120, Control_c, 5, 11, 83
7, 344259, Note_on_c, 5, 47, 48
7, 344273, Control_c, 5, 11, 84
7, 344358, Note_on_c, 5, 45, 0
7, 344426, Control_c, 5, 11, 85
7, 344579, Control_c, 5, 11, 86
7, 344592, Note_on_c, 5, 48, 52
7, 344681, Note_on_c, 5, 47, 0
7, 344732, Control_c, 5, 11, 87
7, 344885, Control_c, 5, 11, 88
7, 345038, Control_c, 5, 11, 89
7, 345190, Control_c, 5, 11, 90
7, 345343, Control_c, 5, 11, 91
7, 345496, Control_c, 5, 11, 92
7, 345598, Note_on_c, 5, 55, 53
7, 345639, Note_on_c, 5, 48, 0
7, 345649, Control_c, 5, 11, 93
7, 345802, Control_c, 5, 11, 94
7, 345955, Control_c, 5, 11, 95
7, 346108, Control_c, 5, 11, 96
7, 346261, Control_c, 5, 11, 97
7, 346414, Control_c, 5, 11, 98
7, 346567, Control_c, 5, 11, 99
7, 346719, Control_c, 5, 11, 100
7, 346720, Control_c, 5, 11, 100
7, 346720, Note_on_c, 5, 57, 61
7, 346721, Control_c, 5, 11, 99
7, 346723, Control_c, 5, 11, 98
7, 346725, Control_c, 5, 11, 97
7, 346729, Control_c, 5, 11, 96
7, 346733, Control_c, 5, 11, 95
7, 346737, Control_c, 5, 11, 94
7, 346740, Control_c, 5, 11, 93
7, 346744, Control_c, 5, 11, 92
7, 346749, Control_c, 5, 11, 91
7, 346754, Control_c, 5, 11, 90
7, 346760, Control_c, 5, 11, 89
7, 346765, Control_c, 5, 11, 88
7, 346773, Note_on_c, 5, 55, 0
7, 346773, Control_c, 5, 11, 87
7, 346780, Control_c, 5, 11, 86
7, 346789, Control_c, 5, 11, 85
7, 346800, Control_c, 5, 11, 84
7, 346811, Control_c, 5, 11, 83
7, 346828, Control_c, 5, 11, 82
7, 346851, Control_c, 5, 11, 81
7, 346891, Control_c, 5, 11, 80
7, 346940, Control_c, 5, 11, 81
7, 346989, Control_c, 5, 11, 82
7, 347038, Control_c, 5, 11, 83
7, 347087, Control_c, 5, 11, 84
7, 347136, Control_c, 5, 11, 85
7, 347185, Control_c, 5, 11, 86
7, 347234, Control_c, 5, 11, 87
7, 347283, Control_c, 5, 11, 88
7, 347332, Control_c, 5, 11, 89
7, 347381, Control_c, 5, 11, 90
7, 347430, Control_c, 5, 11, 91
7, 347479, Control_c, 5, 11, 92
7, 347528, Control_c, 5, 11, 93
7, 347577, Control_c, 5, 11, 94
7, 347626, Control_c, 5, 11, 95
7, 347675, Control_c, 5, 11, 96
7, 347724, Control_c, 5, 11, 97
7, 347773, Control_c, 5, 11, 98
7, 347822, Control_c, 5, 11, 99
7, 347870, Control_c, 5, 11, 100
7, 347871, Note_on_c, 5, 53, 55
7, 347955, Note_on_c, 5, 57, 0
7, 349019, Control_c, 5, 11, 100
7, 349019, Note_on_c, 5, 55, 42
7, 349044, Note_on_c, 5, 53, 0
7, 349100, Control_c, 5, 11, 99
7, 349181, Control_c, 5, 11, 98
7, 349262, Control_c, 5, 11, 97
7, 349343, Control_c, 5, 11, 96
7, 349424, Control_c, 5, 11, 95
7, 349505, Control_c, 5, 11, 94
7, 349586, Control_c, 5, 11, 93
7, 349667, Control_c, 5, 11, 92
7, 349748, Control_c, 5, 11, 91
7, 349829, Control_c, 5, 11, 90
7, 349910, Control_c, 5, 11, 89
7, 349991, Control_c, 5, 11, 88
7, 350072, Control_c, 5, 11, 87
7, 350153, Control_c, 5, 11, 86
7, 350234, Control_c, 5, 11, 85
7, 350315, Control_c, 5, 11, 84
7, 350396, Control_c, 5, 11, 83
7, 350477, Control_c, 5, 11, 82
7, 350558, Control_c, 5, 11, 81
7, 350639, Control_c, 5, 11, 80
7, 350699, Control_c, 5, 11, 79
7, 350759, Control_c, 5, 11, 78
7, 350819, Control_c, 5, 11, 77
7, 350879, Control_c, 5, 11, 76
7, 350939, Control_c, 5, 11, 75
7, 350999, Control_c, 5, 11, 74
7, 351059, Control_c, 5, 11, 73
7, 351119, Control_c, 5, 11, 72
7, 351179, Control_c, 5, 11, 71
7, 351239, Control_c, 5, 11, 70
7, 351299, Control_c, 5, 11, 69
7, 351359, Control_c, 5, 11, 68
7, 351419, Control_c, 5, 11, 67
7, 351479, Control_c, 5, 11, 66
7, 351539, Control_c, 5, 11, 65
7, 351599, Control_c, 5, 11, 64
7, 351659, Control_c, 5, 11, 63
7, 351719, Control_c, 5, 11, 62
7, 351779, Control_c, 5, 11, 61
7, 351821, Note_on_c, 5, 55, 0
7, 351839, Control_c, 5, 11, 60
7, 354996, Note_on_c, 5, 48, 54
7, 357748, Note_on_c, 5, 48, 0
7, 359714, Note_on_c, 5, 47, 55
7, 360996, Note_on_c, 5, 48, 61
7, 361035, Note_on_c, 5, 47, 0
7, 361965, Note_on_c, 5, 47, 65
7, 362045, Note_on_c, 5, 48, 0
7, 362457, Note_on_c, 5, 45, 52
7, 362548, Note_on_c, 5, 47, 0
7, 363660, Note_on_c, 5, 45, 0
7, 365052, Note_on_c, 5, 44, 75
7, 366515, Note_on_c, 5, 44, 0
7, 367283, Note_on_c, 5, 43, 90
7, 369288, Note_on_c, 5, 43, 0
7, 370190, Note_on_c, 5, 41, 59
7, 370864, Note_on_c, 5, 41, 0
7, 372364, Note_on_c, 5, 50, 71
7, 373669, Note_on_c, 5, 48, 54
7, 373722, Note_on_c, 5, 50, 0
7, 374185, Note_on_c, 5, 48, 0
7, 374974, Note_on_c, 5, 50, 81
7, 376242, Note_on_c, 5, 48, 72
7, 376278, Note_on_c, 5, 50, 0
7, 376830, Note_on_c, 5, 47, 76
7, 376872, Note_on_c, 5, 48, 0
7, 377833, Note_on_c, 5, 48, 65
7, 377857, Note_on_c, 5, 47, 0
7, 378435, Note_on_c, 5, 53, 70
7, 378481, Note_on_c, 5, 48, 0
7, 379283, Note_on_c, 5, 47, 71
7, 379300, Note_on_c, 5, 53, 0
7, 379837, Note_on_c, 5, 47, 0
7, 379893, Note_on_c, 5, 52, 66
7, 380988, Note_on_c, 5, 45, 57
7, 381047, Note_on_c, 5, 52, 0
7, 381561, Control_c, 5, 11, 60
7, 381561, Note_on_c, 5, 41, 79
7, 381591, Note_on_c, 5, 45, 0
7, 381632, Control_c, 5, 11, 59
7, 381703, Control_c, 5, 11, 58
7, 381774, Control_c, 5, 11, 57
7, 381845, Control_c, 5, 11, 56
7, 381916, Control_c, 5, 11, 55
7, 381987, Control_c, 5, 11, 54
7, 382058, Control_c, 5, 11, 53
7, 382129, Control_c, 5, 11, 52
7, 382200, Control_c, 5, 11, 51
7, 382271, Control_c, 5, 11, 50
7, 382342, Control_c, 5, 11, 49
7, 382413, Control_c, 5, 11, 48
7, 382484, Control_c, 5, 11, 47
7, 382555, Control_c, 5, 11, 46
7, 382626, Control_c, 5, 11, 45
7, 382697, Control_c, 5, 11, 44
7, 382768, Control_c, 5, 11, 43
7, 382839, Control_c, 5, 11, 42
7, 382910, Control_c, 5, 11, 41
7, 382981, Control_c, 5, 11, 40
7, 383052, Control_c, 5, 11, 39
7, 383123, Control_c, 5, 11, 38
7, 383194, Control_c, 5, 11, 37
7, 383265, Control_c, 5, 11, 36
7, 383336, Control_c, 5, 11, 35
7, 383407, Control_c, 5, 11, 34
7, 383478, Control_c, 5, 11, 33
7, 383549, Control_c, 5, 11, 32
7, 383620, Control_c, 5, 11, 31
7, 383691, Control_c, 5, 11, 30
7, 383692, Note_on_c, 5, 40, 95
7, 383715, Note_on_c, 5, 41, 0
7, 383938, Note_on_c, 5, 40, 0
7, 384480, Control_c, 5, 11, 100
7, 384563, Program_c, 5, 45
7, 384563, Control_c, 5, 91, 120
7, 384563, Note_on_c, 5, 47, 76
7, 384596, Note_on_c, 5, 47, 0
7, 384700, Note_on_c, 5, 52, 82
7, 384733, Note_on_c, 5, 52, 0
7, 385364, Note_on_c, 5, 47, 80
7, 385397, Note_on_c, 5, 47, 0
7, 385513, Note_on_c, 5, 52, 89
7, 385538, Note_on_c, 5, 52, 0
7, 386949, Program_c, 5, 49
7, 386949, Control_c, 5, 91, 60
7, 386949, Note_on_c, 5, 52, 91
7, 387251, Note_on_c, 5, 50, 99
7, 387280, Note_on_c, 5, 52, 0
7, 387465, Note_on_c, 5, 50, 0
7, 388004, Program_c, 5, 45
7, 388004, Control_c, 5, 91, 120
7, 388004, Note_on_c, 5, 50, 73
7, 388025, Note_on_c, 5, 50, 0
7, 388148, Note_on_c, 5, 50, 86
7, 388177, Note_on_c, 5, 50, 0
7, 388810, Note_on_c, 5, 50, 83
7, 388841, Note_on_c, 5, 50, 0
7, 388972, Note_on_c, 5, 50, 97
7, 389000, Note_on_c, 5, 50, 0
7, 390240, Program_c, 5, 49
7, 390240, Control_c, 5, 91, 60
7, 390429, Note_on_c, 5, 50, 90
7, 390762, Note_on_c, 5, 48, 92
7, 390769, Note_on_c, 5, 50, 0
7, 390995, Note_on_c, 5, 48, 0
7, 391085, Note_on_c, 5, 60, 88
7, 391350, Note_on_c, 5, 51, 95
7, 391353, Note_on_c, 5, 60, 0
7, 391627, Note_on_c, 5, 52, 84
7, 391657, Note_on_c, 5, 51, 0
7, 391857, Note_on_c, 5, 52, 0
7, 393120, Program_c, 5, 45
7, 393120, Control_c, 5, 91, 120
7, 393759, Note_on_c, 5, 44, 93
7, 393787, Note_on_c, 5, 44, 0
7, 394055, Note_on_c, 5, 49, 79
7, 394085, Note_on_c, 5, 49, 0
7, 394334, Program_c, 5, 49
7, 394334, Control_c, 5, 91, 60
7, 394334, Note_on_c, 5, 49, 94
7, 394662, Note_on_c, 5, 51, 114
7, 394701, Note_on_c, 5, 49, 0
7, 394938, Note_on_c, 5, 56, 89
7, 394941, Note_on_c, 5, 51, 0
7, 395172, Note_on_c, 5, 56, 0
7, 397176, Note_on_c, 5, 54, 110
7, 397430, Note_on_c, 5, 54, 0
7, 397445, Note_on_c, 5, 47, 107
7, 398371, Note_on_c, 5, 45, 102
7, 398383, Note_on_c, 5, 47, 0
7, 399178, Note_on_c, 5, 45, 0
7, 399178, Note_on_c, 5, 44, 115
7, 400866, Note_on_c, 5, 44, 0
7, 400918, Note_on_c, 5, 49, 93
7, 401400, Note_on_c, 5, 48, 108
7, 401406, Note_on_c, 5, 49, 0
7, 401539, Note_on_c, 5, 49, 100
7, 401560, Note_on_c, 5, 48, 0
7, 401663, Note_on_c, 5, 49, 0
7, 401680, Note_on_c, 5, 52, 111
7, 401818, Note_on_c, 5, 55, 113
7, 401836, Note_on_c, 5, 52, 0
7, 401901, Note_on_c, 5, 55, 0
7, 402088, Note_on_c, 5, 55, 116
7, 402211, Note_on_c, 5, 55, 0
7, 402392, Note_on_c, 5, 55, 114
7, 402510, Note_on_c, 5, 55, 0
7, 402671, Note_on_c, 5, 54, 118
7, 404511, Note_on_c, 5, 47, 112
7, 404528, Note_on_c, 5, 54, 0
7, 404702, Note_on_c, 5, 47, 0
7, 405331, Program_c, 5, 45
7, 405331, Control_c, 5, 91, 120
7, 405331, Note_on_c, 5, 42, 94
7, 405361, Note_on_c, 5, 42, 0
7, 405482, Note_on_c, 5, 47, 92
7, 405513, Note_on_c, 5, 47, 0
7, 406180, Note_on_c, 5, 42, 94
7, 406211, Note_on_c, 5, 42, 0
7, 406332, Note_on_c, 5, 47, 97
7, 406365, Note_on_c, 5, 47, 0
7, 407520, Program_c, 5, 49
7, 407520, Control_c, 5, 91, 60
7, 407768, Note_on_c, 5, 47, 113
7, 408081, Note_on_c, 5, 45, 111
7, 408118, Note_on_c, 5, 47, 0
7, 408295, Note_on_c, 5, 45, 0
7, 408880, Program_c, 5, 45
7, 408880, Control_c, 5, 91, 120
7, 408880, Note_on_c, 5, 45, 91
7, 408911, Note_on_c, 5, 45, 0
7, 409040, Note_on_c, 5, 45, 93
7, 409071, Note_on_c, 5, 45, 0
7, 409716, Note_on_c, 5, 45, 86
7, 409751, Note_on_c, 5, 45, 0
7, 409876, Note_on_c, 5, 45, 97
7, 409906, Note_on_c, 5, 45, 0
7, 411120, Program_c, 5, 49
7, 411120, Control_c, 5, 91, 60
7, 411484, Note_on_c, 5, 51, 97
7, 411830, Note_on_c, 5, 52, 106
7, 411859, Note_on_c, 5, 51, 0
7, 412579, Note_on_c, 5, 54, 104
7, 412582, Note_on_c, 5, 52, 0
7, 412872, Note_on_c, 5, 47, 99
7, 412875, Note_on_c, 5, 54, 0
7, 413163, Note_on_c, 5, 47, 0
7, 414720, Program_c, 5, 45
7, 414720, Control_c, 5, 91, 120
7, 415178, Note_on_c, 5, 51, 93
7, 415224, Note_on_c, 5, 51, 0
7, 415476, Note_on_c, 5, 44, 97
7, 415533, Note_on_c, 5, 44, 0
7, 415839, Program_c, 5, 49
7, 415839, Control_c, 5, 91, 60
7, 415839, Note_on_c, 5, 44, 84
7, 416119, Note_on_c, 5, 46, 110
7, 416149, Note_on_c, 5, 44, 0
7, 416449, Note_on_c, 5, 51, 93
7, 416467, Note_on_c, 5, 46, 0
7, 416693, Note_on_c, 5, 51, 0
7, 418688, Note_on_c, 5, 49, 105
7, 418977, Note_on_c, 5, 49, 0
7, 418982, Note_on_c, 5, 42, 120
7, 419407, Note_on_c, 5, 42, 0
7, 419452, Note_on_c, 5, 41, 117
7, 419597, Note_on_c, 5, 42, 116
7, 419629, Note_on_c, 5, 41, 0
7, 419735, Note_on_c, 5, 46, 112
7, 419763, Note_on_c, 5, 42, 0
7, 419888, Note_on_c, 5, 49, 110
7, 419903, Note_on_c, 5, 46, 0
7, 419968, Note_on_c, 5, 49, 0
7, 420271, Note_on_c, 5, 49, 116
7, 420398, Note_on_c, 5, 49, 0
7, 420582, Note_on_c, 5, 49, 114
7, 420699, Note_on_c, 5, 49, 0
7, 420864, Note_on_c, 5, 49, 119
7, 421921, Note_on_c, 5, 49, 0
7, 421994, Note_on_c, 5, 51, 118
7, 422642, Note_on_c, 5, 51, 0
7, 422666, Note_on_c, 5, 52, 120
7, 423171, Note_on_c, 5, 51, 120
7, 423185, Note_on_c, 5, 52, 0
7, 423316, Note_on_c, 5, 52, 114
7, 423340, Note_on_c, 5, 51, 0
7, 423449, Note_on_c, 5, 56, 115
7, 423468, Note_on_c, 5, 52, 0
7, 423577, Note_on_c, 5, 56, 0
7, 423610, Note_on_c, 5, 59, 112
7, 423763, Note_on_c, 5, 59, 0
7, 423946, Note_on_c, 5, 59, 116
7, 424062, Note_on_c, 5, 59, 0
7, 424254, Note_on_c, 5, 59, 112
7, 424377, Note_on_c, 5, 59, 0
7, 424547, Note_on_c, 5, 59, 111
7, 425647, Note_on_c, 5, 59, 0
7, 425678, Note_on_c, 5, 61, 113
7, 426001, Note_on_c, 5, 61, 0
7, 426045, Note_on_c, 5, 49, 107
7, 426336, Note_on_c, 5, 49, 0
7, 426401, Note_on_c, 5, 50, 113
7, 426893, Note_on_c, 5, 49, 98
7, 426921, Note_on_c, 5, 50, 0
7, 427069, Note_on_c, 5, 50, 108
7, 427092, Note_on_c, 5, 49, 0
7, 427218, Note_on_c, 5, 54, 108
7, 427224, Note_on_c, 5, 50, 0
7, 427352, Note_on_c, 5, 44, 106
7, 427356, Note_on_c, 5, 54, 0
7, 427517, Note_on_c, 5, 44, 0
7, 427675, Note_on_c, 5, 44, 113
7, 428001, Note_on_c, 5, 46, 115
7, 428039, Note_on_c, 5, 44, 0
7, 428314, Note_on_c, 5, 47, 112
7, 428342, Note_on_c, 5, 46, 0
7, 428731, Note_on_c, 5, 46, 114
7, 428735, Note_on_c, 5, 47, 0
7, 428881, Note_on_c, 5, 47, 106
7, 428904, Note_on_c, 5, 46, 0
7, 429032, Note_on_c, 5, 50, 107
7, 429046, Note_on_c, 5, 47, 0
7, 429184, Note_on_c, 5, 50, 0
7, 429192, Note_on_c, 5, 40, 109
7, 429372, Note_on_c, 5, 40, 0
7, 429573, Note_on_c, 5, 40, 108
7, 429852, Note_on_c, 5, 42, 116
7, 429878, Note_on_c, 5, 40, 0
7, 430129, Note_on_c, 5, 43, 114
7, 430155, Note_on_c, 5, 42, 0
7, 430567, Note_on_c, 5, 42, 114
7, 430583, Note_on_c, 5, 43, 0
7, 430724, Note_on_c, 5, 43, 109
7, 430751, Note_on_c, 5, 42, 0
7, 430878, Note_on_c, 5, 47, 100
7, 430889, Note_on_c, 5, 43, 0
7, 431018, Note_on_c, 5, 37, 116
7, 431046, Note_on_c, 5, 47, 0
7, 431160, Note_on_c, 5, 37, 0
7, 431358, Note_on_c, 5, 37, 118
7, 431626, Note_on_c, 5, 39, 113
7, 431660, Note_on_c, 5, 37, 0
7, 431925, Note_on_c, 5, 40, 111
7, 431950, Note_on_c, 5, 39, 0
7, 432298, Note_on_c, 5, 40, 0
7, 432519, Note_on_c, 5, 55, 98
7, 432810, Note_on_c, 5, 54, 89
7, 432829, Note_on_c, 5, 55, 0
7, 433135, Note_on_c, 5, 54, 0
7, 433386, Note_on_c, 5, 46, 101
7, 433655, Note_on_c, 5, 47, 101
7, 433683, Note_on_c, 5, 46, 0
7, 433939, Note_on_c, 5, 47, 0
7, 434202, Note_on_c, 5, 50, 108
7, 434505, Note_on_c, 5, 49, 81
7, 434523, Note_on_c, 5, 50, 0
7, 434777, Note_on_c, 5, 49, 0
7, 435051, Note_on_c, 5, 41, 118
7, 435319, Note_on_c, 5, 41, 0
7, 435375, Note_on_c, 5, 42, 121
7, 435702, Note_on_c, 5, 42, 0
7, 436346, Note_on_c, 5, 52, 125
7, 436648, Note_on_c, 5, 52, 0
7, 437290, Note_on_c, 5, 50, 120
7, 437660, Note_on_c, 5, 50, 0
7, 438273, Note_on_c, 5, 49, 99
7, 439143, Note_on_c, 5, 49, 0
7, 439153, Note_on_c, 5, 48, 107
7, 440503, Note_on_c, 5, 48, 0
7, 440514, Note_on_c, 5, 48, 98
7, 440827, Note_on_c, 5, 47, 109
7, 440866, Note_on_c, 5, 48, 0
7, 441108, Note_on_c, 5, 46, 114
7, 441143, Note_on_c, 5, 47, 0
7, 442166, Note_on_c, 5, 46, 0
7, 442419, Note_on_c, 5, 46, 98
7, 442764, Note_on_c, 5, 47, 100
7, 442764, Control_c, 5, 11, 50
7, 442766, Note_on_c, 5, 46, 0
7, 442804, Control_c, 5, 11, 51
7, 442874, Control_c, 5, 11, 52
7, 442954, Control_c, 5, 11, 53
7, 443024, Control_c, 5, 11, 54
7, 443094, Control_c, 5, 11, 55
7, 443164, Control_c, 5, 11, 56
7, 443244, Control_c, 5, 11, 57
7, 443314, Control_c, 5, 11, 58
7, 443384, Control_c, 5, 11, 59
7, 443464, Control_c, 5, 11, 60
7, 443534, Control_c, 5, 11, 61
7, 443604, Control_c, 5, 11, 62
7, 443674, Control_c, 5, 11, 63
7, 443754, Control_c, 5, 11, 64
7, 443824, Control_c, 5, 11, 65
7, 443894, Control_c, 5, 11, 66
7, 443964, Control_c, 5, 11, 67
7, 444044, Control_c, 5, 11, 68
7, 444114, Control_c, 5, 11, 69
7, 444184, Control_c, 5, 11, 70
7, 444264, Control_c, 5, 11, 71
7, 444334, Control_c, 5, 11, 72
7, 444404, Control_c, 5, 11, 73
7, 444474, Control_c, 5, 11, 74
7, 444554, Control_c, 5, 11, 75
7, 444624, Control_c, 5, 11, 76
7, 444694, Control_c, 5, 11, 77
7, 444764, Control_c, 5, 11, 78
7, 444844, Control_c, 5, 11, 79
7, 444914, Control_c, 5, 11, 80
7, 444984, Control_c, 5, 11, 81
7, 445064, Control_c, 5, 11, 82
7, 445134, Control_c, 5, 11, 83
7, 445204, Control_c, 5, 11, 84
7, 445274, Control_c, 5, 11, 85
7, 445354, Control_c, 5, 11, 86
7, 445424, Control_c, 5, 11, 87
7, 445494, Control_c, 5, 11, 88
7, 445564, Control_c, 5, 11, 89
7, 445644, Control_c, 5, 11, 90
7, 445714, Control_c, 5, 11, 91
7, 445784, Control_c, 5, 11, 92
7, 445864, Control_c, 5, 11, 93
7, 445934, Control_c, 5, 11, 94
7, 446004, Control_c, 5, 11, 95
7, 446074, Control_c, 5, 11, 96
7, 446154, Control_c, 5, 11, 97
7, 446224, Control_c, 5, 11, 98
7, 446294, Control_c, 5, 11, 99
7, 446364, Control_c, 5, 11, 100
7, 446814, Note_on_c, 5, 47, 0
7, 447120, Program_c, 5, 45
7, 447120, Control_c, 5, 91, 120
7, 447759, Note_on_c, 5, 47, 96
7, 447806, Note_on_c, 5, 47, 0
7, 449319, Note_on_c, 5, 47, 94
7, 449361, Note_on_c, 5, 47, 0
7, 450073, Note_on_c, 5, 47, 97
7, 450115, Note_on_c, 5, 47, 0
7, 450843, Note_on_c, 5, 47, 110
7, 450885, Note_on_c, 5, 47, 0
7, 452160, Program_c, 5, 49
7, 452160, Control_c, 5, 91, 60
7, 452500, Note_on_c, 5, 52, 106
7, 452615, Note_on_c, 5, 52, 0
7, 452782, Note_on_c, 5, 55, 97
7, 452910, Note_on_c, 5, 55, 0
7, 453033, Note_on_c, 5, 52, 94
7, 453122, Note_on_c, 5, 52, 0
7, 453333, Note_on_c, 5, 51, 105
7, 453395, Note_on_c, 5, 51, 0
7, 453615, Note_on_c, 5, 51, 92
7, 453695, Note_on_c, 5, 51, 0
7, 453903, Note_on_c, 5, 50, 93
7, 453973, Note_on_c, 5, 50, 0
7, 454195, Note_on_c, 5, 49, 100
7, 454279, Note_on_c, 5, 49, 0
7, 454484, Note_on_c, 5, 52, 98
7, 454566, Note_on_c, 5, 52, 0
7, 454776, Note_on_c, 5, 48, 106
7, 454853, Note_on_c, 5, 48, 0
7, 455068, Note_on_c, 5, 47, 92
7, 455146, Note_on_c, 5, 47, 0
7, 455364, Note_on_c, 5, 59, 101
7, 455457, Note_on_c, 5, 59, 0
7, 455658, Note_on_c, 5, 63, 112
7, 455909, Note_on_c, 5, 63, 0
7, 455931, Note_on_c, 5, 64, 91
7, 456046, Note_on_c, 5, 64, 0
7, 456236, Note_on_c, 5, 59, 100
7, 456506, Note_on_c, 5, 60, 86
7, 456508, Note_on_c, 5, 59, 0
7, 456642, Note_on_c, 5, 60, 0
7, 456802, Note_on_c, 5, 56, 95
7, 457085, Note_on_c, 5, 56, 0
7, 457087, Note_on_c, 5, 57, 57
7, 457220, Note_on_c, 5, 57, 0
7, 457391, Note_on_c, 5, 52, 71
7, 457681, Note_on_c, 5, 51, 78
7, 457696, Note_on_c, 5, 52, 0
7, 457986, Note_on_c, 5, 52, 66
7, 457987, Note_on_c, 5, 51, 0
7, 458272, Note_on_c, 5, 52, 0
7, 458283, Note_on_c, 5, 55, 57
7, 458527, Note_on_c, 5, 55, 0
7, 458564, Note_on_c, 5, 58, 64
7, 458865, Note_on_c, 5, 58, 0
7, 458867, Note_on_c, 5, 59, 35
7, 459058, Note_on_c, 5, 59, 0
7, 459181, Note_on_c, 5, 52, 124
7, 459311, Note_on_c, 5, 52, 0
7, 459462, Note_on_c, 5, 45, 118
7, 459596, Note_on_c, 5, 45, 0
7, 459765, Note_on_c, 5, 48, 109
7, 459865, Note_on_c, 5, 48, 0
7, 460044, Note_on_c, 5, 45, 104
7, 460154, Note_on_c, 5, 45, 0
7, 460338, Note_on_c, 5, 44, 113
7, 460419, Note_on_c, 5, 44, 0
7, 460628, Note_on_c, 5, 44, 114
7, 460717, Note_on_c, 5, 44, 0
7, 460904, Note_on_c, 5, 43, 117
7, 461033, Note_on_c, 5, 43, 0
7, 461204, Note_on_c, 5, 42, 105
7, 461354, Note_on_c, 5, 42, 0
7, 461502, Note_on_c, 5, 54, 115
7, 461600, Note_on_c, 5, 54, 0
7, 461638, Note_on_c, 5, 54, 51
7, 461663, Note_on_c, 5, 54, 0
7, 461778, Note_on_c, 5, 52, 106
7, 461951, Note_on_c, 5, 52, 0
7, 462041, Note_on_c, 5, 51, 119
7, 462257, Note_on_c, 5, 51, 0
7, 462329, Note_on_c, 5, 63, 116
7, 462433, Note_on_c, 5, 63, 0
7, 462872, Note_on_c, 5, 64, 122
7, 463062, Note_on_c, 5, 64, 0
7, 465149, Note_on_c, 5, 55, 118
7, 465290, Note_on_c, 5, 52, 106
7, 465305, Note_on_c, 5, 55, 0
7, 465498, Note_on_c, 5, 52, 0
7, 465503, Note_on_c, 5, 49, 110
7, 465560, Note_on_c, 5, 47, 111
7, 465588, Note_on_c, 5, 49, 0
7, 465657, Note_on_c, 5, 47, 0
7, 465849, Note_on_c, 5, 46, 123
7, 465936, Note_on_c, 5, 46, 0
7, 466137, Note_on_c, 5, 45, 122
7, 466225, Note_on_c, 5, 45, 0
7, 466441, Note_on_c, 5, 43, 120
7, 466547, Note_on_c, 5, 43, 0
7, 468818, Note_on_c, 5, 55, 103
7, 468966, Note_on_c, 5, 52, 109
7, 468995, Note_on_c, 5, 55, 0
7, 469187, Note_on_c, 5, 49, 105
7, 469195, Note_on_c, 5, 52, 0
7, 469254, Note_on_c, 5, 47, 111
7, 469282, Note_on_c, 5, 49, 0
7, 469370, Note_on_c, 5, 47, 0
7, 469552, Note_on_c, 5, 46, 119
7, 469656, Note_on_c, 5, 46, 0
7, 469833, Note_on_c, 5, 45, 113
7, 469946, Note_on_c, 5, 45, 0
7, 470134, Note_on_c, 5, 43, 114
7, 470242, Note_on_c, 5, 43, 0
7, 470429, Note_on_c, 5, 42, 120
7, 470519, Note_on_c, 5, 42, 0
7, 470722, Note_on_c, 5, 54, 121
7, 470812, Note_on_c, 5, 54, 0
7, 471000, Note_on_c, 5, 54, 124
7, 471088, Note_on_c, 5, 54, 0
7, 471320, Note_on_c, 5, 59, 116
7, 471418, Note_on_c, 5, 59, 0
7, 471644, Note_on_c, 5, 60, 122
7, 471755, Note_on_c, 5, 60, 0
7, 472059, Note_on_c, 5, 57, 88
7, 472796, Note_on_c, 5, 57, 0
7, 473127, Note_on_c, 5, 45, 51
7, 473249, Note_on_c, 5, 45, 0
7, 473253, Note_on_c, 5, 47, 39
7, 473321, Note_on_c, 5, 47, 0
7, 473323, Note_on_c, 5, 45, 36
7, 473374, Note_on_c, 5, 47, 52
7, 473377, Note_on_c, 5, 45, 0
7, 473428, Note_on_c, 5, 47, 0
7, 473428, Note_on_c, 5, 45, 37
7, 473471, Note_on_c, 5, 47, 59
7, 473473, Note_on_c, 5, 45, 0
7, 473519, Note_on_c, 5, 45, 50
7, 473520, Note_on_c, 5, 47, 0
7, 473564, Note_on_c, 5, 47, 57
7, 473565, Note_on_c, 5, 45, 0
7, 473592, Note_on_c, 5, 47, 0
7, 473601, Note_on_c, 5, 45, 32
7, 473632, Note_on_c, 5, 47, 60
7, 473638, Note_on_c, 5, 45, 0
7, 473675, Note_on_c, 5, 47, 0
7, 473681, Note_on_c, 5, 45, 38
7, 473745, Note_on_c, 5, 45, 0
7, 473749, Note_on_c, 5, 43, 44
7, 473800, Note_on_c, 5, 43, 0
7, 473809, Note_on_c, 5, 45, 42
7, 473934, Note_on_c, 5, 47, 34
7, 473940, Note_on_c, 5, 45, 0
7, 474379, Note_on_c, 5, 47, 0
7, 474393, Note_on_c, 5, 40, 35
7, 474764, Note_on_c, 5, 40, 0
7, 476640, Control_c, 5, 11, 80
7, 477608, Note_on_c, 5, 43, 72
7, 478059, Note_on_c, 5, 42, 77
7, 478130, Note_on_c, 5, 43, 0
7, 478687, Note_on_c, 5, 41, 75
7, 478725, Note_on_c, 5, 42, 0
7, 478867, Note_on_c, 5, 42, 89
7, 478923, Note_on_c, 5, 41, 0
7, 479022, Note_on_c, 5, 45, 80
7, 479064, Note_on_c, 5, 42, 0
7, 479173, Note_on_c, 5, 45, 0
7, 479184, Note_on_c, 5, 54, 74
7, 479286, Note_on_c, 5, 54, 0
7, 479520, Program_c, 5, 45
7, 479520, Control_c, 5, 91, 120
7, 479644, Note_on_c, 5, 54, 55
7, 479725, Note_on_c, 5, 54, 0
7, 479967, Note_on_c, 5, 54, 52
7, 480035, Note_on_c, 5, 54, 0
7, 480315, Note_on_c, 5, 54, 31
7, 480454, Note_on_c, 5, 54, 0
7, 480960, Program_c, 5, 49
7, 480960, Control_c, 5, 91, 60
7, 481332, Note_on_c, 5, 47, 66
7, 482411, Note_on_c, 5, 52, 60
7, 482445, Note_on_c, 5, 47, 0
7, 482662, Note_on_c, 5, 52, 0
7, 483476, Note_on_c, 5, 54, 57
7, 484183, Note_on_c, 5, 52, 70
7, 484213, Note_on_c, 5, 54, 0
7, 484476, Note_on_c, 5, 51, 69
7, 484547, Note_on_c, 5, 52, 0
7, 485085, Note_on_c, 5, 52, 69
7, 485120, Note_on_c, 5, 51, 0
7, 485413, Note_on_c, 5, 54, 60
7, 485443, Note_on_c, 5, 52, 0
7, 486093, Note_on_c, 5, 51, 78
7, 486122, Note_on_c, 5, 54, 0
7, 486582, Note_on_c, 5, 52, 71
7, 486615, Note_on_c, 5, 51, 0
7, 487294, Note_on_c, 5, 50, 82
7, 487326, Note_on_c, 5, 52, 0
7, 487608, Note_on_c, 5, 48, 76
7, 487640, Note_on_c, 5, 50, 0
7, 488805, Note_on_c, 5, 47, 68
7, 488843, Note_on_c, 5, 48, 0
7, 490205, Note_on_c, 5, 45, 68
7, 490220, Note_on_c, 5, 47, 0
7, 491230, Note_on_c, 5, 47, 57
7, 491270, Note_on_c, 5, 45, 0
7, 491906, Note_on_c, 5, 47, 0
7, 492480, Program_c, 5, 45
7, 492480, Control_c, 5, 91, 120
7, 492870, Note_on_c, 5, 40, 47
7, 493213, Note_on_c, 5, 40, 0
7, 495360, Program_c, 5, 49
7, 495360, Control_c, 5, 91, 60
7, 495427, Note_on_c, 5, 40, 73
7, 497827, Note_on_c, 5, 39, 99
7, 497854, Note_on_c, 5, 40, 0
7, 498567, Note_on_c, 5, 40, 103
7, 498599, Note_on_c, 5, 39, 0
7, 499003, Note_on_c, 5, 42, 116
7, 499038, Note_on_c, 5, 40, 0
7, 499322, Note_on_c, 5, 43, 102
7, 499351, Note_on_c, 5, 42, 0
7, 499832, Note_on_c, 5, 44, 99
7, 499874, Note_on_c, 5, 43, 0
7, 500414, Note_on_c, 5, 45, 72
7, 500457, Note_on_c, 5, 44, 0
7, 501633, Note_on_c, 5, 47, 59
7, 501680, Note_on_c, 5, 45, 0
7, 502007, Note_on_c, 5, 47, 0
7, 502462, Note_on_c, 5, 47, 57
7, 503258, Note_on_c, 5, 52, 68
7, 503312, Note_on_c, 5, 47, 0
7, 505227, Note_on_c, 5, 52, 0
7, 506230, Note_on_c, 5, 59, 88
7, 506535, Note_on_c, 5, 52, 87
7, 506537, Note_on_c, 5, 59, 0
7, 508173, Note_on_c, 5, 52, 0
7, 508465, Note_on_c, 5, 53, 96
7, 508699, Note_on_c, 5, 54, 95
7, 508729, Note_on_c, 5, 53, 0
7, 508985, Note_on_c, 5, 54, 0
7, 509203, Note_on_c, 5, 42, 101
7, 509553, Note_on_c, 5, 47, 82
7, 509574, Note_on_c, 5, 42, 0
7, 511272, Note_on_c, 5, 47, 0
7, 512265, Note_on_c, 5, 54, 99
7, 512519, Note_on_c, 5, 54, 0
7, 512533, Note_on_c, 5, 47, 98
7, 515370, Note_on_c, 5, 51, 106
7, 515396, Note_on_c, 5, 47, 0
7, 515624, Note_on_c, 5, 52, 109
7, 515650, Note_on_c, 5, 51, 0
7, 515790, Note_on_c, 5, 52, 0
7, 516059, Note_on_c, 5, 52, 84
7, 516843, Note_on_c, 5, 55, 102
7, 516852, Note_on_c, 5, 52, 0
7, 517001, Note_on_c, 5, 55, 0
7, 517149, Note_on_c, 5, 55, 87
7, 517382, Note_on_c, 5, 54, 63
7, 517407, Note_on_c, 5, 55, 0
7, 517571, Note_on_c, 5, 54, 0
7, 518795, Note_on_c, 5, 54, 118
7, 519206, Note_on_c, 5, 54, 0
7, 519353, Note_on_c, 5, 55, 102
7, 519922, Note_on_c, 5, 57, 109
7, 519938, Note_on_c, 5, 55, 0
7, 520144, Note_on_c, 5, 57, 0
7, 520181, Note_on_c, 5, 60, 106
7, 520346, Note_on_c, 5, 60, 0
7, 520410, Note_on_c, 5, 60, 108
7, 520561, Note_on_c, 5, 60, 0
7, 520641, Note_on_c, 5, 59, 76
7, 520816, Note_on_c, 5, 59, 0
7, 522359, Note_on_c, 5, 60, 84
7, 522706, Note_on_c, 5, 59, 106
7, 522721, Note_on_c, 5, 60, 0
7, 523439, Note_on_c, 5, 57, 104
7, 523470, Note_on_c, 5, 59, 0
7, 524196, Note_on_c, 5, 55, 113
7, 524204, Note_on_c, 5, 57, 0
7, 524756, Note_on_c, 5, 57, 107
7, 524774, Note_on_c, 5, 55, 0
7, 525685, Note_on_c, 5, 57, 0
7, 525685, Note_on_c, 5, 50, 101
7, 527512, Note_on_c, 5, 50, 0
7, 528632, Note_on_c, 5, 50, 101
7, 529348, Note_on_c, 5, 51, 113
7, 529382, Note_on_c, 5, 50, 0
7, 530062, Note_on_c, 5, 50, 101
7, 530088, Note_on_c, 5, 51, 0
7, 530782, Note_on_c, 5, 48, 117
7, 530807, Note_on_c, 5, 50, 0
7, 531749, Note_on_c, 5, 42, 113
7, 531785, Note_on_c, 5, 48, 0
7, 532663, Note_on_c, 5, 42, 0
7, 534394, Note_on_c, 5, 50, 51
7, 536824, Note_on_c, 5, 50, 0
7, 547115, Note_on_c, 5, 45, 54
7, 547691, Note_on_c, 5, 43, 63
7, 547747, Note_on_c, 5, 45, 0
7, 548190, Note_on_c, 5, 43, 0
7, 554037, Note_on_c, 5, 50, 53
7, 555153, Note_on_c, 5, 43, 48
7, 555198, Note_on_c, 5, 50, 0
7, 555524, Note_on_c, 5, 43, 0
7, 557280, Program_c, 5, 45
7, 557280, Control_c, 5, 91, 120
7, 557745, Note_on_c, 5, 50, 39
7, 557776, Note_on_c, 5, 50, 0
7, 558029, Note_on_c, 5, 50, 48
7, 558056, Note_on_c, 5, 50, 0
7, 558373, Note_on_c, 5, 49, 44
7, 558460, Note_on_c, 5, 49, 0
7, 559930, Note_on_c, 5, 50, 55
7, 559956, Note_on_c, 5, 50, 0
7, 560230, Note_on_c, 5, 50, 44
7, 560263, Note_on_c, 5, 50, 0
7, 561600, Program_c, 5, 49
7, 561600, Control_c, 5, 91, 60
7, 561709, Note_on_c, 5, 50, 77
7, 561964, Note_on_c, 5, 49, 68
7, 562038, Note_on_c, 5, 50, 0
7, 562888, Note_on_c, 5, 49, 0
7, 563189, Note_on_c, 5, 50, 74
7, 563986, Note_on_c, 5, 55, 67
7, 564118, Note_on_c, 5, 50, 0
7, 565120, Note_on_c, 5, 50, 72
7, 565168, Note_on_c, 5, 55, 0
7, 565786, Note_on_c, 5, 55, 75
7, 565797, Note_on_c, 5, 50, 0
7, 566459, Note_on_c, 5, 59, 77
7, 566513, Note_on_c, 5, 55, 0
7, 566940, Note_on_c, 5, 50, 68
7, 566973, Note_on_c, 5, 59, 0
7, 567796, Note_on_c, 5, 48, 67
7, 567826, Note_on_c, 5, 50, 0
7, 568704, Note_on_c, 5, 48, 0
7, 568793, Note_on_c, 5, 43, 60
7, 569745, Note_on_c, 5, 43, 0
7, 569770, Note_on_c, 5, 45, 59
7, 571129, Note_on_c, 5, 40, 58
7, 571144, Note_on_c, 5, 45, 0
7, 571461, Note_on_c, 5, 52, 67
7, 571499, Note_on_c, 5, 40, 0
7, 571712, Note_on_c, 5, 50, 65
7, 571756, Note_on_c, 5, 52, 0
7, 572054, Note_on_c, 5, 49, 69
7, 572107, Note_on_c, 5, 50, 0
7, 572540, Note_on_c, 5, 49, 0
7, 573136, Note_on_c, 5, 48, 58
7, 574301, Note_on_c, 5, 47, 55
7, 574354, Note_on_c, 5, 48, 0
7, 576054, Note_on_c, 5, 45, 59
7, 576098, Note_on_c, 5, 47, 0
7, 577958, Note_on_c, 5, 43, 67
7, 577979, Note_on_c, 5, 45, 0
7, 578284, Note_on_c, 5, 43, 0
7, 578457, Note_on_c, 5, 39, 82
7, 578934, Note_on_c, 5, 40, 67
7, 578935, Note_on_c, 5, 39, 0
7, 579979, Note_on_c, 5, 45, 58
7, 579986, Note_on_c, 5, 40, 0
7, 580394, Note_on_c, 5, 45, 0
7, 580854, Note_on_c, 5, 47, 78
7, 581203, Note_on_c, 5, 47, 0
7, 581717, Note_on_c, 5, 48, 87
7, 582044, Note_on_c, 5, 48, 0
7, 582673, Note_on_c, 5, 48, 88
7, 583071, Note_on_c, 5, 48, 0
7, 583977, Note_on_c, 5, 47, 83
7, 585099, Note_on_c, 5, 45, 72
7, 585117, Note_on_c, 5, 47, 0
7, 585535, Note_on_c, 5, 45, 0
7, 587608, Note_on_c, 5, 47, 72
7, 589586, Note_on_c, 5, 40, 77
7, 589604, Note_on_c, 5, 47, 0
7, 589780, Note_on_c, 5, 40, 0
7, 589937, Note_on_c, 5, 52, 78
7, 590154, Note_on_c, 5, 47, 71
7, 590173, Note_on_c, 5, 52, 0
7, 590250, Note_on_c, 5, 47, 0
7, 590662, Note_on_c, 5, 52, 72
7, 590903, Note_on_c, 5, 47, 77
7, 590904, Note_on_c, 5, 52, 0
7, 591082, Note_on_c, 5, 47, 0
7, 591120, Program_c, 5, 45
7, 591120, Control_c, 5, 91, 120
7, 591290, Note_on_c, 5, 54, 36
7, 591312, Note_on_c, 5, 54, 0
7, 591406, Note_on_c, 5, 54, 46
7, 591435, Note_on_c, 5, 54, 0
7, 591547, Note_on_c, 5, 54, 57
7, 591568, Note_on_c, 5, 54, 0
7, 591680, Note_on_c, 5, 45, 69
7, 591711, Note_on_c, 5, 45, 0
7, 592037, Note_on_c, 5, 57, 68
7, 592072, Note_on_c, 5, 57, 0
7, 592160, Note_on_c, 5, 57, 59
7, 592206, Note_on_c, 5, 57, 0
7, 592294, Note_on_c, 5, 57, 57
7, 592326, Note_on_c, 5, 57, 0
7, 592410, Note_on_c, 5, 51, 72
7, 592433, Note_on_c, 5, 51, 0
7, 592560, Program_c, 5, 49
7, 592560, Control_c, 5, 91, 60
7, 592917, Note_on_c, 5, 52, 81
7, 593174, Note_on_c, 5, 47, 71
7, 593188, Note_on_c, 5, 52, 0
7, 593314, Note_on_c, 5, 47, 0
7, 593643, Note_on_c, 5, 52, 88
7, 593892, Note_on_c, 5, 52, 0
7, 593892, Note_on_c, 5, 47, 55
7, 594085, Note_on_c, 5, 47, 0
7, 594284, Program_c, 5, 45
7, 594284, Control_c, 5, 91, 120
7, 594284, Note_on_c, 5, 54, 52
7, 594326, Note_on_c, 5, 54, 0
7, 594427, Note_on_c, 5, 54, 57
7, 594457, Note_on_c, 5, 54, 0
7, 594559, Note_on_c, 5, 54, 62
7, 594583, Note_on_c, 5, 54, 0
7, 594704, Note_on_c, 5, 45, 66
7, 594744, Note_on_c, 5, 45, 0
7, 595068, Note_on_c, 5, 57, 65
7, 595104, Note_on_c, 5, 57, 0
7, 595206, Note_on_c, 5, 57, 62
7, 595241, Note_on_c, 5, 57, 0
7, 595336, Note_on_c, 5, 57, 56
7, 595364, Note_on_c, 5, 57, 0
7, 595454, Note_on_c, 5, 51, 61
7, 595484, Note_on_c, 5, 51, 0
7, 596009, Program_c, 5, 49
7, 596009, Control_c, 5, 91, 60
7, 596009, Note_on_c, 5, 59, 83
7, 596260, Note_on_c, 5, 50, 54
7, 596272, Note_on_c, 5, 59, 0
7, 596367, Note_on_c, 5, 50, 0
7, 596757, Note_on_c, 5, 59, 94
7, 597008, Note_on_c, 5, 50, 70
7, 597016, Note_on_c, 5, 59, 0
7, 597149, Note_on_c, 5, 50, 0
7, 597414, Program_c, 5, 45
7, 597414, Control_c, 5, 91, 120
7, 597414, Note_on_c, 5, 56, 48
7, 597440, Note_on_c, 5, 56, 0
7, 597576, Note_on_c, 5, 56, 48
7, 597611, Note_on_c, 5, 56, 0
7, 597708, Note_on_c, 5, 56, 53
7, 597736, Note_on_c, 5, 56, 0
7, 597843, Note_on_c, 5, 49, 77
7, 597874, Note_on_c, 5, 49, 0
7, 598219, Note_on_c, 5, 56, 57
7, 598247, Note_on_c, 5, 56, 0
7, 598355, Note_on_c, 5, 56, 61
7, 598382, Note_on_c, 5, 56, 0
7, 598482, Note_on_c, 5, 56, 59
7, 598505, Note_on_c, 5, 56, 0
7, 598601, Note_on_c, 5, 49, 54
7, 598621, Note_on_c, 5, 49, 0
7, 599095, Program_c, 5, 49
7, 599095, Control_c, 5, 91, 60
7, 599095, Note_on_c, 5, 49, 97
7, 599339, Note_on_c, 5, 43, 61
7, 599350, Note_on_c, 5, 49, 0
7, 599463, Note_on_c, 5, 43, 0
7, 599830, Note_on_c, 5, 49, 98
7, 600096, Note_on_c, 5, 43, 87
7, 600117, Note_on_c, 5, 49, 0
7, 600274, Note_on_c, 5, 43, 0
7, 600480, Program_c, 5, 45
7, 600480, Control_c, 5, 91, 120
7, 600573, Note_on_c, 5, 54, 56
7, 600599, Note_on_c, 5, 54, 0
7, 600696, Note_on_c, 5, 54, 52
7, 600731, Note_on_c, 5, 54, 0
7, 600828, Note_on_c, 5, 54, 55
7, 600857, Note_on_c, 5, 54, 0
7, 600953, Note_on_c, 5, 49, 65
7, 600982, Note_on_c, 5, 49, 0
7, 601344, Note_on_c, 5, 54, 65
7, 601381, Note_on_c, 5, 54, 0
7, 601478, Note_on_c, 5, 54, 58
7, 601505, Note_on_c, 5, 54, 0
7, 601607, Note_on_c, 5, 54, 69
7, 601635, Note_on_c, 5, 54, 0
7, 601727, Note_on_c, 5, 49, 77
7, 601756, Note_on_c, 5, 49, 0
7, 601920, Program_c, 5, 49
7, 601920, Control_c, 5, 91, 60
7, 602256, Note_on_c, 5, 47, 94
7, 602522, Note_on_c, 5, 42, 74
7, 602537, Note_on_c, 5, 47, 0
7, 602642, Note_on_c, 5, 42, 0
7, 602986, Note_on_c, 5, 47, 101
7, 603213, Note_on_c, 5, 42, 76
7, 603238, Note_on_c, 5, 47, 0
7, 603393, Note_on_c, 5, 42, 0
7, 603624, Program_c, 5, 45
7, 603624, Control_c, 5, 91, 120
7, 603624, Note_on_c, 5, 55, 47
7, 603654, Note_on_c, 5, 55, 0
7, 603775, Note_on_c, 5, 55, 32
7, 603821, Note_on_c, 5, 55, 0
7, 603909, Note_on_c, 5, 55, 46
7, 603945, Note_on_c, 5, 55, 0
7, 604032, Note_on_c, 5, 49, 64
7, 604069, Note_on_c, 5, 49, 0
7, 604395, Note_on_c, 5, 54, 57
7, 604424, Note_on_c, 5, 54, 0
7, 604526, Note_on_c, 5, 54, 57
7, 604556, Note_on_c, 5, 54, 0
7, 604653, Note_on_c, 5, 54, 48
7, 604679, Note_on_c, 5, 54, 0
7, 604780, Note_on_c, 5, 46, 64
7, 604804, Note_on_c, 5, 46, 0
7, 605280, Program_c, 5, 49
7, 605280, Control_c, 5, 91, 60
7, 605280, Note_on_c, 5, 47, 92
7, 605543, Note_on_c, 5, 47, 0
7, 605546, Note_on_c, 5, 42, 61
7, 605680, Note_on_c, 5, 42, 0
7, 606007, Note_on_c, 5, 47, 106
7, 606253, Note_on_c, 5, 42, 91
7, 606258, Note_on_c, 5, 47, 0
7, 606382, Note_on_c, 5, 42, 0
7, 606658, Program_c, 5, 45
7, 606658, Control_c, 5, 91, 120
7, 606658, Note_on_c, 5, 57, 37
7, 606693, Note_on_c, 5, 57, 0
7, 606817, Note_on_c, 5, 57, 42
7, 606848, Note_on_c, 5, 57, 0
7, 606945, Note_on_c, 5, 57, 67
7, 606975, Note_on_c, 5, 57, 0
7, 607057, Note_on_c, 5, 45, 73
7, 607089, Note_on_c, 5, 45, 0
7, 607412, Note_on_c, 5, 57, 61
7, 607454, Note_on_c, 5, 57, 0
7, 607528, Note_on_c, 5, 57, 57
7, 607572, Note_on_c, 5, 57, 0
7, 607664, Note_on_c, 5, 57, 48
7, 607698, Note_on_c, 5, 57, 0
7, 607791, Note_on_c, 5, 47, 68
7, 607826, Note_on_c, 5, 47, 0
7, 608005, Program_c, 5, 49
7, 608005, Control_c, 5, 91, 60
7, 608005, Note_on_c, 5, 52, 81
7, 608258, Note_on_c, 5, 54, 78
7, 608269, Note_on_c, 5, 52, 0
7, 608490, Note_on_c, 5, 54, 0
7, 608749, Note_on_c, 5, 48, 85
7, 609218, Note_on_c, 5, 47, 61
7, 609248, Note_on_c, 5, 48, 0
7, 609486, Note_on_c, 5, 47, 0
7, 609499, Note_on_c, 5, 52, 83
7, 609738, Note_on_c, 5, 54, 78
7, 609747, Note_on_c, 5, 52, 0
7, 609980, Note_on_c, 5, 54, 0
7, 610225, Note_on_c, 5, 48, 86
7, 610710, Note_on_c, 5, 47, 59
7, 610719, Note_on_c, 5, 48, 0
7, 610875, Note_on_c, 5, 47, 0
7, 610965, Note_on_c, 5, 50, 83
7, 611442, Note_on_c, 5, 49, 71
7, 611471, Note_on_c, 5, 50, 0
7, 611680, Note_on_c, 5, 49, 0
7, 611720, Note_on_c, 5, 50, 87
7, 612202, Note_on_c, 5, 49, 80
7, 612234, Note_on_c, 5, 50, 0
7, 612376, Note_on_c, 5, 49, 0
7, 612537, Note_on_c, 5, 49, 88
7, 612886, Note_on_c, 5, 49, 0
7, 613872, Note_on_c, 5, 60, 61
7, 614109, Note_on_c, 5, 59, 64
7, 614144, Note_on_c, 5, 60, 0
7, 614340, Note_on_c, 5, 58, 79
7, 614376, Note_on_c, 5, 59, 0
7, 614597, Note_on_c, 5, 55, 78
7, 614634, Note_on_c, 5, 58, 0
7, 614819, Note_on_c, 5, 55, 0
7, 614837, Note_on_c, 5, 53, 83
7, 615073, Note_on_c, 5, 53, 0
7, 615074, Note_on_c, 5, 51, 85
7, 615311, Note_on_c, 5, 51, 0
7, 615312, Note_on_c, 5, 48, 79
7, 615465, Note_on_c, 5, 48, 0
7, 615542, Note_on_c, 5, 60, 85
7, 615761, Note_on_c, 5, 59, 74
7, 615798, Note_on_c, 5, 60, 0
7, 616016, Note_on_c, 5, 59, 0
7, 616025, Note_on_c, 5, 56, 72
7, 616247, Note_on_c, 5, 54, 85
7, 616274, Note_on_c, 5, 56, 0
7, 616478, Note_on_c, 5, 52, 76
7, 616501, Note_on_c, 5, 54, 0
7, 616724, Note_on_c, 5, 49, 63
7, 616739, Note_on_c, 5, 52, 0
7, 616869, Note_on_c, 5, 49, 0
7, 616933, Note_on_c, 5, 61, 90
7, 617249, Note_on_c, 5, 61, 0
7, 617260, Note_on_c, 5, 60, 78
7, 617413, Note_on_c, 5, 60, 0
7, 617486, Note_on_c, 5, 57, 89
7, 617606, Note_on_c, 5, 57, 0
7, 617708, Note_on_c, 5, 64, 92
7, 617943, Note_on_c, 5, 62, 85
7, 617973, Note_on_c, 5, 64, 0
7, 618072, Note_on_c, 5, 62, 0
7, 618182, Note_on_c, 5, 59, 90
7, 618261, Note_on_c, 5, 59, 0
7, 618412, Note_on_c, 5, 54, 86
7, 618640, Note_on_c, 5, 52, 83
7, 618648, Note_on_c, 5, 54, 0
7, 618756, Note_on_c, 5, 52, 0
7, 618883, Note_on_c, 5, 48, 92
7, 619091, Note_on_c, 5, 48, 0
7, 619145, Note_on_c, 5, 47, 92
7, 619376, Note_on_c, 5, 46, 91
7, 619388, Note_on_c, 5, 47, 0
7, 620245, Note_on_c, 5, 47, 87
7, 620260, Note_on_c, 5, 46, 0
7, 620507, Note_on_c, 5, 47, 0
7, 621360, Program_c, 5, 45
7, 621360, Control_c, 5, 91, 120
7, 621936, Note_on_c, 5, 47, 67
7, 621974, Note_on_c, 5, 47, 0
7, 627926, Program_c, 5, 49
7, 627926, Control_c, 5, 91, 60
7, 627926, Note_on_c, 5, 47, 112
7, 627926, Control_c, 5, 11, 60
7, 627936, Control_c, 5, 11, 61
7, 627956, Control_c, 5, 11, 62
7, 627976, Control_c, 5, 11, 63
7, 627996, Control_c, 5, 11, 64
7, 628016, Control_c, 5, 11, 65
7, 628036, Control_c, 5, 11, 66
7, 628046, Control_c, 5, 11, 67
7, 628066, Control_c, 5, 11, 68
7, 628086, Control_c, 5, 11, 69
7, 628106, Control_c, 5, 11, 70
7, 628126, Control_c, 5, 11, 71
7, 628146, Control_c, 5, 11, 72
7, 628156, Control_c, 5, 11, 73
7, 628176, Control_c, 5, 11, 74
7, 628196, Control_c, 5, 11, 75
7, 628216, Control_c, 5, 11, 76
7, 628236, Control_c, 5, 11, 77
7, 628256, Control_c, 5, 11, 78
7, 628266, Control_c, 5, 11, 79
7, 628286, Control_c, 5, 11, 80
7, 628306, Control_c, 5, 11, 81
7, 628326, Control_c, 5, 11, 82
7, 628346, Control_c, 5, 11, 83
7, 628366, Control_c, 5, 11, 84
7, 628376, Control_c, 5, 11, 85
7, 628396, Control_c, 5, 11, 86
7, 628416, Control_c, 5, 11, 87
7, 628436, Control_c, 5, 11, 88
7, 628456, Control_c, 5, 11, 89
7, 628476, Control_c, 5, 11, 90
7, 628486, Control_c, 5, 11, 91
7, 628506, Control_c, 5, 11, 92
7, 628526, Control_c, 5, 11, 93
7, 628546, Control_c, 5, 11, 94
7, 628566, Control_c, 5, 11, 95
7, 628586, Control_c, 5, 11, 96
7, 628596, Control_c, 5, 11, 97
7, 628616, Control_c, 5, 11, 98
7, 628636, Control_c, 5, 11, 99
7, 628656, Control_c, 5, 11, 100
7, 628676, Control_c, 5, 11, 101
7, 628696, Control_c, 5, 11, 102
7, 628706, Control_c, 5, 11, 103
7, 628726, Control_c, 5, 11, 104
7, 628746, Control_c, 5, 11, 105
7, 628766, Control_c, 5, 11, 106
7, 628786, Control_c, 5, 11, 107
7, 628806, Control_c, 5, 11, 108
7, 628816, Control_c, 5, 11, 109
7, 628836, Control_c, 5, 11, 110
7, 628856, Control_c, 5, 11, 111
7, 628876, Control_c, 5, 11, 112
7, 628896, Control_c, 5, 11, 113
7, 628916, Control_c, 5, 11, 114
7, 628926, Control_c, 5, 11, 115
7, 628946, Control_c, 5, 11, 116
7, 628966, Control_c, 5, 11, 117
7, 628986, Control_c, 5, 11, 118
7, 629006, Control_c, 5, 11, 119
7, 629026, Control_c, 5, 11, 120
7, 629026, Note_on_c, 5, 48, 125
7, 629035, Note_on_c, 5, 47, 0
7, 629434, Note_on_c, 5, 48, 0
7, 629492, Note_on_c, 5, 47, 120
7, 629613, Note_on_c, 5, 47, 0
7, 629632, Note_on_c, 5, 48, 113
7, 629754, Note_on_c, 5, 52, 118
7, 629785, Note_on_c, 5, 48, 0
7, 629900, Note_on_c, 5, 55, 116
7, 629907, Note_on_c, 5, 52, 0
7, 629964, Note_on_c, 5, 55, 0
7, 630165, Note_on_c, 5, 55, 116
7, 630219, Note_on_c, 5, 55, 0
7, 630424, Note_on_c, 5, 55, 118
7, 630500, Note_on_c, 5, 55, 0
7, 630721, Note_on_c, 5, 48, 122
7, 631157, Note_on_c, 5, 47, 103
7, 631178, Note_on_c, 5, 48, 0
7, 631299, Note_on_c, 5, 48, 113
7, 631340, Note_on_c, 5, 47, 0
7, 631409, Note_on_c, 5, 52, 117
7, 631446, Note_on_c, 5, 48, 0
7, 631543, Note_on_c, 5, 55, 114
7, 631558, Note_on_c, 5, 52, 0
7, 631637, Note_on_c, 5, 55, 0
7, 631822, Note_on_c, 5, 55, 116
7, 631879, Note_on_c, 5, 55, 0
7, 632092, Note_on_c, 5, 55, 120
7, 632183, Note_on_c, 5, 55, 0
7, 632431, Note_on_c, 5, 48, 112
7, 632669, Note_on_c, 5, 48, 0
7, 635760, Control_c, 5, 11, 80
7, 637924, Note_on_c, 5, 45, 55
7, 638284, Note_on_c, 5, 47, 59
7, 638318, Note_on_c, 5, 45, 0
7, 640399, Note_on_c, 5, 52, 36
7, 640434, Note_on_c, 5, 47, 0
7, 640880, Note_on_c, 5, 50, 48
7, 640933, Note_on_c, 5, 52, 0
7, 641037, Note_on_c, 5, 48, 56
7, 641104, Note_on_c, 5, 50, 0
7, 641181, Note_on_c, 5, 47, 56
7, 641221, Note_on_c, 5, 48, 0
7, 641359, Note_on_c, 5, 45, 44
7, 641382, Note_on_c, 5, 47, 0
7, 642015, Note_on_c, 5, 47, 30
7, 642053, Note_on_c, 5, 45, 0
7, 642451, Note_on_c, 5, 48, 36
7, 642481, Note_on_c, 5, 47, 0
7, 642970, Note_on_c, 5, 47, 47
7, 643018, Note_on_c, 5, 48, 0
7, 643151, Note_on_c, 5, 45, 40
7, 643160, Note_on_c, 5, 47, 0
7, 643317, Note_on_c, 5, 43, 49
7, 643340, Note_on_c, 5, 45, 0
7, 643528, Note_on_c, 5, 42, 38
7, 643533, Note_on_c, 5, 43, 0
7, 644186, Note_on_c, 5, 47, 45
7, 644242, Note_on_c, 5, 42, 0
7, 644665, Note_on_c, 5, 40, 40
7, 644704, Note_on_c, 5, 47, 0
7, 645021, Note_on_c, 5, 40, 0
7, 645120, Control_c, 5, 11, 100
7, 645801, Note_on_c, 5, 52, 127
7, 646083, Note_on_c, 5, 52, 0
7, 647061, Note_on_c, 5, 52, 127
7, 647128, Note_on_c, 5, 52, 0
7, 647150, Note_on_c, 5, 52, 122
7, 649137, Note_on_c, 5, 52, 0
7, 649440, End_track
8, 0, Start_track
8, 0, Title_t, "Contrabassi                         "
8, 100, Control_c, 6, 0, 0
8, 120, Control_c, 6, 32, 0
8, 140, Program_c, 6, 49
8, 160, Control_c, 6, 10, 94
8, 180, Control_c, 6, 7, 100
8, 200, Control_c, 6, 11, 100
8, 220, Control_c, 6, 1, 19
8, 240, Control_c, 6, 91, 60
8, 260, Control_c, 6, 93, 38
8, 280, Control_c, 6, 101, 0
8, 300, Control_c, 6, 100, 0
8, 320, Control_c, 6, 6, 12
8, 340, Pitch_bend_c, 6, 8208
8, 360, Control_c, 6, 99, 1
8, 380, Control_c, 6, 98, 32
8, 400, Control_c, 6, 6, 62
8, 420, Control_c, 6, 98, 33
8, 440, Control_c, 6, 6, 60
8, 460, Control_c, 6, 98, 99
8, 480, Control_c, 6, 6, 57
8, 500, Control_c, 6, 98, 100
8, 520, Control_c, 6, 6, 64
8, 540, Control_c, 6, 98, 102
8, 560, Control_c, 6, 6, 66
8, 580, Control_c, 6, 99, 1
8, 600, Control_c, 6, 98, 8
8, 620, Control_c, 6, 6, 90
8, 640, Control_c, 6, 98, 9
8, 660, Control_c, 6, 6, 50
8, 680, Control_c, 6, 98, 10
8, 700, Control_c, 6, 6, 70
8, 1706, Note_on_c, 6, 40, 122
8, 1843, Note_on_c, 6, 40, 0
8, 2012, Note_on_c, 6, 43, 112
8, 2114, Note_on_c, 6, 43, 0
8, 2313, Note_on_c, 6, 40, 112
8, 2430, Note_on_c, 6, 40, 0
8, 2611, Note_on_c, 6, 39, 115
8, 2701, Note_on_c, 6, 39, 0
8, 2902, Note_on_c, 6, 39, 110
8, 3007, Note_on_c, 6, 39, 0
8, 3188, Note_on_c, 6, 38, 113
8, 3309, Note_on_c, 6, 38, 0
8, 3484, Note_on_c, 6, 37, 115
8, 3646, Note_on_c, 6, 37, 0
8, 3768, Note_on_c, 6, 40, 113
8, 3887, Note_on_c, 6, 40, 0
8, 4053, Note_on_c, 6, 36, 114
8, 4196, Note_on_c, 6, 36, 0
8, 4346, Note_on_c, 6, 35, 117
8, 4497, Note_on_c, 6, 35, 0
8, 4638, Note_on_c, 6, 47, 117
8, 4755, Note_on_c, 6, 47, 0
8, 4929, Note_on_c, 6, 51, 118
8, 5211, Note_on_c, 6, 52, 107
8, 5221, Note_on_c, 6, 51, 0
8, 5352, Note_on_c, 6, 52, 0
8, 5505, Note_on_c, 6, 47, 107
8, 5788, Note_on_c, 6, 47, 0
8, 5789, Note_on_c, 6, 48, 89
8, 5917, Note_on_c, 6, 48, 0
8, 6083, Note_on_c, 6, 44, 118
8, 6353, Note_on_c, 6, 44, 0
8, 6360, Note_on_c, 6, 45, 96
8, 6546, Note_on_c, 6, 45, 0
8, 6662, Note_on_c, 6, 40, 87
8, 6953, Note_on_c, 6, 39, 78
8, 6980, Note_on_c, 6, 40, 0
8, 7277, Note_on_c, 6, 40, 80
8, 7284, Note_on_c, 6, 39, 0
8, 7566, Note_on_c, 6, 43, 75
8, 7585, Note_on_c, 6, 40, 0
8, 7853, Note_on_c, 6, 46, 59
8, 7873, Note_on_c, 6, 43, 0
8, 8151, Note_on_c, 6, 47, 39
8, 8161, Note_on_c, 6, 46, 0
8, 8330, Note_on_c, 6, 47, 0
8, 8470, Note_on_c, 6, 40, 124
8, 8681, Note_on_c, 6, 40, 0
8, 8756, Note_on_c, 6, 33, 124
8, 8930, Note_on_c, 6, 33, 0
8, 9068, Note_on_c, 6, 36, 121
8, 9209, Note_on_c, 6, 36, 0
8, 9352, Note_on_c, 6, 33, 117
8, 9483, Note_on_c, 6, 33, 0
8, 9627, Note_on_c, 6, 32, 115
8, 9774, Note_on_c, 6, 32, 0
8, 9932, Note_on_c, 6, 32, 119
8, 10058, Note_on_c, 6, 32, 0
8, 10209, Note_on_c, 6, 31, 121
8, 10356, Note_on_c, 6, 31, 0
8, 10503, Note_on_c, 6, 30, 119
8, 10748, Note_on_c, 6, 30, 0
8, 10794, Note_on_c, 6, 42, 118
8, 10912, Note_on_c, 6, 42, 0
8, 11071, Note_on_c, 6, 40, 118
8, 11336, Note_on_c, 6, 39, 121
8, 11359, Note_on_c, 6, 40, 0
8, 11643, Note_on_c, 6, 51, 116
8, 11648, Note_on_c, 6, 39, 0
8, 11760, Note_on_c, 6, 51, 0
8, 12169, Note_on_c, 6, 52, 121
8, 12355, Note_on_c, 6, 52, 0
8, 15145, Note_on_c, 6, 34, 124
8, 15236, Note_on_c, 6, 34, 0
8, 15430, Note_on_c, 6, 33, 127
8, 15506, Note_on_c, 6, 33, 0
8, 15722, Note_on_c, 6, 31, 122
8, 15809, Note_on_c, 6, 31, 0
8, 18840, Note_on_c, 6, 46, 104
8, 18935, Note_on_c, 6, 46, 0
8, 19125, Note_on_c, 6, 45, 113
8, 19220, Note_on_c, 6, 45, 0
8, 19421, Note_on_c, 6, 43, 104
8, 19517, Note_on_c, 6, 43, 0
8, 19710, Note_on_c, 6, 42, 103
8, 19801, Note_on_c, 6, 42, 0
8, 20003, Note_on_c, 6, 42, 115
8, 20090, Note_on_c, 6, 42, 0
8, 20298, Note_on_c, 6, 42, 116
8, 20387, Note_on_c, 6, 42, 0
8, 20582, Note_on_c, 6, 47, 111
8, 20688, Note_on_c, 6, 47, 0
8, 20916, Note_on_c, 6, 48, 111
8, 21001, Note_on_c, 6, 48, 0
8, 21341, Note_on_c, 6, 45, 88
8, 22076, Note_on_c, 6, 45, 0
8, 22436, Note_on_c, 6, 45, 54
8, 22551, Note_on_c, 6, 47, 55
8, 22574, Note_on_c, 6, 45, 0
8, 22618, Note_on_c, 6, 45, 47
8, 22629, Note_on_c, 6, 47, 0
8, 22671, Note_on_c, 6, 47, 55
8, 22683, Note_on_c, 6, 45, 0
8, 22725, Note_on_c, 6, 45, 49
8, 22729, Note_on_c, 6, 47, 0
8, 22765, Note_on_c, 6, 47, 71
8, 22773, Note_on_c, 6, 45, 0
8, 22820, Note_on_c, 6, 47, 0
8, 22820, Note_on_c, 6, 45, 50
8, 22861, Note_on_c, 6, 47, 60
8, 22865, Note_on_c, 6, 45, 0
8, 22901, Note_on_c, 6, 45, 65
8, 22905, Note_on_c, 6, 47, 0
8, 22953, Note_on_c, 6, 45, 0
8, 22954, Note_on_c, 6, 47, 68
8, 22989, Note_on_c, 6, 47, 0
8, 22990, Note_on_c, 6, 45, 56
8, 23048, Note_on_c, 6, 45, 0
8, 23055, Note_on_c, 6, 43, 58
8, 23109, Note_on_c, 6, 43, 0
8, 23116, Note_on_c, 6, 45, 44
8, 23195, Note_on_c, 6, 47, 47
8, 23205, Note_on_c, 6, 45, 0
8, 23688, Note_on_c, 6, 47, 0
8, 23704, Note_on_c, 6, 40, 49
8, 24153, Note_on_c, 6, 40, 0
8, 29842, Note_on_c, 6, 39, 52
8, 30142, Note_on_c, 6, 40, 45
8, 30146, Note_on_c, 6, 39, 0
8, 30563, Note_on_c, 6, 39, 45
8, 30600, Note_on_c, 6, 40, 0
8, 30710, Note_on_c, 6, 40, 64
8, 30736, Note_on_c, 6, 39, 0
8, 30840, Note_on_c, 6, 43, 47
8, 30841, Note_on_c, 6, 40, 0
8, 30967, Note_on_c, 6, 43, 0
8, 30994, Note_on_c, 6, 43, 75
8, 31285, Note_on_c, 6, 42, 55
8, 31306, Note_on_c, 6, 43, 0
8, 31396, Note_on_c, 6, 42, 0
8, 31448, Note_on_c, 6, 41, 57
8, 31589, Note_on_c, 6, 42, 65
8, 31627, Note_on_c, 6, 41, 0
8, 31721, Note_on_c, 6, 45, 73
8, 31755, Note_on_c, 6, 42, 0
8, 31872, Note_on_c, 6, 45, 0
8, 31880, Note_on_c, 6, 43, 52
8, 31981, Note_on_c, 6, 43, 0
8, 32170, Note_on_c, 6, 43, 54
8, 32228, Note_on_c, 6, 43, 0
8, 32430, Note_on_c, 6, 43, 49
8, 32514, Note_on_c, 6, 43, 0
8, 32708, Control_c, 6, 11, 100
8, 32708, Note_on_c, 6, 42, 44
8, 32798, Control_c, 6, 11, 101
8, 32883, Control_c, 6, 11, 102
8, 32968, Control_c, 6, 11, 103
8, 33053, Control_c, 6, 11, 104
8, 33138, Control_c, 6, 11, 105
8, 33148, Note_on_c, 6, 41, 56
8, 33151, Note_on_c, 6, 42, 0
8, 33228, Control_c, 6, 11, 106
8, 33282, Note_on_c, 6, 42, 83
8, 33313, Control_c, 6, 11, 107
8, 33334, Note_on_c, 6, 41, 0
8, 33398, Control_c, 6, 11, 108
8, 33423, Note_on_c, 6, 45, 72
8, 33459, Note_on_c, 6, 42, 0
8, 33483, Control_c, 6, 11, 109
8, 33568, Control_c, 6, 11, 110
8, 33571, Note_on_c, 6, 45, 0
8, 33577, Note_on_c, 6, 44, 60
8, 33658, Control_c, 6, 11, 111
8, 33668, Note_on_c, 6, 44, 0
8, 33734, Note_on_c, 6, 44, 49
8, 33743, Control_c, 6, 11, 112
8, 33777, Note_on_c, 6, 44, 0
8, 33828, Control_c, 6, 11, 113
8, 33863, Note_on_c, 6, 44, 75
8, 33907, Note_on_c, 6, 44, 0
8, 33913, Control_c, 6, 11, 114
8, 33998, Control_c, 6, 11, 115
8, 34009, Note_on_c, 6, 44, 70
8, 34052, Note_on_c, 6, 44, 0
8, 34088, Control_c, 6, 11, 116
8, 34159, Note_on_c, 6, 44, 89
8, 34173, Control_c, 6, 11, 117
8, 34191, Note_on_c, 6, 44, 0
8, 34258, Control_c, 6, 11, 118
8, 34293, Note_on_c, 6, 44, 90
8, 34325, Note_on_c, 6, 44, 0
8, 34343, Control_c, 6, 11, 119
8, 34428, Control_c, 6, 11, 120
8, 34428, Note_on_c, 6, 45, 89
8, 34462, Note_on_c, 6, 45, 0
8, 34569, Note_on_c, 6, 45, 92
8, 34602, Note_on_c, 6, 45, 0
8, 34703, Note_on_c, 6, 45, 102
8, 34737, Note_on_c, 6, 45, 0
8, 34836, Note_on_c, 6, 45, 104
8, 34869, Note_on_c, 6, 45, 0
8, 34972, Note_on_c, 6, 45, 107
8, 35006, Note_on_c, 6, 45, 0
8, 35111, Note_on_c, 6, 45, 108
8, 35145, Note_on_c, 6, 45, 0
8, 35245, Note_on_c, 6, 44, 99
8, 35278, Note_on_c, 6, 44, 0
8, 35372, Note_on_c, 6, 44, 105
8, 35404, Note_on_c, 6, 44, 0
8, 35505, Note_on_c, 6, 44, 115
8, 35535, Note_on_c, 6, 44, 0
8, 35635, Note_on_c, 6, 44, 118
8, 35664, Note_on_c, 6, 44, 0
8, 35768, Note_on_c, 6, 44, 114
8, 35799, Note_on_c, 6, 44, 0
8, 35890, Note_on_c, 6, 44, 116
8, 35925, Note_on_c, 6, 44, 0
8, 36025, Note_on_c, 6, 45, 117
8, 36065, Note_on_c, 6, 45, 0
8, 36288, Note_on_c, 6, 40, 120
8, 36783, Note_on_c, 6, 40, 0
8, 36805, Note_on_c, 6, 45, 97
8, 36886, Note_on_c, 6, 45, 0
8, 37071, Note_on_c, 6, 40, 107
8, 37575, Note_on_c, 6, 45, 84
8, 37578, Note_on_c, 6, 40, 0
8, 37621, Note_on_c, 6, 45, 0
8, 37838, Note_on_c, 6, 39, 107
8, 38341, Note_on_c, 6, 39, 0
8, 38369, Note_on_c, 6, 40, 101
8, 38445, Note_on_c, 6, 40, 0
8, 38642, Note_on_c, 6, 39, 108
8, 39108, Note_on_c, 6, 39, 0
8, 39155, Note_on_c, 6, 40, 100
8, 39224, Note_on_c, 6, 40, 0
8, 39416, Note_on_c, 6, 34, 112
8, 39925, Note_on_c, 6, 34, 0
8, 39973, Note_on_c, 6, 35, 111
8, 40013, Note_on_c, 6, 35, 0
8, 40100, Note_on_c, 6, 35, 116
8, 40133, Note_on_c, 6, 35, 0
8, 40238, Note_on_c, 6, 34, 125
8, 40291, Note_on_c, 6, 34, 0
8, 40370, Note_on_c, 6, 34, 110
8, 40415, Note_on_c, 6, 34, 0
8, 40511, Note_on_c, 6, 34, 106
8, 40548, Note_on_c, 6, 34, 0
8, 40646, Note_on_c, 6, 34, 125
8, 40682, Note_on_c, 6, 34, 0
8, 40787, Note_on_c, 6, 35, 127
8, 41139, Note_on_c, 6, 35, 0
8, 41215, Note_on_c, 6, 34, 116
8, 41315, Note_on_c, 6, 34, 0
8, 41347, Note_on_c, 6, 35, 114
8, 41465, Note_on_c, 6, 42, 124
8, 41476, Note_on_c, 6, 35, 0
8, 41563, Note_on_c, 6, 42, 0
8, 41602, Note_on_c, 6, 43, 122
8, 41660, Note_on_c, 6, 43, 0
8, 41854, Note_on_c, 6, 43, 121
8, 41913, Note_on_c, 6, 43, 0
8, 42120, Note_on_c, 6, 42, 121
8, 42169, Note_on_c, 6, 42, 0
8, 42362, Note_on_c, 6, 35, 117
8, 42734, Note_on_c, 6, 35, 0
8, 42764, Note_on_c, 6, 34, 118
8, 42875, Note_on_c, 6, 34, 0
8, 42886, Note_on_c, 6, 35, 116
8, 42998, Note_on_c, 6, 35, 0
8, 43013, Note_on_c, 6, 42, 120
8, 43111, Note_on_c, 6, 42, 0
8, 43144, Note_on_c, 6, 43, 120
8, 43193, Note_on_c, 6, 43, 0
8, 43393, Note_on_c, 6, 43, 121
8, 43439, Note_on_c, 6, 43, 0
8, 43649, Note_on_c, 6, 42, 123
8, 43682, Note_on_c, 6, 42, 0
8, 43911, Note_on_c, 6, 35, 118
8, 43998, Note_on_c, 6, 35, 0
8, 47520, Control_c, 6, 11, 80
8, 54449, Note_on_c, 6, 42, 41
8, 54854, Note_on_c, 6, 42, 0
8, 54865, Note_on_c, 6, 45, 36
8, 55829, Note_on_c, 6, 47, 35
8, 55876, Note_on_c, 6, 45, 0
8, 56529, Note_on_c, 6, 40, 42
8, 56586, Note_on_c, 6, 47, 0
8, 56924, Note_on_c, 6, 40, 0
8, 67308, Note_on_c, 6, 47, 55
8, 67859, Note_on_c, 6, 45, 51
8, 67889, Note_on_c, 6, 47, 0
8, 68185, Note_on_c, 6, 44, 48
8, 68227, Note_on_c, 6, 45, 0
8, 68811, Note_on_c, 6, 42, 42
8, 68854, Note_on_c, 6, 44, 0
8, 69119, Note_on_c, 6, 40, 39
8, 69157, Note_on_c, 6, 42, 0
8, 69484, Note_on_c, 6, 35, 51
8, 69489, Note_on_c, 6, 40, 0
8, 70531, Note_on_c, 6, 40, 36
8, 70572, Note_on_c, 6, 35, 0
8, 71152, Note_on_c, 6, 40, 0
8, 71280, Program_c, 6, 45
8, 71280, Control_c, 6, 91, 120
8, 71450, Note_on_c, 6, 47, 46
8, 71755, Note_on_c, 6, 47, 0
8, 72934, Note_on_c, 6, 47, 41
8, 73018, Note_on_c, 6, 47, 0
8, 73228, Note_on_c, 6, 46, 46
8, 73355, Note_on_c, 6, 46, 0
8, 74458, Note_on_c, 6, 47, 48
8, 74524, Note_on_c, 6, 47, 0
8, 74763, Note_on_c, 6, 47, 43
8, 74822, Note_on_c, 6, 47, 0
8, 75082, Program_c, 6, 49
8, 75082, Control_c, 6, 91, 60
8, 75082, Note_on_c, 6, 47, 35
8, 76359, Note_on_c, 6, 47, 0
8, 76643, Program_c, 6, 45
8, 76643, Control_c, 6, 91, 120
8, 76643, Note_on_c, 6, 47, 40
8, 76701, Note_on_c, 6, 47, 0
8, 76937, Note_on_c, 6, 46, 40
8, 77006, Note_on_c, 6, 46, 0
8, 78240, Program_c, 6, 49
8, 78240, Control_c, 6, 91, 60
8, 78527, Note_on_c, 6, 47, 57
8, 78647, Note_on_c, 6, 47, 0
8, 78983, Note_on_c, 6, 40, 71
8, 79231, Note_on_c, 6, 40, 0
8, 82336, Note_on_c, 6, 47, 55
8, 82887, Control_c, 6, 11, 80
8, 82887, Note_on_c, 6, 45, 73
8, 82921, Note_on_c, 6, 47, 0
8, 82971, Control_c, 6, 11, 81
8, 83049, Control_c, 6, 11, 82
8, 83133, Control_c, 6, 11, 83
8, 83211, Note_on_c, 6, 44, 92
8, 83211, Control_c, 6, 11, 84
8, 83235, Note_on_c, 6, 45, 0
8, 83295, Control_c, 6, 11, 85
8, 83373, Control_c, 6, 11, 86
8, 83457, Control_c, 6, 11, 87
8, 83495, Note_on_c, 6, 44, 0
8, 83514, Note_on_c, 6, 42, 88
8, 83535, Control_c, 6, 11, 88
8, 83619, Control_c, 6, 11, 89
8, 83697, Control_c, 6, 11, 90
8, 83781, Control_c, 6, 11, 91
8, 83807, Note_on_c, 6, 42, 0
8, 83818, Note_on_c, 6, 35, 96
8, 83859, Control_c, 6, 11, 92
8, 83943, Control_c, 6, 11, 93
8, 84021, Control_c, 6, 11, 94
8, 84099, Control_c, 6, 11, 95
8, 84138, Note_on_c, 6, 35, 0
8, 84173, Note_on_c, 6, 40, 101
8, 84183, Control_c, 6, 11, 96
8, 84261, Control_c, 6, 11, 97
8, 84345, Control_c, 6, 11, 98
8, 84423, Control_c, 6, 11, 99
8, 84480, Control_c, 6, 11, 99
8, 84490, Note_on_c, 6, 40, 0
8, 84504, Note_on_c, 6, 34, 110
8, 84557, Note_on_c, 6, 34, 0
8, 84560, Control_c, 6, 11, 100
8, 84640, Control_c, 6, 11, 101
8, 84686, Note_on_c, 6, 34, 95
8, 84720, Control_c, 6, 11, 102
8, 84727, Note_on_c, 6, 34, 0
8, 84800, Control_c, 6, 11, 103
8, 84821, Note_on_c, 6, 34, 106
8, 84859, Note_on_c, 6, 34, 0
8, 84880, Control_c, 6, 11, 104
8, 84956, Note_on_c, 6, 34, 101
8, 84960, Control_c, 6, 11, 105
8, 84994, Note_on_c, 6, 34, 0
8, 85040, Control_c, 6, 11, 106
8, 85104, Note_on_c, 6, 34, 108
8, 85120, Control_c, 6, 11, 107
8, 85150, Note_on_c, 6, 34, 0
8, 85200, Control_c, 6, 11, 108
8, 85236, Note_on_c, 6, 34, 107
8, 85280, Control_c, 6, 11, 109
8, 85283, Note_on_c, 6, 34, 0
8, 85360, Control_c, 6, 11, 110
8, 85374, Note_on_c, 6, 33, 113
8, 85433, Note_on_c, 6, 33, 0
8, 85440, Control_c, 6, 11, 111
8, 85520, Control_c, 6, 11, 112
8, 85524, Note_on_c, 6, 33, 106
8, 85574, Note_on_c, 6, 33, 0
8, 85600, Control_c, 6, 11, 113
8, 85663, Note_on_c, 6, 33, 112
8, 85680, Control_c, 6, 11, 114
8, 85706, Note_on_c, 6, 33, 0
8, 85760, Control_c, 6, 11, 115
8, 85801, Note_on_c, 6, 33, 114
8, 85840, Control_c, 6, 11, 116
8, 85847, Note_on_c, 6, 33, 0
8, 85920, Control_c, 6, 11, 117
8, 85927, Note_on_c, 6, 33, 114
8, 85973, Note_on_c, 6, 33, 0
8, 86000, Control_c, 6, 11, 118
8, 86062, Note_on_c, 6, 33, 112
8, 86080, Control_c, 6, 11, 119
8, 86103, Note_on_c, 6, 33, 0
8, 86160, Control_c, 6, 11, 120
8, 86200, Note_on_c, 6, 32, 110
8, 86342, Note_on_c, 6, 32, 0
8, 86501, Note_on_c, 6, 37, 115
8, 86758, Note_on_c, 6, 37, 0
8, 86801, Note_on_c, 6, 39, 112
8, 87015, Note_on_c, 6, 39, 0
8, 87089, Note_on_c, 6, 40, 109
8, 87262, Note_on_c, 6, 40, 0
8, 87397, Note_on_c, 6, 40, 111
8, 87706, Note_on_c, 6, 42, 116
8, 87737, Note_on_c, 6, 40, 0
8, 87994, Note_on_c, 6, 42, 0
8, 87995, Note_on_c, 6, 43, 112
8, 88304, Note_on_c, 6, 42, 98
8, 88317, Note_on_c, 6, 43, 0
8, 88595, Note_on_c, 6, 42, 0
8, 88897, Note_on_c, 6, 35, 112
8, 88944, Note_on_c, 6, 35, 0
8, 89015, Note_on_c, 6, 35, 90
8, 89065, Note_on_c, 6, 35, 0
8, 89138, Note_on_c, 6, 35, 89
8, 89184, Note_on_c, 6, 35, 0
8, 89277, Note_on_c, 6, 35, 108
8, 89326, Note_on_c, 6, 35, 0
8, 89411, Note_on_c, 6, 33, 116
8, 89458, Note_on_c, 6, 33, 0
8, 89554, Note_on_c, 6, 33, 106
8, 89604, Note_on_c, 6, 33, 0
8, 89688, Note_on_c, 6, 32, 98
8, 89728, Note_on_c, 6, 32, 0
8, 89827, Note_on_c, 6, 32, 113
8, 89869, Note_on_c, 6, 32, 0
8, 89961, Note_on_c, 6, 32, 123
8, 89997, Note_on_c, 6, 32, 0
8, 90095, Note_on_c, 6, 32, 119
8, 90136, Note_on_c, 6, 32, 0
8, 90235, Note_on_c, 6, 33, 101
8, 90272, Note_on_c, 6, 33, 0
8, 90372, Note_on_c, 6, 33, 112
8, 90418, Note_on_c, 6, 33, 0
8, 90503, Note_on_c, 6, 34, 118
8, 90547, Note_on_c, 6, 34, 0
8, 90631, Note_on_c, 6, 34, 120
8, 90674, Note_on_c, 6, 34, 0
8, 90771, Note_on_c, 6, 35, 120
8, 90810, Note_on_c, 6, 35, 0
8, 90905, Note_on_c, 6, 35, 112
8, 90943, Note_on_c, 6, 35, 0
8, 91034, Note_on_c, 6, 35, 118
8, 91077, Note_on_c, 6, 35, 0
8, 91164, Note_on_c, 6, 35, 122
8, 91202, Note_on_c, 6, 35, 0
8, 91311, Note_on_c, 6, 36, 127
8, 91664, Note_on_c, 6, 36, 0
8, 91753, Note_on_c, 6, 35, 118
8, 91887, Note_on_c, 6, 36, 111
8, 91915, Note_on_c, 6, 35, 0
8, 91998, Note_on_c, 6, 40, 117
8, 92015, Note_on_c, 6, 36, 0
8, 92125, Note_on_c, 6, 43, 118
8, 92142, Note_on_c, 6, 40, 0
8, 92189, Note_on_c, 6, 43, 0
8, 92409, Note_on_c, 6, 43, 121
8, 92466, Note_on_c, 6, 43, 0
8, 92670, Note_on_c, 6, 43, 117
8, 92729, Note_on_c, 6, 43, 0
8, 92947, Note_on_c, 6, 36, 120
8, 93300, Note_on_c, 6, 36, 0
8, 93351, Note_on_c, 6, 35, 112
8, 93476, Note_on_c, 6, 35, 0
8, 93486, Note_on_c, 6, 36, 108
8, 93601, Note_on_c, 6, 40, 111
8, 93607, Note_on_c, 6, 36, 0
8, 93733, Note_on_c, 6, 43, 118
8, 93752, Note_on_c, 6, 40, 0
8, 93790, Note_on_c, 6, 43, 0
8, 94008, Note_on_c, 6, 43, 121
8, 94084, Note_on_c, 6, 43, 0
8, 94271, Note_on_c, 6, 43, 121
8, 94326, Note_on_c, 6, 43, 0
8, 94551, Note_on_c, 6, 36, 126
8, 94755, Note_on_c, 6, 36, 0
8, 97920, Control_c, 6, 11, 100
8, 98640, Control_c, 6, 11, 100
8, 98703, Note_on_c, 6, 46, 58
8, 98725, Control_c, 6, 11, 99
8, 98810, Control_c, 6, 11, 98
8, 98895, Control_c, 6, 11, 97
8, 98967, Note_on_c, 6, 47, 66
8, 98975, Control_c, 6, 11, 96
8, 99016, Note_on_c, 6, 46, 0
8, 99060, Control_c, 6, 11, 95
8, 99145, Control_c, 6, 11, 94
8, 99221, Note_on_c, 6, 44, 74
8, 99230, Control_c, 6, 11, 93
8, 99250, Note_on_c, 6, 47, 0
8, 99310, Control_c, 6, 11, 92
8, 99395, Control_c, 6, 11, 91
8, 99480, Control_c, 6, 11, 90
8, 99486, Note_on_c, 6, 45, 65
8, 99502, Note_on_c, 6, 44, 0
8, 99565, Control_c, 6, 11, 89
8, 99645, Control_c, 6, 11, 88
8, 99730, Control_c, 6, 11, 87
8, 99771, Note_on_c, 6, 45, 0
8, 99785, Note_on_c, 6, 33, 76
8, 99815, Control_c, 6, 11, 86
8, 99900, Control_c, 6, 11, 85
8, 99980, Control_c, 6, 11, 84
8, 100065, Control_c, 6, 11, 83
8, 100083, Note_on_c, 6, 33, 0
8, 100114, Note_on_c, 6, 35, 73
8, 100150, Control_c, 6, 11, 82
8, 100235, Control_c, 6, 11, 81
8, 100315, Control_c, 6, 11, 80
8, 100400, Control_c, 6, 11, 79
8, 100485, Control_c, 6, 11, 78
8, 100570, Control_c, 6, 11, 77
8, 100650, Control_c, 6, 11, 76
8, 100735, Control_c, 6, 11, 75
8, 100820, Control_c, 6, 11, 74
8, 100900, Control_c, 6, 11, 73
8, 100985, Control_c, 6, 11, 72
8, 101070, Control_c, 6, 11, 71
8, 101155, Control_c, 6, 11, 70
8, 101235, Control_c, 6, 11, 69
8, 101320, Control_c, 6, 11, 68
8, 101405, Control_c, 6, 11, 67
8, 101490, Control_c, 6, 11, 66
8, 101570, Control_c, 6, 11, 65
8, 101655, Control_c, 6, 11, 64
8, 101740, Control_c, 6, 11, 63
8, 101825, Control_c, 6, 11, 62
8, 101878, Note_on_c, 6, 35, 0
8, 101905, Control_c, 6, 11, 61
8, 101989, Control_c, 6, 11, 120
8, 101989, Note_on_c, 6, 36, 127
8, 102360, Note_on_c, 6, 36, 0
8, 102442, Note_on_c, 6, 35, 117
8, 102559, Note_on_c, 6, 35, 0
8, 102587, Note_on_c, 6, 36, 111
8, 102703, Note_on_c, 6, 40, 118
8, 102734, Note_on_c, 6, 36, 0
8, 102857, Note_on_c, 6, 43, 124
8, 102878, Note_on_c, 6, 40, 0
8, 102919, Note_on_c, 6, 43, 0
8, 103117, Note_on_c, 6, 43, 121
8, 103183, Note_on_c, 6, 43, 0
8, 103381, Note_on_c, 6, 43, 120
8, 103461, Note_on_c, 6, 43, 0
8, 103669, Note_on_c, 6, 36, 124
8, 104069, Note_on_c, 6, 36, 0
8, 104110, Note_on_c, 6, 35, 114
8, 104253, Note_on_c, 6, 36, 114
8, 104284, Note_on_c, 6, 35, 0
8, 104362, Note_on_c, 6, 40, 116
8, 104393, Note_on_c, 6, 36, 0
8, 104492, Note_on_c, 6, 43, 117
8, 104515, Note_on_c, 6, 40, 0
8, 104558, Note_on_c, 6, 43, 0
8, 104775, Note_on_c, 6, 43, 120
8, 104825, Note_on_c, 6, 43, 0
8, 105048, Note_on_c, 6, 43, 124
8, 105117, Note_on_c, 6, 43, 0
8, 105388, Note_on_c, 6, 36, 124
8, 105662, Note_on_c, 6, 36, 0
8, 108720, Control_c, 6, 11, 80
8, 109703, Note_on_c, 6, 46, 58
8, 109975, Note_on_c, 6, 47, 49
8, 110020, Note_on_c, 6, 46, 0
8, 110258, Note_on_c, 6, 44, 53
8, 110306, Note_on_c, 6, 47, 0
8, 110542, Note_on_c, 6, 45, 47
8, 110574, Note_on_c, 6, 44, 0
8, 110863, Note_on_c, 6, 45, 0
8, 110890, Note_on_c, 6, 33, 44
8, 111241, Note_on_c, 6, 35, 50
8, 111255, Note_on_c, 6, 33, 0
8, 113338, Note_on_c, 6, 40, 45
8, 113381, Note_on_c, 6, 35, 0
8, 115174, Note_on_c, 6, 40, 0
8, 115281, Note_on_c, 6, 40, 28
8, 117532, Note_on_c, 6, 40, 0
8, 119652, Note_on_c, 6, 45, 37
8, 119977, Note_on_c, 6, 48, 38
8, 120035, Note_on_c, 6, 45, 0
8, 120348, Note_on_c, 6, 47, 37
8, 120415, Note_on_c, 6, 48, 0
8, 121443, Note_on_c, 6, 47, 0
8, 121451, Control_c, 6, 11, 80
8, 121451, Note_on_c, 6, 52, 42
8, 121481, Control_c, 6, 11, 81
8, 121511, Control_c, 6, 11, 82
8, 121541, Control_c, 6, 11, 83
8, 121566, Control_c, 6, 11, 84
8, 121596, Control_c, 6, 11, 85
8, 121626, Control_c, 6, 11, 86
8, 121656, Control_c, 6, 11, 87
8, 121681, Control_c, 6, 11, 88
8, 121711, Control_c, 6, 11, 89
8, 121741, Control_c, 6, 11, 90
8, 121766, Control_c, 6, 11, 91
8, 121796, Control_c, 6, 11, 92
8, 121826, Control_c, 6, 11, 93
8, 121856, Control_c, 6, 11, 94
8, 121881, Control_c, 6, 11, 95
8, 121911, Control_c, 6, 11, 96
8, 121941, Control_c, 6, 11, 97
8, 121966, Control_c, 6, 11, 98
8, 121996, Control_c, 6, 11, 99
8, 122024, Control_c, 6, 11, 100
8, 122024, Note_on_c, 6, 50, 44
8, 122065, Note_on_c, 6, 52, 0
8, 122188, Note_on_c, 6, 48, 36
8, 122213, Note_on_c, 6, 50, 0
8, 122349, Note_on_c, 6, 47, 41
8, 122387, Note_on_c, 6, 48, 0
8, 122575, Control_c, 6, 11, 100
8, 122575, Note_on_c, 6, 45, 32
8, 122595, Control_c, 6, 11, 99
8, 122599, Note_on_c, 6, 47, 0
8, 122615, Control_c, 6, 11, 98
8, 122635, Control_c, 6, 11, 97
8, 122655, Control_c, 6, 11, 96
8, 122675, Control_c, 6, 11, 95
8, 122695, Control_c, 6, 11, 94
8, 122715, Control_c, 6, 11, 93
8, 122735, Control_c, 6, 11, 92
8, 122755, Control_c, 6, 11, 91
8, 122775, Control_c, 6, 11, 90
8, 122795, Control_c, 6, 11, 89
8, 122815, Control_c, 6, 11, 88
8, 122830, Control_c, 6, 11, 87
8, 122850, Control_c, 6, 11, 86
8, 122870, Control_c, 6, 11, 85
8, 122890, Control_c, 6, 11, 84
8, 122910, Control_c, 6, 11, 83
8, 122930, Control_c, 6, 11, 82
8, 122950, Control_c, 6, 11, 81
8, 122970, Control_c, 6, 11, 80
8, 122990, Control_c, 6, 11, 79
8, 123010, Control_c, 6, 11, 78
8, 123030, Control_c, 6, 11, 77
8, 123050, Control_c, 6, 11, 76
8, 123065, Control_c, 6, 11, 75
8, 123085, Control_c, 6, 11, 74
8, 123105, Control_c, 6, 11, 73
8, 123125, Control_c, 6, 11, 72
8, 123145, Control_c, 6, 11, 71
8, 123165, Control_c, 6, 11, 70
8, 123185, Control_c, 6, 11, 69
8, 123205, Control_c, 6, 11, 68
8, 123225, Control_c, 6, 11, 67
8, 123245, Control_c, 6, 11, 66
8, 123265, Control_c, 6, 11, 65
8, 123285, Control_c, 6, 11, 64
8, 123305, Control_c, 6, 11, 63
8, 123307, Note_on_c, 6, 47, 34
8, 123320, Control_c, 6, 11, 62
8, 123340, Control_c, 6, 11, 61
8, 123343, Note_on_c, 6, 45, 0
8, 123360, Control_c, 6, 11, 60
8, 123762, Control_c, 6, 11, 60
8, 123762, Note_on_c, 6, 48, 43
8, 123782, Control_c, 6, 11, 61
8, 123791, Note_on_c, 6, 47, 0
8, 123802, Control_c, 6, 11, 62
8, 123822, Control_c, 6, 11, 63
8, 123837, Control_c, 6, 11, 64
8, 123857, Control_c, 6, 11, 65
8, 123877, Control_c, 6, 11, 66
8, 123892, Control_c, 6, 11, 67
8, 123912, Control_c, 6, 11, 68
8, 123932, Control_c, 6, 11, 69
8, 123952, Control_c, 6, 11, 70
8, 123967, Control_c, 6, 11, 71
8, 123987, Control_c, 6, 11, 72
8, 124007, Control_c, 6, 11, 73
8, 124022, Control_c, 6, 11, 74
8, 124042, Control_c, 6, 11, 75
8, 124062, Control_c, 6, 11, 76
8, 124082, Control_c, 6, 11, 77
8, 124097, Control_c, 6, 11, 78
8, 124117, Control_c, 6, 11, 79
8, 124137, Control_c, 6, 11, 80
8, 124152, Control_c, 6, 11, 81
8, 124172, Control_c, 6, 11, 82
8, 124192, Control_c, 6, 11, 83
8, 124212, Control_c, 6, 11, 84
8, 124227, Control_c, 6, 11, 85
8, 124247, Control_c, 6, 11, 86
8, 124267, Control_c, 6, 11, 87
8, 124282, Control_c, 6, 11, 88
8, 124284, Note_on_c, 6, 47, 50
8, 124302, Control_c, 6, 11, 89
8, 124319, Note_on_c, 6, 48, 0
8, 124320, Control_c, 6, 11, 90
8, 124472, Note_on_c, 6, 45, 41
8, 124474, Note_on_c, 6, 47, 0
8, 124675, Note_on_c, 6, 43, 47
8, 124718, Note_on_c, 6, 45, 0
8, 124855, Control_c, 6, 11, 90
8, 124855, Note_on_c, 6, 42, 40
8, 124899, Note_on_c, 6, 43, 0
8, 124905, Control_c, 6, 11, 89
8, 124955, Control_c, 6, 11, 88
8, 125005, Control_c, 6, 11, 87
8, 125055, Control_c, 6, 11, 86
8, 125105, Control_c, 6, 11, 85
8, 125155, Control_c, 6, 11, 84
8, 125205, Control_c, 6, 11, 83
8, 125255, Control_c, 6, 11, 82
8, 125305, Control_c, 6, 11, 81
8, 125355, Control_c, 6, 11, 80
8, 125405, Control_c, 6, 11, 79
8, 125455, Control_c, 6, 11, 78
8, 125505, Control_c, 6, 11, 77
8, 125555, Control_c, 6, 11, 76
8, 125605, Control_c, 6, 11, 75
8, 125617, Note_on_c, 6, 47, 36
8, 125655, Control_c, 6, 11, 74
8, 125677, Note_on_c, 6, 42, 0
8, 125705, Control_c, 6, 11, 73
8, 125755, Control_c, 6, 11, 72
8, 125805, Control_c, 6, 11, 71
8, 125850, Control_c, 6, 11, 70
8, 125900, Control_c, 6, 11, 69
8, 125944, Note_on_c, 6, 47, 0
8, 125950, Control_c, 6, 11, 68
8, 126000, Control_c, 6, 11, 67
8, 126066, Control_c, 6, 11, 80
8, 126066, Note_on_c, 6, 40, 45
8, 127246, Note_on_c, 6, 40, 0
8, 127250, Note_on_c, 6, 33, 34
8, 128501, Note_on_c, 6, 35, 48
8, 128527, Note_on_c, 6, 33, 0
8, 128880, Control_c, 6, 11, 80
8, 129005, Control_c, 6, 11, 79
8, 129125, Control_c, 6, 11, 78
8, 129245, Control_c, 6, 11, 77
8, 129365, Control_c, 6, 11, 76
8, 129490, Control_c, 6, 11, 75
8, 129610, Control_c, 6, 11, 74
8, 129730, Control_c, 6, 11, 73
8, 129850, Control_c, 6, 11, 72
8, 129975, Control_c, 6, 11, 71
8, 130095, Control_c, 6, 11, 70
8, 130215, Control_c, 6, 11, 69
8, 130335, Control_c, 6, 11, 68
8, 130460, Control_c, 6, 11, 67
8, 130580, Control_c, 6, 11, 66
8, 130700, Control_c, 6, 11, 65
8, 130820, Control_c, 6, 11, 64
8, 130945, Control_c, 6, 11, 63
8, 131065, Control_c, 6, 11, 62
8, 131185, Control_c, 6, 11, 61
8, 131305, Control_c, 6, 11, 60
8, 131306, Note_on_c, 6, 40, 33
8, 131361, Note_on_c, 6, 35, 0
8, 131626, Note_on_c, 6, 40, 0
8, 132080, Control_c, 6, 11, 80
8, 148320, Program_c, 6, 45
8, 148320, Control_c, 6, 91, 120
8, 148380, Note_on_c, 6, 40, 65
8, 148693, Note_on_c, 6, 40, 0
8, 170263, Note_on_c, 6, 40, 85
8, 170454, Note_on_c, 6, 40, 0
8, 176660, Program_c, 6, 49
8, 176660, Control_c, 6, 91, 60
8, 176660, Note_on_c, 6, 47, 76
8, 177576, Note_on_c, 6, 40, 77
8, 177588, Note_on_c, 6, 47, 0
8, 177945, Note_on_c, 6, 40, 0
8, 178320, Program_c, 6, 45
8, 178320, Control_c, 6, 91, 120
8, 178643, Note_on_c, 6, 40, 93
8, 178737, Note_on_c, 6, 40, 0
8, 179392, Note_on_c, 6, 40, 76
8, 179495, Note_on_c, 6, 40, 0
8, 181002, Note_on_c, 6, 40, 65
8, 181158, Note_on_c, 6, 40, 0
8, 181763, Note_on_c, 6, 40, 78
8, 181907, Note_on_c, 6, 40, 0
8, 182454, Note_on_c, 6, 40, 97
8, 182579, Note_on_c, 6, 40, 0
8, 182880, Program_c, 6, 49
8, 182880, Control_c, 6, 91, 60
8, 183839, Note_on_c, 6, 42, 80
8, 184243, Note_on_c, 6, 35, 70
8, 184280, Note_on_c, 6, 42, 0
8, 184560, Note_on_c, 6, 35, 0
8, 184800, Program_c, 6, 45
8, 184800, Control_c, 6, 91, 120
8, 185113, Note_on_c, 6, 35, 86
8, 185252, Note_on_c, 6, 35, 0
8, 185843, Note_on_c, 6, 35, 89
8, 185976, Note_on_c, 6, 35, 0
8, 187532, Note_on_c, 6, 35, 84
8, 187655, Note_on_c, 6, 35, 0
8, 189360, Program_c, 6, 49
8, 189360, Control_c, 6, 91, 60
8, 197458, Note_on_c, 6, 48, 125
8, 197909, Note_on_c, 6, 48, 0
8, 198080, Note_on_c, 6, 36, 127
8, 198795, Note_on_c, 6, 36, 0
8, 199004, Note_on_c, 6, 48, 124
8, 199255, Note_on_c, 6, 47, 120
8, 199289, Note_on_c, 6, 48, 0
8, 199355, Note_on_c, 6, 47, 0
8, 199561, Note_on_c, 6, 35, 124
8, 200236, Note_on_c, 6, 35, 0
8, 200456, Note_on_c, 6, 47, 117
8, 200719, Note_on_c, 6, 46, 120
8, 200742, Note_on_c, 6, 47, 0
8, 200766, Note_on_c, 6, 46, 0
8, 201002, Note_on_c, 6, 34, 121
8, 201465, Note_on_c, 6, 34, 0
8, 201691, Note_on_c, 6, 34, 116
8, 201922, Note_on_c, 6, 35, 114
8, 201949, Note_on_c, 6, 34, 0
8, 202166, Note_on_c, 6, 36, 116
8, 202195, Note_on_c, 6, 35, 0
8, 203007, Note_on_c, 6, 36, 0
8, 203642, Note_on_c, 6, 36, 126
8, 204085, Control_c, 6, 11, 80
8, 204085, Note_on_c, 6, 35, 114
8, 204090, Control_c, 6, 11, 78
8, 204095, Control_c, 6, 11, 76
8, 204099, Note_on_c, 6, 36, 0
8, 204100, Control_c, 6, 11, 75
8, 204105, Control_c, 6, 11, 74
8, 204110, Control_c, 6, 11, 73
8, 204115, Control_c, 6, 11, 72
8, 204120, Control_c, 6, 11, 71
8, 204125, Control_c, 6, 11, 70
8, 204130, Control_c, 6, 11, 69
8, 204135, Control_c, 6, 11, 68
8, 204145, Control_c, 6, 11, 67
8, 204150, Control_c, 6, 11, 66
8, 204155, Control_c, 6, 11, 65
8, 204165, Control_c, 6, 11, 64
8, 204170, Control_c, 6, 11, 63
8, 204180, Control_c, 6, 11, 62
8, 204190, Control_c, 6, 11, 61
8, 204200, Control_c, 6, 11, 60
8, 204210, Control_c, 6, 11, 59
8, 204225, Control_c, 6, 11, 58
8, 204235, Control_c, 6, 11, 57
8, 204250, Control_c, 6, 11, 56
8, 204270, Control_c, 6, 11, 55
8, 204290, Control_c, 6, 11, 54
8, 204315, Control_c, 6, 11, 53
8, 204350, Control_c, 6, 11, 52
8, 204390, Control_c, 6, 11, 51
8, 204470, Control_c, 6, 11, 50
8, 206019, Note_on_c, 6, 35, 0
8, 207744, Control_c, 6, 11, 80
8, 207744, Note_on_c, 6, 36, 103
8, 208397, Note_on_c, 6, 35, 103
8, 208424, Note_on_c, 6, 36, 0
8, 209082, Note_on_c, 6, 33, 103
8, 209117, Note_on_c, 6, 35, 0
8, 210161, Note_on_c, 6, 30, 89
8, 210195, Note_on_c, 6, 33, 0
8, 211189, Note_on_c, 6, 30, 0
8, 213159, Control_c, 6, 11, 51
8, 213159, Note_on_c, 6, 35, 47
8, 213164, Control_c, 6, 11, 53
8, 213169, Control_c, 6, 11, 54
8, 213174, Control_c, 6, 11, 55
8, 213179, Control_c, 6, 11, 56
8, 213184, Control_c, 6, 11, 57
8, 213189, Control_c, 6, 11, 58
8, 213194, Control_c, 6, 11, 59
8, 213199, Control_c, 6, 11, 60
8, 213209, Control_c, 6, 11, 61
8, 213214, Control_c, 6, 11, 62
8, 213219, Control_c, 6, 11, 63
8, 213224, Control_c, 6, 11, 64
8, 213234, Control_c, 6, 11, 65
8, 213239, Control_c, 6, 11, 66
8, 213249, Control_c, 6, 11, 67
8, 213259, Control_c, 6, 11, 68
8, 213269, Control_c, 6, 11, 69
8, 213279, Control_c, 6, 11, 70
8, 213289, Control_c, 6, 11, 71
8, 213304, Control_c, 6, 11, 72
8, 213319, Control_c, 6, 11, 73
8, 213334, Control_c, 6, 11, 74
8, 213354, Control_c, 6, 11, 75
8, 213374, Control_c, 6, 11, 76
8, 213399, Control_c, 6, 11, 77
8, 213434, Control_c, 6, 11, 78
8, 213484, Control_c, 6, 11, 79
8, 213569, Control_c, 6, 11, 80
8, 214560, Control_c, 6, 11, 80
8, 214590, Control_c, 6, 11, 79
8, 214620, Control_c, 6, 11, 78
8, 214650, Control_c, 6, 11, 77
8, 214680, Control_c, 6, 11, 76
8, 214710, Control_c, 6, 11, 75
8, 214740, Control_c, 6, 11, 74
8, 214770, Control_c, 6, 11, 73
8, 214800, Control_c, 6, 11, 72
8, 214830, Control_c, 6, 11, 71
8, 214860, Control_c, 6, 11, 70
8, 214890, Control_c, 6, 11, 69
8, 214920, Control_c, 6, 11, 68
8, 214950, Control_c, 6, 11, 67
8, 214980, Control_c, 6, 11, 66
8, 215010, Control_c, 6, 11, 65
8, 215040, Control_c, 6, 11, 64
8, 215070, Control_c, 6, 11, 63
8, 215100, Control_c, 6, 11, 62
8, 215130, Control_c, 6, 11, 61
8, 215160, Control_c, 6, 11, 60
8, 215190, Control_c, 6, 11, 59
8, 215220, Control_c, 6, 11, 58
8, 215250, Control_c, 6, 11, 57
8, 215280, Control_c, 6, 11, 56
8, 215310, Control_c, 6, 11, 55
8, 215340, Control_c, 6, 11, 54
8, 215370, Control_c, 6, 11, 53
8, 215400, Control_c, 6, 11, 52
8, 215430, Control_c, 6, 11, 51
8, 215460, Control_c, 6, 11, 50
8, 215490, Control_c, 6, 11, 49
8, 215520, Control_c, 6, 11, 48
8, 215550, Control_c, 6, 11, 47
8, 215580, Control_c, 6, 11, 46
8, 215597, Note_on_c, 6, 35, 0
8, 215610, Control_c, 6, 11, 45
8, 215640, Control_c, 6, 11, 44
8, 215670, Control_c, 6, 11, 43
8, 215700, Control_c, 6, 11, 42
8, 215730, Control_c, 6, 11, 41
8, 215760, Control_c, 6, 11, 40
8, 229920, Control_c, 6, 11, 60
8, 231015, Note_on_c, 6, 35, 80
8, 232081, Note_on_c, 6, 40, 52
8, 232126, Note_on_c, 6, 35, 0
8, 232558, Note_on_c, 6, 40, 0
8, 233280, Program_c, 6, 45
8, 233280, Control_c, 6, 91, 120
8, 236589, Note_on_c, 6, 47, 77
8, 236625, Note_on_c, 6, 47, 0
8, 236896, Note_on_c, 6, 35, 89
8, 236965, Note_on_c, 6, 35, 0
8, 237600, Program_c, 6, 49
8, 237600, Control_c, 6, 91, 60
8, 241680, Control_c, 6, 11, 80
8, 241905, Note_on_c, 6, 47, 109
8, 242216, Control_c, 6, 11, 80
8, 242216, Note_on_c, 6, 40, 112
8, 242223, Note_on_c, 6, 47, 0
8, 242266, Control_c, 6, 11, 79
8, 242311, Control_c, 6, 11, 78
8, 242356, Control_c, 6, 11, 77
8, 242401, Control_c, 6, 11, 76
8, 242451, Control_c, 6, 11, 75
8, 242496, Control_c, 6, 11, 74
8, 242541, Control_c, 6, 11, 73
8, 242586, Control_c, 6, 11, 72
8, 242631, Control_c, 6, 11, 71
8, 242681, Control_c, 6, 11, 70
8, 242726, Control_c, 6, 11, 69
8, 242771, Control_c, 6, 11, 68
8, 242816, Control_c, 6, 11, 67
8, 242866, Control_c, 6, 11, 66
8, 242911, Control_c, 6, 11, 65
8, 242956, Control_c, 6, 11, 64
8, 243001, Control_c, 6, 11, 63
8, 243046, Control_c, 6, 11, 62
8, 243084, Note_on_c, 6, 47, 98
8, 243096, Control_c, 6, 11, 61
8, 243116, Note_on_c, 6, 40, 0
8, 243141, Control_c, 6, 11, 60
8, 243186, Control_c, 6, 11, 59
8, 243231, Control_c, 6, 11, 58
8, 243281, Control_c, 6, 11, 57
8, 243326, Control_c, 6, 11, 56
8, 243371, Control_c, 6, 11, 55
8, 243416, Control_c, 6, 11, 54
8, 243418, Note_on_c, 6, 47, 0
8, 243461, Control_c, 6, 11, 53
8, 243511, Control_c, 6, 11, 52
8, 243556, Control_c, 6, 11, 51
8, 243600, Control_c, 6, 11, 50
8, 251520, Control_c, 6, 11, 60
8, 251734, Note_on_c, 6, 44, 103
8, 252686, Note_on_c, 6, 45, 94
8, 252722, Note_on_c, 6, 44, 0
8, 253538, Note_on_c, 6, 44, 72
8, 253566, Note_on_c, 6, 45, 0
8, 255223, Note_on_c, 6, 42, 89
8, 255237, Note_on_c, 6, 44, 0
8, 256844, Note_on_c, 6, 40, 63
8, 256875, Note_on_c, 6, 42, 0
8, 257290, Note_on_c, 6, 40, 0
8, 257622, Note_on_c, 6, 48, 83
8, 258242, Note_on_c, 6, 47, 65
8, 258281, Note_on_c, 6, 48, 0
8, 258606, Note_on_c, 6, 40, 55
8, 258609, Note_on_c, 6, 47, 0
8, 259248, Note_on_c, 6, 40, 0
8, 266242, Note_on_c, 6, 36, 117
8, 266970, Note_on_c, 6, 35, 114
8, 267001, Note_on_c, 6, 36, 0
8, 267273, Note_on_c, 6, 35, 0
8, 271920, Control_c, 6, 11, 80
8, 272118, Note_on_c, 6, 47, 120
8, 272443, Note_on_c, 6, 47, 0
8, 272453, Note_on_c, 6, 40, 122
8, 272633, Note_on_c, 6, 40, 0
8, 272880, Program_c, 6, 45
8, 272880, Control_c, 6, 91, 120
8, 277395, Note_on_c, 6, 47, 111
8, 277433, Note_on_c, 6, 47, 0
8, 277528, Note_on_c, 6, 40, 122
8, 277623, Note_on_c, 6, 40, 0
8, 277920, Program_c, 6, 49
8, 277920, Control_c, 6, 91, 60
8, 282329, Note_on_c, 6, 52, 106
8, 282549, Note_on_c, 6, 45, 121
8, 282555, Note_on_c, 6, 52, 0
8, 282780, Note_on_c, 6, 45, 0
8, 282784, Note_on_c, 6, 47, 114
8, 283039, Note_on_c, 6, 47, 0
8, 283902, Note_on_c, 6, 47, 127
8, 284243, Note_on_c, 6, 47, 0
8, 284244, Note_on_c, 6, 40, 127
8, 284507, Note_on_c, 6, 40, 0
8, 288720, Program_c, 6, 45
8, 288720, Control_c, 6, 91, 120
8, 289440, Note_on_c, 6, 47, 121
8, 289479, Note_on_c, 6, 47, 0
8, 289577, Note_on_c, 6, 40, 124
8, 289691, Note_on_c, 6, 40, 0
8, 290160, Program_c, 6, 49
8, 290160, Control_c, 6, 91, 60
8, 294277, Note_on_c, 6, 52, 117
8, 294520, Note_on_c, 6, 45, 122
8, 294528, Note_on_c, 6, 52, 0
8, 294755, Note_on_c, 6, 45, 0
8, 294762, Note_on_c, 6, 47, 112
8, 295026, Note_on_c, 6, 47, 0
8, 295920, Program_c, 6, 45
8, 295920, Control_c, 6, 91, 120
8, 296607, Note_on_c, 6, 42, 124
8, 296730, Note_on_c, 6, 42, 0
8, 297355, Note_on_c, 6, 44, 127
8, 297481, Note_on_c, 6, 44, 0
8, 297840, Program_c, 6, 49
8, 297840, Control_c, 6, 91, 60
8, 298110, Note_on_c, 6, 47, 125
8, 298357, Note_on_c, 6, 48, 124
8, 298367, Note_on_c, 6, 47, 0
8, 298655, Note_on_c, 6, 49, 125
8, 298684, Note_on_c, 6, 48, 0
8, 298852, Note_on_c, 6, 49, 0
8, 298925, Note_on_c, 6, 37, 118
8, 299239, Note_on_c, 6, 37, 0
8, 299267, Note_on_c, 6, 35, 121
8, 299275, Note_on_c, 6, 36, 86
8, 299348, Note_on_c, 6, 36, 0
8, 299558, Note_on_c, 6, 35, 0
8, 301284, Note_on_c, 6, 35, 101
8, 302592, Note_on_c, 6, 35, 0
8, 307680, Control_c, 6, 11, 80
8, 307790, Control_c, 6, 11, 81
8, 307900, Control_c, 6, 11, 82
8, 308005, Control_c, 6, 11, 83
8, 308115, Control_c, 6, 11, 84
8, 308220, Control_c, 6, 11, 85
8, 308330, Control_c, 6, 11, 86
8, 308440, Control_c, 6, 11, 87
8, 308545, Control_c, 6, 11, 88
8, 308655, Control_c, 6, 11, 89
8, 308760, Control_c, 6, 11, 90
8, 308842, Note_on_c, 6, 35, 127
8, 308870, Control_c, 6, 11, 91
8, 308980, Control_c, 6, 11, 92
8, 309085, Control_c, 6, 11, 93
8, 309195, Control_c, 6, 11, 94
8, 309300, Control_c, 6, 11, 95
8, 309410, Control_c, 6, 11, 96
8, 309520, Control_c, 6, 11, 97
8, 309625, Control_c, 6, 11, 98
8, 309639, Note_on_c, 6, 35, 0
8, 309735, Control_c, 6, 11, 99
8, 309744, Note_on_c, 6, 35, 121
8, 309776, Note_on_c, 6, 35, 0
8, 309840, Control_c, 6, 11, 100
8, 309862, Note_on_c, 6, 35, 117
8, 309897, Note_on_c, 6, 35, 0
8, 309980, Note_on_c, 6, 35, 109
8, 310015, Note_on_c, 6, 35, 0
8, 310097, Note_on_c, 6, 35, 109
8, 310134, Note_on_c, 6, 35, 0
8, 310209, Note_on_c, 6, 35, 107
8, 310245, Note_on_c, 6, 35, 0
8, 310331, Note_on_c, 6, 35, 120
8, 310366, Note_on_c, 6, 35, 0
8, 310445, Note_on_c, 6, 35, 106
8, 310482, Note_on_c, 6, 35, 0
8, 310563, Note_on_c, 6, 35, 109
8, 310602, Note_on_c, 6, 35, 0
8, 310682, Note_on_c, 6, 35, 104
8, 310719, Note_on_c, 6, 35, 0
8, 310808, Note_on_c, 6, 35, 108
8, 310847, Note_on_c, 6, 35, 0
8, 310926, Note_on_c, 6, 35, 111
8, 310963, Note_on_c, 6, 35, 0
8, 311060, Note_on_c, 6, 35, 122
8, 311096, Note_on_c, 6, 35, 0
8, 311172, Note_on_c, 6, 35, 111
8, 311210, Note_on_c, 6, 35, 0
8, 311297, Note_on_c, 6, 35, 107
8, 311336, Note_on_c, 6, 35, 0
8, 311416, Note_on_c, 6, 35, 108
8, 311454, Note_on_c, 6, 35, 0
8, 311539, Note_on_c, 6, 35, 111
8, 311575, Note_on_c, 6, 35, 0
8, 311656, Note_on_c, 6, 35, 111
8, 311690, Note_on_c, 6, 35, 0
8, 311784, Note_on_c, 6, 35, 124
8, 311821, Note_on_c, 6, 35, 0
8, 311902, Note_on_c, 6, 35, 109
8, 311943, Note_on_c, 6, 35, 0
8, 312032, Note_on_c, 6, 35, 107
8, 312070, Note_on_c, 6, 35, 0
8, 312139, Note_on_c, 6, 35, 103
8, 312177, Note_on_c, 6, 35, 0
8, 312260, Note_on_c, 6, 35, 107
8, 312299, Note_on_c, 6, 35, 0
8, 312382, Note_on_c, 6, 35, 107
8, 312420, Note_on_c, 6, 35, 0
8, 312531, Note_on_c, 6, 35, 124
8, 312819, Note_on_c, 6, 35, 0
8, 312901, Note_on_c, 6, 34, 118
8, 313008, Note_on_c, 6, 34, 0
8, 313029, Note_on_c, 6, 35, 106
8, 313097, Note_on_c, 6, 35, 0
8, 313141, Note_on_c, 6, 40, 111
8, 313192, Note_on_c, 6, 40, 0
8, 313287, Note_on_c, 6, 46, 114
8, 313420, Note_on_c, 6, 46, 0
8, 313554, Note_on_c, 6, 47, 113
8, 313664, Note_on_c, 6, 47, 0
8, 313791, Note_on_c, 6, 44, 119
8, 313902, Note_on_c, 6, 44, 0
8, 314040, Note_on_c, 6, 45, 113
8, 314150, Note_on_c, 6, 45, 0
8, 314285, Note_on_c, 6, 47, 113
8, 314385, Note_on_c, 6, 47, 0
8, 314530, Note_on_c, 6, 48, 117
8, 314639, Note_on_c, 6, 48, 0
8, 314769, Note_on_c, 6, 39, 116
8, 314876, Note_on_c, 6, 39, 0
8, 315013, Note_on_c, 6, 40, 117
8, 315119, Note_on_c, 6, 40, 0
8, 315249, Note_on_c, 6, 36, 118
8, 315353, Note_on_c, 6, 36, 0
8, 315495, Note_on_c, 6, 35, 126
8, 315608, Note_on_c, 6, 35, 0
8, 316730, Note_on_c, 6, 40, 125
8, 316802, Note_on_c, 6, 40, 0
8, 316978, Note_on_c, 6, 35, 126
8, 317071, Note_on_c, 6, 35, 0
8, 318173, Note_on_c, 6, 41, 125
8, 318235, Note_on_c, 6, 41, 0
8, 318416, Note_on_c, 6, 35, 121
8, 318500, Note_on_c, 6, 35, 0
8, 319609, Note_on_c, 6, 35, 124
8, 319693, Note_on_c, 6, 35, 0
8, 320330, Note_on_c, 6, 34, 126
8, 320425, Note_on_c, 6, 34, 0
8, 321038, Note_on_c, 6, 33, 121
8, 321117, Note_on_c, 6, 33, 0
8, 321313, Note_on_c, 6, 33, 117
8, 321361, Note_on_c, 6, 33, 0
8, 321555, Note_on_c, 6, 33, 120
8, 322231, Note_on_c, 6, 45, 111
8, 322242, Note_on_c, 6, 33, 0
8, 322465, Note_on_c, 6, 46, 115
8, 322489, Note_on_c, 6, 45, 0
8, 322714, Note_on_c, 6, 47, 117
8, 322725, Note_on_c, 6, 46, 0
8, 322823, Note_on_c, 6, 47, 0
8, 322970, Note_on_c, 6, 35, 113
8, 323161, Note_on_c, 6, 35, 0
8, 323207, Note_on_c, 6, 33, 120
8, 323679, Note_on_c, 6, 45, 117
8, 323695, Note_on_c, 6, 33, 0
8, 323727, Note_on_c, 6, 45, 0
8, 323780, Note_on_c, 6, 45, 106
8, 323835, Note_on_c, 6, 45, 0
8, 323905, Note_on_c, 6, 43, 117
8, 323941, Note_on_c, 6, 43, 0
8, 324009, Note_on_c, 6, 43, 112
8, 324061, Note_on_c, 6, 43, 0
8, 324133, Note_on_c, 6, 42, 116
8, 324182, Note_on_c, 6, 42, 0
8, 324239, Note_on_c, 6, 42, 114
8, 324311, Note_on_c, 6, 42, 0
8, 324372, Note_on_c, 6, 43, 114
8, 324415, Note_on_c, 6, 43, 0
8, 324491, Note_on_c, 6, 43, 109
8, 324544, Note_on_c, 6, 43, 0
8, 324599, Note_on_c, 6, 42, 106
8, 324636, Note_on_c, 6, 42, 0
8, 324715, Note_on_c, 6, 42, 112
8, 324769, Note_on_c, 6, 42, 0
8, 324838, Note_on_c, 6, 40, 118
8, 324881, Note_on_c, 6, 40, 0
8, 324947, Note_on_c, 6, 40, 107
8, 325013, Note_on_c, 6, 40, 0
8, 325074, Note_on_c, 6, 42, 114
8, 325126, Note_on_c, 6, 42, 0
8, 325187, Note_on_c, 6, 42, 114
8, 325251, Note_on_c, 6, 42, 0
8, 325308, Note_on_c, 6, 40, 113
8, 325351, Note_on_c, 6, 40, 0
8, 325424, Note_on_c, 6, 40, 98
8, 325466, Note_on_c, 6, 40, 0
8, 325556, Note_on_c, 6, 39, 123
8, 325638, Note_on_c, 6, 39, 0
8, 325816, Note_on_c, 6, 40, 121
8, 325987, Note_on_c, 6, 40, 0
8, 330333, Note_on_c, 6, 46, 118
8, 330570, Note_on_c, 6, 47, 117
8, 330578, Note_on_c, 6, 46, 0
8, 330799, Note_on_c, 6, 47, 0
8, 330816, Note_on_c, 6, 45, 109
8, 331041, Note_on_c, 6, 43, 111
8, 331053, Note_on_c, 6, 45, 0
8, 331280, Note_on_c, 6, 42, 118
8, 331308, Note_on_c, 6, 43, 0
8, 331506, Note_on_c, 6, 40, 108
8, 331521, Note_on_c, 6, 42, 0
8, 331743, Note_on_c, 6, 39, 120
8, 331767, Note_on_c, 6, 40, 0
8, 331965, Note_on_c, 6, 40, 118
8, 331985, Note_on_c, 6, 39, 0
8, 332037, Note_on_c, 6, 40, 0
8, 332221, Note_on_c, 6, 35, 121
8, 332635, Note_on_c, 6, 35, 0
8, 332654, Note_on_c, 6, 40, 113
8, 332733, Note_on_c, 6, 40, 0
8, 332896, Note_on_c, 6, 35, 122
8, 333332, Note_on_c, 6, 35, 0
8, 333346, Note_on_c, 6, 34, 116
8, 333460, Note_on_c, 6, 34, 0
8, 333588, Note_on_c, 6, 46, 118
8, 333780, Note_on_c, 6, 46, 0
8, 333820, Note_on_c, 6, 45, 92
8, 333999, Note_on_c, 6, 45, 0
8, 334047, Note_on_c, 6, 45, 116
8, 334272, Note_on_c, 6, 43, 117
8, 334277, Note_on_c, 6, 45, 0
8, 334469, Note_on_c, 6, 43, 0
8, 334518, Note_on_c, 6, 36, 120
8, 334747, Note_on_c, 6, 35, 121
8, 334776, Note_on_c, 6, 36, 0
8, 334817, Note_on_c, 6, 35, 0
8, 334996, Note_on_c, 6, 35, 122
8, 335451, Note_on_c, 6, 35, 0
8, 335456, Note_on_c, 6, 40, 109
8, 335512, Note_on_c, 6, 40, 0
8, 335711, Note_on_c, 6, 35, 124
8, 336164, Note_on_c, 6, 35, 0
8, 336199, Note_on_c, 6, 40, 118
8, 336322, Note_on_c, 6, 40, 0
8, 336790, Control_c, 6, 11, 80
8, 341402, Note_on_c, 6, 39, 44
8, 341647, Note_on_c, 6, 40, 53
8, 341693, Note_on_c, 6, 39, 0
8, 341960, Note_on_c, 6, 45, 55
8, 342003, Note_on_c, 6, 40, 0
8, 342272, Note_on_c, 6, 47, 46
8, 342323, Note_on_c, 6, 45, 0
8, 342692, Note_on_c, 6, 40, 31
8, 342720, Control_c, 6, 11, 80
8, 342739, Note_on_c, 6, 47, 0
8, 342867, Control_c, 6, 11, 81
8, 343013, Control_c, 6, 11, 82
8, 343160, Control_c, 6, 11, 83
8, 343306, Control_c, 6, 11, 84
8, 343452, Control_c, 6, 11, 85
8, 343599, Control_c, 6, 11, 86
8, 343602, Note_on_c, 6, 45, 42
8, 343641, Note_on_c, 6, 40, 0
8, 343745, Control_c, 6, 11, 87
8, 343891, Control_c, 6, 11, 88
8, 344038, Control_c, 6, 11, 89
8, 344184, Control_c, 6, 11, 90
8, 344224, Note_on_c, 6, 47, 49
8, 344308, Note_on_c, 6, 45, 0
8, 344330, Control_c, 6, 11, 91
8, 344477, Control_c, 6, 11, 92
8, 344607, Note_on_c, 6, 48, 54
8, 344623, Control_c, 6, 11, 93
8, 344646, Note_on_c, 6, 47, 0
8, 344769, Control_c, 6, 11, 94
8, 344916, Control_c, 6, 11, 95
8, 345062, Control_c, 6, 11, 96
8, 345208, Control_c, 6, 11, 97
8, 345355, Control_c, 6, 11, 98
8, 345501, Control_c, 6, 11, 99
8, 345647, Control_c, 6, 11, 100
8, 345648, Note_on_c, 6, 40, 61
8, 345648, Control_c, 6, 11, 99
8, 345653, Control_c, 6, 11, 98
8, 345658, Control_c, 6, 11, 97
8, 345666, Control_c, 6, 11, 96
8, 345674, Control_c, 6, 11, 95
8, 345682, Control_c, 6, 11, 94
8, 345690, Control_c, 6, 11, 93
8, 345692, Note_on_c, 6, 48, 0
8, 345697, Control_c, 6, 11, 92
8, 345708, Control_c, 6, 11, 91
8, 345718, Control_c, 6, 11, 90
8, 345732, Control_c, 6, 11, 89
8, 345742, Control_c, 6, 11, 88
8, 345758, Control_c, 6, 11, 87
8, 345774, Control_c, 6, 11, 86
8, 345792, Control_c, 6, 11, 85
8, 345816, Control_c, 6, 11, 84
8, 345839, Control_c, 6, 11, 83
8, 345873, Control_c, 6, 11, 82
8, 345923, Control_c, 6, 11, 81
8, 346007, Control_c, 6, 11, 80
8, 346614, Control_c, 6, 11, 80
8, 346614, Note_on_c, 6, 41, 52
8, 346672, Control_c, 6, 11, 81
8, 346686, Note_on_c, 6, 40, 0
8, 346729, Control_c, 6, 11, 82
8, 346786, Control_c, 6, 11, 83
8, 346843, Control_c, 6, 11, 84
8, 346901, Control_c, 6, 11, 85
8, 346958, Control_c, 6, 11, 86
8, 347015, Control_c, 6, 11, 87
8, 347072, Control_c, 6, 11, 88
8, 347130, Control_c, 6, 11, 89
8, 347187, Control_c, 6, 11, 90
8, 347244, Control_c, 6, 11, 91
8, 347301, Control_c, 6, 11, 92
8, 347359, Control_c, 6, 11, 93
8, 347416, Control_c, 6, 11, 94
8, 347473, Control_c, 6, 11, 95
8, 347530, Control_c, 6, 11, 96
8, 347588, Control_c, 6, 11, 97
8, 347645, Control_c, 6, 11, 98
8, 347702, Control_c, 6, 11, 99
8, 347759, Control_c, 6, 11, 100
8, 348973, Control_c, 6, 11, 100
8, 348973, Note_on_c, 6, 43, 55
8, 349051, Control_c, 6, 11, 99
8, 349059, Note_on_c, 6, 41, 0
8, 349129, Control_c, 6, 11, 98
8, 349207, Control_c, 6, 11, 97
8, 349285, Control_c, 6, 11, 96
8, 349363, Control_c, 6, 11, 95
8, 349441, Control_c, 6, 11, 94
8, 349519, Control_c, 6, 11, 93
8, 349597, Control_c, 6, 11, 92
8, 349675, Control_c, 6, 11, 91
8, 349753, Control_c, 6, 11, 90
8, 349831, Control_c, 6, 11, 89
8, 349909, Control_c, 6, 11, 88
8, 349987, Control_c, 6, 11, 87
8, 350065, Control_c, 6, 11, 86
8, 350143, Control_c, 6, 11, 85
8, 350221, Control_c, 6, 11, 84
8, 350299, Control_c, 6, 11, 83
8, 350377, Control_c, 6, 11, 82
8, 350455, Control_c, 6, 11, 81
8, 350532, Control_c, 6, 11, 80
8, 350533, Control_c, 6, 11, 80
8, 350533, Note_on_c, 6, 31, 46
8, 350554, Note_on_c, 6, 43, 0
8, 350647, Control_c, 6, 11, 79
8, 350760, Control_c, 6, 11, 78
8, 350873, Control_c, 6, 11, 77
8, 350987, Control_c, 6, 11, 76
8, 351100, Control_c, 6, 11, 75
8, 351213, Control_c, 6, 11, 74
8, 351327, Control_c, 6, 11, 73
8, 351440, Control_c, 6, 11, 72
8, 351553, Control_c, 6, 11, 71
8, 351666, Control_c, 6, 11, 70
8, 351780, Control_c, 6, 11, 69
8, 351893, Control_c, 6, 11, 68
8, 352006, Control_c, 6, 11, 67
8, 352120, Control_c, 6, 11, 66
8, 352176, Note_on_c, 6, 36, 44
8, 352233, Control_c, 6, 11, 65
8, 352279, Note_on_c, 6, 31, 0
8, 352346, Control_c, 6, 11, 64
8, 352460, Control_c, 6, 11, 63
8, 352573, Control_c, 6, 11, 62
8, 352666, Note_on_c, 6, 36, 0
8, 352686, Control_c, 6, 11, 61
8, 352799, Control_c, 6, 11, 60
8, 357120, Program_c, 6, 45
8, 357120, Control_c, 6, 91, 120
8, 357302, Note_on_c, 6, 36, 80
8, 357460, Note_on_c, 6, 36, 0
8, 362512, Note_on_c, 6, 33, 73
8, 362841, Note_on_c, 6, 33, 0
8, 363540, Program_c, 6, 49
8, 363540, Control_c, 6, 91, 60
8, 367260, Note_on_c, 6, 43, 87
8, 369391, Note_on_c, 6, 43, 0
8, 370228, Note_on_c, 6, 41, 72
8, 370853, Note_on_c, 6, 41, 0
8, 378432, Note_on_c, 6, 41, 71
8, 379276, Note_on_c, 6, 47, 60
8, 379325, Note_on_c, 6, 41, 0
8, 379825, Note_on_c, 6, 47, 0
8, 379882, Note_on_c, 6, 40, 80
8, 380981, Note_on_c, 6, 45, 67
8, 381010, Note_on_c, 6, 40, 0
8, 381521, Note_on_c, 6, 45, 0
8, 381585, Control_c, 6, 11, 60
8, 381585, Note_on_c, 6, 41, 67
8, 381691, Control_c, 6, 11, 59
8, 381796, Control_c, 6, 11, 58
8, 381901, Control_c, 6, 11, 57
8, 382006, Control_c, 6, 11, 56
8, 382111, Control_c, 6, 11, 55
8, 382216, Control_c, 6, 11, 54
8, 382321, Control_c, 6, 11, 53
8, 382426, Control_c, 6, 11, 52
8, 382531, Control_c, 6, 11, 51
8, 382636, Control_c, 6, 11, 50
8, 382741, Control_c, 6, 11, 49
8, 382846, Control_c, 6, 11, 48
8, 382951, Control_c, 6, 11, 47
8, 383056, Control_c, 6, 11, 46
8, 383161, Control_c, 6, 11, 45
8, 383266, Control_c, 6, 11, 44
8, 383371, Control_c, 6, 11, 43
8, 383476, Control_c, 6, 11, 42
8, 383581, Control_c, 6, 11, 41
8, 383686, Control_c, 6, 11, 40
8, 383687, Note_on_c, 6, 40, 88
8, 383707, Note_on_c, 6, 41, 0
8, 383992, Note_on_c, 6, 40, 0
8, 384480, Control_c, 6, 11, 100
8, 386959, Note_on_c, 6, 40, 93
8, 387239, Note_on_c, 6, 38, 93
8, 387293, Note_on_c, 6, 40, 0
8, 387428, Note_on_c, 6, 38, 0
8, 393120, Program_c, 6, 45
8, 393120, Control_c, 6, 91, 120
8, 393786, Note_on_c, 6, 44, 75
8, 393818, Note_on_c, 6, 44, 0
8, 394072, Note_on_c, 6, 49, 70
8, 394097, Note_on_c, 6, 49, 0
8, 397189, Note_on_c, 6, 42, 77
8, 397222, Note_on_c, 6, 42, 0
8, 397475, Note_on_c, 6, 35, 73
8, 397524, Note_on_c, 6, 35, 0
8, 398880, Program_c, 6, 49
8, 398880, Control_c, 6, 91, 60
8, 399201, Note_on_c, 6, 44, 91
8, 400874, Note_on_c, 6, 44, 0
8, 400911, Note_on_c, 6, 37, 106
8, 401367, Note_on_c, 6, 37, 0
8, 401383, Note_on_c, 6, 36, 102
8, 401526, Note_on_c, 6, 37, 113
8, 401558, Note_on_c, 6, 36, 0
8, 401671, Note_on_c, 6, 40, 106
8, 401704, Note_on_c, 6, 37, 0
8, 401835, Note_on_c, 6, 43, 81
8, 401849, Note_on_c, 6, 40, 0
8, 401889, Note_on_c, 6, 43, 0
8, 402100, Note_on_c, 6, 43, 108
8, 402202, Note_on_c, 6, 43, 0
8, 402386, Note_on_c, 6, 43, 114
8, 402484, Note_on_c, 6, 43, 0
8, 402700, Note_on_c, 6, 42, 109
8, 404529, Note_on_c, 6, 35, 109
8, 404545, Note_on_c, 6, 42, 0
8, 404715, Note_on_c, 6, 35, 0
8, 407761, Note_on_c, 6, 35, 100
8, 408062, Note_on_c, 6, 33, 88
8, 408088, Note_on_c, 6, 35, 0
8, 408319, Note_on_c, 6, 33, 0
8, 410400, Program_c, 6, 45
8, 410400, Control_c, 6, 91, 120
8, 411506, Note_on_c, 6, 39, 79
8, 411534, Note_on_c, 6, 39, 0
8, 411860, Note_on_c, 6, 40, 83
8, 411976, Note_on_c, 6, 40, 0
8, 415189, Note_on_c, 6, 39, 87
8, 415227, Note_on_c, 6, 39, 0
8, 415487, Note_on_c, 6, 44, 80
8, 415526, Note_on_c, 6, 44, 0
8, 418320, Program_c, 6, 49
8, 418320, Control_c, 6, 91, 60
8, 418706, Note_on_c, 6, 37, 112
8, 418966, Note_on_c, 6, 37, 0
8, 419011, Note_on_c, 6, 42, 112
8, 419442, Note_on_c, 6, 42, 0
8, 419448, Note_on_c, 6, 41, 112
8, 419593, Note_on_c, 6, 41, 0
8, 419598, Note_on_c, 6, 42, 112
8, 419748, Note_on_c, 6, 46, 99
8, 419768, Note_on_c, 6, 42, 0
8, 419908, Note_on_c, 6, 49, 103
8, 419925, Note_on_c, 6, 46, 0
8, 420040, Note_on_c, 6, 49, 0
8, 420232, Note_on_c, 6, 49, 106
8, 420347, Note_on_c, 6, 49, 0
8, 420589, Note_on_c, 6, 49, 106
8, 420709, Note_on_c, 6, 49, 0
8, 420888, Note_on_c, 6, 49, 113
8, 421997, Note_on_c, 6, 49, 0
8, 422013, Note_on_c, 6, 51, 106
8, 422299, Note_on_c, 6, 51, 0
8, 422348, Note_on_c, 6, 39, 108
8, 422619, Note_on_c, 6, 39, 0
8, 422662, Note_on_c, 6, 40, 103
8, 423139, Note_on_c, 6, 40, 0
8, 423169, Note_on_c, 6, 39, 104
8, 423315, Note_on_c, 6, 40, 100
8, 423317, Note_on_c, 6, 39, 0
8, 423470, Note_on_c, 6, 44, 109
8, 423480, Note_on_c, 6, 40, 0
8, 423595, Note_on_c, 6, 44, 0
8, 423635, Note_on_c, 6, 47, 103
8, 423753, Note_on_c, 6, 47, 0
8, 423931, Note_on_c, 6, 47, 103
8, 424007, Note_on_c, 6, 47, 0
8, 424258, Note_on_c, 6, 47, 113
8, 424344, Note_on_c, 6, 47, 0
8, 424555, Note_on_c, 6, 47, 111
8, 425646, Note_on_c, 6, 47, 0
8, 425695, Note_on_c, 6, 49, 99
8, 425983, Note_on_c, 6, 49, 0
8, 426045, Note_on_c, 6, 37, 107
8, 426355, Note_on_c, 6, 37, 0
8, 426380, Note_on_c, 6, 38, 99
8, 426901, Note_on_c, 6, 37, 105
8, 426937, Note_on_c, 6, 38, 0
8, 427062, Note_on_c, 6, 37, 0
8, 427070, Note_on_c, 6, 38, 97
8, 427221, Note_on_c, 6, 42, 106
8, 427241, Note_on_c, 6, 38, 0
8, 427383, Note_on_c, 6, 44, 93
8, 427430, Note_on_c, 6, 42, 0
8, 427511, Note_on_c, 6, 44, 0
8, 427669, Note_on_c, 6, 44, 101
8, 427996, Note_on_c, 6, 46, 101
8, 428030, Note_on_c, 6, 44, 0
8, 428312, Note_on_c, 6, 47, 88
8, 428320, Note_on_c, 6, 46, 0
8, 428711, Note_on_c, 6, 47, 0
8, 428731, Note_on_c, 6, 46, 100
8, 428893, Note_on_c, 6, 47, 94
8, 428932, Note_on_c, 6, 46, 0
8, 429031, Note_on_c, 6, 50, 102
8, 429065, Note_on_c, 6, 47, 0
8, 429204, Note_on_c, 6, 40, 97
8, 429212, Note_on_c, 6, 50, 0
8, 429401, Note_on_c, 6, 40, 0
8, 429536, Note_on_c, 6, 40, 101
8, 429845, Note_on_c, 6, 42, 99
8, 429855, Note_on_c, 6, 40, 0
8, 430125, Note_on_c, 6, 43, 94
8, 430138, Note_on_c, 6, 42, 0
8, 430548, Note_on_c, 6, 43, 0
8, 430569, Note_on_c, 6, 42, 99
8, 430716, Note_on_c, 6, 42, 0
8, 430727, Note_on_c, 6, 43, 84
8, 430861, Note_on_c, 6, 47, 88
8, 430896, Note_on_c, 6, 43, 0
8, 431017, Note_on_c, 6, 37, 93
8, 431020, Note_on_c, 6, 47, 0
8, 431174, Note_on_c, 6, 37, 0
8, 431308, Note_on_c, 6, 37, 97
8, 431615, Note_on_c, 6, 37, 0
8, 431618, Note_on_c, 6, 39, 103
8, 431909, Note_on_c, 6, 39, 0
8, 431910, Note_on_c, 6, 40, 94
8, 432232, Note_on_c, 6, 40, 0
8, 435069, Note_on_c, 6, 41, 117
8, 435371, Note_on_c, 6, 42, 123
8, 435379, Note_on_c, 6, 41, 0
8, 435642, Note_on_c, 6, 42, 0
8, 436356, Note_on_c, 6, 40, 124
8, 436601, Note_on_c, 6, 40, 0
8, 437293, Note_on_c, 6, 38, 122
8, 437588, Note_on_c, 6, 38, 0
8, 438239, Note_on_c, 6, 49, 85
8, 439154, Note_on_c, 6, 48, 76
8, 439233, Note_on_c, 6, 49, 0
8, 440487, Note_on_c, 6, 48, 0
8, 440522, Note_on_c, 6, 48, 111
8, 440828, Note_on_c, 6, 47, 109
8, 440843, Note_on_c, 6, 48, 0
8, 441113, Note_on_c, 6, 46, 104
8, 441168, Note_on_c, 6, 47, 0
8, 442187, Note_on_c, 6, 46, 0
8, 442443, Note_on_c, 6, 34, 116
8, 442762, Note_on_c, 6, 35, 100
8, 442762, Control_c, 6, 11, 50
8, 442773, Note_on_c, 6, 34, 0
8, 442812, Control_c, 6, 11, 51
8, 442902, Control_c, 6, 11, 52
8, 442982, Control_c, 6, 11, 53
8, 443072, Control_c, 6, 11, 54
8, 443162, Control_c, 6, 11, 55
8, 443242, Control_c, 6, 11, 56
8, 443332, Control_c, 6, 11, 57
8, 443422, Control_c, 6, 11, 58
8, 443512, Control_c, 6, 11, 59
8, 443592, Control_c, 6, 11, 60
8, 443682, Control_c, 6, 11, 61
8, 443772, Control_c, 6, 11, 62
8, 443852, Control_c, 6, 11, 63
8, 443942, Control_c, 6, 11, 64
8, 444032, Control_c, 6, 11, 65
8, 444122, Control_c, 6, 11, 66
8, 444202, Control_c, 6, 11, 67
8, 444292, Control_c, 6, 11, 68
8, 444382, Control_c, 6, 11, 69
8, 444462, Control_c, 6, 11, 70
8, 444552, Control_c, 6, 11, 71
8, 444642, Control_c, 6, 11, 72
8, 444732, Control_c, 6, 11, 73
8, 444812, Control_c, 6, 11, 74
8, 444902, Control_c, 6, 11, 75
8, 444992, Control_c, 6, 11, 76
8, 445072, Control_c, 6, 11, 77
8, 445162, Control_c, 6, 11, 78
8, 445252, Control_c, 6, 11, 79
8, 445342, Control_c, 6, 11, 80
8, 445422, Control_c, 6, 11, 81
8, 445512, Control_c, 6, 11, 82
8, 445602, Control_c, 6, 11, 83
8, 445682, Control_c, 6, 11, 84
8, 445772, Control_c, 6, 11, 85
8, 445862, Control_c, 6, 11, 86
8, 445952, Control_c, 6, 11, 87
8, 446032, Control_c, 6, 11, 88
8, 446122, Control_c, 6, 11, 89
8, 446212, Control_c, 6, 11, 90
8, 446292, Control_c, 6, 11, 91
8, 446382, Control_c, 6, 11, 92
8, 446472, Control_c, 6, 11, 93
8, 446562, Control_c, 6, 11, 94
8, 446642, Control_c, 6, 11, 95
8, 446732, Control_c, 6, 11, 96
8, 446822, Control_c, 6, 11, 97
8, 446912, Control_c, 6, 11, 98
8, 446972, Note_on_c, 6, 35, 0
8, 446992, Control_c, 6, 11, 99
8, 447082, Control_c, 6, 11, 100
8, 447786, Program_c, 6, 45
8, 447786, Control_c, 6, 91, 120
8, 447786, Note_on_c, 6, 35, 64
8, 447829, Note_on_c, 6, 35, 0
8, 449323, Note_on_c, 6, 35, 81
8, 449356, Note_on_c, 6, 35, 0
8, 450079, Note_on_c, 6, 35, 70
8, 450101, Note_on_c, 6, 35, 0
8, 450861, Note_on_c, 6, 35, 80
8, 450892, Note_on_c, 6, 35, 0
8, 452477, Program_c, 6, 49
8, 452477, Control_c, 6, 91, 60
8, 452477, Note_on_c, 6, 40, 113
8, 452610, Note_on_c, 6, 40, 0
8, 452744, Note_on_c, 6, 43, 105
8, 452857, Note_on_c, 6, 43, 0
8, 453033, Note_on_c, 6, 40, 112
8, 453150, Note_on_c, 6, 40, 0
8, 453331, Note_on_c, 6, 39, 115
8, 453421, Note_on_c, 6, 39, 0
8, 453622, Note_on_c, 6, 39, 110
8, 453727, Note_on_c, 6, 39, 0
8, 453908, Note_on_c, 6, 38, 113
8, 454029, Note_on_c, 6, 38, 0
8, 454204, Note_on_c, 6, 37, 115
8, 454366, Note_on_c, 6, 37, 0
8, 454488, Note_on_c, 6, 40, 113
8, 454607, Note_on_c, 6, 40, 0
8, 454773, Note_on_c, 6, 36, 114
8, 454916, Note_on_c, 6, 36, 0
8, 455066, Note_on_c, 6, 35, 117
8, 455217, Note_on_c, 6, 35, 0
8, 455358, Note_on_c, 6, 47, 117
8, 455475, Note_on_c, 6, 47, 0
8, 455649, Note_on_c, 6, 51, 118
8, 455931, Note_on_c, 6, 52, 107
8, 455941, Note_on_c, 6, 51, 0
8, 456072, Note_on_c, 6, 52, 0
8, 456225, Note_on_c, 6, 47, 107
8, 456508, Note_on_c, 6, 47, 0
8, 456509, Note_on_c, 6, 48, 89
8, 456637, Note_on_c, 6, 48, 0
8, 456803, Note_on_c, 6, 44, 118
8, 457073, Note_on_c, 6, 44, 0
8, 457080, Note_on_c, 6, 45, 96
8, 457266, Note_on_c, 6, 45, 0
8, 457382, Note_on_c, 6, 40, 87
8, 457673, Note_on_c, 6, 39, 78
8, 457700, Note_on_c, 6, 40, 0
8, 457997, Note_on_c, 6, 40, 80
8, 458004, Note_on_c, 6, 39, 0
8, 458286, Note_on_c, 6, 43, 75
8, 458305, Note_on_c, 6, 40, 0
8, 458573, Note_on_c, 6, 46, 59
8, 458593, Note_on_c, 6, 43, 0
8, 458871, Note_on_c, 6, 47, 39
8, 458881, Note_on_c, 6, 46, 0
8, 459050, Note_on_c, 6, 47, 0
8, 459190, Note_on_c, 6, 40, 124
8, 459401, Note_on_c, 6, 40, 0
8, 459476, Note_on_c, 6, 33, 124
8, 459650, Note_on_c, 6, 33, 0
8, 459788, Note_on_c, 6, 36, 121
8, 459929, Note_on_c, 6, 36, 0
8, 460072, Note_on_c, 6, 33, 117
8, 460203, Note_on_c, 6, 33, 0
8, 460347, Note_on_c, 6, 32, 115
8, 460494, Note_on_c, 6, 32, 0
8, 460652, Note_on_c, 6, 32, 119
8, 460778, Note_on_c, 6, 32, 0
8, 460929, Note_on_c, 6, 31, 121
8, 461076, Note_on_c, 6, 31, 0
8, 461223, Note_on_c, 6, 30, 119
8, 461468, Note_on_c, 6, 30, 0
8, 461514, Note_on_c, 6, 42, 118
8, 461632, Note_on_c, 6, 42, 0
8, 461791, Note_on_c, 6, 40, 118
8, 462056, Note_on_c, 6, 39, 121
8, 462079, Note_on_c, 6, 40, 0
8, 462363, Note_on_c, 6, 51, 116
8, 462368, Note_on_c, 6, 39, 0
8, 462480, Note_on_c, 6, 51, 0
8, 462889, Note_on_c, 6, 52, 121
8, 463075, Note_on_c, 6, 52, 0
8, 465865, Note_on_c, 6, 34, 124
8, 465956, Note_on_c, 6, 34, 0
8, 466150, Note_on_c, 6, 33, 127
8, 466226, Note_on_c, 6, 33, 0
8, 466442, Note_on_c, 6, 31, 122
8, 466529, Note_on_c, 6, 31, 0
8, 469560, Note_on_c, 6, 46, 104
8, 469655, Note_on_c, 6, 46, 0
8, 469845, Note_on_c, 6, 45, 113
8, 469940, Note_on_c, 6, 45, 0
8, 470141, Note_on_c, 6, 43, 104
8, 470237, Note_on_c, 6, 43, 0
8, 470430, Note_on_c, 6, 42, 103
8, 470521, Note_on_c, 6, 42, 0
8, 470723, Note_on_c, 6, 42, 115
8, 470810, Note_on_c, 6, 42, 0
8, 471018, Note_on_c, 6, 42, 116
8, 471107, Note_on_c, 6, 42, 0
8, 471302, Note_on_c, 6, 47, 111
8, 471408, Note_on_c, 6, 47, 0
8, 471636, Note_on_c, 6, 48, 111
8, 471721, Note_on_c, 6, 48, 0
8, 472061, Note_on_c, 6, 45, 88
8, 472796, Note_on_c, 6, 45, 0
8, 473156, Note_on_c, 6, 45, 54
8, 473271, Note_on_c, 6, 47, 55
8, 473294, Note_on_c, 6, 45, 0
8, 473338, Note_on_c, 6, 45, 47
8, 473349, Note_on_c, 6, 47, 0
8, 473391, Note_on_c, 6, 47, 55
8, 473403, Note_on_c, 6, 45, 0
8, 473445, Note_on_c, 6, 45, 49
8, 473449, Note_on_c, 6, 47, 0
8, 473485, Note_on_c, 6, 47, 71
8, 473493, Note_on_c, 6, 45, 0
8, 473540, Note_on_c, 6, 47, 0
8, 473540, Note_on_c, 6, 45, 50
8, 473581, Note_on_c, 6, 47, 60
8, 473585, Note_on_c, 6, 45, 0
8, 473621, Note_on_c, 6, 45, 65
8, 473625, Note_on_c, 6, 47, 0
8, 473673, Note_on_c, 6, 45, 0
8, 473674, Note_on_c, 6, 47, 68
8, 473709, Note_on_c, 6, 47, 0
8, 473710, Note_on_c, 6, 45, 56
8, 473768, Note_on_c, 6, 45, 0
8, 473775, Note_on_c, 6, 43, 58
8, 473829, Note_on_c, 6, 43, 0
8, 473836, Note_on_c, 6, 45, 44
8, 473915, Note_on_c, 6, 47, 47
8, 473925, Note_on_c, 6, 45, 0
8, 474408, Note_on_c, 6, 47, 0
8, 474424, Note_on_c, 6, 40, 49
8, 474873, Note_on_c, 6, 40, 0
8, 480960, Control_c, 6, 11, 80
8, 481308, Note_on_c, 6, 35, 75
8, 482385, Note_on_c, 6, 40, 70
8, 482424, Note_on_c, 6, 35, 0
8, 482730, Note_on_c, 6, 40, 0
8, 491760, Program_c, 6, 45
8, 491760, Control_c, 6, 91, 120
8, 495406, Note_on_c, 6, 40, 77
8, 496115, Note_on_c, 6, 40, 0
8, 503250, Note_on_c, 6, 40, 73
8, 503687, Note_on_c, 6, 40, 0
8, 504171, Note_on_c, 6, 40, 80
8, 504702, Note_on_c, 6, 40, 0
8, 504936, Note_on_c, 6, 40, 85
8, 505505, Note_on_c, 6, 40, 0
8, 506501, Note_on_c, 6, 40, 68
8, 507025, Note_on_c, 6, 40, 0
8, 507182, Note_on_c, 6, 40, 78
8, 507623, Note_on_c, 6, 40, 0
8, 507924, Note_on_c, 6, 40, 80
8, 508172, Note_on_c, 6, 40, 0
8, 508320, Program_c, 6, 49
8, 508320, Control_c, 6, 91, 60
8, 508452, Note_on_c, 6, 41, 70
8, 508702, Note_on_c, 6, 41, 0
8, 508718, Note_on_c, 6, 42, 84
8, 508968, Note_on_c, 6, 42, 0
8, 509179, Note_on_c, 6, 42, 88
8, 509431, Note_on_c, 6, 42, 0
8, 509542, Note_on_c, 6, 35, 83
8, 509760, Program_c, 6, 45
8, 509760, Control_c, 6, 91, 120
8, 509884, Note_on_c, 6, 35, 0
8, 510288, Note_on_c, 6, 35, 87
8, 510618, Note_on_c, 6, 35, 0
8, 511001, Note_on_c, 6, 35, 78
8, 511400, Note_on_c, 6, 35, 0
8, 512510, Note_on_c, 6, 35, 85
8, 512999, Note_on_c, 6, 35, 0
8, 513201, Note_on_c, 6, 35, 87
8, 513564, Note_on_c, 6, 35, 0
8, 522000, Program_c, 6, 49
8, 522000, Control_c, 6, 91, 60
8, 524757, Note_on_c, 6, 45, 75
8, 525627, Note_on_c, 6, 45, 0
8, 525657, Note_on_c, 6, 38, 78
8, 527487, Note_on_c, 6, 38, 0
8, 528618, Note_on_c, 6, 38, 87
8, 529334, Note_on_c, 6, 38, 0
8, 529355, Note_on_c, 6, 39, 95
8, 530067, Note_on_c, 6, 38, 91
8, 530085, Note_on_c, 6, 39, 0
8, 530778, Note_on_c, 6, 36, 101
8, 530811, Note_on_c, 6, 38, 0
8, 531748, Note_on_c, 6, 42, 91
8, 531795, Note_on_c, 6, 36, 0
8, 532643, Note_on_c, 6, 42, 0
8, 534338, Note_on_c, 6, 38, 44
8, 536543, Note_on_c, 6, 38, 0
8, 554021, Note_on_c, 6, 38, 43
8, 555150, Note_on_c, 6, 43, 32
8, 555194, Note_on_c, 6, 38, 0
8, 555522, Note_on_c, 6, 43, 0
8, 565478, Note_on_c, 6, 50, 73
8, 565808, Note_on_c, 6, 50, 0
8, 565809, Note_on_c, 6, 43, 68
8, 566915, Note_on_c, 6, 50, 59
8, 566960, Note_on_c, 6, 43, 0
8, 567245, Note_on_c, 6, 50, 0
8, 581716, Note_on_c, 6, 48, 76
8, 583951, Note_on_c, 6, 47, 72
8, 584016, Note_on_c, 6, 48, 0
8, 585092, Note_on_c, 6, 45, 55
8, 585126, Note_on_c, 6, 47, 0
8, 585482, Note_on_c, 6, 45, 0
8, 587604, Note_on_c, 6, 47, 42
8, 589574, Note_on_c, 6, 40, 68
8, 589601, Note_on_c, 6, 47, 0
8, 589655, Note_on_c, 6, 40, 0
8, 589680, Program_c, 6, 45
8, 589680, Control_c, 6, 91, 120
8, 590420, Note_on_c, 6, 40, 88
8, 590467, Note_on_c, 6, 40, 0
8, 591148, Note_on_c, 6, 42, 99
8, 591182, Note_on_c, 6, 42, 0
8, 591918, Note_on_c, 6, 35, 92
8, 591951, Note_on_c, 6, 35, 0
8, 592650, Note_on_c, 6, 40, 86
8, 592676, Note_on_c, 6, 40, 0
8, 593416, Note_on_c, 6, 40, 98
8, 593437, Note_on_c, 6, 40, 0
8, 594133, Note_on_c, 6, 42, 94
8, 594153, Note_on_c, 6, 42, 0
8, 594956, Note_on_c, 6, 35, 98
8, 594981, Note_on_c, 6, 35, 0
8, 595720, Note_on_c, 6, 38, 97
8, 595741, Note_on_c, 6, 38, 0
8, 596502, Note_on_c, 6, 38, 102
8, 596524, Note_on_c, 6, 38, 0
8, 597266, Note_on_c, 6, 37, 99
8, 597292, Note_on_c, 6, 37, 0
8, 598081, Note_on_c, 6, 37, 101
8, 598099, Note_on_c, 6, 37, 0
8, 598861, Note_on_c, 6, 43, 84
8, 598880, Note_on_c, 6, 43, 0
8, 599539, Note_on_c, 6, 43, 96
8, 599569, Note_on_c, 6, 43, 0
8, 600377, Note_on_c, 6, 42, 98
8, 600405, Note_on_c, 6, 42, 0
8, 601195, Note_on_c, 6, 42, 104
8, 601224, Note_on_c, 6, 42, 0
8, 601992, Note_on_c, 6, 35, 91
8, 602018, Note_on_c, 6, 35, 0
8, 602755, Note_on_c, 6, 35, 99
8, 602785, Note_on_c, 6, 35, 0
8, 603479, Note_on_c, 6, 37, 100
8, 603507, Note_on_c, 6, 37, 0
8, 604265, Note_on_c, 6, 42, 97
8, 604289, Note_on_c, 6, 42, 0
8, 605028, Note_on_c, 6, 35, 91
8, 605047, Note_on_c, 6, 35, 0
8, 605783, Note_on_c, 6, 35, 98
8, 605799, Note_on_c, 6, 35, 0
8, 606504, Note_on_c, 6, 33, 106
8, 606532, Note_on_c, 6, 33, 0
8, 607294, Note_on_c, 6, 35, 108
8, 607322, Note_on_c, 6, 35, 0
8, 612535, Note_on_c, 6, 37, 121
8, 612564, Note_on_c, 6, 37, 0
8, 618480, Program_c, 6, 49
8, 618480, Control_c, 6, 91, 60
8, 618874, Note_on_c, 6, 48, 113
8, 619134, Note_on_c, 6, 48, 0
8, 619144, Note_on_c, 6, 47, 121
8, 619384, Note_on_c, 6, 46, 118
8, 619393, Note_on_c, 6, 47, 0
8, 620204, Note_on_c, 6, 47, 120
8, 620226, Note_on_c, 6, 46, 0
8, 620449, Note_on_c, 6, 47, 0
8, 627926, Program_c, 6, 49
8, 627926, Control_c, 6, 91, 60
8, 627926, Note_on_c, 6, 35, 112
8, 627926, Control_c, 6, 11, 60
8, 627936, Control_c, 6, 11, 61
8, 627956, Control_c, 6, 11, 62
8, 627976, Control_c, 6, 11, 63
8, 627996, Control_c, 6, 11, 64
8, 628016, Control_c, 6, 11, 65
8, 628036, Control_c, 6, 11, 66
8, 628046, Control_c, 6, 11, 67
8, 628066, Control_c, 6, 11, 68
8, 628086, Control_c, 6, 11, 69
8, 628106, Control_c, 6, 11, 70
8, 628126, Control_c, 6, 11, 71
8, 628146, Control_c, 6, 11, 72
8, 628156, Control_c, 6, 11, 73
8, 628176, Control_c, 6, 11, 74
8, 628196, Control_c, 6, 11, 75
8, 628216, Control_c, 6, 11, 76
8, 628236, Control_c, 6, 11, 77
8, 628256, Control_c, 6, 11, 78
8, 628266, Control_c, 6, 11, 79
8, 628286, Control_c, 6, 11, 80
8, 628306, Control_c, 6, 11, 81
8, 628326, Control_c, 6, 11, 82
8, 628346, Control_c, 6, 11, 83
8, 628366, Control_c, 6, 11, 84
8, 628376, Control_c, 6, 11, 85
8, 628396, Control_c, 6, 11, 86
8, 628416, Control_c, 6, 11, 87
8, 628436, Control_c, 6, 11, 88
8, 628456, Control_c, 6, 11, 89
8, 628476, Control_c, 6, 11, 90
8, 628486, Control_c, 6, 11, 91
8, 628506, Control_c, 6, 11, 92
8, 628526, Control_c, 6, 11, 93
8, 628546, Control_c, 6, 11, 94
8, 628566, Control_c, 6, 11, 95
8, 628586, Control_c, 6, 11, 96
8, 628596, Control_c, 6, 11, 97
8, 628616, Control_c, 6, 11, 98
8, 628636, Control_c, 6, 11, 99
8, 628656, Control_c, 6, 11, 100
8, 628676, Control_c, 6, 11, 101
8, 628696, Control_c, 6, 11, 102
8, 628706, Control_c, 6, 11, 103
8, 628726, Control_c, 6, 11, 104
8, 628746, Control_c, 6, 11, 105
8, 628766, Control_c, 6, 11, 106
8, 628786, Control_c, 6, 11, 107
8, 628806, Control_c, 6, 11, 108
8, 628816, Control_c, 6, 11, 109
8, 628836, Control_c, 6, 11, 110
8, 628856, Control_c, 6, 11, 111
8, 628876, Control_c, 6, 11, 112
8, 628896, Control_c, 6, 11, 113
8, 628916, Control_c, 6, 11, 114
8, 628926, Control_c, 6, 11, 115
8, 628946, Control_c, 6, 11, 116
8, 628966, Control_c, 6, 11, 117
8, 628986, Control_c, 6, 11, 118
8, 629006, Control_c, 6, 11, 119
8, 629026, Control_c, 6, 11, 120
8, 629026, Note_on_c, 6, 36, 125
8, 629035, Note_on_c, 6, 35, 0
8, 629434, Note_on_c, 6, 36, 0
8, 629492, Note_on_c, 6, 35, 120
8, 629613, Note_on_c, 6, 35, 0
8, 629632, Note_on_c, 6, 36, 113
8, 629754, Note_on_c, 6, 40, 118
8, 629785, Note_on_c, 6, 36, 0
8, 629900, Note_on_c, 6, 43, 116
8, 629907, Note_on_c, 6, 40, 0
8, 629964, Note_on_c, 6, 43, 0
8, 630165, Note_on_c, 6, 43, 116
8, 630219, Note_on_c, 6, 43, 0
8, 630424, Note_on_c, 6, 43, 118
8, 630500, Note_on_c, 6, 43, 0
8, 630721, Note_on_c, 6, 36, 122
8, 631157, Note_on_c, 6, 35, 103
8, 631178, Note_on_c, 6, 36, 0
8, 631299, Note_on_c, 6, 36, 113
8, 631340, Note_on_c, 6, 35, 0
8, 631409, Note_on_c, 6, 40, 117
8, 631446, Note_on_c, 6, 36, 0
8, 631543, Note_on_c, 6, 43, 114
8, 631558, Note_on_c, 6, 40, 0
8, 631637, Note_on_c, 6, 43, 0
8, 631822, Note_on_c, 6, 43, 116
8, 631879, Note_on_c, 6, 43, 0
8, 632092, Note_on_c, 6, 43, 120
8, 632183, Note_on_c, 6, 43, 0
8, 632431, Note_on_c, 6, 36, 112
8, 632669, Note_on_c, 6, 36, 0
8, 635760, Control_c, 6, 11, 80
8, 636743, Note_on_c, 6, 46, 58
8, 637015, Note_on_c, 6, 47, 49
8, 637060, Note_on_c, 6, 46, 0
8, 637298, Note_on_c, 6, 44, 53
8, 637346, Note_on_c, 6, 47, 0
8, 637582, Note_on_c, 6, 45, 47
8, 637614, Note_on_c, 6, 44, 0
8, 637903, Note_on_c, 6, 45, 0
8, 637930, Note_on_c, 6, 33, 44
8, 638281, Note_on_c, 6, 35, 50
8, 638295, Note_on_c, 6, 33, 0
8, 640372, Note_on_c, 6, 52, 40
8, 640421, Note_on_c, 6, 35, 0
8, 640878, Note_on_c, 6, 50, 45
8, 640919, Note_on_c, 6, 52, 0
8, 641057, Note_on_c, 6, 48, 47
8, 641126, Note_on_c, 6, 50, 0
8, 641211, Note_on_c, 6, 47, 48
8, 641245, Note_on_c, 6, 48, 0
8, 641392, Note_on_c, 6, 45, 42
8, 641414, Note_on_c, 6, 47, 0
8, 642023, Note_on_c, 6, 47, 40
8, 642053, Note_on_c, 6, 45, 0
8, 642414, Note_on_c, 6, 48, 36
8, 642432, Note_on_c, 6, 47, 0
8, 642960, Note_on_c, 6, 47, 39
8, 643005, Note_on_c, 6, 48, 0
8, 643142, Note_on_c, 6, 45, 40
8, 643176, Note_on_c, 6, 47, 0
8, 643291, Note_on_c, 6, 45, 0
8, 643291, Note_on_c, 6, 43, 51
8, 643485, Note_on_c, 6, 42, 35
8, 643524, Note_on_c, 6, 43, 0
8, 644192, Note_on_c, 6, 47, 36
8, 644228, Note_on_c, 6, 42, 0
8, 644627, Note_on_c, 6, 40, 46
8, 644647, Note_on_c, 6, 47, 0
8, 645045, Note_on_c, 6, 40, 0
8, 645120, Control_c, 6, 11, 100
8, 645836, Note_on_c, 6, 40, 126
8, 646132, Note_on_c, 6, 40, 0
8, 647003, Note_on_c, 6, 40, 116
8, 647175, Note_on_c, 6, 40, 0
8, 647210, Note_on_c, 6, 40, 126
8, 649145, Note_on_c, 6, 40, 0
8, 649440, End_track
9, 0, Start_track
9, 0, Title_t, "Corni (E)                           "
9, 0, Control_c, 7, 121, 0
9, 80, Control_c, 7, 101, 0
9, 100, Control_c, 7, 100, 0
9, 120, Control_c, 7, 6, 12
9, 140, Control_c, 7, 10, 48
9, 160, Control_c, 7, 7, 100
9, 180, Control_c, 7, 0, 0
9, 200, Control_c, 7, 32, 0
9, 220, Program_c, 7, 60
9, 240, Control_c, 7, 91, 100
9, 260, Control_c, 7, 93, 32
9, 280, Control_c, 7, 1, 12
9, 300, Control_c, 7, 11, 100
9, 320, Pitch_bend_c, 7, 8192
9, 340, Control_c, 7, 99, 1
9, 360, Control_c, 7, 98, 32
9, 380, Control_c, 7, 6, 64
9, 400, Control_c, 7, 98, 33
9, 420, Control_c, 7, 6, 64
9, 440, Control_c, 7, 98, 100
9, 460, Control_c, 7, 6, 64
9, 480, Control_c, 7, 98, 102
9, 500, Control_c, 7, 6, 65
9, 520, Control_c, 7, 98, 99
9, 705, Control_c, 7, 6, 66
9, 1732, Note_on_c, 7, 64, 68
9, 2590, Note_on_c, 7, 64, 0
9, 2622, Note_on_c, 7, 59, 51
9, 3183, Note_on_c, 7, 71, 74
9, 3460, Note_on_c, 7, 59, 0
9, 3490, Note_on_c, 7, 64, 50
9, 3775, Note_on_c, 7, 71, 0
9, 3785, Note_on_c, 7, 69, 47
9, 4037, Note_on_c, 7, 64, 0
9, 4082, Note_on_c, 7, 64, 60
9, 4117, Note_on_c, 7, 69, 0
9, 4369, Note_on_c, 7, 71, 77
9, 4382, Note_on_c, 7, 59, 40
9, 4402, Note_on_c, 7, 64, 0
9, 4496, Note_on_c, 7, 59, 0
9, 4508, Note_on_c, 7, 71, 0
9, 4657, Note_on_c, 7, 71, 63
9, 4668, Note_on_c, 7, 59, 43
9, 4769, Note_on_c, 7, 59, 0
9, 4777, Note_on_c, 7, 71, 0
9, 4958, Note_on_c, 7, 66, 73
9, 4964, Note_on_c, 7, 59, 42
9, 5230, Note_on_c, 7, 64, 44
9, 5234, Note_on_c, 7, 66, 0
9, 5236, Note_on_c, 7, 59, 0
9, 5366, Note_on_c, 7, 64, 0
9, 5518, Note_on_c, 7, 66, 67
9, 5525, Note_on_c, 7, 59, 55
9, 5815, Note_on_c, 7, 59, 0
9, 5830, Note_on_c, 7, 64, 21
9, 5840, Note_on_c, 7, 66, 0
9, 5978, Note_on_c, 7, 64, 0
9, 6106, Note_on_c, 7, 71, 72
9, 6110, Note_on_c, 7, 59, 53
9, 6367, Note_on_c, 7, 59, 0
9, 6393, Note_on_c, 7, 64, 36
9, 6404, Note_on_c, 7, 71, 0
9, 6532, Note_on_c, 7, 64, 0
9, 6688, Note_on_c, 7, 52, 54
9, 6691, Note_on_c, 7, 64, 42
9, 6967, Note_on_c, 7, 52, 0
9, 6971, Note_on_c, 7, 66, 61
9, 6974, Note_on_c, 7, 59, 36
9, 7003, Note_on_c, 7, 64, 0
9, 7241, Note_on_c, 7, 59, 0
9, 7267, Note_on_c, 7, 66, 0
9, 7274, Control_c, 7, 11, 100
9, 7274, Note_on_c, 7, 64, 45
9, 7291, Control_c, 7, 11, 99
9, 7307, Control_c, 7, 11, 98
9, 7323, Control_c, 7, 11, 97
9, 7339, Control_c, 7, 11, 96
9, 7355, Control_c, 7, 11, 95
9, 7371, Control_c, 7, 11, 94
9, 7387, Control_c, 7, 11, 93
9, 7403, Control_c, 7, 11, 92
9, 7420, Control_c, 7, 11, 91
9, 7436, Control_c, 7, 11, 90
9, 7452, Control_c, 7, 11, 89
9, 7468, Control_c, 7, 11, 88
9, 7484, Control_c, 7, 11, 87
9, 7500, Control_c, 7, 11, 86
9, 7516, Control_c, 7, 11, 85
9, 7532, Control_c, 7, 11, 84
9, 7549, Control_c, 7, 11, 83
9, 7565, Control_c, 7, 11, 82
9, 7581, Control_c, 7, 11, 81
9, 7597, Control_c, 7, 11, 80
9, 7613, Control_c, 7, 11, 79
9, 7629, Control_c, 7, 11, 78
9, 7645, Control_c, 7, 11, 77
9, 7661, Control_c, 7, 11, 76
9, 7678, Control_c, 7, 11, 75
9, 7694, Control_c, 7, 11, 74
9, 7710, Control_c, 7, 11, 73
9, 7726, Control_c, 7, 11, 72
9, 7742, Control_c, 7, 11, 71
9, 7758, Control_c, 7, 11, 70
9, 7774, Control_c, 7, 11, 69
9, 7790, Control_c, 7, 11, 68
9, 7807, Control_c, 7, 11, 67
9, 7823, Control_c, 7, 11, 66
9, 7839, Control_c, 7, 11, 65
9, 7855, Control_c, 7, 11, 64
9, 7871, Control_c, 7, 11, 63
9, 7887, Control_c, 7, 11, 62
9, 7903, Control_c, 7, 11, 61
9, 7919, Control_c, 7, 11, 60
9, 8151, Note_on_c, 7, 64, 0
9, 8170, Note_on_c, 7, 66, 52
9, 8177, Note_on_c, 7, 59, 40
9, 8428, Note_on_c, 7, 59, 0
9, 8462, Note_on_c, 7, 66, 0
9, 8479, Control_c, 7, 11, 100
9, 8479, Note_on_c, 7, 64, 57
9, 8579, Note_on_c, 7, 64, 0
9, 8755, Note_on_c, 7, 64, 64
9, 8777, Note_on_c, 7, 52, 49
9, 10491, Note_on_c, 7, 69, 54
9, 10507, Note_on_c, 7, 64, 0
9, 10511, Note_on_c, 7, 52, 0
9, 11040, Note_on_c, 7, 69, 0
9, 11083, Note_on_c, 7, 69, 54
9, 11086, Note_on_c, 7, 64, 30
9, 11261, Note_on_c, 7, 64, 0
9, 11323, Note_on_c, 7, 69, 0
9, 11363, Note_on_c, 7, 69, 63
9, 11368, Note_on_c, 7, 66, 41
9, 11637, Note_on_c, 7, 71, 56
9, 11649, Note_on_c, 7, 59, 42
9, 11662, Note_on_c, 7, 69, 0
9, 11672, Note_on_c, 7, 66, 0
9, 11819, Note_on_c, 7, 59, 0
9, 11844, Note_on_c, 7, 71, 0
9, 12201, Note_on_c, 7, 52, 48
9, 12207, Note_on_c, 7, 64, 61
9, 12411, Note_on_c, 7, 52, 0
9, 12419, Note_on_c, 7, 64, 0
9, 15135, Note_on_c, 7, 64, 76
9, 15229, Note_on_c, 7, 64, 0
9, 15414, Note_on_c, 7, 66, 78
9, 15517, Note_on_c, 7, 66, 0
9, 15740, Note_on_c, 7, 64, 49
9, 15754, Note_on_c, 7, 52, 20
9, 15887, Note_on_c, 7, 52, 0
9, 15891, Note_on_c, 7, 64, 0
9, 18837, Note_on_c, 7, 64, 73
9, 18946, Note_on_c, 7, 64, 0
9, 19120, Note_on_c, 7, 66, 79
9, 19210, Note_on_c, 7, 66, 0
9, 19427, Note_on_c, 7, 64, 57
9, 19510, Note_on_c, 7, 64, 0
9, 19698, Note_on_c, 7, 64, 69
9, 19787, Note_on_c, 7, 64, 0
9, 19997, Note_on_c, 7, 66, 67
9, 20003, Note_on_c, 7, 64, 39
9, 20126, Note_on_c, 7, 64, 0
9, 20136, Note_on_c, 7, 66, 0
9, 20294, Note_on_c, 7, 66, 68
9, 20309, Note_on_c, 7, 64, 42
9, 20474, Note_on_c, 7, 64, 0
9, 20624, Note_on_c, 7, 59, 71
9, 20809, Note_on_c, 7, 59, 0
9, 20914, Note_on_c, 7, 64, 65
9, 20920, Note_on_c, 7, 66, 0
9, 21085, Note_on_c, 7, 64, 0
9, 21345, Note_on_c, 7, 69, 48
9, 21354, Note_on_c, 7, 66, 36
9, 22004, Note_on_c, 7, 66, 0
9, 22023, Note_on_c, 7, 69, 0
9, 34459, Control_c, 7, 11, 60
9, 34459, Note_on_c, 7, 64, 35
9, 34461, Note_on_c, 7, 69, 44
9, 34505, Control_c, 7, 11, 61
9, 34551, Control_c, 7, 11, 62
9, 34597, Control_c, 7, 11, 63
9, 34643, Control_c, 7, 11, 64
9, 34689, Control_c, 7, 11, 65
9, 34735, Control_c, 7, 11, 66
9, 34781, Control_c, 7, 11, 67
9, 34827, Control_c, 7, 11, 68
9, 34873, Control_c, 7, 11, 69
9, 34919, Control_c, 7, 11, 70
9, 34965, Control_c, 7, 11, 71
9, 35011, Control_c, 7, 11, 72
9, 35057, Control_c, 7, 11, 73
9, 35103, Control_c, 7, 11, 74
9, 35149, Control_c, 7, 11, 75
9, 35195, Control_c, 7, 11, 76
9, 35241, Control_c, 7, 11, 77
9, 35267, Note_on_c, 7, 69, 0
9, 35268, Note_on_c, 7, 71, 51
9, 35287, Control_c, 7, 11, 78
9, 35333, Control_c, 7, 11, 79
9, 35379, Control_c, 7, 11, 80
9, 35425, Control_c, 7, 11, 81
9, 35471, Control_c, 7, 11, 82
9, 35517, Control_c, 7, 11, 83
9, 35563, Control_c, 7, 11, 84
9, 35609, Control_c, 7, 11, 85
9, 35655, Control_c, 7, 11, 86
9, 35701, Control_c, 7, 11, 87
9, 35747, Control_c, 7, 11, 88
9, 35793, Control_c, 7, 11, 89
9, 35839, Control_c, 7, 11, 90
9, 35885, Control_c, 7, 11, 91
9, 35931, Control_c, 7, 11, 92
9, 35977, Control_c, 7, 11, 93
9, 36023, Control_c, 7, 11, 94
9, 36028, Note_on_c, 7, 69, 64
9, 36031, Note_on_c, 7, 71, 0
9, 36069, Control_c, 7, 11, 95
9, 36115, Control_c, 7, 11, 96
9, 36130, Note_on_c, 7, 64, 0
9, 36134, Note_on_c, 7, 69, 0
9, 36161, Control_c, 7, 11, 97
9, 36207, Control_c, 7, 11, 98
9, 36253, Control_c, 7, 11, 99
9, 36299, Control_c, 7, 11, 100
9, 36300, Note_on_c, 7, 68, 73
9, 36312, Note_on_c, 7, 64, 41
9, 36581, Note_on_c, 7, 69, 74
9, 36612, Note_on_c, 7, 68, 0
9, 36701, Note_on_c, 7, 71, 64
9, 36729, Note_on_c, 7, 69, 0
9, 36846, Note_on_c, 7, 69, 72
9, 36851, Note_on_c, 7, 71, 0
9, 36928, Note_on_c, 7, 64, 0
9, 36935, Note_on_c, 7, 69, 0
9, 37094, Note_on_c, 7, 68, 77
9, 37107, Note_on_c, 7, 64, 50
9, 37356, Note_on_c, 7, 69, 76
9, 37387, Note_on_c, 7, 68, 0
9, 37485, Note_on_c, 7, 71, 63
9, 37498, Note_on_c, 7, 69, 0
9, 37622, Note_on_c, 7, 69, 70
9, 37634, Note_on_c, 7, 71, 0
9, 37707, Note_on_c, 7, 64, 0
9, 37719, Note_on_c, 7, 69, 0
9, 37863, Note_on_c, 7, 71, 73
9, 37866, Note_on_c, 7, 59, 65
9, 38384, Note_on_c, 7, 67, 71
9, 38388, Note_on_c, 7, 71, 0
9, 38468, Note_on_c, 7, 59, 0
9, 38472, Note_on_c, 7, 67, 0
9, 38654, Note_on_c, 7, 59, 70
9, 38659, Note_on_c, 7, 71, 76
9, 39174, Note_on_c, 7, 59, 0
9, 39182, Note_on_c, 7, 64, 76
9, 39231, Note_on_c, 7, 71, 0
9, 39271, Note_on_c, 7, 64, 0
9, 39452, Note_on_c, 7, 64, 84
9, 39460, Note_on_c, 7, 52, 72
9, 39896, Note_on_c, 7, 52, 0
9, 39946, Note_on_c, 7, 64, 0
9, 39978, Note_on_c, 7, 59, 86
9, 40061, Note_on_c, 7, 59, 0
9, 40099, Note_on_c, 7, 64, 88
9, 40106, Note_on_c, 7, 52, 76
9, 40155, Note_on_c, 7, 64, 0
9, 40159, Note_on_c, 7, 52, 0
9, 40250, Note_on_c, 7, 64, 89
9, 40252, Note_on_c, 7, 52, 84
9, 40753, Note_on_c, 7, 64, 0
9, 40791, Note_on_c, 7, 59, 97
9, 40797, Note_on_c, 7, 52, 0
9, 41049, Note_on_c, 7, 66, 105
9, 41279, Note_on_c, 7, 66, 0
9, 41343, Note_on_c, 7, 71, 89
9, 41555, Note_on_c, 7, 71, 0
9, 41626, Note_on_c, 7, 71, 101
9, 42118, Note_on_c, 7, 71, 0
9, 42139, Note_on_c, 7, 66, 79
9, 42317, Note_on_c, 7, 59, 0
9, 42339, Note_on_c, 7, 66, 0
9, 42407, Note_on_c, 7, 59, 68
9, 42409, Note_on_c, 7, 71, 87
9, 43660, Note_on_c, 7, 59, 0
9, 43662, Note_on_c, 7, 71, 0
9, 43680, Note_on_c, 7, 66, 88
9, 43848, Note_on_c, 7, 66, 0
9, 43944, Note_on_c, 7, 59, 96
9, 43944, Note_on_c, 7, 71, 92
9, 44118, Note_on_c, 7, 59, 0
9, 44120, Note_on_c, 7, 71, 0
9, 65280, Control_c, 7, 11, 51
9, 65330, Control_c, 7, 11, 52
9, 65380, Control_c, 7, 11, 53
9, 65425, Control_c, 7, 11, 54
9, 65475, Control_c, 7, 11, 55
9, 65483, Note_on_c, 7, 47, 35
9, 65520, Control_c, 7, 11, 56
9, 65570, Control_c, 7, 11, 57
9, 65615, Control_c, 7, 11, 58
9, 65665, Control_c, 7, 11, 59
9, 65710, Control_c, 7, 11, 60
9, 65760, Control_c, 7, 11, 61
9, 65805, Control_c, 7, 11, 62
9, 65817, Note_on_c, 7, 52, 46
9, 65855, Control_c, 7, 11, 63
9, 65900, Control_c, 7, 11, 64
9, 65924, Note_on_c, 7, 47, 0
9, 65950, Control_c, 7, 11, 65
9, 65995, Control_c, 7, 11, 66
9, 66045, Control_c, 7, 11, 67
9, 66095, Control_c, 7, 11, 68
9, 66140, Control_c, 7, 11, 69
9, 66190, Control_c, 7, 11, 70
9, 66235, Control_c, 7, 11, 71
9, 66285, Control_c, 7, 11, 72
9, 66330, Control_c, 7, 11, 73
9, 66380, Control_c, 7, 11, 74
9, 66423, Note_on_c, 7, 56, 43
9, 66425, Control_c, 7, 11, 75
9, 66443, Note_on_c, 7, 52, 0
9, 66475, Control_c, 7, 11, 76
9, 66520, Control_c, 7, 11, 77
9, 66570, Control_c, 7, 11, 78
9, 66615, Control_c, 7, 11, 79
9, 66665, Control_c, 7, 11, 80
9, 66710, Control_c, 7, 11, 81
9, 66711, Note_on_c, 7, 47, 36
9, 66715, Control_c, 7, 11, 80
9, 66720, Control_c, 7, 11, 79
9, 66722, Note_on_c, 7, 56, 0
9, 66725, Control_c, 7, 11, 78
9, 66730, Control_c, 7, 11, 77
9, 66740, Control_c, 7, 11, 76
9, 66745, Control_c, 7, 11, 75
9, 66750, Control_c, 7, 11, 74
9, 66760, Control_c, 7, 11, 73
9, 66770, Control_c, 7, 11, 72
9, 66780, Control_c, 7, 11, 71
9, 66790, Control_c, 7, 11, 70
9, 66805, Control_c, 7, 11, 69
9, 66815, Control_c, 7, 11, 68
9, 66830, Control_c, 7, 11, 67
9, 66845, Control_c, 7, 11, 66
9, 66860, Control_c, 7, 11, 65
9, 66880, Control_c, 7, 11, 64
9, 66905, Control_c, 7, 11, 63
9, 66935, Control_c, 7, 11, 62
9, 66970, Control_c, 7, 11, 61
9, 67025, Control_c, 7, 11, 60
9, 67115, Control_c, 7, 11, 59
9, 67331, Note_on_c, 7, 47, 0
9, 78531, Note_on_c, 7, 71, 65
9, 78532, Note_on_c, 7, 59, 41
9, 78960, Note_on_c, 7, 68, 69
9, 78974, Note_on_c, 7, 64, 37
9, 79003, Note_on_c, 7, 59, 0
9, 79061, Note_on_c, 7, 71, 0
9, 79598, Note_on_c, 7, 66, 72
9, 79602, Note_on_c, 7, 64, 0
9, 79602, Note_on_c, 7, 59, 45
9, 79682, Note_on_c, 7, 68, 0
9, 79900, Note_on_c, 7, 56, 54
9, 79904, Note_on_c, 7, 64, 62
9, 79974, Note_on_c, 7, 66, 0
9, 80011, Note_on_c, 7, 59, 0
9, 80463, Note_on_c, 7, 59, 55
9, 80475, Note_on_c, 7, 66, 63
9, 80538, Note_on_c, 7, 64, 0
9, 80564, Note_on_c, 7, 56, 0
9, 80784, Note_on_c, 7, 68, 68
9, 80793, Note_on_c, 7, 64, 34
9, 80810, Note_on_c, 7, 66, 0
9, 80871, Note_on_c, 7, 59, 0
9, 81687, Note_on_c, 7, 66, 57
9, 81694, Note_on_c, 7, 59, 36
9, 81725, Note_on_c, 7, 68, 0
9, 81727, Note_on_c, 7, 64, 0
9, 82759, Note_on_c, 7, 59, 0
9, 82893, Note_on_c, 7, 66, 0
9, 83230, Control_c, 7, 11, 60
9, 83230, Note_on_c, 7, 64, 66
9, 83263, Control_c, 7, 11, 61
9, 83295, Control_c, 7, 11, 62
9, 83327, Control_c, 7, 11, 63
9, 83360, Control_c, 7, 11, 64
9, 83392, Control_c, 7, 11, 65
9, 83424, Control_c, 7, 11, 66
9, 83457, Control_c, 7, 11, 67
9, 83489, Control_c, 7, 11, 68
9, 83521, Control_c, 7, 11, 69
9, 83553, Control_c, 7, 11, 70
9, 83586, Control_c, 7, 11, 71
9, 83618, Control_c, 7, 11, 72
9, 83650, Control_c, 7, 11, 73
9, 83683, Control_c, 7, 11, 74
9, 83715, Control_c, 7, 11, 75
9, 83747, Control_c, 7, 11, 76
9, 83780, Control_c, 7, 11, 77
9, 83812, Control_c, 7, 11, 78
9, 83833, Note_on_c, 7, 64, 0
9, 83838, Note_on_c, 7, 66, 74
9, 83841, Note_on_c, 7, 59, 71
9, 83844, Control_c, 7, 11, 79
9, 83876, Control_c, 7, 11, 80
9, 83909, Control_c, 7, 11, 81
9, 83941, Control_c, 7, 11, 82
9, 83973, Control_c, 7, 11, 83
9, 84006, Control_c, 7, 11, 84
9, 84038, Control_c, 7, 11, 85
9, 84070, Control_c, 7, 11, 86
9, 84103, Control_c, 7, 11, 87
9, 84135, Control_c, 7, 11, 88
9, 84163, Note_on_c, 7, 68, 77
9, 84167, Note_on_c, 7, 64, 77
9, 84167, Control_c, 7, 11, 89
9, 84180, Note_on_c, 7, 66, 0
9, 84197, Note_on_c, 7, 59, 0
9, 84199, Control_c, 7, 11, 90
9, 84232, Control_c, 7, 11, 91
9, 84264, Control_c, 7, 11, 92
9, 84296, Control_c, 7, 11, 93
9, 84329, Control_c, 7, 11, 94
9, 84361, Control_c, 7, 11, 95
9, 84393, Control_c, 7, 11, 96
9, 84426, Control_c, 7, 11, 97
9, 84434, Note_on_c, 7, 64, 0
9, 84458, Control_c, 7, 11, 98
9, 84483, Note_on_c, 7, 68, 0
9, 84490, Control_c, 7, 11, 99
9, 84517, Note_on_c, 7, 64, 60
9, 84517, Note_on_c, 7, 52, 72
9, 84522, Control_c, 7, 11, 100
9, 85318, Note_on_c, 7, 52, 0
9, 85357, Note_on_c, 7, 64, 0
9, 85388, Note_on_c, 7, 66, 75
9, 85390, Note_on_c, 7, 59, 49
9, 86185, Note_on_c, 7, 59, 0
9, 86210, Note_on_c, 7, 66, 0
9, 86217, Note_on_c, 7, 68, 76
9, 86238, Note_on_c, 7, 56, 47
9, 86356, Note_on_c, 7, 56, 0
9, 86370, Note_on_c, 7, 68, 0
9, 86522, Note_on_c, 7, 56, 60
9, 86523, Note_on_c, 7, 68, 80
9, 86686, Note_on_c, 7, 56, 0
9, 86728, Note_on_c, 7, 68, 0
9, 86784, Note_on_c, 7, 66, 84
9, 87014, Note_on_c, 7, 66, 0
9, 87071, Note_on_c, 7, 59, 73
9, 87080, Note_on_c, 7, 71, 69
9, 87260, Note_on_c, 7, 59, 0
9, 87340, Note_on_c, 7, 71, 0
9, 87374, Note_on_c, 7, 68, 72
9, 87382, Note_on_c, 7, 64, 38
9, 87630, Note_on_c, 7, 64, 0
9, 87663, Note_on_c, 7, 66, 70
9, 87674, Note_on_c, 7, 68, 0
9, 87964, Note_on_c, 7, 64, 63
9, 87966, Note_on_c, 7, 66, 0
9, 88121, Note_on_c, 7, 64, 0
9, 88255, Note_on_c, 7, 66, 86
9, 88802, Note_on_c, 7, 66, 0
9, 88874, Note_on_c, 7, 59, 77
9, 88880, Note_on_c, 7, 66, 61
9, 89676, Note_on_c, 7, 59, 0
9, 89713, Note_on_c, 7, 56, 82
9, 89856, Note_on_c, 7, 56, 0
9, 89857, Note_on_c, 7, 66, 0
9, 89987, Note_on_c, 7, 64, 59
9, 90652, Note_on_c, 7, 64, 0
9, 90803, Note_on_c, 7, 64, 70
9, 91005, Note_on_c, 7, 64, 0
9, 91063, Note_on_c, 7, 59, 74
9, 91068, Note_on_c, 7, 71, 78
9, 91184, Note_on_c, 7, 59, 0
9, 91199, Note_on_c, 7, 71, 0
9, 91343, Note_on_c, 7, 67, 79
9, 91346, Note_on_c, 7, 64, 89
9, 91415, Note_on_c, 7, 64, 0
9, 91438, Note_on_c, 7, 67, 0
9, 91612, Note_on_c, 7, 67, 83
9, 91613, Note_on_c, 7, 64, 91
9, 91747, Note_on_c, 7, 64, 0
9, 91751, Note_on_c, 7, 67, 0
9, 92148, Note_on_c, 7, 67, 78
9, 92922, Note_on_c, 7, 64, 79
9, 93026, Note_on_c, 7, 64, 0
9, 93046, Note_on_c, 7, 67, 0
9, 93211, Note_on_c, 7, 67, 74
9, 93218, Note_on_c, 7, 64, 62
9, 93318, Note_on_c, 7, 64, 0
9, 93332, Note_on_c, 7, 67, 0
9, 93769, Note_on_c, 7, 67, 71
9, 94530, Note_on_c, 7, 67, 0
9, 94570, Note_on_c, 7, 64, 92
9, 94572, Note_on_c, 7, 67, 65
9, 94733, Note_on_c, 7, 64, 0
9, 94754, Note_on_c, 7, 67, 0
9, 99816, Note_on_c, 7, 64, 32
9, 100112, Note_on_c, 7, 64, 0
9, 100168, Note_on_c, 7, 71, 40
9, 100178, Note_on_c, 7, 64, 21
9, 100976, Note_on_c, 7, 64, 0
9, 100999, Note_on_c, 7, 59, 43
9, 101603, Note_on_c, 7, 71, 0
9, 101618, Note_on_c, 7, 69, 44
9, 101920, Note_on_c, 7, 59, 0
9, 101930, Note_on_c, 7, 69, 0
9, 101959, Note_on_c, 7, 64, 93
9, 101964, Note_on_c, 7, 67, 77
9, 102094, Note_on_c, 7, 67, 0
9, 102095, Note_on_c, 7, 64, 0
9, 102253, Note_on_c, 7, 67, 80
9, 102254, Note_on_c, 7, 64, 96
9, 102371, Note_on_c, 7, 64, 0
9, 102383, Note_on_c, 7, 67, 0
9, 102888, Note_on_c, 7, 67, 80
9, 103667, Note_on_c, 7, 64, 86
9, 103767, Note_on_c, 7, 64, 0
9, 103780, Note_on_c, 7, 67, 0
9, 103954, Note_on_c, 7, 64, 91
9, 103957, Note_on_c, 7, 67, 85
9, 104038, Note_on_c, 7, 64, 0
9, 104058, Note_on_c, 7, 67, 0
9, 104518, Note_on_c, 7, 67, 84
9, 105340, Note_on_c, 7, 67, 0
9, 105365, Note_on_c, 7, 64, 97
9, 105373, Note_on_c, 7, 67, 70
9, 105553, Note_on_c, 7, 64, 0
9, 105562, Note_on_c, 7, 67, 0
9, 110880, Control_c, 7, 11, 80
9, 110939, Note_on_c, 7, 64, 13
9, 111325, Note_on_c, 7, 59, 18
9, 111597, Note_on_c, 7, 64, 0
9, 112244, Note_on_c, 7, 47, 27
9, 113337, Note_on_c, 7, 59, 0
9, 113389, Note_on_c, 7, 52, 10
9, 113460, Note_on_c, 7, 47, 0
9, 113773, Note_on_c, 7, 52, 0
9, 179280, Control_c, 7, 11, 70
9, 179399, Note_on_c, 7, 59, 88
9, 180955, Note_on_c, 7, 64, 69
9, 180989, Note_on_c, 7, 59, 0
9, 181366, Note_on_c, 7, 64, 0
9, 182444, Note_on_c, 7, 71, 90
9, 183341, Note_on_c, 7, 66, 85
9, 183377, Note_on_c, 7, 71, 0
9, 184267, Note_on_c, 7, 59, 62
9, 184279, Note_on_c, 7, 66, 0
9, 184680, Note_on_c, 7, 59, 0
9, 185832, Note_on_c, 7, 66, 88
9, 187542, Note_on_c, 7, 71, 70
9, 187574, Note_on_c, 7, 66, 0
9, 187826, Note_on_c, 7, 71, 0
9, 224862, Note_on_c, 7, 59, 50
9, 225600, Control_c, 7, 11, 70
9, 225640, Control_c, 7, 11, 71
9, 225680, Control_c, 7, 11, 72
9, 225720, Control_c, 7, 11, 73
9, 225760, Control_c, 7, 11, 74
9, 225800, Control_c, 7, 11, 75
9, 225840, Control_c, 7, 11, 76
9, 225880, Control_c, 7, 11, 77
9, 225920, Control_c, 7, 11, 78
9, 225960, Control_c, 7, 11, 79
9, 226000, Control_c, 7, 11, 80
9, 226040, Control_c, 7, 11, 81
9, 226080, Control_c, 7, 11, 82
9, 226120, Control_c, 7, 11, 83
9, 226160, Control_c, 7, 11, 84
9, 226200, Control_c, 7, 11, 85
9, 226240, Control_c, 7, 11, 86
9, 226280, Control_c, 7, 11, 87
9, 226320, Control_c, 7, 11, 88
9, 226360, Control_c, 7, 11, 89
9, 226400, Control_c, 7, 11, 90
9, 226440, Control_c, 7, 11, 91
9, 226480, Control_c, 7, 11, 92
9, 226520, Control_c, 7, 11, 93
9, 226560, Control_c, 7, 11, 94
9, 226600, Control_c, 7, 11, 95
9, 226640, Control_c, 7, 11, 96
9, 226680, Control_c, 7, 11, 97
9, 226720, Control_c, 7, 11, 98
9, 226760, Control_c, 7, 11, 99
9, 226800, Control_c, 7, 11, 100
9, 226846, Note_on_c, 7, 71, 61
9, 226850, Control_c, 7, 11, 99
9, 226890, Note_on_c, 7, 59, 0
9, 226900, Control_c, 7, 11, 98
9, 226945, Control_c, 7, 11, 97
9, 226995, Control_c, 7, 11, 96
9, 227040, Control_c, 7, 11, 95
9, 227090, Control_c, 7, 11, 94
9, 227140, Control_c, 7, 11, 93
9, 227185, Control_c, 7, 11, 92
9, 227235, Control_c, 7, 11, 91
9, 227280, Control_c, 7, 11, 90
9, 227330, Control_c, 7, 11, 89
9, 227380, Control_c, 7, 11, 88
9, 227425, Control_c, 7, 11, 87
9, 227475, Control_c, 7, 11, 86
9, 227520, Control_c, 7, 11, 85
9, 227570, Control_c, 7, 11, 84
9, 227620, Control_c, 7, 11, 83
9, 227665, Control_c, 7, 11, 82
9, 227715, Control_c, 7, 11, 81
9, 227760, Control_c, 7, 11, 80
9, 228000, Control_c, 7, 11, 80
9, 228040, Control_c, 7, 11, 81
9, 228075, Control_c, 7, 11, 82
9, 228110, Control_c, 7, 11, 83
9, 228145, Control_c, 7, 11, 84
9, 228180, Control_c, 7, 11, 85
9, 228220, Control_c, 7, 11, 86
9, 228255, Control_c, 7, 11, 87
9, 228290, Control_c, 7, 11, 88
9, 228325, Control_c, 7, 11, 89
9, 228360, Control_c, 7, 11, 90
9, 228400, Control_c, 7, 11, 91
9, 228435, Control_c, 7, 11, 92
9, 228470, Control_c, 7, 11, 93
9, 228505, Control_c, 7, 11, 94
9, 228540, Control_c, 7, 11, 95
9, 228580, Control_c, 7, 11, 96
9, 228615, Control_c, 7, 11, 97
9, 228650, Control_c, 7, 11, 98
9, 228685, Control_c, 7, 11, 99
9, 228720, Control_c, 7, 11, 100
9, 228728, Note_on_c, 7, 66, 58
9, 228735, Control_c, 7, 11, 99
9, 228745, Control_c, 7, 11, 98
9, 228760, Control_c, 7, 11, 97
9, 228767, Note_on_c, 7, 71, 0
9, 228770, Control_c, 7, 11, 96
9, 228780, Control_c, 7, 11, 95
9, 228795, Control_c, 7, 11, 94
9, 228805, Control_c, 7, 11, 93
9, 228820, Control_c, 7, 11, 92
9, 228830, Control_c, 7, 11, 91
9, 228840, Control_c, 7, 11, 90
9, 228855, Control_c, 7, 11, 89
9, 228865, Control_c, 7, 11, 88
9, 228880, Control_c, 7, 11, 87
9, 228890, Control_c, 7, 11, 86
9, 228900, Control_c, 7, 11, 85
9, 228915, Control_c, 7, 11, 84
9, 228925, Control_c, 7, 11, 83
9, 228940, Control_c, 7, 11, 82
9, 228950, Control_c, 7, 11, 81
9, 228960, Control_c, 7, 11, 80
9, 229003, Note_on_c, 7, 69, 74
9, 229022, Note_on_c, 7, 66, 0
9, 229329, Note_on_c, 7, 64, 74
9, 229371, Note_on_c, 7, 69, 0
9, 229522, Note_on_c, 7, 66, 62
9, 229571, Note_on_c, 7, 64, 0
9, 229722, Note_on_c, 7, 68, 67
9, 229759, Note_on_c, 7, 66, 0
9, 230460, Note_on_c, 7, 66, 63
9, 230473, Note_on_c, 7, 68, 0
9, 230736, Note_on_c, 7, 64, 55
9, 230775, Note_on_c, 7, 66, 0
9, 231067, Note_on_c, 7, 64, 0
9, 231069, Note_on_c, 7, 59, 53
9, 231360, Control_c, 7, 11, 80
9, 231400, Control_c, 7, 11, 79
9, 231435, Control_c, 7, 11, 78
9, 231470, Control_c, 7, 11, 77
9, 231505, Control_c, 7, 11, 76
9, 231540, Control_c, 7, 11, 75
9, 231580, Control_c, 7, 11, 74
9, 231615, Control_c, 7, 11, 73
9, 231650, Control_c, 7, 11, 72
9, 231685, Control_c, 7, 11, 71
9, 231720, Control_c, 7, 11, 70
9, 231760, Control_c, 7, 11, 69
9, 231795, Control_c, 7, 11, 68
9, 231830, Control_c, 7, 11, 67
9, 231865, Control_c, 7, 11, 66
9, 231900, Control_c, 7, 11, 65
9, 231940, Control_c, 7, 11, 64
9, 231975, Control_c, 7, 11, 63
9, 232010, Control_c, 7, 11, 62
9, 232045, Control_c, 7, 11, 61
9, 232064, Note_on_c, 7, 64, 39
9, 232080, Control_c, 7, 11, 60
9, 232094, Note_on_c, 7, 59, 0
9, 232680, Note_on_c, 7, 64, 0
9, 241680, Control_c, 7, 11, 80
9, 241912, Note_on_c, 7, 59, 81
9, 242203, Note_on_c, 7, 64, 93
9, 242232, Note_on_c, 7, 59, 0
9, 242841, Note_on_c, 7, 68, 92
9, 242874, Note_on_c, 7, 64, 0
9, 243132, Note_on_c, 7, 59, 82
9, 243152, Note_on_c, 7, 68, 0
9, 243550, Note_on_c, 7, 59, 0
9, 258578, Control_c, 7, 11, 50
9, 258578, Note_on_c, 7, 68, 60
9, 258583, Control_c, 7, 11, 53
9, 258588, Control_c, 7, 11, 55
9, 258593, Control_c, 7, 11, 57
9, 258598, Control_c, 7, 11, 58
9, 258603, Control_c, 7, 11, 60
9, 258608, Control_c, 7, 11, 62
9, 258613, Control_c, 7, 11, 63
9, 258618, Control_c, 7, 11, 64
9, 258623, Control_c, 7, 11, 65
9, 258628, Control_c, 7, 11, 66
9, 258633, Control_c, 7, 11, 67
9, 258638, Control_c, 7, 11, 68
9, 258643, Control_c, 7, 11, 69
9, 258648, Control_c, 7, 11, 70
9, 258653, Control_c, 7, 11, 71
9, 258663, Control_c, 7, 11, 72
9, 258668, Control_c, 7, 11, 73
9, 258678, Control_c, 7, 11, 74
9, 258688, Control_c, 7, 11, 75
9, 258703, Control_c, 7, 11, 76
9, 258718, Control_c, 7, 11, 77
9, 258738, Control_c, 7, 11, 78
9, 258763, Control_c, 7, 11, 79
9, 258808, Control_c, 7, 11, 80
9, 260964, Note_on_c, 7, 66, 65
9, 261036, Note_on_c, 7, 68, 0
9, 263020, Note_on_c, 7, 64, 53
9, 263066, Note_on_c, 7, 66, 0
9, 265070, Note_on_c, 7, 64, 0
9, 273120, Control_c, 7, 11, 80
9, 275445, Note_on_c, 7, 59, 66
9, 275563, Note_on_c, 7, 56, 72
9, 275569, Note_on_c, 7, 64, 79
9, 275603, Note_on_c, 7, 59, 0
9, 275700, Note_on_c, 7, 59, 63
9, 275701, Note_on_c, 7, 66, 80
9, 275741, Note_on_c, 7, 56, 0
9, 275742, Note_on_c, 7, 64, 0
9, 276132, Note_on_c, 7, 59, 0
9, 276167, Note_on_c, 7, 59, 80
9, 276170, Note_on_c, 7, 66, 0
9, 276285, Note_on_c, 7, 64, 82
9, 276288, Note_on_c, 7, 56, 67
9, 276302, Note_on_c, 7, 59, 0
9, 276406, Note_on_c, 7, 66, 83
9, 276410, Note_on_c, 7, 59, 61
9, 276433, Note_on_c, 7, 56, 0
9, 276441, Note_on_c, 7, 64, 0
9, 276830, Note_on_c, 7, 59, 0
9, 276831, Note_on_c, 7, 68, 80
9, 276840, Note_on_c, 7, 64, 71
9, 276866, Note_on_c, 7, 66, 0
9, 277003, Note_on_c, 7, 64, 0
9, 277018, Note_on_c, 7, 68, 0
9, 277080, Note_on_c, 7, 71, 89
9, 277090, Note_on_c, 7, 59, 79
9, 277492, Note_on_c, 7, 68, 78
9, 277503, Note_on_c, 7, 64, 62
9, 277515, Note_on_c, 7, 59, 0
9, 277535, Note_on_c, 7, 71, 0
9, 277625, Note_on_c, 7, 68, 0
9, 277632, Note_on_c, 7, 64, 0
9, 277779, Note_on_c, 7, 71, 91
9, 277784, Note_on_c, 7, 59, 86
9, 278699, Note_on_c, 7, 59, 0
9, 278712, Note_on_c, 7, 71, 0
9, 287445, Note_on_c, 7, 59, 65
9, 287566, Note_on_c, 7, 64, 78
9, 287569, Note_on_c, 7, 56, 73
9, 287622, Note_on_c, 7, 59, 0
9, 287709, Note_on_c, 7, 66, 80
9, 287718, Note_on_c, 7, 59, 62
9, 287757, Note_on_c, 7, 64, 0
9, 287793, Note_on_c, 7, 56, 0
9, 288173, Note_on_c, 7, 59, 0
9, 288206, Note_on_c, 7, 66, 0
9, 288211, Note_on_c, 7, 59, 76
9, 288328, Note_on_c, 7, 64, 90
9, 288332, Note_on_c, 7, 56, 84
9, 288377, Note_on_c, 7, 59, 0
9, 288479, Note_on_c, 7, 59, 61
9, 288484, Note_on_c, 7, 66, 87
9, 288523, Note_on_c, 7, 56, 0
9, 288526, Note_on_c, 7, 64, 0
9, 288886, Note_on_c, 7, 68, 82
9, 288895, Note_on_c, 7, 64, 79
9, 288904, Note_on_c, 7, 59, 0
9, 288926, Note_on_c, 7, 66, 0
9, 289005, Note_on_c, 7, 64, 0
9, 289010, Note_on_c, 7, 68, 0
9, 289128, Note_on_c, 7, 71, 92
9, 289135, Note_on_c, 7, 59, 78
9, 289547, Note_on_c, 7, 68, 83
9, 289557, Note_on_c, 7, 64, 87
9, 289560, Note_on_c, 7, 59, 0
9, 289598, Note_on_c, 7, 71, 0
9, 289649, Note_on_c, 7, 68, 0
9, 289656, Note_on_c, 7, 64, 0
9, 289817, Note_on_c, 7, 59, 88
9, 289817, Note_on_c, 7, 71, 97
9, 290654, Note_on_c, 7, 59, 0
9, 290654, Note_on_c, 7, 71, 0
9, 306813, Control_c, 7, 11, 60
9, 306813, Note_on_c, 7, 59, 99
9, 306883, Control_c, 7, 11, 61
9, 306953, Control_c, 7, 11, 62
9, 307023, Control_c, 7, 11, 63
9, 307093, Control_c, 7, 11, 64
9, 307163, Control_c, 7, 11, 65
9, 307233, Control_c, 7, 11, 66
9, 307303, Control_c, 7, 11, 67
9, 307373, Control_c, 7, 11, 68
9, 307443, Control_c, 7, 11, 69
9, 307489, Note_on_c, 7, 59, 0
9, 307512, Note_on_c, 7, 66, 93
9, 307513, Control_c, 7, 11, 70
9, 307518, Note_on_c, 7, 59, 71
9, 307583, Control_c, 7, 11, 71
9, 307653, Control_c, 7, 11, 72
9, 307723, Control_c, 7, 11, 73
9, 307793, Control_c, 7, 11, 74
9, 307858, Control_c, 7, 11, 75
9, 307928, Control_c, 7, 11, 76
9, 307998, Control_c, 7, 11, 77
9, 308068, Control_c, 7, 11, 78
9, 308138, Control_c, 7, 11, 79
9, 308208, Control_c, 7, 11, 80
9, 308278, Control_c, 7, 11, 81
9, 308348, Control_c, 7, 11, 82
9, 308418, Control_c, 7, 11, 83
9, 308488, Control_c, 7, 11, 84
9, 308558, Control_c, 7, 11, 85
9, 308628, Control_c, 7, 11, 86
9, 308698, Control_c, 7, 11, 87
9, 308768, Control_c, 7, 11, 88
9, 308821, Note_on_c, 7, 71, 97
9, 308833, Control_c, 7, 11, 89
9, 308844, Note_on_c, 7, 66, 0
9, 308903, Control_c, 7, 11, 90
9, 308973, Control_c, 7, 11, 91
9, 309043, Control_c, 7, 11, 92
9, 309113, Control_c, 7, 11, 93
9, 309183, Control_c, 7, 11, 94
9, 309253, Control_c, 7, 11, 95
9, 309323, Control_c, 7, 11, 96
9, 309393, Control_c, 7, 11, 97
9, 309463, Control_c, 7, 11, 98
9, 309533, Control_c, 7, 11, 99
9, 309600, Control_c, 7, 11, 100
9, 310315, Note_on_c, 7, 59, 0
9, 310369, Note_on_c, 7, 68, 88
9, 310606, Note_on_c, 7, 68, 0
9, 310620, Note_on_c, 7, 69, 54
9, 310622, Note_on_c, 7, 66, 88
9, 310633, Note_on_c, 7, 71, 0
9, 311046, Note_on_c, 7, 66, 0
9, 311091, Note_on_c, 7, 59, 84
9, 311110, Note_on_c, 7, 68, 54
9, 311183, Note_on_c, 7, 69, 0
9, 311544, Note_on_c, 7, 69, 67
9, 311549, Note_on_c, 7, 66, 72
9, 311553, Note_on_c, 7, 68, 0
9, 311554, Note_on_c, 7, 59, 0
9, 312012, Note_on_c, 7, 66, 0
9, 312031, Note_on_c, 7, 68, 75
9, 312035, Note_on_c, 7, 64, 76
9, 312065, Note_on_c, 7, 69, 0
9, 312500, Note_on_c, 7, 64, 0
9, 312525, Note_on_c, 7, 68, 0
9, 312526, Note_on_c, 7, 66, 66
9, 312533, Note_on_c, 7, 59, 83
9, 312999, Note_on_c, 7, 59, 0
9, 313009, Note_on_c, 7, 66, 0
9, 313013, Note_on_c, 7, 64, 86
9, 313479, Note_on_c, 7, 64, 0
9, 313532, Note_on_c, 7, 71, 82
9, 313536, Note_on_c, 7, 59, 83
9, 313604, Note_on_c, 7, 71, 0
9, 313605, Note_on_c, 7, 59, 0
9, 313771, Note_on_c, 7, 71, 89
9, 313771, Note_on_c, 7, 59, 84
9, 313853, Note_on_c, 7, 59, 0
9, 313865, Note_on_c, 7, 71, 0
9, 314015, Note_on_c, 7, 69, 89
9, 314025, Note_on_c, 7, 64, 80
9, 314100, Note_on_c, 7, 69, 0
9, 314108, Note_on_c, 7, 64, 0
9, 314271, Note_on_c, 7, 52, 100
9, 314275, Note_on_c, 7, 64, 85
9, 314347, Note_on_c, 7, 64, 0
9, 314350, Note_on_c, 7, 52, 0
9, 314522, Note_on_c, 7, 64, 89
9, 314528, Note_on_c, 7, 52, 94
9, 314608, Note_on_c, 7, 52, 0
9, 314612, Note_on_c, 7, 64, 0
9, 314779, Note_on_c, 7, 59, 99
9, 314780, Note_on_c, 7, 66, 90
9, 314909, Note_on_c, 7, 66, 0
9, 314918, Note_on_c, 7, 59, 0
9, 315035, Note_on_c, 7, 64, 87
9, 315035, Note_on_c, 7, 59, 99
9, 315157, Note_on_c, 7, 64, 0
9, 315161, Note_on_c, 7, 59, 0
9, 315284, Note_on_c, 7, 66, 98
9, 315361, Note_on_c, 7, 66, 0
9, 315525, Note_on_c, 7, 59, 99
9, 315525, Note_on_c, 7, 66, 99
9, 315619, Note_on_c, 7, 59, 0
9, 315632, Note_on_c, 7, 66, 0
9, 316749, Note_on_c, 7, 71, 97
9, 316755, Note_on_c, 7, 59, 99
9, 316821, Note_on_c, 7, 71, 0
9, 316822, Note_on_c, 7, 59, 0
9, 316991, Note_on_c, 7, 71, 88
9, 316994, Note_on_c, 7, 59, 99
9, 317073, Note_on_c, 7, 59, 0
9, 317082, Note_on_c, 7, 71, 0
9, 318213, Note_on_c, 7, 71, 94
9, 318216, Note_on_c, 7, 59, 99
9, 318269, Note_on_c, 7, 59, 0
9, 318278, Note_on_c, 7, 71, 0
9, 318461, Note_on_c, 7, 71, 96
9, 318467, Note_on_c, 7, 59, 98
9, 318539, Note_on_c, 7, 59, 0
9, 318548, Note_on_c, 7, 71, 0
9, 319624, Note_on_c, 7, 71, 86
9, 319631, Note_on_c, 7, 59, 99
9, 319698, Note_on_c, 7, 59, 0
9, 319715, Note_on_c, 7, 71, 0
9, 320358, Note_on_c, 7, 66, 99
9, 320375, Note_on_c, 7, 68, 36
9, 320379, Note_on_c, 7, 67, 45
9, 320408, Note_on_c, 7, 68, 0
9, 320409, Note_on_c, 7, 67, 0
9, 320430, Note_on_c, 7, 66, 0
9, 321075, Note_on_c, 7, 66, 96
9, 321084, Note_on_c, 7, 59, 88
9, 321159, Note_on_c, 7, 66, 0
9, 321164, Note_on_c, 7, 59, 0
9, 321314, Note_on_c, 7, 66, 89
9, 321319, Note_on_c, 7, 59, 84
9, 321363, Note_on_c, 7, 66, 0
9, 321387, Note_on_c, 7, 59, 0
9, 321574, Note_on_c, 7, 66, 88
9, 322334, Note_on_c, 7, 66, 0
9, 322546, Note_on_c, 7, 64, 91
9, 322764, Note_on_c, 7, 64, 0
9, 322772, Note_on_c, 7, 71, 82
9, 322775, Note_on_c, 7, 59, 89
9, 322869, Note_on_c, 7, 71, 0
9, 322874, Note_on_c, 7, 59, 0
9, 323003, Note_on_c, 7, 66, 86
9, 323007, Note_on_c, 7, 59, 77
9, 323074, Note_on_c, 7, 66, 0
9, 323116, Note_on_c, 7, 59, 0
9, 323236, Note_on_c, 7, 66, 96
9, 323690, Note_on_c, 7, 66, 0
9, 324415, Note_on_c, 7, 71, 76
9, 325111, Note_on_c, 7, 69, 88
9, 325137, Note_on_c, 7, 71, 0
9, 325333, Note_on_c, 7, 64, 97
9, 325541, Note_on_c, 7, 64, 0
9, 325547, Note_on_c, 7, 69, 0
9, 325555, Note_on_c, 7, 71, 71
9, 325563, Note_on_c, 7, 66, 99
9, 325628, Note_on_c, 7, 66, 0
9, 325641, Note_on_c, 7, 71, 0
9, 325814, Note_on_c, 7, 71, 87
9, 325816, Note_on_c, 7, 64, 99
9, 325917, Note_on_c, 7, 64, 0
9, 325935, Note_on_c, 7, 71, 0
9, 330325, Note_on_c, 7, 64, 94
9, 330479, Note_on_c, 7, 64, 0
9, 330577, Note_on_c, 7, 71, 78
9, 330581, Note_on_c, 7, 59, 85
9, 331388, Note_on_c, 7, 71, 0
9, 331401, Note_on_c, 7, 59, 0
9, 331519, Note_on_c, 7, 71, 63
9, 331527, Note_on_c, 7, 59, 94
9, 331688, Note_on_c, 7, 59, 0
9, 331693, Note_on_c, 7, 71, 0
9, 331773, Note_on_c, 7, 66, 98
9, 331774, Note_on_c, 7, 71, 78
9, 331921, Note_on_c, 7, 71, 0
9, 331924, Note_on_c, 7, 66, 0
9, 332004, Note_on_c, 7, 71, 75
9, 332007, Note_on_c, 7, 64, 96
9, 332120, Note_on_c, 7, 71, 0
9, 332125, Note_on_c, 7, 64, 0
9, 332269, Note_on_c, 7, 71, 72
9, 332273, Note_on_c, 7, 59, 91
9, 332673, Note_on_c, 7, 71, 0
9, 332690, Note_on_c, 7, 59, 0
9, 332729, Note_on_c, 7, 71, 76
9, 332731, Note_on_c, 7, 59, 107
9, 332782, Note_on_c, 7, 71, 0
9, 332798, Note_on_c, 7, 59, 0
9, 332953, Note_on_c, 7, 71, 80
9, 332959, Note_on_c, 7, 59, 102
9, 333374, Note_on_c, 7, 71, 0
9, 333396, Note_on_c, 7, 59, 0
9, 333397, Note_on_c, 7, 64, 100
9, 333707, Note_on_c, 7, 64, 0
9, 333850, Note_on_c, 7, 66, 106
9, 334279, Note_on_c, 7, 66, 0
9, 334289, Note_on_c, 7, 64, 84
9, 334408, Note_on_c, 7, 64, 0
9, 334522, Note_on_c, 7, 64, 111
9, 334756, Note_on_c, 7, 64, 0
9, 334769, Note_on_c, 7, 71, 87
9, 334771, Note_on_c, 7, 59, 106
9, 334855, Note_on_c, 7, 71, 0
9, 334864, Note_on_c, 7, 59, 0
9, 335023, Note_on_c, 7, 71, 74
9, 335028, Note_on_c, 7, 59, 94
9, 335442, Note_on_c, 7, 71, 0
9, 335443, Note_on_c, 7, 59, 0
9, 335473, Note_on_c, 7, 71, 76
9, 335474, Note_on_c, 7, 59, 85
9, 335577, Note_on_c, 7, 71, 0
9, 335582, Note_on_c, 7, 59, 0
9, 335726, Note_on_c, 7, 71, 83
9, 335728, Note_on_c, 7, 59, 94
9, 336182, Note_on_c, 7, 71, 0
9, 336191, Note_on_c, 7, 59, 0
9, 336220, Note_on_c, 7, 52, 88
9, 336223, Note_on_c, 7, 64, 74
9, 336384, Note_on_c, 7, 64, 0
9, 336385, Note_on_c, 7, 52, 0
9, 431618, Note_on_c, 7, 66, 67
9, 431901, Note_on_c, 7, 64, 69
9, 431941, Note_on_c, 7, 66, 0
9, 433080, Note_on_c, 7, 66, 64
9, 433143, Note_on_c, 7, 64, 0
9, 433381, Note_on_c, 7, 61, 55
9, 433406, Note_on_c, 7, 66, 0
9, 433682, Note_on_c, 7, 62, 52
9, 433684, Note_on_c, 7, 61, 0
9, 434169, Note_on_c, 7, 62, 0
9, 452488, Note_on_c, 7, 64, 86
9, 453328, Note_on_c, 7, 64, 0
9, 453342, Note_on_c, 7, 59, 51
9, 453903, Note_on_c, 7, 71, 74
9, 454180, Note_on_c, 7, 59, 0
9, 454210, Note_on_c, 7, 64, 50
9, 454495, Note_on_c, 7, 71, 0
9, 454505, Note_on_c, 7, 69, 47
9, 454757, Note_on_c, 7, 64, 0
9, 454802, Note_on_c, 7, 64, 60
9, 454837, Note_on_c, 7, 69, 0
9, 455089, Note_on_c, 7, 71, 77
9, 455102, Note_on_c, 7, 59, 40
9, 455122, Note_on_c, 7, 64, 0
9, 455216, Note_on_c, 7, 59, 0
9, 455228, Note_on_c, 7, 71, 0
9, 455377, Note_on_c, 7, 71, 63
9, 455388, Note_on_c, 7, 59, 43
9, 455489, Note_on_c, 7, 59, 0
9, 455497, Note_on_c, 7, 71, 0
9, 455678, Note_on_c, 7, 66, 73
9, 455684, Note_on_c, 7, 59, 42
9, 455950, Note_on_c, 7, 64, 44
9, 455954, Note_on_c, 7, 66, 0
9, 455956, Note_on_c, 7, 59, 0
9, 456086, Note_on_c, 7, 64, 0
9, 456238, Note_on_c, 7, 66, 67
9, 456245, Note_on_c, 7, 59, 55
9, 456535, Note_on_c, 7, 59, 0
9, 456550, Note_on_c, 7, 64, 21
9, 456560, Note_on_c, 7, 66, 0
9, 456698, Note_on_c, 7, 64, 0
9, 456826, Note_on_c, 7, 71, 72
9, 456830, Note_on_c, 7, 59, 53
9, 457087, Note_on_c, 7, 59, 0
9, 457113, Note_on_c, 7, 64, 36
9, 457124, Note_on_c, 7, 71, 0
9, 457252, Note_on_c, 7, 64, 0
9, 457408, Note_on_c, 7, 52, 54
9, 457411, Note_on_c, 7, 64, 42
9, 457687, Note_on_c, 7, 52, 0
9, 457691, Note_on_c, 7, 66, 61
9, 457694, Note_on_c, 7, 59, 36
9, 457723, Note_on_c, 7, 64, 0
9, 457961, Note_on_c, 7, 59, 0
9, 457987, Note_on_c, 7, 66, 0
9, 457994, Control_c, 7, 11, 100
9, 457994, Note_on_c, 7, 64, 45
9, 458011, Control_c, 7, 11, 99
9, 458027, Control_c, 7, 11, 98
9, 458043, Control_c, 7, 11, 97
9, 458059, Control_c, 7, 11, 96
9, 458075, Control_c, 7, 11, 95
9, 458091, Control_c, 7, 11, 94
9, 458107, Control_c, 7, 11, 93
9, 458123, Control_c, 7, 11, 92
9, 458140, Control_c, 7, 11, 91
9, 458156, Control_c, 7, 11, 90
9, 458172, Control_c, 7, 11, 89
9, 458188, Control_c, 7, 11, 88
9, 458204, Control_c, 7, 11, 87
9, 458220, Control_c, 7, 11, 86
9, 458236, Control_c, 7, 11, 85
9, 458252, Control_c, 7, 11, 84
9, 458269, Control_c, 7, 11, 83
9, 458285, Control_c, 7, 11, 82
9, 458301, Control_c, 7, 11, 81
9, 458317, Control_c, 7, 11, 80
9, 458333, Control_c, 7, 11, 79
9, 458349, Control_c, 7, 11, 78
9, 458365, Control_c, 7, 11, 77
9, 458381, Control_c, 7, 11, 76
9, 458398, Control_c, 7, 11, 75
9, 458414, Control_c, 7, 11, 74
9, 458430, Control_c, 7, 11, 73
9, 458446, Control_c, 7, 11, 72
9, 458462, Control_c, 7, 11, 71
9, 458478, Control_c, 7, 11, 70
9, 458494, Control_c, 7, 11, 69
9, 458510, Control_c, 7, 11, 68
9, 458527, Control_c, 7, 11, 67
9, 458543, Control_c, 7, 11, 66
9, 458559, Control_c, 7, 11, 65
9, 458575, Control_c, 7, 11, 64
9, 458591, Control_c, 7, 11, 63
9, 458607, Control_c, 7, 11, 62
9, 458623, Control_c, 7, 11, 61
9, 458639, Control_c, 7, 11, 60
9, 458871, Note_on_c, 7, 64, 0
9, 458890, Note_on_c, 7, 66, 52
9, 458897, Note_on_c, 7, 59, 40
9, 459148, Note_on_c, 7, 59, 0
9, 459182, Note_on_c, 7, 66, 0
9, 459199, Control_c, 7, 11, 100
9, 459199, Note_on_c, 7, 64, 57
9, 459299, Note_on_c, 7, 64, 0
9, 459475, Note_on_c, 7, 64, 64
9, 459497, Note_on_c, 7, 52, 49
9, 461211, Note_on_c, 7, 69, 54
9, 461227, Note_on_c, 7, 64, 0
9, 461231, Note_on_c, 7, 52, 0
9, 461760, Note_on_c, 7, 69, 0
9, 461803, Note_on_c, 7, 69, 54
9, 461806, Note_on_c, 7, 64, 30
9, 461981, Note_on_c, 7, 64, 0
9, 462043, Note_on_c, 7, 69, 0
9, 462083, Note_on_c, 7, 69, 63
9, 462088, Note_on_c, 7, 66, 41
9, 462357, Note_on_c, 7, 71, 56
9, 462369, Note_on_c, 7, 59, 42
9, 462382, Note_on_c, 7, 69, 0
9, 462392, Note_on_c, 7, 66, 0
9, 462539, Note_on_c, 7, 59, 0
9, 462564, Note_on_c, 7, 71, 0
9, 462921, Note_on_c, 7, 52, 48
9, 462927, Note_on_c, 7, 64, 61
9, 463131, Note_on_c, 7, 52, 0
9, 463139, Note_on_c, 7, 64, 0
9, 465855, Note_on_c, 7, 64, 76
9, 465949, Note_on_c, 7, 64, 0
9, 466134, Note_on_c, 7, 66, 78
9, 466237, Note_on_c, 7, 66, 0
9, 466460, Note_on_c, 7, 64, 49
9, 466474, Note_on_c, 7, 52, 20
9, 466607, Note_on_c, 7, 52, 0
9, 466611, Note_on_c, 7, 64, 0
9, 469557, Note_on_c, 7, 64, 73
9, 469666, Note_on_c, 7, 64, 0
9, 469840, Note_on_c, 7, 66, 79
9, 469930, Note_on_c, 7, 66, 0
9, 470147, Note_on_c, 7, 64, 57
9, 470230, Note_on_c, 7, 64, 0
9, 470418, Note_on_c, 7, 64, 69
9, 470507, Note_on_c, 7, 64, 0
9, 470717, Note_on_c, 7, 66, 67
9, 470723, Note_on_c, 7, 64, 39
9, 470846, Note_on_c, 7, 64, 0
9, 470856, Note_on_c, 7, 66, 0
9, 471014, Note_on_c, 7, 66, 68
9, 471029, Note_on_c, 7, 64, 42
9, 471194, Note_on_c, 7, 64, 0
9, 471344, Note_on_c, 7, 59, 71
9, 471529, Note_on_c, 7, 59, 0
9, 471634, Note_on_c, 7, 64, 65
9, 471640, Note_on_c, 7, 66, 0
9, 471805, Note_on_c, 7, 64, 0
9, 472065, Note_on_c, 7, 69, 48
9, 472074, Note_on_c, 7, 66, 36
9, 472724, Note_on_c, 7, 66, 0
9, 472743, Note_on_c, 7, 69, 0
9, 504000, Control_c, 7, 11, 80
9, 504942, Note_on_c, 7, 59, 65
9, 506504, Note_on_c, 7, 64, 60
9, 506552, Note_on_c, 7, 59, 0
9, 506858, Note_on_c, 7, 64, 0
9, 507929, Note_on_c, 7, 71, 78
9, 508735, Note_on_c, 7, 66, 70
9, 508801, Note_on_c, 7, 71, 0
9, 509541, Note_on_c, 7, 59, 55
9, 509589, Note_on_c, 7, 66, 0
9, 509955, Note_on_c, 7, 59, 0
9, 511006, Note_on_c, 7, 66, 76
9, 512547, Note_on_c, 7, 71, 63
9, 512576, Note_on_c, 7, 66, 0
9, 512813, Note_on_c, 7, 71, 0
9, 579329, Note_on_c, 7, 64, 42
9, 579599, Note_on_c, 7, 64, 0
9, 579651, Note_on_c, 7, 64, 40
9, 579946, Note_on_c, 7, 64, 0
9, 580076, Note_on_c, 7, 64, 35
9, 581403, Note_on_c, 7, 65, 50
9, 581767, Note_on_c, 7, 64, 0
9, 582732, Note_on_c, 7, 64, 40
9, 582791, Note_on_c, 7, 65, 0
9, 586572, Note_on_c, 7, 59, 35
9, 586634, Note_on_c, 7, 64, 0
9, 589599, Note_on_c, 7, 52, 30
9, 589630, Note_on_c, 7, 59, 0
9, 589711, Note_on_c, 7, 52, 0
9, 625411, Note_on_c, 7, 59, 59
9, 626876, Note_on_c, 7, 59, 0
9, 626919, Note_on_c, 7, 59, 65
9, 626919, Control_c, 7, 11, 60
9, 626923, Note_on_c, 7, 71, 75
9, 626949, Control_c, 7, 11, 61
9, 626999, Control_c, 7, 11, 62
9, 627049, Control_c, 7, 11, 63
9, 627109, Control_c, 7, 11, 64
9, 627159, Control_c, 7, 11, 65
9, 627209, Control_c, 7, 11, 66
9, 627259, Control_c, 7, 11, 67
9, 627309, Control_c, 7, 11, 68
9, 627369, Control_c, 7, 11, 69
9, 627419, Control_c, 7, 11, 70
9, 627469, Control_c, 7, 11, 71
9, 627519, Control_c, 7, 11, 72
9, 627569, Control_c, 7, 11, 73
9, 627629, Control_c, 7, 11, 74
9, 627679, Control_c, 7, 11, 75
9, 627729, Control_c, 7, 11, 76
9, 627779, Control_c, 7, 11, 77
9, 627829, Control_c, 7, 11, 78
9, 627889, Control_c, 7, 11, 79
9, 627939, Control_c, 7, 11, 80
9, 627989, Control_c, 7, 11, 81
9, 628039, Control_c, 7, 11, 82
9, 628089, Control_c, 7, 11, 83
9, 628149, Control_c, 7, 11, 84
9, 628199, Control_c, 7, 11, 85
9, 628249, Control_c, 7, 11, 86
9, 628299, Control_c, 7, 11, 87
9, 628349, Control_c, 7, 11, 88
9, 628409, Control_c, 7, 11, 89
9, 628459, Control_c, 7, 11, 90
9, 628509, Control_c, 7, 11, 91
9, 628559, Control_c, 7, 11, 92
9, 628609, Control_c, 7, 11, 93
9, 628669, Control_c, 7, 11, 94
9, 628719, Control_c, 7, 11, 95
9, 628769, Control_c, 7, 11, 96
9, 628819, Control_c, 7, 11, 97
9, 628869, Control_c, 7, 11, 98
9, 628929, Control_c, 7, 11, 99
9, 628979, Control_c, 7, 11, 100
9, 628999, Note_on_c, 7, 64, 93
9, 629004, Note_on_c, 7, 67, 77
9, 629028, Note_on_c, 7, 59, 0
9, 629031, Note_on_c, 7, 71, 0
9, 629134, Note_on_c, 7, 67, 0
9, 629135, Note_on_c, 7, 64, 0
9, 629293, Note_on_c, 7, 67, 80
9, 629294, Note_on_c, 7, 64, 96
9, 629411, Note_on_c, 7, 64, 0
9, 629423, Note_on_c, 7, 67, 0
9, 629928, Note_on_c, 7, 67, 80
9, 630707, Note_on_c, 7, 64, 86
9, 630807, Note_on_c, 7, 64, 0
9, 630820, Note_on_c, 7, 67, 0
9, 630994, Note_on_c, 7, 64, 91
9, 630997, Note_on_c, 7, 67, 85
9, 631078, Note_on_c, 7, 64, 0
9, 631098, Note_on_c, 7, 67, 0
9, 631558, Note_on_c, 7, 67, 84
9, 632380, Note_on_c, 7, 67, 0
9, 632405, Note_on_c, 7, 64, 97
9, 632413, Note_on_c, 7, 67, 70
9, 632593, Note_on_c, 7, 64, 0
9, 632602, Note_on_c, 7, 67, 0
9, 637920, Control_c, 7, 11, 80
9, 637979, Note_on_c, 7, 64, 13
9, 638365, Note_on_c, 7, 59, 18
9, 638637, Note_on_c, 7, 64, 0
9, 639284, Note_on_c, 7, 47, 27
9, 640377, Note_on_c, 7, 59, 0
9, 640429, Note_on_c, 7, 52, 10
9, 640500, Note_on_c, 7, 47, 0
9, 640813, Note_on_c, 7, 52, 0
9, 645889, Note_on_c, 7, 59, 79
9, 645891, Note_on_c, 7, 52, 88
9, 646229, Note_on_c, 7, 59, 0
9, 646229, Note_on_c, 7, 52, 0
9, 647008, Note_on_c, 7, 52, 91
9, 647014, Note_on_c, 7, 64, 94
9, 647215, Note_on_c, 7, 52, 0
9, 647230, Note_on_c, 7, 64, 0
9, 647255, Note_on_c, 7, 64, 94
9, 647256, Note_on_c, 7, 52, 97
9, 649301, Note_on_c, 7, 52, 0
9, 649302, Note_on_c, 7, 64, 0
9, 649440, End_track
10, 0, Start_track
10, 0, Title_t, "Tromba (C)                          "
10, 0, Control_c, 8, 121, 0
10, 80, Control_c, 8, 101, 0
10, 100, Control_c, 8, 100, 0
10, 120, Control_c, 8, 6, 12
10, 140, Control_c, 8, 10, 84
10, 160, Control_c, 8, 7, 100
10, 180, Control_c, 8, 0, 0
10, 200, Control_c, 8, 32, 0
10, 220, Program_c, 8, 56
10, 240, Control_c, 8, 91, 90
10, 260, Control_c, 8, 93, 32
10, 280, Control_c, 8, 1, 12
10, 300, Control_c, 8, 11, 100
10, 320, Pitch_bend_c, 8, 8192
10, 340, Control_c, 8, 99, 1
10, 360, Control_c, 8, 98, 32
10, 380, Control_c, 8, 6, 64
10, 400, Control_c, 8, 98, 33
10, 420, Control_c, 8, 6, 70
10, 440, Control_c, 8, 98, 100
10, 460, Control_c, 8, 6, 64
10, 480, Control_c, 8, 98, 102
10, 500, Control_c, 8, 6, 65
10, 520, Control_c, 8, 98, 99
10, 705, Control_c, 8, 6, 65
10, 3472, Note_on_c, 8, 76, 66
10, 3476, Note_on_c, 8, 64, 47
10, 3797, Note_on_c, 8, 64, 0
10, 3806, Note_on_c, 8, 76, 0
10, 10224, Note_on_c, 8, 64, 85
10, 10385, Note_on_c, 8, 64, 0
10, 10511, Note_on_c, 8, 60, 90
10, 10514, Note_on_c, 8, 72, 93
10, 10801, Note_on_c, 8, 60, 0
10, 11050, Note_on_c, 8, 72, 0
10, 11079, Note_on_c, 8, 60, 65
10, 11080, Note_on_c, 8, 72, 90
10, 11206, Note_on_c, 8, 60, 0
10, 11213, Note_on_c, 8, 72, 0
10, 11359, Note_on_c, 8, 72, 92
10, 11360, Note_on_c, 8, 60, 85
10, 11469, Note_on_c, 8, 60, 0
10, 11480, Note_on_c, 8, 72, 0
10, 12191, Note_on_c, 8, 76, 91
10, 12194, Note_on_c, 8, 64, 71
10, 12378, Note_on_c, 8, 76, 0
10, 12383, Note_on_c, 8, 64, 0
10, 15717, Note_on_c, 8, 76, 68
10, 15719, Note_on_c, 8, 64, 57
10, 15947, Note_on_c, 8, 76, 0
10, 15949, Note_on_c, 8, 64, 0
10, 20942, Note_on_c, 8, 72, 86
10, 20943, Note_on_c, 8, 60, 85
10, 21046, Note_on_c, 8, 60, 0
10, 21060, Note_on_c, 8, 72, 0
10, 21375, Note_on_c, 8, 72, 63
10, 21386, Note_on_c, 8, 60, 54
10, 21601, Note_on_c, 8, 60, 0
10, 22003, Note_on_c, 8, 72, 0
10, 36277, Note_on_c, 8, 76, 89
10, 36280, Note_on_c, 8, 64, 83
10, 36848, Note_on_c, 8, 64, 0
10, 36850, Note_on_c, 8, 76, 0
10, 37088, Note_on_c, 8, 76, 98
10, 37088, Note_on_c, 8, 64, 97
10, 37600, Note_on_c, 8, 64, 0
10, 37603, Note_on_c, 8, 76, 0
10, 39461, Note_on_c, 8, 76, 72
10, 39463, Note_on_c, 8, 64, 80
10, 39711, Note_on_c, 8, 64, 0
10, 39713, Note_on_c, 8, 76, 0
10, 40238, Note_on_c, 8, 76, 87
10, 40243, Note_on_c, 8, 64, 83
10, 40520, Note_on_c, 8, 64, 0
10, 40521, Note_on_c, 8, 76, 0
10, 84480, Note_on_c, 8, 76, 89
10, 84483, Note_on_c, 8, 64, 84
10, 84934, Note_on_c, 8, 64, 0
10, 84939, Note_on_c, 8, 76, 0
10, 91358, Note_on_c, 8, 72, 109
10, 91363, Note_on_c, 8, 60, 116
10, 91441, Note_on_c, 8, 60, 0
10, 92142, Note_on_c, 8, 67, 112
10, 92180, Note_on_c, 8, 72, 0
10, 92297, Note_on_c, 8, 67, 0
10, 92407, Note_on_c, 8, 79, 116
10, 92408, Note_on_c, 8, 67, 103
10, 92526, Note_on_c, 8, 67, 0
10, 92528, Note_on_c, 8, 79, 0
10, 92669, Note_on_c, 8, 74, 109
10, 92672, Note_on_c, 8, 67, 106
10, 92796, Note_on_c, 8, 74, 0
10, 92797, Note_on_c, 8, 67, 0
10, 92945, Note_on_c, 8, 72, 113
10, 92945, Note_on_c, 8, 76, 121
10, 93655, Note_on_c, 8, 76, 0
10, 93658, Note_on_c, 8, 72, 0
10, 93748, Note_on_c, 8, 67, 114
10, 93751, Note_on_c, 8, 79, 118
10, 94027, Note_on_c, 8, 67, 0
10, 94158, Note_on_c, 8, 79, 0
10, 94163, Note_on_c, 8, 67, 112
10, 94196, Note_on_c, 8, 67, 0
10, 94221, Note_on_c, 8, 67, 117
10, 94261, Note_on_c, 8, 67, 0
10, 94278, Note_on_c, 8, 67, 108
10, 94293, Note_on_c, 8, 74, 121
10, 94316, Note_on_c, 8, 67, 0
10, 94333, Note_on_c, 8, 74, 0
10, 94423, Note_on_c, 8, 74, 118
10, 94427, Note_on_c, 8, 67, 121
10, 94465, Note_on_c, 8, 74, 0
10, 94469, Note_on_c, 8, 67, 0
10, 94565, Note_on_c, 8, 76, 125
10, 94565, Note_on_c, 8, 72, 121
10, 94694, Note_on_c, 8, 72, 0
10, 94714, Note_on_c, 8, 76, 0
10, 102009, Note_on_c, 8, 60, 126
10, 102014, Note_on_c, 8, 72, 122
10, 102241, Note_on_c, 8, 60, 0
10, 102792, Note_on_c, 8, 72, 0
10, 102838, Note_on_c, 8, 67, 121
10, 103001, Note_on_c, 8, 67, 0
10, 103099, Note_on_c, 8, 79, 121
10, 103101, Note_on_c, 8, 67, 113
10, 103236, Note_on_c, 8, 67, 0
10, 103263, Note_on_c, 8, 79, 0
10, 103368, Note_on_c, 8, 67, 111
10, 103373, Note_on_c, 8, 74, 122
10, 103510, Note_on_c, 8, 74, 0
10, 103512, Note_on_c, 8, 67, 0
10, 103671, Note_on_c, 8, 72, 120
10, 103671, Note_on_c, 8, 76, 121
10, 104451, Note_on_c, 8, 72, 0
10, 104485, Note_on_c, 8, 76, 0
10, 104538, Note_on_c, 8, 67, 118
10, 104543, Note_on_c, 8, 79, 121
10, 104844, Note_on_c, 8, 67, 0
10, 104971, Note_on_c, 8, 67, 118
10, 104973, Note_on_c, 8, 79, 0
10, 105008, Note_on_c, 8, 67, 0
10, 105030, Note_on_c, 8, 67, 113
10, 105079, Note_on_c, 8, 67, 0
10, 105095, Note_on_c, 8, 67, 113
10, 105108, Note_on_c, 8, 74, 118
10, 105135, Note_on_c, 8, 67, 0
10, 105146, Note_on_c, 8, 74, 0
10, 105233, Note_on_c, 8, 74, 121
10, 105240, Note_on_c, 8, 67, 120
10, 105271, Note_on_c, 8, 74, 0
10, 105278, Note_on_c, 8, 67, 0
10, 105386, Note_on_c, 8, 72, 124
10, 105388, Note_on_c, 8, 76, 127
10, 105536, Note_on_c, 8, 72, 0
10, 105547, Note_on_c, 8, 76, 0
10, 316751, Note_on_c, 8, 67, 113
10, 316752, Note_on_c, 8, 79, 108
10, 316801, Note_on_c, 8, 67, 0
10, 316813, Note_on_c, 8, 79, 0
10, 316998, Note_on_c, 8, 67, 118
10, 316999, Note_on_c, 8, 79, 114
10, 317058, Note_on_c, 8, 67, 0
10, 317074, Note_on_c, 8, 79, 0
10, 321569, Note_on_c, 8, 60, 98
10, 321569, Note_on_c, 8, 72, 89
10, 321841, Note_on_c, 8, 60, 0
10, 322309, Note_on_c, 8, 72, 0
10, 323234, Note_on_c, 8, 72, 94
10, 323235, Note_on_c, 8, 60, 101
10, 323281, Note_on_c, 8, 60, 0
10, 323722, Note_on_c, 8, 72, 0
10, 333378, Note_on_c, 8, 76, 104
10, 333379, Note_on_c, 8, 64, 101
10, 333860, Note_on_c, 8, 64, 0
10, 333861, Note_on_c, 8, 76, 0
10, 334506, Note_on_c, 8, 76, 107
10, 334515, Note_on_c, 8, 64, 116
10, 334582, Note_on_c, 8, 64, 0
10, 334591, Note_on_c, 8, 76, 0
10, 334753, Note_on_c, 8, 64, 116
10, 334754, Note_on_c, 8, 76, 113
10, 335003, Note_on_c, 8, 76, 0
10, 335004, Note_on_c, 8, 64, 0
10, 336224, Note_on_c, 8, 64, 113
10, 336224, Note_on_c, 8, 76, 111
10, 336360, Note_on_c, 8, 76, 0
10, 336362, Note_on_c, 8, 64, 0
10, 454192, Note_on_c, 8, 76, 66
10, 454196, Note_on_c, 8, 64, 47
10, 454517, Note_on_c, 8, 64, 0
10, 454526, Note_on_c, 8, 76, 0
10, 460944, Note_on_c, 8, 64, 85
10, 461105, Note_on_c, 8, 64, 0
10, 461231, Note_on_c, 8, 60, 90
10, 461234, Note_on_c, 8, 72, 93
10, 461521, Note_on_c, 8, 60, 0
10, 461770, Note_on_c, 8, 72, 0
10, 461799, Note_on_c, 8, 60, 65
10, 461800, Note_on_c, 8, 72, 90
10, 461926, Note_on_c, 8, 60, 0
10, 461933, Note_on_c, 8, 72, 0
10, 462079, Note_on_c, 8, 72, 92
10, 462080, Note_on_c, 8, 60, 85
10, 462189, Note_on_c, 8, 60, 0
10, 462200, Note_on_c, 8, 72, 0
10, 462911, Note_on_c, 8, 76, 91
10, 462914, Note_on_c, 8, 64, 71
10, 463098, Note_on_c, 8, 76, 0
10, 463103, Note_on_c, 8, 64, 0
10, 466437, Note_on_c, 8, 76, 68
10, 466439, Note_on_c, 8, 64, 57
10, 466667, Note_on_c, 8, 76, 0
10, 466669, Note_on_c, 8, 64, 0
10, 471662, Note_on_c, 8, 72, 86
10, 471663, Note_on_c, 8, 60, 85
10, 471766, Note_on_c, 8, 60, 0
10, 471780, Note_on_c, 8, 72, 0
10, 472095, Note_on_c, 8, 72, 63
10, 472106, Note_on_c, 8, 60, 54
10, 472321, Note_on_c, 8, 60, 0
10, 472723, Note_on_c, 8, 72, 0
10, 629049, Note_on_c, 8, 60, 126
10, 629054, Note_on_c, 8, 72, 122
10, 629281, Note_on_c, 8, 60, 0
10, 629832, Note_on_c, 8, 72, 0
10, 629878, Note_on_c, 8, 67, 121
10, 630041, Note_on_c, 8, 67, 0
10, 630139, Note_on_c, 8, 79, 121
10, 630141, Note_on_c, 8, 67, 113
10, 630276, Note_on_c, 8, 67, 0
10, 630303, Note_on_c, 8, 79, 0
10, 630408, Note_on_c, 8, 67, 111
10, 630413, Note_on_c, 8, 74, 122
10, 630550, Note_on_c, 8, 74, 0
10, 630552, Note_on_c, 8, 67, 0
10, 630711, Note_on_c, 8, 72, 120
10, 630711, Note_on_c, 8, 76, 121
10, 631491, Note_on_c, 8, 72, 0
10, 631525, Note_on_c, 8, 76, 0
10, 631578, Note_on_c, 8, 67, 118
10, 631583, Note_on_c, 8, 79, 121
10, 631884, Note_on_c, 8, 67, 0
10, 632011, Note_on_c, 8, 67, 118
10, 632013, Note_on_c, 8, 79, 0
10, 632048, Note_on_c, 8, 67, 0
10, 632070, Note_on_c, 8, 67, 113
10, 632119, Note_on_c, 8, 67, 0
10, 632135, Note_on_c, 8, 67, 113
10, 632175, Note_on_c, 8, 67, 0
10, 632280, Note_on_c, 8, 67, 120
10, 632318, Note_on_c, 8, 67, 0
10, 632426, Note_on_c, 8, 72, 124
10, 632428, Note_on_c, 8, 76, 127
10, 632576, Note_on_c, 8, 72, 0
10, 632587, Note_on_c, 8, 76, 0
10, 645921, Note_on_c, 8, 64, 101
10, 645926, Note_on_c, 8, 76, 103
10, 646237, Note_on_c, 8, 64, 0
10, 646242, Note_on_c, 8, 76, 0
10, 647052, Note_on_c, 8, 64, 101
10, 647229, Note_on_c, 8, 64, 0
10, 647261, Note_on_c, 8, 64, 112
10, 649043, Note_on_c, 8, 64, 0
10, 649440, End_track
11, 0, Start_track
11, 0, Title_t, "Corni (C)                           "
11, 0, Control_c, 10, 121, 0
11, 80, Control_c, 10, 101, 0
11, 100, Control_c, 10, 100, 0
11, 120, Control_c, 10, 6, 12
11, 140, Control_c, 10, 10, 48
11, 160, Control_c, 10, 7, 100
11, 180, Control_c, 10, 0, 0
11, 200, Control_c, 10, 32, 0
11, 220, Program_c, 10, 60
11, 240, Control_c, 10, 91, 100
11, 260, Control_c, 10, 93, 32
11, 280, Control_c, 10, 1, 12
11, 300, Control_c, 10, 11, 100
11, 320, Pitch_bend_c, 10, 8192
11, 340, Control_c, 10, 99, 1
11, 360, Control_c, 10, 98, 32
11, 380, Control_c, 10, 6, 64
11, 400, Control_c, 10, 98, 33
11, 420, Control_c, 10, 6, 64
11, 440, Control_c, 10, 98, 100
11, 460, Control_c, 10, 6, 64
11, 480, Control_c, 10, 98, 102
11, 500, Control_c, 10, 6, 65
11, 520, Control_c, 10, 98, 99
11, 705, Control_c, 10, 6, 66
11, 6096, Note_on_c, 10, 64, 76
11, 6390, Note_on_c, 10, 65, 69
11, 6411, Note_on_c, 10, 64, 0
11, 6703, Note_on_c, 10, 64, 51
11, 6724, Note_on_c, 10, 65, 0
11, 6981, Note_on_c, 10, 64, 0
11, 8450, Note_on_c, 10, 64, 90
11, 8454, Note_on_c, 10, 52, 100
11, 8517, Note_on_c, 10, 52, 0
11, 8518, Note_on_c, 10, 64, 0
11, 8757, Note_on_c, 10, 64, 83
11, 8760, Note_on_c, 10, 52, 76
11, 8958, Note_on_c, 10, 64, 0
11, 8968, Note_on_c, 10, 52, 0
11, 10227, Note_on_c, 10, 58, 55
11, 10533, Note_on_c, 10, 58, 0
11, 10536, Note_on_c, 10, 57, 45
11, 10540, Note_on_c, 10, 64, 61
11, 10790, Note_on_c, 10, 63, 73
11, 10816, Note_on_c, 10, 64, 0
11, 10977, Note_on_c, 10, 57, 0
11, 11003, Note_on_c, 10, 63, 0
11, 12190, Note_on_c, 10, 58, 53
11, 12194, Note_on_c, 10, 67, 81
11, 12439, Note_on_c, 10, 67, 0
11, 12444, Note_on_c, 10, 58, 0
11, 15735, Note_on_c, 10, 58, 48
11, 15744, Note_on_c, 10, 67, 62
11, 15896, Note_on_c, 10, 58, 0
11, 15902, Note_on_c, 10, 67, 0
11, 20947, Note_on_c, 10, 64, 59
11, 20952, Note_on_c, 10, 55, 56
11, 21066, Note_on_c, 10, 55, 0
11, 21068, Note_on_c, 10, 64, 0
11, 21365, Note_on_c, 10, 64, 43
11, 21372, Note_on_c, 10, 52, 25
11, 21997, Note_on_c, 10, 64, 0
11, 22001, Note_on_c, 10, 52, 0
11, 34446, Control_c, 10, 11, 60
11, 34446, Note_on_c, 10, 48, 38
11, 34493, Control_c, 10, 11, 61
11, 34539, Control_c, 10, 11, 62
11, 34586, Control_c, 10, 11, 63
11, 34632, Control_c, 10, 11, 64
11, 34679, Control_c, 10, 11, 65
11, 34725, Control_c, 10, 11, 66
11, 34772, Control_c, 10, 11, 67
11, 34818, Control_c, 10, 11, 68
11, 34865, Control_c, 10, 11, 69
11, 34911, Control_c, 10, 11, 70
11, 34957, Control_c, 10, 11, 71
11, 35004, Control_c, 10, 11, 72
11, 35050, Control_c, 10, 11, 73
11, 35097, Control_c, 10, 11, 74
11, 35143, Control_c, 10, 11, 75
11, 35190, Control_c, 10, 11, 76
11, 35221, Note_on_c, 10, 48, 0
11, 35236, Control_c, 10, 11, 77
11, 35242, Note_on_c, 10, 52, 46
11, 35283, Control_c, 10, 11, 78
11, 35329, Control_c, 10, 11, 79
11, 35375, Control_c, 10, 11, 80
11, 35422, Control_c, 10, 11, 81
11, 35468, Control_c, 10, 11, 82
11, 35515, Control_c, 10, 11, 83
11, 35561, Control_c, 10, 11, 84
11, 35608, Control_c, 10, 11, 85
11, 35654, Control_c, 10, 11, 86
11, 35701, Control_c, 10, 11, 87
11, 35747, Control_c, 10, 11, 88
11, 35794, Control_c, 10, 11, 89
11, 35840, Control_c, 10, 11, 90
11, 35886, Control_c, 10, 11, 91
11, 35933, Control_c, 10, 11, 92
11, 35979, Control_c, 10, 11, 93
11, 36015, Note_on_c, 10, 64, 53
11, 36026, Control_c, 10, 11, 94
11, 36072, Control_c, 10, 11, 95
11, 36119, Control_c, 10, 11, 96
11, 36165, Control_c, 10, 11, 97
11, 36212, Control_c, 10, 11, 98
11, 36256, Note_on_c, 10, 52, 0
11, 36258, Control_c, 10, 11, 99
11, 36275, Note_on_c, 10, 64, 0
11, 36304, Control_c, 10, 11, 100
11, 36305, Note_on_c, 10, 62, 78
11, 36309, Note_on_c, 10, 52, 68
11, 36590, Note_on_c, 10, 60, 87
11, 36595, Note_on_c, 10, 62, 0
11, 36704, Note_on_c, 10, 60, 0
11, 36708, Note_on_c, 10, 62, 73
11, 36856, Note_on_c, 10, 60, 88
11, 36879, Note_on_c, 10, 62, 0
11, 36922, Note_on_c, 10, 60, 0
11, 36935, Note_on_c, 10, 52, 0
11, 37099, Note_on_c, 10, 62, 79
11, 37107, Note_on_c, 10, 52, 60
11, 37381, Note_on_c, 10, 60, 60
11, 37386, Note_on_c, 10, 62, 0
11, 37441, Note_on_c, 10, 60, 0
11, 37495, Note_on_c, 10, 62, 59
11, 37597, Note_on_c, 10, 52, 0
11, 37626, Note_on_c, 10, 60, 65
11, 37630, Note_on_c, 10, 62, 0
11, 37744, Note_on_c, 10, 60, 0
11, 39460, Note_on_c, 10, 64, 89
11, 39464, Note_on_c, 10, 52, 79
11, 39706, Note_on_c, 10, 52, 0
11, 39708, Note_on_c, 10, 64, 0
11, 40248, Note_on_c, 10, 64, 98
11, 40254, Note_on_c, 10, 52, 85
11, 40517, Note_on_c, 10, 64, 0
11, 40522, Note_on_c, 10, 52, 0
11, 41607, Note_on_c, 10, 64, 91
11, 41613, Note_on_c, 10, 52, 92
11, 41677, Note_on_c, 10, 52, 0
11, 41687, Note_on_c, 10, 64, 0
11, 41867, Note_on_c, 10, 64, 98
11, 41874, Note_on_c, 10, 52, 99
11, 41946, Note_on_c, 10, 52, 0
11, 41966, Note_on_c, 10, 64, 0
11, 43179, Note_on_c, 10, 64, 88
11, 43180, Note_on_c, 10, 52, 94
11, 43243, Note_on_c, 10, 52, 0
11, 43257, Note_on_c, 10, 64, 0
11, 43438, Note_on_c, 10, 64, 86
11, 43447, Note_on_c, 10, 52, 89
11, 43511, Note_on_c, 10, 52, 0
11, 43527, Note_on_c, 10, 64, 0
11, 84470, Note_on_c, 10, 67, 74
11, 84472, Note_on_c, 10, 76, 73
11, 84473, Note_on_c, 10, 64, 67
11, 84476, Note_on_c, 10, 55, 80
11, 84930, Note_on_c, 10, 55, 0
11, 84943, Note_on_c, 10, 67, 0
11, 85075, Note_on_c, 10, 64, 0
11, 85087, Note_on_c, 10, 76, 0
11, 91343, Note_on_c, 10, 55, 81
11, 91344, Note_on_c, 10, 67, 82
11, 92301, Note_on_c, 10, 55, 0
11, 92378, Note_on_c, 10, 55, 85
11, 92494, Note_on_c, 10, 55, 0
11, 92664, Note_on_c, 10, 55, 90
11, 92794, Note_on_c, 10, 55, 0
11, 92829, Note_on_c, 10, 67, 0
11, 92953, Note_on_c, 10, 55, 86
11, 92961, Note_on_c, 10, 67, 63
11, 93851, Note_on_c, 10, 55, 0
11, 94025, Note_on_c, 10, 55, 78
11, 94140, Note_on_c, 10, 55, 0
11, 94284, Note_on_c, 10, 62, 88
11, 94364, Note_on_c, 10, 62, 0
11, 94382, Note_on_c, 10, 67, 0
11, 94593, Control_c, 10, 11, 100
11, 94593, Note_on_c, 10, 67, 62
11, 94599, Note_on_c, 10, 64, 53
11, 94599, Control_c, 10, 11, 98
11, 94605, Control_c, 10, 11, 97
11, 94617, Control_c, 10, 11, 96
11, 94623, Control_c, 10, 11, 95
11, 94629, Control_c, 10, 11, 94
11, 94641, Control_c, 10, 11, 93
11, 94647, Control_c, 10, 11, 92
11, 94659, Control_c, 10, 11, 91
11, 94671, Control_c, 10, 11, 90
11, 94683, Control_c, 10, 11, 89
11, 94695, Control_c, 10, 11, 88
11, 94707, Control_c, 10, 11, 87
11, 94725, Control_c, 10, 11, 86
11, 94743, Control_c, 10, 11, 85
11, 94767, Control_c, 10, 11, 84
11, 94791, Control_c, 10, 11, 83
11, 94869, Control_c, 10, 11, 82
11, 94941, Control_c, 10, 11, 81
11, 95013, Control_c, 10, 11, 80
11, 95085, Control_c, 10, 11, 79
11, 95163, Control_c, 10, 11, 78
11, 95235, Control_c, 10, 11, 77
11, 95307, Control_c, 10, 11, 76
11, 95379, Control_c, 10, 11, 75
11, 95457, Control_c, 10, 11, 74
11, 95529, Control_c, 10, 11, 73
11, 95601, Control_c, 10, 11, 72
11, 95673, Control_c, 10, 11, 71
11, 95751, Control_c, 10, 11, 70
11, 95823, Control_c, 10, 11, 69
11, 95895, Control_c, 10, 11, 68
11, 95967, Control_c, 10, 11, 67
11, 96039, Control_c, 10, 11, 66
11, 96117, Control_c, 10, 11, 65
11, 96189, Control_c, 10, 11, 64
11, 96261, Control_c, 10, 11, 63
11, 96333, Control_c, 10, 11, 62
11, 96411, Control_c, 10, 11, 61
11, 96480, Control_c, 10, 11, 60
11, 96637, Note_on_c, 10, 67, 0
11, 96654, Note_on_c, 10, 60, 30
11, 96946, Note_on_c, 10, 64, 0
11, 96949, Note_on_c, 10, 60, 0
11, 97569, Control_c, 10, 11, 80
11, 97569, Note_on_c, 10, 67, 43
11, 97575, Control_c, 10, 11, 79
11, 97579, Note_on_c, 10, 64, 33
11, 97581, Control_c, 10, 11, 78
11, 97587, Control_c, 10, 11, 77
11, 97593, Control_c, 10, 11, 76
11, 97605, Control_c, 10, 11, 75
11, 97617, Control_c, 10, 11, 74
11, 97623, Control_c, 10, 11, 73
11, 97635, Control_c, 10, 11, 72
11, 97647, Control_c, 10, 11, 71
11, 97659, Control_c, 10, 11, 70
11, 97677, Control_c, 10, 11, 69
11, 97689, Control_c, 10, 11, 68
11, 97707, Control_c, 10, 11, 67
11, 97725, Control_c, 10, 11, 66
11, 97749, Control_c, 10, 11, 65
11, 97779, Control_c, 10, 11, 64
11, 97809, Control_c, 10, 11, 63
11, 97851, Control_c, 10, 11, 62
11, 97911, Control_c, 10, 11, 61
11, 98019, Control_c, 10, 11, 60
11, 98725, Note_on_c, 10, 64, 0
11, 98734, Note_on_c, 10, 67, 0
11, 101760, Control_c, 10, 11, 100
11, 101989, Note_on_c, 10, 67, 84
11, 101993, Note_on_c, 10, 55, 97
11, 103001, Note_on_c, 10, 55, 0
11, 103126, Note_on_c, 10, 55, 107
11, 103211, Note_on_c, 10, 55, 0
11, 103378, Note_on_c, 10, 55, 108
11, 103471, Note_on_c, 10, 55, 0
11, 103521, Note_on_c, 10, 67, 0
11, 103645, Note_on_c, 10, 55, 111
11, 103648, Note_on_c, 10, 67, 87
11, 104669, Note_on_c, 10, 55, 0
11, 104812, Note_on_c, 10, 55, 107
11, 104922, Note_on_c, 10, 55, 0
11, 105059, Note_on_c, 10, 62, 113
11, 105087, Note_on_c, 10, 67, 0
11, 105167, Note_on_c, 10, 62, 0
11, 105412, Control_c, 10, 11, 100
11, 105412, Note_on_c, 10, 67, 35
11, 105418, Control_c, 10, 11, 98
11, 105423, Note_on_c, 10, 64, 31
11, 105424, Control_c, 10, 11, 96
11, 105430, Control_c, 10, 11, 95
11, 105436, Control_c, 10, 11, 94
11, 105442, Control_c, 10, 11, 93
11, 105448, Control_c, 10, 11, 92
11, 105454, Control_c, 10, 11, 91
11, 105460, Control_c, 10, 11, 90
11, 105466, Control_c, 10, 11, 89
11, 105478, Control_c, 10, 11, 88
11, 105484, Control_c, 10, 11, 87
11, 105496, Control_c, 10, 11, 86
11, 105508, Control_c, 10, 11, 85
11, 105520, Control_c, 10, 11, 84
11, 105538, Control_c, 10, 11, 83
11, 105556, Control_c, 10, 11, 82
11, 105592, Control_c, 10, 11, 81
11, 105646, Control_c, 10, 11, 80
11, 105840, Control_c, 10, 11, 80
11, 105912, Control_c, 10, 11, 79
11, 105984, Control_c, 10, 11, 78
11, 106056, Control_c, 10, 11, 77
11, 106128, Control_c, 10, 11, 76
11, 106200, Control_c, 10, 11, 75
11, 106272, Control_c, 10, 11, 74
11, 106344, Control_c, 10, 11, 73
11, 106416, Control_c, 10, 11, 72
11, 106488, Control_c, 10, 11, 71
11, 106560, Control_c, 10, 11, 70
11, 106632, Control_c, 10, 11, 69
11, 106704, Control_c, 10, 11, 68
11, 106776, Control_c, 10, 11, 67
11, 106848, Control_c, 10, 11, 66
11, 106920, Control_c, 10, 11, 65
11, 106992, Control_c, 10, 11, 64
11, 107064, Control_c, 10, 11, 63
11, 107136, Control_c, 10, 11, 62
11, 107208, Control_c, 10, 11, 61
11, 107280, Control_c, 10, 11, 60
11, 107477, Note_on_c, 10, 64, 0
11, 107600, Note_on_c, 10, 64, 34
11, 107615, Note_on_c, 10, 60, 32
11, 107710, Note_on_c, 10, 67, 0
11, 107888, Note_on_c, 10, 60, 0
11, 107939, Note_on_c, 10, 64, 0
11, 108592, Control_c, 10, 11, 81
11, 108592, Note_on_c, 10, 67, 28
11, 108598, Control_c, 10, 11, 79
11, 108604, Control_c, 10, 11, 78
11, 108610, Control_c, 10, 11, 77
11, 108615, Note_on_c, 10, 64, 21
11, 108616, Control_c, 10, 11, 76
11, 108622, Control_c, 10, 11, 75
11, 108628, Control_c, 10, 11, 74
11, 108640, Control_c, 10, 11, 73
11, 108646, Control_c, 10, 11, 72
11, 108652, Control_c, 10, 11, 71
11, 108664, Control_c, 10, 11, 70
11, 108676, Control_c, 10, 11, 69
11, 108688, Control_c, 10, 11, 68
11, 108700, Control_c, 10, 11, 67
11, 108712, Control_c, 10, 11, 66
11, 108730, Control_c, 10, 11, 65
11, 108754, Control_c, 10, 11, 64
11, 108778, Control_c, 10, 11, 63
11, 108808, Control_c, 10, 11, 62
11, 108850, Control_c, 10, 11, 61
11, 108922, Control_c, 10, 11, 60
11, 109571, Note_on_c, 10, 64, 0
11, 109577, Note_on_c, 10, 67, 0
11, 193680, Control_c, 10, 11, 100
11, 197728, Control_c, 10, 11, 100
11, 197728, Note_on_c, 10, 67, 91
11, 197729, Note_on_c, 10, 64, 87
11, 197743, Control_c, 10, 11, 99
11, 197758, Control_c, 10, 11, 98
11, 197768, Control_c, 10, 11, 97
11, 197783, Control_c, 10, 11, 96
11, 197793, Control_c, 10, 11, 95
11, 197808, Control_c, 10, 11, 94
11, 197818, Control_c, 10, 11, 93
11, 197833, Control_c, 10, 11, 92
11, 197843, Control_c, 10, 11, 91
11, 197858, Control_c, 10, 11, 90
11, 197873, Control_c, 10, 11, 89
11, 197883, Control_c, 10, 11, 88
11, 197898, Control_c, 10, 11, 87
11, 197908, Control_c, 10, 11, 86
11, 197923, Control_c, 10, 11, 85
11, 197933, Control_c, 10, 11, 84
11, 197948, Control_c, 10, 11, 83
11, 197958, Control_c, 10, 11, 82
11, 197973, Control_c, 10, 11, 81
11, 197988, Control_c, 10, 11, 80
11, 197998, Control_c, 10, 11, 79
11, 198013, Control_c, 10, 11, 78
11, 198023, Control_c, 10, 11, 77
11, 198038, Control_c, 10, 11, 76
11, 198048, Control_c, 10, 11, 75
11, 198063, Control_c, 10, 11, 74
11, 198073, Control_c, 10, 11, 73
11, 198088, Control_c, 10, 11, 72
11, 198103, Control_c, 10, 11, 71
11, 198113, Control_c, 10, 11, 70
11, 198128, Control_c, 10, 11, 69
11, 198138, Control_c, 10, 11, 68
11, 198153, Control_c, 10, 11, 67
11, 198163, Control_c, 10, 11, 66
11, 198178, Control_c, 10, 11, 65
11, 198188, Control_c, 10, 11, 64
11, 198203, Control_c, 10, 11, 63
11, 198218, Control_c, 10, 11, 62
11, 198228, Control_c, 10, 11, 61
11, 198240, Control_c, 10, 11, 60
11, 198940, Note_on_c, 10, 64, 0
11, 198946, Note_on_c, 10, 67, 0
11, 198960, Control_c, 10, 11, 100
11, 199005, Note_on_c, 10, 67, 89
11, 199008, Note_on_c, 10, 64, 97
11, 199221, Note_on_c, 10, 64, 0
11, 199229, Note_on_c, 10, 67, 0
11, 199255, Control_c, 10, 11, 100
11, 199255, Note_on_c, 10, 67, 82
11, 199263, Note_on_c, 10, 64, 96
11, 199270, Control_c, 10, 11, 99
11, 199280, Control_c, 10, 11, 98
11, 199290, Control_c, 10, 11, 97
11, 199300, Control_c, 10, 11, 96
11, 199310, Control_c, 10, 11, 95
11, 199320, Control_c, 10, 11, 94
11, 199330, Control_c, 10, 11, 93
11, 199340, Control_c, 10, 11, 92
11, 199355, Control_c, 10, 11, 91
11, 199365, Control_c, 10, 11, 90
11, 199375, Control_c, 10, 11, 89
11, 199385, Control_c, 10, 11, 88
11, 199395, Control_c, 10, 11, 87
11, 199405, Control_c, 10, 11, 86
11, 199415, Control_c, 10, 11, 85
11, 199425, Control_c, 10, 11, 84
11, 199440, Control_c, 10, 11, 83
11, 199450, Control_c, 10, 11, 82
11, 199460, Control_c, 10, 11, 81
11, 199470, Control_c, 10, 11, 80
11, 199480, Control_c, 10, 11, 79
11, 199490, Control_c, 10, 11, 78
11, 199500, Control_c, 10, 11, 77
11, 199510, Control_c, 10, 11, 76
11, 199520, Control_c, 10, 11, 75
11, 199535, Control_c, 10, 11, 74
11, 199545, Control_c, 10, 11, 73
11, 199555, Control_c, 10, 11, 72
11, 199565, Control_c, 10, 11, 71
11, 199575, Control_c, 10, 11, 70
11, 199585, Control_c, 10, 11, 69
11, 199595, Control_c, 10, 11, 68
11, 199605, Control_c, 10, 11, 67
11, 199620, Control_c, 10, 11, 66
11, 199630, Control_c, 10, 11, 65
11, 199640, Control_c, 10, 11, 64
11, 199650, Control_c, 10, 11, 63
11, 199660, Control_c, 10, 11, 62
11, 199670, Control_c, 10, 11, 61
11, 199680, Control_c, 10, 11, 60
11, 200160, Control_c, 10, 11, 100
11, 200262, Note_on_c, 10, 64, 0
11, 200270, Note_on_c, 10, 67, 0
11, 200455, Note_on_c, 10, 67, 79
11, 200459, Note_on_c, 10, 64, 76
11, 200686, Note_on_c, 10, 64, 0
11, 200696, Note_on_c, 10, 67, 0
11, 200728, Control_c, 10, 11, 100
11, 200728, Note_on_c, 10, 67, 88
11, 200731, Note_on_c, 10, 64, 83
11, 200738, Control_c, 10, 11, 99
11, 200748, Control_c, 10, 11, 98
11, 200753, Control_c, 10, 11, 97
11, 200763, Control_c, 10, 11, 96
11, 200768, Control_c, 10, 11, 95
11, 200778, Control_c, 10, 11, 94
11, 200783, Control_c, 10, 11, 93
11, 200793, Control_c, 10, 11, 92
11, 200803, Control_c, 10, 11, 91
11, 200808, Control_c, 10, 11, 90
11, 200818, Control_c, 10, 11, 89
11, 200823, Control_c, 10, 11, 88
11, 200833, Control_c, 10, 11, 87
11, 200838, Control_c, 10, 11, 86
11, 200848, Control_c, 10, 11, 85
11, 200858, Control_c, 10, 11, 84
11, 200863, Control_c, 10, 11, 83
11, 200873, Control_c, 10, 11, 82
11, 200878, Control_c, 10, 11, 81
11, 200888, Control_c, 10, 11, 80
11, 200893, Control_c, 10, 11, 79
11, 200903, Control_c, 10, 11, 78
11, 200908, Control_c, 10, 11, 77
11, 200918, Control_c, 10, 11, 76
11, 200928, Control_c, 10, 11, 75
11, 200933, Control_c, 10, 11, 74
11, 200943, Control_c, 10, 11, 73
11, 200948, Control_c, 10, 11, 72
11, 200958, Control_c, 10, 11, 71
11, 200963, Control_c, 10, 11, 70
11, 200973, Control_c, 10, 11, 69
11, 200983, Control_c, 10, 11, 68
11, 200988, Control_c, 10, 11, 67
11, 200998, Control_c, 10, 11, 66
11, 201003, Control_c, 10, 11, 65
11, 201013, Control_c, 10, 11, 64
11, 201018, Control_c, 10, 11, 63
11, 201028, Control_c, 10, 11, 62
11, 201033, Control_c, 10, 11, 61
11, 201043, Control_c, 10, 11, 60
11, 201053, Control_c, 10, 11, 59
11, 201058, Control_c, 10, 11, 58
11, 201068, Control_c, 10, 11, 57
11, 201073, Control_c, 10, 11, 56
11, 201083, Control_c, 10, 11, 55
11, 201088, Control_c, 10, 11, 54
11, 201098, Control_c, 10, 11, 53
11, 201108, Control_c, 10, 11, 52
11, 201113, Control_c, 10, 11, 51
11, 201120, Control_c, 10, 11, 50
11, 202606, Note_on_c, 10, 64, 0
11, 202618, Note_on_c, 10, 67, 0
11, 309600, Control_c, 10, 11, 100
11, 316743, Note_on_c, 10, 64, 89
11, 316746, Note_on_c, 10, 55, 84
11, 316794, Note_on_c, 10, 55, 0
11, 316798, Note_on_c, 10, 64, 0
11, 317000, Note_on_c, 10, 55, 79
11, 317005, Note_on_c, 10, 64, 82
11, 317054, Note_on_c, 10, 55, 0
11, 317057, Note_on_c, 10, 64, 0
11, 318223, Note_on_c, 10, 62, 97
11, 318274, Note_on_c, 10, 62, 0
11, 318458, Note_on_c, 10, 62, 91
11, 318519, Note_on_c, 10, 62, 0
11, 321578, Note_on_c, 10, 60, 71
11, 321590, Note_on_c, 10, 48, 67
11, 321841, Note_on_c, 10, 60, 0
11, 322319, Note_on_c, 10, 48, 0
11, 323246, Note_on_c, 10, 60, 80
11, 323259, Note_on_c, 10, 48, 84
11, 323281, Note_on_c, 10, 60, 0
11, 323713, Note_on_c, 10, 48, 0
11, 324170, Note_on_c, 10, 62, 84
11, 324879, Note_on_c, 10, 60, 74
11, 324890, Note_on_c, 10, 62, 0
11, 325441, Note_on_c, 10, 60, 0
11, 325845, Note_on_c, 10, 64, 77
11, 325854, Note_on_c, 10, 52, 62
11, 325990, Note_on_c, 10, 52, 0
11, 326014, Note_on_c, 10, 64, 0
11, 326074, Note_on_c, 10, 64, 45
11, 326080, Note_on_c, 10, 52, 43
11, 326194, Note_on_c, 10, 64, 0
11, 326197, Note_on_c, 10, 52, 0
11, 326294, Note_on_c, 10, 64, 50
11, 326298, Note_on_c, 10, 52, 42
11, 326327, Note_on_c, 10, 52, 0
11, 326335, Note_on_c, 10, 64, 0
11, 326373, Control_c, 10, 11, 100
11, 326373, Note_on_c, 10, 64, 50
11, 326377, Note_on_c, 10, 52, 44
11, 326386, Control_c, 10, 11, 99
11, 326399, Control_c, 10, 11, 98
11, 326411, Control_c, 10, 11, 97
11, 326424, Control_c, 10, 11, 96
11, 326437, Control_c, 10, 11, 95
11, 326449, Control_c, 10, 11, 94
11, 326462, Control_c, 10, 11, 93
11, 326475, Control_c, 10, 11, 92
11, 326487, Control_c, 10, 11, 91
11, 326500, Control_c, 10, 11, 90
11, 326513, Control_c, 10, 11, 89
11, 326525, Control_c, 10, 11, 88
11, 326538, Control_c, 10, 11, 87
11, 326551, Control_c, 10, 11, 86
11, 326563, Control_c, 10, 11, 85
11, 326576, Control_c, 10, 11, 84
11, 326589, Control_c, 10, 11, 83
11, 326601, Control_c, 10, 11, 82
11, 326614, Control_c, 10, 11, 81
11, 326626, Control_c, 10, 11, 80
11, 326639, Control_c, 10, 11, 79
11, 326652, Control_c, 10, 11, 78
11, 326664, Control_c, 10, 11, 77
11, 326677, Control_c, 10, 11, 76
11, 326690, Control_c, 10, 11, 75
11, 326702, Control_c, 10, 11, 74
11, 326715, Control_c, 10, 11, 73
11, 326728, Control_c, 10, 11, 72
11, 326740, Control_c, 10, 11, 71
11, 326753, Control_c, 10, 11, 70
11, 326766, Control_c, 10, 11, 69
11, 326778, Control_c, 10, 11, 68
11, 326791, Control_c, 10, 11, 67
11, 326804, Control_c, 10, 11, 66
11, 326816, Control_c, 10, 11, 65
11, 326829, Control_c, 10, 11, 64
11, 326842, Control_c, 10, 11, 63
11, 326854, Control_c, 10, 11, 62
11, 326867, Control_c, 10, 11, 61
11, 326879, Control_c, 10, 11, 60
11, 328600, Note_on_c, 10, 64, 0
11, 328600, Note_on_c, 10, 52, 0
11, 328600, Note_on_c, 10, 64, 64
11, 328606, Note_on_c, 10, 52, 65
11, 328697, Note_on_c, 10, 52, 0
11, 328704, Note_on_c, 10, 64, 0
11, 328835, Note_on_c, 10, 64, 69
11, 328841, Note_on_c, 10, 52, 54
11, 328865, Note_on_c, 10, 52, 0
11, 328872, Note_on_c, 10, 64, 0
11, 328911, Control_c, 10, 11, 60
11, 328911, Note_on_c, 10, 52, 67
11, 328917, Note_on_c, 10, 64, 56
11, 328930, Control_c, 10, 11, 59
11, 328948, Control_c, 10, 11, 58
11, 328967, Control_c, 10, 11, 57
11, 328985, Control_c, 10, 11, 56
11, 329003, Control_c, 10, 11, 55
11, 329022, Control_c, 10, 11, 54
11, 329040, Control_c, 10, 11, 53
11, 329059, Control_c, 10, 11, 52
11, 329077, Control_c, 10, 11, 51
11, 329095, Control_c, 10, 11, 50
11, 329114, Control_c, 10, 11, 49
11, 329132, Control_c, 10, 11, 48
11, 329151, Control_c, 10, 11, 47
11, 329169, Control_c, 10, 11, 46
11, 329187, Control_c, 10, 11, 45
11, 329206, Control_c, 10, 11, 44
11, 329224, Control_c, 10, 11, 43
11, 329243, Control_c, 10, 11, 42
11, 329261, Control_c, 10, 11, 41
11, 329279, Control_c, 10, 11, 40
11, 330177, Note_on_c, 10, 52, 0
11, 330178, Note_on_c, 10, 64, 0
11, 330720, Control_c, 10, 11, 100
11, 333391, Note_on_c, 10, 52, 79
11, 333393, Note_on_c, 10, 64, 78
11, 333752, Note_on_c, 10, 64, 0
11, 333754, Note_on_c, 10, 52, 0
11, 333829, Note_on_c, 10, 60, 84
11, 334081, Note_on_c, 10, 60, 0
11, 334293, Note_on_c, 10, 52, 99
11, 334297, Note_on_c, 10, 64, 77
11, 334378, Note_on_c, 10, 52, 0
11, 334417, Note_on_c, 10, 64, 0
11, 334515, Note_on_c, 10, 64, 84
11, 334517, Note_on_c, 10, 52, 93
11, 334614, Note_on_c, 10, 52, 0
11, 334629, Note_on_c, 10, 64, 0
11, 334745, Note_on_c, 10, 52, 97
11, 334752, Note_on_c, 10, 64, 98
11, 334835, Note_on_c, 10, 52, 0
11, 334840, Note_on_c, 10, 64, 0
11, 336213, Note_on_c, 10, 52, 98
11, 336219, Note_on_c, 10, 64, 89
11, 336292, Note_on_c, 10, 52, 0
11, 336310, Note_on_c, 10, 64, 0
11, 361440, Control_c, 10, 11, 80
11, 361478, Note_on_c, 10, 52, 36
11, 361942, Note_on_c, 10, 52, 0
11, 361988, Note_on_c, 10, 52, 43
11, 362490, Control_c, 10, 11, 80
11, 362490, Note_on_c, 10, 60, 49
11, 362527, Control_c, 10, 11, 79
11, 362555, Note_on_c, 10, 52, 0
11, 362564, Control_c, 10, 11, 78
11, 362601, Control_c, 10, 11, 77
11, 362638, Control_c, 10, 11, 76
11, 362675, Control_c, 10, 11, 75
11, 362712, Control_c, 10, 11, 74
11, 362749, Control_c, 10, 11, 73
11, 362786, Control_c, 10, 11, 72
11, 362823, Control_c, 10, 11, 71
11, 362860, Control_c, 10, 11, 70
11, 362881, Note_on_c, 10, 60, 0
11, 362897, Control_c, 10, 11, 69
11, 362934, Control_c, 10, 11, 68
11, 362971, Control_c, 10, 11, 67
11, 363008, Control_c, 10, 11, 66
11, 363045, Control_c, 10, 11, 65
11, 363082, Control_c, 10, 11, 64
11, 363119, Control_c, 10, 11, 63
11, 363156, Control_c, 10, 11, 62
11, 363193, Control_c, 10, 11, 61
11, 363230, Control_c, 10, 11, 60
11, 363267, Control_c, 10, 11, 59
11, 363304, Control_c, 10, 11, 58
11, 363341, Control_c, 10, 11, 57
11, 363378, Control_c, 10, 11, 56
11, 363415, Control_c, 10, 11, 55
11, 363452, Control_c, 10, 11, 54
11, 363489, Control_c, 10, 11, 53
11, 363526, Control_c, 10, 11, 52
11, 363563, Control_c, 10, 11, 51
11, 363599, Control_c, 10, 11, 50
11, 456816, Control_c, 10, 11, 100
11, 456816, Note_on_c, 10, 64, 76
11, 457110, Note_on_c, 10, 65, 69
11, 457131, Note_on_c, 10, 64, 0
11, 457423, Note_on_c, 10, 64, 51
11, 457444, Note_on_c, 10, 65, 0
11, 457701, Note_on_c, 10, 64, 0
11, 459170, Note_on_c, 10, 64, 90
11, 459174, Note_on_c, 10, 52, 100
11, 459237, Note_on_c, 10, 52, 0
11, 459238, Note_on_c, 10, 64, 0
11, 459477, Note_on_c, 10, 64, 83
11, 459480, Note_on_c, 10, 52, 76
11, 459678, Note_on_c, 10, 64, 0
11, 459688, Note_on_c, 10, 52, 0
11, 460947, Note_on_c, 10, 58, 55
11, 461253, Note_on_c, 10, 58, 0
11, 461256, Note_on_c, 10, 57, 45
11, 461260, Note_on_c, 10, 64, 61
11, 461510, Note_on_c, 10, 63, 73
11, 461536, Note_on_c, 10, 64, 0
11, 461697, Note_on_c, 10, 57, 0
11, 461723, Note_on_c, 10, 63, 0
11, 462910, Note_on_c, 10, 58, 53
11, 462914, Note_on_c, 10, 67, 81
11, 463159, Note_on_c, 10, 67, 0
11, 463164, Note_on_c, 10, 58, 0
11, 466455, Note_on_c, 10, 58, 48
11, 466464, Note_on_c, 10, 67, 62
11, 466616, Note_on_c, 10, 58, 0
11, 466622, Note_on_c, 10, 67, 0
11, 471667, Note_on_c, 10, 64, 59
11, 471672, Note_on_c, 10, 55, 56
11, 471786, Note_on_c, 10, 55, 0
11, 471788, Note_on_c, 10, 64, 0
11, 472085, Note_on_c, 10, 64, 43
11, 472092, Note_on_c, 10, 52, 25
11, 472717, Note_on_c, 10, 64, 0
11, 472721, Note_on_c, 10, 52, 0
11, 628800, Control_c, 10, 11, 100
11, 629029, Note_on_c, 10, 67, 84
11, 629033, Note_on_c, 10, 55, 97
11, 630041, Note_on_c, 10, 55, 0
11, 630166, Note_on_c, 10, 55, 107
11, 630251, Note_on_c, 10, 55, 0
11, 630418, Note_on_c, 10, 55, 108
11, 630511, Note_on_c, 10, 55, 0
11, 630561, Note_on_c, 10, 67, 0
11, 630685, Note_on_c, 10, 55, 111
11, 630688, Note_on_c, 10, 67, 87
11, 631709, Note_on_c, 10, 55, 0
11, 631852, Note_on_c, 10, 55, 107
11, 631962, Note_on_c, 10, 55, 0
11, 632099, Note_on_c, 10, 62, 113
11, 632127, Note_on_c, 10, 67, 0
11, 632207, Note_on_c, 10, 62, 0
11, 632452, Control_c, 10, 11, 100
11, 632452, Note_on_c, 10, 67, 35
11, 632458, Control_c, 10, 11, 98
11, 632463, Note_on_c, 10, 64, 31
11, 632464, Control_c, 10, 11, 96
11, 632470, Control_c, 10, 11, 95
11, 632476, Control_c, 10, 11, 94
11, 632482, Control_c, 10, 11, 93
11, 632488, Control_c, 10, 11, 92
11, 632494, Control_c, 10, 11, 91
11, 632500, Control_c, 10, 11, 90
11, 632506, Control_c, 10, 11, 89
11, 632518, Control_c, 10, 11, 88
11, 632524, Control_c, 10, 11, 87
11, 632536, Control_c, 10, 11, 86
11, 632548, Control_c, 10, 11, 85
11, 632560, Control_c, 10, 11, 84
11, 632578, Control_c, 10, 11, 83
11, 632596, Control_c, 10, 11, 82
11, 632632, Control_c, 10, 11, 81
11, 632686, Control_c, 10, 11, 80
11, 632880, Control_c, 10, 11, 80
11, 632952, Control_c, 10, 11, 79
11, 633024, Control_c, 10, 11, 78
11, 633096, Control_c, 10, 11, 77
11, 633168, Control_c, 10, 11, 76
11, 633240, Control_c, 10, 11, 75
11, 633312, Control_c, 10, 11, 74
11, 633384, Control_c, 10, 11, 73
11, 633456, Control_c, 10, 11, 72
11, 633528, Control_c, 10, 11, 71
11, 633600, Control_c, 10, 11, 70
11, 633672, Control_c, 10, 11, 69
11, 633744, Control_c, 10, 11, 68
11, 633816, Control_c, 10, 11, 67
11, 633888, Control_c, 10, 11, 66
11, 633960, Control_c, 10, 11, 65
11, 634032, Control_c, 10, 11, 64
11, 634104, Control_c, 10, 11, 63
11, 634176, Control_c, 10, 11, 62
11, 634248, Control_c, 10, 11, 61
11, 634320, Control_c, 10, 11, 60
11, 634517, Note_on_c, 10, 64, 0
11, 634640, Note_on_c, 10, 64, 34
11, 634655, Note_on_c, 10, 60, 32
11, 634750, Note_on_c, 10, 67, 0
11, 634928, Note_on_c, 10, 60, 0
11, 634979, Note_on_c, 10, 64, 0
11, 635632, Control_c, 10, 11, 81
11, 635632, Note_on_c, 10, 67, 28
11, 635638, Control_c, 10, 11, 79
11, 635644, Control_c, 10, 11, 78
11, 635650, Control_c, 10, 11, 77
11, 635655, Note_on_c, 10, 64, 21
11, 635656, Control_c, 10, 11, 76
11, 635662, Control_c, 10, 11, 75
11, 635668, Control_c, 10, 11, 74
11, 635680, Control_c, 10, 11, 73
11, 635686, Control_c, 10, 11, 72
11, 635692, Control_c, 10, 11, 71
11, 635704, Control_c, 10, 11, 70
11, 635716, Control_c, 10, 11, 69
11, 635728, Control_c, 10, 11, 68
11, 635740, Control_c, 10, 11, 67
11, 635752, Control_c, 10, 11, 66
11, 635770, Control_c, 10, 11, 65
11, 635794, Control_c, 10, 11, 64
11, 635818, Control_c, 10, 11, 63
11, 635848, Control_c, 10, 11, 62
11, 635890, Control_c, 10, 11, 61
11, 635962, Control_c, 10, 11, 60
11, 636611, Note_on_c, 10, 64, 0
11, 636617, Note_on_c, 10, 67, 0
11, 645887, Note_on_c, 10, 52, 86
11, 645888, Note_on_c, 10, 64, 72
11, 646249, Note_on_c, 10, 64, 0
11, 646254, Note_on_c, 10, 52, 0
11, 647015, Note_on_c, 10, 52, 92
11, 647016, Note_on_c, 10, 64, 76
11, 647204, Note_on_c, 10, 52, 0
11, 647206, Note_on_c, 10, 64, 0
11, 647248, Note_on_c, 10, 64, 92
11, 647251, Note_on_c, 10, 52, 94
11, 649111, Note_on_c, 10, 64, 0
11, 649121, Note_on_c, 10, 52, 0
11, 649440, End_track
12, 0, Start_track
12, 0, Title_t, "Trombone                            "
12, 0, Control_c, 11, 121, 0
12, 80, Control_c, 11, 101, 0
12, 100, Control_c, 11, 100, 0
12, 120, Control_c, 11, 6, 12
12, 140, Control_c, 11, 10, 38
12, 160, Control_c, 11, 7, 100
12, 180, Control_c, 11, 0, 0
12, 200, Control_c, 11, 32, 2
12, 220, Program_c, 11, 57
12, 240, Control_c, 11, 91, 80
12, 260, Control_c, 11, 93, 24
12, 280, Control_c, 11, 1, 12
12, 300, Control_c, 11, 11, 80
12, 320, Pitch_bend_c, 11, 8192
12, 340, Control_c, 11, 99, 1
12, 360, Control_c, 11, 98, 32
12, 380, Control_c, 11, 6, 80
12, 400, Control_c, 11, 98, 33
12, 420, Control_c, 11, 6, 62
12, 440, Control_c, 11, 98, 100
12, 460, Control_c, 11, 6, 64
12, 480, Control_c, 11, 98, 102
12, 500, Control_c, 11, 6, 64
12, 520, Control_c, 11, 98, 99
12, 705, Control_c, 11, 6, 64
12, 2896, Note_on_c, 11, 51, 91
12, 3116, Note_on_c, 11, 51, 0
12, 3189, Note_on_c, 11, 50, 89
12, 3391, Note_on_c, 11, 50, 0
12, 3478, Note_on_c, 11, 49, 91
12, 3662, Note_on_c, 11, 49, 0
12, 3768, Note_on_c, 11, 52, 91
12, 3915, Note_on_c, 11, 52, 0
12, 4054, Note_on_c, 11, 48, 103
12, 4247, Note_on_c, 11, 48, 0
12, 4357, Note_on_c, 11, 47, 100
12, 4534, Note_on_c, 11, 47, 0
12, 4644, Note_on_c, 11, 59, 97
12, 4809, Note_on_c, 11, 59, 0
12, 4950, Note_on_c, 11, 63, 113
12, 5198, Note_on_c, 11, 63, 0
12, 5227, Note_on_c, 11, 64, 103
12, 5373, Note_on_c, 11, 64, 0
12, 5517, Note_on_c, 11, 59, 103
12, 5762, Note_on_c, 11, 59, 0
12, 5805, Note_on_c, 11, 60, 102
12, 5936, Note_on_c, 11, 60, 0
12, 6095, Note_on_c, 11, 56, 88
12, 6388, Note_on_c, 11, 57, 56
12, 6403, Note_on_c, 11, 56, 0
12, 6628, Note_on_c, 11, 57, 0
12, 8467, Note_on_c, 11, 52, 106
12, 8618, Note_on_c, 11, 52, 0
12, 8749, Note_on_c, 11, 45, 113
12, 8896, Note_on_c, 11, 45, 0
12, 9051, Note_on_c, 11, 48, 113
12, 9201, Note_on_c, 11, 48, 0
12, 9341, Note_on_c, 11, 45, 108
12, 9474, Note_on_c, 11, 45, 0
12, 9631, Note_on_c, 11, 44, 116
12, 9841, Note_on_c, 11, 44, 0
12, 9930, Note_on_c, 11, 44, 116
12, 10078, Note_on_c, 11, 44, 0
12, 10214, Note_on_c, 11, 43, 102
12, 10347, Note_on_c, 11, 43, 0
12, 10506, Note_on_c, 11, 42, 114
12, 10677, Note_on_c, 11, 42, 0
12, 10792, Note_on_c, 11, 54, 112
12, 10939, Note_on_c, 11, 54, 0
12, 11071, Note_on_c, 11, 52, 112
12, 11220, Note_on_c, 11, 52, 0
12, 11372, Note_on_c, 11, 51, 118
12, 11599, Note_on_c, 11, 51, 0
12, 11659, Note_on_c, 11, 63, 115
12, 11774, Note_on_c, 11, 63, 0
12, 12220, Note_on_c, 11, 64, 112
12, 12421, Note_on_c, 11, 64, 0
12, 15138, Note_on_c, 11, 46, 104
12, 15228, Note_on_c, 11, 46, 0
12, 15427, Note_on_c, 11, 45, 109
12, 15532, Note_on_c, 11, 45, 0
12, 15738, Note_on_c, 11, 43, 114
12, 15888, Note_on_c, 11, 43, 0
12, 18851, Note_on_c, 11, 58, 92
12, 18951, Note_on_c, 11, 58, 0
12, 19123, Note_on_c, 11, 57, 77
12, 19247, Note_on_c, 11, 57, 0
12, 19422, Note_on_c, 11, 55, 76
12, 19533, Note_on_c, 11, 55, 0
12, 19715, Note_on_c, 11, 54, 96
12, 19806, Note_on_c, 11, 54, 0
12, 20011, Note_on_c, 11, 54, 95
12, 20136, Note_on_c, 11, 54, 0
12, 20308, Note_on_c, 11, 54, 101
12, 20411, Note_on_c, 11, 54, 0
12, 20603, Note_on_c, 11, 59, 104
12, 20711, Note_on_c, 11, 59, 0
12, 20944, Note_on_c, 11, 60, 106
12, 21065, Note_on_c, 11, 60, 0
12, 21358, Note_on_c, 11, 57, 74
12, 21986, Note_on_c, 11, 57, 0
12, 36022, Note_on_c, 11, 57, 101
12, 36092, Note_on_c, 11, 57, 0
12, 36320, Note_on_c, 11, 52, 103
12, 36835, Note_on_c, 11, 52, 0
12, 36841, Note_on_c, 11, 57, 83
12, 36935, Note_on_c, 11, 57, 0
12, 37103, Note_on_c, 11, 52, 103
12, 37578, Note_on_c, 11, 52, 0
12, 37598, Note_on_c, 11, 57, 89
12, 37699, Note_on_c, 11, 57, 0
12, 37865, Note_on_c, 11, 51, 108
12, 38385, Note_on_c, 11, 52, 86
12, 38392, Note_on_c, 11, 51, 0
12, 38485, Note_on_c, 11, 52, 0
12, 38659, Note_on_c, 11, 51, 110
12, 39161, Note_on_c, 11, 51, 0
12, 39190, Note_on_c, 11, 52, 77
12, 39279, Note_on_c, 11, 52, 0
12, 39451, Note_on_c, 11, 46, 112
12, 39972, Note_on_c, 11, 47, 84
12, 39998, Note_on_c, 11, 46, 0
12, 40037, Note_on_c, 11, 47, 0
12, 40247, Note_on_c, 11, 46, 108
12, 40658, Note_on_c, 11, 46, 0
12, 40776, Note_on_c, 11, 47, 104
12, 41136, Note_on_c, 11, 47, 0
12, 41181, Note_on_c, 11, 46, 110
12, 41293, Note_on_c, 11, 46, 0
12, 41321, Note_on_c, 11, 47, 100
12, 41418, Note_on_c, 11, 47, 0
12, 41450, Note_on_c, 11, 54, 112
12, 41541, Note_on_c, 11, 54, 0
12, 41585, Note_on_c, 11, 55, 116
12, 41672, Note_on_c, 11, 55, 0
12, 41842, Note_on_c, 11, 55, 114
12, 41940, Note_on_c, 11, 55, 0
12, 42110, Note_on_c, 11, 54, 118
12, 42209, Note_on_c, 11, 54, 0
12, 42403, Note_on_c, 11, 47, 99
12, 42412, Note_on_c, 11, 48, 92
12, 42429, Note_on_c, 11, 48, 0
12, 42759, Note_on_c, 11, 47, 0
12, 42781, Note_on_c, 11, 46, 109
12, 42888, Note_on_c, 11, 46, 0
12, 42906, Note_on_c, 11, 47, 99
12, 42996, Note_on_c, 11, 47, 0
12, 43030, Note_on_c, 11, 54, 108
12, 43120, Note_on_c, 11, 54, 0
12, 43154, Note_on_c, 11, 55, 109
12, 43221, Note_on_c, 11, 55, 0
12, 43406, Note_on_c, 11, 55, 114
12, 43484, Note_on_c, 11, 55, 0
12, 43666, Note_on_c, 11, 54, 120
12, 43738, Note_on_c, 11, 54, 0
12, 43929, Note_on_c, 11, 47, 111
12, 44051, Note_on_c, 11, 47, 0
12, 84480, Note_on_c, 11, 76, 89
12, 84482, Note_on_c, 11, 46, 104
12, 84483, Note_on_c, 11, 64, 84
12, 84934, Note_on_c, 11, 64, 0
12, 84939, Note_on_c, 11, 76, 0
12, 85381, Note_on_c, 11, 46, 0
12, 85402, Note_on_c, 11, 45, 94
12, 85864, Note_on_c, 11, 45, 0
12, 85939, Note_on_c, 11, 45, 98
12, 86246, Note_on_c, 11, 44, 109
12, 86271, Note_on_c, 11, 45, 0
12, 86417, Note_on_c, 11, 44, 0
12, 86511, Note_on_c, 11, 49, 93
12, 86762, Note_on_c, 11, 49, 0
12, 86795, Note_on_c, 11, 51, 106
12, 87056, Note_on_c, 11, 51, 0
12, 87076, Note_on_c, 11, 52, 92
12, 87260, Note_on_c, 11, 52, 0
12, 87384, Note_on_c, 11, 52, 104
12, 87656, Note_on_c, 11, 52, 0
12, 87660, Note_on_c, 11, 54, 110
12, 87965, Note_on_c, 11, 55, 94
12, 87971, Note_on_c, 11, 54, 0
12, 88256, Note_on_c, 11, 54, 77
12, 88296, Note_on_c, 11, 55, 0
12, 88554, Note_on_c, 11, 54, 0
12, 88886, Note_on_c, 11, 47, 96
12, 89414, Note_on_c, 11, 47, 0
12, 89419, Note_on_c, 11, 45, 82
12, 89699, Note_on_c, 11, 44, 83
12, 89750, Note_on_c, 11, 45, 0
12, 89845, Note_on_c, 11, 44, 0
12, 89983, Note_on_c, 11, 44, 97
12, 90106, Note_on_c, 11, 44, 0
12, 90256, Note_on_c, 11, 45, 93
12, 90397, Note_on_c, 11, 45, 0
12, 90554, Note_on_c, 11, 46, 98
12, 90815, Note_on_c, 11, 47, 98
12, 90848, Note_on_c, 11, 46, 0
12, 90925, Note_on_c, 11, 47, 0
12, 91085, Note_on_c, 11, 47, 120
12, 91191, Note_on_c, 11, 47, 0
12, 91365, Note_on_c, 11, 48, 124
12, 91738, Note_on_c, 11, 48, 0
12, 91761, Note_on_c, 11, 47, 104
12, 91874, Note_on_c, 11, 47, 0
12, 91902, Note_on_c, 11, 48, 116
12, 92010, Note_on_c, 11, 48, 0
12, 92022, Note_on_c, 11, 52, 111
12, 92122, Note_on_c, 11, 52, 0
12, 92155, Note_on_c, 11, 55, 112
12, 92240, Note_on_c, 11, 55, 0
12, 92420, Note_on_c, 11, 55, 111
12, 92489, Note_on_c, 11, 55, 0
12, 92667, Note_on_c, 11, 55, 112
12, 92763, Note_on_c, 11, 55, 0
12, 92939, Note_on_c, 11, 48, 117
12, 93311, Note_on_c, 11, 48, 0
12, 93354, Note_on_c, 11, 47, 89
12, 93443, Note_on_c, 11, 47, 0
12, 93487, Note_on_c, 11, 48, 104
12, 93585, Note_on_c, 11, 48, 0
12, 93603, Note_on_c, 11, 52, 104
12, 93693, Note_on_c, 11, 52, 0
12, 93737, Note_on_c, 11, 55, 111
12, 93800, Note_on_c, 11, 55, 0
12, 94005, Note_on_c, 11, 55, 111
12, 94075, Note_on_c, 11, 55, 0
12, 94273, Note_on_c, 11, 55, 116
12, 94334, Note_on_c, 11, 55, 0
12, 94555, Note_on_c, 11, 48, 118
12, 94686, Note_on_c, 11, 48, 0
12, 101990, Note_on_c, 11, 48, 127
12, 102399, Note_on_c, 11, 48, 0
12, 102416, Note_on_c, 11, 47, 113
12, 102514, Note_on_c, 11, 47, 0
12, 102541, Note_on_c, 11, 48, 112
12, 102654, Note_on_c, 11, 52, 118
12, 102684, Note_on_c, 11, 48, 0
12, 102793, Note_on_c, 11, 55, 118
12, 102812, Note_on_c, 11, 52, 0
12, 102851, Note_on_c, 11, 55, 0
12, 103101, Note_on_c, 11, 55, 121
12, 103176, Note_on_c, 11, 55, 0
12, 103382, Note_on_c, 11, 55, 122
12, 103455, Note_on_c, 11, 55, 0
12, 103668, Note_on_c, 11, 48, 122
12, 104078, Note_on_c, 11, 48, 0
12, 104108, Note_on_c, 11, 47, 109
12, 104242, Note_on_c, 11, 48, 112
12, 104274, Note_on_c, 11, 47, 0
12, 104358, Note_on_c, 11, 52, 117
12, 104393, Note_on_c, 11, 48, 0
12, 104505, Note_on_c, 11, 55, 109
12, 104534, Note_on_c, 11, 52, 0
12, 104578, Note_on_c, 11, 55, 0
12, 104789, Note_on_c, 11, 55, 121
12, 104863, Note_on_c, 11, 55, 0
12, 105049, Note_on_c, 11, 55, 122
12, 105126, Note_on_c, 11, 55, 0
12, 105407, Note_on_c, 11, 48, 124
12, 105614, Note_on_c, 11, 48, 0
12, 309604, Note_on_c, 11, 47, 112
12, 312480, Note_on_c, 11, 47, 0
12, 312520, Note_on_c, 11, 47, 104
12, 312894, Note_on_c, 11, 47, 0
12, 312901, Note_on_c, 11, 46, 113
12, 313002, Note_on_c, 11, 46, 0
12, 313023, Note_on_c, 11, 47, 112
12, 313128, Note_on_c, 11, 52, 112
12, 313134, Note_on_c, 11, 47, 0
12, 313272, Note_on_c, 11, 58, 115
12, 313292, Note_on_c, 11, 52, 0
12, 313421, Note_on_c, 11, 58, 0
12, 313526, Note_on_c, 11, 59, 112
12, 313673, Note_on_c, 11, 59, 0
12, 315289, Note_on_c, 11, 48, 120
12, 315396, Note_on_c, 11, 48, 0
12, 315532, Note_on_c, 11, 47, 118
12, 315659, Note_on_c, 11, 47, 0
12, 316753, Note_on_c, 11, 52, 117
12, 316850, Note_on_c, 11, 52, 0
12, 317005, Note_on_c, 11, 47, 117
12, 317117, Note_on_c, 11, 47, 0
12, 318224, Note_on_c, 11, 53, 122
12, 318307, Note_on_c, 11, 53, 0
12, 318467, Note_on_c, 11, 47, 120
12, 318569, Note_on_c, 11, 47, 0
12, 319624, Note_on_c, 11, 47, 114
12, 319748, Note_on_c, 11, 47, 0
12, 320352, Note_on_c, 11, 46, 121
12, 320467, Note_on_c, 11, 46, 0
12, 321067, Note_on_c, 11, 45, 116
12, 321178, Note_on_c, 11, 45, 0
12, 321575, Note_on_c, 11, 45, 94
12, 321801, Note_on_c, 11, 45, 0
12, 321839, Note_on_c, 11, 45, 108
12, 322051, Note_on_c, 11, 45, 0
12, 322301, Note_on_c, 11, 57, 100
12, 322540, Note_on_c, 11, 58, 115
12, 322570, Note_on_c, 11, 57, 0
12, 322752, Note_on_c, 11, 58, 0
12, 322766, Note_on_c, 11, 59, 104
12, 322927, Note_on_c, 11, 59, 0
12, 323013, Note_on_c, 11, 47, 111
12, 323245, Note_on_c, 11, 47, 0
12, 323260, Note_on_c, 11, 45, 112
12, 323716, Note_on_c, 11, 57, 104
12, 323719, Note_on_c, 11, 45, 0
12, 323959, Note_on_c, 11, 55, 107
12, 323975, Note_on_c, 11, 57, 0
12, 324191, Note_on_c, 11, 54, 114
12, 324202, Note_on_c, 11, 55, 0
12, 324386, Note_on_c, 11, 54, 0
12, 324414, Note_on_c, 11, 55, 108
12, 324649, Note_on_c, 11, 54, 116
12, 324679, Note_on_c, 11, 55, 0
12, 324879, Note_on_c, 11, 52, 107
12, 324899, Note_on_c, 11, 54, 0
12, 325065, Note_on_c, 11, 52, 0
12, 325117, Note_on_c, 11, 54, 114
12, 325335, Note_on_c, 11, 52, 106
12, 325353, Note_on_c, 11, 54, 0
12, 325570, Note_on_c, 11, 51, 123
12, 325597, Note_on_c, 11, 52, 0
12, 325653, Note_on_c, 11, 51, 0
12, 325818, Note_on_c, 11, 52, 117
12, 325969, Note_on_c, 11, 52, 0
12, 330323, Note_on_c, 11, 58, 114
12, 330545, Note_on_c, 11, 58, 0
12, 330576, Note_on_c, 11, 59, 114
12, 330789, Note_on_c, 11, 59, 0
12, 330819, Note_on_c, 11, 57, 111
12, 331021, Note_on_c, 11, 57, 0
12, 331052, Note_on_c, 11, 55, 109
12, 331199, Note_on_c, 11, 55, 0
12, 331283, Note_on_c, 11, 54, 116
12, 331437, Note_on_c, 11, 54, 0
12, 331532, Note_on_c, 11, 52, 111
12, 331704, Note_on_c, 11, 52, 0
12, 331767, Note_on_c, 11, 51, 121
12, 331947, Note_on_c, 11, 51, 0
12, 331996, Note_on_c, 11, 52, 113
12, 332090, Note_on_c, 11, 52, 0
12, 332256, Note_on_c, 11, 47, 117
12, 332678, Note_on_c, 11, 47, 0
12, 332707, Note_on_c, 11, 52, 97
12, 332802, Note_on_c, 11, 52, 0
12, 332928, Note_on_c, 11, 47, 117
12, 333349, Note_on_c, 11, 47, 0
12, 333378, Note_on_c, 11, 46, 113
12, 333552, Note_on_c, 11, 46, 0
12, 333620, Note_on_c, 11, 58, 118
12, 333811, Note_on_c, 11, 58, 0
12, 333862, Note_on_c, 11, 57, 103
12, 334043, Note_on_c, 11, 57, 0
12, 334083, Note_on_c, 11, 57, 111
12, 334286, Note_on_c, 11, 57, 0
12, 334298, Note_on_c, 11, 55, 112
12, 334480, Note_on_c, 11, 55, 0
12, 334520, Note_on_c, 11, 48, 106
12, 334733, Note_on_c, 11, 48, 0
12, 334748, Note_on_c, 11, 47, 109
12, 334826, Note_on_c, 11, 47, 0
12, 334993, Note_on_c, 11, 47, 117
12, 335464, Note_on_c, 11, 52, 103
12, 335466, Note_on_c, 11, 47, 0
12, 335570, Note_on_c, 11, 52, 0
12, 335713, Note_on_c, 11, 47, 118
12, 336182, Note_on_c, 11, 47, 0
12, 336201, Note_on_c, 11, 52, 111
12, 336369, Note_on_c, 11, 52, 0
12, 453616, Note_on_c, 11, 51, 91
12, 453836, Note_on_c, 11, 51, 0
12, 453909, Note_on_c, 11, 50, 89
12, 454111, Note_on_c, 11, 50, 0
12, 454198, Note_on_c, 11, 49, 91
12, 454382, Note_on_c, 11, 49, 0
12, 454488, Note_on_c, 11, 52, 91
12, 454635, Note_on_c, 11, 52, 0
12, 454774, Note_on_c, 11, 48, 103
12, 454967, Note_on_c, 11, 48, 0
12, 455077, Note_on_c, 11, 47, 100
12, 455254, Note_on_c, 11, 47, 0
12, 455364, Note_on_c, 11, 59, 97
12, 455529, Note_on_c, 11, 59, 0
12, 455670, Note_on_c, 11, 63, 113
12, 455918, Note_on_c, 11, 63, 0
12, 455947, Note_on_c, 11, 64, 103
12, 456093, Note_on_c, 11, 64, 0
12, 456237, Note_on_c, 11, 59, 103
12, 456482, Note_on_c, 11, 59, 0
12, 456525, Note_on_c, 11, 60, 102
12, 456656, Note_on_c, 11, 60, 0
12, 456815, Note_on_c, 11, 56, 88
12, 457108, Note_on_c, 11, 57, 56
12, 457123, Note_on_c, 11, 56, 0
12, 457348, Note_on_c, 11, 57, 0
12, 459187, Note_on_c, 11, 52, 106
12, 459338, Note_on_c, 11, 52, 0
12, 459469, Note_on_c, 11, 45, 113
12, 459616, Note_on_c, 11, 45, 0
12, 459771, Note_on_c, 11, 48, 113
12, 459921, Note_on_c, 11, 48, 0
12, 460061, Note_on_c, 11, 45, 108
12, 460194, Note_on_c, 11, 45, 0
12, 460351, Note_on_c, 11, 44, 116
12, 460561, Note_on_c, 11, 44, 0
12, 460650, Note_on_c, 11, 44, 116
12, 460798, Note_on_c, 11, 44, 0
12, 460934, Note_on_c, 11, 43, 102
12, 461067, Note_on_c, 11, 43, 0
12, 461226, Note_on_c, 11, 42, 114
12, 461397, Note_on_c, 11, 42, 0
12, 461512, Note_on_c, 11, 54, 112
12, 461659, Note_on_c, 11, 54, 0
12, 461791, Note_on_c, 11, 52, 112
12, 461940, Note_on_c, 11, 52, 0
12, 462092, Note_on_c, 11, 51, 118
12, 462319, Note_on_c, 11, 51, 0
12, 462379, Note_on_c, 11, 63, 115
12, 462494, Note_on_c, 11, 63, 0
12, 462940, Note_on_c, 11, 64, 112
12, 463141, Note_on_c, 11, 64, 0
12, 465858, Note_on_c, 11, 46, 104
12, 465948, Note_on_c, 11, 46, 0
12, 466147, Note_on_c, 11, 45, 109
12, 466252, Note_on_c, 11, 45, 0
12, 466458, Note_on_c, 11, 43, 114
12, 466608, Note_on_c, 11, 43, 0
12, 469571, Note_on_c, 11, 58, 92
12, 469671, Note_on_c, 11, 58, 0
12, 469843, Note_on_c, 11, 57, 77
12, 469967, Note_on_c, 11, 57, 0
12, 470142, Note_on_c, 11, 55, 76
12, 470253, Note_on_c, 11, 55, 0
12, 470435, Note_on_c, 11, 54, 96
12, 470526, Note_on_c, 11, 54, 0
12, 470731, Note_on_c, 11, 54, 95
12, 470856, Note_on_c, 11, 54, 0
12, 471028, Note_on_c, 11, 54, 101
12, 471131, Note_on_c, 11, 54, 0
12, 471323, Note_on_c, 11, 59, 104
12, 471431, Note_on_c, 11, 59, 0
12, 471664, Note_on_c, 11, 60, 106
12, 471785, Note_on_c, 11, 60, 0
12, 472078, Note_on_c, 11, 57, 74
12, 472706, Note_on_c, 11, 57, 0
12, 629030, Note_on_c, 11, 48, 127
12, 629439, Note_on_c, 11, 48, 0
12, 629456, Note_on_c, 11, 47, 113
12, 629554, Note_on_c, 11, 47, 0
12, 629581, Note_on_c, 11, 48, 112
12, 629694, Note_on_c, 11, 52, 118
12, 629724, Note_on_c, 11, 48, 0
12, 629833, Note_on_c, 11, 55, 118
12, 629852, Note_on_c, 11, 52, 0
12, 629891, Note_on_c, 11, 55, 0
12, 630141, Note_on_c, 11, 55, 121
12, 630216, Note_on_c, 11, 55, 0
12, 630422, Note_on_c, 11, 55, 122
12, 630495, Note_on_c, 11, 55, 0
12, 630708, Note_on_c, 11, 48, 122
12, 631118, Note_on_c, 11, 48, 0
12, 631148, Note_on_c, 11, 47, 109
12, 631282, Note_on_c, 11, 48, 112
12, 631314, Note_on_c, 11, 47, 0
12, 631398, Note_on_c, 11, 52, 117
12, 631433, Note_on_c, 11, 48, 0
12, 631545, Note_on_c, 11, 55, 109
12, 631574, Note_on_c, 11, 52, 0
12, 631618, Note_on_c, 11, 55, 0
12, 631829, Note_on_c, 11, 55, 121
12, 631903, Note_on_c, 11, 55, 0
12, 632089, Note_on_c, 11, 55, 122
12, 632166, Note_on_c, 11, 55, 0
12, 632447, Note_on_c, 11, 48, 124
12, 632654, Note_on_c, 11, 48, 0
12, 645909, Note_on_c, 11, 52, 99
12, 646263, Note_on_c, 11, 52, 0
12, 647053, Note_on_c, 11, 52, 113
12, 647237, Note_on_c, 11, 52, 0
12, 647295, Note_on_c, 11, 52, 113
12, 649315, Note_on_c, 11, 52, 0
12, 649440, End_track
13, 0, Start_track
13, 0, Title_t, "Flauti                              "
13, 0, Control_c, 12, 121, 0
13, 80, Control_c, 12, 101, 0
13, 100, Control_c, 12, 100, 0
13, 120, Control_c, 12, 6, 12
13, 140, Control_c, 12, 10, 42
13, 160, Control_c, 12, 7, 100
13, 180, Control_c, 12, 0, 0
13, 200, Control_c, 12, 32, 0
13, 220, Program_c, 12, 73
13, 240, Control_c, 12, 91, 80
13, 260, Control_c, 12, 93, 24
13, 280, Control_c, 12, 1, 12
13, 300, Control_c, 12, 11, 80
13, 320, Pitch_bend_c, 12, 8192
13, 340, Control_c, 12, 99, 1
13, 360, Control_c, 12, 98, 32
13, 380, Control_c, 12, 6, 80
13, 400, Control_c, 12, 98, 33
13, 420, Control_c, 12, 6, 62
13, 440, Control_c, 12, 98, 100
13, 460, Control_c, 12, 6, 64
13, 480, Control_c, 12, 98, 102
13, 500, Control_c, 12, 6, 64
13, 520, Control_c, 12, 98, 99
13, 705, Control_c, 12, 6, 64
13, 3178, Note_on_c, 12, 71, 86
13, 3471, Note_on_c, 12, 76, 86
13, 3765, Note_on_c, 12, 71, 0
13, 3770, Note_on_c, 12, 75, 95
13, 3779, Note_on_c, 12, 76, 0
13, 3783, Note_on_c, 12, 69, 28
13, 3911, Note_on_c, 12, 76, 100
13, 3932, Note_on_c, 12, 75, 0
13, 4063, Note_on_c, 12, 78, 103
13, 4067, Note_on_c, 12, 69, 0
13, 4070, Note_on_c, 12, 70, 45
13, 4084, Note_on_c, 12, 76, 0
13, 4271, Note_on_c, 12, 76, 92
13, 4281, Note_on_c, 12, 78, 0
13, 4316, Note_on_c, 12, 76, 0
13, 4326, Note_on_c, 12, 70, 0
13, 4339, Note_on_c, 12, 76, 106
13, 4359, Note_on_c, 12, 71, 49
13, 4645, Note_on_c, 12, 75, 92
13, 4648, Note_on_c, 12, 76, 0
13, 4732, Note_on_c, 12, 75, 0
13, 4772, Note_on_c, 12, 71, 0
13, 4927, Note_on_c, 12, 83, 103
13, 4938, Note_on_c, 12, 78, 99
13, 5151, Note_on_c, 12, 81, 82
13, 5154, Note_on_c, 12, 83, 0
13, 5208, Note_on_c, 12, 78, 0
13, 5233, Note_on_c, 12, 79, 96
13, 5236, Note_on_c, 12, 81, 0
13, 5238, Note_on_c, 12, 76, 65
13, 5324, Note_on_c, 12, 79, 0
13, 5330, Note_on_c, 12, 76, 0
13, 5510, Note_on_c, 12, 79, 104
13, 5522, Note_on_c, 12, 75, 95
13, 5703, Note_on_c, 12, 79, 0
13, 5728, Note_on_c, 12, 78, 73
13, 5750, Note_on_c, 12, 75, 0
13, 5811, Note_on_c, 12, 76, 85
13, 5814, Note_on_c, 12, 78, 0
13, 5898, Note_on_c, 12, 76, 0
13, 6089, Note_on_c, 12, 76, 92
13, 6097, Note_on_c, 12, 71, 90
13, 6308, Note_on_c, 12, 76, 0
13, 6316, Note_on_c, 12, 74, 73
13, 6381, Note_on_c, 12, 71, 0
13, 6399, Note_on_c, 12, 74, 0
13, 6400, Note_on_c, 12, 72, 84
13, 6407, Note_on_c, 12, 69, 48
13, 6509, Note_on_c, 12, 69, 0
13, 6512, Note_on_c, 12, 72, 0
13, 6671, Note_on_c, 12, 71, 73
13, 6690, Note_on_c, 12, 67, 48
13, 6967, Note_on_c, 12, 67, 0
13, 7118, Note_on_c, 12, 71, 0
13, 10215, Note_on_c, 12, 76, 96
13, 10384, Note_on_c, 12, 76, 0
13, 10496, Note_on_c, 12, 81, 99
13, 10500, Note_on_c, 12, 76, 51
13, 10717, Note_on_c, 12, 76, 0
13, 10773, Note_on_c, 12, 75, 72
13, 10777, Note_on_c, 12, 80, 100
13, 10802, Note_on_c, 12, 81, 0
13, 10927, Note_on_c, 12, 81, 103
13, 10949, Note_on_c, 12, 75, 0
13, 10957, Note_on_c, 12, 80, 0
13, 11063, Note_on_c, 12, 83, 106
13, 11071, Note_on_c, 12, 76, 66
13, 11081, Note_on_c, 12, 81, 0
13, 11197, Note_on_c, 12, 84, 106
13, 11206, Note_on_c, 12, 76, 0
13, 11233, Note_on_c, 12, 83, 0
13, 11316, Note_on_c, 12, 84, 0
13, 11349, Note_on_c, 12, 84, 108
13, 11351, Note_on_c, 12, 78, 78
13, 11638, Note_on_c, 12, 78, 0
13, 11640, Note_on_c, 12, 83, 101
13, 11655, Note_on_c, 12, 84, 0
13, 11772, Note_on_c, 12, 81, 88
13, 11804, Note_on_c, 12, 83, 0
13, 11904, Note_on_c, 12, 79, 86
13, 11916, Note_on_c, 12, 81, 0
13, 12022, Note_on_c, 12, 78, 98
13, 12058, Note_on_c, 12, 79, 0
13, 12173, Note_on_c, 12, 78, 0
13, 12191, Note_on_c, 12, 73, 113
13, 12199, Note_on_c, 12, 79, 104
13, 12330, Note_on_c, 12, 73, 0
13, 12354, Note_on_c, 12, 79, 0
13, 12634, Note_on_c, 12, 79, 78
13, 12795, Note_on_c, 12, 76, 71
13, 12810, Note_on_c, 12, 79, 0
13, 13011, Note_on_c, 12, 73, 72
13, 13047, Note_on_c, 12, 76, 0
13, 13086, Note_on_c, 12, 71, 47
13, 13112, Note_on_c, 12, 73, 0
13, 13392, Note_on_c, 12, 70, 52
13, 13412, Note_on_c, 12, 71, 0
13, 13543, Note_on_c, 12, 70, 0
13, 15141, Note_on_c, 12, 79, 82
13, 15142, Note_on_c, 12, 76, 103
13, 15212, Note_on_c, 12, 76, 0
13, 15220, Note_on_c, 12, 79, 0
13, 15438, Note_on_c, 12, 75, 114
13, 15439, Note_on_c, 12, 78, 109
13, 15529, Note_on_c, 12, 78, 0
13, 15532, Note_on_c, 12, 75, 0
13, 15720, Note_on_c, 12, 76, 106
13, 15728, Note_on_c, 12, 79, 98
13, 15828, Note_on_c, 12, 76, 0
13, 15846, Note_on_c, 12, 79, 0
13, 16204, Note_on_c, 12, 91, 94
13, 16208, Note_on_c, 12, 79, 54
13, 16371, Note_on_c, 12, 76, 57
13, 16374, Note_on_c, 12, 88, 72
13, 16379, Note_on_c, 12, 91, 0
13, 16397, Note_on_c, 12, 79, 0
13, 16591, Note_on_c, 12, 85, 80
13, 16604, Note_on_c, 12, 76, 0
13, 16604, Note_on_c, 12, 88, 0
13, 16608, Note_on_c, 12, 73, 68
13, 16675, Note_on_c, 12, 83, 60
13, 16684, Note_on_c, 12, 71, 38
13, 16685, Note_on_c, 12, 73, 0
13, 16697, Note_on_c, 12, 85, 0
13, 16986, Note_on_c, 12, 70, 33
13, 16988, Note_on_c, 12, 82, 59
13, 17031, Note_on_c, 12, 83, 0
13, 17048, Note_on_c, 12, 71, 0
13, 17182, Note_on_c, 12, 70, 0
13, 17184, Note_on_c, 12, 82, 0
13, 18843, Note_on_c, 12, 79, 88
13, 18845, Note_on_c, 12, 76, 99
13, 18919, Note_on_c, 12, 76, 0
13, 18921, Note_on_c, 12, 79, 0
13, 19108, Note_on_c, 12, 78, 88
13, 19111, Note_on_c, 12, 75, 90
13, 19202, Note_on_c, 12, 75, 0
13, 19211, Note_on_c, 12, 78, 0
13, 19416, Note_on_c, 12, 76, 93
13, 19520, Note_on_c, 12, 76, 0
13, 19700, Note_on_c, 12, 85, 93
13, 19702, Note_on_c, 12, 76, 79
13, 19765, Note_on_c, 12, 76, 0
13, 19781, Note_on_c, 12, 85, 0
13, 19998, Note_on_c, 12, 82, 101
13, 20004, Note_on_c, 12, 76, 75
13, 20082, Note_on_c, 12, 76, 0
13, 20106, Note_on_c, 12, 82, 0
13, 20279, Note_on_c, 12, 90, 108
13, 20288, Note_on_c, 12, 82, 82
13, 20375, Note_on_c, 12, 82, 0
13, 20383, Note_on_c, 12, 90, 0
13, 20585, Note_on_c, 12, 87, 109
13, 20590, Note_on_c, 12, 81, 85
13, 20677, Note_on_c, 12, 81, 0
13, 20684, Note_on_c, 12, 87, 0
13, 20901, Note_on_c, 12, 88, 93
13, 20903, Note_on_c, 12, 79, 72
13, 21021, Note_on_c, 12, 79, 0
13, 21023, Note_on_c, 12, 88, 0
13, 21341, Control_c, 12, 11, 80
13, 21341, Note_on_c, 12, 84, 80
13, 21352, Note_on_c, 12, 81, 64
13, 21827, Control_c, 12, 11, 79
13, 21929, Note_on_c, 12, 81, 0
13, 21979, Control_c, 12, 11, 78
13, 22060, Control_c, 12, 11, 77
13, 22127, Control_c, 12, 11, 76
13, 22169, Control_c, 12, 11, 75
13, 22212, Control_c, 12, 11, 74
13, 22245, Control_c, 12, 11, 73
13, 22274, Control_c, 12, 11, 72
13, 22298, Control_c, 12, 11, 71
13, 22322, Control_c, 12, 11, 70
13, 22341, Control_c, 12, 11, 69
13, 22360, Control_c, 12, 11, 68
13, 22379, Control_c, 12, 11, 67
13, 22398, Control_c, 12, 11, 66
13, 22407, Control_c, 12, 11, 65
13, 22426, Control_c, 12, 11, 64
13, 22441, Control_c, 12, 11, 63
13, 22450, Control_c, 12, 11, 62
13, 22464, Control_c, 12, 11, 61
13, 22474, Control_c, 12, 11, 60
13, 22483, Control_c, 12, 11, 59
13, 22493, Control_c, 12, 11, 58
13, 22502, Control_c, 12, 11, 57
13, 22512, Control_c, 12, 11, 56
13, 22521, Control_c, 12, 11, 55
13, 22531, Control_c, 12, 11, 54
13, 22540, Control_c, 12, 11, 53
13, 22545, Control_c, 12, 11, 52
13, 22555, Control_c, 12, 11, 51
13, 22559, Control_c, 12, 11, 50
13, 23242, Note_on_c, 12, 75, 67
13, 23302, Note_on_c, 12, 84, 0
13, 23736, Note_on_c, 12, 76, 51
13, 23810, Note_on_c, 12, 75, 0
13, 24187, Note_on_c, 12, 76, 0
13, 24480, Control_c, 12, 11, 80
13, 34168, Note_on_c, 12, 71, 49
13, 34469, Note_on_c, 12, 72, 56
13, 34486, Note_on_c, 12, 71, 0
13, 34598, Note_on_c, 12, 74, 63
13, 34621, Note_on_c, 12, 72, 0
13, 34737, Control_c, 12, 11, 80
13, 34737, Note_on_c, 12, 76, 69
13, 34759, Note_on_c, 12, 74, 0
13, 34775, Control_c, 12, 11, 81
13, 34813, Control_c, 12, 11, 82
13, 34850, Control_c, 12, 11, 83
13, 34888, Control_c, 12, 11, 84
13, 34925, Control_c, 12, 11, 85
13, 34963, Control_c, 12, 11, 86
13, 35000, Control_c, 12, 11, 87
13, 35038, Control_c, 12, 11, 88
13, 35075, Control_c, 12, 11, 89
13, 35113, Control_c, 12, 11, 90
13, 35151, Control_c, 12, 11, 91
13, 35188, Control_c, 12, 11, 92
13, 35218, Note_on_c, 12, 76, 0
13, 35226, Control_c, 12, 11, 93
13, 35260, Note_on_c, 12, 76, 80
13, 35263, Control_c, 12, 11, 94
13, 35301, Control_c, 12, 11, 95
13, 35338, Control_c, 12, 11, 96
13, 35376, Control_c, 12, 11, 97
13, 35413, Control_c, 12, 11, 98
13, 35451, Control_c, 12, 11, 99
13, 35488, Control_c, 12, 11, 100
13, 35526, Control_c, 12, 11, 101
13, 35564, Control_c, 12, 11, 102
13, 35601, Control_c, 12, 11, 103
13, 35639, Control_c, 12, 11, 104
13, 35676, Control_c, 12, 11, 105
13, 35714, Control_c, 12, 11, 106
13, 35751, Control_c, 12, 11, 107
13, 35789, Control_c, 12, 11, 108
13, 35826, Control_c, 12, 11, 109
13, 35864, Control_c, 12, 11, 110
13, 35902, Control_c, 12, 11, 111
13, 35939, Control_c, 12, 11, 112
13, 35977, Control_c, 12, 11, 113
13, 36014, Control_c, 12, 11, 114
13, 36052, Control_c, 12, 11, 115
13, 36056, Note_on_c, 12, 76, 0
13, 36089, Control_c, 12, 11, 116
13, 36127, Control_c, 12, 11, 117
13, 36164, Control_c, 12, 11, 118
13, 36202, Control_c, 12, 11, 119
13, 36239, Control_c, 12, 11, 120
13, 36301, Control_c, 12, 11, 80
13, 36301, Note_on_c, 12, 88, 92
13, 36305, Note_on_c, 12, 76, 89
13, 36799, Note_on_c, 12, 88, 0
13, 36804, Note_on_c, 12, 76, 0
13, 36830, Note_on_c, 12, 88, 81
13, 36831, Note_on_c, 12, 76, 97
13, 36874, Note_on_c, 12, 76, 0
13, 36876, Note_on_c, 12, 88, 0
13, 37080, Note_on_c, 12, 88, 99
13, 37082, Note_on_c, 12, 76, 94
13, 37572, Note_on_c, 12, 76, 0
13, 37592, Note_on_c, 12, 84, 97
13, 37597, Note_on_c, 12, 72, 99
13, 37613, Note_on_c, 12, 88, 0
13, 37637, Note_on_c, 12, 72, 0
13, 37639, Note_on_c, 12, 84, 0
13, 37881, Note_on_c, 12, 71, 104
13, 37884, Note_on_c, 12, 83, 100
13, 38014, Note_on_c, 12, 81, 68
13, 38110, Note_on_c, 12, 71, 0
13, 38141, Note_on_c, 12, 79, 83
13, 38172, Note_on_c, 12, 81, 0
13, 38251, Note_on_c, 12, 78, 93
13, 38279, Note_on_c, 12, 79, 0
13, 38375, Note_on_c, 12, 79, 90
13, 38399, Note_on_c, 12, 78, 0
13, 38447, Note_on_c, 12, 83, 0
13, 38452, Note_on_c, 12, 79, 0
13, 38649, Note_on_c, 12, 83, 101
13, 38655, Note_on_c, 12, 78, 100
13, 38761, Note_on_c, 12, 78, 0
13, 38783, Note_on_c, 12, 81, 80
13, 38910, Note_on_c, 12, 79, 87
13, 38943, Note_on_c, 12, 81, 0
13, 39020, Note_on_c, 12, 78, 80
13, 39027, Note_on_c, 12, 83, 0
13, 39031, Note_on_c, 12, 79, 0
13, 39051, Note_on_c, 12, 78, 0
13, 39161, Note_on_c, 12, 79, 83
13, 39161, Note_on_c, 12, 91, 89
13, 39255, Note_on_c, 12, 91, 0
13, 39273, Note_on_c, 12, 79, 0
13, 39431, Note_on_c, 12, 91, 103
13, 39444, Note_on_c, 12, 85, 96
13, 39570, Note_on_c, 12, 90, 98
13, 39572, Note_on_c, 12, 91, 0
13, 39659, Note_on_c, 12, 90, 0
13, 39709, Note_on_c, 12, 90, 109
13, 39807, Note_on_c, 12, 90, 0
13, 39838, Note_on_c, 12, 88, 93
13, 39960, Note_on_c, 12, 85, 0
13, 39965, Note_on_c, 12, 87, 108
13, 39971, Note_on_c, 12, 83, 87
13, 39997, Note_on_c, 12, 88, 0
13, 40065, Note_on_c, 12, 87, 0
13, 40076, Note_on_c, 12, 83, 0
13, 40100, Note_on_c, 12, 91, 104
13, 40104, Note_on_c, 12, 85, 107
13, 40182, Note_on_c, 12, 91, 0
13, 40189, Note_on_c, 12, 85, 0
13, 40234, Note_on_c, 12, 91, 112
13, 40235, Note_on_c, 12, 85, 113
13, 40364, Note_on_c, 12, 90, 99
13, 40385, Note_on_c, 12, 91, 0
13, 40440, Note_on_c, 12, 90, 0
13, 40508, Note_on_c, 12, 90, 113
13, 40596, Note_on_c, 12, 90, 0
13, 40632, Note_on_c, 12, 88, 107
13, 40663, Note_on_c, 12, 85, 0
13, 40726, Note_on_c, 12, 88, 0
13, 40774, Note_on_c, 12, 83, 114
13, 40781, Note_on_c, 12, 87, 119
13, 41587, Note_on_c, 12, 87, 0
13, 41607, Note_on_c, 12, 88, 108
13, 42135, Note_on_c, 12, 82, 106
13, 42148, Note_on_c, 12, 83, 0
13, 42383, Note_on_c, 12, 88, 0
13, 42398, Note_on_c, 12, 82, 0
13, 42398, Note_on_c, 12, 87, 107
13, 42401, Note_on_c, 12, 83, 85
13, 43182, Note_on_c, 12, 87, 0
13, 43196, Note_on_c, 12, 88, 106
13, 43669, Note_on_c, 12, 82, 96
13, 43671, Note_on_c, 12, 83, 0
13, 43885, Note_on_c, 12, 82, 0
13, 43886, Note_on_c, 12, 88, 0
13, 43907, Note_on_c, 12, 87, 109
13, 43913, Note_on_c, 12, 83, 84
13, 44035, Note_on_c, 12, 83, 0
13, 44080, Note_on_c, 12, 87, 0
13, 46277, Note_on_c, 12, 68, 36
13, 46484, Note_on_c, 12, 69, 42
13, 46535, Note_on_c, 12, 68, 0
13, 46654, Note_on_c, 12, 75, 47
13, 46716, Note_on_c, 12, 69, 0
13, 46796, Note_on_c, 12, 78, 50
13, 46834, Note_on_c, 12, 75, 0
13, 46932, Note_on_c, 12, 75, 64
13, 46947, Note_on_c, 12, 78, 0
13, 47075, Note_on_c, 12, 78, 65
13, 47087, Note_on_c, 12, 75, 0
13, 47217, Note_on_c, 12, 84, 48
13, 47227, Note_on_c, 12, 78, 0
13, 47371, Note_on_c, 12, 81, 56
13, 47398, Note_on_c, 12, 84, 0
13, 47517, Note_on_c, 12, 87, 63
13, 47589, Note_on_c, 12, 81, 0
13, 47700, Control_c, 12, 11, 100
13, 47700, Note_on_c, 12, 90, 62
13, 47756, Note_on_c, 12, 87, 0
13, 47951, Control_c, 12, 11, 99
13, 48018, Control_c, 12, 11, 98
13, 48058, Control_c, 12, 11, 97
13, 48086, Control_c, 12, 11, 96
13, 48105, Control_c, 12, 11, 95
13, 48124, Control_c, 12, 11, 94
13, 48138, Control_c, 12, 11, 93
13, 48151, Control_c, 12, 11, 92
13, 48164, Control_c, 12, 11, 91
13, 48172, Control_c, 12, 11, 90
13, 48183, Control_c, 12, 11, 89
13, 48191, Control_c, 12, 11, 88
13, 48199, Control_c, 12, 11, 87
13, 48206, Control_c, 12, 11, 86
13, 48212, Control_c, 12, 11, 85
13, 48218, Control_c, 12, 11, 84
13, 48225, Control_c, 12, 11, 83
13, 48231, Control_c, 12, 11, 82
13, 48235, Control_c, 12, 11, 81
13, 48239, Control_c, 12, 11, 80
13, 48240, Control_c, 12, 11, 80
13, 48296, Control_c, 12, 11, 79
13, 48352, Control_c, 12, 11, 78
13, 48407, Control_c, 12, 11, 77
13, 48463, Control_c, 12, 11, 76
13, 48519, Control_c, 12, 11, 75
13, 48574, Control_c, 12, 11, 74
13, 48630, Control_c, 12, 11, 73
13, 48686, Control_c, 12, 11, 72
13, 48741, Control_c, 12, 11, 71
13, 48797, Control_c, 12, 11, 70
13, 48853, Control_c, 12, 11, 69
13, 48908, Control_c, 12, 11, 68
13, 48964, Control_c, 12, 11, 67
13, 49020, Control_c, 12, 11, 66
13, 49075, Control_c, 12, 11, 65
13, 49131, Control_c, 12, 11, 64
13, 49187, Control_c, 12, 11, 63
13, 49242, Control_c, 12, 11, 62
13, 49298, Control_c, 12, 11, 61
13, 49353, Control_c, 12, 11, 60
13, 49354, Note_on_c, 12, 81, 66
13, 49355, Note_on_c, 12, 90, 0
13, 49610, Note_on_c, 12, 81, 0
13, 49680, Note_on_c, 12, 81, 50
13, 50008, Note_on_c, 12, 80, 45
13, 50033, Note_on_c, 12, 81, 0
13, 50190, Note_on_c, 12, 80, 0
13, 71421, Control_c, 12, 11, 30
13, 71421, Note_on_c, 12, 75, 44
13, 71426, Control_c, 12, 11, 33
13, 71431, Control_c, 12, 11, 35
13, 71436, Control_c, 12, 11, 37
13, 71441, Control_c, 12, 11, 39
13, 71446, Control_c, 12, 11, 41
13, 71451, Control_c, 12, 11, 42
13, 71456, Control_c, 12, 11, 44
13, 71461, Control_c, 12, 11, 45
13, 71466, Control_c, 12, 11, 47
13, 71476, Control_c, 12, 11, 48
13, 71481, Control_c, 12, 11, 49
13, 71486, Control_c, 12, 11, 50
13, 71491, Control_c, 12, 11, 51
13, 71496, Control_c, 12, 11, 52
13, 71501, Control_c, 12, 11, 53
13, 71511, Control_c, 12, 11, 54
13, 71521, Control_c, 12, 11, 55
13, 71531, Control_c, 12, 11, 56
13, 71546, Control_c, 12, 11, 57
13, 71561, Control_c, 12, 11, 58
13, 71586, Control_c, 12, 11, 59
13, 71626, Control_c, 12, 11, 60
13, 71998, Note_on_c, 12, 76, 51
13, 72050, Note_on_c, 12, 75, 0
13, 72308, Note_on_c, 12, 78, 49
13, 72326, Note_on_c, 12, 76, 0
13, 72438, Note_on_c, 12, 78, 0
13, 72608, Note_on_c, 12, 78, 66
13, 72745, Note_on_c, 12, 78, 0
13, 72906, Note_on_c, 12, 78, 67
13, 73174, Note_on_c, 12, 78, 0
13, 73223, Control_c, 12, 11, 30
13, 73223, Note_on_c, 12, 79, 72
13, 73228, Control_c, 12, 11, 34
13, 73233, Control_c, 12, 11, 37
13, 73238, Control_c, 12, 11, 40
13, 73243, Control_c, 12, 11, 43
13, 73248, Control_c, 12, 11, 45
13, 73253, Control_c, 12, 11, 47
13, 73258, Control_c, 12, 11, 48
13, 73263, Control_c, 12, 11, 50
13, 73268, Control_c, 12, 11, 51
13, 73273, Control_c, 12, 11, 52
13, 73278, Control_c, 12, 11, 53
13, 73283, Control_c, 12, 11, 54
13, 73288, Control_c, 12, 11, 55
13, 73293, Control_c, 12, 11, 56
13, 73303, Control_c, 12, 11, 57
13, 73313, Control_c, 12, 11, 58
13, 73328, Control_c, 12, 11, 59
13, 73353, Control_c, 12, 11, 60
13, 73549, Note_on_c, 12, 78, 64
13, 73623, Note_on_c, 12, 79, 0
13, 73704, Note_on_c, 12, 76, 59
13, 73738, Note_on_c, 12, 78, 0
13, 73861, Note_on_c, 12, 75, 65
13, 73907, Note_on_c, 12, 76, 0
13, 74016, Note_on_c, 12, 73, 46
13, 74095, Note_on_c, 12, 75, 0
13, 74173, Note_on_c, 12, 76, 48
13, 74204, Note_on_c, 12, 73, 0
13, 74492, Note_on_c, 12, 75, 43
13, 74558, Note_on_c, 12, 76, 0
13, 74861, Note_on_c, 12, 75, 0
13, 75353, Note_on_c, 12, 75, 52
13, 75688, Note_on_c, 12, 76, 62
13, 75749, Note_on_c, 12, 75, 0
13, 75973, Note_on_c, 12, 78, 51
13, 76011, Note_on_c, 12, 76, 0
13, 76179, Note_on_c, 12, 78, 0
13, 76286, Note_on_c, 12, 78, 65
13, 76511, Note_on_c, 12, 78, 0
13, 76590, Note_on_c, 12, 78, 73
13, 76912, Note_on_c, 12, 79, 54
13, 76962, Note_on_c, 12, 78, 0
13, 77246, Note_on_c, 12, 78, 65
13, 77294, Note_on_c, 12, 79, 0
13, 77388, Note_on_c, 12, 76, 51
13, 77426, Note_on_c, 12, 78, 0
13, 77563, Note_on_c, 12, 75, 54
13, 77608, Note_on_c, 12, 76, 0
13, 77703, Note_on_c, 12, 73, 52
13, 77767, Note_on_c, 12, 75, 0
13, 77860, Note_on_c, 12, 76, 50
13, 77914, Note_on_c, 12, 73, 0
13, 78182, Note_on_c, 12, 75, 50
13, 78232, Note_on_c, 12, 76, 0
13, 78538, Note_on_c, 12, 76, 64
13, 78579, Note_on_c, 12, 75, 0
13, 78746, Note_on_c, 12, 78, 71
13, 78829, Note_on_c, 12, 76, 0
13, 78961, Note_on_c, 12, 80, 85
13, 79014, Note_on_c, 12, 78, 0
13, 79566, Note_on_c, 12, 81, 62
13, 79610, Note_on_c, 12, 80, 0
13, 79862, Note_on_c, 12, 83, 63
13, 79881, Note_on_c, 12, 81, 0
13, 80183, Note_on_c, 12, 85, 51
13, 80229, Note_on_c, 12, 83, 0
13, 80313, Note_on_c, 12, 87, 76
13, 80338, Note_on_c, 12, 85, 0
13, 80456, Note_on_c, 12, 88, 72
13, 80484, Note_on_c, 12, 87, 0
13, 80598, Note_on_c, 12, 90, 83
13, 80683, Note_on_c, 12, 88, 0
13, 80782, Note_on_c, 12, 92, 79
13, 80854, Note_on_c, 12, 90, 0
13, 81099, Note_on_c, 12, 90, 72
13, 81138, Note_on_c, 12, 92, 0
13, 81237, Note_on_c, 12, 88, 67
13, 81275, Note_on_c, 12, 90, 0
13, 81391, Note_on_c, 12, 87, 70
13, 81425, Note_on_c, 12, 88, 0
13, 81531, Note_on_c, 12, 85, 63
13, 81557, Note_on_c, 12, 87, 0
13, 81674, Note_on_c, 12, 87, 73
13, 81707, Note_on_c, 12, 85, 0
13, 82594, Note_on_c, 12, 85, 61
13, 82639, Note_on_c, 12, 87, 0
13, 82824, Note_on_c, 12, 85, 0
13, 82912, Control_c, 12, 11, 60
13, 82912, Note_on_c, 12, 85, 76
13, 82996, Control_c, 12, 11, 61
13, 83074, Control_c, 12, 11, 62
13, 83152, Control_c, 12, 11, 63
13, 83224, Note_on_c, 12, 83, 83
13, 83230, Control_c, 12, 11, 64
13, 83262, Note_on_c, 12, 85, 0
13, 83308, Control_c, 12, 11, 65
13, 83386, Control_c, 12, 11, 66
13, 83464, Control_c, 12, 11, 67
13, 83542, Control_c, 12, 11, 68
13, 83620, Control_c, 12, 11, 69
13, 83698, Control_c, 12, 11, 70
13, 83776, Control_c, 12, 11, 71
13, 83815, Note_on_c, 12, 81, 83
13, 83853, Note_on_c, 12, 83, 0
13, 83854, Control_c, 12, 11, 72
13, 83932, Control_c, 12, 11, 73
13, 84010, Control_c, 12, 11, 74
13, 84088, Control_c, 12, 11, 75
13, 84137, Note_on_c, 12, 80, 98
13, 84160, Note_on_c, 12, 81, 0
13, 84166, Control_c, 12, 11, 76
13, 84244, Control_c, 12, 11, 77
13, 84328, Control_c, 12, 11, 78
13, 84406, Control_c, 12, 11, 79
13, 84455, Note_on_c, 12, 80, 0
13, 84480, Control_c, 12, 11, 80
13, 84503, Note_on_c, 12, 79, 96
13, 85103, Note_on_c, 12, 78, 87
13, 85125, Note_on_c, 12, 79, 0
13, 85256, Note_on_c, 12, 76, 86
13, 85270, Note_on_c, 12, 78, 0
13, 85375, Note_on_c, 12, 76, 0
13, 85396, Note_on_c, 12, 75, 89
13, 85545, Note_on_c, 12, 75, 0
13, 85551, Note_on_c, 12, 76, 84
13, 85608, Note_on_c, 12, 78, 97
13, 85625, Note_on_c, 12, 76, 0
13, 85672, Note_on_c, 12, 80, 94
13, 85690, Note_on_c, 12, 78, 0
13, 85737, Note_on_c, 12, 81, 91
13, 85755, Note_on_c, 12, 80, 0
13, 85798, Note_on_c, 12, 83, 86
13, 85799, Note_on_c, 12, 81, 0
13, 85864, Note_on_c, 12, 85, 103
13, 85879, Note_on_c, 12, 83, 0
13, 85930, Note_on_c, 12, 85, 0
13, 85942, Note_on_c, 12, 83, 90
13, 85954, Note_on_c, 12, 87, 99
13, 86015, Note_on_c, 12, 88, 94
13, 86018, Note_on_c, 12, 87, 0
13, 86077, Note_on_c, 12, 90, 107
13, 86097, Note_on_c, 12, 88, 0
13, 86129, Note_on_c, 12, 91, 100
13, 86222, Note_on_c, 12, 92, 108
13, 86226, Note_on_c, 12, 84, 93
13, 86231, Note_on_c, 12, 83, 0
13, 86243, Note_on_c, 12, 90, 0
13, 86253, Note_on_c, 12, 91, 0
13, 86448, Note_on_c, 12, 84, 0
13, 86512, Note_on_c, 12, 85, 103
13, 86618, Note_on_c, 12, 92, 0
13, 86624, Note_on_c, 12, 88, 94
13, 86754, Note_on_c, 12, 85, 0
13, 86786, Note_on_c, 12, 85, 95
13, 86791, Note_on_c, 12, 88, 0
13, 86793, Note_on_c, 12, 81, 77
13, 86974, Note_on_c, 12, 85, 0
13, 87061, Note_on_c, 12, 83, 80
13, 87069, Note_on_c, 12, 80, 80
13, 87075, Note_on_c, 12, 81, 0
13, 87306, Note_on_c, 12, 80, 0
13, 87360, Note_on_c, 12, 83, 0
13, 87367, Note_on_c, 12, 80, 103
13, 87372, Note_on_c, 12, 76, 82
13, 87653, Note_on_c, 12, 76, 0
13, 87677, Note_on_c, 12, 78, 101
13, 87678, Note_on_c, 12, 73, 85
13, 87714, Note_on_c, 12, 80, 0
13, 87944, Note_on_c, 12, 73, 0
13, 87974, Note_on_c, 12, 78, 0
13, 87974, Note_on_c, 12, 76, 88
13, 87975, Note_on_c, 12, 71, 84
13, 88282, Note_on_c, 12, 70, 81
13, 88290, Note_on_c, 12, 71, 0
13, 88520, Note_on_c, 12, 76, 0
13, 88577, Note_on_c, 12, 70, 0
13, 88591, Note_on_c, 12, 75, 81
13, 88727, Note_on_c, 12, 73, 95
13, 88795, Note_on_c, 12, 75, 0
13, 88828, Note_on_c, 12, 73, 0
13, 88873, Note_on_c, 12, 71, 84
13, 88950, Note_on_c, 12, 78, 86
13, 89018, Note_on_c, 12, 71, 0
13, 89024, Note_on_c, 12, 77, 84
13, 89029, Note_on_c, 12, 78, 0
13, 89082, Note_on_c, 12, 78, 103
13, 89101, Note_on_c, 12, 77, 0
13, 89141, Note_on_c, 12, 80, 101
13, 89159, Note_on_c, 12, 78, 0
13, 89210, Note_on_c, 12, 81, 91
13, 89211, Note_on_c, 12, 80, 0
13, 89280, Note_on_c, 12, 83, 93
13, 89289, Note_on_c, 12, 81, 0
13, 89342, Note_on_c, 12, 85, 100
13, 89358, Note_on_c, 12, 83, 0
13, 89392, Note_on_c, 12, 85, 0
13, 89414, Note_on_c, 12, 83, 84
13, 89421, Note_on_c, 12, 87, 103
13, 89483, Note_on_c, 12, 88, 88
13, 89486, Note_on_c, 12, 87, 0
13, 89550, Note_on_c, 12, 90, 107
13, 89560, Note_on_c, 12, 88, 0
13, 89602, Note_on_c, 12, 91, 101
13, 89623, Note_on_c, 12, 90, 0
13, 89674, Note_on_c, 12, 83, 0
13, 89687, Note_on_c, 12, 92, 106
13, 89696, Note_on_c, 12, 84, 98
13, 89720, Note_on_c, 12, 91, 0
13, 89733, Note_on_c, 12, 93, 30
13, 89991, Note_on_c, 12, 85, 107
13, 90013, Note_on_c, 12, 84, 0
13, 90032, Note_on_c, 12, 93, 0
13, 90079, Note_on_c, 12, 92, 0
13, 90114, Note_on_c, 12, 88, 99
13, 90123, Note_on_c, 12, 85, 0
13, 90246, Note_on_c, 12, 88, 0
13, 90256, Note_on_c, 12, 85, 99
13, 90263, Note_on_c, 12, 81, 88
13, 90461, Note_on_c, 12, 81, 0
13, 90501, Note_on_c, 12, 85, 0
13, 90524, Note_on_c, 12, 84, 104
13, 90526, Note_on_c, 12, 79, 90
13, 90791, Note_on_c, 12, 83, 106
13, 90819, Note_on_c, 12, 84, 0
13, 90981, Note_on_c, 12, 79, 0
13, 91035, Note_on_c, 12, 83, 0
13, 91055, Note_on_c, 12, 81, 107
13, 91059, Note_on_c, 12, 75, 107
13, 91274, Note_on_c, 12, 75, 0
13, 91315, Note_on_c, 12, 81, 0
13, 91323, Note_on_c, 12, 76, 108
13, 91325, Note_on_c, 12, 79, 99
13, 91444, Note_on_c, 12, 79, 0
13, 91456, Note_on_c, 12, 76, 0
13, 91605, Note_on_c, 12, 88, 116
13, 91610, Note_on_c, 12, 84, 102
13, 92645, Note_on_c, 12, 84, 0
13, 92651, Note_on_c, 12, 88, 0
13, 92662, Note_on_c, 12, 83, 96
13, 92665, Note_on_c, 12, 86, 99
13, 92920, Note_on_c, 12, 83, 0
13, 92930, Note_on_c, 12, 86, 0
13, 92950, Note_on_c, 12, 88, 106
13, 92951, Note_on_c, 12, 84, 99
13, 94257, Note_on_c, 12, 84, 0
13, 94259, Note_on_c, 12, 88, 0
13, 94265, Note_on_c, 12, 86, 89
13, 94266, Note_on_c, 12, 83, 90
13, 94508, Note_on_c, 12, 83, 0
13, 94536, Note_on_c, 12, 86, 0
13, 94553, Note_on_c, 12, 88, 104
13, 94556, Note_on_c, 12, 84, 97
13, 94796, Note_on_c, 12, 88, 0
13, 94812, Note_on_c, 12, 84, 0
13, 101998, Note_on_c, 12, 84, 106
13, 101999, Note_on_c, 12, 88, 108
13, 103380, Note_on_c, 12, 86, 83
13, 103386, Note_on_c, 12, 83, 80
13, 103387, Note_on_c, 12, 84, 0
13, 103389, Note_on_c, 12, 88, 0
13, 103632, Note_on_c, 12, 83, 0
13, 103656, Note_on_c, 12, 86, 0
13, 103660, Note_on_c, 12, 84, 98
13, 103661, Note_on_c, 12, 88, 102
13, 105043, Note_on_c, 12, 84, 0
13, 105061, Note_on_c, 12, 88, 0
13, 105069, Note_on_c, 12, 86, 96
13, 105071, Note_on_c, 12, 83, 84
13, 105389, Note_on_c, 12, 83, 0
13, 105404, Note_on_c, 12, 86, 0
13, 105412, Note_on_c, 12, 84, 93
13, 105413, Note_on_c, 12, 88, 103
13, 105614, Note_on_c, 12, 84, 0
13, 105625, Note_on_c, 12, 88, 0
13, 107626, Control_c, 12, 11, 50
13, 107626, Note_on_c, 12, 91, 25
13, 107632, Control_c, 12, 11, 57
13, 107635, Note_on_c, 12, 88, 28
13, 107638, Control_c, 12, 11, 63
13, 107644, Control_c, 12, 11, 67
13, 107650, Control_c, 12, 11, 70
13, 107656, Control_c, 12, 11, 72
13, 107662, Control_c, 12, 11, 74
13, 107668, Control_c, 12, 11, 75
13, 107674, Control_c, 12, 11, 77
13, 107686, Control_c, 12, 11, 78
13, 107692, Control_c, 12, 11, 79
13, 107710, Control_c, 12, 11, 80
13, 107760, Control_c, 12, 11, 80
13, 107796, Control_c, 12, 11, 79
13, 107832, Control_c, 12, 11, 78
13, 107868, Control_c, 12, 11, 77
13, 107904, Control_c, 12, 11, 76
13, 107940, Control_c, 12, 11, 75
13, 107976, Control_c, 12, 11, 74
13, 108012, Control_c, 12, 11, 73
13, 108048, Control_c, 12, 11, 72
13, 108084, Control_c, 12, 11, 71
13, 108120, Control_c, 12, 11, 70
13, 108156, Control_c, 12, 11, 69
13, 108192, Control_c, 12, 11, 68
13, 108228, Control_c, 12, 11, 67
13, 108264, Control_c, 12, 11, 66
13, 108300, Control_c, 12, 11, 65
13, 108336, Control_c, 12, 11, 64
13, 108372, Control_c, 12, 11, 63
13, 108408, Control_c, 12, 11, 62
13, 108444, Control_c, 12, 11, 61
13, 108479, Note_on_c, 12, 88, 0
13, 108480, Control_c, 12, 11, 60
13, 108583, Note_on_c, 12, 88, 30
13, 108586, Note_on_c, 12, 84, 25
13, 108621, Note_on_c, 12, 91, 0
13, 108810, Note_on_c, 12, 84, 0
13, 108850, Note_on_c, 12, 88, 0
13, 109409, Control_c, 12, 11, 50
13, 109409, Note_on_c, 12, 91, 41
13, 109412, Note_on_c, 12, 88, 37
13, 109415, Control_c, 12, 11, 54
13, 109421, Control_c, 12, 11, 57
13, 109427, Control_c, 12, 11, 60
13, 109433, Control_c, 12, 11, 62
13, 109439, Control_c, 12, 11, 65
13, 109445, Control_c, 12, 11, 67
13, 109451, Control_c, 12, 11, 68
13, 109457, Control_c, 12, 11, 69
13, 109463, Control_c, 12, 11, 71
13, 109469, Control_c, 12, 11, 72
13, 109475, Control_c, 12, 11, 73
13, 109481, Control_c, 12, 11, 74
13, 109487, Control_c, 12, 11, 75
13, 109499, Control_c, 12, 11, 76
13, 109505, Control_c, 12, 11, 77
13, 109523, Control_c, 12, 11, 78
13, 109541, Control_c, 12, 11, 79
13, 109577, Control_c, 12, 11, 80
13, 109974, Note_on_c, 12, 90, 45
13, 109974, Note_on_c, 12, 87, 42
13, 109994, Note_on_c, 12, 91, 0
13, 110017, Note_on_c, 12, 88, 0
13, 110263, Note_on_c, 12, 89, 43
13, 110272, Note_on_c, 12, 87, 0
13, 110274, Note_on_c, 12, 86, 40
13, 110275, Note_on_c, 12, 90, 0
13, 110549, Note_on_c, 12, 84, 39
13, 110560, Note_on_c, 12, 88, 37
13, 110576, Note_on_c, 12, 86, 0
13, 110609, Note_on_c, 12, 89, 0
13, 110810, Note_on_c, 12, 84, 0
13, 110872, Note_on_c, 12, 84, 35
13, 110877, Note_on_c, 12, 81, 22
13, 110880, Note_on_c, 12, 88, 0
13, 111196, Note_on_c, 12, 81, 0
13, 111197, Control_c, 12, 11, 80
13, 111197, Note_on_c, 12, 83, 45
13, 111198, Note_on_c, 12, 79, 38
13, 111237, Note_on_c, 12, 84, 0
13, 111245, Control_c, 12, 11, 79
13, 111287, Control_c, 12, 11, 78
13, 111335, Control_c, 12, 11, 77
13, 111377, Control_c, 12, 11, 76
13, 111419, Control_c, 12, 11, 75
13, 111467, Control_c, 12, 11, 74
13, 111509, Control_c, 12, 11, 73
13, 111551, Control_c, 12, 11, 72
13, 111599, Control_c, 12, 11, 71
13, 111641, Control_c, 12, 11, 70
13, 111683, Control_c, 12, 11, 69
13, 111731, Control_c, 12, 11, 68
13, 111773, Control_c, 12, 11, 67
13, 111815, Control_c, 12, 11, 66
13, 111863, Control_c, 12, 11, 65
13, 111905, Control_c, 12, 11, 64
13, 111947, Control_c, 12, 11, 63
13, 111995, Control_c, 12, 11, 62
13, 112037, Control_c, 12, 11, 61
13, 112079, Control_c, 12, 11, 60
13, 112147, Note_on_c, 12, 79, 0
13, 112213, Control_c, 12, 11, 80
13, 112213, Note_on_c, 12, 79, 45
13, 112238, Note_on_c, 12, 71, 36
13, 112273, Control_c, 12, 11, 79
13, 112291, Note_on_c, 12, 83, 0
13, 112327, Control_c, 12, 11, 78
13, 112381, Control_c, 12, 11, 77
13, 112435, Control_c, 12, 11, 76
13, 112489, Control_c, 12, 11, 75
13, 112543, Control_c, 12, 11, 74
13, 112597, Control_c, 12, 11, 73
13, 112657, Control_c, 12, 11, 72
13, 112711, Control_c, 12, 11, 71
13, 112765, Control_c, 12, 11, 70
13, 112819, Control_c, 12, 11, 69
13, 112873, Control_c, 12, 11, 68
13, 112911, Note_on_c, 12, 78, 51
13, 112923, Note_on_c, 12, 69, 45
13, 112927, Control_c, 12, 11, 67
13, 112971, Note_on_c, 12, 79, 0
13, 112981, Control_c, 12, 11, 66
13, 113012, Note_on_c, 12, 71, 0
13, 113041, Control_c, 12, 11, 65
13, 113095, Control_c, 12, 11, 64
13, 113149, Control_c, 12, 11, 63
13, 113203, Control_c, 12, 11, 62
13, 113257, Control_c, 12, 11, 61
13, 113311, Control_c, 12, 11, 60
13, 113311, Note_on_c, 12, 76, 49
13, 113327, Note_on_c, 12, 67, 39
13, 113348, Note_on_c, 12, 78, 0
13, 113350, Note_on_c, 12, 69, 0
13, 113700, Note_on_c, 12, 76, 0
13, 113714, Note_on_c, 12, 67, 0
13, 116267, Control_c, 12, 11, 50
13, 116267, Note_on_c, 12, 84, 47
13, 116273, Control_c, 12, 11, 54
13, 116279, Control_c, 12, 11, 56
13, 116285, Control_c, 12, 11, 59
13, 116291, Control_c, 12, 11, 61
13, 116297, Control_c, 12, 11, 63
13, 116303, Control_c, 12, 11, 65
13, 116309, Control_c, 12, 11, 67
13, 116315, Control_c, 12, 11, 68
13, 116321, Control_c, 12, 11, 69
13, 116327, Control_c, 12, 11, 70
13, 116333, Control_c, 12, 11, 71
13, 116339, Control_c, 12, 11, 72
13, 116345, Control_c, 12, 11, 73
13, 116351, Control_c, 12, 11, 74
13, 116357, Control_c, 12, 11, 75
13, 116369, Control_c, 12, 11, 76
13, 116381, Control_c, 12, 11, 77
13, 116399, Control_c, 12, 11, 79
13, 116417, Control_c, 12, 11, 80
13, 116435, Control_c, 12, 11, 81
13, 116453, Control_c, 12, 11, 82
13, 116471, Control_c, 12, 11, 83
13, 116489, Control_c, 12, 11, 84
13, 116507, Control_c, 12, 11, 85
13, 116519, Control_c, 12, 11, 86
13, 116537, Control_c, 12, 11, 87
13, 116555, Control_c, 12, 11, 88
13, 116573, Control_c, 12, 11, 89
13, 116583, Note_on_c, 12, 83, 50
13, 116591, Control_c, 12, 11, 90
13, 116609, Control_c, 12, 11, 91
13, 116627, Control_c, 12, 11, 92
13, 116632, Note_on_c, 12, 84, 0
13, 116639, Control_c, 12, 11, 93
13, 116657, Control_c, 12, 11, 94
13, 116675, Control_c, 12, 11, 95
13, 116693, Control_c, 12, 11, 96
13, 116711, Control_c, 12, 11, 97
13, 116729, Control_c, 12, 11, 98
13, 116747, Control_c, 12, 11, 99
13, 116759, Control_c, 12, 11, 100
13, 116760, Note_on_c, 12, 81, 49
13, 116801, Note_on_c, 12, 83, 0
13, 116918, Note_on_c, 12, 79, 47
13, 116951, Note_on_c, 12, 81, 0
13, 117063, Note_on_c, 12, 78, 45
13, 117099, Note_on_c, 12, 79, 0
13, 117234, Control_c, 12, 11, 100
13, 117234, Note_on_c, 12, 79, 42
13, 117245, Note_on_c, 12, 78, 0
13, 117282, Control_c, 12, 11, 99
13, 117324, Control_c, 12, 11, 98
13, 117366, Control_c, 12, 11, 97
13, 117398, Note_on_c, 12, 81, 39
13, 117408, Control_c, 12, 11, 96
13, 117449, Note_on_c, 12, 79, 0
13, 117450, Control_c, 12, 11, 95
13, 117492, Control_c, 12, 11, 94
13, 117534, Control_c, 12, 11, 93
13, 117576, Control_c, 12, 11, 92
13, 117582, Note_on_c, 12, 83, 32
13, 117618, Control_c, 12, 11, 91
13, 117637, Note_on_c, 12, 81, 0
13, 117660, Control_c, 12, 11, 90
13, 117702, Control_c, 12, 11, 89
13, 117744, Control_c, 12, 11, 88
13, 117786, Control_c, 12, 11, 87
13, 117828, Control_c, 12, 11, 86
13, 117870, Control_c, 12, 11, 85
13, 117886, Note_on_c, 12, 83, 0
13, 117912, Control_c, 12, 11, 84
13, 117954, Control_c, 12, 11, 83
13, 117996, Control_c, 12, 11, 82
13, 118038, Control_c, 12, 11, 81
13, 118080, Control_c, 12, 11, 80
13, 197456, Note_on_c, 12, 87, 101
13, 197459, Note_on_c, 12, 75, 108
13, 197751, Note_on_c, 12, 87, 0
13, 197758, Note_on_c, 12, 76, 107
13, 197761, Note_on_c, 12, 88, 104
13, 197779, Note_on_c, 12, 75, 0
13, 197902, Note_on_c, 12, 76, 0
13, 197910, Note_on_c, 12, 88, 0
13, 199001, Note_on_c, 12, 88, 120
13, 199003, Note_on_c, 12, 76, 124
13, 199268, Note_on_c, 12, 76, 0
13, 199271, Note_on_c, 12, 88, 0
13, 199276, Note_on_c, 12, 79, 111
13, 199282, Note_on_c, 12, 91, 111
13, 199422, Note_on_c, 12, 79, 0
13, 199422, Note_on_c, 12, 91, 0
13, 200470, Note_on_c, 12, 88, 120
13, 200473, Note_on_c, 12, 76, 121
13, 200726, Note_on_c, 12, 91, 102
13, 200732, Note_on_c, 12, 79, 98
13, 200740, Note_on_c, 12, 76, 0
13, 200756, Note_on_c, 12, 88, 0
13, 200866, Note_on_c, 12, 79, 0
13, 200868, Note_on_c, 12, 91, 0
13, 282528, Control_c, 12, 11, 60
13, 282528, Note_on_c, 12, 73, 93
13, 282598, Control_c, 12, 11, 61
13, 282668, Control_c, 12, 11, 62
13, 282738, Control_c, 12, 11, 63
13, 282808, Control_c, 12, 11, 64
13, 282878, Control_c, 12, 11, 65
13, 282948, Control_c, 12, 11, 66
13, 283018, Control_c, 12, 11, 67
13, 283019, Note_on_c, 12, 71, 86
13, 283063, Note_on_c, 12, 73, 0
13, 283088, Control_c, 12, 11, 68
13, 283158, Control_c, 12, 11, 69
13, 283228, Control_c, 12, 11, 70
13, 283298, Control_c, 12, 11, 71
13, 283363, Control_c, 12, 11, 72
13, 283433, Control_c, 12, 11, 73
13, 283503, Control_c, 12, 11, 74
13, 283573, Control_c, 12, 11, 75
13, 283643, Control_c, 12, 11, 76
13, 283667, Note_on_c, 12, 80, 106
13, 283692, Note_on_c, 12, 71, 0
13, 283713, Control_c, 12, 11, 77
13, 283783, Control_c, 12, 11, 78
13, 283853, Control_c, 12, 11, 79
13, 283920, Control_c, 12, 11, 80
13, 284079, Note_on_c, 12, 78, 110
13, 284104, Note_on_c, 12, 80, 0
13, 284257, Note_on_c, 12, 78, 0
13, 284267, Note_on_c, 12, 76, 109
13, 284482, Note_on_c, 12, 76, 0
13, 309598, Note_on_c, 12, 92, 108
13, 309600, Note_on_c, 12, 86, 93
13, 310600, Note_on_c, 12, 92, 0
13, 310613, Note_on_c, 12, 85, 108
13, 310615, Note_on_c, 12, 93, 103
13, 310626, Note_on_c, 12, 86, 0
13, 310848, Note_on_c, 12, 90, 109
13, 310878, Note_on_c, 12, 93, 0
13, 311073, Note_on_c, 12, 90, 0
13, 311088, Note_on_c, 12, 89, 103
13, 311090, Note_on_c, 12, 86, 100
13, 311095, Note_on_c, 12, 85, 0
13, 311512, Note_on_c, 12, 89, 0
13, 311550, Note_on_c, 12, 86, 0
13, 311553, Note_on_c, 12, 85, 107
13, 311555, Note_on_c, 12, 90, 109
13, 312040, Note_on_c, 12, 83, 84
13, 312043, Note_on_c, 12, 92, 106
13, 312046, Note_on_c, 12, 85, 0
13, 312065, Note_on_c, 12, 90, 0
13, 312282, Note_on_c, 12, 88, 102
13, 312297, Note_on_c, 12, 92, 0
13, 312484, Note_on_c, 12, 83, 0
13, 312523, Note_on_c, 12, 87, 114
13, 312526, Note_on_c, 12, 83, 84
13, 312550, Note_on_c, 12, 88, 0
13, 312985, Note_on_c, 12, 87, 0
13, 313016, Note_on_c, 12, 88, 113
13, 313235, Note_on_c, 12, 83, 0
13, 313262, Note_on_c, 12, 85, 113
13, 313547, Note_on_c, 12, 85, 0
13, 313548, Note_on_c, 12, 83, 84
13, 313557, Note_on_c, 12, 87, 113
13, 313590, Note_on_c, 12, 88, 0
13, 313800, Note_on_c, 12, 86, 98
13, 313826, Note_on_c, 12, 87, 0
13, 314013, Note_on_c, 12, 86, 0
13, 314027, Note_on_c, 12, 83, 0
13, 314036, Note_on_c, 12, 81, 101
13, 314039, Note_on_c, 12, 84, 94
13, 314259, Note_on_c, 12, 81, 0
13, 314287, Note_on_c, 12, 80, 108
13, 314293, Note_on_c, 12, 83, 98
13, 314320, Note_on_c, 12, 84, 0
13, 314509, Note_on_c, 12, 80, 0
13, 314540, Note_on_c, 12, 81, 96
13, 314559, Note_on_c, 12, 83, 0
13, 314788, Note_on_c, 12, 78, 120
13, 314991, Note_on_c, 12, 78, 0
13, 315014, Note_on_c, 12, 79, 96
13, 315022, Note_on_c, 12, 76, 107
13, 315031, Note_on_c, 12, 81, 0
13, 315268, Note_on_c, 12, 79, 0
13, 315268, Note_on_c, 12, 78, 114
13, 315497, Note_on_c, 12, 78, 0
13, 315521, Note_on_c, 12, 78, 105
13, 315521, Note_on_c, 12, 75, 120
13, 315536, Note_on_c, 12, 76, 0
13, 315628, Note_on_c, 12, 78, 0
13, 315628, Note_on_c, 12, 75, 0
13, 316756, Note_on_c, 12, 79, 116
13, 316762, Note_on_c, 12, 76, 125
13, 316826, Note_on_c, 12, 79, 0
13, 316832, Note_on_c, 12, 76, 0
13, 317002, Note_on_c, 12, 76, 118
13, 317002, Note_on_c, 12, 79, 113
13, 317090, Note_on_c, 12, 79, 0
13, 317092, Note_on_c, 12, 76, 0
13, 318212, Note_on_c, 12, 71, 114
13, 318214, Note_on_c, 12, 80, 114
13, 318276, Note_on_c, 12, 80, 0
13, 318284, Note_on_c, 12, 71, 0
13, 318453, Note_on_c, 12, 71, 118
13, 318455, Note_on_c, 12, 80, 118
13, 318528, Note_on_c, 12, 80, 0
13, 318532, Note_on_c, 12, 71, 0
13, 319648, Note_on_c, 12, 78, 123
13, 319649, Note_on_c, 12, 81, 120
13, 319744, Note_on_c, 12, 78, 0
13, 319752, Note_on_c, 12, 81, 0
13, 320338, Note_on_c, 12, 78, 125
13, 320338, Note_on_c, 12, 82, 120
13, 320403, Note_on_c, 12, 78, 0
13, 320411, Note_on_c, 12, 82, 0
13, 321062, Note_on_c, 12, 78, 120
13, 321062, Note_on_c, 12, 83, 113
13, 321109, Note_on_c, 12, 78, 0
13, 321109, Note_on_c, 12, 83, 0
13, 321332, Note_on_c, 12, 83, 90
13, 321335, Note_on_c, 12, 78, 83
13, 321496, Note_on_c, 12, 78, 0
13, 321564, Note_on_c, 12, 83, 0
13, 321570, Note_on_c, 12, 84, 107
13, 321575, Note_on_c, 12, 78, 94
13, 322231, Note_on_c, 12, 78, 0
13, 322263, Note_on_c, 12, 78, 84
13, 322268, Note_on_c, 12, 72, 101
13, 322293, Note_on_c, 12, 84, 0
13, 322498, Note_on_c, 12, 76, 92
13, 322506, Note_on_c, 12, 73, 116
13, 322536, Note_on_c, 12, 78, 0
13, 322539, Note_on_c, 12, 72, 0
13, 322720, Note_on_c, 12, 76, 0
13, 322731, Note_on_c, 12, 75, 113
13, 322762, Note_on_c, 12, 73, 0
13, 322935, Note_on_c, 12, 75, 0
13, 322978, Note_on_c, 12, 83, 93
13, 322984, Note_on_c, 12, 78, 93
13, 323139, Note_on_c, 12, 78, 0
13, 323201, Note_on_c, 12, 83, 0
13, 323220, Note_on_c, 12, 84, 101
13, 323228, Note_on_c, 12, 78, 91
13, 323468, Note_on_c, 12, 75, 108
13, 323502, Note_on_c, 12, 78, 0
13, 323602, Note_on_c, 12, 84, 0
13, 323698, Note_on_c, 12, 75, 0
13, 323707, Note_on_c, 12, 78, 108
13, 323713, Note_on_c, 12, 84, 98
13, 323922, Note_on_c, 12, 84, 0
13, 323938, Note_on_c, 12, 78, 0
13, 323951, Note_on_c, 12, 79, 106
13, 323961, Note_on_c, 12, 84, 76
13, 324204, Note_on_c, 12, 81, 109
13, 324234, Note_on_c, 12, 79, 0
13, 324397, Note_on_c, 12, 81, 0
13, 324423, Note_on_c, 12, 83, 98
13, 324426, Note_on_c, 12, 79, 88
13, 324439, Note_on_c, 12, 84, 0
13, 325039, Note_on_c, 12, 79, 0
13, 325057, Note_on_c, 12, 83, 0
13, 325071, Note_on_c, 12, 81, 86
13, 325071, Note_on_c, 12, 78, 112
13, 325803, Note_on_c, 12, 78, 0
13, 325818, Note_on_c, 12, 79, 106
13, 325818, Note_on_c, 12, 76, 102
13, 325823, Note_on_c, 12, 75, 91
13, 325832, Note_on_c, 12, 81, 0
13, 325844, Note_on_c, 12, 75, 0
13, 325992, Note_on_c, 12, 79, 0
13, 325996, Note_on_c, 12, 76, 0
13, 326773, Note_on_c, 12, 91, 64
13, 326777, Note_on_c, 12, 79, 58
13, 326936, Note_on_c, 12, 88, 59
13, 326937, Note_on_c, 12, 76, 53
13, 326966, Note_on_c, 12, 91, 0
13, 326999, Note_on_c, 12, 79, 0
13, 327137, Note_on_c, 12, 73, 57
13, 327145, Note_on_c, 12, 85, 60
13, 327159, Note_on_c, 12, 76, 0
13, 327172, Note_on_c, 12, 88, 0
13, 327205, Note_on_c, 12, 83, 51
13, 327208, Note_on_c, 12, 71, 45
13, 327223, Note_on_c, 12, 73, 0
13, 327223, Note_on_c, 12, 85, 0
13, 327473, Note_on_c, 12, 82, 37
13, 327495, Note_on_c, 12, 70, 32
13, 327506, Note_on_c, 12, 83, 0
13, 327527, Note_on_c, 12, 71, 0
13, 327633, Note_on_c, 12, 82, 0
13, 327635, Note_on_c, 12, 70, 0
13, 328453, Note_on_c, 12, 91, 57
13, 328457, Note_on_c, 12, 79, 41
13, 328611, Note_on_c, 12, 88, 52
13, 328616, Note_on_c, 12, 76, 35
13, 328634, Note_on_c, 12, 91, 0
13, 328642, Note_on_c, 12, 79, 0
13, 328811, Note_on_c, 12, 85, 52
13, 328820, Note_on_c, 12, 73, 54
13, 328839, Note_on_c, 12, 76, 0
13, 328843, Note_on_c, 12, 88, 0
13, 328890, Note_on_c, 12, 83, 51
13, 328906, Note_on_c, 12, 85, 0
13, 328913, Note_on_c, 12, 71, 47
13, 328934, Note_on_c, 12, 73, 0
13, 329168, Note_on_c, 12, 82, 48
13, 329173, Note_on_c, 12, 70, 42
13, 329192, Note_on_c, 12, 83, 0
13, 329214, Note_on_c, 12, 71, 0
13, 329353, Note_on_c, 12, 70, 0
13, 329360, Note_on_c, 12, 82, 0
13, 330326, Note_on_c, 12, 73, 109
13, 330326, Note_on_c, 12, 76, 109
13, 330546, Note_on_c, 12, 73, 0
13, 330549, Note_on_c, 12, 76, 0
13, 330568, Note_on_c, 12, 71, 101
13, 330570, Note_on_c, 12, 75, 108
13, 330731, Note_on_c, 12, 75, 0
13, 330757, Note_on_c, 12, 71, 0
13, 330805, Note_on_c, 12, 75, 109
13, 330807, Note_on_c, 12, 78, 113
13, 331027, Note_on_c, 12, 75, 0
13, 331048, Note_on_c, 12, 76, 111
13, 331051, Note_on_c, 12, 78, 0
13, 331270, Note_on_c, 12, 76, 0
13, 331291, Note_on_c, 12, 75, 109
13, 331293, Note_on_c, 12, 81, 113
13, 331524, Note_on_c, 12, 75, 0
13, 331529, Note_on_c, 12, 76, 103
13, 331533, Note_on_c, 12, 79, 106
13, 331551, Note_on_c, 12, 81, 0
13, 331647, Note_on_c, 12, 76, 0
13, 331698, Note_on_c, 12, 79, 0
13, 331764, Note_on_c, 12, 78, 113
13, 331765, Note_on_c, 12, 83, 112
13, 331860, Note_on_c, 12, 83, 0
13, 331891, Note_on_c, 12, 78, 0
13, 331979, Note_on_c, 12, 79, 98
13, 331993, Note_on_c, 12, 83, 100
13, 332049, Note_on_c, 12, 79, 0
13, 332053, Note_on_c, 12, 83, 0
13, 332101, Note_on_c, 12, 91, 116
13, 332167, Note_on_c, 12, 91, 0
13, 332222, Note_on_c, 12, 91, 121
13, 332224, Note_on_c, 12, 83, 104
13, 332353, Note_on_c, 12, 90, 98
13, 332376, Note_on_c, 12, 91, 0
13, 332468, Note_on_c, 12, 88, 103
13, 332492, Note_on_c, 12, 90, 0
13, 332573, Note_on_c, 12, 87, 112
13, 332608, Note_on_c, 12, 88, 0
13, 332646, Note_on_c, 12, 83, 0
13, 332671, Note_on_c, 12, 87, 0
13, 332681, Note_on_c, 12, 83, 93
13, 332682, Note_on_c, 12, 88, 102
13, 332742, Note_on_c, 12, 88, 0
13, 332746, Note_on_c, 12, 83, 0
13, 332796, Note_on_c, 12, 91, 114
13, 332852, Note_on_c, 12, 91, 0
13, 332903, Note_on_c, 12, 91, 121
13, 332904, Note_on_c, 12, 83, 108
13, 333033, Note_on_c, 12, 90, 93
13, 333061, Note_on_c, 12, 91, 0
13, 333143, Note_on_c, 12, 88, 96
13, 333169, Note_on_c, 12, 90, 0
13, 333243, Note_on_c, 12, 87, 108
13, 333272, Note_on_c, 12, 88, 0
13, 333322, Note_on_c, 12, 87, 0
13, 333323, Note_on_c, 12, 83, 0
13, 333359, Note_on_c, 12, 88, 107
13, 333363, Note_on_c, 12, 85, 118
13, 333440, Note_on_c, 12, 85, 0
13, 333443, Note_on_c, 12, 88, 0
13, 333595, Note_on_c, 12, 79, 86
13, 333596, Note_on_c, 12, 76, 93
13, 333817, Note_on_c, 12, 79, 0
13, 333823, Note_on_c, 12, 76, 0
13, 333838, Note_on_c, 12, 78, 103
13, 333838, Note_on_c, 12, 75, 107
13, 333992, Note_on_c, 12, 78, 0
13, 334016, Note_on_c, 12, 75, 0
13, 334065, Note_on_c, 12, 75, 112
13, 334066, Note_on_c, 12, 84, 109
13, 334256, Note_on_c, 12, 75, 0
13, 334272, Note_on_c, 12, 84, 0
13, 334275, Note_on_c, 12, 76, 107
13, 334282, Note_on_c, 12, 83, 104
13, 334478, Note_on_c, 12, 76, 0
13, 334500, Note_on_c, 12, 83, 0
13, 334514, Note_on_c, 12, 88, 108
13, 334516, Note_on_c, 12, 76, 107
13, 334699, Note_on_c, 12, 76, 0
13, 334707, Note_on_c, 12, 88, 0
13, 334740, Note_on_c, 12, 79, 109
13, 334753, Note_on_c, 12, 88, 102
13, 334825, Note_on_c, 12, 79, 0
13, 334839, Note_on_c, 12, 88, 0
13, 334867, Note_on_c, 12, 91, 116
13, 334938, Note_on_c, 12, 91, 0
13, 334984, Note_on_c, 12, 83, 113
13, 334987, Note_on_c, 12, 91, 116
13, 335112, Note_on_c, 12, 90, 97
13, 335144, Note_on_c, 12, 91, 0
13, 335238, Note_on_c, 12, 88, 89
13, 335260, Note_on_c, 12, 90, 0
13, 335339, Note_on_c, 12, 87, 107
13, 335369, Note_on_c, 12, 88, 0
13, 335426, Note_on_c, 12, 83, 0
13, 335434, Note_on_c, 12, 87, 0
13, 335465, Note_on_c, 12, 88, 101
13, 335468, Note_on_c, 12, 83, 97
13, 335541, Note_on_c, 12, 88, 0
13, 335546, Note_on_c, 12, 83, 0
13, 335580, Note_on_c, 12, 91, 113
13, 335648, Note_on_c, 12, 91, 0
13, 335699, Note_on_c, 12, 91, 116
13, 335702, Note_on_c, 12, 83, 114
13, 335840, Note_on_c, 12, 90, 93
13, 335868, Note_on_c, 12, 91, 0
13, 335971, Note_on_c, 12, 88, 84
13, 335996, Note_on_c, 12, 90, 0
13, 336080, Note_on_c, 12, 83, 0
13, 336085, Note_on_c, 12, 87, 86
13, 336093, Note_on_c, 12, 88, 0
13, 336184, Note_on_c, 12, 87, 0
13, 336225, Note_on_c, 12, 83, 111
13, 336234, Note_on_c, 12, 88, 107
13, 336331, Note_on_c, 12, 88, 0
13, 336343, Note_on_c, 12, 83, 0
13, 339386, Note_on_c, 12, 88, 44
13, 339391, Note_on_c, 12, 76, 44
13, 339449, Note_on_c, 12, 88, 0
13, 339453, Note_on_c, 12, 76, 0
13, 339526, Note_on_c, 12, 88, 57
13, 339533, Note_on_c, 12, 76, 53
13, 339647, Note_on_c, 12, 86, 52
13, 339662, Note_on_c, 12, 74, 45
13, 339690, Note_on_c, 12, 76, 0
13, 339704, Note_on_c, 12, 88, 0
13, 339781, Note_on_c, 12, 72, 42
13, 339799, Note_on_c, 12, 84, 45
13, 339814, Note_on_c, 12, 74, 0
13, 339861, Note_on_c, 12, 86, 0
13, 339895, Note_on_c, 12, 71, 39
13, 339903, Note_on_c, 12, 83, 40
13, 339933, Note_on_c, 12, 72, 0
13, 339941, Note_on_c, 12, 84, 0
13, 340042, Note_on_c, 12, 72, 32
13, 340047, Note_on_c, 12, 84, 32
13, 340070, Note_on_c, 12, 71, 0
13, 340072, Note_on_c, 12, 83, 0
13, 340164, Note_on_c, 12, 72, 0
13, 340165, Note_on_c, 12, 88, 47
13, 340173, Note_on_c, 12, 84, 0
13, 340176, Note_on_c, 12, 76, 39
13, 340229, Note_on_c, 12, 76, 0
13, 340231, Note_on_c, 12, 88, 0
13, 340287, Note_on_c, 12, 76, 47
13, 340296, Note_on_c, 12, 88, 54
13, 340407, Note_on_c, 12, 86, 49
13, 340412, Note_on_c, 12, 74, 37
13, 340414, Note_on_c, 12, 76, 0
13, 340436, Note_on_c, 12, 88, 0
13, 340531, Note_on_c, 12, 72, 37
13, 340536, Note_on_c, 12, 74, 0
13, 340545, Note_on_c, 12, 84, 44
13, 340598, Note_on_c, 12, 86, 0
13, 340657, Note_on_c, 12, 71, 35
13, 340662, Note_on_c, 12, 83, 40
13, 340684, Note_on_c, 12, 72, 0
13, 340688, Note_on_c, 12, 84, 0
13, 340803, Note_on_c, 12, 83, 0
13, 340806, Note_on_c, 12, 81, 35
13, 340818, Note_on_c, 12, 69, 29
13, 340830, Note_on_c, 12, 71, 0
13, 341000, Note_on_c, 12, 69, 0
13, 341008, Note_on_c, 12, 81, 0
13, 392697, Note_on_c, 12, 83, 82
13, 393222, Note_on_c, 12, 81, 85
13, 393260, Note_on_c, 12, 83, 0
13, 393500, Note_on_c, 12, 80, 76
13, 393583, Note_on_c, 12, 81, 0
13, 393901, Note_on_c, 12, 78, 80
13, 393939, Note_on_c, 12, 80, 0
13, 394066, Note_on_c, 12, 76, 64
13, 394074, Note_on_c, 12, 78, 0
13, 394325, Note_on_c, 12, 76, 0
13, 397179, Note_on_c, 12, 70, 98
13, 397441, Note_on_c, 12, 70, 0
13, 397449, Note_on_c, 12, 71, 97
13, 397947, Note_on_c, 12, 70, 108
13, 397974, Note_on_c, 12, 71, 0
13, 398099, Note_on_c, 12, 71, 109
13, 398110, Note_on_c, 12, 70, 0
13, 398237, Note_on_c, 12, 75, 115
13, 398254, Note_on_c, 12, 71, 0
13, 398399, Note_on_c, 12, 78, 109
13, 398415, Note_on_c, 12, 75, 0
13, 398496, Note_on_c, 12, 78, 0
13, 398664, Note_on_c, 12, 78, 108
13, 398746, Note_on_c, 12, 78, 0
13, 398922, Note_on_c, 12, 78, 108
13, 399010, Note_on_c, 12, 78, 0
13, 399195, Note_on_c, 12, 78, 110
13, 400321, Note_on_c, 12, 80, 98
13, 400369, Note_on_c, 12, 78, 0
13, 400590, Note_on_c, 12, 75, 105
13, 400624, Note_on_c, 12, 80, 0
13, 400912, Note_on_c, 12, 75, 0
13, 400914, Note_on_c, 12, 76, 99
13, 402620, Note_on_c, 12, 76, 0
13, 402699, Note_on_c, 12, 76, 92
13, 403159, Note_on_c, 12, 75, 98
13, 403189, Note_on_c, 12, 76, 0
13, 403315, Note_on_c, 12, 76, 97
13, 403333, Note_on_c, 12, 75, 0
13, 403451, Note_on_c, 12, 85, 107
13, 403482, Note_on_c, 12, 76, 0
13, 403624, Note_on_c, 12, 76, 91
13, 403645, Note_on_c, 12, 85, 0
13, 403900, Note_on_c, 12, 78, 104
13, 403925, Note_on_c, 12, 76, 0
13, 404196, Note_on_c, 12, 73, 103
13, 404205, Note_on_c, 12, 78, 0
13, 404513, Note_on_c, 12, 75, 88
13, 404531, Note_on_c, 12, 73, 0
13, 404815, Note_on_c, 12, 75, 0
13, 414062, Note_on_c, 12, 78, 52
13, 414064, Note_on_c, 12, 90, 78
13, 414608, Note_on_c, 12, 88, 83
13, 414627, Note_on_c, 12, 76, 52
13, 414643, Note_on_c, 12, 90, 0
13, 414655, Note_on_c, 12, 78, 0
13, 414897, Note_on_c, 12, 87, 94
13, 414898, Note_on_c, 12, 75, 63
13, 414953, Note_on_c, 12, 88, 0
13, 414959, Note_on_c, 12, 76, 0
13, 415293, Note_on_c, 12, 85, 78
13, 415295, Note_on_c, 12, 73, 72
13, 415320, Note_on_c, 12, 75, 0
13, 415323, Note_on_c, 12, 87, 0
13, 415468, Note_on_c, 12, 83, 69
13, 415477, Note_on_c, 12, 71, 51
13, 415497, Note_on_c, 12, 85, 0
13, 415527, Note_on_c, 12, 73, 0
13, 415654, Note_on_c, 12, 71, 0
13, 415732, Note_on_c, 12, 83, 0
13, 437282, Note_on_c, 12, 81, 92
13, 437283, Note_on_c, 12, 78, 81
13, 440175, Note_on_c, 12, 76, 82
13, 440176, Note_on_c, 12, 79, 87
13, 440199, Note_on_c, 12, 78, 0
13, 440206, Note_on_c, 12, 81, 0
13, 442093, Note_on_c, 12, 76, 0
13, 442100, Note_on_c, 12, 79, 0
13, 446077, Note_on_c, 12, 81, 92
13, 446077, Control_c, 12, 11, 80
13, 446080, Note_on_c, 12, 75, 89
13, 446087, Control_c, 12, 11, 79
13, 446097, Control_c, 12, 11, 78
13, 446117, Control_c, 12, 11, 77
13, 446137, Control_c, 12, 11, 76
13, 446157, Control_c, 12, 11, 75
13, 446177, Control_c, 12, 11, 74
13, 446197, Control_c, 12, 11, 73
13, 446207, Control_c, 12, 11, 72
13, 446227, Control_c, 12, 11, 71
13, 446257, Control_c, 12, 11, 70
13, 446277, Control_c, 12, 11, 69
13, 446297, Control_c, 12, 11, 68
13, 446317, Control_c, 12, 11, 67
13, 446337, Control_c, 12, 11, 66
13, 446367, Control_c, 12, 11, 65
13, 446387, Control_c, 12, 11, 64
13, 446417, Control_c, 12, 11, 63
13, 446437, Control_c, 12, 11, 62
13, 446467, Control_c, 12, 11, 61
13, 446497, Control_c, 12, 11, 60
13, 446527, Control_c, 12, 11, 59
13, 446557, Control_c, 12, 11, 58
13, 446587, Control_c, 12, 11, 57
13, 446617, Control_c, 12, 11, 56
13, 446657, Control_c, 12, 11, 55
13, 446697, Control_c, 12, 11, 54
13, 446747, Control_c, 12, 11, 53
13, 446797, Control_c, 12, 11, 52
13, 446857, Control_c, 12, 11, 51
13, 446937, Control_c, 12, 11, 50
13, 446983, Note_on_c, 12, 81, 0
13, 446983, Note_on_c, 12, 75, 0
13, 453600, Control_c, 12, 11, 80
13, 453898, Note_on_c, 12, 71, 86
13, 454191, Note_on_c, 12, 76, 86
13, 454485, Note_on_c, 12, 71, 0
13, 454490, Note_on_c, 12, 75, 95
13, 454499, Note_on_c, 12, 76, 0
13, 454503, Note_on_c, 12, 69, 28
13, 454631, Note_on_c, 12, 76, 100
13, 454652, Note_on_c, 12, 75, 0
13, 454783, Note_on_c, 12, 78, 103
13, 454787, Note_on_c, 12, 69, 0
13, 454790, Note_on_c, 12, 70, 45
13, 454804, Note_on_c, 12, 76, 0
13, 454991, Note_on_c, 12, 76, 92
13, 455001, Note_on_c, 12, 78, 0
13, 455036, Note_on_c, 12, 76, 0
13, 455046, Note_on_c, 12, 70, 0
13, 455059, Note_on_c, 12, 76, 106
13, 455079, Note_on_c, 12, 71, 49
13, 455365, Note_on_c, 12, 75, 92
13, 455368, Note_on_c, 12, 76, 0
13, 455452, Note_on_c, 12, 75, 0
13, 455492, Note_on_c, 12, 71, 0
13, 455647, Note_on_c, 12, 83, 103
13, 455658, Note_on_c, 12, 78, 99
13, 455871, Note_on_c, 12, 81, 82
13, 455874, Note_on_c, 12, 83, 0
13, 455928, Note_on_c, 12, 78, 0
13, 455953, Note_on_c, 12, 79, 96
13, 455956, Note_on_c, 12, 81, 0
13, 455958, Note_on_c, 12, 76, 65
13, 456044, Note_on_c, 12, 79, 0
13, 456050, Note_on_c, 12, 76, 0
13, 456230, Note_on_c, 12, 79, 104
13, 456242, Note_on_c, 12, 75, 95
13, 456423, Note_on_c, 12, 79, 0
13, 456448, Note_on_c, 12, 78, 73
13, 456470, Note_on_c, 12, 75, 0
13, 456531, Note_on_c, 12, 76, 85
13, 456534, Note_on_c, 12, 78, 0
13, 456618, Note_on_c, 12, 76, 0
13, 456809, Note_on_c, 12, 76, 92
13, 456817, Note_on_c, 12, 71, 90
13, 457028, Note_on_c, 12, 76, 0
13, 457036, Note_on_c, 12, 74, 73
13, 457101, Note_on_c, 12, 71, 0
13, 457119, Note_on_c, 12, 74, 0
13, 457120, Note_on_c, 12, 72, 84
13, 457127, Note_on_c, 12, 69, 48
13, 457229, Note_on_c, 12, 69, 0
13, 457232, Note_on_c, 12, 72, 0
13, 457391, Note_on_c, 12, 71, 73
13, 457410, Note_on_c, 12, 67, 48
13, 457687, Note_on_c, 12, 67, 0
13, 457838, Note_on_c, 12, 71, 0
13, 460935, Note_on_c, 12, 76, 96
13, 461104, Note_on_c, 12, 76, 0
13, 461216, Note_on_c, 12, 81, 99
13, 461220, Note_on_c, 12, 76, 51
13, 461437, Note_on_c, 12, 76, 0
13, 461493, Note_on_c, 12, 75, 72
13, 461497, Note_on_c, 12, 80, 100
13, 461522, Note_on_c, 12, 81, 0
13, 461647, Note_on_c, 12, 81, 103
13, 461669, Note_on_c, 12, 75, 0
13, 461677, Note_on_c, 12, 80, 0
13, 461783, Note_on_c, 12, 83, 106
13, 461791, Note_on_c, 12, 76, 66
13, 461801, Note_on_c, 12, 81, 0
13, 461917, Note_on_c, 12, 84, 106
13, 461926, Note_on_c, 12, 76, 0
13, 461953, Note_on_c, 12, 83, 0
13, 462036, Note_on_c, 12, 84, 0
13, 462069, Note_on_c, 12, 84, 108
13, 462071, Note_on_c, 12, 78, 78
13, 462358, Note_on_c, 12, 78, 0
13, 462360, Note_on_c, 12, 83, 101
13, 462375, Note_on_c, 12, 84, 0
13, 462492, Note_on_c, 12, 81, 88
13, 462524, Note_on_c, 12, 83, 0
13, 462624, Note_on_c, 12, 79, 86
13, 462636, Note_on_c, 12, 81, 0
13, 462742, Note_on_c, 12, 78, 98
13, 462778, Note_on_c, 12, 79, 0
13, 462893, Note_on_c, 12, 78, 0
13, 462911, Note_on_c, 12, 73, 113
13, 462919, Note_on_c, 12, 79, 104
13, 463050, Note_on_c, 12, 73, 0
13, 463074, Note_on_c, 12, 79, 0
13, 463354, Note_on_c, 12, 79, 78
13, 463515, Note_on_c, 12, 76, 71
13, 463530, Note_on_c, 12, 79, 0
13, 463731, Note_on_c, 12, 73, 72
13, 463767, Note_on_c, 12, 76, 0
13, 463806, Note_on_c, 12, 71, 47
13, 463832, Note_on_c, 12, 73, 0
13, 464112, Note_on_c, 12, 70, 52
13, 464132, Note_on_c, 12, 71, 0
13, 464263, Note_on_c, 12, 70, 0
13, 465861, Note_on_c, 12, 79, 82
13, 465862, Note_on_c, 12, 76, 103
13, 465932, Note_on_c, 12, 76, 0
13, 465940, Note_on_c, 12, 79, 0
13, 466158, Note_on_c, 12, 75, 114
13, 466159, Note_on_c, 12, 78, 109
13, 466249, Note_on_c, 12, 78, 0
13, 466252, Note_on_c, 12, 75, 0
13, 466440, Note_on_c, 12, 76, 106
13, 466448, Note_on_c, 12, 79, 98
13, 466548, Note_on_c, 12, 76, 0
13, 466566, Note_on_c, 12, 79, 0
13, 466924, Note_on_c, 12, 91, 94
13, 466928, Note_on_c, 12, 79, 54
13, 467091, Note_on_c, 12, 76, 57
13, 467094, Note_on_c, 12, 88, 72
13, 467099, Note_on_c, 12, 91, 0
13, 467117, Note_on_c, 12, 79, 0
13, 467311, Note_on_c, 12, 85, 80
13, 467324, Note_on_c, 12, 76, 0
13, 467324, Note_on_c, 12, 88, 0
13, 467328, Note_on_c, 12, 73, 68
13, 467395, Note_on_c, 12, 83, 60
13, 467404, Note_on_c, 12, 71, 38
13, 467405, Note_on_c, 12, 73, 0
13, 467417, Note_on_c, 12, 85, 0
13, 467706, Note_on_c, 12, 70, 33
13, 467708, Note_on_c, 12, 82, 59
13, 467751, Note_on_c, 12, 83, 0
13, 467768, Note_on_c, 12, 71, 0
13, 467902, Note_on_c, 12, 70, 0
13, 467904, Note_on_c, 12, 82, 0
13, 469563, Note_on_c, 12, 79, 88
13, 469565, Note_on_c, 12, 76, 99
13, 469639, Note_on_c, 12, 76, 0
13, 469641, Note_on_c, 12, 79, 0
13, 469828, Note_on_c, 12, 78, 88
13, 469831, Note_on_c, 12, 75, 90
13, 469922, Note_on_c, 12, 75, 0
13, 469931, Note_on_c, 12, 78, 0
13, 470136, Note_on_c, 12, 76, 93
13, 470240, Note_on_c, 12, 76, 0
13, 470420, Note_on_c, 12, 85, 93
13, 470422, Note_on_c, 12, 76, 79
13, 470485, Note_on_c, 12, 76, 0
13, 470501, Note_on_c, 12, 85, 0
13, 470718, Note_on_c, 12, 82, 101
13, 470724, Note_on_c, 12, 76, 75
13, 470802, Note_on_c, 12, 76, 0
13, 470826, Note_on_c, 12, 82, 0
13, 470999, Note_on_c, 12, 90, 108
13, 471008, Note_on_c, 12, 82, 82
13, 471095, Note_on_c, 12, 82, 0
13, 471103, Note_on_c, 12, 90, 0
13, 471305, Note_on_c, 12, 87, 109
13, 471310, Note_on_c, 12, 81, 85
13, 471397, Note_on_c, 12, 81, 0
13, 471404, Note_on_c, 12, 87, 0
13, 471621, Note_on_c, 12, 88, 93
13, 471623, Note_on_c, 12, 79, 72
13, 471741, Note_on_c, 12, 79, 0
13, 471743, Note_on_c, 12, 88, 0
13, 472061, Control_c, 12, 11, 80
13, 472061, Note_on_c, 12, 84, 80
13, 472072, Note_on_c, 12, 81, 64
13, 472547, Control_c, 12, 11, 79
13, 472649, Note_on_c, 12, 81, 0
13, 472699, Control_c, 12, 11, 78
13, 472780, Control_c, 12, 11, 77
13, 472847, Control_c, 12, 11, 76
13, 472889, Control_c, 12, 11, 75
13, 472932, Control_c, 12, 11, 74
13, 472965, Control_c, 12, 11, 73
13, 472994, Control_c, 12, 11, 72
13, 473018, Control_c, 12, 11, 71
13, 473042, Control_c, 12, 11, 70
13, 473061, Control_c, 12, 11, 69
13, 473080, Control_c, 12, 11, 68
13, 473099, Control_c, 12, 11, 67
13, 473118, Control_c, 12, 11, 66
13, 473127, Control_c, 12, 11, 65
13, 473146, Control_c, 12, 11, 64
13, 473161, Control_c, 12, 11, 63
13, 473170, Control_c, 12, 11, 62
13, 473184, Control_c, 12, 11, 61
13, 473194, Control_c, 12, 11, 60
13, 473203, Control_c, 12, 11, 59
13, 473213, Control_c, 12, 11, 58
13, 473222, Control_c, 12, 11, 57
13, 473232, Control_c, 12, 11, 56
13, 473241, Control_c, 12, 11, 55
13, 473251, Control_c, 12, 11, 54
13, 473260, Control_c, 12, 11, 53
13, 473265, Control_c, 12, 11, 52
13, 473275, Control_c, 12, 11, 51
13, 473279, Control_c, 12, 11, 50
13, 473962, Note_on_c, 12, 75, 67
13, 474022, Note_on_c, 12, 84, 0
13, 474456, Note_on_c, 12, 76, 51
13, 474530, Note_on_c, 12, 75, 0
13, 474907, Note_on_c, 12, 76, 0
13, 600360, Note_on_c, 12, 79, 90
13, 600369, Note_on_c, 12, 70, 72
13, 601170, Note_on_c, 12, 78, 88
13, 601225, Note_on_c, 12, 79, 0
13, 601693, Note_on_c, 12, 76, 82
13, 601705, Note_on_c, 12, 78, 0
13, 601908, Note_on_c, 12, 70, 0
13, 601995, Note_on_c, 12, 74, 72
13, 601996, Note_on_c, 12, 71, 56
13, 602021, Note_on_c, 12, 76, 0
13, 602244, Note_on_c, 12, 71, 0
13, 602271, Note_on_c, 12, 74, 0
13, 626920, Note_on_c, 12, 87, 70
13, 626920, Control_c, 12, 11, 50
13, 626921, Note_on_c, 12, 81, 68
13, 626960, Control_c, 12, 11, 51
13, 627030, Control_c, 12, 11, 52
13, 627100, Control_c, 12, 11, 53
13, 627170, Control_c, 12, 11, 54
13, 627240, Control_c, 12, 11, 55
13, 627310, Control_c, 12, 11, 56
13, 627380, Control_c, 12, 11, 57
13, 627450, Control_c, 12, 11, 58
13, 627530, Control_c, 12, 11, 59
13, 627600, Control_c, 12, 11, 60
13, 627670, Control_c, 12, 11, 61
13, 627740, Control_c, 12, 11, 62
13, 627810, Control_c, 12, 11, 63
13, 627880, Control_c, 12, 11, 64
13, 627950, Control_c, 12, 11, 65
13, 628020, Control_c, 12, 11, 66
13, 628090, Control_c, 12, 11, 67
13, 628160, Control_c, 12, 11, 68
13, 628230, Control_c, 12, 11, 69
13, 628300, Control_c, 12, 11, 70
13, 628370, Control_c, 12, 11, 71
13, 628440, Control_c, 12, 11, 72
13, 628510, Control_c, 12, 11, 73
13, 628580, Control_c, 12, 11, 74
13, 628650, Control_c, 12, 11, 75
13, 628730, Control_c, 12, 11, 76
13, 628800, Control_c, 12, 11, 77
13, 628870, Control_c, 12, 11, 78
13, 628940, Control_c, 12, 11, 79
13, 628961, Note_on_c, 12, 87, 0
13, 628966, Note_on_c, 12, 81, 0
13, 629010, Control_c, 12, 11, 80
13, 629038, Note_on_c, 12, 79, 106
13, 629039, Note_on_c, 12, 88, 108
13, 629598, Note_on_c, 12, 84, 99
13, 630418, Note_on_c, 12, 84, 0
13, 630420, Note_on_c, 12, 86, 83
13, 630426, Note_on_c, 12, 83, 80
13, 630427, Note_on_c, 12, 79, 0
13, 630429, Note_on_c, 12, 88, 0
13, 630672, Note_on_c, 12, 83, 0
13, 630696, Note_on_c, 12, 86, 0
13, 630700, Note_on_c, 12, 84, 98
13, 630701, Note_on_c, 12, 88, 102
13, 632083, Note_on_c, 12, 84, 0
13, 632101, Note_on_c, 12, 88, 0
13, 632109, Note_on_c, 12, 86, 96
13, 632111, Note_on_c, 12, 83, 84
13, 632429, Note_on_c, 12, 83, 0
13, 632444, Note_on_c, 12, 86, 0
13, 632452, Note_on_c, 12, 84, 93
13, 632453, Note_on_c, 12, 88, 103
13, 632654, Note_on_c, 12, 84, 0
13, 632665, Note_on_c, 12, 88, 0
13, 634666, Control_c, 12, 11, 50
13, 634666, Note_on_c, 12, 91, 25
13, 634672, Control_c, 12, 11, 57
13, 634675, Note_on_c, 12, 88, 28
13, 634678, Control_c, 12, 11, 63
13, 634684, Control_c, 12, 11, 67
13, 634690, Control_c, 12, 11, 70
13, 634696, Control_c, 12, 11, 72
13, 634702, Control_c, 12, 11, 74
13, 634708, Control_c, 12, 11, 75
13, 634714, Control_c, 12, 11, 77
13, 634726, Control_c, 12, 11, 78
13, 634732, Control_c, 12, 11, 79
13, 634750, Control_c, 12, 11, 80
13, 634800, Control_c, 12, 11, 80
13, 634836, Control_c, 12, 11, 79
13, 634872, Control_c, 12, 11, 78
13, 634908, Control_c, 12, 11, 77
13, 634944, Control_c, 12, 11, 76
13, 634980, Control_c, 12, 11, 75
13, 635016, Control_c, 12, 11, 74
13, 635052, Control_c, 12, 11, 73
13, 635088, Control_c, 12, 11, 72
13, 635124, Control_c, 12, 11, 71
13, 635160, Control_c, 12, 11, 70
13, 635196, Control_c, 12, 11, 69
13, 635232, Control_c, 12, 11, 68
13, 635268, Control_c, 12, 11, 67
13, 635304, Control_c, 12, 11, 66
13, 635340, Control_c, 12, 11, 65
13, 635376, Control_c, 12, 11, 64
13, 635412, Control_c, 12, 11, 63
13, 635448, Control_c, 12, 11, 62
13, 635484, Control_c, 12, 11, 61
13, 635519, Note_on_c, 12, 88, 0
13, 635520, Control_c, 12, 11, 60
13, 635623, Note_on_c, 12, 88, 30
13, 635626, Note_on_c, 12, 84, 25
13, 635661, Note_on_c, 12, 91, 0
13, 635850, Note_on_c, 12, 84, 0
13, 635890, Note_on_c, 12, 88, 0
13, 636449, Control_c, 12, 11, 50
13, 636449, Note_on_c, 12, 91, 41
13, 636452, Note_on_c, 12, 88, 37
13, 636455, Control_c, 12, 11, 54
13, 636461, Control_c, 12, 11, 57
13, 636467, Control_c, 12, 11, 60
13, 636473, Control_c, 12, 11, 62
13, 636479, Control_c, 12, 11, 65
13, 636485, Control_c, 12, 11, 67
13, 636491, Control_c, 12, 11, 68
13, 636497, Control_c, 12, 11, 69
13, 636503, Control_c, 12, 11, 71
13, 636509, Control_c, 12, 11, 72
13, 636515, Control_c, 12, 11, 73
13, 636521, Control_c, 12, 11, 74
13, 636527, Control_c, 12, 11, 75
13, 636539, Control_c, 12, 11, 76
13, 636545, Control_c, 12, 11, 77
13, 636563, Control_c, 12, 11, 78
13, 636581, Control_c, 12, 11, 79
13, 636617, Control_c, 12, 11, 80
13, 637014, Note_on_c, 12, 90, 45
13, 637014, Note_on_c, 12, 87, 42
13, 637034, Note_on_c, 12, 91, 0
13, 637057, Note_on_c, 12, 88, 0
13, 637303, Note_on_c, 12, 89, 43
13, 637312, Note_on_c, 12, 87, 0
13, 637314, Note_on_c, 12, 86, 40
13, 637315, Note_on_c, 12, 90, 0
13, 637589, Note_on_c, 12, 84, 39
13, 637600, Note_on_c, 12, 88, 37
13, 637616, Note_on_c, 12, 86, 0
13, 637649, Note_on_c, 12, 89, 0
13, 637850, Note_on_c, 12, 84, 0
13, 637912, Note_on_c, 12, 84, 35
13, 637917, Note_on_c, 12, 81, 22
13, 637920, Note_on_c, 12, 88, 0
13, 638236, Note_on_c, 12, 81, 0
13, 638237, Control_c, 12, 11, 80
13, 638237, Note_on_c, 12, 83, 45
13, 638238, Note_on_c, 12, 79, 38
13, 638277, Note_on_c, 12, 84, 0
13, 638285, Control_c, 12, 11, 79
13, 638327, Control_c, 12, 11, 78
13, 638375, Control_c, 12, 11, 77
13, 638417, Control_c, 12, 11, 76
13, 638459, Control_c, 12, 11, 75
13, 638507, Control_c, 12, 11, 74
13, 638549, Control_c, 12, 11, 73
13, 638591, Control_c, 12, 11, 72
13, 638639, Control_c, 12, 11, 71
13, 638681, Control_c, 12, 11, 70
13, 638723, Control_c, 12, 11, 69
13, 638771, Control_c, 12, 11, 68
13, 638813, Control_c, 12, 11, 67
13, 638855, Control_c, 12, 11, 66
13, 638903, Control_c, 12, 11, 65
13, 638945, Control_c, 12, 11, 64
13, 638987, Control_c, 12, 11, 63
13, 639035, Control_c, 12, 11, 62
13, 639077, Control_c, 12, 11, 61
13, 639119, Control_c, 12, 11, 60
13, 639187, Note_on_c, 12, 79, 0
13, 639253, Control_c, 12, 11, 80
13, 639253, Note_on_c, 12, 79, 45
13, 639278, Note_on_c, 12, 71, 36
13, 639313, Control_c, 12, 11, 79
13, 639331, Note_on_c, 12, 83, 0
13, 639367, Control_c, 12, 11, 78
13, 639421, Control_c, 12, 11, 77
13, 639475, Control_c, 12, 11, 76
13, 639529, Control_c, 12, 11, 75
13, 639583, Control_c, 12, 11, 74
13, 639637, Control_c, 12, 11, 73
13, 639697, Control_c, 12, 11, 72
13, 639751, Control_c, 12, 11, 71
13, 639805, Control_c, 12, 11, 70
13, 639859, Control_c, 12, 11, 69
13, 639913, Control_c, 12, 11, 68
13, 639951, Note_on_c, 12, 78, 51
13, 639963, Note_on_c, 12, 69, 45
13, 639967, Control_c, 12, 11, 67
13, 640011, Note_on_c, 12, 79, 0
13, 640021, Control_c, 12, 11, 66
13, 640052, Note_on_c, 12, 71, 0
13, 640081, Control_c, 12, 11, 65
13, 640135, Control_c, 12, 11, 64
13, 640189, Control_c, 12, 11, 63
13, 640243, Control_c, 12, 11, 62
13, 640297, Control_c, 12, 11, 61
13, 640351, Control_c, 12, 11, 60
13, 640351, Note_on_c, 12, 76, 49
13, 640367, Note_on_c, 12, 67, 39
13, 640388, Note_on_c, 12, 78, 0
13, 640390, Note_on_c, 12, 69, 0
13, 640740, Note_on_c, 12, 76, 0
13, 640754, Note_on_c, 12, 67, 0
13, 645840, Control_c, 12, 11, 100
13, 645908, Note_on_c, 12, 76, 100
13, 645914, Note_on_c, 12, 88, 93
13, 646209, Note_on_c, 12, 88, 0
13, 646220, Note_on_c, 12, 76, 0
13, 647094, Note_on_c, 12, 64, 95
13, 647281, Note_on_c, 12, 64, 0
13, 647300, Note_on_c, 12, 64, 90
13, 649265, Note_on_c, 12, 64, 0
13, 649440, End_track
14, 0, Start_track
14, 0, Title_t, "Oboi                                "
14, 0, Control_c, 13, 121, 0
14, 80, Control_c, 13, 101, 0
14, 100, Control_c, 13, 100, 0
14, 120, Control_c, 13, 6, 12
14, 140, Control_c, 13, 10, 52
14, 160, Control_c, 13, 7, 100
14, 180, Control_c, 13, 0, 0
14, 200, Control_c, 13, 32, 0
14, 220, Program_c, 13, 68
14, 240, Control_c, 13, 91, 80
14, 260, Control_c, 13, 93, 24
14, 280, Control_c, 13, 1, 16
14, 300, Control_c, 13, 11, 80
14, 320, Pitch_bend_c, 13, 8192
14, 340, Control_c, 13, 99, 1
14, 360, Control_c, 13, 98, 32
14, 380, Control_c, 13, 6, 80
14, 400, Control_c, 13, 98, 33
14, 420, Control_c, 13, 6, 62
14, 440, Control_c, 13, 98, 100
14, 460, Control_c, 13, 6, 64
14, 480, Control_c, 13, 98, 102
14, 500, Control_c, 13, 6, 64
14, 520, Control_c, 13, 98, 99
14, 705, Control_c, 13, 6, 64
14, 2293, Note_on_c, 13, 64, 83
14, 2594, Note_on_c, 13, 64, 0
14, 2599, Note_on_c, 13, 71, 75
14, 2612, Note_on_c, 13, 66, 56
14, 3181, Note_on_c, 13, 66, 0
14, 3192, Note_on_c, 13, 68, 72
14, 3734, Note_on_c, 13, 68, 0
14, 3768, Note_on_c, 13, 71, 0
14, 3770, Note_on_c, 13, 69, 73
14, 3911, Note_on_c, 13, 69, 0
14, 4055, Note_on_c, 13, 70, 84
14, 4067, Note_on_c, 13, 67, 60
14, 4193, Note_on_c, 13, 67, 0
14, 4206, Note_on_c, 13, 70, 0
14, 4339, Note_on_c, 13, 71, 82
14, 4344, Note_on_c, 13, 67, 60
14, 4468, Note_on_c, 13, 71, 0
14, 4471, Note_on_c, 13, 67, 0
14, 4639, Note_on_c, 13, 71, 70
14, 4645, Note_on_c, 13, 66, 70
14, 4718, Note_on_c, 13, 66, 0
14, 4740, Note_on_c, 13, 71, 0
14, 4952, Note_on_c, 13, 78, 103
14, 4960, Note_on_c, 13, 71, 82
14, 5225, Note_on_c, 13, 78, 0
14, 5232, Note_on_c, 13, 79, 70
14, 5381, Note_on_c, 13, 79, 0
14, 5388, Note_on_c, 13, 71, 0
14, 5521, Note_on_c, 13, 75, 96
14, 5525, Note_on_c, 13, 69, 71
14, 5714, Note_on_c, 13, 69, 0
14, 5803, Note_on_c, 13, 76, 70
14, 5812, Note_on_c, 13, 67, 36
14, 5840, Note_on_c, 13, 75, 0
14, 5902, Note_on_c, 13, 76, 0
14, 5975, Note_on_c, 13, 67, 0
14, 6089, Note_on_c, 13, 71, 76
14, 6092, Note_on_c, 13, 65, 63
14, 6387, Note_on_c, 13, 72, 69
14, 6397, Note_on_c, 13, 71, 0
14, 6398, Note_on_c, 13, 64, 57
14, 6403, Note_on_c, 13, 65, 0
14, 6562, Note_on_c, 13, 72, 0
14, 6663, Note_on_c, 13, 67, 53
14, 6948, Note_on_c, 13, 66, 62
14, 6971, Note_on_c, 13, 67, 0
14, 6988, Note_on_c, 13, 64, 0
14, 7245, Note_on_c, 13, 66, 0
14, 7260, Control_c, 13, 11, 80
14, 7260, Note_on_c, 13, 67, 71
14, 7274, Note_on_c, 13, 64, 52
14, 7274, Control_c, 13, 11, 79
14, 7288, Control_c, 13, 11, 78
14, 7302, Control_c, 13, 11, 77
14, 7316, Control_c, 13, 11, 76
14, 7330, Control_c, 13, 11, 75
14, 7344, Control_c, 13, 11, 74
14, 7358, Control_c, 13, 11, 73
14, 7372, Control_c, 13, 11, 72
14, 7386, Control_c, 13, 11, 71
14, 7400, Control_c, 13, 11, 70
14, 7414, Control_c, 13, 11, 69
14, 7428, Control_c, 13, 11, 68
14, 7442, Control_c, 13, 11, 67
14, 7456, Control_c, 13, 11, 66
14, 7470, Control_c, 13, 11, 65
14, 7484, Control_c, 13, 11, 64
14, 7498, Control_c, 13, 11, 63
14, 7512, Control_c, 13, 11, 62
14, 7526, Control_c, 13, 11, 61
14, 7540, Control_c, 13, 11, 60
14, 7554, Control_c, 13, 11, 59
14, 7568, Control_c, 13, 11, 58
14, 7582, Control_c, 13, 11, 57
14, 7596, Control_c, 13, 11, 56
14, 7610, Control_c, 13, 11, 55
14, 7624, Control_c, 13, 11, 54
14, 7638, Control_c, 13, 11, 53
14, 7652, Control_c, 13, 11, 52
14, 7666, Control_c, 13, 11, 51
14, 7679, Control_c, 13, 11, 50
14, 8175, Note_on_c, 13, 66, 81
14, 8178, Note_on_c, 13, 63, 68
14, 8180, Note_on_c, 13, 64, 0
14, 8188, Note_on_c, 13, 67, 0
14, 8305, Note_on_c, 13, 63, 0
14, 8308, Note_on_c, 13, 66, 0
14, 8474, Control_c, 13, 11, 80
14, 8474, Note_on_c, 13, 68, 100
14, 8480, Note_on_c, 13, 62, 71
14, 8750, Note_on_c, 13, 69, 86
14, 8759, Note_on_c, 13, 60, 76
14, 8769, Note_on_c, 13, 62, 0
14, 8794, Note_on_c, 13, 68, 0
14, 9088, Note_on_c, 13, 60, 0
14, 9282, Note_on_c, 13, 69, 0
14, 9347, Note_on_c, 13, 69, 89
14, 9589, Note_on_c, 13, 69, 0
14, 9632, Note_on_c, 13, 76, 94
14, 9639, Note_on_c, 13, 71, 77
14, 10207, Note_on_c, 13, 73, 90
14, 10216, Note_on_c, 13, 71, 0
14, 10488, Note_on_c, 13, 73, 0
14, 10504, Note_on_c, 13, 72, 94
14, 10761, Note_on_c, 13, 76, 0
14, 10791, Note_on_c, 13, 75, 91
14, 11043, Note_on_c, 13, 72, 0
14, 11060, Note_on_c, 13, 75, 0
14, 11069, Note_on_c, 13, 76, 102
14, 11072, Note_on_c, 13, 72, 84
14, 11345, Note_on_c, 13, 72, 0
14, 11360, Note_on_c, 13, 78, 106
14, 11366, Note_on_c, 13, 72, 82
14, 11369, Note_on_c, 13, 76, 0
14, 11644, Note_on_c, 13, 71, 60
14, 11651, Note_on_c, 13, 72, 0
14, 11791, Note_on_c, 13, 71, 0
14, 11805, Note_on_c, 13, 78, 0
14, 12189, Note_on_c, 13, 79, 98
14, 12192, Note_on_c, 13, 70, 89
14, 12341, Note_on_c, 13, 70, 0
14, 12361, Note_on_c, 13, 79, 0
14, 15152, Note_on_c, 13, 67, 78
14, 15154, Note_on_c, 13, 73, 91
14, 15219, Note_on_c, 13, 67, 0
14, 15240, Note_on_c, 13, 73, 0
14, 15429, Note_on_c, 13, 72, 106
14, 15539, Note_on_c, 13, 72, 0
14, 15738, Note_on_c, 13, 73, 86
14, 15746, Note_on_c, 13, 70, 73
14, 15866, Note_on_c, 13, 70, 0
14, 15884, Note_on_c, 13, 73, 0
14, 18832, Note_on_c, 13, 73, 80
14, 18836, Note_on_c, 13, 67, 76
14, 18895, Note_on_c, 13, 67, 0
14, 18925, Note_on_c, 13, 73, 0
14, 19126, Note_on_c, 13, 72, 81
14, 19228, Note_on_c, 13, 72, 0
14, 19420, Note_on_c, 13, 70, 94
14, 19504, Note_on_c, 13, 70, 0
14, 19706, Note_on_c, 13, 73, 93
14, 19711, Note_on_c, 13, 70, 98
14, 19755, Note_on_c, 13, 70, 0
14, 19779, Note_on_c, 13, 73, 0
14, 20012, Note_on_c, 13, 70, 98
14, 20021, Note_on_c, 13, 73, 84
14, 20060, Note_on_c, 13, 73, 0
14, 20302, Note_on_c, 13, 76, 81
14, 20422, Note_on_c, 13, 76, 0
14, 20440, Note_on_c, 13, 70, 0
14, 20596, Note_on_c, 13, 69, 90
14, 20603, Note_on_c, 13, 78, 96
14, 20687, Note_on_c, 13, 78, 0
14, 20695, Note_on_c, 13, 69, 0
14, 20905, Note_on_c, 13, 67, 79
14, 20906, Note_on_c, 13, 76, 76
14, 21018, Note_on_c, 13, 67, 0
14, 21022, Note_on_c, 13, 76, 0
14, 21319, Note_on_c, 13, 76, 68
14, 21323, Note_on_c, 13, 66, 65
14, 22078, Note_on_c, 13, 66, 0
14, 22079, Note_on_c, 13, 76, 0
14, 34455, Control_c, 13, 11, 80
14, 34455, Note_on_c, 13, 69, 50
14, 34500, Control_c, 13, 11, 81
14, 34545, Control_c, 13, 11, 82
14, 34589, Control_c, 13, 11, 83
14, 34600, Note_on_c, 13, 71, 57
14, 34603, Note_on_c, 13, 69, 0
14, 34634, Control_c, 13, 11, 84
14, 34678, Control_c, 13, 11, 85
14, 34720, Note_on_c, 13, 72, 69
14, 34723, Control_c, 13, 11, 86
14, 34734, Note_on_c, 13, 71, 0
14, 34768, Control_c, 13, 11, 87
14, 34812, Control_c, 13, 11, 88
14, 34857, Control_c, 13, 11, 89
14, 34901, Control_c, 13, 11, 90
14, 34946, Control_c, 13, 11, 91
14, 34991, Control_c, 13, 11, 92
14, 35035, Control_c, 13, 11, 93
14, 35080, Control_c, 13, 11, 94
14, 35124, Control_c, 13, 11, 95
14, 35169, Control_c, 13, 11, 96
14, 35183, Note_on_c, 13, 72, 0
14, 35214, Control_c, 13, 11, 97
14, 35255, Note_on_c, 13, 74, 68
14, 35258, Control_c, 13, 11, 98
14, 35261, Note_on_c, 13, 71, 52
14, 35303, Control_c, 13, 11, 99
14, 35347, Control_c, 13, 11, 100
14, 35392, Control_c, 13, 11, 101
14, 35437, Control_c, 13, 11, 102
14, 35481, Control_c, 13, 11, 103
14, 35526, Control_c, 13, 11, 104
14, 35570, Control_c, 13, 11, 105
14, 35615, Control_c, 13, 11, 106
14, 35660, Control_c, 13, 11, 107
14, 35704, Control_c, 13, 11, 108
14, 35749, Control_c, 13, 11, 109
14, 35793, Control_c, 13, 11, 110
14, 35838, Control_c, 13, 11, 111
14, 35883, Control_c, 13, 11, 112
14, 35927, Control_c, 13, 11, 113
14, 35972, Control_c, 13, 11, 114
14, 36016, Control_c, 13, 11, 115
14, 36032, Note_on_c, 13, 71, 0
14, 36037, Note_on_c, 13, 72, 74
14, 36037, Note_on_c, 13, 69, 77
14, 36061, Control_c, 13, 11, 116
14, 36092, Note_on_c, 13, 74, 0
14, 36106, Control_c, 13, 11, 117
14, 36133, Note_on_c, 13, 69, 0
14, 36143, Note_on_c, 13, 72, 0
14, 36150, Control_c, 13, 11, 118
14, 36195, Control_c, 13, 11, 119
14, 36239, Control_c, 13, 11, 120
14, 36301, Control_c, 13, 11, 80
14, 36301, Note_on_c, 13, 74, 90
14, 36301, Note_on_c, 13, 68, 103
14, 36597, Note_on_c, 13, 68, 0
14, 36598, Note_on_c, 13, 72, 86
14, 36600, Note_on_c, 13, 69, 70
14, 36602, Note_on_c, 13, 74, 0
14, 36702, Note_on_c, 13, 71, 80
14, 36711, Note_on_c, 13, 69, 0
14, 36711, Note_on_c, 13, 74, 86
14, 36713, Note_on_c, 13, 72, 0
14, 36835, Note_on_c, 13, 72, 85
14, 36839, Note_on_c, 13, 69, 84
14, 36841, Note_on_c, 13, 71, 0
14, 36874, Note_on_c, 13, 74, 0
14, 36913, Note_on_c, 13, 69, 0
14, 36924, Note_on_c, 13, 72, 0
14, 37081, Note_on_c, 13, 68, 105
14, 37082, Note_on_c, 13, 74, 104
14, 37360, Note_on_c, 13, 68, 0
14, 37365, Note_on_c, 13, 69, 84
14, 37367, Note_on_c, 13, 72, 85
14, 37373, Note_on_c, 13, 74, 0
14, 37479, Note_on_c, 13, 69, 0
14, 37482, Note_on_c, 13, 72, 0
14, 37483, Note_on_c, 13, 74, 81
14, 37485, Note_on_c, 13, 71, 56
14, 37590, Note_on_c, 13, 71, 0
14, 37614, Note_on_c, 13, 69, 69
14, 37617, Note_on_c, 13, 72, 78
14, 37623, Note_on_c, 13, 74, 0
14, 37698, Note_on_c, 13, 72, 0
14, 37881, Note_on_c, 13, 78, 109
14, 37993, Note_on_c, 13, 69, 0
14, 38012, Note_on_c, 13, 66, 80
14, 38121, Note_on_c, 13, 66, 0
14, 38136, Note_on_c, 13, 67, 80
14, 38145, Note_on_c, 13, 79, 82
14, 38167, Note_on_c, 13, 78, 0
14, 38265, Note_on_c, 13, 67, 0
14, 38268, Note_on_c, 13, 78, 81
14, 38269, Note_on_c, 13, 69, 59
14, 38276, Note_on_c, 13, 79, 0
14, 38362, Note_on_c, 13, 69, 0
14, 38387, Note_on_c, 13, 78, 0
14, 38400, Note_on_c, 13, 67, 71
14, 38403, Note_on_c, 13, 76, 80
14, 38486, Note_on_c, 13, 67, 0
14, 38492, Note_on_c, 13, 76, 0
14, 38656, Note_on_c, 13, 66, 95
14, 38657, Note_on_c, 13, 78, 105
14, 38927, Note_on_c, 13, 66, 0
14, 38929, Note_on_c, 13, 67, 72
14, 38930, Note_on_c, 13, 79, 82
14, 38951, Note_on_c, 13, 78, 0
14, 39052, Note_on_c, 13, 79, 0
14, 39052, Note_on_c, 13, 78, 86
14, 39056, Note_on_c, 13, 67, 0
14, 39057, Note_on_c, 13, 69, 65
14, 39177, Note_on_c, 13, 78, 0
14, 39189, Note_on_c, 13, 69, 0
14, 39205, Note_on_c, 13, 67, 77
14, 39206, Note_on_c, 13, 76, 80
14, 39286, Note_on_c, 13, 67, 0
14, 39290, Note_on_c, 13, 76, 0
14, 39447, Note_on_c, 13, 79, 97
14, 39456, Note_on_c, 13, 64, 87
14, 39571, Note_on_c, 13, 78, 91
14, 39572, Note_on_c, 13, 66, 81
14, 39591, Note_on_c, 13, 64, 0
14, 39594, Note_on_c, 13, 79, 0
14, 39622, Note_on_c, 13, 66, 0
14, 39638, Note_on_c, 13, 78, 0
14, 39715, Note_on_c, 13, 66, 97
14, 39717, Note_on_c, 13, 78, 101
14, 39834, Note_on_c, 13, 67, 88
14, 39838, Note_on_c, 13, 76, 94
14, 39842, Note_on_c, 13, 78, 0
14, 39858, Note_on_c, 13, 66, 0
14, 39970, Note_on_c, 13, 75, 109
14, 39975, Note_on_c, 13, 66, 104
14, 39994, Note_on_c, 13, 67, 0
14, 39996, Note_on_c, 13, 76, 0
14, 40069, Note_on_c, 13, 66, 0
14, 40073, Note_on_c, 13, 75, 0
14, 40097, Note_on_c, 13, 79, 90
14, 40098, Note_on_c, 13, 64, 91
14, 40150, Note_on_c, 13, 79, 0
14, 40150, Note_on_c, 13, 64, 0
14, 40236, Note_on_c, 13, 79, 108
14, 40244, Note_on_c, 13, 64, 102
14, 40367, Note_on_c, 13, 78, 100
14, 40367, Note_on_c, 13, 66, 98
14, 40386, Note_on_c, 13, 64, 0
14, 40393, Note_on_c, 13, 79, 0
14, 40420, Note_on_c, 13, 66, 0
14, 40432, Note_on_c, 13, 78, 0
14, 40508, Note_on_c, 13, 66, 109
14, 40513, Note_on_c, 13, 78, 112
14, 40628, Note_on_c, 13, 78, 0
14, 40639, Note_on_c, 13, 76, 100
14, 40640, Note_on_c, 13, 67, 96
14, 40657, Note_on_c, 13, 66, 0
14, 40730, Note_on_c, 13, 76, 0
14, 40740, Note_on_c, 13, 67, 0
14, 40773, Note_on_c, 13, 75, 101
14, 40774, Note_on_c, 13, 66, 99
14, 40871, Note_on_c, 13, 66, 0
14, 40874, Note_on_c, 13, 75, 0
14, 41052, Note_on_c, 13, 78, 113
14, 41053, Note_on_c, 13, 71, 104
14, 41595, Note_on_c, 13, 78, 0
14, 41626, Note_on_c, 13, 76, 108
14, 42124, Note_on_c, 13, 73, 113
14, 42151, Note_on_c, 13, 71, 0
14, 42345, Note_on_c, 13, 73, 0
14, 42357, Note_on_c, 13, 76, 0
14, 42372, Note_on_c, 13, 71, 94
14, 42379, Note_on_c, 13, 78, 99
14, 43184, Note_on_c, 13, 78, 0
14, 43193, Note_on_c, 13, 76, 104
14, 43663, Note_on_c, 13, 73, 109
14, 43686, Note_on_c, 13, 71, 0
14, 43874, Note_on_c, 13, 73, 0
14, 43946, Note_on_c, 13, 76, 0
14, 43952, Note_on_c, 13, 75, 106
14, 43955, Note_on_c, 13, 83, 107
14, 44118, Note_on_c, 13, 75, 0
14, 44136, Note_on_c, 13, 83, 0
14, 80477, Note_on_c, 13, 69, 60
14, 80759, Note_on_c, 13, 68, 72
14, 80776, Note_on_c, 13, 69, 0
14, 81138, Note_on_c, 13, 68, 0
14, 83203, Control_c, 13, 11, 60
14, 83203, Note_on_c, 13, 71, 71
14, 83257, Control_c, 13, 11, 61
14, 83311, Control_c, 13, 11, 62
14, 83359, Control_c, 13, 11, 63
14, 83413, Control_c, 13, 11, 64
14, 83467, Control_c, 13, 11, 65
14, 83515, Control_c, 13, 11, 66
14, 83569, Control_c, 13, 11, 67
14, 83623, Control_c, 13, 11, 68
14, 83671, Control_c, 13, 11, 69
14, 83725, Control_c, 13, 11, 70
14, 83773, Control_c, 13, 11, 71
14, 83792, Note_on_c, 13, 69, 70
14, 83798, Note_on_c, 13, 71, 0
14, 83827, Control_c, 13, 11, 72
14, 83881, Control_c, 13, 11, 73
14, 83929, Control_c, 13, 11, 74
14, 83983, Control_c, 13, 11, 75
14, 84037, Control_c, 13, 11, 76
14, 84076, Note_on_c, 13, 69, 0
14, 84085, Control_c, 13, 11, 77
14, 84096, Note_on_c, 13, 68, 70
14, 84100, Note_on_c, 13, 71, 80
14, 84139, Control_c, 13, 11, 78
14, 84193, Control_c, 13, 11, 79
14, 84240, Control_c, 13, 11, 80
14, 84422, Note_on_c, 13, 71, 0
14, 84423, Note_on_c, 13, 68, 0
14, 84474, Note_on_c, 13, 67, 90
14, 84499, Note_on_c, 13, 73, 71
14, 84906, Note_on_c, 13, 67, 0
14, 84944, Note_on_c, 13, 64, 93
14, 85073, Note_on_c, 13, 66, 106
14, 85095, Note_on_c, 13, 64, 0
14, 85209, Note_on_c, 13, 67, 99
14, 85234, Note_on_c, 13, 66, 0
14, 85351, Note_on_c, 13, 67, 0
14, 85365, Note_on_c, 13, 73, 0
14, 85377, Note_on_c, 13, 66, 103
14, 85383, Note_on_c, 13, 71, 94
14, 86238, Note_on_c, 13, 72, 98
14, 86262, Note_on_c, 13, 71, 0
14, 86403, Note_on_c, 13, 72, 0
14, 86430, Note_on_c, 13, 66, 0
14, 86515, Note_on_c, 13, 73, 110
14, 86516, Note_on_c, 13, 64, 99
14, 86763, Note_on_c, 13, 64, 0
14, 86791, Note_on_c, 13, 66, 94
14, 87029, Note_on_c, 13, 73, 0
14, 87066, Note_on_c, 13, 66, 0
14, 87067, Note_on_c, 13, 71, 91
14, 87072, Note_on_c, 13, 68, 81
14, 87610, Note_on_c, 13, 71, 0
14, 87619, Note_on_c, 13, 68, 0
14, 87652, Note_on_c, 13, 70, 97
14, 87653, Note_on_c, 13, 66, 91
14, 87940, Note_on_c, 13, 70, 0
14, 87949, Note_on_c, 13, 71, 92
14, 87952, Note_on_c, 13, 66, 0
14, 87955, Note_on_c, 13, 64, 86
14, 88250, Note_on_c, 13, 70, 84
14, 88276, Note_on_c, 13, 71, 0
14, 88787, Note_on_c, 13, 64, 0
14, 88803, Note_on_c, 13, 70, 0
14, 88845, Note_on_c, 13, 71, 83
14, 88848, Note_on_c, 13, 66, 91
14, 89668, Note_on_c, 13, 66, 0
14, 89707, Note_on_c, 13, 72, 93
14, 89715, Note_on_c, 13, 66, 97
14, 89725, Note_on_c, 13, 71, 0
14, 89869, Note_on_c, 13, 72, 0
14, 89996, Note_on_c, 13, 73, 98
14, 90001, Note_on_c, 13, 64, 83
14, 90004, Note_on_c, 13, 66, 0
14, 90481, Note_on_c, 13, 64, 0
14, 90503, Note_on_c, 13, 73, 0
14, 90535, Note_on_c, 13, 72, 102
14, 90539, Note_on_c, 13, 64, 84
14, 90803, Note_on_c, 13, 72, 0
14, 90814, Note_on_c, 13, 71, 87
14, 90932, Note_on_c, 13, 64, 0
14, 90957, Note_on_c, 13, 71, 0
14, 91080, Note_on_c, 13, 63, 99
14, 91083, Note_on_c, 13, 78, 104
14, 91192, Note_on_c, 13, 78, 0
14, 91201, Note_on_c, 13, 63, 0
14, 91336, Note_on_c, 13, 64, 106
14, 91340, Note_on_c, 13, 76, 107
14, 91479, Note_on_c, 13, 64, 0
14, 91624, Note_on_c, 13, 72, 113
14, 92095, Note_on_c, 13, 72, 0
14, 92102, Note_on_c, 13, 76, 0
14, 92152, Note_on_c, 13, 77, 117
14, 92158, Note_on_c, 13, 74, 114
14, 92908, Note_on_c, 13, 74, 0
14, 92916, Note_on_c, 13, 77, 0
14, 92940, Note_on_c, 13, 76, 96
14, 92942, Note_on_c, 13, 72, 87
14, 93727, Note_on_c, 13, 72, 0
14, 93738, Note_on_c, 13, 76, 0
14, 93754, Note_on_c, 13, 77, 107
14, 93757, Note_on_c, 13, 74, 98
14, 94574, Note_on_c, 13, 74, 0
14, 94592, Note_on_c, 13, 76, 104
14, 94595, Note_on_c, 13, 72, 94
14, 94614, Note_on_c, 13, 77, 0
14, 94784, Note_on_c, 13, 72, 0
14, 94815, Note_on_c, 13, 76, 0
14, 102006, Note_on_c, 13, 76, 83
14, 102013, Note_on_c, 13, 72, 60
14, 102800, Note_on_c, 13, 72, 0
14, 102811, Note_on_c, 13, 76, 0
14, 102842, Note_on_c, 13, 77, 96
14, 102846, Note_on_c, 13, 74, 83
14, 103621, Note_on_c, 13, 74, 0
14, 103640, Note_on_c, 13, 77, 0
14, 103674, Note_on_c, 13, 76, 97
14, 103683, Note_on_c, 13, 72, 88
14, 104502, Note_on_c, 13, 72, 0
14, 104514, Note_on_c, 13, 76, 0
14, 104539, Note_on_c, 13, 77, 101
14, 104542, Note_on_c, 13, 74, 88
14, 105352, Note_on_c, 13, 74, 0
14, 105374, Note_on_c, 13, 76, 94
14, 105380, Note_on_c, 13, 72, 83
14, 105412, Note_on_c, 13, 77, 0
14, 105626, Note_on_c, 13, 72, 0
14, 105651, Note_on_c, 13, 76, 0
14, 197452, Note_on_c, 13, 78, 100
14, 197453, Note_on_c, 13, 69, 96
14, 197724, Note_on_c, 13, 79, 101
14, 197731, Note_on_c, 13, 70, 109
14, 197741, Note_on_c, 13, 69, 0
14, 197742, Note_on_c, 13, 78, 0
14, 197886, Note_on_c, 13, 70, 0
14, 197887, Note_on_c, 13, 79, 0
14, 199002, Note_on_c, 13, 70, 116
14, 199005, Note_on_c, 13, 79, 111
14, 199254, Note_on_c, 13, 70, 0
14, 199267, Note_on_c, 13, 79, 0
14, 199267, Note_on_c, 13, 71, 111
14, 199270, Note_on_c, 13, 76, 112
14, 199396, Note_on_c, 13, 76, 0
14, 199411, Note_on_c, 13, 71, 0
14, 200488, Note_on_c, 13, 79, 107
14, 200492, Note_on_c, 13, 71, 114
14, 200714, Note_on_c, 13, 71, 0
14, 200719, Note_on_c, 13, 79, 0
14, 200731, Note_on_c, 13, 72, 104
14, 200733, Note_on_c, 13, 76, 103
14, 200898, Note_on_c, 13, 72, 0
14, 200904, Note_on_c, 13, 76, 0
14, 309585, Note_on_c, 13, 83, 92
14, 309585, Note_on_c, 13, 77, 89
14, 310605, Note_on_c, 13, 83, 0
14, 310607, Note_on_c, 13, 77, 0
14, 310615, Note_on_c, 13, 78, 82
14, 310616, Note_on_c, 13, 81, 82
14, 311003, Note_on_c, 13, 78, 0
14, 311046, Note_on_c, 13, 81, 0
14, 311075, Note_on_c, 13, 80, 91
14, 311075, Note_on_c, 13, 83, 87
14, 311528, Note_on_c, 13, 80, 0
14, 311536, Note_on_c, 13, 83, 0
14, 311561, Note_on_c, 13, 81, 97
14, 311564, Note_on_c, 13, 78, 88
14, 311971, Note_on_c, 13, 78, 0
14, 312023, Note_on_c, 13, 80, 95
14, 312029, Note_on_c, 13, 76, 81
14, 312047, Note_on_c, 13, 81, 0
14, 312484, Note_on_c, 13, 76, 0
14, 312490, Note_on_c, 13, 80, 0
14, 312523, Note_on_c, 13, 81, 88
14, 312527, Note_on_c, 13, 78, 74
14, 312928, Note_on_c, 13, 78, 0
14, 312982, Note_on_c, 13, 81, 0
14, 312998, Note_on_c, 13, 79, 85
14, 313004, Note_on_c, 13, 76, 81
14, 313534, Note_on_c, 13, 78, 89
14, 313537, Note_on_c, 13, 76, 0
14, 313539, Note_on_c, 13, 75, 80
14, 313554, Note_on_c, 13, 79, 0
14, 313779, Note_on_c, 13, 75, 0
14, 313792, Note_on_c, 13, 77, 83
14, 313802, Note_on_c, 13, 74, 73
14, 313805, Note_on_c, 13, 78, 0
14, 313975, Note_on_c, 13, 77, 0
14, 314043, Note_on_c, 13, 76, 92
14, 314056, Note_on_c, 13, 72, 65
14, 314065, Note_on_c, 13, 74, 0
14, 314295, Note_on_c, 13, 72, 0
14, 314295, Note_on_c, 13, 68, 94
14, 314540, Note_on_c, 13, 69, 81
14, 314548, Note_on_c, 13, 68, 0
14, 314785, Note_on_c, 13, 76, 0
14, 314787, Note_on_c, 13, 78, 99
14, 314966, Note_on_c, 13, 69, 0
14, 314997, Note_on_c, 13, 78, 0
14, 315025, Note_on_c, 13, 67, 96
14, 315025, Note_on_c, 13, 76, 104
14, 315254, Note_on_c, 13, 67, 0
14, 315272, Note_on_c, 13, 66, 107
14, 315479, Note_on_c, 13, 66, 0
14, 315515, Note_on_c, 13, 66, 106
14, 315523, Note_on_c, 13, 75, 92
14, 315535, Note_on_c, 13, 76, 0
14, 315732, Note_on_c, 13, 75, 0
14, 315734, Note_on_c, 13, 66, 0
14, 316742, Note_on_c, 13, 76, 111
14, 316744, Note_on_c, 13, 71, 118
14, 316818, Note_on_c, 13, 71, 0
14, 316819, Note_on_c, 13, 76, 0
14, 316991, Note_on_c, 13, 76, 111
14, 316991, Note_on_c, 13, 71, 117
14, 317086, Note_on_c, 13, 71, 0
14, 317092, Note_on_c, 13, 76, 0
14, 318203, Note_on_c, 13, 71, 116
14, 318208, Note_on_c, 13, 74, 102
14, 318261, Note_on_c, 13, 71, 0
14, 318265, Note_on_c, 13, 74, 0
14, 318457, Note_on_c, 13, 71, 117
14, 318459, Note_on_c, 13, 74, 112
14, 318534, Note_on_c, 13, 74, 0
14, 318536, Note_on_c, 13, 71, 0
14, 319637, Note_on_c, 13, 75, 118
14, 319640, Note_on_c, 13, 71, 100
14, 319719, Note_on_c, 13, 71, 0
14, 319726, Note_on_c, 13, 75, 0
14, 320353, Note_on_c, 13, 70, 110
14, 320354, Note_on_c, 13, 75, 113
14, 320415, Note_on_c, 13, 70, 0
14, 320425, Note_on_c, 13, 75, 0
14, 321069, Note_on_c, 13, 75, 107
14, 321072, Note_on_c, 13, 71, 96
14, 321126, Note_on_c, 13, 71, 0
14, 321130, Note_on_c, 13, 75, 0
14, 321320, Note_on_c, 13, 75, 100
14, 321322, Note_on_c, 13, 71, 92
14, 321430, Note_on_c, 13, 71, 0
14, 321446, Note_on_c, 13, 75, 0
14, 321583, Note_on_c, 13, 75, 105
14, 321585, Note_on_c, 13, 72, 98
14, 322240, Note_on_c, 13, 72, 0
14, 322293, Note_on_c, 13, 78, 96
14, 322295, Note_on_c, 13, 72, 82
14, 322322, Note_on_c, 13, 75, 0
14, 322541, Note_on_c, 13, 76, 77
14, 322547, Note_on_c, 13, 78, 0
14, 322551, Note_on_c, 13, 73, 84
14, 322566, Note_on_c, 13, 72, 0
14, 322746, Note_on_c, 13, 75, 92
14, 322756, Note_on_c, 13, 71, 58
14, 322772, Note_on_c, 13, 76, 0
14, 322781, Note_on_c, 13, 73, 0
14, 322864, Note_on_c, 13, 75, 0
14, 322865, Note_on_c, 13, 71, 0
14, 322998, Note_on_c, 13, 75, 94
14, 323003, Note_on_c, 13, 71, 73
14, 323180, Note_on_c, 13, 71, 0
14, 323184, Note_on_c, 13, 75, 0
14, 323220, Note_on_c, 13, 75, 72
14, 323227, Note_on_c, 13, 72, 80
14, 323946, Note_on_c, 13, 76, 88
14, 323953, Note_on_c, 13, 75, 0
14, 323980, Note_on_c, 13, 72, 0
14, 324173, Note_on_c, 13, 74, 91
14, 324177, Note_on_c, 13, 72, 84
14, 324206, Note_on_c, 13, 76, 0
14, 324418, Note_on_c, 13, 71, 90
14, 324436, Note_on_c, 13, 72, 0
14, 324860, Note_on_c, 13, 72, 96
14, 324891, Note_on_c, 13, 74, 0
14, 325102, Note_on_c, 13, 69, 83
14, 325111, Note_on_c, 13, 71, 0
14, 325569, Note_on_c, 13, 71, 103
14, 325599, Note_on_c, 13, 72, 0
14, 325686, Note_on_c, 13, 71, 0
14, 325692, Note_on_c, 13, 69, 0
14, 325811, Note_on_c, 13, 71, 106
14, 325815, Note_on_c, 13, 67, 100
14, 325986, Note_on_c, 13, 67, 0
14, 325989, Note_on_c, 13, 71, 0
14, 330330, Note_on_c, 13, 76, 96
14, 330331, Note_on_c, 13, 67, 84
14, 330534, Note_on_c, 13, 67, 0
14, 330559, Note_on_c, 13, 76, 0
14, 330576, Note_on_c, 13, 75, 96
14, 330580, Note_on_c, 13, 71, 78
14, 330760, Note_on_c, 13, 71, 0
14, 330779, Note_on_c, 13, 75, 0
14, 330829, Note_on_c, 13, 75, 103
14, 330830, Note_on_c, 13, 71, 94
14, 331022, Note_on_c, 13, 71, 0
14, 331048, Note_on_c, 13, 75, 0
14, 331051, Note_on_c, 13, 76, 99
14, 331051, Note_on_c, 13, 71, 80
14, 331236, Note_on_c, 13, 71, 0
14, 331264, Note_on_c, 13, 76, 0
14, 331282, Note_on_c, 13, 71, 82
14, 331283, Note_on_c, 13, 81, 104
14, 331476, Note_on_c, 13, 71, 0
14, 331520, Note_on_c, 13, 81, 0
14, 331521, Note_on_c, 13, 71, 91
14, 331524, Note_on_c, 13, 79, 102
14, 331705, Note_on_c, 13, 71, 0
14, 331756, Note_on_c, 13, 78, 112
14, 331757, Note_on_c, 13, 71, 94
14, 331789, Note_on_c, 13, 79, 0
14, 331886, Note_on_c, 13, 71, 0
14, 331952, Note_on_c, 13, 78, 0
14, 331991, Note_on_c, 13, 79, 103
14, 331993, Note_on_c, 13, 76, 92
14, 332065, Note_on_c, 13, 76, 0
14, 332071, Note_on_c, 13, 79, 0
14, 332228, Note_on_c, 13, 75, 109
14, 332232, Note_on_c, 13, 81, 108
14, 332483, Note_on_c, 13, 75, 0
14, 332483, Note_on_c, 13, 79, 102
14, 332486, Note_on_c, 13, 76, 91
14, 332490, Note_on_c, 13, 81, 0
14, 332583, Note_on_c, 13, 78, 93
14, 332594, Note_on_c, 13, 81, 98
14, 332610, Note_on_c, 13, 76, 0
14, 332620, Note_on_c, 13, 79, 0
14, 332707, Note_on_c, 13, 79, 93
14, 332707, Note_on_c, 13, 76, 97
14, 332717, Note_on_c, 13, 78, 0
14, 332739, Note_on_c, 13, 81, 0
14, 332775, Note_on_c, 13, 79, 0
14, 332790, Note_on_c, 13, 76, 0
14, 332927, Note_on_c, 13, 75, 112
14, 332931, Note_on_c, 13, 81, 107
14, 333157, Note_on_c, 13, 76, 94
14, 333158, Note_on_c, 13, 75, 0
14, 333163, Note_on_c, 13, 79, 90
14, 333169, Note_on_c, 13, 81, 0
14, 333257, Note_on_c, 13, 78, 93
14, 333265, Note_on_c, 13, 79, 0
14, 333267, Note_on_c, 13, 81, 72
14, 333272, Note_on_c, 13, 76, 0
14, 333363, Note_on_c, 13, 78, 0
14, 333375, Note_on_c, 13, 76, 99
14, 333379, Note_on_c, 13, 79, 92
14, 333424, Note_on_c, 13, 81, 0
14, 333465, Note_on_c, 13, 76, 0
14, 333472, Note_on_c, 13, 79, 0
14, 333605, Note_on_c, 13, 76, 93
14, 333608, Note_on_c, 13, 73, 92
14, 333813, Note_on_c, 13, 76, 0
14, 333834, Note_on_c, 13, 73, 0
14, 333845, Note_on_c, 13, 78, 92
14, 333853, Note_on_c, 13, 75, 83
14, 334023, Note_on_c, 13, 78, 0
14, 334029, Note_on_c, 13, 75, 0
14, 334079, Note_on_c, 13, 78, 107
14, 334083, Note_on_c, 13, 75, 94
14, 334279, Note_on_c, 13, 78, 0
14, 334297, Note_on_c, 13, 75, 0
14, 334304, Note_on_c, 13, 76, 98
14, 334306, Note_on_c, 13, 79, 96
14, 334463, Note_on_c, 13, 76, 0
14, 334475, Note_on_c, 13, 79, 0
14, 334528, Note_on_c, 13, 79, 106
14, 334533, Note_on_c, 13, 76, 104
14, 334640, Note_on_c, 13, 79, 0
14, 334642, Note_on_c, 13, 76, 0
14, 334755, Note_on_c, 13, 79, 103
14, 334757, Note_on_c, 13, 76, 104
14, 334830, Note_on_c, 13, 76, 0
14, 334839, Note_on_c, 13, 79, 0
14, 334990, Note_on_c, 13, 75, 112
14, 334996, Note_on_c, 13, 81, 108
14, 335237, Note_on_c, 13, 76, 88
14, 335247, Note_on_c, 13, 79, 97
14, 335250, Note_on_c, 13, 75, 0
14, 335278, Note_on_c, 13, 81, 0
14, 335343, Note_on_c, 13, 78, 94
14, 335353, Note_on_c, 13, 81, 94
14, 335361, Note_on_c, 13, 76, 0
14, 335385, Note_on_c, 13, 79, 0
14, 335466, Note_on_c, 13, 76, 92
14, 335474, Note_on_c, 13, 79, 91
14, 335483, Note_on_c, 13, 78, 0
14, 335516, Note_on_c, 13, 81, 0
14, 335552, Note_on_c, 13, 79, 0
14, 335556, Note_on_c, 13, 76, 0
14, 335704, Note_on_c, 13, 75, 112
14, 335706, Note_on_c, 13, 81, 106
14, 335954, Note_on_c, 13, 76, 90
14, 335959, Note_on_c, 13, 79, 87
14, 335963, Note_on_c, 13, 75, 0
14, 335989, Note_on_c, 13, 81, 0
14, 336058, Note_on_c, 13, 78, 73
14, 336065, Note_on_c, 13, 76, 0
14, 336073, Note_on_c, 13, 81, 69
14, 336081, Note_on_c, 13, 79, 0
14, 336172, Note_on_c, 13, 78, 0
14, 336203, Note_on_c, 13, 79, 94
14, 336204, Note_on_c, 13, 76, 101
14, 336206, Note_on_c, 13, 81, 0
14, 336335, Note_on_c, 13, 76, 0
14, 336351, Note_on_c, 13, 79, 0
14, 392701, Note_on_c, 13, 71, 80
14, 393222, Note_on_c, 13, 69, 74
14, 393265, Note_on_c, 13, 71, 0
14, 393502, Note_on_c, 13, 68, 84
14, 393584, Note_on_c, 13, 69, 0
14, 393908, Note_on_c, 13, 66, 82
14, 393947, Note_on_c, 13, 68, 0
14, 394073, Note_on_c, 13, 64, 55
14, 394094, Note_on_c, 13, 66, 0
14, 394322, Note_on_c, 13, 64, 0
14, 453013, Note_on_c, 13, 64, 83
14, 453314, Note_on_c, 13, 64, 0
14, 453319, Note_on_c, 13, 71, 75
14, 453332, Note_on_c, 13, 66, 56
14, 453901, Note_on_c, 13, 66, 0
14, 453912, Note_on_c, 13, 68, 72
14, 454454, Note_on_c, 13, 68, 0
14, 454488, Note_on_c, 13, 71, 0
14, 454490, Note_on_c, 13, 69, 73
14, 454631, Note_on_c, 13, 69, 0
14, 454775, Note_on_c, 13, 70, 84
14, 454787, Note_on_c, 13, 67, 60
14, 454913, Note_on_c, 13, 67, 0
14, 454926, Note_on_c, 13, 70, 0
14, 455059, Note_on_c, 13, 71, 82
14, 455064, Note_on_c, 13, 67, 60
14, 455188, Note_on_c, 13, 71, 0
14, 455191, Note_on_c, 13, 67, 0
14, 455359, Note_on_c, 13, 71, 70
14, 455365, Note_on_c, 13, 66, 70
14, 455438, Note_on_c, 13, 66, 0
14, 455460, Note_on_c, 13, 71, 0
14, 455672, Note_on_c, 13, 78, 103
14, 455680, Note_on_c, 13, 71, 82
14, 455945, Note_on_c, 13, 78, 0
14, 455952, Note_on_c, 13, 79, 70
14, 456101, Note_on_c, 13, 79, 0
14, 456108, Note_on_c, 13, 71, 0
14, 456241, Note_on_c, 13, 75, 96
14, 456245, Note_on_c, 13, 69, 71
14, 456434, Note_on_c, 13, 69, 0
14, 456523, Note_on_c, 13, 76, 70
14, 456532, Note_on_c, 13, 67, 36
14, 456560, Note_on_c, 13, 75, 0
14, 456622, Note_on_c, 13, 76, 0
14, 456695, Note_on_c, 13, 67, 0
14, 456809, Note_on_c, 13, 71, 76
14, 456812, Note_on_c, 13, 65, 63
14, 457107, Note_on_c, 13, 72, 69
14, 457117, Note_on_c, 13, 71, 0
14, 457118, Note_on_c, 13, 64, 57
14, 457123, Note_on_c, 13, 65, 0
14, 457282, Note_on_c, 13, 72, 0
14, 457383, Note_on_c, 13, 67, 53
14, 457668, Note_on_c, 13, 66, 62
14, 457691, Note_on_c, 13, 67, 0
14, 457708, Note_on_c, 13, 64, 0
14, 457965, Note_on_c, 13, 66, 0
14, 457980, Control_c, 13, 11, 80
14, 457980, Note_on_c, 13, 67, 71
14, 457994, Note_on_c, 13, 64, 52
14, 457994, Control_c, 13, 11, 79
14, 458008, Control_c, 13, 11, 78
14, 458022, Control_c, 13, 11, 77
14, 458036, Control_c, 13, 11, 76
14, 458050, Control_c, 13, 11, 75
14, 458064, Control_c, 13, 11, 74
14, 458078, Control_c, 13, 11, 73
14, 458092, Control_c, 13, 11, 72
14, 458106, Control_c, 13, 11, 71
14, 458120, Control_c, 13, 11, 70
14, 458134, Control_c, 13, 11, 69
14, 458148, Control_c, 13, 11, 68
14, 458162, Control_c, 13, 11, 67
14, 458176, Control_c, 13, 11, 66
14, 458190, Control_c, 13, 11, 65
14, 458204, Control_c, 13, 11, 64
14, 458218, Control_c, 13, 11, 63
14, 458232, Control_c, 13, 11, 62
14, 458246, Control_c, 13, 11, 61
14, 458260, Control_c, 13, 11, 60
14, 458274, Control_c, 13, 11, 59
14, 458288, Control_c, 13, 11, 58
14, 458302, Control_c, 13, 11, 57
14, 458316, Control_c, 13, 11, 56
14, 458330, Control_c, 13, 11, 55
14, 458344, Control_c, 13, 11, 54
14, 458358, Control_c, 13, 11, 53
14, 458372, Control_c, 13, 11, 52
14, 458386, Control_c, 13, 11, 51
14, 458399, Control_c, 13, 11, 50
14, 458895, Note_on_c, 13, 66, 81
14, 458898, Note_on_c, 13, 63, 68
14, 458900, Note_on_c, 13, 64, 0
14, 458908, Note_on_c, 13, 67, 0
14, 459025, Note_on_c, 13, 63, 0
14, 459028, Note_on_c, 13, 66, 0
14, 459194, Control_c, 13, 11, 80
14, 459194, Note_on_c, 13, 68, 100
14, 459200, Note_on_c, 13, 62, 71
14, 459470, Note_on_c, 13, 69, 86
14, 459479, Note_on_c, 13, 60, 76
14, 459489, Note_on_c, 13, 62, 0
14, 459514, Note_on_c, 13, 68, 0
14, 459808, Note_on_c, 13, 60, 0
14, 460002, Note_on_c, 13, 69, 0
14, 460067, Note_on_c, 13, 69, 89
14, 460309, Note_on_c, 13, 69, 0
14, 460352, Note_on_c, 13, 76, 94
14, 460359, Note_on_c, 13, 71, 77
14, 460927, Note_on_c, 13, 73, 90
14, 460936, Note_on_c, 13, 71, 0
14, 461208, Note_on_c, 13, 73, 0
14, 461224, Note_on_c, 13, 72, 94
14, 461481, Note_on_c, 13, 76, 0
14, 461511, Note_on_c, 13, 75, 91
14, 461763, Note_on_c, 13, 72, 0
14, 461780, Note_on_c, 13, 75, 0
14, 461789, Note_on_c, 13, 76, 102
14, 461792, Note_on_c, 13, 72, 84
14, 462065, Note_on_c, 13, 72, 0
14, 462080, Note_on_c, 13, 78, 106
14, 462086, Note_on_c, 13, 72, 82
14, 462089, Note_on_c, 13, 76, 0
14, 462364, Note_on_c, 13, 71, 60
14, 462371, Note_on_c, 13, 72, 0
14, 462511, Note_on_c, 13, 71, 0
14, 462525, Note_on_c, 13, 78, 0
14, 462909, Note_on_c, 13, 79, 98
14, 462912, Note_on_c, 13, 70, 89
14, 463061, Note_on_c, 13, 70, 0
14, 463081, Note_on_c, 13, 79, 0
14, 465872, Note_on_c, 13, 67, 78
14, 465874, Note_on_c, 13, 73, 91
14, 465939, Note_on_c, 13, 67, 0
14, 465960, Note_on_c, 13, 73, 0
14, 466149, Note_on_c, 13, 72, 106
14, 466259, Note_on_c, 13, 72, 0
14, 466458, Note_on_c, 13, 73, 86
14, 466466, Note_on_c, 13, 70, 73
14, 466586, Note_on_c, 13, 70, 0
14, 466604, Note_on_c, 13, 73, 0
14, 469552, Note_on_c, 13, 73, 80
14, 469556, Note_on_c, 13, 67, 76
14, 469615, Note_on_c, 13, 67, 0
14, 469645, Note_on_c, 13, 73, 0
14, 469846, Note_on_c, 13, 72, 81
14, 469948, Note_on_c, 13, 72, 0
14, 470140, Note_on_c, 13, 70, 94
14, 470224, Note_on_c, 13, 70, 0
14, 470426, Note_on_c, 13, 73, 93
14, 470431, Note_on_c, 13, 70, 98
14, 470475, Note_on_c, 13, 70, 0
14, 470499, Note_on_c, 13, 73, 0
14, 470732, Note_on_c, 13, 70, 98
14, 470741, Note_on_c, 13, 73, 84
14, 470780, Note_on_c, 13, 73, 0
14, 471022, Note_on_c, 13, 76, 81
14, 471142, Note_on_c, 13, 76, 0
14, 471160, Note_on_c, 13, 70, 0
14, 471316, Note_on_c, 13, 69, 90
14, 471323, Note_on_c, 13, 78, 96
14, 471407, Note_on_c, 13, 78, 0
14, 471415, Note_on_c, 13, 69, 0
14, 471625, Note_on_c, 13, 67, 79
14, 471626, Note_on_c, 13, 76, 76
14, 471738, Note_on_c, 13, 67, 0
14, 471742, Note_on_c, 13, 76, 0
14, 472039, Note_on_c, 13, 76, 68
14, 472043, Note_on_c, 13, 66, 65
14, 472798, Note_on_c, 13, 66, 0
14, 472799, Note_on_c, 13, 76, 0
14, 629046, Note_on_c, 13, 76, 83
14, 629053, Note_on_c, 13, 72, 60
14, 629840, Note_on_c, 13, 72, 0
14, 629851, Note_on_c, 13, 76, 0
14, 629882, Note_on_c, 13, 77, 96
14, 629886, Note_on_c, 13, 74, 83
14, 630661, Note_on_c, 13, 74, 0
14, 630680, Note_on_c, 13, 77, 0
14, 630714, Note_on_c, 13, 76, 97
14, 630723, Note_on_c, 13, 72, 88
14, 631542, Note_on_c, 13, 72, 0
14, 631554, Note_on_c, 13, 76, 0
14, 631579, Note_on_c, 13, 77, 101
14, 631582, Note_on_c, 13, 74, 88
14, 632392, Note_on_c, 13, 74, 0
14, 632414, Note_on_c, 13, 76, 94
14, 632420, Note_on_c, 13, 72, 83
14, 632452, Note_on_c, 13, 77, 0
14, 632666, Note_on_c, 13, 72, 0
14, 632691, Note_on_c, 13, 76, 0
14, 645918, Note_on_c, 13, 76, 88
14, 645921, Note_on_c, 13, 83, 87
14, 646286, Note_on_c, 13, 76, 0
14, 646290, Note_on_c, 13, 83, 0
14, 647034, Note_on_c, 13, 64, 88
14, 647197, Note_on_c, 13, 64, 0
14, 647244, Note_on_c, 13, 64, 90
14, 649199, Note_on_c, 13, 64, 0
14, 649440, End_track
15, 0, Start_track
15, 0, Title_t, "Clarinetti (C)                      "
15, 0, Control_c, 14, 121, 0
15, 80, Control_c, 14, 101, 0
15, 100, Control_c, 14, 100, 0
15, 120, Control_c, 14, 6, 12
15, 140, Control_c, 14, 10, 72
15, 160, Control_c, 14, 7, 100
15, 180, Control_c, 14, 0, 0
15, 200, Program_c, 14, 71
15, 220, Control_c, 14, 91, 80
15, 240, Control_c, 14, 93, 24
15, 260, Control_c, 14, 1, 14
15, 280, Control_c, 14, 11, 80
15, 300, Pitch_bend_c, 14, 8192
15, 320, Control_c, 14, 99, 1
15, 340, Control_c, 14, 98, 32
15, 360, Control_c, 14, 6, 80
15, 380, Control_c, 14, 98, 33
15, 400, Control_c, 14, 6, 62
15, 420, Control_c, 14, 98, 100
15, 440, Control_c, 14, 6, 64
15, 460, Control_c, 14, 98, 102
15, 480, Control_c, 14, 6, 64
15, 500, Control_c, 14, 98, 99
15, 520, Control_c, 14, 6, 64
15, 540, Control_c, 14, 101, 0
15, 560, Control_c, 14, 100, 2
15, 705, Control_c, 14, 6, 64
15, 1713, Note_on_c, 14, 59, 58
15, 1720, Note_on_c, 14, 55, 43
15, 2589, Note_on_c, 14, 54, 77
15, 2621, Note_on_c, 14, 55, 0
15, 2734, Note_on_c, 14, 59, 0
15, 2900, Note_on_c, 14, 66, 91
15, 2910, Note_on_c, 14, 59, 42
15, 2945, Note_on_c, 14, 54, 0
15, 3186, Note_on_c, 14, 65, 84
15, 3200, Note_on_c, 14, 66, 0
15, 3492, Note_on_c, 14, 59, 0
15, 3493, Note_on_c, 14, 64, 74
15, 3533, Note_on_c, 14, 65, 0
15, 4038, Note_on_c, 14, 64, 0
15, 4078, Note_on_c, 14, 67, 82
15, 4137, Note_on_c, 14, 64, 5
15, 4280, Note_on_c, 14, 64, 0
15, 4299, Note_on_c, 14, 67, 0
15, 4349, Note_on_c, 14, 67, 78
15, 4364, Note_on_c, 14, 64, 55
15, 4627, Note_on_c, 14, 64, 0
15, 4646, Note_on_c, 14, 66, 76
15, 4650, Note_on_c, 14, 67, 0
15, 4759, Note_on_c, 14, 66, 0
15, 4928, Note_on_c, 14, 71, 94
15, 4934, Note_on_c, 14, 66, 99
15, 5179, Note_on_c, 14, 66, 0
15, 5210, Note_on_c, 14, 67, 54
15, 5341, Note_on_c, 14, 71, 0
15, 5362, Note_on_c, 14, 67, 0
15, 5521, Note_on_c, 14, 69, 79
15, 5523, Note_on_c, 14, 66, 83
15, 5752, Note_on_c, 14, 66, 0
15, 5800, Note_on_c, 14, 67, 65
15, 5802, Note_on_c, 14, 69, 0
15, 5808, Note_on_c, 14, 64, 54
15, 5935, Note_on_c, 14, 64, 0
15, 5936, Note_on_c, 14, 67, 0
15, 6098, Note_on_c, 14, 65, 65
15, 6101, Note_on_c, 14, 62, 61
15, 6295, Note_on_c, 14, 62, 0
15, 6391, Note_on_c, 14, 64, 59
15, 6395, Note_on_c, 14, 60, 36
15, 6420, Note_on_c, 14, 65, 0
15, 6481, Note_on_c, 14, 60, 0
15, 6532, Note_on_c, 14, 64, 0
15, 6675, Note_on_c, 14, 64, 59
15, 6682, Note_on_c, 14, 59, 47
15, 6963, Note_on_c, 14, 66, 70
15, 6980, Note_on_c, 14, 64, 0
15, 7255, Note_on_c, 14, 66, 0
15, 7259, Control_c, 14, 11, 80
15, 7259, Note_on_c, 14, 67, 76
15, 7273, Control_c, 14, 11, 79
15, 7287, Control_c, 14, 11, 78
15, 7301, Control_c, 14, 11, 77
15, 7315, Control_c, 14, 11, 76
15, 7329, Control_c, 14, 11, 75
15, 7343, Control_c, 14, 11, 74
15, 7357, Control_c, 14, 11, 73
15, 7371, Control_c, 14, 11, 72
15, 7385, Control_c, 14, 11, 71
15, 7399, Control_c, 14, 11, 70
15, 7413, Control_c, 14, 11, 69
15, 7427, Control_c, 14, 11, 68
15, 7441, Control_c, 14, 11, 67
15, 7455, Control_c, 14, 11, 66
15, 7469, Control_c, 14, 11, 65
15, 7483, Control_c, 14, 11, 64
15, 7497, Control_c, 14, 11, 63
15, 7511, Control_c, 14, 11, 62
15, 7525, Control_c, 14, 11, 61
15, 7539, Control_c, 14, 11, 60
15, 7553, Control_c, 14, 11, 59
15, 7567, Control_c, 14, 11, 58
15, 7581, Control_c, 14, 11, 57
15, 7595, Control_c, 14, 11, 56
15, 7609, Control_c, 14, 11, 55
15, 7623, Control_c, 14, 11, 54
15, 7637, Control_c, 14, 11, 53
15, 7651, Control_c, 14, 11, 52
15, 7665, Control_c, 14, 11, 51
15, 7679, Control_c, 14, 11, 50
15, 7790, Note_on_c, 14, 59, 0
15, 7876, Note_on_c, 14, 61, 74
15, 8154, Note_on_c, 14, 61, 0
15, 8164, Note_on_c, 14, 66, 67
15, 8167, Note_on_c, 14, 67, 0
15, 8169, Note_on_c, 14, 63, 55
15, 8314, Note_on_c, 14, 66, 0
15, 8341, Note_on_c, 14, 63, 0
15, 8400, Control_c, 14, 11, 80
15, 8455, Note_on_c, 14, 62, 93
15, 8461, Note_on_c, 14, 68, 96
15, 8744, Note_on_c, 14, 69, 84
15, 8747, Note_on_c, 14, 62, 0
15, 8747, Note_on_c, 14, 60, 102
15, 8753, Note_on_c, 14, 68, 0
15, 9051, Note_on_c, 14, 64, 101
15, 9065, Note_on_c, 14, 69, 0
15, 9361, Note_on_c, 14, 60, 0
15, 9627, Note_on_c, 14, 71, 87
15, 9633, Note_on_c, 14, 59, 75
15, 9646, Note_on_c, 14, 64, 0
15, 9921, Note_on_c, 14, 64, 84
15, 9943, Note_on_c, 14, 59, 0
15, 10182, Note_on_c, 14, 71, 0
15, 10201, Note_on_c, 14, 70, 99
15, 10449, Note_on_c, 14, 70, 0
15, 10495, Note_on_c, 14, 69, 99
15, 10773, Note_on_c, 14, 64, 0
15, 10781, Note_on_c, 14, 63, 107
15, 11067, Note_on_c, 14, 64, 94
15, 11077, Note_on_c, 14, 63, 0
15, 11327, Note_on_c, 14, 69, 0
15, 11349, Note_on_c, 14, 66, 107
15, 11358, Note_on_c, 14, 69, 82
15, 11377, Note_on_c, 14, 64, 0
15, 11661, Note_on_c, 14, 66, 0
15, 11671, Note_on_c, 14, 69, 0
15, 12167, Note_on_c, 14, 67, 106
15, 12170, Note_on_c, 14, 73, 100
15, 12397, Note_on_c, 14, 67, 0
15, 12407, Note_on_c, 14, 73, 0
15, 15140, Note_on_c, 14, 61, 83
15, 15142, Note_on_c, 14, 64, 86
15, 15201, Note_on_c, 14, 61, 0
15, 15215, Note_on_c, 14, 64, 0
15, 15425, Note_on_c, 14, 66, 98
15, 15426, Note_on_c, 14, 63, 93
15, 15508, Note_on_c, 14, 63, 0
15, 15521, Note_on_c, 14, 66, 0
15, 15729, Note_on_c, 14, 67, 82
15, 15734, Note_on_c, 14, 64, 77
15, 15835, Note_on_c, 14, 64, 0
15, 15852, Note_on_c, 14, 67, 0
15, 17136, Note_on_c, 14, 79, 60
15, 17308, Note_on_c, 14, 76, 52
15, 17379, Note_on_c, 14, 79, 0
15, 17548, Note_on_c, 14, 73, 64
15, 17598, Note_on_c, 14, 76, 0
15, 17626, Note_on_c, 14, 71, 38
15, 17661, Note_on_c, 14, 73, 0
15, 17936, Note_on_c, 14, 70, 44
15, 18004, Note_on_c, 14, 71, 0
15, 18098, Note_on_c, 14, 70, 0
15, 18834, Note_on_c, 14, 61, 93
15, 18838, Note_on_c, 14, 64, 77
15, 18931, Note_on_c, 14, 61, 0
15, 18935, Note_on_c, 14, 64, 0
15, 19117, Note_on_c, 14, 66, 94
15, 19120, Note_on_c, 14, 63, 88
15, 19202, Note_on_c, 14, 63, 0
15, 19221, Note_on_c, 14, 66, 0
15, 19418, Note_on_c, 14, 70, 92
15, 19421, Note_on_c, 14, 64, 82
15, 19507, Note_on_c, 14, 64, 0
15, 19513, Note_on_c, 14, 70, 0
15, 19712, Note_on_c, 14, 70, 93
15, 19718, Note_on_c, 14, 64, 69
15, 19797, Note_on_c, 14, 70, 0
15, 19806, Note_on_c, 14, 64, 0
15, 20006, Note_on_c, 14, 73, 80
15, 20020, Note_on_c, 14, 64, 55
15, 20526, Note_on_c, 14, 64, 0
15, 20559, Note_on_c, 14, 73, 0
15, 20593, Note_on_c, 14, 66, 92
15, 20596, Note_on_c, 14, 75, 91
15, 20670, Note_on_c, 14, 66, 0
15, 20679, Note_on_c, 14, 75, 0
15, 20907, Note_on_c, 14, 76, 90
15, 20910, Note_on_c, 14, 64, 83
15, 21017, Note_on_c, 14, 76, 0
15, 21020, Note_on_c, 14, 64, 0
15, 21294, Control_c, 14, 11, 80
15, 21294, Note_on_c, 14, 78, 71
15, 21313, Note_on_c, 14, 72, 51
15, 21690, Note_on_c, 14, 78, 0
15, 21703, Control_c, 14, 11, 79
15, 21831, Control_c, 14, 11, 78
15, 21899, Control_c, 14, 11, 77
15, 21955, Control_c, 14, 11, 76
15, 21991, Control_c, 14, 11, 75
15, 22027, Control_c, 14, 11, 74
15, 22055, Control_c, 14, 11, 73
15, 22079, Control_c, 14, 11, 72
15, 22099, Control_c, 14, 11, 71
15, 22119, Control_c, 14, 11, 70
15, 22135, Control_c, 14, 11, 69
15, 22151, Control_c, 14, 11, 68
15, 22167, Control_c, 14, 11, 67
15, 22183, Control_c, 14, 11, 66
15, 22191, Control_c, 14, 11, 65
15, 22207, Control_c, 14, 11, 64
15, 22219, Control_c, 14, 11, 63
15, 22227, Control_c, 14, 11, 62
15, 22239, Control_c, 14, 11, 61
15, 22247, Control_c, 14, 11, 60
15, 22255, Control_c, 14, 11, 59
15, 22263, Control_c, 14, 11, 58
15, 22271, Control_c, 14, 11, 57
15, 22279, Control_c, 14, 11, 56
15, 22287, Control_c, 14, 11, 55
15, 22295, Control_c, 14, 11, 54
15, 22303, Control_c, 14, 11, 53
15, 22307, Control_c, 14, 11, 52
15, 22315, Control_c, 14, 11, 51
15, 22319, Control_c, 14, 11, 50
15, 23269, Note_on_c, 14, 63, 49
15, 23294, Note_on_c, 14, 72, 0
15, 23743, Note_on_c, 14, 64, 38
15, 23778, Note_on_c, 14, 63, 0
15, 24196, Note_on_c, 14, 64, 0
15, 24480, Control_c, 14, 11, 80
15, 33568, Note_on_c, 14, 62, 48
15, 33572, Note_on_c, 14, 65, 49
15, 34432, Note_on_c, 14, 62, 0
15, 34441, Control_c, 14, 11, 80
15, 34441, Note_on_c, 14, 64, 60
15, 34453, Note_on_c, 14, 60, 48
15, 34465, Note_on_c, 14, 65, 0
15, 34488, Control_c, 14, 11, 81
15, 34535, Control_c, 14, 11, 82
15, 34561, Note_on_c, 14, 60, 0
15, 34581, Control_c, 14, 11, 83
15, 34628, Control_c, 14, 11, 84
15, 34674, Control_c, 14, 11, 85
15, 34721, Control_c, 14, 11, 86
15, 34768, Control_c, 14, 11, 87
15, 34814, Control_c, 14, 11, 88
15, 34861, Control_c, 14, 11, 89
15, 34907, Control_c, 14, 11, 90
15, 34954, Control_c, 14, 11, 91
15, 35000, Control_c, 14, 11, 92
15, 35047, Control_c, 14, 11, 93
15, 35094, Control_c, 14, 11, 94
15, 35140, Control_c, 14, 11, 95
15, 35187, Control_c, 14, 11, 96
15, 35233, Control_c, 14, 11, 97
15, 35239, Note_on_c, 14, 62, 72
15, 35280, Control_c, 14, 11, 98
15, 35326, Control_c, 14, 11, 99
15, 35373, Control_c, 14, 11, 100
15, 35420, Control_c, 14, 11, 101
15, 35466, Control_c, 14, 11, 102
15, 35513, Control_c, 14, 11, 103
15, 35559, Control_c, 14, 11, 104
15, 35606, Control_c, 14, 11, 105
15, 35652, Control_c, 14, 11, 106
15, 35699, Control_c, 14, 11, 107
15, 35746, Control_c, 14, 11, 108
15, 35792, Control_c, 14, 11, 109
15, 35839, Control_c, 14, 11, 110
15, 35885, Control_c, 14, 11, 111
15, 35932, Control_c, 14, 11, 112
15, 35978, Control_c, 14, 11, 113
15, 36025, Control_c, 14, 11, 114
15, 36030, Note_on_c, 14, 60, 78
15, 36052, Note_on_c, 14, 62, 0
15, 36072, Control_c, 14, 11, 115
15, 36118, Control_c, 14, 11, 116
15, 36138, Note_on_c, 14, 64, 0
15, 36153, Note_on_c, 14, 60, 0
15, 36165, Control_c, 14, 11, 117
15, 36211, Control_c, 14, 11, 118
15, 36258, Control_c, 14, 11, 119
15, 36304, Control_c, 14, 11, 120
15, 36305, Control_c, 14, 11, 80
15, 36305, Note_on_c, 14, 64, 108
15, 36312, Note_on_c, 14, 59, 91
15, 36601, Note_on_c, 14, 60, 84
15, 36613, Note_on_c, 14, 59, 0
15, 36720, Note_on_c, 14, 59, 92
15, 36738, Note_on_c, 14, 60, 0
15, 36828, Note_on_c, 14, 64, 0
15, 36845, Note_on_c, 14, 64, 60
15, 36853, Note_on_c, 14, 60, 101
15, 36885, Note_on_c, 14, 59, 0
15, 36910, Note_on_c, 14, 64, 0
15, 36925, Note_on_c, 14, 60, 0
15, 37111, Note_on_c, 14, 64, 103
15, 37120, Note_on_c, 14, 59, 92
15, 37382, Note_on_c, 14, 60, 91
15, 37405, Note_on_c, 14, 59, 0
15, 37441, Note_on_c, 14, 60, 0
15, 37487, Note_on_c, 14, 59, 94
15, 37623, Note_on_c, 14, 69, 93
15, 37626, Note_on_c, 14, 60, 101
15, 37660, Note_on_c, 14, 64, 0
15, 37668, Note_on_c, 14, 59, 0
15, 37708, Note_on_c, 14, 60, 0
15, 37720, Note_on_c, 14, 69, 0
15, 37872, Note_on_c, 14, 71, 103
15, 37875, Note_on_c, 14, 59, 87
15, 37995, Note_on_c, 14, 66, 100
15, 38015, Note_on_c, 14, 59, 0
15, 38133, Note_on_c, 14, 67, 87
15, 38145, Note_on_c, 14, 66, 0
15, 38256, Note_on_c, 14, 69, 92
15, 38287, Note_on_c, 14, 67, 0
15, 38372, Note_on_c, 14, 69, 0
15, 38400, Note_on_c, 14, 67, 97
15, 38462, Note_on_c, 14, 67, 0
15, 38466, Note_on_c, 14, 71, 0
15, 38649, Note_on_c, 14, 71, 104
15, 38652, Note_on_c, 14, 69, 81
15, 38794, Note_on_c, 14, 66, 107
15, 38808, Note_on_c, 14, 69, 0
15, 38932, Note_on_c, 14, 67, 91
15, 38958, Note_on_c, 14, 66, 0
15, 39058, Note_on_c, 14, 69, 92
15, 39082, Note_on_c, 14, 67, 0
15, 39182, Note_on_c, 14, 67, 100
15, 39194, Note_on_c, 14, 69, 0
15, 39241, Note_on_c, 14, 67, 0
15, 39251, Note_on_c, 14, 71, 0
15, 39437, Note_on_c, 14, 73, 109
15, 39444, Note_on_c, 14, 64, 87
15, 39574, Note_on_c, 14, 66, 96
15, 39585, Note_on_c, 14, 64, 0
15, 39660, Note_on_c, 14, 66, 0
15, 39712, Note_on_c, 14, 66, 96
15, 39835, Note_on_c, 14, 67, 87
15, 39840, Note_on_c, 14, 66, 0
15, 39918, Note_on_c, 14, 67, 0
15, 39959, Note_on_c, 14, 73, 0
15, 39992, Note_on_c, 14, 71, 90
15, 39996, Note_on_c, 14, 66, 93
15, 40098, Note_on_c, 14, 71, 0
15, 40112, Note_on_c, 14, 73, 99
15, 40113, Note_on_c, 14, 64, 90
15, 40119, Note_on_c, 14, 66, 0
15, 40159, Note_on_c, 14, 64, 0
15, 40178, Note_on_c, 14, 73, 0
15, 40253, Note_on_c, 14, 73, 114
15, 40258, Note_on_c, 14, 64, 103
15, 40381, Note_on_c, 14, 66, 98
15, 40383, Note_on_c, 14, 64, 0
15, 40456, Note_on_c, 14, 66, 0
15, 40508, Note_on_c, 14, 66, 105
15, 40637, Note_on_c, 14, 66, 0
15, 40639, Note_on_c, 14, 67, 92
15, 40750, Note_on_c, 14, 67, 0
15, 40765, Note_on_c, 14, 73, 0
15, 40791, Note_on_c, 14, 71, 103
15, 40795, Note_on_c, 14, 66, 103
15, 41600, Note_on_c, 14, 66, 0
15, 41623, Note_on_c, 14, 64, 102
15, 42108, Note_on_c, 14, 71, 0
15, 42136, Note_on_c, 14, 73, 101
15, 42393, Note_on_c, 14, 66, 115
15, 42394, Note_on_c, 14, 73, 0
15, 42402, Note_on_c, 14, 71, 84
15, 42425, Note_on_c, 14, 64, 0
15, 43142, Note_on_c, 14, 66, 0
15, 43179, Note_on_c, 14, 64, 102
15, 43664, Note_on_c, 14, 71, 0
15, 43673, Note_on_c, 14, 73, 107
15, 43920, Note_on_c, 14, 66, 104
15, 43923, Note_on_c, 14, 75, 98
15, 43924, Note_on_c, 14, 73, 0
15, 43948, Note_on_c, 14, 64, 0
15, 44136, Note_on_c, 14, 66, 0
15, 44136, Note_on_c, 14, 75, 0
15, 46287, Note_on_c, 14, 56, 31
15, 46487, Note_on_c, 14, 57, 35
15, 46516, Note_on_c, 14, 56, 0
15, 46673, Note_on_c, 14, 63, 40
15, 46746, Note_on_c, 14, 57, 0
15, 46813, Note_on_c, 14, 63, 0
15, 46821, Note_on_c, 14, 66, 39
15, 46938, Note_on_c, 14, 63, 49
15, 46973, Note_on_c, 14, 66, 0
15, 47085, Note_on_c, 14, 66, 52
15, 47093, Note_on_c, 14, 63, 0
15, 47232, Note_on_c, 14, 72, 49
15, 47236, Note_on_c, 14, 66, 0
15, 47382, Note_on_c, 14, 69, 50
15, 47405, Note_on_c, 14, 72, 0
15, 47535, Note_on_c, 14, 75, 60
15, 47628, Note_on_c, 14, 69, 0
15, 47721, Control_c, 14, 11, 100
15, 47721, Note_on_c, 14, 78, 64
15, 47766, Note_on_c, 14, 75, 0
15, 47962, Control_c, 14, 11, 99
15, 48027, Control_c, 14, 11, 98
15, 48065, Control_c, 14, 11, 97
15, 48092, Control_c, 14, 11, 96
15, 48110, Control_c, 14, 11, 95
15, 48128, Control_c, 14, 11, 94
15, 48142, Control_c, 14, 11, 93
15, 48155, Control_c, 14, 11, 92
15, 48167, Control_c, 14, 11, 91
15, 48175, Control_c, 14, 11, 90
15, 48185, Control_c, 14, 11, 89
15, 48193, Control_c, 14, 11, 88
15, 48201, Control_c, 14, 11, 87
15, 48207, Control_c, 14, 11, 86
15, 48213, Control_c, 14, 11, 85
15, 48219, Control_c, 14, 11, 84
15, 48225, Control_c, 14, 11, 83
15, 48231, Control_c, 14, 11, 82
15, 48235, Control_c, 14, 11, 81
15, 48239, Control_c, 14, 11, 80
15, 48240, Control_c, 14, 11, 80
15, 48296, Control_c, 14, 11, 79
15, 48351, Control_c, 14, 11, 78
15, 48406, Control_c, 14, 11, 77
15, 48461, Control_c, 14, 11, 76
15, 48516, Control_c, 14, 11, 75
15, 48571, Control_c, 14, 11, 74
15, 48626, Control_c, 14, 11, 73
15, 48681, Control_c, 14, 11, 72
15, 48736, Control_c, 14, 11, 71
15, 48791, Control_c, 14, 11, 70
15, 48847, Control_c, 14, 11, 69
15, 48902, Control_c, 14, 11, 68
15, 48957, Control_c, 14, 11, 67
15, 49012, Control_c, 14, 11, 66
15, 49067, Control_c, 14, 11, 65
15, 49122, Control_c, 14, 11, 64
15, 49177, Control_c, 14, 11, 63
15, 49232, Control_c, 14, 11, 62
15, 49287, Control_c, 14, 11, 61
15, 49342, Control_c, 14, 11, 60
15, 49343, Note_on_c, 14, 69, 63
15, 49344, Note_on_c, 14, 78, 0
15, 49622, Note_on_c, 14, 69, 0
15, 49697, Note_on_c, 14, 69, 65
15, 50027, Note_on_c, 14, 68, 51
15, 50108, Note_on_c, 14, 69, 0
15, 50330, Note_on_c, 14, 68, 0
15, 80481, Note_on_c, 14, 71, 63
15, 81700, Note_on_c, 14, 75, 75
15, 81705, Note_on_c, 14, 71, 0
15, 82587, Control_c, 14, 11, 60
15, 82587, Note_on_c, 14, 76, 60
15, 82630, Note_on_c, 14, 75, 0
15, 82683, Control_c, 14, 11, 61
15, 82779, Control_c, 14, 11, 62
15, 82875, Control_c, 14, 11, 63
15, 82894, Note_on_c, 14, 78, 80
15, 82937, Note_on_c, 14, 76, 0
15, 82965, Control_c, 14, 11, 64
15, 83061, Control_c, 14, 11, 65
15, 83157, Control_c, 14, 11, 66
15, 83212, Note_on_c, 14, 80, 85
15, 83247, Control_c, 14, 11, 67
15, 83266, Note_on_c, 14, 78, 0
15, 83343, Control_c, 14, 11, 68
15, 83439, Control_c, 14, 11, 69
15, 83514, Note_on_c, 14, 73, 92
15, 83529, Control_c, 14, 11, 70
15, 83540, Note_on_c, 14, 80, 0
15, 83625, Control_c, 14, 11, 71
15, 83721, Control_c, 14, 11, 72
15, 83811, Control_c, 14, 11, 73
15, 83817, Note_on_c, 14, 75, 94
15, 83838, Note_on_c, 14, 73, 0
15, 83907, Control_c, 14, 11, 74
15, 84003, Control_c, 14, 11, 75
15, 84099, Control_c, 14, 11, 76
15, 84123, Note_on_c, 14, 76, 85
15, 84151, Note_on_c, 14, 75, 0
15, 84189, Control_c, 14, 11, 77
15, 84285, Control_c, 14, 11, 78
15, 84355, Note_on_c, 14, 76, 0
15, 84381, Control_c, 14, 11, 79
15, 84471, Control_c, 14, 11, 80
15, 84471, Note_on_c, 14, 73, 108
15, 85302, Note_on_c, 14, 73, 0
15, 85382, Note_on_c, 14, 75, 91
15, 85388, Note_on_c, 14, 66, 78
15, 86181, Note_on_c, 14, 75, 0
15, 86182, Note_on_c, 14, 66, 0
15, 86224, Note_on_c, 14, 75, 90
15, 86232, Note_on_c, 14, 66, 92
15, 86415, Note_on_c, 14, 66, 0
15, 86449, Note_on_c, 14, 75, 0
15, 86503, Note_on_c, 14, 76, 84
15, 86509, Note_on_c, 14, 64, 77
15, 86677, Note_on_c, 14, 64, 0
15, 86691, Note_on_c, 14, 76, 0
15, 86791, Note_on_c, 14, 78, 91
15, 86801, Note_on_c, 14, 69, 82
15, 86976, Note_on_c, 14, 69, 0
15, 86987, Note_on_c, 14, 78, 0
15, 87072, Note_on_c, 14, 76, 87
15, 87083, Note_on_c, 14, 68, 84
15, 87568, Note_on_c, 14, 68, 0
15, 87643, Note_on_c, 14, 73, 93
15, 87652, Note_on_c, 14, 64, 79
15, 87657, Note_on_c, 14, 76, 0
15, 87864, Note_on_c, 14, 73, 0
15, 87880, Note_on_c, 14, 64, 0
15, 87958, Note_on_c, 14, 73, 83
15, 87962, Note_on_c, 14, 64, 73
15, 88554, Note_on_c, 14, 75, 88
15, 88560, Note_on_c, 14, 73, 0
15, 88712, Note_on_c, 14, 73, 88
15, 88726, Note_on_c, 14, 75, 0
15, 88839, Note_on_c, 14, 64, 0
15, 88863, Note_on_c, 14, 66, 90
15, 88864, Note_on_c, 14, 75, 89
15, 88865, Note_on_c, 14, 73, 0
15, 89650, Note_on_c, 14, 66, 0
15, 89654, Note_on_c, 14, 75, 0
15, 89701, Note_on_c, 14, 75, 88
15, 89705, Note_on_c, 14, 66, 92
15, 89880, Note_on_c, 14, 66, 0
15, 89895, Note_on_c, 14, 75, 0
15, 89981, Note_on_c, 14, 64, 86
15, 89981, Note_on_c, 14, 76, 90
15, 90254, Note_on_c, 14, 64, 0
15, 90284, Note_on_c, 14, 69, 88
15, 90482, Note_on_c, 14, 69, 0
15, 90510, Note_on_c, 14, 76, 0
15, 90559, Note_on_c, 14, 76, 72
15, 90561, Note_on_c, 14, 67, 91
15, 91043, Note_on_c, 14, 67, 0
15, 91072, Note_on_c, 14, 75, 91
15, 91079, Note_on_c, 14, 66, 101
15, 91106, Note_on_c, 14, 76, 0
15, 91283, Note_on_c, 14, 66, 0
15, 91300, Note_on_c, 14, 75, 0
15, 91336, Note_on_c, 14, 76, 93
15, 91337, Note_on_c, 14, 64, 103
15, 91451, Note_on_c, 14, 76, 0
15, 91463, Note_on_c, 14, 64, 0
15, 91632, Note_on_c, 14, 79, 103
15, 91642, Note_on_c, 14, 76, 93
15, 92124, Note_on_c, 14, 76, 0
15, 92152, Note_on_c, 14, 77, 96
15, 92911, Note_on_c, 14, 79, 0
15, 92911, Note_on_c, 14, 77, 0
15, 92937, Note_on_c, 14, 79, 94
15, 92945, Note_on_c, 14, 76, 87
15, 93557, Note_on_c, 14, 76, 0
15, 93750, Note_on_c, 14, 77, 98
15, 94533, Note_on_c, 14, 77, 0
15, 94538, Note_on_c, 14, 79, 0
15, 94575, Note_on_c, 14, 79, 98
15, 94579, Note_on_c, 14, 76, 92
15, 94740, Note_on_c, 14, 76, 0
15, 94771, Note_on_c, 14, 79, 0
15, 96586, Control_c, 14, 11, 50
15, 96586, Note_on_c, 14, 76, 31
15, 96590, Note_on_c, 14, 79, 46
15, 96592, Control_c, 14, 11, 58
15, 96598, Control_c, 14, 11, 63
15, 96604, Control_c, 14, 11, 67
15, 96610, Control_c, 14, 11, 70
15, 96616, Control_c, 14, 11, 73
15, 96622, Control_c, 14, 11, 75
15, 96628, Control_c, 14, 11, 76
15, 96634, Control_c, 14, 11, 77
15, 96640, Control_c, 14, 11, 78
15, 96646, Control_c, 14, 11, 79
15, 96664, Control_c, 14, 11, 80
15, 96712, Control_c, 14, 11, 76
15, 96742, Control_c, 14, 11, 75
15, 96772, Control_c, 14, 11, 74
15, 96802, Control_c, 14, 11, 73
15, 96832, Control_c, 14, 11, 72
15, 96862, Control_c, 14, 11, 71
15, 96898, Control_c, 14, 11, 70
15, 96928, Control_c, 14, 11, 69
15, 96958, Control_c, 14, 11, 68
15, 96988, Control_c, 14, 11, 67
15, 97018, Control_c, 14, 11, 66
15, 97048, Control_c, 14, 11, 65
15, 97078, Control_c, 14, 11, 64
15, 97108, Control_c, 14, 11, 63
15, 97138, Control_c, 14, 11, 62
15, 97174, Control_c, 14, 11, 61
15, 97200, Control_c, 14, 11, 60
15, 97450, Note_on_c, 14, 76, 0
15, 97528, Note_on_c, 14, 76, 19
15, 97544, Note_on_c, 14, 72, 28
15, 97587, Note_on_c, 14, 79, 0
15, 97803, Note_on_c, 14, 76, 0
15, 97847, Note_on_c, 14, 72, 0
15, 98432, Control_c, 14, 11, 50
15, 98432, Note_on_c, 14, 76, 46
15, 98438, Control_c, 14, 11, 55
15, 98439, Note_on_c, 14, 79, 60
15, 98444, Control_c, 14, 11, 59
15, 98450, Control_c, 14, 11, 62
15, 98456, Control_c, 14, 11, 65
15, 98462, Control_c, 14, 11, 67
15, 98468, Control_c, 14, 11, 69
15, 98474, Control_c, 14, 11, 71
15, 98480, Control_c, 14, 11, 72
15, 98486, Control_c, 14, 11, 74
15, 98492, Control_c, 14, 11, 75
15, 98504, Control_c, 14, 11, 76
15, 98510, Control_c, 14, 11, 77
15, 98522, Control_c, 14, 11, 78
15, 98534, Control_c, 14, 11, 79
15, 98558, Control_c, 14, 11, 80
15, 98917, Note_on_c, 14, 79, 0
15, 98921, Note_on_c, 14, 78, 59
15, 98926, Note_on_c, 14, 75, 45
15, 98966, Note_on_c, 14, 76, 0
15, 99196, Note_on_c, 14, 77, 52
15, 99198, Note_on_c, 14, 74, 41
15, 99212, Note_on_c, 14, 75, 0
15, 99225, Note_on_c, 14, 78, 0
15, 99494, Note_on_c, 14, 76, 58
15, 99503, Note_on_c, 14, 72, 50
15, 99510, Note_on_c, 14, 77, 0
15, 99516, Note_on_c, 14, 74, 0
15, 99742, Note_on_c, 14, 72, 0
15, 99796, Note_on_c, 14, 72, 50
15, 99809, Note_on_c, 14, 69, 44
15, 99837, Note_on_c, 14, 76, 0
15, 100124, Note_on_c, 14, 71, 35
15, 100138, Note_on_c, 14, 67, 31
15, 100147, Note_on_c, 14, 72, 0
15, 100176, Note_on_c, 14, 69, 0
15, 101610, Note_on_c, 14, 66, 35
15, 101616, Note_on_c, 14, 69, 21
15, 101642, Note_on_c, 14, 67, 0
15, 101645, Note_on_c, 14, 71, 0
15, 101991, Note_on_c, 14, 66, 0
15, 102002, Note_on_c, 14, 69, 0
15, 102004, Note_on_c, 14, 67, 98
15, 102005, Note_on_c, 14, 64, 102
15, 102272, Note_on_c, 14, 64, 0
15, 102284, Note_on_c, 14, 67, 0
15, 102303, Note_on_c, 14, 79, 112
15, 102304, Note_on_c, 14, 76, 111
15, 102844, Note_on_c, 14, 77, 106
15, 102872, Note_on_c, 14, 76, 0
15, 103634, Note_on_c, 14, 77, 0
15, 103640, Note_on_c, 14, 79, 0
15, 103661, Note_on_c, 14, 76, 93
15, 103663, Note_on_c, 14, 79, 99
15, 104503, Note_on_c, 14, 76, 0
15, 104506, Note_on_c, 14, 77, 107
15, 105383, Note_on_c, 14, 76, 107
15, 105399, Note_on_c, 14, 77, 0
15, 105617, Note_on_c, 14, 79, 0
15, 105617, Note_on_c, 14, 76, 0
15, 107630, Control_c, 14, 11, 50
15, 107630, Note_on_c, 14, 79, 32
15, 107636, Control_c, 14, 11, 54
15, 107638, Note_on_c, 14, 76, 25
15, 107642, Control_c, 14, 11, 56
15, 107648, Control_c, 14, 11, 58
15, 107654, Control_c, 14, 11, 60
15, 107660, Control_c, 14, 11, 62
15, 107666, Control_c, 14, 11, 63
15, 107672, Control_c, 14, 11, 65
15, 107678, Control_c, 14, 11, 66
15, 107684, Control_c, 14, 11, 67
15, 107690, Control_c, 14, 11, 68
15, 107696, Control_c, 14, 11, 69
15, 107702, Control_c, 14, 11, 70
15, 107708, Control_c, 14, 11, 71
15, 107714, Control_c, 14, 11, 72
15, 107720, Control_c, 14, 11, 73
15, 107726, Control_c, 14, 11, 74
15, 107738, Control_c, 14, 11, 75
15, 107750, Control_c, 14, 11, 76
15, 107762, Control_c, 14, 11, 77
15, 107786, Control_c, 14, 11, 78
15, 107810, Control_c, 14, 11, 79
15, 107852, Control_c, 14, 11, 80
15, 107894, Control_c, 14, 11, 79
15, 107930, Control_c, 14, 11, 78
15, 107966, Control_c, 14, 11, 77
15, 108008, Control_c, 14, 11, 76
15, 108044, Control_c, 14, 11, 75
15, 108080, Control_c, 14, 11, 74
15, 108116, Control_c, 14, 11, 73
15, 108158, Control_c, 14, 11, 72
15, 108194, Control_c, 14, 11, 71
15, 108230, Control_c, 14, 11, 70
15, 108266, Control_c, 14, 11, 69
15, 108308, Control_c, 14, 11, 68
15, 108344, Control_c, 14, 11, 67
15, 108380, Control_c, 14, 11, 66
15, 108416, Control_c, 14, 11, 65
15, 108458, Control_c, 14, 11, 64
15, 108494, Control_c, 14, 11, 63
15, 108512, Note_on_c, 14, 76, 0
15, 108530, Control_c, 14, 11, 62
15, 108566, Control_c, 14, 11, 61
15, 108604, Control_c, 14, 11, 60
15, 108604, Note_on_c, 14, 76, 23
15, 108620, Note_on_c, 14, 72, 28
15, 108696, Note_on_c, 14, 79, 0
15, 108862, Note_on_c, 14, 72, 0
15, 108889, Note_on_c, 14, 76, 0
15, 109415, Control_c, 14, 11, 50
15, 109415, Note_on_c, 14, 79, 29
15, 109415, Note_on_c, 14, 76, 39
15, 109421, Control_c, 14, 11, 54
15, 109427, Control_c, 14, 11, 57
15, 109433, Control_c, 14, 11, 60
15, 109439, Control_c, 14, 11, 63
15, 109445, Control_c, 14, 11, 65
15, 109451, Control_c, 14, 11, 67
15, 109457, Control_c, 14, 11, 68
15, 109463, Control_c, 14, 11, 70
15, 109469, Control_c, 14, 11, 71
15, 109475, Control_c, 14, 11, 72
15, 109481, Control_c, 14, 11, 73
15, 109487, Control_c, 14, 11, 74
15, 109493, Control_c, 14, 11, 75
15, 109505, Control_c, 14, 11, 76
15, 109511, Control_c, 14, 11, 77
15, 109529, Control_c, 14, 11, 78
15, 109541, Control_c, 14, 11, 79
15, 109577, Control_c, 14, 11, 80
15, 109954, Note_on_c, 14, 78, 43
15, 109963, Note_on_c, 14, 75, 37
15, 109981, Note_on_c, 14, 79, 0
15, 110003, Note_on_c, 14, 76, 0
15, 110250, Note_on_c, 14, 77, 53
15, 110261, Note_on_c, 14, 74, 23
15, 110275, Note_on_c, 14, 75, 0
15, 110304, Note_on_c, 14, 78, 0
15, 110557, Note_on_c, 14, 74, 0
15, 110558, Note_on_c, 14, 76, 55
15, 110580, Note_on_c, 14, 72, 40
15, 110596, Note_on_c, 14, 77, 0
15, 110859, Note_on_c, 14, 72, 0
15, 110899, Note_on_c, 14, 72, 46
15, 110905, Note_on_c, 14, 69, 36
15, 110921, Note_on_c, 14, 76, 0
15, 111239, Control_c, 14, 11, 80
15, 111239, Note_on_c, 14, 71, 49
15, 111261, Note_on_c, 14, 67, 28
15, 111265, Note_on_c, 14, 69, 0
15, 111288, Note_on_c, 14, 72, 0
15, 111347, Control_c, 14, 11, 79
15, 111455, Control_c, 14, 11, 78
15, 111557, Control_c, 14, 11, 77
15, 111665, Control_c, 14, 11, 76
15, 111767, Control_c, 14, 11, 75
15, 111875, Control_c, 14, 11, 74
15, 111983, Control_c, 14, 11, 73
15, 112085, Control_c, 14, 11, 72
15, 112193, Control_c, 14, 11, 71
15, 112208, Note_on_c, 14, 63, 67
15, 112223, Note_on_c, 14, 67, 0
15, 112295, Control_c, 14, 11, 70
15, 112403, Control_c, 14, 11, 69
15, 112511, Control_c, 14, 11, 68
15, 112613, Control_c, 14, 11, 67
15, 112721, Control_c, 14, 11, 66
15, 112823, Control_c, 14, 11, 65
15, 112931, Control_c, 14, 11, 64
15, 113039, Control_c, 14, 11, 63
15, 113141, Control_c, 14, 11, 62
15, 113249, Control_c, 14, 11, 61
15, 113351, Control_c, 14, 11, 60
15, 113351, Note_on_c, 14, 64, 54
15, 113400, Note_on_c, 14, 71, 0
15, 113501, Note_on_c, 14, 63, 0
15, 113720, Note_on_c, 14, 64, 0
15, 157426, Control_c, 14, 11, 22
15, 157426, Note_on_c, 14, 67, 42
15, 157427, Note_on_c, 14, 71, 70
15, 157431, Control_c, 14, 11, 27
15, 157436, Control_c, 14, 11, 31
15, 157441, Control_c, 14, 11, 34
15, 157446, Control_c, 14, 11, 36
15, 157451, Control_c, 14, 11, 39
15, 157456, Control_c, 14, 11, 41
15, 157461, Control_c, 14, 11, 43
15, 157466, Control_c, 14, 11, 45
15, 157471, Control_c, 14, 11, 47
15, 157476, Control_c, 14, 11, 48
15, 157481, Control_c, 14, 11, 49
15, 157486, Control_c, 14, 11, 50
15, 157491, Control_c, 14, 11, 51
15, 157496, Control_c, 14, 11, 52
15, 157501, Control_c, 14, 11, 53
15, 157506, Control_c, 14, 11, 54
15, 157511, Control_c, 14, 11, 55
15, 157521, Control_c, 14, 11, 56
15, 157531, Control_c, 14, 11, 57
15, 157541, Control_c, 14, 11, 58
15, 157561, Control_c, 14, 11, 59
15, 157591, Control_c, 14, 11, 60
15, 157615, Control_c, 14, 11, 61
15, 157630, Control_c, 14, 11, 62
15, 157645, Control_c, 14, 11, 63
15, 157660, Control_c, 14, 11, 64
15, 157675, Control_c, 14, 11, 65
15, 157690, Control_c, 14, 11, 66
15, 157705, Control_c, 14, 11, 67
15, 157720, Control_c, 14, 11, 68
15, 157735, Control_c, 14, 11, 69
15, 157750, Control_c, 14, 11, 70
15, 157765, Control_c, 14, 11, 71
15, 157780, Control_c, 14, 11, 72
15, 157800, Control_c, 14, 11, 73
15, 157815, Control_c, 14, 11, 74
15, 157830, Control_c, 14, 11, 75
15, 157845, Control_c, 14, 11, 76
15, 157860, Control_c, 14, 11, 77
15, 157875, Control_c, 14, 11, 78
15, 157890, Control_c, 14, 11, 79
15, 157904, Control_c, 14, 11, 80
15, 157904, Note_on_c, 14, 72, 60
15, 157908, Note_on_c, 14, 69, 59
15, 157912, Note_on_c, 14, 67, 0
15, 157919, Control_c, 14, 11, 79
15, 157934, Control_c, 14, 11, 78
15, 157939, Note_on_c, 14, 71, 0
15, 157944, Control_c, 14, 11, 77
15, 157959, Control_c, 14, 11, 76
15, 157969, Control_c, 14, 11, 75
15, 157984, Control_c, 14, 11, 74
15, 157994, Control_c, 14, 11, 73
15, 158009, Control_c, 14, 11, 72
15, 158019, Control_c, 14, 11, 71
15, 158034, Control_c, 14, 11, 70
15, 158049, Control_c, 14, 11, 69
15, 158059, Control_c, 14, 11, 68
15, 158074, Control_c, 14, 11, 67
15, 158084, Control_c, 14, 11, 66
15, 158099, Control_c, 14, 11, 65
15, 158109, Control_c, 14, 11, 64
15, 158124, Control_c, 14, 11, 63
15, 158134, Control_c, 14, 11, 62
15, 158149, Control_c, 14, 11, 61
15, 158159, Control_c, 14, 11, 60
15, 158880, Control_c, 14, 11, 60
15, 158915, Control_c, 14, 11, 59
15, 158945, Control_c, 14, 11, 58
15, 158980, Control_c, 14, 11, 57
15, 159010, Control_c, 14, 11, 56
15, 159040, Control_c, 14, 11, 55
15, 159075, Control_c, 14, 11, 54
15, 159105, Control_c, 14, 11, 53
15, 159140, Control_c, 14, 11, 52
15, 159170, Control_c, 14, 11, 51
15, 159200, Control_c, 14, 11, 50
15, 159235, Control_c, 14, 11, 49
15, 159265, Control_c, 14, 11, 48
15, 159300, Control_c, 14, 11, 47
15, 159330, Control_c, 14, 11, 46
15, 159360, Control_c, 14, 11, 45
15, 159395, Control_c, 14, 11, 44
15, 159425, Control_c, 14, 11, 43
15, 159460, Control_c, 14, 11, 42
15, 159490, Control_c, 14, 11, 41
15, 159520, Control_c, 14, 11, 40
15, 159555, Control_c, 14, 11, 39
15, 159585, Control_c, 14, 11, 38
15, 159620, Control_c, 14, 11, 37
15, 159650, Control_c, 14, 11, 36
15, 159680, Control_c, 14, 11, 35
15, 159714, Note_on_c, 14, 69, 0
15, 159715, Control_c, 14, 11, 34
15, 159736, Note_on_c, 14, 72, 0
15, 159745, Control_c, 14, 11, 33
15, 159780, Control_c, 14, 11, 32
15, 159810, Control_c, 14, 11, 31
15, 159840, Control_c, 14, 11, 30
15, 197280, Control_c, 14, 11, 80
15, 197469, Note_on_c, 14, 69, 88
15, 197477, Note_on_c, 14, 66, 102
15, 197733, Note_on_c, 14, 70, 103
15, 197739, Note_on_c, 14, 67, 99
15, 197746, Note_on_c, 14, 69, 0
15, 197763, Note_on_c, 14, 66, 0
15, 197878, Note_on_c, 14, 70, 0
15, 197885, Note_on_c, 14, 67, 0
15, 199011, Note_on_c, 14, 67, 95
15, 199011, Note_on_c, 14, 70, 94
15, 199268, Note_on_c, 14, 70, 0
15, 199269, Note_on_c, 14, 71, 92
15, 199460, Note_on_c, 14, 71, 0
15, 199478, Note_on_c, 14, 67, 0
15, 200494, Note_on_c, 14, 71, 96
15, 200498, Note_on_c, 14, 67, 87
15, 200737, Note_on_c, 14, 72, 83
15, 200772, Note_on_c, 14, 71, 0
15, 200910, Note_on_c, 14, 67, 0
15, 200911, Note_on_c, 14, 72, 0
15, 258608, Control_c, 14, 11, 50
15, 258608, Note_on_c, 14, 59, 43
15, 258613, Control_c, 14, 11, 52
15, 258616, Note_on_c, 14, 64, 49
15, 258618, Control_c, 14, 11, 54
15, 258623, Control_c, 14, 11, 55
15, 258628, Control_c, 14, 11, 56
15, 258633, Control_c, 14, 11, 57
15, 258638, Control_c, 14, 11, 58
15, 258643, Control_c, 14, 11, 59
15, 258648, Control_c, 14, 11, 60
15, 258653, Control_c, 14, 11, 61
15, 258658, Control_c, 14, 11, 62
15, 258663, Control_c, 14, 11, 63
15, 258668, Control_c, 14, 11, 64
15, 258673, Control_c, 14, 11, 65
15, 258683, Control_c, 14, 11, 66
15, 258688, Control_c, 14, 11, 67
15, 258698, Control_c, 14, 11, 68
15, 258708, Control_c, 14, 11, 69
15, 258718, Control_c, 14, 11, 70
15, 258728, Control_c, 14, 11, 71
15, 258738, Control_c, 14, 11, 72
15, 258748, Control_c, 14, 11, 73
15, 258763, Control_c, 14, 11, 74
15, 258778, Control_c, 14, 11, 75
15, 258798, Control_c, 14, 11, 76
15, 258823, Control_c, 14, 11, 77
15, 258853, Control_c, 14, 11, 78
15, 258893, Control_c, 14, 11, 79
15, 258968, Control_c, 14, 11, 80
15, 259734, Note_on_c, 14, 57, 60
15, 259786, Note_on_c, 14, 59, 0
15, 260885, Note_on_c, 14, 57, 0
15, 260959, Note_on_c, 14, 63, 72
15, 260963, Note_on_c, 14, 57, 23
15, 261026, Note_on_c, 14, 64, 0
15, 261827, Note_on_c, 14, 56, 73
15, 261873, Note_on_c, 14, 57, 0
15, 262762, Note_on_c, 14, 56, 0
15, 262945, Note_on_c, 14, 56, 30
15, 262950, Note_on_c, 14, 61, 65
15, 263091, Note_on_c, 14, 63, 0
15, 263784, Note_on_c, 14, 55, 74
15, 263800, Note_on_c, 14, 56, 0
15, 264750, Note_on_c, 14, 58, 66
15, 264800, Note_on_c, 14, 55, 0
15, 265082, Note_on_c, 14, 58, 0
15, 265092, Note_on_c, 14, 61, 0
15, 282720, Control_c, 14, 11, 60
15, 282776, Note_on_c, 14, 68, 91
15, 282779, Note_on_c, 14, 64, 80
15, 282795, Control_c, 14, 11, 61
15, 282865, Control_c, 14, 11, 62
15, 282940, Control_c, 14, 11, 63
15, 283010, Control_c, 14, 11, 64
15, 283080, Control_c, 14, 11, 65
15, 283155, Control_c, 14, 11, 66
15, 283225, Control_c, 14, 11, 67
15, 283300, Control_c, 14, 11, 68
15, 283370, Control_c, 14, 11, 69
15, 283440, Control_c, 14, 11, 70
15, 283460, Note_on_c, 14, 69, 92
15, 283464, Note_on_c, 14, 66, 94
15, 283475, Note_on_c, 14, 68, 0
15, 283487, Note_on_c, 14, 64, 0
15, 283515, Control_c, 14, 11, 71
15, 283585, Control_c, 14, 11, 72
15, 283660, Control_c, 14, 11, 73
15, 283730, Control_c, 14, 11, 74
15, 283800, Control_c, 14, 11, 75
15, 283875, Control_c, 14, 11, 76
15, 283945, Control_c, 14, 11, 77
15, 284020, Control_c, 14, 11, 78
15, 284090, Control_c, 14, 11, 79
15, 284160, Control_c, 14, 11, 80
15, 284287, Note_on_c, 14, 68, 86
15, 284287, Note_on_c, 14, 64, 85
15, 284296, Note_on_c, 14, 66, 0
15, 284322, Note_on_c, 14, 69, 0
15, 284474, Note_on_c, 14, 68, 0
15, 284493, Note_on_c, 14, 64, 0
15, 294748, Control_c, 14, 11, 60
15, 294748, Note_on_c, 14, 68, 93
15, 294752, Note_on_c, 14, 64, 81
15, 294808, Control_c, 14, 11, 61
15, 294868, Control_c, 14, 11, 62
15, 294928, Control_c, 14, 11, 63
15, 294983, Control_c, 14, 11, 64
15, 295043, Control_c, 14, 11, 65
15, 295103, Control_c, 14, 11, 66
15, 295158, Control_c, 14, 11, 67
15, 295218, Control_c, 14, 11, 68
15, 295278, Control_c, 14, 11, 69
15, 295338, Control_c, 14, 11, 70
15, 295388, Note_on_c, 14, 69, 93
15, 295393, Control_c, 14, 11, 71
15, 295395, Note_on_c, 14, 66, 98
15, 295408, Note_on_c, 14, 68, 0
15, 295419, Note_on_c, 14, 64, 0
15, 295453, Control_c, 14, 11, 72
15, 295513, Control_c, 14, 11, 73
15, 295568, Control_c, 14, 11, 74
15, 295628, Control_c, 14, 11, 75
15, 295688, Control_c, 14, 11, 76
15, 295748, Control_c, 14, 11, 77
15, 295803, Control_c, 14, 11, 78
15, 295863, Control_c, 14, 11, 79
15, 295889, Note_on_c, 14, 66, 0
15, 295891, Note_on_c, 14, 69, 0
15, 295920, Control_c, 14, 11, 80
15, 308845, Control_c, 14, 11, 60
15, 308845, Note_on_c, 14, 75, 115
15, 308847, Note_on_c, 14, 69, 100
15, 308895, Control_c, 14, 11, 61
15, 308945, Control_c, 14, 11, 62
15, 308995, Control_c, 14, 11, 63
15, 309045, Control_c, 14, 11, 64
15, 309095, Control_c, 14, 11, 65
15, 309145, Control_c, 14, 11, 66
15, 309195, Control_c, 14, 11, 67
15, 309245, Control_c, 14, 11, 68
15, 309295, Control_c, 14, 11, 69
15, 309345, Control_c, 14, 11, 70
15, 309395, Control_c, 14, 11, 71
15, 309445, Control_c, 14, 11, 72
15, 309495, Control_c, 14, 11, 73
15, 309545, Control_c, 14, 11, 74
15, 309595, Control_c, 14, 11, 75
15, 309617, Note_on_c, 14, 71, 76
15, 309620, Note_on_c, 14, 74, 86
15, 309639, Note_on_c, 14, 69, 0
15, 309640, Note_on_c, 14, 75, 0
15, 309645, Control_c, 14, 11, 76
15, 309690, Control_c, 14, 11, 77
15, 309740, Control_c, 14, 11, 78
15, 309790, Control_c, 14, 11, 79
15, 309840, Control_c, 14, 11, 80
15, 310589, Note_on_c, 14, 71, 0
15, 310610, Note_on_c, 14, 73, 85
15, 310612, Note_on_c, 14, 69, 68
15, 310649, Note_on_c, 14, 74, 0
15, 311068, Note_on_c, 14, 69, 0
15, 311074, Note_on_c, 14, 68, 93
15, 311078, Note_on_c, 14, 74, 85
15, 311080, Note_on_c, 14, 73, 0
15, 311559, Note_on_c, 14, 68, 0
15, 311561, Note_on_c, 14, 73, 85
15, 311562, Note_on_c, 14, 69, 75
15, 311573, Note_on_c, 14, 74, 0
15, 311772, Note_on_c, 14, 73, 0
15, 311802, Note_on_c, 14, 75, 103
15, 312045, Note_on_c, 14, 68, 77
15, 312049, Note_on_c, 14, 76, 90
15, 312066, Note_on_c, 14, 69, 0
15, 312070, Note_on_c, 14, 75, 0
15, 312504, Note_on_c, 14, 68, 0
15, 312505, Note_on_c, 14, 76, 0
15, 312519, Note_on_c, 14, 78, 79
15, 312522, Note_on_c, 14, 69, 91
15, 312967, Note_on_c, 14, 69, 0
15, 312974, Note_on_c, 14, 78, 0
15, 312995, Note_on_c, 14, 76, 82
15, 312996, Note_on_c, 14, 67, 85
15, 313416, Note_on_c, 14, 76, 0
15, 313427, Note_on_c, 14, 67, 0
15, 313524, Note_on_c, 14, 78, 88
15, 313527, Note_on_c, 14, 71, 86
15, 313783, Note_on_c, 14, 78, 0
15, 313797, Note_on_c, 14, 77, 83
15, 314042, Note_on_c, 14, 72, 88
15, 314046, Note_on_c, 14, 76, 84
15, 314057, Note_on_c, 14, 77, 0
15, 314057, Note_on_c, 14, 71, 0
15, 314244, Note_on_c, 14, 72, 0
15, 314280, Note_on_c, 14, 74, 83
15, 314282, Note_on_c, 14, 68, 100
15, 314284, Note_on_c, 14, 76, 0
15, 314498, Note_on_c, 14, 68, 0
15, 314538, Note_on_c, 14, 69, 98
15, 314544, Note_on_c, 14, 72, 65
15, 314548, Note_on_c, 14, 74, 0
15, 314712, Note_on_c, 14, 69, 0
15, 314785, Note_on_c, 14, 72, 0
15, 314789, Note_on_c, 14, 66, 107
15, 314795, Note_on_c, 14, 71, 63
15, 315006, Note_on_c, 14, 66, 0
15, 315032, Note_on_c, 14, 67, 98
15, 315226, Note_on_c, 14, 67, 0
15, 315277, Note_on_c, 14, 64, 108
15, 315282, Note_on_c, 14, 70, 67
15, 315310, Note_on_c, 14, 71, 0
15, 315420, Note_on_c, 14, 64, 0
15, 315511, Note_on_c, 14, 70, 0
15, 315520, Note_on_c, 14, 63, 116
15, 315530, Note_on_c, 14, 71, 54
15, 315673, Note_on_c, 14, 63, 0
15, 315688, Note_on_c, 14, 71, 0
15, 316735, Note_on_c, 14, 76, 92
15, 316738, Note_on_c, 14, 67, 108
15, 316799, Note_on_c, 14, 76, 0
15, 316801, Note_on_c, 14, 67, 0
15, 316984, Note_on_c, 14, 76, 101
15, 316985, Note_on_c, 14, 67, 112
15, 317077, Note_on_c, 14, 67, 0
15, 317079, Note_on_c, 14, 76, 0
15, 318200, Note_on_c, 14, 71, 92
15, 318202, Note_on_c, 14, 68, 108
15, 318259, Note_on_c, 14, 68, 0
15, 318263, Note_on_c, 14, 71, 0
15, 318452, Note_on_c, 14, 71, 102
15, 318453, Note_on_c, 14, 68, 112
15, 318528, Note_on_c, 14, 68, 0
15, 318539, Note_on_c, 14, 71, 0
15, 319634, Note_on_c, 14, 69, 114
15, 319638, Note_on_c, 14, 78, 93
15, 319700, Note_on_c, 14, 78, 0
15, 319716, Note_on_c, 14, 69, 0
15, 320358, Note_on_c, 14, 78, 103
15, 320359, Note_on_c, 14, 70, 120
15, 320419, Note_on_c, 14, 78, 0
15, 320429, Note_on_c, 14, 70, 0
15, 321066, Note_on_c, 14, 78, 101
15, 321067, Note_on_c, 14, 66, 106
15, 321124, Note_on_c, 14, 66, 0
15, 321128, Note_on_c, 14, 78, 0
15, 321314, Note_on_c, 14, 78, 98
15, 321317, Note_on_c, 14, 66, 97
15, 321378, Note_on_c, 14, 66, 0
15, 321380, Note_on_c, 14, 78, 0
15, 321572, Note_on_c, 14, 66, 105
15, 321573, Note_on_c, 14, 72, 97
15, 322247, Note_on_c, 14, 66, 0
15, 322262, Note_on_c, 14, 72, 0
15, 322299, Note_on_c, 14, 66, 98
15, 322302, Note_on_c, 14, 72, 57
15, 322541, Note_on_c, 14, 72, 0
15, 322543, Note_on_c, 14, 67, 100
15, 322551, Note_on_c, 14, 73, 65
15, 322582, Note_on_c, 14, 66, 0
15, 322768, Note_on_c, 14, 66, 107
15, 322785, Note_on_c, 14, 67, 0
15, 322883, Note_on_c, 14, 73, 0
15, 322933, Note_on_c, 14, 66, 0
15, 322989, Note_on_c, 14, 66, 99
15, 323003, Note_on_c, 14, 75, 70
15, 323216, Note_on_c, 14, 66, 0
15, 323247, Note_on_c, 14, 72, 76
15, 323248, Note_on_c, 14, 66, 78
15, 323257, Note_on_c, 14, 75, 0
15, 323652, Note_on_c, 14, 72, 0
15, 323652, Note_on_c, 14, 66, 0
15, 323714, Note_on_c, 14, 66, 105
15, 323719, Note_on_c, 14, 72, 65
15, 323945, Note_on_c, 14, 72, 0
15, 323954, Note_on_c, 14, 67, 106
15, 323974, Note_on_c, 14, 72, 51
15, 323989, Note_on_c, 14, 66, 0
15, 324148, Note_on_c, 14, 72, 0
15, 324173, Note_on_c, 14, 74, 63
15, 324182, Note_on_c, 14, 69, 106
15, 324208, Note_on_c, 14, 67, 0
15, 324396, Note_on_c, 14, 69, 0
15, 324417, Note_on_c, 14, 71, 98
15, 324830, Note_on_c, 14, 71, 0
15, 324852, Note_on_c, 14, 67, 96
15, 324866, Note_on_c, 14, 72, 59
15, 324891, Note_on_c, 14, 74, 0
15, 325092, Note_on_c, 14, 67, 0
15, 325094, Note_on_c, 14, 69, 109
15, 325558, Note_on_c, 14, 71, 63
15, 325566, Note_on_c, 14, 66, 120
15, 325572, Note_on_c, 14, 69, 0
15, 325593, Note_on_c, 14, 72, 0
15, 325652, Note_on_c, 14, 71, 0
15, 325666, Note_on_c, 14, 66, 0
15, 325816, Note_on_c, 14, 67, 113
15, 325819, Note_on_c, 14, 71, 85
15, 325954, Note_on_c, 14, 67, 0
15, 325954, Note_on_c, 14, 71, 0
15, 327609, Note_on_c, 14, 79, 59
15, 327761, Note_on_c, 14, 76, 63
15, 327844, Note_on_c, 14, 79, 0
15, 327959, Note_on_c, 14, 73, 70
15, 328001, Note_on_c, 14, 76, 0
15, 328035, Note_on_c, 14, 71, 55
15, 328066, Note_on_c, 14, 73, 0
15, 328312, Note_on_c, 14, 70, 33
15, 328387, Note_on_c, 14, 71, 0
15, 328544, Note_on_c, 14, 70, 0
15, 329322, Note_on_c, 14, 79, 63
15, 329484, Note_on_c, 14, 76, 55
15, 329536, Note_on_c, 14, 79, 0
15, 329699, Note_on_c, 14, 73, 48
15, 329746, Note_on_c, 14, 76, 0
15, 329777, Note_on_c, 14, 71, 55
15, 329807, Note_on_c, 14, 73, 0
15, 330060, Note_on_c, 14, 70, 50
15, 330104, Note_on_c, 14, 71, 0
15, 330218, Note_on_c, 14, 70, 0
15, 330327, Note_on_c, 14, 67, 84
15, 330328, Note_on_c, 14, 73, 92
15, 330539, Note_on_c, 14, 67, 0
15, 330542, Note_on_c, 14, 73, 0
15, 330570, Note_on_c, 14, 71, 93
15, 330575, Note_on_c, 14, 66, 96
15, 330728, Note_on_c, 14, 71, 0
15, 330731, Note_on_c, 14, 66, 0
15, 330819, Note_on_c, 14, 66, 104
15, 330820, Note_on_c, 14, 71, 99
15, 331021, Note_on_c, 14, 66, 0
15, 331024, Note_on_c, 14, 71, 0
15, 331056, Note_on_c, 14, 71, 78
15, 331057, Note_on_c, 14, 67, 99
15, 331246, Note_on_c, 14, 67, 0
15, 331248, Note_on_c, 14, 71, 0
15, 331284, Note_on_c, 14, 71, 86
15, 331291, Note_on_c, 14, 69, 102
15, 331438, Note_on_c, 14, 71, 0
15, 331441, Note_on_c, 14, 69, 0
15, 331527, Note_on_c, 14, 67, 97
15, 331528, Note_on_c, 14, 76, 108
15, 331720, Note_on_c, 14, 67, 0
15, 331758, Note_on_c, 14, 76, 0
15, 331765, Note_on_c, 14, 66, 113
15, 331766, Note_on_c, 14, 71, 88
15, 331973, Note_on_c, 14, 71, 0
15, 331990, Note_on_c, 14, 66, 0
15, 332004, Note_on_c, 14, 71, 83
15, 332009, Note_on_c, 14, 67, 98
15, 332118, Note_on_c, 14, 67, 0
15, 332119, Note_on_c, 14, 71, 0
15, 332246, Note_on_c, 14, 71, 107
15, 332358, Note_on_c, 14, 66, 109
15, 332468, Note_on_c, 14, 67, 104
15, 332495, Note_on_c, 14, 66, 0
15, 332585, Note_on_c, 14, 66, 114
15, 332610, Note_on_c, 14, 67, 0
15, 332672, Note_on_c, 14, 71, 0
15, 332700, Note_on_c, 14, 67, 102
15, 332701, Note_on_c, 14, 71, 91
15, 332733, Note_on_c, 14, 66, 0
15, 332765, Note_on_c, 14, 71, 0
15, 332807, Note_on_c, 14, 67, 0
15, 332931, Note_on_c, 14, 71, 109
15, 333034, Note_on_c, 14, 66, 109
15, 333154, Note_on_c, 14, 67, 101
15, 333176, Note_on_c, 14, 66, 0
15, 333259, Note_on_c, 14, 66, 108
15, 333278, Note_on_c, 14, 67, 0
15, 333373, Note_on_c, 14, 71, 0
15, 333382, Note_on_c, 14, 67, 101
15, 333391, Note_on_c, 14, 73, 83
15, 333410, Note_on_c, 14, 66, 0
15, 333477, Note_on_c, 14, 73, 0
15, 333494, Note_on_c, 14, 67, 0
15, 333621, Note_on_c, 14, 67, 96
15, 333622, Note_on_c, 14, 73, 105
15, 333801, Note_on_c, 14, 73, 0
15, 333804, Note_on_c, 14, 67, 0
15, 333844, Note_on_c, 14, 72, 78
15, 333847, Note_on_c, 14, 66, 100
15, 334040, Note_on_c, 14, 66, 0
15, 334042, Note_on_c, 14, 72, 0
15, 334100, Note_on_c, 14, 72, 75
15, 334104, Note_on_c, 14, 66, 89
15, 334276, Note_on_c, 14, 66, 0
15, 334300, Note_on_c, 14, 72, 0
15, 334308, Note_on_c, 14, 71, 92
15, 334309, Note_on_c, 14, 67, 102
15, 334494, Note_on_c, 14, 67, 0
15, 334511, Note_on_c, 14, 71, 0
15, 334528, Note_on_c, 14, 76, 109
15, 334533, Note_on_c, 14, 67, 106
15, 334679, Note_on_c, 14, 76, 0
15, 334707, Note_on_c, 14, 67, 0
15, 334745, Note_on_c, 14, 76, 109
15, 334747, Note_on_c, 14, 67, 109
15, 334837, Note_on_c, 14, 67, 0
15, 334839, Note_on_c, 14, 76, 0
15, 334994, Note_on_c, 14, 71, 106
15, 335131, Note_on_c, 14, 66, 89
15, 335214, Note_on_c, 14, 66, 0
15, 335242, Note_on_c, 14, 67, 45
15, 335354, Note_on_c, 14, 66, 88
15, 335380, Note_on_c, 14, 67, 0
15, 335436, Note_on_c, 14, 71, 0
15, 335468, Note_on_c, 14, 71, 80
15, 335472, Note_on_c, 14, 67, 87
15, 335490, Note_on_c, 14, 66, 0
15, 335561, Note_on_c, 14, 71, 0
15, 335561, Note_on_c, 14, 67, 0
15, 335723, Note_on_c, 14, 71, 114
15, 335836, Note_on_c, 14, 66, 105
15, 335944, Note_on_c, 14, 67, 83
15, 335965, Note_on_c, 14, 66, 0
15, 336062, Note_on_c, 14, 66, 86
15, 336081, Note_on_c, 14, 67, 0
15, 336133, Note_on_c, 14, 71, 0
15, 336148, Note_on_c, 14, 66, 0
15, 336183, Note_on_c, 14, 71, 74
15, 336184, Note_on_c, 14, 67, 84
15, 336346, Note_on_c, 14, 67, 0
15, 336362, Note_on_c, 14, 71, 0
15, 340971, Note_on_c, 14, 72, 44
15, 341065, Note_on_c, 14, 72, 0
15, 341113, Note_on_c, 14, 72, 57
15, 341262, Note_on_c, 14, 71, 55
15, 341298, Note_on_c, 14, 72, 0
15, 341353, Note_on_c, 14, 71, 0
15, 341391, Note_on_c, 14, 71, 51
15, 341516, Note_on_c, 14, 69, 48
15, 341574, Note_on_c, 14, 71, 0
15, 341666, Note_on_c, 14, 67, 43
15, 341691, Note_on_c, 14, 69, 0
15, 341968, Note_on_c, 14, 69, 43
15, 342076, Note_on_c, 14, 67, 0
15, 342288, Note_on_c, 14, 66, 40
15, 342389, Note_on_c, 14, 69, 0
15, 342654, Note_on_c, 14, 64, 29
15, 342767, Note_on_c, 14, 66, 0
15, 343127, Note_on_c, 14, 64, 0
15, 392028, Note_on_c, 14, 70, 63
15, 392028, Note_on_c, 14, 73, 86
15, 392173, Note_on_c, 14, 74, 85
15, 392176, Note_on_c, 14, 73, 0
15, 392179, Note_on_c, 14, 71, 83
15, 392216, Note_on_c, 14, 70, 0
15, 392301, Note_on_c, 14, 76, 88
15, 392312, Note_on_c, 14, 73, 68
15, 392327, Note_on_c, 14, 71, 0
15, 392327, Note_on_c, 14, 74, 0
15, 392443, Note_on_c, 14, 74, 66
15, 392448, Note_on_c, 14, 71, 65
15, 392455, Note_on_c, 14, 76, 0
15, 392459, Note_on_c, 14, 73, 0
15, 392633, Note_on_c, 14, 74, 0
15, 392634, Note_on_c, 14, 71, 0
15, 395385, Note_on_c, 14, 77, 97
15, 395386, Note_on_c, 14, 74, 89
15, 395528, Note_on_c, 14, 78, 103
15, 395531, Note_on_c, 14, 77, 0
15, 395531, Note_on_c, 14, 75, 84
15, 395560, Note_on_c, 14, 74, 0
15, 395664, Note_on_c, 14, 80, 95
15, 395671, Note_on_c, 14, 78, 0
15, 395676, Note_on_c, 14, 77, 68
15, 395690, Note_on_c, 14, 75, 0
15, 395814, Note_on_c, 14, 78, 76
15, 395821, Note_on_c, 14, 75, 60
15, 395827, Note_on_c, 14, 77, 0
15, 395839, Note_on_c, 14, 80, 0
15, 396002, Note_on_c, 14, 78, 0
15, 396016, Note_on_c, 14, 75, 0
15, 413263, Note_on_c, 14, 68, 81
15, 413271, Note_on_c, 14, 65, 48
15, 413427, Note_on_c, 14, 68, 0
15, 413433, Note_on_c, 14, 69, 70
15, 413439, Note_on_c, 14, 66, 75
15, 413475, Note_on_c, 14, 65, 0
15, 413585, Note_on_c, 14, 71, 80
15, 413589, Note_on_c, 14, 68, 60
15, 413607, Note_on_c, 14, 69, 0
15, 413612, Note_on_c, 14, 66, 0
15, 413741, Note_on_c, 14, 71, 0
15, 413742, Note_on_c, 14, 68, 0
15, 413742, Note_on_c, 14, 69, 52
15, 413747, Note_on_c, 14, 66, 33
15, 414000, Note_on_c, 14, 66, 0
15, 414006, Note_on_c, 14, 69, 0
15, 416844, Note_on_c, 14, 72, 84
15, 416856, Note_on_c, 14, 69, 73
15, 416990, Note_on_c, 14, 73, 99
15, 416995, Note_on_c, 14, 70, 72
15, 416996, Note_on_c, 14, 72, 0
15, 417028, Note_on_c, 14, 69, 0
15, 417128, Note_on_c, 14, 75, 100
15, 417140, Note_on_c, 14, 72, 81
15, 417145, Note_on_c, 14, 73, 0
15, 417161, Note_on_c, 14, 70, 0
15, 417275, Note_on_c, 14, 73, 88
15, 417283, Note_on_c, 14, 70, 75
15, 417296, Note_on_c, 14, 72, 0
15, 417305, Note_on_c, 14, 75, 0
15, 417466, Note_on_c, 14, 73, 0
15, 417481, Note_on_c, 14, 70, 0
15, 433649, Note_on_c, 14, 71, 76
15, 434792, Note_on_c, 14, 73, 95
15, 434829, Note_on_c, 14, 71, 0
15, 435086, Note_on_c, 14, 68, 97
15, 435122, Note_on_c, 14, 73, 0
15, 435382, Note_on_c, 14, 69, 84
15, 435384, Note_on_c, 14, 68, 0
15, 435394, Note_on_c, 14, 66, 99
15, 440177, Note_on_c, 14, 67, 86
15, 440184, Note_on_c, 14, 64, 83
15, 440198, Note_on_c, 14, 69, 0
15, 440204, Note_on_c, 14, 66, 0
15, 441360, Control_c, 14, 11, 80
15, 441370, Control_c, 14, 11, 79
15, 441500, Control_c, 14, 11, 78
15, 441550, Control_c, 14, 11, 77
15, 441590, Control_c, 14, 11, 76
15, 441630, Control_c, 14, 11, 75
15, 441660, Control_c, 14, 11, 74
15, 441690, Control_c, 14, 11, 73
15, 441710, Control_c, 14, 11, 72
15, 441740, Control_c, 14, 11, 71
15, 441760, Control_c, 14, 11, 70
15, 441780, Control_c, 14, 11, 69
15, 441800, Control_c, 14, 11, 68
15, 441820, Control_c, 14, 11, 67
15, 441840, Control_c, 14, 11, 66
15, 441860, Control_c, 14, 11, 65
15, 441870, Control_c, 14, 11, 64
15, 441890, Control_c, 14, 11, 63
15, 441910, Control_c, 14, 11, 62
15, 441920, Control_c, 14, 11, 61
15, 441940, Control_c, 14, 11, 60
15, 441950, Control_c, 14, 11, 59
15, 441970, Control_c, 14, 11, 58
15, 441980, Control_c, 14, 11, 57
15, 442000, Control_c, 14, 11, 56
15, 442010, Control_c, 14, 11, 55
15, 442020, Control_c, 14, 11, 54
15, 442040, Control_c, 14, 11, 53
15, 442050, Control_c, 14, 11, 52
15, 442060, Control_c, 14, 11, 51
15, 442070, Control_c, 14, 11, 50
15, 442184, Note_on_c, 14, 64, 0
15, 442189, Note_on_c, 14, 67, 0
15, 446088, Note_on_c, 14, 69, 96
15, 446088, Control_c, 14, 11, 80
15, 446089, Note_on_c, 14, 66, 94
15, 446098, Control_c, 14, 11, 79
15, 446108, Control_c, 14, 11, 78
15, 446128, Control_c, 14, 11, 77
15, 446148, Control_c, 14, 11, 76
15, 446168, Control_c, 14, 11, 75
15, 446178, Control_c, 14, 11, 74
15, 446198, Control_c, 14, 11, 73
15, 446218, Control_c, 14, 11, 72
15, 446238, Control_c, 14, 11, 71
15, 446258, Control_c, 14, 11, 70
15, 446278, Control_c, 14, 11, 69
15, 446308, Control_c, 14, 11, 68
15, 446328, Control_c, 14, 11, 67
15, 446348, Control_c, 14, 11, 66
15, 446368, Control_c, 14, 11, 65
15, 446398, Control_c, 14, 11, 64
15, 446418, Control_c, 14, 11, 63
15, 446448, Control_c, 14, 11, 62
15, 446468, Control_c, 14, 11, 61
15, 446498, Control_c, 14, 11, 60
15, 446528, Control_c, 14, 11, 59
15, 446558, Control_c, 14, 11, 58
15, 446588, Control_c, 14, 11, 57
15, 446628, Control_c, 14, 11, 56
15, 446668, Control_c, 14, 11, 55
15, 446708, Control_c, 14, 11, 54
15, 446748, Control_c, 14, 11, 53
15, 446798, Control_c, 14, 11, 52
15, 446858, Control_c, 14, 11, 51
15, 446938, Control_c, 14, 11, 50
15, 446969, Note_on_c, 14, 66, 0
15, 446976, Note_on_c, 14, 69, 0
15, 452160, Control_c, 14, 11, 80
15, 452504, Note_on_c, 14, 55, 89
15, 452505, Note_on_c, 14, 59, 83
15, 453309, Note_on_c, 14, 54, 77
15, 453325, Note_on_c, 14, 55, 0
15, 453325, Note_on_c, 14, 59, 0
15, 453620, Note_on_c, 14, 66, 91
15, 453630, Note_on_c, 14, 59, 42
15, 453665, Note_on_c, 14, 54, 0
15, 453906, Note_on_c, 14, 65, 84
15, 453920, Note_on_c, 14, 66, 0
15, 454212, Note_on_c, 14, 59, 0
15, 454213, Note_on_c, 14, 64, 74
15, 454253, Note_on_c, 14, 65, 0
15, 454758, Note_on_c, 14, 64, 0
15, 454798, Note_on_c, 14, 67, 82
15, 454857, Note_on_c, 14, 64, 5
15, 455000, Note_on_c, 14, 64, 0
15, 455019, Note_on_c, 14, 67, 0
15, 455069, Note_on_c, 14, 67, 78
15, 455084, Note_on_c, 14, 64, 55
15, 455347, Note_on_c, 14, 64, 0
15, 455366, Note_on_c, 14, 66, 76
15, 455370, Note_on_c, 14, 67, 0
15, 455479, Note_on_c, 14, 66, 0
15, 455648, Note_on_c, 14, 71, 94
15, 455654, Note_on_c, 14, 66, 99
15, 455899, Note_on_c, 14, 66, 0
15, 455930, Note_on_c, 14, 67, 54
15, 456061, Note_on_c, 14, 71, 0
15, 456082, Note_on_c, 14, 67, 0
15, 456241, Note_on_c, 14, 69, 79
15, 456243, Note_on_c, 14, 66, 83
15, 456472, Note_on_c, 14, 66, 0
15, 456520, Note_on_c, 14, 67, 65
15, 456522, Note_on_c, 14, 69, 0
15, 456528, Note_on_c, 14, 64, 54
15, 456655, Note_on_c, 14, 64, 0
15, 456656, Note_on_c, 14, 67, 0
15, 456818, Note_on_c, 14, 65, 65
15, 456821, Note_on_c, 14, 62, 61
15, 457015, Note_on_c, 14, 62, 0
15, 457111, Note_on_c, 14, 64, 59
15, 457115, Note_on_c, 14, 60, 36
15, 457140, Note_on_c, 14, 65, 0
15, 457201, Note_on_c, 14, 60, 0
15, 457252, Note_on_c, 14, 64, 0
15, 457395, Note_on_c, 14, 64, 59
15, 457402, Note_on_c, 14, 59, 47
15, 457683, Note_on_c, 14, 66, 70
15, 457700, Note_on_c, 14, 64, 0
15, 457975, Note_on_c, 14, 66, 0
15, 457979, Control_c, 14, 11, 80
15, 457979, Note_on_c, 14, 67, 76
15, 457993, Control_c, 14, 11, 79
15, 458007, Control_c, 14, 11, 78
15, 458021, Control_c, 14, 11, 77
15, 458035, Control_c, 14, 11, 76
15, 458049, Control_c, 14, 11, 75
15, 458063, Control_c, 14, 11, 74
15, 458077, Control_c, 14, 11, 73
15, 458091, Control_c, 14, 11, 72
15, 458105, Control_c, 14, 11, 71
15, 458119, Control_c, 14, 11, 70
15, 458133, Control_c, 14, 11, 69
15, 458147, Control_c, 14, 11, 68
15, 458161, Control_c, 14, 11, 67
15, 458175, Control_c, 14, 11, 66
15, 458189, Control_c, 14, 11, 65
15, 458203, Control_c, 14, 11, 64
15, 458217, Control_c, 14, 11, 63
15, 458231, Control_c, 14, 11, 62
15, 458245, Control_c, 14, 11, 61
15, 458259, Control_c, 14, 11, 60
15, 458273, Control_c, 14, 11, 59
15, 458287, Control_c, 14, 11, 58
15, 458301, Control_c, 14, 11, 57
15, 458315, Control_c, 14, 11, 56
15, 458329, Control_c, 14, 11, 55
15, 458343, Control_c, 14, 11, 54
15, 458357, Control_c, 14, 11, 53
15, 458371, Control_c, 14, 11, 52
15, 458385, Control_c, 14, 11, 51
15, 458399, Control_c, 14, 11, 50
15, 458510, Note_on_c, 14, 59, 0
15, 458596, Note_on_c, 14, 61, 74
15, 458874, Note_on_c, 14, 61, 0
15, 458884, Note_on_c, 14, 66, 67
15, 458887, Note_on_c, 14, 67, 0
15, 458889, Note_on_c, 14, 63, 55
15, 459034, Note_on_c, 14, 66, 0
15, 459061, Note_on_c, 14, 63, 0
15, 459120, Control_c, 14, 11, 80
15, 459175, Note_on_c, 14, 62, 93
15, 459181, Note_on_c, 14, 68, 96
15, 459464, Note_on_c, 14, 69, 84
15, 459467, Note_on_c, 14, 62, 0
15, 459467, Note_on_c, 14, 60, 102
15, 459473, Note_on_c, 14, 68, 0
15, 459771, Note_on_c, 14, 64, 101
15, 459785, Note_on_c, 14, 69, 0
15, 460081, Note_on_c, 14, 60, 0
15, 460347, Note_on_c, 14, 71, 87
15, 460353, Note_on_c, 14, 59, 75
15, 460366, Note_on_c, 14, 64, 0
15, 460641, Note_on_c, 14, 64, 84
15, 460663, Note_on_c, 14, 59, 0
15, 460902, Note_on_c, 14, 71, 0
15, 460921, Note_on_c, 14, 70, 99
15, 461169, Note_on_c, 14, 70, 0
15, 461215, Note_on_c, 14, 69, 99
15, 461493, Note_on_c, 14, 64, 0
15, 461501, Note_on_c, 14, 63, 107
15, 461787, Note_on_c, 14, 64, 94
15, 461797, Note_on_c, 14, 63, 0
15, 462047, Note_on_c, 14, 69, 0
15, 462069, Note_on_c, 14, 66, 107
15, 462078, Note_on_c, 14, 69, 82
15, 462097, Note_on_c, 14, 64, 0
15, 462381, Note_on_c, 14, 66, 0
15, 462391, Note_on_c, 14, 69, 0
15, 462887, Note_on_c, 14, 67, 106
15, 462890, Note_on_c, 14, 73, 100
15, 463117, Note_on_c, 14, 67, 0
15, 463127, Note_on_c, 14, 73, 0
15, 465860, Note_on_c, 14, 61, 83
15, 465862, Note_on_c, 14, 64, 86
15, 465921, Note_on_c, 14, 61, 0
15, 465935, Note_on_c, 14, 64, 0
15, 466145, Note_on_c, 14, 66, 98
15, 466146, Note_on_c, 14, 63, 93
15, 466228, Note_on_c, 14, 63, 0
15, 466241, Note_on_c, 14, 66, 0
15, 466449, Note_on_c, 14, 67, 82
15, 466454, Note_on_c, 14, 64, 77
15, 466555, Note_on_c, 14, 64, 0
15, 466572, Note_on_c, 14, 67, 0
15, 467856, Note_on_c, 14, 79, 60
15, 468028, Note_on_c, 14, 76, 52
15, 468099, Note_on_c, 14, 79, 0
15, 468268, Note_on_c, 14, 73, 64
15, 468318, Note_on_c, 14, 76, 0
15, 468346, Note_on_c, 14, 71, 38
15, 468381, Note_on_c, 14, 73, 0
15, 468656, Note_on_c, 14, 70, 44
15, 468724, Note_on_c, 14, 71, 0
15, 468818, Note_on_c, 14, 70, 0
15, 469554, Note_on_c, 14, 61, 93
15, 469558, Note_on_c, 14, 64, 77
15, 469651, Note_on_c, 14, 61, 0
15, 469655, Note_on_c, 14, 64, 0
15, 469837, Note_on_c, 14, 66, 94
15, 469840, Note_on_c, 14, 63, 88
15, 469922, Note_on_c, 14, 63, 0
15, 469941, Note_on_c, 14, 66, 0
15, 470138, Note_on_c, 14, 70, 92
15, 470141, Note_on_c, 14, 64, 82
15, 470227, Note_on_c, 14, 64, 0
15, 470233, Note_on_c, 14, 70, 0
15, 470432, Note_on_c, 14, 70, 93
15, 470438, Note_on_c, 14, 64, 69
15, 470517, Note_on_c, 14, 70, 0
15, 470526, Note_on_c, 14, 64, 0
15, 470726, Note_on_c, 14, 73, 80
15, 470740, Note_on_c, 14, 64, 55
15, 471246, Note_on_c, 14, 64, 0
15, 471279, Note_on_c, 14, 73, 0
15, 471313, Note_on_c, 14, 66, 92
15, 471316, Note_on_c, 14, 75, 91
15, 471390, Note_on_c, 14, 66, 0
15, 471399, Note_on_c, 14, 75, 0
15, 471627, Note_on_c, 14, 76, 90
15, 471630, Note_on_c, 14, 64, 83
15, 471737, Note_on_c, 14, 76, 0
15, 471740, Note_on_c, 14, 64, 0
15, 472014, Control_c, 14, 11, 80
15, 472014, Note_on_c, 14, 78, 71
15, 472033, Note_on_c, 14, 72, 51
15, 472410, Note_on_c, 14, 78, 0
15, 472423, Control_c, 14, 11, 79
15, 472551, Control_c, 14, 11, 78
15, 472619, Control_c, 14, 11, 77
15, 472675, Control_c, 14, 11, 76
15, 472711, Control_c, 14, 11, 75
15, 472747, Control_c, 14, 11, 74
15, 472775, Control_c, 14, 11, 73
15, 472799, Control_c, 14, 11, 72
15, 472819, Control_c, 14, 11, 71
15, 472839, Control_c, 14, 11, 70
15, 472855, Control_c, 14, 11, 69
15, 472871, Control_c, 14, 11, 68
15, 472887, Control_c, 14, 11, 67
15, 472903, Control_c, 14, 11, 66
15, 472911, Control_c, 14, 11, 65
15, 472927, Control_c, 14, 11, 64
15, 472939, Control_c, 14, 11, 63
15, 472947, Control_c, 14, 11, 62
15, 472959, Control_c, 14, 11, 61
15, 472967, Control_c, 14, 11, 60
15, 472975, Control_c, 14, 11, 59
15, 472983, Control_c, 14, 11, 58
15, 472991, Control_c, 14, 11, 57
15, 472999, Control_c, 14, 11, 56
15, 473007, Control_c, 14, 11, 55
15, 473015, Control_c, 14, 11, 54
15, 473023, Control_c, 14, 11, 53
15, 473027, Control_c, 14, 11, 52
15, 473035, Control_c, 14, 11, 51
15, 473039, Control_c, 14, 11, 50
15, 473989, Note_on_c, 14, 63, 49
15, 474014, Note_on_c, 14, 72, 0
15, 474463, Note_on_c, 14, 64, 38
15, 474498, Note_on_c, 14, 63, 0
15, 474916, Note_on_c, 14, 64, 0
15, 483025, Note_on_c, 14, 67, 49
15, 483025, Control_c, 14, 11, 50
15, 483028, Note_on_c, 14, 71, 66
15, 483035, Control_c, 14, 11, 51
15, 483055, Control_c, 14, 11, 52
15, 483065, Control_c, 14, 11, 53
15, 483085, Control_c, 14, 11, 54
15, 483095, Control_c, 14, 11, 55
15, 483115, Control_c, 14, 11, 56
15, 483125, Control_c, 14, 11, 57
15, 483145, Control_c, 14, 11, 58
15, 483155, Control_c, 14, 11, 59
15, 483175, Control_c, 14, 11, 60
15, 483185, Control_c, 14, 11, 61
15, 483205, Control_c, 14, 11, 62
15, 483215, Control_c, 14, 11, 63
15, 483235, Control_c, 14, 11, 64
15, 483245, Control_c, 14, 11, 65
15, 483265, Control_c, 14, 11, 66
15, 483275, Control_c, 14, 11, 67
15, 483295, Control_c, 14, 11, 68
15, 483305, Control_c, 14, 11, 69
15, 483325, Control_c, 14, 11, 70
15, 483345, Control_c, 14, 11, 71
15, 483355, Control_c, 14, 11, 72
15, 483375, Control_c, 14, 11, 73
15, 483385, Control_c, 14, 11, 74
15, 483405, Control_c, 14, 11, 75
15, 483415, Control_c, 14, 11, 76
15, 483435, Control_c, 14, 11, 77
15, 483445, Control_c, 14, 11, 78
15, 483465, Control_c, 14, 11, 79
15, 483475, Control_c, 14, 11, 80
15, 483479, Note_on_c, 14, 71, 0
15, 483479, Note_on_c, 14, 69, 49
15, 483479, Note_on_c, 14, 72, 52
15, 483479, Control_c, 14, 11, 80
15, 483504, Note_on_c, 14, 67, 0
15, 483519, Control_c, 14, 11, 79
15, 483579, Control_c, 14, 11, 78
15, 483639, Control_c, 14, 11, 77
15, 483699, Control_c, 14, 11, 76
15, 483759, Control_c, 14, 11, 75
15, 483819, Control_c, 14, 11, 74
15, 483879, Control_c, 14, 11, 73
15, 483939, Control_c, 14, 11, 72
15, 483999, Control_c, 14, 11, 71
15, 484059, Control_c, 14, 11, 70
15, 484119, Control_c, 14, 11, 69
15, 484179, Control_c, 14, 11, 68
15, 484239, Control_c, 14, 11, 67
15, 484299, Control_c, 14, 11, 66
15, 484359, Control_c, 14, 11, 65
15, 484419, Control_c, 14, 11, 64
15, 484479, Control_c, 14, 11, 63
15, 484539, Control_c, 14, 11, 62
15, 484599, Control_c, 14, 11, 61
15, 484659, Control_c, 14, 11, 60
15, 484719, Control_c, 14, 11, 59
15, 484779, Control_c, 14, 11, 58
15, 484839, Control_c, 14, 11, 57
15, 484899, Control_c, 14, 11, 56
15, 484959, Control_c, 14, 11, 55
15, 485019, Control_c, 14, 11, 54
15, 485079, Control_c, 14, 11, 53
15, 485123, Note_on_c, 14, 72, 0
15, 485125, Note_on_c, 14, 69, 0
15, 485139, Control_c, 14, 11, 52
15, 485199, Control_c, 14, 11, 51
15, 485259, Control_c, 14, 11, 50
15, 591140, Note_on_c, 14, 72, 73
15, 591145, Note_on_c, 14, 64, 51
15, 591898, Note_on_c, 14, 71, 82
15, 591910, Note_on_c, 14, 63, 74
15, 591949, Note_on_c, 14, 72, 0
15, 591950, Note_on_c, 14, 64, 0
15, 592380, Note_on_c, 14, 69, 88
15, 592385, Note_on_c, 14, 66, 86
15, 592401, Note_on_c, 14, 71, 0
15, 592428, Note_on_c, 14, 63, 0
15, 592663, Note_on_c, 14, 67, 78
15, 592664, Note_on_c, 14, 64, 75
15, 592678, Note_on_c, 14, 69, 0
15, 592682, Note_on_c, 14, 66, 0
15, 592911, Note_on_c, 14, 67, 0
15, 592918, Note_on_c, 14, 64, 0
15, 594132, Note_on_c, 14, 72, 84
15, 594137, Note_on_c, 14, 64, 76
15, 594934, Note_on_c, 14, 71, 90
15, 594938, Note_on_c, 14, 63, 95
15, 594980, Note_on_c, 14, 72, 0
15, 594989, Note_on_c, 14, 64, 0
15, 595421, Note_on_c, 14, 69, 89
15, 595430, Note_on_c, 14, 66, 88
15, 595447, Note_on_c, 14, 71, 0
15, 595462, Note_on_c, 14, 63, 0
15, 595718, Note_on_c, 14, 68, 91
15, 595756, Note_on_c, 14, 69, 0
15, 596095, Note_on_c, 14, 68, 0
15, 596097, Note_on_c, 14, 66, 0
15, 597285, Note_on_c, 14, 74, 89
15, 597288, Note_on_c, 14, 65, 94
15, 598084, Note_on_c, 14, 73, 95
15, 598120, Note_on_c, 14, 74, 0
15, 598549, Note_on_c, 14, 71, 97
15, 598564, Note_on_c, 14, 73, 0
15, 598820, Note_on_c, 14, 71, 0
15, 598847, Note_on_c, 14, 71, 89
15, 598851, Note_on_c, 14, 64, 82
15, 598897, Note_on_c, 14, 65, 0
15, 600370, Note_on_c, 14, 70, 51
15, 600397, Note_on_c, 14, 71, 0
15, 600665, Note_on_c, 14, 70, 0
15, 600672, Note_on_c, 14, 64, 0
15, 629280, Control_c, 14, 11, 80
15, 629343, Note_on_c, 14, 79, 112
15, 629344, Note_on_c, 14, 76, 111
15, 629884, Note_on_c, 14, 77, 106
15, 629912, Note_on_c, 14, 76, 0
15, 630674, Note_on_c, 14, 77, 0
15, 630680, Note_on_c, 14, 79, 0
15, 630701, Note_on_c, 14, 76, 93
15, 630703, Note_on_c, 14, 79, 99
15, 631543, Note_on_c, 14, 76, 0
15, 631546, Note_on_c, 14, 77, 107
15, 632423, Note_on_c, 14, 76, 107
15, 632439, Note_on_c, 14, 77, 0
15, 632657, Note_on_c, 14, 79, 0
15, 632657, Note_on_c, 14, 76, 0
15, 634670, Control_c, 14, 11, 50
15, 634670, Note_on_c, 14, 79, 32
15, 634676, Control_c, 14, 11, 54
15, 634678, Note_on_c, 14, 76, 25
15, 634682, Control_c, 14, 11, 56
15, 634688, Control_c, 14, 11, 58
15, 634694, Control_c, 14, 11, 60
15, 634700, Control_c, 14, 11, 62
15, 634706, Control_c, 14, 11, 63
15, 634712, Control_c, 14, 11, 65
15, 634718, Control_c, 14, 11, 66
15, 634724, Control_c, 14, 11, 67
15, 634730, Control_c, 14, 11, 68
15, 634736, Control_c, 14, 11, 69
15, 634742, Control_c, 14, 11, 70
15, 634748, Control_c, 14, 11, 71
15, 634754, Control_c, 14, 11, 72
15, 634760, Control_c, 14, 11, 73
15, 634766, Control_c, 14, 11, 74
15, 634778, Control_c, 14, 11, 75
15, 634790, Control_c, 14, 11, 76
15, 634802, Control_c, 14, 11, 77
15, 634826, Control_c, 14, 11, 78
15, 634850, Control_c, 14, 11, 79
15, 634892, Control_c, 14, 11, 80
15, 634934, Control_c, 14, 11, 79
15, 634970, Control_c, 14, 11, 78
15, 635006, Control_c, 14, 11, 77
15, 635048, Control_c, 14, 11, 76
15, 635084, Control_c, 14, 11, 75
15, 635120, Control_c, 14, 11, 74
15, 635156, Control_c, 14, 11, 73
15, 635198, Control_c, 14, 11, 72
15, 635234, Control_c, 14, 11, 71
15, 635270, Control_c, 14, 11, 70
15, 635306, Control_c, 14, 11, 69
15, 635348, Control_c, 14, 11, 68
15, 635384, Control_c, 14, 11, 67
15, 635420, Control_c, 14, 11, 66
15, 635456, Control_c, 14, 11, 65
15, 635498, Control_c, 14, 11, 64
15, 635534, Control_c, 14, 11, 63
15, 635552, Note_on_c, 14, 76, 0
15, 635570, Control_c, 14, 11, 62
15, 635606, Control_c, 14, 11, 61
15, 635644, Control_c, 14, 11, 60
15, 635644, Note_on_c, 14, 76, 23
15, 635660, Note_on_c, 14, 72, 28
15, 635736, Note_on_c, 14, 79, 0
15, 635902, Note_on_c, 14, 72, 0
15, 635929, Note_on_c, 14, 76, 0
15, 636455, Control_c, 14, 11, 50
15, 636455, Note_on_c, 14, 79, 29
15, 636455, Note_on_c, 14, 76, 39
15, 636461, Control_c, 14, 11, 54
15, 636467, Control_c, 14, 11, 57
15, 636473, Control_c, 14, 11, 60
15, 636479, Control_c, 14, 11, 63
15, 636485, Control_c, 14, 11, 65
15, 636491, Control_c, 14, 11, 67
15, 636497, Control_c, 14, 11, 68
15, 636503, Control_c, 14, 11, 70
15, 636509, Control_c, 14, 11, 71
15, 636515, Control_c, 14, 11, 72
15, 636521, Control_c, 14, 11, 73
15, 636527, Control_c, 14, 11, 74
15, 636533, Control_c, 14, 11, 75
15, 636545, Control_c, 14, 11, 76
15, 636551, Control_c, 14, 11, 77
15, 636569, Control_c, 14, 11, 78
15, 636581, Control_c, 14, 11, 79
15, 636617, Control_c, 14, 11, 80
15, 636994, Note_on_c, 14, 78, 43
15, 637003, Note_on_c, 14, 75, 37
15, 637021, Note_on_c, 14, 79, 0
15, 637043, Note_on_c, 14, 76, 0
15, 637290, Note_on_c, 14, 77, 53
15, 637301, Note_on_c, 14, 74, 23
15, 637315, Note_on_c, 14, 75, 0
15, 637344, Note_on_c, 14, 78, 0
15, 637597, Note_on_c, 14, 74, 0
15, 637598, Note_on_c, 14, 76, 55
15, 637620, Note_on_c, 14, 72, 40
15, 637636, Note_on_c, 14, 77, 0
15, 637899, Note_on_c, 14, 72, 0
15, 637939, Note_on_c, 14, 72, 46
15, 637945, Note_on_c, 14, 69, 36
15, 637961, Note_on_c, 14, 76, 0
15, 638279, Control_c, 14, 11, 80
15, 638279, Note_on_c, 14, 71, 49
15, 638301, Note_on_c, 14, 67, 28
15, 638305, Note_on_c, 14, 69, 0
15, 638328, Note_on_c, 14, 72, 0
15, 638387, Control_c, 14, 11, 79
15, 638495, Control_c, 14, 11, 78
15, 638597, Control_c, 14, 11, 77
15, 638705, Control_c, 14, 11, 76
15, 638807, Control_c, 14, 11, 75
15, 638915, Control_c, 14, 11, 74
15, 639023, Control_c, 14, 11, 73
15, 639125, Control_c, 14, 11, 72
15, 639233, Control_c, 14, 11, 71
15, 639248, Note_on_c, 14, 63, 67
15, 639263, Note_on_c, 14, 67, 0
15, 639335, Control_c, 14, 11, 70
15, 639443, Control_c, 14, 11, 69
15, 639551, Control_c, 14, 11, 68
15, 639653, Control_c, 14, 11, 67
15, 639761, Control_c, 14, 11, 66
15, 639863, Control_c, 14, 11, 65
15, 639971, Control_c, 14, 11, 64
15, 640079, Control_c, 14, 11, 63
15, 640181, Control_c, 14, 11, 62
15, 640289, Control_c, 14, 11, 61
15, 640391, Control_c, 14, 11, 60
15, 640391, Note_on_c, 14, 64, 54
15, 640440, Note_on_c, 14, 71, 0
15, 640541, Note_on_c, 14, 63, 0
15, 640760, Note_on_c, 14, 64, 0
15, 645840, Control_c, 14, 11, 100
15, 645910, Note_on_c, 14, 79, 82
15, 645911, Note_on_c, 14, 71, 85
15, 646270, Note_on_c, 14, 71, 0
15, 646275, Note_on_c, 14, 79, 0
15, 647029, Note_on_c, 14, 64, 84
15, 647212, Note_on_c, 14, 64, 0
15, 647243, Note_on_c, 14, 64, 93
15, 649106, Note_on_c, 14, 64, 0
15, 649440, End_track
16, 0, Start_track
16, 0, Title_t, "Fagotti                             "
16, 0, Control_c, 15, 121, 0
16, 80, Control_c, 15, 101, 0
16, 100, Control_c, 15, 100, 0
16, 120, Control_c, 15, 6, 12
16, 140, Control_c, 15, 10, 82
16, 160, Control_c, 15, 7, 100
16, 180, Control_c, 15, 0, 0
16, 200, Control_c, 15, 32, 0
16, 220, Program_c, 15, 70
16, 240, Control_c, 15, 91, 80
16, 260, Control_c, 15, 93, 24
16, 280, Control_c, 15, 1, 14
16, 300, Control_c, 15, 11, 80
16, 320, Pitch_bend_c, 15, 8192
16, 340, Control_c, 15, 99, 1
16, 360, Control_c, 15, 98, 32
16, 380, Control_c, 15, 6, 50
16, 400, Control_c, 15, 98, 33
16, 420, Control_c, 15, 6, 44
16, 440, Control_c, 15, 98, 100
16, 460, Control_c, 15, 6, 64
16, 480, Control_c, 15, 98, 102
16, 500, Control_c, 15, 6, 64
16, 520, Control_c, 15, 98, 99
16, 705, Control_c, 15, 6, 64
16, 1723, Note_on_c, 15, 52, 76
16, 1994, Note_on_c, 15, 52, 0
16, 2018, Note_on_c, 15, 55, 76
16, 2241, Note_on_c, 15, 55, 0
16, 2315, Note_on_c, 15, 52, 71
16, 2316, Note_on_c, 15, 64, 76
16, 2591, Note_on_c, 15, 52, 0
16, 2594, Note_on_c, 15, 51, 59
16, 2600, Note_on_c, 15, 63, 89
16, 2613, Note_on_c, 15, 64, 0
16, 3159, Note_on_c, 15, 51, 0
16, 3196, Note_on_c, 15, 50, 87
16, 3198, Note_on_c, 15, 62, 65
16, 3206, Note_on_c, 15, 63, 0
16, 3438, Note_on_c, 15, 50, 0
16, 3491, Note_on_c, 15, 49, 88
16, 3492, Note_on_c, 15, 61, 74
16, 3507, Note_on_c, 15, 62, 0
16, 3659, Note_on_c, 15, 49, 0
16, 3769, Note_on_c, 15, 52, 89
16, 3933, Note_on_c, 15, 52, 0
16, 4049, Note_on_c, 15, 61, 0
16, 4066, Note_on_c, 15, 48, 87
16, 4072, Note_on_c, 15, 60, 62
16, 4232, Note_on_c, 15, 48, 0
16, 4321, Note_on_c, 15, 60, 0
16, 4352, Note_on_c, 15, 47, 86
16, 4361, Note_on_c, 15, 59, 54
16, 4494, Note_on_c, 15, 47, 0
16, 4501, Note_on_c, 15, 59, 0
16, 4653, Note_on_c, 15, 59, 69
16, 4655, Note_on_c, 15, 47, 75
16, 4753, Note_on_c, 15, 59, 0
16, 4756, Note_on_c, 15, 47, 0
16, 4933, Note_on_c, 15, 51, 80
16, 4935, Note_on_c, 15, 63, 85
16, 5205, Note_on_c, 15, 63, 0
16, 5227, Note_on_c, 15, 64, 63
16, 5227, Note_on_c, 15, 52, 60
16, 5230, Note_on_c, 15, 51, 0
16, 5338, Note_on_c, 15, 64, 0
16, 5349, Note_on_c, 15, 52, 0
16, 5524, Note_on_c, 15, 47, 77
16, 5526, Note_on_c, 15, 59, 83
16, 5811, Note_on_c, 15, 48, 55
16, 5812, Note_on_c, 15, 47, 0
16, 5812, Note_on_c, 15, 59, 0
16, 5816, Note_on_c, 15, 60, 51
16, 5943, Note_on_c, 15, 60, 0
16, 5955, Note_on_c, 15, 48, 0
16, 6098, Note_on_c, 15, 44, 78
16, 6100, Note_on_c, 15, 56, 85
16, 6332, Note_on_c, 15, 56, 0
16, 6372, Note_on_c, 15, 44, 0
16, 6374, Note_on_c, 15, 45, 60
16, 6381, Note_on_c, 15, 57, 55
16, 6511, Note_on_c, 15, 57, 0
16, 6518, Note_on_c, 15, 45, 0
16, 6669, Note_on_c, 15, 52, 51
16, 6681, Note_on_c, 15, 40, 68
16, 6972, Note_on_c, 15, 51, 72
16, 6978, Note_on_c, 15, 39, 57
16, 6993, Note_on_c, 15, 52, 0
16, 6997, Note_on_c, 15, 40, 0
16, 7280, Note_on_c, 15, 40, 61
16, 7282, Note_on_c, 15, 52, 65
16, 7286, Note_on_c, 15, 51, 0
16, 7291, Note_on_c, 15, 39, 0
16, 7558, Note_on_c, 15, 52, 0
16, 7565, Note_on_c, 15, 55, 54
16, 7576, Note_on_c, 15, 43, 56
16, 7583, Note_on_c, 15, 40, 0
16, 7855, Note_on_c, 15, 46, 37
16, 7856, Note_on_c, 15, 58, 40
16, 7859, Note_on_c, 15, 55, 0
16, 7866, Note_on_c, 15, 43, 0
16, 8152, Note_on_c, 15, 58, 0
16, 8156, Note_on_c, 15, 59, 49
16, 8159, Note_on_c, 15, 47, 41
16, 8187, Note_on_c, 15, 46, 0
16, 8289, Note_on_c, 15, 47, 0
16, 8430, Note_on_c, 15, 52, 101
16, 8690, Note_on_c, 15, 52, 0
16, 8741, Note_on_c, 15, 45, 101
16, 8746, Note_on_c, 15, 59, 0
16, 8754, Note_on_c, 15, 57, 57
16, 8895, Note_on_c, 15, 45, 0
16, 8974, Note_on_c, 15, 57, 0
16, 9044, Note_on_c, 15, 48, 103
16, 9048, Note_on_c, 15, 60, 84
16, 9199, Note_on_c, 15, 60, 0
16, 9203, Note_on_c, 15, 48, 0
16, 9333, Note_on_c, 15, 45, 97
16, 9341, Note_on_c, 15, 57, 79
16, 9455, Note_on_c, 15, 57, 0
16, 9464, Note_on_c, 15, 45, 0
16, 9647, Note_on_c, 15, 56, 98
16, 9655, Note_on_c, 15, 44, 89
16, 10162, Note_on_c, 15, 56, 0
16, 10211, Note_on_c, 15, 44, 0
16, 10220, Note_on_c, 15, 55, 82
16, 10225, Note_on_c, 15, 43, 68
16, 10398, Note_on_c, 15, 55, 0
16, 10499, Note_on_c, 15, 42, 80
16, 10504, Note_on_c, 15, 54, 76
16, 10507, Note_on_c, 15, 43, 0
16, 10596, Note_on_c, 15, 54, 0
16, 10602, Note_on_c, 15, 42, 0
16, 10778, Note_on_c, 15, 54, 88
16, 10778, Note_on_c, 15, 42, 92
16, 10869, Note_on_c, 15, 54, 0
16, 10875, Note_on_c, 15, 42, 0
16, 11060, Note_on_c, 15, 52, 90
16, 11066, Note_on_c, 15, 40, 102
16, 11166, Note_on_c, 15, 52, 0
16, 11169, Note_on_c, 15, 40, 0
16, 11346, Note_on_c, 15, 39, 89
16, 11346, Note_on_c, 15, 51, 97
16, 11473, Note_on_c, 15, 51, 0
16, 11549, Note_on_c, 15, 39, 0
16, 11650, Note_on_c, 15, 63, 97
16, 11656, Note_on_c, 15, 51, 88
16, 11784, Note_on_c, 15, 63, 0
16, 11798, Note_on_c, 15, 51, 0
16, 12202, Note_on_c, 15, 52, 104
16, 12213, Note_on_c, 15, 64, 98
16, 12375, Note_on_c, 15, 52, 0
16, 12390, Note_on_c, 15, 64, 0
16, 13537, Note_on_c, 15, 67, 50
16, 13691, Note_on_c, 15, 64, 59
16, 13751, Note_on_c, 15, 67, 0
16, 13909, Note_on_c, 15, 61, 81
16, 13957, Note_on_c, 15, 64, 0
16, 13981, Note_on_c, 15, 59, 61
16, 14029, Note_on_c, 15, 61, 0
16, 14278, Note_on_c, 15, 58, 48
16, 14358, Note_on_c, 15, 59, 0
16, 14477, Note_on_c, 15, 58, 0
16, 15155, Note_on_c, 15, 46, 97
16, 15158, Note_on_c, 15, 58, 51
16, 15238, Note_on_c, 15, 58, 0
16, 15241, Note_on_c, 15, 46, 0
16, 15436, Note_on_c, 15, 45, 102
16, 15444, Note_on_c, 15, 57, 55
16, 15545, Note_on_c, 15, 57, 0
16, 15550, Note_on_c, 15, 45, 0
16, 15743, Note_on_c, 15, 43, 104
16, 15760, Note_on_c, 15, 55, 48
16, 15862, Note_on_c, 15, 43, 0
16, 15904, Note_on_c, 15, 55, 0
16, 17141, Note_on_c, 15, 67, 41
16, 17309, Note_on_c, 15, 64, 46
16, 17351, Note_on_c, 15, 67, 0
16, 17543, Note_on_c, 15, 61, 65
16, 17572, Note_on_c, 15, 64, 0
16, 17620, Note_on_c, 15, 59, 47
16, 17651, Note_on_c, 15, 61, 0
16, 17916, Note_on_c, 15, 58, 36
16, 18000, Note_on_c, 15, 59, 0
16, 18197, Note_on_c, 15, 58, 0
16, 18844, Note_on_c, 15, 58, 88
16, 18849, Note_on_c, 15, 46, 87
16, 18936, Note_on_c, 15, 58, 0
16, 18942, Note_on_c, 15, 46, 0
16, 19131, Note_on_c, 15, 57, 68
16, 19135, Note_on_c, 15, 45, 67
16, 19238, Note_on_c, 15, 45, 0
16, 19247, Note_on_c, 15, 57, 0
16, 19413, Note_on_c, 15, 55, 75
16, 19421, Note_on_c, 15, 43, 60
16, 19515, Note_on_c, 15, 43, 0
16, 19542, Note_on_c, 15, 55, 0
16, 19714, Note_on_c, 15, 54, 80
16, 19716, Note_on_c, 15, 42, 82
16, 19801, Note_on_c, 15, 54, 0
16, 19807, Note_on_c, 15, 42, 0
16, 20002, Note_on_c, 15, 66, 89
16, 20003, Note_on_c, 15, 54, 76
16, 20098, Note_on_c, 15, 54, 0
16, 20118, Note_on_c, 15, 66, 0
16, 20308, Note_on_c, 15, 66, 88
16, 20309, Note_on_c, 15, 54, 86
16, 20406, Note_on_c, 15, 54, 0
16, 20422, Note_on_c, 15, 66, 0
16, 20588, Note_on_c, 15, 59, 86
16, 20598, Note_on_c, 15, 47, 93
16, 20708, Note_on_c, 15, 47, 0
16, 20712, Note_on_c, 15, 59, 0
16, 20928, Note_on_c, 15, 48, 89
16, 20931, Note_on_c, 15, 60, 91
16, 21047, Note_on_c, 15, 48, 0
16, 21053, Note_on_c, 15, 60, 0
16, 21339, Note_on_c, 15, 57, 54
16, 21350, Note_on_c, 15, 45, 46
16, 22003, Note_on_c, 15, 57, 0
16, 22004, Note_on_c, 15, 45, 0
16, 33577, Note_on_c, 15, 56, 54
16, 33592, Note_on_c, 15, 44, 53
16, 33712, Note_on_c, 15, 44, 0
16, 33878, Note_on_c, 15, 44, 71
16, 33975, Note_on_c, 15, 44, 0
16, 34152, Note_on_c, 15, 44, 76
16, 34245, Note_on_c, 15, 44, 0
16, 34441, Control_c, 15, 11, 80
16, 34441, Note_on_c, 15, 57, 68
16, 34443, Note_on_c, 15, 45, 73
16, 34475, Note_on_c, 15, 56, 0
16, 34486, Control_c, 15, 11, 81
16, 34531, Control_c, 15, 11, 82
16, 34576, Control_c, 15, 11, 83
16, 34621, Control_c, 15, 11, 84
16, 34666, Control_c, 15, 11, 85
16, 34711, Control_c, 15, 11, 86
16, 34756, Control_c, 15, 11, 87
16, 34801, Control_c, 15, 11, 88
16, 34846, Control_c, 15, 11, 89
16, 34891, Control_c, 15, 11, 90
16, 34936, Control_c, 15, 11, 91
16, 34981, Control_c, 15, 11, 92
16, 35026, Control_c, 15, 11, 93
16, 35071, Control_c, 15, 11, 94
16, 35116, Control_c, 15, 11, 95
16, 35149, Note_on_c, 15, 45, 0
16, 35154, Note_on_c, 15, 57, 0
16, 35161, Control_c, 15, 11, 96
16, 35206, Control_c, 15, 11, 97
16, 35230, Note_on_c, 15, 44, 88
16, 35237, Note_on_c, 15, 56, 82
16, 35251, Control_c, 15, 11, 98
16, 35296, Control_c, 15, 11, 99
16, 35340, Control_c, 15, 11, 100
16, 35385, Control_c, 15, 11, 101
16, 35430, Control_c, 15, 11, 102
16, 35475, Control_c, 15, 11, 103
16, 35520, Control_c, 15, 11, 104
16, 35565, Control_c, 15, 11, 105
16, 35610, Control_c, 15, 11, 106
16, 35655, Control_c, 15, 11, 107
16, 35700, Control_c, 15, 11, 108
16, 35745, Control_c, 15, 11, 109
16, 35790, Control_c, 15, 11, 110
16, 35835, Control_c, 15, 11, 111
16, 35880, Control_c, 15, 11, 112
16, 35925, Control_c, 15, 11, 113
16, 35970, Control_c, 15, 11, 114
16, 35987, Note_on_c, 15, 56, 0
16, 36003, Note_on_c, 15, 44, 0
16, 36012, Note_on_c, 15, 57, 91
16, 36015, Note_on_c, 15, 45, 93
16, 36015, Control_c, 15, 11, 115
16, 36060, Control_c, 15, 11, 116
16, 36100, Note_on_c, 15, 45, 0
16, 36105, Control_c, 15, 11, 117
16, 36108, Note_on_c, 15, 57, 0
16, 36150, Control_c, 15, 11, 118
16, 36195, Control_c, 15, 11, 119
16, 36239, Control_c, 15, 11, 120
16, 36309, Control_c, 15, 11, 80
16, 36309, Note_on_c, 15, 52, 99
16, 36316, Note_on_c, 15, 40, 103
16, 36813, Note_on_c, 15, 52, 0
16, 36817, Note_on_c, 15, 40, 0
16, 36827, Note_on_c, 15, 45, 86
16, 36831, Note_on_c, 15, 57, 65
16, 36914, Note_on_c, 15, 45, 0
16, 36915, Note_on_c, 15, 57, 0
16, 37090, Note_on_c, 15, 52, 99
16, 37098, Note_on_c, 15, 40, 104
16, 37572, Note_on_c, 15, 52, 0
16, 37593, Note_on_c, 15, 40, 0
16, 37608, Note_on_c, 15, 45, 79
16, 37608, Note_on_c, 15, 57, 74
16, 37712, Note_on_c, 15, 45, 0
16, 37722, Note_on_c, 15, 57, 0
16, 37879, Note_on_c, 15, 51, 98
16, 37883, Note_on_c, 15, 39, 97
16, 38368, Note_on_c, 15, 39, 0
16, 38374, Note_on_c, 15, 51, 0
16, 38400, Note_on_c, 15, 52, 92
16, 38406, Note_on_c, 15, 40, 80
16, 38472, Note_on_c, 15, 40, 0
16, 38483, Note_on_c, 15, 52, 0
16, 38654, Note_on_c, 15, 51, 109
16, 38658, Note_on_c, 15, 39, 100
16, 39131, Note_on_c, 15, 39, 0
16, 39137, Note_on_c, 15, 51, 0
16, 39186, Note_on_c, 15, 52, 91
16, 39189, Note_on_c, 15, 40, 84
16, 39260, Note_on_c, 15, 40, 0
16, 39301, Note_on_c, 15, 52, 0
16, 39452, Note_on_c, 15, 46, 96
16, 39456, Note_on_c, 15, 58, 101
16, 39978, Note_on_c, 15, 46, 0
16, 39988, Note_on_c, 15, 58, 0
16, 39997, Note_on_c, 15, 47, 91
16, 39998, Note_on_c, 15, 59, 84
16, 40082, Note_on_c, 15, 47, 0
16, 40092, Note_on_c, 15, 59, 0
16, 40268, Note_on_c, 15, 58, 96
16, 40271, Note_on_c, 15, 46, 88
16, 40722, Note_on_c, 15, 46, 0
16, 40735, Note_on_c, 15, 58, 0
16, 40792, Note_on_c, 15, 59, 102
16, 40792, Note_on_c, 15, 47, 100
16, 41151, Note_on_c, 15, 59, 0
16, 41160, Note_on_c, 15, 47, 0
16, 41214, Note_on_c, 15, 58, 104
16, 41215, Note_on_c, 15, 46, 93
16, 41312, Note_on_c, 15, 58, 0
16, 41327, Note_on_c, 15, 46, 0
16, 41337, Note_on_c, 15, 47, 94
16, 41341, Note_on_c, 15, 59, 91
16, 41423, Note_on_c, 15, 47, 0
16, 41445, Note_on_c, 15, 59, 0
16, 41471, Note_on_c, 15, 66, 116
16, 41478, Note_on_c, 15, 54, 95
16, 41574, Note_on_c, 15, 66, 0
16, 41577, Note_on_c, 15, 54, 0
16, 41603, Note_on_c, 15, 67, 112
16, 41609, Note_on_c, 15, 55, 98
16, 41674, Note_on_c, 15, 55, 0
16, 41697, Note_on_c, 15, 67, 0
16, 41870, Note_on_c, 15, 55, 93
16, 41872, Note_on_c, 15, 67, 113
16, 41956, Note_on_c, 15, 55, 0
16, 41962, Note_on_c, 15, 67, 0
16, 42138, Note_on_c, 15, 66, 116
16, 42142, Note_on_c, 15, 54, 105
16, 42233, Note_on_c, 15, 54, 0
16, 42240, Note_on_c, 15, 66, 0
16, 42405, Note_on_c, 15, 59, 98
16, 42412, Note_on_c, 15, 47, 93
16, 42781, Note_on_c, 15, 59, 0
16, 42793, Note_on_c, 15, 47, 0
16, 42799, Note_on_c, 15, 46, 88
16, 42803, Note_on_c, 15, 58, 92
16, 42900, Note_on_c, 15, 46, 0
16, 42921, Note_on_c, 15, 47, 89
16, 42921, Note_on_c, 15, 59, 97
16, 42923, Note_on_c, 15, 58, 0
16, 43026, Note_on_c, 15, 59, 0
16, 43035, Note_on_c, 15, 66, 109
16, 43040, Note_on_c, 15, 54, 100
16, 43051, Note_on_c, 15, 47, 0
16, 43133, Note_on_c, 15, 54, 0
16, 43135, Note_on_c, 15, 66, 0
16, 43164, Note_on_c, 15, 55, 97
16, 43164, Note_on_c, 15, 67, 107
16, 43226, Note_on_c, 15, 55, 0
16, 43232, Note_on_c, 15, 67, 0
16, 43421, Note_on_c, 15, 55, 98
16, 43421, Note_on_c, 15, 67, 106
16, 43679, Note_on_c, 15, 66, 109
16, 43680, Note_on_c, 15, 54, 105
16, 43693, Note_on_c, 15, 67, 0
16, 43703, Note_on_c, 15, 55, 0
16, 43884, Note_on_c, 15, 54, 0
16, 43935, Note_on_c, 15, 66, 0
16, 43942, Note_on_c, 15, 47, 101
16, 43944, Note_on_c, 15, 59, 89
16, 44125, Note_on_c, 15, 59, 0
16, 44137, Note_on_c, 15, 47, 0
16, 50303, Note_on_c, 15, 57, 33
16, 50314, Note_on_c, 15, 69, 34
16, 51215, Note_on_c, 15, 57, 0
16, 51259, Note_on_c, 15, 69, 0
16, 51279, Note_on_c, 15, 57, 28
16, 51298, Note_on_c, 15, 45, 30
16, 51552, Note_on_c, 15, 45, 0
16, 51622, Note_on_c, 15, 45, 21
16, 51916, Note_on_c, 15, 44, 23
16, 51917, Note_on_c, 15, 56, 36
16, 51940, Note_on_c, 15, 45, 0
16, 51966, Note_on_c, 15, 57, 0
16, 52197, Note_on_c, 15, 44, 0
16, 52200, Note_on_c, 15, 56, 0
16, 71438, Control_c, 15, 11, 30
16, 71438, Note_on_c, 15, 63, 51
16, 71444, Control_c, 15, 11, 34
16, 71450, Control_c, 15, 11, 36
16, 71456, Control_c, 15, 11, 39
16, 71462, Control_c, 15, 11, 41
16, 71468, Control_c, 15, 11, 43
16, 71474, Control_c, 15, 11, 45
16, 71480, Control_c, 15, 11, 46
16, 71486, Control_c, 15, 11, 48
16, 71492, Control_c, 15, 11, 49
16, 71498, Control_c, 15, 11, 50
16, 71504, Control_c, 15, 11, 51
16, 71510, Control_c, 15, 11, 52
16, 71516, Control_c, 15, 11, 53
16, 71522, Control_c, 15, 11, 54
16, 71534, Control_c, 15, 11, 55
16, 71546, Control_c, 15, 11, 56
16, 71558, Control_c, 15, 11, 57
16, 71570, Control_c, 15, 11, 58
16, 71594, Control_c, 15, 11, 59
16, 71636, Control_c, 15, 11, 60
16, 72008, Note_on_c, 15, 64, 49
16, 72056, Note_on_c, 15, 63, 0
16, 72318, Note_on_c, 15, 66, 53
16, 72375, Note_on_c, 15, 64, 0
16, 72506, Note_on_c, 15, 66, 0
16, 72595, Note_on_c, 15, 66, 64
16, 72769, Note_on_c, 15, 66, 0
16, 72899, Note_on_c, 15, 66, 74
16, 73123, Note_on_c, 15, 66, 0
16, 73236, Control_c, 15, 11, 30
16, 73236, Note_on_c, 15, 67, 65
16, 73242, Control_c, 15, 11, 35
16, 73248, Control_c, 15, 11, 39
16, 73254, Control_c, 15, 11, 42
16, 73260, Control_c, 15, 11, 45
16, 73266, Control_c, 15, 11, 47
16, 73272, Control_c, 15, 11, 49
16, 73278, Control_c, 15, 11, 51
16, 73284, Control_c, 15, 11, 53
16, 73290, Control_c, 15, 11, 54
16, 73296, Control_c, 15, 11, 55
16, 73302, Control_c, 15, 11, 56
16, 73314, Control_c, 15, 11, 57
16, 73320, Control_c, 15, 11, 58
16, 73338, Control_c, 15, 11, 59
16, 73362, Control_c, 15, 11, 60
16, 73550, Note_on_c, 15, 66, 80
16, 73586, Note_on_c, 15, 67, 0
16, 73697, Note_on_c, 15, 64, 67
16, 73736, Note_on_c, 15, 66, 0
16, 73847, Note_on_c, 15, 63, 69
16, 73917, Note_on_c, 15, 64, 0
16, 74006, Note_on_c, 15, 61, 60
16, 74105, Note_on_c, 15, 63, 0
16, 74185, Note_on_c, 15, 64, 55
16, 74321, Note_on_c, 15, 61, 0
16, 74498, Note_on_c, 15, 63, 61
16, 74663, Note_on_c, 15, 64, 0
16, 74836, Note_on_c, 15, 63, 0
16, 75355, Note_on_c, 15, 63, 53
16, 75654, Note_on_c, 15, 64, 65
16, 75694, Note_on_c, 15, 63, 0
16, 75978, Note_on_c, 15, 66, 59
16, 75996, Note_on_c, 15, 64, 0
16, 76209, Note_on_c, 15, 66, 0
16, 76285, Note_on_c, 15, 66, 70
16, 76529, Note_on_c, 15, 66, 0
16, 76602, Note_on_c, 15, 66, 87
16, 76907, Note_on_c, 15, 67, 82
16, 76946, Note_on_c, 15, 66, 0
16, 77228, Note_on_c, 15, 66, 78
16, 77268, Note_on_c, 15, 67, 0
16, 77376, Note_on_c, 15, 64, 58
16, 77435, Note_on_c, 15, 66, 0
16, 77547, Note_on_c, 15, 63, 65
16, 77629, Note_on_c, 15, 64, 0
16, 77703, Note_on_c, 15, 61, 45
16, 77767, Note_on_c, 15, 63, 0
16, 77886, Note_on_c, 15, 64, 49
16, 78023, Note_on_c, 15, 61, 0
16, 78186, Note_on_c, 15, 63, 32
16, 78251, Note_on_c, 15, 64, 0
16, 78509, Note_on_c, 15, 63, 0
16, 80490, Note_on_c, 15, 47, 38
16, 80788, Note_on_c, 15, 52, 55
16, 80843, Note_on_c, 15, 47, 0
16, 81404, Note_on_c, 15, 56, 52
16, 81447, Note_on_c, 15, 52, 0
16, 81691, Note_on_c, 15, 47, 47
16, 81709, Note_on_c, 15, 56, 0
16, 82262, Control_c, 15, 11, 60
16, 82262, Note_on_c, 15, 59, 53
16, 82268, Note_on_c, 15, 47, 0
16, 82376, Control_c, 15, 11, 61
16, 82484, Control_c, 15, 11, 62
16, 82598, Control_c, 15, 11, 63
16, 82706, Control_c, 15, 11, 64
16, 82820, Control_c, 15, 11, 65
16, 82867, Note_on_c, 15, 57, 51
16, 82892, Note_on_c, 15, 59, 0
16, 82928, Control_c, 15, 11, 66
16, 83042, Control_c, 15, 11, 67
16, 83150, Control_c, 15, 11, 68
16, 83206, Note_on_c, 15, 59, 64
16, 83214, Note_on_c, 15, 56, 66
16, 83237, Note_on_c, 15, 57, 0
16, 83264, Control_c, 15, 11, 69
16, 83372, Control_c, 15, 11, 70
16, 83486, Control_c, 15, 11, 71
16, 83525, Note_on_c, 15, 61, 83
16, 83535, Note_on_c, 15, 54, 67
16, 83546, Note_on_c, 15, 56, 0
16, 83569, Note_on_c, 15, 59, 0
16, 83594, Control_c, 15, 11, 72
16, 83708, Control_c, 15, 11, 73
16, 83816, Control_c, 15, 11, 74
16, 83839, Note_on_c, 15, 47, 88
16, 83841, Note_on_c, 15, 63, 76
16, 83854, Note_on_c, 15, 54, 0
16, 83870, Note_on_c, 15, 61, 0
16, 83930, Control_c, 15, 11, 75
16, 84038, Control_c, 15, 11, 76
16, 84143, Note_on_c, 15, 64, 75
16, 84147, Note_on_c, 15, 63, 0
16, 84150, Note_on_c, 15, 52, 81
16, 84152, Control_c, 15, 11, 77
16, 84164, Note_on_c, 15, 47, 0
16, 84260, Control_c, 15, 11, 78
16, 84374, Control_c, 15, 11, 79
16, 84379, Note_on_c, 15, 52, 0
16, 84428, Note_on_c, 15, 64, 0
16, 84480, Control_c, 15, 11, 80
16, 84486, Note_on_c, 15, 46, 90
16, 84493, Note_on_c, 15, 58, 78
16, 85367, Note_on_c, 15, 58, 0
16, 85384, Note_on_c, 15, 57, 60
16, 85386, Note_on_c, 15, 45, 79
16, 85434, Note_on_c, 15, 46, 0
16, 86217, Note_on_c, 15, 56, 57
16, 86229, Note_on_c, 15, 44, 81
16, 86259, Note_on_c, 15, 57, 0
16, 86267, Note_on_c, 15, 45, 0
16, 86392, Note_on_c, 15, 56, 0
16, 86406, Note_on_c, 15, 44, 0
16, 86520, Note_on_c, 15, 49, 77
16, 86524, Note_on_c, 15, 61, 66
16, 86782, Note_on_c, 15, 63, 73
16, 86785, Note_on_c, 15, 51, 84
16, 86800, Note_on_c, 15, 49, 0
16, 86807, Note_on_c, 15, 61, 0
16, 87079, Note_on_c, 15, 64, 74
16, 87084, Note_on_c, 15, 63, 0
16, 87086, Note_on_c, 15, 52, 68
16, 87099, Note_on_c, 15, 51, 0
16, 87282, Note_on_c, 15, 52, 0
16, 87308, Note_on_c, 15, 64, 0
16, 87373, Note_on_c, 15, 64, 66
16, 87375, Note_on_c, 15, 52, 78
16, 87657, Note_on_c, 15, 54, 82
16, 87661, Note_on_c, 15, 66, 83
16, 87685, Note_on_c, 15, 52, 0
16, 87686, Note_on_c, 15, 64, 0
16, 87968, Note_on_c, 15, 67, 68
16, 87973, Note_on_c, 15, 55, 80
16, 87998, Note_on_c, 15, 66, 0
16, 88006, Note_on_c, 15, 54, 0
16, 88266, Note_on_c, 15, 66, 61
16, 88268, Note_on_c, 15, 54, 65
16, 88297, Note_on_c, 15, 67, 0
16, 88303, Note_on_c, 15, 55, 0
16, 88579, Note_on_c, 15, 54, 0
16, 88592, Note_on_c, 15, 66, 0
16, 88871, Note_on_c, 15, 59, 61
16, 88872, Note_on_c, 15, 47, 68
16, 89417, Note_on_c, 15, 57, 46
16, 89422, Note_on_c, 15, 45, 45
16, 89440, Note_on_c, 15, 59, 0
16, 89451, Note_on_c, 15, 47, 0
16, 89717, Note_on_c, 15, 56, 67
16, 89724, Note_on_c, 15, 44, 53
16, 89760, Note_on_c, 15, 57, 0
16, 89784, Note_on_c, 15, 45, 0
16, 89877, Note_on_c, 15, 56, 0
16, 89895, Note_on_c, 15, 44, 0
16, 89996, Note_on_c, 15, 56, 63
16, 89999, Note_on_c, 15, 44, 82
16, 90220, Note_on_c, 15, 44, 0
16, 90222, Note_on_c, 15, 56, 0
16, 90264, Note_on_c, 15, 57, 63
16, 90271, Note_on_c, 15, 45, 80
16, 90438, Note_on_c, 15, 57, 0
16, 90467, Note_on_c, 15, 45, 0
16, 90529, Note_on_c, 15, 58, 78
16, 90529, Note_on_c, 15, 46, 92
16, 90809, Note_on_c, 15, 47, 84
16, 90812, Note_on_c, 15, 59, 89
16, 90829, Note_on_c, 15, 46, 0
16, 90833, Note_on_c, 15, 58, 0
16, 90920, Note_on_c, 15, 47, 0
16, 90923, Note_on_c, 15, 59, 0
16, 91079, Note_on_c, 15, 59, 89
16, 91081, Note_on_c, 15, 47, 106
16, 91191, Note_on_c, 15, 59, 0
16, 91198, Note_on_c, 15, 47, 0
16, 91350, Note_on_c, 15, 48, 116
16, 91362, Note_on_c, 15, 60, 59
16, 91441, Note_on_c, 15, 60, 0
16, 91700, Note_on_c, 15, 48, 0
16, 91740, Note_on_c, 15, 47, 106
16, 91873, Note_on_c, 15, 48, 104
16, 91894, Note_on_c, 15, 47, 0
16, 91997, Note_on_c, 15, 52, 116
16, 92030, Note_on_c, 15, 48, 0
16, 92157, Note_on_c, 15, 55, 111
16, 92169, Note_on_c, 15, 62, 55
16, 92188, Note_on_c, 15, 52, 0
16, 92232, Note_on_c, 15, 55, 0
16, 92410, Note_on_c, 15, 55, 104
16, 92521, Note_on_c, 15, 55, 0
16, 92675, Note_on_c, 15, 55, 103
16, 92777, Note_on_c, 15, 55, 0
16, 92935, Note_on_c, 15, 62, 0
16, 92938, Note_on_c, 15, 48, 117
16, 92965, Note_on_c, 15, 60, 28
16, 93342, Note_on_c, 15, 48, 0
16, 93367, Note_on_c, 15, 47, 91
16, 93509, Note_on_c, 15, 48, 102
16, 93534, Note_on_c, 15, 47, 0
16, 93601, Note_on_c, 15, 60, 0
16, 93623, Note_on_c, 15, 52, 117
16, 93663, Note_on_c, 15, 48, 0
16, 93767, Note_on_c, 15, 55, 109
16, 93786, Note_on_c, 15, 62, 38
16, 93796, Note_on_c, 15, 52, 0
16, 93873, Note_on_c, 15, 55, 0
16, 94027, Note_on_c, 15, 55, 104
16, 94109, Note_on_c, 15, 55, 0
16, 94291, Note_on_c, 15, 55, 109
16, 94388, Note_on_c, 15, 55, 0
16, 94564, Note_on_c, 15, 48, 113
16, 94568, Note_on_c, 15, 62, 0
16, 94699, Note_on_c, 15, 60, 45
16, 94756, Note_on_c, 15, 48, 0
16, 94821, Note_on_c, 15, 60, 0
16, 95617, Control_c, 15, 11, 50
16, 95617, Note_on_c, 15, 67, 32
16, 95619, Note_on_c, 15, 64, 39
16, 95623, Control_c, 15, 11, 57
16, 95629, Control_c, 15, 11, 62
16, 95635, Control_c, 15, 11, 66
16, 95641, Control_c, 15, 11, 69
16, 95647, Control_c, 15, 11, 71
16, 95653, Control_c, 15, 11, 73
16, 95659, Control_c, 15, 11, 75
16, 95665, Control_c, 15, 11, 76
16, 95671, Control_c, 15, 11, 77
16, 95677, Control_c, 15, 11, 78
16, 95689, Control_c, 15, 11, 79
16, 95707, Control_c, 15, 11, 80
16, 95760, Control_c, 15, 11, 80
16, 95796, Control_c, 15, 11, 79
16, 95832, Control_c, 15, 11, 78
16, 95868, Control_c, 15, 11, 77
16, 95904, Control_c, 15, 11, 76
16, 95940, Control_c, 15, 11, 75
16, 95976, Control_c, 15, 11, 74
16, 96012, Control_c, 15, 11, 73
16, 96048, Control_c, 15, 11, 72
16, 96084, Control_c, 15, 11, 71
16, 96120, Control_c, 15, 11, 70
16, 96156, Control_c, 15, 11, 69
16, 96192, Control_c, 15, 11, 68
16, 96228, Control_c, 15, 11, 67
16, 96264, Control_c, 15, 11, 66
16, 96300, Control_c, 15, 11, 65
16, 96336, Control_c, 15, 11, 64
16, 96372, Control_c, 15, 11, 63
16, 96408, Control_c, 15, 11, 62
16, 96444, Control_c, 15, 11, 61
16, 96480, Control_c, 15, 11, 60
16, 96677, Note_on_c, 15, 64, 0
16, 96694, Note_on_c, 15, 60, 32
16, 96697, Note_on_c, 15, 64, 27
16, 96850, Note_on_c, 15, 67, 0
16, 96928, Note_on_c, 15, 60, 0
16, 96955, Note_on_c, 15, 64, 0
16, 97548, Control_c, 15, 11, 50
16, 97548, Note_on_c, 15, 64, 31
16, 97554, Control_c, 15, 11, 57
16, 97555, Note_on_c, 15, 67, 48
16, 97560, Control_c, 15, 11, 63
16, 97566, Control_c, 15, 11, 67
16, 97572, Control_c, 15, 11, 70
16, 97578, Control_c, 15, 11, 72
16, 97584, Control_c, 15, 11, 74
16, 97590, Control_c, 15, 11, 76
16, 97596, Control_c, 15, 11, 77
16, 97602, Control_c, 15, 11, 78
16, 97614, Control_c, 15, 11, 79
16, 97632, Control_c, 15, 11, 80
16, 97920, Control_c, 15, 11, 80
16, 97956, Control_c, 15, 11, 79
16, 97992, Control_c, 15, 11, 78
16, 98028, Control_c, 15, 11, 77
16, 98064, Control_c, 15, 11, 76
16, 98100, Control_c, 15, 11, 75
16, 98136, Control_c, 15, 11, 74
16, 98172, Control_c, 15, 11, 73
16, 98208, Control_c, 15, 11, 72
16, 98244, Control_c, 15, 11, 71
16, 98280, Control_c, 15, 11, 70
16, 98316, Control_c, 15, 11, 69
16, 98352, Control_c, 15, 11, 68
16, 98388, Control_c, 15, 11, 67
16, 98424, Control_c, 15, 11, 66
16, 98460, Control_c, 15, 11, 65
16, 98496, Control_c, 15, 11, 64
16, 98532, Control_c, 15, 11, 63
16, 98568, Control_c, 15, 11, 62
16, 98604, Control_c, 15, 11, 61
16, 98640, Control_c, 15, 11, 60
16, 98917, Note_on_c, 15, 66, 48
16, 98935, Note_on_c, 15, 63, 48
16, 98952, Note_on_c, 15, 64, 0
16, 98989, Note_on_c, 15, 67, 0
16, 99224, Note_on_c, 15, 65, 66
16, 99226, Note_on_c, 15, 62, 62
16, 99262, Note_on_c, 15, 63, 0
16, 99263, Note_on_c, 15, 66, 0
16, 99509, Note_on_c, 15, 60, 64
16, 99512, Note_on_c, 15, 64, 59
16, 99514, Note_on_c, 15, 65, 0
16, 99519, Note_on_c, 15, 62, 0
16, 99741, Note_on_c, 15, 60, 0
16, 99809, Note_on_c, 15, 60, 71
16, 99811, Note_on_c, 15, 57, 52
16, 99819, Note_on_c, 15, 64, 0
16, 100081, Note_on_c, 15, 60, 0
16, 100101, Note_on_c, 15, 59, 63
16, 100116, Note_on_c, 15, 57, 0
16, 100974, Note_on_c, 15, 63, 56
16, 100985, Note_on_c, 15, 47, 21
16, 101084, Note_on_c, 15, 59, 0
16, 101862, Note_on_c, 15, 63, 0
16, 101890, Note_on_c, 15, 47, 0
16, 101973, Control_c, 15, 11, 80
16, 101973, Note_on_c, 15, 48, 122
16, 101997, Note_on_c, 15, 64, 43
16, 102126, Note_on_c, 15, 64, 0
16, 102277, Note_on_c, 15, 64, 113
16, 102405, Note_on_c, 15, 48, 0
16, 102448, Note_on_c, 15, 47, 102
16, 102567, Note_on_c, 15, 48, 117
16, 102609, Note_on_c, 15, 47, 0
16, 102689, Note_on_c, 15, 52, 121
16, 102731, Note_on_c, 15, 48, 0
16, 102843, Note_on_c, 15, 55, 120
16, 102859, Note_on_c, 15, 52, 0
16, 102865, Note_on_c, 15, 62, 97
16, 102909, Note_on_c, 15, 64, 0
16, 102911, Note_on_c, 15, 55, 0
16, 103109, Note_on_c, 15, 55, 112
16, 103190, Note_on_c, 15, 55, 0
16, 103376, Note_on_c, 15, 55, 117
16, 103490, Note_on_c, 15, 55, 0
16, 103659, Note_on_c, 15, 48, 125
16, 103675, Note_on_c, 15, 62, 0
16, 103677, Note_on_c, 15, 60, 87
16, 103681, Note_on_c, 15, 60, 0
16, 104076, Note_on_c, 15, 48, 0
16, 104098, Note_on_c, 15, 47, 107
16, 104229, Note_on_c, 15, 48, 111
16, 104261, Note_on_c, 15, 47, 0
16, 104353, Note_on_c, 15, 52, 113
16, 104387, Note_on_c, 15, 48, 0
16, 104509, Note_on_c, 15, 55, 118
16, 104516, Note_on_c, 15, 52, 0
16, 104521, Note_on_c, 15, 62, 75
16, 104579, Note_on_c, 15, 55, 0
16, 104787, Note_on_c, 15, 55, 116
16, 104861, Note_on_c, 15, 55, 0
16, 105062, Note_on_c, 15, 55, 118
16, 105163, Note_on_c, 15, 55, 0
16, 105165, Note_on_c, 15, 62, 0
16, 105402, Note_on_c, 15, 48, 120
16, 105415, Note_on_c, 15, 60, 83
16, 105569, Note_on_c, 15, 48, 0
16, 105582, Note_on_c, 15, 60, 0
16, 106584, Control_c, 15, 11, 50
16, 106584, Note_on_c, 15, 67, 41
16, 106590, Control_c, 15, 11, 55
16, 106596, Control_c, 15, 11, 59
16, 106602, Control_c, 15, 11, 62
16, 106606, Note_on_c, 15, 64, 34
16, 106608, Control_c, 15, 11, 65
16, 106614, Control_c, 15, 11, 67
16, 106620, Control_c, 15, 11, 69
16, 106626, Control_c, 15, 11, 71
16, 106632, Control_c, 15, 11, 72
16, 106638, Control_c, 15, 11, 73
16, 106644, Control_c, 15, 11, 74
16, 106650, Control_c, 15, 11, 75
16, 106656, Control_c, 15, 11, 76
16, 106662, Control_c, 15, 11, 77
16, 106674, Control_c, 15, 11, 78
16, 106692, Control_c, 15, 11, 79
16, 106716, Control_c, 15, 11, 80
16, 106770, Control_c, 15, 11, 79
16, 106818, Control_c, 15, 11, 78
16, 106866, Control_c, 15, 11, 77
16, 106914, Control_c, 15, 11, 76
16, 106962, Control_c, 15, 11, 75
16, 107010, Control_c, 15, 11, 74
16, 107064, Control_c, 15, 11, 73
16, 107112, Control_c, 15, 11, 72
16, 107160, Control_c, 15, 11, 71
16, 107208, Control_c, 15, 11, 70
16, 107256, Control_c, 15, 11, 69
16, 107304, Control_c, 15, 11, 68
16, 107352, Control_c, 15, 11, 67
16, 107406, Control_c, 15, 11, 66
16, 107454, Control_c, 15, 11, 65
16, 107502, Control_c, 15, 11, 64
16, 107550, Control_c, 15, 11, 63
16, 107598, Control_c, 15, 11, 62
16, 107641, Note_on_c, 15, 64, 0
16, 107646, Control_c, 15, 11, 61
16, 107692, Note_on_c, 15, 67, 0
16, 107694, Control_c, 15, 11, 60
16, 107695, Note_on_c, 15, 64, 33
16, 107715, Note_on_c, 15, 60, 38
16, 107928, Note_on_c, 15, 60, 0
16, 107964, Note_on_c, 15, 64, 0
16, 108604, Control_c, 15, 11, 50
16, 108604, Note_on_c, 15, 64, 38
16, 108604, Note_on_c, 15, 67, 37
16, 108610, Control_c, 15, 11, 54
16, 108616, Control_c, 15, 11, 56
16, 108622, Control_c, 15, 11, 58
16, 108628, Control_c, 15, 11, 60
16, 108634, Control_c, 15, 11, 62
16, 108640, Control_c, 15, 11, 64
16, 108646, Control_c, 15, 11, 65
16, 108652, Control_c, 15, 11, 67
16, 108658, Control_c, 15, 11, 68
16, 108664, Control_c, 15, 11, 69
16, 108670, Control_c, 15, 11, 70
16, 108676, Control_c, 15, 11, 71
16, 108682, Control_c, 15, 11, 72
16, 108688, Control_c, 15, 11, 73
16, 108700, Control_c, 15, 11, 74
16, 108706, Control_c, 15, 11, 75
16, 108718, Control_c, 15, 11, 76
16, 108736, Control_c, 15, 11, 77
16, 108754, Control_c, 15, 11, 78
16, 108778, Control_c, 15, 11, 79
16, 108820, Control_c, 15, 11, 80
16, 109982, Note_on_c, 15, 66, 32
16, 109992, Note_on_c, 15, 63, 40
16, 109999, Note_on_c, 15, 67, 0
16, 110057, Note_on_c, 15, 64, 0
16, 110278, Control_c, 15, 11, 80
16, 110278, Note_on_c, 15, 65, 58
16, 110289, Note_on_c, 15, 62, 33
16, 110333, Note_on_c, 15, 63, 0
16, 110339, Note_on_c, 15, 66, 0
16, 110374, Control_c, 15, 11, 79
16, 110464, Control_c, 15, 11, 78
16, 110554, Control_c, 15, 11, 77
16, 110567, Note_on_c, 15, 64, 51
16, 110578, Note_on_c, 15, 60, 37
16, 110587, Note_on_c, 15, 65, 0
16, 110590, Note_on_c, 15, 62, 0
16, 110644, Control_c, 15, 11, 76
16, 110734, Control_c, 15, 11, 75
16, 110774, Note_on_c, 15, 60, 0
16, 110824, Control_c, 15, 11, 74
16, 110878, Note_on_c, 15, 60, 22
16, 110878, Note_on_c, 15, 57, 28
16, 110881, Note_on_c, 15, 60, 0
16, 110914, Control_c, 15, 11, 73
16, 110930, Note_on_c, 15, 64, 0
16, 111004, Control_c, 15, 11, 72
16, 111094, Control_c, 15, 11, 71
16, 111184, Control_c, 15, 11, 70
16, 111227, Note_on_c, 15, 59, 41
16, 111274, Control_c, 15, 11, 69
16, 111276, Note_on_c, 15, 57, 0
16, 111364, Control_c, 15, 11, 68
16, 111454, Control_c, 15, 11, 67
16, 111544, Control_c, 15, 11, 66
16, 111634, Control_c, 15, 11, 65
16, 111724, Control_c, 15, 11, 64
16, 111814, Control_c, 15, 11, 63
16, 111904, Control_c, 15, 11, 62
16, 111994, Control_c, 15, 11, 61
16, 112005, Note_on_c, 15, 59, 0
16, 112080, Control_c, 15, 11, 60
16, 117918, Control_c, 15, 11, 50
16, 117918, Note_on_c, 15, 64, 53
16, 117924, Control_c, 15, 11, 54
16, 117930, Control_c, 15, 11, 56
16, 117936, Control_c, 15, 11, 58
16, 117942, Control_c, 15, 11, 61
16, 117948, Control_c, 15, 11, 62
16, 117954, Control_c, 15, 11, 64
16, 117960, Control_c, 15, 11, 65
16, 117966, Control_c, 15, 11, 67
16, 117972, Control_c, 15, 11, 68
16, 117978, Control_c, 15, 11, 69
16, 117984, Control_c, 15, 11, 70
16, 117990, Control_c, 15, 11, 71
16, 117996, Control_c, 15, 11, 72
16, 118002, Control_c, 15, 11, 73
16, 118008, Control_c, 15, 11, 74
16, 118020, Control_c, 15, 11, 75
16, 118032, Control_c, 15, 11, 76
16, 118044, Control_c, 15, 11, 77
16, 118062, Control_c, 15, 11, 78
16, 118080, Control_c, 15, 11, 78
16, 118104, Control_c, 15, 11, 79
16, 118128, Control_c, 15, 11, 80
16, 118152, Control_c, 15, 11, 81
16, 118176, Control_c, 15, 11, 82
16, 118200, Control_c, 15, 11, 83
16, 118218, Control_c, 15, 11, 84
16, 118242, Control_c, 15, 11, 85
16, 118257, Note_on_c, 15, 65, 59
16, 118266, Control_c, 15, 11, 86
16, 118290, Control_c, 15, 11, 87
16, 118314, Control_c, 15, 11, 88
16, 118323, Note_on_c, 15, 64, 0
16, 118338, Control_c, 15, 11, 89
16, 118356, Control_c, 15, 11, 90
16, 118380, Control_c, 15, 11, 91
16, 118404, Control_c, 15, 11, 92
16, 118428, Control_c, 15, 11, 93
16, 118452, Control_c, 15, 11, 94
16, 118476, Control_c, 15, 11, 95
16, 118494, Control_c, 15, 11, 96
16, 118518, Control_c, 15, 11, 97
16, 118542, Control_c, 15, 11, 98
16, 118566, Control_c, 15, 11, 99
16, 118587, Control_c, 15, 11, 100
16, 118587, Note_on_c, 15, 64, 43
16, 118645, Note_on_c, 15, 65, 0
16, 118740, Note_on_c, 15, 62, 46
16, 118799, Note_on_c, 15, 64, 0
16, 118903, Note_on_c, 15, 60, 52
16, 118932, Note_on_c, 15, 62, 0
16, 119064, Control_c, 15, 11, 100
16, 119064, Note_on_c, 15, 59, 59
16, 119102, Note_on_c, 15, 60, 0
16, 119112, Control_c, 15, 11, 99
16, 119160, Control_c, 15, 11, 98
16, 119208, Control_c, 15, 11, 97
16, 119236, Note_on_c, 15, 60, 59
16, 119255, Note_on_c, 15, 59, 0
16, 119256, Control_c, 15, 11, 96
16, 119298, Control_c, 15, 11, 95
16, 119346, Control_c, 15, 11, 94
16, 119394, Control_c, 15, 11, 93
16, 119416, Note_on_c, 15, 62, 53
16, 119442, Control_c, 15, 11, 92
16, 119464, Note_on_c, 15, 60, 0
16, 119490, Control_c, 15, 11, 91
16, 119532, Control_c, 15, 11, 90
16, 119580, Control_c, 15, 11, 89
16, 119605, Note_on_c, 15, 64, 42
16, 119628, Control_c, 15, 11, 88
16, 119651, Note_on_c, 15, 62, 0
16, 119676, Control_c, 15, 11, 87
16, 119724, Control_c, 15, 11, 86
16, 119766, Control_c, 15, 11, 85
16, 119814, Control_c, 15, 11, 84
16, 119862, Control_c, 15, 11, 83
16, 119910, Control_c, 15, 11, 82
16, 119958, Control_c, 15, 11, 81
16, 119969, Note_on_c, 15, 64, 0
16, 120000, Control_c, 15, 11, 80
16, 197465, Note_on_c, 15, 48, 96
16, 197467, Note_on_c, 15, 60, 87
16, 197931, Note_on_c, 15, 60, 0
16, 197937, Note_on_c, 15, 48, 0
16, 199011, Note_on_c, 15, 48, 96
16, 199013, Note_on_c, 15, 60, 94
16, 199271, Note_on_c, 15, 59, 92
16, 199277, Note_on_c, 15, 47, 93
16, 199298, Note_on_c, 15, 60, 0
16, 199306, Note_on_c, 15, 48, 0
16, 199436, Note_on_c, 15, 59, 0
16, 199454, Note_on_c, 15, 47, 0
16, 200476, Note_on_c, 15, 59, 105
16, 200482, Note_on_c, 15, 47, 102
16, 200745, Note_on_c, 15, 46, 100
16, 200746, Note_on_c, 15, 58, 100
16, 200759, Note_on_c, 15, 47, 0
16, 200767, Note_on_c, 15, 59, 0
16, 200880, Note_on_c, 15, 46, 0
16, 200880, Note_on_c, 15, 58, 0
16, 258588, Control_c, 15, 11, 50
16, 258588, Note_on_c, 15, 52, 48
16, 258593, Control_c, 15, 11, 52
16, 258598, Control_c, 15, 11, 54
16, 258603, Control_c, 15, 11, 55
16, 258608, Control_c, 15, 11, 56
16, 258613, Control_c, 15, 11, 57
16, 258618, Control_c, 15, 11, 58
16, 258623, Control_c, 15, 11, 59
16, 258628, Control_c, 15, 11, 60
16, 258633, Control_c, 15, 11, 61
16, 258638, Control_c, 15, 11, 62
16, 258643, Control_c, 15, 11, 63
16, 258648, Control_c, 15, 11, 64
16, 258658, Control_c, 15, 11, 65
16, 258668, Control_c, 15, 11, 66
16, 258673, Control_c, 15, 11, 67
16, 258683, Control_c, 15, 11, 68
16, 258693, Control_c, 15, 11, 69
16, 258698, Control_c, 15, 11, 70
16, 258708, Control_c, 15, 11, 71
16, 258723, Control_c, 15, 11, 72
16, 258733, Control_c, 15, 11, 73
16, 258748, Control_c, 15, 11, 74
16, 258763, Control_c, 15, 11, 75
16, 258788, Control_c, 15, 11, 76
16, 258808, Control_c, 15, 11, 77
16, 258843, Control_c, 15, 11, 78
16, 258883, Control_c, 15, 11, 79
16, 258958, Control_c, 15, 11, 80
16, 259254, Note_on_c, 15, 51, 77
16, 259459, Note_on_c, 15, 52, 0
16, 259717, Note_on_c, 15, 49, 45
16, 259812, Note_on_c, 15, 51, 0
16, 260962, Note_on_c, 15, 51, 80
16, 260971, Note_on_c, 15, 49, 0
16, 261490, Note_on_c, 15, 49, 78
16, 261556, Note_on_c, 15, 51, 0
16, 261883, Note_on_c, 15, 48, 67
16, 261924, Note_on_c, 15, 49, 0
16, 263028, Note_on_c, 15, 49, 61
16, 263059, Note_on_c, 15, 48, 0
16, 263547, Note_on_c, 15, 47, 81
16, 263589, Note_on_c, 15, 49, 0
16, 263807, Note_on_c, 15, 46, 81
16, 263897, Note_on_c, 15, 47, 0
16, 264777, Note_on_c, 15, 49, 73
16, 264816, Note_on_c, 15, 46, 0
16, 264984, Note_on_c, 15, 49, 0
16, 281069, Control_c, 15, 11, 60
16, 281069, Note_on_c, 15, 62, 88
16, 281159, Control_c, 15, 11, 61
16, 281244, Control_c, 15, 11, 62
16, 281305, Note_on_c, 15, 63, 95
16, 281329, Control_c, 15, 11, 63
16, 281338, Note_on_c, 15, 62, 0
16, 281414, Control_c, 15, 11, 64
16, 281499, Control_c, 15, 11, 65
16, 281574, Note_on_c, 15, 68, 100
16, 281584, Control_c, 15, 11, 66
16, 281610, Note_on_c, 15, 63, 0
16, 281674, Control_c, 15, 11, 67
16, 281759, Control_c, 15, 11, 68
16, 281821, Note_on_c, 15, 67, 103
16, 281844, Control_c, 15, 11, 69
16, 281847, Note_on_c, 15, 68, 0
16, 281929, Control_c, 15, 11, 70
16, 282014, Control_c, 15, 11, 71
16, 282097, Note_on_c, 15, 68, 94
16, 282099, Control_c, 15, 11, 72
16, 282135, Note_on_c, 15, 67, 0
16, 282189, Control_c, 15, 11, 73
16, 282274, Control_c, 15, 11, 74
16, 282328, Note_on_c, 15, 64, 93
16, 282350, Note_on_c, 15, 68, 0
16, 282359, Control_c, 15, 11, 75
16, 282444, Control_c, 15, 11, 76
16, 282529, Control_c, 15, 11, 77
16, 282545, Note_on_c, 15, 66, 88
16, 282592, Note_on_c, 15, 64, 0
16, 282614, Control_c, 15, 11, 78
16, 282704, Control_c, 15, 11, 79
16, 282786, Control_c, 15, 11, 80
16, 282786, Note_on_c, 15, 59, 76
16, 282810, Note_on_c, 15, 66, 0
16, 284269, Note_on_c, 15, 59, 0
16, 284281, Note_on_c, 15, 52, 99
16, 284462, Note_on_c, 15, 52, 0
16, 293015, Control_c, 15, 11, 60
16, 293015, Note_on_c, 15, 62, 77
16, 293105, Control_c, 15, 11, 61
16, 293190, Control_c, 15, 11, 62
16, 293275, Control_c, 15, 11, 63
16, 293279, Note_on_c, 15, 63, 83
16, 293317, Note_on_c, 15, 62, 0
16, 293365, Control_c, 15, 11, 64
16, 293450, Control_c, 15, 11, 65
16, 293535, Control_c, 15, 11, 66
16, 293559, Note_on_c, 15, 68, 78
16, 293625, Control_c, 15, 11, 67
16, 293640, Note_on_c, 15, 63, 0
16, 293710, Control_c, 15, 11, 68
16, 293795, Control_c, 15, 11, 69
16, 293822, Note_on_c, 15, 67, 92
16, 293864, Note_on_c, 15, 68, 0
16, 293880, Control_c, 15, 11, 70
16, 293970, Control_c, 15, 11, 71
16, 294055, Control_c, 15, 11, 72
16, 294059, Note_on_c, 15, 68, 97
16, 294103, Note_on_c, 15, 67, 0
16, 294140, Control_c, 15, 11, 73
16, 294230, Control_c, 15, 11, 74
16, 294278, Note_on_c, 15, 64, 89
16, 294315, Control_c, 15, 11, 75
16, 294319, Note_on_c, 15, 68, 0
16, 294400, Control_c, 15, 11, 76
16, 294490, Control_c, 15, 11, 77
16, 294508, Note_on_c, 15, 66, 92
16, 294518, Note_on_c, 15, 64, 0
16, 294575, Control_c, 15, 11, 78
16, 294660, Control_c, 15, 11, 79
16, 294745, Control_c, 15, 11, 80
16, 294746, Note_on_c, 15, 59, 74
16, 294769, Note_on_c, 15, 66, 0
16, 295853, Note_on_c, 15, 59, 0
16, 308831, Control_c, 15, 11, 60
16, 308831, Note_on_c, 15, 66, 121
16, 308886, Control_c, 15, 11, 61
16, 308936, Control_c, 15, 11, 62
16, 308986, Control_c, 15, 11, 63
16, 309036, Control_c, 15, 11, 64
16, 309086, Control_c, 15, 11, 65
16, 309136, Control_c, 15, 11, 66
16, 309186, Control_c, 15, 11, 67
16, 309236, Control_c, 15, 11, 68
16, 309286, Control_c, 15, 11, 69
16, 309336, Control_c, 15, 11, 70
16, 309386, Control_c, 15, 11, 71
16, 309436, Control_c, 15, 11, 72
16, 309491, Control_c, 15, 11, 73
16, 309541, Control_c, 15, 11, 74
16, 309591, Control_c, 15, 11, 75
16, 309619, Note_on_c, 15, 47, 103
16, 309622, Note_on_c, 15, 66, 0
16, 309624, Note_on_c, 15, 65, 67
16, 309641, Control_c, 15, 11, 76
16, 309691, Control_c, 15, 11, 77
16, 309741, Control_c, 15, 11, 78
16, 309791, Control_c, 15, 11, 79
16, 309840, Control_c, 15, 11, 80
16, 310601, Note_on_c, 15, 66, 97
16, 310605, Note_on_c, 15, 65, 0
16, 311082, Note_on_c, 15, 68, 93
16, 311104, Note_on_c, 15, 66, 0
16, 311564, Note_on_c, 15, 66, 87
16, 311598, Note_on_c, 15, 68, 0
16, 311809, Note_on_c, 15, 63, 99
16, 311828, Note_on_c, 15, 66, 0
16, 312052, Note_on_c, 15, 63, 0
16, 312055, Note_on_c, 15, 64, 74
16, 312460, Note_on_c, 15, 47, 0
16, 312495, Note_on_c, 15, 64, 0
16, 312508, Note_on_c, 15, 47, 113
16, 312513, Note_on_c, 15, 66, 56
16, 312868, Note_on_c, 15, 47, 0
16, 312886, Note_on_c, 15, 46, 110
16, 312902, Note_on_c, 15, 47, 47
16, 312926, Note_on_c, 15, 47, 0
16, 312990, Note_on_c, 15, 46, 0
16, 313013, Note_on_c, 15, 47, 103
16, 313015, Note_on_c, 15, 66, 0
16, 313035, Note_on_c, 15, 64, 56
16, 313124, Note_on_c, 15, 47, 0
16, 313138, Note_on_c, 15, 52, 114
16, 313236, Note_on_c, 15, 52, 0
16, 313262, Note_on_c, 15, 64, 0
16, 313269, Note_on_c, 15, 67, 84
16, 313270, Note_on_c, 15, 58, 115
16, 313402, Note_on_c, 15, 67, 0
16, 313446, Note_on_c, 15, 58, 0
16, 313518, Note_on_c, 15, 59, 116
16, 313525, Note_on_c, 15, 66, 63
16, 313668, Note_on_c, 15, 66, 0
16, 313673, Note_on_c, 15, 59, 0
16, 313766, Note_on_c, 15, 56, 113
16, 313782, Note_on_c, 15, 65, 52
16, 313948, Note_on_c, 15, 65, 0
16, 313962, Note_on_c, 15, 56, 0
16, 314020, Note_on_c, 15, 57, 109
16, 314029, Note_on_c, 15, 64, 55
16, 314218, Note_on_c, 15, 57, 0
16, 314273, Note_on_c, 15, 59, 114
16, 314435, Note_on_c, 15, 59, 0
16, 314528, Note_on_c, 15, 60, 112
16, 314641, Note_on_c, 15, 60, 0
16, 314769, Note_on_c, 15, 64, 0
16, 314785, Note_on_c, 15, 51, 120
16, 314791, Note_on_c, 15, 66, 80
16, 314894, Note_on_c, 15, 66, 0
16, 314904, Note_on_c, 15, 51, 0
16, 315029, Note_on_c, 15, 52, 111
16, 315033, Note_on_c, 15, 64, 82
16, 315116, Note_on_c, 15, 64, 0
16, 315129, Note_on_c, 15, 52, 0
16, 315269, Note_on_c, 15, 60, 104
16, 315275, Note_on_c, 15, 48, 107
16, 315361, Note_on_c, 15, 60, 0
16, 315372, Note_on_c, 15, 48, 0
16, 315522, Note_on_c, 15, 59, 107
16, 315526, Note_on_c, 15, 47, 112
16, 315657, Note_on_c, 15, 59, 0
16, 315663, Note_on_c, 15, 47, 0
16, 316733, Note_on_c, 15, 52, 116
16, 316738, Note_on_c, 15, 64, 94
16, 316804, Note_on_c, 15, 64, 0
16, 316805, Note_on_c, 15, 52, 0
16, 316988, Note_on_c, 15, 64, 88
16, 316988, Note_on_c, 15, 47, 112
16, 317078, Note_on_c, 15, 47, 0
16, 317079, Note_on_c, 15, 64, 0
16, 318204, Note_on_c, 15, 53, 107
16, 318208, Note_on_c, 15, 65, 84
16, 318270, Note_on_c, 15, 53, 0
16, 318280, Note_on_c, 15, 65, 0
16, 318450, Note_on_c, 15, 65, 103
16, 318452, Note_on_c, 15, 47, 109
16, 318528, Note_on_c, 15, 47, 0
16, 318534, Note_on_c, 15, 65, 0
16, 319634, Note_on_c, 15, 59, 87
16, 319641, Note_on_c, 15, 47, 121
16, 319739, Note_on_c, 15, 59, 0
16, 319756, Note_on_c, 15, 47, 0
16, 320350, Note_on_c, 15, 46, 121
16, 320356, Note_on_c, 15, 58, 90
16, 320451, Note_on_c, 15, 58, 0
16, 320464, Note_on_c, 15, 46, 0
16, 321037, Note_on_c, 15, 57, 100
16, 321037, Note_on_c, 15, 45, 107
16, 321106, Note_on_c, 15, 57, 0
16, 321107, Note_on_c, 15, 45, 0
16, 321326, Note_on_c, 15, 57, 106
16, 321329, Note_on_c, 15, 45, 112
16, 321406, Note_on_c, 15, 57, 0
16, 321426, Note_on_c, 15, 45, 0
16, 321586, Note_on_c, 15, 57, 101
16, 321595, Note_on_c, 15, 45, 112
16, 322252, Note_on_c, 15, 57, 0
16, 322255, Note_on_c, 15, 45, 0
16, 322297, Note_on_c, 15, 57, 42
16, 322299, Note_on_c, 15, 45, 94
16, 322521, Note_on_c, 15, 58, 64
16, 322522, Note_on_c, 15, 46, 109
16, 322535, Note_on_c, 15, 57, 0
16, 322558, Note_on_c, 15, 45, 0
16, 322753, Note_on_c, 15, 47, 102
16, 322763, Note_on_c, 15, 59, 54
16, 322765, Note_on_c, 15, 58, 0
16, 322787, Note_on_c, 15, 46, 0
16, 322940, Note_on_c, 15, 59, 0
16, 322946, Note_on_c, 15, 47, 0
16, 323002, Note_on_c, 15, 47, 100
16, 323012, Note_on_c, 15, 59, 49
16, 323227, Note_on_c, 15, 47, 0
16, 323237, Note_on_c, 15, 59, 0
16, 323249, Note_on_c, 15, 57, 40
16, 323252, Note_on_c, 15, 45, 99
16, 323627, Note_on_c, 15, 57, 0
16, 323710, Note_on_c, 15, 45, 0
16, 323715, Note_on_c, 15, 57, 113
16, 323731, Note_on_c, 15, 69, 39
16, 323960, Note_on_c, 15, 55, 112
16, 323961, Note_on_c, 15, 69, 0
16, 323977, Note_on_c, 15, 57, 0
16, 323979, Note_on_c, 15, 67, 43
16, 324185, Note_on_c, 15, 54, 110
16, 324197, Note_on_c, 15, 66, 63
16, 324207, Note_on_c, 15, 67, 0
16, 324208, Note_on_c, 15, 55, 0
16, 324390, Note_on_c, 15, 66, 0
16, 324408, Note_on_c, 15, 54, 0
16, 324432, Note_on_c, 15, 55, 109
16, 324435, Note_on_c, 15, 67, 65
16, 324657, Note_on_c, 15, 54, 110
16, 324687, Note_on_c, 15, 55, 0
16, 324879, Note_on_c, 15, 54, 0
16, 324895, Note_on_c, 15, 52, 111
16, 325059, Note_on_c, 15, 67, 0
16, 325069, Note_on_c, 15, 52, 0
16, 325114, Note_on_c, 15, 54, 110
16, 325121, Note_on_c, 15, 66, 78
16, 325342, Note_on_c, 15, 52, 103
16, 325361, Note_on_c, 15, 54, 0
16, 325578, Note_on_c, 15, 51, 114
16, 325621, Note_on_c, 15, 52, 0
16, 325681, Note_on_c, 15, 66, 0
16, 325702, Note_on_c, 15, 51, 0
16, 325827, Note_on_c, 15, 52, 117
16, 325834, Note_on_c, 15, 64, 84
16, 325945, Note_on_c, 15, 52, 0
16, 325968, Note_on_c, 15, 64, 0
16, 327636, Note_on_c, 15, 67, 38
16, 327781, Note_on_c, 15, 64, 37
16, 327852, Note_on_c, 15, 67, 0
16, 327983, Note_on_c, 15, 61, 45
16, 328024, Note_on_c, 15, 64, 0
16, 328059, Note_on_c, 15, 59, 54
16, 328075, Note_on_c, 15, 61, 0
16, 328322, Note_on_c, 15, 58, 44
16, 328412, Note_on_c, 15, 59, 0
16, 328574, Note_on_c, 15, 58, 0
16, 329316, Note_on_c, 15, 67, 55
16, 329474, Note_on_c, 15, 64, 51
16, 329502, Note_on_c, 15, 67, 0
16, 329695, Note_on_c, 15, 61, 47
16, 329727, Note_on_c, 15, 64, 0
16, 329776, Note_on_c, 15, 59, 42
16, 329790, Note_on_c, 15, 61, 0
16, 330044, Note_on_c, 15, 58, 38
16, 330119, Note_on_c, 15, 59, 0
16, 330213, Note_on_c, 15, 58, 0
16, 330326, Note_on_c, 15, 46, 109
16, 330328, Note_on_c, 15, 58, 93
16, 330541, Note_on_c, 15, 46, 0
16, 330550, Note_on_c, 15, 58, 0
16, 330574, Note_on_c, 15, 59, 80
16, 330575, Note_on_c, 15, 47, 94
16, 330735, Note_on_c, 15, 47, 0
16, 330765, Note_on_c, 15, 59, 0
16, 330823, Note_on_c, 15, 59, 93
16, 330836, Note_on_c, 15, 57, 84
16, 331072, Note_on_c, 15, 55, 107
16, 331095, Note_on_c, 15, 57, 0
16, 331267, Note_on_c, 15, 59, 0
16, 331301, Note_on_c, 15, 55, 0
16, 331309, Note_on_c, 15, 54, 116
16, 331317, Note_on_c, 15, 63, 79
16, 331523, Note_on_c, 15, 54, 0
16, 331532, Note_on_c, 15, 63, 0
16, 331542, Note_on_c, 15, 52, 106
16, 331547, Note_on_c, 15, 64, 67
16, 331690, Note_on_c, 15, 52, 0
16, 331757, Note_on_c, 15, 64, 0
16, 331780, Note_on_c, 15, 51, 107
16, 331782, Note_on_c, 15, 63, 100
16, 331984, Note_on_c, 15, 63, 0
16, 332013, Note_on_c, 15, 52, 111
16, 332021, Note_on_c, 15, 64, 62
16, 332029, Note_on_c, 15, 51, 0
16, 332121, Note_on_c, 15, 64, 0
16, 332130, Note_on_c, 15, 52, 0
16, 332258, Note_on_c, 15, 47, 111
16, 332264, Note_on_c, 15, 59, 76
16, 332699, Note_on_c, 15, 59, 0
16, 332711, Note_on_c, 15, 47, 0
16, 332719, Note_on_c, 15, 52, 100
16, 332721, Note_on_c, 15, 64, 81
16, 332809, Note_on_c, 15, 64, 0
16, 332811, Note_on_c, 15, 52, 0
16, 332943, Note_on_c, 15, 47, 111
16, 332943, Note_on_c, 15, 59, 84
16, 333370, Note_on_c, 15, 58, 68
16, 333373, Note_on_c, 15, 46, 87
16, 333386, Note_on_c, 15, 59, 0
16, 333407, Note_on_c, 15, 47, 0
16, 333492, Note_on_c, 15, 58, 0
16, 333493, Note_on_c, 15, 46, 0
16, 333601, Note_on_c, 15, 46, 96
16, 333602, Note_on_c, 15, 58, 92
16, 333770, Note_on_c, 15, 58, 0
16, 333795, Note_on_c, 15, 46, 0
16, 333838, Note_on_c, 15, 57, 81
16, 333840, Note_on_c, 15, 45, 94
16, 334015, Note_on_c, 15, 45, 0
16, 334027, Note_on_c, 15, 57, 0
16, 334077, Note_on_c, 15, 45, 106
16, 334081, Note_on_c, 15, 57, 97
16, 334276, Note_on_c, 15, 45, 0
16, 334282, Note_on_c, 15, 57, 0
16, 334300, Note_on_c, 15, 55, 101
16, 334301, Note_on_c, 15, 43, 114
16, 334451, Note_on_c, 15, 43, 0
16, 334481, Note_on_c, 15, 55, 0
16, 334523, Note_on_c, 15, 48, 114
16, 334745, Note_on_c, 15, 48, 0
16, 334759, Note_on_c, 15, 47, 113
16, 334850, Note_on_c, 15, 47, 0
16, 335001, Note_on_c, 15, 59, 92
16, 335004, Note_on_c, 15, 47, 111
16, 335436, Note_on_c, 15, 47, 0
16, 335437, Note_on_c, 15, 59, 0
16, 335458, Note_on_c, 15, 52, 107
16, 335467, Note_on_c, 15, 64, 72
16, 335559, Note_on_c, 15, 52, 0
16, 335568, Note_on_c, 15, 64, 0
16, 335710, Note_on_c, 15, 59, 93
16, 335714, Note_on_c, 15, 47, 108
16, 336124, Note_on_c, 15, 47, 0
16, 336172, Note_on_c, 15, 59, 0
16, 336205, Note_on_c, 15, 40, 108
16, 336209, Note_on_c, 15, 52, 101
16, 336369, Note_on_c, 15, 52, 0
16, 336398, Note_on_c, 15, 40, 0
16, 340960, Note_on_c, 15, 60, 38
16, 341049, Note_on_c, 15, 60, 0
16, 341120, Note_on_c, 15, 60, 41
16, 341264, Note_on_c, 15, 59, 41
16, 341278, Note_on_c, 15, 60, 0
16, 341357, Note_on_c, 15, 59, 0
16, 341404, Note_on_c, 15, 59, 38
16, 341538, Note_on_c, 15, 57, 28
16, 341590, Note_on_c, 15, 59, 0
16, 341698, Note_on_c, 15, 55, 27
16, 341731, Note_on_c, 15, 57, 0
16, 342002, Note_on_c, 15, 57, 31
16, 342102, Note_on_c, 15, 55, 0
16, 342289, Note_on_c, 15, 54, 28
16, 342396, Note_on_c, 15, 57, 0
16, 342645, Note_on_c, 15, 52, 28
16, 342734, Note_on_c, 15, 54, 0
16, 343017, Note_on_c, 15, 52, 0
16, 356533, Note_on_c, 15, 57, 51
16, 356935, Note_on_c, 15, 57, 0
16, 356971, Note_on_c, 15, 57, 59
16, 357352, Note_on_c, 15, 65, 65
16, 357360, Control_c, 15, 11, 80
16, 357407, Note_on_c, 15, 57, 0
16, 357432, Control_c, 15, 11, 79
16, 357504, Control_c, 15, 11, 78
16, 357576, Control_c, 15, 11, 77
16, 357648, Control_c, 15, 11, 76
16, 357720, Control_c, 15, 11, 75
16, 357792, Control_c, 15, 11, 74
16, 357864, Control_c, 15, 11, 73
16, 357936, Control_c, 15, 11, 72
16, 358008, Control_c, 15, 11, 71
16, 358080, Control_c, 15, 11, 70
16, 358152, Control_c, 15, 11, 69
16, 358224, Control_c, 15, 11, 68
16, 358296, Control_c, 15, 11, 67
16, 358368, Control_c, 15, 11, 66
16, 358440, Control_c, 15, 11, 65
16, 358512, Control_c, 15, 11, 64
16, 358584, Control_c, 15, 11, 63
16, 358615, Note_on_c, 15, 65, 0
16, 358656, Control_c, 15, 11, 62
16, 358728, Control_c, 15, 11, 61
16, 358799, Control_c, 15, 11, 60
16, 364320, Control_c, 15, 11, 80
16, 364390, Note_on_c, 15, 52, 52
16, 364668, Note_on_c, 15, 52, 0
16, 364710, Note_on_c, 15, 52, 63
16, 365069, Control_c, 15, 11, 80
16, 365069, Note_on_c, 15, 62, 68
16, 365105, Note_on_c, 15, 52, 0
16, 365116, Control_c, 15, 11, 79
16, 365162, Control_c, 15, 11, 78
16, 365209, Control_c, 15, 11, 77
16, 365255, Control_c, 15, 11, 76
16, 365302, Control_c, 15, 11, 75
16, 365348, Control_c, 15, 11, 74
16, 365395, Control_c, 15, 11, 73
16, 365441, Control_c, 15, 11, 72
16, 365488, Control_c, 15, 11, 71
16, 365534, Control_c, 15, 11, 70
16, 365581, Control_c, 15, 11, 69
16, 365627, Control_c, 15, 11, 68
16, 365674, Control_c, 15, 11, 67
16, 365720, Control_c, 15, 11, 66
16, 365767, Control_c, 15, 11, 65
16, 365813, Control_c, 15, 11, 64
16, 365860, Control_c, 15, 11, 63
16, 365906, Control_c, 15, 11, 62
16, 365953, Control_c, 15, 11, 61
16, 365970, Note_on_c, 15, 62, 0
16, 365999, Control_c, 15, 11, 60
16, 366240, Control_c, 15, 11, 80
16, 366478, Note_on_c, 15, 52, 68
16, 366782, Note_on_c, 15, 52, 0
16, 366787, Note_on_c, 15, 52, 73
16, 367281, Control_c, 15, 11, 80
16, 367281, Note_on_c, 15, 58, 81
16, 367282, Control_c, 15, 11, 79
16, 367286, Control_c, 15, 11, 78
16, 367291, Control_c, 15, 11, 77
16, 367299, Control_c, 15, 11, 76
16, 367306, Control_c, 15, 11, 75
16, 367314, Control_c, 15, 11, 74
16, 367321, Control_c, 15, 11, 73
16, 367329, Control_c, 15, 11, 72
16, 367339, Control_c, 15, 11, 71
16, 367349, Control_c, 15, 11, 70
16, 367361, Note_on_c, 15, 52, 0
16, 367361, Control_c, 15, 11, 69
16, 367371, Control_c, 15, 11, 68
16, 367386, Control_c, 15, 11, 67
16, 367401, Control_c, 15, 11, 66
16, 367419, Control_c, 15, 11, 65
16, 367441, Control_c, 15, 11, 64
16, 367463, Control_c, 15, 11, 63
16, 367496, Control_c, 15, 11, 62
16, 367543, Control_c, 15, 11, 61
16, 367623, Control_c, 15, 11, 60
16, 368640, Control_c, 15, 11, 60
16, 368692, Control_c, 15, 11, 61
16, 368744, Control_c, 15, 11, 62
16, 368795, Control_c, 15, 11, 63
16, 368847, Control_c, 15, 11, 64
16, 368899, Control_c, 15, 11, 65
16, 368950, Control_c, 15, 11, 66
16, 369002, Control_c, 15, 11, 67
16, 369054, Control_c, 15, 11, 68
16, 369105, Control_c, 15, 11, 69
16, 369157, Control_c, 15, 11, 70
16, 369209, Control_c, 15, 11, 71
16, 369260, Control_c, 15, 11, 72
16, 369312, Control_c, 15, 11, 73
16, 369364, Control_c, 15, 11, 74
16, 369415, Control_c, 15, 11, 75
16, 369467, Control_c, 15, 11, 76
16, 369519, Control_c, 15, 11, 77
16, 369570, Control_c, 15, 11, 78
16, 369622, Control_c, 15, 11, 79
16, 369673, Control_c, 15, 11, 80
16, 369674, Note_on_c, 15, 49, 73
16, 369685, Note_on_c, 15, 58, 0
16, 370224, Note_on_c, 15, 50, 68
16, 370320, Control_c, 15, 11, 80
16, 370322, Note_on_c, 15, 49, 0
16, 370631, Control_c, 15, 11, 79
16, 370751, Control_c, 15, 11, 78
16, 370822, Control_c, 15, 11, 77
16, 370864, Control_c, 15, 11, 76
16, 370905, Control_c, 15, 11, 75
16, 370939, Control_c, 15, 11, 74
16, 370961, Control_c, 15, 11, 73
16, 370984, Control_c, 15, 11, 72
16, 371006, Control_c, 15, 11, 71
16, 371021, Control_c, 15, 11, 70
16, 371040, Control_c, 15, 11, 69
16, 371047, Note_on_c, 15, 50, 0
16, 371055, Control_c, 15, 11, 68
16, 371066, Control_c, 15, 11, 67
16, 371081, Control_c, 15, 11, 66
16, 371092, Control_c, 15, 11, 65
16, 371103, Control_c, 15, 11, 64
16, 371115, Control_c, 15, 11, 63
16, 371122, Control_c, 15, 11, 62
16, 371133, Control_c, 15, 11, 61
16, 371141, Control_c, 15, 11, 60
16, 371152, Control_c, 15, 11, 59
16, 371160, Control_c, 15, 11, 58
16, 371167, Control_c, 15, 11, 57
16, 371175, Control_c, 15, 11, 56
16, 371182, Control_c, 15, 11, 55
16, 371186, Control_c, 15, 11, 54
16, 371193, Control_c, 15, 11, 53
16, 371201, Control_c, 15, 11, 52
16, 371205, Control_c, 15, 11, 51
16, 371212, Control_c, 15, 11, 50
16, 371216, Control_c, 15, 11, 49
16, 371223, Control_c, 15, 11, 48
16, 371227, Control_c, 15, 11, 47
16, 371235, Control_c, 15, 11, 46
16, 371238, Control_c, 15, 11, 45
16, 371242, Control_c, 15, 11, 44
16, 371250, Control_c, 15, 11, 43
16, 371253, Control_c, 15, 11, 42
16, 371257, Control_c, 15, 11, 41
16, 371261, Control_c, 15, 11, 40
16, 371265, Control_c, 15, 11, 39
16, 371268, Control_c, 15, 11, 38
16, 371272, Control_c, 15, 11, 37
16, 371276, Control_c, 15, 11, 36
16, 371279, Control_c, 15, 11, 35
16, 391680, Control_c, 15, 11, 80
16, 391892, Note_on_c, 15, 66, 94
16, 392149, Note_on_c, 15, 66, 0
16, 392178, Note_on_c, 15, 54, 85
16, 392412, Note_on_c, 15, 54, 0
16, 392427, Note_on_c, 15, 59, 83
16, 392701, Note_on_c, 15, 59, 0
16, 395245, Note_on_c, 15, 70, 103
16, 395511, Note_on_c, 15, 70, 0
16, 395514, Note_on_c, 15, 58, 95
16, 395796, Note_on_c, 15, 63, 89
16, 395797, Note_on_c, 15, 58, 0
16, 396059, Note_on_c, 15, 63, 0
16, 398916, Note_on_c, 15, 57, 92
16, 399176, Note_on_c, 15, 57, 0
16, 399196, Note_on_c, 15, 56, 108
16, 399616, Note_on_c, 15, 55, 100
16, 399640, Note_on_c, 15, 56, 0
16, 399758, Note_on_c, 15, 56, 109
16, 399781, Note_on_c, 15, 55, 0
16, 399906, Note_on_c, 15, 63, 107
16, 399949, Note_on_c, 15, 56, 0
16, 400045, Note_on_c, 15, 56, 96
16, 400082, Note_on_c, 15, 63, 0
16, 400854, Note_on_c, 15, 56, 0
16, 400915, Note_on_c, 15, 61, 98
16, 402186, Note_on_c, 15, 61, 0
16, 402233, Note_on_c, 15, 60, 100
16, 402405, Note_on_c, 15, 61, 115
16, 402439, Note_on_c, 15, 60, 0
16, 402551, Note_on_c, 15, 64, 102
16, 402582, Note_on_c, 15, 61, 0
16, 402720, Note_on_c, 15, 54, 100
16, 402721, Note_on_c, 15, 64, 0
16, 403822, Note_on_c, 15, 54, 0
16, 413138, Note_on_c, 15, 61, 88
16, 413447, Note_on_c, 15, 49, 60
16, 413449, Note_on_c, 15, 61, 0
16, 413754, Note_on_c, 15, 49, 0
16, 413759, Note_on_c, 15, 54, 65
16, 414056, Note_on_c, 15, 54, 0
16, 416692, Note_on_c, 15, 65, 84
16, 416963, Note_on_c, 15, 65, 0
16, 416984, Note_on_c, 15, 53, 60
16, 417245, Note_on_c, 15, 53, 0
16, 417259, Note_on_c, 15, 58, 73
16, 417564, Note_on_c, 15, 58, 0
16, 420880, Note_on_c, 15, 56, 86
16, 421273, Note_on_c, 15, 56, 0
16, 421300, Note_on_c, 15, 55, 97
16, 421447, Note_on_c, 15, 56, 110
16, 421468, Note_on_c, 15, 55, 0
16, 421590, Note_on_c, 15, 61, 113
16, 421614, Note_on_c, 15, 56, 0
16, 421721, Note_on_c, 15, 61, 0
16, 421742, Note_on_c, 15, 64, 102
16, 422007, Note_on_c, 15, 63, 95
16, 422024, Note_on_c, 15, 64, 0
16, 422288, Note_on_c, 15, 63, 0
16, 422334, Note_on_c, 15, 51, 89
16, 422677, Note_on_c, 15, 51, 0
16, 422684, Note_on_c, 15, 52, 68
16, 423039, Note_on_c, 15, 52, 0
16, 424571, Note_on_c, 15, 54, 100
16, 424994, Note_on_c, 15, 53, 97
16, 425013, Note_on_c, 15, 54, 0
16, 425129, Note_on_c, 15, 54, 112
16, 425154, Note_on_c, 15, 53, 0
16, 425253, Note_on_c, 15, 54, 0
16, 425259, Note_on_c, 15, 59, 108
16, 425406, Note_on_c, 15, 62, 112
16, 425425, Note_on_c, 15, 59, 0
16, 425685, Note_on_c, 15, 61, 106
16, 425701, Note_on_c, 15, 62, 0
16, 426012, Note_on_c, 15, 61, 0
16, 426047, Note_on_c, 15, 49, 89
16, 426385, Note_on_c, 15, 50, 69
16, 426392, Note_on_c, 15, 49, 0
16, 426740, Note_on_c, 15, 50, 0
16, 452160, Control_c, 15, 11, 80
16, 452460, Note_on_c, 15, 52, 87
16, 452626, Note_on_c, 15, 52, 0
16, 452724, Note_on_c, 15, 55, 87
16, 452872, Note_on_c, 15, 55, 0
16, 453035, Note_on_c, 15, 52, 71
16, 453036, Note_on_c, 15, 64, 76
16, 453311, Note_on_c, 15, 52, 0
16, 453314, Note_on_c, 15, 51, 59
16, 453320, Note_on_c, 15, 63, 89
16, 453333, Note_on_c, 15, 64, 0
16, 453879, Note_on_c, 15, 51, 0
16, 453916, Note_on_c, 15, 50, 87
16, 453918, Note_on_c, 15, 62, 65
16, 453926, Note_on_c, 15, 63, 0
16, 454158, Note_on_c, 15, 50, 0
16, 454211, Note_on_c, 15, 49, 88
16, 454212, Note_on_c, 15, 61, 74
16, 454227, Note_on_c, 15, 62, 0
16, 454379, Note_on_c, 15, 49, 0
16, 454489, Note_on_c, 15, 52, 89
16, 454653, Note_on_c, 15, 52, 0
16, 454769, Note_on_c, 15, 61, 0
16, 454786, Note_on_c, 15, 48, 87
16, 454792, Note_on_c, 15, 60, 62
16, 454952, Note_on_c, 15, 48, 0
16, 455041, Note_on_c, 15, 60, 0
16, 455072, Note_on_c, 15, 47, 86
16, 455081, Note_on_c, 15, 59, 54
16, 455214, Note_on_c, 15, 47, 0
16, 455221, Note_on_c, 15, 59, 0
16, 455373, Note_on_c, 15, 59, 69
16, 455375, Note_on_c, 15, 47, 75
16, 455473, Note_on_c, 15, 59, 0
16, 455476, Note_on_c, 15, 47, 0
16, 455653, Note_on_c, 15, 51, 80
16, 455655, Note_on_c, 15, 63, 85
16, 455925, Note_on_c, 15, 63, 0
16, 455947, Note_on_c, 15, 64, 63
16, 455947, Note_on_c, 15, 52, 60
16, 455950, Note_on_c, 15, 51, 0
16, 456058, Note_on_c, 15, 64, 0
16, 456069, Note_on_c, 15, 52, 0
16, 456244, Note_on_c, 15, 47, 77
16, 456246, Note_on_c, 15, 59, 83
16, 456531, Note_on_c, 15, 48, 55
16, 456532, Note_on_c, 15, 47, 0
16, 456532, Note_on_c, 15, 59, 0
16, 456536, Note_on_c, 15, 60, 51
16, 456663, Note_on_c, 15, 60, 0
16, 456675, Note_on_c, 15, 48, 0
16, 456818, Note_on_c, 15, 44, 78
16, 456820, Note_on_c, 15, 56, 85
16, 457052, Note_on_c, 15, 56, 0
16, 457092, Note_on_c, 15, 44, 0
16, 457094, Note_on_c, 15, 45, 60
16, 457101, Note_on_c, 15, 57, 55
16, 457231, Note_on_c, 15, 57, 0
16, 457238, Note_on_c, 15, 45, 0
16, 457389, Note_on_c, 15, 52, 51
16, 457401, Note_on_c, 15, 40, 68
16, 457692, Note_on_c, 15, 51, 72
16, 457698, Note_on_c, 15, 39, 57
16, 457713, Note_on_c, 15, 52, 0
16, 457717, Note_on_c, 15, 40, 0
16, 458000, Note_on_c, 15, 40, 61
16, 458002, Note_on_c, 15, 52, 65
16, 458006, Note_on_c, 15, 51, 0
16, 458011, Note_on_c, 15, 39, 0
16, 458278, Note_on_c, 15, 52, 0
16, 458285, Note_on_c, 15, 55, 54
16, 458296, Note_on_c, 15, 43, 56
16, 458303, Note_on_c, 15, 40, 0
16, 458575, Note_on_c, 15, 46, 37
16, 458576, Note_on_c, 15, 58, 40
16, 458579, Note_on_c, 15, 55, 0
16, 458586, Note_on_c, 15, 43, 0
16, 458872, Note_on_c, 15, 58, 0
16, 458876, Note_on_c, 15, 59, 49
16, 458879, Note_on_c, 15, 47, 41
16, 458907, Note_on_c, 15, 46, 0
16, 459009, Note_on_c, 15, 47, 0
16, 459150, Note_on_c, 15, 52, 101
16, 459410, Note_on_c, 15, 52, 0
16, 459461, Note_on_c, 15, 45, 101
16, 459466, Note_on_c, 15, 59, 0
16, 459474, Note_on_c, 15, 57, 57
16, 459615, Note_on_c, 15, 45, 0
16, 459694, Note_on_c, 15, 57, 0
16, 459764, Note_on_c, 15, 48, 103
16, 459768, Note_on_c, 15, 60, 84
16, 459919, Note_on_c, 15, 60, 0
16, 459923, Note_on_c, 15, 48, 0
16, 460053, Note_on_c, 15, 45, 97
16, 460061, Note_on_c, 15, 57, 79
16, 460175, Note_on_c, 15, 57, 0
16, 460184, Note_on_c, 15, 45, 0
16, 460367, Note_on_c, 15, 56, 98
16, 460375, Note_on_c, 15, 44, 89
16, 460882, Note_on_c, 15, 56, 0
16, 460931, Note_on_c, 15, 44, 0
16, 460940, Note_on_c, 15, 55, 82
16, 460945, Note_on_c, 15, 43, 68
16, 461118, Note_on_c, 15, 55, 0
16, 461219, Note_on_c, 15, 42, 80
16, 461224, Note_on_c, 15, 54, 76
16, 461227, Note_on_c, 15, 43, 0
16, 461316, Note_on_c, 15, 54, 0
16, 461322, Note_on_c, 15, 42, 0
16, 461498, Note_on_c, 15, 54, 88
16, 461498, Note_on_c, 15, 42, 92
16, 461589, Note_on_c, 15, 54, 0
16, 461595, Note_on_c, 15, 42, 0
16, 461780, Note_on_c, 15, 52, 90
16, 461786, Note_on_c, 15, 40, 102
16, 461886, Note_on_c, 15, 52, 0
16, 461889, Note_on_c, 15, 40, 0
16, 462066, Note_on_c, 15, 39, 89
16, 462066, Note_on_c, 15, 51, 97
16, 462193, Note_on_c, 15, 51, 0
16, 462269, Note_on_c, 15, 39, 0
16, 462370, Note_on_c, 15, 63, 97
16, 462376, Note_on_c, 15, 51, 88
16, 462504, Note_on_c, 15, 63, 0
16, 462518, Note_on_c, 15, 51, 0
16, 462922, Note_on_c, 15, 52, 104
16, 462933, Note_on_c, 15, 64, 98
16, 463095, Note_on_c, 15, 52, 0
16, 463110, Note_on_c, 15, 64, 0
16, 464257, Note_on_c, 15, 67, 50
16, 464411, Note_on_c, 15, 64, 59
16, 464471, Note_on_c, 15, 67, 0
16, 464629, Note_on_c, 15, 61, 81
16, 464677, Note_on_c, 15, 64, 0
16, 464701, Note_on_c, 15, 59, 61
16, 464749, Note_on_c, 15, 61, 0
16, 464998, Note_on_c, 15, 58, 48
16, 465078, Note_on_c, 15, 59, 0
16, 465197, Note_on_c, 15, 58, 0
16, 465875, Note_on_c, 15, 46, 97
16, 465878, Note_on_c, 15, 58, 51
16, 465958, Note_on_c, 15, 58, 0
16, 465961, Note_on_c, 15, 46, 0
16, 466156, Note_on_c, 15, 45, 102
16, 466164, Note_on_c, 15, 57, 55
16, 466265, Note_on_c, 15, 57, 0
16, 466270, Note_on_c, 15, 45, 0
16, 466463, Note_on_c, 15, 43, 104
16, 466480, Note_on_c, 15, 55, 48
16, 466582, Note_on_c, 15, 43, 0
16, 466624, Note_on_c, 15, 55, 0
16, 467861, Note_on_c, 15, 67, 41
16, 468029, Note_on_c, 15, 64, 46
16, 468071, Note_on_c, 15, 67, 0
16, 468263, Note_on_c, 15, 61, 65
16, 468292, Note_on_c, 15, 64, 0
16, 468340, Note_on_c, 15, 59, 47
16, 468371, Note_on_c, 15, 61, 0
16, 468636, Note_on_c, 15, 58, 36
16, 468720, Note_on_c, 15, 59, 0
16, 468917, Note_on_c, 15, 58, 0
16, 469564, Note_on_c, 15, 58, 88
16, 469569, Note_on_c, 15, 46, 87
16, 469656, Note_on_c, 15, 58, 0
16, 469662, Note_on_c, 15, 46, 0
16, 469851, Note_on_c, 15, 57, 68
16, 469855, Note_on_c, 15, 45, 67
16, 469958, Note_on_c, 15, 45, 0
16, 469967, Note_on_c, 15, 57, 0
16, 470133, Note_on_c, 15, 55, 75
16, 470141, Note_on_c, 15, 43, 60
16, 470235, Note_on_c, 15, 43, 0
16, 470262, Note_on_c, 15, 55, 0
16, 470434, Note_on_c, 15, 54, 80
16, 470436, Note_on_c, 15, 42, 82
16, 470521, Note_on_c, 15, 54, 0
16, 470527, Note_on_c, 15, 42, 0
16, 470722, Note_on_c, 15, 66, 89
16, 470723, Note_on_c, 15, 54, 76
16, 470818, Note_on_c, 15, 54, 0
16, 470838, Note_on_c, 15, 66, 0
16, 471028, Note_on_c, 15, 66, 88
16, 471029, Note_on_c, 15, 54, 86
16, 471126, Note_on_c, 15, 54, 0
16, 471142, Note_on_c, 15, 66, 0
16, 471308, Note_on_c, 15, 59, 86
16, 471318, Note_on_c, 15, 47, 93
16, 471428, Note_on_c, 15, 47, 0
16, 471432, Note_on_c, 15, 59, 0
16, 471648, Note_on_c, 15, 48, 89
16, 471651, Note_on_c, 15, 60, 91
16, 471767, Note_on_c, 15, 48, 0
16, 471773, Note_on_c, 15, 60, 0
16, 472059, Note_on_c, 15, 57, 54
16, 472070, Note_on_c, 15, 45, 46
16, 472723, Note_on_c, 15, 57, 0
16, 472724, Note_on_c, 15, 45, 0
16, 545040, Control_c, 15, 11, 60
16, 547698, Note_on_c, 15, 62, 59
16, 547698, Control_c, 15, 11, 50
16, 547738, Control_c, 15, 11, 51
16, 547818, Control_c, 15, 11, 52
16, 547898, Control_c, 15, 11, 53
16, 547978, Control_c, 15, 11, 54
16, 548058, Control_c, 15, 11, 55
16, 548138, Control_c, 15, 11, 56
16, 548208, Control_c, 15, 11, 57
16, 548288, Control_c, 15, 11, 58
16, 548368, Control_c, 15, 11, 59
16, 548448, Control_c, 15, 11, 60
16, 548528, Control_c, 15, 11, 61
16, 548608, Control_c, 15, 11, 62
16, 548678, Control_c, 15, 11, 63
16, 548758, Control_c, 15, 11, 64
16, 548838, Control_c, 15, 11, 65
16, 548918, Control_c, 15, 11, 66
16, 548998, Control_c, 15, 11, 67
16, 549078, Control_c, 15, 11, 68
16, 549158, Control_c, 15, 11, 69
16, 549228, Control_c, 15, 11, 70
16, 549308, Control_c, 15, 11, 71
16, 549388, Control_c, 15, 11, 72
16, 549468, Control_c, 15, 11, 73
16, 549548, Control_c, 15, 11, 74
16, 549628, Control_c, 15, 11, 75
16, 549698, Control_c, 15, 11, 76
16, 549778, Control_c, 15, 11, 77
16, 549858, Control_c, 15, 11, 78
16, 549938, Control_c, 15, 11, 79
16, 550018, Control_c, 15, 11, 80
16, 550098, Control_c, 15, 11, 81
16, 550168, Control_c, 15, 11, 82
16, 550248, Control_c, 15, 11, 83
16, 550328, Control_c, 15, 11, 84
16, 550408, Control_c, 15, 11, 85
16, 550488, Control_c, 15, 11, 86
16, 550568, Control_c, 15, 11, 87
16, 550638, Control_c, 15, 11, 88
16, 550718, Control_c, 15, 11, 89
16, 550798, Control_c, 15, 11, 90
16, 550878, Control_c, 15, 11, 91
16, 550958, Control_c, 15, 11, 92
16, 551038, Control_c, 15, 11, 93
16, 551118, Control_c, 15, 11, 94
16, 551188, Control_c, 15, 11, 95
16, 551268, Control_c, 15, 11, 96
16, 551348, Control_c, 15, 11, 97
16, 551428, Control_c, 15, 11, 98
16, 551508, Control_c, 15, 11, 99
16, 551588, Control_c, 15, 11, 100
16, 551618, Note_on_c, 15, 57, 63
16, 551677, Note_on_c, 15, 62, 0
16, 551945, Note_on_c, 15, 60, 73
16, 551969, Note_on_c, 15, 57, 0
16, 552241, Note_on_c, 15, 60, 0
16, 552307, Note_on_c, 15, 55, 63
16, 552531, Note_on_c, 15, 57, 65
16, 552581, Note_on_c, 15, 55, 0
16, 552759, Note_on_c, 15, 59, 68
16, 552762, Note_on_c, 15, 57, 0
16, 553357, Note_on_c, 15, 57, 63
16, 553412, Note_on_c, 15, 59, 0
16, 553662, Note_on_c, 15, 55, 58
16, 553687, Note_on_c, 15, 57, 0
16, 554047, Note_on_c, 15, 55, 0
16, 554053, Note_on_c, 15, 50, 63
16, 554053, Control_c, 15, 11, 100
16, 554083, Control_c, 15, 11, 99
16, 554143, Control_c, 15, 11, 98
16, 554203, Control_c, 15, 11, 97
16, 554253, Control_c, 15, 11, 96
16, 554313, Control_c, 15, 11, 95
16, 554373, Control_c, 15, 11, 94
16, 554423, Control_c, 15, 11, 93
16, 554483, Control_c, 15, 11, 92
16, 554533, Control_c, 15, 11, 91
16, 554593, Control_c, 15, 11, 90
16, 554653, Control_c, 15, 11, 89
16, 554703, Control_c, 15, 11, 88
16, 554763, Control_c, 15, 11, 87
16, 554823, Control_c, 15, 11, 86
16, 554873, Control_c, 15, 11, 85
16, 554933, Control_c, 15, 11, 84
16, 554993, Control_c, 15, 11, 83
16, 555043, Control_c, 15, 11, 82
16, 555103, Control_c, 15, 11, 81
16, 555163, Control_c, 15, 11, 80
16, 555182, Note_on_c, 15, 55, 55
16, 555235, Note_on_c, 15, 50, 0
16, 555574, Note_on_c, 15, 55, 0
16, 603511, Note_on_c, 15, 67, 81
16, 603516, Note_on_c, 15, 59, 70
16, 604255, Note_on_c, 15, 66, 83
16, 604268, Note_on_c, 15, 58, 75
16, 604288, Note_on_c, 15, 67, 0
16, 604328, Note_on_c, 15, 59, 0
16, 604745, Note_on_c, 15, 64, 84
16, 604752, Note_on_c, 15, 61, 79
16, 604754, Note_on_c, 15, 66, 0
16, 604789, Note_on_c, 15, 58, 0
16, 605017, Note_on_c, 15, 59, 65
16, 605018, Note_on_c, 15, 62, 73
16, 605032, Note_on_c, 15, 64, 0
16, 605046, Note_on_c, 15, 61, 0
16, 605279, Note_on_c, 15, 62, 0
16, 605286, Note_on_c, 15, 59, 0
16, 606490, Note_on_c, 15, 63, 86
16, 606496, Note_on_c, 15, 60, 90
16, 607299, Note_on_c, 15, 66, 77
16, 607311, Note_on_c, 15, 59, 86
16, 607325, Note_on_c, 15, 63, 0
16, 607352, Note_on_c, 15, 60, 0
16, 607751, Note_on_c, 15, 57, 87
16, 607788, Note_on_c, 15, 59, 0
16, 608038, Note_on_c, 15, 55, 86
16, 608043, Note_on_c, 15, 64, 73
16, 608072, Note_on_c, 15, 66, 0
16, 608108, Note_on_c, 15, 57, 0
16, 608224, Note_on_c, 15, 64, 0
16, 608232, Note_on_c, 15, 55, 0
16, 629013, Control_c, 15, 11, 80
16, 629013, Note_on_c, 15, 48, 122
16, 629037, Note_on_c, 15, 60, 103
16, 629463, Note_on_c, 15, 48, 0
16, 629488, Note_on_c, 15, 47, 102
16, 629607, Note_on_c, 15, 48, 117
16, 629649, Note_on_c, 15, 47, 0
16, 629729, Note_on_c, 15, 52, 121
16, 629771, Note_on_c, 15, 48, 0
16, 629883, Note_on_c, 15, 55, 120
16, 629899, Note_on_c, 15, 52, 0
16, 629905, Note_on_c, 15, 62, 97
16, 629949, Note_on_c, 15, 60, 0
16, 629951, Note_on_c, 15, 55, 0
16, 630149, Note_on_c, 15, 55, 112
16, 630230, Note_on_c, 15, 55, 0
16, 630416, Note_on_c, 15, 55, 117
16, 630530, Note_on_c, 15, 55, 0
16, 630699, Note_on_c, 15, 48, 125
16, 630715, Note_on_c, 15, 62, 0
16, 630717, Note_on_c, 15, 60, 87
16, 630721, Note_on_c, 15, 60, 0
16, 631116, Note_on_c, 15, 48, 0
16, 631138, Note_on_c, 15, 47, 107
16, 631269, Note_on_c, 15, 48, 111
16, 631301, Note_on_c, 15, 47, 0
16, 631393, Note_on_c, 15, 52, 113
16, 631427, Note_on_c, 15, 48, 0
16, 631549, Note_on_c, 15, 55, 118
16, 631556, Note_on_c, 15, 52, 0
16, 631561, Note_on_c, 15, 62, 75
16, 631619, Note_on_c, 15, 55, 0
16, 631827, Note_on_c, 15, 55, 116
16, 631901, Note_on_c, 15, 55, 0
16, 632102, Note_on_c, 15, 55, 118
16, 632203, Note_on_c, 15, 55, 0
16, 632205, Note_on_c, 15, 62, 0
16, 632442, Note_on_c, 15, 48, 120
16, 632455, Note_on_c, 15, 60, 83
16, 632609, Note_on_c, 15, 48, 0
16, 632622, Note_on_c, 15, 60, 0
16, 633624, Control_c, 15, 11, 50
16, 633624, Note_on_c, 15, 67, 41
16, 633630, Control_c, 15, 11, 55
16, 633636, Control_c, 15, 11, 59
16, 633642, Control_c, 15, 11, 62
16, 633646, Note_on_c, 15, 64, 34
16, 633648, Control_c, 15, 11, 65
16, 633654, Control_c, 15, 11, 67
16, 633660, Control_c, 15, 11, 69
16, 633666, Control_c, 15, 11, 71
16, 633672, Control_c, 15, 11, 72
16, 633678, Control_c, 15, 11, 73
16, 633684, Control_c, 15, 11, 74
16, 633690, Control_c, 15, 11, 75
16, 633696, Control_c, 15, 11, 76
16, 633702, Control_c, 15, 11, 77
16, 633714, Control_c, 15, 11, 78
16, 633732, Control_c, 15, 11, 79
16, 633756, Control_c, 15, 11, 80
16, 633810, Control_c, 15, 11, 79
16, 633858, Control_c, 15, 11, 78
16, 633906, Control_c, 15, 11, 77
16, 633954, Control_c, 15, 11, 76
16, 634002, Control_c, 15, 11, 75
16, 634050, Control_c, 15, 11, 74
16, 634104, Control_c, 15, 11, 73
16, 634152, Control_c, 15, 11, 72
16, 634200, Control_c, 15, 11, 71
16, 634248, Control_c, 15, 11, 70
16, 634296, Control_c, 15, 11, 69
16, 634344, Control_c, 15, 11, 68
16, 634392, Control_c, 15, 11, 67
16, 634446, Control_c, 15, 11, 66
16, 634494, Control_c, 15, 11, 65
16, 634542, Control_c, 15, 11, 64
16, 634590, Control_c, 15, 11, 63
16, 634638, Control_c, 15, 11, 62
16, 634681, Note_on_c, 15, 64, 0
16, 634686, Control_c, 15, 11, 61
16, 634732, Note_on_c, 15, 67, 0
16, 634734, Control_c, 15, 11, 60
16, 634735, Note_on_c, 15, 64, 33
16, 634755, Note_on_c, 15, 60, 38
16, 634968, Note_on_c, 15, 60, 0
16, 635004, Note_on_c, 15, 64, 0
16, 635644, Control_c, 15, 11, 50
16, 635644, Note_on_c, 15, 64, 38
16, 635644, Note_on_c, 15, 67, 37
16, 635650, Control_c, 15, 11, 54
16, 635656, Control_c, 15, 11, 56
16, 635662, Control_c, 15, 11, 58
16, 635668, Control_c, 15, 11, 60
16, 635674, Control_c, 15, 11, 62
16, 635680, Control_c, 15, 11, 64
16, 635686, Control_c, 15, 11, 65
16, 635692, Control_c, 15, 11, 67
16, 635698, Control_c, 15, 11, 68
16, 635704, Control_c, 15, 11, 69
16, 635710, Control_c, 15, 11, 70
16, 635716, Control_c, 15, 11, 71
16, 635722, Control_c, 15, 11, 72
16, 635728, Control_c, 15, 11, 73
16, 635740, Control_c, 15, 11, 74
16, 635746, Control_c, 15, 11, 75
16, 635758, Control_c, 15, 11, 76
16, 635776, Control_c, 15, 11, 77
16, 635794, Control_c, 15, 11, 78
16, 635818, Control_c, 15, 11, 79
16, 635860, Control_c, 15, 11, 80
16, 637022, Note_on_c, 15, 66, 32
16, 637032, Note_on_c, 15, 63, 40
16, 637039, Note_on_c, 15, 67, 0
16, 637097, Note_on_c, 15, 64, 0
16, 637318, Control_c, 15, 11, 80
16, 637318, Note_on_c, 15, 65, 58
16, 637329, Note_on_c, 15, 62, 33
16, 637373, Note_on_c, 15, 63, 0
16, 637379, Note_on_c, 15, 66, 0
16, 637414, Control_c, 15, 11, 79
16, 637504, Control_c, 15, 11, 78
16, 637594, Control_c, 15, 11, 77
16, 637607, Note_on_c, 15, 64, 51
16, 637618, Note_on_c, 15, 60, 37
16, 637627, Note_on_c, 15, 65, 0
16, 637630, Note_on_c, 15, 62, 0
16, 637684, Control_c, 15, 11, 76
16, 637774, Control_c, 15, 11, 75
16, 637814, Note_on_c, 15, 60, 0
16, 637864, Control_c, 15, 11, 74
16, 637918, Note_on_c, 15, 60, 22
16, 637918, Note_on_c, 15, 57, 28
16, 637921, Note_on_c, 15, 60, 0
16, 637954, Control_c, 15, 11, 73
16, 637970, Note_on_c, 15, 64, 0
16, 638044, Control_c, 15, 11, 72
16, 638134, Control_c, 15, 11, 71
16, 638224, Control_c, 15, 11, 70
16, 638267, Note_on_c, 15, 59, 41
16, 638314, Control_c, 15, 11, 69
16, 638316, Note_on_c, 15, 57, 0
16, 638404, Control_c, 15, 11, 68
16, 638494, Control_c, 15, 11, 67
16, 638584, Control_c, 15, 11, 66
16, 638674, Control_c, 15, 11, 65
16, 638764, Control_c, 15, 11, 64
16, 638854, Control_c, 15, 11, 63
16, 638944, Control_c, 15, 11, 62
16, 639034, Control_c, 15, 11, 61
16, 639045, Note_on_c, 15, 59, 0
16, 639120, Control_c, 15, 11, 60
16, 645840, Control_c, 15, 11, 100
16, 645884, Note_on_c, 15, 64, 93
16, 645887, Note_on_c, 15, 52, 96
16, 646291, Note_on_c, 15, 64, 0
16, 646297, Note_on_c, 15, 52, 0
16, 647070, Note_on_c, 15, 52, 82
16, 647072, Note_on_c, 15, 40, 90
16, 647268, Note_on_c, 15, 40, 0
16, 647270, Note_on_c, 15, 52, 0
16, 647307, Note_on_c, 15, 52, 74
16, 647308, Note_on_c, 15, 40, 78
16, 649263, Note_on_c, 15, 40, 0
16, 649274, Note_on_c, 15, 52, 0
16, 649440, End_track
17, 0, Start_track
17, 0, Title_t, "Set up                              "
17, 0, System_exclusive, 0A, 41, 10, 42, 12, 40, 00, 7F, 00, 41, F7
17, 80, System_exclusive, 0A, 41, 10, 42, 12, 40, 01, 30, 03, 0C, F7
17, 170, System_exclusive, 0A, 41, 10, 42, 12, 40, 01, 33, 40, 4C, F7
17, 260, System_exclusive, 0A, 41, 10, 42, 12, 40, 01, 34, 50, 3B, F7
17, 350, System_exclusive, 0A, 41, 10, 42, 12, 40, 01, 35, 28, 62, F7
17, 440, System_exclusive, 0A, 41, 10, 42, 12, 40, 01, 36, 05, 04, F7
17, 530, System_exclusive, 0A, 41, 10, 42, 12, 40, 01, 38, 00, 07, F7
17, 705, System_exclusive, 0A, 41, 10, 42, 12, 40, 01, 3A, 32, 53, F7
17, 649440, End_track
0, 0, End_of_file