0, 0, Header, 1, 14, 240
1, 0, Start_track
1, 0, Time_signature, 2, 2, 12, 8
1, 0, Tempo, 1250000
1, 1920, Tempo, 1304348
1, 2400, Tempo, 1250000
1, 3840, Tempo, 1363636
1, 4320, Tempo, 1250000
1, 5760, Tempo, 1304348
1, 6240, Tempo, 1250000
1, 7680, Tempo, 1363636
1, 8160, Tempo, 1250000
1, 10560, Tempo, 1276596
1, 10680, Tempo, 1276596
1, 10800, Tempo, 1304348
1, 10920, Tempo, 1304348
1, 11040, Tempo, 1250000
1, 12960, Tempo, 1276596
1, 13080, Tempo, 1304348
1, 13200, Tempo, 1304348
1, 13320, Tempo, 1333333
1, 13440, Tempo, 1250000
1, 14880, Tempo, 1304348
1, 15360, Tempo, 1250000
1, 16800, Tempo, 1363636
1, 17280, Tempo, 1250000
1, 19680, Tempo, 1276596
1, 19800, Tempo, 1276596
1, 19920, Tempo, 1304348
1, 20040, Tempo, 1304348
1, 20160, Tempo, 1250000
1, 22080, Tempo, 1276596
1, 22200, Tempo, 1304348
1, 22320, Tempo, 1304348
1, 22440, Tempo, 1333333
1, 22560, Tempo, 1250000
1, 24000, Tempo, 1304348
1, 24480, Tempo, 1250000
1, 25920, Tempo, 1363636
1, 26400, Tempo, 1250000
1, 27000, Tempo, 1276596
1, 27120, Tempo, 1333333
1, 27240, Tempo, 1363636
1, 27360, Tempo, 1250000
1, 34560, Tempo, 1276596
1, 34680, Tempo, 1304348
1, 34800, Tempo, 1304348
1, 34920, Tempo, 1333333
1, 35040, Tempo, 1250000
1, 40800, Tempo, 1304348
1, 41760, Tempo, 1250000
1, 44760, Tempo, 1250000
1, 44880, Tempo, 1276596
1, 45000, Tempo, 1276596
1, 45120, Tempo, 1304348
1, 45240, Tempo, 1304348
1, 45360, Tempo, 1333333
1, 45480, Tempo, 1333333
1, 45600, Tempo, 1250000
1, 48960, Tempo, 1304348
1, 49440, Tempo, 1250000
1, 54240, Tempo, 1276596
1, 54360, Tempo, 1304348
1, 54480, Tempo, 1304348
1, 54600, Tempo, 1333333
1, 54720, Tempo, 1250000
1, 58200, Tempo, 1250000
1, 58320, Tempo, 1250000
1, 58440, Tempo, 1276596
1, 58680, Tempo, 1276596
1, 58800, Tempo, 1276596
1, 58920, Tempo, 1304348
1, 59040, Tempo, 1250000
1, 68280, Tempo, 1276596
1, 68400, Tempo, 1304348
1, 68520, Tempo, 1333333
1, 68640, Tempo, 1250000
1, 75360, Tempo, 1304348
1, 76320, Tempo, 1250000
1, 81240, Tempo, 1250000
1, 81360, Tempo, 1276596
1, 81480, Tempo, 1276596
1, 81600, Tempo, 1304348
1, 81720, Tempo, 1304348
1, 81840, Tempo, 1333333
1, 81960, Tempo, 1333333
1, 82080, Tempo, 1250000
1, 83520, Tempo, 1276596
1, 83640, Tempo, 1276596
1, 83760, Tempo, 1304348
1, 83880, Tempo, 1304348
1, 84000, Tempo, 1250000
1, 86400, Tempo, 1276596
1, 86880, Tempo, 1250000
1, 87840, Tempo, 1276596
1, 87960, Tempo, 1304348
1, 88080, Tempo, 1333333
1, 88200, Tempo, 1395349
1, 88320, Tempo, 1276596
1, 88440, Tempo, 1304348
1, 88560, Tempo, 1304348
1, 88680, Tempo, 1333333
1, 88800, Tempo, 1304348
1, 89760, Tempo, 1333333
1, 89880, Tempo, 1363636
1, 90000, Tempo, 1395349
1, 90120, Tempo, 1463415
1, 90240, Tempo, 1304348
1, 90240, End_track
2, 0, Start_track
2, 0, Program_c, 0, 73
2, 0, Control_c, 0, 7, 90
2, 0, Control_c, 0, 10, 56
2, 0, Control_c, 0, 91, 80
2, 26400, Note_on_c, 0, 84, 58
2, 26494, Note_off_c, 0, 84, 64
2, 26520, Note_on_c, 0, 84, 58
2, 26614, Note_off_c, 0, 84, 64
2, 26640, Note_on_c, 0, 84, 58
2, 26734, Note_off_c, 0, 84, 64
2, 26760, Note_on_c, 0, 84, 58
2, 26854, Note_off_c, 0, 84, 64
2, 26880, Note_on_c, 0, 84, 58
2, 26940, Note_off_c, 0, 84, 64
2, 26940, Note_on_c, 0, 85, 58
2, 27000, Note_off_c, 0, 85, 64
2, 27000, Note_on_c, 0, 84, 58
2, 27060, Note_off_c, 0, 84, 64
2, 27060, Note_on_c, 0, 83, 58
2, 27120, Note_off_c, 0, 83, 64
2, 27120, Note_on_c, 0, 84, 58
2, 27180, Note_off_c, 0, 84, 64
2, 27180, Note_on_c, 0, 82, 58
2, 27240, Note_off_c, 0, 82, 64
2, 27240, Note_on_c, 0, 80, 58
2, 27300, Note_off_c, 0, 80, 64
2, 27300, Note_on_c, 0, 79, 58
2, 27348, Note_off_c, 0, 79, 64
2, 27360, Note_on_c, 0, 77, 58
2, 27552, Note_off_c, 0, 77, 64
2, 27840, Note_on_c, 0, 88, 92
2, 28296, Note_off_c, 0, 88, 64
2, 28320, Note_on_c, 0, 89, 92
2, 28776, Note_off_c, 0, 89, 64
2, 28800, Note_on_c, 0, 86, 92
2, 29256, Note_off_c, 0, 86, 64
2, 29280, Note_on_c, 0, 87, 92
2, 30000, Note_off_c, 0, 87, 64
2, 30000, Note_on_c, 0, 81, 92
2, 30192, Note_off_c, 0, 81, 64
2, 30240, Note_on_c, 0, 82, 92
2, 30480, Note_off_c, 0, 82, 64
2, 30480, Note_on_c, 0, 81, 92
2, 30720, Note_off_c, 0, 81, 64
2, 30720, Note_on_c, 0, 82, 92
2, 30960, Note_off_c, 0, 82, 64
2, 30960, Note_on_c, 0, 81, 92
2, 31152, Note_off_c, 0, 81, 64
2, 31200, Note_on_c, 0, 82, 92
2, 31296, Note_off_c, 0, 82, 64
2, 35040, Note_on_c, 0, 82, 92
2, 35076, Note_off_c, 0, 82, 64
2, 35100, Note_on_c, 0, 82, 92
2, 35136, Note_off_c, 0, 82, 64
2, 35160, Note_on_c, 0, 82, 92
2, 35196, Note_off_c, 0, 82, 64
2, 35220, Note_on_c, 0, 82, 92
2, 35256, Note_off_c, 0, 82, 64
2, 35280, Note_on_c, 0, 80, 92
2, 35316, Note_off_c, 0, 80, 64
2, 35340, Note_on_c, 0, 80, 92
2, 35376, Note_off_c, 0, 80, 64
2, 35400, Note_on_c, 0, 80, 92
2, 35436, Note_off_c, 0, 80, 64
2, 35460, Note_on_c, 0, 80, 92
2, 35496, Note_off_c, 0, 80, 64
2, 35520, Note_on_c, 0, 80, 92
2, 35556, Note_off_c, 0, 80, 64
2, 35580, Note_on_c, 0, 80, 92
2, 35616, Note_off_c, 0, 80, 64
2, 35640, Note_on_c, 0, 80, 92
2, 35676, Note_off_c, 0, 80, 64
2, 35700, Note_on_c, 0, 80, 92
2, 35736, Note_off_c, 0, 80, 64
2, 35760, Note_on_c, 0, 79, 92
2, 35796, Note_off_c, 0, 79, 64
2, 35820, Note_on_c, 0, 79, 92
2, 35856, Note_off_c, 0, 79, 64
2, 35880, Note_on_c, 0, 79, 92
2, 35916, Note_off_c, 0, 79, 64
2, 35940, Note_on_c, 0, 79, 92
2, 35976, Note_off_c, 0, 79, 64
2, 36000, Note_on_c, 0, 79, 92
2, 36036, Note_off_c, 0, 79, 64
2, 36060, Note_on_c, 0, 79, 92
2, 36096, Note_off_c, 0, 79, 64
2, 36120, Note_on_c, 0, 79, 92
2, 36156, Note_off_c, 0, 79, 64
2, 36180, Note_on_c, 0, 79, 92
2, 36216, Note_off_c, 0, 79, 64
2, 36240, Note_on_c, 0, 77, 92
2, 36276, Note_off_c, 0, 77, 64
2, 36300, Note_on_c, 0, 77, 92
2, 36336, Note_off_c, 0, 77, 64
2, 36360, Note_on_c, 0, 77, 92
2, 36396, Note_off_c, 0, 77, 64
2, 36420, Note_on_c, 0, 77, 92
2, 36456, Note_off_c, 0, 77, 64
2, 36480, Note_on_c, 0, 77, 92
2, 36516, Note_off_c, 0, 77, 64
2, 36540, Note_on_c, 0, 77, 92
2, 36576, Note_off_c, 0, 77, 64
2, 36600, Note_on_c, 0, 77, 92
2, 36636, Note_off_c, 0, 77, 64
2, 36660, Note_on_c, 0, 77, 92
2, 36696, Note_off_c, 0, 77, 64
2, 36720, Note_on_c, 0, 75, 92
2, 36756, Note_off_c, 0, 75, 64
2, 36780, Note_on_c, 0, 75, 92
2, 36816, Note_off_c, 0, 75, 64
2, 36840, Note_on_c, 0, 75, 92
2, 36876, Note_off_c, 0, 75, 64
2, 36900, Note_on_c, 0, 75, 92
2, 36936, Note_off_c, 0, 75, 64
2, 40320, Note_on_c, 0, 80, 70
2, 40410, Note_off_c, 0, 80, 64
2, 40440, Note_on_c, 0, 80, 70
2, 40530, Note_off_c, 0, 80, 64
2, 40560, Note_on_c, 0, 80, 70
2, 40650, Note_off_c, 0, 80, 64
2, 40680, Note_on_c, 0, 80, 70
2, 40770, Note_off_c, 0, 80, 64
2, 43200, Note_on_c, 0, 80, 70
2, 43290, Note_off_c, 0, 80, 64
2, 43320, Note_on_c, 0, 80, 70
2, 43410, Note_off_c, 0, 80, 64
2, 43440, Note_on_c, 0, 80, 70
2, 43530, Note_off_c, 0, 80, 64
2, 43560, Note_on_c, 0, 80, 70
2, 43650, Note_off_c, 0, 80, 64
2, 43680, Note_on_c, 0, 80, 70
2, 43740, Note_off_c, 0, 80, 64
2, 43740, Note_on_c, 0, 79, 70
2, 43800, Note_off_c, 0, 79, 64
2, 43800, Note_on_c, 0, 80, 70
2, 43860, Note_off_c, 0, 80, 64
2, 43860, Note_on_c, 0, 82, 70
2, 43920, Note_off_c, 0, 82, 64
2, 43920, Note_on_c, 0, 80, 70
2, 43980, Note_off_c, 0, 80, 64
2, 43980, Note_on_c, 0, 79, 70
2, 44040, Note_off_c, 0, 79, 64
2, 44040, Note_on_c, 0, 77, 70
2, 44100, Note_off_c, 0, 77, 64
2, 44100, Note_on_c, 0, 75, 70
2, 44148, Note_off_c, 0, 75, 64
2, 44160, Note_on_c, 0, 77, 70
2, 44232, Note_off_c, 0, 77, 64
2, 44280, Note_on_c, 0, 84, 70
2, 44400, Note_off_c, 0, 84, 64
2, 44400, Note_on_c, 0, 85, 70
2, 44472, Note_off_c, 0, 85, 64
2, 44520, Note_on_c, 0, 77, 70
2, 44592, Note_off_c, 0, 77, 64
2, 44640, Note_on_c, 0, 75, 70
2, 44712, Note_off_c, 0, 75, 64
2, 44760, Note_on_c, 0, 82, 70
2, 44880, Note_off_c, 0, 82, 64
2, 44880, Note_on_c, 0, 84, 70
2, 44952, Note_off_c, 0, 84, 64
2, 45000, Note_on_c, 0, 75, 70
2, 45072, Note_off_c, 0, 75, 64
2, 45120, Note_on_c, 0, 73, 70
2, 45192, Note_off_c, 0, 73, 64
2, 45240, Note_on_c, 0, 80, 70
2, 45360, Note_off_c, 0, 80, 64
2, 45360, Note_on_c, 0, 82, 70
2, 45432, Note_off_c, 0, 82, 64
2, 45480, Note_on_c, 0, 73, 70
2, 45552, Note_off_c, 0, 73, 64
2, 45600, Note_on_c, 0, 72, 58
2, 45696, Note_off_c, 0, 72, 64
2, 47520, Note_on_c, 0, 75, 70
2, 47760, Note_off_c, 0, 75, 64
2, 47760, Note_on_c, 0, 77, 70
2, 47850, Note_off_c, 0, 77, 64
2, 47850, Note_on_c, 0, 79, 70
2, 47880, Note_off_c, 0, 79, 64
2, 47880, Note_on_c, 0, 80, 70
2, 47970, Note_off_c, 0, 80, 64
2, 47970, Note_on_c, 0, 77, 70
2, 48000, Note_off_c, 0, 77, 64
2, 48000, Note_on_c, 0, 75, 70
2, 48096, Note_off_c, 0, 75, 64
2, 48840, Note_on_c, 0, 82, 70
2, 48912, Note_off_c, 0, 82, 64
2, 48960, Note_on_c, 0, 82, 70
2, 49200, Note_off_c, 0, 82, 64
2, 49200, Note_on_c, 0, 75, 58
2, 49296, Note_off_c, 0, 75, 64
2, 49920, Note_on_c, 0, 82, 58
2, 49953, Note_off_c, 0, 82, 64
2, 49980, Note_on_c, 0, 80, 58
2, 50013, Note_off_c, 0, 80, 64
2, 50040, Note_on_c, 0, 79, 58
2, 50073, Note_off_c, 0, 79, 64
2, 50100, Note_on_c, 0, 77, 58
2, 50133, Note_off_c, 0, 77, 64
2, 50160, Note_on_c, 0, 75, 58
2, 50193, Note_off_c, 0, 75, 64
2, 50220, Note_on_c, 0, 73, 58
2, 50253, Note_off_c, 0, 73, 64
2, 50280, Note_on_c, 0, 72, 58
2, 50313, Note_off_c, 0, 72, 64
2, 50340, Note_on_c, 0, 70, 58
2, 50373, Note_off_c, 0, 70, 64
2, 50400, Note_on_c, 0, 68, 58
2, 50496, Note_off_c, 0, 68, 64
2, 50880, Note_on_c, 0, 84, 58
2, 50913, Note_off_c, 0, 84, 64
2, 50940, Note_on_c, 0, 82, 58
2, 50973, Note_off_c, 0, 82, 64
2, 51000, Note_on_c, 0, 80, 58
2, 51033, Note_off_c, 0, 80, 64
2, 51060, Note_on_c, 0, 79, 58
2, 51093, Note_off_c, 0, 79, 64
2, 51120, Note_on_c, 0, 77, 58
2, 51153, Note_off_c, 0, 77, 64
2, 51180, Note_on_c, 0, 75, 58
2, 51213, Note_off_c, 0, 75, 64
2, 51240, Note_on_c, 0, 73, 58
2, 51273, Note_off_c, 0, 73, 64
2, 51300, Note_on_c, 0, 72, 58
2, 51333, Note_off_c, 0, 72, 64
2, 51360, Note_on_c, 0, 70, 58
2, 51456, Note_off_c, 0, 70, 64
2, 51840, Note_on_c, 0, 85, 58
2, 51873, Note_off_c, 0, 85, 64
2, 51900, Note_on_c, 0, 84, 58
2, 51933, Note_off_c, 0, 84, 64
2, 51960, Note_on_c, 0, 82, 58
2, 51993, Note_off_c, 0, 82, 64
2, 52020, Note_on_c, 0, 80, 58
2, 52053, Note_off_c, 0, 80, 64
2, 52080, Note_on_c, 0, 79, 58
2, 52113, Note_off_c, 0, 79, 64
2, 52140, Note_on_c, 0, 77, 58
2, 52173, Note_off_c, 0, 77, 64
2, 52200, Note_on_c, 0, 75, 58
2, 52233, Note_off_c, 0, 75, 64
2, 52260, Note_on_c, 0, 73, 58
2, 52293, Note_off_c, 0, 73, 64
2, 52320, Note_on_c, 0, 72, 58
2, 52416, Note_off_c, 0, 72, 64
2, 54720, Note_on_c, 0, 75, 70
2, 54960, Note_off_c, 0, 75, 64
2, 54960, Note_on_c, 0, 77, 70
2, 55050, Note_off_c, 0, 77, 64
2, 55050, Note_on_c, 0, 79, 70
2, 55080, Note_off_c, 0, 79, 64
2, 55080, Note_on_c, 0, 80, 70
2, 55170, Note_off_c, 0, 80, 64
2, 55170, Note_on_c, 0, 77, 70
2, 55200, Note_off_c, 0, 77, 64
2, 55200, Note_on_c, 0, 75, 70
2, 55296, Note_off_c, 0, 75, 64
2, 55440, Note_on_c, 0, 80, 70
2, 55530, Note_off_c, 0, 80, 64
2, 55530, Note_on_c, 0, 79, 70
2, 55560, Note_off_c, 0, 79, 64
2, 55560, Note_on_c, 0, 82, 70
2, 55650, Note_off_c, 0, 82, 64
2, 55650, Note_on_c, 0, 80, 70
2, 55680, Note_off_c, 0, 80, 64
2, 55680, Note_on_c, 0, 84, 70
2, 55770, Note_off_c, 0, 84, 64
2, 55770, Note_on_c, 0, 82, 70
2, 55800, Note_off_c, 0, 82, 64
2, 55800, Note_on_c, 0, 85, 70
2, 55890, Note_off_c, 0, 85, 64
2, 55890, Note_on_c, 0, 84, 70
2, 55920, Note_off_c, 0, 84, 64
2, 55920, Note_on_c, 0, 87, 70
2, 55992, Note_off_c, 0, 87, 64
2, 56040, Note_on_c, 0, 87, 70
2, 56112, Note_off_c, 0, 87, 64
2, 56160, Note_on_c, 0, 87, 70
2, 56400, Note_off_c, 0, 87, 64
2, 56400, Note_on_c, 0, 75, 58
2, 56496, Note_off_c, 0, 75, 64
2, 57120, Note_on_c, 0, 75, 70
2, 57240, Note_off_c, 0, 75, 64
2, 57240, Note_on_c, 0, 76, 70
2, 57360, Note_off_c, 0, 76, 64
2, 57360, Note_on_c, 0, 77, 70
2, 57480, Note_off_c, 0, 77, 64
2, 57480, Note_on_c, 0, 78, 70
2, 57576, Note_off_c, 0, 78, 64
2, 57600, Note_on_c, 0, 78, 70
2, 57984, Note_off_c, 0, 78, 64
2, 58080, Note_on_c, 0, 87, 70
2, 58320, Note_off_c, 0, 87, 64
2, 58320, Note_on_c, 0, 85, 70
2, 58380, Note_off_c, 0, 85, 64
2, 58380, Note_on_c, 0, 87, 70
2, 58440, Note_off_c, 0, 87, 64
2, 58440, Note_on_c, 0, 88, 70
2, 58500, Note_off_c, 0, 88, 64
2, 58500, Note_on_c, 0, 85, 70
2, 58548, Note_off_c, 0, 85, 64
2, 58560, Note_on_c, 0, 83, 70
2, 58632, Note_off_c, 0, 83, 64
2, 58680, Note_on_c, 0, 83, 70
2, 58752, Note_off_c, 0, 83, 64
2, 58800, Note_on_c, 0, 82, 58
2, 58872, Note_off_c, 0, 82, 64
2, 58920, Note_on_c, 0, 82, 58
2, 58992, Note_off_c, 0, 82, 64
2, 59040, Note_on_c, 0, 90, 92
2, 59496, Note_off_c, 0, 90, 64
2, 59520, Note_on_c, 0, 88, 92
2, 59976, Note_off_c, 0, 88, 64
2, 60000, Note_on_c, 0, 90, 92
2, 60456, Note_off_c, 0, 90, 64
2, 60480, Note_on_c, 0, 89, 92
2, 61896, Note_off_c, 0, 89, 64
2, 61920, Note_on_c, 0, 88, 92
2, 62376, Note_off_c, 0, 88, 64
2, 62400, Note_on_c, 0, 87, 92
2, 62640, Note_off_c, 0, 87, 64
2, 62640, Note_on_c, 0, 87, 92
2, 63120, Note_off_c, 0, 87, 64
2, 63120, Note_on_c, 0, 88, 92
2, 63240, Note_off_c, 0, 88, 64
2, 63240, Note_on_c, 0, 87, 92
2, 63480, Note_off_c, 0, 87, 64
2, 63480, Note_on_c, 0, 85, 92
2, 63540, Note_off_c, 0, 85, 64
2, 63540, Note_on_c, 0, 83, 92
2, 63600, Note_off_c, 0, 83, 64
2, 63600, Note_on_c, 0, 85, 92
2, 63720, Note_off_c, 0, 85, 64
2, 63720, Note_on_c, 0, 86, 92
2, 63840, Note_off_c, 0, 86, 64
2, 63840, Note_on_c, 0, 87, 92
2, 64080, Note_off_c, 0, 87, 64
2, 64080, Note_on_c, 0, 86, 92
2, 64320, Note_off_c, 0, 86, 64
2, 64320, Note_on_c, 0, 87, 92
2, 64560, Note_off_c, 0, 87, 64
2, 64560, Note_on_c, 0, 86, 92
2, 64800, Note_off_c, 0, 86, 64
2, 64800, Note_on_c, 0, 87, 92
2, 64896, Note_off_c, 0, 87, 64
2, 65280, Note_on_c, 0, 79, 70
2, 65520, Note_off_c, 0, 79, 64
2, 65520, Note_on_c, 0, 80, 70
2, 65610, Note_off_c, 0, 80, 64
2, 65610, Note_on_c, 0, 82, 70
2, 65640, Note_off_c, 0, 82, 64
2, 65640, Note_on_c, 0, 84, 70
2, 65730, Note_off_c, 0, 84, 64
2, 65730, Note_on_c, 0, 80, 70
2, 65760, Note_off_c, 0, 80, 64
2, 65760, Note_on_c, 0, 79, 70
2, 65856, Note_off_c, 0, 79, 64
2, 66240, Note_on_c, 0, 80, 70
2, 66480, Note_off_c, 0, 80, 64
2, 66480, Note_on_c, 0, 82, 70
2, 66570, Note_off_c, 0, 82, 64
2, 66570, Note_on_c, 0, 84, 70
2, 66600, Note_off_c, 0, 84, 64
2, 66600, Note_on_c, 0, 85, 70
2, 66690, Note_off_c, 0, 85, 64
2, 66690, Note_on_c, 0, 82, 70
2, 66720, Note_off_c, 0, 82, 64
2, 66720, Note_on_c, 0, 80, 70
2, 66816, Note_off_c, 0, 80, 64
2, 67200, Note_on_c, 0, 82, 70
2, 67440, Note_off_c, 0, 82, 64
2, 67440, Note_on_c, 0, 84, 70
2, 67530, Note_off_c, 0, 84, 64
2, 67530, Note_on_c, 0, 85, 70
2, 67560, Note_off_c, 0, 85, 64
2, 67560, Note_on_c, 0, 87, 70
2, 67650, Note_off_c, 0, 87, 64
2, 67650, Note_on_c, 0, 84, 70
2, 67680, Note_off_c, 0, 84, 64
2, 67680, Note_on_c, 0, 82, 70
2, 67776, Note_off_c, 0, 82, 64
2, 68640, Note_on_c, 0, 87, 92
2, 68676, Note_off_c, 0, 87, 64
2, 68700, Note_on_c, 0, 87, 92
2, 68736, Note_off_c, 0, 87, 64
2, 68760, Note_on_c, 0, 87, 92
2, 68796, Note_off_c, 0, 87, 64
2, 68820, Note_on_c, 0, 87, 92
2, 68856, Note_off_c, 0, 87, 64
2, 68880, Note_on_c, 0, 85, 92
2, 68916, Note_off_c, 0, 85, 64
2, 68940, Note_on_c, 0, 85, 92
2, 68976, Note_off_c, 0, 85, 64
2, 69000, Note_on_c, 0, 85, 92
2, 69036, Note_off_c, 0, 85, 64
2, 69060, Note_on_c, 0, 85, 92
2, 69096, Note_off_c, 0, 85, 64
2, 69120, Note_on_c, 0, 85, 92
2, 69156, Note_off_c, 0, 85, 64
2, 69180, Note_on_c, 0, 85, 92
2, 69216, Note_off_c, 0, 85, 64
2, 69240, Note_on_c, 0, 85, 92
2, 69276, Note_off_c, 0, 85, 64
2, 69300, Note_on_c, 0, 85, 92
2, 69336, Note_off_c, 0, 85, 64
2, 69360, Note_on_c, 0, 84, 92
2, 69396, Note_off_c, 0, 84, 64
2, 69420, Note_on_c, 0, 84, 92
2, 69456, Note_off_c, 0, 84, 64
2, 69480, Note_on_c, 0, 84, 92
2, 69516, Note_off_c, 0, 84, 64
2, 69540, Note_on_c, 0, 84, 92
2, 69576, Note_off_c, 0, 84, 64
2, 69600, Note_on_c, 0, 84, 92
2, 69636, Note_off_c, 0, 84, 64
2, 69660, Note_on_c, 0, 84, 92
2, 69696, Note_off_c, 0, 84, 64
2, 69720, Note_on_c, 0, 84, 92
2, 69756, Note_off_c, 0, 84, 64
2, 69780, Note_on_c, 0, 84, 92
2, 69816, Note_off_c, 0, 84, 64
2, 69840, Note_on_c, 0, 82, 92
2, 69876, Note_off_c, 0, 82, 64
2, 69900, Note_on_c, 0, 82, 92
2, 69936, Note_off_c, 0, 82, 64
2, 69960, Note_on_c, 0, 82, 92
2, 69996, Note_off_c, 0, 82, 64
2, 70020, Note_on_c, 0, 82, 92
2, 70056, Note_off_c, 0, 82, 64
2, 70080, Note_on_c, 0, 82, 92
2, 70116, Note_off_c, 0, 82, 64
2, 70140, Note_on_c, 0, 82, 92
2, 70176, Note_off_c, 0, 82, 64
2, 70200, Note_on_c, 0, 82, 92
2, 70236, Note_off_c, 0, 82, 64
2, 70260, Note_on_c, 0, 82, 92
2, 70296, Note_off_c, 0, 82, 64
2, 70320, Note_on_c, 0, 80, 92
2, 70356, Note_off_c, 0, 80, 64
2, 70380, Note_on_c, 0, 80, 92
2, 70416, Note_off_c, 0, 80, 64
2, 70440, Note_on_c, 0, 80, 92
2, 70476, Note_off_c, 0, 80, 64
2, 70500, Note_on_c, 0, 80, 92
2, 70536, Note_off_c, 0, 80, 64
2, 74880, Note_on_c, 0, 85, 92
2, 74970, Note_off_c, 0, 85, 64
2, 75000, Note_on_c, 0, 85, 70
2, 75090, Note_off_c, 0, 85, 64
2, 75120, Note_on_c, 0, 85, 70
2, 75210, Note_off_c, 0, 85, 64
2, 75240, Note_on_c, 0, 85, 70
2, 75330, Note_off_c, 0, 85, 64
2, 78240, Note_on_c, 0, 78, 70
2, 78330, Note_off_c, 0, 78, 64
2, 78360, Note_on_c, 0, 78, 70
2, 78450, Note_off_c, 0, 78, 64
2, 78480, Note_on_c, 0, 78, 70
2, 78570, Note_off_c, 0, 78, 64
2, 78600, Note_on_c, 0, 78, 70
2, 78690, Note_off_c, 0, 78, 64
2, 78720, Note_on_c, 0, 77, 70
2, 78810, Note_off_c, 0, 77, 64
2, 78840, Note_on_c, 0, 84, 70
2, 78930, Note_off_c, 0, 84, 64
2, 79080, Note_on_c, 0, 85, 70
2, 79176, Note_off_c, 0, 85, 64
2, 79320, Note_on_c, 0, 82, 70
2, 79416, Note_off_c, 0, 82, 64
2, 79560, Note_on_c, 0, 84, 70
2, 79656, Note_off_c, 0, 84, 64
2, 79800, Note_on_c, 0, 77, 70
2, 79920, Note_off_c, 0, 77, 64
2, 79920, Note_on_c, 0, 80, 70
2, 80040, Note_off_c, 0, 80, 64
2, 80040, Note_on_c, 0, 74, 70
2, 80136, Note_off_c, 0, 74, 64
2, 80160, Note_on_c, 0, 75, 58
2, 80256, Note_off_c, 0, 75, 64
2, 80640, Note_on_c, 0, 75, 70
2, 80730, Note_off_c, 0, 75, 64
2, 80730, Note_on_c, 0, 74, 70
2, 80760, Note_off_c, 0, 74, 64
2, 80760, Note_on_c, 0, 77, 70
2, 80850, Note_off_c, 0, 77, 64
2, 80850, Note_on_c, 0, 75, 70
2, 80880, Note_off_c, 0, 75, 64
2, 80880, Note_on_c, 0, 80, 70
2, 80970, Note_off_c, 0, 80, 64
2, 80970, Note_on_c, 0, 79, 70
2, 81000, Note_off_c, 0, 79, 64
2, 81000, Note_on_c, 0, 82, 70
2, 81096, Note_off_c, 0, 82, 64
2, 84000, Note_on_c, 0, 75, 70
2, 84240, Note_off_c, 0, 75, 64
2, 84240, Note_on_c, 0, 77, 70
2, 84330, Note_off_c, 0, 77, 64
2, 84330, Note_on_c, 0, 79, 70
2, 84360, Note_off_c, 0, 79, 64
2, 84360, Note_on_c, 0, 80, 70
2, 84450, Note_off_c, 0, 80, 64
2, 84450, Note_on_c, 0, 77, 70
2, 84480, Note_off_c, 0, 77, 64
2, 84480, Note_on_c, 0, 75, 70
2, 84576, Note_off_c, 0, 75, 64
2, 86760, Note_on_c, 0, 87, 70
2, 86856, Note_off_c, 0, 87, 64
2, 86880, Note_on_c, 0, 87, 70
2, 87240, Note_off_c, 0, 87, 64
2, 87240, Note_on_c, 0, 86, 70
2, 87354, Note_off_c, 0, 86, 64
2, 87360, Note_on_c, 0, 85, 70
2, 87720, Note_off_c, 0, 85, 64
2, 87720, Note_on_c, 0, 84, 70
2, 87900, Note_off_c, 0, 84, 64
2, 87900, Note_on_c, 0, 82, 70
2, 87960, Note_off_c, 0, 82, 64
2, 87960, Note_on_c, 0, 88, 70
2, 88020, Note_off_c, 0, 88, 64
2, 88020, Note_on_c, 0, 89, 70
2, 88080, Note_off_c, 0, 89, 64
2, 88080, Note_on_c, 0, 87, 70
2, 88140, Note_off_c, 0, 87, 64
2, 88140, Note_on_c, 0, 85, 70
2, 88200, Note_off_c, 0, 85, 64
2, 88200, Note_on_c, 0, 84, 70
2, 88260, Note_off_c, 0, 84, 64
2, 88260, Note_on_c, 0, 82, 70
2, 88308, Note_off_c, 0, 82, 64
2, 88320, Note_on_c, 0, 80, 70
2, 88680, Note_off_c, 0, 80, 64
2, 88680, Note_on_c, 0, 84, 70
2, 88740, Note_off_c, 0, 84, 64
2, 88740, Note_on_c, 0, 82, 70
2, 88800, Note_off_c, 0, 82, 64
2, 88800, Note_on_c, 0, 80, 58
2, 88896, Note_off_c, 0, 80, 64
2, 89760, Note_on_c, 0, 80, 105
2, 89850, Note_off_c, 0, 80, 64
2, 89850, Note_on_c, 0, 79, 105
2, 89880, Note_off_c, 0, 79, 64
2, 89880, Note_on_c, 0, 82, 105
2, 89970, Note_off_c, 0, 82, 64
2, 89970, Note_on_c, 0, 80, 105
2, 90000, Note_off_c, 0, 80, 64
2, 90000, Note_on_c, 0, 85, 105
2, 90090, Note_off_c, 0, 85, 64
2, 90090, Note_on_c, 0, 84, 105
2, 90120, Note_off_c, 0, 84, 64
2, 90120, Note_on_c, 0, 87, 105
2, 90180, Note_off_c, 0, 87, 64
2, 90240, Note_on_c, 0, 80, 105
2, 90336, Note_off_c, 0, 80, 64
2, 90336, End_track
3, 0, Start_track
3, 0, Program_c, 1, 71
3, 0, Control_c, 1, 7, 90
3, 0, Control_c, 1, 91, 80
3, 0, Control_c, 1, 10, 64
3, 26400, Note_on_c, 1, 76, 58
3, 26494, Note_off_c, 1, 76, 64
3, 26520, Note_on_c, 1, 76, 58
3, 26614, Note_off_c, 1, 76, 64
3, 26640, Note_on_c, 1, 76, 58
3, 26734, Note_off_c, 1, 76, 64
3, 26760, Note_on_c, 1, 76, 58
3, 26854, Note_off_c, 1, 76, 64
3, 26880, Note_on_c, 1, 76, 58
3, 27360, Note_off_c, 1, 76, 64
3, 27360, Note_on_c, 1, 77, 58
3, 27552, Note_off_c, 1, 77, 64
3, 27840, Note_on_c, 1, 76, 92
3, 27840, Note_on_c, 1, 70, 92
3, 28296, Note_off_c, 1, 70, 64
3, 28296, Note_off_c, 1, 76, 64
3, 28320, Note_on_c, 1, 77, 92
3, 28320, Note_on_c, 1, 68, 92
3, 28776, Note_off_c, 1, 77, 64
3, 28800, Note_on_c, 1, 74, 92
3, 29256, Note_off_c, 1, 68, 64
3, 29256, Note_off_c, 1, 74, 64
3, 29280, Note_on_c, 1, 75, 92
3, 29280, Note_on_c, 1, 70, 92
3, 29760, Note_off_c, 1, 70, 64
3, 29760, Note_off_c, 1, 75, 64
3, 29760, Note_on_c, 1, 78, 92
3, 29760, Note_on_c, 1, 75, 92
3, 30000, Note_off_c, 1, 75, 64
3, 30000, Note_off_c, 1, 78, 64
3, 30000, Note_on_c, 1, 75, 92
3, 30000, Note_on_c, 1, 69, 92
3, 30192, Note_off_c, 1, 69, 64
3, 30192, Note_off_c, 1, 75, 64
3, 30240, Note_on_c, 1, 74, 92
3, 30240, Note_on_c, 1, 70, 92
3, 30360, Note_off_c, 1, 70, 64
3, 30360, Note_off_c, 1, 74, 64
3, 30360, Note_on_c, 1, 77, 92
3, 30360, Note_on_c, 1, 74, 92
3, 30480, Note_off_c, 1, 74, 64
3, 30480, Note_off_c, 1, 77, 64
3, 30480, Note_on_c, 1, 78, 92
3, 30480, Note_on_c, 1, 75, 92
3, 30600, Note_off_c, 1, 75, 64
3, 30600, Note_off_c, 1, 78, 64
3, 30600, Note_on_c, 1, 72, 92
3, 30600, Note_on_c, 1, 75, 92
3, 30720, Note_off_c, 1, 75, 64
3, 30720, Note_off_c, 1, 72, 64
3, 30720, Note_on_c, 1, 74, 92
3, 30720, Note_on_c, 1, 70, 92
3, 30840, Note_off_c, 1, 70, 64
3, 30840, Note_off_c, 1, 74, 64
3, 30840, Note_on_c, 1, 74, 92
3, 30840, Note_on_c, 1, 77, 92
3, 30960, Note_off_c, 1, 77, 64
3, 30960, Note_off_c, 1, 74, 64
3, 30960, Note_on_c, 1, 75, 92
3, 30960, Note_on_c, 1, 78, 92
3, 31080, Note_off_c, 1, 78, 64
3, 31080, Note_off_c, 1, 75, 64
3, 31080, Note_on_c, 1, 72, 92
3, 31080, Note_on_c, 1, 75, 92
3, 31176, Note_off_c, 1, 75, 64
3, 31176, Note_off_c, 1, 72, 64
3, 31200, Note_on_c, 1, 74, 92
3, 31200, Note_on_c, 1, 70, 92
3, 31296, Note_off_c, 1, 70, 64
3, 31296, Note_off_c, 1, 74, 64
3, 31680, Note_on_c, 1, 74, 70
3, 31680, Note_on_c, 1, 70, 70
3, 31920, Note_off_c, 1, 70, 64
3, 31920, Note_off_c, 1, 74, 64
3, 31920, Note_on_c, 1, 75, 70
3, 31920, Note_on_c, 1, 72, 70
3, 32010, Note_off_c, 1, 72, 64
3, 32010, Note_off_c, 1, 75, 64
3, 32010, Note_on_c, 1, 74, 70
3, 32010, Note_on_c, 1, 77, 70
3, 32040, Note_off_c, 1, 77, 64
3, 32040, Note_off_c, 1, 74, 64
3, 32040, Note_on_c, 1, 79, 70
3, 32040, Note_on_c, 1, 75, 70
3, 32130, Note_off_c, 1, 75, 64
3, 32130, Note_off_c, 1, 79, 64
3, 32130, Note_on_c, 1, 72, 70
3, 32130, Note_on_c, 1, 75, 70
3, 32160, Note_off_c, 1, 75, 64
3, 32160, Note_off_c, 1, 72, 64
3, 32160, Note_on_c, 1, 74, 70
3, 32160, Note_on_c, 1, 70, 70
3, 32256, Note_off_c, 1, 70, 64
3, 32256, Note_off_c, 1, 74, 64
3, 32640, Note_on_c, 1, 75, 70
3, 32640, Note_on_c, 1, 72, 70
3, 32880, Note_off_c, 1, 72, 64
3, 32880, Note_off_c, 1, 75, 64
3, 32880, Note_on_c, 1, 74, 70
3, 32880, Note_on_c, 1, 77, 70
3, 32970, Note_off_c, 1, 77, 64
3, 32970, Note_off_c, 1, 74, 64
3, 32970, Note_on_c, 1, 75, 70
3, 32970, Note_on_c, 1, 79, 70
3, 33000, Note_off_c, 1, 79, 64
3, 33000, Note_off_c, 1, 75, 64
3, 33000, Note_on_c, 1, 77, 70
3, 33000, Note_on_c, 1, 80, 70
3, 33090, Note_off_c, 1, 80, 64
3, 33090, Note_off_c, 1, 77, 64
3, 33090, Note_on_c, 1, 74, 70
3, 33090, Note_on_c, 1, 77, 70
3, 33120, Note_off_c, 1, 77, 64
3, 33120, Note_off_c, 1, 74, 64
3, 33120, Note_on_c, 1, 75, 70
3, 33120, Note_on_c, 1, 72, 70
3, 33216, Note_off_c, 1, 72, 64
3, 33216, Note_off_c, 1, 75, 64
3, 33600, Note_on_c, 1, 77, 70
3, 33600, Note_on_c, 1, 74, 70
3, 33840, Note_off_c, 1, 74, 64
3, 33840, Note_off_c, 1, 77, 64
3, 33840, Note_on_c, 1, 79, 70
3, 33840, Note_on_c, 1, 75, 70
3, 33930, Note_off_c, 1, 75, 64
3, 33930, Note_off_c, 1, 79, 64
3, 33930, Note_on_c, 1, 77, 70
3, 33930, Note_on_c, 1, 80, 70
3, 33960, Note_off_c, 1, 80, 64
3, 33960, Note_off_c, 1, 77, 64
3, 33960, Note_on_c, 1, 82, 70
3, 33960, Note_on_c, 1, 79, 70
3, 34050, Note_off_c, 1, 79, 64
3, 34050, Note_off_c, 1, 82, 64
3, 34050, Note_on_c, 1, 75, 70
3, 34050, Note_on_c, 1, 79, 70
3, 34080, Note_off_c, 1, 79, 64
3, 34080, Note_off_c, 1, 75, 64
3, 34080, Note_on_c, 1, 77, 70
3, 34080, Note_on_c, 1, 74, 70
3, 34176, Note_off_c, 1, 74, 64
3, 34176, Note_off_c, 1, 77, 64
3, 35040, Note_on_c, 1, 79, 92
3, 35040, Note_on_c, 1, 70, 92
3, 35076, Note_off_c, 1, 70, 64
3, 35076, Note_off_c, 1, 79, 64
3, 35100, Note_on_c, 1, 79, 92
3, 35100, Note_on_c, 1, 70, 92
3, 35136, Note_off_c, 1, 70, 64
3, 35136, Note_off_c, 1, 79, 64
3, 35160, Note_on_c, 1, 79, 92
3, 35160, Note_on_c, 1, 70, 92
3, 35196, Note_off_c, 1, 70, 64
3, 35196, Note_off_c, 1, 79, 64
3, 35220, Note_on_c, 1, 70, 92
3, 35220, Note_on_c, 1, 79, 92
3, 35256, Note_off_c, 1, 79, 64
3, 35256, Note_off_c, 1, 70, 64
3, 35280, Note_on_c, 1, 77, 92
3, 35280, Note_on_c, 1, 68, 92
3, 35316, Note_off_c, 1, 68, 64
3, 35316, Note_off_c, 1, 77, 64
3, 35340, Note_on_c, 1, 77, 92
3, 35340, Note_on_c, 1, 68, 92
3, 35376, Note_off_c, 1, 68, 64
3, 35376, Note_off_c, 1, 77, 64
3, 35400, Note_on_c, 1, 77, 92
3, 35400, Note_on_c, 1, 68, 92
3, 35436, Note_off_c, 1, 68, 64
3, 35436, Note_off_c, 1, 77, 64
3, 35460, Note_on_c, 1, 77, 92
3, 35460, Note_on_c, 1, 68, 92
3, 35496, Note_off_c, 1, 68, 64
3, 35496, Note_off_c, 1, 77, 64
3, 35520, Note_on_c, 1, 77, 92
3, 35520, Note_on_c, 1, 68, 92
3, 35556, Note_off_c, 1, 68, 64
3, 35556, Note_off_c, 1, 77, 64
3, 35580, Note_on_c, 1, 77, 92
3, 35580, Note_on_c, 1, 68, 92
3, 35616, Note_off_c, 1, 68, 64
3, 35616, Note_off_c, 1, 77, 64
3, 35640, Note_on_c, 1, 68, 92
3, 35640, Note_on_c, 1, 77, 92
3, 35676, Note_off_c, 1, 77, 64
3, 35676, Note_off_c, 1, 68, 64
3, 35700, Note_on_c, 1, 68, 92
3, 35700, Note_on_c, 1, 77, 92
3, 35736, Note_off_c, 1, 77, 64
3, 35736, Note_off_c, 1, 68, 64
3, 35760, Note_on_c, 1, 75, 92
3, 35760, Note_on_c, 1, 67, 92
3, 35796, Note_off_c, 1, 67, 64
3, 35796, Note_off_c, 1, 75, 64
3, 35820, Note_on_c, 1, 67, 92
3, 35820, Note_on_c, 1, 75, 92
3, 35856, Note_off_c, 1, 75, 64
3, 35856, Note_off_c, 1, 67, 64
3, 35880, Note_on_c, 1, 67, 92
3, 35880, Note_on_c, 1, 75, 92
3, 35916, Note_off_c, 1, 75, 64
3, 35916, Note_off_c, 1, 67, 64
3, 35940, Note_on_c, 1, 67, 92
3, 35940, Note_on_c, 1, 75, 92
3, 35976, Note_off_c, 1, 75, 64
3, 35976, Note_off_c, 1, 67, 64
3, 36000, Note_on_c, 1, 75, 92
3, 36000, Note_on_c, 1, 67, 92
3, 36036, Note_off_c, 1, 67, 64
3, 36036, Note_off_c, 1, 75, 64
3, 36060, Note_on_c, 1, 67, 92
3, 36060, Note_on_c, 1, 75, 92
3, 36096, Note_off_c, 1, 75, 64
3, 36096, Note_off_c, 1, 67, 64
3, 36120, Note_on_c, 1, 75, 92
3, 36120, Note_on_c, 1, 67, 92
3, 36156, Note_off_c, 1, 67, 64
3, 36156, Note_off_c, 1, 75, 64
3, 36180, Note_on_c, 1, 67, 92
3, 36180, Note_on_c, 1, 75, 92
3, 36216, Note_off_c, 1, 75, 64
3, 36216, Note_off_c, 1, 67, 64
3, 36240, Note_on_c, 1, 65, 92
3, 36240, Note_on_c, 1, 74, 92
3, 36276, Note_off_c, 1, 74, 64
3, 36276, Note_off_c, 1, 65, 64
3, 36300, Note_on_c, 1, 65, 92
3, 36300, Note_on_c, 1, 74, 92
3, 36336, Note_off_c, 1, 74, 64
3, 36336, Note_off_c, 1, 65, 64
3, 36360, Note_on_c, 1, 65, 92
3, 36360, Note_on_c, 1, 74, 92
3, 36396, Note_off_c, 1, 74, 64
3, 36396, Note_off_c, 1, 65, 64
3, 36420, Note_on_c, 1, 65, 92
3, 36420, Note_on_c, 1, 74, 92
3, 36456, Note_off_c, 1, 74, 64
3, 36456, Note_off_c, 1, 65, 64
3, 36480, Note_on_c, 1, 74, 92
3, 36480, Note_on_c, 1, 65, 92
3, 36516, Note_off_c, 1, 65, 64
3, 36516, Note_off_c, 1, 74, 64
3, 36540, Note_on_c, 1, 74, 92
3, 36540, Note_on_c, 1, 65, 92
3, 36576, Note_off_c, 1, 65, 64
3, 36576, Note_off_c, 1, 74, 64
3, 36600, Note_on_c, 1, 65, 92
3, 36600, Note_on_c, 1, 74, 92
3, 36636, Note_off_c, 1, 74, 64
3, 36636, Note_off_c, 1, 65, 64
3, 36660, Note_on_c, 1, 65, 92
3, 36660, Note_on_c, 1, 74, 92
3, 36696, Note_off_c, 1, 74, 64
3, 36696, Note_off_c, 1, 65, 64
3, 36720, Note_on_c, 1, 72, 92
3, 36720, Note_on_c, 1, 63, 92
3, 36756, Note_off_c, 1, 63, 64
3, 36756, Note_off_c, 1, 72, 64
3, 36780, Note_on_c, 1, 72, 92
3, 36780, Note_on_c, 1, 63, 92
3, 36816, Note_off_c, 1, 63, 64
3, 36816, Note_off_c, 1, 72, 64
3, 36840, Note_on_c, 1, 63, 92
3, 36840, Note_on_c, 1, 72, 92
3, 36876, Note_off_c, 1, 72, 64
3, 36876, Note_off_c, 1, 63, 64
3, 36900, Note_on_c, 1, 63, 92
3, 36900, Note_on_c, 1, 72, 92
3, 36936, Note_off_c, 1, 72, 64
3, 36936, Note_off_c, 1, 63, 64
3, 38880, Note_on_c, 1, 75, 70
3, 38970, Note_off_c, 1, 75, 64
3, 39000, Note_on_c, 1, 75, 70
3, 39090, Note_off_c, 1, 75, 64
3, 39120, Note_on_c, 1, 75, 70
3, 39210, Note_off_c, 1, 75, 64
3, 39240, Note_on_c, 1, 75, 70
3, 39330, Note_off_c, 1, 75, 64
3, 39360, Note_on_c, 1, 75, 70
3, 39420, Note_off_c, 1, 75, 64
3, 39420, Note_on_c, 1, 74, 70
3, 39480, Note_off_c, 1, 74, 64
3, 39480, Note_on_c, 1, 75, 70
3, 39540, Note_off_c, 1, 75, 64
3, 39540, Note_on_c, 1, 77, 70
3, 39600, Note_off_c, 1, 77, 64
3, 39600, Note_on_c, 1, 75, 70
3, 39660, Note_off_c, 1, 75, 64
3, 39660, Note_on_c, 1, 74, 70
3, 39720, Note_off_c, 1, 74, 64
3, 39720, Note_on_c, 1, 72, 70
3, 39780, Note_off_c, 1, 72, 64
3, 39780, Note_on_c, 1, 70, 70
3, 39828, Note_off_c, 1, 70, 64
3, 39840, Note_on_c, 1, 75, 58
3, 39930, Note_off_c, 1, 75, 64
3, 39960, Note_on_c, 1, 75, 58
3, 40050, Note_off_c, 1, 75, 64
3, 40080, Note_on_c, 1, 75, 58
3, 40170, Note_off_c, 1, 75, 64
3, 40200, Note_on_c, 1, 75, 58
3, 40290, Note_off_c, 1, 75, 64
3, 40320, Note_on_c, 1, 75, 58
3, 40380, Note_off_c, 1, 75, 64
3, 40380, Note_on_c, 1, 74, 58
3, 40440, Note_off_c, 1, 74, 64
3, 40440, Note_on_c, 1, 75, 58
3, 40500, Note_off_c, 1, 75, 64
3, 40500, Note_on_c, 1, 77, 58
3, 40560, Note_off_c, 1, 77, 64
3, 40560, Note_on_c, 1, 75, 58
3, 40620, Note_off_c, 1, 75, 64
3, 40620, Note_on_c, 1, 74, 58
3, 40680, Note_off_c, 1, 74, 64
3, 40680, Note_on_c, 1, 72, 58
3, 40740, Note_off_c, 1, 72, 64
3, 40740, Note_on_c, 1, 70, 58
3, 40788, Note_off_c, 1, 70, 64
3, 42720, Note_on_c, 1, 75, 70
3, 42810, Note_off_c, 1, 75, 64
3, 42840, Note_on_c, 1, 75, 70
3, 42930, Note_off_c, 1, 75, 64
3, 42960, Note_on_c, 1, 75, 70
3, 43050, Note_off_c, 1, 75, 64
3, 43080, Note_on_c, 1, 75, 70
3, 43170, Note_off_c, 1, 75, 64
3, 43200, Note_on_c, 1, 75, 70
3, 43260, Note_off_c, 1, 75, 64
3, 43260, Note_on_c, 1, 74, 70
3, 43320, Note_off_c, 1, 74, 64
3, 43320, Note_on_c, 1, 75, 70
3, 43380, Note_off_c, 1, 75, 64
3, 43380, Note_on_c, 1, 77, 70
3, 43440, Note_off_c, 1, 77, 64
3, 43440, Note_on_c, 1, 75, 70
3, 43500, Note_off_c, 1, 75, 64
3, 43500, Note_on_c, 1, 74, 70
3, 43560, Note_off_c, 1, 74, 64
3, 43560, Note_on_c, 1, 72, 70
3, 43620, Note_off_c, 1, 72, 64
3, 43620, Note_on_c, 1, 70, 70
3, 43668, Note_off_c, 1, 70, 64
3, 43680, Note_on_c, 1, 70, 58
3, 43860, Note_off_c, 1, 70, 64
3, 43860, Note_on_c, 1, 72, 58
3, 43890, Note_off_c, 1, 72, 64
3, 43890, Note_on_c, 1, 74, 58
3, 43920, Note_off_c, 1, 74, 64
3, 43920, Note_on_c, 1, 75, 58
3, 44016, Note_off_c, 1, 75, 64
3, 44160, Note_on_c, 1, 69, 70
3, 44160, Note_on_c, 1, 72, 70
3, 44232, Note_off_c, 1, 72, 64
3, 44232, Note_off_c, 1, 69, 64
3, 44280, Note_on_c, 1, 81, 70
3, 44400, Note_off_c, 1, 81, 64
3, 44400, Note_on_c, 1, 82, 70
3, 44472, Note_off_c, 1, 82, 64
3, 44520, Note_on_c, 1, 73, 70
3, 44520, Note_on_c, 1, 70, 70
3, 44592, Note_off_c, 1, 70, 64
3, 44592, Note_off_c, 1, 73, 64
3, 44640, Note_on_c, 1, 70, 70
3, 44640, Note_on_c, 1, 67, 70
3, 44712, Note_off_c, 1, 67, 64
3, 44712, Note_off_c, 1, 70, 64
3, 44760, Note_on_c, 1, 79, 70
3, 44880, Note_off_c, 1, 79, 64
3, 44880, Note_on_c, 1, 80, 70
3, 44952, Note_off_c, 1, 80, 64
3, 45000, Note_on_c, 1, 68, 70
3, 45000, Note_on_c, 1, 72, 70
3, 45072, Note_off_c, 1, 72, 64
3, 45072, Note_off_c, 1, 68, 64
3, 45120, Note_on_c, 1, 68, 70
3, 45120, Note_on_c, 1, 65, 70
3, 45192, Note_off_c, 1, 65, 64
3, 45192, Note_off_c, 1, 68, 64
3, 45240, Note_on_c, 1, 77, 70
3, 45360, Note_off_c, 1, 77, 64
3, 45360, Note_on_c, 1, 79, 70
3, 45432, Note_off_c, 1, 79, 64
3, 45480, Note_on_c, 1, 70, 70
3, 45480, Note_on_c, 1, 63, 70
3, 45552, Note_off_c, 1, 63, 64
3, 45552, Note_off_c, 1, 70, 64
3, 45600, Note_on_c, 1, 68, 58
3, 45600, Note_on_c, 1, 63, 58
3, 45696, Note_off_c, 1, 63, 64
3, 45696, Note_off_c, 1, 68, 64
3, 47520, Note_on_c, 1, 72, 70
3, 47760, Note_off_c, 1, 72, 64
3, 47760, Note_on_c, 1, 73, 70
3, 47850, Note_off_c, 1, 73, 64
3, 47850, Note_on_c, 1, 75, 70
3, 47880, Note_off_c, 1, 75, 64
3, 47880, Note_on_c, 1, 77, 70
3, 47970, Note_off_c, 1, 77, 64
3, 47970, Note_on_c, 1, 73, 70
3, 48000, Note_off_c, 1, 73, 64
3, 48000, Note_on_c, 1, 72, 70
3, 48096, Note_off_c, 1, 72, 64
3, 48240, Note_on_c, 1, 68, 70
3, 48330, Note_off_c, 1, 68, 64
3, 48330, Note_on_c, 1, 67, 70
3, 48360, Note_off_c, 1, 67, 64
3, 48360, Note_on_c, 1, 70, 70
3, 48450, Note_off_c, 1, 70, 64
3, 48450, Note_on_c, 1, 68, 70
3, 48480, Note_off_c, 1, 68, 64
3, 48480, Note_on_c, 1, 72, 70
3, 48570, Note_off_c, 1, 72, 64
3, 48570, Note_on_c, 1, 70, 70
3, 48600, Note_off_c, 1, 70, 64
3, 48600, Note_on_c, 1, 74, 70
3, 48690, Note_off_c, 1, 74, 64
3, 48690, Note_on_c, 1, 72, 70
3, 48720, Note_off_c, 1, 72, 64
3, 48720, Note_on_c, 1, 75, 70
3, 48792, Note_off_c, 1, 75, 64
3, 48840, Note_on_c, 1, 70, 70
3, 48912, Note_off_c, 1, 70, 64
3, 48960, Note_on_c, 1, 70, 70
3, 49200, Note_off_c, 1, 70, 64
3, 49200, Note_on_c, 1, 63, 58
3, 49296, Note_off_c, 1, 63, 64
3, 49920, Note_on_c, 1, 70, 58
3, 49953, Note_off_c, 1, 70, 64
3, 49980, Note_on_c, 1, 68, 58
3, 50013, Note_off_c, 1, 68, 64
3, 50040, Note_on_c, 1, 67, 58
3, 50073, Note_off_c, 1, 67, 64
3, 50100, Note_on_c, 1, 65, 58
3, 50133, Note_off_c, 1, 65, 64
3, 50160, Note_on_c, 1, 63, 58
3, 50193, Note_off_c, 1, 63, 64
3, 50220, Note_on_c, 1, 61, 58
3, 50253, Note_off_c, 1, 61, 64
3, 50280, Note_on_c, 1, 60, 58
3, 50313, Note_off_c, 1, 60, 64
3, 50340, Note_on_c, 1, 58, 58
3, 50373, Note_off_c, 1, 58, 64
3, 50400, Note_on_c, 1, 56, 58
3, 50496, Note_off_c, 1, 56, 64
3, 50880, Note_on_c, 1, 72, 58
3, 50913, Note_off_c, 1, 72, 64
3, 50940, Note_on_c, 1, 70, 58
3, 50973, Note_off_c, 1, 70, 64
3, 51000, Note_on_c, 1, 68, 58
3, 51033, Note_off_c, 1, 68, 64
3, 51060, Note_on_c, 1, 67, 58
3, 51093, Note_off_c, 1, 67, 64
3, 51120, Note_on_c, 1, 65, 58
3, 51153, Note_off_c, 1, 65, 64
3, 51180, Note_on_c, 1, 63, 58
3, 51213, Note_off_c, 1, 63, 64
3, 51240, Note_on_c, 1, 61, 58
3, 51273, Note_off_c, 1, 61, 64
3, 51300, Note_on_c, 1, 60, 58
3, 51333, Note_off_c, 1, 60, 64
3, 51360, Note_on_c, 1, 58, 58
3, 51456, Note_off_c, 1, 58, 64
3, 51840, Note_on_c, 1, 73, 58
3, 51873, Note_off_c, 1, 73, 64
3, 51900, Note_on_c, 1, 72, 58
3, 51933, Note_off_c, 1, 72, 64
3, 51960, Note_on_c, 1, 70, 58
3, 51993, Note_off_c, 1, 70, 64
3, 52020, Note_on_c, 1, 68, 58
3, 52053, Note_off_c, 1, 68, 64
3, 52080, Note_on_c, 1, 67, 58
3, 52113, Note_off_c, 1, 67, 64
3, 52140, Note_on_c, 1, 65, 58
3, 52173, Note_off_c, 1, 65, 64
3, 52200, Note_on_c, 1, 63, 58
3, 52233, Note_off_c, 1, 63, 64
3, 52260, Note_on_c, 1, 61, 58
3, 52293, Note_off_c, 1, 61, 64
3, 52320, Note_on_c, 1, 60, 58
3, 52416, Note_off_c, 1, 60, 64
3, 54720, Note_on_c, 1, 72, 70
3, 54960, Note_off_c, 1, 72, 64
3, 54960, Note_on_c, 1, 73, 70
3, 55050, Note_off_c, 1, 73, 64
3, 55050, Note_on_c, 1, 75, 70
3, 55080, Note_off_c, 1, 75, 64
3, 55080, Note_on_c, 1, 77, 70
3, 55170, Note_off_c, 1, 77, 64
3, 55170, Note_on_c, 1, 73, 70
3, 55200, Note_off_c, 1, 73, 64
3, 55200, Note_on_c, 1, 72, 70
3, 55296, Note_off_c, 1, 72, 64
3, 55440, Note_on_c, 1, 68, 70
3, 55530, Note_off_c, 1, 68, 64
3, 55530, Note_on_c, 1, 67, 70
3, 55560, Note_off_c, 1, 67, 64
3, 55560, Note_on_c, 1, 70, 70
3, 55650, Note_off_c, 1, 70, 64
3, 55650, Note_on_c, 1, 68, 70
3, 55680, Note_off_c, 1, 68, 64
3, 55680, Note_on_c, 1, 72, 70
3, 55770, Note_off_c, 1, 72, 64
3, 55770, Note_on_c, 1, 70, 70
3, 55800, Note_off_c, 1, 70, 64
3, 55800, Note_on_c, 1, 73, 70
3, 55890, Note_off_c, 1, 73, 64
3, 55890, Note_on_c, 1, 72, 70
3, 55920, Note_off_c, 1, 72, 64
3, 55920, Note_on_c, 1, 75, 70
3, 55992, Note_off_c, 1, 75, 64
3, 56040, Note_on_c, 1, 75, 70
3, 56112, Note_off_c, 1, 75, 64
3, 56160, Note_on_c, 1, 75, 70
3, 56400, Note_off_c, 1, 75, 64
3, 56400, Note_on_c, 1, 63, 58
3, 56496, Note_off_c, 1, 63, 64
3, 58080, Note_on_c, 1, 78, 58
3, 58320, Note_off_c, 1, 78, 64
3, 58320, Note_on_c, 1, 76, 58
3, 58380, Note_off_c, 1, 76, 64
3, 58380, Note_on_c, 1, 78, 58
3, 58440, Note_off_c, 1, 78, 64
3, 58440, Note_on_c, 1, 80, 58
3, 58500, Note_off_c, 1, 80, 64
3, 58500, Note_on_c, 1, 76, 58
3, 58548, Note_off_c, 1, 76, 64
3, 58560, Note_on_c, 1, 75, 58
3, 58632, Note_off_c, 1, 75, 64
3, 58680, Note_on_c, 1, 75, 58
3, 58752, Note_off_c, 1, 75, 64
3, 58800, Note_on_c, 1, 73, 58
3, 58872, Note_off_c, 1, 73, 64
3, 58920, Note_on_c, 1, 73, 58
3, 58992, Note_off_c, 1, 73, 64
3, 59040, Note_on_c, 1, 83, 92
3, 59040, Note_on_c, 1, 73, 92
3, 59496, Note_off_c, 1, 73, 64
3, 59496, Note_off_c, 1, 83, 64
3, 59520, Note_on_c, 1, 82, 92
3, 59520, Note_on_c, 1, 76, 92
3, 59976, Note_off_c, 1, 76, 64
3, 59976, Note_off_c, 1, 82, 64
3, 60000, Note_on_c, 1, 83, 92
3, 60000, Note_on_c, 1, 74, 92
3, 60456, Note_off_c, 1, 83, 64
3, 60480, Note_on_c, 1, 80, 92
3, 60936, Note_off_c, 1, 74, 64
3, 60936, Note_off_c, 1, 80, 64
3, 60960, Note_on_c, 1, 81, 92
3, 60960, Note_on_c, 1, 77, 92
3, 61416, Note_off_c, 1, 81, 64
3, 61440, Note_on_c, 1, 80, 92
3, 61896, Note_off_c, 1, 77, 64
3, 61896, Note_off_c, 1, 80, 64
3, 61920, Note_on_c, 1, 79, 92
3, 61920, Note_on_c, 1, 82, 92
3, 62376, Note_off_c, 1, 82, 64
3, 62376, Note_off_c, 1, 79, 64
3, 62400, Note_on_c, 1, 83, 92
3, 62400, Note_on_c, 1, 80, 92
3, 62592, Note_off_c, 1, 80, 64
3, 62592, Note_off_c, 1, 83, 64
3, 62640, Note_on_c, 1, 75, 92
3, 63120, Note_off_c, 1, 75, 64
3, 63120, Note_on_c, 1, 76, 92
3, 63240, Note_off_c, 1, 76, 64
3, 63240, Note_on_c, 1, 75, 92
3, 63480, Note_off_c, 1, 75, 64
3, 63480, Note_on_c, 1, 73, 92
3, 63540, Note_off_c, 1, 73, 64
3, 63540, Note_on_c, 1, 71, 92
3, 63600, Note_off_c, 1, 71, 64
3, 63600, Note_on_c, 1, 73, 92
3, 63720, Note_off_c, 1, 73, 64
3, 63720, Note_on_c, 1, 74, 92
3, 63840, Note_off_c, 1, 74, 64
3, 63840, Note_on_c, 1, 75, 92
3, 64080, Note_off_c, 1, 75, 64
3, 64080, Note_on_c, 1, 77, 92
3, 64080, Note_on_c, 1, 74, 92
3, 64320, Note_off_c, 1, 74, 64
3, 64320, Note_off_c, 1, 77, 64
3, 64320, Note_on_c, 1, 75, 92
3, 64320, Note_on_c, 1, 79, 92
3, 64560, Note_off_c, 1, 79, 64
3, 64560, Note_off_c, 1, 75, 64
3, 64560, Note_on_c, 1, 77, 92
3, 64560, Note_on_c, 1, 74, 92
3, 64800, Note_off_c, 1, 74, 64
3, 64800, Note_off_c, 1, 77, 64
3, 64800, Note_on_c, 1, 75, 92
3, 64800, Note_on_c, 1, 79, 92
3, 64896, Note_off_c, 1, 79, 64
3, 64896, Note_off_c, 1, 75, 64
3, 65280, Note_on_c, 1, 63, 70
3, 65280, Note_on_c, 1, 67, 70
3, 65520, Note_off_c, 1, 67, 64
3, 65520, Note_off_c, 1, 63, 64
3, 65520, Note_on_c, 1, 65, 70
3, 65520, Note_on_c, 1, 68, 70
3, 65610, Note_off_c, 1, 68, 64
3, 65610, Note_off_c, 1, 65, 64
3, 65610, Note_on_c, 1, 67, 70
3, 65610, Note_on_c, 1, 70, 70
3, 65640, Note_off_c, 1, 70, 64
3, 65640, Note_off_c, 1, 67, 64
3, 65640, Note_on_c, 1, 72, 70
3, 65640, Note_on_c, 1, 68, 70
3, 65730, Note_off_c, 1, 68, 64
3, 65730, Note_off_c, 1, 72, 64
3, 65730, Note_on_c, 1, 68, 70
3, 65730, Note_on_c, 1, 65, 70
3, 65760, Note_off_c, 1, 65, 64
3, 65760, Note_off_c, 1, 68, 64
3, 65760, Note_on_c, 1, 67, 70
3, 65760, Note_on_c, 1, 63, 70
3, 65856, Note_off_c, 1, 63, 64
3, 65856, Note_off_c, 1, 67, 64
3, 66240, Note_on_c, 1, 65, 70
3, 66240, Note_on_c, 1, 68, 70
3, 66480, Note_off_c, 1, 68, 64
3, 66480, Note_off_c, 1, 65, 64
3, 66480, Note_on_c, 1, 67, 70
3, 66480, Note_on_c, 1, 70, 70
3, 66570, Note_off_c, 1, 70, 64
3, 66570, Note_off_c, 1, 67, 64
3, 66570, Note_on_c, 1, 68, 70
3, 66570, Note_on_c, 1, 72, 70
3, 66600, Note_off_c, 1, 72, 64
3, 66600, Note_off_c, 1, 68, 64
3, 66600, Note_on_c, 1, 70, 70
3, 66600, Note_on_c, 1, 73, 70
3, 66690, Note_off_c, 1, 73, 64
3, 66690, Note_off_c, 1, 70, 64
3, 66690, Note_on_c, 1, 67, 70
3, 66690, Note_on_c, 1, 70, 70
3, 66720, Note_off_c, 1, 70, 64
3, 66720, Note_off_c, 1, 67, 64
3, 66720, Note_on_c, 1, 68, 70
3, 66720, Note_on_c, 1, 65, 70
3, 66816, Note_off_c, 1, 65, 64
3, 66816, Note_off_c, 1, 68, 64
3, 67200, Note_on_c, 1, 67, 70
3, 67200, Note_on_c, 1, 70, 70
3, 67440, Note_off_c, 1, 70, 64
3, 67440, Note_off_c, 1, 67, 64
3, 67440, Note_on_c, 1, 68, 70
3, 67440, Note_on_c, 1, 72, 70
3, 67530, Note_off_c, 1, 72, 64
3, 67530, Note_off_c, 1, 68, 64
3, 67530, Note_on_c, 1, 70, 70
3, 67530, Note_on_c, 1, 73, 70
3, 67560, Note_off_c, 1, 73, 64
3, 67560, Note_off_c, 1, 70, 64
3, 67560, Note_on_c, 1, 72, 70
3, 67560, Note_on_c, 1, 75, 70
3, 67650, Note_off_c, 1, 75, 64
3, 67650, Note_off_c, 1, 72, 64
3, 67650, Note_on_c, 1, 72, 70
3, 67650, Note_on_c, 1, 68, 70
3, 67680, Note_off_c, 1, 68, 64
3, 67680, Note_off_c, 1, 72, 64
3, 67680, Note_on_c, 1, 67, 70
3, 67680, Note_on_c, 1, 70, 70
3, 67776, Note_off_c, 1, 70, 64
3, 67776, Note_off_c, 1, 67, 64
3, 68640, Note_on_c, 1, 75, 92
3, 68676, Note_off_c, 1, 75, 64
3, 68700, Note_on_c, 1, 75, 92
3, 68736, Note_off_c, 1, 75, 64
3, 68760, Note_on_c, 1, 75, 92
3, 68796, Note_off_c, 1, 75, 64
3, 68820, Note_on_c, 1, 75, 92
3, 68856, Note_off_c, 1, 75, 64
3, 68880, Note_on_c, 1, 73, 92
3, 68916, Note_off_c, 1, 73, 64
3, 68940, Note_on_c, 1, 73, 92
3, 68976, Note_off_c, 1, 73, 64
3, 69000, Note_on_c, 1, 73, 92
3, 69036, Note_off_c, 1, 73, 64
3, 69060, Note_on_c, 1, 73, 92
3, 69096, Note_off_c, 1, 73, 64
3, 69120, Note_on_c, 1, 73, 92
3, 69156, Note_off_c, 1, 73, 64
3, 69180, Note_on_c, 1, 73, 92
3, 69216, Note_off_c, 1, 73, 64
3, 69240, Note_on_c, 1, 73, 92
3, 69276, Note_off_c, 1, 73, 64
3, 69300, Note_on_c, 1, 73, 92
3, 69336, Note_off_c, 1, 73, 64
3, 69360, Note_on_c, 1, 72, 92
3, 69396, Note_off_c, 1, 72, 64
3, 69420, Note_on_c, 1, 72, 92
3, 69456, Note_off_c, 1, 72, 64
3, 69480, Note_on_c, 1, 72, 92
3, 69516, Note_off_c, 1, 72, 64
3, 69540, Note_on_c, 1, 72, 92
3, 69576, Note_off_c, 1, 72, 64
3, 69600, Note_on_c, 1, 73, 92
3, 69636, Note_off_c, 1, 73, 64
3, 69660, Note_on_c, 1, 73, 92
3, 69696, Note_off_c, 1, 73, 64
3, 69720, Note_on_c, 1, 73, 92
3, 69756, Note_off_c, 1, 73, 64
3, 69780, Note_on_c, 1, 73, 92
3, 69816, Note_off_c, 1, 73, 64
3, 69840, Note_on_c, 1, 73, 92
3, 69876, Note_off_c, 1, 73, 64
3, 69900, Note_on_c, 1, 73, 92
3, 69936, Note_off_c, 1, 73, 64
3, 69960, Note_on_c, 1, 73, 92
3, 69996, Note_off_c, 1, 73, 64
3, 70020, Note_on_c, 1, 73, 92
3, 70056, Note_off_c, 1, 73, 64
3, 70080, Note_on_c, 1, 79, 92
3, 70116, Note_off_c, 1, 79, 64
3, 70140, Note_on_c, 1, 79, 92
3, 70176, Note_off_c, 1, 79, 64
3, 70200, Note_on_c, 1, 79, 92
3, 70236, Note_off_c, 1, 79, 64
3, 70260, Note_on_c, 1, 79, 92
3, 70296, Note_off_c, 1, 79, 64
3, 70320, Note_on_c, 1, 77, 92
3, 70356, Note_off_c, 1, 77, 64
3, 70380, Note_on_c, 1, 77, 92
3, 70416, Note_off_c, 1, 77, 64
3, 70440, Note_on_c, 1, 77, 92
3, 70476, Note_off_c, 1, 77, 64
3, 70500, Note_on_c, 1, 77, 92
3, 70536, Note_off_c, 1, 77, 64
3, 73440, Note_on_c, 1, 68, 70
3, 73530, Note_off_c, 1, 68, 64
3, 73560, Note_on_c, 1, 68, 70
3, 73650, Note_off_c, 1, 68, 64
3, 73680, Note_on_c, 1, 68, 70
3, 73770, Note_off_c, 1, 68, 64
3, 73800, Note_on_c, 1, 68, 70
3, 73890, Note_off_c, 1, 68, 64
3, 73920, Note_on_c, 1, 68, 70
3, 73980, Note_off_c, 1, 68, 64
3, 73980, Note_on_c, 1, 67, 70
3, 74040, Note_off_c, 1, 67, 64
3, 74040, Note_on_c, 1, 68, 70
3, 74100, Note_off_c, 1, 68, 64
3, 74100, Note_on_c, 1, 70, 70
3, 74160, Note_off_c, 1, 70, 64
3, 74160, Note_on_c, 1, 68, 70
3, 74220, Note_off_c, 1, 68, 64
3, 74220, Note_on_c, 1, 67, 70
3, 74280, Note_off_c, 1, 67, 64
3, 74280, Note_on_c, 1, 65, 70
3, 74340, Note_off_c, 1, 65, 64
3, 74340, Note_on_c, 1, 63, 70
3, 74388, Note_off_c, 1, 63, 64
3, 74400, Note_on_c, 1, 80, 58
3, 74490, Note_off_c, 1, 80, 64
3, 74520, Note_on_c, 1, 80, 58
3, 74610, Note_off_c, 1, 80, 64
3, 74640, Note_on_c, 1, 80, 58
3, 74730, Note_off_c, 1, 80, 64
3, 74760, Note_on_c, 1, 80, 58
3, 74850, Note_off_c, 1, 80, 64
3, 74880, Note_on_c, 1, 80, 58
3, 74940, Note_off_c, 1, 80, 64
3, 74940, Note_on_c, 1, 79, 58
3, 75000, Note_off_c, 1, 79, 64
3, 75000, Note_on_c, 1, 80, 58
3, 75060, Note_off_c, 1, 80, 64
3, 75060, Note_on_c, 1, 82, 58
3, 75120, Note_off_c, 1, 82, 64
3, 75120, Note_on_c, 1, 80, 58
3, 75180, Note_off_c, 1, 80, 64
3, 75180, Note_on_c, 1, 79, 58
3, 75240, Note_off_c, 1, 79, 64
3, 75240, Note_on_c, 1, 77, 58
3, 75300, Note_off_c, 1, 77, 64
3, 75300, Note_on_c, 1, 75, 58
3, 75348, Note_off_c, 1, 75, 64
3, 77760, Note_on_c, 1, 73, 70
3, 77850, Note_off_c, 1, 73, 64
3, 77880, Note_on_c, 1, 73, 70
3, 77970, Note_off_c, 1, 73, 64
3, 78000, Note_on_c, 1, 73, 70
3, 78090, Note_off_c, 1, 73, 64
3, 78120, Note_on_c, 1, 73, 70
3, 78210, Note_off_c, 1, 73, 64
3, 78240, Note_on_c, 1, 73, 70
3, 78300, Note_off_c, 1, 73, 64
3, 78300, Note_on_c, 1, 72, 70
3, 78360, Note_off_c, 1, 72, 64
3, 78360, Note_on_c, 1, 73, 70
3, 78420, Note_off_c, 1, 73, 64
3, 78420, Note_on_c, 1, 75, 70
3, 78480, Note_off_c, 1, 75, 64
3, 78480, Note_on_c, 1, 73, 70
3, 78540, Note_off_c, 1, 73, 64
3, 78540, Note_on_c, 1, 72, 70
3, 78600, Note_off_c, 1, 72, 64
3, 78600, Note_on_c, 1, 70, 70
3, 78660, Note_off_c, 1, 70, 64
3, 78660, Note_on_c, 1, 68, 70
3, 78708, Note_off_c, 1, 68, 64
3, 78720, Note_on_c, 1, 69, 70
3, 78810, Note_off_c, 1, 69, 64
3, 78840, Note_on_c, 1, 77, 70
3, 78930, Note_off_c, 1, 77, 64
3, 79080, Note_on_c, 1, 77, 70
3, 79176, Note_off_c, 1, 77, 64
3, 79320, Note_on_c, 1, 75, 70
3, 79416, Note_off_c, 1, 75, 64
3, 79560, Note_on_c, 1, 75, 70
3, 79656, Note_off_c, 1, 75, 64
3, 79680, Note_on_c, 1, 80, 70
3, 79740, Note_off_c, 1, 80, 64
3, 79740, Note_on_c, 1, 79, 70
3, 79800, Note_off_c, 1, 79, 64
3, 79800, Note_on_c, 1, 77, 70
3, 79860, Note_off_c, 1, 77, 64
3, 79860, Note_on_c, 1, 75, 70
3, 79920, Note_off_c, 1, 75, 64
3, 79920, Note_on_c, 1, 74, 70
3, 79980, Note_off_c, 1, 74, 64
3, 79980, Note_on_c, 1, 72, 70
3, 80040, Note_off_c, 1, 72, 64
3, 80040, Note_on_c, 1, 70, 70
3, 80100, Note_off_c, 1, 70, 64
3, 80100, Note_on_c, 1, 68, 70
3, 80148, Note_off_c, 1, 68, 64
3, 80160, Note_on_c, 1, 67, 58
3, 80256, Note_off_c, 1, 67, 64
3, 81120, Note_on_c, 1, 79, 70
3, 81180, Note_off_c, 1, 79, 64
3, 81180, Note_on_c, 1, 78, 70
3, 81240, Note_off_c, 1, 78, 64
3, 81240, Note_on_c, 1, 79, 70
3, 81300, Note_off_c, 1, 79, 64
3, 81300, Note_on_c, 1, 80, 70
3, 81360, Note_off_c, 1, 80, 64
3, 81360, Note_on_c, 1, 77, 70
3, 81420, Note_off_c, 1, 77, 64
3, 81420, Note_on_c, 1, 76, 70
3, 81480, Note_off_c, 1, 76, 64
3, 81480, Note_on_c, 1, 77, 70
3, 81540, Note_off_c, 1, 77, 64
3, 81540, Note_on_c, 1, 79, 70
3, 81600, Note_off_c, 1, 79, 64
3, 81600, Note_on_c, 1, 75, 70
3, 81660, Note_off_c, 1, 75, 64
3, 81660, Note_on_c, 1, 74, 70
3, 81720, Note_off_c, 1, 74, 64
3, 81720, Note_on_c, 1, 75, 70
3, 81780, Note_off_c, 1, 75, 64
3, 81780, Note_on_c, 1, 77, 70
3, 81840, Note_off_c, 1, 77, 64
3, 81840, Note_on_c, 1, 73, 70
3, 81900, Note_off_c, 1, 73, 64
3, 81900, Note_on_c, 1, 72, 70
3, 81960, Note_off_c, 1, 72, 64
3, 81960, Note_on_c, 1, 73, 70
3, 82020, Note_off_c, 1, 73, 64
3, 82020, Note_on_c, 1, 75, 70
3, 82080, Note_off_c, 1, 75, 64
3, 82080, Note_on_c, 1, 72, 58
3, 82176, Note_off_c, 1, 72, 64
3, 84000, Note_on_c, 1, 72, 70
3, 84240, Note_off_c, 1, 72, 64
3, 84240, Note_on_c, 1, 73, 70
3, 84330, Note_off_c, 1, 73, 64
3, 84330, Note_on_c, 1, 75, 70
3, 84360, Note_off_c, 1, 75, 64
3, 84360, Note_on_c, 1, 77, 70
3, 84450, Note_off_c, 1, 77, 64
3, 84450, Note_on_c, 1, 73, 70
3, 84480, Note_off_c, 1, 73, 64
3, 84480, Note_on_c, 1, 72, 70
3, 84576, Note_off_c, 1, 72, 64
3, 84720, Note_on_c, 1, 68, 70
3, 84810, Note_off_c, 1, 68, 64
3, 84810, Note_on_c, 1, 67, 70
3, 84840, Note_off_c, 1, 67, 64
3, 84840, Note_on_c, 1, 70, 70
3, 84930, Note_off_c, 1, 70, 64
3, 84930, Note_on_c, 1, 68, 70
3, 84960, Note_off_c, 1, 68, 64
3, 84960, Note_on_c, 1, 72, 70
3, 85050, Note_off_c, 1, 72, 64
3, 85050, Note_on_c, 1, 70, 70
3, 85080, Note_off_c, 1, 70, 64
3, 85080, Note_on_c, 1, 73, 70
3, 85170, Note_off_c, 1, 73, 64
3, 85170, Note_on_c, 1, 72, 70
3, 85200, Note_off_c, 1, 72, 64
3, 85200, Note_on_c, 1, 75, 70
3, 85272, Note_off_c, 1, 75, 64
3, 85320, Note_on_c, 1, 75, 70
3, 85392, Note_off_c, 1, 75, 64
3, 86760, Note_on_c, 1, 75, 58
3, 86856, Note_off_c, 1, 75, 64
3, 86880, Note_on_c, 1, 75, 58
3, 87240, Note_off_c, 1, 75, 64
3, 87240, Note_on_c, 1, 74, 58
3, 87354, Note_off_c, 1, 74, 64
3, 87360, Note_on_c, 1, 73, 58
3, 87720, Note_off_c, 1, 73, 64
3, 87720, Note_on_c, 1, 72, 58
3, 87900, Note_off_c, 1, 72, 64
3, 87900, Note_on_c, 1, 70, 58
3, 87960, Note_off_c, 1, 70, 64
3, 87960, Note_on_c, 1, 76, 58
3, 88020, Note_off_c, 1, 76, 64
3, 88020, Note_on_c, 1, 77, 58
3, 88080, Note_off_c, 1, 77, 64
3, 88080, Note_on_c, 1, 75, 58
3, 88140, Note_off_c, 1, 75, 64
3, 88140, Note_on_c, 1, 73, 58
3, 88200, Note_off_c, 1, 73, 64
3, 88200, Note_on_c, 1, 72, 58
3, 88260, Note_off_c, 1, 72, 64
3, 88260, Note_on_c, 1, 70, 58
3, 88308, Note_off_c, 1, 70, 64
3, 88320, Note_on_c, 1, 68, 58
3, 88680, Note_off_c, 1, 68, 64
3, 88680, Note_on_c, 1, 72, 58
3, 88740, Note_off_c, 1, 72, 64
3, 88740, Note_on_c, 1, 70, 58
3, 88800, Note_off_c, 1, 70, 64
3, 88800, Note_on_c, 1, 68, 58
3, 88896, Note_off_c, 1, 68, 64
3, 89280, Note_on_c, 1, 68, 70
3, 89370, Note_off_c, 1, 68, 64
3, 89370, Note_on_c, 1, 67, 70
3, 89400, Note_off_c, 1, 67, 64
3, 89400, Note_on_c, 1, 70, 70
3, 89490, Note_off_c, 1, 70, 64
3, 89490, Note_on_c, 1, 68, 70
3, 89520, Note_off_c, 1, 68, 64
3, 89520, Note_on_c, 1, 73, 70
3, 89610, Note_off_c, 1, 73, 64
3, 89610, Note_on_c, 1, 72, 70
3, 89640, Note_off_c, 1, 72, 64
3, 89640, Note_on_c, 1, 75, 70
3, 89736, Note_off_c, 1, 75, 64
3, 89760, Note_on_c, 1, 68, 105
3, 89850, Note_off_c, 1, 68, 64
3, 89850, Note_on_c, 1, 67, 105
3, 89880, Note_off_c, 1, 67, 64
3, 89880, Note_on_c, 1, 70, 105
3, 89970, Note_off_c, 1, 70, 64
3, 89970, Note_on_c, 1, 68, 105
3, 90000, Note_off_c, 1, 68, 64
3, 90000, Note_on_c, 1, 73, 105
3, 90090, Note_off_c, 1, 73, 64
3, 90090, Note_on_c, 1, 72, 105
3, 90120, Note_off_c, 1, 72, 64
3, 90120, Note_on_c, 1, 75, 105
3, 90180, Note_off_c, 1, 75, 64
3, 90240, Note_on_c, 1, 68, 105
3, 90336, Note_off_c, 1, 68, 64
3, 90336, End_track
4, 0, Start_track
4, 0, Program_c, 1, 71
4, 0, Control_c, 1, 7, 89
4, 0, Control_c, 1, 91, 80
4, 0, Control_c, 1, 10, 64
4, 26400, Note_on_c, 1, 70, 58
4, 26494, Note_off_c, 1, 70, 64
4, 26520, Note_on_c, 1, 70, 58
4, 26614, Note_off_c, 1, 70, 64
4, 26640, Note_on_c, 1, 70, 58
4, 26734, Note_off_c, 1, 70, 64
4, 26760, Note_on_c, 1, 70, 58
4, 26854, Note_off_c, 1, 70, 64
4, 26880, Note_on_c, 1, 70, 58
4, 27360, Note_off_c, 1, 70, 64
4, 27360, Note_on_c, 1, 68, 58
4, 27552, Note_off_c, 1, 68, 64
4, 39360, Note_on_c, 1, 68, 70
4, 39450, Note_off_c, 1, 68, 64
4, 39480, Note_on_c, 1, 68, 70
4, 39570, Note_off_c, 1, 68, 64
4, 39600, Note_on_c, 1, 68, 70
4, 39690, Note_off_c, 1, 68, 64
4, 39720, Note_on_c, 1, 68, 70
4, 39810, Note_off_c, 1, 68, 64
4, 39840, Note_on_c, 1, 68, 70
4, 39900, Note_off_c, 1, 68, 64
4, 39900, Note_on_c, 1, 67, 70
4, 39960, Note_off_c, 1, 67, 64
4, 39960, Note_on_c, 1, 68, 70
4, 40020, Note_off_c, 1, 68, 64
4, 40020, Note_on_c, 1, 70, 70
4, 40080, Note_off_c, 1, 70, 64
4, 40080, Note_on_c, 1, 68, 70
4, 40140, Note_off_c, 1, 68, 64
4, 40140, Note_on_c, 1, 67, 70
4, 40200, Note_off_c, 1, 67, 64
4, 40200, Note_on_c, 1, 65, 70
4, 40260, Note_off_c, 1, 65, 64
4, 40260, Note_on_c, 1, 63, 70
4, 40308, Note_off_c, 1, 63, 64
4, 40320, Note_on_c, 1, 68, 58
4, 40410, Note_off_c, 1, 68, 64
4, 40440, Note_on_c, 1, 68, 58
4, 40530, Note_off_c, 1, 68, 64
4, 40560, Note_on_c, 1, 68, 58
4, 40650, Note_off_c, 1, 68, 64
4, 40680, Note_on_c, 1, 68, 58
4, 40770, Note_off_c, 1, 68, 64
4, 42240, Note_on_c, 1, 68, 70
4, 42330, Note_off_c, 1, 68, 64
4, 42360, Note_on_c, 1, 68, 70
4, 42450, Note_off_c, 1, 68, 64
4, 42480, Note_on_c, 1, 68, 70
4, 42570, Note_off_c, 1, 68, 64
4, 42600, Note_on_c, 1, 68, 70
4, 42690, Note_off_c, 1, 68, 64
4, 42720, Note_on_c, 1, 68, 70
4, 42780, Note_off_c, 1, 68, 64
4, 42780, Note_on_c, 1, 67, 70
4, 42840, Note_off_c, 1, 67, 64
4, 42840, Note_on_c, 1, 68, 70
4, 42900, Note_off_c, 1, 68, 64
4, 42900, Note_on_c, 1, 70, 70
4, 42960, Note_off_c, 1, 70, 64
4, 42960, Note_on_c, 1, 68, 70
4, 43020, Note_off_c, 1, 68, 64
4, 43020, Note_on_c, 1, 67, 70
4, 43080, Note_off_c, 1, 67, 64
4, 43080, Note_on_c, 1, 65, 70
4, 43140, Note_off_c, 1, 65, 64
4, 43140, Note_on_c, 1, 63, 70
4, 43188, Note_off_c, 1, 63, 64
4, 43200, Note_on_c, 1, 65, 58
4, 43380, Note_off_c, 1, 65, 64
4, 43380, Note_on_c, 1, 67, 58
4, 43410, Note_off_c, 1, 67, 64
4, 43410, Note_on_c, 1, 68, 58
4, 43440, Note_off_c, 1, 68, 64
4, 43440, Note_on_c, 1, 70, 58
4, 43536, Note_off_c, 1, 70, 64
4, 47520, Note_on_c, 1, 63, 70
4, 47760, Note_off_c, 1, 63, 64
4, 47760, Note_on_c, 1, 65, 70
4, 47850, Note_off_c, 1, 65, 64
4, 47850, Note_on_c, 1, 67, 70
4, 47880, Note_off_c, 1, 67, 64
4, 47880, Note_on_c, 1, 68, 70
4, 47970, Note_off_c, 1, 68, 64
4, 47970, Note_on_c, 1, 65, 70
4, 48000, Note_off_c, 1, 65, 64
4, 48000, Note_on_c, 1, 63, 70
4, 48096, Note_off_c, 1, 63, 64
4, 49920, Note_on_c, 1, 67, 58
4, 49953, Note_off_c, 1, 67, 64
4, 49980, Note_on_c, 1, 65, 58
4, 50013, Note_off_c, 1, 65, 64
4, 50040, Note_on_c, 1, 63, 58
4, 50073, Note_off_c, 1, 63, 64
4, 50100, Note_on_c, 1, 61, 58
4, 50133, Note_off_c, 1, 61, 64
4, 50160, Note_on_c, 1, 60, 58
4, 50193, Note_off_c, 1, 60, 64
4, 50220, Note_on_c, 1, 58, 58
4, 50253, Note_off_c, 1, 58, 64
4, 50280, Note_on_c, 1, 56, 58
4, 50313, Note_off_c, 1, 56, 64
4, 50340, Note_on_c, 1, 55, 58
4, 50373, Note_off_c, 1, 55, 64
4, 50400, Note_on_c, 1, 53, 58
4, 50496, Note_off_c, 1, 53, 64
4, 50880, Note_on_c, 1, 68, 58
4, 50913, Note_off_c, 1, 68, 64
4, 50940, Note_on_c, 1, 67, 58
4, 50973, Note_off_c, 1, 67, 64
4, 51000, Note_on_c, 1, 65, 58
4, 51033, Note_off_c, 1, 65, 64
4, 51060, Note_on_c, 1, 63, 58
4, 51093, Note_off_c, 1, 63, 64
4, 51120, Note_on_c, 1, 61, 58
4, 51153, Note_off_c, 1, 61, 64
4, 51180, Note_on_c, 1, 60, 58
4, 51213, Note_off_c, 1, 60, 64
4, 51240, Note_on_c, 1, 58, 58
4, 51273, Note_off_c, 1, 58, 64
4, 51300, Note_on_c, 1, 56, 58
4, 51333, Note_off_c, 1, 56, 64
4, 51360, Note_on_c, 1, 55, 58
4, 51456, Note_off_c, 1, 55, 64
4, 51840, Note_on_c, 1, 70, 58
4, 51873, Note_off_c, 1, 70, 64
4, 51900, Note_on_c, 1, 68, 58
4, 51933, Note_off_c, 1, 68, 64
4, 51960, Note_on_c, 1, 67, 58
4, 51993, Note_off_c, 1, 67, 64
4, 52020, Note_on_c, 1, 65, 58
4, 52053, Note_off_c, 1, 65, 64
4, 52080, Note_on_c, 1, 63, 58
4, 52113, Note_off_c, 1, 63, 64
4, 52140, Note_on_c, 1, 61, 58
4, 52173, Note_off_c, 1, 61, 64
4, 52200, Note_on_c, 1, 60, 58
4, 52233, Note_off_c, 1, 60, 64
4, 52260, Note_on_c, 1, 58, 58
4, 52293, Note_off_c, 1, 58, 64
4, 52320, Note_on_c, 1, 56, 58
4, 52416, Note_off_c, 1, 56, 64
4, 54720, Note_on_c, 1, 63, 70
4, 54960, Note_off_c, 1, 63, 64
4, 54960, Note_on_c, 1, 65, 70
4, 55050, Note_off_c, 1, 65, 64
4, 55050, Note_on_c, 1, 67, 70
4, 55080, Note_off_c, 1, 67, 64
4, 55080, Note_on_c, 1, 68, 70
4, 55170, Note_off_c, 1, 68, 64
4, 55170, Note_on_c, 1, 65, 70
4, 55200, Note_off_c, 1, 65, 64
4, 55200, Note_on_c, 1, 63, 70
4, 55296, Note_off_c, 1, 63, 64
4, 68640, Note_on_c, 1, 72, 92
4, 68676, Note_off_c, 1, 72, 64
4, 68700, Note_on_c, 1, 72, 92
4, 68736, Note_off_c, 1, 72, 64
4, 68760, Note_on_c, 1, 72, 92
4, 68796, Note_off_c, 1, 72, 64
4, 68820, Note_on_c, 1, 72, 92
4, 68856, Note_off_c, 1, 72, 64
4, 68880, Note_on_c, 1, 70, 92
4, 68916, Note_off_c, 1, 70, 64
4, 68940, Note_on_c, 1, 70, 92
4, 68976, Note_off_c, 1, 70, 64
4, 69000, Note_on_c, 1, 70, 92
4, 69036, Note_off_c, 1, 70, 64
4, 69060, Note_on_c, 1, 70, 92
4, 69096, Note_off_c, 1, 70, 64
4, 69120, Note_on_c, 1, 70, 92
4, 69156, Note_off_c, 1, 70, 64
4, 69180, Note_on_c, 1, 70, 92
4, 69216, Note_off_c, 1, 70, 64
4, 69240, Note_on_c, 1, 70, 92
4, 69276, Note_off_c, 1, 70, 64
4, 69300, Note_on_c, 1, 70, 92
4, 69336, Note_off_c, 1, 70, 64
4, 69360, Note_on_c, 1, 68, 92
4, 69396, Note_off_c, 1, 68, 64
4, 69420, Note_on_c, 1, 68, 92
4, 69456, Note_off_c, 1, 68, 64
4, 69480, Note_on_c, 1, 68, 92
4, 69516, Note_off_c, 1, 68, 64
4, 69540, Note_on_c, 1, 68, 92
4, 69576, Note_off_c, 1, 68, 64
4, 69600, Note_on_c, 1, 72, 92
4, 69636, Note_off_c, 1, 72, 64
4, 69660, Note_on_c, 1, 72, 92
4, 69696, Note_off_c, 1, 72, 64
4, 69720, Note_on_c, 1, 72, 92
4, 69756, Note_off_c, 1, 72, 64
4, 69780, Note_on_c, 1, 72, 92
4, 69816, Note_off_c, 1, 72, 64
4, 69840, Note_on_c, 1, 70, 92
4, 69876, Note_off_c, 1, 70, 64
4, 69900, Note_on_c, 1, 70, 92
4, 69936, Note_off_c, 1, 70, 64
4, 69960, Note_on_c, 1, 70, 92
4, 69996, Note_off_c, 1, 70, 64
4, 70020, Note_on_c, 1, 70, 92
4, 70056, Note_off_c, 1, 70, 64
4, 70080, Note_on_c, 1, 72, 92
4, 70116, Note_off_c, 1, 72, 64
4, 70140, Note_on_c, 1, 72, 92
4, 70176, Note_off_c, 1, 72, 64
4, 70200, Note_on_c, 1, 72, 92
4, 70236, Note_off_c, 1, 72, 64
4, 70260, Note_on_c, 1, 72, 92
4, 70296, Note_off_c, 1, 72, 64
4, 70320, Note_on_c, 1, 72, 92
4, 70356, Note_off_c, 1, 72, 64
4, 70380, Note_on_c, 1, 72, 92
4, 70416, Note_off_c, 1, 72, 64
4, 70440, Note_on_c, 1, 72, 92
4, 70476, Note_off_c, 1, 72, 64
4, 70500, Note_on_c, 1, 72, 92
4, 70536, Note_off_c, 1, 72, 64
4, 73920, Note_on_c, 1, 73, 70
4, 74010, Note_off_c, 1, 73, 64
4, 74040, Note_on_c, 1, 73, 70
4, 74130, Note_off_c, 1, 73, 64
4, 74160, Note_on_c, 1, 73, 70
4, 74250, Note_off_c, 1, 73, 64
4, 74280, Note_on_c, 1, 73, 70
4, 74370, Note_off_c, 1, 73, 64
4, 74400, Note_on_c, 1, 73, 70
4, 74460, Note_off_c, 1, 73, 64
4, 74460, Note_on_c, 1, 72, 70
4, 74520, Note_off_c, 1, 72, 64
4, 74520, Note_on_c, 1, 73, 70
4, 74580, Note_off_c, 1, 73, 64
4, 74580, Note_on_c, 1, 75, 70
4, 74640, Note_off_c, 1, 75, 64
4, 74640, Note_on_c, 1, 73, 70
4, 74700, Note_off_c, 1, 73, 64
4, 74700, Note_on_c, 1, 72, 70
4, 74760, Note_off_c, 1, 72, 64
4, 74760, Note_on_c, 1, 70, 70
4, 74820, Note_off_c, 1, 70, 64
4, 74820, Note_on_c, 1, 68, 70
4, 74868, Note_off_c, 1, 68, 64
4, 74880, Note_on_c, 1, 73, 58
4, 74970, Note_off_c, 1, 73, 64
4, 75000, Note_on_c, 1, 73, 58
4, 75090, Note_off_c, 1, 73, 64
4, 75120, Note_on_c, 1, 73, 58
4, 75210, Note_off_c, 1, 73, 64
4, 75240, Note_on_c, 1, 73, 58
4, 75330, Note_off_c, 1, 73, 64
4, 77280, Note_on_c, 1, 68, 70
4, 77370, Note_off_c, 1, 68, 64
4, 77400, Note_on_c, 1, 68, 70
4, 77490, Note_off_c, 1, 68, 64
4, 77520, Note_on_c, 1, 68, 70
4, 77610, Note_off_c, 1, 68, 64
4, 77640, Note_on_c, 1, 68, 70
4, 77730, Note_off_c, 1, 68, 64
4, 77760, Note_on_c, 1, 68, 70
4, 77820, Note_off_c, 1, 68, 64
4, 77820, Note_on_c, 1, 67, 70
4, 77880, Note_off_c, 1, 67, 64
4, 77880, Note_on_c, 1, 68, 70
4, 77940, Note_off_c, 1, 68, 64
4, 77940, Note_on_c, 1, 70, 70
4, 78000, Note_off_c, 1, 70, 64
4, 78000, Note_on_c, 1, 68, 70
4, 78060, Note_off_c, 1, 68, 64
4, 78060, Note_on_c, 1, 67, 70
4, 78120, Note_off_c, 1, 67, 64
4, 78120, Note_on_c, 1, 65, 70
4, 78180, Note_off_c, 1, 65, 64
4, 78180, Note_on_c, 1, 63, 70
4, 78228, Note_off_c, 1, 63, 64
4, 78240, Note_on_c, 1, 63, 58
4, 78420, Note_off_c, 1, 63, 64
4, 78420, Note_on_c, 1, 65, 58
4, 78450, Note_off_c, 1, 65, 64
4, 78450, Note_on_c, 1, 66, 58
4, 78480, Note_off_c, 1, 66, 64
4, 78480, Note_on_c, 1, 68, 58
4, 78576, Note_off_c, 1, 68, 64
4, 78840, Note_on_c, 1, 69, 58
4, 78936, Note_off_c, 1, 69, 64
4, 79080, Note_on_c, 1, 70, 58
4, 79176, Note_off_c, 1, 70, 64
4, 79320, Note_on_c, 1, 67, 58
4, 79416, Note_off_c, 1, 67, 64
4, 79560, Note_on_c, 1, 68, 58
4, 79656, Note_off_c, 1, 68, 64
4, 79680, Note_on_c, 1, 77, 58
4, 79740, Note_off_c, 1, 77, 64
4, 79740, Note_on_c, 1, 75, 58
4, 79800, Note_off_c, 1, 75, 64
4, 79800, Note_on_c, 1, 74, 58
4, 79860, Note_off_c, 1, 74, 64
4, 79860, Note_on_c, 1, 72, 58
4, 79920, Note_off_c, 1, 72, 64
4, 79920, Note_on_c, 1, 70, 58
4, 79980, Note_off_c, 1, 70, 64
4, 79980, Note_on_c, 1, 68, 58
4, 80040, Note_off_c, 1, 68, 64
4, 80040, Note_on_c, 1, 67, 58
4, 80100, Note_off_c, 1, 67, 64
4, 80100, Note_on_c, 1, 65, 58
4, 80148, Note_off_c, 1, 65, 64
4, 80160, Note_on_c, 1, 63, 58
4, 80256, Note_off_c, 1, 63, 64
4, 81120, Note_on_c, 1, 75, 58
4, 81180, Note_off_c, 1, 75, 64
4, 81180, Note_on_c, 1, 74, 58
4, 81240, Note_off_c, 1, 74, 64
4, 81240, Note_on_c, 1, 75, 58
4, 81300, Note_off_c, 1, 75, 64
4, 81300, Note_on_c, 1, 72, 58
4, 81360, Note_off_c, 1, 72, 64
4, 81360, Note_on_c, 1, 73, 58
4, 81420, Note_off_c, 1, 73, 64
4, 81420, Note_on_c, 1, 72, 58
4, 81480, Note_off_c, 1, 72, 64
4, 81480, Note_on_c, 1, 73, 58
4, 81540, Note_off_c, 1, 73, 64
4, 81540, Note_on_c, 1, 71, 58
4, 81600, Note_off_c, 1, 71, 64
4, 81600, Note_on_c, 1, 72, 58
4, 81660, Note_off_c, 1, 72, 64
4, 81660, Note_on_c, 1, 71, 58
4, 81720, Note_off_c, 1, 71, 64
4, 81720, Note_on_c, 1, 72, 58
4, 81780, Note_off_c, 1, 72, 64
4, 81780, Note_on_c, 1, 69, 58
4, 81840, Note_off_c, 1, 69, 64
4, 81840, Note_on_c, 1, 70, 58
4, 81900, Note_off_c, 1, 70, 64
4, 81900, Note_on_c, 1, 69, 58
4, 81960, Note_off_c, 1, 69, 64
4, 81960, Note_on_c, 1, 70, 58
4, 82020, Note_off_c, 1, 70, 64
4, 82020, Note_on_c, 1, 67, 58
4, 82080, Note_off_c, 1, 67, 64
4, 82080, Note_on_c, 1, 68, 58
4, 82176, Note_off_c, 1, 68, 64
4, 84000, Note_on_c, 1, 63, 70
4, 84240, Note_off_c, 1, 63, 64
4, 84240, Note_on_c, 1, 65, 70
4, 84330, Note_off_c, 1, 65, 64
4, 84330, Note_on_c, 1, 67, 70
4, 84360, Note_off_c, 1, 67, 64
4, 84360, Note_on_c, 1, 68, 70
4, 84450, Note_off_c, 1, 68, 64
4, 84450, Note_on_c, 1, 65, 70
4, 84480, Note_off_c, 1, 65, 64
4, 84480, Note_on_c, 1, 63, 70
4, 84576, Note_off_c, 1, 63, 64
4, 84576, End_track
5, 0, Start_track
5, 0, Program_c, 2, 70
5, 0, Control_c, 2, 7, 90
5, 0, Control_c, 2, 91, 80
5, 0, Control_c, 2, 10, 72
5, 26400, Note_on_c, 2, 60, 58
5, 26494, Note_off_c, 2, 60, 64
5, 26520, Note_on_c, 2, 60, 58
5, 26614, Note_off_c, 2, 60, 64
5, 26640, Note_on_c, 2, 60, 58
5, 26734, Note_off_c, 2, 60, 64
5, 26760, Note_on_c, 2, 60, 58
5, 26854, Note_off_c, 2, 60, 64
5, 26880, Note_on_c, 2, 60, 58
5, 27360, Note_off_c, 2, 60, 64
5, 27360, Note_on_c, 2, 60, 58
5, 27552, Note_off_c, 2, 60, 64
5, 27840, Note_on_c, 2, 61, 92
5, 27840, Note_on_c, 2, 58, 92
5, 28296, Note_off_c, 2, 58, 64
5, 28296, Note_off_c, 2, 61, 64
5, 28320, Note_on_c, 2, 60, 92
5, 28320, Note_on_c, 2, 56, 92
5, 28776, Note_off_c, 2, 60, 64
5, 28800, Note_on_c, 2, 59, 92
5, 29256, Note_off_c, 2, 56, 64
5, 29256, Note_off_c, 2, 59, 64
5, 29280, Note_on_c, 2, 58, 92
5, 29280, Note_on_c, 2, 54, 92
5, 29664, Note_off_c, 2, 58, 64
5, 29760, Note_on_c, 2, 63, 92
5, 30000, Note_off_c, 2, 54, 64
5, 30000, Note_on_c, 2, 57, 92
5, 30192, Note_off_c, 2, 57, 64
5, 30192, Note_off_c, 2, 63, 64
5, 30240, Note_on_c, 2, 62, 92
5, 30240, Note_on_c, 2, 58, 92
5, 30480, Note_off_c, 2, 58, 64
5, 30480, Note_off_c, 2, 62, 64
5, 30480, Note_on_c, 2, 57, 92
5, 30480, Note_on_c, 2, 60, 92
5, 30720, Note_off_c, 2, 60, 64
5, 30720, Note_off_c, 2, 57, 64
5, 30720, Note_on_c, 2, 62, 92
5, 30720, Note_on_c, 2, 58, 92
5, 30960, Note_off_c, 2, 58, 64
5, 30960, Note_off_c, 2, 62, 64
5, 30960, Note_on_c, 2, 57, 92
5, 30960, Note_on_c, 2, 60, 92
5, 31152, Note_off_c, 2, 60, 64
5, 31152, Note_off_c, 2, 57, 64
5, 31200, Note_on_c, 2, 58, 92
5, 31200, Note_on_c, 2, 62, 92
5, 31296, Note_off_c, 2, 62, 64
5, 31296, Note_off_c, 2, 58, 64
5, 31680, Note_on_c, 2, 46, 70
5, 31680, Note_on_c, 2, 50, 70
5, 31920, Note_off_c, 2, 50, 64
5, 31920, Note_off_c, 2, 46, 64
5, 31920, Note_on_c, 2, 51, 70
5, 31920, Note_on_c, 2, 48, 70
5, 32010, Note_off_c, 2, 48, 64
5, 32010, Note_off_c, 2, 51, 64
5, 32010, Note_on_c, 2, 53, 70
5, 32010, Note_on_c, 2, 50, 70
5, 32040, Note_off_c, 2, 50, 64
5, 32040, Note_off_c, 2, 53, 64
5, 32040, Note_on_c, 2, 55, 70
5, 32040, Note_on_c, 2, 51, 70
5, 32130, Note_off_c, 2, 51, 64
5, 32130, Note_off_c, 2, 55, 64
5, 32130, Note_on_c, 2, 48, 70
5, 32130, Note_on_c, 2, 51, 70
5, 32160, Note_off_c, 2, 51, 64
5, 32160, Note_off_c, 2, 48, 64
5, 32160, Note_on_c, 2, 50, 70
5, 32160, Note_on_c, 2, 46, 70
5, 32256, Note_off_c, 2, 46, 64
5, 32256, Note_off_c, 2, 50, 64
5, 32640, Note_on_c, 2, 48, 70
5, 32640, Note_on_c, 2, 51, 70
5, 32880, Note_off_c, 2, 51, 64
5, 32880, Note_off_c, 2, 48, 64
5, 32880, Note_on_c, 2, 50, 70
5, 32880, Note_on_c, 2, 53, 70
5, 32970, Note_off_c, 2, 53, 64
5, 32970, Note_off_c, 2, 50, 64
5, 32970, Note_on_c, 2, 55, 70
5, 32970, Note_on_c, 2, 51, 70
5, 33000, Note_off_c, 2, 51, 64
5, 33000, Note_off_c, 2, 55, 64
5, 33000, Note_on_c, 2, 53, 70
5, 33000, Note_on_c, 2, 56, 70
5, 33090, Note_off_c, 2, 56, 64
5, 33090, Note_off_c, 2, 53, 64
5, 33090, Note_on_c, 2, 50, 70
5, 33090, Note_on_c, 2, 53, 70
5, 33120, Note_off_c, 2, 53, 64
5, 33120, Note_off_c, 2, 50, 64
5, 33120, Note_on_c, 2, 51, 70
5, 33120, Note_on_c, 2, 48, 70
5, 33216, Note_off_c, 2, 48, 64
5, 33216, Note_off_c, 2, 51, 64
5, 33600, Note_on_c, 2, 50, 70
5, 33600, Note_on_c, 2, 53, 70
5, 33840, Note_off_c, 2, 53, 64
5, 33840, Note_off_c, 2, 50, 64
5, 33840, Note_on_c, 2, 55, 70
5, 33840, Note_on_c, 2, 51, 70
5, 33930, Note_off_c, 2, 51, 64
5, 33930, Note_off_c, 2, 55, 64
5, 33930, Note_on_c, 2, 56, 70
5, 33930, Note_on_c, 2, 53, 70
5, 33960, Note_off_c, 2, 53, 64
5, 33960, Note_off_c, 2, 56, 64
5, 33960, Note_on_c, 2, 58, 70
5, 33960, Note_on_c, 2, 55, 70
5, 34050, Note_off_c, 2, 55, 64
5, 34050, Note_off_c, 2, 58, 64
5, 34050, Note_on_c, 2, 51, 70
5, 34050, Note_on_c, 2, 55, 70
5, 34080, Note_off_c, 2, 55, 64
5, 34080, Note_off_c, 2, 51, 64
5, 34080, Note_on_c, 2, 53, 70
5, 34080, Note_on_c, 2, 50, 70
5, 34176, Note_off_c, 2, 50, 64
5, 34176, Note_off_c, 2, 53, 64
5, 35040, Note_on_c, 2, 60, 92
5, 35040, Note_on_c, 2, 67, 92
5, 35076, Note_off_c, 2, 67, 64
5, 35076, Note_off_c, 2, 60, 64
5, 35100, Note_on_c, 2, 60, 92
5, 35100, Note_on_c, 2, 67, 92
5, 35136, Note_off_c, 2, 67, 64
5, 35136, Note_off_c, 2, 60, 64
5, 35160, Note_on_c, 2, 60, 92
5, 35160, Note_on_c, 2, 67, 92
5, 35196, Note_off_c, 2, 67, 64
5, 35196, Note_off_c, 2, 60, 64
5, 35220, Note_on_c, 2, 67, 92
5, 35220, Note_on_c, 2, 60, 92
5, 35256, Note_off_c, 2, 60, 64
5, 35256, Note_off_c, 2, 67, 64
5, 35280, Note_on_c, 2, 65, 92
5, 35280, Note_on_c, 2, 60, 92
5, 35316, Note_off_c, 2, 60, 64
5, 35316, Note_off_c, 2, 65, 64
5, 35340, Note_on_c, 2, 60, 92
5, 35340, Note_on_c, 2, 65, 92
5, 35376, Note_off_c, 2, 65, 64
5, 35376, Note_off_c, 2, 60, 64
5, 35400, Note_on_c, 2, 65, 92
5, 35400, Note_on_c, 2, 60, 92
5, 35436, Note_off_c, 2, 60, 64
5, 35436, Note_off_c, 2, 65, 64
5, 35460, Note_on_c, 2, 60, 92
5, 35460, Note_on_c, 2, 65, 92
5, 35496, Note_off_c, 2, 65, 64
5, 35496, Note_off_c, 2, 60, 64
5, 35520, Note_on_c, 2, 58, 92
5, 35520, Note_on_c, 2, 65, 92
5, 35556, Note_off_c, 2, 65, 64
5, 35556, Note_off_c, 2, 58, 64
5, 35580, Note_on_c, 2, 58, 92
5, 35580, Note_on_c, 2, 65, 92
5, 35616, Note_off_c, 2, 65, 64
5, 35616, Note_off_c, 2, 58, 64
5, 35640, Note_on_c, 2, 58, 92
5, 35640, Note_on_c, 2, 65, 92
5, 35676, Note_off_c, 2, 65, 64
5, 35676, Note_off_c, 2, 58, 64
5, 35700, Note_on_c, 2, 65, 92
5, 35700, Note_on_c, 2, 58, 92
5, 35736, Note_off_c, 2, 58, 64
5, 35736, Note_off_c, 2, 65, 64
5, 35760, Note_on_c, 2, 63, 92
5, 35760, Note_on_c, 2, 58, 92
5, 35796, Note_off_c, 2, 58, 64
5, 35796, Note_off_c, 2, 63, 64
5, 35820, Note_on_c, 2, 63, 92
5, 35820, Note_on_c, 2, 58, 92
5, 35856, Note_off_c, 2, 58, 64
5, 35856, Note_off_c, 2, 63, 64
5, 35880, Note_on_c, 2, 58, 92
5, 35880, Note_on_c, 2, 63, 92
5, 35916, Note_off_c, 2, 63, 64
5, 35916, Note_off_c, 2, 58, 64
5, 35940, Note_on_c, 2, 58, 92
5, 35940, Note_on_c, 2, 63, 92
5, 35976, Note_off_c, 2, 63, 64
5, 35976, Note_off_c, 2, 58, 64
5, 36000, Note_on_c, 2, 63, 92
5, 36000, Note_on_c, 2, 56, 92
5, 36036, Note_off_c, 2, 56, 64
5, 36036, Note_off_c, 2, 63, 64
5, 36060, Note_on_c, 2, 63, 92
5, 36060, Note_on_c, 2, 56, 92
5, 36096, Note_off_c, 2, 56, 64
5, 36096, Note_off_c, 2, 63, 64
5, 36120, Note_on_c, 2, 63, 92
5, 36120, Note_on_c, 2, 56, 92
5, 36156, Note_off_c, 2, 56, 64
5, 36156, Note_off_c, 2, 63, 64
5, 36180, Note_on_c, 2, 56, 92
5, 36180, Note_on_c, 2, 63, 92
5, 36216, Note_off_c, 2, 63, 64
5, 36216, Note_off_c, 2, 56, 64
5, 36240, Note_on_c, 2, 62, 92
5, 36240, Note_on_c, 2, 56, 92
5, 36276, Note_off_c, 2, 56, 64
5, 36276, Note_off_c, 2, 62, 64
5, 36300, Note_on_c, 2, 56, 92
5, 36300, Note_on_c, 2, 62, 92
5, 36336, Note_off_c, 2, 62, 64
5, 36336, Note_off_c, 2, 56, 64
5, 36360, Note_on_c, 2, 62, 92
5, 36360, Note_on_c, 2, 56, 92
5, 36396, Note_off_c, 2, 56, 64
5, 36396, Note_off_c, 2, 62, 64
5, 36420, Note_on_c, 2, 56, 92
5, 36420, Note_on_c, 2, 62, 92
5, 36456, Note_off_c, 2, 62, 64
5, 36456, Note_off_c, 2, 56, 64
5, 36480, Note_on_c, 2, 55, 92
5, 36480, Note_on_c, 2, 62, 92
5, 36516, Note_off_c, 2, 62, 64
5, 36516, Note_off_c, 2, 55, 64
5, 36540, Note_on_c, 2, 55, 92
5, 36540, Note_on_c, 2, 62, 92
5, 36576, Note_off_c, 2, 62, 64
5, 36576, Note_off_c, 2, 55, 64
5, 36600, Note_on_c, 2, 55, 92
5, 36600, Note_on_c, 2, 62, 92
5, 36636, Note_off_c, 2, 62, 64
5, 36636, Note_off_c, 2, 55, 64
5, 36660, Note_on_c, 2, 62, 92
5, 36660, Note_on_c, 2, 55, 92
5, 36696, Note_off_c, 2, 55, 64
5, 36696, Note_off_c, 2, 62, 64
5, 36720, Note_on_c, 2, 60, 92
5, 36720, Note_on_c, 2, 55, 92
5, 36756, Note_off_c, 2, 55, 64
5, 36756, Note_off_c, 2, 60, 64
5, 36780, Note_on_c, 2, 60, 92
5, 36780, Note_on_c, 2, 55, 92
5, 36816, Note_off_c, 2, 55, 64
5, 36816, Note_off_c, 2, 60, 64
5, 36840, Note_on_c, 2, 55, 92
5, 36840, Note_on_c, 2, 60, 92
5, 36876, Note_off_c, 2, 60, 64
5, 36876, Note_off_c, 2, 55, 64
5, 36900, Note_on_c, 2, 55, 92
5, 36900, Note_on_c, 2, 60, 92
5, 36936, Note_off_c, 2, 60, 64
5, 36936, Note_off_c, 2, 55, 64
5, 38520, Note_on_c, 2, 56, 70
5, 38610, Note_off_c, 2, 56, 64
5, 38640, Note_on_c, 2, 56, 70
5, 38730, Note_off_c, 2, 56, 64
5, 38760, Note_on_c, 2, 56, 70
5, 38850, Note_off_c, 2, 56, 64
5, 38880, Note_on_c, 2, 56, 70
5, 38940, Note_off_c, 2, 56, 64
5, 38940, Note_on_c, 2, 55, 70
5, 39000, Note_off_c, 2, 55, 64
5, 39000, Note_on_c, 2, 56, 70
5, 39060, Note_off_c, 2, 56, 64
5, 39060, Note_on_c, 2, 58, 70
5, 39120, Note_off_c, 2, 58, 64
5, 39120, Note_on_c, 2, 56, 70
5, 39180, Note_off_c, 2, 56, 64
5, 39180, Note_on_c, 2, 55, 70
5, 39240, Note_off_c, 2, 55, 64
5, 39240, Note_on_c, 2, 53, 70
5, 39300, Note_off_c, 2, 53, 64
5, 39300, Note_on_c, 2, 51, 70
5, 39348, Note_off_c, 2, 51, 64
5, 39360, Note_on_c, 2, 56, 58
5, 39456, Note_off_c, 2, 56, 64
5, 39840, Note_on_c, 2, 63, 58
5, 39930, Note_off_c, 2, 63, 64
5, 39960, Note_on_c, 2, 63, 58
5, 40050, Note_off_c, 2, 63, 64
5, 40080, Note_on_c, 2, 63, 58
5, 40170, Note_off_c, 2, 63, 64
5, 40200, Note_on_c, 2, 63, 58
5, 40290, Note_off_c, 2, 63, 64
5, 40320, Note_on_c, 2, 63, 58
5, 40380, Note_off_c, 2, 63, 64
5, 40380, Note_on_c, 2, 62, 58
5, 40440, Note_off_c, 2, 62, 64
5, 40440, Note_on_c, 2, 63, 58
5, 40500, Note_off_c, 2, 63, 64
5, 40500, Note_on_c, 2, 65, 58
5, 40560, Note_off_c, 2, 65, 64
5, 40560, Note_on_c, 2, 63, 58
5, 40620, Note_off_c, 2, 63, 64
5, 40620, Note_on_c, 2, 62, 58
5, 40680, Note_off_c, 2, 62, 64
5, 40680, Note_on_c, 2, 60, 58
5, 40740, Note_off_c, 2, 60, 64
5, 40740, Note_on_c, 2, 58, 58
5, 40788, Note_off_c, 2, 58, 64
5, 41760, Note_on_c, 2, 63, 70
5, 41850, Note_off_c, 2, 63, 64
5, 41880, Note_on_c, 2, 63, 70
5, 41970, Note_off_c, 2, 63, 64
5, 42000, Note_on_c, 2, 63, 70
5, 42090, Note_off_c, 2, 63, 64
5, 42120, Note_on_c, 2, 63, 70
5, 42210, Note_off_c, 2, 63, 64
5, 42240, Note_on_c, 2, 63, 70
5, 42300, Note_off_c, 2, 63, 64
5, 42300, Note_on_c, 2, 62, 70
5, 42360, Note_off_c, 2, 62, 64
5, 42360, Note_on_c, 2, 63, 70
5, 42420, Note_off_c, 2, 63, 64
5, 42420, Note_on_c, 2, 65, 70
5, 42480, Note_off_c, 2, 65, 64
5, 42480, Note_on_c, 2, 63, 70
5, 42540, Note_off_c, 2, 63, 64
5, 42540, Note_on_c, 2, 62, 70
5, 42600, Note_off_c, 2, 62, 64
5, 42600, Note_on_c, 2, 60, 70
5, 42660, Note_off_c, 2, 60, 64
5, 42660, Note_on_c, 2, 58, 70
5, 42708, Note_off_c, 2, 58, 64
5, 42720, Note_on_c, 2, 58, 58
5, 42900, Note_off_c, 2, 58, 64
5, 42900, Note_on_c, 2, 60, 58
5, 42930, Note_off_c, 2, 60, 64
5, 42930, Note_on_c, 2, 62, 58
5, 42960, Note_off_c, 2, 62, 64
5, 42960, Note_on_c, 2, 63, 58
5, 43056, Note_off_c, 2, 63, 64
5, 43680, Note_on_c, 2, 63, 70
5, 43770, Note_off_c, 2, 63, 64
5, 43800, Note_on_c, 2, 63, 70
5, 43890, Note_off_c, 2, 63, 64
5, 43920, Note_on_c, 2, 63, 70
5, 44010, Note_off_c, 2, 63, 64
5, 44040, Note_on_c, 2, 63, 70
5, 44130, Note_off_c, 2, 63, 64
5, 44160, Note_on_c, 2, 63, 70
5, 44220, Note_off_c, 2, 63, 64
5, 44220, Note_on_c, 2, 62, 70
5, 44280, Note_off_c, 2, 62, 64
5, 44280, Note_on_c, 2, 63, 70
5, 44340, Note_off_c, 2, 63, 64
5, 44340, Note_on_c, 2, 65, 70
5, 44400, Note_off_c, 2, 65, 64
5, 44400, Note_on_c, 2, 63, 70
5, 44460, Note_off_c, 2, 63, 64
5, 44460, Note_on_c, 2, 61, 70
5, 44520, Note_off_c, 2, 61, 64
5, 44520, Note_on_c, 2, 60, 70
5, 44580, Note_off_c, 2, 60, 64
5, 44580, Note_on_c, 2, 58, 70
5, 44628, Note_off_c, 2, 58, 64
5, 44640, Note_on_c, 2, 61, 70
5, 44700, Note_off_c, 2, 61, 64
5, 44700, Note_on_c, 2, 60, 70
5, 44760, Note_off_c, 2, 60, 64
5, 44760, Note_on_c, 2, 61, 70
5, 44820, Note_off_c, 2, 61, 64
5, 44820, Note_on_c, 2, 63, 70
5, 44880, Note_off_c, 2, 63, 64
5, 44880, Note_on_c, 2, 61, 70
5, 44940, Note_off_c, 2, 61, 64
5, 44940, Note_on_c, 2, 60, 70
5, 45000, Note_off_c, 2, 60, 64
5, 45000, Note_on_c, 2, 58, 70
5, 45060, Note_off_c, 2, 58, 64
5, 45060, Note_on_c, 2, 56, 70
5, 45108, Note_off_c, 2, 56, 64
5, 45120, Note_on_c, 2, 60, 70
5, 45180, Note_off_c, 2, 60, 64
5, 45180, Note_on_c, 2, 58, 70
5, 45240, Note_off_c, 2, 58, 64
5, 45240, Note_on_c, 2, 60, 70
5, 45300, Note_off_c, 2, 60, 64
5, 45300, Note_on_c, 2, 61, 70
5, 45360, Note_off_c, 2, 61, 64
5, 45360, Note_on_c, 2, 60, 70
5, 45420, Note_off_c, 2, 60, 64
5, 45420, Note_on_c, 2, 58, 70
5, 45480, Note_off_c, 2, 58, 64
5, 45480, Note_on_c, 2, 56, 70
5, 45540, Note_off_c, 2, 56, 64
5, 45540, Note_on_c, 2, 55, 70
5, 45588, Note_off_c, 2, 55, 64
5, 45600, Note_on_c, 2, 56, 58
5, 45696, Note_off_c, 2, 56, 64
5, 47520, Note_on_c, 2, 60, 70
5, 47760, Note_off_c, 2, 60, 64
5, 47760, Note_on_c, 2, 61, 70
5, 47850, Note_off_c, 2, 61, 64
5, 47850, Note_on_c, 2, 63, 70
5, 47880, Note_off_c, 2, 63, 64
5, 47880, Note_on_c, 2, 65, 70
5, 47970, Note_off_c, 2, 65, 64
5, 47970, Note_on_c, 2, 61, 70
5, 48000, Note_off_c, 2, 61, 64
5, 48000, Note_on_c, 2, 60, 70
5, 48096, Note_off_c, 2, 60, 64
5, 48240, Note_on_c, 2, 56, 70
5, 48330, Note_off_c, 2, 56, 64
5, 48330, Note_on_c, 2, 55, 70
5, 48360, Note_off_c, 2, 55, 64
5, 48360, Note_on_c, 2, 58, 70
5, 48450, Note_off_c, 2, 58, 64
5, 48450, Note_on_c, 2, 56, 70
5, 48480, Note_off_c, 2, 56, 64
5, 48480, Note_on_c, 2, 60, 70
5, 48570, Note_off_c, 2, 60, 64
5, 48570, Note_on_c, 2, 58, 70
5, 48600, Note_off_c, 2, 58, 64
5, 48600, Note_on_c, 2, 62, 70
5, 48690, Note_off_c, 2, 62, 64
5, 48690, Note_on_c, 2, 60, 70
5, 48720, Note_off_c, 2, 60, 64
5, 48720, Note_on_c, 2, 63, 70
5, 48792, Note_off_c, 2, 63, 64
5, 48840, Note_on_c, 2, 58, 70
5, 48912, Note_off_c, 2, 58, 64
5, 48960, Note_on_c, 2, 58, 70
5, 49200, Note_off_c, 2, 58, 64
5, 49200, Note_on_c, 2, 51, 58
5, 49296, Note_off_c, 2, 51, 64
5, 49920, Note_on_c, 2, 58, 58
5, 49953, Note_off_c, 2, 58, 64
5, 49980, Note_on_c, 2, 56, 58
5, 50013, Note_off_c, 2, 56, 64
5, 50040, Note_on_c, 2, 55, 58
5, 50073, Note_off_c, 2, 55, 64
5, 50100, Note_on_c, 2, 53, 58
5, 50133, Note_off_c, 2, 53, 64
5, 50160, Note_on_c, 2, 51, 58
5, 50193, Note_off_c, 2, 51, 64
5, 50220, Note_on_c, 2, 49, 58
5, 50253, Note_off_c, 2, 49, 64
5, 50280, Note_on_c, 2, 48, 58
5, 50313, Note_off_c, 2, 48, 64
5, 50340, Note_on_c, 2, 46, 58
5, 50373, Note_off_c, 2, 46, 64
5, 50400, Note_on_c, 2, 44, 58
5, 50496, Note_off_c, 2, 44, 64
5, 50880, Note_on_c, 2, 60, 58
5, 50913, Note_off_c, 2, 60, 64
5, 50940, Note_on_c, 2, 58, 58
5, 50973, Note_off_c, 2, 58, 64
5, 51000, Note_on_c, 2, 56, 58
5, 51033, Note_off_c, 2, 56, 64
5, 51060, Note_on_c, 2, 55, 58
5, 51093, Note_off_c, 2, 55, 64
5, 51120, Note_on_c, 2, 53, 58
5, 51153, Note_off_c, 2, 53, 64
5, 51180, Note_on_c, 2, 51, 58
5, 51213, Note_off_c, 2, 51, 64
5, 51240, Note_on_c, 2, 49, 58
5, 51273, Note_off_c, 2, 49, 64
5, 51300, Note_on_c, 2, 48, 58
5, 51333, Note_off_c, 2, 48, 64
5, 51360, Note_on_c, 2, 46, 58
5, 51456, Note_off_c, 2, 46, 64
5, 51840, Note_on_c, 2, 61, 58
5, 51873, Note_off_c, 2, 61, 64
5, 51900, Note_on_c, 2, 60, 58
5, 51933, Note_off_c, 2, 60, 64
5, 51960, Note_on_c, 2, 58, 58
5, 51993, Note_off_c, 2, 58, 64
5, 52020, Note_on_c, 2, 56, 58
5, 52053, Note_off_c, 2, 56, 64
5, 52080, Note_on_c, 2, 55, 58
5, 52113, Note_off_c, 2, 55, 64
5, 52140, Note_on_c, 2, 53, 58
5, 52173, Note_off_c, 2, 53, 64
5, 52200, Note_on_c, 2, 51, 58
5, 52233, Note_off_c, 2, 51, 64
5, 52260, Note_on_c, 2, 49, 58
5, 52293, Note_off_c, 2, 49, 64
5, 52320, Note_on_c, 2, 48, 58
5, 52416, Note_off_c, 2, 48, 64
5, 54720, Note_on_c, 2, 60, 70
5, 54960, Note_off_c, 2, 60, 64
5, 54960, Note_on_c, 2, 61, 70
5, 55050, Note_off_c, 2, 61, 64
5, 55050, Note_on_c, 2, 63, 70
5, 55080, Note_off_c, 2, 63, 64
5, 55080, Note_on_c, 2, 65, 70
5, 55170, Note_off_c, 2, 65, 64
5, 55170, Note_on_c, 2, 61, 70
5, 55200, Note_off_c, 2, 61, 64
5, 55200, Note_on_c, 2, 60, 70
5, 55296, Note_off_c, 2, 60, 64
5, 55440, Note_on_c, 2, 56, 70
5, 55530, Note_off_c, 2, 56, 64
5, 55530, Note_on_c, 2, 55, 70
5, 55560, Note_off_c, 2, 55, 64
5, 55560, Note_on_c, 2, 58, 70
5, 55650, Note_off_c, 2, 58, 64
5, 55650, Note_on_c, 2, 56, 70
5, 55680, Note_off_c, 2, 56, 64
5, 55680, Note_on_c, 2, 60, 70
5, 55770, Note_off_c, 2, 60, 64
5, 55770, Note_on_c, 2, 58, 70
5, 55800, Note_off_c, 2, 58, 64
5, 55800, Note_on_c, 2, 61, 70
5, 55890, Note_off_c, 2, 61, 64
5, 55890, Note_on_c, 2, 60, 70
5, 55920, Note_off_c, 2, 60, 64
5, 55920, Note_on_c, 2, 63, 70
5, 55992, Note_off_c, 2, 63, 64
5, 56040, Note_on_c, 2, 63, 70
5, 56112, Note_off_c, 2, 63, 64
5, 56160, Note_on_c, 2, 63, 70
5, 56400, Note_off_c, 2, 63, 64
5, 56400, Note_on_c, 2, 51, 58
5, 56496, Note_off_c, 2, 51, 64
5, 57120, Note_on_c, 2, 63, 70
5, 57240, Note_off_c, 2, 63, 64
5, 57240, Note_on_c, 2, 64, 70
5, 57360, Note_off_c, 2, 64, 64
5, 57360, Note_on_c, 2, 65, 70
5, 57480, Note_off_c, 2, 65, 64
5, 57480, Note_on_c, 2, 66, 70
5, 57576, Note_off_c, 2, 66, 64
5, 57600, Note_on_c, 2, 66, 70
5, 58320, Note_off_c, 2, 66, 64
5, 58320, Note_on_c, 2, 64, 70
5, 58512, Note_off_c, 2, 64, 64
5, 58560, Note_on_c, 2, 63, 70
5, 58800, Note_off_c, 2, 63, 64
5, 58800, Note_on_c, 2, 61, 58
5, 58992, Note_off_c, 2, 61, 64
5, 59040, Note_on_c, 2, 62, 92
5, 59040, Note_on_c, 2, 66, 92
5, 59496, Note_off_c, 2, 66, 64
5, 59496, Note_off_c, 2, 62, 64
5, 59520, Note_on_c, 2, 61, 92
5, 59520, Note_on_c, 2, 64, 92
5, 59976, Note_off_c, 2, 64, 64
5, 59976, Note_off_c, 2, 61, 64
5, 60000, Note_on_c, 2, 62, 92
5, 60000, Note_on_c, 2, 66, 92
5, 60456, Note_off_c, 2, 66, 64
5, 60456, Note_off_c, 2, 62, 64
5, 60480, Note_on_c, 2, 56, 92
5, 60480, Note_on_c, 2, 62, 92
5, 60936, Note_off_c, 2, 62, 64
5, 60936, Note_off_c, 2, 56, 64
5, 60960, Note_on_c, 2, 60, 92
5, 60960, Note_on_c, 2, 57, 92
5, 61416, Note_off_c, 2, 57, 64
5, 61416, Note_off_c, 2, 60, 64
5, 61440, Note_on_c, 2, 65, 92
5, 61440, Note_on_c, 2, 56, 92
5, 61896, Note_off_c, 2, 56, 64
5, 61896, Note_off_c, 2, 65, 64
5, 61920, Note_on_c, 2, 64, 92
5, 61920, Note_on_c, 2, 55, 92
5, 62376, Note_off_c, 2, 55, 64
5, 62376, Note_off_c, 2, 64, 64
5, 62400, Note_on_c, 2, 63, 92
5, 62400, Note_on_c, 2, 56, 92
5, 62592, Note_off_c, 2, 56, 64
5, 62592, Note_off_c, 2, 63, 64
5, 62640, Note_on_c, 2, 63, 92
5, 63120, Note_off_c, 2, 63, 64
5, 63120, Note_on_c, 2, 64, 92
5, 63240, Note_off_c, 2, 64, 64
5, 63240, Note_on_c, 2, 63, 92
5, 63480, Note_off_c, 2, 63, 64
5, 63480, Note_on_c, 2, 61, 92
5, 63540, Note_off_c, 2, 61, 64
5, 63540, Note_on_c, 2, 59, 92
5, 63600, Note_off_c, 2, 59, 64
5, 63600, Note_on_c, 2, 61, 92
5, 63720, Note_off_c, 2, 61, 64
5, 63720, Note_on_c, 2, 62, 92
5, 63840, Note_off_c, 2, 62, 64
5, 63840, Note_on_c, 2, 63, 92
5, 64080, Note_off_c, 2, 63, 64
5, 64080, Note_on_c, 2, 59, 92
5, 64080, Note_on_c, 2, 56, 92
5, 64320, Note_off_c, 2, 56, 64
5, 64320, Note_off_c, 2, 59, 64
5, 64320, Note_on_c, 2, 55, 92
5, 64320, Note_on_c, 2, 58, 92
5, 64560, Note_off_c, 2, 58, 64
5, 64560, Note_off_c, 2, 55, 64
5, 64560, Note_on_c, 2, 56, 92
5, 64560, Note_on_c, 2, 59, 92
5, 64800, Note_off_c, 2, 59, 64
5, 64800, Note_off_c, 2, 56, 64
5, 64800, Note_on_c, 2, 55, 92
5, 64800, Note_on_c, 2, 58, 92
5, 64896, Note_off_c, 2, 58, 64
5, 64896, Note_off_c, 2, 55, 64
5, 65280, Note_on_c, 2, 51, 70
5, 65280, Note_on_c, 2, 55, 70
5, 65520, Note_off_c, 2, 55, 64
5, 65520, Note_off_c, 2, 51, 64
5, 65520, Note_on_c, 2, 53, 70
5, 65520, Note_on_c, 2, 56, 70
5, 65610, Note_off_c, 2, 56, 64
5, 65610, Note_off_c, 2, 53, 64
5, 65610, Note_on_c, 2, 58, 70
5, 65610, Note_on_c, 2, 55, 70
5, 65640, Note_off_c, 2, 55, 64
5, 65640, Note_off_c, 2, 58, 64
5, 65640, Note_on_c, 2, 56, 70
5, 65640, Note_on_c, 2, 60, 70
5, 65730, Note_off_c, 2, 60, 64
5, 65730, Note_off_c, 2, 56, 64
5, 65730, Note_on_c, 2, 53, 70
5, 65730, Note_on_c, 2, 56, 70
5, 65760, Note_off_c, 2, 56, 64
5, 65760, Note_off_c, 2, 53, 64
5, 65760, Note_on_c, 2, 55, 70
5, 65760, Note_on_c, 2, 51, 70
5, 65856, Note_off_c, 2, 51, 64
5, 65856, Note_off_c, 2, 55, 64
5, 66240, Note_on_c, 2, 56, 70
5, 66240, Note_on_c, 2, 53, 70
5, 66480, Note_off_c, 2, 53, 64
5, 66480, Note_off_c, 2, 56, 64
5, 66480, Note_on_c, 2, 55, 70
5, 66480, Note_on_c, 2, 58, 70
5, 66570, Note_off_c, 2, 58, 64
5, 66570, Note_off_c, 2, 55, 64
5, 66570, Note_on_c, 2, 60, 70
5, 66570, Note_on_c, 2, 56, 70
5, 66600, Note_off_c, 2, 56, 64
5, 66600, Note_off_c, 2, 60, 64
5, 66600, Note_on_c, 2, 58, 70
5, 66600, Note_on_c, 2, 61, 70
5, 66690, Note_off_c, 2, 61, 64
5, 66690, Note_off_c, 2, 58, 64
5, 66690, Note_on_c, 2, 58, 70
5, 66690, Note_on_c, 2, 55, 70
5, 66720, Note_off_c, 2, 55, 64
5, 66720, Note_off_c, 2, 58, 64
5, 66720, Note_on_c, 2, 56, 70
5, 66720, Note_on_c, 2, 53, 70
5, 66816, Note_off_c, 2, 53, 64
5, 66816, Note_off_c, 2, 56, 64
5, 67200, Note_on_c, 2, 55, 70
5, 67200, Note_on_c, 2, 58, 70
5, 67440, Note_off_c, 2, 58, 64
5, 67440, Note_off_c, 2, 55, 64
5, 67440, Note_on_c, 2, 60, 70
5, 67440, Note_on_c, 2, 56, 70
5, 67530, Note_off_c, 2, 56, 64
5, 67530, Note_off_c, 2, 60, 64
5, 67530, Note_on_c, 2, 58, 70
5, 67530, Note_on_c, 2, 61, 70
5, 67560, Note_off_c, 2, 61, 64
5, 67560, Note_off_c, 2, 58, 64
5, 67560, Note_on_c, 2, 63, 70
5, 67560, Note_on_c, 2, 60, 70
5, 67650, Note_off_c, 2, 60, 64
5, 67650, Note_off_c, 2, 63, 64
5, 67650, Note_on_c, 2, 60, 70
5, 67650, Note_on_c, 2, 56, 70
5, 67680, Note_off_c, 2, 56, 64
5, 67680, Note_off_c, 2, 60, 64
5, 67680, Note_on_c, 2, 55, 70
5, 67680, Note_on_c, 2, 58, 70
5, 67776, Note_off_c, 2, 58, 64
5, 67776, Note_off_c, 2, 55, 64
5, 68640, Note_on_c, 2, 63, 92
5, 68676, Note_off_c, 2, 63, 64
5, 68700, Note_on_c, 2, 63, 92
5, 68736, Note_off_c, 2, 63, 64
5, 68760, Note_on_c, 2, 63, 92
5, 68796, Note_off_c, 2, 63, 64
5, 68820, Note_on_c, 2, 63, 92
5, 68856, Note_off_c, 2, 63, 64
5, 68880, Note_on_c, 2, 61, 92
5, 68916, Note_off_c, 2, 61, 64
5, 68940, Note_on_c, 2, 61, 92
5, 68976, Note_off_c, 2, 61, 64
5, 69000, Note_on_c, 2, 61, 92
5, 69036, Note_off_c, 2, 61, 64
5, 69060, Note_on_c, 2, 61, 92
5, 69096, Note_off_c, 2, 61, 64
5, 69120, Note_on_c, 2, 61, 92
5, 69156, Note_off_c, 2, 61, 64
5, 69180, Note_on_c, 2, 61, 92
5, 69216, Note_off_c, 2, 61, 64
5, 69240, Note_on_c, 2, 61, 92
5, 69276, Note_off_c, 2, 61, 64
5, 69300, Note_on_c, 2, 61, 92
5, 69336, Note_off_c, 2, 61, 64
5, 69360, Note_on_c, 2, 60, 92
5, 69396, Note_off_c, 2, 60, 64
5, 69420, Note_on_c, 2, 60, 92
5, 69456, Note_off_c, 2, 60, 64
5, 69480, Note_on_c, 2, 60, 92
5, 69516, Note_off_c, 2, 60, 64
5, 69540, Note_on_c, 2, 60, 92
5, 69576, Note_off_c, 2, 60, 64
5, 69600, Note_on_c, 2, 60, 92
5, 69636, Note_off_c, 2, 60, 64
5, 69660, Note_on_c, 2, 60, 92
5, 69696, Note_off_c, 2, 60, 64
5, 69720, Note_on_c, 2, 60, 92
5, 69756, Note_off_c, 2, 60, 64
5, 69780, Note_on_c, 2, 60, 92
5, 69816, Note_off_c, 2, 60, 64
5, 69840, Note_on_c, 2, 58, 92
5, 69876, Note_off_c, 2, 58, 64
5, 69900, Note_on_c, 2, 58, 92
5, 69936, Note_off_c, 2, 58, 64
5, 69960, Note_on_c, 2, 58, 92
5, 69996, Note_off_c, 2, 58, 64
5, 70020, Note_on_c, 2, 58, 92
5, 70056, Note_off_c, 2, 58, 64
5, 70080, Note_on_c, 2, 58, 92
5, 70116, Note_off_c, 2, 58, 64
5, 70140, Note_on_c, 2, 58, 92
5, 70176, Note_off_c, 2, 58, 64
5, 70200, Note_on_c, 2, 58, 92
5, 70236, Note_off_c, 2, 58, 64
5, 70260, Note_on_c, 2, 58, 92
5, 70296, Note_off_c, 2, 58, 64
5, 70320, Note_on_c, 2, 56, 92
5, 70356, Note_off_c, 2, 56, 64
5, 70380, Note_on_c, 2, 56, 92
5, 70416, Note_off_c, 2, 56, 64
5, 70440, Note_on_c, 2, 56, 92
5, 70476, Note_off_c, 2, 56, 64
5, 70500, Note_on_c, 2, 56, 92
5, 70536, Note_off_c, 2, 56, 64
5, 73080, Note_on_c, 2, 61, 70
5, 73170, Note_off_c, 2, 61, 64
5, 73200, Note_on_c, 2, 61, 70
5, 73290, Note_off_c, 2, 61, 64
5, 73320, Note_on_c, 2, 61, 70
5, 73410, Note_off_c, 2, 61, 64
5, 73440, Note_on_c, 2, 61, 70
5, 73500, Note_off_c, 2, 61, 64
5, 73500, Note_on_c, 2, 60, 70
5, 73560, Note_off_c, 2, 60, 64
5, 73560, Note_on_c, 2, 61, 70
5, 73620, Note_off_c, 2, 61, 64
5, 73620, Note_on_c, 2, 63, 70
5, 73680, Note_off_c, 2, 63, 64
5, 73680, Note_on_c, 2, 61, 70
5, 73740, Note_off_c, 2, 61, 64
5, 73740, Note_on_c, 2, 60, 70
5, 73800, Note_off_c, 2, 60, 64
5, 73800, Note_on_c, 2, 58, 70
5, 73860, Note_off_c, 2, 58, 64
5, 73860, Note_on_c, 2, 56, 70
5, 73908, Note_off_c, 2, 56, 64
5, 73920, Note_on_c, 2, 61, 58
5, 74010, Note_off_c, 2, 61, 64
5, 74040, Note_on_c, 2, 61, 58
5, 74130, Note_off_c, 2, 61, 64
5, 74160, Note_on_c, 2, 61, 58
5, 74250, Note_off_c, 2, 61, 64
5, 74280, Note_on_c, 2, 61, 58
5, 74370, Note_off_c, 2, 61, 64
5, 74400, Note_on_c, 2, 61, 58
5, 74460, Note_off_c, 2, 61, 64
5, 74460, Note_on_c, 2, 60, 58
5, 74520, Note_off_c, 2, 60, 64
5, 74520, Note_on_c, 2, 61, 58
5, 74580, Note_off_c, 2, 61, 64
5, 74580, Note_on_c, 2, 63, 58
5, 74640, Note_off_c, 2, 63, 64
5, 74640, Note_on_c, 2, 61, 58
5, 74700, Note_off_c, 2, 61, 64
5, 74700, Note_on_c, 2, 60, 58
5, 74760, Note_off_c, 2, 60, 64
5, 74760, Note_on_c, 2, 58, 58
5, 74820, Note_off_c, 2, 58, 64
5, 74820, Note_on_c, 2, 56, 58
5, 74868, Note_off_c, 2, 56, 64
5, 74880, Note_on_c, 2, 61, 58
5, 74970, Note_off_c, 2, 61, 64
5, 75000, Note_on_c, 2, 61, 58
5, 75090, Note_off_c, 2, 61, 64
5, 75120, Note_on_c, 2, 61, 58
5, 75210, Note_off_c, 2, 61, 64
5, 75240, Note_on_c, 2, 61, 58
5, 75330, Note_off_c, 2, 61, 64
5, 76800, Note_on_c, 2, 61, 70
5, 76890, Note_off_c, 2, 61, 64
5, 76920, Note_on_c, 2, 61, 70
5, 77010, Note_off_c, 2, 61, 64
5, 77040, Note_on_c, 2, 61, 70
5, 77130, Note_off_c, 2, 61, 64
5, 77160, Note_on_c, 2, 61, 70
5, 77250, Note_off_c, 2, 61, 64
5, 77280, Note_on_c, 2, 61, 70
5, 77340, Note_off_c, 2, 61, 64
5, 77340, Note_on_c, 2, 60, 70
5, 77400, Note_off_c, 2, 60, 64
5, 77400, Note_on_c, 2, 61, 70
5, 77460, Note_off_c, 2, 61, 64
5, 77460, Note_on_c, 2, 63, 70
5, 77520, Note_off_c, 2, 63, 64
5, 77520, Note_on_c, 2, 61, 70
5, 77580, Note_off_c, 2, 61, 64
5, 77580, Note_on_c, 2, 60, 70
5, 77640, Note_off_c, 2, 60, 64
5, 77640, Note_on_c, 2, 58, 70
5, 77700, Note_off_c, 2, 58, 64
5, 77700, Note_on_c, 2, 56, 70
5, 77748, Note_off_c, 2, 56, 64
5, 77760, Note_on_c, 2, 58, 58
5, 77940, Note_off_c, 2, 58, 64
5, 77940, Note_on_c, 2, 60, 58
5, 77970, Note_off_c, 2, 60, 64
5, 77970, Note_on_c, 2, 61, 58
5, 78000, Note_off_c, 2, 61, 64
5, 78000, Note_on_c, 2, 63, 58
5, 78096, Note_off_c, 2, 63, 64
5, 80160, Note_on_c, 2, 51, 70
5, 80250, Note_off_c, 2, 51, 64
5, 80250, Note_on_c, 2, 50, 70
5, 80280, Note_off_c, 2, 50, 64
5, 80280, Note_on_c, 2, 53, 70
5, 80370, Note_off_c, 2, 53, 64
5, 80370, Note_on_c, 2, 51, 70
5, 80400, Note_off_c, 2, 51, 64
5, 80400, Note_on_c, 2, 56, 70
5, 80490, Note_off_c, 2, 56, 64
5, 80490, Note_on_c, 2, 55, 70
5, 80520, Note_off_c, 2, 55, 64
5, 80520, Note_on_c, 2, 58, 70
5, 80616, Note_off_c, 2, 58, 64
5, 84000, Note_on_c, 2, 60, 70
5, 84240, Note_off_c, 2, 60, 64
5, 84240, Note_on_c, 2, 61, 70
5, 84330, Note_off_c, 2, 61, 64
5, 84330, Note_on_c, 2, 63, 70
5, 84360, Note_off_c, 2, 63, 64
5, 84360, Note_on_c, 2, 65, 70
5, 84450, Note_off_c, 2, 65, 64
5, 84450, Note_on_c, 2, 61, 70
5, 84480, Note_off_c, 2, 61, 64
5, 84480, Note_on_c, 2, 60, 70
5, 84576, Note_off_c, 2, 60, 64
5, 84720, Note_on_c, 2, 56, 70
5, 84810, Note_off_c, 2, 56, 64
5, 84810, Note_on_c, 2, 55, 70
5, 84840, Note_off_c, 2, 55, 64
5, 84840, Note_on_c, 2, 58, 70
5, 84930, Note_off_c, 2, 58, 64
5, 84930, Note_on_c, 2, 56, 70
5, 84960, Note_off_c, 2, 56, 64
5, 84960, Note_on_c, 2, 60, 70
5, 85050, Note_off_c, 2, 60, 64
5, 85050, Note_on_c, 2, 58, 70
5, 85080, Note_off_c, 2, 58, 64
5, 85080, Note_on_c, 2, 61, 70
5, 85170, Note_off_c, 2, 61, 64
5, 85170, Note_on_c, 2, 60, 70
5, 85200, Note_off_c, 2, 60, 64
5, 85200, Note_on_c, 2, 63, 70
5, 85272, Note_off_c, 2, 63, 64
5, 85320, Note_on_c, 2, 63, 70
5, 85392, Note_off_c, 2, 63, 64
5, 86760, Note_on_c, 2, 63, 58
5, 86856, Note_off_c, 2, 63, 64
5, 86880, Note_on_c, 2, 63, 58
5, 87240, Note_off_c, 2, 63, 64
5, 87240, Note_on_c, 2, 62, 58
5, 87354, Note_off_c, 2, 62, 64
5, 87360, Note_on_c, 2, 61, 58
5, 87720, Note_off_c, 2, 61, 64
5, 87720, Note_on_c, 2, 60, 58
5, 87900, Note_off_c, 2, 60, 64
5, 87900, Note_on_c, 2, 58, 58
5, 87960, Note_off_c, 2, 58, 64
5, 87960, Note_on_c, 2, 64, 58
5, 88020, Note_off_c, 2, 64, 64
5, 88020, Note_on_c, 2, 65, 58
5, 88080, Note_off_c, 2, 65, 64
5, 88080, Note_on_c, 2, 63, 58
5, 88140, Note_off_c, 2, 63, 64
5, 88140, Note_on_c, 2, 61, 58
5, 88200, Note_off_c, 2, 61, 64
5, 88200, Note_on_c, 2, 60, 58
5, 88260, Note_off_c, 2, 60, 64
5, 88260, Note_on_c, 2, 58, 58
5, 88308, Note_off_c, 2, 58, 64
5, 88320, Note_on_c, 2, 56, 58
5, 88680, Note_off_c, 2, 56, 64
5, 88680, Note_on_c, 2, 60, 58
5, 88740, Note_off_c, 2, 60, 64
5, 88740, Note_on_c, 2, 58, 58
5, 88788, Note_off_c, 2, 58, 64
5, 88800, Note_on_c, 2, 56, 70
5, 88890, Note_off_c, 2, 56, 64
5, 88890, Note_on_c, 2, 55, 70
5, 88920, Note_off_c, 2, 55, 64
5, 88920, Note_on_c, 2, 58, 70
5, 89010, Note_off_c, 2, 58, 64
5, 89010, Note_on_c, 2, 56, 70
5, 89040, Note_off_c, 2, 56, 64
5, 89040, Note_on_c, 2, 61, 70
5, 89130, Note_off_c, 2, 61, 64
5, 89130, Note_on_c, 2, 60, 70
5, 89160, Note_off_c, 2, 60, 64
5, 89160, Note_on_c, 2, 63, 70
5, 89256, Note_off_c, 2, 63, 64
5, 89280, Note_on_c, 2, 56, 58
5, 89370, Note_off_c, 2, 56, 64
5, 89370, Note_on_c, 2, 55, 58
5, 89400, Note_off_c, 2, 55, 64
5, 89400, Note_on_c, 2, 58, 58
5, 89490, Note_off_c, 2, 58, 64
5, 89490, Note_on_c, 2, 56, 58
5, 89520, Note_off_c, 2, 56, 64
5, 89520, Note_on_c, 2, 61, 58
5, 89610, Note_off_c, 2, 61, 64
5, 89610, Note_on_c, 2, 60, 58
5, 89640, Note_off_c, 2, 60, 64
5, 89640, Note_on_c, 2, 63, 58
5, 89736, Note_off_c, 2, 63, 64
5, 89760, Note_on_c, 2, 56, 105
5, 89850, Note_off_c, 2, 56, 64
5, 89850, Note_on_c, 2, 55, 105
5, 89880, Note_off_c, 2, 55, 64
5, 89880, Note_on_c, 2, 58, 105
5, 89970, Note_off_c, 2, 58, 64
5, 89970, Note_on_c, 2, 56, 105
5, 90000, Note_off_c, 2, 56, 64
5, 90000, Note_on_c, 2, 61, 105
5, 90090, Note_off_c, 2, 61, 64
5, 90090, Note_on_c, 2, 60, 105
5, 90120, Note_off_c, 2, 60, 64
5, 90120, Note_on_c, 2, 63, 105
5, 90180, Note_off_c, 2, 63, 64
5, 90240, Note_on_c, 2, 56, 105
5, 90336, Note_off_c, 2, 56, 64
5, 90336, End_track
6, 0, Start_track
6, 0, Program_c, 2, 70
6, 0, Control_c, 2, 7, 89
6, 0, Control_c, 2, 91, 80
6, 0, Control_c, 2, 10, 72
6, 26400, Note_on_c, 2, 48, 58
6, 26494, Note_off_c, 2, 48, 64
6, 26520, Note_on_c, 2, 48, 58
6, 26614, Note_off_c, 2, 48, 64
6, 26640, Note_on_c, 2, 48, 58
6, 26734, Note_off_c, 2, 48, 64
6, 26760, Note_on_c, 2, 48, 58
6, 26854, Note_off_c, 2, 48, 64
6, 26880, Note_on_c, 2, 48, 58
6, 27360, Note_off_c, 2, 48, 64
6, 27360, Note_on_c, 2, 53, 58
6, 27552, Note_off_c, 2, 53, 64
6, 39360, Note_on_c, 2, 56, 70
6, 39450, Note_off_c, 2, 56, 64
6, 39480, Note_on_c, 2, 56, 70
6, 39570, Note_off_c, 2, 56, 64
6, 39600, Note_on_c, 2, 56, 70
6, 39690, Note_off_c, 2, 56, 64
6, 39720, Note_on_c, 2, 56, 70
6, 39810, Note_off_c, 2, 56, 64
6, 39840, Note_on_c, 2, 56, 70
6, 39900, Note_off_c, 2, 56, 64
6, 39900, Note_on_c, 2, 55, 70
6, 39960, Note_off_c, 2, 55, 64
6, 39960, Note_on_c, 2, 56, 70
6, 40020, Note_off_c, 2, 56, 64
6, 40020, Note_on_c, 2, 58, 70
6, 40080, Note_off_c, 2, 58, 64
6, 40080, Note_on_c, 2, 56, 70
6, 40140, Note_off_c, 2, 56, 64
6, 40140, Note_on_c, 2, 55, 70
6, 40200, Note_off_c, 2, 55, 64
6, 40200, Note_on_c, 2, 53, 70
6, 40260, Note_off_c, 2, 53, 64
6, 40260, Note_on_c, 2, 51, 70
6, 40308, Note_off_c, 2, 51, 64
6, 40320, Note_on_c, 2, 56, 58
6, 40410, Note_off_c, 2, 56, 64
6, 40440, Note_on_c, 2, 56, 58
6, 40530, Note_off_c, 2, 56, 64
6, 40560, Note_on_c, 2, 56, 58
6, 40650, Note_off_c, 2, 56, 64
6, 40680, Note_on_c, 2, 56, 58
6, 40770, Note_off_c, 2, 56, 64
6, 49920, Note_on_c, 2, 55, 58
6, 49953, Note_off_c, 2, 55, 64
6, 49980, Note_on_c, 2, 53, 58
6, 50013, Note_off_c, 2, 53, 64
6, 50040, Note_on_c, 2, 51, 58
6, 50073, Note_off_c, 2, 51, 64
6, 50100, Note_on_c, 2, 49, 58
6, 50133, Note_off_c, 2, 49, 64
6, 50160, Note_on_c, 2, 48, 58
6, 50193, Note_off_c, 2, 48, 64
6, 50220, Note_on_c, 2, 46, 58
6, 50253, Note_off_c, 2, 46, 64
6, 50280, Note_on_c, 2, 44, 58
6, 50313, Note_off_c, 2, 44, 64
6, 50340, Note_on_c, 2, 43, 58
6, 50373, Note_off_c, 2, 43, 64
6, 50400, Note_on_c, 2, 41, 58
6, 50496, Note_off_c, 2, 41, 64
6, 50880, Note_on_c, 2, 56, 58
6, 50913, Note_off_c, 2, 56, 64
6, 50940, Note_on_c, 2, 55, 58
6, 50973, Note_off_c, 2, 55, 64
6, 51000, Note_on_c, 2, 53, 58
6, 51033, Note_off_c, 2, 53, 64
6, 51060, Note_on_c, 2, 51, 58
6, 51093, Note_off_c, 2, 51, 64
6, 51120, Note_on_c, 2, 49, 58
6, 51153, Note_off_c, 2, 49, 64
6, 51180, Note_on_c, 2, 48, 58
6, 51213, Note_off_c, 2, 48, 64
6, 51240, Note_on_c, 2, 46, 58
6, 51273, Note_off_c, 2, 46, 64
6, 51300, Note_on_c, 2, 44, 58
6, 51333, Note_off_c, 2, 44, 64
6, 51360, Note_on_c, 2, 43, 58
6, 51456, Note_off_c, 2, 43, 64
6, 51840, Note_on_c, 2, 58, 58
6, 51873, Note_off_c, 2, 58, 64
6, 51900, Note_on_c, 2, 56, 58
6, 51933, Note_off_c, 2, 56, 64
6, 51960, Note_on_c, 2, 55, 58
6, 51993, Note_off_c, 2, 55, 64
6, 52020, Note_on_c, 2, 53, 58
6, 52053, Note_off_c, 2, 53, 64
6, 52080, Note_on_c, 2, 51, 58
6, 52113, Note_off_c, 2, 51, 64
6, 52140, Note_on_c, 2, 49, 58
6, 52173, Note_off_c, 2, 49, 64
6, 52200, Note_on_c, 2, 48, 58
6, 52233, Note_off_c, 2, 48, 64
6, 52260, Note_on_c, 2, 46, 58
6, 52293, Note_off_c, 2, 46, 64
6, 52320, Note_on_c, 2, 44, 58
6, 52416, Note_off_c, 2, 44, 64
6, 58080, Note_on_c, 2, 59, 58
6, 58320, Note_off_c, 2, 59, 64
6, 58320, Note_on_c, 2, 61, 58
6, 58512, Note_off_c, 2, 61, 64
6, 58560, Note_on_c, 2, 59, 58
6, 58800, Note_off_c, 2, 59, 64
6, 58800, Note_on_c, 2, 58, 58
6, 58992, Note_off_c, 2, 58, 64
6, 68640, Note_on_c, 2, 60, 92
6, 68676, Note_off_c, 2, 60, 64
6, 68700, Note_on_c, 2, 60, 92
6, 68736, Note_off_c, 2, 60, 64
6, 68760, Note_on_c, 2, 60, 92
6, 68796, Note_off_c, 2, 60, 64
6, 68820, Note_on_c, 2, 60, 92
6, 68856, Note_off_c, 2, 60, 64
6, 68880, Note_on_c, 2, 58, 92
6, 68916, Note_off_c, 2, 58, 64
6, 68940, Note_on_c, 2, 58, 92
6, 68976, Note_off_c, 2, 58, 64
6, 69000, Note_on_c, 2, 58, 92
6, 69036, Note_off_c, 2, 58, 64
6, 69060, Note_on_c, 2, 58, 92
6, 69096, Note_off_c, 2, 58, 64
6, 69120, Note_on_c, 2, 58, 92
6, 69156, Note_off_c, 2, 58, 64
6, 69180, Note_on_c, 2, 58, 92
6, 69216, Note_off_c, 2, 58, 64
6, 69240, Note_on_c, 2, 58, 92
6, 69276, Note_off_c, 2, 58, 64
6, 69300, Note_on_c, 2, 58, 92
6, 69336, Note_off_c, 2, 58, 64
6, 69360, Note_on_c, 2, 56, 92
6, 69396, Note_off_c, 2, 56, 64
6, 69420, Note_on_c, 2, 56, 92
6, 69456, Note_off_c, 2, 56, 64
6, 69480, Note_on_c, 2, 56, 92
6, 69516, Note_off_c, 2, 56, 64
6, 69540, Note_on_c, 2, 56, 92
6, 69576, Note_off_c, 2, 56, 64
6, 69600, Note_on_c, 2, 56, 92
6, 69636, Note_off_c, 2, 56, 64
6, 69660, Note_on_c, 2, 56, 92
6, 69696, Note_off_c, 2, 56, 64
6, 69720, Note_on_c, 2, 56, 92
6, 69756, Note_off_c, 2, 56, 64
6, 69780, Note_on_c, 2, 56, 92
6, 69816, Note_off_c, 2, 56, 64
6, 69840, Note_on_c, 2, 55, 92
6, 69876, Note_off_c, 2, 55, 64
6, 69900, Note_on_c, 2, 55, 92
6, 69936, Note_off_c, 2, 55, 64
6, 69960, Note_on_c, 2, 55, 92
6, 69996, Note_off_c, 2, 55, 64
6, 70020, Note_on_c, 2, 55, 92
6, 70056, Note_off_c, 2, 55, 64
6, 70080, Note_on_c, 2, 55, 92
6, 70116, Note_off_c, 2, 55, 64
6, 70140, Note_on_c, 2, 55, 92
6, 70176, Note_off_c, 2, 55, 64
6, 70200, Note_on_c, 2, 55, 92
6, 70236, Note_off_c, 2, 55, 64
6, 70260, Note_on_c, 2, 55, 92
6, 70296, Note_off_c, 2, 55, 64
6, 70320, Note_on_c, 2, 53, 92
6, 70356, Note_off_c, 2, 53, 64
6, 70380, Note_on_c, 2, 53, 92
6, 70416, Note_off_c, 2, 53, 64
6, 70440, Note_on_c, 2, 53, 92
6, 70476, Note_off_c, 2, 53, 64
6, 70500, Note_on_c, 2, 53, 92
6, 70536, Note_off_c, 2, 53, 64
6, 74400, Note_on_c, 2, 56, 70
6, 74490, Note_off_c, 2, 56, 64
6, 74520, Note_on_c, 2, 56, 70
6, 74610, Note_off_c, 2, 56, 64
6, 74640, Note_on_c, 2, 56, 70
6, 74730, Note_off_c, 2, 56, 64
6, 74760, Note_on_c, 2, 56, 70
6, 74850, Note_off_c, 2, 56, 64
6, 74880, Note_on_c, 2, 56, 70
6, 74940, Note_off_c, 2, 56, 64
6, 74940, Note_on_c, 2, 55, 70
6, 75000, Note_off_c, 2, 55, 64
6, 75000, Note_on_c, 2, 56, 70
6, 75060, Note_off_c, 2, 56, 64
6, 75060, Note_on_c, 2, 58, 70
6, 75120, Note_off_c, 2, 58, 64
6, 75120, Note_on_c, 2, 56, 70
6, 75180, Note_off_c, 2, 56, 64
6, 75180, Note_on_c, 2, 55, 70
6, 75240, Note_off_c, 2, 55, 64
6, 75240, Note_on_c, 2, 53, 70
6, 75300, Note_off_c, 2, 53, 64
6, 75300, Note_on_c, 2, 51, 70
6, 75348, Note_off_c, 2, 51, 64
6, 76320, Note_on_c, 2, 56, 70
6, 76410, Note_off_c, 2, 56, 64
6, 76440, Note_on_c, 2, 56, 70
6, 76530, Note_off_c, 2, 56, 64
6, 76560, Note_on_c, 2, 56, 70
6, 76650, Note_off_c, 2, 56, 64
6, 76680, Note_on_c, 2, 56, 70
6, 76770, Note_off_c, 2, 56, 64
6, 76800, Note_on_c, 2, 56, 70
6, 76860, Note_off_c, 2, 56, 64
6, 76860, Note_on_c, 2, 55, 70
6, 76920, Note_off_c, 2, 55, 64
6, 76920, Note_on_c, 2, 56, 70
6, 76980, Note_off_c, 2, 56, 64
6, 76980, Note_on_c, 2, 58, 70
6, 77040, Note_off_c, 2, 58, 64
6, 77040, Note_on_c, 2, 56, 70
6, 77100, Note_off_c, 2, 56, 64
6, 77100, Note_on_c, 2, 55, 70
6, 77160, Note_off_c, 2, 55, 64
6, 77160, Note_on_c, 2, 53, 70
6, 77220, Note_off_c, 2, 53, 64
6, 77220, Note_on_c, 2, 51, 70
6, 77268, Note_off_c, 2, 51, 64
6, 77280, Note_on_c, 2, 51, 58
6, 77460, Note_off_c, 2, 51, 64
6, 77460, Note_on_c, 2, 53, 58
6, 77490, Note_off_c, 2, 53, 64
6, 77490, Note_on_c, 2, 55, 58
6, 77520, Note_off_c, 2, 55, 64
6, 77520, Note_on_c, 2, 56, 58
6, 77616, Note_off_c, 2, 56, 64
6, 77616, End_track
7, 0, Start_track
7, 0, Program_c, 3, 60
7, 0, Control_c, 3, 7, 117
7, 0, Control_c, 3, 10, 36
7, 0, Control_c, 3, 91, 80
7, 26400, Note_on_c, 3, 67, 58
7, 26494, Note_off_c, 3, 67, 64
7, 26520, Note_on_c, 3, 67, 58
7, 26614, Note_off_c, 3, 67, 64
7, 26640, Note_on_c, 3, 67, 58
7, 26734, Note_off_c, 3, 67, 64
7, 26760, Note_on_c, 3, 67, 58
7, 26854, Note_off_c, 3, 67, 64
7, 26880, Note_on_c, 3, 67, 58
7, 27360, Note_off_c, 3, 67, 64
7, 27360, Note_on_c, 3, 65, 92
7, 27816, Note_off_c, 3, 65, 64
7, 27840, Note_on_c, 3, 67, 92
7, 28296, Note_off_c, 3, 67, 64
7, 28320, Note_on_c, 3, 65, 92
7, 29184, Note_off_c, 3, 65, 64
7, 29280, Note_on_c, 3, 63, 92
7, 29664, Note_off_c, 3, 63, 64
7, 29760, Note_on_c, 3, 63, 92
7, 29760, Note_on_c, 3, 51, 92
7, 30144, Note_off_c, 3, 51, 64
7, 30144, Note_off_c, 3, 63, 64
7, 30240, Note_on_c, 3, 58, 92
7, 30240, Note_on_c, 3, 46, 92
7, 30432, Note_off_c, 3, 46, 64
7, 30432, Note_off_c, 3, 58, 64
7, 30480, Note_on_c, 3, 51, 92
7, 30480, Note_on_c, 3, 63, 92
7, 30672, Note_off_c, 3, 63, 64
7, 30672, Note_off_c, 3, 51, 64
7, 30720, Note_on_c, 3, 58, 92
7, 30720, Note_on_c, 3, 46, 92
7, 30912, Note_off_c, 3, 46, 64
7, 30912, Note_off_c, 3, 58, 64
7, 30960, Note_on_c, 3, 51, 92
7, 30960, Note_on_c, 3, 63, 92
7, 31152, Note_off_c, 3, 63, 64
7, 31152, Note_off_c, 3, 51, 64
7, 31200, Note_on_c, 3, 46, 58
7, 31200, Note_on_c, 3, 58, 58
7, 34560, Note_off_c, 3, 46, 64
7, 34560, Note_on_c, 3, 51, 58
7, 34656, Note_off_c, 3, 58, 64
7, 34656, Note_off_c, 3, 51, 64
7, 35520, Note_on_c, 3, 58, 92
7, 35520, Note_on_c, 3, 70, 92
7, 35904, Note_off_c, 3, 70, 64
7, 35904, Note_off_c, 3, 58, 64
7, 36480, Note_on_c, 3, 55, 92
7, 36480, Note_on_c, 3, 67, 92
7, 36864, Note_off_c, 3, 67, 64
7, 36864, Note_off_c, 3, 55, 64
7, 38400, Note_on_c, 3, 58, 58
7, 38400, Note_on_c, 3, 46, 58
7, 38856, Note_off_c, 3, 46, 64
7, 38856, Note_off_c, 3, 58, 64
7, 38880, Note_on_c, 3, 51, 58
7, 40776, Note_off_c, 3, 51, 64
7, 40800, Note_on_c, 3, 63, 92
7, 40800, Note_on_c, 3, 51, 92
7, 40992, Note_off_c, 3, 51, 64
7, 40992, Note_off_c, 3, 63, 64
7, 41040, Note_on_c, 3, 63, 92
7, 41040, Note_on_c, 3, 51, 92
7, 41232, Note_off_c, 3, 51, 64
7, 41232, Note_off_c, 3, 63, 64
7, 41280, Note_on_c, 3, 58, 92
7, 41280, Note_on_c, 3, 46, 92
7, 41370, Note_off_c, 3, 46, 64
7, 41370, Note_off_c, 3, 58, 64
7, 41400, Note_on_c, 3, 58, 92
7, 41400, Note_on_c, 3, 46, 92
7, 41490, Note_off_c, 3, 46, 64
7, 41490, Note_off_c, 3, 58, 64
7, 41520, Note_on_c, 3, 46, 92
7, 41520, Note_on_c, 3, 58, 92
7, 41610, Note_off_c, 3, 58, 64
7, 41610, Note_off_c, 3, 46, 64
7, 41640, Note_on_c, 3, 46, 92
7, 41640, Note_on_c, 3, 58, 92
7, 41730, Note_off_c, 3, 58, 64
7, 41730, Note_off_c, 3, 46, 64
7, 41760, Note_on_c, 3, 51, 58
7, 41760, Note_on_c, 3, 63, 58
7, 44136, Note_off_c, 3, 63, 64
7, 44136, Note_off_c, 3, 51, 64
7, 48720, Note_on_c, 3, 58, 58
7, 48798, Note_off_c, 3, 58, 64
7, 48840, Note_on_c, 3, 58, 58
7, 48918, Note_off_c, 3, 58, 64
7, 48960, Note_on_c, 3, 51, 58
7, 49152, Note_off_c, 3, 51, 64
7, 59040, Note_on_c, 3, 66, 92
7, 59424, Note_off_c, 3, 66, 64
7, 59520, Note_on_c, 3, 67, 92
7, 59904, Note_off_c, 3, 67, 64
7, 60000, Note_on_c, 3, 66, 92
7, 60384, Note_off_c, 3, 66, 64
7, 60480, Note_on_c, 3, 65, 92
7, 60864, Note_off_c, 3, 65, 64
7, 60960, Note_on_c, 3, 65, 92
7, 61344, Note_off_c, 3, 65, 64
7, 61440, Note_on_c, 3, 65, 92
7, 61824, Note_off_c, 3, 65, 64
7, 61920, Note_on_c, 3, 67, 92
7, 61920, Note_on_c, 3, 58, 92
7, 62304, Note_off_c, 3, 58, 64
7, 62304, Note_off_c, 3, 67, 64
7, 62400, Note_on_c, 3, 63, 92
7, 62400, Note_on_c, 3, 51, 92
7, 62784, Note_off_c, 3, 51, 64
7, 62784, Note_off_c, 3, 63, 64
7, 63840, Note_on_c, 3, 63, 92
7, 63840, Note_on_c, 3, 51, 92
7, 64032, Note_off_c, 3, 51, 64
7, 64032, Note_off_c, 3, 63, 64
7, 64080, Note_on_c, 3, 51, 92
7, 64080, Note_on_c, 3, 63, 92
7, 64272, Note_off_c, 3, 63, 64
7, 64272, Note_off_c, 3, 51, 64
7, 64320, Note_on_c, 3, 63, 92
7, 64320, Note_on_c, 3, 51, 92
7, 64512, Note_off_c, 3, 51, 64
7, 64512, Note_off_c, 3, 63, 64
7, 64560, Note_on_c, 3, 63, 92
7, 64560, Note_on_c, 3, 51, 92
7, 64752, Note_off_c, 3, 51, 64
7, 64752, Note_off_c, 3, 63, 64
7, 64800, Note_on_c, 3, 51, 70
7, 64800, Note_on_c, 3, 63, 70
7, 68256, Note_off_c, 3, 63, 64
7, 68256, Note_off_c, 3, 51, 64
7, 68640, Note_on_c, 3, 65, 92
7, 68688, Note_off_c, 3, 65, 64
7, 68700, Note_on_c, 3, 65, 92
7, 68748, Note_off_c, 3, 65, 64
7, 68760, Note_on_c, 3, 65, 92
7, 68808, Note_off_c, 3, 65, 64
7, 68820, Note_on_c, 3, 65, 92
7, 68868, Note_off_c, 3, 65, 64
7, 68880, Note_on_c, 3, 65, 92
7, 68928, Note_off_c, 3, 65, 64
7, 68940, Note_on_c, 3, 65, 92
7, 68988, Note_off_c, 3, 65, 64
7, 69000, Note_on_c, 3, 65, 92
7, 69048, Note_off_c, 3, 65, 64
7, 69060, Note_on_c, 3, 65, 92
7, 69108, Note_off_c, 3, 65, 64
7, 69120, Note_on_c, 3, 63, 92
7, 69120, Note_on_c, 3, 51, 92
7, 69168, Note_off_c, 3, 51, 64
7, 69168, Note_off_c, 3, 63, 64
7, 69180, Note_on_c, 3, 51, 92
7, 69180, Note_on_c, 3, 63, 92
7, 69228, Note_off_c, 3, 63, 64
7, 69228, Note_off_c, 3, 51, 64
7, 69240, Note_on_c, 3, 51, 92
7, 69240, Note_on_c, 3, 63, 92
7, 69288, Note_off_c, 3, 63, 64
7, 69288, Note_off_c, 3, 51, 64
7, 69300, Note_on_c, 3, 63, 92
7, 69300, Note_on_c, 3, 51, 92
7, 69348, Note_off_c, 3, 51, 64
7, 69348, Note_off_c, 3, 63, 64
7, 69360, Note_on_c, 3, 51, 92
7, 69360, Note_on_c, 3, 63, 92
7, 69408, Note_off_c, 3, 63, 64
7, 69408, Note_off_c, 3, 51, 64
7, 69420, Note_on_c, 3, 63, 92
7, 69420, Note_on_c, 3, 51, 92
7, 69468, Note_off_c, 3, 51, 64
7, 69468, Note_off_c, 3, 63, 64
7, 69480, Note_on_c, 3, 63, 92
7, 69480, Note_on_c, 3, 51, 92
7, 69528, Note_off_c, 3, 51, 64
7, 69528, Note_off_c, 3, 63, 64
7, 69540, Note_on_c, 3, 51, 92
7, 69540, Note_on_c, 3, 63, 92
7, 69588, Note_off_c, 3, 63, 64
7, 69588, Note_off_c, 3, 51, 64
7, 69600, Note_on_c, 3, 68, 92
7, 69648, Note_off_c, 3, 68, 64
7, 69660, Note_on_c, 3, 68, 92
7, 69708, Note_off_c, 3, 68, 64
7, 69720, Note_on_c, 3, 68, 92
7, 69768, Note_off_c, 3, 68, 64
7, 69780, Note_on_c, 3, 68, 92
7, 69828, Note_off_c, 3, 68, 64
7, 69840, Note_on_c, 3, 67, 92
7, 69888, Note_off_c, 3, 67, 64
7, 69900, Note_on_c, 3, 67, 92
7, 69948, Note_off_c, 3, 67, 64
7, 69960, Note_on_c, 3, 67, 92
7, 70008, Note_off_c, 3, 67, 64
7, 70020, Note_on_c, 3, 67, 92
7, 70068, Note_off_c, 3, 67, 64
7, 70080, Note_on_c, 3, 70, 92
7, 70080, Note_on_c, 3, 67, 92
7, 70128, Note_off_c, 3, 67, 64
7, 70128, Note_off_c, 3, 70, 64
7, 70140, Note_on_c, 3, 67, 92
7, 70140, Note_on_c, 3, 70, 92
7, 70188, Note_off_c, 3, 70, 64
7, 70188, Note_off_c, 3, 67, 64
7, 70200, Note_on_c, 3, 67, 92
7, 70200, Note_on_c, 3, 70, 92
7, 70248, Note_off_c, 3, 70, 64
7, 70248, Note_off_c, 3, 67, 64
7, 70260, Note_on_c, 3, 70, 92
7, 70260, Note_on_c, 3, 67, 92
7, 70308, Note_off_c, 3, 67, 64
7, 70308, Note_off_c, 3, 70, 64
7, 70320, Note_on_c, 3, 65, 92
7, 70320, Note_on_c, 3, 68, 92
7, 70368, Note_off_c, 3, 68, 64
7, 70368, Note_off_c, 3, 65, 64
7, 70380, Note_on_c, 3, 68, 92
7, 70380, Note_on_c, 3, 65, 92
7, 70428, Note_off_c, 3, 65, 64
7, 70428, Note_off_c, 3, 68, 64
7, 70440, Note_on_c, 3, 68, 92
7, 70440, Note_on_c, 3, 65, 92
7, 70488, Note_off_c, 3, 65, 64
7, 70488, Note_off_c, 3, 68, 64
7, 70500, Note_on_c, 3, 65, 92
7, 70500, Note_on_c, 3, 68, 92
7, 70548, Note_off_c, 3, 68, 64
7, 70548, Note_off_c, 3, 65, 64
7, 72960, Note_on_c, 3, 51, 58
7, 72960, Note_on_c, 3, 63, 58
7, 75264, Note_off_c, 3, 51, 64
7, 75264, Note_off_c, 3, 63, 64
7, 75360, Note_on_c, 3, 51, 92
7, 75360, Note_on_c, 3, 63, 92
7, 75552, Note_off_c, 3, 63, 64
7, 75552, Note_off_c, 3, 51, 64
7, 75600, Note_on_c, 3, 65, 92
7, 75792, Note_off_c, 3, 65, 64
7, 75840, Note_on_c, 3, 63, 92
7, 75936, Note_off_c, 3, 63, 64
7, 75960, Note_on_c, 3, 63, 92
7, 75960, Note_on_c, 3, 51, 92
7, 76056, Note_off_c, 3, 51, 64
7, 76056, Note_off_c, 3, 63, 64
7, 76080, Note_on_c, 3, 63, 92
7, 76080, Note_on_c, 3, 51, 92
7, 76176, Note_off_c, 3, 51, 64
7, 76176, Note_off_c, 3, 63, 64
7, 76200, Note_on_c, 3, 51, 92
7, 76200, Note_on_c, 3, 63, 92
7, 76296, Note_off_c, 3, 63, 64
7, 76296, Note_off_c, 3, 51, 64
7, 76320, Note_on_c, 3, 39, 58
7, 76320, Note_on_c, 3, 51, 58
7, 78336, Note_off_c, 3, 51, 64
7, 78336, Note_off_c, 3, 39, 64
7, 81120, Note_on_c, 3, 51, 58
7, 81120, Note_on_c, 3, 63, 58
7, 81984, Note_off_c, 3, 63, 64
7, 81984, Note_off_c, 3, 51, 64
7, 88320, Note_on_c, 3, 51, 58
7, 88320, Note_on_c, 3, 63, 58
7, 88896, Note_off_c, 3, 63, 64
7, 88896, Note_off_c, 3, 51, 64
7, 90120, Note_on_c, 3, 63, 105
7, 90120, Note_on_c, 3, 51, 105
7, 90186, Note_off_c, 3, 51, 64
7, 90186, Note_off_c, 3, 63, 64
7, 90240, Note_on_c, 3, 63, 105
7, 90240, Note_on_c, 3, 51, 105
7, 90336, Note_off_c, 3, 51, 64
7, 90336, Note_off_c, 3, 63, 64
7, 90336, End_track
8, 0, Start_track
8, 0, Program_c, 10, 48
8, 0, Control_c, 10, 7, 126
8, 0, Control_c, 10, 10, 28
8, 0, Control_c, 10, 91, 80
8, 480, Note_on_c, 10, 63, 70
8, 720, Note_off_c, 10, 63, 64
8, 720, Note_on_c, 10, 65, 70
8, 810, Note_off_c, 10, 65, 64
8, 810, Note_on_c, 10, 67, 70
8, 840, Note_off_c, 10, 67, 64
8, 840, Note_on_c, 10, 68, 70
8, 930, Note_off_c, 10, 68, 64
8, 930, Note_on_c, 10, 65, 70
8, 960, Note_off_c, 10, 65, 64
8, 960, Note_on_c, 10, 63, 70
8, 1056, Note_off_c, 10, 63, 64
8, 1200, Note_on_c, 10, 68, 70
8, 1290, Note_off_c, 10, 68, 64
8, 1290, Note_on_c, 10, 67, 70
8, 1314, Note_off_c, 10, 67, 64
8, 1320, Note_on_c, 10, 70, 70
8, 1410, Note_off_c, 10, 70, 64
8, 1410, Note_on_c, 10, 68, 70
8, 1434, Note_off_c, 10, 68, 64
8, 1440, Note_on_c, 10, 72, 70
8, 1530, Note_off_c, 10, 72, 64
8, 1530, Note_on_c, 10, 70, 70
8, 1554, Note_off_c, 10, 70, 64
8, 1560, Note_on_c, 10, 73, 70
8, 1650, Note_off_c, 10, 73, 64
8, 1650, Note_on_c, 10, 72, 70
8, 1674, Note_off_c, 10, 72, 64
8, 1680, Note_on_c, 10, 75, 70
8, 1752, Note_off_c, 10, 75, 64
8, 1800, Note_on_c, 10, 75, 70
8, 1872, Note_off_c, 10, 75, 64
8, 1920, Note_on_c, 10, 75, 70
8, 2160, Note_off_c, 10, 75, 64
8, 2160, Note_on_c, 10, 63, 58
8, 2256, Note_off_c, 10, 63, 64
8, 2400, Note_on_c, 10, 63, 70
8, 2640, Note_off_c, 10, 63, 64
8, 2640, Note_on_c, 10, 65, 70
8, 2730, Note_off_c, 10, 65, 64
8, 2730, Note_on_c, 10, 67, 70
8, 2760, Note_off_c, 10, 67, 64
8, 2760, Note_on_c, 10, 68, 70
8, 2850, Note_off_c, 10, 68, 64
8, 2850, Note_on_c, 10, 65, 70
8, 2880, Note_off_c, 10, 65, 64
8, 2880, Note_on_c, 10, 63, 70
8, 2976, Note_off_c, 10, 63, 64
8, 3120, Note_on_c, 10, 68, 70
8, 3210, Note_off_c, 10, 68, 64
8, 3210, Note_on_c, 10, 67, 70
8, 3234, Note_off_c, 10, 67, 64
8, 3240, Note_on_c, 10, 70, 70
8, 3330, Note_off_c, 10, 70, 64
8, 3330, Note_on_c, 10, 68, 70
8, 3354, Note_off_c, 10, 68, 64
8, 3360, Note_on_c, 10, 72, 70
8, 3450, Note_off_c, 10, 72, 64
8, 3450, Note_on_c, 10, 70, 70
8, 3474, Note_off_c, 10, 70, 64
8, 3480, Note_on_c, 10, 74, 70
8, 3570, Note_off_c, 10, 74, 64
8, 3570, Note_on_c, 10, 72, 70
8, 3594, Note_off_c, 10, 72, 64
8, 3600, Note_on_c, 10, 75, 70
8, 3672, Note_off_c, 10, 75, 64
8, 3720, Note_on_c, 10, 82, 70
8, 3792, Note_off_c, 10, 82, 64
8, 3840, Note_on_c, 10, 82, 70
8, 4080, Note_off_c, 10, 82, 64
8, 4080, Note_on_c, 10, 75, 70
8, 4176, Note_off_c, 10, 75, 64
8, 4320, Note_on_c, 10, 63, 70
8, 4560, Note_off_c, 10, 63, 64
8, 4560, Note_on_c, 10, 65, 70
8, 4650, Note_off_c, 10, 65, 64
8, 4650, Note_on_c, 10, 67, 70
8, 4680, Note_off_c, 10, 67, 64
8, 4680, Note_on_c, 10, 68, 70
8, 4770, Note_off_c, 10, 68, 64
8, 4770, Note_on_c, 10, 65, 70
8, 4800, Note_off_c, 10, 65, 64
8, 4800, Note_on_c, 10, 63, 70
8, 4896, Note_off_c, 10, 63, 64
8, 5040, Note_on_c, 10, 68, 70
8, 5130, Note_off_c, 10, 68, 64
8, 5130, Note_on_c, 10, 67, 70
8, 5154, Note_off_c, 10, 67, 64
8, 5160, Note_on_c, 10, 70, 70
8, 5250, Note_off_c, 10, 70, 64
8, 5250, Note_on_c, 10, 68, 70
8, 5274, Note_off_c, 10, 68, 64
8, 5280, Note_on_c, 10, 72, 70
8, 5370, Note_off_c, 10, 72, 64
8, 5370, Note_on_c, 10, 70, 70
8, 5394, Note_off_c, 10, 70, 64
8, 5400, Note_on_c, 10, 73, 70
8, 5490, Note_off_c, 10, 73, 64
8, 5490, Note_on_c, 10, 72, 70
8, 5514, Note_off_c, 10, 72, 64
8, 5520, Note_on_c, 10, 75, 70
8, 5592, Note_off_c, 10, 75, 64
8, 5640, Note_on_c, 10, 75, 70
8, 5712, Note_off_c, 10, 75, 64
8, 5760, Note_on_c, 10, 75, 70
8, 6000, Note_off_c, 10, 75, 64
8, 6000, Note_on_c, 10, 63, 58
8, 6096, Note_off_c, 10, 63, 64
8, 6240, Note_on_c, 10, 63, 70
8, 6480, Note_off_c, 10, 63, 64
8, 6480, Note_on_c, 10, 65, 70
8, 6570, Note_off_c, 10, 65, 64
8, 6570, Note_on_c, 10, 67, 70
8, 6600, Note_off_c, 10, 67, 64
8, 6600, Note_on_c, 10, 68, 70
8, 6690, Note_off_c, 10, 68, 64
8, 6690, Note_on_c, 10, 65, 70
8, 6720, Note_off_c, 10, 65, 64
8, 6720, Note_on_c, 10, 63, 70
8, 6816, Note_off_c, 10, 63, 64
8, 6960, Note_on_c, 10, 68, 70
8, 7050, Note_off_c, 10, 68, 64
8, 7050, Note_on_c, 10, 67, 70
8, 7074, Note_off_c, 10, 67, 64
8, 7080, Note_on_c, 10, 70, 70
8, 7170, Note_off_c, 10, 70, 64
8, 7170, Note_on_c, 10, 68, 70
8, 7194, Note_off_c, 10, 68, 64
8, 7200, Note_on_c, 10, 72, 70
8, 7290, Note_off_c, 10, 72, 64
8, 7290, Note_on_c, 10, 70, 70
8, 7314, Note_off_c, 10, 70, 64
8, 7320, Note_on_c, 10, 74, 70
8, 7410, Note_off_c, 10, 74, 64
8, 7410, Note_on_c, 10, 72, 70
8, 7434, Note_off_c, 10, 72, 64
8, 7440, Note_on_c, 10, 75, 70
8, 7512, Note_off_c, 10, 75, 64
8, 7560, Note_on_c, 10, 82, 70
8, 7632, Note_off_c, 10, 82, 64
8, 7680, Note_on_c, 10, 82, 70
8, 7920, Note_off_c, 10, 82, 64
8, 7920, Note_on_c, 10, 75, 70
8, 8016, Note_off_c, 10, 75, 64
8, 8640, Note_on_c, 10, 75, 70
8, 8730, Note_off_c, 10, 75, 64
8, 8730, Note_on_c, 10, 74, 70
8, 8760, Note_off_c, 10, 74, 64
8, 8760, Note_on_c, 10, 79, 70
8, 8850, Note_off_c, 10, 79, 64
8, 8850, Note_on_c, 10, 77, 70
8, 8880, Note_off_c, 10, 77, 64
8, 8880, Note_on_c, 10, 80, 70
8, 8970, Note_off_c, 10, 80, 64
8, 8970, Note_on_c, 10, 79, 70
8, 9000, Note_off_c, 10, 79, 64
8, 9000, Note_on_c, 10, 82, 70
8, 9096, Note_off_c, 10, 82, 64
8, 9600, Note_on_c, 10, 75, 70
8, 9690, Note_off_c, 10, 75, 64
8, 9690, Note_on_c, 10, 74, 70
8, 9720, Note_off_c, 10, 74, 64
8, 9720, Note_on_c, 10, 80, 70
8, 9810, Note_off_c, 10, 80, 64
8, 9810, Note_on_c, 10, 79, 70
8, 9840, Note_off_c, 10, 79, 64
8, 9840, Note_on_c, 10, 82, 70
8, 9930, Note_off_c, 10, 82, 64
8, 9930, Note_on_c, 10, 80, 70
8, 9960, Note_off_c, 10, 80, 64
8, 9960, Note_on_c, 10, 84, 70
8, 10056, Note_off_c, 10, 84, 64
8, 10560, Note_on_c, 10, 75, 70
8, 10650, Note_off_c, 10, 75, 64
8, 10650, Note_on_c, 10, 74, 70
8, 10680, Note_off_c, 10, 74, 64
8, 10680, Note_on_c, 10, 82, 70
8, 10770, Note_off_c, 10, 82, 64
8, 10770, Note_on_c, 10, 80, 70
8, 10800, Note_off_c, 10, 80, 64
8, 10800, Note_on_c, 10, 84, 70
8, 10890, Note_off_c, 10, 84, 64
8, 10890, Note_on_c, 10, 82, 70
8, 10920, Note_off_c, 10, 82, 64
8, 10920, Note_on_c, 10, 85, 70
8, 10968, Note_off_c, 10, 85, 64
8, 11010, Note_on_c, 10, 82, 70
8, 11040, Note_off_c, 10, 82, 64
8, 11040, Note_on_c, 10, 84, 70
8, 11088, Note_off_c, 10, 84, 64
8, 11130, Note_on_c, 10, 79, 70
8, 11160, Note_off_c, 10, 79, 64
8, 11160, Note_on_c, 10, 80, 70
8, 11208, Note_off_c, 10, 80, 64
8, 11250, Note_on_c, 10, 76, 70
8, 11280, Note_off_c, 10, 76, 64
8, 11280, Note_on_c, 10, 77, 70
8, 11328, Note_off_c, 10, 77, 64
8, 11370, Note_on_c, 10, 73, 70
8, 11400, Note_off_c, 10, 73, 64
8, 11400, Note_on_c, 10, 74, 70
8, 11448, Note_off_c, 10, 74, 64
8, 11490, Note_on_c, 10, 70, 70
8, 11520, Note_off_c, 10, 70, 64
8, 11520, Note_on_c, 10, 75, 70
8, 11568, Note_off_c, 10, 75, 64
8, 11610, Note_on_c, 10, 79, 70
8, 11640, Note_off_c, 10, 79, 64
8, 11640, Note_on_c, 10, 82, 70
8, 11688, Note_off_c, 10, 82, 64
8, 11730, Note_on_c, 10, 75, 70
8, 11760, Note_off_c, 10, 75, 64
8, 11760, Note_on_c, 10, 79, 70
8, 11808, Note_off_c, 10, 79, 64
8, 11850, Note_on_c, 10, 70, 70
8, 11880, Note_off_c, 10, 70, 64
8, 11880, Note_on_c, 10, 80, 70
8, 11928, Note_off_c, 10, 80, 64
8, 11970, Note_on_c, 10, 77, 70
8, 12000, Note_off_c, 10, 77, 64
8, 12000, Note_on_c, 10, 75, 70
8, 12048, Note_off_c, 10, 75, 64
8, 12090, Note_on_c, 10, 79, 70
8, 12120, Note_off_c, 10, 79, 64
8, 12120, Note_on_c, 10, 82, 70
8, 12168, Note_off_c, 10, 82, 64
8, 12210, Note_on_c, 10, 75, 70
8, 12240, Note_off_c, 10, 75, 64
8, 12240, Note_on_c, 10, 79, 70
8, 12288, Note_off_c, 10, 79, 64
8, 12330, Note_on_c, 10, 70, 70
8, 12360, Note_off_c, 10, 70, 64
8, 12360, Note_on_c, 10, 80, 70
8, 12408, Note_off_c, 10, 80, 64
8, 12450, Note_on_c, 10, 77, 70
8, 12480, Note_off_c, 10, 77, 64
8, 12480, Note_on_c, 10, 75, 70
8, 12528, Note_off_c, 10, 75, 64
8, 12570, Note_on_c, 10, 76, 70
8, 12600, Note_off_c, 10, 76, 64
8, 12600, Note_on_c, 10, 77, 70
8, 12648, Note_off_c, 10, 77, 64
8, 12690, Note_on_c, 10, 75, 70
8, 12720, Note_off_c, 10, 75, 64
8, 12720, Note_on_c, 10, 73, 70
8, 12768, Note_off_c, 10, 73, 64
8, 12810, Note_on_c, 10, 72, 70
8, 12840, Note_off_c, 10, 72, 64
8, 12840, Note_on_c, 10, 70, 70
8, 12888, Note_off_c, 10, 70, 64
8, 12930, Note_on_c, 10, 68, 70
8, 12960, Note_off_c, 10, 68, 64
8, 12960, Note_on_c, 10, 67, 70
8, 13032, Note_off_c, 10, 67, 64
8, 13440, Note_on_c, 10, 63, 70
8, 13680, Note_off_c, 10, 63, 64
8, 13680, Note_on_c, 10, 65, 70
8, 13770, Note_off_c, 10, 65, 64
8, 13770, Note_on_c, 10, 67, 70
8, 13800, Note_off_c, 10, 67, 64
8, 13800, Note_on_c, 10, 68, 70
8, 13890, Note_off_c, 10, 68, 64
8, 13890, Note_on_c, 10, 65, 70
8, 13920, Note_off_c, 10, 65, 64
8, 13920, Note_on_c, 10, 63, 70
8, 14016, Note_off_c, 10, 63, 64
8, 14160, Note_on_c, 10, 68, 70
8, 14250, Note_off_c, 10, 68, 64
8, 14250, Note_on_c, 10, 67, 70
8, 14274, Note_off_c, 10, 67, 64
8, 14280, Note_on_c, 10, 70, 70
8, 14370, Note_off_c, 10, 70, 64
8, 14370, Note_on_c, 10, 68, 70
8, 14394, Note_off_c, 10, 68, 64
8, 14400, Note_on_c, 10, 72, 70
8, 14490, Note_off_c, 10, 72, 64
8, 14490, Note_on_c, 10, 70, 70
8, 14514, Note_off_c, 10, 70, 64
8, 14520, Note_on_c, 10, 73, 70
8, 14610, Note_off_c, 10, 73, 64
8, 14610, Note_on_c, 10, 72, 70
8, 14634, Note_off_c, 10, 72, 64
8, 14640, Note_on_c, 10, 75, 70
8, 14712, Note_off_c, 10, 75, 64
8, 14760, Note_on_c, 10, 75, 70
8, 14832, Note_off_c, 10, 75, 64
8, 14880, Note_on_c, 10, 75, 70
8, 15120, Note_off_c, 10, 75, 64
8, 15120, Note_on_c, 10, 63, 58
8, 15216, Note_off_c, 10, 63, 64
8, 15360, Note_on_c, 10, 63, 70
8, 15600, Note_off_c, 10, 63, 64
8, 15600, Note_on_c, 10, 64, 70
8, 15690, Note_off_c, 10, 64, 64
8, 15690, Note_on_c, 10, 66, 70
8, 15720, Note_off_c, 10, 66, 64
8, 15720, Note_on_c, 10, 68, 70
8, 15810, Note_off_c, 10, 68, 64
8, 15810, Note_on_c, 10, 64, 70
8, 15840, Note_off_c, 10, 64, 64
8, 15840, Note_on_c, 10, 63, 70
8, 15936, Note_off_c, 10, 63, 64
8, 16080, Note_on_c, 10, 68, 70
8, 16170, Note_off_c, 10, 68, 64
8, 16170, Note_on_c, 10, 67, 70
8, 16194, Note_off_c, 10, 67, 64
8, 16200, Note_on_c, 10, 70, 70
8, 16290, Note_off_c, 10, 70, 64
8, 16290, Note_on_c, 10, 68, 70
8, 16314, Note_off_c, 10, 68, 64
8, 16320, Note_on_c, 10, 72, 70
8, 16410, Note_off_c, 10, 72, 64
8, 16410, Note_on_c, 10, 70, 70
8, 16434, Note_off_c, 10, 70, 64
8, 16440, Note_on_c, 10, 73, 70
8, 16530, Note_off_c, 10, 73, 64
8, 16530, Note_on_c, 10, 72, 70
8, 16554, Note_off_c, 10, 72, 64
8, 16560, Note_on_c, 10, 75, 70
8, 16632, Note_off_c, 10, 75, 64
8, 16680, Note_on_c, 10, 75, 70
8, 16752, Note_off_c, 10, 75, 64
8, 16800, Note_on_c, 10, 75, 70
8, 17040, Note_off_c, 10, 75, 64
8, 17040, Note_on_c, 10, 68, 70
8, 17136, Note_off_c, 10, 68, 64
8, 17760, Note_on_c, 10, 75, 70
8, 17850, Note_off_c, 10, 75, 64
8, 17850, Note_on_c, 10, 74, 70
8, 17880, Note_off_c, 10, 74, 64
8, 17880, Note_on_c, 10, 79, 70
8, 17970, Note_off_c, 10, 79, 64
8, 17970, Note_on_c, 10, 77, 70
8, 18000, Note_off_c, 10, 77, 64
8, 18000, Note_on_c, 10, 80, 70
8, 18090, Note_off_c, 10, 80, 64
8, 18090, Note_on_c, 10, 79, 70
8, 18120, Note_off_c, 10, 79, 64
8, 18120, Note_on_c, 10, 82, 70
8, 18216, Note_off_c, 10, 82, 64
8, 18720, Note_on_c, 10, 75, 70
8, 18810, Note_off_c, 10, 75, 64
8, 18810, Note_on_c, 10, 74, 70
8, 18840, Note_off_c, 10, 74, 64
8, 18840, Note_on_c, 10, 80, 70
8, 18930, Note_off_c, 10, 80, 64
8, 18930, Note_on_c, 10, 79, 70
8, 18960, Note_off_c, 10, 79, 64
8, 18960, Note_on_c, 10, 82, 70
8, 19050, Note_off_c, 10, 82, 64
8, 19050, Note_on_c, 10, 80, 70
8, 19080, Note_off_c, 10, 80, 64
8, 19080, Note_on_c, 10, 84, 70
8, 19176, Note_off_c, 10, 84, 64
8, 19680, Note_on_c, 10, 75, 70
8, 19770, Note_off_c, 10, 75, 64
8, 19770, Note_on_c, 10, 74, 70
8, 19800, Note_off_c, 10, 74, 64
8, 19800, Note_on_c, 10, 82, 70
8, 19890, Note_off_c, 10, 82, 64
8, 19890, Note_on_c, 10, 80, 70
8, 19920, Note_off_c, 10, 80, 64
8, 19920, Note_on_c, 10, 84, 70
8, 20010, Note_off_c, 10, 84, 64
8, 20010, Note_on_c, 10, 82, 70
8, 20040, Note_off_c, 10, 82, 64
8, 20040, Note_on_c, 10, 85, 70
8, 20088, Note_off_c, 10, 85, 64
8, 20130, Note_on_c, 10, 82, 70
8, 20160, Note_off_c, 10, 82, 64
8, 20160, Note_on_c, 10, 84, 70
8, 20208, Note_off_c, 10, 84, 64
8, 20250, Note_on_c, 10, 79, 70
8, 20280, Note_off_c, 10, 79, 64
8, 20280, Note_on_c, 10, 80, 70
8, 20328, Note_off_c, 10, 80, 64
8, 20370, Note_on_c, 10, 76, 70
8, 20400, Note_off_c, 10, 76, 64
8, 20400, Note_on_c, 10, 77, 70
8, 20448, Note_off_c, 10, 77, 64
8, 20490, Note_on_c, 10, 73, 70
8, 20520, Note_off_c, 10, 73, 64
8, 20520, Note_on_c, 10, 74, 70
8, 20568, Note_off_c, 10, 74, 64
8, 20610, Note_on_c, 10, 70, 70
8, 20640, Note_off_c, 10, 70, 64
8, 20640, Note_on_c, 10, 75, 70
8, 20688, Note_off_c, 10, 75, 64
8, 20730, Note_on_c, 10, 79, 70
8, 20760, Note_off_c, 10, 79, 64
8, 20760, Note_on_c, 10, 82, 70
8, 20808, Note_off_c, 10, 82, 64
8, 20850, Note_on_c, 10, 75, 70
8, 20880, Note_off_c, 10, 75, 64
8, 20880, Note_on_c, 10, 79, 70
8, 20928, Note_off_c, 10, 79, 64
8, 20970, Note_on_c, 10, 70, 70
8, 21000, Note_off_c, 10, 70, 64
8, 21000, Note_on_c, 10, 80, 70
8, 21048, Note_off_c, 10, 80, 64
8, 21090, Note_on_c, 10, 77, 70
8, 21120, Note_off_c, 10, 77, 64
8, 21120, Note_on_c, 10, 75, 70
8, 21168, Note_off_c, 10, 75, 64
8, 21210, Note_on_c, 10, 79, 70
8, 21240, Note_off_c, 10, 79, 64
8, 21240, Note_on_c, 10, 82, 70
8, 21288, Note_off_c, 10, 82, 64
8, 21330, Note_on_c, 10, 75, 70
8, 21360, Note_off_c, 10, 75, 64
8, 21360, Note_on_c, 10, 79, 70
8, 21408, Note_off_c, 10, 79, 64
8, 21450, Note_on_c, 10, 70, 70
8, 21480, Note_off_c, 10, 70, 64
8, 21480, Note_on_c, 10, 80, 70
8, 21528, Note_off_c, 10, 80, 64
8, 21570, Note_on_c, 10, 77, 70
8, 21600, Note_off_c, 10, 77, 64
8, 21600, Note_on_c, 10, 75, 70
8, 21648, Note_off_c, 10, 75, 64
8, 21690, Note_on_c, 10, 76, 70
8, 21720, Note_off_c, 10, 76, 64
8, 21720, Note_on_c, 10, 77, 70
8, 21768, Note_off_c, 10, 77, 64
8, 21810, Note_on_c, 10, 75, 70
8, 21840, Note_off_c, 10, 75, 64
8, 21840, Note_on_c, 10, 73, 70
8, 21888, Note_off_c, 10, 73, 64
8, 21930, Note_on_c, 10, 72, 70
8, 21960, Note_off_c, 10, 72, 64
8, 21960, Note_on_c, 10, 70, 70
8, 22008, Note_off_c, 10, 70, 64
8, 22050, Note_on_c, 10, 68, 70
8, 22080, Note_off_c, 10, 68, 64
8, 22080, Note_on_c, 10, 67, 70
8, 22152, Note_off_c, 10, 67, 64
8, 22560, Note_on_c, 10, 63, 70
8, 22800, Note_off_c, 10, 63, 64
8, 22800, Note_on_c, 10, 65, 70
8, 22890, Note_off_c, 10, 65, 64
8, 22890, Note_on_c, 10, 67, 70
8, 22920, Note_off_c, 10, 67, 64
8, 22920, Note_on_c, 10, 68, 70
8, 23010, Note_off_c, 10, 68, 64
8, 23010, Note_on_c, 10, 65, 70
8, 23040, Note_off_c, 10, 65, 64
8, 23040, Note_on_c, 10, 63, 70
8, 23136, Note_off_c, 10, 63, 64
8, 23280, Note_on_c, 10, 68, 70
8, 23370, Note_off_c, 10, 68, 64
8, 23370, Note_on_c, 10, 67, 70
8, 23394, Note_off_c, 10, 67, 64
8, 23400, Note_on_c, 10, 70, 70
8, 23490, Note_off_c, 10, 70, 64
8, 23490, Note_on_c, 10, 68, 70
8, 23514, Note_off_c, 10, 68, 64
8, 23520, Note_on_c, 10, 72, 70
8, 23610, Note_off_c, 10, 72, 64
8, 23610, Note_on_c, 10, 70, 70
8, 23634, Note_off_c, 10, 70, 64
8, 23640, Note_on_c, 10, 73, 70
8, 23730, Note_off_c, 10, 73, 64
8, 23730, Note_on_c, 10, 72, 70
8, 23754, Note_off_c, 10, 72, 64
8, 23760, Note_on_c, 10, 75, 70
8, 23832, Note_off_c, 10, 75, 64
8, 23880, Note_on_c, 10, 75, 70
8, 23952, Note_off_c, 10, 75, 64
8, 24000, Note_on_c, 10, 75, 70
8, 24240, Note_off_c, 10, 75, 64
8, 24240, Note_on_c, 10, 63, 58
8, 24336, Note_off_c, 10, 63, 64
8, 24480, Note_on_c, 10, 63, 70
8, 24720, Note_off_c, 10, 63, 64
8, 24720, Note_on_c, 10, 64, 70
8, 24810, Note_off_c, 10, 64, 64
8, 24810, Note_on_c, 10, 66, 70
8, 24840, Note_off_c, 10, 66, 64
8, 24840, Note_on_c, 10, 68, 70
8, 24930, Note_off_c, 10, 68, 64
8, 24930, Note_on_c, 10, 64, 70
8, 24960, Note_off_c, 10, 64, 64
8, 24960, Note_on_c, 10, 63, 70
8, 25056, Note_off_c, 10, 63, 64
8, 25200, Note_on_c, 10, 68, 70
8, 25290, Note_off_c, 10, 68, 64
8, 25290, Note_on_c, 10, 67, 70
8, 25314, Note_off_c, 10, 67, 64
8, 25320, Note_on_c, 10, 70, 70
8, 25410, Note_off_c, 10, 70, 64
8, 25410, Note_on_c, 10, 68, 70
8, 25434, Note_off_c, 10, 68, 64
8, 25440, Note_on_c, 10, 72, 70
8, 25530, Note_off_c, 10, 72, 64
8, 25530, Note_on_c, 10, 70, 70
8, 25554, Note_off_c, 10, 70, 64
8, 25560, Note_on_c, 10, 73, 70
8, 25650, Note_off_c, 10, 73, 64
8, 25650, Note_on_c, 10, 72, 70
8, 25674, Note_off_c, 10, 72, 64
8, 25680, Note_on_c, 10, 75, 70
8, 25752, Note_off_c, 10, 75, 64
8, 25800, Note_on_c, 10, 75, 70
8, 25872, Note_off_c, 10, 75, 64
8, 25920, Note_on_c, 10, 75, 70
8, 26160, Note_off_c, 10, 75, 64
8, 26160, Note_on_c, 10, 68, 70
8, 26256, Note_off_c, 10, 68, 64
8, 27360, Note_on_c, 10, 77, 116
8, 27456, Note_off_c, 10, 77, 64
8, 27480, Note_on_c, 10, 72, 116
8, 27552, Note_off_c, 10, 72, 64
8, 27570, Note_on_c, 10, 77, 116
8, 27594, Note_off_c, 10, 77, 64
8, 27600, Note_on_c, 10, 80, 116
8, 27696, Note_off_c, 10, 80, 64
8, 27780, Note_on_c, 10, 80, 116
8, 27800, Note_off_c, 10, 80, 64
8, 27800, Note_on_c, 10, 79, 116
8, 27820, Note_off_c, 10, 79, 64
8, 27820, Note_on_c, 10, 77, 116
8, 27840, Note_off_c, 10, 77, 64
8, 27840, Note_on_c, 10, 76, 116
8, 27936, Note_off_c, 10, 76, 64
8, 27960, Note_on_c, 10, 79, 116
8, 28032, Note_off_c, 10, 79, 64
8, 28050, Note_on_c, 10, 82, 116
8, 28074, Note_off_c, 10, 82, 64
8, 28080, Note_on_c, 10, 85, 116
8, 28176, Note_off_c, 10, 85, 64
8, 28290, Note_on_c, 10, 76, 116
8, 28314, Note_off_c, 10, 76, 64
8, 28320, Note_on_c, 10, 77, 116
8, 28416, Note_off_c, 10, 77, 64
8, 28440, Note_on_c, 10, 72, 116
8, 28512, Note_off_c, 10, 72, 64
8, 28530, Note_on_c, 10, 77, 116
8, 28554, Note_off_c, 10, 77, 64
8, 28560, Note_on_c, 10, 80, 116
8, 28656, Note_off_c, 10, 80, 64
8, 28740, Note_on_c, 10, 80, 116
8, 28755, Note_off_c, 10, 80, 64
8, 28755, Note_on_c, 10, 79, 116
8, 28770, Note_off_c, 10, 79, 64
8, 28770, Note_on_c, 10, 77, 116
8, 28785, Note_off_c, 10, 77, 64
8, 28785, Note_on_c, 10, 75, 116
8, 28800, Note_off_c, 10, 75, 64
8, 28800, Note_on_c, 10, 74, 116
8, 28896, Note_off_c, 10, 74, 64
8, 28920, Note_on_c, 10, 77, 116
8, 28992, Note_off_c, 10, 77, 64
8, 29010, Note_on_c, 10, 80, 116
8, 29034, Note_off_c, 10, 80, 64
8, 29040, Note_on_c, 10, 83, 116
8, 29136, Note_off_c, 10, 83, 64
8, 29250, Note_on_c, 10, 74, 116
8, 29274, Note_off_c, 10, 74, 64
8, 29280, Note_on_c, 10, 75, 116
8, 29376, Note_off_c, 10, 75, 64
8, 29400, Note_on_c, 10, 70, 116
8, 29472, Note_off_c, 10, 70, 64
8, 29490, Note_on_c, 10, 75, 116
8, 29514, Note_off_c, 10, 75, 64
8, 29520, Note_on_c, 10, 78, 116
8, 29616, Note_off_c, 10, 78, 64
8, 29700, Note_on_c, 10, 75, 116
8, 29712, Note_off_c, 10, 75, 64
8, 29715, Note_on_c, 10, 73, 116
8, 29727, Note_off_c, 10, 73, 64
8, 29730, Note_on_c, 10, 71, 116
8, 29742, Note_off_c, 10, 71, 64
8, 29745, Note_on_c, 10, 70, 116
8, 29757, Note_off_c, 10, 70, 64
8, 29760, Note_on_c, 10, 69, 116
8, 29856, Note_off_c, 10, 69, 64
8, 29880, Note_on_c, 10, 81, 116
8, 29952, Note_off_c, 10, 81, 64
8, 29970, Note_on_c, 10, 75, 116
8, 29994, Note_off_c, 10, 75, 64
8, 30000, Note_on_c, 10, 87, 116
8, 30096, Note_off_c, 10, 87, 64
8, 30210, Note_on_c, 10, 81, 116
8, 30234, Note_off_c, 10, 81, 64
8, 30240, Note_on_c, 10, 82, 116
8, 30336, Note_off_c, 10, 82, 64
8, 30360, Note_on_c, 10, 77, 116
8, 30432, Note_off_c, 10, 77, 64
8, 30450, Note_on_c, 10, 86, 116
8, 30474, Note_off_c, 10, 86, 64
8, 30480, Note_on_c, 10, 87, 116
8, 30576, Note_off_c, 10, 87, 64
8, 30690, Note_on_c, 10, 81, 116
8, 30714, Note_off_c, 10, 81, 64
8, 30720, Note_on_c, 10, 82, 116
8, 30816, Note_off_c, 10, 82, 64
8, 30840, Note_on_c, 10, 77, 116
8, 30912, Note_off_c, 10, 77, 64
8, 30930, Note_on_c, 10, 86, 116
8, 30954, Note_off_c, 10, 86, 64
8, 30960, Note_on_c, 10, 87, 116
8, 31056, Note_off_c, 10, 87, 64
8, 31170, Note_on_c, 10, 81, 116
8, 31194, Note_off_c, 10, 81, 64
8, 31200, Note_on_c, 10, 82, 98
8, 31245, Note_off_c, 10, 82, 64
8, 31260, Note_on_c, 10, 82, 58
8, 31305, Note_off_c, 10, 82, 64
8, 31320, Note_on_c, 10, 82, 58
8, 31365, Note_off_c, 10, 82, 64
8, 31380, Note_on_c, 10, 82, 58
8, 31425, Note_off_c, 10, 82, 64
8, 31440, Note_on_c, 10, 82, 58
8, 31485, Note_off_c, 10, 82, 64
8, 31500, Note_on_c, 10, 82, 58
8, 31545, Note_off_c, 10, 82, 64
8, 31560, Note_on_c, 10, 82, 58
8, 31605, Note_off_c, 10, 82, 64
8, 31620, Note_on_c, 10, 82, 58
8, 31665, Note_off_c, 10, 82, 64
8, 31680, Note_on_c, 10, 82, 58
8, 31725, Note_off_c, 10, 82, 64
8, 31740, Note_on_c, 10, 82, 58
8, 31785, Note_off_c, 10, 82, 64
8, 31800, Note_on_c, 10, 82, 58
8, 31845, Note_off_c, 10, 82, 64
8, 31860, Note_on_c, 10, 82, 58
8, 31905, Note_off_c, 10, 82, 64
8, 31920, Note_on_c, 10, 82, 58
8, 31965, Note_off_c, 10, 82, 64
8, 31980, Note_on_c, 10, 82, 58
8, 32025, Note_off_c, 10, 82, 64
8, 32040, Note_on_c, 10, 82, 58
8, 32085, Note_off_c, 10, 82, 64
8, 32100, Note_on_c, 10, 82, 58
8, 32145, Note_off_c, 10, 82, 64
8, 32160, Note_on_c, 10, 82, 58
8, 32205, Note_off_c, 10, 82, 64
8, 32220, Note_on_c, 10, 82, 58
8, 32265, Note_off_c, 10, 82, 64
8, 32280, Note_on_c, 10, 82, 58
8, 32325, Note_off_c, 10, 82, 64
8, 32340, Note_on_c, 10, 82, 58
8, 32385, Note_off_c, 10, 82, 64
8, 32400, Note_on_c, 10, 82, 58
8, 32445, Note_off_c, 10, 82, 64
8, 32460, Note_on_c, 10, 82, 58
8, 32505, Note_off_c, 10, 82, 64
8, 32520, Note_on_c, 10, 82, 58
8, 32565, Note_off_c, 10, 82, 64
8, 32580, Note_on_c, 10, 82, 58
8, 32625, Note_off_c, 10, 82, 64
8, 32640, Note_on_c, 10, 82, 58
8, 32685, Note_off_c, 10, 82, 64
8, 32700, Note_on_c, 10, 82, 58
8, 32745, Note_off_c, 10, 82, 64
8, 32760, Note_on_c, 10, 82, 58
8, 32805, Note_off_c, 10, 82, 64
8, 32820, Note_on_c, 10, 82, 58
8, 32865, Note_off_c, 10, 82, 64
8, 32880, Note_on_c, 10, 82, 58
8, 32925, Note_off_c, 10, 82, 64
8, 32940, Note_on_c, 10, 82, 58
8, 32985, Note_off_c, 10, 82, 64
8, 33000, Note_on_c, 10, 82, 58
8, 33045, Note_off_c, 10, 82, 64
8, 33060, Note_on_c, 10, 82, 58
8, 33105, Note_off_c, 10, 82, 64
8, 33120, Note_on_c, 10, 82, 58
8, 33165, Note_off_c, 10, 82, 64
8, 33180, Note_on_c, 10, 82, 58
8, 33225, Note_off_c, 10, 82, 64
8, 33240, Note_on_c, 10, 82, 58
8, 33285, Note_off_c, 10, 82, 64
8, 33300, Note_on_c, 10, 82, 58
8, 33345, Note_off_c, 10, 82, 64
8, 33360, Note_on_c, 10, 82, 58
8, 33405, Note_off_c, 10, 82, 64
8, 33420, Note_on_c, 10, 82, 58
8, 33465, Note_off_c, 10, 82, 64
8, 33480, Note_on_c, 10, 82, 58
8, 33525, Note_off_c, 10, 82, 64
8, 33540, Note_on_c, 10, 82, 58
8, 33585, Note_off_c, 10, 82, 64
8, 33600, Note_on_c, 10, 82, 58
8, 33645, Note_off_c, 10, 82, 64
8, 33660, Note_on_c, 10, 82, 58
8, 33705, Note_off_c, 10, 82, 64
8, 33720, Note_on_c, 10, 82, 58
8, 33765, Note_off_c, 10, 82, 64
8, 33780, Note_on_c, 10, 82, 58
8, 33825, Note_off_c, 10, 82, 64
8, 33840, Note_on_c, 10, 82, 58
8, 33885, Note_off_c, 10, 82, 64
8, 33900, Note_on_c, 10, 82, 58
8, 33945, Note_off_c, 10, 82, 64
8, 33960, Note_on_c, 10, 82, 58
8, 34005, Note_off_c, 10, 82, 64
8, 34020, Note_on_c, 10, 82, 58
8, 34065, Note_off_c, 10, 82, 64
8, 34080, Note_on_c, 10, 82, 70
8, 34440, Note_off_c, 10, 82, 64
8, 34440, Note_on_c, 10, 74, 70
8, 34554, Note_off_c, 10, 74, 64
8, 34560, Note_on_c, 10, 75, 70
8, 34650, Note_off_c, 10, 75, 64
8, 34650, Note_on_c, 10, 74, 70
8, 34680, Note_off_c, 10, 74, 64
8, 34680, Note_on_c, 10, 77, 70
8, 34770, Note_off_c, 10, 77, 64
8, 34770, Note_on_c, 10, 75, 70
8, 34800, Note_off_c, 10, 75, 64
8, 34800, Note_on_c, 10, 80, 70
8, 34890, Note_off_c, 10, 80, 64
8, 34890, Note_on_c, 10, 79, 70
8, 34920, Note_off_c, 10, 79, 64
8, 34920, Note_on_c, 10, 82, 70
8, 34988, Note_off_c, 10, 82, 64
8, 35010, Note_on_c, 10, 82, 110
8, 35034, Note_off_c, 10, 82, 64
8, 35040, Note_on_c, 10, 82, 127
8, 35106, Note_off_c, 10, 82, 64
8, 35160, Note_on_c, 10, 72, 105
8, 35220, Note_off_c, 10, 72, 64
8, 35340, Note_on_c, 10, 74, 105
8, 35355, Note_off_c, 10, 74, 64
8, 35355, Note_on_c, 10, 72, 105
8, 35370, Note_off_c, 10, 72, 64
8, 35370, Note_on_c, 10, 71, 105
8, 35385, Note_off_c, 10, 71, 64
8, 35385, Note_on_c, 10, 72, 105
8, 35394, Note_off_c, 10, 72, 64
8, 35400, Note_on_c, 10, 77, 105
8, 35436, Note_off_c, 10, 77, 64
8, 35460, Note_on_c, 10, 80, 105
8, 35496, Note_off_c, 10, 80, 64
8, 35520, Note_on_c, 10, 80, 105
8, 35580, Note_off_c, 10, 80, 64
8, 35640, Note_on_c, 10, 70, 105
8, 35700, Note_off_c, 10, 70, 64
8, 35820, Note_on_c, 10, 72, 105
8, 35835, Note_off_c, 10, 72, 64
8, 35835, Note_on_c, 10, 70, 105
8, 35850, Note_off_c, 10, 70, 64
8, 35850, Note_on_c, 10, 69, 105
8, 35865, Note_off_c, 10, 69, 64
8, 35865, Note_on_c, 10, 70, 105
8, 35874, Note_off_c, 10, 70, 64
8, 35880, Note_on_c, 10, 75, 105
8, 35916, Note_off_c, 10, 75, 64
8, 35940, Note_on_c, 10, 79, 105
8, 35976, Note_off_c, 10, 79, 64
8, 36000, Note_on_c, 10, 79, 105
8, 36060, Note_off_c, 10, 79, 64
8, 36120, Note_on_c, 10, 68, 105
8, 36180, Note_off_c, 10, 68, 64
8, 36300, Note_on_c, 10, 70, 105
8, 36315, Note_off_c, 10, 70, 64
8, 36315, Note_on_c, 10, 68, 105
8, 36330, Note_off_c, 10, 68, 64
8, 36330, Note_on_c, 10, 67, 105
8, 36345, Note_off_c, 10, 67, 64
8, 36345, Note_on_c, 10, 68, 105
8, 36354, Note_off_c, 10, 68, 64
8, 36360, Note_on_c, 10, 74, 105
8, 36396, Note_off_c, 10, 74, 64
8, 36420, Note_on_c, 10, 77, 105
8, 36456, Note_off_c, 10, 77, 64
8, 36480, Note_on_c, 10, 77, 105
8, 36540, Note_off_c, 10, 77, 64
8, 36600, Note_on_c, 10, 67, 105
8, 36660, Note_off_c, 10, 67, 64
8, 36780, Note_on_c, 10, 68, 105
8, 36795, Note_off_c, 10, 68, 64
8, 36795, Note_on_c, 10, 67, 105
8, 36810, Note_off_c, 10, 67, 64
8, 36810, Note_on_c, 10, 66, 105
8, 36825, Note_off_c, 10, 66, 64
8, 36825, Note_on_c, 10, 67, 105
8, 36834, Note_off_c, 10, 67, 64
8, 36840, Note_on_c, 10, 72, 105
8, 36876, Note_off_c, 10, 72, 64
8, 36900, Note_on_c, 10, 75, 105
8, 36936, Note_off_c, 10, 75, 64
8, 36960, Note_on_c, 10, 65, 70
8, 37050, Note_off_c, 10, 65, 64
8, 37050, Note_on_c, 10, 64, 70
8, 37080, Note_off_c, 10, 64, 64
8, 37080, Note_on_c, 10, 67, 70
8, 37170, Note_off_c, 10, 67, 64
8, 37170, Note_on_c, 10, 65, 70
8, 37200, Note_off_c, 10, 65, 64
8, 37200, Note_on_c, 10, 68, 70
8, 37290, Note_off_c, 10, 68, 64
8, 37290, Note_on_c, 10, 67, 70
8, 37320, Note_off_c, 10, 67, 64
8, 37320, Note_on_c, 10, 71, 70
8, 37530, Note_off_c, 10, 71, 64
8, 37530, Note_on_c, 10, 74, 70
8, 37560, Note_off_c, 10, 74, 64
8, 37560, Note_on_c, 10, 72, 70
8, 37650, Note_off_c, 10, 72, 64
8, 37650, Note_on_c, 10, 76, 70
8, 37680, Note_off_c, 10, 76, 64
8, 37680, Note_on_c, 10, 79, 70
8, 37770, Note_off_c, 10, 79, 64
8, 37770, Note_on_c, 10, 77, 70
8, 37800, Note_off_c, 10, 77, 64
8, 37800, Note_on_c, 10, 83, 70
8, 38010, Note_off_c, 10, 83, 64
8, 38010, Note_on_c, 10, 86, 70
8, 38040, Note_off_c, 10, 86, 64
8, 38040, Note_on_c, 10, 84, 70
8, 38130, Note_off_c, 10, 84, 64
8, 38130, Note_on_c, 10, 75, 70
8, 38160, Note_off_c, 10, 75, 64
8, 38160, Note_on_c, 10, 78, 70
8, 38250, Note_off_c, 10, 78, 64
8, 38250, Note_on_c, 10, 72, 70
8, 38280, Note_off_c, 10, 72, 64
8, 38280, Note_on_c, 10, 75, 70
8, 38370, Note_off_c, 10, 75, 64
8, 38370, Note_on_c, 10, 69, 70
8, 38400, Note_off_c, 10, 69, 64
8, 38400, Note_on_c, 10, 70, 58
8, 38496, Note_off_c, 10, 70, 64
8, 38640, Note_on_c, 10, 62, 58
8, 38736, Note_off_c, 10, 62, 64
8, 38880, Note_on_c, 10, 63, 58
8, 38940, Note_off_c, 10, 63, 64
8, 38940, Note_on_c, 10, 58, 58
8, 39000, Note_off_c, 10, 58, 64
8, 39000, Note_on_c, 10, 63, 58
8, 39060, Note_off_c, 10, 63, 64
8, 39060, Note_on_c, 10, 58, 58
8, 39120, Note_off_c, 10, 58, 64
8, 39120, Note_on_c, 10, 63, 58
8, 39180, Note_off_c, 10, 63, 64
8, 39180, Note_on_c, 10, 58, 58
8, 39240, Note_off_c, 10, 58, 64
8, 39240, Note_on_c, 10, 63, 58
8, 39300, Note_off_c, 10, 63, 64
8, 39300, Note_on_c, 10, 58, 58
8, 39348, Note_off_c, 10, 58, 64
8, 39360, Note_on_c, 10, 62, 58
8, 39420, Note_off_c, 10, 62, 64
8, 39420, Note_on_c, 10, 58, 58
8, 39480, Note_off_c, 10, 58, 64
8, 39480, Note_on_c, 10, 62, 58
8, 39540, Note_off_c, 10, 62, 64
8, 39540, Note_on_c, 10, 58, 58
8, 39600, Note_off_c, 10, 58, 64
8, 39600, Note_on_c, 10, 62, 58
8, 39660, Note_off_c, 10, 62, 64
8, 39660, Note_on_c, 10, 58, 58
8, 39720, Note_off_c, 10, 58, 64
8, 39720, Note_on_c, 10, 62, 58
8, 39780, Note_off_c, 10, 62, 64
8, 39780, Note_on_c, 10, 58, 58
8, 39828, Note_off_c, 10, 58, 64
8, 39840, Note_on_c, 10, 63, 58
8, 39900, Note_off_c, 10, 63, 64
8, 39900, Note_on_c, 10, 58, 58
8, 39960, Note_off_c, 10, 58, 64
8, 39960, Note_on_c, 10, 63, 58
8, 40020, Note_off_c, 10, 63, 64
8, 40020, Note_on_c, 10, 58, 58
8, 40080, Note_off_c, 10, 58, 64
8, 40080, Note_on_c, 10, 63, 58
8, 40140, Note_off_c, 10, 63, 64
8, 40140, Note_on_c, 10, 58, 58
8, 40200, Note_off_c, 10, 58, 64
8, 40200, Note_on_c, 10, 63, 58
8, 40260, Note_off_c, 10, 63, 64
8, 40260, Note_on_c, 10, 58, 58
8, 40308, Note_off_c, 10, 58, 64
8, 40320, Note_on_c, 10, 62, 58
8, 40380, Note_off_c, 10, 62, 64
8, 40380, Note_on_c, 10, 58, 58
8, 40440, Note_off_c, 10, 58, 64
8, 40440, Note_on_c, 10, 62, 58
8, 40500, Note_off_c, 10, 62, 64
8, 40500, Note_on_c, 10, 58, 58
8, 40560, Note_off_c, 10, 58, 64
8, 40560, Note_on_c, 10, 62, 58
8, 40620, Note_off_c, 10, 62, 64
8, 40620, Note_on_c, 10, 58, 58
8, 40680, Note_off_c, 10, 58, 64
8, 40680, Note_on_c, 10, 62, 58
8, 40740, Note_off_c, 10, 62, 64
8, 40740, Note_on_c, 10, 58, 58
8, 40788, Note_off_c, 10, 58, 64
8, 40800, Note_on_c, 10, 79, 105
8, 40980, Note_off_c, 10, 79, 64
8, 40980, Note_on_c, 10, 75, 105
8, 41028, Note_off_c, 10, 75, 64
8, 41040, Note_on_c, 10, 80, 105
8, 41220, Note_off_c, 10, 80, 64
8, 41220, Note_on_c, 10, 77, 105
8, 41268, Note_off_c, 10, 77, 64
8, 41280, Note_on_c, 10, 77, 105
8, 41340, Note_off_c, 10, 77, 64
8, 41340, Note_on_c, 10, 75, 105
8, 41388, Note_off_c, 10, 75, 64
8, 41400, Note_on_c, 10, 75, 105
8, 41544, Note_off_c, 10, 75, 64
8, 41580, Note_on_c, 10, 74, 105
8, 41610, Note_off_c, 10, 74, 64
8, 41610, Note_on_c, 10, 75, 105
8, 41634, Note_off_c, 10, 75, 64
8, 41640, Note_on_c, 10, 77, 105
8, 41676, Note_off_c, 10, 77, 64
8, 41700, Note_on_c, 10, 74, 105
8, 41736, Note_off_c, 10, 74, 64
8, 41760, Note_on_c, 10, 75, 70
8, 41856, Note_off_c, 10, 75, 64
8, 44160, Note_on_c, 10, 65, 58
8, 44256, Note_off_c, 10, 65, 64
8, 44400, Note_on_c, 10, 77, 58
8, 44496, Note_off_c, 10, 77, 64
8, 44640, Note_on_c, 10, 63, 58
8, 44736, Note_off_c, 10, 63, 64
8, 44880, Note_on_c, 10, 75, 58
8, 44976, Note_off_c, 10, 75, 64
8, 45120, Note_on_c, 10, 61, 58
8, 45216, Note_off_c, 10, 61, 64
8, 45360, Note_on_c, 10, 73, 58
8, 45456, Note_off_c, 10, 73, 64
8, 45600, Note_on_c, 10, 63, 70
8, 45840, Note_off_c, 10, 63, 64
8, 45840, Note_on_c, 10, 65, 70
8, 45930, Note_off_c, 10, 65, 64
8, 45930, Note_on_c, 10, 67, 70
8, 45960, Note_off_c, 10, 67, 64
8, 45960, Note_on_c, 10, 68, 70
8, 46050, Note_off_c, 10, 68, 64
8, 46050, Note_on_c, 10, 65, 70
8, 46080, Note_off_c, 10, 65, 64
8, 46080, Note_on_c, 10, 63, 70
8, 46176, Note_off_c, 10, 63, 64
8, 46320, Note_on_c, 10, 68, 70
8, 46410, Note_off_c, 10, 68, 64
8, 46410, Note_on_c, 10, 67, 70
8, 46440, Note_off_c, 10, 67, 64
8, 46440, Note_on_c, 10, 70, 70
8, 46530, Note_off_c, 10, 70, 64
8, 46530, Note_on_c, 10, 68, 70
8, 46560, Note_off_c, 10, 68, 64
8, 46560, Note_on_c, 10, 72, 70
8, 46650, Note_off_c, 10, 72, 64
8, 46650, Note_on_c, 10, 70, 70
8, 46680, Note_off_c, 10, 70, 64
8, 46680, Note_on_c, 10, 73, 70
8, 46770, Note_off_c, 10, 73, 64
8, 46770, Note_on_c, 10, 72, 70
8, 46800, Note_off_c, 10, 72, 64
8, 46800, Note_on_c, 10, 75, 70
8, 46878, Note_off_c, 10, 75, 64
8, 46920, Note_on_c, 10, 75, 70
8, 46998, Note_off_c, 10, 75, 64
8, 47040, Note_on_c, 10, 75, 70
8, 47280, Note_off_c, 10, 75, 64
8, 47280, Note_on_c, 10, 63, 58
8, 47376, Note_off_c, 10, 63, 64
8, 47640, Note_on_c, 10, 80, 70
8, 47718, Note_off_c, 10, 80, 64
8, 47760, Note_on_c, 10, 80, 70
8, 47838, Note_off_c, 10, 80, 64
8, 47880, Note_on_c, 10, 80, 70
8, 47958, Note_off_c, 10, 80, 64
8, 48000, Note_on_c, 10, 80, 70
8, 48180, Note_off_c, 10, 80, 64
8, 48180, Note_on_c, 10, 79, 70
8, 48210, Note_off_c, 10, 79, 64
8, 48210, Note_on_c, 10, 77, 70
8, 48240, Note_off_c, 10, 77, 64
8, 48240, Note_on_c, 10, 75, 70
8, 48312, Note_off_c, 10, 75, 64
8, 48360, Note_on_c, 10, 75, 70
8, 48432, Note_off_c, 10, 75, 64
8, 48480, Note_on_c, 10, 75, 70
8, 48660, Note_off_c, 10, 75, 64
8, 48660, Note_on_c, 10, 74, 70
8, 48675, Note_off_c, 10, 74, 64
8, 48675, Note_on_c, 10, 72, 70
8, 48690, Note_off_c, 10, 72, 64
8, 48690, Note_on_c, 10, 70, 70
8, 48705, Note_off_c, 10, 70, 64
8, 48705, Note_on_c, 10, 68, 70
8, 48720, Note_off_c, 10, 68, 64
8, 48720, Note_on_c, 10, 67, 70
8, 48792, Note_off_c, 10, 67, 64
8, 48810, Note_on_c, 10, 70, 70
8, 48840, Note_off_c, 10, 70, 64
8, 48840, Note_on_c, 10, 68, 70
8, 48930, Note_off_c, 10, 68, 64
8, 48930, Note_on_c, 10, 65, 70
8, 48954, Note_off_c, 10, 65, 64
8, 48960, Note_on_c, 10, 65, 70
8, 49200, Note_off_c, 10, 65, 64
8, 49200, Note_on_c, 10, 63, 58
8, 49296, Note_off_c, 10, 63, 64
8, 49920, Note_on_c, 10, 75, 70
8, 50010, Note_off_c, 10, 75, 64
8, 50010, Note_on_c, 10, 74, 70
8, 50040, Note_off_c, 10, 74, 64
8, 50040, Note_on_c, 10, 79, 70
8, 50130, Note_off_c, 10, 79, 64
8, 50130, Note_on_c, 10, 77, 70
8, 50160, Note_off_c, 10, 77, 64
8, 50160, Note_on_c, 10, 80, 70
8, 50250, Note_off_c, 10, 80, 64
8, 50250, Note_on_c, 10, 79, 70
8, 50280, Note_off_c, 10, 79, 64
8, 50280, Note_on_c, 10, 82, 70
8, 50376, Note_off_c, 10, 82, 64
8, 50880, Note_on_c, 10, 75, 70
8, 50970, Note_off_c, 10, 75, 64
8, 50970, Note_on_c, 10, 74, 70
8, 51000, Note_off_c, 10, 74, 64
8, 51000, Note_on_c, 10, 80, 70
8, 51090, Note_off_c, 10, 80, 64
8, 51090, Note_on_c, 10, 79, 70
8, 51120, Note_off_c, 10, 79, 64
8, 51120, Note_on_c, 10, 82, 70
8, 51210, Note_off_c, 10, 82, 64
8, 51210, Note_on_c, 10, 80, 70
8, 51240, Note_off_c, 10, 80, 64
8, 51240, Note_on_c, 10, 84, 70
8, 51336, Note_off_c, 10, 84, 64
8, 51840, Note_on_c, 10, 75, 70
8, 51930, Note_off_c, 10, 75, 64
8, 51930, Note_on_c, 10, 74, 70
8, 51960, Note_off_c, 10, 74, 64
8, 51960, Note_on_c, 10, 82, 70
8, 52050, Note_off_c, 10, 82, 64
8, 52050, Note_on_c, 10, 80, 70
8, 52080, Note_off_c, 10, 80, 64
8, 52080, Note_on_c, 10, 84, 70
8, 52170, Note_off_c, 10, 84, 64
8, 52170, Note_on_c, 10, 82, 70
8, 52200, Note_off_c, 10, 82, 64
8, 52200, Note_on_c, 10, 85, 70
8, 52254, Note_off_c, 10, 85, 64
8, 52290, Note_on_c, 10, 82, 70
8, 52320, Note_off_c, 10, 82, 64
8, 52320, Note_on_c, 10, 84, 70
8, 52374, Note_off_c, 10, 84, 64
8, 52410, Note_on_c, 10, 79, 70
8, 52440, Note_off_c, 10, 79, 64
8, 52440, Note_on_c, 10, 80, 70
8, 52494, Note_off_c, 10, 80, 64
8, 52530, Note_on_c, 10, 76, 70
8, 52560, Note_off_c, 10, 76, 64
8, 52560, Note_on_c, 10, 77, 70
8, 52614, Note_off_c, 10, 77, 64
8, 52650, Note_on_c, 10, 73, 70
8, 52680, Note_off_c, 10, 73, 64
8, 52680, Note_on_c, 10, 74, 70
8, 52734, Note_off_c, 10, 74, 64
8, 52770, Note_on_c, 10, 70, 70
8, 52800, Note_off_c, 10, 70, 64
8, 52800, Note_on_c, 10, 75, 70
8, 52854, Note_off_c, 10, 75, 64
8, 52890, Note_on_c, 10, 79, 70
8, 52920, Note_off_c, 10, 79, 64
8, 52920, Note_on_c, 10, 82, 70
8, 52974, Note_off_c, 10, 82, 64
8, 53010, Note_on_c, 10, 75, 70
8, 53040, Note_off_c, 10, 75, 64
8, 53040, Note_on_c, 10, 79, 70
8, 53094, Note_off_c, 10, 79, 64
8, 53130, Note_on_c, 10, 70, 70
8, 53160, Note_off_c, 10, 70, 64
8, 53160, Note_on_c, 10, 80, 70
8, 53214, Note_off_c, 10, 80, 64
8, 53250, Note_on_c, 10, 77, 70
8, 53280, Note_off_c, 10, 77, 64
8, 53280, Note_on_c, 10, 75, 70
8, 53334, Note_off_c, 10, 75, 64
8, 53370, Note_on_c, 10, 79, 70
8, 53400, Note_off_c, 10, 79, 64
8, 53400, Note_on_c, 10, 82, 70
8, 53454, Note_off_c, 10, 82, 64
8, 53490, Note_on_c, 10, 75, 70
8, 53520, Note_off_c, 10, 75, 64
8, 53520, Note_on_c, 10, 79, 70
8, 53574, Note_off_c, 10, 79, 64
8, 53610, Note_on_c, 10, 70, 70
8, 53640, Note_off_c, 10, 70, 64
8, 53640, Note_on_c, 10, 80, 70
8, 53694, Note_off_c, 10, 80, 64
8, 53730, Note_on_c, 10, 77, 70
8, 53760, Note_off_c, 10, 77, 64
8, 53760, Note_on_c, 10, 75, 70
8, 53814, Note_off_c, 10, 75, 64
8, 53850, Note_on_c, 10, 76, 70
8, 53880, Note_off_c, 10, 76, 64
8, 53880, Note_on_c, 10, 77, 70
8, 53934, Note_off_c, 10, 77, 64
8, 53970, Note_on_c, 10, 75, 70
8, 54000, Note_off_c, 10, 75, 64
8, 54000, Note_on_c, 10, 73, 70
8, 54054, Note_off_c, 10, 73, 64
8, 54090, Note_on_c, 10, 72, 70
8, 54120, Note_off_c, 10, 72, 64
8, 54120, Note_on_c, 10, 70, 70
8, 54174, Note_off_c, 10, 70, 64
8, 54210, Note_on_c, 10, 68, 70
8, 54240, Note_off_c, 10, 68, 64
8, 54240, Note_on_c, 10, 67, 58
8, 54312, Note_off_c, 10, 67, 64
8, 54840, Note_on_c, 10, 80, 70
8, 54918, Note_off_c, 10, 80, 64
8, 54960, Note_on_c, 10, 80, 70
8, 55038, Note_off_c, 10, 80, 64
8, 55080, Note_on_c, 10, 80, 70
8, 55158, Note_off_c, 10, 80, 64
8, 55200, Note_on_c, 10, 80, 70
8, 55380, Note_off_c, 10, 80, 64
8, 55380, Note_on_c, 10, 79, 70
8, 55410, Note_off_c, 10, 79, 64
8, 55410, Note_on_c, 10, 77, 70
8, 55440, Note_off_c, 10, 77, 64
8, 55440, Note_on_c, 10, 75, 70
8, 55512, Note_off_c, 10, 75, 64
8, 55560, Note_on_c, 10, 75, 70
8, 55632, Note_off_c, 10, 75, 64
8, 55680, Note_on_c, 10, 75, 70
8, 55860, Note_off_c, 10, 75, 64
8, 55860, Note_on_c, 10, 73, 70
8, 55875, Note_off_c, 10, 73, 64
8, 55875, Note_on_c, 10, 72, 70
8, 55890, Note_off_c, 10, 72, 64
8, 55890, Note_on_c, 10, 70, 70
8, 55905, Note_off_c, 10, 70, 64
8, 55905, Note_on_c, 10, 68, 70
8, 55920, Note_off_c, 10, 68, 64
8, 55920, Note_on_c, 10, 67, 70
8, 55992, Note_off_c, 10, 67, 64
8, 56040, Note_on_c, 10, 68, 70
8, 56112, Note_off_c, 10, 68, 64
8, 56160, Note_on_c, 10, 72, 70
8, 56400, Note_off_c, 10, 72, 64
8, 56400, Note_on_c, 10, 70, 58
8, 56496, Note_off_c, 10, 70, 64
8, 56640, Note_on_c, 10, 63, 70
8, 56880, Note_off_c, 10, 63, 64
8, 56880, Note_on_c, 10, 64, 70
8, 56970, Note_off_c, 10, 64, 64
8, 56970, Note_on_c, 10, 66, 70
8, 57000, Note_off_c, 10, 66, 64
8, 57000, Note_on_c, 10, 68, 70
8, 57090, Note_off_c, 10, 68, 64
8, 57090, Note_on_c, 10, 64, 70
8, 57120, Note_off_c, 10, 64, 64
8, 57120, Note_on_c, 10, 63, 70
8, 57216, Note_off_c, 10, 63, 64
8, 57600, Note_on_c, 10, 63, 70
8, 57840, Note_off_c, 10, 63, 64
8, 57840, Note_on_c, 10, 64, 70
8, 57930, Note_off_c, 10, 64, 64
8, 57930, Note_on_c, 10, 63, 70
8, 57960, Note_off_c, 10, 63, 64
8, 57960, Note_on_c, 10, 64, 70
8, 58050, Note_off_c, 10, 64, 64
8, 58050, Note_on_c, 10, 61, 70
8, 58074, Note_off_c, 10, 61, 64
8, 58080, Note_on_c, 10, 66, 58
8, 58152, Note_off_c, 10, 66, 64
8, 58200, Note_on_c, 10, 66, 58
8, 58272, Note_off_c, 10, 66, 64
8, 58320, Note_on_c, 10, 68, 58
8, 58392, Note_off_c, 10, 68, 64
8, 58440, Note_on_c, 10, 68, 58
8, 58512, Note_off_c, 10, 68, 64
8, 58560, Note_on_c, 10, 63, 58
8, 58632, Note_off_c, 10, 63, 64
8, 58680, Note_on_c, 10, 63, 58
8, 58752, Note_off_c, 10, 63, 64
8, 58800, Note_on_c, 10, 61, 58
8, 58872, Note_off_c, 10, 61, 64
8, 58920, Note_on_c, 10, 61, 58
8, 58992, Note_off_c, 10, 61, 64
8, 59040, Note_on_c, 10, 83, 116
8, 59136, Note_off_c, 10, 83, 64
8, 59160, Note_on_c, 10, 78, 116
8, 59232, Note_off_c, 10, 78, 64
8, 59250, Note_on_c, 10, 83, 116
8, 59274, Note_off_c, 10, 83, 64
8, 59280, Note_on_c, 10, 86, 116
8, 59376, Note_off_c, 10, 86, 64
8, 59460, Note_on_c, 10, 86, 116
8, 59480, Note_off_c, 10, 86, 64
8, 59480, Note_on_c, 10, 85, 116
8, 59500, Note_off_c, 10, 85, 64
8, 59500, Note_on_c, 10, 83, 116
8, 59520, Note_off_c, 10, 83, 64
8, 59520, Note_on_c, 10, 82, 116
8, 59616, Note_off_c, 10, 82, 64
8, 59640, Note_on_c, 10, 85, 116
8, 59712, Note_off_c, 10, 85, 64
8, 59730, Note_on_c, 10, 82, 116
8, 59754, Note_off_c, 10, 82, 64
8, 59760, Note_on_c, 10, 88, 116
8, 59856, Note_off_c, 10, 88, 64
8, 59970, Note_on_c, 10, 82, 116
8, 59994, Note_off_c, 10, 82, 64
8, 60000, Note_on_c, 10, 83, 116
8, 60096, Note_off_c, 10, 83, 64
8, 60120, Note_on_c, 10, 78, 116
8, 60192, Note_off_c, 10, 78, 64
8, 60210, Note_on_c, 10, 83, 116
8, 60234, Note_off_c, 10, 83, 64
8, 60240, Note_on_c, 10, 86, 116
8, 60336, Note_off_c, 10, 86, 64
8, 60420, Note_on_c, 10, 86, 116
8, 60435, Note_off_c, 10, 86, 64
8, 60435, Note_on_c, 10, 84, 116
8, 60450, Note_off_c, 10, 84, 64
8, 60450, Note_on_c, 10, 83, 116
8, 60465, Note_off_c, 10, 83, 64
8, 60465, Note_on_c, 10, 81, 116
8, 60480, Note_off_c, 10, 81, 64
8, 60480, Note_on_c, 10, 80, 116
8, 60576, Note_off_c, 10, 80, 64
8, 60600, Note_on_c, 10, 83, 116
8, 60672, Note_off_c, 10, 83, 64
8, 60690, Note_on_c, 10, 86, 116
8, 60714, Note_off_c, 10, 86, 64
8, 60720, Note_on_c, 10, 89, 116
8, 60816, Note_off_c, 10, 89, 64
8, 60930, Note_on_c, 10, 80, 116
8, 60954, Note_off_c, 10, 80, 64
8, 60960, Note_on_c, 10, 81, 116
8, 61056, Note_off_c, 10, 81, 64
8, 61080, Note_on_c, 10, 84, 116
8, 61152, Note_off_c, 10, 84, 64
8, 61170, Note_on_c, 10, 81, 116
8, 61194, Note_off_c, 10, 81, 64
8, 61200, Note_on_c, 10, 89, 116
8, 61296, Note_off_c, 10, 89, 64
8, 61410, Note_on_c, 10, 77, 116
8, 61434, Note_off_c, 10, 77, 64
8, 61440, Note_on_c, 10, 80, 116
8, 61536, Note_off_c, 10, 80, 64
8, 61560, Note_on_c, 10, 85, 116
8, 61632, Note_off_c, 10, 85, 64
8, 61650, Note_on_c, 10, 80, 116
8, 61674, Note_off_c, 10, 80, 64
8, 61680, Note_on_c, 10, 89, 116
8, 61776, Note_off_c, 10, 89, 64
8, 61890, Note_on_c, 10, 80, 116
8, 61914, Note_off_c, 10, 80, 64
8, 61920, Note_on_c, 10, 79, 116
8, 62016, Note_off_c, 10, 79, 64
8, 62040, Note_on_c, 10, 82, 116
8, 62112, Note_off_c, 10, 82, 64
8, 62130, Note_on_c, 10, 76, 116
8, 62154, Note_off_c, 10, 76, 64
8, 62160, Note_on_c, 10, 88, 116
8, 62256, Note_off_c, 10, 88, 64
8, 62370, Note_on_c, 10, 79, 116
8, 62394, Note_off_c, 10, 79, 64
8, 62400, Note_on_c, 10, 80, 116
8, 62496, Note_off_c, 10, 80, 64
8, 62520, Note_on_c, 10, 83, 116
8, 62592, Note_off_c, 10, 83, 64
8, 62610, Note_on_c, 10, 75, 116
8, 62634, Note_off_c, 10, 75, 64
8, 62640, Note_on_c, 10, 87, 116
8, 62736, Note_off_c, 10, 87, 64
8, 62820, Note_on_c, 10, 75, 116
8, 62840, Note_off_c, 10, 75, 64
8, 62840, Note_on_c, 10, 77, 116
8, 62860, Note_off_c, 10, 77, 64
8, 62860, Note_on_c, 10, 79, 116
8, 62880, Note_off_c, 10, 79, 64
8, 62880, Note_on_c, 10, 80, 116
8, 62976, Note_off_c, 10, 80, 64
8, 63000, Note_on_c, 10, 83, 116
8, 63072, Note_off_c, 10, 83, 64
8, 63090, Note_on_c, 10, 71, 116
8, 63114, Note_off_c, 10, 71, 64
8, 63120, Note_on_c, 10, 80, 116
8, 63216, Note_off_c, 10, 80, 64
8, 63300, Note_on_c, 10, 79, 116
8, 63320, Note_off_c, 10, 79, 64
8, 63320, Note_on_c, 10, 80, 116
8, 63340, Note_off_c, 10, 80, 64
8, 63340, Note_on_c, 10, 82, 116
8, 63360, Note_off_c, 10, 82, 64
8, 63360, Note_on_c, 10, 83, 116
8, 63456, Note_off_c, 10, 83, 64
8, 63480, Note_on_c, 10, 80, 116
8, 63552, Note_off_c, 10, 80, 64
8, 63570, Note_on_c, 10, 71, 116
8, 63594, Note_off_c, 10, 71, 64
8, 63600, Note_on_c, 10, 83, 116
8, 63696, Note_off_c, 10, 83, 64
8, 63810, Note_on_c, 10, 80, 116
8, 63834, Note_off_c, 10, 80, 64
8, 63840, Note_on_c, 10, 79, 116
8, 63936, Note_off_c, 10, 79, 64
8, 63960, Note_on_c, 10, 82, 116
8, 64032, Note_off_c, 10, 82, 64
8, 64050, Note_on_c, 10, 87, 116
8, 64074, Note_off_c, 10, 87, 64
8, 64080, Note_on_c, 10, 86, 116
8, 64176, Note_off_c, 10, 86, 64
8, 64290, Note_on_c, 10, 74, 116
8, 64314, Note_off_c, 10, 74, 64
8, 64320, Note_on_c, 10, 75, 116
8, 64392, Note_off_c, 10, 75, 64
8, 64410, Note_on_c, 10, 79, 116
8, 64434, Note_off_c, 10, 79, 64
8, 64440, Note_on_c, 10, 82, 116
8, 64512, Note_off_c, 10, 82, 64
8, 64530, Note_on_c, 10, 87, 116
8, 64554, Note_off_c, 10, 87, 64
8, 64560, Note_on_c, 10, 86, 116
8, 64656, Note_off_c, 10, 86, 64
8, 64770, Note_on_c, 10, 74, 116
8, 64794, Note_off_c, 10, 74, 64
8, 64800, Note_on_c, 10, 75, 110
8, 64845, Note_off_c, 10, 75, 64
8, 64860, Note_on_c, 10, 87, 58
8, 64905, Note_off_c, 10, 87, 64
8, 64920, Note_on_c, 10, 87, 58
8, 64965, Note_off_c, 10, 87, 64
8, 64980, Note_on_c, 10, 87, 58
8, 65025, Note_off_c, 10, 87, 64
8, 65040, Note_on_c, 10, 87, 58
8, 65085, Note_off_c, 10, 87, 64
8, 65100, Note_on_c, 10, 87, 58
8, 65145, Note_off_c, 10, 87, 64
8, 65160, Note_on_c, 10, 87, 58
8, 65205, Note_off_c, 10, 87, 64
8, 65220, Note_on_c, 10, 87, 58
8, 65265, Note_off_c, 10, 87, 64
8, 65280, Note_on_c, 10, 87, 58
8, 65325, Note_off_c, 10, 87, 64
8, 65340, Note_on_c, 10, 87, 58
8, 65385, Note_off_c, 10, 87, 64
8, 65400, Note_on_c, 10, 87, 58
8, 65445, Note_off_c, 10, 87, 64
8, 65460, Note_on_c, 10, 87, 58
8, 65505, Note_off_c, 10, 87, 64
8, 65520, Note_on_c, 10, 87, 58
8, 65565, Note_off_c, 10, 87, 64
8, 65580, Note_on_c, 10, 87, 58
8, 65625, Note_off_c, 10, 87, 64
8, 65640, Note_on_c, 10, 87, 58
8, 65685, Note_off_c, 10, 87, 64
8, 65700, Note_on_c, 10, 87, 58
8, 65745, Note_off_c, 10, 87, 64
8, 65760, Note_on_c, 10, 87, 58
8, 65805, Note_off_c, 10, 87, 64
8, 65820, Note_on_c, 10, 87, 58
8, 65865, Note_off_c, 10, 87, 64
8, 65880, Note_on_c, 10, 87, 58
8, 65925, Note_off_c, 10, 87, 64
8, 65940, Note_on_c, 10, 87, 58
8, 65985, Note_off_c, 10, 87, 64
8, 66000, Note_on_c, 10, 87, 58
8, 66045, Note_off_c, 10, 87, 64
8, 66060, Note_on_c, 10, 87, 58
8, 66105, Note_off_c, 10, 87, 64
8, 66120, Note_on_c, 10, 87, 58
8, 66165, Note_off_c, 10, 87, 64
8, 66180, Note_on_c, 10, 87, 58
8, 66225, Note_off_c, 10, 87, 64
8, 66240, Note_on_c, 10, 87, 58
8, 66285, Note_off_c, 10, 87, 64
8, 66300, Note_on_c, 10, 87, 58
8, 66345, Note_off_c, 10, 87, 64
8, 66360, Note_on_c, 10, 87, 58
8, 66405, Note_off_c, 10, 87, 64
8, 66420, Note_on_c, 10, 87, 58
8, 66465, Note_off_c, 10, 87, 64
8, 66480, Note_on_c, 10, 87, 58
8, 66525, Note_off_c, 10, 87, 64
8, 66540, Note_on_c, 10, 87, 58
8, 66585, Note_off_c, 10, 87, 64
8, 66600, Note_on_c, 10, 87, 58
8, 66645, Note_off_c, 10, 87, 64
8, 66660, Note_on_c, 10, 87, 58
8, 66705, Note_off_c, 10, 87, 64
8, 66720, Note_on_c, 10, 87, 58
8, 66765, Note_off_c, 10, 87, 64
8, 66780, Note_on_c, 10, 87, 58
8, 66825, Note_off_c, 10, 87, 64
8, 66840, Note_on_c, 10, 87, 58
8, 66885, Note_off_c, 10, 87, 64
8, 66900, Note_on_c, 10, 87, 58
8, 66945, Note_off_c, 10, 87, 64
8, 66960, Note_on_c, 10, 87, 58
8, 67005, Note_off_c, 10, 87, 64
8, 67020, Note_on_c, 10, 87, 58
8, 67065, Note_off_c, 10, 87, 64
8, 67080, Note_on_c, 10, 87, 58
8, 67125, Note_off_c, 10, 87, 64
8, 67140, Note_on_c, 10, 87, 58
8, 67185, Note_off_c, 10, 87, 64
8, 67200, Note_on_c, 10, 87, 58
8, 67245, Note_off_c, 10, 87, 64
8, 67260, Note_on_c, 10, 87, 58
8, 67305, Note_off_c, 10, 87, 64
8, 67320, Note_on_c, 10, 87, 58
8, 67365, Note_off_c, 10, 87, 64
8, 67380, Note_on_c, 10, 87, 58
8, 67425, Note_off_c, 10, 87, 64
8, 67440, Note_on_c, 10, 87, 58
8, 67485, Note_off_c, 10, 87, 64
8, 67500, Note_on_c, 10, 87, 58
8, 67545, Note_off_c, 10, 87, 64
8, 67560, Note_on_c, 10, 87, 58
8, 67605, Note_off_c, 10, 87, 64
8, 67620, Note_on_c, 10, 87, 58
8, 67665, Note_off_c, 10, 87, 64
8, 67680, Note_on_c, 10, 87, 58
8, 68040, Note_off_c, 10, 87, 64
8, 68040, Note_on_c, 10, 79, 58
8, 68136, Note_off_c, 10, 79, 64
8, 68160, Note_on_c, 10, 80, 70
8, 68250, Note_off_c, 10, 80, 64
8, 68250, Note_on_c, 10, 79, 70
8, 68280, Note_off_c, 10, 79, 64
8, 68280, Note_on_c, 10, 82, 70
8, 68370, Note_off_c, 10, 82, 64
8, 68370, Note_on_c, 10, 80, 70
8, 68400, Note_off_c, 10, 80, 64
8, 68400, Note_on_c, 10, 85, 70
8, 68490, Note_off_c, 10, 85, 64
8, 68490, Note_on_c, 10, 84, 70
8, 68520, Note_off_c, 10, 84, 64
8, 68520, Note_on_c, 10, 87, 70
8, 68579, Note_off_c, 10, 87, 64
8, 68610, Note_on_c, 10, 87, 110
8, 68630, Note_off_c, 10, 87, 64
8, 68640, Note_on_c, 10, 87, 127
8, 68706, Note_off_c, 10, 87, 64
8, 68760, Note_on_c, 10, 77, 105
8, 68826, Note_off_c, 10, 77, 64
8, 68940, Note_on_c, 10, 79, 105
8, 68955, Note_off_c, 10, 79, 64
8, 68955, Note_on_c, 10, 77, 105
8, 68970, Note_off_c, 10, 77, 64
8, 68970, Note_on_c, 10, 76, 105
8, 68985, Note_off_c, 10, 76, 64
8, 68985, Note_on_c, 10, 77, 105
8, 68994, Note_off_c, 10, 77, 64
8, 69000, Note_on_c, 10, 82, 105
8, 69036, Note_off_c, 10, 82, 64
8, 69060, Note_on_c, 10, 85, 105
8, 69096, Note_off_c, 10, 85, 64
8, 69120, Note_on_c, 10, 85, 105
8, 69186, Note_off_c, 10, 85, 64
8, 69240, Note_on_c, 10, 75, 105
8, 69306, Note_off_c, 10, 75, 64
8, 69420, Note_on_c, 10, 77, 105
8, 69435, Note_off_c, 10, 77, 64
8, 69435, Note_on_c, 10, 75, 105
8, 69450, Note_off_c, 10, 75, 64
8, 69450, Note_on_c, 10, 74, 105
8, 69465, Note_off_c, 10, 74, 64
8, 69465, Note_on_c, 10, 75, 105
8, 69474, Note_off_c, 10, 75, 64
8, 69480, Note_on_c, 10, 80, 105
8, 69516, Note_off_c, 10, 80, 64
8, 69540, Note_on_c, 10, 84, 105
8, 69576, Note_off_c, 10, 84, 64
8, 69600, Note_on_c, 10, 84, 105
8, 69666, Note_off_c, 10, 84, 64
8, 69720, Note_on_c, 10, 73, 105
8, 69786, Note_off_c, 10, 73, 64
8, 69900, Note_on_c, 10, 75, 105
8, 69915, Note_off_c, 10, 75, 64
8, 69915, Note_on_c, 10, 73, 105
8, 69930, Note_off_c, 10, 73, 64
8, 69930, Note_on_c, 10, 72, 105
8, 69945, Note_off_c, 10, 72, 64
8, 69945, Note_on_c, 10, 73, 105
8, 69954, Note_off_c, 10, 73, 64
8, 69960, Note_on_c, 10, 79, 105
8, 69996, Note_off_c, 10, 79, 64
8, 70020, Note_on_c, 10, 82, 105
8, 70056, Note_off_c, 10, 82, 64
8, 70080, Note_on_c, 10, 82, 105
8, 70146, Note_off_c, 10, 82, 64
8, 70200, Note_on_c, 10, 72, 105
8, 70266, Note_off_c, 10, 72, 64
8, 70380, Note_on_c, 10, 74, 105
8, 70395, Note_off_c, 10, 74, 64
8, 70395, Note_on_c, 10, 72, 105
8, 70410, Note_off_c, 10, 72, 64
8, 70410, Note_on_c, 10, 71, 105
8, 70425, Note_off_c, 10, 71, 64
8, 70425, Note_on_c, 10, 72, 105
8, 70434, Note_off_c, 10, 72, 64
8, 70440, Note_on_c, 10, 77, 105
8, 70476, Note_off_c, 10, 77, 64
8, 70500, Note_on_c, 10, 80, 110
8, 70536, Note_off_c, 10, 80, 64
8, 70560, Note_on_c, 10, 70, 70
8, 70650, Note_off_c, 10, 70, 64
8, 70650, Note_on_c, 10, 69, 70
8, 70680, Note_off_c, 10, 69, 64
8, 70680, Note_on_c, 10, 72, 70
8, 70770, Note_off_c, 10, 72, 64
8, 70770, Note_on_c, 10, 70, 70
8, 70800, Note_off_c, 10, 70, 64
8, 70800, Note_on_c, 10, 73, 70
8, 70890, Note_off_c, 10, 73, 64
8, 70890, Note_on_c, 10, 72, 70
8, 70920, Note_off_c, 10, 72, 64
8, 70920, Note_on_c, 10, 76, 70
8, 71130, Note_off_c, 10, 76, 64
8, 71130, Note_on_c, 10, 79, 70
8, 71160, Note_off_c, 10, 79, 64
8, 71160, Note_on_c, 10, 77, 70
8, 71250, Note_off_c, 10, 77, 64
8, 71250, Note_on_c, 10, 81, 70
8, 71280, Note_off_c, 10, 81, 64
8, 71280, Note_on_c, 10, 84, 70
8, 71370, Note_off_c, 10, 84, 64
8, 71370, Note_on_c, 10, 82, 70
8, 71400, Note_off_c, 10, 82, 64
8, 71400, Note_on_c, 10, 85, 70
8, 71592, Note_off_c, 10, 85, 64
8, 71610, Note_on_c, 10, 79, 70
8, 71640, Note_off_c, 10, 79, 64
8, 71640, Note_on_c, 10, 85, 70
8, 71832, Note_off_c, 10, 85, 64
8, 71850, Note_on_c, 10, 79, 70
8, 71880, Note_off_c, 10, 79, 64
8, 71880, Note_on_c, 10, 85, 70
8, 72072, Note_off_c, 10, 85, 64
8, 72090, Note_on_c, 10, 74, 70
8, 72120, Note_off_c, 10, 74, 64
8, 72120, Note_on_c, 10, 83, 70
8, 72312, Note_off_c, 10, 83, 64
8, 72330, Note_on_c, 10, 74, 70
8, 72360, Note_off_c, 10, 74, 64
8, 72360, Note_on_c, 10, 83, 70
8, 72570, Note_off_c, 10, 83, 64
8, 72570, Note_on_c, 10, 75, 70
8, 72600, Note_off_c, 10, 75, 64
8, 72600, Note_on_c, 10, 80, 70
8, 72690, Note_off_c, 10, 80, 64
8, 72690, Note_on_c, 10, 71, 70
8, 72720, Note_off_c, 10, 71, 64
8, 72720, Note_on_c, 10, 75, 70
8, 72810, Note_off_c, 10, 75, 64
8, 72810, Note_on_c, 10, 68, 70
8, 72840, Note_off_c, 10, 68, 64
8, 72840, Note_on_c, 10, 71, 70
8, 72930, Note_off_c, 10, 71, 64
8, 72930, Note_on_c, 10, 62, 70
8, 72960, Note_off_c, 10, 62, 64
8, 72960, Note_on_c, 10, 63, 58
8, 73056, Note_off_c, 10, 63, 64
8, 73200, Note_on_c, 10, 58, 58
8, 73296, Note_off_c, 10, 58, 64
8, 73440, Note_on_c, 10, 56, 58
8, 73500, Note_off_c, 10, 56, 64
8, 73500, Note_on_c, 10, 63, 58
8, 73560, Note_off_c, 10, 63, 64
8, 73560, Note_on_c, 10, 56, 58
8, 73620, Note_off_c, 10, 56, 64
8, 73620, Note_on_c, 10, 63, 58
8, 73680, Note_off_c, 10, 63, 64
8, 73680, Note_on_c, 10, 56, 58
8, 73740, Note_off_c, 10, 56, 64
8, 73740, Note_on_c, 10, 63, 58
8, 73800, Note_off_c, 10, 63, 64
8, 73800, Note_on_c, 10, 56, 58
8, 73860, Note_off_c, 10, 56, 64
8, 73860, Note_on_c, 10, 63, 58
8, 73908, Note_off_c, 10, 63, 64
8, 73920, Note_on_c, 10, 55, 58
8, 73980, Note_off_c, 10, 55, 64
8, 73980, Note_on_c, 10, 63, 58
8, 74040, Note_off_c, 10, 63, 64
8, 74040, Note_on_c, 10, 55, 58
8, 74100, Note_off_c, 10, 55, 64
8, 74100, Note_on_c, 10, 63, 58
8, 74160, Note_off_c, 10, 63, 64
8, 74160, Note_on_c, 10, 55, 58
8, 74220, Note_off_c, 10, 55, 64
8, 74220, Note_on_c, 10, 63, 58
8, 74280, Note_off_c, 10, 63, 64
8, 74280, Note_on_c, 10, 55, 58
8, 74340, Note_off_c, 10, 55, 64
8, 74340, Note_on_c, 10, 63, 58
8, 74388, Note_off_c, 10, 63, 64
8, 74400, Note_on_c, 10, 56, 58
8, 74460, Note_off_c, 10, 56, 64
8, 74460, Note_on_c, 10, 63, 58
8, 74520, Note_off_c, 10, 63, 64
8, 74520, Note_on_c, 10, 56, 58
8, 74580, Note_off_c, 10, 56, 64
8, 74580, Note_on_c, 10, 63, 58
8, 74640, Note_off_c, 10, 63, 64
8, 74640, Note_on_c, 10, 56, 58
8, 74700, Note_off_c, 10, 56, 64
8, 74700, Note_on_c, 10, 63, 58
8, 74760, Note_off_c, 10, 63, 64
8, 74760, Note_on_c, 10, 56, 58
8, 74820, Note_off_c, 10, 56, 64
8, 74820, Note_on_c, 10, 63, 58
8, 74868, Note_off_c, 10, 63, 64
8, 74880, Note_on_c, 10, 55, 58
8, 74940, Note_off_c, 10, 55, 64
8, 74940, Note_on_c, 10, 63, 58
8, 75000, Note_off_c, 10, 63, 64
8, 75000, Note_on_c, 10, 55, 58
8, 75060, Note_off_c, 10, 55, 64
8, 75060, Note_on_c, 10, 63, 58
8, 75120, Note_off_c, 10, 63, 64
8, 75120, Note_on_c, 10, 55, 58
8, 75180, Note_off_c, 10, 55, 64
8, 75180, Note_on_c, 10, 63, 58
8, 75240, Note_off_c, 10, 63, 64
8, 75240, Note_on_c, 10, 55, 58
8, 75300, Note_off_c, 10, 55, 64
8, 75300, Note_on_c, 10, 63, 58
8, 75348, Note_off_c, 10, 63, 64
8, 75360, Note_on_c, 10, 84, 105
8, 75540, Note_off_c, 10, 84, 64
8, 75540, Note_on_c, 10, 80, 105
8, 75588, Note_off_c, 10, 80, 64
8, 75600, Note_on_c, 10, 85, 105
8, 75780, Note_off_c, 10, 85, 64
8, 75780, Note_on_c, 10, 82, 105
8, 75828, Note_off_c, 10, 82, 64
8, 75840, Note_on_c, 10, 82, 105
8, 75900, Note_off_c, 10, 82, 64
8, 75900, Note_on_c, 10, 80, 105
8, 75948, Note_off_c, 10, 80, 64
8, 75960, Note_on_c, 10, 80, 105
8, 76104, Note_off_c, 10, 80, 64
8, 76140, Note_on_c, 10, 79, 105
8, 76170, Note_off_c, 10, 79, 64
8, 76170, Note_on_c, 10, 80, 105
8, 76200, Note_off_c, 10, 80, 64
8, 76200, Note_on_c, 10, 82, 105
8, 76239, Note_off_c, 10, 82, 64
8, 76260, Note_on_c, 10, 79, 105
8, 76299, Note_off_c, 10, 79, 64
8, 76320, Note_on_c, 10, 80, 70
8, 76416, Note_off_c, 10, 80, 64
8, 78720, Note_on_c, 10, 75, 58
8, 78780, Note_off_c, 10, 75, 64
8, 78780, Note_on_c, 10, 74, 58
8, 78840, Note_off_c, 10, 74, 64
8, 78840, Note_on_c, 10, 75, 58
8, 78900, Note_off_c, 10, 75, 64
8, 78900, Note_on_c, 10, 77, 58
8, 78960, Note_off_c, 10, 77, 64
8, 78960, Note_on_c, 10, 75, 58
8, 79020, Note_off_c, 10, 75, 64
8, 79020, Note_on_c, 10, 73, 58
8, 79080, Note_off_c, 10, 73, 64
8, 79080, Note_on_c, 10, 72, 58
8, 79140, Note_off_c, 10, 72, 64
8, 79140, Note_on_c, 10, 70, 58
8, 79188, Note_off_c, 10, 70, 64
8, 79200, Note_on_c, 10, 73, 58
8, 79260, Note_off_c, 10, 73, 64
8, 79260, Note_on_c, 10, 72, 58
8, 79320, Note_off_c, 10, 72, 64
8, 79320, Note_on_c, 10, 73, 58
8, 79380, Note_off_c, 10, 73, 64
8, 79380, Note_on_c, 10, 75, 58
8, 79440, Note_off_c, 10, 75, 64
8, 79440, Note_on_c, 10, 73, 58
8, 79500, Note_off_c, 10, 73, 64
8, 79500, Note_on_c, 10, 72, 58
8, 79560, Note_off_c, 10, 72, 64
8, 79560, Note_on_c, 10, 70, 58
8, 79620, Note_off_c, 10, 70, 64
8, 79620, Note_on_c, 10, 68, 58
8, 79668, Note_off_c, 10, 68, 64
8, 80520, Note_on_c, 10, 68, 58
8, 80610, Note_off_c, 10, 68, 64
8, 80610, Note_on_c, 10, 65, 58
8, 80634, Note_off_c, 10, 65, 64
8, 80640, Note_on_c, 10, 63, 58
8, 80736, Note_off_c, 10, 63, 64
8, 81000, Note_on_c, 10, 80, 58
8, 81090, Note_off_c, 10, 80, 64
8, 81090, Note_on_c, 10, 77, 58
8, 81114, Note_off_c, 10, 77, 64
8, 81120, Note_on_c, 10, 75, 58
8, 81216, Note_off_c, 10, 75, 64
8, 82080, Note_on_c, 10, 63, 70
8, 82320, Note_off_c, 10, 63, 64
8, 82320, Note_on_c, 10, 65, 70
8, 82410, Note_off_c, 10, 65, 64
8, 82410, Note_on_c, 10, 67, 70
8, 82440, Note_off_c, 10, 67, 64
8, 82440, Note_on_c, 10, 68, 70
8, 82530, Note_off_c, 10, 68, 64
8, 82530, Note_on_c, 10, 65, 70
8, 82560, Note_off_c, 10, 65, 64
8, 82560, Note_on_c, 10, 63, 70
8, 82656, Note_off_c, 10, 63, 64
8, 82800, Note_on_c, 10, 68, 70
8, 82890, Note_off_c, 10, 68, 64
8, 82890, Note_on_c, 10, 67, 70
8, 82920, Note_off_c, 10, 67, 64
8, 82920, Note_on_c, 10, 70, 70
8, 83010, Note_off_c, 10, 70, 64
8, 83010, Note_on_c, 10, 68, 70
8, 83040, Note_off_c, 10, 68, 64
8, 83040, Note_on_c, 10, 72, 70
8, 83130, Note_off_c, 10, 72, 64
8, 83130, Note_on_c, 10, 70, 70
8, 83160, Note_off_c, 10, 70, 64
8, 83160, Note_on_c, 10, 73, 70
8, 83250, Note_off_c, 10, 73, 64
8, 83250, Note_on_c, 10, 72, 70
8, 83280, Note_off_c, 10, 72, 64
8, 83280, Note_on_c, 10, 75, 70
8, 83352, Note_off_c, 10, 75, 64
8, 83400, Note_on_c, 10, 75, 70
8, 83472, Note_off_c, 10, 75, 64
8, 83520, Note_on_c, 10, 75, 70
8, 83820, Note_off_c, 10, 75, 64
8, 83820, Note_on_c, 10, 74, 70
8, 83880, Note_off_c, 10, 74, 64
8, 83880, Note_on_c, 10, 73, 70
8, 83940, Note_off_c, 10, 73, 64
8, 83940, Note_on_c, 10, 70, 70
8, 84000, Note_off_c, 10, 70, 64
8, 84000, Note_on_c, 10, 68, 58
8, 84078, Note_off_c, 10, 68, 64
8, 84120, Note_on_c, 10, 80, 58
8, 84198, Note_off_c, 10, 80, 64
8, 84240, Note_on_c, 10, 80, 58
8, 84318, Note_off_c, 10, 80, 64
8, 84360, Note_on_c, 10, 80, 58
8, 84438, Note_off_c, 10, 80, 64
8, 84480, Note_on_c, 10, 80, 58
8, 84660, Note_off_c, 10, 80, 64
8, 84660, Note_on_c, 10, 79, 58
8, 84690, Note_off_c, 10, 79, 64
8, 84690, Note_on_c, 10, 77, 58
8, 84720, Note_off_c, 10, 77, 64
8, 84720, Note_on_c, 10, 75, 58
8, 84792, Note_off_c, 10, 75, 64
8, 84840, Note_on_c, 10, 75, 58
8, 84912, Note_off_c, 10, 75, 64
8, 84960, Note_on_c, 10, 75, 58
8, 85140, Note_off_c, 10, 75, 64
8, 85140, Note_on_c, 10, 73, 58
8, 85155, Note_off_c, 10, 73, 64
8, 85155, Note_on_c, 10, 72, 58
8, 85170, Note_off_c, 10, 72, 64
8, 85170, Note_on_c, 10, 70, 58
8, 85185, Note_off_c, 10, 70, 64
8, 85185, Note_on_c, 10, 68, 58
8, 85200, Note_off_c, 10, 68, 64
8, 85200, Note_on_c, 10, 72, 58
8, 85296, Note_off_c, 10, 72, 64
8, 85320, Note_on_c, 10, 70, 58
8, 85410, Note_off_c, 10, 70, 64
8, 85410, Note_on_c, 10, 75, 58
8, 85434, Note_off_c, 10, 75, 64
8, 85440, Note_on_c, 10, 75, 70
8, 85800, Note_off_c, 10, 75, 64
8, 85800, Note_on_c, 10, 74, 70
8, 85914, Note_off_c, 10, 74, 64
8, 85920, Note_on_c, 10, 73, 70
8, 86280, Note_off_c, 10, 73, 64
8, 86280, Note_on_c, 10, 72, 70
8, 86460, Note_off_c, 10, 72, 64
8, 86460, Note_on_c, 10, 70, 70
8, 86520, Note_off_c, 10, 70, 64
8, 86520, Note_on_c, 10, 73, 70
8, 86580, Note_off_c, 10, 73, 64
8, 86580, Note_on_c, 10, 77, 70
8, 86640, Note_off_c, 10, 77, 64
8, 86640, Note_on_c, 10, 68, 70
8, 86736, Note_off_c, 10, 68, 64
8, 86760, Note_on_c, 10, 67, 70
8, 86850, Note_off_c, 10, 67, 64
8, 86850, Note_on_c, 10, 75, 70
8, 86874, Note_off_c, 10, 75, 64
8, 86880, Note_on_c, 10, 75, 70
8, 87240, Note_off_c, 10, 75, 64
8, 87240, Note_on_c, 10, 74, 70
8, 87354, Note_off_c, 10, 74, 64
8, 87360, Note_on_c, 10, 73, 70
8, 87720, Note_off_c, 10, 73, 64
8, 87720, Note_on_c, 10, 72, 70
8, 87900, Note_off_c, 10, 72, 64
8, 87900, Note_on_c, 10, 70, 70
8, 87960, Note_off_c, 10, 70, 64
8, 87960, Note_on_c, 10, 76, 70
8, 88020, Note_off_c, 10, 76, 64
8, 88020, Note_on_c, 10, 77, 70
8, 88080, Note_off_c, 10, 77, 64
8, 88080, Note_on_c, 10, 75, 70
8, 88140, Note_off_c, 10, 75, 64
8, 88140, Note_on_c, 10, 73, 70
8, 88200, Note_off_c, 10, 73, 64
8, 88200, Note_on_c, 10, 72, 70
8, 88260, Note_off_c, 10, 72, 64
8, 88260, Note_on_c, 10, 70, 70
8, 88308, Note_off_c, 10, 70, 64
8, 88320, Note_on_c, 10, 68, 70
8, 88680, Note_off_c, 10, 68, 64
8, 88680, Note_on_c, 10, 72, 70
8, 88740, Note_off_c, 10, 72, 64
8, 88740, Note_on_c, 10, 70, 70
8, 88800, Note_off_c, 10, 70, 64
8, 88800, Note_on_c, 10, 68, 58
8, 88992, Note_off_c, 10, 68, 64
8, 89160, Note_on_c, 10, 61, 58
8, 89250, Note_off_c, 10, 61, 64
8, 89250, Note_on_c, 10, 58, 70
8, 89274, Note_off_c, 10, 58, 64
8, 89280, Note_on_c, 10, 56, 58
8, 89472, Note_off_c, 10, 56, 64
8, 89640, Note_on_c, 10, 73, 58
8, 89730, Note_off_c, 10, 73, 64
8, 89730, Note_on_c, 10, 70, 70
8, 89754, Note_off_c, 10, 70, 64
8, 89760, Note_on_c, 10, 68, 70
8, 89952, Note_off_c, 10, 68, 64
8, 90120, Note_on_c, 10, 63, 105
8, 90120, Note_on_c, 10, 79, 105
8, 90120, Note_on_c, 10, 70, 105
8, 90186, Note_off_c, 10, 70, 64
8, 90186, Note_off_c, 10, 79, 64
8, 90186, Note_off_c, 10, 63, 64
8, 90240, Note_on_c, 10, 80, 105
8, 90240, Note_on_c, 10, 72, 105
8, 90240, Note_on_c, 10, 63, 105
8, 90336, Note_off_c, 10, 63, 64
8, 90336, Note_off_c, 10, 72, 64
8, 90336, Note_off_c, 10, 80, 64
8, 90336, End_track
9, 0, Start_track
9, 0, Program_c, 11, 48
9, 0, Control_c, 11, 7, 123
9, 0, Control_c, 11, 91, 85
9, 0, Control_c, 11, 10, 40
9, 480, Note_on_c, 11, 60, 70
9, 720, Note_off_c, 11, 60, 64
9, 720, Note_on_c, 11, 61, 70
9, 810, Note_off_c, 11, 61, 64
9, 810, Note_on_c, 11, 63, 70
9, 840, Note_off_c, 11, 63, 64
9, 840, Note_on_c, 11, 65, 70
9, 930, Note_off_c, 11, 65, 64
9, 930, Note_on_c, 11, 61, 70
9, 960, Note_off_c, 11, 61, 64
9, 960, Note_on_c, 11, 60, 58
9, 1056, Note_off_c, 11, 60, 64
9, 1680, Note_on_c, 11, 70, 58
9, 1752, Note_off_c, 11, 70, 64
9, 1800, Note_on_c, 11, 72, 58
9, 1872, Note_off_c, 11, 72, 64
9, 1920, Note_on_c, 11, 70, 58
9, 2112, Note_off_c, 11, 70, 64
9, 2400, Note_on_c, 11, 60, 70
9, 2640, Note_off_c, 11, 60, 64
9, 2640, Note_on_c, 11, 61, 70
9, 2730, Note_off_c, 11, 61, 64
9, 2730, Note_on_c, 11, 63, 70
9, 2760, Note_off_c, 11, 63, 64
9, 2760, Note_on_c, 11, 65, 70
9, 2850, Note_off_c, 11, 65, 64
9, 2850, Note_on_c, 11, 61, 70
9, 2880, Note_off_c, 11, 61, 64
9, 2880, Note_on_c, 11, 60, 58
9, 2976, Note_off_c, 11, 60, 64
9, 3600, Note_on_c, 11, 67, 58
9, 3672, Note_off_c, 11, 67, 64
9, 3720, Note_on_c, 11, 62, 58
9, 3792, Note_off_c, 11, 62, 64
9, 3840, Note_on_c, 11, 63, 58
9, 4032, Note_off_c, 11, 63, 64
9, 4320, Note_on_c, 11, 60, 70
9, 4560, Note_off_c, 11, 60, 64
9, 4560, Note_on_c, 11, 61, 70
9, 4650, Note_off_c, 11, 61, 64
9, 4650, Note_on_c, 11, 63, 70
9, 4680, Note_off_c, 11, 63, 64
9, 4680, Note_on_c, 11, 65, 70
9, 4770, Note_off_c, 11, 65, 64
9, 4770, Note_on_c, 11, 61, 70
9, 4800, Note_off_c, 11, 61, 64
9, 4800, Note_on_c, 11, 60, 58
9, 4896, Note_off_c, 11, 60, 64
9, 5520, Note_on_c, 11, 70, 58
9, 5592, Note_off_c, 11, 70, 64
9, 5640, Note_on_c, 11, 72, 58
9, 5712, Note_off_c, 11, 72, 64
9, 5760, Note_on_c, 11, 70, 58
9, 5952, Note_off_c, 11, 70, 64
9, 6240, Note_on_c, 11, 60, 70
9, 6480, Note_off_c, 11, 60, 64
9, 6480, Note_on_c, 11, 61, 70
9, 6570, Note_off_c, 11, 61, 64
9, 6570, Note_on_c, 11, 63, 70
9, 6600, Note_off_c, 11, 63, 64
9, 6600, Note_on_c, 11, 65, 70
9, 6690, Note_off_c, 11, 65, 64
9, 6690, Note_on_c, 11, 61, 70
9, 6720, Note_off_c, 11, 61, 64
9, 6720, Note_on_c, 11, 60, 58
9, 6816, Note_off_c, 11, 60, 64
9, 7440, Note_on_c, 11, 67, 58
9, 7512, Note_off_c, 11, 67, 64
9, 7560, Note_on_c, 11, 62, 58
9, 7632, Note_off_c, 11, 62, 64
9, 7680, Note_on_c, 11, 63, 58
9, 7872, Note_off_c, 11, 63, 64
9, 8160, Note_on_c, 11, 55, 70
9, 8400, Note_off_c, 11, 55, 64
9, 8400, Note_on_c, 11, 56, 70
9, 8490, Note_off_c, 11, 56, 64
9, 8490, Note_on_c, 11, 58, 70
9, 8520, Note_off_c, 11, 58, 64
9, 8520, Note_on_c, 11, 60, 70
9, 8610, Note_off_c, 11, 60, 64
9, 8610, Note_on_c, 11, 56, 70
9, 8640, Note_off_c, 11, 56, 64
9, 8640, Note_on_c, 11, 55, 70
9, 8736, Note_off_c, 11, 55, 64
9, 9120, Note_on_c, 11, 56, 70
9, 9360, Note_off_c, 11, 56, 64
9, 9360, Note_on_c, 11, 58, 70
9, 9450, Note_off_c, 11, 58, 64
9, 9450, Note_on_c, 11, 60, 70
9, 9480, Note_off_c, 11, 60, 64
9, 9480, Note_on_c, 11, 61, 70
9, 9570, Note_off_c, 11, 61, 64
9, 9570, Note_on_c, 11, 58, 70
9, 9600, Note_off_c, 11, 58, 64
9, 9600, Note_on_c, 11, 56, 70
9, 9696, Note_off_c, 11, 56, 64
9, 10080, Note_on_c, 11, 58, 70
9, 10320, Note_off_c, 11, 58, 64
9, 10320, Note_on_c, 11, 60, 70
9, 10410, Note_off_c, 11, 60, 64
9, 10410, Note_on_c, 11, 61, 70
9, 10440, Note_off_c, 11, 61, 64
9, 10440, Note_on_c, 11, 63, 70
9, 10530, Note_off_c, 11, 63, 64
9, 10530, Note_on_c, 11, 60, 70
9, 10560, Note_off_c, 11, 60, 64
9, 10560, Note_on_c, 11, 58, 58
9, 10656, Note_off_c, 11, 58, 64
9, 11040, Note_on_c, 11, 60, 58
9, 11112, Note_off_c, 11, 60, 64
9, 11280, Note_on_c, 11, 68, 58
9, 11352, Note_off_c, 11, 68, 64
9, 11520, Note_on_c, 11, 67, 58
9, 11592, Note_off_c, 11, 67, 64
9, 11880, Note_on_c, 11, 65, 58
9, 11952, Note_off_c, 11, 65, 64
9, 12000, Note_on_c, 11, 67, 58
9, 12072, Note_off_c, 11, 67, 64
9, 12360, Note_on_c, 11, 65, 58
9, 12432, Note_off_c, 11, 65, 64
9, 12480, Note_on_c, 11, 63, 58
9, 12528, Note_off_c, 11, 63, 64
9, 12570, Note_on_c, 11, 64, 58
9, 12600, Note_off_c, 11, 64, 64
9, 12600, Note_on_c, 11, 65, 58
9, 12648, Note_off_c, 11, 65, 64
9, 12690, Note_on_c, 11, 63, 58
9, 12720, Note_off_c, 11, 63, 64
9, 12720, Note_on_c, 11, 61, 58
9, 12768, Note_off_c, 11, 61, 64
9, 12810, Note_on_c, 11, 60, 58
9, 12840, Note_off_c, 11, 60, 64
9, 12840, Note_on_c, 11, 58, 58
9, 12888, Note_off_c, 11, 58, 64
9, 12930, Note_on_c, 11, 56, 58
9, 12960, Note_off_c, 11, 56, 64
9, 12960, Note_on_c, 11, 55, 58
9, 13032, Note_off_c, 11, 55, 64
9, 13440, Note_on_c, 11, 60, 70
9, 13680, Note_off_c, 11, 60, 64
9, 13680, Note_on_c, 11, 61, 70
9, 13770, Note_off_c, 11, 61, 64
9, 13770, Note_on_c, 11, 63, 70
9, 13800, Note_off_c, 11, 63, 64
9, 13800, Note_on_c, 11, 65, 70
9, 13890, Note_off_c, 11, 65, 64
9, 13890, Note_on_c, 11, 61, 70
9, 13920, Note_off_c, 11, 61, 64
9, 13920, Note_on_c, 11, 60, 58
9, 14016, Note_off_c, 11, 60, 64
9, 14640, Note_on_c, 11, 70, 58
9, 14712, Note_off_c, 11, 70, 64
9, 14760, Note_on_c, 11, 71, 58
9, 14832, Note_off_c, 11, 71, 64
9, 14880, Note_on_c, 11, 70, 58
9, 15072, Note_off_c, 11, 70, 64
9, 15360, Note_on_c, 11, 59, 58
9, 15600, Note_off_c, 11, 59, 64
9, 15600, Note_on_c, 11, 61, 58
9, 15690, Note_off_c, 11, 61, 64
9, 15690, Note_on_c, 11, 63, 58
9, 15720, Note_off_c, 11, 63, 64
9, 15720, Note_on_c, 11, 64, 58
9, 15810, Note_off_c, 11, 64, 64
9, 15810, Note_on_c, 11, 61, 58
9, 15840, Note_off_c, 11, 61, 64
9, 15840, Note_on_c, 11, 59, 58
9, 15936, Note_off_c, 11, 59, 64
9, 16080, Note_on_c, 11, 62, 58
9, 16320, Note_off_c, 11, 62, 64
9, 16320, Note_on_c, 11, 63, 58
9, 16416, Note_off_c, 11, 63, 64
9, 16680, Note_on_c, 11, 67, 58
9, 16752, Note_off_c, 11, 67, 64
9, 16800, Note_on_c, 11, 68, 58
9, 16944, Note_off_c, 11, 68, 64
9, 17280, Note_on_c, 11, 55, 70
9, 17520, Note_off_c, 11, 55, 64
9, 17520, Note_on_c, 11, 56, 70
9, 17610, Note_off_c, 11, 56, 64
9, 17610, Note_on_c, 11, 58, 70
9, 17640, Note_off_c, 11, 58, 64
9, 17640, Note_on_c, 11, 60, 70
9, 17730, Note_off_c, 11, 60, 64
9, 17730, Note_on_c, 11, 56, 70
9, 17760, Note_off_c, 11, 56, 64
9, 17760, Note_on_c, 11, 55, 70
9, 17856, Note_off_c, 11, 55, 64
9, 18240, Note_on_c, 11, 56, 70
9, 18480, Note_off_c, 11, 56, 64
9, 18480, Note_on_c, 11, 58, 70
9, 18570, Note_off_c, 11, 58, 64
9, 18570, Note_on_c, 11, 60, 70
9, 18600, Note_off_c, 11, 60, 64
9, 18600, Note_on_c, 11, 61, 70
9, 18690, Note_off_c, 11, 61, 64
9, 18690, Note_on_c, 11, 58, 70
9, 18720, Note_off_c, 11, 58, 64
9, 18720, Note_on_c, 11, 56, 70
9, 18816, Note_off_c, 11, 56, 64
9, 19200, Note_on_c, 11, 58, 70
9, 19440, Note_off_c, 11, 58, 64
9, 19440, Note_on_c, 11, 60, 70
9, 19530, Note_off_c, 11, 60, 64
9, 19530, Note_on_c, 11, 61, 70
9, 19560, Note_off_c, 11, 61, 64
9, 19560, Note_on_c, 11, 63, 70
9, 19650, Note_off_c, 11, 63, 64
9, 19650, Note_on_c, 11, 60, 70
9, 19680, Note_off_c, 11, 60, 64
9, 19680, Note_on_c, 11, 58, 58
9, 19776, Note_off_c, 11, 58, 64
9, 20160, Note_on_c, 11, 60, 58
9, 20232, Note_off_c, 11, 60, 64
9, 20400, Note_on_c, 11, 68, 58
9, 20472, Note_off_c, 11, 68, 64
9, 20640, Note_on_c, 11, 67, 58
9, 20712, Note_off_c, 11, 67, 64
9, 21000, Note_on_c, 11, 65, 58
9, 21072, Note_off_c, 11, 65, 64
9, 21120, Note_on_c, 11, 67, 58
9, 21192, Note_off_c, 11, 67, 64
9, 21480, Note_on_c, 11, 65, 58
9, 21552, Note_off_c, 11, 65, 64
9, 21600, Note_on_c, 11, 63, 58
9, 21648, Note_off_c, 11, 63, 64
9, 21690, Note_on_c, 11, 64, 58
9, 21720, Note_off_c, 11, 64, 64
9, 21720, Note_on_c, 11, 65, 58
9, 21768, Note_off_c, 11, 65, 64
9, 21810, Note_on_c, 11, 63, 58
9, 21840, Note_off_c, 11, 63, 64
9, 21840, Note_on_c, 11, 61, 58
9, 21888, Note_off_c, 11, 61, 64
9, 21930, Note_on_c, 11, 60, 58
9, 21960, Note_off_c, 11, 60, 64
9, 21960, Note_on_c, 11, 58, 58
9, 22008, Note_off_c, 11, 58, 64
9, 22050, Note_on_c, 11, 56, 58
9, 22080, Note_off_c, 11, 56, 64
9, 22080, Note_on_c, 11, 55, 58
9, 22152, Note_off_c, 11, 55, 64
9, 22560, Note_on_c, 11, 60, 70
9, 22800, Note_off_c, 11, 60, 64
9, 22800, Note_on_c, 11, 61, 70
9, 22890, Note_off_c, 11, 61, 64
9, 22890, Note_on_c, 11, 63, 70
9, 22920, Note_off_c, 11, 63, 64
9, 22920, Note_on_c, 11, 65, 70
9, 23010, Note_off_c, 11, 65, 64
9, 23010, Note_on_c, 11, 61, 70
9, 23040, Note_off_c, 11, 61, 64
9, 23040, Note_on_c, 11, 60, 58
9, 23136, Note_off_c, 11, 60, 64
9, 23760, Note_on_c, 11, 70, 58
9, 23832, Note_off_c, 11, 70, 64
9, 23880, Note_on_c, 11, 71, 58
9, 23952, Note_off_c, 11, 71, 64
9, 24000, Note_on_c, 11, 70, 58
9, 24192, Note_off_c, 11, 70, 64
9, 24480, Note_on_c, 11, 59, 58
9, 24720, Note_off_c, 11, 59, 64
9, 24720, Note_on_c, 11, 61, 58
9, 24810, Note_off_c, 11, 61, 64
9, 24810, Note_on_c, 11, 63, 58
9, 24840, Note_off_c, 11, 63, 64
9, 24840, Note_on_c, 11, 64, 58
9, 24930, Note_off_c, 11, 64, 64
9, 24930, Note_on_c, 11, 61, 58
9, 24960, Note_off_c, 11, 61, 64
9, 24960, Note_on_c, 11, 59, 58
9, 25056, Note_off_c, 11, 59, 64
9, 25200, Note_on_c, 11, 62, 58
9, 25440, Note_off_c, 11, 62, 64
9, 25440, Note_on_c, 11, 63, 58
9, 25536, Note_off_c, 11, 63, 64
9, 25800, Note_on_c, 11, 67, 58
9, 25872, Note_off_c, 11, 67, 64
9, 25920, Note_on_c, 11, 68, 58
9, 26064, Note_off_c, 11, 68, 64
9, 27360, Note_on_c, 11, 60, 105
9, 27408, Note_off_c, 11, 60, 64
9, 27420, Note_on_c, 11, 60, 105
9, 27516, Note_off_c, 11, 60, 64
9, 27540, Note_on_c, 11, 60, 105
9, 27636, Note_off_c, 11, 60, 64
9, 27660, Note_on_c, 11, 60, 105
9, 27756, Note_off_c, 11, 60, 64
9, 27780, Note_on_c, 11, 60, 105
9, 27840, Note_off_c, 11, 60, 64
9, 27840, Note_on_c, 11, 61, 105
9, 27888, Note_off_c, 11, 61, 64
9, 27900, Note_on_c, 11, 61, 105
9, 27996, Note_off_c, 11, 61, 64
9, 28020, Note_on_c, 11, 61, 105
9, 28116, Note_off_c, 11, 61, 64
9, 28140, Note_on_c, 11, 61, 105
9, 28236, Note_off_c, 11, 61, 64
9, 28260, Note_on_c, 11, 61, 105
9, 28320, Note_off_c, 11, 61, 64
9, 28320, Note_on_c, 11, 60, 105
9, 28368, Note_off_c, 11, 60, 64
9, 28380, Note_on_c, 11, 60, 105
9, 28476, Note_off_c, 11, 60, 64
9, 28500, Note_on_c, 11, 60, 105
9, 28596, Note_off_c, 11, 60, 64
9, 28620, Note_on_c, 11, 60, 105
9, 28716, Note_off_c, 11, 60, 64
9, 28740, Note_on_c, 11, 60, 105
9, 28800, Note_off_c, 11, 60, 64
9, 28800, Note_on_c, 11, 59, 105
9, 28848, Note_off_c, 11, 59, 64
9, 28860, Note_on_c, 11, 59, 105
9, 28956, Note_off_c, 11, 59, 64
9, 28980, Note_on_c, 11, 59, 105
9, 29076, Note_off_c, 11, 59, 64
9, 29100, Note_on_c, 11, 59, 105
9, 29196, Note_off_c, 11, 59, 64
9, 29220, Note_on_c, 11, 59, 105
9, 29280, Note_off_c, 11, 59, 64
9, 29280, Note_on_c, 11, 58, 105
9, 29328, Note_off_c, 11, 58, 64
9, 29340, Note_on_c, 11, 63, 105
9, 29436, Note_off_c, 11, 63, 64
9, 29460, Note_on_c, 11, 63, 105
9, 29556, Note_off_c, 11, 63, 64
9, 29580, Note_on_c, 11, 63, 105
9, 29676, Note_off_c, 11, 63, 64
9, 29700, Note_on_c, 11, 63, 105
9, 29808, Note_off_c, 11, 63, 64
9, 29820, Note_on_c, 11, 66, 105
9, 29916, Note_off_c, 11, 66, 64
9, 29940, Note_on_c, 11, 66, 105
9, 30036, Note_off_c, 11, 66, 64
9, 30060, Note_on_c, 11, 66, 105
9, 30156, Note_off_c, 11, 66, 64
9, 30180, Note_on_c, 11, 63, 105
9, 30240, Note_off_c, 11, 63, 64
9, 30240, Note_on_c, 11, 65, 105
9, 30288, Note_off_c, 11, 65, 64
9, 30300, Note_on_c, 11, 65, 105
9, 30396, Note_off_c, 11, 65, 64
9, 30420, Note_on_c, 11, 65, 105
9, 30480, Note_off_c, 11, 65, 64
9, 30480, Note_on_c, 11, 66, 105
9, 30528, Note_off_c, 11, 66, 64
9, 30540, Note_on_c, 11, 66, 105
9, 30636, Note_off_c, 11, 66, 64
9, 30660, Note_on_c, 11, 66, 105
9, 30720, Note_off_c, 11, 66, 64
9, 30720, Note_on_c, 11, 65, 105
9, 30768, Note_off_c, 11, 65, 64
9, 30780, Note_on_c, 11, 65, 105
9, 30876, Note_off_c, 11, 65, 64
9, 30900, Note_on_c, 11, 65, 105
9, 30960, Note_off_c, 11, 65, 64
9, 30960, Note_on_c, 11, 66, 105
9, 31008, Note_off_c, 11, 66, 64
9, 31020, Note_on_c, 11, 66, 105
9, 31116, Note_off_c, 11, 66, 64
9, 31140, Note_on_c, 11, 66, 105
9, 31200, Note_off_c, 11, 66, 64
9, 31200, Note_on_c, 11, 65, 98
9, 31245, Note_off_c, 11, 65, 64
9, 31260, Note_on_c, 11, 70, 58
9, 31305, Note_off_c, 11, 70, 64
9, 31320, Note_on_c, 11, 70, 58
9, 31365, Note_off_c, 11, 70, 64
9, 31380, Note_on_c, 11, 70, 58
9, 31425, Note_off_c, 11, 70, 64
9, 31440, Note_on_c, 11, 70, 58
9, 31485, Note_off_c, 11, 70, 64
9, 31500, Note_on_c, 11, 70, 58
9, 31545, Note_off_c, 11, 70, 64
9, 31560, Note_on_c, 11, 70, 58
9, 31605, Note_off_c, 11, 70, 64
9, 31620, Note_on_c, 11, 70, 58
9, 31665, Note_off_c, 11, 70, 64
9, 31680, Note_on_c, 11, 70, 58
9, 31725, Note_off_c, 11, 70, 64
9, 31740, Note_on_c, 11, 70, 58
9, 31785, Note_off_c, 11, 70, 64
9, 31800, Note_on_c, 11, 70, 58
9, 31845, Note_off_c, 11, 70, 64
9, 31860, Note_on_c, 11, 70, 58
9, 31905, Note_off_c, 11, 70, 64
9, 31920, Note_on_c, 11, 70, 58
9, 31965, Note_off_c, 11, 70, 64
9, 31980, Note_on_c, 11, 70, 58
9, 32025, Note_off_c, 11, 70, 64
9, 32040, Note_on_c, 11, 70, 58
9, 32085, Note_off_c, 11, 70, 64
9, 32100, Note_on_c, 11, 70, 58
9, 32145, Note_off_c, 11, 70, 64
9, 32160, Note_on_c, 11, 70, 58
9, 32205, Note_off_c, 11, 70, 64
9, 32220, Note_on_c, 11, 70, 58
9, 32265, Note_off_c, 11, 70, 64
9, 32280, Note_on_c, 11, 70, 58
9, 32325, Note_off_c, 11, 70, 64
9, 32340, Note_on_c, 11, 70, 58
9, 32385, Note_off_c, 11, 70, 64
9, 32400, Note_on_c, 11, 70, 58
9, 32445, Note_off_c, 11, 70, 64
9, 32460, Note_on_c, 11, 70, 58
9, 32505, Note_off_c, 11, 70, 64
9, 32520, Note_on_c, 11, 70, 58
9, 32565, Note_off_c, 11, 70, 64
9, 32580, Note_on_c, 11, 70, 58
9, 32625, Note_off_c, 11, 70, 64
9, 32640, Note_on_c, 11, 70, 58
9, 32685, Note_off_c, 11, 70, 64
9, 32700, Note_on_c, 11, 70, 58
9, 32745, Note_off_c, 11, 70, 64
9, 32760, Note_on_c, 11, 70, 58
9, 32805, Note_off_c, 11, 70, 64
9, 32820, Note_on_c, 11, 70, 58
9, 32865, Note_off_c, 11, 70, 64
9, 32880, Note_on_c, 11, 70, 58
9, 32925, Note_off_c, 11, 70, 64
9, 32940, Note_on_c, 11, 70, 58
9, 32985, Note_off_c, 11, 70, 64
9, 33000, Note_on_c, 11, 70, 58
9, 33045, Note_off_c, 11, 70, 64
9, 33060, Note_on_c, 11, 70, 58
9, 33105, Note_off_c, 11, 70, 64
9, 33120, Note_on_c, 11, 70, 58
9, 33165, Note_off_c, 11, 70, 64
9, 33180, Note_on_c, 11, 70, 58
9, 33225, Note_off_c, 11, 70, 64
9, 33240, Note_on_c, 11, 70, 58
9, 33285, Note_off_c, 11, 70, 64
9, 33300, Note_on_c, 11, 70, 58
9, 33345, Note_off_c, 11, 70, 64
9, 33360, Note_on_c, 11, 70, 58
9, 33405, Note_off_c, 11, 70, 64
9, 33420, Note_on_c, 11, 70, 58
9, 33465, Note_off_c, 11, 70, 64
9, 33480, Note_on_c, 11, 70, 58
9, 33525, Note_off_c, 11, 70, 64
9, 33540, Note_on_c, 11, 70, 58
9, 33585, Note_off_c, 11, 70, 64
9, 33600, Note_on_c, 11, 70, 58
9, 33645, Note_off_c, 11, 70, 64
9, 33660, Note_on_c, 11, 70, 58
9, 33705, Note_off_c, 11, 70, 64
9, 33720, Note_on_c, 11, 70, 58
9, 33765, Note_off_c, 11, 70, 64
9, 33780, Note_on_c, 11, 70, 58
9, 33825, Note_off_c, 11, 70, 64
9, 33840, Note_on_c, 11, 70, 58
9, 33885, Note_off_c, 11, 70, 64
9, 33900, Note_on_c, 11, 70, 58
9, 33945, Note_off_c, 11, 70, 64
9, 33960, Note_on_c, 11, 70, 58
9, 34005, Note_off_c, 11, 70, 64
9, 34020, Note_on_c, 11, 70, 58
9, 34065, Note_off_c, 11, 70, 64
9, 34080, Note_on_c, 11, 70, 58
9, 34368, Note_off_c, 11, 70, 64
9, 34440, Note_on_c, 11, 70, 58
9, 34440, Note_on_c, 11, 65, 58
9, 34560, Note_off_c, 11, 65, 64
9, 34560, Note_on_c, 11, 67, 58
9, 34656, Note_off_c, 11, 67, 64
9, 34656, Note_off_c, 11, 70, 64
9, 35010, Note_on_c, 11, 70, 98
9, 35034, Note_off_c, 11, 70, 64
9, 35040, Note_on_c, 11, 70, 105
9, 35100, Note_off_c, 11, 70, 64
9, 35160, Note_on_c, 11, 60, 105
9, 35220, Note_off_c, 11, 60, 64
9, 35340, Note_on_c, 11, 62, 105
9, 35355, Note_off_c, 11, 62, 64
9, 35355, Note_on_c, 11, 60, 105
9, 35370, Note_off_c, 11, 60, 64
9, 35370, Note_on_c, 11, 59, 105
9, 35385, Note_off_c, 11, 59, 64
9, 35385, Note_on_c, 11, 60, 105
9, 35394, Note_off_c, 11, 60, 64
9, 35400, Note_on_c, 11, 65, 105
9, 35436, Note_off_c, 11, 65, 64
9, 35460, Note_on_c, 11, 68, 105
9, 35496, Note_off_c, 11, 68, 64
9, 35520, Note_on_c, 11, 68, 105
9, 35580, Note_off_c, 11, 68, 64
9, 35640, Note_on_c, 11, 58, 105
9, 35700, Note_off_c, 11, 58, 64
9, 35820, Note_on_c, 11, 60, 105
9, 35835, Note_off_c, 11, 60, 64
9, 35835, Note_on_c, 11, 58, 105
9, 35850, Note_off_c, 11, 58, 64
9, 35850, Note_on_c, 11, 57, 105
9, 35865, Note_off_c, 11, 57, 64
9, 35865, Note_on_c, 11, 58, 105
9, 35874, Note_off_c, 11, 58, 64
9, 35880, Note_on_c, 11, 63, 105
9, 35916, Note_off_c, 11, 63, 64
9, 35940, Note_on_c, 11, 67, 105
9, 35976, Note_off_c, 11, 67, 64
9, 36000, Note_on_c, 11, 67, 105
9, 36060, Note_off_c, 11, 67, 64
9, 36120, Note_on_c, 11, 56, 105
9, 36180, Note_off_c, 11, 56, 64
9, 36300, Note_on_c, 11, 58, 105
9, 36315, Note_off_c, 11, 58, 64
9, 36315, Note_on_c, 11, 56, 105
9, 36330, Note_off_c, 11, 56, 64
9, 36330, Note_on_c, 11, 55, 105
9, 36345, Note_off_c, 11, 55, 64
9, 36345, Note_on_c, 11, 56, 105
9, 36354, Note_off_c, 11, 56, 64
9, 36360, Note_on_c, 11, 62, 105
9, 36396, Note_off_c, 11, 62, 64
9, 36420, Note_on_c, 11, 65, 105
9, 36456, Note_off_c, 11, 65, 64
9, 36480, Note_on_c, 11, 65, 105
9, 36540, Note_off_c, 11, 65, 64
9, 36600, Note_on_c, 11, 55, 105
9, 36660, Note_off_c, 11, 55, 64
9, 36780, Note_on_c, 11, 56, 105
9, 36795, Note_off_c, 11, 56, 64
9, 36795, Note_on_c, 11, 55, 105
9, 36810, Note_off_c, 11, 55, 64
9, 36810, Note_on_c, 11, 54, 105
9, 36825, Note_off_c, 11, 54, 64
9, 36825, Note_on_c, 11, 55, 105
9, 36834, Note_off_c, 11, 55, 64
9, 36840, Note_on_c, 11, 60, 105
9, 36876, Note_off_c, 11, 60, 64
9, 36900, Note_on_c, 11, 63, 105
9, 36936, Note_off_c, 11, 63, 64
9, 36960, Note_on_c, 11, 60, 70
9, 37056, Note_off_c, 11, 60, 64
9, 37440, Note_on_c, 11, 65, 70
9, 37536, Note_off_c, 11, 65, 64
9, 37920, Note_on_c, 11, 66, 70
9, 38016, Note_off_c, 11, 66, 64
9, 38400, Note_on_c, 11, 70, 58
9, 38496, Note_off_c, 11, 70, 64
9, 38640, Note_on_c, 11, 58, 58
9, 38736, Note_off_c, 11, 58, 64
9, 38880, Note_on_c, 11, 58, 58
9, 40704, Note_off_c, 11, 58, 64
9, 40800, Note_on_c, 11, 70, 105
9, 40980, Note_off_c, 11, 70, 64
9, 40980, Note_on_c, 11, 67, 105
9, 41028, Note_off_c, 11, 67, 64
9, 41040, Note_on_c, 11, 72, 105
9, 41220, Note_off_c, 11, 72, 64
9, 41220, Note_on_c, 11, 68, 105
9, 41268, Note_off_c, 11, 68, 64
9, 41280, Note_on_c, 11, 68, 105
9, 41340, Note_off_c, 11, 68, 64
9, 41340, Note_on_c, 11, 67, 105
9, 41388, Note_off_c, 11, 67, 64
9, 41400, Note_on_c, 11, 67, 105
9, 41544, Note_off_c, 11, 67, 64
9, 41580, Note_on_c, 11, 65, 105
9, 41610, Note_off_c, 11, 65, 64
9, 41610, Note_on_c, 11, 67, 105
9, 41634, Note_off_c, 11, 67, 64
9, 41640, Note_on_c, 11, 68, 105
9, 41676, Note_off_c, 11, 68, 64
9, 41700, Note_on_c, 11, 65, 105
9, 41736, Note_off_c, 11, 65, 64
9, 41760, Note_on_c, 11, 67, 70
9, 41856, Note_off_c, 11, 67, 64
9, 44160, Note_on_c, 11, 60, 58
9, 44256, Note_off_c, 11, 60, 64
9, 44400, Note_on_c, 11, 73, 58
9, 44496, Note_off_c, 11, 73, 64
9, 44640, Note_on_c, 11, 58, 58
9, 44736, Note_off_c, 11, 58, 64
9, 44880, Note_on_c, 11, 72, 58
9, 44976, Note_off_c, 11, 72, 64
9, 45120, Note_on_c, 11, 56, 58
9, 45216, Note_off_c, 11, 56, 64
9, 45360, Note_on_c, 11, 70, 58
9, 45456, Note_off_c, 11, 70, 64
9, 45600, Note_on_c, 11, 60, 70
9, 45840, Note_off_c, 11, 60, 64
9, 45840, Note_on_c, 11, 61, 70
9, 45930, Note_off_c, 11, 61, 64
9, 45930, Note_on_c, 11, 63, 70
9, 45960, Note_off_c, 11, 63, 64
9, 45960, Note_on_c, 11, 65, 70
9, 46050, Note_off_c, 11, 65, 64
9, 46050, Note_on_c, 11, 61, 70
9, 46080, Note_off_c, 11, 61, 64
9, 46080, Note_on_c, 11, 60, 58
9, 46176, Note_off_c, 11, 60, 64
9, 46800, Note_on_c, 11, 70, 58
9, 46872, Note_off_c, 11, 70, 64
9, 46920, Note_on_c, 11, 72, 58
9, 46992, Note_off_c, 11, 72, 64
9, 47040, Note_on_c, 11, 70, 58
9, 47232, Note_off_c, 11, 70, 64
9, 47640, Note_on_c, 11, 68, 58
9, 47718, Note_off_c, 11, 68, 64
9, 47760, Note_on_c, 11, 68, 58
9, 47838, Note_off_c, 11, 68, 64
9, 47880, Note_on_c, 11, 68, 58
9, 47958, Note_off_c, 11, 68, 64
9, 48000, Note_on_c, 11, 68, 58
9, 48180, Note_off_c, 11, 68, 64
9, 48180, Note_on_c, 11, 67, 58
9, 48210, Note_off_c, 11, 67, 64
9, 48210, Note_on_c, 11, 65, 58
9, 48240, Note_off_c, 11, 65, 64
9, 48240, Note_on_c, 11, 63, 58
9, 48312, Note_off_c, 11, 63, 64
9, 48360, Note_on_c, 11, 63, 58
9, 48432, Note_off_c, 11, 63, 64
9, 48480, Note_on_c, 11, 63, 58
9, 48660, Note_off_c, 11, 63, 64
9, 48660, Note_on_c, 11, 62, 58
9, 48675, Note_off_c, 11, 62, 64
9, 48675, Note_on_c, 11, 60, 58
9, 48690, Note_off_c, 11, 60, 64
9, 48690, Note_on_c, 11, 58, 58
9, 48705, Note_off_c, 11, 58, 64
9, 48705, Note_on_c, 11, 56, 58
9, 48720, Note_off_c, 11, 56, 64
9, 48720, Note_on_c, 11, 55, 58
9, 48792, Note_off_c, 11, 55, 64
9, 48810, Note_on_c, 11, 58, 58
9, 48840, Note_off_c, 11, 58, 64
9, 48840, Note_on_c, 11, 56, 58
9, 48930, Note_off_c, 11, 56, 64
9, 48930, Note_on_c, 11, 62, 58
9, 48954, Note_off_c, 11, 62, 64
9, 48960, Note_on_c, 11, 62, 58
9, 49200, Note_off_c, 11, 62, 64
9, 49200, Note_on_c, 11, 63, 30
9, 49296, Note_off_c, 11, 63, 64
9, 49440, Note_on_c, 11, 55, 70
9, 49680, Note_off_c, 11, 55, 64
9, 49680, Note_on_c, 11, 56, 70
9, 49770, Note_off_c, 11, 56, 64
9, 49770, Note_on_c, 11, 58, 70
9, 49800, Note_off_c, 11, 58, 64
9, 49800, Note_on_c, 11, 60, 70
9, 49890, Note_off_c, 11, 60, 64
9, 49890, Note_on_c, 11, 56, 70
9, 49920, Note_off_c, 11, 56, 64
9, 49920, Note_on_c, 11, 55, 70
9, 50016, Note_off_c, 11, 55, 64
9, 50400, Note_on_c, 11, 56, 70
9, 50640, Note_off_c, 11, 56, 64
9, 50640, Note_on_c, 11, 58, 70
9, 50730, Note_off_c, 11, 58, 64
9, 50730, Note_on_c, 11, 60, 70
9, 50760, Note_off_c, 11, 60, 64
9, 50760, Note_on_c, 11, 61, 70
9, 50850, Note_off_c, 11, 61, 64
9, 50850, Note_on_c, 11, 58, 70
9, 50880, Note_off_c, 11, 58, 64
9, 50880, Note_on_c, 11, 56, 70
9, 50976, Note_off_c, 11, 56, 64
9, 51360, Note_on_c, 11, 58, 70
9, 51600, Note_off_c, 11, 58, 64
9, 51600, Note_on_c, 11, 60, 70
9, 51690, Note_off_c, 11, 60, 64
9, 51690, Note_on_c, 11, 61, 70
9, 51720, Note_off_c, 11, 61, 64
9, 51720, Note_on_c, 11, 63, 70
9, 51810, Note_off_c, 11, 63, 64
9, 51810, Note_on_c, 11, 60, 70
9, 51840, Note_off_c, 11, 60, 64
9, 51840, Note_on_c, 11, 58, 70
9, 51936, Note_off_c, 11, 58, 64
9, 52320, Note_on_c, 11, 60, 58
9, 52392, Note_off_c, 11, 60, 64
9, 52560, Note_on_c, 11, 68, 58
9, 52632, Note_off_c, 11, 68, 64
9, 52800, Note_on_c, 11, 67, 58
9, 52872, Note_off_c, 11, 67, 64
9, 53160, Note_on_c, 11, 65, 58
9, 53232, Note_off_c, 11, 65, 64
9, 53280, Note_on_c, 11, 67, 58
9, 53352, Note_off_c, 11, 67, 64
9, 53640, Note_on_c, 11, 65, 58
9, 53712, Note_off_c, 11, 65, 64
9, 53760, Note_on_c, 11, 63, 58
9, 53814, Note_off_c, 11, 63, 64
9, 53850, Note_on_c, 11, 64, 58
9, 53880, Note_off_c, 11, 64, 64
9, 53880, Note_on_c, 11, 65, 58
9, 53934, Note_off_c, 11, 65, 64
9, 53970, Note_on_c, 11, 63, 58
9, 54000, Note_off_c, 11, 63, 64
9, 54000, Note_on_c, 11, 61, 58
9, 54054, Note_off_c, 11, 61, 64
9, 54090, Note_on_c, 11, 60, 58
9, 54120, Note_off_c, 11, 60, 64
9, 54120, Note_on_c, 11, 58, 58
9, 54174, Note_off_c, 11, 58, 64
9, 54210, Note_on_c, 11, 56, 58
9, 54240, Note_off_c, 11, 56, 64
9, 54240, Note_on_c, 11, 55, 58
9, 54312, Note_off_c, 11, 55, 64
9, 54840, Note_on_c, 11, 68, 58
9, 54918, Note_off_c, 11, 68, 64
9, 54960, Note_on_c, 11, 68, 58
9, 55038, Note_off_c, 11, 68, 64
9, 55080, Note_on_c, 11, 68, 58
9, 55158, Note_off_c, 11, 68, 64
9, 55200, Note_on_c, 11, 68, 58
9, 55380, Note_off_c, 11, 68, 64
9, 55380, Note_on_c, 11, 67, 58
9, 55410, Note_off_c, 11, 67, 64
9, 55410, Note_on_c, 11, 65, 58
9, 55440, Note_off_c, 11, 65, 64
9, 55440, Note_on_c, 11, 63, 58
9, 55512, Note_off_c, 11, 63, 64
9, 55560, Note_on_c, 11, 63, 58
9, 55632, Note_off_c, 11, 63, 64
9, 55680, Note_on_c, 11, 63, 58
9, 55860, Note_off_c, 11, 63, 64
9, 55860, Note_on_c, 11, 61, 58
9, 55875, Note_off_c, 11, 61, 64
9, 55875, Note_on_c, 11, 60, 58
9, 55890, Note_off_c, 11, 60, 64
9, 55890, Note_on_c, 11, 58, 58
9, 55905, Note_off_c, 11, 58, 64
9, 55905, Note_on_c, 11, 56, 58
9, 55920, Note_off_c, 11, 56, 64
9, 55920, Note_on_c, 11, 55, 58
9, 55992, Note_off_c, 11, 55, 64
9, 56040, Note_on_c, 11, 56, 58
9, 56112, Note_off_c, 11, 56, 64
9, 56160, Note_on_c, 11, 60, 58
9, 56400, Note_off_c, 11, 60, 64
9, 56400, Note_on_c, 11, 58, 70
9, 56460, Note_off_c, 11, 58, 64
9, 56460, Note_on_c, 11, 63, 70
9, 56520, Note_off_c, 11, 63, 64
9, 56520, Note_on_c, 11, 61, 70
9, 56580, Note_off_c, 11, 61, 64
9, 56580, Note_on_c, 11, 58, 70
9, 56628, Note_off_c, 11, 58, 64
9, 56640, Note_on_c, 11, 59, 70
9, 56880, Note_off_c, 11, 59, 64
9, 56880, Note_on_c, 11, 61, 70
9, 56970, Note_off_c, 11, 61, 64
9, 56970, Note_on_c, 11, 63, 70
9, 57000, Note_off_c, 11, 63, 64
9, 57000, Note_on_c, 11, 64, 70
9, 57090, Note_off_c, 11, 64, 64
9, 57090, Note_on_c, 11, 61, 70
9, 57120, Note_off_c, 11, 61, 64
9, 57120, Note_on_c, 11, 59, 70
9, 57216, Note_off_c, 11, 59, 64
9, 57600, Note_on_c, 11, 59, 70
9, 57840, Note_off_c, 11, 59, 64
9, 57840, Note_on_c, 11, 61, 70
9, 57930, Note_off_c, 11, 61, 64
9, 57930, Note_on_c, 11, 59, 70
9, 57960, Note_off_c, 11, 59, 64
9, 57960, Note_on_c, 11, 61, 70
9, 58050, Note_off_c, 11, 61, 64
9, 58050, Note_on_c, 11, 58, 70
9, 58074, Note_off_c, 11, 58, 64
9, 58080, Note_on_c, 11, 63, 58
9, 58152, Note_off_c, 11, 63, 64
9, 58200, Note_on_c, 11, 63, 58
9, 58272, Note_off_c, 11, 63, 64
9, 58320, Note_on_c, 11, 61, 58
9, 58392, Note_off_c, 11, 61, 64
9, 58440, Note_on_c, 11, 61, 58
9, 58512, Note_off_c, 11, 61, 64
9, 58560, Note_on_c, 11, 59, 58
9, 58632, Note_off_c, 11, 59, 64
9, 58680, Note_on_c, 11, 59, 58
9, 58752, Note_off_c, 11, 59, 64
9, 58800, Note_on_c, 11, 58, 58
9, 58872, Note_off_c, 11, 58, 64
9, 58920, Note_on_c, 11, 58, 58
9, 58992, Note_off_c, 11, 58, 64
9, 59040, Note_on_c, 11, 71, 105
9, 59040, Note_on_c, 11, 62, 105
9, 59088, Note_off_c, 11, 62, 64
9, 59088, Note_off_c, 11, 71, 64
9, 59100, Note_on_c, 11, 71, 105
9, 59100, Note_on_c, 11, 62, 105
9, 59196, Note_off_c, 11, 62, 64
9, 59196, Note_off_c, 11, 71, 64
9, 59220, Note_on_c, 11, 62, 105
9, 59220, Note_on_c, 11, 71, 105
9, 59316, Note_off_c, 11, 71, 64
9, 59316, Note_off_c, 11, 62, 64
9, 59340, Note_on_c, 11, 62, 105
9, 59340, Note_on_c, 11, 71, 105
9, 59436, Note_off_c, 11, 71, 64
9, 59436, Note_off_c, 11, 62, 64
9, 59460, Note_on_c, 11, 62, 105
9, 59460, Note_on_c, 11, 71, 105
9, 59508, Note_off_c, 11, 62, 64
9, 59520, Note_off_c, 11, 71, 64
9, 59520, Note_on_c, 11, 73, 105
9, 59520, Note_on_c, 11, 64, 105
9, 59568, Note_off_c, 11, 64, 64
9, 59568, Note_off_c, 11, 73, 64
9, 59580, Note_on_c, 11, 73, 105
9, 59580, Note_on_c, 11, 64, 105
9, 59676, Note_off_c, 11, 64, 64
9, 59676, Note_off_c, 11, 73, 64
9, 59700, Note_on_c, 11, 64, 105
9, 59700, Note_on_c, 11, 73, 105
9, 59796, Note_off_c, 11, 73, 64
9, 59796, Note_off_c, 11, 64, 64
9, 59820, Note_on_c, 11, 73, 105
9, 59820, Note_on_c, 11, 64, 105
9, 59916, Note_off_c, 11, 64, 64
9, 59916, Note_off_c, 11, 73, 64
9, 59940, Note_on_c, 11, 73, 105
9, 59940, Note_on_c, 11, 64, 105
9, 59988, Note_off_c, 11, 64, 64
9, 60000, Note_off_c, 11, 73, 64
9, 60000, Note_on_c, 11, 71, 105
9, 60000, Note_on_c, 11, 62, 105
9, 60048, Note_off_c, 11, 62, 64
9, 60048, Note_off_c, 11, 71, 64
9, 60060, Note_on_c, 11, 62, 105
9, 60060, Note_on_c, 11, 71, 105
9, 60156, Note_off_c, 11, 71, 64
9, 60156, Note_off_c, 11, 62, 64
9, 60180, Note_on_c, 11, 62, 105
9, 60180, Note_on_c, 11, 71, 105
9, 60276, Note_off_c, 11, 71, 64
9, 60276, Note_off_c, 11, 62, 64
9, 60300, Note_on_c, 11, 71, 105
9, 60300, Note_on_c, 11, 62, 105
9, 60396, Note_off_c, 11, 62, 64
9, 60396, Note_off_c, 11, 71, 64
9, 60420, Note_on_c, 11, 62, 105
9, 60420, Note_on_c, 11, 71, 105
9, 60468, Note_off_c, 11, 62, 64
9, 60480, Note_off_c, 11, 71, 64
9, 60480, Note_on_c, 11, 68, 105
9, 60480, Note_on_c, 11, 59, 105
9, 60528, Note_off_c, 11, 59, 64
9, 60528, Note_off_c, 11, 68, 64
9, 60540, Note_on_c, 11, 68, 105
9, 60540, Note_on_c, 11, 59, 105
9, 60636, Note_off_c, 11, 59, 64
9, 60636, Note_off_c, 11, 68, 64
9, 60660, Note_on_c, 11, 59, 105
9, 60660, Note_on_c, 11, 68, 105
9, 60756, Note_off_c, 11, 68, 64
9, 60756, Note_off_c, 11, 59, 64
9, 60780, Note_on_c, 11, 68, 105
9, 60780, Note_on_c, 11, 59, 105
9, 60876, Note_off_c, 11, 59, 64
9, 60876, Note_off_c, 11, 68, 64
9, 60900, Note_on_c, 11, 68, 105
9, 60900, Note_on_c, 11, 59, 105
9, 60948, Note_off_c, 11, 59, 64
9, 60960, Note_off_c, 11, 68, 64
9, 60960, Note_on_c, 11, 60, 105
9, 60960, Note_on_c, 11, 69, 105
9, 61008, Note_off_c, 11, 69, 64
9, 61008, Note_off_c, 11, 60, 64
9, 61020, Note_on_c, 11, 60, 105
9, 61020, Note_on_c, 11, 69, 105
9, 61116, Note_off_c, 11, 69, 64
9, 61116, Note_off_c, 11, 60, 64
9, 61140, Note_on_c, 11, 69, 105
9, 61140, Note_on_c, 11, 60, 105
9, 61236, Note_off_c, 11, 60, 64
9, 61236, Note_off_c, 11, 69, 64
9, 61260, Note_on_c, 11, 69, 105
9, 61260, Note_on_c, 11, 60, 105
9, 61356, Note_off_c, 11, 60, 64
9, 61356, Note_off_c, 11, 69, 64
9, 61380, Note_on_c, 11, 60, 105
9, 61380, Note_on_c, 11, 69, 105
9, 61428, Note_off_c, 11, 60, 64
9, 61440, Note_off_c, 11, 69, 64
9, 61440, Note_on_c, 11, 65, 105
9, 61440, Note_on_c, 11, 73, 105
9, 61488, Note_off_c, 11, 73, 64
9, 61488, Note_off_c, 11, 65, 64
9, 61500, Note_on_c, 11, 73, 105
9, 61500, Note_on_c, 11, 65, 105
9, 61596, Note_off_c, 11, 65, 64
9, 61596, Note_off_c, 11, 73, 64
9, 61620, Note_on_c, 11, 73, 105
9, 61620, Note_on_c, 11, 65, 105
9, 61716, Note_off_c, 11, 65, 64
9, 61716, Note_off_c, 11, 73, 64
9, 61740, Note_on_c, 11, 73, 105
9, 61740, Note_on_c, 11, 65, 105
9, 61836, Note_off_c, 11, 65, 64
9, 61836, Note_off_c, 11, 73, 64
9, 61860, Note_on_c, 11, 73, 105
9, 61860, Note_on_c, 11, 65, 105
9, 61908, Note_off_c, 11, 65, 64
9, 61920, Note_off_c, 11, 73, 64
9, 61920, Note_on_c, 11, 67, 105
9, 61920, Note_on_c, 11, 76, 105
9, 61968, Note_off_c, 11, 76, 64
9, 61968, Note_off_c, 11, 67, 64
9, 61980, Note_on_c, 11, 67, 105
9, 61980, Note_on_c, 11, 76, 105
9, 62076, Note_off_c, 11, 76, 64
9, 62076, Note_off_c, 11, 67, 64
9, 62100, Note_on_c, 11, 76, 105
9, 62100, Note_on_c, 11, 67, 105
9, 62196, Note_off_c, 11, 67, 64
9, 62196, Note_off_c, 11, 76, 64
9, 62220, Note_on_c, 11, 67, 105
9, 62220, Note_on_c, 11, 76, 105
9, 62316, Note_off_c, 11, 76, 64
9, 62316, Note_off_c, 11, 67, 64
9, 62340, Note_on_c, 11, 67, 105
9, 62340, Note_on_c, 11, 76, 105
9, 62388, Note_off_c, 11, 67, 64
9, 62400, Note_off_c, 11, 76, 64
9, 62400, Note_on_c, 11, 68, 105
9, 62400, Note_on_c, 11, 75, 105
9, 62448, Note_off_c, 11, 75, 64
9, 62448, Note_off_c, 11, 68, 64
9, 62460, Note_on_c, 11, 75, 105
9, 62460, Note_on_c, 11, 68, 105
9, 62556, Note_off_c, 11, 68, 64
9, 62556, Note_off_c, 11, 75, 64
9, 62580, Note_on_c, 11, 68, 105
9, 62580, Note_on_c, 11, 75, 105
9, 62676, Note_off_c, 11, 75, 64
9, 62676, Note_off_c, 11, 68, 64
9, 62700, Note_on_c, 11, 75, 105
9, 62700, Note_on_c, 11, 68, 105
9, 62796, Note_off_c, 11, 68, 64
9, 62796, Note_off_c, 11, 75, 64
9, 62820, Note_on_c, 11, 68, 105
9, 62820, Note_on_c, 11, 75, 105
9, 62880, Note_off_c, 11, 75, 64
9, 62880, Note_on_c, 11, 71, 105
9, 62928, Note_off_c, 11, 71, 64
9, 62928, Note_off_c, 11, 68, 64
9, 62940, Note_on_c, 11, 68, 105
9, 62940, Note_on_c, 11, 71, 105
9, 63036, Note_off_c, 11, 71, 64
9, 63036, Note_off_c, 11, 68, 64
9, 63060, Note_on_c, 11, 68, 105
9, 63060, Note_on_c, 11, 71, 105
9, 63156, Note_off_c, 11, 71, 64
9, 63156, Note_off_c, 11, 68, 64
9, 63180, Note_on_c, 11, 68, 105
9, 63180, Note_on_c, 11, 71, 105
9, 63276, Note_off_c, 11, 71, 64
9, 63276, Note_off_c, 11, 68, 64
9, 63300, Note_on_c, 11, 68, 105
9, 63300, Note_on_c, 11, 71, 105
9, 63408, Note_off_c, 11, 71, 64
9, 63408, Note_off_c, 11, 68, 64
9, 63420, Note_on_c, 11, 68, 105
9, 63420, Note_on_c, 11, 71, 105
9, 63516, Note_off_c, 11, 71, 64
9, 63516, Note_off_c, 11, 68, 64
9, 63540, Note_on_c, 11, 71, 105
9, 63540, Note_on_c, 11, 68, 105
9, 63636, Note_off_c, 11, 68, 64
9, 63636, Note_off_c, 11, 71, 64
9, 63660, Note_on_c, 11, 68, 105
9, 63660, Note_on_c, 11, 71, 105
9, 63756, Note_off_c, 11, 71, 64
9, 63756, Note_off_c, 11, 68, 64
9, 63780, Note_on_c, 11, 68, 105
9, 63840, Note_off_c, 11, 68, 64
9, 63840, Note_on_c, 11, 67, 105
9, 63888, Note_off_c, 11, 67, 64
9, 63900, Note_on_c, 11, 70, 105
9, 63996, Note_off_c, 11, 70, 64
9, 64020, Note_on_c, 11, 70, 105
9, 64080, Note_off_c, 11, 70, 64
9, 64080, Note_on_c, 11, 71, 105
9, 64128, Note_off_c, 11, 71, 64
9, 64140, Note_on_c, 11, 71, 105
9, 64236, Note_off_c, 11, 71, 64
9, 64260, Note_on_c, 11, 71, 105
9, 64320, Note_off_c, 11, 71, 64
9, 64320, Note_on_c, 11, 70, 105
9, 64368, Note_off_c, 11, 70, 64
9, 64380, Note_on_c, 11, 70, 105
9, 64476, Note_off_c, 11, 70, 64
9, 64500, Note_on_c, 11, 70, 105
9, 64560, Note_off_c, 11, 70, 64
9, 64560, Note_on_c, 11, 71, 105
9, 64608, Note_off_c, 11, 71, 64
9, 64620, Note_on_c, 11, 71, 105
9, 64716, Note_off_c, 11, 71, 64
9, 64740, Note_on_c, 11, 71, 105
9, 64800, Note_off_c, 11, 71, 64
9, 64800, Note_on_c, 11, 70, 105
9, 64896, Note_off_c, 11, 70, 64
9, 65760, Note_on_c, 11, 70, 70
9, 65796, Note_off_c, 11, 70, 64
9, 65820, Note_on_c, 11, 68, 70
9, 65856, Note_off_c, 11, 68, 64
9, 65880, Note_on_c, 11, 67, 70
9, 65916, Note_off_c, 11, 67, 64
9, 65940, Note_on_c, 11, 65, 70
9, 65976, Note_off_c, 11, 65, 64
9, 66000, Note_on_c, 11, 63, 70
9, 66036, Note_off_c, 11, 63, 64
9, 66060, Note_on_c, 11, 61, 70
9, 66096, Note_off_c, 11, 61, 64
9, 66120, Note_on_c, 11, 60, 70
9, 66156, Note_off_c, 11, 60, 64
9, 66180, Note_on_c, 11, 58, 70
9, 66216, Note_off_c, 11, 58, 64
9, 66240, Note_on_c, 11, 56, 70
9, 66336, Note_off_c, 11, 56, 64
9, 66720, Note_on_c, 11, 72, 70
9, 66756, Note_off_c, 11, 72, 64
9, 66780, Note_on_c, 11, 70, 70
9, 66816, Note_off_c, 11, 70, 64
9, 66840, Note_on_c, 11, 68, 70
9, 66876, Note_off_c, 11, 68, 64
9, 66900, Note_on_c, 11, 67, 70
9, 66936, Note_off_c, 11, 67, 64
9, 66960, Note_on_c, 11, 65, 70
9, 66996, Note_off_c, 11, 65, 64
9, 67020, Note_on_c, 11, 63, 70
9, 67056, Note_off_c, 11, 63, 64
9, 67080, Note_on_c, 11, 61, 70
9, 67116, Note_off_c, 11, 61, 64
9, 67140, Note_on_c, 11, 60, 70
9, 67176, Note_off_c, 11, 60, 64
9, 67200, Note_on_c, 11, 58, 70
9, 67296, Note_off_c, 11, 58, 64
9, 67680, Note_on_c, 11, 73, 70
9, 67716, Note_off_c, 11, 73, 64
9, 67740, Note_on_c, 11, 72, 70
9, 67776, Note_off_c, 11, 72, 64
9, 67800, Note_on_c, 11, 70, 70
9, 67836, Note_off_c, 11, 70, 64
9, 67860, Note_on_c, 11, 68, 70
9, 67896, Note_off_c, 11, 68, 64
9, 67920, Note_on_c, 11, 67, 70
9, 67956, Note_off_c, 11, 67, 64
9, 67980, Note_on_c, 11, 65, 70
9, 68016, Note_off_c, 11, 65, 64
9, 68040, Note_on_c, 11, 63, 70
9, 68076, Note_off_c, 11, 63, 64
9, 68100, Note_on_c, 11, 61, 70
9, 68136, Note_off_c, 11, 61, 64
9, 68160, Note_on_c, 11, 63, 58
9, 68256, Note_off_c, 11, 63, 64
9, 68640, Note_on_c, 11, 75, 127
9, 68706, Note_off_c, 11, 75, 64
9, 68760, Note_on_c, 11, 65, 105
9, 68826, Note_off_c, 11, 65, 64
9, 68940, Note_on_c, 11, 67, 105
9, 68955, Note_off_c, 11, 67, 64
9, 68955, Note_on_c, 11, 65, 105
9, 68970, Note_off_c, 11, 65, 64
9, 68970, Note_on_c, 11, 64, 105
9, 68985, Note_off_c, 11, 64, 64
9, 68985, Note_on_c, 11, 65, 105
9, 68994, Note_off_c, 11, 65, 64
9, 69000, Note_on_c, 11, 70, 105
9, 69036, Note_off_c, 11, 70, 64
9, 69060, Note_on_c, 11, 73, 105
9, 69096, Note_off_c, 11, 73, 64
9, 69120, Note_on_c, 11, 73, 105
9, 69186, Note_off_c, 11, 73, 64
9, 69240, Note_on_c, 11, 63, 105
9, 69306, Note_off_c, 11, 63, 64
9, 69420, Note_on_c, 11, 65, 105
9, 69435, Note_off_c, 11, 65, 64
9, 69435, Note_on_c, 11, 63, 105
9, 69450, Note_off_c, 11, 63, 64
9, 69450, Note_on_c, 11, 62, 105
9, 69465, Note_off_c, 11, 62, 64
9, 69465, Note_on_c, 11, 63, 105
9, 69474, Note_off_c, 11, 63, 64
9, 69480, Note_on_c, 11, 68, 105
9, 69516, Note_off_c, 11, 68, 64
9, 69540, Note_on_c, 11, 72, 105
9, 69576, Note_off_c, 11, 72, 64
9, 69600, Note_on_c, 11, 72, 105
9, 69666, Note_off_c, 11, 72, 64
9, 69720, Note_on_c, 11, 61, 105
9, 69786, Note_off_c, 11, 61, 64
9, 69900, Note_on_c, 11, 63, 105
9, 69915, Note_off_c, 11, 63, 64
9, 69915, Note_on_c, 11, 61, 105
9, 69930, Note_off_c, 11, 61, 64
9, 69930, Note_on_c, 11, 60, 105
9, 69945, Note_off_c, 11, 60, 64
9, 69945, Note_on_c, 11, 61, 105
9, 69954, Note_off_c, 11, 61, 64
9, 69960, Note_on_c, 11, 67, 105
9, 69996, Note_off_c, 11, 67, 64
9, 70020, Note_on_c, 11, 70, 105
9, 70056, Note_off_c, 11, 70, 64
9, 70080, Note_on_c, 11, 70, 105
9, 70146, Note_off_c, 11, 70, 64
9, 70200, Note_on_c, 11, 60, 105
9, 70266, Note_off_c, 11, 60, 64
9, 70380, Note_on_c, 11, 62, 105
9, 70395, Note_off_c, 11, 62, 64
9, 70395, Note_on_c, 11, 60, 105
9, 70410, Note_off_c, 11, 60, 64
9, 70410, Note_on_c, 11, 59, 105
9, 70425, Note_off_c, 11, 59, 64
9, 70425, Note_on_c, 11, 60, 105
9, 70434, Note_off_c, 11, 60, 64
9, 70440, Note_on_c, 11, 65, 105
9, 70476, Note_off_c, 11, 65, 64
9, 70500, Note_on_c, 11, 68, 105
9, 70536, Note_off_c, 11, 68, 64
9, 70560, Note_on_c, 11, 65, 58
9, 70656, Note_off_c, 11, 65, 64
9, 71040, Note_on_c, 11, 70, 58
9, 71136, Note_off_c, 11, 70, 64
9, 71520, Note_on_c, 11, 70, 58
9, 71616, Note_off_c, 11, 70, 64
9, 71760, Note_on_c, 11, 70, 58
9, 71856, Note_off_c, 11, 70, 64
9, 72000, Note_on_c, 11, 62, 58
9, 72096, Note_off_c, 11, 62, 64
9, 72240, Note_on_c, 11, 62, 58
9, 72336, Note_off_c, 11, 62, 64
9, 72480, Note_on_c, 11, 63, 58
9, 72576, Note_off_c, 11, 63, 64
9, 72960, Note_on_c, 11, 63, 58
9, 73056, Note_off_c, 11, 63, 64
9, 73200, Note_on_c, 11, 55, 58
9, 73296, Note_off_c, 11, 55, 64
9, 73440, Note_on_c, 11, 56, 58
9, 73920, Note_off_c, 11, 56, 64
9, 73920, Note_on_c, 11, 58, 58
9, 74376, Note_off_c, 11, 58, 64
9, 74400, Note_on_c, 11, 56, 58
9, 74880, Note_off_c, 11, 56, 64
9, 74880, Note_on_c, 11, 58, 58
9, 75336, Note_off_c, 11, 58, 64
9, 75360, Note_on_c, 11, 75, 105
9, 75540, Note_off_c, 11, 75, 64
9, 75540, Note_on_c, 11, 72, 105
9, 75588, Note_off_c, 11, 72, 64
9, 75600, Note_on_c, 11, 77, 105
9, 75780, Note_off_c, 11, 77, 64
9, 75780, Note_on_c, 11, 73, 105
9, 75828, Note_off_c, 11, 73, 64
9, 75840, Note_on_c, 11, 73, 105
9, 75900, Note_off_c, 11, 73, 64
9, 75900, Note_on_c, 11, 72, 105
9, 75948, Note_off_c, 11, 72, 64
9, 75960, Note_on_c, 11, 72, 105
9, 76104, Note_off_c, 11, 72, 64
9, 76140, Note_on_c, 11, 70, 105
9, 76170, Note_off_c, 11, 70, 64
9, 76170, Note_on_c, 11, 72, 105
9, 76200, Note_off_c, 11, 72, 64
9, 76200, Note_on_c, 11, 73, 105
9, 76239, Note_off_c, 11, 73, 64
9, 76260, Note_on_c, 11, 70, 105
9, 76299, Note_off_c, 11, 70, 64
9, 76320, Note_on_c, 11, 72, 70
9, 76416, Note_off_c, 11, 72, 64
9, 78720, Note_on_c, 11, 63, 58
9, 78780, Note_off_c, 11, 63, 64
9, 78780, Note_on_c, 11, 62, 58
9, 78840, Note_off_c, 11, 62, 64
9, 78840, Note_on_c, 11, 63, 58
9, 78900, Note_off_c, 11, 63, 64
9, 78900, Note_on_c, 11, 65, 58
9, 78960, Note_off_c, 11, 65, 64
9, 78960, Note_on_c, 11, 63, 58
9, 79020, Note_off_c, 11, 63, 64
9, 79020, Note_on_c, 11, 61, 58
9, 79080, Note_off_c, 11, 61, 64
9, 79080, Note_on_c, 11, 60, 58
9, 79140, Note_off_c, 11, 60, 64
9, 79140, Note_on_c, 11, 58, 58
9, 79188, Note_off_c, 11, 58, 64
9, 79200, Note_on_c, 11, 61, 58
9, 79260, Note_off_c, 11, 61, 64
9, 79260, Note_on_c, 11, 60, 58
9, 79320, Note_off_c, 11, 60, 64
9, 79320, Note_on_c, 11, 61, 58
9, 79380, Note_off_c, 11, 61, 64
9, 79380, Note_on_c, 11, 63, 58
9, 79440, Note_off_c, 11, 63, 64
9, 79440, Note_on_c, 11, 61, 58
9, 79500, Note_off_c, 11, 61, 64
9, 79500, Note_on_c, 11, 60, 58
9, 79560, Note_off_c, 11, 60, 64
9, 79560, Note_on_c, 11, 58, 58
9, 79620, Note_off_c, 11, 58, 64
9, 79620, Note_on_c, 11, 56, 58
9, 79668, Note_off_c, 11, 56, 64
9, 80520, Note_on_c, 11, 65, 58
9, 80610, Note_off_c, 11, 65, 64
9, 80610, Note_on_c, 11, 62, 58
9, 80634, Note_off_c, 11, 62, 64
9, 80640, Note_on_c, 11, 63, 58
9, 80736, Note_off_c, 11, 63, 64
9, 81000, Note_on_c, 11, 77, 58
9, 81090, Note_off_c, 11, 77, 64
9, 81090, Note_on_c, 11, 74, 58
9, 81114, Note_off_c, 11, 74, 64
9, 81120, Note_on_c, 11, 75, 58
9, 81216, Note_off_c, 11, 75, 64
9, 82080, Note_on_c, 11, 60, 58
9, 82320, Note_off_c, 11, 60, 64
9, 82320, Note_on_c, 11, 61, 58
9, 82410, Note_off_c, 11, 61, 64
9, 82410, Note_on_c, 11, 63, 58
9, 82440, Note_off_c, 11, 63, 64
9, 82440, Note_on_c, 11, 65, 58
9, 82530, Note_off_c, 11, 65, 64
9, 82530, Note_on_c, 11, 61, 58
9, 82560, Note_off_c, 11, 61, 64
9, 82560, Note_on_c, 11, 60, 58
9, 82656, Note_off_c, 11, 60, 64
9, 83280, Note_on_c, 11, 70, 58
9, 83352, Note_off_c, 11, 70, 64
9, 83400, Note_on_c, 11, 72, 58
9, 83472, Note_off_c, 11, 72, 64
9, 83520, Note_on_c, 11, 70, 58
9, 83700, Note_off_c, 11, 70, 64
9, 83700, Note_on_c, 11, 67, 58
9, 83748, Note_off_c, 11, 67, 64
9, 83760, Note_on_c, 11, 70, 58
9, 83856, Note_off_c, 11, 70, 64
9, 84000, Note_on_c, 11, 56, 58
9, 84078, Note_off_c, 11, 56, 64
9, 84120, Note_on_c, 11, 68, 58
9, 84198, Note_off_c, 11, 68, 64
9, 84240, Note_on_c, 11, 68, 58
9, 84318, Note_off_c, 11, 68, 64
9, 84360, Note_on_c, 11, 68, 58
9, 84438, Note_off_c, 11, 68, 64
9, 84480, Note_on_c, 11, 68, 58
9, 84660, Note_off_c, 11, 68, 64
9, 84660, Note_on_c, 11, 67, 58
9, 84690, Note_off_c, 11, 67, 64
9, 84690, Note_on_c, 11, 65, 58
9, 84720, Note_off_c, 11, 65, 64
9, 84720, Note_on_c, 11, 63, 58
9, 84792, Note_off_c, 11, 63, 64
9, 84840, Note_on_c, 11, 63, 58
9, 84912, Note_off_c, 11, 63, 64
9, 84960, Note_on_c, 11, 63, 58
9, 85140, Note_off_c, 11, 63, 64
9, 85140, Note_on_c, 11, 61, 58
9, 85155, Note_off_c, 11, 61, 64
9, 85155, Note_on_c, 11, 60, 58
9, 85170, Note_off_c, 11, 60, 64
9, 85170, Note_on_c, 11, 58, 58
9, 85185, Note_off_c, 11, 58, 64
9, 85185, Note_on_c, 11, 56, 58
9, 85200, Note_off_c, 11, 56, 64
9, 85200, Note_on_c, 11, 60, 58
9, 85320, Note_off_c, 11, 60, 64
9, 85320, Note_on_c, 11, 58, 58
9, 85416, Note_off_c, 11, 58, 64
9, 85440, Note_on_c, 11, 68, 58
9, 85920, Note_off_c, 11, 68, 64
9, 85920, Note_on_c, 11, 67, 58
9, 86040, Note_off_c, 11, 67, 64
9, 86040, Note_on_c, 11, 68, 58
9, 86160, Note_off_c, 11, 68, 64
9, 86160, Note_on_c, 11, 70, 58
9, 86280, Note_off_c, 11, 70, 64
9, 86280, Note_on_c, 11, 68, 58
9, 86376, Note_off_c, 11, 68, 64
9, 86400, Note_on_c, 11, 65, 58
9, 86640, Note_off_c, 11, 65, 64
9, 86640, Note_on_c, 11, 63, 58
9, 86832, Note_off_c, 11, 63, 64
9, 86880, Note_on_c, 11, 68, 58
9, 87336, Note_off_c, 11, 68, 64
9, 87360, Note_on_c, 11, 67, 58
9, 87540, Note_off_c, 11, 67, 64
9, 87540, Note_on_c, 11, 68, 58
9, 87600, Note_off_c, 11, 68, 64
9, 87600, Note_on_c, 11, 70, 58
9, 87696, Note_off_c, 11, 70, 64
9, 87720, Note_on_c, 11, 64, 58
9, 87840, Note_off_c, 11, 64, 64
9, 87840, Note_on_c, 11, 65, 58
9, 87936, Note_off_c, 11, 65, 64
9, 88320, Note_on_c, 11, 60, 58
9, 88380, Note_off_c, 11, 60, 64
9, 88380, Note_on_c, 11, 63, 58
9, 88440, Note_off_c, 11, 63, 64
9, 88440, Note_on_c, 11, 60, 58
9, 88500, Note_off_c, 11, 60, 64
9, 88500, Note_on_c, 11, 63, 58
9, 88560, Note_off_c, 11, 63, 64
9, 88560, Note_on_c, 11, 60, 58
9, 88620, Note_off_c, 11, 60, 64
9, 88620, Note_on_c, 11, 63, 58
9, 88680, Note_off_c, 11, 63, 64
9, 88680, Note_on_c, 11, 61, 58
9, 88740, Note_off_c, 11, 61, 64
9, 88740, Note_on_c, 11, 63, 58
9, 88800, Note_off_c, 11, 63, 64
9, 88800, Note_on_c, 11, 60, 58
9, 88992, Note_off_c, 11, 60, 64
9, 89160, Note_on_c, 11, 58, 58
9, 89250, Note_off_c, 11, 58, 64
9, 89250, Note_on_c, 11, 55, 58
9, 89274, Note_off_c, 11, 55, 64
9, 89280, Note_on_c, 11, 56, 58
9, 89472, Note_off_c, 11, 56, 64
9, 89640, Note_on_c, 11, 70, 30
9, 89730, Note_off_c, 11, 70, 64
9, 89730, Note_on_c, 11, 67, 58
9, 89754, Note_off_c, 11, 67, 64
9, 89760, Note_on_c, 11, 68, 58
9, 89952, Note_off_c, 11, 68, 64
9, 90120, Note_on_c, 11, 63, 105
9, 90120, Note_on_c, 11, 70, 105
9, 90120, Note_on_c, 11, 79, 105
9, 90186, Note_off_c, 11, 79, 64
9, 90186, Note_off_c, 11, 70, 64
9, 90186, Note_off_c, 11, 63, 64
9, 90240, Note_on_c, 11, 80, 105
9, 90240, Note_on_c, 11, 72, 105
9, 90240, Note_on_c, 11, 63, 105
9, 90336, Note_off_c, 11, 63, 64
9, 90336, Note_off_c, 11, 72, 64
9, 90336, Note_off_c, 11, 80, 64
9, 90336, End_track
10, 0, Start_track
10, 0, Program_c, 12, 48
10, 0, Control_c, 12, 7, 123
10, 0, Control_c, 12, 91, 85
10, 0, Control_c, 12, 10, 98
10, 480, Note_on_c, 12, 56, 58
10, 1056, Note_off_c, 12, 56, 64
10, 1680, Note_on_c, 12, 67, 58
10, 1752, Note_off_c, 12, 67, 64
10, 1800, Note_on_c, 12, 68, 58
10, 1872, Note_off_c, 12, 68, 64
10, 1920, Note_on_c, 12, 67, 58
10, 2112, Note_off_c, 12, 67, 64
10, 2400, Note_on_c, 12, 56, 58
10, 2976, Note_off_c, 12, 56, 64
10, 3600, Note_on_c, 12, 58, 58
10, 3672, Note_off_c, 12, 58, 64
10, 3720, Note_on_c, 12, 56, 58
10, 3792, Note_off_c, 12, 56, 64
10, 3840, Note_on_c, 12, 55, 58
10, 4032, Note_off_c, 12, 55, 64
10, 4320, Note_on_c, 12, 56, 58
10, 4896, Note_off_c, 12, 56, 64
10, 5520, Note_on_c, 12, 67, 58
10, 5592, Note_off_c, 12, 67, 64
10, 5640, Note_on_c, 12, 68, 58
10, 5712, Note_off_c, 12, 68, 64
10, 5760, Note_on_c, 12, 67, 58
10, 5952, Note_off_c, 12, 67, 64
10, 6240, Note_on_c, 12, 56, 58
10, 6816, Note_off_c, 12, 56, 64
10, 7440, Note_on_c, 12, 58, 58
10, 7512, Note_off_c, 12, 58, 64
10, 7560, Note_on_c, 12, 56, 58
10, 7632, Note_off_c, 12, 56, 64
10, 7680, Note_on_c, 12, 55, 58
10, 7872, Note_off_c, 12, 55, 64
10, 8160, Note_on_c, 12, 63, 58
10, 8208, Note_off_c, 12, 63, 64
10, 8220, Note_on_c, 12, 63, 58
10, 8268, Note_off_c, 12, 63, 64
10, 8280, Note_on_c, 12, 63, 58
10, 8328, Note_off_c, 12, 63, 64
10, 8340, Note_on_c, 12, 63, 58
10, 8388, Note_off_c, 12, 63, 64
10, 8400, Note_on_c, 12, 63, 58
10, 8448, Note_off_c, 12, 63, 64
10, 8460, Note_on_c, 12, 63, 58
10, 8508, Note_off_c, 12, 63, 64
10, 8520, Note_on_c, 12, 63, 58
10, 8568, Note_off_c, 12, 63, 64
10, 8580, Note_on_c, 12, 63, 58
10, 8628, Note_off_c, 12, 63, 64
10, 8640, Note_on_c, 12, 63, 58
10, 8688, Note_off_c, 12, 63, 64
10, 8700, Note_on_c, 12, 63, 58
10, 8748, Note_off_c, 12, 63, 64
10, 8760, Note_on_c, 12, 63, 58
10, 8808, Note_off_c, 12, 63, 64
10, 8820, Note_on_c, 12, 63, 58
10, 8868, Note_off_c, 12, 63, 64
10, 8880, Note_on_c, 12, 63, 58
10, 8928, Note_off_c, 12, 63, 64
10, 8940, Note_on_c, 12, 63, 58
10, 8988, Note_off_c, 12, 63, 64
10, 9000, Note_on_c, 12, 63, 58
10, 9048, Note_off_c, 12, 63, 64
10, 9060, Note_on_c, 12, 63, 58
10, 9108, Note_off_c, 12, 63, 64
10, 9120, Note_on_c, 12, 63, 58
10, 9168, Note_off_c, 12, 63, 64
10, 9180, Note_on_c, 12, 63, 58
10, 9228, Note_off_c, 12, 63, 64
10, 9240, Note_on_c, 12, 63, 58
10, 9288, Note_off_c, 12, 63, 64
10, 9300, Note_on_c, 12, 63, 58
10, 9348, Note_off_c, 12, 63, 64
10, 9360, Note_on_c, 12, 63, 58
10, 9408, Note_off_c, 12, 63, 64
10, 9420, Note_on_c, 12, 63, 58
10, 9468, Note_off_c, 12, 63, 64
10, 9480, Note_on_c, 12, 63, 58
10, 9528, Note_off_c, 12, 63, 64
10, 9540, Note_on_c, 12, 63, 58
10, 9588, Note_off_c, 12, 63, 64
10, 9600, Note_on_c, 12, 63, 58
10, 9648, Note_off_c, 12, 63, 64
10, 9660, Note_on_c, 12, 63, 58
10, 9708, Note_off_c, 12, 63, 64
10, 9720, Note_on_c, 12, 63, 58
10, 9768, Note_off_c, 12, 63, 64
10, 9780, Note_on_c, 12, 63, 58
10, 9828, Note_off_c, 12, 63, 64
10, 9840, Note_on_c, 12, 63, 58
10, 9888, Note_off_c, 12, 63, 64
10, 9900, Note_on_c, 12, 63, 58
10, 9948, Note_off_c, 12, 63, 64
10, 9960, Note_on_c, 12, 63, 58
10, 10008, Note_off_c, 12, 63, 64
10, 10020, Note_on_c, 12, 63, 58
10, 10068, Note_off_c, 12, 63, 64
10, 10080, Note_on_c, 12, 63, 58
10, 10128, Note_off_c, 12, 63, 64
10, 10140, Note_on_c, 12, 63, 58
10, 10188, Note_off_c, 12, 63, 64
10, 10200, Note_on_c, 12, 63, 58
10, 10248, Note_off_c, 12, 63, 64
10, 10260, Note_on_c, 12, 63, 58
10, 10308, Note_off_c, 12, 63, 64
10, 10320, Note_on_c, 12, 63, 58
10, 10368, Note_off_c, 12, 63, 64
10, 10380, Note_on_c, 12, 63, 58
10, 10428, Note_off_c, 12, 63, 64
10, 10440, Note_on_c, 12, 63, 58
10, 10488, Note_off_c, 12, 63, 64
10, 10500, Note_on_c, 12, 63, 58
10, 10548, Note_off_c, 12, 63, 64
10, 10560, Note_on_c, 12, 63, 58
10, 10656, Note_off_c, 12, 63, 64
10, 11040, Note_on_c, 12, 63, 58
10, 11112, Note_off_c, 12, 63, 64
10, 11280, Note_on_c, 12, 62, 58
10, 11352, Note_off_c, 12, 62, 64
10, 11520, Note_on_c, 12, 63, 58
10, 11592, Note_off_c, 12, 63, 64
10, 11880, Note_on_c, 12, 62, 58
10, 11952, Note_off_c, 12, 62, 64
10, 12000, Note_on_c, 12, 63, 58
10, 12072, Note_off_c, 12, 63, 64
10, 12360, Note_on_c, 12, 62, 58
10, 12432, Note_off_c, 12, 62, 64
10, 12480, Note_on_c, 12, 63, 30
10, 12552, Note_off_c, 12, 63, 64
10, 13050, Note_on_c, 12, 65, 70
10, 13080, Note_off_c, 12, 65, 64
10, 13080, Note_on_c, 12, 63, 70
10, 13134, Note_off_c, 12, 63, 64
10, 13170, Note_on_c, 12, 61, 70
10, 13200, Note_off_c, 12, 61, 64
10, 13200, Note_on_c, 12, 60, 70
10, 13254, Note_off_c, 12, 60, 64
10, 13290, Note_on_c, 12, 58, 70
10, 13320, Note_off_c, 12, 58, 64
10, 13320, Note_on_c, 12, 56, 70
10, 13374, Note_off_c, 12, 56, 64
10, 13410, Note_on_c, 12, 55, 70
10, 13440, Note_off_c, 12, 55, 64
10, 13440, Note_on_c, 12, 56, 58
10, 14016, Note_off_c, 12, 56, 64
10, 14640, Note_on_c, 12, 67, 58
10, 14712, Note_off_c, 12, 67, 64
10, 14760, Note_on_c, 12, 68, 58
10, 14832, Note_off_c, 12, 68, 64
10, 14880, Note_on_c, 12, 67, 58
10, 15072, Note_off_c, 12, 67, 64
10, 15360, Note_on_c, 12, 56, 58
10, 15936, Note_off_c, 12, 56, 64
10, 16080, Note_on_c, 12, 56, 58
10, 16320, Note_off_c, 12, 56, 64
10, 16320, Note_on_c, 12, 56, 58
10, 16416, Note_off_c, 12, 56, 64
10, 16680, Note_on_c, 12, 61, 58
10, 16752, Note_off_c, 12, 61, 64
10, 16800, Note_on_c, 12, 60, 58
10, 16944, Note_off_c, 12, 60, 64
10, 17280, Note_on_c, 12, 63, 58
10, 17328, Note_off_c, 12, 63, 64
10, 17340, Note_on_c, 12, 63, 58
10, 17388, Note_off_c, 12, 63, 64
10, 17400, Note_on_c, 12, 63, 58
10, 17448, Note_off_c, 12, 63, 64
10, 17460, Note_on_c, 12, 63, 58
10, 17508, Note_off_c, 12, 63, 64
10, 17520, Note_on_c, 12, 63, 58
10, 17568, Note_off_c, 12, 63, 64
10, 17580, Note_on_c, 12, 63, 58
10, 17628, Note_off_c, 12, 63, 64
10, 17640, Note_on_c, 12, 63, 58
10, 17688, Note_off_c, 12, 63, 64
10, 17700, Note_on_c, 12, 63, 58
10, 17748, Note_off_c, 12, 63, 64
10, 17760, Note_on_c, 12, 63, 58
10, 17808, Note_off_c, 12, 63, 64
10, 17820, Note_on_c, 12, 63, 58
10, 17868, Note_off_c, 12, 63, 64
10, 17880, Note_on_c, 12, 63, 58
10, 17928, Note_off_c, 12, 63, 64
10, 17940, Note_on_c, 12, 63, 58
10, 17988, Note_off_c, 12, 63, 64
10, 18000, Note_on_c, 12, 63, 58
10, 18048, Note_off_c, 12, 63, 64
10, 18060, Note_on_c, 12, 63, 58
10, 18108, Note_off_c, 12, 63, 64
10, 18120, Note_on_c, 12, 63, 58
10, 18168, Note_off_c, 12, 63, 64
10, 18180, Note_on_c, 12, 63, 58
10, 18228, Note_off_c, 12, 63, 64
10, 18240, Note_on_c, 12, 63, 58
10, 18288, Note_off_c, 12, 63, 64
10, 18300, Note_on_c, 12, 63, 58
10, 18348, Note_off_c, 12, 63, 64
10, 18360, Note_on_c, 12, 63, 58
10, 18408, Note_off_c, 12, 63, 64
10, 18420, Note_on_c, 12, 63, 58
10, 18468, Note_off_c, 12, 63, 64
10, 18480, Note_on_c, 12, 63, 58
10, 18528, Note_off_c, 12, 63, 64
10, 18540, Note_on_c, 12, 63, 58
10, 18588, Note_off_c, 12, 63, 64
10, 18600, Note_on_c, 12, 63, 58
10, 18648, Note_off_c, 12, 63, 64
10, 18660, Note_on_c, 12, 63, 58
10, 18708, Note_off_c, 12, 63, 64
10, 18720, Note_on_c, 12, 63, 58
10, 18768, Note_off_c, 12, 63, 64
10, 18780, Note_on_c, 12, 63, 58
10, 18828, Note_off_c, 12, 63, 64
10, 18840, Note_on_c, 12, 63, 58
10, 18888, Note_off_c, 12, 63, 64
10, 18900, Note_on_c, 12, 63, 58
10, 18948, Note_off_c, 12, 63, 64
10, 18960, Note_on_c, 12, 63, 58
10, 19008, Note_off_c, 12, 63, 64
10, 19020, Note_on_c, 12, 63, 58
10, 19068, Note_off_c, 12, 63, 64
10, 19080, Note_on_c, 12, 63, 58
10, 19128, Note_off_c, 12, 63, 64
10, 19140, Note_on_c, 12, 63, 58
10, 19188, Note_off_c, 12, 63, 64
10, 19200, Note_on_c, 12, 63, 58
10, 19248, Note_off_c, 12, 63, 64
10, 19260, Note_on_c, 12, 63, 58
10, 19308, Note_off_c, 12, 63, 64
10, 19320, Note_on_c, 12, 63, 58
10, 19368, Note_off_c, 12, 63, 64
10, 19380, Note_on_c, 12, 63, 58
10, 19428, Note_off_c, 12, 63, 64
10, 19440, Note_on_c, 12, 63, 58
10, 19488, Note_off_c, 12, 63, 64
10, 19500, Note_on_c, 12, 63, 58
10, 19548, Note_off_c, 12, 63, 64
10, 19560, Note_on_c, 12, 63, 58
10, 19608, Note_off_c, 12, 63, 64
10, 19620, Note_on_c, 12, 63, 58
10, 19668, Note_off_c, 12, 63, 64
10, 19680, Note_on_c, 12, 63, 58
10, 19776, Note_off_c, 12, 63, 64
10, 20160, Note_on_c, 12, 63, 58
10, 20232, Note_off_c, 12, 63, 64
10, 20400, Note_on_c, 12, 62, 58
10, 20472, Note_off_c, 12, 62, 64
10, 20640, Note_on_c, 12, 63, 58
10, 20712, Note_off_c, 12, 63, 64
10, 21000, Note_on_c, 12, 62, 58
10, 21072, Note_off_c, 12, 62, 64
10, 21120, Note_on_c, 12, 63, 58
10, 21192, Note_off_c, 12, 63, 64
10, 21480, Note_on_c, 12, 62, 58
10, 21552, Note_off_c, 12, 62, 64
10, 21600, Note_on_c, 12, 63, 30
10, 21672, Note_off_c, 12, 63, 64
10, 22170, Note_on_c, 12, 65, 70
10, 22200, Note_off_c, 12, 65, 64
10, 22200, Note_on_c, 12, 63, 70
10, 22254, Note_off_c, 12, 63, 64
10, 22290, Note_on_c, 12, 61, 70
10, 22320, Note_off_c, 12, 61, 64
10, 22320, Note_on_c, 12, 60, 70
10, 22374, Note_off_c, 12, 60, 64
10, 22410, Note_on_c, 12, 58, 70
10, 22440, Note_off_c, 12, 58, 64
10, 22440, Note_on_c, 12, 56, 70
10, 22494, Note_off_c, 12, 56, 64
10, 22530, Note_on_c, 12, 55, 70
10, 22560, Note_off_c, 12, 55, 64
10, 22560, Note_on_c, 12, 56, 58
10, 23136, Note_off_c, 12, 56, 64
10, 23760, Note_on_c, 12, 67, 58
10, 23832, Note_off_c, 12, 67, 64
10, 23880, Note_on_c, 12, 68, 58
10, 23952, Note_off_c, 12, 68, 64
10, 24000, Note_on_c, 12, 67, 58
10, 24192, Note_off_c, 12, 67, 64
10, 24480, Note_on_c, 12, 56, 58
10, 25056, Note_off_c, 12, 56, 64
10, 25200, Note_on_c, 12, 56, 58
10, 25440, Note_off_c, 12, 56, 64
10, 25440, Note_on_c, 12, 56, 58
10, 25536, Note_off_c, 12, 56, 64
10, 25800, Note_on_c, 12, 61, 58
10, 25872, Note_off_c, 12, 61, 64
10, 25920, Note_on_c, 12, 60, 58
10, 26064, Note_off_c, 12, 60, 64
10, 27360, Note_on_c, 12, 56, 105
10, 27408, Note_off_c, 12, 56, 64
10, 27420, Note_on_c, 12, 56, 105
10, 27516, Note_off_c, 12, 56, 64
10, 27540, Note_on_c, 12, 56, 105
10, 27636, Note_off_c, 12, 56, 64
10, 27660, Note_on_c, 12, 56, 105
10, 27756, Note_off_c, 12, 56, 64
10, 27780, Note_on_c, 12, 56, 105
10, 27840, Note_off_c, 12, 56, 64
10, 27840, Note_on_c, 12, 58, 105
10, 27888, Note_off_c, 12, 58, 64
10, 27900, Note_on_c, 12, 58, 105
10, 27996, Note_off_c, 12, 58, 64
10, 28020, Note_on_c, 12, 58, 105
10, 28116, Note_off_c, 12, 58, 64
10, 28140, Note_on_c, 12, 58, 105
10, 28236, Note_off_c, 12, 58, 64
10, 28260, Note_on_c, 12, 58, 105
10, 28320, Note_off_c, 12, 58, 64
10, 28320, Note_on_c, 12, 56, 105
10, 28368, Note_off_c, 12, 56, 64
10, 28380, Note_on_c, 12, 56, 105
10, 28476, Note_off_c, 12, 56, 64
10, 28500, Note_on_c, 12, 56, 105
10, 28596, Note_off_c, 12, 56, 64
10, 28620, Note_on_c, 12, 56, 105
10, 28716, Note_off_c, 12, 56, 64
10, 28740, Note_on_c, 12, 56, 105
10, 28848, Note_off_c, 12, 56, 64
10, 28860, Note_on_c, 12, 56, 105
10, 28956, Note_off_c, 12, 56, 64
10, 28980, Note_on_c, 12, 56, 105
10, 29076, Note_off_c, 12, 56, 64
10, 29100, Note_on_c, 12, 56, 105
10, 29196, Note_off_c, 12, 56, 64
10, 29220, Note_on_c, 12, 56, 105
10, 29280, Note_off_c, 12, 56, 64
10, 29280, Note_on_c, 12, 58, 105
10, 29328, Note_off_c, 12, 58, 64
10, 29340, Note_on_c, 12, 58, 105
10, 29436, Note_off_c, 12, 58, 64
10, 29460, Note_on_c, 12, 58, 105
10, 29556, Note_off_c, 12, 58, 64
10, 29580, Note_on_c, 12, 58, 105
10, 29676, Note_off_c, 12, 58, 64
10, 29700, Note_on_c, 12, 58, 105
10, 29760, Note_off_c, 12, 58, 64
10, 29760, Note_on_c, 12, 59, 105
10, 29808, Note_off_c, 12, 59, 64
10, 29820, Note_on_c, 12, 63, 105
10, 29916, Note_off_c, 12, 63, 64
10, 29940, Note_on_c, 12, 63, 105
10, 30036, Note_off_c, 12, 63, 64
10, 30060, Note_on_c, 12, 63, 105
10, 30156, Note_off_c, 12, 63, 64
10, 30180, Note_on_c, 12, 63, 105
10, 30240, Note_off_c, 12, 63, 64
10, 30240, Note_on_c, 12, 62, 105
10, 30288, Note_off_c, 12, 62, 64
10, 30300, Note_on_c, 12, 62, 105
10, 30396, Note_off_c, 12, 62, 64
10, 30420, Note_on_c, 12, 58, 105
10, 30480, Note_off_c, 12, 58, 64
10, 30480, Note_on_c, 12, 57, 105
10, 30528, Note_off_c, 12, 57, 64
10, 30540, Note_on_c, 12, 60, 105
10, 30636, Note_off_c, 12, 60, 64
10, 30660, Note_on_c, 12, 63, 105
10, 30720, Note_off_c, 12, 63, 64
10, 30720, Note_on_c, 12, 62, 105
10, 30768, Note_off_c, 12, 62, 64
10, 30780, Note_on_c, 12, 62, 105
10, 30876, Note_off_c, 12, 62, 64
10, 30900, Note_on_c, 12, 58, 105
10, 30960, Note_off_c, 12, 58, 64
10, 30960, Note_on_c, 12, 57, 105
10, 31008, Note_off_c, 12, 57, 64
10, 31020, Note_on_c, 12, 60, 105
10, 31116, Note_off_c, 12, 60, 64
10, 31140, Note_on_c, 12, 63, 105
10, 31200, Note_off_c, 12, 63, 64
10, 31200, Note_on_c, 12, 62, 105
10, 31296, Note_off_c, 12, 62, 64
10, 32160, Note_on_c, 12, 58, 58
10, 32250, Note_off_c, 12, 58, 64
10, 32250, Note_on_c, 12, 57, 58
10, 32280, Note_off_c, 12, 57, 64
10, 32280, Note_on_c, 12, 62, 58
10, 32370, Note_off_c, 12, 62, 64
10, 32370, Note_on_c, 12, 60, 58
10, 32400, Note_off_c, 12, 60, 64
10, 32400, Note_on_c, 12, 63, 58
10, 32490, Note_off_c, 12, 63, 64
10, 32490, Note_on_c, 12, 62, 58
10, 32520, Note_off_c, 12, 62, 64
10, 32520, Note_on_c, 12, 65, 58
10, 32616, Note_off_c, 12, 65, 64
10, 33120, Note_on_c, 12, 58, 58
10, 33210, Note_off_c, 12, 58, 64
10, 33210, Note_on_c, 12, 57, 58
10, 33240, Note_off_c, 12, 57, 64
10, 33240, Note_on_c, 12, 63, 58
10, 33330, Note_off_c, 12, 63, 64
10, 33330, Note_on_c, 12, 62, 58
10, 33360, Note_off_c, 12, 62, 64
10, 33360, Note_on_c, 12, 65, 58
10, 33450, Note_off_c, 12, 65, 64
10, 33450, Note_on_c, 12, 63, 58
10, 33480, Note_off_c, 12, 63, 64
10, 33480, Note_on_c, 12, 67, 58
10, 33576, Note_off_c, 12, 67, 64
10, 34080, Note_on_c, 12, 58, 58
10, 34170, Note_off_c, 12, 58, 64
10, 34170, Note_on_c, 12, 57, 58
10, 34200, Note_off_c, 12, 57, 64
10, 34200, Note_on_c, 12, 65, 58
10, 34290, Note_off_c, 12, 65, 64
10, 34290, Note_on_c, 12, 63, 58
10, 34320, Note_off_c, 12, 63, 64
10, 34320, Note_on_c, 12, 67, 58
10, 34410, Note_off_c, 12, 67, 64
10, 34410, Note_on_c, 12, 65, 58
10, 34440, Note_off_c, 12, 65, 64
10, 34440, Note_on_c, 12, 68, 58
10, 34560, Note_off_c, 12, 68, 64
10, 34560, Note_on_c, 12, 67, 58
10, 34656, Note_off_c, 12, 67, 64
10, 35040, Note_on_c, 12, 64, 105
10, 35130, Note_off_c, 12, 64, 64
10, 35130, Note_on_c, 12, 62, 105
10, 35160, Note_off_c, 12, 62, 64
10, 35160, Note_on_c, 12, 65, 105
10, 35250, Note_off_c, 12, 65, 64
10, 35250, Note_on_c, 12, 64, 105
10, 35280, Note_off_c, 12, 64, 64
10, 35280, Note_on_c, 12, 67, 105
10, 35370, Note_off_c, 12, 67, 64
10, 35370, Note_on_c, 12, 65, 105
10, 35400, Note_off_c, 12, 65, 64
10, 35400, Note_on_c, 12, 68, 105
10, 35496, Note_off_c, 12, 68, 64
10, 35520, Note_on_c, 12, 62, 105
10, 35610, Note_off_c, 12, 62, 64
10, 35610, Note_on_c, 12, 60, 105
10, 35640, Note_off_c, 12, 60, 64
10, 35640, Note_on_c, 12, 63, 105
10, 35730, Note_off_c, 12, 63, 64
10, 35730, Note_on_c, 12, 62, 105
10, 35760, Note_off_c, 12, 62, 64
10, 35760, Note_on_c, 12, 65, 105
10, 35850, Note_off_c, 12, 65, 64
10, 35850, Note_on_c, 12, 63, 105
10, 35880, Note_off_c, 12, 63, 64
10, 35880, Note_on_c, 12, 67, 105
10, 35976, Note_off_c, 12, 67, 64
10, 36000, Note_on_c, 12, 60, 105
10, 36090, Note_off_c, 12, 60, 64
10, 36090, Note_on_c, 12, 59, 105
10, 36120, Note_off_c, 12, 59, 64
10, 36120, Note_on_c, 12, 62, 105
10, 36210, Note_off_c, 12, 62, 64
10, 36210, Note_on_c, 12, 60, 105
10, 36240, Note_off_c, 12, 60, 64
10, 36240, Note_on_c, 12, 63, 105
10, 36330, Note_off_c, 12, 63, 64
10, 36330, Note_on_c, 12, 62, 105
10, 36360, Note_off_c, 12, 62, 64
10, 36360, Note_on_c, 12, 65, 105
10, 36456, Note_off_c, 12, 65, 64
10, 36480, Note_on_c, 12, 59, 105
10, 36570, Note_off_c, 12, 59, 64
10, 36570, Note_on_c, 12, 57, 105
10, 36600, Note_off_c, 12, 57, 64
10, 36600, Note_on_c, 12, 60, 105
10, 36690, Note_off_c, 12, 60, 64
10, 36690, Note_on_c, 12, 59, 105
10, 36720, Note_off_c, 12, 59, 64
10, 36720, Note_on_c, 12, 62, 105
10, 36810, Note_off_c, 12, 62, 64
10, 36810, Note_on_c, 12, 60, 105
10, 36840, Note_off_c, 12, 60, 64
10, 36840, Note_on_c, 12, 63, 105
10, 36936, Note_off_c, 12, 63, 64
10, 36960, Note_on_c, 12, 56, 58
10, 37056, Note_off_c, 12, 56, 64
10, 37440, Note_on_c, 12, 60, 58
10, 37536, Note_off_c, 12, 60, 64
10, 37920, Note_on_c, 12, 63, 58
10, 38016, Note_off_c, 12, 63, 64
10, 38400, Note_on_c, 12, 58, 58
10, 38496, Note_off_c, 12, 58, 64
10, 38640, Note_on_c, 12, 53, 58
10, 38736, Note_off_c, 12, 53, 64
10, 38880, Note_on_c, 12, 51, 58
10, 39360, Note_off_c, 12, 51, 64
10, 39360, Note_on_c, 12, 53, 58
10, 39840, Note_off_c, 12, 53, 64
10, 39840, Note_on_c, 12, 51, 58
10, 40320, Note_off_c, 12, 51, 64
10, 40320, Note_on_c, 12, 53, 58
10, 40800, Note_off_c, 12, 53, 64
10, 40800, Note_on_c, 12, 58, 105
10, 40800, Note_on_c, 12, 67, 105
10, 40944, Note_off_c, 12, 58, 64
10, 40980, Note_off_c, 12, 67, 64
10, 40980, Note_on_c, 12, 63, 105
10, 40980, Note_on_c, 12, 55, 105
10, 41028, Note_off_c, 12, 55, 64
10, 41028, Note_off_c, 12, 63, 64
10, 41040, Note_on_c, 12, 68, 105
10, 41040, Note_on_c, 12, 60, 105
10, 41184, Note_off_c, 12, 60, 64
10, 41220, Note_off_c, 12, 68, 64
10, 41220, Note_on_c, 12, 65, 105
10, 41220, Note_on_c, 12, 56, 105
10, 41268, Note_off_c, 12, 56, 64
10, 41268, Note_off_c, 12, 65, 64
10, 41280, Note_on_c, 12, 56, 105
10, 41280, Note_on_c, 12, 65, 105
10, 41328, Note_off_c, 12, 56, 64
10, 41340, Note_off_c, 12, 65, 64
10, 41340, Note_on_c, 12, 63, 105
10, 41340, Note_on_c, 12, 55, 105
10, 41388, Note_off_c, 12, 55, 64
10, 41388, Note_off_c, 12, 63, 64
10, 41400, Note_on_c, 12, 63, 105
10, 41400, Note_on_c, 12, 55, 105
10, 41544, Note_off_c, 12, 55, 64
10, 41544, Note_off_c, 12, 63, 64
10, 41580, Note_on_c, 12, 53, 105
10, 41580, Note_on_c, 12, 62, 105
10, 41610, Note_off_c, 12, 62, 64
10, 41610, Note_off_c, 12, 53, 64
10, 41610, Note_on_c, 12, 55, 105
10, 41610, Note_on_c, 12, 63, 105
10, 41634, Note_off_c, 12, 63, 64
10, 41634, Note_off_c, 12, 55, 64
10, 41640, Note_on_c, 12, 65, 105
10, 41640, Note_on_c, 12, 56, 105
10, 41676, Note_off_c, 12, 56, 64
10, 41676, Note_off_c, 12, 65, 64
10, 41700, Note_on_c, 12, 53, 105
10, 41700, Note_on_c, 12, 62, 105
10, 41736, Note_off_c, 12, 62, 64
10, 41736, Note_off_c, 12, 53, 64
10, 41760, Note_on_c, 12, 63, 70
10, 41760, Note_on_c, 12, 55, 70
10, 41856, Note_off_c, 12, 55, 64
10, 41856, Note_off_c, 12, 63, 64
10, 44160, Note_on_c, 12, 57, 58
10, 44256, Note_off_c, 12, 57, 64
10, 44400, Note_on_c, 12, 70, 58
10, 44496, Note_off_c, 12, 70, 64
10, 44640, Note_on_c, 12, 55, 58
10, 44736, Note_off_c, 12, 55, 64
10, 44880, Note_on_c, 12, 68, 58
10, 44976, Note_off_c, 12, 68, 64
10, 45120, Note_on_c, 12, 53, 58
10, 45216, Note_off_c, 12, 53, 64
10, 45360, Note_on_c, 12, 67, 58
10, 45456, Note_off_c, 12, 67, 64
10, 45600, Note_on_c, 12, 56, 58
10, 46176, Note_off_c, 12, 56, 64
10, 46800, Note_on_c, 12, 67, 58
10, 46872, Note_off_c, 12, 67, 64
10, 46920, Note_on_c, 12, 68, 58
10, 46992, Note_off_c, 12, 68, 64
10, 47040, Note_on_c, 12, 67, 58
10, 47232, Note_off_c, 12, 67, 64
10, 47520, Note_on_c, 12, 56, 58
10, 48096, Note_off_c, 12, 56, 64
10, 48720, Note_on_c, 12, 51, 58
10, 48810, Note_off_c, 12, 51, 64
10, 48810, Note_on_c, 12, 55, 58
10, 48840, Note_off_c, 12, 55, 64
10, 48840, Note_on_c, 12, 53, 58
10, 48930, Note_off_c, 12, 53, 64
10, 48930, Note_on_c, 12, 56, 58
10, 48954, Note_off_c, 12, 56, 64
10, 48960, Note_on_c, 12, 56, 58
10, 49200, Note_off_c, 12, 56, 64
10, 49200, Note_on_c, 12, 55, 58
10, 49296, Note_off_c, 12, 55, 64
10, 49440, Note_on_c, 12, 63, 58
10, 49485, Note_off_c, 12, 63, 64
10, 49500, Note_on_c, 12, 63, 58
10, 49545, Note_off_c, 12, 63, 64
10, 49560, Note_on_c, 12, 63, 58
10, 49605, Note_off_c, 12, 63, 64
10, 49620, Note_on_c, 12, 63, 58
10, 49665, Note_off_c, 12, 63, 64
10, 49680, Note_on_c, 12, 63, 58
10, 49725, Note_off_c, 12, 63, 64
10, 49740, Note_on_c, 12, 63, 58
10, 49785, Note_off_c, 12, 63, 64
10, 49800, Note_on_c, 12, 63, 58
10, 49845, Note_off_c, 12, 63, 64
10, 49860, Note_on_c, 12, 63, 58
10, 49905, Note_off_c, 12, 63, 64
10, 49920, Note_on_c, 12, 63, 58
10, 49965, Note_off_c, 12, 63, 64
10, 49980, Note_on_c, 12, 63, 58
10, 50025, Note_off_c, 12, 63, 64
10, 50040, Note_on_c, 12, 63, 58
10, 50085, Note_off_c, 12, 63, 64
10, 50100, Note_on_c, 12, 63, 58
10, 50145, Note_off_c, 12, 63, 64
10, 50160, Note_on_c, 12, 63, 58
10, 50205, Note_off_c, 12, 63, 64
10, 50220, Note_on_c, 12, 63, 58
10, 50265, Note_off_c, 12, 63, 64
10, 50280, Note_on_c, 12, 63, 58
10, 50325, Note_off_c, 12, 63, 64
10, 50340, Note_on_c, 12, 63, 58
10, 50385, Note_off_c, 12, 63, 64
10, 50400, Note_on_c, 12, 63, 58
10, 50445, Note_off_c, 12, 63, 64
10, 50460, Note_on_c, 12, 63, 58
10, 50505, Note_off_c, 12, 63, 64
10, 50520, Note_on_c, 12, 63, 58
10, 50565, Note_off_c, 12, 63, 64
10, 50580, Note_on_c, 12, 63, 58
10, 50625, Note_off_c, 12, 63, 64
10, 50640, Note_on_c, 12, 63, 58
10, 50685, Note_off_c, 12, 63, 64
10, 50700, Note_on_c, 12, 63, 58
10, 50745, Note_off_c, 12, 63, 64
10, 50760, Note_on_c, 12, 63, 58
10, 50805, Note_off_c, 12, 63, 64
10, 50820, Note_on_c, 12, 63, 58
10, 50865, Note_off_c, 12, 63, 64
10, 50880, Note_on_c, 12, 63, 58
10, 50925, Note_off_c, 12, 63, 64
10, 50940, Note_on_c, 12, 63, 58
10, 50985, Note_off_c, 12, 63, 64
10, 51000, Note_on_c, 12, 63, 58
10, 51045, Note_off_c, 12, 63, 64
10, 51060, Note_on_c, 12, 63, 58
10, 51105, Note_off_c, 12, 63, 64
10, 51120, Note_on_c, 12, 63, 58
10, 51165, Note_off_c, 12, 63, 64
10, 51180, Note_on_c, 12, 63, 58
10, 51225, Note_off_c, 12, 63, 64
10, 51240, Note_on_c, 12, 63, 58
10, 51285, Note_off_c, 12, 63, 64
10, 51300, Note_on_c, 12, 63, 58
10, 51345, Note_off_c, 12, 63, 64
10, 51360, Note_on_c, 12, 63, 58
10, 51405, Note_off_c, 12, 63, 64
10, 51420, Note_on_c, 12, 63, 58
10, 51465, Note_off_c, 12, 63, 64
10, 51480, Note_on_c, 12, 63, 58
10, 51525, Note_off_c, 12, 63, 64
10, 51540, Note_on_c, 12, 63, 58
10, 51585, Note_off_c, 12, 63, 64
10, 51600, Note_on_c, 12, 63, 58
10, 51645, Note_off_c, 12, 63, 64
10, 51660, Note_on_c, 12, 63, 58
10, 51705, Note_off_c, 12, 63, 64
10, 51720, Note_on_c, 12, 63, 58
10, 51765, Note_off_c, 12, 63, 64
10, 51780, Note_on_c, 12, 63, 58
10, 51825, Note_off_c, 12, 63, 64
10, 51840, Note_on_c, 12, 63, 58
10, 51936, Note_off_c, 12, 63, 64
10, 52320, Note_on_c, 12, 63, 58
10, 52392, Note_off_c, 12, 63, 64
10, 52560, Note_on_c, 12, 62, 58
10, 52632, Note_off_c, 12, 62, 64
10, 52800, Note_on_c, 12, 63, 58
10, 52872, Note_off_c, 12, 63, 64
10, 53160, Note_on_c, 12, 62, 58
10, 53232, Note_off_c, 12, 62, 64
10, 53280, Note_on_c, 12, 63, 58
10, 53352, Note_off_c, 12, 63, 64
10, 53640, Note_on_c, 12, 62, 58
10, 53712, Note_off_c, 12, 62, 64
10, 53760, Note_on_c, 12, 63, 58
10, 53832, Note_off_c, 12, 63, 64
10, 54330, Note_on_c, 12, 65, 70
10, 54360, Note_off_c, 12, 65, 64
10, 54360, Note_on_c, 12, 63, 70
10, 54414, Note_off_c, 12, 63, 64
10, 54450, Note_on_c, 12, 61, 70
10, 54480, Note_off_c, 12, 61, 64
10, 54480, Note_on_c, 12, 60, 70
10, 54534, Note_off_c, 12, 60, 64
10, 54570, Note_on_c, 12, 58, 70
10, 54600, Note_off_c, 12, 58, 64
10, 54600, Note_on_c, 12, 56, 70
10, 54654, Note_off_c, 12, 56, 64
10, 54690, Note_on_c, 12, 55, 70
10, 54720, Note_off_c, 12, 55, 64
10, 54720, Note_on_c, 12, 56, 58
10, 55296, Note_off_c, 12, 56, 64
10, 55920, Note_on_c, 12, 61, 58
10, 55992, Note_off_c, 12, 61, 64
10, 56040, Note_on_c, 12, 60, 58
10, 56112, Note_off_c, 12, 60, 64
10, 56160, Note_on_c, 12, 56, 58
10, 56400, Note_off_c, 12, 56, 64
10, 56400, Note_on_c, 12, 55, 58
10, 56496, Note_off_c, 12, 55, 64
10, 56640, Note_on_c, 12, 56, 58
10, 57216, Note_off_c, 12, 56, 64
10, 57600, Note_on_c, 12, 54, 58
10, 58152, Note_off_c, 12, 54, 64
10, 58200, Note_on_c, 12, 59, 58
10, 58272, Note_off_c, 12, 59, 64
10, 58320, Note_on_c, 12, 59, 58
10, 58392, Note_off_c, 12, 59, 64
10, 58440, Note_on_c, 12, 59, 58
10, 58512, Note_off_c, 12, 59, 64
10, 58560, Note_on_c, 12, 54, 58
10, 58632, Note_off_c, 12, 54, 64
10, 58680, Note_on_c, 12, 54, 58
10, 58752, Note_off_c, 12, 54, 64
10, 58800, Note_on_c, 12, 54, 58
10, 58872, Note_off_c, 12, 54, 64
10, 58920, Note_on_c, 12, 54, 58
10, 58992, Note_off_c, 12, 54, 64
10, 59040, Note_on_c, 12, 66, 105
10, 59088, Note_off_c, 12, 66, 64
10, 59100, Note_on_c, 12, 66, 105
10, 59196, Note_off_c, 12, 66, 64
10, 59220, Note_on_c, 12, 66, 105
10, 59316, Note_off_c, 12, 66, 64
10, 59340, Note_on_c, 12, 66, 105
10, 59436, Note_off_c, 12, 66, 64
10, 59460, Note_on_c, 12, 66, 105
10, 59520, Note_off_c, 12, 66, 64
10, 59520, Note_on_c, 12, 67, 105
10, 59568, Note_off_c, 12, 67, 64
10, 59580, Note_on_c, 12, 67, 105
10, 59676, Note_off_c, 12, 67, 64
10, 59700, Note_on_c, 12, 67, 105
10, 59796, Note_off_c, 12, 67, 64
10, 59820, Note_on_c, 12, 67, 105
10, 59916, Note_off_c, 12, 67, 64
10, 59940, Note_on_c, 12, 67, 105
10, 60000, Note_off_c, 12, 67, 64
10, 60000, Note_on_c, 12, 66, 105
10, 60048, Note_off_c, 12, 66, 64
10, 60060, Note_on_c, 12, 66, 105
10, 60156, Note_off_c, 12, 66, 64
10, 60180, Note_on_c, 12, 66, 105
10, 60276, Note_off_c, 12, 66, 64
10, 60300, Note_on_c, 12, 66, 105
10, 60396, Note_off_c, 12, 66, 64
10, 60420, Note_on_c, 12, 66, 105
10, 60480, Note_off_c, 12, 66, 64
10, 60480, Note_on_c, 12, 65, 105
10, 60528, Note_off_c, 12, 65, 64
10, 60540, Note_on_c, 12, 65, 105
10, 60636, Note_off_c, 12, 65, 64
10, 60660, Note_on_c, 12, 65, 105
10, 60756, Note_off_c, 12, 65, 64
10, 60780, Note_on_c, 12, 65, 105
10, 60876, Note_off_c, 12, 65, 64
10, 60900, Note_on_c, 12, 65, 105
10, 61008, Note_off_c, 12, 65, 64
10, 61020, Note_on_c, 12, 65, 105
10, 61116, Note_off_c, 12, 65, 64
10, 61140, Note_on_c, 12, 65, 105
10, 61236, Note_off_c, 12, 65, 64
10, 61260, Note_on_c, 12, 65, 105
10, 61356, Note_off_c, 12, 65, 64
10, 61380, Note_on_c, 12, 65, 105
10, 61440, Note_off_c, 12, 65, 64
10, 61440, Note_on_c, 12, 68, 105
10, 61488, Note_off_c, 12, 68, 64
10, 61500, Note_on_c, 12, 68, 105
10, 61596, Note_off_c, 12, 68, 64
10, 61620, Note_on_c, 12, 68, 105
10, 61716, Note_off_c, 12, 68, 64
10, 61740, Note_on_c, 12, 68, 105
10, 61836, Note_off_c, 12, 68, 64
10, 61860, Note_on_c, 12, 68, 105
10, 61920, Note_off_c, 12, 68, 64
10, 61920, Note_on_c, 12, 70, 105
10, 61968, Note_off_c, 12, 70, 64
10, 61980, Note_on_c, 12, 70, 105
10, 62076, Note_off_c, 12, 70, 64
10, 62100, Note_on_c, 12, 70, 105
10, 62196, Note_off_c, 12, 70, 64
10, 62220, Note_on_c, 12, 70, 105
10, 62316, Note_off_c, 12, 70, 64
10, 62340, Note_on_c, 12, 70, 105
10, 62400, Note_off_c, 12, 70, 64
10, 62400, Note_on_c, 12, 71, 105
10, 62448, Note_off_c, 12, 71, 64
10, 62460, Note_on_c, 12, 71, 105
10, 62556, Note_off_c, 12, 71, 64
10, 62580, Note_on_c, 12, 71, 105
10, 62676, Note_off_c, 12, 71, 64
10, 62700, Note_on_c, 12, 71, 105
10, 62796, Note_off_c, 12, 71, 64
10, 62820, Note_on_c, 12, 71, 105
10, 62880, Note_off_c, 12, 71, 64
10, 62880, Note_on_c, 12, 64, 105
10, 62928, Note_off_c, 12, 64, 64
10, 62940, Note_on_c, 12, 64, 105
10, 63036, Note_off_c, 12, 64, 64
10, 63060, Note_on_c, 12, 64, 105
10, 63156, Note_off_c, 12, 64, 64
10, 63180, Note_on_c, 12, 64, 105
10, 63276, Note_off_c, 12, 64, 64
10, 63300, Note_on_c, 12, 64, 105
10, 63360, Note_off_c, 12, 64, 64
10, 63360, Note_on_c, 12, 65, 105
10, 63408, Note_off_c, 12, 65, 64
10, 63420, Note_on_c, 12, 65, 105
10, 63516, Note_off_c, 12, 65, 64
10, 63540, Note_on_c, 12, 65, 105
10, 63600, Note_off_c, 12, 65, 64
10, 63600, Note_on_c, 12, 64, 105
10, 63648, Note_off_c, 12, 64, 64
10, 63660, Note_on_c, 12, 64, 105
10, 63756, Note_off_c, 12, 64, 64
10, 63780, Note_on_c, 12, 64, 105
10, 63840, Note_off_c, 12, 64, 64
10, 63840, Note_on_c, 12, 63, 105
10, 63888, Note_off_c, 12, 63, 64
10, 63900, Note_on_c, 12, 67, 105
10, 63996, Note_off_c, 12, 67, 64
10, 64020, Note_on_c, 12, 67, 105
10, 64080, Note_off_c, 12, 67, 64
10, 64080, Note_on_c, 12, 68, 105
10, 64128, Note_off_c, 12, 68, 64
10, 64140, Note_on_c, 12, 68, 105
10, 64236, Note_off_c, 12, 68, 64
10, 64260, Note_on_c, 12, 68, 105
10, 64320, Note_off_c, 12, 68, 64
10, 64320, Note_on_c, 12, 67, 105
10, 64368, Note_off_c, 12, 67, 64
10, 64380, Note_on_c, 12, 67, 105
10, 64476, Note_off_c, 12, 67, 64
10, 64500, Note_on_c, 12, 67, 105
10, 64548, Note_off_c, 12, 67, 64
10, 64560, Note_on_c, 12, 68, 105
10, 64608, Note_off_c, 12, 68, 64
10, 64620, Note_on_c, 12, 68, 105
10, 64716, Note_off_c, 12, 68, 64
10, 64740, Note_on_c, 12, 68, 105
10, 64800, Note_off_c, 12, 68, 64
10, 64800, Note_on_c, 12, 67, 105
10, 64896, Note_off_c, 12, 67, 64
10, 65760, Note_on_c, 12, 67, 58
10, 65796, Note_off_c, 12, 67, 64
10, 65820, Note_on_c, 12, 65, 58
10, 65856, Note_off_c, 12, 65, 64
10, 65880, Note_on_c, 12, 63, 58
10, 65916, Note_off_c, 12, 63, 64
10, 65940, Note_on_c, 12, 61, 58
10, 65976, Note_off_c, 12, 61, 64
10, 66000, Note_on_c, 12, 60, 58
10, 66036, Note_off_c, 12, 60, 64
10, 66060, Note_on_c, 12, 58, 58
10, 66096, Note_off_c, 12, 58, 64
10, 66120, Note_on_c, 12, 56, 58
10, 66156, Note_off_c, 12, 56, 64
10, 66180, Note_on_c, 12, 55, 58
10, 66216, Note_off_c, 12, 55, 64
10, 66240, Note_on_c, 12, 53, 58
10, 66336, Note_off_c, 12, 53, 64
10, 66720, Note_on_c, 12, 68, 58
10, 66756, Note_off_c, 12, 68, 64
10, 66780, Note_on_c, 12, 67, 58
10, 66816, Note_off_c, 12, 67, 64
10, 66840, Note_on_c, 12, 65, 58
10, 66876, Note_off_c, 12, 65, 64
10, 66900, Note_on_c, 12, 63, 58
10, 66936, Note_off_c, 12, 63, 64
10, 66960, Note_on_c, 12, 61, 58
10, 66996, Note_off_c, 12, 61, 64
10, 67020, Note_on_c, 12, 60, 58
10, 67056, Note_off_c, 12, 60, 64
10, 67080, Note_on_c, 12, 58, 58
10, 67116, Note_off_c, 12, 58, 64
10, 67140, Note_on_c, 12, 56, 58
10, 67176, Note_off_c, 12, 56, 64
10, 67200, Note_on_c, 12, 55, 58
10, 67296, Note_off_c, 12, 55, 64
10, 67680, Note_on_c, 12, 70, 58
10, 67716, Note_off_c, 12, 70, 64
10, 67740, Note_on_c, 12, 68, 58
10, 67776, Note_off_c, 12, 68, 64
10, 67800, Note_on_c, 12, 67, 58
10, 67836, Note_off_c, 12, 67, 64
10, 67860, Note_on_c, 12, 65, 58
10, 67896, Note_off_c, 12, 65, 64
10, 67920, Note_on_c, 12, 63, 58
10, 67956, Note_off_c, 12, 63, 64
10, 67980, Note_on_c, 12, 61, 58
10, 68016, Note_off_c, 12, 61, 64
10, 68040, Note_on_c, 12, 60, 58
10, 68076, Note_off_c, 12, 60, 64
10, 68100, Note_on_c, 12, 58, 58
10, 68136, Note_off_c, 12, 58, 64
10, 68160, Note_on_c, 12, 60, 58
10, 68256, Note_off_c, 12, 60, 64
10, 68640, Note_on_c, 12, 69, 105
10, 68730, Note_off_c, 12, 69, 64
10, 68730, Note_on_c, 12, 67, 105
10, 68760, Note_off_c, 12, 67, 64
10, 68760, Note_on_c, 12, 70, 105
10, 68850, Note_off_c, 12, 70, 64
10, 68850, Note_on_c, 12, 69, 105
10, 68880, Note_off_c, 12, 69, 64
10, 68880, Note_on_c, 12, 72, 105
10, 68970, Note_off_c, 12, 72, 64
10, 68970, Note_on_c, 12, 70, 105
10, 69000, Note_off_c, 12, 70, 64
10, 69000, Note_on_c, 12, 73, 105
10, 69096, Note_off_c, 12, 73, 64
10, 69120, Note_on_c, 12, 67, 105
10, 69210, Note_off_c, 12, 67, 64
10, 69210, Note_on_c, 12, 65, 105
10, 69240, Note_off_c, 12, 65, 64
10, 69240, Note_on_c, 12, 68, 105
10, 69330, Note_off_c, 12, 68, 64
10, 69330, Note_on_c, 12, 67, 105
10, 69360, Note_off_c, 12, 67, 64
10, 69360, Note_on_c, 12, 70, 105
10, 69450, Note_off_c, 12, 70, 64
10, 69450, Note_on_c, 12, 68, 105
10, 69480, Note_off_c, 12, 68, 64
10, 69480, Note_on_c, 12, 72, 105
10, 69576, Note_off_c, 12, 72, 64
10, 69600, Note_on_c, 12, 65, 105
10, 69690, Note_off_c, 12, 65, 64
10, 69690, Note_on_c, 12, 64, 105
10, 69720, Note_off_c, 12, 64, 64
10, 69720, Note_on_c, 12, 67, 105
10, 69810, Note_off_c, 12, 67, 64
10, 69810, Note_on_c, 12, 65, 105
10, 69840, Note_off_c, 12, 65, 64
10, 69840, Note_on_c, 12, 68, 105
10, 69930, Note_off_c, 12, 68, 64
10, 69930, Note_on_c, 12, 67, 105
10, 69960, Note_off_c, 12, 67, 64
10, 69960, Note_on_c, 12, 70, 105
10, 70056, Note_off_c, 12, 70, 64
10, 70080, Note_on_c, 12, 64, 105
10, 70170, Note_off_c, 12, 64, 64
10, 70170, Note_on_c, 12, 62, 105
10, 70200, Note_off_c, 12, 62, 64
10, 70200, Note_on_c, 12, 65, 105
10, 70290, Note_off_c, 12, 65, 64
10, 70290, Note_on_c, 12, 64, 105
10, 70320, Note_off_c, 12, 64, 64
10, 70320, Note_on_c, 12, 67, 105
10, 70410, Note_off_c, 12, 67, 64
10, 70410, Note_on_c, 12, 65, 105
10, 70440, Note_off_c, 12, 65, 64
10, 70440, Note_on_c, 12, 68, 105
10, 70536, Note_off_c, 12, 68, 64
10, 70560, Note_on_c, 12, 61, 58
10, 70656, Note_off_c, 12, 61, 64
10, 71040, Note_on_c, 12, 65, 58
10, 71136, Note_off_c, 12, 65, 64
10, 71520, Note_on_c, 12, 67, 58
10, 71616, Note_off_c, 12, 67, 64
10, 71760, Note_on_c, 12, 67, 58
10, 71856, Note_off_c, 12, 67, 64
10, 72000, Note_on_c, 12, 68, 58
10, 72096, Note_off_c, 12, 68, 64
10, 72240, Note_on_c, 12, 68, 58
10, 72336, Note_off_c, 12, 68, 64
10, 72480, Note_on_c, 12, 68, 58
10, 72576, Note_off_c, 12, 68, 64
10, 72960, Note_on_c, 12, 51, 58
10, 73056, Note_off_c, 12, 51, 64
10, 73200, Note_on_c, 12, 51, 58
10, 73296, Note_off_c, 12, 51, 64
10, 73440, Note_on_c, 12, 51, 30
10, 75336, Note_off_c, 12, 51, 64
10, 75360, Note_on_c, 12, 72, 105
10, 75360, Note_on_c, 12, 63, 105
10, 75540, Note_off_c, 12, 63, 64
10, 75540, Note_off_c, 12, 72, 64
10, 75540, Note_on_c, 12, 68, 105
10, 75540, Note_on_c, 12, 60, 105
10, 75588, Note_off_c, 12, 60, 64
10, 75588, Note_off_c, 12, 68, 64
10, 75600, Note_on_c, 12, 73, 105
10, 75600, Note_on_c, 12, 65, 105
10, 75780, Note_off_c, 12, 65, 64
10, 75780, Note_off_c, 12, 73, 64
10, 75780, Note_on_c, 12, 70, 105
10, 75780, Note_on_c, 12, 61, 105
10, 75828, Note_off_c, 12, 61, 64
10, 75828, Note_off_c, 12, 70, 64
10, 75840, Note_on_c, 12, 70, 105
10, 75840, Note_on_c, 12, 61, 105
10, 75900, Note_off_c, 12, 61, 64
10, 75900, Note_off_c, 12, 70, 64
10, 75900, Note_on_c, 12, 60, 105
10, 75900, Note_on_c, 12, 68, 105
10, 75948, Note_off_c, 12, 68, 64
10, 75948, Note_off_c, 12, 60, 64
10, 75960, Note_on_c, 12, 68, 105
10, 75960, Note_on_c, 12, 60, 105
10, 76104, Note_off_c, 12, 60, 64
10, 76104, Note_off_c, 12, 68, 64
10, 76140, Note_on_c, 12, 67, 105
10, 76140, Note_on_c, 12, 58, 105
10, 76170, Note_off_c, 12, 58, 64
10, 76170, Note_off_c, 12, 67, 64
10, 76170, Note_on_c, 12, 68, 105
10, 76170, Note_on_c, 12, 60, 105
10, 76200, Note_off_c, 12, 60, 64
10, 76200, Note_off_c, 12, 68, 64
10, 76200, Note_on_c, 12, 70, 105
10, 76200, Note_on_c, 12, 61, 105
10, 76239, Note_off_c, 12, 61, 64
10, 76239, Note_off_c, 12, 70, 64
10, 76260, Note_on_c, 12, 67, 105
10, 76260, Note_on_c, 12, 58, 105
10, 76299, Note_off_c, 12, 58, 64
10, 76299, Note_off_c, 12, 67, 64
10, 76320, Note_on_c, 12, 60, 58
10, 76320, Note_on_c, 12, 68, 58
10, 76416, Note_off_c, 12, 68, 64
10, 76416, Note_off_c, 12, 60, 64
10, 78720, Note_on_c, 12, 53, 58
10, 78816, Note_off_c, 12, 53, 64
10, 78960, Note_on_c, 12, 58, 58
10, 79056, Note_off_c, 12, 58, 64
10, 79200, Note_on_c, 12, 51, 58
10, 79296, Note_off_c, 12, 51, 64
10, 79440, Note_on_c, 12, 56, 58
10, 79536, Note_off_c, 12, 56, 64
10, 79680, Note_on_c, 12, 58, 58
10, 80352, Note_off_c, 12, 58, 64
10, 80520, Note_on_c, 12, 58, 58
10, 80610, Note_off_c, 12, 58, 64
10, 80610, Note_on_c, 12, 56, 58
10, 80634, Note_off_c, 12, 56, 64
10, 80640, Note_on_c, 12, 55, 58
10, 80832, Note_off_c, 12, 55, 64
10, 81000, Note_on_c, 12, 70, 58
10, 81090, Note_off_c, 12, 70, 64
10, 81090, Note_on_c, 12, 68, 58
10, 81114, Note_off_c, 12, 68, 64
10, 81120, Note_on_c, 12, 67, 58
10, 81216, Note_off_c, 12, 67, 64
10, 82080, Note_on_c, 12, 56, 58
10, 82656, Note_off_c, 12, 56, 64
10, 83280, Note_on_c, 12, 67, 58
10, 83352, Note_off_c, 12, 67, 64
10, 83400, Note_on_c, 12, 68, 58
10, 83472, Note_off_c, 12, 68, 64
10, 83520, Note_on_c, 12, 67, 58
10, 83700, Note_off_c, 12, 67, 64
10, 83700, Note_on_c, 12, 63, 58
10, 83748, Note_off_c, 12, 63, 64
10, 83760, Note_on_c, 12, 67, 58
10, 83856, Note_off_c, 12, 67, 64
10, 84000, Note_on_c, 12, 56, 58
10, 84576, Note_off_c, 12, 56, 64
10, 85200, Note_on_c, 12, 56, 58
10, 85296, Note_off_c, 12, 56, 64
10, 85320, Note_on_c, 12, 55, 58
10, 85416, Note_off_c, 12, 55, 64
10, 85440, Note_on_c, 12, 65, 58
10, 85920, Note_off_c, 12, 65, 64
10, 85920, Note_on_c, 12, 64, 58
10, 86160, Note_off_c, 12, 64, 64
10, 86160, Note_on_c, 12, 63, 58
10, 86352, Note_off_c, 12, 63, 64
10, 86400, Note_on_c, 12, 61, 58
10, 86640, Note_off_c, 12, 61, 64
10, 86640, Note_on_c, 12, 60, 58
10, 86760, Note_off_c, 12, 60, 64
10, 86760, Note_on_c, 12, 58, 58
10, 86856, Note_off_c, 12, 58, 64
10, 86880, Note_on_c, 12, 65, 58
10, 87336, Note_off_c, 12, 65, 64
10, 87360, Note_on_c, 12, 64, 58
10, 87600, Note_off_c, 12, 64, 64
10, 87600, Note_on_c, 12, 63, 58
10, 87696, Note_off_c, 12, 63, 64
10, 87720, Note_on_c, 12, 68, 58
10, 87840, Note_off_c, 12, 68, 64
10, 87840, Note_on_c, 12, 68, 58
10, 87936, Note_off_c, 12, 68, 64
10, 88320, Note_on_c, 12, 63, 58
10, 88680, Note_off_c, 12, 63, 64
10, 88680, Note_on_c, 12, 67, 58
10, 88800, Note_off_c, 12, 67, 64
10, 88800, Note_on_c, 12, 68, 30
10, 88992, Note_off_c, 12, 68, 64
10, 89160, Note_on_c, 12, 51, 58
10, 89250, Note_off_c, 12, 51, 64
10, 89250, Note_on_c, 12, 49, 58
10, 89274, Note_off_c, 12, 49, 64
10, 89280, Note_on_c, 12, 48, 58
10, 89472, Note_off_c, 12, 48, 64
10, 89640, Note_on_c, 12, 63, 58
10, 89730, Note_off_c, 12, 63, 64
10, 89730, Note_on_c, 12, 61, 58
10, 89754, Note_off_c, 12, 61, 64
10, 89760, Note_on_c, 12, 60, 58
10, 89952, Note_off_c, 12, 60, 64
10, 90120, Note_on_c, 12, 63, 105
10, 90186, Note_off_c, 12, 63, 64
10, 90240, Note_on_c, 12, 56, 105
10, 90336, Note_off_c, 12, 56, 64
10, 90336, End_track
11, 0, Start_track
11, 0, Program_c, 13, 48
11, 0, Control_c, 13, 7, 124
11, 0, Control_c, 13, 91, 85
11, 0, Control_c, 13, 10, 84
11, 480, Note_on_c, 13, 44, 58
11, 720, Note_off_c, 13, 44, 64
11, 720, Note_on_c, 13, 49, 58
11, 960, Note_off_c, 13, 49, 64
11, 960, Note_on_c, 13, 44, 58
11, 1056, Note_off_c, 13, 44, 64
11, 1680, Note_on_c, 13, 63, 58
11, 1752, Note_off_c, 13, 63, 64
11, 1800, Note_on_c, 13, 63, 58
11, 1872, Note_off_c, 13, 63, 64
11, 1920, Note_on_c, 13, 63, 58
11, 2112, Note_off_c, 13, 63, 64
11, 2400, Note_on_c, 13, 44, 58
11, 2640, Note_off_c, 13, 44, 64
11, 2640, Note_on_c, 13, 49, 58
11, 2880, Note_off_c, 13, 49, 64
11, 2880, Note_on_c, 13, 44, 58
11, 2976, Note_off_c, 13, 44, 64
11, 3600, Note_on_c, 13, 46, 58
11, 3672, Note_off_c, 13, 46, 64
11, 3720, Note_on_c, 13, 46, 58
11, 3792, Note_off_c, 13, 46, 64
11, 3840, Note_on_c, 13, 39, 58
11, 4032, Note_off_c, 13, 39, 64
11, 4320, Note_on_c, 13, 44, 58
11, 4560, Note_off_c, 13, 44, 64
11, 4560, Note_on_c, 13, 49, 58
11, 4800, Note_off_c, 13, 49, 64
11, 4800, Note_on_c, 13, 44, 58
11, 4896, Note_off_c, 13, 44, 64
11, 5520, Note_on_c, 13, 63, 58
11, 5592, Note_off_c, 13, 63, 64
11, 5640, Note_on_c, 13, 63, 58
11, 5712, Note_off_c, 13, 63, 64
11, 5760, Note_on_c, 13, 63, 58
11, 5952, Note_off_c, 13, 63, 64
11, 6240, Note_on_c, 13, 44, 58
11, 6480, Note_off_c, 13, 44, 64
11, 6480, Note_on_c, 13, 49, 58
11, 6720, Note_off_c, 13, 49, 64
11, 6720, Note_on_c, 13, 44, 58
11, 6816, Note_off_c, 13, 44, 64
11, 7440, Note_on_c, 13, 46, 58
11, 7512, Note_off_c, 13, 46, 64
11, 7560, Note_on_c, 13, 46, 58
11, 7632, Note_off_c, 13, 46, 64
11, 7680, Note_on_c, 13, 39, 58
11, 7872, Note_off_c, 13, 39, 64
11, 8160, Note_on_c, 13, 51, 58
11, 8400, Note_off_c, 13, 51, 64
11, 8400, Note_on_c, 13, 53, 58
11, 8490, Note_off_c, 13, 53, 64
11, 8490, Note_on_c, 13, 55, 58
11, 8520, Note_off_c, 13, 55, 64
11, 8520, Note_on_c, 13, 56, 58
11, 8610, Note_off_c, 13, 56, 64
11, 8610, Note_on_c, 13, 53, 58
11, 8640, Note_off_c, 13, 53, 64
11, 8640, Note_on_c, 13, 51, 58
11, 8736, Note_off_c, 13, 51, 64
11, 9120, Note_on_c, 13, 53, 58
11, 9360, Note_off_c, 13, 53, 64
11, 9360, Note_on_c, 13, 55, 58
11, 9450, Note_off_c, 13, 55, 64
11, 9450, Note_on_c, 13, 56, 58
11, 9480, Note_off_c, 13, 56, 64
11, 9480, Note_on_c, 13, 58, 58
11, 9570, Note_off_c, 13, 58, 64
11, 9570, Note_on_c, 13, 55, 58
11, 9600, Note_off_c, 13, 55, 64
11, 9600, Note_on_c, 13, 53, 58
11, 9696, Note_off_c, 13, 53, 64
11, 10080, Note_on_c, 13, 55, 58
11, 10320, Note_off_c, 13, 55, 64
11, 10320, Note_on_c, 13, 56, 58
11, 10410, Note_off_c, 13, 56, 64
11, 10410, Note_on_c, 13, 58, 58
11, 10440, Note_off_c, 13, 58, 64
11, 10440, Note_on_c, 13, 60, 58
11, 10530, Note_off_c, 13, 60, 64
11, 10530, Note_on_c, 13, 56, 58
11, 10560, Note_off_c, 13, 56, 64
11, 10560, Note_on_c, 13, 55, 58
11, 10656, Note_off_c, 13, 55, 64
11, 11040, Note_on_c, 13, 56, 58
11, 11112, Note_off_c, 13, 56, 64
11, 11280, Note_on_c, 13, 58, 58
11, 11352, Note_off_c, 13, 58, 64
11, 11520, Note_on_c, 13, 51, 58
11, 11592, Note_off_c, 13, 51, 64
11, 11880, Note_on_c, 13, 58, 58
11, 11952, Note_off_c, 13, 58, 64
11, 12000, Note_on_c, 13, 63, 58
11, 12072, Note_off_c, 13, 63, 64
11, 12360, Note_on_c, 13, 58, 58
11, 12432, Note_off_c, 13, 58, 64
11, 12480, Note_on_c, 13, 63, 30
11, 12552, Note_off_c, 13, 63, 64
11, 13050, Note_on_c, 13, 53, 58
11, 13080, Note_off_c, 13, 53, 64
11, 13080, Note_on_c, 13, 51, 58
11, 13134, Note_off_c, 13, 51, 64
11, 13170, Note_on_c, 13, 49, 58
11, 13200, Note_off_c, 13, 49, 64
11, 13200, Note_on_c, 13, 48, 58
11, 13254, Note_off_c, 13, 48, 64
11, 13290, Note_on_c, 13, 46, 58
11, 13320, Note_off_c, 13, 46, 64
11, 13320, Note_on_c, 13, 44, 58
11, 13374, Note_off_c, 13, 44, 64
11, 13410, Note_on_c, 13, 43, 58
11, 13440, Note_off_c, 13, 43, 64
11, 13440, Note_on_c, 13, 44, 58
11, 13680, Note_off_c, 13, 44, 64
11, 13680, Note_on_c, 13, 49, 58
11, 13920, Note_off_c, 13, 49, 64
11, 13920, Note_on_c, 13, 44, 58
11, 14016, Note_off_c, 13, 44, 64
11, 14640, Note_on_c, 13, 63, 58
11, 14712, Note_off_c, 13, 63, 64
11, 14760, Note_on_c, 13, 63, 58
11, 14832, Note_off_c, 13, 63, 64
11, 14880, Note_on_c, 13, 63, 58
11, 15072, Note_off_c, 13, 63, 64
11, 15360, Note_on_c, 13, 44, 58
11, 15600, Note_off_c, 13, 44, 64
11, 15600, Note_on_c, 13, 49, 58
11, 15840, Note_off_c, 13, 49, 64
11, 15840, Note_on_c, 13, 44, 58
11, 15936, Note_off_c, 13, 44, 64
11, 16080, Note_on_c, 13, 53, 58
11, 16320, Note_off_c, 13, 53, 64
11, 16320, Note_on_c, 13, 51, 58
11, 16416, Note_off_c, 13, 51, 64
11, 16680, Note_on_c, 13, 39, 58
11, 16752, Note_off_c, 13, 39, 64
11, 16800, Note_on_c, 13, 44, 58
11, 16944, Note_off_c, 13, 44, 64
11, 17280, Note_on_c, 13, 51, 58
11, 17520, Note_off_c, 13, 51, 64
11, 17520, Note_on_c, 13, 53, 58
11, 17610, Note_off_c, 13, 53, 64
11, 17610, Note_on_c, 13, 55, 58
11, 17640, Note_off_c, 13, 55, 64
11, 17640, Note_on_c, 13, 56, 58
11, 17730, Note_off_c, 13, 56, 64
11, 17730, Note_on_c, 13, 53, 58
11, 17760, Note_off_c, 13, 53, 64
11, 17760, Note_on_c, 13, 51, 58
11, 17856, Note_off_c, 13, 51, 64
11, 18240, Note_on_c, 13, 53, 58
11, 18480, Note_off_c, 13, 53, 64
11, 18480, Note_on_c, 13, 55, 58
11, 18570, Note_off_c, 13, 55, 64
11, 18570, Note_on_c, 13, 56, 58
11, 18600, Note_off_c, 13, 56, 64
11, 18600, Note_on_c, 13, 58, 58
11, 18690, Note_off_c, 13, 58, 64
11, 18690, Note_on_c, 13, 55, 58
11, 18720, Note_off_c, 13, 55, 64
11, 18720, Note_on_c, 13, 53, 58
11, 18816, Note_off_c, 13, 53, 64
11, 19200, Note_on_c, 13, 55, 58
11, 19440, Note_off_c, 13, 55, 64
11, 19440, Note_on_c, 13, 56, 58
11, 19530, Note_off_c, 13, 56, 64
11, 19530, Note_on_c, 13, 58, 58
11, 19560, Note_off_c, 13, 58, 64
11, 19560, Note_on_c, 13, 60, 58
11, 19650, Note_off_c, 13, 60, 64
11, 19650, Note_on_c, 13, 56, 58
11, 19680, Note_off_c, 13, 56, 64
11, 19680, Note_on_c, 13, 55, 58
11, 19776, Note_off_c, 13, 55, 64
11, 20160, Note_on_c, 13, 56, 58
11, 20232, Note_off_c, 13, 56, 64
11, 20400, Note_on_c, 13, 58, 58
11, 20472, Note_off_c, 13, 58, 64
11, 20640, Note_on_c, 13, 51, 58
11, 20712, Note_off_c, 13, 51, 64
11, 21000, Note_on_c, 13, 58, 58
11, 21072, Note_off_c, 13, 58, 64
11, 21120, Note_on_c, 13, 63, 58
11, 21192, Note_off_c, 13, 63, 64
11, 21480, Note_on_c, 13, 58, 58
11, 21552, Note_off_c, 13, 58, 64
11, 21600, Note_on_c, 13, 63, 30
11, 21672, Note_off_c, 13, 63, 64
11, 22170, Note_on_c, 13, 53, 58
11, 22200, Note_off_c, 13, 53, 64
11, 22200, Note_on_c, 13, 51, 58
11, 22254, Note_off_c, 13, 51, 64
11, 22290, Note_on_c, 13, 49, 58
11, 22320, Note_off_c, 13, 49, 64
11, 22320, Note_on_c, 13, 48, 58
11, 22374, Note_off_c, 13, 48, 64
11, 22410, Note_on_c, 13, 46, 58
11, 22440, Note_off_c, 13, 46, 64
11, 22440, Note_on_c, 13, 44, 58
11, 22494, Note_off_c, 13, 44, 64
11, 22530, Note_on_c, 13, 43, 58
11, 22560, Note_off_c, 13, 43, 64
11, 22560, Note_on_c, 13, 44, 58
11, 22800, Note_off_c, 13, 44, 64
11, 22800, Note_on_c, 13, 49, 58
11, 23040, Note_off_c, 13, 49, 64
11, 23040, Note_on_c, 13, 44, 58
11, 23136, Note_off_c, 13, 44, 64
11, 23760, Note_on_c, 13, 63, 58
11, 23832, Note_off_c, 13, 63, 64
11, 23880, Note_on_c, 13, 63, 58
11, 23952, Note_off_c, 13, 63, 64
11, 24000, Note_on_c, 13, 63, 58
11, 24192, Note_off_c, 13, 63, 64
11, 24480, Note_on_c, 13, 44, 58
11, 24720, Note_off_c, 13, 44, 64
11, 24720, Note_on_c, 13, 49, 58
11, 24960, Note_off_c, 13, 49, 64
11, 24960, Note_on_c, 13, 44, 58
11, 25056, Note_off_c, 13, 44, 64
11, 25200, Note_on_c, 13, 53, 58
11, 25440, Note_off_c, 13, 53, 64
11, 25440, Note_on_c, 13, 51, 58
11, 25536, Note_off_c, 13, 51, 64
11, 25800, Note_on_c, 13, 39, 58
11, 25872, Note_off_c, 13, 39, 64
11, 25920, Note_on_c, 13, 44, 58
11, 26064, Note_off_c, 13, 44, 64
11, 27360, Note_on_c, 13, 41, 105
11, 27408, Note_off_c, 13, 41, 64
11, 27420, Note_on_c, 13, 53, 105
11, 27468, Note_off_c, 13, 53, 64
11, 27480, Note_on_c, 13, 53, 105
11, 27528, Note_off_c, 13, 53, 64
11, 27540, Note_on_c, 13, 53, 105
11, 27588, Note_off_c, 13, 53, 64
11, 27600, Note_on_c, 13, 53, 105
11, 27648, Note_off_c, 13, 53, 64
11, 27660, Note_on_c, 13, 53, 105
11, 27708, Note_off_c, 13, 53, 64
11, 27720, Note_on_c, 13, 53, 105
11, 27768, Note_off_c, 13, 53, 64
11, 27780, Note_on_c, 13, 53, 105
11, 27828, Note_off_c, 13, 53, 64
11, 27840, Note_on_c, 13, 41, 105
11, 27888, Note_off_c, 13, 41, 64
11, 27900, Note_on_c, 13, 53, 105
11, 27948, Note_off_c, 13, 53, 64
11, 27960, Note_on_c, 13, 53, 105
11, 28008, Note_off_c, 13, 53, 64
11, 28020, Note_on_c, 13, 53, 105
11, 28068, Note_off_c, 13, 53, 64
11, 28080, Note_on_c, 13, 53, 105
11, 28128, Note_off_c, 13, 53, 64
11, 28140, Note_on_c, 13, 53, 105
11, 28188, Note_off_c, 13, 53, 64
11, 28200, Note_on_c, 13, 53, 105
11, 28248, Note_off_c, 13, 53, 64
11, 28260, Note_on_c, 13, 53, 105
11, 28308, Note_off_c, 13, 53, 64
11, 28320, Note_on_c, 13, 41, 105
11, 28368, Note_off_c, 13, 41, 64
11, 28380, Note_on_c, 13, 53, 105
11, 28428, Note_off_c, 13, 53, 64
11, 28440, Note_on_c, 13, 53, 105
11, 28488, Note_off_c, 13, 53, 64
11, 28500, Note_on_c, 13, 53, 105
11, 28548, Note_off_c, 13, 53, 64
11, 28560, Note_on_c, 13, 53, 105
11, 28608, Note_off_c, 13, 53, 64
11, 28620, Note_on_c, 13, 53, 105
11, 28668, Note_off_c, 13, 53, 64
11, 28680, Note_on_c, 13, 53, 105
11, 28728, Note_off_c, 13, 53, 64
11, 28740, Note_on_c, 13, 53, 105
11, 28788, Note_off_c, 13, 53, 64
11, 28800, Note_on_c, 13, 41, 105
11, 28848, Note_off_c, 13, 41, 64
11, 28860, Note_on_c, 13, 53, 105
11, 28908, Note_off_c, 13, 53, 64
11, 28920, Note_on_c, 13, 53, 105
11, 28968, Note_off_c, 13, 53, 64
11, 28980, Note_on_c, 13, 53, 105
11, 29028, Note_off_c, 13, 53, 64
11, 29040, Note_on_c, 13, 53, 105
11, 29088, Note_off_c, 13, 53, 64
11, 29100, Note_on_c, 13, 53, 105
11, 29148, Note_off_c, 13, 53, 64
11, 29160, Note_on_c, 13, 53, 105
11, 29208, Note_off_c, 13, 53, 64
11, 29220, Note_on_c, 13, 53, 105
11, 29268, Note_off_c, 13, 53, 64
11, 29280, Note_on_c, 13, 42, 105
11, 29328, Note_off_c, 13, 42, 64
11, 29340, Note_on_c, 13, 54, 105
11, 29388, Note_off_c, 13, 54, 64
11, 29400, Note_on_c, 13, 54, 105
11, 29448, Note_off_c, 13, 54, 64
11, 29460, Note_on_c, 13, 54, 105
11, 29508, Note_off_c, 13, 54, 64
11, 29520, Note_on_c, 13, 54, 105
11, 29568, Note_off_c, 13, 54, 64
11, 29580, Note_on_c, 13, 54, 105
11, 29628, Note_off_c, 13, 54, 64
11, 29640, Note_on_c, 13, 54, 105
11, 29688, Note_off_c, 13, 54, 64
11, 29700, Note_on_c, 13, 54, 105
11, 29748, Note_off_c, 13, 54, 64
11, 29760, Note_on_c, 13, 47, 105
11, 29808, Note_off_c, 13, 47, 64
11, 29820, Note_on_c, 13, 59, 105
11, 29868, Note_off_c, 13, 59, 64
11, 29880, Note_on_c, 13, 59, 105
11, 29928, Note_off_c, 13, 59, 64
11, 29940, Note_on_c, 13, 59, 105
11, 29988, Note_off_c, 13, 59, 64
11, 30000, Note_on_c, 13, 59, 105
11, 30048, Note_off_c, 13, 59, 64
11, 30060, Note_on_c, 13, 59, 105
11, 30108, Note_off_c, 13, 59, 64
11, 30120, Note_on_c, 13, 59, 105
11, 30168, Note_off_c, 13, 59, 64
11, 30180, Note_on_c, 13, 59, 105
11, 30228, Note_off_c, 13, 59, 64
11, 30240, Note_on_c, 13, 46, 105
11, 30288, Note_off_c, 13, 46, 64
11, 30300, Note_on_c, 13, 58, 105
11, 30348, Note_off_c, 13, 58, 64
11, 30360, Note_on_c, 13, 58, 105
11, 30408, Note_off_c, 13, 58, 64
11, 30420, Note_on_c, 13, 58, 105
11, 30468, Note_off_c, 13, 58, 64
11, 30480, Note_on_c, 13, 46, 105
11, 30528, Note_off_c, 13, 46, 64
11, 30540, Note_on_c, 13, 58, 105
11, 30588, Note_off_c, 13, 58, 64
11, 30600, Note_on_c, 13, 58, 105
11, 30648, Note_off_c, 13, 58, 64
11, 30660, Note_on_c, 13, 58, 105
11, 30708, Note_off_c, 13, 58, 64
11, 30720, Note_on_c, 13, 46, 105
11, 30768, Note_off_c, 13, 46, 64
11, 30780, Note_on_c, 13, 58, 105
11, 30828, Note_off_c, 13, 58, 64
11, 30840, Note_on_c, 13, 58, 105
11, 30888, Note_off_c, 13, 58, 64
11, 30900, Note_on_c, 13, 58, 105
11, 30948, Note_off_c, 13, 58, 64
11, 30960, Note_on_c, 13, 46, 105
11, 31008, Note_off_c, 13, 46, 64
11, 31020, Note_on_c, 13, 58, 105
11, 31068, Note_off_c, 13, 58, 64
11, 31080, Note_on_c, 13, 58, 105
11, 31128, Note_off_c, 13, 58, 64
11, 31140, Note_on_c, 13, 58, 105
11, 31188, Note_off_c, 13, 58, 64
11, 31200, Note_on_c, 13, 46, 105
11, 31296, Note_off_c, 13, 46, 64
11, 32160, Note_on_c, 13, 46, 58
11, 32250, Note_off_c, 13, 46, 64
11, 32250, Note_on_c, 13, 45, 58
11, 32280, Note_off_c, 13, 45, 64
11, 32280, Note_on_c, 13, 50, 58
11, 32370, Note_off_c, 13, 50, 64
11, 32370, Note_on_c, 13, 48, 58
11, 32400, Note_off_c, 13, 48, 64
11, 32400, Note_on_c, 13, 51, 58
11, 32490, Note_off_c, 13, 51, 64
11, 32490, Note_on_c, 13, 50, 58
11, 32520, Note_off_c, 13, 50, 64
11, 32520, Note_on_c, 13, 53, 58
11, 32616, Note_off_c, 13, 53, 64
11, 33120, Note_on_c, 13, 46, 58
11, 33210, Note_off_c, 13, 46, 64
11, 33210, Note_on_c, 13, 45, 58
11, 33240, Note_off_c, 13, 45, 64
11, 33240, Note_on_c, 13, 51, 58
11, 33330, Note_off_c, 13, 51, 64
11, 33330, Note_on_c, 13, 50, 58
11, 33360, Note_off_c, 13, 50, 64
11, 33360, Note_on_c, 13, 53, 58
11, 33450, Note_off_c, 13, 53, 64
11, 33450, Note_on_c, 13, 51, 58
11, 33480, Note_off_c, 13, 51, 64
11, 33480, Note_on_c, 13, 55, 58
11, 33576, Note_off_c, 13, 55, 64
11, 34080, Note_on_c, 13, 46, 58
11, 34170, Note_off_c, 13, 46, 64
11, 34170, Note_on_c, 13, 45, 58
11, 34200, Note_off_c, 13, 45, 64
11, 34200, Note_on_c, 13, 53, 58
11, 34290, Note_off_c, 13, 53, 64
11, 34290, Note_on_c, 13, 51, 58
11, 34320, Note_off_c, 13, 51, 64
11, 34320, Note_on_c, 13, 55, 58
11, 34410, Note_off_c, 13, 55, 64
11, 34410, Note_on_c, 13, 53, 58
11, 34440, Note_off_c, 13, 53, 64
11, 34440, Note_on_c, 13, 56, 58
11, 34560, Note_off_c, 13, 56, 64
11, 34560, Note_on_c, 13, 55, 58
11, 34656, Note_off_c, 13, 55, 64
11, 35040, Note_on_c, 13, 52, 105
11, 35130, Note_off_c, 13, 52, 64
11, 35130, Note_on_c, 13, 50, 105
11, 35160, Note_off_c, 13, 50, 64
11, 35160, Note_on_c, 13, 53, 105
11, 35250, Note_off_c, 13, 53, 64
11, 35250, Note_on_c, 13, 52, 105
11, 35280, Note_off_c, 13, 52, 64
11, 35280, Note_on_c, 13, 55, 105
11, 35370, Note_off_c, 13, 55, 64
11, 35370, Note_on_c, 13, 53, 105
11, 35400, Note_off_c, 13, 53, 64
11, 35400, Note_on_c, 13, 56, 105
11, 35496, Note_off_c, 13, 56, 64
11, 35520, Note_on_c, 13, 50, 105
11, 35610, Note_off_c, 13, 50, 64
11, 35610, Note_on_c, 13, 48, 105
11, 35640, Note_off_c, 13, 48, 64
11, 35640, Note_on_c, 13, 51, 105
11, 35730, Note_off_c, 13, 51, 64
11, 35730, Note_on_c, 13, 50, 105
11, 35760, Note_off_c, 13, 50, 64
11, 35760, Note_on_c, 13, 53, 105
11, 35850, Note_off_c, 13, 53, 64
11, 35850, Note_on_c, 13, 51, 105
11, 35880, Note_off_c, 13, 51, 64
11, 35880, Note_on_c, 13, 55, 105
11, 35976, Note_off_c, 13, 55, 64
11, 36000, Note_on_c, 13, 48, 105
11, 36090, Note_off_c, 13, 48, 64
11, 36090, Note_on_c, 13, 47, 105
11, 36120, Note_off_c, 13, 47, 64
11, 36120, Note_on_c, 13, 50, 105
11, 36210, Note_off_c, 13, 50, 64
11, 36210, Note_on_c, 13, 48, 105
11, 36240, Note_off_c, 13, 48, 64
11, 36240, Note_on_c, 13, 51, 105
11, 36330, Note_off_c, 13, 51, 64
11, 36330, Note_on_c, 13, 50, 105
11, 36360, Note_off_c, 13, 50, 64
11, 36360, Note_on_c, 13, 53, 105
11, 36456, Note_off_c, 13, 53, 64
11, 36480, Note_on_c, 13, 47, 105
11, 36570, Note_off_c, 13, 47, 64
11, 36570, Note_on_c, 13, 45, 105
11, 36600, Note_off_c, 13, 45, 64
11, 36600, Note_on_c, 13, 48, 105
11, 36690, Note_off_c, 13, 48, 64
11, 36690, Note_on_c, 13, 47, 105
11, 36720, Note_off_c, 13, 47, 64
11, 36720, Note_on_c, 13, 50, 105
11, 36810, Note_off_c, 13, 50, 64
11, 36810, Note_on_c, 13, 48, 105
11, 36840, Note_off_c, 13, 48, 64
11, 36840, Note_on_c, 13, 51, 105
11, 36936, Note_off_c, 13, 51, 64
11, 36960, Note_on_c, 13, 44, 58
11, 37056, Note_off_c, 13, 44, 64
11, 37440, Note_on_c, 13, 56, 58
11, 37536, Note_off_c, 13, 56, 64
11, 37920, Note_on_c, 13, 57, 58
11, 38016, Note_off_c, 13, 57, 64
11, 38400, Note_on_c, 13, 58, 58
11, 38496, Note_off_c, 13, 58, 64
11, 38640, Note_on_c, 13, 46, 58
11, 38736, Note_off_c, 13, 46, 64
11, 38880, Note_on_c, 13, 51, 30
11, 40704, Note_off_c, 13, 51, 64
11, 40800, Note_on_c, 13, 39, 105
11, 40848, Note_off_c, 13, 39, 64
11, 40860, Note_on_c, 13, 51, 105
11, 40908, Note_off_c, 13, 51, 64
11, 40920, Note_on_c, 13, 51, 105
11, 40968, Note_off_c, 13, 51, 64
11, 40980, Note_on_c, 13, 51, 105
11, 41028, Note_off_c, 13, 51, 64
11, 41040, Note_on_c, 13, 44, 105
11, 41088, Note_off_c, 13, 44, 64
11, 41100, Note_on_c, 13, 56, 105
11, 41148, Note_off_c, 13, 56, 64
11, 41160, Note_on_c, 13, 56, 105
11, 41208, Note_off_c, 13, 56, 64
11, 41220, Note_on_c, 13, 56, 105
11, 41268, Note_off_c, 13, 56, 64
11, 41280, Note_on_c, 13, 46, 105
11, 41328, Note_off_c, 13, 46, 64
11, 41340, Note_on_c, 13, 58, 105
11, 41388, Note_off_c, 13, 58, 64
11, 41400, Note_on_c, 13, 58, 105
11, 41448, Note_off_c, 13, 58, 64
11, 41460, Note_on_c, 13, 58, 105
11, 41508, Note_off_c, 13, 58, 64
11, 41520, Note_on_c, 13, 58, 105
11, 41568, Note_off_c, 13, 58, 64
11, 41580, Note_on_c, 13, 58, 105
11, 41628, Note_off_c, 13, 58, 64
11, 41640, Note_on_c, 13, 46, 105
11, 41688, Note_off_c, 13, 46, 64
11, 41700, Note_on_c, 13, 46, 105
11, 41748, Note_off_c, 13, 46, 64
11, 41760, Note_on_c, 13, 51, 58
11, 44256, Note_off_c, 13, 51, 64
11, 44400, Note_on_c, 13, 51, 58
11, 44496, Note_off_c, 13, 51, 64
11, 44640, Note_on_c, 13, 51, 58
11, 44736, Note_off_c, 13, 51, 64
11, 44880, Note_on_c, 13, 51, 58
11, 44976, Note_off_c, 13, 51, 64
11, 45120, Note_on_c, 13, 51, 58
11, 45216, Note_off_c, 13, 51, 64
11, 45360, Note_on_c, 13, 51, 58
11, 45456, Note_off_c, 13, 51, 64
11, 45600, Note_on_c, 13, 44, 58
11, 45840, Note_off_c, 13, 44, 64
11, 45840, Note_on_c, 13, 49, 58
11, 46080, Note_off_c, 13, 49, 64
11, 46080, Note_on_c, 13, 44, 58
11, 46176, Note_off_c, 13, 44, 64
11, 46800, Note_on_c, 13, 63, 58
11, 46872, Note_off_c, 13, 63, 64
11, 46920, Note_on_c, 13, 63, 58
11, 46992, Note_off_c, 13, 63, 64
11, 47040, Note_on_c, 13, 63, 58
11, 47232, Note_off_c, 13, 63, 64
11, 47520, Note_on_c, 13, 44, 58
11, 47760, Note_off_c, 13, 44, 64
11, 47760, Note_on_c, 13, 49, 58
11, 48000, Note_off_c, 13, 49, 64
11, 48000, Note_on_c, 13, 44, 58
11, 48096, Note_off_c, 13, 44, 64
11, 48720, Note_on_c, 13, 46, 58
11, 48792, Note_off_c, 13, 46, 64
11, 48840, Note_on_c, 13, 46, 58
11, 48912, Note_off_c, 13, 46, 64
11, 48960, Note_on_c, 13, 39, 58
11, 49152, Note_off_c, 13, 39, 64
11, 49440, Note_on_c, 13, 51, 58
11, 49680, Note_off_c, 13, 51, 64
11, 49680, Note_on_c, 13, 53, 58
11, 49770, Note_off_c, 13, 53, 64
11, 49770, Note_on_c, 13, 55, 58
11, 49800, Note_off_c, 13, 55, 64
11, 49800, Note_on_c, 13, 56, 58
11, 49890, Note_off_c, 13, 56, 64
11, 49890, Note_on_c, 13, 53, 58
11, 49920, Note_off_c, 13, 53, 64
11, 49920, Note_on_c, 13, 51, 58
11, 50016, Note_off_c, 13, 51, 64
11, 50400, Note_on_c, 13, 53, 58
11, 50640, Note_off_c, 13, 53, 64
11, 50640, Note_on_c, 13, 55, 58
11, 50730, Note_off_c, 13, 55, 64
11, 50730, Note_on_c, 13, 56, 58
11, 50760, Note_off_c, 13, 56, 64
11, 50760, Note_on_c, 13, 58, 58
11, 50850, Note_off_c, 13, 58, 64
11, 50850, Note_on_c, 13, 55, 58
11, 50880, Note_off_c, 13, 55, 64
11, 50880, Note_on_c, 13, 53, 58
11, 50976, Note_off_c, 13, 53, 64
11, 51360, Note_on_c, 13, 55, 58
11, 51600, Note_off_c, 13, 55, 64
11, 51600, Note_on_c, 13, 56, 58
11, 51690, Note_off_c, 13, 56, 64
11, 51690, Note_on_c, 13, 58, 58
11, 51720, Note_off_c, 13, 58, 64
11, 51720, Note_on_c, 13, 60, 58
11, 51810, Note_off_c, 13, 60, 64
11, 51810, Note_on_c, 13, 56, 58
11, 51840, Note_off_c, 13, 56, 64
11, 51840, Note_on_c, 13, 55, 58
11, 51936, Note_off_c, 13, 55, 64
11, 52320, Note_on_c, 13, 56, 58
11, 52392, Note_off_c, 13, 56, 64
11, 52560, Note_on_c, 13, 58, 58
11, 52632, Note_off_c, 13, 58, 64
11, 52800, Note_on_c, 13, 51, 58
11, 52872, Note_off_c, 13, 51, 64
11, 53160, Note_on_c, 13, 58, 58
11, 53232, Note_off_c, 13, 58, 64
11, 53280, Note_on_c, 13, 63, 58
11, 53352, Note_off_c, 13, 63, 64
11, 53640, Note_on_c, 13, 58, 58
11, 53712, Note_off_c, 13, 58, 64
11, 53760, Note_on_c, 13, 63, 58
11, 53832, Note_off_c, 13, 63, 64
11, 54330, Note_on_c, 13, 53, 58
11, 54360, Note_off_c, 13, 53, 64
11, 54360, Note_on_c, 13, 51, 58
11, 54414, Note_off_c, 13, 51, 64
11, 54450, Note_on_c, 13, 49, 58
11, 54480, Note_off_c, 13, 49, 64
11, 54480, Note_on_c, 13, 48, 58
11, 54534, Note_off_c, 13, 48, 64
11, 54570, Note_on_c, 13, 46, 58
11, 54600, Note_off_c, 13, 46, 64
11, 54600, Note_on_c, 13, 44, 58
11, 54654, Note_off_c, 13, 44, 64
11, 54690, Note_on_c, 13, 43, 58
11, 54720, Note_off_c, 13, 43, 64
11, 54720, Note_on_c, 13, 44, 58
11, 54960, Note_off_c, 13, 44, 64
11, 54960, Note_on_c, 13, 49, 58
11, 55200, Note_off_c, 13, 49, 64
11, 55200, Note_on_c, 13, 44, 58
11, 55296, Note_off_c, 13, 44, 64
11, 55920, Note_on_c, 13, 58, 58
11, 55992, Note_off_c, 13, 58, 64
11, 56040, Note_on_c, 13, 56, 58
11, 56112, Note_off_c, 13, 56, 64
11, 56160, Note_on_c, 13, 51, 58
11, 56496, Note_off_c, 13, 51, 64
11, 56640, Note_on_c, 13, 44, 58
11, 56880, Note_off_c, 13, 44, 64
11, 56880, Note_on_c, 13, 49, 58
11, 57120, Note_off_c, 13, 49, 64
11, 57120, Note_on_c, 13, 44, 58
11, 57216, Note_off_c, 13, 44, 64
11, 57600, Note_on_c, 13, 54, 58
11, 57840, Note_off_c, 13, 54, 64
11, 57840, Note_on_c, 13, 52, 58
11, 58032, Note_off_c, 13, 52, 64
11, 58080, Note_on_c, 13, 51, 58
11, 58152, Note_off_c, 13, 51, 64
11, 58200, Note_on_c, 13, 51, 58
11, 58272, Note_off_c, 13, 51, 64
11, 58320, Note_on_c, 13, 52, 58
11, 58392, Note_off_c, 13, 52, 64
11, 58440, Note_on_c, 13, 52, 58
11, 58512, Note_off_c, 13, 52, 64
11, 58560, Note_on_c, 13, 54, 58
11, 58632, Note_off_c, 13, 54, 64
11, 58680, Note_on_c, 13, 54, 58
11, 58752, Note_off_c, 13, 54, 64
11, 58800, Note_on_c, 13, 42, 58
11, 58872, Note_off_c, 13, 42, 64
11, 58920, Note_on_c, 13, 42, 58
11, 58992, Note_off_c, 13, 42, 64
11, 59040, Note_on_c, 13, 47, 105
11, 59088, Note_off_c, 13, 47, 64
11, 59100, Note_on_c, 13, 59, 105
11, 59148, Note_off_c, 13, 59, 64
11, 59160, Note_on_c, 13, 59, 105
11, 59208, Note_off_c, 13, 59, 64
11, 59220, Note_on_c, 13, 59, 105
11, 59268, Note_off_c, 13, 59, 64
11, 59280, Note_on_c, 13, 59, 105
11, 59328, Note_off_c, 13, 59, 64
11, 59340, Note_on_c, 13, 59, 105
11, 59388, Note_off_c, 13, 59, 64
11, 59400, Note_on_c, 13, 59, 105
11, 59448, Note_off_c, 13, 59, 64
11, 59460, Note_on_c, 13, 59, 105
11, 59508, Note_off_c, 13, 59, 64
11, 59520, Note_on_c, 13, 47, 105
11, 59568, Note_off_c, 13, 47, 64
11, 59580, Note_on_c, 13, 59, 105
11, 59628, Note_off_c, 13, 59, 64
11, 59640, Note_on_c, 13, 59, 105
11, 59688, Note_off_c, 13, 59, 64
11, 59700, Note_on_c, 13, 59, 105
11, 59748, Note_off_c, 13, 59, 64
11, 59760, Note_on_c, 13, 59, 105
11, 59808, Note_off_c, 13, 59, 64
11, 59820, Note_on_c, 13, 59, 105
11, 59868, Note_off_c, 13, 59, 64
11, 59880, Note_on_c, 13, 59, 105
11, 59928, Note_off_c, 13, 59, 64
11, 59940, Note_on_c, 13, 59, 105
11, 59988, Note_off_c, 13, 59, 64
11, 60000, Note_on_c, 13, 47, 105
11, 60048, Note_off_c, 13, 47, 64
11, 60060, Note_on_c, 13, 59, 105
11, 60108, Note_off_c, 13, 59, 64
11, 60120, Note_on_c, 13, 59, 105
11, 60168, Note_off_c, 13, 59, 64
11, 60180, Note_on_c, 13, 59, 105
11, 60228, Note_off_c, 13, 59, 64
11, 60240, Note_on_c, 13, 59, 105
11, 60288, Note_off_c, 13, 59, 64
11, 60300, Note_on_c, 13, 59, 105
11, 60348, Note_off_c, 13, 59, 64
11, 60360, Note_on_c, 13, 59, 105
11, 60408, Note_off_c, 13, 59, 64
11, 60420, Note_on_c, 13, 59, 105
11, 60468, Note_off_c, 13, 59, 64
11, 60480, Note_on_c, 13, 47, 105
11, 60528, Note_off_c, 13, 47, 64
11, 60540, Note_on_c, 13, 59, 105
11, 60588, Note_off_c, 13, 59, 64
11, 60600, Note_on_c, 13, 59, 105
11, 60648, Note_off_c, 13, 59, 64
11, 60660, Note_on_c, 13, 59, 105
11, 60708, Note_off_c, 13, 59, 64
11, 60720, Note_on_c, 13, 59, 105
11, 60768, Note_off_c, 13, 59, 64
11, 60780, Note_on_c, 13, 59, 105
11, 60828, Note_off_c, 13, 59, 64
11, 60840, Note_on_c, 13, 59, 105
11, 60888, Note_off_c, 13, 59, 64
11, 60900, Note_on_c, 13, 59, 105
11, 60948, Note_off_c, 13, 59, 64
11, 60960, Note_on_c, 13, 48, 105
11, 61008, Note_off_c, 13, 48, 64
11, 61020, Note_on_c, 13, 60, 105
11, 61068, Note_off_c, 13, 60, 64
11, 61080, Note_on_c, 13, 60, 105
11, 61128, Note_off_c, 13, 60, 64
11, 61140, Note_on_c, 13, 60, 105
11, 61188, Note_off_c, 13, 60, 64
11, 61200, Note_on_c, 13, 60, 105
11, 61248, Note_off_c, 13, 60, 64
11, 61260, Note_on_c, 13, 60, 105
11, 61308, Note_off_c, 13, 60, 64
11, 61320, Note_on_c, 13, 60, 105
11, 61368, Note_off_c, 13, 60, 64
11, 61380, Note_on_c, 13, 60, 105
11, 61428, Note_off_c, 13, 60, 64
11, 61440, Note_on_c, 13, 49, 105
11, 61488, Note_off_c, 13, 49, 64
11, 61500, Note_on_c, 13, 61, 105
11, 61548, Note_off_c, 13, 61, 64
11, 61560, Note_on_c, 13, 61, 105
11, 61608, Note_off_c, 13, 61, 64
11, 61620, Note_on_c, 13, 61, 105
11, 61668, Note_off_c, 13, 61, 64
11, 61680, Note_on_c, 13, 61, 105
11, 61728, Note_off_c, 13, 61, 64
11, 61740, Note_on_c, 13, 61, 105
11, 61788, Note_off_c, 13, 61, 64
11, 61800, Note_on_c, 13, 61, 105
11, 61848, Note_off_c, 13, 61, 64
11, 61860, Note_on_c, 13, 61, 105
11, 61908, Note_off_c, 13, 61, 64
11, 61920, Note_on_c, 13, 49, 105
11, 61968, Note_off_c, 13, 49, 64
11, 61980, Note_on_c, 13, 61, 105
11, 62028, Note_off_c, 13, 61, 64
11, 62040, Note_on_c, 13, 61, 105
11, 62088, Note_off_c, 13, 61, 64
11, 62100, Note_on_c, 13, 61, 105
11, 62148, Note_off_c, 13, 61, 64
11, 62160, Note_on_c, 13, 61, 105
11, 62208, Note_off_c, 13, 61, 64
11, 62220, Note_on_c, 13, 61, 105
11, 62268, Note_off_c, 13, 61, 64
11, 62280, Note_on_c, 13, 61, 105
11, 62328, Note_off_c, 13, 61, 64
11, 62340, Note_on_c, 13, 61, 105
11, 62388, Note_off_c, 13, 61, 64
11, 62400, Note_on_c, 13, 47, 105
11, 62448, Note_off_c, 13, 47, 64
11, 62460, Note_on_c, 13, 59, 105
11, 62508, Note_off_c, 13, 59, 64
11, 62520, Note_on_c, 13, 59, 105
11, 62568, Note_off_c, 13, 59, 64
11, 62580, Note_on_c, 13, 59, 105
11, 62628, Note_off_c, 13, 59, 64
11, 62640, Note_on_c, 13, 59, 105
11, 62688, Note_off_c, 13, 59, 64
11, 62700, Note_on_c, 13, 59, 105
11, 62748, Note_off_c, 13, 59, 64
11, 62760, Note_on_c, 13, 59, 105
11, 62808, Note_off_c, 13, 59, 64
11, 62820, Note_on_c, 13, 59, 105
11, 62868, Note_off_c, 13, 59, 64
11, 62880, Note_on_c, 13, 40, 105
11, 62928, Note_off_c, 13, 40, 64
11, 62940, Note_on_c, 13, 52, 105
11, 62988, Note_off_c, 13, 52, 64
11, 63000, Note_on_c, 13, 52, 105
11, 63048, Note_off_c, 13, 52, 64
11, 63060, Note_on_c, 13, 52, 105
11, 63108, Note_off_c, 13, 52, 64
11, 63120, Note_on_c, 13, 52, 105
11, 63168, Note_off_c, 13, 52, 64
11, 63180, Note_on_c, 13, 52, 105
11, 63228, Note_off_c, 13, 52, 64
11, 63240, Note_on_c, 13, 52, 105
11, 63288, Note_off_c, 13, 52, 64
11, 63300, Note_on_c, 13, 52, 105
11, 63348, Note_off_c, 13, 52, 64
11, 63360, Note_on_c, 13, 41, 105
11, 63408, Note_off_c, 13, 41, 64
11, 63420, Note_on_c, 13, 53, 105
11, 63468, Note_off_c, 13, 53, 64
11, 63480, Note_on_c, 13, 53, 105
11, 63528, Note_off_c, 13, 53, 64
11, 63540, Note_on_c, 13, 53, 105
11, 63588, Note_off_c, 13, 53, 64
11, 63600, Note_on_c, 13, 40, 105
11, 63648, Note_off_c, 13, 40, 64
11, 63660, Note_on_c, 13, 52, 105
11, 63708, Note_off_c, 13, 52, 64
11, 63720, Note_on_c, 13, 52, 105
11, 63768, Note_off_c, 13, 52, 64
11, 63780, Note_on_c, 13, 52, 105
11, 63828, Note_off_c, 13, 52, 64
11, 63840, Note_on_c, 13, 39, 105
11, 63888, Note_off_c, 13, 39, 64
11, 63900, Note_on_c, 13, 51, 105
11, 63948, Note_off_c, 13, 51, 64
11, 63960, Note_on_c, 13, 51, 105
11, 64008, Note_off_c, 13, 51, 64
11, 64020, Note_on_c, 13, 51, 105
11, 64068, Note_off_c, 13, 51, 64
11, 64080, Note_on_c, 13, 39, 105
11, 64128, Note_off_c, 13, 39, 64
11, 64140, Note_on_c, 13, 51, 105
11, 64188, Note_off_c, 13, 51, 64
11, 64200, Note_on_c, 13, 51, 105
11, 64248, Note_off_c, 13, 51, 64
11, 64260, Note_on_c, 13, 51, 105
11, 64308, Note_off_c, 13, 51, 64
11, 64320, Note_on_c, 13, 39, 105
11, 64368, Note_off_c, 13, 39, 64
11, 64380, Note_on_c, 13, 51, 105
11, 64428, Note_off_c, 13, 51, 64
11, 64440, Note_on_c, 13, 51, 105
11, 64488, Note_off_c, 13, 51, 64
11, 64500, Note_on_c, 13, 51, 105
11, 64548, Note_off_c, 13, 51, 64
11, 64560, Note_on_c, 13, 39, 105
11, 64608, Note_off_c, 13, 39, 64
11, 64620, Note_on_c, 13, 51, 105
11, 64668, Note_off_c, 13, 51, 64
11, 64680, Note_on_c, 13, 51, 105
11, 64728, Note_off_c, 13, 51, 64
11, 64740, Note_on_c, 13, 51, 105
11, 64788, Note_off_c, 13, 51, 64
11, 64800, Note_on_c, 13, 39, 105
11, 64896, Note_off_c, 13, 39, 64
11, 65760, Note_on_c, 13, 51, 58
11, 65850, Note_off_c, 13, 51, 64
11, 65850, Note_on_c, 13, 50, 58
11, 65880, Note_off_c, 13, 50, 64
11, 65880, Note_on_c, 13, 55, 58
11, 65970, Note_off_c, 13, 55, 64
11, 65970, Note_on_c, 13, 53, 58
11, 66000, Note_off_c, 13, 53, 64
11, 66000, Note_on_c, 13, 56, 58
11, 66090, Note_off_c, 13, 56, 64
11, 66090, Note_on_c, 13, 55, 58
11, 66120, Note_off_c, 13, 55, 64
11, 66120, Note_on_c, 13, 58, 58
11, 66240, Note_off_c, 13, 58, 64
11, 66720, Note_on_c, 13, 51, 58
11, 66810, Note_off_c, 13, 51, 64
11, 66810, Note_on_c, 13, 50, 58
11, 66840, Note_off_c, 13, 50, 64
11, 66840, Note_on_c, 13, 56, 58
11, 66930, Note_off_c, 13, 56, 64
11, 66930, Note_on_c, 13, 55, 58
11, 66960, Note_off_c, 13, 55, 64
11, 66960, Note_on_c, 13, 58, 58
11, 67050, Note_off_c, 13, 58, 64
11, 67050, Note_on_c, 13, 56, 58
11, 67080, Note_off_c, 13, 56, 64
11, 67080, Note_on_c, 13, 60, 58
11, 67200, Note_off_c, 13, 60, 64
11, 67680, Note_on_c, 13, 51, 58
11, 67770, Note_off_c, 13, 51, 64
11, 67770, Note_on_c, 13, 50, 58
11, 67800, Note_off_c, 13, 50, 64
11, 67800, Note_on_c, 13, 58, 58
11, 67890, Note_off_c, 13, 58, 64
11, 67890, Note_on_c, 13, 56, 58
11, 67920, Note_off_c, 13, 56, 64
11, 67920, Note_on_c, 13, 60, 58
11, 68010, Note_off_c, 13, 60, 64
11, 68010, Note_on_c, 13, 58, 58
11, 68040, Note_off_c, 13, 58, 64
11, 68040, Note_on_c, 13, 61, 58
11, 68160, Note_off_c, 13, 61, 64
11, 68160, Note_on_c, 13, 60, 58
11, 68256, Note_off_c, 13, 60, 64
11, 68640, Note_on_c, 13, 57, 105
11, 68730, Note_off_c, 13, 57, 64
11, 68730, Note_on_c, 13, 55, 105
11, 68760, Note_off_c, 13, 55, 64
11, 68760, Note_on_c, 13, 58, 105
11, 68850, Note_off_c, 13, 58, 64
11, 68850, Note_on_c, 13, 57, 105
11, 68880, Note_off_c, 13, 57, 64
11, 68880, Note_on_c, 13, 60, 105
11, 68970, Note_off_c, 13, 60, 64
11, 68970, Note_on_c, 13, 58, 105
11, 69000, Note_off_c, 13, 58, 64
11, 69000, Note_on_c, 13, 61, 105
11, 69096, Note_off_c, 13, 61, 64
11, 69120, Note_on_c, 13, 55, 105
11, 69210, Note_off_c, 13, 55, 64
11, 69210, Note_on_c, 13, 53, 105
11, 69240, Note_off_c, 13, 53, 64
11, 69240, Note_on_c, 13, 56, 105
11, 69330, Note_off_c, 13, 56, 64
11, 69330, Note_on_c, 13, 55, 105
11, 69360, Note_off_c, 13, 55, 64
11, 69360, Note_on_c, 13, 58, 105
11, 69450, Note_off_c, 13, 58, 64
11, 69450, Note_on_c, 13, 56, 105
11, 69480, Note_off_c, 13, 56, 64
11, 69480, Note_on_c, 13, 60, 105
11, 69576, Note_off_c, 13, 60, 64
11, 69600, Note_on_c, 13, 53, 105
11, 69690, Note_off_c, 13, 53, 64
11, 69690, Note_on_c, 13, 52, 105
11, 69720, Note_off_c, 13, 52, 64
11, 69720, Note_on_c, 13, 55, 105
11, 69810, Note_off_c, 13, 55, 64
11, 69810, Note_on_c, 13, 53, 105
11, 69840, Note_off_c, 13, 53, 64
11, 69840, Note_on_c, 13, 56, 105
11, 69930, Note_off_c, 13, 56, 64
11, 69930, Note_on_c, 13, 55, 105
11, 69960, Note_off_c, 13, 55, 64
11, 69960, Note_on_c, 13, 58, 105
11, 70056, Note_off_c, 13, 58, 64
11, 70080, Note_on_c, 13, 52, 105
11, 70170, Note_off_c, 13, 52, 64
11, 70170, Note_on_c, 13, 50, 105
11, 70200, Note_off_c, 13, 50, 64
11, 70200, Note_on_c, 13, 53, 105
11, 70290, Note_off_c, 13, 53, 64
11, 70290, Note_on_c, 13, 52, 105
11, 70320, Note_off_c, 13, 52, 64
11, 70320, Note_on_c, 13, 55, 105
11, 70410, Note_off_c, 13, 55, 64
11, 70410, Note_on_c, 13, 53, 105
11, 70440, Note_off_c, 13, 53, 64
11, 70440, Note_on_c, 13, 56, 105
11, 70536, Note_off_c, 13, 56, 64
11, 70560, Note_on_c, 13, 49, 58
11, 70656, Note_off_c, 13, 49, 64
11, 71040, Note_on_c, 13, 49, 58
11, 71136, Note_off_c, 13, 49, 64
11, 71520, Note_on_c, 13, 51, 58
11, 71616, Note_off_c, 13, 51, 64
11, 71760, Note_on_c, 13, 51, 58
11, 71856, Note_off_c, 13, 51, 64
11, 72000, Note_on_c, 13, 53, 58
11, 72096, Note_off_c, 13, 53, 64
11, 72240, Note_on_c, 13, 53, 58
11, 72336, Note_off_c, 13, 53, 64
11, 72480, Note_on_c, 13, 51, 58
11, 72576, Note_off_c, 13, 51, 64
11, 72960, Note_on_c, 13, 51, 58
11, 73056, Note_off_c, 13, 51, 64
11, 73200, Note_on_c, 13, 39, 58
11, 73296, Note_off_c, 13, 39, 64
11, 73440, Note_on_c, 13, 44, 58
11, 75336, Note_off_c, 13, 44, 64
11, 75360, Note_on_c, 13, 44, 105
11, 75408, Note_off_c, 13, 44, 64
11, 75420, Note_on_c, 13, 56, 105
11, 75468, Note_off_c, 13, 56, 64
11, 75480, Note_on_c, 13, 56, 105
11, 75528, Note_off_c, 13, 56, 64
11, 75540, Note_on_c, 13, 56, 105
11, 75588, Note_off_c, 13, 56, 64
11, 75600, Note_on_c, 13, 49, 105
11, 75648, Note_off_c, 13, 49, 64
11, 75660, Note_on_c, 13, 61, 105
11, 75708, Note_off_c, 13, 61, 64
11, 75720, Note_on_c, 13, 61, 105
11, 75768, Note_off_c, 13, 61, 64
11, 75780, Note_on_c, 13, 61, 105
11, 75828, Note_off_c, 13, 61, 64
11, 75840, Note_on_c, 13, 51, 105
11, 75888, Note_off_c, 13, 51, 64
11, 75900, Note_on_c, 13, 63, 105
11, 75948, Note_off_c, 13, 63, 64
11, 75960, Note_on_c, 13, 63, 105
11, 76008, Note_off_c, 13, 63, 64
11, 76020, Note_on_c, 13, 63, 105
11, 76068, Note_off_c, 13, 63, 64
11, 76080, Note_on_c, 13, 63, 105
11, 76128, Note_off_c, 13, 63, 64
11, 76140, Note_on_c, 13, 63, 105
11, 76188, Note_off_c, 13, 63, 64
11, 76200, Note_on_c, 13, 51, 105
11, 76248, Note_off_c, 13, 51, 64
11, 76260, Note_on_c, 13, 51, 105
11, 76308, Note_off_c, 13, 51, 64
11, 76320, Note_on_c, 13, 44, 58
11, 78624, Note_off_c, 13, 44, 64
11, 78720, Note_on_c, 13, 41, 58
11, 78816, Note_off_c, 13, 41, 64
11, 78960, Note_on_c, 13, 46, 58
11, 79056, Note_off_c, 13, 46, 64
11, 79200, Note_on_c, 13, 39, 58
11, 79296, Note_off_c, 13, 39, 64
11, 79440, Note_on_c, 13, 44, 58
11, 79536, Note_off_c, 13, 44, 64
11, 79680, Note_on_c, 13, 46, 58
11, 80160, Note_off_c, 13, 46, 64
11, 80160, Note_on_c, 13, 51, 58
11, 80352, Note_off_c, 13, 51, 64
11, 80520, Note_on_c, 13, 58, 30
11, 80616, Note_off_c, 13, 58, 64
11, 80640, Note_on_c, 13, 51, 58
11, 80832, Note_off_c, 13, 51, 64
11, 81000, Note_on_c, 13, 46, 58
11, 81096, Note_off_c, 13, 46, 64
11, 81120, Note_on_c, 13, 39, 58
11, 81216, Note_off_c, 13, 39, 64
11, 82080, Note_on_c, 13, 44, 58
11, 82320, Note_off_c, 13, 44, 64
11, 82320, Note_on_c, 13, 49, 58
11, 82560, Note_off_c, 13, 49, 64
11, 82560, Note_on_c, 13, 44, 58
11, 82656, Note_off_c, 13, 44, 64
11, 83280, Note_on_c, 13, 63, 58
11, 83352, Note_off_c, 13, 63, 64
11, 83400, Note_on_c, 13, 63, 58
11, 83472, Note_off_c, 13, 63, 64
11, 83520, Note_on_c, 13, 63, 58
11, 83760, Note_off_c, 13, 63, 64
11, 83760, Note_on_c, 13, 51, 58
11, 83856, Note_off_c, 13, 51, 64
11, 84000, Note_on_c, 13, 44, 58
11, 84240, Note_off_c, 13, 44, 64
11, 84240, Note_on_c, 13, 49, 58
11, 84480, Note_off_c, 13, 49, 64
11, 84480, Note_on_c, 13, 44, 58
11, 84576, Note_off_c, 13, 44, 64
11, 85440, Note_on_c, 13, 53, 70
11, 85530, Note_off_c, 13, 53, 64
11, 85530, Note_on_c, 13, 52, 70
11, 85560, Note_off_c, 13, 52, 64
11, 85560, Note_on_c, 13, 55, 70
11, 85650, Note_off_c, 13, 55, 64
11, 85650, Note_on_c, 13, 53, 70
11, 85680, Note_off_c, 13, 53, 64
11, 85680, Note_on_c, 13, 58, 70
11, 85770, Note_off_c, 13, 58, 64
11, 85770, Note_on_c, 13, 56, 70
11, 85800, Note_off_c, 13, 56, 64
11, 85800, Note_on_c, 13, 59, 70
11, 85896, Note_off_c, 13, 59, 64
11, 85920, Note_on_c, 13, 58, 58
11, 86040, Note_off_c, 13, 58, 64
11, 86040, Note_on_c, 13, 56, 58
11, 86160, Note_off_c, 13, 56, 64
11, 86160, Note_on_c, 13, 55, 58
11, 86280, Note_off_c, 13, 55, 64
11, 86280, Note_on_c, 13, 56, 58
11, 86376, Note_off_c, 13, 56, 64
11, 86400, Note_on_c, 13, 49, 58
11, 86640, Note_off_c, 13, 49, 64
11, 86640, Note_on_c, 13, 51, 58
11, 86832, Note_off_c, 13, 51, 64
11, 86880, Note_on_c, 13, 53, 70
11, 86970, Note_off_c, 13, 53, 64
11, 86970, Note_on_c, 13, 52, 70
11, 87000, Note_off_c, 13, 52, 64
11, 87000, Note_on_c, 13, 55, 70
11, 87090, Note_off_c, 13, 55, 64
11, 87090, Note_on_c, 13, 53, 70
11, 87120, Note_off_c, 13, 53, 64
11, 87120, Note_on_c, 13, 56, 70
11, 87210, Note_off_c, 13, 56, 64
11, 87210, Note_on_c, 13, 55, 70
11, 87240, Note_off_c, 13, 55, 64
11, 87240, Note_on_c, 13, 58, 70
11, 87330, Note_off_c, 13, 58, 64
11, 87330, Note_on_c, 13, 56, 70
11, 87354, Note_off_c, 13, 56, 64
11, 87360, Note_on_c, 13, 59, 58
11, 87480, Note_off_c, 13, 59, 64
11, 87480, Note_on_c, 13, 58, 58
11, 87570, Note_off_c, 13, 58, 64
11, 87570, Note_on_c, 13, 56, 58
11, 87600, Note_off_c, 13, 56, 64
11, 87600, Note_on_c, 13, 55, 58
11, 87720, Note_off_c, 13, 55, 64
11, 87720, Note_on_c, 13, 56, 58
11, 87834, Note_off_c, 13, 56, 64
11, 87840, Note_on_c, 13, 49, 58
11, 87936, Note_off_c, 13, 49, 64
11, 88320, Note_on_c, 13, 51, 58
11, 88416, Note_off_c, 13, 51, 64
11, 88440, Note_on_c, 13, 51, 58
11, 88536, Note_off_c, 13, 51, 64
11, 88560, Note_on_c, 13, 51, 58
11, 88656, Note_off_c, 13, 51, 64
11, 88680, Note_on_c, 13, 51, 58
11, 88776, Note_off_c, 13, 51, 64
11, 88800, Note_on_c, 13, 44, 58
11, 88992, Note_off_c, 13, 44, 64
11, 89160, Note_on_c, 13, 51, 58
11, 89232, Note_off_c, 13, 51, 64
11, 89280, Note_on_c, 13, 56, 30
11, 89424, Note_off_c, 13, 56, 64
11, 89640, Note_on_c, 13, 51, 58
11, 89712, Note_off_c, 13, 51, 64
11, 89760, Note_on_c, 13, 56, 58
11, 89904, Note_off_c, 13, 56, 64
11, 90120, Note_on_c, 13, 51, 105
11, 90186, Note_off_c, 13, 51, 64
11, 90240, Note_on_c, 13, 44, 105
11, 90312, Note_off_c, 13, 44, 64
11, 90312, End_track
12, 0, Start_track
12, 0, Program_c, 14, 43
12, 0, Control_c, 14, 7, 96
12, 0, Control_c, 14, 91, 100
12, 0, Control_c, 14, 10, 94
12, 480, Note_on_c, 14, 32, 58
12, 720, Note_off_c, 14, 32, 64
12, 720, Note_on_c, 14, 37, 58
12, 960, Note_off_c, 14, 37, 64
12, 960, Note_on_c, 14, 32, 58
12, 1056, Note_off_c, 14, 32, 64
12, 2400, Note_on_c, 14, 32, 58
12, 2640, Note_off_c, 14, 32, 64
12, 2640, Note_on_c, 14, 37, 58
12, 2880, Note_off_c, 14, 37, 64
12, 2880, Note_on_c, 14, 32, 58
12, 2976, Note_off_c, 14, 32, 64
12, 4320, Note_on_c, 14, 32, 58
12, 4560, Note_off_c, 14, 32, 64
12, 4560, Note_on_c, 14, 37, 58
12, 4800, Note_off_c, 14, 37, 64
12, 4800, Note_on_c, 14, 32, 58
12, 4896, Note_off_c, 14, 32, 64
12, 6240, Note_on_c, 14, 32, 58
12, 6480, Note_off_c, 14, 32, 64
12, 6480, Note_on_c, 14, 37, 58
12, 6720, Note_off_c, 14, 37, 64
12, 6720, Note_on_c, 14, 32, 58
12, 6816, Note_off_c, 14, 32, 64
12, 8160, Note_on_c, 14, 39, 58
12, 8400, Note_off_c, 14, 39, 64
12, 8400, Note_on_c, 14, 41, 58
12, 8490, Note_off_c, 14, 41, 64
12, 8490, Note_on_c, 14, 43, 58
12, 8520, Note_off_c, 14, 43, 64
12, 8520, Note_on_c, 14, 44, 58
12, 8610, Note_off_c, 14, 44, 64
12, 8610, Note_on_c, 14, 41, 58
12, 8640, Note_off_c, 14, 41, 64
12, 8640, Note_on_c, 14, 39, 58
12, 8736, Note_off_c, 14, 39, 64
12, 9120, Note_on_c, 14, 41, 58
12, 9360, Note_off_c, 14, 41, 64
12, 9360, Note_on_c, 14, 43, 58
12, 9450, Note_off_c, 14, 43, 64
12, 9450, Note_on_c, 14, 44, 58
12, 9480, Note_off_c, 14, 44, 64
12, 9480, Note_on_c, 14, 46, 58
12, 9570, Note_off_c, 14, 46, 64
12, 9570, Note_on_c, 14, 43, 58
12, 9600, Note_off_c, 14, 43, 64
12, 9600, Note_on_c, 14, 41, 58
12, 9696, Note_off_c, 14, 41, 64
12, 10080, Note_on_c, 14, 43, 58
12, 10320, Note_off_c, 14, 43, 64
12, 10320, Note_on_c, 14, 44, 58
12, 10410, Note_off_c, 14, 44, 64
12, 10410, Note_on_c, 14, 46, 58
12, 10440, Note_off_c, 14, 46, 64
12, 10440, Note_on_c, 14, 48, 58
12, 10530, Note_off_c, 14, 48, 64
12, 10530, Note_on_c, 14, 44, 58
12, 10560, Note_off_c, 14, 44, 64
12, 10560, Note_on_c, 14, 43, 58
12, 10656, Note_off_c, 14, 43, 64
12, 13050, Note_on_c, 14, 41, 58
12, 13080, Note_off_c, 14, 41, 64
12, 13080, Note_on_c, 14, 39, 58
12, 13134, Note_off_c, 14, 39, 64
12, 13170, Note_on_c, 14, 37, 58
12, 13200, Note_off_c, 14, 37, 64
12, 13200, Note_on_c, 14, 36, 58
12, 13254, Note_off_c, 14, 36, 64
12, 13290, Note_on_c, 14, 34, 58
12, 13320, Note_off_c, 14, 34, 64
12, 13320, Note_on_c, 14, 32, 58
12, 13374, Note_off_c, 14, 32, 64
12, 13410, Note_on_c, 14, 31, 58
12, 13440, Note_off_c, 14, 31, 64
12, 13440, Note_on_c, 14, 32, 58
12, 13680, Note_off_c, 14, 32, 64
12, 13680, Note_on_c, 14, 37, 58
12, 13920, Note_off_c, 14, 37, 64
12, 13920, Note_on_c, 14, 32, 58
12, 14016, Note_off_c, 14, 32, 64
12, 15360, Note_on_c, 14, 32, 58
12, 15600, Note_off_c, 14, 32, 64
12, 15600, Note_on_c, 14, 37, 58
12, 15840, Note_off_c, 14, 37, 64
12, 15840, Note_on_c, 14, 32, 58
12, 15936, Note_off_c, 14, 32, 64
12, 17280, Note_on_c, 14, 39, 58
12, 17520, Note_off_c, 14, 39, 64
12, 17520, Note_on_c, 14, 41, 58
12, 17610, Note_off_c, 14, 41, 64
12, 17610, Note_on_c, 14, 43, 58
12, 17640, Note_off_c, 14, 43, 64
12, 17640, Note_on_c, 14, 44, 58
12, 17730, Note_off_c, 14, 44, 64
12, 17730, Note_on_c, 14, 41, 58
12, 17760, Note_off_c, 14, 41, 64
12, 17760, Note_on_c, 14, 39, 58
12, 17856, Note_off_c, 14, 39, 64
12, 18240, Note_on_c, 14, 41, 58
12, 18480, Note_off_c, 14, 41, 64
12, 18480, Note_on_c, 14, 43, 58
12, 18570, Note_off_c, 14, 43, 64
12, 18570, Note_on_c, 14, 44, 58
12, 18600, Note_off_c, 14, 44, 64
12, 18600, Note_on_c, 14, 46, 58
12, 18690, Note_off_c, 14, 46, 64
12, 18690, Note_on_c, 14, 43, 58
12, 18720, Note_off_c, 14, 43, 64
12, 18720, Note_on_c, 14, 41, 58
12, 18816, Note_off_c, 14, 41, 64
12, 19200, Note_on_c, 14, 43, 58
12, 19440, Note_off_c, 14, 43, 64
12, 19440, Note_on_c, 14, 44, 58
12, 19530, Note_off_c, 14, 44, 64
12, 19530, Note_on_c, 14, 46, 58
12, 19560, Note_off_c, 14, 46, 64
12, 19560, Note_on_c, 14, 48, 58
12, 19650, Note_off_c, 14, 48, 64
12, 19650, Note_on_c, 14, 44, 58
12, 19680, Note_off_c, 14, 44, 64
12, 19680, Note_on_c, 14, 43, 58
12, 19776, Note_off_c, 14, 43, 64
12, 22170, Note_on_c, 14, 41, 58
12, 22200, Note_off_c, 14, 41, 64
12, 22200, Note_on_c, 14, 39, 58
12, 22254, Note_off_c, 14, 39, 64
12, 22290, Note_on_c, 14, 37, 58
12, 22320, Note_off_c, 14, 37, 64
12, 22320, Note_on_c, 14, 36, 58
12, 22374, Note_off_c, 14, 36, 64
12, 22410, Note_on_c, 14, 34, 58
12, 22440, Note_off_c, 14, 34, 64
12, 22440, Note_on_c, 14, 32, 58
12, 22494, Note_off_c, 14, 32, 64
12, 22530, Note_on_c, 14, 31, 58
12, 22560, Note_off_c, 14, 31, 64
12, 22560, Note_on_c, 14, 32, 58
12, 22800, Note_off_c, 14, 32, 64
12, 22800, Note_on_c, 14, 37, 58
12, 23040, Note_off_c, 14, 37, 64
12, 23040, Note_on_c, 14, 32, 58
12, 23136, Note_off_c, 14, 32, 64
12, 24480, Note_on_c, 14, 32, 58
12, 24720, Note_off_c, 14, 32, 64
12, 24720, Note_on_c, 14, 37, 58
12, 24960, Note_off_c, 14, 37, 64
12, 24960, Note_on_c, 14, 32, 58
12, 25056, Note_off_c, 14, 32, 64
12, 27360, Note_on_c, 14, 29, 105
12, 27408, Note_off_c, 14, 29, 64
12, 27420, Note_on_c, 14, 41, 105
12, 27468, Note_off_c, 14, 41, 64
12, 27480, Note_on_c, 14, 41, 105
12, 27528, Note_off_c, 14, 41, 64
12, 27540, Note_on_c, 14, 41, 105
12, 27588, Note_off_c, 14, 41, 64
12, 27600, Note_on_c, 14, 41, 105
12, 27648, Note_off_c, 14, 41, 64
12, 27660, Note_on_c, 14, 41, 105
12, 27708, Note_off_c, 14, 41, 64
12, 27720, Note_on_c, 14, 41, 105
12, 27768, Note_off_c, 14, 41, 64
12, 27780, Note_on_c, 14, 41, 105
12, 27828, Note_off_c, 14, 41, 64
12, 27840, Note_on_c, 14, 29, 105
12, 27888, Note_off_c, 14, 29, 64
12, 27900, Note_on_c, 14, 41, 105
12, 27948, Note_off_c, 14, 41, 64
12, 27960, Note_on_c, 14, 41, 105
12, 28008, Note_off_c, 14, 41, 64
12, 28020, Note_on_c, 14, 41, 105
12, 28068, Note_off_c, 14, 41, 64
12, 28080, Note_on_c, 14, 41, 105
12, 28128, Note_off_c, 14, 41, 64
12, 28140, Note_on_c, 14, 41, 105
12, 28188, Note_off_c, 14, 41, 64
12, 28200, Note_on_c, 14, 41, 105
12, 28248, Note_off_c, 14, 41, 64
12, 28260, Note_on_c, 14, 41, 105
12, 28308, Note_off_c, 14, 41, 64
12, 28320, Note_on_c, 14, 29, 105
12, 28368, Note_off_c, 14, 29, 64
12, 28380, Note_on_c, 14, 41, 105
12, 28428, Note_off_c, 14, 41, 64
12, 28440, Note_on_c, 14, 41, 105
12, 28488, Note_off_c, 14, 41, 64
12, 28500, Note_on_c, 14, 41, 105
12, 28548, Note_off_c, 14, 41, 64
12, 28560, Note_on_c, 14, 41, 105
12, 28608, Note_off_c, 14, 41, 64
12, 28620, Note_on_c, 14, 41, 105
12, 28668, Note_off_c, 14, 41, 64
12, 28680, Note_on_c, 14, 41, 105
12, 28728, Note_off_c, 14, 41, 64
12, 28740, Note_on_c, 14, 41, 105
12, 28788, Note_off_c, 14, 41, 64
12, 28800, Note_on_c, 14, 29, 105
12, 28848, Note_off_c, 14, 29, 64
12, 28860, Note_on_c, 14, 41, 105
12, 28908, Note_off_c, 14, 41, 64
12, 28920, Note_on_c, 14, 41, 105
12, 28968, Note_off_c, 14, 41, 64
12, 28980, Note_on_c, 14, 41, 105
12, 29028, Note_off_c, 14, 41, 64
12, 29040, Note_on_c, 14, 41, 105
12, 29088, Note_off_c, 14, 41, 64
12, 29100, Note_on_c, 14, 41, 105
12, 29148, Note_off_c, 14, 41, 64
12, 29160, Note_on_c, 14, 41, 105
12, 29208, Note_off_c, 14, 41, 64
12, 29220, Note_on_c, 14, 41, 105
12, 29268, Note_off_c, 14, 41, 64
12, 29280, Note_on_c, 14, 30, 105
12, 29328, Note_off_c, 14, 30, 64
12, 29340, Note_on_c, 14, 42, 105
12, 29388, Note_off_c, 14, 42, 64
12, 29400, Note_on_c, 14, 42, 105
12, 29448, Note_off_c, 14, 42, 64
12, 29460, Note_on_c, 14, 42, 105
12, 29508, Note_off_c, 14, 42, 64
12, 29520, Note_on_c, 14, 42, 105
12, 29568, Note_off_c, 14, 42, 64
12, 29580, Note_on_c, 14, 42, 105
12, 29628, Note_off_c, 14, 42, 64
12, 29640, Note_on_c, 14, 42, 105
12, 29688, Note_off_c, 14, 42, 64
12, 29700, Note_on_c, 14, 42, 105
12, 29748, Note_off_c, 14, 42, 64
12, 29760, Note_on_c, 14, 35, 105
12, 29808, Note_off_c, 14, 35, 64
12, 29820, Note_on_c, 14, 47, 105
12, 29868, Note_off_c, 14, 47, 64
12, 29880, Note_on_c, 14, 47, 105
12, 29928, Note_off_c, 14, 47, 64
12, 29940, Note_on_c, 14, 47, 105
12, 29988, Note_off_c, 14, 47, 64
12, 30000, Note_on_c, 14, 47, 105
12, 30048, Note_off_c, 14, 47, 64
12, 30060, Note_on_c, 14, 47, 105
12, 30108, Note_off_c, 14, 47, 64
12, 30120, Note_on_c, 14, 47, 105
12, 30168, Note_off_c, 14, 47, 64
12, 30180, Note_on_c, 14, 47, 105
12, 30228, Note_off_c, 14, 47, 64
12, 30240, Note_on_c, 14, 34, 105
12, 30288, Note_off_c, 14, 34, 64
12, 30300, Note_on_c, 14, 46, 105
12, 30348, Note_off_c, 14, 46, 64
12, 30360, Note_on_c, 14, 46, 105
12, 30408, Note_off_c, 14, 46, 64
12, 30420, Note_on_c, 14, 46, 105
12, 30468, Note_off_c, 14, 46, 64
12, 30480, Note_on_c, 14, 34, 105
12, 30528, Note_off_c, 14, 34, 64
12, 30540, Note_on_c, 14, 46, 105
12, 30588, Note_off_c, 14, 46, 64
12, 30600, Note_on_c, 14, 46, 105
12, 30648, Note_off_c, 14, 46, 64
12, 30660, Note_on_c, 14, 46, 105
12, 30708, Note_off_c, 14, 46, 64
12, 30720, Note_on_c, 14, 34, 105
12, 30768, Note_off_c, 14, 34, 64
12, 30780, Note_on_c, 14, 46, 105
12, 30828, Note_off_c, 14, 46, 64
12, 30840, Note_on_c, 14, 46, 105
12, 30888, Note_off_c, 14, 46, 64
12, 30900, Note_on_c, 14, 46, 105
12, 30948, Note_off_c, 14, 46, 64
12, 30960, Note_on_c, 14, 34, 105
12, 31008, Note_off_c, 14, 34, 64
12, 31020, Note_on_c, 14, 46, 105
12, 31068, Note_off_c, 14, 46, 64
12, 31080, Note_on_c, 14, 46, 105
12, 31128, Note_off_c, 14, 46, 64
12, 31140, Note_on_c, 14, 46, 105
12, 31188, Note_off_c, 14, 46, 64
12, 31200, Note_on_c, 14, 34, 105
12, 31296, Note_off_c, 14, 34, 64
12, 32160, Note_on_c, 14, 34, 58
12, 32250, Note_off_c, 14, 34, 64
12, 32250, Note_on_c, 14, 33, 58
12, 32280, Note_off_c, 14, 33, 64
12, 32280, Note_on_c, 14, 38, 58
12, 32370, Note_off_c, 14, 38, 64
12, 32370, Note_on_c, 14, 36, 58
12, 32400, Note_off_c, 14, 36, 64
12, 32400, Note_on_c, 14, 39, 58
12, 32490, Note_off_c, 14, 39, 64
12, 32490, Note_on_c, 14, 38, 58
12, 32520, Note_off_c, 14, 38, 64
12, 32520, Note_on_c, 14, 41, 58
12, 32616, Note_off_c, 14, 41, 64
12, 33120, Note_on_c, 14, 34, 58
12, 33210, Note_off_c, 14, 34, 64
12, 33210, Note_on_c, 14, 33, 58
12, 33240, Note_off_c, 14, 33, 64
12, 33240, Note_on_c, 14, 39, 58
12, 33330, Note_off_c, 14, 39, 64
12, 33330, Note_on_c, 14, 38, 58
12, 33360, Note_off_c, 14, 38, 64
12, 33360, Note_on_c, 14, 41, 58
12, 33450, Note_off_c, 14, 41, 64
12, 33450, Note_on_c, 14, 39, 58
12, 33480, Note_off_c, 14, 39, 64
12, 33480, Note_on_c, 14, 43, 58
12, 33576, Note_off_c, 14, 43, 64
12, 34080, Note_on_c, 14, 34, 58
12, 34170, Note_off_c, 14, 34, 64
12, 34170, Note_on_c, 14, 33, 58
12, 34200, Note_off_c, 14, 33, 64
12, 34200, Note_on_c, 14, 41, 58
12, 34290, Note_off_c, 14, 41, 64
12, 34290, Note_on_c, 14, 39, 58
12, 34320, Note_off_c, 14, 39, 64
12, 34320, Note_on_c, 14, 43, 58
12, 34410, Note_off_c, 14, 43, 64
12, 34410, Note_on_c, 14, 41, 58
12, 34440, Note_off_c, 14, 41, 64
12, 34440, Note_on_c, 14, 44, 58
12, 34560, Note_off_c, 14, 44, 64
12, 34560, Note_on_c, 14, 43, 58
12, 34656, Note_off_c, 14, 43, 64
12, 35040, Note_on_c, 14, 40, 105
12, 35130, Note_off_c, 14, 40, 64
12, 35130, Note_on_c, 14, 38, 105
12, 35160, Note_off_c, 14, 38, 64
12, 35160, Note_on_c, 14, 41, 105
12, 35250, Note_off_c, 14, 41, 64
12, 35250, Note_on_c, 14, 40, 105
12, 35280, Note_off_c, 14, 40, 64
12, 35280, Note_on_c, 14, 43, 105
12, 35370, Note_off_c, 14, 43, 64
12, 35370, Note_on_c, 14, 41, 105
12, 35400, Note_off_c, 14, 41, 64
12, 35400, Note_on_c, 14, 44, 105
12, 35496, Note_off_c, 14, 44, 64
12, 35520, Note_on_c, 14, 38, 105
12, 35610, Note_off_c, 14, 38, 64
12, 35610, Note_on_c, 14, 36, 105
12, 35640, Note_off_c, 14, 36, 64
12, 35640, Note_on_c, 14, 39, 105
12, 35730, Note_off_c, 14, 39, 64
12, 35730, Note_on_c, 14, 38, 105
12, 35760, Note_off_c, 14, 38, 64
12, 35760, Note_on_c, 14, 41, 105
12, 35850, Note_off_c, 14, 41, 64
12, 35850, Note_on_c, 14, 39, 105
12, 35880, Note_off_c, 14, 39, 64
12, 35880, Note_on_c, 14, 43, 105
12, 35976, Note_off_c, 14, 43, 64
12, 36000, Note_on_c, 14, 36, 105
12, 36090, Note_off_c, 14, 36, 64
12, 36090, Note_on_c, 14, 35, 105
12, 36120, Note_off_c, 14, 35, 64
12, 36120, Note_on_c, 14, 38, 105
12, 36210, Note_off_c, 14, 38, 64
12, 36210, Note_on_c, 14, 36, 105
12, 36240, Note_off_c, 14, 36, 64
12, 36240, Note_on_c, 14, 39, 105
12, 36330, Note_off_c, 14, 39, 64
12, 36330, Note_on_c, 14, 38, 105
12, 36360, Note_off_c, 14, 38, 64
12, 36360, Note_on_c, 14, 41, 105
12, 36456, Note_off_c, 14, 41, 64
12, 36480, Note_on_c, 14, 35, 105
12, 36570, Note_off_c, 14, 35, 64
12, 36570, Note_on_c, 14, 33, 105
12, 36600, Note_off_c, 14, 33, 64
12, 36600, Note_on_c, 14, 36, 105
12, 36690, Note_off_c, 14, 36, 64
12, 36690, Note_on_c, 14, 35, 105
12, 36720, Note_off_c, 14, 35, 64
12, 36720, Note_on_c, 14, 38, 105
12, 36810, Note_off_c, 14, 38, 64
12, 36810, Note_on_c, 14, 36, 105
12, 36840, Note_off_c, 14, 36, 64
12, 36840, Note_on_c, 14, 39, 105
12, 36936, Note_off_c, 14, 39, 64
12, 36960, Note_on_c, 14, 32, 58
12, 37056, Note_off_c, 14, 32, 64
12, 37440, Note_on_c, 14, 44, 58
12, 37536, Note_off_c, 14, 44, 64
12, 37920, Note_on_c, 14, 45, 58
12, 38016, Note_off_c, 14, 45, 64
12, 38400, Note_on_c, 14, 46, 58
12, 38496, Note_off_c, 14, 46, 64
12, 38640, Note_on_c, 14, 34, 58
12, 38736, Note_off_c, 14, 34, 64
12, 38880, Note_on_c, 14, 39, 58
12, 40704, Note_off_c, 14, 39, 64
12, 40800, Note_on_c, 14, 39, 105
12, 40848, Note_off_c, 14, 39, 64
12, 40860, Note_on_c, 14, 39, 105
12, 40908, Note_off_c, 14, 39, 64
12, 40920, Note_on_c, 14, 39, 105
12, 40968, Note_off_c, 14, 39, 64
12, 40980, Note_on_c, 14, 39, 105
12, 41028, Note_off_c, 14, 39, 64
12, 41040, Note_on_c, 14, 32, 105
12, 41088, Note_off_c, 14, 32, 64
12, 41100, Note_on_c, 14, 44, 105
12, 41148, Note_off_c, 14, 44, 64
12, 41160, Note_on_c, 14, 44, 105
12, 41208, Note_off_c, 14, 44, 64
12, 41220, Note_on_c, 14, 44, 105
12, 41268, Note_off_c, 14, 44, 64
12, 41280, Note_on_c, 14, 34, 105
12, 41328, Note_off_c, 14, 34, 64
12, 41340, Note_on_c, 14, 46, 105
12, 41388, Note_off_c, 14, 46, 64
12, 41400, Note_on_c, 14, 46, 105
12, 41448, Note_off_c, 14, 46, 64
12, 41460, Note_on_c, 14, 46, 105
12, 41508, Note_off_c, 14, 46, 64
12, 41520, Note_on_c, 14, 46, 105
12, 41568, Note_off_c, 14, 46, 64
12, 41580, Note_on_c, 14, 46, 105
12, 41628, Note_off_c, 14, 46, 64
12, 41640, Note_on_c, 14, 34, 105
12, 41688, Note_off_c, 14, 34, 64
12, 41700, Note_on_c, 14, 34, 105
12, 41748, Note_off_c, 14, 34, 64
12, 41760, Note_on_c, 14, 39, 58
12, 44256, Note_off_c, 14, 39, 64
12, 44400, Note_on_c, 14, 39, 58
12, 44496, Note_off_c, 14, 39, 64
12, 44640, Note_on_c, 14, 39, 58
12, 44736, Note_off_c, 14, 39, 64
12, 44880, Note_on_c, 14, 39, 58
12, 44976, Note_off_c, 14, 39, 64
12, 45120, Note_on_c, 14, 39, 58
12, 45216, Note_off_c, 14, 39, 64
12, 45360, Note_on_c, 14, 39, 58
12, 45456, Note_off_c, 14, 39, 64
12, 45600, Note_on_c, 14, 32, 58
12, 45840, Note_off_c, 14, 32, 64
12, 45840, Note_on_c, 14, 37, 58
12, 46080, Note_off_c, 14, 37, 64
12, 46080, Note_on_c, 14, 32, 58
12, 46176, Note_off_c, 14, 32, 64
12, 47520, Note_on_c, 14, 32, 58
12, 47760, Note_off_c, 14, 32, 64
12, 47760, Note_on_c, 14, 37, 58
12, 48000, Note_off_c, 14, 37, 64
12, 48000, Note_on_c, 14, 32, 58
12, 48096, Note_off_c, 14, 32, 64
12, 49440, Note_on_c, 14, 39, 58
12, 49680, Note_off_c, 14, 39, 64
12, 49680, Note_on_c, 14, 41, 58
12, 49770, Note_off_c, 14, 41, 64
12, 49770, Note_on_c, 14, 43, 58
12, 49800, Note_off_c, 14, 43, 64
12, 49800, Note_on_c, 14, 44, 58
12, 49890, Note_off_c, 14, 44, 64
12, 49890, Note_on_c, 14, 41, 58
12, 49920, Note_off_c, 14, 41, 64
12, 49920, Note_on_c, 14, 39, 58
12, 50016, Note_off_c, 14, 39, 64
12, 50400, Note_on_c, 14, 41, 58
12, 50640, Note_off_c, 14, 41, 64
12, 50640, Note_on_c, 14, 43, 58
12, 50730, Note_off_c, 14, 43, 64
12, 50730, Note_on_c, 14, 44, 58
12, 50760, Note_off_c, 14, 44, 64
12, 50760, Note_on_c, 14, 46, 58
12, 50850, Note_off_c, 14, 46, 64
12, 50850, Note_on_c, 14, 43, 58
12, 50880, Note_off_c, 14, 43, 64
12, 50880, Note_on_c, 14, 41, 58
12, 50976, Note_off_c, 14, 41, 64
12, 51360, Note_on_c, 14, 43, 58
12, 51600, Note_off_c, 14, 43, 64
12, 51600, Note_on_c, 14, 44, 58
12, 51690, Note_off_c, 14, 44, 64
12, 51690, Note_on_c, 14, 46, 58
12, 51720, Note_off_c, 14, 46, 64
12, 51720, Note_on_c, 14, 48, 58
12, 51810, Note_off_c, 14, 48, 64
12, 51810, Note_on_c, 14, 44, 58
12, 51840, Note_off_c, 14, 44, 64
12, 51840, Note_on_c, 14, 43, 58
12, 51936, Note_off_c, 14, 43, 64
12, 54330, Note_on_c, 14, 41, 58
12, 54360, Note_off_c, 14, 41, 64
12, 54360, Note_on_c, 14, 39, 58
12, 54414, Note_off_c, 14, 39, 64
12, 54450, Note_on_c, 14, 37, 58
12, 54480, Note_off_c, 14, 37, 64
12, 54480, Note_on_c, 14, 36, 58
12, 54534, Note_off_c, 14, 36, 64
12, 54570, Note_on_c, 14, 34, 58
12, 54600, Note_off_c, 14, 34, 64
12, 54600, Note_on_c, 14, 32, 58
12, 54654, Note_off_c, 14, 32, 64
12, 54690, Note_on_c, 14, 31, 58
12, 54720, Note_off_c, 14, 31, 64
12, 54720, Note_on_c, 14, 32, 58
12, 54960, Note_off_c, 14, 32, 64
12, 54960, Note_on_c, 14, 37, 58
12, 55200, Note_off_c, 14, 37, 64
12, 55200, Note_on_c, 14, 32, 58
12, 55296, Note_off_c, 14, 32, 64
12, 56640, Note_on_c, 14, 32, 58
12, 56880, Note_off_c, 14, 32, 64
12, 56880, Note_on_c, 14, 37, 58
12, 57120, Note_off_c, 14, 37, 64
12, 57120, Note_on_c, 14, 32, 58
12, 57216, Note_off_c, 14, 32, 64
12, 57600, Note_on_c, 14, 42, 58
12, 57840, Note_off_c, 14, 42, 64
12, 57840, Note_on_c, 14, 40, 58
12, 58032, Note_off_c, 14, 40, 64
12, 58080, Note_on_c, 14, 39, 58
12, 58152, Note_off_c, 14, 39, 64
12, 58200, Note_on_c, 14, 39, 58
12, 58272, Note_off_c, 14, 39, 64
12, 58320, Note_on_c, 14, 40, 58
12, 58392, Note_off_c, 14, 40, 64
12, 58440, Note_on_c, 14, 40, 58
12, 58512, Note_off_c, 14, 40, 64
12, 58560, Note_on_c, 14, 42, 58
12, 58632, Note_off_c, 14, 42, 64
12, 58680, Note_on_c, 14, 42, 58
12, 58752, Note_off_c, 14, 42, 64
12, 58800, Note_on_c, 14, 30, 58
12, 58872, Note_off_c, 14, 30, 64
12, 58920, Note_on_c, 14, 30, 58
12, 58992, Note_off_c, 14, 30, 64
12, 59040, Note_on_c, 14, 35, 105
12, 59088, Note_off_c, 14, 35, 64
12, 59100, Note_on_c, 14, 47, 105
12, 59148, Note_off_c, 14, 47, 64
12, 59160, Note_on_c, 14, 47, 105
12, 59208, Note_off_c, 14, 47, 64
12, 59220, Note_on_c, 14, 47, 105
12, 59268, Note_off_c, 14, 47, 64
12, 59280, Note_on_c, 14, 47, 105
12, 59328, Note_off_c, 14, 47, 64
12, 59340, Note_on_c, 14, 47, 105
12, 59388, Note_off_c, 14, 47, 64
12, 59400, Note_on_c, 14, 47, 105
12, 59448, Note_off_c, 14, 47, 64
12, 59460, Note_on_c, 14, 47, 105
12, 59508, Note_off_c, 14, 47, 64
12, 59520, Note_on_c, 14, 35, 105
12, 59568, Note_off_c, 14, 35, 64
12, 59580, Note_on_c, 14, 47, 105
12, 59628, Note_off_c, 14, 47, 64
12, 59640, Note_on_c, 14, 47, 105
12, 59688, Note_off_c, 14, 47, 64
12, 59700, Note_on_c, 14, 47, 105
12, 59748, Note_off_c, 14, 47, 64
12, 59760, Note_on_c, 14, 47, 105
12, 59808, Note_off_c, 14, 47, 64
12, 59820, Note_on_c, 14, 47, 105
12, 59868, Note_off_c, 14, 47, 64
12, 59880, Note_on_c, 14, 47, 105
12, 59928, Note_off_c, 14, 47, 64
12, 59940, Note_on_c, 14, 47, 105
12, 59988, Note_off_c, 14, 47, 64
12, 60000, Note_on_c, 14, 35, 105
12, 60048, Note_off_c, 14, 35, 64
12, 60060, Note_on_c, 14, 47, 105
12, 60108, Note_off_c, 14, 47, 64
12, 60120, Note_on_c, 14, 47, 105
12, 60168, Note_off_c, 14, 47, 64
12, 60180, Note_on_c, 14, 47, 105
12, 60228, Note_off_c, 14, 47, 64
12, 60240, Note_on_c, 14, 47, 105
12, 60288, Note_off_c, 14, 47, 64
12, 60300, Note_on_c, 14, 47, 105
12, 60348, Note_off_c, 14, 47, 64
12, 60360, Note_on_c, 14, 47, 105
12, 60408, Note_off_c, 14, 47, 64
12, 60420, Note_on_c, 14, 47, 105
12, 60468, Note_off_c, 14, 47, 64
12, 60480, Note_on_c, 14, 35, 105
12, 60528, Note_off_c, 14, 35, 64
12, 60540, Note_on_c, 14, 47, 105
12, 60588, Note_off_c, 14, 47, 64
12, 60600, Note_on_c, 14, 47, 105
12, 60648, Note_off_c, 14, 47, 64
12, 60660, Note_on_c, 14, 47, 105
12, 60708, Note_off_c, 14, 47, 64
12, 60720, Note_on_c, 14, 47, 105
12, 60768, Note_off_c, 14, 47, 64
12, 60780, Note_on_c, 14, 47, 105
12, 60828, Note_off_c, 14, 47, 64
12, 60840, Note_on_c, 14, 47, 105
12, 60888, Note_off_c, 14, 47, 64
12, 60900, Note_on_c, 14, 47, 105
12, 60948, Note_off_c, 14, 47, 64
12, 60960, Note_on_c, 14, 36, 105
12, 61008, Note_off_c, 14, 36, 64
12, 61020, Note_on_c, 14, 48, 105
12, 61068, Note_off_c, 14, 48, 64
12, 61080, Note_on_c, 14, 48, 105
12, 61128, Note_off_c, 14, 48, 64
12, 61140, Note_on_c, 14, 48, 105
12, 61188, Note_off_c, 14, 48, 64
12, 61200, Note_on_c, 14, 48, 105
12, 61248, Note_off_c, 14, 48, 64
12, 61260, Note_on_c, 14, 48, 105
12, 61308, Note_off_c, 14, 48, 64
12, 61320, Note_on_c, 14, 48, 105
12, 61368, Note_off_c, 14, 48, 64
12, 61380, Note_on_c, 14, 48, 105
12, 61428, Note_off_c, 14, 48, 64
12, 61440, Note_on_c, 14, 37, 105
12, 61488, Note_off_c, 14, 37, 64
12, 61500, Note_on_c, 14, 49, 105
12, 61548, Note_off_c, 14, 49, 64
12, 61560, Note_on_c, 14, 49, 105
12, 61608, Note_off_c, 14, 49, 64
12, 61620, Note_on_c, 14, 49, 105
12, 61668, Note_off_c, 14, 49, 64
12, 61680, Note_on_c, 14, 49, 105
12, 61728, Note_off_c, 14, 49, 64
12, 61740, Note_on_c, 14, 49, 105
12, 61788, Note_off_c, 14, 49, 64
12, 61800, Note_on_c, 14, 49, 105
12, 61848, Note_off_c, 14, 49, 64
12, 61860, Note_on_c, 14, 49, 105
12, 61908, Note_off_c, 14, 49, 64
12, 61920, Note_on_c, 14, 37, 105
12, 61968, Note_off_c, 14, 37, 64
12, 61980, Note_on_c, 14, 49, 105
12, 62028, Note_off_c, 14, 49, 64
12, 62040, Note_on_c, 14, 49, 105
12, 62088, Note_off_c, 14, 49, 64
12, 62100, Note_on_c, 14, 49, 105
12, 62148, Note_off_c, 14, 49, 64
12, 62160, Note_on_c, 14, 49, 105
12, 62208, Note_off_c, 14, 49, 64
12, 62220, Note_on_c, 14, 49, 105
12, 62268, Note_off_c, 14, 49, 64
12, 62280, Note_on_c, 14, 49, 105
12, 62328, Note_off_c, 14, 49, 64
12, 62340, Note_on_c, 14, 49, 105
12, 62388, Note_off_c, 14, 49, 64
12, 62400, Note_on_c, 14, 35, 105
12, 62448, Note_off_c, 14, 35, 64
12, 62460, Note_on_c, 14, 47, 105
12, 62508, Note_off_c, 14, 47, 64
12, 62520, Note_on_c, 14, 47, 105
12, 62568, Note_off_c, 14, 47, 64
12, 62580, Note_on_c, 14, 47, 105
12, 62628, Note_off_c, 14, 47, 64
12, 62640, Note_on_c, 14, 47, 105
12, 62688, Note_off_c, 14, 47, 64
12, 62700, Note_on_c, 14, 47, 105
12, 62748, Note_off_c, 14, 47, 64
12, 62760, Note_on_c, 14, 47, 105
12, 62808, Note_off_c, 14, 47, 64
12, 62820, Note_on_c, 14, 47, 105
12, 62868, Note_off_c, 14, 47, 64
12, 62880, Note_on_c, 14, 28, 105
12, 62928, Note_off_c, 14, 28, 64
12, 62940, Note_on_c, 14, 40, 105
12, 62988, Note_off_c, 14, 40, 64
12, 63000, Note_on_c, 14, 40, 105
12, 63048, Note_off_c, 14, 40, 64
12, 63060, Note_on_c, 14, 40, 105
12, 63108, Note_off_c, 14, 40, 64
12, 63120, Note_on_c, 14, 40, 105
12, 63168, Note_off_c, 14, 40, 64
12, 63180, Note_on_c, 14, 40, 105
12, 63228, Note_off_c, 14, 40, 64
12, 63240, Note_on_c, 14, 40, 105
12, 63288, Note_off_c, 14, 40, 64
12, 63300, Note_on_c, 14, 40, 105
12, 63348, Note_off_c, 14, 40, 64
12, 63360, Note_on_c, 14, 29, 105
12, 63408, Note_off_c, 14, 29, 64
12, 63420, Note_on_c, 14, 41, 105
12, 63468, Note_off_c, 14, 41, 64
12, 63480, Note_on_c, 14, 41, 105
12, 63528, Note_off_c, 14, 41, 64
12, 63540, Note_on_c, 14, 41, 105
12, 63588, Note_off_c, 14, 41, 64
12, 63600, Note_on_c, 14, 28, 105
12, 63648, Note_off_c, 14, 28, 64
12, 63660, Note_on_c, 14, 40, 105
12, 63708, Note_off_c, 14, 40, 64
12, 63720, Note_on_c, 14, 40, 105
12, 63768, Note_off_c, 14, 40, 64
12, 63780, Note_on_c, 14, 40, 105
12, 63828, Note_off_c, 14, 40, 64
12, 63840, Note_on_c, 14, 39, 105
12, 63888, Note_off_c, 14, 39, 64
12, 63900, Note_on_c, 14, 39, 105
12, 63948, Note_off_c, 14, 39, 64
12, 63960, Note_on_c, 14, 39, 105
12, 64008, Note_off_c, 14, 39, 64
12, 64020, Note_on_c, 14, 39, 105
12, 64068, Note_off_c, 14, 39, 64
12, 64080, Note_on_c, 14, 39, 105
12, 64128, Note_off_c, 14, 39, 64
12, 64140, Note_on_c, 14, 39, 105
12, 64188, Note_off_c, 14, 39, 64
12, 64200, Note_on_c, 14, 39, 105
12, 64248, Note_off_c, 14, 39, 64
12, 64260, Note_on_c, 14, 39, 105
12, 64308, Note_off_c, 14, 39, 64
12, 64320, Note_on_c, 14, 39, 105
12, 64368, Note_off_c, 14, 39, 64
12, 64380, Note_on_c, 14, 39, 105
12, 64428, Note_off_c, 14, 39, 64
12, 64440, Note_on_c, 14, 39, 105
12, 64488, Note_off_c, 14, 39, 64
12, 64500, Note_on_c, 14, 39, 105
12, 64548, Note_off_c, 14, 39, 64
12, 64560, Note_on_c, 14, 39, 105
12, 64608, Note_off_c, 14, 39, 64
12, 64620, Note_on_c, 14, 39, 105
12, 64668, Note_off_c, 14, 39, 64
12, 64680, Note_on_c, 14, 39, 105
12, 64728, Note_off_c, 14, 39, 64
12, 64740, Note_on_c, 14, 39, 105
12, 64788, Note_off_c, 14, 39, 64
12, 64800, Note_on_c, 14, 39, 105
12, 64896, Note_off_c, 14, 39, 64
12, 65760, Note_on_c, 14, 39, 58
12, 65850, Note_off_c, 14, 39, 64
12, 65850, Note_on_c, 14, 38, 58
12, 65880, Note_off_c, 14, 38, 64
12, 65880, Note_on_c, 14, 43, 58
12, 65970, Note_off_c, 14, 43, 64
12, 65970, Note_on_c, 14, 41, 58
12, 66000, Note_off_c, 14, 41, 64
12, 66000, Note_on_c, 14, 44, 58
12, 66090, Note_off_c, 14, 44, 64
12, 66090, Note_on_c, 14, 43, 58
12, 66120, Note_off_c, 14, 43, 64
12, 66120, Note_on_c, 14, 46, 58
12, 66240, Note_off_c, 14, 46, 64
12, 66720, Note_on_c, 14, 39, 58
12, 66810, Note_off_c, 14, 39, 64
12, 66810, Note_on_c, 14, 38, 58
12, 66840, Note_off_c, 14, 38, 64
12, 66840, Note_on_c, 14, 44, 58
12, 66930, Note_off_c, 14, 44, 64
12, 66930, Note_on_c, 14, 43, 58
12, 66960, Note_off_c, 14, 43, 64
12, 66960, Note_on_c, 14, 46, 58
12, 67050, Note_off_c, 14, 46, 64
12, 67050, Note_on_c, 14, 44, 58
12, 67080, Note_off_c, 14, 44, 64
12, 67080, Note_on_c, 14, 48, 58
12, 67200, Note_off_c, 14, 48, 64
12, 67680, Note_on_c, 14, 39, 58
12, 67770, Note_off_c, 14, 39, 64
12, 67770, Note_on_c, 14, 38, 58
12, 67800, Note_off_c, 14, 38, 64
12, 67800, Note_on_c, 14, 46, 58
12, 67890, Note_off_c, 14, 46, 64
12, 67890, Note_on_c, 14, 44, 58
12, 67920, Note_off_c, 14, 44, 64
12, 67920, Note_on_c, 14, 48, 58
12, 68010, Note_off_c, 14, 48, 64
12, 68010, Note_on_c, 14, 46, 58
12, 68040, Note_off_c, 14, 46, 64
12, 68040, Note_on_c, 14, 49, 58
12, 68160, Note_off_c, 14, 49, 64
12, 68160, Note_on_c, 14, 48, 58
12, 68256, Note_off_c, 14, 48, 64
12, 68640, Note_on_c, 14, 45, 105
12, 68730, Note_off_c, 14, 45, 64
12, 68730, Note_on_c, 14, 43, 105
12, 68760, Note_off_c, 14, 43, 64
12, 68760, Note_on_c, 14, 46, 105
12, 68850, Note_off_c, 14, 46, 64
12, 68850, Note_on_c, 14, 45, 105
12, 68880, Note_off_c, 14, 45, 64
12, 68880, Note_on_c, 14, 48, 105
12, 68970, Note_off_c, 14, 48, 64
12, 68970, Note_on_c, 14, 46, 105
12, 69000, Note_off_c, 14, 46, 64
12, 69000, Note_on_c, 14, 49, 105
12, 69096, Note_off_c, 14, 49, 64
12, 69120, Note_on_c, 14, 43, 105
12, 69210, Note_off_c, 14, 43, 64
12, 69210, Note_on_c, 14, 41, 105
12, 69240, Note_off_c, 14, 41, 64
12, 69240, Note_on_c, 14, 44, 105
12, 69330, Note_off_c, 14, 44, 64
12, 69330, Note_on_c, 14, 43, 105
12, 69360, Note_off_c, 14, 43, 64
12, 69360, Note_on_c, 14, 46, 105
12, 69450, Note_off_c, 14, 46, 64
12, 69450, Note_on_c, 14, 44, 105
12, 69480, Note_off_c, 14, 44, 64
12, 69480, Note_on_c, 14, 48, 105
12, 69576, Note_off_c, 14, 48, 64
12, 69600, Note_on_c, 14, 41, 105
12, 69690, Note_off_c, 14, 41, 64
12, 69690, Note_on_c, 14, 40, 105
12, 69720, Note_off_c, 14, 40, 64
12, 69720, Note_on_c, 14, 43, 105
12, 69810, Note_off_c, 14, 43, 64
12, 69810, Note_on_c, 14, 41, 105
12, 69840, Note_off_c, 14, 41, 64
12, 69840, Note_on_c, 14, 44, 105
12, 69930, Note_off_c, 14, 44, 64
12, 69930, Note_on_c, 14, 43, 105
12, 69960, Note_off_c, 14, 43, 64
12, 69960, Note_on_c, 14, 46, 105
12, 70056, Note_off_c, 14, 46, 64
12, 70080, Note_on_c, 14, 40, 105
12, 70170, Note_off_c, 14, 40, 64
12, 70170, Note_on_c, 14, 38, 105
12, 70200, Note_off_c, 14, 38, 64
12, 70200, Note_on_c, 14, 41, 105
12, 70290, Note_off_c, 14, 41, 64
12, 70290, Note_on_c, 14, 40, 105
12, 70320, Note_off_c, 14, 40, 64
12, 70320, Note_on_c, 14, 43, 105
12, 70410, Note_off_c, 14, 43, 64
12, 70410, Note_on_c, 14, 41, 105
12, 70440, Note_off_c, 14, 41, 64
12, 70440, Note_on_c, 14, 44, 105
12, 70536, Note_off_c, 14, 44, 64
12, 70560, Note_on_c, 14, 37, 58
12, 70656, Note_off_c, 14, 37, 64
12, 71040, Note_on_c, 14, 37, 58
12, 71136, Note_off_c, 14, 37, 64
12, 71520, Note_on_c, 14, 39, 58
12, 71616, Note_off_c, 14, 39, 64
12, 71760, Note_on_c, 14, 39, 58
12, 71856, Note_off_c, 14, 39, 64
12, 72000, Note_on_c, 14, 41, 58
12, 72096, Note_off_c, 14, 41, 64
12, 72240, Note_on_c, 14, 41, 58
12, 72336, Note_off_c, 14, 41, 64
12, 72480, Note_on_c, 14, 39, 58
12, 72576, Note_off_c, 14, 39, 64
12, 72960, Note_on_c, 14, 39, 58
12, 73056, Note_off_c, 14, 39, 64
12, 73200, Note_on_c, 14, 39, 58
12, 73296, Note_off_c, 14, 39, 64
12, 73440, Note_on_c, 14, 32, 58
12, 75336, Note_off_c, 14, 32, 64
12, 75360, Note_on_c, 14, 32, 105
12, 75408, Note_off_c, 14, 32, 64
12, 75420, Note_on_c, 14, 44, 105
12, 75468, Note_off_c, 14, 44, 64
12, 75480, Note_on_c, 14, 44, 105
12, 75528, Note_off_c, 14, 44, 64
12, 75540, Note_on_c, 14, 44, 105
12, 75588, Note_off_c, 14, 44, 64
12, 75600, Note_on_c, 14, 37, 105
12, 75648, Note_off_c, 14, 37, 64
12, 75660, Note_on_c, 14, 49, 105
12, 75708, Note_off_c, 14, 49, 64
12, 75720, Note_on_c, 14, 49, 105
12, 75768, Note_off_c, 14, 49, 64
12, 75780, Note_on_c, 14, 49, 105
12, 75828, Note_off_c, 14, 49, 64
12, 75840, Note_on_c, 14, 39, 105
12, 75888, Note_off_c, 14, 39, 64
12, 75900, Note_on_c, 14, 51, 105
12, 75948, Note_off_c, 14, 51, 64
12, 75960, Note_on_c, 14, 51, 105
12, 76008, Note_off_c, 14, 51, 64
12, 76020, Note_on_c, 14, 51, 105
12, 76068, Note_off_c, 14, 51, 64
12, 76080, Note_on_c, 14, 51, 105
12, 76128, Note_off_c, 14, 51, 64
12, 76140, Note_on_c, 14, 51, 105
12, 76188, Note_off_c, 14, 51, 64
12, 76200, Note_on_c, 14, 39, 105
12, 76248, Note_off_c, 14, 39, 64
12, 76260, Note_on_c, 14, 39, 105
12, 76308, Note_off_c, 14, 39, 64
12, 76320, Note_on_c, 14, 32, 58
12, 78624, Note_off_c, 14, 32, 64
12, 78720, Note_on_c, 14, 29, 58
12, 78816, Note_off_c, 14, 29, 64
12, 78960, Note_on_c, 14, 34, 58
12, 79056, Note_off_c, 14, 34, 64
12, 79200, Note_on_c, 14, 39, 58
12, 79296, Note_off_c, 14, 39, 64
12, 79440, Note_on_c, 14, 32, 58
12, 79536, Note_off_c, 14, 32, 64
12, 79680, Note_on_c, 14, 34, 58
12, 80160, Note_off_c, 14, 34, 64
12, 80160, Note_on_c, 14, 39, 58
12, 80352, Note_off_c, 14, 39, 64
12, 80520, Note_on_c, 14, 46, 58
12, 80616, Note_off_c, 14, 46, 64
12, 80640, Note_on_c, 14, 39, 58
12, 80832, Note_off_c, 14, 39, 64
12, 81000, Note_on_c, 14, 34, 58
12, 81096, Note_off_c, 14, 34, 64
12, 81120, Note_on_c, 14, 39, 58
12, 81216, Note_off_c, 14, 39, 64
12, 82080, Note_on_c, 14, 32, 58
12, 82320, Note_off_c, 14, 32, 64
12, 82320, Note_on_c, 14, 37, 58
12, 82560, Note_off_c, 14, 37, 64
12, 82560, Note_on_c, 14, 32, 58
12, 82656, Note_off_c, 14, 32, 64
12, 84000, Note_on_c, 14, 32, 58
12, 84240, Note_off_c, 14, 32, 64
12, 84240, Note_on_c, 14, 37, 58
12, 84480, Note_off_c, 14, 37, 64
12, 84480, Note_on_c, 14, 32, 58
12, 84576, Note_off_c, 14, 32, 64
12, 85440, Note_on_c, 14, 41, 70
12, 85530, Note_off_c, 14, 41, 64
12, 85530, Note_on_c, 14, 40, 70
12, 85560, Note_off_c, 14, 40, 64
12, 85560, Note_on_c, 14, 43, 70
12, 85650, Note_off_c, 14, 43, 64
12, 85650, Note_on_c, 14, 41, 70
12, 85680, Note_off_c, 14, 41, 64
12, 85680, Note_on_c, 14, 46, 70
12, 85770, Note_off_c, 14, 46, 64
12, 85770, Note_on_c, 14, 44, 70
12, 85800, Note_off_c, 14, 44, 64
12, 85800, Note_on_c, 14, 47, 70
12, 85896, Note_off_c, 14, 47, 64
12, 85920, Note_on_c, 14, 46, 58
12, 86040, Note_off_c, 14, 46, 64
12, 86040, Note_on_c, 14, 44, 58
12, 86160, Note_off_c, 14, 44, 64
12, 86160, Note_on_c, 14, 43, 58
12, 86280, Note_off_c, 14, 43, 64
12, 86280, Note_on_c, 14, 44, 58
12, 86376, Note_off_c, 14, 44, 64
12, 86400, Note_on_c, 14, 37, 58
12, 86640, Note_off_c, 14, 37, 64
12, 86640, Note_on_c, 14, 39, 58
12, 86832, Note_off_c, 14, 39, 64
12, 86880, Note_on_c, 14, 41, 70
12, 86970, Note_off_c, 14, 41, 64
12, 86970, Note_on_c, 14, 40, 70
12, 87000, Note_off_c, 14, 40, 64
12, 87000, Note_on_c, 14, 43, 70
12, 87090, Note_off_c, 14, 43, 64
12, 87090, Note_on_c, 14, 41, 70
12, 87120, Note_off_c, 14, 41, 64
12, 87120, Note_on_c, 14, 44, 70
12, 87210, Note_off_c, 14, 44, 64
12, 87210, Note_on_c, 14, 43, 70
12, 87240, Note_off_c, 14, 43, 64
12, 87240, Note_on_c, 14, 46, 70
12, 87330, Note_off_c, 14, 46, 64
12, 87330, Note_on_c, 14, 44, 70
12, 87354, Note_off_c, 14, 44, 64
12, 87360, Note_on_c, 14, 47, 58
12, 87480, Note_off_c, 14, 47, 64
12, 87480, Note_on_c, 14, 46, 58
12, 87570, Note_off_c, 14, 46, 64
12, 87570, Note_on_c, 14, 44, 58
12, 87600, Note_off_c, 14, 44, 64
12, 87600, Note_on_c, 14, 43, 58
12, 87720, Note_off_c, 14, 43, 64
12, 87720, Note_on_c, 14, 44, 58
12, 87834, Note_off_c, 14, 44, 64
12, 87840, Note_on_c, 14, 37, 58
12, 87936, Note_off_c, 14, 37, 64
12, 88320, Note_on_c, 14, 39, 58
12, 88416, Note_off_c, 14, 39, 64
12, 88440, Note_on_c, 14, 39, 58
12, 88536, Note_off_c, 14, 39, 64
12, 88560, Note_on_c, 14, 39, 58
12, 88656, Note_off_c, 14, 39, 64
12, 88680, Note_on_c, 14, 39, 58
12, 88776, Note_off_c, 14, 39, 64
12, 88800, Note_on_c, 14, 32, 58
12, 88992, Note_off_c, 14, 32, 64
12, 89160, Note_on_c, 14, 39, 58
12, 89232, Note_off_c, 14, 39, 64
12, 89280, Note_on_c, 14, 44, 58
12, 89424, Note_off_c, 14, 44, 64
12, 89640, Note_on_c, 14, 39, 58
12, 89712, Note_off_c, 14, 39, 64
12, 89760, Note_on_c, 14, 44, 58
12, 89904, Note_off_c, 14, 44, 64
12, 90120, Note_on_c, 14, 39, 105
12, 90186, Note_off_c, 14, 39, 64
12, 90240, Note_on_c, 14, 32, 105
12, 90312, Note_off_c, 14, 32, 64
12, 91200, Note_on_c, 14, 32, 1
12, 91584, Note_off_c, 14, 32, 64
12, 91584, End_track
13, 0, Start_track
13, 0, Program_c, 6, 45
13, 0, Control_c, 6, 7, 94
13, 0, Control_c, 6, 91, 100
13, 0, End_track
14, 0, Start_track
14, 0, Program_c, 7, 45
14, 0, Control_c, 7, 7, 94
14, 0, Control_c, 7, 91, 100
14, 0, End_track
0, 0, End_of_file