0, 0, Header, 1, 12, 480
1, 0, Start_track
1, 0, Title_t, "untitled"
1, 0, Time_signature, 3, 2, 24, 8
1, 0, Key_signature, 0, "major"
1, 0, Tempo, 468750
1, 17280, Tempo, 483871
1, 18720, Tempo, 468750
1, 34560, Tempo, 483871
1, 36000, Tempo, 468750
1, 68160, Tempo, 476190
1, 68640, Tempo, 483871
1, 69120, Tempo, 491803
1, 70560, Tempo, 468750
1, 102240, Tempo, 491803
1, 102720, Tempo, 500000
1, 103200, Tempo, 508475
1, 103680, Tempo, 517241
1, 105120, Tempo, 491803
1, 145920, Tempo, 495868
1, 146400, Tempo, 500000
1, 146880, Tempo, 504202
1, 147360, Tempo, 508475
1, 147840, Tempo, 512821
1, 148320, Tempo, 491803
1, 166080, Tempo, 495868
1, 166560, Tempo, 500000
1, 167040, Tempo, 504202
1, 167520, Tempo, 508475
1, 168000, Tempo, 512821
1, 168480, Tempo, 468750
1, 184320, Tempo, 483871
1, 185760, Tempo, 468750
1, 195840, Tempo, 476190
1, 197280, Tempo, 468750
1, 207360, Tempo, 476190
1, 208800, Tempo, 468750
1, 213120, Tempo, 476190
1, 214560, Tempo, 468750
1, 215040, Tempo, 476190
1, 215520, Tempo, 483871
1, 216000, Tempo, 495868
1, 216480, Tempo, 504202
1, 216960, Tempo, 512821
1, 217440, Tempo, 517241
1, 217920, Tempo, 535714
1, 218400, Tempo, 555556
1, 218880, Tempo, 571429
1, 218880, End_track
2, 0, Start_track
2, 0, Program_c, 0, 68
2, 0, Control_c, 0, 7, 94
2, 0, Control_c, 0, 10, 64
2, 0, Control_c, 0, 91, 80
2, 1440, Note_on_c, 0, 67, 105
2, 1752, Note_on_c, 0, 67, 0
2, 1920, Note_on_c, 0, 62, 105
2, 2232, Note_on_c, 0, 62, 0
2, 2400, Note_on_c, 0, 67, 105
2, 2712, Note_on_c, 0, 67, 0
2, 2880, Note_on_c, 0, 70, 105
2, 3648, Note_on_c, 0, 70, 0
2, 3840, Note_on_c, 0, 72, 105
2, 4080, Note_on_c, 0, 72, 0
2, 4080, Note_on_c, 0, 69, 105
2, 4272, Note_on_c, 0, 69, 0
2, 4320, Note_on_c, 0, 67, 105
2, 4632, Note_on_c, 0, 67, 0
2, 4800, Note_on_c, 0, 66, 105
2, 5112, Note_on_c, 0, 66, 0
2, 5280, Note_on_c, 0, 67, 105
2, 5592, Note_on_c, 0, 67, 0
2, 5760, Note_on_c, 0, 69, 105
2, 6000, Note_on_c, 0, 69, 0
2, 6000, Note_on_c, 0, 66, 105
2, 6192, Note_on_c, 0, 66, 0
2, 6240, Note_on_c, 0, 62, 105
2, 6624, Note_on_c, 0, 62, 0
2, 12960, Note_on_c, 0, 79, 105
2, 12960, Note_on_c, 0, 74, 105
2, 13248, Note_on_c, 0, 79, 0
2, 13272, Note_on_c, 0, 74, 0
2, 13440, Note_on_c, 0, 74, 105
2, 13440, Note_on_c, 0, 79, 105
2, 13728, Note_on_c, 0, 79, 0
2, 13752, Note_on_c, 0, 74, 0
2, 13920, Note_on_c, 0, 79, 105
2, 13920, Note_on_c, 0, 74, 105
2, 14208, Note_on_c, 0, 79, 0
2, 14232, Note_on_c, 0, 74, 0
2, 14400, Note_on_c, 0, 78, 105
2, 14400, Note_on_c, 0, 72, 105
2, 14784, Note_on_c, 0, 72, 0
2, 14880, Note_on_c, 0, 78, 0
2, 14880, Note_on_c, 0, 84, 105
2, 14880, Note_on_c, 0, 78, 105
2, 15168, Note_on_c, 0, 84, 0
2, 15264, Note_on_c, 0, 78, 0
2, 15360, Note_on_c, 0, 79, 105
2, 15360, Note_on_c, 0, 82, 105
2, 15600, Note_on_c, 0, 82, 0
2, 15744, Note_on_c, 0, 79, 0
2, 15840, Note_on_c, 0, 75, 105
2, 15840, Note_on_c, 0, 82, 105
2, 15936, Note_on_c, 0, 75, 0
2, 15960, Note_on_c, 0, 82, 0
2, 15960, Note_on_c, 0, 72, 105
2, 15960, Note_on_c, 0, 81, 105
2, 16176, Note_on_c, 0, 81, 0
2, 16248, Note_on_c, 0, 72, 0
2, 16320, Note_on_c, 0, 70, 105
2, 16320, Note_on_c, 0, 79, 105
2, 16608, Note_on_c, 0, 79, 0
2, 16704, Note_on_c, 0, 70, 0
2, 16800, Note_on_c, 0, 78, 105
2, 16800, Note_on_c, 0, 69, 105
2, 17088, Note_on_c, 0, 78, 0
2, 17184, Note_on_c, 0, 69, 0
2, 17280, Note_on_c, 0, 67, 105
2, 17280, Note_on_c, 0, 79, 105
2, 18048, Note_on_c, 0, 79, 0
2, 18048, Note_on_c, 0, 67, 0
2, 18720, Note_on_c, 0, 67, 105
2, 19032, Note_on_c, 0, 67, 0
2, 19200, Note_on_c, 0, 62, 105
2, 19512, Note_on_c, 0, 62, 0
2, 19680, Note_on_c, 0, 67, 105
2, 19992, Note_on_c, 0, 67, 0
2, 20160, Note_on_c, 0, 70, 105
2, 20928, Note_on_c, 0, 70, 0
2, 21120, Note_on_c, 0, 72, 105
2, 21360, Note_on_c, 0, 72, 0
2, 21360, Note_on_c, 0, 69, 105
2, 21552, Note_on_c, 0, 69, 0
2, 21600, Note_on_c, 0, 67, 105
2, 21912, Note_on_c, 0, 67, 0
2, 22080, Note_on_c, 0, 66, 105
2, 22392, Note_on_c, 0, 66, 0
2, 22560, Note_on_c, 0, 67, 105
2, 22872, Note_on_c, 0, 67, 0
2, 23040, Note_on_c, 0, 69, 105
2, 23280, Note_on_c, 0, 69, 0
2, 23280, Note_on_c, 0, 66, 105
2, 23472, Note_on_c, 0, 66, 0
2, 23520, Note_on_c, 0, 62, 105
2, 23904, Note_on_c, 0, 62, 0
2, 30240, Note_on_c, 0, 79, 105
2, 30240, Note_on_c, 0, 74, 105
2, 30528, Note_on_c, 0, 79, 0
2, 30552, Note_on_c, 0, 74, 0
2, 30720, Note_on_c, 0, 74, 105
2, 30720, Note_on_c, 0, 79, 105
2, 31008, Note_on_c, 0, 79, 0
2, 31032, Note_on_c, 0, 74, 0
2, 31200, Note_on_c, 0, 79, 105
2, 31200, Note_on_c, 0, 74, 105
2, 31488, Note_on_c, 0, 79, 0
2, 31512, Note_on_c, 0, 74, 0
2, 31680, Note_on_c, 0, 78, 105
2, 31680, Note_on_c, 0, 72, 105
2, 32064, Note_on_c, 0, 72, 0
2, 32160, Note_on_c, 0, 78, 0
2, 32160, Note_on_c, 0, 84, 105
2, 32160, Note_on_c, 0, 78, 105
2, 32448, Note_on_c, 0, 84, 0
2, 32544, Note_on_c, 0, 78, 0
2, 32640, Note_on_c, 0, 79, 105
2, 32640, Note_on_c, 0, 82, 105
2, 32880, Note_on_c, 0, 82, 0
2, 33024, Note_on_c, 0, 79, 0
2, 33120, Note_on_c, 0, 75, 105
2, 33120, Note_on_c, 0, 82, 105
2, 33216, Note_on_c, 0, 75, 0
2, 33240, Note_on_c, 0, 82, 0
2, 33240, Note_on_c, 0, 72, 105
2, 33240, Note_on_c, 0, 81, 105
2, 33456, Note_on_c, 0, 81, 0
2, 33528, Note_on_c, 0, 72, 0
2, 33600, Note_on_c, 0, 70, 105
2, 33600, Note_on_c, 0, 79, 105
2, 33888, Note_on_c, 0, 79, 0
2, 33984, Note_on_c, 0, 70, 0
2, 34080, Note_on_c, 0, 78, 105
2, 34080, Note_on_c, 0, 69, 105
2, 34368, Note_on_c, 0, 78, 0
2, 34464, Note_on_c, 0, 69, 0
2, 34560, Note_on_c, 0, 67, 105
2, 34560, Note_on_c, 0, 79, 105
2, 35328, Note_on_c, 0, 79, 0
2, 35328, Note_on_c, 0, 67, 0
2, 36000, Note_on_c, 0, 66, 105
2, 36000, Note_on_c, 0, 81, 105
2, 36288, Note_on_c, 0, 81, 0
2, 36288, Note_on_c, 0, 66, 0
2, 36480, Note_on_c, 0, 66, 105
2, 36480, Note_on_c, 0, 81, 105
2, 36768, Note_on_c, 0, 81, 0
2, 36768, Note_on_c, 0, 66, 0
2, 36960, Note_on_c, 0, 81, 105
2, 36960, Note_on_c, 0, 66, 105
2, 37200, Note_on_c, 0, 66, 0
2, 37200, Note_on_c, 0, 81, 0
2, 37200, Note_on_c, 0, 67, 105
2, 37200, Note_on_c, 0, 82, 105
2, 37392, Note_on_c, 0, 82, 0
2, 37392, Note_on_c, 0, 67, 0
2, 37440, Note_on_c, 0, 67, 105
2, 37440, Note_on_c, 0, 82, 105
2, 38016, Note_on_c, 0, 82, 0
2, 38016, Note_on_c, 0, 67, 0
2, 38160, Note_on_c, 0, 69, 105
2, 38160, Note_on_c, 0, 81, 105
2, 38304, Note_on_c, 0, 81, 0
2, 38304, Note_on_c, 0, 69, 0
2, 38400, Note_on_c, 0, 79, 105
2, 38400, Note_on_c, 0, 70, 105
2, 38688, Note_on_c, 0, 70, 0
2, 38688, Note_on_c, 0, 79, 0
2, 38880, Note_on_c, 0, 69, 105
2, 38880, Note_on_c, 0, 78, 105
2, 39168, Note_on_c, 0, 78, 0
2, 39168, Note_on_c, 0, 69, 0
2, 39360, Note_on_c, 0, 69, 105
2, 39360, Note_on_c, 0, 78, 105
2, 39648, Note_on_c, 0, 78, 0
2, 39648, Note_on_c, 0, 69, 0
2, 39840, Note_on_c, 0, 63, 105
2, 39840, Note_on_c, 0, 78, 105
2, 40128, Note_on_c, 0, 78, 0
2, 40128, Note_on_c, 0, 63, 0
2, 40320, Note_on_c, 0, 81, 105
2, 40320, Note_on_c, 0, 62, 105
2, 40380, Note_on_c, 0, 81, 0
2, 40380, Note_on_c, 0, 79, 105
2, 40440, Note_on_c, 0, 79, 0
2, 40440, Note_on_c, 0, 81, 105
2, 40500, Note_on_c, 0, 81, 0
2, 40500, Note_on_c, 0, 79, 105
2, 40560, Note_on_c, 0, 79, 0
2, 40560, Note_on_c, 0, 81, 105
2, 40680, Note_on_c, 0, 81, 0
2, 40680, Note_on_c, 0, 78, 105
2, 40776, Note_on_c, 0, 78, 0
2, 40776, Note_on_c, 0, 62, 0
2, 40800, Note_on_c, 0, 79, 105
2, 40800, Note_on_c, 0, 67, 105
2, 41184, Note_on_c, 0, 67, 0
2, 41184, Note_on_c, 0, 79, 0
2, 47520, Note_on_c, 0, 67, 105
2, 47832, Note_on_c, 0, 67, 0
2, 48000, Note_on_c, 0, 62, 105
2, 48312, Note_on_c, 0, 62, 0
2, 48480, Note_on_c, 0, 67, 105
2, 48792, Note_on_c, 0, 67, 0
2, 48960, Note_on_c, 0, 70, 105
2, 49728, Note_on_c, 0, 70, 0
2, 49920, Note_on_c, 0, 72, 105
2, 50160, Note_on_c, 0, 72, 0
2, 50160, Note_on_c, 0, 69, 105
2, 50352, Note_on_c, 0, 69, 0
2, 50400, Note_on_c, 0, 67, 105
2, 50712, Note_on_c, 0, 67, 0
2, 50880, Note_on_c, 0, 66, 105
2, 51192, Note_on_c, 0, 66, 0
2, 51360, Note_on_c, 0, 67, 105
2, 51672, Note_on_c, 0, 67, 0
2, 51840, Note_on_c, 0, 69, 105
2, 52080, Note_on_c, 0, 69, 0
2, 52080, Note_on_c, 0, 66, 105
2, 52272, Note_on_c, 0, 66, 0
2, 52320, Note_on_c, 0, 62, 105
2, 52704, Note_on_c, 0, 62, 0
2, 59040, Note_on_c, 0, 79, 105
2, 59040, Note_on_c, 0, 74, 105
2, 59328, Note_on_c, 0, 79, 0
2, 59352, Note_on_c, 0, 74, 0
2, 59520, Note_on_c, 0, 74, 105
2, 59520, Note_on_c, 0, 79, 105
2, 59808, Note_on_c, 0, 79, 0
2, 59832, Note_on_c, 0, 74, 0
2, 60000, Note_on_c, 0, 79, 105
2, 60000, Note_on_c, 0, 74, 105
2, 60288, Note_on_c, 0, 79, 0
2, 60312, Note_on_c, 0, 74, 0
2, 60480, Note_on_c, 0, 78, 105
2, 60480, Note_on_c, 0, 72, 105
2, 60864, Note_on_c, 0, 72, 0
2, 60960, Note_on_c, 0, 78, 0
2, 60960, Note_on_c, 0, 84, 105
2, 60960, Note_on_c, 0, 78, 105
2, 61248, Note_on_c, 0, 84, 0
2, 61344, Note_on_c, 0, 78, 0
2, 61440, Note_on_c, 0, 79, 105
2, 61440, Note_on_c, 0, 82, 105
2, 61680, Note_on_c, 0, 82, 0
2, 61824, Note_on_c, 0, 79, 0
2, 64800, Note_on_c, 0, 64, 105
2, 65112, Note_on_c, 0, 64, 0
2, 65280, Note_on_c, 0, 64, 105
2, 65592, Note_on_c, 0, 64, 0
2, 65760, Note_on_c, 0, 64, 105
2, 66072, Note_on_c, 0, 64, 0
2, 66240, Note_on_c, 0, 69, 105
2, 66720, Note_on_c, 0, 78, 105
2, 67032, Note_on_c, 0, 78, 0
2, 67032, Note_on_c, 0, 69, 0
2, 67200, Note_on_c, 0, 67, 105
2, 67200, Note_on_c, 0, 79, 105
2, 67512, Note_on_c, 0, 79, 0
2, 67512, Note_on_c, 0, 67, 0
2, 67680, Note_on_c, 0, 82, 105
2, 67680, Note_on_c, 0, 74, 105
2, 67800, Note_on_c, 0, 74, 0
2, 67800, Note_on_c, 0, 82, 0
2, 67800, Note_on_c, 0, 81, 105
2, 67800, Note_on_c, 0, 72, 105
2, 68124, Note_on_c, 0, 72, 0
2, 68124, Note_on_c, 0, 81, 0
2, 68160, Note_on_c, 0, 70, 105
2, 68160, Note_on_c, 0, 79, 105
2, 68472, Note_on_c, 0, 79, 0
2, 68472, Note_on_c, 0, 70, 0
2, 68640, Note_on_c, 0, 69, 105
2, 68640, Note_on_c, 0, 78, 105
2, 68952, Note_on_c, 0, 78, 0
2, 68952, Note_on_c, 0, 69, 0
2, 69120, Note_on_c, 0, 79, 105
2, 69120, Note_on_c, 0, 67, 105
2, 69888, Note_on_c, 0, 67, 0
2, 69888, Note_on_c, 0, 79, 0
2, 70560, Note_on_c, 0, 66, 105
2, 70560, Note_on_c, 0, 81, 105
2, 70848, Note_on_c, 0, 81, 0
2, 70848, Note_on_c, 0, 66, 0
2, 71040, Note_on_c, 0, 66, 105
2, 71040, Note_on_c, 0, 81, 105
2, 71328, Note_on_c, 0, 81, 0
2, 71328, Note_on_c, 0, 66, 0
2, 71520, Note_on_c, 0, 81, 105
2, 71520, Note_on_c, 0, 66, 105
2, 71760, Note_on_c, 0, 66, 0
2, 71760, Note_on_c, 0, 81, 0
2, 71760, Note_on_c, 0, 67, 105
2, 71760, Note_on_c, 0, 82, 105
2, 71952, Note_on_c, 0, 82, 0
2, 71952, Note_on_c, 0, 67, 0
2, 72000, Note_on_c, 0, 67, 105
2, 72000, Note_on_c, 0, 82, 105
2, 72576, Note_on_c, 0, 82, 0
2, 72576, Note_on_c, 0, 67, 0
2, 72720, Note_on_c, 0, 69, 105
2, 72720, Note_on_c, 0, 81, 105
2, 72864, Note_on_c, 0, 81, 0
2, 72864, Note_on_c, 0, 69, 0
2, 72960, Note_on_c, 0, 79, 105
2, 72960, Note_on_c, 0, 70, 105
2, 73248, Note_on_c, 0, 70, 0
2, 73248, Note_on_c, 0, 79, 0
2, 73440, Note_on_c, 0, 69, 105
2, 73440, Note_on_c, 0, 78, 105
2, 73728, Note_on_c, 0, 78, 0
2, 73728, Note_on_c, 0, 69, 0
2, 73920, Note_on_c, 0, 69, 105
2, 73920, Note_on_c, 0, 78, 105
2, 74208, Note_on_c, 0, 78, 0
2, 74208, Note_on_c, 0, 69, 0
2, 74400, Note_on_c, 0, 63, 105
2, 74400, Note_on_c, 0, 78, 105
2, 74688, Note_on_c, 0, 78, 0
2, 74688, Note_on_c, 0, 63, 0
2, 74880, Note_on_c, 0, 81, 105
2, 74880, Note_on_c, 0, 62, 105
2, 74940, Note_on_c, 0, 81, 0
2, 74940, Note_on_c, 0, 79, 105
2, 75000, Note_on_c, 0, 79, 0
2, 75000, Note_on_c, 0, 81, 105
2, 75060, Note_on_c, 0, 81, 0
2, 75060, Note_on_c, 0, 79, 105
2, 75120, Note_on_c, 0, 79, 0
2, 75120, Note_on_c, 0, 81, 105
2, 75240, Note_on_c, 0, 81, 0
2, 75240, Note_on_c, 0, 78, 105
2, 75336, Note_on_c, 0, 78, 0
2, 75336, Note_on_c, 0, 62, 0
2, 75360, Note_on_c, 0, 79, 105
2, 75360, Note_on_c, 0, 67, 105
2, 75744, Note_on_c, 0, 67, 0
2, 75744, Note_on_c, 0, 79, 0
2, 82080, Note_on_c, 0, 67, 105
2, 82392, Note_on_c, 0, 67, 0
2, 82560, Note_on_c, 0, 62, 105
2, 82872, Note_on_c, 0, 62, 0
2, 83040, Note_on_c, 0, 67, 105
2, 83352, Note_on_c, 0, 67, 0
2, 83520, Note_on_c, 0, 70, 105
2, 84288, Note_on_c, 0, 70, 0
2, 84480, Note_on_c, 0, 72, 105
2, 84720, Note_on_c, 0, 72, 0
2, 84720, Note_on_c, 0, 69, 105
2, 84912, Note_on_c, 0, 69, 0
2, 84960, Note_on_c, 0, 67, 105
2, 85272, Note_on_c, 0, 67, 0
2, 85440, Note_on_c, 0, 66, 105
2, 85752, Note_on_c, 0, 66, 0
2, 85920, Note_on_c, 0, 67, 105
2, 86232, Note_on_c, 0, 67, 0
2, 86400, Note_on_c, 0, 69, 105
2, 86640, Note_on_c, 0, 69, 0
2, 86640, Note_on_c, 0, 66, 105
2, 86832, Note_on_c, 0, 66, 0
2, 86880, Note_on_c, 0, 62, 105
2, 87264, Note_on_c, 0, 62, 0
2, 93600, Note_on_c, 0, 79, 105
2, 93600, Note_on_c, 0, 74, 105
2, 93888, Note_on_c, 0, 79, 0
2, 93912, Note_on_c, 0, 74, 0
2, 94080, Note_on_c, 0, 74, 105
2, 94080, Note_on_c, 0, 79, 105
2, 94368, Note_on_c, 0, 79, 0
2, 94392, Note_on_c, 0, 74, 0
2, 94560, Note_on_c, 0, 79, 105
2, 94560, Note_on_c, 0, 74, 105
2, 94848, Note_on_c, 0, 79, 0
2, 94872, Note_on_c, 0, 74, 0
2, 95040, Note_on_c, 0, 78, 105
2, 95040, Note_on_c, 0, 72, 105
2, 95424, Note_on_c, 0, 72, 0
2, 95520, Note_on_c, 0, 78, 0
2, 95520, Note_on_c, 0, 84, 105
2, 95520, Note_on_c, 0, 78, 105
2, 95808, Note_on_c, 0, 84, 0
2, 95904, Note_on_c, 0, 78, 0
2, 96000, Note_on_c, 0, 79, 105
2, 96000, Note_on_c, 0, 82, 105
2, 96240, Note_on_c, 0, 82, 0
2, 96384, Note_on_c, 0, 79, 0
2, 99360, Note_on_c, 0, 64, 105
2, 99672, Note_on_c, 0, 64, 0
2, 99840, Note_on_c, 0, 64, 105
2, 100152, Note_on_c, 0, 64, 0
2, 100320, Note_on_c, 0, 64, 105
2, 100632, Note_on_c, 0, 64, 0
2, 100800, Note_on_c, 0, 69, 105
2, 101280, Note_on_c, 0, 78, 105
2, 101592, Note_on_c, 0, 78, 0
2, 101592, Note_on_c, 0, 69, 0
2, 101760, Note_on_c, 0, 67, 105
2, 101760, Note_on_c, 0, 79, 105
2, 102072, Note_on_c, 0, 79, 0
2, 102072, Note_on_c, 0, 67, 0
2, 102240, Note_on_c, 0, 82, 105
2, 102240, Note_on_c, 0, 74, 105
2, 102360, Note_on_c, 0, 74, 0
2, 102360, Note_on_c, 0, 82, 0
2, 102360, Note_on_c, 0, 81, 105
2, 102360, Note_on_c, 0, 72, 105
2, 102684, Note_on_c, 0, 72, 0
2, 102684, Note_on_c, 0, 81, 0
2, 102720, Note_on_c, 0, 70, 105
2, 102720, Note_on_c, 0, 79, 105
2, 103032, Note_on_c, 0, 79, 0
2, 103032, Note_on_c, 0, 70, 0
2, 103200, Note_on_c, 0, 69, 105
2, 103200, Note_on_c, 0, 78, 105
2, 103512, Note_on_c, 0, 78, 0
2, 103512, Note_on_c, 0, 69, 0
2, 103680, Note_on_c, 0, 79, 105
2, 103680, Note_on_c, 0, 67, 105
2, 104448, Note_on_c, 0, 67, 0
2, 104448, Note_on_c, 0, 79, 0
2, 105120, Note_on_c, 0, 74, 70
2, 105888, Note_on_c, 0, 74, 0
2, 106080, Note_on_c, 0, 83, 70
2, 106320, Note_on_c, 0, 83, 0
2, 106320, Note_on_c, 0, 79, 70
2, 106512, Note_on_c, 0, 79, 0
2, 106560, Note_on_c, 0, 79, 70
2, 106800, Note_on_c, 0, 79, 0
2, 106800, Note_on_c, 0, 78, 70
2, 106992, Note_on_c, 0, 78, 0
2, 107040, Note_on_c, 0, 78, 70
2, 107424, Note_on_c, 0, 78, 0
2, 107520, Note_on_c, 0, 78, 70
2, 107904, Note_on_c, 0, 78, 0
2, 108000, Note_on_c, 0, 78, 70
2, 108480, Note_on_c, 0, 78, 0
2, 108480, Note_on_c, 0, 84, 70
2, 108864, Note_on_c, 0, 84, 0
2, 108960, Note_on_c, 0, 83, 70
2, 109080, Note_on_c, 0, 83, 0
2, 109080, Note_on_c, 0, 81, 70
2, 109200, Note_on_c, 0, 81, 0
2, 109200, Note_on_c, 0, 79, 70
2, 109320, Note_on_c, 0, 79, 0
2, 109320, Note_on_c, 0, 78, 70
2, 109416, Note_on_c, 0, 78, 0
2, 109440, Note_on_c, 0, 79, 70
2, 109680, Note_on_c, 0, 79, 0
2, 109680, Note_on_c, 0, 83, 70
2, 109872, Note_on_c, 0, 83, 0
2, 109920, Note_on_c, 0, 74, 70
2, 110304, Note_on_c, 0, 74, 0
2, 110880, Note_on_c, 0, 79, 70
2, 111360, Note_on_c, 0, 79, 0
2, 111360, Note_on_c, 0, 78, 70
2, 111840, Note_on_c, 0, 78, 0
2, 111840, Note_on_c, 0, 76, 70
2, 112224, Note_on_c, 0, 76, 0
2, 112320, Note_on_c, 0, 81, 90
2, 113040, Note_on_c, 0, 81, 0
2, 113040, Note_on_c, 0, 79, 70
2, 113232, Note_on_c, 0, 79, 0
2, 113280, Note_on_c, 0, 78, 70
2, 113664, Note_on_c, 0, 78, 0
2, 113760, Note_on_c, 0, 81, 70
2, 113880, Note_on_c, 0, 81, 0
2, 113880, Note_on_c, 0, 79, 70
2, 114168, Note_on_c, 0, 79, 0
2, 114240, Note_on_c, 0, 78, 70
2, 114552, Note_on_c, 0, 78, 0
2, 114720, Note_on_c, 0, 76, 70
2, 115032, Note_on_c, 0, 76, 0
2, 115200, Note_on_c, 0, 74, 70
2, 115968, Note_on_c, 0, 74, 0
2, 116640, Note_on_c, 0, 74, 70
2, 117408, Note_on_c, 0, 74, 0
2, 117600, Note_on_c, 0, 83, 70
2, 117840, Note_on_c, 0, 83, 0
2, 117840, Note_on_c, 0, 79, 70
2, 118032, Note_on_c, 0, 79, 0
2, 118080, Note_on_c, 0, 79, 70
2, 118320, Note_on_c, 0, 79, 0
2, 118320, Note_on_c, 0, 78, 70
2, 118512, Note_on_c, 0, 78, 0
2, 118560, Note_on_c, 0, 78, 70
2, 118944, Note_on_c, 0, 78, 0
2, 119040, Note_on_c, 0, 78, 70
2, 119424, Note_on_c, 0, 78, 0
2, 119520, Note_on_c, 0, 78, 70
2, 120000, Note_on_c, 0, 78, 0
2, 120000, Note_on_c, 0, 84, 70
2, 120384, Note_on_c, 0, 84, 0
2, 120480, Note_on_c, 0, 83, 70
2, 120600, Note_on_c, 0, 83, 0
2, 120600, Note_on_c, 0, 81, 70
2, 120720, Note_on_c, 0, 81, 0
2, 120720, Note_on_c, 0, 79, 70
2, 120840, Note_on_c, 0, 79, 0
2, 120840, Note_on_c, 0, 78, 70
2, 120936, Note_on_c, 0, 78, 0
2, 120960, Note_on_c, 0, 79, 70
2, 121200, Note_on_c, 0, 79, 0
2, 121200, Note_on_c, 0, 83, 70
2, 121392, Note_on_c, 0, 83, 0
2, 121440, Note_on_c, 0, 74, 70
2, 121824, Note_on_c, 0, 74, 0
2, 122400, Note_on_c, 0, 79, 70
2, 122880, Note_on_c, 0, 79, 0
2, 122880, Note_on_c, 0, 78, 70
2, 123360, Note_on_c, 0, 78, 0
2, 123360, Note_on_c, 0, 76, 70
2, 123744, Note_on_c, 0, 76, 0
2, 123840, Note_on_c, 0, 81, 90
2, 124560, Note_on_c, 0, 81, 0
2, 124560, Note_on_c, 0, 79, 70
2, 124752, Note_on_c, 0, 79, 0
2, 124800, Note_on_c, 0, 78, 70
2, 125184, Note_on_c, 0, 78, 0
2, 125280, Note_on_c, 0, 81, 70
2, 125400, Note_on_c, 0, 81, 0
2, 125400, Note_on_c, 0, 79, 70
2, 125688, Note_on_c, 0, 79, 0
2, 125760, Note_on_c, 0, 78, 70
2, 126072, Note_on_c, 0, 78, 0
2, 126240, Note_on_c, 0, 76, 70
2, 126552, Note_on_c, 0, 76, 0
2, 126720, Note_on_c, 0, 74, 70
2, 127488, Note_on_c, 0, 74, 0
2, 128160, Note_on_c, 0, 74, 80
2, 128736, Note_on_c, 0, 74, 0
2, 128880, Note_on_c, 0, 84, 80
2, 129120, Note_on_c, 0, 84, 0
2, 129120, Note_on_c, 0, 83, 80
2, 129360, Note_on_c, 0, 83, 0
2, 129360, Note_on_c, 0, 81, 80
2, 129552, Note_on_c, 0, 81, 0
2, 129600, Note_on_c, 0, 81, 80
2, 129840, Note_on_c, 0, 81, 0
2, 129840, Note_on_c, 0, 83, 80
2, 130032, Note_on_c, 0, 83, 0
2, 130080, Note_on_c, 0, 79, 80
2, 130464, Note_on_c, 0, 79, 0
2, 130560, Note_on_c, 0, 79, 80
2, 130944, Note_on_c, 0, 79, 0
2, 131040, Note_on_c, 0, 74, 80
2, 131616, Note_on_c, 0, 74, 0
2, 131760, Note_on_c, 0, 84, 80
2, 132000, Note_on_c, 0, 84, 0
2, 132000, Note_on_c, 0, 83, 80
2, 132240, Note_on_c, 0, 83, 0
2, 132240, Note_on_c, 0, 81, 80
2, 132432, Note_on_c, 0, 81, 0
2, 132480, Note_on_c, 0, 79, 80
2, 132720, Note_on_c, 0, 79, 0
2, 132720, Note_on_c, 0, 83, 80
2, 132912, Note_on_c, 0, 83, 0
2, 132960, Note_on_c, 0, 81, 80
2, 133344, Note_on_c, 0, 81, 0
2, 133920, Note_on_c, 0, 74, 70
2, 134688, Note_on_c, 0, 74, 0
2, 134880, Note_on_c, 0, 83, 70
2, 135120, Note_on_c, 0, 83, 0
2, 135120, Note_on_c, 0, 79, 70
2, 135312, Note_on_c, 0, 79, 0
2, 135360, Note_on_c, 0, 79, 70
2, 135600, Note_on_c, 0, 79, 0
2, 135600, Note_on_c, 0, 78, 70
2, 135792, Note_on_c, 0, 78, 0
2, 135840, Note_on_c, 0, 78, 70
2, 136224, Note_on_c, 0, 78, 0
2, 136320, Note_on_c, 0, 78, 70
2, 136704, Note_on_c, 0, 78, 0
2, 136800, Note_on_c, 0, 78, 70
2, 137280, Note_on_c, 0, 78, 0
2, 137280, Note_on_c, 0, 84, 70
2, 137664, Note_on_c, 0, 84, 0
2, 137760, Note_on_c, 0, 83, 70
2, 137880, Note_on_c, 0, 83, 0
2, 137880, Note_on_c, 0, 81, 70
2, 138000, Note_on_c, 0, 81, 0
2, 138000, Note_on_c, 0, 79, 70
2, 138120, Note_on_c, 0, 79, 0
2, 138120, Note_on_c, 0, 78, 70
2, 138216, Note_on_c, 0, 78, 0
2, 138240, Note_on_c, 0, 79, 70
2, 138480, Note_on_c, 0, 79, 0
2, 138480, Note_on_c, 0, 83, 70
2, 138672, Note_on_c, 0, 83, 0
2, 138720, Note_on_c, 0, 74, 70
2, 139104, Note_on_c, 0, 74, 0
2, 139680, Note_on_c, 0, 84, 80
2, 139812, Note_on_c, 0, 84, 0
2, 139920, Note_on_c, 0, 83, 80
2, 140052, Note_on_c, 0, 83, 0
2, 140160, Note_on_c, 0, 81, 80
2, 140292, Note_on_c, 0, 81, 0
2, 140400, Note_on_c, 0, 79, 80
2, 140532, Note_on_c, 0, 79, 0
2, 140640, Note_on_c, 0, 78, 80
2, 140772, Note_on_c, 0, 78, 0
2, 140880, Note_on_c, 0, 76, 80
2, 141012, Note_on_c, 0, 76, 0
2, 141120, Note_on_c, 0, 74, 70
2, 141840, Note_on_c, 0, 74, 0
2, 141840, Note_on_c, 0, 72, 70
2, 142032, Note_on_c, 0, 72, 0
2, 142080, Note_on_c, 0, 71, 70
2, 142464, Note_on_c, 0, 71, 0
2, 142560, Note_on_c, 0, 84, 70
2, 142692, Note_on_c, 0, 84, 0
2, 142800, Note_on_c, 0, 83, 70
2, 142932, Note_on_c, 0, 83, 0
2, 143040, Note_on_c, 0, 81, 70
2, 143172, Note_on_c, 0, 81, 0
2, 143280, Note_on_c, 0, 79, 70
2, 143412, Note_on_c, 0, 79, 0
2, 143520, Note_on_c, 0, 78, 70
2, 143652, Note_on_c, 0, 78, 0
2, 143760, Note_on_c, 0, 76, 70
2, 143892, Note_on_c, 0, 76, 0
2, 144000, Note_on_c, 0, 74, 70
2, 144720, Note_on_c, 0, 74, 0
2, 144720, Note_on_c, 0, 72, 70
2, 144912, Note_on_c, 0, 72, 0
2, 144960, Note_on_c, 0, 71, 70
2, 145344, Note_on_c, 0, 71, 0
2, 145440, Note_on_c, 0, 76, 70
2, 145600, Note_on_c, 0, 76, 0
2, 145600, Note_on_c, 0, 78, 70
2, 145760, Note_on_c, 0, 78, 0
2, 145760, Note_on_c, 0, 79, 70
2, 145888, Note_on_c, 0, 79, 0
2, 145920, Note_on_c, 0, 71, 70
2, 146304, Note_on_c, 0, 71, 0
2, 146400, Note_on_c, 0, 71, 70
2, 146460, Note_on_c, 0, 71, 0
2, 146460, Note_on_c, 0, 69, 70
2, 146520, Note_on_c, 0, 69, 0
2, 146520, Note_on_c, 0, 71, 70
2, 146580, Note_on_c, 0, 71, 0
2, 146580, Note_on_c, 0, 69, 70
2, 146640, Note_on_c, 0, 69, 0
2, 146640, Note_on_c, 0, 71, 70
2, 146700, Note_on_c, 0, 71, 0
2, 146700, Note_on_c, 0, 69, 70
2, 146760, Note_on_c, 0, 69, 0
2, 146760, Note_on_c, 0, 67, 70
2, 146820, Note_on_c, 0, 67, 0
2, 146820, Note_on_c, 0, 69, 70
2, 146868, Note_on_c, 0, 69, 0
2, 146880, Note_on_c, 0, 67, 58
2, 147648, Note_on_c, 0, 67, 0
2, 148320, Note_on_c, 0, 74, 80
2, 148896, Note_on_c, 0, 74, 0
2, 149040, Note_on_c, 0, 84, 80
2, 149280, Note_on_c, 0, 84, 0
2, 149280, Note_on_c, 0, 83, 80
2, 149520, Note_on_c, 0, 83, 0
2, 149520, Note_on_c, 0, 81, 80
2, 149712, Note_on_c, 0, 81, 0
2, 149760, Note_on_c, 0, 81, 80
2, 150000, Note_on_c, 0, 81, 0
2, 150000, Note_on_c, 0, 83, 80
2, 150192, Note_on_c, 0, 83, 0
2, 150240, Note_on_c, 0, 79, 80
2, 150624, Note_on_c, 0, 79, 0
2, 150720, Note_on_c, 0, 79, 80
2, 151104, Note_on_c, 0, 79, 0
2, 151200, Note_on_c, 0, 74, 80
2, 151776, Note_on_c, 0, 74, 0
2, 151920, Note_on_c, 0, 84, 80
2, 152160, Note_on_c, 0, 84, 0
2, 152160, Note_on_c, 0, 83, 80
2, 152400, Note_on_c, 0, 83, 0
2, 152400, Note_on_c, 0, 81, 80
2, 152592, Note_on_c, 0, 81, 0
2, 152640, Note_on_c, 0, 79, 80
2, 152880, Note_on_c, 0, 79, 0
2, 152880, Note_on_c, 0, 83, 80
2, 153072, Note_on_c, 0, 83, 0
2, 153120, Note_on_c, 0, 81, 80
2, 153504, Note_on_c, 0, 81, 0
2, 154080, Note_on_c, 0, 74, 70
2, 154848, Note_on_c, 0, 74, 0
2, 155040, Note_on_c, 0, 83, 70
2, 155280, Note_on_c, 0, 83, 0
2, 155280, Note_on_c, 0, 79, 70
2, 155472, Note_on_c, 0, 79, 0
2, 155520, Note_on_c, 0, 79, 70
2, 155760, Note_on_c, 0, 79, 0
2, 155760, Note_on_c, 0, 78, 70
2, 155952, Note_on_c, 0, 78, 0
2, 156000, Note_on_c, 0, 78, 70
2, 156384, Note_on_c, 0, 78, 0
2, 156480, Note_on_c, 0, 78, 70
2, 156864, Note_on_c, 0, 78, 0
2, 156960, Note_on_c, 0, 78, 70
2, 157440, Note_on_c, 0, 78, 0
2, 157440, Note_on_c, 0, 84, 70
2, 157824, Note_on_c, 0, 84, 0
2, 157920, Note_on_c, 0, 83, 70
2, 158040, Note_on_c, 0, 83, 0
2, 158040, Note_on_c, 0, 81, 70
2, 158160, Note_on_c, 0, 81, 0
2, 158160, Note_on_c, 0, 79, 70
2, 158280, Note_on_c, 0, 79, 0
2, 158280, Note_on_c, 0, 78, 70
2, 158376, Note_on_c, 0, 78, 0
2, 158400, Note_on_c, 0, 79, 70
2, 158640, Note_on_c, 0, 79, 0
2, 158640, Note_on_c, 0, 83, 70
2, 158832, Note_on_c, 0, 83, 0
2, 158880, Note_on_c, 0, 74, 70
2, 159264, Note_on_c, 0, 74, 0
2, 159840, Note_on_c, 0, 84, 80
2, 159972, Note_on_c, 0, 84, 0
2, 160080, Note_on_c, 0, 83, 80
2, 160212, Note_on_c, 0, 83, 0
2, 160320, Note_on_c, 0, 81, 80
2, 160452, Note_on_c, 0, 81, 0
2, 160560, Note_on_c, 0, 79, 80
2, 160692, Note_on_c, 0, 79, 0
2, 160800, Note_on_c, 0, 78, 80
2, 160932, Note_on_c, 0, 78, 0
2, 161040, Note_on_c, 0, 76, 80
2, 161172, Note_on_c, 0, 76, 0
2, 161280, Note_on_c, 0, 74, 70
2, 162000, Note_on_c, 0, 74, 0
2, 162000, Note_on_c, 0, 72, 70
2, 162192, Note_on_c, 0, 72, 0
2, 162240, Note_on_c, 0, 71, 70
2, 162624, Note_on_c, 0, 71, 0
2, 162720, Note_on_c, 0, 84, 70
2, 162852, Note_on_c, 0, 84, 0
2, 162960, Note_on_c, 0, 83, 70
2, 163092, Note_on_c, 0, 83, 0
2, 163200, Note_on_c, 0, 81, 70
2, 163332, Note_on_c, 0, 81, 0
2, 163440, Note_on_c, 0, 79, 70
2, 163572, Note_on_c, 0, 79, 0
2, 163680, Note_on_c, 0, 78, 70
2, 163812, Note_on_c, 0, 78, 0
2, 163920, Note_on_c, 0, 76, 70
2, 164052, Note_on_c, 0, 76, 0
2, 164160, Note_on_c, 0, 74, 70
2, 164880, Note_on_c, 0, 74, 0
2, 164880, Note_on_c, 0, 72, 70
2, 165072, Note_on_c, 0, 72, 0
2, 165120, Note_on_c, 0, 71, 70
2, 165504, Note_on_c, 0, 71, 0
2, 165600, Note_on_c, 0, 76, 70
2, 165760, Note_on_c, 0, 76, 0
2, 165760, Note_on_c, 0, 78, 70
2, 165920, Note_on_c, 0, 78, 0
2, 165920, Note_on_c, 0, 79, 70
2, 166048, Note_on_c, 0, 79, 0
2, 166080, Note_on_c, 0, 71, 70
2, 166464, Note_on_c, 0, 71, 0
2, 166560, Note_on_c, 0, 71, 70
2, 166620, Note_on_c, 0, 71, 0
2, 166620, Note_on_c, 0, 69, 70
2, 166680, Note_on_c, 0, 69, 0
2, 166680, Note_on_c, 0, 71, 70
2, 166740, Note_on_c, 0, 71, 0
2, 166740, Note_on_c, 0, 69, 70
2, 166800, Note_on_c, 0, 69, 0
2, 166800, Note_on_c, 0, 71, 70
2, 166860, Note_on_c, 0, 71, 0
2, 166860, Note_on_c, 0, 69, 70
2, 166920, Note_on_c, 0, 69, 0
2, 166920, Note_on_c, 0, 67, 70
2, 166980, Note_on_c, 0, 67, 0
2, 166980, Note_on_c, 0, 69, 70
2, 167028, Note_on_c, 0, 69, 0
2, 167040, Note_on_c, 0, 67, 58
2, 167808, Note_on_c, 0, 67, 0
2, 168480, Note_on_c, 0, 67, 105
2, 168792, Note_on_c, 0, 67, 0
2, 168960, Note_on_c, 0, 62, 105
2, 169272, Note_on_c, 0, 62, 0
2, 169440, Note_on_c, 0, 67, 105
2, 169752, Note_on_c, 0, 67, 0
2, 169920, Note_on_c, 0, 70, 105
2, 170688, Note_on_c, 0, 70, 0
2, 170880, Note_on_c, 0, 72, 105
2, 171120, Note_on_c, 0, 72, 0
2, 171120, Note_on_c, 0, 69, 105
2, 171312, Note_on_c, 0, 69, 0
2, 171360, Note_on_c, 0, 67, 105
2, 171672, Note_on_c, 0, 67, 0
2, 171840, Note_on_c, 0, 66, 105
2, 172152, Note_on_c, 0, 66, 0
2, 172320, Note_on_c, 0, 67, 105
2, 172632, Note_on_c, 0, 67, 0
2, 172800, Note_on_c, 0, 69, 105
2, 173040, Note_on_c, 0, 69, 0
2, 173040, Note_on_c, 0, 66, 105
2, 173232, Note_on_c, 0, 66, 0
2, 173280, Note_on_c, 0, 62, 105
2, 173664, Note_on_c, 0, 62, 0
2, 180000, Note_on_c, 0, 79, 105
2, 180000, Note_on_c, 0, 74, 105
2, 180288, Note_on_c, 0, 79, 0
2, 180312, Note_on_c, 0, 74, 0
2, 180480, Note_on_c, 0, 74, 105
2, 180480, Note_on_c, 0, 79, 105
2, 180768, Note_on_c, 0, 79, 0
2, 180792, Note_on_c, 0, 74, 0
2, 180960, Note_on_c, 0, 74, 105
2, 180960, Note_on_c, 0, 79, 105
2, 181248, Note_on_c, 0, 79, 0
2, 181272, Note_on_c, 0, 74, 0
2, 181440, Note_on_c, 0, 78, 105
2, 181440, Note_on_c, 0, 72, 105
2, 181824, Note_on_c, 0, 72, 0
2, 181920, Note_on_c, 0, 78, 0
2, 181920, Note_on_c, 0, 84, 105
2, 181920, Note_on_c, 0, 78, 105
2, 182208, Note_on_c, 0, 84, 0
2, 182304, Note_on_c, 0, 78, 0
2, 182400, Note_on_c, 0, 82, 105
2, 182400, Note_on_c, 0, 79, 105
2, 182640, Note_on_c, 0, 82, 0
2, 182784, Note_on_c, 0, 79, 0
2, 182880, Note_on_c, 0, 75, 105
2, 182880, Note_on_c, 0, 82, 105
2, 182976, Note_on_c, 0, 75, 0
2, 183000, Note_on_c, 0, 82, 0
2, 183000, Note_on_c, 0, 81, 105
2, 183000, Note_on_c, 0, 72, 105
2, 183324, Note_on_c, 0, 72, 0
2, 183324, Note_on_c, 0, 81, 0
2, 183360, Note_on_c, 0, 70, 105
2, 183360, Note_on_c, 0, 79, 105
2, 183648, Note_on_c, 0, 79, 0
2, 183744, Note_on_c, 0, 70, 0
2, 183840, Note_on_c, 0, 78, 105
2, 183840, Note_on_c, 0, 69, 105
2, 184128, Note_on_c, 0, 78, 0
2, 184224, Note_on_c, 0, 69, 0
2, 184320, Note_on_c, 0, 67, 105
2, 184320, Note_on_c, 0, 79, 105
2, 185088, Note_on_c, 0, 79, 0
2, 185088, Note_on_c, 0, 67, 0
2, 185760, Note_on_c, 0, 66, 105
2, 185760, Note_on_c, 0, 81, 105
2, 186048, Note_on_c, 0, 81, 0
2, 186048, Note_on_c, 0, 66, 0
2, 186240, Note_on_c, 0, 81, 105
2, 186240, Note_on_c, 0, 66, 105
2, 186528, Note_on_c, 0, 66, 0
2, 186528, Note_on_c, 0, 81, 0
2, 186720, Note_on_c, 0, 81, 105
2, 186720, Note_on_c, 0, 66, 105
2, 186960, Note_on_c, 0, 66, 0
2, 186960, Note_on_c, 0, 81, 0
2, 186960, Note_on_c, 0, 67, 105
2, 186960, Note_on_c, 0, 82, 105
2, 187152, Note_on_c, 0, 82, 0
2, 187152, Note_on_c, 0, 67, 0
2, 187200, Note_on_c, 0, 67, 105
2, 187200, Note_on_c, 0, 82, 105
2, 187776, Note_on_c, 0, 82, 0
2, 187776, Note_on_c, 0, 67, 0
2, 187920, Note_on_c, 0, 69, 105
2, 187920, Note_on_c, 0, 81, 105
2, 188064, Note_on_c, 0, 81, 0
2, 188064, Note_on_c, 0, 69, 0
2, 188160, Note_on_c, 0, 70, 105
2, 188160, Note_on_c, 0, 79, 105
2, 188448, Note_on_c, 0, 79, 0
2, 188448, Note_on_c, 0, 70, 0
2, 188640, Note_on_c, 0, 69, 105
2, 188640, Note_on_c, 0, 78, 105
2, 188928, Note_on_c, 0, 78, 0
2, 188928, Note_on_c, 0, 69, 0
2, 189120, Note_on_c, 0, 69, 105
2, 189120, Note_on_c, 0, 78, 105
2, 189408, Note_on_c, 0, 78, 0
2, 189408, Note_on_c, 0, 69, 0
2, 189600, Note_on_c, 0, 63, 105
2, 189600, Note_on_c, 0, 78, 105
2, 189888, Note_on_c, 0, 78, 0
2, 189888, Note_on_c, 0, 63, 0
2, 190080, Note_on_c, 0, 81, 105
2, 190080, Note_on_c, 0, 62, 105
2, 190140, Note_on_c, 0, 81, 0
2, 190140, Note_on_c, 0, 79, 105
2, 190200, Note_on_c, 0, 79, 0
2, 190200, Note_on_c, 0, 81, 105
2, 190260, Note_on_c, 0, 81, 0
2, 190260, Note_on_c, 0, 79, 105
2, 190320, Note_on_c, 0, 79, 0
2, 190320, Note_on_c, 0, 81, 105
2, 190440, Note_on_c, 0, 81, 0
2, 190440, Note_on_c, 0, 78, 105
2, 190536, Note_on_c, 0, 78, 0
2, 190536, Note_on_c, 0, 62, 0
2, 190560, Note_on_c, 0, 79, 105
2, 190560, Note_on_c, 0, 67, 105
2, 190944, Note_on_c, 0, 67, 0
2, 190944, Note_on_c, 0, 79, 0
2, 197280, Note_on_c, 0, 67, 105
2, 197592, Note_on_c, 0, 67, 0
2, 197760, Note_on_c, 0, 62, 105
2, 198072, Note_on_c, 0, 62, 0
2, 198240, Note_on_c, 0, 67, 105
2, 198552, Note_on_c, 0, 67, 0
2, 198720, Note_on_c, 0, 70, 105
2, 199488, Note_on_c, 0, 70, 0
2, 199680, Note_on_c, 0, 72, 105
2, 199920, Note_on_c, 0, 72, 0
2, 199920, Note_on_c, 0, 69, 105
2, 200112, Note_on_c, 0, 69, 0
2, 200160, Note_on_c, 0, 67, 105
2, 200472, Note_on_c, 0, 67, 0
2, 200640, Note_on_c, 0, 66, 105
2, 200952, Note_on_c, 0, 66, 0
2, 201120, Note_on_c, 0, 67, 105
2, 201432, Note_on_c, 0, 67, 0
2, 201600, Note_on_c, 0, 69, 105
2, 201840, Note_on_c, 0, 69, 0
2, 201840, Note_on_c, 0, 66, 105
2, 202032, Note_on_c, 0, 66, 0
2, 202080, Note_on_c, 0, 62, 105
2, 202464, Note_on_c, 0, 62, 0
2, 208800, Note_on_c, 0, 79, 105
2, 208800, Note_on_c, 0, 74, 105
2, 209088, Note_on_c, 0, 79, 0
2, 209112, Note_on_c, 0, 74, 0
2, 209280, Note_on_c, 0, 74, 105
2, 209280, Note_on_c, 0, 79, 105
2, 209568, Note_on_c, 0, 79, 0
2, 209592, Note_on_c, 0, 74, 0
2, 209760, Note_on_c, 0, 79, 105
2, 209760, Note_on_c, 0, 74, 105
2, 210048, Note_on_c, 0, 79, 0
2, 210072, Note_on_c, 0, 74, 0
2, 210240, Note_on_c, 0, 78, 105
2, 210240, Note_on_c, 0, 72, 105
2, 210624, Note_on_c, 0, 72, 0
2, 210720, Note_on_c, 0, 78, 0
2, 210720, Note_on_c, 0, 84, 105
2, 210720, Note_on_c, 0, 78, 105
2, 211008, Note_on_c, 0, 84, 0
2, 211104, Note_on_c, 0, 78, 0
2, 211200, Note_on_c, 0, 79, 105
2, 211200, Note_on_c, 0, 82, 105
2, 211440, Note_on_c, 0, 82, 0
2, 211584, Note_on_c, 0, 79, 0
2, 214560, Note_on_c, 0, 64, 105
2, 214872, Note_on_c, 0, 64, 0
2, 215040, Note_on_c, 0, 64, 105
2, 215352, Note_on_c, 0, 64, 0
2, 215520, Note_on_c, 0, 64, 105
2, 215832, Note_on_c, 0, 64, 0
2, 216000, Note_on_c, 0, 69, 105
2, 216480, Note_on_c, 0, 78, 105
2, 216792, Note_on_c, 0, 78, 0
2, 216792, Note_on_c, 0, 69, 0
2, 216960, Note_on_c, 0, 79, 105
2, 216960, Note_on_c, 0, 67, 105
2, 217272, Note_on_c, 0, 67, 0
2, 217272, Note_on_c, 0, 79, 0
2, 217440, Note_on_c, 0, 82, 105
2, 217440, Note_on_c, 0, 74, 105
2, 217560, Note_on_c, 0, 74, 0
2, 217560, Note_on_c, 0, 82, 0
2, 217560, Note_on_c, 0, 81, 105
2, 217560, Note_on_c, 0, 72, 105
2, 217884, Note_on_c, 0, 72, 0
2, 217884, Note_on_c, 0, 81, 0
2, 217920, Note_on_c, 0, 70, 105
2, 217920, Note_on_c, 0, 79, 105
2, 218232, Note_on_c, 0, 79, 0
2, 218232, Note_on_c, 0, 70, 0
2, 218400, Note_on_c, 0, 69, 105
2, 218400, Note_on_c, 0, 78, 105
2, 218712, Note_on_c, 0, 78, 0
2, 218712, Note_on_c, 0, 69, 0
2, 218880, Note_on_c, 0, 79, 105
2, 218880, Note_on_c, 0, 67, 105
2, 219840, Note_on_c, 0, 67, 0
2, 219840, Note_on_c, 0, 79, 0
2, 219840, End_track
3, 0, Start_track
3, 0, Program_c, 0, 68
3, 0, Control_c, 0, 7, 93
3, 0, Control_c, 0, 91, 80
3, 105120, Note_on_c, 0, 71, 70
3, 105888, Note_on_c, 0, 71, 0
3, 107040, Note_on_c, 0, 72, 70
3, 107424, Note_on_c, 0, 72, 0
3, 107520, Note_on_c, 0, 72, 70
3, 107904, Note_on_c, 0, 72, 0
3, 108000, Note_on_c, 0, 72, 70
3, 108480, Note_on_c, 0, 72, 0
3, 108480, Note_on_c, 0, 66, 70
3, 108864, Note_on_c, 0, 66, 0
3, 108960, Note_on_c, 0, 67, 70
3, 109080, Note_on_c, 0, 67, 0
3, 109080, Note_on_c, 0, 69, 70
3, 109200, Note_on_c, 0, 69, 0
3, 109200, Note_on_c, 0, 71, 70
3, 109320, Note_on_c, 0, 71, 0
3, 109320, Note_on_c, 0, 72, 70
3, 109416, Note_on_c, 0, 72, 0
3, 109440, Note_on_c, 0, 71, 70
3, 109680, Note_on_c, 0, 71, 0
3, 109680, Note_on_c, 0, 74, 70
3, 109872, Note_on_c, 0, 74, 0
3, 109920, Note_on_c, 0, 71, 70
3, 110304, Note_on_c, 0, 71, 0
3, 110880, Note_on_c, 0, 76, 70
3, 111360, Note_on_c, 0, 76, 0
3, 111360, Note_on_c, 0, 74, 70
3, 111840, Note_on_c, 0, 74, 0
3, 111840, Note_on_c, 0, 73, 70
3, 112224, Note_on_c, 0, 73, 0
3, 112320, Note_on_c, 0, 78, 90
3, 113040, Note_on_c, 0, 78, 0
3, 113040, Note_on_c, 0, 76, 70
3, 113232, Note_on_c, 0, 76, 0
3, 113280, Note_on_c, 0, 74, 70
3, 113664, Note_on_c, 0, 74, 0
3, 113760, Note_on_c, 0, 78, 70
3, 113880, Note_on_c, 0, 78, 0
3, 113880, Note_on_c, 0, 76, 70
3, 114168, Note_on_c, 0, 76, 0
3, 114240, Note_on_c, 0, 74, 70
3, 114552, Note_on_c, 0, 74, 0
3, 114720, Note_on_c, 0, 73, 70
3, 115032, Note_on_c, 0, 73, 0
3, 116640, Note_on_c, 0, 71, 70
3, 117408, Note_on_c, 0, 71, 0
3, 118560, Note_on_c, 0, 72, 70
3, 118944, Note_on_c, 0, 72, 0
3, 119040, Note_on_c, 0, 72, 70
3, 119424, Note_on_c, 0, 72, 0
3, 119520, Note_on_c, 0, 72, 70
3, 120000, Note_on_c, 0, 72, 0
3, 120000, Note_on_c, 0, 66, 70
3, 120384, Note_on_c, 0, 66, 0
3, 120480, Note_on_c, 0, 67, 70
3, 120600, Note_on_c, 0, 67, 0
3, 120600, Note_on_c, 0, 69, 70
3, 120720, Note_on_c, 0, 69, 0
3, 120720, Note_on_c, 0, 71, 70
3, 120840, Note_on_c, 0, 71, 0
3, 120840, Note_on_c, 0, 72, 70
3, 120936, Note_on_c, 0, 72, 0
3, 120960, Note_on_c, 0, 71, 70
3, 121200, Note_on_c, 0, 71, 0
3, 121200, Note_on_c, 0, 74, 70
3, 121392, Note_on_c, 0, 74, 0
3, 121440, Note_on_c, 0, 71, 70
3, 121824, Note_on_c, 0, 71, 0
3, 122400, Note_on_c, 0, 76, 70
3, 122880, Note_on_c, 0, 76, 0
3, 122880, Note_on_c, 0, 74, 70
3, 123360, Note_on_c, 0, 74, 0
3, 123360, Note_on_c, 0, 73, 70
3, 123744, Note_on_c, 0, 73, 0
3, 123840, Note_on_c, 0, 78, 90
3, 124560, Note_on_c, 0, 78, 0
3, 124560, Note_on_c, 0, 76, 70
3, 124752, Note_on_c, 0, 76, 0
3, 124800, Note_on_c, 0, 74, 70
3, 125184, Note_on_c, 0, 74, 0
3, 125280, Note_on_c, 0, 78, 70
3, 125400, Note_on_c, 0, 78, 0
3, 125400, Note_on_c, 0, 76, 70
3, 125688, Note_on_c, 0, 76, 0
3, 125760, Note_on_c, 0, 74, 70
3, 126072, Note_on_c, 0, 74, 0
3, 126240, Note_on_c, 0, 73, 70
3, 126552, Note_on_c, 0, 73, 0
3, 129600, Note_on_c, 0, 62, 80
3, 130176, Note_on_c, 0, 62, 0
3, 130320, Note_on_c, 0, 71, 80
3, 130560, Note_on_c, 0, 71, 0
3, 130560, Note_on_c, 0, 69, 80
3, 130800, Note_on_c, 0, 69, 0
3, 130800, Note_on_c, 0, 67, 80
3, 130992, Note_on_c, 0, 67, 0
3, 131040, Note_on_c, 0, 67, 80
3, 131280, Note_on_c, 0, 67, 0
3, 131280, Note_on_c, 0, 69, 80
3, 131472, Note_on_c, 0, 69, 0
3, 131520, Note_on_c, 0, 66, 80
3, 131904, Note_on_c, 0, 66, 0
3, 132000, Note_on_c, 0, 67, 80
3, 132240, Note_on_c, 0, 67, 0
3, 132240, Note_on_c, 0, 69, 80
3, 132432, Note_on_c, 0, 69, 0
3, 132480, Note_on_c, 0, 67, 80
3, 132864, Note_on_c, 0, 67, 0
3, 132960, Note_on_c, 0, 66, 80
3, 133344, Note_on_c, 0, 66, 0
3, 133920, Note_on_c, 0, 71, 70
3, 134688, Note_on_c, 0, 71, 0
3, 135840, Note_on_c, 0, 72, 70
3, 136224, Note_on_c, 0, 72, 0
3, 136320, Note_on_c, 0, 72, 70
3, 136704, Note_on_c, 0, 72, 0
3, 136800, Note_on_c, 0, 72, 70
3, 137280, Note_on_c, 0, 72, 0
3, 137280, Note_on_c, 0, 66, 70
3, 137664, Note_on_c, 0, 66, 0
3, 137760, Note_on_c, 0, 67, 70
3, 137880, Note_on_c, 0, 67, 0
3, 137880, Note_on_c, 0, 69, 70
3, 138000, Note_on_c, 0, 69, 0
3, 138000, Note_on_c, 0, 71, 70
3, 138120, Note_on_c, 0, 71, 0
3, 138120, Note_on_c, 0, 72, 70
3, 138216, Note_on_c, 0, 72, 0
3, 138240, Note_on_c, 0, 71, 70
3, 138480, Note_on_c, 0, 71, 0
3, 138480, Note_on_c, 0, 74, 70
3, 138672, Note_on_c, 0, 74, 0
3, 138720, Note_on_c, 0, 71, 70
3, 139104, Note_on_c, 0, 71, 0
3, 139680, Note_on_c, 0, 79, 80
3, 139812, Note_on_c, 0, 79, 0
3, 139920, Note_on_c, 0, 78, 80
3, 140052, Note_on_c, 0, 78, 0
3, 140160, Note_on_c, 0, 76, 80
3, 140292, Note_on_c, 0, 76, 0
3, 140400, Note_on_c, 0, 74, 80
3, 140532, Note_on_c, 0, 74, 0
3, 140640, Note_on_c, 0, 72, 80
3, 140772, Note_on_c, 0, 72, 0
3, 140880, Note_on_c, 0, 71, 80
3, 141012, Note_on_c, 0, 71, 0
3, 141120, Note_on_c, 0, 69, 70
3, 141252, Note_on_c, 0, 69, 0
3, 141360, Note_on_c, 0, 66, 70
3, 141600, Note_on_c, 0, 66, 0
3, 141600, Note_on_c, 0, 67, 70
3, 141840, Note_on_c, 0, 67, 0
3, 141840, Note_on_c, 0, 69, 70
3, 142032, Note_on_c, 0, 69, 0
3, 142080, Note_on_c, 0, 67, 70
3, 142464, Note_on_c, 0, 67, 0
3, 142560, Note_on_c, 0, 79, 70
3, 142692, Note_on_c, 0, 79, 0
3, 142800, Note_on_c, 0, 78, 70
3, 142932, Note_on_c, 0, 78, 0
3, 143040, Note_on_c, 0, 76, 70
3, 143172, Note_on_c, 0, 76, 0
3, 143280, Note_on_c, 0, 74, 70
3, 143412, Note_on_c, 0, 74, 0
3, 143520, Note_on_c, 0, 72, 70
3, 143652, Note_on_c, 0, 72, 0
3, 143760, Note_on_c, 0, 71, 70
3, 143892, Note_on_c, 0, 71, 0
3, 144000, Note_on_c, 0, 69, 70
3, 144132, Note_on_c, 0, 69, 0
3, 144240, Note_on_c, 0, 66, 70
3, 144480, Note_on_c, 0, 66, 0
3, 144480, Note_on_c, 0, 67, 70
3, 144720, Note_on_c, 0, 67, 0
3, 144720, Note_on_c, 0, 69, 70
3, 144912, Note_on_c, 0, 69, 0
3, 144960, Note_on_c, 0, 67, 70
3, 145344, Note_on_c, 0, 67, 0
3, 145440, Note_on_c, 0, 67, 70
3, 146208, Note_on_c, 0, 67, 0
3, 146400, Note_on_c, 0, 67, 70
3, 146460, Note_on_c, 0, 67, 0
3, 146460, Note_on_c, 0, 66, 70
3, 146520, Note_on_c, 0, 66, 0
3, 146520, Note_on_c, 0, 67, 70
3, 146580, Note_on_c, 0, 67, 0
3, 146580, Note_on_c, 0, 66, 70
3, 146640, Note_on_c, 0, 66, 0
3, 146640, Note_on_c, 0, 67, 70
3, 146700, Note_on_c, 0, 67, 0
3, 146700, Note_on_c, 0, 66, 70
3, 146760, Note_on_c, 0, 66, 0
3, 146760, Note_on_c, 0, 64, 70
3, 146820, Note_on_c, 0, 64, 0
3, 146820, Note_on_c, 0, 66, 70
3, 146868, Note_on_c, 0, 66, 0
3, 146880, Note_on_c, 0, 67, 58
3, 147648, Note_on_c, 0, 67, 0
3, 149760, Note_on_c, 0, 62, 80
3, 150336, Note_on_c, 0, 62, 0
3, 150480, Note_on_c, 0, 71, 80
3, 150720, Note_on_c, 0, 71, 0
3, 150720, Note_on_c, 0, 69, 80
3, 150960, Note_on_c, 0, 69, 0
3, 150960, Note_on_c, 0, 67, 80
3, 151152, Note_on_c, 0, 67, 0
3, 151200, Note_on_c, 0, 67, 80
3, 151440, Note_on_c, 0, 67, 0
3, 151440, Note_on_c, 0, 69, 80
3, 151632, Note_on_c, 0, 69, 0
3, 151680, Note_on_c, 0, 66, 80
3, 152064, Note_on_c, 0, 66, 0
3, 152160, Note_on_c, 0, 67, 80
3, 152400, Note_on_c, 0, 67, 0
3, 152400, Note_on_c, 0, 69, 80
3, 152592, Note_on_c, 0, 69, 0
3, 152640, Note_on_c, 0, 67, 80
3, 153024, Note_on_c, 0, 67, 0
3, 153120, Note_on_c, 0, 66, 80
3, 153504, Note_on_c, 0, 66, 0
3, 154080, Note_on_c, 0, 71, 70
3, 154848, Note_on_c, 0, 71, 0
3, 156000, Note_on_c, 0, 72, 70
3, 156384, Note_on_c, 0, 72, 0
3, 156480, Note_on_c, 0, 72, 70
3, 156864, Note_on_c, 0, 72, 0
3, 156960, Note_on_c, 0, 72, 70
3, 157440, Note_on_c, 0, 72, 0
3, 157440, Note_on_c, 0, 66, 70
3, 157824, Note_on_c, 0, 66, 0
3, 157920, Note_on_c, 0, 67, 70
3, 158040, Note_on_c, 0, 67, 0
3, 158040, Note_on_c, 0, 69, 70
3, 158160, Note_on_c, 0, 69, 0
3, 158160, Note_on_c, 0, 71, 70
3, 158280, Note_on_c, 0, 71, 0
3, 158280, Note_on_c, 0, 72, 70
3, 158376, Note_on_c, 0, 72, 0
3, 158400, Note_on_c, 0, 71, 70
3, 158640, Note_on_c, 0, 71, 0
3, 158640, Note_on_c, 0, 74, 70
3, 158832, Note_on_c, 0, 74, 0
3, 158880, Note_on_c, 0, 71, 70
3, 159264, Note_on_c, 0, 71, 0
3, 159840, Note_on_c, 0, 79, 80
3, 159972, Note_on_c, 0, 79, 0
3, 160080, Note_on_c, 0, 78, 80
3, 160212, Note_on_c, 0, 78, 0
3, 160320, Note_on_c, 0, 76, 80
3, 160452, Note_on_c, 0, 76, 0
3, 160560, Note_on_c, 0, 74, 80
3, 160692, Note_on_c, 0, 74, 0
3, 160800, Note_on_c, 0, 72, 80
3, 160932, Note_on_c, 0, 72, 0
3, 161040, Note_on_c, 0, 71, 80
3, 161172, Note_on_c, 0, 71, 0
3, 161280, Note_on_c, 0, 69, 70
3, 161412, Note_on_c, 0, 69, 0
3, 161520, Note_on_c, 0, 66, 70
3, 161760, Note_on_c, 0, 66, 0
3, 161760, Note_on_c, 0, 67, 70
3, 162000, Note_on_c, 0, 67, 0
3, 162000, Note_on_c, 0, 69, 70
3, 162192, Note_on_c, 0, 69, 0
3, 162240, Note_on_c, 0, 67, 70
3, 162624, Note_on_c, 0, 67, 0
3, 162720, Note_on_c, 0, 79, 70
3, 162852, Note_on_c, 0, 79, 0
3, 162960, Note_on_c, 0, 78, 70
3, 163092, Note_on_c, 0, 78, 0
3, 163200, Note_on_c, 0, 76, 70
3, 163332, Note_on_c, 0, 76, 0
3, 163440, Note_on_c, 0, 74, 70
3, 163572, Note_on_c, 0, 74, 0
3, 163680, Note_on_c, 0, 72, 70
3, 163812, Note_on_c, 0, 72, 0
3, 163920, Note_on_c, 0, 71, 70
3, 164052, Note_on_c, 0, 71, 0
3, 164160, Note_on_c, 0, 69, 70
3, 164292, Note_on_c, 0, 69, 0
3, 164400, Note_on_c, 0, 66, 70
3, 164640, Note_on_c, 0, 66, 0
3, 164640, Note_on_c, 0, 67, 70
3, 164880, Note_on_c, 0, 67, 0
3, 164880, Note_on_c, 0, 69, 70
3, 165072, Note_on_c, 0, 69, 0
3, 165120, Note_on_c, 0, 67, 70
3, 165504, Note_on_c, 0, 67, 0
3, 165600, Note_on_c, 0, 67, 70
3, 166368, Note_on_c, 0, 67, 0
3, 166560, Note_on_c, 0, 67, 70
3, 166620, Note_on_c, 0, 67, 0
3, 166620, Note_on_c, 0, 66, 70
3, 166680, Note_on_c, 0, 66, 0
3, 166680, Note_on_c, 0, 67, 70
3, 166740, Note_on_c, 0, 67, 0
3, 166740, Note_on_c, 0, 66, 70
3, 166800, Note_on_c, 0, 66, 0
3, 166800, Note_on_c, 0, 67, 70
3, 166860, Note_on_c, 0, 67, 0
3, 166860, Note_on_c, 0, 66, 70
3, 166920, Note_on_c, 0, 66, 0
3, 166920, Note_on_c, 0, 64, 70
3, 166980, Note_on_c, 0, 64, 0
3, 166980, Note_on_c, 0, 66, 70
3, 167028, Note_on_c, 0, 66, 0
3, 167040, Note_on_c, 0, 67, 58
3, 167808, Note_on_c, 0, 67, 0
3, 167808, End_track
4, 0, Start_track
4, 0, Program_c, 1, 70
4, 0, Control_c, 1, 7, 94
4, 0, Control_c, 1, 10, 72
4, 0, Control_c, 1, 91, 80
4, 1440, Note_on_c, 1, 55, 105
4, 1752, Note_on_c, 1, 55, 0
4, 1920, Note_on_c, 1, 50, 105
4, 2232, Note_on_c, 1, 50, 0
4, 2400, Note_on_c, 1, 55, 105
4, 2712, Note_on_c, 1, 55, 0
4, 2880, Note_on_c, 1, 58, 105
4, 3648, Note_on_c, 1, 58, 0
4, 3840, Note_on_c, 1, 60, 105
4, 4080, Note_on_c, 1, 60, 0
4, 4080, Note_on_c, 1, 57, 105
4, 4272, Note_on_c, 1, 57, 0
4, 4320, Note_on_c, 1, 55, 105
4, 4632, Note_on_c, 1, 55, 0
4, 4800, Note_on_c, 1, 54, 105
4, 5112, Note_on_c, 1, 54, 0
4, 5280, Note_on_c, 1, 55, 105
4, 5592, Note_on_c, 1, 55, 0
4, 5760, Note_on_c, 1, 57, 105
4, 6000, Note_on_c, 1, 57, 0
4, 6000, Note_on_c, 1, 54, 105
4, 6192, Note_on_c, 1, 54, 0
4, 6240, Note_on_c, 1, 50, 105
4, 6624, Note_on_c, 1, 50, 0
4, 12960, Note_on_c, 1, 58, 105
4, 13248, Note_on_c, 1, 58, 0
4, 13440, Note_on_c, 1, 58, 105
4, 13728, Note_on_c, 1, 58, 0
4, 13920, Note_on_c, 1, 58, 105
4, 14208, Note_on_c, 1, 58, 0
4, 14400, Note_on_c, 1, 57, 105
4, 14688, Note_on_c, 1, 57, 0
4, 14880, Note_on_c, 1, 50, 105
4, 15168, Note_on_c, 1, 50, 0
4, 15360, Note_on_c, 1, 51, 105
4, 15648, Note_on_c, 1, 51, 0
4, 15840, Note_on_c, 1, 48, 105
4, 16128, Note_on_c, 1, 48, 0
4, 16320, Note_on_c, 1, 50, 105
4, 16608, Note_on_c, 1, 50, 0
4, 16800, Note_on_c, 1, 38, 105
4, 17088, Note_on_c, 1, 38, 0
4, 17280, Note_on_c, 1, 43, 105
4, 17568, Note_on_c, 1, 43, 0
4, 17760, Note_on_c, 1, 50, 105
4, 18048, Note_on_c, 1, 50, 0
4, 18240, Note_on_c, 1, 55, 105
4, 18528, Note_on_c, 1, 55, 0
4, 18720, Note_on_c, 1, 55, 105
4, 19032, Note_on_c, 1, 55, 0
4, 19200, Note_on_c, 1, 50, 105
4, 19512, Note_on_c, 1, 50, 0
4, 19680, Note_on_c, 1, 55, 105
4, 19992, Note_on_c, 1, 55, 0
4, 20160, Note_on_c, 1, 58, 105
4, 20928, Note_on_c, 1, 58, 0
4, 21120, Note_on_c, 1, 60, 105
4, 21360, Note_on_c, 1, 60, 0
4, 21360, Note_on_c, 1, 57, 105
4, 21552, Note_on_c, 1, 57, 0
4, 21600, Note_on_c, 1, 55, 105
4, 21912, Note_on_c, 1, 55, 0
4, 22080, Note_on_c, 1, 54, 105
4, 22392, Note_on_c, 1, 54, 0
4, 22560, Note_on_c, 1, 55, 105
4, 22872, Note_on_c, 1, 55, 0
4, 23040, Note_on_c, 1, 57, 105
4, 23280, Note_on_c, 1, 57, 0
4, 23280, Note_on_c, 1, 54, 105
4, 23472, Note_on_c, 1, 54, 0
4, 23520, Note_on_c, 1, 50, 105
4, 23904, Note_on_c, 1, 50, 0
4, 30240, Note_on_c, 1, 58, 105
4, 30528, Note_on_c, 1, 58, 0
4, 30720, Note_on_c, 1, 58, 105
4, 31008, Note_on_c, 1, 58, 0
4, 31200, Note_on_c, 1, 58, 105
4, 31488, Note_on_c, 1, 58, 0
4, 31680, Note_on_c, 1, 57, 105
4, 31968, Note_on_c, 1, 57, 0
4, 32160, Note_on_c, 1, 50, 105
4, 32448, Note_on_c, 1, 50, 0
4, 32640, Note_on_c, 1, 51, 105
4, 32928, Note_on_c, 1, 51, 0
4, 33120, Note_on_c, 1, 48, 105
4, 33408, Note_on_c, 1, 48, 0
4, 33600, Note_on_c, 1, 50, 105
4, 33888, Note_on_c, 1, 50, 0
4, 34080, Note_on_c, 1, 38, 105
4, 34368, Note_on_c, 1, 38, 0
4, 34560, Note_on_c, 1, 43, 105
4, 34848, Note_on_c, 1, 43, 0
4, 35040, Note_on_c, 1, 50, 105
4, 35328, Note_on_c, 1, 50, 0
4, 35520, Note_on_c, 1, 55, 105
4, 35808, Note_on_c, 1, 55, 0
4, 36000, Note_on_c, 1, 62, 105
4, 36312, Note_on_c, 1, 62, 0
4, 36480, Note_on_c, 1, 62, 105
4, 36792, Note_on_c, 1, 62, 0
4, 36960, Note_on_c, 1, 62, 105
4, 37272, Note_on_c, 1, 62, 0
4, 37440, Note_on_c, 1, 61, 105
4, 37752, Note_on_c, 1, 61, 0
4, 37920, Note_on_c, 1, 61, 105
4, 38232, Note_on_c, 1, 61, 0
4, 38400, Note_on_c, 1, 61, 105
4, 38712, Note_on_c, 1, 61, 0
4, 38880, Note_on_c, 1, 60, 105
4, 39192, Note_on_c, 1, 60, 0
4, 39360, Note_on_c, 1, 60, 105
4, 39672, Note_on_c, 1, 60, 0
4, 39840, Note_on_c, 1, 60, 105
4, 40152, Note_on_c, 1, 60, 0
4, 40320, Note_on_c, 1, 58, 105
4, 40632, Note_on_c, 1, 58, 0
4, 40800, Note_on_c, 1, 58, 105
4, 41112, Note_on_c, 1, 58, 0
4, 41280, Note_on_c, 1, 46, 105
4, 41592, Note_on_c, 1, 46, 0
4, 47520, Note_on_c, 1, 55, 105
4, 47832, Note_on_c, 1, 55, 0
4, 48000, Note_on_c, 1, 50, 105
4, 48312, Note_on_c, 1, 50, 0
4, 48480, Note_on_c, 1, 55, 105
4, 48792, Note_on_c, 1, 55, 0
4, 48960, Note_on_c, 1, 58, 105
4, 49728, Note_on_c, 1, 58, 0
4, 49920, Note_on_c, 1, 60, 105
4, 50160, Note_on_c, 1, 60, 0
4, 50160, Note_on_c, 1, 57, 105
4, 50352, Note_on_c, 1, 57, 0
4, 50400, Note_on_c, 1, 55, 105
4, 50712, Note_on_c, 1, 55, 0
4, 50880, Note_on_c, 1, 54, 105
4, 51192, Note_on_c, 1, 54, 0
4, 51360, Note_on_c, 1, 55, 105
4, 51672, Note_on_c, 1, 55, 0
4, 51840, Note_on_c, 1, 57, 105
4, 52080, Note_on_c, 1, 57, 0
4, 52080, Note_on_c, 1, 54, 105
4, 52272, Note_on_c, 1, 54, 0
4, 52320, Note_on_c, 1, 50, 105
4, 52704, Note_on_c, 1, 50, 0
4, 59040, Note_on_c, 1, 58, 105
4, 59328, Note_on_c, 1, 58, 0
4, 59520, Note_on_c, 1, 58, 105
4, 59808, Note_on_c, 1, 58, 0
4, 60000, Note_on_c, 1, 58, 105
4, 60288, Note_on_c, 1, 58, 0
4, 60480, Note_on_c, 1, 57, 105
4, 60768, Note_on_c, 1, 57, 0
4, 60960, Note_on_c, 1, 50, 105
4, 61248, Note_on_c, 1, 50, 0
4, 61440, Note_on_c, 1, 51, 105
4, 61728, Note_on_c, 1, 51, 0
4, 64800, Note_on_c, 1, 58, 105
4, 65112, Note_on_c, 1, 58, 0
4, 65280, Note_on_c, 1, 57, 105
4, 65592, Note_on_c, 1, 57, 0
4, 65760, Note_on_c, 1, 55, 105
4, 66072, Note_on_c, 1, 55, 0
4, 66240, Note_on_c, 1, 54, 105
4, 66552, Note_on_c, 1, 54, 0
4, 66720, Note_on_c, 1, 50, 105
4, 67032, Note_on_c, 1, 50, 0
4, 67200, Note_on_c, 1, 51, 105
4, 67512, Note_on_c, 1, 51, 0
4, 67680, Note_on_c, 1, 48, 105
4, 67992, Note_on_c, 1, 48, 0
4, 68160, Note_on_c, 1, 50, 105
4, 68472, Note_on_c, 1, 50, 0
4, 68640, Note_on_c, 1, 50, 105
4, 68952, Note_on_c, 1, 50, 0
4, 69120, Note_on_c, 1, 43, 105
4, 69888, Note_on_c, 1, 43, 0
4, 70560, Note_on_c, 1, 62, 105
4, 70872, Note_on_c, 1, 62, 0
4, 71040, Note_on_c, 1, 62, 105
4, 71352, Note_on_c, 1, 62, 0
4, 71520, Note_on_c, 1, 62, 105
4, 71832, Note_on_c, 1, 62, 0
4, 72000, Note_on_c, 1, 61, 105
4, 72312, Note_on_c, 1, 61, 0
4, 72480, Note_on_c, 1, 61, 105
4, 72792, Note_on_c, 1, 61, 0
4, 72960, Note_on_c, 1, 61, 105
4, 73272, Note_on_c, 1, 61, 0
4, 73440, Note_on_c, 1, 60, 105
4, 73752, Note_on_c, 1, 60, 0
4, 73920, Note_on_c, 1, 60, 105
4, 74232, Note_on_c, 1, 60, 0
4, 74400, Note_on_c, 1, 60, 105
4, 74712, Note_on_c, 1, 60, 0
4, 74880, Note_on_c, 1, 58, 105
4, 75192, Note_on_c, 1, 58, 0
4, 75360, Note_on_c, 1, 58, 105
4, 75672, Note_on_c, 1, 58, 0
4, 75840, Note_on_c, 1, 46, 105
4, 76152, Note_on_c, 1, 46, 0
4, 82080, Note_on_c, 1, 55, 105
4, 82392, Note_on_c, 1, 55, 0
4, 82560, Note_on_c, 1, 50, 105
4, 82872, Note_on_c, 1, 50, 0
4, 83040, Note_on_c, 1, 55, 105
4, 83352, Note_on_c, 1, 55, 0
4, 83520, Note_on_c, 1, 58, 105
4, 84288, Note_on_c, 1, 58, 0
4, 84480, Note_on_c, 1, 60, 105
4, 84720, Note_on_c, 1, 60, 0
4, 84720, Note_on_c, 1, 57, 105
4, 84912, Note_on_c, 1, 57, 0
4, 84960, Note_on_c, 1, 55, 105
4, 85272, Note_on_c, 1, 55, 0
4, 85440, Note_on_c, 1, 54, 105
4, 85752, Note_on_c, 1, 54, 0
4, 85920, Note_on_c, 1, 55, 105
4, 86232, Note_on_c, 1, 55, 0
4, 86400, Note_on_c, 1, 57, 105
4, 86640, Note_on_c, 1, 57, 0
4, 86640, Note_on_c, 1, 54, 105
4, 86832, Note_on_c, 1, 54, 0
4, 86880, Note_on_c, 1, 50, 105
4, 87264, Note_on_c, 1, 50, 0
4, 93600, Note_on_c, 1, 58, 105
4, 93888, Note_on_c, 1, 58, 0
4, 94080, Note_on_c, 1, 58, 105
4, 94368, Note_on_c, 1, 58, 0
4, 94560, Note_on_c, 1, 58, 105
4, 94848, Note_on_c, 1, 58, 0
4, 95040, Note_on_c, 1, 57, 105
4, 95328, Note_on_c, 1, 57, 0
4, 95520, Note_on_c, 1, 50, 105
4, 95808, Note_on_c, 1, 50, 0
4, 96000, Note_on_c, 1, 51, 105
4, 96288, Note_on_c, 1, 51, 0
4, 99360, Note_on_c, 1, 58, 105
4, 99672, Note_on_c, 1, 58, 0
4, 99840, Note_on_c, 1, 57, 105
4, 100152, Note_on_c, 1, 57, 0
4, 100320, Note_on_c, 1, 55, 105
4, 100632, Note_on_c, 1, 55, 0
4, 100800, Note_on_c, 1, 54, 105
4, 101112, Note_on_c, 1, 54, 0
4, 101280, Note_on_c, 1, 50, 105
4, 101592, Note_on_c, 1, 50, 0
4, 101760, Note_on_c, 1, 51, 105
4, 102072, Note_on_c, 1, 51, 0
4, 102240, Note_on_c, 1, 48, 105
4, 102552, Note_on_c, 1, 48, 0
4, 102720, Note_on_c, 1, 50, 105
4, 103032, Note_on_c, 1, 50, 0
4, 103200, Note_on_c, 1, 50, 105
4, 103512, Note_on_c, 1, 50, 0
4, 103680, Note_on_c, 1, 43, 105
4, 104448, Note_on_c, 1, 43, 0
4, 105120, Note_on_c, 1, 55, 70
4, 105888, Note_on_c, 1, 55, 0
4, 107040, Note_on_c, 1, 50, 70
4, 107424, Note_on_c, 1, 50, 0
4, 107520, Note_on_c, 1, 50, 70
4, 107904, Note_on_c, 1, 50, 0
4, 108000, Note_on_c, 1, 50, 70
4, 109368, Note_on_c, 1, 50, 0
4, 109440, Note_on_c, 1, 55, 70
4, 109752, Note_on_c, 1, 55, 0
4, 109920, Note_on_c, 1, 43, 70
4, 110232, Note_on_c, 1, 43, 0
4, 111360, Note_on_c, 1, 57, 70
4, 111840, Note_on_c, 1, 57, 0
4, 111840, Note_on_c, 1, 55, 70
4, 112224, Note_on_c, 1, 55, 0
4, 112320, Note_on_c, 1, 54, 70
4, 112800, Note_on_c, 1, 54, 0
4, 112800, Note_on_c, 1, 57, 70
4, 113280, Note_on_c, 1, 57, 0
4, 113280, Note_on_c, 1, 59, 70
4, 113664, Note_on_c, 1, 59, 0
4, 113760, Note_on_c, 1, 55, 70
4, 114072, Note_on_c, 1, 55, 0
4, 114240, Note_on_c, 1, 57, 70
4, 114552, Note_on_c, 1, 57, 0
4, 114720, Note_on_c, 1, 45, 70
4, 115032, Note_on_c, 1, 45, 0
4, 115200, Note_on_c, 1, 50, 70
4, 115512, Note_on_c, 1, 50, 0
4, 115680, Note_on_c, 1, 45, 70
4, 115992, Note_on_c, 1, 45, 0
4, 116160, Note_on_c, 1, 38, 70
4, 116472, Note_on_c, 1, 38, 0
4, 116640, Note_on_c, 1, 55, 70
4, 117408, Note_on_c, 1, 55, 0
4, 118560, Note_on_c, 1, 50, 70
4, 118944, Note_on_c, 1, 50, 0
4, 119040, Note_on_c, 1, 50, 70
4, 119424, Note_on_c, 1, 50, 0
4, 119520, Note_on_c, 1, 50, 70
4, 120888, Note_on_c, 1, 50, 0
4, 120960, Note_on_c, 1, 55, 70
4, 121272, Note_on_c, 1, 55, 0
4, 121440, Note_on_c, 1, 43, 70
4, 121752, Note_on_c, 1, 43, 0
4, 122880, Note_on_c, 1, 57, 70
4, 123360, Note_on_c, 1, 57, 0
4, 123360, Note_on_c, 1, 55, 70
4, 123744, Note_on_c, 1, 55, 0
4, 123840, Note_on_c, 1, 54, 70
4, 124320, Note_on_c, 1, 54, 0
4, 124320, Note_on_c, 1, 57, 70
4, 124800, Note_on_c, 1, 57, 0
4, 124800, Note_on_c, 1, 59, 70
4, 125184, Note_on_c, 1, 59, 0
4, 125280, Note_on_c, 1, 55, 70
4, 125592, Note_on_c, 1, 55, 0
4, 125760, Note_on_c, 1, 57, 70
4, 126072, Note_on_c, 1, 57, 0
4, 126240, Note_on_c, 1, 45, 70
4, 126552, Note_on_c, 1, 45, 0
4, 126720, Note_on_c, 1, 50, 70
4, 127032, Note_on_c, 1, 50, 0
4, 127200, Note_on_c, 1, 45, 70
4, 127512, Note_on_c, 1, 45, 0
4, 127680, Note_on_c, 1, 38, 70
4, 127992, Note_on_c, 1, 38, 0
4, 128160, Note_on_c, 1, 38, 80
4, 128160, Note_on_c, 1, 50, 80
4, 128736, Note_on_c, 1, 50, 0
4, 128880, Note_on_c, 1, 57, 80
4, 129120, Note_on_c, 1, 57, 0
4, 129120, Note_on_c, 1, 55, 80
4, 129360, Note_on_c, 1, 55, 0
4, 129360, Note_on_c, 1, 54, 80
4, 129552, Note_on_c, 1, 54, 0
4, 129600, Note_on_c, 1, 54, 80
4, 129840, Note_on_c, 1, 54, 0
4, 129840, Note_on_c, 1, 55, 80
4, 130032, Note_on_c, 1, 55, 0
4, 130080, Note_on_c, 1, 59, 80
4, 130464, Note_on_c, 1, 59, 0
4, 130560, Note_on_c, 1, 60, 80
4, 130800, Note_on_c, 1, 60, 0
4, 130800, Note_on_c, 1, 62, 80
4, 130992, Note_on_c, 1, 62, 0
4, 131040, Note_on_c, 1, 50, 80
4, 131616, Note_on_c, 1, 50, 0
4, 131760, Note_on_c, 1, 57, 80
4, 132000, Note_on_c, 1, 57, 0
4, 132000, Note_on_c, 1, 55, 80
4, 132240, Note_on_c, 1, 55, 0
4, 132240, Note_on_c, 1, 54, 80
4, 132432, Note_on_c, 1, 54, 0
4, 132432, Note_on_c, 1, 38, 0
4, 132480, Note_on_c, 1, 43, 80
4, 132480, Note_on_c, 1, 55, 80
4, 132864, Note_on_c, 1, 55, 0
4, 132864, Note_on_c, 1, 43, 0
4, 132960, Note_on_c, 1, 50, 80
4, 132960, Note_on_c, 1, 38, 80
4, 133344, Note_on_c, 1, 38, 0
4, 133344, Note_on_c, 1, 50, 0
4, 133920, Note_on_c, 1, 55, 70
4, 134688, Note_on_c, 1, 55, 0
4, 135840, Note_on_c, 1, 50, 70
4, 136224, Note_on_c, 1, 50, 0
4, 136320, Note_on_c, 1, 50, 70
4, 136704, Note_on_c, 1, 50, 0
4, 136800, Note_on_c, 1, 50, 70
4, 138168, Note_on_c, 1, 50, 0
4, 138240, Note_on_c, 1, 55, 70
4, 138624, Note_on_c, 1, 55, 0
4, 138720, Note_on_c, 1, 43, 70
4, 139104, Note_on_c, 1, 43, 0
4, 139680, Note_on_c, 1, 64, 80
4, 139812, Note_on_c, 1, 64, 0
4, 139920, Note_on_c, 1, 62, 80
4, 140052, Note_on_c, 1, 62, 0
4, 140160, Note_on_c, 1, 60, 80
4, 140292, Note_on_c, 1, 60, 0
4, 140400, Note_on_c, 1, 59, 80
4, 140532, Note_on_c, 1, 59, 0
4, 140640, Note_on_c, 1, 57, 80
4, 140772, Note_on_c, 1, 57, 0
4, 140880, Note_on_c, 1, 55, 80
4, 141012, Note_on_c, 1, 55, 0
4, 141120, Note_on_c, 1, 54, 70
4, 141252, Note_on_c, 1, 54, 0
4, 141360, Note_on_c, 1, 50, 70
4, 141600, Note_on_c, 1, 50, 0
4, 141600, Note_on_c, 1, 52, 70
4, 141840, Note_on_c, 1, 52, 0
4, 141840, Note_on_c, 1, 54, 70
4, 142032, Note_on_c, 1, 54, 0
4, 142080, Note_on_c, 1, 55, 70
4, 142464, Note_on_c, 1, 55, 0
4, 142560, Note_on_c, 1, 64, 70
4, 142692, Note_on_c, 1, 64, 0
4, 142800, Note_on_c, 1, 62, 70
4, 142932, Note_on_c, 1, 62, 0
4, 143040, Note_on_c, 1, 60, 70
4, 143172, Note_on_c, 1, 60, 0
4, 143280, Note_on_c, 1, 59, 70
4, 143412, Note_on_c, 1, 59, 0
4, 143520, Note_on_c, 1, 57, 70
4, 143652, Note_on_c, 1, 57, 0
4, 143760, Note_on_c, 1, 55, 70
4, 143892, Note_on_c, 1, 55, 0
4, 144000, Note_on_c, 1, 54, 70
4, 144132, Note_on_c, 1, 54, 0
4, 144240, Note_on_c, 1, 50, 70
4, 144480, Note_on_c, 1, 50, 0
4, 144480, Note_on_c, 1, 52, 70
4, 144720, Note_on_c, 1, 52, 0
4, 144720, Note_on_c, 1, 54, 70
4, 144912, Note_on_c, 1, 54, 0
4, 144960, Note_on_c, 1, 55, 70
4, 145344, Note_on_c, 1, 55, 0
4, 145440, Note_on_c, 1, 48, 70
4, 145752, Note_on_c, 1, 48, 0
4, 145920, Note_on_c, 1, 50, 70
4, 146232, Note_on_c, 1, 50, 0
4, 146400, Note_on_c, 1, 38, 70
4, 146712, Note_on_c, 1, 38, 0
4, 146880, Note_on_c, 1, 43, 70
4, 147192, Note_on_c, 1, 43, 0
4, 147360, Note_on_c, 1, 50, 70
4, 147672, Note_on_c, 1, 50, 0
4, 147840, Note_on_c, 1, 55, 70
4, 148152, Note_on_c, 1, 55, 0
4, 148320, Note_on_c, 1, 38, 80
4, 148320, Note_on_c, 1, 50, 80
4, 148896, Note_on_c, 1, 50, 0
4, 149040, Note_on_c, 1, 57, 80
4, 149280, Note_on_c, 1, 57, 0
4, 149280, Note_on_c, 1, 55, 80
4, 149520, Note_on_c, 1, 55, 0
4, 149520, Note_on_c, 1, 54, 80
4, 149712, Note_on_c, 1, 54, 0
4, 149760, Note_on_c, 1, 54, 80
4, 150000, Note_on_c, 1, 54, 0
4, 150000, Note_on_c, 1, 55, 80
4, 150192, Note_on_c, 1, 55, 0
4, 150240, Note_on_c, 1, 59, 80
4, 150624, Note_on_c, 1, 59, 0
4, 150720, Note_on_c, 1, 60, 80
4, 150960, Note_on_c, 1, 60, 0
4, 150960, Note_on_c, 1, 62, 80
4, 151152, Note_on_c, 1, 62, 0
4, 151200, Note_on_c, 1, 50, 80
4, 151776, Note_on_c, 1, 50, 0
4, 151920, Note_on_c, 1, 57, 80
4, 152160, Note_on_c, 1, 57, 0
4, 152160, Note_on_c, 1, 55, 80
4, 152400, Note_on_c, 1, 55, 0
4, 152400, Note_on_c, 1, 54, 80
4, 152592, Note_on_c, 1, 54, 0
4, 152592, Note_on_c, 1, 38, 0
4, 152640, Note_on_c, 1, 43, 80
4, 152640, Note_on_c, 1, 55, 80
4, 153024, Note_on_c, 1, 55, 0
4, 153024, Note_on_c, 1, 43, 0
4, 153120, Note_on_c, 1, 50, 80
4, 153120, Note_on_c, 1, 38, 80
4, 153504, Note_on_c, 1, 38, 0
4, 153504, Note_on_c, 1, 50, 0
4, 154080, Note_on_c, 1, 55, 70
4, 154848, Note_on_c, 1, 55, 0
4, 156000, Note_on_c, 1, 50, 70
4, 156384, Note_on_c, 1, 50, 0
4, 156480, Note_on_c, 1, 50, 70
4, 156864, Note_on_c, 1, 50, 0
4, 156960, Note_on_c, 1, 50, 70
4, 158328, Note_on_c, 1, 50, 0
4, 158400, Note_on_c, 1, 55, 70
4, 158784, Note_on_c, 1, 55, 0
4, 158880, Note_on_c, 1, 43, 70
4, 159264, Note_on_c, 1, 43, 0
4, 159840, Note_on_c, 1, 64, 80
4, 159972, Note_on_c, 1, 64, 0
4, 160080, Note_on_c, 1, 62, 80
4, 160212, Note_on_c, 1, 62, 0
4, 160320, Note_on_c, 1, 60, 80
4, 160452, Note_on_c, 1, 60, 0
4, 160560, Note_on_c, 1, 59, 80
4, 160692, Note_on_c, 1, 59, 0
4, 160800, Note_on_c, 1, 57, 80
4, 160932, Note_on_c, 1, 57, 0
4, 161040, Note_on_c, 1, 55, 80
4, 161172, Note_on_c, 1, 55, 0
4, 161280, Note_on_c, 1, 54, 70
4, 161412, Note_on_c, 1, 54, 0
4, 161520, Note_on_c, 1, 50, 70
4, 161760, Note_on_c, 1, 50, 0
4, 161760, Note_on_c, 1, 52, 70
4, 162000, Note_on_c, 1, 52, 0
4, 162000, Note_on_c, 1, 54, 70
4, 162192, Note_on_c, 1, 54, 0
4, 162240, Note_on_c, 1, 55, 70
4, 162624, Note_on_c, 1, 55, 0
4, 162720, Note_on_c, 1, 64, 70
4, 162852, Note_on_c, 1, 64, 0
4, 162960, Note_on_c, 1, 62, 70
4, 163092, Note_on_c, 1, 62, 0
4, 163200, Note_on_c, 1, 60, 70
4, 163332, Note_on_c, 1, 60, 0
4, 163440, Note_on_c, 1, 59, 70
4, 163572, Note_on_c, 1, 59, 0
4, 163680, Note_on_c, 1, 57, 70
4, 163812, Note_on_c, 1, 57, 0
4, 163920, Note_on_c, 1, 55, 70
4, 164052, Note_on_c, 1, 55, 0
4, 164160, Note_on_c, 1, 54, 70
4, 164292, Note_on_c, 1, 54, 0
4, 164400, Note_on_c, 1, 50, 70
4, 164640, Note_on_c, 1, 50, 0
4, 164640, Note_on_c, 1, 52, 70
4, 164880, Note_on_c, 1, 52, 0
4, 164880, Note_on_c, 1, 54, 70
4, 165072, Note_on_c, 1, 54, 0
4, 165120, Note_on_c, 1, 55, 70
4, 165504, Note_on_c, 1, 55, 0
4, 165600, Note_on_c, 1, 48, 70
4, 165912, Note_on_c, 1, 48, 0
4, 166080, Note_on_c, 1, 50, 70
4, 166392, Note_on_c, 1, 50, 0
4, 166560, Note_on_c, 1, 38, 70
4, 166872, Note_on_c, 1, 38, 0
4, 167040, Note_on_c, 1, 43, 70
4, 167352, Note_on_c, 1, 43, 0
4, 167520, Note_on_c, 1, 50, 70
4, 167832, Note_on_c, 1, 50, 0
4, 168000, Note_on_c, 1, 55, 70
4, 168312, Note_on_c, 1, 55, 0
4, 168480, Note_on_c, 1, 55, 105
4, 168792, Note_on_c, 1, 55, 0
4, 168960, Note_on_c, 1, 50, 105
4, 169272, Note_on_c, 1, 50, 0
4, 169440, Note_on_c, 1, 55, 105
4, 169752, Note_on_c, 1, 55, 0
4, 169920, Note_on_c, 1, 58, 105
4, 170688, Note_on_c, 1, 58, 0
4, 170880, Note_on_c, 1, 60, 105
4, 171120, Note_on_c, 1, 60, 0
4, 171120, Note_on_c, 1, 57, 105
4, 171312, Note_on_c, 1, 57, 0
4, 171360, Note_on_c, 1, 55, 105
4, 171672, Note_on_c, 1, 55, 0
4, 171840, Note_on_c, 1, 54, 105
4, 172152, Note_on_c, 1, 54, 0
4, 172320, Note_on_c, 1, 55, 105
4, 172632, Note_on_c, 1, 55, 0
4, 172800, Note_on_c, 1, 57, 105
4, 173040, Note_on_c, 1, 57, 0
4, 173040, Note_on_c, 1, 54, 105
4, 173232, Note_on_c, 1, 54, 0
4, 173280, Note_on_c, 1, 50, 105
4, 173664, Note_on_c, 1, 50, 0
4, 180000, Note_on_c, 1, 58, 105
4, 180288, Note_on_c, 1, 58, 0
4, 180480, Note_on_c, 1, 58, 105
4, 180768, Note_on_c, 1, 58, 0
4, 180960, Note_on_c, 1, 58, 105
4, 181248, Note_on_c, 1, 58, 0
4, 181440, Note_on_c, 1, 57, 105
4, 181728, Note_on_c, 1, 57, 0
4, 181920, Note_on_c, 1, 50, 105
4, 182208, Note_on_c, 1, 50, 0
4, 182400, Note_on_c, 1, 51, 105
4, 182688, Note_on_c, 1, 51, 0
4, 182880, Note_on_c, 1, 48, 105
4, 183168, Note_on_c, 1, 48, 0
4, 183360, Note_on_c, 1, 50, 105
4, 183648, Note_on_c, 1, 50, 0
4, 183840, Note_on_c, 1, 38, 105
4, 184128, Note_on_c, 1, 38, 0
4, 184320, Note_on_c, 1, 43, 105
4, 184608, Note_on_c, 1, 43, 0
4, 184800, Note_on_c, 1, 50, 105
4, 185088, Note_on_c, 1, 50, 0
4, 185280, Note_on_c, 1, 55, 105
4, 185568, Note_on_c, 1, 55, 0
4, 185760, Note_on_c, 1, 62, 105
4, 186072, Note_on_c, 1, 62, 0
4, 186240, Note_on_c, 1, 62, 105
4, 186552, Note_on_c, 1, 62, 0
4, 186720, Note_on_c, 1, 62, 105
4, 187032, Note_on_c, 1, 62, 0
4, 187200, Note_on_c, 1, 61, 105
4, 187512, Note_on_c, 1, 61, 0
4, 187680, Note_on_c, 1, 61, 105
4, 187992, Note_on_c, 1, 61, 0
4, 188160, Note_on_c, 1, 61, 105
4, 188472, Note_on_c, 1, 61, 0
4, 188640, Note_on_c, 1, 60, 105
4, 188952, Note_on_c, 1, 60, 0
4, 189120, Note_on_c, 1, 60, 105
4, 189432, Note_on_c, 1, 60, 0
4, 189600, Note_on_c, 1, 60, 105
4, 189912, Note_on_c, 1, 60, 0
4, 190080, Note_on_c, 1, 58, 105
4, 190392, Note_on_c, 1, 58, 0
4, 190560, Note_on_c, 1, 58, 105
4, 190872, Note_on_c, 1, 58, 0
4, 191040, Note_on_c, 1, 46, 105
4, 191352, Note_on_c, 1, 46, 0
4, 197280, Note_on_c, 1, 55, 105
4, 197592, Note_on_c, 1, 55, 0
4, 197760, Note_on_c, 1, 50, 105
4, 198072, Note_on_c, 1, 50, 0
4, 198240, Note_on_c, 1, 55, 105
4, 198552, Note_on_c, 1, 55, 0
4, 198720, Note_on_c, 1, 58, 105
4, 199488, Note_on_c, 1, 58, 0
4, 199680, Note_on_c, 1, 60, 105
4, 199920, Note_on_c, 1, 60, 0
4, 199920, Note_on_c, 1, 57, 105
4, 200112, Note_on_c, 1, 57, 0
4, 200160, Note_on_c, 1, 55, 105
4, 200472, Note_on_c, 1, 55, 0
4, 200640, Note_on_c, 1, 54, 105
4, 200952, Note_on_c, 1, 54, 0
4, 201120, Note_on_c, 1, 55, 105
4, 201432, Note_on_c, 1, 55, 0
4, 201600, Note_on_c, 1, 57, 105
4, 201840, Note_on_c, 1, 57, 0
4, 201840, Note_on_c, 1, 54, 105
4, 202032, Note_on_c, 1, 54, 0
4, 202080, Note_on_c, 1, 50, 105
4, 202464, Note_on_c, 1, 50, 0
4, 208800, Note_on_c, 1, 58, 105
4, 209088, Note_on_c, 1, 58, 0
4, 209280, Note_on_c, 1, 58, 105
4, 209568, Note_on_c, 1, 58, 0
4, 209760, Note_on_c, 1, 58, 105
4, 210048, Note_on_c, 1, 58, 0
4, 210240, Note_on_c, 1, 57, 105
4, 210528, Note_on_c, 1, 57, 0
4, 210720, Note_on_c, 1, 50, 105
4, 211008, Note_on_c, 1, 50, 0
4, 211200, Note_on_c, 1, 51, 105
4, 211488, Note_on_c, 1, 51, 0
4, 214560, Note_on_c, 1, 58, 105
4, 214872, Note_on_c, 1, 58, 0
4, 215040, Note_on_c, 1, 57, 105
4, 215352, Note_on_c, 1, 57, 0
4, 215520, Note_on_c, 1, 55, 105
4, 215832, Note_on_c, 1, 55, 0
4, 216000, Note_on_c, 1, 54, 105
4, 216312, Note_on_c, 1, 54, 0
4, 216480, Note_on_c, 1, 50, 105
4, 216792, Note_on_c, 1, 50, 0
4, 216960, Note_on_c, 1, 51, 105
4, 217272, Note_on_c, 1, 51, 0
4, 217440, Note_on_c, 1, 48, 105
4, 217752, Note_on_c, 1, 48, 0
4, 217920, Note_on_c, 1, 50, 105
4, 218232, Note_on_c, 1, 50, 0
4, 218400, Note_on_c, 1, 50, 105
4, 218712, Note_on_c, 1, 50, 0
4, 218880, Note_on_c, 1, 43, 105
4, 219840, Note_on_c, 1, 43, 0
4, 219840, End_track
5, 0, Start_track
5, 0, Program_c, 2, 60
5, 0, Control_c, 2, 7, 109
5, 0, Control_c, 2, 10, 82
5, 0, Control_c, 2, 91, 80
5, 2880, Note_on_c, 2, 70, 105
5, 3648, Note_on_c, 2, 70, 0
5, 3840, Note_on_c, 2, 72, 92
5, 4104, Note_on_c, 2, 72, 0
5, 12960, Note_on_c, 2, 74, 105
5, 12960, Note_on_c, 2, 70, 105
5, 13272, Note_on_c, 2, 70, 0
5, 13272, Note_on_c, 2, 74, 0
5, 13440, Note_on_c, 2, 74, 105
5, 13440, Note_on_c, 2, 70, 105
5, 13752, Note_on_c, 2, 70, 0
5, 13752, Note_on_c, 2, 74, 0
5, 13920, Note_on_c, 2, 74, 105
5, 13920, Note_on_c, 2, 70, 105
5, 14232, Note_on_c, 2, 70, 0
5, 14232, Note_on_c, 2, 74, 0
5, 14400, Note_on_c, 2, 75, 105
5, 14400, Note_on_c, 2, 72, 105
5, 14712, Note_on_c, 2, 75, 0
5, 14880, Note_on_c, 2, 74, 105
5, 15192, Note_on_c, 2, 74, 0
5, 15192, Note_on_c, 2, 72, 0
5, 15360, Note_on_c, 2, 70, 105
5, 15672, Note_on_c, 2, 70, 0
5, 16320, Note_on_c, 2, 70, 105
5, 16320, Note_on_c, 2, 62, 105
5, 16632, Note_on_c, 2, 62, 0
5, 16632, Note_on_c, 2, 70, 0
5, 16800, Note_on_c, 2, 62, 105
5, 17112, Note_on_c, 2, 62, 0
5, 17280, Note_on_c, 2, 58, 105
5, 17280, Note_on_c, 2, 62, 105
5, 18048, Note_on_c, 2, 62, 0
5, 18048, Note_on_c, 2, 58, 0
5, 20160, Note_on_c, 2, 70, 105
5, 20928, Note_on_c, 2, 70, 0
5, 21120, Note_on_c, 2, 72, 92
5, 21384, Note_on_c, 2, 72, 0
5, 30240, Note_on_c, 2, 74, 105
5, 30240, Note_on_c, 2, 70, 105
5, 30552, Note_on_c, 2, 70, 0
5, 30552, Note_on_c, 2, 74, 0
5, 30720, Note_on_c, 2, 74, 105
5, 30720, Note_on_c, 2, 70, 105
5, 31032, Note_on_c, 2, 70, 0
5, 31032, Note_on_c, 2, 74, 0
5, 31200, Note_on_c, 2, 74, 105
5, 31200, Note_on_c, 2, 70, 105
5, 31512, Note_on_c, 2, 70, 0
5, 31512, Note_on_c, 2, 74, 0
5, 31680, Note_on_c, 2, 75, 105
5, 31680, Note_on_c, 2, 72, 105
5, 31992, Note_on_c, 2, 75, 0
5, 32160, Note_on_c, 2, 74, 105
5, 32472, Note_on_c, 2, 74, 0
5, 32472, Note_on_c, 2, 72, 0
5, 32640, Note_on_c, 2, 70, 105
5, 32952, Note_on_c, 2, 70, 0
5, 33600, Note_on_c, 2, 70, 105
5, 33600, Note_on_c, 2, 62, 105
5, 33912, Note_on_c, 2, 62, 0
5, 33912, Note_on_c, 2, 70, 0
5, 34080, Note_on_c, 2, 62, 105
5, 34392, Note_on_c, 2, 62, 0
5, 34560, Note_on_c, 2, 58, 105
5, 34560, Note_on_c, 2, 62, 105
5, 35328, Note_on_c, 2, 62, 0
5, 35328, Note_on_c, 2, 58, 0
5, 36000, Note_on_c, 2, 62, 105
5, 36000, Note_on_c, 2, 74, 105
5, 36312, Note_on_c, 2, 74, 0
5, 36312, Note_on_c, 2, 62, 0
5, 36480, Note_on_c, 2, 62, 105
5, 36480, Note_on_c, 2, 74, 105
5, 36792, Note_on_c, 2, 74, 0
5, 36792, Note_on_c, 2, 62, 0
5, 36960, Note_on_c, 2, 62, 105
5, 36960, Note_on_c, 2, 74, 105
5, 37200, Note_on_c, 2, 74, 0
5, 37200, Note_on_c, 2, 70, 105
5, 37392, Note_on_c, 2, 70, 0
5, 37392, Note_on_c, 2, 62, 0
5, 37440, Note_on_c, 2, 70, 105
5, 37752, Note_on_c, 2, 70, 0
5, 38400, Note_on_c, 2, 70, 105
5, 38712, Note_on_c, 2, 70, 0
5, 38880, Note_on_c, 2, 72, 105
5, 39192, Note_on_c, 2, 72, 0
5, 39360, Note_on_c, 2, 72, 105
5, 39360, Note_on_c, 2, 75, 105
5, 39672, Note_on_c, 2, 75, 0
5, 39672, Note_on_c, 2, 72, 0
5, 39840, Note_on_c, 2, 72, 105
5, 40152, Note_on_c, 2, 72, 0
5, 40320, Note_on_c, 2, 70, 105
5, 40320, Note_on_c, 2, 74, 105
5, 40632, Note_on_c, 2, 74, 0
5, 40632, Note_on_c, 2, 70, 0
5, 40800, Note_on_c, 2, 62, 105
5, 41112, Note_on_c, 2, 62, 0
5, 48960, Note_on_c, 2, 70, 105
5, 49728, Note_on_c, 2, 70, 0
5, 49920, Note_on_c, 2, 72, 92
5, 50184, Note_on_c, 2, 72, 0
5, 59040, Note_on_c, 2, 74, 92
5, 59040, Note_on_c, 2, 70, 92
5, 59352, Note_on_c, 2, 70, 0
5, 59352, Note_on_c, 2, 74, 0
5, 59520, Note_on_c, 2, 70, 92
5, 59520, Note_on_c, 2, 74, 92
5, 59832, Note_on_c, 2, 74, 0
5, 59832, Note_on_c, 2, 70, 0
5, 60000, Note_on_c, 2, 74, 92
5, 60000, Note_on_c, 2, 70, 92
5, 60312, Note_on_c, 2, 70, 0
5, 60312, Note_on_c, 2, 74, 0
5, 60480, Note_on_c, 2, 75, 92
5, 60480, Note_on_c, 2, 72, 92
5, 60792, Note_on_c, 2, 75, 0
5, 60960, Note_on_c, 2, 74, 92
5, 61272, Note_on_c, 2, 74, 0
5, 61272, Note_on_c, 2, 72, 0
5, 61440, Note_on_c, 2, 70, 92
5, 61752, Note_on_c, 2, 70, 0
5, 65760, Note_on_c, 2, 70, 105
5, 65760, Note_on_c, 2, 70, 105
5, 66072, Note_on_c, 2, 70, 0
5, 66072, Note_on_c, 2, 70, 0
5, 66240, Note_on_c, 2, 74, 105
5, 66240, Note_on_c, 2, 74, 105
5, 67008, Note_on_c, 2, 74, 0
5, 67008, Note_on_c, 2, 74, 0
5, 68160, Note_on_c, 2, 62, 105
5, 68160, Note_on_c, 2, 70, 105
5, 68472, Note_on_c, 2, 70, 0
5, 68472, Note_on_c, 2, 62, 0
5, 68640, Note_on_c, 2, 62, 105
5, 68952, Note_on_c, 2, 62, 0
5, 69120, Note_on_c, 2, 62, 105
5, 69120, Note_on_c, 2, 58, 105
5, 69888, Note_on_c, 2, 58, 0
5, 69888, Note_on_c, 2, 62, 0
5, 70560, Note_on_c, 2, 62, 105
5, 70560, Note_on_c, 2, 74, 105
5, 70872, Note_on_c, 2, 74, 0
5, 70872, Note_on_c, 2, 62, 0
5, 71040, Note_on_c, 2, 62, 105
5, 71040, Note_on_c, 2, 74, 105
5, 71352, Note_on_c, 2, 74, 0
5, 71352, Note_on_c, 2, 62, 0
5, 71520, Note_on_c, 2, 62, 105
5, 71520, Note_on_c, 2, 74, 105
5, 71760, Note_on_c, 2, 74, 0
5, 71760, Note_on_c, 2, 70, 105
5, 71952, Note_on_c, 2, 70, 0
5, 71952, Note_on_c, 2, 62, 0
5, 72000, Note_on_c, 2, 70, 105
5, 72312, Note_on_c, 2, 70, 0
5, 72960, Note_on_c, 2, 70, 105
5, 73272, Note_on_c, 2, 70, 0
5, 73440, Note_on_c, 2, 72, 105
5, 73752, Note_on_c, 2, 72, 0
5, 73920, Note_on_c, 2, 72, 105
5, 73920, Note_on_c, 2, 75, 105
5, 74232, Note_on_c, 2, 75, 0
5, 74232, Note_on_c, 2, 72, 0
5, 74400, Note_on_c, 2, 72, 105
5, 74712, Note_on_c, 2, 72, 0
5, 74880, Note_on_c, 2, 70, 105
5, 74880, Note_on_c, 2, 74, 105
5, 75192, Note_on_c, 2, 74, 0
5, 75192, Note_on_c, 2, 70, 0
5, 75360, Note_on_c, 2, 62, 105
5, 75672, Note_on_c, 2, 62, 0
5, 83520, Note_on_c, 2, 70, 105
5, 84288, Note_on_c, 2, 70, 0
5, 84480, Note_on_c, 2, 72, 92
5, 84744, Note_on_c, 2, 72, 0
5, 93600, Note_on_c, 2, 74, 92
5, 93600, Note_on_c, 2, 70, 92
5, 93912, Note_on_c, 2, 70, 0
5, 93912, Note_on_c, 2, 74, 0
5, 94080, Note_on_c, 2, 70, 92
5, 94080, Note_on_c, 2, 74, 92
5, 94392, Note_on_c, 2, 74, 0
5, 94392, Note_on_c, 2, 70, 0
5, 94560, Note_on_c, 2, 74, 92
5, 94560, Note_on_c, 2, 70, 92
5, 94872, Note_on_c, 2, 70, 0
5, 94872, Note_on_c, 2, 74, 0
5, 95040, Note_on_c, 2, 75, 92
5, 95040, Note_on_c, 2, 72, 92
5, 95352, Note_on_c, 2, 75, 0
5, 95520, Note_on_c, 2, 74, 92
5, 95832, Note_on_c, 2, 74, 0
5, 95832, Note_on_c, 2, 72, 0
5, 96000, Note_on_c, 2, 70, 92
5, 96312, Note_on_c, 2, 70, 0
5, 100320, Note_on_c, 2, 70, 105
5, 100320, Note_on_c, 2, 70, 105
5, 100632, Note_on_c, 2, 70, 0
5, 100632, Note_on_c, 2, 70, 0
5, 100800, Note_on_c, 2, 74, 105
5, 100800, Note_on_c, 2, 74, 105
5, 101568, Note_on_c, 2, 74, 0
5, 101568, Note_on_c, 2, 74, 0
5, 102720, Note_on_c, 2, 62, 105
5, 102720, Note_on_c, 2, 70, 105
5, 103032, Note_on_c, 2, 70, 0
5, 103032, Note_on_c, 2, 62, 0
5, 103200, Note_on_c, 2, 62, 105
5, 103512, Note_on_c, 2, 62, 0
5, 103680, Note_on_c, 2, 62, 105
5, 103680, Note_on_c, 2, 58, 105
5, 104448, Note_on_c, 2, 58, 0
5, 104448, Note_on_c, 2, 62, 0
5, 169920, Note_on_c, 2, 70, 105
5, 170688, Note_on_c, 2, 70, 0
5, 170880, Note_on_c, 2, 72, 92
5, 171144, Note_on_c, 2, 72, 0
5, 180000, Note_on_c, 2, 74, 105
5, 180000, Note_on_c, 2, 70, 105
5, 180312, Note_on_c, 2, 70, 0
5, 180312, Note_on_c, 2, 74, 0
5, 180480, Note_on_c, 2, 70, 105
5, 180480, Note_on_c, 2, 74, 105
5, 180792, Note_on_c, 2, 74, 0
5, 180792, Note_on_c, 2, 70, 0
5, 180960, Note_on_c, 2, 74, 105
5, 180960, Note_on_c, 2, 70, 105
5, 181272, Note_on_c, 2, 70, 0
5, 181272, Note_on_c, 2, 74, 0
5, 181440, Note_on_c, 2, 75, 105
5, 181440, Note_on_c, 2, 72, 105
5, 181752, Note_on_c, 2, 75, 0
5, 181920, Note_on_c, 2, 74, 105
5, 182232, Note_on_c, 2, 74, 0
5, 182232, Note_on_c, 2, 72, 0
5, 182400, Note_on_c, 2, 70, 105
5, 182712, Note_on_c, 2, 70, 0
5, 183360, Note_on_c, 2, 70, 105
5, 183360, Note_on_c, 2, 62, 105
5, 183672, Note_on_c, 2, 62, 0
5, 183672, Note_on_c, 2, 70, 0
5, 183840, Note_on_c, 2, 62, 105
5, 184152, Note_on_c, 2, 62, 0
5, 184320, Note_on_c, 2, 62, 105
5, 184320, Note_on_c, 2, 58, 105
5, 185088, Note_on_c, 2, 58, 0
5, 185088, Note_on_c, 2, 62, 0
5, 185760, Note_on_c, 2, 74, 105
5, 185760, Note_on_c, 2, 62, 105
5, 186072, Note_on_c, 2, 62, 0
5, 186072, Note_on_c, 2, 74, 0
5, 186240, Note_on_c, 2, 62, 105
5, 186240, Note_on_c, 2, 74, 105
5, 186552, Note_on_c, 2, 74, 0
5, 186552, Note_on_c, 2, 62, 0
5, 186720, Note_on_c, 2, 62, 105
5, 186720, Note_on_c, 2, 74, 105
5, 186960, Note_on_c, 2, 74, 0
5, 186960, Note_on_c, 2, 70, 105
5, 187152, Note_on_c, 2, 70, 0
5, 187152, Note_on_c, 2, 62, 0
5, 187200, Note_on_c, 2, 70, 105
5, 187512, Note_on_c, 2, 70, 0
5, 188160, Note_on_c, 2, 70, 105
5, 188472, Note_on_c, 2, 70, 0
5, 188640, Note_on_c, 2, 72, 105
5, 188952, Note_on_c, 2, 72, 0
5, 189120, Note_on_c, 2, 72, 105
5, 189120, Note_on_c, 2, 75, 105
5, 189432, Note_on_c, 2, 75, 0
5, 189432, Note_on_c, 2, 72, 0
5, 189600, Note_on_c, 2, 72, 105
5, 189912, Note_on_c, 2, 72, 0
5, 190080, Note_on_c, 2, 70, 105
5, 190080, Note_on_c, 2, 74, 105
5, 190392, Note_on_c, 2, 74, 0
5, 190392, Note_on_c, 2, 70, 0
5, 190560, Note_on_c, 2, 62, 105
5, 190872, Note_on_c, 2, 62, 0
5, 198720, Note_on_c, 2, 70, 105
5, 199488, Note_on_c, 2, 70, 0
5, 199680, Note_on_c, 2, 72, 92
5, 199944, Note_on_c, 2, 72, 0
5, 208800, Note_on_c, 2, 74, 105
5, 208800, Note_on_c, 2, 70, 105
5, 209112, Note_on_c, 2, 70, 0
5, 209112, Note_on_c, 2, 74, 0
5, 209280, Note_on_c, 2, 70, 105
5, 209280, Note_on_c, 2, 74, 105
5, 209592, Note_on_c, 2, 74, 0
5, 209592, Note_on_c, 2, 70, 0
5, 209760, Note_on_c, 2, 74, 105
5, 209760, Note_on_c, 2, 70, 105
5, 210072, Note_on_c, 2, 70, 0
5, 210072, Note_on_c, 2, 74, 0
5, 210240, Note_on_c, 2, 75, 105
5, 210240, Note_on_c, 2, 72, 105
5, 210552, Note_on_c, 2, 75, 0
5, 210720, Note_on_c, 2, 74, 105
5, 211032, Note_on_c, 2, 74, 0
5, 211032, Note_on_c, 2, 72, 0
5, 211200, Note_on_c, 2, 70, 105
5, 211512, Note_on_c, 2, 70, 0
5, 215520, Note_on_c, 2, 70, 105
5, 215520, Note_on_c, 2, 70, 105
5, 215832, Note_on_c, 2, 70, 0
5, 215832, Note_on_c, 2, 70, 0
5, 216000, Note_on_c, 2, 74, 105
5, 216000, Note_on_c, 2, 74, 105
5, 216768, Note_on_c, 2, 74, 0
5, 216768, Note_on_c, 2, 74, 0
5, 217920, Note_on_c, 2, 62, 105
5, 217920, Note_on_c, 2, 70, 105
5, 218232, Note_on_c, 2, 70, 0
5, 218232, Note_on_c, 2, 62, 0
5, 218400, Note_on_c, 2, 62, 105
5, 218712, Note_on_c, 2, 62, 0
5, 218880, Note_on_c, 2, 62, 105
5, 218880, Note_on_c, 2, 58, 105
5, 219840, Note_on_c, 2, 58, 0
5, 219840, Note_on_c, 2, 62, 0
5, 219840, End_track
6, 0, Start_track
6, 0, Program_c, 3, 60
6, 0, Control_c, 3, 7, 109
6, 0, Control_c, 3, 10, 55
6, 0, Control_c, 3, 91, 80
6, 1440, Note_on_c, 3, 67, 105
6, 1752, Note_on_c, 3, 67, 0
6, 1920, Note_on_c, 3, 62, 105
6, 2232, Note_on_c, 3, 62, 0
6, 2400, Note_on_c, 3, 67, 105
6, 2712, Note_on_c, 3, 67, 0
6, 3840, Note_on_c, 3, 72, 105
6, 4080, Note_on_c, 3, 72, 0
6, 4080, Note_on_c, 3, 69, 105
6, 4272, Note_on_c, 3, 69, 0
6, 4320, Note_on_c, 3, 67, 105
6, 4632, Note_on_c, 3, 67, 0
6, 4800, Note_on_c, 3, 66, 105
6, 5112, Note_on_c, 3, 66, 0
6, 5280, Note_on_c, 3, 67, 105
6, 5592, Note_on_c, 3, 67, 0
6, 5760, Note_on_c, 3, 69, 105
6, 6000, Note_on_c, 3, 69, 0
6, 6000, Note_on_c, 3, 66, 105
6, 6192, Note_on_c, 3, 66, 0
6, 6240, Note_on_c, 3, 62, 105
6, 6624, Note_on_c, 3, 62, 0
6, 12960, Note_on_c, 3, 67, 105
6, 13272, Note_on_c, 3, 67, 0
6, 13440, Note_on_c, 3, 67, 105
6, 13752, Note_on_c, 3, 67, 0
6, 13920, Note_on_c, 3, 67, 105
6, 14232, Note_on_c, 3, 67, 0
6, 14400, Note_on_c, 3, 72, 105
6, 14400, Note_on_c, 3, 69, 105
6, 14712, Note_on_c, 3, 69, 0
6, 14712, Note_on_c, 3, 72, 0
6, 14880, Note_on_c, 3, 62, 105
6, 14880, Note_on_c, 3, 69, 105
6, 15192, Note_on_c, 3, 69, 0
6, 15192, Note_on_c, 3, 62, 0
6, 15360, Note_on_c, 3, 67, 105
6, 15360, Note_on_c, 3, 55, 105
6, 15672, Note_on_c, 3, 55, 0
6, 15672, Note_on_c, 3, 67, 0
6, 16320, Note_on_c, 3, 67, 105
6, 16320, Note_on_c, 3, 62, 105
6, 16632, Note_on_c, 3, 62, 0
6, 16632, Note_on_c, 3, 67, 0
6, 16800, Note_on_c, 3, 69, 105
6, 16800, Note_on_c, 3, 50, 105
6, 17112, Note_on_c, 3, 50, 0
6, 17112, Note_on_c, 3, 69, 0
6, 17280, Note_on_c, 3, 67, 105
6, 17280, Note_on_c, 3, 55, 105
6, 18048, Note_on_c, 3, 55, 0
6, 18048, Note_on_c, 3, 67, 0
6, 18720, Note_on_c, 3, 67, 105
6, 19032, Note_on_c, 3, 67, 0
6, 19200, Note_on_c, 3, 62, 105
6, 19512, Note_on_c, 3, 62, 0
6, 19680, Note_on_c, 3, 67, 105
6, 19992, Note_on_c, 3, 67, 0
6, 21120, Note_on_c, 3, 72, 105
6, 21360, Note_on_c, 3, 72, 0
6, 21360, Note_on_c, 3, 69, 105
6, 21552, Note_on_c, 3, 69, 0
6, 21600, Note_on_c, 3, 67, 105
6, 21912, Note_on_c, 3, 67, 0
6, 22080, Note_on_c, 3, 66, 105
6, 22392, Note_on_c, 3, 66, 0
6, 22560, Note_on_c, 3, 67, 105
6, 22872, Note_on_c, 3, 67, 0
6, 23040, Note_on_c, 3, 69, 105
6, 23280, Note_on_c, 3, 69, 0
6, 23280, Note_on_c, 3, 66, 105
6, 23472, Note_on_c, 3, 66, 0
6, 23520, Note_on_c, 3, 62, 105
6, 23904, Note_on_c, 3, 62, 0
6, 30240, Note_on_c, 3, 67, 105
6, 30552, Note_on_c, 3, 67, 0
6, 30720, Note_on_c, 3, 67, 105
6, 31032, Note_on_c, 3, 67, 0
6, 31200, Note_on_c, 3, 67, 105
6, 31512, Note_on_c, 3, 67, 0
6, 31680, Note_on_c, 3, 72, 105
6, 31680, Note_on_c, 3, 69, 105
6, 31992, Note_on_c, 3, 69, 0
6, 31992, Note_on_c, 3, 72, 0
6, 32160, Note_on_c, 3, 62, 105
6, 32160, Note_on_c, 3, 69, 105
6, 32472, Note_on_c, 3, 69, 0
6, 32472, Note_on_c, 3, 62, 0
6, 32640, Note_on_c, 3, 67, 105
6, 32640, Note_on_c, 3, 55, 105
6, 32952, Note_on_c, 3, 55, 0
6, 32952, Note_on_c, 3, 67, 0
6, 33600, Note_on_c, 3, 67, 105
6, 33600, Note_on_c, 3, 62, 105
6, 33912, Note_on_c, 3, 62, 0
6, 33912, Note_on_c, 3, 67, 0
6, 34080, Note_on_c, 3, 69, 105
6, 34080, Note_on_c, 3, 50, 105
6, 34392, Note_on_c, 3, 50, 0
6, 34392, Note_on_c, 3, 69, 0
6, 34560, Note_on_c, 3, 67, 105
6, 34560, Note_on_c, 3, 55, 105
6, 35328, Note_on_c, 3, 55, 0
6, 35328, Note_on_c, 3, 67, 0
6, 36000, Note_on_c, 3, 69, 105
6, 36312, Note_on_c, 3, 69, 0
6, 36480, Note_on_c, 3, 69, 105
6, 36792, Note_on_c, 3, 69, 0
6, 36960, Note_on_c, 3, 69, 105
6, 37200, Note_on_c, 3, 69, 0
6, 37200, Note_on_c, 3, 67, 105
6, 37392, Note_on_c, 3, 67, 0
6, 37440, Note_on_c, 3, 67, 105
6, 37440, Note_on_c, 3, 55, 105
6, 37752, Note_on_c, 3, 55, 0
6, 37752, Note_on_c, 3, 67, 0
6, 38400, Note_on_c, 3, 67, 105
6, 38712, Note_on_c, 3, 67, 0
6, 38880, Note_on_c, 3, 69, 105
6, 39192, Note_on_c, 3, 69, 0
6, 39360, Note_on_c, 3, 69, 105
6, 39360, Note_on_c, 3, 72, 105
6, 39672, Note_on_c, 3, 72, 0
6, 39672, Note_on_c, 3, 69, 0
6, 39840, Note_on_c, 3, 69, 105
6, 40152, Note_on_c, 3, 69, 0
6, 40320, Note_on_c, 3, 67, 105
6, 40632, Note_on_c, 3, 67, 0
6, 40800, Note_on_c, 3, 67, 105
6, 40800, Note_on_c, 3, 55, 105
6, 41112, Note_on_c, 3, 55, 0
6, 41112, Note_on_c, 3, 67, 0
6, 47520, Note_on_c, 3, 67, 105
6, 47832, Note_on_c, 3, 67, 0
6, 48000, Note_on_c, 3, 62, 105
6, 48312, Note_on_c, 3, 62, 0
6, 48480, Note_on_c, 3, 67, 105
6, 48792, Note_on_c, 3, 67, 0
6, 49920, Note_on_c, 3, 72, 105
6, 50160, Note_on_c, 3, 72, 0
6, 50160, Note_on_c, 3, 69, 105
6, 50352, Note_on_c, 3, 69, 0
6, 50400, Note_on_c, 3, 67, 105
6, 50712, Note_on_c, 3, 67, 0
6, 50880, Note_on_c, 3, 66, 105
6, 51192, Note_on_c, 3, 66, 0
6, 51360, Note_on_c, 3, 67, 105
6, 51672, Note_on_c, 3, 67, 0
6, 51840, Note_on_c, 3, 69, 105
6, 52080, Note_on_c, 3, 69, 0
6, 52080, Note_on_c, 3, 66, 105
6, 52272, Note_on_c, 3, 66, 0
6, 52320, Note_on_c, 3, 62, 105
6, 52704, Note_on_c, 3, 62, 0
6, 59040, Note_on_c, 3, 67, 92
6, 59352, Note_on_c, 3, 67, 0
6, 59520, Note_on_c, 3, 67, 92
6, 59832, Note_on_c, 3, 67, 0
6, 60000, Note_on_c, 3, 67, 92
6, 60312, Note_on_c, 3, 67, 0
6, 60480, Note_on_c, 3, 72, 92
6, 60480, Note_on_c, 3, 69, 92
6, 60792, Note_on_c, 3, 69, 0
6, 60792, Note_on_c, 3, 72, 0
6, 60960, Note_on_c, 3, 62, 92
6, 60960, Note_on_c, 3, 69, 92
6, 61272, Note_on_c, 3, 69, 0
6, 61272, Note_on_c, 3, 62, 0
6, 61440, Note_on_c, 3, 55, 92
6, 61440, Note_on_c, 3, 67, 92
6, 61752, Note_on_c, 3, 67, 0
6, 61752, Note_on_c, 3, 55, 0
6, 64800, Note_on_c, 3, 67, 105
6, 64800, Note_on_c, 3, 67, 105
6, 65112, Note_on_c, 3, 67, 0
6, 65112, Note_on_c, 3, 67, 0
6, 65280, Note_on_c, 3, 69, 105
6, 65280, Note_on_c, 3, 69, 105
6, 65592, Note_on_c, 3, 69, 0
6, 65592, Note_on_c, 3, 69, 0
6, 66240, Note_on_c, 3, 62, 105
6, 66240, Note_on_c, 3, 69, 105
6, 67008, Note_on_c, 3, 69, 0
6, 67008, Note_on_c, 3, 62, 0
6, 67200, Note_on_c, 3, 55, 105
6, 67200, Note_on_c, 3, 67, 105
6, 67512, Note_on_c, 3, 67, 0
6, 67512, Note_on_c, 3, 55, 0
6, 68160, Note_on_c, 3, 58, 105
6, 68160, Note_on_c, 3, 67, 105
6, 68472, Note_on_c, 3, 67, 0
6, 68472, Note_on_c, 3, 58, 0
6, 68640, Note_on_c, 3, 69, 105
6, 68640, Note_on_c, 3, 50, 105
6, 68952, Note_on_c, 3, 50, 0
6, 68952, Note_on_c, 3, 69, 0
6, 69120, Note_on_c, 3, 55, 105
6, 69120, Note_on_c, 3, 67, 105
6, 69888, Note_on_c, 3, 67, 0
6, 69888, Note_on_c, 3, 55, 0
6, 70560, Note_on_c, 3, 69, 105
6, 70872, Note_on_c, 3, 69, 0
6, 71040, Note_on_c, 3, 69, 105
6, 71352, Note_on_c, 3, 69, 0
6, 71520, Note_on_c, 3, 69, 105
6, 71760, Note_on_c, 3, 69, 0
6, 71760, Note_on_c, 3, 67, 105
6, 71952, Note_on_c, 3, 67, 0
6, 72000, Note_on_c, 3, 67, 105
6, 72000, Note_on_c, 3, 55, 105
6, 72312, Note_on_c, 3, 55, 0
6, 72312, Note_on_c, 3, 67, 0
6, 72960, Note_on_c, 3, 67, 105
6, 73272, Note_on_c, 3, 67, 0
6, 73440, Note_on_c, 3, 69, 105
6, 73752, Note_on_c, 3, 69, 0
6, 73920, Note_on_c, 3, 69, 105
6, 73920, Note_on_c, 3, 72, 105
6, 74232, Note_on_c, 3, 72, 0
6, 74232, Note_on_c, 3, 69, 0
6, 74400, Note_on_c, 3, 69, 105
6, 74712, Note_on_c, 3, 69, 0
6, 74880, Note_on_c, 3, 67, 105
6, 75192, Note_on_c, 3, 67, 0
6, 75360, Note_on_c, 3, 67, 105
6, 75360, Note_on_c, 3, 55, 105
6, 75672, Note_on_c, 3, 55, 0
6, 75672, Note_on_c, 3, 67, 0
6, 82080, Note_on_c, 3, 67, 105
6, 82392, Note_on_c, 3, 67, 0
6, 82560, Note_on_c, 3, 62, 105
6, 82872, Note_on_c, 3, 62, 0
6, 83040, Note_on_c, 3, 67, 105
6, 83352, Note_on_c, 3, 67, 0
6, 84480, Note_on_c, 3, 72, 105
6, 84720, Note_on_c, 3, 72, 0
6, 84720, Note_on_c, 3, 69, 105
6, 84912, Note_on_c, 3, 69, 0
6, 84960, Note_on_c, 3, 67, 105
6, 85272, Note_on_c, 3, 67, 0
6, 85440, Note_on_c, 3, 66, 105
6, 85752, Note_on_c, 3, 66, 0
6, 85920, Note_on_c, 3, 67, 105
6, 86232, Note_on_c, 3, 67, 0
6, 86400, Note_on_c, 3, 69, 105
6, 86640, Note_on_c, 3, 69, 0
6, 86640, Note_on_c, 3, 66, 105
6, 86832, Note_on_c, 3, 66, 0
6, 86880, Note_on_c, 3, 62, 105
6, 87264, Note_on_c, 3, 62, 0
6, 93600, Note_on_c, 3, 67, 92
6, 93912, Note_on_c, 3, 67, 0
6, 94080, Note_on_c, 3, 67, 92
6, 94392, Note_on_c, 3, 67, 0
6, 94560, Note_on_c, 3, 67, 92
6, 94872, Note_on_c, 3, 67, 0
6, 95040, Note_on_c, 3, 72, 92
6, 95040, Note_on_c, 3, 69, 92
6, 95352, Note_on_c, 3, 69, 0
6, 95352, Note_on_c, 3, 72, 0
6, 95520, Note_on_c, 3, 62, 92
6, 95520, Note_on_c, 3, 69, 92
6, 95832, Note_on_c, 3, 69, 0
6, 95832, Note_on_c, 3, 62, 0
6, 96000, Note_on_c, 3, 55, 92
6, 96000, Note_on_c, 3, 67, 92
6, 96312, Note_on_c, 3, 67, 0
6, 96312, Note_on_c, 3, 55, 0
6, 99360, Note_on_c, 3, 67, 105
6, 99360, Note_on_c, 3, 67, 105
6, 99672, Note_on_c, 3, 67, 0
6, 99672, Note_on_c, 3, 67, 0
6, 99840, Note_on_c, 3, 69, 105
6, 99840, Note_on_c, 3, 69, 105
6, 100152, Note_on_c, 3, 69, 0
6, 100152, Note_on_c, 3, 69, 0
6, 100800, Note_on_c, 3, 62, 105
6, 100800, Note_on_c, 3, 69, 105
6, 101568, Note_on_c, 3, 69, 0
6, 101568, Note_on_c, 3, 62, 0
6, 101760, Note_on_c, 3, 55, 105
6, 101760, Note_on_c, 3, 67, 105
6, 102072, Note_on_c, 3, 67, 0
6, 102072, Note_on_c, 3, 55, 0
6, 102720, Note_on_c, 3, 58, 105
6, 102720, Note_on_c, 3, 67, 105
6, 103032, Note_on_c, 3, 67, 0
6, 103032, Note_on_c, 3, 58, 0
6, 103200, Note_on_c, 3, 69, 105
6, 103200, Note_on_c, 3, 50, 105
6, 103512, Note_on_c, 3, 50, 0
6, 103512, Note_on_c, 3, 69, 0
6, 103680, Note_on_c, 3, 55, 105
6, 103680, Note_on_c, 3, 67, 105
6, 104448, Note_on_c, 3, 67, 0
6, 104448, Note_on_c, 3, 55, 0
6, 105120, Note_on_c, 3, 59, 58
6, 105120, Note_on_c, 3, 67, 58
6, 105888, Note_on_c, 3, 67, 0
6, 105888, Note_on_c, 3, 59, 0
6, 107040, Note_on_c, 3, 62, 58
6, 107040, Note_on_c, 3, 69, 58
6, 107424, Note_on_c, 3, 69, 0
6, 107424, Note_on_c, 3, 62, 0
6, 107520, Note_on_c, 3, 62, 58
6, 107520, Note_on_c, 3, 69, 58
6, 107904, Note_on_c, 3, 69, 0
6, 107904, Note_on_c, 3, 62, 0
6, 108000, Note_on_c, 3, 62, 58
6, 108000, Note_on_c, 3, 69, 58
6, 108768, Note_on_c, 3, 69, 0
6, 108768, Note_on_c, 3, 62, 0
6, 108960, Note_on_c, 3, 62, 58
6, 109344, Note_on_c, 3, 62, 0
6, 109440, Note_on_c, 3, 59, 58
6, 109440, Note_on_c, 3, 62, 58
6, 109824, Note_on_c, 3, 62, 0
6, 109824, Note_on_c, 3, 59, 0
6, 109920, Note_on_c, 3, 67, 58
6, 109920, Note_on_c, 3, 55, 58
6, 110304, Note_on_c, 3, 55, 0
6, 110304, Note_on_c, 3, 67, 0
6, 110880, Note_on_c, 3, 71, 58
6, 110880, Note_on_c, 3, 67, 58
6, 111264, Note_on_c, 3, 67, 0
6, 111264, Note_on_c, 3, 71, 0
6, 111360, Note_on_c, 3, 69, 58
6, 111744, Note_on_c, 3, 69, 0
6, 111840, Note_on_c, 3, 69, 58
6, 112224, Note_on_c, 3, 69, 0
6, 112320, Note_on_c, 3, 69, 58
6, 112704, Note_on_c, 3, 69, 0
6, 114240, Note_on_c, 3, 69, 58
6, 114552, Note_on_c, 3, 69, 0
6, 114720, Note_on_c, 3, 69, 58
6, 115032, Note_on_c, 3, 69, 0
6, 115200, Note_on_c, 3, 69, 58
6, 115968, Note_on_c, 3, 69, 0
6, 116640, Note_on_c, 3, 59, 58
6, 116640, Note_on_c, 3, 67, 58
6, 117408, Note_on_c, 3, 67, 0
6, 117408, Note_on_c, 3, 59, 0
6, 118560, Note_on_c, 3, 62, 58
6, 118560, Note_on_c, 3, 69, 58
6, 118944, Note_on_c, 3, 69, 0
6, 118944, Note_on_c, 3, 62, 0
6, 119040, Note_on_c, 3, 62, 58
6, 119040, Note_on_c, 3, 69, 58
6, 119424, Note_on_c, 3, 69, 0
6, 119424, Note_on_c, 3, 62, 0
6, 119520, Note_on_c, 3, 62, 58
6, 119520, Note_on_c, 3, 69, 58
6, 120288, Note_on_c, 3, 69, 0
6, 120288, Note_on_c, 3, 62, 0
6, 120480, Note_on_c, 3, 62, 58
6, 120864, Note_on_c, 3, 62, 0
6, 120960, Note_on_c, 3, 59, 58
6, 120960, Note_on_c, 3, 62, 58
6, 121344, Note_on_c, 3, 62, 0
6, 121344, Note_on_c, 3, 59, 0
6, 121440, Note_on_c, 3, 67, 58
6, 121440, Note_on_c, 3, 55, 58
6, 121824, Note_on_c, 3, 55, 0
6, 121824, Note_on_c, 3, 67, 0
6, 122400, Note_on_c, 3, 71, 58
6, 122400, Note_on_c, 3, 67, 58
6, 122784, Note_on_c, 3, 67, 0
6, 122784, Note_on_c, 3, 71, 0
6, 122880, Note_on_c, 3, 69, 58
6, 123264, Note_on_c, 3, 69, 0
6, 123360, Note_on_c, 3, 69, 58
6, 123744, Note_on_c, 3, 69, 0
6, 123840, Note_on_c, 3, 69, 58
6, 124224, Note_on_c, 3, 69, 0
6, 125760, Note_on_c, 3, 69, 58
6, 126072, Note_on_c, 3, 69, 0
6, 126240, Note_on_c, 3, 69, 58
6, 126552, Note_on_c, 3, 69, 0
6, 126720, Note_on_c, 3, 69, 58
6, 127488, Note_on_c, 3, 69, 0
6, 128160, Note_on_c, 3, 50, 70
6, 128544, Note_on_c, 3, 50, 0
6, 128640, Note_on_c, 3, 50, 70
6, 129024, Note_on_c, 3, 50, 0
6, 129120, Note_on_c, 3, 50, 70
6, 129504, Note_on_c, 3, 50, 0
6, 129600, Note_on_c, 3, 62, 70
6, 129600, Note_on_c, 3, 50, 70
6, 129984, Note_on_c, 3, 50, 0
6, 130080, Note_on_c, 3, 50, 70
6, 130272, Note_on_c, 3, 62, 0
6, 130320, Note_on_c, 3, 74, 70
6, 130512, Note_on_c, 3, 50, 0
6, 130560, Note_on_c, 3, 74, 0
6, 130560, Note_on_c, 3, 72, 70
6, 130560, Note_on_c, 3, 50, 70
6, 130800, Note_on_c, 3, 72, 0
6, 130800, Note_on_c, 3, 71, 70
6, 130992, Note_on_c, 3, 71, 0
6, 130992, Note_on_c, 3, 50, 0
6, 131040, Note_on_c, 3, 71, 70
6, 131040, Note_on_c, 3, 50, 70
6, 131280, Note_on_c, 3, 71, 0
6, 131280, Note_on_c, 3, 72, 70
6, 131472, Note_on_c, 3, 72, 0
6, 131472, Note_on_c, 3, 50, 0
6, 131520, Note_on_c, 3, 69, 70
6, 131520, Note_on_c, 3, 50, 70
6, 131904, Note_on_c, 3, 50, 0
6, 131904, Note_on_c, 3, 69, 0
6, 132000, Note_on_c, 3, 71, 70
6, 132000, Note_on_c, 3, 50, 70
6, 132240, Note_on_c, 3, 71, 0
6, 132240, Note_on_c, 3, 72, 70
6, 132432, Note_on_c, 3, 72, 0
6, 132432, Note_on_c, 3, 50, 0
6, 132480, Note_on_c, 3, 71, 70
6, 132480, Note_on_c, 3, 50, 70
6, 132720, Note_on_c, 3, 71, 0
6, 132720, Note_on_c, 3, 67, 70
6, 132912, Note_on_c, 3, 67, 0
6, 132912, Note_on_c, 3, 50, 0
6, 132960, Note_on_c, 3, 50, 70
6, 132960, Note_on_c, 3, 62, 70
6, 133344, Note_on_c, 3, 62, 0
6, 133344, Note_on_c, 3, 50, 0
6, 133920, Note_on_c, 3, 59, 58
6, 133920, Note_on_c, 3, 67, 58
6, 134688, Note_on_c, 3, 67, 0
6, 134688, Note_on_c, 3, 59, 0
6, 135840, Note_on_c, 3, 62, 58
6, 135840, Note_on_c, 3, 69, 58
6, 136224, Note_on_c, 3, 69, 0
6, 136224, Note_on_c, 3, 62, 0
6, 136320, Note_on_c, 3, 62, 58
6, 136320, Note_on_c, 3, 69, 58
6, 136704, Note_on_c, 3, 69, 0
6, 136704, Note_on_c, 3, 62, 0
6, 136800, Note_on_c, 3, 62, 58
6, 136800, Note_on_c, 3, 69, 58
6, 137568, Note_on_c, 3, 69, 0
6, 137568, Note_on_c, 3, 62, 0
6, 137760, Note_on_c, 3, 62, 58
6, 138144, Note_on_c, 3, 62, 0
6, 138240, Note_on_c, 3, 59, 58
6, 138240, Note_on_c, 3, 62, 58
6, 138624, Note_on_c, 3, 62, 0
6, 138624, Note_on_c, 3, 59, 0
6, 138720, Note_on_c, 3, 67, 58
6, 138720, Note_on_c, 3, 55, 58
6, 139104, Note_on_c, 3, 55, 0
6, 139104, Note_on_c, 3, 67, 0
6, 141360, Note_on_c, 3, 62, 58
6, 141552, Note_on_c, 3, 62, 0
6, 141600, Note_on_c, 3, 62, 58
6, 141792, Note_on_c, 3, 62, 0
6, 141840, Note_on_c, 3, 62, 58
6, 142032, Note_on_c, 3, 62, 0
6, 142080, Note_on_c, 3, 62, 58
6, 142464, Note_on_c, 3, 62, 0
6, 144240, Note_on_c, 3, 62, 58
6, 144432, Note_on_c, 3, 62, 0
6, 144480, Note_on_c, 3, 62, 58
6, 144672, Note_on_c, 3, 62, 0
6, 144720, Note_on_c, 3, 62, 58
6, 144912, Note_on_c, 3, 62, 0
6, 144960, Note_on_c, 3, 62, 58
6, 145344, Note_on_c, 3, 62, 0
6, 145440, Note_on_c, 3, 55, 58
6, 145440, Note_on_c, 3, 72, 58
6, 145824, Note_on_c, 3, 72, 0
6, 145920, Note_on_c, 3, 71, 58
6, 146112, Note_on_c, 3, 55, 0
6, 146160, Note_on_c, 3, 59, 58
6, 146352, Note_on_c, 3, 59, 0
6, 146352, Note_on_c, 3, 71, 0
6, 146400, Note_on_c, 3, 62, 58
6, 146400, Note_on_c, 3, 69, 58
6, 146784, Note_on_c, 3, 69, 0
6, 146784, Note_on_c, 3, 62, 0
6, 146880, Note_on_c, 3, 59, 58
6, 146880, Note_on_c, 3, 67, 58
6, 147648, Note_on_c, 3, 67, 0
6, 147648, Note_on_c, 3, 59, 0
6, 148320, Note_on_c, 3, 50, 70
6, 148704, Note_on_c, 3, 50, 0
6, 148800, Note_on_c, 3, 50, 70
6, 149184, Note_on_c, 3, 50, 0
6, 149280, Note_on_c, 3, 50, 70
6, 149664, Note_on_c, 3, 50, 0
6, 149760, Note_on_c, 3, 62, 70
6, 149760, Note_on_c, 3, 50, 70
6, 150144, Note_on_c, 3, 50, 0
6, 150240, Note_on_c, 3, 50, 70
6, 150432, Note_on_c, 3, 62, 0
6, 150480, Note_on_c, 3, 74, 70
6, 150672, Note_on_c, 3, 50, 0
6, 150720, Note_on_c, 3, 74, 0
6, 150720, Note_on_c, 3, 72, 70
6, 150720, Note_on_c, 3, 50, 70
6, 150960, Note_on_c, 3, 72, 0
6, 150960, Note_on_c, 3, 71, 70
6, 151152, Note_on_c, 3, 71, 0
6, 151152, Note_on_c, 3, 50, 0
6, 151200, Note_on_c, 3, 71, 70
6, 151200, Note_on_c, 3, 50, 70
6, 151440, Note_on_c, 3, 71, 0
6, 151440, Note_on_c, 3, 72, 70
6, 151632, Note_on_c, 3, 72, 0
6, 151632, Note_on_c, 3, 50, 0
6, 151680, Note_on_c, 3, 69, 70
6, 151680, Note_on_c, 3, 50, 70
6, 152064, Note_on_c, 3, 50, 0
6, 152064, Note_on_c, 3, 69, 0
6, 152160, Note_on_c, 3, 71, 70
6, 152160, Note_on_c, 3, 50, 70
6, 152400, Note_on_c, 3, 71, 0
6, 152400, Note_on_c, 3, 72, 70
6, 152592, Note_on_c, 3, 72, 0
6, 152592, Note_on_c, 3, 50, 0
6, 152640, Note_on_c, 3, 71, 70
6, 152640, Note_on_c, 3, 50, 70
6, 152880, Note_on_c, 3, 71, 0
6, 152880, Note_on_c, 3, 67, 70
6, 153072, Note_on_c, 3, 67, 0
6, 153072, Note_on_c, 3, 50, 0
6, 153120, Note_on_c, 3, 50, 70
6, 153120, Note_on_c, 3, 62, 70
6, 153504, Note_on_c, 3, 62, 0
6, 153504, Note_on_c, 3, 50, 0
6, 154080, Note_on_c, 3, 59, 58
6, 154080, Note_on_c, 3, 67, 58
6, 154848, Note_on_c, 3, 67, 0
6, 154848, Note_on_c, 3, 59, 0
6, 156000, Note_on_c, 3, 62, 58
6, 156000, Note_on_c, 3, 69, 58
6, 156384, Note_on_c, 3, 69, 0
6, 156384, Note_on_c, 3, 62, 0
6, 156480, Note_on_c, 3, 62, 58
6, 156480, Note_on_c, 3, 69, 58
6, 156864, Note_on_c, 3, 69, 0
6, 156864, Note_on_c, 3, 62, 0
6, 156960, Note_on_c, 3, 62, 58
6, 156960, Note_on_c, 3, 69, 58
6, 157728, Note_on_c, 3, 69, 0
6, 157728, Note_on_c, 3, 62, 0
6, 157920, Note_on_c, 3, 62, 58
6, 158304, Note_on_c, 3, 62, 0
6, 158400, Note_on_c, 3, 59, 58
6, 158400, Note_on_c, 3, 62, 58
6, 158784, Note_on_c, 3, 62, 0
6, 158784, Note_on_c, 3, 59, 0
6, 158880, Note_on_c, 3, 67, 58
6, 158880, Note_on_c, 3, 55, 58
6, 159264, Note_on_c, 3, 55, 0
6, 159264, Note_on_c, 3, 67, 0
6, 161520, Note_on_c, 3, 62, 58
6, 161712, Note_on_c, 3, 62, 0
6, 161760, Note_on_c, 3, 62, 58
6, 161952, Note_on_c, 3, 62, 0
6, 162000, Note_on_c, 3, 62, 58
6, 162192, Note_on_c, 3, 62, 0
6, 162240, Note_on_c, 3, 62, 58
6, 162624, Note_on_c, 3, 62, 0
6, 164400, Note_on_c, 3, 62, 58
6, 164592, Note_on_c, 3, 62, 0
6, 164640, Note_on_c, 3, 62, 58
6, 164832, Note_on_c, 3, 62, 0
6, 164880, Note_on_c, 3, 62, 58
6, 165072, Note_on_c, 3, 62, 0
6, 165120, Note_on_c, 3, 62, 58
6, 165504, Note_on_c, 3, 62, 0
6, 165600, Note_on_c, 3, 55, 58
6, 165600, Note_on_c, 3, 72, 58
6, 165984, Note_on_c, 3, 72, 0
6, 166080, Note_on_c, 3, 71, 58
6, 166272, Note_on_c, 3, 55, 0
6, 166320, Note_on_c, 3, 59, 58
6, 166512, Note_on_c, 3, 59, 0
6, 166512, Note_on_c, 3, 71, 0
6, 166560, Note_on_c, 3, 62, 58
6, 166560, Note_on_c, 3, 69, 58
6, 166944, Note_on_c, 3, 69, 0
6, 166944, Note_on_c, 3, 62, 0
6, 167040, Note_on_c, 3, 59, 58
6, 167040, Note_on_c, 3, 67, 58
6, 167808, Note_on_c, 3, 67, 0
6, 167808, Note_on_c, 3, 59, 0
6, 168480, Note_on_c, 3, 67, 105
6, 168792, Note_on_c, 3, 67, 0
6, 168960, Note_on_c, 3, 62, 105
6, 169272, Note_on_c, 3, 62, 0
6, 169440, Note_on_c, 3, 67, 105
6, 169752, Note_on_c, 3, 67, 0
6, 170880, Note_on_c, 3, 72, 105
6, 171120, Note_on_c, 3, 72, 0
6, 171120, Note_on_c, 3, 69, 105
6, 171312, Note_on_c, 3, 69, 0
6, 171360, Note_on_c, 3, 67, 105
6, 171672, Note_on_c, 3, 67, 0
6, 171840, Note_on_c, 3, 66, 105
6, 172152, Note_on_c, 3, 66, 0
6, 172320, Note_on_c, 3, 67, 105
6, 172632, Note_on_c, 3, 67, 0
6, 172800, Note_on_c, 3, 69, 105
6, 173040, Note_on_c, 3, 69, 0
6, 173040, Note_on_c, 3, 66, 105
6, 173232, Note_on_c, 3, 66, 0
6, 173280, Note_on_c, 3, 62, 105
6, 173664, Note_on_c, 3, 62, 0
6, 180000, Note_on_c, 3, 67, 105
6, 180312, Note_on_c, 3, 67, 0
6, 180480, Note_on_c, 3, 67, 105
6, 180792, Note_on_c, 3, 67, 0
6, 180960, Note_on_c, 3, 67, 105
6, 181272, Note_on_c, 3, 67, 0
6, 181440, Note_on_c, 3, 69, 105
6, 181440, Note_on_c, 3, 72, 105
6, 181752, Note_on_c, 3, 72, 0
6, 181752, Note_on_c, 3, 69, 0
6, 181920, Note_on_c, 3, 62, 105
6, 181920, Note_on_c, 3, 69, 105
6, 182232, Note_on_c, 3, 69, 0
6, 182232, Note_on_c, 3, 62, 0
6, 182400, Note_on_c, 3, 67, 105
6, 182400, Note_on_c, 3, 55, 105
6, 182712, Note_on_c, 3, 55, 0
6, 182712, Note_on_c, 3, 67, 0
6, 183360, Note_on_c, 3, 67, 105
6, 183360, Note_on_c, 3, 62, 105
6, 183672, Note_on_c, 3, 62, 0
6, 183672, Note_on_c, 3, 67, 0
6, 183840, Note_on_c, 3, 50, 105
6, 183840, Note_on_c, 3, 69, 105
6, 184152, Note_on_c, 3, 69, 0
6, 184152, Note_on_c, 3, 50, 0
6, 184320, Note_on_c, 3, 55, 105
6, 184320, Note_on_c, 3, 67, 105
6, 185088, Note_on_c, 3, 67, 0
6, 185088, Note_on_c, 3, 55, 0
6, 185760, Note_on_c, 3, 69, 105
6, 186072, Note_on_c, 3, 69, 0
6, 186240, Note_on_c, 3, 69, 105
6, 186552, Note_on_c, 3, 69, 0
6, 186720, Note_on_c, 3, 69, 105
6, 186960, Note_on_c, 3, 69, 0
6, 186960, Note_on_c, 3, 67, 105
6, 187152, Note_on_c, 3, 67, 0
6, 187200, Note_on_c, 3, 55, 105
6, 187200, Note_on_c, 3, 67, 105
6, 187512, Note_on_c, 3, 67, 0
6, 187512, Note_on_c, 3, 55, 0
6, 188160, Note_on_c, 3, 67, 105
6, 188472, Note_on_c, 3, 67, 0
6, 188640, Note_on_c, 3, 69, 105
6, 188952, Note_on_c, 3, 69, 0
6, 189120, Note_on_c, 3, 72, 105
6, 189120, Note_on_c, 3, 69, 105
6, 189432, Note_on_c, 3, 69, 0
6, 189432, Note_on_c, 3, 72, 0
6, 189600, Note_on_c, 3, 69, 105
6, 189912, Note_on_c, 3, 69, 0
6, 190080, Note_on_c, 3, 67, 105
6, 190392, Note_on_c, 3, 67, 0
6, 190560, Note_on_c, 3, 55, 105
6, 190560, Note_on_c, 3, 67, 105
6, 190872, Note_on_c, 3, 67, 0
6, 190872, Note_on_c, 3, 55, 0
6, 197280, Note_on_c, 3, 67, 105
6, 197592, Note_on_c, 3, 67, 0
6, 197760, Note_on_c, 3, 62, 105
6, 198072, Note_on_c, 3, 62, 0
6, 198240, Note_on_c, 3, 67, 105
6, 198552, Note_on_c, 3, 67, 0
6, 199680, Note_on_c, 3, 72, 105
6, 199920, Note_on_c, 3, 72, 0
6, 199920, Note_on_c, 3, 69, 105
6, 200112, Note_on_c, 3, 69, 0
6, 200160, Note_on_c, 3, 67, 105
6, 200472, Note_on_c, 3, 67, 0
6, 200640, Note_on_c, 3, 66, 105
6, 200952, Note_on_c, 3, 66, 0
6, 201120, Note_on_c, 3, 67, 105
6, 201432, Note_on_c, 3, 67, 0
6, 201600, Note_on_c, 3, 69, 105
6, 201840, Note_on_c, 3, 69, 0
6, 201840, Note_on_c, 3, 66, 105
6, 202032, Note_on_c, 3, 66, 0
6, 202080, Note_on_c, 3, 62, 105
6, 202464, Note_on_c, 3, 62, 0
6, 208800, Note_on_c, 3, 67, 105
6, 209112, Note_on_c, 3, 67, 0
6, 209280, Note_on_c, 3, 67, 105
6, 209592, Note_on_c, 3, 67, 0
6, 209760, Note_on_c, 3, 67, 105
6, 210072, Note_on_c, 3, 67, 0
6, 210240, Note_on_c, 3, 72, 105
6, 210240, Note_on_c, 3, 69, 105
6, 210552, Note_on_c, 3, 69, 0
6, 210552, Note_on_c, 3, 72, 0
6, 210720, Note_on_c, 3, 69, 105
6, 210720, Note_on_c, 3, 62, 105
6, 211032, Note_on_c, 3, 62, 0
6, 211032, Note_on_c, 3, 69, 0
6, 211200, Note_on_c, 3, 67, 105
6, 211200, Note_on_c, 3, 55, 105
6, 211512, Note_on_c, 3, 55, 0
6, 211512, Note_on_c, 3, 67, 0
6, 214560, Note_on_c, 3, 67, 105
6, 214560, Note_on_c, 3, 67, 105
6, 214872, Note_on_c, 3, 67, 0
6, 214872, Note_on_c, 3, 67, 0
6, 215040, Note_on_c, 3, 69, 105
6, 215040, Note_on_c, 3, 69, 105
6, 215352, Note_on_c, 3, 69, 0
6, 215352, Note_on_c, 3, 69, 0
6, 216000, Note_on_c, 3, 62, 105
6, 216000, Note_on_c, 3, 69, 105
6, 216768, Note_on_c, 3, 69, 0
6, 216768, Note_on_c, 3, 62, 0
6, 216960, Note_on_c, 3, 67, 105
6, 216960, Note_on_c, 3, 55, 105
6, 217272, Note_on_c, 3, 55, 0
6, 217272, Note_on_c, 3, 67, 0
6, 217920, Note_on_c, 3, 58, 105
6, 217920, Note_on_c, 3, 67, 105
6, 218232, Note_on_c, 3, 67, 0
6, 218232, Note_on_c, 3, 58, 0
6, 218400, Note_on_c, 3, 69, 105
6, 218400, Note_on_c, 3, 50, 105
6, 218712, Note_on_c, 3, 50, 0
6, 218712, Note_on_c, 3, 69, 0
6, 218880, Note_on_c, 3, 55, 105
6, 218880, Note_on_c, 3, 67, 105
6, 219840, Note_on_c, 3, 67, 0
6, 219840, Note_on_c, 3, 55, 0
6, 219840, End_track
7, 0, Start_track
7, 0, Program_c, 4, 48
7, 0, Control_c, 4, 7, 126
7, 0, Control_c, 4, 10, 36
7, 0, Control_c, 4, 91, 81
7, 1440, Note_on_c, 4, 67, 105
7, 1752, Note_on_c, 4, 67, 0
7, 1920, Note_on_c, 4, 62, 105
7, 2232, Note_on_c, 4, 62, 0
7, 2400, Note_on_c, 4, 67, 105
7, 2712, Note_on_c, 4, 67, 0
7, 2880, Note_on_c, 4, 70, 105
7, 3648, Note_on_c, 4, 70, 0
7, 3840, Note_on_c, 4, 72, 105
7, 4080, Note_on_c, 4, 72, 0
7, 4080, Note_on_c, 4, 69, 105
7, 4272, Note_on_c, 4, 69, 0
7, 4320, Note_on_c, 4, 67, 105
7, 4632, Note_on_c, 4, 67, 0
7, 4800, Note_on_c, 4, 66, 105
7, 5112, Note_on_c, 4, 66, 0
7, 5280, Note_on_c, 4, 67, 105
7, 5592, Note_on_c, 4, 67, 0
7, 5760, Note_on_c, 4, 69, 105
7, 6000, Note_on_c, 4, 69, 0
7, 6000, Note_on_c, 4, 66, 105
7, 6192, Note_on_c, 4, 66, 0
7, 6240, Note_on_c, 4, 62, 105
7, 6624, Note_on_c, 4, 62, 0
7, 7200, Note_on_c, 4, 72, 70
7, 7512, Note_on_c, 4, 72, 0
7, 7680, Note_on_c, 4, 72, 70
7, 7992, Note_on_c, 4, 72, 0
7, 8160, Note_on_c, 4, 72, 70
7, 8472, Note_on_c, 4, 72, 0
7, 8640, Note_on_c, 4, 71, 90
7, 9360, Note_on_c, 4, 71, 0
7, 9360, Note_on_c, 4, 72, 70
7, 9480, Note_on_c, 4, 72, 0
7, 9480, Note_on_c, 4, 74, 70
7, 9600, Note_on_c, 4, 74, 0
7, 9600, Note_on_c, 4, 72, 70
7, 9912, Note_on_c, 4, 72, 0
7, 10080, Note_on_c, 4, 75, 70
7, 10392, Note_on_c, 4, 75, 0
7, 10560, Note_on_c, 4, 75, 70
7, 10872, Note_on_c, 4, 75, 0
7, 11040, Note_on_c, 4, 75, 70
7, 11352, Note_on_c, 4, 75, 0
7, 11520, Note_on_c, 4, 74, 90
7, 12240, Note_on_c, 4, 74, 0
7, 12240, Note_on_c, 4, 75, 70
7, 12360, Note_on_c, 4, 75, 0
7, 12360, Note_on_c, 4, 77, 70
7, 12480, Note_on_c, 4, 77, 0
7, 12480, Note_on_c, 4, 75, 70
7, 12792, Note_on_c, 4, 75, 0
7, 12960, Note_on_c, 4, 79, 116
7, 13248, Note_on_c, 4, 79, 0
7, 13440, Note_on_c, 4, 79, 116
7, 13728, Note_on_c, 4, 79, 0
7, 13920, Note_on_c, 4, 79, 116
7, 14208, Note_on_c, 4, 79, 0
7, 14400, Note_on_c, 4, 78, 116
7, 14880, Note_on_c, 4, 78, 0
7, 14880, Note_on_c, 4, 84, 116
7, 15168, Note_on_c, 4, 84, 0
7, 15360, Note_on_c, 4, 82, 116
7, 15600, Note_on_c, 4, 82, 0
7, 15840, Note_on_c, 4, 82, 116
7, 15960, Note_on_c, 4, 82, 0
7, 15960, Note_on_c, 4, 81, 116
7, 16284, Note_on_c, 4, 81, 0
7, 16320, Note_on_c, 4, 79, 116
7, 16608, Note_on_c, 4, 79, 0
7, 16800, Note_on_c, 4, 78, 116
7, 17088, Note_on_c, 4, 78, 0
7, 17280, Note_on_c, 4, 79, 116
7, 18048, Note_on_c, 4, 79, 0
7, 18720, Note_on_c, 4, 67, 105
7, 19032, Note_on_c, 4, 67, 0
7, 19200, Note_on_c, 4, 62, 105
7, 19512, Note_on_c, 4, 62, 0
7, 19680, Note_on_c, 4, 67, 105
7, 19992, Note_on_c, 4, 67, 0
7, 20160, Note_on_c, 4, 70, 105
7, 20928, Note_on_c, 4, 70, 0
7, 21120, Note_on_c, 4, 72, 105
7, 21360, Note_on_c, 4, 72, 0
7, 21360, Note_on_c, 4, 69, 105
7, 21552, Note_on_c, 4, 69, 0
7, 21600, Note_on_c, 4, 67, 105
7, 21912, Note_on_c, 4, 67, 0
7, 22080, Note_on_c, 4, 66, 105
7, 22392, Note_on_c, 4, 66, 0
7, 22560, Note_on_c, 4, 67, 105
7, 22872, Note_on_c, 4, 67, 0
7, 23040, Note_on_c, 4, 69, 105
7, 23280, Note_on_c, 4, 69, 0
7, 23280, Note_on_c, 4, 66, 105
7, 23472, Note_on_c, 4, 66, 0
7, 23520, Note_on_c, 4, 62, 105
7, 23904, Note_on_c, 4, 62, 0
7, 24480, Note_on_c, 4, 72, 70
7, 24792, Note_on_c, 4, 72, 0
7, 24960, Note_on_c, 4, 72, 70
7, 25272, Note_on_c, 4, 72, 0
7, 25440, Note_on_c, 4, 72, 70
7, 25752, Note_on_c, 4, 72, 0
7, 25920, Note_on_c, 4, 71, 90
7, 26640, Note_on_c, 4, 71, 0
7, 26640, Note_on_c, 4, 72, 70
7, 26760, Note_on_c, 4, 72, 0
7, 26760, Note_on_c, 4, 74, 70
7, 26880, Note_on_c, 4, 74, 0
7, 26880, Note_on_c, 4, 72, 70
7, 27192, Note_on_c, 4, 72, 0
7, 27360, Note_on_c, 4, 75, 70
7, 27672, Note_on_c, 4, 75, 0
7, 27840, Note_on_c, 4, 75, 70
7, 28152, Note_on_c, 4, 75, 0
7, 28320, Note_on_c, 4, 75, 70
7, 28632, Note_on_c, 4, 75, 0
7, 28800, Note_on_c, 4, 74, 90
7, 29520, Note_on_c, 4, 74, 0
7, 29520, Note_on_c, 4, 75, 70
7, 29640, Note_on_c, 4, 75, 0
7, 29640, Note_on_c, 4, 77, 70
7, 29760, Note_on_c, 4, 77, 0
7, 29760, Note_on_c, 4, 75, 70
7, 30072, Note_on_c, 4, 75, 0
7, 30240, Note_on_c, 4, 79, 116
7, 30528, Note_on_c, 4, 79, 0
7, 30720, Note_on_c, 4, 79, 116
7, 31008, Note_on_c, 4, 79, 0
7, 31200, Note_on_c, 4, 79, 116
7, 31488, Note_on_c, 4, 79, 0
7, 31680, Note_on_c, 4, 78, 116
7, 32160, Note_on_c, 4, 78, 0
7, 32160, Note_on_c, 4, 84, 116
7, 32448, Note_on_c, 4, 84, 0
7, 32640, Note_on_c, 4, 82, 116
7, 32880, Note_on_c, 4, 82, 0
7, 33120, Note_on_c, 4, 82, 116
7, 33240, Note_on_c, 4, 82, 0
7, 33240, Note_on_c, 4, 81, 116
7, 33564, Note_on_c, 4, 81, 0
7, 33600, Note_on_c, 4, 79, 116
7, 33888, Note_on_c, 4, 79, 0
7, 34080, Note_on_c, 4, 78, 116
7, 34368, Note_on_c, 4, 78, 0
7, 34560, Note_on_c, 4, 79, 116
7, 35328, Note_on_c, 4, 79, 0
7, 36000, Note_on_c, 4, 81, 116
7, 36288, Note_on_c, 4, 81, 0
7, 36480, Note_on_c, 4, 81, 116
7, 36768, Note_on_c, 4, 81, 0
7, 36960, Note_on_c, 4, 81, 116
7, 37200, Note_on_c, 4, 81, 0
7, 37200, Note_on_c, 4, 82, 116
7, 37392, Note_on_c, 4, 82, 0
7, 37440, Note_on_c, 4, 82, 116
7, 38016, Note_on_c, 4, 82, 0
7, 38160, Note_on_c, 4, 81, 116
7, 38304, Note_on_c, 4, 81, 0
7, 38400, Note_on_c, 4, 79, 116
7, 38808, Note_on_c, 4, 79, 0
7, 38880, Note_on_c, 4, 78, 116
7, 39168, Note_on_c, 4, 78, 0
7, 39360, Note_on_c, 4, 78, 116
7, 39648, Note_on_c, 4, 78, 0
7, 39840, Note_on_c, 4, 78, 116
7, 40128, Note_on_c, 4, 78, 0
7, 40320, Note_on_c, 4, 81, 116
7, 40380, Note_on_c, 4, 81, 0
7, 40380, Note_on_c, 4, 79, 116
7, 40440, Note_on_c, 4, 79, 0
7, 40440, Note_on_c, 4, 81, 116
7, 40500, Note_on_c, 4, 81, 0
7, 40500, Note_on_c, 4, 79, 116
7, 40560, Note_on_c, 4, 79, 0
7, 40560, Note_on_c, 4, 81, 116
7, 40680, Note_on_c, 4, 81, 0
7, 40680, Note_on_c, 4, 78, 116
7, 40776, Note_on_c, 4, 78, 0
7, 40800, Note_on_c, 4, 79, 116
7, 41184, Note_on_c, 4, 79, 0
7, 41760, Note_on_c, 4, 77, 70
7, 42072, Note_on_c, 4, 77, 0
7, 42240, Note_on_c, 4, 77, 70
7, 42552, Note_on_c, 4, 77, 0
7, 42720, Note_on_c, 4, 77, 70
7, 42960, Note_on_c, 4, 77, 0
7, 42960, Note_on_c, 4, 75, 70
7, 43152, Note_on_c, 4, 75, 0
7, 43200, Note_on_c, 4, 75, 70
7, 43776, Note_on_c, 4, 75, 0
7, 43920, Note_on_c, 4, 74, 70
7, 44040, Note_on_c, 4, 74, 0
7, 44160, Note_on_c, 4, 72, 70
7, 44544, Note_on_c, 4, 72, 0
7, 44640, Note_on_c, 4, 70, 70
7, 44952, Note_on_c, 4, 70, 0
7, 45120, Note_on_c, 4, 69, 70
7, 45432, Note_on_c, 4, 69, 0
7, 45600, Note_on_c, 4, 67, 70
7, 45912, Note_on_c, 4, 67, 0
7, 46080, Note_on_c, 4, 73, 70
7, 46176, Note_on_c, 4, 73, 0
7, 46200, Note_on_c, 4, 74, 70
7, 46434, Note_on_c, 4, 74, 0
7, 46560, Note_on_c, 4, 62, 70
7, 46872, Note_on_c, 4, 62, 0
7, 47520, Note_on_c, 4, 67, 105
7, 47832, Note_on_c, 4, 67, 0
7, 48000, Note_on_c, 4, 62, 105
7, 48312, Note_on_c, 4, 62, 0
7, 48480, Note_on_c, 4, 67, 105
7, 48792, Note_on_c, 4, 67, 0
7, 48960, Note_on_c, 4, 70, 105
7, 49728, Note_on_c, 4, 70, 0
7, 49920, Note_on_c, 4, 72, 105
7, 50160, Note_on_c, 4, 72, 0
7, 50160, Note_on_c, 4, 69, 105
7, 50352, Note_on_c, 4, 69, 0
7, 50400, Note_on_c, 4, 67, 105
7, 50712, Note_on_c, 4, 67, 0
7, 50880, Note_on_c, 4, 66, 105
7, 51192, Note_on_c, 4, 66, 0
7, 51360, Note_on_c, 4, 67, 105
7, 51672, Note_on_c, 4, 67, 0
7, 51840, Note_on_c, 4, 69, 105
7, 52080, Note_on_c, 4, 69, 0
7, 52080, Note_on_c, 4, 66, 105
7, 52272, Note_on_c, 4, 66, 0
7, 52320, Note_on_c, 4, 62, 105
7, 52704, Note_on_c, 4, 62, 0
7, 53280, Note_on_c, 4, 72, 70
7, 53592, Note_on_c, 4, 72, 0
7, 53760, Note_on_c, 4, 72, 70
7, 54072, Note_on_c, 4, 72, 0
7, 54240, Note_on_c, 4, 72, 70
7, 54552, Note_on_c, 4, 72, 0
7, 54720, Note_on_c, 4, 71, 90
7, 55440, Note_on_c, 4, 71, 0
7, 55440, Note_on_c, 4, 72, 70
7, 55560, Note_on_c, 4, 72, 0
7, 55560, Note_on_c, 4, 74, 70
7, 55680, Note_on_c, 4, 74, 0
7, 55680, Note_on_c, 4, 72, 70
7, 55992, Note_on_c, 4, 72, 0
7, 56160, Note_on_c, 4, 75, 70
7, 56472, Note_on_c, 4, 75, 0
7, 56640, Note_on_c, 4, 75, 70
7, 56952, Note_on_c, 4, 75, 0
7, 57120, Note_on_c, 4, 75, 70
7, 57432, Note_on_c, 4, 75, 0
7, 57600, Note_on_c, 4, 74, 90
7, 58320, Note_on_c, 4, 74, 0
7, 58320, Note_on_c, 4, 75, 70
7, 58440, Note_on_c, 4, 75, 0
7, 58440, Note_on_c, 4, 77, 70
7, 58560, Note_on_c, 4, 77, 0
7, 58560, Note_on_c, 4, 75, 70
7, 58872, Note_on_c, 4, 75, 0
7, 59040, Note_on_c, 4, 79, 116
7, 59328, Note_on_c, 4, 79, 0
7, 59520, Note_on_c, 4, 79, 116
7, 59808, Note_on_c, 4, 79, 0
7, 60000, Note_on_c, 4, 79, 116
7, 60288, Note_on_c, 4, 79, 0
7, 60480, Note_on_c, 4, 78, 116
7, 60960, Note_on_c, 4, 78, 0
7, 60960, Note_on_c, 4, 84, 116
7, 61248, Note_on_c, 4, 84, 0
7, 61440, Note_on_c, 4, 82, 116
7, 61680, Note_on_c, 4, 82, 0
7, 61920, Note_on_c, 4, 67, 70
7, 62208, Note_on_c, 4, 67, 0
7, 62400, Note_on_c, 4, 67, 70
7, 62688, Note_on_c, 4, 67, 0
7, 62880, Note_on_c, 4, 67, 70
7, 63168, Note_on_c, 4, 67, 0
7, 63360, Note_on_c, 4, 66, 70
7, 63840, Note_on_c, 4, 66, 0
7, 63840, Note_on_c, 4, 72, 70
7, 64128, Note_on_c, 4, 72, 0
7, 64320, Note_on_c, 4, 70, 70
7, 64560, Note_on_c, 4, 70, 0
7, 64800, Note_on_c, 4, 85, 116
7, 65088, Note_on_c, 4, 85, 0
7, 65280, Note_on_c, 4, 85, 116
7, 65568, Note_on_c, 4, 85, 0
7, 65760, Note_on_c, 4, 85, 116
7, 66048, Note_on_c, 4, 85, 0
7, 66240, Note_on_c, 4, 86, 116
7, 67008, Note_on_c, 4, 86, 0
7, 67200, Note_on_c, 4, 84, 116
7, 67440, Note_on_c, 4, 84, 0
7, 67440, Note_on_c, 4, 82, 116
7, 67632, Note_on_c, 4, 82, 0
7, 67680, Note_on_c, 4, 82, 116
7, 67800, Note_on_c, 4, 82, 0
7, 67800, Note_on_c, 4, 81, 116
7, 68124, Note_on_c, 4, 81, 0
7, 68160, Note_on_c, 4, 79, 116
7, 68448, Note_on_c, 4, 79, 0
7, 68640, Note_on_c, 4, 78, 116
7, 68928, Note_on_c, 4, 78, 0
7, 69120, Note_on_c, 4, 79, 116
7, 69888, Note_on_c, 4, 79, 0
7, 70560, Note_on_c, 4, 81, 116
7, 70848, Note_on_c, 4, 81, 0
7, 71040, Note_on_c, 4, 81, 116
7, 71328, Note_on_c, 4, 81, 0
7, 71520, Note_on_c, 4, 81, 116
7, 71760, Note_on_c, 4, 81, 0
7, 71760, Note_on_c, 4, 82, 116
7, 71952, Note_on_c, 4, 82, 0
7, 72000, Note_on_c, 4, 82, 116
7, 72576, Note_on_c, 4, 82, 0
7, 72720, Note_on_c, 4, 81, 116
7, 72864, Note_on_c, 4, 81, 0
7, 72960, Note_on_c, 4, 79, 116
7, 73368, Note_on_c, 4, 79, 0
7, 73440, Note_on_c, 4, 78, 116
7, 73728, Note_on_c, 4, 78, 0
7, 73920, Note_on_c, 4, 78, 116
7, 74208, Note_on_c, 4, 78, 0
7, 74400, Note_on_c, 4, 78, 116
7, 74688, Note_on_c, 4, 78, 0
7, 74880, Note_on_c, 4, 81, 116
7, 74940, Note_on_c, 4, 81, 0
7, 74940, Note_on_c, 4, 79, 116
7, 75000, Note_on_c, 4, 79, 0
7, 75000, Note_on_c, 4, 81, 116
7, 75060, Note_on_c, 4, 81, 0
7, 75060, Note_on_c, 4, 79, 116
7, 75120, Note_on_c, 4, 79, 0
7, 75120, Note_on_c, 4, 81, 116
7, 75240, Note_on_c, 4, 81, 0
7, 75240, Note_on_c, 4, 78, 116
7, 75336, Note_on_c, 4, 78, 0
7, 75360, Note_on_c, 4, 79, 116
7, 75744, Note_on_c, 4, 79, 0
7, 76320, Note_on_c, 4, 77, 70
7, 76632, Note_on_c, 4, 77, 0
7, 76800, Note_on_c, 4, 77, 70
7, 77112, Note_on_c, 4, 77, 0
7, 77280, Note_on_c, 4, 77, 70
7, 77520, Note_on_c, 4, 77, 0
7, 77520, Note_on_c, 4, 75, 70
7, 77712, Note_on_c, 4, 75, 0
7, 77760, Note_on_c, 4, 75, 70
7, 78336, Note_on_c, 4, 75, 0
7, 78480, Note_on_c, 4, 74, 70
7, 78600, Note_on_c, 4, 74, 0
7, 78720, Note_on_c, 4, 72, 70
7, 79104, Note_on_c, 4, 72, 0
7, 79200, Note_on_c, 4, 70, 70
7, 79512, Note_on_c, 4, 70, 0
7, 79680, Note_on_c, 4, 69, 70
7, 79992, Note_on_c, 4, 69, 0
7, 80160, Note_on_c, 4, 67, 70
7, 80472, Note_on_c, 4, 67, 0
7, 80640, Note_on_c, 4, 73, 70
7, 80736, Note_on_c, 4, 73, 0
7, 80760, Note_on_c, 4, 74, 70
7, 80994, Note_on_c, 4, 74, 0
7, 81120, Note_on_c, 4, 62, 70
7, 81432, Note_on_c, 4, 62, 0
7, 82080, Note_on_c, 4, 67, 105
7, 82392, Note_on_c, 4, 67, 0
7, 82560, Note_on_c, 4, 62, 105
7, 82872, Note_on_c, 4, 62, 0
7, 83040, Note_on_c, 4, 67, 105
7, 83352, Note_on_c, 4, 67, 0
7, 83520, Note_on_c, 4, 70, 105
7, 84288, Note_on_c, 4, 70, 0
7, 84480, Note_on_c, 4, 72, 105
7, 84720, Note_on_c, 4, 72, 0
7, 84720, Note_on_c, 4, 69, 105
7, 84912, Note_on_c, 4, 69, 0
7, 84960, Note_on_c, 4, 67, 105
7, 85272, Note_on_c, 4, 67, 0
7, 85440, Note_on_c, 4, 66, 105
7, 85752, Note_on_c, 4, 66, 0
7, 85920, Note_on_c, 4, 67, 105
7, 86232, Note_on_c, 4, 67, 0
7, 86400, Note_on_c, 4, 69, 105
7, 86640, Note_on_c, 4, 69, 0
7, 86640, Note_on_c, 4, 66, 105
7, 86832, Note_on_c, 4, 66, 0
7, 86880, Note_on_c, 4, 62, 105
7, 87264, Note_on_c, 4, 62, 0
7, 87840, Note_on_c, 4, 72, 70
7, 88152, Note_on_c, 4, 72, 0
7, 88320, Note_on_c, 4, 72, 70
7, 88632, Note_on_c, 4, 72, 0
7, 88800, Note_on_c, 4, 72, 70
7, 89112, Note_on_c, 4, 72, 0
7, 89280, Note_on_c, 4, 71, 90
7, 90000, Note_on_c, 4, 71, 0
7, 90000, Note_on_c, 4, 72, 70
7, 90120, Note_on_c, 4, 72, 0
7, 90120, Note_on_c, 4, 74, 70
7, 90240, Note_on_c, 4, 74, 0
7, 90240, Note_on_c, 4, 72, 70
7, 90552, Note_on_c, 4, 72, 0
7, 90720, Note_on_c, 4, 75, 70
7, 91032, Note_on_c, 4, 75, 0
7, 91200, Note_on_c, 4, 75, 70
7, 91512, Note_on_c, 4, 75, 0
7, 91680, Note_on_c, 4, 75, 70
7, 91992, Note_on_c, 4, 75, 0
7, 92160, Note_on_c, 4, 74, 90
7, 92880, Note_on_c, 4, 74, 0
7, 92880, Note_on_c, 4, 75, 70
7, 93000, Note_on_c, 4, 75, 0
7, 93000, Note_on_c, 4, 77, 70
7, 93120, Note_on_c, 4, 77, 0
7, 93120, Note_on_c, 4, 75, 70
7, 93432, Note_on_c, 4, 75, 0
7, 93600, Note_on_c, 4, 79, 116
7, 93888, Note_on_c, 4, 79, 0
7, 94080, Note_on_c, 4, 79, 116
7, 94368, Note_on_c, 4, 79, 0
7, 94560, Note_on_c, 4, 79, 116
7, 94848, Note_on_c, 4, 79, 0
7, 95040, Note_on_c, 4, 78, 116
7, 95520, Note_on_c, 4, 78, 0
7, 95520, Note_on_c, 4, 84, 116
7, 95808, Note_on_c, 4, 84, 0
7, 96000, Note_on_c, 4, 82, 116
7, 96240, Note_on_c, 4, 82, 0
7, 96480, Note_on_c, 4, 67, 70
7, 96768, Note_on_c, 4, 67, 0
7, 96960, Note_on_c, 4, 67, 70
7, 97248, Note_on_c, 4, 67, 0
7, 97440, Note_on_c, 4, 67, 70
7, 97728, Note_on_c, 4, 67, 0
7, 97920, Note_on_c, 4, 66, 70
7, 98400, Note_on_c, 4, 66, 0
7, 98400, Note_on_c, 4, 72, 70
7, 98688, Note_on_c, 4, 72, 0
7, 98880, Note_on_c, 4, 70, 70
7, 99120, Note_on_c, 4, 70, 0
7, 99360, Note_on_c, 4, 85, 116
7, 99648, Note_on_c, 4, 85, 0
7, 99840, Note_on_c, 4, 85, 116
7, 100128, Note_on_c, 4, 85, 0
7, 100320, Note_on_c, 4, 85, 116
7, 100608, Note_on_c, 4, 85, 0
7, 100800, Note_on_c, 4, 86, 116
7, 101568, Note_on_c, 4, 86, 0
7, 101760, Note_on_c, 4, 84, 116
7, 102000, Note_on_c, 4, 84, 0
7, 102000, Note_on_c, 4, 82, 116
7, 102192, Note_on_c, 4, 82, 0
7, 102240, Note_on_c, 4, 82, 116
7, 102360, Note_on_c, 4, 82, 0
7, 102360, Note_on_c, 4, 81, 116
7, 102684, Note_on_c, 4, 81, 0
7, 102720, Note_on_c, 4, 79, 116
7, 103008, Note_on_c, 4, 79, 0
7, 103200, Note_on_c, 4, 78, 116
7, 103488, Note_on_c, 4, 78, 0
7, 103680, Note_on_c, 4, 79, 116
7, 104448, Note_on_c, 4, 79, 0
7, 168480, Note_on_c, 4, 67, 105
7, 168792, Note_on_c, 4, 67, 0
7, 168960, Note_on_c, 4, 62, 105
7, 169272, Note_on_c, 4, 62, 0
7, 169440, Note_on_c, 4, 67, 105
7, 169752, Note_on_c, 4, 67, 0
7, 169920, Note_on_c, 4, 70, 105
7, 170688, Note_on_c, 4, 70, 0
7, 170880, Note_on_c, 4, 72, 105
7, 171120, Note_on_c, 4, 72, 0
7, 171120, Note_on_c, 4, 69, 105
7, 171312, Note_on_c, 4, 69, 0
7, 171360, Note_on_c, 4, 67, 105
7, 171672, Note_on_c, 4, 67, 0
7, 171840, Note_on_c, 4, 66, 105
7, 172152, Note_on_c, 4, 66, 0
7, 172320, Note_on_c, 4, 67, 105
7, 172632, Note_on_c, 4, 67, 0
7, 172800, Note_on_c, 4, 69, 105
7, 173040, Note_on_c, 4, 69, 0
7, 173040, Note_on_c, 4, 66, 105
7, 173232, Note_on_c, 4, 66, 0
7, 173280, Note_on_c, 4, 62, 105
7, 173664, Note_on_c, 4, 62, 0
7, 174240, Note_on_c, 4, 72, 70
7, 174552, Note_on_c, 4, 72, 0
7, 174720, Note_on_c, 4, 72, 70
7, 175032, Note_on_c, 4, 72, 0
7, 175200, Note_on_c, 4, 72, 70
7, 175512, Note_on_c, 4, 72, 0
7, 175680, Note_on_c, 4, 71, 90
7, 176400, Note_on_c, 4, 71, 0
7, 176400, Note_on_c, 4, 72, 70
7, 176520, Note_on_c, 4, 72, 0
7, 176520, Note_on_c, 4, 74, 70
7, 176640, Note_on_c, 4, 74, 0
7, 176640, Note_on_c, 4, 72, 70
7, 176952, Note_on_c, 4, 72, 0
7, 177120, Note_on_c, 4, 75, 70
7, 177432, Note_on_c, 4, 75, 0
7, 177600, Note_on_c, 4, 75, 70
7, 177912, Note_on_c, 4, 75, 0
7, 178080, Note_on_c, 4, 75, 70
7, 178392, Note_on_c, 4, 75, 0
7, 178560, Note_on_c, 4, 74, 90
7, 179280, Note_on_c, 4, 74, 0
7, 179280, Note_on_c, 4, 75, 70
7, 179400, Note_on_c, 4, 75, 0
7, 179400, Note_on_c, 4, 77, 70
7, 179520, Note_on_c, 4, 77, 0
7, 179520, Note_on_c, 4, 75, 70
7, 179832, Note_on_c, 4, 75, 0
7, 180000, Note_on_c, 4, 79, 116
7, 180288, Note_on_c, 4, 79, 0
7, 180480, Note_on_c, 4, 79, 116
7, 180768, Note_on_c, 4, 79, 0
7, 180960, Note_on_c, 4, 79, 116
7, 181248, Note_on_c, 4, 79, 0
7, 181440, Note_on_c, 4, 78, 116
7, 181920, Note_on_c, 4, 78, 0
7, 181920, Note_on_c, 4, 84, 116
7, 182208, Note_on_c, 4, 84, 0
7, 182400, Note_on_c, 4, 82, 116
7, 182640, Note_on_c, 4, 82, 0
7, 182880, Note_on_c, 4, 82, 116
7, 183000, Note_on_c, 4, 82, 0
7, 183000, Note_on_c, 4, 81, 116
7, 183324, Note_on_c, 4, 81, 0
7, 183360, Note_on_c, 4, 79, 116
7, 183648, Note_on_c, 4, 79, 0
7, 183840, Note_on_c, 4, 78, 116
7, 184128, Note_on_c, 4, 78, 0
7, 184320, Note_on_c, 4, 79, 116
7, 185088, Note_on_c, 4, 79, 0
7, 185760, Note_on_c, 4, 81, 116
7, 186048, Note_on_c, 4, 81, 0
7, 186240, Note_on_c, 4, 81, 116
7, 186528, Note_on_c, 4, 81, 0
7, 186720, Note_on_c, 4, 81, 116
7, 186960, Note_on_c, 4, 81, 0
7, 186960, Note_on_c, 4, 82, 116
7, 187152, Note_on_c, 4, 82, 0
7, 187200, Note_on_c, 4, 82, 116
7, 187776, Note_on_c, 4, 82, 0
7, 187920, Note_on_c, 4, 81, 116
7, 188064, Note_on_c, 4, 81, 0
7, 188160, Note_on_c, 4, 79, 116
7, 188568, Note_on_c, 4, 79, 0
7, 188640, Note_on_c, 4, 78, 116
7, 188928, Note_on_c, 4, 78, 0
7, 189120, Note_on_c, 4, 78, 116
7, 189408, Note_on_c, 4, 78, 0
7, 189600, Note_on_c, 4, 78, 116
7, 189888, Note_on_c, 4, 78, 0
7, 190080, Note_on_c, 4, 81, 116
7, 190140, Note_on_c, 4, 81, 0
7, 190140, Note_on_c, 4, 79, 116
7, 190200, Note_on_c, 4, 79, 0
7, 190200, Note_on_c, 4, 81, 116
7, 190260, Note_on_c, 4, 81, 0
7, 190260, Note_on_c, 4, 79, 116
7, 190320, Note_on_c, 4, 79, 0
7, 190320, Note_on_c, 4, 81, 116
7, 190440, Note_on_c, 4, 81, 0
7, 190440, Note_on_c, 4, 78, 105
7, 190536, Note_on_c, 4, 78, 0
7, 190560, Note_on_c, 4, 79, 105
7, 190944, Note_on_c, 4, 79, 0
7, 191520, Note_on_c, 4, 77, 70
7, 191832, Note_on_c, 4, 77, 0
7, 192000, Note_on_c, 4, 77, 70
7, 192312, Note_on_c, 4, 77, 0
7, 192480, Note_on_c, 4, 77, 70
7, 192720, Note_on_c, 4, 77, 0
7, 192720, Note_on_c, 4, 75, 70
7, 192912, Note_on_c, 4, 75, 0
7, 192960, Note_on_c, 4, 75, 70
7, 193536, Note_on_c, 4, 75, 0
7, 193680, Note_on_c, 4, 74, 70
7, 193800, Note_on_c, 4, 74, 0
7, 193920, Note_on_c, 4, 72, 70
7, 194304, Note_on_c, 4, 72, 0
7, 194400, Note_on_c, 4, 70, 70
7, 194712, Note_on_c, 4, 70, 0
7, 194880, Note_on_c, 4, 69, 70
7, 195192, Note_on_c, 4, 69, 0
7, 195360, Note_on_c, 4, 67, 70
7, 195672, Note_on_c, 4, 67, 0
7, 195840, Note_on_c, 4, 73, 70
7, 195936, Note_on_c, 4, 73, 0
7, 195960, Note_on_c, 4, 74, 70
7, 196194, Note_on_c, 4, 74, 0
7, 196320, Note_on_c, 4, 62, 70
7, 196632, Note_on_c, 4, 62, 0
7, 197280, Note_on_c, 4, 67, 105
7, 197592, Note_on_c, 4, 67, 0
7, 197760, Note_on_c, 4, 62, 105
7, 198072, Note_on_c, 4, 62, 0
7, 198240, Note_on_c, 4, 67, 105
7, 198552, Note_on_c, 4, 67, 0
7, 198720, Note_on_c, 4, 70, 105
7, 199488, Note_on_c, 4, 70, 0
7, 199680, Note_on_c, 4, 72, 105
7, 199920, Note_on_c, 4, 72, 0
7, 199920, Note_on_c, 4, 69, 105
7, 200112, Note_on_c, 4, 69, 0
7, 200160, Note_on_c, 4, 67, 105
7, 200472, Note_on_c, 4, 67, 0
7, 200640, Note_on_c, 4, 66, 105
7, 200952, Note_on_c, 4, 66, 0
7, 201120, Note_on_c, 4, 67, 105
7, 201432, Note_on_c, 4, 67, 0
7, 201600, Note_on_c, 4, 69, 105
7, 201840, Note_on_c, 4, 69, 0
7, 201840, Note_on_c, 4, 66, 105
7, 202032, Note_on_c, 4, 66, 0
7, 202080, Note_on_c, 4, 62, 105
7, 202464, Note_on_c, 4, 62, 0
7, 203040, Note_on_c, 4, 72, 70
7, 203352, Note_on_c, 4, 72, 0
7, 203520, Note_on_c, 4, 72, 70
7, 203832, Note_on_c, 4, 72, 0
7, 204000, Note_on_c, 4, 72, 70
7, 204312, Note_on_c, 4, 72, 0
7, 204480, Note_on_c, 4, 71, 90
7, 205200, Note_on_c, 4, 71, 0
7, 205200, Note_on_c, 4, 72, 70
7, 205320, Note_on_c, 4, 72, 0
7, 205320, Note_on_c, 4, 74, 70
7, 205440, Note_on_c, 4, 74, 0
7, 205440, Note_on_c, 4, 72, 70
7, 205752, Note_on_c, 4, 72, 0
7, 205920, Note_on_c, 4, 75, 70
7, 206232, Note_on_c, 4, 75, 0
7, 206400, Note_on_c, 4, 75, 70
7, 206712, Note_on_c, 4, 75, 0
7, 206880, Note_on_c, 4, 75, 70
7, 207192, Note_on_c, 4, 75, 0
7, 207360, Note_on_c, 4, 74, 90
7, 208080, Note_on_c, 4, 74, 0
7, 208080, Note_on_c, 4, 75, 70
7, 208200, Note_on_c, 4, 75, 0
7, 208200, Note_on_c, 4, 77, 70
7, 208320, Note_on_c, 4, 77, 0
7, 208320, Note_on_c, 4, 75, 70
7, 208632, Note_on_c, 4, 75, 0
7, 208800, Note_on_c, 4, 79, 116
7, 209088, Note_on_c, 4, 79, 0
7, 209280, Note_on_c, 4, 79, 116
7, 209568, Note_on_c, 4, 79, 0
7, 209760, Note_on_c, 4, 79, 116
7, 210048, Note_on_c, 4, 79, 0
7, 210240, Note_on_c, 4, 78, 116
7, 210720, Note_on_c, 4, 78, 0
7, 210720, Note_on_c, 4, 84, 116
7, 211008, Note_on_c, 4, 84, 0
7, 211200, Note_on_c, 4, 82, 116
7, 211440, Note_on_c, 4, 82, 0
7, 211680, Note_on_c, 4, 67, 70
7, 211968, Note_on_c, 4, 67, 0
7, 212160, Note_on_c, 4, 67, 70
7, 212448, Note_on_c, 4, 67, 0
7, 212640, Note_on_c, 4, 67, 70
7, 212928, Note_on_c, 4, 67, 0
7, 213120, Note_on_c, 4, 66, 70
7, 213600, Note_on_c, 4, 66, 0
7, 213600, Note_on_c, 4, 72, 70
7, 213888, Note_on_c, 4, 72, 0
7, 214080, Note_on_c, 4, 70, 70
7, 214320, Note_on_c, 4, 70, 0
7, 214560, Note_on_c, 4, 85, 116
7, 214848, Note_on_c, 4, 85, 0
7, 215040, Note_on_c, 4, 85, 116
7, 215328, Note_on_c, 4, 85, 0
7, 215520, Note_on_c, 4, 85, 116
7, 215808, Note_on_c, 4, 85, 0
7, 216000, Note_on_c, 4, 86, 116
7, 216768, Note_on_c, 4, 86, 0
7, 216960, Note_on_c, 4, 84, 116
7, 217200, Note_on_c, 4, 84, 0
7, 217200, Note_on_c, 4, 82, 116
7, 217392, Note_on_c, 4, 82, 0
7, 217440, Note_on_c, 4, 82, 116
7, 217560, Note_on_c, 4, 82, 0
7, 217560, Note_on_c, 4, 81, 116
7, 217884, Note_on_c, 4, 81, 0
7, 217920, Note_on_c, 4, 79, 116
7, 218208, Note_on_c, 4, 79, 0
7, 218400, Note_on_c, 4, 78, 116
7, 218688, Note_on_c, 4, 78, 0
7, 218880, Note_on_c, 4, 79, 116
7, 219840, Note_on_c, 4, 79, 0
7, 219840, End_track
8, 0, Start_track
8, 0, Program_c, 5, 48
8, 0, Control_c, 5, 7, 123
8, 0, Control_c, 5, 10, 46
8, 0, Control_c, 5, 91, 85
8, 1440, Note_on_c, 5, 67, 92
8, 1752, Note_on_c, 5, 67, 0
8, 1920, Note_on_c, 5, 62, 92
8, 2232, Note_on_c, 5, 62, 0
8, 2400, Note_on_c, 5, 67, 92
8, 2712, Note_on_c, 5, 67, 0
8, 2880, Note_on_c, 5, 70, 92
8, 3648, Note_on_c, 5, 70, 0
8, 3840, Note_on_c, 5, 72, 92
8, 4080, Note_on_c, 5, 72, 0
8, 4080, Note_on_c, 5, 69, 92
8, 4272, Note_on_c, 5, 69, 0
8, 4320, Note_on_c, 5, 67, 92
8, 4632, Note_on_c, 5, 67, 0
8, 4800, Note_on_c, 5, 66, 92
8, 5112, Note_on_c, 5, 66, 0
8, 5280, Note_on_c, 5, 67, 92
8, 5592, Note_on_c, 5, 67, 0
8, 5760, Note_on_c, 5, 69, 92
8, 6000, Note_on_c, 5, 69, 0
8, 6000, Note_on_c, 5, 66, 92
8, 6192, Note_on_c, 5, 66, 0
8, 6240, Note_on_c, 5, 62, 92
8, 6624, Note_on_c, 5, 62, 0
8, 7200, Note_on_c, 5, 67, 58
8, 7512, Note_on_c, 5, 67, 0
8, 7680, Note_on_c, 5, 67, 58
8, 7992, Note_on_c, 5, 67, 0
8, 8160, Note_on_c, 5, 67, 58
8, 8472, Note_on_c, 5, 67, 0
8, 8640, Note_on_c, 5, 65, 78
8, 9600, Note_on_c, 5, 65, 0
8, 9600, Note_on_c, 5, 67, 58
8, 9912, Note_on_c, 5, 67, 0
8, 10080, Note_on_c, 5, 67, 58
8, 10392, Note_on_c, 5, 67, 0
8, 10560, Note_on_c, 5, 67, 58
8, 10872, Note_on_c, 5, 67, 0
8, 11040, Note_on_c, 5, 67, 58
8, 11352, Note_on_c, 5, 67, 0
8, 11520, Note_on_c, 5, 67, 78
8, 12480, Note_on_c, 5, 67, 0
8, 12480, Note_on_c, 5, 67, 58
8, 12792, Note_on_c, 5, 67, 0
8, 12960, Note_on_c, 5, 62, 105
8, 13200, Note_on_c, 5, 62, 0
8, 13200, Note_on_c, 5, 74, 105
8, 13392, Note_on_c, 5, 74, 0
8, 13440, Note_on_c, 5, 62, 105
8, 13680, Note_on_c, 5, 62, 0
8, 13680, Note_on_c, 5, 74, 105
8, 13872, Note_on_c, 5, 74, 0
8, 13920, Note_on_c, 5, 62, 105
8, 14160, Note_on_c, 5, 62, 0
8, 14160, Note_on_c, 5, 74, 105
8, 14352, Note_on_c, 5, 74, 0
8, 14400, Note_on_c, 5, 75, 105
8, 14640, Note_on_c, 5, 75, 0
8, 14640, Note_on_c, 5, 72, 105
8, 14832, Note_on_c, 5, 72, 0
8, 14880, Note_on_c, 5, 69, 105
8, 15120, Note_on_c, 5, 69, 0
8, 15120, Note_on_c, 5, 66, 105
8, 15312, Note_on_c, 5, 66, 0
8, 15360, Note_on_c, 5, 67, 105
8, 15600, Note_on_c, 5, 67, 0
8, 15600, Note_on_c, 5, 55, 105
8, 15792, Note_on_c, 5, 55, 0
8, 15840, Note_on_c, 5, 63, 105
8, 16080, Note_on_c, 5, 63, 0
8, 16080, Note_on_c, 5, 60, 105
8, 16272, Note_on_c, 5, 60, 0
8, 16320, Note_on_c, 5, 58, 105
8, 16560, Note_on_c, 5, 58, 0
8, 16560, Note_on_c, 5, 62, 105
8, 16752, Note_on_c, 5, 62, 0
8, 16800, Note_on_c, 5, 60, 105
8, 17040, Note_on_c, 5, 60, 0
8, 17040, Note_on_c, 5, 57, 105
8, 17232, Note_on_c, 5, 57, 0
8, 17280, Note_on_c, 5, 55, 105
8, 18048, Note_on_c, 5, 55, 0
8, 18720, Note_on_c, 5, 67, 92
8, 19032, Note_on_c, 5, 67, 0
8, 19200, Note_on_c, 5, 62, 92
8, 19512, Note_on_c, 5, 62, 0
8, 19680, Note_on_c, 5, 67, 92
8, 19992, Note_on_c, 5, 67, 0
8, 20160, Note_on_c, 5, 70, 92
8, 20928, Note_on_c, 5, 70, 0
8, 21120, Note_on_c, 5, 72, 92
8, 21360, Note_on_c, 5, 72, 0
8, 21360, Note_on_c, 5, 69, 92
8, 21552, Note_on_c, 5, 69, 0
8, 21600, Note_on_c, 5, 67, 92
8, 21912, Note_on_c, 5, 67, 0
8, 22080, Note_on_c, 5, 66, 92
8, 22392, Note_on_c, 5, 66, 0
8, 22560, Note_on_c, 5, 67, 92
8, 22872, Note_on_c, 5, 67, 0
8, 23040, Note_on_c, 5, 69, 92
8, 23280, Note_on_c, 5, 69, 0
8, 23280, Note_on_c, 5, 66, 92
8, 23472, Note_on_c, 5, 66, 0
8, 23520, Note_on_c, 5, 62, 92
8, 23904, Note_on_c, 5, 62, 0
8, 24480, Note_on_c, 5, 67, 58
8, 24792, Note_on_c, 5, 67, 0
8, 24960, Note_on_c, 5, 67, 58
8, 25272, Note_on_c, 5, 67, 0
8, 25440, Note_on_c, 5, 67, 58
8, 25752, Note_on_c, 5, 67, 0
8, 25920, Note_on_c, 5, 65, 78
8, 26880, Note_on_c, 5, 65, 0
8, 26880, Note_on_c, 5, 67, 58
8, 27192, Note_on_c, 5, 67, 0
8, 27360, Note_on_c, 5, 67, 58
8, 27672, Note_on_c, 5, 67, 0
8, 27840, Note_on_c, 5, 67, 58
8, 28152, Note_on_c, 5, 67, 0
8, 28320, Note_on_c, 5, 67, 58
8, 28632, Note_on_c, 5, 67, 0
8, 28800, Note_on_c, 5, 67, 78
8, 29760, Note_on_c, 5, 67, 0
8, 29760, Note_on_c, 5, 67, 58
8, 30072, Note_on_c, 5, 67, 0
8, 30240, Note_on_c, 5, 62, 105
8, 30480, Note_on_c, 5, 62, 0
8, 30480, Note_on_c, 5, 74, 105
8, 30672, Note_on_c, 5, 74, 0
8, 30720, Note_on_c, 5, 62, 105
8, 30960, Note_on_c, 5, 62, 0
8, 30960, Note_on_c, 5, 74, 105
8, 31152, Note_on_c, 5, 74, 0
8, 31200, Note_on_c, 5, 62, 105
8, 31440, Note_on_c, 5, 62, 0
8, 31440, Note_on_c, 5, 74, 105
8, 31632, Note_on_c, 5, 74, 0
8, 31680, Note_on_c, 5, 75, 105
8, 31920, Note_on_c, 5, 75, 0
8, 31920, Note_on_c, 5, 72, 105
8, 32112, Note_on_c, 5, 72, 0
8, 32160, Note_on_c, 5, 69, 105
8, 32400, Note_on_c, 5, 69, 0
8, 32400, Note_on_c, 5, 66, 105
8, 32592, Note_on_c, 5, 66, 0
8, 32640, Note_on_c, 5, 67, 105
8, 32880, Note_on_c, 5, 67, 0
8, 32880, Note_on_c, 5, 55, 105
8, 33072, Note_on_c, 5, 55, 0
8, 33120, Note_on_c, 5, 63, 105
8, 33360, Note_on_c, 5, 63, 0
8, 33360, Note_on_c, 5, 60, 105
8, 33552, Note_on_c, 5, 60, 0
8, 33600, Note_on_c, 5, 58, 105
8, 33840, Note_on_c, 5, 58, 0
8, 33840, Note_on_c, 5, 62, 105
8, 34032, Note_on_c, 5, 62, 0
8, 34080, Note_on_c, 5, 60, 105
8, 34320, Note_on_c, 5, 60, 0
8, 34320, Note_on_c, 5, 57, 105
8, 34512, Note_on_c, 5, 57, 0
8, 34560, Note_on_c, 5, 55, 105
8, 35328, Note_on_c, 5, 55, 0
8, 36000, Note_on_c, 5, 66, 105
8, 36288, Note_on_c, 5, 66, 0
8, 36480, Note_on_c, 5, 66, 105
8, 36768, Note_on_c, 5, 66, 0
8, 36960, Note_on_c, 5, 66, 105
8, 37200, Note_on_c, 5, 66, 0
8, 37200, Note_on_c, 5, 67, 105
8, 37392, Note_on_c, 5, 67, 0
8, 37440, Note_on_c, 5, 67, 105
8, 38016, Note_on_c, 5, 67, 0
8, 38160, Note_on_c, 5, 69, 105
8, 38304, Note_on_c, 5, 69, 0
8, 38400, Note_on_c, 5, 70, 105
8, 38808, Note_on_c, 5, 70, 0
8, 38880, Note_on_c, 5, 69, 105
8, 39168, Note_on_c, 5, 69, 0
8, 39360, Note_on_c, 5, 69, 105
8, 39648, Note_on_c, 5, 69, 0
8, 39840, Note_on_c, 5, 69, 105
8, 40128, Note_on_c, 5, 69, 0
8, 40320, Note_on_c, 5, 69, 105
8, 40380, Note_on_c, 5, 69, 0
8, 40380, Note_on_c, 5, 67, 105
8, 40440, Note_on_c, 5, 67, 0
8, 40440, Note_on_c, 5, 69, 105
8, 40500, Note_on_c, 5, 69, 0
8, 40500, Note_on_c, 5, 67, 105
8, 40560, Note_on_c, 5, 67, 0
8, 40560, Note_on_c, 5, 69, 105
8, 40680, Note_on_c, 5, 69, 0
8, 40680, Note_on_c, 5, 66, 105
8, 40776, Note_on_c, 5, 66, 0
8, 40800, Note_on_c, 5, 67, 105
8, 41184, Note_on_c, 5, 67, 0
8, 41760, Note_on_c, 5, 56, 70
8, 42000, Note_on_c, 5, 56, 0
8, 42000, Note_on_c, 5, 55, 70
8, 42240, Note_on_c, 5, 55, 0
8, 42240, Note_on_c, 5, 56, 70
8, 42480, Note_on_c, 5, 56, 0
8, 42480, Note_on_c, 5, 55, 70
8, 42720, Note_on_c, 5, 55, 0
8, 42720, Note_on_c, 5, 56, 70
8, 42960, Note_on_c, 5, 56, 0
8, 42960, Note_on_c, 5, 55, 70
8, 43152, Note_on_c, 5, 55, 0
8, 43200, Note_on_c, 5, 55, 70
8, 43680, Note_on_c, 5, 55, 0
8, 43680, Note_on_c, 5, 63, 70
8, 43968, Note_on_c, 5, 63, 0
8, 44040, Note_on_c, 5, 62, 70
8, 44100, Note_on_c, 5, 62, 0
8, 44160, Note_on_c, 5, 60, 70
8, 44544, Note_on_c, 5, 60, 0
8, 44640, Note_on_c, 5, 58, 70
8, 44952, Note_on_c, 5, 58, 0
8, 45120, Note_on_c, 5, 57, 70
8, 45432, Note_on_c, 5, 57, 0
8, 45600, Note_on_c, 5, 55, 70
8, 45912, Note_on_c, 5, 55, 0
8, 46080, Note_on_c, 5, 61, 70
8, 46176, Note_on_c, 5, 61, 0
8, 46200, Note_on_c, 5, 62, 70
8, 46434, Note_on_c, 5, 62, 0
8, 46560, Note_on_c, 5, 57, 70
8, 46872, Note_on_c, 5, 57, 0
8, 47520, Note_on_c, 5, 67, 92
8, 47832, Note_on_c, 5, 67, 0
8, 48000, Note_on_c, 5, 62, 92
8, 48312, Note_on_c, 5, 62, 0
8, 48480, Note_on_c, 5, 67, 92
8, 48792, Note_on_c, 5, 67, 0
8, 48960, Note_on_c, 5, 70, 92
8, 49728, Note_on_c, 5, 70, 0
8, 49920, Note_on_c, 5, 72, 92
8, 50160, Note_on_c, 5, 72, 0
8, 50160, Note_on_c, 5, 69, 92
8, 50352, Note_on_c, 5, 69, 0
8, 50400, Note_on_c, 5, 67, 92
8, 50712, Note_on_c, 5, 67, 0
8, 50880, Note_on_c, 5, 66, 92
8, 51192, Note_on_c, 5, 66, 0
8, 51360, Note_on_c, 5, 67, 92
8, 51672, Note_on_c, 5, 67, 0
8, 51840, Note_on_c, 5, 69, 92
8, 52080, Note_on_c, 5, 69, 0
8, 52080, Note_on_c, 5, 66, 92
8, 52272, Note_on_c, 5, 66, 0
8, 52320, Note_on_c, 5, 62, 92
8, 52704, Note_on_c, 5, 62, 0
8, 53280, Note_on_c, 5, 67, 58
8, 53592, Note_on_c, 5, 67, 0
8, 53760, Note_on_c, 5, 67, 58
8, 54072, Note_on_c, 5, 67, 0
8, 54240, Note_on_c, 5, 67, 58
8, 54552, Note_on_c, 5, 67, 0
8, 54720, Note_on_c, 5, 65, 78
8, 55680, Note_on_c, 5, 65, 0
8, 55680, Note_on_c, 5, 67, 58
8, 55992, Note_on_c, 5, 67, 0
8, 56160, Note_on_c, 5, 67, 58
8, 56472, Note_on_c, 5, 67, 0
8, 56640, Note_on_c, 5, 67, 58
8, 56952, Note_on_c, 5, 67, 0
8, 57120, Note_on_c, 5, 67, 58
8, 57432, Note_on_c, 5, 67, 0
8, 57600, Note_on_c, 5, 67, 78
8, 58560, Note_on_c, 5, 67, 0
8, 58560, Note_on_c, 5, 67, 58
8, 58872, Note_on_c, 5, 67, 0
8, 59040, Note_on_c, 5, 62, 105
8, 59280, Note_on_c, 5, 62, 0
8, 59280, Note_on_c, 5, 74, 105
8, 59472, Note_on_c, 5, 74, 0
8, 59520, Note_on_c, 5, 62, 105
8, 59760, Note_on_c, 5, 62, 0
8, 59760, Note_on_c, 5, 74, 105
8, 59952, Note_on_c, 5, 74, 0
8, 60000, Note_on_c, 5, 62, 105
8, 60240, Note_on_c, 5, 62, 0
8, 60240, Note_on_c, 5, 74, 105
8, 60432, Note_on_c, 5, 74, 0
8, 60480, Note_on_c, 5, 75, 105
8, 60720, Note_on_c, 5, 75, 0
8, 60720, Note_on_c, 5, 72, 105
8, 60912, Note_on_c, 5, 72, 0
8, 60960, Note_on_c, 5, 69, 105
8, 61200, Note_on_c, 5, 69, 0
8, 61200, Note_on_c, 5, 66, 105
8, 61392, Note_on_c, 5, 66, 0
8, 61440, Note_on_c, 5, 67, 105
8, 61680, Note_on_c, 5, 67, 0
8, 61680, Note_on_c, 5, 55, 105
8, 61872, Note_on_c, 5, 55, 0
8, 61920, Note_on_c, 5, 62, 70
8, 62160, Note_on_c, 5, 62, 0
8, 62160, Note_on_c, 5, 63, 70
8, 62400, Note_on_c, 5, 63, 0
8, 62400, Note_on_c, 5, 62, 70
8, 62640, Note_on_c, 5, 62, 0
8, 62640, Note_on_c, 5, 63, 70
8, 62880, Note_on_c, 5, 63, 0
8, 62880, Note_on_c, 5, 62, 70
8, 63120, Note_on_c, 5, 62, 0
8, 63120, Note_on_c, 5, 63, 70
8, 63312, Note_on_c, 5, 63, 0
8, 63360, Note_on_c, 5, 62, 70
8, 63600, Note_on_c, 5, 62, 0
8, 63600, Note_on_c, 5, 63, 70
8, 63840, Note_on_c, 5, 63, 0
8, 63840, Note_on_c, 5, 62, 70
8, 64080, Note_on_c, 5, 62, 0
8, 64080, Note_on_c, 5, 63, 70
8, 64320, Note_on_c, 5, 63, 0
8, 64320, Note_on_c, 5, 62, 70
8, 64704, Note_on_c, 5, 62, 0
8, 64800, Note_on_c, 5, 73, 116
8, 65088, Note_on_c, 5, 73, 0
8, 65280, Note_on_c, 5, 73, 116
8, 65568, Note_on_c, 5, 73, 0
8, 65760, Note_on_c, 5, 73, 116
8, 66048, Note_on_c, 5, 73, 0
8, 66240, Note_on_c, 5, 74, 116
8, 67008, Note_on_c, 5, 74, 0
8, 67200, Note_on_c, 5, 72, 116
8, 67440, Note_on_c, 5, 72, 0
8, 67440, Note_on_c, 5, 70, 116
8, 67632, Note_on_c, 5, 70, 0
8, 67680, Note_on_c, 5, 70, 116
8, 67800, Note_on_c, 5, 70, 0
8, 67800, Note_on_c, 5, 69, 116
8, 68124, Note_on_c, 5, 69, 0
8, 68160, Note_on_c, 5, 67, 116
8, 68448, Note_on_c, 5, 67, 0
8, 68640, Note_on_c, 5, 66, 116
8, 68928, Note_on_c, 5, 66, 0
8, 69120, Note_on_c, 5, 67, 116
8, 69888, Note_on_c, 5, 67, 0
8, 70560, Note_on_c, 5, 66, 116
8, 70848, Note_on_c, 5, 66, 0
8, 71040, Note_on_c, 5, 66, 105
8, 71328, Note_on_c, 5, 66, 0
8, 71520, Note_on_c, 5, 66, 105
8, 71760, Note_on_c, 5, 66, 0
8, 71760, Note_on_c, 5, 67, 105
8, 71952, Note_on_c, 5, 67, 0
8, 72000, Note_on_c, 5, 67, 105
8, 72576, Note_on_c, 5, 67, 0
8, 72720, Note_on_c, 5, 69, 105
8, 72864, Note_on_c, 5, 69, 0
8, 72960, Note_on_c, 5, 70, 105
8, 73368, Note_on_c, 5, 70, 0
8, 73440, Note_on_c, 5, 69, 105
8, 73728, Note_on_c, 5, 69, 0
8, 73920, Note_on_c, 5, 69, 105
8, 74208, Note_on_c, 5, 69, 0
8, 74400, Note_on_c, 5, 69, 105
8, 74688, Note_on_c, 5, 69, 0
8, 74880, Note_on_c, 5, 69, 105
8, 74940, Note_on_c, 5, 69, 0
8, 74940, Note_on_c, 5, 67, 105
8, 75000, Note_on_c, 5, 67, 0
8, 75000, Note_on_c, 5, 69, 105
8, 75060, Note_on_c, 5, 69, 0
8, 75060, Note_on_c, 5, 67, 105
8, 75120, Note_on_c, 5, 67, 0
8, 75120, Note_on_c, 5, 69, 105
8, 75240, Note_on_c, 5, 69, 0
8, 75240, Note_on_c, 5, 66, 105
8, 75336, Note_on_c, 5, 66, 0
8, 75360, Note_on_c, 5, 67, 105
8, 75744, Note_on_c, 5, 67, 0
8, 76320, Note_on_c, 5, 56, 70
8, 76560, Note_on_c, 5, 56, 0
8, 76560, Note_on_c, 5, 55, 70
8, 76800, Note_on_c, 5, 55, 0
8, 76800, Note_on_c, 5, 56, 70
8, 77040, Note_on_c, 5, 56, 0
8, 77040, Note_on_c, 5, 55, 70
8, 77280, Note_on_c, 5, 55, 0
8, 77280, Note_on_c, 5, 56, 70
8, 77520, Note_on_c, 5, 56, 0
8, 77520, Note_on_c, 5, 55, 70
8, 77712, Note_on_c, 5, 55, 0
8, 77760, Note_on_c, 5, 55, 70
8, 78240, Note_on_c, 5, 55, 0
8, 78240, Note_on_c, 5, 63, 70
8, 78528, Note_on_c, 5, 63, 0
8, 78600, Note_on_c, 5, 62, 70
8, 78660, Note_on_c, 5, 62, 0
8, 78720, Note_on_c, 5, 60, 70
8, 79104, Note_on_c, 5, 60, 0
8, 79200, Note_on_c, 5, 58, 70
8, 79512, Note_on_c, 5, 58, 0
8, 79680, Note_on_c, 5, 57, 70
8, 79992, Note_on_c, 5, 57, 0
8, 80160, Note_on_c, 5, 55, 70
8, 80472, Note_on_c, 5, 55, 0
8, 80640, Note_on_c, 5, 61, 70
8, 80736, Note_on_c, 5, 61, 0
8, 80760, Note_on_c, 5, 62, 70
8, 80994, Note_on_c, 5, 62, 0
8, 81120, Note_on_c, 5, 57, 70
8, 81432, Note_on_c, 5, 57, 0
8, 82080, Note_on_c, 5, 67, 92
8, 82392, Note_on_c, 5, 67, 0
8, 82560, Note_on_c, 5, 62, 92
8, 82872, Note_on_c, 5, 62, 0
8, 83040, Note_on_c, 5, 67, 92
8, 83352, Note_on_c, 5, 67, 0
8, 83520, Note_on_c, 5, 70, 92
8, 84288, Note_on_c, 5, 70, 0
8, 84480, Note_on_c, 5, 72, 92
8, 84720, Note_on_c, 5, 72, 0
8, 84720, Note_on_c, 5, 69, 92
8, 84912, Note_on_c, 5, 69, 0
8, 84960, Note_on_c, 5, 67, 92
8, 85272, Note_on_c, 5, 67, 0
8, 85440, Note_on_c, 5, 66, 92
8, 85752, Note_on_c, 5, 66, 0
8, 85920, Note_on_c, 5, 67, 92
8, 86232, Note_on_c, 5, 67, 0
8, 86400, Note_on_c, 5, 69, 92
8, 86640, Note_on_c, 5, 69, 0
8, 86640, Note_on_c, 5, 66, 92
8, 86832, Note_on_c, 5, 66, 0
8, 86880, Note_on_c, 5, 62, 92
8, 87264, Note_on_c, 5, 62, 0
8, 87840, Note_on_c, 5, 67, 58
8, 88152, Note_on_c, 5, 67, 0
8, 88320, Note_on_c, 5, 67, 58
8, 88632, Note_on_c, 5, 67, 0
8, 88800, Note_on_c, 5, 67, 58
8, 89112, Note_on_c, 5, 67, 0
8, 89280, Note_on_c, 5, 65, 78
8, 90240, Note_on_c, 5, 65, 0
8, 90240, Note_on_c, 5, 67, 58
8, 90552, Note_on_c, 5, 67, 0
8, 90720, Note_on_c, 5, 67, 58
8, 91032, Note_on_c, 5, 67, 0
8, 91200, Note_on_c, 5, 67, 58
8, 91512, Note_on_c, 5, 67, 0
8, 91680, Note_on_c, 5, 67, 58
8, 91992, Note_on_c, 5, 67, 0
8, 92160, Note_on_c, 5, 67, 78
8, 93120, Note_on_c, 5, 67, 0
8, 93120, Note_on_c, 5, 67, 58
8, 93432, Note_on_c, 5, 67, 0
8, 93600, Note_on_c, 5, 62, 105
8, 93840, Note_on_c, 5, 62, 0
8, 93840, Note_on_c, 5, 74, 105
8, 94032, Note_on_c, 5, 74, 0
8, 94080, Note_on_c, 5, 62, 105
8, 94320, Note_on_c, 5, 62, 0
8, 94320, Note_on_c, 5, 74, 105
8, 94512, Note_on_c, 5, 74, 0
8, 94560, Note_on_c, 5, 62, 105
8, 94800, Note_on_c, 5, 62, 0
8, 94800, Note_on_c, 5, 74, 105
8, 94992, Note_on_c, 5, 74, 0
8, 95040, Note_on_c, 5, 75, 105
8, 95280, Note_on_c, 5, 75, 0
8, 95280, Note_on_c, 5, 72, 105
8, 95472, Note_on_c, 5, 72, 0
8, 95520, Note_on_c, 5, 69, 105
8, 95760, Note_on_c, 5, 69, 0
8, 95760, Note_on_c, 5, 66, 105
8, 95952, Note_on_c, 5, 66, 0
8, 96000, Note_on_c, 5, 67, 105
8, 96240, Note_on_c, 5, 67, 0
8, 96240, Note_on_c, 5, 55, 105
8, 96432, Note_on_c, 5, 55, 0
8, 96480, Note_on_c, 5, 62, 70
8, 96720, Note_on_c, 5, 62, 0
8, 96720, Note_on_c, 5, 63, 70
8, 96960, Note_on_c, 5, 63, 0
8, 96960, Note_on_c, 5, 62, 70
8, 97200, Note_on_c, 5, 62, 0
8, 97200, Note_on_c, 5, 63, 70
8, 97440, Note_on_c, 5, 63, 0
8, 97440, Note_on_c, 5, 62, 70
8, 97680, Note_on_c, 5, 62, 0
8, 97680, Note_on_c, 5, 63, 70
8, 97872, Note_on_c, 5, 63, 0
8, 97920, Note_on_c, 5, 62, 70
8, 98160, Note_on_c, 5, 62, 0
8, 98160, Note_on_c, 5, 63, 70
8, 98400, Note_on_c, 5, 63, 0
8, 98400, Note_on_c, 5, 62, 70
8, 98640, Note_on_c, 5, 62, 0
8, 98640, Note_on_c, 5, 63, 70
8, 98880, Note_on_c, 5, 63, 0
8, 98880, Note_on_c, 5, 62, 70
8, 99264, Note_on_c, 5, 62, 0
8, 99360, Note_on_c, 5, 73, 116
8, 99648, Note_on_c, 5, 73, 0
8, 99840, Note_on_c, 5, 73, 116
8, 100128, Note_on_c, 5, 73, 0
8, 100320, Note_on_c, 5, 73, 116
8, 100608, Note_on_c, 5, 73, 0
8, 100800, Note_on_c, 5, 74, 116
8, 101568, Note_on_c, 5, 74, 0
8, 101760, Note_on_c, 5, 72, 116
8, 102000, Note_on_c, 5, 72, 0
8, 102000, Note_on_c, 5, 70, 116
8, 102192, Note_on_c, 5, 70, 0
8, 102240, Note_on_c, 5, 70, 116
8, 102360, Note_on_c, 5, 70, 0
8, 102360, Note_on_c, 5, 69, 116
8, 102684, Note_on_c, 5, 69, 0
8, 102720, Note_on_c, 5, 67, 116
8, 103008, Note_on_c, 5, 67, 0
8, 103200, Note_on_c, 5, 66, 116
8, 103488, Note_on_c, 5, 66, 0
8, 103680, Note_on_c, 5, 67, 116
8, 104448, Note_on_c, 5, 67, 0
8, 168480, Note_on_c, 5, 67, 92
8, 168792, Note_on_c, 5, 67, 0
8, 168960, Note_on_c, 5, 62, 92
8, 169272, Note_on_c, 5, 62, 0
8, 169440, Note_on_c, 5, 67, 92
8, 169752, Note_on_c, 5, 67, 0
8, 169920, Note_on_c, 5, 70, 92
8, 170688, Note_on_c, 5, 70, 0
8, 170880, Note_on_c, 5, 72, 92
8, 171120, Note_on_c, 5, 72, 0
8, 171120, Note_on_c, 5, 69, 92
8, 171312, Note_on_c, 5, 69, 0
8, 171360, Note_on_c, 5, 67, 92
8, 171672, Note_on_c, 5, 67, 0
8, 171840, Note_on_c, 5, 66, 92
8, 172152, Note_on_c, 5, 66, 0
8, 172320, Note_on_c, 5, 67, 92
8, 172632, Note_on_c, 5, 67, 0
8, 172800, Note_on_c, 5, 69, 92
8, 173040, Note_on_c, 5, 69, 0
8, 173040, Note_on_c, 5, 66, 92
8, 173232, Note_on_c, 5, 66, 0
8, 173280, Note_on_c, 5, 62, 92
8, 173664, Note_on_c, 5, 62, 0
8, 174240, Note_on_c, 5, 67, 58
8, 174552, Note_on_c, 5, 67, 0
8, 174720, Note_on_c, 5, 67, 58
8, 175032, Note_on_c, 5, 67, 0
8, 175200, Note_on_c, 5, 67, 58
8, 175512, Note_on_c, 5, 67, 0
8, 175680, Note_on_c, 5, 65, 78
8, 176640, Note_on_c, 5, 65, 0
8, 176640, Note_on_c, 5, 67, 58
8, 176952, Note_on_c, 5, 67, 0
8, 177120, Note_on_c, 5, 67, 58
8, 177432, Note_on_c, 5, 67, 0
8, 177600, Note_on_c, 5, 67, 58
8, 177912, Note_on_c, 5, 67, 0
8, 178080, Note_on_c, 5, 67, 58
8, 178392, Note_on_c, 5, 67, 0
8, 178560, Note_on_c, 5, 67, 78
8, 179520, Note_on_c, 5, 67, 0
8, 179520, Note_on_c, 5, 67, 58
8, 179832, Note_on_c, 5, 67, 0
8, 180000, Note_on_c, 5, 62, 105
8, 180240, Note_on_c, 5, 62, 0
8, 180240, Note_on_c, 5, 74, 105
8, 180432, Note_on_c, 5, 74, 0
8, 180480, Note_on_c, 5, 62, 105
8, 180720, Note_on_c, 5, 62, 0
8, 180720, Note_on_c, 5, 74, 105
8, 180912, Note_on_c, 5, 74, 0
8, 180960, Note_on_c, 5, 62, 105
8, 181200, Note_on_c, 5, 62, 0
8, 181200, Note_on_c, 5, 74, 105
8, 181392, Note_on_c, 5, 74, 0
8, 181440, Note_on_c, 5, 75, 105
8, 181680, Note_on_c, 5, 75, 0
8, 181680, Note_on_c, 5, 72, 105
8, 181872, Note_on_c, 5, 72, 0
8, 181920, Note_on_c, 5, 69, 105
8, 182160, Note_on_c, 5, 69, 0
8, 182160, Note_on_c, 5, 66, 105
8, 182352, Note_on_c, 5, 66, 0
8, 182400, Note_on_c, 5, 67, 105
8, 182640, Note_on_c, 5, 67, 0
8, 182640, Note_on_c, 5, 55, 105
8, 182832, Note_on_c, 5, 55, 0
8, 182880, Note_on_c, 5, 63, 105
8, 183120, Note_on_c, 5, 63, 0
8, 183120, Note_on_c, 5, 60, 105
8, 183312, Note_on_c, 5, 60, 0
8, 183360, Note_on_c, 5, 58, 105
8, 183600, Note_on_c, 5, 58, 0
8, 183600, Note_on_c, 5, 62, 105
8, 183792, Note_on_c, 5, 62, 0
8, 183840, Note_on_c, 5, 60, 105
8, 184080, Note_on_c, 5, 60, 0
8, 184080, Note_on_c, 5, 57, 105
8, 184272, Note_on_c, 5, 57, 0
8, 184320, Note_on_c, 5, 55, 105
8, 185088, Note_on_c, 5, 55, 0
8, 185760, Note_on_c, 5, 66, 105
8, 186048, Note_on_c, 5, 66, 0
8, 186240, Note_on_c, 5, 66, 105
8, 186528, Note_on_c, 5, 66, 0
8, 186720, Note_on_c, 5, 66, 105
8, 186960, Note_on_c, 5, 66, 0
8, 186960, Note_on_c, 5, 67, 105
8, 187152, Note_on_c, 5, 67, 0
8, 187200, Note_on_c, 5, 67, 105
8, 187776, Note_on_c, 5, 67, 0
8, 187920, Note_on_c, 5, 69, 105
8, 188064, Note_on_c, 5, 69, 0
8, 188160, Note_on_c, 5, 70, 105
8, 188568, Note_on_c, 5, 70, 0
8, 188640, Note_on_c, 5, 69, 105
8, 188928, Note_on_c, 5, 69, 0
8, 189120, Note_on_c, 5, 69, 105
8, 189408, Note_on_c, 5, 69, 0
8, 189600, Note_on_c, 5, 69, 105
8, 189888, Note_on_c, 5, 69, 0
8, 190080, Note_on_c, 5, 69, 105
8, 190140, Note_on_c, 5, 69, 0
8, 190140, Note_on_c, 5, 67, 105
8, 190200, Note_on_c, 5, 67, 0
8, 190200, Note_on_c, 5, 69, 105
8, 190260, Note_on_c, 5, 69, 0
8, 190260, Note_on_c, 5, 67, 105
8, 190320, Note_on_c, 5, 67, 0
8, 190320, Note_on_c, 5, 69, 105
8, 190440, Note_on_c, 5, 69, 0
8, 190440, Note_on_c, 5, 66, 105
8, 190536, Note_on_c, 5, 66, 0
8, 190560, Note_on_c, 5, 67, 105
8, 190944, Note_on_c, 5, 67, 0
8, 191520, Note_on_c, 5, 56, 58
8, 191760, Note_on_c, 5, 56, 0
8, 191760, Note_on_c, 5, 55, 58
8, 192000, Note_on_c, 5, 55, 0
8, 192000, Note_on_c, 5, 56, 58
8, 192240, Note_on_c, 5, 56, 0
8, 192240, Note_on_c, 5, 55, 58
8, 192480, Note_on_c, 5, 55, 0
8, 192480, Note_on_c, 5, 56, 58
8, 192720, Note_on_c, 5, 56, 0
8, 192720, Note_on_c, 5, 55, 58
8, 192912, Note_on_c, 5, 55, 0
8, 192960, Note_on_c, 5, 55, 58
8, 193440, Note_on_c, 5, 55, 0
8, 193440, Note_on_c, 5, 63, 58
8, 193728, Note_on_c, 5, 63, 0
8, 193800, Note_on_c, 5, 62, 58
8, 193860, Note_on_c, 5, 62, 0
8, 193920, Note_on_c, 5, 60, 58
8, 194304, Note_on_c, 5, 60, 0
8, 194400, Note_on_c, 5, 58, 58
8, 194712, Note_on_c, 5, 58, 0
8, 194880, Note_on_c, 5, 57, 58
8, 195192, Note_on_c, 5, 57, 0
8, 195360, Note_on_c, 5, 55, 58
8, 195672, Note_on_c, 5, 55, 0
8, 195840, Note_on_c, 5, 61, 58
8, 195936, Note_on_c, 5, 61, 0
8, 195960, Note_on_c, 5, 62, 58
8, 196194, Note_on_c, 5, 62, 0
8, 196320, Note_on_c, 5, 57, 58
8, 196632, Note_on_c, 5, 57, 0
8, 197280, Note_on_c, 5, 67, 92
8, 197592, Note_on_c, 5, 67, 0
8, 197760, Note_on_c, 5, 62, 92
8, 198072, Note_on_c, 5, 62, 0
8, 198240, Note_on_c, 5, 67, 92
8, 198552, Note_on_c, 5, 67, 0
8, 198720, Note_on_c, 5, 70, 92
8, 199488, Note_on_c, 5, 70, 0
8, 199680, Note_on_c, 5, 72, 92
8, 199920, Note_on_c, 5, 72, 0
8, 199920, Note_on_c, 5, 69, 92
8, 200112, Note_on_c, 5, 69, 0
8, 200160, Note_on_c, 5, 67, 92
8, 200472, Note_on_c, 5, 67, 0
8, 200640, Note_on_c, 5, 66, 92
8, 200952, Note_on_c, 5, 66, 0
8, 201120, Note_on_c, 5, 67, 92
8, 201432, Note_on_c, 5, 67, 0
8, 201600, Note_on_c, 5, 69, 92
8, 201840, Note_on_c, 5, 69, 0
8, 201840, Note_on_c, 5, 66, 92
8, 202032, Note_on_c, 5, 66, 0
8, 202080, Note_on_c, 5, 62, 92
8, 202464, Note_on_c, 5, 62, 0
8, 203040, Note_on_c, 5, 67, 58
8, 203352, Note_on_c, 5, 67, 0
8, 203520, Note_on_c, 5, 67, 58
8, 203832, Note_on_c, 5, 67, 0
8, 204000, Note_on_c, 5, 67, 58
8, 204312, Note_on_c, 5, 67, 0
8, 204480, Note_on_c, 5, 65, 78
8, 205440, Note_on_c, 5, 65, 0
8, 205440, Note_on_c, 5, 67, 58
8, 205752, Note_on_c, 5, 67, 0
8, 205920, Note_on_c, 5, 67, 58
8, 206232, Note_on_c, 5, 67, 0
8, 206400, Note_on_c, 5, 67, 58
8, 206712, Note_on_c, 5, 67, 0
8, 206880, Note_on_c, 5, 67, 58
8, 207192, Note_on_c, 5, 67, 0
8, 207360, Note_on_c, 5, 67, 78
8, 208320, Note_on_c, 5, 67, 0
8, 208320, Note_on_c, 5, 67, 58
8, 208632, Note_on_c, 5, 67, 0
8, 208800, Note_on_c, 5, 62, 105
8, 209040, Note_on_c, 5, 62, 0
8, 209040, Note_on_c, 5, 74, 105
8, 209232, Note_on_c, 5, 74, 0
8, 209280, Note_on_c, 5, 62, 105
8, 209520, Note_on_c, 5, 62, 0
8, 209520, Note_on_c, 5, 74, 105
8, 209712, Note_on_c, 5, 74, 0
8, 209760, Note_on_c, 5, 62, 105
8, 210000, Note_on_c, 5, 62, 0
8, 210000, Note_on_c, 5, 74, 105
8, 210192, Note_on_c, 5, 74, 0
8, 210240, Note_on_c, 5, 75, 105
8, 210480, Note_on_c, 5, 75, 0
8, 210480, Note_on_c, 5, 72, 105
8, 210672, Note_on_c, 5, 72, 0
8, 210720, Note_on_c, 5, 69, 105
8, 210960, Note_on_c, 5, 69, 0
8, 210960, Note_on_c, 5, 66, 105
8, 211152, Note_on_c, 5, 66, 0
8, 211200, Note_on_c, 5, 67, 105
8, 211440, Note_on_c, 5, 67, 0
8, 211440, Note_on_c, 5, 55, 105
8, 211632, Note_on_c, 5, 55, 0
8, 211680, Note_on_c, 5, 62, 70
8, 211920, Note_on_c, 5, 62, 0
8, 211920, Note_on_c, 5, 63, 70
8, 212160, Note_on_c, 5, 63, 0
8, 212160, Note_on_c, 5, 62, 70
8, 212400, Note_on_c, 5, 62, 0
8, 212400, Note_on_c, 5, 63, 70
8, 212640, Note_on_c, 5, 63, 0
8, 212640, Note_on_c, 5, 62, 70
8, 212880, Note_on_c, 5, 62, 0
8, 212880, Note_on_c, 5, 63, 70
8, 213072, Note_on_c, 5, 63, 0
8, 213120, Note_on_c, 5, 62, 70
8, 213360, Note_on_c, 5, 62, 0
8, 213360, Note_on_c, 5, 63, 70
8, 213600, Note_on_c, 5, 63, 0
8, 213600, Note_on_c, 5, 62, 70
8, 213840, Note_on_c, 5, 62, 0
8, 213840, Note_on_c, 5, 63, 70
8, 214080, Note_on_c, 5, 63, 0
8, 214080, Note_on_c, 5, 62, 70
8, 214464, Note_on_c, 5, 62, 0
8, 214560, Note_on_c, 5, 73, 116
8, 214848, Note_on_c, 5, 73, 0
8, 215040, Note_on_c, 5, 73, 116
8, 215328, Note_on_c, 5, 73, 0
8, 215520, Note_on_c, 5, 73, 116
8, 215808, Note_on_c, 5, 73, 0
8, 216000, Note_on_c, 5, 74, 116
8, 216768, Note_on_c, 5, 74, 0
8, 216960, Note_on_c, 5, 72, 116
8, 217200, Note_on_c, 5, 72, 0
8, 217200, Note_on_c, 5, 70, 116
8, 217392, Note_on_c, 5, 70, 0
8, 217440, Note_on_c, 5, 70, 116
8, 217560, Note_on_c, 5, 70, 0
8, 217560, Note_on_c, 5, 69, 116
8, 217884, Note_on_c, 5, 69, 0
8, 217920, Note_on_c, 5, 67, 116
8, 218208, Note_on_c, 5, 67, 0
8, 218400, Note_on_c, 5, 66, 116
8, 218688, Note_on_c, 5, 66, 0
8, 218880, Note_on_c, 5, 67, 116
8, 219840, Note_on_c, 5, 67, 0
8, 219840, End_track
9, 0, Start_track
9, 0, Program_c, 6, 48
9, 0, Control_c, 6, 7, 127
9, 0, Control_c, 6, 10, 76
9, 0, Control_c, 6, 91, 85
9, 1440, Note_on_c, 6, 67, 92
9, 1752, Note_on_c, 6, 67, 0
9, 1920, Note_on_c, 6, 62, 92
9, 2232, Note_on_c, 6, 62, 0
9, 2400, Note_on_c, 6, 67, 92
9, 2712, Note_on_c, 6, 67, 0
9, 2880, Note_on_c, 6, 70, 92
9, 3648, Note_on_c, 6, 70, 0
9, 3840, Note_on_c, 6, 72, 92
9, 4080, Note_on_c, 6, 72, 0
9, 4080, Note_on_c, 6, 69, 92
9, 4272, Note_on_c, 6, 69, 0
9, 4320, Note_on_c, 6, 67, 92
9, 4632, Note_on_c, 6, 67, 0
9, 4800, Note_on_c, 6, 66, 92
9, 5112, Note_on_c, 6, 66, 0
9, 5280, Note_on_c, 6, 67, 92
9, 5592, Note_on_c, 6, 67, 0
9, 5760, Note_on_c, 6, 69, 92
9, 6000, Note_on_c, 6, 69, 0
9, 6000, Note_on_c, 6, 66, 92
9, 6192, Note_on_c, 6, 66, 0
9, 6240, Note_on_c, 6, 62, 92
9, 6624, Note_on_c, 6, 62, 0
9, 7200, Note_on_c, 6, 63, 58
9, 7512, Note_on_c, 6, 63, 0
9, 7680, Note_on_c, 6, 63, 58
9, 7992, Note_on_c, 6, 63, 0
9, 8160, Note_on_c, 6, 63, 58
9, 8472, Note_on_c, 6, 63, 0
9, 8640, Note_on_c, 6, 62, 78
9, 9600, Note_on_c, 6, 62, 0
9, 9600, Note_on_c, 6, 63, 58
9, 9912, Note_on_c, 6, 63, 0
9, 10080, Note_on_c, 6, 60, 58
9, 10392, Note_on_c, 6, 60, 0
9, 10560, Note_on_c, 6, 60, 58
9, 10872, Note_on_c, 6, 60, 0
9, 11040, Note_on_c, 6, 60, 58
9, 11352, Note_on_c, 6, 60, 0
9, 11520, Note_on_c, 6, 59, 78
9, 12480, Note_on_c, 6, 59, 0
9, 12480, Note_on_c, 6, 60, 58
9, 12792, Note_on_c, 6, 60, 0
9, 12960, Note_on_c, 6, 58, 105
9, 13248, Note_on_c, 6, 58, 0
9, 13440, Note_on_c, 6, 70, 105
9, 13728, Note_on_c, 6, 70, 0
9, 13920, Note_on_c, 6, 70, 105
9, 14208, Note_on_c, 6, 70, 0
9, 14400, Note_on_c, 6, 69, 105
9, 14688, Note_on_c, 6, 69, 0
9, 14880, Note_on_c, 6, 62, 105
9, 15168, Note_on_c, 6, 62, 0
9, 15360, Note_on_c, 6, 63, 105
9, 15648, Note_on_c, 6, 63, 0
9, 15840, Note_on_c, 6, 60, 105
9, 16128, Note_on_c, 6, 60, 0
9, 16320, Note_on_c, 6, 62, 105
9, 16608, Note_on_c, 6, 62, 0
9, 16800, Note_on_c, 6, 50, 105
9, 17088, Note_on_c, 6, 50, 0
9, 17280, Note_on_c, 6, 55, 105
9, 17568, Note_on_c, 6, 55, 0
9, 17760, Note_on_c, 6, 62, 105
9, 18048, Note_on_c, 6, 62, 0
9, 18240, Note_on_c, 6, 67, 105
9, 18528, Note_on_c, 6, 67, 0
9, 18720, Note_on_c, 6, 67, 92
9, 19032, Note_on_c, 6, 67, 0
9, 19200, Note_on_c, 6, 62, 92
9, 19512, Note_on_c, 6, 62, 0
9, 19680, Note_on_c, 6, 67, 92
9, 19992, Note_on_c, 6, 67, 0
9, 20160, Note_on_c, 6, 70, 92
9, 20928, Note_on_c, 6, 70, 0
9, 21120, Note_on_c, 6, 72, 92
9, 21360, Note_on_c, 6, 72, 0
9, 21360, Note_on_c, 6, 69, 92
9, 21552, Note_on_c, 6, 69, 0
9, 21600, Note_on_c, 6, 67, 92
9, 21912, Note_on_c, 6, 67, 0
9, 22080, Note_on_c, 6, 66, 92
9, 22392, Note_on_c, 6, 66, 0
9, 22560, Note_on_c, 6, 67, 92
9, 22872, Note_on_c, 6, 67, 0
9, 23040, Note_on_c, 6, 69, 92
9, 23280, Note_on_c, 6, 69, 0
9, 23280, Note_on_c, 6, 66, 92
9, 23472, Note_on_c, 6, 66, 0
9, 23520, Note_on_c, 6, 62, 92
9, 23904, Note_on_c, 6, 62, 0
9, 24480, Note_on_c, 6, 63, 58
9, 24792, Note_on_c, 6, 63, 0
9, 24960, Note_on_c, 6, 63, 58
9, 25272, Note_on_c, 6, 63, 0
9, 25440, Note_on_c, 6, 63, 58
9, 25752, Note_on_c, 6, 63, 0
9, 25920, Note_on_c, 6, 62, 78
9, 26880, Note_on_c, 6, 62, 0
9, 26880, Note_on_c, 6, 63, 58
9, 27192, Note_on_c, 6, 63, 0
9, 27360, Note_on_c, 6, 60, 58
9, 27672, Note_on_c, 6, 60, 0
9, 27840, Note_on_c, 6, 60, 58
9, 28152, Note_on_c, 6, 60, 0
9, 28320, Note_on_c, 6, 60, 58
9, 28632, Note_on_c, 6, 60, 0
9, 28800, Note_on_c, 6, 59, 78
9, 29760, Note_on_c, 6, 59, 0
9, 29760, Note_on_c, 6, 60, 58
9, 30072, Note_on_c, 6, 60, 0
9, 30240, Note_on_c, 6, 58, 105
9, 30528, Note_on_c, 6, 58, 0
9, 30720, Note_on_c, 6, 70, 105
9, 31008, Note_on_c, 6, 70, 0
9, 31200, Note_on_c, 6, 70, 105
9, 31488, Note_on_c, 6, 70, 0
9, 31680, Note_on_c, 6, 69, 105
9, 31968, Note_on_c, 6, 69, 0
9, 32160, Note_on_c, 6, 62, 105
9, 32448, Note_on_c, 6, 62, 0
9, 32640, Note_on_c, 6, 63, 105
9, 32928, Note_on_c, 6, 63, 0
9, 33120, Note_on_c, 6, 60, 105
9, 33408, Note_on_c, 6, 60, 0
9, 33600, Note_on_c, 6, 62, 105
9, 33888, Note_on_c, 6, 62, 0
9, 34080, Note_on_c, 6, 50, 105
9, 34368, Note_on_c, 6, 50, 0
9, 34560, Note_on_c, 6, 55, 105
9, 34848, Note_on_c, 6, 55, 0
9, 35040, Note_on_c, 6, 62, 105
9, 35328, Note_on_c, 6, 62, 0
9, 35520, Note_on_c, 6, 67, 105
9, 35808, Note_on_c, 6, 67, 0
9, 36000, Note_on_c, 6, 62, 105
9, 36312, Note_on_c, 6, 62, 0
9, 36480, Note_on_c, 6, 62, 105
9, 36792, Note_on_c, 6, 62, 0
9, 36960, Note_on_c, 6, 62, 105
9, 37272, Note_on_c, 6, 62, 0
9, 37440, Note_on_c, 6, 64, 105
9, 37752, Note_on_c, 6, 64, 0
9, 37920, Note_on_c, 6, 64, 105
9, 38232, Note_on_c, 6, 64, 0
9, 38400, Note_on_c, 6, 64, 105
9, 38712, Note_on_c, 6, 64, 0
9, 38880, Note_on_c, 6, 63, 105
9, 39192, Note_on_c, 6, 63, 0
9, 39360, Note_on_c, 6, 63, 105
9, 39672, Note_on_c, 6, 63, 0
9, 39840, Note_on_c, 6, 63, 105
9, 40152, Note_on_c, 6, 63, 0
9, 40320, Note_on_c, 6, 62, 105
9, 40632, Note_on_c, 6, 62, 0
9, 40800, Note_on_c, 6, 62, 105
9, 41112, Note_on_c, 6, 62, 0
9, 41280, Note_on_c, 6, 62, 92
9, 41592, Note_on_c, 6, 62, 0
9, 41760, Note_on_c, 6, 50, 58
9, 42072, Note_on_c, 6, 50, 0
9, 42240, Note_on_c, 6, 50, 58
9, 42552, Note_on_c, 6, 50, 0
9, 42720, Note_on_c, 6, 50, 58
9, 42960, Note_on_c, 6, 50, 0
9, 42960, Note_on_c, 6, 51, 58
9, 43152, Note_on_c, 6, 51, 0
9, 43200, Note_on_c, 6, 51, 58
9, 43680, Note_on_c, 6, 51, 0
9, 43680, Note_on_c, 6, 60, 58
9, 43968, Note_on_c, 6, 60, 0
9, 44040, Note_on_c, 6, 58, 58
9, 44100, Note_on_c, 6, 58, 0
9, 44160, Note_on_c, 6, 57, 58
9, 44544, Note_on_c, 6, 57, 0
9, 44640, Note_on_c, 6, 55, 58
9, 44952, Note_on_c, 6, 55, 0
9, 45120, Note_on_c, 6, 53, 58
9, 45432, Note_on_c, 6, 53, 0
9, 45600, Note_on_c, 6, 51, 58
9, 45912, Note_on_c, 6, 51, 0
9, 46080, Note_on_c, 6, 50, 58
9, 46392, Note_on_c, 6, 50, 0
9, 46560, Note_on_c, 6, 54, 58
9, 46872, Note_on_c, 6, 54, 0
9, 47520, Note_on_c, 6, 67, 92
9, 47832, Note_on_c, 6, 67, 0
9, 48000, Note_on_c, 6, 62, 92
9, 48312, Note_on_c, 6, 62, 0
9, 48480, Note_on_c, 6, 67, 92
9, 48792, Note_on_c, 6, 67, 0
9, 48960, Note_on_c, 6, 70, 92
9, 49728, Note_on_c, 6, 70, 0
9, 49920, Note_on_c, 6, 72, 92
9, 50160, Note_on_c, 6, 72, 0
9, 50160, Note_on_c, 6, 69, 92
9, 50352, Note_on_c, 6, 69, 0
9, 50400, Note_on_c, 6, 67, 92
9, 50712, Note_on_c, 6, 67, 0
9, 50880, Note_on_c, 6, 66, 92
9, 51192, Note_on_c, 6, 66, 0
9, 51360, Note_on_c, 6, 67, 92
9, 51672, Note_on_c, 6, 67, 0
9, 51840, Note_on_c, 6, 69, 92
9, 52080, Note_on_c, 6, 69, 0
9, 52080, Note_on_c, 6, 66, 92
9, 52272, Note_on_c, 6, 66, 0
9, 52320, Note_on_c, 6, 62, 92
9, 52704, Note_on_c, 6, 62, 0
9, 53280, Note_on_c, 6, 63, 58
9, 53592, Note_on_c, 6, 63, 0
9, 53760, Note_on_c, 6, 63, 58
9, 54072, Note_on_c, 6, 63, 0
9, 54240, Note_on_c, 6, 63, 58
9, 54552, Note_on_c, 6, 63, 0
9, 54720, Note_on_c, 6, 62, 78
9, 55680, Note_on_c, 6, 62, 0
9, 55680, Note_on_c, 6, 63, 58
9, 55992, Note_on_c, 6, 63, 0
9, 56160, Note_on_c, 6, 60, 58
9, 56472, Note_on_c, 6, 60, 0
9, 56640, Note_on_c, 6, 60, 58
9, 56952, Note_on_c, 6, 60, 0
9, 57120, Note_on_c, 6, 60, 58
9, 57432, Note_on_c, 6, 60, 0
9, 57600, Note_on_c, 6, 59, 78
9, 58560, Note_on_c, 6, 59, 0
9, 58560, Note_on_c, 6, 60, 58
9, 58872, Note_on_c, 6, 60, 0
9, 59040, Note_on_c, 6, 58, 105
9, 59328, Note_on_c, 6, 58, 0
9, 59520, Note_on_c, 6, 70, 105
9, 59808, Note_on_c, 6, 70, 0
9, 60000, Note_on_c, 6, 70, 105
9, 60288, Note_on_c, 6, 70, 0
9, 60480, Note_on_c, 6, 69, 105
9, 60768, Note_on_c, 6, 69, 0
9, 60960, Note_on_c, 6, 62, 105
9, 61248, Note_on_c, 6, 62, 0
9, 61440, Note_on_c, 6, 63, 105
9, 61728, Note_on_c, 6, 63, 0
9, 61920, Note_on_c, 6, 58, 58
9, 63072, Note_on_c, 6, 58, 0
9, 63360, Note_on_c, 6, 57, 58
9, 64320, Note_on_c, 6, 57, 0
9, 64320, Note_on_c, 6, 55, 58
9, 64704, Note_on_c, 6, 55, 0
9, 64800, Note_on_c, 6, 67, 105
9, 65112, Note_on_c, 6, 67, 0
9, 65280, Note_on_c, 6, 69, 105
9, 65592, Note_on_c, 6, 69, 0
9, 65760, Note_on_c, 6, 70, 105
9, 66072, Note_on_c, 6, 70, 0
9, 66240, Note_on_c, 6, 69, 105
9, 66552, Note_on_c, 6, 69, 0
9, 66720, Note_on_c, 6, 66, 105
9, 67032, Note_on_c, 6, 66, 0
9, 67200, Note_on_c, 6, 67, 105
9, 67512, Note_on_c, 6, 67, 0
9, 67680, Note_on_c, 6, 63, 105
9, 67992, Note_on_c, 6, 63, 0
9, 68160, Note_on_c, 6, 62, 105
9, 68472, Note_on_c, 6, 62, 0
9, 68640, Note_on_c, 6, 62, 105
9, 68640, Note_on_c, 6, 60, 105
9, 68952, Note_on_c, 6, 60, 0
9, 68952, Note_on_c, 6, 62, 0
9, 69120, Note_on_c, 6, 62, 105
9, 69120, Note_on_c, 6, 58, 105
9, 69888, Note_on_c, 6, 58, 0
9, 69888, Note_on_c, 6, 62, 0
9, 70560, Note_on_c, 6, 62, 105
9, 70872, Note_on_c, 6, 62, 0
9, 71040, Note_on_c, 6, 62, 105
9, 71352, Note_on_c, 6, 62, 0
9, 71520, Note_on_c, 6, 62, 105
9, 71832, Note_on_c, 6, 62, 0
9, 72000, Note_on_c, 6, 64, 105
9, 72312, Note_on_c, 6, 64, 0
9, 72480, Note_on_c, 6, 64, 105
9, 72792, Note_on_c, 6, 64, 0
9, 72960, Note_on_c, 6, 64, 105
9, 73272, Note_on_c, 6, 64, 0
9, 73440, Note_on_c, 6, 63, 105
9, 73752, Note_on_c, 6, 63, 0
9, 73920, Note_on_c, 6, 63, 105
9, 74232, Note_on_c, 6, 63, 0
9, 74400, Note_on_c, 6, 63, 105
9, 74712, Note_on_c, 6, 63, 0
9, 74880, Note_on_c, 6, 62, 105
9, 75192, Note_on_c, 6, 62, 0
9, 75360, Note_on_c, 6, 62, 105
9, 75672, Note_on_c, 6, 62, 0
9, 75840, Note_on_c, 6, 62, 92
9, 76152, Note_on_c, 6, 62, 0
9, 76320, Note_on_c, 6, 50, 58
9, 76632, Note_on_c, 6, 50, 0
9, 76800, Note_on_c, 6, 50, 58
9, 77112, Note_on_c, 6, 50, 0
9, 77280, Note_on_c, 6, 50, 58
9, 77520, Note_on_c, 6, 50, 0
9, 77520, Note_on_c, 6, 51, 58
9, 77712, Note_on_c, 6, 51, 0
9, 77760, Note_on_c, 6, 51, 58
9, 78240, Note_on_c, 6, 51, 0
9, 78240, Note_on_c, 6, 60, 58
9, 78528, Note_on_c, 6, 60, 0
9, 78600, Note_on_c, 6, 58, 58
9, 78660, Note_on_c, 6, 58, 0
9, 78720, Note_on_c, 6, 57, 58
9, 79104, Note_on_c, 6, 57, 0
9, 79200, Note_on_c, 6, 55, 58
9, 79512, Note_on_c, 6, 55, 0
9, 79680, Note_on_c, 6, 53, 58
9, 79992, Note_on_c, 6, 53, 0
9, 80160, Note_on_c, 6, 51, 58
9, 80472, Note_on_c, 6, 51, 0
9, 80640, Note_on_c, 6, 50, 58
9, 80952, Note_on_c, 6, 50, 0
9, 81120, Note_on_c, 6, 54, 58
9, 81432, Note_on_c, 6, 54, 0
9, 82080, Note_on_c, 6, 67, 92
9, 82392, Note_on_c, 6, 67, 0
9, 82560, Note_on_c, 6, 62, 92
9, 82872, Note_on_c, 6, 62, 0
9, 83040, Note_on_c, 6, 67, 92
9, 83352, Note_on_c, 6, 67, 0
9, 83520, Note_on_c, 6, 70, 92
9, 84288, Note_on_c, 6, 70, 0
9, 84480, Note_on_c, 6, 72, 92
9, 84720, Note_on_c, 6, 72, 0
9, 84720, Note_on_c, 6, 69, 92
9, 84912, Note_on_c, 6, 69, 0
9, 84960, Note_on_c, 6, 67, 92
9, 85272, Note_on_c, 6, 67, 0
9, 85440, Note_on_c, 6, 66, 92
9, 85752, Note_on_c, 6, 66, 0
9, 85920, Note_on_c, 6, 67, 92
9, 86232, Note_on_c, 6, 67, 0
9, 86400, Note_on_c, 6, 69, 92
9, 86640, Note_on_c, 6, 69, 0
9, 86640, Note_on_c, 6, 66, 92
9, 86832, Note_on_c, 6, 66, 0
9, 86880, Note_on_c, 6, 62, 92
9, 87264, Note_on_c, 6, 62, 0
9, 87840, Note_on_c, 6, 63, 58
9, 88152, Note_on_c, 6, 63, 0
9, 88320, Note_on_c, 6, 63, 58
9, 88632, Note_on_c, 6, 63, 0
9, 88800, Note_on_c, 6, 63, 58
9, 89112, Note_on_c, 6, 63, 0
9, 89280, Note_on_c, 6, 62, 78
9, 90240, Note_on_c, 6, 62, 0
9, 90240, Note_on_c, 6, 63, 58
9, 90552, Note_on_c, 6, 63, 0
9, 90720, Note_on_c, 6, 60, 58
9, 91032, Note_on_c, 6, 60, 0
9, 91200, Note_on_c, 6, 60, 58
9, 91512, Note_on_c, 6, 60, 0
9, 91680, Note_on_c, 6, 60, 58
9, 91992, Note_on_c, 6, 60, 0
9, 92160, Note_on_c, 6, 59, 78
9, 93120, Note_on_c, 6, 59, 0
9, 93120, Note_on_c, 6, 60, 58
9, 93432, Note_on_c, 6, 60, 0
9, 93600, Note_on_c, 6, 58, 105
9, 93888, Note_on_c, 6, 58, 0
9, 94080, Note_on_c, 6, 70, 105
9, 94368, Note_on_c, 6, 70, 0
9, 94560, Note_on_c, 6, 70, 105
9, 94848, Note_on_c, 6, 70, 0
9, 95040, Note_on_c, 6, 69, 105
9, 95328, Note_on_c, 6, 69, 0
9, 95520, Note_on_c, 6, 62, 105
9, 95808, Note_on_c, 6, 62, 0
9, 96000, Note_on_c, 6, 63, 105
9, 96288, Note_on_c, 6, 63, 0
9, 96480, Note_on_c, 6, 58, 58
9, 97632, Note_on_c, 6, 58, 0
9, 97920, Note_on_c, 6, 57, 58
9, 98880, Note_on_c, 6, 57, 0
9, 98880, Note_on_c, 6, 55, 58
9, 99264, Note_on_c, 6, 55, 0
9, 99360, Note_on_c, 6, 67, 105
9, 99672, Note_on_c, 6, 67, 0
9, 99840, Note_on_c, 6, 69, 105
9, 100152, Note_on_c, 6, 69, 0
9, 100320, Note_on_c, 6, 70, 105
9, 100632, Note_on_c, 6, 70, 0
9, 100800, Note_on_c, 6, 69, 105
9, 101112, Note_on_c, 6, 69, 0
9, 101280, Note_on_c, 6, 66, 105
9, 101592, Note_on_c, 6, 66, 0
9, 101760, Note_on_c, 6, 67, 105
9, 102072, Note_on_c, 6, 67, 0
9, 102240, Note_on_c, 6, 63, 105
9, 102552, Note_on_c, 6, 63, 0
9, 102720, Note_on_c, 6, 62, 105
9, 103032, Note_on_c, 6, 62, 0
9, 103200, Note_on_c, 6, 62, 105
9, 103200, Note_on_c, 6, 60, 105
9, 103512, Note_on_c, 6, 60, 0
9, 103512, Note_on_c, 6, 62, 0
9, 103680, Note_on_c, 6, 62, 105
9, 103680, Note_on_c, 6, 58, 105
9, 104448, Note_on_c, 6, 58, 0
9, 104448, Note_on_c, 6, 62, 0
9, 168480, Note_on_c, 6, 67, 92
9, 168792, Note_on_c, 6, 67, 0
9, 168960, Note_on_c, 6, 62, 92
9, 169272, Note_on_c, 6, 62, 0
9, 169440, Note_on_c, 6, 67, 92
9, 169752, Note_on_c, 6, 67, 0
9, 169920, Note_on_c, 6, 70, 92
9, 170688, Note_on_c, 6, 70, 0
9, 170880, Note_on_c, 6, 72, 92
9, 171120, Note_on_c, 6, 72, 0
9, 171120, Note_on_c, 6, 69, 92
9, 171312, Note_on_c, 6, 69, 0
9, 171360, Note_on_c, 6, 67, 92
9, 171672, Note_on_c, 6, 67, 0
9, 171840, Note_on_c, 6, 66, 92
9, 172152, Note_on_c, 6, 66, 0
9, 172320, Note_on_c, 6, 67, 92
9, 172632, Note_on_c, 6, 67, 0
9, 172800, Note_on_c, 6, 69, 92
9, 173040, Note_on_c, 6, 69, 0
9, 173040, Note_on_c, 6, 66, 92
9, 173232, Note_on_c, 6, 66, 0
9, 173280, Note_on_c, 6, 62, 92
9, 173664, Note_on_c, 6, 62, 0
9, 174240, Note_on_c, 6, 63, 58
9, 174552, Note_on_c, 6, 63, 0
9, 174720, Note_on_c, 6, 63, 58
9, 175032, Note_on_c, 6, 63, 0
9, 175200, Note_on_c, 6, 63, 58
9, 175512, Note_on_c, 6, 63, 0
9, 175680, Note_on_c, 6, 62, 78
9, 176640, Note_on_c, 6, 62, 0
9, 176640, Note_on_c, 6, 63, 58
9, 176952, Note_on_c, 6, 63, 0
9, 177120, Note_on_c, 6, 60, 58
9, 177432, Note_on_c, 6, 60, 0
9, 177600, Note_on_c, 6, 60, 58
9, 177912, Note_on_c, 6, 60, 0
9, 178080, Note_on_c, 6, 60, 58
9, 178392, Note_on_c, 6, 60, 0
9, 178560, Note_on_c, 6, 59, 78
9, 179520, Note_on_c, 6, 59, 0
9, 179520, Note_on_c, 6, 60, 58
9, 179832, Note_on_c, 6, 60, 0
9, 180000, Note_on_c, 6, 58, 105
9, 180288, Note_on_c, 6, 58, 0
9, 180480, Note_on_c, 6, 70, 105
9, 180768, Note_on_c, 6, 70, 0
9, 180960, Note_on_c, 6, 70, 105
9, 181248, Note_on_c, 6, 70, 0
9, 181440, Note_on_c, 6, 69, 105
9, 181728, Note_on_c, 6, 69, 0
9, 181920, Note_on_c, 6, 62, 105
9, 182208, Note_on_c, 6, 62, 0
9, 182400, Note_on_c, 6, 63, 105
9, 182688, Note_on_c, 6, 63, 0
9, 182880, Note_on_c, 6, 60, 105
9, 183168, Note_on_c, 6, 60, 0
9, 183360, Note_on_c, 6, 62, 105
9, 183648, Note_on_c, 6, 62, 0
9, 183840, Note_on_c, 6, 50, 105
9, 184128, Note_on_c, 6, 50, 0
9, 184320, Note_on_c, 6, 55, 105
9, 184608, Note_on_c, 6, 55, 0
9, 184800, Note_on_c, 6, 62, 105
9, 185088, Note_on_c, 6, 62, 0
9, 185280, Note_on_c, 6, 67, 105
9, 185568, Note_on_c, 6, 67, 0
9, 185760, Note_on_c, 6, 62, 105
9, 186072, Note_on_c, 6, 62, 0
9, 186240, Note_on_c, 6, 62, 105
9, 186552, Note_on_c, 6, 62, 0
9, 186720, Note_on_c, 6, 62, 105
9, 187032, Note_on_c, 6, 62, 0
9, 187200, Note_on_c, 6, 64, 105
9, 187512, Note_on_c, 6, 64, 0
9, 187680, Note_on_c, 6, 64, 105
9, 187992, Note_on_c, 6, 64, 0
9, 188160, Note_on_c, 6, 64, 105
9, 188472, Note_on_c, 6, 64, 0
9, 188640, Note_on_c, 6, 63, 105
9, 188952, Note_on_c, 6, 63, 0
9, 189120, Note_on_c, 6, 63, 105
9, 189432, Note_on_c, 6, 63, 0
9, 189600, Note_on_c, 6, 63, 105
9, 189912, Note_on_c, 6, 63, 0
9, 190080, Note_on_c, 6, 62, 105
9, 190392, Note_on_c, 6, 62, 0
9, 190560, Note_on_c, 6, 62, 105
9, 190872, Note_on_c, 6, 62, 0
9, 191040, Note_on_c, 6, 62, 92
9, 191352, Note_on_c, 6, 62, 0
9, 191520, Note_on_c, 6, 50, 58
9, 191832, Note_on_c, 6, 50, 0
9, 192000, Note_on_c, 6, 50, 58
9, 192312, Note_on_c, 6, 50, 0
9, 192480, Note_on_c, 6, 50, 58
9, 192720, Note_on_c, 6, 50, 0
9, 192720, Note_on_c, 6, 51, 58
9, 192912, Note_on_c, 6, 51, 0
9, 192960, Note_on_c, 6, 51, 58
9, 193440, Note_on_c, 6, 51, 0
9, 193440, Note_on_c, 6, 60, 58
9, 193728, Note_on_c, 6, 60, 0
9, 193800, Note_on_c, 6, 58, 58
9, 193860, Note_on_c, 6, 58, 0
9, 193920, Note_on_c, 6, 57, 58
9, 194304, Note_on_c, 6, 57, 0
9, 194400, Note_on_c, 6, 55, 58
9, 194712, Note_on_c, 6, 55, 0
9, 194880, Note_on_c, 6, 53, 58
9, 195192, Note_on_c, 6, 53, 0
9, 195360, Note_on_c, 6, 51, 58
9, 195672, Note_on_c, 6, 51, 0
9, 195840, Note_on_c, 6, 50, 58
9, 196152, Note_on_c, 6, 50, 0
9, 196320, Note_on_c, 6, 54, 58
9, 196632, Note_on_c, 6, 54, 0
9, 197280, Note_on_c, 6, 67, 92
9, 197592, Note_on_c, 6, 67, 0
9, 197760, Note_on_c, 6, 62, 92
9, 198072, Note_on_c, 6, 62, 0
9, 198240, Note_on_c, 6, 67, 92
9, 198552, Note_on_c, 6, 67, 0
9, 198720, Note_on_c, 6, 70, 92
9, 199488, Note_on_c, 6, 70, 0
9, 199680, Note_on_c, 6, 72, 92
9, 199920, Note_on_c, 6, 72, 0
9, 199920, Note_on_c, 6, 69, 92
9, 200112, Note_on_c, 6, 69, 0
9, 200160, Note_on_c, 6, 67, 92
9, 200472, Note_on_c, 6, 67, 0
9, 200640, Note_on_c, 6, 66, 92
9, 200952, Note_on_c, 6, 66, 0
9, 201120, Note_on_c, 6, 67, 92
9, 201432, Note_on_c, 6, 67, 0
9, 201600, Note_on_c, 6, 69, 92
9, 201840, Note_on_c, 6, 69, 0
9, 201840, Note_on_c, 6, 66, 92
9, 202032, Note_on_c, 6, 66, 0
9, 202080, Note_on_c, 6, 62, 92
9, 202464, Note_on_c, 6, 62, 0
9, 203040, Note_on_c, 6, 63, 58
9, 203352, Note_on_c, 6, 63, 0
9, 203520, Note_on_c, 6, 63, 58
9, 203832, Note_on_c, 6, 63, 0
9, 204000, Note_on_c, 6, 63, 58
9, 204312, Note_on_c, 6, 63, 0
9, 204480, Note_on_c, 6, 62, 78
9, 205440, Note_on_c, 6, 62, 0
9, 205440, Note_on_c, 6, 63, 58
9, 205752, Note_on_c, 6, 63, 0
9, 205920, Note_on_c, 6, 60, 58
9, 206232, Note_on_c, 6, 60, 0
9, 206400, Note_on_c, 6, 60, 58
9, 206712, Note_on_c, 6, 60, 0
9, 206880, Note_on_c, 6, 60, 58
9, 207192, Note_on_c, 6, 60, 0
9, 207360, Note_on_c, 6, 59, 78
9, 208320, Note_on_c, 6, 59, 0
9, 208320, Note_on_c, 6, 60, 58
9, 208632, Note_on_c, 6, 60, 0
9, 208800, Note_on_c, 6, 58, 105
9, 209088, Note_on_c, 6, 58, 0
9, 209280, Note_on_c, 6, 70, 105
9, 209568, Note_on_c, 6, 70, 0
9, 209760, Note_on_c, 6, 70, 105
9, 210048, Note_on_c, 6, 70, 0
9, 210240, Note_on_c, 6, 69, 105
9, 210528, Note_on_c, 6, 69, 0
9, 210720, Note_on_c, 6, 62, 105
9, 211008, Note_on_c, 6, 62, 0
9, 211200, Note_on_c, 6, 63, 105
9, 211488, Note_on_c, 6, 63, 0
9, 211680, Note_on_c, 6, 58, 58
9, 212832, Note_on_c, 6, 58, 0
9, 213120, Note_on_c, 6, 57, 58
9, 214080, Note_on_c, 6, 57, 0
9, 214080, Note_on_c, 6, 55, 58
9, 214464, Note_on_c, 6, 55, 0
9, 214560, Note_on_c, 6, 67, 105
9, 214872, Note_on_c, 6, 67, 0
9, 215040, Note_on_c, 6, 69, 105
9, 215352, Note_on_c, 6, 69, 0
9, 215520, Note_on_c, 6, 70, 105
9, 215832, Note_on_c, 6, 70, 0
9, 216000, Note_on_c, 6, 69, 105
9, 216312, Note_on_c, 6, 69, 0
9, 216480, Note_on_c, 6, 66, 105
9, 216792, Note_on_c, 6, 66, 0
9, 216960, Note_on_c, 6, 67, 105
9, 217272, Note_on_c, 6, 67, 0
9, 217440, Note_on_c, 6, 63, 105
9, 217752, Note_on_c, 6, 63, 0
9, 217920, Note_on_c, 6, 62, 105
9, 218232, Note_on_c, 6, 62, 0
9, 218400, Note_on_c, 6, 60, 105
9, 218400, Note_on_c, 6, 62, 105
9, 218712, Note_on_c, 6, 62, 0
9, 218712, Note_on_c, 6, 60, 0
9, 218880, Note_on_c, 6, 62, 105
9, 218880, Note_on_c, 6, 58, 105
9, 219840, Note_on_c, 6, 58, 0
9, 219840, Note_on_c, 6, 62, 0
9, 219840, End_track
10, 0, Start_track
10, 0, Program_c, 7, 48
10, 0, Control_c, 7, 7, 127
10, 0, Control_c, 7, 10, 91
10, 0, Control_c, 7, 91, 85
10, 1440, Note_on_c, 7, 55, 105
10, 1752, Note_on_c, 7, 55, 0
10, 1920, Note_on_c, 7, 50, 105
10, 2232, Note_on_c, 7, 50, 0
10, 2400, Note_on_c, 7, 55, 105
10, 2712, Note_on_c, 7, 55, 0
10, 2880, Note_on_c, 7, 58, 105
10, 3648, Note_on_c, 7, 58, 0
10, 3840, Note_on_c, 7, 60, 105
10, 4080, Note_on_c, 7, 60, 0
10, 4080, Note_on_c, 7, 57, 105
10, 4272, Note_on_c, 7, 57, 0
10, 4320, Note_on_c, 7, 55, 105
10, 4632, Note_on_c, 7, 55, 0
10, 4800, Note_on_c, 7, 54, 105
10, 5112, Note_on_c, 7, 54, 0
10, 5280, Note_on_c, 7, 55, 105
10, 5592, Note_on_c, 7, 55, 0
10, 5760, Note_on_c, 7, 57, 105
10, 6000, Note_on_c, 7, 57, 0
10, 6000, Note_on_c, 7, 54, 105
10, 6192, Note_on_c, 7, 54, 0
10, 6240, Note_on_c, 7, 50, 105
10, 6624, Note_on_c, 7, 50, 0
10, 12960, Note_on_c, 7, 58, 105
10, 13248, Note_on_c, 7, 58, 0
10, 13440, Note_on_c, 7, 58, 105
10, 13728, Note_on_c, 7, 58, 0
10, 13920, Note_on_c, 7, 58, 105
10, 14208, Note_on_c, 7, 58, 0
10, 14400, Note_on_c, 7, 57, 105
10, 14688, Note_on_c, 7, 57, 0
10, 14880, Note_on_c, 7, 50, 105
10, 15168, Note_on_c, 7, 50, 0
10, 15360, Note_on_c, 7, 51, 105
10, 15648, Note_on_c, 7, 51, 0
10, 15840, Note_on_c, 7, 48, 105
10, 16128, Note_on_c, 7, 48, 0
10, 16320, Note_on_c, 7, 50, 105
10, 16608, Note_on_c, 7, 50, 0
10, 16800, Note_on_c, 7, 38, 105
10, 17088, Note_on_c, 7, 38, 0
10, 17280, Note_on_c, 7, 43, 105
10, 17568, Note_on_c, 7, 43, 0
10, 17760, Note_on_c, 7, 50, 105
10, 18048, Note_on_c, 7, 50, 0
10, 18240, Note_on_c, 7, 55, 105
10, 18528, Note_on_c, 7, 55, 0
10, 18720, Note_on_c, 7, 55, 105
10, 19032, Note_on_c, 7, 55, 0
10, 19200, Note_on_c, 7, 50, 105
10, 19512, Note_on_c, 7, 50, 0
10, 19680, Note_on_c, 7, 55, 105
10, 19992, Note_on_c, 7, 55, 0
10, 20160, Note_on_c, 7, 58, 105
10, 20928, Note_on_c, 7, 58, 0
10, 21120, Note_on_c, 7, 60, 105
10, 21360, Note_on_c, 7, 60, 0
10, 21360, Note_on_c, 7, 57, 105
10, 21552, Note_on_c, 7, 57, 0
10, 21600, Note_on_c, 7, 55, 105
10, 21912, Note_on_c, 7, 55, 0
10, 22080, Note_on_c, 7, 54, 105
10, 22392, Note_on_c, 7, 54, 0
10, 22560, Note_on_c, 7, 55, 105
10, 22872, Note_on_c, 7, 55, 0
10, 23040, Note_on_c, 7, 57, 105
10, 23280, Note_on_c, 7, 57, 0
10, 23280, Note_on_c, 7, 54, 105
10, 23472, Note_on_c, 7, 54, 0
10, 23520, Note_on_c, 7, 50, 105
10, 23904, Note_on_c, 7, 50, 0
10, 30240, Note_on_c, 7, 58, 105
10, 30528, Note_on_c, 7, 58, 0
10, 30720, Note_on_c, 7, 58, 105
10, 31008, Note_on_c, 7, 58, 0
10, 31200, Note_on_c, 7, 58, 105
10, 31488, Note_on_c, 7, 58, 0
10, 31680, Note_on_c, 7, 57, 105
10, 31968, Note_on_c, 7, 57, 0
10, 32160, Note_on_c, 7, 50, 105
10, 32448, Note_on_c, 7, 50, 0
10, 32640, Note_on_c, 7, 51, 105
10, 32928, Note_on_c, 7, 51, 0
10, 33120, Note_on_c, 7, 48, 105
10, 33408, Note_on_c, 7, 48, 0
10, 33600, Note_on_c, 7, 50, 105
10, 33888, Note_on_c, 7, 50, 0
10, 34080, Note_on_c, 7, 38, 105
10, 34368, Note_on_c, 7, 38, 0
10, 34560, Note_on_c, 7, 43, 105
10, 34848, Note_on_c, 7, 43, 0
10, 35040, Note_on_c, 7, 50, 105
10, 35328, Note_on_c, 7, 50, 0
10, 35520, Note_on_c, 7, 55, 105
10, 35808, Note_on_c, 7, 55, 0
10, 36000, Note_on_c, 7, 62, 105
10, 36312, Note_on_c, 7, 62, 0
10, 36480, Note_on_c, 7, 62, 105
10, 36792, Note_on_c, 7, 62, 0
10, 36960, Note_on_c, 7, 62, 105
10, 37272, Note_on_c, 7, 62, 0
10, 37440, Note_on_c, 7, 61, 105
10, 37752, Note_on_c, 7, 61, 0
10, 37920, Note_on_c, 7, 61, 105
10, 38232, Note_on_c, 7, 61, 0
10, 38400, Note_on_c, 7, 61, 105
10, 38712, Note_on_c, 7, 61, 0
10, 38880, Note_on_c, 7, 60, 105
10, 39192, Note_on_c, 7, 60, 0
10, 39360, Note_on_c, 7, 60, 105
10, 39672, Note_on_c, 7, 60, 0
10, 39840, Note_on_c, 7, 60, 105
10, 40152, Note_on_c, 7, 60, 0
10, 40320, Note_on_c, 7, 58, 105
10, 40632, Note_on_c, 7, 58, 0
10, 40800, Note_on_c, 7, 58, 105
10, 41112, Note_on_c, 7, 58, 0
10, 41280, Note_on_c, 7, 46, 105
10, 41592, Note_on_c, 7, 46, 0
10, 41760, Note_on_c, 7, 47, 58
10, 42072, Note_on_c, 7, 47, 0
10, 42240, Note_on_c, 7, 47, 58
10, 42552, Note_on_c, 7, 47, 0
10, 42720, Note_on_c, 7, 47, 58
10, 42960, Note_on_c, 7, 47, 0
10, 42960, Note_on_c, 7, 48, 58
10, 43152, Note_on_c, 7, 48, 0
10, 43200, Note_on_c, 7, 48, 58
10, 43680, Note_on_c, 7, 48, 0
10, 43680, Note_on_c, 7, 60, 58
10, 43968, Note_on_c, 7, 60, 0
10, 44040, Note_on_c, 7, 58, 58
10, 44100, Note_on_c, 7, 58, 0
10, 44160, Note_on_c, 7, 57, 58
10, 44544, Note_on_c, 7, 57, 0
10, 44640, Note_on_c, 7, 55, 58
10, 44952, Note_on_c, 7, 55, 0
10, 45120, Note_on_c, 7, 53, 58
10, 45432, Note_on_c, 7, 53, 0
10, 45600, Note_on_c, 7, 51, 58
10, 45912, Note_on_c, 7, 51, 0
10, 46080, Note_on_c, 7, 50, 58
10, 46392, Note_on_c, 7, 50, 0
10, 46560, Note_on_c, 7, 50, 58
10, 46872, Note_on_c, 7, 50, 0
10, 47520, Note_on_c, 7, 55, 105
10, 47832, Note_on_c, 7, 55, 0
10, 48000, Note_on_c, 7, 50, 105
10, 48312, Note_on_c, 7, 50, 0
10, 48480, Note_on_c, 7, 55, 105
10, 48792, Note_on_c, 7, 55, 0
10, 48960, Note_on_c, 7, 58, 105
10, 49728, Note_on_c, 7, 58, 0
10, 49920, Note_on_c, 7, 60, 105
10, 50160, Note_on_c, 7, 60, 0
10, 50160, Note_on_c, 7, 57, 105
10, 50352, Note_on_c, 7, 57, 0
10, 50400, Note_on_c, 7, 55, 105
10, 50712, Note_on_c, 7, 55, 0
10, 50880, Note_on_c, 7, 54, 105
10, 51192, Note_on_c, 7, 54, 0
10, 51360, Note_on_c, 7, 55, 105
10, 51672, Note_on_c, 7, 55, 0
10, 51840, Note_on_c, 7, 57, 105
10, 52080, Note_on_c, 7, 57, 0
10, 52080, Note_on_c, 7, 54, 105
10, 52272, Note_on_c, 7, 54, 0
10, 52320, Note_on_c, 7, 50, 105
10, 52704, Note_on_c, 7, 50, 0
10, 59040, Note_on_c, 7, 58, 105
10, 59328, Note_on_c, 7, 58, 0
10, 59520, Note_on_c, 7, 58, 105
10, 59808, Note_on_c, 7, 58, 0
10, 60000, Note_on_c, 7, 58, 105
10, 60288, Note_on_c, 7, 58, 0
10, 60480, Note_on_c, 7, 57, 105
10, 60768, Note_on_c, 7, 57, 0
10, 60960, Note_on_c, 7, 50, 105
10, 61248, Note_on_c, 7, 50, 0
10, 61440, Note_on_c, 7, 51, 105
10, 61728, Note_on_c, 7, 51, 0
10, 61920, Note_on_c, 7, 58, 58
10, 62208, Note_on_c, 7, 58, 0
10, 62400, Note_on_c, 7, 58, 58
10, 62688, Note_on_c, 7, 58, 0
10, 62880, Note_on_c, 7, 58, 58
10, 63168, Note_on_c, 7, 58, 0
10, 63360, Note_on_c, 7, 57, 58
10, 63840, Note_on_c, 7, 57, 0
10, 63840, Note_on_c, 7, 54, 58
10, 64128, Note_on_c, 7, 54, 0
10, 64320, Note_on_c, 7, 55, 58
10, 64560, Note_on_c, 7, 55, 0
10, 64800, Note_on_c, 7, 58, 105
10, 65112, Note_on_c, 7, 58, 0
10, 65280, Note_on_c, 7, 57, 105
10, 65592, Note_on_c, 7, 57, 0
10, 65760, Note_on_c, 7, 55, 105
10, 66072, Note_on_c, 7, 55, 0
10, 66240, Note_on_c, 7, 54, 105
10, 66552, Note_on_c, 7, 54, 0
10, 66720, Note_on_c, 7, 50, 105
10, 67032, Note_on_c, 7, 50, 0
10, 67200, Note_on_c, 7, 51, 105
10, 67512, Note_on_c, 7, 51, 0
10, 67680, Note_on_c, 7, 48, 105
10, 67992, Note_on_c, 7, 48, 0
10, 68160, Note_on_c, 7, 50, 105
10, 68472, Note_on_c, 7, 50, 0
10, 68640, Note_on_c, 7, 50, 105
10, 68952, Note_on_c, 7, 50, 0
10, 69120, Note_on_c, 7, 43, 105
10, 69888, Note_on_c, 7, 43, 0
10, 70560, Note_on_c, 7, 62, 105
10, 70872, Note_on_c, 7, 62, 0
10, 71040, Note_on_c, 7, 62, 105
10, 71352, Note_on_c, 7, 62, 0
10, 71520, Note_on_c, 7, 62, 105
10, 71832, Note_on_c, 7, 62, 0
10, 72000, Note_on_c, 7, 61, 105
10, 72312, Note_on_c, 7, 61, 0
10, 72480, Note_on_c, 7, 61, 105
10, 72792, Note_on_c, 7, 61, 0
10, 72960, Note_on_c, 7, 61, 105
10, 73272, Note_on_c, 7, 61, 0
10, 73440, Note_on_c, 7, 60, 105
10, 73752, Note_on_c, 7, 60, 0
10, 73920, Note_on_c, 7, 60, 105
10, 74232, Note_on_c, 7, 60, 0
10, 74400, Note_on_c, 7, 60, 105
10, 74712, Note_on_c, 7, 60, 0
10, 74880, Note_on_c, 7, 58, 105
10, 75192, Note_on_c, 7, 58, 0
10, 75360, Note_on_c, 7, 58, 105
10, 75672, Note_on_c, 7, 58, 0
10, 75840, Note_on_c, 7, 46, 105
10, 76152, Note_on_c, 7, 46, 0
10, 76320, Note_on_c, 7, 47, 58
10, 76632, Note_on_c, 7, 47, 0
10, 76800, Note_on_c, 7, 47, 58
10, 77112, Note_on_c, 7, 47, 0
10, 77280, Note_on_c, 7, 47, 58
10, 77520, Note_on_c, 7, 47, 0
10, 77520, Note_on_c, 7, 48, 58
10, 77712, Note_on_c, 7, 48, 0
10, 77760, Note_on_c, 7, 48, 58
10, 78240, Note_on_c, 7, 48, 0
10, 78240, Note_on_c, 7, 60, 58
10, 78528, Note_on_c, 7, 60, 0
10, 78600, Note_on_c, 7, 58, 58
10, 78660, Note_on_c, 7, 58, 0
10, 78720, Note_on_c, 7, 57, 58
10, 79104, Note_on_c, 7, 57, 0
10, 79200, Note_on_c, 7, 55, 58
10, 79512, Note_on_c, 7, 55, 0
10, 79680, Note_on_c, 7, 53, 58
10, 79992, Note_on_c, 7, 53, 0
10, 80160, Note_on_c, 7, 51, 58
10, 80472, Note_on_c, 7, 51, 0
10, 80640, Note_on_c, 7, 50, 58
10, 80952, Note_on_c, 7, 50, 0
10, 81120, Note_on_c, 7, 50, 58
10, 81432, Note_on_c, 7, 50, 0
10, 82080, Note_on_c, 7, 55, 105
10, 82392, Note_on_c, 7, 55, 0
10, 82560, Note_on_c, 7, 50, 105
10, 82872, Note_on_c, 7, 50, 0
10, 83040, Note_on_c, 7, 55, 105
10, 83352, Note_on_c, 7, 55, 0
10, 83520, Note_on_c, 7, 58, 105
10, 84288, Note_on_c, 7, 58, 0
10, 84480, Note_on_c, 7, 60, 105
10, 84720, Note_on_c, 7, 60, 0
10, 84720, Note_on_c, 7, 57, 105
10, 84912, Note_on_c, 7, 57, 0
10, 84960, Note_on_c, 7, 55, 105
10, 85272, Note_on_c, 7, 55, 0
10, 85440, Note_on_c, 7, 54, 105
10, 85752, Note_on_c, 7, 54, 0
10, 85920, Note_on_c, 7, 55, 105
10, 86232, Note_on_c, 7, 55, 0
10, 86400, Note_on_c, 7, 57, 105
10, 86640, Note_on_c, 7, 57, 0
10, 86640, Note_on_c, 7, 54, 105
10, 86832, Note_on_c, 7, 54, 0
10, 86880, Note_on_c, 7, 50, 105
10, 87264, Note_on_c, 7, 50, 0
10, 93600, Note_on_c, 7, 58, 105
10, 93888, Note_on_c, 7, 58, 0
10, 94080, Note_on_c, 7, 58, 105
10, 94368, Note_on_c, 7, 58, 0
10, 94560, Note_on_c, 7, 58, 105
10, 94848, Note_on_c, 7, 58, 0
10, 95040, Note_on_c, 7, 57, 105
10, 95328, Note_on_c, 7, 57, 0
10, 95520, Note_on_c, 7, 50, 105
10, 95808, Note_on_c, 7, 50, 0
10, 96000, Note_on_c, 7, 51, 105
10, 96288, Note_on_c, 7, 51, 0
10, 96480, Note_on_c, 7, 58, 58
10, 96768, Note_on_c, 7, 58, 0
10, 96960, Note_on_c, 7, 58, 58
10, 97248, Note_on_c, 7, 58, 0
10, 97440, Note_on_c, 7, 58, 58
10, 97728, Note_on_c, 7, 58, 0
10, 97920, Note_on_c, 7, 57, 58
10, 98400, Note_on_c, 7, 57, 0
10, 98400, Note_on_c, 7, 54, 58
10, 98688, Note_on_c, 7, 54, 0
10, 98880, Note_on_c, 7, 55, 58
10, 99120, Note_on_c, 7, 55, 0
10, 99360, Note_on_c, 7, 58, 105
10, 99672, Note_on_c, 7, 58, 0
10, 99840, Note_on_c, 7, 57, 105
10, 100152, Note_on_c, 7, 57, 0
10, 100320, Note_on_c, 7, 55, 105
10, 100632, Note_on_c, 7, 55, 0
10, 100800, Note_on_c, 7, 54, 105
10, 101112, Note_on_c, 7, 54, 0
10, 101280, Note_on_c, 7, 50, 105
10, 101592, Note_on_c, 7, 50, 0
10, 101760, Note_on_c, 7, 51, 105
10, 102072, Note_on_c, 7, 51, 0
10, 102240, Note_on_c, 7, 48, 105
10, 102552, Note_on_c, 7, 48, 0
10, 102720, Note_on_c, 7, 50, 105
10, 103032, Note_on_c, 7, 50, 0
10, 103200, Note_on_c, 7, 50, 105
10, 103512, Note_on_c, 7, 50, 0
10, 103680, Note_on_c, 7, 43, 105
10, 104448, Note_on_c, 7, 43, 0
10, 168480, Note_on_c, 7, 55, 105
10, 168792, Note_on_c, 7, 55, 0
10, 168960, Note_on_c, 7, 50, 105
10, 169272, Note_on_c, 7, 50, 0
10, 169440, Note_on_c, 7, 55, 105
10, 169752, Note_on_c, 7, 55, 0
10, 169920, Note_on_c, 7, 58, 105
10, 170688, Note_on_c, 7, 58, 0
10, 170880, Note_on_c, 7, 60, 105
10, 171120, Note_on_c, 7, 60, 0
10, 171120, Note_on_c, 7, 57, 105
10, 171312, Note_on_c, 7, 57, 0
10, 171360, Note_on_c, 7, 55, 105
10, 171672, Note_on_c, 7, 55, 0
10, 171840, Note_on_c, 7, 54, 105
10, 172152, Note_on_c, 7, 54, 0
10, 172320, Note_on_c, 7, 55, 105
10, 172632, Note_on_c, 7, 55, 0
10, 172800, Note_on_c, 7, 57, 105
10, 173040, Note_on_c, 7, 57, 0
10, 173040, Note_on_c, 7, 54, 105
10, 173232, Note_on_c, 7, 54, 0
10, 173280, Note_on_c, 7, 50, 105
10, 173664, Note_on_c, 7, 50, 0
10, 180000, Note_on_c, 7, 58, 105
10, 180288, Note_on_c, 7, 58, 0
10, 180480, Note_on_c, 7, 58, 105
10, 180768, Note_on_c, 7, 58, 0
10, 180960, Note_on_c, 7, 58, 105
10, 181248, Note_on_c, 7, 58, 0
10, 181440, Note_on_c, 7, 57, 105
10, 181728, Note_on_c, 7, 57, 0
10, 181920, Note_on_c, 7, 50, 105
10, 182208, Note_on_c, 7, 50, 0
10, 182400, Note_on_c, 7, 51, 105
10, 182688, Note_on_c, 7, 51, 0
10, 182880, Note_on_c, 7, 48, 105
10, 183168, Note_on_c, 7, 48, 0
10, 183360, Note_on_c, 7, 50, 105
10, 183648, Note_on_c, 7, 50, 0
10, 183840, Note_on_c, 7, 38, 105
10, 184128, Note_on_c, 7, 38, 0
10, 184320, Note_on_c, 7, 43, 105
10, 184608, Note_on_c, 7, 43, 0
10, 184800, Note_on_c, 7, 50, 105
10, 185088, Note_on_c, 7, 50, 0
10, 185280, Note_on_c, 7, 55, 105
10, 185568, Note_on_c, 7, 55, 0
10, 185760, Note_on_c, 7, 62, 105
10, 186072, Note_on_c, 7, 62, 0
10, 186240, Note_on_c, 7, 62, 105
10, 186552, Note_on_c, 7, 62, 0
10, 186720, Note_on_c, 7, 62, 105
10, 187032, Note_on_c, 7, 62, 0
10, 187200, Note_on_c, 7, 61, 105
10, 187512, Note_on_c, 7, 61, 0
10, 187680, Note_on_c, 7, 61, 105
10, 187992, Note_on_c, 7, 61, 0
10, 188160, Note_on_c, 7, 61, 105
10, 188472, Note_on_c, 7, 61, 0
10, 188640, Note_on_c, 7, 60, 105
10, 188952, Note_on_c, 7, 60, 0
10, 189120, Note_on_c, 7, 60, 105
10, 189432, Note_on_c, 7, 60, 0
10, 189600, Note_on_c, 7, 60, 105
10, 189912, Note_on_c, 7, 60, 0
10, 190080, Note_on_c, 7, 58, 105
10, 190392, Note_on_c, 7, 58, 0
10, 190560, Note_on_c, 7, 58, 105
10, 190872, Note_on_c, 7, 58, 0
10, 191040, Note_on_c, 7, 46, 92
10, 191352, Note_on_c, 7, 46, 0
10, 191520, Note_on_c, 7, 47, 58
10, 191832, Note_on_c, 7, 47, 0
10, 192000, Note_on_c, 7, 47, 58
10, 192312, Note_on_c, 7, 47, 0
10, 192480, Note_on_c, 7, 47, 58
10, 192720, Note_on_c, 7, 47, 0
10, 192720, Note_on_c, 7, 48, 58
10, 192912, Note_on_c, 7, 48, 0
10, 192960, Note_on_c, 7, 48, 58
10, 193440, Note_on_c, 7, 48, 0
10, 193440, Note_on_c, 7, 60, 58
10, 193728, Note_on_c, 7, 60, 0
10, 193800, Note_on_c, 7, 58, 58
10, 193860, Note_on_c, 7, 58, 0
10, 193920, Note_on_c, 7, 57, 58
10, 194304, Note_on_c, 7, 57, 0
10, 194400, Note_on_c, 7, 55, 58
10, 194712, Note_on_c, 7, 55, 0
10, 194880, Note_on_c, 7, 53, 58
10, 195192, Note_on_c, 7, 53, 0
10, 195360, Note_on_c, 7, 51, 58
10, 195672, Note_on_c, 7, 51, 0
10, 195840, Note_on_c, 7, 50, 58
10, 196152, Note_on_c, 7, 50, 0
10, 196320, Note_on_c, 7, 50, 58
10, 196632, Note_on_c, 7, 50, 0
10, 197280, Note_on_c, 7, 55, 105
10, 197592, Note_on_c, 7, 55, 0
10, 197760, Note_on_c, 7, 50, 105
10, 198072, Note_on_c, 7, 50, 0
10, 198240, Note_on_c, 7, 55, 105
10, 198552, Note_on_c, 7, 55, 0
10, 198720, Note_on_c, 7, 58, 105
10, 199488, Note_on_c, 7, 58, 0
10, 199680, Note_on_c, 7, 60, 105
10, 199920, Note_on_c, 7, 60, 0
10, 199920, Note_on_c, 7, 57, 105
10, 200112, Note_on_c, 7, 57, 0
10, 200160, Note_on_c, 7, 55, 105
10, 200472, Note_on_c, 7, 55, 0
10, 200640, Note_on_c, 7, 54, 105
10, 200952, Note_on_c, 7, 54, 0
10, 201120, Note_on_c, 7, 55, 105
10, 201432, Note_on_c, 7, 55, 0
10, 201600, Note_on_c, 7, 57, 105
10, 201840, Note_on_c, 7, 57, 0
10, 201840, Note_on_c, 7, 54, 105
10, 202032, Note_on_c, 7, 54, 0
10, 202080, Note_on_c, 7, 50, 105
10, 202464, Note_on_c, 7, 50, 0
10, 208800, Note_on_c, 7, 58, 105
10, 209088, Note_on_c, 7, 58, 0
10, 209280, Note_on_c, 7, 58, 105
10, 209568, Note_on_c, 7, 58, 0
10, 209760, Note_on_c, 7, 58, 105
10, 210048, Note_on_c, 7, 58, 0
10, 210240, Note_on_c, 7, 57, 105
10, 210528, Note_on_c, 7, 57, 0
10, 210720, Note_on_c, 7, 50, 105
10, 211008, Note_on_c, 7, 50, 0
10, 211200, Note_on_c, 7, 51, 105
10, 211488, Note_on_c, 7, 51, 0
10, 211680, Note_on_c, 7, 58, 58
10, 211968, Note_on_c, 7, 58, 0
10, 212160, Note_on_c, 7, 58, 58
10, 212448, Note_on_c, 7, 58, 0
10, 212640, Note_on_c, 7, 58, 58
10, 212928, Note_on_c, 7, 58, 0
10, 213120, Note_on_c, 7, 57, 58
10, 213600, Note_on_c, 7, 57, 0
10, 213600, Note_on_c, 7, 54, 58
10, 213888, Note_on_c, 7, 54, 0
10, 214080, Note_on_c, 7, 55, 58
10, 214320, Note_on_c, 7, 55, 0
10, 214560, Note_on_c, 7, 58, 105
10, 214872, Note_on_c, 7, 58, 0
10, 215040, Note_on_c, 7, 57, 105
10, 215352, Note_on_c, 7, 57, 0
10, 215520, Note_on_c, 7, 55, 105
10, 215832, Note_on_c, 7, 55, 0
10, 216000, Note_on_c, 7, 54, 105
10, 216312, Note_on_c, 7, 54, 0
10, 216480, Note_on_c, 7, 50, 105
10, 216792, Note_on_c, 7, 50, 0
10, 216960, Note_on_c, 7, 51, 105
10, 217272, Note_on_c, 7, 51, 0
10, 217440, Note_on_c, 7, 48, 105
10, 217752, Note_on_c, 7, 48, 0
10, 217920, Note_on_c, 7, 50, 105
10, 218232, Note_on_c, 7, 50, 0
10, 218400, Note_on_c, 7, 50, 105
10, 218712, Note_on_c, 7, 50, 0
10, 218880, Note_on_c, 7, 43, 105
10, 219840, Note_on_c, 7, 43, 0
10, 219840, End_track
11, 0, Start_track
11, 0, Program_c, 8, 43
11, 0, Control_c, 8, 7, 127
11, 0, Control_c, 8, 10, 55
11, 0, Control_c, 8, 91, 90
11, 1440, Note_on_c, 8, 43, 105
11, 1752, Note_on_c, 8, 43, 0
11, 1920, Note_on_c, 8, 38, 105
11, 2232, Note_on_c, 8, 38, 0
11, 2400, Note_on_c, 8, 43, 105
11, 2712, Note_on_c, 8, 43, 0
11, 2880, Note_on_c, 8, 46, 105
11, 3648, Note_on_c, 8, 46, 0
11, 3840, Note_on_c, 8, 48, 105
11, 4080, Note_on_c, 8, 48, 0
11, 4080, Note_on_c, 8, 45, 105
11, 4272, Note_on_c, 8, 45, 0
11, 4320, Note_on_c, 8, 43, 105
11, 4632, Note_on_c, 8, 43, 0
11, 4800, Note_on_c, 8, 42, 105
11, 5112, Note_on_c, 8, 42, 0
11, 5280, Note_on_c, 8, 43, 105
11, 5592, Note_on_c, 8, 43, 0
11, 5760, Note_on_c, 8, 45, 105
11, 6000, Note_on_c, 8, 45, 0
11, 6000, Note_on_c, 8, 42, 105
11, 6192, Note_on_c, 8, 42, 0
11, 6240, Note_on_c, 8, 38, 105
11, 6624, Note_on_c, 8, 38, 0
11, 12960, Note_on_c, 8, 46, 105
11, 13248, Note_on_c, 8, 46, 0
11, 13440, Note_on_c, 8, 46, 105
11, 13728, Note_on_c, 8, 46, 0
11, 13920, Note_on_c, 8, 46, 105
11, 14208, Note_on_c, 8, 46, 0
11, 14400, Note_on_c, 8, 45, 105
11, 14688, Note_on_c, 8, 45, 0
11, 14880, Note_on_c, 8, 38, 105
11, 15168, Note_on_c, 8, 38, 0
11, 15360, Note_on_c, 8, 39, 105
11, 15648, Note_on_c, 8, 39, 0
11, 15840, Note_on_c, 8, 36, 105
11, 16128, Note_on_c, 8, 36, 0
11, 16320, Note_on_c, 8, 38, 105
11, 16608, Note_on_c, 8, 38, 0
11, 16800, Note_on_c, 8, 38, 105
11, 17088, Note_on_c, 8, 38, 0
11, 17280, Note_on_c, 8, 31, 105
11, 17568, Note_on_c, 8, 31, 0
11, 17760, Note_on_c, 8, 38, 105
11, 18048, Note_on_c, 8, 38, 0
11, 18240, Note_on_c, 8, 43, 105
11, 18528, Note_on_c, 8, 43, 0
11, 18720, Note_on_c, 8, 43, 105
11, 19032, Note_on_c, 8, 43, 0
11, 19200, Note_on_c, 8, 38, 105
11, 19512, Note_on_c, 8, 38, 0
11, 19680, Note_on_c, 8, 43, 105
11, 19992, Note_on_c, 8, 43, 0
11, 20160, Note_on_c, 8, 46, 105
11, 20928, Note_on_c, 8, 46, 0
11, 21120, Note_on_c, 8, 48, 105
11, 21360, Note_on_c, 8, 48, 0
11, 21360, Note_on_c, 8, 45, 105
11, 21552, Note_on_c, 8, 45, 0
11, 21600, Note_on_c, 8, 43, 105
11, 21912, Note_on_c, 8, 43, 0
11, 22080, Note_on_c, 8, 42, 105
11, 22392, Note_on_c, 8, 42, 0
11, 22560, Note_on_c, 8, 43, 105
11, 22872, Note_on_c, 8, 43, 0
11, 23040, Note_on_c, 8, 45, 105
11, 23280, Note_on_c, 8, 45, 0
11, 23280, Note_on_c, 8, 42, 105
11, 23472, Note_on_c, 8, 42, 0
11, 23520, Note_on_c, 8, 38, 105
11, 23904, Note_on_c, 8, 38, 0
11, 30240, Note_on_c, 8, 46, 105
11, 30528, Note_on_c, 8, 46, 0
11, 30720, Note_on_c, 8, 46, 105
11, 31008, Note_on_c, 8, 46, 0
11, 31200, Note_on_c, 8, 46, 105
11, 31488, Note_on_c, 8, 46, 0
11, 31680, Note_on_c, 8, 45, 105
11, 31968, Note_on_c, 8, 45, 0
11, 32160, Note_on_c, 8, 38, 105
11, 32448, Note_on_c, 8, 38, 0
11, 32640, Note_on_c, 8, 39, 105
11, 32928, Note_on_c, 8, 39, 0
11, 33120, Note_on_c, 8, 36, 105
11, 33408, Note_on_c, 8, 36, 0
11, 33600, Note_on_c, 8, 38, 105
11, 33888, Note_on_c, 8, 38, 0
11, 34080, Note_on_c, 8, 38, 105
11, 34368, Note_on_c, 8, 38, 0
11, 34560, Note_on_c, 8, 31, 105
11, 34848, Note_on_c, 8, 31, 0
11, 35040, Note_on_c, 8, 38, 105
11, 35328, Note_on_c, 8, 38, 0
11, 35520, Note_on_c, 8, 43, 105
11, 35808, Note_on_c, 8, 43, 0
11, 36000, Note_on_c, 8, 50, 105
11, 36312, Note_on_c, 8, 50, 0
11, 36480, Note_on_c, 8, 50, 105
11, 36792, Note_on_c, 8, 50, 0
11, 36960, Note_on_c, 8, 50, 105
11, 37272, Note_on_c, 8, 50, 0
11, 37440, Note_on_c, 8, 49, 105
11, 37752, Note_on_c, 8, 49, 0
11, 37920, Note_on_c, 8, 49, 105
11, 38232, Note_on_c, 8, 49, 0
11, 38400, Note_on_c, 8, 49, 105
11, 38712, Note_on_c, 8, 49, 0
11, 38880, Note_on_c, 8, 48, 105
11, 39192, Note_on_c, 8, 48, 0
11, 39360, Note_on_c, 8, 48, 105
11, 39672, Note_on_c, 8, 48, 0
11, 39840, Note_on_c, 8, 48, 105
11, 40152, Note_on_c, 8, 48, 0
11, 40320, Note_on_c, 8, 46, 105
11, 40632, Note_on_c, 8, 46, 0
11, 40800, Note_on_c, 8, 46, 105
11, 41112, Note_on_c, 8, 46, 0
11, 41280, Note_on_c, 8, 34, 92
11, 41592, Note_on_c, 8, 34, 0
11, 41760, Note_on_c, 8, 35, 58
11, 42072, Note_on_c, 8, 35, 0
11, 42240, Note_on_c, 8, 35, 58
11, 42552, Note_on_c, 8, 35, 0
11, 42720, Note_on_c, 8, 35, 58
11, 42960, Note_on_c, 8, 35, 0
11, 42960, Note_on_c, 8, 36, 58
11, 43152, Note_on_c, 8, 36, 0
11, 43200, Note_on_c, 8, 36, 58
11, 43680, Note_on_c, 8, 36, 0
11, 43680, Note_on_c, 8, 48, 58
11, 43968, Note_on_c, 8, 48, 0
11, 44040, Note_on_c, 8, 46, 58
11, 44100, Note_on_c, 8, 46, 0
11, 44160, Note_on_c, 8, 45, 58
11, 44544, Note_on_c, 8, 45, 0
11, 44640, Note_on_c, 8, 43, 58
11, 44952, Note_on_c, 8, 43, 0
11, 45120, Note_on_c, 8, 41, 58
11, 45432, Note_on_c, 8, 41, 0
11, 45600, Note_on_c, 8, 39, 58
11, 45912, Note_on_c, 8, 39, 0
11, 46080, Note_on_c, 8, 38, 58
11, 46392, Note_on_c, 8, 38, 0
11, 46560, Note_on_c, 8, 38, 58
11, 46872, Note_on_c, 8, 38, 0
11, 47520, Note_on_c, 8, 43, 105
11, 47832, Note_on_c, 8, 43, 0
11, 48000, Note_on_c, 8, 38, 105
11, 48312, Note_on_c, 8, 38, 0
11, 48480, Note_on_c, 8, 43, 105
11, 48792, Note_on_c, 8, 43, 0
11, 48960, Note_on_c, 8, 46, 105
11, 49728, Note_on_c, 8, 46, 0
11, 49920, Note_on_c, 8, 48, 105
11, 50160, Note_on_c, 8, 48, 0
11, 50160, Note_on_c, 8, 45, 105
11, 50352, Note_on_c, 8, 45, 0
11, 50400, Note_on_c, 8, 43, 105
11, 50712, Note_on_c, 8, 43, 0
11, 50880, Note_on_c, 8, 42, 105
11, 51192, Note_on_c, 8, 42, 0
11, 51360, Note_on_c, 8, 43, 105
11, 51672, Note_on_c, 8, 43, 0
11, 51840, Note_on_c, 8, 45, 105
11, 52080, Note_on_c, 8, 45, 0
11, 52080, Note_on_c, 8, 42, 105
11, 52272, Note_on_c, 8, 42, 0
11, 52320, Note_on_c, 8, 38, 105
11, 52704, Note_on_c, 8, 38, 0
11, 59040, Note_on_c, 8, 46, 105
11, 59328, Note_on_c, 8, 46, 0
11, 59520, Note_on_c, 8, 46, 105
11, 59808, Note_on_c, 8, 46, 0
11, 60000, Note_on_c, 8, 46, 105
11, 60288, Note_on_c, 8, 46, 0
11, 60480, Note_on_c, 8, 45, 105
11, 60768, Note_on_c, 8, 45, 0
11, 60960, Note_on_c, 8, 38, 105
11, 61248, Note_on_c, 8, 38, 0
11, 61440, Note_on_c, 8, 39, 105
11, 61728, Note_on_c, 8, 39, 0
11, 61920, Note_on_c, 8, 46, 58
11, 62208, Note_on_c, 8, 46, 0
11, 62400, Note_on_c, 8, 46, 58
11, 62688, Note_on_c, 8, 46, 0
11, 62880, Note_on_c, 8, 46, 58
11, 63168, Note_on_c, 8, 46, 0
11, 63360, Note_on_c, 8, 45, 58
11, 63840, Note_on_c, 8, 45, 0
11, 63840, Note_on_c, 8, 42, 58
11, 64128, Note_on_c, 8, 42, 0
11, 64320, Note_on_c, 8, 43, 58
11, 64560, Note_on_c, 8, 43, 0
11, 64800, Note_on_c, 8, 46, 105
11, 65112, Note_on_c, 8, 46, 0
11, 65280, Note_on_c, 8, 45, 105
11, 65592, Note_on_c, 8, 45, 0
11, 65760, Note_on_c, 8, 43, 105
11, 66072, Note_on_c, 8, 43, 0
11, 66240, Note_on_c, 8, 42, 105
11, 66552, Note_on_c, 8, 42, 0
11, 66720, Note_on_c, 8, 38, 105
11, 67032, Note_on_c, 8, 38, 0
11, 67200, Note_on_c, 8, 39, 105
11, 67512, Note_on_c, 8, 39, 0
11, 67680, Note_on_c, 8, 36, 105
11, 67992, Note_on_c, 8, 36, 0
11, 68160, Note_on_c, 8, 38, 105
11, 68472, Note_on_c, 8, 38, 0
11, 68640, Note_on_c, 8, 38, 105
11, 68952, Note_on_c, 8, 38, 0
11, 69120, Note_on_c, 8, 31, 105
11, 69888, Note_on_c, 8, 31, 0
11, 70560, Note_on_c, 8, 50, 105
11, 70872, Note_on_c, 8, 50, 0
11, 71040, Note_on_c, 8, 50, 105
11, 71352, Note_on_c, 8, 50, 0
11, 71520, Note_on_c, 8, 50, 105
11, 71832, Note_on_c, 8, 50, 0
11, 72000, Note_on_c, 8, 49, 105
11, 72312, Note_on_c, 8, 49, 0
11, 72480, Note_on_c, 8, 49, 105
11, 72792, Note_on_c, 8, 49, 0
11, 72960, Note_on_c, 8, 49, 105
11, 73272, Note_on_c, 8, 49, 0
11, 73440, Note_on_c, 8, 48, 105
11, 73752, Note_on_c, 8, 48, 0
11, 73920, Note_on_c, 8, 48, 105
11, 74232, Note_on_c, 8, 48, 0
11, 74400, Note_on_c, 8, 48, 105
11, 74712, Note_on_c, 8, 48, 0
11, 74880, Note_on_c, 8, 46, 105
11, 75192, Note_on_c, 8, 46, 0
11, 75360, Note_on_c, 8, 46, 105
11, 75672, Note_on_c, 8, 46, 0
11, 75840, Note_on_c, 8, 34, 92
11, 76152, Note_on_c, 8, 34, 0
11, 76320, Note_on_c, 8, 35, 58
11, 76632, Note_on_c, 8, 35, 0
11, 76800, Note_on_c, 8, 35, 58
11, 77112, Note_on_c, 8, 35, 0
11, 77280, Note_on_c, 8, 35, 58
11, 77520, Note_on_c, 8, 35, 0
11, 77520, Note_on_c, 8, 36, 58
11, 77712, Note_on_c, 8, 36, 0
11, 77760, Note_on_c, 8, 36, 58
11, 78240, Note_on_c, 8, 36, 0
11, 78240, Note_on_c, 8, 48, 58
11, 78528, Note_on_c, 8, 48, 0
11, 78600, Note_on_c, 8, 46, 58
11, 78660, Note_on_c, 8, 46, 0
11, 78720, Note_on_c, 8, 45, 58
11, 79104, Note_on_c, 8, 45, 0
11, 79200, Note_on_c, 8, 43, 58
11, 79512, Note_on_c, 8, 43, 0
11, 79680, Note_on_c, 8, 41, 58
11, 79992, Note_on_c, 8, 41, 0
11, 80160, Note_on_c, 8, 39, 58
11, 80472, Note_on_c, 8, 39, 0
11, 80640, Note_on_c, 8, 38, 58
11, 80952, Note_on_c, 8, 38, 0
11, 81120, Note_on_c, 8, 38, 58
11, 81432, Note_on_c, 8, 38, 0
11, 82080, Note_on_c, 8, 43, 105
11, 82392, Note_on_c, 8, 43, 0
11, 82560, Note_on_c, 8, 38, 105
11, 82872, Note_on_c, 8, 38, 0
11, 83040, Note_on_c, 8, 43, 105
11, 83352, Note_on_c, 8, 43, 0
11, 83520, Note_on_c, 8, 46, 105
11, 84288, Note_on_c, 8, 46, 0
11, 84480, Note_on_c, 8, 48, 105
11, 84720, Note_on_c, 8, 48, 0
11, 84720, Note_on_c, 8, 45, 105
11, 84912, Note_on_c, 8, 45, 0
11, 84960, Note_on_c, 8, 43, 105
11, 85272, Note_on_c, 8, 43, 0
11, 85440, Note_on_c, 8, 42, 105
11, 85752, Note_on_c, 8, 42, 0
11, 85920, Note_on_c, 8, 43, 105
11, 86232, Note_on_c, 8, 43, 0
11, 86400, Note_on_c, 8, 45, 105
11, 86640, Note_on_c, 8, 45, 0
11, 86640, Note_on_c, 8, 42, 105
11, 86832, Note_on_c, 8, 42, 0
11, 86880, Note_on_c, 8, 38, 105
11, 87264, Note_on_c, 8, 38, 0
11, 93600, Note_on_c, 8, 46, 105
11, 93888, Note_on_c, 8, 46, 0
11, 94080, Note_on_c, 8, 46, 105
11, 94368, Note_on_c, 8, 46, 0
11, 94560, Note_on_c, 8, 46, 105
11, 94848, Note_on_c, 8, 46, 0
11, 95040, Note_on_c, 8, 45, 105
11, 95328, Note_on_c, 8, 45, 0
11, 95520, Note_on_c, 8, 38, 105
11, 95808, Note_on_c, 8, 38, 0
11, 96000, Note_on_c, 8, 39, 105
11, 96288, Note_on_c, 8, 39, 0
11, 96480, Note_on_c, 8, 46, 58
11, 96768, Note_on_c, 8, 46, 0
11, 96960, Note_on_c, 8, 46, 58
11, 97248, Note_on_c, 8, 46, 0
11, 97440, Note_on_c, 8, 46, 58
11, 97728, Note_on_c, 8, 46, 0
11, 97920, Note_on_c, 8, 45, 58
11, 98400, Note_on_c, 8, 45, 0
11, 98400, Note_on_c, 8, 42, 58
11, 98688, Note_on_c, 8, 42, 0
11, 98880, Note_on_c, 8, 43, 58
11, 99120, Note_on_c, 8, 43, 0
11, 99360, Note_on_c, 8, 46, 105
11, 99672, Note_on_c, 8, 46, 0
11, 99840, Note_on_c, 8, 45, 105
11, 100152, Note_on_c, 8, 45, 0
11, 100320, Note_on_c, 8, 43, 105
11, 100632, Note_on_c, 8, 43, 0
11, 100800, Note_on_c, 8, 42, 105
11, 101112, Note_on_c, 8, 42, 0
11, 101280, Note_on_c, 8, 38, 105
11, 101592, Note_on_c, 8, 38, 0
11, 101760, Note_on_c, 8, 39, 105
11, 102072, Note_on_c, 8, 39, 0
11, 102240, Note_on_c, 8, 36, 105
11, 102552, Note_on_c, 8, 36, 0
11, 102720, Note_on_c, 8, 38, 105
11, 103032, Note_on_c, 8, 38, 0
11, 103200, Note_on_c, 8, 38, 105
11, 103512, Note_on_c, 8, 38, 0
11, 103680, Note_on_c, 8, 31, 105
11, 104448, Note_on_c, 8, 31, 0
11, 168480, Note_on_c, 8, 43, 105
11, 168792, Note_on_c, 8, 43, 0
11, 168960, Note_on_c, 8, 38, 105
11, 169272, Note_on_c, 8, 38, 0
11, 169440, Note_on_c, 8, 43, 105
11, 169752, Note_on_c, 8, 43, 0
11, 169920, Note_on_c, 8, 46, 105
11, 170688, Note_on_c, 8, 46, 0
11, 170880, Note_on_c, 8, 48, 105
11, 171120, Note_on_c, 8, 48, 0
11, 171120, Note_on_c, 8, 45, 105
11, 171312, Note_on_c, 8, 45, 0
11, 171360, Note_on_c, 8, 43, 105
11, 171672, Note_on_c, 8, 43, 0
11, 171840, Note_on_c, 8, 42, 105
11, 172152, Note_on_c, 8, 42, 0
11, 172320, Note_on_c, 8, 43, 105
11, 172632, Note_on_c, 8, 43, 0
11, 172800, Note_on_c, 8, 45, 105
11, 173040, Note_on_c, 8, 45, 0
11, 173040, Note_on_c, 8, 42, 105
11, 173232, Note_on_c, 8, 42, 0
11, 173280, Note_on_c, 8, 38, 105
11, 173664, Note_on_c, 8, 38, 0
11, 180000, Note_on_c, 8, 46, 105
11, 180288, Note_on_c, 8, 46, 0
11, 180480, Note_on_c, 8, 46, 105
11, 180768, Note_on_c, 8, 46, 0
11, 180960, Note_on_c, 8, 46, 105
11, 181248, Note_on_c, 8, 46, 0
11, 181440, Note_on_c, 8, 45, 105
11, 181728, Note_on_c, 8, 45, 0
11, 181920, Note_on_c, 8, 38, 105
11, 182208, Note_on_c, 8, 38, 0
11, 182400, Note_on_c, 8, 39, 105
11, 182688, Note_on_c, 8, 39, 0
11, 182880, Note_on_c, 8, 36, 105
11, 183168, Note_on_c, 8, 36, 0
11, 183360, Note_on_c, 8, 38, 105
11, 183648, Note_on_c, 8, 38, 0
11, 183840, Note_on_c, 8, 38, 105
11, 184128, Note_on_c, 8, 38, 0
11, 184320, Note_on_c, 8, 31, 105
11, 184608, Note_on_c, 8, 31, 0
11, 184800, Note_on_c, 8, 38, 105
11, 185088, Note_on_c, 8, 38, 0
11, 185280, Note_on_c, 8, 43, 105
11, 185568, Note_on_c, 8, 43, 0
11, 185760, Note_on_c, 8, 50, 105
11, 186072, Note_on_c, 8, 50, 0
11, 186240, Note_on_c, 8, 50, 105
11, 186552, Note_on_c, 8, 50, 0
11, 186720, Note_on_c, 8, 50, 105
11, 187032, Note_on_c, 8, 50, 0
11, 187200, Note_on_c, 8, 49, 105
11, 187512, Note_on_c, 8, 49, 0
11, 187680, Note_on_c, 8, 49, 105
11, 187992, Note_on_c, 8, 49, 0
11, 188160, Note_on_c, 8, 49, 105
11, 188472, Note_on_c, 8, 49, 0
11, 188640, Note_on_c, 8, 48, 105
11, 188952, Note_on_c, 8, 48, 0
11, 189120, Note_on_c, 8, 48, 105
11, 189432, Note_on_c, 8, 48, 0
11, 189600, Note_on_c, 8, 48, 105
11, 189912, Note_on_c, 8, 48, 0
11, 190080, Note_on_c, 8, 46, 105
11, 190392, Note_on_c, 8, 46, 0
11, 190560, Note_on_c, 8, 46, 105
11, 190872, Note_on_c, 8, 46, 0
11, 191040, Note_on_c, 8, 34, 92
11, 191352, Note_on_c, 8, 34, 0
11, 191520, Note_on_c, 8, 35, 58
11, 191832, Note_on_c, 8, 35, 0
11, 192000, Note_on_c, 8, 35, 58
11, 192312, Note_on_c, 8, 35, 0
11, 192480, Note_on_c, 8, 35, 58
11, 192720, Note_on_c, 8, 35, 0
11, 192720, Note_on_c, 8, 36, 58
11, 192912, Note_on_c, 8, 36, 0
11, 192960, Note_on_c, 8, 36, 58
11, 193440, Note_on_c, 8, 36, 0
11, 193440, Note_on_c, 8, 48, 58
11, 193728, Note_on_c, 8, 48, 0
11, 193800, Note_on_c, 8, 46, 58
11, 193860, Note_on_c, 8, 46, 0
11, 193920, Note_on_c, 8, 45, 58
11, 194304, Note_on_c, 8, 45, 0
11, 194400, Note_on_c, 8, 43, 58
11, 194712, Note_on_c, 8, 43, 0
11, 194880, Note_on_c, 8, 41, 58
11, 195192, Note_on_c, 8, 41, 0
11, 195360, Note_on_c, 8, 39, 58
11, 195672, Note_on_c, 8, 39, 0
11, 195840, Note_on_c, 8, 38, 58
11, 196152, Note_on_c, 8, 38, 0
11, 196320, Note_on_c, 8, 38, 58
11, 196632, Note_on_c, 8, 38, 0
11, 197280, Note_on_c, 8, 43, 105
11, 197592, Note_on_c, 8, 43, 0
11, 197760, Note_on_c, 8, 38, 105
11, 198072, Note_on_c, 8, 38, 0
11, 198240, Note_on_c, 8, 43, 105
11, 198552, Note_on_c, 8, 43, 0
11, 198720, Note_on_c, 8, 46, 105
11, 199488, Note_on_c, 8, 46, 0
11, 199680, Note_on_c, 8, 48, 105
11, 199920, Note_on_c, 8, 48, 0
11, 199920, Note_on_c, 8, 45, 105
11, 200112, Note_on_c, 8, 45, 0
11, 200160, Note_on_c, 8, 43, 105
11, 200472, Note_on_c, 8, 43, 0
11, 200640, Note_on_c, 8, 42, 105
11, 200952, Note_on_c, 8, 42, 0
11, 201120, Note_on_c, 8, 43, 105
11, 201432, Note_on_c, 8, 43, 0
11, 201600, Note_on_c, 8, 45, 105
11, 201840, Note_on_c, 8, 45, 0
11, 201840, Note_on_c, 8, 42, 105
11, 202032, Note_on_c, 8, 42, 0
11, 202080, Note_on_c, 8, 38, 105
11, 202464, Note_on_c, 8, 38, 0
11, 208800, Note_on_c, 8, 46, 105
11, 209184, Note_on_c, 8, 46, 0
11, 209280, Note_on_c, 8, 46, 105
11, 209664, Note_on_c, 8, 46, 0
11, 209760, Note_on_c, 8, 46, 105
11, 210144, Note_on_c, 8, 46, 0
11, 210240, Note_on_c, 8, 45, 105
11, 210528, Note_on_c, 8, 45, 0
11, 210720, Note_on_c, 8, 38, 105
11, 211008, Note_on_c, 8, 38, 0
11, 211200, Note_on_c, 8, 39, 105
11, 211488, Note_on_c, 8, 39, 0
11, 211680, Note_on_c, 8, 46, 58
11, 211968, Note_on_c, 8, 46, 0
11, 212160, Note_on_c, 8, 46, 58
11, 212448, Note_on_c, 8, 46, 0
11, 212640, Note_on_c, 8, 46, 58
11, 212928, Note_on_c, 8, 46, 0
11, 213120, Note_on_c, 8, 45, 58
11, 213600, Note_on_c, 8, 45, 0
11, 213600, Note_on_c, 8, 42, 58
11, 213888, Note_on_c, 8, 42, 0
11, 214080, Note_on_c, 8, 43, 58
11, 214320, Note_on_c, 8, 43, 0
11, 214560, Note_on_c, 8, 46, 105
11, 214872, Note_on_c, 8, 46, 0
11, 215040, Note_on_c, 8, 45, 105
11, 215352, Note_on_c, 8, 45, 0
11, 215520, Note_on_c, 8, 43, 105
11, 215832, Note_on_c, 8, 43, 0
11, 216000, Note_on_c, 8, 42, 105
11, 216312, Note_on_c, 8, 42, 0
11, 216480, Note_on_c, 8, 38, 105
11, 216792, Note_on_c, 8, 38, 0
11, 216960, Note_on_c, 8, 39, 105
11, 217272, Note_on_c, 8, 39, 0
11, 217440, Note_on_c, 8, 36, 105
11, 217752, Note_on_c, 8, 36, 0
11, 217920, Note_on_c, 8, 38, 105
11, 218232, Note_on_c, 8, 38, 0
11, 218400, Note_on_c, 8, 38, 105
11, 218712, Note_on_c, 8, 38, 0
11, 218880, Note_on_c, 8, 31, 105
11, 219840, Note_on_c, 8, 31, 0
11, 220320, Note_on_c, 8, 31, 1
11, 221088, Note_on_c, 8, 31, 0
11, 221088, End_track
12, 0, Start_track
12, 0, End_track
0, 0, End_of_file