0, 0, Header, 1, 4, 96
1, 0, Start_track
1, 0, Title_t, "\213\310\202\314\225\\\221\350"
1, 0, Copyright_t, "KAWAI MUSICAL INST. MFG. CO., LTD. \212y\225\210\213L\217q\203t\203@\203C\203\213\032"
1, 0, Time_signature, 4, 2, 24, 8
1, 0, Key_signature, 0, "major"
1, 0, Tempo, 476190
1, 16896, Tempo, 476190
1, 16896, End_track
2, 0, Start_track
2, 0, Program_c, 0, 0
2, 0, Note_on_c, 0, 60, 88
2, 43, Note_on_c, 0, 60, 0
2, 48, Note_on_c, 0, 62, 88
2, 69, Note_on_c, 0, 62, 0
2, 72, Note_on_c, 0, 64, 88
2, 93, Note_on_c, 0, 64, 0
2, 96, Note_on_c, 0, 65, 88
2, 117, Note_on_c, 0, 65, 0
2, 120, Note_on_c, 0, 67, 88
2, 141, Note_on_c, 0, 67, 0
2, 144, Note_on_c, 0, 69, 88
2, 165, Note_on_c, 0, 69, 0
2, 168, Note_on_c, 0, 71, 88
2, 189, Note_on_c, 0, 71, 0
2, 192, Note_on_c, 0, 72, 88
2, 213, Note_on_c, 0, 72, 0
2, 216, Note_on_c, 0, 71, 88
2, 237, Note_on_c, 0, 71, 0
2, 240, Note_on_c, 0, 69, 88
2, 261, Note_on_c, 0, 69, 0
2, 264, Note_on_c, 0, 67, 88
2, 285, Note_on_c, 0, 67, 0
2, 288, Note_on_c, 0, 65, 88
2, 309, Note_on_c, 0, 65, 0
2, 312, Note_on_c, 0, 64, 88
2, 333, Note_on_c, 0, 64, 0
2, 336, Note_on_c, 0, 62, 88
2, 357, Note_on_c, 0, 62, 0
2, 360, Note_on_c, 0, 60, 88
2, 381, Note_on_c, 0, 60, 0
2, 384, Note_on_c, 0, 62, 88
2, 427, Note_on_c, 0, 62, 0
2, 432, Note_on_c, 0, 64, 88
2, 453, Note_on_c, 0, 64, 0
2, 456, Note_on_c, 0, 65, 88
2, 477, Note_on_c, 0, 65, 0
2, 480, Note_on_c, 0, 67, 88
2, 501, Note_on_c, 0, 67, 0
2, 504, Note_on_c, 0, 69, 88
2, 525, Note_on_c, 0, 69, 0
2, 528, Note_on_c, 0, 71, 88
2, 549, Note_on_c, 0, 71, 0
2, 552, Note_on_c, 0, 72, 88
2, 573, Note_on_c, 0, 72, 0
2, 576, Note_on_c, 0, 74, 88
2, 662, Note_on_c, 0, 74, 0
2, 768, Note_on_c, 0, 62, 88
2, 811, Note_on_c, 0, 62, 0
2, 816, Note_on_c, 0, 64, 88
2, 837, Note_on_c, 0, 64, 0
2, 840, Note_on_c, 0, 65, 88
2, 861, Note_on_c, 0, 65, 0
2, 864, Note_on_c, 0, 67, 88
2, 885, Note_on_c, 0, 67, 0
2, 888, Note_on_c, 0, 69, 88
2, 909, Note_on_c, 0, 69, 0
2, 912, Note_on_c, 0, 71, 88
2, 933, Note_on_c, 0, 71, 0
2, 936, Note_on_c, 0, 72, 88
2, 957, Note_on_c, 0, 72, 0
2, 960, Note_on_c, 0, 74, 88
2, 981, Note_on_c, 0, 74, 0
2, 984, Note_on_c, 0, 72, 88
2, 1005, Note_on_c, 0, 72, 0
2, 1008, Note_on_c, 0, 71, 88
2, 1029, Note_on_c, 0, 71, 0
2, 1032, Note_on_c, 0, 69, 88
2, 1053, Note_on_c, 0, 69, 0
2, 1056, Note_on_c, 0, 67, 88
2, 1077, Note_on_c, 0, 67, 0
2, 1080, Note_on_c, 0, 65, 88
2, 1101, Note_on_c, 0, 65, 0
2, 1104, Note_on_c, 0, 64, 88
2, 1125, Note_on_c, 0, 64, 0
2, 1128, Note_on_c, 0, 62, 88
2, 1149, Note_on_c, 0, 62, 0
2, 1152, Note_on_c, 0, 64, 88
2, 1195, Note_on_c, 0, 64, 0
2, 1200, Note_on_c, 0, 65, 88
2, 1221, Note_on_c, 0, 65, 0
2, 1224, Note_on_c, 0, 67, 88
2, 1245, Note_on_c, 0, 67, 0
2, 1248, Note_on_c, 0, 69, 88
2, 1269, Note_on_c, 0, 69, 0
2, 1272, Note_on_c, 0, 71, 88
2, 1293, Note_on_c, 0, 71, 0
2, 1296, Note_on_c, 0, 72, 88
2, 1317, Note_on_c, 0, 72, 0
2, 1320, Note_on_c, 0, 74, 88
2, 1341, Note_on_c, 0, 74, 0
2, 1344, Note_on_c, 0, 76, 88
2, 1430, Note_on_c, 0, 76, 0
2, 1536, Note_on_c, 0, 76, 88
2, 1557, Note_on_c, 0, 76, 0
2, 1560, Note_on_c, 0, 74, 88
2, 1581, Note_on_c, 0, 74, 0
2, 1584, Note_on_c, 0, 72, 88
2, 1605, Note_on_c, 0, 72, 0
2, 1608, Note_on_c, 0, 71, 88
2, 1629, Note_on_c, 0, 71, 0
2, 1632, Note_on_c, 0, 69, 88
2, 1653, Note_on_c, 0, 69, 0
2, 1656, Note_on_c, 0, 67, 88
2, 1677, Note_on_c, 0, 67, 0
2, 1680, Note_on_c, 0, 65, 88
2, 1701, Note_on_c, 0, 65, 0
2, 1704, Note_on_c, 0, 64, 88
2, 1725, Note_on_c, 0, 64, 0
2, 1728, Note_on_c, 0, 65, 88
2, 1771, Note_on_c, 0, 65, 0
2, 1776, Note_on_c, 0, 67, 88
2, 1797, Note_on_c, 0, 67, 0
2, 1800, Note_on_c, 0, 69, 88
2, 1821, Note_on_c, 0, 69, 0
2, 1824, Note_on_c, 0, 71, 88
2, 1845, Note_on_c, 0, 71, 0
2, 1848, Note_on_c, 0, 72, 88
2, 1869, Note_on_c, 0, 72, 0
2, 1872, Note_on_c, 0, 74, 88
2, 1893, Note_on_c, 0, 74, 0
2, 1896, Note_on_c, 0, 76, 88
2, 1917, Note_on_c, 0, 76, 0
2, 1920, Note_on_c, 0, 77, 88
2, 1941, Note_on_c, 0, 77, 0
2, 1944, Note_on_c, 0, 76, 88
2, 1965, Note_on_c, 0, 76, 0
2, 1968, Note_on_c, 0, 74, 88
2, 1989, Note_on_c, 0, 74, 0
2, 1992, Note_on_c, 0, 72, 88
2, 2013, Note_on_c, 0, 72, 0
2, 2016, Note_on_c, 0, 71, 88
2, 2037, Note_on_c, 0, 71, 0
2, 2040, Note_on_c, 0, 69, 88
2, 2061, Note_on_c, 0, 69, 0
2, 2064, Note_on_c, 0, 67, 88
2, 2085, Note_on_c, 0, 67, 0
2, 2088, Note_on_c, 0, 65, 88
2, 2109, Note_on_c, 0, 65, 0
2, 2112, Note_on_c, 0, 67, 88
2, 2155, Note_on_c, 0, 67, 0
2, 2160, Note_on_c, 0, 69, 88
2, 2181, Note_on_c, 0, 69, 0
2, 2184, Note_on_c, 0, 71, 88
2, 2205, Note_on_c, 0, 71, 0
2, 2208, Note_on_c, 0, 72, 88
2, 2229, Note_on_c, 0, 72, 0
2, 2232, Note_on_c, 0, 74, 88
2, 2253, Note_on_c, 0, 74, 0
2, 2256, Note_on_c, 0, 76, 88
2, 2277, Note_on_c, 0, 76, 0
2, 2280, Note_on_c, 0, 77, 88
2, 2301, Note_on_c, 0, 77, 0
2, 2304, Note_on_c, 0, 79, 88
2, 2325, Note_on_c, 0, 79, 0
2, 2328, Note_on_c, 0, 77, 88
2, 2349, Note_on_c, 0, 77, 0
2, 2352, Note_on_c, 0, 76, 88
2, 2373, Note_on_c, 0, 76, 0
2, 2376, Note_on_c, 0, 74, 88
2, 2397, Note_on_c, 0, 74, 0
2, 2400, Note_on_c, 0, 72, 88
2, 2421, Note_on_c, 0, 72, 0
2, 2424, Note_on_c, 0, 71, 88
2, 2445, Note_on_c, 0, 71, 0
2, 2448, Note_on_c, 0, 69, 88
2, 2469, Note_on_c, 0, 69, 0
2, 2472, Note_on_c, 0, 67, 88
2, 2493, Note_on_c, 0, 67, 0
2, 2496, Note_on_c, 0, 69, 88
2, 2539, Note_on_c, 0, 69, 0
2, 2544, Note_on_c, 0, 71, 88
2, 2565, Note_on_c, 0, 71, 0
2, 2568, Note_on_c, 0, 72, 88
2, 2589, Note_on_c, 0, 72, 0
2, 2592, Note_on_c, 0, 74, 88
2, 2613, Note_on_c, 0, 74, 0
2, 2616, Note_on_c, 0, 76, 88
2, 2637, Note_on_c, 0, 76, 0
2, 2640, Note_on_c, 0, 77, 88
2, 2661, Note_on_c, 0, 77, 0
2, 2664, Note_on_c, 0, 79, 88
2, 2685, Note_on_c, 0, 79, 0
2, 2688, Note_on_c, 0, 81, 88
2, 2709, Note_on_c, 0, 81, 0
2, 2712, Note_on_c, 0, 79, 88
2, 2733, Note_on_c, 0, 79, 0
2, 2736, Note_on_c, 0, 77, 88
2, 2757, Note_on_c, 0, 77, 0
2, 2760, Note_on_c, 0, 76, 88
2, 2781, Note_on_c, 0, 76, 0
2, 2784, Note_on_c, 0, 77, 88
2, 2805, Note_on_c, 0, 77, 0
2, 2808, Note_on_c, 0, 76, 88
2, 2829, Note_on_c, 0, 76, 0
2, 2832, Note_on_c, 0, 74, 88
2, 2853, Note_on_c, 0, 74, 0
2, 2856, Note_on_c, 0, 72, 88
2, 2877, Note_on_c, 0, 72, 0
2, 2880, Note_on_c, 0, 71, 88
2, 2966, Note_on_c, 0, 71, 0
2, 3072, Note_on_c, 0, 74, 88
2, 3093, Note_on_c, 0, 74, 0
2, 3096, Note_on_c, 0, 72, 88
2, 3117, Note_on_c, 0, 72, 0
2, 3120, Note_on_c, 0, 71, 88
2, 3141, Note_on_c, 0, 71, 0
2, 3144, Note_on_c, 0, 69, 88
2, 3165, Note_on_c, 0, 69, 0
2, 3168, Note_on_c, 0, 67, 88
2, 3189, Note_on_c, 0, 67, 0
2, 3192, Note_on_c, 0, 65, 88
2, 3213, Note_on_c, 0, 65, 0
2, 3216, Note_on_c, 0, 64, 88
2, 3237, Note_on_c, 0, 64, 0
2, 3240, Note_on_c, 0, 62, 88
2, 3261, Note_on_c, 0, 62, 0
2, 3264, Note_on_c, 0, 64, 88
2, 3307, Note_on_c, 0, 64, 0
2, 3312, Note_on_c, 0, 66, 88
2, 3333, Note_on_c, 0, 66, 0
2, 3336, Note_on_c, 0, 67, 88
2, 3357, Note_on_c, 0, 67, 0
2, 3360, Note_on_c, 0, 69, 88
2, 3381, Note_on_c, 0, 69, 0
2, 3384, Note_on_c, 0, 71, 88
2, 3405, Note_on_c, 0, 71, 0
2, 3408, Note_on_c, 0, 72, 88
2, 3429, Note_on_c, 0, 72, 0
2, 3432, Note_on_c, 0, 74, 88
2, 3453, Note_on_c, 0, 74, 0
2, 3456, Note_on_c, 0, 76, 88
2, 3477, Note_on_c, 0, 76, 0
2, 3480, Note_on_c, 0, 74, 88
2, 3501, Note_on_c, 0, 74, 0
2, 3504, Note_on_c, 0, 73, 88
2, 3525, Note_on_c, 0, 73, 0
2, 3528, Note_on_c, 0, 71, 88
2, 3549, Note_on_c, 0, 71, 0
2, 3552, Note_on_c, 0, 69, 88
2, 3573, Note_on_c, 0, 69, 0
2, 3576, Note_on_c, 0, 67, 88
2, 3597, Note_on_c, 0, 67, 0
2, 3600, Note_on_c, 0, 66, 88
2, 3621, Note_on_c, 0, 66, 0
2, 3624, Note_on_c, 0, 64, 88
2, 3645, Note_on_c, 0, 64, 0
2, 3648, Note_on_c, 0, 66, 88
2, 3691, Note_on_c, 0, 66, 0
2, 3696, Note_on_c, 0, 67, 88
2, 3717, Note_on_c, 0, 67, 0
2, 3720, Note_on_c, 0, 69, 88
2, 3741, Note_on_c, 0, 69, 0
2, 3744, Note_on_c, 0, 71, 88
2, 3765, Note_on_c, 0, 71, 0
2, 3768, Note_on_c, 0, 73, 88
2, 3789, Note_on_c, 0, 73, 0
2, 3792, Note_on_c, 0, 74, 88
2, 3813, Note_on_c, 0, 74, 0
2, 3816, Note_on_c, 0, 76, 88
2, 3837, Note_on_c, 0, 76, 0
2, 3840, Note_on_c, 0, 78, 88
2, 3861, Note_on_c, 0, 78, 0
2, 3864, Note_on_c, 0, 76, 88
2, 3885, Note_on_c, 0, 76, 0
2, 3888, Note_on_c, 0, 75, 88
2, 3909, Note_on_c, 0, 75, 0
2, 3912, Note_on_c, 0, 72, 88
2, 3933, Note_on_c, 0, 72, 0
2, 3936, Note_on_c, 0, 71, 88
2, 3957, Note_on_c, 0, 71, 0
2, 3960, Note_on_c, 0, 69, 88
2, 3981, Note_on_c, 0, 69, 0
2, 3984, Note_on_c, 0, 67, 88
2, 4005, Note_on_c, 0, 67, 0
2, 4008, Note_on_c, 0, 66, 88
2, 4029, Note_on_c, 0, 66, 0
2, 4032, Note_on_c, 0, 67, 88
2, 4075, Note_on_c, 0, 67, 0
2, 4080, Note_on_c, 0, 69, 88
2, 4101, Note_on_c, 0, 69, 0
2, 4104, Note_on_c, 0, 71, 88
2, 4125, Note_on_c, 0, 71, 0
2, 4128, Note_on_c, 0, 72, 88
2, 4149, Note_on_c, 0, 72, 0
2, 4152, Note_on_c, 0, 75, 88
2, 4173, Note_on_c, 0, 75, 0
2, 4176, Note_on_c, 0, 76, 88
2, 4197, Note_on_c, 0, 76, 0
2, 4200, Note_on_c, 0, 78, 88
2, 4221, Note_on_c, 0, 78, 0
2, 4224, Note_on_c, 0, 79, 88
2, 4245, Note_on_c, 0, 79, 0
2, 4248, Note_on_c, 0, 78, 88
2, 4269, Note_on_c, 0, 78, 0
2, 4272, Note_on_c, 0, 76, 88
2, 4293, Note_on_c, 0, 76, 0
2, 4296, Note_on_c, 0, 74, 88
2, 4317, Note_on_c, 0, 74, 0
2, 4320, Note_on_c, 0, 72, 88
2, 4341, Note_on_c, 0, 72, 0
2, 4344, Note_on_c, 0, 71, 88
2, 4365, Note_on_c, 0, 71, 0
2, 4368, Note_on_c, 0, 69, 88
2, 4389, Note_on_c, 0, 69, 0
2, 4392, Note_on_c, 0, 67, 88
2, 4413, Note_on_c, 0, 67, 0
2, 4416, Note_on_c, 0, 69, 88
2, 4459, Note_on_c, 0, 69, 0
2, 4464, Note_on_c, 0, 71, 88
2, 4485, Note_on_c, 0, 71, 0
2, 4488, Note_on_c, 0, 72, 88
2, 4509, Note_on_c, 0, 72, 0
2, 4512, Note_on_c, 0, 74, 88
2, 4533, Note_on_c, 0, 74, 0
2, 4536, Note_on_c, 0, 76, 88
2, 4557, Note_on_c, 0, 76, 0
2, 4560, Note_on_c, 0, 78, 88
2, 4581, Note_on_c, 0, 78, 0
2, 4584, Note_on_c, 0, 79, 88
2, 4605, Note_on_c, 0, 79, 0
2, 4608, Note_on_c, 0, 81, 88
2, 4629, Note_on_c, 0, 81, 0
2, 4632, Note_on_c, 0, 79, 88
2, 4653, Note_on_c, 0, 79, 0
2, 4656, Note_on_c, 0, 78, 88
2, 4677, Note_on_c, 0, 78, 0
2, 4680, Note_on_c, 0, 76, 88
2, 4701, Note_on_c, 0, 76, 0
2, 4704, Note_on_c, 0, 74, 88
2, 4725, Note_on_c, 0, 74, 0
2, 4728, Note_on_c, 0, 72, 88
2, 4749, Note_on_c, 0, 72, 0
2, 4752, Note_on_c, 0, 71, 88
2, 4773, Note_on_c, 0, 71, 0
2, 4776, Note_on_c, 0, 69, 88
2, 4797, Note_on_c, 0, 69, 0
2, 4800, Note_on_c, 0, 71, 88
2, 4886, Note_on_c, 0, 71, 0
2, 4944, Note_on_c, 0, 74, 88
2, 4987, Note_on_c, 0, 74, 0
2, 4992, Note_on_c, 0, 76, 88
2, 5013, Note_on_c, 0, 76, 0
2, 5016, Note_on_c, 0, 74, 88
2, 5037, Note_on_c, 0, 74, 0
2, 5040, Note_on_c, 0, 76, 88
2, 5061, Note_on_c, 0, 76, 0
2, 5064, Note_on_c, 0, 71, 88
2, 5085, Note_on_c, 0, 71, 0
2, 5088, Note_on_c, 0, 72, 88
2, 5109, Note_on_c, 0, 72, 0
2, 5112, Note_on_c, 0, 69, 88
2, 5133, Note_on_c, 0, 69, 0
2, 5136, Note_on_c, 0, 71, 88
2, 5157, Note_on_c, 0, 71, 0
2, 5160, Note_on_c, 0, 68, 88
2, 5181, Note_on_c, 0, 68, 0
2, 5184, Note_on_c, 0, 69, 88
2, 5205, Note_on_c, 0, 69, 0
2, 5208, Note_on_c, 0, 72, 88
2, 5229, Note_on_c, 0, 72, 0
2, 5232, Note_on_c, 0, 71, 88
2, 5253, Note_on_c, 0, 71, 0
2, 5256, Note_on_c, 0, 74, 88
2, 5277, Note_on_c, 0, 74, 0
2, 5280, Note_on_c, 0, 72, 88
2, 5301, Note_on_c, 0, 72, 0
2, 5304, Note_on_c, 0, 74, 88
2, 5325, Note_on_c, 0, 74, 0
2, 5328, Note_on_c, 0, 76, 88
2, 5349, Note_on_c, 0, 76, 0
2, 5352, Note_on_c, 0, 72, 88
2, 5373, Note_on_c, 0, 72, 0
2, 5376, Note_on_c, 0, 76, 88
2, 5397, Note_on_c, 0, 76, 0
2, 5400, Note_on_c, 0, 73, 88
2, 5421, Note_on_c, 0, 73, 0
2, 5424, Note_on_c, 0, 74, 88
2, 5445, Note_on_c, 0, 74, 0
2, 5448, Note_on_c, 0, 69, 88
2, 5469, Note_on_c, 0, 69, 0
2, 5472, Note_on_c, 0, 71, 88
2, 5493, Note_on_c, 0, 71, 0
2, 5496, Note_on_c, 0, 69, 88
2, 5517, Note_on_c, 0, 69, 0
2, 5520, Note_on_c, 0, 71, 88
2, 5541, Note_on_c, 0, 71, 0
2, 5544, Note_on_c, 0, 66, 88
2, 5565, Note_on_c, 0, 66, 0
2, 5568, Note_on_c, 0, 67, 88
2, 5589, Note_on_c, 0, 67, 0
2, 5592, Note_on_c, 0, 71, 88
2, 5613, Note_on_c, 0, 71, 0
2, 5616, Note_on_c, 0, 74, 88
2, 5637, Note_on_c, 0, 74, 0
2, 5640, Note_on_c, 0, 73, 88
2, 5661, Note_on_c, 0, 73, 0
2, 5664, Note_on_c, 0, 71, 88
2, 5685, Note_on_c, 0, 71, 0
2, 5688, Note_on_c, 0, 73, 88
2, 5709, Note_on_c, 0, 73, 0
2, 5712, Note_on_c, 0, 74, 88
2, 5733, Note_on_c, 0, 74, 0
2, 5736, Note_on_c, 0, 71, 88
2, 5757, Note_on_c, 0, 71, 0
2, 5760, Note_on_c, 0, 72, 88
2, 5781, Note_on_c, 0, 72, 0
2, 5784, Note_on_c, 0, 71, 88
2, 5805, Note_on_c, 0, 71, 0
2, 5808, Note_on_c, 0, 72, 88
2, 5829, Note_on_c, 0, 72, 0
2, 5832, Note_on_c, 0, 69, 88
2, 5853, Note_on_c, 0, 69, 0
2, 5856, Note_on_c, 0, 78, 88
2, 5877, Note_on_c, 0, 78, 0
2, 5880, Note_on_c, 0, 76, 88
2, 5901, Note_on_c, 0, 76, 0
2, 5904, Note_on_c, 0, 78, 88
2, 5925, Note_on_c, 0, 78, 0
2, 5928, Note_on_c, 0, 72, 88
2, 5949, Note_on_c, 0, 72, 0
2, 5952, Note_on_c, 0, 81, 88
2, 5973, Note_on_c, 0, 81, 0
2, 5976, Note_on_c, 0, 78, 88
2, 5997, Note_on_c, 0, 78, 0
2, 6000, Note_on_c, 0, 81, 88
2, 6021, Note_on_c, 0, 81, 0
2, 6024, Note_on_c, 0, 78, 88
2, 6045, Note_on_c, 0, 78, 0
2, 6048, Note_on_c, 0, 81, 88
2, 6069, Note_on_c, 0, 81, 0
2, 6072, Note_on_c, 0, 78, 88
2, 6093, Note_on_c, 0, 78, 0
2, 6096, Note_on_c, 0, 74, 88
2, 6117, Note_on_c, 0, 74, 0
2, 6120, Note_on_c, 0, 72, 88
2, 6141, Note_on_c, 0, 72, 0
2, 6144, Note_on_c, 0, 71, 88
2, 6168, Note_on_c, 0, 71, 0
2, 6168, Note_on_c, 0, 74, 88
2, 6192, Note_on_c, 0, 74, 0
2, 6192, Note_on_c, 0, 72, 88
2, 6216, Note_on_c, 0, 72, 0
2, 6216, Note_on_c, 0, 71, 88
2, 6240, Note_on_c, 0, 71, 0
2, 6240, Note_on_c, 0, 72, 88
2, 6264, Note_on_c, 0, 72, 0
2, 6264, Note_on_c, 0, 74, 88
2, 6288, Note_on_c, 0, 74, 0
2, 6288, Note_on_c, 0, 76, 88
2, 6312, Note_on_c, 0, 76, 0
2, 6312, Note_on_c, 0, 78, 88
2, 6336, Note_on_c, 0, 78, 0
2, 6336, Note_on_c, 0, 79, 88
2, 6432, Note_on_c, 0, 79, 0
2, 6432, Note_on_c, 0, 77, 88
2, 6480, Note_on_c, 0, 77, 0
2, 6480, Note_on_c, 0, 76, 88
2, 6504, Note_on_c, 0, 76, 0
2, 6504, Note_on_c, 0, 75, 88
2, 6528, Note_on_c, 0, 75, 0
2, 6528, Note_on_c, 0, 76, 88
2, 6624, Note_on_c, 0, 76, 0
2, 6648, Note_on_c, 0, 72, 88
2, 6669, Note_on_c, 0, 72, 0
2, 6672, Note_on_c, 0, 74, 88
2, 6693, Note_on_c, 0, 74, 0
2, 6696, Note_on_c, 0, 76, 88
2, 6717, Note_on_c, 0, 76, 0
2, 6720, Note_on_c, 0, 78, 88
2, 6768, Note_on_c, 0, 78, 0
2, 6768, Note_on_c, 0, 76, 88
2, 6816, Note_on_c, 0, 76, 0
2, 6816, Note_on_c, 0, 74, 88
2, 6864, Note_on_c, 0, 74, 0
2, 6864, Note_on_c, 0, 73, 88
2, 6912, Note_on_c, 0, 73, 0
2, 6912, Note_on_c, 0, 74, 88
2, 7008, Note_on_c, 0, 74, 0
2, 7032, Note_on_c, 0, 71, 88
2, 7053, Note_on_c, 0, 71, 0
2, 7056, Note_on_c, 0, 72, 88
2, 7077, Note_on_c, 0, 72, 0
2, 7080, Note_on_c, 0, 74, 88
2, 7101, Note_on_c, 0, 74, 0
2, 7104, Note_on_c, 0, 76, 88
2, 7152, Note_on_c, 0, 76, 0
2, 7152, Note_on_c, 0, 74, 88
2, 7200, Note_on_c, 0, 74, 0
2, 7200, Note_on_c, 0, 72, 88
2, 7248, Note_on_c, 0, 72, 0
2, 7248, Note_on_c, 0, 71, 88
2, 7296, Note_on_c, 0, 71, 0
2, 7296, Note_on_c, 0, 72, 88
2, 7392, Note_on_c, 0, 72, 0
2, 7416, Note_on_c, 0, 69, 88
2, 7437, Note_on_c, 0, 69, 0
2, 7440, Note_on_c, 0, 71, 88
2, 7461, Note_on_c, 0, 71, 0
2, 7464, Note_on_c, 0, 72, 88
2, 7485, Note_on_c, 0, 72, 0
2, 7488, Note_on_c, 0, 74, 88
2, 7536, Note_on_c, 0, 74, 0
2, 7536, Note_on_c, 0, 72, 88
2, 7584, Note_on_c, 0, 72, 0
2, 7584, Note_on_c, 0, 71, 88
2, 7632, Note_on_c, 0, 71, 0
2, 7632, Note_on_c, 0, 69, 88
2, 7680, Note_on_c, 0, 69, 0
2, 7680, Note_on_c, 0, 71, 88
2, 7752, Note_on_c, 0, 71, 0
2, 7752, Note_on_c, 0, 67, 88
2, 7776, Note_on_c, 0, 67, 0
2, 7776, Note_on_c, 0, 69, 88
2, 7788, Note_on_c, 0, 69, 0
2, 7788, Note_on_c, 0, 67, 88
2, 7800, Note_on_c, 0, 67, 0
2, 7800, Note_on_c, 0, 69, 88
2, 7812, Note_on_c, 0, 69, 0
2, 7812, Note_on_c, 0, 67, 88
2, 7824, Note_on_c, 0, 67, 0
2, 7824, Note_on_c, 0, 69, 88
2, 7836, Note_on_c, 0, 69, 0
2, 7836, Note_on_c, 0, 67, 88
2, 7848, Note_on_c, 0, 67, 0
2, 7848, Note_on_c, 0, 69, 88
2, 7860, Note_on_c, 0, 69, 0
2, 7860, Note_on_c, 0, 67, 88
2, 7872, Note_on_c, 0, 67, 0
2, 7872, Note_on_c, 0, 69, 88
2, 7884, Note_on_c, 0, 69, 0
2, 7884, Note_on_c, 0, 67, 88
2, 7896, Note_on_c, 0, 67, 0
2, 7896, Note_on_c, 0, 69, 88
2, 7908, Note_on_c, 0, 69, 0
2, 7908, Note_on_c, 0, 67, 88
2, 7920, Note_on_c, 0, 67, 0
2, 7920, Note_on_c, 0, 66, 88
2, 7941, Note_on_c, 0, 66, 0
2, 7944, Note_on_c, 0, 67, 88
2, 7965, Note_on_c, 0, 67, 0
2, 7968, Note_on_c, 0, 71, 88
2, 8040, Note_on_c, 0, 71, 0
2, 8040, Note_on_c, 0, 67, 88
2, 8064, Note_on_c, 0, 67, 0
2, 8064, Note_on_c, 0, 72, 88
2, 8136, Note_on_c, 0, 72, 0
2, 8136, Note_on_c, 0, 69, 88
2, 8160, Note_on_c, 0, 69, 0
2, 8160, Note_on_c, 0, 71, 88
2, 8172, Note_on_c, 0, 71, 0
2, 8172, Note_on_c, 0, 69, 88
2, 8184, Note_on_c, 0, 69, 0
2, 8184, Note_on_c, 0, 71, 88
2, 8196, Note_on_c, 0, 71, 0
2, 8196, Note_on_c, 0, 69, 88
2, 8208, Note_on_c, 0, 69, 0
2, 8208, Note_on_c, 0, 71, 88
2, 8220, Note_on_c, 0, 71, 0
2, 8220, Note_on_c, 0, 69, 88
2, 8232, Note_on_c, 0, 69, 0
2, 8232, Note_on_c, 0, 71, 88
2, 8244, Note_on_c, 0, 71, 0
2, 8244, Note_on_c, 0, 69, 88
2, 8256, Note_on_c, 0, 69, 0
2, 8256, Note_on_c, 0, 71, 88
2, 8268, Note_on_c, 0, 71, 0
2, 8268, Note_on_c, 0, 69, 88
2, 8280, Note_on_c, 0, 69, 0
2, 8280, Note_on_c, 0, 71, 88
2, 8292, Note_on_c, 0, 71, 0
2, 8292, Note_on_c, 0, 69, 88
2, 8304, Note_on_c, 0, 69, 0
2, 8304, Note_on_c, 0, 68, 88
2, 8325, Note_on_c, 0, 68, 0
2, 8328, Note_on_c, 0, 69, 88
2, 8349, Note_on_c, 0, 69, 0
2, 8352, Note_on_c, 0, 72, 88
2, 8424, Note_on_c, 0, 72, 0
2, 8424, Note_on_c, 0, 69, 88
2, 8448, Note_on_c, 0, 69, 0
2, 8448, Note_on_c, 0, 74, 88
2, 8520, Note_on_c, 0, 74, 0
2, 8520, Note_on_c, 0, 71, 88
2, 8544, Note_on_c, 0, 71, 0
2, 8544, Note_on_c, 0, 72, 88
2, 8556, Note_on_c, 0, 72, 0
2, 8556, Note_on_c, 0, 71, 88
2, 8568, Note_on_c, 0, 71, 0
2, 8568, Note_on_c, 0, 72, 88
2, 8580, Note_on_c, 0, 72, 0
2, 8580, Note_on_c, 0, 71, 88
2, 8592, Note_on_c, 0, 71, 0
2, 8592, Note_on_c, 0, 72, 88
2, 8604, Note_on_c, 0, 72, 0
2, 8604, Note_on_c, 0, 71, 88
2, 8616, Note_on_c, 0, 71, 0
2, 8616, Note_on_c, 0, 72, 88
2, 8628, Note_on_c, 0, 72, 0
2, 8628, Note_on_c, 0, 71, 88
2, 8640, Note_on_c, 0, 71, 0
2, 8640, Note_on_c, 0, 72, 88
2, 8652, Note_on_c, 0, 72, 0
2, 8652, Note_on_c, 0, 71, 88
2, 8664, Note_on_c, 0, 71, 0
2, 8664, Note_on_c, 0, 72, 88
2, 8676, Note_on_c, 0, 72, 0
2, 8676, Note_on_c, 0, 71, 88
2, 8688, Note_on_c, 0, 71, 0
2, 8688, Note_on_c, 0, 70, 88
2, 8709, Note_on_c, 0, 70, 0
2, 8712, Note_on_c, 0, 71, 88
2, 8733, Note_on_c, 0, 71, 0
2, 8736, Note_on_c, 0, 74, 88
2, 8808, Note_on_c, 0, 74, 0
2, 8808, Note_on_c, 0, 71, 88
2, 8832, Note_on_c, 0, 71, 0
2, 8832, Note_on_c, 0, 76, 88
2, 8904, Note_on_c, 0, 76, 0
2, 8904, Note_on_c, 0, 72, 88
2, 8928, Note_on_c, 0, 72, 0
2, 8928, Note_on_c, 0, 74, 88
2, 8940, Note_on_c, 0, 74, 0
2, 8940, Note_on_c, 0, 72, 88
2, 8952, Note_on_c, 0, 72, 0
2, 8952, Note_on_c, 0, 74, 88
2, 8964, Note_on_c, 0, 74, 0
2, 8964, Note_on_c, 0, 72, 88
2, 8976, Note_on_c, 0, 72, 0
2, 8976, Note_on_c, 0, 74, 88
2, 8988, Note_on_c, 0, 74, 0
2, 8988, Note_on_c, 0, 72, 88
2, 9000, Note_on_c, 0, 72, 0
2, 9000, Note_on_c, 0, 71, 88
2, 9010, Note_on_c, 0, 71, 0
2, 9012, Note_on_c, 0, 72, 88
2, 9022, Note_on_c, 0, 72, 0
2, 9024, Note_on_c, 0, 78, 88
2, 9096, Note_on_c, 0, 78, 0
2, 9096, Note_on_c, 0, 74, 88
2, 9120, Note_on_c, 0, 74, 0
2, 9120, Note_on_c, 0, 76, 88
2, 9132, Note_on_c, 0, 76, 0
2, 9132, Note_on_c, 0, 74, 88
2, 9144, Note_on_c, 0, 74, 0
2, 9144, Note_on_c, 0, 76, 88
2, 9156, Note_on_c, 0, 76, 0
2, 9156, Note_on_c, 0, 74, 88
2, 9168, Note_on_c, 0, 74, 0
2, 9168, Note_on_c, 0, 76, 88
2, 9180, Note_on_c, 0, 76, 0
2, 9180, Note_on_c, 0, 74, 88
2, 9192, Note_on_c, 0, 74, 0
2, 9192, Note_on_c, 0, 72, 88
2, 9202, Note_on_c, 0, 72, 0
2, 9204, Note_on_c, 0, 74, 88
2, 9214, Note_on_c, 0, 74, 0
2, 9216, Note_on_c, 0, 79, 88
2, 9237, Note_on_c, 0, 79, 0
2, 9240, Note_on_c, 0, 76, 88
2, 9261, Note_on_c, 0, 76, 0
2, 9264, Note_on_c, 0, 78, 88
2, 9285, Note_on_c, 0, 78, 0
2, 9288, Note_on_c, 0, 74, 88
2, 9309, Note_on_c, 0, 74, 0
2, 9312, Note_on_c, 0, 78, 88
2, 9333, Note_on_c, 0, 78, 0
2, 9336, Note_on_c, 0, 76, 88
2, 9357, Note_on_c, 0, 76, 0
2, 9360, Note_on_c, 0, 78, 88
2, 9381, Note_on_c, 0, 78, 0
2, 9384, Note_on_c, 0, 76, 88
2, 9405, Note_on_c, 0, 76, 0
2, 9408, Note_on_c, 0, 81, 88
2, 9429, Note_on_c, 0, 81, 0
2, 9432, Note_on_c, 0, 78, 88
2, 9453, Note_on_c, 0, 78, 0
2, 9456, Note_on_c, 0, 79, 88
2, 9477, Note_on_c, 0, 79, 0
2, 9480, Note_on_c, 0, 78, 88
2, 9501, Note_on_c, 0, 78, 0
2, 9504, Note_on_c, 0, 79, 88
2, 9525, Note_on_c, 0, 79, 0
2, 9528, Note_on_c, 0, 78, 88
2, 9549, Note_on_c, 0, 78, 0
2, 9552, Note_on_c, 0, 79, 88
2, 9573, Note_on_c, 0, 79, 0
2, 9576, Note_on_c, 0, 78, 88
2, 9597, Note_on_c, 0, 78, 0
2, 9600, Note_on_c, 0, 83, 88
2, 9686, Note_on_c, 0, 83, 0
2, 9792, Note_on_c, 0, 59, 88
2, 9964, Note_on_c, 0, 59, 0
2, 9984, Note_on_c, 0, 57, 88
2, 10329, Note_on_c, 0, 57, 0
2, 10368, Note_on_c, 0, 79, 88
2, 10608, Note_on_c, 0, 79, 0
2, 10608, Note_on_c, 0, 78, 88
2, 10656, Note_on_c, 0, 78, 0
2, 10656, Note_on_c, 0, 78, 88
2, 10704, Note_on_c, 0, 78, 0
2, 10704, Note_on_c, 0, 76, 88
2, 10747, Note_on_c, 0, 76, 0
2, 10752, Note_on_c, 0, 74, 88
2, 10992, Note_on_c, 0, 74, 0
2, 10992, Note_on_c, 0, 73, 88
2, 11040, Note_on_c, 0, 73, 0
2, 11040, Note_on_c, 0, 72, 88
2, 11088, Note_on_c, 0, 72, 0
2, 11088, Note_on_c, 0, 71, 88
2, 11136, Note_on_c, 0, 71, 0
2, 11136, Note_on_c, 0, 71, 88
2, 11148, Note_on_c, 0, 71, 0
2, 11148, Note_on_c, 0, 69, 88
2, 11160, Note_on_c, 0, 69, 0
2, 11160, Note_on_c, 0, 71, 88
2, 11172, Note_on_c, 0, 71, 0
2, 11172, Note_on_c, 0, 69, 88
2, 11184, Note_on_c, 0, 69, 0
2, 11184, Note_on_c, 0, 71, 88
2, 11196, Note_on_c, 0, 71, 0
2, 11196, Note_on_c, 0, 69, 88
2, 11208, Note_on_c, 0, 69, 0
2, 11208, Note_on_c, 0, 71, 88
2, 11220, Note_on_c, 0, 71, 0
2, 11220, Note_on_c, 0, 69, 88
2, 11232, Note_on_c, 0, 69, 0
2, 11232, Note_on_c, 0, 71, 88
2, 11244, Note_on_c, 0, 71, 0
2, 11244, Note_on_c, 0, 69, 88
2, 11256, Note_on_c, 0, 69, 0
2, 11256, Note_on_c, 0, 71, 88
2, 11268, Note_on_c, 0, 71, 0
2, 11268, Note_on_c, 0, 69, 88
2, 11280, Note_on_c, 0, 69, 0
2, 11280, Note_on_c, 0, 71, 88
2, 11292, Note_on_c, 0, 71, 0
2, 11292, Note_on_c, 0, 69, 88
2, 11304, Note_on_c, 0, 69, 0
2, 11304, Note_on_c, 0, 71, 88
2, 11316, Note_on_c, 0, 71, 0
2, 11316, Note_on_c, 0, 69, 88
2, 11328, Note_on_c, 0, 69, 0
2, 11328, Note_on_c, 0, 71, 88
2, 11340, Note_on_c, 0, 71, 0
2, 11340, Note_on_c, 0, 69, 88
2, 11352, Note_on_c, 0, 69, 0
2, 11352, Note_on_c, 0, 71, 88
2, 11364, Note_on_c, 0, 71, 0
2, 11364, Note_on_c, 0, 69, 88
2, 11376, Note_on_c, 0, 69, 0
2, 11376, Note_on_c, 0, 71, 88
2, 11388, Note_on_c, 0, 71, 0
2, 11388, Note_on_c, 0, 69, 88
2, 11400, Note_on_c, 0, 69, 0
2, 11400, Note_on_c, 0, 71, 88
2, 11412, Note_on_c, 0, 71, 0
2, 11412, Note_on_c, 0, 69, 88
2, 11424, Note_on_c, 0, 69, 0
2, 11424, Note_on_c, 0, 71, 88
2, 11436, Note_on_c, 0, 71, 0
2, 11436, Note_on_c, 0, 69, 88
2, 11448, Note_on_c, 0, 69, 0
2, 11448, Note_on_c, 0, 71, 88
2, 11460, Note_on_c, 0, 71, 0
2, 11460, Note_on_c, 0, 69, 88
2, 11472, Note_on_c, 0, 69, 0
2, 11472, Note_on_c, 0, 67, 88
2, 11493, Note_on_c, 0, 67, 0
2, 11496, Note_on_c, 0, 69, 88
2, 11517, Note_on_c, 0, 69, 0
2, 11520, Note_on_c, 0, 83, 88
2, 11616, Note_on_c, 0, 83, 0
2, 11616, Note_on_c, 0, 79, 88
2, 11712, Note_on_c, 0, 79, 0
2, 11760, Note_on_c, 0, 79, 88
2, 11808, Note_on_c, 0, 79, 0
2, 11808, Note_on_c, 0, 78, 88
2, 11856, Note_on_c, 0, 78, 0
2, 11856, Note_on_c, 0, 76, 88
2, 11904, Note_on_c, 0, 76, 0
2, 11904, Note_on_c, 0, 76, 88
2, 11952, Note_on_c, 0, 76, 0
2, 11952, Note_on_c, 0, 74, 88
2, 12048, Note_on_c, 0, 74, 0
2, 12048, Note_on_c, 0, 71, 88
2, 12091, Note_on_c, 0, 71, 0
2, 12096, Note_on_c, 0, 74, 88
2, 12144, Note_on_c, 0, 74, 0
2, 12144, Note_on_c, 0, 72, 88
2, 12240, Note_on_c, 0, 72, 0
2, 12240, Note_on_c, 0, 69, 88
2, 12283, Note_on_c, 0, 69, 0
2, 12288, Note_on_c, 0, 83, 88
2, 12384, Note_on_c, 0, 83, 0
2, 12384, Note_on_c, 0, 79, 88
2, 12480, Note_on_c, 0, 79, 0
2, 12528, Note_on_c, 0, 79, 88
2, 12576, Note_on_c, 0, 79, 0
2, 12576, Note_on_c, 0, 78, 88
2, 12624, Note_on_c, 0, 78, 0
2, 12624, Note_on_c, 0, 76, 88
2, 12672, Note_on_c, 0, 76, 0
2, 12672, Note_on_c, 0, 76, 88
2, 12720, Note_on_c, 0, 76, 0
2, 12720, Note_on_c, 0, 74, 88
2, 12816, Note_on_c, 0, 74, 0
2, 12816, Note_on_c, 0, 71, 88
2, 12859, Note_on_c, 0, 71, 0
2, 12864, Note_on_c, 0, 74, 88
2, 12912, Note_on_c, 0, 74, 0
2, 12912, Note_on_c, 0, 72, 88
2, 13008, Note_on_c, 0, 72, 0
2, 13008, Note_on_c, 0, 69, 88
2, 13051, Note_on_c, 0, 69, 0
2, 13056, Note_on_c, 0, 83, 88
2, 13440, Note_on_c, 0, 83, 0
2, 13440, Note_on_c, 0, 82, 88
2, 13728, Note_on_c, 0, 82, 0
2, 13776, Note_on_c, 0, 82, 88
2, 13819, Note_on_c, 0, 82, 0
2, 13824, Note_on_c, 0, 83, 88
2, 13920, Note_on_c, 0, 83, 0
2, 13920, Note_on_c, 0, 78, 88
2, 14016, Note_on_c, 0, 78, 0
2, 14016, Note_on_c, 0, 79, 88
2, 14064, Note_on_c, 0, 79, 0
2, 14064, Note_on_c, 0, 74, 88
2, 14112, Note_on_c, 0, 74, 0
2, 14112, Note_on_c, 0, 76, 88
2, 14160, Note_on_c, 0, 76, 0
2, 14160, Note_on_c, 0, 72, 88
2, 14208, Note_on_c, 0, 72, 0
2, 14208, Note_on_c, 0, 71, 88
2, 14294, Note_on_c, 0, 71, 0
2, 14352, Note_on_c, 0, 74, 88
2, 14358, Note_on_c, 0, 74, 0
2, 14358, Note_on_c, 0, 73, 88
2, 14364, Note_on_c, 0, 73, 0
2, 14364, Note_on_c, 0, 74, 88
2, 14370, Note_on_c, 0, 74, 0
2, 14370, Note_on_c, 0, 73, 88
2, 14376, Note_on_c, 0, 73, 0
2, 14376, Note_on_c, 0, 71, 88
2, 14388, Note_on_c, 0, 71, 0
2, 14388, Note_on_c, 0, 73, 88
2, 14400, Note_on_c, 0, 73, 0
2, 14400, Note_on_c, 0, 74, 88
2, 14496, Note_on_c, 0, 74, 0
2, 14544, Note_on_c, 0, 74, 88
2, 14550, Note_on_c, 0, 74, 0
2, 14550, Note_on_c, 0, 73, 88
2, 14556, Note_on_c, 0, 73, 0
2, 14556, Note_on_c, 0, 74, 88
2, 14562, Note_on_c, 0, 74, 0
2, 14562, Note_on_c, 0, 73, 88
2, 14568, Note_on_c, 0, 73, 0
2, 14568, Note_on_c, 0, 71, 88
2, 14580, Note_on_c, 0, 71, 0
2, 14580, Note_on_c, 0, 73, 88
2, 14592, Note_on_c, 0, 73, 0
2, 14592, Note_on_c, 0, 74, 88
2, 14688, Note_on_c, 0, 74, 0
2, 14736, Note_on_c, 0, 74, 88
2, 14742, Note_on_c, 0, 74, 0
2, 14742, Note_on_c, 0, 73, 88
2, 14748, Note_on_c, 0, 73, 0
2, 14748, Note_on_c, 0, 74, 88
2, 14754, Note_on_c, 0, 74, 0
2, 14754, Note_on_c, 0, 73, 88
2, 14760, Note_on_c, 0, 73, 0
2, 14760, Note_on_c, 0, 71, 88
2, 14772, Note_on_c, 0, 71, 0
2, 14772, Note_on_c, 0, 73, 88
2, 14784, Note_on_c, 0, 73, 0
2, 14784, Note_on_c, 0, 74, 88
2, 14832, Note_on_c, 0, 74, 0
2, 14832, Note_on_c, 0, 74, 88
2, 14838, Note_on_c, 0, 74, 0
2, 14838, Note_on_c, 0, 73, 88
2, 14844, Note_on_c, 0, 73, 0
2, 14844, Note_on_c, 0, 74, 88
2, 14850, Note_on_c, 0, 74, 0
2, 14850, Note_on_c, 0, 73, 88
2, 14856, Note_on_c, 0, 73, 0
2, 14856, Note_on_c, 0, 71, 88
2, 14868, Note_on_c, 0, 71, 0
2, 14868, Note_on_c, 0, 73, 88
2, 14880, Note_on_c, 0, 73, 0
2, 14880, Note_on_c, 0, 74, 88
2, 14928, Note_on_c, 0, 74, 0
2, 14928, Note_on_c, 0, 74, 88
2, 14934, Note_on_c, 0, 74, 0
2, 14934, Note_on_c, 0, 73, 88
2, 14940, Note_on_c, 0, 73, 0
2, 14940, Note_on_c, 0, 74, 88
2, 14946, Note_on_c, 0, 74, 0
2, 14946, Note_on_c, 0, 73, 88
2, 14952, Note_on_c, 0, 73, 0
2, 14952, Note_on_c, 0, 71, 88
2, 14964, Note_on_c, 0, 71, 0
2, 14964, Note_on_c, 0, 73, 88
2, 14976, Note_on_c, 0, 73, 0
2, 14976, Note_on_c, 0, 74, 88
2, 15024, Note_on_c, 0, 74, 0
2, 15024, Note_on_c, 0, 71, 88
2, 15072, Note_on_c, 0, 71, 0
2, 15072, Note_on_c, 0, 79, 88
2, 15120, Note_on_c, 0, 79, 0
2, 15120, Note_on_c, 0, 79, 88
2, 15144, Note_on_c, 0, 79, 0
2, 15168, Note_on_c, 0, 79, 88
2, 15216, Note_on_c, 0, 79, 0
2, 15216, Note_on_c, 0, 74, 88
2, 15264, Note_on_c, 0, 74, 0
2, 15264, Note_on_c, 0, 83, 88
2, 15312, Note_on_c, 0, 83, 0
2, 15312, Note_on_c, 0, 83, 88
2, 15336, Note_on_c, 0, 83, 0
2, 15360, Note_on_c, 0, 83, 88
2, 15403, Note_on_c, 0, 83, 0
2, 15408, Note_on_c, 0, 79, 88
2, 15451, Note_on_c, 0, 79, 0
2, 15456, Note_on_c, 0, 74, 88
2, 15499, Note_on_c, 0, 74, 0
2, 15504, Note_on_c, 0, 71, 88
2, 15547, Note_on_c, 0, 71, 0
2, 15552, Note_on_c, 0, 79, 88
2, 15595, Note_on_c, 0, 79, 0
2, 15600, Note_on_c, 0, 74, 88
2, 15643, Note_on_c, 0, 74, 0
2, 15648, Note_on_c, 0, 71, 88
2, 15691, Note_on_c, 0, 71, 0
2, 15696, Note_on_c, 0, 67, 88
2, 15739, Note_on_c, 0, 67, 0
2, 15744, Note_on_c, 0, 62, 88
2, 15873, Note_on_c, 0, 62, 0
2, 15888, Note_on_c, 0, 64, 88
2, 15909, Note_on_c, 0, 64, 0
2, 15912, Note_on_c, 0, 66, 88
2, 15933, Note_on_c, 0, 66, 0
2, 15936, Note_on_c, 0, 67, 88
2, 15957, Note_on_c, 0, 67, 0
2, 15960, Note_on_c, 0, 69, 88
2, 15981, Note_on_c, 0, 69, 0
2, 15984, Note_on_c, 0, 71, 88
2, 16005, Note_on_c, 0, 71, 0
2, 16008, Note_on_c, 0, 72, 88
2, 16029, Note_on_c, 0, 72, 0
2, 16032, Note_on_c, 0, 74, 88
2, 16053, Note_on_c, 0, 74, 0
2, 16056, Note_on_c, 0, 76, 88
2, 16077, Note_on_c, 0, 76, 0
2, 16080, Note_on_c, 0, 78, 88
2, 16101, Note_on_c, 0, 78, 0
2, 16104, Note_on_c, 0, 79, 88
2, 16125, Note_on_c, 0, 79, 0
2, 16128, Note_on_c, 0, 71, 88
2, 16140, Note_on_c, 0, 71, 0
2, 16140, Note_on_c, 0, 69, 88
2, 16152, Note_on_c, 0, 69, 0
2, 16152, Note_on_c, 0, 71, 88
2, 16164, Note_on_c, 0, 71, 0
2, 16164, Note_on_c, 0, 69, 88
2, 16176, Note_on_c, 0, 69, 0
2, 16176, Note_on_c, 0, 71, 88
2, 16188, Note_on_c, 0, 71, 0
2, 16188, Note_on_c, 0, 69, 88
2, 16200, Note_on_c, 0, 69, 0
2, 16200, Note_on_c, 0, 71, 88
2, 16212, Note_on_c, 0, 71, 0
2, 16212, Note_on_c, 0, 69, 88
2, 16224, Note_on_c, 0, 69, 0
2, 16224, Note_on_c, 0, 71, 88
2, 16236, Note_on_c, 0, 71, 0
2, 16236, Note_on_c, 0, 69, 88
2, 16248, Note_on_c, 0, 69, 0
2, 16248, Note_on_c, 0, 71, 88
2, 16260, Note_on_c, 0, 71, 0
2, 16260, Note_on_c, 0, 69, 88
2, 16272, Note_on_c, 0, 69, 0
2, 16272, Note_on_c, 0, 71, 88
2, 16284, Note_on_c, 0, 71, 0
2, 16284, Note_on_c, 0, 69, 88
2, 16296, Note_on_c, 0, 69, 0
2, 16296, Note_on_c, 0, 71, 88
2, 16308, Note_on_c, 0, 71, 0
2, 16308, Note_on_c, 0, 69, 88
2, 16320, Note_on_c, 0, 69, 0
2, 16320, Note_on_c, 0, 71, 88
2, 16332, Note_on_c, 0, 71, 0
2, 16332, Note_on_c, 0, 69, 88
2, 16344, Note_on_c, 0, 69, 0
2, 16344, Note_on_c, 0, 71, 88
2, 16356, Note_on_c, 0, 71, 0
2, 16356, Note_on_c, 0, 69, 88
2, 16368, Note_on_c, 0, 69, 0
2, 16368, Note_on_c, 0, 71, 88
2, 16380, Note_on_c, 0, 71, 0
2, 16380, Note_on_c, 0, 69, 88
2, 16392, Note_on_c, 0, 69, 0
2, 16392, Note_on_c, 0, 71, 88
2, 16404, Note_on_c, 0, 71, 0
2, 16404, Note_on_c, 0, 69, 88
2, 16416, Note_on_c, 0, 69, 0
2, 16416, Note_on_c, 0, 71, 88
2, 16428, Note_on_c, 0, 71, 0
2, 16428, Note_on_c, 0, 69, 88
2, 16440, Note_on_c, 0, 69, 0
2, 16440, Note_on_c, 0, 71, 88
2, 16452, Note_on_c, 0, 71, 0
2, 16452, Note_on_c, 0, 69, 88
2, 16464, Note_on_c, 0, 69, 0
2, 16464, Note_on_c, 0, 67, 88
2, 16485, Note_on_c, 0, 67, 0
2, 16488, Note_on_c, 0, 69, 88
2, 16509, Note_on_c, 0, 69, 0
2, 16512, Note_on_c, 0, 67, 88
2, 16598, Note_on_c, 0, 67, 0
2, 16896, Note_on_c, 0, 60, 88
2, 16939, Note_on_c, 0, 60, 0
2, 16944, Note_on_c, 0, 62, 88
2, 16965, Note_on_c, 0, 62, 0
2, 16968, Note_on_c, 0, 64, 88
2, 16989, Note_on_c, 0, 64, 0
2, 16992, Note_on_c, 0, 65, 88
2, 17013, Note_on_c, 0, 65, 0
2, 17016, Note_on_c, 0, 67, 88
2, 17037, Note_on_c, 0, 67, 0
2, 17040, Note_on_c, 0, 69, 88
2, 17061, Note_on_c, 0, 69, 0
2, 17064, Note_on_c, 0, 71, 88
2, 17085, Note_on_c, 0, 71, 0
2, 17088, Note_on_c, 0, 72, 88
2, 17109, Note_on_c, 0, 72, 0
2, 17112, Note_on_c, 0, 71, 88
2, 17133, Note_on_c, 0, 71, 0
2, 17136, Note_on_c, 0, 69, 88
2, 17157, Note_on_c, 0, 69, 0
2, 17160, Note_on_c, 0, 67, 88
2, 17181, Note_on_c, 0, 67, 0
2, 17184, Note_on_c, 0, 65, 88
2, 17205, Note_on_c, 0, 65, 0
2, 17208, Note_on_c, 0, 64, 88
2, 17229, Note_on_c, 0, 64, 0
2, 17232, Note_on_c, 0, 62, 88
2, 17253, Note_on_c, 0, 62, 0
2, 17256, Note_on_c, 0, 60, 88
2, 17277, Note_on_c, 0, 60, 0
2, 17280, Note_on_c, 0, 62, 88
2, 17323, Note_on_c, 0, 62, 0
2, 17328, Note_on_c, 0, 64, 88
2, 17349, Note_on_c, 0, 64, 0
2, 17352, Note_on_c, 0, 65, 88
2, 17373, Note_on_c, 0, 65, 0
2, 17376, Note_on_c, 0, 67, 88
2, 17397, Note_on_c, 0, 67, 0
2, 17400, Note_on_c, 0, 69, 88
2, 17421, Note_on_c, 0, 69, 0
2, 17424, Note_on_c, 0, 71, 88
2, 17445, Note_on_c, 0, 71, 0
2, 17448, Note_on_c, 0, 72, 88
2, 17469, Note_on_c, 0, 72, 0
2, 17472, Note_on_c, 0, 74, 88
2, 17558, Note_on_c, 0, 74, 0
2, 17664, Note_on_c, 0, 62, 88
2, 17707, Note_on_c, 0, 62, 0
2, 17712, Note_on_c, 0, 64, 88
2, 17733, Note_on_c, 0, 64, 0
2, 17736, Note_on_c, 0, 65, 88
2, 17757, Note_on_c, 0, 65, 0
2, 17760, Note_on_c, 0, 67, 88
2, 17781, Note_on_c, 0, 67, 0
2, 17784, Note_on_c, 0, 69, 88
2, 17805, Note_on_c, 0, 69, 0
2, 17808, Note_on_c, 0, 71, 88
2, 17829, Note_on_c, 0, 71, 0
2, 17832, Note_on_c, 0, 72, 88
2, 17853, Note_on_c, 0, 72, 0
2, 17856, Note_on_c, 0, 74, 88
2, 17877, Note_on_c, 0, 74, 0
2, 17880, Note_on_c, 0, 72, 88
2, 17901, Note_on_c, 0, 72, 0
2, 17904, Note_on_c, 0, 71, 88
2, 17925, Note_on_c, 0, 71, 0
2, 17928, Note_on_c, 0, 69, 88
2, 17949, Note_on_c, 0, 69, 0
2, 17952, Note_on_c, 0, 67, 88
2, 17973, Note_on_c, 0, 67, 0
2, 17976, Note_on_c, 0, 65, 88
2, 17997, Note_on_c, 0, 65, 0
2, 18000, Note_on_c, 0, 64, 88
2, 18021, Note_on_c, 0, 64, 0
2, 18024, Note_on_c, 0, 62, 88
2, 18045, Note_on_c, 0, 62, 0
2, 18048, Note_on_c, 0, 64, 88
2, 18091, Note_on_c, 0, 64, 0
2, 18096, Note_on_c, 0, 65, 88
2, 18117, Note_on_c, 0, 65, 0
2, 18120, Note_on_c, 0, 67, 88
2, 18141, Note_on_c, 0, 67, 0
2, 18144, Note_on_c, 0, 69, 88
2, 18165, Note_on_c, 0, 69, 0
2, 18168, Note_on_c, 0, 71, 88
2, 18189, Note_on_c, 0, 71, 0
2, 18192, Note_on_c, 0, 72, 88
2, 18213, Note_on_c, 0, 72, 0
2, 18216, Note_on_c, 0, 74, 88
2, 18237, Note_on_c, 0, 74, 0
2, 18240, Note_on_c, 0, 76, 88
2, 18326, Note_on_c, 0, 76, 0
2, 18432, Note_on_c, 0, 76, 88
2, 18453, Note_on_c, 0, 76, 0
2, 18456, Note_on_c, 0, 74, 88
2, 18477, Note_on_c, 0, 74, 0
2, 18480, Note_on_c, 0, 72, 88
2, 18501, Note_on_c, 0, 72, 0
2, 18504, Note_on_c, 0, 71, 88
2, 18525, Note_on_c, 0, 71, 0
2, 18528, Note_on_c, 0, 69, 88
2, 18549, Note_on_c, 0, 69, 0
2, 18552, Note_on_c, 0, 67, 88
2, 18573, Note_on_c, 0, 67, 0
2, 18576, Note_on_c, 0, 65, 88
2, 18597, Note_on_c, 0, 65, 0
2, 18600, Note_on_c, 0, 64, 88
2, 18621, Note_on_c, 0, 64, 0
2, 18624, Note_on_c, 0, 65, 88
2, 18667, Note_on_c, 0, 65, 0
2, 18672, Note_on_c, 0, 67, 88
2, 18693, Note_on_c, 0, 67, 0
2, 18696, Note_on_c, 0, 69, 88
2, 18717, Note_on_c, 0, 69, 0
2, 18720, Note_on_c, 0, 71, 88
2, 18741, Note_on_c, 0, 71, 0
2, 18744, Note_on_c, 0, 72, 88
2, 18765, Note_on_c, 0, 72, 0
2, 18768, Note_on_c, 0, 74, 88
2, 18789, Note_on_c, 0, 74, 0
2, 18792, Note_on_c, 0, 76, 88
2, 18813, Note_on_c, 0, 76, 0
2, 18816, Note_on_c, 0, 77, 88
2, 18837, Note_on_c, 0, 77, 0
2, 18840, Note_on_c, 0, 76, 88
2, 18861, Note_on_c, 0, 76, 0
2, 18864, Note_on_c, 0, 74, 88
2, 18885, Note_on_c, 0, 74, 0
2, 18888, Note_on_c, 0, 72, 88
2, 18909, Note_on_c, 0, 72, 0
2, 18912, Note_on_c, 0, 71, 88
2, 18933, Note_on_c, 0, 71, 0
2, 18936, Note_on_c, 0, 69, 88
2, 18957, Note_on_c, 0, 69, 0
2, 18960, Note_on_c, 0, 67, 88
2, 18981, Note_on_c, 0, 67, 0
2, 18984, Note_on_c, 0, 65, 88
2, 19005, Note_on_c, 0, 65, 0
2, 19008, Note_on_c, 0, 67, 88
2, 19051, Note_on_c, 0, 67, 0
2, 19056, Note_on_c, 0, 69, 88
2, 19077, Note_on_c, 0, 69, 0
2, 19080, Note_on_c, 0, 71, 88
2, 19101, Note_on_c, 0, 71, 0
2, 19104, Note_on_c, 0, 72, 88
2, 19125, Note_on_c, 0, 72, 0
2, 19128, Note_on_c, 0, 74, 88
2, 19149, Note_on_c, 0, 74, 0
2, 19152, Note_on_c, 0, 76, 88
2, 19173, Note_on_c, 0, 76, 0
2, 19176, Note_on_c, 0, 77, 88
2, 19197, Note_on_c, 0, 77, 0
2, 19200, Note_on_c, 0, 79, 88
2, 19221, Note_on_c, 0, 79, 0
2, 19224, Note_on_c, 0, 77, 88
2, 19245, Note_on_c, 0, 77, 0
2, 19248, Note_on_c, 0, 76, 88
2, 19269, Note_on_c, 0, 76, 0
2, 19272, Note_on_c, 0, 74, 88
2, 19293, Note_on_c, 0, 74, 0
2, 19296, Note_on_c, 0, 72, 88
2, 19317, Note_on_c, 0, 72, 0
2, 19320, Note_on_c, 0, 71, 88
2, 19341, Note_on_c, 0, 71, 0
2, 19344, Note_on_c, 0, 69, 88
2, 19365, Note_on_c, 0, 69, 0
2, 19368, Note_on_c, 0, 67, 88
2, 19389, Note_on_c, 0, 67, 0
2, 19392, Note_on_c, 0, 69, 88
2, 19435, Note_on_c, 0, 69, 0
2, 19440, Note_on_c, 0, 71, 88
2, 19461, Note_on_c, 0, 71, 0
2, 19464, Note_on_c, 0, 72, 88
2, 19485, Note_on_c, 0, 72, 0
2, 19488, Note_on_c, 0, 74, 88
2, 19509, Note_on_c, 0, 74, 0
2, 19512, Note_on_c, 0, 76, 88
2, 19533, Note_on_c, 0, 76, 0
2, 19536, Note_on_c, 0, 77, 88
2, 19557, Note_on_c, 0, 77, 0
2, 19560, Note_on_c, 0, 79, 88
2, 19581, Note_on_c, 0, 79, 0
2, 19584, Note_on_c, 0, 81, 88
2, 19605, Note_on_c, 0, 81, 0
2, 19608, Note_on_c, 0, 79, 88
2, 19629, Note_on_c, 0, 79, 0
2, 19632, Note_on_c, 0, 77, 88
2, 19653, Note_on_c, 0, 77, 0
2, 19656, Note_on_c, 0, 76, 88
2, 19677, Note_on_c, 0, 76, 0
2, 19680, Note_on_c, 0, 77, 88
2, 19701, Note_on_c, 0, 77, 0
2, 19704, Note_on_c, 0, 76, 88
2, 19725, Note_on_c, 0, 76, 0
2, 19728, Note_on_c, 0, 74, 88
2, 19749, Note_on_c, 0, 74, 0
2, 19752, Note_on_c, 0, 72, 88
2, 19773, Note_on_c, 0, 72, 0
2, 19776, Note_on_c, 0, 71, 88
2, 19862, Note_on_c, 0, 71, 0
2, 19968, Note_on_c, 0, 74, 88
2, 19989, Note_on_c, 0, 74, 0
2, 19992, Note_on_c, 0, 72, 88
2, 20013, Note_on_c, 0, 72, 0
2, 20016, Note_on_c, 0, 71, 88
2, 20037, Note_on_c, 0, 71, 0
2, 20040, Note_on_c, 0, 69, 88
2, 20061, Note_on_c, 0, 69, 0
2, 20064, Note_on_c, 0, 67, 88
2, 20085, Note_on_c, 0, 67, 0
2, 20088, Note_on_c, 0, 65, 88
2, 20109, Note_on_c, 0, 65, 0
2, 20112, Note_on_c, 0, 64, 88
2, 20133, Note_on_c, 0, 64, 0
2, 20136, Note_on_c, 0, 62, 88
2, 20157, Note_on_c, 0, 62, 0
2, 20160, Note_on_c, 0, 64, 88
2, 20203, Note_on_c, 0, 64, 0
2, 20208, Note_on_c, 0, 66, 88
2, 20229, Note_on_c, 0, 66, 0
2, 20232, Note_on_c, 0, 67, 88
2, 20253, Note_on_c, 0, 67, 0
2, 20256, Note_on_c, 0, 69, 88
2, 20277, Note_on_c, 0, 69, 0
2, 20280, Note_on_c, 0, 71, 88
2, 20301, Note_on_c, 0, 71, 0
2, 20304, Note_on_c, 0, 72, 88
2, 20325, Note_on_c, 0, 72, 0
2, 20328, Note_on_c, 0, 74, 88
2, 20349, Note_on_c, 0, 74, 0
2, 20352, Note_on_c, 0, 76, 88
2, 20373, Note_on_c, 0, 76, 0
2, 20376, Note_on_c, 0, 74, 88
2, 20397, Note_on_c, 0, 74, 0
2, 20400, Note_on_c, 0, 73, 88
2, 20421, Note_on_c, 0, 73, 0
2, 20424, Note_on_c, 0, 71, 88
2, 20445, Note_on_c, 0, 71, 0
2, 20448, Note_on_c, 0, 69, 88
2, 20469, Note_on_c, 0, 69, 0
2, 20472, Note_on_c, 0, 67, 88
2, 20493, Note_on_c, 0, 67, 0
2, 20496, Note_on_c, 0, 66, 88
2, 20517, Note_on_c, 0, 66, 0
2, 20520, Note_on_c, 0, 64, 88
2, 20541, Note_on_c, 0, 64, 0
2, 20544, Note_on_c, 0, 66, 88
2, 20587, Note_on_c, 0, 66, 0
2, 20592, Note_on_c, 0, 67, 88
2, 20613, Note_on_c, 0, 67, 0
2, 20616, Note_on_c, 0, 69, 88
2, 20637, Note_on_c, 0, 69, 0
2, 20640, Note_on_c, 0, 71, 88
2, 20661, Note_on_c, 0, 71, 0
2, 20664, Note_on_c, 0, 73, 88
2, 20685, Note_on_c, 0, 73, 0
2, 20688, Note_on_c, 0, 74, 88
2, 20709, Note_on_c, 0, 74, 0
2, 20712, Note_on_c, 0, 76, 88
2, 20733, Note_on_c, 0, 76, 0
2, 20736, Note_on_c, 0, 78, 88
2, 20757, Note_on_c, 0, 78, 0
2, 20760, Note_on_c, 0, 76, 88
2, 20781, Note_on_c, 0, 76, 0
2, 20784, Note_on_c, 0, 75, 88
2, 20805, Note_on_c, 0, 75, 0
2, 20808, Note_on_c, 0, 72, 88
2, 20829, Note_on_c, 0, 72, 0
2, 20832, Note_on_c, 0, 71, 88
2, 20853, Note_on_c, 0, 71, 0
2, 20856, Note_on_c, 0, 69, 88
2, 20877, Note_on_c, 0, 69, 0
2, 20880, Note_on_c, 0, 67, 88
2, 20901, Note_on_c, 0, 67, 0
2, 20904, Note_on_c, 0, 66, 88
2, 20925, Note_on_c, 0, 66, 0
2, 20928, Note_on_c, 0, 67, 88
2, 20971, Note_on_c, 0, 67, 0
2, 20976, Note_on_c, 0, 69, 88
2, 20997, Note_on_c, 0, 69, 0
2, 21000, Note_on_c, 0, 71, 88
2, 21021, Note_on_c, 0, 71, 0
2, 21024, Note_on_c, 0, 72, 88
2, 21045, Note_on_c, 0, 72, 0
2, 21048, Note_on_c, 0, 75, 88
2, 21069, Note_on_c, 0, 75, 0
2, 21072, Note_on_c, 0, 76, 88
2, 21093, Note_on_c, 0, 76, 0
2, 21096, Note_on_c, 0, 78, 88
2, 21117, Note_on_c, 0, 78, 0
2, 21120, Note_on_c, 0, 79, 88
2, 21141, Note_on_c, 0, 79, 0
2, 21144, Note_on_c, 0, 78, 88
2, 21165, Note_on_c, 0, 78, 0
2, 21168, Note_on_c, 0, 76, 88
2, 21189, Note_on_c, 0, 76, 0
2, 21192, Note_on_c, 0, 74, 88
2, 21213, Note_on_c, 0, 74, 0
2, 21216, Note_on_c, 0, 72, 88
2, 21237, Note_on_c, 0, 72, 0
2, 21240, Note_on_c, 0, 71, 88
2, 21261, Note_on_c, 0, 71, 0
2, 21264, Note_on_c, 0, 69, 88
2, 21285, Note_on_c, 0, 69, 0
2, 21288, Note_on_c, 0, 67, 88
2, 21309, Note_on_c, 0, 67, 0
2, 21312, Note_on_c, 0, 69, 88
2, 21355, Note_on_c, 0, 69, 0
2, 21360, Note_on_c, 0, 71, 88
2, 21381, Note_on_c, 0, 71, 0
2, 21384, Note_on_c, 0, 72, 88
2, 21405, Note_on_c, 0, 72, 0
2, 21408, Note_on_c, 0, 74, 88
2, 21429, Note_on_c, 0, 74, 0
2, 21432, Note_on_c, 0, 76, 88
2, 21453, Note_on_c, 0, 76, 0
2, 21456, Note_on_c, 0, 78, 88
2, 21477, Note_on_c, 0, 78, 0
2, 21480, Note_on_c, 0, 79, 88
2, 21501, Note_on_c, 0, 79, 0
2, 21504, Note_on_c, 0, 81, 88
2, 21525, Note_on_c, 0, 81, 0
2, 21528, Note_on_c, 0, 79, 88
2, 21549, Note_on_c, 0, 79, 0
2, 21552, Note_on_c, 0, 78, 88
2, 21573, Note_on_c, 0, 78, 0
2, 21576, Note_on_c, 0, 76, 88
2, 21597, Note_on_c, 0, 76, 0
2, 21600, Note_on_c, 0, 74, 88
2, 21621, Note_on_c, 0, 74, 0
2, 21624, Note_on_c, 0, 72, 88
2, 21645, Note_on_c, 0, 72, 0
2, 21648, Note_on_c, 0, 71, 88
2, 21669, Note_on_c, 0, 71, 0
2, 21672, Note_on_c, 0, 69, 88
2, 21693, Note_on_c, 0, 69, 0
2, 21696, Note_on_c, 0, 71, 88
2, 21782, Note_on_c, 0, 71, 0
2, 21840, Note_on_c, 0, 74, 88
2, 21883, Note_on_c, 0, 74, 0
2, 21888, Note_on_c, 0, 76, 88
2, 21909, Note_on_c, 0, 76, 0
2, 21912, Note_on_c, 0, 74, 88
2, 21933, Note_on_c, 0, 74, 0
2, 21936, Note_on_c, 0, 76, 88
2, 21957, Note_on_c, 0, 76, 0
2, 21960, Note_on_c, 0, 71, 88
2, 21981, Note_on_c, 0, 71, 0
2, 21984, Note_on_c, 0, 72, 88
2, 22005, Note_on_c, 0, 72, 0
2, 22008, Note_on_c, 0, 69, 88
2, 22029, Note_on_c, 0, 69, 0
2, 22032, Note_on_c, 0, 71, 88
2, 22053, Note_on_c, 0, 71, 0
2, 22056, Note_on_c, 0, 68, 88
2, 22077, Note_on_c, 0, 68, 0
2, 22080, Note_on_c, 0, 69, 88
2, 22101, Note_on_c, 0, 69, 0
2, 22104, Note_on_c, 0, 72, 88
2, 22125, Note_on_c, 0, 72, 0
2, 22128, Note_on_c, 0, 71, 88
2, 22149, Note_on_c, 0, 71, 0
2, 22152, Note_on_c, 0, 74, 88
2, 22173, Note_on_c, 0, 74, 0
2, 22176, Note_on_c, 0, 72, 88
2, 22197, Note_on_c, 0, 72, 0
2, 22200, Note_on_c, 0, 74, 88
2, 22221, Note_on_c, 0, 74, 0
2, 22224, Note_on_c, 0, 76, 88
2, 22245, Note_on_c, 0, 76, 0
2, 22248, Note_on_c, 0, 72, 88
2, 22269, Note_on_c, 0, 72, 0
2, 22272, Note_on_c, 0, 76, 88
2, 22293, Note_on_c, 0, 76, 0
2, 22296, Note_on_c, 0, 73, 88
2, 22317, Note_on_c, 0, 73, 0
2, 22320, Note_on_c, 0, 74, 88
2, 22341, Note_on_c, 0, 74, 0
2, 22344, Note_on_c, 0, 69, 88
2, 22365, Note_on_c, 0, 69, 0
2, 22368, Note_on_c, 0, 71, 88
2, 22389, Note_on_c, 0, 71, 0
2, 22392, Note_on_c, 0, 69, 88
2, 22413, Note_on_c, 0, 69, 0
2, 22416, Note_on_c, 0, 71, 88
2, 22437, Note_on_c, 0, 71, 0
2, 22440, Note_on_c, 0, 66, 88
2, 22461, Note_on_c, 0, 66, 0
2, 22464, Note_on_c, 0, 67, 88
2, 22485, Note_on_c, 0, 67, 0
2, 22488, Note_on_c, 0, 71, 88
2, 22509, Note_on_c, 0, 71, 0
2, 22512, Note_on_c, 0, 74, 88
2, 22533, Note_on_c, 0, 74, 0
2, 22536, Note_on_c, 0, 73, 88
2, 22557, Note_on_c, 0, 73, 0
2, 22560, Note_on_c, 0, 71, 88
2, 22581, Note_on_c, 0, 71, 0
2, 22584, Note_on_c, 0, 73, 88
2, 22605, Note_on_c, 0, 73, 0
2, 22608, Note_on_c, 0, 74, 88
2, 22629, Note_on_c, 0, 74, 0
2, 22632, Note_on_c, 0, 71, 88
2, 22653, Note_on_c, 0, 71, 0
2, 22656, Note_on_c, 0, 72, 88
2, 22677, Note_on_c, 0, 72, 0
2, 22680, Note_on_c, 0, 71, 88
2, 22701, Note_on_c, 0, 71, 0
2, 22704, Note_on_c, 0, 72, 88
2, 22725, Note_on_c, 0, 72, 0
2, 22728, Note_on_c, 0, 69, 88
2, 22749, Note_on_c, 0, 69, 0
2, 22752, Note_on_c, 0, 78, 88
2, 22773, Note_on_c, 0, 78, 0
2, 22776, Note_on_c, 0, 76, 88
2, 22797, Note_on_c, 0, 76, 0
2, 22800, Note_on_c, 0, 78, 88
2, 22821, Note_on_c, 0, 78, 0
2, 22824, Note_on_c, 0, 72, 88
2, 22845, Note_on_c, 0, 72, 0
2, 22848, Note_on_c, 0, 81, 88
2, 22869, Note_on_c, 0, 81, 0
2, 22872, Note_on_c, 0, 78, 88
2, 22893, Note_on_c, 0, 78, 0
2, 22896, Note_on_c, 0, 81, 88
2, 22917, Note_on_c, 0, 81, 0
2, 22920, Note_on_c, 0, 78, 88
2, 22941, Note_on_c, 0, 78, 0
2, 22944, Note_on_c, 0, 81, 88
2, 22965, Note_on_c, 0, 81, 0
2, 22968, Note_on_c, 0, 78, 88
2, 22989, Note_on_c, 0, 78, 0
2, 22992, Note_on_c, 0, 74, 88
2, 23013, Note_on_c, 0, 74, 0
2, 23016, Note_on_c, 0, 72, 88
2, 23037, Note_on_c, 0, 72, 0
2, 23040, Note_on_c, 0, 71, 88
2, 23064, Note_on_c, 0, 71, 0
2, 23064, Note_on_c, 0, 74, 88
2, 23088, Note_on_c, 0, 74, 0
2, 23088, Note_on_c, 0, 72, 88
2, 23112, Note_on_c, 0, 72, 0
2, 23112, Note_on_c, 0, 71, 88
2, 23136, Note_on_c, 0, 71, 0
2, 23136, Note_on_c, 0, 72, 88
2, 23160, Note_on_c, 0, 72, 0
2, 23160, Note_on_c, 0, 74, 88
2, 23184, Note_on_c, 0, 74, 0
2, 23184, Note_on_c, 0, 76, 88
2, 23208, Note_on_c, 0, 76, 0
2, 23208, Note_on_c, 0, 78, 88
2, 23232, Note_on_c, 0, 78, 0
2, 23232, Note_on_c, 0, 79, 88
2, 23328, Note_on_c, 0, 79, 0
2, 23328, Note_on_c, 0, 77, 88
2, 23376, Note_on_c, 0, 77, 0
2, 23376, Note_on_c, 0, 76, 88
2, 23400, Note_on_c, 0, 76, 0
2, 23400, Note_on_c, 0, 75, 88
2, 23424, Note_on_c, 0, 75, 0
2, 23424, Note_on_c, 0, 76, 88
2, 23520, Note_on_c, 0, 76, 0
2, 23544, Note_on_c, 0, 72, 88
2, 23565, Note_on_c, 0, 72, 0
2, 23568, Note_on_c, 0, 74, 88
2, 23589, Note_on_c, 0, 74, 0
2, 23592, Note_on_c, 0, 76, 88
2, 23613, Note_on_c, 0, 76, 0
2, 23616, Note_on_c, 0, 78, 88
2, 23664, Note_on_c, 0, 78, 0
2, 23664, Note_on_c, 0, 76, 88
2, 23712, Note_on_c, 0, 76, 0
2, 23712, Note_on_c, 0, 74, 88
2, 23760, Note_on_c, 0, 74, 0
2, 23760, Note_on_c, 0, 73, 88
2, 23808, Note_on_c, 0, 73, 0
2, 23808, Note_on_c, 0, 74, 88
2, 23904, Note_on_c, 0, 74, 0
2, 23928, Note_on_c, 0, 71, 88
2, 23949, Note_on_c, 0, 71, 0
2, 23952, Note_on_c, 0, 72, 88
2, 23973, Note_on_c, 0, 72, 0
2, 23976, Note_on_c, 0, 74, 88
2, 23997, Note_on_c, 0, 74, 0
2, 24000, Note_on_c, 0, 76, 88
2, 24048, Note_on_c, 0, 76, 0
2, 24048, Note_on_c, 0, 74, 88
2, 24096, Note_on_c, 0, 74, 0
2, 24096, Note_on_c, 0, 72, 88
2, 24144, Note_on_c, 0, 72, 0
2, 24144, Note_on_c, 0, 71, 88
2, 24192, Note_on_c, 0, 71, 0
2, 24192, Note_on_c, 0, 72, 88
2, 24288, Note_on_c, 0, 72, 0
2, 24312, Note_on_c, 0, 69, 88
2, 24333, Note_on_c, 0, 69, 0
2, 24336, Note_on_c, 0, 71, 88
2, 24357, Note_on_c, 0, 71, 0
2, 24360, Note_on_c, 0, 72, 88
2, 24381, Note_on_c, 0, 72, 0
2, 24384, Note_on_c, 0, 74, 88
2, 24432, Note_on_c, 0, 74, 0
2, 24432, Note_on_c, 0, 72, 88
2, 24480, Note_on_c, 0, 72, 0
2, 24480, Note_on_c, 0, 71, 88
2, 24528, Note_on_c, 0, 71, 0
2, 24528, Note_on_c, 0, 69, 88
2, 24576, Note_on_c, 0, 69, 0
2, 24576, Note_on_c, 0, 71, 88
2, 24648, Note_on_c, 0, 71, 0
2, 24648, Note_on_c, 0, 67, 88
2, 24672, Note_on_c, 0, 67, 0
2, 24672, Note_on_c, 0, 69, 88
2, 24684, Note_on_c, 0, 69, 0
2, 24684, Note_on_c, 0, 67, 88
2, 24696, Note_on_c, 0, 67, 0
2, 24696, Note_on_c, 0, 69, 88
2, 24708, Note_on_c, 0, 69, 0
2, 24708, Note_on_c, 0, 67, 88
2, 24720, Note_on_c, 0, 67, 0
2, 24720, Note_on_c, 0, 69, 88
2, 24732, Note_on_c, 0, 69, 0
2, 24732, Note_on_c, 0, 67, 88
2, 24744, Note_on_c, 0, 67, 0
2, 24744, Note_on_c, 0, 69, 88
2, 24756, Note_on_c, 0, 69, 0
2, 24756, Note_on_c, 0, 67, 88
2, 24768, Note_on_c, 0, 67, 0
2, 24768, Note_on_c, 0, 69, 88
2, 24780, Note_on_c, 0, 69, 0
2, 24780, Note_on_c, 0, 67, 88
2, 24792, Note_on_c, 0, 67, 0
2, 24792, Note_on_c, 0, 69, 88
2, 24804, Note_on_c, 0, 69, 0
2, 24804, Note_on_c, 0, 67, 88
2, 24816, Note_on_c, 0, 67, 0
2, 24816, Note_on_c, 0, 66, 88
2, 24837, Note_on_c, 0, 66, 0
2, 24840, Note_on_c, 0, 67, 88
2, 24861, Note_on_c, 0, 67, 0
2, 24864, Note_on_c, 0, 71, 88
2, 24936, Note_on_c, 0, 71, 0
2, 24936, Note_on_c, 0, 67, 88
2, 24960, Note_on_c, 0, 67, 0
2, 24960, Note_on_c, 0, 72, 88
2, 25032, Note_on_c, 0, 72, 0
2, 25032, Note_on_c, 0, 69, 88
2, 25056, Note_on_c, 0, 69, 0
2, 25056, Note_on_c, 0, 71, 88
2, 25068, Note_on_c, 0, 71, 0
2, 25068, Note_on_c, 0, 69, 88
2, 25080, Note_on_c, 0, 69, 0
2, 25080, Note_on_c, 0, 71, 88
2, 25092, Note_on_c, 0, 71, 0
2, 25092, Note_on_c, 0, 69, 88
2, 25104, Note_on_c, 0, 69, 0
2, 25104, Note_on_c, 0, 71, 88
2, 25116, Note_on_c, 0, 71, 0
2, 25116, Note_on_c, 0, 69, 88
2, 25128, Note_on_c, 0, 69, 0
2, 25128, Note_on_c, 0, 71, 88
2, 25140, Note_on_c, 0, 71, 0
2, 25140, Note_on_c, 0, 69, 88
2, 25152, Note_on_c, 0, 69, 0
2, 25152, Note_on_c, 0, 71, 88
2, 25164, Note_on_c, 0, 71, 0
2, 25164, Note_on_c, 0, 69, 88
2, 25176, Note_on_c, 0, 69, 0
2, 25176, Note_on_c, 0, 71, 88
2, 25188, Note_on_c, 0, 71, 0
2, 25188, Note_on_c, 0, 69, 88
2, 25200, Note_on_c, 0, 69, 0
2, 25200, Note_on_c, 0, 68, 88
2, 25221, Note_on_c, 0, 68, 0
2, 25224, Note_on_c, 0, 69, 88
2, 25245, Note_on_c, 0, 69, 0
2, 25248, Note_on_c, 0, 72, 88
2, 25320, Note_on_c, 0, 72, 0
2, 25320, Note_on_c, 0, 69, 88
2, 25344, Note_on_c, 0, 69, 0
2, 25344, Note_on_c, 0, 74, 88
2, 25416, Note_on_c, 0, 74, 0
2, 25416, Note_on_c, 0, 71, 88
2, 25440, Note_on_c, 0, 71, 0
2, 25440, Note_on_c, 0, 72, 88
2, 25452, Note_on_c, 0, 72, 0
2, 25452, Note_on_c, 0, 71, 88
2, 25464, Note_on_c, 0, 71, 0
2, 25464, Note_on_c, 0, 72, 88
2, 25476, Note_on_c, 0, 72, 0
2, 25476, Note_on_c, 0, 71, 88
2, 25488, Note_on_c, 0, 71, 0
2, 25488, Note_on_c, 0, 72, 88
2, 25500, Note_on_c, 0, 72, 0
2, 25500, Note_on_c, 0, 71, 88
2, 25512, Note_on_c, 0, 71, 0
2, 25512, Note_on_c, 0, 72, 88
2, 25524, Note_on_c, 0, 72, 0
2, 25524, Note_on_c, 0, 71, 88
2, 25536, Note_on_c, 0, 71, 0
2, 25536, Note_on_c, 0, 72, 88
2, 25548, Note_on_c, 0, 72, 0
2, 25548, Note_on_c, 0, 71, 88
2, 25560, Note_on_c, 0, 71, 0
2, 25560, Note_on_c, 0, 72, 88
2, 25572, Note_on_c, 0, 72, 0
2, 25572, Note_on_c, 0, 71, 88
2, 25584, Note_on_c, 0, 71, 0
2, 25584, Note_on_c, 0, 70, 88
2, 25605, Note_on_c, 0, 70, 0
2, 25608, Note_on_c, 0, 71, 88
2, 25629, Note_on_c, 0, 71, 0
2, 25632, Note_on_c, 0, 74, 88
2, 25704, Note_on_c, 0, 74, 0
2, 25704, Note_on_c, 0, 71, 88
2, 25728, Note_on_c, 0, 71, 0
2, 25728, Note_on_c, 0, 76, 88
2, 25800, Note_on_c, 0, 76, 0
2, 25800, Note_on_c, 0, 72, 88
2, 25824, Note_on_c, 0, 72, 0
2, 25824, Note_on_c, 0, 74, 88
2, 25836, Note_on_c, 0, 74, 0
2, 25836, Note_on_c, 0, 72, 88
2, 25848, Note_on_c, 0, 72, 0
2, 25848, Note_on_c, 0, 74, 88
2, 25860, Note_on_c, 0, 74, 0
2, 25860, Note_on_c, 0, 72, 88
2, 25872, Note_on_c, 0, 72, 0
2, 25872, Note_on_c, 0, 74, 88
2, 25884, Note_on_c, 0, 74, 0
2, 25884, Note_on_c, 0, 72, 88
2, 25896, Note_on_c, 0, 72, 0
2, 25896, Note_on_c, 0, 71, 88
2, 25906, Note_on_c, 0, 71, 0
2, 25908, Note_on_c, 0, 72, 88
2, 25918, Note_on_c, 0, 72, 0
2, 25920, Note_on_c, 0, 78, 88
2, 25992, Note_on_c, 0, 78, 0
2, 25992, Note_on_c, 0, 74, 88
2, 26016, Note_on_c, 0, 74, 0
2, 26016, Note_on_c, 0, 76, 88
2, 26028, Note_on_c, 0, 76, 0
2, 26028, Note_on_c, 0, 74, 88
2, 26040, Note_on_c, 0, 74, 0
2, 26040, Note_on_c, 0, 76, 88
2, 26052, Note_on_c, 0, 76, 0
2, 26052, Note_on_c, 0, 74, 88
2, 26064, Note_on_c, 0, 74, 0
2, 26064, Note_on_c, 0, 76, 88
2, 26076, Note_on_c, 0, 76, 0
2, 26076, Note_on_c, 0, 74, 88
2, 26088, Note_on_c, 0, 74, 0
2, 26088, Note_on_c, 0, 72, 88
2, 26098, Note_on_c, 0, 72, 0
2, 26100, Note_on_c, 0, 74, 88
2, 26110, Note_on_c, 0, 74, 0
2, 26112, Note_on_c, 0, 79, 88
2, 26133, Note_on_c, 0, 79, 0
2, 26136, Note_on_c, 0, 76, 88
2, 26157, Note_on_c, 0, 76, 0
2, 26160, Note_on_c, 0, 78, 88
2, 26181, Note_on_c, 0, 78, 0
2, 26184, Note_on_c, 0, 74, 88
2, 26205, Note_on_c, 0, 74, 0
2, 26208, Note_on_c, 0, 78, 88
2, 26229, Note_on_c, 0, 78, 0
2, 26232, Note_on_c, 0, 76, 88
2, 26253, Note_on_c, 0, 76, 0
2, 26256, Note_on_c, 0, 78, 88
2, 26277, Note_on_c, 0, 78, 0
2, 26280, Note_on_c, 0, 76, 88
2, 26301, Note_on_c, 0, 76, 0
2, 26304, Note_on_c, 0, 81, 88
2, 26325, Note_on_c, 0, 81, 0
2, 26328, Note_on_c, 0, 78, 88
2, 26349, Note_on_c, 0, 78, 0
2, 26352, Note_on_c, 0, 79, 88
2, 26373, Note_on_c, 0, 79, 0
2, 26376, Note_on_c, 0, 78, 88
2, 26397, Note_on_c, 0, 78, 0
2, 26400, Note_on_c, 0, 79, 88
2, 26421, Note_on_c, 0, 79, 0
2, 26424, Note_on_c, 0, 78, 88
2, 26445, Note_on_c, 0, 78, 0
2, 26448, Note_on_c, 0, 79, 88
2, 26469, Note_on_c, 0, 79, 0
2, 26472, Note_on_c, 0, 78, 88
2, 26493, Note_on_c, 0, 78, 0
2, 26496, Note_on_c, 0, 83, 88
2, 26582, Note_on_c, 0, 83, 0
2, 26688, Note_on_c, 0, 59, 88
2, 26860, Note_on_c, 0, 59, 0
2, 26880, Note_on_c, 0, 57, 88
2, 27225, Note_on_c, 0, 57, 0
2, 27264, Note_on_c, 0, 79, 88
2, 27504, Note_on_c, 0, 79, 0
2, 27504, Note_on_c, 0, 78, 88
2, 27552, Note_on_c, 0, 78, 0
2, 27552, Note_on_c, 0, 78, 88
2, 27600, Note_on_c, 0, 78, 0
2, 27600, Note_on_c, 0, 76, 88
2, 27643, Note_on_c, 0, 76, 0
2, 27648, Note_on_c, 0, 74, 88
2, 27888, Note_on_c, 0, 74, 0
2, 27888, Note_on_c, 0, 73, 88
2, 27936, Note_on_c, 0, 73, 0
2, 27936, Note_on_c, 0, 72, 88
2, 27984, Note_on_c, 0, 72, 0
2, 27984, Note_on_c, 0, 71, 88
2, 28032, Note_on_c, 0, 71, 0
2, 28032, Note_on_c, 0, 71, 88
2, 28044, Note_on_c, 0, 71, 0
2, 28044, Note_on_c, 0, 69, 88
2, 28056, Note_on_c, 0, 69, 0
2, 28056, Note_on_c, 0, 71, 88
2, 28068, Note_on_c, 0, 71, 0
2, 28068, Note_on_c, 0, 69, 88
2, 28080, Note_on_c, 0, 69, 0
2, 28080, Note_on_c, 0, 71, 88
2, 28092, Note_on_c, 0, 71, 0
2, 28092, Note_on_c, 0, 69, 88
2, 28104, Note_on_c, 0, 69, 0
2, 28104, Note_on_c, 0, 71, 88
2, 28116, Note_on_c, 0, 71, 0
2, 28116, Note_on_c, 0, 69, 88
2, 28128, Note_on_c, 0, 69, 0
2, 28128, Note_on_c, 0, 71, 88
2, 28140, Note_on_c, 0, 71, 0
2, 28140, Note_on_c, 0, 69, 88
2, 28152, Note_on_c, 0, 69, 0
2, 28152, Note_on_c, 0, 71, 88
2, 28164, Note_on_c, 0, 71, 0
2, 28164, Note_on_c, 0, 69, 88
2, 28176, Note_on_c, 0, 69, 0
2, 28176, Note_on_c, 0, 71, 88
2, 28188, Note_on_c, 0, 71, 0
2, 28188, Note_on_c, 0, 69, 88
2, 28200, Note_on_c, 0, 69, 0
2, 28200, Note_on_c, 0, 71, 88
2, 28212, Note_on_c, 0, 71, 0
2, 28212, Note_on_c, 0, 69, 88
2, 28224, Note_on_c, 0, 69, 0
2, 28224, Note_on_c, 0, 71, 88
2, 28236, Note_on_c, 0, 71, 0
2, 28236, Note_on_c, 0, 69, 88
2, 28248, Note_on_c, 0, 69, 0
2, 28248, Note_on_c, 0, 71, 88
2, 28260, Note_on_c, 0, 71, 0
2, 28260, Note_on_c, 0, 69, 88
2, 28272, Note_on_c, 0, 69, 0
2, 28272, Note_on_c, 0, 71, 88
2, 28284, Note_on_c, 0, 71, 0
2, 28284, Note_on_c, 0, 69, 88
2, 28296, Note_on_c, 0, 69, 0
2, 28296, Note_on_c, 0, 71, 88
2, 28308, Note_on_c, 0, 71, 0
2, 28308, Note_on_c, 0, 69, 88
2, 28320, Note_on_c, 0, 69, 0
2, 28320, Note_on_c, 0, 71, 88
2, 28332, Note_on_c, 0, 71, 0
2, 28332, Note_on_c, 0, 69, 88
2, 28344, Note_on_c, 0, 69, 0
2, 28344, Note_on_c, 0, 71, 88
2, 28356, Note_on_c, 0, 71, 0
2, 28356, Note_on_c, 0, 69, 88
2, 28368, Note_on_c, 0, 69, 0
2, 28368, Note_on_c, 0, 67, 88
2, 28389, Note_on_c, 0, 67, 0
2, 28392, Note_on_c, 0, 69, 88
2, 28413, Note_on_c, 0, 69, 0
2, 28416, Note_on_c, 0, 83, 88
2, 28512, Note_on_c, 0, 83, 0
2, 28512, Note_on_c, 0, 79, 88
2, 28608, Note_on_c, 0, 79, 0
2, 28656, Note_on_c, 0, 79, 88
2, 28704, Note_on_c, 0, 79, 0
2, 28704, Note_on_c, 0, 78, 88
2, 28752, Note_on_c, 0, 78, 0
2, 28752, Note_on_c, 0, 76, 88
2, 28800, Note_on_c, 0, 76, 0
2, 28800, Note_on_c, 0, 76, 88
2, 28848, Note_on_c, 0, 76, 0
2, 28848, Note_on_c, 0, 74, 88
2, 28944, Note_on_c, 0, 74, 0
2, 28944, Note_on_c, 0, 71, 88
2, 28987, Note_on_c, 0, 71, 0
2, 28992, Note_on_c, 0, 74, 88
2, 29040, Note_on_c, 0, 74, 0
2, 29040, Note_on_c, 0, 72, 88
2, 29136, Note_on_c, 0, 72, 0
2, 29136, Note_on_c, 0, 69, 88
2, 29179, Note_on_c, 0, 69, 0
2, 29184, Note_on_c, 0, 83, 88
2, 29280, Note_on_c, 0, 83, 0
2, 29280, Note_on_c, 0, 79, 88
2, 29376, Note_on_c, 0, 79, 0
2, 29424, Note_on_c, 0, 79, 88
2, 29472, Note_on_c, 0, 79, 0
2, 29472, Note_on_c, 0, 78, 88
2, 29520, Note_on_c, 0, 78, 0
2, 29520, Note_on_c, 0, 76, 88
2, 29568, Note_on_c, 0, 76, 0
2, 29568, Note_on_c, 0, 76, 88
2, 29616, Note_on_c, 0, 76, 0
2, 29616, Note_on_c, 0, 74, 88
2, 29712, Note_on_c, 0, 74, 0
2, 29712, Note_on_c, 0, 71, 88
2, 29755, Note_on_c, 0, 71, 0
2, 29760, Note_on_c, 0, 74, 88
2, 29808, Note_on_c, 0, 74, 0
2, 29808, Note_on_c, 0, 72, 88
2, 29904, Note_on_c, 0, 72, 0
2, 29904, Note_on_c, 0, 69, 88
2, 29947, Note_on_c, 0, 69, 0
2, 29952, Note_on_c, 0, 83, 88
2, 30336, Note_on_c, 0, 83, 0
2, 30336, Note_on_c, 0, 82, 88
2, 30624, Note_on_c, 0, 82, 0
2, 30672, Note_on_c, 0, 82, 88
2, 30715, Note_on_c, 0, 82, 0
2, 30720, Note_on_c, 0, 83, 88
2, 30816, Note_on_c, 0, 83, 0
2, 30816, Note_on_c, 0, 78, 88
2, 30912, Note_on_c, 0, 78, 0
2, 30912, Note_on_c, 0, 79, 88
2, 30960, Note_on_c, 0, 79, 0
2, 30960, Note_on_c, 0, 74, 88
2, 31008, Note_on_c, 0, 74, 0
2, 31008, Note_on_c, 0, 76, 88
2, 31056, Note_on_c, 0, 76, 0
2, 31056, Note_on_c, 0, 72, 88
2, 31104, Note_on_c, 0, 72, 0
2, 31104, Note_on_c, 0, 71, 88
2, 31190, Note_on_c, 0, 71, 0
2, 31248, Note_on_c, 0, 74, 88
2, 31254, Note_on_c, 0, 74, 0
2, 31254, Note_on_c, 0, 73, 88
2, 31260, Note_on_c, 0, 73, 0
2, 31260, Note_on_c, 0, 74, 88
2, 31266, Note_on_c, 0, 74, 0
2, 31266, Note_on_c, 0, 73, 88
2, 31272, Note_on_c, 0, 73, 0
2, 31272, Note_on_c, 0, 71, 88
2, 31284, Note_on_c, 0, 71, 0
2, 31284, Note_on_c, 0, 73, 88
2, 31296, Note_on_c, 0, 73, 0
2, 31296, Note_on_c, 0, 74, 88
2, 31392, Note_on_c, 0, 74, 0
2, 31440, Note_on_c, 0, 74, 88
2, 31446, Note_on_c, 0, 74, 0
2, 31446, Note_on_c, 0, 73, 88
2, 31452, Note_on_c, 0, 73, 0
2, 31452, Note_on_c, 0, 74, 88
2, 31458, Note_on_c, 0, 74, 0
2, 31458, Note_on_c, 0, 73, 88
2, 31464, Note_on_c, 0, 73, 0
2, 31464, Note_on_c, 0, 71, 88
2, 31476, Note_on_c, 0, 71, 0
2, 31476, Note_on_c, 0, 73, 88
2, 31488, Note_on_c, 0, 73, 0
2, 31488, Note_on_c, 0, 74, 88
2, 31584, Note_on_c, 0, 74, 0
2, 31632, Note_on_c, 0, 74, 88
2, 31638, Note_on_c, 0, 74, 0
2, 31638, Note_on_c, 0, 73, 88
2, 31644, Note_on_c, 0, 73, 0
2, 31644, Note_on_c, 0, 74, 88
2, 31650, Note_on_c, 0, 74, 0
2, 31650, Note_on_c, 0, 73, 88
2, 31656, Note_on_c, 0, 73, 0
2, 31656, Note_on_c, 0, 71, 88
2, 31668, Note_on_c, 0, 71, 0
2, 31668, Note_on_c, 0, 73, 88
2, 31680, Note_on_c, 0, 73, 0
2, 31680, Note_on_c, 0, 74, 88
2, 31728, Note_on_c, 0, 74, 0
2, 31728, Note_on_c, 0, 74, 88
2, 31734, Note_on_c, 0, 74, 0
2, 31734, Note_on_c, 0, 73, 88
2, 31740, Note_on_c, 0, 73, 0
2, 31740, Note_on_c, 0, 74, 88
2, 31746, Note_on_c, 0, 74, 0
2, 31746, Note_on_c, 0, 73, 88
2, 31752, Note_on_c, 0, 73, 0
2, 31752, Note_on_c, 0, 71, 88
2, 31764, Note_on_c, 0, 71, 0
2, 31764, Note_on_c, 0, 73, 88
2, 31776, Note_on_c, 0, 73, 0
2, 31776, Note_on_c, 0, 74, 88
2, 31824, Note_on_c, 0, 74, 0
2, 31824, Note_on_c, 0, 74, 88
2, 31830, Note_on_c, 0, 74, 0
2, 31830, Note_on_c, 0, 73, 88
2, 31836, Note_on_c, 0, 73, 0
2, 31836, Note_on_c, 0, 74, 88
2, 31842, Note_on_c, 0, 74, 0
2, 31842, Note_on_c, 0, 73, 88
2, 31848, Note_on_c, 0, 73, 0
2, 31848, Note_on_c, 0, 71, 88
2, 31860, Note_on_c, 0, 71, 0
2, 31860, Note_on_c, 0, 73, 88
2, 31872, Note_on_c, 0, 73, 0
2, 31872, Note_on_c, 0, 74, 88
2, 31920, Note_on_c, 0, 74, 0
2, 31920, Note_on_c, 0, 71, 88
2, 31968, Note_on_c, 0, 71, 0
2, 31968, Note_on_c, 0, 79, 88
2, 32016, Note_on_c, 0, 79, 0
2, 32016, Note_on_c, 0, 79, 88
2, 32040, Note_on_c, 0, 79, 0
2, 32064, Note_on_c, 0, 79, 88
2, 32112, Note_on_c, 0, 79, 0
2, 32112, Note_on_c, 0, 74, 88
2, 32160, Note_on_c, 0, 74, 0
2, 32160, Note_on_c, 0, 83, 88
2, 32208, Note_on_c, 0, 83, 0
2, 32208, Note_on_c, 0, 83, 88
2, 32232, Note_on_c, 0, 83, 0
2, 32256, Note_on_c, 0, 83, 88
2, 32299, Note_on_c, 0, 83, 0
2, 32304, Note_on_c, 0, 79, 88
2, 32347, Note_on_c, 0, 79, 0
2, 32352, Note_on_c, 0, 74, 88
2, 32395, Note_on_c, 0, 74, 0
2, 32400, Note_on_c, 0, 71, 88
2, 32443, Note_on_c, 0, 71, 0
2, 32448, Note_on_c, 0, 79, 88
2, 32491, Note_on_c, 0, 79, 0
2, 32496, Note_on_c, 0, 74, 88
2, 32539, Note_on_c, 0, 74, 0
2, 32544, Note_on_c, 0, 71, 88
2, 32587, Note_on_c, 0, 71, 0
2, 32592, Note_on_c, 0, 67, 88
2, 32635, Note_on_c, 0, 67, 0
2, 32640, Note_on_c, 0, 62, 88
2, 32769, Note_on_c, 0, 62, 0
2, 32784, Note_on_c, 0, 64, 88
2, 32805, Note_on_c, 0, 64, 0
2, 32808, Note_on_c, 0, 66, 88
2, 32829, Note_on_c, 0, 66, 0
2, 32832, Note_on_c, 0, 67, 88
2, 32853, Note_on_c, 0, 67, 0
2, 32856, Note_on_c, 0, 69, 88
2, 32877, Note_on_c, 0, 69, 0
2, 32880, Note_on_c, 0, 71, 88
2, 32901, Note_on_c, 0, 71, 0
2, 32904, Note_on_c, 0, 72, 88
2, 32925, Note_on_c, 0, 72, 0
2, 32928, Note_on_c, 0, 74, 88
2, 32949, Note_on_c, 0, 74, 0
2, 32952, Note_on_c, 0, 76, 88
2, 32973, Note_on_c, 0, 76, 0
2, 32976, Note_on_c, 0, 78, 88
2, 32997, Note_on_c, 0, 78, 0
2, 33000, Note_on_c, 0, 79, 88
2, 33021, Note_on_c, 0, 79, 0
2, 33024, Note_on_c, 0, 71, 88
2, 33036, Note_on_c, 0, 71, 0
2, 33036, Note_on_c, 0, 69, 88
2, 33048, Note_on_c, 0, 69, 0
2, 33048, Note_on_c, 0, 71, 88
2, 33060, Note_on_c, 0, 71, 0
2, 33060, Note_on_c, 0, 69, 88
2, 33072, Note_on_c, 0, 69, 0
2, 33072, Note_on_c, 0, 71, 88
2, 33084, Note_on_c, 0, 71, 0
2, 33084, Note_on_c, 0, 69, 88
2, 33096, Note_on_c, 0, 69, 0
2, 33096, Note_on_c, 0, 71, 88
2, 33108, Note_on_c, 0, 71, 0
2, 33108, Note_on_c, 0, 69, 88
2, 33120, Note_on_c, 0, 69, 0
2, 33120, Note_on_c, 0, 71, 88
2, 33132, Note_on_c, 0, 71, 0
2, 33132, Note_on_c, 0, 69, 88
2, 33144, Note_on_c, 0, 69, 0
2, 33144, Note_on_c, 0, 71, 88
2, 33156, Note_on_c, 0, 71, 0
2, 33156, Note_on_c, 0, 69, 88
2, 33168, Note_on_c, 0, 69, 0
2, 33168, Note_on_c, 0, 71, 88
2, 33180, Note_on_c, 0, 71, 0
2, 33180, Note_on_c, 0, 69, 88
2, 33192, Note_on_c, 0, 69, 0
2, 33192, Note_on_c, 0, 71, 88
2, 33204, Note_on_c, 0, 71, 0
2, 33204, Note_on_c, 0, 69, 88
2, 33216, Note_on_c, 0, 69, 0
2, 33216, Note_on_c, 0, 71, 88
2, 33228, Note_on_c, 0, 71, 0
2, 33228, Note_on_c, 0, 69, 88
2, 33240, Note_on_c, 0, 69, 0
2, 33240, Note_on_c, 0, 71, 88
2, 33252, Note_on_c, 0, 71, 0
2, 33252, Note_on_c, 0, 69, 88
2, 33264, Note_on_c, 0, 69, 0
2, 33264, Note_on_c, 0, 71, 88
2, 33276, Note_on_c, 0, 71, 0
2, 33276, Note_on_c, 0, 69, 88
2, 33288, Note_on_c, 0, 69, 0
2, 33288, Note_on_c, 0, 71, 88
2, 33300, Note_on_c, 0, 71, 0
2, 33300, Note_on_c, 0, 69, 88
2, 33312, Note_on_c, 0, 69, 0
2, 33312, Note_on_c, 0, 71, 88
2, 33324, Note_on_c, 0, 71, 0
2, 33324, Note_on_c, 0, 69, 88
2, 33336, Note_on_c, 0, 69, 0
2, 33336, Note_on_c, 0, 71, 88
2, 33348, Note_on_c, 0, 71, 0
2, 33348, Note_on_c, 0, 69, 88
2, 33360, Note_on_c, 0, 69, 0
2, 33360, Note_on_c, 0, 67, 88
2, 33381, Note_on_c, 0, 67, 0
2, 33384, Note_on_c, 0, 69, 88
2, 33405, Note_on_c, 0, 69, 0
2, 33408, Note_on_c, 0, 67, 88
2, 33494, Note_on_c, 0, 67, 0
2, 34176, Note_on_c, 0, 63, 88
2, 34348, Note_on_c, 0, 63, 0
2, 34368, Note_on_c, 0, 67, 88
2, 34454, Note_on_c, 0, 67, 0
2, 34464, Note_on_c, 0, 70, 88
2, 34550, Note_on_c, 0, 70, 0
2, 34560, Note_on_c, 0, 75, 88
2, 34795, Note_on_c, 0, 75, 0
2, 34800, Note_on_c, 0, 79, 88
2, 34821, Note_on_c, 0, 79, 0
2, 34824, Note_on_c, 0, 77, 88
2, 34845, Note_on_c, 0, 77, 0
2, 34848, Note_on_c, 0, 75, 88
2, 34869, Note_on_c, 0, 75, 0
2, 34872, Note_on_c, 0, 74, 88
2, 34893, Note_on_c, 0, 74, 0
2, 34896, Note_on_c, 0, 72, 88
2, 34917, Note_on_c, 0, 72, 0
2, 34920, Note_on_c, 0, 70, 88
2, 34941, Note_on_c, 0, 70, 0
2, 34944, Note_on_c, 0, 68, 88
2, 34965, Note_on_c, 0, 68, 0
2, 34968, Note_on_c, 0, 70, 88
2, 34989, Note_on_c, 0, 70, 0
2, 34992, Note_on_c, 0, 72, 88
2, 35013, Note_on_c, 0, 72, 0
2, 35016, Note_on_c, 0, 70, 88
2, 35037, Note_on_c, 0, 70, 0
2, 35040, Note_on_c, 0, 68, 88
2, 35126, Note_on_c, 0, 68, 0
2, 35184, Note_on_c, 0, 72, 88
2, 35205, Note_on_c, 0, 72, 0
2, 35208, Note_on_c, 0, 70, 88
2, 35229, Note_on_c, 0, 70, 0
2, 35232, Note_on_c, 0, 68, 88
2, 35253, Note_on_c, 0, 68, 0
2, 35256, Note_on_c, 0, 67, 88
2, 35277, Note_on_c, 0, 67, 0
2, 35280, Note_on_c, 0, 65, 88
2, 35301, Note_on_c, 0, 65, 0
2, 35304, Note_on_c, 0, 63, 88
2, 35325, Note_on_c, 0, 63, 0
2, 35328, Note_on_c, 0, 62, 88
2, 35500, Note_on_c, 0, 62, 0
2, 35520, Note_on_c, 0, 80, 88
2, 35733, Note_on_c, 0, 80, 0
2, 35736, Note_on_c, 0, 79, 88
2, 35757, Note_on_c, 0, 79, 0
2, 35760, Note_on_c, 0, 77, 88
2, 35781, Note_on_c, 0, 77, 0
2, 35784, Note_on_c, 0, 79, 88
2, 35805, Note_on_c, 0, 79, 0
2, 35808, Note_on_c, 0, 77, 88
2, 35829, Note_on_c, 0, 77, 0
2, 35832, Note_on_c, 0, 75, 88
2, 35853, Note_on_c, 0, 75, 0
2, 35856, Note_on_c, 0, 74, 88
2, 35877, Note_on_c, 0, 74, 0
2, 35880, Note_on_c, 0, 75, 88
2, 35901, Note_on_c, 0, 75, 0
2, 35904, Note_on_c, 0, 74, 88
2, 35925, Note_on_c, 0, 74, 0
2, 35928, Note_on_c, 0, 75, 88
2, 35949, Note_on_c, 0, 75, 0
2, 35952, Note_on_c, 0, 77, 88
2, 35973, Note_on_c, 0, 77, 0
2, 35976, Note_on_c, 0, 75, 88
2, 35997, Note_on_c, 0, 75, 0
2, 36000, Note_on_c, 0, 74, 88
2, 36021, Note_on_c, 0, 74, 0
2, 36024, Note_on_c, 0, 72, 88
2, 36045, Note_on_c, 0, 72, 0
2, 36048, Note_on_c, 0, 70, 88
2, 36069, Note_on_c, 0, 70, 0
2, 36072, Note_on_c, 0, 68, 88
2, 36093, Note_on_c, 0, 68, 0
2, 36096, Note_on_c, 0, 67, 88
2, 36117, Note_on_c, 0, 67, 0
2, 36120, Note_on_c, 0, 68, 88
2, 36141, Note_on_c, 0, 68, 0
2, 36144, Note_on_c, 0, 70, 88
2, 36165, Note_on_c, 0, 70, 0
2, 36168, Note_on_c, 0, 68, 88
2, 36189, Note_on_c, 0, 68, 0
2, 36192, Note_on_c, 0, 67, 88
2, 36278, Note_on_c, 0, 67, 0
2, 36336, Note_on_c, 0, 70, 88
2, 36379, Note_on_c, 0, 70, 0
2, 36384, Note_on_c, 0, 67, 88
2, 36427, Note_on_c, 0, 67, 0
2, 36432, Note_on_c, 0, 63, 88
2, 36475, Note_on_c, 0, 63, 0
2, 36480, Note_on_c, 0, 72, 88
2, 36523, Note_on_c, 0, 72, 0
2, 36528, Note_on_c, 0, 64, 88
2, 36571, Note_on_c, 0, 64, 0
2, 36576, Note_on_c, 0, 65, 88
2, 36619, Note_on_c, 0, 65, 0
2, 36624, Note_on_c, 0, 73, 88
2, 36667, Note_on_c, 0, 73, 0
2, 36672, Note_on_c, 0, 74, 88
2, 36715, Note_on_c, 0, 74, 0
2, 36720, Note_on_c, 0, 66, 88
2, 36763, Note_on_c, 0, 66, 0
2, 36768, Note_on_c, 0, 67, 88
2, 36811, Note_on_c, 0, 67, 0
2, 36816, Note_on_c, 0, 74, 88
2, 36859, Note_on_c, 0, 74, 0
2, 36864, Note_on_c, 0, 75, 88
2, 36907, Note_on_c, 0, 75, 0
2, 36912, Note_on_c, 0, 67, 88
2, 36955, Note_on_c, 0, 67, 0
2, 36960, Note_on_c, 0, 68, 88
2, 37003, Note_on_c, 0, 68, 0
2, 37008, Note_on_c, 0, 76, 88
2, 37051, Note_on_c, 0, 76, 0
2, 37056, Note_on_c, 0, 77, 88
2, 37099, Note_on_c, 0, 77, 0
2, 37104, Note_on_c, 0, 69, 88
2, 37147, Note_on_c, 0, 69, 0
2, 37152, Note_on_c, 0, 70, 88
2, 37195, Note_on_c, 0, 70, 0
2, 37200, Note_on_c, 0, 77, 88
2, 37243, Note_on_c, 0, 77, 0
2, 37248, Note_on_c, 0, 78, 88
2, 37296, Note_on_c, 0, 78, 0
2, 37296, Note_on_c, 0, 79, 88
2, 37344, Note_on_c, 0, 79, 0
2, 37344, Note_on_c, 0, 77, 88
2, 37392, Note_on_c, 0, 77, 0
2, 37392, Note_on_c, 0, 75, 88
2, 37440, Note_on_c, 0, 75, 0
2, 37440, Note_on_c, 0, 74, 88
2, 37488, Note_on_c, 0, 74, 0
2, 37488, Note_on_c, 0, 72, 88
2, 37536, Note_on_c, 0, 72, 0
2, 37536, Note_on_c, 0, 70, 88
2, 37584, Note_on_c, 0, 70, 0
2, 37584, Note_on_c, 0, 69, 88
2, 37632, Note_on_c, 0, 69, 0
2, 37632, Note_on_c, 0, 68, 88
2, 37728, Note_on_c, 0, 68, 0
2, 37728, Note_on_c, 0, 70, 88
2, 37824, Note_on_c, 0, 70, 0
2, 37896, Note_on_c, 0, 70, 88
2, 37917, Note_on_c, 0, 70, 0
2, 37920, Note_on_c, 0, 72, 88
2, 37932, Note_on_c, 0, 72, 0
2, 37932, Note_on_c, 0, 70, 88
2, 37944, Note_on_c, 0, 70, 0
2, 37944, Note_on_c, 0, 72, 88
2, 37956, Note_on_c, 0, 72, 0
2, 37956, Note_on_c, 0, 70, 88
2, 37968, Note_on_c, 0, 70, 0
2, 37968, Note_on_c, 0, 72, 88
2, 37980, Note_on_c, 0, 72, 0
2, 37980, Note_on_c, 0, 70, 88
2, 37992, Note_on_c, 0, 70, 0
2, 37992, Note_on_c, 0, 68, 88
2, 38002, Note_on_c, 0, 68, 0
2, 38004, Note_on_c, 0, 70, 88
2, 38014, Note_on_c, 0, 70, 0
2, 38016, Note_on_c, 0, 73, 88
2, 38112, Note_on_c, 0, 73, 0
2, 38112, Note_on_c, 0, 70, 88
2, 38208, Note_on_c, 0, 70, 0
2, 38280, Note_on_c, 0, 70, 88
2, 38301, Note_on_c, 0, 70, 0
2, 38304, Note_on_c, 0, 72, 88
2, 38316, Note_on_c, 0, 72, 0
2, 38316, Note_on_c, 0, 70, 88
2, 38328, Note_on_c, 0, 70, 0
2, 38328, Note_on_c, 0, 72, 88
2, 38340, Note_on_c, 0, 72, 0
2, 38340, Note_on_c, 0, 70, 88
2, 38352, Note_on_c, 0, 70, 0
2, 38352, Note_on_c, 0, 72, 88
2, 38364, Note_on_c, 0, 72, 0
2, 38364, Note_on_c, 0, 70, 88
2, 38376, Note_on_c, 0, 70, 0
2, 38376, Note_on_c, 0, 68, 88
2, 38386, Note_on_c, 0, 68, 0
2, 38388, Note_on_c, 0, 70, 88
2, 38398, Note_on_c, 0, 70, 0
2, 38400, Note_on_c, 0, 79, 88
2, 38448, Note_on_c, 0, 79, 0
2, 38448, Note_on_c, 0, 77, 88
2, 38496, Note_on_c, 0, 77, 0
2, 38496, Note_on_c, 0, 76, 88
2, 38544, Note_on_c, 0, 76, 0
2, 38544, Note_on_c, 0, 74, 88
2, 38592, Note_on_c, 0, 74, 0
2, 38592, Note_on_c, 0, 72, 88
2, 38640, Note_on_c, 0, 72, 0
2, 38640, Note_on_c, 0, 70, 88
2, 38688, Note_on_c, 0, 70, 0
2, 38688, Note_on_c, 0, 68, 88
2, 38736, Note_on_c, 0, 68, 0
2, 38736, Note_on_c, 0, 67, 88
2, 38784, Note_on_c, 0, 67, 0
2, 38784, Note_on_c, 0, 67, 88
2, 38880, Note_on_c, 0, 67, 0
2, 38880, Note_on_c, 0, 68, 88
2, 38976, Note_on_c, 0, 68, 0
2, 39048, Note_on_c, 0, 68, 88
2, 39069, Note_on_c, 0, 68, 0
2, 39072, Note_on_c, 0, 70, 88
2, 39084, Note_on_c, 0, 70, 0
2, 39084, Note_on_c, 0, 68, 88
2, 39096, Note_on_c, 0, 68, 0
2, 39096, Note_on_c, 0, 70, 88
2, 39108, Note_on_c, 0, 70, 0
2, 39108, Note_on_c, 0, 68, 88
2, 39120, Note_on_c, 0, 68, 0
2, 39120, Note_on_c, 0, 70, 88
2, 39132, Note_on_c, 0, 70, 0
2, 39132, Note_on_c, 0, 68, 88
2, 39144, Note_on_c, 0, 68, 0
2, 39144, Note_on_c, 0, 67, 88
2, 39154, Note_on_c, 0, 67, 0
2, 39156, Note_on_c, 0, 68, 88
2, 39166, Note_on_c, 0, 68, 0
2, 39168, Note_on_c, 0, 72, 88
2, 39264, Note_on_c, 0, 72, 0
2, 39264, Note_on_c, 0, 68, 88
2, 39360, Note_on_c, 0, 68, 0
2, 39432, Note_on_c, 0, 68, 88
2, 39453, Note_on_c, 0, 68, 0
2, 39456, Note_on_c, 0, 70, 88
2, 39468, Note_on_c, 0, 70, 0
2, 39468, Note_on_c, 0, 68, 88
2, 39480, Note_on_c, 0, 68, 0
2, 39480, Note_on_c, 0, 70, 88
2, 39492, Note_on_c, 0, 70, 0
2, 39492, Note_on_c, 0, 68, 88
2, 39504, Note_on_c, 0, 68, 0
2, 39504, Note_on_c, 0, 70, 88
2, 39516, Note_on_c, 0, 70, 0
2, 39516, Note_on_c, 0, 68, 88
2, 39528, Note_on_c, 0, 68, 0
2, 39528, Note_on_c, 0, 67, 88
2, 39538, Note_on_c, 0, 67, 0
2, 39540, Note_on_c, 0, 68, 88
2, 39550, Note_on_c, 0, 68, 0
2, 39552, Note_on_c, 0, 77, 88
2, 39600, Note_on_c, 0, 77, 0
2, 39600, Note_on_c, 0, 75, 88
2, 39648, Note_on_c, 0, 75, 0
2, 39648, Note_on_c, 0, 74, 88
2, 39696, Note_on_c, 0, 74, 0
2, 39696, Note_on_c, 0, 72, 88
2, 39744, Note_on_c, 0, 72, 0
2, 39744, Note_on_c, 0, 70, 88
2, 39792, Note_on_c, 0, 70, 0
2, 39792, Note_on_c, 0, 68, 88
2, 39840, Note_on_c, 0, 68, 0
2, 39840, Note_on_c, 0, 67, 88
2, 39888, Note_on_c, 0, 67, 0
2, 39888, Note_on_c, 0, 65, 88
2, 39936, Note_on_c, 0, 65, 0
2, 39936, Note_on_c, 0, 66, 88
2, 40032, Note_on_c, 0, 66, 0
2, 40032, Note_on_c, 0, 67, 88
2, 40128, Note_on_c, 0, 67, 0
2, 40128, End_track
3, 0, Start_track
3, 0, Program_c, 1, 0
3, 0, Note_on_c, 1, 48, 88
3, 86, Note_on_c, 1, 48, 0
3, 288, Note_on_c, 1, 48, 88
3, 374, Note_on_c, 1, 48, 0
3, 384, Note_on_c, 1, 43, 88
3, 470, Note_on_c, 1, 43, 0
3, 624, Note_on_c, 1, 55, 88
3, 667, Note_on_c, 1, 55, 0
3, 672, Note_on_c, 1, 50, 88
3, 715, Note_on_c, 1, 50, 0
3, 720, Note_on_c, 1, 47, 88
3, 763, Note_on_c, 1, 47, 0
3, 768, Note_on_c, 1, 43, 88
3, 854, Note_on_c, 1, 43, 0
3, 1056, Note_on_c, 1, 43, 88
3, 1142, Note_on_c, 1, 43, 0
3, 1152, Note_on_c, 1, 48, 88
3, 1238, Note_on_c, 1, 48, 0
3, 1392, Note_on_c, 1, 60, 88
3, 1435, Note_on_c, 1, 60, 0
3, 1440, Note_on_c, 1, 55, 88
3, 1483, Note_on_c, 1, 55, 0
3, 1488, Note_on_c, 1, 52, 88
3, 1531, Note_on_c, 1, 52, 0
3, 1536, Note_on_c, 1, 48, 88
3, 1622, Note_on_c, 1, 48, 0
3, 1632, Note_on_c, 1, 60, 88
3, 1718, Note_on_c, 1, 60, 0
3, 1728, Note_on_c, 1, 62, 88
3, 1900, Note_on_c, 1, 62, 0
3, 1920, Note_on_c, 1, 50, 88
3, 2006, Note_on_c, 1, 50, 0
3, 2016, Note_on_c, 1, 62, 88
3, 2102, Note_on_c, 1, 62, 0
3, 2112, Note_on_c, 1, 64, 88
3, 2284, Note_on_c, 1, 64, 0
3, 2304, Note_on_c, 1, 52, 88
3, 2390, Note_on_c, 1, 52, 0
3, 2400, Note_on_c, 1, 64, 88
3, 2486, Note_on_c, 1, 64, 0
3, 2496, Note_on_c, 1, 65, 88
3, 2668, Note_on_c, 1, 65, 0
3, 2688, Note_on_c, 1, 53, 88
3, 2731, Note_on_c, 1, 53, 0
3, 2736, Note_on_c, 1, 55, 88
3, 2779, Note_on_c, 1, 55, 0
3, 2784, Note_on_c, 1, 57, 88
3, 2827, Note_on_c, 1, 57, 0
3, 2832, Note_on_c, 1, 54, 88
3, 2875, Note_on_c, 1, 54, 0
3, 2880, Note_on_c, 1, 55, 88
3, 2923, Note_on_c, 1, 55, 0
3, 2928, Note_on_c, 1, 55, 88
3, 2971, Note_on_c, 1, 55, 0
3, 2976, Note_on_c, 1, 50, 88
3, 3019, Note_on_c, 1, 50, 0
3, 3024, Note_on_c, 1, 48, 88
3, 3067, Note_on_c, 1, 48, 0
3, 3072, Note_on_c, 1, 47, 88
3, 3158, Note_on_c, 1, 47, 0
3, 3168, Note_on_c, 1, 59, 88
3, 3254, Note_on_c, 1, 59, 0
3, 3264, Note_on_c, 1, 60, 88
3, 3350, Note_on_c, 1, 60, 0
3, 3456, Note_on_c, 1, 61, 88
3, 3542, Note_on_c, 1, 61, 0
3, 3552, Note_on_c, 1, 49, 88
3, 3638, Note_on_c, 1, 49, 0
3, 3648, Note_on_c, 1, 50, 88
3, 3734, Note_on_c, 1, 50, 0
3, 3840, Note_on_c, 1, 51, 88
3, 3926, Note_on_c, 1, 51, 0
3, 3936, Note_on_c, 1, 63, 88
3, 4022, Note_on_c, 1, 63, 0
3, 4032, Note_on_c, 1, 64, 88
3, 4118, Note_on_c, 1, 64, 0
3, 4224, Note_on_c, 1, 64, 88
3, 4310, Note_on_c, 1, 64, 0
3, 4320, Note_on_c, 1, 52, 88
3, 4406, Note_on_c, 1, 52, 0
3, 4416, Note_on_c, 1, 54, 88
3, 4502, Note_on_c, 1, 54, 0
3, 4608, Note_on_c, 1, 54, 88
3, 4694, Note_on_c, 1, 54, 0
3, 4704, Note_on_c, 1, 66, 88
3, 4790, Note_on_c, 1, 66, 0
3, 4800, Note_on_c, 1, 67, 88
3, 4843, Note_on_c, 1, 67, 0
3, 4848, Note_on_c, 1, 55, 88
3, 4891, Note_on_c, 1, 55, 0
3, 4896, Note_on_c, 1, 57, 88
3, 4939, Note_on_c, 1, 57, 0
3, 4944, Note_on_c, 1, 59, 88
3, 4987, Note_on_c, 1, 59, 0
3, 4992, Note_on_c, 1, 60, 88
3, 5035, Note_on_c, 1, 60, 0
3, 5040, Note_on_c, 1, 60, 88
3, 5083, Note_on_c, 1, 60, 0
3, 5088, Note_on_c, 1, 60, 88
3, 5131, Note_on_c, 1, 60, 0
3, 5136, Note_on_c, 1, 60, 88
3, 5179, Note_on_c, 1, 60, 0
3, 5184, Note_on_c, 1, 60, 88
3, 5227, Note_on_c, 1, 60, 0
3, 5232, Note_on_c, 1, 60, 88
3, 5275, Note_on_c, 1, 60, 0
3, 5280, Note_on_c, 1, 60, 88
3, 5323, Note_on_c, 1, 60, 0
3, 5328, Note_on_c, 1, 60, 88
3, 5371, Note_on_c, 1, 60, 0
3, 5376, Note_on_c, 1, 59, 88
3, 5419, Note_on_c, 1, 59, 0
3, 5424, Note_on_c, 1, 59, 88
3, 5467, Note_on_c, 1, 59, 0
3, 5472, Note_on_c, 1, 59, 88
3, 5515, Note_on_c, 1, 59, 0
3, 5520, Note_on_c, 1, 59, 88
3, 5563, Note_on_c, 1, 59, 0
3, 5568, Note_on_c, 1, 59, 88
3, 5611, Note_on_c, 1, 59, 0
3, 5616, Note_on_c, 1, 59, 88
3, 5659, Note_on_c, 1, 59, 0
3, 5664, Note_on_c, 1, 59, 88
3, 5707, Note_on_c, 1, 59, 0
3, 5712, Note_on_c, 1, 59, 88
3, 5755, Note_on_c, 1, 59, 0
3, 5760, Note_on_c, 1, 57, 88
3, 5803, Note_on_c, 1, 57, 0
3, 5808, Note_on_c, 1, 57, 88
3, 5851, Note_on_c, 1, 57, 0
3, 5856, Note_on_c, 1, 57, 88
3, 5899, Note_on_c, 1, 57, 0
3, 5904, Note_on_c, 1, 57, 88
3, 5947, Note_on_c, 1, 57, 0
3, 5952, Note_on_c, 1, 50, 88
3, 5995, Note_on_c, 1, 50, 0
3, 6000, Note_on_c, 1, 50, 88
3, 6043, Note_on_c, 1, 50, 0
3, 6048, Note_on_c, 1, 50, 88
3, 6091, Note_on_c, 1, 50, 0
3, 6096, Note_on_c, 1, 50, 88
3, 6139, Note_on_c, 1, 50, 0
3, 6144, Note_on_c, 1, 55, 88
3, 6187, Note_on_c, 1, 55, 0
3, 6192, Note_on_c, 1, 55, 88
3, 6235, Note_on_c, 1, 55, 0
3, 6240, Note_on_c, 1, 57, 88
3, 6283, Note_on_c, 1, 57, 0
3, 6288, Note_on_c, 1, 57, 88
3, 6331, Note_on_c, 1, 57, 0
3, 6336, Note_on_c, 1, 59, 88
3, 6508, Note_on_c, 1, 59, 0
3, 6528, Note_on_c, 1, 60, 88
3, 6571, Note_on_c, 1, 60, 0
3, 6576, Note_on_c, 1, 48, 88
3, 6619, Note_on_c, 1, 48, 0
3, 6624, Note_on_c, 1, 60, 88
3, 6667, Note_on_c, 1, 60, 0
3, 6672, Note_on_c, 1, 59, 88
3, 6715, Note_on_c, 1, 59, 0
3, 6720, Note_on_c, 1, 57, 88
3, 6892, Note_on_c, 1, 57, 0
3, 6912, Note_on_c, 1, 59, 88
3, 6955, Note_on_c, 1, 59, 0
3, 6960, Note_on_c, 1, 47, 88
3, 7003, Note_on_c, 1, 47, 0
3, 7008, Note_on_c, 1, 59, 88
3, 7051, Note_on_c, 1, 59, 0
3, 7056, Note_on_c, 1, 57, 88
3, 7099, Note_on_c, 1, 57, 0
3, 7104, Note_on_c, 1, 55, 88
3, 7276, Note_on_c, 1, 55, 0
3, 7296, Note_on_c, 1, 57, 88
3, 7339, Note_on_c, 1, 57, 0
3, 7344, Note_on_c, 1, 45, 88
3, 7387, Note_on_c, 1, 45, 0
3, 7392, Note_on_c, 1, 57, 88
3, 7435, Note_on_c, 1, 57, 0
3, 7440, Note_on_c, 1, 55, 88
3, 7483, Note_on_c, 1, 55, 0
3, 7488, Note_on_c, 1, 54, 88
3, 7660, Note_on_c, 1, 54, 0
3, 7680, Note_on_c, 1, 55, 88
3, 7723, Note_on_c, 1, 55, 0
3, 7728, Note_on_c, 1, 55, 88
3, 7771, Note_on_c, 1, 55, 0
3, 7776, Note_on_c, 1, 55, 88
3, 7819, Note_on_c, 1, 55, 0
3, 7824, Note_on_c, 1, 55, 88
3, 7867, Note_on_c, 1, 55, 0
3, 7872, Note_on_c, 1, 55, 88
3, 7915, Note_on_c, 1, 55, 0
3, 7920, Note_on_c, 1, 55, 88
3, 7963, Note_on_c, 1, 55, 0
3, 7968, Note_on_c, 1, 55, 88
3, 8011, Note_on_c, 1, 55, 0
3, 8016, Note_on_c, 1, 55, 88
3, 8059, Note_on_c, 1, 55, 0
3, 8064, Note_on_c, 1, 55, 88
3, 8107, Note_on_c, 1, 55, 0
3, 8112, Note_on_c, 1, 55, 88
3, 8155, Note_on_c, 1, 55, 0
3, 8160, Note_on_c, 1, 55, 88
3, 8203, Note_on_c, 1, 55, 0
3, 8208, Note_on_c, 1, 55, 88
3, 8251, Note_on_c, 1, 55, 0
3, 8256, Note_on_c, 1, 55, 88
3, 8299, Note_on_c, 1, 55, 0
3, 8304, Note_on_c, 1, 55, 88
3, 8347, Note_on_c, 1, 55, 0
3, 8352, Note_on_c, 1, 55, 88
3, 8395, Note_on_c, 1, 55, 0
3, 8400, Note_on_c, 1, 55, 88
3, 8443, Note_on_c, 1, 55, 0
3, 8448, Note_on_c, 1, 55, 88
3, 8491, Note_on_c, 1, 55, 0
3, 8496, Note_on_c, 1, 55, 88
3, 8539, Note_on_c, 1, 55, 0
3, 8544, Note_on_c, 1, 55, 88
3, 8587, Note_on_c, 1, 55, 0
3, 8592, Note_on_c, 1, 55, 88
3, 8635, Note_on_c, 1, 55, 0
3, 8640, Note_on_c, 1, 55, 88
3, 8683, Note_on_c, 1, 55, 0
3, 8688, Note_on_c, 1, 55, 88
3, 8731, Note_on_c, 1, 55, 0
3, 8736, Note_on_c, 1, 55, 88
3, 8779, Note_on_c, 1, 55, 0
3, 8784, Note_on_c, 1, 55, 88
3, 8827, Note_on_c, 1, 55, 0
3, 8832, Note_on_c, 1, 55, 88
3, 8875, Note_on_c, 1, 55, 0
3, 8880, Note_on_c, 1, 55, 88
3, 8923, Note_on_c, 1, 55, 0
3, 8928, Note_on_c, 1, 55, 88
3, 8971, Note_on_c, 1, 55, 0
3, 8976, Note_on_c, 1, 55, 88
3, 9019, Note_on_c, 1, 55, 0
3, 9024, Note_on_c, 1, 55, 88
3, 9067, Note_on_c, 1, 55, 0
3, 9072, Note_on_c, 1, 55, 88
3, 9115, Note_on_c, 1, 55, 0
3, 9120, Note_on_c, 1, 55, 88
3, 9163, Note_on_c, 1, 55, 0
3, 9168, Note_on_c, 1, 55, 88
3, 9211, Note_on_c, 1, 55, 0
3, 9216, Note_on_c, 1, 55, 88
3, 9259, Note_on_c, 1, 55, 0
3, 9264, Note_on_c, 1, 55, 88
3, 9307, Note_on_c, 1, 55, 0
3, 9312, Note_on_c, 1, 55, 88
3, 9355, Note_on_c, 1, 55, 0
3, 9360, Note_on_c, 1, 55, 88
3, 9403, Note_on_c, 1, 55, 0
3, 9408, Note_on_c, 1, 55, 88
3, 9451, Note_on_c, 1, 55, 0
3, 9456, Note_on_c, 1, 55, 88
3, 9499, Note_on_c, 1, 55, 0
3, 9504, Note_on_c, 1, 55, 88
3, 9547, Note_on_c, 1, 55, 0
3, 9552, Note_on_c, 1, 55, 88
3, 9595, Note_on_c, 1, 55, 0
3, 9600, Note_on_c, 1, 55, 88
3, 9686, Note_on_c, 1, 55, 0
3, 9792, Note_on_c, 1, 52, 88
3, 9835, Note_on_c, 1, 52, 0
3, 9840, Note_on_c, 1, 52, 88
3, 9883, Note_on_c, 1, 52, 0
3, 9888, Note_on_c, 1, 52, 88
3, 9931, Note_on_c, 1, 52, 0
3, 9936, Note_on_c, 1, 52, 88
3, 9979, Note_on_c, 1, 52, 0
3, 9984, Note_on_c, 1, 48, 88
3, 10027, Note_on_c, 1, 48, 0
3, 10032, Note_on_c, 1, 48, 88
3, 10075, Note_on_c, 1, 48, 0
3, 10080, Note_on_c, 1, 48, 88
3, 10123, Note_on_c, 1, 48, 0
3, 10128, Note_on_c, 1, 48, 88
3, 10171, Note_on_c, 1, 48, 0
3, 10176, Note_on_c, 1, 48, 88
3, 10219, Note_on_c, 1, 48, 0
3, 10224, Note_on_c, 1, 48, 88
3, 10267, Note_on_c, 1, 48, 0
3, 10272, Note_on_c, 1, 48, 88
3, 10315, Note_on_c, 1, 48, 0
3, 10320, Note_on_c, 1, 48, 88
3, 10363, Note_on_c, 1, 48, 0
3, 10368, Note_on_c, 1, 49, 88
3, 10411, Note_on_c, 1, 49, 0
3, 10416, Note_on_c, 1, 49, 88
3, 10459, Note_on_c, 1, 49, 0
3, 10464, Note_on_c, 1, 49, 88
3, 10507, Note_on_c, 1, 49, 0
3, 10512, Note_on_c, 1, 49, 88
3, 10555, Note_on_c, 1, 49, 0
3, 10560, Note_on_c, 1, 49, 88
3, 10603, Note_on_c, 1, 49, 0
3, 10608, Note_on_c, 1, 49, 88
3, 10651, Note_on_c, 1, 49, 0
3, 10656, Note_on_c, 1, 49, 88
3, 10699, Note_on_c, 1, 49, 0
3, 10704, Note_on_c, 1, 49, 88
3, 10747, Note_on_c, 1, 49, 0
3, 10752, Note_on_c, 1, 50, 88
3, 10795, Note_on_c, 1, 50, 0
3, 10800, Note_on_c, 1, 50, 88
3, 10843, Note_on_c, 1, 50, 0
3, 10848, Note_on_c, 1, 50, 88
3, 10891, Note_on_c, 1, 50, 0
3, 10896, Note_on_c, 1, 50, 88
3, 10939, Note_on_c, 1, 50, 0
3, 10944, Note_on_c, 1, 50, 88
3, 10987, Note_on_c, 1, 50, 0
3, 10992, Note_on_c, 1, 50, 88
3, 11035, Note_on_c, 1, 50, 0
3, 11040, Note_on_c, 1, 50, 88
3, 11083, Note_on_c, 1, 50, 0
3, 11088, Note_on_c, 1, 50, 88
3, 11131, Note_on_c, 1, 50, 0
3, 11136, Note_on_c, 1, 50, 88
3, 11179, Note_on_c, 1, 50, 0
3, 11184, Note_on_c, 1, 50, 88
3, 11227, Note_on_c, 1, 50, 0
3, 11232, Note_on_c, 1, 50, 88
3, 11275, Note_on_c, 1, 50, 0
3, 11280, Note_on_c, 1, 50, 88
3, 11323, Note_on_c, 1, 50, 0
3, 11328, Note_on_c, 1, 50, 88
3, 11371, Note_on_c, 1, 50, 0
3, 11376, Note_on_c, 1, 50, 88
3, 11419, Note_on_c, 1, 50, 0
3, 11424, Note_on_c, 1, 50, 88
3, 11467, Note_on_c, 1, 50, 0
3, 11472, Note_on_c, 1, 50, 88
3, 11515, Note_on_c, 1, 50, 0
3, 11520, Note_on_c, 1, 43, 88
3, 11563, Note_on_c, 1, 43, 0
3, 11568, Note_on_c, 1, 55, 88
3, 11611, Note_on_c, 1, 55, 0
3, 11616, Note_on_c, 1, 57, 88
3, 11659, Note_on_c, 1, 57, 0
3, 11664, Note_on_c, 1, 59, 88
3, 11707, Note_on_c, 1, 59, 0
3, 11712, Note_on_c, 1, 60, 88
3, 11798, Note_on_c, 1, 60, 0
3, 12000, Note_on_c, 1, 62, 88
3, 12086, Note_on_c, 1, 62, 0
3, 12192, Note_on_c, 1, 47, 88
3, 12278, Note_on_c, 1, 47, 0
3, 12336, Note_on_c, 1, 55, 88
3, 12379, Note_on_c, 1, 55, 0
3, 12384, Note_on_c, 1, 57, 88
3, 12427, Note_on_c, 1, 57, 0
3, 12432, Note_on_c, 1, 59, 88
3, 12475, Note_on_c, 1, 59, 0
3, 12480, Note_on_c, 1, 60, 88
3, 12566, Note_on_c, 1, 60, 0
3, 12768, Note_on_c, 1, 62, 88
3, 12854, Note_on_c, 1, 62, 0
3, 12960, Note_on_c, 1, 50, 88
3, 13046, Note_on_c, 1, 50, 0
3, 13056, Note_on_c, 1, 55, 88
3, 13401, Note_on_c, 1, 55, 0
3, 13440, Note_on_c, 1, 49, 88
3, 13785, Note_on_c, 1, 49, 0
3, 13824, Note_on_c, 1, 48, 88
3, 13996, Note_on_c, 1, 48, 0
3, 14016, Note_on_c, 1, 47, 88
3, 14102, Note_on_c, 1, 47, 0
3, 14112, Note_on_c, 1, 48, 88
3, 14198, Note_on_c, 1, 48, 0
3, 14208, Note_on_c, 1, 50, 88
3, 14251, Note_on_c, 1, 50, 0
3, 14256, Note_on_c, 1, 50, 88
3, 14299, Note_on_c, 1, 50, 0
3, 14304, Note_on_c, 1, 62, 88
3, 14390, Note_on_c, 1, 62, 0
3, 14448, Note_on_c, 1, 50, 88
3, 14491, Note_on_c, 1, 50, 0
3, 14496, Note_on_c, 1, 62, 88
3, 14582, Note_on_c, 1, 62, 0
3, 14640, Note_on_c, 1, 50, 88
3, 14683, Note_on_c, 1, 50, 0
3, 14688, Note_on_c, 1, 62, 88
3, 14774, Note_on_c, 1, 62, 0
3, 14976, Note_on_c, 1, 50, 88
3, 15062, Note_on_c, 1, 50, 0
3, 15168, Note_on_c, 1, 50, 88
3, 15254, Note_on_c, 1, 50, 0
3, 15360, Note_on_c, 1, 50, 88
3, 15446, Note_on_c, 1, 50, 0
3, 15744, Note_on_c, 1, 50, 88
3, 15787, Note_on_c, 1, 50, 0
3, 15792, Note_on_c, 1, 50, 88
3, 15835, Note_on_c, 1, 50, 0
3, 15840, Note_on_c, 1, 50, 88
3, 15883, Note_on_c, 1, 50, 0
3, 15888, Note_on_c, 1, 50, 88
3, 15931, Note_on_c, 1, 50, 0
3, 15936, Note_on_c, 1, 50, 88
3, 15979, Note_on_c, 1, 50, 0
3, 15984, Note_on_c, 1, 50, 88
3, 16027, Note_on_c, 1, 50, 0
3, 16032, Note_on_c, 1, 50, 88
3, 16075, Note_on_c, 1, 50, 0
3, 16080, Note_on_c, 1, 50, 88
3, 16123, Note_on_c, 1, 50, 0
3, 16128, Note_on_c, 1, 50, 88
3, 16171, Note_on_c, 1, 50, 0
3, 16176, Note_on_c, 1, 50, 88
3, 16219, Note_on_c, 1, 50, 0
3, 16224, Note_on_c, 1, 50, 88
3, 16267, Note_on_c, 1, 50, 0
3, 16272, Note_on_c, 1, 50, 88
3, 16315, Note_on_c, 1, 50, 0
3, 16320, Note_on_c, 1, 50, 88
3, 16363, Note_on_c, 1, 50, 0
3, 16368, Note_on_c, 1, 50, 88
3, 16411, Note_on_c, 1, 50, 0
3, 16416, Note_on_c, 1, 50, 88
3, 16459, Note_on_c, 1, 50, 0
3, 16464, Note_on_c, 1, 50, 88
3, 16507, Note_on_c, 1, 50, 0
3, 16512, Note_on_c, 1, 43, 88
3, 16555, Note_on_c, 1, 43, 0
3, 16560, Note_on_c, 1, 55, 88
3, 16603, Note_on_c, 1, 55, 0
3, 16608, Note_on_c, 1, 55, 88
3, 16651, Note_on_c, 1, 55, 0
3, 16656, Note_on_c, 1, 55, 88
3, 16699, Note_on_c, 1, 55, 0
3, 16704, Note_on_c, 1, 55, 88
3, 16747, Note_on_c, 1, 55, 0
3, 16752, Note_on_c, 1, 53, 88
3, 16795, Note_on_c, 1, 53, 0
3, 16800, Note_on_c, 1, 52, 88
3, 16843, Note_on_c, 1, 52, 0
3, 16848, Note_on_c, 1, 50, 88
3, 16891, Note_on_c, 1, 50, 0
3, 16896, Note_on_c, 1, 48, 88
3, 16982, Note_on_c, 1, 48, 0
3, 17184, Note_on_c, 1, 48, 88
3, 17270, Note_on_c, 1, 48, 0
3, 17280, Note_on_c, 1, 43, 88
3, 17366, Note_on_c, 1, 43, 0
3, 17520, Note_on_c, 1, 55, 88
3, 17563, Note_on_c, 1, 55, 0
3, 17568, Note_on_c, 1, 50, 88
3, 17611, Note_on_c, 1, 50, 0
3, 17616, Note_on_c, 1, 47, 88
3, 17659, Note_on_c, 1, 47, 0
3, 17664, Note_on_c, 1, 43, 88
3, 17750, Note_on_c, 1, 43, 0
3, 17952, Note_on_c, 1, 43, 88
3, 18038, Note_on_c, 1, 43, 0
3, 18048, Note_on_c, 1, 48, 88
3, 18134, Note_on_c, 1, 48, 0
3, 18288, Note_on_c, 1, 60, 88
3, 18331, Note_on_c, 1, 60, 0
3, 18336, Note_on_c, 1, 55, 88
3, 18379, Note_on_c, 1, 55, 0
3, 18384, Note_on_c, 1, 52, 88
3, 18427, Note_on_c, 1, 52, 0
3, 18432, Note_on_c, 1, 48, 88
3, 18518, Note_on_c, 1, 48, 0
3, 18528, Note_on_c, 1, 60, 88
3, 18614, Note_on_c, 1, 60, 0
3, 18624, Note_on_c, 1, 62, 88
3, 18796, Note_on_c, 1, 62, 0
3, 18816, Note_on_c, 1, 50, 88
3, 18902, Note_on_c, 1, 50, 0
3, 18912, Note_on_c, 1, 62, 88
3, 18998, Note_on_c, 1, 62, 0
3, 19008, Note_on_c, 1, 64, 88
3, 19180, Note_on_c, 1, 64, 0
3, 19200, Note_on_c, 1, 52, 88
3, 19286, Note_on_c, 1, 52, 0
3, 19296, Note_on_c, 1, 64, 88
3, 19382, Note_on_c, 1, 64, 0
3, 19392, Note_on_c, 1, 65, 88
3, 19564, Note_on_c, 1, 65, 0
3, 19584, Note_on_c, 1, 53, 88
3, 19627, Note_on_c, 1, 53, 0
3, 19632, Note_on_c, 1, 55, 88
3, 19675, Note_on_c, 1, 55, 0
3, 19680, Note_on_c, 1, 57, 88
3, 19723, Note_on_c, 1, 57, 0
3, 19728, Note_on_c, 1, 54, 88
3, 19771, Note_on_c, 1, 54, 0
3, 19776, Note_on_c, 1, 55, 88
3, 19819, Note_on_c, 1, 55, 0
3, 19824, Note_on_c, 1, 55, 88
3, 19867, Note_on_c, 1, 55, 0
3, 19872, Note_on_c, 1, 50, 88
3, 19915, Note_on_c, 1, 50, 0
3, 19920, Note_on_c, 1, 48, 88
3, 19963, Note_on_c, 1, 48, 0
3, 19968, Note_on_c, 1, 47, 88
3, 20054, Note_on_c, 1, 47, 0
3, 20064, Note_on_c, 1, 59, 88
3, 20150, Note_on_c, 1, 59, 0
3, 20160, Note_on_c, 1, 60, 88
3, 20246, Note_on_c, 1, 60, 0
3, 20352, Note_on_c, 1, 61, 88
3, 20438, Note_on_c, 1, 61, 0
3, 20448, Note_on_c, 1, 49, 88
3, 20534, Note_on_c, 1, 49, 0
3, 20544, Note_on_c, 1, 50, 88
3, 20630, Note_on_c, 1, 50, 0
3, 20736, Note_on_c, 1, 51, 88
3, 20822, Note_on_c, 1, 51, 0
3, 20832, Note_on_c, 1, 63, 88
3, 20918, Note_on_c, 1, 63, 0
3, 20928, Note_on_c, 1, 64, 88
3, 21014, Note_on_c, 1, 64, 0
3, 21120, Note_on_c, 1, 64, 88
3, 21206, Note_on_c, 1, 64, 0
3, 21216, Note_on_c, 1, 52, 88
3, 21302, Note_on_c, 1, 52, 0
3, 21312, Note_on_c, 1, 54, 88
3, 21398, Note_on_c, 1, 54, 0
3, 21504, Note_on_c, 1, 54, 88
3, 21590, Note_on_c, 1, 54, 0
3, 21600, Note_on_c, 1, 66, 88
3, 21686, Note_on_c, 1, 66, 0
3, 21696, Note_on_c, 1, 67, 88
3, 21739, Note_on_c, 1, 67, 0
3, 21744, Note_on_c, 1, 55, 88
3, 21787, Note_on_c, 1, 55, 0
3, 21792, Note_on_c, 1, 57, 88
3, 21835, Note_on_c, 1, 57, 0
3, 21840, Note_on_c, 1, 59, 88
3, 21883, Note_on_c, 1, 59, 0
3, 21888, Note_on_c, 1, 60, 88
3, 21931, Note_on_c, 1, 60, 0
3, 21936, Note_on_c, 1, 60, 88
3, 21979, Note_on_c, 1, 60, 0
3, 21984, Note_on_c, 1, 60, 88
3, 22027, Note_on_c, 1, 60, 0
3, 22032, Note_on_c, 1, 60, 88
3, 22075, Note_on_c, 1, 60, 0
3, 22080, Note_on_c, 1, 60, 88
3, 22123, Note_on_c, 1, 60, 0
3, 22128, Note_on_c, 1, 60, 88
3, 22171, Note_on_c, 1, 60, 0
3, 22176, Note_on_c, 1, 60, 88
3, 22219, Note_on_c, 1, 60, 0
3, 22224, Note_on_c, 1, 60, 88
3, 22267, Note_on_c, 1, 60, 0
3, 22272, Note_on_c, 1, 59, 88
3, 22315, Note_on_c, 1, 59, 0
3, 22320, Note_on_c, 1, 59, 88
3, 22363, Note_on_c, 1, 59, 0
3, 22368, Note_on_c, 1, 59, 88
3, 22411, Note_on_c, 1, 59, 0
3, 22416, Note_on_c, 1, 59, 88
3, 22459, Note_on_c, 1, 59, 0
3, 22464, Note_on_c, 1, 59, 88
3, 22507, Note_on_c, 1, 59, 0
3, 22512, Note_on_c, 1, 59, 88
3, 22555, Note_on_c, 1, 59, 0
3, 22560, Note_on_c, 1, 59, 88
3, 22603, Note_on_c, 1, 59, 0
3, 22608, Note_on_c, 1, 59, 88
3, 22651, Note_on_c, 1, 59, 0
3, 22656, Note_on_c, 1, 57, 88
3, 22699, Note_on_c, 1, 57, 0
3, 22704, Note_on_c, 1, 57, 88
3, 22747, Note_on_c, 1, 57, 0
3, 22752, Note_on_c, 1, 57, 88
3, 22795, Note_on_c, 1, 57, 0
3, 22800, Note_on_c, 1, 57, 88
3, 22843, Note_on_c, 1, 57, 0
3, 22848, Note_on_c, 1, 50, 88
3, 22891, Note_on_c, 1, 50, 0
3, 22896, Note_on_c, 1, 50, 88
3, 22939, Note_on_c, 1, 50, 0
3, 22944, Note_on_c, 1, 50, 88
3, 22987, Note_on_c, 1, 50, 0
3, 22992, Note_on_c, 1, 50, 88
3, 23035, Note_on_c, 1, 50, 0
3, 23040, Note_on_c, 1, 55, 88
3, 23083, Note_on_c, 1, 55, 0
3, 23088, Note_on_c, 1, 55, 88
3, 23131, Note_on_c, 1, 55, 0
3, 23136, Note_on_c, 1, 57, 88
3, 23179, Note_on_c, 1, 57, 0
3, 23184, Note_on_c, 1, 57, 88
3, 23227, Note_on_c, 1, 57, 0
3, 23232, Note_on_c, 1, 59, 88
3, 23404, Note_on_c, 1, 59, 0
3, 23424, Note_on_c, 1, 60, 88
3, 23467, Note_on_c, 1, 60, 0
3, 23472, Note_on_c, 1, 48, 88
3, 23515, Note_on_c, 1, 48, 0
3, 23520, Note_on_c, 1, 60, 88
3, 23563, Note_on_c, 1, 60, 0
3, 23568, Note_on_c, 1, 59, 88
3, 23611, Note_on_c, 1, 59, 0
3, 23616, Note_on_c, 1, 57, 88
3, 23788, Note_on_c, 1, 57, 0
3, 23808, Note_on_c, 1, 59, 88
3, 23851, Note_on_c, 1, 59, 0
3, 23856, Note_on_c, 1, 47, 88
3, 23899, Note_on_c, 1, 47, 0
3, 23904, Note_on_c, 1, 59, 88
3, 23947, Note_on_c, 1, 59, 0
3, 23952, Note_on_c, 1, 57, 88
3, 23995, Note_on_c, 1, 57, 0
3, 24000, Note_on_c, 1, 55, 88
3, 24172, Note_on_c, 1, 55, 0
3, 24192, Note_on_c, 1, 57, 88
3, 24235, Note_on_c, 1, 57, 0
3, 24240, Note_on_c, 1, 45, 88
3, 24283, Note_on_c, 1, 45, 0
3, 24288, Note_on_c, 1, 57, 88
3, 24331, Note_on_c, 1, 57, 0
3, 24336, Note_on_c, 1, 55, 88
3, 24379, Note_on_c, 1, 55, 0
3, 24384, Note_on_c, 1, 54, 88
3, 24556, Note_on_c, 1, 54, 0
3, 24576, Note_on_c, 1, 55, 88
3, 24619, Note_on_c, 1, 55, 0
3, 24624, Note_on_c, 1, 55, 88
3, 24667, Note_on_c, 1, 55, 0
3, 24672, Note_on_c, 1, 55, 88
3, 24715, Note_on_c, 1, 55, 0
3, 24720, Note_on_c, 1, 55, 88
3, 24763, Note_on_c, 1, 55, 0
3, 24768, Note_on_c, 1, 55, 88
3, 24811, Note_on_c, 1, 55, 0
3, 24816, Note_on_c, 1, 55, 88
3, 24859, Note_on_c, 1, 55, 0
3, 24864, Note_on_c, 1, 55, 88
3, 24907, Note_on_c, 1, 55, 0
3, 24912, Note_on_c, 1, 55, 88
3, 24955, Note_on_c, 1, 55, 0
3, 24960, Note_on_c, 1, 55, 88
3, 25003, Note_on_c, 1, 55, 0
3, 25008, Note_on_c, 1, 55, 88
3, 25051, Note_on_c, 1, 55, 0
3, 25056, Note_on_c, 1, 55, 88
3, 25099, Note_on_c, 1, 55, 0
3, 25104, Note_on_c, 1, 55, 88
3, 25147, Note_on_c, 1, 55, 0
3, 25152, Note_on_c, 1, 55, 88
3, 25195, Note_on_c, 1, 55, 0
3, 25200, Note_on_c, 1, 55, 88
3, 25243, Note_on_c, 1, 55, 0
3, 25248, Note_on_c, 1, 55, 88
3, 25291, Note_on_c, 1, 55, 0
3, 25296, Note_on_c, 1, 55, 88
3, 25339, Note_on_c, 1, 55, 0
3, 25344, Note_on_c, 1, 55, 88
3, 25387, Note_on_c, 1, 55, 0
3, 25392, Note_on_c, 1, 55, 88
3, 25435, Note_on_c, 1, 55, 0
3, 25440, Note_on_c, 1, 55, 88
3, 25483, Note_on_c, 1, 55, 0
3, 25488, Note_on_c, 1, 55, 88
3, 25531, Note_on_c, 1, 55, 0
3, 25536, Note_on_c, 1, 55, 88
3, 25579, Note_on_c, 1, 55, 0
3, 25584, Note_on_c, 1, 55, 88
3, 25627, Note_on_c, 1, 55, 0
3, 25632, Note_on_c, 1, 55, 88
3, 25675, Note_on_c, 1, 55, 0
3, 25680, Note_on_c, 1, 55, 88
3, 25723, Note_on_c, 1, 55, 0
3, 25728, Note_on_c, 1, 55, 88
3, 25771, Note_on_c, 1, 55, 0
3, 25776, Note_on_c, 1, 55, 88
3, 25819, Note_on_c, 1, 55, 0
3, 25824, Note_on_c, 1, 55, 88
3, 25867, Note_on_c, 1, 55, 0
3, 25872, Note_on_c, 1, 55, 88
3, 25915, Note_on_c, 1, 55, 0
3, 25920, Note_on_c, 1, 55, 88
3, 25963, Note_on_c, 1, 55, 0
3, 25968, Note_on_c, 1, 55, 88
3, 26011, Note_on_c, 1, 55, 0
3, 26016, Note_on_c, 1, 55, 88
3, 26059, Note_on_c, 1, 55, 0
3, 26064, Note_on_c, 1, 55, 88
3, 26107, Note_on_c, 1, 55, 0
3, 26112, Note_on_c, 1, 55, 88
3, 26155, Note_on_c, 1, 55, 0
3, 26160, Note_on_c, 1, 55, 88
3, 26203, Note_on_c, 1, 55, 0
3, 26208, Note_on_c, 1, 55, 88
3, 26251, Note_on_c, 1, 55, 0
3, 26256, Note_on_c, 1, 55, 88
3, 26299, Note_on_c, 1, 55, 0
3, 26304, Note_on_c, 1, 55, 88
3, 26347, Note_on_c, 1, 55, 0
3, 26352, Note_on_c, 1, 55, 88
3, 26395, Note_on_c, 1, 55, 0
3, 26400, Note_on_c, 1, 55, 88
3, 26443, Note_on_c, 1, 55, 0
3, 26448, Note_on_c, 1, 55, 88
3, 26491, Note_on_c, 1, 55, 0
3, 26496, Note_on_c, 1, 55, 88
3, 26582, Note_on_c, 1, 55, 0
3, 26688, Note_on_c, 1, 52, 88
3, 26731, Note_on_c, 1, 52, 0
3, 26736, Note_on_c, 1, 52, 88
3, 26779, Note_on_c, 1, 52, 0
3, 26784, Note_on_c, 1, 52, 88
3, 26827, Note_on_c, 1, 52, 0
3, 26832, Note_on_c, 1, 52, 88
3, 26875, Note_on_c, 1, 52, 0
3, 26880, Note_on_c, 1, 48, 88
3, 26923, Note_on_c, 1, 48, 0
3, 26928, Note_on_c, 1, 48, 88
3, 26971, Note_on_c, 1, 48, 0
3, 26976, Note_on_c, 1, 48, 88
3, 27019, Note_on_c, 1, 48, 0
3, 27024, Note_on_c, 1, 48, 88
3, 27067, Note_on_c, 1, 48, 0
3, 27072, Note_on_c, 1, 48, 88
3, 27115, Note_on_c, 1, 48, 0
3, 27120, Note_on_c, 1, 48, 88
3, 27163, Note_on_c, 1, 48, 0
3, 27168, Note_on_c, 1, 48, 88
3, 27211, Note_on_c, 1, 48, 0
3, 27216, Note_on_c, 1, 48, 88
3, 27259, Note_on_c, 1, 48, 0
3, 27264, Note_on_c, 1, 49, 88
3, 27307, Note_on_c, 1, 49, 0
3, 27312, Note_on_c, 1, 49, 88
3, 27355, Note_on_c, 1, 49, 0
3, 27360, Note_on_c, 1, 49, 88
3, 27403, Note_on_c, 1, 49, 0
3, 27408, Note_on_c, 1, 49, 88
3, 27451, Note_on_c, 1, 49, 0
3, 27456, Note_on_c, 1, 49, 88
3, 27499, Note_on_c, 1, 49, 0
3, 27504, Note_on_c, 1, 49, 88
3, 27547, Note_on_c, 1, 49, 0
3, 27552, Note_on_c, 1, 49, 88
3, 27595, Note_on_c, 1, 49, 0
3, 27600, Note_on_c, 1, 49, 88
3, 27643, Note_on_c, 1, 49, 0
3, 27648, Note_on_c, 1, 50, 88
3, 27691, Note_on_c, 1, 50, 0
3, 27696, Note_on_c, 1, 50, 88
3, 27739, Note_on_c, 1, 50, 0
3, 27744, Note_on_c, 1, 50, 88
3, 27787, Note_on_c, 1, 50, 0
3, 27792, Note_on_c, 1, 50, 88
3, 27835, Note_on_c, 1, 50, 0
3, 27840, Note_on_c, 1, 50, 88
3, 27883, Note_on_c, 1, 50, 0
3, 27888, Note_on_c, 1, 50, 88
3, 27931, Note_on_c, 1, 50, 0
3, 27936, Note_on_c, 1, 50, 88
3, 27979, Note_on_c, 1, 50, 0
3, 27984, Note_on_c, 1, 50, 88
3, 28027, Note_on_c, 1, 50, 0
3, 28032, Note_on_c, 1, 50, 88
3, 28075, Note_on_c, 1, 50, 0
3, 28080, Note_on_c, 1, 50, 88
3, 28123, Note_on_c, 1, 50, 0
3, 28128, Note_on_c, 1, 50, 88
3, 28171, Note_on_c, 1, 50, 0
3, 28176, Note_on_c, 1, 50, 88
3, 28219, Note_on_c, 1, 50, 0
3, 28224, Note_on_c, 1, 50, 88
3, 28267, Note_on_c, 1, 50, 0
3, 28272, Note_on_c, 1, 50, 88
3, 28315, Note_on_c, 1, 50, 0
3, 28320, Note_on_c, 1, 50, 88
3, 28363, Note_on_c, 1, 50, 0
3, 28368, Note_on_c, 1, 50, 88
3, 28411, Note_on_c, 1, 50, 0
3, 28416, Note_on_c, 1, 43, 88
3, 28459, Note_on_c, 1, 43, 0
3, 28464, Note_on_c, 1, 55, 88
3, 28507, Note_on_c, 1, 55, 0
3, 28512, Note_on_c, 1, 57, 88
3, 28555, Note_on_c, 1, 57, 0
3, 28560, Note_on_c, 1, 59, 88
3, 28603, Note_on_c, 1, 59, 0
3, 28608, Note_on_c, 1, 60, 88
3, 28694, Note_on_c, 1, 60, 0
3, 28896, Note_on_c, 1, 62, 88
3, 28982, Note_on_c, 1, 62, 0
3, 29088, Note_on_c, 1, 47, 88
3, 29174, Note_on_c, 1, 47, 0
3, 29232, Note_on_c, 1, 55, 88
3, 29275, Note_on_c, 1, 55, 0
3, 29280, Note_on_c, 1, 57, 88
3, 29323, Note_on_c, 1, 57, 0
3, 29328, Note_on_c, 1, 59, 88
3, 29371, Note_on_c, 1, 59, 0
3, 29376, Note_on_c, 1, 60, 88
3, 29462, Note_on_c, 1, 60, 0
3, 29664, Note_on_c, 1, 62, 88
3, 29750, Note_on_c, 1, 62, 0
3, 29856, Note_on_c, 1, 50, 88
3, 29942, Note_on_c, 1, 50, 0
3, 29952, Note_on_c, 1, 55, 88
3, 30297, Note_on_c, 1, 55, 0
3, 30336, Note_on_c, 1, 49, 88
3, 30681, Note_on_c, 1, 49, 0
3, 30720, Note_on_c, 1, 48, 88
3, 30892, Note_on_c, 1, 48, 0
3, 30912, Note_on_c, 1, 47, 88
3, 30998, Note_on_c, 1, 47, 0
3, 31008, Note_on_c, 1, 48, 88
3, 31094, Note_on_c, 1, 48, 0
3, 31104, Note_on_c, 1, 50, 88
3, 31147, Note_on_c, 1, 50, 0
3, 31152, Note_on_c, 1, 50, 88
3, 31195, Note_on_c, 1, 50, 0
3, 31200, Note_on_c, 1, 62, 88
3, 31286, Note_on_c, 1, 62, 0
3, 31344, Note_on_c, 1, 50, 88
3, 31387, Note_on_c, 1, 50, 0
3, 31392, Note_on_c, 1, 62, 88
3, 31478, Note_on_c, 1, 62, 0
3, 31536, Note_on_c, 1, 50, 88
3, 31579, Note_on_c, 1, 50, 0
3, 31584, Note_on_c, 1, 62, 88
3, 31670, Note_on_c, 1, 62, 0
3, 31872, Note_on_c, 1, 50, 88
3, 31958, Note_on_c, 1, 50, 0
3, 32064, Note_on_c, 1, 50, 88
3, 32150, Note_on_c, 1, 50, 0
3, 32256, Note_on_c, 1, 50, 88
3, 32342, Note_on_c, 1, 50, 0
3, 32640, Note_on_c, 1, 50, 88
3, 32683, Note_on_c, 1, 50, 0
3, 32688, Note_on_c, 1, 50, 88
3, 32731, Note_on_c, 1, 50, 0
3, 32736, Note_on_c, 1, 50, 88
3, 32779, Note_on_c, 1, 50, 0
3, 32784, Note_on_c, 1, 50, 88
3, 32827, Note_on_c, 1, 50, 0
3, 32832, Note_on_c, 1, 50, 88
3, 32875, Note_on_c, 1, 50, 0
3, 32880, Note_on_c, 1, 50, 88
3, 32923, Note_on_c, 1, 50, 0
3, 32928, Note_on_c, 1, 50, 88
3, 32971, Note_on_c, 1, 50, 0
3, 32976, Note_on_c, 1, 50, 88
3, 33019, Note_on_c, 1, 50, 0
3, 33024, Note_on_c, 1, 50, 88
3, 33067, Note_on_c, 1, 50, 0
3, 33072, Note_on_c, 1, 50, 88
3, 33115, Note_on_c, 1, 50, 0
3, 33120, Note_on_c, 1, 50, 88
3, 33163, Note_on_c, 1, 50, 0
3, 33168, Note_on_c, 1, 50, 88
3, 33211, Note_on_c, 1, 50, 0
3, 33216, Note_on_c, 1, 50, 88
3, 33259, Note_on_c, 1, 50, 0
3, 33264, Note_on_c, 1, 50, 88
3, 33307, Note_on_c, 1, 50, 0
3, 33312, Note_on_c, 1, 50, 88
3, 33355, Note_on_c, 1, 50, 0
3, 33360, Note_on_c, 1, 50, 88
3, 33403, Note_on_c, 1, 50, 0
3, 33408, Note_on_c, 1, 43, 88
3, 33451, Note_on_c, 1, 43, 0
3, 33456, Note_on_c, 1, 55, 88
3, 33499, Note_on_c, 1, 55, 0
3, 33504, Note_on_c, 1, 55, 88
3, 33547, Note_on_c, 1, 55, 0
3, 33552, Note_on_c, 1, 55, 88
3, 33595, Note_on_c, 1, 55, 0
3, 33600, Note_on_c, 1, 55, 88
3, 33648, Note_on_c, 1, 55, 0
3, 33648, Note_on_c, 1, 56, 88
3, 33696, Note_on_c, 1, 56, 0
3, 33696, Note_on_c, 1, 59, 88
3, 33720, Note_on_c, 1, 59, 0
3, 33744, Note_on_c, 1, 56, 88
3, 33768, Note_on_c, 1, 56, 0
3, 33792, Note_on_c, 1, 57, 88
3, 33835, Note_on_c, 1, 57, 0
3, 33840, Note_on_c, 1, 55, 88
3, 33883, Note_on_c, 1, 55, 0
3, 33888, Note_on_c, 1, 53, 88
3, 33931, Note_on_c, 1, 53, 0
3, 33936, Note_on_c, 1, 51, 88
3, 33979, Note_on_c, 1, 51, 0
3, 33984, Note_on_c, 1, 50, 88
3, 34027, Note_on_c, 1, 50, 0
3, 34032, Note_on_c, 1, 43, 88
3, 34075, Note_on_c, 1, 43, 0
3, 34080, Note_on_c, 1, 45, 88
3, 34123, Note_on_c, 1, 45, 0
3, 34128, Note_on_c, 1, 47, 88
3, 34171, Note_on_c, 1, 47, 0
3, 34176, Note_on_c, 1, 51, 88
3, 34219, Note_on_c, 1, 51, 0
3, 34224, Note_on_c, 1, 51, 88
3, 34267, Note_on_c, 1, 51, 0
3, 34272, Note_on_c, 1, 51, 88
3, 34315, Note_on_c, 1, 51, 0
3, 34320, Note_on_c, 1, 51, 88
3, 34363, Note_on_c, 1, 51, 0
3, 34368, Note_on_c, 1, 51, 88
3, 34411, Note_on_c, 1, 51, 0
3, 34416, Note_on_c, 1, 51, 88
3, 34459, Note_on_c, 1, 51, 0
3, 34464, Note_on_c, 1, 51, 88
3, 34507, Note_on_c, 1, 51, 0
3, 34512, Note_on_c, 1, 51, 88
3, 34555, Note_on_c, 1, 51, 0
3, 34560, Note_on_c, 1, 51, 88
3, 34603, Note_on_c, 1, 51, 0
3, 34608, Note_on_c, 1, 51, 88
3, 34651, Note_on_c, 1, 51, 0
3, 34656, Note_on_c, 1, 51, 88
3, 34699, Note_on_c, 1, 51, 0
3, 34704, Note_on_c, 1, 51, 88
3, 34747, Note_on_c, 1, 51, 0
3, 34752, Note_on_c, 1, 51, 88
3, 34795, Note_on_c, 1, 51, 0
3, 34800, Note_on_c, 1, 51, 88
3, 34843, Note_on_c, 1, 51, 0
3, 34848, Note_on_c, 1, 51, 88
3, 34891, Note_on_c, 1, 51, 0
3, 34896, Note_on_c, 1, 51, 88
3, 34939, Note_on_c, 1, 51, 0
3, 34944, Note_on_c, 1, 53, 88
3, 34987, Note_on_c, 1, 53, 0
3, 34992, Note_on_c, 1, 53, 88
3, 35035, Note_on_c, 1, 53, 0
3, 35040, Note_on_c, 1, 53, 88
3, 35083, Note_on_c, 1, 53, 0
3, 35088, Note_on_c, 1, 53, 88
3, 35131, Note_on_c, 1, 53, 0
3, 35136, Note_on_c, 1, 53, 88
3, 35179, Note_on_c, 1, 53, 0
3, 35184, Note_on_c, 1, 55, 88
3, 35227, Note_on_c, 1, 55, 0
3, 35232, Note_on_c, 1, 50, 88
3, 35275, Note_on_c, 1, 50, 0
3, 35280, Note_on_c, 1, 53, 88
3, 35323, Note_on_c, 1, 53, 0
3, 35328, Note_on_c, 1, 46, 88
3, 35371, Note_on_c, 1, 46, 0
3, 35376, Note_on_c, 1, 46, 88
3, 35419, Note_on_c, 1, 46, 0
3, 35424, Note_on_c, 1, 46, 88
3, 35467, Note_on_c, 1, 46, 0
3, 35472, Note_on_c, 1, 46, 88
3, 35515, Note_on_c, 1, 46, 0
3, 35520, Note_on_c, 1, 46, 88
3, 35563, Note_on_c, 1, 46, 0
3, 35568, Note_on_c, 1, 46, 88
3, 35611, Note_on_c, 1, 46, 0
3, 35616, Note_on_c, 1, 46, 88
3, 35659, Note_on_c, 1, 46, 0
3, 35664, Note_on_c, 1, 46, 88
3, 35707, Note_on_c, 1, 46, 0
3, 35712, Note_on_c, 1, 46, 88
3, 35755, Note_on_c, 1, 46, 0
3, 35760, Note_on_c, 1, 46, 88
3, 35803, Note_on_c, 1, 46, 0
3, 35808, Note_on_c, 1, 46, 88
3, 35851, Note_on_c, 1, 46, 0
3, 35856, Note_on_c, 1, 46, 88
3, 35899, Note_on_c, 1, 46, 0
3, 35904, Note_on_c, 1, 46, 88
3, 35947, Note_on_c, 1, 46, 0
3, 35952, Note_on_c, 1, 46, 88
3, 35995, Note_on_c, 1, 46, 0
3, 36000, Note_on_c, 1, 46, 88
3, 36043, Note_on_c, 1, 46, 0
3, 36048, Note_on_c, 1, 46, 88
3, 36091, Note_on_c, 1, 46, 0
3, 36096, Note_on_c, 1, 51, 88
3, 36139, Note_on_c, 1, 51, 0
3, 36144, Note_on_c, 1, 51, 88
3, 36187, Note_on_c, 1, 51, 0
3, 36192, Note_on_c, 1, 51, 88
3, 36235, Note_on_c, 1, 51, 0
3, 36240, Note_on_c, 1, 51, 88
3, 36283, Note_on_c, 1, 51, 0
3, 36288, Note_on_c, 1, 51, 88
3, 36374, Note_on_c, 1, 51, 0
3, 36432, Note_on_c, 1, 55, 88
3, 36480, Note_on_c, 1, 55, 0
3, 36480, Note_on_c, 1, 56, 88
3, 36576, Note_on_c, 1, 56, 0
3, 36624, Note_on_c, 1, 57, 88
3, 36672, Note_on_c, 1, 57, 0
3, 36672, Note_on_c, 1, 58, 88
3, 36768, Note_on_c, 1, 58, 0
3, 36816, Note_on_c, 1, 59, 88
3, 36864, Note_on_c, 1, 59, 0
3, 36864, Note_on_c, 1, 60, 88
3, 36960, Note_on_c, 1, 60, 0
3, 37008, Note_on_c, 1, 61, 88
3, 37056, Note_on_c, 1, 61, 0
3, 37056, Note_on_c, 1, 62, 88
3, 37152, Note_on_c, 1, 62, 0
3, 37200, Note_on_c, 1, 50, 88
3, 37243, Note_on_c, 1, 50, 0
3, 37248, Note_on_c, 1, 51, 88
3, 37344, Note_on_c, 1, 51, 0
3, 37344, Note_on_c, 1, 55, 88
3, 37440, Note_on_c, 1, 55, 0
3, 37440, Note_on_c, 1, 51, 88
3, 37536, Note_on_c, 1, 51, 0
3, 37536, Note_on_c, 1, 48, 88
3, 37632, Note_on_c, 1, 48, 0
3, 37632, Note_on_c, 1, 46, 88
3, 37675, Note_on_c, 1, 46, 0
3, 37680, Note_on_c, 1, 46, 88
3, 37723, Note_on_c, 1, 46, 0
3, 37728, Note_on_c, 1, 46, 88
3, 37771, Note_on_c, 1, 46, 0
3, 37776, Note_on_c, 1, 46, 88
3, 37819, Note_on_c, 1, 46, 0
3, 37824, Note_on_c, 1, 58, 88
3, 37867, Note_on_c, 1, 58, 0
3, 37872, Note_on_c, 1, 58, 88
3, 37915, Note_on_c, 1, 58, 0
3, 37920, Note_on_c, 1, 58, 88
3, 37963, Note_on_c, 1, 58, 0
3, 37968, Note_on_c, 1, 58, 88
3, 38011, Note_on_c, 1, 58, 0
3, 38016, Note_on_c, 1, 55, 88
3, 38059, Note_on_c, 1, 55, 0
3, 38064, Note_on_c, 1, 55, 88
3, 38107, Note_on_c, 1, 55, 0
3, 38112, Note_on_c, 1, 53, 88
3, 38155, Note_on_c, 1, 53, 0
3, 38160, Note_on_c, 1, 53, 88
3, 38203, Note_on_c, 1, 53, 0
3, 38208, Note_on_c, 1, 52, 88
3, 38251, Note_on_c, 1, 52, 0
3, 38256, Note_on_c, 1, 52, 88
3, 38299, Note_on_c, 1, 52, 0
3, 38304, Note_on_c, 1, 50, 88
3, 38347, Note_on_c, 1, 50, 0
3, 38352, Note_on_c, 1, 50, 88
3, 38395, Note_on_c, 1, 50, 0
3, 38400, Note_on_c, 1, 48, 88
3, 38745, Note_on_c, 1, 48, 0
3, 38832, Note_on_c, 1, 53, 88
3, 38880, Note_on_c, 1, 53, 0
3, 38880, Note_on_c, 1, 60, 88
3, 38928, Note_on_c, 1, 60, 0
3, 38928, Note_on_c, 1, 58, 88
3, 38976, Note_on_c, 1, 58, 0
3, 38976, Note_on_c, 1, 56, 88
3, 39024, Note_on_c, 1, 56, 0
3, 39024, Note_on_c, 1, 55, 88
3, 39072, Note_on_c, 1, 55, 0
3, 39072, Note_on_c, 1, 53, 88
3, 39120, Note_on_c, 1, 53, 0
3, 39120, Note_on_c, 1, 51, 88
3, 39168, Note_on_c, 1, 51, 0
3, 39168, Note_on_c, 1, 48, 88
3, 39211, Note_on_c, 1, 48, 0
3, 39216, Note_on_c, 1, 53, 88
3, 39259, Note_on_c, 1, 53, 0
3, 39264, Note_on_c, 1, 56, 88
3, 39307, Note_on_c, 1, 56, 0
3, 39312, Note_on_c, 1, 55, 88
3, 39355, Note_on_c, 1, 55, 0
3, 39360, Note_on_c, 1, 53, 88
3, 39403, Note_on_c, 1, 53, 0
3, 39408, Note_on_c, 1, 51, 88
3, 39451, Note_on_c, 1, 51, 0
3, 39456, Note_on_c, 1, 50, 88
3, 39499, Note_on_c, 1, 50, 0
3, 39504, Note_on_c, 1, 46, 88
3, 39547, Note_on_c, 1, 46, 0
3, 39552, Note_on_c, 1, 46, 88
3, 39897, Note_on_c, 1, 46, 0
3, 39936, Note_on_c, 1, 51, 88
3, 39979, Note_on_c, 1, 51, 0
3, 39984, Note_on_c, 1, 51, 88
3, 40027, Note_on_c, 1, 51, 0
3, 40032, Note_on_c, 1, 51, 88
3, 40075, Note_on_c, 1, 51, 0
3, 40080, Note_on_c, 1, 51, 88
3, 40123, Note_on_c, 1, 51, 0
3, 40128, Note_on_c, 1, 51, 88
3, 40171, Note_on_c, 1, 51, 0
3, 40176, Note_on_c, 1, 51, 88
3, 40219, Note_on_c, 1, 51, 0
3, 40224, Note_on_c, 1, 51, 88
3, 40267, Note_on_c, 1, 51, 0
3, 40272, Note_on_c, 1, 51, 88
3, 40315, Note_on_c, 1, 51, 0
3, 40315, End_track
4, 0, Start_track
4, 0, End_track
0, 0, End_of_file