0, 0, Header, 1, 12, 120
1, 0, Start_track
1, 0, Time_signature, 4, 3, 12, 8
1, 0, Key_signature, 0, "major"
1, 0, Tempo, 666667
1, 0, Marker_t, "Benedictus"
1, 14160, Time_signature, 6, 3, 12, 8
1, 14170, Tempo, 547196
1, 18310, Tempo, 1196411
1, 18480, Time_signature, 4, 3, 12, 8
1, 18480, Tempo, 669269
1, 21120, Time_signature, 6, 3, 12, 8
1, 21120, Tempo, 547196
1, 21120, End_track
2, 0, Start_track
2, 0, MIDI_port, 0
2, 0, Title_t, "treble accomp"
2, 0, Program_c, 0, 1
2, 0, Note_on_c, 0, 79, 70
2, 177, Note_on_c, 0, 79, 0
2, 180, Note_on_c, 0, 81, 70
2, 183, Control_c, 0, 10, 56
2, 225, Note_on_c, 0, 81, 0
2, 240, Note_on_c, 0, 81, 70
2, 270, Note_on_c, 0, 79, 62
2, 275, Note_on_c, 0, 81, 0
2, 300, Note_on_c, 0, 77, 62
2, 303, Note_on_c, 0, 79, 0
2, 325, Note_on_c, 0, 77, 0
2, 330, Note_on_c, 0, 76, 55
2, 343, Note_on_c, 0, 76, 0
2, 360, Note_on_c, 0, 81, 62
2, 378, Note_on_c, 0, 81, 0
2, 420, Note_on_c, 0, 81, 62
2, 438, Note_on_c, 0, 81, 0
2, 480, Note_on_c, 0, 81, 62
2, 538, Note_on_c, 0, 81, 0
2, 540, Note_on_c, 0, 79, 55
2, 644, Note_on_c, 0, 79, 0
2, 660, Note_on_c, 0, 81, 55
2, 673, Note_on_c, 0, 81, 0
2, 720, Note_on_c, 0, 81, 62
2, 750, Note_on_c, 0, 79, 44
2, 755, Note_on_c, 0, 81, 0
2, 774, Note_on_c, 0, 79, 0
2, 780, Note_on_c, 0, 77, 55
2, 798, Note_on_c, 0, 77, 0
2, 810, Note_on_c, 0, 76, 39
2, 827, Note_on_c, 0, 76, 0
2, 840, Note_on_c, 0, 81, 62
2, 856, Note_on_c, 0, 81, 0
2, 900, Note_on_c, 0, 81, 62
2, 915, Note_on_c, 0, 81, 0
2, 960, Note_on_c, 0, 81, 55
2, 1020, Note_on_c, 0, 81, 0
2, 1020, Note_on_c, 0, 79, 62
2, 1056, Note_on_c, 0, 79, 0
2, 1080, Note_on_c, 0, 79, 55
2, 1108, Note_on_c, 0, 79, 0
2, 1110, Note_on_c, 0, 76, 44
2, 1140, Note_on_c, 0, 77, 55
2, 1141, Note_on_c, 0, 76, 0
2, 1170, Note_on_c, 0, 77, 0
2, 1170, Note_on_c, 0, 74, 55
2, 1184, Note_on_c, 0, 74, 0
2, 1200, Note_on_c, 0, 72, 62
2, 1315, Note_on_c, 0, 72, 0
2, 1320, Note_on_c, 0, 74, 62
2, 1379, Note_on_c, 0, 74, 0
2, 1380, Note_on_c, 0, 72, 62
2, 1409, Note_on_c, 0, 72, 0
2, 1410, Note_on_c, 0, 74, 55
2, 1437, Note_on_c, 0, 74, 0
2, 1440, Note_on_c, 0, 76, 49
2, 1560, Note_on_c, 0, 76, 0
2, 1560, Note_on_c, 0, 77, 62
2, 1620, Note_on_c, 0, 76, 55
2, 1621, Note_on_c, 0, 77, 0
2, 1650, Note_on_c, 0, 77, 49
2, 1651, Note_on_c, 0, 76, 0
2, 1675, Note_on_c, 0, 77, 0
2, 1680, Note_on_c, 0, 79, 62
2, 1700, Note_on_c, 0, 79, 0
2, 1740, Note_on_c, 0, 81, 49
2, 1756, Note_on_c, 0, 81, 0
2, 1800, Note_on_c, 0, 83, 62
2, 1817, Note_on_c, 0, 83, 0
2, 1860, Note_on_c, 0, 84, 55
2, 1885, Note_on_c, 0, 84, 0
2, 1920, Note_on_c, 0, 84, 55
2, 1947, Note_on_c, 0, 84, 0
2, 1950, Note_on_c, 0, 83, 55
2, 1980, Note_on_c, 0, 83, 0
2, 1980, Note_on_c, 0, 81, 49
2, 1991, Note_on_c, 0, 81, 0
2, 2010, Note_on_c, 0, 79, 49
2, 2027, Note_on_c, 0, 79, 0
2, 2040, Note_on_c, 0, 81, 35
2, 2070, Note_on_c, 0, 79, 35
2, 2073, Note_on_c, 0, 81, 0
2, 2099, Note_on_c, 0, 79, 0
2, 2100, Note_on_c, 0, 77, 49
2, 2113, Note_on_c, 0, 77, 0
2, 2130, Note_on_c, 0, 76, 39
2, 2143, Note_on_c, 0, 76, 0
2, 2160, Note_on_c, 0, 79, 49
2, 2248, Note_on_c, 0, 79, 0
2, 2250, Note_on_c, 0, 76, 49
2, 2280, Note_on_c, 0, 74, 62
2, 2281, Note_on_c, 0, 76, 0
2, 2344, Note_on_c, 0, 74, 0
2, 2400, Note_on_c, 0, 67, 55
2, 2400, Note_on_c, 0, 64, 55
2, 2408, Note_on_c, 0, 64, 0
2, 2430, Note_on_c, 0, 60, 39
2, 2440, Note_on_c, 0, 60, 0
2, 2460, Note_on_c, 0, 64, 39
2, 2475, Note_on_c, 0, 64, 0
2, 2490, Note_on_c, 0, 60, 28
2, 2504, Note_on_c, 0, 60, 0
2, 2520, Note_on_c, 0, 64, 44
2, 2539, Note_on_c, 0, 64, 0
2, 2550, Note_on_c, 0, 60, 28
2, 2559, Note_on_c, 0, 67, 0
2, 2567, Note_on_c, 0, 60, 0
2, 2580, Note_on_c, 0, 65, 70
2, 2580, Note_on_c, 0, 69, 30
2, 2594, Note_on_c, 0, 65, 0
2, 2610, Note_on_c, 0, 60, 44
2, 2615, Note_on_c, 0, 69, 0
2, 2624, Note_on_c, 0, 60, 0
2, 2640, Note_on_c, 0, 69, 62
2, 2640, Note_on_c, 0, 65, 70
2, 2653, Note_on_c, 0, 65, 0
2, 2656, Note_on_c, 0, 69, 0
2, 2670, Note_on_c, 0, 67, 35
2, 2670, Note_on_c, 0, 64, 39
2, 2692, Note_on_c, 0, 64, 0
2, 2700, Note_on_c, 0, 67, 0
2, 2700, Note_on_c, 0, 65, 44
2, 2700, Note_on_c, 0, 62, 28
2, 2707, Note_on_c, 0, 62, 0
2, 2711, Note_on_c, 0, 65, 0
2, 2730, Note_on_c, 0, 60, 35
2, 2730, Note_on_c, 0, 64, 49
2, 2740, Note_on_c, 0, 64, 0
2, 2742, Note_on_c, 0, 60, 0
2, 2760, Note_on_c, 0, 69, 55
2, 2760, Note_on_c, 0, 65, 62
2, 2771, Note_on_c, 0, 65, 0
2, 2781, Note_on_c, 0, 69, 0
2, 2790, Note_on_c, 0, 60, 39
2, 2813, Note_on_c, 0, 60, 0
2, 2820, Note_on_c, 0, 65, 55
2, 2820, Note_on_c, 0, 69, 49
2, 2834, Note_on_c, 0, 65, 0
2, 2835, Note_on_c, 0, 69, 0
2, 2850, Note_on_c, 0, 60, 35
2, 2864, Note_on_c, 0, 60, 0
2, 2880, Note_on_c, 0, 69, 39
2, 2880, Note_on_c, 0, 65, 49
2, 2909, Note_on_c, 0, 65, 0
2, 2910, Note_on_c, 0, 60, 39
2, 2913, Note_on_c, 0, 69, 0
2, 2940, Note_on_c, 0, 64, 49
2, 2940, Note_on_c, 0, 67, 49
2, 2941, Note_on_c, 0, 60, 0
2, 2954, Note_on_c, 0, 64, 0
2, 2970, Note_on_c, 0, 60, 30
2, 2984, Note_on_c, 0, 60, 0
2, 3000, Note_on_c, 0, 64, 35
2, 3015, Note_on_c, 0, 64, 0
2, 3030, Note_on_c, 0, 60, 49
2, 3035, Note_on_c, 0, 67, 0
2, 3050, Note_on_c, 0, 60, 0
2, 3060, Note_on_c, 0, 69, 62
2, 3060, Note_on_c, 0, 65, 62
2, 3072, Note_on_c, 0, 65, 0
2, 3090, Note_on_c, 0, 60, 44
2, 3100, Note_on_c, 0, 60, 0
2, 3101, Note_on_c, 0, 69, 0
2, 3120, Note_on_c, 0, 69, 55
2, 3120, Note_on_c, 0, 65, 70
2, 3143, Note_on_c, 0, 65, 0
2, 3143, Note_on_c, 0, 69, 0
2, 3150, Note_on_c, 0, 67, 35
2, 3150, Note_on_c, 0, 64, 44
2, 3178, Note_on_c, 0, 64, 0
2, 3180, Note_on_c, 0, 65, 55
2, 3180, Note_on_c, 0, 62, 44
2, 3182, Note_on_c, 0, 67, 0
2, 3187, Note_on_c, 0, 62, 0
2, 3190, Note_on_c, 0, 65, 0
2, 3210, Note_on_c, 0, 60, 30
2, 3210, Note_on_c, 0, 64, 39
2, 3219, Note_on_c, 0, 64, 0
2, 3221, Note_on_c, 0, 60, 0
2, 3240, Note_on_c, 0, 69, 62
2, 3240, Note_on_c, 0, 65, 70
2, 3251, Note_on_c, 0, 65, 0
2, 3270, Note_on_c, 0, 60, 44
2, 3283, Note_on_c, 0, 60, 0
2, 3300, Note_on_c, 0, 65, 55
2, 3314, Note_on_c, 0, 65, 0
2, 3330, Note_on_c, 0, 60, 28
2, 3337, Note_on_c, 0, 69, 0
2, 3342, Note_on_c, 0, 60, 0
2, 3360, Note_on_c, 0, 69, 49
2, 3360, Note_on_c, 0, 65, 70
2, 3390, Note_on_c, 0, 60, 35
2, 3391, Note_on_c, 0, 65, 0
2, 3393, Note_on_c, 0, 69, 0
2, 3412, Note_on_c, 0, 60, 0
2, 3420, Note_on_c, 0, 64, 55
2, 3420, Note_on_c, 0, 67, 49
2, 3449, Note_on_c, 0, 64, 0
2, 3450, Note_on_c, 0, 60, 49
2, 3467, Note_on_c, 0, 60, 0
2, 3480, Note_on_c, 0, 64, 44
2, 3490, Note_on_c, 0, 64, 0
2, 3509, Note_on_c, 0, 67, 0
2, 3510, Note_on_c, 0, 60, 55
2, 3510, Note_on_c, 0, 64, 62
2, 3518, Note_on_c, 0, 64, 0
2, 3524, Note_on_c, 0, 60, 0
2, 3540, Note_on_c, 0, 62, 62
2, 3540, Note_on_c, 0, 65, 70
2, 3550, Note_on_c, 0, 62, 0
2, 3569, Note_on_c, 0, 65, 0
2, 3570, Note_on_c, 0, 62, 44
2, 3570, Note_on_c, 0, 59, 28
2, 3576, Note_on_c, 0, 59, 0
2, 3581, Note_on_c, 0, 62, 0
2, 3600, Note_on_c, 0, 60, 62
2, 3616, Note_on_c, 0, 60, 0
2, 3630, Note_on_c, 0, 67, 70
2, 3645, Note_on_c, 0, 67, 0
2, 3660, Note_on_c, 0, 64, 70
2, 3672, Note_on_c, 0, 64, 0
2, 3690, Note_on_c, 0, 60, 62
2, 3699, Note_on_c, 0, 60, 0
2, 3720, Note_on_c, 0, 62, 44
2, 3720, Note_on_c, 0, 59, 28
2, 3768, Note_on_c, 0, 59, 0
2, 3774, Note_on_c, 0, 62, 0
2, 3780, Note_on_c, 0, 57, 30
2, 3780, Note_on_c, 0, 60, 44
2, 3790, Note_on_c, 0, 57, 0
2, 3792, Note_on_c, 0, 60, 0
2, 3810, Note_on_c, 0, 62, 30
2, 3810, Note_on_c, 0, 59, 30
2, 3820, Note_on_c, 0, 59, 0
2, 3820, Note_on_c, 0, 62, 0
2, 3840, Note_on_c, 0, 60, 49
2, 3840, Note_on_c, 0, 64, 30
2, 3865, Note_on_c, 0, 60, 0
2, 3870, Note_on_c, 0, 55, 22
2, 3883, Note_on_c, 0, 55, 0
2, 3900, Note_on_c, 0, 60, 44
2, 3903, Note_on_c, 0, 64, 0
2, 3917, Note_on_c, 0, 60, 0
2, 3930, Note_on_c, 0, 64, 44
2, 3942, Note_on_c, 0, 64, 0
2, 3960, Note_on_c, 0, 65, 49
2, 3960, Note_on_c, 0, 62, 44
2, 3994, Note_on_c, 0, 62, 0
2, 4006, Note_on_c, 0, 65, 0
2, 4020, Note_on_c, 0, 64, 49
2, 4020, Note_on_c, 0, 60, 30
2, 4037, Note_on_c, 0, 64, 0
2, 4038, Note_on_c, 0, 60, 0
2, 4050, Note_on_c, 0, 65, 39
2, 4050, Note_on_c, 0, 62, 24
2, 4059, Note_on_c, 0, 62, 0
2, 4061, Note_on_c, 0, 65, 0
2, 4080, Note_on_c, 0, 67, 49
2, 4080, Note_on_c, 0, 64, 55
2, 4107, Note_on_c, 0, 64, 0
2, 4109, Note_on_c, 0, 67, 0
2, 4110, Note_on_c, 0, 60, 35
2, 4127, Note_on_c, 0, 60, 0
2, 4140, Note_on_c, 0, 69, 44
2, 4140, Note_on_c, 0, 65, 55
2, 4169, Note_on_c, 0, 65, 0
2, 4170, Note_on_c, 0, 60, 35
2, 4174, Note_on_c, 0, 69, 0
2, 4183, Note_on_c, 0, 60, 0
2, 4200, Note_on_c, 0, 62, 49
2, 4200, Note_on_c, 0, 71, 62
2, 4200, Note_on_c, 0, 65, 70
2, 4210, Note_on_c, 0, 62, 0
2, 4230, Note_on_c, 0, 60, 44
2, 4231, Note_on_c, 0, 71, 0
2, 4232, Note_on_c, 0, 65, 0
2, 4256, Note_on_c, 0, 60, 0
2, 4260, Note_on_c, 0, 72, 62
2, 4260, Note_on_c, 0, 64, 49
2, 4287, Note_on_c, 0, 72, 0
2, 4290, Note_on_c, 0, 60, 44
2, 4291, Note_on_c, 0, 64, 0
2, 4302, Note_on_c, 0, 60, 0
2, 4320, Note_on_c, 0, 67, 49
2, 4320, Note_on_c, 0, 64, 55
2, 4345, Note_on_c, 0, 64, 0
2, 4350, Note_on_c, 0, 60, 39
2, 4378, Note_on_c, 0, 60, 0
2, 4380, Note_on_c, 0, 64, 39
2, 4388, Note_on_c, 0, 64, 0
2, 4391, Note_on_c, 0, 67, 0
2, 4410, Note_on_c, 0, 64, 39
2, 4410, Note_on_c, 0, 60, 35
2, 4419, Note_on_c, 0, 60, 0
2, 4420, Note_on_c, 0, 64, 0
2, 4440, Note_on_c, 0, 65, 49
2, 4440, Note_on_c, 0, 62, 55
2, 4500, Note_on_c, 0, 60, 28
2, 4500, Note_on_c, 0, 64, 55
2, 4503, Note_on_c, 0, 62, 0
2, 4503, Note_on_c, 0, 65, 0
2, 4509, Note_on_c, 0, 60, 0
2, 4519, Note_on_c, 0, 64, 0
2, 4530, Note_on_c, 0, 59, 39
2, 4530, Note_on_c, 0, 62, 44
2, 4534, Note_on_c, 0, 62, 0
2, 4540, Note_on_c, 0, 59, 0
2, 4560, Note_on_c, 0, 60, 70
2, 4619, Note_on_c, 0, 60, 0
2, 4620, Note_on_c, 0, 55, 55
2, 4620, Note_on_c, 0, 67, 55
2, 4643, Note_on_c, 0, 55, 0
2, 4650, Note_on_c, 0, 67, 0
2, 4680, Note_on_c, 0, 60, 62
2, 4680, Note_on_c, 0, 72, 62
2, 4699, Note_on_c, 0, 60, 0
2, 4703, Note_on_c, 0, 72, 0
2, 4740, Note_on_c, 0, 76, 62
2, 4740, Note_on_c, 0, 64, 55
2, 4759, Note_on_c, 0, 64, 0
2, 4765, Note_on_c, 0, 76, 0
2, 4800, Note_on_c, 0, 67, 110
2, 4800, Note_on_c, 0, 74, 110
2, 4800, Note_on_c, 0, 79, 98
2, 4800, Note_on_c, 0, 77, 98
2, 4828, Note_on_c, 0, 74, 0
2, 4830, Note_on_c, 0, 77, 0
2, 4830, Note_on_c, 0, 79, 0
2, 4831, Note_on_c, 0, 67, 0
2, 4860, Note_on_c, 0, 62, 17
2, 4860, Note_on_c, 0, 65, 15
2, 4884, Note_on_c, 0, 62, 0
2, 4890, Note_on_c, 0, 55, 2
2, 4891, Note_on_c, 0, 65, 0
2, 4914, Note_on_c, 0, 55, 0
2, 4920, Note_on_c, 0, 65, 49
2, 4920, Note_on_c, 0, 62, 28
2, 4943, Note_on_c, 0, 62, 0
2, 4947, Note_on_c, 0, 65, 0
2, 4950, Note_on_c, 0, 55, 39
2, 4974, Note_on_c, 0, 55, 0
2, 4980, Note_on_c, 0, 65, 30
2, 4980, Note_on_c, 0, 62, 28
2, 5004, Note_on_c, 0, 62, 0
2, 5007, Note_on_c, 0, 65, 0
2, 5010, Note_on_c, 0, 55, 19
2, 5033, Note_on_c, 0, 55, 0
2, 5040, Note_on_c, 0, 65, 44
2, 5040, Note_on_c, 0, 62, 28
2, 5066, Note_on_c, 0, 62, 0
2, 5068, Note_on_c, 0, 65, 0
2, 5070, Note_on_c, 0, 55, 19
2, 5090, Note_on_c, 0, 55, 0
2, 5100, Note_on_c, 0, 64, 35
2, 5100, Note_on_c, 0, 60, 30
2, 5123, Note_on_c, 0, 60, 0
2, 5126, Note_on_c, 0, 64, 0
2, 5130, Note_on_c, 0, 55, 17
2, 5156, Note_on_c, 0, 55, 0
2, 5160, Note_on_c, 0, 64, 24
2, 5160, Note_on_c, 0, 60, 35
2, 5190, Note_on_c, 0, 55, 39
2, 5191, Note_on_c, 0, 60, 0
2, 5194, Note_on_c, 0, 64, 0
2, 5195, Note_on_c, 0, 55, 0
2, 5220, Note_on_c, 0, 76, 55
2, 5220, Note_on_c, 0, 79, 49
2, 5231, Note_on_c, 0, 76, 0
2, 5232, Note_on_c, 0, 79, 0
2, 5250, Note_on_c, 0, 76, 28
2, 5250, Note_on_c, 0, 79, 19
2, 5259, Note_on_c, 0, 79, 0
2, 5263, Note_on_c, 0, 76, 0
2, 5280, Note_on_c, 0, 76, 39
2, 5280, Note_on_c, 0, 79, 35
2, 5292, Note_on_c, 0, 79, 0
2, 5294, Note_on_c, 0, 76, 0
2, 5310, Note_on_c, 0, 77, 49
2, 5310, Note_on_c, 0, 81, 35
2, 5325, Note_on_c, 0, 77, 0
2, 5331, Note_on_c, 0, 81, 0
2, 5340, Note_on_c, 0, 74, 39
2, 5340, Note_on_c, 0, 77, 35
2, 5352, Note_on_c, 0, 77, 0
2, 5352, Note_on_c, 0, 74, 0
2, 5370, Note_on_c, 0, 77, 39
2, 5370, Note_on_c, 0, 74, 39
2, 5381, Note_on_c, 0, 77, 0
2, 5383, Note_on_c, 0, 74, 0
2, 5400, Note_on_c, 0, 77, 35
2, 5400, Note_on_c, 0, 74, 30
2, 5414, Note_on_c, 0, 77, 0
2, 5415, Note_on_c, 0, 74, 0
2, 5430, Note_on_c, 0, 76, 35
2, 5430, Note_on_c, 0, 79, 22
2, 5440, Note_on_c, 0, 79, 0
2, 5440, Note_on_c, 0, 76, 0
2, 5460, Note_on_c, 0, 76, 49
2, 5460, Note_on_c, 0, 72, 35
2, 5471, Note_on_c, 0, 76, 0
2, 5472, Note_on_c, 0, 72, 0
2, 5490, Note_on_c, 0, 72, 39
2, 5490, Note_on_c, 0, 76, 22
2, 5501, Note_on_c, 0, 76, 0
2, 5503, Note_on_c, 0, 72, 0
2, 5520, Note_on_c, 0, 72, 44
2, 5520, Note_on_c, 0, 76, 39
2, 5549, Note_on_c, 0, 72, 0
2, 5559, Note_on_c, 0, 76, 0
2, 5580, Note_on_c, 0, 67, 39
2, 5580, Note_on_c, 0, 74, 49
2, 5580, Note_on_c, 0, 71, 44
2, 5608, Note_on_c, 0, 71, 0
2, 5626, Note_on_c, 0, 67, 0
2, 5639, Note_on_c, 0, 74, 0
2, 5640, Note_on_c, 0, 71, 49
2, 5687, Note_on_c, 0, 71, 0
2, 5700, Note_on_c, 0, 74, 55
2, 5711, Note_on_c, 0, 74, 0
2, 5760, Note_on_c, 0, 79, 110
2, 5760, Note_on_c, 0, 74, 98
2, 5760, Note_on_c, 0, 67, 98
2, 5760, Note_on_c, 0, 77, 98
2, 5784, Note_on_c, 0, 77, 0
2, 5784, Note_on_c, 0, 74, 0
2, 5786, Note_on_c, 0, 79, 0
2, 5789, Note_on_c, 0, 67, 0
2, 5820, Note_on_c, 0, 65, 70
2, 5820, Note_on_c, 0, 62, 55
2, 5842, Note_on_c, 0, 65, 0
2, 5843, Note_on_c, 0, 62, 0
2, 5850, Note_on_c, 0, 55, 24
2, 5877, Note_on_c, 0, 55, 0
2, 5880, Note_on_c, 0, 65, 49
2, 5880, Note_on_c, 0, 62, 35
2, 5903, Note_on_c, 0, 62, 0
2, 5904, Note_on_c, 0, 65, 0
2, 5910, Note_on_c, 0, 55, 28
2, 5937, Note_on_c, 0, 55, 0
2, 5940, Note_on_c, 0, 65, 49
2, 5940, Note_on_c, 0, 62, 28
2, 5961, Note_on_c, 0, 62, 0
2, 5963, Note_on_c, 0, 65, 0
2, 5970, Note_on_c, 0, 55, 24
2, 5998, Note_on_c, 0, 55, 0
2, 6000, Note_on_c, 0, 65, 44
2, 6000, Note_on_c, 0, 62, 24
2, 6025, Note_on_c, 0, 62, 0
2, 6030, Note_on_c, 0, 65, 0
2, 6030, Note_on_c, 0, 55, 22
2, 6060, Note_on_c, 0, 64, 35
2, 6060, Note_on_c, 0, 60, 22
2, 6061, Note_on_c, 0, 55, 0
2, 6084, Note_on_c, 0, 60, 0
2, 6085, Note_on_c, 0, 64, 0
2, 6090, Note_on_c, 0, 55, 19
2, 6117, Note_on_c, 0, 55, 0
2, 6120, Note_on_c, 0, 64, 39
2, 6120, Note_on_c, 0, 60, 28
2, 6146, Note_on_c, 0, 64, 0
2, 6150, Note_on_c, 0, 60, 0
2, 6150, Note_on_c, 0, 55, 30
2, 6165, Note_on_c, 0, 55, 0
2, 6180, Note_on_c, 0, 67, 39
2, 6180, Note_on_c, 0, 64, 44
2, 6191, Note_on_c, 0, 67, 0
2, 6192, Note_on_c, 0, 64, 0
2, 6210, Note_on_c, 0, 64, 24
2, 6210, Note_on_c, 0, 67, 28
2, 6218, Note_on_c, 0, 67, 0
2, 6219, Note_on_c, 0, 64, 0
2, 6240, Note_on_c, 0, 67, 35
2, 6240, Note_on_c, 0, 64, 49
2, 6251, Note_on_c, 0, 64, 0
2, 6253, Note_on_c, 0, 67, 0
2, 6270, Note_on_c, 0, 69, 44
2, 6270, Note_on_c, 0, 65, 44
2, 6280, Note_on_c, 0, 65, 0
2, 6284, Note_on_c, 0, 69, 0
2, 6300, Note_on_c, 0, 65, 44
2, 6300, Note_on_c, 0, 62, 39
2, 6312, Note_on_c, 0, 62, 0
2, 6312, Note_on_c, 0, 65, 0
2, 6330, Note_on_c, 0, 65, 44
2, 6330, Note_on_c, 0, 62, 24
2, 6341, Note_on_c, 0, 65, 0
2, 6342, Note_on_c, 0, 62, 0
2, 6360, Note_on_c, 0, 65, 44
2, 6360, Note_on_c, 0, 62, 35
2, 6384, Note_on_c, 0, 65, 0
2, 6386, Note_on_c, 0, 62, 0
2, 6390, Note_on_c, 0, 67, 24
2, 6390, Note_on_c, 0, 64, 30
2, 6400, Note_on_c, 0, 64, 0
2, 6404, Note_on_c, 0, 67, 0
2, 6420, Note_on_c, 0, 64, 39
2, 6420, Note_on_c, 0, 60, 30
2, 6429, Note_on_c, 0, 64, 0
2, 6431, Note_on_c, 0, 60, 0
2, 6450, Note_on_c, 0, 64, 17
2, 6450, Note_on_c, 0, 60, 28
2, 6460, Note_on_c, 0, 60, 0
2, 6463, Note_on_c, 0, 64, 0
2, 6480, Note_on_c, 0, 59, 30
2, 6480, Note_on_c, 0, 62, 39
2, 6514, Note_on_c, 0, 59, 0
2, 6516, Note_on_c, 0, 62, 0
2, 6600, Note_on_c, 0, 81, 62
2, 6600, Note_on_c, 0, 72, 55
2, 6690, Note_on_c, 0, 78, 49
2, 6692, Note_on_c, 0, 81, 0
2, 6697, Note_on_c, 0, 72, 0
2, 6713, Note_on_c, 0, 78, 0
2, 6720, Note_on_c, 0, 79, 39
2, 6720, Note_on_c, 0, 71, 55
2, 6755, Note_on_c, 0, 71, 0
2, 6758, Note_on_c, 0, 79, 0
2, 6840, Note_on_c, 0, 72, 35
2, 6840, Note_on_c, 0, 81, 39
2, 6925, Note_on_c, 0, 81, 0
2, 6930, Note_on_c, 0, 72, 0
2, 6930, Note_on_c, 0, 78, 62
2, 6946, Note_on_c, 0, 78, 0
2, 6960, Note_on_c, 0, 79, 35
2, 6960, Note_on_c, 0, 71, 49
2, 6984, Note_on_c, 0, 79, 0
2, 6985, Note_on_c, 0, 71, 0
2, 7020, Note_on_c, 0, 67, 55
2, 7072, Note_on_c, 0, 67, 0
2, 7080, Note_on_c, 0, 66, 55
2, 7080, Note_on_c, 0, 69, 44
2, 7116, Note_on_c, 0, 66, 0
2, 7126, Note_on_c, 0, 69, 0
2, 7140, Note_on_c, 0, 71, 70
2, 7140, Note_on_c, 0, 65, 62
2, 7180, Note_on_c, 0, 65, 0
2, 7182, Note_on_c, 0, 71, 0
2, 7200, Note_on_c, 0, 72, 78
2, 7200, Note_on_c, 0, 64, 78
2, 7232, Note_on_c, 0, 72, 0
2, 7235, Note_on_c, 0, 64, 0
2, 7260, Note_on_c, 0, 62, 98
2, 7260, Note_on_c, 0, 71, 98
2, 7260, Note_on_c, 0, 74, 88
2, 7290, Note_on_c, 0, 62, 0
2, 7293, Note_on_c, 0, 74, 0
2, 7295, Note_on_c, 0, 71, 0
2, 7320, Note_on_c, 0, 72, 98
2, 7320, Note_on_c, 0, 64, 98
2, 7320, Note_on_c, 0, 76, 78
2, 7350, Note_on_c, 0, 64, 0
2, 7351, Note_on_c, 0, 72, 0
2, 7354, Note_on_c, 0, 76, 0
2, 7380, Note_on_c, 0, 65, 98
2, 7380, Note_on_c, 0, 74, 98
2, 7380, Note_on_c, 0, 77, 88
2, 7405, Note_on_c, 0, 65, 0
2, 7406, Note_on_c, 0, 74, 0
2, 7407, Note_on_c, 0, 77, 0
2, 7440, Note_on_c, 0, 79, 88
2, 7440, Note_on_c, 0, 76, 98
2, 7440, Note_on_c, 0, 67, 98
2, 7607, Note_on_c, 0, 76, 0
2, 7610, Note_on_c, 0, 79, 0
2, 7611, Note_on_c, 0, 67, 0
2, 7620, Note_on_c, 0, 69, 55
2, 7670, Note_on_c, 0, 69, 0
2, 7680, Note_on_c, 0, 69, 35
2, 7680, Note_on_c, 0, 65, 39
2, 7703, Note_on_c, 0, 65, 0
2, 7703, Note_on_c, 0, 69, 0
2, 7710, Note_on_c, 0, 67, 30
2, 7710, Note_on_c, 0, 64, 28
2, 7723, Note_on_c, 0, 64, 0
2, 7728, Note_on_c, 0, 67, 0
2, 7740, Note_on_c, 0, 65, 49
2, 7740, Note_on_c, 0, 62, 35
2, 7747, Note_on_c, 0, 62, 0
2, 7751, Note_on_c, 0, 65, 0
2, 7770, Note_on_c, 0, 64, 39
2, 7770, Note_on_c, 0, 60, 24
2, 7780, Note_on_c, 0, 64, 0
2, 7781, Note_on_c, 0, 60, 0
2, 7800, Note_on_c, 0, 69, 35
2, 7800, Note_on_c, 0, 65, 49
2, 7827, Note_on_c, 0, 65, 0
2, 7827, Note_on_c, 0, 69, 0
2, 7830, Note_on_c, 0, 60, 35
2, 7855, Note_on_c, 0, 60, 0
2, 7860, Note_on_c, 0, 69, 39
2, 7860, Note_on_c, 0, 65, 55
2, 7887, Note_on_c, 0, 65, 0
2, 7890, Note_on_c, 0, 60, 35
2, 7891, Note_on_c, 0, 69, 0
2, 7913, Note_on_c, 0, 60, 0
2, 7920, Note_on_c, 0, 65, 44
2, 7920, Note_on_c, 0, 69, 35
2, 7949, Note_on_c, 0, 69, 0
2, 7949, Note_on_c, 0, 65, 0
2, 7950, Note_on_c, 0, 60, 35
2, 7980, Note_on_c, 0, 67, 35
2, 7980, Note_on_c, 0, 64, 44
2, 7981, Note_on_c, 0, 60, 0
2, 8006, Note_on_c, 0, 64, 0
2, 8010, Note_on_c, 0, 60, 30
2, 8033, Note_on_c, 0, 60, 0
2, 8040, Note_on_c, 0, 64, 30
2, 8068, Note_on_c, 0, 64, 0
2, 8070, Note_on_c, 0, 60, 35
2, 8073, Note_on_c, 0, 67, 0
2, 8097, Note_on_c, 0, 60, 0
2, 8100, Note_on_c, 0, 69, 39
2, 8100, Note_on_c, 0, 65, 55
2, 8126, Note_on_c, 0, 65, 0
2, 8129, Note_on_c, 0, 69, 0
2, 8130, Note_on_c, 0, 60, 35
2, 8154, Note_on_c, 0, 60, 0
2, 8160, Note_on_c, 0, 69, 39
2, 8160, Note_on_c, 0, 65, 55
2, 8182, Note_on_c, 0, 69, 0
2, 8186, Note_on_c, 0, 65, 0
2, 8190, Note_on_c, 0, 67, 28
2, 8190, Note_on_c, 0, 64, 24
2, 8215, Note_on_c, 0, 64, 0
2, 8220, Note_on_c, 0, 67, 0
2, 8220, Note_on_c, 0, 65, 44
2, 8220, Note_on_c, 0, 62, 35
2, 8230, Note_on_c, 0, 62, 0
2, 8233, Note_on_c, 0, 65, 0
2, 8250, Note_on_c, 0, 60, 39
2, 8250, Note_on_c, 0, 64, 39
2, 8257, Note_on_c, 0, 64, 0
2, 8260, Note_on_c, 0, 60, 0
2, 8280, Note_on_c, 0, 70, 62
2, 8280, Note_on_c, 0, 67, 49
2, 8307, Note_on_c, 0, 67, 0
2, 8308, Note_on_c, 0, 70, 0
2, 8310, Note_on_c, 0, 64, 44
2, 8337, Note_on_c, 0, 64, 0
2, 8340, Note_on_c, 0, 70, 62
2, 8340, Note_on_c, 0, 67, 44
2, 8367, Note_on_c, 0, 67, 0
2, 8368, Note_on_c, 0, 70, 0
2, 8370, Note_on_c, 0, 64, 39
2, 8397, Note_on_c, 0, 64, 0
2, 8400, Note_on_c, 0, 70, 62
2, 8400, Note_on_c, 0, 67, 49
2, 8430, Note_on_c, 0, 67, 0
2, 8430, Note_on_c, 0, 62, 44
2, 8438, Note_on_c, 0, 70, 0
2, 8460, Note_on_c, 0, 69, 39
2, 8460, Note_on_c, 0, 65, 49
2, 8464, Note_on_c, 0, 62, 0
2, 8490, Note_on_c, 0, 62, 55
2, 8491, Note_on_c, 0, 65, 0
2, 8519, Note_on_c, 0, 62, 0
2, 8520, Note_on_c, 0, 65, 49
2, 8546, Note_on_c, 0, 65, 0
2, 8550, Note_on_c, 0, 65, 39
2, 8550, Note_on_c, 0, 62, 62
2, 8553, Note_on_c, 0, 69, 0
2, 8565, Note_on_c, 0, 62, 0
2, 8567, Note_on_c, 0, 65, 0
2, 8580, Note_on_c, 0, 67, 49
2, 8580, Note_on_c, 0, 64, 44
2, 8588, Note_on_c, 0, 64, 0
2, 8595, Note_on_c, 0, 67, 0
2, 8610, Note_on_c, 0, 61, 35
2, 8610, Note_on_c, 0, 64, 44
2, 8622, Note_on_c, 0, 64, 0
2, 8625, Note_on_c, 0, 61, 0
2, 8640, Note_on_c, 0, 62, 55
2, 8670, Note_on_c, 0, 69, 49
2, 8672, Note_on_c, 0, 62, 0
2, 8693, Note_on_c, 0, 69, 0
2, 8700, Note_on_c, 0, 65, 55
2, 8718, Note_on_c, 0, 65, 0
2, 8730, Note_on_c, 0, 62, 44
2, 8738, Note_on_c, 0, 62, 0
2, 8760, Note_on_c, 0, 61, 39
2, 8760, Note_on_c, 0, 64, 49
2, 8795, Note_on_c, 0, 61, 0
2, 8811, Note_on_c, 0, 64, 0
2, 8820, Note_on_c, 0, 59, 49
2, 8820, Note_on_c, 0, 62, 44
2, 8830, Note_on_c, 0, 59, 0
2, 8840, Note_on_c, 0, 62, 0
2, 8850, Note_on_c, 0, 61, 49
2, 8850, Note_on_c, 0, 64, 28
2, 8863, Note_on_c, 0, 61, 0
2, 8866, Note_on_c, 0, 64, 0
2, 8880, Note_on_c, 0, 65, 49
2, 8880, Note_on_c, 0, 62, 49
2, 8905, Note_on_c, 0, 62, 0
2, 8910, Note_on_c, 0, 57, 55
2, 8928, Note_on_c, 0, 65, 0
2, 8940, Note_on_c, 0, 62, 35
2, 8951, Note_on_c, 0, 62, 0
2, 8954, Note_on_c, 0, 57, 0
2, 8970, Note_on_c, 0, 69, 49
2, 8970, Note_on_c, 0, 65, 49
2, 8986, Note_on_c, 0, 65, 0
2, 8987, Note_on_c, 0, 69, 0
2, 9000, Note_on_c, 0, 64, 44
2, 9000, Note_on_c, 0, 67, 44
2, 9015, Note_on_c, 0, 64, 0
2, 9028, Note_on_c, 0, 67, 0
2, 9030, Note_on_c, 0, 64, 49
2, 9030, Note_on_c, 0, 60, 39
2, 9042, Note_on_c, 0, 60, 0
2, 9043, Note_on_c, 0, 64, 0
2, 9060, Note_on_c, 0, 65, 44
2, 9060, Note_on_c, 0, 62, 49
2, 9068, Note_on_c, 0, 62, 0
2, 9077, Note_on_c, 0, 65, 0
2, 9090, Note_on_c, 0, 59, 44
2, 9090, Note_on_c, 0, 62, 49
2, 9101, Note_on_c, 0, 59, 0
2, 9109, Note_on_c, 0, 62, 0
2, 9120, Note_on_c, 0, 60, 55
2, 9150, Note_on_c, 0, 67, 62
2, 9154, Note_on_c, 0, 60, 0
2, 9172, Note_on_c, 0, 67, 0
2, 9180, Note_on_c, 0, 64, 39
2, 9204, Note_on_c, 0, 64, 0
2, 9210, Note_on_c, 0, 60, 55
2, 9231, Note_on_c, 0, 60, 0
2, 9240, Note_on_c, 0, 62, 39
2, 9240, Note_on_c, 0, 59, 30
2, 9286, Note_on_c, 0, 59, 0
2, 9295, Note_on_c, 0, 62, 0
2, 9300, Note_on_c, 0, 60, 39
2, 9300, Note_on_c, 0, 57, 24
2, 9314, Note_on_c, 0, 57, 0
2, 9316, Note_on_c, 0, 60, 0
2, 9330, Note_on_c, 0, 62, 35
2, 9330, Note_on_c, 0, 59, 22
2, 9343, Note_on_c, 0, 62, 0
2, 9344, Note_on_c, 0, 59, 0
2, 9360, Note_on_c, 0, 60, 44
2, 9360, Note_on_c, 0, 64, 39
2, 9382, Note_on_c, 0, 60, 0
2, 9390, Note_on_c, 0, 55, 35
2, 9391, Note_on_c, 0, 64, 0
2, 9420, Note_on_c, 0, 60, 39
2, 9439, Note_on_c, 0, 55, 0
2, 9450, Note_on_c, 0, 60, 0
2, 9450, Note_on_c, 0, 64, 44
2, 9466, Note_on_c, 0, 64, 0
2, 9480, Note_on_c, 0, 65, 39
2, 9480, Note_on_c, 0, 62, 39
2, 9527, Note_on_c, 0, 65, 0
2, 9533, Note_on_c, 0, 62, 0
2, 9540, Note_on_c, 0, 64, 39
2, 9540, Note_on_c, 0, 60, 39
2, 9554, Note_on_c, 0, 64, 0
2, 9556, Note_on_c, 0, 60, 0
2, 9570, Note_on_c, 0, 62, 49
2, 9570, Note_on_c, 0, 65, 44
2, 9579, Note_on_c, 0, 65, 0
2, 9579, Note_on_c, 0, 62, 0
2, 9600, Note_on_c, 0, 64, 55
2, 9600, Note_on_c, 0, 67, 55
2, 9629, Note_on_c, 0, 64, 0
2, 9630, Note_on_c, 0, 67, 0
2, 9630, Note_on_c, 0, 60, 44
2, 9659, Note_on_c, 0, 60, 0
2, 9660, Note_on_c, 0, 69, 70
2, 9660, Note_on_c, 0, 64, 62
2, 9690, Note_on_c, 0, 60, 49
2, 9693, Note_on_c, 0, 64, 0
2, 9693, Note_on_c, 0, 69, 0
2, 9717, Note_on_c, 0, 60, 0
2, 9720, Note_on_c, 0, 71, 62
2, 9720, Note_on_c, 0, 67, 62
2, 9747, Note_on_c, 0, 71, 0
2, 9750, Note_on_c, 0, 62, 44
2, 9751, Note_on_c, 0, 67, 0
2, 9779, Note_on_c, 0, 62, 0
2, 9780, Note_on_c, 0, 72, 70
2, 9780, Note_on_c, 0, 66, 78
2, 9810, Note_on_c, 0, 62, 62
2, 9812, Note_on_c, 0, 72, 0
2, 9813, Note_on_c, 0, 66, 0
2, 9822, Note_on_c, 0, 62, 0
2, 9840, Note_on_c, 0, 72, 110
2, 9840, Note_on_c, 0, 66, 110
2, 9865, Note_on_c, 0, 66, 0
2, 9867, Note_on_c, 0, 72, 0
2, 9900, Note_on_c, 0, 71, 44
2, 9900, Note_on_c, 0, 67, 49
2, 9927, Note_on_c, 0, 67, 0
2, 9928, Note_on_c, 0, 71, 0
2, 9960, Note_on_c, 0, 69, 44
2, 9960, Note_on_c, 0, 65, 39
2, 9980, Note_on_c, 0, 65, 0
2, 9988, Note_on_c, 0, 69, 0
2, 10020, Note_on_c, 0, 64, 19
2, 10020, Note_on_c, 0, 67, 28
2, 10055, Note_on_c, 0, 64, 0
2, 10057, Note_on_c, 0, 67, 0
2, 10080, Note_on_c, 0, 67, 110
2, 10080, Note_on_c, 0, 64, 110
2, 10125, Note_on_c, 0, 64, 0
2, 10133, Note_on_c, 0, 67, 0
2, 10140, Note_on_c, 0, 65, 49
2, 10140, Note_on_c, 0, 62, 39
2, 10177, Note_on_c, 0, 62, 0
2, 10178, Note_on_c, 0, 65, 0
2, 10200, Note_on_c, 0, 64, 44
2, 10200, Note_on_c, 0, 60, 30
2, 10230, Note_on_c, 0, 60, 0
2, 10239, Note_on_c, 0, 64, 0
2, 10260, Note_on_c, 0, 62, 28
2, 10260, Note_on_c, 0, 59, 35
2, 10275, Note_on_c, 0, 59, 0
2, 10276, Note_on_c, 0, 62, 0
2, 10320, Note_on_c, 0, 60, 39
2, 10320, Note_on_c, 0, 55, 35
2, 10370, Note_on_c, 0, 55, 0
2, 10372, Note_on_c, 0, 60, 0
2, 10440, Note_on_c, 0, 69, 35
2, 10440, Note_on_c, 0, 67, 44
2, 10451, Note_on_c, 0, 69, 0
2, 10489, Note_on_c, 0, 67, 0
2, 10500, Note_on_c, 0, 65, 44
2, 10527, Note_on_c, 0, 65, 0
2, 10530, Note_on_c, 0, 64, 35
2, 10535, Note_on_c, 0, 64, 0
2, 10560, Note_on_c, 0, 59, 110
2, 10560, Note_on_c, 0, 62, 110
2, 10620, Note_on_c, 0, 59, 0
2, 10620, Note_on_c, 0, 60, 62
2, 10625, Note_on_c, 0, 62, 0
2, 10632, Note_on_c, 0, 60, 0
2, 10665, Note_on_c, 0, 69, 49
2, 10676, Note_on_c, 0, 69, 0
2, 10680, Note_on_c, 0, 67, 55
2, 10736, Note_on_c, 0, 67, 0
2, 10740, Note_on_c, 0, 65, 49
2, 10765, Note_on_c, 0, 65, 0
2, 10770, Note_on_c, 0, 64, 30
2, 10777, Note_on_c, 0, 64, 0
2, 10800, Note_on_c, 0, 62, 110
2, 10800, Note_on_c, 0, 59, 110
2, 10853, Note_on_c, 0, 59, 0
2, 10860, Note_on_c, 0, 60, 44
2, 10863, Note_on_c, 0, 62, 0
2, 10871, Note_on_c, 0, 60, 0
2, 10920, Note_on_c, 0, 69, 49
2, 10920, Note_on_c, 0, 67, 62
2, 10932, Note_on_c, 0, 69, 0
2, 10977, Note_on_c, 0, 67, 0
2, 10980, Note_on_c, 0, 65, 55
2, 11001, Note_on_c, 0, 65, 0
2, 11010, Note_on_c, 0, 64, 35
2, 11017, Note_on_c, 0, 64, 0
2, 11040, Note_on_c, 0, 59, 110
2, 11040, Note_on_c, 0, 62, 110
2, 11100, Note_on_c, 0, 60, 70
2, 11102, Note_on_c, 0, 59, 0
2, 11104, Note_on_c, 0, 62, 0
2, 11155, Note_on_c, 0, 60, 0
2, 11160, Note_on_c, 0, 62, 98
2, 11160, Note_on_c, 0, 59, 110
2, 11215, Note_on_c, 0, 59, 0
2, 11219, Note_on_c, 0, 62, 0
2, 11220, Note_on_c, 0, 60, 49
2, 11250, Note_on_c, 0, 60, 0
2, 11280, Note_on_c, 0, 69, 70
2, 11280, Note_on_c, 0, 60, 62
2, 11370, Note_on_c, 0, 71, 62
2, 11375, Note_on_c, 0, 69, 0
2, 11388, Note_on_c, 0, 60, 0
2, 11400, Note_on_c, 0, 72, 62
2, 11401, Note_on_c, 0, 71, 0
2, 11460, Note_on_c, 0, 72, 0
2, 11460, Note_on_c, 0, 67, 55
2, 11460, Note_on_c, 0, 64, 30
2, 11564, Note_on_c, 0, 64, 0
2, 11574, Note_on_c, 0, 67, 0
2, 11580, Note_on_c, 0, 62, 55
2, 11580, Note_on_c, 0, 65, 49
2, 11700, Note_on_c, 0, 65, 0
2, 11700, Note_on_c, 0, 64, 44
2, 11700, Note_on_c, 0, 60, 44
2, 11702, Note_on_c, 0, 62, 0
2, 11731, Note_on_c, 0, 60, 0
2, 11747, Note_on_c, 0, 64, 0
2, 11760, Note_on_c, 0, 59, 55
2, 11760, Note_on_c, 0, 62, 55
2, 11813, Note_on_c, 0, 62, 0
2, 11813, Note_on_c, 0, 59, 0
2, 11820, Note_on_c, 0, 67, 55
2, 11880, Note_on_c, 0, 71, 62
2, 11882, Note_on_c, 0, 67, 0
2, 11940, Note_on_c, 0, 74, 62
2, 11941, Note_on_c, 0, 71, 0
2, 11951, Note_on_c, 0, 74, 0
2, 12000, Note_on_c, 0, 67, 110
2, 12000, Note_on_c, 0, 79, 98
2, 12000, Note_on_c, 0, 77, 98
2, 12000, Note_on_c, 0, 74, 98
2, 12026, Note_on_c, 0, 74, 0
2, 12026, Note_on_c, 0, 77, 0
2, 12027, Note_on_c, 0, 79, 0
2, 12031, Note_on_c, 0, 67, 0
2, 12060, Note_on_c, 0, 65, 70
2, 12060, Note_on_c, 0, 62, 62
2, 12082, Note_on_c, 0, 62, 0
2, 12089, Note_on_c, 0, 65, 0
2, 12090, Note_on_c, 0, 55, 44
2, 12120, Note_on_c, 0, 62, 39
2, 12120, Note_on_c, 0, 65, 55
2, 12121, Note_on_c, 0, 55, 0
2, 12143, Note_on_c, 0, 62, 0
2, 12144, Note_on_c, 0, 65, 0
2, 12150, Note_on_c, 0, 55, 24
2, 12179, Note_on_c, 0, 55, 0
2, 12180, Note_on_c, 0, 65, 39
2, 12180, Note_on_c, 0, 62, 28
2, 12205, Note_on_c, 0, 62, 0
2, 12207, Note_on_c, 0, 65, 0
2, 12210, Note_on_c, 0, 55, 15
2, 12238, Note_on_c, 0, 55, 0
2, 12240, Note_on_c, 0, 62, 39
2, 12240, Note_on_c, 0, 65, 44
2, 12265, Note_on_c, 0, 62, 0
2, 12268, Note_on_c, 0, 65, 0
2, 12270, Note_on_c, 0, 55, 35
2, 12298, Note_on_c, 0, 55, 0
2, 12300, Note_on_c, 0, 60, 30
2, 12300, Note_on_c, 0, 64, 35
2, 12325, Note_on_c, 0, 64, 0
2, 12327, Note_on_c, 0, 60, 0
2, 12330, Note_on_c, 0, 55, 30
2, 12357, Note_on_c, 0, 55, 0
2, 12360, Note_on_c, 0, 64, 39
2, 12360, Note_on_c, 0, 60, 35
2, 12390, Note_on_c, 0, 55, 49
2, 12391, Note_on_c, 0, 60, 0
2, 12392, Note_on_c, 0, 64, 0
2, 12394, Note_on_c, 0, 55, 0
2, 12420, Note_on_c, 0, 79, 44
2, 12420, Note_on_c, 0, 76, 49
2, 12432, Note_on_c, 0, 76, 0
2, 12434, Note_on_c, 0, 79, 0
2, 12450, Note_on_c, 0, 79, 35
2, 12450, Note_on_c, 0, 76, 24
2, 12459, Note_on_c, 0, 76, 0
2, 12461, Note_on_c, 0, 79, 0
2, 12480, Note_on_c, 0, 76, 39
2, 12480, Note_on_c, 0, 79, 39
2, 12496, Note_on_c, 0, 76, 0
2, 12498, Note_on_c, 0, 79, 0
2, 12510, Note_on_c, 0, 81, 35
2, 12510, Note_on_c, 0, 77, 39
2, 12528, Note_on_c, 0, 77, 0
2, 12533, Note_on_c, 0, 81, 0
2, 12540, Note_on_c, 0, 77, 35
2, 12540, Note_on_c, 0, 74, 39
2, 12550, Note_on_c, 0, 77, 0
2, 12552, Note_on_c, 0, 74, 0
2, 12570, Note_on_c, 0, 77, 35
2, 12570, Note_on_c, 0, 74, 35
2, 12580, Note_on_c, 0, 74, 0
2, 12581, Note_on_c, 0, 77, 0
2, 12600, Note_on_c, 0, 77, 39
2, 12600, Note_on_c, 0, 74, 30
2, 12618, Note_on_c, 0, 77, 0
2, 12630, Note_on_c, 0, 76, 30
2, 12630, Note_on_c, 0, 79, 28
2, 12631, Note_on_c, 0, 74, 0
2, 12641, Note_on_c, 0, 76, 0
2, 12644, Note_on_c, 0, 79, 0
2, 12660, Note_on_c, 0, 76, 35
2, 12660, Note_on_c, 0, 72, 35
2, 12671, Note_on_c, 0, 76, 0
2, 12672, Note_on_c, 0, 72, 0
2, 12690, Note_on_c, 0, 76, 35
2, 12690, Note_on_c, 0, 72, 30
2, 12701, Note_on_c, 0, 76, 0
2, 12702, Note_on_c, 0, 72, 0
2, 12720, Note_on_c, 0, 72, 39
2, 12720, Note_on_c, 0, 76, 44
2, 12755, Note_on_c, 0, 72, 0
2, 12768, Note_on_c, 0, 76, 0
2, 12780, Note_on_c, 0, 67, 62
2, 12780, Note_on_c, 0, 74, 62
2, 12780, Note_on_c, 0, 71, 62
2, 12808, Note_on_c, 0, 71, 0
2, 12838, Note_on_c, 0, 67, 0
2, 12840, Note_on_c, 0, 71, 49
2, 12841, Note_on_c, 0, 74, 0
2, 12899, Note_on_c, 0, 71, 0
2, 12900, Note_on_c, 0, 74, 70
2, 12908, Note_on_c, 0, 74, 0
2, 12960, Note_on_c, 0, 67, 110
2, 12960, Note_on_c, 0, 77, 98
2, 12960, Note_on_c, 0, 79, 98
2, 12960, Note_on_c, 0, 74, 110
2, 12983, Note_on_c, 0, 79, 0
2, 12984, Note_on_c, 0, 74, 0
2, 12985, Note_on_c, 0, 77, 0
2, 12988, Note_on_c, 0, 67, 0
2, 13020, Note_on_c, 0, 62, 39
2, 13020, Note_on_c, 0, 65, 62
2, 13040, Note_on_c, 0, 65, 0
2, 13046, Note_on_c, 0, 62, 0
2, 13050, Note_on_c, 0, 55, 49
2, 13080, Note_on_c, 0, 55, 0
2, 13080, Note_on_c, 0, 65, 44
2, 13080, Note_on_c, 0, 62, 28
2, 13101, Note_on_c, 0, 62, 0
2, 13102, Note_on_c, 0, 65, 0
2, 13110, Note_on_c, 0, 55, 22
2, 13135, Note_on_c, 0, 55, 0
2, 13140, Note_on_c, 0, 62, 28
2, 13140, Note_on_c, 0, 65, 28
2, 13159, Note_on_c, 0, 65, 0
2, 13162, Note_on_c, 0, 62, 0
2, 13170, Note_on_c, 0, 55, 24
2, 13192, Note_on_c, 0, 55, 0
2, 13200, Note_on_c, 0, 65, 49
2, 13200, Note_on_c, 0, 62, 35
2, 13242, Note_on_c, 0, 62, 0
2, 13260, Note_on_c, 0, 65, 0
2, 13260, Note_on_c, 0, 63, 70
2, 13260, Note_on_c, 0, 60, 39
2, 13341, Note_on_c, 0, 60, 0
2, 13354, Note_on_c, 0, 63, 0
2, 13380, Note_on_c, 0, 63, 78
2, 13380, Note_on_c, 0, 60, 39
2, 13380, Note_on_c, 0, 68, 44
2, 13470, Note_on_c, 0, 60, 0
2, 13472, Note_on_c, 0, 63, 0
2, 13473, Note_on_c, 0, 68, 0
2, 13500, Note_on_c, 0, 59, 49
2, 13500, Note_on_c, 0, 67, 49
2, 13500, Note_on_c, 0, 62, 49
2, 13579, Note_on_c, 0, 59, 0
2, 13583, Note_on_c, 0, 62, 0
2, 13585, Note_on_c, 0, 67, 0
2, 13620, Note_on_c, 0, 66, 62
2, 13620, Note_on_c, 0, 60, 30
2, 13620, Note_on_c, 0, 62, 35
2, 13645, Note_on_c, 0, 62, 0
2, 13649, Note_on_c, 0, 60, 0
2, 13650, Note_on_c, 0, 66, 0
2, 13680, Note_on_c, 0, 67, 49
2, 13680, Note_on_c, 0, 59, 39
2, 13680, Note_on_c, 0, 62, 49
2, 13725, Note_on_c, 0, 62, 0
2, 13735, Note_on_c, 0, 59, 0
2, 13800, Note_on_c, 0, 63, 62
2, 13800, Note_on_c, 0, 55, 35
2, 13800, Note_on_c, 0, 60, 39
2, 13847, Note_on_c, 0, 60, 0
2, 13848, Note_on_c, 0, 55, 0
2, 13852, Note_on_c, 0, 63, 0
2, 13920, Note_on_c, 0, 62, 35
2, 13920, Note_on_c, 0, 59, 39
2, 13920, Note_on_c, 0, 55, 22
2, 13964, Note_on_c, 0, 55, 0
2, 13965, Note_on_c, 0, 59, 0
2, 13965, Note_on_c, 0, 62, 0
2, 14040, Note_on_c, 0, 63, 62
2, 14040, Note_on_c, 0, 55, 35
2, 14040, Note_on_c, 0, 60, 28
2, 14095, Note_on_c, 0, 60, 0
2, 14095, Note_on_c, 0, 55, 0
2, 14099, Note_on_c, 0, 63, 0
2, 14110, Note_on_c, 0, 67, 0
2, 14160, Note_on_c, 0, 79, 70
2, 14248, Note_on_c, 0, 79, 0
2, 14250, Note_on_c, 0, 78, 78
2, 14264, Note_on_c, 0, 78, 0
2, 14265, Note_on_c, 0, 79, 55
2, 14279, Note_on_c, 0, 79, 0
2, 14280, Note_on_c, 0, 71, 88
2, 14280, Note_on_c, 0, 83, 70
2, 14403, Note_on_c, 0, 71, 0
2, 14407, Note_on_c, 0, 83, 0
2, 14520, Note_on_c, 0, 83, 98
2, 14610, Note_on_c, 0, 81, 62
2, 14611, Note_on_c, 0, 83, 0
2, 14624, Note_on_c, 0, 81, 0
2, 14625, Note_on_c, 0, 83, 62
2, 14639, Note_on_c, 0, 83, 0
2, 14640, Note_on_c, 0, 86, 78
2, 14640, Note_on_c, 0, 74, 88
2, 14755, Note_on_c, 0, 74, 0
2, 14757, Note_on_c, 0, 86, 0
2, 14880, Note_on_c, 0, 79, 88
2, 14880, Note_on_c, 0, 67, 110
2, 15087, Note_on_c, 0, 79, 0
2, 15094, Note_on_c, 0, 67, 0
2, 15120, Note_on_c, 0, 78, 110
2, 15120, Note_on_c, 0, 72, 98
2, 15120, Note_on_c, 0, 69, 98
2, 15214, Note_on_c, 0, 69, 0
2, 15215, Note_on_c, 0, 72, 0
2, 15217, Note_on_c, 0, 78, 0
2, 15240, Note_on_c, 0, 77, 88
2, 15240, Note_on_c, 0, 71, 88
2, 15240, Note_on_c, 0, 74, 98
2, 15345, Note_on_c, 0, 71, 0
2, 15350, Note_on_c, 0, 74, 0
2, 15351, Note_on_c, 0, 77, 0
2, 15360, Note_on_c, 0, 67, 98
2, 15360, Note_on_c, 0, 76, 88
2, 15360, Note_on_c, 0, 72, 98
2, 15449, Note_on_c, 0, 76, 0
2, 15461, Note_on_c, 0, 72, 0
2, 15462, Note_on_c, 0, 67, 0
2, 15480, Note_on_c, 0, 72, 98
2, 15480, Note_on_c, 0, 67, 98
2, 15569, Note_on_c, 0, 67, 0
2, 15571, Note_on_c, 0, 72, 0
2, 15600, Note_on_c, 0, 79, 88
2, 15690, Note_on_c, 0, 78, 88
2, 15694, Note_on_c, 0, 79, 0
2, 15703, Note_on_c, 0, 78, 0
2, 15705, Note_on_c, 0, 79, 70
2, 15720, Note_on_c, 0, 79, 0
2, 15720, Note_on_c, 0, 83, 88
2, 15720, Note_on_c, 0, 71, 98
2, 15838, Note_on_c, 0, 71, 0
2, 15840, Note_on_c, 0, 83, 0
2, 15960, Note_on_c, 0, 83, 110
2, 16050, Note_on_c, 0, 83, 0
2, 16050, Note_on_c, 0, 81, 70
2, 16065, Note_on_c, 0, 83, 78
2, 16068, Note_on_c, 0, 81, 0
2, 16077, Note_on_c, 0, 83, 0
2, 16080, Note_on_c, 0, 86, 98
2, 16080, Note_on_c, 0, 74, 98
2, 16199, Note_on_c, 0, 74, 0
2, 16199, Note_on_c, 0, 86, 0
2, 16320, Note_on_c, 0, 79, 98
2, 16320, Note_on_c, 0, 67, 110
2, 16542, Note_on_c, 0, 79, 0
2, 16544, Note_on_c, 0, 67, 0
2, 16560, Note_on_c, 0, 78, 110
2, 16560, Note_on_c, 0, 69, 98
2, 16560, Note_on_c, 0, 72, 98
2, 16661, Note_on_c, 0, 69, 0
2, 16662, Note_on_c, 0, 72, 0
2, 16668, Note_on_c, 0, 78, 0
2, 16680, Note_on_c, 0, 77, 88
2, 16680, Note_on_c, 0, 71, 98
2, 16680, Note_on_c, 0, 74, 98
2, 16772, Note_on_c, 0, 71, 0
2, 16777, Note_on_c, 0, 74, 0
2, 16778, Note_on_c, 0, 77, 0
2, 16800, Note_on_c, 0, 72, 110
2, 16800, Note_on_c, 0, 67, 98
2, 16800, Note_on_c, 0, 76, 88
2, 16900, Note_on_c, 0, 67, 0
2, 16903, Note_on_c, 0, 72, 0
2, 16905, Note_on_c, 0, 76, 0
2, 16920, Note_on_c, 0, 72, 98
2, 16920, Note_on_c, 0, 67, 88
2, 17015, Note_on_c, 0, 72, 0
2, 17018, Note_on_c, 0, 67, 0
2, 17040, Note_on_c, 0, 67, 98
2, 17040, Note_on_c, 0, 74, 110
2, 17040, Note_on_c, 0, 71, 98
2, 17138, Note_on_c, 0, 71, 0
2, 17138, Note_on_c, 0, 74, 0
2, 17138, Note_on_c, 0, 67, 0
2, 17160, Note_on_c, 0, 76, 98
2, 17160, Note_on_c, 0, 67, 110
2, 17160, Note_on_c, 0, 72, 110
2, 17262, Note_on_c, 0, 72, 0
2, 17262, Note_on_c, 0, 67, 0
2, 17280, Note_on_c, 0, 67, 98
2, 17280, Note_on_c, 0, 72, 98
2, 17384, Note_on_c, 0, 67, 0
2, 17387, Note_on_c, 0, 72, 0
2, 17389, Note_on_c, 0, 76, 0
2, 17400, Note_on_c, 0, 67, 110
2, 17400, Note_on_c, 0, 71, 110
2, 17400, Note_on_c, 0, 74, 110
2, 17497, Note_on_c, 0, 67, 0
2, 17498, Note_on_c, 0, 74, 0
2, 17500, Note_on_c, 0, 71, 0
2, 17520, Note_on_c, 0, 76, 98
2, 17520, Note_on_c, 0, 67, 110
2, 17520, Note_on_c, 0, 72, 110
2, 17618, Note_on_c, 0, 67, 0
2, 17619, Note_on_c, 0, 72, 0
2, 17640, Note_on_c, 0, 72, 98
2, 17640, Note_on_c, 0, 67, 98
2, 17740, Note_on_c, 0, 67, 0
2, 17740, Note_on_c, 0, 76, 0
2, 17743, Note_on_c, 0, 72, 0
2, 17760, Note_on_c, 0, 71, 110
2, 17760, Note_on_c, 0, 67, 110
2, 17760, Note_on_c, 0, 74, 98
2, 17861, Note_on_c, 0, 67, 0
2, 17864, Note_on_c, 0, 71, 0
2, 17865, Note_on_c, 0, 74, 0
2, 17880, Note_on_c, 0, 72, 98
2, 17880, Note_on_c, 0, 76, 98
2, 17880, Note_on_c, 0, 67, 98
2, 17969, Note_on_c, 0, 67, 0
2, 17973, Note_on_c, 0, 72, 0
2, 17974, Note_on_c, 0, 76, 0
2, 18000, Note_on_c, 0, 76, 98
2, 18000, Note_on_c, 0, 79, 110
2, 18000, Note_on_c, 0, 84, 110
2, 18101, Note_on_c, 0, 79, 0
2, 18102, Note_on_c, 0, 76, 0
2, 18104, Note_on_c, 0, 84, 0
2, 18120, Note_on_c, 0, 74, 98
2, 18120, Note_on_c, 0, 83, 98
2, 18120, Note_on_c, 0, 79, 110
2, 18239, Note_on_c, 0, 79, 0
2, 18240, Note_on_c, 0, 83, 0
2, 18240, Note_on_c, 0, 74, 0
2, 18480, Note_on_c, 0, 64, 44
2, 18480, Note_on_c, 0, 67, 55
2, 18488, Note_on_c, 0, 64, 0
2, 18510, Note_on_c, 0, 60, 30
2, 18522, Note_on_c, 0, 60, 0
2, 18540, Note_on_c, 0, 64, 30
2, 18550, Note_on_c, 0, 64, 0
2, 18570, Note_on_c, 0, 60, 30
2, 18583, Note_on_c, 0, 60, 0
2, 18600, Note_on_c, 0, 64, 35
2, 18616, Note_on_c, 0, 64, 0
2, 18625, Note_on_c, 0, 67, 0
2, 18630, Note_on_c, 0, 60, 39
2, 18646, Note_on_c, 0, 60, 0
2, 18660, Note_on_c, 0, 69, 55
2, 18660, Note_on_c, 0, 65, 70
2, 18674, Note_on_c, 0, 65, 0
2, 18690, Note_on_c, 0, 60, 39
2, 18699, Note_on_c, 0, 69, 0
2, 18704, Note_on_c, 0, 60, 0
2, 18720, Note_on_c, 0, 69, 39
2, 18720, Note_on_c, 0, 65, 55
2, 18744, Note_on_c, 0, 65, 0
2, 18745, Note_on_c, 0, 69, 0
2, 18750, Note_on_c, 0, 67, 28
2, 18750, Note_on_c, 0, 64, 24
2, 18767, Note_on_c, 0, 64, 0
2, 18776, Note_on_c, 0, 67, 0
2, 18780, Note_on_c, 0, 65, 62
2, 18780, Note_on_c, 0, 62, 49
2, 18787, Note_on_c, 0, 65, 0
2, 18788, Note_on_c, 0, 62, 0
2, 18810, Note_on_c, 0, 64, 49
2, 18810, Note_on_c, 0, 60, 39
2, 18819, Note_on_c, 0, 64, 0
2, 18820, Note_on_c, 0, 60, 0
2, 18840, Note_on_c, 0, 69, 49
2, 18840, Note_on_c, 0, 65, 49
2, 18849, Note_on_c, 0, 65, 0
2, 18870, Note_on_c, 0, 60, 30
2, 18872, Note_on_c, 0, 69, 0
2, 18884, Note_on_c, 0, 60, 0
2, 18900, Note_on_c, 0, 69, 44
2, 18900, Note_on_c, 0, 65, 44
2, 18908, Note_on_c, 0, 65, 0
2, 18930, Note_on_c, 0, 60, 35
2, 18939, Note_on_c, 0, 69, 0
2, 18941, Note_on_c, 0, 60, 0
2, 18960, Note_on_c, 0, 65, 49
2, 18960, Note_on_c, 0, 69, 39
2, 18987, Note_on_c, 0, 65, 0
2, 18990, Note_on_c, 0, 60, 19
2, 18994, Note_on_c, 0, 69, 0
2, 19008, Note_on_c, 0, 60, 0
2, 19020, Note_on_c, 0, 67, 44
2, 19020, Note_on_c, 0, 64, 39
2, 19036, Note_on_c, 0, 64, 0
2, 19050, Note_on_c, 0, 60, 30
2, 19065, Note_on_c, 0, 60, 0
2, 19080, Note_on_c, 0, 64, 28
2, 19094, Note_on_c, 0, 64, 0
2, 19109, Note_on_c, 0, 67, 0
2, 19110, Note_on_c, 0, 60, 30
2, 19126, Note_on_c, 0, 60, 0
2, 19140, Note_on_c, 0, 65, 55
2, 19140, Note_on_c, 0, 69, 30
2, 19166, Note_on_c, 0, 65, 0
2, 19167, Note_on_c, 0, 69, 0
2, 19170, Note_on_c, 0, 60, 39
2, 19183, Note_on_c, 0, 60, 0
2, 19200, Note_on_c, 0, 69, 44
2, 19200, Note_on_c, 0, 65, 62
2, 19219, Note_on_c, 0, 65, 0
2, 19219, Note_on_c, 0, 69, 0
2, 19230, Note_on_c, 0, 64, 35
2, 19230, Note_on_c, 0, 67, 30
2, 19245, Note_on_c, 0, 64, 0
2, 19255, Note_on_c, 0, 67, 0
2, 19260, Note_on_c, 0, 65, 44
2, 19260, Note_on_c, 0, 62, 30
2, 19270, Note_on_c, 0, 62, 0
2, 19273, Note_on_c, 0, 65, 0
2, 19290, Note_on_c, 0, 60, 28
2, 19290, Note_on_c, 0, 64, 39
2, 19300, Note_on_c, 0, 64, 0
2, 19301, Note_on_c, 0, 60, 0
2, 19320, Note_on_c, 0, 65, 62
2, 19320, Note_on_c, 0, 69, 39
2, 19331, Note_on_c, 0, 65, 0
2, 19350, Note_on_c, 0, 60, 39
2, 19357, Note_on_c, 0, 69, 0
2, 19361, Note_on_c, 0, 60, 0
2, 19380, Note_on_c, 0, 65, 49
2, 19380, Note_on_c, 0, 69, 44
2, 19392, Note_on_c, 0, 65, 0
2, 19407, Note_on_c, 0, 69, 0
2, 19410, Note_on_c, 0, 60, 35
2, 19426, Note_on_c, 0, 60, 0
2, 19440, Note_on_c, 0, 65, 44
2, 19440, Note_on_c, 0, 69, 35
2, 19466, Note_on_c, 0, 65, 0
2, 19468, Note_on_c, 0, 69, 0
2, 19470, Note_on_c, 0, 60, 28
2, 19492, Note_on_c, 0, 60, 0
2, 19500, Note_on_c, 0, 67, 28
2, 19500, Note_on_c, 0, 64, 44
2, 19518, Note_on_c, 0, 64, 0
2, 19530, Note_on_c, 0, 60, 35
2, 19548, Note_on_c, 0, 60, 0
2, 19560, Note_on_c, 0, 64, 35
2, 19568, Note_on_c, 0, 64, 0
2, 19583, Note_on_c, 0, 67, 0
2, 19590, Note_on_c, 0, 60, 49
2, 19590, Note_on_c, 0, 64, 55
2, 19599, Note_on_c, 0, 60, 0
2, 19600, Note_on_c, 0, 64, 0
2, 19620, Note_on_c, 0, 65, 55
2, 19620, Note_on_c, 0, 62, 35
2, 19626, Note_on_c, 0, 62, 0
2, 19639, Note_on_c, 0, 65, 0
2, 19650, Note_on_c, 0, 59, 44
2, 19650, Note_on_c, 0, 62, 49
2, 19660, Note_on_c, 0, 59, 0
2, 19661, Note_on_c, 0, 62, 0
2, 19680, Note_on_c, 0, 60, 44
2, 19710, Note_on_c, 0, 67, 39
2, 19711, Note_on_c, 0, 60, 0
2, 19737, Note_on_c, 0, 67, 0
2, 19740, Note_on_c, 0, 64, 44
2, 19750, Note_on_c, 0, 64, 0
2, 19770, Note_on_c, 0, 60, 44
2, 19777, Note_on_c, 0, 60, 0
2, 19800, Note_on_c, 0, 59, 35
2, 19800, Note_on_c, 0, 62, 39
2, 19842, Note_on_c, 0, 59, 0
2, 19850, Note_on_c, 0, 62, 0
2, 19860, Note_on_c, 0, 57, 28
2, 19860, Note_on_c, 0, 60, 30
2, 19877, Note_on_c, 0, 60, 0
2, 19878, Note_on_c, 0, 57, 0
2, 19890, Note_on_c, 0, 62, 30
2, 19890, Note_on_c, 0, 59, 24
2, 19901, Note_on_c, 0, 62, 0
2, 19902, Note_on_c, 0, 59, 0
2, 19920, Note_on_c, 0, 64, 49
2, 19920, Note_on_c, 0, 60, 44
2, 19932, Note_on_c, 0, 60, 0
2, 19950, Note_on_c, 0, 55, 30
2, 19962, Note_on_c, 0, 55, 0
2, 19971, Note_on_c, 0, 64, 0
2, 19980, Note_on_c, 0, 60, 35
2, 19991, Note_on_c, 0, 60, 0
2, 20010, Note_on_c, 0, 64, 39
2, 20024, Note_on_c, 0, 64, 0
2, 20040, Note_on_c, 0, 65, 44
2, 20040, Note_on_c, 0, 62, 30
2, 20085, Note_on_c, 0, 62, 0
2, 20096, Note_on_c, 0, 65, 0
2, 20100, Note_on_c, 0, 64, 24
2, 20100, Note_on_c, 0, 60, 30
2, 20114, Note_on_c, 0, 60, 0
2, 20114, Note_on_c, 0, 64, 0
2, 20130, Note_on_c, 0, 65, 44
2, 20130, Note_on_c, 0, 62, 24
2, 20140, Note_on_c, 0, 62, 0
2, 20144, Note_on_c, 0, 65, 0
2, 20160, Note_on_c, 0, 64, 30
2, 20160, Note_on_c, 0, 67, 44
2, 20179, Note_on_c, 0, 64, 0
2, 20190, Note_on_c, 0, 60, 35
2, 20192, Note_on_c, 0, 67, 0
2, 20204, Note_on_c, 0, 60, 0
2, 20220, Note_on_c, 0, 65, 62
2, 20220, Note_on_c, 0, 69, 49
2, 20247, Note_on_c, 0, 65, 0
2, 20250, Note_on_c, 0, 60, 28
2, 20252, Note_on_c, 0, 69, 0
2, 20259, Note_on_c, 0, 60, 0
2, 20280, Note_on_c, 0, 62, 44
2, 20280, Note_on_c, 0, 65, 62
2, 20280, Note_on_c, 0, 71, 44
2, 20290, Note_on_c, 0, 62, 0
2, 20295, Note_on_c, 0, 65, 0
2, 20310, Note_on_c, 0, 71, 0
2, 20310, Note_on_c, 0, 60, 44
2, 20333, Note_on_c, 0, 60, 0
2, 20340, Note_on_c, 0, 72, 55
2, 20340, Note_on_c, 0, 64, 55
2, 20366, Note_on_c, 0, 64, 0
2, 20368, Note_on_c, 0, 72, 0
2, 20370, Note_on_c, 0, 60, 49
2, 20382, Note_on_c, 0, 60, 0
2, 20400, Note_on_c, 0, 64, 78
2, 20400, Note_on_c, 0, 72, 70
2, 20412, Note_on_c, 0, 72, 0
2, 20417, Note_on_c, 0, 64, 0
2, 20430, Note_on_c, 0, 71, 49
2, 20430, Note_on_c, 0, 67, 49
2, 20450, Note_on_c, 0, 67, 0
2, 20450, Note_on_c, 0, 71, 0
2, 20460, Note_on_c, 0, 69, 35
2, 20460, Note_on_c, 0, 65, 49
2, 20471, Note_on_c, 0, 65, 0
2, 20476, Note_on_c, 0, 69, 0
2, 20490, Note_on_c, 0, 67, 30
2, 20490, Note_on_c, 0, 64, 17
2, 20501, Note_on_c, 0, 64, 0
2, 20502, Note_on_c, 0, 67, 0
2, 20520, Note_on_c, 0, 64, 28
2, 20520, Note_on_c, 0, 67, 49
2, 20531, Note_on_c, 0, 67, 0
2, 20533, Note_on_c, 0, 64, 0
2, 20550, Note_on_c, 0, 65, 55
2, 20550, Note_on_c, 0, 62, 49
2, 20558, Note_on_c, 0, 65, 0
2, 20561, Note_on_c, 0, 62, 0
2, 20580, Note_on_c, 0, 60, 24
2, 20580, Note_on_c, 0, 64, 15
2, 20586, Note_on_c, 0, 64, 0
2, 20588, Note_on_c, 0, 60, 0
2, 20610, Note_on_c, 0, 62, 44
2, 20610, Note_on_c, 0, 59, 22
2, 20616, Note_on_c, 0, 62, 0
2, 20619, Note_on_c, 0, 59, 0
2, 20640, Note_on_c, 0, 64, 44
2, 20640, Note_on_c, 0, 67, 24
2, 20664, Note_on_c, 0, 67, 0
2, 20664, Note_on_c, 0, 64, 0
2, 20670, Note_on_c, 0, 60, 49
2, 20693, Note_on_c, 0, 60, 0
2, 20700, Note_on_c, 0, 65, 55
2, 20700, Note_on_c, 0, 69, 39
2, 20722, Note_on_c, 0, 69, 0
2, 20726, Note_on_c, 0, 65, 0
2, 20730, Note_on_c, 0, 60, 30
2, 20739, Note_on_c, 0, 60, 0
2, 20760, Note_on_c, 0, 62, 55
2, 20760, Note_on_c, 0, 71, 62
2, 20760, Note_on_c, 0, 65, 70
2, 20770, Note_on_c, 0, 62, 0
2, 20790, Note_on_c, 0, 60, 49
2, 20791, Note_on_c, 0, 71, 0
2, 20792, Note_on_c, 0, 65, 0
2, 20811, Note_on_c, 0, 60, 0
2, 20820, Note_on_c, 0, 64, 62
2, 20820, Note_on_c, 0, 72, 62
2, 20850, Note_on_c, 0, 60, 55
2, 20851, Note_on_c, 0, 64, 0
2, 20852, Note_on_c, 0, 72, 0
2, 20858, Note_on_c, 0, 60, 0
2, 20880, Note_on_c, 0, 72, 70
2, 20880, Note_on_c, 0, 64, 62
2, 20897, Note_on_c, 0, 64, 0
2, 20898, Note_on_c, 0, 72, 0
2, 20910, Note_on_c, 0, 67, 44
2, 20910, Note_on_c, 0, 71, 39
2, 20920, Note_on_c, 0, 67, 0
2, 20926, Note_on_c, 0, 71, 0
2, 20940, Note_on_c, 0, 69, 30
2, 20940, Note_on_c, 0, 65, 44
2, 20948, Note_on_c, 0, 69, 0
2, 20949, Note_on_c, 0, 65, 0
2, 20970, Note_on_c, 0, 67, 24
2, 20970, Note_on_c, 0, 64, 28
2, 20978, Note_on_c, 0, 64, 0
2, 20980, Note_on_c, 0, 67, 0
2, 21000, Note_on_c, 0, 67, 35
2, 21000, Note_on_c, 0, 64, 35
2, 21008, Note_on_c, 0, 67, 0
2, 21011, Note_on_c, 0, 64, 0
2, 21030, Note_on_c, 0, 65, 44
2, 21030, Note_on_c, 0, 62, 28
2, 21037, Note_on_c, 0, 65, 0
2, 21039, Note_on_c, 0, 62, 0
2, 21060, Note_on_c, 0, 64, 44
2, 21060, Note_on_c, 0, 60, 28
2, 21067, Note_on_c, 0, 60, 0
2, 21067, Note_on_c, 0, 64, 0
2, 21090, Note_on_c, 0, 62, 55
2, 21090, Note_on_c, 0, 59, 44
2, 21103, Note_on_c, 0, 59, 0
2, 21103, Note_on_c, 0, 62, 0
2, 21120, Note_on_c, 0, 60, 110
2, 21208, Note_on_c, 0, 60, 0
2, 21210, Note_on_c, 0, 59, 70
2, 21223, Note_on_c, 0, 59, 0
2, 21225, Note_on_c, 0, 60, 88
2, 21235, Note_on_c, 0, 60, 0
2, 21240, Note_on_c, 0, 64, 88
2, 21366, Note_on_c, 0, 64, 0
2, 21480, Note_on_c, 0, 64, 98
2, 21569, Note_on_c, 0, 64, 0
2, 21570, Note_on_c, 0, 62, 98
2, 21582, Note_on_c, 0, 62, 0
2, 21585, Note_on_c, 0, 64, 88
2, 21597, Note_on_c, 0, 64, 0
2, 21600, Note_on_c, 0, 67, 98
2, 21721, Note_on_c, 0, 67, 0
2, 21840, Note_on_c, 0, 74, 88
2, 21840, Note_on_c, 0, 79, 98
2, 21840, Note_on_c, 0, 83, 98
2, 21937, Note_on_c, 0, 79, 0
2, 21937, Note_on_c, 0, 74, 0
2, 21939, Note_on_c, 0, 83, 0
2, 21960, Note_on_c, 0, 74, 98
2, 21960, Note_on_c, 0, 83, 98
2, 21960, Note_on_c, 0, 79, 98
2, 22060, Note_on_c, 0, 79, 0
2, 22060, Note_on_c, 0, 83, 0
2, 22062, Note_on_c, 0, 74, 0
2, 22080, Note_on_c, 0, 74, 98
2, 22080, Note_on_c, 0, 83, 98
2, 22080, Note_on_c, 0, 79, 98
2, 22176, Note_on_c, 0, 83, 0
2, 22178, Note_on_c, 0, 79, 0
2, 22178, Note_on_c, 0, 74, 0
2, 22200, Note_on_c, 0, 74, 88
2, 22200, Note_on_c, 0, 79, 88
2, 22200, Note_on_c, 0, 83, 98
2, 22403, Note_on_c, 0, 79, 0
2, 22422, Note_on_c, 0, 74, 0
2, 22424, Note_on_c, 0, 83, 0
2, 22440, Note_on_c, 0, 84, 88
2, 22470, Note_on_c, 0, 83, 70
2, 22475, Note_on_c, 0, 84, 0
2, 22495, Note_on_c, 0, 83, 0
2, 22500, Note_on_c, 0, 81, 70
2, 22511, Note_on_c, 0, 81, 0
2, 22530, Note_on_c, 0, 79, 55
2, 22543, Note_on_c, 0, 79, 0
2, 22560, Note_on_c, 0, 77, 55
2, 22590, Note_on_c, 0, 79, 35
2, 22592, Note_on_c, 0, 77, 0
2, 22619, Note_on_c, 0, 79, 0
2, 22620, Note_on_c, 0, 81, 39
2, 22648, Note_on_c, 0, 81, 0
2, 22650, Note_on_c, 0, 77, 44
2, 22678, Note_on_c, 0, 77, 0
2, 22680, Note_on_c, 0, 76, 39
2, 22710, Note_on_c, 0, 77, 39
2, 22714, Note_on_c, 0, 76, 0
2, 22738, Note_on_c, 0, 77, 0
2, 22740, Note_on_c, 0, 79, 55
2, 22768, Note_on_c, 0, 79, 0
2, 22770, Note_on_c, 0, 76, 49
2, 22798, Note_on_c, 0, 76, 0
2, 22800, Note_on_c, 0, 74, 62
2, 22830, Note_on_c, 0, 76, 44
2, 22832, Note_on_c, 0, 74, 0
2, 22856, Note_on_c, 0, 76, 0
2, 22860, Note_on_c, 0, 77, 44
2, 22885, Note_on_c, 0, 77, 0
2, 22890, Note_on_c, 0, 74, 62
2, 22919, Note_on_c, 0, 74, 0
2, 22920, Note_on_c, 0, 72, 98
2, 23008, Note_on_c, 0, 72, 0
2, 23010, Note_on_c, 0, 71, 70
2, 23023, Note_on_c, 0, 71, 0
2, 23025, Note_on_c, 0, 72, 78
2, 23035, Note_on_c, 0, 72, 0
2, 23040, Note_on_c, 0, 76, 98
2, 23040, Note_on_c, 0, 64, 98
2, 23160, Note_on_c, 0, 64, 0
2, 23168, Note_on_c, 0, 76, 0
2, 23280, Note_on_c, 0, 76, 98
2, 23370, Note_on_c, 0, 74, 78
2, 23372, Note_on_c, 0, 76, 0
2, 23385, Note_on_c, 0, 76, 62
2, 23386, Note_on_c, 0, 74, 0
2, 23398, Note_on_c, 0, 76, 0
2, 23400, Note_on_c, 0, 67, 98
2, 23400, Note_on_c, 0, 79, 78
2, 23514, Note_on_c, 0, 67, 0
2, 23519, Note_on_c, 0, 79, 0
2, 23640, Note_on_c, 0, 74, 98
2, 23640, Note_on_c, 0, 79, 98
2, 23640, Note_on_c, 0, 83, 110
2, 23732, Note_on_c, 0, 79, 0
2, 23735, Note_on_c, 0, 74, 0
2, 23738, Note_on_c, 0, 83, 0
2, 23760, Note_on_c, 0, 79, 98
2, 23760, Note_on_c, 0, 74, 88
2, 23760, Note_on_c, 0, 83, 98
2, 23793, Note_on_c, 0, 74, 0
2, 23793, Note_on_c, 0, 79, 0
2, 23794, Note_on_c, 0, 83, 0
2, 23820, Note_on_c, 0, 79, 98
2, 23820, Note_on_c, 0, 74, 88
2, 23820, Note_on_c, 0, 83, 98
2, 23854, Note_on_c, 0, 83, 0
2, 23854, Note_on_c, 0, 74, 0
2, 23854, Note_on_c, 0, 79, 0
2, 23880, Note_on_c, 0, 74, 88
2, 23880, Note_on_c, 0, 83, 88
2, 23880, Note_on_c, 0, 79, 88
2, 23911, Note_on_c, 0, 79, 0
2, 23911, Note_on_c, 0, 74, 0
2, 23912, Note_on_c, 0, 83, 0
2, 23940, Note_on_c, 0, 79, 98
2, 23940, Note_on_c, 0, 83, 98
2, 23940, Note_on_c, 0, 74, 98
2, 23969, Note_on_c, 0, 74, 0
2, 23969, Note_on_c, 0, 83, 0
2, 23969, Note_on_c, 0, 79, 0
2, 24000, Note_on_c, 0, 79, 98
2, 24000, Note_on_c, 0, 83, 98
2, 24000, Note_on_c, 0, 74, 98
2, 24227, Note_on_c, 0, 79, 0
2, 24230, Note_on_c, 0, 74, 0
2, 24235, Note_on_c, 0, 83, 0
2, 24240, Note_on_c, 0, 84, 98
2, 24270, Note_on_c, 0, 83, 70
2, 24271, Note_on_c, 0, 84, 0
2, 24296, Note_on_c, 0, 83, 0
2, 24300, Note_on_c, 0, 81, 78
2, 24317, Note_on_c, 0, 81, 0
2, 24330, Note_on_c, 0, 79, 70
2, 24354, Note_on_c, 0, 79, 0
2, 24360, Note_on_c, 0, 77, 78
2, 24390, Note_on_c, 0, 79, 70
2, 24391, Note_on_c, 0, 77, 0
2, 24420, Note_on_c, 0, 81, 78
2, 24421, Note_on_c, 0, 79, 0
2, 24450, Note_on_c, 0, 77, 88
2, 24452, Note_on_c, 0, 81, 0
2, 24480, Note_on_c, 0, 76, 70
2, 24483, Note_on_c, 0, 77, 0
2, 24510, Note_on_c, 0, 76, 0
2, 24510, Note_on_c, 0, 77, 88
2, 24539, Note_on_c, 0, 77, 0
2, 24540, Note_on_c, 0, 79, 78
2, 24569, Note_on_c, 0, 79, 0
2, 24570, Note_on_c, 0, 76, 78
2, 24600, Note_on_c, 0, 74, 88
2, 24602, Note_on_c, 0, 76, 0
2, 24630, Note_on_c, 0, 76, 62
2, 24634, Note_on_c, 0, 74, 0
2, 24658, Note_on_c, 0, 76, 0
2, 24660, Note_on_c, 0, 77, 78
2, 24690, Note_on_c, 0, 74, 78
2, 24693, Note_on_c, 0, 77, 0
2, 24718, Note_on_c, 0, 74, 0
2, 24720, Note_on_c, 0, 72, 98
2, 24746, Note_on_c, 0, 72, 0
2, 24750, Note_on_c, 0, 60, 70
2, 24780, Note_on_c, 0, 62, 88
2, 24783, Note_on_c, 0, 60, 0
2, 24810, Note_on_c, 0, 62, 0
2, 24810, Note_on_c, 0, 64, 70
2, 24840, Note_on_c, 0, 65, 88
2, 24846, Note_on_c, 0, 64, 0
2, 24870, Note_on_c, 0, 65, 0
2, 24870, Note_on_c, 0, 67, 88
2, 24900, Note_on_c, 0, 69, 88
2, 24902, Note_on_c, 0, 67, 0
2, 24930, Note_on_c, 0, 71, 88
2, 24933, Note_on_c, 0, 69, 0
2, 24960, Note_on_c, 0, 72, 78
2, 24963, Note_on_c, 0, 71, 0
2, 24990, Note_on_c, 0, 72, 0
2, 24990, Note_on_c, 0, 74, 88
2, 25020, Note_on_c, 0, 76, 70
2, 25024, Note_on_c, 0, 74, 0
2, 25050, Note_on_c, 0, 77, 78
2, 25051, Note_on_c, 0, 76, 0
2, 25077, Note_on_c, 0, 77, 0
2, 25080, Note_on_c, 0, 76, 88
2, 25080, Note_on_c, 0, 79, 88
2, 25180, Note_on_c, 0, 76, 0
2, 25196, Note_on_c, 0, 79, 0
2, 25200, Note_on_c, 0, 76, 98
2, 25200, Note_on_c, 0, 72, 88
2, 25300, Note_on_c, 0, 72, 0
2, 25306, Note_on_c, 0, 76, 0
2, 25320, Note_on_c, 0, 71, 110
2, 25320, Note_on_c, 0, 67, 98
2, 25320, Note_on_c, 0, 74, 98
2, 25408, Note_on_c, 0, 74, 0
2, 25409, Note_on_c, 0, 67, 0
2, 25409, Note_on_c, 0, 71, 0
2, 25440, Note_on_c, 0, 64, 98
2, 25440, Note_on_c, 0, 72, 88
2, 25461, Note_on_c, 0, 64, 0
2, 25470, Note_on_c, 0, 72, 0
2, 25470, Note_on_c, 0, 60, 88
2, 25500, Note_on_c, 0, 62, 70
2, 25503, Note_on_c, 0, 60, 0
2, 25526, Note_on_c, 0, 62, 0
2, 25530, Note_on_c, 0, 64, 78
2, 25559, Note_on_c, 0, 64, 0
2, 25560, Note_on_c, 0, 65, 98
2, 25590, Note_on_c, 0, 67, 78
2, 25594, Note_on_c, 0, 65, 0
2, 25620, Note_on_c, 0, 69, 78
2, 25623, Note_on_c, 0, 67, 0
2, 25649, Note_on_c, 0, 69, 0
2, 25650, Note_on_c, 0, 71, 88
2, 25680, Note_on_c, 0, 72, 78
2, 25685, Note_on_c, 0, 71, 0
2, 25710, Note_on_c, 0, 74, 78
2, 25717, Note_on_c, 0, 72, 0
2, 25740, Note_on_c, 0, 76, 78
2, 25742, Note_on_c, 0, 74, 0
2, 25770, Note_on_c, 0, 77, 78
2, 25772, Note_on_c, 0, 76, 0
2, 25799, Note_on_c, 0, 77, 0
2, 25800, Note_on_c, 0, 79, 110
2, 25800, Note_on_c, 0, 76, 98
2, 25890, Note_on_c, 0, 76, 0
2, 25904, Note_on_c, 0, 79, 0
2, 25920, Note_on_c, 0, 72, 88
2, 25920, Note_on_c, 0, 76, 98
2, 26015, Note_on_c, 0, 72, 0
2, 26026, Note_on_c, 0, 76, 0
2, 26040, Note_on_c, 0, 67, 98
2, 26040, Note_on_c, 0, 74, 98
2, 26040, Note_on_c, 0, 71, 98
2, 26126, Note_on_c, 0, 67, 0
2, 26133, Note_on_c, 0, 71, 0
2, 26134, Note_on_c, 0, 74, 0
2, 26160, Note_on_c, 0, 64, 110
2, 26160, Note_on_c, 0, 72, 98
2, 26248, Note_on_c, 0, 64, 0
2, 26251, Note_on_c, 0, 72, 0
2, 26280, Note_on_c, 0, 79, 98
2, 26280, Note_on_c, 0, 67, 110
2, 26280, Note_on_c, 0, 72, 88
2, 26280, Note_on_c, 0, 76, 88
2, 26362, Note_on_c, 0, 67, 0
2, 26364, Note_on_c, 0, 72, 0
2, 26365, Note_on_c, 0, 76, 0
2, 26368, Note_on_c, 0, 79, 0
2, 26400, Note_on_c, 0, 83, 110
2, 26400, Note_on_c, 0, 71, 98
2, 26400, Note_on_c, 0, 74, 98
2, 26400, Note_on_c, 0, 79, 98
2, 26490, Note_on_c, 0, 74, 0
2, 26492, Note_on_c, 0, 71, 0
2, 26493, Note_on_c, 0, 83, 0
2, 26500, Note_on_c, 0, 79, 0
2, 26520, Note_on_c, 0, 84, 110
2, 26520, Note_on_c, 0, 72, 98
2, 26520, Note_on_c, 0, 76, 98
2, 26520, Note_on_c, 0, 79, 98
2, 26627, Note_on_c, 0, 79, 0
2, 26627, Note_on_c, 0, 76, 0
2, 26629, Note_on_c, 0, 72, 0
2, 26629, Note_on_c, 0, 84, 0
2, 26629, End_track
3, 0, Start_track
3, 0, MIDI_port, 0
3, 0, Title_t, "bass accomp"
3, 0, Note_on_c, 0, 48, 44
3, 22, Note_on_c, 0, 48, 0
3, 30, Note_on_c, 0, 60, 44
3, 41, Note_on_c, 0, 60, 0
3, 60, Note_on_c, 0, 64, 49
3, 74, Note_on_c, 0, 64, 0
3, 90, Note_on_c, 0, 60, 35
3, 102, Note_on_c, 0, 60, 0
3, 120, Note_on_c, 0, 64, 30
3, 133, Note_on_c, 0, 64, 0
3, 150, Note_on_c, 0, 60, 39
3, 164, Note_on_c, 0, 60, 0
3, 180, Note_on_c, 0, 65, 55
3, 195, Note_on_c, 0, 65, 0
3, 210, Note_on_c, 0, 60, 30
3, 225, Note_on_c, 0, 60, 0
3, 240, Note_on_c, 0, 48, 35
3, 264, Note_on_c, 0, 48, 0
3, 270, Note_on_c, 0, 64, 49
3, 297, Note_on_c, 0, 64, 0
3, 300, Note_on_c, 0, 62, 44
3, 321, Note_on_c, 0, 62, 0
3, 330, Note_on_c, 0, 60, 44
3, 340, Note_on_c, 0, 60, 0
3, 360, Note_on_c, 0, 65, 49
3, 371, Note_on_c, 0, 65, 0
3, 390, Note_on_c, 0, 60, 39
3, 403, Note_on_c, 0, 60, 0
3, 420, Note_on_c, 0, 65, 44
3, 435, Note_on_c, 0, 65, 0
3, 450, Note_on_c, 0, 60, 30
3, 464, Note_on_c, 0, 60, 0
3, 480, Note_on_c, 0, 48, 49
3, 498, Note_on_c, 0, 48, 0
3, 510, Note_on_c, 0, 60, 35
3, 523, Note_on_c, 0, 60, 0
3, 540, Note_on_c, 0, 64, 39
3, 554, Note_on_c, 0, 64, 0
3, 570, Note_on_c, 0, 60, 30
3, 583, Note_on_c, 0, 60, 0
3, 600, Note_on_c, 0, 64, 35
3, 615, Note_on_c, 0, 64, 0
3, 630, Note_on_c, 0, 60, 30
3, 645, Note_on_c, 0, 60, 0
3, 660, Note_on_c, 0, 65, 44
3, 675, Note_on_c, 0, 65, 0
3, 690, Note_on_c, 0, 60, 24
3, 703, Note_on_c, 0, 60, 0
3, 720, Note_on_c, 0, 48, 30
3, 750, Note_on_c, 0, 64, 39
3, 753, Note_on_c, 0, 48, 0
3, 773, Note_on_c, 0, 64, 0
3, 780, Note_on_c, 0, 62, 39
3, 790, Note_on_c, 0, 62, 0
3, 810, Note_on_c, 0, 60, 30
3, 822, Note_on_c, 0, 60, 0
3, 840, Note_on_c, 0, 65, 4
3, 847, Note_on_c, 0, 65, 0
3, 870, Note_on_c, 0, 60, 35
3, 882, Note_on_c, 0, 60, 0
3, 900, Note_on_c, 0, 65, 55
3, 916, Note_on_c, 0, 65, 0
3, 930, Note_on_c, 0, 60, 30
3, 942, Note_on_c, 0, 60, 0
3, 960, Note_on_c, 0, 65, 55
3, 987, Note_on_c, 0, 65, 0
3, 990, Note_on_c, 0, 60, 35
3, 1017, Note_on_c, 0, 60, 0
3, 1020, Note_on_c, 0, 64, 44
3, 1046, Note_on_c, 0, 64, 0
3, 1050, Note_on_c, 0, 60, 30
3, 1066, Note_on_c, 0, 60, 0
3, 1080, Note_on_c, 0, 52, 30
3, 1080, Note_on_c, 0, 64, 55
3, 1109, Note_on_c, 0, 64, 0
3, 1110, Note_on_c, 0, 60, 35
3, 1111, Note_on_c, 0, 52, 0
3, 1136, Note_on_c, 0, 60, 0
3, 1140, Note_on_c, 0, 55, 24
3, 1140, Note_on_c, 0, 62, 35
3, 1169, Note_on_c, 0, 62, 0
3, 1170, Note_on_c, 0, 59, 62
3, 1191, Note_on_c, 0, 55, 0
3, 1195, Note_on_c, 0, 59, 0
3, 1200, Note_on_c, 0, 48, 49
3, 1230, Note_on_c, 0, 67, 55
3, 1246, Note_on_c, 0, 48, 0
3, 1257, Note_on_c, 0, 67, 0
3, 1260, Note_on_c, 0, 64, 49
3, 1285, Note_on_c, 0, 64, 0
3, 1290, Note_on_c, 0, 60, 44
3, 1297, Note_on_c, 0, 60, 0
3, 1320, Note_on_c, 0, 59, 55
3, 1320, Note_on_c, 0, 55, 55
3, 1373, Note_on_c, 0, 55, 0
3, 1378, Note_on_c, 0, 59, 0
3, 1380, Note_on_c, 0, 57, 55
3, 1388, Note_on_c, 0, 57, 0
3, 1410, Note_on_c, 0, 59, 39
3, 1427, Note_on_c, 0, 59, 0
3, 1440, Note_on_c, 0, 60, 44
3, 1467, Note_on_c, 0, 60, 0
3, 1470, Note_on_c, 0, 55, 30
3, 1487, Note_on_c, 0, 55, 0
3, 1500, Note_on_c, 0, 60, 44
3, 1513, Note_on_c, 0, 60, 0
3, 1530, Note_on_c, 0, 64, 49
3, 1540, Note_on_c, 0, 64, 0
3, 1560, Note_on_c, 0, 62, 55
3, 1560, Note_on_c, 0, 55, 35
3, 1620, Note_on_c, 0, 60, 39
3, 1622, Note_on_c, 0, 62, 0
3, 1629, Note_on_c, 0, 55, 0
3, 1644, Note_on_c, 0, 60, 0
3, 1650, Note_on_c, 0, 62, 49
3, 1669, Note_on_c, 0, 62, 0
3, 1680, Note_on_c, 0, 48, 44
3, 1701, Note_on_c, 0, 48, 0
3, 1710, Note_on_c, 0, 64, 44
3, 1728, Note_on_c, 0, 64, 0
3, 1740, Note_on_c, 0, 65, 44
3, 1763, Note_on_c, 0, 65, 0
3, 1770, Note_on_c, 0, 60, 30
3, 1787, Note_on_c, 0, 60, 0
3, 1800, Note_on_c, 0, 67, 55
3, 1822, Note_on_c, 0, 67, 0
3, 1830, Note_on_c, 0, 60, 44
3, 1850, Note_on_c, 0, 60, 0
3, 1860, Note_on_c, 0, 69, 49
3, 1886, Note_on_c, 0, 69, 0
3, 1890, Note_on_c, 0, 60, 28
3, 1908, Note_on_c, 0, 60, 0
3, 1920, Note_on_c, 0, 69, 62
3, 1945, Note_on_c, 0, 69, 0
3, 1950, Note_on_c, 0, 67, 49
3, 1971, Note_on_c, 0, 67, 0
3, 1980, Note_on_c, 0, 65, 62
3, 1980, Note_on_c, 0, 60, 30
3, 2002, Note_on_c, 0, 60, 0
3, 2003, Note_on_c, 0, 65, 0
3, 2010, Note_on_c, 0, 64, 30
3, 2029, Note_on_c, 0, 64, 0
3, 2040, Note_on_c, 0, 65, 49
3, 2040, Note_on_c, 0, 60, 30
3, 2064, Note_on_c, 0, 60, 0
3, 2066, Note_on_c, 0, 65, 0
3, 2070, Note_on_c, 0, 64, 35
3, 2088, Note_on_c, 0, 64, 0
3, 2100, Note_on_c, 0, 62, 44
3, 2128, Note_on_c, 0, 62, 0
3, 2130, Note_on_c, 0, 60, 39
3, 2135, Note_on_c, 0, 60, 0
3, 2160, Note_on_c, 0, 55, 55
3, 2160, Note_on_c, 0, 64, 49
3, 2183, Note_on_c, 0, 55, 0
3, 2188, Note_on_c, 0, 64, 0
3, 2190, Note_on_c, 0, 60, 35
3, 2203, Note_on_c, 0, 60, 0
3, 2220, Note_on_c, 0, 55, 44
3, 2220, Note_on_c, 0, 64, 62
3, 2247, Note_on_c, 0, 64, 0
3, 2250, Note_on_c, 0, 60, 39
3, 2254, Note_on_c, 0, 55, 0
3, 2260, Note_on_c, 0, 60, 0
3, 2280, Note_on_c, 0, 59, 55
3, 2280, Note_on_c, 0, 55, 35
3, 2305, Note_on_c, 0, 59, 0
3, 2310, Note_on_c, 0, 62, 62
3, 2316, Note_on_c, 0, 55, 0
3, 2323, Note_on_c, 0, 62, 0
3, 2340, Note_on_c, 0, 67, 55
3, 2357, Note_on_c, 0, 67, 0
3, 2370, Note_on_c, 0, 65, 62
3, 2385, Note_on_c, 0, 65, 0
3, 2400, Note_on_c, 0, 48, 44
3, 2450, Note_on_c, 0, 48, 0
3, 2640, Note_on_c, 0, 48, 55
3, 2686, Note_on_c, 0, 48, 0
3, 2760, Note_on_c, 0, 48, 49
3, 2809, Note_on_c, 0, 48, 0
3, 2880, Note_on_c, 0, 48, 70
3, 2978, Note_on_c, 0, 48, 0
3, 3120, Note_on_c, 0, 48, 44
3, 3184, Note_on_c, 0, 48, 0
3, 3240, Note_on_c, 0, 48, 35
3, 3300, Note_on_c, 0, 48, 0
3, 3420, Note_on_c, 0, 48, 55
3, 3480, Note_on_c, 0, 52, 49
3, 3488, Note_on_c, 0, 48, 0
3, 3536, Note_on_c, 0, 52, 0
3, 3540, Note_on_c, 0, 55, 62
3, 3572, Note_on_c, 0, 55, 0
3, 3600, Note_on_c, 0, 48, 44
3, 3650, Note_on_c, 0, 48, 0
3, 3720, Note_on_c, 0, 55, 44
3, 3769, Note_on_c, 0, 55, 0
3, 3840, Note_on_c, 0, 48, 35
3, 3908, Note_on_c, 0, 48, 0
3, 3960, Note_on_c, 0, 55, 39
3, 4014, Note_on_c, 0, 55, 0
3, 4080, Note_on_c, 0, 48, 49
3, 4199, Note_on_c, 0, 48, 0
3, 4320, Note_on_c, 0, 52, 39
3, 4380, Note_on_c, 0, 48, 39
3, 4381, Note_on_c, 0, 52, 0
3, 4440, Note_on_c, 0, 48, 0
3, 4440, Note_on_c, 0, 55, 55
3, 4499, Note_on_c, 0, 55, 0
3, 4500, Note_on_c, 0, 43, 55
3, 4560, Note_on_c, 0, 52, 55
3, 4560, Note_on_c, 0, 48, 44
3, 4561, Note_on_c, 0, 43, 0
3, 4615, Note_on_c, 0, 48, 0
3, 4616, Note_on_c, 0, 52, 0
3, 4620, Note_on_c, 0, 43, 49
3, 4680, Note_on_c, 0, 43, 0
3, 4680, Note_on_c, 0, 48, 44
3, 4740, Note_on_c, 0, 52, 55
3, 4744, Note_on_c, 0, 48, 0
3, 4757, Note_on_c, 0, 52, 0
3, 4800, Note_on_c, 0, 43, 98
3, 4800, Note_on_c, 0, 55, 98
3, 4831, Note_on_c, 0, 43, 0
3, 4839, Note_on_c, 0, 55, 0
3, 4860, Note_on_c, 0, 43, 28
3, 4881, Note_on_c, 0, 43, 0
3, 4920, Note_on_c, 0, 43, 19
3, 4942, Note_on_c, 0, 43, 0
3, 4980, Note_on_c, 0, 43, 44
3, 4999, Note_on_c, 0, 43, 0
3, 5040, Note_on_c, 0, 43, 44
3, 5062, Note_on_c, 0, 43, 0
3, 5100, Note_on_c, 0, 43, 44
3, 5126, Note_on_c, 0, 43, 0
3, 5160, Note_on_c, 0, 43, 30
3, 5183, Note_on_c, 0, 43, 0
3, 5220, Note_on_c, 0, 55, 35
3, 5220, Note_on_c, 0, 43, 39
3, 5243, Note_on_c, 0, 43, 0
3, 5248, Note_on_c, 0, 55, 0
3, 5280, Note_on_c, 0, 43, 49
3, 5280, Note_on_c, 0, 55, 44
3, 5307, Note_on_c, 0, 43, 0
3, 5310, Note_on_c, 0, 55, 0
3, 5340, Note_on_c, 0, 55, 44
3, 5340, Note_on_c, 0, 43, 44
3, 5365, Note_on_c, 0, 43, 0
3, 5368, Note_on_c, 0, 55, 0
3, 5400, Note_on_c, 0, 43, 35
3, 5400, Note_on_c, 0, 55, 39
3, 5427, Note_on_c, 0, 55, 0
3, 5427, Note_on_c, 0, 43, 0
3, 5460, Note_on_c, 0, 55, 39
3, 5460, Note_on_c, 0, 43, 39
3, 5482, Note_on_c, 0, 43, 0
3, 5487, Note_on_c, 0, 55, 0
3, 5520, Note_on_c, 0, 55, 44
3, 5520, Note_on_c, 0, 43, 35
3, 5545, Note_on_c, 0, 43, 0
3, 5547, Note_on_c, 0, 55, 0
3, 5580, Note_on_c, 0, 55, 44
3, 5580, Note_on_c, 0, 43, 39
3, 5604, Note_on_c, 0, 43, 0
3, 5606, Note_on_c, 0, 55, 0
3, 5640, Note_on_c, 0, 55, 39
3, 5640, Note_on_c, 0, 43, 39
3, 5668, Note_on_c, 0, 43, 0
3, 5671, Note_on_c, 0, 55, 0
3, 5700, Note_on_c, 0, 43, 35
3, 5700, Note_on_c, 0, 55, 39
3, 5724, Note_on_c, 0, 43, 0
3, 5727, Note_on_c, 0, 55, 0
3, 5760, Note_on_c, 0, 55, 110
3, 5760, Note_on_c, 0, 43, 110
3, 5791, Note_on_c, 0, 43, 0
3, 5798, Note_on_c, 0, 55, 0
3, 5820, Note_on_c, 0, 43, 62
3, 5842, Note_on_c, 0, 43, 0
3, 5880, Note_on_c, 0, 43, 24
3, 5903, Note_on_c, 0, 43, 0
3, 5940, Note_on_c, 0, 43, 30
3, 5962, Note_on_c, 0, 43, 0
3, 6000, Note_on_c, 0, 43, 30
3, 6020, Note_on_c, 0, 43, 0
3, 6060, Note_on_c, 0, 43, 44
3, 6085, Note_on_c, 0, 43, 0
3, 6120, Note_on_c, 0, 43, 39
3, 6141, Note_on_c, 0, 43, 0
3, 6180, Note_on_c, 0, 43, 49
3, 6180, Note_on_c, 0, 55, 39
3, 6204, Note_on_c, 0, 43, 0
3, 6206, Note_on_c, 0, 55, 0
3, 6240, Note_on_c, 0, 55, 44
3, 6240, Note_on_c, 0, 43, 35
3, 6263, Note_on_c, 0, 43, 0
3, 6265, Note_on_c, 0, 55, 0
3, 6300, Note_on_c, 0, 55, 35
3, 6300, Note_on_c, 0, 43, 35
3, 6322, Note_on_c, 0, 43, 0
3, 6324, Note_on_c, 0, 55, 0
3, 6360, Note_on_c, 0, 43, 30
3, 6360, Note_on_c, 0, 55, 35
3, 6384, Note_on_c, 0, 55, 0
3, 6384, Note_on_c, 0, 43, 0
3, 6420, Note_on_c, 0, 43, 30
3, 6420, Note_on_c, 0, 55, 30
3, 6447, Note_on_c, 0, 43, 0
3, 6449, Note_on_c, 0, 55, 0
3, 6480, Note_on_c, 0, 55, 44
3, 6480, Note_on_c, 0, 43, 39
3, 6522, Note_on_c, 0, 43, 0
3, 6525, Note_on_c, 0, 55, 0
3, 6600, Note_on_c, 0, 50, 44
3, 6600, Note_on_c, 0, 62, 39
3, 6600, Note_on_c, 0, 57, 55
3, 6641, Note_on_c, 0, 57, 0
3, 6643, Note_on_c, 0, 62, 0
3, 6646, Note_on_c, 0, 50, 0
3, 6720, Note_on_c, 0, 62, 35
3, 6720, Note_on_c, 0, 55, 44
3, 6755, Note_on_c, 0, 62, 0
3, 6758, Note_on_c, 0, 55, 0
3, 6840, Note_on_c, 0, 50, 28
3, 6840, Note_on_c, 0, 62, 17
3, 6840, Note_on_c, 0, 57, 39
3, 6875, Note_on_c, 0, 57, 0
3, 6877, Note_on_c, 0, 62, 0
3, 6882, Note_on_c, 0, 50, 0
3, 6960, Note_on_c, 0, 55, 35
3, 6960, Note_on_c, 0, 62, 28
3, 6975, Note_on_c, 0, 62, 0
3, 6980, Note_on_c, 0, 55, 0
3, 7020, Note_on_c, 0, 55, 62
3, 7020, Note_on_c, 0, 43, 62
3, 7031, Note_on_c, 0, 43, 0
3, 7031, Note_on_c, 0, 55, 0
3, 7080, Note_on_c, 0, 55, 62
3, 7080, Note_on_c, 0, 43, 62
3, 7094, Note_on_c, 0, 55, 0
3, 7096, Note_on_c, 0, 43, 0
3, 7140, Note_on_c, 0, 55, 78
3, 7140, Note_on_c, 0, 43, 78
3, 7156, Note_on_c, 0, 43, 0
3, 7158, Note_on_c, 0, 55, 0
3, 7200, Note_on_c, 0, 43, 78
3, 7200, Note_on_c, 0, 55, 88
3, 7214, Note_on_c, 0, 43, 0
3, 7226, Note_on_c, 0, 55, 0
3, 7260, Note_on_c, 0, 55, 70
3, 7260, Note_on_c, 0, 53, 70
3, 7300, Note_on_c, 0, 53, 0
3, 7300, Note_on_c, 0, 55, 0
3, 7320, Note_on_c, 0, 52, 78
3, 7320, Note_on_c, 0, 55, 62
3, 7357, Note_on_c, 0, 52, 0
3, 7360, Note_on_c, 0, 55, 0
3, 7380, Note_on_c, 0, 55, 70
3, 7380, Note_on_c, 0, 50, 70
3, 7416, Note_on_c, 0, 55, 0
3, 7422, Note_on_c, 0, 50, 0
3, 7440, Note_on_c, 0, 48, 44
3, 7470, Note_on_c, 0, 48, 0
3, 7470, Note_on_c, 0, 60, 11
3, 7496, Note_on_c, 0, 60, 0
3, 7500, Note_on_c, 0, 64, 19
3, 7523, Note_on_c, 0, 64, 0
3, 7530, Note_on_c, 0, 60, 28
3, 7556, Note_on_c, 0, 60, 0
3, 7560, Note_on_c, 0, 64, 28
3, 7585, Note_on_c, 0, 64, 0
3, 7590, Note_on_c, 0, 60, 22
3, 7618, Note_on_c, 0, 60, 0
3, 7620, Note_on_c, 0, 65, 44
3, 7648, Note_on_c, 0, 65, 0
3, 7650, Note_on_c, 0, 60, 28
3, 7666, Note_on_c, 0, 60, 0
3, 7680, Note_on_c, 0, 48, 49
3, 7715, Note_on_c, 0, 48, 0
3, 7800, Note_on_c, 0, 48, 39
3, 7831, Note_on_c, 0, 48, 0
3, 7920, Note_on_c, 0, 48, 44
3, 8039, Note_on_c, 0, 48, 0
3, 8160, Note_on_c, 0, 48, 39
3, 8206, Note_on_c, 0, 48, 0
3, 8280, Note_on_c, 0, 49, 55
3, 8326, Note_on_c, 0, 49, 0
3, 8400, Note_on_c, 0, 50, 55
3, 8433, Note_on_c, 0, 50, 0
3, 8460, Note_on_c, 0, 50, 44
3, 8511, Note_on_c, 0, 50, 0
3, 8520, Note_on_c, 0, 53, 62
3, 8580, Note_on_c, 0, 57, 49
3, 8581, Note_on_c, 0, 53, 0
3, 8636, Note_on_c, 0, 57, 0
3, 8640, Note_on_c, 0, 50, 49
3, 8683, Note_on_c, 0, 50, 0
3, 8760, Note_on_c, 0, 45, 49
3, 8811, Note_on_c, 0, 45, 0
3, 8880, Note_on_c, 0, 50, 44
3, 8928, Note_on_c, 0, 50, 0
3, 9000, Note_on_c, 0, 55, 55
3, 9033, Note_on_c, 0, 55, 0
3, 9060, Note_on_c, 0, 55, 35
3, 9104, Note_on_c, 0, 55, 0
3, 9120, Note_on_c, 0, 52, 62
3, 9180, Note_on_c, 0, 48, 55
3, 9181, Note_on_c, 0, 52, 0
3, 9237, Note_on_c, 0, 48, 0
3, 9240, Note_on_c, 0, 55, 70
3, 9296, Note_on_c, 0, 55, 0
3, 9300, Note_on_c, 0, 43, 39
3, 9356, Note_on_c, 0, 43, 0
3, 9360, Note_on_c, 0, 48, 44
3, 9403, Note_on_c, 0, 48, 0
3, 9480, Note_on_c, 0, 55, 39
3, 9553, Note_on_c, 0, 55, 0
3, 9600, Note_on_c, 0, 48, 44
3, 9660, Note_on_c, 0, 60, 49
3, 9667, Note_on_c, 0, 48, 0
3, 9713, Note_on_c, 0, 60, 0
3, 9720, Note_on_c, 0, 59, 49
3, 9780, Note_on_c, 0, 57, 49
3, 9782, Note_on_c, 0, 59, 0
3, 9838, Note_on_c, 0, 57, 0
3, 9840, Note_on_c, 0, 43, 98
3, 9840, Note_on_c, 0, 55, 110
3, 9866, Note_on_c, 0, 55, 0
3, 9900, Note_on_c, 0, 55, 35
3, 9912, Note_on_c, 0, 55, 0
3, 9960, Note_on_c, 0, 55, 44
3, 9976, Note_on_c, 0, 55, 0
3, 10020, Note_on_c, 0, 55, 28
3, 10043, Note_on_c, 0, 55, 0
3, 10047, Note_on_c, 0, 43, 0
3, 10080, Note_on_c, 0, 43, 110
3, 10080, Note_on_c, 0, 55, 98
3, 10120, Note_on_c, 0, 43, 0
3, 10140, Note_on_c, 0, 43, 28
3, 10156, Note_on_c, 0, 43, 0
3, 10200, Note_on_c, 0, 43, 49
3, 10216, Note_on_c, 0, 43, 0
3, 10260, Note_on_c, 0, 43, 35
3, 10298, Note_on_c, 0, 43, 0
3, 10316, Note_on_c, 0, 55, 0
3, 10320, Note_on_c, 0, 48, 62
3, 10435, Note_on_c, 0, 48, 0
3, 10560, Note_on_c, 0, 55, 98
3, 10560, Note_on_c, 0, 53, 98
3, 10619, Note_on_c, 0, 53, 0
3, 10620, Note_on_c, 0, 52, 44
3, 10650, Note_on_c, 0, 52, 0
3, 10655, Note_on_c, 0, 55, 0
3, 10800, Note_on_c, 0, 55, 88
3, 10800, Note_on_c, 0, 53, 98
3, 10860, Note_on_c, 0, 53, 0
3, 10860, Note_on_c, 0, 52, 28
3, 10894, Note_on_c, 0, 52, 0
3, 10930, Note_on_c, 0, 55, 0
3, 11040, Note_on_c, 0, 53, 98
3, 11040, Note_on_c, 0, 55, 98
3, 11100, Note_on_c, 0, 53, 0
3, 11100, Note_on_c, 0, 52, 24
3, 11122, Note_on_c, 0, 52, 0
3, 11128, Note_on_c, 0, 55, 0
3, 11160, Note_on_c, 0, 55, 98
3, 11160, Note_on_c, 0, 53, 98
3, 11220, Note_on_c, 0, 52, 62
3, 11223, Note_on_c, 0, 55, 0
3, 11225, Note_on_c, 0, 53, 0
3, 11248, Note_on_c, 0, 52, 0
3, 11280, Note_on_c, 0, 53, 49
3, 11280, Note_on_c, 0, 41, 39
3, 11380, Note_on_c, 0, 41, 0
3, 11383, Note_on_c, 0, 53, 0
3, 11400, Note_on_c, 0, 52, 49
3, 11400, Note_on_c, 0, 40, 35
3, 11450, Note_on_c, 0, 52, 0
3, 11460, Note_on_c, 0, 48, 49
3, 11492, Note_on_c, 0, 40, 0
3, 11507, Note_on_c, 0, 48, 0
3, 11520, Note_on_c, 0, 45, 39
3, 11580, Note_on_c, 0, 47, 55
3, 11582, Note_on_c, 0, 45, 0
3, 11640, Note_on_c, 0, 48, 39
3, 11641, Note_on_c, 0, 47, 0
3, 11700, Note_on_c, 0, 42, 62
3, 11704, Note_on_c, 0, 48, 0
3, 11759, Note_on_c, 0, 42, 0
3, 11760, Note_on_c, 0, 43, 39
3, 11796, Note_on_c, 0, 43, 0
3, 11820, Note_on_c, 0, 43, 35
3, 11820, Note_on_c, 0, 55, 44
3, 11845, Note_on_c, 0, 55, 0
3, 11845, Note_on_c, 0, 43, 0
3, 11880, Note_on_c, 0, 55, 39
3, 11880, Note_on_c, 0, 43, 28
3, 11913, Note_on_c, 0, 43, 0
3, 11913, Note_on_c, 0, 55, 0
3, 11940, Note_on_c, 0, 55, 44
3, 11940, Note_on_c, 0, 43, 24
3, 11969, Note_on_c, 0, 55, 0
3, 11970, Note_on_c, 0, 43, 0
3, 12000, Note_on_c, 0, 43, 124
3, 12000, Note_on_c, 0, 55, 124
3, 12035, Note_on_c, 0, 55, 0
3, 12037, Note_on_c, 0, 43, 0
3, 12060, Note_on_c, 0, 43, 39
3, 12094, Note_on_c, 0, 43, 0
3, 12120, Note_on_c, 0, 43, 39
3, 12150, Note_on_c, 0, 43, 0
3, 12180, Note_on_c, 0, 43, 30
3, 12216, Note_on_c, 0, 43, 0
3, 12240, Note_on_c, 0, 43, 35
3, 12277, Note_on_c, 0, 43, 0
3, 12300, Note_on_c, 0, 43, 30
3, 12335, Note_on_c, 0, 43, 0
3, 12360, Note_on_c, 0, 43, 35
3, 12394, Note_on_c, 0, 43, 0
3, 12420, Note_on_c, 0, 43, 24
3, 12420, Note_on_c, 0, 55, 44
3, 12453, Note_on_c, 0, 55, 0
3, 12457, Note_on_c, 0, 43, 0
3, 12480, Note_on_c, 0, 43, 35
3, 12480, Note_on_c, 0, 55, 49
3, 12510, Note_on_c, 0, 55, 0
3, 12513, Note_on_c, 0, 43, 0
3, 12540, Note_on_c, 0, 43, 28
3, 12540, Note_on_c, 0, 55, 49
3, 12573, Note_on_c, 0, 55, 0
3, 12575, Note_on_c, 0, 43, 0
3, 12600, Note_on_c, 0, 43, 30
3, 12600, Note_on_c, 0, 55, 39
3, 12631, Note_on_c, 0, 55, 0
3, 12634, Note_on_c, 0, 43, 0
3, 12660, Note_on_c, 0, 43, 39
3, 12660, Note_on_c, 0, 55, 55
3, 12694, Note_on_c, 0, 55, 0
3, 12695, Note_on_c, 0, 43, 0
3, 12720, Note_on_c, 0, 43, 30
3, 12720, Note_on_c, 0, 55, 49
3, 12752, Note_on_c, 0, 55, 0
3, 12754, Note_on_c, 0, 43, 0
3, 12780, Note_on_c, 0, 43, 30
3, 12780, Note_on_c, 0, 55, 39
3, 12810, Note_on_c, 0, 55, 0
3, 12810, Note_on_c, 0, 43, 0
3, 12840, Note_on_c, 0, 55, 49
3, 12840, Note_on_c, 0, 43, 30
3, 12869, Note_on_c, 0, 43, 0
3, 12870, Note_on_c, 0, 55, 0
3, 12900, Note_on_c, 0, 43, 28
3, 12900, Note_on_c, 0, 55, 39
3, 12929, Note_on_c, 0, 55, 0
3, 12931, Note_on_c, 0, 43, 0
3, 12960, Note_on_c, 0, 43, 124
3, 12960, Note_on_c, 0, 55, 110
3, 12999, Note_on_c, 0, 55, 0
3, 12999, Note_on_c, 0, 43, 0
3, 13020, Note_on_c, 0, 43, 35
3, 13056, Note_on_c, 0, 43, 0
3, 13080, Note_on_c, 0, 43, 30
3, 13114, Note_on_c, 0, 43, 0
3, 13140, Note_on_c, 0, 43, 30
3, 13173, Note_on_c, 0, 43, 0
3, 13200, Note_on_c, 0, 43, 28
3, 13235, Note_on_c, 0, 43, 0
3, 13260, Note_on_c, 0, 43, 30
3, 13260, Note_on_c, 0, 55, 44
3, 13292, Note_on_c, 0, 55, 0
3, 13298, Note_on_c, 0, 43, 0
3, 13320, Note_on_c, 0, 43, 30
3, 13320, Note_on_c, 0, 55, 35
3, 13348, Note_on_c, 0, 55, 0
3, 13353, Note_on_c, 0, 43, 0
3, 13380, Note_on_c, 0, 43, 28
3, 13380, Note_on_c, 0, 55, 39
3, 13408, Note_on_c, 0, 43, 0
3, 13409, Note_on_c, 0, 55, 0
3, 13440, Note_on_c, 0, 43, 28
3, 13440, Note_on_c, 0, 55, 49
3, 13471, Note_on_c, 0, 55, 0
3, 13472, Note_on_c, 0, 43, 0
3, 13500, Note_on_c, 0, 43, 30
3, 13500, Note_on_c, 0, 55, 35
3, 13528, Note_on_c, 0, 55, 0
3, 13532, Note_on_c, 0, 43, 0
3, 13560, Note_on_c, 0, 55, 39
3, 13560, Note_on_c, 0, 43, 28
3, 13588, Note_on_c, 0, 55, 0
3, 13589, Note_on_c, 0, 43, 0
3, 13620, Note_on_c, 0, 43, 30
3, 13620, Note_on_c, 0, 55, 44
3, 13646, Note_on_c, 0, 55, 0
3, 13651, Note_on_c, 0, 43, 0
3, 13680, Note_on_c, 0, 43, 35
3, 13680, Note_on_c, 0, 55, 44
3, 13729, Note_on_c, 0, 55, 0
3, 13730, Note_on_c, 0, 43, 0
3, 13800, Note_on_c, 0, 36, 49
3, 13800, Note_on_c, 0, 48, 49
3, 13848, Note_on_c, 0, 48, 0
3, 13850, Note_on_c, 0, 36, 0
3, 13920, Note_on_c, 0, 31, 44
3, 13920, Note_on_c, 0, 43, 44
3, 13968, Note_on_c, 0, 43, 0
3, 13969, Note_on_c, 0, 31, 0
3, 14040, Note_on_c, 0, 36, 39
3, 14040, Note_on_c, 0, 48, 44
3, 14087, Note_on_c, 0, 48, 0
3, 14088, Note_on_c, 0, 36, 0
3, 14160, Note_on_c, 0, 55, 88
3, 14249, Note_on_c, 0, 55, 0
3, 14250, Note_on_c, 0, 54, 98
3, 14260, Note_on_c, 0, 54, 0
3, 14265, Note_on_c, 0, 55, 78
3, 14277, Note_on_c, 0, 55, 0
3, 14280, Note_on_c, 0, 59, 110
3, 14401, Note_on_c, 0, 59, 0
3, 14520, Note_on_c, 0, 59, 110
3, 14610, Note_on_c, 0, 57, 98
3, 14613, Note_on_c, 0, 59, 0
3, 14623, Note_on_c, 0, 57, 0
3, 14625, Note_on_c, 0, 59, 98
3, 14637, Note_on_c, 0, 59, 0
3, 14640, Note_on_c, 0, 62, 98
3, 14767, Note_on_c, 0, 62, 0
3, 14880, Note_on_c, 0, 43, 88
3, 14880, Note_on_c, 0, 55, 98
3, 14915, Note_on_c, 0, 43, 0
3, 14916, Note_on_c, 0, 55, 0
3, 14940, Note_on_c, 0, 43, 98
3, 14940, Note_on_c, 0, 55, 98
3, 14967, Note_on_c, 0, 55, 0
3, 14967, Note_on_c, 0, 43, 0
3, 15000, Note_on_c, 0, 55, 98
3, 15000, Note_on_c, 0, 43, 88
3, 15028, Note_on_c, 0, 43, 0
3, 15029, Note_on_c, 0, 55, 0
3, 15060, Note_on_c, 0, 55, 98
3, 15060, Note_on_c, 0, 43, 88
3, 15092, Note_on_c, 0, 43, 0
3, 15093, Note_on_c, 0, 55, 0
3, 15120, Note_on_c, 0, 43, 88
3, 15120, Note_on_c, 0, 55, 88
3, 15150, Note_on_c, 0, 55, 0
3, 15150, Note_on_c, 0, 43, 0
3, 15180, Note_on_c, 0, 43, 88
3, 15180, Note_on_c, 0, 55, 88
3, 15212, Note_on_c, 0, 43, 0
3, 15213, Note_on_c, 0, 55, 0
3, 15240, Note_on_c, 0, 43, 98
3, 15240, Note_on_c, 0, 55, 98
3, 15269, Note_on_c, 0, 43, 0
3, 15270, Note_on_c, 0, 55, 0
3, 15300, Note_on_c, 0, 43, 78
3, 15300, Note_on_c, 0, 55, 98
3, 15334, Note_on_c, 0, 55, 0
3, 15334, Note_on_c, 0, 43, 0
3, 15360, Note_on_c, 0, 43, 98
3, 15360, Note_on_c, 0, 55, 98
3, 15393, Note_on_c, 0, 55, 0
3, 15393, Note_on_c, 0, 43, 0
3, 15420, Note_on_c, 0, 43, 88
3, 15420, Note_on_c, 0, 55, 98
3, 15451, Note_on_c, 0, 55, 0
3, 15452, Note_on_c, 0, 43, 0
3, 15480, Note_on_c, 0, 43, 88
3, 15480, Note_on_c, 0, 55, 98
3, 15515, Note_on_c, 0, 55, 0
3, 15515, Note_on_c, 0, 43, 0
3, 15540, Note_on_c, 0, 43, 78
3, 15540, Note_on_c, 0, 55, 78
3, 15565, Note_on_c, 0, 55, 0
3, 15569, Note_on_c, 0, 43, 0
3, 15600, Note_on_c, 0, 55, 98
3, 15681, Note_on_c, 0, 55, 0
3, 15690, Note_on_c, 0, 54, 98
3, 15705, Note_on_c, 0, 54, 0
3, 15705, Note_on_c, 0, 55, 88
3, 15718, Note_on_c, 0, 55, 0
3, 15720, Note_on_c, 0, 59, 98
3, 15841, Note_on_c, 0, 59, 0
3, 15960, Note_on_c, 0, 59, 88
3, 16050, Note_on_c, 0, 57, 88
3, 16053, Note_on_c, 0, 59, 0
3, 16064, Note_on_c, 0, 57, 0
3, 16065, Note_on_c, 0, 59, 98
3, 16076, Note_on_c, 0, 59, 0
3, 16080, Note_on_c, 0, 62, 98
3, 16200, Note_on_c, 0, 62, 0
3, 16320, Note_on_c, 0, 43, 78
3, 16320, Note_on_c, 0, 55, 78
3, 16355, Note_on_c, 0, 55, 0
3, 16356, Note_on_c, 0, 43, 0
3, 16380, Note_on_c, 0, 55, 88
3, 16380, Note_on_c, 0, 43, 88
3, 16413, Note_on_c, 0, 43, 0
3, 16414, Note_on_c, 0, 55, 0
3, 16440, Note_on_c, 0, 55, 98
3, 16440, Note_on_c, 0, 43, 88
3, 16474, Note_on_c, 0, 43, 0
3, 16476, Note_on_c, 0, 55, 0
3, 16500, Note_on_c, 0, 43, 88
3, 16500, Note_on_c, 0, 55, 88
3, 16531, Note_on_c, 0, 43, 0
3, 16534, Note_on_c, 0, 55, 0
3, 16560, Note_on_c, 0, 55, 88
3, 16560, Note_on_c, 0, 43, 88
3, 16594, Note_on_c, 0, 43, 0
3, 16597, Note_on_c, 0, 55, 0
3, 16620, Note_on_c, 0, 43, 88
3, 16620, Note_on_c, 0, 55, 88
3, 16652, Note_on_c, 0, 55, 0
3, 16653, Note_on_c, 0, 43, 0
3, 16680, Note_on_c, 0, 43, 88
3, 16680, Note_on_c, 0, 55, 98
3, 16712, Note_on_c, 0, 55, 0
3, 16713, Note_on_c, 0, 43, 0
3, 16740, Note_on_c, 0, 43, 78
3, 16740, Note_on_c, 0, 55, 98
3, 16772, Note_on_c, 0, 55, 0
3, 16772, Note_on_c, 0, 43, 0
3, 16800, Note_on_c, 0, 43, 88
3, 16800, Note_on_c, 0, 55, 98
3, 16834, Note_on_c, 0, 43, 0
3, 16835, Note_on_c, 0, 55, 0
3, 16860, Note_on_c, 0, 43, 88
3, 16860, Note_on_c, 0, 55, 88
3, 16893, Note_on_c, 0, 55, 0
3, 16894, Note_on_c, 0, 43, 0
3, 16920, Note_on_c, 0, 55, 98
3, 16920, Note_on_c, 0, 43, 88
3, 16950, Note_on_c, 0, 43, 0
3, 16951, Note_on_c, 0, 55, 0
3, 16980, Note_on_c, 0, 43, 88
3, 16980, Note_on_c, 0, 55, 98
3, 17014, Note_on_c, 0, 43, 0
3, 17015, Note_on_c, 0, 55, 0
3, 17040, Note_on_c, 0, 43, 78
3, 17040, Note_on_c, 0, 55, 98
3, 17073, Note_on_c, 0, 55, 0
3, 17079, Note_on_c, 0, 43, 0
3, 17100, Note_on_c, 0, 55, 98
3, 17100, Note_on_c, 0, 43, 88
3, 17139, Note_on_c, 0, 55, 0
3, 17143, Note_on_c, 0, 43, 0
3, 17160, Note_on_c, 0, 40, 98
3, 17160, Note_on_c, 0, 52, 98
3, 17190, Note_on_c, 0, 40, 0
3, 17199, Note_on_c, 0, 52, 0
3, 17220, Note_on_c, 0, 55, 98
3, 17220, Note_on_c, 0, 43, 88
3, 17253, Note_on_c, 0, 55, 0
3, 17258, Note_on_c, 0, 43, 0
3, 17280, Note_on_c, 0, 36, 98
3, 17280, Note_on_c, 0, 48, 88
3, 17316, Note_on_c, 0, 48, 0
3, 17317, Note_on_c, 0, 36, 0
3, 17340, Note_on_c, 0, 40, 88
3, 17340, Note_on_c, 0, 52, 98
3, 17376, Note_on_c, 0, 52, 0
3, 17380, Note_on_c, 0, 40, 0
3, 17400, Note_on_c, 0, 43, 88
3, 17400, Note_on_c, 0, 55, 98
3, 17436, Note_on_c, 0, 55, 0
3, 17442, Note_on_c, 0, 43, 0
3, 17460, Note_on_c, 0, 43, 88
3, 17460, Note_on_c, 0, 55, 98
3, 17498, Note_on_c, 0, 43, 0
3, 17499, Note_on_c, 0, 55, 0
3, 17520, Note_on_c, 0, 40, 88
3, 17520, Note_on_c, 0, 52, 98
3, 17559, Note_on_c, 0, 40, 0
3, 17561, Note_on_c, 0, 52, 0
3, 17580, Note_on_c, 0, 55, 98
3, 17580, Note_on_c, 0, 43, 88
3, 17619, Note_on_c, 0, 55, 0
3, 17622, Note_on_c, 0, 43, 0
3, 17640, Note_on_c, 0, 36, 88
3, 17640, Note_on_c, 0, 48, 88
3, 17677, Note_on_c, 0, 36, 0
3, 17683, Note_on_c, 0, 48, 0
3, 17700, Note_on_c, 0, 40, 78
3, 17700, Note_on_c, 0, 52, 78
3, 17723, Note_on_c, 0, 40, 0
3, 17741, Note_on_c, 0, 52, 0
3, 17760, Note_on_c, 0, 43, 88
3, 17760, Note_on_c, 0, 31, 98
3, 17799, Note_on_c, 0, 31, 0
3, 17804, Note_on_c, 0, 43, 0
3, 17820, Note_on_c, 0, 55, 98
3, 17820, Note_on_c, 0, 43, 88
3, 17859, Note_on_c, 0, 55, 0
3, 17861, Note_on_c, 0, 43, 0
3, 17880, Note_on_c, 0, 40, 88
3, 17880, Note_on_c, 0, 52, 98
3, 17915, Note_on_c, 0, 52, 0
3, 17919, Note_on_c, 0, 40, 0
3, 17940, Note_on_c, 0, 43, 88
3, 17940, Note_on_c, 0, 55, 88
3, 17979, Note_on_c, 0, 55, 0
3, 17981, Note_on_c, 0, 43, 0
3, 18000, Note_on_c, 0, 48, 88
3, 18000, Note_on_c, 0, 36, 98
3, 18031, Note_on_c, 0, 36, 0
3, 18032, Note_on_c, 0, 48, 0
3, 18060, Note_on_c, 0, 40, 88
3, 18060, Note_on_c, 0, 52, 98
3, 18094, Note_on_c, 0, 52, 0
3, 18095, Note_on_c, 0, 40, 0
3, 18120, Note_on_c, 0, 43, 78
3, 18120, Note_on_c, 0, 55, 98
3, 18242, Note_on_c, 0, 55, 0
3, 18244, Note_on_c, 0, 43, 0
3, 18480, Note_on_c, 0, 48, 55
3, 18594, Note_on_c, 0, 48, 0
3, 18720, Note_on_c, 0, 48, 30
3, 18775, Note_on_c, 0, 48, 0
3, 18840, Note_on_c, 0, 48, 30
3, 18893, Note_on_c, 0, 48, 0
3, 18960, Note_on_c, 0, 48, 49
3, 19084, Note_on_c, 0, 48, 0
3, 19200, Note_on_c, 0, 48, 30
3, 19257, Note_on_c, 0, 48, 0
3, 19320, Note_on_c, 0, 48, 49
3, 19371, Note_on_c, 0, 48, 0
3, 19500, Note_on_c, 0, 48, 44
3, 19546, Note_on_c, 0, 48, 0
3, 19560, Note_on_c, 0, 52, 44
3, 19595, Note_on_c, 0, 52, 0
3, 19620, Note_on_c, 0, 55, 49
3, 19652, Note_on_c, 0, 55, 0
3, 19680, Note_on_c, 0, 48, 44
3, 19724, Note_on_c, 0, 48, 0
3, 19800, Note_on_c, 0, 55, 49
3, 19844, Note_on_c, 0, 55, 0
3, 19920, Note_on_c, 0, 48, 39
3, 19973, Note_on_c, 0, 48, 0
3, 20040, Note_on_c, 0, 55, 55
3, 20085, Note_on_c, 0, 55, 0
3, 20160, Note_on_c, 0, 48, 49
3, 20275, Note_on_c, 0, 48, 0
3, 20400, Note_on_c, 0, 55, 62
3, 20449, Note_on_c, 0, 55, 0
3, 20520, Note_on_c, 0, 43, 28
3, 20591, Note_on_c, 0, 43, 0
3, 20640, Note_on_c, 0, 48, 44
3, 20692, Note_on_c, 0, 48, 0
3, 20880, Note_on_c, 0, 55, 55
3, 20951, Note_on_c, 0, 55, 0
3, 21000, Note_on_c, 0, 43, 44
3, 21063, Note_on_c, 0, 43, 0
3, 21120, Note_on_c, 0, 48, 98
3, 21210, Note_on_c, 0, 47, 98
3, 21211, Note_on_c, 0, 48, 0
3, 21223, Note_on_c, 0, 47, 0
3, 21225, Note_on_c, 0, 48, 78
3, 21237, Note_on_c, 0, 48, 0
3, 21240, Note_on_c, 0, 52, 110
3, 21360, Note_on_c, 0, 52, 0
3, 21480, Note_on_c, 0, 52, 98
3, 21570, Note_on_c, 0, 50, 88
3, 21572, Note_on_c, 0, 52, 0
3, 21582, Note_on_c, 0, 50, 0
3, 21585, Note_on_c, 0, 52, 78
3, 21597, Note_on_c, 0, 52, 0
3, 21600, Note_on_c, 0, 55, 110
3, 21721, Note_on_c, 0, 55, 0
3, 21840, Note_on_c, 0, 41, 88
3, 21840, Note_on_c, 0, 53, 98
3, 21943, Note_on_c, 0, 53, 0
3, 21944, Note_on_c, 0, 41, 0
3, 21960, Note_on_c, 0, 41, 98
3, 21960, Note_on_c, 0, 53, 110
3, 22066, Note_on_c, 0, 53, 0
3, 22066, Note_on_c, 0, 41, 0
3, 22080, Note_on_c, 0, 53, 98
3, 22080, Note_on_c, 0, 41, 98
3, 22178, Note_on_c, 0, 41, 0
3, 22180, Note_on_c, 0, 53, 0
3, 22200, Note_on_c, 0, 53, 98
3, 22200, Note_on_c, 0, 41, 98
3, 22428, Note_on_c, 0, 41, 0
3, 22430, Note_on_c, 0, 53, 0
3, 22440, Note_on_c, 0, 52, 98
3, 22440, Note_on_c, 0, 55, 110
3, 22440, Note_on_c, 0, 60, 98
3, 22538, Note_on_c, 0, 55, 0
3, 22538, Note_on_c, 0, 52, 0
3, 22544, Note_on_c, 0, 60, 0
3, 22560, Note_on_c, 0, 62, 110
3, 22560, Note_on_c, 0, 57, 110
3, 22560, Note_on_c, 0, 53, 98
3, 22664, Note_on_c, 0, 53, 0
3, 22666, Note_on_c, 0, 57, 0
3, 22671, Note_on_c, 0, 62, 0
3, 22680, Note_on_c, 0, 55, 110
3, 22680, Note_on_c, 0, 60, 110
3, 22680, Note_on_c, 0, 64, 110
3, 22782, Note_on_c, 0, 55, 0
3, 22784, Note_on_c, 0, 60, 0
3, 22787, Note_on_c, 0, 64, 0
3, 22800, Note_on_c, 0, 55, 98
3, 22800, Note_on_c, 0, 59, 98
3, 22800, Note_on_c, 0, 62, 98
3, 22895, Note_on_c, 0, 59, 0
3, 22896, Note_on_c, 0, 62, 0
3, 22896, Note_on_c, 0, 55, 0
3, 22920, Note_on_c, 0, 48, 110
3, 23008, Note_on_c, 0, 48, 0
3, 23010, Note_on_c, 0, 47, 98
3, 23022, Note_on_c, 0, 47, 0
3, 23025, Note_on_c, 0, 48, 88
3, 23037, Note_on_c, 0, 48, 0
3, 23040, Note_on_c, 0, 52, 110
3, 23158, Note_on_c, 0, 52, 0
3, 23280, Note_on_c, 0, 52, 110
3, 23370, Note_on_c, 0, 50, 88
3, 23374, Note_on_c, 0, 52, 0
3, 23384, Note_on_c, 0, 50, 0
3, 23385, Note_on_c, 0, 52, 88
3, 23397, Note_on_c, 0, 52, 0
3, 23400, Note_on_c, 0, 55, 110
3, 23519, Note_on_c, 0, 55, 0
3, 23640, Note_on_c, 0, 41, 98
3, 23640, Note_on_c, 0, 53, 98
3, 23748, Note_on_c, 0, 53, 0
3, 23749, Note_on_c, 0, 41, 0
3, 23760, Note_on_c, 0, 53, 110
3, 23760, Note_on_c, 0, 41, 98
3, 23803, Note_on_c, 0, 41, 0
3, 23804, Note_on_c, 0, 53, 0
3, 23820, Note_on_c, 0, 53, 88
3, 23820, Note_on_c, 0, 41, 88
3, 23859, Note_on_c, 0, 53, 0
3, 23861, Note_on_c, 0, 41, 0
3, 23880, Note_on_c, 0, 41, 88
3, 23880, Note_on_c, 0, 53, 98
3, 23920, Note_on_c, 0, 41, 0
3, 23921, Note_on_c, 0, 53, 0
3, 23940, Note_on_c, 0, 53, 98
3, 23940, Note_on_c, 0, 41, 88
3, 23975, Note_on_c, 0, 41, 0
3, 23978, Note_on_c, 0, 53, 0
3, 24000, Note_on_c, 0, 41, 98
3, 24000, Note_on_c, 0, 53, 98
3, 24224, Note_on_c, 0, 53, 0
3, 24232, Note_on_c, 0, 41, 0
3, 24240, Note_on_c, 0, 60, 98
3, 24240, Note_on_c, 0, 55, 110
3, 24240, Note_on_c, 0, 52, 88
3, 24336, Note_on_c, 0, 55, 0
3, 24337, Note_on_c, 0, 52, 0
3, 24337, Note_on_c, 0, 60, 0
3, 24360, Note_on_c, 0, 53, 98
3, 24360, Note_on_c, 0, 62, 98
3, 24360, Note_on_c, 0, 57, 110
3, 24398, Note_on_c, 0, 53, 0
3, 24420, Note_on_c, 0, 53, 88
3, 24455, Note_on_c, 0, 53, 0
3, 24455, Note_on_c, 0, 62, 0
3, 24460, Note_on_c, 0, 57, 0
3, 24480, Note_on_c, 0, 55, 98
3, 24480, Note_on_c, 0, 60, 98
3, 24480, Note_on_c, 0, 64, 98
3, 24519, Note_on_c, 0, 55, 0
3, 24540, Note_on_c, 0, 55, 98
3, 24569, Note_on_c, 0, 60, 0
3, 24572, Note_on_c, 0, 64, 0
3, 24574, Note_on_c, 0, 55, 0
3, 24600, Note_on_c, 0, 55, 98
3, 24600, Note_on_c, 0, 59, 98
3, 24600, Note_on_c, 0, 62, 98
3, 24643, Note_on_c, 0, 55, 0
3, 24660, Note_on_c, 0, 55, 98
3, 24668, Note_on_c, 0, 59, 0
3, 24688, Note_on_c, 0, 62, 0
3, 24700, Note_on_c, 0, 55, 0
3, 24720, Note_on_c, 0, 60, 110
3, 24720, Note_on_c, 0, 48, 88
3, 24720, Note_on_c, 0, 52, 98
3, 24840, Note_on_c, 0, 48, 0
3, 24840, Note_on_c, 0, 60, 0
3, 24841, Note_on_c, 0, 52, 0
3, 25080, Note_on_c, 0, 48, 98
3, 25140, Note_on_c, 0, 52, 78
3, 25142, Note_on_c, 0, 48, 0
3, 25200, Note_on_c, 0, 55, 88
3, 25201, Note_on_c, 0, 52, 0
3, 25259, Note_on_c, 0, 55, 0
3, 25260, Note_on_c, 0, 54, 110
3, 25318, Note_on_c, 0, 54, 0
3, 25320, Note_on_c, 0, 55, 88
3, 25379, Note_on_c, 0, 55, 0
3, 25380, Note_on_c, 0, 43, 78
3, 25440, Note_on_c, 0, 48, 98
3, 25443, Note_on_c, 0, 43, 0
3, 25559, Note_on_c, 0, 48, 0
3, 25800, Note_on_c, 0, 48, 98
3, 25860, Note_on_c, 0, 52, 88
3, 25864, Note_on_c, 0, 48, 0
3, 25920, Note_on_c, 0, 55, 88
3, 25922, Note_on_c, 0, 52, 0
3, 25980, Note_on_c, 0, 54, 110
3, 25982, Note_on_c, 0, 55, 0
3, 26036, Note_on_c, 0, 54, 0
3, 26040, Note_on_c, 0, 55, 98
3, 26098, Note_on_c, 0, 55, 0
3, 26100, Note_on_c, 0, 43, 88
3, 26159, Note_on_c, 0, 43, 0
3, 26160, Note_on_c, 0, 48, 98
3, 26227, Note_on_c, 0, 48, 0
3, 26400, Note_on_c, 0, 43, 98
3, 26400, Note_on_c, 0, 55, 110
3, 26511, Note_on_c, 0, 55, 0
3, 26514, Note_on_c, 0, 43, 0
3, 26520, Note_on_c, 0, 60, 110
3, 26520, Note_on_c, 0, 48, 110
3, 26640, Note_on_c, 0, 60, 0
3, 26641, Note_on_c, 0, 48, 0
3, 26641, End_track
4, 0, Start_track
4, 0, MIDI_port, 0
4, 0, Title_t, "soprano"
4, 0, Program_c, 1, 52
4, 14823, Note_on_c, 1, 74, 78
4, 14882, Note_on_c, 1, 79, 90
4, 14884, Note_on_c, 1, 74, 0
4, 15127, Note_on_c, 1, 79, 0
4, 15128, Note_on_c, 1, 78, 90
4, 15239, Note_on_c, 1, 78, 0
4, 15240, Note_on_c, 1, 77, 78
4, 15359, Note_on_c, 1, 77, 0
4, 15362, Note_on_c, 1, 76, 68
4, 15479, Note_on_c, 1, 72, 78
4, 15482, Note_on_c, 1, 76, 0
4, 15574, Note_on_c, 1, 72, 0
4, 15594, Note_on_c, 1, 72, 78
4, 15716, Note_on_c, 1, 72, 0
4, 15720, Note_on_c, 1, 71, 78
4, 15844, Note_on_c, 1, 71, 0
4, 16259, Note_on_c, 1, 74, 78
4, 16313, Note_on_c, 1, 74, 0
4, 16318, Note_on_c, 1, 79, 78
4, 16559, Note_on_c, 1, 78, 90
4, 16562, Note_on_c, 1, 79, 0
4, 16677, Note_on_c, 1, 78, 0
4, 16677, Note_on_c, 1, 77, 78
4, 16804, Note_on_c, 1, 77, 0
4, 16804, Note_on_c, 1, 76, 68
4, 16917, Note_on_c, 1, 76, 0
4, 16920, Note_on_c, 1, 72, 68
4, 17040, Note_on_c, 1, 72, 0
4, 17040, Note_on_c, 1, 71, 90
4, 17156, Note_on_c, 1, 71, 0
4, 17160, Note_on_c, 1, 72, 78
4, 17275, Note_on_c, 1, 72, 0
4, 17277, Note_on_c, 1, 76, 78
4, 17389, Note_on_c, 1, 76, 0
4, 17400, Note_on_c, 1, 71, 90
4, 17516, Note_on_c, 1, 71, 0
4, 17519, Note_on_c, 1, 72, 78
4, 17636, Note_on_c, 1, 72, 0
4, 17639, Note_on_c, 1, 76, 78
4, 17758, Note_on_c, 1, 76, 0
4, 17760, Note_on_c, 1, 79, 78
4, 18100, Note_on_c, 1, 79, 0
4, 18120, Note_on_c, 1, 79, 90
4, 18264, Note_on_c, 1, 79, 0
4, 21780, Note_on_c, 1, 76, 78
4, 21837, Note_on_c, 1, 76, 0
4, 21840, Note_on_c, 1, 74, 90
4, 22007, Note_on_c, 1, 74, 0
4, 22020, Note_on_c, 1, 74, 78
4, 22054, Note_on_c, 1, 74, 0
4, 22080, Note_on_c, 1, 74, 78
4, 22120, Note_on_c, 1, 74, 0
4, 22140, Note_on_c, 1, 74, 90
4, 22175, Note_on_c, 1, 74, 0
4, 22200, Note_on_c, 1, 74, 90
4, 22437, Note_on_c, 1, 74, 0
4, 22440, Note_on_c, 1, 79, 78
4, 22560, Note_on_c, 1, 77, 78
4, 22567, Note_on_c, 1, 79, 0
4, 22597, Note_on_c, 1, 77, 0
4, 22620, Note_on_c, 1, 77, 78
4, 22680, Note_on_c, 1, 76, 78
4, 22683, Note_on_c, 1, 77, 0
4, 22793, Note_on_c, 1, 76, 0
4, 22800, Note_on_c, 1, 74, 90
4, 22912, Note_on_c, 1, 74, 0
4, 22920, Note_on_c, 1, 72, 90
4, 23050, Note_on_c, 1, 72, 0
4, 23580, Note_on_c, 1, 76, 78
4, 23637, Note_on_c, 1, 76, 0
4, 23640, Note_on_c, 1, 74, 90
4, 23796, Note_on_c, 1, 74, 0
4, 23820, Note_on_c, 1, 74, 90
4, 23858, Note_on_c, 1, 74, 0
4, 23880, Note_on_c, 1, 74, 90
4, 23920, Note_on_c, 1, 74, 0
4, 23940, Note_on_c, 1, 74, 78
4, 23975, Note_on_c, 1, 74, 0
4, 24000, Note_on_c, 1, 74, 78
4, 24240, Note_on_c, 1, 79, 78
4, 24242, Note_on_c, 1, 74, 0
4, 24360, Note_on_c, 1, 77, 78
4, 24361, Note_on_c, 1, 79, 0
4, 24396, Note_on_c, 1, 77, 0
4, 24420, Note_on_c, 1, 77, 78
4, 24480, Note_on_c, 1, 76, 68
4, 24482, Note_on_c, 1, 77, 0
4, 24600, Note_on_c, 1, 74, 90
4, 24609, Note_on_c, 1, 76, 0
4, 24711, Note_on_c, 1, 74, 0
4, 24720, Note_on_c, 1, 72, 78
4, 24841, Note_on_c, 1, 72, 0
4, 25080, Note_on_c, 1, 79, 78
4, 25114, Note_on_c, 1, 79, 0
4, 25140, Note_on_c, 1, 79, 90
4, 25200, Note_on_c, 1, 76, 78
4, 25204, Note_on_c, 1, 79, 0
4, 25320, Note_on_c, 1, 74, 90
4, 25326, Note_on_c, 1, 76, 0
4, 25433, Note_on_c, 1, 74, 0
4, 25440, Note_on_c, 1, 72, 90
4, 25564, Note_on_c, 1, 72, 0
4, 25800, Note_on_c, 1, 79, 78
4, 25830, Note_on_c, 1, 79, 0
4, 25860, Note_on_c, 1, 79, 90
4, 25920, Note_on_c, 1, 76, 68
4, 25922, Note_on_c, 1, 79, 0
4, 26037, Note_on_c, 1, 76, 0
4, 26040, Note_on_c, 1, 74, 90
4, 26156, Note_on_c, 1, 74, 0
4, 26160, Note_on_c, 1, 72, 90
4, 26286, Note_on_c, 1, 72, 0
4, 26286, End_track
5, 0, Start_track
5, 0, MIDI_port, 0
5, 0, Title_t, "alto"
5, 14823, Note_on_c, 1, 67, 78
5, 14856, Note_on_c, 1, 67, 0
5, 14882, Note_on_c, 1, 67, 90
5, 15117, Note_on_c, 1, 67, 0
5, 15119, Note_on_c, 1, 69, 78
5, 15233, Note_on_c, 1, 69, 0
5, 15240, Note_on_c, 1, 71, 78
5, 15359, Note_on_c, 1, 72, 78
5, 15362, Note_on_c, 1, 71, 0
5, 15471, Note_on_c, 1, 72, 0
5, 15473, Note_on_c, 1, 67, 78
5, 15567, Note_on_c, 1, 67, 0
5, 15596, Note_on_c, 1, 67, 90
5, 15690, Note_on_c, 1, 67, 0
5, 15718, Note_on_c, 1, 67, 90
5, 15838, Note_on_c, 1, 67, 0
5, 16256, Note_on_c, 1, 67, 90
5, 16287, Note_on_c, 1, 67, 0
5, 16320, Note_on_c, 1, 67, 90
5, 16549, Note_on_c, 1, 67, 0
5, 16554, Note_on_c, 1, 69, 78
5, 16674, Note_on_c, 1, 69, 0
5, 16675, Note_on_c, 1, 71, 78
5, 16800, Note_on_c, 1, 72, 78
5, 16804, Note_on_c, 1, 71, 0
5, 16915, Note_on_c, 1, 72, 0
5, 16916, Note_on_c, 1, 67, 78
5, 17004, Note_on_c, 1, 67, 0
5, 17035, Note_on_c, 1, 67, 90
5, 17251, Note_on_c, 1, 67, 0
5, 17275, Note_on_c, 1, 67, 90
5, 17365, Note_on_c, 1, 67, 0
5, 17394, Note_on_c, 1, 67, 90
5, 17605, Note_on_c, 1, 67, 0
5, 17636, Note_on_c, 1, 67, 90
5, 17753, Note_on_c, 1, 67, 0
5, 17756, Note_on_c, 1, 71, 78
5, 17867, Note_on_c, 1, 72, 78
5, 17871, Note_on_c, 1, 71, 0
5, 18123, Note_on_c, 1, 72, 0
5, 18123, Note_on_c, 1, 71, 90
5, 18234, Note_on_c, 1, 71, 0
5, 21780, Note_on_c, 1, 67, 78
5, 21825, Note_on_c, 1, 67, 0
5, 21840, Note_on_c, 1, 67, 90
5, 22004, Note_on_c, 1, 67, 0
5, 22020, Note_on_c, 1, 67, 90
5, 22054, Note_on_c, 1, 67, 0
5, 22080, Note_on_c, 1, 67, 90
5, 22118, Note_on_c, 1, 67, 0
5, 22140, Note_on_c, 1, 67, 90
5, 22172, Note_on_c, 1, 67, 0
5, 22200, Note_on_c, 1, 67, 90
5, 22414, Note_on_c, 1, 67, 0
5, 22440, Note_on_c, 1, 67, 90
5, 22560, Note_on_c, 1, 69, 90
5, 22563, Note_on_c, 1, 67, 0
5, 22591, Note_on_c, 1, 69, 0
5, 22620, Note_on_c, 1, 69, 90
5, 22675, Note_on_c, 1, 69, 0
5, 22680, Note_on_c, 1, 67, 90
5, 22898, Note_on_c, 1, 67, 0
5, 22920, Note_on_c, 1, 67, 90
5, 23044, Note_on_c, 1, 67, 0
5, 23580, Note_on_c, 1, 67, 90
5, 23613, Note_on_c, 1, 67, 0
5, 23640, Note_on_c, 1, 67, 90
5, 23805, Note_on_c, 1, 67, 0
5, 23820, Note_on_c, 1, 67, 78
5, 23855, Note_on_c, 1, 67, 0
5, 23880, Note_on_c, 1, 67, 78
5, 23913, Note_on_c, 1, 67, 0
5, 23940, Note_on_c, 1, 67, 78
5, 23973, Note_on_c, 1, 67, 0
5, 24000, Note_on_c, 1, 67, 90
5, 24198, Note_on_c, 1, 67, 0
5, 24240, Note_on_c, 1, 67, 90
5, 24360, Note_on_c, 1, 69, 78
5, 24361, Note_on_c, 1, 67, 0
5, 24393, Note_on_c, 1, 69, 0
5, 24420, Note_on_c, 1, 69, 78
5, 24476, Note_on_c, 1, 69, 0
5, 24480, Note_on_c, 1, 67, 90
5, 24697, Note_on_c, 1, 67, 0
5, 24720, Note_on_c, 1, 67, 90
5, 24847, Note_on_c, 1, 67, 0
5, 25080, Note_on_c, 1, 67, 90
5, 25120, Note_on_c, 1, 67, 0
5, 25140, Note_on_c, 1, 67, 78
5, 25170, Note_on_c, 1, 67, 0
5, 25200, Note_on_c, 1, 67, 90
5, 25421, Note_on_c, 1, 67, 0
5, 25440, Note_on_c, 1, 67, 90
5, 25556, Note_on_c, 1, 67, 0
5, 25800, Note_on_c, 1, 67, 90
5, 25838, Note_on_c, 1, 67, 0
5, 25860, Note_on_c, 1, 67, 90
5, 25887, Note_on_c, 1, 67, 0
5, 25920, Note_on_c, 1, 67, 90
5, 26134, Note_on_c, 1, 67, 0
5, 26160, Note_on_c, 1, 67, 104
5, 26273, Note_on_c, 1, 67, 0
5, 26273, End_track
6, 0, Start_track
6, 0, MIDI_port, 0
6, 0, Title_t, "tenor"
6, 14812, Note_on_c, 1, 59, 78
6, 14852, Note_on_c, 1, 59, 0
6, 14879, Note_on_c, 1, 59, 78
6, 15130, Note_on_c, 1, 60, 78
6, 15136, Note_on_c, 1, 59, 0
6, 15245, Note_on_c, 1, 62, 78
6, 15253, Note_on_c, 1, 60, 0
6, 15363, Note_on_c, 1, 62, 0
6, 15363, Note_on_c, 1, 60, 78
6, 15475, Note_on_c, 1, 64, 78
6, 15476, Note_on_c, 1, 60, 0
6, 15574, Note_on_c, 1, 64, 0
6, 15597, Note_on_c, 1, 64, 90
6, 15720, Note_on_c, 1, 64, 0
6, 15720, Note_on_c, 1, 62, 90
6, 15849, Note_on_c, 1, 62, 0
6, 16256, Note_on_c, 1, 59, 78
6, 16290, Note_on_c, 1, 59, 0
6, 16316, Note_on_c, 1, 59, 90
6, 16562, Note_on_c, 1, 60, 90
6, 16566, Note_on_c, 1, 59, 0
6, 16674, Note_on_c, 1, 60, 0
6, 16678, Note_on_c, 1, 62, 78
6, 16794, Note_on_c, 1, 62, 0
6, 16800, Note_on_c, 1, 60, 90
6, 16912, Note_on_c, 1, 60, 0
6, 16915, Note_on_c, 1, 64, 78
6, 17034, Note_on_c, 1, 64, 0
6, 17035, Note_on_c, 1, 62, 78
6, 17158, Note_on_c, 1, 62, 0
6, 17158, Note_on_c, 1, 60, 90
6, 17252, Note_on_c, 1, 60, 0
6, 17272, Note_on_c, 1, 60, 90
6, 17358, Note_on_c, 1, 60, 0
6, 17397, Note_on_c, 1, 62, 90
6, 17512, Note_on_c, 1, 60, 78
6, 17515, Note_on_c, 1, 62, 0
6, 17621, Note_on_c, 1, 60, 0
6, 17638, Note_on_c, 1, 60, 78
6, 17747, Note_on_c, 1, 60, 0
6, 17756, Note_on_c, 1, 62, 90
6, 17869, Note_on_c, 1, 64, 78
6, 17871, Note_on_c, 1, 62, 0
6, 18124, Note_on_c, 1, 64, 0
6, 18126, Note_on_c, 1, 62, 90
6, 18233, Note_on_c, 1, 62, 0
6, 21780, Note_on_c, 1, 60, 78
6, 21837, Note_on_c, 1, 60, 0
6, 21840, Note_on_c, 1, 59, 78
6, 22002, Note_on_c, 1, 59, 0
6, 22020, Note_on_c, 1, 59, 78
6, 22066, Note_on_c, 1, 59, 0
6, 22080, Note_on_c, 1, 59, 78
6, 22123, Note_on_c, 1, 59, 0
6, 22140, Note_on_c, 1, 59, 68
6, 22185, Note_on_c, 1, 59, 0
6, 22200, Note_on_c, 1, 59, 78
6, 22440, Note_on_c, 1, 60, 78
6, 22441, Note_on_c, 1, 59, 0
6, 22560, Note_on_c, 1, 57, 78
6, 22561, Note_on_c, 1, 60, 0
6, 22605, Note_on_c, 1, 57, 0
6, 22620, Note_on_c, 1, 57, 78
6, 22677, Note_on_c, 1, 57, 0
6, 22680, Note_on_c, 1, 60, 78
6, 22800, Note_on_c, 1, 59, 78
6, 22804, Note_on_c, 1, 60, 0
6, 22920, Note_on_c, 1, 60, 68
6, 22921, Note_on_c, 1, 59, 0
6, 23041, Note_on_c, 1, 60, 0
6, 23580, Note_on_c, 1, 60, 78
6, 23636, Note_on_c, 1, 60, 0
6, 23640, Note_on_c, 1, 59, 78
6, 23807, Note_on_c, 1, 59, 0
6, 23820, Note_on_c, 1, 59, 78
6, 23862, Note_on_c, 1, 59, 0
6, 23880, Note_on_c, 1, 59, 78
6, 23919, Note_on_c, 1, 59, 0
6, 23940, Note_on_c, 1, 59, 68
6, 23978, Note_on_c, 1, 59, 0
6, 24000, Note_on_c, 1, 59, 78
6, 24240, Note_on_c, 1, 60, 78
6, 24246, Note_on_c, 1, 59, 0
6, 24358, Note_on_c, 1, 60, 0
6, 24360, Note_on_c, 1, 57, 68
6, 24404, Note_on_c, 1, 57, 0
6, 24420, Note_on_c, 1, 57, 68
6, 24478, Note_on_c, 1, 57, 0
6, 24480, Note_on_c, 1, 60, 68
6, 24600, Note_on_c, 1, 60, 0
6, 24600, Note_on_c, 1, 59, 78
6, 24720, Note_on_c, 1, 60, 78
6, 24723, Note_on_c, 1, 59, 0
6, 24838, Note_on_c, 1, 60, 0
6, 25080, Note_on_c, 1, 64, 68
6, 25124, Note_on_c, 1, 64, 0
6, 25140, Note_on_c, 1, 64, 68
6, 25200, Note_on_c, 1, 64, 0
6, 25200, Note_on_c, 1, 60, 78
6, 25315, Note_on_c, 1, 60, 0
6, 25320, Note_on_c, 1, 59, 90
6, 25440, Note_on_c, 1, 60, 78
6, 25441, Note_on_c, 1, 59, 0
6, 25555, Note_on_c, 1, 60, 0
6, 25800, Note_on_c, 1, 64, 68
6, 25845, Note_on_c, 1, 64, 0
6, 25860, Note_on_c, 1, 64, 90
6, 25917, Note_on_c, 1, 64, 0
6, 25920, Note_on_c, 1, 60, 78
6, 26033, Note_on_c, 1, 60, 0
6, 26040, Note_on_c, 1, 59, 90
6, 26157, Note_on_c, 1, 59, 0
6, 26160, Note_on_c, 1, 60, 90
6, 26291, Note_on_c, 1, 60, 0
6, 26291, End_track
7, 0, Start_track
7, 0, MIDI_port, 0
7, 0, Title_t, "bass"
7, 14818, Note_on_c, 1, 55, 90
7, 14849, Note_on_c, 1, 55, 0
7, 14875, Note_on_c, 1, 55, 90
7, 15089, Note_on_c, 1, 55, 0
7, 15119, Note_on_c, 1, 55, 90
7, 15212, Note_on_c, 1, 55, 0
7, 15243, Note_on_c, 1, 55, 90
7, 15439, Note_on_c, 1, 55, 0
7, 15478, Note_on_c, 1, 55, 90
7, 15566, Note_on_c, 1, 55, 0
7, 15598, Note_on_c, 1, 55, 90
7, 15681, Note_on_c, 1, 55, 0
7, 15717, Note_on_c, 1, 55, 90
7, 15834, Note_on_c, 1, 55, 0
7, 16253, Note_on_c, 1, 55, 78
7, 16285, Note_on_c, 1, 55, 0
7, 16314, Note_on_c, 1, 55, 90
7, 16524, Note_on_c, 1, 55, 0
7, 16557, Note_on_c, 1, 55, 90
7, 16648, Note_on_c, 1, 55, 0
7, 16677, Note_on_c, 1, 55, 90
7, 16890, Note_on_c, 1, 55, 0
7, 16914, Note_on_c, 1, 55, 78
7, 16997, Note_on_c, 1, 55, 0
7, 17033, Note_on_c, 1, 55, 90
7, 17155, Note_on_c, 1, 55, 0
7, 17155, Note_on_c, 1, 52, 78
7, 17272, Note_on_c, 1, 52, 0
7, 17275, Note_on_c, 1, 48, 78
7, 17396, Note_on_c, 1, 48, 0
7, 17397, Note_on_c, 1, 55, 90
7, 17514, Note_on_c, 1, 55, 0
7, 17514, Note_on_c, 1, 52, 90
7, 17640, Note_on_c, 1, 48, 78
7, 17642, Note_on_c, 1, 52, 0
7, 17750, Note_on_c, 1, 48, 0
7, 17757, Note_on_c, 1, 55, 78
7, 17879, Note_on_c, 1, 55, 0
7, 17880, Note_on_c, 1, 60, 90
7, 18126, Note_on_c, 1, 55, 90
7, 18130, Note_on_c, 1, 60, 0
7, 18246, Note_on_c, 1, 55, 0
7, 21780, Note_on_c, 1, 48, 68
7, 21836, Note_on_c, 1, 48, 0
7, 21840, Note_on_c, 1, 53, 78
7, 21991, Note_on_c, 1, 53, 0
7, 22020, Note_on_c, 1, 53, 78
7, 22070, Note_on_c, 1, 53, 0
7, 22080, Note_on_c, 1, 53, 58
7, 22125, Note_on_c, 1, 53, 0
7, 22140, Note_on_c, 1, 53, 58
7, 22173, Note_on_c, 1, 53, 0
7, 22200, Note_on_c, 1, 53, 90
7, 22434, Note_on_c, 1, 53, 0
7, 22440, Note_on_c, 1, 52, 78
7, 22560, Note_on_c, 1, 52, 0
7, 22560, Note_on_c, 1, 53, 90
7, 22609, Note_on_c, 1, 53, 0
7, 22620, Note_on_c, 1, 53, 68
7, 22672, Note_on_c, 1, 53, 0
7, 22680, Note_on_c, 1, 55, 90
7, 22915, Note_on_c, 1, 55, 0
7, 22920, Note_on_c, 1, 48, 78
7, 23032, Note_on_c, 1, 48, 0
7, 23580, Note_on_c, 1, 53, 90
7, 23619, Note_on_c, 1, 53, 0
7, 23640, Note_on_c, 1, 53, 90
7, 23805, Note_on_c, 1, 53, 0
7, 23820, Note_on_c, 1, 53, 68
7, 23862, Note_on_c, 1, 53, 0
7, 23880, Note_on_c, 1, 53, 78
7, 23916, Note_on_c, 1, 53, 0
7, 23940, Note_on_c, 1, 53, 90
7, 23971, Note_on_c, 1, 53, 0
7, 24000, Note_on_c, 1, 53, 78
7, 24240, Note_on_c, 1, 52, 78
7, 24246, Note_on_c, 1, 53, 0
7, 24351, Note_on_c, 1, 52, 0
7, 24360, Note_on_c, 1, 53, 78
7, 24391, Note_on_c, 1, 53, 0
7, 24420, Note_on_c, 1, 53, 78
7, 24475, Note_on_c, 1, 53, 0
7, 24480, Note_on_c, 1, 55, 78
7, 24719, Note_on_c, 1, 55, 0
7, 24720, Note_on_c, 1, 48, 90
7, 24842, Note_on_c, 1, 48, 0
7, 25080, Note_on_c, 1, 60, 78
7, 25118, Note_on_c, 1, 60, 0
7, 25140, Note_on_c, 1, 60, 78
7, 25198, Note_on_c, 1, 60, 0
7, 25200, Note_on_c, 1, 55, 90
7, 25439, Note_on_c, 1, 55, 0
7, 25440, Note_on_c, 1, 48, 78
7, 25566, Note_on_c, 1, 48, 0
7, 25800, Note_on_c, 1, 60, 90
7, 25829, Note_on_c, 1, 60, 0
7, 25860, Note_on_c, 1, 60, 78
7, 25920, Note_on_c, 1, 55, 90
7, 25925, Note_on_c, 1, 60, 0
7, 26149, Note_on_c, 1, 55, 0
7, 26160, Note_on_c, 1, 48, 78
7, 26282, Note_on_c, 1, 48, 0
7, 26282, End_track
8, 0, Start_track
8, 0, MIDI_port, 0
8, 0, Title_t, "soprano solo"
8, 0, Program_c, 2, 53
8, 2640, Note_on_c, 2, 72, 88
8, 2795, Note_on_c, 2, 72, 0
8, 2820, Note_on_c, 2, 72, 70
8, 2859, Note_on_c, 2, 72, 0
8, 2880, Note_on_c, 2, 72, 55
8, 2940, Note_on_c, 2, 60, 55
8, 2943, Note_on_c, 2, 72, 0
8, 2994, Note_on_c, 2, 60, 0
8, 3180, Note_on_c, 2, 72, 70
8, 3224, Note_on_c, 2, 72, 0
8, 3240, Note_on_c, 2, 72, 62
8, 3419, Note_on_c, 2, 72, 0
8, 3420, Note_on_c, 2, 67, 62
8, 3460, Note_on_c, 2, 67, 0
8, 3480, Note_on_c, 2, 67, 55
8, 3599, Note_on_c, 2, 67, 0
8, 3660, Note_on_c, 2, 67, 62
8, 3703, Note_on_c, 2, 67, 0
8, 3720, Note_on_c, 2, 67, 62
8, 3960, Note_on_c, 2, 79, 62
8, 3964, Note_on_c, 2, 67, 0
8, 4140, Note_on_c, 2, 77, 70
8, 4141, Note_on_c, 2, 79, 0
8, 4183, Note_on_c, 2, 77, 0
8, 4200, Note_on_c, 2, 77, 62
8, 4258, Note_on_c, 2, 77, 0
8, 4260, Note_on_c, 2, 76, 49
8, 4299, Note_on_c, 2, 76, 0
8, 4320, Note_on_c, 2, 76, 62
8, 4440, Note_on_c, 2, 77, 49
8, 4441, Note_on_c, 2, 76, 0
8, 4500, Note_on_c, 2, 76, 39
8, 4505, Note_on_c, 2, 77, 0
8, 4527, Note_on_c, 2, 76, 0
8, 4530, Note_on_c, 2, 74, 44
8, 4560, Note_on_c, 2, 72, 55
8, 4564, Note_on_c, 2, 74, 0
8, 4680, Note_on_c, 2, 72, 0
8, 4800, Note_on_c, 2, 77, 110
8, 4980, Note_on_c, 2, 71, 70
8, 4991, Note_on_c, 2, 77, 0
8, 5017, Note_on_c, 2, 71, 0
8, 5040, Note_on_c, 2, 71, 49
8, 5100, Note_on_c, 2, 71, 0
8, 5100, Note_on_c, 2, 72, 49
8, 5218, Note_on_c, 2, 72, 0
8, 5220, Note_on_c, 2, 67, 49
8, 5259, Note_on_c, 2, 67, 0
8, 5280, Note_on_c, 2, 67, 55
8, 5340, Note_on_c, 2, 65, 62
8, 5343, Note_on_c, 2, 67, 0
8, 5434, Note_on_c, 2, 65, 0
8, 5460, Note_on_c, 2, 64, 49
8, 5501, Note_on_c, 2, 64, 0
8, 5520, Note_on_c, 2, 64, 62
8, 5580, Note_on_c, 2, 62, 55
8, 5582, Note_on_c, 2, 64, 0
8, 5629, Note_on_c, 2, 62, 0
8, 5760, Note_on_c, 2, 77, 110
8, 5939, Note_on_c, 2, 77, 0
8, 5940, Note_on_c, 2, 71, 44
8, 5982, Note_on_c, 2, 71, 0
8, 6000, Note_on_c, 2, 71, 44
8, 6060, Note_on_c, 2, 71, 0
8, 6060, Note_on_c, 2, 72, 44
8, 6180, Note_on_c, 2, 67, 44
8, 6181, Note_on_c, 2, 72, 0
8, 6225, Note_on_c, 2, 67, 0
8, 6240, Note_on_c, 2, 67, 35
8, 6283, Note_on_c, 2, 67, 0
8, 6300, Note_on_c, 2, 67, 55
8, 6404, Note_on_c, 2, 67, 0
8, 6420, Note_on_c, 2, 67, 55
8, 6457, Note_on_c, 2, 67, 0
8, 6480, Note_on_c, 2, 67, 62
8, 6539, Note_on_c, 2, 67, 0
8, 6600, Note_on_c, 2, 69, 70
8, 6690, Note_on_c, 2, 66, 78
8, 6694, Note_on_c, 2, 69, 0
8, 6713, Note_on_c, 2, 66, 0
8, 6720, Note_on_c, 2, 67, 49
8, 6782, Note_on_c, 2, 67, 0
8, 6840, Note_on_c, 2, 69, 49
8, 6930, Note_on_c, 2, 66, 55
8, 6936, Note_on_c, 2, 69, 0
8, 6955, Note_on_c, 2, 66, 0
8, 6960, Note_on_c, 2, 67, 44
8, 7434, Note_on_c, 2, 67, 0
8, 7680, Note_on_c, 2, 72, 55
8, 7843, Note_on_c, 2, 72, 0
8, 7860, Note_on_c, 2, 72, 62
8, 7893, Note_on_c, 2, 72, 0
8, 7920, Note_on_c, 2, 72, 55
8, 7980, Note_on_c, 2, 60, 49
8, 7984, Note_on_c, 2, 72, 0
8, 8045, Note_on_c, 2, 60, 0
8, 8280, Note_on_c, 2, 70, 70
8, 8323, Note_on_c, 2, 70, 0
8, 8340, Note_on_c, 2, 70, 78
8, 8383, Note_on_c, 2, 70, 0
8, 8400, Note_on_c, 2, 70, 70
8, 8458, Note_on_c, 2, 70, 0
8, 8460, Note_on_c, 2, 69, 62
8, 8517, Note_on_c, 2, 69, 0
8, 8700, Note_on_c, 2, 69, 62
8, 8736, Note_on_c, 2, 69, 0
8, 8760, Note_on_c, 2, 69, 62
8, 8937, Note_on_c, 2, 69, 0
8, 8940, Note_on_c, 2, 62, 55
8, 8987, Note_on_c, 2, 62, 0
8, 9180, Note_on_c, 2, 67, 70
8, 9221, Note_on_c, 2, 67, 0
8, 9240, Note_on_c, 2, 67, 70
8, 9406, Note_on_c, 2, 67, 0
8, 9420, Note_on_c, 2, 67, 70
8, 9434, Note_on_c, 2, 67, 0
8, 9450, Note_on_c, 2, 67, 70
8, 9471, Note_on_c, 2, 67, 0
8, 9480, Note_on_c, 2, 67, 62
8, 9524, Note_on_c, 2, 67, 0
8, 9540, Note_on_c, 2, 67, 62
8, 9586, Note_on_c, 2, 67, 0
8, 9600, Note_on_c, 2, 67, 70
8, 9659, Note_on_c, 2, 67, 0
8, 9660, Note_on_c, 2, 69, 70
8, 9720, Note_on_c, 2, 71, 70
8, 9721, Note_on_c, 2, 69, 0
8, 9779, Note_on_c, 2, 71, 0
8, 9780, Note_on_c, 2, 72, 78
8, 9825, Note_on_c, 2, 72, 0
8, 9840, Note_on_c, 2, 72, 110
8, 9898, Note_on_c, 2, 72, 0
8, 9900, Note_on_c, 2, 71, 55
8, 9960, Note_on_c, 2, 69, 44
8, 9967, Note_on_c, 2, 71, 0
8, 10014, Note_on_c, 2, 69, 0
8, 10020, Note_on_c, 2, 67, 55
8, 10077, Note_on_c, 2, 67, 0
8, 10080, Note_on_c, 2, 79, 98
8, 10140, Note_on_c, 2, 77, 62
8, 10148, Note_on_c, 2, 79, 0
8, 10200, Note_on_c, 2, 76, 35
8, 10202, Note_on_c, 2, 77, 0
8, 10260, Note_on_c, 2, 74, 55
8, 10262, Note_on_c, 2, 76, 0
8, 10320, Note_on_c, 2, 72, 55
8, 10321, Note_on_c, 2, 74, 0
8, 10439, Note_on_c, 2, 72, 0
8, 10500, Note_on_c, 2, 72, 55
8, 10516, Note_on_c, 2, 72, 0
8, 10530, Note_on_c, 2, 72, 49
8, 10560, Note_on_c, 2, 71, 55
8, 10562, Note_on_c, 2, 72, 0
8, 10620, Note_on_c, 2, 72, 55
8, 10621, Note_on_c, 2, 71, 0
8, 10670, Note_on_c, 2, 72, 0
8, 10740, Note_on_c, 2, 72, 55
8, 10758, Note_on_c, 2, 72, 0
8, 10770, Note_on_c, 2, 72, 55
8, 10800, Note_on_c, 2, 71, 88
8, 10803, Note_on_c, 2, 72, 0
8, 10860, Note_on_c, 2, 72, 55
8, 10863, Note_on_c, 2, 71, 0
8, 10915, Note_on_c, 2, 72, 0
8, 10980, Note_on_c, 2, 72, 62
8, 11040, Note_on_c, 2, 71, 70
8, 11042, Note_on_c, 2, 72, 0
8, 11100, Note_on_c, 2, 72, 62
8, 11102, Note_on_c, 2, 71, 0
8, 11159, Note_on_c, 2, 72, 0
8, 11160, Note_on_c, 2, 71, 55
8, 11219, Note_on_c, 2, 71, 0
8, 11220, Note_on_c, 2, 72, 55
8, 11280, Note_on_c, 2, 69, 70
8, 11282, Note_on_c, 2, 72, 0
8, 11370, Note_on_c, 2, 71, 55
8, 11375, Note_on_c, 2, 69, 0
8, 11400, Note_on_c, 2, 72, 62
8, 11403, Note_on_c, 2, 71, 0
8, 11460, Note_on_c, 2, 67, 62
8, 11461, Note_on_c, 2, 72, 0
8, 11501, Note_on_c, 2, 67, 0
8, 11520, Note_on_c, 2, 67, 62
8, 11580, Note_on_c, 2, 65, 70
8, 11583, Note_on_c, 2, 67, 0
8, 11700, Note_on_c, 2, 65, 0
8, 11700, Note_on_c, 2, 64, 62
8, 11760, Note_on_c, 2, 62, 70
8, 11762, Note_on_c, 2, 64, 0
8, 11873, Note_on_c, 2, 62, 0
8, 12000, Note_on_c, 2, 77, 110
8, 12180, Note_on_c, 2, 71, 55
8, 12189, Note_on_c, 2, 77, 0
8, 12222, Note_on_c, 2, 71, 0
8, 12240, Note_on_c, 2, 71, 44
8, 12300, Note_on_c, 2, 71, 0
8, 12300, Note_on_c, 2, 72, 55
8, 12420, Note_on_c, 2, 72, 0
8, 12420, Note_on_c, 2, 67, 49
8, 12457, Note_on_c, 2, 67, 0
8, 12480, Note_on_c, 2, 67, 62
8, 12539, Note_on_c, 2, 67, 0
8, 12540, Note_on_c, 2, 65, 55
8, 12660, Note_on_c, 2, 64, 55
8, 12661, Note_on_c, 2, 65, 0
8, 12700, Note_on_c, 2, 64, 0
8, 12720, Note_on_c, 2, 64, 49
8, 12775, Note_on_c, 2, 64, 0
8, 12780, Note_on_c, 2, 62, 55
8, 12843, Note_on_c, 2, 62, 0
8, 12960, Note_on_c, 2, 77, 110
8, 13140, Note_on_c, 2, 71, 55
8, 13149, Note_on_c, 2, 77, 0
8, 13189, Note_on_c, 2, 71, 0
8, 13200, Note_on_c, 2, 71, 49
8, 13258, Note_on_c, 2, 71, 0
8, 13260, Note_on_c, 2, 72, 49
8, 13380, Note_on_c, 2, 68, 62
8, 13387, Note_on_c, 2, 72, 0
8, 13421, Note_on_c, 2, 68, 0
8, 13440, Note_on_c, 2, 68, 62
8, 13497, Note_on_c, 2, 68, 0
8, 13500, Note_on_c, 2, 67, 49
8, 13616, Note_on_c, 2, 67, 0
8, 13620, Note_on_c, 2, 66, 49
8, 13676, Note_on_c, 2, 66, 0
8, 13680, Note_on_c, 2, 67, 39
8, 13860, Note_on_c, 2, 68, 62
8, 13862, Note_on_c, 2, 67, 0
8, 13890, Note_on_c, 2, 67, 49
8, 13891, Note_on_c, 2, 68, 0
8, 13908, Note_on_c, 2, 67, 0
8, 13920, Note_on_c, 2, 67, 49
8, 14099, Note_on_c, 2, 67, 0
8, 14100, Note_on_c, 2, 68, 62
8, 14126, Note_on_c, 2, 68, 0
8, 14130, Note_on_c, 2, 67, 44
8, 14147, Note_on_c, 2, 67, 0
8, 14160, Note_on_c, 2, 67, 49
8, 14274, Note_on_c, 2, 67, 0
8, 18720, Note_on_c, 2, 72, 70
8, 18883, Note_on_c, 2, 72, 0
8, 18900, Note_on_c, 2, 72, 62
8, 18938, Note_on_c, 2, 72, 0
8, 18960, Note_on_c, 2, 72, 70
8, 19020, Note_on_c, 2, 60, 70
8, 19023, Note_on_c, 2, 72, 0
8, 19081, Note_on_c, 2, 60, 0
8, 19260, Note_on_c, 2, 72, 62
8, 19299, Note_on_c, 2, 72, 0
8, 19320, Note_on_c, 2, 72, 70
8, 19499, Note_on_c, 2, 72, 0
8, 19500, Note_on_c, 2, 67, 78
8, 19541, Note_on_c, 2, 67, 0
8, 19560, Note_on_c, 2, 67, 70
8, 19670, Note_on_c, 2, 67, 0
8, 19740, Note_on_c, 2, 67, 78
8, 19779, Note_on_c, 2, 67, 0
8, 19800, Note_on_c, 2, 67, 78
8, 20040, Note_on_c, 2, 67, 0
8, 20040, Note_on_c, 2, 79, 70
8, 20216, Note_on_c, 2, 79, 0
8, 20220, Note_on_c, 2, 77, 62
8, 20266, Note_on_c, 2, 77, 0
8, 20280, Note_on_c, 2, 77, 62
8, 20340, Note_on_c, 2, 77, 0
8, 20340, Note_on_c, 2, 76, 62
8, 20374, Note_on_c, 2, 76, 0
8, 20400, Note_on_c, 2, 76, 55
8, 20516, Note_on_c, 2, 76, 0
8, 20520, Note_on_c, 2, 77, 62
8, 20580, Note_on_c, 2, 76, 55
8, 20584, Note_on_c, 2, 77, 0
8, 20607, Note_on_c, 2, 76, 0
8, 20610, Note_on_c, 2, 74, 55
8, 20640, Note_on_c, 2, 74, 0
8, 20640, Note_on_c, 2, 79, 70
8, 20698, Note_on_c, 2, 79, 0
8, 20700, Note_on_c, 2, 77, 70
8, 20742, Note_on_c, 2, 77, 0
8, 20760, Note_on_c, 2, 77, 78
8, 20820, Note_on_c, 2, 76, 62
8, 20823, Note_on_c, 2, 77, 0
8, 20861, Note_on_c, 2, 76, 0
8, 20880, Note_on_c, 2, 76, 70
8, 21000, Note_on_c, 2, 77, 70
8, 21002, Note_on_c, 2, 76, 0
8, 21060, Note_on_c, 2, 76, 62
8, 21062, Note_on_c, 2, 77, 0
8, 21088, Note_on_c, 2, 76, 0
8, 21090, Note_on_c, 2, 74, 70
8, 21120, Note_on_c, 2, 72, 62
8, 21122, Note_on_c, 2, 74, 0
8, 21234, Note_on_c, 2, 72, 0
8, 21234, End_track
9, 0, Start_track
9, 0, MIDI_port, 0
9, 0, Title_t, "altp solo"
9, 2400, Note_on_c, 2, 67, 70
9, 2580, Note_on_c, 2, 69, 62
9, 2581, Note_on_c, 2, 67, 0
9, 2626, Note_on_c, 2, 69, 0
9, 2640, Note_on_c, 2, 69, 55
9, 2670, Note_on_c, 2, 67, 49
9, 2678, Note_on_c, 2, 69, 0
9, 2700, Note_on_c, 2, 67, 0
9, 2700, Note_on_c, 2, 65, 44
9, 2728, Note_on_c, 2, 65, 0
9, 2730, Note_on_c, 2, 64, 55
9, 2760, Note_on_c, 2, 64, 0
9, 2760, Note_on_c, 2, 69, 62
9, 2803, Note_on_c, 2, 69, 0
9, 2820, Note_on_c, 2, 69, 62
9, 2861, Note_on_c, 2, 69, 0
9, 2880, Note_on_c, 2, 69, 62
9, 2938, Note_on_c, 2, 69, 0
9, 2940, Note_on_c, 2, 67, 62
9, 2995, Note_on_c, 2, 67, 0
9, 3240, Note_on_c, 2, 69, 70
9, 3284, Note_on_c, 2, 69, 0
9, 3300, Note_on_c, 2, 69, 62
9, 3337, Note_on_c, 2, 69, 0
9, 3360, Note_on_c, 2, 69, 49
9, 3420, Note_on_c, 2, 69, 0
9, 3420, Note_on_c, 2, 67, 55
9, 3508, Note_on_c, 2, 67, 0
9, 3510, Note_on_c, 2, 64, 62
9, 3537, Note_on_c, 2, 64, 0
9, 3540, Note_on_c, 2, 65, 55
9, 3567, Note_on_c, 2, 65, 0
9, 3570, Note_on_c, 2, 62, 55
9, 3600, Note_on_c, 2, 60, 49
9, 3603, Note_on_c, 2, 62, 0
9, 3717, Note_on_c, 2, 60, 0
9, 3720, Note_on_c, 2, 62, 62
9, 3779, Note_on_c, 2, 62, 0
9, 3780, Note_on_c, 2, 60, 55
9, 3810, Note_on_c, 2, 60, 0
9, 3810, Note_on_c, 2, 62, 62
9, 3840, Note_on_c, 2, 62, 0
9, 3840, Note_on_c, 2, 64, 62
9, 3956, Note_on_c, 2, 64, 0
9, 3960, Note_on_c, 2, 65, 70
9, 4018, Note_on_c, 2, 65, 0
9, 4020, Note_on_c, 2, 64, 55
9, 4050, Note_on_c, 2, 64, 0
9, 4050, Note_on_c, 2, 65, 70
9, 4080, Note_on_c, 2, 67, 62
9, 4083, Note_on_c, 2, 65, 0
9, 4136, Note_on_c, 2, 67, 0
9, 4140, Note_on_c, 2, 69, 70
9, 4200, Note_on_c, 2, 71, 70
9, 4202, Note_on_c, 2, 69, 0
9, 4260, Note_on_c, 2, 72, 55
9, 4263, Note_on_c, 2, 71, 0
9, 4306, Note_on_c, 2, 72, 0
9, 4320, Note_on_c, 2, 72, 55
9, 4439, Note_on_c, 2, 72, 0
9, 4440, Note_on_c, 2, 67, 70
9, 4518, Note_on_c, 2, 67, 0
9, 4530, Note_on_c, 2, 67, 70
9, 4546, Note_on_c, 2, 67, 0
9, 4560, Note_on_c, 2, 67, 62
9, 4679, Note_on_c, 2, 67, 0
9, 4800, Note_on_c, 2, 62, 110
9, 4977, Note_on_c, 2, 62, 0
9, 4980, Note_on_c, 2, 65, 49
9, 5019, Note_on_c, 2, 65, 0
9, 5040, Note_on_c, 2, 65, 55
9, 5099, Note_on_c, 2, 65, 0
9, 5100, Note_on_c, 2, 64, 49
9, 5181, Note_on_c, 2, 64, 0
9, 5220, Note_on_c, 2, 64, 30
9, 5266, Note_on_c, 2, 64, 0
9, 5280, Note_on_c, 2, 64, 55
9, 5339, Note_on_c, 2, 64, 0
9, 5340, Note_on_c, 2, 62, 49
9, 5457, Note_on_c, 2, 62, 0
9, 5460, Note_on_c, 2, 60, 49
9, 5501, Note_on_c, 2, 60, 0
9, 5520, Note_on_c, 2, 60, 55
9, 5577, Note_on_c, 2, 60, 0
9, 5580, Note_on_c, 2, 59, 55
9, 5644, Note_on_c, 2, 59, 0
9, 5760, Note_on_c, 2, 62, 110
9, 5940, Note_on_c, 2, 62, 0
9, 5940, Note_on_c, 2, 65, 62
9, 5982, Note_on_c, 2, 65, 0
9, 6000, Note_on_c, 2, 65, 55
9, 6057, Note_on_c, 2, 65, 0
9, 6060, Note_on_c, 2, 64, 44
9, 6180, Note_on_c, 2, 67, 49
9, 6181, Note_on_c, 2, 64, 0
9, 6218, Note_on_c, 2, 67, 0
9, 6240, Note_on_c, 2, 67, 55
9, 6300, Note_on_c, 2, 67, 0
9, 6300, Note_on_c, 2, 65, 70
9, 6420, Note_on_c, 2, 64, 49
9, 6422, Note_on_c, 2, 65, 0
9, 6478, Note_on_c, 2, 64, 0
9, 6480, Note_on_c, 2, 62, 55
9, 6529, Note_on_c, 2, 62, 0
9, 6600, Note_on_c, 2, 62, 44
9, 6666, Note_on_c, 2, 62, 0
9, 6690, Note_on_c, 2, 62, 35
9, 6708, Note_on_c, 2, 62, 0
9, 6720, Note_on_c, 2, 62, 55
9, 6775, Note_on_c, 2, 62, 0
9, 6840, Note_on_c, 2, 62, 55
9, 6889, Note_on_c, 2, 62, 0
9, 6960, Note_on_c, 2, 62, 44
9, 7016, Note_on_c, 2, 62, 0
9, 7020, Note_on_c, 2, 55, 62
9, 7080, Note_on_c, 2, 57, 70
9, 7084, Note_on_c, 2, 55, 0
9, 7137, Note_on_c, 2, 57, 0
9, 7140, Note_on_c, 2, 59, 78
9, 7200, Note_on_c, 2, 59, 0
9, 7200, Note_on_c, 2, 60, 110
9, 7260, Note_on_c, 2, 62, 98
9, 7267, Note_on_c, 2, 60, 0
9, 7319, Note_on_c, 2, 62, 0
9, 7320, Note_on_c, 2, 64, 110
9, 7372, Note_on_c, 2, 64, 0
9, 7380, Note_on_c, 2, 65, 110
9, 7439, Note_on_c, 2, 65, 0
9, 7440, Note_on_c, 2, 67, 110
9, 7620, Note_on_c, 2, 69, 55
9, 7624, Note_on_c, 2, 67, 0
9, 7659, Note_on_c, 2, 69, 0
9, 7680, Note_on_c, 2, 69, 49
9, 7710, Note_on_c, 2, 67, 49
9, 7712, Note_on_c, 2, 69, 0
9, 7739, Note_on_c, 2, 67, 0
9, 7740, Note_on_c, 2, 65, 35
9, 7768, Note_on_c, 2, 65, 0
9, 7770, Note_on_c, 2, 64, 44
9, 7800, Note_on_c, 2, 69, 55
9, 7802, Note_on_c, 2, 64, 0
9, 7847, Note_on_c, 2, 69, 0
9, 7860, Note_on_c, 2, 69, 55
9, 7903, Note_on_c, 2, 69, 0
9, 7920, Note_on_c, 2, 69, 55
9, 7978, Note_on_c, 2, 69, 0
9, 7980, Note_on_c, 2, 67, 55
9, 8040, Note_on_c, 2, 67, 0
9, 8280, Note_on_c, 2, 67, 62
9, 8324, Note_on_c, 2, 67, 0
9, 8340, Note_on_c, 2, 67, 55
9, 8384, Note_on_c, 2, 67, 0
9, 8400, Note_on_c, 2, 67, 62
9, 8460, Note_on_c, 2, 65, 70
9, 8462, Note_on_c, 2, 67, 0
9, 8572, Note_on_c, 2, 65, 0
9, 8580, Note_on_c, 2, 67, 62
9, 8610, Note_on_c, 2, 64, 62
9, 8611, Note_on_c, 2, 67, 0
9, 8640, Note_on_c, 2, 62, 62
9, 8644, Note_on_c, 2, 64, 0
9, 8756, Note_on_c, 2, 62, 0
9, 8760, Note_on_c, 2, 64, 55
9, 8820, Note_on_c, 2, 62, 55
9, 8823, Note_on_c, 2, 64, 0
9, 8850, Note_on_c, 2, 64, 55
9, 8854, Note_on_c, 2, 62, 0
9, 8880, Note_on_c, 2, 65, 62
9, 8882, Note_on_c, 2, 64, 0
9, 8968, Note_on_c, 2, 65, 0
9, 8970, Note_on_c, 2, 69, 49
9, 9000, Note_on_c, 2, 67, 55
9, 9002, Note_on_c, 2, 69, 0
9, 9029, Note_on_c, 2, 67, 0
9, 9030, Note_on_c, 2, 64, 55
9, 9058, Note_on_c, 2, 64, 0
9, 9060, Note_on_c, 2, 65, 55
9, 9088, Note_on_c, 2, 65, 0
9, 9090, Note_on_c, 2, 62, 35
9, 9119, Note_on_c, 2, 62, 0
9, 9120, Note_on_c, 2, 60, 55
9, 9238, Note_on_c, 2, 60, 0
9, 9240, Note_on_c, 2, 62, 78
9, 9300, Note_on_c, 2, 60, 62
9, 9301, Note_on_c, 2, 62, 0
9, 9327, Note_on_c, 2, 60, 0
9, 9330, Note_on_c, 2, 62, 62
9, 9360, Note_on_c, 2, 64, 55
9, 9361, Note_on_c, 2, 62, 0
9, 9478, Note_on_c, 2, 64, 0
9, 9480, Note_on_c, 2, 65, 70
9, 9536, Note_on_c, 2, 65, 0
9, 9540, Note_on_c, 2, 64, 55
9, 9570, Note_on_c, 2, 64, 0
9, 9570, Note_on_c, 2, 65, 70
9, 9600, Note_on_c, 2, 67, 70
9, 9603, Note_on_c, 2, 65, 0
9, 9658, Note_on_c, 2, 67, 0
9, 9660, Note_on_c, 2, 64, 62
9, 9717, Note_on_c, 2, 64, 0
9, 9720, Note_on_c, 2, 67, 70
9, 9780, Note_on_c, 2, 66, 78
9, 9785, Note_on_c, 2, 67, 0
9, 9826, Note_on_c, 2, 66, 0
9, 9840, Note_on_c, 2, 66, 124
9, 9899, Note_on_c, 2, 66, 0
9, 9900, Note_on_c, 2, 67, 78
9, 9960, Note_on_c, 2, 65, 55
9, 9961, Note_on_c, 2, 67, 0
9, 10019, Note_on_c, 2, 65, 0
9, 10020, Note_on_c, 2, 64, 70
9, 10072, Note_on_c, 2, 64, 0
9, 10080, Note_on_c, 2, 67, 110
9, 10243, Note_on_c, 2, 67, 0
9, 10260, Note_on_c, 2, 67, 62
9, 10301, Note_on_c, 2, 67, 0
9, 10320, Note_on_c, 2, 67, 55
9, 10441, Note_on_c, 2, 67, 0
9, 10500, Note_on_c, 2, 67, 49
9, 10517, Note_on_c, 2, 67, 0
9, 10530, Note_on_c, 2, 67, 55
9, 10547, Note_on_c, 2, 67, 0
9, 10560, Note_on_c, 2, 67, 55
9, 10601, Note_on_c, 2, 67, 0
9, 10620, Note_on_c, 2, 67, 49
9, 10674, Note_on_c, 2, 67, 0
9, 10740, Note_on_c, 2, 67, 49
9, 10756, Note_on_c, 2, 67, 0
9, 10770, Note_on_c, 2, 67, 44
9, 10784, Note_on_c, 2, 67, 0
9, 10800, Note_on_c, 2, 67, 78
9, 10852, Note_on_c, 2, 67, 0
9, 10860, Note_on_c, 2, 67, 44
9, 10920, Note_on_c, 2, 67, 0
9, 10980, Note_on_c, 2, 67, 55
9, 11024, Note_on_c, 2, 67, 0
9, 11040, Note_on_c, 2, 67, 70
9, 11146, Note_on_c, 2, 67, 0
9, 11160, Note_on_c, 2, 67, 70
9, 11203, Note_on_c, 2, 67, 0
9, 11220, Note_on_c, 2, 67, 62
9, 11280, Note_on_c, 2, 65, 78
9, 11282, Note_on_c, 2, 67, 0
9, 11400, Note_on_c, 2, 67, 78
9, 11402, Note_on_c, 2, 65, 0
9, 11457, Note_on_c, 2, 67, 0
9, 11460, Note_on_c, 2, 64, 78
9, 11505, Note_on_c, 2, 64, 0
9, 11520, Note_on_c, 2, 64, 62
9, 11580, Note_on_c, 2, 62, 70
9, 11581, Note_on_c, 2, 64, 0
9, 11700, Note_on_c, 2, 60, 62
9, 11704, Note_on_c, 2, 62, 0
9, 11759, Note_on_c, 2, 60, 0
9, 11760, Note_on_c, 2, 59, 70
9, 11878, Note_on_c, 2, 59, 0
9, 12000, Note_on_c, 2, 62, 110
9, 12179, Note_on_c, 2, 62, 0
9, 12180, Note_on_c, 2, 65, 78
9, 12228, Note_on_c, 2, 65, 0
9, 12240, Note_on_c, 2, 65, 62
9, 12300, Note_on_c, 2, 64, 62
9, 12301, Note_on_c, 2, 65, 0
9, 12406, Note_on_c, 2, 64, 0
9, 12420, Note_on_c, 2, 64, 55
9, 12461, Note_on_c, 2, 64, 0
9, 12480, Note_on_c, 2, 64, 44
9, 12540, Note_on_c, 2, 62, 62
9, 12541, Note_on_c, 2, 64, 0
9, 12660, Note_on_c, 2, 62, 0
9, 12660, Note_on_c, 2, 60, 62
9, 12701, Note_on_c, 2, 60, 0
9, 12720, Note_on_c, 2, 60, 62
9, 12778, Note_on_c, 2, 60, 0
9, 12780, Note_on_c, 2, 59, 62
9, 12846, Note_on_c, 2, 59, 0
9, 12960, Note_on_c, 2, 62, 110
9, 13138, Note_on_c, 2, 62, 0
9, 13140, Note_on_c, 2, 65, 44
9, 13185, Note_on_c, 2, 65, 0
9, 13200, Note_on_c, 2, 65, 55
9, 13259, Note_on_c, 2, 65, 0
9, 13260, Note_on_c, 2, 63, 55
9, 13360, Note_on_c, 2, 63, 0
9, 13380, Note_on_c, 2, 63, 70
9, 13421, Note_on_c, 2, 63, 0
9, 13440, Note_on_c, 2, 63, 70
9, 13495, Note_on_c, 2, 63, 0
9, 13500, Note_on_c, 2, 62, 62
9, 13594, Note_on_c, 2, 62, 0
9, 13620, Note_on_c, 2, 62, 62
9, 13661, Note_on_c, 2, 62, 0
9, 13680, Note_on_c, 2, 62, 55
9, 13800, Note_on_c, 2, 62, 0
9, 13800, Note_on_c, 2, 63, 78
9, 13882, Note_on_c, 2, 63, 0
9, 13890, Note_on_c, 2, 63, 88
9, 13919, Note_on_c, 2, 63, 0
9, 13920, Note_on_c, 2, 62, 55
9, 14040, Note_on_c, 2, 63, 70
9, 14043, Note_on_c, 2, 62, 0
9, 14106, Note_on_c, 2, 63, 0
9, 14130, Note_on_c, 2, 63, 70
9, 14159, Note_on_c, 2, 63, 0
9, 14160, Note_on_c, 2, 62, 55
9, 14262, Note_on_c, 2, 62, 0
9, 18480, Note_on_c, 2, 67, 70
9, 18659, Note_on_c, 2, 67, 0
9, 18660, Note_on_c, 2, 69, 62
9, 18702, Note_on_c, 2, 69, 0
9, 18720, Note_on_c, 2, 69, 62
9, 18750, Note_on_c, 2, 67, 55
9, 18754, Note_on_c, 2, 69, 0
9, 18778, Note_on_c, 2, 67, 0
9, 18780, Note_on_c, 2, 65, 55
9, 18808, Note_on_c, 2, 65, 0
9, 18810, Note_on_c, 2, 64, 55
9, 18840, Note_on_c, 2, 69, 55
9, 18841, Note_on_c, 2, 64, 0
9, 18881, Note_on_c, 2, 69, 0
9, 18900, Note_on_c, 2, 69, 62
9, 18944, Note_on_c, 2, 69, 0
9, 18960, Note_on_c, 2, 69, 55
9, 19017, Note_on_c, 2, 69, 0
9, 19020, Note_on_c, 2, 67, 55
9, 19079, Note_on_c, 2, 67, 0
9, 19320, Note_on_c, 2, 69, 62
9, 19362, Note_on_c, 2, 69, 0
9, 19380, Note_on_c, 2, 69, 62
9, 19420, Note_on_c, 2, 69, 0
9, 19440, Note_on_c, 2, 69, 55
9, 19492, Note_on_c, 2, 69, 0
9, 19500, Note_on_c, 2, 67, 49
9, 19588, Note_on_c, 2, 67, 0
9, 19590, Note_on_c, 2, 64, 55
9, 19620, Note_on_c, 2, 65, 49
9, 19621, Note_on_c, 2, 64, 0
9, 19646, Note_on_c, 2, 65, 0
9, 19650, Note_on_c, 2, 62, 55
9, 19680, Note_on_c, 2, 60, 55
9, 19682, Note_on_c, 2, 62, 0
9, 19800, Note_on_c, 2, 60, 0
9, 19800, Note_on_c, 2, 62, 62
9, 19859, Note_on_c, 2, 62, 0
9, 19860, Note_on_c, 2, 60, 62
9, 19890, Note_on_c, 2, 62, 62
9, 19892, Note_on_c, 2, 60, 0
9, 19919, Note_on_c, 2, 62, 0
9, 19920, Note_on_c, 2, 64, 55
9, 20037, Note_on_c, 2, 64, 0
9, 20040, Note_on_c, 2, 65, 70
9, 20100, Note_on_c, 2, 65, 0
9, 20100, Note_on_c, 2, 64, 55
9, 20129, Note_on_c, 2, 64, 0
9, 20130, Note_on_c, 2, 65, 49
9, 20160, Note_on_c, 2, 67, 55
9, 20161, Note_on_c, 2, 65, 0
9, 20220, Note_on_c, 2, 69, 70
9, 20221, Note_on_c, 2, 67, 0
9, 20278, Note_on_c, 2, 69, 0
9, 20280, Note_on_c, 2, 71, 62
9, 20338, Note_on_c, 2, 71, 0
9, 20340, Note_on_c, 2, 72, 55
9, 20371, Note_on_c, 2, 72, 0
9, 20400, Note_on_c, 2, 72, 70
9, 20520, Note_on_c, 2, 67, 62
9, 20535, Note_on_c, 2, 72, 0
9, 20696, Note_on_c, 2, 67, 0
9, 20700, Note_on_c, 2, 69, 62
9, 20760, Note_on_c, 2, 71, 62
9, 20761, Note_on_c, 2, 69, 0
9, 20820, Note_on_c, 2, 71, 0
9, 20820, Note_on_c, 2, 72, 62
9, 20862, Note_on_c, 2, 72, 0
9, 20880, Note_on_c, 2, 72, 62
9, 21000, Note_on_c, 2, 72, 0
9, 21000, Note_on_c, 2, 67, 70
9, 21077, Note_on_c, 2, 67, 0
9, 21090, Note_on_c, 2, 67, 62
9, 21105, Note_on_c, 2, 67, 0
9, 21120, Note_on_c, 2, 67, 62
9, 21234, Note_on_c, 2, 67, 0
9, 21234, End_track
10, 0, Start_track
10, 0, MIDI_port, 0
10, 0, Title_t, "tenor solo"
10, 2400, Note_on_c, 2, 64, 70
10, 2580, Note_on_c, 2, 65, 55
10, 2582, Note_on_c, 2, 64, 0
10, 2626, Note_on_c, 2, 65, 0
10, 2640, Note_on_c, 2, 65, 70
10, 2670, Note_on_c, 2, 64, 44
10, 2680, Note_on_c, 2, 65, 0
10, 2698, Note_on_c, 2, 64, 0
10, 2700, Note_on_c, 2, 62, 55
10, 2729, Note_on_c, 2, 62, 0
10, 2730, Note_on_c, 2, 60, 49
10, 2759, Note_on_c, 2, 60, 0
10, 2760, Note_on_c, 2, 65, 70
10, 2809, Note_on_c, 2, 65, 0
10, 2820, Note_on_c, 2, 65, 70
10, 2864, Note_on_c, 2, 65, 0
10, 2880, Note_on_c, 2, 65, 62
10, 2938, Note_on_c, 2, 65, 0
10, 2940, Note_on_c, 2, 64, 70
10, 3001, Note_on_c, 2, 64, 0
10, 3240, Note_on_c, 2, 65, 70
10, 3287, Note_on_c, 2, 65, 0
10, 3300, Note_on_c, 2, 65, 70
10, 3340, Note_on_c, 2, 65, 0
10, 3360, Note_on_c, 2, 65, 62
10, 3419, Note_on_c, 2, 65, 0
10, 3420, Note_on_c, 2, 64, 55
10, 3507, Note_on_c, 2, 64, 0
10, 3510, Note_on_c, 2, 60, 62
10, 3540, Note_on_c, 2, 62, 62
10, 3542, Note_on_c, 2, 60, 0
10, 3570, Note_on_c, 2, 59, 62
10, 3571, Note_on_c, 2, 62, 0
10, 3599, Note_on_c, 2, 59, 0
10, 3600, Note_on_c, 2, 60, 70
10, 3719, Note_on_c, 2, 60, 0
10, 3720, Note_on_c, 2, 59, 70
10, 3780, Note_on_c, 2, 57, 70
10, 3782, Note_on_c, 2, 59, 0
10, 3810, Note_on_c, 2, 57, 0
10, 3810, Note_on_c, 2, 59, 70
10, 3840, Note_on_c, 2, 59, 0
10, 3840, Note_on_c, 2, 60, 70
10, 3960, Note_on_c, 2, 62, 70
10, 3963, Note_on_c, 2, 60, 0
10, 4018, Note_on_c, 2, 62, 0
10, 4020, Note_on_c, 2, 60, 70
10, 4050, Note_on_c, 2, 62, 70
10, 4051, Note_on_c, 2, 60, 0
10, 4078, Note_on_c, 2, 62, 0
10, 4080, Note_on_c, 2, 64, 70
10, 4140, Note_on_c, 2, 65, 70
10, 4141, Note_on_c, 2, 64, 0
10, 4200, Note_on_c, 2, 62, 78
10, 4202, Note_on_c, 2, 65, 0
10, 4260, Note_on_c, 2, 60, 70
10, 4262, Note_on_c, 2, 62, 0
10, 4304, Note_on_c, 2, 60, 0
10, 4320, Note_on_c, 2, 60, 78
10, 4440, Note_on_c, 2, 62, 78
10, 4448, Note_on_c, 2, 60, 0
10, 4499, Note_on_c, 2, 62, 0
10, 4500, Note_on_c, 2, 60, 70
10, 4526, Note_on_c, 2, 60, 0
10, 4530, Note_on_c, 2, 59, 70
10, 4560, Note_on_c, 2, 60, 88
10, 4561, Note_on_c, 2, 59, 0
10, 4684, Note_on_c, 2, 60, 0
10, 4800, Note_on_c, 2, 59, 110
10, 4973, Note_on_c, 2, 59, 0
10, 4980, Note_on_c, 2, 62, 49
10, 5024, Note_on_c, 2, 62, 0
10, 5040, Note_on_c, 2, 62, 62
10, 5100, Note_on_c, 2, 60, 70
10, 5102, Note_on_c, 2, 62, 0
10, 5202, Note_on_c, 2, 60, 0
10, 5220, Note_on_c, 2, 60, 62
10, 5277, Note_on_c, 2, 60, 0
10, 5280, Note_on_c, 2, 57, 70
10, 5340, Note_on_c, 2, 59, 62
10, 5344, Note_on_c, 2, 57, 0
10, 5400, Note_on_c, 2, 60, 70
10, 5401, Note_on_c, 2, 59, 0
10, 5460, Note_on_c, 2, 60, 0
10, 5460, Note_on_c, 2, 52, 70
10, 5520, Note_on_c, 2, 52, 0
10, 5520, Note_on_c, 2, 55, 70
10, 5562, Note_on_c, 2, 55, 0
10, 5580, Note_on_c, 2, 55, 70
10, 5636, Note_on_c, 2, 55, 0
10, 5760, Note_on_c, 2, 59, 110
10, 5937, Note_on_c, 2, 59, 0
10, 5940, Note_on_c, 2, 62, 55
10, 5985, Note_on_c, 2, 62, 0
10, 6000, Note_on_c, 2, 62, 62
10, 6059, Note_on_c, 2, 62, 0
10, 6060, Note_on_c, 2, 60, 62
10, 6180, Note_on_c, 2, 64, 55
10, 6181, Note_on_c, 2, 60, 0
10, 6226, Note_on_c, 2, 64, 0
10, 6240, Note_on_c, 2, 64, 70
10, 6297, Note_on_c, 2, 64, 0
10, 6300, Note_on_c, 2, 62, 62
10, 6420, Note_on_c, 2, 60, 62
10, 6423, Note_on_c, 2, 62, 0
10, 6475, Note_on_c, 2, 60, 0
10, 6480, Note_on_c, 2, 59, 70
10, 6527, Note_on_c, 2, 59, 0
10, 6600, Note_on_c, 2, 60, 55
10, 6687, Note_on_c, 2, 60, 0
10, 6690, Note_on_c, 2, 57, 62
10, 6720, Note_on_c, 2, 59, 55
10, 6724, Note_on_c, 2, 57, 0
10, 6771, Note_on_c, 2, 59, 0
10, 6840, Note_on_c, 2, 60, 55
10, 6924, Note_on_c, 2, 60, 0
10, 6930, Note_on_c, 2, 57, 49
10, 6960, Note_on_c, 2, 57, 0
10, 6960, Note_on_c, 2, 59, 35
10, 7018, Note_on_c, 2, 59, 0
10, 7260, Note_on_c, 2, 59, 88
10, 7316, Note_on_c, 2, 59, 0
10, 7320, Note_on_c, 2, 60, 98
10, 7377, Note_on_c, 2, 60, 0
10, 7380, Note_on_c, 2, 62, 110
10, 7440, Note_on_c, 2, 62, 0
10, 7440, Note_on_c, 2, 64, 98
10, 7620, Note_on_c, 2, 64, 0
10, 7620, Note_on_c, 2, 65, 39
10, 7672, Note_on_c, 2, 65, 0
10, 7680, Note_on_c, 2, 65, 35
10, 7707, Note_on_c, 2, 65, 0
10, 7710, Note_on_c, 2, 64, 35
10, 7739, Note_on_c, 2, 64, 0
10, 7740, Note_on_c, 2, 62, 22
10, 7767, Note_on_c, 2, 62, 0
10, 7770, Note_on_c, 2, 60, 39
10, 7800, Note_on_c, 2, 60, 0
10, 7800, Note_on_c, 2, 65, 55
10, 7844, Note_on_c, 2, 65, 0
10, 7860, Note_on_c, 2, 65, 55
10, 7903, Note_on_c, 2, 65, 0
10, 7920, Note_on_c, 2, 65, 62
10, 7977, Note_on_c, 2, 65, 0
10, 7980, Note_on_c, 2, 64, 49
10, 8036, Note_on_c, 2, 64, 0
10, 8280, Note_on_c, 2, 64, 55
10, 8321, Note_on_c, 2, 64, 0
10, 8340, Note_on_c, 2, 64, 62
10, 8399, Note_on_c, 2, 64, 0
10, 8400, Note_on_c, 2, 62, 70
10, 8444, Note_on_c, 2, 62, 0
10, 8460, Note_on_c, 2, 62, 70
10, 8574, Note_on_c, 2, 62, 0
10, 8580, Note_on_c, 2, 64, 49
10, 8610, Note_on_c, 2, 61, 70
10, 8614, Note_on_c, 2, 64, 0
10, 8638, Note_on_c, 2, 61, 0
10, 8640, Note_on_c, 2, 62, 70
10, 8760, Note_on_c, 2, 62, 0
10, 8760, Note_on_c, 2, 61, 70
10, 8820, Note_on_c, 2, 59, 62
10, 8822, Note_on_c, 2, 61, 0
10, 8850, Note_on_c, 2, 61, 78
10, 8854, Note_on_c, 2, 59, 0
10, 8877, Note_on_c, 2, 61, 0
10, 8880, Note_on_c, 2, 62, 70
10, 8970, Note_on_c, 2, 62, 0
10, 8970, Note_on_c, 2, 65, 70
10, 9000, Note_on_c, 2, 64, 55
10, 9003, Note_on_c, 2, 65, 0
10, 9030, Note_on_c, 2, 60, 62
10, 9031, Note_on_c, 2, 64, 0
10, 9058, Note_on_c, 2, 60, 0
10, 9060, Note_on_c, 2, 62, 70
10, 9088, Note_on_c, 2, 62, 0
10, 9090, Note_on_c, 2, 59, 62
10, 9120, Note_on_c, 2, 59, 0
10, 9120, Note_on_c, 2, 60, 70
10, 9238, Note_on_c, 2, 60, 0
10, 9240, Note_on_c, 2, 59, 70
10, 9300, Note_on_c, 2, 57, 62
10, 9302, Note_on_c, 2, 59, 0
10, 9330, Note_on_c, 2, 59, 70
10, 9332, Note_on_c, 2, 57, 0
10, 9360, Note_on_c, 2, 59, 0
10, 9360, Note_on_c, 2, 60, 70
10, 9480, Note_on_c, 2, 62, 70
10, 9483, Note_on_c, 2, 60, 0
10, 9538, Note_on_c, 2, 62, 0
10, 9540, Note_on_c, 2, 60, 62
10, 9570, Note_on_c, 2, 62, 70
10, 9571, Note_on_c, 2, 60, 0
10, 9600, Note_on_c, 2, 64, 62
10, 9602, Note_on_c, 2, 62, 0
10, 9660, Note_on_c, 2, 64, 0
10, 9660, Note_on_c, 2, 60, 70
10, 9718, Note_on_c, 2, 60, 0
10, 9720, Note_on_c, 2, 62, 70
10, 9771, Note_on_c, 2, 62, 0
10, 9780, Note_on_c, 2, 62, 78
10, 9807, Note_on_c, 2, 62, 0
10, 9840, Note_on_c, 2, 62, 110
10, 9930, Note_on_c, 2, 55, 39
10, 9936, Note_on_c, 2, 55, 0
10, 9943, Note_on_c, 2, 62, 0
10, 9960, Note_on_c, 2, 55, 98
10, 10064, Note_on_c, 2, 55, 0
10, 10080, Note_on_c, 2, 64, 70
10, 10138, Note_on_c, 2, 64, 0
10, 10140, Note_on_c, 2, 62, 78
10, 10199, Note_on_c, 2, 62, 0
10, 10200, Note_on_c, 2, 60, 55
10, 10257, Note_on_c, 2, 60, 0
10, 10260, Note_on_c, 2, 59, 55
10, 10320, Note_on_c, 2, 59, 0
10, 10320, Note_on_c, 2, 60, 55
10, 10444, Note_on_c, 2, 60, 0
10, 10500, Note_on_c, 2, 60, 62
10, 10516, Note_on_c, 2, 60, 0
10, 10530, Note_on_c, 2, 60, 55
10, 10560, Note_on_c, 2, 60, 0
10, 10560, Note_on_c, 2, 62, 70
10, 10620, Note_on_c, 2, 60, 49
10, 10622, Note_on_c, 2, 62, 0
10, 10678, Note_on_c, 2, 60, 0
10, 10740, Note_on_c, 2, 60, 55
10, 10757, Note_on_c, 2, 60, 0
10, 10770, Note_on_c, 2, 60, 49
10, 10800, Note_on_c, 2, 60, 0
10, 10800, Note_on_c, 2, 62, 88
10, 10857, Note_on_c, 2, 62, 0
10, 10860, Note_on_c, 2, 60, 55
10, 10917, Note_on_c, 2, 60, 0
10, 10980, Note_on_c, 2, 60, 55
10, 11040, Note_on_c, 2, 62, 70
10, 11042, Note_on_c, 2, 60, 0
10, 11099, Note_on_c, 2, 62, 0
10, 11100, Note_on_c, 2, 60, 44
10, 11160, Note_on_c, 2, 60, 0
10, 11160, Note_on_c, 2, 62, 70
10, 11218, Note_on_c, 2, 62, 0
10, 11220, Note_on_c, 2, 60, 55
10, 11265, Note_on_c, 2, 60, 0
10, 11280, Note_on_c, 2, 60, 62
10, 11383, Note_on_c, 2, 60, 0
10, 11400, Note_on_c, 2, 60, 70
10, 11446, Note_on_c, 2, 60, 0
10, 11460, Note_on_c, 2, 60, 62
10, 11499, Note_on_c, 2, 60, 0
10, 11520, Note_on_c, 2, 60, 62
10, 11580, Note_on_c, 2, 55, 70
10, 11583, Note_on_c, 2, 60, 0
10, 11700, Note_on_c, 2, 57, 70
10, 11701, Note_on_c, 2, 55, 0
10, 11760, Note_on_c, 2, 50, 78
10, 11761, Note_on_c, 2, 57, 0
10, 11875, Note_on_c, 2, 50, 0
10, 12000, Note_on_c, 2, 59, 110
10, 12179, Note_on_c, 2, 59, 0
10, 12180, Note_on_c, 2, 62, 78
10, 12227, Note_on_c, 2, 62, 0
10, 12240, Note_on_c, 2, 62, 55
10, 12300, Note_on_c, 2, 60, 62
10, 12301, Note_on_c, 2, 62, 0
10, 12389, Note_on_c, 2, 60, 0
10, 12420, Note_on_c, 2, 60, 70
10, 12478, Note_on_c, 2, 60, 0
10, 12480, Note_on_c, 2, 57, 62
10, 12539, Note_on_c, 2, 57, 0
10, 12540, Note_on_c, 2, 59, 49
10, 12600, Note_on_c, 2, 60, 55
10, 12601, Note_on_c, 2, 59, 0
10, 12660, Note_on_c, 2, 52, 78
10, 12672, Note_on_c, 2, 60, 0
10, 12720, Note_on_c, 2, 55, 62
10, 12724, Note_on_c, 2, 52, 0
10, 12758, Note_on_c, 2, 55, 0
10, 12780, Note_on_c, 2, 55, 62
10, 12843, Note_on_c, 2, 55, 0
10, 12960, Note_on_c, 2, 59, 110
10, 13136, Note_on_c, 2, 59, 0
10, 13140, Note_on_c, 2, 62, 55
10, 13184, Note_on_c, 2, 62, 0
10, 13200, Note_on_c, 2, 62, 49
10, 13260, Note_on_c, 2, 60, 49
10, 13263, Note_on_c, 2, 62, 0
10, 13356, Note_on_c, 2, 60, 0
10, 13380, Note_on_c, 2, 60, 62
10, 13422, Note_on_c, 2, 60, 0
10, 13440, Note_on_c, 2, 60, 62
10, 13499, Note_on_c, 2, 60, 0
10, 13500, Note_on_c, 2, 59, 62
10, 13620, Note_on_c, 2, 60, 39
10, 13622, Note_on_c, 2, 59, 0
10, 13679, Note_on_c, 2, 60, 0
10, 13680, Note_on_c, 2, 59, 55
10, 13799, Note_on_c, 2, 59, 0
10, 13800, Note_on_c, 2, 60, 55
10, 13881, Note_on_c, 2, 60, 0
10, 13890, Note_on_c, 2, 60, 44
10, 13920, Note_on_c, 2, 59, 62
10, 13922, Note_on_c, 2, 60, 0
10, 14040, Note_on_c, 2, 59, 0
10, 14040, Note_on_c, 2, 60, 55
10, 14113, Note_on_c, 2, 60, 0
10, 14130, Note_on_c, 2, 60, 39
10, 14160, Note_on_c, 2, 59, 62
10, 14162, Note_on_c, 2, 60, 0
10, 14276, Note_on_c, 2, 59, 0
10, 18480, Note_on_c, 2, 64, 98
10, 18660, Note_on_c, 2, 64, 0
10, 18660, Note_on_c, 2, 65, 88
10, 18708, Note_on_c, 2, 65, 0
10, 18720, Note_on_c, 2, 65, 70
10, 18750, Note_on_c, 2, 64, 62
10, 18756, Note_on_c, 2, 65, 0
10, 18780, Note_on_c, 2, 62, 62
10, 18785, Note_on_c, 2, 64, 0
10, 18805, Note_on_c, 2, 62, 0
10, 18810, Note_on_c, 2, 60, 62
10, 18840, Note_on_c, 2, 65, 78
10, 18843, Note_on_c, 2, 60, 0
10, 18883, Note_on_c, 2, 65, 0
10, 18900, Note_on_c, 2, 65, 70
10, 18947, Note_on_c, 2, 65, 0
10, 18960, Note_on_c, 2, 65, 70
10, 19018, Note_on_c, 2, 65, 0
10, 19020, Note_on_c, 2, 64, 70
10, 19068, Note_on_c, 2, 64, 0
10, 19320, Note_on_c, 2, 65, 78
10, 19363, Note_on_c, 2, 65, 0
10, 19380, Note_on_c, 2, 65, 70
10, 19422, Note_on_c, 2, 65, 0
10, 19440, Note_on_c, 2, 65, 70
10, 19492, Note_on_c, 2, 65, 0
10, 19500, Note_on_c, 2, 64, 62
10, 19590, Note_on_c, 2, 60, 70
10, 19591, Note_on_c, 2, 64, 0
10, 19620, Note_on_c, 2, 60, 0
10, 19620, Note_on_c, 2, 62, 62
10, 19648, Note_on_c, 2, 62, 0
10, 19650, Note_on_c, 2, 59, 49
10, 19678, Note_on_c, 2, 59, 0
10, 19680, Note_on_c, 2, 60, 55
10, 19800, Note_on_c, 2, 60, 0
10, 19800, Note_on_c, 2, 59, 70
10, 19859, Note_on_c, 2, 59, 0
10, 19860, Note_on_c, 2, 57, 70
10, 19888, Note_on_c, 2, 57, 0
10, 19890, Note_on_c, 2, 59, 70
10, 19919, Note_on_c, 2, 59, 0
10, 19920, Note_on_c, 2, 60, 62
10, 20040, Note_on_c, 2, 60, 0
10, 20040, Note_on_c, 2, 62, 70
10, 20099, Note_on_c, 2, 62, 0
10, 20100, Note_on_c, 2, 60, 62
10, 20130, Note_on_c, 2, 62, 62
10, 20132, Note_on_c, 2, 60, 0
10, 20159, Note_on_c, 2, 62, 0
10, 20160, Note_on_c, 2, 64, 62
10, 20220, Note_on_c, 2, 65, 62
10, 20221, Note_on_c, 2, 64, 0
10, 20280, Note_on_c, 2, 65, 0
10, 20280, Note_on_c, 2, 62, 62
10, 20339, Note_on_c, 2, 62, 0
10, 20340, Note_on_c, 2, 60, 70
10, 20382, Note_on_c, 2, 60, 0
10, 20400, Note_on_c, 2, 60, 62
10, 20520, Note_on_c, 2, 60, 0
10, 20520, Note_on_c, 2, 62, 78
10, 20580, Note_on_c, 2, 62, 0
10, 20580, Note_on_c, 2, 60, 55
10, 20609, Note_on_c, 2, 60, 0
10, 20610, Note_on_c, 2, 59, 62
10, 20639, Note_on_c, 2, 59, 0
10, 20640, Note_on_c, 2, 64, 70
10, 20700, Note_on_c, 2, 65, 70
10, 20702, Note_on_c, 2, 64, 0
10, 20760, Note_on_c, 2, 62, 62
10, 20762, Note_on_c, 2, 65, 0
10, 20820, Note_on_c, 2, 60, 62
10, 20821, Note_on_c, 2, 62, 0
10, 20858, Note_on_c, 2, 60, 0
10, 20880, Note_on_c, 2, 60, 62
10, 21000, Note_on_c, 2, 62, 78
10, 21005, Note_on_c, 2, 60, 0
10, 21060, Note_on_c, 2, 60, 62
10, 21062, Note_on_c, 2, 62, 0
10, 21084, Note_on_c, 2, 60, 0
10, 21090, Note_on_c, 2, 59, 55
10, 21120, Note_on_c, 2, 60, 78
10, 21121, Note_on_c, 2, 59, 0
10, 21226, Note_on_c, 2, 60, 0
10, 21226, End_track
11, 0, Start_track
11, 0, MIDI_port, 0
11, 0, Title_t, "bass solo"
11, 2400, Note_on_c, 2, 60, 78
11, 2565, Note_on_c, 2, 60, 0
11, 2577, Note_on_c, 2, 60, 55
11, 2623, Note_on_c, 2, 60, 0
11, 2641, Note_on_c, 2, 60, 70
11, 2701, Note_on_c, 2, 48, 55
11, 2704, Note_on_c, 2, 60, 0
11, 2758, Note_on_c, 2, 48, 0
11, 2938, Note_on_c, 2, 60, 70
11, 2974, Note_on_c, 2, 60, 0
11, 3001, Note_on_c, 2, 60, 62
11, 3180, Note_on_c, 2, 48, 62
11, 3182, Note_on_c, 2, 60, 0
11, 3230, Note_on_c, 2, 48, 0
11, 3597, Note_on_c, 2, 52, 70
11, 3659, Note_on_c, 2, 52, 0
11, 3659, Note_on_c, 2, 48, 55
11, 3720, Note_on_c, 2, 55, 70
11, 3721, Note_on_c, 2, 48, 0
11, 3841, Note_on_c, 2, 52, 70
11, 3844, Note_on_c, 2, 55, 0
11, 3902, Note_on_c, 2, 52, 0
11, 3903, Note_on_c, 2, 48, 62
11, 3943, Note_on_c, 2, 48, 0
11, 3959, Note_on_c, 2, 55, 70
11, 4076, Note_on_c, 2, 55, 0
11, 4076, Note_on_c, 2, 60, 62
11, 4122, Note_on_c, 2, 60, 0
11, 4139, Note_on_c, 2, 60, 70
11, 4187, Note_on_c, 2, 60, 0
11, 4202, Note_on_c, 2, 60, 55
11, 4249, Note_on_c, 2, 60, 0
11, 4260, Note_on_c, 2, 60, 55
11, 4274, Note_on_c, 2, 60, 0
11, 4288, Note_on_c, 2, 60, 62
11, 4321, Note_on_c, 2, 60, 0
11, 4322, Note_on_c, 2, 55, 62
11, 4473, Note_on_c, 2, 55, 0
11, 4498, Note_on_c, 2, 55, 70
11, 4558, Note_on_c, 2, 55, 0
11, 4561, Note_on_c, 2, 48, 70
11, 4668, Note_on_c, 2, 48, 0
11, 4799, Note_on_c, 2, 55, 98
11, 4962, Note_on_c, 2, 55, 0
11, 4978, Note_on_c, 2, 55, 110
11, 5020, Note_on_c, 2, 55, 0
11, 5037, Note_on_c, 2, 55, 98
11, 5080, Note_on_c, 2, 55, 0
11, 5096, Note_on_c, 2, 55, 88
11, 5199, Note_on_c, 2, 55, 0
11, 5218, Note_on_c, 2, 55, 70
11, 5266, Note_on_c, 2, 55, 0
11, 5280, Note_on_c, 2, 55, 70
11, 5382, Note_on_c, 2, 55, 0
11, 5399, Note_on_c, 2, 55, 62
11, 5437, Note_on_c, 2, 55, 0
11, 5458, Note_on_c, 2, 55, 70
11, 5490, Note_on_c, 2, 55, 0
11, 5518, Note_on_c, 2, 55, 78
11, 5579, Note_on_c, 2, 43, 78
11, 5580, Note_on_c, 2, 55, 0
11, 5637, Note_on_c, 2, 43, 0
11, 5761, Note_on_c, 2, 55, 110
11, 5923, Note_on_c, 2, 55, 0
11, 5940, Note_on_c, 2, 55, 62
11, 5982, Note_on_c, 2, 55, 0
11, 6000, Note_on_c, 2, 55, 62
11, 6041, Note_on_c, 2, 55, 0
11, 6059, Note_on_c, 2, 55, 49
11, 6147, Note_on_c, 2, 55, 0
11, 6177, Note_on_c, 2, 55, 70
11, 6237, Note_on_c, 2, 57, 70
11, 6239, Note_on_c, 2, 55, 0
11, 6299, Note_on_c, 2, 59, 78
11, 6301, Note_on_c, 2, 57, 0
11, 6358, Note_on_c, 2, 59, 0
11, 6359, Note_on_c, 2, 60, 70
11, 6418, Note_on_c, 2, 52, 70
11, 6419, Note_on_c, 2, 60, 0
11, 6481, Note_on_c, 2, 55, 78
11, 6482, Note_on_c, 2, 52, 0
11, 6536, Note_on_c, 2, 55, 0
11, 6602, Note_on_c, 2, 50, 70
11, 6665, Note_on_c, 2, 50, 0
11, 6691, Note_on_c, 2, 50, 70
11, 6718, Note_on_c, 2, 50, 0
11, 6719, Note_on_c, 2, 55, 70
11, 6779, Note_on_c, 2, 55, 0
11, 6842, Note_on_c, 2, 50, 62
11, 6893, Note_on_c, 2, 50, 0
11, 6959, Note_on_c, 2, 43, 62
11, 7011, Note_on_c, 2, 43, 0
11, 7261, Note_on_c, 2, 53, 98
11, 7317, Note_on_c, 2, 53, 0
11, 7318, Note_on_c, 2, 52, 88
11, 7381, Note_on_c, 2, 52, 0
11, 7382, Note_on_c, 2, 50, 98
11, 7439, Note_on_c, 2, 50, 0
11, 7442, Note_on_c, 2, 48, 110
11, 7550, Note_on_c, 2, 48, 0
11, 7563, Note_on_c, 2, 48, 110
11, 7683, Note_on_c, 2, 48, 0
11, 7918, Note_on_c, 2, 60, 98
11, 8081, Note_on_c, 2, 60, 0
11, 8099, Note_on_c, 2, 60, 70
11, 8142, Note_on_c, 2, 60, 0
11, 8161, Note_on_c, 2, 60, 70
11, 8277, Note_on_c, 2, 61, 88
11, 8281, Note_on_c, 2, 60, 0
11, 8323, Note_on_c, 2, 61, 0
11, 8340, Note_on_c, 2, 61, 78
11, 8400, Note_on_c, 2, 61, 0
11, 8401, Note_on_c, 2, 62, 88
11, 8458, Note_on_c, 2, 50, 78
11, 8460, Note_on_c, 2, 62, 0
11, 8508, Note_on_c, 2, 50, 0
11, 8638, Note_on_c, 2, 53, 70
11, 8700, Note_on_c, 2, 50, 70
11, 8702, Note_on_c, 2, 53, 0
11, 8758, Note_on_c, 2, 50, 0
11, 8760, Note_on_c, 2, 57, 88
11, 8877, Note_on_c, 2, 57, 0
11, 8877, Note_on_c, 2, 50, 78
11, 8998, Note_on_c, 2, 50, 0
11, 9180, Note_on_c, 2, 60, 98
11, 9242, Note_on_c, 2, 55, 70
11, 9244, Note_on_c, 2, 60, 0
11, 9361, Note_on_c, 2, 52, 70
11, 9362, Note_on_c, 2, 55, 0
11, 9447, Note_on_c, 2, 52, 0
11, 9448, Note_on_c, 2, 48, 70
11, 9476, Note_on_c, 2, 48, 0
11, 9478, Note_on_c, 2, 55, 70
11, 9597, Note_on_c, 2, 48, 78
11, 9598, Note_on_c, 2, 55, 0
11, 9640, Note_on_c, 2, 48, 0
11, 9659, Note_on_c, 2, 48, 70
11, 9719, Note_on_c, 2, 48, 0
11, 9719, Note_on_c, 2, 47, 78
11, 9782, Note_on_c, 2, 47, 0
11, 9782, Note_on_c, 2, 45, 88
11, 9827, Note_on_c, 2, 45, 0
11, 9841, Note_on_c, 2, 43, 98
11, 9946, Note_on_c, 2, 43, 0
11, 9957, Note_on_c, 2, 43, 70
11, 10005, Note_on_c, 2, 43, 0
11, 10019, Note_on_c, 2, 43, 62
11, 10061, Note_on_c, 2, 43, 0
11, 10078, Note_on_c, 2, 55, 110
11, 10192, Note_on_c, 2, 55, 0
11, 10253, Note_on_c, 2, 55, 88
11, 10318, Note_on_c, 2, 48, 62
11, 10319, Note_on_c, 2, 55, 0
11, 10431, Note_on_c, 2, 48, 0
11, 10494, Note_on_c, 2, 52, 62
11, 10508, Note_on_c, 2, 52, 0
11, 10523, Note_on_c, 2, 52, 55
11, 10559, Note_on_c, 2, 53, 70
11, 10561, Note_on_c, 2, 52, 0
11, 10621, Note_on_c, 2, 53, 0
11, 10621, Note_on_c, 2, 52, 78
11, 10658, Note_on_c, 2, 52, 0
11, 10737, Note_on_c, 2, 52, 62
11, 10751, Note_on_c, 2, 52, 0
11, 10766, Note_on_c, 2, 52, 55
11, 10797, Note_on_c, 2, 52, 0
11, 10800, Note_on_c, 2, 53, 70
11, 10860, Note_on_c, 2, 53, 0
11, 10861, Note_on_c, 2, 52, 70
11, 10894, Note_on_c, 2, 52, 0
11, 10976, Note_on_c, 2, 52, 49
11, 11037, Note_on_c, 2, 52, 0
11, 11039, Note_on_c, 2, 53, 78
11, 11101, Note_on_c, 2, 52, 70
11, 11103, Note_on_c, 2, 53, 0
11, 11159, Note_on_c, 2, 53, 78
11, 11160, Note_on_c, 2, 52, 0
11, 11221, Note_on_c, 2, 52, 88
11, 11223, Note_on_c, 2, 53, 0
11, 11275, Note_on_c, 2, 52, 0
11, 11278, Note_on_c, 2, 53, 98
11, 11398, Note_on_c, 2, 52, 88
11, 11400, Note_on_c, 2, 53, 0
11, 11455, Note_on_c, 2, 52, 0
11, 11457, Note_on_c, 2, 48, 70
11, 11519, Note_on_c, 2, 45, 78
11, 11520, Note_on_c, 2, 48, 0
11, 11580, Note_on_c, 2, 47, 88
11, 11583, Note_on_c, 2, 45, 0
11, 11640, Note_on_c, 2, 47, 0
11, 11642, Note_on_c, 2, 48, 70
11, 11700, Note_on_c, 2, 42, 98
11, 11701, Note_on_c, 2, 48, 0
11, 11762, Note_on_c, 2, 42, 0
11, 11762, Note_on_c, 2, 43, 88
11, 11870, Note_on_c, 2, 43, 0
11, 11998, Note_on_c, 2, 55, 110
11, 12166, Note_on_c, 2, 55, 0
11, 12181, Note_on_c, 2, 55, 62
11, 12223, Note_on_c, 2, 55, 0
11, 12239, Note_on_c, 2, 55, 62
11, 12283, Note_on_c, 2, 55, 0
11, 12299, Note_on_c, 2, 55, 62
11, 12398, Note_on_c, 2, 55, 0
11, 12419, Note_on_c, 2, 55, 55
11, 12461, Note_on_c, 2, 55, 0
11, 12477, Note_on_c, 2, 55, 55
11, 12585, Note_on_c, 2, 55, 0
11, 12601, Note_on_c, 2, 55, 62
11, 12638, Note_on_c, 2, 55, 0
11, 12657, Note_on_c, 2, 55, 62
11, 12688, Note_on_c, 2, 55, 0
11, 12716, Note_on_c, 2, 55, 78
11, 12780, Note_on_c, 2, 43, 78
11, 12783, Note_on_c, 2, 55, 0
11, 12837, Note_on_c, 2, 43, 0
11, 12962, Note_on_c, 2, 55, 110
11, 13123, Note_on_c, 2, 55, 0
11, 13140, Note_on_c, 2, 55, 70
11, 13179, Note_on_c, 2, 55, 0
11, 13199, Note_on_c, 2, 55, 70
11, 13242, Note_on_c, 2, 55, 0
11, 13260, Note_on_c, 2, 55, 70
11, 13361, Note_on_c, 2, 55, 0
11, 13380, Note_on_c, 2, 55, 70
11, 13421, Note_on_c, 2, 55, 0
11, 13438, Note_on_c, 2, 55, 70
11, 13480, Note_on_c, 2, 55, 0
11, 13497, Note_on_c, 2, 55, 62
11, 13599, Note_on_c, 2, 55, 0
11, 13617, Note_on_c, 2, 55, 70
11, 13657, Note_on_c, 2, 55, 0
11, 13680, Note_on_c, 2, 55, 78
11, 13748, Note_on_c, 2, 55, 0
11, 13769, Note_on_c, 2, 55, 70
11, 13796, Note_on_c, 2, 55, 0
11, 13797, Note_on_c, 2, 48, 70
11, 13857, Note_on_c, 2, 48, 0
11, 13920, Note_on_c, 2, 43, 62
11, 14035, Note_on_c, 2, 48, 55
11, 14036, Note_on_c, 2, 43, 0
11, 14103, Note_on_c, 2, 48, 0
11, 14129, Note_on_c, 2, 48, 49
11, 14159, Note_on_c, 2, 48, 0
11, 14161, Note_on_c, 2, 43, 62
11, 14247, Note_on_c, 2, 43, 0
11, 18480, Note_on_c, 2, 60, 55
11, 18644, Note_on_c, 2, 60, 0
11, 18660, Note_on_c, 2, 60, 62
11, 18697, Note_on_c, 2, 60, 0
11, 18720, Note_on_c, 2, 60, 62
11, 18780, Note_on_c, 2, 48, 70
11, 18781, Note_on_c, 2, 60, 0
11, 18833, Note_on_c, 2, 48, 0
11, 19020, Note_on_c, 2, 60, 70
11, 19057, Note_on_c, 2, 60, 0
11, 19080, Note_on_c, 2, 60, 70
11, 19260, Note_on_c, 2, 48, 70
11, 19264, Note_on_c, 2, 60, 0
11, 19307, Note_on_c, 2, 48, 0
11, 19680, Note_on_c, 2, 52, 70
11, 19740, Note_on_c, 2, 48, 70
11, 19741, Note_on_c, 2, 52, 0
11, 19798, Note_on_c, 2, 48, 0
11, 19800, Note_on_c, 2, 55, 70
11, 19920, Note_on_c, 2, 55, 0
11, 19920, Note_on_c, 2, 52, 62
11, 19957, Note_on_c, 2, 52, 0
11, 19980, Note_on_c, 2, 48, 70
11, 20039, Note_on_c, 2, 48, 0
11, 20040, Note_on_c, 2, 55, 70
11, 20154, Note_on_c, 2, 55, 0
11, 20160, Note_on_c, 2, 60, 55
11, 20201, Note_on_c, 2, 60, 0
11, 20220, Note_on_c, 2, 60, 62
11, 20265, Note_on_c, 2, 60, 0
11, 20280, Note_on_c, 2, 60, 70
11, 20325, Note_on_c, 2, 60, 0
11, 20340, Note_on_c, 2, 60, 62
11, 20355, Note_on_c, 2, 60, 0
11, 20370, Note_on_c, 2, 60, 55
11, 20400, Note_on_c, 2, 55, 78
11, 20401, Note_on_c, 2, 60, 0
11, 20554, Note_on_c, 2, 55, 0
11, 20580, Note_on_c, 2, 55, 78
11, 20640, Note_on_c, 2, 48, 70
11, 20641, Note_on_c, 2, 55, 0
11, 20695, Note_on_c, 2, 48, 0
11, 20700, Note_on_c, 2, 60, 70
11, 20743, Note_on_c, 2, 60, 0
11, 20760, Note_on_c, 2, 60, 62
11, 20803, Note_on_c, 2, 60, 0
11, 20820, Note_on_c, 2, 60, 78
11, 20835, Note_on_c, 2, 60, 0
11, 20850, Note_on_c, 2, 60, 70
11, 20880, Note_on_c, 2, 55, 70
11, 20883, Note_on_c, 2, 60, 0
11, 21039, Note_on_c, 2, 55, 0
11, 21060, Note_on_c, 2, 55, 78
11, 21120, Note_on_c, 2, 48, 70
11, 21121, Note_on_c, 2, 55, 0
11, 21229, Note_on_c, 2, 48, 0
11, 21229, End_track
12, 0, Start_track
12, 0, MIDI_port, 0
12, 0, Title_t, "sequenced by Michael Petri"
12, 0, End_track
0, 0, End_of_file