0, 0, Header, 1, 6, 480
1, 0, Start_track
1, 0, Title_t, "untitled"
1, 0, Time_signature, 4, 2, 24, 8
1, 0, Key_signature, 0, "major"
1, 0, Tempo, 857143
1, 0, End_track
2, 0, Start_track
2, 0, Title_t, "Mozart: Adagio KV617A"
2, 0, End_track
3, 0, Start_track
3, 0, Title_t, "Glasharmonika"
3, 0, Program_c, 0, 48
3, 0, Control_c, 0, 7, 64
3, 2, Note_on_c, 0, 60, 84
3, 2, Note_on_c, 0, 76, 84
3, 2, Note_on_c, 0, 79, 84
3, 480, Note_on_c, 0, 64, 84
3, 512, Note_on_c, 0, 60, 0
3, 960, Note_on_c, 0, 67, 84
3, 992, Note_on_c, 0, 64, 0
3, 1370, Note_on_c, 0, 79, 0
3, 1372, Note_on_c, 0, 76, 0
3, 1440, Note_on_c, 0, 68, 84
3, 1440, Note_on_c, 0, 74, 84
3, 1440, Note_on_c, 0, 77, 84
3, 1475, Note_on_c, 0, 67, 0
3, 1852, Note_on_c, 0, 68, 0
3, 1855, Note_on_c, 0, 74, 0
3, 1860, Note_on_c, 0, 77, 0
3, 1900, Note_on_c, 0, 69, 84
3, 1900, Note_on_c, 0, 74, 84
3, 1900, Note_on_c, 0, 77, 84
3, 2800, Note_on_c, 0, 77, 0
3, 2802, Note_on_c, 0, 74, 0
3, 2860, Note_on_c, 0, 76, 84
3, 2880, Note_on_c, 0, 72, 84
3, 3360, Note_on_c, 0, 67, 84
3, 3377, Note_on_c, 0, 69, 0
3, 3400, Note_on_c, 0, 76, 0
3, 3415, Note_on_c, 0, 72, 0
3, 3780, Note_on_c, 0, 67, 0
3, 3840, Note_on_c, 0, 65, 84
3, 3840, Note_on_c, 0, 74, 84
3, 3840, Note_on_c, 0, 77, 84
3, 4080, Note_on_c, 0, 73, 84
3, 4080, Note_on_c, 0, 76, 84
3, 4117, Note_on_c, 0, 74, 0
3, 4120, Note_on_c, 0, 77, 0
3, 4320, Note_on_c, 0, 74, 84
3, 4320, Note_on_c, 0, 77, 84
3, 4352, Note_on_c, 0, 73, 0
3, 4355, Note_on_c, 0, 76, 0
3, 4560, Note_on_c, 0, 64, 84
3, 4560, Note_on_c, 0, 76, 84
3, 4560, Note_on_c, 0, 79, 84
3, 4592, Note_on_c, 0, 74, 0
3, 4600, Note_on_c, 0, 65, 0
3, 4600, Note_on_c, 0, 77, 0
3, 4800, Note_on_c, 0, 62, 84
3, 4800, Note_on_c, 0, 77, 84
3, 4800, Note_on_c, 0, 81, 84
3, 4832, Note_on_c, 0, 76, 0
3, 4835, Note_on_c, 0, 64, 0
3, 4835, Note_on_c, 0, 79, 0
3, 4977, Note_on_c, 0, 62, 0
3, 5020, Note_on_c, 0, 79, 84
3, 5040, Note_on_c, 0, 64, 84
3, 5040, Note_on_c, 0, 76, 84
3, 5072, Note_on_c, 0, 77, 0
3, 5080, Note_on_c, 0, 81, 0
3, 5212, Note_on_c, 0, 64, 0
3, 5260, Note_on_c, 0, 77, 84
3, 5280, Note_on_c, 0, 65, 84
3, 5280, Note_on_c, 0, 74, 84
3, 5295, Note_on_c, 0, 79, 0
3, 5307, Note_on_c, 0, 76, 0
3, 5457, Note_on_c, 0, 65, 0
3, 5500, Note_on_c, 0, 76, 84
3, 5520, Note_on_c, 0, 66, 84
3, 5520, Note_on_c, 0, 72, 84
3, 5540, Note_on_c, 0, 77, 0
3, 5552, Note_on_c, 0, 74, 0
3, 5680, Note_on_c, 0, 76, 0
3, 5695, Note_on_c, 0, 66, 0
3, 5695, Note_on_c, 0, 72, 0
3, 5740, Note_on_c, 0, 67, 84
3, 5740, Note_on_c, 0, 72, 84
3, 5740, Note_on_c, 0, 76, 84
3, 6640, Note_on_c, 0, 76, 0
3, 6642, Note_on_c, 0, 72, 0
3, 6700, Note_on_c, 0, 74, 84
3, 6720, Note_on_c, 0, 71, 84
3, 6940, Note_on_c, 0, 76, 84
3, 6980, Note_on_c, 0, 74, 0
3, 7125, Note_on_c, 0, 67, 0
3, 7135, Note_on_c, 0, 71, 0
3, 7180, Note_on_c, 0, 77, 84
3, 7215, Note_on_c, 0, 76, 0
3, 7420, Note_on_c, 0, 78, 84
3, 7460, Note_on_c, 0, 77, 0
3, 7660, Note_on_c, 0, 60, 84
3, 7660, Note_on_c, 0, 76, 84
3, 7660, Note_on_c, 0, 79, 84
3, 7695, Note_on_c, 0, 78, 0
3, 8140, Note_on_c, 0, 64, 84
3, 8177, Note_on_c, 0, 60, 0
3, 8620, Note_on_c, 0, 67, 84
3, 8655, Note_on_c, 0, 64, 0
3, 9040, Note_on_c, 0, 79, 0
3, 9040, Note_on_c, 0, 76, 0
3, 9100, Note_on_c, 0, 77, 84
3, 9120, Note_on_c, 0, 68, 84
3, 9120, Note_on_c, 0, 74, 84
3, 9135, Note_on_c, 0, 67, 0
3, 9520, Note_on_c, 0, 77, 0
3, 9532, Note_on_c, 0, 68, 0
3, 9535, Note_on_c, 0, 74, 0
3, 9580, Note_on_c, 0, 69, 84
3, 9580, Note_on_c, 0, 74, 84
3, 9580, Note_on_c, 0, 77, 84
3, 10480, Note_on_c, 0, 77, 0
3, 10482, Note_on_c, 0, 74, 0
3, 10540, Note_on_c, 0, 76, 84
3, 10560, Note_on_c, 0, 72, 84
3, 11020, Note_on_c, 0, 67, 84
3, 11020, Note_on_c, 0, 70, 84
3, 11020, Note_on_c, 0, 73, 84
3, 11057, Note_on_c, 0, 69, 0
3, 11067, Note_on_c, 0, 72, 0
3, 11440, Note_on_c, 0, 67, 0
3, 11440, Note_on_c, 0, 76, 0
3, 11440, Note_on_c, 0, 70, 0
3, 11442, Note_on_c, 0, 73, 0
3, 11500, Note_on_c, 0, 65, 84
3, 11500, Note_on_c, 0, 69, 84
3, 11500, Note_on_c, 0, 74, 84
3, 11500, Note_on_c, 0, 77, 84
3, 11620, Note_on_c, 0, 79, 84
3, 11660, Note_on_c, 0, 77, 0
3, 11740, Note_on_c, 0, 77, 84
3, 11780, Note_on_c, 0, 79, 0
3, 11860, Note_on_c, 0, 76, 84
3, 11900, Note_on_c, 0, 77, 0
3, 11980, Note_on_c, 0, 77, 84
3, 12020, Note_on_c, 0, 76, 0
3, 12100, Note_on_c, 0, 79, 84
3, 12140, Note_on_c, 0, 77, 0
3, 12220, Note_on_c, 0, 81, 84
3, 12260, Note_on_c, 0, 79, 0
3, 12340, Note_on_c, 0, 77, 84
3, 12380, Note_on_c, 0, 81, 0
3, 12397, Note_on_c, 0, 69, 0
3, 12400, Note_on_c, 0, 65, 0
3, 12400, Note_on_c, 0, 74, 0
3, 12460, Note_on_c, 0, 76, 84
3, 12480, Note_on_c, 0, 67, 84
3, 12480, Note_on_c, 0, 72, 84
3, 12500, Note_on_c, 0, 77, 0
3, 12882, Note_on_c, 0, 76, 0
3, 12895, Note_on_c, 0, 72, 0
3, 12940, Note_on_c, 0, 74, 84
3, 12960, Note_on_c, 0, 71, 84
3, 13360, Note_on_c, 0, 74, 0
3, 13372, Note_on_c, 0, 67, 0
3, 13375, Note_on_c, 0, 71, 0
3, 13420, Note_on_c, 0, 60, 84
3, 13420, Note_on_c, 0, 65, 84
3, 13420, Note_on_c, 0, 67, 84
3, 13420, Note_on_c, 0, 71, 84
3, 13420, Note_on_c, 0, 74, 84
3, 14320, Note_on_c, 0, 71, 0
3, 14320, Note_on_c, 0, 67, 0
3, 14320, Note_on_c, 0, 60, 0
3, 14320, Note_on_c, 0, 65, 0
3, 14322, Note_on_c, 0, 74, 0
3, 14400, Note_on_c, 0, 60, 84
3, 14400, Note_on_c, 0, 64, 84
3, 14400, Note_on_c, 0, 67, 84
3, 14400, Note_on_c, 0, 72, 84
3, 15300, Note_on_c, 0, 72, 0
3, 15362, Note_on_c, 0, 60, 84
3, 15362, Note_on_c, 0, 76, 84
3, 15362, Note_on_c, 0, 79, 84
3, 15417, Note_on_c, 0, 60, 0
3, 15420, Note_on_c, 0, 64, 0
3, 15420, Note_on_c, 0, 67, 0
3, 15840, Note_on_c, 0, 64, 84
3, 15872, Note_on_c, 0, 60, 0
3, 16320, Note_on_c, 0, 67, 84
3, 16352, Note_on_c, 0, 64, 0
3, 16730, Note_on_c, 0, 79, 0
3, 16732, Note_on_c, 0, 76, 0
3, 16800, Note_on_c, 0, 68, 84
3, 16800, Note_on_c, 0, 74, 84
3, 16800, Note_on_c, 0, 77, 84
3, 16835, Note_on_c, 0, 67, 0
3, 17212, Note_on_c, 0, 68, 0
3, 17215, Note_on_c, 0, 74, 0
3, 17220, Note_on_c, 0, 77, 0
3, 17260, Note_on_c, 0, 69, 84
3, 17260, Note_on_c, 0, 74, 84
3, 17260, Note_on_c, 0, 77, 84
3, 18160, Note_on_c, 0, 77, 0
3, 18162, Note_on_c, 0, 74, 0
3, 18220, Note_on_c, 0, 76, 84
3, 18240, Note_on_c, 0, 72, 84
3, 18720, Note_on_c, 0, 67, 84
3, 18737, Note_on_c, 0, 69, 0
3, 18760, Note_on_c, 0, 76, 0
3, 18775, Note_on_c, 0, 72, 0
3, 19140, Note_on_c, 0, 67, 0
3, 19200, Note_on_c, 0, 65, 84
3, 19200, Note_on_c, 0, 74, 84
3, 19200, Note_on_c, 0, 77, 84
3, 19440, Note_on_c, 0, 73, 84
3, 19440, Note_on_c, 0, 76, 84
3, 19477, Note_on_c, 0, 74, 0
3, 19480, Note_on_c, 0, 77, 0
3, 19680, Note_on_c, 0, 74, 84
3, 19680, Note_on_c, 0, 77, 84
3, 19712, Note_on_c, 0, 73, 0
3, 19715, Note_on_c, 0, 76, 0
3, 19920, Note_on_c, 0, 64, 84
3, 19920, Note_on_c, 0, 76, 84
3, 19920, Note_on_c, 0, 79, 84
3, 19952, Note_on_c, 0, 74, 0
3, 19960, Note_on_c, 0, 65, 0
3, 19960, Note_on_c, 0, 77, 0
3, 20160, Note_on_c, 0, 62, 84
3, 20160, Note_on_c, 0, 77, 84
3, 20160, Note_on_c, 0, 81, 84
3, 20192, Note_on_c, 0, 76, 0
3, 20195, Note_on_c, 0, 64, 0
3, 20195, Note_on_c, 0, 79, 0
3, 20337, Note_on_c, 0, 62, 0
3, 20380, Note_on_c, 0, 79, 84
3, 20400, Note_on_c, 0, 64, 84
3, 20400, Note_on_c, 0, 76, 84
3, 20432, Note_on_c, 0, 77, 0
3, 20440, Note_on_c, 0, 81, 0
3, 20572, Note_on_c, 0, 64, 0
3, 20620, Note_on_c, 0, 77, 84
3, 20640, Note_on_c, 0, 65, 84
3, 20640, Note_on_c, 0, 74, 84
3, 20655, Note_on_c, 0, 79, 0
3, 20667, Note_on_c, 0, 76, 0
3, 20817, Note_on_c, 0, 65, 0
3, 20860, Note_on_c, 0, 76, 84
3, 20880, Note_on_c, 0, 66, 84
3, 20880, Note_on_c, 0, 72, 84
3, 20900, Note_on_c, 0, 77, 0
3, 20912, Note_on_c, 0, 74, 0
3, 21040, Note_on_c, 0, 76, 0
3, 21055, Note_on_c, 0, 66, 0
3, 21055, Note_on_c, 0, 72, 0
3, 21100, Note_on_c, 0, 67, 84
3, 21100, Note_on_c, 0, 72, 84
3, 21100, Note_on_c, 0, 76, 84
3, 22000, Note_on_c, 0, 76, 0
3, 22002, Note_on_c, 0, 72, 0
3, 22060, Note_on_c, 0, 74, 84
3, 22080, Note_on_c, 0, 71, 84
3, 22300, Note_on_c, 0, 76, 84
3, 22340, Note_on_c, 0, 74, 0
3, 22485, Note_on_c, 0, 67, 0
3, 22495, Note_on_c, 0, 71, 0
3, 22540, Note_on_c, 0, 77, 84
3, 22575, Note_on_c, 0, 76, 0
3, 22780, Note_on_c, 0, 78, 84
3, 22820, Note_on_c, 0, 77, 0
3, 23020, Note_on_c, 0, 60, 84
3, 23020, Note_on_c, 0, 76, 84
3, 23020, Note_on_c, 0, 79, 84
3, 23055, Note_on_c, 0, 78, 0
3, 23500, Note_on_c, 0, 64, 84
3, 23537, Note_on_c, 0, 60, 0
3, 23980, Note_on_c, 0, 67, 84
3, 24015, Note_on_c, 0, 64, 0
3, 24400, Note_on_c, 0, 79, 0
3, 24400, Note_on_c, 0, 76, 0
3, 24460, Note_on_c, 0, 77, 84
3, 24480, Note_on_c, 0, 68, 84
3, 24480, Note_on_c, 0, 74, 84
3, 24495, Note_on_c, 0, 67, 0
3, 24880, Note_on_c, 0, 77, 0
3, 24892, Note_on_c, 0, 68, 0
3, 24895, Note_on_c, 0, 74, 0
3, 24940, Note_on_c, 0, 69, 84
3, 24940, Note_on_c, 0, 74, 84
3, 24940, Note_on_c, 0, 77, 84
3, 25840, Note_on_c, 0, 77, 0
3, 25842, Note_on_c, 0, 74, 0
3, 25900, Note_on_c, 0, 76, 84
3, 25920, Note_on_c, 0, 72, 84
3, 26380, Note_on_c, 0, 67, 84
3, 26380, Note_on_c, 0, 70, 84
3, 26380, Note_on_c, 0, 73, 84
3, 26417, Note_on_c, 0, 69, 0
3, 26427, Note_on_c, 0, 72, 0
3, 26800, Note_on_c, 0, 67, 0
3, 26800, Note_on_c, 0, 76, 0
3, 26800, Note_on_c, 0, 70, 0
3, 26802, Note_on_c, 0, 73, 0
3, 26860, Note_on_c, 0, 65, 84
3, 26860, Note_on_c, 0, 69, 84
3, 26860, Note_on_c, 0, 74, 84
3, 26860, Note_on_c, 0, 77, 84
3, 26980, Note_on_c, 0, 79, 84
3, 27020, Note_on_c, 0, 77, 0
3, 27100, Note_on_c, 0, 77, 84
3, 27140, Note_on_c, 0, 79, 0
3, 27220, Note_on_c, 0, 76, 84
3, 27260, Note_on_c, 0, 77, 0
3, 27340, Note_on_c, 0, 77, 84
3, 27380, Note_on_c, 0, 76, 0
3, 27460, Note_on_c, 0, 79, 84
3, 27500, Note_on_c, 0, 77, 0
3, 27580, Note_on_c, 0, 81, 84
3, 27620, Note_on_c, 0, 79, 0
3, 27700, Note_on_c, 0, 77, 84
3, 27740, Note_on_c, 0, 81, 0
3, 27757, Note_on_c, 0, 69, 0
3, 27760, Note_on_c, 0, 65, 0
3, 27760, Note_on_c, 0, 74, 0
3, 27820, Note_on_c, 0, 76, 84
3, 27840, Note_on_c, 0, 67, 84
3, 27840, Note_on_c, 0, 72, 84
3, 27860, Note_on_c, 0, 77, 0
3, 28242, Note_on_c, 0, 76, 0
3, 28255, Note_on_c, 0, 72, 0
3, 28300, Note_on_c, 0, 74, 84
3, 28320, Note_on_c, 0, 71, 84
3, 28720, Note_on_c, 0, 74, 0
3, 28732, Note_on_c, 0, 67, 0
3, 28735, Note_on_c, 0, 71, 0
3, 28780, Note_on_c, 0, 60, 84
3, 28780, Note_on_c, 0, 65, 84
3, 28780, Note_on_c, 0, 67, 84
3, 28780, Note_on_c, 0, 71, 84
3, 28780, Note_on_c, 0, 74, 84
3, 29680, Note_on_c, 0, 71, 0
3, 29680, Note_on_c, 0, 67, 0
3, 29680, Note_on_c, 0, 60, 0
3, 29680, Note_on_c, 0, 65, 0
3, 29682, Note_on_c, 0, 74, 0
3, 29760, Note_on_c, 0, 60, 84
3, 29760, Note_on_c, 0, 64, 84
3, 29760, Note_on_c, 0, 67, 84
3, 29760, Note_on_c, 0, 72, 84
3, 30660, Note_on_c, 0, 72, 0
3, 30720, Note_on_c, 0, 72, 84
3, 30720, Note_on_c, 0, 76, 84
3, 30720, Note_on_c, 0, 79, 84
3, 30720, Note_on_c, 0, 72, 84
3, 30720, Note_on_c, 0, 76, 84
3, 30720, Note_on_c, 0, 79, 84
3, 30777, Note_on_c, 0, 60, 0
3, 30780, Note_on_c, 0, 64, 0
3, 30780, Note_on_c, 0, 67, 0
3, 31617, Note_on_c, 0, 72, 0
3, 31617, Note_on_c, 0, 72, 0
3, 31680, Note_on_c, 0, 71, 84
3, 31680, Note_on_c, 0, 74, 84
3, 31715, Note_on_c, 0, 76, 0
3, 31715, Note_on_c, 0, 76, 0
3, 31860, Note_on_c, 0, 79, 0
3, 31860, Note_on_c, 0, 79, 0
3, 31920, Note_on_c, 0, 78, 84
3, 32020, Note_on_c, 0, 79, 84
3, 32080, Note_on_c, 0, 78, 0
3, 32087, Note_on_c, 0, 79, 0
3, 32140, Note_on_c, 0, 78, 84
3, 32200, Note_on_c, 0, 78, 0
3, 32260, Note_on_c, 0, 79, 84
3, 32320, Note_on_c, 0, 79, 0
3, 32380, Note_on_c, 0, 81, 84
3, 32440, Note_on_c, 0, 81, 0
3, 32500, Note_on_c, 0, 79, 84
3, 32560, Note_on_c, 0, 79, 0
3, 32580, Note_on_c, 0, 71, 0
3, 32582, Note_on_c, 0, 74, 0
3, 32620, Note_on_c, 0, 69, 84
3, 32620, Note_on_c, 0, 72, 84
3, 32620, Note_on_c, 0, 78, 84
3, 33100, Note_on_c, 0, 84, 84
3, 33140, Note_on_c, 0, 78, 0
3, 33517, Note_on_c, 0, 72, 0
3, 33520, Note_on_c, 0, 69, 0
3, 33580, Note_on_c, 0, 74, 84
3, 33600, Note_on_c, 0, 67, 84
3, 34002, Note_on_c, 0, 84, 0
3, 34060, Note_on_c, 0, 83, 84
3, 34480, Note_on_c, 0, 74, 0
3, 34485, Note_on_c, 0, 83, 0
3, 34540, Note_on_c, 0, 73, 84
3, 34540, Note_on_c, 0, 76, 84
3, 34540, Note_on_c, 0, 82, 84
3, 34615, Note_on_c, 0, 67, 0
3, 35200, Note_on_c, 0, 82, 0
3, 35260, Note_on_c, 0, 84, 84
3, 35320, Note_on_c, 0, 84, 0
3, 35380, Note_on_c, 0, 82, 84
3, 35440, Note_on_c, 0, 82, 0
3, 35500, Note_on_c, 0, 81, 84
3, 35922, Note_on_c, 0, 81, 0
3, 35980, Note_on_c, 0, 79, 84
3, 36400, Note_on_c, 0, 79, 0
3, 36400, Note_on_c, 0, 76, 0
3, 36400, Note_on_c, 0, 73, 0
3, 36460, Note_on_c, 0, 74, 84
3, 36460, Note_on_c, 0, 78, 84
3, 36700, Note_on_c, 0, 79, 84
3, 36740, Note_on_c, 0, 78, 0
3, 36877, Note_on_c, 0, 74, 0
3, 36940, Note_on_c, 0, 81, 84
3, 36980, Note_on_c, 0, 79, 0
3, 37180, Note_on_c, 0, 82, 84
3, 37220, Note_on_c, 0, 81, 0
3, 37420, Note_on_c, 0, 83, 84
3, 37457, Note_on_c, 0, 82, 0
3, 37660, Note_on_c, 0, 84, 84
3, 37700, Note_on_c, 0, 83, 0
3, 37900, Note_on_c, 0, 85, 84
3, 37940, Note_on_c, 0, 84, 0
3, 38140, Note_on_c, 0, 86, 84
3, 38180, Note_on_c, 0, 85, 0
3, 38380, Note_on_c, 0, 76, 84
3, 38380, Note_on_c, 0, 79, 84
3, 38380, Note_on_c, 0, 86, 84
3, 38417, Note_on_c, 0, 86, 0
3, 38620, Note_on_c, 0, 88, 84
3, 38660, Note_on_c, 0, 86, 0
3, 38740, Note_on_c, 0, 86, 84
3, 38780, Note_on_c, 0, 88, 0
3, 38880, Note_on_c, 0, 84, 84
3, 38902, Note_on_c, 0, 86, 0
3, 39045, Note_on_c, 0, 76, 0
3, 39045, Note_on_c, 0, 79, 0
3, 39120, Note_on_c, 0, 74, 84
3, 39120, Note_on_c, 0, 78, 84
3, 39120, Note_on_c, 0, 83, 84
3, 39160, Note_on_c, 0, 84, 0
3, 39292, Note_on_c, 0, 78, 0
3, 39295, Note_on_c, 0, 74, 0
3, 39340, Note_on_c, 0, 83, 84
3, 39360, Note_on_c, 0, 72, 84
3, 39360, Note_on_c, 0, 76, 84
3, 39377, Note_on_c, 0, 83, 0
3, 39580, Note_on_c, 0, 81, 84
3, 39640, Note_on_c, 0, 83, 0
3, 39772, Note_on_c, 0, 72, 0
3, 39775, Note_on_c, 0, 76, 0
3, 39820, Note_on_c, 0, 71, 84
3, 39820, Note_on_c, 0, 74, 84
3, 39860, Note_on_c, 0, 81, 0
3, 40060, Note_on_c, 0, 79, 84
3, 40240, Note_on_c, 0, 74, 0
3, 40240, Note_on_c, 0, 71, 0
3, 40300, Note_on_c, 0, 69, 84
3, 40300, Note_on_c, 0, 72, 84
3, 40300, Note_on_c, 0, 79, 84
3, 40337, Note_on_c, 0, 79, 0
3, 40540, Note_on_c, 0, 81, 84
3, 40580, Note_on_c, 0, 79, 0
3, 40660, Note_on_c, 0, 79, 84
3, 40700, Note_on_c, 0, 81, 0
3, 40800, Note_on_c, 0, 78, 84
3, 40822, Note_on_c, 0, 79, 0
3, 40965, Note_on_c, 0, 69, 0
3, 40965, Note_on_c, 0, 72, 0
3, 41040, Note_on_c, 0, 67, 84
3, 41040, Note_on_c, 0, 71, 84
3, 41040, Note_on_c, 0, 76, 84
3, 41080, Note_on_c, 0, 78, 0
3, 41212, Note_on_c, 0, 71, 0
3, 41215, Note_on_c, 0, 67, 0
3, 41260, Note_on_c, 0, 76, 84
3, 41280, Note_on_c, 0, 66, 84
3, 41280, Note_on_c, 0, 69, 84
3, 41297, Note_on_c, 0, 76, 0
3, 41500, Note_on_c, 0, 74, 84
3, 41560, Note_on_c, 0, 76, 0
3, 41692, Note_on_c, 0, 69, 0
3, 41692, Note_on_c, 0, 66, 0
3, 41740, Note_on_c, 0, 63, 84
3, 41740, Note_on_c, 0, 66, 84
3, 41780, Note_on_c, 0, 74, 0
3, 41980, Note_on_c, 0, 72, 84
3, 42160, Note_on_c, 0, 66, 0
3, 42160, Note_on_c, 0, 63, 0
3, 42162, Note_on_c, 0, 72, 0
3, 42220, Note_on_c, 0, 64, 84
3, 42220, Note_on_c, 0, 67, 84
3, 42220, Note_on_c, 0, 71, 84
3, 42460, Note_on_c, 0, 79, 84
3, 42500, Note_on_c, 0, 71, 0
3, 42637, Note_on_c, 0, 67, 0
3, 42640, Note_on_c, 0, 64, 0
3, 42700, Note_on_c, 0, 76, 84
3, 42720, Note_on_c, 0, 60, 84
3, 42740, Note_on_c, 0, 79, 0
3, 42940, Note_on_c, 0, 81, 84
3, 42980, Note_on_c, 0, 76, 0
3, 43132, Note_on_c, 0, 60, 0
3, 43180, Note_on_c, 0, 81, 84
3, 43200, Note_on_c, 0, 62, 84
3, 43200, Note_on_c, 0, 71, 84
3, 43200, Note_on_c, 0, 74, 84
3, 43217, Note_on_c, 0, 81, 0
3, 43360, Note_on_c, 0, 81, 0
3, 43420, Note_on_c, 0, 79, 84
3, 43612, Note_on_c, 0, 74, 0
3, 43612, Note_on_c, 0, 62, 0
3, 43615, Note_on_c, 0, 71, 0
3, 43660, Note_on_c, 0, 69, 84
3, 43680, Note_on_c, 0, 62, 84
3, 43680, Note_on_c, 0, 72, 84
3, 43840, Note_on_c, 0, 79, 0
3, 43900, Note_on_c, 0, 78, 84
3, 44080, Note_on_c, 0, 78, 0
3, 44082, Note_on_c, 0, 69, 0
3, 44092, Note_on_c, 0, 62, 0
3, 44095, Note_on_c, 0, 72, 0
3, 44140, Note_on_c, 0, 67, 84
3, 44140, Note_on_c, 0, 72, 84
3, 44140, Note_on_c, 0, 78, 84
3, 44140, Note_on_c, 0, 81, 84
3, 45040, Note_on_c, 0, 81, 0
3, 45040, Note_on_c, 0, 67, 0
3, 45040, Note_on_c, 0, 72, 0
3, 45042, Note_on_c, 0, 78, 0
3, 45120, Note_on_c, 0, 67, 84
3, 45120, Note_on_c, 0, 71, 84
3, 45120, Note_on_c, 0, 79, 84
3, 45540, Note_on_c, 0, 79, 0
3, 45540, Note_on_c, 0, 71, 0
3, 45540, Note_on_c, 0, 67, 0
3, 45600, Note_on_c, 0, 80, 84
3, 46020, Note_on_c, 0, 80, 0
3, 46080, Note_on_c, 0, 81, 84
3, 46560, Note_on_c, 0, 73, 84
3, 46560, Note_on_c, 0, 79, 84
3, 46975, Note_on_c, 0, 73, 0
3, 46980, Note_on_c, 0, 79, 0
3, 47040, Note_on_c, 0, 74, 84
3, 47040, Note_on_c, 0, 78, 84
3, 47220, Note_on_c, 0, 81, 0
3, 47280, Note_on_c, 0, 83, 84
3, 47460, Note_on_c, 0, 74, 0
3, 47462, Note_on_c, 0, 78, 0
3, 47520, Note_on_c, 0, 85, 84
3, 47560, Note_on_c, 0, 83, 0
3, 47700, Note_on_c, 0, 85, 0
3, 47760, Note_on_c, 0, 86, 84
3, 47940, Note_on_c, 0, 86, 0
3, 48000, Note_on_c, 0, 79, 84
3, 48480, Note_on_c, 0, 71, 84
3, 48480, Note_on_c, 0, 77, 84
3, 48895, Note_on_c, 0, 71, 0
3, 48900, Note_on_c, 0, 77, 0
3, 48960, Note_on_c, 0, 72, 84
3, 48960, Note_on_c, 0, 76, 84
3, 49140, Note_on_c, 0, 79, 0
3, 49200, Note_on_c, 0, 81, 84
3, 49380, Note_on_c, 0, 72, 0
3, 49382, Note_on_c, 0, 76, 0
3, 49440, Note_on_c, 0, 83, 84
3, 49480, Note_on_c, 0, 81, 0
3, 49680, Note_on_c, 0, 84, 84
3, 49720, Note_on_c, 0, 83, 0
3, 49920, Note_on_c, 0, 67, 84
3, 49920, Note_on_c, 0, 72, 84
3, 49920, Note_on_c, 0, 76, 84
3, 49920, Note_on_c, 0, 78, 84
3, 49957, Note_on_c, 0, 84, 0
3, 50815, Note_on_c, 0, 72, 0
3, 50817, Note_on_c, 0, 76, 0
3, 50860, Note_on_c, 0, 74, 84
3, 50880, Note_on_c, 0, 71, 84
3, 51282, Note_on_c, 0, 74, 0
3, 51295, Note_on_c, 0, 71, 0
3, 51340, Note_on_c, 0, 72, 84
3, 51360, Note_on_c, 0, 69, 84
3, 51760, Note_on_c, 0, 72, 0
3, 51775, Note_on_c, 0, 69, 0
3, 51780, Note_on_c, 0, 67, 0
3, 51782, Note_on_c, 0, 78, 0
3, 51820, Note_on_c, 0, 67, 84
3, 51820, Note_on_c, 0, 71, 84
3, 51820, Note_on_c, 0, 74, 84
3, 51820, Note_on_c, 0, 77, 84
3, 52240, Note_on_c, 0, 74, 0
3, 52240, Note_on_c, 0, 71, 0
3, 52357, Note_on_c, 0, 67, 0
3, 52480, Note_on_c, 0, 77, 0
3, 52560, Note_on_c, 0, 73, 84
3, 52740, Note_on_c, 0, 73, 0
3, 52800, Note_on_c, 0, 74, 84
3, 53040, Note_on_c, 0, 76, 84
3, 53080, Note_on_c, 0, 74, 0
3, 53280, Note_on_c, 0, 77, 84
3, 53320, Note_on_c, 0, 76, 0
3, 53520, Note_on_c, 0, 78, 84
3, 53560, Note_on_c, 0, 77, 0
3, 53760, Note_on_c, 0, 60, 84
3, 53760, Note_on_c, 0, 76, 84
3, 53760, Note_on_c, 0, 79, 84
3, 53797, Note_on_c, 0, 78, 0
3, 54220, Note_on_c, 0, 64, 84
3, 54277, Note_on_c, 0, 60, 0
3, 54700, Note_on_c, 0, 67, 84
3, 54737, Note_on_c, 0, 64, 0
3, 55122, Note_on_c, 0, 67, 0
3, 55140, Note_on_c, 0, 76, 0
3, 55142, Note_on_c, 0, 79, 0
3, 55180, Note_on_c, 0, 68, 84
3, 55180, Note_on_c, 0, 74, 84
3, 55180, Note_on_c, 0, 77, 84
3, 55600, Note_on_c, 0, 77, 0
3, 55600, Note_on_c, 0, 74, 0
3, 55600, Note_on_c, 0, 68, 0
3, 55660, Note_on_c, 0, 69, 84
3, 55660, Note_on_c, 0, 74, 84
3, 55660, Note_on_c, 0, 77, 84
3, 56080, Note_on_c, 0, 77, 0
3, 56140, Note_on_c, 0, 76, 84
3, 56260, Note_on_c, 0, 77, 84
3, 56300, Note_on_c, 0, 76, 0
3, 56380, Note_on_c, 0, 79, 84
3, 56420, Note_on_c, 0, 77, 0
3, 56500, Note_on_c, 0, 77, 84
3, 56540, Note_on_c, 0, 79, 0
3, 56620, Note_on_c, 0, 76, 84
3, 56640, Note_on_c, 0, 72, 84
3, 56655, Note_on_c, 0, 74, 0
3, 56660, Note_on_c, 0, 77, 0
3, 57045, Note_on_c, 0, 69, 0
3, 57100, Note_on_c, 0, 67, 84
3, 57140, Note_on_c, 0, 76, 0
3, 57172, Note_on_c, 0, 72, 0
3, 57520, Note_on_c, 0, 67, 0
3, 57580, Note_on_c, 0, 65, 84
3, 57580, Note_on_c, 0, 74, 84
3, 57580, Note_on_c, 0, 77, 84
3, 57757, Note_on_c, 0, 74, 0
3, 57760, Note_on_c, 0, 77, 0
3, 57820, Note_on_c, 0, 67, 84
3, 57820, Note_on_c, 0, 73, 84
3, 57820, Note_on_c, 0, 76, 84
3, 57857, Note_on_c, 0, 65, 0
3, 58000, Note_on_c, 0, 73, 0
3, 58002, Note_on_c, 0, 76, 0
3, 58060, Note_on_c, 0, 77, 84
3, 58080, Note_on_c, 0, 65, 84
3, 58080, Note_on_c, 0, 74, 84
3, 58097, Note_on_c, 0, 67, 0
3, 58240, Note_on_c, 0, 77, 0
3, 58252, Note_on_c, 0, 74, 0
3, 58300, Note_on_c, 0, 79, 84
3, 58320, Note_on_c, 0, 64, 84
3, 58320, Note_on_c, 0, 76, 84
3, 58350, Note_on_c, 0, 65, 0
3, 58480, Note_on_c, 0, 79, 0
3, 58495, Note_on_c, 0, 76, 0
3, 58540, Note_on_c, 0, 81, 84
3, 58560, Note_on_c, 0, 62, 84
3, 58560, Note_on_c, 0, 77, 84
3, 58590, Note_on_c, 0, 64, 0
3, 58780, Note_on_c, 0, 79, 84
3, 58800, Note_on_c, 0, 64, 84
3, 58800, Note_on_c, 0, 76, 84
3, 58820, Note_on_c, 0, 81, 0
3, 58832, Note_on_c, 0, 77, 0
3, 58832, Note_on_c, 0, 62, 0
3, 59020, Note_on_c, 0, 77, 84
3, 59040, Note_on_c, 0, 65, 84
3, 59040, Note_on_c, 0, 74, 84
3, 59060, Note_on_c, 0, 79, 0
3, 59072, Note_on_c, 0, 76, 0
3, 59075, Note_on_c, 0, 64, 0
3, 59260, Note_on_c, 0, 66, 84
3, 59260, Note_on_c, 0, 72, 84
3, 59260, Note_on_c, 0, 76, 84
3, 59300, Note_on_c, 0, 77, 0
3, 59312, Note_on_c, 0, 74, 0
3, 59312, Note_on_c, 0, 65, 0
3, 59440, Note_on_c, 0, 76, 0
3, 59440, Note_on_c, 0, 72, 0
3, 59500, Note_on_c, 0, 76, 84
3, 59520, Note_on_c, 0, 67, 84
3, 59520, Note_on_c, 0, 72, 84
3, 59535, Note_on_c, 0, 66, 0
3, 59920, Note_on_c, 0, 76, 0
3, 59980, Note_on_c, 0, 74, 84
3, 60100, Note_on_c, 0, 76, 84
3, 60140, Note_on_c, 0, 74, 0
3, 60220, Note_on_c, 0, 77, 84
3, 60260, Note_on_c, 0, 76, 0
3, 60340, Note_on_c, 0, 76, 84
3, 60380, Note_on_c, 0, 77, 0
3, 60412, Note_on_c, 0, 72, 0
3, 60415, Note_on_c, 0, 67, 0
3, 60460, Note_on_c, 0, 74, 84
3, 60480, Note_on_c, 0, 67, 84
3, 60480, Note_on_c, 0, 71, 84
3, 60497, Note_on_c, 0, 76, 0
3, 60700, Note_on_c, 0, 76, 84
3, 60740, Note_on_c, 0, 74, 0
3, 60895, Note_on_c, 0, 71, 0
3, 60940, Note_on_c, 0, 77, 84
3, 60980, Note_on_c, 0, 76, 0
3, 61012, Note_on_c, 0, 67, 0
3, 61180, Note_on_c, 0, 78, 84
3, 61220, Note_on_c, 0, 77, 0
3, 61420, Note_on_c, 0, 60, 84
3, 61420, Note_on_c, 0, 79, 84
3, 61457, Note_on_c, 0, 78, 0
3, 61660, Note_on_c, 0, 83, 84
3, 61700, Note_on_c, 0, 79, 0
3, 61780, Note_on_c, 0, 81, 84
3, 61820, Note_on_c, 0, 83, 0
3, 61900, Note_on_c, 0, 84, 84
3, 61920, Note_on_c, 0, 64, 84
3, 61937, Note_on_c, 0, 60, 0
3, 61942, Note_on_c, 0, 81, 0
3, 62020, Note_on_c, 0, 83, 84
3, 62060, Note_on_c, 0, 84, 0
3, 62140, Note_on_c, 0, 86, 84
3, 62180, Note_on_c, 0, 83, 0
3, 62260, Note_on_c, 0, 84, 84
3, 62300, Note_on_c, 0, 86, 0
3, 62332, Note_on_c, 0, 64, 0
3, 62380, Note_on_c, 0, 79, 84
3, 62400, Note_on_c, 0, 67, 84
3, 62400, Note_on_c, 0, 76, 84
3, 62417, Note_on_c, 0, 84, 0
3, 62800, Note_on_c, 0, 79, 0
3, 62812, Note_on_c, 0, 67, 0
3, 62815, Note_on_c, 0, 76, 0
3, 62860, Note_on_c, 0, 68, 84
3, 62860, Note_on_c, 0, 74, 84
3, 62860, Note_on_c, 0, 77, 84
3, 63280, Note_on_c, 0, 77, 0
3, 63280, Note_on_c, 0, 74, 0
3, 63280, Note_on_c, 0, 68, 0
3, 63340, Note_on_c, 0, 69, 84
3, 63340, Note_on_c, 0, 74, 84
3, 63340, Note_on_c, 0, 77, 84
3, 63820, Note_on_c, 0, 70, 84
3, 63857, Note_on_c, 0, 69, 0
3, 64240, Note_on_c, 0, 77, 0
3, 64242, Note_on_c, 0, 74, 0
3, 64300, Note_on_c, 0, 76, 84
3, 64320, Note_on_c, 0, 73, 84
3, 64722, Note_on_c, 0, 70, 0
3, 64780, Note_on_c, 0, 69, 84
3, 64955, Note_on_c, 0, 69, 0
3, 65020, Note_on_c, 0, 67, 84
3, 65200, Note_on_c, 0, 76, 0
3, 65205, Note_on_c, 0, 67, 0
3, 65215, Note_on_c, 0, 73, 0
3, 65260, Note_on_c, 0, 65, 84
3, 65260, Note_on_c, 0, 69, 84
3, 65260, Note_on_c, 0, 74, 84
3, 65260, Note_on_c, 0, 77, 84
3, 65380, Note_on_c, 0, 79, 84
3, 65420, Note_on_c, 0, 77, 0
3, 65500, Note_on_c, 0, 77, 84
3, 65540, Note_on_c, 0, 79, 0
3, 65620, Note_on_c, 0, 76, 84
3, 65660, Note_on_c, 0, 77, 0
3, 65740, Note_on_c, 0, 77, 84
3, 65782, Note_on_c, 0, 76, 0
3, 65860, Note_on_c, 0, 79, 84
3, 65900, Note_on_c, 0, 77, 0
3, 65980, Note_on_c, 0, 81, 84
3, 66020, Note_on_c, 0, 79, 0
3, 66100, Note_on_c, 0, 77, 84
3, 66140, Note_on_c, 0, 81, 0
3, 66157, Note_on_c, 0, 69, 0
3, 66157, Note_on_c, 0, 65, 0
3, 66160, Note_on_c, 0, 74, 0
3, 66220, Note_on_c, 0, 76, 84
3, 66240, Note_on_c, 0, 67, 84
3, 66240, Note_on_c, 0, 72, 84
3, 66257, Note_on_c, 0, 77, 0
3, 66340, Note_on_c, 0, 77, 84
3, 66380, Note_on_c, 0, 76, 0
3, 66460, Note_on_c, 0, 78, 84
3, 66500, Note_on_c, 0, 77, 0
3, 66580, Note_on_c, 0, 79, 84
3, 66620, Note_on_c, 0, 78, 0
3, 66700, Note_on_c, 0, 79, 84
3, 66720, Note_on_c, 0, 71, 84
3, 66740, Note_on_c, 0, 79, 0
3, 66752, Note_on_c, 0, 72, 0
3, 66762, Note_on_c, 0, 79, 0
3, 66820, Note_on_c, 0, 77, 84
3, 66875, Note_on_c, 0, 77, 0
3, 66940, Note_on_c, 0, 76, 84
3, 67000, Note_on_c, 0, 76, 0
3, 67060, Note_on_c, 0, 74, 84
3, 67120, Note_on_c, 0, 74, 0
3, 67135, Note_on_c, 0, 71, 0
3, 67137, Note_on_c, 0, 67, 0
3, 67180, Note_on_c, 0, 60, 84
3, 67180, Note_on_c, 0, 65, 84
3, 67180, Note_on_c, 0, 67, 84
3, 67180, Note_on_c, 0, 74, 84
3, 67180, Note_on_c, 0, 74, 84
3, 67832, Note_on_c, 0, 74, 0
3, 67920, Note_on_c, 0, 76, 84
3, 68040, Note_on_c, 0, 74, 84
3, 68077, Note_on_c, 0, 60, 0
3, 68080, Note_on_c, 0, 76, 0
3, 68080, Note_on_c, 0, 65, 0
3, 68080, Note_on_c, 0, 67, 0
3, 68102, Note_on_c, 0, 74, 0
3, 68160, Note_on_c, 0, 60, 84
3, 68160, Note_on_c, 0, 64, 84
3, 68160, Note_on_c, 0, 67, 84
3, 68160, Note_on_c, 0, 72, 84
3, 68177, Note_on_c, 0, 74, 0
3, 69120, Note_on_c, 0, 72, 84
3, 69120, Note_on_c, 0, 76, 84
3, 69120, Note_on_c, 0, 79, 84
3, 69120, Note_on_c, 0, 72, 84
3, 69120, Note_on_c, 0, 76, 84
3, 69120, Note_on_c, 0, 79, 84
3, 69122, Note_on_c, 0, 67, 0
3, 69122, Note_on_c, 0, 72, 0
3, 69122, Note_on_c, 0, 60, 0
3, 69122, Note_on_c, 0, 64, 0
3, 70017, Note_on_c, 0, 72, 0
3, 70017, Note_on_c, 0, 72, 0
3, 70080, Note_on_c, 0, 71, 84
3, 70080, Note_on_c, 0, 74, 84
3, 70115, Note_on_c, 0, 76, 0
3, 70115, Note_on_c, 0, 76, 0
3, 70260, Note_on_c, 0, 79, 0
3, 70260, Note_on_c, 0, 79, 0
3, 70320, Note_on_c, 0, 78, 84
3, 70420, Note_on_c, 0, 79, 84
3, 70480, Note_on_c, 0, 78, 0
3, 70487, Note_on_c, 0, 79, 0
3, 70540, Note_on_c, 0, 78, 84
3, 70600, Note_on_c, 0, 78, 0
3, 70660, Note_on_c, 0, 79, 84
3, 70720, Note_on_c, 0, 79, 0
3, 70780, Note_on_c, 0, 81, 84
3, 70840, Note_on_c, 0, 81, 0
3, 70900, Note_on_c, 0, 79, 84
3, 70960, Note_on_c, 0, 79, 0
3, 70980, Note_on_c, 0, 71, 0
3, 70982, Note_on_c, 0, 74, 0
3, 71020, Note_on_c, 0, 69, 84
3, 71020, Note_on_c, 0, 72, 84
3, 71020, Note_on_c, 0, 78, 84
3, 71500, Note_on_c, 0, 84, 84
3, 71540, Note_on_c, 0, 78, 0
3, 71917, Note_on_c, 0, 72, 0
3, 71920, Note_on_c, 0, 69, 0
3, 71980, Note_on_c, 0, 74, 84
3, 72000, Note_on_c, 0, 67, 84
3, 72402, Note_on_c, 0, 84, 0
3, 72460, Note_on_c, 0, 83, 84
3, 72880, Note_on_c, 0, 74, 0
3, 72885, Note_on_c, 0, 83, 0
3, 72940, Note_on_c, 0, 73, 84
3, 72940, Note_on_c, 0, 76, 84
3, 72940, Note_on_c, 0, 82, 84
3, 73015, Note_on_c, 0, 67, 0
3, 73600, Note_on_c, 0, 82, 0
3, 73660, Note_on_c, 0, 84, 84
3, 73720, Note_on_c, 0, 84, 0
3, 73780, Note_on_c, 0, 82, 84
3, 73840, Note_on_c, 0, 82, 0
3, 73900, Note_on_c, 0, 81, 84
3, 74322, Note_on_c, 0, 81, 0
3, 74380, Note_on_c, 0, 79, 84
3, 74800, Note_on_c, 0, 79, 0
3, 74800, Note_on_c, 0, 76, 0
3, 74800, Note_on_c, 0, 73, 0
3, 74860, Note_on_c, 0, 74, 84
3, 74860, Note_on_c, 0, 78, 84
3, 75100, Note_on_c, 0, 79, 84
3, 75140, Note_on_c, 0, 78, 0
3, 75277, Note_on_c, 0, 74, 0
3, 75340, Note_on_c, 0, 81, 84
3, 75380, Note_on_c, 0, 79, 0
3, 75580, Note_on_c, 0, 82, 84
3, 75620, Note_on_c, 0, 81, 0
3, 75820, Note_on_c, 0, 83, 84
3, 75857, Note_on_c, 0, 82, 0
3, 76060, Note_on_c, 0, 84, 84
3, 76100, Note_on_c, 0, 83, 0
3, 76300, Note_on_c, 0, 85, 84
3, 76340, Note_on_c, 0, 84, 0
3, 76540, Note_on_c, 0, 86, 84
3, 76580, Note_on_c, 0, 85, 0
3, 76780, Note_on_c, 0, 76, 84
3, 76780, Note_on_c, 0, 79, 84
3, 76780, Note_on_c, 0, 86, 84
3, 76817, Note_on_c, 0, 86, 0
3, 77020, Note_on_c, 0, 88, 84
3, 77060, Note_on_c, 0, 86, 0
3, 77140, Note_on_c, 0, 86, 84
3, 77180, Note_on_c, 0, 88, 0
3, 77280, Note_on_c, 0, 84, 84
3, 77302, Note_on_c, 0, 86, 0
3, 77445, Note_on_c, 0, 76, 0
3, 77445, Note_on_c, 0, 79, 0
3, 77520, Note_on_c, 0, 74, 84
3, 77520, Note_on_c, 0, 78, 84
3, 77520, Note_on_c, 0, 83, 84
3, 77560, Note_on_c, 0, 84, 0
3, 77692, Note_on_c, 0, 78, 0
3, 77695, Note_on_c, 0, 74, 0
3, 77740, Note_on_c, 0, 83, 84
3, 77760, Note_on_c, 0, 72, 84
3, 77760, Note_on_c, 0, 76, 84
3, 77777, Note_on_c, 0, 83, 0
3, 77980, Note_on_c, 0, 81, 84
3, 78040, Note_on_c, 0, 83, 0
3, 78172, Note_on_c, 0, 72, 0
3, 78175, Note_on_c, 0, 76, 0
3, 78220, Note_on_c, 0, 71, 84
3, 78220, Note_on_c, 0, 74, 84
3, 78260, Note_on_c, 0, 81, 0
3, 78460, Note_on_c, 0, 79, 84
3, 78640, Note_on_c, 0, 74, 0
3, 78640, Note_on_c, 0, 71, 0
3, 78700, Note_on_c, 0, 69, 84
3, 78700, Note_on_c, 0, 72, 84
3, 78700, Note_on_c, 0, 79, 84
3, 78737, Note_on_c, 0, 79, 0
3, 78940, Note_on_c, 0, 81, 84
3, 78980, Note_on_c, 0, 79, 0
3, 79060, Note_on_c, 0, 79, 84
3, 79100, Note_on_c, 0, 81, 0
3, 79200, Note_on_c, 0, 78, 84
3, 79222, Note_on_c, 0, 79, 0
3, 79365, Note_on_c, 0, 69, 0
3, 79365, Note_on_c, 0, 72, 0
3, 79440, Note_on_c, 0, 67, 84
3, 79440, Note_on_c, 0, 71, 84
3, 79440, Note_on_c, 0, 76, 84
3, 79480, Note_on_c, 0, 78, 0
3, 79612, Note_on_c, 0, 71, 0
3, 79615, Note_on_c, 0, 67, 0
3, 79660, Note_on_c, 0, 76, 84
3, 79680, Note_on_c, 0, 66, 84
3, 79680, Note_on_c, 0, 69, 84
3, 79697, Note_on_c, 0, 76, 0
3, 79900, Note_on_c, 0, 74, 84
3, 79960, Note_on_c, 0, 76, 0
3, 80092, Note_on_c, 0, 69, 0
3, 80092, Note_on_c, 0, 66, 0
3, 80140, Note_on_c, 0, 63, 84
3, 80140, Note_on_c, 0, 66, 84
3, 80180, Note_on_c, 0, 74, 0
3, 80380, Note_on_c, 0, 72, 84
3, 80560, Note_on_c, 0, 66, 0
3, 80560, Note_on_c, 0, 63, 0
3, 80562, Note_on_c, 0, 72, 0
3, 80620, Note_on_c, 0, 64, 84
3, 80620, Note_on_c, 0, 67, 84
3, 80620, Note_on_c, 0, 71, 84
3, 80860, Note_on_c, 0, 79, 84
3, 80900, Note_on_c, 0, 71, 0
3, 81037, Note_on_c, 0, 67, 0
3, 81040, Note_on_c, 0, 64, 0
3, 81100, Note_on_c, 0, 76, 84
3, 81120, Note_on_c, 0, 60, 84
3, 81140, Note_on_c, 0, 79, 0
3, 81340, Note_on_c, 0, 81, 84
3, 81380, Note_on_c, 0, 76, 0
3, 81532, Note_on_c, 0, 60, 0
3, 81580, Note_on_c, 0, 81, 84
3, 81600, Note_on_c, 0, 62, 84
3, 81600, Note_on_c, 0, 71, 84
3, 81600, Note_on_c, 0, 74, 84
3, 81617, Note_on_c, 0, 81, 0
3, 81760, Note_on_c, 0, 81, 0
3, 81820, Note_on_c, 0, 79, 84
3, 82012, Note_on_c, 0, 74, 0
3, 82012, Note_on_c, 0, 62, 0
3, 82015, Note_on_c, 0, 71, 0
3, 82060, Note_on_c, 0, 69, 84
3, 82080, Note_on_c, 0, 62, 84
3, 82080, Note_on_c, 0, 72, 84
3, 82240, Note_on_c, 0, 79, 0
3, 82300, Note_on_c, 0, 78, 84
3, 82480, Note_on_c, 0, 78, 0
3, 82482, Note_on_c, 0, 69, 0
3, 82492, Note_on_c, 0, 62, 0
3, 82495, Note_on_c, 0, 72, 0
3, 82540, Note_on_c, 0, 67, 84
3, 82540, Note_on_c, 0, 72, 84
3, 82540, Note_on_c, 0, 78, 84
3, 82540, Note_on_c, 0, 81, 84
3, 83440, Note_on_c, 0, 81, 0
3, 83440, Note_on_c, 0, 67, 0
3, 83440, Note_on_c, 0, 72, 0
3, 83442, Note_on_c, 0, 78, 0
3, 83520, Note_on_c, 0, 67, 84
3, 83520, Note_on_c, 0, 71, 84
3, 83520, Note_on_c, 0, 79, 84
3, 83940, Note_on_c, 0, 79, 0
3, 83940, Note_on_c, 0, 71, 0
3, 83940, Note_on_c, 0, 67, 0
3, 84000, Note_on_c, 0, 80, 84
3, 84420, Note_on_c, 0, 80, 0
3, 84480, Note_on_c, 0, 81, 84
3, 84960, Note_on_c, 0, 73, 84
3, 84960, Note_on_c, 0, 79, 84
3, 85375, Note_on_c, 0, 73, 0
3, 85380, Note_on_c, 0, 79, 0
3, 85440, Note_on_c, 0, 74, 84
3, 85440, Note_on_c, 0, 78, 84
3, 85620, Note_on_c, 0, 81, 0
3, 85680, Note_on_c, 0, 83, 84
3, 85860, Note_on_c, 0, 74, 0
3, 85862, Note_on_c, 0, 78, 0
3, 85920, Note_on_c, 0, 85, 84
3, 85960, Note_on_c, 0, 83, 0
3, 86100, Note_on_c, 0, 85, 0
3, 86160, Note_on_c, 0, 86, 84
3, 86340, Note_on_c, 0, 86, 0
3, 86400, Note_on_c, 0, 79, 84
3, 86880, Note_on_c, 0, 71, 84
3, 86880, Note_on_c, 0, 77, 84
3, 87295, Note_on_c, 0, 71, 0
3, 87300, Note_on_c, 0, 77, 0
3, 87360, Note_on_c, 0, 72, 84
3, 87360, Note_on_c, 0, 76, 84
3, 87540, Note_on_c, 0, 79, 0
3, 87600, Note_on_c, 0, 81, 84
3, 87780, Note_on_c, 0, 72, 0
3, 87782, Note_on_c, 0, 76, 0
3, 87840, Note_on_c, 0, 83, 84
3, 87880, Note_on_c, 0, 81, 0
3, 88080, Note_on_c, 0, 84, 84
3, 88120, Note_on_c, 0, 83, 0
3, 88320, Note_on_c, 0, 67, 84
3, 88320, Note_on_c, 0, 72, 84
3, 88320, Note_on_c, 0, 76, 84
3, 88320, Note_on_c, 0, 78, 84
3, 88357, Note_on_c, 0, 84, 0
3, 89215, Note_on_c, 0, 72, 0
3, 89217, Note_on_c, 0, 76, 0
3, 89260, Note_on_c, 0, 74, 84
3, 89280, Note_on_c, 0, 71, 84
3, 89682, Note_on_c, 0, 74, 0
3, 89695, Note_on_c, 0, 71, 0
3, 89740, Note_on_c, 0, 72, 84
3, 89760, Note_on_c, 0, 69, 84
3, 90160, Note_on_c, 0, 72, 0
3, 90175, Note_on_c, 0, 69, 0
3, 90180, Note_on_c, 0, 67, 0
3, 90182, Note_on_c, 0, 78, 0
3, 90220, Note_on_c, 0, 67, 84
3, 90220, Note_on_c, 0, 71, 84
3, 90220, Note_on_c, 0, 74, 84
3, 90220, Note_on_c, 0, 77, 84
3, 90640, Note_on_c, 0, 74, 0
3, 90640, Note_on_c, 0, 71, 0
3, 90757, Note_on_c, 0, 67, 0
3, 90880, Note_on_c, 0, 77, 0
3, 90960, Note_on_c, 0, 73, 84
3, 91140, Note_on_c, 0, 73, 0
3, 91200, Note_on_c, 0, 74, 84
3, 91440, Note_on_c, 0, 76, 84
3, 91480, Note_on_c, 0, 74, 0
3, 91680, Note_on_c, 0, 77, 84
3, 91720, Note_on_c, 0, 76, 0
3, 91920, Note_on_c, 0, 78, 84
3, 91960, Note_on_c, 0, 77, 0
3, 92160, Note_on_c, 0, 60, 84
3, 92160, Note_on_c, 0, 76, 84
3, 92160, Note_on_c, 0, 79, 84
3, 92197, Note_on_c, 0, 78, 0
3, 92620, Note_on_c, 0, 64, 84
3, 92677, Note_on_c, 0, 60, 0
3, 93100, Note_on_c, 0, 67, 84
3, 93137, Note_on_c, 0, 64, 0
3, 93522, Note_on_c, 0, 67, 0
3, 93540, Note_on_c, 0, 76, 0
3, 93542, Note_on_c, 0, 79, 0
3, 93580, Note_on_c, 0, 68, 84
3, 93580, Note_on_c, 0, 74, 84
3, 93580, Note_on_c, 0, 77, 84
3, 94000, Note_on_c, 0, 77, 0
3, 94000, Note_on_c, 0, 74, 0
3, 94000, Note_on_c, 0, 68, 0
3, 94060, Note_on_c, 0, 69, 84
3, 94060, Note_on_c, 0, 74, 84
3, 94060, Note_on_c, 0, 77, 84
3, 94480, Note_on_c, 0, 77, 0
3, 94540, Note_on_c, 0, 76, 84
3, 94660, Note_on_c, 0, 77, 84
3, 94700, Note_on_c, 0, 76, 0
3, 94780, Note_on_c, 0, 79, 84
3, 94820, Note_on_c, 0, 77, 0
3, 94900, Note_on_c, 0, 77, 84
3, 94940, Note_on_c, 0, 79, 0
3, 95020, Note_on_c, 0, 76, 84
3, 95040, Note_on_c, 0, 72, 84
3, 95055, Note_on_c, 0, 74, 0
3, 95060, Note_on_c, 0, 77, 0
3, 95445, Note_on_c, 0, 69, 0
3, 95500, Note_on_c, 0, 67, 84
3, 95540, Note_on_c, 0, 76, 0
3, 95572, Note_on_c, 0, 72, 0
3, 95920, Note_on_c, 0, 67, 0
3, 95980, Note_on_c, 0, 65, 84
3, 95980, Note_on_c, 0, 74, 84
3, 95980, Note_on_c, 0, 77, 84
3, 96157, Note_on_c, 0, 74, 0
3, 96160, Note_on_c, 0, 77, 0
3, 96220, Note_on_c, 0, 67, 84
3, 96220, Note_on_c, 0, 73, 84
3, 96220, Note_on_c, 0, 76, 84
3, 96257, Note_on_c, 0, 65, 0
3, 96400, Note_on_c, 0, 73, 0
3, 96402, Note_on_c, 0, 76, 0
3, 96460, Note_on_c, 0, 77, 84
3, 96480, Note_on_c, 0, 65, 84
3, 96480, Note_on_c, 0, 74, 84
3, 96497, Note_on_c, 0, 67, 0
3, 96640, Note_on_c, 0, 77, 0
3, 96652, Note_on_c, 0, 74, 0
3, 96700, Note_on_c, 0, 79, 84
3, 96720, Note_on_c, 0, 64, 84
3, 96720, Note_on_c, 0, 76, 84
3, 96750, Note_on_c, 0, 65, 0
3, 96880, Note_on_c, 0, 79, 0
3, 96895, Note_on_c, 0, 76, 0
3, 96940, Note_on_c, 0, 81, 84
3, 96960, Note_on_c, 0, 62, 84
3, 96960, Note_on_c, 0, 77, 84
3, 96990, Note_on_c, 0, 64, 0
3, 97180, Note_on_c, 0, 79, 84
3, 97200, Note_on_c, 0, 64, 84
3, 97200, Note_on_c, 0, 76, 84
3, 97220, Note_on_c, 0, 81, 0
3, 97232, Note_on_c, 0, 77, 0
3, 97232, Note_on_c, 0, 62, 0
3, 97420, Note_on_c, 0, 77, 84
3, 97440, Note_on_c, 0, 65, 84
3, 97440, Note_on_c, 0, 74, 84
3, 97460, Note_on_c, 0, 79, 0
3, 97472, Note_on_c, 0, 76, 0
3, 97475, Note_on_c, 0, 64, 0
3, 97660, Note_on_c, 0, 66, 84
3, 97660, Note_on_c, 0, 72, 84
3, 97660, Note_on_c, 0, 76, 84
3, 97700, Note_on_c, 0, 77, 0
3, 97712, Note_on_c, 0, 74, 0
3, 97712, Note_on_c, 0, 65, 0
3, 97840, Note_on_c, 0, 76, 0
3, 97840, Note_on_c, 0, 72, 0
3, 97900, Note_on_c, 0, 76, 84
3, 97920, Note_on_c, 0, 67, 84
3, 97920, Note_on_c, 0, 72, 84
3, 97935, Note_on_c, 0, 66, 0
3, 98320, Note_on_c, 0, 76, 0
3, 98380, Note_on_c, 0, 74, 84
3, 98500, Note_on_c, 0, 76, 84
3, 98540, Note_on_c, 0, 74, 0
3, 98620, Note_on_c, 0, 77, 84
3, 98660, Note_on_c, 0, 76, 0
3, 98740, Note_on_c, 0, 76, 84
3, 98780, Note_on_c, 0, 77, 0
3, 98812, Note_on_c, 0, 72, 0
3, 98815, Note_on_c, 0, 67, 0
3, 98860, Note_on_c, 0, 74, 84
3, 98880, Note_on_c, 0, 67, 84
3, 98880, Note_on_c, 0, 71, 84
3, 98897, Note_on_c, 0, 76, 0
3, 99100, Note_on_c, 0, 76, 84
3, 99140, Note_on_c, 0, 74, 0
3, 99295, Note_on_c, 0, 71, 0
3, 99340, Note_on_c, 0, 77, 84
3, 99380, Note_on_c, 0, 76, 0
3, 99412, Note_on_c, 0, 67, 0
3, 99580, Note_on_c, 0, 78, 84
3, 99620, Note_on_c, 0, 77, 0
3, 99820, Note_on_c, 0, 60, 84
3, 99820, Note_on_c, 0, 79, 84
3, 99857, Note_on_c, 0, 78, 0
3, 100060, Note_on_c, 0, 83, 84
3, 100100, Note_on_c, 0, 79, 0
3, 100180, Note_on_c, 0, 81, 84
3, 100220, Note_on_c, 0, 83, 0
3, 100300, Note_on_c, 0, 84, 84
3, 100320, Note_on_c, 0, 64, 84
3, 100337, Note_on_c, 0, 60, 0
3, 100342, Note_on_c, 0, 81, 0
3, 100420, Note_on_c, 0, 83, 84
3, 100460, Note_on_c, 0, 84, 0
3, 100540, Note_on_c, 0, 86, 84
3, 100580, Note_on_c, 0, 83, 0
3, 100660, Note_on_c, 0, 84, 84
3, 100700, Note_on_c, 0, 86, 0
3, 100732, Note_on_c, 0, 64, 0
3, 100780, Note_on_c, 0, 79, 84
3, 100800, Note_on_c, 0, 67, 84
3, 100800, Note_on_c, 0, 76, 84
3, 100817, Note_on_c, 0, 84, 0
3, 101200, Note_on_c, 0, 79, 0
3, 101212, Note_on_c, 0, 67, 0
3, 101215, Note_on_c, 0, 76, 0
3, 101260, Note_on_c, 0, 68, 84
3, 101260, Note_on_c, 0, 74, 84
3, 101260, Note_on_c, 0, 77, 84
3, 101680, Note_on_c, 0, 77, 0
3, 101680, Note_on_c, 0, 74, 0
3, 101680, Note_on_c, 0, 68, 0
3, 101740, Note_on_c, 0, 69, 84
3, 101740, Note_on_c, 0, 74, 84
3, 101740, Note_on_c, 0, 77, 84
3, 102220, Note_on_c, 0, 70, 84
3, 102257, Note_on_c, 0, 69, 0
3, 102640, Note_on_c, 0, 77, 0
3, 102642, Note_on_c, 0, 74, 0
3, 102700, Note_on_c, 0, 76, 84
3, 102720, Note_on_c, 0, 73, 84
3, 103122, Note_on_c, 0, 70, 0
3, 103180, Note_on_c, 0, 69, 84
3, 103355, Note_on_c, 0, 69, 0
3, 103420, Note_on_c, 0, 67, 84
3, 103600, Note_on_c, 0, 76, 0
3, 103605, Note_on_c, 0, 67, 0
3, 103615, Note_on_c, 0, 73, 0
3, 103660, Note_on_c, 0, 65, 84
3, 103660, Note_on_c, 0, 69, 84
3, 103660, Note_on_c, 0, 74, 84
3, 103660, Note_on_c, 0, 77, 84
3, 103780, Note_on_c, 0, 79, 84
3, 103820, Note_on_c, 0, 77, 0
3, 103900, Note_on_c, 0, 77, 84
3, 103940, Note_on_c, 0, 79, 0
3, 104020, Note_on_c, 0, 76, 84
3, 104060, Note_on_c, 0, 77, 0
3, 104140, Note_on_c, 0, 77, 84
3, 104182, Note_on_c, 0, 76, 0
3, 104260, Note_on_c, 0, 79, 84
3, 104300, Note_on_c, 0, 77, 0
3, 104380, Note_on_c, 0, 81, 84
3, 104420, Note_on_c, 0, 79, 0
3, 104500, Note_on_c, 0, 77, 84
3, 104540, Note_on_c, 0, 81, 0
3, 104557, Note_on_c, 0, 69, 0
3, 104557, Note_on_c, 0, 65, 0
3, 104560, Note_on_c, 0, 74, 0
3, 104620, Note_on_c, 0, 76, 84
3, 104640, Note_on_c, 0, 67, 84
3, 104640, Note_on_c, 0, 72, 84
3, 104657, Note_on_c, 0, 77, 0
3, 104740, Note_on_c, 0, 77, 84
3, 104780, Note_on_c, 0, 76, 0
3, 104860, Note_on_c, 0, 78, 84
3, 104900, Note_on_c, 0, 77, 0
3, 104980, Note_on_c, 0, 79, 84
3, 105020, Note_on_c, 0, 78, 0
3, 105100, Note_on_c, 0, 79, 84
3, 105120, Note_on_c, 0, 71, 84
3, 105140, Note_on_c, 0, 79, 0
3, 105152, Note_on_c, 0, 72, 0
3, 105162, Note_on_c, 0, 79, 0
3, 105220, Note_on_c, 0, 77, 84
3, 105275, Note_on_c, 0, 77, 0
3, 105340, Note_on_c, 0, 76, 84
3, 105400, Note_on_c, 0, 76, 0
3, 105460, Note_on_c, 0, 74, 84
3, 105520, Note_on_c, 0, 74, 0
3, 105535, Note_on_c, 0, 71, 0
3, 105537, Note_on_c, 0, 67, 0
3, 105580, Note_on_c, 0, 60, 84
3, 105580, Note_on_c, 0, 65, 84
3, 105580, Note_on_c, 0, 67, 84
3, 105580, Note_on_c, 0, 74, 84
3, 105580, Note_on_c, 0, 74, 84
3, 106232, Note_on_c, 0, 74, 0
3, 106320, Note_on_c, 0, 76, 84
3, 106440, Note_on_c, 0, 74, 84
3, 106477, Note_on_c, 0, 60, 0
3, 106480, Note_on_c, 0, 76, 0
3, 106480, Note_on_c, 0, 65, 0
3, 106480, Note_on_c, 0, 67, 0
3, 106502, Note_on_c, 0, 74, 0
3, 106560, Note_on_c, 0, 60, 84
3, 106560, Note_on_c, 0, 64, 84
3, 106560, Note_on_c, 0, 67, 84
3, 106560, Note_on_c, 0, 72, 84
3, 106577, Note_on_c, 0, 74, 0
3, 107522, Note_on_c, 0, 67, 0
3, 107522, Note_on_c, 0, 60, 0
3, 107522, Note_on_c, 0, 64, 0
3, 107522, Note_on_c, 0, 72, 0
3, 107522, End_track
4, 0, Start_track
4, 0, Title_t, "sequenced by"
4, 0, Program_c, 1, 50
4, 0, Control_c, 1, 7, 67
4, 2, Note_on_c, 1, 79, 40
4, 2, Note_on_c, 1, 76, 40
4, 2, Note_on_c, 1, 60, 40
4, 480, Note_on_c, 1, 64, 40
4, 512, Note_on_c, 1, 60, 0
4, 960, Note_on_c, 1, 67, 40
4, 992, Note_on_c, 1, 64, 0
4, 1370, Note_on_c, 1, 79, 0
4, 1372, Note_on_c, 1, 76, 0
4, 1440, Note_on_c, 1, 68, 40
4, 1440, Note_on_c, 1, 74, 40
4, 1440, Note_on_c, 1, 77, 40
4, 1475, Note_on_c, 1, 67, 0
4, 1852, Note_on_c, 1, 68, 0
4, 1855, Note_on_c, 1, 74, 0
4, 1860, Note_on_c, 1, 77, 0
4, 1900, Note_on_c, 1, 69, 40
4, 1900, Note_on_c, 1, 74, 40
4, 1900, Note_on_c, 1, 77, 40
4, 2800, Note_on_c, 1, 77, 0
4, 2802, Note_on_c, 1, 74, 0
4, 2860, Note_on_c, 1, 76, 40
4, 2880, Note_on_c, 1, 72, 40
4, 3360, Note_on_c, 1, 67, 40
4, 3377, Note_on_c, 1, 69, 0
4, 3400, Note_on_c, 1, 76, 0
4, 3415, Note_on_c, 1, 72, 0
4, 3780, Note_on_c, 1, 67, 0
4, 3840, Note_on_c, 1, 65, 40
4, 3840, Note_on_c, 1, 74, 40
4, 3840, Note_on_c, 1, 77, 40
4, 4080, Note_on_c, 1, 73, 40
4, 4080, Note_on_c, 1, 76, 40
4, 4117, Note_on_c, 1, 74, 0
4, 4120, Note_on_c, 1, 77, 0
4, 4320, Note_on_c, 1, 74, 40
4, 4320, Note_on_c, 1, 77, 40
4, 4352, Note_on_c, 1, 73, 0
4, 4355, Note_on_c, 1, 76, 0
4, 4560, Note_on_c, 1, 64, 40
4, 4560, Note_on_c, 1, 76, 40
4, 4560, Note_on_c, 1, 79, 40
4, 4592, Note_on_c, 1, 74, 0
4, 4600, Note_on_c, 1, 65, 0
4, 4600, Note_on_c, 1, 77, 0
4, 4800, Note_on_c, 1, 62, 40
4, 4800, Note_on_c, 1, 77, 40
4, 4800, Note_on_c, 1, 81, 40
4, 4832, Note_on_c, 1, 76, 0
4, 4835, Note_on_c, 1, 64, 0
4, 4835, Note_on_c, 1, 79, 0
4, 4977, Note_on_c, 1, 62, 0
4, 5020, Note_on_c, 1, 79, 40
4, 5040, Note_on_c, 1, 64, 40
4, 5040, Note_on_c, 1, 76, 40
4, 5072, Note_on_c, 1, 77, 0
4, 5080, Note_on_c, 1, 81, 0
4, 5212, Note_on_c, 1, 64, 0
4, 5260, Note_on_c, 1, 77, 40
4, 5280, Note_on_c, 1, 65, 40
4, 5280, Note_on_c, 1, 74, 40
4, 5295, Note_on_c, 1, 79, 0
4, 5307, Note_on_c, 1, 76, 0
4, 5457, Note_on_c, 1, 65, 0
4, 5500, Note_on_c, 1, 76, 40
4, 5520, Note_on_c, 1, 66, 40
4, 5520, Note_on_c, 1, 72, 40
4, 5540, Note_on_c, 1, 77, 0
4, 5552, Note_on_c, 1, 74, 0
4, 5680, Note_on_c, 1, 76, 0
4, 5695, Note_on_c, 1, 66, 0
4, 5695, Note_on_c, 1, 72, 0
4, 5740, Note_on_c, 1, 67, 40
4, 5740, Note_on_c, 1, 72, 40
4, 5740, Note_on_c, 1, 76, 40
4, 6640, Note_on_c, 1, 76, 0
4, 6642, Note_on_c, 1, 72, 0
4, 6700, Note_on_c, 1, 74, 40
4, 6720, Note_on_c, 1, 71, 40
4, 6940, Note_on_c, 1, 76, 40
4, 6980, Note_on_c, 1, 74, 0
4, 7125, Note_on_c, 1, 67, 0
4, 7135, Note_on_c, 1, 71, 0
4, 7180, Note_on_c, 1, 77, 40
4, 7215, Note_on_c, 1, 76, 0
4, 7420, Note_on_c, 1, 78, 40
4, 7460, Note_on_c, 1, 77, 0
4, 7660, Note_on_c, 1, 60, 40
4, 7660, Note_on_c, 1, 76, 40
4, 7660, Note_on_c, 1, 79, 40
4, 7695, Note_on_c, 1, 78, 0
4, 8140, Note_on_c, 1, 64, 40
4, 8177, Note_on_c, 1, 60, 0
4, 8620, Note_on_c, 1, 67, 40
4, 8655, Note_on_c, 1, 64, 0
4, 9040, Note_on_c, 1, 79, 0
4, 9040, Note_on_c, 1, 76, 0
4, 9100, Note_on_c, 1, 77, 40
4, 9120, Note_on_c, 1, 68, 40
4, 9120, Note_on_c, 1, 74, 40
4, 9135, Note_on_c, 1, 67, 0
4, 9520, Note_on_c, 1, 77, 0
4, 9532, Note_on_c, 1, 68, 0
4, 9535, Note_on_c, 1, 74, 0
4, 9580, Note_on_c, 1, 69, 40
4, 9580, Note_on_c, 1, 74, 40
4, 9580, Note_on_c, 1, 77, 40
4, 10480, Note_on_c, 1, 77, 0
4, 10482, Note_on_c, 1, 74, 0
4, 10540, Note_on_c, 1, 76, 40
4, 10560, Note_on_c, 1, 72, 40
4, 11020, Note_on_c, 1, 67, 40
4, 11020, Note_on_c, 1, 70, 40
4, 11020, Note_on_c, 1, 73, 40
4, 11057, Note_on_c, 1, 69, 0
4, 11067, Note_on_c, 1, 72, 0
4, 11440, Note_on_c, 1, 67, 0
4, 11440, Note_on_c, 1, 76, 0
4, 11440, Note_on_c, 1, 70, 0
4, 11442, Note_on_c, 1, 73, 0
4, 11500, Note_on_c, 1, 65, 40
4, 11500, Note_on_c, 1, 69, 40
4, 11500, Note_on_c, 1, 74, 40
4, 11500, Note_on_c, 1, 77, 40
4, 11620, Note_on_c, 1, 79, 40
4, 11660, Note_on_c, 1, 77, 0
4, 11740, Note_on_c, 1, 77, 40
4, 11780, Note_on_c, 1, 79, 0
4, 11860, Note_on_c, 1, 76, 40
4, 11900, Note_on_c, 1, 77, 0
4, 11980, Note_on_c, 1, 77, 40
4, 12020, Note_on_c, 1, 76, 0
4, 12100, Note_on_c, 1, 79, 40
4, 12140, Note_on_c, 1, 77, 0
4, 12220, Note_on_c, 1, 81, 40
4, 12260, Note_on_c, 1, 79, 0
4, 12340, Note_on_c, 1, 77, 40
4, 12380, Note_on_c, 1, 81, 0
4, 12397, Note_on_c, 1, 69, 0
4, 12400, Note_on_c, 1, 65, 0
4, 12400, Note_on_c, 1, 74, 0
4, 12460, Note_on_c, 1, 76, 40
4, 12480, Note_on_c, 1, 67, 40
4, 12480, Note_on_c, 1, 72, 40
4, 12500, Note_on_c, 1, 77, 0
4, 12882, Note_on_c, 1, 76, 0
4, 12895, Note_on_c, 1, 72, 0
4, 12940, Note_on_c, 1, 74, 40
4, 12960, Note_on_c, 1, 71, 40
4, 13360, Note_on_c, 1, 74, 0
4, 13372, Note_on_c, 1, 67, 0
4, 13375, Note_on_c, 1, 71, 0
4, 13420, Note_on_c, 1, 60, 40
4, 13420, Note_on_c, 1, 65, 40
4, 13420, Note_on_c, 1, 67, 40
4, 13420, Note_on_c, 1, 71, 40
4, 13420, Note_on_c, 1, 74, 40
4, 14320, Note_on_c, 1, 71, 0
4, 14320, Note_on_c, 1, 67, 0
4, 14320, Note_on_c, 1, 60, 0
4, 14320, Note_on_c, 1, 65, 0
4, 14322, Note_on_c, 1, 74, 0
4, 14400, Note_on_c, 1, 60, 40
4, 14400, Note_on_c, 1, 64, 40
4, 14400, Note_on_c, 1, 67, 40
4, 14400, Note_on_c, 1, 72, 40
4, 15300, Note_on_c, 1, 72, 0
4, 15362, Note_on_c, 1, 60, 40
4, 15362, Note_on_c, 1, 76, 40
4, 15362, Note_on_c, 1, 79, 40
4, 15417, Note_on_c, 1, 60, 0
4, 15420, Note_on_c, 1, 64, 0
4, 15420, Note_on_c, 1, 67, 0
4, 15840, Note_on_c, 1, 64, 40
4, 15872, Note_on_c, 1, 60, 0
4, 16320, Note_on_c, 1, 67, 40
4, 16352, Note_on_c, 1, 64, 0
4, 16730, Note_on_c, 1, 79, 0
4, 16732, Note_on_c, 1, 76, 0
4, 16800, Note_on_c, 1, 68, 40
4, 16800, Note_on_c, 1, 74, 40
4, 16800, Note_on_c, 1, 77, 40
4, 16835, Note_on_c, 1, 67, 0
4, 17212, Note_on_c, 1, 68, 0
4, 17215, Note_on_c, 1, 74, 0
4, 17220, Note_on_c, 1, 77, 0
4, 17260, Note_on_c, 1, 69, 40
4, 17260, Note_on_c, 1, 74, 40
4, 17260, Note_on_c, 1, 77, 40
4, 18160, Note_on_c, 1, 77, 0
4, 18162, Note_on_c, 1, 74, 0
4, 18220, Note_on_c, 1, 76, 40
4, 18240, Note_on_c, 1, 72, 40
4, 18720, Note_on_c, 1, 67, 40
4, 18737, Note_on_c, 1, 69, 0
4, 18760, Note_on_c, 1, 76, 0
4, 18775, Note_on_c, 1, 72, 0
4, 19140, Note_on_c, 1, 67, 0
4, 19200, Note_on_c, 1, 65, 40
4, 19200, Note_on_c, 1, 74, 40
4, 19200, Note_on_c, 1, 77, 40
4, 19440, Note_on_c, 1, 73, 40
4, 19440, Note_on_c, 1, 76, 40
4, 19477, Note_on_c, 1, 74, 0
4, 19480, Note_on_c, 1, 77, 0
4, 19680, Note_on_c, 1, 74, 40
4, 19680, Note_on_c, 1, 77, 40
4, 19712, Note_on_c, 1, 73, 0
4, 19715, Note_on_c, 1, 76, 0
4, 19920, Note_on_c, 1, 64, 40
4, 19920, Note_on_c, 1, 76, 40
4, 19920, Note_on_c, 1, 79, 40
4, 19952, Note_on_c, 1, 74, 0
4, 19960, Note_on_c, 1, 65, 0
4, 19960, Note_on_c, 1, 77, 0
4, 20160, Note_on_c, 1, 62, 40
4, 20160, Note_on_c, 1, 77, 40
4, 20160, Note_on_c, 1, 81, 40
4, 20192, Note_on_c, 1, 76, 0
4, 20195, Note_on_c, 1, 64, 0
4, 20195, Note_on_c, 1, 79, 0
4, 20337, Note_on_c, 1, 62, 0
4, 20380, Note_on_c, 1, 79, 40
4, 20400, Note_on_c, 1, 64, 40
4, 20400, Note_on_c, 1, 76, 40
4, 20432, Note_on_c, 1, 77, 0
4, 20440, Note_on_c, 1, 81, 0
4, 20572, Note_on_c, 1, 64, 0
4, 20620, Note_on_c, 1, 77, 40
4, 20640, Note_on_c, 1, 65, 40
4, 20640, Note_on_c, 1, 74, 40
4, 20655, Note_on_c, 1, 79, 0
4, 20667, Note_on_c, 1, 76, 0
4, 20817, Note_on_c, 1, 65, 0
4, 20860, Note_on_c, 1, 76, 40
4, 20880, Note_on_c, 1, 66, 40
4, 20880, Note_on_c, 1, 72, 40
4, 20900, Note_on_c, 1, 77, 0
4, 20912, Note_on_c, 1, 74, 0
4, 21040, Note_on_c, 1, 76, 0
4, 21055, Note_on_c, 1, 66, 0
4, 21055, Note_on_c, 1, 72, 0
4, 21100, Note_on_c, 1, 67, 40
4, 21100, Note_on_c, 1, 72, 40
4, 21100, Note_on_c, 1, 76, 40
4, 22000, Note_on_c, 1, 76, 0
4, 22002, Note_on_c, 1, 72, 0
4, 22060, Note_on_c, 1, 74, 40
4, 22080, Note_on_c, 1, 71, 40
4, 22300, Note_on_c, 1, 76, 40
4, 22340, Note_on_c, 1, 74, 0
4, 22485, Note_on_c, 1, 67, 0
4, 22495, Note_on_c, 1, 71, 0
4, 22540, Note_on_c, 1, 77, 40
4, 22575, Note_on_c, 1, 76, 0
4, 22780, Note_on_c, 1, 78, 40
4, 22820, Note_on_c, 1, 77, 0
4, 23020, Note_on_c, 1, 60, 40
4, 23020, Note_on_c, 1, 76, 40
4, 23020, Note_on_c, 1, 79, 40
4, 23055, Note_on_c, 1, 78, 0
4, 23500, Note_on_c, 1, 64, 40
4, 23537, Note_on_c, 1, 60, 0
4, 23980, Note_on_c, 1, 67, 40
4, 24015, Note_on_c, 1, 64, 0
4, 24400, Note_on_c, 1, 79, 0
4, 24400, Note_on_c, 1, 76, 0
4, 24460, Note_on_c, 1, 77, 40
4, 24480, Note_on_c, 1, 68, 40
4, 24480, Note_on_c, 1, 74, 40
4, 24495, Note_on_c, 1, 67, 0
4, 24880, Note_on_c, 1, 77, 0
4, 24892, Note_on_c, 1, 68, 0
4, 24895, Note_on_c, 1, 74, 0
4, 24940, Note_on_c, 1, 69, 40
4, 24940, Note_on_c, 1, 74, 40
4, 24940, Note_on_c, 1, 77, 40
4, 25840, Note_on_c, 1, 77, 0
4, 25842, Note_on_c, 1, 74, 0
4, 25900, Note_on_c, 1, 76, 40
4, 25920, Note_on_c, 1, 72, 40
4, 26380, Note_on_c, 1, 67, 40
4, 26380, Note_on_c, 1, 70, 40
4, 26380, Note_on_c, 1, 73, 40
4, 26417, Note_on_c, 1, 69, 0
4, 26427, Note_on_c, 1, 72, 0
4, 26800, Note_on_c, 1, 67, 0
4, 26800, Note_on_c, 1, 76, 0
4, 26800, Note_on_c, 1, 70, 0
4, 26802, Note_on_c, 1, 73, 0
4, 26860, Note_on_c, 1, 65, 40
4, 26860, Note_on_c, 1, 69, 40
4, 26860, Note_on_c, 1, 74, 40
4, 26860, Note_on_c, 1, 77, 40
4, 26980, Note_on_c, 1, 79, 40
4, 27020, Note_on_c, 1, 77, 0
4, 27100, Note_on_c, 1, 77, 40
4, 27140, Note_on_c, 1, 79, 0
4, 27220, Note_on_c, 1, 76, 40
4, 27260, Note_on_c, 1, 77, 0
4, 27340, Note_on_c, 1, 77, 40
4, 27380, Note_on_c, 1, 76, 0
4, 27460, Note_on_c, 1, 79, 40
4, 27500, Note_on_c, 1, 77, 0
4, 27580, Note_on_c, 1, 81, 40
4, 27620, Note_on_c, 1, 79, 0
4, 27700, Note_on_c, 1, 77, 40
4, 27740, Note_on_c, 1, 81, 0
4, 27757, Note_on_c, 1, 69, 0
4, 27760, Note_on_c, 1, 65, 0
4, 27760, Note_on_c, 1, 74, 0
4, 27820, Note_on_c, 1, 76, 40
4, 27840, Note_on_c, 1, 67, 40
4, 27840, Note_on_c, 1, 72, 40
4, 27860, Note_on_c, 1, 77, 0
4, 28242, Note_on_c, 1, 76, 0
4, 28255, Note_on_c, 1, 72, 0
4, 28300, Note_on_c, 1, 74, 40
4, 28320, Note_on_c, 1, 71, 40
4, 28720, Note_on_c, 1, 74, 0
4, 28732, Note_on_c, 1, 67, 0
4, 28735, Note_on_c, 1, 71, 0
4, 28780, Note_on_c, 1, 60, 40
4, 28780, Note_on_c, 1, 65, 40
4, 28780, Note_on_c, 1, 67, 40
4, 28780, Note_on_c, 1, 71, 40
4, 28780, Note_on_c, 1, 74, 40
4, 29680, Note_on_c, 1, 71, 0
4, 29680, Note_on_c, 1, 67, 0
4, 29680, Note_on_c, 1, 60, 0
4, 29680, Note_on_c, 1, 65, 0
4, 29682, Note_on_c, 1, 74, 0
4, 29760, Note_on_c, 1, 60, 40
4, 29760, Note_on_c, 1, 64, 40
4, 29760, Note_on_c, 1, 67, 40
4, 29760, Note_on_c, 1, 72, 40
4, 30660, Note_on_c, 1, 72, 0
4, 30720, Note_on_c, 1, 72, 40
4, 30720, Note_on_c, 1, 76, 40
4, 30720, Note_on_c, 1, 79, 40
4, 30720, Note_on_c, 1, 72, 40
4, 30720, Note_on_c, 1, 76, 40
4, 30720, Note_on_c, 1, 79, 40
4, 30777, Note_on_c, 1, 60, 0
4, 30780, Note_on_c, 1, 64, 0
4, 30780, Note_on_c, 1, 67, 0
4, 31617, Note_on_c, 1, 72, 0
4, 31617, Note_on_c, 1, 72, 0
4, 31680, Note_on_c, 1, 71, 40
4, 31680, Note_on_c, 1, 74, 40
4, 31715, Note_on_c, 1, 76, 0
4, 31715, Note_on_c, 1, 76, 0
4, 31860, Note_on_c, 1, 79, 0
4, 31860, Note_on_c, 1, 79, 0
4, 31920, Note_on_c, 1, 78, 40
4, 32020, Note_on_c, 1, 79, 40
4, 32080, Note_on_c, 1, 78, 0
4, 32087, Note_on_c, 1, 79, 0
4, 32140, Note_on_c, 1, 78, 40
4, 32200, Note_on_c, 1, 78, 0
4, 32260, Note_on_c, 1, 79, 40
4, 32320, Note_on_c, 1, 79, 0
4, 32380, Note_on_c, 1, 81, 40
4, 32440, Note_on_c, 1, 81, 0
4, 32500, Note_on_c, 1, 79, 40
4, 32560, Note_on_c, 1, 79, 0
4, 32580, Note_on_c, 1, 71, 0
4, 32582, Note_on_c, 1, 74, 0
4, 32620, Note_on_c, 1, 69, 40
4, 32620, Note_on_c, 1, 72, 40
4, 32620, Note_on_c, 1, 78, 40
4, 33100, Note_on_c, 1, 84, 40
4, 33140, Note_on_c, 1, 78, 0
4, 33517, Note_on_c, 1, 72, 0
4, 33520, Note_on_c, 1, 69, 0
4, 33580, Note_on_c, 1, 74, 40
4, 33600, Note_on_c, 1, 67, 40
4, 34002, Note_on_c, 1, 84, 0
4, 34060, Note_on_c, 1, 83, 40
4, 34480, Note_on_c, 1, 74, 0
4, 34485, Note_on_c, 1, 83, 0
4, 34540, Note_on_c, 1, 73, 40
4, 34540, Note_on_c, 1, 76, 40
4, 34540, Note_on_c, 1, 82, 40
4, 34615, Note_on_c, 1, 67, 0
4, 35200, Note_on_c, 1, 82, 0
4, 35260, Note_on_c, 1, 84, 40
4, 35320, Note_on_c, 1, 84, 0
4, 35380, Note_on_c, 1, 82, 40
4, 35440, Note_on_c, 1, 82, 0
4, 35500, Note_on_c, 1, 81, 40
4, 35922, Note_on_c, 1, 81, 0
4, 35980, Note_on_c, 1, 79, 40
4, 36400, Note_on_c, 1, 79, 0
4, 36400, Note_on_c, 1, 76, 0
4, 36400, Note_on_c, 1, 73, 0
4, 36460, Note_on_c, 1, 74, 40
4, 36460, Note_on_c, 1, 78, 40
4, 36700, Note_on_c, 1, 79, 40
4, 36740, Note_on_c, 1, 78, 0
4, 36877, Note_on_c, 1, 74, 0
4, 36940, Note_on_c, 1, 81, 40
4, 36980, Note_on_c, 1, 79, 0
4, 37180, Note_on_c, 1, 82, 40
4, 37220, Note_on_c, 1, 81, 0
4, 37420, Note_on_c, 1, 83, 40
4, 37457, Note_on_c, 1, 82, 0
4, 37660, Note_on_c, 1, 84, 40
4, 37700, Note_on_c, 1, 83, 0
4, 37900, Note_on_c, 1, 85, 40
4, 37940, Note_on_c, 1, 84, 0
4, 38140, Note_on_c, 1, 86, 40
4, 38180, Note_on_c, 1, 85, 0
4, 38380, Note_on_c, 1, 76, 40
4, 38380, Note_on_c, 1, 79, 40
4, 38380, Note_on_c, 1, 86, 40
4, 38417, Note_on_c, 1, 86, 0
4, 38620, Note_on_c, 1, 88, 40
4, 38660, Note_on_c, 1, 86, 0
4, 38740, Note_on_c, 1, 86, 40
4, 38780, Note_on_c, 1, 88, 0
4, 38880, Note_on_c, 1, 84, 40
4, 38902, Note_on_c, 1, 86, 0
4, 39045, Note_on_c, 1, 76, 0
4, 39045, Note_on_c, 1, 79, 0
4, 39120, Note_on_c, 1, 74, 40
4, 39120, Note_on_c, 1, 78, 40
4, 39120, Note_on_c, 1, 83, 40
4, 39160, Note_on_c, 1, 84, 0
4, 39292, Note_on_c, 1, 78, 0
4, 39295, Note_on_c, 1, 74, 0
4, 39340, Note_on_c, 1, 83, 40
4, 39360, Note_on_c, 1, 72, 40
4, 39360, Note_on_c, 1, 76, 40
4, 39377, Note_on_c, 1, 83, 0
4, 39580, Note_on_c, 1, 81, 40
4, 39640, Note_on_c, 1, 83, 0
4, 39772, Note_on_c, 1, 72, 0
4, 39775, Note_on_c, 1, 76, 0
4, 39820, Note_on_c, 1, 71, 40
4, 39820, Note_on_c, 1, 74, 40
4, 39860, Note_on_c, 1, 81, 0
4, 40060, Note_on_c, 1, 79, 40
4, 40240, Note_on_c, 1, 74, 0
4, 40240, Note_on_c, 1, 71, 0
4, 40300, Note_on_c, 1, 69, 40
4, 40300, Note_on_c, 1, 72, 40
4, 40300, Note_on_c, 1, 79, 40
4, 40337, Note_on_c, 1, 79, 0
4, 40540, Note_on_c, 1, 81, 40
4, 40580, Note_on_c, 1, 79, 0
4, 40660, Note_on_c, 1, 79, 40
4, 40700, Note_on_c, 1, 81, 0
4, 40800, Note_on_c, 1, 78, 40
4, 40822, Note_on_c, 1, 79, 0
4, 40965, Note_on_c, 1, 69, 0
4, 40965, Note_on_c, 1, 72, 0
4, 41040, Note_on_c, 1, 67, 40
4, 41040, Note_on_c, 1, 71, 40
4, 41040, Note_on_c, 1, 76, 40
4, 41080, Note_on_c, 1, 78, 0
4, 41212, Note_on_c, 1, 71, 0
4, 41215, Note_on_c, 1, 67, 0
4, 41260, Note_on_c, 1, 76, 40
4, 41280, Note_on_c, 1, 66, 40
4, 41280, Note_on_c, 1, 69, 40
4, 41297, Note_on_c, 1, 76, 0
4, 41500, Note_on_c, 1, 74, 40
4, 41560, Note_on_c, 1, 76, 0
4, 41692, Note_on_c, 1, 69, 0
4, 41692, Note_on_c, 1, 66, 0
4, 41740, Note_on_c, 1, 63, 40
4, 41740, Note_on_c, 1, 66, 40
4, 41780, Note_on_c, 1, 74, 0
4, 41980, Note_on_c, 1, 72, 40
4, 42160, Note_on_c, 1, 66, 0
4, 42160, Note_on_c, 1, 63, 0
4, 42162, Note_on_c, 1, 72, 0
4, 42220, Note_on_c, 1, 64, 40
4, 42220, Note_on_c, 1, 67, 40
4, 42220, Note_on_c, 1, 71, 40
4, 42460, Note_on_c, 1, 79, 40
4, 42500, Note_on_c, 1, 71, 0
4, 42637, Note_on_c, 1, 67, 0
4, 42640, Note_on_c, 1, 64, 0
4, 42700, Note_on_c, 1, 76, 40
4, 42720, Note_on_c, 1, 60, 40
4, 42740, Note_on_c, 1, 79, 0
4, 42940, Note_on_c, 1, 81, 40
4, 42980, Note_on_c, 1, 76, 0
4, 43132, Note_on_c, 1, 60, 0
4, 43180, Note_on_c, 1, 81, 40
4, 43200, Note_on_c, 1, 62, 40
4, 43200, Note_on_c, 1, 71, 40
4, 43200, Note_on_c, 1, 74, 40
4, 43217, Note_on_c, 1, 81, 0
4, 43360, Note_on_c, 1, 81, 0
4, 43420, Note_on_c, 1, 79, 40
4, 43612, Note_on_c, 1, 74, 0
4, 43612, Note_on_c, 1, 62, 0
4, 43615, Note_on_c, 1, 71, 0
4, 43660, Note_on_c, 1, 69, 40
4, 43680, Note_on_c, 1, 62, 40
4, 43680, Note_on_c, 1, 72, 40
4, 43840, Note_on_c, 1, 79, 0
4, 43900, Note_on_c, 1, 78, 40
4, 44080, Note_on_c, 1, 78, 0
4, 44082, Note_on_c, 1, 69, 0
4, 44092, Note_on_c, 1, 62, 0
4, 44095, Note_on_c, 1, 72, 0
4, 44140, Note_on_c, 1, 67, 40
4, 44140, Note_on_c, 1, 72, 40
4, 44140, Note_on_c, 1, 78, 40
4, 44140, Note_on_c, 1, 81, 40
4, 45040, Note_on_c, 1, 81, 0
4, 45040, Note_on_c, 1, 67, 0
4, 45040, Note_on_c, 1, 72, 0
4, 45042, Note_on_c, 1, 78, 0
4, 45120, Note_on_c, 1, 67, 40
4, 45120, Note_on_c, 1, 71, 40
4, 45120, Note_on_c, 1, 79, 40
4, 45540, Note_on_c, 1, 79, 0
4, 45540, Note_on_c, 1, 71, 0
4, 45540, Note_on_c, 1, 67, 0
4, 45600, Note_on_c, 1, 80, 40
4, 46020, Note_on_c, 1, 80, 0
4, 46080, Note_on_c, 1, 81, 40
4, 46560, Note_on_c, 1, 73, 40
4, 46560, Note_on_c, 1, 79, 40
4, 46975, Note_on_c, 1, 73, 0
4, 46980, Note_on_c, 1, 79, 0
4, 47040, Note_on_c, 1, 74, 40
4, 47040, Note_on_c, 1, 78, 40
4, 47220, Note_on_c, 1, 81, 0
4, 47280, Note_on_c, 1, 83, 40
4, 47460, Note_on_c, 1, 74, 0
4, 47462, Note_on_c, 1, 78, 0
4, 47520, Note_on_c, 1, 85, 40
4, 47560, Note_on_c, 1, 83, 0
4, 47700, Note_on_c, 1, 85, 0
4, 47760, Note_on_c, 1, 86, 40
4, 47940, Note_on_c, 1, 86, 0
4, 48000, Note_on_c, 1, 79, 40
4, 48480, Note_on_c, 1, 71, 40
4, 48480, Note_on_c, 1, 77, 40
4, 48895, Note_on_c, 1, 71, 0
4, 48900, Note_on_c, 1, 77, 0
4, 48960, Note_on_c, 1, 72, 40
4, 48960, Note_on_c, 1, 76, 40
4, 49140, Note_on_c, 1, 79, 0
4, 49200, Note_on_c, 1, 81, 40
4, 49380, Note_on_c, 1, 72, 0
4, 49382, Note_on_c, 1, 76, 0
4, 49440, Note_on_c, 1, 83, 40
4, 49480, Note_on_c, 1, 81, 0
4, 49680, Note_on_c, 1, 84, 40
4, 49720, Note_on_c, 1, 83, 0
4, 49920, Note_on_c, 1, 67, 40
4, 49920, Note_on_c, 1, 72, 40
4, 49920, Note_on_c, 1, 76, 40
4, 49920, Note_on_c, 1, 78, 40
4, 49957, Note_on_c, 1, 84, 0
4, 50815, Note_on_c, 1, 72, 0
4, 50817, Note_on_c, 1, 76, 0
4, 50860, Note_on_c, 1, 74, 40
4, 50880, Note_on_c, 1, 71, 40
4, 51282, Note_on_c, 1, 74, 0
4, 51295, Note_on_c, 1, 71, 0
4, 51340, Note_on_c, 1, 72, 40
4, 51360, Note_on_c, 1, 69, 40
4, 51760, Note_on_c, 1, 72, 0
4, 51775, Note_on_c, 1, 69, 0
4, 51780, Note_on_c, 1, 67, 0
4, 51782, Note_on_c, 1, 78, 0
4, 51820, Note_on_c, 1, 67, 40
4, 51820, Note_on_c, 1, 71, 40
4, 51820, Note_on_c, 1, 74, 40
4, 51820, Note_on_c, 1, 77, 40
4, 52240, Note_on_c, 1, 74, 0
4, 52240, Note_on_c, 1, 71, 0
4, 52357, Note_on_c, 1, 67, 0
4, 52480, Note_on_c, 1, 77, 0
4, 52560, Note_on_c, 1, 73, 40
4, 52740, Note_on_c, 1, 73, 0
4, 52800, Note_on_c, 1, 74, 40
4, 53040, Note_on_c, 1, 76, 40
4, 53080, Note_on_c, 1, 74, 0
4, 53280, Note_on_c, 1, 77, 40
4, 53320, Note_on_c, 1, 76, 0
4, 53520, Note_on_c, 1, 78, 40
4, 53560, Note_on_c, 1, 77, 0
4, 53760, Note_on_c, 1, 60, 40
4, 53760, Note_on_c, 1, 76, 40
4, 53760, Note_on_c, 1, 79, 40
4, 53797, Note_on_c, 1, 78, 0
4, 54220, Note_on_c, 1, 64, 40
4, 54277, Note_on_c, 1, 60, 0
4, 54700, Note_on_c, 1, 67, 40
4, 54737, Note_on_c, 1, 64, 0
4, 55122, Note_on_c, 1, 67, 0
4, 55140, Note_on_c, 1, 76, 0
4, 55142, Note_on_c, 1, 79, 0
4, 55180, Note_on_c, 1, 68, 40
4, 55180, Note_on_c, 1, 74, 40
4, 55180, Note_on_c, 1, 77, 40
4, 55600, Note_on_c, 1, 77, 0
4, 55600, Note_on_c, 1, 74, 0
4, 55600, Note_on_c, 1, 68, 0
4, 55660, Note_on_c, 1, 69, 40
4, 55660, Note_on_c, 1, 74, 40
4, 55660, Note_on_c, 1, 77, 40
4, 56080, Note_on_c, 1, 77, 0
4, 56140, Note_on_c, 1, 76, 40
4, 56260, Note_on_c, 1, 77, 40
4, 56300, Note_on_c, 1, 76, 0
4, 56380, Note_on_c, 1, 79, 40
4, 56420, Note_on_c, 1, 77, 0
4, 56500, Note_on_c, 1, 77, 40
4, 56540, Note_on_c, 1, 79, 0
4, 56620, Note_on_c, 1, 76, 40
4, 56640, Note_on_c, 1, 72, 40
4, 56655, Note_on_c, 1, 74, 0
4, 56660, Note_on_c, 1, 77, 0
4, 57045, Note_on_c, 1, 69, 0
4, 57100, Note_on_c, 1, 67, 40
4, 57140, Note_on_c, 1, 76, 0
4, 57172, Note_on_c, 1, 72, 0
4, 57520, Note_on_c, 1, 67, 0
4, 57580, Note_on_c, 1, 65, 40
4, 57580, Note_on_c, 1, 74, 40
4, 57580, Note_on_c, 1, 77, 40
4, 57757, Note_on_c, 1, 74, 0
4, 57760, Note_on_c, 1, 77, 0
4, 57820, Note_on_c, 1, 67, 40
4, 57820, Note_on_c, 1, 73, 40
4, 57820, Note_on_c, 1, 76, 40
4, 57857, Note_on_c, 1, 65, 0
4, 58000, Note_on_c, 1, 73, 0
4, 58002, Note_on_c, 1, 76, 0
4, 58060, Note_on_c, 1, 77, 40
4, 58080, Note_on_c, 1, 65, 40
4, 58080, Note_on_c, 1, 74, 40
4, 58097, Note_on_c, 1, 67, 0
4, 58240, Note_on_c, 1, 77, 0
4, 58252, Note_on_c, 1, 74, 0
4, 58300, Note_on_c, 1, 79, 40
4, 58320, Note_on_c, 1, 64, 40
4, 58320, Note_on_c, 1, 76, 40
4, 58350, Note_on_c, 1, 65, 0
4, 58480, Note_on_c, 1, 79, 0
4, 58495, Note_on_c, 1, 76, 0
4, 58540, Note_on_c, 1, 81, 40
4, 58560, Note_on_c, 1, 62, 40
4, 58560, Note_on_c, 1, 77, 40
4, 58590, Note_on_c, 1, 64, 0
4, 58780, Note_on_c, 1, 79, 40
4, 58800, Note_on_c, 1, 64, 40
4, 58800, Note_on_c, 1, 76, 40
4, 58820, Note_on_c, 1, 81, 0
4, 58832, Note_on_c, 1, 77, 0
4, 58832, Note_on_c, 1, 62, 0
4, 59020, Note_on_c, 1, 77, 40
4, 59040, Note_on_c, 1, 65, 40
4, 59040, Note_on_c, 1, 74, 40
4, 59060, Note_on_c, 1, 79, 0
4, 59072, Note_on_c, 1, 76, 0
4, 59075, Note_on_c, 1, 64, 0
4, 59260, Note_on_c, 1, 66, 40
4, 59260, Note_on_c, 1, 72, 40
4, 59260, Note_on_c, 1, 76, 40
4, 59300, Note_on_c, 1, 77, 0
4, 59312, Note_on_c, 1, 74, 0
4, 59312, Note_on_c, 1, 65, 0
4, 59440, Note_on_c, 1, 76, 0
4, 59440, Note_on_c, 1, 72, 0
4, 59500, Note_on_c, 1, 76, 40
4, 59520, Note_on_c, 1, 67, 40
4, 59520, Note_on_c, 1, 72, 40
4, 59535, Note_on_c, 1, 66, 0
4, 59920, Note_on_c, 1, 76, 0
4, 59980, Note_on_c, 1, 74, 40
4, 60100, Note_on_c, 1, 76, 40
4, 60140, Note_on_c, 1, 74, 0
4, 60220, Note_on_c, 1, 77, 40
4, 60260, Note_on_c, 1, 76, 0
4, 60340, Note_on_c, 1, 76, 40
4, 60380, Note_on_c, 1, 77, 0
4, 60412, Note_on_c, 1, 72, 0
4, 60415, Note_on_c, 1, 67, 0
4, 60460, Note_on_c, 1, 74, 40
4, 60480, Note_on_c, 1, 67, 40
4, 60480, Note_on_c, 1, 71, 40
4, 60497, Note_on_c, 1, 76, 0
4, 60700, Note_on_c, 1, 76, 40
4, 60740, Note_on_c, 1, 74, 0
4, 60895, Note_on_c, 1, 71, 0
4, 60940, Note_on_c, 1, 77, 40
4, 60980, Note_on_c, 1, 76, 0
4, 61012, Note_on_c, 1, 67, 0
4, 61180, Note_on_c, 1, 78, 40
4, 61220, Note_on_c, 1, 77, 0
4, 61420, Note_on_c, 1, 60, 40
4, 61420, Note_on_c, 1, 79, 40
4, 61457, Note_on_c, 1, 78, 0
4, 61660, Note_on_c, 1, 83, 40
4, 61700, Note_on_c, 1, 79, 0
4, 61780, Note_on_c, 1, 81, 40
4, 61820, Note_on_c, 1, 83, 0
4, 61900, Note_on_c, 1, 84, 40
4, 61920, Note_on_c, 1, 64, 40
4, 61937, Note_on_c, 1, 60, 0
4, 61942, Note_on_c, 1, 81, 0
4, 62020, Note_on_c, 1, 83, 40
4, 62060, Note_on_c, 1, 84, 0
4, 62140, Note_on_c, 1, 86, 40
4, 62180, Note_on_c, 1, 83, 0
4, 62260, Note_on_c, 1, 84, 40
4, 62300, Note_on_c, 1, 86, 0
4, 62332, Note_on_c, 1, 64, 0
4, 62380, Note_on_c, 1, 79, 40
4, 62400, Note_on_c, 1, 67, 40
4, 62400, Note_on_c, 1, 76, 40
4, 62417, Note_on_c, 1, 84, 0
4, 62800, Note_on_c, 1, 79, 0
4, 62812, Note_on_c, 1, 67, 0
4, 62815, Note_on_c, 1, 76, 0
4, 62860, Note_on_c, 1, 68, 40
4, 62860, Note_on_c, 1, 74, 40
4, 62860, Note_on_c, 1, 77, 40
4, 63280, Note_on_c, 1, 77, 0
4, 63280, Note_on_c, 1, 74, 0
4, 63280, Note_on_c, 1, 68, 0
4, 63340, Note_on_c, 1, 69, 40
4, 63340, Note_on_c, 1, 74, 40
4, 63340, Note_on_c, 1, 77, 40
4, 63820, Note_on_c, 1, 70, 40
4, 63857, Note_on_c, 1, 69, 0
4, 64240, Note_on_c, 1, 77, 0
4, 64242, Note_on_c, 1, 74, 0
4, 64300, Note_on_c, 1, 76, 40
4, 64320, Note_on_c, 1, 73, 40
4, 64722, Note_on_c, 1, 70, 0
4, 64780, Note_on_c, 1, 69, 40
4, 64955, Note_on_c, 1, 69, 0
4, 65020, Note_on_c, 1, 67, 40
4, 65200, Note_on_c, 1, 76, 0
4, 65205, Note_on_c, 1, 67, 0
4, 65215, Note_on_c, 1, 73, 0
4, 65260, Note_on_c, 1, 65, 40
4, 65260, Note_on_c, 1, 69, 40
4, 65260, Note_on_c, 1, 74, 40
4, 65260, Note_on_c, 1, 77, 40
4, 65380, Note_on_c, 1, 79, 40
4, 65420, Note_on_c, 1, 77, 0
4, 65500, Note_on_c, 1, 77, 40
4, 65540, Note_on_c, 1, 79, 0
4, 65620, Note_on_c, 1, 76, 40
4, 65660, Note_on_c, 1, 77, 0
4, 65740, Note_on_c, 1, 77, 40
4, 65782, Note_on_c, 1, 76, 0
4, 65860, Note_on_c, 1, 79, 40
4, 65900, Note_on_c, 1, 77, 0
4, 65980, Note_on_c, 1, 81, 40
4, 66020, Note_on_c, 1, 79, 0
4, 66100, Note_on_c, 1, 77, 40
4, 66140, Note_on_c, 1, 81, 0
4, 66157, Note_on_c, 1, 69, 0
4, 66157, Note_on_c, 1, 65, 0
4, 66160, Note_on_c, 1, 74, 0
4, 66220, Note_on_c, 1, 76, 40
4, 66240, Note_on_c, 1, 67, 40
4, 66240, Note_on_c, 1, 72, 40
4, 66257, Note_on_c, 1, 77, 0
4, 66340, Note_on_c, 1, 77, 40
4, 66380, Note_on_c, 1, 76, 0
4, 66460, Note_on_c, 1, 78, 40
4, 66500, Note_on_c, 1, 77, 0
4, 66580, Note_on_c, 1, 79, 40
4, 66620, Note_on_c, 1, 78, 0
4, 66700, Note_on_c, 1, 79, 40
4, 66720, Note_on_c, 1, 71, 40
4, 66740, Note_on_c, 1, 79, 0
4, 66752, Note_on_c, 1, 72, 0
4, 66762, Note_on_c, 1, 79, 0
4, 66820, Note_on_c, 1, 77, 40
4, 66875, Note_on_c, 1, 77, 0
4, 66940, Note_on_c, 1, 76, 40
4, 67000, Note_on_c, 1, 76, 0
4, 67060, Note_on_c, 1, 74, 40
4, 67120, Note_on_c, 1, 74, 0
4, 67135, Note_on_c, 1, 71, 0
4, 67137, Note_on_c, 1, 67, 0
4, 67180, Note_on_c, 1, 60, 40
4, 67180, Note_on_c, 1, 65, 40
4, 67180, Note_on_c, 1, 67, 40
4, 67180, Note_on_c, 1, 74, 40
4, 67180, Note_on_c, 1, 74, 40
4, 67832, Note_on_c, 1, 74, 0
4, 67920, Note_on_c, 1, 76, 40
4, 68040, Note_on_c, 1, 74, 40
4, 68077, Note_on_c, 1, 60, 0
4, 68080, Note_on_c, 1, 76, 0
4, 68080, Note_on_c, 1, 65, 0
4, 68080, Note_on_c, 1, 67, 0
4, 68102, Note_on_c, 1, 74, 0
4, 68160, Note_on_c, 1, 60, 40
4, 68160, Note_on_c, 1, 64, 40
4, 68160, Note_on_c, 1, 67, 40
4, 68160, Note_on_c, 1, 72, 40
4, 68177, Note_on_c, 1, 74, 0
4, 69120, Note_on_c, 1, 72, 40
4, 69120, Note_on_c, 1, 76, 40
4, 69120, Note_on_c, 1, 79, 40
4, 69120, Note_on_c, 1, 72, 40
4, 69120, Note_on_c, 1, 76, 40
4, 69120, Note_on_c, 1, 79, 40
4, 69122, Note_on_c, 1, 67, 0
4, 69122, Note_on_c, 1, 72, 0
4, 69122, Note_on_c, 1, 60, 0
4, 69122, Note_on_c, 1, 64, 0
4, 70017, Note_on_c, 1, 72, 0
4, 70017, Note_on_c, 1, 72, 0
4, 70080, Note_on_c, 1, 71, 40
4, 70080, Note_on_c, 1, 74, 40
4, 70115, Note_on_c, 1, 76, 0
4, 70115, Note_on_c, 1, 76, 0
4, 70260, Note_on_c, 1, 79, 0
4, 70260, Note_on_c, 1, 79, 0
4, 70320, Note_on_c, 1, 78, 40
4, 70420, Note_on_c, 1, 79, 40
4, 70480, Note_on_c, 1, 78, 0
4, 70487, Note_on_c, 1, 79, 0
4, 70540, Note_on_c, 1, 78, 40
4, 70600, Note_on_c, 1, 78, 0
4, 70660, Note_on_c, 1, 79, 40
4, 70720, Note_on_c, 1, 79, 0
4, 70780, Note_on_c, 1, 81, 40
4, 70840, Note_on_c, 1, 81, 0
4, 70900, Note_on_c, 1, 79, 40
4, 70960, Note_on_c, 1, 79, 0
4, 70980, Note_on_c, 1, 71, 0
4, 70982, Note_on_c, 1, 74, 0
4, 71020, Note_on_c, 1, 69, 40
4, 71020, Note_on_c, 1, 72, 40
4, 71020, Note_on_c, 1, 78, 40
4, 71500, Note_on_c, 1, 84, 40
4, 71540, Note_on_c, 1, 78, 0
4, 71917, Note_on_c, 1, 72, 0
4, 71920, Note_on_c, 1, 69, 0
4, 71980, Note_on_c, 1, 74, 40
4, 72000, Note_on_c, 1, 67, 40
4, 72402, Note_on_c, 1, 84, 0
4, 72460, Note_on_c, 1, 83, 40
4, 72880, Note_on_c, 1, 74, 0
4, 72885, Note_on_c, 1, 83, 0
4, 72940, Note_on_c, 1, 73, 40
4, 72940, Note_on_c, 1, 76, 40
4, 72940, Note_on_c, 1, 82, 40
4, 73015, Note_on_c, 1, 67, 0
4, 73600, Note_on_c, 1, 82, 0
4, 73660, Note_on_c, 1, 84, 40
4, 73720, Note_on_c, 1, 84, 0
4, 73780, Note_on_c, 1, 82, 40
4, 73840, Note_on_c, 1, 82, 0
4, 73900, Note_on_c, 1, 81, 40
4, 74322, Note_on_c, 1, 81, 0
4, 74380, Note_on_c, 1, 79, 40
4, 74800, Note_on_c, 1, 79, 0
4, 74800, Note_on_c, 1, 76, 0
4, 74800, Note_on_c, 1, 73, 0
4, 74860, Note_on_c, 1, 74, 40
4, 74860, Note_on_c, 1, 78, 40
4, 75100, Note_on_c, 1, 79, 40
4, 75140, Note_on_c, 1, 78, 0
4, 75277, Note_on_c, 1, 74, 0
4, 75340, Note_on_c, 1, 81, 40
4, 75380, Note_on_c, 1, 79, 0
4, 75580, Note_on_c, 1, 82, 40
4, 75620, Note_on_c, 1, 81, 0
4, 75820, Note_on_c, 1, 83, 40
4, 75857, Note_on_c, 1, 82, 0
4, 76060, Note_on_c, 1, 84, 40
4, 76100, Note_on_c, 1, 83, 0
4, 76300, Note_on_c, 1, 85, 40
4, 76340, Note_on_c, 1, 84, 0
4, 76540, Note_on_c, 1, 86, 40
4, 76580, Note_on_c, 1, 85, 0
4, 76780, Note_on_c, 1, 76, 40
4, 76780, Note_on_c, 1, 79, 40
4, 76780, Note_on_c, 1, 86, 40
4, 76817, Note_on_c, 1, 86, 0
4, 77020, Note_on_c, 1, 88, 40
4, 77060, Note_on_c, 1, 86, 0
4, 77140, Note_on_c, 1, 86, 40
4, 77180, Note_on_c, 1, 88, 0
4, 77280, Note_on_c, 1, 84, 40
4, 77302, Note_on_c, 1, 86, 0
4, 77445, Note_on_c, 1, 76, 0
4, 77445, Note_on_c, 1, 79, 0
4, 77520, Note_on_c, 1, 74, 40
4, 77520, Note_on_c, 1, 78, 40
4, 77520, Note_on_c, 1, 83, 40
4, 77560, Note_on_c, 1, 84, 0
4, 77692, Note_on_c, 1, 78, 0
4, 77695, Note_on_c, 1, 74, 0
4, 77740, Note_on_c, 1, 83, 40
4, 77760, Note_on_c, 1, 72, 40
4, 77760, Note_on_c, 1, 76, 40
4, 77777, Note_on_c, 1, 83, 0
4, 77980, Note_on_c, 1, 81, 40
4, 78040, Note_on_c, 1, 83, 0
4, 78172, Note_on_c, 1, 72, 0
4, 78175, Note_on_c, 1, 76, 0
4, 78220, Note_on_c, 1, 71, 40
4, 78220, Note_on_c, 1, 74, 40
4, 78260, Note_on_c, 1, 81, 0
4, 78460, Note_on_c, 1, 79, 40
4, 78640, Note_on_c, 1, 74, 0
4, 78640, Note_on_c, 1, 71, 0
4, 78700, Note_on_c, 1, 69, 40
4, 78700, Note_on_c, 1, 72, 40
4, 78700, Note_on_c, 1, 79, 40
4, 78737, Note_on_c, 1, 79, 0
4, 78940, Note_on_c, 1, 81, 40
4, 78980, Note_on_c, 1, 79, 0
4, 79060, Note_on_c, 1, 79, 40
4, 79100, Note_on_c, 1, 81, 0
4, 79200, Note_on_c, 1, 78, 40
4, 79222, Note_on_c, 1, 79, 0
4, 79365, Note_on_c, 1, 69, 0
4, 79365, Note_on_c, 1, 72, 0
4, 79440, Note_on_c, 1, 67, 40
4, 79440, Note_on_c, 1, 71, 40
4, 79440, Note_on_c, 1, 76, 40
4, 79480, Note_on_c, 1, 78, 0
4, 79612, Note_on_c, 1, 71, 0
4, 79615, Note_on_c, 1, 67, 0
4, 79660, Note_on_c, 1, 76, 40
4, 79680, Note_on_c, 1, 66, 40
4, 79680, Note_on_c, 1, 69, 40
4, 79697, Note_on_c, 1, 76, 0
4, 79900, Note_on_c, 1, 74, 40
4, 79960, Note_on_c, 1, 76, 0
4, 80092, Note_on_c, 1, 69, 0
4, 80092, Note_on_c, 1, 66, 0
4, 80140, Note_on_c, 1, 63, 40
4, 80140, Note_on_c, 1, 66, 40
4, 80180, Note_on_c, 1, 74, 0
4, 80380, Note_on_c, 1, 72, 40
4, 80560, Note_on_c, 1, 66, 0
4, 80560, Note_on_c, 1, 63, 0
4, 80562, Note_on_c, 1, 72, 0
4, 80620, Note_on_c, 1, 64, 40
4, 80620, Note_on_c, 1, 67, 40
4, 80620, Note_on_c, 1, 71, 40
4, 80860, Note_on_c, 1, 79, 40
4, 80900, Note_on_c, 1, 71, 0
4, 81037, Note_on_c, 1, 67, 0
4, 81040, Note_on_c, 1, 64, 0
4, 81100, Note_on_c, 1, 76, 40
4, 81120, Note_on_c, 1, 60, 40
4, 81140, Note_on_c, 1, 79, 0
4, 81340, Note_on_c, 1, 81, 40
4, 81380, Note_on_c, 1, 76, 0
4, 81532, Note_on_c, 1, 60, 0
4, 81580, Note_on_c, 1, 81, 40
4, 81600, Note_on_c, 1, 62, 40
4, 81600, Note_on_c, 1, 71, 40
4, 81600, Note_on_c, 1, 74, 40
4, 81617, Note_on_c, 1, 81, 0
4, 81760, Note_on_c, 1, 81, 0
4, 81820, Note_on_c, 1, 79, 40
4, 82012, Note_on_c, 1, 74, 0
4, 82012, Note_on_c, 1, 62, 0
4, 82015, Note_on_c, 1, 71, 0
4, 82060, Note_on_c, 1, 69, 40
4, 82080, Note_on_c, 1, 62, 40
4, 82080, Note_on_c, 1, 72, 40
4, 82240, Note_on_c, 1, 79, 0
4, 82300, Note_on_c, 1, 78, 40
4, 82480, Note_on_c, 1, 78, 0
4, 82482, Note_on_c, 1, 69, 0
4, 82492, Note_on_c, 1, 62, 0
4, 82495, Note_on_c, 1, 72, 0
4, 82540, Note_on_c, 1, 67, 40
4, 82540, Note_on_c, 1, 72, 40
4, 82540, Note_on_c, 1, 78, 40
4, 82540, Note_on_c, 1, 81, 40
4, 83440, Note_on_c, 1, 81, 0
4, 83440, Note_on_c, 1, 67, 0
4, 83440, Note_on_c, 1, 72, 0
4, 83442, Note_on_c, 1, 78, 0
4, 83520, Note_on_c, 1, 67, 40
4, 83520, Note_on_c, 1, 71, 40
4, 83520, Note_on_c, 1, 79, 40
4, 83940, Note_on_c, 1, 79, 0
4, 83940, Note_on_c, 1, 71, 0
4, 83940, Note_on_c, 1, 67, 0
4, 84000, Note_on_c, 1, 80, 40
4, 84420, Note_on_c, 1, 80, 0
4, 84480, Note_on_c, 1, 81, 40
4, 84960, Note_on_c, 1, 73, 40
4, 84960, Note_on_c, 1, 79, 40
4, 85375, Note_on_c, 1, 73, 0
4, 85380, Note_on_c, 1, 79, 0
4, 85440, Note_on_c, 1, 74, 40
4, 85440, Note_on_c, 1, 78, 40
4, 85620, Note_on_c, 1, 81, 0
4, 85680, Note_on_c, 1, 83, 40
4, 85860, Note_on_c, 1, 74, 0
4, 85862, Note_on_c, 1, 78, 0
4, 85920, Note_on_c, 1, 85, 40
4, 85960, Note_on_c, 1, 83, 0
4, 86100, Note_on_c, 1, 85, 0
4, 86160, Note_on_c, 1, 86, 40
4, 86340, Note_on_c, 1, 86, 0
4, 86400, Note_on_c, 1, 79, 40
4, 86880, Note_on_c, 1, 71, 40
4, 86880, Note_on_c, 1, 77, 40
4, 87295, Note_on_c, 1, 71, 0
4, 87300, Note_on_c, 1, 77, 0
4, 87360, Note_on_c, 1, 72, 40
4, 87360, Note_on_c, 1, 76, 40
4, 87540, Note_on_c, 1, 79, 0
4, 87600, Note_on_c, 1, 81, 40
4, 87780, Note_on_c, 1, 72, 0
4, 87782, Note_on_c, 1, 76, 0
4, 87840, Note_on_c, 1, 83, 40
4, 87880, Note_on_c, 1, 81, 0
4, 88080, Note_on_c, 1, 84, 40
4, 88120, Note_on_c, 1, 83, 0
4, 88320, Note_on_c, 1, 67, 40
4, 88320, Note_on_c, 1, 72, 40
4, 88320, Note_on_c, 1, 76, 40
4, 88320, Note_on_c, 1, 78, 40
4, 88357, Note_on_c, 1, 84, 0
4, 89215, Note_on_c, 1, 72, 0
4, 89217, Note_on_c, 1, 76, 0
4, 89260, Note_on_c, 1, 74, 40
4, 89280, Note_on_c, 1, 71, 40
4, 89682, Note_on_c, 1, 74, 0
4, 89695, Note_on_c, 1, 71, 0
4, 89740, Note_on_c, 1, 72, 40
4, 89760, Note_on_c, 1, 69, 40
4, 90160, Note_on_c, 1, 72, 0
4, 90175, Note_on_c, 1, 69, 0
4, 90180, Note_on_c, 1, 67, 0
4, 90182, Note_on_c, 1, 78, 0
4, 90220, Note_on_c, 1, 67, 40
4, 90220, Note_on_c, 1, 71, 40
4, 90220, Note_on_c, 1, 74, 40
4, 90220, Note_on_c, 1, 77, 40
4, 90640, Note_on_c, 1, 74, 0
4, 90640, Note_on_c, 1, 71, 0
4, 90757, Note_on_c, 1, 67, 0
4, 90880, Note_on_c, 1, 77, 0
4, 90960, Note_on_c, 1, 73, 40
4, 91140, Note_on_c, 1, 73, 0
4, 91200, Note_on_c, 1, 74, 40
4, 91440, Note_on_c, 1, 76, 40
4, 91480, Note_on_c, 1, 74, 0
4, 91680, Note_on_c, 1, 77, 40
4, 91720, Note_on_c, 1, 76, 0
4, 91920, Note_on_c, 1, 78, 40
4, 91960, Note_on_c, 1, 77, 0
4, 92160, Note_on_c, 1, 60, 40
4, 92160, Note_on_c, 1, 76, 40
4, 92160, Note_on_c, 1, 79, 40
4, 92197, Note_on_c, 1, 78, 0
4, 92620, Note_on_c, 1, 64, 40
4, 92677, Note_on_c, 1, 60, 0
4, 93100, Note_on_c, 1, 67, 40
4, 93137, Note_on_c, 1, 64, 0
4, 93522, Note_on_c, 1, 67, 0
4, 93540, Note_on_c, 1, 76, 0
4, 93542, Note_on_c, 1, 79, 0
4, 93580, Note_on_c, 1, 68, 40
4, 93580, Note_on_c, 1, 74, 40
4, 93580, Note_on_c, 1, 77, 40
4, 94000, Note_on_c, 1, 77, 0
4, 94000, Note_on_c, 1, 74, 0
4, 94000, Note_on_c, 1, 68, 0
4, 94060, Note_on_c, 1, 69, 40
4, 94060, Note_on_c, 1, 74, 40
4, 94060, Note_on_c, 1, 77, 40
4, 94480, Note_on_c, 1, 77, 0
4, 94540, Note_on_c, 1, 76, 40
4, 94660, Note_on_c, 1, 77, 40
4, 94700, Note_on_c, 1, 76, 0
4, 94780, Note_on_c, 1, 79, 40
4, 94820, Note_on_c, 1, 77, 0
4, 94900, Note_on_c, 1, 77, 40
4, 94940, Note_on_c, 1, 79, 0
4, 95020, Note_on_c, 1, 76, 40
4, 95040, Note_on_c, 1, 72, 40
4, 95055, Note_on_c, 1, 74, 0
4, 95060, Note_on_c, 1, 77, 0
4, 95445, Note_on_c, 1, 69, 0
4, 95500, Note_on_c, 1, 67, 40
4, 95540, Note_on_c, 1, 76, 0
4, 95572, Note_on_c, 1, 72, 0
4, 95920, Note_on_c, 1, 67, 0
4, 95980, Note_on_c, 1, 65, 40
4, 95980, Note_on_c, 1, 74, 40
4, 95980, Note_on_c, 1, 77, 40
4, 96157, Note_on_c, 1, 74, 0
4, 96160, Note_on_c, 1, 77, 0
4, 96220, Note_on_c, 1, 67, 40
4, 96220, Note_on_c, 1, 73, 40
4, 96220, Note_on_c, 1, 76, 40
4, 96257, Note_on_c, 1, 65, 0
4, 96400, Note_on_c, 1, 73, 0
4, 96402, Note_on_c, 1, 76, 0
4, 96460, Note_on_c, 1, 77, 40
4, 96480, Note_on_c, 1, 65, 40
4, 96480, Note_on_c, 1, 74, 40
4, 96497, Note_on_c, 1, 67, 0
4, 96640, Note_on_c, 1, 77, 0
4, 96652, Note_on_c, 1, 74, 0
4, 96700, Note_on_c, 1, 79, 40
4, 96720, Note_on_c, 1, 64, 40
4, 96720, Note_on_c, 1, 76, 40
4, 96750, Note_on_c, 1, 65, 0
4, 96880, Note_on_c, 1, 79, 0
4, 96895, Note_on_c, 1, 76, 0
4, 96940, Note_on_c, 1, 81, 40
4, 96960, Note_on_c, 1, 62, 40
4, 96960, Note_on_c, 1, 77, 40
4, 96990, Note_on_c, 1, 64, 0
4, 97180, Note_on_c, 1, 79, 40
4, 97200, Note_on_c, 1, 64, 40
4, 97200, Note_on_c, 1, 76, 40
4, 97220, Note_on_c, 1, 81, 0
4, 97232, Note_on_c, 1, 77, 0
4, 97232, Note_on_c, 1, 62, 0
4, 97420, Note_on_c, 1, 77, 40
4, 97440, Note_on_c, 1, 65, 40
4, 97440, Note_on_c, 1, 74, 40
4, 97460, Note_on_c, 1, 79, 0
4, 97472, Note_on_c, 1, 76, 0
4, 97475, Note_on_c, 1, 64, 0
4, 97660, Note_on_c, 1, 66, 40
4, 97660, Note_on_c, 1, 72, 40
4, 97660, Note_on_c, 1, 76, 40
4, 97700, Note_on_c, 1, 77, 0
4, 97712, Note_on_c, 1, 74, 0
4, 97712, Note_on_c, 1, 65, 0
4, 97840, Note_on_c, 1, 76, 0
4, 97840, Note_on_c, 1, 72, 0
4, 97900, Note_on_c, 1, 76, 40
4, 97920, Note_on_c, 1, 67, 40
4, 97920, Note_on_c, 1, 72, 40
4, 97935, Note_on_c, 1, 66, 0
4, 98320, Note_on_c, 1, 76, 0
4, 98380, Note_on_c, 1, 74, 40
4, 98500, Note_on_c, 1, 76, 40
4, 98540, Note_on_c, 1, 74, 0
4, 98620, Note_on_c, 1, 77, 40
4, 98660, Note_on_c, 1, 76, 0
4, 98740, Note_on_c, 1, 76, 40
4, 98780, Note_on_c, 1, 77, 0
4, 98812, Note_on_c, 1, 72, 0
4, 98815, Note_on_c, 1, 67, 0
4, 98860, Note_on_c, 1, 74, 40
4, 98880, Note_on_c, 1, 67, 40
4, 98880, Note_on_c, 1, 71, 40
4, 98897, Note_on_c, 1, 76, 0
4, 99100, Note_on_c, 1, 76, 40
4, 99140, Note_on_c, 1, 74, 0
4, 99295, Note_on_c, 1, 71, 0
4, 99340, Note_on_c, 1, 77, 40
4, 99380, Note_on_c, 1, 76, 0
4, 99412, Note_on_c, 1, 67, 0
4, 99580, Note_on_c, 1, 78, 40
4, 99620, Note_on_c, 1, 77, 0
4, 99820, Note_on_c, 1, 60, 40
4, 99820, Note_on_c, 1, 79, 40
4, 99857, Note_on_c, 1, 78, 0
4, 100060, Note_on_c, 1, 83, 40
4, 100100, Note_on_c, 1, 79, 0
4, 100180, Note_on_c, 1, 81, 40
4, 100220, Note_on_c, 1, 83, 0
4, 100300, Note_on_c, 1, 84, 40
4, 100320, Note_on_c, 1, 64, 40
4, 100337, Note_on_c, 1, 60, 0
4, 100342, Note_on_c, 1, 81, 0
4, 100420, Note_on_c, 1, 83, 40
4, 100460, Note_on_c, 1, 84, 0
4, 100540, Note_on_c, 1, 86, 40
4, 100580, Note_on_c, 1, 83, 0
4, 100660, Note_on_c, 1, 84, 40
4, 100700, Note_on_c, 1, 86, 0
4, 100732, Note_on_c, 1, 64, 0
4, 100780, Note_on_c, 1, 79, 40
4, 100800, Note_on_c, 1, 67, 40
4, 100800, Note_on_c, 1, 76, 40
4, 100817, Note_on_c, 1, 84, 0
4, 101200, Note_on_c, 1, 79, 0
4, 101212, Note_on_c, 1, 67, 0
4, 101215, Note_on_c, 1, 76, 0
4, 101260, Note_on_c, 1, 68, 40
4, 101260, Note_on_c, 1, 74, 40
4, 101260, Note_on_c, 1, 77, 40
4, 101680, Note_on_c, 1, 77, 0
4, 101680, Note_on_c, 1, 74, 0
4, 101680, Note_on_c, 1, 68, 0
4, 101740, Note_on_c, 1, 69, 40
4, 101740, Note_on_c, 1, 74, 40
4, 101740, Note_on_c, 1, 77, 40
4, 102220, Note_on_c, 1, 70, 40
4, 102257, Note_on_c, 1, 69, 0
4, 102640, Note_on_c, 1, 77, 0
4, 102642, Note_on_c, 1, 74, 0
4, 102700, Note_on_c, 1, 76, 40
4, 102720, Note_on_c, 1, 73, 40
4, 103122, Note_on_c, 1, 70, 0
4, 103180, Note_on_c, 1, 69, 40
4, 103355, Note_on_c, 1, 69, 0
4, 103420, Note_on_c, 1, 67, 40
4, 103600, Note_on_c, 1, 76, 0
4, 103605, Note_on_c, 1, 67, 0
4, 103615, Note_on_c, 1, 73, 0
4, 103660, Note_on_c, 1, 65, 40
4, 103660, Note_on_c, 1, 69, 40
4, 103660, Note_on_c, 1, 74, 40
4, 103660, Note_on_c, 1, 77, 40
4, 103780, Note_on_c, 1, 79, 40
4, 103820, Note_on_c, 1, 77, 0
4, 103900, Note_on_c, 1, 77, 40
4, 103940, Note_on_c, 1, 79, 0
4, 104020, Note_on_c, 1, 76, 40
4, 104060, Note_on_c, 1, 77, 0
4, 104140, Note_on_c, 1, 77, 40
4, 104182, Note_on_c, 1, 76, 0
4, 104260, Note_on_c, 1, 79, 40
4, 104300, Note_on_c, 1, 77, 0
4, 104380, Note_on_c, 1, 81, 40
4, 104420, Note_on_c, 1, 79, 0
4, 104500, Note_on_c, 1, 77, 40
4, 104540, Note_on_c, 1, 81, 0
4, 104557, Note_on_c, 1, 69, 0
4, 104557, Note_on_c, 1, 65, 0
4, 104560, Note_on_c, 1, 74, 0
4, 104620, Note_on_c, 1, 76, 40
4, 104640, Note_on_c, 1, 67, 40
4, 104640, Note_on_c, 1, 72, 40
4, 104657, Note_on_c, 1, 77, 0
4, 104740, Note_on_c, 1, 77, 40
4, 104780, Note_on_c, 1, 76, 0
4, 104860, Note_on_c, 1, 78, 40
4, 104900, Note_on_c, 1, 77, 0
4, 104980, Note_on_c, 1, 79, 40
4, 105020, Note_on_c, 1, 78, 0
4, 105100, Note_on_c, 1, 79, 40
4, 105120, Note_on_c, 1, 71, 40
4, 105140, Note_on_c, 1, 79, 0
4, 105152, Note_on_c, 1, 72, 0
4, 105162, Note_on_c, 1, 79, 0
4, 105220, Note_on_c, 1, 77, 40
4, 105275, Note_on_c, 1, 77, 0
4, 105340, Note_on_c, 1, 76, 40
4, 105400, Note_on_c, 1, 76, 0
4, 105460, Note_on_c, 1, 74, 40
4, 105520, Note_on_c, 1, 74, 0
4, 105535, Note_on_c, 1, 71, 0
4, 105537, Note_on_c, 1, 67, 0
4, 105580, Note_on_c, 1, 60, 40
4, 105580, Note_on_c, 1, 65, 40
4, 105580, Note_on_c, 1, 67, 40
4, 105580, Note_on_c, 1, 74, 40
4, 105580, Note_on_c, 1, 74, 40
4, 106232, Note_on_c, 1, 74, 0
4, 106320, Note_on_c, 1, 76, 40
4, 106440, Note_on_c, 1, 74, 40
4, 106477, Note_on_c, 1, 60, 0
4, 106480, Note_on_c, 1, 76, 0
4, 106480, Note_on_c, 1, 65, 0
4, 106480, Note_on_c, 1, 67, 0
4, 106502, Note_on_c, 1, 74, 0
4, 106560, Note_on_c, 1, 60, 40
4, 106560, Note_on_c, 1, 64, 40
4, 106560, Note_on_c, 1, 67, 40
4, 106560, Note_on_c, 1, 72, 40
4, 106577, Note_on_c, 1, 74, 0
4, 107522, Note_on_c, 1, 67, 0
4, 107522, Note_on_c, 1, 60, 0
4, 107522, Note_on_c, 1, 64, 0
4, 107522, Note_on_c, 1, 72, 0
4, 107522, End_track
5, 0, Start_track
5, 0, Title_t, "Huszkoreit@aol.com"
5, 0, End_track
6, 0, Start_track
6, 0, End_track
0, 0, End_of_file