0, 0, Header, 1, 11, 480
1, 0, Start_track
1, 0, Title_t, "untitled"
1, 0, Time_signature, 4, 2, 24, 8
1, 0, Key_signature, 0, "major"
1, 0, Tempo, 300000
1, 30720, Tempo, 309278
1, 32640, Tempo, 300000
1, 46080, Tempo, 312500
1, 48000, Tempo, 310881
1, 49920, Tempo, 300000
1, 128640, Tempo, 309278
1, 136320, Tempo, 300000
1, 140160, Tempo, 312500
1, 144000, Tempo, 327869
1, 145920, Tempo, 309278
1, 147840, Tempo, 300000
1, 176640, Tempo, 309278
1, 178560, Tempo, 300000
1, 192000, Tempo, 312500
1, 193920, Tempo, 310881
1, 195840, Tempo, 300000
1, 274560, Tempo, 309278
1, 282240, Tempo, 300000
1, 286080, Tempo, 312500
1, 289920, Tempo, 327869
1, 291840, Tempo, 309278
1, 293760, Tempo, 300000
1, 349440, Tempo, 322581
1, 353280, Tempo, 300000
1, 401280, Tempo, 309278
1, 403200, Tempo, 312500
1, 405120, Tempo, 300000
1, 497280, Tempo, 331492
1, 499200, Tempo, 329670
1, 501120, Tempo, 338983
1, 503040, Tempo, 322581
1, 504960, Tempo, 300000
1, 513120, Tempo, 304569
1, 513600, Tempo, 310881
1, 514080, Tempo, 315789
1, 514560, Tempo, 320856
1, 515040, Tempo, 327869
1, 515520, Tempo, 331492
1, 516000, Tempo, 337079
1, 516480, Tempo, 405405
1, 518400, Tempo, 526316
1, 520320, Tempo, 1000000
1, 520320, End_track
2, 0, Start_track
2, 0, Program_c, 0, 68
2, 0, Control_c, 0, 7, 94
2, 0, Control_c, 0, 10, 82
2, 0, Control_c, 0, 91, 80
2, 17280, Note_on_c, 0, 67, 80
2, 17592, Note_on_c, 0, 67, 0
2, 17760, Note_on_c, 0, 62, 105
2, 18072, Note_on_c, 0, 62, 0
2, 18240, Note_on_c, 0, 70, 105
2, 18816, Note_on_c, 0, 70, 0
2, 18960, Note_on_c, 0, 69, 105
2, 19116, Note_on_c, 0, 69, 0
2, 19200, Note_on_c, 0, 67, 105
2, 19512, Note_on_c, 0, 67, 0
2, 19680, Note_on_c, 0, 79, 105
2, 19680, Note_on_c, 0, 74, 105
2, 20160, Note_on_c, 0, 74, 0
2, 20160, Note_on_c, 0, 79, 0
2, 20160, Note_on_c, 0, 78, 105
2, 20160, Note_on_c, 0, 72, 105
2, 20640, Note_on_c, 0, 72, 0
2, 20640, Note_on_c, 0, 78, 0
2, 20640, Note_on_c, 0, 70, 105
2, 20640, Note_on_c, 0, 79, 105
2, 21120, Note_on_c, 0, 79, 0
2, 21120, Note_on_c, 0, 70, 0
2, 21120, Note_on_c, 0, 69, 105
2, 21120, Note_on_c, 0, 81, 105
2, 21432, Note_on_c, 0, 81, 0
2, 21432, Note_on_c, 0, 69, 0
2, 21600, Note_on_c, 0, 62, 105
2, 21912, Note_on_c, 0, 62, 0
2, 22080, Note_on_c, 0, 72, 105
2, 22656, Note_on_c, 0, 72, 0
2, 22800, Note_on_c, 0, 70, 105
2, 22956, Note_on_c, 0, 70, 0
2, 23040, Note_on_c, 0, 69, 105
2, 23352, Note_on_c, 0, 69, 0
2, 23520, Note_on_c, 0, 75, 105
2, 23520, Note_on_c, 0, 81, 105
2, 24000, Note_on_c, 0, 81, 0
2, 24000, Note_on_c, 0, 75, 0
2, 24000, Note_on_c, 0, 74, 105
2, 24000, Note_on_c, 0, 79, 105
2, 24480, Note_on_c, 0, 79, 0
2, 24480, Note_on_c, 0, 74, 0
2, 24480, Note_on_c, 0, 78, 105
2, 24480, Note_on_c, 0, 81, 105
2, 24960, Note_on_c, 0, 81, 0
2, 24960, Note_on_c, 0, 78, 0
2, 24960, Note_on_c, 0, 79, 105
2, 24960, Note_on_c, 0, 82, 105
2, 25272, Note_on_c, 0, 82, 0
2, 25272, Note_on_c, 0, 79, 0
2, 25440, Note_on_c, 0, 67, 105
2, 25752, Note_on_c, 0, 67, 0
2, 25920, Note_on_c, 0, 79, 105
2, 26496, Note_on_c, 0, 79, 0
2, 26640, Note_on_c, 0, 77, 105
2, 26796, Note_on_c, 0, 77, 0
2, 26880, Note_on_c, 0, 75, 105
2, 27192, Note_on_c, 0, 75, 0
2, 27360, Note_on_c, 0, 72, 105
2, 27672, Note_on_c, 0, 72, 0
2, 27840, Note_on_c, 0, 69, 105
2, 28608, Note_on_c, 0, 69, 0
2, 28800, Note_on_c, 0, 74, 105
2, 28800, Note_on_c, 0, 62, 105
2, 29112, Note_on_c, 0, 62, 0
2, 29112, Note_on_c, 0, 74, 0
2, 29280, Note_on_c, 0, 67, 105
2, 29280, Note_on_c, 0, 70, 105
2, 29592, Note_on_c, 0, 70, 0
2, 29760, Note_on_c, 0, 69, 105
2, 30072, Note_on_c, 0, 67, 0
2, 30240, Note_on_c, 0, 66, 105
2, 30552, Note_on_c, 0, 66, 0
2, 30552, Note_on_c, 0, 69, 0
2, 30720, Note_on_c, 0, 67, 105
2, 31488, Note_on_c, 0, 67, 0
2, 50880, Note_on_c, 0, 75, 105
2, 51036, Note_on_c, 0, 75, 0
2, 51120, Note_on_c, 0, 74, 105
2, 51276, Note_on_c, 0, 74, 0
2, 51360, Note_on_c, 0, 72, 105
2, 51516, Note_on_c, 0, 72, 0
2, 51600, Note_on_c, 0, 70, 105
2, 51756, Note_on_c, 0, 70, 0
2, 51840, Note_on_c, 0, 69, 105
2, 52080, Note_on_c, 0, 69, 0
2, 52080, Note_on_c, 0, 70, 105
2, 52236, Note_on_c, 0, 70, 0
2, 52320, Note_on_c, 0, 69, 105
2, 52476, Note_on_c, 0, 69, 0
2, 52560, Note_on_c, 0, 67, 105
2, 52716, Note_on_c, 0, 67, 0
2, 52800, Note_on_c, 0, 65, 105
2, 53184, Note_on_c, 0, 65, 0
2, 55680, Note_on_c, 0, 76, 105
2, 55680, Note_on_c, 0, 70, 105
2, 55920, Note_on_c, 0, 70, 0
2, 55920, Note_on_c, 0, 76, 0
2, 56160, Note_on_c, 0, 77, 105
2, 56160, Note_on_c, 0, 72, 105
2, 56400, Note_on_c, 0, 72, 0
2, 56400, Note_on_c, 0, 77, 0
2, 57600, Note_on_c, 0, 73, 105
2, 57600, Note_on_c, 0, 67, 105
2, 57840, Note_on_c, 0, 67, 0
2, 57840, Note_on_c, 0, 73, 0
2, 58080, Note_on_c, 0, 74, 105
2, 58080, Note_on_c, 0, 69, 105
2, 58320, Note_on_c, 0, 69, 0
2, 58320, Note_on_c, 0, 74, 0
2, 59520, Note_on_c, 0, 69, 105
2, 59520, Note_on_c, 0, 63, 105
2, 59760, Note_on_c, 0, 63, 0
2, 59760, Note_on_c, 0, 69, 0
2, 60000, Note_on_c, 0, 65, 105
2, 60000, Note_on_c, 0, 70, 105
2, 60240, Note_on_c, 0, 70, 0
2, 60240, Note_on_c, 0, 65, 0
2, 60480, Note_on_c, 0, 75, 105
2, 60720, Note_on_c, 0, 75, 0
2, 60720, Note_on_c, 0, 77, 105
2, 60960, Note_on_c, 0, 77, 0
2, 60960, Note_on_c, 0, 79, 105
2, 61152, Note_on_c, 0, 79, 0
2, 61200, Note_on_c, 0, 77, 105
2, 61344, Note_on_c, 0, 77, 0
2, 61440, Note_on_c, 0, 75, 105
2, 61584, Note_on_c, 0, 75, 0
2, 61680, Note_on_c, 0, 74, 105
2, 61824, Note_on_c, 0, 74, 0
2, 61920, Note_on_c, 0, 72, 105
2, 62064, Note_on_c, 0, 72, 0
2, 62160, Note_on_c, 0, 70, 105
2, 62304, Note_on_c, 0, 70, 0
2, 62400, Note_on_c, 0, 69, 105
2, 62640, Note_on_c, 0, 69, 0
2, 62640, Note_on_c, 0, 70, 105
2, 62880, Note_on_c, 0, 70, 0
2, 62880, Note_on_c, 0, 72, 105
2, 63120, Note_on_c, 0, 72, 0
2, 63120, Note_on_c, 0, 69, 105
2, 63312, Note_on_c, 0, 69, 0
2, 63360, Note_on_c, 0, 70, 105
2, 63744, Note_on_c, 0, 70, 0
2, 65760, Note_on_c, 0, 79, 105
2, 65760, Note_on_c, 0, 75, 105
2, 66072, Note_on_c, 0, 75, 0
2, 66072, Note_on_c, 0, 79, 0
2, 66240, Note_on_c, 0, 74, 105
2, 66240, Note_on_c, 0, 77, 105
2, 66552, Note_on_c, 0, 77, 0
2, 66552, Note_on_c, 0, 74, 0
2, 66720, Note_on_c, 0, 72, 105
2, 66720, Note_on_c, 0, 75, 105
2, 67032, Note_on_c, 0, 75, 0
2, 67032, Note_on_c, 0, 72, 0
2, 67200, Note_on_c, 0, 74, 105
2, 67200, Note_on_c, 0, 70, 105
2, 67512, Note_on_c, 0, 70, 0
2, 67512, Note_on_c, 0, 74, 0
2, 67680, Note_on_c, 0, 77, 105
2, 67992, Note_on_c, 0, 77, 0
2, 68160, Note_on_c, 0, 86, 105
2, 68736, Note_on_c, 0, 86, 0
2, 68880, Note_on_c, 0, 84, 105
2, 69036, Note_on_c, 0, 84, 0
2, 69120, Note_on_c, 0, 82, 105
2, 69408, Note_on_c, 0, 82, 0
2, 69600, Note_on_c, 0, 77, 105
2, 69888, Note_on_c, 0, 77, 0
2, 70080, Note_on_c, 0, 74, 105
2, 70368, Note_on_c, 0, 74, 0
2, 70560, Note_on_c, 0, 70, 105
2, 70848, Note_on_c, 0, 70, 0
2, 71040, Note_on_c, 0, 77, 92
2, 71352, Note_on_c, 0, 77, 0
2, 86400, Note_on_c, 0, 65, 58
2, 86400, Note_on_c, 0, 77, 58
2, 93120, Note_on_c, 0, 77, 0
2, 93120, Note_on_c, 0, 75, 58
2, 94080, Note_on_c, 0, 75, 0
2, 94080, Note_on_c, 0, 74, 58
2, 94464, Note_on_c, 0, 74, 0
2, 94464, Note_on_c, 0, 65, 0
2, 94560, Note_on_c, 0, 74, 105
2, 94560, Note_on_c, 0, 70, 105
2, 96960, Note_on_c, 0, 74, 0
2, 96960, Note_on_c, 0, 77, 105
2, 97440, Note_on_c, 0, 70, 0
2, 97440, Note_on_c, 0, 74, 105
2, 97824, Note_on_c, 0, 74, 0
2, 97824, Note_on_c, 0, 77, 0
2, 97920, Note_on_c, 0, 77, 105
2, 97920, Note_on_c, 0, 75, 105
2, 101376, Note_on_c, 0, 75, 0
2, 101376, Note_on_c, 0, 77, 0
2, 101760, Note_on_c, 0, 77, 105
2, 101760, Note_on_c, 0, 74, 105
2, 102528, Note_on_c, 0, 74, 0
2, 102528, Note_on_c, 0, 77, 0
2, 102720, Note_on_c, 0, 81, 105
2, 102720, Note_on_c, 0, 77, 105
2, 103488, Note_on_c, 0, 77, 0
2, 103488, Note_on_c, 0, 81, 0
2, 103680, Note_on_c, 0, 75, 105
2, 103680, Note_on_c, 0, 79, 105
2, 104448, Note_on_c, 0, 79, 0
2, 104448, Note_on_c, 0, 75, 0
2, 104640, Note_on_c, 0, 70, 105
2, 104640, Note_on_c, 0, 76, 105
2, 105408, Note_on_c, 0, 76, 0
2, 105408, Note_on_c, 0, 70, 0
2, 105600, Note_on_c, 0, 77, 105
2, 105600, Note_on_c, 0, 72, 105
2, 106560, Note_on_c, 0, 72, 0
2, 106560, Note_on_c, 0, 77, 0
2, 106560, Note_on_c, 0, 69, 105
2, 106560, Note_on_c, 0, 75, 105
2, 107328, Note_on_c, 0, 75, 0
2, 107328, Note_on_c, 0, 69, 0
2, 107520, Note_on_c, 0, 70, 105
2, 107520, Note_on_c, 0, 74, 105
2, 107832, Note_on_c, 0, 74, 0
2, 107832, Note_on_c, 0, 70, 0
2, 108000, Note_on_c, 0, 77, 105
2, 108000, Note_on_c, 0, 82, 105
2, 108312, Note_on_c, 0, 82, 0
2, 108312, Note_on_c, 0, 77, 0
2, 108480, Note_on_c, 0, 79, 105
2, 108480, Note_on_c, 0, 75, 105
2, 108792, Note_on_c, 0, 75, 0
2, 108792, Note_on_c, 0, 79, 0
2, 108960, Note_on_c, 0, 69, 105
2, 108960, Note_on_c, 0, 63, 105
2, 109272, Note_on_c, 0, 63, 0
2, 109272, Note_on_c, 0, 69, 0
2, 109440, Note_on_c, 0, 62, 105
2, 109440, Note_on_c, 0, 70, 105
2, 109824, Note_on_c, 0, 70, 0
2, 109824, Note_on_c, 0, 62, 0
2, 109920, Note_on_c, 0, 80, 105
2, 109920, Note_on_c, 0, 77, 105
2, 111072, Note_on_c, 0, 77, 0
2, 111072, Note_on_c, 0, 80, 0
2, 111360, Note_on_c, 0, 79, 105
2, 111360, Note_on_c, 0, 75, 105
2, 112128, Note_on_c, 0, 75, 0
2, 112128, Note_on_c, 0, 79, 0
2, 112320, Note_on_c, 0, 76, 105
2, 112320, Note_on_c, 0, 70, 105
2, 113088, Note_on_c, 0, 70, 0
2, 113088, Note_on_c, 0, 76, 0
2, 113280, Note_on_c, 0, 77, 105
2, 113280, Note_on_c, 0, 72, 105
2, 114240, Note_on_c, 0, 72, 0
2, 114240, Note_on_c, 0, 77, 0
2, 114240, Note_on_c, 0, 69, 105
2, 114240, Note_on_c, 0, 75, 105
2, 115008, Note_on_c, 0, 75, 0
2, 115008, Note_on_c, 0, 69, 0
2, 115200, Note_on_c, 0, 74, 105
2, 115200, Note_on_c, 0, 70, 105
2, 115488, Note_on_c, 0, 70, 0
2, 115488, Note_on_c, 0, 74, 0
2, 115680, Note_on_c, 0, 74, 105
2, 115680, Note_on_c, 0, 82, 105
2, 115968, Note_on_c, 0, 74, 0
2, 116160, Note_on_c, 0, 72, 105
2, 116448, Note_on_c, 0, 82, 0
2, 116640, Note_on_c, 0, 81, 105
2, 116928, Note_on_c, 0, 81, 0
2, 116928, Note_on_c, 0, 72, 0
2, 117120, Note_on_c, 0, 82, 105
2, 117120, Note_on_c, 0, 70, 105
2, 117504, Note_on_c, 0, 70, 0
2, 117504, Note_on_c, 0, 82, 0
2, 118080, Note_on_c, 0, 74, 105
2, 118656, Note_on_c, 0, 74, 0
2, 118800, Note_on_c, 0, 72, 105
2, 118992, Note_on_c, 0, 72, 0
2, 119040, Note_on_c, 0, 70, 105
2, 119616, Note_on_c, 0, 70, 0
2, 119760, Note_on_c, 0, 69, 105
2, 119952, Note_on_c, 0, 69, 0
2, 120000, Note_on_c, 0, 67, 105
2, 120576, Note_on_c, 0, 67, 0
2, 120720, Note_on_c, 0, 65, 105
2, 120912, Note_on_c, 0, 65, 0
2, 120960, Note_on_c, 0, 63, 105
2, 121344, Note_on_c, 0, 63, 0
2, 122880, Note_on_c, 0, 75, 105
2, 122880, Note_on_c, 0, 72, 105
2, 123264, Note_on_c, 0, 72, 0
2, 123264, Note_on_c, 0, 75, 0
2, 124800, Note_on_c, 0, 75, 105
2, 124800, Note_on_c, 0, 72, 105
2, 125184, Note_on_c, 0, 72, 0
2, 125184, Note_on_c, 0, 75, 0
2, 126720, Note_on_c, 0, 72, 105
2, 126720, Note_on_c, 0, 75, 105
2, 127032, Note_on_c, 0, 75, 0
2, 127032, Note_on_c, 0, 72, 0
2, 127200, Note_on_c, 0, 74, 105
2, 127200, Note_on_c, 0, 70, 105
2, 127512, Note_on_c, 0, 74, 0
2, 127680, Note_on_c, 0, 72, 105
2, 127992, Note_on_c, 0, 70, 0
2, 128160, Note_on_c, 0, 69, 105
2, 128472, Note_on_c, 0, 69, 0
2, 128472, Note_on_c, 0, 72, 0
2, 128640, Note_on_c, 0, 70, 92
2, 129024, Note_on_c, 0, 70, 0
2, 134400, Note_on_c, 0, 72, 105
2, 134400, Note_on_c, 0, 75, 105
2, 134712, Note_on_c, 0, 75, 0
2, 134712, Note_on_c, 0, 72, 0
2, 134880, Note_on_c, 0, 70, 105
2, 134880, Note_on_c, 0, 74, 105
2, 135192, Note_on_c, 0, 74, 0
2, 135360, Note_on_c, 0, 72, 105
2, 135672, Note_on_c, 0, 70, 0
2, 135840, Note_on_c, 0, 69, 105
2, 136152, Note_on_c, 0, 69, 0
2, 136152, Note_on_c, 0, 72, 0
2, 136320, Note_on_c, 0, 70, 105
2, 136704, Note_on_c, 0, 70, 0
2, 137280, Note_on_c, 0, 74, 105
2, 137856, Note_on_c, 0, 74, 0
2, 138000, Note_on_c, 0, 72, 105
2, 138192, Note_on_c, 0, 72, 0
2, 138240, Note_on_c, 0, 70, 105
2, 138624, Note_on_c, 0, 70, 0
2, 139200, Note_on_c, 0, 74, 105
2, 139776, Note_on_c, 0, 74, 0
2, 139920, Note_on_c, 0, 72, 105
2, 140112, Note_on_c, 0, 72, 0
2, 140160, Note_on_c, 0, 70, 105
2, 140928, Note_on_c, 0, 70, 0
2, 163200, Note_on_c, 0, 67, 105
2, 163512, Note_on_c, 0, 67, 0
2, 163680, Note_on_c, 0, 62, 105
2, 163992, Note_on_c, 0, 62, 0
2, 164160, Note_on_c, 0, 70, 105
2, 164736, Note_on_c, 0, 70, 0
2, 164880, Note_on_c, 0, 69, 105
2, 165036, Note_on_c, 0, 69, 0
2, 165120, Note_on_c, 0, 67, 105
2, 165432, Note_on_c, 0, 67, 0
2, 165600, Note_on_c, 0, 79, 105
2, 165600, Note_on_c, 0, 74, 105
2, 166080, Note_on_c, 0, 74, 0
2, 166080, Note_on_c, 0, 79, 0
2, 166080, Note_on_c, 0, 78, 105
2, 166080, Note_on_c, 0, 72, 105
2, 166560, Note_on_c, 0, 72, 0
2, 166560, Note_on_c, 0, 78, 0
2, 166560, Note_on_c, 0, 70, 105
2, 166560, Note_on_c, 0, 79, 105
2, 167040, Note_on_c, 0, 79, 0
2, 167040, Note_on_c, 0, 70, 0
2, 167040, Note_on_c, 0, 69, 105
2, 167040, Note_on_c, 0, 81, 105
2, 167352, Note_on_c, 0, 81, 0
2, 167352, Note_on_c, 0, 69, 0
2, 167520, Note_on_c, 0, 62, 105
2, 167832, Note_on_c, 0, 62, 0
2, 168000, Note_on_c, 0, 72, 105
2, 168576, Note_on_c, 0, 72, 0
2, 168720, Note_on_c, 0, 70, 105
2, 168876, Note_on_c, 0, 70, 0
2, 168960, Note_on_c, 0, 69, 105
2, 169272, Note_on_c, 0, 69, 0
2, 169440, Note_on_c, 0, 75, 105
2, 169440, Note_on_c, 0, 81, 105
2, 169920, Note_on_c, 0, 81, 0
2, 169920, Note_on_c, 0, 75, 0
2, 169920, Note_on_c, 0, 74, 105
2, 169920, Note_on_c, 0, 79, 105
2, 170400, Note_on_c, 0, 79, 0
2, 170400, Note_on_c, 0, 74, 0
2, 170400, Note_on_c, 0, 78, 105
2, 170400, Note_on_c, 0, 81, 105
2, 170880, Note_on_c, 0, 81, 0
2, 170880, Note_on_c, 0, 78, 0
2, 170880, Note_on_c, 0, 79, 105
2, 170880, Note_on_c, 0, 82, 105
2, 171192, Note_on_c, 0, 82, 0
2, 171192, Note_on_c, 0, 79, 0
2, 171360, Note_on_c, 0, 67, 105
2, 171672, Note_on_c, 0, 67, 0
2, 171840, Note_on_c, 0, 79, 105
2, 172416, Note_on_c, 0, 79, 0
2, 172560, Note_on_c, 0, 77, 105
2, 172716, Note_on_c, 0, 77, 0
2, 172800, Note_on_c, 0, 75, 105
2, 173112, Note_on_c, 0, 75, 0
2, 173280, Note_on_c, 0, 72, 105
2, 173592, Note_on_c, 0, 72, 0
2, 173760, Note_on_c, 0, 69, 105
2, 174528, Note_on_c, 0, 69, 0
2, 174720, Note_on_c, 0, 74, 105
2, 174720, Note_on_c, 0, 62, 105
2, 175032, Note_on_c, 0, 62, 0
2, 175032, Note_on_c, 0, 74, 0
2, 175200, Note_on_c, 0, 67, 105
2, 175200, Note_on_c, 0, 70, 105
2, 175512, Note_on_c, 0, 70, 0
2, 175680, Note_on_c, 0, 69, 105
2, 175992, Note_on_c, 0, 67, 0
2, 176160, Note_on_c, 0, 66, 105
2, 176472, Note_on_c, 0, 66, 0
2, 176472, Note_on_c, 0, 69, 0
2, 176640, Note_on_c, 0, 67, 105
2, 177408, Note_on_c, 0, 67, 0
2, 196800, Note_on_c, 0, 75, 105
2, 196956, Note_on_c, 0, 75, 0
2, 197040, Note_on_c, 0, 74, 105
2, 197196, Note_on_c, 0, 74, 0
2, 197280, Note_on_c, 0, 72, 105
2, 197436, Note_on_c, 0, 72, 0
2, 197520, Note_on_c, 0, 70, 105
2, 197676, Note_on_c, 0, 70, 0
2, 197760, Note_on_c, 0, 69, 105
2, 198000, Note_on_c, 0, 69, 0
2, 198000, Note_on_c, 0, 70, 105
2, 198156, Note_on_c, 0, 70, 0
2, 198240, Note_on_c, 0, 69, 105
2, 198396, Note_on_c, 0, 69, 0
2, 198480, Note_on_c, 0, 67, 105
2, 198636, Note_on_c, 0, 67, 0
2, 198720, Note_on_c, 0, 65, 105
2, 199104, Note_on_c, 0, 65, 0
2, 201600, Note_on_c, 0, 76, 105
2, 201600, Note_on_c, 0, 70, 105
2, 201840, Note_on_c, 0, 70, 0
2, 201840, Note_on_c, 0, 76, 0
2, 202080, Note_on_c, 0, 77, 105
2, 202080, Note_on_c, 0, 72, 105
2, 202320, Note_on_c, 0, 72, 0
2, 202320, Note_on_c, 0, 77, 0
2, 203520, Note_on_c, 0, 73, 105
2, 203520, Note_on_c, 0, 67, 105
2, 203760, Note_on_c, 0, 67, 0
2, 203760, Note_on_c, 0, 73, 0
2, 204000, Note_on_c, 0, 74, 105
2, 204000, Note_on_c, 0, 69, 105
2, 204240, Note_on_c, 0, 69, 0
2, 204240, Note_on_c, 0, 74, 0
2, 205440, Note_on_c, 0, 69, 105
2, 205440, Note_on_c, 0, 63, 105
2, 205680, Note_on_c, 0, 63, 0
2, 205680, Note_on_c, 0, 69, 0
2, 205920, Note_on_c, 0, 65, 105
2, 205920, Note_on_c, 0, 70, 105
2, 206160, Note_on_c, 0, 70, 0
2, 206160, Note_on_c, 0, 65, 0
2, 206400, Note_on_c, 0, 75, 105
2, 206640, Note_on_c, 0, 75, 0
2, 206640, Note_on_c, 0, 77, 105
2, 206880, Note_on_c, 0, 77, 0
2, 206880, Note_on_c, 0, 79, 105
2, 207072, Note_on_c, 0, 79, 0
2, 207120, Note_on_c, 0, 77, 105
2, 207264, Note_on_c, 0, 77, 0
2, 207360, Note_on_c, 0, 75, 105
2, 207504, Note_on_c, 0, 75, 0
2, 207600, Note_on_c, 0, 74, 105
2, 207744, Note_on_c, 0, 74, 0
2, 207840, Note_on_c, 0, 72, 105
2, 207984, Note_on_c, 0, 72, 0
2, 208080, Note_on_c, 0, 70, 105
2, 208224, Note_on_c, 0, 70, 0
2, 208320, Note_on_c, 0, 69, 105
2, 208560, Note_on_c, 0, 69, 0
2, 208560, Note_on_c, 0, 70, 105
2, 208800, Note_on_c, 0, 70, 0
2, 208800, Note_on_c, 0, 72, 105
2, 209040, Note_on_c, 0, 72, 0
2, 209040, Note_on_c, 0, 69, 105
2, 209232, Note_on_c, 0, 69, 0
2, 209280, Note_on_c, 0, 70, 105
2, 209664, Note_on_c, 0, 70, 0
2, 211680, Note_on_c, 0, 79, 105
2, 211680, Note_on_c, 0, 75, 105
2, 211992, Note_on_c, 0, 75, 0
2, 211992, Note_on_c, 0, 79, 0
2, 212160, Note_on_c, 0, 74, 105
2, 212160, Note_on_c, 0, 77, 105
2, 212472, Note_on_c, 0, 77, 0
2, 212472, Note_on_c, 0, 74, 0
2, 212640, Note_on_c, 0, 72, 105
2, 212640, Note_on_c, 0, 75, 105
2, 212952, Note_on_c, 0, 75, 0
2, 212952, Note_on_c, 0, 72, 0
2, 213120, Note_on_c, 0, 74, 105
2, 213120, Note_on_c, 0, 70, 105
2, 213432, Note_on_c, 0, 70, 0
2, 213432, Note_on_c, 0, 74, 0
2, 213600, Note_on_c, 0, 77, 105
2, 213912, Note_on_c, 0, 77, 0
2, 214080, Note_on_c, 0, 86, 105
2, 214656, Note_on_c, 0, 86, 0
2, 214800, Note_on_c, 0, 84, 105
2, 214956, Note_on_c, 0, 84, 0
2, 215040, Note_on_c, 0, 82, 105
2, 215328, Note_on_c, 0, 82, 0
2, 215520, Note_on_c, 0, 77, 105
2, 215808, Note_on_c, 0, 77, 0
2, 216000, Note_on_c, 0, 74, 105
2, 216288, Note_on_c, 0, 74, 0
2, 216480, Note_on_c, 0, 70, 105
2, 216768, Note_on_c, 0, 70, 0
2, 216960, Note_on_c, 0, 77, 92
2, 217272, Note_on_c, 0, 77, 0
2, 232320, Note_on_c, 0, 65, 58
2, 232320, Note_on_c, 0, 77, 58
2, 239040, Note_on_c, 0, 77, 0
2, 239040, Note_on_c, 0, 75, 58
2, 240000, Note_on_c, 0, 75, 0
2, 240000, Note_on_c, 0, 74, 58
2, 240384, Note_on_c, 0, 74, 0
2, 240384, Note_on_c, 0, 65, 0
2, 240480, Note_on_c, 0, 74, 105
2, 240480, Note_on_c, 0, 70, 105
2, 242880, Note_on_c, 0, 74, 0
2, 242880, Note_on_c, 0, 77, 105
2, 243360, Note_on_c, 0, 70, 0
2, 243360, Note_on_c, 0, 74, 105
2, 243744, Note_on_c, 0, 74, 0
2, 243744, Note_on_c, 0, 77, 0
2, 243840, Note_on_c, 0, 77, 105
2, 243840, Note_on_c, 0, 75, 105
2, 247296, Note_on_c, 0, 75, 0
2, 247296, Note_on_c, 0, 77, 0
2, 247680, Note_on_c, 0, 77, 105
2, 247680, Note_on_c, 0, 74, 105
2, 248448, Note_on_c, 0, 74, 0
2, 248448, Note_on_c, 0, 77, 0
2, 248640, Note_on_c, 0, 81, 105
2, 248640, Note_on_c, 0, 77, 105
2, 249408, Note_on_c, 0, 77, 0
2, 249408, Note_on_c, 0, 81, 0
2, 249600, Note_on_c, 0, 75, 105
2, 249600, Note_on_c, 0, 79, 105
2, 250368, Note_on_c, 0, 79, 0
2, 250368, Note_on_c, 0, 75, 0
2, 250560, Note_on_c, 0, 70, 105
2, 250560, Note_on_c, 0, 76, 105
2, 251328, Note_on_c, 0, 76, 0
2, 251328, Note_on_c, 0, 70, 0
2, 251520, Note_on_c, 0, 77, 105
2, 251520, Note_on_c, 0, 72, 105
2, 252480, Note_on_c, 0, 72, 0
2, 252480, Note_on_c, 0, 77, 0
2, 252480, Note_on_c, 0, 69, 105
2, 252480, Note_on_c, 0, 75, 105
2, 253248, Note_on_c, 0, 75, 0
2, 253248, Note_on_c, 0, 69, 0
2, 253440, Note_on_c, 0, 70, 105
2, 253440, Note_on_c, 0, 74, 105
2, 253752, Note_on_c, 0, 74, 0
2, 253752, Note_on_c, 0, 70, 0
2, 253920, Note_on_c, 0, 77, 105
2, 253920, Note_on_c, 0, 82, 105
2, 254232, Note_on_c, 0, 82, 0
2, 254232, Note_on_c, 0, 77, 0
2, 254400, Note_on_c, 0, 79, 105
2, 254400, Note_on_c, 0, 75, 105
2, 254712, Note_on_c, 0, 75, 0
2, 254712, Note_on_c, 0, 79, 0
2, 254880, Note_on_c, 0, 69, 105
2, 254880, Note_on_c, 0, 63, 105
2, 255192, Note_on_c, 0, 63, 0
2, 255192, Note_on_c, 0, 69, 0
2, 255360, Note_on_c, 0, 62, 105
2, 255360, Note_on_c, 0, 70, 105
2, 255744, Note_on_c, 0, 70, 0
2, 255744, Note_on_c, 0, 62, 0
2, 255840, Note_on_c, 0, 80, 105
2, 255840, Note_on_c, 0, 77, 105
2, 256992, Note_on_c, 0, 77, 0
2, 256992, Note_on_c, 0, 80, 0
2, 257280, Note_on_c, 0, 79, 105
2, 257280, Note_on_c, 0, 75, 105
2, 258048, Note_on_c, 0, 75, 0
2, 258048, Note_on_c, 0, 79, 0
2, 258240, Note_on_c, 0, 76, 105
2, 258240, Note_on_c, 0, 70, 105
2, 259008, Note_on_c, 0, 70, 0
2, 259008, Note_on_c, 0, 76, 0
2, 259200, Note_on_c, 0, 77, 105
2, 259200, Note_on_c, 0, 72, 105
2, 260160, Note_on_c, 0, 72, 0
2, 260160, Note_on_c, 0, 77, 0
2, 260160, Note_on_c, 0, 69, 105
2, 260160, Note_on_c, 0, 75, 105
2, 260928, Note_on_c, 0, 75, 0
2, 260928, Note_on_c, 0, 69, 0
2, 261120, Note_on_c, 0, 74, 105
2, 261120, Note_on_c, 0, 70, 105
2, 261408, Note_on_c, 0, 70, 0
2, 261408, Note_on_c, 0, 74, 0
2, 261600, Note_on_c, 0, 74, 105
2, 261600, Note_on_c, 0, 82, 105
2, 261888, Note_on_c, 0, 74, 0
2, 262080, Note_on_c, 0, 72, 105
2, 262368, Note_on_c, 0, 82, 0
2, 262560, Note_on_c, 0, 81, 105
2, 262848, Note_on_c, 0, 81, 0
2, 262848, Note_on_c, 0, 72, 0
2, 263040, Note_on_c, 0, 82, 105
2, 263040, Note_on_c, 0, 70, 105
2, 263424, Note_on_c, 0, 70, 0
2, 263424, Note_on_c, 0, 82, 0
2, 264000, Note_on_c, 0, 74, 105
2, 264576, Note_on_c, 0, 74, 0
2, 264720, Note_on_c, 0, 72, 105
2, 264912, Note_on_c, 0, 72, 0
2, 264960, Note_on_c, 0, 70, 105
2, 265536, Note_on_c, 0, 70, 0
2, 265680, Note_on_c, 0, 69, 105
2, 265872, Note_on_c, 0, 69, 0
2, 265920, Note_on_c, 0, 67, 105
2, 266496, Note_on_c, 0, 67, 0
2, 266640, Note_on_c, 0, 65, 105
2, 266832, Note_on_c, 0, 65, 0
2, 266880, Note_on_c, 0, 63, 105
2, 267264, Note_on_c, 0, 63, 0
2, 268800, Note_on_c, 0, 75, 105
2, 268800, Note_on_c, 0, 72, 105
2, 269184, Note_on_c, 0, 72, 0
2, 269184, Note_on_c, 0, 75, 0
2, 270720, Note_on_c, 0, 75, 105
2, 270720, Note_on_c, 0, 72, 105
2, 271104, Note_on_c, 0, 72, 0
2, 271104, Note_on_c, 0, 75, 0
2, 272640, Note_on_c, 0, 72, 105
2, 272640, Note_on_c, 0, 75, 105
2, 272952, Note_on_c, 0, 75, 0
2, 272952, Note_on_c, 0, 72, 0
2, 273120, Note_on_c, 0, 74, 105
2, 273120, Note_on_c, 0, 70, 105
2, 273432, Note_on_c, 0, 74, 0
2, 273600, Note_on_c, 0, 72, 105
2, 273912, Note_on_c, 0, 70, 0
2, 274080, Note_on_c, 0, 69, 105
2, 274392, Note_on_c, 0, 69, 0
2, 274392, Note_on_c, 0, 72, 0
2, 274560, Note_on_c, 0, 70, 92
2, 274944, Note_on_c, 0, 70, 0
2, 280320, Note_on_c, 0, 72, 105
2, 280320, Note_on_c, 0, 75, 105
2, 280632, Note_on_c, 0, 75, 0
2, 280632, Note_on_c, 0, 72, 0
2, 280800, Note_on_c, 0, 70, 105
2, 280800, Note_on_c, 0, 74, 105
2, 281112, Note_on_c, 0, 74, 0
2, 281280, Note_on_c, 0, 72, 105
2, 281592, Note_on_c, 0, 70, 0
2, 281760, Note_on_c, 0, 69, 105
2, 282072, Note_on_c, 0, 69, 0
2, 282072, Note_on_c, 0, 72, 0
2, 282240, Note_on_c, 0, 70, 105
2, 282624, Note_on_c, 0, 70, 0
2, 283200, Note_on_c, 0, 74, 105
2, 283776, Note_on_c, 0, 74, 0
2, 283920, Note_on_c, 0, 72, 105
2, 284112, Note_on_c, 0, 72, 0
2, 284160, Note_on_c, 0, 70, 105
2, 284544, Note_on_c, 0, 70, 0
2, 285120, Note_on_c, 0, 74, 105
2, 285696, Note_on_c, 0, 74, 0
2, 285840, Note_on_c, 0, 72, 105
2, 286032, Note_on_c, 0, 72, 0
2, 286080, Note_on_c, 0, 70, 105
2, 286848, Note_on_c, 0, 70, 0
2, 296160, Note_on_c, 0, 79, 105
2, 296160, Note_on_c, 0, 76, 105
2, 296424, Note_on_c, 0, 76, 0
2, 296424, Note_on_c, 0, 79, 0
2, 296640, Note_on_c, 0, 81, 105
2, 296640, Note_on_c, 0, 77, 105
2, 296904, Note_on_c, 0, 77, 0
2, 296904, Note_on_c, 0, 81, 0
2, 297120, Note_on_c, 0, 79, 105
2, 297120, Note_on_c, 0, 82, 105
2, 297384, Note_on_c, 0, 82, 0
2, 297384, Note_on_c, 0, 79, 0
2, 297600, Note_on_c, 0, 81, 105
2, 297600, Note_on_c, 0, 84, 105
2, 297960, Note_on_c, 0, 84, 0
2, 297960, Note_on_c, 0, 81, 0
2, 300000, Note_on_c, 0, 77, 105
2, 300000, Note_on_c, 0, 74, 105
2, 300264, Note_on_c, 0, 74, 0
2, 300264, Note_on_c, 0, 77, 0
2, 300480, Note_on_c, 0, 79, 105
2, 300480, Note_on_c, 0, 75, 105
2, 300744, Note_on_c, 0, 75, 0
2, 300744, Note_on_c, 0, 79, 0
2, 300960, Note_on_c, 0, 80, 105
2, 300960, Note_on_c, 0, 77, 105
2, 301224, Note_on_c, 0, 77, 0
2, 301224, Note_on_c, 0, 80, 0
2, 301440, Note_on_c, 0, 79, 105
2, 301440, Note_on_c, 0, 82, 105
2, 301800, Note_on_c, 0, 82, 0
2, 301800, Note_on_c, 0, 79, 0
2, 303840, Note_on_c, 0, 72, 105
2, 303840, Note_on_c, 0, 76, 105
2, 304104, Note_on_c, 0, 76, 0
2, 304104, Note_on_c, 0, 72, 0
2, 304320, Note_on_c, 0, 78, 105
2, 304320, Note_on_c, 0, 74, 105
2, 304584, Note_on_c, 0, 74, 0
2, 304584, Note_on_c, 0, 78, 0
2, 304800, Note_on_c, 0, 76, 105
2, 304800, Note_on_c, 0, 79, 105
2, 305064, Note_on_c, 0, 79, 0
2, 305064, Note_on_c, 0, 76, 0
2, 305280, Note_on_c, 0, 78, 105
2, 305280, Note_on_c, 0, 81, 105
2, 305640, Note_on_c, 0, 81, 0
2, 305640, Note_on_c, 0, 78, 0
2, 305760, Note_on_c, 0, 81, 105
2, 305760, Note_on_c, 0, 78, 105
2, 306024, Note_on_c, 0, 78, 0
2, 306024, Note_on_c, 0, 81, 0
2, 306240, Note_on_c, 0, 82, 105
2, 306240, Note_on_c, 0, 79, 105
2, 306504, Note_on_c, 0, 79, 0
2, 306504, Note_on_c, 0, 82, 0
2, 306720, Note_on_c, 0, 81, 105
2, 306720, Note_on_c, 0, 84, 105
2, 306984, Note_on_c, 0, 84, 0
2, 306984, Note_on_c, 0, 81, 0
2, 307200, Note_on_c, 0, 74, 105
2, 307200, Note_on_c, 0, 82, 105
2, 307560, Note_on_c, 0, 82, 0
2, 307680, Note_on_c, 0, 82, 105
2, 308040, Note_on_c, 0, 74, 0
2, 308160, Note_on_c, 0, 72, 105
2, 308520, Note_on_c, 0, 82, 0
2, 308640, Note_on_c, 0, 81, 105
2, 309000, Note_on_c, 0, 72, 0
2, 309120, Note_on_c, 0, 70, 105
2, 309480, Note_on_c, 0, 81, 0
2, 309600, Note_on_c, 0, 79, 105
2, 309840, Note_on_c, 0, 79, 0
2, 309840, Note_on_c, 0, 77, 105
2, 310032, Note_on_c, 0, 77, 0
2, 310032, Note_on_c, 0, 70, 0
2, 310080, Note_on_c, 0, 76, 105
2, 310080, Note_on_c, 0, 79, 105
2, 310440, Note_on_c, 0, 79, 0
2, 310440, Note_on_c, 0, 76, 0
2, 310560, Note_on_c, 0, 77, 105
2, 310560, Note_on_c, 0, 81, 105
2, 310920, Note_on_c, 0, 81, 0
2, 311040, Note_on_c, 0, 80, 105
2, 311424, Note_on_c, 0, 80, 0
2, 311424, Note_on_c, 0, 77, 0
2, 311520, Note_on_c, 0, 76, 105
2, 311520, Note_on_c, 0, 79, 105
2, 311904, Note_on_c, 0, 79, 0
2, 311904, Note_on_c, 0, 76, 0
2, 312000, Note_on_c, 0, 78, 105
2, 312000, Note_on_c, 0, 74, 105
2, 312384, Note_on_c, 0, 78, 0
2, 312480, Note_on_c, 0, 77, 105
2, 312864, Note_on_c, 0, 77, 0
2, 312864, Note_on_c, 0, 74, 0
2, 312960, Note_on_c, 0, 73, 105
2, 312960, Note_on_c, 0, 76, 105
2, 313728, Note_on_c, 0, 76, 0
2, 313728, Note_on_c, 0, 73, 0
2, 320640, Note_on_c, 0, 81, 105
2, 320640, Note_on_c, 0, 69, 105
2, 326304, Note_on_c, 0, 69, 0
2, 326304, Note_on_c, 0, 81, 0
2, 326400, Note_on_c, 0, 66, 105
2, 326400, Note_on_c, 0, 78, 105
2, 328320, Note_on_c, 0, 78, 0
2, 328320, Note_on_c, 0, 66, 0
2, 328320, Note_on_c, 0, 67, 92
2, 328320, Note_on_c, 0, 79, 92
2, 328704, Note_on_c, 0, 79, 0
2, 328704, Note_on_c, 0, 67, 0
2, 336000, Note_on_c, 0, 79, 92
2, 336000, Note_on_c, 0, 67, 92
2, 339744, Note_on_c, 0, 67, 0
2, 339744, Note_on_c, 0, 79, 0
2, 339840, Note_on_c, 0, 67, 105
2, 341664, Note_on_c, 0, 67, 0
2, 341760, Note_on_c, 0, 66, 105
2, 342720, Note_on_c, 0, 66, 0
2, 342720, Note_on_c, 0, 72, 105
2, 343632, Note_on_c, 0, 72, 0
2, 343680, Note_on_c, 0, 70, 105
2, 344448, Note_on_c, 0, 70, 0
2, 345600, Note_on_c, 0, 74, 105
2, 345600, Note_on_c, 0, 69, 105
2, 346560, Note_on_c, 0, 74, 0
2, 346560, Note_on_c, 0, 78, 105
2, 347328, Note_on_c, 0, 78, 0
2, 347328, Note_on_c, 0, 69, 0
2, 347520, Note_on_c, 0, 79, 105
2, 347520, Note_on_c, 0, 67, 105
2, 348480, Note_on_c, 0, 67, 0
2, 348480, Note_on_c, 0, 73, 105
2, 349440, Note_on_c, 0, 73, 0
2, 349440, Note_on_c, 0, 79, 0
2, 349440, Note_on_c, 0, 74, 92
2, 349440, Note_on_c, 0, 78, 92
2, 349824, Note_on_c, 0, 78, 0
2, 349824, Note_on_c, 0, 74, 0
2, 368640, Note_on_c, 0, 67, 105
2, 368952, Note_on_c, 0, 67, 0
2, 369120, Note_on_c, 0, 62, 105
2, 369432, Note_on_c, 0, 62, 0
2, 369600, Note_on_c, 0, 70, 105
2, 370176, Note_on_c, 0, 70, 0
2, 370320, Note_on_c, 0, 69, 105
2, 370476, Note_on_c, 0, 69, 0
2, 370560, Note_on_c, 0, 67, 105
2, 370872, Note_on_c, 0, 67, 0
2, 371040, Note_on_c, 0, 74, 105
2, 371040, Note_on_c, 0, 79, 105
2, 371520, Note_on_c, 0, 79, 0
2, 371520, Note_on_c, 0, 74, 0
2, 371520, Note_on_c, 0, 78, 105
2, 371520, Note_on_c, 0, 72, 105
2, 372000, Note_on_c, 0, 72, 0
2, 372000, Note_on_c, 0, 78, 0
2, 372000, Note_on_c, 0, 70, 105
2, 372000, Note_on_c, 0, 79, 105
2, 372480, Note_on_c, 0, 79, 0
2, 372480, Note_on_c, 0, 70, 0
2, 372480, Note_on_c, 0, 69, 105
2, 372480, Note_on_c, 0, 81, 105
2, 372792, Note_on_c, 0, 81, 0
2, 372792, Note_on_c, 0, 69, 0
2, 372960, Note_on_c, 0, 62, 105
2, 373272, Note_on_c, 0, 62, 0
2, 373440, Note_on_c, 0, 72, 105
2, 374016, Note_on_c, 0, 72, 0
2, 374160, Note_on_c, 0, 70, 105
2, 374316, Note_on_c, 0, 70, 0
2, 374400, Note_on_c, 0, 69, 105
2, 374712, Note_on_c, 0, 69, 0
2, 374880, Note_on_c, 0, 75, 105
2, 374880, Note_on_c, 0, 81, 105
2, 375360, Note_on_c, 0, 81, 0
2, 375360, Note_on_c, 0, 75, 0
2, 375360, Note_on_c, 0, 74, 105
2, 375360, Note_on_c, 0, 79, 105
2, 375840, Note_on_c, 0, 79, 0
2, 375840, Note_on_c, 0, 74, 0
2, 375840, Note_on_c, 0, 78, 105
2, 375840, Note_on_c, 0, 81, 105
2, 376320, Note_on_c, 0, 81, 0
2, 376320, Note_on_c, 0, 78, 0
2, 376320, Note_on_c, 0, 79, 105
2, 376320, Note_on_c, 0, 82, 105
2, 376632, Note_on_c, 0, 82, 0
2, 376632, Note_on_c, 0, 79, 0
2, 376800, Note_on_c, 0, 67, 105
2, 377112, Note_on_c, 0, 67, 0
2, 377280, Note_on_c, 0, 79, 105
2, 377856, Note_on_c, 0, 79, 0
2, 378000, Note_on_c, 0, 77, 105
2, 378156, Note_on_c, 0, 77, 0
2, 378240, Note_on_c, 0, 75, 105
2, 378552, Note_on_c, 0, 75, 0
2, 378720, Note_on_c, 0, 72, 105
2, 379032, Note_on_c, 0, 72, 0
2, 379200, Note_on_c, 0, 69, 105
2, 379968, Note_on_c, 0, 69, 0
2, 380160, Note_on_c, 0, 74, 105
2, 380160, Note_on_c, 0, 62, 105
2, 380472, Note_on_c, 0, 62, 0
2, 380472, Note_on_c, 0, 74, 0
2, 380640, Note_on_c, 0, 70, 105
2, 380640, Note_on_c, 0, 67, 105
2, 380952, Note_on_c, 0, 70, 0
2, 381120, Note_on_c, 0, 69, 105
2, 381432, Note_on_c, 0, 67, 0
2, 381600, Note_on_c, 0, 66, 105
2, 381912, Note_on_c, 0, 66, 0
2, 381912, Note_on_c, 0, 69, 0
2, 382080, Note_on_c, 0, 67, 105
2, 382848, Note_on_c, 0, 67, 0
2, 406080, Note_on_c, 0, 84, 105
2, 406224, Note_on_c, 0, 84, 0
2, 406320, Note_on_c, 0, 82, 105
2, 406464, Note_on_c, 0, 82, 0
2, 406560, Note_on_c, 0, 81, 105
2, 406704, Note_on_c, 0, 81, 0
2, 406800, Note_on_c, 0, 79, 105
2, 406944, Note_on_c, 0, 79, 0
2, 407040, Note_on_c, 0, 78, 105
2, 407280, Note_on_c, 0, 78, 0
2, 407280, Note_on_c, 0, 79, 105
2, 407424, Note_on_c, 0, 79, 0
2, 407520, Note_on_c, 0, 78, 105
2, 407664, Note_on_c, 0, 78, 0
2, 407760, Note_on_c, 0, 75, 105
2, 407904, Note_on_c, 0, 75, 0
2, 408000, Note_on_c, 0, 74, 105
2, 408144, Note_on_c, 0, 74, 0
2, 408240, Note_on_c, 0, 72, 105
2, 408384, Note_on_c, 0, 72, 0
2, 408480, Note_on_c, 0, 70, 105
2, 408624, Note_on_c, 0, 70, 0
2, 408720, Note_on_c, 0, 69, 105
2, 408864, Note_on_c, 0, 69, 0
2, 408960, Note_on_c, 0, 67, 105
2, 409344, Note_on_c, 0, 67, 0
2, 410880, Note_on_c, 0, 73, 105
2, 410880, Note_on_c, 0, 67, 105
2, 411144, Note_on_c, 0, 67, 0
2, 411144, Note_on_c, 0, 73, 0
2, 411360, Note_on_c, 0, 69, 105
2, 411360, Note_on_c, 0, 74, 105
2, 411624, Note_on_c, 0, 74, 0
2, 411624, Note_on_c, 0, 69, 0
2, 412800, Note_on_c, 0, 69, 105
2, 412800, Note_on_c, 0, 63, 105
2, 413064, Note_on_c, 0, 63, 0
2, 413064, Note_on_c, 0, 69, 0
2, 413280, Note_on_c, 0, 65, 105
2, 413280, Note_on_c, 0, 70, 105
2, 413544, Note_on_c, 0, 70, 0
2, 413544, Note_on_c, 0, 65, 0
2, 414720, Note_on_c, 0, 81, 105
2, 414720, Note_on_c, 0, 75, 105
2, 414984, Note_on_c, 0, 75, 0
2, 414984, Note_on_c, 0, 81, 0
2, 415200, Note_on_c, 0, 77, 105
2, 415200, Note_on_c, 0, 82, 105
2, 415464, Note_on_c, 0, 82, 0
2, 415464, Note_on_c, 0, 77, 0
2, 416640, Note_on_c, 0, 78, 105
2, 416640, Note_on_c, 0, 72, 105
2, 416904, Note_on_c, 0, 72, 0
2, 416904, Note_on_c, 0, 78, 0
2, 417120, Note_on_c, 0, 74, 105
2, 417120, Note_on_c, 0, 79, 105
2, 417384, Note_on_c, 0, 79, 0
2, 417384, Note_on_c, 0, 74, 0
2, 417600, Note_on_c, 0, 72, 105
2, 417840, Note_on_c, 0, 72, 0
2, 417840, Note_on_c, 0, 74, 105
2, 418080, Note_on_c, 0, 74, 0
2, 418080, Note_on_c, 0, 75, 105
2, 418272, Note_on_c, 0, 75, 0
2, 418320, Note_on_c, 0, 74, 105
2, 418512, Note_on_c, 0, 74, 0
2, 418560, Note_on_c, 0, 72, 105
2, 418752, Note_on_c, 0, 72, 0
2, 418800, Note_on_c, 0, 70, 105
2, 418992, Note_on_c, 0, 70, 0
2, 419040, Note_on_c, 0, 69, 105
2, 419232, Note_on_c, 0, 69, 0
2, 419280, Note_on_c, 0, 67, 105
2, 419472, Note_on_c, 0, 67, 0
2, 419520, Note_on_c, 0, 66, 105
2, 419760, Note_on_c, 0, 66, 0
2, 419760, Note_on_c, 0, 67, 105
2, 420000, Note_on_c, 0, 67, 0
2, 420000, Note_on_c, 0, 69, 105
2, 420240, Note_on_c, 0, 69, 0
2, 420240, Note_on_c, 0, 66, 105
2, 420432, Note_on_c, 0, 66, 0
2, 420480, Note_on_c, 0, 67, 105
2, 420864, Note_on_c, 0, 67, 0
2, 422880, Note_on_c, 0, 75, 105
2, 422880, Note_on_c, 0, 72, 105
2, 423168, Note_on_c, 0, 72, 0
2, 423168, Note_on_c, 0, 75, 0
2, 423360, Note_on_c, 0, 70, 105
2, 423360, Note_on_c, 0, 74, 105
2, 423648, Note_on_c, 0, 74, 0
2, 423648, Note_on_c, 0, 70, 0
2, 423840, Note_on_c, 0, 69, 105
2, 423840, Note_on_c, 0, 72, 105
2, 424128, Note_on_c, 0, 72, 0
2, 424128, Note_on_c, 0, 69, 0
2, 424320, Note_on_c, 0, 70, 105
2, 424320, Note_on_c, 0, 67, 105
2, 424608, Note_on_c, 0, 67, 0
2, 424608, Note_on_c, 0, 70, 0
2, 424800, Note_on_c, 0, 74, 105
2, 425088, Note_on_c, 0, 74, 0
2, 425280, Note_on_c, 0, 82, 105
2, 425856, Note_on_c, 0, 82, 0
2, 426000, Note_on_c, 0, 81, 105
2, 426192, Note_on_c, 0, 81, 0
2, 426240, Note_on_c, 0, 79, 105
2, 426528, Note_on_c, 0, 79, 0
2, 426720, Note_on_c, 0, 74, 105
2, 427008, Note_on_c, 0, 74, 0
2, 427200, Note_on_c, 0, 70, 105
2, 427488, Note_on_c, 0, 70, 0
2, 427680, Note_on_c, 0, 67, 105
2, 427968, Note_on_c, 0, 67, 0
2, 428160, Note_on_c, 0, 74, 92
2, 428448, Note_on_c, 0, 74, 0
2, 443520, Note_on_c, 0, 74, 58
2, 443520, Note_on_c, 0, 62, 58
2, 450048, Note_on_c, 0, 62, 0
2, 450048, Note_on_c, 0, 74, 0
2, 450240, Note_on_c, 0, 72, 58
2, 450240, Note_on_c, 0, 66, 58
2, 450720, Note_on_c, 0, 66, 0
2, 450720, Note_on_c, 0, 69, 58
2, 451104, Note_on_c, 0, 69, 0
2, 451104, Note_on_c, 0, 72, 0
2, 451200, Note_on_c, 0, 70, 58
2, 451200, Note_on_c, 0, 67, 58
2, 453888, Note_on_c, 0, 70, 0
2, 454080, Note_on_c, 0, 74, 105
2, 454464, Note_on_c, 0, 67, 0
2, 454560, Note_on_c, 0, 70, 105
2, 454944, Note_on_c, 0, 70, 0
2, 454944, Note_on_c, 0, 74, 0
2, 455040, Note_on_c, 0, 72, 105
2, 455040, Note_on_c, 0, 74, 105
2, 458496, Note_on_c, 0, 74, 0
2, 458496, Note_on_c, 0, 72, 0
2, 458880, Note_on_c, 0, 70, 105
2, 458880, Note_on_c, 0, 74, 105
2, 459648, Note_on_c, 0, 74, 0
2, 459648, Note_on_c, 0, 70, 0
2, 459840, Note_on_c, 0, 77, 105
2, 459840, Note_on_c, 0, 74, 105
2, 460608, Note_on_c, 0, 74, 0
2, 460608, Note_on_c, 0, 77, 0
2, 460800, Note_on_c, 0, 75, 105
2, 460800, Note_on_c, 0, 72, 105
2, 461568, Note_on_c, 0, 72, 0
2, 461568, Note_on_c, 0, 75, 0
2, 461760, Note_on_c, 0, 67, 105
2, 461760, Note_on_c, 0, 73, 105
2, 462528, Note_on_c, 0, 73, 0
2, 462528, Note_on_c, 0, 67, 0
2, 462720, Note_on_c, 0, 74, 105
2, 462720, Note_on_c, 0, 66, 105
2, 463680, Note_on_c, 0, 66, 0
2, 463680, Note_on_c, 0, 74, 0
2, 463680, Note_on_c, 0, 69, 105
2, 463680, Note_on_c, 0, 72, 105
2, 464448, Note_on_c, 0, 72, 0
2, 464448, Note_on_c, 0, 69, 0
2, 464640, Note_on_c, 0, 67, 105
2, 464640, Note_on_c, 0, 70, 105
2, 464952, Note_on_c, 0, 70, 0
2, 464952, Note_on_c, 0, 67, 0
2, 465120, Note_on_c, 0, 70, 105
2, 465120, Note_on_c, 0, 79, 105
2, 465432, Note_on_c, 0, 79, 0
2, 465432, Note_on_c, 0, 70, 0
2, 465600, Note_on_c, 0, 69, 105
2, 465600, Note_on_c, 0, 75, 105
2, 465912, Note_on_c, 0, 75, 0
2, 465912, Note_on_c, 0, 69, 0
2, 466080, Note_on_c, 0, 69, 105
2, 466080, Note_on_c, 0, 66, 105
2, 466392, Note_on_c, 0, 66, 0
2, 466392, Note_on_c, 0, 69, 0
2, 466560, Note_on_c, 0, 67, 105
2, 467040, Note_on_c, 0, 67, 0
2, 467040, Note_on_c, 0, 79, 105
2, 467040, Note_on_c, 0, 70, 105
2, 467424, Note_on_c, 0, 70, 0
2, 467424, Note_on_c, 0, 79, 0
2, 467520, Note_on_c, 0, 77, 105
2, 467520, Note_on_c, 0, 74, 105
2, 468288, Note_on_c, 0, 74, 0
2, 468288, Note_on_c, 0, 77, 0
2, 468480, Note_on_c, 0, 75, 105
2, 468480, Note_on_c, 0, 72, 105
2, 469248, Note_on_c, 0, 72, 0
2, 469248, Note_on_c, 0, 75, 0
2, 469440, Note_on_c, 0, 67, 105
2, 469440, Note_on_c, 0, 73, 105
2, 470208, Note_on_c, 0, 73, 0
2, 470208, Note_on_c, 0, 67, 0
2, 470400, Note_on_c, 0, 74, 105
2, 470400, Note_on_c, 0, 69, 105
2, 471168, Note_on_c, 0, 69, 0
2, 471168, Note_on_c, 0, 74, 0
2, 471360, Note_on_c, 0, 84, 105
2, 471360, Note_on_c, 0, 78, 105
2, 472128, Note_on_c, 0, 78, 0
2, 472128, Note_on_c, 0, 84, 0
2, 472320, Note_on_c, 0, 82, 105
2, 472320, Note_on_c, 0, 79, 105
2, 472632, Note_on_c, 0, 79, 0
2, 472632, Note_on_c, 0, 82, 0
2, 472800, Note_on_c, 0, 79, 105
2, 472800, Note_on_c, 0, 70, 105
2, 473280, Note_on_c, 0, 70, 0
2, 473280, Note_on_c, 0, 69, 105
2, 473664, Note_on_c, 0, 69, 0
2, 473664, Note_on_c, 0, 79, 0
2, 473760, Note_on_c, 0, 78, 105
2, 473760, Note_on_c, 0, 72, 105
2, 474072, Note_on_c, 0, 72, 0
2, 474072, Note_on_c, 0, 78, 0
2, 474240, Note_on_c, 0, 70, 105
2, 474240, Note_on_c, 0, 79, 105
2, 474624, Note_on_c, 0, 79, 0
2, 474624, Note_on_c, 0, 70, 0
2, 475200, Note_on_c, 0, 70, 105
2, 475776, Note_on_c, 0, 70, 0
2, 475920, Note_on_c, 0, 69, 105
2, 476112, Note_on_c, 0, 69, 0
2, 476160, Note_on_c, 0, 67, 105
2, 476736, Note_on_c, 0, 67, 0
2, 476880, Note_on_c, 0, 65, 105
2, 477072, Note_on_c, 0, 65, 0
2, 477120, Note_on_c, 0, 63, 105
2, 477696, Note_on_c, 0, 63, 0
2, 477840, Note_on_c, 0, 62, 105
2, 478032, Note_on_c, 0, 62, 0
2, 478080, Note_on_c, 0, 60, 105
2, 478440, Note_on_c, 0, 60, 0
2, 480000, Note_on_c, 0, 72, 105
2, 480000, Note_on_c, 0, 69, 105
2, 480384, Note_on_c, 0, 69, 0
2, 480384, Note_on_c, 0, 72, 0
2, 481920, Note_on_c, 0, 72, 105
2, 481920, Note_on_c, 0, 69, 105
2, 482304, Note_on_c, 0, 69, 0
2, 482304, Note_on_c, 0, 72, 0
2, 483840, Note_on_c, 0, 69, 105
2, 483840, Note_on_c, 0, 72, 105
2, 484200, Note_on_c, 0, 72, 0
2, 484200, Note_on_c, 0, 69, 0
2, 484320, Note_on_c, 0, 70, 105
2, 484320, Note_on_c, 0, 67, 105
2, 484680, Note_on_c, 0, 70, 0
2, 484800, Note_on_c, 0, 69, 105
2, 485160, Note_on_c, 0, 67, 0
2, 485280, Note_on_c, 0, 66, 105
2, 485640, Note_on_c, 0, 66, 0
2, 485640, Note_on_c, 0, 69, 0
2, 485760, Note_on_c, 0, 67, 105
2, 486144, Note_on_c, 0, 67, 0
2, 491520, Note_on_c, 0, 84, 105
2, 491520, Note_on_c, 0, 81, 105
2, 491808, Note_on_c, 0, 81, 0
2, 491808, Note_on_c, 0, 84, 0
2, 492000, Note_on_c, 0, 82, 105
2, 492000, Note_on_c, 0, 79, 105
2, 492288, Note_on_c, 0, 82, 0
2, 492480, Note_on_c, 0, 81, 105
2, 492768, Note_on_c, 0, 79, 0
2, 492960, Note_on_c, 0, 78, 105
2, 493248, Note_on_c, 0, 78, 0
2, 493248, Note_on_c, 0, 81, 0
2, 493440, Note_on_c, 0, 79, 105
2, 493728, Note_on_c, 0, 79, 0
2, 494400, Note_on_c, 0, 70, 105
2, 494976, Note_on_c, 0, 70, 0
2, 495120, Note_on_c, 0, 69, 105
2, 495312, Note_on_c, 0, 69, 0
2, 495360, Note_on_c, 0, 67, 105
2, 495648, Note_on_c, 0, 67, 0
2, 496320, Note_on_c, 0, 70, 105
2, 496896, Note_on_c, 0, 70, 0
2, 497040, Note_on_c, 0, 69, 105
2, 497232, Note_on_c, 0, 69, 0
2, 497280, Note_on_c, 0, 67, 105
2, 498048, Note_on_c, 0, 67, 0
2, 510720, Note_on_c, 0, 79, 105
2, 510720, Note_on_c, 0, 82, 105
2, 513024, Note_on_c, 0, 82, 0
2, 513024, Note_on_c, 0, 79, 0
2, 514080, Note_on_c, 0, 75, 105
2, 514272, Note_on_c, 0, 75, 0
2, 514320, Note_on_c, 0, 74, 105
2, 514512, Note_on_c, 0, 74, 0
2, 514560, Note_on_c, 0, 75, 105
2, 514944, Note_on_c, 0, 75, 0
2, 516000, Note_on_c, 0, 74, 105
2, 516192, Note_on_c, 0, 74, 0
2, 516240, Note_on_c, 0, 73, 105
2, 516432, Note_on_c, 0, 73, 0
2, 516480, Note_on_c, 0, 74, 105
2, 517248, Note_on_c, 0, 74, 0
2, 517440, Note_on_c, 0, 72, 105
2, 517440, Note_on_c, 0, 78, 105
2, 518208, Note_on_c, 0, 78, 0
2, 518208, Note_on_c, 0, 72, 0
2, 518400, Note_on_c, 0, 70, 105
2, 518400, Note_on_c, 0, 79, 105
2, 519360, Note_on_c, 0, 79, 0
2, 519360, Note_on_c, 0, 70, 0
2, 519360, End_track
3, 0, Start_track
3, 0, Program_c, 1, 70
3, 0, Control_c, 1, 7, 94
3, 0, Control_c, 1, 10, 73
3, 0, Control_c, 1, 91, 80
3, 1920, Note_on_c, 1, 55, 58
3, 2232, Note_on_c, 1, 55, 0
3, 2400, Note_on_c, 1, 50, 58
3, 2712, Note_on_c, 1, 50, 0
3, 2880, Note_on_c, 1, 58, 58
3, 3420, Note_on_c, 1, 58, 0
3, 3600, Note_on_c, 1, 57, 58
3, 3756, Note_on_c, 1, 57, 0
3, 3840, Note_on_c, 1, 55, 58
3, 4152, Note_on_c, 1, 55, 0
3, 4320, Note_on_c, 1, 58, 58
3, 4800, Note_on_c, 1, 58, 0
3, 4800, Note_on_c, 1, 57, 58
3, 5280, Note_on_c, 1, 57, 0
3, 5280, Note_on_c, 1, 55, 58
3, 5736, Note_on_c, 1, 55, 0
3, 5760, Note_on_c, 1, 54, 58
3, 6072, Note_on_c, 1, 54, 0
3, 6240, Note_on_c, 1, 50, 58
3, 6552, Note_on_c, 1, 50, 0
3, 6720, Note_on_c, 1, 60, 58
3, 7260, Note_on_c, 1, 60, 0
3, 7440, Note_on_c, 1, 58, 58
3, 7596, Note_on_c, 1, 58, 0
3, 7680, Note_on_c, 1, 57, 58
3, 7992, Note_on_c, 1, 57, 0
3, 8160, Note_on_c, 1, 60, 58
3, 8640, Note_on_c, 1, 60, 0
3, 8640, Note_on_c, 1, 58, 58
3, 9120, Note_on_c, 1, 58, 0
3, 9120, Note_on_c, 1, 57, 58
3, 9576, Note_on_c, 1, 57, 0
3, 9600, Note_on_c, 1, 55, 58
3, 9912, Note_on_c, 1, 55, 0
3, 10080, Note_on_c, 1, 58, 58
3, 10392, Note_on_c, 1, 58, 0
3, 10560, Note_on_c, 1, 63, 58
3, 11064, Note_on_c, 1, 63, 0
3, 11280, Note_on_c, 1, 62, 58
3, 11436, Note_on_c, 1, 62, 0
3, 11520, Note_on_c, 1, 60, 58
3, 11832, Note_on_c, 1, 60, 0
3, 12000, Note_on_c, 1, 57, 58
3, 12312, Note_on_c, 1, 57, 0
3, 12480, Note_on_c, 1, 62, 58
3, 12984, Note_on_c, 1, 62, 0
3, 13200, Note_on_c, 1, 60, 58
3, 13356, Note_on_c, 1, 60, 0
3, 13440, Note_on_c, 1, 58, 58
3, 13752, Note_on_c, 1, 58, 0
3, 13920, Note_on_c, 1, 55, 58
3, 14232, Note_on_c, 1, 55, 0
3, 14400, Note_on_c, 1, 51, 58
3, 14712, Note_on_c, 1, 51, 0
3, 14880, Note_on_c, 1, 49, 58
3, 15192, Note_on_c, 1, 49, 0
3, 15360, Note_on_c, 1, 50, 58
3, 15672, Note_on_c, 1, 50, 0
3, 15840, Note_on_c, 1, 60, 58
3, 16320, Note_on_c, 1, 60, 0
3, 16320, Note_on_c, 1, 58, 58
3, 16800, Note_on_c, 1, 58, 0
3, 16800, Note_on_c, 1, 57, 58
3, 17112, Note_on_c, 1, 57, 0
3, 17280, Note_on_c, 1, 55, 105
3, 17592, Note_on_c, 1, 55, 0
3, 17760, Note_on_c, 1, 50, 105
3, 18072, Note_on_c, 1, 50, 0
3, 18240, Note_on_c, 1, 58, 105
3, 18816, Note_on_c, 1, 58, 0
3, 18960, Note_on_c, 1, 57, 105
3, 19116, Note_on_c, 1, 57, 0
3, 19200, Note_on_c, 1, 55, 105
3, 19512, Note_on_c, 1, 55, 0
3, 19680, Note_on_c, 1, 58, 105
3, 20160, Note_on_c, 1, 58, 0
3, 20160, Note_on_c, 1, 57, 105
3, 20640, Note_on_c, 1, 57, 0
3, 20640, Note_on_c, 1, 55, 105
3, 21120, Note_on_c, 1, 55, 0
3, 21120, Note_on_c, 1, 54, 105
3, 21432, Note_on_c, 1, 54, 0
3, 21600, Note_on_c, 1, 50, 105
3, 21912, Note_on_c, 1, 50, 0
3, 22080, Note_on_c, 1, 60, 105
3, 22656, Note_on_c, 1, 60, 0
3, 22800, Note_on_c, 1, 58, 105
3, 22956, Note_on_c, 1, 58, 0
3, 23040, Note_on_c, 1, 57, 105
3, 23352, Note_on_c, 1, 57, 0
3, 23520, Note_on_c, 1, 60, 105
3, 24000, Note_on_c, 1, 60, 0
3, 24000, Note_on_c, 1, 58, 105
3, 24480, Note_on_c, 1, 58, 0
3, 24480, Note_on_c, 1, 57, 105
3, 24960, Note_on_c, 1, 57, 0
3, 24960, Note_on_c, 1, 55, 105
3, 25272, Note_on_c, 1, 55, 0
3, 25440, Note_on_c, 1, 58, 105
3, 25752, Note_on_c, 1, 58, 0
3, 25920, Note_on_c, 1, 63, 105
3, 26496, Note_on_c, 1, 63, 0
3, 26640, Note_on_c, 1, 62, 105
3, 26796, Note_on_c, 1, 62, 0
3, 26880, Note_on_c, 1, 60, 105
3, 27192, Note_on_c, 1, 60, 0
3, 27360, Note_on_c, 1, 57, 105
3, 27672, Note_on_c, 1, 57, 0
3, 27840, Note_on_c, 1, 62, 105
3, 28560, Note_on_c, 1, 62, 0
3, 28560, Note_on_c, 1, 60, 105
3, 28752, Note_on_c, 1, 60, 0
3, 28800, Note_on_c, 1, 58, 105
3, 29112, Note_on_c, 1, 58, 0
3, 29280, Note_on_c, 1, 51, 105
3, 29592, Note_on_c, 1, 51, 0
3, 29760, Note_on_c, 1, 48, 105
3, 30072, Note_on_c, 1, 48, 0
3, 30240, Note_on_c, 1, 50, 105
3, 30552, Note_on_c, 1, 50, 0
3, 30720, Note_on_c, 1, 43, 105
3, 31488, Note_on_c, 1, 43, 0
3, 50880, Note_on_c, 1, 63, 105
3, 51036, Note_on_c, 1, 63, 0
3, 51120, Note_on_c, 1, 62, 105
3, 51276, Note_on_c, 1, 62, 0
3, 51360, Note_on_c, 1, 60, 105
3, 51516, Note_on_c, 1, 60, 0
3, 51600, Note_on_c, 1, 58, 105
3, 51756, Note_on_c, 1, 58, 0
3, 51840, Note_on_c, 1, 57, 105
3, 52080, Note_on_c, 1, 57, 0
3, 52080, Note_on_c, 1, 58, 105
3, 52236, Note_on_c, 1, 58, 0
3, 52320, Note_on_c, 1, 57, 105
3, 52476, Note_on_c, 1, 57, 0
3, 52560, Note_on_c, 1, 55, 105
3, 52716, Note_on_c, 1, 55, 0
3, 52800, Note_on_c, 1, 53, 105
3, 52956, Note_on_c, 1, 53, 0
3, 53040, Note_on_c, 1, 51, 105
3, 53196, Note_on_c, 1, 51, 0
3, 53280, Note_on_c, 1, 50, 105
3, 53436, Note_on_c, 1, 50, 0
3, 53520, Note_on_c, 1, 48, 105
3, 53676, Note_on_c, 1, 48, 0
3, 53760, Note_on_c, 1, 46, 105
3, 54144, Note_on_c, 1, 46, 0
3, 54720, Note_on_c, 1, 58, 105
3, 55296, Note_on_c, 1, 58, 0
3, 55440, Note_on_c, 1, 57, 105
3, 55632, Note_on_c, 1, 57, 0
3, 55680, Note_on_c, 1, 55, 105
3, 55920, Note_on_c, 1, 55, 0
3, 56160, Note_on_c, 1, 57, 105
3, 56400, Note_on_c, 1, 57, 0
3, 56640, Note_on_c, 1, 55, 105
3, 57216, Note_on_c, 1, 55, 0
3, 57360, Note_on_c, 1, 53, 105
3, 57552, Note_on_c, 1, 53, 0
3, 57600, Note_on_c, 1, 52, 105
3, 57840, Note_on_c, 1, 52, 0
3, 58080, Note_on_c, 1, 53, 105
3, 58320, Note_on_c, 1, 53, 0
3, 58560, Note_on_c, 1, 51, 105
3, 59136, Note_on_c, 1, 51, 0
3, 59280, Note_on_c, 1, 50, 105
3, 59472, Note_on_c, 1, 50, 0
3, 59520, Note_on_c, 1, 48, 105
3, 59760, Note_on_c, 1, 48, 0
3, 60000, Note_on_c, 1, 50, 105
3, 60240, Note_on_c, 1, 50, 0
3, 60480, Note_on_c, 1, 60, 105
3, 60720, Note_on_c, 1, 60, 0
3, 60720, Note_on_c, 1, 62, 105
3, 60960, Note_on_c, 1, 62, 0
3, 60960, Note_on_c, 1, 63, 105
3, 61152, Note_on_c, 1, 63, 0
3, 61200, Note_on_c, 1, 62, 105
3, 61344, Note_on_c, 1, 62, 0
3, 61440, Note_on_c, 1, 60, 105
3, 61584, Note_on_c, 1, 60, 0
3, 61680, Note_on_c, 1, 58, 105
3, 61824, Note_on_c, 1, 58, 0
3, 61920, Note_on_c, 1, 57, 105
3, 62064, Note_on_c, 1, 57, 0
3, 62160, Note_on_c, 1, 55, 105
3, 62304, Note_on_c, 1, 55, 0
3, 62400, Note_on_c, 1, 53, 105
3, 62640, Note_on_c, 1, 53, 0
3, 62640, Note_on_c, 1, 55, 105
3, 62880, Note_on_c, 1, 55, 0
3, 62880, Note_on_c, 1, 57, 105
3, 63120, Note_on_c, 1, 57, 0
3, 63120, Note_on_c, 1, 53, 105
3, 63312, Note_on_c, 1, 53, 0
3, 63360, Note_on_c, 1, 58, 105
3, 63552, Note_on_c, 1, 58, 0
3, 63600, Note_on_c, 1, 57, 105
3, 63792, Note_on_c, 1, 57, 0
3, 63840, Note_on_c, 1, 55, 105
3, 64032, Note_on_c, 1, 55, 0
3, 64080, Note_on_c, 1, 53, 105
3, 64272, Note_on_c, 1, 53, 0
3, 64320, Note_on_c, 1, 51, 105
3, 64512, Note_on_c, 1, 51, 0
3, 64560, Note_on_c, 1, 50, 105
3, 64752, Note_on_c, 1, 50, 0
3, 64800, Note_on_c, 1, 48, 105
3, 64992, Note_on_c, 1, 48, 0
3, 65040, Note_on_c, 1, 46, 105
3, 65232, Note_on_c, 1, 46, 0
3, 65280, Note_on_c, 1, 51, 105
3, 65592, Note_on_c, 1, 51, 0
3, 65760, Note_on_c, 1, 51, 105
3, 66072, Note_on_c, 1, 51, 0
3, 66240, Note_on_c, 1, 53, 105
3, 66552, Note_on_c, 1, 53, 0
3, 66720, Note_on_c, 1, 41, 105
3, 67032, Note_on_c, 1, 41, 0
3, 67200, Note_on_c, 1, 46, 105
3, 67512, Note_on_c, 1, 46, 0
3, 67680, Note_on_c, 1, 53, 105
3, 67992, Note_on_c, 1, 53, 0
3, 68160, Note_on_c, 1, 62, 105
3, 68736, Note_on_c, 1, 62, 0
3, 68880, Note_on_c, 1, 60, 105
3, 69072, Note_on_c, 1, 60, 0
3, 69120, Note_on_c, 1, 58, 105
3, 69408, Note_on_c, 1, 58, 0
3, 69600, Note_on_c, 1, 53, 105
3, 69888, Note_on_c, 1, 53, 0
3, 70080, Note_on_c, 1, 50, 105
3, 70368, Note_on_c, 1, 50, 0
3, 70560, Note_on_c, 1, 46, 105
3, 70848, Note_on_c, 1, 46, 0
3, 71040, Note_on_c, 1, 53, 92
3, 71352, Note_on_c, 1, 53, 0
3, 94080, Note_on_c, 1, 46, 105
3, 94392, Note_on_c, 1, 46, 0
3, 94560, Note_on_c, 1, 53, 105
3, 94872, Note_on_c, 1, 53, 0
3, 95040, Note_on_c, 1, 62, 105
3, 95616, Note_on_c, 1, 62, 0
3, 95760, Note_on_c, 1, 60, 105
3, 95952, Note_on_c, 1, 60, 0
3, 96000, Note_on_c, 1, 58, 105
3, 96312, Note_on_c, 1, 58, 0
3, 96480, Note_on_c, 1, 53, 105
3, 96792, Note_on_c, 1, 53, 0
3, 96960, Note_on_c, 1, 62, 105
3, 97272, Note_on_c, 1, 62, 0
3, 97440, Note_on_c, 1, 58, 105
3, 97752, Note_on_c, 1, 58, 0
3, 97920, Note_on_c, 1, 60, 105
3, 98232, Note_on_c, 1, 60, 0
3, 98400, Note_on_c, 1, 53, 105
3, 98712, Note_on_c, 1, 53, 0
3, 98880, Note_on_c, 1, 63, 105
3, 99456, Note_on_c, 1, 63, 0
3, 99600, Note_on_c, 1, 62, 105
3, 99792, Note_on_c, 1, 62, 0
3, 99840, Note_on_c, 1, 60, 105
3, 100152, Note_on_c, 1, 60, 0
3, 100320, Note_on_c, 1, 53, 105
3, 100632, Note_on_c, 1, 53, 0
3, 100800, Note_on_c, 1, 63, 105
3, 101112, Note_on_c, 1, 63, 0
3, 101280, Note_on_c, 1, 60, 105
3, 101592, Note_on_c, 1, 60, 0
3, 101760, Note_on_c, 1, 58, 105
3, 102072, Note_on_c, 1, 58, 0
3, 102240, Note_on_c, 1, 62, 105
3, 102474, Note_on_c, 1, 62, 0
3, 102600, Note_on_c, 1, 58, 105
3, 102678, Note_on_c, 1, 58, 0
3, 102720, Note_on_c, 1, 50, 105
3, 103032, Note_on_c, 1, 50, 0
3, 103200, Note_on_c, 1, 58, 105
3, 103434, Note_on_c, 1, 58, 0
3, 103560, Note_on_c, 1, 50, 105
3, 103638, Note_on_c, 1, 50, 0
3, 103680, Note_on_c, 1, 51, 105
3, 103992, Note_on_c, 1, 51, 0
3, 104160, Note_on_c, 1, 58, 105
3, 104394, Note_on_c, 1, 58, 0
3, 104520, Note_on_c, 1, 51, 105
3, 104598, Note_on_c, 1, 51, 0
3, 104640, Note_on_c, 1, 55, 105
3, 104952, Note_on_c, 1, 55, 0
3, 105120, Note_on_c, 1, 58, 105
3, 105354, Note_on_c, 1, 58, 0
3, 105480, Note_on_c, 1, 55, 105
3, 105558, Note_on_c, 1, 55, 0
3, 105600, Note_on_c, 1, 57, 105
3, 105912, Note_on_c, 1, 57, 0
3, 106080, Note_on_c, 1, 60, 105
3, 106314, Note_on_c, 1, 60, 0
3, 106440, Note_on_c, 1, 57, 105
3, 106518, Note_on_c, 1, 57, 0
3, 106560, Note_on_c, 1, 53, 105
3, 106872, Note_on_c, 1, 53, 0
3, 107040, Note_on_c, 1, 57, 105
3, 107274, Note_on_c, 1, 57, 0
3, 107400, Note_on_c, 1, 53, 105
3, 107478, Note_on_c, 1, 53, 0
3, 107520, Note_on_c, 1, 55, 105
3, 107832, Note_on_c, 1, 55, 0
3, 108000, Note_on_c, 1, 50, 105
3, 108312, Note_on_c, 1, 50, 0
3, 108480, Note_on_c, 1, 51, 105
3, 108792, Note_on_c, 1, 51, 0
3, 108960, Note_on_c, 1, 53, 105
3, 109272, Note_on_c, 1, 53, 0
3, 109440, Note_on_c, 1, 58, 105
3, 109752, Note_on_c, 1, 58, 0
3, 109920, Note_on_c, 1, 62, 105
3, 110154, Note_on_c, 1, 62, 0
3, 110280, Note_on_c, 1, 58, 105
3, 110358, Note_on_c, 1, 58, 0
3, 110400, Note_on_c, 1, 50, 105
3, 110712, Note_on_c, 1, 50, 0
3, 110880, Note_on_c, 1, 58, 105
3, 111114, Note_on_c, 1, 58, 0
3, 111240, Note_on_c, 1, 50, 105
3, 111318, Note_on_c, 1, 50, 0
3, 111360, Note_on_c, 1, 51, 105
3, 111672, Note_on_c, 1, 51, 0
3, 111840, Note_on_c, 1, 58, 105
3, 112074, Note_on_c, 1, 58, 0
3, 112200, Note_on_c, 1, 51, 105
3, 112278, Note_on_c, 1, 51, 0
3, 112320, Note_on_c, 1, 55, 105
3, 112632, Note_on_c, 1, 55, 0
3, 112800, Note_on_c, 1, 58, 105
3, 113034, Note_on_c, 1, 58, 0
3, 113160, Note_on_c, 1, 55, 105
3, 113238, Note_on_c, 1, 55, 0
3, 113280, Note_on_c, 1, 57, 105
3, 113592, Note_on_c, 1, 57, 0
3, 113760, Note_on_c, 1, 60, 105
3, 113994, Note_on_c, 1, 60, 0
3, 114120, Note_on_c, 1, 57, 105
3, 114198, Note_on_c, 1, 57, 0
3, 114240, Note_on_c, 1, 53, 105
3, 114552, Note_on_c, 1, 53, 0
3, 114720, Note_on_c, 1, 57, 105
3, 114954, Note_on_c, 1, 57, 0
3, 115080, Note_on_c, 1, 53, 105
3, 115158, Note_on_c, 1, 53, 0
3, 115200, Note_on_c, 1, 55, 105
3, 115512, Note_on_c, 1, 55, 0
3, 115680, Note_on_c, 1, 50, 105
3, 115992, Note_on_c, 1, 50, 0
3, 116160, Note_on_c, 1, 51, 105
3, 116472, Note_on_c, 1, 51, 0
3, 116640, Note_on_c, 1, 53, 105
3, 116952, Note_on_c, 1, 53, 0
3, 117120, Note_on_c, 1, 58, 105
3, 117432, Note_on_c, 1, 58, 0
3, 117600, Note_on_c, 1, 46, 105
3, 117912, Note_on_c, 1, 46, 0
3, 118080, Note_on_c, 1, 62, 105
3, 118656, Note_on_c, 1, 62, 0
3, 118800, Note_on_c, 1, 60, 105
3, 118992, Note_on_c, 1, 60, 0
3, 119040, Note_on_c, 1, 58, 105
3, 119616, Note_on_c, 1, 58, 0
3, 119760, Note_on_c, 1, 57, 105
3, 119952, Note_on_c, 1, 57, 0
3, 120000, Note_on_c, 1, 55, 105
3, 120576, Note_on_c, 1, 55, 0
3, 120720, Note_on_c, 1, 53, 105
3, 120912, Note_on_c, 1, 53, 0
3, 120960, Note_on_c, 1, 51, 105
3, 121344, Note_on_c, 1, 51, 0
3, 121440, Note_on_c, 1, 63, 105
3, 121632, Note_on_c, 1, 63, 0
3, 121680, Note_on_c, 1, 62, 105
3, 121872, Note_on_c, 1, 62, 0
3, 121920, Note_on_c, 1, 60, 105
3, 122112, Note_on_c, 1, 60, 0
3, 122160, Note_on_c, 1, 58, 105
3, 122352, Note_on_c, 1, 58, 0
3, 122400, Note_on_c, 1, 57, 105
3, 122592, Note_on_c, 1, 57, 0
3, 122640, Note_on_c, 1, 58, 105
3, 122832, Note_on_c, 1, 58, 0
3, 122880, Note_on_c, 1, 57, 105
3, 123264, Note_on_c, 1, 57, 0
3, 123360, Note_on_c, 1, 63, 105
3, 123552, Note_on_c, 1, 63, 0
3, 123600, Note_on_c, 1, 62, 105
3, 123792, Note_on_c, 1, 62, 0
3, 123840, Note_on_c, 1, 60, 105
3, 124032, Note_on_c, 1, 60, 0
3, 124080, Note_on_c, 1, 58, 105
3, 124272, Note_on_c, 1, 58, 0
3, 124320, Note_on_c, 1, 57, 105
3, 124512, Note_on_c, 1, 57, 0
3, 124560, Note_on_c, 1, 58, 105
3, 124752, Note_on_c, 1, 58, 0
3, 124800, Note_on_c, 1, 57, 105
3, 125184, Note_on_c, 1, 57, 0
3, 125280, Note_on_c, 1, 63, 105
3, 125472, Note_on_c, 1, 63, 0
3, 125520, Note_on_c, 1, 62, 105
3, 125712, Note_on_c, 1, 62, 0
3, 125760, Note_on_c, 1, 60, 105
3, 125952, Note_on_c, 1, 60, 0
3, 126000, Note_on_c, 1, 58, 105
3, 126192, Note_on_c, 1, 58, 0
3, 126240, Note_on_c, 1, 57, 105
3, 126432, Note_on_c, 1, 57, 0
3, 126480, Note_on_c, 1, 58, 105
3, 126672, Note_on_c, 1, 58, 0
3, 126720, Note_on_c, 1, 57, 105
3, 127104, Note_on_c, 1, 57, 0
3, 127200, Note_on_c, 1, 58, 105
3, 127584, Note_on_c, 1, 58, 0
3, 127680, Note_on_c, 1, 51, 105
3, 128064, Note_on_c, 1, 51, 0
3, 128160, Note_on_c, 1, 53, 105
3, 128544, Note_on_c, 1, 53, 0
3, 128640, Note_on_c, 1, 46, 110
3, 129024, Note_on_c, 1, 46, 0
3, 129120, Note_on_c, 1, 51, 70
3, 129312, Note_on_c, 1, 51, 0
3, 129360, Note_on_c, 1, 50, 70
3, 129552, Note_on_c, 1, 50, 0
3, 129600, Note_on_c, 1, 48, 70
3, 129792, Note_on_c, 1, 48, 0
3, 129840, Note_on_c, 1, 46, 70
3, 130032, Note_on_c, 1, 46, 0
3, 130080, Note_on_c, 1, 45, 70
3, 130272, Note_on_c, 1, 45, 0
3, 130320, Note_on_c, 1, 46, 70
3, 130512, Note_on_c, 1, 46, 0
3, 130560, Note_on_c, 1, 45, 70
3, 130944, Note_on_c, 1, 45, 0
3, 131040, Note_on_c, 1, 51, 70
3, 131232, Note_on_c, 1, 51, 0
3, 131280, Note_on_c, 1, 50, 70
3, 131472, Note_on_c, 1, 50, 0
3, 131520, Note_on_c, 1, 48, 70
3, 131712, Note_on_c, 1, 48, 0
3, 131760, Note_on_c, 1, 46, 70
3, 131952, Note_on_c, 1, 46, 0
3, 132000, Note_on_c, 1, 45, 70
3, 132192, Note_on_c, 1, 45, 0
3, 132240, Note_on_c, 1, 46, 70
3, 132432, Note_on_c, 1, 46, 0
3, 132480, Note_on_c, 1, 45, 70
3, 132864, Note_on_c, 1, 45, 0
3, 132960, Note_on_c, 1, 63, 105
3, 133152, Note_on_c, 1, 63, 0
3, 133200, Note_on_c, 1, 62, 105
3, 133392, Note_on_c, 1, 62, 0
3, 133440, Note_on_c, 1, 60, 105
3, 133632, Note_on_c, 1, 60, 0
3, 133680, Note_on_c, 1, 58, 105
3, 133872, Note_on_c, 1, 58, 0
3, 133920, Note_on_c, 1, 57, 105
3, 134112, Note_on_c, 1, 57, 0
3, 134160, Note_on_c, 1, 58, 105
3, 134352, Note_on_c, 1, 58, 0
3, 134400, Note_on_c, 1, 57, 105
3, 134712, Note_on_c, 1, 57, 0
3, 134880, Note_on_c, 1, 58, 105
3, 135192, Note_on_c, 1, 58, 0
3, 135360, Note_on_c, 1, 51, 105
3, 135672, Note_on_c, 1, 51, 0
3, 135840, Note_on_c, 1, 53, 105
3, 136152, Note_on_c, 1, 53, 0
3, 136320, Note_on_c, 1, 46, 105
3, 136632, Note_on_c, 1, 46, 0
3, 136800, Note_on_c, 1, 46, 105
3, 137112, Note_on_c, 1, 46, 0
3, 137280, Note_on_c, 1, 62, 105
3, 137856, Note_on_c, 1, 62, 0
3, 138000, Note_on_c, 1, 60, 105
3, 138192, Note_on_c, 1, 60, 0
3, 138240, Note_on_c, 1, 58, 105
3, 138552, Note_on_c, 1, 58, 0
3, 138720, Note_on_c, 1, 46, 105
3, 139032, Note_on_c, 1, 46, 0
3, 139200, Note_on_c, 1, 62, 105
3, 139776, Note_on_c, 1, 62, 0
3, 139920, Note_on_c, 1, 60, 105
3, 140112, Note_on_c, 1, 60, 0
3, 140160, Note_on_c, 1, 58, 105
3, 140928, Note_on_c, 1, 58, 0
3, 147840, Note_on_c, 1, 55, 58
3, 148152, Note_on_c, 1, 55, 0
3, 148320, Note_on_c, 1, 50, 58
3, 148632, Note_on_c, 1, 50, 0
3, 148800, Note_on_c, 1, 58, 58
3, 149340, Note_on_c, 1, 58, 0
3, 149520, Note_on_c, 1, 57, 58
3, 149676, Note_on_c, 1, 57, 0
3, 149760, Note_on_c, 1, 55, 58
3, 150072, Note_on_c, 1, 55, 0
3, 150240, Note_on_c, 1, 58, 58
3, 150720, Note_on_c, 1, 58, 0
3, 150720, Note_on_c, 1, 57, 58
3, 151200, Note_on_c, 1, 57, 0
3, 151200, Note_on_c, 1, 55, 58
3, 151656, Note_on_c, 1, 55, 0
3, 151680, Note_on_c, 1, 54, 58
3, 151992, Note_on_c, 1, 54, 0
3, 152160, Note_on_c, 1, 50, 58
3, 152472, Note_on_c, 1, 50, 0
3, 152640, Note_on_c, 1, 60, 58
3, 153180, Note_on_c, 1, 60, 0
3, 153360, Note_on_c, 1, 58, 58
3, 153516, Note_on_c, 1, 58, 0
3, 153600, Note_on_c, 1, 57, 58
3, 153912, Note_on_c, 1, 57, 0
3, 154080, Note_on_c, 1, 60, 58
3, 154560, Note_on_c, 1, 60, 0
3, 154560, Note_on_c, 1, 58, 58
3, 155040, Note_on_c, 1, 58, 0
3, 155040, Note_on_c, 1, 57, 58
3, 155496, Note_on_c, 1, 57, 0
3, 155520, Note_on_c, 1, 55, 58
3, 155832, Note_on_c, 1, 55, 0
3, 156000, Note_on_c, 1, 58, 58
3, 156312, Note_on_c, 1, 58, 0
3, 156480, Note_on_c, 1, 63, 58
3, 156984, Note_on_c, 1, 63, 0
3, 157200, Note_on_c, 1, 62, 58
3, 157356, Note_on_c, 1, 62, 0
3, 157440, Note_on_c, 1, 60, 58
3, 157752, Note_on_c, 1, 60, 0
3, 157920, Note_on_c, 1, 57, 58
3, 158232, Note_on_c, 1, 57, 0
3, 158400, Note_on_c, 1, 62, 58
3, 158904, Note_on_c, 1, 62, 0
3, 159120, Note_on_c, 1, 60, 58
3, 159276, Note_on_c, 1, 60, 0
3, 159360, Note_on_c, 1, 58, 58
3, 159672, Note_on_c, 1, 58, 0
3, 159840, Note_on_c, 1, 55, 58
3, 160152, Note_on_c, 1, 55, 0
3, 160320, Note_on_c, 1, 51, 58
3, 160632, Note_on_c, 1, 51, 0
3, 160800, Note_on_c, 1, 49, 58
3, 161112, Note_on_c, 1, 49, 0
3, 161280, Note_on_c, 1, 50, 58
3, 161592, Note_on_c, 1, 50, 0
3, 161760, Note_on_c, 1, 60, 58
3, 162240, Note_on_c, 1, 60, 0
3, 162240, Note_on_c, 1, 58, 58
3, 162720, Note_on_c, 1, 58, 0
3, 162720, Note_on_c, 1, 57, 58
3, 163032, Note_on_c, 1, 57, 0
3, 163200, Note_on_c, 1, 55, 105
3, 163512, Note_on_c, 1, 55, 0
3, 163680, Note_on_c, 1, 50, 105
3, 163992, Note_on_c, 1, 50, 0
3, 164160, Note_on_c, 1, 58, 105
3, 164736, Note_on_c, 1, 58, 0
3, 164880, Note_on_c, 1, 57, 105
3, 165036, Note_on_c, 1, 57, 0
3, 165120, Note_on_c, 1, 55, 105
3, 165432, Note_on_c, 1, 55, 0
3, 165600, Note_on_c, 1, 58, 105
3, 166080, Note_on_c, 1, 58, 0
3, 166080, Note_on_c, 1, 57, 105
3, 166560, Note_on_c, 1, 57, 0
3, 166560, Note_on_c, 1, 55, 105
3, 167040, Note_on_c, 1, 55, 0
3, 167040, Note_on_c, 1, 54, 105
3, 167352, Note_on_c, 1, 54, 0
3, 167520, Note_on_c, 1, 50, 105
3, 167832, Note_on_c, 1, 50, 0
3, 168000, Note_on_c, 1, 60, 105
3, 168576, Note_on_c, 1, 60, 0
3, 168720, Note_on_c, 1, 58, 105
3, 168876, Note_on_c, 1, 58, 0
3, 168960, Note_on_c, 1, 57, 105
3, 169272, Note_on_c, 1, 57, 0
3, 169440, Note_on_c, 1, 60, 105
3, 169920, Note_on_c, 1, 60, 0
3, 169920, Note_on_c, 1, 58, 105
3, 170400, Note_on_c, 1, 58, 0
3, 170400, Note_on_c, 1, 57, 105
3, 170880, Note_on_c, 1, 57, 0
3, 170880, Note_on_c, 1, 55, 105
3, 171192, Note_on_c, 1, 55, 0
3, 171360, Note_on_c, 1, 58, 105
3, 171672, Note_on_c, 1, 58, 0
3, 171840, Note_on_c, 1, 63, 105
3, 172416, Note_on_c, 1, 63, 0
3, 172560, Note_on_c, 1, 62, 105
3, 172716, Note_on_c, 1, 62, 0
3, 172800, Note_on_c, 1, 60, 105
3, 173112, Note_on_c, 1, 60, 0
3, 173280, Note_on_c, 1, 57, 105
3, 173592, Note_on_c, 1, 57, 0
3, 173760, Note_on_c, 1, 62, 105
3, 174480, Note_on_c, 1, 62, 0
3, 174480, Note_on_c, 1, 60, 105
3, 174672, Note_on_c, 1, 60, 0
3, 174720, Note_on_c, 1, 58, 105
3, 175032, Note_on_c, 1, 58, 0
3, 175200, Note_on_c, 1, 51, 105
3, 175512, Note_on_c, 1, 51, 0
3, 175680, Note_on_c, 1, 48, 105
3, 175992, Note_on_c, 1, 48, 0
3, 176160, Note_on_c, 1, 50, 105
3, 176472, Note_on_c, 1, 50, 0
3, 176640, Note_on_c, 1, 43, 105
3, 177408, Note_on_c, 1, 43, 0
3, 196800, Note_on_c, 1, 63, 105
3, 196956, Note_on_c, 1, 63, 0
3, 197040, Note_on_c, 1, 62, 105
3, 197196, Note_on_c, 1, 62, 0
3, 197280, Note_on_c, 1, 60, 105
3, 197436, Note_on_c, 1, 60, 0
3, 197520, Note_on_c, 1, 58, 105
3, 197676, Note_on_c, 1, 58, 0
3, 197760, Note_on_c, 1, 57, 105
3, 198000, Note_on_c, 1, 57, 0
3, 198000, Note_on_c, 1, 58, 105
3, 198156, Note_on_c, 1, 58, 0
3, 198240, Note_on_c, 1, 57, 105
3, 198396, Note_on_c, 1, 57, 0
3, 198480, Note_on_c, 1, 55, 105
3, 198636, Note_on_c, 1, 55, 0
3, 198720, Note_on_c, 1, 53, 105
3, 198876, Note_on_c, 1, 53, 0
3, 198960, Note_on_c, 1, 51, 105
3, 199116, Note_on_c, 1, 51, 0
3, 199200, Note_on_c, 1, 50, 105
3, 199356, Note_on_c, 1, 50, 0
3, 199440, Note_on_c, 1, 48, 105
3, 199596, Note_on_c, 1, 48, 0
3, 199680, Note_on_c, 1, 46, 105
3, 200064, Note_on_c, 1, 46, 0
3, 200640, Note_on_c, 1, 58, 105
3, 201216, Note_on_c, 1, 58, 0
3, 201360, Note_on_c, 1, 57, 105
3, 201552, Note_on_c, 1, 57, 0
3, 201600, Note_on_c, 1, 55, 105
3, 201840, Note_on_c, 1, 55, 0
3, 202080, Note_on_c, 1, 57, 105
3, 202320, Note_on_c, 1, 57, 0
3, 202560, Note_on_c, 1, 55, 105
3, 203136, Note_on_c, 1, 55, 0
3, 203280, Note_on_c, 1, 53, 105
3, 203472, Note_on_c, 1, 53, 0
3, 203520, Note_on_c, 1, 52, 105
3, 203760, Note_on_c, 1, 52, 0
3, 204000, Note_on_c, 1, 53, 105
3, 204240, Note_on_c, 1, 53, 0
3, 204480, Note_on_c, 1, 51, 105
3, 205056, Note_on_c, 1, 51, 0
3, 205200, Note_on_c, 1, 50, 105
3, 205392, Note_on_c, 1, 50, 0
3, 205440, Note_on_c, 1, 48, 105
3, 205680, Note_on_c, 1, 48, 0
3, 205920, Note_on_c, 1, 50, 105
3, 206160, Note_on_c, 1, 50, 0
3, 206400, Note_on_c, 1, 60, 105
3, 206640, Note_on_c, 1, 60, 0
3, 206640, Note_on_c, 1, 62, 105
3, 206880, Note_on_c, 1, 62, 0
3, 206880, Note_on_c, 1, 63, 105
3, 207072, Note_on_c, 1, 63, 0
3, 207120, Note_on_c, 1, 62, 105
3, 207264, Note_on_c, 1, 62, 0
3, 207360, Note_on_c, 1, 60, 105
3, 207504, Note_on_c, 1, 60, 0
3, 207600, Note_on_c, 1, 58, 105
3, 207744, Note_on_c, 1, 58, 0
3, 207840, Note_on_c, 1, 57, 105
3, 207984, Note_on_c, 1, 57, 0
3, 208080, Note_on_c, 1, 55, 105
3, 208224, Note_on_c, 1, 55, 0
3, 208320, Note_on_c, 1, 53, 105
3, 208560, Note_on_c, 1, 53, 0
3, 208560, Note_on_c, 1, 55, 105
3, 208800, Note_on_c, 1, 55, 0
3, 208800, Note_on_c, 1, 57, 105
3, 209040, Note_on_c, 1, 57, 0
3, 209040, Note_on_c, 1, 53, 105
3, 209232, Note_on_c, 1, 53, 0
3, 209280, Note_on_c, 1, 58, 105
3, 209472, Note_on_c, 1, 58, 0
3, 209520, Note_on_c, 1, 57, 105
3, 209712, Note_on_c, 1, 57, 0
3, 209760, Note_on_c, 1, 55, 105
3, 209952, Note_on_c, 1, 55, 0
3, 210000, Note_on_c, 1, 53, 105
3, 210192, Note_on_c, 1, 53, 0
3, 210240, Note_on_c, 1, 51, 105
3, 210432, Note_on_c, 1, 51, 0
3, 210480, Note_on_c, 1, 50, 105
3, 210672, Note_on_c, 1, 50, 0
3, 210720, Note_on_c, 1, 48, 105
3, 210912, Note_on_c, 1, 48, 0
3, 210960, Note_on_c, 1, 46, 105
3, 211152, Note_on_c, 1, 46, 0
3, 211200, Note_on_c, 1, 51, 105
3, 211512, Note_on_c, 1, 51, 0
3, 211680, Note_on_c, 1, 51, 105
3, 211992, Note_on_c, 1, 51, 0
3, 212160, Note_on_c, 1, 53, 105
3, 212472, Note_on_c, 1, 53, 0
3, 212640, Note_on_c, 1, 41, 105
3, 212952, Note_on_c, 1, 41, 0
3, 213120, Note_on_c, 1, 46, 105
3, 213432, Note_on_c, 1, 46, 0
3, 213600, Note_on_c, 1, 53, 105
3, 213912, Note_on_c, 1, 53, 0
3, 214080, Note_on_c, 1, 62, 105
3, 214656, Note_on_c, 1, 62, 0
3, 214800, Note_on_c, 1, 60, 105
3, 214992, Note_on_c, 1, 60, 0
3, 215040, Note_on_c, 1, 58, 105
3, 215328, Note_on_c, 1, 58, 0
3, 215520, Note_on_c, 1, 53, 105
3, 215808, Note_on_c, 1, 53, 0
3, 216000, Note_on_c, 1, 50, 105
3, 216288, Note_on_c, 1, 50, 0
3, 216480, Note_on_c, 1, 46, 105
3, 216768, Note_on_c, 1, 46, 0
3, 216960, Note_on_c, 1, 53, 92
3, 217272, Note_on_c, 1, 53, 0
3, 240000, Note_on_c, 1, 46, 105
3, 240312, Note_on_c, 1, 46, 0
3, 240480, Note_on_c, 1, 53, 105
3, 240792, Note_on_c, 1, 53, 0
3, 240960, Note_on_c, 1, 62, 105
3, 241536, Note_on_c, 1, 62, 0
3, 241680, Note_on_c, 1, 60, 105
3, 241872, Note_on_c, 1, 60, 0
3, 241920, Note_on_c, 1, 58, 105
3, 242232, Note_on_c, 1, 58, 0
3, 242400, Note_on_c, 1, 53, 105
3, 242712, Note_on_c, 1, 53, 0
3, 242880, Note_on_c, 1, 62, 105
3, 243192, Note_on_c, 1, 62, 0
3, 243360, Note_on_c, 1, 58, 105
3, 243672, Note_on_c, 1, 58, 0
3, 243840, Note_on_c, 1, 60, 105
3, 244152, Note_on_c, 1, 60, 0
3, 244320, Note_on_c, 1, 53, 105
3, 244632, Note_on_c, 1, 53, 0
3, 244800, Note_on_c, 1, 63, 105
3, 245376, Note_on_c, 1, 63, 0
3, 245520, Note_on_c, 1, 62, 105
3, 245712, Note_on_c, 1, 62, 0
3, 245760, Note_on_c, 1, 60, 105
3, 246072, Note_on_c, 1, 60, 0
3, 246240, Note_on_c, 1, 53, 105
3, 246552, Note_on_c, 1, 53, 0
3, 246720, Note_on_c, 1, 63, 105
3, 247032, Note_on_c, 1, 63, 0
3, 247200, Note_on_c, 1, 60, 105
3, 247512, Note_on_c, 1, 60, 0
3, 247680, Note_on_c, 1, 58, 105
3, 247992, Note_on_c, 1, 58, 0
3, 248160, Note_on_c, 1, 62, 105
3, 248394, Note_on_c, 1, 62, 0
3, 248520, Note_on_c, 1, 58, 105
3, 248598, Note_on_c, 1, 58, 0
3, 248640, Note_on_c, 1, 50, 105
3, 248952, Note_on_c, 1, 50, 0
3, 249120, Note_on_c, 1, 58, 105
3, 249354, Note_on_c, 1, 58, 0
3, 249480, Note_on_c, 1, 50, 105
3, 249558, Note_on_c, 1, 50, 0
3, 249600, Note_on_c, 1, 51, 105
3, 249912, Note_on_c, 1, 51, 0
3, 250080, Note_on_c, 1, 58, 105
3, 250314, Note_on_c, 1, 58, 0
3, 250440, Note_on_c, 1, 51, 105
3, 250518, Note_on_c, 1, 51, 0
3, 250560, Note_on_c, 1, 55, 105
3, 250872, Note_on_c, 1, 55, 0
3, 251040, Note_on_c, 1, 58, 105
3, 251274, Note_on_c, 1, 58, 0
3, 251400, Note_on_c, 1, 55, 105
3, 251478, Note_on_c, 1, 55, 0
3, 251520, Note_on_c, 1, 57, 105
3, 251832, Note_on_c, 1, 57, 0
3, 252000, Note_on_c, 1, 60, 105
3, 252234, Note_on_c, 1, 60, 0
3, 252360, Note_on_c, 1, 57, 105
3, 252438, Note_on_c, 1, 57, 0
3, 252480, Note_on_c, 1, 53, 105
3, 252792, Note_on_c, 1, 53, 0
3, 252960, Note_on_c, 1, 57, 105
3, 253194, Note_on_c, 1, 57, 0
3, 253320, Note_on_c, 1, 53, 105
3, 253398, Note_on_c, 1, 53, 0
3, 253440, Note_on_c, 1, 55, 105
3, 253752, Note_on_c, 1, 55, 0
3, 253920, Note_on_c, 1, 50, 105
3, 254232, Note_on_c, 1, 50, 0
3, 254400, Note_on_c, 1, 51, 105
3, 254712, Note_on_c, 1, 51, 0
3, 254880, Note_on_c, 1, 53, 105
3, 255192, Note_on_c, 1, 53, 0
3, 255360, Note_on_c, 1, 58, 105
3, 255672, Note_on_c, 1, 58, 0
3, 255840, Note_on_c, 1, 62, 105
3, 256074, Note_on_c, 1, 62, 0
3, 256200, Note_on_c, 1, 58, 105
3, 256278, Note_on_c, 1, 58, 0
3, 256320, Note_on_c, 1, 50, 105
3, 256632, Note_on_c, 1, 50, 0
3, 256800, Note_on_c, 1, 58, 105
3, 257034, Note_on_c, 1, 58, 0
3, 257160, Note_on_c, 1, 50, 105
3, 257238, Note_on_c, 1, 50, 0
3, 257280, Note_on_c, 1, 51, 105
3, 257592, Note_on_c, 1, 51, 0
3, 257760, Note_on_c, 1, 58, 105
3, 257994, Note_on_c, 1, 58, 0
3, 258120, Note_on_c, 1, 51, 105
3, 258198, Note_on_c, 1, 51, 0
3, 258240, Note_on_c, 1, 55, 105
3, 258552, Note_on_c, 1, 55, 0
3, 258720, Note_on_c, 1, 58, 105
3, 258954, Note_on_c, 1, 58, 0
3, 259080, Note_on_c, 1, 55, 105
3, 259158, Note_on_c, 1, 55, 0
3, 259200, Note_on_c, 1, 57, 105
3, 259512, Note_on_c, 1, 57, 0
3, 259680, Note_on_c, 1, 60, 105
3, 259914, Note_on_c, 1, 60, 0
3, 260040, Note_on_c, 1, 57, 105
3, 260118, Note_on_c, 1, 57, 0
3, 260160, Note_on_c, 1, 53, 105
3, 260472, Note_on_c, 1, 53, 0
3, 260640, Note_on_c, 1, 57, 105
3, 260874, Note_on_c, 1, 57, 0
3, 261000, Note_on_c, 1, 53, 105
3, 261078, Note_on_c, 1, 53, 0
3, 261120, Note_on_c, 1, 55, 105
3, 261432, Note_on_c, 1, 55, 0
3, 261600, Note_on_c, 1, 50, 105
3, 261912, Note_on_c, 1, 50, 0
3, 262080, Note_on_c, 1, 51, 105
3, 262392, Note_on_c, 1, 51, 0
3, 262560, Note_on_c, 1, 53, 105
3, 262872, Note_on_c, 1, 53, 0
3, 263040, Note_on_c, 1, 58, 105
3, 263352, Note_on_c, 1, 58, 0
3, 263520, Note_on_c, 1, 46, 105
3, 263832, Note_on_c, 1, 46, 0
3, 264000, Note_on_c, 1, 62, 105
3, 264576, Note_on_c, 1, 62, 0
3, 264720, Note_on_c, 1, 60, 105
3, 264912, Note_on_c, 1, 60, 0
3, 264960, Note_on_c, 1, 58, 105
3, 265536, Note_on_c, 1, 58, 0
3, 265680, Note_on_c, 1, 57, 105
3, 265872, Note_on_c, 1, 57, 0
3, 265920, Note_on_c, 1, 55, 105
3, 266496, Note_on_c, 1, 55, 0
3, 266640, Note_on_c, 1, 53, 105
3, 266832, Note_on_c, 1, 53, 0
3, 266880, Note_on_c, 1, 51, 105
3, 267264, Note_on_c, 1, 51, 0
3, 267360, Note_on_c, 1, 63, 105
3, 267552, Note_on_c, 1, 63, 0
3, 267600, Note_on_c, 1, 62, 105
3, 267792, Note_on_c, 1, 62, 0
3, 267840, Note_on_c, 1, 60, 105
3, 268032, Note_on_c, 1, 60, 0
3, 268080, Note_on_c, 1, 58, 105
3, 268272, Note_on_c, 1, 58, 0
3, 268320, Note_on_c, 1, 57, 105
3, 268512, Note_on_c, 1, 57, 0
3, 268560, Note_on_c, 1, 58, 105
3, 268752, Note_on_c, 1, 58, 0
3, 268800, Note_on_c, 1, 57, 105
3, 269184, Note_on_c, 1, 57, 0
3, 269280, Note_on_c, 1, 63, 105
3, 269472, Note_on_c, 1, 63, 0
3, 269520, Note_on_c, 1, 62, 105
3, 269712, Note_on_c, 1, 62, 0
3, 269760, Note_on_c, 1, 60, 105
3, 269952, Note_on_c, 1, 60, 0
3, 270000, Note_on_c, 1, 58, 105
3, 270192, Note_on_c, 1, 58, 0
3, 270240, Note_on_c, 1, 57, 105
3, 270432, Note_on_c, 1, 57, 0
3, 270480, Note_on_c, 1, 58, 105
3, 270672, Note_on_c, 1, 58, 0
3, 270720, Note_on_c, 1, 57, 105
3, 271104, Note_on_c, 1, 57, 0
3, 271200, Note_on_c, 1, 63, 105
3, 271392, Note_on_c, 1, 63, 0
3, 271440, Note_on_c, 1, 62, 105
3, 271632, Note_on_c, 1, 62, 0
3, 271680, Note_on_c, 1, 60, 105
3, 271872, Note_on_c, 1, 60, 0
3, 271920, Note_on_c, 1, 58, 105
3, 272112, Note_on_c, 1, 58, 0
3, 272160, Note_on_c, 1, 57, 105
3, 272352, Note_on_c, 1, 57, 0
3, 272400, Note_on_c, 1, 58, 105
3, 272592, Note_on_c, 1, 58, 0
3, 272640, Note_on_c, 1, 57, 105
3, 273024, Note_on_c, 1, 57, 0
3, 273120, Note_on_c, 1, 58, 105
3, 273504, Note_on_c, 1, 58, 0
3, 273600, Note_on_c, 1, 51, 105
3, 273984, Note_on_c, 1, 51, 0
3, 274080, Note_on_c, 1, 53, 105
3, 274464, Note_on_c, 1, 53, 0
3, 274560, Note_on_c, 1, 46, 110
3, 274944, Note_on_c, 1, 46, 0
3, 275040, Note_on_c, 1, 51, 70
3, 275232, Note_on_c, 1, 51, 0
3, 275280, Note_on_c, 1, 50, 70
3, 275472, Note_on_c, 1, 50, 0
3, 275520, Note_on_c, 1, 48, 70
3, 275712, Note_on_c, 1, 48, 0
3, 275760, Note_on_c, 1, 46, 70
3, 275952, Note_on_c, 1, 46, 0
3, 276000, Note_on_c, 1, 45, 70
3, 276192, Note_on_c, 1, 45, 0
3, 276240, Note_on_c, 1, 46, 70
3, 276432, Note_on_c, 1, 46, 0
3, 276480, Note_on_c, 1, 45, 70
3, 276864, Note_on_c, 1, 45, 0
3, 276960, Note_on_c, 1, 51, 70
3, 277152, Note_on_c, 1, 51, 0
3, 277200, Note_on_c, 1, 50, 70
3, 277392, Note_on_c, 1, 50, 0
3, 277440, Note_on_c, 1, 48, 70
3, 277632, Note_on_c, 1, 48, 0
3, 277680, Note_on_c, 1, 46, 70
3, 277872, Note_on_c, 1, 46, 0
3, 277920, Note_on_c, 1, 45, 70
3, 278112, Note_on_c, 1, 45, 0
3, 278160, Note_on_c, 1, 46, 70
3, 278352, Note_on_c, 1, 46, 0
3, 278400, Note_on_c, 1, 45, 70
3, 278784, Note_on_c, 1, 45, 0
3, 278880, Note_on_c, 1, 63, 105
3, 279072, Note_on_c, 1, 63, 0
3, 279120, Note_on_c, 1, 62, 105
3, 279312, Note_on_c, 1, 62, 0
3, 279360, Note_on_c, 1, 60, 105
3, 279552, Note_on_c, 1, 60, 0
3, 279600, Note_on_c, 1, 58, 105
3, 279792, Note_on_c, 1, 58, 0
3, 279840, Note_on_c, 1, 57, 105
3, 280032, Note_on_c, 1, 57, 0
3, 280080, Note_on_c, 1, 58, 105
3, 280272, Note_on_c, 1, 58, 0
3, 280320, Note_on_c, 1, 57, 105
3, 280632, Note_on_c, 1, 57, 0
3, 280800, Note_on_c, 1, 58, 105
3, 281112, Note_on_c, 1, 58, 0
3, 281280, Note_on_c, 1, 51, 105
3, 281592, Note_on_c, 1, 51, 0
3, 281760, Note_on_c, 1, 53, 105
3, 282072, Note_on_c, 1, 53, 0
3, 282240, Note_on_c, 1, 46, 105
3, 282552, Note_on_c, 1, 46, 0
3, 282720, Note_on_c, 1, 46, 105
3, 283032, Note_on_c, 1, 46, 0
3, 283200, Note_on_c, 1, 62, 105
3, 283776, Note_on_c, 1, 62, 0
3, 283920, Note_on_c, 1, 60, 105
3, 284112, Note_on_c, 1, 60, 0
3, 284160, Note_on_c, 1, 58, 105
3, 284472, Note_on_c, 1, 58, 0
3, 284640, Note_on_c, 1, 46, 105
3, 284952, Note_on_c, 1, 46, 0
3, 285120, Note_on_c, 1, 62, 105
3, 285696, Note_on_c, 1, 62, 0
3, 285840, Note_on_c, 1, 60, 105
3, 286032, Note_on_c, 1, 60, 0
3, 286080, Note_on_c, 1, 58, 105
3, 286848, Note_on_c, 1, 58, 0
3, 293760, Note_on_c, 1, 55, 105
3, 294120, Note_on_c, 1, 55, 0
3, 294240, Note_on_c, 1, 56, 105
3, 294420, Note_on_c, 1, 56, 0
3, 294480, Note_on_c, 1, 53, 105
3, 294660, Note_on_c, 1, 53, 0
3, 294720, Note_on_c, 1, 51, 105
3, 295080, Note_on_c, 1, 51, 0
3, 295200, Note_on_c, 1, 53, 105
3, 295380, Note_on_c, 1, 53, 0
3, 295440, Note_on_c, 1, 50, 105
3, 295620, Note_on_c, 1, 50, 0
3, 295680, Note_on_c, 1, 48, 105
3, 296040, Note_on_c, 1, 48, 0
3, 296160, Note_on_c, 1, 62, 105
3, 296340, Note_on_c, 1, 62, 0
3, 296400, Note_on_c, 1, 58, 105
3, 296580, Note_on_c, 1, 58, 0
3, 296640, Note_on_c, 1, 57, 105
3, 297000, Note_on_c, 1, 57, 0
3, 297120, Note_on_c, 1, 58, 105
3, 297300, Note_on_c, 1, 58, 0
3, 297360, Note_on_c, 1, 55, 105
3, 297540, Note_on_c, 1, 55, 0
3, 297600, Note_on_c, 1, 53, 105
3, 297960, Note_on_c, 1, 53, 0
3, 298080, Note_on_c, 1, 55, 105
3, 298260, Note_on_c, 1, 55, 0
3, 298320, Note_on_c, 1, 51, 105
3, 298500, Note_on_c, 1, 51, 0
3, 298560, Note_on_c, 1, 50, 105
3, 298920, Note_on_c, 1, 50, 0
3, 299040, Note_on_c, 1, 51, 105
3, 299220, Note_on_c, 1, 51, 0
3, 299280, Note_on_c, 1, 48, 105
3, 299460, Note_on_c, 1, 48, 0
3, 299520, Note_on_c, 1, 46, 105
3, 299880, Note_on_c, 1, 46, 0
3, 300000, Note_on_c, 1, 60, 105
3, 300180, Note_on_c, 1, 60, 0
3, 300240, Note_on_c, 1, 56, 105
3, 300420, Note_on_c, 1, 56, 0
3, 300480, Note_on_c, 1, 55, 105
3, 300840, Note_on_c, 1, 55, 0
3, 300960, Note_on_c, 1, 56, 105
3, 301140, Note_on_c, 1, 56, 0
3, 301200, Note_on_c, 1, 53, 105
3, 301380, Note_on_c, 1, 53, 0
3, 301440, Note_on_c, 1, 51, 105
3, 301800, Note_on_c, 1, 51, 0
3, 301920, Note_on_c, 1, 53, 105
3, 302100, Note_on_c, 1, 53, 0
3, 302160, Note_on_c, 1, 50, 105
3, 302340, Note_on_c, 1, 50, 0
3, 302400, Note_on_c, 1, 48, 105
3, 302760, Note_on_c, 1, 48, 0
3, 302880, Note_on_c, 1, 50, 105
3, 303060, Note_on_c, 1, 50, 0
3, 303120, Note_on_c, 1, 46, 105
3, 303300, Note_on_c, 1, 46, 0
3, 303360, Note_on_c, 1, 45, 105
3, 303720, Note_on_c, 1, 45, 0
3, 303840, Note_on_c, 1, 58, 105
3, 304020, Note_on_c, 1, 58, 0
3, 304080, Note_on_c, 1, 55, 105
3, 304260, Note_on_c, 1, 55, 0
3, 304320, Note_on_c, 1, 54, 105
3, 304680, Note_on_c, 1, 54, 0
3, 304800, Note_on_c, 1, 55, 105
3, 304980, Note_on_c, 1, 55, 0
3, 305040, Note_on_c, 1, 52, 105
3, 305220, Note_on_c, 1, 52, 0
3, 305280, Note_on_c, 1, 50, 105
3, 305640, Note_on_c, 1, 50, 0
3, 305760, Note_on_c, 1, 63, 105
3, 305940, Note_on_c, 1, 63, 0
3, 306000, Note_on_c, 1, 60, 105
3, 306180, Note_on_c, 1, 60, 0
3, 306240, Note_on_c, 1, 58, 105
3, 306600, Note_on_c, 1, 58, 0
3, 306720, Note_on_c, 1, 60, 105
3, 306900, Note_on_c, 1, 60, 0
3, 306960, Note_on_c, 1, 57, 105
3, 307140, Note_on_c, 1, 57, 0
3, 307200, Note_on_c, 1, 55, 105
3, 307560, Note_on_c, 1, 55, 0
3, 307680, Note_on_c, 1, 55, 105
3, 308040, Note_on_c, 1, 55, 0
3, 308160, Note_on_c, 1, 52, 105
3, 308520, Note_on_c, 1, 52, 0
3, 308640, Note_on_c, 1, 53, 105
3, 309000, Note_on_c, 1, 53, 0
3, 309120, Note_on_c, 1, 50, 105
3, 309480, Note_on_c, 1, 50, 0
3, 309600, Note_on_c, 1, 52, 105
3, 309960, Note_on_c, 1, 52, 0
3, 310080, Note_on_c, 1, 49, 105
3, 310440, Note_on_c, 1, 49, 0
3, 310560, Note_on_c, 1, 50, 105
3, 310920, Note_on_c, 1, 50, 0
3, 311040, Note_on_c, 1, 47, 105
3, 311400, Note_on_c, 1, 47, 0
3, 311520, Note_on_c, 1, 49, 105
3, 311880, Note_on_c, 1, 49, 0
3, 312000, Note_on_c, 1, 50, 105
3, 312360, Note_on_c, 1, 50, 0
3, 312480, Note_on_c, 1, 44, 105
3, 312840, Note_on_c, 1, 44, 0
3, 312960, Note_on_c, 1, 45, 105
3, 313728, Note_on_c, 1, 45, 0
3, 314400, Note_on_c, 1, 61, 105
3, 314664, Note_on_c, 1, 61, 0
3, 314880, Note_on_c, 1, 61, 105
3, 315840, Note_on_c, 1, 61, 0
3, 315840, Note_on_c, 1, 62, 105
3, 316104, Note_on_c, 1, 62, 0
3, 316320, Note_on_c, 1, 63, 105
3, 316584, Note_on_c, 1, 63, 0
3, 316800, Note_on_c, 1, 63, 105
3, 317760, Note_on_c, 1, 63, 0
3, 317760, Note_on_c, 1, 64, 105
3, 318024, Note_on_c, 1, 64, 0
3, 318240, Note_on_c, 1, 64, 105
3, 318504, Note_on_c, 1, 64, 0
3, 318720, Note_on_c, 1, 65, 105
3, 319032, Note_on_c, 1, 65, 0
3, 319200, Note_on_c, 1, 62, 105
3, 319512, Note_on_c, 1, 62, 0
3, 319680, Note_on_c, 1, 64, 105
3, 319992, Note_on_c, 1, 64, 0
3, 320160, Note_on_c, 1, 61, 105
3, 320472, Note_on_c, 1, 61, 0
3, 320640, Note_on_c, 1, 62, 105
3, 320820, Note_on_c, 1, 62, 0
3, 320880, Note_on_c, 1, 64, 105
3, 321060, Note_on_c, 1, 64, 0
3, 321120, Note_on_c, 1, 65, 105
3, 321300, Note_on_c, 1, 65, 0
3, 321360, Note_on_c, 1, 62, 105
3, 321540, Note_on_c, 1, 62, 0
3, 321600, Note_on_c, 1, 61, 105
3, 321780, Note_on_c, 1, 61, 0
3, 321840, Note_on_c, 1, 62, 105
3, 322020, Note_on_c, 1, 62, 0
3, 322080, Note_on_c, 1, 64, 105
3, 322260, Note_on_c, 1, 64, 0
3, 322320, Note_on_c, 1, 61, 105
3, 322500, Note_on_c, 1, 61, 0
3, 322560, Note_on_c, 1, 62, 105
3, 322740, Note_on_c, 1, 62, 0
3, 322800, Note_on_c, 1, 64, 105
3, 322980, Note_on_c, 1, 64, 0
3, 323040, Note_on_c, 1, 65, 105
3, 323220, Note_on_c, 1, 65, 0
3, 323280, Note_on_c, 1, 62, 105
3, 323460, Note_on_c, 1, 62, 0
3, 323520, Note_on_c, 1, 61, 105
3, 323700, Note_on_c, 1, 61, 0
3, 323760, Note_on_c, 1, 62, 105
3, 323940, Note_on_c, 1, 62, 0
3, 324000, Note_on_c, 1, 64, 105
3, 324180, Note_on_c, 1, 64, 0
3, 324240, Note_on_c, 1, 61, 105
3, 324420, Note_on_c, 1, 61, 0
3, 324480, Note_on_c, 1, 62, 105
3, 324864, Note_on_c, 1, 62, 0
3, 329760, Note_on_c, 1, 59, 105
3, 330024, Note_on_c, 1, 59, 0
3, 330240, Note_on_c, 1, 59, 105
3, 331200, Note_on_c, 1, 59, 0
3, 331200, Note_on_c, 1, 60, 105
3, 331512, Note_on_c, 1, 60, 0
3, 331680, Note_on_c, 1, 61, 105
3, 331944, Note_on_c, 1, 61, 0
3, 332160, Note_on_c, 1, 61, 105
3, 333120, Note_on_c, 1, 61, 0
3, 333120, Note_on_c, 1, 62, 105
3, 333432, Note_on_c, 1, 62, 0
3, 333600, Note_on_c, 1, 62, 105
3, 333864, Note_on_c, 1, 62, 0
3, 334080, Note_on_c, 1, 63, 105
3, 334392, Note_on_c, 1, 63, 0
3, 334560, Note_on_c, 1, 60, 105
3, 334872, Note_on_c, 1, 60, 0
3, 335040, Note_on_c, 1, 62, 105
3, 335352, Note_on_c, 1, 62, 0
3, 335520, Note_on_c, 1, 59, 105
3, 335832, Note_on_c, 1, 59, 0
3, 336000, Note_on_c, 1, 60, 105
3, 336180, Note_on_c, 1, 60, 0
3, 336240, Note_on_c, 1, 62, 105
3, 336420, Note_on_c, 1, 62, 0
3, 336480, Note_on_c, 1, 63, 105
3, 336660, Note_on_c, 1, 63, 0
3, 336720, Note_on_c, 1, 60, 105
3, 336900, Note_on_c, 1, 60, 0
3, 336960, Note_on_c, 1, 59, 105
3, 337140, Note_on_c, 1, 59, 0
3, 337200, Note_on_c, 1, 60, 105
3, 337380, Note_on_c, 1, 60, 0
3, 337440, Note_on_c, 1, 62, 105
3, 337620, Note_on_c, 1, 62, 0
3, 337680, Note_on_c, 1, 59, 105
3, 337860, Note_on_c, 1, 59, 0
3, 337920, Note_on_c, 1, 60, 105
3, 338100, Note_on_c, 1, 60, 0
3, 338160, Note_on_c, 1, 62, 105
3, 338340, Note_on_c, 1, 62, 0
3, 338400, Note_on_c, 1, 63, 105
3, 338580, Note_on_c, 1, 63, 0
3, 338640, Note_on_c, 1, 60, 105
3, 338820, Note_on_c, 1, 60, 0
3, 338880, Note_on_c, 1, 59, 105
3, 339060, Note_on_c, 1, 59, 0
3, 339120, Note_on_c, 1, 60, 105
3, 339300, Note_on_c, 1, 60, 0
3, 339360, Note_on_c, 1, 62, 105
3, 339540, Note_on_c, 1, 62, 0
3, 339600, Note_on_c, 1, 59, 105
3, 339780, Note_on_c, 1, 59, 0
3, 339840, Note_on_c, 1, 60, 105
3, 340020, Note_on_c, 1, 60, 0
3, 340080, Note_on_c, 1, 62, 105
3, 340260, Note_on_c, 1, 62, 0
3, 340320, Note_on_c, 1, 63, 105
3, 340500, Note_on_c, 1, 63, 0
3, 340560, Note_on_c, 1, 60, 105
3, 340740, Note_on_c, 1, 60, 0
3, 340800, Note_on_c, 1, 58, 105
3, 340980, Note_on_c, 1, 58, 0
3, 341040, Note_on_c, 1, 57, 105
3, 341220, Note_on_c, 1, 57, 0
3, 341280, Note_on_c, 1, 58, 105
3, 341460, Note_on_c, 1, 58, 0
3, 341520, Note_on_c, 1, 55, 105
3, 341700, Note_on_c, 1, 55, 0
3, 341760, Note_on_c, 1, 57, 105
3, 341940, Note_on_c, 1, 57, 0
3, 342000, Note_on_c, 1, 55, 105
3, 342180, Note_on_c, 1, 55, 0
3, 342240, Note_on_c, 1, 57, 105
3, 342420, Note_on_c, 1, 57, 0
3, 342480, Note_on_c, 1, 54, 105
3, 342660, Note_on_c, 1, 54, 0
3, 342720, Note_on_c, 1, 54, 105
3, 342900, Note_on_c, 1, 54, 0
3, 342960, Note_on_c, 1, 52, 105
3, 343140, Note_on_c, 1, 52, 0
3, 343200, Note_on_c, 1, 54, 105
3, 343380, Note_on_c, 1, 54, 0
3, 343440, Note_on_c, 1, 50, 105
3, 343620, Note_on_c, 1, 50, 0
3, 343680, Note_on_c, 1, 57, 105
3, 343860, Note_on_c, 1, 57, 0
3, 343920, Note_on_c, 1, 58, 105
3, 344100, Note_on_c, 1, 58, 0
3, 344160, Note_on_c, 1, 62, 105
3, 344340, Note_on_c, 1, 62, 0
3, 344400, Note_on_c, 1, 55, 105
3, 344580, Note_on_c, 1, 55, 0
3, 344640, Note_on_c, 1, 51, 105
3, 344820, Note_on_c, 1, 51, 0
3, 344880, Note_on_c, 1, 55, 105
3, 345060, Note_on_c, 1, 55, 0
3, 345120, Note_on_c, 1, 53, 105
3, 345300, Note_on_c, 1, 53, 0
3, 345360, Note_on_c, 1, 51, 105
3, 345540, Note_on_c, 1, 51, 0
3, 345600, Note_on_c, 1, 50, 105
3, 345912, Note_on_c, 1, 50, 0
3, 346080, Note_on_c, 1, 62, 105
3, 346392, Note_on_c, 1, 62, 0
3, 347040, Note_on_c, 1, 62, 105
3, 347352, Note_on_c, 1, 62, 0
3, 347520, Note_on_c, 1, 63, 105
3, 347832, Note_on_c, 1, 63, 0
3, 348000, Note_on_c, 1, 51, 105
3, 348312, Note_on_c, 1, 51, 0
3, 348960, Note_on_c, 1, 51, 105
3, 349272, Note_on_c, 1, 51, 0
3, 349440, Note_on_c, 1, 50, 92
3, 349752, Note_on_c, 1, 50, 0
3, 368640, Note_on_c, 1, 55, 105
3, 368952, Note_on_c, 1, 55, 0
3, 369120, Note_on_c, 1, 50, 105
3, 369432, Note_on_c, 1, 50, 0
3, 369600, Note_on_c, 1, 58, 105
3, 370176, Note_on_c, 1, 58, 0
3, 370320, Note_on_c, 1, 57, 105
3, 370476, Note_on_c, 1, 57, 0
3, 370560, Note_on_c, 1, 55, 105
3, 370872, Note_on_c, 1, 55, 0
3, 371040, Note_on_c, 1, 58, 105
3, 371520, Note_on_c, 1, 58, 0
3, 371520, Note_on_c, 1, 57, 105
3, 372000, Note_on_c, 1, 57, 0
3, 372000, Note_on_c, 1, 55, 105
3, 372480, Note_on_c, 1, 55, 0
3, 372480, Note_on_c, 1, 54, 105
3, 372792, Note_on_c, 1, 54, 0
3, 372960, Note_on_c, 1, 50, 105
3, 373272, Note_on_c, 1, 50, 0
3, 373440, Note_on_c, 1, 60, 105
3, 374016, Note_on_c, 1, 60, 0
3, 374160, Note_on_c, 1, 58, 105
3, 374316, Note_on_c, 1, 58, 0
3, 374400, Note_on_c, 1, 57, 105
3, 374712, Note_on_c, 1, 57, 0
3, 374880, Note_on_c, 1, 60, 105
3, 375360, Note_on_c, 1, 60, 0
3, 375360, Note_on_c, 1, 58, 105
3, 375840, Note_on_c, 1, 58, 0
3, 375840, Note_on_c, 1, 57, 105
3, 376320, Note_on_c, 1, 57, 0
3, 376320, Note_on_c, 1, 55, 105
3, 376632, Note_on_c, 1, 55, 0
3, 376800, Note_on_c, 1, 58, 105
3, 377112, Note_on_c, 1, 58, 0
3, 377280, Note_on_c, 1, 63, 105
3, 377856, Note_on_c, 1, 63, 0
3, 378000, Note_on_c, 1, 62, 105
3, 378156, Note_on_c, 1, 62, 0
3, 378240, Note_on_c, 1, 60, 105
3, 378552, Note_on_c, 1, 60, 0
3, 378720, Note_on_c, 1, 57, 105
3, 379032, Note_on_c, 1, 57, 0
3, 379200, Note_on_c, 1, 62, 105
3, 379920, Note_on_c, 1, 62, 0
3, 379920, Note_on_c, 1, 60, 105
3, 380112, Note_on_c, 1, 60, 0
3, 380160, Note_on_c, 1, 58, 105
3, 380472, Note_on_c, 1, 58, 0
3, 380640, Note_on_c, 1, 51, 105
3, 380952, Note_on_c, 1, 51, 0
3, 381120, Note_on_c, 1, 48, 105
3, 381432, Note_on_c, 1, 48, 0
3, 381600, Note_on_c, 1, 50, 105
3, 381912, Note_on_c, 1, 50, 0
3, 382080, Note_on_c, 1, 43, 105
3, 382848, Note_on_c, 1, 43, 0
3, 406080, Note_on_c, 1, 60, 105
3, 406224, Note_on_c, 1, 60, 0
3, 406320, Note_on_c, 1, 58, 105
3, 406464, Note_on_c, 1, 58, 0
3, 406560, Note_on_c, 1, 57, 105
3, 406704, Note_on_c, 1, 57, 0
3, 406800, Note_on_c, 1, 55, 105
3, 406944, Note_on_c, 1, 55, 0
3, 407040, Note_on_c, 1, 54, 105
3, 407280, Note_on_c, 1, 54, 0
3, 407280, Note_on_c, 1, 55, 105
3, 407424, Note_on_c, 1, 55, 0
3, 407520, Note_on_c, 1, 54, 105
3, 407664, Note_on_c, 1, 54, 0
3, 407760, Note_on_c, 1, 51, 105
3, 407904, Note_on_c, 1, 51, 0
3, 408000, Note_on_c, 1, 50, 105
3, 408144, Note_on_c, 1, 50, 0
3, 408240, Note_on_c, 1, 48, 105
3, 408384, Note_on_c, 1, 48, 0
3, 408480, Note_on_c, 1, 46, 105
3, 408624, Note_on_c, 1, 46, 0
3, 408720, Note_on_c, 1, 45, 105
3, 408864, Note_on_c, 1, 45, 0
3, 408960, Note_on_c, 1, 43, 105
3, 409344, Note_on_c, 1, 43, 0
3, 409920, Note_on_c, 1, 67, 105
3, 410496, Note_on_c, 1, 67, 0
3, 410640, Note_on_c, 1, 65, 105
3, 410832, Note_on_c, 1, 65, 0
3, 410880, Note_on_c, 1, 64, 105
3, 411144, Note_on_c, 1, 64, 0
3, 411360, Note_on_c, 1, 65, 105
3, 411624, Note_on_c, 1, 65, 0
3, 411840, Note_on_c, 1, 63, 105
3, 412416, Note_on_c, 1, 63, 0
3, 412560, Note_on_c, 1, 62, 105
3, 412752, Note_on_c, 1, 62, 0
3, 412800, Note_on_c, 1, 60, 105
3, 413064, Note_on_c, 1, 60, 0
3, 413280, Note_on_c, 1, 62, 105
3, 413544, Note_on_c, 1, 62, 0
3, 413760, Note_on_c, 1, 63, 105
3, 414336, Note_on_c, 1, 63, 0
3, 414480, Note_on_c, 1, 62, 105
3, 414672, Note_on_c, 1, 62, 0
3, 414720, Note_on_c, 1, 60, 105
3, 414984, Note_on_c, 1, 60, 0
3, 415200, Note_on_c, 1, 62, 105
3, 415464, Note_on_c, 1, 62, 0
3, 415680, Note_on_c, 1, 60, 105
3, 416256, Note_on_c, 1, 60, 0
3, 416400, Note_on_c, 1, 58, 105
3, 416592, Note_on_c, 1, 58, 0
3, 416640, Note_on_c, 1, 57, 105
3, 416904, Note_on_c, 1, 57, 0
3, 417120, Note_on_c, 1, 58, 105
3, 417384, Note_on_c, 1, 58, 0
3, 417600, Note_on_c, 1, 57, 105
3, 417840, Note_on_c, 1, 57, 0
3, 417840, Note_on_c, 1, 58, 105
3, 418080, Note_on_c, 1, 58, 0
3, 418080, Note_on_c, 1, 60, 105
3, 418212, Note_on_c, 1, 60, 0
3, 418320, Note_on_c, 1, 58, 105
3, 418452, Note_on_c, 1, 58, 0
3, 418560, Note_on_c, 1, 57, 105
3, 418752, Note_on_c, 1, 57, 0
3, 418800, Note_on_c, 1, 55, 105
3, 418992, Note_on_c, 1, 55, 0
3, 419040, Note_on_c, 1, 54, 105
3, 419232, Note_on_c, 1, 54, 0
3, 419280, Note_on_c, 1, 51, 105
3, 419472, Note_on_c, 1, 51, 0
3, 419520, Note_on_c, 1, 50, 105
3, 419760, Note_on_c, 1, 50, 0
3, 419760, Note_on_c, 1, 52, 105
3, 420000, Note_on_c, 1, 52, 0
3, 420000, Note_on_c, 1, 54, 105
3, 420240, Note_on_c, 1, 54, 0
3, 420240, Note_on_c, 1, 50, 105
3, 420432, Note_on_c, 1, 50, 0
3, 420480, Note_on_c, 1, 55, 105
3, 420636, Note_on_c, 1, 55, 0
3, 420720, Note_on_c, 1, 53, 105
3, 420876, Note_on_c, 1, 53, 0
3, 420960, Note_on_c, 1, 51, 105
3, 421116, Note_on_c, 1, 51, 0
3, 421200, Note_on_c, 1, 50, 105
3, 421356, Note_on_c, 1, 50, 0
3, 421440, Note_on_c, 1, 48, 105
3, 421596, Note_on_c, 1, 48, 0
3, 421680, Note_on_c, 1, 46, 105
3, 421836, Note_on_c, 1, 46, 0
3, 421920, Note_on_c, 1, 45, 105
3, 422076, Note_on_c, 1, 45, 0
3, 422160, Note_on_c, 1, 43, 105
3, 422316, Note_on_c, 1, 43, 0
3, 422400, Note_on_c, 1, 48, 105
3, 422688, Note_on_c, 1, 48, 0
3, 422880, Note_on_c, 1, 60, 105
3, 423168, Note_on_c, 1, 60, 0
3, 423360, Note_on_c, 1, 62, 105
3, 423648, Note_on_c, 1, 62, 0
3, 423840, Note_on_c, 1, 50, 105
3, 424128, Note_on_c, 1, 50, 0
3, 424320, Note_on_c, 1, 55, 105
3, 424608, Note_on_c, 1, 55, 0
3, 424800, Note_on_c, 1, 50, 105
3, 425088, Note_on_c, 1, 50, 0
3, 425280, Note_on_c, 1, 58, 105
3, 425856, Note_on_c, 1, 58, 0
3, 426000, Note_on_c, 1, 57, 105
3, 426192, Note_on_c, 1, 57, 0
3, 426240, Note_on_c, 1, 55, 105
3, 426528, Note_on_c, 1, 55, 0
3, 426720, Note_on_c, 1, 50, 105
3, 427008, Note_on_c, 1, 50, 0
3, 427200, Note_on_c, 1, 46, 105
3, 427488, Note_on_c, 1, 46, 0
3, 427680, Note_on_c, 1, 43, 105
3, 427968, Note_on_c, 1, 43, 0
3, 428160, Note_on_c, 1, 50, 92
3, 428448, Note_on_c, 1, 50, 0
3, 451200, Note_on_c, 1, 55, 105
3, 451512, Note_on_c, 1, 55, 0
3, 451680, Note_on_c, 1, 50, 105
3, 451992, Note_on_c, 1, 50, 0
3, 452160, Note_on_c, 1, 58, 105
3, 452736, Note_on_c, 1, 58, 0
3, 452880, Note_on_c, 1, 57, 105
3, 453072, Note_on_c, 1, 57, 0
3, 453120, Note_on_c, 1, 55, 105
3, 453432, Note_on_c, 1, 55, 0
3, 453600, Note_on_c, 1, 50, 105
3, 453912, Note_on_c, 1, 50, 0
3, 454080, Note_on_c, 1, 58, 105
3, 454392, Note_on_c, 1, 58, 0
3, 454560, Note_on_c, 1, 55, 105
3, 454872, Note_on_c, 1, 55, 0
3, 455040, Note_on_c, 1, 57, 105
3, 455352, Note_on_c, 1, 57, 0
3, 455520, Note_on_c, 1, 50, 105
3, 455832, Note_on_c, 1, 50, 0
3, 456000, Note_on_c, 1, 60, 105
3, 456576, Note_on_c, 1, 60, 0
3, 456720, Note_on_c, 1, 58, 105
3, 456912, Note_on_c, 1, 58, 0
3, 456960, Note_on_c, 1, 57, 105
3, 457272, Note_on_c, 1, 57, 0
3, 457440, Note_on_c, 1, 50, 105
3, 457752, Note_on_c, 1, 50, 0
3, 457920, Note_on_c, 1, 60, 105
3, 458232, Note_on_c, 1, 60, 0
3, 458400, Note_on_c, 1, 57, 105
3, 458712, Note_on_c, 1, 57, 0
3, 458880, Note_on_c, 1, 55, 105
3, 459240, Note_on_c, 1, 55, 0
3, 459360, Note_on_c, 1, 58, 105
3, 459630, Note_on_c, 1, 58, 0
3, 459720, Note_on_c, 1, 55, 105
3, 459810, Note_on_c, 1, 55, 0
3, 459840, Note_on_c, 1, 47, 105
3, 460200, Note_on_c, 1, 47, 0
3, 460320, Note_on_c, 1, 55, 105
3, 460590, Note_on_c, 1, 55, 0
3, 460680, Note_on_c, 1, 47, 105
3, 460770, Note_on_c, 1, 47, 0
3, 460800, Note_on_c, 1, 48, 105
3, 461160, Note_on_c, 1, 48, 0
3, 461280, Note_on_c, 1, 55, 105
3, 461550, Note_on_c, 1, 55, 0
3, 461640, Note_on_c, 1, 48, 105
3, 461730, Note_on_c, 1, 48, 0
3, 461760, Note_on_c, 1, 51, 105
3, 462120, Note_on_c, 1, 51, 0
3, 462240, Note_on_c, 1, 55, 105
3, 462510, Note_on_c, 1, 55, 0
3, 462600, Note_on_c, 1, 51, 105
3, 462690, Note_on_c, 1, 51, 0
3, 462720, Note_on_c, 1, 50, 105
3, 463080, Note_on_c, 1, 50, 0
3, 463200, Note_on_c, 1, 62, 105
3, 463470, Note_on_c, 1, 62, 0
3, 463560, Note_on_c, 1, 50, 105
3, 463650, Note_on_c, 1, 50, 0
3, 463680, Note_on_c, 1, 54, 105
3, 464040, Note_on_c, 1, 54, 0
3, 464160, Note_on_c, 1, 57, 105
3, 464430, Note_on_c, 1, 57, 0
3, 464520, Note_on_c, 1, 50, 105
3, 464610, Note_on_c, 1, 50, 0
3, 464640, Note_on_c, 1, 55, 105
3, 464952, Note_on_c, 1, 55, 0
3, 465120, Note_on_c, 1, 51, 105
3, 465432, Note_on_c, 1, 51, 0
3, 465600, Note_on_c, 1, 48, 105
3, 465912, Note_on_c, 1, 48, 0
3, 466080, Note_on_c, 1, 50, 105
3, 466392, Note_on_c, 1, 50, 0
3, 466560, Note_on_c, 1, 43, 105
3, 466920, Note_on_c, 1, 43, 0
3, 467040, Note_on_c, 1, 55, 105
3, 467310, Note_on_c, 1, 55, 0
3, 467400, Note_on_c, 1, 43, 105
3, 467490, Note_on_c, 1, 43, 0
3, 467520, Note_on_c, 1, 47, 105
3, 467880, Note_on_c, 1, 47, 0
3, 468000, Note_on_c, 1, 55, 105
3, 468270, Note_on_c, 1, 55, 0
3, 468360, Note_on_c, 1, 47, 105
3, 468450, Note_on_c, 1, 47, 0
3, 468480, Note_on_c, 1, 48, 105
3, 468840, Note_on_c, 1, 48, 0
3, 468960, Note_on_c, 1, 55, 105
3, 469230, Note_on_c, 1, 55, 0
3, 469320, Note_on_c, 1, 48, 105
3, 469410, Note_on_c, 1, 48, 0
3, 469440, Note_on_c, 1, 52, 105
3, 469800, Note_on_c, 1, 52, 0
3, 469920, Note_on_c, 1, 55, 105
3, 470190, Note_on_c, 1, 55, 0
3, 470280, Note_on_c, 1, 52, 105
3, 470370, Note_on_c, 1, 52, 0
3, 470400, Note_on_c, 1, 54, 105
3, 470760, Note_on_c, 1, 54, 0
3, 470880, Note_on_c, 1, 57, 105
3, 471150, Note_on_c, 1, 57, 0
3, 471240, Note_on_c, 1, 54, 105
3, 471330, Note_on_c, 1, 54, 0
3, 471360, Note_on_c, 1, 50, 105
3, 471720, Note_on_c, 1, 50, 0
3, 471840, Note_on_c, 1, 54, 105
3, 472110, Note_on_c, 1, 54, 0
3, 472200, Note_on_c, 1, 50, 105
3, 472290, Note_on_c, 1, 50, 0
3, 472320, Note_on_c, 1, 51, 105
3, 472608, Note_on_c, 1, 51, 0
3, 472800, Note_on_c, 1, 46, 105
3, 473088, Note_on_c, 1, 46, 0
3, 473280, Note_on_c, 1, 48, 105
3, 473568, Note_on_c, 1, 48, 0
3, 473760, Note_on_c, 1, 50, 105
3, 474048, Note_on_c, 1, 50, 0
3, 474240, Note_on_c, 1, 43, 105
3, 474528, Note_on_c, 1, 43, 0
3, 474720, Note_on_c, 1, 43, 105
3, 475008, Note_on_c, 1, 43, 0
3, 475200, Note_on_c, 1, 58, 105
3, 475776, Note_on_c, 1, 58, 0
3, 475920, Note_on_c, 1, 57, 105
3, 476112, Note_on_c, 1, 57, 0
3, 476160, Note_on_c, 1, 55, 105
3, 476736, Note_on_c, 1, 55, 0
3, 476880, Note_on_c, 1, 53, 105
3, 477072, Note_on_c, 1, 53, 0
3, 477120, Note_on_c, 1, 51, 105
3, 477696, Note_on_c, 1, 51, 0
3, 477840, Note_on_c, 1, 50, 105
3, 478032, Note_on_c, 1, 50, 0
3, 478080, Note_on_c, 1, 48, 105
3, 478440, Note_on_c, 1, 48, 0
3, 478560, Note_on_c, 1, 60, 105
3, 478740, Note_on_c, 1, 60, 0
3, 478800, Note_on_c, 1, 58, 105
3, 478980, Note_on_c, 1, 58, 0
3, 479040, Note_on_c, 1, 57, 105
3, 479220, Note_on_c, 1, 57, 0
3, 479280, Note_on_c, 1, 55, 105
3, 479460, Note_on_c, 1, 55, 0
3, 479520, Note_on_c, 1, 54, 105
3, 479700, Note_on_c, 1, 54, 0
3, 479760, Note_on_c, 1, 55, 105
3, 479940, Note_on_c, 1, 55, 0
3, 480000, Note_on_c, 1, 54, 105
3, 480360, Note_on_c, 1, 54, 0
3, 480480, Note_on_c, 1, 60, 105
3, 480660, Note_on_c, 1, 60, 0
3, 480720, Note_on_c, 1, 58, 105
3, 480900, Note_on_c, 1, 58, 0
3, 480960, Note_on_c, 1, 57, 105
3, 481140, Note_on_c, 1, 57, 0
3, 481200, Note_on_c, 1, 55, 105
3, 481380, Note_on_c, 1, 55, 0
3, 481440, Note_on_c, 1, 54, 105
3, 481620, Note_on_c, 1, 54, 0
3, 481680, Note_on_c, 1, 55, 105
3, 481860, Note_on_c, 1, 55, 0
3, 481920, Note_on_c, 1, 54, 105
3, 482280, Note_on_c, 1, 54, 0
3, 482400, Note_on_c, 1, 60, 105
3, 482580, Note_on_c, 1, 60, 0
3, 482640, Note_on_c, 1, 58, 105
3, 482820, Note_on_c, 1, 58, 0
3, 482880, Note_on_c, 1, 57, 105
3, 483060, Note_on_c, 1, 57, 0
3, 483120, Note_on_c, 1, 55, 105
3, 483300, Note_on_c, 1, 55, 0
3, 483360, Note_on_c, 1, 54, 105
3, 483540, Note_on_c, 1, 54, 0
3, 483600, Note_on_c, 1, 55, 105
3, 483780, Note_on_c, 1, 55, 0
3, 483840, Note_on_c, 1, 54, 105
3, 484128, Note_on_c, 1, 54, 0
3, 484320, Note_on_c, 1, 55, 105
3, 484608, Note_on_c, 1, 55, 0
3, 484800, Note_on_c, 1, 48, 105
3, 485088, Note_on_c, 1, 48, 0
3, 485280, Note_on_c, 1, 50, 105
3, 485568, Note_on_c, 1, 50, 0
3, 485760, Note_on_c, 1, 43, 110
3, 486144, Note_on_c, 1, 43, 0
3, 486240, Note_on_c, 1, 48, 70
3, 486420, Note_on_c, 1, 48, 0
3, 486480, Note_on_c, 1, 46, 70
3, 486660, Note_on_c, 1, 46, 0
3, 486720, Note_on_c, 1, 45, 70
3, 486900, Note_on_c, 1, 45, 0
3, 486960, Note_on_c, 1, 43, 70
3, 487140, Note_on_c, 1, 43, 0
3, 487200, Note_on_c, 1, 42, 70
3, 487380, Note_on_c, 1, 42, 0
3, 487440, Note_on_c, 1, 43, 70
3, 487620, Note_on_c, 1, 43, 0
3, 487680, Note_on_c, 1, 42, 70
3, 487968, Note_on_c, 1, 42, 0
3, 488160, Note_on_c, 1, 48, 70
3, 488340, Note_on_c, 1, 48, 0
3, 488400, Note_on_c, 1, 46, 70
3, 488580, Note_on_c, 1, 46, 0
3, 488640, Note_on_c, 1, 45, 70
3, 488820, Note_on_c, 1, 45, 0
3, 488880, Note_on_c, 1, 43, 70
3, 489060, Note_on_c, 1, 43, 0
3, 489120, Note_on_c, 1, 42, 70
3, 489300, Note_on_c, 1, 42, 0
3, 489360, Note_on_c, 1, 43, 70
3, 489540, Note_on_c, 1, 43, 0
3, 489600, Note_on_c, 1, 42, 70
3, 489888, Note_on_c, 1, 42, 0
3, 490080, Note_on_c, 1, 60, 105
3, 490260, Note_on_c, 1, 60, 0
3, 490320, Note_on_c, 1, 58, 105
3, 490500, Note_on_c, 1, 58, 0
3, 490560, Note_on_c, 1, 57, 105
3, 490740, Note_on_c, 1, 57, 0
3, 490800, Note_on_c, 1, 55, 105
3, 490980, Note_on_c, 1, 55, 0
3, 491040, Note_on_c, 1, 54, 105
3, 491220, Note_on_c, 1, 54, 0
3, 491280, Note_on_c, 1, 55, 105
3, 491460, Note_on_c, 1, 55, 0
3, 491520, Note_on_c, 1, 54, 105
3, 491808, Note_on_c, 1, 54, 0
3, 492000, Note_on_c, 1, 55, 105
3, 492288, Note_on_c, 1, 55, 0
3, 492480, Note_on_c, 1, 48, 105
3, 492768, Note_on_c, 1, 48, 0
3, 492960, Note_on_c, 1, 50, 105
3, 493248, Note_on_c, 1, 50, 0
3, 493440, Note_on_c, 1, 43, 105
3, 493728, Note_on_c, 1, 43, 0
3, 493920, Note_on_c, 1, 43, 105
3, 494208, Note_on_c, 1, 43, 0
3, 494400, Note_on_c, 1, 58, 105
3, 494976, Note_on_c, 1, 58, 0
3, 495120, Note_on_c, 1, 57, 105
3, 495312, Note_on_c, 1, 57, 0
3, 495360, Note_on_c, 1, 55, 105
3, 495648, Note_on_c, 1, 55, 0
3, 495840, Note_on_c, 1, 43, 105
3, 496128, Note_on_c, 1, 43, 0
3, 496320, Note_on_c, 1, 58, 105
3, 496896, Note_on_c, 1, 58, 0
3, 497040, Note_on_c, 1, 57, 105
3, 497232, Note_on_c, 1, 57, 0
3, 497280, Note_on_c, 1, 55, 105
3, 498048, Note_on_c, 1, 55, 0
3, 504960, Note_on_c, 1, 55, 105
3, 505344, Note_on_c, 1, 55, 0
3, 505440, Note_on_c, 1, 56, 105
3, 505632, Note_on_c, 1, 56, 0
3, 505680, Note_on_c, 1, 53, 105
3, 505872, Note_on_c, 1, 53, 0
3, 505920, Note_on_c, 1, 51, 105
3, 506304, Note_on_c, 1, 51, 0
3, 506400, Note_on_c, 1, 53, 105
3, 506592, Note_on_c, 1, 53, 0
3, 506640, Note_on_c, 1, 50, 105
3, 506832, Note_on_c, 1, 50, 0
3, 506880, Note_on_c, 1, 48, 105
3, 507264, Note_on_c, 1, 48, 0
3, 507360, Note_on_c, 1, 50, 105
3, 507552, Note_on_c, 1, 50, 0
3, 507600, Note_on_c, 1, 46, 105
3, 507792, Note_on_c, 1, 46, 0
3, 507840, Note_on_c, 1, 45, 105
3, 508224, Note_on_c, 1, 45, 0
3, 508320, Note_on_c, 1, 46, 105
3, 508512, Note_on_c, 1, 46, 0
3, 508560, Note_on_c, 1, 43, 105
3, 508752, Note_on_c, 1, 43, 0
3, 508800, Note_on_c, 1, 49, 105
3, 509184, Note_on_c, 1, 49, 0
3, 510720, Note_on_c, 1, 58, 105
3, 511032, Note_on_c, 1, 58, 0
3, 511200, Note_on_c, 1, 55, 105
3, 511512, Note_on_c, 1, 55, 0
3, 511680, Note_on_c, 1, 52, 105
3, 511992, Note_on_c, 1, 52, 0
3, 512160, Note_on_c, 1, 49, 105
3, 512472, Note_on_c, 1, 49, 0
3, 512640, Note_on_c, 1, 50, 105
3, 512952, Note_on_c, 1, 50, 0
3, 514080, Note_on_c, 1, 63, 105
3, 514272, Note_on_c, 1, 63, 0
3, 514320, Note_on_c, 1, 62, 105
3, 514512, Note_on_c, 1, 62, 0
3, 514560, Note_on_c, 1, 63, 105
3, 514944, Note_on_c, 1, 63, 0
3, 516000, Note_on_c, 1, 62, 105
3, 516192, Note_on_c, 1, 62, 0
3, 516240, Note_on_c, 1, 61, 105
3, 516432, Note_on_c, 1, 61, 0
3, 516480, Note_on_c, 1, 62, 105
3, 517248, Note_on_c, 1, 62, 0
3, 517440, Note_on_c, 1, 50, 105
3, 518208, Note_on_c, 1, 50, 0
3, 518400, Note_on_c, 1, 55, 105
3, 519360, Note_on_c, 1, 55, 0
3, 519360, End_track
4, 0, Start_track
4, 0, Program_c, 2, 60
4, 0, Control_c, 2, 7, 109
4, 0, Control_c, 2, 10, 46
4, 0, Control_c, 2, 91, 80
4, 18240, Note_on_c, 2, 70, 105
4, 18624, Note_on_c, 2, 70, 0
4, 19680, Note_on_c, 2, 70, 105
4, 20064, Note_on_c, 2, 70, 0
4, 21600, Note_on_c, 2, 62, 105
4, 21984, Note_on_c, 2, 62, 0
4, 22080, Note_on_c, 2, 72, 105
4, 22464, Note_on_c, 2, 72, 0
4, 23520, Note_on_c, 2, 72, 105
4, 23904, Note_on_c, 2, 72, 0
4, 24000, Note_on_c, 2, 70, 105
4, 24384, Note_on_c, 2, 70, 0
4, 25440, Note_on_c, 2, 70, 105
4, 25824, Note_on_c, 2, 70, 0
4, 25920, Note_on_c, 2, 75, 105
4, 26496, Note_on_c, 2, 75, 0
4, 26640, Note_on_c, 2, 74, 105
4, 26832, Note_on_c, 2, 74, 0
4, 26880, Note_on_c, 2, 72, 105
4, 27264, Note_on_c, 2, 72, 0
4, 27840, Note_on_c, 2, 74, 105
4, 28416, Note_on_c, 2, 74, 0
4, 28560, Note_on_c, 2, 72, 105
4, 28752, Note_on_c, 2, 72, 0
4, 28800, Note_on_c, 2, 70, 105
4, 29568, Note_on_c, 2, 70, 0
4, 30240, Note_on_c, 2, 62, 105
4, 30624, Note_on_c, 2, 62, 0
4, 30720, Note_on_c, 2, 62, 105
4, 30720, Note_on_c, 2, 58, 105
4, 31488, Note_on_c, 2, 58, 0
4, 31488, Note_on_c, 2, 62, 0
4, 53760, Note_on_c, 2, 58, 105
4, 53760, Note_on_c, 2, 58, 105
4, 54528, Note_on_c, 2, 58, 0
4, 54528, Note_on_c, 2, 58, 0
4, 55680, Note_on_c, 2, 70, 105
4, 55680, Note_on_c, 2, 58, 105
4, 55968, Note_on_c, 2, 58, 0
4, 55968, Note_on_c, 2, 70, 0
4, 56160, Note_on_c, 2, 65, 105
4, 56448, Note_on_c, 2, 65, 0
4, 59520, Note_on_c, 2, 72, 105
4, 59520, Note_on_c, 2, 65, 105
4, 59808, Note_on_c, 2, 65, 0
4, 59808, Note_on_c, 2, 72, 0
4, 60000, Note_on_c, 2, 65, 105
4, 60000, Note_on_c, 2, 70, 105
4, 60288, Note_on_c, 2, 70, 0
4, 60288, Note_on_c, 2, 65, 0
4, 60480, Note_on_c, 2, 72, 105
4, 60480, Note_on_c, 2, 75, 105
4, 62208, Note_on_c, 2, 75, 0
4, 62208, Note_on_c, 2, 72, 0
4, 62400, Note_on_c, 2, 65, 105
4, 62400, Note_on_c, 2, 72, 105
4, 63168, Note_on_c, 2, 72, 0
4, 63168, Note_on_c, 2, 65, 0
4, 63360, Note_on_c, 2, 70, 105
4, 63360, Note_on_c, 2, 58, 105
4, 66048, Note_on_c, 2, 58, 0
4, 66240, Note_on_c, 2, 62, 105
4, 66624, Note_on_c, 2, 62, 0
4, 66624, Note_on_c, 2, 70, 0
4, 66720, Note_on_c, 2, 65, 105
4, 66720, Note_on_c, 2, 72, 105
4, 67104, Note_on_c, 2, 72, 0
4, 67104, Note_on_c, 2, 65, 0
4, 67200, Note_on_c, 2, 70, 105
4, 67512, Note_on_c, 2, 70, 0
4, 67680, Note_on_c, 2, 65, 105
4, 67992, Note_on_c, 2, 65, 0
4, 68160, Note_on_c, 2, 74, 105
4, 68736, Note_on_c, 2, 74, 0
4, 68880, Note_on_c, 2, 72, 105
4, 69036, Note_on_c, 2, 72, 0
4, 69120, Note_on_c, 2, 70, 105
4, 69408, Note_on_c, 2, 70, 0
4, 69600, Note_on_c, 2, 77, 105
4, 69600, Note_on_c, 2, 65, 105
4, 69888, Note_on_c, 2, 65, 0
4, 69888, Note_on_c, 2, 77, 0
4, 70080, Note_on_c, 2, 74, 105
4, 70080, Note_on_c, 2, 62, 105
4, 70368, Note_on_c, 2, 62, 0
4, 70368, Note_on_c, 2, 74, 0
4, 70560, Note_on_c, 2, 70, 105
4, 70560, Note_on_c, 2, 58, 105
4, 70848, Note_on_c, 2, 58, 0
4, 70848, Note_on_c, 2, 70, 0
4, 71040, Note_on_c, 2, 53, 92
4, 71040, Note_on_c, 2, 65, 92
4, 71352, Note_on_c, 2, 65, 0
4, 71352, Note_on_c, 2, 53, 0
4, 94080, Note_on_c, 2, 70, 105
4, 94392, Note_on_c, 2, 70, 0
4, 94560, Note_on_c, 2, 65, 105
4, 94872, Note_on_c, 2, 65, 0
4, 95040, Note_on_c, 2, 74, 105
4, 95616, Note_on_c, 2, 74, 0
4, 95760, Note_on_c, 2, 72, 105
4, 95952, Note_on_c, 2, 72, 0
4, 96000, Note_on_c, 2, 70, 105
4, 96312, Note_on_c, 2, 70, 0
4, 96480, Note_on_c, 2, 65, 105
4, 96792, Note_on_c, 2, 65, 0
4, 96960, Note_on_c, 2, 74, 105
4, 97272, Note_on_c, 2, 74, 0
4, 97440, Note_on_c, 2, 70, 105
4, 97752, Note_on_c, 2, 70, 0
4, 97920, Note_on_c, 2, 72, 105
4, 98232, Note_on_c, 2, 72, 0
4, 98400, Note_on_c, 2, 65, 105
4, 98712, Note_on_c, 2, 65, 0
4, 98880, Note_on_c, 2, 75, 105
4, 99456, Note_on_c, 2, 75, 0
4, 99600, Note_on_c, 2, 74, 105
4, 99792, Note_on_c, 2, 74, 0
4, 99840, Note_on_c, 2, 72, 105
4, 100152, Note_on_c, 2, 72, 0
4, 100320, Note_on_c, 2, 65, 105
4, 100632, Note_on_c, 2, 65, 0
4, 100800, Note_on_c, 2, 75, 105
4, 101112, Note_on_c, 2, 75, 0
4, 101280, Note_on_c, 2, 72, 105
4, 101592, Note_on_c, 2, 72, 0
4, 101760, Note_on_c, 2, 70, 105
4, 101760, Note_on_c, 2, 70, 105
4, 102528, Note_on_c, 2, 70, 0
4, 102528, Note_on_c, 2, 70, 0
4, 102720, Note_on_c, 2, 58, 105
4, 102720, Note_on_c, 2, 70, 105
4, 103488, Note_on_c, 2, 70, 0
4, 103488, Note_on_c, 2, 58, 0
4, 103680, Note_on_c, 2, 70, 105
4, 103680, Note_on_c, 2, 58, 105
4, 105216, Note_on_c, 2, 58, 0
4, 105216, Note_on_c, 2, 70, 0
4, 105600, Note_on_c, 2, 72, 105
4, 105600, Note_on_c, 2, 65, 105
4, 107136, Note_on_c, 2, 65, 0
4, 107136, Note_on_c, 2, 72, 0
4, 107520, Note_on_c, 2, 58, 105
4, 107520, Note_on_c, 2, 70, 105
4, 107832, Note_on_c, 2, 70, 0
4, 107832, Note_on_c, 2, 58, 0
4, 108000, Note_on_c, 2, 58, 105
4, 108000, Note_on_c, 2, 70, 105
4, 108312, Note_on_c, 2, 70, 0
4, 108312, Note_on_c, 2, 58, 0
4, 108480, Note_on_c, 2, 58, 105
4, 108480, Note_on_c, 2, 70, 105
4, 108792, Note_on_c, 2, 70, 0
4, 108792, Note_on_c, 2, 58, 0
4, 108960, Note_on_c, 2, 65, 105
4, 109272, Note_on_c, 2, 65, 0
4, 109440, Note_on_c, 2, 70, 105
4, 109440, Note_on_c, 2, 58, 105
4, 112896, Note_on_c, 2, 58, 0
4, 112896, Note_on_c, 2, 70, 0
4, 113280, Note_on_c, 2, 72, 105
4, 113280, Note_on_c, 2, 65, 105
4, 114816, Note_on_c, 2, 65, 0
4, 114816, Note_on_c, 2, 72, 0
4, 115200, Note_on_c, 2, 58, 105
4, 115200, Note_on_c, 2, 70, 105
4, 115512, Note_on_c, 2, 70, 0
4, 115512, Note_on_c, 2, 58, 0
4, 115680, Note_on_c, 2, 70, 105
4, 115680, Note_on_c, 2, 58, 105
4, 115992, Note_on_c, 2, 58, 0
4, 115992, Note_on_c, 2, 70, 0
4, 116160, Note_on_c, 2, 58, 105
4, 116160, Note_on_c, 2, 70, 105
4, 116472, Note_on_c, 2, 70, 0
4, 116472, Note_on_c, 2, 58, 0
4, 116640, Note_on_c, 2, 65, 105
4, 116952, Note_on_c, 2, 65, 0
4, 117120, Note_on_c, 2, 58, 105
4, 117120, Note_on_c, 2, 62, 105
4, 117504, Note_on_c, 2, 62, 0
4, 117504, Note_on_c, 2, 58, 0
4, 122880, Note_on_c, 2, 65, 105
4, 122880, Note_on_c, 2, 65, 105
4, 123264, Note_on_c, 2, 65, 0
4, 123264, Note_on_c, 2, 65, 0
4, 124800, Note_on_c, 2, 65, 105
4, 124800, Note_on_c, 2, 65, 105
4, 125184, Note_on_c, 2, 65, 0
4, 125184, Note_on_c, 2, 65, 0
4, 126720, Note_on_c, 2, 65, 105
4, 126720, Note_on_c, 2, 65, 105
4, 127032, Note_on_c, 2, 65, 0
4, 127032, Note_on_c, 2, 65, 0
4, 127200, Note_on_c, 2, 58, 105
4, 127200, Note_on_c, 2, 70, 105
4, 127968, Note_on_c, 2, 70, 0
4, 127968, Note_on_c, 2, 58, 0
4, 128160, Note_on_c, 2, 65, 105
4, 128544, Note_on_c, 2, 65, 0
4, 128640, Note_on_c, 2, 62, 92
4, 128640, Note_on_c, 2, 58, 92
4, 129024, Note_on_c, 2, 58, 0
4, 129024, Note_on_c, 2, 62, 0
4, 134400, Note_on_c, 2, 65, 105
4, 134712, Note_on_c, 2, 65, 0
4, 134880, Note_on_c, 2, 58, 105
4, 134880, Note_on_c, 2, 70, 105
4, 135648, Note_on_c, 2, 70, 0
4, 135648, Note_on_c, 2, 58, 0
4, 135840, Note_on_c, 2, 65, 105
4, 135840, Note_on_c, 2, 53, 105
4, 136224, Note_on_c, 2, 53, 0
4, 136224, Note_on_c, 2, 65, 0
4, 136320, Note_on_c, 2, 58, 105
4, 136320, Note_on_c, 2, 62, 105
4, 136704, Note_on_c, 2, 62, 0
4, 136704, Note_on_c, 2, 58, 0
4, 137280, Note_on_c, 2, 74, 105
4, 137856, Note_on_c, 2, 74, 0
4, 138000, Note_on_c, 2, 72, 105
4, 138192, Note_on_c, 2, 72, 0
4, 138240, Note_on_c, 2, 70, 105
4, 138552, Note_on_c, 2, 70, 0
4, 138720, Note_on_c, 2, 58, 105
4, 139032, Note_on_c, 2, 58, 0
4, 139200, Note_on_c, 2, 74, 105
4, 139776, Note_on_c, 2, 74, 0
4, 139920, Note_on_c, 2, 72, 105
4, 140112, Note_on_c, 2, 72, 0
4, 140160, Note_on_c, 2, 70, 105
4, 140928, Note_on_c, 2, 70, 0
4, 164160, Note_on_c, 2, 70, 105
4, 164544, Note_on_c, 2, 70, 0
4, 165600, Note_on_c, 2, 70, 105
4, 165984, Note_on_c, 2, 70, 0
4, 167520, Note_on_c, 2, 62, 105
4, 167904, Note_on_c, 2, 62, 0
4, 168000, Note_on_c, 2, 72, 105
4, 168384, Note_on_c, 2, 72, 0
4, 169440, Note_on_c, 2, 72, 105
4, 169824, Note_on_c, 2, 72, 0
4, 169920, Note_on_c, 2, 70, 105
4, 170304, Note_on_c, 2, 70, 0
4, 171360, Note_on_c, 2, 70, 105
4, 171744, Note_on_c, 2, 70, 0
4, 171840, Note_on_c, 2, 75, 105
4, 172416, Note_on_c, 2, 75, 0
4, 172560, Note_on_c, 2, 74, 105
4, 172752, Note_on_c, 2, 74, 0
4, 172800, Note_on_c, 2, 72, 105
4, 173184, Note_on_c, 2, 72, 0
4, 173760, Note_on_c, 2, 74, 105
4, 174336, Note_on_c, 2, 74, 0
4, 174480, Note_on_c, 2, 72, 105
4, 174672, Note_on_c, 2, 72, 0
4, 174720, Note_on_c, 2, 70, 105
4, 175488, Note_on_c, 2, 70, 0
4, 176160, Note_on_c, 2, 62, 105
4, 176544, Note_on_c, 2, 62, 0
4, 176640, Note_on_c, 2, 62, 105
4, 176640, Note_on_c, 2, 58, 105
4, 177408, Note_on_c, 2, 58, 0
4, 177408, Note_on_c, 2, 62, 0
4, 199680, Note_on_c, 2, 58, 105
4, 199680, Note_on_c, 2, 58, 105
4, 200448, Note_on_c, 2, 58, 0
4, 200448, Note_on_c, 2, 58, 0
4, 201600, Note_on_c, 2, 70, 105
4, 201600, Note_on_c, 2, 58, 105
4, 201888, Note_on_c, 2, 58, 0
4, 201888, Note_on_c, 2, 70, 0
4, 202080, Note_on_c, 2, 65, 105
4, 202368, Note_on_c, 2, 65, 0
4, 205440, Note_on_c, 2, 72, 105
4, 205440, Note_on_c, 2, 65, 105
4, 205728, Note_on_c, 2, 65, 0
4, 205728, Note_on_c, 2, 72, 0
4, 205920, Note_on_c, 2, 65, 105
4, 205920, Note_on_c, 2, 70, 105
4, 206208, Note_on_c, 2, 70, 0
4, 206208, Note_on_c, 2, 65, 0
4, 206400, Note_on_c, 2, 72, 105
4, 206400, Note_on_c, 2, 75, 105
4, 208128, Note_on_c, 2, 75, 0
4, 208128, Note_on_c, 2, 72, 0
4, 208320, Note_on_c, 2, 65, 105
4, 208320, Note_on_c, 2, 72, 105
4, 209088, Note_on_c, 2, 72, 0
4, 209088, Note_on_c, 2, 65, 0
4, 209280, Note_on_c, 2, 70, 105
4, 209280, Note_on_c, 2, 58, 105
4, 211968, Note_on_c, 2, 58, 0
4, 212160, Note_on_c, 2, 62, 105
4, 212544, Note_on_c, 2, 62, 0
4, 212544, Note_on_c, 2, 70, 0
4, 212640, Note_on_c, 2, 65, 105
4, 212640, Note_on_c, 2, 72, 105
4, 213024, Note_on_c, 2, 72, 0
4, 213024, Note_on_c, 2, 65, 0
4, 213120, Note_on_c, 2, 70, 105
4, 213432, Note_on_c, 2, 70, 0
4, 213600, Note_on_c, 2, 65, 105
4, 213912, Note_on_c, 2, 65, 0
4, 214080, Note_on_c, 2, 74, 105
4, 214656, Note_on_c, 2, 74, 0
4, 214800, Note_on_c, 2, 72, 105
4, 214956, Note_on_c, 2, 72, 0
4, 215040, Note_on_c, 2, 70, 105
4, 215328, Note_on_c, 2, 70, 0
4, 215520, Note_on_c, 2, 77, 105
4, 215520, Note_on_c, 2, 65, 105
4, 215808, Note_on_c, 2, 65, 0
4, 215808, Note_on_c, 2, 77, 0
4, 216000, Note_on_c, 2, 74, 105
4, 216000, Note_on_c, 2, 62, 105
4, 216288, Note_on_c, 2, 62, 0
4, 216288, Note_on_c, 2, 74, 0
4, 216480, Note_on_c, 2, 70, 105
4, 216480, Note_on_c, 2, 58, 105
4, 216768, Note_on_c, 2, 58, 0
4, 216768, Note_on_c, 2, 70, 0
4, 216960, Note_on_c, 2, 53, 92
4, 216960, Note_on_c, 2, 65, 92
4, 217272, Note_on_c, 2, 65, 0
4, 217272, Note_on_c, 2, 53, 0
4, 240000, Note_on_c, 2, 70, 105
4, 240312, Note_on_c, 2, 70, 0
4, 240480, Note_on_c, 2, 65, 105
4, 240792, Note_on_c, 2, 65, 0
4, 240960, Note_on_c, 2, 74, 105
4, 241536, Note_on_c, 2, 74, 0
4, 241680, Note_on_c, 2, 72, 105
4, 241872, Note_on_c, 2, 72, 0
4, 241920, Note_on_c, 2, 70, 105
4, 242232, Note_on_c, 2, 70, 0
4, 242400, Note_on_c, 2, 65, 105
4, 242712, Note_on_c, 2, 65, 0
4, 242880, Note_on_c, 2, 74, 105
4, 243192, Note_on_c, 2, 74, 0
4, 243360, Note_on_c, 2, 70, 105
4, 243672, Note_on_c, 2, 70, 0
4, 243840, Note_on_c, 2, 72, 105
4, 244152, Note_on_c, 2, 72, 0
4, 244320, Note_on_c, 2, 65, 105
4, 244632, Note_on_c, 2, 65, 0
4, 244800, Note_on_c, 2, 75, 105
4, 245376, Note_on_c, 2, 75, 0
4, 245520, Note_on_c, 2, 74, 105
4, 245712, Note_on_c, 2, 74, 0
4, 245760, Note_on_c, 2, 72, 105
4, 246072, Note_on_c, 2, 72, 0
4, 246240, Note_on_c, 2, 65, 105
4, 246552, Note_on_c, 2, 65, 0
4, 246720, Note_on_c, 2, 75, 105
4, 247032, Note_on_c, 2, 75, 0
4, 247200, Note_on_c, 2, 72, 105
4, 247512, Note_on_c, 2, 72, 0
4, 247680, Note_on_c, 2, 70, 105
4, 247680, Note_on_c, 2, 70, 105
4, 248448, Note_on_c, 2, 70, 0
4, 248448, Note_on_c, 2, 70, 0
4, 248640, Note_on_c, 2, 58, 105
4, 248640, Note_on_c, 2, 70, 105
4, 249408, Note_on_c, 2, 70, 0
4, 249408, Note_on_c, 2, 58, 0
4, 249600, Note_on_c, 2, 70, 105
4, 249600, Note_on_c, 2, 58, 105
4, 251136, Note_on_c, 2, 58, 0
4, 251136, Note_on_c, 2, 70, 0
4, 251520, Note_on_c, 2, 72, 105
4, 251520, Note_on_c, 2, 65, 105
4, 253056, Note_on_c, 2, 65, 0
4, 253056, Note_on_c, 2, 72, 0
4, 253440, Note_on_c, 2, 58, 105
4, 253440, Note_on_c, 2, 70, 105
4, 253752, Note_on_c, 2, 70, 0
4, 253752, Note_on_c, 2, 58, 0
4, 253920, Note_on_c, 2, 58, 105
4, 253920, Note_on_c, 2, 70, 105
4, 254232, Note_on_c, 2, 70, 0
4, 254232, Note_on_c, 2, 58, 0
4, 254400, Note_on_c, 2, 58, 105
4, 254400, Note_on_c, 2, 70, 105
4, 254712, Note_on_c, 2, 70, 0
4, 254712, Note_on_c, 2, 58, 0
4, 254880, Note_on_c, 2, 65, 105
4, 255192, Note_on_c, 2, 65, 0
4, 255360, Note_on_c, 2, 70, 105
4, 255360, Note_on_c, 2, 58, 105
4, 258816, Note_on_c, 2, 58, 0
4, 258816, Note_on_c, 2, 70, 0
4, 259200, Note_on_c, 2, 72, 105
4, 259200, Note_on_c, 2, 65, 105
4, 260736, Note_on_c, 2, 65, 0
4, 260736, Note_on_c, 2, 72, 0
4, 261120, Note_on_c, 2, 58, 105
4, 261120, Note_on_c, 2, 70, 105
4, 261432, Note_on_c, 2, 70, 0
4, 261432, Note_on_c, 2, 58, 0
4, 261600, Note_on_c, 2, 70, 105
4, 261600, Note_on_c, 2, 58, 105
4, 261912, Note_on_c, 2, 58, 0
4, 261912, Note_on_c, 2, 70, 0
4, 262080, Note_on_c, 2, 58, 105
4, 262080, Note_on_c, 2, 70, 105
4, 262392, Note_on_c, 2, 70, 0
4, 262392, Note_on_c, 2, 58, 0
4, 262560, Note_on_c, 2, 65, 105
4, 262872, Note_on_c, 2, 65, 0
4, 263040, Note_on_c, 2, 58, 105
4, 263040, Note_on_c, 2, 62, 105
4, 263424, Note_on_c, 2, 62, 0
4, 263424, Note_on_c, 2, 58, 0
4, 268800, Note_on_c, 2, 65, 105
4, 268800, Note_on_c, 2, 65, 105
4, 269184, Note_on_c, 2, 65, 0
4, 269184, Note_on_c, 2, 65, 0
4, 270720, Note_on_c, 2, 65, 105
4, 270720, Note_on_c, 2, 65, 105
4, 271104, Note_on_c, 2, 65, 0
4, 271104, Note_on_c, 2, 65, 0
4, 272640, Note_on_c, 2, 65, 105
4, 272640, Note_on_c, 2, 65, 105
4, 272952, Note_on_c, 2, 65, 0
4, 272952, Note_on_c, 2, 65, 0
4, 273120, Note_on_c, 2, 58, 105
4, 273120, Note_on_c, 2, 70, 105
4, 273888, Note_on_c, 2, 70, 0
4, 273888, Note_on_c, 2, 58, 0
4, 274080, Note_on_c, 2, 65, 105
4, 274464, Note_on_c, 2, 65, 0
4, 274560, Note_on_c, 2, 62, 92
4, 274560, Note_on_c, 2, 58, 92
4, 274944, Note_on_c, 2, 58, 0
4, 274944, Note_on_c, 2, 62, 0
4, 280320, Note_on_c, 2, 65, 105
4, 280632, Note_on_c, 2, 65, 0
4, 280800, Note_on_c, 2, 58, 105
4, 280800, Note_on_c, 2, 70, 105
4, 281568, Note_on_c, 2, 70, 0
4, 281568, Note_on_c, 2, 58, 0
4, 281760, Note_on_c, 2, 65, 105
4, 281760, Note_on_c, 2, 53, 105
4, 282144, Note_on_c, 2, 53, 0
4, 282144, Note_on_c, 2, 65, 0
4, 282240, Note_on_c, 2, 58, 105
4, 282240, Note_on_c, 2, 62, 105
4, 282624, Note_on_c, 2, 62, 0
4, 282624, Note_on_c, 2, 58, 0
4, 283200, Note_on_c, 2, 74, 105
4, 283776, Note_on_c, 2, 74, 0
4, 283920, Note_on_c, 2, 72, 105
4, 284112, Note_on_c, 2, 72, 0
4, 284160, Note_on_c, 2, 70, 105
4, 284472, Note_on_c, 2, 70, 0
4, 284640, Note_on_c, 2, 58, 105
4, 284952, Note_on_c, 2, 58, 0
4, 285120, Note_on_c, 2, 74, 105
4, 285696, Note_on_c, 2, 74, 0
4, 285840, Note_on_c, 2, 72, 105
4, 286032, Note_on_c, 2, 72, 0
4, 286080, Note_on_c, 2, 70, 105
4, 286848, Note_on_c, 2, 70, 0
4, 295680, Note_on_c, 2, 72, 105
4, 297600, Note_on_c, 2, 65, 105
4, 297984, Note_on_c, 2, 65, 0
4, 297984, Note_on_c, 2, 72, 0
4, 299520, Note_on_c, 2, 58, 105
4, 299520, Note_on_c, 2, 70, 105
4, 301824, Note_on_c, 2, 70, 0
4, 301824, Note_on_c, 2, 58, 0
4, 307200, Note_on_c, 2, 70, 105
4, 308544, Note_on_c, 2, 70, 0
4, 345600, Note_on_c, 2, 74, 105
4, 345600, Note_on_c, 2, 62, 105
4, 347424, Note_on_c, 2, 62, 0
4, 347424, Note_on_c, 2, 74, 0
4, 347520, Note_on_c, 2, 70, 105
4, 347520, Note_on_c, 2, 58, 105
4, 349344, Note_on_c, 2, 58, 0
4, 349344, Note_on_c, 2, 70, 0
4, 349440, Note_on_c, 2, 62, 92
4, 349440, Note_on_c, 2, 74, 92
4, 349824, Note_on_c, 2, 74, 0
4, 349824, Note_on_c, 2, 62, 0
4, 369600, Note_on_c, 2, 70, 105
4, 369984, Note_on_c, 2, 70, 0
4, 371040, Note_on_c, 2, 70, 105
4, 371424, Note_on_c, 2, 70, 0
4, 372960, Note_on_c, 2, 62, 105
4, 373344, Note_on_c, 2, 62, 0
4, 373440, Note_on_c, 2, 72, 105
4, 373824, Note_on_c, 2, 72, 0
4, 374880, Note_on_c, 2, 72, 105
4, 375264, Note_on_c, 2, 72, 0
4, 375360, Note_on_c, 2, 70, 105
4, 375744, Note_on_c, 2, 70, 0
4, 376800, Note_on_c, 2, 70, 105
4, 377184, Note_on_c, 2, 70, 0
4, 377280, Note_on_c, 2, 75, 105
4, 377856, Note_on_c, 2, 75, 0
4, 378000, Note_on_c, 2, 74, 105
4, 378192, Note_on_c, 2, 74, 0
4, 378240, Note_on_c, 2, 72, 105
4, 378624, Note_on_c, 2, 72, 0
4, 379200, Note_on_c, 2, 74, 105
4, 379776, Note_on_c, 2, 74, 0
4, 379920, Note_on_c, 2, 72, 105
4, 380112, Note_on_c, 2, 72, 0
4, 380160, Note_on_c, 2, 70, 105
4, 380928, Note_on_c, 2, 70, 0
4, 381600, Note_on_c, 2, 62, 105
4, 381984, Note_on_c, 2, 62, 0
4, 382080, Note_on_c, 2, 62, 105
4, 382080, Note_on_c, 2, 58, 105
4, 382848, Note_on_c, 2, 58, 0
4, 382848, Note_on_c, 2, 62, 0
4, 412800, Note_on_c, 2, 72, 105
4, 413184, Note_on_c, 2, 72, 0
4, 413280, Note_on_c, 2, 70, 105
4, 413664, Note_on_c, 2, 70, 0
4, 414720, Note_on_c, 2, 72, 105
4, 415104, Note_on_c, 2, 72, 0
4, 415200, Note_on_c, 2, 70, 105
4, 415584, Note_on_c, 2, 70, 0
4, 417600, Note_on_c, 2, 72, 105
4, 417600, Note_on_c, 2, 75, 105
4, 418368, Note_on_c, 2, 75, 0
4, 418368, Note_on_c, 2, 72, 0
4, 418560, Note_on_c, 2, 72, 105
4, 418560, Note_on_c, 2, 74, 105
4, 419328, Note_on_c, 2, 74, 0
4, 419328, Note_on_c, 2, 72, 0
4, 419520, Note_on_c, 2, 72, 105
4, 419520, Note_on_c, 2, 62, 105
4, 420288, Note_on_c, 2, 62, 0
4, 420288, Note_on_c, 2, 72, 0
4, 420480, Note_on_c, 2, 62, 105
4, 420480, Note_on_c, 2, 70, 105
4, 420864, Note_on_c, 2, 70, 0
4, 420864, Note_on_c, 2, 62, 0
4, 423360, Note_on_c, 2, 70, 105
4, 423360, Note_on_c, 2, 62, 105
4, 423648, Note_on_c, 2, 62, 0
4, 423648, Note_on_c, 2, 70, 0
4, 423840, Note_on_c, 2, 62, 105
4, 424128, Note_on_c, 2, 62, 0
4, 424320, Note_on_c, 2, 58, 105
4, 424320, Note_on_c, 2, 62, 105
4, 424608, Note_on_c, 2, 62, 0
4, 424608, Note_on_c, 2, 58, 0
4, 424800, Note_on_c, 2, 62, 105
4, 425088, Note_on_c, 2, 62, 0
4, 425280, Note_on_c, 2, 70, 105
4, 425664, Note_on_c, 2, 70, 0
4, 426720, Note_on_c, 2, 62, 105
4, 427008, Note_on_c, 2, 62, 0
4, 427200, Note_on_c, 2, 58, 105
4, 427488, Note_on_c, 2, 58, 0
4, 428160, Note_on_c, 2, 62, 92
4, 428448, Note_on_c, 2, 62, 0
4, 452160, Note_on_c, 2, 70, 105
4, 452472, Note_on_c, 2, 70, 0
4, 454080, Note_on_c, 2, 70, 105
4, 454392, Note_on_c, 2, 70, 0
4, 455520, Note_on_c, 2, 62, 92
4, 455832, Note_on_c, 2, 62, 0
4, 456000, Note_on_c, 2, 72, 92
4, 456312, Note_on_c, 2, 72, 0
4, 457440, Note_on_c, 2, 62, 92
4, 457752, Note_on_c, 2, 62, 0
4, 457920, Note_on_c, 2, 72, 92
4, 458232, Note_on_c, 2, 72, 0
4, 461760, Note_on_c, 2, 58, 105
4, 461760, Note_on_c, 2, 70, 105
4, 462528, Note_on_c, 2, 70, 0
4, 462528, Note_on_c, 2, 58, 0
4, 462720, Note_on_c, 2, 74, 105
4, 462720, Note_on_c, 2, 62, 105
4, 465024, Note_on_c, 2, 62, 0
4, 465024, Note_on_c, 2, 74, 0
4, 466080, Note_on_c, 2, 62, 105
4, 466464, Note_on_c, 2, 62, 0
4, 466560, Note_on_c, 2, 62, 105
4, 466560, Note_on_c, 2, 58, 105
4, 467328, Note_on_c, 2, 58, 0
4, 467328, Note_on_c, 2, 62, 0
4, 469440, Note_on_c, 2, 70, 105
4, 469440, Note_on_c, 2, 58, 105
4, 470208, Note_on_c, 2, 58, 0
4, 470208, Note_on_c, 2, 70, 0
4, 470400, Note_on_c, 2, 62, 105
4, 470400, Note_on_c, 2, 74, 105
4, 471168, Note_on_c, 2, 74, 0
4, 471360, Note_on_c, 2, 72, 105
4, 472128, Note_on_c, 2, 72, 0
4, 472128, Note_on_c, 2, 62, 0
4, 472320, Note_on_c, 2, 70, 105
4, 472704, Note_on_c, 2, 70, 0
4, 473760, Note_on_c, 2, 62, 105
4, 474144, Note_on_c, 2, 62, 0
4, 474240, Note_on_c, 2, 62, 105
4, 474240, Note_on_c, 2, 58, 105
4, 474624, Note_on_c, 2, 58, 0
4, 474624, Note_on_c, 2, 62, 0
4, 480000, Note_on_c, 2, 72, 105
4, 480000, Note_on_c, 2, 62, 105
4, 480384, Note_on_c, 2, 62, 0
4, 480384, Note_on_c, 2, 72, 0
4, 481920, Note_on_c, 2, 72, 105
4, 481920, Note_on_c, 2, 62, 105
4, 482304, Note_on_c, 2, 62, 0
4, 482304, Note_on_c, 2, 72, 0
4, 483840, Note_on_c, 2, 72, 105
4, 483840, Note_on_c, 2, 62, 105
4, 484200, Note_on_c, 2, 72, 0
4, 484320, Note_on_c, 2, 70, 105
4, 484680, Note_on_c, 2, 62, 0
4, 485160, Note_on_c, 2, 70, 0
4, 485280, Note_on_c, 2, 62, 105
4, 485640, Note_on_c, 2, 62, 0
4, 485760, Note_on_c, 2, 62, 105
4, 485760, Note_on_c, 2, 58, 105
4, 486144, Note_on_c, 2, 58, 0
4, 486144, Note_on_c, 2, 62, 0
4, 491520, Note_on_c, 2, 62, 105
4, 491520, Note_on_c, 2, 72, 105
4, 491808, Note_on_c, 2, 72, 0
4, 492000, Note_on_c, 2, 70, 105
4, 492288, Note_on_c, 2, 70, 0
4, 492288, Note_on_c, 2, 62, 0
4, 492480, Note_on_c, 2, 72, 105
4, 492768, Note_on_c, 2, 72, 0
4, 492960, Note_on_c, 2, 62, 105
4, 492960, Note_on_c, 2, 74, 105
4, 493248, Note_on_c, 2, 74, 0
4, 493248, Note_on_c, 2, 62, 0
4, 493440, Note_on_c, 2, 62, 105
4, 493440, Note_on_c, 2, 70, 105
4, 493728, Note_on_c, 2, 70, 0
4, 493728, Note_on_c, 2, 62, 0
4, 494400, Note_on_c, 2, 70, 105
4, 494784, Note_on_c, 2, 70, 0
4, 496320, Note_on_c, 2, 70, 105
4, 496704, Note_on_c, 2, 70, 0
4, 510720, Note_on_c, 2, 58, 105
4, 510720, Note_on_c, 2, 70, 105
4, 512640, Note_on_c, 2, 58, 0
4, 512640, Note_on_c, 2, 62, 105
4, 513024, Note_on_c, 2, 62, 0
4, 513024, Note_on_c, 2, 70, 0
4, 517440, Note_on_c, 2, 62, 105
4, 518208, Note_on_c, 2, 62, 0
4, 518400, Note_on_c, 2, 62, 105
4, 518400, Note_on_c, 2, 58, 105
4, 519360, Note_on_c, 2, 58, 0
4, 519360, Note_on_c, 2, 62, 0
4, 519360, End_track
5, 0, Start_track
5, 0, Program_c, 3, 60
5, 0, Control_c, 3, 7, 109
5, 0, Control_c, 3, 10, 54
5, 0, Control_c, 3, 91, 80
5, 17280, Note_on_c, 3, 67, 80
5, 17664, Note_on_c, 3, 67, 0
5, 17760, Note_on_c, 3, 62, 105
5, 18144, Note_on_c, 3, 62, 0
5, 18960, Note_on_c, 3, 69, 105
5, 19152, Note_on_c, 3, 69, 0
5, 19200, Note_on_c, 3, 67, 105
5, 19584, Note_on_c, 3, 67, 0
5, 20160, Note_on_c, 3, 69, 105
5, 20544, Note_on_c, 3, 69, 0
5, 20640, Note_on_c, 3, 67, 105
5, 21024, Note_on_c, 3, 67, 0
5, 21120, Note_on_c, 3, 69, 105
5, 21504, Note_on_c, 3, 69, 0
5, 21600, Note_on_c, 3, 62, 105
5, 21984, Note_on_c, 3, 62, 0
5, 22080, Note_on_c, 3, 72, 105
5, 22464, Note_on_c, 3, 72, 0
5, 23040, Note_on_c, 3, 69, 105
5, 23424, Note_on_c, 3, 69, 0
5, 23520, Note_on_c, 3, 72, 105
5, 23904, Note_on_c, 3, 72, 0
5, 24480, Note_on_c, 3, 69, 105
5, 24864, Note_on_c, 3, 69, 0
5, 24960, Note_on_c, 3, 67, 105
5, 25344, Note_on_c, 3, 67, 0
5, 26640, Note_on_c, 3, 74, 105
5, 26832, Note_on_c, 3, 74, 0
5, 26880, Note_on_c, 3, 72, 105
5, 27264, Note_on_c, 3, 72, 0
5, 27360, Note_on_c, 3, 69, 105
5, 27744, Note_on_c, 3, 69, 0
5, 27840, Note_on_c, 3, 74, 105
5, 28224, Note_on_c, 3, 74, 0
5, 28800, Note_on_c, 3, 67, 105
5, 29568, Note_on_c, 3, 67, 0
5, 29760, Note_on_c, 3, 67, 105
5, 29760, Note_on_c, 3, 69, 105
5, 30144, Note_on_c, 3, 69, 0
5, 30144, Note_on_c, 3, 67, 0
5, 30240, Note_on_c, 3, 62, 105
5, 30240, Note_on_c, 3, 69, 105
5, 30624, Note_on_c, 3, 69, 0
5, 30624, Note_on_c, 3, 62, 0
5, 30720, Note_on_c, 3, 67, 105
5, 30720, Note_on_c, 3, 55, 105
5, 31488, Note_on_c, 3, 55, 0
5, 31488, Note_on_c, 3, 67, 0
5, 57600, Note_on_c, 3, 67, 105
5, 57600, Note_on_c, 3, 55, 105
5, 57888, Note_on_c, 3, 55, 0
5, 57888, Note_on_c, 3, 67, 0
5, 58080, Note_on_c, 3, 62, 105
5, 58368, Note_on_c, 3, 62, 0
5, 163200, Note_on_c, 3, 67, 105
5, 163584, Note_on_c, 3, 67, 0
5, 163680, Note_on_c, 3, 62, 105
5, 164064, Note_on_c, 3, 62, 0
5, 164880, Note_on_c, 3, 69, 105
5, 165072, Note_on_c, 3, 69, 0
5, 165120, Note_on_c, 3, 67, 105
5, 165504, Note_on_c, 3, 67, 0
5, 166080, Note_on_c, 3, 69, 105
5, 166464, Note_on_c, 3, 69, 0
5, 166560, Note_on_c, 3, 67, 105
5, 166944, Note_on_c, 3, 67, 0
5, 167040, Note_on_c, 3, 69, 105
5, 167424, Note_on_c, 3, 69, 0
5, 167520, Note_on_c, 3, 62, 105
5, 167904, Note_on_c, 3, 62, 0
5, 168000, Note_on_c, 3, 72, 105
5, 168384, Note_on_c, 3, 72, 0
5, 168960, Note_on_c, 3, 69, 105
5, 169344, Note_on_c, 3, 69, 0
5, 169440, Note_on_c, 3, 72, 105
5, 169824, Note_on_c, 3, 72, 0
5, 170400, Note_on_c, 3, 69, 105
5, 170784, Note_on_c, 3, 69, 0
5, 170880, Note_on_c, 3, 67, 105
5, 171264, Note_on_c, 3, 67, 0
5, 172560, Note_on_c, 3, 74, 105
5, 172752, Note_on_c, 3, 74, 0
5, 172800, Note_on_c, 3, 72, 105
5, 173184, Note_on_c, 3, 72, 0
5, 173280, Note_on_c, 3, 69, 105
5, 173664, Note_on_c, 3, 69, 0
5, 173760, Note_on_c, 3, 74, 105
5, 174144, Note_on_c, 3, 74, 0
5, 174720, Note_on_c, 3, 67, 105
5, 175488, Note_on_c, 3, 67, 0
5, 175680, Note_on_c, 3, 67, 105
5, 175680, Note_on_c, 3, 69, 105
5, 176064, Note_on_c, 3, 69, 0
5, 176064, Note_on_c, 3, 67, 0
5, 176160, Note_on_c, 3, 62, 105
5, 176160, Note_on_c, 3, 69, 105
5, 176544, Note_on_c, 3, 69, 0
5, 176544, Note_on_c, 3, 62, 0
5, 176640, Note_on_c, 3, 67, 105
5, 176640, Note_on_c, 3, 55, 105
5, 177408, Note_on_c, 3, 55, 0
5, 177408, Note_on_c, 3, 67, 0
5, 203520, Note_on_c, 3, 67, 105
5, 203520, Note_on_c, 3, 55, 105
5, 203808, Note_on_c, 3, 55, 0
5, 203808, Note_on_c, 3, 67, 0
5, 204000, Note_on_c, 3, 62, 105
5, 204288, Note_on_c, 3, 62, 0
5, 303360, Note_on_c, 3, 69, 105
5, 305280, Note_on_c, 3, 62, 105
5, 305664, Note_on_c, 3, 62, 0
5, 305664, Note_on_c, 3, 69, 0
5, 307680, Note_on_c, 3, 67, 105
5, 308400, Note_on_c, 3, 67, 0
5, 308640, Note_on_c, 3, 69, 105
5, 309480, Note_on_c, 3, 69, 0
5, 309600, Note_on_c, 3, 67, 105
5, 309960, Note_on_c, 3, 67, 0
5, 310080, Note_on_c, 3, 69, 105
5, 310800, Note_on_c, 3, 69, 0
5, 311040, Note_on_c, 3, 62, 105
5, 311400, Note_on_c, 3, 62, 0
5, 311520, Note_on_c, 3, 69, 105
5, 311880, Note_on_c, 3, 69, 0
5, 312000, Note_on_c, 3, 69, 105
5, 312000, Note_on_c, 3, 62, 105
5, 312360, Note_on_c, 3, 69, 0
5, 312480, Note_on_c, 3, 71, 105
5, 312840, Note_on_c, 3, 71, 0
5, 312840, Note_on_c, 3, 62, 0
5, 312960, Note_on_c, 3, 69, 105
5, 324864, Note_on_c, 3, 69, 0
5, 328320, Note_on_c, 3, 55, 92
5, 328320, Note_on_c, 3, 67, 92
5, 340224, Note_on_c, 3, 67, 0
5, 340224, Note_on_c, 3, 55, 0
5, 345600, Note_on_c, 3, 62, 105
5, 347424, Note_on_c, 3, 62, 0
5, 347520, Note_on_c, 3, 67, 105
5, 347520, Note_on_c, 3, 55, 105
5, 349344, Note_on_c, 3, 55, 0
5, 349344, Note_on_c, 3, 67, 0
5, 349440, Note_on_c, 3, 50, 92
5, 349440, Note_on_c, 3, 69, 92
5, 349824, Note_on_c, 3, 69, 0
5, 349824, Note_on_c, 3, 50, 0
5, 368640, Note_on_c, 3, 67, 105
5, 369024, Note_on_c, 3, 67, 0
5, 369120, Note_on_c, 3, 62, 105
5, 369504, Note_on_c, 3, 62, 0
5, 370320, Note_on_c, 3, 69, 105
5, 370512, Note_on_c, 3, 69, 0
5, 370560, Note_on_c, 3, 67, 105
5, 370944, Note_on_c, 3, 67, 0
5, 371520, Note_on_c, 3, 69, 105
5, 371904, Note_on_c, 3, 69, 0
5, 372000, Note_on_c, 3, 67, 105
5, 372384, Note_on_c, 3, 67, 0
5, 372480, Note_on_c, 3, 69, 105
5, 372864, Note_on_c, 3, 69, 0
5, 372960, Note_on_c, 3, 62, 105
5, 373344, Note_on_c, 3, 62, 0
5, 373440, Note_on_c, 3, 72, 105
5, 373824, Note_on_c, 3, 72, 0
5, 374400, Note_on_c, 3, 69, 105
5, 374784, Note_on_c, 3, 69, 0
5, 374880, Note_on_c, 3, 72, 105
5, 375264, Note_on_c, 3, 72, 0
5, 375840, Note_on_c, 3, 69, 105
5, 376224, Note_on_c, 3, 69, 0
5, 376320, Note_on_c, 3, 67, 105
5, 376704, Note_on_c, 3, 67, 0
5, 378000, Note_on_c, 3, 74, 105
5, 378192, Note_on_c, 3, 74, 0
5, 378240, Note_on_c, 3, 72, 105
5, 378624, Note_on_c, 3, 72, 0
5, 378720, Note_on_c, 3, 69, 105
5, 379104, Note_on_c, 3, 69, 0
5, 379200, Note_on_c, 3, 74, 105
5, 379584, Note_on_c, 3, 74, 0
5, 380160, Note_on_c, 3, 67, 105
5, 380928, Note_on_c, 3, 67, 0
5, 381120, Note_on_c, 3, 67, 105
5, 381120, Note_on_c, 3, 69, 105
5, 381504, Note_on_c, 3, 69, 0
5, 381504, Note_on_c, 3, 67, 0
5, 381600, Note_on_c, 3, 62, 105
5, 381600, Note_on_c, 3, 69, 105
5, 381984, Note_on_c, 3, 69, 0
5, 381984, Note_on_c, 3, 62, 0
5, 382080, Note_on_c, 3, 67, 105
5, 382080, Note_on_c, 3, 55, 105
5, 382848, Note_on_c, 3, 55, 0
5, 382848, Note_on_c, 3, 67, 0
5, 408960, Note_on_c, 3, 55, 105
5, 408960, Note_on_c, 3, 55, 105
5, 409728, Note_on_c, 3, 55, 0
5, 409728, Note_on_c, 3, 55, 0
5, 410880, Note_on_c, 3, 67, 105
5, 410880, Note_on_c, 3, 55, 105
5, 411264, Note_on_c, 3, 55, 0
5, 411264, Note_on_c, 3, 67, 0
5, 411360, Note_on_c, 3, 62, 105
5, 411744, Note_on_c, 3, 62, 0
5, 416640, Note_on_c, 3, 69, 105
5, 417024, Note_on_c, 3, 69, 0
5, 417120, Note_on_c, 3, 67, 105
5, 417504, Note_on_c, 3, 67, 0
5, 418560, Note_on_c, 3, 69, 105
5, 419328, Note_on_c, 3, 69, 0
5, 419520, Note_on_c, 3, 62, 105
5, 419520, Note_on_c, 3, 69, 105
5, 420288, Note_on_c, 3, 69, 0
5, 420288, Note_on_c, 3, 62, 0
5, 420480, Note_on_c, 3, 67, 105
5, 420480, Note_on_c, 3, 55, 105
5, 422976, Note_on_c, 3, 55, 0
5, 423360, Note_on_c, 3, 62, 105
5, 423648, Note_on_c, 3, 62, 0
5, 423648, Note_on_c, 3, 67, 0
5, 423840, Note_on_c, 3, 50, 105
5, 423840, Note_on_c, 3, 69, 105
5, 424128, Note_on_c, 3, 69, 0
5, 424128, Note_on_c, 3, 50, 0
5, 424320, Note_on_c, 3, 55, 105
5, 424320, Note_on_c, 3, 67, 105
5, 424608, Note_on_c, 3, 67, 0
5, 424608, Note_on_c, 3, 55, 0
5, 424800, Note_on_c, 3, 62, 105
5, 425088, Note_on_c, 3, 62, 0
5, 426000, Note_on_c, 3, 69, 105
5, 426192, Note_on_c, 3, 69, 0
5, 426240, Note_on_c, 3, 67, 105
5, 426528, Note_on_c, 3, 67, 0
5, 426720, Note_on_c, 3, 62, 105
5, 427008, Note_on_c, 3, 62, 0
5, 427680, Note_on_c, 3, 55, 105
5, 427968, Note_on_c, 3, 55, 0
5, 428160, Note_on_c, 3, 50, 92
5, 428448, Note_on_c, 3, 50, 0
5, 451200, Note_on_c, 3, 67, 105
5, 451512, Note_on_c, 3, 67, 0
5, 451680, Note_on_c, 3, 62, 105
5, 451992, Note_on_c, 3, 62, 0
5, 452880, Note_on_c, 3, 69, 105
5, 453036, Note_on_c, 3, 69, 0
5, 453120, Note_on_c, 3, 67, 105
5, 453432, Note_on_c, 3, 67, 0
5, 453600, Note_on_c, 3, 62, 105
5, 453912, Note_on_c, 3, 62, 0
5, 454560, Note_on_c, 3, 67, 105
5, 454872, Note_on_c, 3, 67, 0
5, 455040, Note_on_c, 3, 69, 105
5, 455352, Note_on_c, 3, 69, 0
5, 455520, Note_on_c, 3, 62, 105
5, 455832, Note_on_c, 3, 62, 0
5, 456000, Note_on_c, 3, 72, 105
5, 456312, Note_on_c, 3, 72, 0
5, 456960, Note_on_c, 3, 69, 105
5, 457272, Note_on_c, 3, 69, 0
5, 457440, Note_on_c, 3, 62, 105
5, 457752, Note_on_c, 3, 62, 0
5, 457920, Note_on_c, 3, 72, 105
5, 458232, Note_on_c, 3, 72, 0
5, 458400, Note_on_c, 3, 69, 105
5, 458712, Note_on_c, 3, 69, 0
5, 458880, Note_on_c, 3, 67, 105
5, 459648, Note_on_c, 3, 67, 0
5, 459840, Note_on_c, 3, 55, 105
5, 459840, Note_on_c, 3, 67, 105
5, 460608, Note_on_c, 3, 67, 0
5, 460608, Note_on_c, 3, 55, 0
5, 460800, Note_on_c, 3, 67, 105
5, 460800, Note_on_c, 3, 55, 105
5, 462336, Note_on_c, 3, 55, 0
5, 462336, Note_on_c, 3, 67, 0
5, 462720, Note_on_c, 3, 50, 105
5, 462720, Note_on_c, 3, 69, 105
5, 464256, Note_on_c, 3, 69, 0
5, 464256, Note_on_c, 3, 50, 0
5, 464640, Note_on_c, 3, 67, 105
5, 464640, Note_on_c, 3, 55, 105
5, 465024, Note_on_c, 3, 55, 0
5, 465024, Note_on_c, 3, 67, 0
5, 465120, Note_on_c, 3, 55, 105
5, 465120, Note_on_c, 3, 67, 105
5, 465888, Note_on_c, 3, 67, 0
5, 465888, Note_on_c, 3, 55, 0
5, 466080, Note_on_c, 3, 50, 105
5, 466080, Note_on_c, 3, 69, 105
5, 466464, Note_on_c, 3, 69, 0
5, 466464, Note_on_c, 3, 50, 0
5, 466560, Note_on_c, 3, 67, 105
5, 466560, Note_on_c, 3, 55, 105
5, 470016, Note_on_c, 3, 55, 0
5, 470016, Note_on_c, 3, 67, 0
5, 470400, Note_on_c, 3, 69, 105
5, 470400, Note_on_c, 3, 50, 105
5, 471936, Note_on_c, 3, 50, 0
5, 471936, Note_on_c, 3, 69, 0
5, 472320, Note_on_c, 3, 55, 105
5, 472320, Note_on_c, 3, 67, 105
5, 472632, Note_on_c, 3, 67, 0
5, 472632, Note_on_c, 3, 55, 0
5, 472800, Note_on_c, 3, 55, 105
5, 472800, Note_on_c, 3, 67, 105
5, 473568, Note_on_c, 3, 67, 0
5, 473568, Note_on_c, 3, 55, 0
5, 473760, Note_on_c, 3, 50, 105
5, 473760, Note_on_c, 3, 69, 105
5, 474072, Note_on_c, 3, 69, 0
5, 474072, Note_on_c, 3, 50, 0
5, 474240, Note_on_c, 3, 67, 105
5, 474240, Note_on_c, 3, 55, 105
5, 474624, Note_on_c, 3, 55, 0
5, 474624, Note_on_c, 3, 67, 0
5, 480000, Note_on_c, 3, 69, 105
5, 480000, Note_on_c, 3, 50, 105
5, 480384, Note_on_c, 3, 50, 0
5, 480384, Note_on_c, 3, 69, 0
5, 481920, Note_on_c, 3, 69, 105
5, 481920, Note_on_c, 3, 50, 105
5, 482304, Note_on_c, 3, 50, 0
5, 482304, Note_on_c, 3, 69, 0
5, 483840, Note_on_c, 3, 69, 105
5, 483840, Note_on_c, 3, 50, 105
5, 484200, Note_on_c, 3, 50, 0
5, 484200, Note_on_c, 3, 69, 0
5, 484320, Note_on_c, 3, 55, 105
5, 484320, Note_on_c, 3, 67, 105
5, 485040, Note_on_c, 3, 67, 0
5, 485040, Note_on_c, 3, 55, 0
5, 485280, Note_on_c, 3, 69, 105
5, 485280, Note_on_c, 3, 50, 105
5, 485640, Note_on_c, 3, 50, 0
5, 485640, Note_on_c, 3, 69, 0
5, 485760, Note_on_c, 3, 67, 105
5, 485760, Note_on_c, 3, 55, 105
5, 486144, Note_on_c, 3, 55, 0
5, 486144, Note_on_c, 3, 67, 0
5, 491520, Note_on_c, 3, 69, 105
5, 491520, Note_on_c, 3, 62, 105
5, 491808, Note_on_c, 3, 62, 0
5, 491808, Note_on_c, 3, 69, 0
5, 492000, Note_on_c, 3, 67, 105
5, 492480, Note_on_c, 3, 55, 105
5, 492768, Note_on_c, 3, 55, 0
5, 492768, Note_on_c, 3, 67, 0
5, 492960, Note_on_c, 3, 50, 105
5, 492960, Note_on_c, 3, 69, 105
5, 493248, Note_on_c, 3, 69, 0
5, 493248, Note_on_c, 3, 50, 0
5, 493440, Note_on_c, 3, 55, 105
5, 493440, Note_on_c, 3, 67, 105
5, 493728, Note_on_c, 3, 67, 0
5, 493728, Note_on_c, 3, 55, 0
5, 495120, Note_on_c, 3, 69, 105
5, 495312, Note_on_c, 3, 69, 0
5, 495360, Note_on_c, 3, 67, 105
5, 495648, Note_on_c, 3, 67, 0
5, 495840, Note_on_c, 3, 55, 105
5, 496128, Note_on_c, 3, 55, 0
5, 497040, Note_on_c, 3, 69, 105
5, 497232, Note_on_c, 3, 69, 0
5, 497280, Note_on_c, 3, 67, 105
5, 498048, Note_on_c, 3, 67, 0
5, 510720, Note_on_c, 3, 55, 105
5, 510720, Note_on_c, 3, 67, 105
5, 512640, Note_on_c, 3, 55, 0
5, 512640, Note_on_c, 3, 50, 105
5, 513024, Note_on_c, 3, 50, 0
5, 513024, Note_on_c, 3, 67, 0
5, 517440, Note_on_c, 3, 50, 105
5, 517440, Note_on_c, 3, 69, 105
5, 518208, Note_on_c, 3, 69, 0
5, 518208, Note_on_c, 3, 50, 0
5, 518400, Note_on_c, 3, 67, 105
5, 518400, Note_on_c, 3, 55, 105
5, 519360, Note_on_c, 3, 55, 0
5, 519360, Note_on_c, 3, 67, 0
5, 519360, End_track
6, 0, Start_track
6, 0, Program_c, 4, 48
6, 0, Control_c, 4, 7, 127
6, 0, Control_c, 4, 10, 40
6, 0, Control_c, 4, 91, 81
6, 1920, Note_on_c, 4, 67, 58
6, 2232, Note_on_c, 4, 67, 0
6, 2400, Note_on_c, 4, 62, 58
6, 2712, Note_on_c, 4, 62, 0
6, 2880, Note_on_c, 4, 70, 58
6, 3420, Note_on_c, 4, 70, 0
6, 3600, Note_on_c, 4, 69, 58
6, 3756, Note_on_c, 4, 69, 0
6, 3840, Note_on_c, 4, 67, 58
6, 4152, Note_on_c, 4, 67, 0
6, 4320, Note_on_c, 4, 70, 58
6, 4800, Note_on_c, 4, 70, 0
6, 4800, Note_on_c, 4, 69, 58
6, 5280, Note_on_c, 4, 69, 0
6, 5280, Note_on_c, 4, 67, 58
6, 5736, Note_on_c, 4, 67, 0
6, 5760, Note_on_c, 4, 66, 58
6, 6072, Note_on_c, 4, 66, 0
6, 6240, Note_on_c, 4, 62, 58
6, 6552, Note_on_c, 4, 62, 0
6, 6720, Note_on_c, 4, 72, 58
6, 7260, Note_on_c, 4, 72, 0
6, 7440, Note_on_c, 4, 70, 58
6, 7596, Note_on_c, 4, 70, 0
6, 7680, Note_on_c, 4, 69, 58
6, 7992, Note_on_c, 4, 69, 0
6, 8160, Note_on_c, 4, 72, 58
6, 8640, Note_on_c, 4, 72, 0
6, 8640, Note_on_c, 4, 70, 58
6, 9120, Note_on_c, 4, 70, 0
6, 9120, Note_on_c, 4, 69, 58
6, 9576, Note_on_c, 4, 69, 0
6, 9600, Note_on_c, 4, 67, 58
6, 9912, Note_on_c, 4, 67, 0
6, 10080, Note_on_c, 4, 70, 58
6, 10392, Note_on_c, 4, 70, 0
6, 10560, Note_on_c, 4, 75, 58
6, 11064, Note_on_c, 4, 75, 0
6, 11280, Note_on_c, 4, 74, 58
6, 11436, Note_on_c, 4, 74, 0
6, 11520, Note_on_c, 4, 72, 58
6, 11832, Note_on_c, 4, 72, 0
6, 12000, Note_on_c, 4, 69, 58
6, 12312, Note_on_c, 4, 69, 0
6, 12480, Note_on_c, 4, 74, 58
6, 12984, Note_on_c, 4, 74, 0
6, 13200, Note_on_c, 4, 72, 58
6, 13356, Note_on_c, 4, 72, 0
6, 13440, Note_on_c, 4, 70, 58
6, 13752, Note_on_c, 4, 70, 0
6, 13920, Note_on_c, 4, 67, 58
6, 14232, Note_on_c, 4, 67, 0
6, 14400, Note_on_c, 4, 63, 58
6, 14712, Note_on_c, 4, 63, 0
6, 14880, Note_on_c, 4, 61, 58
6, 15192, Note_on_c, 4, 61, 0
6, 15360, Note_on_c, 4, 62, 58
6, 15672, Note_on_c, 4, 62, 0
6, 15840, Note_on_c, 4, 72, 58
6, 16320, Note_on_c, 4, 72, 0
6, 16320, Note_on_c, 4, 70, 58
6, 16800, Note_on_c, 4, 70, 0
6, 16800, Note_on_c, 4, 69, 58
6, 17112, Note_on_c, 4, 69, 0
6, 17280, Note_on_c, 4, 67, 105
6, 17472, Note_on_c, 4, 67, 0
6, 17520, Note_on_c, 4, 74, 105
6, 17904, Note_on_c, 4, 74, 0
6, 18000, Note_on_c, 4, 74, 105
6, 18384, Note_on_c, 4, 74, 0
6, 18480, Note_on_c, 4, 74, 105
6, 18864, Note_on_c, 4, 74, 0
6, 18960, Note_on_c, 4, 74, 105
6, 19584, Note_on_c, 4, 74, 0
6, 19680, Note_on_c, 4, 79, 105
6, 20160, Note_on_c, 4, 79, 0
6, 20160, Note_on_c, 4, 78, 105
6, 20640, Note_on_c, 4, 78, 0
6, 20640, Note_on_c, 4, 79, 105
6, 21024, Note_on_c, 4, 79, 0
6, 21120, Note_on_c, 4, 81, 105
6, 21312, Note_on_c, 4, 81, 0
6, 21360, Note_on_c, 4, 74, 105
6, 21744, Note_on_c, 4, 74, 0
6, 21840, Note_on_c, 4, 74, 105
6, 22224, Note_on_c, 4, 74, 0
6, 22320, Note_on_c, 4, 74, 105
6, 22704, Note_on_c, 4, 74, 0
6, 22800, Note_on_c, 4, 74, 105
6, 23424, Note_on_c, 4, 74, 0
6, 23520, Note_on_c, 4, 81, 105
6, 24000, Note_on_c, 4, 81, 0
6, 24000, Note_on_c, 4, 79, 105
6, 24480, Note_on_c, 4, 79, 0
6, 24480, Note_on_c, 4, 81, 105
6, 24864, Note_on_c, 4, 81, 0
6, 24960, Note_on_c, 4, 82, 105
6, 25152, Note_on_c, 4, 82, 0
6, 25200, Note_on_c, 4, 79, 105
6, 25584, Note_on_c, 4, 79, 0
6, 25680, Note_on_c, 4, 79, 105
6, 26064, Note_on_c, 4, 79, 0
6, 26160, Note_on_c, 4, 79, 105
6, 26544, Note_on_c, 4, 79, 0
6, 26640, Note_on_c, 4, 79, 105
6, 26832, Note_on_c, 4, 79, 0
6, 26880, Note_on_c, 4, 87, 105
6, 27072, Note_on_c, 4, 87, 0
6, 27120, Note_on_c, 4, 87, 105
6, 27504, Note_on_c, 4, 87, 0
6, 27600, Note_on_c, 4, 87, 105
6, 27792, Note_on_c, 4, 87, 0
6, 27840, Note_on_c, 4, 78, 105
6, 28032, Note_on_c, 4, 78, 0
6, 28080, Note_on_c, 4, 78, 105
6, 28464, Note_on_c, 4, 78, 0
6, 28560, Note_on_c, 4, 78, 105
6, 28752, Note_on_c, 4, 78, 0
6, 28800, Note_on_c, 4, 79, 105
6, 29112, Note_on_c, 4, 79, 0
6, 29280, Note_on_c, 4, 70, 105
6, 29592, Note_on_c, 4, 70, 0
6, 29760, Note_on_c, 4, 69, 105
6, 30072, Note_on_c, 4, 69, 0
6, 30240, Note_on_c, 4, 78, 105
6, 30552, Note_on_c, 4, 78, 0
6, 30720, Note_on_c, 4, 79, 105
6, 31032, Note_on_c, 4, 79, 0
6, 31200, Note_on_c, 4, 67, 105
6, 31512, Note_on_c, 4, 67, 0
6, 32160, Note_on_c, 4, 70, 80
6, 32400, Note_on_c, 4, 70, 0
6, 32400, Note_on_c, 4, 67, 80
6, 32592, Note_on_c, 4, 67, 0
6, 32640, Note_on_c, 4, 75, 80
6, 32976, Note_on_c, 4, 75, 0
6, 33120, Note_on_c, 4, 75, 80
6, 33456, Note_on_c, 4, 75, 0
6, 33600, Note_on_c, 4, 75, 80
6, 33936, Note_on_c, 4, 75, 0
6, 34080, Note_on_c, 4, 75, 80
6, 34416, Note_on_c, 4, 75, 0
6, 34560, Note_on_c, 4, 75, 80
6, 35520, Note_on_c, 4, 75, 0
6, 35520, Note_on_c, 4, 74, 80
6, 35856, Note_on_c, 4, 74, 0
6, 36000, Note_on_c, 4, 75, 80
6, 36336, Note_on_c, 4, 75, 0
6, 36480, Note_on_c, 4, 76, 80
6, 36960, Note_on_c, 4, 76, 0
6, 36960, Note_on_c, 4, 77, 80
6, 37440, Note_on_c, 4, 77, 0
6, 37440, Note_on_c, 4, 78, 80
6, 37920, Note_on_c, 4, 78, 0
6, 37920, Note_on_c, 4, 79, 80
6, 38304, Note_on_c, 4, 79, 0
6, 38400, Note_on_c, 4, 70, 80
6, 39360, Note_on_c, 4, 70, 0
6, 39360, Note_on_c, 4, 69, 80
6, 39744, Note_on_c, 4, 69, 0
6, 39840, Note_on_c, 4, 58, 80
6, 40080, Note_on_c, 4, 58, 0
6, 40080, Note_on_c, 4, 55, 80
6, 40272, Note_on_c, 4, 55, 0
6, 40320, Note_on_c, 4, 63, 80
6, 40680, Note_on_c, 4, 63, 0
6, 40800, Note_on_c, 4, 63, 80
6, 41160, Note_on_c, 4, 63, 0
6, 41280, Note_on_c, 4, 63, 80
6, 41640, Note_on_c, 4, 63, 0
6, 41760, Note_on_c, 4, 63, 80
6, 42120, Note_on_c, 4, 63, 0
6, 42240, Note_on_c, 4, 63, 80
6, 43200, Note_on_c, 4, 63, 0
6, 43200, Note_on_c, 4, 62, 80
6, 43608, Note_on_c, 4, 62, 0
6, 43680, Note_on_c, 4, 63, 80
6, 44088, Note_on_c, 4, 63, 0
6, 44160, Note_on_c, 4, 64, 80
6, 44640, Note_on_c, 4, 64, 0
6, 44640, Note_on_c, 4, 65, 80
6, 45120, Note_on_c, 4, 65, 0
6, 45120, Note_on_c, 4, 66, 80
6, 45600, Note_on_c, 4, 66, 0
6, 45600, Note_on_c, 4, 67, 80
6, 45984, Note_on_c, 4, 67, 0
6, 46080, Note_on_c, 4, 58, 80
6, 47040, Note_on_c, 4, 58, 0
6, 47040, Note_on_c, 4, 57, 80
6, 47280, Note_on_c, 4, 57, 0
6, 47280, Note_on_c, 4, 58, 80
6, 47520, Note_on_c, 4, 58, 0
6, 47520, Note_on_c, 4, 60, 80
6, 47760, Note_on_c, 4, 60, 0
6, 47760, Note_on_c, 4, 62, 80
6, 48000, Note_on_c, 4, 62, 0
6, 48000, Note_on_c, 4, 63, 70
6, 48384, Note_on_c, 4, 63, 0
6, 48960, Note_on_c, 4, 69, 70
6, 49200, Note_on_c, 4, 69, 0
6, 49200, Note_on_c, 4, 70, 70
6, 49440, Note_on_c, 4, 70, 0
6, 49440, Note_on_c, 4, 72, 70
6, 49680, Note_on_c, 4, 72, 0
6, 49680, Note_on_c, 4, 74, 70
6, 49920, Note_on_c, 4, 74, 0
6, 49920, Note_on_c, 4, 75, 58
6, 50304, Note_on_c, 4, 75, 0
6, 50880, Note_on_c, 4, 75, 105
6, 51036, Note_on_c, 4, 75, 0
6, 51120, Note_on_c, 4, 74, 105
6, 51276, Note_on_c, 4, 74, 0
6, 51360, Note_on_c, 4, 72, 105
6, 51516, Note_on_c, 4, 72, 0
6, 51600, Note_on_c, 4, 70, 105
6, 51756, Note_on_c, 4, 70, 0
6, 51840, Note_on_c, 4, 69, 105
6, 52080, Note_on_c, 4, 69, 0
6, 52080, Note_on_c, 4, 70, 105
6, 52236, Note_on_c, 4, 70, 0
6, 52320, Note_on_c, 4, 69, 105
6, 52476, Note_on_c, 4, 69, 0
6, 52560, Note_on_c, 4, 67, 105
6, 52716, Note_on_c, 4, 67, 0
6, 52800, Note_on_c, 4, 65, 105
6, 52956, Note_on_c, 4, 65, 0
6, 53040, Note_on_c, 4, 63, 105
6, 53196, Note_on_c, 4, 63, 0
6, 53280, Note_on_c, 4, 62, 105
6, 53436, Note_on_c, 4, 62, 0
6, 53520, Note_on_c, 4, 60, 105
6, 53676, Note_on_c, 4, 60, 0
6, 53760, Note_on_c, 4, 58, 105
6, 54072, Note_on_c, 4, 58, 0
6, 54240, Note_on_c, 4, 70, 105
6, 54552, Note_on_c, 4, 70, 0
6, 54720, Note_on_c, 4, 79, 116
6, 55296, Note_on_c, 4, 79, 0
6, 55440, Note_on_c, 4, 77, 116
6, 55632, Note_on_c, 4, 77, 0
6, 55680, Note_on_c, 4, 76, 116
6, 55920, Note_on_c, 4, 76, 0
6, 56160, Note_on_c, 4, 77, 116
6, 56400, Note_on_c, 4, 77, 0
6, 56640, Note_on_c, 4, 75, 116
6, 57216, Note_on_c, 4, 75, 0
6, 57360, Note_on_c, 4, 74, 116
6, 57552, Note_on_c, 4, 74, 0
6, 57600, Note_on_c, 4, 73, 116
6, 57840, Note_on_c, 4, 73, 0
6, 58080, Note_on_c, 4, 74, 116
6, 58320, Note_on_c, 4, 74, 0
6, 58560, Note_on_c, 4, 72, 116
6, 59136, Note_on_c, 4, 72, 0
6, 59280, Note_on_c, 4, 70, 116
6, 59472, Note_on_c, 4, 70, 0
6, 59520, Note_on_c, 4, 69, 116
6, 59760, Note_on_c, 4, 69, 0
6, 60000, Note_on_c, 4, 70, 116
6, 60240, Note_on_c, 4, 70, 0
6, 60480, Note_on_c, 4, 75, 116
6, 61056, Note_on_c, 4, 75, 0
6, 61200, Note_on_c, 4, 75, 116
6, 61392, Note_on_c, 4, 75, 0
6, 61440, Note_on_c, 4, 81, 116
6, 62016, Note_on_c, 4, 81, 0
6, 62160, Note_on_c, 4, 81, 116
6, 62352, Note_on_c, 4, 81, 0
6, 62400, Note_on_c, 4, 87, 116
6, 62976, Note_on_c, 4, 87, 0
6, 63120, Note_on_c, 4, 87, 116
6, 63312, Note_on_c, 4, 87, 0
6, 63360, Note_on_c, 4, 86, 105
6, 63552, Note_on_c, 4, 86, 0
6, 63600, Note_on_c, 4, 84, 105
6, 63792, Note_on_c, 4, 84, 0
6, 63840, Note_on_c, 4, 82, 105
6, 64032, Note_on_c, 4, 82, 0
6, 64080, Note_on_c, 4, 81, 105
6, 64272, Note_on_c, 4, 81, 0
6, 64320, Note_on_c, 4, 79, 105
6, 64512, Note_on_c, 4, 79, 0
6, 64560, Note_on_c, 4, 77, 105
6, 64752, Note_on_c, 4, 77, 0
6, 64800, Note_on_c, 4, 75, 105
6, 64992, Note_on_c, 4, 75, 0
6, 65040, Note_on_c, 4, 74, 105
6, 65232, Note_on_c, 4, 74, 0
6, 65280, Note_on_c, 4, 72, 105
6, 65592, Note_on_c, 4, 72, 0
6, 65760, Note_on_c, 4, 79, 105
6, 66072, Note_on_c, 4, 79, 0
6, 66240, Note_on_c, 4, 77, 105
6, 66552, Note_on_c, 4, 77, 0
6, 66720, Note_on_c, 4, 81, 105
6, 67032, Note_on_c, 4, 81, 0
6, 67200, Note_on_c, 4, 82, 105
6, 67512, Note_on_c, 4, 82, 0
6, 67680, Note_on_c, 4, 65, 105
6, 67992, Note_on_c, 4, 65, 0
6, 68160, Note_on_c, 4, 74, 105
6, 68736, Note_on_c, 4, 74, 0
6, 68880, Note_on_c, 4, 72, 105
6, 69072, Note_on_c, 4, 72, 0
6, 69120, Note_on_c, 4, 70, 105
6, 69408, Note_on_c, 4, 70, 0
6, 69600, Note_on_c, 4, 65, 105
6, 69888, Note_on_c, 4, 65, 0
6, 70080, Note_on_c, 4, 62, 105
6, 70368, Note_on_c, 4, 62, 0
6, 70560, Note_on_c, 4, 58, 105
6, 70848, Note_on_c, 4, 58, 0
6, 71040, Note_on_c, 4, 65, 92
6, 71352, Note_on_c, 4, 65, 0
6, 74880, Note_on_c, 4, 77, 70
6, 75192, Note_on_c, 4, 77, 0
6, 75360, Note_on_c, 4, 72, 70
6, 75672, Note_on_c, 4, 72, 0
6, 75840, Note_on_c, 4, 81, 70
6, 76416, Note_on_c, 4, 81, 0
6, 76560, Note_on_c, 4, 79, 70
6, 76752, Note_on_c, 4, 79, 0
6, 76800, Note_on_c, 4, 77, 70
6, 77112, Note_on_c, 4, 77, 0
6, 77280, Note_on_c, 4, 84, 70
6, 77592, Note_on_c, 4, 84, 0
6, 77760, Note_on_c, 4, 81, 70
6, 78072, Note_on_c, 4, 81, 0
6, 78240, Note_on_c, 4, 77, 70
6, 78552, Note_on_c, 4, 77, 0
6, 78720, Note_on_c, 4, 82, 80
6, 79104, Note_on_c, 4, 82, 0
6, 79440, Note_on_c, 4, 77, 80
6, 79632, Note_on_c, 4, 77, 0
6, 79680, Note_on_c, 4, 74, 80
6, 80400, Note_on_c, 4, 74, 0
6, 80400, Note_on_c, 4, 75, 80
6, 80592, Note_on_c, 4, 75, 0
6, 80640, Note_on_c, 4, 72, 80
6, 81360, Note_on_c, 4, 72, 0
6, 81360, Note_on_c, 4, 74, 80
6, 81552, Note_on_c, 4, 74, 0
6, 81600, Note_on_c, 4, 75, 80
6, 82320, Note_on_c, 4, 75, 0
6, 82320, Note_on_c, 4, 77, 80
6, 82512, Note_on_c, 4, 77, 0
6, 82560, Note_on_c, 4, 74, 80
6, 83280, Note_on_c, 4, 74, 0
6, 83280, Note_on_c, 4, 77, 80
6, 83472, Note_on_c, 4, 77, 0
6, 83520, Note_on_c, 4, 82, 80
6, 84240, Note_on_c, 4, 82, 0
6, 84240, Note_on_c, 4, 86, 80
6, 84432, Note_on_c, 4, 86, 0
6, 84480, Note_on_c, 4, 84, 80
6, 85200, Note_on_c, 4, 84, 0
6, 85200, Note_on_c, 4, 87, 80
6, 85392, Note_on_c, 4, 87, 0
6, 85440, Note_on_c, 4, 77, 80
6, 86160, Note_on_c, 4, 77, 0
6, 86160, Note_on_c, 4, 81, 80
6, 86352, Note_on_c, 4, 81, 0
6, 86400, Note_on_c, 4, 82, 80
6, 86784, Note_on_c, 4, 82, 0
6, 87120, Note_on_c, 4, 77, 80
6, 87312, Note_on_c, 4, 77, 0
6, 87360, Note_on_c, 4, 74, 80
6, 88080, Note_on_c, 4, 74, 0
6, 88080, Note_on_c, 4, 75, 80
6, 88272, Note_on_c, 4, 75, 0
6, 88320, Note_on_c, 4, 72, 80
6, 89040, Note_on_c, 4, 72, 0
6, 89040, Note_on_c, 4, 74, 80
6, 89232, Note_on_c, 4, 74, 0
6, 89280, Note_on_c, 4, 75, 80
6, 90000, Note_on_c, 4, 75, 0
6, 90000, Note_on_c, 4, 77, 80
6, 90192, Note_on_c, 4, 77, 0
6, 90240, Note_on_c, 4, 74, 80
6, 90960, Note_on_c, 4, 74, 0
6, 90960, Note_on_c, 4, 77, 80
6, 91152, Note_on_c, 4, 77, 0
6, 91200, Note_on_c, 4, 82, 80
6, 91920, Note_on_c, 4, 82, 0
6, 91920, Note_on_c, 4, 86, 80
6, 92112, Note_on_c, 4, 86, 0
6, 92160, Note_on_c, 4, 84, 80
6, 92880, Note_on_c, 4, 84, 0
6, 92880, Note_on_c, 4, 87, 80
6, 93072, Note_on_c, 4, 87, 0
6, 93120, Note_on_c, 4, 77, 80
6, 93840, Note_on_c, 4, 77, 0
6, 93840, Note_on_c, 4, 81, 80
6, 94032, Note_on_c, 4, 81, 0
6, 94080, Note_on_c, 4, 82, 80
6, 94272, Note_on_c, 4, 82, 0
6, 94320, Note_on_c, 4, 77, 105
6, 94704, Note_on_c, 4, 77, 0
6, 94800, Note_on_c, 4, 77, 105
6, 95184, Note_on_c, 4, 77, 0
6, 95280, Note_on_c, 4, 77, 105
6, 95664, Note_on_c, 4, 77, 0
6, 95760, Note_on_c, 4, 77, 105
6, 96192, Note_on_c, 4, 77, 0
6, 96240, Note_on_c, 4, 77, 105
6, 96624, Note_on_c, 4, 77, 0
6, 96720, Note_on_c, 4, 77, 105
6, 97104, Note_on_c, 4, 77, 0
6, 97200, Note_on_c, 4, 77, 105
6, 97584, Note_on_c, 4, 77, 0
6, 97680, Note_on_c, 4, 77, 105
6, 98112, Note_on_c, 4, 77, 0
6, 98160, Note_on_c, 4, 77, 105
6, 98544, Note_on_c, 4, 77, 0
6, 98640, Note_on_c, 4, 77, 105
6, 99024, Note_on_c, 4, 77, 0
6, 99120, Note_on_c, 4, 77, 105
6, 99504, Note_on_c, 4, 77, 0
6, 99600, Note_on_c, 4, 77, 105
6, 100032, Note_on_c, 4, 77, 0
6, 100080, Note_on_c, 4, 77, 105
6, 100464, Note_on_c, 4, 77, 0
6, 100560, Note_on_c, 4, 77, 105
6, 100944, Note_on_c, 4, 77, 0
6, 101040, Note_on_c, 4, 77, 105
6, 101424, Note_on_c, 4, 77, 0
6, 101520, Note_on_c, 4, 77, 105
6, 101712, Note_on_c, 4, 77, 0
6, 101760, Note_on_c, 4, 80, 105
6, 101952, Note_on_c, 4, 80, 0
6, 102000, Note_on_c, 4, 80, 105
6, 102384, Note_on_c, 4, 80, 0
6, 102480, Note_on_c, 4, 80, 105
6, 102864, Note_on_c, 4, 80, 0
6, 102960, Note_on_c, 4, 80, 105
6, 103344, Note_on_c, 4, 80, 0
6, 103440, Note_on_c, 4, 80, 105
6, 103632, Note_on_c, 4, 80, 0
6, 103680, Note_on_c, 4, 79, 105
6, 103872, Note_on_c, 4, 79, 0
6, 103920, Note_on_c, 4, 79, 105
6, 104304, Note_on_c, 4, 79, 0
6, 104400, Note_on_c, 4, 79, 105
6, 104592, Note_on_c, 4, 79, 0
6, 104640, Note_on_c, 4, 76, 105
6, 104832, Note_on_c, 4, 76, 0
6, 104880, Note_on_c, 4, 76, 105
6, 105264, Note_on_c, 4, 76, 0
6, 105360, Note_on_c, 4, 76, 105
6, 105552, Note_on_c, 4, 76, 0
6, 105600, Note_on_c, 4, 77, 105
6, 105792, Note_on_c, 4, 77, 0
6, 105840, Note_on_c, 4, 77, 105
6, 106224, Note_on_c, 4, 77, 0
6, 106320, Note_on_c, 4, 77, 105
6, 106512, Note_on_c, 4, 77, 0
6, 106560, Note_on_c, 4, 75, 105
6, 106752, Note_on_c, 4, 75, 0
6, 106800, Note_on_c, 4, 75, 105
6, 107184, Note_on_c, 4, 75, 0
6, 107280, Note_on_c, 4, 75, 105
6, 107472, Note_on_c, 4, 75, 0
6, 107520, Note_on_c, 4, 70, 105
6, 107832, Note_on_c, 4, 70, 0
6, 108000, Note_on_c, 4, 82, 105
6, 108312, Note_on_c, 4, 82, 0
6, 108480, Note_on_c, 4, 79, 105
6, 108792, Note_on_c, 4, 79, 0
6, 108960, Note_on_c, 4, 69, 105
6, 109272, Note_on_c, 4, 69, 0
6, 109440, Note_on_c, 4, 80, 105
6, 109632, Note_on_c, 4, 80, 0
6, 109680, Note_on_c, 4, 80, 105
6, 110064, Note_on_c, 4, 80, 0
6, 110160, Note_on_c, 4, 80, 105
6, 110544, Note_on_c, 4, 80, 0
6, 110640, Note_on_c, 4, 80, 105
6, 111024, Note_on_c, 4, 80, 0
6, 111120, Note_on_c, 4, 80, 105
6, 111312, Note_on_c, 4, 80, 0
6, 111360, Note_on_c, 4, 79, 105
6, 111552, Note_on_c, 4, 79, 0
6, 111600, Note_on_c, 4, 79, 105
6, 111984, Note_on_c, 4, 79, 0
6, 112080, Note_on_c, 4, 79, 105
6, 112272, Note_on_c, 4, 79, 0
6, 112320, Note_on_c, 4, 76, 105
6, 112512, Note_on_c, 4, 76, 0
6, 112560, Note_on_c, 4, 76, 105
6, 112944, Note_on_c, 4, 76, 0
6, 113040, Note_on_c, 4, 76, 105
6, 113232, Note_on_c, 4, 76, 0
6, 113280, Note_on_c, 4, 77, 105
6, 113472, Note_on_c, 4, 77, 0
6, 113520, Note_on_c, 4, 77, 105
6, 113904, Note_on_c, 4, 77, 0
6, 114000, Note_on_c, 4, 77, 105
6, 114192, Note_on_c, 4, 77, 0
6, 114240, Note_on_c, 4, 87, 105
6, 114432, Note_on_c, 4, 87, 0
6, 114480, Note_on_c, 4, 87, 105
6, 114864, Note_on_c, 4, 87, 0
6, 114960, Note_on_c, 4, 87, 105
6, 115152, Note_on_c, 4, 87, 0
6, 115200, Note_on_c, 4, 86, 105
6, 115488, Note_on_c, 4, 86, 0
6, 115680, Note_on_c, 4, 82, 105
6, 115968, Note_on_c, 4, 82, 0
6, 116160, Note_on_c, 4, 72, 105
6, 116448, Note_on_c, 4, 72, 0
6, 116640, Note_on_c, 4, 81, 105
6, 116928, Note_on_c, 4, 81, 0
6, 117120, Note_on_c, 4, 82, 105
6, 117432, Note_on_c, 4, 82, 0
6, 117600, Note_on_c, 4, 58, 105
6, 117912, Note_on_c, 4, 58, 0
6, 118080, Note_on_c, 4, 74, 105
6, 118656, Note_on_c, 4, 74, 0
6, 118800, Note_on_c, 4, 72, 105
6, 118992, Note_on_c, 4, 72, 0
6, 119040, Note_on_c, 4, 70, 105
6, 119616, Note_on_c, 4, 70, 0
6, 119760, Note_on_c, 4, 69, 105
6, 119952, Note_on_c, 4, 69, 0
6, 120000, Note_on_c, 4, 67, 105
6, 120576, Note_on_c, 4, 67, 0
6, 120720, Note_on_c, 4, 65, 105
6, 120912, Note_on_c, 4, 65, 0
6, 120960, Note_on_c, 4, 63, 105
6, 121272, Note_on_c, 4, 63, 0
6, 121440, Note_on_c, 4, 69, 116
6, 121632, Note_on_c, 4, 69, 0
6, 121680, Note_on_c, 4, 70, 116
6, 121872, Note_on_c, 4, 70, 0
6, 121920, Note_on_c, 4, 72, 116
6, 122112, Note_on_c, 4, 72, 0
6, 122160, Note_on_c, 4, 74, 116
6, 122352, Note_on_c, 4, 74, 0
6, 122400, Note_on_c, 4, 75, 116
6, 122592, Note_on_c, 4, 75, 0
6, 122640, Note_on_c, 4, 74, 116
6, 122832, Note_on_c, 4, 74, 0
6, 122880, Note_on_c, 4, 75, 116
6, 123192, Note_on_c, 4, 75, 0
6, 123360, Note_on_c, 4, 69, 116
6, 123552, Note_on_c, 4, 69, 0
6, 123600, Note_on_c, 4, 70, 116
6, 123792, Note_on_c, 4, 70, 0
6, 123840, Note_on_c, 4, 72, 116
6, 124032, Note_on_c, 4, 72, 0
6, 124080, Note_on_c, 4, 74, 116
6, 124272, Note_on_c, 4, 74, 0
6, 124320, Note_on_c, 4, 75, 116
6, 124512, Note_on_c, 4, 75, 0
6, 124560, Note_on_c, 4, 74, 116
6, 124752, Note_on_c, 4, 74, 0
6, 124800, Note_on_c, 4, 75, 116
6, 125112, Note_on_c, 4, 75, 0
6, 125280, Note_on_c, 4, 69, 116
6, 125472, Note_on_c, 4, 69, 0
6, 125520, Note_on_c, 4, 70, 116
6, 125712, Note_on_c, 4, 70, 0
6, 125760, Note_on_c, 4, 72, 116
6, 125952, Note_on_c, 4, 72, 0
6, 126000, Note_on_c, 4, 74, 116
6, 126192, Note_on_c, 4, 74, 0
6, 126240, Note_on_c, 4, 75, 116
6, 126432, Note_on_c, 4, 75, 0
6, 126480, Note_on_c, 4, 74, 116
6, 126672, Note_on_c, 4, 74, 0
6, 126720, Note_on_c, 4, 75, 116
6, 127032, Note_on_c, 4, 75, 0
6, 127200, Note_on_c, 4, 74, 116
6, 127512, Note_on_c, 4, 74, 0
6, 127680, Note_on_c, 4, 79, 116
6, 127992, Note_on_c, 4, 79, 0
6, 128160, Note_on_c, 4, 69, 116
6, 128472, Note_on_c, 4, 69, 0
6, 128640, Note_on_c, 4, 70, 110
6, 128952, Note_on_c, 4, 70, 0
6, 129120, Note_on_c, 4, 69, 70
6, 129312, Note_on_c, 4, 69, 0
6, 129360, Note_on_c, 4, 70, 70
6, 129552, Note_on_c, 4, 70, 0
6, 129600, Note_on_c, 4, 72, 70
6, 129792, Note_on_c, 4, 72, 0
6, 129840, Note_on_c, 4, 74, 70
6, 130032, Note_on_c, 4, 74, 0
6, 130080, Note_on_c, 4, 75, 70
6, 130272, Note_on_c, 4, 75, 0
6, 130320, Note_on_c, 4, 74, 70
6, 130512, Note_on_c, 4, 74, 0
6, 130560, Note_on_c, 4, 75, 70
6, 130872, Note_on_c, 4, 75, 0
6, 131040, Note_on_c, 4, 69, 70
6, 131232, Note_on_c, 4, 69, 0
6, 131280, Note_on_c, 4, 70, 70
6, 131472, Note_on_c, 4, 70, 0
6, 131520, Note_on_c, 4, 72, 70
6, 131712, Note_on_c, 4, 72, 0
6, 131760, Note_on_c, 4, 74, 70
6, 131952, Note_on_c, 4, 74, 0
6, 132000, Note_on_c, 4, 75, 70
6, 132192, Note_on_c, 4, 75, 0
6, 132240, Note_on_c, 4, 74, 70
6, 132432, Note_on_c, 4, 74, 0
6, 132480, Note_on_c, 4, 75, 70
6, 132792, Note_on_c, 4, 75, 0
6, 132960, Note_on_c, 4, 81, 127
6, 133152, Note_on_c, 4, 81, 0
6, 133200, Note_on_c, 4, 82, 116
6, 133392, Note_on_c, 4, 82, 0
6, 133440, Note_on_c, 4, 84, 116
6, 133632, Note_on_c, 4, 84, 0
6, 133680, Note_on_c, 4, 86, 116
6, 133872, Note_on_c, 4, 86, 0
6, 133920, Note_on_c, 4, 87, 116
6, 134112, Note_on_c, 4, 87, 0
6, 134160, Note_on_c, 4, 86, 116
6, 134352, Note_on_c, 4, 86, 0
6, 134400, Note_on_c, 4, 87, 116
6, 134712, Note_on_c, 4, 87, 0
6, 134880, Note_on_c, 4, 86, 116
6, 135192, Note_on_c, 4, 86, 0
6, 135360, Note_on_c, 4, 84, 116
6, 135672, Note_on_c, 4, 84, 0
6, 135840, Note_on_c, 4, 72, 116
6, 135840, Note_on_c, 4, 81, 116
6, 136152, Note_on_c, 4, 81, 0
6, 136152, Note_on_c, 4, 72, 0
6, 136320, Note_on_c, 4, 82, 116
6, 136320, Note_on_c, 4, 70, 116
6, 136632, Note_on_c, 4, 70, 0
6, 136632, Note_on_c, 4, 82, 0
6, 136800, Note_on_c, 4, 58, 116
6, 137112, Note_on_c, 4, 58, 0
6, 137280, Note_on_c, 4, 74, 116
6, 137856, Note_on_c, 4, 74, 0
6, 138000, Note_on_c, 4, 72, 116
6, 138192, Note_on_c, 4, 72, 0
6, 138240, Note_on_c, 4, 70, 116
6, 138552, Note_on_c, 4, 70, 0
6, 138720, Note_on_c, 4, 58, 116
6, 139032, Note_on_c, 4, 58, 0
6, 139200, Note_on_c, 4, 74, 116
6, 139776, Note_on_c, 4, 74, 0
6, 139920, Note_on_c, 4, 72, 116
6, 140112, Note_on_c, 4, 72, 0
6, 140160, Note_on_c, 4, 70, 110
6, 140928, Note_on_c, 4, 70, 0
6, 141120, Note_on_c, 4, 58, 70
6, 142080, Note_on_c, 4, 58, 0
6, 142080, Note_on_c, 4, 60, 70
6, 143040, Note_on_c, 4, 60, 0
6, 143040, Note_on_c, 4, 61, 70
6, 144000, Note_on_c, 4, 61, 0
6, 144000, Note_on_c, 4, 62, 70
6, 144720, Note_on_c, 4, 62, 0
6, 144960, Note_on_c, 4, 74, 70
6, 146280, Note_on_c, 4, 74, 0
6, 146400, Note_on_c, 4, 75, 70
6, 146580, Note_on_c, 4, 75, 0
6, 146640, Note_on_c, 4, 72, 70
6, 146820, Note_on_c, 4, 72, 0
6, 146880, Note_on_c, 4, 70, 70
6, 147240, Note_on_c, 4, 70, 0
6, 147360, Note_on_c, 4, 72, 70
6, 147540, Note_on_c, 4, 72, 0
6, 147600, Note_on_c, 4, 69, 70
6, 147780, Note_on_c, 4, 69, 0
6, 147840, Note_on_c, 4, 67, 58
6, 148152, Note_on_c, 4, 67, 0
6, 148320, Note_on_c, 4, 62, 58
6, 148632, Note_on_c, 4, 62, 0
6, 148800, Note_on_c, 4, 70, 58
6, 149340, Note_on_c, 4, 70, 0
6, 149520, Note_on_c, 4, 69, 58
6, 149676, Note_on_c, 4, 69, 0
6, 149760, Note_on_c, 4, 67, 58
6, 150072, Note_on_c, 4, 67, 0
6, 150240, Note_on_c, 4, 70, 58
6, 150720, Note_on_c, 4, 70, 0
6, 150720, Note_on_c, 4, 69, 58
6, 151200, Note_on_c, 4, 69, 0
6, 151200, Note_on_c, 4, 67, 58
6, 151656, Note_on_c, 4, 67, 0
6, 151680, Note_on_c, 4, 66, 58
6, 151992, Note_on_c, 4, 66, 0
6, 152160, Note_on_c, 4, 62, 58
6, 152472, Note_on_c, 4, 62, 0
6, 152640, Note_on_c, 4, 72, 58
6, 153180, Note_on_c, 4, 72, 0
6, 153360, Note_on_c, 4, 70, 58
6, 153516, Note_on_c, 4, 70, 0
6, 153600, Note_on_c, 4, 69, 58
6, 153912, Note_on_c, 4, 69, 0
6, 154080, Note_on_c, 4, 72, 58
6, 154560, Note_on_c, 4, 72, 0
6, 154560, Note_on_c, 4, 70, 58
6, 155040, Note_on_c, 4, 70, 0
6, 155040, Note_on_c, 4, 69, 58
6, 155496, Note_on_c, 4, 69, 0
6, 155520, Note_on_c, 4, 67, 58
6, 155832, Note_on_c, 4, 67, 0
6, 156000, Note_on_c, 4, 70, 58
6, 156312, Note_on_c, 4, 70, 0
6, 156480, Note_on_c, 4, 75, 58
6, 156984, Note_on_c, 4, 75, 0
6, 157200, Note_on_c, 4, 74, 58
6, 157356, Note_on_c, 4, 74, 0
6, 157440, Note_on_c, 4, 72, 58
6, 157752, Note_on_c, 4, 72, 0
6, 157920, Note_on_c, 4, 69, 58
6, 158232, Note_on_c, 4, 69, 0
6, 158400, Note_on_c, 4, 74, 58
6, 158904, Note_on_c, 4, 74, 0
6, 159120, Note_on_c, 4, 72, 58
6, 159276, Note_on_c, 4, 72, 0
6, 159360, Note_on_c, 4, 70, 58
6, 159672, Note_on_c, 4, 70, 0
6, 159840, Note_on_c, 4, 67, 58
6, 160152, Note_on_c, 4, 67, 0
6, 160320, Note_on_c, 4, 63, 58
6, 160632, Note_on_c, 4, 63, 0
6, 160800, Note_on_c, 4, 61, 58
6, 161112, Note_on_c, 4, 61, 0
6, 161280, Note_on_c, 4, 62, 58
6, 161592, Note_on_c, 4, 62, 0
6, 161760, Note_on_c, 4, 72, 58
6, 162240, Note_on_c, 4, 72, 0
6, 162240, Note_on_c, 4, 70, 58
6, 162720, Note_on_c, 4, 70, 0
6, 162720, Note_on_c, 4, 69, 58
6, 163032, Note_on_c, 4, 69, 0
6, 163200, Note_on_c, 4, 67, 105
6, 163392, Note_on_c, 4, 67, 0
6, 163440, Note_on_c, 4, 74, 105
6, 163824, Note_on_c, 4, 74, 0
6, 163920, Note_on_c, 4, 74, 105
6, 164304, Note_on_c, 4, 74, 0
6, 164400, Note_on_c, 4, 74, 105
6, 164784, Note_on_c, 4, 74, 0
6, 164880, Note_on_c, 4, 74, 105
6, 165504, Note_on_c, 4, 74, 0
6, 165600, Note_on_c, 4, 79, 105
6, 166080, Note_on_c, 4, 79, 0
6, 166080, Note_on_c, 4, 78, 105
6, 166560, Note_on_c, 4, 78, 0
6, 166560, Note_on_c, 4, 79, 105
6, 166944, Note_on_c, 4, 79, 0
6, 167040, Note_on_c, 4, 81, 105
6, 167232, Note_on_c, 4, 81, 0
6, 167280, Note_on_c, 4, 74, 105
6, 167664, Note_on_c, 4, 74, 0
6, 167760, Note_on_c, 4, 74, 105
6, 168144, Note_on_c, 4, 74, 0
6, 168240, Note_on_c, 4, 74, 105
6, 168624, Note_on_c, 4, 74, 0
6, 168720, Note_on_c, 4, 74, 105
6, 169344, Note_on_c, 4, 74, 0
6, 169440, Note_on_c, 4, 81, 105
6, 169920, Note_on_c, 4, 81, 0
6, 169920, Note_on_c, 4, 79, 105
6, 170400, Note_on_c, 4, 79, 0
6, 170400, Note_on_c, 4, 81, 105
6, 170784, Note_on_c, 4, 81, 0
6, 170880, Note_on_c, 4, 82, 105
6, 171072, Note_on_c, 4, 82, 0
6, 171120, Note_on_c, 4, 79, 105
6, 171504, Note_on_c, 4, 79, 0
6, 171600, Note_on_c, 4, 79, 105
6, 171984, Note_on_c, 4, 79, 0
6, 172080, Note_on_c, 4, 79, 105
6, 172464, Note_on_c, 4, 79, 0
6, 172560, Note_on_c, 4, 79, 105
6, 172752, Note_on_c, 4, 79, 0
6, 172800, Note_on_c, 4, 87, 105
6, 172992, Note_on_c, 4, 87, 0
6, 173040, Note_on_c, 4, 87, 105
6, 173424, Note_on_c, 4, 87, 0
6, 173520, Note_on_c, 4, 87, 105
6, 173712, Note_on_c, 4, 87, 0
6, 173760, Note_on_c, 4, 78, 105
6, 173952, Note_on_c, 4, 78, 0
6, 174000, Note_on_c, 4, 78, 105
6, 174384, Note_on_c, 4, 78, 0
6, 174480, Note_on_c, 4, 78, 105
6, 174672, Note_on_c, 4, 78, 0
6, 174720, Note_on_c, 4, 79, 105
6, 175032, Note_on_c, 4, 79, 0
6, 175200, Note_on_c, 4, 70, 105
6, 175512, Note_on_c, 4, 70, 0
6, 175680, Note_on_c, 4, 69, 105
6, 175992, Note_on_c, 4, 69, 0
6, 176160, Note_on_c, 4, 78, 105
6, 176472, Note_on_c, 4, 78, 0
6, 176640, Note_on_c, 4, 79, 105
6, 176952, Note_on_c, 4, 79, 0
6, 177120, Note_on_c, 4, 67, 105
6, 177432, Note_on_c, 4, 67, 0
6, 178080, Note_on_c, 4, 70, 80
6, 178320, Note_on_c, 4, 70, 0
6, 178320, Note_on_c, 4, 67, 80
6, 178512, Note_on_c, 4, 67, 0
6, 178560, Note_on_c, 4, 75, 80
6, 178896, Note_on_c, 4, 75, 0
6, 179040, Note_on_c, 4, 75, 80
6, 179376, Note_on_c, 4, 75, 0
6, 179520, Note_on_c, 4, 75, 80
6, 179856, Note_on_c, 4, 75, 0
6, 180000, Note_on_c, 4, 75, 80
6, 180336, Note_on_c, 4, 75, 0
6, 180480, Note_on_c, 4, 75, 80
6, 181440, Note_on_c, 4, 75, 0
6, 181440, Note_on_c, 4, 74, 80
6, 181776, Note_on_c, 4, 74, 0
6, 181920, Note_on_c, 4, 75, 80
6, 182256, Note_on_c, 4, 75, 0
6, 182400, Note_on_c, 4, 76, 80
6, 182880, Note_on_c, 4, 76, 0
6, 182880, Note_on_c, 4, 77, 80
6, 183360, Note_on_c, 4, 77, 0
6, 183360, Note_on_c, 4, 78, 80
6, 183840, Note_on_c, 4, 78, 0
6, 183840, Note_on_c, 4, 79, 80
6, 184224, Note_on_c, 4, 79, 0
6, 184320, Note_on_c, 4, 70, 80
6, 185280, Note_on_c, 4, 70, 0
6, 185280, Note_on_c, 4, 69, 80
6, 185664, Note_on_c, 4, 69, 0
6, 185760, Note_on_c, 4, 58, 80
6, 186000, Note_on_c, 4, 58, 0
6, 186000, Note_on_c, 4, 55, 80
6, 186192, Note_on_c, 4, 55, 0
6, 186240, Note_on_c, 4, 63, 80
6, 186600, Note_on_c, 4, 63, 0
6, 186720, Note_on_c, 4, 63, 80
6, 187080, Note_on_c, 4, 63, 0
6, 187200, Note_on_c, 4, 63, 80
6, 187560, Note_on_c, 4, 63, 0
6, 187680, Note_on_c, 4, 63, 80
6, 188040, Note_on_c, 4, 63, 0
6, 188160, Note_on_c, 4, 63, 80
6, 189120, Note_on_c, 4, 63, 0
6, 189120, Note_on_c, 4, 62, 80
6, 189528, Note_on_c, 4, 62, 0
6, 189600, Note_on_c, 4, 63, 80
6, 190008, Note_on_c, 4, 63, 0
6, 190080, Note_on_c, 4, 64, 80
6, 190560, Note_on_c, 4, 64, 0
6, 190560, Note_on_c, 4, 65, 80
6, 191040, Note_on_c, 4, 65, 0
6, 191040, Note_on_c, 4, 66, 80
6, 191520, Note_on_c, 4, 66, 0
6, 191520, Note_on_c, 4, 67, 80
6, 191904, Note_on_c, 4, 67, 0
6, 192000, Note_on_c, 4, 58, 80
6, 192960, Note_on_c, 4, 58, 0
6, 192960, Note_on_c, 4, 57, 80
6, 193200, Note_on_c, 4, 57, 0
6, 193200, Note_on_c, 4, 58, 80
6, 193440, Note_on_c, 4, 58, 0
6, 193440, Note_on_c, 4, 60, 80
6, 193680, Note_on_c, 4, 60, 0
6, 193680, Note_on_c, 4, 62, 80
6, 193920, Note_on_c, 4, 62, 0
6, 193920, Note_on_c, 4, 63, 70
6, 194304, Note_on_c, 4, 63, 0
6, 194880, Note_on_c, 4, 69, 70
6, 195120, Note_on_c, 4, 69, 0
6, 195120, Note_on_c, 4, 70, 70
6, 195360, Note_on_c, 4, 70, 0
6, 195360, Note_on_c, 4, 72, 70
6, 195600, Note_on_c, 4, 72, 0
6, 195600, Note_on_c, 4, 74, 70
6, 195840, Note_on_c, 4, 74, 0
6, 195840, Note_on_c, 4, 75, 58
6, 196224, Note_on_c, 4, 75, 0
6, 196800, Note_on_c, 4, 75, 105
6, 196956, Note_on_c, 4, 75, 0
6, 197040, Note_on_c, 4, 74, 105
6, 197196, Note_on_c, 4, 74, 0
6, 197280, Note_on_c, 4, 72, 105
6, 197436, Note_on_c, 4, 72, 0
6, 197520, Note_on_c, 4, 70, 105
6, 197676, Note_on_c, 4, 70, 0
6, 197760, Note_on_c, 4, 69, 105
6, 198000, Note_on_c, 4, 69, 0
6, 198000, Note_on_c, 4, 70, 105
6, 198156, Note_on_c, 4, 70, 0
6, 198240, Note_on_c, 4, 69, 105
6, 198396, Note_on_c, 4, 69, 0
6, 198480, Note_on_c, 4, 67, 105
6, 198636, Note_on_c, 4, 67, 0
6, 198720, Note_on_c, 4, 65, 105
6, 198876, Note_on_c, 4, 65, 0
6, 198960, Note_on_c, 4, 63, 105
6, 199116, Note_on_c, 4, 63, 0
6, 199200, Note_on_c, 4, 62, 105
6, 199356, Note_on_c, 4, 62, 0
6, 199440, Note_on_c, 4, 60, 105
6, 199596, Note_on_c, 4, 60, 0
6, 199680, Note_on_c, 4, 58, 105
6, 199992, Note_on_c, 4, 58, 0
6, 200160, Note_on_c, 4, 70, 105
6, 200472, Note_on_c, 4, 70, 0
6, 200640, Note_on_c, 4, 79, 116
6, 201216, Note_on_c, 4, 79, 0
6, 201360, Note_on_c, 4, 77, 116
6, 201552, Note_on_c, 4, 77, 0
6, 201600, Note_on_c, 4, 76, 116
6, 201840, Note_on_c, 4, 76, 0
6, 202080, Note_on_c, 4, 77, 116
6, 202320, Note_on_c, 4, 77, 0
6, 202560, Note_on_c, 4, 75, 116
6, 203136, Note_on_c, 4, 75, 0
6, 203280, Note_on_c, 4, 74, 116
6, 203472, Note_on_c, 4, 74, 0
6, 203520, Note_on_c, 4, 73, 116
6, 203760, Note_on_c, 4, 73, 0
6, 204000, Note_on_c, 4, 74, 116
6, 204240, Note_on_c, 4, 74, 0
6, 204480, Note_on_c, 4, 72, 116
6, 205056, Note_on_c, 4, 72, 0
6, 205200, Note_on_c, 4, 70, 116
6, 205392, Note_on_c, 4, 70, 0
6, 205440, Note_on_c, 4, 69, 116
6, 205680, Note_on_c, 4, 69, 0
6, 205920, Note_on_c, 4, 70, 116
6, 206160, Note_on_c, 4, 70, 0
6, 206400, Note_on_c, 4, 75, 116
6, 206976, Note_on_c, 4, 75, 0
6, 207120, Note_on_c, 4, 75, 116
6, 207312, Note_on_c, 4, 75, 0
6, 207360, Note_on_c, 4, 81, 116
6, 207936, Note_on_c, 4, 81, 0
6, 208080, Note_on_c, 4, 81, 116
6, 208272, Note_on_c, 4, 81, 0
6, 208320, Note_on_c, 4, 87, 116
6, 208896, Note_on_c, 4, 87, 0
6, 209040, Note_on_c, 4, 87, 116
6, 209232, Note_on_c, 4, 87, 0
6, 209280, Note_on_c, 4, 86, 105
6, 209472, Note_on_c, 4, 86, 0
6, 209520, Note_on_c, 4, 84, 105
6, 209712, Note_on_c, 4, 84, 0
6, 209760, Note_on_c, 4, 82, 105
6, 209952, Note_on_c, 4, 82, 0
6, 210000, Note_on_c, 4, 81, 105
6, 210192, Note_on_c, 4, 81, 0
6, 210240, Note_on_c, 4, 79, 105
6, 210432, Note_on_c, 4, 79, 0
6, 210480, Note_on_c, 4, 77, 105
6, 210672, Note_on_c, 4, 77, 0
6, 210720, Note_on_c, 4, 75, 105
6, 210912, Note_on_c, 4, 75, 0
6, 210960, Note_on_c, 4, 74, 105
6, 211152, Note_on_c, 4, 74, 0
6, 211200, Note_on_c, 4, 72, 105
6, 211512, Note_on_c, 4, 72, 0
6, 211680, Note_on_c, 4, 79, 105
6, 211992, Note_on_c, 4, 79, 0
6, 212160, Note_on_c, 4, 77, 105
6, 212472, Note_on_c, 4, 77, 0
6, 212640, Note_on_c, 4, 81, 105
6, 212952, Note_on_c, 4, 81, 0
6, 213120, Note_on_c, 4, 82, 105
6, 213432, Note_on_c, 4, 82, 0
6, 213600, Note_on_c, 4, 65, 105
6, 213912, Note_on_c, 4, 65, 0
6, 214080, Note_on_c, 4, 74, 105
6, 214656, Note_on_c, 4, 74, 0
6, 214800, Note_on_c, 4, 72, 105
6, 214992, Note_on_c, 4, 72, 0
6, 215040, Note_on_c, 4, 70, 105
6, 215328, Note_on_c, 4, 70, 0
6, 215520, Note_on_c, 4, 65, 105
6, 215808, Note_on_c, 4, 65, 0
6, 216000, Note_on_c, 4, 62, 105
6, 216288, Note_on_c, 4, 62, 0
6, 216480, Note_on_c, 4, 58, 105
6, 216768, Note_on_c, 4, 58, 0
6, 216960, Note_on_c, 4, 65, 92
6, 217272, Note_on_c, 4, 65, 0
6, 220800, Note_on_c, 4, 77, 70
6, 221112, Note_on_c, 4, 77, 0
6, 221280, Note_on_c, 4, 72, 70
6, 221592, Note_on_c, 4, 72, 0
6, 221760, Note_on_c, 4, 81, 70
6, 222336, Note_on_c, 4, 81, 0
6, 222480, Note_on_c, 4, 79, 70
6, 222672, Note_on_c, 4, 79, 0
6, 222720, Note_on_c, 4, 77, 70
6, 223032, Note_on_c, 4, 77, 0
6, 223200, Note_on_c, 4, 84, 70
6, 223512, Note_on_c, 4, 84, 0
6, 223680, Note_on_c, 4, 81, 70
6, 223992, Note_on_c, 4, 81, 0
6, 224160, Note_on_c, 4, 77, 70
6, 224472, Note_on_c, 4, 77, 0
6, 224640, Note_on_c, 4, 82, 80
6, 225024, Note_on_c, 4, 82, 0
6, 225360, Note_on_c, 4, 77, 80
6, 225552, Note_on_c, 4, 77, 0
6, 225600, Note_on_c, 4, 74, 80
6, 226320, Note_on_c, 4, 74, 0
6, 226320, Note_on_c, 4, 75, 80
6, 226512, Note_on_c, 4, 75, 0
6, 226560, Note_on_c, 4, 72, 80
6, 227280, Note_on_c, 4, 72, 0
6, 227280, Note_on_c, 4, 74, 80
6, 227472, Note_on_c, 4, 74, 0
6, 227520, Note_on_c, 4, 75, 80
6, 228240, Note_on_c, 4, 75, 0
6, 228240, Note_on_c, 4, 77, 80
6, 228432, Note_on_c, 4, 77, 0
6, 228480, Note_on_c, 4, 74, 80
6, 229200, Note_on_c, 4, 74, 0
6, 229200, Note_on_c, 4, 77, 80
6, 229392, Note_on_c, 4, 77, 0
6, 229440, Note_on_c, 4, 82, 80
6, 230160, Note_on_c, 4, 82, 0
6, 230160, Note_on_c, 4, 86, 80
6, 230352, Note_on_c, 4, 86, 0
6, 230400, Note_on_c, 4, 84, 80
6, 231120, Note_on_c, 4, 84, 0
6, 231120, Note_on_c, 4, 87, 80
6, 231312, Note_on_c, 4, 87, 0
6, 231360, Note_on_c, 4, 77, 80
6, 232080, Note_on_c, 4, 77, 0
6, 232080, Note_on_c, 4, 81, 80
6, 232272, Note_on_c, 4, 81, 0
6, 232320, Note_on_c, 4, 82, 80
6, 232704, Note_on_c, 4, 82, 0
6, 233040, Note_on_c, 4, 77, 80
6, 233232, Note_on_c, 4, 77, 0
6, 233280, Note_on_c, 4, 74, 80
6, 234000, Note_on_c, 4, 74, 0
6, 234000, Note_on_c, 4, 75, 80
6, 234192, Note_on_c, 4, 75, 0
6, 234240, Note_on_c, 4, 72, 80
6, 234960, Note_on_c, 4, 72, 0
6, 234960, Note_on_c, 4, 74, 80
6, 235152, Note_on_c, 4, 74, 0
6, 235200, Note_on_c, 4, 75, 80
6, 235920, Note_on_c, 4, 75, 0
6, 235920, Note_on_c, 4, 77, 80
6, 236112, Note_on_c, 4, 77, 0
6, 236160, Note_on_c, 4, 74, 80
6, 236880, Note_on_c, 4, 74, 0
6, 236880, Note_on_c, 4, 77, 80
6, 237072, Note_on_c, 4, 77, 0
6, 237120, Note_on_c, 4, 82, 80
6, 237840, Note_on_c, 4, 82, 0
6, 237840, Note_on_c, 4, 86, 80
6, 238032, Note_on_c, 4, 86, 0
6, 238080, Note_on_c, 4, 84, 80
6, 238800, Note_on_c, 4, 84, 0
6, 238800, Note_on_c, 4, 87, 80
6, 238992, Note_on_c, 4, 87, 0
6, 239040, Note_on_c, 4, 77, 80
6, 239760, Note_on_c, 4, 77, 0
6, 239760, Note_on_c, 4, 81, 80
6, 239952, Note_on_c, 4, 81, 0
6, 240000, Note_on_c, 4, 82, 80
6, 240192, Note_on_c, 4, 82, 0
6, 240240, Note_on_c, 4, 77, 105
6, 240624, Note_on_c, 4, 77, 0
6, 240720, Note_on_c, 4, 77, 105
6, 241104, Note_on_c, 4, 77, 0
6, 241200, Note_on_c, 4, 77, 105
6, 241584, Note_on_c, 4, 77, 0
6, 241680, Note_on_c, 4, 77, 105
6, 242112, Note_on_c, 4, 77, 0
6, 242160, Note_on_c, 4, 77, 105
6, 242544, Note_on_c, 4, 77, 0
6, 242640, Note_on_c, 4, 77, 105
6, 243024, Note_on_c, 4, 77, 0
6, 243120, Note_on_c, 4, 77, 105
6, 243504, Note_on_c, 4, 77, 0
6, 243600, Note_on_c, 4, 77, 105
6, 244032, Note_on_c, 4, 77, 0
6, 244080, Note_on_c, 4, 77, 105
6, 244464, Note_on_c, 4, 77, 0
6, 244560, Note_on_c, 4, 77, 105
6, 244944, Note_on_c, 4, 77, 0
6, 245040, Note_on_c, 4, 77, 105
6, 245424, Note_on_c, 4, 77, 0
6, 245520, Note_on_c, 4, 77, 105
6, 245952, Note_on_c, 4, 77, 0
6, 246000, Note_on_c, 4, 77, 105
6, 246384, Note_on_c, 4, 77, 0
6, 246480, Note_on_c, 4, 77, 105
6, 246864, Note_on_c, 4, 77, 0
6, 246960, Note_on_c, 4, 77, 105
6, 247344, Note_on_c, 4, 77, 0
6, 247440, Note_on_c, 4, 77, 105
6, 247632, Note_on_c, 4, 77, 0
6, 247680, Note_on_c, 4, 80, 105
6, 247872, Note_on_c, 4, 80, 0
6, 247920, Note_on_c, 4, 80, 105
6, 248304, Note_on_c, 4, 80, 0
6, 248400, Note_on_c, 4, 80, 105
6, 248784, Note_on_c, 4, 80, 0
6, 248880, Note_on_c, 4, 80, 105
6, 249264, Note_on_c, 4, 80, 0
6, 249360, Note_on_c, 4, 80, 105
6, 249552, Note_on_c, 4, 80, 0
6, 249600, Note_on_c, 4, 79, 105
6, 249792, Note_on_c, 4, 79, 0
6, 249840, Note_on_c, 4, 79, 105
6, 250224, Note_on_c, 4, 79, 0
6, 250320, Note_on_c, 4, 79, 105
6, 250512, Note_on_c, 4, 79, 0
6, 250560, Note_on_c, 4, 76, 105
6, 250752, Note_on_c, 4, 76, 0
6, 250800, Note_on_c, 4, 76, 105
6, 251184, Note_on_c, 4, 76, 0
6, 251280, Note_on_c, 4, 76, 105
6, 251472, Note_on_c, 4, 76, 0
6, 251520, Note_on_c, 4, 77, 105
6, 251712, Note_on_c, 4, 77, 0
6, 251760, Note_on_c, 4, 77, 105
6, 252144, Note_on_c, 4, 77, 0
6, 252240, Note_on_c, 4, 77, 105
6, 252432, Note_on_c, 4, 77, 0
6, 252480, Note_on_c, 4, 75, 105
6, 252672, Note_on_c, 4, 75, 0
6, 252720, Note_on_c, 4, 75, 105
6, 253104, Note_on_c, 4, 75, 0
6, 253200, Note_on_c, 4, 75, 105
6, 253392, Note_on_c, 4, 75, 0
6, 253440, Note_on_c, 4, 70, 105
6, 253752, Note_on_c, 4, 70, 0
6, 253920, Note_on_c, 4, 82, 105
6, 254232, Note_on_c, 4, 82, 0
6, 254400, Note_on_c, 4, 79, 105
6, 254712, Note_on_c, 4, 79, 0
6, 254880, Note_on_c, 4, 69, 105
6, 255192, Note_on_c, 4, 69, 0
6, 255360, Note_on_c, 4, 80, 105
6, 255552, Note_on_c, 4, 80, 0
6, 255600, Note_on_c, 4, 80, 105
6, 255984, Note_on_c, 4, 80, 0
6, 256080, Note_on_c, 4, 80, 105
6, 256464, Note_on_c, 4, 80, 0
6, 256560, Note_on_c, 4, 80, 105
6, 256944, Note_on_c, 4, 80, 0
6, 257040, Note_on_c, 4, 80, 105
6, 257232, Note_on_c, 4, 80, 0
6, 257280, Note_on_c, 4, 79, 105
6, 257472, Note_on_c, 4, 79, 0
6, 257520, Note_on_c, 4, 79, 105
6, 257904, Note_on_c, 4, 79, 0
6, 258000, Note_on_c, 4, 79, 105
6, 258192, Note_on_c, 4, 79, 0
6, 258240, Note_on_c, 4, 76, 105
6, 258432, Note_on_c, 4, 76, 0
6, 258480, Note_on_c, 4, 76, 105
6, 258864, Note_on_c, 4, 76, 0
6, 258960, Note_on_c, 4, 76, 105
6, 259152, Note_on_c, 4, 76, 0
6, 259200, Note_on_c, 4, 77, 105
6, 259392, Note_on_c, 4, 77, 0
6, 259440, Note_on_c, 4, 77, 105
6, 259824, Note_on_c, 4, 77, 0
6, 259920, Note_on_c, 4, 77, 105
6, 260112, Note_on_c, 4, 77, 0
6, 260160, Note_on_c, 4, 87, 105
6, 260352, Note_on_c, 4, 87, 0
6, 260400, Note_on_c, 4, 87, 105
6, 260784, Note_on_c, 4, 87, 0
6, 260880, Note_on_c, 4, 87, 105
6, 261072, Note_on_c, 4, 87, 0
6, 261120, Note_on_c, 4, 86, 105
6, 261408, Note_on_c, 4, 86, 0
6, 261600, Note_on_c, 4, 82, 105
6, 261888, Note_on_c, 4, 82, 0
6, 262080, Note_on_c, 4, 72, 105
6, 262368, Note_on_c, 4, 72, 0
6, 262560, Note_on_c, 4, 81, 105
6, 262848, Note_on_c, 4, 81, 0
6, 263040, Note_on_c, 4, 82, 105
6, 263352, Note_on_c, 4, 82, 0
6, 263520, Note_on_c, 4, 58, 105
6, 263832, Note_on_c, 4, 58, 0
6, 264000, Note_on_c, 4, 74, 105
6, 264576, Note_on_c, 4, 74, 0
6, 264720, Note_on_c, 4, 72, 105
6, 264912, Note_on_c, 4, 72, 0
6, 264960, Note_on_c, 4, 70, 105
6, 265536, Note_on_c, 4, 70, 0
6, 265680, Note_on_c, 4, 69, 105
6, 265872, Note_on_c, 4, 69, 0
6, 265920, Note_on_c, 4, 67, 105
6, 266496, Note_on_c, 4, 67, 0
6, 266640, Note_on_c, 4, 65, 105
6, 266832, Note_on_c, 4, 65, 0
6, 266880, Note_on_c, 4, 63, 105
6, 267192, Note_on_c, 4, 63, 0
6, 267360, Note_on_c, 4, 69, 116
6, 267552, Note_on_c, 4, 69, 0
6, 267600, Note_on_c, 4, 70, 116
6, 267792, Note_on_c, 4, 70, 0
6, 267840, Note_on_c, 4, 72, 116
6, 268032, Note_on_c, 4, 72, 0
6, 268080, Note_on_c, 4, 74, 116
6, 268272, Note_on_c, 4, 74, 0
6, 268320, Note_on_c, 4, 75, 116
6, 268512, Note_on_c, 4, 75, 0
6, 268560, Note_on_c, 4, 74, 116
6, 268752, Note_on_c, 4, 74, 0
6, 268800, Note_on_c, 4, 75, 116
6, 269112, Note_on_c, 4, 75, 0
6, 269280, Note_on_c, 4, 69, 116
6, 269472, Note_on_c, 4, 69, 0
6, 269520, Note_on_c, 4, 70, 116
6, 269712, Note_on_c, 4, 70, 0
6, 269760, Note_on_c, 4, 72, 116
6, 269952, Note_on_c, 4, 72, 0
6, 270000, Note_on_c, 4, 74, 116
6, 270192, Note_on_c, 4, 74, 0
6, 270240, Note_on_c, 4, 75, 116
6, 270432, Note_on_c, 4, 75, 0
6, 270480, Note_on_c, 4, 74, 116
6, 270672, Note_on_c, 4, 74, 0
6, 270720, Note_on_c, 4, 75, 116
6, 271032, Note_on_c, 4, 75, 0
6, 271200, Note_on_c, 4, 69, 116
6, 271392, Note_on_c, 4, 69, 0
6, 271440, Note_on_c, 4, 70, 116
6, 271632, Note_on_c, 4, 70, 0
6, 271680, Note_on_c, 4, 72, 116
6, 271872, Note_on_c, 4, 72, 0
6, 271920, Note_on_c, 4, 74, 116
6, 272112, Note_on_c, 4, 74, 0
6, 272160, Note_on_c, 4, 75, 116
6, 272352, Note_on_c, 4, 75, 0
6, 272400, Note_on_c, 4, 74, 116
6, 272592, Note_on_c, 4, 74, 0
6, 272640, Note_on_c, 4, 75, 116
6, 272952, Note_on_c, 4, 75, 0
6, 273120, Note_on_c, 4, 74, 116
6, 273432, Note_on_c, 4, 74, 0
6, 273600, Note_on_c, 4, 79, 116
6, 273912, Note_on_c, 4, 79, 0
6, 274080, Note_on_c, 4, 69, 116
6, 274392, Note_on_c, 4, 69, 0
6, 274560, Note_on_c, 4, 70, 110
6, 274872, Note_on_c, 4, 70, 0
6, 275040, Note_on_c, 4, 69, 70
6, 275232, Note_on_c, 4, 69, 0
6, 275280, Note_on_c, 4, 70, 70
6, 275472, Note_on_c, 4, 70, 0
6, 275520, Note_on_c, 4, 72, 70
6, 275712, Note_on_c, 4, 72, 0
6, 275760, Note_on_c, 4, 74, 70
6, 275952, Note_on_c, 4, 74, 0
6, 276000, Note_on_c, 4, 75, 70
6, 276192, Note_on_c, 4, 75, 0
6, 276240, Note_on_c, 4, 74, 70
6, 276432, Note_on_c, 4, 74, 0
6, 276480, Note_on_c, 4, 75, 70
6, 276792, Note_on_c, 4, 75, 0
6, 276960, Note_on_c, 4, 69, 70
6, 277152, Note_on_c, 4, 69, 0
6, 277200, Note_on_c, 4, 70, 70
6, 277392, Note_on_c, 4, 70, 0
6, 277440, Note_on_c, 4, 72, 70
6, 277632, Note_on_c, 4, 72, 0
6, 277680, Note_on_c, 4, 74, 70
6, 277872, Note_on_c, 4, 74, 0
6, 277920, Note_on_c, 4, 75, 70
6, 278112, Note_on_c, 4, 75, 0
6, 278160, Note_on_c, 4, 74, 70
6, 278352, Note_on_c, 4, 74, 0
6, 278400, Note_on_c, 4, 75, 70
6, 278712, Note_on_c, 4, 75, 0
6, 278880, Note_on_c, 4, 81, 127
6, 279072, Note_on_c, 4, 81, 0
6, 279120, Note_on_c, 4, 82, 116
6, 279312, Note_on_c, 4, 82, 0
6, 279360, Note_on_c, 4, 84, 116
6, 279552, Note_on_c, 4, 84, 0
6, 279600, Note_on_c, 4, 86, 116
6, 279792, Note_on_c, 4, 86, 0
6, 279840, Note_on_c, 4, 87, 116
6, 280032, Note_on_c, 4, 87, 0
6, 280080, Note_on_c, 4, 86, 116
6, 280272, Note_on_c, 4, 86, 0
6, 280320, Note_on_c, 4, 87, 116
6, 280632, Note_on_c, 4, 87, 0
6, 280800, Note_on_c, 4, 86, 116
6, 281112, Note_on_c, 4, 86, 0
6, 281280, Note_on_c, 4, 84, 116
6, 281592, Note_on_c, 4, 84, 0
6, 281760, Note_on_c, 4, 72, 116
6, 281760, Note_on_c, 4, 81, 116
6, 282072, Note_on_c, 4, 81, 0
6, 282072, Note_on_c, 4, 72, 0
6, 282240, Note_on_c, 4, 82, 116
6, 282240, Note_on_c, 4, 70, 116
6, 282552, Note_on_c, 4, 70, 0
6, 282552, Note_on_c, 4, 82, 0
6, 282720, Note_on_c, 4, 58, 116
6, 283032, Note_on_c, 4, 58, 0
6, 283200, Note_on_c, 4, 74, 116
6, 283776, Note_on_c, 4, 74, 0
6, 283920, Note_on_c, 4, 72, 116
6, 284112, Note_on_c, 4, 72, 0
6, 284160, Note_on_c, 4, 70, 116
6, 284472, Note_on_c, 4, 70, 0
6, 284640, Note_on_c, 4, 58, 116
6, 284952, Note_on_c, 4, 58, 0
6, 285120, Note_on_c, 4, 74, 116
6, 285696, Note_on_c, 4, 74, 0
6, 285840, Note_on_c, 4, 72, 116
6, 286032, Note_on_c, 4, 72, 0
6, 286080, Note_on_c, 4, 70, 110
6, 286848, Note_on_c, 4, 70, 0
6, 287040, Note_on_c, 4, 58, 70
6, 288000, Note_on_c, 4, 58, 0
6, 288000, Note_on_c, 4, 60, 70
6, 288960, Note_on_c, 4, 60, 0
6, 288960, Note_on_c, 4, 61, 70
6, 289920, Note_on_c, 4, 61, 0
6, 289920, Note_on_c, 4, 62, 70
6, 290640, Note_on_c, 4, 62, 0
6, 290880, Note_on_c, 4, 74, 70
6, 292200, Note_on_c, 4, 74, 0
6, 292320, Note_on_c, 4, 75, 70
6, 292500, Note_on_c, 4, 75, 0
6, 292560, Note_on_c, 4, 72, 70
6, 292740, Note_on_c, 4, 72, 0
6, 292800, Note_on_c, 4, 70, 70
6, 293160, Note_on_c, 4, 70, 0
6, 293280, Note_on_c, 4, 72, 70
6, 293460, Note_on_c, 4, 72, 0
6, 293520, Note_on_c, 4, 69, 70
6, 293700, Note_on_c, 4, 69, 0
6, 293760, Note_on_c, 4, 67, 105
6, 294120, Note_on_c, 4, 67, 0
6, 294240, Note_on_c, 4, 71, 105
6, 294504, Note_on_c, 4, 71, 0
6, 294720, Note_on_c, 4, 72, 105
6, 294984, Note_on_c, 4, 72, 0
6, 295200, Note_on_c, 4, 74, 105
6, 295464, Note_on_c, 4, 74, 0
6, 295680, Note_on_c, 4, 75, 105
6, 296040, Note_on_c, 4, 75, 0
6, 296160, Note_on_c, 4, 76, 105
6, 296424, Note_on_c, 4, 76, 0
6, 296640, Note_on_c, 4, 77, 105
6, 296904, Note_on_c, 4, 77, 0
6, 297120, Note_on_c, 4, 79, 105
6, 297384, Note_on_c, 4, 79, 0
6, 297600, Note_on_c, 4, 81, 105
6, 297960, Note_on_c, 4, 81, 0
6, 298080, Note_on_c, 4, 69, 105
6, 298344, Note_on_c, 4, 69, 0
6, 298560, Note_on_c, 4, 70, 105
6, 298824, Note_on_c, 4, 70, 0
6, 299040, Note_on_c, 4, 72, 105
6, 299304, Note_on_c, 4, 72, 0
6, 299520, Note_on_c, 4, 74, 105
6, 299880, Note_on_c, 4, 74, 0
6, 300000, Note_on_c, 4, 74, 105
6, 300264, Note_on_c, 4, 74, 0
6, 300480, Note_on_c, 4, 75, 105
6, 300744, Note_on_c, 4, 75, 0
6, 300960, Note_on_c, 4, 77, 105
6, 301224, Note_on_c, 4, 77, 0
6, 301440, Note_on_c, 4, 79, 105
6, 301800, Note_on_c, 4, 79, 0
6, 301920, Note_on_c, 4, 67, 105
6, 302184, Note_on_c, 4, 67, 0
6, 302400, Note_on_c, 4, 69, 105
6, 302664, Note_on_c, 4, 69, 0
6, 302880, Note_on_c, 4, 70, 105
6, 303144, Note_on_c, 4, 70, 0
6, 303360, Note_on_c, 4, 72, 105
6, 303720, Note_on_c, 4, 72, 0
6, 303840, Note_on_c, 4, 72, 105
6, 304104, Note_on_c, 4, 72, 0
6, 304320, Note_on_c, 4, 74, 105
6, 304584, Note_on_c, 4, 74, 0
6, 304800, Note_on_c, 4, 76, 105
6, 305064, Note_on_c, 4, 76, 0
6, 305280, Note_on_c, 4, 78, 105
6, 305640, Note_on_c, 4, 78, 0
6, 305760, Note_on_c, 4, 78, 105
6, 306024, Note_on_c, 4, 78, 0
6, 306240, Note_on_c, 4, 79, 105
6, 306504, Note_on_c, 4, 79, 0
6, 306720, Note_on_c, 4, 81, 105
6, 306984, Note_on_c, 4, 81, 0
6, 307200, Note_on_c, 4, 82, 105
6, 307560, Note_on_c, 4, 82, 0
6, 307680, Note_on_c, 4, 82, 105
6, 308040, Note_on_c, 4, 82, 0
6, 308160, Note_on_c, 4, 72, 105
6, 308520, Note_on_c, 4, 72, 0
6, 308640, Note_on_c, 4, 81, 105
6, 309000, Note_on_c, 4, 81, 0
6, 309120, Note_on_c, 4, 70, 105
6, 309480, Note_on_c, 4, 70, 0
6, 309600, Note_on_c, 4, 79, 105
6, 309960, Note_on_c, 4, 79, 0
6, 310080, Note_on_c, 4, 69, 105
6, 310440, Note_on_c, 4, 69, 0
6, 310560, Note_on_c, 4, 77, 105
6, 310920, Note_on_c, 4, 77, 0
6, 311040, Note_on_c, 4, 68, 105
6, 311400, Note_on_c, 4, 68, 0
6, 311520, Note_on_c, 4, 67, 105
6, 311880, Note_on_c, 4, 67, 0
6, 312000, Note_on_c, 4, 66, 105
6, 312360, Note_on_c, 4, 66, 0
6, 312480, Note_on_c, 4, 65, 105
6, 312840, Note_on_c, 4, 65, 0
6, 312960, Note_on_c, 4, 64, 105
6, 313272, Note_on_c, 4, 64, 0
6, 313440, Note_on_c, 4, 81, 105
6, 313440, Note_on_c, 4, 69, 92
6, 313632, Note_on_c, 4, 69, 0
6, 313632, Note_on_c, 4, 81, 0
6, 313680, Note_on_c, 4, 81, 92
6, 313680, Note_on_c, 4, 69, 92
6, 313872, Note_on_c, 4, 69, 0
6, 313872, Note_on_c, 4, 81, 0
6, 313920, Note_on_c, 4, 69, 92
6, 313920, Note_on_c, 4, 81, 92
6, 314112, Note_on_c, 4, 81, 0
6, 314112, Note_on_c, 4, 69, 0
6, 314160, Note_on_c, 4, 69, 92
6, 314160, Note_on_c, 4, 81, 92
6, 314352, Note_on_c, 4, 81, 0
6, 314352, Note_on_c, 4, 69, 0
6, 314400, Note_on_c, 4, 81, 92
6, 314400, Note_on_c, 4, 69, 92
6, 314592, Note_on_c, 4, 69, 0
6, 314592, Note_on_c, 4, 81, 0
6, 314640, Note_on_c, 4, 81, 92
6, 314640, Note_on_c, 4, 69, 92
6, 314832, Note_on_c, 4, 69, 0
6, 314832, Note_on_c, 4, 81, 0
6, 314880, Note_on_c, 4, 69, 92
6, 314880, Note_on_c, 4, 81, 92
6, 315072, Note_on_c, 4, 81, 0
6, 315072, Note_on_c, 4, 69, 0
6, 315120, Note_on_c, 4, 81, 92
6, 315120, Note_on_c, 4, 69, 92
6, 315312, Note_on_c, 4, 69, 0
6, 315312, Note_on_c, 4, 81, 0
6, 315360, Note_on_c, 4, 69, 92
6, 315360, Note_on_c, 4, 81, 92
6, 315552, Note_on_c, 4, 81, 0
6, 315552, Note_on_c, 4, 69, 0
6, 315600, Note_on_c, 4, 81, 92
6, 315600, Note_on_c, 4, 69, 92
6, 315792, Note_on_c, 4, 69, 0
6, 315792, Note_on_c, 4, 81, 0
6, 315840, Note_on_c, 4, 69, 92
6, 315840, Note_on_c, 4, 81, 92
6, 316032, Note_on_c, 4, 81, 0
6, 316032, Note_on_c, 4, 69, 0
6, 316080, Note_on_c, 4, 69, 92
6, 316080, Note_on_c, 4, 81, 92
6, 316272, Note_on_c, 4, 81, 0
6, 316272, Note_on_c, 4, 69, 0
6, 316320, Note_on_c, 4, 81, 92
6, 316320, Note_on_c, 4, 69, 92
6, 316512, Note_on_c, 4, 69, 0
6, 316512, Note_on_c, 4, 81, 0
6, 316560, Note_on_c, 4, 69, 92
6, 316560, Note_on_c, 4, 81, 92
6, 316752, Note_on_c, 4, 81, 0
6, 316752, Note_on_c, 4, 69, 0
6, 316800, Note_on_c, 4, 81, 92
6, 316800, Note_on_c, 4, 69, 92
6, 316992, Note_on_c, 4, 69, 0
6, 316992, Note_on_c, 4, 81, 0
6, 317040, Note_on_c, 4, 69, 92
6, 317040, Note_on_c, 4, 81, 92
6, 317232, Note_on_c, 4, 81, 0
6, 317232, Note_on_c, 4, 69, 0
6, 317280, Note_on_c, 4, 81, 92
6, 317280, Note_on_c, 4, 69, 92
6, 317472, Note_on_c, 4, 69, 0
6, 317472, Note_on_c, 4, 81, 0
6, 317520, Note_on_c, 4, 69, 92
6, 317520, Note_on_c, 4, 81, 92
6, 317712, Note_on_c, 4, 81, 0
6, 317712, Note_on_c, 4, 69, 0
6, 317760, Note_on_c, 4, 69, 92
6, 317760, Note_on_c, 4, 81, 92
6, 317952, Note_on_c, 4, 81, 0
6, 317952, Note_on_c, 4, 69, 0
6, 318000, Note_on_c, 4, 69, 92
6, 318000, Note_on_c, 4, 81, 92
6, 318192, Note_on_c, 4, 81, 0
6, 318192, Note_on_c, 4, 69, 0
6, 318240, Note_on_c, 4, 81, 92
6, 318240, Note_on_c, 4, 69, 92
6, 318432, Note_on_c, 4, 69, 0
6, 318432, Note_on_c, 4, 81, 0
6, 318480, Note_on_c, 4, 69, 92
6, 318480, Note_on_c, 4, 81, 92
6, 318672, Note_on_c, 4, 81, 0
6, 318672, Note_on_c, 4, 69, 0
6, 318720, Note_on_c, 4, 69, 92
6, 318720, Note_on_c, 4, 81, 92
6, 318912, Note_on_c, 4, 81, 0
6, 318912, Note_on_c, 4, 69, 0
6, 318960, Note_on_c, 4, 69, 92
6, 318960, Note_on_c, 4, 81, 92
6, 319152, Note_on_c, 4, 81, 0
6, 319152, Note_on_c, 4, 69, 0
6, 319200, Note_on_c, 4, 81, 92
6, 319200, Note_on_c, 4, 69, 92
6, 319392, Note_on_c, 4, 69, 0
6, 319392, Note_on_c, 4, 81, 0
6, 319440, Note_on_c, 4, 69, 92
6, 319440, Note_on_c, 4, 81, 92
6, 319632, Note_on_c, 4, 81, 0
6, 319632, Note_on_c, 4, 69, 0
6, 319680, Note_on_c, 4, 81, 92
6, 319680, Note_on_c, 4, 69, 92
6, 319872, Note_on_c, 4, 69, 0
6, 319872, Note_on_c, 4, 81, 0
6, 319920, Note_on_c, 4, 69, 92
6, 319920, Note_on_c, 4, 81, 92
6, 320112, Note_on_c, 4, 81, 0
6, 320112, Note_on_c, 4, 69, 0
6, 320160, Note_on_c, 4, 69, 92
6, 320160, Note_on_c, 4, 81, 92
6, 320352, Note_on_c, 4, 81, 0
6, 320352, Note_on_c, 4, 69, 0
6, 320400, Note_on_c, 4, 69, 92
6, 320400, Note_on_c, 4, 81, 92
6, 320592, Note_on_c, 4, 81, 0
6, 320592, Note_on_c, 4, 69, 0
6, 320640, Note_on_c, 4, 69, 92
6, 320640, Note_on_c, 4, 81, 92
6, 320832, Note_on_c, 4, 81, 0
6, 320832, Note_on_c, 4, 69, 0
6, 320880, Note_on_c, 4, 81, 92
6, 320880, Note_on_c, 4, 69, 92
6, 321072, Note_on_c, 4, 69, 0
6, 321072, Note_on_c, 4, 81, 0
6, 321120, Note_on_c, 4, 81, 92
6, 321120, Note_on_c, 4, 69, 92
6, 321312, Note_on_c, 4, 69, 0
6, 321312, Note_on_c, 4, 81, 0
6, 321360, Note_on_c, 4, 81, 92
6, 321360, Note_on_c, 4, 69, 92
6, 321552, Note_on_c, 4, 69, 0
6, 321552, Note_on_c, 4, 81, 0
6, 321600, Note_on_c, 4, 81, 92
6, 321600, Note_on_c, 4, 69, 92
6, 321792, Note_on_c, 4, 69, 0
6, 321792, Note_on_c, 4, 81, 0
6, 321840, Note_on_c, 4, 69, 92
6, 321840, Note_on_c, 4, 81, 92
6, 322032, Note_on_c, 4, 81, 0
6, 322032, Note_on_c, 4, 69, 0
6, 322080, Note_on_c, 4, 69, 92
6, 322080, Note_on_c, 4, 81, 92
6, 322272, Note_on_c, 4, 81, 0
6, 322272, Note_on_c, 4, 69, 0
6, 322320, Note_on_c, 4, 81, 92
6, 322320, Note_on_c, 4, 69, 92
6, 322512, Note_on_c, 4, 69, 0
6, 322512, Note_on_c, 4, 81, 0
6, 322560, Note_on_c, 4, 81, 92
6, 322560, Note_on_c, 4, 69, 92
6, 322752, Note_on_c, 4, 69, 0
6, 322752, Note_on_c, 4, 81, 0
6, 322800, Note_on_c, 4, 81, 92
6, 322800, Note_on_c, 4, 69, 92
6, 322992, Note_on_c, 4, 69, 0
6, 322992, Note_on_c, 4, 81, 0
6, 323040, Note_on_c, 4, 69, 92
6, 323040, Note_on_c, 4, 81, 92
6, 323232, Note_on_c, 4, 81, 0
6, 323232, Note_on_c, 4, 69, 0
6, 323280, Note_on_c, 4, 69, 92
6, 323280, Note_on_c, 4, 81, 92
6, 323472, Note_on_c, 4, 81, 0
6, 323472, Note_on_c, 4, 69, 0
6, 323520, Note_on_c, 4, 69, 92
6, 323520, Note_on_c, 4, 81, 92
6, 323712, Note_on_c, 4, 81, 0
6, 323712, Note_on_c, 4, 69, 0
6, 323760, Note_on_c, 4, 69, 92
6, 323760, Note_on_c, 4, 81, 92
6, 323952, Note_on_c, 4, 81, 0
6, 323952, Note_on_c, 4, 69, 0
6, 324000, Note_on_c, 4, 69, 92
6, 324000, Note_on_c, 4, 81, 92
6, 324192, Note_on_c, 4, 81, 0
6, 324192, Note_on_c, 4, 69, 0
6, 324240, Note_on_c, 4, 69, 92
6, 324240, Note_on_c, 4, 81, 92
6, 324432, Note_on_c, 4, 81, 0
6, 324432, Note_on_c, 4, 69, 0
6, 324480, Note_on_c, 4, 81, 92
6, 324480, Note_on_c, 4, 69, 92
6, 324672, Note_on_c, 4, 69, 0
6, 324672, Note_on_c, 4, 81, 0
6, 324720, Note_on_c, 4, 69, 92
6, 324720, Note_on_c, 4, 81, 92
6, 324912, Note_on_c, 4, 81, 0
6, 324912, Note_on_c, 4, 69, 0
6, 324960, Note_on_c, 4, 81, 92
6, 324960, Note_on_c, 4, 69, 92
6, 325152, Note_on_c, 4, 69, 0
6, 325152, Note_on_c, 4, 81, 0
6, 325200, Note_on_c, 4, 69, 92
6, 325200, Note_on_c, 4, 81, 92
6, 325392, Note_on_c, 4, 81, 0
6, 325392, Note_on_c, 4, 69, 0
6, 325440, Note_on_c, 4, 81, 92
6, 325440, Note_on_c, 4, 69, 92
6, 325632, Note_on_c, 4, 69, 0
6, 325632, Note_on_c, 4, 81, 0
6, 325680, Note_on_c, 4, 81, 92
6, 325680, Note_on_c, 4, 69, 92
6, 325872, Note_on_c, 4, 69, 0
6, 325872, Note_on_c, 4, 81, 0
6, 325920, Note_on_c, 4, 81, 92
6, 325920, Note_on_c, 4, 69, 92
6, 326112, Note_on_c, 4, 69, 0
6, 326112, Note_on_c, 4, 81, 0
6, 326160, Note_on_c, 4, 69, 92
6, 326160, Note_on_c, 4, 81, 92
6, 326352, Note_on_c, 4, 81, 0
6, 326352, Note_on_c, 4, 69, 0
6, 326400, Note_on_c, 4, 66, 92
6, 326400, Note_on_c, 4, 78, 92
6, 326592, Note_on_c, 4, 78, 0
6, 326592, Note_on_c, 4, 66, 0
6, 326640, Note_on_c, 4, 78, 92
6, 326640, Note_on_c, 4, 66, 92
6, 326832, Note_on_c, 4, 66, 0
6, 326832, Note_on_c, 4, 78, 0
6, 326880, Note_on_c, 4, 66, 92
6, 326880, Note_on_c, 4, 78, 92
6, 327072, Note_on_c, 4, 78, 0
6, 327072, Note_on_c, 4, 66, 0
6, 327120, Note_on_c, 4, 78, 92
6, 327120, Note_on_c, 4, 66, 92
6, 327312, Note_on_c, 4, 66, 0
6, 327312, Note_on_c, 4, 78, 0
6, 327360, Note_on_c, 4, 66, 92
6, 327360, Note_on_c, 4, 78, 92
6, 327552, Note_on_c, 4, 78, 0
6, 327552, Note_on_c, 4, 66, 0
6, 327600, Note_on_c, 4, 66, 92
6, 327600, Note_on_c, 4, 78, 92
6, 327792, Note_on_c, 4, 78, 0
6, 327792, Note_on_c, 4, 66, 0
6, 327840, Note_on_c, 4, 66, 92
6, 327840, Note_on_c, 4, 78, 92
6, 328032, Note_on_c, 4, 78, 0
6, 328032, Note_on_c, 4, 66, 0
6, 328080, Note_on_c, 4, 66, 92
6, 328080, Note_on_c, 4, 78, 92
6, 328272, Note_on_c, 4, 78, 0
6, 328272, Note_on_c, 4, 66, 0
6, 328320, Note_on_c, 4, 67, 92
6, 328320, Note_on_c, 4, 79, 92
6, 328512, Note_on_c, 4, 79, 0
6, 328512, Note_on_c, 4, 67, 0
6, 328560, Note_on_c, 4, 67, 92
6, 328560, Note_on_c, 4, 79, 92
6, 328752, Note_on_c, 4, 79, 0
6, 328752, Note_on_c, 4, 67, 0
6, 328800, Note_on_c, 4, 79, 92
6, 328800, Note_on_c, 4, 67, 92
6, 328992, Note_on_c, 4, 67, 0
6, 328992, Note_on_c, 4, 79, 0
6, 329040, Note_on_c, 4, 79, 92
6, 329040, Note_on_c, 4, 67, 92
6, 329232, Note_on_c, 4, 67, 0
6, 329232, Note_on_c, 4, 79, 0
6, 329280, Note_on_c, 4, 79, 92
6, 329280, Note_on_c, 4, 67, 92
6, 329472, Note_on_c, 4, 67, 0
6, 329472, Note_on_c, 4, 79, 0
6, 329520, Note_on_c, 4, 67, 92
6, 329520, Note_on_c, 4, 79, 92
6, 329712, Note_on_c, 4, 79, 0
6, 329712, Note_on_c, 4, 67, 0
6, 329760, Note_on_c, 4, 67, 92
6, 329760, Note_on_c, 4, 79, 92
6, 329952, Note_on_c, 4, 79, 0
6, 329952, Note_on_c, 4, 67, 0
6, 330000, Note_on_c, 4, 67, 92
6, 330000, Note_on_c, 4, 79, 92
6, 330192, Note_on_c, 4, 79, 0
6, 330192, Note_on_c, 4, 67, 0
6, 330240, Note_on_c, 4, 79, 92
6, 330240, Note_on_c, 4, 67, 92
6, 330432, Note_on_c, 4, 67, 0
6, 330432, Note_on_c, 4, 79, 0
6, 330480, Note_on_c, 4, 67, 92
6, 330480, Note_on_c, 4, 79, 92
6, 330672, Note_on_c, 4, 79, 0
6, 330672, Note_on_c, 4, 67, 0
6, 330720, Note_on_c, 4, 67, 92
6, 330720, Note_on_c, 4, 79, 92
6, 330912, Note_on_c, 4, 79, 0
6, 330912, Note_on_c, 4, 67, 0
6, 330960, Note_on_c, 4, 67, 92
6, 330960, Note_on_c, 4, 79, 92
6, 331152, Note_on_c, 4, 79, 0
6, 331152, Note_on_c, 4, 67, 0
6, 331200, Note_on_c, 4, 79, 92
6, 331200, Note_on_c, 4, 67, 92
6, 331392, Note_on_c, 4, 67, 0
6, 331392, Note_on_c, 4, 79, 0
6, 331440, Note_on_c, 4, 79, 92
6, 331440, Note_on_c, 4, 67, 92
6, 331632, Note_on_c, 4, 67, 0
6, 331632, Note_on_c, 4, 79, 0
6, 331680, Note_on_c, 4, 67, 92
6, 331680, Note_on_c, 4, 79, 92
6, 331872, Note_on_c, 4, 79, 0
6, 331872, Note_on_c, 4, 67, 0
6, 331920, Note_on_c, 4, 67, 92
6, 331920, Note_on_c, 4, 79, 92
6, 332112, Note_on_c, 4, 79, 0
6, 332112, Note_on_c, 4, 67, 0
6, 332160, Note_on_c, 4, 79, 92
6, 332160, Note_on_c, 4, 67, 92
6, 332352, Note_on_c, 4, 67, 0
6, 332352, Note_on_c, 4, 79, 0
6, 332400, Note_on_c, 4, 67, 92
6, 332400, Note_on_c, 4, 79, 92
6, 332592, Note_on_c, 4, 79, 0
6, 332592, Note_on_c, 4, 67, 0
6, 332640, Note_on_c, 4, 67, 92
6, 332640, Note_on_c, 4, 79, 92
6, 332832, Note_on_c, 4, 79, 0
6, 332832, Note_on_c, 4, 67, 0
6, 332880, Note_on_c, 4, 67, 92
6, 332880, Note_on_c, 4, 79, 92
6, 333072, Note_on_c, 4, 79, 0
6, 333072, Note_on_c, 4, 67, 0
6, 333120, Note_on_c, 4, 79, 92
6, 333120, Note_on_c, 4, 67, 92
6, 333312, Note_on_c, 4, 67, 0
6, 333312, Note_on_c, 4, 79, 0
6, 333360, Note_on_c, 4, 79, 92
6, 333360, Note_on_c, 4, 67, 92
6, 333552, Note_on_c, 4, 67, 0
6, 333552, Note_on_c, 4, 79, 0
6, 333600, Note_on_c, 4, 79, 92
6, 333600, Note_on_c, 4, 67, 92
6, 333792, Note_on_c, 4, 67, 0
6, 333792, Note_on_c, 4, 79, 0
6, 333840, Note_on_c, 4, 67, 92
6, 333840, Note_on_c, 4, 79, 92
6, 334032, Note_on_c, 4, 79, 0
6, 334032, Note_on_c, 4, 67, 0
6, 334080, Note_on_c, 4, 79, 92
6, 334080, Note_on_c, 4, 67, 92
6, 334272, Note_on_c, 4, 67, 0
6, 334272, Note_on_c, 4, 79, 0
6, 334320, Note_on_c, 4, 67, 92
6, 334320, Note_on_c, 4, 79, 92
6, 334512, Note_on_c, 4, 79, 0
6, 334512, Note_on_c, 4, 67, 0
6, 334560, Note_on_c, 4, 79, 92
6, 334560, Note_on_c, 4, 67, 92
6, 334752, Note_on_c, 4, 67, 0
6, 334752, Note_on_c, 4, 79, 0
6, 334800, Note_on_c, 4, 67, 92
6, 334800, Note_on_c, 4, 79, 92
6, 334992, Note_on_c, 4, 79, 0
6, 334992, Note_on_c, 4, 67, 0
6, 335040, Note_on_c, 4, 67, 92
6, 335040, Note_on_c, 4, 79, 92
6, 335232, Note_on_c, 4, 79, 0
6, 335232, Note_on_c, 4, 67, 0
6, 335280, Note_on_c, 4, 79, 92
6, 335280, Note_on_c, 4, 67, 92
6, 335472, Note_on_c, 4, 67, 0
6, 335472, Note_on_c, 4, 79, 0
6, 335520, Note_on_c, 4, 67, 92
6, 335520, Note_on_c, 4, 79, 92
6, 335712, Note_on_c, 4, 79, 0
6, 335712, Note_on_c, 4, 67, 0
6, 335760, Note_on_c, 4, 79, 92
6, 335760, Note_on_c, 4, 67, 92
6, 335952, Note_on_c, 4, 67, 0
6, 335952, Note_on_c, 4, 79, 0
6, 336000, Note_on_c, 4, 67, 92
6, 336000, Note_on_c, 4, 79, 92
6, 336192, Note_on_c, 4, 79, 0
6, 336192, Note_on_c, 4, 67, 0
6, 336240, Note_on_c, 4, 79, 92
6, 336240, Note_on_c, 4, 67, 92
6, 336432, Note_on_c, 4, 67, 0
6, 336432, Note_on_c, 4, 79, 0
6, 336480, Note_on_c, 4, 67, 92
6, 336480, Note_on_c, 4, 79, 92
6, 336672, Note_on_c, 4, 79, 0
6, 336672, Note_on_c, 4, 67, 0
6, 336720, Note_on_c, 4, 67, 92
6, 336720, Note_on_c, 4, 79, 92
6, 336912, Note_on_c, 4, 79, 0
6, 336912, Note_on_c, 4, 67, 0
6, 336960, Note_on_c, 4, 79, 92
6, 336960, Note_on_c, 4, 67, 92
6, 337152, Note_on_c, 4, 67, 0
6, 337152, Note_on_c, 4, 79, 0
6, 337200, Note_on_c, 4, 79, 92
6, 337200, Note_on_c, 4, 67, 92
6, 337392, Note_on_c, 4, 67, 0
6, 337392, Note_on_c, 4, 79, 0
6, 337440, Note_on_c, 4, 67, 92
6, 337440, Note_on_c, 4, 79, 92
6, 337632, Note_on_c, 4, 79, 0
6, 337632, Note_on_c, 4, 67, 0
6, 337680, Note_on_c, 4, 67, 92
6, 337680, Note_on_c, 4, 79, 92
6, 337872, Note_on_c, 4, 79, 0
6, 337872, Note_on_c, 4, 67, 0
6, 337920, Note_on_c, 4, 67, 92
6, 337920, Note_on_c, 4, 79, 92
6, 338112, Note_on_c, 4, 79, 0
6, 338112, Note_on_c, 4, 67, 0
6, 338160, Note_on_c, 4, 67, 92
6, 338160, Note_on_c, 4, 79, 92
6, 338352, Note_on_c, 4, 79, 0
6, 338352, Note_on_c, 4, 67, 0
6, 338400, Note_on_c, 4, 67, 92
6, 338400, Note_on_c, 4, 79, 92
6, 338592, Note_on_c, 4, 79, 0
6, 338592, Note_on_c, 4, 67, 0
6, 338640, Note_on_c, 4, 67, 92
6, 338640, Note_on_c, 4, 79, 92
6, 338832, Note_on_c, 4, 79, 0
6, 338832, Note_on_c, 4, 67, 0
6, 338880, Note_on_c, 4, 79, 92
6, 338880, Note_on_c, 4, 67, 92
6, 339072, Note_on_c, 4, 67, 0
6, 339072, Note_on_c, 4, 79, 0
6, 339120, Note_on_c, 4, 79, 92
6, 339120, Note_on_c, 4, 67, 92
6, 339312, Note_on_c, 4, 67, 0
6, 339312, Note_on_c, 4, 79, 0
6, 339360, Note_on_c, 4, 67, 92
6, 339360, Note_on_c, 4, 79, 92
6, 339552, Note_on_c, 4, 79, 0
6, 339552, Note_on_c, 4, 67, 0
6, 339600, Note_on_c, 4, 67, 92
6, 339600, Note_on_c, 4, 79, 92
6, 339792, Note_on_c, 4, 79, 0
6, 339792, Note_on_c, 4, 67, 0
6, 339840, Note_on_c, 4, 79, 92
6, 340032, Note_on_c, 4, 79, 0
6, 340080, Note_on_c, 4, 79, 92
6, 340272, Note_on_c, 4, 79, 0
6, 340320, Note_on_c, 4, 79, 92
6, 340512, Note_on_c, 4, 79, 0
6, 340560, Note_on_c, 4, 79, 92
6, 340752, Note_on_c, 4, 79, 0
6, 340800, Note_on_c, 4, 79, 92
6, 340992, Note_on_c, 4, 79, 0
6, 341040, Note_on_c, 4, 79, 92
6, 341232, Note_on_c, 4, 79, 0
6, 341280, Note_on_c, 4, 79, 92
6, 341472, Note_on_c, 4, 79, 0
6, 341520, Note_on_c, 4, 79, 92
6, 341712, Note_on_c, 4, 79, 0
6, 341760, Note_on_c, 4, 78, 92
6, 341952, Note_on_c, 4, 78, 0
6, 342000, Note_on_c, 4, 78, 105
6, 342192, Note_on_c, 4, 78, 0
6, 342240, Note_on_c, 4, 78, 105
6, 342432, Note_on_c, 4, 78, 0
6, 342480, Note_on_c, 4, 78, 105
6, 342672, Note_on_c, 4, 78, 0
6, 342720, Note_on_c, 4, 84, 105
6, 342912, Note_on_c, 4, 84, 0
6, 342960, Note_on_c, 4, 84, 105
6, 343152, Note_on_c, 4, 84, 0
6, 343200, Note_on_c, 4, 84, 105
6, 343392, Note_on_c, 4, 84, 0
6, 343440, Note_on_c, 4, 84, 105
6, 343632, Note_on_c, 4, 84, 0
6, 343680, Note_on_c, 4, 82, 105
6, 343872, Note_on_c, 4, 82, 0
6, 343920, Note_on_c, 4, 82, 105
6, 344112, Note_on_c, 4, 82, 0
6, 344160, Note_on_c, 4, 82, 105
6, 344352, Note_on_c, 4, 82, 0
6, 344400, Note_on_c, 4, 82, 105
6, 344592, Note_on_c, 4, 82, 0
6, 344640, Note_on_c, 4, 73, 105
6, 344832, Note_on_c, 4, 73, 0
6, 344880, Note_on_c, 4, 73, 105
6, 345072, Note_on_c, 4, 73, 0
6, 345120, Note_on_c, 4, 73, 105
6, 345312, Note_on_c, 4, 73, 0
6, 345360, Note_on_c, 4, 73, 105
6, 345552, Note_on_c, 4, 73, 0
6, 345600, Note_on_c, 4, 74, 105
6, 345792, Note_on_c, 4, 74, 0
6, 345840, Note_on_c, 4, 74, 105
6, 346224, Note_on_c, 4, 74, 0
6, 346320, Note_on_c, 4, 74, 105
6, 346512, Note_on_c, 4, 74, 0
6, 346560, Note_on_c, 4, 86, 105
6, 346752, Note_on_c, 4, 86, 0
6, 346800, Note_on_c, 4, 86, 105
6, 347184, Note_on_c, 4, 86, 0
6, 347280, Note_on_c, 4, 86, 105
6, 347472, Note_on_c, 4, 86, 0
6, 347520, Note_on_c, 4, 85, 105
6, 347712, Note_on_c, 4, 85, 0
6, 347760, Note_on_c, 4, 85, 105
6, 348144, Note_on_c, 4, 85, 0
6, 348240, Note_on_c, 4, 85, 105
6, 348432, Note_on_c, 4, 85, 0
6, 348480, Note_on_c, 4, 79, 105
6, 348672, Note_on_c, 4, 79, 0
6, 348720, Note_on_c, 4, 79, 105
6, 349104, Note_on_c, 4, 79, 0
6, 349200, Note_on_c, 4, 79, 105
6, 349392, Note_on_c, 4, 79, 0
6, 349440, Note_on_c, 4, 78, 110
6, 349824, Note_on_c, 4, 78, 0
6, 349920, Note_on_c, 4, 75, 70
6, 350784, Note_on_c, 4, 75, 0
6, 350880, Note_on_c, 4, 72, 70
6, 351792, Note_on_c, 4, 72, 0
6, 351840, Note_on_c, 4, 69, 70
6, 352704, Note_on_c, 4, 69, 0
6, 352800, Note_on_c, 4, 66, 70
6, 353232, Note_on_c, 4, 66, 0
6, 353280, Note_on_c, 4, 67, 70
6, 353592, Note_on_c, 4, 67, 0
6, 353760, Note_on_c, 4, 62, 58
6, 354072, Note_on_c, 4, 62, 0
6, 354240, Note_on_c, 4, 70, 58
6, 354780, Note_on_c, 4, 70, 0
6, 354960, Note_on_c, 4, 69, 58
6, 355116, Note_on_c, 4, 69, 0
6, 355200, Note_on_c, 4, 67, 58
6, 355512, Note_on_c, 4, 67, 0
6, 355680, Note_on_c, 4, 70, 58
6, 356160, Note_on_c, 4, 70, 0
6, 356160, Note_on_c, 4, 69, 58
6, 356640, Note_on_c, 4, 69, 0
6, 356640, Note_on_c, 4, 67, 58
6, 357096, Note_on_c, 4, 67, 0
6, 357120, Note_on_c, 4, 66, 58
6, 357432, Note_on_c, 4, 66, 0
6, 357600, Note_on_c, 4, 62, 58
6, 357912, Note_on_c, 4, 62, 0
6, 358080, Note_on_c, 4, 72, 58
6, 358620, Note_on_c, 4, 72, 0
6, 358800, Note_on_c, 4, 70, 58
6, 358956, Note_on_c, 4, 70, 0
6, 359040, Note_on_c, 4, 69, 58
6, 359352, Note_on_c, 4, 69, 0
6, 359520, Note_on_c, 4, 72, 58
6, 360000, Note_on_c, 4, 72, 0
6, 360000, Note_on_c, 4, 70, 58
6, 360480, Note_on_c, 4, 70, 0
6, 360480, Note_on_c, 4, 69, 58
6, 360936, Note_on_c, 4, 69, 0
6, 360960, Note_on_c, 4, 67, 58
6, 361272, Note_on_c, 4, 67, 0
6, 361440, Note_on_c, 4, 70, 58
6, 361752, Note_on_c, 4, 70, 0
6, 361920, Note_on_c, 4, 75, 58
6, 362424, Note_on_c, 4, 75, 0
6, 362640, Note_on_c, 4, 74, 58
6, 362796, Note_on_c, 4, 74, 0
6, 362880, Note_on_c, 4, 72, 58
6, 363192, Note_on_c, 4, 72, 0
6, 363360, Note_on_c, 4, 69, 58
6, 363672, Note_on_c, 4, 69, 0
6, 363840, Note_on_c, 4, 74, 58
6, 364344, Note_on_c, 4, 74, 0
6, 364560, Note_on_c, 4, 72, 58
6, 364716, Note_on_c, 4, 72, 0
6, 364800, Note_on_c, 4, 70, 58
6, 365112, Note_on_c, 4, 70, 0
6, 365280, Note_on_c, 4, 67, 58
6, 365592, Note_on_c, 4, 67, 0
6, 365760, Note_on_c, 4, 63, 58
6, 366072, Note_on_c, 4, 63, 0
6, 366240, Note_on_c, 4, 61, 58
6, 366552, Note_on_c, 4, 61, 0
6, 366720, Note_on_c, 4, 62, 58
6, 367032, Note_on_c, 4, 62, 0
6, 367200, Note_on_c, 4, 72, 58
6, 367680, Note_on_c, 4, 72, 0
6, 367680, Note_on_c, 4, 70, 58
6, 368160, Note_on_c, 4, 70, 0
6, 368160, Note_on_c, 4, 69, 58
6, 368472, Note_on_c, 4, 69, 0
6, 368640, Note_on_c, 4, 67, 105
6, 368832, Note_on_c, 4, 67, 0
6, 368880, Note_on_c, 4, 74, 105
6, 369264, Note_on_c, 4, 74, 0
6, 369360, Note_on_c, 4, 74, 105
6, 369744, Note_on_c, 4, 74, 0
6, 369840, Note_on_c, 4, 74, 105
6, 370224, Note_on_c, 4, 74, 0
6, 370320, Note_on_c, 4, 74, 105
6, 370944, Note_on_c, 4, 74, 0
6, 371040, Note_on_c, 4, 79, 105
6, 371520, Note_on_c, 4, 79, 0
6, 371520, Note_on_c, 4, 78, 105
6, 372000, Note_on_c, 4, 78, 0
6, 372000, Note_on_c, 4, 79, 105
6, 372384, Note_on_c, 4, 79, 0
6, 372480, Note_on_c, 4, 81, 105
6, 372672, Note_on_c, 4, 81, 0
6, 372720, Note_on_c, 4, 74, 105
6, 373104, Note_on_c, 4, 74, 0
6, 373200, Note_on_c, 4, 74, 105
6, 373584, Note_on_c, 4, 74, 0
6, 373680, Note_on_c, 4, 74, 105
6, 374064, Note_on_c, 4, 74, 0
6, 374160, Note_on_c, 4, 74, 105
6, 374784, Note_on_c, 4, 74, 0
6, 374880, Note_on_c, 4, 81, 105
6, 375360, Note_on_c, 4, 81, 0
6, 375360, Note_on_c, 4, 79, 105
6, 375840, Note_on_c, 4, 79, 0
6, 375840, Note_on_c, 4, 81, 105
6, 376224, Note_on_c, 4, 81, 0
6, 376320, Note_on_c, 4, 82, 105
6, 376512, Note_on_c, 4, 82, 0
6, 376560, Note_on_c, 4, 79, 105
6, 376944, Note_on_c, 4, 79, 0
6, 377040, Note_on_c, 4, 79, 105
6, 377424, Note_on_c, 4, 79, 0
6, 377520, Note_on_c, 4, 79, 105
6, 377904, Note_on_c, 4, 79, 0
6, 378000, Note_on_c, 4, 79, 105
6, 378192, Note_on_c, 4, 79, 0
6, 378240, Note_on_c, 4, 87, 105
6, 378432, Note_on_c, 4, 87, 0
6, 378480, Note_on_c, 4, 87, 105
6, 378864, Note_on_c, 4, 87, 0
6, 378960, Note_on_c, 4, 87, 105
6, 379152, Note_on_c, 4, 87, 0
6, 379200, Note_on_c, 4, 78, 105
6, 379392, Note_on_c, 4, 78, 0
6, 379440, Note_on_c, 4, 78, 105
6, 379824, Note_on_c, 4, 78, 0
6, 379920, Note_on_c, 4, 78, 105
6, 380112, Note_on_c, 4, 78, 0
6, 380160, Note_on_c, 4, 79, 105
6, 380472, Note_on_c, 4, 79, 0
6, 380640, Note_on_c, 4, 70, 105
6, 380952, Note_on_c, 4, 70, 0
6, 381120, Note_on_c, 4, 69, 105
6, 381432, Note_on_c, 4, 69, 0
6, 381600, Note_on_c, 4, 78, 105
6, 381912, Note_on_c, 4, 78, 0
6, 382080, Note_on_c, 4, 79, 105
6, 382392, Note_on_c, 4, 79, 0
6, 382560, Note_on_c, 4, 67, 105
6, 382872, Note_on_c, 4, 67, 0
6, 383520, Note_on_c, 4, 70, 80
6, 383760, Note_on_c, 4, 70, 0
6, 383760, Note_on_c, 4, 67, 80
6, 383952, Note_on_c, 4, 67, 0
6, 384000, Note_on_c, 4, 74, 80
6, 384408, Note_on_c, 4, 74, 0
6, 384480, Note_on_c, 4, 74, 80
6, 384888, Note_on_c, 4, 74, 0
6, 384960, Note_on_c, 4, 74, 80
6, 385368, Note_on_c, 4, 74, 0
6, 385440, Note_on_c, 4, 74, 80
6, 385848, Note_on_c, 4, 74, 0
6, 385920, Note_on_c, 4, 74, 80
6, 386880, Note_on_c, 4, 74, 0
6, 386880, Note_on_c, 4, 75, 70
6, 387288, Note_on_c, 4, 75, 0
6, 387360, Note_on_c, 4, 72, 70
6, 387768, Note_on_c, 4, 72, 0
6, 387840, Note_on_c, 4, 72, 80
6, 388320, Note_on_c, 4, 72, 0
6, 388320, Note_on_c, 4, 71, 80
6, 388728, Note_on_c, 4, 71, 0
6, 388800, Note_on_c, 4, 71, 80
6, 389208, Note_on_c, 4, 71, 0
6, 389280, Note_on_c, 4, 71, 80
6, 389688, Note_on_c, 4, 71, 0
6, 389760, Note_on_c, 4, 71, 80
6, 390720, Note_on_c, 4, 71, 0
6, 390720, Note_on_c, 4, 72, 70
6, 391032, Note_on_c, 4, 72, 0
6, 391200, Note_on_c, 4, 72, 70
6, 391440, Note_on_c, 4, 72, 0
6, 391440, Note_on_c, 4, 69, 80
6, 391632, Note_on_c, 4, 69, 0
6, 391680, Note_on_c, 4, 66, 80
6, 392088, Note_on_c, 4, 66, 0
6, 392160, Note_on_c, 4, 66, 80
6, 392568, Note_on_c, 4, 66, 0
6, 392640, Note_on_c, 4, 66, 80
6, 393048, Note_on_c, 4, 66, 0
6, 393120, Note_on_c, 4, 66, 80
6, 393528, Note_on_c, 4, 66, 0
6, 393600, Note_on_c, 4, 66, 80
6, 394560, Note_on_c, 4, 66, 0
6, 394560, Note_on_c, 4, 67, 70
6, 394944, Note_on_c, 4, 67, 0
6, 395040, Note_on_c, 4, 74, 70
6, 395904, Note_on_c, 4, 74, 0
6, 396000, Note_on_c, 4, 72, 70
6, 396768, Note_on_c, 4, 72, 0
6, 396960, Note_on_c, 4, 70, 70
6, 397920, Note_on_c, 4, 70, 0
6, 397920, Note_on_c, 4, 69, 58
6, 398304, Note_on_c, 4, 69, 0
6, 398880, Note_on_c, 4, 70, 58
6, 399744, Note_on_c, 4, 70, 0
6, 399840, Note_on_c, 4, 69, 70
6, 400608, Note_on_c, 4, 69, 0
6, 400800, Note_on_c, 4, 67, 70
6, 402240, Note_on_c, 4, 67, 0
6, 402240, Note_on_c, 4, 66, 80
6, 402480, Note_on_c, 4, 66, 0
6, 402480, Note_on_c, 4, 67, 80
6, 402720, Note_on_c, 4, 67, 0
6, 402720, Note_on_c, 4, 69, 80
6, 402960, Note_on_c, 4, 69, 0
6, 402960, Note_on_c, 4, 70, 80
6, 403200, Note_on_c, 4, 70, 0
6, 403200, Note_on_c, 4, 72, 70
6, 403584, Note_on_c, 4, 72, 0
6, 404160, Note_on_c, 4, 78, 70
6, 404400, Note_on_c, 4, 78, 0
6, 404400, Note_on_c, 4, 79, 70
6, 404640, Note_on_c, 4, 79, 0
6, 404640, Note_on_c, 4, 81, 70
6, 404880, Note_on_c, 4, 81, 0
6, 404880, Note_on_c, 4, 82, 70
6, 405120, Note_on_c, 4, 82, 0
6, 405120, Note_on_c, 4, 84, 70
6, 405504, Note_on_c, 4, 84, 0
6, 406080, Note_on_c, 4, 72, 105
6, 406224, Note_on_c, 4, 72, 0
6, 406320, Note_on_c, 4, 70, 105
6, 406464, Note_on_c, 4, 70, 0
6, 406560, Note_on_c, 4, 69, 105
6, 406704, Note_on_c, 4, 69, 0
6, 406800, Note_on_c, 4, 67, 105
6, 406944, Note_on_c, 4, 67, 0
6, 407040, Note_on_c, 4, 66, 105
6, 407280, Note_on_c, 4, 66, 0
6, 407280, Note_on_c, 4, 67, 105
6, 407424, Note_on_c, 4, 67, 0
6, 407520, Note_on_c, 4, 66, 105
6, 407664, Note_on_c, 4, 66, 0
6, 407760, Note_on_c, 4, 63, 105
6, 407904, Note_on_c, 4, 63, 0
6, 408000, Note_on_c, 4, 62, 105
6, 408144, Note_on_c, 4, 62, 0
6, 408240, Note_on_c, 4, 60, 105
6, 408384, Note_on_c, 4, 60, 0
6, 408480, Note_on_c, 4, 58, 105
6, 408624, Note_on_c, 4, 58, 0
6, 408720, Note_on_c, 4, 57, 105
6, 408864, Note_on_c, 4, 57, 0
6, 408960, Note_on_c, 4, 55, 105
6, 409272, Note_on_c, 4, 55, 0
6, 409440, Note_on_c, 4, 67, 105
6, 409752, Note_on_c, 4, 67, 0
6, 409920, Note_on_c, 4, 75, 105
6, 410496, Note_on_c, 4, 75, 0
6, 410640, Note_on_c, 4, 74, 105
6, 410832, Note_on_c, 4, 74, 0
6, 410880, Note_on_c, 4, 73, 105
6, 411144, Note_on_c, 4, 73, 0
6, 411360, Note_on_c, 4, 74, 105
6, 411624, Note_on_c, 4, 74, 0
6, 411840, Note_on_c, 4, 72, 105
6, 412416, Note_on_c, 4, 72, 0
6, 412560, Note_on_c, 4, 70, 105
6, 412752, Note_on_c, 4, 70, 0
6, 412800, Note_on_c, 4, 69, 105
6, 413064, Note_on_c, 4, 69, 0
6, 413280, Note_on_c, 4, 70, 105
6, 413544, Note_on_c, 4, 70, 0
6, 413760, Note_on_c, 4, 84, 105
6, 414336, Note_on_c, 4, 84, 0
6, 414480, Note_on_c, 4, 82, 105
6, 414672, Note_on_c, 4, 82, 0
6, 414720, Note_on_c, 4, 81, 105
6, 414984, Note_on_c, 4, 81, 0
6, 415200, Note_on_c, 4, 82, 105
6, 415464, Note_on_c, 4, 82, 0
6, 415680, Note_on_c, 4, 80, 105
6, 416256, Note_on_c, 4, 80, 0
6, 416400, Note_on_c, 4, 79, 105
6, 416592, Note_on_c, 4, 79, 0
6, 416640, Note_on_c, 4, 78, 105
6, 416904, Note_on_c, 4, 78, 0
6, 417120, Note_on_c, 4, 79, 105
6, 417384, Note_on_c, 4, 79, 0
6, 417600, Note_on_c, 4, 72, 105
6, 418176, Note_on_c, 4, 72, 0
6, 418320, Note_on_c, 4, 72, 105
6, 418512, Note_on_c, 4, 72, 0
6, 418560, Note_on_c, 4, 78, 105
6, 419136, Note_on_c, 4, 78, 0
6, 419280, Note_on_c, 4, 78, 105
6, 419472, Note_on_c, 4, 78, 0
6, 419520, Note_on_c, 4, 84, 105
6, 420096, Note_on_c, 4, 84, 0
6, 420240, Note_on_c, 4, 84, 105
6, 420432, Note_on_c, 4, 84, 0
6, 420480, Note_on_c, 4, 82, 105
6, 420636, Note_on_c, 4, 82, 0
6, 420720, Note_on_c, 4, 81, 105
6, 420876, Note_on_c, 4, 81, 0
6, 420960, Note_on_c, 4, 79, 105
6, 421116, Note_on_c, 4, 79, 0
6, 421200, Note_on_c, 4, 77, 105
6, 421356, Note_on_c, 4, 77, 0
6, 421440, Note_on_c, 4, 75, 105
6, 421596, Note_on_c, 4, 75, 0
6, 421680, Note_on_c, 4, 74, 105
6, 421836, Note_on_c, 4, 74, 0
6, 421920, Note_on_c, 4, 72, 105
6, 422076, Note_on_c, 4, 72, 0
6, 422160, Note_on_c, 4, 70, 105
6, 422316, Note_on_c, 4, 70, 0
6, 422400, Note_on_c, 4, 69, 105
6, 422688, Note_on_c, 4, 69, 0
6, 422880, Note_on_c, 4, 75, 105
6, 423168, Note_on_c, 4, 75, 0
6, 423360, Note_on_c, 4, 74, 105
6, 423648, Note_on_c, 4, 74, 0
6, 423840, Note_on_c, 4, 78, 105
6, 424128, Note_on_c, 4, 78, 0
6, 424320, Note_on_c, 4, 79, 105
6, 424608, Note_on_c, 4, 79, 0
6, 424800, Note_on_c, 4, 62, 105
6, 425088, Note_on_c, 4, 62, 0
6, 425280, Note_on_c, 4, 70, 105
6, 425856, Note_on_c, 4, 70, 0
6, 426000, Note_on_c, 4, 69, 105
6, 426192, Note_on_c, 4, 69, 0
6, 426240, Note_on_c, 4, 67, 105
6, 426528, Note_on_c, 4, 67, 0
6, 426720, Note_on_c, 4, 62, 105
6, 427008, Note_on_c, 4, 62, 0
6, 427200, Note_on_c, 4, 58, 105
6, 427488, Note_on_c, 4, 58, 0
6, 427680, Note_on_c, 4, 55, 105
6, 427968, Note_on_c, 4, 55, 0
6, 428160, Note_on_c, 4, 62, 92
6, 428448, Note_on_c, 4, 62, 0
6, 432000, Note_on_c, 4, 74, 70
6, 432312, Note_on_c, 4, 74, 0
6, 432480, Note_on_c, 4, 69, 70
6, 432792, Note_on_c, 4, 69, 0
6, 432960, Note_on_c, 4, 78, 70
6, 433536, Note_on_c, 4, 78, 0
6, 433680, Note_on_c, 4, 76, 70
6, 433872, Note_on_c, 4, 76, 0
6, 433920, Note_on_c, 4, 74, 70
6, 434232, Note_on_c, 4, 74, 0
6, 434400, Note_on_c, 4, 81, 70
6, 434712, Note_on_c, 4, 81, 0
6, 434880, Note_on_c, 4, 78, 70
6, 435192, Note_on_c, 4, 78, 0
6, 435360, Note_on_c, 4, 74, 70
6, 435672, Note_on_c, 4, 74, 0
6, 435840, Note_on_c, 4, 79, 70
6, 436224, Note_on_c, 4, 79, 0
6, 436560, Note_on_c, 4, 74, 80
6, 436752, Note_on_c, 4, 74, 0
6, 436800, Note_on_c, 4, 70, 80
6, 437520, Note_on_c, 4, 70, 0
6, 437520, Note_on_c, 4, 72, 80
6, 437712, Note_on_c, 4, 72, 0
6, 437760, Note_on_c, 4, 69, 80
6, 438480, Note_on_c, 4, 69, 0
6, 438480, Note_on_c, 4, 70, 80
6, 438672, Note_on_c, 4, 70, 0
6, 438720, Note_on_c, 4, 72, 80
6, 439440, Note_on_c, 4, 72, 0
6, 439440, Note_on_c, 4, 74, 80
6, 439632, Note_on_c, 4, 74, 0
6, 439680, Note_on_c, 4, 70, 80
6, 440400, Note_on_c, 4, 70, 0
6, 440400, Note_on_c, 4, 74, 80
6, 440592, Note_on_c, 4, 74, 0
6, 440640, Note_on_c, 4, 79, 80
6, 441360, Note_on_c, 4, 79, 0
6, 441360, Note_on_c, 4, 82, 80
6, 441552, Note_on_c, 4, 82, 0
6, 441600, Note_on_c, 4, 81, 80
6, 442320, Note_on_c, 4, 81, 0
6, 442320, Note_on_c, 4, 84, 80
6, 442512, Note_on_c, 4, 84, 0
6, 442560, Note_on_c, 4, 74, 80
6, 443280, Note_on_c, 4, 74, 0
6, 443280, Note_on_c, 4, 78, 80
6, 443472, Note_on_c, 4, 78, 0
6, 443520, Note_on_c, 4, 79, 70
6, 443904, Note_on_c, 4, 79, 0
6, 444240, Note_on_c, 4, 74, 80
6, 444432, Note_on_c, 4, 74, 0
6, 444480, Note_on_c, 4, 70, 80
6, 445200, Note_on_c, 4, 70, 0
6, 445200, Note_on_c, 4, 72, 80
6, 445392, Note_on_c, 4, 72, 0
6, 445440, Note_on_c, 4, 69, 80
6, 446160, Note_on_c, 4, 69, 0
6, 446160, Note_on_c, 4, 70, 80
6, 446352, Note_on_c, 4, 70, 0
6, 446400, Note_on_c, 4, 72, 80
6, 447120, Note_on_c, 4, 72, 0
6, 447120, Note_on_c, 4, 74, 80
6, 447312, Note_on_c, 4, 74, 0
6, 447360, Note_on_c, 4, 70, 80
6, 448080, Note_on_c, 4, 70, 0
6, 448080, Note_on_c, 4, 74, 80
6, 448272, Note_on_c, 4, 74, 0
6, 448320, Note_on_c, 4, 79, 80
6, 449040, Note_on_c, 4, 79, 0
6, 449040, Note_on_c, 4, 82, 80
6, 449232, Note_on_c, 4, 82, 0
6, 449280, Note_on_c, 4, 81, 80
6, 450000, Note_on_c, 4, 81, 0
6, 450000, Note_on_c, 4, 84, 80
6, 450192, Note_on_c, 4, 84, 0
6, 450240, Note_on_c, 4, 74, 80
6, 450960, Note_on_c, 4, 74, 0
6, 450960, Note_on_c, 4, 78, 80
6, 451152, Note_on_c, 4, 78, 0
6, 451200, Note_on_c, 4, 79, 80
6, 451392, Note_on_c, 4, 79, 0
6, 451440, Note_on_c, 4, 86, 80
6, 451824, Note_on_c, 4, 86, 0
6, 451920, Note_on_c, 4, 86, 105
6, 452304, Note_on_c, 4, 86, 0
6, 452400, Note_on_c, 4, 86, 105
6, 452784, Note_on_c, 4, 86, 0
6, 452880, Note_on_c, 4, 86, 105
6, 453312, Note_on_c, 4, 86, 0
6, 453360, Note_on_c, 4, 86, 105
6, 453744, Note_on_c, 4, 86, 0
6, 453840, Note_on_c, 4, 86, 105
6, 454224, Note_on_c, 4, 86, 0
6, 454320, Note_on_c, 4, 86, 105
6, 454704, Note_on_c, 4, 86, 0
6, 454800, Note_on_c, 4, 86, 105
6, 455232, Note_on_c, 4, 86, 0
6, 455280, Note_on_c, 4, 86, 105
6, 455664, Note_on_c, 4, 86, 0
6, 455760, Note_on_c, 4, 86, 105
6, 456144, Note_on_c, 4, 86, 0
6, 456240, Note_on_c, 4, 86, 105
6, 456624, Note_on_c, 4, 86, 0
6, 456720, Note_on_c, 4, 86, 105
6, 457152, Note_on_c, 4, 86, 0
6, 457200, Note_on_c, 4, 86, 105
6, 457584, Note_on_c, 4, 86, 0
6, 457680, Note_on_c, 4, 86, 105
6, 458064, Note_on_c, 4, 86, 0
6, 458160, Note_on_c, 4, 86, 105
6, 458544, Note_on_c, 4, 86, 0
6, 458640, Note_on_c, 4, 86, 105
6, 459072, Note_on_c, 4, 86, 0
6, 459120, Note_on_c, 4, 79, 105
6, 459504, Note_on_c, 4, 79, 0
6, 459600, Note_on_c, 4, 79, 105
6, 459792, Note_on_c, 4, 79, 0
6, 459840, Note_on_c, 4, 77, 105
6, 460032, Note_on_c, 4, 77, 0
6, 460080, Note_on_c, 4, 77, 105
6, 460464, Note_on_c, 4, 77, 0
6, 460560, Note_on_c, 4, 77, 105
6, 460752, Note_on_c, 4, 77, 0
6, 460800, Note_on_c, 4, 75, 105
6, 460992, Note_on_c, 4, 75, 0
6, 461040, Note_on_c, 4, 75, 105
6, 461424, Note_on_c, 4, 75, 0
6, 461520, Note_on_c, 4, 75, 105
6, 461712, Note_on_c, 4, 75, 0
6, 461760, Note_on_c, 4, 73, 105
6, 461952, Note_on_c, 4, 73, 0
6, 462000, Note_on_c, 4, 73, 105
6, 462384, Note_on_c, 4, 73, 0
6, 462480, Note_on_c, 4, 73, 105
6, 462672, Note_on_c, 4, 73, 0
6, 462720, Note_on_c, 4, 74, 105
6, 462912, Note_on_c, 4, 74, 0
6, 462960, Note_on_c, 4, 74, 105
6, 463344, Note_on_c, 4, 74, 0
6, 463440, Note_on_c, 4, 74, 105
6, 463632, Note_on_c, 4, 74, 0
6, 463680, Note_on_c, 4, 72, 105
6, 463872, Note_on_c, 4, 72, 0
6, 463920, Note_on_c, 4, 72, 105
6, 464304, Note_on_c, 4, 72, 0
6, 464400, Note_on_c, 4, 72, 105
6, 464592, Note_on_c, 4, 72, 0
6, 464640, Note_on_c, 4, 70, 105
6, 464952, Note_on_c, 4, 70, 0
6, 465120, Note_on_c, 4, 79, 105
6, 465432, Note_on_c, 4, 79, 0
6, 465600, Note_on_c, 4, 75, 105
6, 465912, Note_on_c, 4, 75, 0
6, 466080, Note_on_c, 4, 66, 105
6, 466080, Note_on_c, 4, 57, 105
6, 466392, Note_on_c, 4, 57, 0
6, 466392, Note_on_c, 4, 66, 0
6, 466560, Note_on_c, 4, 67, 105
6, 466560, Note_on_c, 4, 55, 105
6, 466752, Note_on_c, 4, 55, 0
6, 466752, Note_on_c, 4, 67, 0
6, 466800, Note_on_c, 4, 79, 105
6, 467184, Note_on_c, 4, 79, 0
6, 467280, Note_on_c, 4, 79, 105
6, 467472, Note_on_c, 4, 79, 0
6, 467520, Note_on_c, 4, 77, 105
6, 467712, Note_on_c, 4, 77, 0
6, 467760, Note_on_c, 4, 77, 105
6, 468144, Note_on_c, 4, 77, 0
6, 468240, Note_on_c, 4, 77, 105
6, 468432, Note_on_c, 4, 77, 0
6, 468480, Note_on_c, 4, 75, 105
6, 468672, Note_on_c, 4, 75, 0
6, 468720, Note_on_c, 4, 75, 105
6, 469104, Note_on_c, 4, 75, 0
6, 469200, Note_on_c, 4, 75, 105
6, 469392, Note_on_c, 4, 75, 0
6, 469440, Note_on_c, 4, 73, 105
6, 469632, Note_on_c, 4, 73, 0
6, 469680, Note_on_c, 4, 73, 105
6, 470064, Note_on_c, 4, 73, 0
6, 470160, Note_on_c, 4, 73, 105
6, 470352, Note_on_c, 4, 73, 0
6, 470400, Note_on_c, 4, 74, 105
6, 470592, Note_on_c, 4, 74, 0
6, 470640, Note_on_c, 4, 74, 105
6, 471024, Note_on_c, 4, 74, 0
6, 471120, Note_on_c, 4, 74, 105
6, 471312, Note_on_c, 4, 74, 0
6, 471360, Note_on_c, 4, 84, 105
6, 471552, Note_on_c, 4, 84, 0
6, 471600, Note_on_c, 4, 84, 105
6, 471984, Note_on_c, 4, 84, 0
6, 472080, Note_on_c, 4, 84, 105
6, 472272, Note_on_c, 4, 84, 0
6, 472320, Note_on_c, 4, 82, 105
6, 472608, Note_on_c, 4, 82, 0
6, 472800, Note_on_c, 4, 86, 105
6, 473088, Note_on_c, 4, 86, 0
6, 473280, Note_on_c, 4, 87, 105
6, 473568, Note_on_c, 4, 87, 0
6, 473760, Note_on_c, 4, 62, 105
6, 473760, Note_on_c, 4, 69, 105
6, 473760, Note_on_c, 4, 78, 105
6, 474048, Note_on_c, 4, 78, 0
6, 474048, Note_on_c, 4, 69, 0
6, 474048, Note_on_c, 4, 62, 0
6, 474240, Note_on_c, 4, 62, 105
6, 474240, Note_on_c, 4, 79, 105
6, 474240, Note_on_c, 4, 70, 105
6, 474528, Note_on_c, 4, 70, 0
6, 474528, Note_on_c, 4, 79, 0
6, 474528, Note_on_c, 4, 62, 0
6, 474720, Note_on_c, 4, 55, 105
6, 475008, Note_on_c, 4, 55, 0
6, 475200, Note_on_c, 4, 70, 105
6, 475776, Note_on_c, 4, 70, 0
6, 475920, Note_on_c, 4, 69, 105
6, 476112, Note_on_c, 4, 69, 0
6, 476160, Note_on_c, 4, 67, 105
6, 476736, Note_on_c, 4, 67, 0
6, 476880, Note_on_c, 4, 65, 105
6, 477072, Note_on_c, 4, 65, 0
6, 477120, Note_on_c, 4, 63, 105
6, 477696, Note_on_c, 4, 63, 0
6, 477840, Note_on_c, 4, 62, 105
6, 478032, Note_on_c, 4, 62, 0
6, 478080, Note_on_c, 4, 60, 105
6, 478440, Note_on_c, 4, 60, 0
6, 478560, Note_on_c, 4, 66, 105
6, 478740, Note_on_c, 4, 66, 0
6, 478800, Note_on_c, 4, 67, 116
6, 478980, Note_on_c, 4, 67, 0
6, 479040, Note_on_c, 4, 69, 116
6, 479220, Note_on_c, 4, 69, 0
6, 479280, Note_on_c, 4, 70, 116
6, 479460, Note_on_c, 4, 70, 0
6, 479520, Note_on_c, 4, 72, 116
6, 479700, Note_on_c, 4, 72, 0
6, 479760, Note_on_c, 4, 70, 116
6, 479940, Note_on_c, 4, 70, 0
6, 480000, Note_on_c, 4, 72, 116
6, 480360, Note_on_c, 4, 72, 0
6, 480480, Note_on_c, 4, 66, 116
6, 480660, Note_on_c, 4, 66, 0
6, 480720, Note_on_c, 4, 67, 116
6, 480900, Note_on_c, 4, 67, 0
6, 480960, Note_on_c, 4, 69, 116
6, 481140, Note_on_c, 4, 69, 0
6, 481200, Note_on_c, 4, 70, 116
6, 481380, Note_on_c, 4, 70, 0
6, 481440, Note_on_c, 4, 72, 116
6, 481620, Note_on_c, 4, 72, 0
6, 481680, Note_on_c, 4, 70, 116
6, 481860, Note_on_c, 4, 70, 0
6, 481920, Note_on_c, 4, 72, 116
6, 482280, Note_on_c, 4, 72, 0
6, 482400, Note_on_c, 4, 66, 116
6, 482580, Note_on_c, 4, 66, 0
6, 482640, Note_on_c, 4, 67, 116
6, 482820, Note_on_c, 4, 67, 0
6, 482880, Note_on_c, 4, 69, 116
6, 483060, Note_on_c, 4, 69, 0
6, 483120, Note_on_c, 4, 70, 116
6, 483300, Note_on_c, 4, 70, 0
6, 483360, Note_on_c, 4, 72, 116
6, 483540, Note_on_c, 4, 72, 0
6, 483600, Note_on_c, 4, 70, 116
6, 483780, Note_on_c, 4, 70, 0
6, 483840, Note_on_c, 4, 72, 116
6, 484128, Note_on_c, 4, 72, 0
6, 484320, Note_on_c, 4, 70, 116
6, 484608, Note_on_c, 4, 70, 0
6, 484800, Note_on_c, 4, 75, 116
6, 485088, Note_on_c, 4, 75, 0
6, 485280, Note_on_c, 4, 66, 116
6, 485280, Note_on_c, 4, 57, 116
6, 485568, Note_on_c, 4, 57, 0
6, 485568, Note_on_c, 4, 66, 0
6, 485760, Note_on_c, 4, 55, 110
6, 485760, Note_on_c, 4, 67, 70
6, 486144, Note_on_c, 4, 67, 0
6, 486144, Note_on_c, 4, 55, 0
6, 486240, Note_on_c, 4, 66, 70
6, 486420, Note_on_c, 4, 66, 0
6, 486480, Note_on_c, 4, 67, 70
6, 486660, Note_on_c, 4, 67, 0
6, 486720, Note_on_c, 4, 69, 70
6, 486900, Note_on_c, 4, 69, 0
6, 486960, Note_on_c, 4, 70, 70
6, 487140, Note_on_c, 4, 70, 0
6, 487200, Note_on_c, 4, 72, 70
6, 487380, Note_on_c, 4, 72, 0
6, 487440, Note_on_c, 4, 70, 70
6, 487620, Note_on_c, 4, 70, 0
6, 487680, Note_on_c, 4, 72, 70
6, 487968, Note_on_c, 4, 72, 0
6, 488160, Note_on_c, 4, 66, 70
6, 488340, Note_on_c, 4, 66, 0
6, 488400, Note_on_c, 4, 67, 70
6, 488580, Note_on_c, 4, 67, 0
6, 488640, Note_on_c, 4, 69, 70
6, 488820, Note_on_c, 4, 69, 0
6, 488880, Note_on_c, 4, 70, 70
6, 489060, Note_on_c, 4, 70, 0
6, 489120, Note_on_c, 4, 72, 70
6, 489300, Note_on_c, 4, 72, 0
6, 489360, Note_on_c, 4, 70, 70
6, 489540, Note_on_c, 4, 70, 0
6, 489600, Note_on_c, 4, 72, 70
6, 489888, Note_on_c, 4, 72, 0
6, 490080, Note_on_c, 4, 78, 116
6, 490260, Note_on_c, 4, 78, 0
6, 490320, Note_on_c, 4, 79, 116
6, 490500, Note_on_c, 4, 79, 0
6, 490560, Note_on_c, 4, 81, 116
6, 490740, Note_on_c, 4, 81, 0
6, 490800, Note_on_c, 4, 82, 116
6, 490980, Note_on_c, 4, 82, 0
6, 491040, Note_on_c, 4, 84, 116
6, 491220, Note_on_c, 4, 84, 0
6, 491280, Note_on_c, 4, 82, 116
6, 491460, Note_on_c, 4, 82, 0
6, 491520, Note_on_c, 4, 84, 116
6, 491808, Note_on_c, 4, 84, 0
6, 492000, Note_on_c, 4, 82, 116
6, 492288, Note_on_c, 4, 82, 0
6, 492480, Note_on_c, 4, 87, 116
6, 492768, Note_on_c, 4, 87, 0
6, 492960, Note_on_c, 4, 62, 116
6, 492960, Note_on_c, 4, 69, 116
6, 492960, Note_on_c, 4, 78, 116
6, 493248, Note_on_c, 4, 78, 0
6, 493248, Note_on_c, 4, 69, 0
6, 493248, Note_on_c, 4, 62, 0
6, 493440, Note_on_c, 4, 70, 116
6, 493440, Note_on_c, 4, 79, 116
6, 493440, Note_on_c, 4, 62, 116
6, 493728, Note_on_c, 4, 62, 0
6, 493728, Note_on_c, 4, 79, 0
6, 493728, Note_on_c, 4, 70, 0
6, 493920, Note_on_c, 4, 55, 116
6, 494208, Note_on_c, 4, 55, 0
6, 494400, Note_on_c, 4, 70, 116
6, 494976, Note_on_c, 4, 70, 0
6, 495120, Note_on_c, 4, 69, 116
6, 495312, Note_on_c, 4, 69, 0
6, 495360, Note_on_c, 4, 67, 116
6, 495648, Note_on_c, 4, 67, 0
6, 495840, Note_on_c, 4, 55, 116
6, 496128, Note_on_c, 4, 55, 0
6, 496320, Note_on_c, 4, 70, 116
6, 496896, Note_on_c, 4, 70, 0
6, 497040, Note_on_c, 4, 69, 116
6, 497232, Note_on_c, 4, 69, 0
6, 497280, Note_on_c, 4, 67, 116
6, 498048, Note_on_c, 4, 67, 0
6, 498240, Note_on_c, 4, 58, 80
6, 499200, Note_on_c, 4, 58, 0
6, 499200, Note_on_c, 4, 60, 70
6, 500160, Note_on_c, 4, 60, 0
6, 500160, Note_on_c, 4, 61, 70
6, 501120, Note_on_c, 4, 61, 0
6, 501120, Note_on_c, 4, 62, 70
6, 501888, Note_on_c, 4, 62, 0
6, 502080, Note_on_c, 4, 74, 70
6, 503400, Note_on_c, 4, 74, 0
6, 503520, Note_on_c, 4, 75, 70
6, 503700, Note_on_c, 4, 75, 0
6, 503760, Note_on_c, 4, 72, 70
6, 503940, Note_on_c, 4, 72, 0
6, 504000, Note_on_c, 4, 70, 70
6, 504360, Note_on_c, 4, 70, 0
6, 504480, Note_on_c, 4, 72, 70
6, 504660, Note_on_c, 4, 72, 0
6, 504720, Note_on_c, 4, 69, 70
6, 504900, Note_on_c, 4, 69, 0
6, 504960, Note_on_c, 4, 67, 105
6, 505344, Note_on_c, 4, 67, 0
6, 505440, Note_on_c, 4, 68, 105
6, 505632, Note_on_c, 4, 68, 0
6, 505680, Note_on_c, 4, 65, 105
6, 505872, Note_on_c, 4, 65, 0
6, 505920, Note_on_c, 4, 63, 105
6, 506304, Note_on_c, 4, 63, 0
6, 506400, Note_on_c, 4, 65, 105
6, 506592, Note_on_c, 4, 65, 0
6, 506640, Note_on_c, 4, 62, 105
6, 506832, Note_on_c, 4, 62, 0
6, 506880, Note_on_c, 4, 60, 105
6, 507264, Note_on_c, 4, 60, 0
6, 507360, Note_on_c, 4, 62, 105
6, 507552, Note_on_c, 4, 62, 0
6, 507600, Note_on_c, 4, 58, 105
6, 507792, Note_on_c, 4, 58, 0
6, 507840, Note_on_c, 4, 57, 105
6, 508224, Note_on_c, 4, 57, 0
6, 508320, Note_on_c, 4, 58, 105
6, 508512, Note_on_c, 4, 58, 0
6, 508560, Note_on_c, 4, 55, 105
6, 508752, Note_on_c, 4, 55, 0
6, 508800, Note_on_c, 4, 82, 105
6, 508992, Note_on_c, 4, 82, 0
6, 509040, Note_on_c, 4, 82, 105
6, 509232, Note_on_c, 4, 82, 0
6, 509280, Note_on_c, 4, 79, 105
6, 509472, Note_on_c, 4, 79, 0
6, 509520, Note_on_c, 4, 79, 105
6, 509712, Note_on_c, 4, 79, 0
6, 509760, Note_on_c, 4, 76, 105
6, 509952, Note_on_c, 4, 76, 0
6, 510000, Note_on_c, 4, 76, 105
6, 510192, Note_on_c, 4, 76, 0
6, 510240, Note_on_c, 4, 73, 105
6, 510432, Note_on_c, 4, 73, 0
6, 510480, Note_on_c, 4, 73, 105
6, 510672, Note_on_c, 4, 73, 0
6, 510720, Note_on_c, 4, 70, 105
6, 510912, Note_on_c, 4, 70, 0
6, 510960, Note_on_c, 4, 70, 105
6, 511152, Note_on_c, 4, 70, 0
6, 511200, Note_on_c, 4, 67, 105
6, 511392, Note_on_c, 4, 67, 0
6, 511440, Note_on_c, 4, 67, 105
6, 511632, Note_on_c, 4, 67, 0
6, 511680, Note_on_c, 4, 64, 105
6, 511872, Note_on_c, 4, 64, 0
6, 511920, Note_on_c, 4, 64, 105
6, 512112, Note_on_c, 4, 64, 0
6, 512160, Note_on_c, 4, 61, 105
6, 512352, Note_on_c, 4, 61, 0
6, 512400, Note_on_c, 4, 61, 105
6, 512592, Note_on_c, 4, 61, 0
6, 512640, Note_on_c, 4, 62, 116
6, 513024, Note_on_c, 4, 62, 0
6, 513120, Note_on_c, 4, 67, 116
6, 513312, Note_on_c, 4, 67, 0
6, 513360, Note_on_c, 4, 66, 116
6, 513552, Note_on_c, 4, 66, 0
6, 513600, Note_on_c, 4, 67, 116
6, 513984, Note_on_c, 4, 67, 0
6, 514080, Note_on_c, 4, 75, 116
6, 514272, Note_on_c, 4, 75, 0
6, 514320, Note_on_c, 4, 74, 116
6, 514512, Note_on_c, 4, 74, 0
6, 514560, Note_on_c, 4, 75, 116
6, 514944, Note_on_c, 4, 75, 0
6, 515040, Note_on_c, 4, 69, 116
6, 515232, Note_on_c, 4, 69, 0
6, 515280, Note_on_c, 4, 68, 116
6, 515472, Note_on_c, 4, 68, 0
6, 515520, Note_on_c, 4, 69, 116
6, 515904, Note_on_c, 4, 69, 0
6, 516000, Note_on_c, 4, 74, 116
6, 516192, Note_on_c, 4, 74, 0
6, 516240, Note_on_c, 4, 73, 116
6, 516432, Note_on_c, 4, 73, 0
6, 516480, Note_on_c, 4, 74, 116
6, 517248, Note_on_c, 4, 74, 0
6, 517440, Note_on_c, 4, 62, 105
6, 517440, Note_on_c, 4, 69, 105
6, 517440, Note_on_c, 4, 78, 105
6, 518208, Note_on_c, 4, 78, 0
6, 518208, Note_on_c, 4, 69, 0
6, 518208, Note_on_c, 4, 62, 0
6, 518400, Note_on_c, 4, 79, 105
6, 518400, Note_on_c, 4, 70, 105
6, 518400, Note_on_c, 4, 62, 105
6, 518400, Note_on_c, 4, 55, 105
6, 519360, Note_on_c, 4, 55, 0
6, 519360, Note_on_c, 4, 79, 0
6, 519360, Note_on_c, 4, 70, 0
6, 519360, Note_on_c, 4, 62, 0
6, 519360, End_track
7, 0, Start_track
7, 0, Program_c, 5, 48
7, 0, Control_c, 5, 7, 127
7, 0, Control_c, 5, 10, 45
7, 0, Control_c, 5, 91, 85
7, 1920, Note_on_c, 5, 67, 58
7, 2232, Note_on_c, 5, 67, 0
7, 2400, Note_on_c, 5, 62, 58
7, 2712, Note_on_c, 5, 62, 0
7, 2880, Note_on_c, 5, 70, 58
7, 3420, Note_on_c, 5, 70, 0
7, 3600, Note_on_c, 5, 69, 58
7, 3756, Note_on_c, 5, 69, 0
7, 3840, Note_on_c, 5, 67, 58
7, 4152, Note_on_c, 5, 67, 0
7, 4320, Note_on_c, 5, 70, 58
7, 4800, Note_on_c, 5, 70, 0
7, 4800, Note_on_c, 5, 69, 58
7, 5280, Note_on_c, 5, 69, 0
7, 5280, Note_on_c, 5, 67, 58
7, 5736, Note_on_c, 5, 67, 0
7, 5760, Note_on_c, 5, 66, 58
7, 6072, Note_on_c, 5, 66, 0
7, 6240, Note_on_c, 5, 62, 58
7, 6552, Note_on_c, 5, 62, 0
7, 6720, Note_on_c, 5, 72, 58
7, 7260, Note_on_c, 5, 72, 0
7, 7440, Note_on_c, 5, 70, 58
7, 7596, Note_on_c, 5, 70, 0
7, 7680, Note_on_c, 5, 69, 58
7, 7992, Note_on_c, 5, 69, 0
7, 8160, Note_on_c, 5, 72, 58
7, 8640, Note_on_c, 5, 72, 0
7, 8640, Note_on_c, 5, 70, 58
7, 9120, Note_on_c, 5, 70, 0
7, 9120, Note_on_c, 5, 69, 58
7, 9576, Note_on_c, 5, 69, 0
7, 9600, Note_on_c, 5, 67, 58
7, 9912, Note_on_c, 5, 67, 0
7, 10080, Note_on_c, 5, 70, 58
7, 10392, Note_on_c, 5, 70, 0
7, 10560, Note_on_c, 5, 75, 58
7, 11064, Note_on_c, 5, 75, 0
7, 11280, Note_on_c, 5, 74, 58
7, 11436, Note_on_c, 5, 74, 0
7, 11520, Note_on_c, 5, 72, 58
7, 11832, Note_on_c, 5, 72, 0
7, 12000, Note_on_c, 5, 69, 58
7, 12312, Note_on_c, 5, 69, 0
7, 12480, Note_on_c, 5, 74, 58
7, 12984, Note_on_c, 5, 74, 0
7, 13200, Note_on_c, 5, 72, 58
7, 13356, Note_on_c, 5, 72, 0
7, 13440, Note_on_c, 5, 70, 58
7, 13752, Note_on_c, 5, 70, 0
7, 13920, Note_on_c, 5, 67, 58
7, 14232, Note_on_c, 5, 67, 0
7, 14400, Note_on_c, 5, 63, 58
7, 14712, Note_on_c, 5, 63, 0
7, 14880, Note_on_c, 5, 61, 58
7, 15192, Note_on_c, 5, 61, 0
7, 15360, Note_on_c, 5, 62, 58
7, 15672, Note_on_c, 5, 62, 0
7, 15840, Note_on_c, 5, 72, 58
7, 16320, Note_on_c, 5, 72, 0
7, 16320, Note_on_c, 5, 70, 58
7, 16800, Note_on_c, 5, 70, 0
7, 16800, Note_on_c, 5, 69, 58
7, 17112, Note_on_c, 5, 69, 0
7, 17280, Note_on_c, 5, 67, 105
7, 17472, Note_on_c, 5, 67, 0
7, 17520, Note_on_c, 5, 74, 105
7, 17904, Note_on_c, 5, 74, 0
7, 18000, Note_on_c, 5, 74, 105
7, 18384, Note_on_c, 5, 74, 0
7, 18480, Note_on_c, 5, 74, 105
7, 18864, Note_on_c, 5, 74, 0
7, 18960, Note_on_c, 5, 74, 105
7, 19584, Note_on_c, 5, 74, 0
7, 19680, Note_on_c, 5, 74, 105
7, 20160, Note_on_c, 5, 74, 0
7, 20160, Note_on_c, 5, 72, 105
7, 20640, Note_on_c, 5, 72, 0
7, 20640, Note_on_c, 5, 70, 105
7, 21024, Note_on_c, 5, 70, 0
7, 21120, Note_on_c, 5, 69, 105
7, 21312, Note_on_c, 5, 69, 0
7, 21360, Note_on_c, 5, 74, 105
7, 21744, Note_on_c, 5, 74, 0
7, 21840, Note_on_c, 5, 74, 105
7, 22224, Note_on_c, 5, 74, 0
7, 22320, Note_on_c, 5, 74, 105
7, 22704, Note_on_c, 5, 74, 0
7, 22800, Note_on_c, 5, 74, 105
7, 23424, Note_on_c, 5, 74, 0
7, 23520, Note_on_c, 5, 75, 105
7, 24000, Note_on_c, 5, 75, 0
7, 24000, Note_on_c, 5, 74, 105
7, 24480, Note_on_c, 5, 74, 0
7, 24480, Note_on_c, 5, 78, 105
7, 24864, Note_on_c, 5, 78, 0
7, 24960, Note_on_c, 5, 79, 105
7, 25152, Note_on_c, 5, 79, 0
7, 25200, Note_on_c, 5, 79, 105
7, 25584, Note_on_c, 5, 79, 0
7, 25680, Note_on_c, 5, 79, 105
7, 26064, Note_on_c, 5, 79, 0
7, 26160, Note_on_c, 5, 79, 105
7, 26544, Note_on_c, 5, 79, 0
7, 26640, Note_on_c, 5, 79, 105
7, 26832, Note_on_c, 5, 79, 0
7, 26880, Note_on_c, 5, 87, 105
7, 27072, Note_on_c, 5, 87, 0
7, 27120, Note_on_c, 5, 87, 105
7, 27504, Note_on_c, 5, 87, 0
7, 27600, Note_on_c, 5, 87, 105
7, 27792, Note_on_c, 5, 87, 0
7, 27840, Note_on_c, 5, 78, 105
7, 28032, Note_on_c, 5, 78, 0
7, 28080, Note_on_c, 5, 78, 105
7, 28464, Note_on_c, 5, 78, 0
7, 28560, Note_on_c, 5, 78, 105
7, 28752, Note_on_c, 5, 78, 0
7, 28800, Note_on_c, 5, 79, 105
7, 29112, Note_on_c, 5, 79, 0
7, 29280, Note_on_c, 5, 70, 105
7, 29592, Note_on_c, 5, 70, 0
7, 29760, Note_on_c, 5, 69, 105
7, 30072, Note_on_c, 5, 69, 0
7, 30240, Note_on_c, 5, 78, 105
7, 30552, Note_on_c, 5, 78, 0
7, 30720, Note_on_c, 5, 79, 105
7, 31032, Note_on_c, 5, 79, 0
7, 31200, Note_on_c, 5, 67, 105
7, 31512, Note_on_c, 5, 67, 0
7, 33600, Note_on_c, 5, 72, 58
7, 34368, Note_on_c, 5, 72, 0
7, 34560, Note_on_c, 5, 72, 58
7, 35520, Note_on_c, 5, 72, 0
7, 35520, Note_on_c, 5, 70, 58
7, 35904, Note_on_c, 5, 70, 0
7, 37920, Note_on_c, 5, 70, 58
7, 38304, Note_on_c, 5, 70, 0
7, 38400, Note_on_c, 5, 65, 58
7, 39744, Note_on_c, 5, 65, 0
7, 41280, Note_on_c, 5, 60, 58
7, 42048, Note_on_c, 5, 60, 0
7, 42240, Note_on_c, 5, 60, 58
7, 43200, Note_on_c, 5, 60, 0
7, 43200, Note_on_c, 5, 58, 58
7, 43584, Note_on_c, 5, 58, 0
7, 43680, Note_on_c, 5, 58, 58
7, 44544, Note_on_c, 5, 58, 0
7, 44640, Note_on_c, 5, 58, 58
7, 45408, Note_on_c, 5, 58, 0
7, 45600, Note_on_c, 5, 58, 58
7, 45984, Note_on_c, 5, 58, 0
7, 46080, Note_on_c, 5, 58, 58
7, 47040, Note_on_c, 5, 58, 0
7, 47040, Note_on_c, 5, 57, 58
7, 47424, Note_on_c, 5, 57, 0
7, 50880, Note_on_c, 5, 75, 105
7, 51036, Note_on_c, 5, 75, 0
7, 51120, Note_on_c, 5, 74, 105
7, 51276, Note_on_c, 5, 74, 0
7, 51360, Note_on_c, 5, 72, 105
7, 51516, Note_on_c, 5, 72, 0
7, 51600, Note_on_c, 5, 70, 105
7, 51756, Note_on_c, 5, 70, 0
7, 51840, Note_on_c, 5, 69, 105
7, 52080, Note_on_c, 5, 69, 0
7, 52080, Note_on_c, 5, 70, 105
7, 52236, Note_on_c, 5, 70, 0
7, 52320, Note_on_c, 5, 69, 105
7, 52476, Note_on_c, 5, 69, 0
7, 52560, Note_on_c, 5, 67, 105
7, 52716, Note_on_c, 5, 67, 0
7, 52800, Note_on_c, 5, 65, 105
7, 52956, Note_on_c, 5, 65, 0
7, 53040, Note_on_c, 5, 63, 105
7, 53196, Note_on_c, 5, 63, 0
7, 53280, Note_on_c, 5, 62, 105
7, 53436, Note_on_c, 5, 62, 0
7, 53520, Note_on_c, 5, 60, 105
7, 53676, Note_on_c, 5, 60, 0
7, 53760, Note_on_c, 5, 58, 105
7, 54072, Note_on_c, 5, 58, 0
7, 54240, Note_on_c, 5, 70, 105
7, 54552, Note_on_c, 5, 70, 0
7, 54720, Note_on_c, 5, 74, 116
7, 55296, Note_on_c, 5, 74, 0
7, 55440, Note_on_c, 5, 72, 116
7, 55632, Note_on_c, 5, 72, 0
7, 55680, Note_on_c, 5, 70, 116
7, 55920, Note_on_c, 5, 70, 0
7, 56160, Note_on_c, 5, 72, 116
7, 56400, Note_on_c, 5, 72, 0
7, 56640, Note_on_c, 5, 70, 116
7, 57216, Note_on_c, 5, 70, 0
7, 57360, Note_on_c, 5, 69, 116
7, 57552, Note_on_c, 5, 69, 0
7, 57600, Note_on_c, 5, 67, 116
7, 57840, Note_on_c, 5, 67, 0
7, 58080, Note_on_c, 5, 69, 116
7, 58320, Note_on_c, 5, 69, 0
7, 58560, Note_on_c, 5, 67, 116
7, 59136, Note_on_c, 5, 67, 0
7, 59280, Note_on_c, 5, 65, 116
7, 59472, Note_on_c, 5, 65, 0
7, 59520, Note_on_c, 5, 63, 116
7, 59760, Note_on_c, 5, 63, 0
7, 60000, Note_on_c, 5, 65, 116
7, 60240, Note_on_c, 5, 65, 0
7, 60480, Note_on_c, 5, 63, 116
7, 61056, Note_on_c, 5, 63, 0
7, 61200, Note_on_c, 5, 63, 116
7, 61392, Note_on_c, 5, 63, 0
7, 61440, Note_on_c, 5, 69, 116
7, 62016, Note_on_c, 5, 69, 0
7, 62160, Note_on_c, 5, 69, 116
7, 62352, Note_on_c, 5, 69, 0
7, 62400, Note_on_c, 5, 75, 116
7, 62976, Note_on_c, 5, 75, 0
7, 63120, Note_on_c, 5, 75, 116
7, 63312, Note_on_c, 5, 75, 0
7, 63360, Note_on_c, 5, 74, 116
7, 63552, Note_on_c, 5, 74, 0
7, 63600, Note_on_c, 5, 72, 105
7, 63792, Note_on_c, 5, 72, 0
7, 63840, Note_on_c, 5, 70, 105
7, 64032, Note_on_c, 5, 70, 0
7, 64080, Note_on_c, 5, 69, 105
7, 64272, Note_on_c, 5, 69, 0
7, 64320, Note_on_c, 5, 67, 105
7, 64512, Note_on_c, 5, 67, 0
7, 64560, Note_on_c, 5, 65, 105
7, 64752, Note_on_c, 5, 65, 0
7, 64800, Note_on_c, 5, 63, 105
7, 64992, Note_on_c, 5, 63, 0
7, 65040, Note_on_c, 5, 62, 105
7, 65232, Note_on_c, 5, 62, 0
7, 65280, Note_on_c, 5, 60, 105
7, 65592, Note_on_c, 5, 60, 0
7, 65760, Note_on_c, 5, 75, 105
7, 66072, Note_on_c, 5, 75, 0
7, 66240, Note_on_c, 5, 74, 105
7, 66552, Note_on_c, 5, 74, 0
7, 66720, Note_on_c, 5, 72, 105
7, 67032, Note_on_c, 5, 72, 0
7, 67200, Note_on_c, 5, 70, 105
7, 67512, Note_on_c, 5, 70, 0
7, 67680, Note_on_c, 5, 65, 105
7, 67992, Note_on_c, 5, 65, 0
7, 68160, Note_on_c, 5, 74, 105
7, 68736, Note_on_c, 5, 74, 0
7, 68880, Note_on_c, 5, 72, 105
7, 69072, Note_on_c, 5, 72, 0
7, 69120, Note_on_c, 5, 70, 105
7, 69408, Note_on_c, 5, 70, 0
7, 69600, Note_on_c, 5, 65, 105
7, 69888, Note_on_c, 5, 65, 0
7, 70080, Note_on_c, 5, 62, 105
7, 70368, Note_on_c, 5, 62, 0
7, 70560, Note_on_c, 5, 58, 105
7, 70848, Note_on_c, 5, 58, 0
7, 71040, Note_on_c, 5, 65, 80
7, 71352, Note_on_c, 5, 65, 0
7, 71520, Note_on_c, 5, 60, 80
7, 71832, Note_on_c, 5, 60, 0
7, 72000, Note_on_c, 5, 69, 80
7, 72576, Note_on_c, 5, 69, 0
7, 72720, Note_on_c, 5, 67, 80
7, 72912, Note_on_c, 5, 67, 0
7, 72960, Note_on_c, 5, 65, 80
7, 73272, Note_on_c, 5, 65, 0
7, 73440, Note_on_c, 5, 72, 80
7, 73752, Note_on_c, 5, 72, 0
7, 73920, Note_on_c, 5, 69, 80
7, 74232, Note_on_c, 5, 69, 0
7, 74400, Note_on_c, 5, 65, 80
7, 74712, Note_on_c, 5, 65, 0
7, 74880, Note_on_c, 5, 75, 70
7, 75840, Note_on_c, 5, 75, 0
7, 75840, Note_on_c, 5, 72, 70
7, 76800, Note_on_c, 5, 72, 0
7, 76800, Note_on_c, 5, 69, 70
7, 77760, Note_on_c, 5, 69, 0
7, 77760, Note_on_c, 5, 63, 70
7, 78528, Note_on_c, 5, 63, 0
7, 78720, Note_on_c, 5, 62, 70
7, 78960, Note_on_c, 5, 62, 0
7, 78960, Note_on_c, 5, 65, 70
7, 79200, Note_on_c, 5, 65, 0
7, 79200, Note_on_c, 5, 62, 70
7, 79440, Note_on_c, 5, 62, 0
7, 79440, Note_on_c, 5, 65, 70
7, 79632, Note_on_c, 5, 65, 0
7, 79680, Note_on_c, 5, 58, 70
7, 79920, Note_on_c, 5, 58, 0
7, 79920, Note_on_c, 5, 65, 70
7, 80160, Note_on_c, 5, 65, 0
7, 80160, Note_on_c, 5, 58, 70
7, 80400, Note_on_c, 5, 58, 0
7, 80400, Note_on_c, 5, 60, 70
7, 80592, Note_on_c, 5, 60, 0
7, 80640, Note_on_c, 5, 57, 70
7, 80880, Note_on_c, 5, 57, 0
7, 80880, Note_on_c, 5, 65, 70
7, 81120, Note_on_c, 5, 65, 0
7, 81120, Note_on_c, 5, 57, 70
7, 81360, Note_on_c, 5, 57, 0
7, 81360, Note_on_c, 5, 58, 70
7, 81552, Note_on_c, 5, 58, 0
7, 81600, Note_on_c, 5, 60, 70
7, 81840, Note_on_c, 5, 60, 0
7, 81840, Note_on_c, 5, 65, 70
7, 82080, Note_on_c, 5, 65, 0
7, 82080, Note_on_c, 5, 60, 70
7, 82320, Note_on_c, 5, 60, 0
7, 82320, Note_on_c, 5, 62, 70
7, 82512, Note_on_c, 5, 62, 0
7, 82560, Note_on_c, 5, 58, 70
7, 82800, Note_on_c, 5, 58, 0
7, 82800, Note_on_c, 5, 65, 70
7, 83040, Note_on_c, 5, 65, 0
7, 83040, Note_on_c, 5, 58, 70
7, 83280, Note_on_c, 5, 58, 0
7, 83280, Note_on_c, 5, 65, 70
7, 83472, Note_on_c, 5, 65, 0
7, 83520, Note_on_c, 5, 62, 70
7, 83760, Note_on_c, 5, 62, 0
7, 83760, Note_on_c, 5, 65, 70
7, 84000, Note_on_c, 5, 65, 0
7, 84000, Note_on_c, 5, 62, 70
7, 84240, Note_on_c, 5, 62, 0
7, 84240, Note_on_c, 5, 65, 70
7, 84432, Note_on_c, 5, 65, 0
7, 84480, Note_on_c, 5, 63, 70
7, 84720, Note_on_c, 5, 63, 0
7, 84720, Note_on_c, 5, 65, 70
7, 84960, Note_on_c, 5, 65, 0
7, 84960, Note_on_c, 5, 63, 70
7, 85200, Note_on_c, 5, 63, 0
7, 85200, Note_on_c, 5, 65, 70
7, 85392, Note_on_c, 5, 65, 0
7, 85440, Note_on_c, 5, 60, 70
7, 85680, Note_on_c, 5, 60, 0
7, 85680, Note_on_c, 5, 65, 70
7, 85920, Note_on_c, 5, 65, 0
7, 85920, Note_on_c, 5, 60, 70
7, 86160, Note_on_c, 5, 60, 0
7, 86160, Note_on_c, 5, 65, 70
7, 86352, Note_on_c, 5, 65, 0
7, 86400, Note_on_c, 5, 58, 70
7, 86640, Note_on_c, 5, 58, 0
7, 86640, Note_on_c, 5, 65, 70
7, 86880, Note_on_c, 5, 65, 0
7, 86880, Note_on_c, 5, 62, 70
7, 87120, Note_on_c, 5, 62, 0
7, 87120, Note_on_c, 5, 65, 70
7, 87312, Note_on_c, 5, 65, 0
7, 87360, Note_on_c, 5, 58, 70
7, 87600, Note_on_c, 5, 58, 0
7, 87600, Note_on_c, 5, 65, 70
7, 87840, Note_on_c, 5, 65, 0
7, 87840, Note_on_c, 5, 58, 70
7, 88080, Note_on_c, 5, 58, 0
7, 88080, Note_on_c, 5, 60, 70
7, 88272, Note_on_c, 5, 60, 0
7, 88320, Note_on_c, 5, 57, 70
7, 88560, Note_on_c, 5, 57, 0
7, 88560, Note_on_c, 5, 65, 70
7, 88800, Note_on_c, 5, 65, 0
7, 88800, Note_on_c, 5, 57, 70
7, 89040, Note_on_c, 5, 57, 0
7, 89040, Note_on_c, 5, 58, 70
7, 89232, Note_on_c, 5, 58, 0
7, 89280, Note_on_c, 5, 60, 70
7, 89520, Note_on_c, 5, 60, 0
7, 89520, Note_on_c, 5, 65, 70
7, 89760, Note_on_c, 5, 65, 0
7, 89760, Note_on_c, 5, 60, 70
7, 90000, Note_on_c, 5, 60, 0
7, 90000, Note_on_c, 5, 62, 70
7, 90192, Note_on_c, 5, 62, 0
7, 90240, Note_on_c, 5, 58, 70
7, 90480, Note_on_c, 5, 58, 0
7, 90480, Note_on_c, 5, 65, 70
7, 90720, Note_on_c, 5, 65, 0
7, 90720, Note_on_c, 5, 58, 70
7, 90960, Note_on_c, 5, 58, 0
7, 90960, Note_on_c, 5, 65, 70
7, 91152, Note_on_c, 5, 65, 0
7, 91200, Note_on_c, 5, 62, 70
7, 91440, Note_on_c, 5, 62, 0
7, 91440, Note_on_c, 5, 65, 70
7, 91680, Note_on_c, 5, 65, 0
7, 91680, Note_on_c, 5, 62, 70
7, 91920, Note_on_c, 5, 62, 0
7, 91920, Note_on_c, 5, 65, 70
7, 92112, Note_on_c, 5, 65, 0
7, 92160, Note_on_c, 5, 63, 70
7, 92400, Note_on_c, 5, 63, 0
7, 92400, Note_on_c, 5, 65, 70
7, 92640, Note_on_c, 5, 65, 0
7, 92640, Note_on_c, 5, 63, 70
7, 92880, Note_on_c, 5, 63, 0
7, 92880, Note_on_c, 5, 65, 70
7, 93072, Note_on_c, 5, 65, 0
7, 93120, Note_on_c, 5, 60, 70
7, 93360, Note_on_c, 5, 60, 0
7, 93360, Note_on_c, 5, 65, 70
7, 93600, Note_on_c, 5, 65, 0
7, 93600, Note_on_c, 5, 60, 70
7, 93840, Note_on_c, 5, 60, 0
7, 93840, Note_on_c, 5, 65, 70
7, 94032, Note_on_c, 5, 65, 0
7, 94080, Note_on_c, 5, 62, 105
7, 94464, Note_on_c, 5, 62, 0
7, 94560, Note_on_c, 5, 74, 116
7, 94620, Note_on_c, 5, 74, 0
7, 94620, Note_on_c, 5, 72, 116
7, 94680, Note_on_c, 5, 72, 0
7, 94680, Note_on_c, 5, 70, 116
7, 95040, Note_on_c, 5, 70, 0
7, 95520, Note_on_c, 5, 62, 116
7, 95580, Note_on_c, 5, 62, 0
7, 95580, Note_on_c, 5, 60, 116
7, 95640, Note_on_c, 5, 60, 0
7, 95640, Note_on_c, 5, 58, 116
7, 96000, Note_on_c, 5, 58, 0
7, 96480, Note_on_c, 5, 65, 116
7, 96540, Note_on_c, 5, 65, 0
7, 96540, Note_on_c, 5, 63, 116
7, 96600, Note_on_c, 5, 63, 0
7, 96600, Note_on_c, 5, 62, 116
7, 96960, Note_on_c, 5, 62, 0
7, 97440, Note_on_c, 5, 74, 116
7, 97500, Note_on_c, 5, 74, 0
7, 97500, Note_on_c, 5, 72, 116
7, 97560, Note_on_c, 5, 72, 0
7, 97560, Note_on_c, 5, 70, 116
7, 97920, Note_on_c, 5, 70, 0
7, 98400, Note_on_c, 5, 75, 116
7, 98460, Note_on_c, 5, 75, 0
7, 98460, Note_on_c, 5, 74, 116
7, 98520, Note_on_c, 5, 74, 0
7, 98520, Note_on_c, 5, 72, 116
7, 98880, Note_on_c, 5, 72, 0
7, 99360, Note_on_c, 5, 72, 116
7, 99420, Note_on_c, 5, 72, 0
7, 99420, Note_on_c, 5, 70, 116
7, 99480, Note_on_c, 5, 70, 0
7, 99480, Note_on_c, 5, 69, 116
7, 99840, Note_on_c, 5, 69, 0
7, 100320, Note_on_c, 5, 63, 116
7, 100380, Note_on_c, 5, 63, 0
7, 100380, Note_on_c, 5, 62, 116
7, 100440, Note_on_c, 5, 62, 0
7, 100440, Note_on_c, 5, 60, 116
7, 100800, Note_on_c, 5, 60, 0
7, 101280, Note_on_c, 5, 60, 116
7, 101340, Note_on_c, 5, 60, 0
7, 101340, Note_on_c, 5, 58, 116
7, 101400, Note_on_c, 5, 58, 0
7, 101400, Note_on_c, 5, 57, 116
7, 101760, Note_on_c, 5, 57, 0
7, 101760, Note_on_c, 5, 58, 105
7, 101952, Note_on_c, 5, 58, 0
7, 102000, Note_on_c, 5, 77, 105
7, 102384, Note_on_c, 5, 77, 0
7, 102480, Note_on_c, 5, 77, 105
7, 102864, Note_on_c, 5, 77, 0
7, 102960, Note_on_c, 5, 77, 105
7, 103344, Note_on_c, 5, 77, 0
7, 103440, Note_on_c, 5, 77, 105
7, 103632, Note_on_c, 5, 77, 0
7, 103680, Note_on_c, 5, 75, 105
7, 103872, Note_on_c, 5, 75, 0
7, 103920, Note_on_c, 5, 75, 105
7, 104304, Note_on_c, 5, 75, 0
7, 104400, Note_on_c, 5, 75, 105
7, 104592, Note_on_c, 5, 75, 0
7, 104640, Note_on_c, 5, 70, 105
7, 104832, Note_on_c, 5, 70, 0
7, 104880, Note_on_c, 5, 70, 105
7, 105264, Note_on_c, 5, 70, 0
7, 105360, Note_on_c, 5, 70, 105
7, 105552, Note_on_c, 5, 70, 0
7, 105600, Note_on_c, 5, 72, 105
7, 105792, Note_on_c, 5, 72, 0
7, 105840, Note_on_c, 5, 72, 105
7, 106224, Note_on_c, 5, 72, 0
7, 106320, Note_on_c, 5, 72, 105
7, 106512, Note_on_c, 5, 72, 0
7, 106560, Note_on_c, 5, 72, 105
7, 106560, Note_on_c, 5, 69, 105
7, 106752, Note_on_c, 5, 69, 0
7, 106752, Note_on_c, 5, 72, 0
7, 106800, Note_on_c, 5, 69, 105
7, 106800, Note_on_c, 5, 72, 105
7, 107184, Note_on_c, 5, 72, 0
7, 107184, Note_on_c, 5, 69, 0
7, 107280, Note_on_c, 5, 72, 105
7, 107280, Note_on_c, 5, 69, 105
7, 107472, Note_on_c, 5, 69, 0
7, 107472, Note_on_c, 5, 72, 0
7, 107520, Note_on_c, 5, 70, 105
7, 107832, Note_on_c, 5, 70, 0
7, 108000, Note_on_c, 5, 77, 105
7, 108312, Note_on_c, 5, 77, 0
7, 108480, Note_on_c, 5, 75, 105
7, 108792, Note_on_c, 5, 75, 0
7, 108960, Note_on_c, 5, 63, 105
7, 108960, Note_on_c, 5, 60, 105
7, 109272, Note_on_c, 5, 60, 0
7, 109272, Note_on_c, 5, 63, 0
7, 109440, Note_on_c, 5, 62, 105
7, 109632, Note_on_c, 5, 62, 0
7, 109680, Note_on_c, 5, 77, 105
7, 110064, Note_on_c, 5, 77, 0
7, 110160, Note_on_c, 5, 77, 105
7, 110544, Note_on_c, 5, 77, 0
7, 110640, Note_on_c, 5, 77, 105
7, 111024, Note_on_c, 5, 77, 0
7, 111120, Note_on_c, 5, 77, 105
7, 111312, Note_on_c, 5, 77, 0
7, 111360, Note_on_c, 5, 75, 105
7, 111552, Note_on_c, 5, 75, 0
7, 111600, Note_on_c, 5, 75, 105
7, 111984, Note_on_c, 5, 75, 0
7, 112080, Note_on_c, 5, 75, 105
7, 112272, Note_on_c, 5, 75, 0
7, 112320, Note_on_c, 5, 70, 105
7, 112512, Note_on_c, 5, 70, 0
7, 112560, Note_on_c, 5, 70, 105
7, 112944, Note_on_c, 5, 70, 0
7, 113040, Note_on_c, 5, 70, 105
7, 113232, Note_on_c, 5, 70, 0
7, 113280, Note_on_c, 5, 72, 105
7, 113472, Note_on_c, 5, 72, 0
7, 113520, Note_on_c, 5, 72, 105
7, 113904, Note_on_c, 5, 72, 0
7, 114000, Note_on_c, 5, 72, 105
7, 114192, Note_on_c, 5, 72, 0
7, 114240, Note_on_c, 5, 84, 105
7, 114432, Note_on_c, 5, 84, 0
7, 114480, Note_on_c, 5, 84, 105
7, 114864, Note_on_c, 5, 84, 0
7, 114960, Note_on_c, 5, 84, 105
7, 115152, Note_on_c, 5, 84, 0
7, 115200, Note_on_c, 5, 82, 105
7, 115488, Note_on_c, 5, 82, 0
7, 115680, Note_on_c, 5, 82, 105
7, 115968, Note_on_c, 5, 82, 0
7, 116160, Note_on_c, 5, 72, 105
7, 116448, Note_on_c, 5, 72, 0
7, 116640, Note_on_c, 5, 81, 105
7, 116928, Note_on_c, 5, 81, 0
7, 117120, Note_on_c, 5, 82, 105
7, 117432, Note_on_c, 5, 82, 0
7, 117600, Note_on_c, 5, 58, 105
7, 117912, Note_on_c, 5, 58, 0
7, 118080, Note_on_c, 5, 74, 105
7, 118656, Note_on_c, 5, 74, 0
7, 118800, Note_on_c, 5, 72, 105
7, 118992, Note_on_c, 5, 72, 0
7, 119040, Note_on_c, 5, 70, 105
7, 119616, Note_on_c, 5, 70, 0
7, 119760, Note_on_c, 5, 69, 105
7, 119952, Note_on_c, 5, 69, 0
7, 120000, Note_on_c, 5, 67, 105
7, 120576, Note_on_c, 5, 67, 0
7, 120720, Note_on_c, 5, 65, 105
7, 120912, Note_on_c, 5, 65, 0
7, 120960, Note_on_c, 5, 63, 105
7, 121272, Note_on_c, 5, 63, 0
7, 121440, Note_on_c, 5, 65, 116
7, 121632, Note_on_c, 5, 65, 0
7, 121680, Note_on_c, 5, 67, 116
7, 121872, Note_on_c, 5, 67, 0
7, 121920, Note_on_c, 5, 69, 116
7, 122112, Note_on_c, 5, 69, 0
7, 122160, Note_on_c, 5, 70, 116
7, 122352, Note_on_c, 5, 70, 0
7, 122400, Note_on_c, 5, 72, 116
7, 122592, Note_on_c, 5, 72, 0
7, 122640, Note_on_c, 5, 70, 116
7, 122832, Note_on_c, 5, 70, 0
7, 122880, Note_on_c, 5, 72, 116
7, 123192, Note_on_c, 5, 72, 0
7, 123360, Note_on_c, 5, 65, 116
7, 123552, Note_on_c, 5, 65, 0
7, 123600, Note_on_c, 5, 67, 116
7, 123792, Note_on_c, 5, 67, 0
7, 123840, Note_on_c, 5, 69, 116
7, 124032, Note_on_c, 5, 69, 0
7, 124080, Note_on_c, 5, 70, 116
7, 124272, Note_on_c, 5, 70, 0
7, 124320, Note_on_c, 5, 72, 116
7, 124512, Note_on_c, 5, 72, 0
7, 124560, Note_on_c, 5, 70, 116
7, 124752, Note_on_c, 5, 70, 0
7, 124800, Note_on_c, 5, 72, 116
7, 125112, Note_on_c, 5, 72, 0
7, 125280, Note_on_c, 5, 65, 116
7, 125472, Note_on_c, 5, 65, 0
7, 125520, Note_on_c, 5, 67, 116
7, 125712, Note_on_c, 5, 67, 0
7, 125760, Note_on_c, 5, 69, 116
7, 125952, Note_on_c, 5, 69, 0
7, 126000, Note_on_c, 5, 70, 116
7, 126192, Note_on_c, 5, 70, 0
7, 126240, Note_on_c, 5, 72, 116
7, 126432, Note_on_c, 5, 72, 0
7, 126480, Note_on_c, 5, 70, 116
7, 126672, Note_on_c, 5, 70, 0
7, 126720, Note_on_c, 5, 72, 116
7, 127032, Note_on_c, 5, 72, 0
7, 127200, Note_on_c, 5, 70, 116
7, 127512, Note_on_c, 5, 70, 0
7, 127680, Note_on_c, 5, 70, 116
7, 127992, Note_on_c, 5, 70, 0
7, 128160, Note_on_c, 5, 60, 116
7, 128160, Note_on_c, 5, 63, 116
7, 128472, Note_on_c, 5, 63, 0
7, 128472, Note_on_c, 5, 60, 0
7, 128640, Note_on_c, 5, 58, 110
7, 128640, Note_on_c, 5, 62, 70
7, 128952, Note_on_c, 5, 62, 0
7, 128952, Note_on_c, 5, 58, 0
7, 129120, Note_on_c, 5, 65, 70
7, 129312, Note_on_c, 5, 65, 0
7, 129360, Note_on_c, 5, 67, 70
7, 129552, Note_on_c, 5, 67, 0
7, 129600, Note_on_c, 5, 69, 70
7, 129792, Note_on_c, 5, 69, 0
7, 129840, Note_on_c, 5, 70, 70
7, 130032, Note_on_c, 5, 70, 0
7, 130080, Note_on_c, 5, 72, 70
7, 130272, Note_on_c, 5, 72, 0
7, 130320, Note_on_c, 5, 70, 70
7, 130512, Note_on_c, 5, 70, 0
7, 130560, Note_on_c, 5, 72, 70
7, 130872, Note_on_c, 5, 72, 0
7, 131040, Note_on_c, 5, 65, 70
7, 131232, Note_on_c, 5, 65, 0
7, 131280, Note_on_c, 5, 67, 70
7, 131472, Note_on_c, 5, 67, 0
7, 131520, Note_on_c, 5, 69, 70
7, 131712, Note_on_c, 5, 69, 0
7, 131760, Note_on_c, 5, 70, 70
7, 131952, Note_on_c, 5, 70, 0
7, 132000, Note_on_c, 5, 72, 70
7, 132192, Note_on_c, 5, 72, 0
7, 132240, Note_on_c, 5, 70, 70
7, 132432, Note_on_c, 5, 70, 0
7, 132480, Note_on_c, 5, 72, 70
7, 132792, Note_on_c, 5, 72, 0
7, 132960, Note_on_c, 5, 77, 127
7, 133152, Note_on_c, 5, 77, 0
7, 133200, Note_on_c, 5, 79, 116
7, 133392, Note_on_c, 5, 79, 0
7, 133440, Note_on_c, 5, 81, 116
7, 133632, Note_on_c, 5, 81, 0
7, 133680, Note_on_c, 5, 82, 116
7, 133872, Note_on_c, 5, 82, 0
7, 133920, Note_on_c, 5, 84, 116
7, 134112, Note_on_c, 5, 84, 0
7, 134160, Note_on_c, 5, 82, 116
7, 134352, Note_on_c, 5, 82, 0
7, 134400, Note_on_c, 5, 84, 116
7, 134712, Note_on_c, 5, 84, 0
7, 134880, Note_on_c, 5, 82, 116
7, 135192, Note_on_c, 5, 82, 0
7, 135360, Note_on_c, 5, 79, 116
7, 135672, Note_on_c, 5, 79, 0
7, 135840, Note_on_c, 5, 65, 116
7, 135840, Note_on_c, 5, 75, 116
7, 136152, Note_on_c, 5, 75, 0
7, 136152, Note_on_c, 5, 65, 0
7, 136320, Note_on_c, 5, 65, 116
7, 136320, Note_on_c, 5, 74, 116
7, 136632, Note_on_c, 5, 74, 0
7, 136632, Note_on_c, 5, 65, 0
7, 136800, Note_on_c, 5, 58, 116
7, 137112, Note_on_c, 5, 58, 0
7, 137280, Note_on_c, 5, 74, 116
7, 137856, Note_on_c, 5, 74, 0
7, 138000, Note_on_c, 5, 72, 116
7, 138192, Note_on_c, 5, 72, 0
7, 138240, Note_on_c, 5, 70, 116
7, 138552, Note_on_c, 5, 70, 0
7, 138720, Note_on_c, 5, 58, 116
7, 139032, Note_on_c, 5, 58, 0
7, 139200, Note_on_c, 5, 74, 116
7, 139776, Note_on_c, 5, 74, 0
7, 139920, Note_on_c, 5, 72, 116
7, 140112, Note_on_c, 5, 72, 0
7, 140160, Note_on_c, 5, 70, 116
7, 140928, Note_on_c, 5, 70, 0
7, 147840, Note_on_c, 5, 67, 58
7, 148152, Note_on_c, 5, 67, 0
7, 148320, Note_on_c, 5, 62, 58
7, 148632, Note_on_c, 5, 62, 0
7, 148800, Note_on_c, 5, 70, 58
7, 149340, Note_on_c, 5, 70, 0
7, 149520, Note_on_c, 5, 69, 58
7, 149676, Note_on_c, 5, 69, 0
7, 149760, Note_on_c, 5, 67, 58
7, 150072, Note_on_c, 5, 67, 0
7, 150240, Note_on_c, 5, 70, 58
7, 150720, Note_on_c, 5, 70, 0
7, 150720, Note_on_c, 5, 69, 58
7, 151200, Note_on_c, 5, 69, 0
7, 151200, Note_on_c, 5, 67, 58
7, 151656, Note_on_c, 5, 67, 0
7, 151680, Note_on_c, 5, 66, 58
7, 151992, Note_on_c, 5, 66, 0
7, 152160, Note_on_c, 5, 62, 58
7, 152472, Note_on_c, 5, 62, 0
7, 152640, Note_on_c, 5, 72, 58
7, 153180, Note_on_c, 5, 72, 0
7, 153360, Note_on_c, 5, 70, 58
7, 153516, Note_on_c, 5, 70, 0
7, 153600, Note_on_c, 5, 69, 58
7, 153912, Note_on_c, 5, 69, 0
7, 154080, Note_on_c, 5, 72, 58
7, 154560, Note_on_c, 5, 72, 0
7, 154560, Note_on_c, 5, 70, 58
7, 155040, Note_on_c, 5, 70, 0
7, 155040, Note_on_c, 5, 69, 58
7, 155496, Note_on_c, 5, 69, 0
7, 155520, Note_on_c, 5, 67, 58
7, 155832, Note_on_c, 5, 67, 0
7, 156000, Note_on_c, 5, 70, 58
7, 156312, Note_on_c, 5, 70, 0
7, 156480, Note_on_c, 5, 75, 58
7, 156984, Note_on_c, 5, 75, 0
7, 157200, Note_on_c, 5, 74, 58
7, 157356, Note_on_c, 5, 74, 0
7, 157440, Note_on_c, 5, 72, 58
7, 157752, Note_on_c, 5, 72, 0
7, 157920, Note_on_c, 5, 69, 58
7, 158232, Note_on_c, 5, 69, 0
7, 158400, Note_on_c, 5, 74, 58
7, 158904, Note_on_c, 5, 74, 0
7, 159120, Note_on_c, 5, 72, 58
7, 159276, Note_on_c, 5, 72, 0
7, 159360, Note_on_c, 5, 70, 58
7, 159672, Note_on_c, 5, 70, 0
7, 159840, Note_on_c, 5, 67, 58
7, 160152, Note_on_c, 5, 67, 0
7, 160320, Note_on_c, 5, 63, 58
7, 160632, Note_on_c, 5, 63, 0
7, 160800, Note_on_c, 5, 61, 58
7, 161112, Note_on_c, 5, 61, 0
7, 161280, Note_on_c, 5, 62, 58
7, 161592, Note_on_c, 5, 62, 0
7, 161760, Note_on_c, 5, 72, 58
7, 162240, Note_on_c, 5, 72, 0
7, 162240, Note_on_c, 5, 70, 58
7, 162720, Note_on_c, 5, 70, 0
7, 162720, Note_on_c, 5, 69, 58
7, 163032, Note_on_c, 5, 69, 0
7, 163200, Note_on_c, 5, 67, 105
7, 163392, Note_on_c, 5, 67, 0
7, 163440, Note_on_c, 5, 74, 105
7, 163824, Note_on_c, 5, 74, 0
7, 163920, Note_on_c, 5, 74, 105
7, 164304, Note_on_c, 5, 74, 0
7, 164400, Note_on_c, 5, 74, 105
7, 164784, Note_on_c, 5, 74, 0
7, 164880, Note_on_c, 5, 74, 105
7, 165504, Note_on_c, 5, 74, 0
7, 165600, Note_on_c, 5, 74, 105
7, 166080, Note_on_c, 5, 74, 0
7, 166080, Note_on_c, 5, 72, 105
7, 166560, Note_on_c, 5, 72, 0
7, 166560, Note_on_c, 5, 70, 105
7, 166944, Note_on_c, 5, 70, 0
7, 167040, Note_on_c, 5, 69, 105
7, 167232, Note_on_c, 5, 69, 0
7, 167280, Note_on_c, 5, 74, 105
7, 167664, Note_on_c, 5, 74, 0
7, 167760, Note_on_c, 5, 74, 105
7, 168144, Note_on_c, 5, 74, 0
7, 168240, Note_on_c, 5, 74, 105
7, 168624, Note_on_c, 5, 74, 0
7, 168720, Note_on_c, 5, 74, 105
7, 169344, Note_on_c, 5, 74, 0
7, 169440, Note_on_c, 5, 75, 105
7, 169920, Note_on_c, 5, 75, 0
7, 169920, Note_on_c, 5, 74, 105
7, 170400, Note_on_c, 5, 74, 0
7, 170400, Note_on_c, 5, 78, 105
7, 170784, Note_on_c, 5, 78, 0
7, 170880, Note_on_c, 5, 79, 105
7, 171072, Note_on_c, 5, 79, 0
7, 171120, Note_on_c, 5, 79, 105
7, 171504, Note_on_c, 5, 79, 0
7, 171600, Note_on_c, 5, 79, 105
7, 171984, Note_on_c, 5, 79, 0
7, 172080, Note_on_c, 5, 79, 105
7, 172464, Note_on_c, 5, 79, 0
7, 172560, Note_on_c, 5, 79, 105
7, 172752, Note_on_c, 5, 79, 0
7, 172800, Note_on_c, 5, 87, 105
7, 172992, Note_on_c, 5, 87, 0
7, 173040, Note_on_c, 5, 87, 105
7, 173424, Note_on_c, 5, 87, 0
7, 173520, Note_on_c, 5, 87, 105
7, 173712, Note_on_c, 5, 87, 0
7, 173760, Note_on_c, 5, 78, 105
7, 173952, Note_on_c, 5, 78, 0
7, 174000, Note_on_c, 5, 78, 105
7, 174384, Note_on_c, 5, 78, 0
7, 174480, Note_on_c, 5, 78, 105
7, 174672, Note_on_c, 5, 78, 0
7, 174720, Note_on_c, 5, 79, 105
7, 175032, Note_on_c, 5, 79, 0
7, 175200, Note_on_c, 5, 70, 105
7, 175512, Note_on_c, 5, 70, 0
7, 175680, Note_on_c, 5, 69, 105
7, 175992, Note_on_c, 5, 69, 0
7, 176160, Note_on_c, 5, 78, 105
7, 176472, Note_on_c, 5, 78, 0
7, 176640, Note_on_c, 5, 79, 105
7, 176952, Note_on_c, 5, 79, 0
7, 177120, Note_on_c, 5, 67, 105
7, 177432, Note_on_c, 5, 67, 0
7, 179520, Note_on_c, 5, 72, 58
7, 180288, Note_on_c, 5, 72, 0
7, 180480, Note_on_c, 5, 72, 58
7, 181440, Note_on_c, 5, 72, 0
7, 181440, Note_on_c, 5, 70, 58
7, 181824, Note_on_c, 5, 70, 0
7, 183840, Note_on_c, 5, 70, 58
7, 184224, Note_on_c, 5, 70, 0
7, 184320, Note_on_c, 5, 65, 58
7, 185664, Note_on_c, 5, 65, 0
7, 187200, Note_on_c, 5, 60, 58
7, 187968, Note_on_c, 5, 60, 0
7, 188160, Note_on_c, 5, 60, 58
7, 189120, Note_on_c, 5, 60, 0
7, 189120, Note_on_c, 5, 58, 58
7, 189504, Note_on_c, 5, 58, 0
7, 189600, Note_on_c, 5, 58, 58
7, 190464, Note_on_c, 5, 58, 0
7, 190560, Note_on_c, 5, 58, 58
7, 191328, Note_on_c, 5, 58, 0
7, 191520, Note_on_c, 5, 58, 58
7, 191904, Note_on_c, 5, 58, 0
7, 192000, Note_on_c, 5, 58, 58
7, 192960, Note_on_c, 5, 58, 0
7, 192960, Note_on_c, 5, 57, 58
7, 193344, Note_on_c, 5, 57, 0
7, 196800, Note_on_c, 5, 75, 105
7, 196956, Note_on_c, 5, 75, 0
7, 197040, Note_on_c, 5, 74, 105
7, 197196, Note_on_c, 5, 74, 0
7, 197280, Note_on_c, 5, 72, 105
7, 197436, Note_on_c, 5, 72, 0
7, 197520, Note_on_c, 5, 70, 105
7, 197676, Note_on_c, 5, 70, 0
7, 197760, Note_on_c, 5, 69, 105
7, 198000, Note_on_c, 5, 69, 0
7, 198000, Note_on_c, 5, 70, 105
7, 198156, Note_on_c, 5, 70, 0
7, 198240, Note_on_c, 5, 69, 105
7, 198396, Note_on_c, 5, 69, 0
7, 198480, Note_on_c, 5, 67, 105
7, 198636, Note_on_c, 5, 67, 0
7, 198720, Note_on_c, 5, 65, 105
7, 198876, Note_on_c, 5, 65, 0
7, 198960, Note_on_c, 5, 63, 105
7, 199116, Note_on_c, 5, 63, 0
7, 199200, Note_on_c, 5, 62, 105
7, 199356, Note_on_c, 5, 62, 0
7, 199440, Note_on_c, 5, 60, 105
7, 199596, Note_on_c, 5, 60, 0
7, 199680, Note_on_c, 5, 58, 105
7, 199992, Note_on_c, 5, 58, 0
7, 200160, Note_on_c, 5, 70, 105
7, 200472, Note_on_c, 5, 70, 0
7, 200640, Note_on_c, 5, 74, 116
7, 201216, Note_on_c, 5, 74, 0
7, 201360, Note_on_c, 5, 72, 116
7, 201552, Note_on_c, 5, 72, 0
7, 201600, Note_on_c, 5, 70, 116
7, 201840, Note_on_c, 5, 70, 0
7, 202080, Note_on_c, 5, 72, 116
7, 202320, Note_on_c, 5, 72, 0
7, 202560, Note_on_c, 5, 70, 116
7, 203136, Note_on_c, 5, 70, 0
7, 203280, Note_on_c, 5, 69, 116
7, 203472, Note_on_c, 5, 69, 0
7, 203520, Note_on_c, 5, 67, 116
7, 203760, Note_on_c, 5, 67, 0
7, 204000, Note_on_c, 5, 69, 116
7, 204240, Note_on_c, 5, 69, 0
7, 204480, Note_on_c, 5, 67, 116
7, 205056, Note_on_c, 5, 67, 0
7, 205200, Note_on_c, 5, 65, 116
7, 205392, Note_on_c, 5, 65, 0
7, 205440, Note_on_c, 5, 63, 116
7, 205680, Note_on_c, 5, 63, 0
7, 205920, Note_on_c, 5, 65, 116
7, 206160, Note_on_c, 5, 65, 0
7, 206400, Note_on_c, 5, 63, 116
7, 206976, Note_on_c, 5, 63, 0
7, 207120, Note_on_c, 5, 63, 116
7, 207312, Note_on_c, 5, 63, 0
7, 207360, Note_on_c, 5, 69, 116
7, 207936, Note_on_c, 5, 69, 0
7, 208080, Note_on_c, 5, 69, 116
7, 208272, Note_on_c, 5, 69, 0
7, 208320, Note_on_c, 5, 75, 116
7, 208896, Note_on_c, 5, 75, 0
7, 209040, Note_on_c, 5, 75, 116
7, 209232, Note_on_c, 5, 75, 0
7, 209280, Note_on_c, 5, 74, 116
7, 209472, Note_on_c, 5, 74, 0
7, 209520, Note_on_c, 5, 72, 105
7, 209712, Note_on_c, 5, 72, 0
7, 209760, Note_on_c, 5, 70, 105
7, 209952, Note_on_c, 5, 70, 0
7, 210000, Note_on_c, 5, 69, 105
7, 210192, Note_on_c, 5, 69, 0
7, 210240, Note_on_c, 5, 67, 105
7, 210432, Note_on_c, 5, 67, 0
7, 210480, Note_on_c, 5, 65, 105
7, 210672, Note_on_c, 5, 65, 0
7, 210720, Note_on_c, 5, 63, 105
7, 210912, Note_on_c, 5, 63, 0
7, 210960, Note_on_c, 5, 62, 105
7, 211152, Note_on_c, 5, 62, 0
7, 211200, Note_on_c, 5, 60, 105
7, 211512, Note_on_c, 5, 60, 0
7, 211680, Note_on_c, 5, 75, 105
7, 211992, Note_on_c, 5, 75, 0
7, 212160, Note_on_c, 5, 74, 105
7, 212472, Note_on_c, 5, 74, 0
7, 212640, Note_on_c, 5, 72, 105
7, 212952, Note_on_c, 5, 72, 0
7, 213120, Note_on_c, 5, 70, 105
7, 213432, Note_on_c, 5, 70, 0
7, 213600, Note_on_c, 5, 65, 105
7, 213912, Note_on_c, 5, 65, 0
7, 214080, Note_on_c, 5, 74, 105
7, 214656, Note_on_c, 5, 74, 0
7, 214800, Note_on_c, 5, 72, 105
7, 214992, Note_on_c, 5, 72, 0
7, 215040, Note_on_c, 5, 70, 105
7, 215328, Note_on_c, 5, 70, 0
7, 215520, Note_on_c, 5, 65, 105
7, 215808, Note_on_c, 5, 65, 0
7, 216000, Note_on_c, 5, 62, 105
7, 216288, Note_on_c, 5, 62, 0
7, 216480, Note_on_c, 5, 58, 105
7, 216768, Note_on_c, 5, 58, 0
7, 216960, Note_on_c, 5, 65, 80
7, 217272, Note_on_c, 5, 65, 0
7, 217440, Note_on_c, 5, 60, 80
7, 217752, Note_on_c, 5, 60, 0
7, 217920, Note_on_c, 5, 69, 80
7, 218496, Note_on_c, 5, 69, 0
7, 218640, Note_on_c, 5, 67, 80
7, 218832, Note_on_c, 5, 67, 0
7, 218880, Note_on_c, 5, 65, 80
7, 219192, Note_on_c, 5, 65, 0
7, 219360, Note_on_c, 5, 72, 80
7, 219672, Note_on_c, 5, 72, 0
7, 219840, Note_on_c, 5, 69, 80
7, 220152, Note_on_c, 5, 69, 0
7, 220320, Note_on_c, 5, 65, 80
7, 220632, Note_on_c, 5, 65, 0
7, 220800, Note_on_c, 5, 75, 70
7, 221760, Note_on_c, 5, 75, 0
7, 221760, Note_on_c, 5, 72, 70
7, 222720, Note_on_c, 5, 72, 0
7, 222720, Note_on_c, 5, 69, 70
7, 223680, Note_on_c, 5, 69, 0
7, 223680, Note_on_c, 5, 63, 70
7, 224448, Note_on_c, 5, 63, 0
7, 224640, Note_on_c, 5, 62, 70
7, 224880, Note_on_c, 5, 62, 0
7, 224880, Note_on_c, 5, 65, 70
7, 225120, Note_on_c, 5, 65, 0
7, 225120, Note_on_c, 5, 62, 70
7, 225360, Note_on_c, 5, 62, 0
7, 225360, Note_on_c, 5, 65, 70
7, 225552, Note_on_c, 5, 65, 0
7, 225600, Note_on_c, 5, 58, 70
7, 225840, Note_on_c, 5, 58, 0
7, 225840, Note_on_c, 5, 65, 70
7, 226080, Note_on_c, 5, 65, 0
7, 226080, Note_on_c, 5, 58, 70
7, 226320, Note_on_c, 5, 58, 0
7, 226320, Note_on_c, 5, 60, 70
7, 226512, Note_on_c, 5, 60, 0
7, 226560, Note_on_c, 5, 57, 70
7, 226800, Note_on_c, 5, 57, 0
7, 226800, Note_on_c, 5, 65, 70
7, 227040, Note_on_c, 5, 65, 0
7, 227040, Note_on_c, 5, 57, 70
7, 227280, Note_on_c, 5, 57, 0
7, 227280, Note_on_c, 5, 58, 70
7, 227472, Note_on_c, 5, 58, 0
7, 227520, Note_on_c, 5, 60, 70
7, 227760, Note_on_c, 5, 60, 0
7, 227760, Note_on_c, 5, 65, 70
7, 228000, Note_on_c, 5, 65, 0
7, 228000, Note_on_c, 5, 60, 70
7, 228240, Note_on_c, 5, 60, 0
7, 228240, Note_on_c, 5, 62, 70
7, 228432, Note_on_c, 5, 62, 0
7, 228480, Note_on_c, 5, 58, 70
7, 228720, Note_on_c, 5, 58, 0
7, 228720, Note_on_c, 5, 65, 70
7, 228960, Note_on_c, 5, 65, 0
7, 228960, Note_on_c, 5, 58, 70
7, 229200, Note_on_c, 5, 58, 0
7, 229200, Note_on_c, 5, 65, 70
7, 229392, Note_on_c, 5, 65, 0
7, 229440, Note_on_c, 5, 62, 70
7, 229680, Note_on_c, 5, 62, 0
7, 229680, Note_on_c, 5, 65, 70
7, 229920, Note_on_c, 5, 65, 0
7, 229920, Note_on_c, 5, 62, 70
7, 230160, Note_on_c, 5, 62, 0
7, 230160, Note_on_c, 5, 65, 70
7, 230352, Note_on_c, 5, 65, 0
7, 230400, Note_on_c, 5, 63, 70
7, 230640, Note_on_c, 5, 63, 0
7, 230640, Note_on_c, 5, 65, 70
7, 230880, Note_on_c, 5, 65, 0
7, 230880, Note_on_c, 5, 63, 70
7, 231120, Note_on_c, 5, 63, 0
7, 231120, Note_on_c, 5, 65, 70
7, 231312, Note_on_c, 5, 65, 0
7, 231360, Note_on_c, 5, 60, 70
7, 231600, Note_on_c, 5, 60, 0
7, 231600, Note_on_c, 5, 65, 70
7, 231840, Note_on_c, 5, 65, 0
7, 231840, Note_on_c, 5, 60, 70
7, 232080, Note_on_c, 5, 60, 0
7, 232080, Note_on_c, 5, 65, 70
7, 232272, Note_on_c, 5, 65, 0
7, 232320, Note_on_c, 5, 58, 70
7, 232560, Note_on_c, 5, 58, 0
7, 232560, Note_on_c, 5, 65, 70
7, 232800, Note_on_c, 5, 65, 0
7, 232800, Note_on_c, 5, 62, 70
7, 233040, Note_on_c, 5, 62, 0
7, 233040, Note_on_c, 5, 65, 70
7, 233232, Note_on_c, 5, 65, 0
7, 233280, Note_on_c, 5, 58, 70
7, 233520, Note_on_c, 5, 58, 0
7, 233520, Note_on_c, 5, 65, 70
7, 233760, Note_on_c, 5, 65, 0
7, 233760, Note_on_c, 5, 58, 70
7, 234000, Note_on_c, 5, 58, 0
7, 234000, Note_on_c, 5, 60, 70
7, 234192, Note_on_c, 5, 60, 0
7, 234240, Note_on_c, 5, 57, 70
7, 234480, Note_on_c, 5, 57, 0
7, 234480, Note_on_c, 5, 65, 70
7, 234720, Note_on_c, 5, 65, 0
7, 234720, Note_on_c, 5, 57, 70
7, 234960, Note_on_c, 5, 57, 0
7, 234960, Note_on_c, 5, 58, 70
7, 235152, Note_on_c, 5, 58, 0
7, 235200, Note_on_c, 5, 60, 70
7, 235440, Note_on_c, 5, 60, 0
7, 235440, Note_on_c, 5, 65, 70
7, 235680, Note_on_c, 5, 65, 0
7, 235680, Note_on_c, 5, 60, 70
7, 235920, Note_on_c, 5, 60, 0
7, 235920, Note_on_c, 5, 62, 70
7, 236112, Note_on_c, 5, 62, 0
7, 236160, Note_on_c, 5, 58, 70
7, 236400, Note_on_c, 5, 58, 0
7, 236400, Note_on_c, 5, 65, 70
7, 236640, Note_on_c, 5, 65, 0
7, 236640, Note_on_c, 5, 58, 70
7, 236880, Note_on_c, 5, 58, 0
7, 236880, Note_on_c, 5, 65, 70
7, 237072, Note_on_c, 5, 65, 0
7, 237120, Note_on_c, 5, 62, 70
7, 237360, Note_on_c, 5, 62, 0
7, 237360, Note_on_c, 5, 65, 70
7, 237600, Note_on_c, 5, 65, 0
7, 237600, Note_on_c, 5, 62, 70
7, 237840, Note_on_c, 5, 62, 0
7, 237840, Note_on_c, 5, 65, 70
7, 238032, Note_on_c, 5, 65, 0
7, 238080, Note_on_c, 5, 63, 70
7, 238320, Note_on_c, 5, 63, 0
7, 238320, Note_on_c, 5, 65, 70
7, 238560, Note_on_c, 5, 65, 0
7, 238560, Note_on_c, 5, 63, 70
7, 238800, Note_on_c, 5, 63, 0
7, 238800, Note_on_c, 5, 65, 70
7, 238992, Note_on_c, 5, 65, 0
7, 239040, Note_on_c, 5, 60, 70
7, 239280, Note_on_c, 5, 60, 0
7, 239280, Note_on_c, 5, 65, 70
7, 239520, Note_on_c, 5, 65, 0
7, 239520, Note_on_c, 5, 60, 70
7, 239760, Note_on_c, 5, 60, 0
7, 239760, Note_on_c, 5, 65, 70
7, 239952, Note_on_c, 5, 65, 0
7, 240000, Note_on_c, 5, 62, 105
7, 240384, Note_on_c, 5, 62, 0
7, 240480, Note_on_c, 5, 74, 116
7, 240540, Note_on_c, 5, 74, 0
7, 240540, Note_on_c, 5, 72, 116
7, 240600, Note_on_c, 5, 72, 0
7, 240600, Note_on_c, 5, 70, 116
7, 240960, Note_on_c, 5, 70, 0
7, 241440, Note_on_c, 5, 62, 116
7, 241500, Note_on_c, 5, 62, 0
7, 241500, Note_on_c, 5, 60, 116
7, 241560, Note_on_c, 5, 60, 0
7, 241560, Note_on_c, 5, 58, 116
7, 241920, Note_on_c, 5, 58, 0
7, 242400, Note_on_c, 5, 65, 116
7, 242460, Note_on_c, 5, 65, 0
7, 242460, Note_on_c, 5, 63, 116
7, 242520, Note_on_c, 5, 63, 0
7, 242520, Note_on_c, 5, 62, 116
7, 242880, Note_on_c, 5, 62, 0
7, 243360, Note_on_c, 5, 74, 116
7, 243420, Note_on_c, 5, 74, 0
7, 243420, Note_on_c, 5, 72, 116
7, 243480, Note_on_c, 5, 72, 0
7, 243480, Note_on_c, 5, 70, 116
7, 243840, Note_on_c, 5, 70, 0
7, 244320, Note_on_c, 5, 75, 116
7, 244380, Note_on_c, 5, 75, 0
7, 244380, Note_on_c, 5, 74, 116
7, 244440, Note_on_c, 5, 74, 0
7, 244440, Note_on_c, 5, 72, 116
7, 244800, Note_on_c, 5, 72, 0
7, 245280, Note_on_c, 5, 72, 116
7, 245340, Note_on_c, 5, 72, 0
7, 245340, Note_on_c, 5, 70, 116
7, 245400, Note_on_c, 5, 70, 0
7, 245400, Note_on_c, 5, 69, 116
7, 245760, Note_on_c, 5, 69, 0
7, 246240, Note_on_c, 5, 63, 116
7, 246300, Note_on_c, 5, 63, 0
7, 246300, Note_on_c, 5, 62, 116
7, 246360, Note_on_c, 5, 62, 0
7, 246360, Note_on_c, 5, 60, 116
7, 246720, Note_on_c, 5, 60, 0
7, 247200, Note_on_c, 5, 60, 116
7, 247260, Note_on_c, 5, 60, 0
7, 247260, Note_on_c, 5, 58, 116
7, 247320, Note_on_c, 5, 58, 0
7, 247320, Note_on_c, 5, 57, 116
7, 247680, Note_on_c, 5, 57, 0
7, 247680, Note_on_c, 5, 58, 105
7, 247872, Note_on_c, 5, 58, 0
7, 247920, Note_on_c, 5, 77, 105
7, 248304, Note_on_c, 5, 77, 0
7, 248400, Note_on_c, 5, 77, 105
7, 248784, Note_on_c, 5, 77, 0
7, 248880, Note_on_c, 5, 77, 105
7, 249264, Note_on_c, 5, 77, 0
7, 249360, Note_on_c, 5, 77, 105
7, 249552, Note_on_c, 5, 77, 0
7, 249600, Note_on_c, 5, 75, 105
7, 249792, Note_on_c, 5, 75, 0
7, 249840, Note_on_c, 5, 75, 105
7, 250224, Note_on_c, 5, 75, 0
7, 250320, Note_on_c, 5, 75, 105
7, 250512, Note_on_c, 5, 75, 0
7, 250560, Note_on_c, 5, 70, 105
7, 250752, Note_on_c, 5, 70, 0
7, 250800, Note_on_c, 5, 70, 105
7, 251184, Note_on_c, 5, 70, 0
7, 251280, Note_on_c, 5, 70, 105
7, 251472, Note_on_c, 5, 70, 0
7, 251520, Note_on_c, 5, 72, 105
7, 251712, Note_on_c, 5, 72, 0
7, 251760, Note_on_c, 5, 72, 105
7, 252144, Note_on_c, 5, 72, 0
7, 252240, Note_on_c, 5, 72, 105
7, 252432, Note_on_c, 5, 72, 0
7, 252480, Note_on_c, 5, 72, 105
7, 252480, Note_on_c, 5, 69, 105
7, 252672, Note_on_c, 5, 69, 0
7, 252672, Note_on_c, 5, 72, 0
7, 252720, Note_on_c, 5, 69, 105
7, 252720, Note_on_c, 5, 72, 105
7, 253104, Note_on_c, 5, 72, 0
7, 253104, Note_on_c, 5, 69, 0
7, 253200, Note_on_c, 5, 72, 105
7, 253200, Note_on_c, 5, 69, 105
7, 253392, Note_on_c, 5, 69, 0
7, 253392, Note_on_c, 5, 72, 0
7, 253440, Note_on_c, 5, 70, 105
7, 253752, Note_on_c, 5, 70, 0
7, 253920, Note_on_c, 5, 77, 105
7, 254232, Note_on_c, 5, 77, 0
7, 254400, Note_on_c, 5, 75, 105
7, 254712, Note_on_c, 5, 75, 0
7, 254880, Note_on_c, 5, 63, 105
7, 254880, Note_on_c, 5, 60, 105
7, 255192, Note_on_c, 5, 60, 0
7, 255192, Note_on_c, 5, 63, 0
7, 255360, Note_on_c, 5, 62, 105
7, 255552, Note_on_c, 5, 62, 0
7, 255600, Note_on_c, 5, 77, 105
7, 255984, Note_on_c, 5, 77, 0
7, 256080, Note_on_c, 5, 77, 105
7, 256464, Note_on_c, 5, 77, 0
7, 256560, Note_on_c, 5, 77, 105
7, 256944, Note_on_c, 5, 77, 0
7, 257040, Note_on_c, 5, 77, 105
7, 257232, Note_on_c, 5, 77, 0
7, 257280, Note_on_c, 5, 75, 105
7, 257472, Note_on_c, 5, 75, 0
7, 257520, Note_on_c, 5, 75, 105
7, 257904, Note_on_c, 5, 75, 0
7, 258000, Note_on_c, 5, 75, 105
7, 258192, Note_on_c, 5, 75, 0
7, 258240, Note_on_c, 5, 70, 105
7, 258432, Note_on_c, 5, 70, 0
7, 258480, Note_on_c, 5, 70, 105
7, 258864, Note_on_c, 5, 70, 0
7, 258960, Note_on_c, 5, 70, 105
7, 259152, Note_on_c, 5, 70, 0
7, 259200, Note_on_c, 5, 72, 105
7, 259392, Note_on_c, 5, 72, 0
7, 259440, Note_on_c, 5, 72, 105
7, 259824, Note_on_c, 5, 72, 0
7, 259920, Note_on_c, 5, 72, 105
7, 260112, Note_on_c, 5, 72, 0
7, 260160, Note_on_c, 5, 84, 105
7, 260352, Note_on_c, 5, 84, 0
7, 260400, Note_on_c, 5, 84, 105
7, 260784, Note_on_c, 5, 84, 0
7, 260880, Note_on_c, 5, 84, 105
7, 261072, Note_on_c, 5, 84, 0
7, 261120, Note_on_c, 5, 82, 105
7, 261408, Note_on_c, 5, 82, 0
7, 261600, Note_on_c, 5, 82, 105
7, 261888, Note_on_c, 5, 82, 0
7, 262080, Note_on_c, 5, 72, 105
7, 262368, Note_on_c, 5, 72, 0
7, 262560, Note_on_c, 5, 81, 105
7, 262848, Note_on_c, 5, 81, 0
7, 263040, Note_on_c, 5, 82, 105
7, 263352, Note_on_c, 5, 82, 0
7, 263520, Note_on_c, 5, 58, 105
7, 263832, Note_on_c, 5, 58, 0
7, 264000, Note_on_c, 5, 74, 105
7, 264576, Note_on_c, 5, 74, 0
7, 264720, Note_on_c, 5, 72, 105
7, 264912, Note_on_c, 5, 72, 0
7, 264960, Note_on_c, 5, 70, 105
7, 265536, Note_on_c, 5, 70, 0
7, 265680, Note_on_c, 5, 69, 105
7, 265872, Note_on_c, 5, 69, 0
7, 265920, Note_on_c, 5, 67, 105
7, 266496, Note_on_c, 5, 67, 0
7, 266640, Note_on_c, 5, 65, 105
7, 266832, Note_on_c, 5, 65, 0
7, 266880, Note_on_c, 5, 63, 105
7, 267192, Note_on_c, 5, 63, 0
7, 267360, Note_on_c, 5, 65, 116
7, 267552, Note_on_c, 5, 65, 0
7, 267600, Note_on_c, 5, 67, 116
7, 267792, Note_on_c, 5, 67, 0
7, 267840, Note_on_c, 5, 69, 116
7, 268032, Note_on_c, 5, 69, 0
7, 268080, Note_on_c, 5, 70, 116
7, 268272, Note_on_c, 5, 70, 0
7, 268320, Note_on_c, 5, 72, 116
7, 268512, Note_on_c, 5, 72, 0
7, 268560, Note_on_c, 5, 70, 116
7, 268752, Note_on_c, 5, 70, 0
7, 268800, Note_on_c, 5, 72, 116
7, 269112, Note_on_c, 5, 72, 0
7, 269280, Note_on_c, 5, 65, 116
7, 269472, Note_on_c, 5, 65, 0
7, 269520, Note_on_c, 5, 67, 116
7, 269712, Note_on_c, 5, 67, 0
7, 269760, Note_on_c, 5, 69, 116
7, 269952, Note_on_c, 5, 69, 0
7, 270000, Note_on_c, 5, 70, 116
7, 270192, Note_on_c, 5, 70, 0
7, 270240, Note_on_c, 5, 72, 116
7, 270432, Note_on_c, 5, 72, 0
7, 270480, Note_on_c, 5, 70, 116
7, 270672, Note_on_c, 5, 70, 0
7, 270720, Note_on_c, 5, 72, 116
7, 271032, Note_on_c, 5, 72, 0
7, 271200, Note_on_c, 5, 65, 116
7, 271392, Note_on_c, 5, 65, 0
7, 271440, Note_on_c, 5, 67, 116
7, 271632, Note_on_c, 5, 67, 0
7, 271680, Note_on_c, 5, 69, 116
7, 271872, Note_on_c, 5, 69, 0
7, 271920, Note_on_c, 5, 70, 116
7, 272112, Note_on_c, 5, 70, 0
7, 272160, Note_on_c, 5, 72, 116
7, 272352, Note_on_c, 5, 72, 0
7, 272400, Note_on_c, 5, 70, 116
7, 272592, Note_on_c, 5, 70, 0
7, 272640, Note_on_c, 5, 72, 116
7, 272952, Note_on_c, 5, 72, 0
7, 273120, Note_on_c, 5, 70, 116
7, 273432, Note_on_c, 5, 70, 0
7, 273600, Note_on_c, 5, 70, 116
7, 273912, Note_on_c, 5, 70, 0
7, 274080, Note_on_c, 5, 60, 116
7, 274080, Note_on_c, 5, 63, 116
7, 274392, Note_on_c, 5, 63, 0
7, 274392, Note_on_c, 5, 60, 0
7, 274560, Note_on_c, 5, 58, 110
7, 274560, Note_on_c, 5, 62, 70
7, 274872, Note_on_c, 5, 62, 0
7, 274872, Note_on_c, 5, 58, 0
7, 275040, Note_on_c, 5, 65, 70
7, 275232, Note_on_c, 5, 65, 0
7, 275280, Note_on_c, 5, 67, 70
7, 275472, Note_on_c, 5, 67, 0
7, 275520, Note_on_c, 5, 69, 70
7, 275712, Note_on_c, 5, 69, 0
7, 275760, Note_on_c, 5, 70, 70
7, 275952, Note_on_c, 5, 70, 0
7, 276000, Note_on_c, 5, 72, 70
7, 276192, Note_on_c, 5, 72, 0
7, 276240, Note_on_c, 5, 70, 70
7, 276432, Note_on_c, 5, 70, 0
7, 276480, Note_on_c, 5, 72, 70
7, 276792, Note_on_c, 5, 72, 0
7, 276960, Note_on_c, 5, 65, 70
7, 277152, Note_on_c, 5, 65, 0
7, 277200, Note_on_c, 5, 67, 70
7, 277392, Note_on_c, 5, 67, 0
7, 277440, Note_on_c, 5, 69, 70
7, 277632, Note_on_c, 5, 69, 0
7, 277680, Note_on_c, 5, 70, 70
7, 277872, Note_on_c, 5, 70, 0
7, 277920, Note_on_c, 5, 72, 70
7, 278112, Note_on_c, 5, 72, 0
7, 278160, Note_on_c, 5, 70, 70
7, 278352, Note_on_c, 5, 70, 0
7, 278400, Note_on_c, 5, 72, 70
7, 278712, Note_on_c, 5, 72, 0
7, 278880, Note_on_c, 5, 77, 127
7, 279072, Note_on_c, 5, 77, 0
7, 279120, Note_on_c, 5, 79, 116
7, 279312, Note_on_c, 5, 79, 0
7, 279360, Note_on_c, 5, 81, 116
7, 279552, Note_on_c, 5, 81, 0
7, 279600, Note_on_c, 5, 82, 116
7, 279792, Note_on_c, 5, 82, 0
7, 279840, Note_on_c, 5, 84, 116
7, 280032, Note_on_c, 5, 84, 0
7, 280080, Note_on_c, 5, 82, 116
7, 280272, Note_on_c, 5, 82, 0
7, 280320, Note_on_c, 5, 84, 116
7, 280632, Note_on_c, 5, 84, 0
7, 280800, Note_on_c, 5, 82, 116
7, 281112, Note_on_c, 5, 82, 0
7, 281280, Note_on_c, 5, 79, 116
7, 281592, Note_on_c, 5, 79, 0
7, 281760, Note_on_c, 5, 65, 116
7, 281760, Note_on_c, 5, 75, 116
7, 282072, Note_on_c, 5, 75, 0
7, 282072, Note_on_c, 5, 65, 0
7, 282240, Note_on_c, 5, 65, 116
7, 282240, Note_on_c, 5, 74, 116
7, 282552, Note_on_c, 5, 74, 0
7, 282552, Note_on_c, 5, 65, 0
7, 282720, Note_on_c, 5, 58, 116
7, 283032, Note_on_c, 5, 58, 0
7, 283200, Note_on_c, 5, 74, 116
7, 283776, Note_on_c, 5, 74, 0
7, 283920, Note_on_c, 5, 72, 116
7, 284112, Note_on_c, 5, 72, 0
7, 284160, Note_on_c, 5, 70, 116
7, 284472, Note_on_c, 5, 70, 0
7, 284640, Note_on_c, 5, 58, 116
7, 284952, Note_on_c, 5, 58, 0
7, 285120, Note_on_c, 5, 74, 116
7, 285696, Note_on_c, 5, 74, 0
7, 285840, Note_on_c, 5, 72, 116
7, 286032, Note_on_c, 5, 72, 0
7, 286080, Note_on_c, 5, 70, 116
7, 286848, Note_on_c, 5, 70, 0
7, 293760, Note_on_c, 5, 67, 105
7, 294120, Note_on_c, 5, 67, 0
7, 294240, Note_on_c, 5, 62, 105
7, 294504, Note_on_c, 5, 62, 0
7, 294720, Note_on_c, 5, 63, 105
7, 294984, Note_on_c, 5, 63, 0
7, 295200, Note_on_c, 5, 65, 105
7, 295464, Note_on_c, 5, 65, 0
7, 295680, Note_on_c, 5, 67, 105
7, 296040, Note_on_c, 5, 67, 0
7, 296160, Note_on_c, 5, 67, 105
7, 296424, Note_on_c, 5, 67, 0
7, 296640, Note_on_c, 5, 69, 105
7, 296904, Note_on_c, 5, 69, 0
7, 297120, Note_on_c, 5, 70, 105
7, 297384, Note_on_c, 5, 70, 0
7, 297600, Note_on_c, 5, 72, 105
7, 297960, Note_on_c, 5, 72, 0
7, 298080, Note_on_c, 5, 60, 105
7, 298344, Note_on_c, 5, 60, 0
7, 298560, Note_on_c, 5, 62, 105
7, 298824, Note_on_c, 5, 62, 0
7, 299040, Note_on_c, 5, 63, 105
7, 299304, Note_on_c, 5, 63, 0
7, 299520, Note_on_c, 5, 65, 105
7, 299880, Note_on_c, 5, 65, 0
7, 300000, Note_on_c, 5, 65, 105
7, 300264, Note_on_c, 5, 65, 0
7, 300480, Note_on_c, 5, 67, 105
7, 300744, Note_on_c, 5, 67, 0
7, 300960, Note_on_c, 5, 68, 105
7, 301224, Note_on_c, 5, 68, 0
7, 301440, Note_on_c, 5, 70, 105
7, 301800, Note_on_c, 5, 70, 0
7, 301920, Note_on_c, 5, 58, 105
7, 302184, Note_on_c, 5, 58, 0
7, 302400, Note_on_c, 5, 60, 105
7, 302664, Note_on_c, 5, 60, 0
7, 302880, Note_on_c, 5, 62, 105
7, 303144, Note_on_c, 5, 62, 0
7, 303360, Note_on_c, 5, 63, 105
7, 303720, Note_on_c, 5, 63, 0
7, 303840, Note_on_c, 5, 64, 105
7, 304104, Note_on_c, 5, 64, 0
7, 304320, Note_on_c, 5, 66, 105
7, 304584, Note_on_c, 5, 66, 0
7, 304800, Note_on_c, 5, 67, 105
7, 305064, Note_on_c, 5, 67, 0
7, 305280, Note_on_c, 5, 69, 105
7, 305640, Note_on_c, 5, 69, 0
7, 305760, Note_on_c, 5, 72, 105
7, 306000, Note_on_c, 5, 72, 0
7, 306000, Note_on_c, 5, 75, 105
7, 306132, Note_on_c, 5, 75, 0
7, 306240, Note_on_c, 5, 74, 105
7, 306504, Note_on_c, 5, 74, 0
7, 306720, Note_on_c, 5, 78, 105
7, 306984, Note_on_c, 5, 78, 0
7, 307200, Note_on_c, 5, 79, 105
7, 307380, Note_on_c, 5, 79, 0
7, 307440, Note_on_c, 5, 79, 105
7, 307620, Note_on_c, 5, 79, 0
7, 307680, Note_on_c, 5, 74, 105
7, 307860, Note_on_c, 5, 74, 0
7, 307920, Note_on_c, 5, 70, 105
7, 308100, Note_on_c, 5, 70, 0
7, 308160, Note_on_c, 5, 67, 105
7, 308340, Note_on_c, 5, 67, 0
7, 308400, Note_on_c, 5, 70, 105
7, 308580, Note_on_c, 5, 70, 0
7, 308640, Note_on_c, 5, 69, 105
7, 308820, Note_on_c, 5, 69, 0
7, 308880, Note_on_c, 5, 67, 105
7, 309060, Note_on_c, 5, 67, 0
7, 309120, Note_on_c, 5, 65, 105
7, 309300, Note_on_c, 5, 65, 0
7, 309360, Note_on_c, 5, 69, 105
7, 309540, Note_on_c, 5, 69, 0
7, 309600, Note_on_c, 5, 67, 105
7, 309780, Note_on_c, 5, 67, 0
7, 309840, Note_on_c, 5, 65, 105
7, 310020, Note_on_c, 5, 65, 0
7, 310080, Note_on_c, 5, 64, 105
7, 310260, Note_on_c, 5, 64, 0
7, 310320, Note_on_c, 5, 67, 105
7, 310500, Note_on_c, 5, 67, 0
7, 310560, Note_on_c, 5, 65, 105
7, 310740, Note_on_c, 5, 65, 0
7, 310800, Note_on_c, 5, 64, 105
7, 310980, Note_on_c, 5, 64, 0
7, 311040, Note_on_c, 5, 62, 105
7, 311400, Note_on_c, 5, 62, 0
7, 311520, Note_on_c, 5, 64, 105
7, 311880, Note_on_c, 5, 64, 0
7, 312000, Note_on_c, 5, 57, 105
7, 312360, Note_on_c, 5, 57, 0
7, 312480, Note_on_c, 5, 59, 105
7, 312840, Note_on_c, 5, 59, 0
7, 312960, Note_on_c, 5, 61, 105
7, 313728, Note_on_c, 5, 61, 0
7, 314400, Note_on_c, 5, 64, 105
7, 314664, Note_on_c, 5, 64, 0
7, 314880, Note_on_c, 5, 64, 116
7, 315840, Note_on_c, 5, 64, 0
7, 315840, Note_on_c, 5, 65, 116
7, 316152, Note_on_c, 5, 65, 0
7, 316320, Note_on_c, 5, 66, 116
7, 316584, Note_on_c, 5, 66, 0
7, 316800, Note_on_c, 5, 66, 116
7, 317760, Note_on_c, 5, 66, 0
7, 317760, Note_on_c, 5, 67, 116
7, 318072, Note_on_c, 5, 67, 0
7, 318240, Note_on_c, 5, 68, 116
7, 318504, Note_on_c, 5, 68, 0
7, 318720, Note_on_c, 5, 69, 116
7, 319032, Note_on_c, 5, 69, 0
7, 319200, Note_on_c, 5, 65, 116
7, 319512, Note_on_c, 5, 65, 0
7, 319680, Note_on_c, 5, 67, 116
7, 319992, Note_on_c, 5, 67, 0
7, 320160, Note_on_c, 5, 64, 116
7, 320472, Note_on_c, 5, 64, 0
7, 320640, Note_on_c, 5, 65, 116
7, 320820, Note_on_c, 5, 65, 0
7, 320880, Note_on_c, 5, 67, 116
7, 321060, Note_on_c, 5, 67, 0
7, 321120, Note_on_c, 5, 69, 116
7, 321300, Note_on_c, 5, 69, 0
7, 321360, Note_on_c, 5, 65, 116
7, 321540, Note_on_c, 5, 65, 0
7, 321600, Note_on_c, 5, 64, 116
7, 321780, Note_on_c, 5, 64, 0
7, 321840, Note_on_c, 5, 65, 116
7, 322020, Note_on_c, 5, 65, 0
7, 322080, Note_on_c, 5, 67, 116
7, 322260, Note_on_c, 5, 67, 0
7, 322320, Note_on_c, 5, 64, 116
7, 322500, Note_on_c, 5, 64, 0
7, 322560, Note_on_c, 5, 65, 116
7, 322740, Note_on_c, 5, 65, 0
7, 322800, Note_on_c, 5, 67, 116
7, 322980, Note_on_c, 5, 67, 0
7, 323040, Note_on_c, 5, 69, 116
7, 323220, Note_on_c, 5, 69, 0
7, 323280, Note_on_c, 5, 65, 116
7, 323460, Note_on_c, 5, 65, 0
7, 323520, Note_on_c, 5, 64, 116
7, 323700, Note_on_c, 5, 64, 0
7, 323760, Note_on_c, 5, 65, 116
7, 323940, Note_on_c, 5, 65, 0
7, 324000, Note_on_c, 5, 67, 116
7, 324180, Note_on_c, 5, 67, 0
7, 324240, Note_on_c, 5, 64, 116
7, 324420, Note_on_c, 5, 64, 0
7, 324480, Note_on_c, 5, 65, 116
7, 324864, Note_on_c, 5, 65, 0
7, 329760, Note_on_c, 5, 62, 116
7, 330024, Note_on_c, 5, 62, 0
7, 330240, Note_on_c, 5, 62, 116
7, 331200, Note_on_c, 5, 62, 0
7, 331200, Note_on_c, 5, 63, 116
7, 331512, Note_on_c, 5, 63, 0
7, 331680, Note_on_c, 5, 64, 116
7, 331944, Note_on_c, 5, 64, 0
7, 332160, Note_on_c, 5, 64, 116
7, 332928, Note_on_c, 5, 64, 0
7, 333120, Note_on_c, 5, 65, 116
7, 333432, Note_on_c, 5, 65, 0
7, 333600, Note_on_c, 5, 66, 116
7, 333864, Note_on_c, 5, 66, 0
7, 334080, Note_on_c, 5, 67, 116
7, 334392, Note_on_c, 5, 67, 0
7, 334560, Note_on_c, 5, 63, 116
7, 334872, Note_on_c, 5, 63, 0
7, 335040, Note_on_c, 5, 65, 116
7, 335352, Note_on_c, 5, 65, 0
7, 335520, Note_on_c, 5, 62, 116
7, 335832, Note_on_c, 5, 62, 0
7, 336000, Note_on_c, 5, 63, 116
7, 336180, Note_on_c, 5, 63, 0
7, 336240, Note_on_c, 5, 65, 116
7, 336420, Note_on_c, 5, 65, 0
7, 336480, Note_on_c, 5, 67, 116
7, 336660, Note_on_c, 5, 67, 0
7, 336720, Note_on_c, 5, 63, 116
7, 336900, Note_on_c, 5, 63, 0
7, 336960, Note_on_c, 5, 62, 116
7, 337140, Note_on_c, 5, 62, 0
7, 337200, Note_on_c, 5, 63, 116
7, 337380, Note_on_c, 5, 63, 0
7, 337440, Note_on_c, 5, 65, 116
7, 337620, Note_on_c, 5, 65, 0
7, 337680, Note_on_c, 5, 62, 116
7, 337860, Note_on_c, 5, 62, 0
7, 337920, Note_on_c, 5, 63, 116
7, 338100, Note_on_c, 5, 63, 0
7, 338160, Note_on_c, 5, 65, 116
7, 338340, Note_on_c, 5, 65, 0
7, 338400, Note_on_c, 5, 67, 116
7, 338580, Note_on_c, 5, 67, 0
7, 338640, Note_on_c, 5, 63, 116
7, 338820, Note_on_c, 5, 63, 0
7, 338880, Note_on_c, 5, 62, 116
7, 339060, Note_on_c, 5, 62, 0
7, 339120, Note_on_c, 5, 63, 116
7, 339300, Note_on_c, 5, 63, 0
7, 339360, Note_on_c, 5, 65, 116
7, 339540, Note_on_c, 5, 65, 0
7, 339600, Note_on_c, 5, 62, 116
7, 339780, Note_on_c, 5, 62, 0
7, 339840, Note_on_c, 5, 63, 116
7, 340020, Note_on_c, 5, 63, 0
7, 340080, Note_on_c, 5, 65, 116
7, 340260, Note_on_c, 5, 65, 0
7, 340320, Note_on_c, 5, 67, 116
7, 340500, Note_on_c, 5, 67, 0
7, 340560, Note_on_c, 5, 63, 116
7, 340740, Note_on_c, 5, 63, 0
7, 340800, Note_on_c, 5, 62, 116
7, 340992, Note_on_c, 5, 62, 0
7, 341040, Note_on_c, 5, 60, 116
7, 341232, Note_on_c, 5, 60, 0
7, 341280, Note_on_c, 5, 62, 116
7, 341472, Note_on_c, 5, 62, 0
7, 341520, Note_on_c, 5, 58, 116
7, 341712, Note_on_c, 5, 58, 0
7, 341760, Note_on_c, 5, 60, 116
7, 341940, Note_on_c, 5, 60, 0
7, 342000, Note_on_c, 5, 58, 105
7, 342180, Note_on_c, 5, 58, 0
7, 342240, Note_on_c, 5, 60, 105
7, 342420, Note_on_c, 5, 60, 0
7, 342480, Note_on_c, 5, 57, 105
7, 342660, Note_on_c, 5, 57, 0
7, 342720, Note_on_c, 5, 69, 105
7, 342900, Note_on_c, 5, 69, 0
7, 342960, Note_on_c, 5, 67, 105
7, 343140, Note_on_c, 5, 67, 0
7, 343200, Note_on_c, 5, 69, 105
7, 343380, Note_on_c, 5, 69, 0
7, 343440, Note_on_c, 5, 66, 105
7, 343620, Note_on_c, 5, 66, 0
7, 343680, Note_on_c, 5, 74, 105
7, 343860, Note_on_c, 5, 74, 0
7, 343920, Note_on_c, 5, 70, 105
7, 344100, Note_on_c, 5, 70, 0
7, 344160, Note_on_c, 5, 67, 105
7, 344340, Note_on_c, 5, 67, 0
7, 344400, Note_on_c, 5, 70, 105
7, 344580, Note_on_c, 5, 70, 0
7, 344640, Note_on_c, 5, 67, 105
7, 344820, Note_on_c, 5, 67, 0
7, 344880, Note_on_c, 5, 70, 105
7, 345060, Note_on_c, 5, 70, 0
7, 345120, Note_on_c, 5, 69, 105
7, 345300, Note_on_c, 5, 69, 0
7, 345360, Note_on_c, 5, 67, 105
7, 345540, Note_on_c, 5, 67, 0
7, 345600, Note_on_c, 5, 66, 105
7, 345792, Note_on_c, 5, 66, 0
7, 345840, Note_on_c, 5, 66, 105
7, 346224, Note_on_c, 5, 66, 0
7, 346320, Note_on_c, 5, 66, 105
7, 346512, Note_on_c, 5, 66, 0
7, 346560, Note_on_c, 5, 78, 105
7, 346752, Note_on_c, 5, 78, 0
7, 346800, Note_on_c, 5, 78, 105
7, 347184, Note_on_c, 5, 78, 0
7, 347280, Note_on_c, 5, 78, 105
7, 347472, Note_on_c, 5, 78, 0
7, 347520, Note_on_c, 5, 79, 105
7, 347712, Note_on_c, 5, 79, 0
7, 347760, Note_on_c, 5, 79, 105
7, 348144, Note_on_c, 5, 79, 0
7, 348240, Note_on_c, 5, 79, 105
7, 348432, Note_on_c, 5, 79, 0
7, 348480, Note_on_c, 5, 73, 105
7, 348672, Note_on_c, 5, 73, 0
7, 348720, Note_on_c, 5, 73, 105
7, 349104, Note_on_c, 5, 73, 0
7, 349200, Note_on_c, 5, 73, 105
7, 349392, Note_on_c, 5, 73, 0
7, 349440, Note_on_c, 5, 74, 92
7, 349824, Note_on_c, 5, 74, 0
7, 353280, Note_on_c, 5, 67, 58
7, 353592, Note_on_c, 5, 67, 0
7, 353760, Note_on_c, 5, 62, 58
7, 354072, Note_on_c, 5, 62, 0
7, 354240, Note_on_c, 5, 70, 58
7, 354780, Note_on_c, 5, 70, 0
7, 354960, Note_on_c, 5, 69, 58
7, 355116, Note_on_c, 5, 69, 0
7, 355200, Note_on_c, 5, 67, 58
7, 355512, Note_on_c, 5, 67, 0
7, 355680, Note_on_c, 5, 70, 58
7, 356160, Note_on_c, 5, 70, 0
7, 356160, Note_on_c, 5, 69, 58
7, 356640, Note_on_c, 5, 69, 0
7, 356640, Note_on_c, 5, 67, 58
7, 357096, Note_on_c, 5, 67, 0
7, 357120, Note_on_c, 5, 66, 58
7, 357432, Note_on_c, 5, 66, 0
7, 357600, Note_on_c, 5, 62, 58
7, 357912, Note_on_c, 5, 62, 0
7, 358080, Note_on_c, 5, 72, 58
7, 358620, Note_on_c, 5, 72, 0
7, 358800, Note_on_c, 5, 70, 58
7, 358956, Note_on_c, 5, 70, 0
7, 359040, Note_on_c, 5, 69, 58
7, 359352, Note_on_c, 5, 69, 0
7, 359520, Note_on_c, 5, 72, 58
7, 360000, Note_on_c, 5, 72, 0
7, 360000, Note_on_c, 5, 70, 58
7, 360480, Note_on_c, 5, 70, 0
7, 360480, Note_on_c, 5, 69, 58
7, 360936, Note_on_c, 5, 69, 0
7, 360960, Note_on_c, 5, 67, 58
7, 361272, Note_on_c, 5, 67, 0
7, 361440, Note_on_c, 5, 70, 58
7, 361752, Note_on_c, 5, 70, 0
7, 361920, Note_on_c, 5, 75, 58
7, 362424, Note_on_c, 5, 75, 0
7, 362640, Note_on_c, 5, 74, 58
7, 362796, Note_on_c, 5, 74, 0
7, 362880, Note_on_c, 5, 72, 58
7, 363192, Note_on_c, 5, 72, 0
7, 363360, Note_on_c, 5, 69, 58
7, 363672, Note_on_c, 5, 69, 0
7, 363840, Note_on_c, 5, 74, 58
7, 364344, Note_on_c, 5, 74, 0
7, 364560, Note_on_c, 5, 72, 58
7, 364716, Note_on_c, 5, 72, 0
7, 364800, Note_on_c, 5, 70, 58
7, 365112, Note_on_c, 5, 70, 0
7, 365280, Note_on_c, 5, 67, 58
7, 365592, Note_on_c, 5, 67, 0
7, 365760, Note_on_c, 5, 63, 58
7, 366072, Note_on_c, 5, 63, 0
7, 366240, Note_on_c, 5, 61, 58
7, 366552, Note_on_c, 5, 61, 0
7, 366720, Note_on_c, 5, 62, 58
7, 367032, Note_on_c, 5, 62, 0
7, 367200, Note_on_c, 5, 72, 58
7, 367680, Note_on_c, 5, 72, 0
7, 367680, Note_on_c, 5, 70, 58
7, 368160, Note_on_c, 5, 70, 0
7, 368160, Note_on_c, 5, 69, 58
7, 368472, Note_on_c, 5, 69, 0
7, 368640, Note_on_c, 5, 67, 105
7, 368832, Note_on_c, 5, 67, 0
7, 368880, Note_on_c, 5, 74, 105
7, 369264, Note_on_c, 5, 74, 0
7, 369360, Note_on_c, 5, 74, 105
7, 369744, Note_on_c, 5, 74, 0
7, 369840, Note_on_c, 5, 74, 105
7, 370224, Note_on_c, 5, 74, 0
7, 370320, Note_on_c, 5, 74, 105
7, 370944, Note_on_c, 5, 74, 0
7, 371040, Note_on_c, 5, 74, 105
7, 371520, Note_on_c, 5, 74, 0
7, 371520, Note_on_c, 5, 72, 105
7, 372000, Note_on_c, 5, 72, 0
7, 372000, Note_on_c, 5, 70, 105
7, 372384, Note_on_c, 5, 70, 0
7, 372480, Note_on_c, 5, 69, 105
7, 372672, Note_on_c, 5, 69, 0
7, 372720, Note_on_c, 5, 74, 105
7, 373104, Note_on_c, 5, 74, 0
7, 373200, Note_on_c, 5, 74, 105
7, 373584, Note_on_c, 5, 74, 0
7, 373680, Note_on_c, 5, 74, 105
7, 374064, Note_on_c, 5, 74, 0
7, 374160, Note_on_c, 5, 74, 105
7, 374784, Note_on_c, 5, 74, 0
7, 374880, Note_on_c, 5, 75, 105
7, 375360, Note_on_c, 5, 75, 0
7, 375360, Note_on_c, 5, 74, 105
7, 375840, Note_on_c, 5, 74, 0
7, 375840, Note_on_c, 5, 78, 105
7, 376224, Note_on_c, 5, 78, 0
7, 376320, Note_on_c, 5, 79, 105
7, 376512, Note_on_c, 5, 79, 0
7, 376560, Note_on_c, 5, 79, 105
7, 376944, Note_on_c, 5, 79, 0
7, 377040, Note_on_c, 5, 79, 105
7, 377424, Note_on_c, 5, 79, 0
7, 377520, Note_on_c, 5, 79, 105
7, 377904, Note_on_c, 5, 79, 0
7, 378000, Note_on_c, 5, 79, 105
7, 378192, Note_on_c, 5, 79, 0
7, 378240, Note_on_c, 5, 87, 105
7, 378432, Note_on_c, 5, 87, 0
7, 378480, Note_on_c, 5, 87, 105
7, 378864, Note_on_c, 5, 87, 0
7, 378960, Note_on_c, 5, 87, 105
7, 379152, Note_on_c, 5, 87, 0
7, 379200, Note_on_c, 5, 78, 105
7, 379392, Note_on_c, 5, 78, 0
7, 379440, Note_on_c, 5, 78, 105
7, 379824, Note_on_c, 5, 78, 0
7, 379920, Note_on_c, 5, 78, 105
7, 380112, Note_on_c, 5, 78, 0
7, 380160, Note_on_c, 5, 79, 105
7, 380472, Note_on_c, 5, 79, 0
7, 380640, Note_on_c, 5, 70, 105
7, 380952, Note_on_c, 5, 70, 0
7, 381120, Note_on_c, 5, 69, 105
7, 381432, Note_on_c, 5, 69, 0
7, 381600, Note_on_c, 5, 78, 105
7, 381912, Note_on_c, 5, 78, 0
7, 382080, Note_on_c, 5, 79, 105
7, 382392, Note_on_c, 5, 79, 0
7, 382560, Note_on_c, 5, 67, 105
7, 382872, Note_on_c, 5, 67, 0
7, 384960, Note_on_c, 5, 67, 58
7, 385728, Note_on_c, 5, 67, 0
7, 385920, Note_on_c, 5, 67, 58
7, 386880, Note_on_c, 5, 67, 0
7, 386880, Note_on_c, 5, 67, 58
7, 387264, Note_on_c, 5, 67, 0
7, 388800, Note_on_c, 5, 68, 58
7, 389184, Note_on_c, 5, 68, 0
7, 389280, Note_on_c, 5, 68, 58
7, 389664, Note_on_c, 5, 68, 0
7, 389760, Note_on_c, 5, 68, 58
7, 390720, Note_on_c, 5, 68, 0
7, 390720, Note_on_c, 5, 67, 58
7, 391104, Note_on_c, 5, 67, 0
7, 392640, Note_on_c, 5, 63, 58
7, 393408, Note_on_c, 5, 63, 0
7, 393600, Note_on_c, 5, 63, 70
7, 394560, Note_on_c, 5, 63, 0
7, 394560, Note_on_c, 5, 62, 58
7, 394944, Note_on_c, 5, 62, 0
7, 395040, Note_on_c, 5, 70, 58
7, 395904, Note_on_c, 5, 70, 0
7, 396000, Note_on_c, 5, 69, 70
7, 396768, Note_on_c, 5, 69, 0
7, 396960, Note_on_c, 5, 67, 70
7, 397920, Note_on_c, 5, 67, 0
7, 397920, Note_on_c, 5, 66, 58
7, 398304, Note_on_c, 5, 66, 0
7, 398880, Note_on_c, 5, 62, 70
7, 399744, Note_on_c, 5, 62, 0
7, 399840, Note_on_c, 5, 60, 70
7, 400608, Note_on_c, 5, 60, 0
7, 400800, Note_on_c, 5, 58, 70
7, 402240, Note_on_c, 5, 58, 0
7, 402240, Note_on_c, 5, 57, 70
7, 402624, Note_on_c, 5, 57, 0
7, 406080, Note_on_c, 5, 72, 105
7, 406224, Note_on_c, 5, 72, 0
7, 406320, Note_on_c, 5, 70, 105
7, 406464, Note_on_c, 5, 70, 0
7, 406560, Note_on_c, 5, 69, 105
7, 406704, Note_on_c, 5, 69, 0
7, 406800, Note_on_c, 5, 67, 105
7, 406944, Note_on_c, 5, 67, 0
7, 407040, Note_on_c, 5, 66, 105
7, 407280, Note_on_c, 5, 66, 0
7, 407280, Note_on_c, 5, 67, 105
7, 407424, Note_on_c, 5, 67, 0
7, 407520, Note_on_c, 5, 66, 105
7, 407664, Note_on_c, 5, 66, 0
7, 407760, Note_on_c, 5, 63, 105
7, 407904, Note_on_c, 5, 63, 0
7, 408000, Note_on_c, 5, 62, 105
7, 408144, Note_on_c, 5, 62, 0
7, 408240, Note_on_c, 5, 60, 105
7, 408384, Note_on_c, 5, 60, 0
7, 408480, Note_on_c, 5, 58, 105
7, 408624, Note_on_c, 5, 58, 0
7, 408720, Note_on_c, 5, 57, 105
7, 408864, Note_on_c, 5, 57, 0
7, 408960, Note_on_c, 5, 55, 105
7, 409272, Note_on_c, 5, 55, 0
7, 409440, Note_on_c, 5, 67, 105
7, 409752, Note_on_c, 5, 67, 0
7, 409920, Note_on_c, 5, 70, 105
7, 410496, Note_on_c, 5, 70, 0
7, 410640, Note_on_c, 5, 69, 105
7, 410832, Note_on_c, 5, 69, 0
7, 410880, Note_on_c, 5, 67, 105
7, 411144, Note_on_c, 5, 67, 0
7, 411360, Note_on_c, 5, 69, 105
7, 411624, Note_on_c, 5, 69, 0
7, 411840, Note_on_c, 5, 67, 105
7, 412416, Note_on_c, 5, 67, 0
7, 412560, Note_on_c, 5, 65, 105
7, 412752, Note_on_c, 5, 65, 0
7, 412800, Note_on_c, 5, 63, 105
7, 413064, Note_on_c, 5, 63, 0
7, 413280, Note_on_c, 5, 65, 105
7, 413544, Note_on_c, 5, 65, 0
7, 413760, Note_on_c, 5, 79, 105
7, 414336, Note_on_c, 5, 79, 0
7, 414480, Note_on_c, 5, 77, 105
7, 414672, Note_on_c, 5, 77, 0
7, 414720, Note_on_c, 5, 75, 105
7, 414984, Note_on_c, 5, 75, 0
7, 415200, Note_on_c, 5, 77, 105
7, 415464, Note_on_c, 5, 77, 0
7, 415680, Note_on_c, 5, 75, 105
7, 416256, Note_on_c, 5, 75, 0
7, 416400, Note_on_c, 5, 74, 105
7, 416592, Note_on_c, 5, 74, 0
7, 416640, Note_on_c, 5, 72, 105
7, 416904, Note_on_c, 5, 72, 0
7, 417120, Note_on_c, 5, 74, 105
7, 417384, Note_on_c, 5, 74, 0
7, 417600, Note_on_c, 5, 60, 105
7, 418176, Note_on_c, 5, 60, 0
7, 418320, Note_on_c, 5, 60, 105
7, 418512, Note_on_c, 5, 60, 0
7, 418560, Note_on_c, 5, 66, 105
7, 419136, Note_on_c, 5, 66, 0
7, 419280, Note_on_c, 5, 66, 105
7, 419472, Note_on_c, 5, 66, 0
7, 419520, Note_on_c, 5, 72, 105
7, 420096, Note_on_c, 5, 72, 0
7, 420240, Note_on_c, 5, 72, 105
7, 420432, Note_on_c, 5, 72, 0
7, 420480, Note_on_c, 5, 70, 105
7, 420636, Note_on_c, 5, 70, 0
7, 420720, Note_on_c, 5, 69, 105
7, 420876, Note_on_c, 5, 69, 0
7, 420960, Note_on_c, 5, 67, 105
7, 421116, Note_on_c, 5, 67, 0
7, 421200, Note_on_c, 5, 65, 105
7, 421356, Note_on_c, 5, 65, 0
7, 421440, Note_on_c, 5, 63, 105
7, 421596, Note_on_c, 5, 63, 0
7, 421680, Note_on_c, 5, 62, 105
7, 421836, Note_on_c, 5, 62, 0
7, 421920, Note_on_c, 5, 60, 105
7, 422076, Note_on_c, 5, 60, 0
7, 422160, Note_on_c, 5, 58, 105
7, 422316, Note_on_c, 5, 58, 0
7, 422400, Note_on_c, 5, 57, 105
7, 422688, Note_on_c, 5, 57, 0
7, 422880, Note_on_c, 5, 72, 105
7, 423168, Note_on_c, 5, 72, 0
7, 423360, Note_on_c, 5, 70, 105
7, 423648, Note_on_c, 5, 70, 0
7, 423840, Note_on_c, 5, 69, 105
7, 424128, Note_on_c, 5, 69, 0
7, 424320, Note_on_c, 5, 67, 105
7, 424608, Note_on_c, 5, 67, 0
7, 424800, Note_on_c, 5, 62, 105
7, 425088, Note_on_c, 5, 62, 0
7, 425280, Note_on_c, 5, 70, 105
7, 425856, Note_on_c, 5, 70, 0
7, 426000, Note_on_c, 5, 69, 105
7, 426192, Note_on_c, 5, 69, 0
7, 426240, Note_on_c, 5, 67, 105
7, 426528, Note_on_c, 5, 67, 0
7, 426720, Note_on_c, 5, 62, 105
7, 427008, Note_on_c, 5, 62, 0
7, 427200, Note_on_c, 5, 58, 105
7, 427488, Note_on_c, 5, 58, 0
7, 427680, Note_on_c, 5, 55, 105
7, 427968, Note_on_c, 5, 55, 0
7, 428160, Note_on_c, 5, 62, 80
7, 428472, Note_on_c, 5, 62, 0
7, 428640, Note_on_c, 5, 57, 80
7, 428952, Note_on_c, 5, 57, 0
7, 429120, Note_on_c, 5, 66, 80
7, 429696, Note_on_c, 5, 66, 0
7, 429840, Note_on_c, 5, 64, 80
7, 430032, Note_on_c, 5, 64, 0
7, 430080, Note_on_c, 5, 62, 80
7, 430392, Note_on_c, 5, 62, 0
7, 430560, Note_on_c, 5, 69, 80
7, 430872, Note_on_c, 5, 69, 0
7, 431040, Note_on_c, 5, 66, 80
7, 431352, Note_on_c, 5, 66, 0
7, 431520, Note_on_c, 5, 62, 80
7, 431832, Note_on_c, 5, 62, 0
7, 432000, Note_on_c, 5, 72, 70
7, 432960, Note_on_c, 5, 72, 0
7, 432960, Note_on_c, 5, 69, 70
7, 433872, Note_on_c, 5, 69, 0
7, 433920, Note_on_c, 5, 66, 70
7, 434880, Note_on_c, 5, 66, 0
7, 434880, Note_on_c, 5, 60, 70
7, 435648, Note_on_c, 5, 60, 0
7, 435840, Note_on_c, 5, 58, 70
7, 436080, Note_on_c, 5, 58, 0
7, 436080, Note_on_c, 5, 55, 70
7, 436320, Note_on_c, 5, 55, 0
7, 436320, Note_on_c, 5, 58, 70
7, 436560, Note_on_c, 5, 58, 0
7, 436560, Note_on_c, 5, 62, 70
7, 436752, Note_on_c, 5, 62, 0
7, 436800, Note_on_c, 5, 67, 70
7, 437040, Note_on_c, 5, 67, 0
7, 437040, Note_on_c, 5, 62, 70
7, 437280, Note_on_c, 5, 62, 0
7, 437280, Note_on_c, 5, 67, 70
7, 437520, Note_on_c, 5, 67, 0
7, 437520, Note_on_c, 5, 69, 70
7, 437712, Note_on_c, 5, 69, 0
7, 437760, Note_on_c, 5, 66, 70
7, 438000, Note_on_c, 5, 66, 0
7, 438000, Note_on_c, 5, 62, 70
7, 438240, Note_on_c, 5, 62, 0
7, 438240, Note_on_c, 5, 66, 70
7, 438480, Note_on_c, 5, 66, 0
7, 438480, Note_on_c, 5, 67, 70
7, 438672, Note_on_c, 5, 67, 0
7, 438720, Note_on_c, 5, 69, 70
7, 438960, Note_on_c, 5, 69, 0
7, 438960, Note_on_c, 5, 62, 70
7, 439200, Note_on_c, 5, 62, 0
7, 439200, Note_on_c, 5, 69, 70
7, 439440, Note_on_c, 5, 69, 0
7, 439440, Note_on_c, 5, 70, 70
7, 439632, Note_on_c, 5, 70, 0
7, 439680, Note_on_c, 5, 67, 70
7, 439920, Note_on_c, 5, 67, 0
7, 439920, Note_on_c, 5, 62, 70
7, 440160, Note_on_c, 5, 62, 0
7, 440160, Note_on_c, 5, 67, 70
7, 440400, Note_on_c, 5, 67, 0
7, 440400, Note_on_c, 5, 70, 70
7, 440592, Note_on_c, 5, 70, 0
7, 440640, Note_on_c, 5, 58, 70
7, 440880, Note_on_c, 5, 58, 0
7, 440880, Note_on_c, 5, 62, 70
7, 441120, Note_on_c, 5, 62, 0
7, 441120, Note_on_c, 5, 67, 70
7, 441360, Note_on_c, 5, 67, 0
7, 441360, Note_on_c, 5, 62, 70
7, 441552, Note_on_c, 5, 62, 0
7, 441600, Note_on_c, 5, 60, 70
7, 441840, Note_on_c, 5, 60, 0
7, 441840, Note_on_c, 5, 62, 70
7, 442080, Note_on_c, 5, 62, 0
7, 442080, Note_on_c, 5, 66, 70
7, 442320, Note_on_c, 5, 66, 0
7, 442320, Note_on_c, 5, 62, 70
7, 442512, Note_on_c, 5, 62, 0
7, 442560, Note_on_c, 5, 57, 70
7, 442800, Note_on_c, 5, 57, 0
7, 442800, Note_on_c, 5, 60, 70
7, 443040, Note_on_c, 5, 60, 0
7, 443040, Note_on_c, 5, 62, 70
7, 443280, Note_on_c, 5, 62, 0
7, 443280, Note_on_c, 5, 60, 70
7, 443472, Note_on_c, 5, 60, 0
7, 443520, Note_on_c, 5, 58, 70
7, 443760, Note_on_c, 5, 58, 0
7, 443760, Note_on_c, 5, 55, 70
7, 444000, Note_on_c, 5, 55, 0
7, 444000, Note_on_c, 5, 58, 70
7, 444240, Note_on_c, 5, 58, 0
7, 444240, Note_on_c, 5, 62, 70
7, 444432, Note_on_c, 5, 62, 0
7, 444480, Note_on_c, 5, 67, 70
7, 444720, Note_on_c, 5, 67, 0
7, 444720, Note_on_c, 5, 62, 70
7, 444960, Note_on_c, 5, 62, 0
7, 444960, Note_on_c, 5, 67, 70
7, 445200, Note_on_c, 5, 67, 0
7, 445200, Note_on_c, 5, 69, 70
7, 445392, Note_on_c, 5, 69, 0
7, 445440, Note_on_c, 5, 66, 70
7, 445680, Note_on_c, 5, 66, 0
7, 445680, Note_on_c, 5, 62, 70
7, 445920, Note_on_c, 5, 62, 0
7, 445920, Note_on_c, 5, 66, 70
7, 446160, Note_on_c, 5, 66, 0
7, 446160, Note_on_c, 5, 67, 70
7, 446352, Note_on_c, 5, 67, 0
7, 446400, Note_on_c, 5, 69, 70
7, 446640, Note_on_c, 5, 69, 0
7, 446640, Note_on_c, 5, 62, 70
7, 446880, Note_on_c, 5, 62, 0
7, 446880, Note_on_c, 5, 69, 70
7, 447120, Note_on_c, 5, 69, 0
7, 447120, Note_on_c, 5, 70, 70
7, 447312, Note_on_c, 5, 70, 0
7, 447360, Note_on_c, 5, 67, 70
7, 447600, Note_on_c, 5, 67, 0
7, 447600, Note_on_c, 5, 62, 70
7, 447840, Note_on_c, 5, 62, 0
7, 447840, Note_on_c, 5, 67, 70
7, 448080, Note_on_c, 5, 67, 0
7, 448080, Note_on_c, 5, 70, 70
7, 448272, Note_on_c, 5, 70, 0
7, 448320, Note_on_c, 5, 58, 70
7, 448560, Note_on_c, 5, 58, 0
7, 448560, Note_on_c, 5, 62, 70
7, 448800, Note_on_c, 5, 62, 0
7, 448800, Note_on_c, 5, 67, 70
7, 449040, Note_on_c, 5, 67, 0
7, 449040, Note_on_c, 5, 62, 70
7, 449232, Note_on_c, 5, 62, 0
7, 449280, Note_on_c, 5, 60, 70
7, 449520, Note_on_c, 5, 60, 0
7, 449520, Note_on_c, 5, 62, 70
7, 449760, Note_on_c, 5, 62, 0
7, 449760, Note_on_c, 5, 66, 70
7, 450000, Note_on_c, 5, 66, 0
7, 450000, Note_on_c, 5, 62, 70
7, 450192, Note_on_c, 5, 62, 0
7, 450240, Note_on_c, 5, 57, 70
7, 450480, Note_on_c, 5, 57, 0
7, 450480, Note_on_c, 5, 60, 70
7, 450720, Note_on_c, 5, 60, 0
7, 450720, Note_on_c, 5, 62, 70
7, 450960, Note_on_c, 5, 62, 0
7, 450960, Note_on_c, 5, 60, 70
7, 451152, Note_on_c, 5, 60, 0
7, 451200, Note_on_c, 5, 58, 70
7, 451488, Note_on_c, 5, 58, 0
7, 451680, Note_on_c, 5, 70, 105
7, 451740, Note_on_c, 5, 70, 0
7, 451740, Note_on_c, 5, 69, 105
7, 451800, Note_on_c, 5, 69, 0
7, 451800, Note_on_c, 5, 67, 105
7, 452160, Note_on_c, 5, 67, 0
7, 452640, Note_on_c, 5, 58, 105
7, 452700, Note_on_c, 5, 58, 0
7, 452700, Note_on_c, 5, 57, 105
7, 452760, Note_on_c, 5, 57, 0
7, 452760, Note_on_c, 5, 55, 105
7, 453120, Note_on_c, 5, 55, 0
7, 453600, Note_on_c, 5, 82, 105
7, 453660, Note_on_c, 5, 82, 0
7, 453660, Note_on_c, 5, 81, 105
7, 453720, Note_on_c, 5, 81, 0
7, 453720, Note_on_c, 5, 79, 105
7, 454080, Note_on_c, 5, 79, 0
7, 454560, Note_on_c, 5, 70, 105
7, 454620, Note_on_c, 5, 70, 0
7, 454620, Note_on_c, 5, 69, 105
7, 454680, Note_on_c, 5, 69, 0
7, 454680, Note_on_c, 5, 67, 105
7, 455040, Note_on_c, 5, 67, 0
7, 455520, Note_on_c, 5, 69, 105
7, 455580, Note_on_c, 5, 69, 0
7, 455580, Note_on_c, 5, 67, 105
7, 455640, Note_on_c, 5, 67, 0
7, 455640, Note_on_c, 5, 66, 105
7, 456000, Note_on_c, 5, 66, 0
7, 456480, Note_on_c, 5, 81, 105
7, 456540, Note_on_c, 5, 81, 0
7, 456540, Note_on_c, 5, 79, 105
7, 456600, Note_on_c, 5, 79, 0
7, 456600, Note_on_c, 5, 78, 105
7, 456960, Note_on_c, 5, 78, 0
7, 457440, Note_on_c, 5, 84, 105
7, 457500, Note_on_c, 5, 84, 0
7, 457500, Note_on_c, 5, 82, 105
7, 457560, Note_on_c, 5, 82, 0
7, 457560, Note_on_c, 5, 81, 105
7, 457920, Note_on_c, 5, 81, 0
7, 458400, Note_on_c, 5, 69, 105
7, 458460, Note_on_c, 5, 69, 0
7, 458460, Note_on_c, 5, 67, 105
7, 458520, Note_on_c, 5, 67, 0
7, 458520, Note_on_c, 5, 66, 105
7, 458808, Note_on_c, 5, 66, 0
7, 458880, Note_on_c, 5, 67, 105
7, 459072, Note_on_c, 5, 67, 0
7, 459120, Note_on_c, 5, 70, 105
7, 459504, Note_on_c, 5, 70, 0
7, 459600, Note_on_c, 5, 70, 105
7, 459792, Note_on_c, 5, 70, 0
7, 459840, Note_on_c, 5, 74, 105
7, 460032, Note_on_c, 5, 74, 0
7, 460080, Note_on_c, 5, 74, 105
7, 460464, Note_on_c, 5, 74, 0
7, 460560, Note_on_c, 5, 74, 105
7, 460752, Note_on_c, 5, 74, 0
7, 460800, Note_on_c, 5, 72, 105
7, 460992, Note_on_c, 5, 72, 0
7, 461040, Note_on_c, 5, 72, 105
7, 461424, Note_on_c, 5, 72, 0
7, 461520, Note_on_c, 5, 72, 105
7, 461712, Note_on_c, 5, 72, 0
7, 461760, Note_on_c, 5, 67, 105
7, 461952, Note_on_c, 5, 67, 0
7, 462000, Note_on_c, 5, 67, 105
7, 462384, Note_on_c, 5, 67, 0
7, 462480, Note_on_c, 5, 67, 105
7, 462672, Note_on_c, 5, 67, 0
7, 462720, Note_on_c, 5, 69, 105
7, 462912, Note_on_c, 5, 69, 0
7, 462960, Note_on_c, 5, 69, 105
7, 463344, Note_on_c, 5, 69, 0
7, 463440, Note_on_c, 5, 69, 105
7, 463632, Note_on_c, 5, 69, 0
7, 463680, Note_on_c, 5, 69, 105
7, 463680, Note_on_c, 5, 66, 105
7, 463872, Note_on_c, 5, 66, 0
7, 463872, Note_on_c, 5, 69, 0
7, 463920, Note_on_c, 5, 66, 105
7, 463920, Note_on_c, 5, 69, 105
7, 464304, Note_on_c, 5, 69, 0
7, 464304, Note_on_c, 5, 66, 0
7, 464400, Note_on_c, 5, 66, 105
7, 464400, Note_on_c, 5, 69, 105
7, 464592, Note_on_c, 5, 69, 0
7, 464592, Note_on_c, 5, 66, 0
7, 464640, Note_on_c, 5, 67, 105
7, 464952, Note_on_c, 5, 67, 0
7, 465120, Note_on_c, 5, 70, 105
7, 465432, Note_on_c, 5, 70, 0
7, 465600, Note_on_c, 5, 69, 105
7, 465912, Note_on_c, 5, 69, 0
7, 466080, Note_on_c, 5, 62, 105
7, 466080, Note_on_c, 5, 60, 105
7, 466392, Note_on_c, 5, 60, 0
7, 466392, Note_on_c, 5, 62, 0
7, 466560, Note_on_c, 5, 62, 105
7, 466560, Note_on_c, 5, 58, 105
7, 466752, Note_on_c, 5, 58, 0
7, 466752, Note_on_c, 5, 62, 0
7, 466800, Note_on_c, 5, 70, 105
7, 467184, Note_on_c, 5, 70, 0
7, 467280, Note_on_c, 5, 70, 105
7, 467472, Note_on_c, 5, 70, 0
7, 467520, Note_on_c, 5, 74, 105
7, 467712, Note_on_c, 5, 74, 0
7, 467760, Note_on_c, 5, 74, 105
7, 468144, Note_on_c, 5, 74, 0
7, 468240, Note_on_c, 5, 74, 105
7, 468432, Note_on_c, 5, 74, 0
7, 468480, Note_on_c, 5, 72, 105
7, 468672, Note_on_c, 5, 72, 0
7, 468720, Note_on_c, 5, 72, 105
7, 469104, Note_on_c, 5, 72, 0
7, 469200, Note_on_c, 5, 72, 105
7, 469392, Note_on_c, 5, 72, 0
7, 469440, Note_on_c, 5, 67, 105
7, 469632, Note_on_c, 5, 67, 0
7, 469680, Note_on_c, 5, 67, 105
7, 470064, Note_on_c, 5, 67, 0
7, 470160, Note_on_c, 5, 67, 105
7, 470352, Note_on_c, 5, 67, 0
7, 470400, Note_on_c, 5, 69, 105
7, 470592, Note_on_c, 5, 69, 0
7, 470640, Note_on_c, 5, 69, 105
7, 471024, Note_on_c, 5, 69, 0
7, 471120, Note_on_c, 5, 69, 105
7, 471312, Note_on_c, 5, 69, 0
7, 471360, Note_on_c, 5, 66, 105
7, 471360, Note_on_c, 5, 69, 105
7, 471552, Note_on_c, 5, 69, 0
7, 471552, Note_on_c, 5, 66, 0
7, 471600, Note_on_c, 5, 69, 105
7, 471600, Note_on_c, 5, 66, 105
7, 471984, Note_on_c, 5, 66, 0
7, 471984, Note_on_c, 5, 69, 0
7, 472080, Note_on_c, 5, 69, 105
7, 472080, Note_on_c, 5, 66, 105
7, 472272, Note_on_c, 5, 66, 0
7, 472272, Note_on_c, 5, 69, 0
7, 472320, Note_on_c, 5, 67, 105
7, 472608, Note_on_c, 5, 67, 0
7, 472800, Note_on_c, 5, 79, 105
7, 473088, Note_on_c, 5, 79, 0
7, 473280, Note_on_c, 5, 79, 105
7, 473568, Note_on_c, 5, 79, 0
7, 473760, Note_on_c, 5, 62, 105
7, 473760, Note_on_c, 5, 72, 105
7, 474048, Note_on_c, 5, 72, 0
7, 474048, Note_on_c, 5, 62, 0
7, 474240, Note_on_c, 5, 70, 105
7, 474240, Note_on_c, 5, 62, 105
7, 474240, Note_on_c, 5, 55, 105
7, 474528, Note_on_c, 5, 55, 0
7, 474528, Note_on_c, 5, 62, 0
7, 474528, Note_on_c, 5, 70, 0
7, 474720, Note_on_c, 5, 55, 105
7, 475008, Note_on_c, 5, 55, 0
7, 475200, Note_on_c, 5, 70, 105
7, 475776, Note_on_c, 5, 70, 0
7, 475920, Note_on_c, 5, 69, 92
7, 476112, Note_on_c, 5, 69, 0
7, 476160, Note_on_c, 5, 67, 92
7, 476736, Note_on_c, 5, 67, 0
7, 476880, Note_on_c, 5, 65, 92
7, 477072, Note_on_c, 5, 65, 0
7, 477120, Note_on_c, 5, 63, 92
7, 477696, Note_on_c, 5, 63, 0
7, 477840, Note_on_c, 5, 62, 92
7, 478032, Note_on_c, 5, 62, 0
7, 478080, Note_on_c, 5, 60, 92
7, 478440, Note_on_c, 5, 60, 0
7, 478560, Note_on_c, 5, 62, 105
7, 478740, Note_on_c, 5, 62, 0
7, 478800, Note_on_c, 5, 63, 105
7, 478980, Note_on_c, 5, 63, 0
7, 479040, Note_on_c, 5, 66, 105
7, 479220, Note_on_c, 5, 66, 0
7, 479280, Note_on_c, 5, 67, 105
7, 479460, Note_on_c, 5, 67, 0
7, 479520, Note_on_c, 5, 69, 105
7, 479700, Note_on_c, 5, 69, 0
7, 479760, Note_on_c, 5, 67, 105
7, 479940, Note_on_c, 5, 67, 0
7, 480000, Note_on_c, 5, 69, 105
7, 480360, Note_on_c, 5, 69, 0
7, 480480, Note_on_c, 5, 62, 105
7, 480660, Note_on_c, 5, 62, 0
7, 480720, Note_on_c, 5, 63, 105
7, 480900, Note_on_c, 5, 63, 0
7, 480960, Note_on_c, 5, 66, 105
7, 481140, Note_on_c, 5, 66, 0
7, 481200, Note_on_c, 5, 67, 105
7, 481380, Note_on_c, 5, 67, 0
7, 481440, Note_on_c, 5, 69, 105
7, 481620, Note_on_c, 5, 69, 0
7, 481680, Note_on_c, 5, 67, 105
7, 481860, Note_on_c, 5, 67, 0
7, 481920, Note_on_c, 5, 69, 105
7, 482280, Note_on_c, 5, 69, 0
7, 482400, Note_on_c, 5, 62, 105
7, 482580, Note_on_c, 5, 62, 0
7, 482640, Note_on_c, 5, 63, 105
7, 482820, Note_on_c, 5, 63, 0
7, 482880, Note_on_c, 5, 66, 105
7, 483060, Note_on_c, 5, 66, 0
7, 483120, Note_on_c, 5, 67, 105
7, 483300, Note_on_c, 5, 67, 0
7, 483360, Note_on_c, 5, 69, 105
7, 483540, Note_on_c, 5, 69, 0
7, 483600, Note_on_c, 5, 67, 105
7, 483780, Note_on_c, 5, 67, 0
7, 483840, Note_on_c, 5, 69, 105
7, 484128, Note_on_c, 5, 69, 0
7, 484320, Note_on_c, 5, 67, 105
7, 484608, Note_on_c, 5, 67, 0
7, 484800, Note_on_c, 5, 67, 105
7, 485088, Note_on_c, 5, 67, 0
7, 485280, Note_on_c, 5, 60, 105
7, 485280, Note_on_c, 5, 62, 105
7, 485568, Note_on_c, 5, 62, 0
7, 485568, Note_on_c, 5, 60, 0
7, 485760, Note_on_c, 5, 58, 105
7, 485760, Note_on_c, 5, 62, 110
7, 486144, Note_on_c, 5, 62, 0
7, 486144, Note_on_c, 5, 58, 0
7, 486240, Note_on_c, 5, 62, 70
7, 486420, Note_on_c, 5, 62, 0
7, 486480, Note_on_c, 5, 63, 70
7, 486660, Note_on_c, 5, 63, 0
7, 486720, Note_on_c, 5, 66, 70
7, 486900, Note_on_c, 5, 66, 0
7, 486960, Note_on_c, 5, 67, 70
7, 487140, Note_on_c, 5, 67, 0
7, 487200, Note_on_c, 5, 69, 70
7, 487380, Note_on_c, 5, 69, 0
7, 487440, Note_on_c, 5, 67, 70
7, 487620, Note_on_c, 5, 67, 0
7, 487680, Note_on_c, 5, 69, 70
7, 487968, Note_on_c, 5, 69, 0
7, 488160, Note_on_c, 5, 62, 70
7, 488340, Note_on_c, 5, 62, 0
7, 488400, Note_on_c, 5, 63, 70
7, 488580, Note_on_c, 5, 63, 0
7, 488640, Note_on_c, 5, 66, 70
7, 488820, Note_on_c, 5, 66, 0
7, 488880, Note_on_c, 5, 67, 70
7, 489060, Note_on_c, 5, 67, 0
7, 489120, Note_on_c, 5, 69, 70
7, 489300, Note_on_c, 5, 69, 0
7, 489360, Note_on_c, 5, 67, 70
7, 489540, Note_on_c, 5, 67, 0
7, 489600, Note_on_c, 5, 69, 70
7, 489888, Note_on_c, 5, 69, 0
7, 490080, Note_on_c, 5, 74, 116
7, 490260, Note_on_c, 5, 74, 0
7, 490320, Note_on_c, 5, 75, 116
7, 490500, Note_on_c, 5, 75, 0
7, 490560, Note_on_c, 5, 78, 116
7, 490740, Note_on_c, 5, 78, 0
7, 490800, Note_on_c, 5, 79, 116
7, 490980, Note_on_c, 5, 79, 0
7, 491040, Note_on_c, 5, 81, 116
7, 491220, Note_on_c, 5, 81, 0
7, 491280, Note_on_c, 5, 79, 116
7, 491460, Note_on_c, 5, 79, 0
7, 491520, Note_on_c, 5, 81, 116
7, 491808, Note_on_c, 5, 81, 0
7, 492000, Note_on_c, 5, 79, 116
7, 492288, Note_on_c, 5, 79, 0
7, 492480, Note_on_c, 5, 79, 116
7, 492768, Note_on_c, 5, 79, 0
7, 492960, Note_on_c, 5, 62, 116
7, 492960, Note_on_c, 5, 72, 116
7, 493248, Note_on_c, 5, 72, 0
7, 493248, Note_on_c, 5, 62, 0
7, 493440, Note_on_c, 5, 70, 116
7, 493440, Note_on_c, 5, 62, 116
7, 493440, Note_on_c, 5, 55, 116
7, 493728, Note_on_c, 5, 55, 0
7, 493728, Note_on_c, 5, 62, 0
7, 493728, Note_on_c, 5, 70, 0
7, 493920, Note_on_c, 5, 55, 116
7, 494208, Note_on_c, 5, 55, 0
7, 494400, Note_on_c, 5, 70, 116
7, 494976, Note_on_c, 5, 70, 0
7, 495120, Note_on_c, 5, 69, 116
7, 495312, Note_on_c, 5, 69, 0
7, 495360, Note_on_c, 5, 67, 116
7, 495648, Note_on_c, 5, 67, 0
7, 495840, Note_on_c, 5, 55, 116
7, 496128, Note_on_c, 5, 55, 0
7, 496320, Note_on_c, 5, 70, 116
7, 496896, Note_on_c, 5, 70, 0
7, 497040, Note_on_c, 5, 69, 116
7, 497232, Note_on_c, 5, 69, 0
7, 497280, Note_on_c, 5, 67, 116
7, 498048, Note_on_c, 5, 67, 0
7, 504960, Note_on_c, 5, 67, 105
7, 505344, Note_on_c, 5, 67, 0
7, 505440, Note_on_c, 5, 68, 105
7, 505632, Note_on_c, 5, 68, 0
7, 505680, Note_on_c, 5, 65, 105
7, 505872, Note_on_c, 5, 65, 0
7, 505920, Note_on_c, 5, 63, 105
7, 506304, Note_on_c, 5, 63, 0
7, 506400, Note_on_c, 5, 65, 105
7, 506592, Note_on_c, 5, 65, 0
7, 506640, Note_on_c, 5, 62, 105
7, 506832, Note_on_c, 5, 62, 0
7, 506880, Note_on_c, 5, 60, 105
7, 507264, Note_on_c, 5, 60, 0
7, 507360, Note_on_c, 5, 62, 105
7, 507552, Note_on_c, 5, 62, 0
7, 507600, Note_on_c, 5, 58, 105
7, 507792, Note_on_c, 5, 58, 0
7, 507840, Note_on_c, 5, 57, 105
7, 508224, Note_on_c, 5, 57, 0
7, 508320, Note_on_c, 5, 58, 105
7, 508512, Note_on_c, 5, 58, 0
7, 508560, Note_on_c, 5, 55, 105
7, 508752, Note_on_c, 5, 55, 0
7, 508800, Note_on_c, 5, 82, 105
7, 508992, Note_on_c, 5, 82, 0
7, 509040, Note_on_c, 5, 82, 105
7, 509232, Note_on_c, 5, 82, 0
7, 509280, Note_on_c, 5, 79, 105
7, 509472, Note_on_c, 5, 79, 0
7, 509520, Note_on_c, 5, 79, 105
7, 509712, Note_on_c, 5, 79, 0
7, 509760, Note_on_c, 5, 76, 105
7, 509952, Note_on_c, 5, 76, 0
7, 510000, Note_on_c, 5, 76, 105
7, 510192, Note_on_c, 5, 76, 0
7, 510240, Note_on_c, 5, 73, 105
7, 510432, Note_on_c, 5, 73, 0
7, 510480, Note_on_c, 5, 73, 105
7, 510672, Note_on_c, 5, 73, 0
7, 510720, Note_on_c, 5, 70, 105
7, 510912, Note_on_c, 5, 70, 0
7, 510960, Note_on_c, 5, 70, 105
7, 511152, Note_on_c, 5, 70, 0
7, 511200, Note_on_c, 5, 67, 105
7, 511392, Note_on_c, 5, 67, 0
7, 511440, Note_on_c, 5, 67, 105
7, 511632, Note_on_c, 5, 67, 0
7, 511680, Note_on_c, 5, 64, 105
7, 511872, Note_on_c, 5, 64, 0
7, 511920, Note_on_c, 5, 64, 105
7, 512112, Note_on_c, 5, 64, 0
7, 512160, Note_on_c, 5, 61, 105
7, 512352, Note_on_c, 5, 61, 0
7, 512400, Note_on_c, 5, 61, 105
7, 512592, Note_on_c, 5, 61, 0
7, 512640, Note_on_c, 5, 62, 116
7, 513024, Note_on_c, 5, 62, 0
7, 513120, Note_on_c, 5, 67, 116
7, 513312, Note_on_c, 5, 67, 0
7, 513360, Note_on_c, 5, 66, 116
7, 513552, Note_on_c, 5, 66, 0
7, 513600, Note_on_c, 5, 67, 116
7, 513984, Note_on_c, 5, 67, 0
7, 514080, Note_on_c, 5, 75, 116
7, 514272, Note_on_c, 5, 75, 0
7, 514320, Note_on_c, 5, 74, 116
7, 514512, Note_on_c, 5, 74, 0
7, 514560, Note_on_c, 5, 75, 116
7, 514944, Note_on_c, 5, 75, 0
7, 515040, Note_on_c, 5, 69, 116
7, 515232, Note_on_c, 5, 69, 0
7, 515280, Note_on_c, 5, 68, 116
7, 515472, Note_on_c, 5, 68, 0
7, 515520, Note_on_c, 5, 69, 116
7, 515904, Note_on_c, 5, 69, 0
7, 516000, Note_on_c, 5, 74, 116
7, 516192, Note_on_c, 5, 74, 0
7, 516240, Note_on_c, 5, 73, 116
7, 516432, Note_on_c, 5, 73, 0
7, 516480, Note_on_c, 5, 74, 116
7, 517248, Note_on_c, 5, 74, 0
7, 517440, Note_on_c, 5, 78, 116
7, 517440, Note_on_c, 5, 69, 116
7, 517440, Note_on_c, 5, 62, 116
7, 518208, Note_on_c, 5, 62, 0
7, 518208, Note_on_c, 5, 69, 0
7, 518208, Note_on_c, 5, 78, 0
7, 518400, Note_on_c, 5, 79, 105
7, 518400, Note_on_c, 5, 70, 105
7, 518400, Note_on_c, 5, 62, 105
7, 518400, Note_on_c, 5, 55, 105
7, 519360, Note_on_c, 5, 55, 0
7, 519360, Note_on_c, 5, 79, 0
7, 519360, Note_on_c, 5, 70, 0
7, 519360, Note_on_c, 5, 62, 0
7, 519360, End_track
8, 0, Start_track
8, 0, Program_c, 6, 48
8, 0, Control_c, 6, 7, 127
8, 0, Control_c, 6, 10, 85
8, 0, Control_c, 6, 91, 85
8, 1920, Note_on_c, 6, 55, 58
8, 2232, Note_on_c, 6, 55, 0
8, 2400, Note_on_c, 6, 50, 58
8, 2712, Note_on_c, 6, 50, 0
8, 2880, Note_on_c, 6, 58, 58
8, 3420, Note_on_c, 6, 58, 0
8, 3600, Note_on_c, 6, 57, 58
8, 3756, Note_on_c, 6, 57, 0
8, 3840, Note_on_c, 6, 55, 58
8, 4152, Note_on_c, 6, 55, 0
8, 4320, Note_on_c, 6, 58, 58
8, 4800, Note_on_c, 6, 58, 0
8, 4800, Note_on_c, 6, 57, 58
8, 5280, Note_on_c, 6, 57, 0
8, 5280, Note_on_c, 6, 55, 58
8, 5736, Note_on_c, 6, 55, 0
8, 5760, Note_on_c, 6, 54, 58
8, 6072, Note_on_c, 6, 54, 0
8, 6240, Note_on_c, 6, 50, 58
8, 6552, Note_on_c, 6, 50, 0
8, 6720, Note_on_c, 6, 60, 58
8, 7260, Note_on_c, 6, 60, 0
8, 7440, Note_on_c, 6, 58, 58
8, 7596, Note_on_c, 6, 58, 0
8, 7680, Note_on_c, 6, 57, 58
8, 7992, Note_on_c, 6, 57, 0
8, 8160, Note_on_c, 6, 60, 58
8, 8640, Note_on_c, 6, 60, 0
8, 8640, Note_on_c, 6, 58, 58
8, 9120, Note_on_c, 6, 58, 0
8, 9120, Note_on_c, 6, 57, 58
8, 9576, Note_on_c, 6, 57, 0
8, 9600, Note_on_c, 6, 55, 58
8, 9912, Note_on_c, 6, 55, 0
8, 10080, Note_on_c, 6, 58, 58
8, 10392, Note_on_c, 6, 58, 0
8, 10560, Note_on_c, 6, 63, 58
8, 11064, Note_on_c, 6, 63, 0
8, 11280, Note_on_c, 6, 62, 58
8, 11436, Note_on_c, 6, 62, 0
8, 11520, Note_on_c, 6, 60, 58
8, 11832, Note_on_c, 6, 60, 0
8, 12000, Note_on_c, 6, 57, 58
8, 12312, Note_on_c, 6, 57, 0
8, 12480, Note_on_c, 6, 62, 58
8, 12984, Note_on_c, 6, 62, 0
8, 13200, Note_on_c, 6, 60, 58
8, 13356, Note_on_c, 6, 60, 0
8, 13440, Note_on_c, 6, 58, 58
8, 13752, Note_on_c, 6, 58, 0
8, 13920, Note_on_c, 6, 55, 58
8, 14232, Note_on_c, 6, 55, 0
8, 14400, Note_on_c, 6, 51, 58
8, 14712, Note_on_c, 6, 51, 0
8, 14880, Note_on_c, 6, 49, 58
8, 15192, Note_on_c, 6, 49, 0
8, 15360, Note_on_c, 6, 50, 58
8, 15672, Note_on_c, 6, 50, 0
8, 15840, Note_on_c, 6, 60, 58
8, 16320, Note_on_c, 6, 60, 0
8, 16320, Note_on_c, 6, 58, 58
8, 16800, Note_on_c, 6, 58, 0
8, 16800, Note_on_c, 6, 57, 58
8, 17112, Note_on_c, 6, 57, 0
8, 17280, Note_on_c, 6, 55, 105
8, 17592, Note_on_c, 6, 55, 0
8, 17760, Note_on_c, 6, 50, 105
8, 18072, Note_on_c, 6, 50, 0
8, 18240, Note_on_c, 6, 58, 105
8, 18816, Note_on_c, 6, 58, 0
8, 18960, Note_on_c, 6, 57, 105
8, 19116, Note_on_c, 6, 57, 0
8, 19200, Note_on_c, 6, 55, 105
8, 19512, Note_on_c, 6, 55, 0
8, 19680, Note_on_c, 6, 62, 105
8, 20448, Note_on_c, 6, 62, 0
8, 20640, Note_on_c, 6, 62, 105
8, 21432, Note_on_c, 6, 62, 0
8, 21600, Note_on_c, 6, 50, 105
8, 21912, Note_on_c, 6, 50, 0
8, 22080, Note_on_c, 6, 60, 105
8, 22656, Note_on_c, 6, 60, 0
8, 22800, Note_on_c, 6, 58, 105
8, 22956, Note_on_c, 6, 58, 0
8, 23040, Note_on_c, 6, 57, 105
8, 23352, Note_on_c, 6, 57, 0
8, 23520, Note_on_c, 6, 66, 105
8, 24000, Note_on_c, 6, 66, 0
8, 24000, Note_on_c, 6, 67, 105
8, 24384, Note_on_c, 6, 67, 0
8, 24480, Note_on_c, 6, 72, 105
8, 24960, Note_on_c, 6, 72, 0
8, 24960, Note_on_c, 6, 70, 105
8, 25272, Note_on_c, 6, 70, 0
8, 25440, Note_on_c, 6, 58, 105
8, 25752, Note_on_c, 6, 58, 0
8, 25920, Note_on_c, 6, 63, 105
8, 26496, Note_on_c, 6, 63, 0
8, 26640, Note_on_c, 6, 62, 105
8, 26796, Note_on_c, 6, 62, 0
8, 26880, Note_on_c, 6, 60, 105
8, 27192, Note_on_c, 6, 60, 0
8, 27360, Note_on_c, 6, 57, 105
8, 27672, Note_on_c, 6, 57, 0
8, 27840, Note_on_c, 6, 62, 105
8, 28560, Note_on_c, 6, 62, 0
8, 28560, Note_on_c, 6, 60, 105
8, 28752, Note_on_c, 6, 60, 0
8, 28800, Note_on_c, 6, 58, 105
8, 29112, Note_on_c, 6, 58, 0
8, 29280, Note_on_c, 6, 63, 105
8, 29592, Note_on_c, 6, 63, 0
8, 29760, Note_on_c, 6, 63, 105
8, 30072, Note_on_c, 6, 63, 0
8, 30240, Note_on_c, 6, 62, 105
8, 30552, Note_on_c, 6, 62, 0
8, 30720, Note_on_c, 6, 62, 105
8, 31032, Note_on_c, 6, 62, 0
8, 31200, Note_on_c, 6, 58, 105
8, 31512, Note_on_c, 6, 58, 0
8, 33600, Note_on_c, 6, 65, 58
8, 34368, Note_on_c, 6, 65, 0
8, 34560, Note_on_c, 6, 65, 58
8, 35904, Note_on_c, 6, 65, 0
8, 37920, Note_on_c, 6, 63, 58
8, 38304, Note_on_c, 6, 63, 0
8, 38400, Note_on_c, 6, 62, 58
8, 39360, Note_on_c, 6, 62, 0
8, 39360, Note_on_c, 6, 60, 58
8, 39744, Note_on_c, 6, 60, 0
8, 41280, Note_on_c, 6, 53, 58
8, 42048, Note_on_c, 6, 53, 0
8, 42240, Note_on_c, 6, 53, 58
8, 43584, Note_on_c, 6, 53, 0
8, 43680, Note_on_c, 6, 55, 58
8, 44544, Note_on_c, 6, 55, 0
8, 44640, Note_on_c, 6, 50, 58
8, 45600, Note_on_c, 6, 50, 0
8, 45600, Note_on_c, 6, 51, 58
8, 45984, Note_on_c, 6, 51, 0
8, 46080, Note_on_c, 6, 50, 58
8, 47040, Note_on_c, 6, 50, 0
8, 47040, Note_on_c, 6, 48, 58
8, 47424, Note_on_c, 6, 48, 0
8, 50880, Note_on_c, 6, 75, 105
8, 51036, Note_on_c, 6, 75, 0
8, 51120, Note_on_c, 6, 74, 105
8, 51276, Note_on_c, 6, 74, 0
8, 51360, Note_on_c, 6, 72, 105
8, 51516, Note_on_c, 6, 72, 0
8, 51600, Note_on_c, 6, 70, 105
8, 51756, Note_on_c, 6, 70, 0
8, 51840, Note_on_c, 6, 69, 105
8, 52080, Note_on_c, 6, 69, 0
8, 52080, Note_on_c, 6, 70, 105
8, 52236, Note_on_c, 6, 70, 0
8, 52320, Note_on_c, 6, 69, 105
8, 52476, Note_on_c, 6, 69, 0
8, 52560, Note_on_c, 6, 67, 105
8, 52716, Note_on_c, 6, 67, 0
8, 52800, Note_on_c, 6, 65, 105
8, 52956, Note_on_c, 6, 65, 0
8, 53040, Note_on_c, 6, 63, 105
8, 53196, Note_on_c, 6, 63, 0
8, 53280, Note_on_c, 6, 62, 105
8, 53436, Note_on_c, 6, 62, 0
8, 53520, Note_on_c, 6, 60, 105
8, 53676, Note_on_c, 6, 60, 0
8, 53760, Note_on_c, 6, 58, 105
8, 54144, Note_on_c, 6, 58, 0
8, 55680, Note_on_c, 6, 61, 105
8, 55920, Note_on_c, 6, 61, 0
8, 56160, Note_on_c, 6, 60, 105
8, 56400, Note_on_c, 6, 60, 0
8, 57600, Note_on_c, 6, 58, 105
8, 57840, Note_on_c, 6, 58, 0
8, 58080, Note_on_c, 6, 57, 105
8, 58320, Note_on_c, 6, 57, 0
8, 59520, Note_on_c, 6, 54, 105
8, 59760, Note_on_c, 6, 54, 0
8, 60000, Note_on_c, 6, 53, 105
8, 60240, Note_on_c, 6, 53, 0
8, 60480, Note_on_c, 6, 72, 105
8, 60720, Note_on_c, 6, 72, 0
8, 60720, Note_on_c, 6, 74, 105
8, 60960, Note_on_c, 6, 74, 0
8, 60960, Note_on_c, 6, 75, 105
8, 61152, Note_on_c, 6, 75, 0
8, 61200, Note_on_c, 6, 74, 105
8, 61344, Note_on_c, 6, 74, 0
8, 61440, Note_on_c, 6, 72, 105
8, 61584, Note_on_c, 6, 72, 0
8, 61680, Note_on_c, 6, 70, 105
8, 61824, Note_on_c, 6, 70, 0
8, 61920, Note_on_c, 6, 69, 105
8, 62064, Note_on_c, 6, 69, 0
8, 62160, Note_on_c, 6, 67, 105
8, 62304, Note_on_c, 6, 67, 0
8, 62400, Note_on_c, 6, 65, 105
8, 62640, Note_on_c, 6, 65, 0
8, 62640, Note_on_c, 6, 67, 105
8, 62880, Note_on_c, 6, 67, 0
8, 62880, Note_on_c, 6, 69, 105
8, 63120, Note_on_c, 6, 69, 0
8, 63120, Note_on_c, 6, 65, 105
8, 63312, Note_on_c, 6, 65, 0
8, 63360, Note_on_c, 6, 70, 105
8, 63552, Note_on_c, 6, 70, 0
8, 63600, Note_on_c, 6, 69, 105
8, 63792, Note_on_c, 6, 69, 0
8, 63840, Note_on_c, 6, 67, 105
8, 64032, Note_on_c, 6, 67, 0
8, 64080, Note_on_c, 6, 65, 105
8, 64272, Note_on_c, 6, 65, 0
8, 64320, Note_on_c, 6, 63, 105
8, 64512, Note_on_c, 6, 63, 0
8, 64560, Note_on_c, 6, 62, 105
8, 64752, Note_on_c, 6, 62, 0
8, 64800, Note_on_c, 6, 60, 105
8, 64992, Note_on_c, 6, 60, 0
8, 65040, Note_on_c, 6, 58, 105
8, 65232, Note_on_c, 6, 58, 0
8, 65280, Note_on_c, 6, 63, 105
8, 65592, Note_on_c, 6, 63, 0
8, 65760, Note_on_c, 6, 63, 105
8, 66072, Note_on_c, 6, 63, 0
8, 66240, Note_on_c, 6, 65, 105
8, 66552, Note_on_c, 6, 65, 0
8, 66720, Note_on_c, 6, 53, 105
8, 67032, Note_on_c, 6, 53, 0
8, 67200, Note_on_c, 6, 58, 105
8, 67512, Note_on_c, 6, 58, 0
8, 67680, Note_on_c, 6, 65, 105
8, 67992, Note_on_c, 6, 65, 0
8, 68160, Note_on_c, 6, 74, 105
8, 68736, Note_on_c, 6, 74, 0
8, 68880, Note_on_c, 6, 72, 105
8, 69072, Note_on_c, 6, 72, 0
8, 69120, Note_on_c, 6, 70, 105
8, 69408, Note_on_c, 6, 70, 0
8, 69600, Note_on_c, 6, 65, 105
8, 69888, Note_on_c, 6, 65, 0
8, 70080, Note_on_c, 6, 62, 105
8, 70368, Note_on_c, 6, 62, 0
8, 70560, Note_on_c, 6, 58, 105
8, 70848, Note_on_c, 6, 58, 0
8, 71040, Note_on_c, 6, 65, 92
8, 71352, Note_on_c, 6, 65, 0
8, 79680, Note_on_c, 6, 62, 70
8, 80400, Note_on_c, 6, 62, 0
8, 80400, Note_on_c, 6, 63, 70
8, 80592, Note_on_c, 6, 63, 0
8, 80640, Note_on_c, 6, 60, 70
8, 81024, Note_on_c, 6, 60, 0
8, 81600, Note_on_c, 6, 63, 70
8, 82320, Note_on_c, 6, 63, 0
8, 82320, Note_on_c, 6, 65, 70
8, 82512, Note_on_c, 6, 65, 0
8, 82560, Note_on_c, 6, 62, 70
8, 82944, Note_on_c, 6, 62, 0
8, 83520, Note_on_c, 6, 70, 70
8, 84240, Note_on_c, 6, 70, 0
8, 84240, Note_on_c, 6, 74, 70
8, 84432, Note_on_c, 6, 74, 0
8, 84480, Note_on_c, 6, 72, 70
8, 85200, Note_on_c, 6, 72, 0
8, 85200, Note_on_c, 6, 75, 70
8, 85392, Note_on_c, 6, 75, 0
8, 85440, Note_on_c, 6, 65, 70
8, 86160, Note_on_c, 6, 65, 0
8, 86160, Note_on_c, 6, 69, 70
8, 86352, Note_on_c, 6, 69, 0
8, 86400, Note_on_c, 6, 70, 70
8, 86784, Note_on_c, 6, 70, 0
8, 87360, Note_on_c, 6, 62, 70
8, 88080, Note_on_c, 6, 62, 0
8, 88080, Note_on_c, 6, 63, 80
8, 88272, Note_on_c, 6, 63, 0
8, 88320, Note_on_c, 6, 60, 80
8, 88704, Note_on_c, 6, 60, 0
8, 89280, Note_on_c, 6, 63, 80
8, 90000, Note_on_c, 6, 63, 0
8, 90000, Note_on_c, 6, 65, 80
8, 90192, Note_on_c, 6, 65, 0
8, 90240, Note_on_c, 6, 62, 80
8, 90624, Note_on_c, 6, 62, 0
8, 91200, Note_on_c, 6, 70, 80
8, 91920, Note_on_c, 6, 70, 0
8, 91920, Note_on_c, 6, 74, 80
8, 92112, Note_on_c, 6, 74, 0
8, 92160, Note_on_c, 6, 72, 80
8, 92880, Note_on_c, 6, 72, 0
8, 92880, Note_on_c, 6, 75, 80
8, 93072, Note_on_c, 6, 75, 0
8, 93120, Note_on_c, 6, 65, 80
8, 93840, Note_on_c, 6, 65, 0
8, 93840, Note_on_c, 6, 69, 80
8, 94032, Note_on_c, 6, 69, 0
8, 94080, Note_on_c, 6, 70, 105
8, 94392, Note_on_c, 6, 70, 0
8, 94560, Note_on_c, 6, 65, 105
8, 94872, Note_on_c, 6, 65, 0
8, 95040, Note_on_c, 6, 74, 105
8, 95616, Note_on_c, 6, 74, 0
8, 95760, Note_on_c, 6, 72, 105
8, 95952, Note_on_c, 6, 72, 0
8, 96000, Note_on_c, 6, 70, 105
8, 96312, Note_on_c, 6, 70, 0
8, 96480, Note_on_c, 6, 65, 105
8, 96792, Note_on_c, 6, 65, 0
8, 96960, Note_on_c, 6, 74, 105
8, 97272, Note_on_c, 6, 74, 0
8, 97440, Note_on_c, 6, 70, 105
8, 97752, Note_on_c, 6, 70, 0
8, 97920, Note_on_c, 6, 72, 105
8, 98232, Note_on_c, 6, 72, 0
8, 98400, Note_on_c, 6, 65, 105
8, 98712, Note_on_c, 6, 65, 0
8, 98880, Note_on_c, 6, 75, 105
8, 99456, Note_on_c, 6, 75, 0
8, 99600, Note_on_c, 6, 74, 105
8, 99792, Note_on_c, 6, 74, 0
8, 99840, Note_on_c, 6, 72, 105
8, 100152, Note_on_c, 6, 72, 0
8, 100320, Note_on_c, 6, 65, 105
8, 100632, Note_on_c, 6, 65, 0
8, 100800, Note_on_c, 6, 75, 105
8, 101112, Note_on_c, 6, 75, 0
8, 101280, Note_on_c, 6, 72, 105
8, 101592, Note_on_c, 6, 72, 0
8, 101760, Note_on_c, 6, 70, 105
8, 102072, Note_on_c, 6, 70, 0
8, 102240, Note_on_c, 6, 74, 105
8, 102474, Note_on_c, 6, 74, 0
8, 102600, Note_on_c, 6, 70, 105
8, 102678, Note_on_c, 6, 70, 0
8, 102720, Note_on_c, 6, 62, 105
8, 103032, Note_on_c, 6, 62, 0
8, 103200, Note_on_c, 6, 70, 105
8, 103434, Note_on_c, 6, 70, 0
8, 103560, Note_on_c, 6, 62, 105
8, 103638, Note_on_c, 6, 62, 0
8, 103680, Note_on_c, 6, 63, 105
8, 103992, Note_on_c, 6, 63, 0
8, 104160, Note_on_c, 6, 70, 105
8, 104394, Note_on_c, 6, 70, 0
8, 104520, Note_on_c, 6, 63, 105
8, 104598, Note_on_c, 6, 63, 0
8, 104640, Note_on_c, 6, 67, 105
8, 104952, Note_on_c, 6, 67, 0
8, 105120, Note_on_c, 6, 70, 105
8, 105354, Note_on_c, 6, 70, 0
8, 105480, Note_on_c, 6, 67, 105
8, 105558, Note_on_c, 6, 67, 0
8, 105600, Note_on_c, 6, 69, 105
8, 105912, Note_on_c, 6, 69, 0
8, 106080, Note_on_c, 6, 72, 105
8, 106314, Note_on_c, 6, 72, 0
8, 106440, Note_on_c, 6, 69, 105
8, 106518, Note_on_c, 6, 69, 0
8, 106560, Note_on_c, 6, 65, 105
8, 106872, Note_on_c, 6, 65, 0
8, 107040, Note_on_c, 6, 69, 105
8, 107274, Note_on_c, 6, 69, 0
8, 107400, Note_on_c, 6, 65, 105
8, 107478, Note_on_c, 6, 65, 0
8, 107520, Note_on_c, 6, 67, 105
8, 107832, Note_on_c, 6, 67, 0
8, 108000, Note_on_c, 6, 62, 105
8, 108312, Note_on_c, 6, 62, 0
8, 108480, Note_on_c, 6, 63, 105
8, 108792, Note_on_c, 6, 63, 0
8, 108960, Note_on_c, 6, 65, 105
8, 109272, Note_on_c, 6, 65, 0
8, 109440, Note_on_c, 6, 70, 105
8, 109752, Note_on_c, 6, 70, 0
8, 109920, Note_on_c, 6, 74, 105
8, 110154, Note_on_c, 6, 74, 0
8, 110280, Note_on_c, 6, 70, 105
8, 110358, Note_on_c, 6, 70, 0
8, 110400, Note_on_c, 6, 62, 105
8, 110712, Note_on_c, 6, 62, 0
8, 110880, Note_on_c, 6, 70, 105
8, 111114, Note_on_c, 6, 70, 0
8, 111240, Note_on_c, 6, 62, 105
8, 111318, Note_on_c, 6, 62, 0
8, 111360, Note_on_c, 6, 63, 105
8, 111672, Note_on_c, 6, 63, 0
8, 111840, Note_on_c, 6, 70, 105
8, 112074, Note_on_c, 6, 70, 0
8, 112200, Note_on_c, 6, 63, 105
8, 112278, Note_on_c, 6, 63, 0
8, 112320, Note_on_c, 6, 67, 105
8, 112632, Note_on_c, 6, 67, 0
8, 112800, Note_on_c, 6, 70, 105
8, 113034, Note_on_c, 6, 70, 0
8, 113160, Note_on_c, 6, 67, 105
8, 113238, Note_on_c, 6, 67, 0
8, 113280, Note_on_c, 6, 69, 105
8, 113592, Note_on_c, 6, 69, 0
8, 113760, Note_on_c, 6, 72, 105
8, 113994, Note_on_c, 6, 72, 0
8, 114120, Note_on_c, 6, 69, 105
8, 114198, Note_on_c, 6, 69, 0
8, 114240, Note_on_c, 6, 65, 105
8, 114552, Note_on_c, 6, 65, 0
8, 114720, Note_on_c, 6, 69, 105
8, 114954, Note_on_c, 6, 69, 0
8, 115080, Note_on_c, 6, 65, 105
8, 115158, Note_on_c, 6, 65, 0
8, 115200, Note_on_c, 6, 67, 105
8, 115512, Note_on_c, 6, 67, 0
8, 115680, Note_on_c, 6, 62, 105
8, 115992, Note_on_c, 6, 62, 0
8, 116160, Note_on_c, 6, 63, 105
8, 116472, Note_on_c, 6, 63, 0
8, 116640, Note_on_c, 6, 65, 105
8, 116952, Note_on_c, 6, 65, 0
8, 117120, Note_on_c, 6, 70, 105
8, 117432, Note_on_c, 6, 70, 0
8, 117600, Note_on_c, 6, 58, 105
8, 117912, Note_on_c, 6, 58, 0
8, 118080, Note_on_c, 6, 74, 105
8, 118656, Note_on_c, 6, 74, 0
8, 118800, Note_on_c, 6, 72, 105
8, 118992, Note_on_c, 6, 72, 0
8, 119040, Note_on_c, 6, 70, 105
8, 119616, Note_on_c, 6, 70, 0
8, 119760, Note_on_c, 6, 69, 105
8, 119952, Note_on_c, 6, 69, 0
8, 120000, Note_on_c, 6, 67, 105
8, 120576, Note_on_c, 6, 67, 0
8, 120720, Note_on_c, 6, 65, 105
8, 120912, Note_on_c, 6, 65, 0
8, 120960, Note_on_c, 6, 63, 105
8, 121344, Note_on_c, 6, 63, 0
8, 121440, Note_on_c, 6, 63, 92
8, 121632, Note_on_c, 6, 63, 0
8, 121680, Note_on_c, 6, 62, 92
8, 121872, Note_on_c, 6, 62, 0
8, 121920, Note_on_c, 6, 60, 92
8, 122112, Note_on_c, 6, 60, 0
8, 122160, Note_on_c, 6, 58, 92
8, 122352, Note_on_c, 6, 58, 0
8, 122400, Note_on_c, 6, 57, 92
8, 122592, Note_on_c, 6, 57, 0
8, 122640, Note_on_c, 6, 58, 92
8, 122832, Note_on_c, 6, 58, 0
8, 122880, Note_on_c, 6, 57, 92
8, 123264, Note_on_c, 6, 57, 0
8, 123360, Note_on_c, 6, 63, 92
8, 123552, Note_on_c, 6, 63, 0
8, 123600, Note_on_c, 6, 62, 92
8, 123792, Note_on_c, 6, 62, 0
8, 123840, Note_on_c, 6, 60, 92
8, 124032, Note_on_c, 6, 60, 0
8, 124080, Note_on_c, 6, 58, 92
8, 124272, Note_on_c, 6, 58, 0
8, 124320, Note_on_c, 6, 57, 92
8, 124512, Note_on_c, 6, 57, 0
8, 124560, Note_on_c, 6, 58, 92
8, 124752, Note_on_c, 6, 58, 0
8, 124800, Note_on_c, 6, 57, 92
8, 125184, Note_on_c, 6, 57, 0
8, 125280, Note_on_c, 6, 63, 92
8, 125472, Note_on_c, 6, 63, 0
8, 125520, Note_on_c, 6, 62, 92
8, 125712, Note_on_c, 6, 62, 0
8, 125760, Note_on_c, 6, 60, 92
8, 125952, Note_on_c, 6, 60, 0
8, 126000, Note_on_c, 6, 58, 92
8, 126192, Note_on_c, 6, 58, 0
8, 126240, Note_on_c, 6, 57, 92
8, 126432, Note_on_c, 6, 57, 0
8, 126480, Note_on_c, 6, 58, 92
8, 126672, Note_on_c, 6, 58, 0
8, 126720, Note_on_c, 6, 57, 92
8, 127032, Note_on_c, 6, 57, 0
8, 127200, Note_on_c, 6, 58, 92
8, 127512, Note_on_c, 6, 58, 0
8, 127680, Note_on_c, 6, 63, 92
8, 127992, Note_on_c, 6, 63, 0
8, 128160, Note_on_c, 6, 65, 92
8, 128472, Note_on_c, 6, 65, 0
8, 128640, Note_on_c, 6, 58, 110
8, 129024, Note_on_c, 6, 58, 0
8, 130560, Note_on_c, 6, 53, 70
8, 130944, Note_on_c, 6, 53, 0
8, 132480, Note_on_c, 6, 53, 70
8, 132864, Note_on_c, 6, 53, 0
8, 132960, Note_on_c, 6, 75, 105
8, 133152, Note_on_c, 6, 75, 0
8, 133200, Note_on_c, 6, 74, 105
8, 133392, Note_on_c, 6, 74, 0
8, 133440, Note_on_c, 6, 72, 105
8, 133632, Note_on_c, 6, 72, 0
8, 133680, Note_on_c, 6, 70, 105
8, 133872, Note_on_c, 6, 70, 0
8, 133920, Note_on_c, 6, 69, 105
8, 134112, Note_on_c, 6, 69, 0
8, 134160, Note_on_c, 6, 70, 105
8, 134352, Note_on_c, 6, 70, 0
8, 134400, Note_on_c, 6, 69, 105
8, 134712, Note_on_c, 6, 69, 0
8, 134880, Note_on_c, 6, 70, 105
8, 135192, Note_on_c, 6, 70, 0
8, 135360, Note_on_c, 6, 63, 105
8, 135672, Note_on_c, 6, 63, 0
8, 135840, Note_on_c, 6, 65, 105
8, 136152, Note_on_c, 6, 65, 0
8, 136320, Note_on_c, 6, 58, 105
8, 136632, Note_on_c, 6, 58, 0
8, 136800, Note_on_c, 6, 58, 105
8, 137112, Note_on_c, 6, 58, 0
8, 137280, Note_on_c, 6, 74, 105
8, 137856, Note_on_c, 6, 74, 0
8, 138000, Note_on_c, 6, 72, 105
8, 138192, Note_on_c, 6, 72, 0
8, 138240, Note_on_c, 6, 70, 105
8, 138552, Note_on_c, 6, 70, 0
8, 138720, Note_on_c, 6, 58, 105
8, 139032, Note_on_c, 6, 58, 0
8, 139200, Note_on_c, 6, 74, 105
8, 139776, Note_on_c, 6, 74, 0
8, 139920, Note_on_c, 6, 72, 105
8, 140112, Note_on_c, 6, 72, 0
8, 140160, Note_on_c, 6, 70, 105
8, 140928, Note_on_c, 6, 70, 0
8, 147840, Note_on_c, 6, 55, 58
8, 148152, Note_on_c, 6, 55, 0
8, 148320, Note_on_c, 6, 50, 58
8, 148632, Note_on_c, 6, 50, 0
8, 148800, Note_on_c, 6, 58, 58
8, 149340, Note_on_c, 6, 58, 0
8, 149520, Note_on_c, 6, 57, 58
8, 149676, Note_on_c, 6, 57, 0
8, 149760, Note_on_c, 6, 55, 58
8, 150072, Note_on_c, 6, 55, 0
8, 150240, Note_on_c, 6, 58, 58
8, 150720, Note_on_c, 6, 58, 0
8, 150720, Note_on_c, 6, 57, 58
8, 151200, Note_on_c, 6, 57, 0
8, 151200, Note_on_c, 6, 55, 58
8, 151656, Note_on_c, 6, 55, 0
8, 151680, Note_on_c, 6, 54, 58
8, 151992, Note_on_c, 6, 54, 0
8, 152160, Note_on_c, 6, 50, 58
8, 152472, Note_on_c, 6, 50, 0
8, 152640, Note_on_c, 6, 60, 58
8, 153180, Note_on_c, 6, 60, 0
8, 153360, Note_on_c, 6, 58, 58
8, 153516, Note_on_c, 6, 58, 0
8, 153600, Note_on_c, 6, 57, 58
8, 153912, Note_on_c, 6, 57, 0
8, 154080, Note_on_c, 6, 60, 58
8, 154560, Note_on_c, 6, 60, 0
8, 154560, Note_on_c, 6, 58, 58
8, 155040, Note_on_c, 6, 58, 0
8, 155040, Note_on_c, 6, 57, 58
8, 155496, Note_on_c, 6, 57, 0
8, 155520, Note_on_c, 6, 55, 58
8, 155832, Note_on_c, 6, 55, 0
8, 156000, Note_on_c, 6, 58, 58
8, 156312, Note_on_c, 6, 58, 0
8, 156480, Note_on_c, 6, 63, 58
8, 156984, Note_on_c, 6, 63, 0
8, 157200, Note_on_c, 6, 62, 58
8, 157356, Note_on_c, 6, 62, 0
8, 157440, Note_on_c, 6, 60, 58
8, 157752, Note_on_c, 6, 60, 0
8, 157920, Note_on_c, 6, 57, 58
8, 158232, Note_on_c, 6, 57, 0
8, 158400, Note_on_c, 6, 62, 58
8, 158904, Note_on_c, 6, 62, 0
8, 159120, Note_on_c, 6, 60, 58
8, 159276, Note_on_c, 6, 60, 0
8, 159360, Note_on_c, 6, 58, 58
8, 159672, Note_on_c, 6, 58, 0
8, 159840, Note_on_c, 6, 55, 58
8, 160152, Note_on_c, 6, 55, 0
8, 160320, Note_on_c, 6, 51, 58
8, 160632, Note_on_c, 6, 51, 0
8, 160800, Note_on_c, 6, 49, 58
8, 161112, Note_on_c, 6, 49, 0
8, 161280, Note_on_c, 6, 50, 58
8, 161592, Note_on_c, 6, 50, 0
8, 161760, Note_on_c, 6, 60, 58
8, 162240, Note_on_c, 6, 60, 0
8, 162240, Note_on_c, 6, 58, 58
8, 162720, Note_on_c, 6, 58, 0
8, 162720, Note_on_c, 6, 57, 58
8, 163032, Note_on_c, 6, 57, 0
8, 163200, Note_on_c, 6, 55, 105
8, 163512, Note_on_c, 6, 55, 0
8, 163680, Note_on_c, 6, 50, 105
8, 163992, Note_on_c, 6, 50, 0
8, 164160, Note_on_c, 6, 58, 105
8, 164736, Note_on_c, 6, 58, 0
8, 164880, Note_on_c, 6, 57, 105
8, 165036, Note_on_c, 6, 57, 0
8, 165120, Note_on_c, 6, 55, 105
8, 165432, Note_on_c, 6, 55, 0
8, 165600, Note_on_c, 6, 62, 105
8, 166368, Note_on_c, 6, 62, 0
8, 166560, Note_on_c, 6, 62, 105
8, 167352, Note_on_c, 6, 62, 0
8, 167520, Note_on_c, 6, 50, 105
8, 167832, Note_on_c, 6, 50, 0
8, 168000, Note_on_c, 6, 60, 105
8, 168576, Note_on_c, 6, 60, 0
8, 168720, Note_on_c, 6, 58, 105
8, 168876, Note_on_c, 6, 58, 0
8, 168960, Note_on_c, 6, 57, 105
8, 169272, Note_on_c, 6, 57, 0
8, 169440, Note_on_c, 6, 66, 105
8, 169920, Note_on_c, 6, 66, 0
8, 169920, Note_on_c, 6, 67, 105
8, 170304, Note_on_c, 6, 67, 0
8, 170400, Note_on_c, 6, 72, 105
8, 170880, Note_on_c, 6, 72, 0
8, 170880, Note_on_c, 6, 70, 105
8, 171192, Note_on_c, 6, 70, 0
8, 171360, Note_on_c, 6, 58, 105
8, 171672, Note_on_c, 6, 58, 0
8, 171840, Note_on_c, 6, 63, 105
8, 172416, Note_on_c, 6, 63, 0
8, 172560, Note_on_c, 6, 62, 105
8, 172716, Note_on_c, 6, 62, 0
8, 172800, Note_on_c, 6, 60, 105
8, 173112, Note_on_c, 6, 60, 0
8, 173280, Note_on_c, 6, 57, 105
8, 173592, Note_on_c, 6, 57, 0
8, 173760, Note_on_c, 6, 62, 105
8, 174480, Note_on_c, 6, 62, 0
8, 174480, Note_on_c, 6, 60, 105
8, 174672, Note_on_c, 6, 60, 0
8, 174720, Note_on_c, 6, 58, 105
8, 175032, Note_on_c, 6, 58, 0
8, 175200, Note_on_c, 6, 63, 105
8, 175512, Note_on_c, 6, 63, 0
8, 175680, Note_on_c, 6, 63, 105
8, 175992, Note_on_c, 6, 63, 0
8, 176160, Note_on_c, 6, 62, 105
8, 176472, Note_on_c, 6, 62, 0
8, 176640, Note_on_c, 6, 62, 105
8, 176952, Note_on_c, 6, 62, 0
8, 177120, Note_on_c, 6, 58, 105
8, 177432, Note_on_c, 6, 58, 0
8, 179520, Note_on_c, 6, 65, 58
8, 180288, Note_on_c, 6, 65, 0
8, 180480, Note_on_c, 6, 65, 58
8, 181824, Note_on_c, 6, 65, 0
8, 183840, Note_on_c, 6, 63, 58
8, 184224, Note_on_c, 6, 63, 0
8, 184320, Note_on_c, 6, 62, 58
8, 185280, Note_on_c, 6, 62, 0
8, 185280, Note_on_c, 6, 60, 58
8, 185664, Note_on_c, 6, 60, 0
8, 187200, Note_on_c, 6, 53, 58
8, 187968, Note_on_c, 6, 53, 0
8, 188160, Note_on_c, 6, 53, 58
8, 189504, Note_on_c, 6, 53, 0
8, 189600, Note_on_c, 6, 55, 58
8, 190464, Note_on_c, 6, 55, 0
8, 190560, Note_on_c, 6, 50, 58
8, 191520, Note_on_c, 6, 50, 0
8, 191520, Note_on_c, 6, 51, 58
8, 191904, Note_on_c, 6, 51, 0
8, 192000, Note_on_c, 6, 50, 58
8, 192960, Note_on_c, 6, 50, 0
8, 192960, Note_on_c, 6, 48, 58
8, 193344, Note_on_c, 6, 48, 0
8, 196800, Note_on_c, 6, 75, 105
8, 196956, Note_on_c, 6, 75, 0
8, 197040, Note_on_c, 6, 74, 105
8, 197196, Note_on_c, 6, 74, 0
8, 197280, Note_on_c, 6, 72, 105
8, 197436, Note_on_c, 6, 72, 0
8, 197520, Note_on_c, 6, 70, 105
8, 197676, Note_on_c, 6, 70, 0
8, 197760, Note_on_c, 6, 69, 105
8, 198000, Note_on_c, 6, 69, 0
8, 198000, Note_on_c, 6, 70, 105
8, 198156, Note_on_c, 6, 70, 0
8, 198240, Note_on_c, 6, 69, 105
8, 198396, Note_on_c, 6, 69, 0
8, 198480, Note_on_c, 6, 67, 105
8, 198636, Note_on_c, 6, 67, 0
8, 198720, Note_on_c, 6, 65, 105
8, 198876, Note_on_c, 6, 65, 0
8, 198960, Note_on_c, 6, 63, 105
8, 199116, Note_on_c, 6, 63, 0
8, 199200, Note_on_c, 6, 62, 105
8, 199356, Note_on_c, 6, 62, 0
8, 199440, Note_on_c, 6, 60, 105
8, 199596, Note_on_c, 6, 60, 0
8, 199680, Note_on_c, 6, 58, 105
8, 200064, Note_on_c, 6, 58, 0
8, 201600, Note_on_c, 6, 61, 105
8, 201840, Note_on_c, 6, 61, 0
8, 202080, Note_on_c, 6, 60, 105
8, 202320, Note_on_c, 6, 60, 0
8, 203520, Note_on_c, 6, 58, 105
8, 203760, Note_on_c, 6, 58, 0
8, 204000, Note_on_c, 6, 57, 105
8, 204240, Note_on_c, 6, 57, 0
8, 205440, Note_on_c, 6, 54, 105
8, 205680, Note_on_c, 6, 54, 0
8, 205920, Note_on_c, 6, 53, 105
8, 206160, Note_on_c, 6, 53, 0
8, 206400, Note_on_c, 6, 72, 105
8, 206640, Note_on_c, 6, 72, 0
8, 206640, Note_on_c, 6, 74, 105
8, 206880, Note_on_c, 6, 74, 0
8, 206880, Note_on_c, 6, 75, 105
8, 207072, Note_on_c, 6, 75, 0
8, 207120, Note_on_c, 6, 74, 105
8, 207264, Note_on_c, 6, 74, 0
8, 207360, Note_on_c, 6, 72, 105
8, 207504, Note_on_c, 6, 72, 0
8, 207600, Note_on_c, 6, 70, 105
8, 207744, Note_on_c, 6, 70, 0
8, 207840, Note_on_c, 6, 69, 105
8, 207984, Note_on_c, 6, 69, 0
8, 208080, Note_on_c, 6, 67, 105
8, 208224, Note_on_c, 6, 67, 0
8, 208320, Note_on_c, 6, 65, 105
8, 208560, Note_on_c, 6, 65, 0
8, 208560, Note_on_c, 6, 67, 105
8, 208800, Note_on_c, 6, 67, 0
8, 208800, Note_on_c, 6, 69, 105
8, 209040, Note_on_c, 6, 69, 0
8, 209040, Note_on_c, 6, 65, 105
8, 209232, Note_on_c, 6, 65, 0
8, 209280, Note_on_c, 6, 70, 105
8, 209472, Note_on_c, 6, 70, 0
8, 209520, Note_on_c, 6, 69, 105
8, 209712, Note_on_c, 6, 69, 0
8, 209760, Note_on_c, 6, 67, 105
8, 209952, Note_on_c, 6, 67, 0
8, 210000, Note_on_c, 6, 65, 105
8, 210192, Note_on_c, 6, 65, 0
8, 210240, Note_on_c, 6, 63, 105
8, 210432, Note_on_c, 6, 63, 0
8, 210480, Note_on_c, 6, 62, 105
8, 210672, Note_on_c, 6, 62, 0
8, 210720, Note_on_c, 6, 60, 105
8, 210912, Note_on_c, 6, 60, 0
8, 210960, Note_on_c, 6, 58, 105
8, 211152, Note_on_c, 6, 58, 0
8, 211200, Note_on_c, 6, 63, 105
8, 211512, Note_on_c, 6, 63, 0
8, 211680, Note_on_c, 6, 63, 105
8, 211992, Note_on_c, 6, 63, 0
8, 212160, Note_on_c, 6, 65, 105
8, 212472, Note_on_c, 6, 65, 0
8, 212640, Note_on_c, 6, 53, 105
8, 212952, Note_on_c, 6, 53, 0
8, 213120, Note_on_c, 6, 58, 105
8, 213432, Note_on_c, 6, 58, 0
8, 213600, Note_on_c, 6, 65, 105
8, 213912, Note_on_c, 6, 65, 0
8, 214080, Note_on_c, 6, 74, 105
8, 214656, Note_on_c, 6, 74, 0
8, 214800, Note_on_c, 6, 72, 105
8, 214992, Note_on_c, 6, 72, 0
8, 215040, Note_on_c, 6, 70, 105
8, 215328, Note_on_c, 6, 70, 0
8, 215520, Note_on_c, 6, 65, 105
8, 215808, Note_on_c, 6, 65, 0
8, 216000, Note_on_c, 6, 62, 105
8, 216288, Note_on_c, 6, 62, 0
8, 216480, Note_on_c, 6, 58, 105
8, 216768, Note_on_c, 6, 58, 0
8, 216960, Note_on_c, 6, 65, 92
8, 217272, Note_on_c, 6, 65, 0
8, 225600, Note_on_c, 6, 62, 70
8, 226320, Note_on_c, 6, 62, 0
8, 226320, Note_on_c, 6, 63, 70
8, 226512, Note_on_c, 6, 63, 0
8, 226560, Note_on_c, 6, 60, 70
8, 226944, Note_on_c, 6, 60, 0
8, 227520, Note_on_c, 6, 63, 70
8, 228240, Note_on_c, 6, 63, 0
8, 228240, Note_on_c, 6, 65, 70
8, 228432, Note_on_c, 6, 65, 0
8, 228480, Note_on_c, 6, 62, 70
8, 228864, Note_on_c, 6, 62, 0
8, 229440, Note_on_c, 6, 70, 70
8, 230160, Note_on_c, 6, 70, 0
8, 230160, Note_on_c, 6, 74, 70
8, 230352, Note_on_c, 6, 74, 0
8, 230400, Note_on_c, 6, 72, 70
8, 231120, Note_on_c, 6, 72, 0
8, 231120, Note_on_c, 6, 75, 70
8, 231312, Note_on_c, 6, 75, 0
8, 231360, Note_on_c, 6, 65, 70
8, 232080, Note_on_c, 6, 65, 0
8, 232080, Note_on_c, 6, 69, 70
8, 232272, Note_on_c, 6, 69, 0
8, 232320, Note_on_c, 6, 70, 70
8, 232704, Note_on_c, 6, 70, 0
8, 233280, Note_on_c, 6, 62, 70
8, 234000, Note_on_c, 6, 62, 0
8, 234000, Note_on_c, 6, 63, 80
8, 234192, Note_on_c, 6, 63, 0
8, 234240, Note_on_c, 6, 60, 80
8, 234624, Note_on_c, 6, 60, 0
8, 235200, Note_on_c, 6, 63, 80
8, 235920, Note_on_c, 6, 63, 0
8, 235920, Note_on_c, 6, 65, 80
8, 236112, Note_on_c, 6, 65, 0
8, 236160, Note_on_c, 6, 62, 80
8, 236544, Note_on_c, 6, 62, 0
8, 237120, Note_on_c, 6, 70, 80
8, 237840, Note_on_c, 6, 70, 0
8, 237840, Note_on_c, 6, 74, 80
8, 238032, Note_on_c, 6, 74, 0
8, 238080, Note_on_c, 6, 72, 80
8, 238800, Note_on_c, 6, 72, 0
8, 238800, Note_on_c, 6, 75, 80
8, 238992, Note_on_c, 6, 75, 0
8, 239040, Note_on_c, 6, 65, 80
8, 239760, Note_on_c, 6, 65, 0
8, 239760, Note_on_c, 6, 69, 80
8, 239952, Note_on_c, 6, 69, 0
8, 240000, Note_on_c, 6, 70, 105
8, 240312, Note_on_c, 6, 70, 0
8, 240480, Note_on_c, 6, 65, 105
8, 240792, Note_on_c, 6, 65, 0
8, 240960, Note_on_c, 6, 74, 105
8, 241536, Note_on_c, 6, 74, 0
8, 241680, Note_on_c, 6, 72, 105
8, 241872, Note_on_c, 6, 72, 0
8, 241920, Note_on_c, 6, 70, 105
8, 242232, Note_on_c, 6, 70, 0
8, 242400, Note_on_c, 6, 65, 105
8, 242712, Note_on_c, 6, 65, 0
8, 242880, Note_on_c, 6, 74, 105
8, 243192, Note_on_c, 6, 74, 0
8, 243360, Note_on_c, 6, 70, 105
8, 243672, Note_on_c, 6, 70, 0
8, 243840, Note_on_c, 6, 72, 105
8, 244152, Note_on_c, 6, 72, 0
8, 244320, Note_on_c, 6, 65, 105
8, 244632, Note_on_c, 6, 65, 0
8, 244800, Note_on_c, 6, 75, 105
8, 245376, Note_on_c, 6, 75, 0
8, 245520, Note_on_c, 6, 74, 105
8, 245712, Note_on_c, 6, 74, 0
8, 245760, Note_on_c, 6, 72, 105
8, 246072, Note_on_c, 6, 72, 0
8, 246240, Note_on_c, 6, 65, 105
8, 246552, Note_on_c, 6, 65, 0
8, 246720, Note_on_c, 6, 75, 105
8, 247032, Note_on_c, 6, 75, 0
8, 247200, Note_on_c, 6, 72, 105
8, 247512, Note_on_c, 6, 72, 0
8, 247680, Note_on_c, 6, 70, 105
8, 247992, Note_on_c, 6, 70, 0
8, 248160, Note_on_c, 6, 74, 105
8, 248394, Note_on_c, 6, 74, 0
8, 248520, Note_on_c, 6, 70, 105
8, 248598, Note_on_c, 6, 70, 0
8, 248640, Note_on_c, 6, 62, 105
8, 248952, Note_on_c, 6, 62, 0
8, 249120, Note_on_c, 6, 70, 105
8, 249354, Note_on_c, 6, 70, 0
8, 249480, Note_on_c, 6, 62, 105
8, 249558, Note_on_c, 6, 62, 0
8, 249600, Note_on_c, 6, 63, 105
8, 249912, Note_on_c, 6, 63, 0
8, 250080, Note_on_c, 6, 70, 105
8, 250314, Note_on_c, 6, 70, 0
8, 250440, Note_on_c, 6, 63, 105
8, 250518, Note_on_c, 6, 63, 0
8, 250560, Note_on_c, 6, 67, 105
8, 250872, Note_on_c, 6, 67, 0
8, 251040, Note_on_c, 6, 70, 105
8, 251274, Note_on_c, 6, 70, 0
8, 251400, Note_on_c, 6, 67, 105
8, 251478, Note_on_c, 6, 67, 0
8, 251520, Note_on_c, 6, 69, 105
8, 251832, Note_on_c, 6, 69, 0
8, 252000, Note_on_c, 6, 72, 105
8, 252234, Note_on_c, 6, 72, 0
8, 252360, Note_on_c, 6, 69, 105
8, 252438, Note_on_c, 6, 69, 0
8, 252480, Note_on_c, 6, 65, 105
8, 252792, Note_on_c, 6, 65, 0
8, 252960, Note_on_c, 6, 69, 105
8, 253194, Note_on_c, 6, 69, 0
8, 253320, Note_on_c, 6, 65, 105
8, 253398, Note_on_c, 6, 65, 0
8, 253440, Note_on_c, 6, 67, 105
8, 253752, Note_on_c, 6, 67, 0
8, 253920, Note_on_c, 6, 62, 105
8, 254232, Note_on_c, 6, 62, 0
8, 254400, Note_on_c, 6, 63, 105
8, 254712, Note_on_c, 6, 63, 0
8, 254880, Note_on_c, 6, 65, 105
8, 255192, Note_on_c, 6, 65, 0
8, 255360, Note_on_c, 6, 70, 105
8, 255672, Note_on_c, 6, 70, 0
8, 255840, Note_on_c, 6, 74, 105
8, 256074, Note_on_c, 6, 74, 0
8, 256200, Note_on_c, 6, 70, 105
8, 256278, Note_on_c, 6, 70, 0
8, 256320, Note_on_c, 6, 62, 105
8, 256632, Note_on_c, 6, 62, 0
8, 256800, Note_on_c, 6, 70, 105
8, 257034, Note_on_c, 6, 70, 0
8, 257160, Note_on_c, 6, 62, 105
8, 257238, Note_on_c, 6, 62, 0
8, 257280, Note_on_c, 6, 63, 105
8, 257592, Note_on_c, 6, 63, 0
8, 257760, Note_on_c, 6, 70, 105
8, 257994, Note_on_c, 6, 70, 0
8, 258120, Note_on_c, 6, 63, 105
8, 258198, Note_on_c, 6, 63, 0
8, 258240, Note_on_c, 6, 67, 105
8, 258552, Note_on_c, 6, 67, 0
8, 258720, Note_on_c, 6, 70, 105
8, 258954, Note_on_c, 6, 70, 0
8, 259080, Note_on_c, 6, 67, 105
8, 259158, Note_on_c, 6, 67, 0
8, 259200, Note_on_c, 6, 69, 105
8, 259512, Note_on_c, 6, 69, 0
8, 259680, Note_on_c, 6, 72, 105
8, 259914, Note_on_c, 6, 72, 0
8, 260040, Note_on_c, 6, 69, 105
8, 260118, Note_on_c, 6, 69, 0
8, 260160, Note_on_c, 6, 65, 105
8, 260472, Note_on_c, 6, 65, 0
8, 260640, Note_on_c, 6, 69, 105
8, 260874, Note_on_c, 6, 69, 0
8, 261000, Note_on_c, 6, 65, 105
8, 261078, Note_on_c, 6, 65, 0
8, 261120, Note_on_c, 6, 67, 105
8, 261432, Note_on_c, 6, 67, 0
8, 261600, Note_on_c, 6, 62, 105
8, 261912, Note_on_c, 6, 62, 0
8, 262080, Note_on_c, 6, 63, 105
8, 262392, Note_on_c, 6, 63, 0
8, 262560, Note_on_c, 6, 65, 105
8, 262872, Note_on_c, 6, 65, 0
8, 263040, Note_on_c, 6, 70, 105
8, 263352, Note_on_c, 6, 70, 0
8, 263520, Note_on_c, 6, 58, 105
8, 263832, Note_on_c, 6, 58, 0
8, 264000, Note_on_c, 6, 74, 105
8, 264576, Note_on_c, 6, 74, 0
8, 264720, Note_on_c, 6, 72, 105
8, 264912, Note_on_c, 6, 72, 0
8, 264960, Note_on_c, 6, 70, 105
8, 265536, Note_on_c, 6, 70, 0
8, 265680, Note_on_c, 6, 69, 105
8, 265872, Note_on_c, 6, 69, 0
8, 265920, Note_on_c, 6, 67, 105
8, 266496, Note_on_c, 6, 67, 0
8, 266640, Note_on_c, 6, 65, 105
8, 266832, Note_on_c, 6, 65, 0
8, 266880, Note_on_c, 6, 63, 105
8, 267264, Note_on_c, 6, 63, 0
8, 267360, Note_on_c, 6, 63, 92
8, 267552, Note_on_c, 6, 63, 0
8, 267600, Note_on_c, 6, 62, 92
8, 267792, Note_on_c, 6, 62, 0
8, 267840, Note_on_c, 6, 60, 92
8, 268032, Note_on_c, 6, 60, 0
8, 268080, Note_on_c, 6, 58, 92
8, 268272, Note_on_c, 6, 58, 0
8, 268320, Note_on_c, 6, 57, 92
8, 268512, Note_on_c, 6, 57, 0
8, 268560, Note_on_c, 6, 58, 92
8, 268752, Note_on_c, 6, 58, 0
8, 268800, Note_on_c, 6, 57, 92
8, 269184, Note_on_c, 6, 57, 0
8, 269280, Note_on_c, 6, 63, 92
8, 269472, Note_on_c, 6, 63, 0
8, 269520, Note_on_c, 6, 62, 92
8, 269712, Note_on_c, 6, 62, 0
8, 269760, Note_on_c, 6, 60, 92
8, 269952, Note_on_c, 6, 60, 0
8, 270000, Note_on_c, 6, 58, 92
8, 270192, Note_on_c, 6, 58, 0
8, 270240, Note_on_c, 6, 57, 92
8, 270432, Note_on_c, 6, 57, 0
8, 270480, Note_on_c, 6, 58, 92
8, 270672, Note_on_c, 6, 58, 0
8, 270720, Note_on_c, 6, 57, 92
8, 271104, Note_on_c, 6, 57, 0
8, 271200, Note_on_c, 6, 63, 92
8, 271392, Note_on_c, 6, 63, 0
8, 271440, Note_on_c, 6, 62, 92
8, 271632, Note_on_c, 6, 62, 0
8, 271680, Note_on_c, 6, 60, 92
8, 271872, Note_on_c, 6, 60, 0
8, 271920, Note_on_c, 6, 58, 92
8, 272112, Note_on_c, 6, 58, 0
8, 272160, Note_on_c, 6, 57, 92
8, 272352, Note_on_c, 6, 57, 0
8, 272400, Note_on_c, 6, 58, 92
8, 272592, Note_on_c, 6, 58, 0
8, 272640, Note_on_c, 6, 57, 92
8, 272952, Note_on_c, 6, 57, 0
8, 273120, Note_on_c, 6, 58, 92
8, 273432, Note_on_c, 6, 58, 0
8, 273600, Note_on_c, 6, 63, 92
8, 273912, Note_on_c, 6, 63, 0
8, 274080, Note_on_c, 6, 65, 92
8, 274392, Note_on_c, 6, 65, 0
8, 274560, Note_on_c, 6, 58, 110
8, 274944, Note_on_c, 6, 58, 0
8, 276480, Note_on_c, 6, 53, 70
8, 276864, Note_on_c, 6, 53, 0
8, 278400, Note_on_c, 6, 53, 70
8, 278784, Note_on_c, 6, 53, 0
8, 278880, Note_on_c, 6, 75, 105
8, 279072, Note_on_c, 6, 75, 0
8, 279120, Note_on_c, 6, 74, 105
8, 279312, Note_on_c, 6, 74, 0
8, 279360, Note_on_c, 6, 72, 105
8, 279552, Note_on_c, 6, 72, 0
8, 279600, Note_on_c, 6, 70, 105
8, 279792, Note_on_c, 6, 70, 0
8, 279840, Note_on_c, 6, 69, 105
8, 280032, Note_on_c, 6, 69, 0
8, 280080, Note_on_c, 6, 70, 105
8, 280272, Note_on_c, 6, 70, 0
8, 280320, Note_on_c, 6, 69, 105
8, 280632, Note_on_c, 6, 69, 0
8, 280800, Note_on_c, 6, 70, 105
8, 281112, Note_on_c, 6, 70, 0
8, 281280, Note_on_c, 6, 63, 105
8, 281592, Note_on_c, 6, 63, 0
8, 281760, Note_on_c, 6, 65, 105
8, 282072, Note_on_c, 6, 65, 0
8, 282240, Note_on_c, 6, 58, 105
8, 282552, Note_on_c, 6, 58, 0
8, 282720, Note_on_c, 6, 58, 105
8, 283032, Note_on_c, 6, 58, 0
8, 283200, Note_on_c, 6, 74, 105
8, 283776, Note_on_c, 6, 74, 0
8, 283920, Note_on_c, 6, 72, 105
8, 284112, Note_on_c, 6, 72, 0
8, 284160, Note_on_c, 6, 70, 105
8, 284472, Note_on_c, 6, 70, 0
8, 284640, Note_on_c, 6, 58, 105
8, 284952, Note_on_c, 6, 58, 0
8, 285120, Note_on_c, 6, 74, 105
8, 285696, Note_on_c, 6, 74, 0
8, 285840, Note_on_c, 6, 72, 105
8, 286032, Note_on_c, 6, 72, 0
8, 286080, Note_on_c, 6, 70, 105
8, 286848, Note_on_c, 6, 70, 0
8, 293760, Note_on_c, 6, 67, 105
8, 294120, Note_on_c, 6, 67, 0
8, 294240, Note_on_c, 6, 68, 105
8, 294420, Note_on_c, 6, 68, 0
8, 294480, Note_on_c, 6, 65, 105
8, 294660, Note_on_c, 6, 65, 0
8, 294720, Note_on_c, 6, 63, 105
8, 295080, Note_on_c, 6, 63, 0
8, 295200, Note_on_c, 6, 65, 105
8, 295380, Note_on_c, 6, 65, 0
8, 295440, Note_on_c, 6, 62, 105
8, 295620, Note_on_c, 6, 62, 0
8, 295680, Note_on_c, 6, 60, 105
8, 296040, Note_on_c, 6, 60, 0
8, 296160, Note_on_c, 6, 74, 105
8, 296340, Note_on_c, 6, 74, 0
8, 296400, Note_on_c, 6, 70, 105
8, 296580, Note_on_c, 6, 70, 0
8, 296640, Note_on_c, 6, 69, 105
8, 297000, Note_on_c, 6, 69, 0
8, 297120, Note_on_c, 6, 70, 105
8, 297300, Note_on_c, 6, 70, 0
8, 297360, Note_on_c, 6, 67, 105
8, 297540, Note_on_c, 6, 67, 0
8, 297600, Note_on_c, 6, 65, 105
8, 297960, Note_on_c, 6, 65, 0
8, 298080, Note_on_c, 6, 67, 105
8, 298260, Note_on_c, 6, 67, 0
8, 298320, Note_on_c, 6, 63, 105
8, 298500, Note_on_c, 6, 63, 0
8, 298560, Note_on_c, 6, 62, 105
8, 298920, Note_on_c, 6, 62, 0
8, 299040, Note_on_c, 6, 63, 105
8, 299220, Note_on_c, 6, 63, 0
8, 299280, Note_on_c, 6, 60, 105
8, 299460, Note_on_c, 6, 60, 0
8, 299520, Note_on_c, 6, 58, 105
8, 299880, Note_on_c, 6, 58, 0
8, 300000, Note_on_c, 6, 72, 105
8, 300180, Note_on_c, 6, 72, 0
8, 300240, Note_on_c, 6, 68, 105
8, 300420, Note_on_c, 6, 68, 0
8, 300480, Note_on_c, 6, 67, 105
8, 300840, Note_on_c, 6, 67, 0
8, 300960, Note_on_c, 6, 68, 105
8, 301140, Note_on_c, 6, 68, 0
8, 301200, Note_on_c, 6, 65, 105
8, 301380, Note_on_c, 6, 65, 0
8, 301440, Note_on_c, 6, 63, 105
8, 301800, Note_on_c, 6, 63, 0
8, 301920, Note_on_c, 6, 65, 105
8, 302100, Note_on_c, 6, 65, 0
8, 302160, Note_on_c, 6, 62, 105
8, 302340, Note_on_c, 6, 62, 0
8, 302400, Note_on_c, 6, 60, 105
8, 302760, Note_on_c, 6, 60, 0
8, 302880, Note_on_c, 6, 62, 105
8, 303060, Note_on_c, 6, 62, 0
8, 303120, Note_on_c, 6, 58, 105
8, 303300, Note_on_c, 6, 58, 0
8, 303360, Note_on_c, 6, 57, 105
8, 303720, Note_on_c, 6, 57, 0
8, 303840, Note_on_c, 6, 70, 105
8, 304020, Note_on_c, 6, 70, 0
8, 304080, Note_on_c, 6, 67, 105
8, 304260, Note_on_c, 6, 67, 0
8, 304320, Note_on_c, 6, 66, 105
8, 304680, Note_on_c, 6, 66, 0
8, 304800, Note_on_c, 6, 67, 105
8, 304980, Note_on_c, 6, 67, 0
8, 305040, Note_on_c, 6, 64, 105
8, 305220, Note_on_c, 6, 64, 0
8, 305280, Note_on_c, 6, 62, 105
8, 305640, Note_on_c, 6, 62, 0
8, 305760, Note_on_c, 6, 75, 105
8, 305940, Note_on_c, 6, 75, 0
8, 306000, Note_on_c, 6, 72, 105
8, 306180, Note_on_c, 6, 72, 0
8, 306240, Note_on_c, 6, 70, 105
8, 306600, Note_on_c, 6, 70, 0
8, 306720, Note_on_c, 6, 72, 105
8, 306900, Note_on_c, 6, 72, 0
8, 306960, Note_on_c, 6, 69, 105
8, 307140, Note_on_c, 6, 69, 0
8, 307200, Note_on_c, 6, 67, 105
8, 307560, Note_on_c, 6, 67, 0
8, 307680, Note_on_c, 6, 67, 105
8, 308040, Note_on_c, 6, 67, 0
8, 308160, Note_on_c, 6, 64, 105
8, 308520, Note_on_c, 6, 64, 0
8, 308640, Note_on_c, 6, 65, 105
8, 309000, Note_on_c, 6, 65, 0
8, 309120, Note_on_c, 6, 62, 105
8, 309480, Note_on_c, 6, 62, 0
8, 309600, Note_on_c, 6, 64, 105
8, 309960, Note_on_c, 6, 64, 0
8, 310080, Note_on_c, 6, 61, 105
8, 310440, Note_on_c, 6, 61, 0
8, 310560, Note_on_c, 6, 62, 105
8, 310920, Note_on_c, 6, 62, 0
8, 311040, Note_on_c, 6, 59, 105
8, 311400, Note_on_c, 6, 59, 0
8, 311520, Note_on_c, 6, 61, 105
8, 311880, Note_on_c, 6, 61, 0
8, 312000, Note_on_c, 6, 62, 105
8, 312360, Note_on_c, 6, 62, 0
8, 312480, Note_on_c, 6, 56, 105
8, 312840, Note_on_c, 6, 56, 0
8, 312960, Note_on_c, 6, 57, 105
8, 313728, Note_on_c, 6, 57, 0
8, 314400, Note_on_c, 6, 61, 92
8, 314664, Note_on_c, 6, 61, 0
8, 314880, Note_on_c, 6, 61, 92
8, 315840, Note_on_c, 6, 61, 0
8, 315840, Note_on_c, 6, 62, 92
8, 316152, Note_on_c, 6, 62, 0
8, 316320, Note_on_c, 6, 63, 92
8, 316584, Note_on_c, 6, 63, 0
8, 316800, Note_on_c, 6, 63, 92
8, 317760, Note_on_c, 6, 63, 0
8, 317760, Note_on_c, 6, 64, 92
8, 318072, Note_on_c, 6, 64, 0
8, 318240, Note_on_c, 6, 64, 92
8, 318504, Note_on_c, 6, 64, 0
8, 318720, Note_on_c, 6, 65, 92
8, 319032, Note_on_c, 6, 65, 0
8, 319200, Note_on_c, 6, 62, 92
8, 319512, Note_on_c, 6, 62, 0
8, 319680, Note_on_c, 6, 64, 92
8, 319992, Note_on_c, 6, 64, 0
8, 320160, Note_on_c, 6, 61, 92
8, 320472, Note_on_c, 6, 61, 0
8, 320640, Note_on_c, 6, 62, 92
8, 320820, Note_on_c, 6, 62, 0
8, 320880, Note_on_c, 6, 64, 92
8, 321060, Note_on_c, 6, 64, 0
8, 321120, Note_on_c, 6, 65, 92
8, 321300, Note_on_c, 6, 65, 0
8, 321360, Note_on_c, 6, 62, 92
8, 321540, Note_on_c, 6, 62, 0
8, 321600, Note_on_c, 6, 61, 92
8, 321780, Note_on_c, 6, 61, 0
8, 321840, Note_on_c, 6, 62, 92
8, 322020, Note_on_c, 6, 62, 0
8, 322080, Note_on_c, 6, 64, 92
8, 322260, Note_on_c, 6, 64, 0
8, 322320, Note_on_c, 6, 61, 92
8, 322500, Note_on_c, 6, 61, 0
8, 322560, Note_on_c, 6, 62, 92
8, 322740, Note_on_c, 6, 62, 0
8, 322800, Note_on_c, 6, 64, 92
8, 322980, Note_on_c, 6, 64, 0
8, 323040, Note_on_c, 6, 65, 92
8, 323220, Note_on_c, 6, 65, 0
8, 323280, Note_on_c, 6, 62, 92
8, 323460, Note_on_c, 6, 62, 0
8, 323520, Note_on_c, 6, 61, 92
8, 323700, Note_on_c, 6, 61, 0
8, 323760, Note_on_c, 6, 62, 92
8, 323940, Note_on_c, 6, 62, 0
8, 324000, Note_on_c, 6, 64, 92
8, 324180, Note_on_c, 6, 64, 0
8, 324240, Note_on_c, 6, 61, 92
8, 324420, Note_on_c, 6, 61, 0
8, 324480, Note_on_c, 6, 62, 92
8, 324864, Note_on_c, 6, 62, 0
8, 329760, Note_on_c, 6, 59, 92
8, 330024, Note_on_c, 6, 59, 0
8, 330240, Note_on_c, 6, 59, 92
8, 331200, Note_on_c, 6, 59, 0
8, 331200, Note_on_c, 6, 60, 92
8, 331512, Note_on_c, 6, 60, 0
8, 331680, Note_on_c, 6, 61, 92
8, 331944, Note_on_c, 6, 61, 0
8, 332160, Note_on_c, 6, 61, 92
8, 333120, Note_on_c, 6, 61, 0
8, 333120, Note_on_c, 6, 62, 92
8, 333432, Note_on_c, 6, 62, 0
8, 333600, Note_on_c, 6, 62, 92
8, 333864, Note_on_c, 6, 62, 0
8, 334080, Note_on_c, 6, 63, 92
8, 334392, Note_on_c, 6, 63, 0
8, 334560, Note_on_c, 6, 60, 92
8, 334872, Note_on_c, 6, 60, 0
8, 335040, Note_on_c, 6, 62, 92
8, 335352, Note_on_c, 6, 62, 0
8, 335520, Note_on_c, 6, 59, 92
8, 335832, Note_on_c, 6, 59, 0
8, 336000, Note_on_c, 6, 60, 92
8, 336180, Note_on_c, 6, 60, 0
8, 336240, Note_on_c, 6, 62, 92
8, 336420, Note_on_c, 6, 62, 0
8, 336480, Note_on_c, 6, 63, 92
8, 336660, Note_on_c, 6, 63, 0
8, 336720, Note_on_c, 6, 60, 92
8, 336900, Note_on_c, 6, 60, 0
8, 336960, Note_on_c, 6, 59, 92
8, 337140, Note_on_c, 6, 59, 0
8, 337200, Note_on_c, 6, 60, 92
8, 337380, Note_on_c, 6, 60, 0
8, 337440, Note_on_c, 6, 62, 92
8, 337620, Note_on_c, 6, 62, 0
8, 337680, Note_on_c, 6, 59, 92
8, 337860, Note_on_c, 6, 59, 0
8, 337920, Note_on_c, 6, 60, 92
8, 338100, Note_on_c, 6, 60, 0
8, 338160, Note_on_c, 6, 62, 92
8, 338340, Note_on_c, 6, 62, 0
8, 338400, Note_on_c, 6, 63, 92
8, 338580, Note_on_c, 6, 63, 0
8, 338640, Note_on_c, 6, 60, 92
8, 338820, Note_on_c, 6, 60, 0
8, 338880, Note_on_c, 6, 59, 92
8, 339060, Note_on_c, 6, 59, 0
8, 339120, Note_on_c, 6, 60, 92
8, 339300, Note_on_c, 6, 60, 0
8, 339360, Note_on_c, 6, 62, 92
8, 339540, Note_on_c, 6, 62, 0
8, 339600, Note_on_c, 6, 59, 92
8, 339780, Note_on_c, 6, 59, 0
8, 339840, Note_on_c, 6, 60, 92
8, 340020, Note_on_c, 6, 60, 0
8, 340080, Note_on_c, 6, 62, 92
8, 340260, Note_on_c, 6, 62, 0
8, 340320, Note_on_c, 6, 63, 92
8, 340500, Note_on_c, 6, 63, 0
8, 340560, Note_on_c, 6, 60, 92
8, 340740, Note_on_c, 6, 60, 0
8, 340800, Note_on_c, 6, 58, 92
8, 340980, Note_on_c, 6, 58, 0
8, 341040, Note_on_c, 6, 57, 92
8, 341220, Note_on_c, 6, 57, 0
8, 341280, Note_on_c, 6, 58, 92
8, 341460, Note_on_c, 6, 58, 0
8, 341520, Note_on_c, 6, 55, 92
8, 341700, Note_on_c, 6, 55, 0
8, 341760, Note_on_c, 6, 57, 92
8, 341940, Note_on_c, 6, 57, 0
8, 342000, Note_on_c, 6, 55, 92
8, 342180, Note_on_c, 6, 55, 0
8, 342240, Note_on_c, 6, 57, 92
8, 342420, Note_on_c, 6, 57, 0
8, 342480, Note_on_c, 6, 54, 92
8, 342660, Note_on_c, 6, 54, 0
8, 342720, Note_on_c, 6, 66, 105
8, 342900, Note_on_c, 6, 66, 0
8, 342960, Note_on_c, 6, 64, 105
8, 343140, Note_on_c, 6, 64, 0
8, 343200, Note_on_c, 6, 66, 105
8, 343380, Note_on_c, 6, 66, 0
8, 343440, Note_on_c, 6, 62, 105
8, 343620, Note_on_c, 6, 62, 0
8, 343680, Note_on_c, 6, 67, 105
8, 343860, Note_on_c, 6, 67, 0
8, 343920, Note_on_c, 6, 62, 105
8, 344100, Note_on_c, 6, 62, 0
8, 344160, Note_on_c, 6, 58, 105
8, 344340, Note_on_c, 6, 58, 0
8, 344400, Note_on_c, 6, 62, 105
8, 344580, Note_on_c, 6, 62, 0
8, 344640, Note_on_c, 6, 63, 105
8, 344820, Note_on_c, 6, 63, 0
8, 344880, Note_on_c, 6, 67, 105
8, 345060, Note_on_c, 6, 67, 0
8, 345120, Note_on_c, 6, 65, 105
8, 345300, Note_on_c, 6, 65, 0
8, 345360, Note_on_c, 6, 63, 105
8, 345540, Note_on_c, 6, 63, 0
8, 345600, Note_on_c, 6, 69, 105
8, 345792, Note_on_c, 6, 69, 0
8, 345840, Note_on_c, 6, 69, 105
8, 346224, Note_on_c, 6, 69, 0
8, 346320, Note_on_c, 6, 69, 105
8, 346704, Note_on_c, 6, 69, 0
8, 346800, Note_on_c, 6, 69, 105
8, 347184, Note_on_c, 6, 69, 0
8, 347280, Note_on_c, 6, 69, 105
8, 347472, Note_on_c, 6, 69, 0
8, 347520, Note_on_c, 6, 70, 105
8, 347712, Note_on_c, 6, 70, 0
8, 347760, Note_on_c, 6, 70, 105
8, 348144, Note_on_c, 6, 70, 0
8, 348240, Note_on_c, 6, 70, 105
8, 348624, Note_on_c, 6, 70, 0
8, 348720, Note_on_c, 6, 70, 105
8, 349104, Note_on_c, 6, 70, 0
8, 349200, Note_on_c, 6, 70, 105
8, 349392, Note_on_c, 6, 70, 0
8, 349440, Note_on_c, 6, 62, 92
8, 349440, Note_on_c, 6, 69, 92
8, 349824, Note_on_c, 6, 69, 0
8, 349824, Note_on_c, 6, 62, 0
8, 353280, Note_on_c, 6, 55, 58
8, 353592, Note_on_c, 6, 55, 0
8, 353760, Note_on_c, 6, 50, 58
8, 354072, Note_on_c, 6, 50, 0
8, 354240, Note_on_c, 6, 58, 58
8, 354780, Note_on_c, 6, 58, 0
8, 354960, Note_on_c, 6, 57, 58
8, 355116, Note_on_c, 6, 57, 0
8, 355200, Note_on_c, 6, 55, 58
8, 355512, Note_on_c, 6, 55, 0
8, 355680, Note_on_c, 6, 58, 58
8, 356160, Note_on_c, 6, 58, 0
8, 356160, Note_on_c, 6, 57, 58
8, 356640, Note_on_c, 6, 57, 0
8, 356640, Note_on_c, 6, 55, 58
8, 357096, Note_on_c, 6, 55, 0
8, 357120, Note_on_c, 6, 54, 58
8, 357432, Note_on_c, 6, 54, 0
8, 357600, Note_on_c, 6, 50, 58
8, 357912, Note_on_c, 6, 50, 0
8, 358080, Note_on_c, 6, 60, 58
8, 358620, Note_on_c, 6, 60, 0
8, 358800, Note_on_c, 6, 58, 58
8, 358956, Note_on_c, 6, 58, 0
8, 359040, Note_on_c, 6, 57, 58
8, 359352, Note_on_c, 6, 57, 0
8, 359520, Note_on_c, 6, 60, 58
8, 360000, Note_on_c, 6, 60, 0
8, 360000, Note_on_c, 6, 58, 58
8, 360480, Note_on_c, 6, 58, 0
8, 360480, Note_on_c, 6, 57, 58
8, 360936, Note_on_c, 6, 57, 0
8, 360960, Note_on_c, 6, 55, 58
8, 361272, Note_on_c, 6, 55, 0
8, 361440, Note_on_c, 6, 58, 58
8, 361752, Note_on_c, 6, 58, 0
8, 361920, Note_on_c, 6, 63, 58
8, 362424, Note_on_c, 6, 63, 0
8, 362640, Note_on_c, 6, 62, 58
8, 362796, Note_on_c, 6, 62, 0
8, 362880, Note_on_c, 6, 60, 58
8, 363192, Note_on_c, 6, 60, 0
8, 363360, Note_on_c, 6, 57, 58
8, 363672, Note_on_c, 6, 57, 0
8, 363840, Note_on_c, 6, 62, 58
8, 364344, Note_on_c, 6, 62, 0
8, 364560, Note_on_c, 6, 60, 58
8, 364716, Note_on_c, 6, 60, 0
8, 364800, Note_on_c, 6, 58, 58
8, 365112, Note_on_c, 6, 58, 0
8, 365280, Note_on_c, 6, 55, 58
8, 365592, Note_on_c, 6, 55, 0
8, 365760, Note_on_c, 6, 51, 58
8, 366072, Note_on_c, 6, 51, 0
8, 366240, Note_on_c, 6, 49, 58
8, 366552, Note_on_c, 6, 49, 0
8, 366720, Note_on_c, 6, 50, 58
8, 367032, Note_on_c, 6, 50, 0
8, 367200, Note_on_c, 6, 60, 58
8, 367680, Note_on_c, 6, 60, 0
8, 367680, Note_on_c, 6, 58, 58
8, 368160, Note_on_c, 6, 58, 0
8, 368160, Note_on_c, 6, 57, 58
8, 368472, Note_on_c, 6, 57, 0
8, 368640, Note_on_c, 6, 55, 105
8, 368952, Note_on_c, 6, 55, 0
8, 369120, Note_on_c, 6, 50, 105
8, 369432, Note_on_c, 6, 50, 0
8, 369600, Note_on_c, 6, 58, 105
8, 370176, Note_on_c, 6, 58, 0
8, 370320, Note_on_c, 6, 57, 105
8, 370476, Note_on_c, 6, 57, 0
8, 370560, Note_on_c, 6, 55, 105
8, 370872, Note_on_c, 6, 55, 0
8, 371040, Note_on_c, 6, 62, 105
8, 371808, Note_on_c, 6, 62, 0
8, 372000, Note_on_c, 6, 62, 105
8, 372792, Note_on_c, 6, 62, 0
8, 372960, Note_on_c, 6, 50, 105
8, 373272, Note_on_c, 6, 50, 0
8, 373440, Note_on_c, 6, 60, 105
8, 374016, Note_on_c, 6, 60, 0
8, 374160, Note_on_c, 6, 58, 105
8, 374316, Note_on_c, 6, 58, 0
8, 374400, Note_on_c, 6, 57, 105
8, 374712, Note_on_c, 6, 57, 0
8, 374880, Note_on_c, 6, 66, 105
8, 375360, Note_on_c, 6, 66, 0
8, 375360, Note_on_c, 6, 67, 105
8, 375744, Note_on_c, 6, 67, 0
8, 375840, Note_on_c, 6, 72, 105
8, 376320, Note_on_c, 6, 72, 0
8, 376320, Note_on_c, 6, 70, 105
8, 376632, Note_on_c, 6, 70, 0
8, 376800, Note_on_c, 6, 58, 105
8, 377112, Note_on_c, 6, 58, 0
8, 377280, Note_on_c, 6, 63, 105
8, 377856, Note_on_c, 6, 63, 0
8, 378000, Note_on_c, 6, 62, 105
8, 378156, Note_on_c, 6, 62, 0
8, 378240, Note_on_c, 6, 60, 105
8, 378552, Note_on_c, 6, 60, 0
8, 378720, Note_on_c, 6, 57, 105
8, 379032, Note_on_c, 6, 57, 0
8, 379200, Note_on_c, 6, 62, 105
8, 379920, Note_on_c, 6, 62, 0
8, 379920, Note_on_c, 6, 60, 105
8, 380112, Note_on_c, 6, 60, 0
8, 380160, Note_on_c, 6, 58, 105
8, 380472, Note_on_c, 6, 58, 0
8, 380640, Note_on_c, 6, 63, 105
8, 380952, Note_on_c, 6, 63, 0
8, 381120, Note_on_c, 6, 63, 105
8, 381432, Note_on_c, 6, 63, 0
8, 381600, Note_on_c, 6, 62, 105
8, 381912, Note_on_c, 6, 62, 0
8, 382080, Note_on_c, 6, 62, 105
8, 382392, Note_on_c, 6, 62, 0
8, 382560, Note_on_c, 6, 58, 105
8, 382872, Note_on_c, 6, 58, 0
8, 384960, Note_on_c, 6, 65, 58
8, 385728, Note_on_c, 6, 65, 0
8, 385920, Note_on_c, 6, 65, 58
8, 386880, Note_on_c, 6, 65, 0
8, 386880, Note_on_c, 6, 63, 58
8, 387264, Note_on_c, 6, 63, 0
8, 388800, Note_on_c, 6, 62, 58
8, 389184, Note_on_c, 6, 62, 0
8, 389280, Note_on_c, 6, 62, 58
8, 389664, Note_on_c, 6, 62, 0
8, 389760, Note_on_c, 6, 62, 58
8, 390720, Note_on_c, 6, 62, 0
8, 390720, Note_on_c, 6, 63, 58
8, 391104, Note_on_c, 6, 63, 0
8, 392640, Note_on_c, 6, 57, 58
8, 393408, Note_on_c, 6, 57, 0
8, 393600, Note_on_c, 6, 57, 58
8, 394560, Note_on_c, 6, 57, 0
8, 394560, Note_on_c, 6, 58, 58
8, 394944, Note_on_c, 6, 58, 0
8, 395520, Note_on_c, 6, 62, 58
8, 396288, Note_on_c, 6, 62, 0
8, 396480, Note_on_c, 6, 62, 58
8, 397248, Note_on_c, 6, 62, 0
8, 397440, Note_on_c, 6, 62, 58
8, 398208, Note_on_c, 6, 62, 0
8, 399360, Note_on_c, 6, 51, 58
8, 400512, Note_on_c, 6, 51, 0
8, 400800, Note_on_c, 6, 52, 58
8, 401184, Note_on_c, 6, 52, 0
8, 401280, Note_on_c, 6, 50, 58
8, 402624, Note_on_c, 6, 50, 0
8, 406080, Note_on_c, 6, 72, 105
8, 406224, Note_on_c, 6, 72, 0
8, 406320, Note_on_c, 6, 70, 105
8, 406464, Note_on_c, 6, 70, 0
8, 406560, Note_on_c, 6, 69, 105
8, 406704, Note_on_c, 6, 69, 0
8, 406800, Note_on_c, 6, 67, 105
8, 406944, Note_on_c, 6, 67, 0
8, 407040, Note_on_c, 6, 66, 105
8, 407280, Note_on_c, 6, 66, 0
8, 407280, Note_on_c, 6, 67, 105
8, 407424, Note_on_c, 6, 67, 0
8, 407520, Note_on_c, 6, 66, 105
8, 407664, Note_on_c, 6, 66, 0
8, 407760, Note_on_c, 6, 63, 105
8, 407904, Note_on_c, 6, 63, 0
8, 408000, Note_on_c, 6, 62, 105
8, 408144, Note_on_c, 6, 62, 0
8, 408240, Note_on_c, 6, 60, 105
8, 408384, Note_on_c, 6, 60, 0
8, 408480, Note_on_c, 6, 58, 105
8, 408624, Note_on_c, 6, 58, 0
8, 408720, Note_on_c, 6, 57, 105
8, 408864, Note_on_c, 6, 57, 0
8, 408960, Note_on_c, 6, 55, 105
8, 409344, Note_on_c, 6, 55, 0
8, 410880, Note_on_c, 6, 70, 92
8, 411144, Note_on_c, 6, 70, 0
8, 411360, Note_on_c, 6, 69, 92
8, 411624, Note_on_c, 6, 69, 0
8, 412800, Note_on_c, 6, 66, 92
8, 413064, Note_on_c, 6, 66, 0
8, 413280, Note_on_c, 6, 65, 92
8, 413544, Note_on_c, 6, 65, 0
8, 414720, Note_on_c, 6, 66, 92
8, 414984, Note_on_c, 6, 66, 0
8, 415200, Note_on_c, 6, 65, 92
8, 415464, Note_on_c, 6, 65, 0
8, 416640, Note_on_c, 6, 63, 92
8, 416904, Note_on_c, 6, 63, 0
8, 417120, Note_on_c, 6, 62, 92
8, 417384, Note_on_c, 6, 62, 0
8, 417600, Note_on_c, 6, 69, 92
8, 417840, Note_on_c, 6, 69, 0
8, 417840, Note_on_c, 6, 70, 92
8, 418080, Note_on_c, 6, 70, 0
8, 418080, Note_on_c, 6, 72, 92
8, 418212, Note_on_c, 6, 72, 0
8, 418320, Note_on_c, 6, 70, 92
8, 418452, Note_on_c, 6, 70, 0
8, 418560, Note_on_c, 6, 69, 92
8, 418752, Note_on_c, 6, 69, 0
8, 418800, Note_on_c, 6, 67, 92
8, 418992, Note_on_c, 6, 67, 0
8, 419040, Note_on_c, 6, 66, 92
8, 419232, Note_on_c, 6, 66, 0
8, 419280, Note_on_c, 6, 63, 92
8, 419472, Note_on_c, 6, 63, 0
8, 419520, Note_on_c, 6, 62, 92
8, 419712, Note_on_c, 6, 62, 0
8, 419760, Note_on_c, 6, 64, 92
8, 419952, Note_on_c, 6, 64, 0
8, 420000, Note_on_c, 6, 66, 92
8, 420192, Note_on_c, 6, 66, 0
8, 420240, Note_on_c, 6, 62, 92
8, 420432, Note_on_c, 6, 62, 0
8, 420480, Note_on_c, 6, 67, 92
8, 420636, Note_on_c, 6, 67, 0
8, 420720, Note_on_c, 6, 65, 92
8, 420876, Note_on_c, 6, 65, 0
8, 420960, Note_on_c, 6, 63, 92
8, 421116, Note_on_c, 6, 63, 0
8, 421200, Note_on_c, 6, 62, 92
8, 421356, Note_on_c, 6, 62, 0
8, 421440, Note_on_c, 6, 60, 92
8, 421596, Note_on_c, 6, 60, 0
8, 421680, Note_on_c, 6, 58, 92
8, 421836, Note_on_c, 6, 58, 0
8, 421920, Note_on_c, 6, 57, 92
8, 422076, Note_on_c, 6, 57, 0
8, 422160, Note_on_c, 6, 55, 92
8, 422316, Note_on_c, 6, 55, 0
8, 422400, Note_on_c, 6, 60, 92
8, 422688, Note_on_c, 6, 60, 0
8, 422880, Note_on_c, 6, 60, 92
8, 423168, Note_on_c, 6, 60, 0
8, 423360, Note_on_c, 6, 62, 92
8, 423648, Note_on_c, 6, 62, 0
8, 423840, Note_on_c, 6, 62, 92
8, 424128, Note_on_c, 6, 62, 0
8, 424320, Note_on_c, 6, 67, 92
8, 424608, Note_on_c, 6, 67, 0
8, 424800, Note_on_c, 6, 62, 92
8, 425088, Note_on_c, 6, 62, 0
8, 425280, Note_on_c, 6, 70, 92
8, 425856, Note_on_c, 6, 70, 0
8, 426000, Note_on_c, 6, 69, 92
8, 426192, Note_on_c, 6, 69, 0
8, 426240, Note_on_c, 6, 67, 92
8, 426528, Note_on_c, 6, 67, 0
8, 426720, Note_on_c, 6, 62, 92
8, 427008, Note_on_c, 6, 62, 0
8, 427200, Note_on_c, 6, 58, 92
8, 427488, Note_on_c, 6, 58, 0
8, 427680, Note_on_c, 6, 55, 92
8, 427968, Note_on_c, 6, 55, 0
8, 428160, Note_on_c, 6, 62, 92
8, 428448, Note_on_c, 6, 62, 0
8, 436800, Note_on_c, 6, 58, 70
8, 437520, Note_on_c, 6, 58, 0
8, 437520, Note_on_c, 6, 60, 70
8, 437712, Note_on_c, 6, 60, 0
8, 437760, Note_on_c, 6, 57, 70
8, 438240, Note_on_c, 6, 57, 0
8, 438720, Note_on_c, 6, 60, 70
8, 439440, Note_on_c, 6, 60, 0
8, 439440, Note_on_c, 6, 62, 70
8, 439632, Note_on_c, 6, 62, 0
8, 439680, Note_on_c, 6, 58, 70
8, 440160, Note_on_c, 6, 58, 0
8, 440640, Note_on_c, 6, 67, 70
8, 441360, Note_on_c, 6, 67, 0
8, 441360, Note_on_c, 6, 70, 70
8, 441552, Note_on_c, 6, 70, 0
8, 441600, Note_on_c, 6, 69, 70
8, 442320, Note_on_c, 6, 69, 0
8, 442320, Note_on_c, 6, 72, 70
8, 442512, Note_on_c, 6, 72, 0
8, 442560, Note_on_c, 6, 62, 70
8, 443280, Note_on_c, 6, 62, 0
8, 443280, Note_on_c, 6, 66, 70
8, 443472, Note_on_c, 6, 66, 0
8, 443520, Note_on_c, 6, 67, 70
8, 443904, Note_on_c, 6, 67, 0
8, 444480, Note_on_c, 6, 58, 70
8, 445200, Note_on_c, 6, 58, 0
8, 445200, Note_on_c, 6, 60, 70
8, 445392, Note_on_c, 6, 60, 0
8, 445440, Note_on_c, 6, 57, 70
8, 445920, Note_on_c, 6, 57, 0
8, 446400, Note_on_c, 6, 60, 70
8, 447120, Note_on_c, 6, 60, 0
8, 447120, Note_on_c, 6, 62, 70
8, 447312, Note_on_c, 6, 62, 0
8, 447360, Note_on_c, 6, 58, 70
8, 447840, Note_on_c, 6, 58, 0
8, 448320, Note_on_c, 6, 67, 70
8, 449040, Note_on_c, 6, 67, 0
8, 449040, Note_on_c, 6, 70, 70
8, 449232, Note_on_c, 6, 70, 0
8, 449280, Note_on_c, 6, 69, 70
8, 450000, Note_on_c, 6, 69, 0
8, 450000, Note_on_c, 6, 72, 70
8, 450192, Note_on_c, 6, 72, 0
8, 450240, Note_on_c, 6, 62, 70
8, 450960, Note_on_c, 6, 62, 0
8, 450960, Note_on_c, 6, 66, 70
8, 451152, Note_on_c, 6, 66, 0
8, 451200, Note_on_c, 6, 67, 70
8, 451512, Note_on_c, 6, 67, 0
8, 451680, Note_on_c, 6, 62, 105
8, 451992, Note_on_c, 6, 62, 0
8, 452160, Note_on_c, 6, 70, 105
8, 452736, Note_on_c, 6, 70, 0
8, 452880, Note_on_c, 6, 69, 105
8, 453072, Note_on_c, 6, 69, 0
8, 453120, Note_on_c, 6, 67, 105
8, 453432, Note_on_c, 6, 67, 0
8, 453600, Note_on_c, 6, 62, 105
8, 453912, Note_on_c, 6, 62, 0
8, 454080, Note_on_c, 6, 70, 105
8, 454392, Note_on_c, 6, 70, 0
8, 454560, Note_on_c, 6, 67, 105
8, 454872, Note_on_c, 6, 67, 0
8, 455040, Note_on_c, 6, 69, 105
8, 455352, Note_on_c, 6, 69, 0
8, 455520, Note_on_c, 6, 62, 105
8, 455832, Note_on_c, 6, 62, 0
8, 456000, Note_on_c, 6, 72, 105
8, 456576, Note_on_c, 6, 72, 0
8, 456720, Note_on_c, 6, 70, 105
8, 456912, Note_on_c, 6, 70, 0
8, 456960, Note_on_c, 6, 69, 105
8, 457272, Note_on_c, 6, 69, 0
8, 457440, Note_on_c, 6, 62, 105
8, 457752, Note_on_c, 6, 62, 0
8, 457920, Note_on_c, 6, 72, 105
8, 458232, Note_on_c, 6, 72, 0
8, 458400, Note_on_c, 6, 69, 105
8, 458712, Note_on_c, 6, 69, 0
8, 458880, Note_on_c, 6, 67, 105
8, 459240, Note_on_c, 6, 67, 0
8, 459360, Note_on_c, 6, 70, 105
8, 459630, Note_on_c, 6, 70, 0
8, 459720, Note_on_c, 6, 67, 105
8, 459810, Note_on_c, 6, 67, 0
8, 459840, Note_on_c, 6, 59, 105
8, 460200, Note_on_c, 6, 59, 0
8, 460320, Note_on_c, 6, 67, 105
8, 460590, Note_on_c, 6, 67, 0
8, 460680, Note_on_c, 6, 59, 105
8, 460770, Note_on_c, 6, 59, 0
8, 460800, Note_on_c, 6, 60, 105
8, 461160, Note_on_c, 6, 60, 0
8, 461280, Note_on_c, 6, 67, 105
8, 461550, Note_on_c, 6, 67, 0
8, 461640, Note_on_c, 6, 60, 105
8, 461730, Note_on_c, 6, 60, 0
8, 461760, Note_on_c, 6, 63, 105
8, 462120, Note_on_c, 6, 63, 0
8, 462240, Note_on_c, 6, 67, 105
8, 462510, Note_on_c, 6, 67, 0
8, 462600, Note_on_c, 6, 63, 105
8, 462690, Note_on_c, 6, 63, 0
8, 462720, Note_on_c, 6, 62, 105
8, 463080, Note_on_c, 6, 62, 0
8, 463200, Note_on_c, 6, 74, 105
8, 463470, Note_on_c, 6, 74, 0
8, 463560, Note_on_c, 6, 62, 105
8, 463650, Note_on_c, 6, 62, 0
8, 463680, Note_on_c, 6, 66, 105
8, 464040, Note_on_c, 6, 66, 0
8, 464160, Note_on_c, 6, 69, 105
8, 464430, Note_on_c, 6, 69, 0
8, 464520, Note_on_c, 6, 62, 105
8, 464610, Note_on_c, 6, 62, 0
8, 464640, Note_on_c, 6, 67, 105
8, 464952, Note_on_c, 6, 67, 0
8, 465120, Note_on_c, 6, 63, 105
8, 465432, Note_on_c, 6, 63, 0
8, 465600, Note_on_c, 6, 60, 105
8, 465912, Note_on_c, 6, 60, 0
8, 466080, Note_on_c, 6, 62, 105
8, 466392, Note_on_c, 6, 62, 0
8, 466560, Note_on_c, 6, 55, 105
8, 466920, Note_on_c, 6, 55, 0
8, 467040, Note_on_c, 6, 67, 105
8, 467310, Note_on_c, 6, 67, 0
8, 467400, Note_on_c, 6, 55, 105
8, 467490, Note_on_c, 6, 55, 0
8, 467520, Note_on_c, 6, 59, 105
8, 467880, Note_on_c, 6, 59, 0
8, 468000, Note_on_c, 6, 67, 105
8, 468270, Note_on_c, 6, 67, 0
8, 468360, Note_on_c, 6, 59, 105
8, 468450, Note_on_c, 6, 59, 0
8, 468480, Note_on_c, 6, 60, 105
8, 468840, Note_on_c, 6, 60, 0
8, 468960, Note_on_c, 6, 67, 105
8, 469230, Note_on_c, 6, 67, 0
8, 469320, Note_on_c, 6, 60, 105
8, 469410, Note_on_c, 6, 60, 0
8, 469440, Note_on_c, 6, 64, 105
8, 469800, Note_on_c, 6, 64, 0
8, 469920, Note_on_c, 6, 67, 105
8, 470190, Note_on_c, 6, 67, 0
8, 470280, Note_on_c, 6, 64, 105
8, 470370, Note_on_c, 6, 64, 0
8, 470400, Note_on_c, 6, 66, 105
8, 470760, Note_on_c, 6, 66, 0
8, 470880, Note_on_c, 6, 69, 105
8, 471150, Note_on_c, 6, 69, 0
8, 471240, Note_on_c, 6, 66, 105
8, 471330, Note_on_c, 6, 66, 0
8, 471360, Note_on_c, 6, 62, 105
8, 471720, Note_on_c, 6, 62, 0
8, 471840, Note_on_c, 6, 66, 105
8, 472110, Note_on_c, 6, 66, 0
8, 472200, Note_on_c, 6, 62, 105
8, 472290, Note_on_c, 6, 62, 0
8, 472320, Note_on_c, 6, 63, 105
8, 472608, Note_on_c, 6, 63, 0
8, 472800, Note_on_c, 6, 58, 105
8, 473088, Note_on_c, 6, 58, 0
8, 473280, Note_on_c, 6, 60, 105
8, 473568, Note_on_c, 6, 60, 0
8, 473760, Note_on_c, 6, 62, 105
8, 474048, Note_on_c, 6, 62, 0
8, 474240, Note_on_c, 6, 55, 105
8, 474528, Note_on_c, 6, 55, 0
8, 474720, Note_on_c, 6, 55, 105
8, 475008, Note_on_c, 6, 55, 0
8, 475200, Note_on_c, 6, 70, 92
8, 475776, Note_on_c, 6, 70, 0
8, 475920, Note_on_c, 6, 69, 92
8, 476112, Note_on_c, 6, 69, 0
8, 476160, Note_on_c, 6, 67, 92
8, 476736, Note_on_c, 6, 67, 0
8, 476880, Note_on_c, 6, 65, 92
8, 477072, Note_on_c, 6, 65, 0
8, 477120, Note_on_c, 6, 63, 92
8, 477696, Note_on_c, 6, 63, 0
8, 477840, Note_on_c, 6, 62, 92
8, 478032, Note_on_c, 6, 62, 0
8, 478080, Note_on_c, 6, 60, 92
8, 478440, Note_on_c, 6, 60, 0
8, 478560, Note_on_c, 6, 60, 92
8, 478740, Note_on_c, 6, 60, 0
8, 478800, Note_on_c, 6, 58, 105
8, 478980, Note_on_c, 6, 58, 0
8, 479040, Note_on_c, 6, 57, 105
8, 479220, Note_on_c, 6, 57, 0
8, 479280, Note_on_c, 6, 55, 105
8, 479460, Note_on_c, 6, 55, 0
8, 479520, Note_on_c, 6, 54, 105
8, 479700, Note_on_c, 6, 54, 0
8, 479760, Note_on_c, 6, 55, 105
8, 479940, Note_on_c, 6, 55, 0
8, 480000, Note_on_c, 6, 54, 105
8, 480360, Note_on_c, 6, 54, 0
8, 480480, Note_on_c, 6, 60, 105
8, 480660, Note_on_c, 6, 60, 0
8, 480720, Note_on_c, 6, 58, 105
8, 480900, Note_on_c, 6, 58, 0
8, 480960, Note_on_c, 6, 57, 105
8, 481140, Note_on_c, 6, 57, 0
8, 481200, Note_on_c, 6, 55, 105
8, 481380, Note_on_c, 6, 55, 0
8, 481440, Note_on_c, 6, 54, 105
8, 481620, Note_on_c, 6, 54, 0
8, 481680, Note_on_c, 6, 55, 105
8, 481860, Note_on_c, 6, 55, 0
8, 481920, Note_on_c, 6, 54, 105
8, 482280, Note_on_c, 6, 54, 0
8, 482400, Note_on_c, 6, 60, 105
8, 482580, Note_on_c, 6, 60, 0
8, 482640, Note_on_c, 6, 58, 105
8, 482820, Note_on_c, 6, 58, 0
8, 482880, Note_on_c, 6, 57, 105
8, 483060, Note_on_c, 6, 57, 0
8, 483120, Note_on_c, 6, 55, 105
8, 483300, Note_on_c, 6, 55, 0
8, 483360, Note_on_c, 6, 54, 105
8, 483540, Note_on_c, 6, 54, 0
8, 483600, Note_on_c, 6, 55, 105
8, 483780, Note_on_c, 6, 55, 0
8, 483840, Note_on_c, 6, 54, 105
8, 484128, Note_on_c, 6, 54, 0
8, 484320, Note_on_c, 6, 55, 105
8, 484608, Note_on_c, 6, 55, 0
8, 484800, Note_on_c, 6, 60, 105
8, 485088, Note_on_c, 6, 60, 0
8, 485280, Note_on_c, 6, 62, 105
8, 485568, Note_on_c, 6, 62, 0
8, 485760, Note_on_c, 6, 55, 105
8, 486144, Note_on_c, 6, 55, 0
8, 487680, Note_on_c, 6, 50, 70
8, 488064, Note_on_c, 6, 50, 0
8, 489600, Note_on_c, 6, 50, 70
8, 489984, Note_on_c, 6, 50, 0
8, 490080, Note_on_c, 6, 72, 105
8, 490260, Note_on_c, 6, 72, 0
8, 490320, Note_on_c, 6, 70, 105
8, 490500, Note_on_c, 6, 70, 0
8, 490560, Note_on_c, 6, 69, 105
8, 490740, Note_on_c, 6, 69, 0
8, 490800, Note_on_c, 6, 67, 105
8, 490980, Note_on_c, 6, 67, 0
8, 491040, Note_on_c, 6, 66, 105
8, 491220, Note_on_c, 6, 66, 0
8, 491280, Note_on_c, 6, 67, 105
8, 491460, Note_on_c, 6, 67, 0
8, 491520, Note_on_c, 6, 66, 105
8, 491808, Note_on_c, 6, 66, 0
8, 492000, Note_on_c, 6, 67, 105
8, 492288, Note_on_c, 6, 67, 0
8, 492480, Note_on_c, 6, 60, 105
8, 492768, Note_on_c, 6, 60, 0
8, 492960, Note_on_c, 6, 62, 105
8, 493248, Note_on_c, 6, 62, 0
8, 493440, Note_on_c, 6, 55, 105
8, 493728, Note_on_c, 6, 55, 0
8, 493920, Note_on_c, 6, 55, 105
8, 494208, Note_on_c, 6, 55, 0
8, 494400, Note_on_c, 6, 70, 105
8, 494976, Note_on_c, 6, 70, 0
8, 495120, Note_on_c, 6, 69, 105
8, 495312, Note_on_c, 6, 69, 0
8, 495360, Note_on_c, 6, 67, 105
8, 495648, Note_on_c, 6, 67, 0
8, 495840, Note_on_c, 6, 55, 105
8, 496128, Note_on_c, 6, 55, 0
8, 496320, Note_on_c, 6, 70, 105
8, 496896, Note_on_c, 6, 70, 0
8, 497040, Note_on_c, 6, 69, 105
8, 497232, Note_on_c, 6, 69, 0
8, 497280, Note_on_c, 6, 67, 105
8, 498048, Note_on_c, 6, 67, 0
8, 504960, Note_on_c, 6, 67, 105
8, 505344, Note_on_c, 6, 67, 0
8, 505440, Note_on_c, 6, 68, 105
8, 505632, Note_on_c, 6, 68, 0
8, 505680, Note_on_c, 6, 65, 105
8, 505872, Note_on_c, 6, 65, 0
8, 505920, Note_on_c, 6, 63, 105
8, 506304, Note_on_c, 6, 63, 0
8, 506400, Note_on_c, 6, 65, 105
8, 506592, Note_on_c, 6, 65, 0
8, 506640, Note_on_c, 6, 62, 105
8, 506832, Note_on_c, 6, 62, 0
8, 506880, Note_on_c, 6, 60, 105
8, 507264, Note_on_c, 6, 60, 0
8, 507360, Note_on_c, 6, 62, 105
8, 507552, Note_on_c, 6, 62, 0
8, 507600, Note_on_c, 6, 58, 105
8, 507792, Note_on_c, 6, 58, 0
8, 507840, Note_on_c, 6, 57, 105
8, 508224, Note_on_c, 6, 57, 0
8, 508320, Note_on_c, 6, 58, 105
8, 508512, Note_on_c, 6, 58, 0
8, 508560, Note_on_c, 6, 55, 105
8, 508752, Note_on_c, 6, 55, 0
8, 508800, Note_on_c, 6, 61, 105
8, 509184, Note_on_c, 6, 61, 0
8, 510720, Note_on_c, 6, 70, 105
8, 511032, Note_on_c, 6, 70, 0
8, 511200, Note_on_c, 6, 67, 105
8, 511512, Note_on_c, 6, 67, 0
8, 511680, Note_on_c, 6, 64, 105
8, 511992, Note_on_c, 6, 64, 0
8, 512160, Note_on_c, 6, 61, 105
8, 512472, Note_on_c, 6, 61, 0
8, 512640, Note_on_c, 6, 62, 105
8, 512952, Note_on_c, 6, 62, 0
8, 514080, Note_on_c, 6, 63, 105
8, 514272, Note_on_c, 6, 63, 0
8, 514320, Note_on_c, 6, 62, 105
8, 514512, Note_on_c, 6, 62, 0
8, 514560, Note_on_c, 6, 63, 105
8, 514944, Note_on_c, 6, 63, 0
8, 516000, Note_on_c, 6, 62, 105
8, 516192, Note_on_c, 6, 62, 0
8, 516240, Note_on_c, 6, 61, 105
8, 516432, Note_on_c, 6, 61, 0
8, 516480, Note_on_c, 6, 62, 105
8, 517248, Note_on_c, 6, 62, 0
8, 517440, Note_on_c, 6, 62, 105
8, 518208, Note_on_c, 6, 62, 0
8, 518400, Note_on_c, 6, 55, 105
8, 518400, Note_on_c, 6, 62, 105
8, 519360, Note_on_c, 6, 62, 0
8, 519360, Note_on_c, 6, 55, 0
8, 519360, End_track
9, 0, Start_track
9, 0, Program_c, 7, 48
9, 0, Control_c, 7, 7, 127
9, 0, Control_c, 7, 10, 93
9, 0, Control_c, 7, 91, 85
9, 1920, Note_on_c, 7, 55, 58
9, 2232, Note_on_c, 7, 55, 0
9, 2400, Note_on_c, 7, 50, 58
9, 2712, Note_on_c, 7, 50, 0
9, 2880, Note_on_c, 7, 58, 58
9, 3420, Note_on_c, 7, 58, 0
9, 3600, Note_on_c, 7, 57, 58
9, 3756, Note_on_c, 7, 57, 0
9, 3840, Note_on_c, 7, 55, 58
9, 4152, Note_on_c, 7, 55, 0
9, 4320, Note_on_c, 7, 58, 58
9, 4800, Note_on_c, 7, 58, 0
9, 4800, Note_on_c, 7, 57, 58
9, 5280, Note_on_c, 7, 57, 0
9, 5280, Note_on_c, 7, 55, 58
9, 5736, Note_on_c, 7, 55, 0
9, 5760, Note_on_c, 7, 54, 58
9, 6072, Note_on_c, 7, 54, 0
9, 6240, Note_on_c, 7, 50, 58
9, 6552, Note_on_c, 7, 50, 0
9, 6720, Note_on_c, 7, 60, 58
9, 7260, Note_on_c, 7, 60, 0
9, 7440, Note_on_c, 7, 58, 58
9, 7596, Note_on_c, 7, 58, 0
9, 7680, Note_on_c, 7, 57, 58
9, 7992, Note_on_c, 7, 57, 0
9, 8160, Note_on_c, 7, 60, 58
9, 8640, Note_on_c, 7, 60, 0
9, 8640, Note_on_c, 7, 58, 58
9, 9120, Note_on_c, 7, 58, 0
9, 9120, Note_on_c, 7, 57, 58
9, 9576, Note_on_c, 7, 57, 0
9, 9600, Note_on_c, 7, 55, 58
9, 9912, Note_on_c, 7, 55, 0
9, 10080, Note_on_c, 7, 58, 58
9, 10392, Note_on_c, 7, 58, 0
9, 10560, Note_on_c, 7, 63, 58
9, 11064, Note_on_c, 7, 63, 0
9, 11280, Note_on_c, 7, 62, 58
9, 11436, Note_on_c, 7, 62, 0
9, 11520, Note_on_c, 7, 60, 58
9, 11832, Note_on_c, 7, 60, 0
9, 12000, Note_on_c, 7, 57, 58
9, 12312, Note_on_c, 7, 57, 0
9, 12480, Note_on_c, 7, 62, 58
9, 12984, Note_on_c, 7, 62, 0
9, 13200, Note_on_c, 7, 60, 58
9, 13356, Note_on_c, 7, 60, 0
9, 13440, Note_on_c, 7, 58, 58
9, 13752, Note_on_c, 7, 58, 0
9, 13920, Note_on_c, 7, 55, 58
9, 14232, Note_on_c, 7, 55, 0
9, 14400, Note_on_c, 7, 51, 58
9, 14712, Note_on_c, 7, 51, 0
9, 14880, Note_on_c, 7, 49, 58
9, 15192, Note_on_c, 7, 49, 0
9, 15360, Note_on_c, 7, 50, 58
9, 15672, Note_on_c, 7, 50, 0
9, 15840, Note_on_c, 7, 60, 58
9, 16320, Note_on_c, 7, 60, 0
9, 16320, Note_on_c, 7, 58, 58
9, 16800, Note_on_c, 7, 58, 0
9, 16800, Note_on_c, 7, 57, 58
9, 17112, Note_on_c, 7, 57, 0
9, 17280, Note_on_c, 7, 55, 105
9, 17592, Note_on_c, 7, 55, 0
9, 17760, Note_on_c, 7, 50, 105
9, 18072, Note_on_c, 7, 50, 0
9, 18240, Note_on_c, 7, 58, 105
9, 18816, Note_on_c, 7, 58, 0
9, 18960, Note_on_c, 7, 57, 105
9, 19116, Note_on_c, 7, 57, 0
9, 19200, Note_on_c, 7, 55, 105
9, 19512, Note_on_c, 7, 55, 0
9, 19680, Note_on_c, 7, 58, 105
9, 20160, Note_on_c, 7, 58, 0
9, 20160, Note_on_c, 7, 57, 105
9, 20640, Note_on_c, 7, 57, 0
9, 20640, Note_on_c, 7, 55, 105
9, 21120, Note_on_c, 7, 55, 0
9, 21120, Note_on_c, 7, 54, 105
9, 21432, Note_on_c, 7, 54, 0
9, 21600, Note_on_c, 7, 50, 105
9, 21912, Note_on_c, 7, 50, 0
9, 22080, Note_on_c, 7, 60, 105
9, 22656, Note_on_c, 7, 60, 0
9, 22800, Note_on_c, 7, 58, 105
9, 22956, Note_on_c, 7, 58, 0
9, 23040, Note_on_c, 7, 57, 105
9, 23352, Note_on_c, 7, 57, 0
9, 23520, Note_on_c, 7, 60, 105
9, 24000, Note_on_c, 7, 60, 0
9, 24000, Note_on_c, 7, 58, 105
9, 24480, Note_on_c, 7, 58, 0
9, 24480, Note_on_c, 7, 57, 105
9, 24960, Note_on_c, 7, 57, 0
9, 24960, Note_on_c, 7, 55, 105
9, 25272, Note_on_c, 7, 55, 0
9, 25440, Note_on_c, 7, 58, 105
9, 25752, Note_on_c, 7, 58, 0
9, 25920, Note_on_c, 7, 63, 105
9, 26496, Note_on_c, 7, 63, 0
9, 26640, Note_on_c, 7, 62, 105
9, 26796, Note_on_c, 7, 62, 0
9, 26880, Note_on_c, 7, 60, 105
9, 27192, Note_on_c, 7, 60, 0
9, 27360, Note_on_c, 7, 57, 105
9, 27672, Note_on_c, 7, 57, 0
9, 27840, Note_on_c, 7, 62, 105
9, 28560, Note_on_c, 7, 62, 0
9, 28560, Note_on_c, 7, 60, 105
9, 28752, Note_on_c, 7, 60, 0
9, 28800, Note_on_c, 7, 58, 105
9, 29112, Note_on_c, 7, 58, 0
9, 29280, Note_on_c, 7, 51, 105
9, 29592, Note_on_c, 7, 51, 0
9, 29760, Note_on_c, 7, 48, 105
9, 30072, Note_on_c, 7, 48, 0
9, 30240, Note_on_c, 7, 50, 105
9, 30552, Note_on_c, 7, 50, 0
9, 30720, Note_on_c, 7, 43, 105
9, 31488, Note_on_c, 7, 43, 0
9, 33600, Note_on_c, 7, 57, 58
9, 34368, Note_on_c, 7, 57, 0
9, 34560, Note_on_c, 7, 57, 58
9, 35520, Note_on_c, 7, 57, 0
9, 35520, Note_on_c, 7, 58, 58
9, 35904, Note_on_c, 7, 58, 0
9, 37920, Note_on_c, 7, 51, 58
9, 38304, Note_on_c, 7, 51, 0
9, 38400, Note_on_c, 7, 53, 58
9, 39360, Note_on_c, 7, 53, 0
9, 39360, Note_on_c, 7, 53, 58
9, 39744, Note_on_c, 7, 53, 0
9, 41280, Note_on_c, 7, 45, 58
9, 42048, Note_on_c, 7, 45, 0
9, 42240, Note_on_c, 7, 45, 58
9, 43200, Note_on_c, 7, 45, 0
9, 43200, Note_on_c, 7, 46, 58
9, 43584, Note_on_c, 7, 46, 0
9, 43680, Note_on_c, 7, 55, 58
9, 44544, Note_on_c, 7, 55, 0
9, 44640, Note_on_c, 7, 50, 58
9, 45600, Note_on_c, 7, 50, 0
9, 45600, Note_on_c, 7, 51, 58
9, 45984, Note_on_c, 7, 51, 0
9, 46080, Note_on_c, 7, 53, 58
9, 47424, Note_on_c, 7, 53, 0
9, 50880, Note_on_c, 7, 63, 105
9, 51036, Note_on_c, 7, 63, 0
9, 51120, Note_on_c, 7, 62, 105
9, 51276, Note_on_c, 7, 62, 0
9, 51360, Note_on_c, 7, 60, 105
9, 51516, Note_on_c, 7, 60, 0
9, 51600, Note_on_c, 7, 58, 105
9, 51756, Note_on_c, 7, 58, 0
9, 51840, Note_on_c, 7, 57, 105
9, 52080, Note_on_c, 7, 57, 0
9, 52080, Note_on_c, 7, 58, 105
9, 52236, Note_on_c, 7, 58, 0
9, 52320, Note_on_c, 7, 57, 105
9, 52476, Note_on_c, 7, 57, 0
9, 52560, Note_on_c, 7, 55, 105
9, 52716, Note_on_c, 7, 55, 0
9, 52800, Note_on_c, 7, 53, 105
9, 52956, Note_on_c, 7, 53, 0
9, 53040, Note_on_c, 7, 51, 105
9, 53196, Note_on_c, 7, 51, 0
9, 53280, Note_on_c, 7, 50, 105
9, 53436, Note_on_c, 7, 50, 0
9, 53520, Note_on_c, 7, 48, 105
9, 53676, Note_on_c, 7, 48, 0
9, 53760, Note_on_c, 7, 46, 105
9, 54144, Note_on_c, 7, 46, 0
9, 54720, Note_on_c, 7, 58, 105
9, 55296, Note_on_c, 7, 58, 0
9, 55440, Note_on_c, 7, 57, 105
9, 55632, Note_on_c, 7, 57, 0
9, 55680, Note_on_c, 7, 55, 105
9, 55920, Note_on_c, 7, 55, 0
9, 56160, Note_on_c, 7, 57, 105
9, 56400, Note_on_c, 7, 57, 0
9, 56640, Note_on_c, 7, 55, 105
9, 57216, Note_on_c, 7, 55, 0
9, 57360, Note_on_c, 7, 53, 105
9, 57552, Note_on_c, 7, 53, 0
9, 57600, Note_on_c, 7, 52, 105
9, 57840, Note_on_c, 7, 52, 0
9, 58080, Note_on_c, 7, 53, 105
9, 58320, Note_on_c, 7, 53, 0
9, 58560, Note_on_c, 7, 51, 105
9, 59136, Note_on_c, 7, 51, 0
9, 59280, Note_on_c, 7, 50, 105
9, 59472, Note_on_c, 7, 50, 0
9, 59520, Note_on_c, 7, 48, 105
9, 59760, Note_on_c, 7, 48, 0
9, 60000, Note_on_c, 7, 50, 105
9, 60240, Note_on_c, 7, 50, 0
9, 60480, Note_on_c, 7, 60, 105
9, 60720, Note_on_c, 7, 60, 0
9, 60720, Note_on_c, 7, 62, 105
9, 60960, Note_on_c, 7, 62, 0
9, 60960, Note_on_c, 7, 63, 105
9, 61152, Note_on_c, 7, 63, 0
9, 61200, Note_on_c, 7, 62, 105
9, 61344, Note_on_c, 7, 62, 0
9, 61440, Note_on_c, 7, 60, 105
9, 61584, Note_on_c, 7, 60, 0
9, 61680, Note_on_c, 7, 58, 105
9, 61824, Note_on_c, 7, 58, 0
9, 61920, Note_on_c, 7, 57, 105
9, 62064, Note_on_c, 7, 57, 0
9, 62160, Note_on_c, 7, 55, 105
9, 62304, Note_on_c, 7, 55, 0
9, 62400, Note_on_c, 7, 53, 105
9, 62640, Note_on_c, 7, 53, 0
9, 62640, Note_on_c, 7, 55, 105
9, 62880, Note_on_c, 7, 55, 0
9, 62880, Note_on_c, 7, 57, 105
9, 63120, Note_on_c, 7, 57, 0
9, 63120, Note_on_c, 7, 53, 105
9, 63312, Note_on_c, 7, 53, 0
9, 63360, Note_on_c, 7, 58, 105
9, 63552, Note_on_c, 7, 58, 0
9, 63600, Note_on_c, 7, 57, 105
9, 63792, Note_on_c, 7, 57, 0
9, 63840, Note_on_c, 7, 55, 105
9, 64032, Note_on_c, 7, 55, 0
9, 64080, Note_on_c, 7, 53, 105
9, 64272, Note_on_c, 7, 53, 0
9, 64320, Note_on_c, 7, 51, 105
9, 64512, Note_on_c, 7, 51, 0
9, 64560, Note_on_c, 7, 50, 105
9, 64752, Note_on_c, 7, 50, 0
9, 64800, Note_on_c, 7, 48, 105
9, 64992, Note_on_c, 7, 48, 0
9, 65040, Note_on_c, 7, 46, 105
9, 65232, Note_on_c, 7, 46, 0
9, 65280, Note_on_c, 7, 51, 105
9, 65592, Note_on_c, 7, 51, 0
9, 65760, Note_on_c, 7, 51, 105
9, 66072, Note_on_c, 7, 51, 0
9, 66240, Note_on_c, 7, 53, 105
9, 66552, Note_on_c, 7, 53, 0
9, 66720, Note_on_c, 7, 41, 105
9, 67032, Note_on_c, 7, 41, 0
9, 67200, Note_on_c, 7, 46, 105
9, 67512, Note_on_c, 7, 46, 0
9, 67680, Note_on_c, 7, 53, 105
9, 67992, Note_on_c, 7, 53, 0
9, 68160, Note_on_c, 7, 62, 105
9, 68736, Note_on_c, 7, 62, 0
9, 68880, Note_on_c, 7, 60, 105
9, 69072, Note_on_c, 7, 60, 0
9, 69120, Note_on_c, 7, 58, 105
9, 69408, Note_on_c, 7, 58, 0
9, 69600, Note_on_c, 7, 53, 105
9, 69888, Note_on_c, 7, 53, 0
9, 70080, Note_on_c, 7, 50, 105
9, 70368, Note_on_c, 7, 50, 0
9, 70560, Note_on_c, 7, 46, 105
9, 70848, Note_on_c, 7, 46, 0
9, 71040, Note_on_c, 7, 53, 92
9, 71352, Note_on_c, 7, 53, 0
9, 78720, Note_on_c, 7, 46, 70
9, 79488, Note_on_c, 7, 46, 0
9, 80640, Note_on_c, 7, 53, 70
9, 81408, Note_on_c, 7, 53, 0
9, 82560, Note_on_c, 7, 58, 70
9, 84480, Note_on_c, 7, 58, 0
9, 84480, Note_on_c, 7, 53, 70
9, 86304, Note_on_c, 7, 53, 0
9, 86400, Note_on_c, 7, 50, 70
9, 87168, Note_on_c, 7, 50, 0
9, 88320, Note_on_c, 7, 53, 70
9, 89088, Note_on_c, 7, 53, 0
9, 90240, Note_on_c, 7, 58, 70
9, 92160, Note_on_c, 7, 58, 0
9, 92160, Note_on_c, 7, 53, 70
9, 93984, Note_on_c, 7, 53, 0
9, 94080, Note_on_c, 7, 46, 105
9, 94392, Note_on_c, 7, 46, 0
9, 94560, Note_on_c, 7, 53, 105
9, 94872, Note_on_c, 7, 53, 0
9, 95040, Note_on_c, 7, 62, 105
9, 95616, Note_on_c, 7, 62, 0
9, 95760, Note_on_c, 7, 60, 105
9, 95952, Note_on_c, 7, 60, 0
9, 96000, Note_on_c, 7, 58, 105
9, 96312, Note_on_c, 7, 58, 0
9, 96480, Note_on_c, 7, 53, 105
9, 96792, Note_on_c, 7, 53, 0
9, 96960, Note_on_c, 7, 62, 105
9, 97272, Note_on_c, 7, 62, 0
9, 97440, Note_on_c, 7, 58, 105
9, 97752, Note_on_c, 7, 58, 0
9, 97920, Note_on_c, 7, 60, 105
9, 98232, Note_on_c, 7, 60, 0
9, 98400, Note_on_c, 7, 53, 105
9, 98712, Note_on_c, 7, 53, 0
9, 98880, Note_on_c, 7, 63, 105
9, 99456, Note_on_c, 7, 63, 0
9, 99600, Note_on_c, 7, 62, 105
9, 99792, Note_on_c, 7, 62, 0
9, 99840, Note_on_c, 7, 60, 105
9, 100152, Note_on_c, 7, 60, 0
9, 100320, Note_on_c, 7, 53, 105
9, 100632, Note_on_c, 7, 53, 0
9, 100800, Note_on_c, 7, 63, 105
9, 101112, Note_on_c, 7, 63, 0
9, 101280, Note_on_c, 7, 60, 105
9, 101592, Note_on_c, 7, 60, 0
9, 101760, Note_on_c, 7, 58, 105
9, 102072, Note_on_c, 7, 58, 0
9, 102240, Note_on_c, 7, 62, 105
9, 102474, Note_on_c, 7, 62, 0
9, 102600, Note_on_c, 7, 58, 105
9, 102678, Note_on_c, 7, 58, 0
9, 102720, Note_on_c, 7, 50, 105
9, 103032, Note_on_c, 7, 50, 0
9, 103200, Note_on_c, 7, 58, 105
9, 103434, Note_on_c, 7, 58, 0
9, 103560, Note_on_c, 7, 50, 105
9, 103638, Note_on_c, 7, 50, 0
9, 103680, Note_on_c, 7, 51, 105
9, 103992, Note_on_c, 7, 51, 0
9, 104160, Note_on_c, 7, 58, 105
9, 104394, Note_on_c, 7, 58, 0
9, 104520, Note_on_c, 7, 51, 105
9, 104598, Note_on_c, 7, 51, 0
9, 104640, Note_on_c, 7, 55, 105
9, 104952, Note_on_c, 7, 55, 0
9, 105120, Note_on_c, 7, 58, 105
9, 105354, Note_on_c, 7, 58, 0
9, 105480, Note_on_c, 7, 55, 105
9, 105558, Note_on_c, 7, 55, 0
9, 105600, Note_on_c, 7, 57, 105
9, 105912, Note_on_c, 7, 57, 0
9, 106080, Note_on_c, 7, 60, 105
9, 106314, Note_on_c, 7, 60, 0
9, 106440, Note_on_c, 7, 57, 105
9, 106518, Note_on_c, 7, 57, 0
9, 106560, Note_on_c, 7, 53, 105
9, 106872, Note_on_c, 7, 53, 0
9, 107040, Note_on_c, 7, 57, 105
9, 107274, Note_on_c, 7, 57, 0
9, 107400, Note_on_c, 7, 53, 105
9, 107478, Note_on_c, 7, 53, 0
9, 107520, Note_on_c, 7, 55, 105
9, 107832, Note_on_c, 7, 55, 0
9, 108000, Note_on_c, 7, 50, 105
9, 108312, Note_on_c, 7, 50, 0
9, 108480, Note_on_c, 7, 51, 105
9, 108792, Note_on_c, 7, 51, 0
9, 108960, Note_on_c, 7, 53, 105
9, 109272, Note_on_c, 7, 53, 0
9, 109440, Note_on_c, 7, 58, 105
9, 109752, Note_on_c, 7, 58, 0
9, 109920, Note_on_c, 7, 62, 105
9, 110154, Note_on_c, 7, 62, 0
9, 110280, Note_on_c, 7, 58, 105
9, 110358, Note_on_c, 7, 58, 0
9, 110400, Note_on_c, 7, 50, 105
9, 110712, Note_on_c, 7, 50, 0
9, 110880, Note_on_c, 7, 58, 105
9, 111114, Note_on_c, 7, 58, 0
9, 111240, Note_on_c, 7, 50, 105
9, 111318, Note_on_c, 7, 50, 0
9, 111360, Note_on_c, 7, 51, 105
9, 111672, Note_on_c, 7, 51, 0
9, 111840, Note_on_c, 7, 58, 105
9, 112074, Note_on_c, 7, 58, 0
9, 112200, Note_on_c, 7, 51, 105
9, 112278, Note_on_c, 7, 51, 0
9, 112320, Note_on_c, 7, 55, 105
9, 112632, Note_on_c, 7, 55, 0
9, 112800, Note_on_c, 7, 58, 105
9, 113034, Note_on_c, 7, 58, 0
9, 113160, Note_on_c, 7, 55, 105
9, 113238, Note_on_c, 7, 55, 0
9, 113280, Note_on_c, 7, 57, 105
9, 113592, Note_on_c, 7, 57, 0
9, 113760, Note_on_c, 7, 60, 105
9, 113994, Note_on_c, 7, 60, 0
9, 114120, Note_on_c, 7, 57, 105
9, 114198, Note_on_c, 7, 57, 0
9, 114240, Note_on_c, 7, 53, 105
9, 114552, Note_on_c, 7, 53, 0
9, 114720, Note_on_c, 7, 57, 105
9, 114954, Note_on_c, 7, 57, 0
9, 115080, Note_on_c, 7, 53, 105
9, 115158, Note_on_c, 7, 53, 0
9, 115200, Note_on_c, 7, 55, 105
9, 115512, Note_on_c, 7, 55, 0
9, 115680, Note_on_c, 7, 50, 105
9, 115992, Note_on_c, 7, 50, 0
9, 116160, Note_on_c, 7, 51, 105
9, 116472, Note_on_c, 7, 51, 0
9, 116640, Note_on_c, 7, 53, 105
9, 116952, Note_on_c, 7, 53, 0
9, 117120, Note_on_c, 7, 58, 105
9, 117432, Note_on_c, 7, 58, 0
9, 117600, Note_on_c, 7, 46, 105
9, 117912, Note_on_c, 7, 46, 0
9, 118080, Note_on_c, 7, 62, 105
9, 118656, Note_on_c, 7, 62, 0
9, 118800, Note_on_c, 7, 60, 105
9, 118992, Note_on_c, 7, 60, 0
9, 119040, Note_on_c, 7, 58, 105
9, 119616, Note_on_c, 7, 58, 0
9, 119760, Note_on_c, 7, 57, 105
9, 119952, Note_on_c, 7, 57, 0
9, 120000, Note_on_c, 7, 55, 105
9, 120576, Note_on_c, 7, 55, 0
9, 120720, Note_on_c, 7, 53, 105
9, 120912, Note_on_c, 7, 53, 0
9, 120960, Note_on_c, 7, 51, 105
9, 121344, Note_on_c, 7, 51, 0
9, 121440, Note_on_c, 7, 63, 92
9, 121632, Note_on_c, 7, 63, 0
9, 121680, Note_on_c, 7, 62, 92
9, 121872, Note_on_c, 7, 62, 0
9, 121920, Note_on_c, 7, 60, 92
9, 122112, Note_on_c, 7, 60, 0
9, 122160, Note_on_c, 7, 58, 92
9, 122352, Note_on_c, 7, 58, 0
9, 122400, Note_on_c, 7, 57, 92
9, 122592, Note_on_c, 7, 57, 0
9, 122640, Note_on_c, 7, 58, 92
9, 122832, Note_on_c, 7, 58, 0
9, 122880, Note_on_c, 7, 57, 92
9, 123264, Note_on_c, 7, 57, 0
9, 123360, Note_on_c, 7, 63, 92
9, 123552, Note_on_c, 7, 63, 0
9, 123600, Note_on_c, 7, 62, 92
9, 123792, Note_on_c, 7, 62, 0
9, 123840, Note_on_c, 7, 60, 92
9, 124032, Note_on_c, 7, 60, 0
9, 124080, Note_on_c, 7, 58, 92
9, 124272, Note_on_c, 7, 58, 0
9, 124320, Note_on_c, 7, 57, 92
9, 124512, Note_on_c, 7, 57, 0
9, 124560, Note_on_c, 7, 58, 92
9, 124752, Note_on_c, 7, 58, 0
9, 124800, Note_on_c, 7, 57, 92
9, 125184, Note_on_c, 7, 57, 0
9, 125280, Note_on_c, 7, 63, 92
9, 125472, Note_on_c, 7, 63, 0
9, 125520, Note_on_c, 7, 62, 92
9, 125712, Note_on_c, 7, 62, 0
9, 125760, Note_on_c, 7, 60, 92
9, 125952, Note_on_c, 7, 60, 0
9, 126000, Note_on_c, 7, 58, 92
9, 126192, Note_on_c, 7, 58, 0
9, 126240, Note_on_c, 7, 57, 92
9, 126432, Note_on_c, 7, 57, 0
9, 126480, Note_on_c, 7, 58, 92
9, 126672, Note_on_c, 7, 58, 0
9, 126720, Note_on_c, 7, 57, 92
9, 127032, Note_on_c, 7, 57, 0
9, 127200, Note_on_c, 7, 58, 92
9, 127512, Note_on_c, 7, 58, 0
9, 127680, Note_on_c, 7, 51, 92
9, 127992, Note_on_c, 7, 51, 0
9, 128160, Note_on_c, 7, 53, 92
9, 128472, Note_on_c, 7, 53, 0
9, 128640, Note_on_c, 7, 46, 110
9, 129024, Note_on_c, 7, 46, 0
9, 129120, Note_on_c, 7, 51, 58
9, 129312, Note_on_c, 7, 51, 0
9, 129360, Note_on_c, 7, 50, 58
9, 129552, Note_on_c, 7, 50, 0
9, 129600, Note_on_c, 7, 48, 58
9, 129792, Note_on_c, 7, 48, 0
9, 129840, Note_on_c, 7, 46, 58
9, 130032, Note_on_c, 7, 46, 0
9, 130080, Note_on_c, 7, 45, 58
9, 130272, Note_on_c, 7, 45, 0
9, 130320, Note_on_c, 7, 46, 58
9, 130512, Note_on_c, 7, 46, 0
9, 130560, Note_on_c, 7, 45, 58
9, 130944, Note_on_c, 7, 45, 0
9, 131040, Note_on_c, 7, 51, 58
9, 131232, Note_on_c, 7, 51, 0
9, 131280, Note_on_c, 7, 50, 58
9, 131472, Note_on_c, 7, 50, 0
9, 131520, Note_on_c, 7, 48, 58
9, 131712, Note_on_c, 7, 48, 0
9, 131760, Note_on_c, 7, 46, 58
9, 131952, Note_on_c, 7, 46, 0
9, 132000, Note_on_c, 7, 45, 58
9, 132192, Note_on_c, 7, 45, 0
9, 132240, Note_on_c, 7, 46, 58
9, 132432, Note_on_c, 7, 46, 0
9, 132480, Note_on_c, 7, 45, 58
9, 132864, Note_on_c, 7, 45, 0
9, 132960, Note_on_c, 7, 63, 105
9, 133152, Note_on_c, 7, 63, 0
9, 133200, Note_on_c, 7, 62, 105
9, 133392, Note_on_c, 7, 62, 0
9, 133440, Note_on_c, 7, 60, 105
9, 133632, Note_on_c, 7, 60, 0
9, 133680, Note_on_c, 7, 58, 105
9, 133872, Note_on_c, 7, 58, 0
9, 133920, Note_on_c, 7, 57, 105
9, 134112, Note_on_c, 7, 57, 0
9, 134160, Note_on_c, 7, 58, 105
9, 134352, Note_on_c, 7, 58, 0
9, 134400, Note_on_c, 7, 57, 105
9, 134712, Note_on_c, 7, 57, 0
9, 134880, Note_on_c, 7, 58, 105
9, 135192, Note_on_c, 7, 58, 0
9, 135360, Note_on_c, 7, 51, 105
9, 135672, Note_on_c, 7, 51, 0
9, 135840, Note_on_c, 7, 53, 105
9, 136152, Note_on_c, 7, 53, 0
9, 136320, Note_on_c, 7, 46, 105
9, 136632, Note_on_c, 7, 46, 0
9, 136800, Note_on_c, 7, 46, 105
9, 137112, Note_on_c, 7, 46, 0
9, 137280, Note_on_c, 7, 62, 105
9, 137856, Note_on_c, 7, 62, 0
9, 138000, Note_on_c, 7, 60, 105
9, 138192, Note_on_c, 7, 60, 0
9, 138240, Note_on_c, 7, 58, 105
9, 138552, Note_on_c, 7, 58, 0
9, 138720, Note_on_c, 7, 46, 105
9, 139032, Note_on_c, 7, 46, 0
9, 139200, Note_on_c, 7, 62, 105
9, 139776, Note_on_c, 7, 62, 0
9, 139920, Note_on_c, 7, 60, 105
9, 140112, Note_on_c, 7, 60, 0
9, 140160, Note_on_c, 7, 58, 105
9, 140928, Note_on_c, 7, 58, 0
9, 147840, Note_on_c, 7, 55, 58
9, 148152, Note_on_c, 7, 55, 0
9, 148320, Note_on_c, 7, 50, 58
9, 148632, Note_on_c, 7, 50, 0
9, 148800, Note_on_c, 7, 58, 58
9, 149340, Note_on_c, 7, 58, 0
9, 149520, Note_on_c, 7, 57, 58
9, 149676, Note_on_c, 7, 57, 0
9, 149760, Note_on_c, 7, 55, 58
9, 150072, Note_on_c, 7, 55, 0
9, 150240, Note_on_c, 7, 58, 58
9, 150720, Note_on_c, 7, 58, 0
9, 150720, Note_on_c, 7, 57, 58
9, 151200, Note_on_c, 7, 57, 0
9, 151200, Note_on_c, 7, 55, 58
9, 151656, Note_on_c, 7, 55, 0
9, 151680, Note_on_c, 7, 54, 58
9, 151992, Note_on_c, 7, 54, 0
9, 152160, Note_on_c, 7, 50, 58
9, 152472, Note_on_c, 7, 50, 0
9, 152640, Note_on_c, 7, 60, 58
9, 153180, Note_on_c, 7, 60, 0
9, 153360, Note_on_c, 7, 58, 58
9, 153516, Note_on_c, 7, 58, 0
9, 153600, Note_on_c, 7, 57, 58
9, 153912, Note_on_c, 7, 57, 0
9, 154080, Note_on_c, 7, 60, 58
9, 154560, Note_on_c, 7, 60, 0
9, 154560, Note_on_c, 7, 58, 58
9, 155040, Note_on_c, 7, 58, 0
9, 155040, Note_on_c, 7, 57, 58
9, 155496, Note_on_c, 7, 57, 0
9, 155520, Note_on_c, 7, 55, 58
9, 155832, Note_on_c, 7, 55, 0
9, 156000, Note_on_c, 7, 58, 58
9, 156312, Note_on_c, 7, 58, 0
9, 156480, Note_on_c, 7, 63, 58
9, 156984, Note_on_c, 7, 63, 0
9, 157200, Note_on_c, 7, 62, 58
9, 157356, Note_on_c, 7, 62, 0
9, 157440, Note_on_c, 7, 60, 58
9, 157752, Note_on_c, 7, 60, 0
9, 157920, Note_on_c, 7, 57, 58
9, 158232, Note_on_c, 7, 57, 0
9, 158400, Note_on_c, 7, 62, 58
9, 158904, Note_on_c, 7, 62, 0
9, 159120, Note_on_c, 7, 60, 58
9, 159276, Note_on_c, 7, 60, 0
9, 159360, Note_on_c, 7, 58, 58
9, 159672, Note_on_c, 7, 58, 0
9, 159840, Note_on_c, 7, 55, 58
9, 160152, Note_on_c, 7, 55, 0
9, 160320, Note_on_c, 7, 51, 58
9, 160632, Note_on_c, 7, 51, 0
9, 160800, Note_on_c, 7, 49, 58
9, 161112, Note_on_c, 7, 49, 0
9, 161280, Note_on_c, 7, 50, 58
9, 161592, Note_on_c, 7, 50, 0
9, 161760, Note_on_c, 7, 60, 58
9, 162240, Note_on_c, 7, 60, 0
9, 162240, Note_on_c, 7, 58, 58
9, 162720, Note_on_c, 7, 58, 0
9, 162720, Note_on_c, 7, 57, 58
9, 163032, Note_on_c, 7, 57, 0
9, 163200, Note_on_c, 7, 55, 105
9, 163512, Note_on_c, 7, 55, 0
9, 163680, Note_on_c, 7, 50, 105
9, 163992, Note_on_c, 7, 50, 0
9, 164160, Note_on_c, 7, 58, 105
9, 164736, Note_on_c, 7, 58, 0
9, 164880, Note_on_c, 7, 57, 105
9, 165036, Note_on_c, 7, 57, 0
9, 165120, Note_on_c, 7, 55, 105
9, 165432, Note_on_c, 7, 55, 0
9, 165600, Note_on_c, 7, 58, 105
9, 166080, Note_on_c, 7, 58, 0
9, 166080, Note_on_c, 7, 57, 105
9, 166560, Note_on_c, 7, 57, 0
9, 166560, Note_on_c, 7, 55, 105
9, 167040, Note_on_c, 7, 55, 0
9, 167040, Note_on_c, 7, 54, 105
9, 167352, Note_on_c, 7, 54, 0
9, 167520, Note_on_c, 7, 50, 105
9, 167832, Note_on_c, 7, 50, 0
9, 168000, Note_on_c, 7, 60, 105
9, 168576, Note_on_c, 7, 60, 0
9, 168720, Note_on_c, 7, 58, 105
9, 168876, Note_on_c, 7, 58, 0
9, 168960, Note_on_c, 7, 57, 105
9, 169272, Note_on_c, 7, 57, 0
9, 169440, Note_on_c, 7, 60, 105
9, 169920, Note_on_c, 7, 60, 0
9, 169920, Note_on_c, 7, 58, 105
9, 170400, Note_on_c, 7, 58, 0
9, 170400, Note_on_c, 7, 57, 105
9, 170880, Note_on_c, 7, 57, 0
9, 170880, Note_on_c, 7, 55, 105
9, 171192, Note_on_c, 7, 55, 0
9, 171360, Note_on_c, 7, 58, 105
9, 171672, Note_on_c, 7, 58, 0
9, 171840, Note_on_c, 7, 63, 105
9, 172416, Note_on_c, 7, 63, 0
9, 172560, Note_on_c, 7, 62, 105
9, 172716, Note_on_c, 7, 62, 0
9, 172800, Note_on_c, 7, 60, 105
9, 173112, Note_on_c, 7, 60, 0
9, 173280, Note_on_c, 7, 57, 105
9, 173592, Note_on_c, 7, 57, 0
9, 173760, Note_on_c, 7, 62, 105
9, 174480, Note_on_c, 7, 62, 0
9, 174480, Note_on_c, 7, 60, 105
9, 174672, Note_on_c, 7, 60, 0
9, 174720, Note_on_c, 7, 58, 105
9, 175032, Note_on_c, 7, 58, 0
9, 175200, Note_on_c, 7, 51, 105
9, 175512, Note_on_c, 7, 51, 0
9, 175680, Note_on_c, 7, 48, 105
9, 175992, Note_on_c, 7, 48, 0
9, 176160, Note_on_c, 7, 50, 105
9, 176472, Note_on_c, 7, 50, 0
9, 176640, Note_on_c, 7, 43, 105
9, 177408, Note_on_c, 7, 43, 0
9, 179520, Note_on_c, 7, 57, 58
9, 180288, Note_on_c, 7, 57, 0
9, 180480, Note_on_c, 7, 57, 58
9, 181440, Note_on_c, 7, 57, 0
9, 181440, Note_on_c, 7, 58, 58
9, 181824, Note_on_c, 7, 58, 0
9, 183840, Note_on_c, 7, 51, 58
9, 184224, Note_on_c, 7, 51, 0
9, 184320, Note_on_c, 7, 53, 58
9, 185280, Note_on_c, 7, 53, 0
9, 185280, Note_on_c, 7, 53, 58
9, 185664, Note_on_c, 7, 53, 0
9, 187200, Note_on_c, 7, 45, 58
9, 187968, Note_on_c, 7, 45, 0
9, 188160, Note_on_c, 7, 45, 58
9, 189120, Note_on_c, 7, 45, 0
9, 189120, Note_on_c, 7, 46, 58
9, 189504, Note_on_c, 7, 46, 0
9, 189600, Note_on_c, 7, 55, 58
9, 190464, Note_on_c, 7, 55, 0
9, 190560, Note_on_c, 7, 50, 58
9, 191520, Note_on_c, 7, 50, 0
9, 191520, Note_on_c, 7, 51, 58
9, 191904, Note_on_c, 7, 51, 0
9, 192000, Note_on_c, 7, 53, 58
9, 193344, Note_on_c, 7, 53, 0
9, 196800, Note_on_c, 7, 63, 105
9, 196956, Note_on_c, 7, 63, 0
9, 197040, Note_on_c, 7, 62, 105
9, 197196, Note_on_c, 7, 62, 0
9, 197280, Note_on_c, 7, 60, 105
9, 197436, Note_on_c, 7, 60, 0
9, 197520, Note_on_c, 7, 58, 105
9, 197676, Note_on_c, 7, 58, 0
9, 197760, Note_on_c, 7, 57, 105
9, 198000, Note_on_c, 7, 57, 0
9, 198000, Note_on_c, 7, 58, 105
9, 198156, Note_on_c, 7, 58, 0
9, 198240, Note_on_c, 7, 57, 105
9, 198396, Note_on_c, 7, 57, 0
9, 198480, Note_on_c, 7, 55, 105
9, 198636, Note_on_c, 7, 55, 0
9, 198720, Note_on_c, 7, 53, 105
9, 198876, Note_on_c, 7, 53, 0
9, 198960, Note_on_c, 7, 51, 105
9, 199116, Note_on_c, 7, 51, 0
9, 199200, Note_on_c, 7, 50, 105
9, 199356, Note_on_c, 7, 50, 0
9, 199440, Note_on_c, 7, 48, 105
9, 199596, Note_on_c, 7, 48, 0
9, 199680, Note_on_c, 7, 46, 105
9, 200064, Note_on_c, 7, 46, 0
9, 200640, Note_on_c, 7, 58, 105
9, 201216, Note_on_c, 7, 58, 0
9, 201360, Note_on_c, 7, 57, 105
9, 201552, Note_on_c, 7, 57, 0
9, 201600, Note_on_c, 7, 55, 105
9, 201840, Note_on_c, 7, 55, 0
9, 202080, Note_on_c, 7, 57, 105
9, 202320, Note_on_c, 7, 57, 0
9, 202560, Note_on_c, 7, 55, 105
9, 203136, Note_on_c, 7, 55, 0
9, 203280, Note_on_c, 7, 53, 105
9, 203472, Note_on_c, 7, 53, 0
9, 203520, Note_on_c, 7, 52, 105
9, 203760, Note_on_c, 7, 52, 0
9, 204000, Note_on_c, 7, 53, 105
9, 204240, Note_on_c, 7, 53, 0
9, 204480, Note_on_c, 7, 51, 105
9, 205056, Note_on_c, 7, 51, 0
9, 205200, Note_on_c, 7, 50, 105
9, 205392, Note_on_c, 7, 50, 0
9, 205440, Note_on_c, 7, 48, 105
9, 205680, Note_on_c, 7, 48, 0
9, 205920, Note_on_c, 7, 50, 105
9, 206160, Note_on_c, 7, 50, 0
9, 206400, Note_on_c, 7, 60, 105
9, 206640, Note_on_c, 7, 60, 0
9, 206640, Note_on_c, 7, 62, 105
9, 206880, Note_on_c, 7, 62, 0
9, 206880, Note_on_c, 7, 63, 105
9, 207072, Note_on_c, 7, 63, 0
9, 207120, Note_on_c, 7, 62, 105
9, 207264, Note_on_c, 7, 62, 0
9, 207360, Note_on_c, 7, 60, 105
9, 207504, Note_on_c, 7, 60, 0
9, 207600, Note_on_c, 7, 58, 105
9, 207744, Note_on_c, 7, 58, 0
9, 207840, Note_on_c, 7, 57, 105
9, 207984, Note_on_c, 7, 57, 0
9, 208080, Note_on_c, 7, 55, 105
9, 208224, Note_on_c, 7, 55, 0
9, 208320, Note_on_c, 7, 53, 105
9, 208560, Note_on_c, 7, 53, 0
9, 208560, Note_on_c, 7, 55, 105
9, 208800, Note_on_c, 7, 55, 0
9, 208800, Note_on_c, 7, 57, 105
9, 209040, Note_on_c, 7, 57, 0
9, 209040, Note_on_c, 7, 53, 105
9, 209232, Note_on_c, 7, 53, 0
9, 209280, Note_on_c, 7, 58, 105
9, 209472, Note_on_c, 7, 58, 0
9, 209520, Note_on_c, 7, 57, 105
9, 209712, Note_on_c, 7, 57, 0
9, 209760, Note_on_c, 7, 55, 105
9, 209952, Note_on_c, 7, 55, 0
9, 210000, Note_on_c, 7, 53, 105
9, 210192, Note_on_c, 7, 53, 0
9, 210240, Note_on_c, 7, 51, 105
9, 210432, Note_on_c, 7, 51, 0
9, 210480, Note_on_c, 7, 50, 105
9, 210672, Note_on_c, 7, 50, 0
9, 210720, Note_on_c, 7, 48, 105
9, 210912, Note_on_c, 7, 48, 0
9, 210960, Note_on_c, 7, 46, 105
9, 211152, Note_on_c, 7, 46, 0
9, 211200, Note_on_c, 7, 51, 105
9, 211512, Note_on_c, 7, 51, 0
9, 211680, Note_on_c, 7, 51, 105
9, 211992, Note_on_c, 7, 51, 0
9, 212160, Note_on_c, 7, 53, 105
9, 212472, Note_on_c, 7, 53, 0
9, 212640, Note_on_c, 7, 41, 105
9, 212952, Note_on_c, 7, 41, 0
9, 213120, Note_on_c, 7, 46, 105
9, 213432, Note_on_c, 7, 46, 0
9, 213600, Note_on_c, 7, 53, 105
9, 213912, Note_on_c, 7, 53, 0
9, 214080, Note_on_c, 7, 62, 105
9, 214656, Note_on_c, 7, 62, 0
9, 214800, Note_on_c, 7, 60, 105
9, 214992, Note_on_c, 7, 60, 0
9, 215040, Note_on_c, 7, 58, 105
9, 215328, Note_on_c, 7, 58, 0
9, 215520, Note_on_c, 7, 53, 105
9, 215808, Note_on_c, 7, 53, 0
9, 216000, Note_on_c, 7, 50, 105
9, 216288, Note_on_c, 7, 50, 0
9, 216480, Note_on_c, 7, 46, 105
9, 216768, Note_on_c, 7, 46, 0
9, 216960, Note_on_c, 7, 53, 92
9, 217272, Note_on_c, 7, 53, 0
9, 224640, Note_on_c, 7, 46, 70
9, 225408, Note_on_c, 7, 46, 0
9, 226560, Note_on_c, 7, 53, 70
9, 227328, Note_on_c, 7, 53, 0
9, 228480, Note_on_c, 7, 58, 70
9, 230400, Note_on_c, 7, 58, 0
9, 230400, Note_on_c, 7, 53, 70
9, 232224, Note_on_c, 7, 53, 0
9, 232320, Note_on_c, 7, 50, 70
9, 233088, Note_on_c, 7, 50, 0
9, 234240, Note_on_c, 7, 53, 70
9, 235008, Note_on_c, 7, 53, 0
9, 236160, Note_on_c, 7, 58, 70
9, 238080, Note_on_c, 7, 58, 0
9, 238080, Note_on_c, 7, 53, 70
9, 239904, Note_on_c, 7, 53, 0
9, 240000, Note_on_c, 7, 46, 105
9, 240312, Note_on_c, 7, 46, 0
9, 240480, Note_on_c, 7, 53, 105
9, 240792, Note_on_c, 7, 53, 0
9, 240960, Note_on_c, 7, 62, 105
9, 241536, Note_on_c, 7, 62, 0
9, 241680, Note_on_c, 7, 60, 105
9, 241872, Note_on_c, 7, 60, 0
9, 241920, Note_on_c, 7, 58, 105
9, 242232, Note_on_c, 7, 58, 0
9, 242400, Note_on_c, 7, 53, 105
9, 242712, Note_on_c, 7, 53, 0
9, 242880, Note_on_c, 7, 62, 105
9, 243192, Note_on_c, 7, 62, 0
9, 243360, Note_on_c, 7, 58, 105
9, 243672, Note_on_c, 7, 58, 0
9, 243840, Note_on_c, 7, 60, 105
9, 244152, Note_on_c, 7, 60, 0
9, 244320, Note_on_c, 7, 53, 105
9, 244632, Note_on_c, 7, 53, 0
9, 244800, Note_on_c, 7, 63, 105
9, 245376, Note_on_c, 7, 63, 0
9, 245520, Note_on_c, 7, 62, 105
9, 245712, Note_on_c, 7, 62, 0
9, 245760, Note_on_c, 7, 60, 105
9, 246072, Note_on_c, 7, 60, 0
9, 246240, Note_on_c, 7, 53, 105
9, 246552, Note_on_c, 7, 53, 0
9, 246720, Note_on_c, 7, 63, 105
9, 247032, Note_on_c, 7, 63, 0
9, 247200, Note_on_c, 7, 60, 105
9, 247512, Note_on_c, 7, 60, 0
9, 247680, Note_on_c, 7, 58, 105
9, 247992, Note_on_c, 7, 58, 0
9, 248160, Note_on_c, 7, 62, 105
9, 248394, Note_on_c, 7, 62, 0
9, 248520, Note_on_c, 7, 58, 105
9, 248598, Note_on_c, 7, 58, 0
9, 248640, Note_on_c, 7, 50, 105
9, 248952, Note_on_c, 7, 50, 0
9, 249120, Note_on_c, 7, 58, 105
9, 249354, Note_on_c, 7, 58, 0
9, 249480, Note_on_c, 7, 50, 105
9, 249558, Note_on_c, 7, 50, 0
9, 249600, Note_on_c, 7, 51, 105
9, 249912, Note_on_c, 7, 51, 0
9, 250080, Note_on_c, 7, 58, 105
9, 250314, Note_on_c, 7, 58, 0
9, 250440, Note_on_c, 7, 51, 105
9, 250518, Note_on_c, 7, 51, 0
9, 250560, Note_on_c, 7, 55, 105
9, 250872, Note_on_c, 7, 55, 0
9, 251040, Note_on_c, 7, 58, 105
9, 251274, Note_on_c, 7, 58, 0
9, 251400, Note_on_c, 7, 55, 105
9, 251478, Note_on_c, 7, 55, 0
9, 251520, Note_on_c, 7, 57, 105
9, 251832, Note_on_c, 7, 57, 0
9, 252000, Note_on_c, 7, 60, 105
9, 252234, Note_on_c, 7, 60, 0
9, 252360, Note_on_c, 7, 57, 105
9, 252438, Note_on_c, 7, 57, 0
9, 252480, Note_on_c, 7, 53, 105
9, 252792, Note_on_c, 7, 53, 0
9, 252960, Note_on_c, 7, 57, 105
9, 253194, Note_on_c, 7, 57, 0
9, 253320, Note_on_c, 7, 53, 105
9, 253398, Note_on_c, 7, 53, 0
9, 253440, Note_on_c, 7, 55, 105
9, 253752, Note_on_c, 7, 55, 0
9, 253920, Note_on_c, 7, 50, 105
9, 254232, Note_on_c, 7, 50, 0
9, 254400, Note_on_c, 7, 51, 105
9, 254712, Note_on_c, 7, 51, 0
9, 254880, Note_on_c, 7, 53, 105
9, 255192, Note_on_c, 7, 53, 0
9, 255360, Note_on_c, 7, 58, 105
9, 255672, Note_on_c, 7, 58, 0
9, 255840, Note_on_c, 7, 62, 105
9, 256074, Note_on_c, 7, 62, 0
9, 256200, Note_on_c, 7, 58, 105
9, 256278, Note_on_c, 7, 58, 0
9, 256320, Note_on_c, 7, 50, 105
9, 256632, Note_on_c, 7, 50, 0
9, 256800, Note_on_c, 7, 58, 105
9, 257034, Note_on_c, 7, 58, 0
9, 257160, Note_on_c, 7, 50, 105
9, 257238, Note_on_c, 7, 50, 0
9, 257280, Note_on_c, 7, 51, 105
9, 257592, Note_on_c, 7, 51, 0
9, 257760, Note_on_c, 7, 58, 105
9, 257994, Note_on_c, 7, 58, 0
9, 258120, Note_on_c, 7, 51, 105
9, 258198, Note_on_c, 7, 51, 0
9, 258240, Note_on_c, 7, 55, 105
9, 258552, Note_on_c, 7, 55, 0
9, 258720, Note_on_c, 7, 58, 105
9, 258954, Note_on_c, 7, 58, 0
9, 259080, Note_on_c, 7, 55, 105
9, 259158, Note_on_c, 7, 55, 0
9, 259200, Note_on_c, 7, 57, 105
9, 259512, Note_on_c, 7, 57, 0
9, 259680, Note_on_c, 7, 60, 105
9, 259914, Note_on_c, 7, 60, 0
9, 260040, Note_on_c, 7, 57, 105
9, 260118, Note_on_c, 7, 57, 0
9, 260160, Note_on_c, 7, 53, 105
9, 260472, Note_on_c, 7, 53, 0
9, 260640, Note_on_c, 7, 57, 105
9, 260874, Note_on_c, 7, 57, 0
9, 261000, Note_on_c, 7, 53, 105
9, 261078, Note_on_c, 7, 53, 0
9, 261120, Note_on_c, 7, 55, 105
9, 261432, Note_on_c, 7, 55, 0
9, 261600, Note_on_c, 7, 50, 105
9, 261912, Note_on_c, 7, 50, 0
9, 262080, Note_on_c, 7, 51, 105
9, 262392, Note_on_c, 7, 51, 0
9, 262560, Note_on_c, 7, 53, 105
9, 262872, Note_on_c, 7, 53, 0
9, 263040, Note_on_c, 7, 58, 105
9, 263352, Note_on_c, 7, 58, 0
9, 263520, Note_on_c, 7, 46, 105
9, 263832, Note_on_c, 7, 46, 0
9, 264000, Note_on_c, 7, 62, 105
9, 264576, Note_on_c, 7, 62, 0
9, 264720, Note_on_c, 7, 60, 105
9, 264912, Note_on_c, 7, 60, 0
9, 264960, Note_on_c, 7, 58, 105
9, 265536, Note_on_c, 7, 58, 0
9, 265680, Note_on_c, 7, 57, 105
9, 265872, Note_on_c, 7, 57, 0
9, 265920, Note_on_c, 7, 55, 105
9, 266496, Note_on_c, 7, 55, 0
9, 266640, Note_on_c, 7, 53, 105
9, 266832, Note_on_c, 7, 53, 0
9, 266880, Note_on_c, 7, 51, 105
9, 267264, Note_on_c, 7, 51, 0
9, 267360, Note_on_c, 7, 63, 92
9, 267552, Note_on_c, 7, 63, 0
9, 267600, Note_on_c, 7, 62, 92
9, 267792, Note_on_c, 7, 62, 0
9, 267840, Note_on_c, 7, 60, 92
9, 268032, Note_on_c, 7, 60, 0
9, 268080, Note_on_c, 7, 58, 92
9, 268272, Note_on_c, 7, 58, 0
9, 268320, Note_on_c, 7, 57, 92
9, 268512, Note_on_c, 7, 57, 0
9, 268560, Note_on_c, 7, 58, 92
9, 268752, Note_on_c, 7, 58, 0
9, 268800, Note_on_c, 7, 57, 92
9, 269184, Note_on_c, 7, 57, 0
9, 269280, Note_on_c, 7, 63, 92
9, 269472, Note_on_c, 7, 63, 0
9, 269520, Note_on_c, 7, 62, 92
9, 269712, Note_on_c, 7, 62, 0
9, 269760, Note_on_c, 7, 60, 92
9, 269952, Note_on_c, 7, 60, 0
9, 270000, Note_on_c, 7, 58, 92
9, 270192, Note_on_c, 7, 58, 0
9, 270240, Note_on_c, 7, 57, 92
9, 270432, Note_on_c, 7, 57, 0
9, 270480, Note_on_c, 7, 58, 92
9, 270672, Note_on_c, 7, 58, 0
9, 270720, Note_on_c, 7, 57, 92
9, 271104, Note_on_c, 7, 57, 0
9, 271200, Note_on_c, 7, 63, 92
9, 271392, Note_on_c, 7, 63, 0
9, 271440, Note_on_c, 7, 62, 92
9, 271632, Note_on_c, 7, 62, 0
9, 271680, Note_on_c, 7, 60, 92
9, 271872, Note_on_c, 7, 60, 0
9, 271920, Note_on_c, 7, 58, 92
9, 272112, Note_on_c, 7, 58, 0
9, 272160, Note_on_c, 7, 57, 92
9, 272352, Note_on_c, 7, 57, 0
9, 272400, Note_on_c, 7, 58, 92
9, 272592, Note_on_c, 7, 58, 0
9, 272640, Note_on_c, 7, 57, 92
9, 272952, Note_on_c, 7, 57, 0
9, 273120, Note_on_c, 7, 58, 92
9, 273432, Note_on_c, 7, 58, 0
9, 273600, Note_on_c, 7, 51, 92
9, 273912, Note_on_c, 7, 51, 0
9, 274080, Note_on_c, 7, 53, 92
9, 274392, Note_on_c, 7, 53, 0
9, 274560, Note_on_c, 7, 46, 110
9, 274944, Note_on_c, 7, 46, 0
9, 275040, Note_on_c, 7, 51, 58
9, 275232, Note_on_c, 7, 51, 0
9, 275280, Note_on_c, 7, 50, 58
9, 275472, Note_on_c, 7, 50, 0
9, 275520, Note_on_c, 7, 48, 58
9, 275712, Note_on_c, 7, 48, 0
9, 275760, Note_on_c, 7, 46, 58
9, 275952, Note_on_c, 7, 46, 0
9, 276000, Note_on_c, 7, 45, 58
9, 276192, Note_on_c, 7, 45, 0
9, 276240, Note_on_c, 7, 46, 58
9, 276432, Note_on_c, 7, 46, 0
9, 276480, Note_on_c, 7, 45, 58
9, 276864, Note_on_c, 7, 45, 0
9, 276960, Note_on_c, 7, 51, 58
9, 277152, Note_on_c, 7, 51, 0
9, 277200, Note_on_c, 7, 50, 58
9, 277392, Note_on_c, 7, 50, 0
9, 277440, Note_on_c, 7, 48, 58
9, 277632, Note_on_c, 7, 48, 0
9, 277680, Note_on_c, 7, 46, 58
9, 277872, Note_on_c, 7, 46, 0
9, 277920, Note_on_c, 7, 45, 58
9, 278112, Note_on_c, 7, 45, 0
9, 278160, Note_on_c, 7, 46, 58
9, 278352, Note_on_c, 7, 46, 0
9, 278400, Note_on_c, 7, 45, 58
9, 278784, Note_on_c, 7, 45, 0
9, 278880, Note_on_c, 7, 63, 105
9, 279072, Note_on_c, 7, 63, 0
9, 279120, Note_on_c, 7, 62, 105
9, 279312, Note_on_c, 7, 62, 0
9, 279360, Note_on_c, 7, 60, 105
9, 279552, Note_on_c, 7, 60, 0
9, 279600, Note_on_c, 7, 58, 105
9, 279792, Note_on_c, 7, 58, 0
9, 279840, Note_on_c, 7, 57, 105
9, 280032, Note_on_c, 7, 57, 0
9, 280080, Note_on_c, 7, 58, 105
9, 280272, Note_on_c, 7, 58, 0
9, 280320, Note_on_c, 7, 57, 105
9, 280632, Note_on_c, 7, 57, 0
9, 280800, Note_on_c, 7, 58, 105
9, 281112, Note_on_c, 7, 58, 0
9, 281280, Note_on_c, 7, 51, 105
9, 281592, Note_on_c, 7, 51, 0
9, 281760, Note_on_c, 7, 53, 105
9, 282072, Note_on_c, 7, 53, 0
9, 282240, Note_on_c, 7, 46, 105
9, 282552, Note_on_c, 7, 46, 0
9, 282720, Note_on_c, 7, 46, 105
9, 283032, Note_on_c, 7, 46, 0
9, 283200, Note_on_c, 7, 62, 105
9, 283776, Note_on_c, 7, 62, 0
9, 283920, Note_on_c, 7, 60, 105
9, 284112, Note_on_c, 7, 60, 0
9, 284160, Note_on_c, 7, 58, 105
9, 284472, Note_on_c, 7, 58, 0
9, 284640, Note_on_c, 7, 46, 105
9, 284952, Note_on_c, 7, 46, 0
9, 285120, Note_on_c, 7, 62, 105
9, 285696, Note_on_c, 7, 62, 0
9, 285840, Note_on_c, 7, 60, 105
9, 286032, Note_on_c, 7, 60, 0
9, 286080, Note_on_c, 7, 58, 105
9, 286848, Note_on_c, 7, 58, 0
9, 293760, Note_on_c, 7, 55, 105
9, 294120, Note_on_c, 7, 55, 0
9, 294240, Note_on_c, 7, 56, 105
9, 294420, Note_on_c, 7, 56, 0
9, 294480, Note_on_c, 7, 53, 105
9, 294660, Note_on_c, 7, 53, 0
9, 294720, Note_on_c, 7, 51, 105
9, 295080, Note_on_c, 7, 51, 0
9, 295200, Note_on_c, 7, 53, 105
9, 295380, Note_on_c, 7, 53, 0
9, 295440, Note_on_c, 7, 50, 105
9, 295620, Note_on_c, 7, 50, 0
9, 295680, Note_on_c, 7, 48, 105
9, 296040, Note_on_c, 7, 48, 0
9, 296160, Note_on_c, 7, 62, 105
9, 296340, Note_on_c, 7, 62, 0
9, 296400, Note_on_c, 7, 58, 105
9, 296580, Note_on_c, 7, 58, 0
9, 296640, Note_on_c, 7, 57, 105
9, 297000, Note_on_c, 7, 57, 0
9, 297120, Note_on_c, 7, 58, 105
9, 297300, Note_on_c, 7, 58, 0
9, 297360, Note_on_c, 7, 55, 105
9, 297540, Note_on_c, 7, 55, 0
9, 297600, Note_on_c, 7, 53, 105
9, 297960, Note_on_c, 7, 53, 0
9, 298080, Note_on_c, 7, 55, 105
9, 298260, Note_on_c, 7, 55, 0
9, 298320, Note_on_c, 7, 51, 105
9, 298500, Note_on_c, 7, 51, 0
9, 298560, Note_on_c, 7, 50, 105
9, 298920, Note_on_c, 7, 50, 0
9, 299040, Note_on_c, 7, 51, 105
9, 299220, Note_on_c, 7, 51, 0
9, 299280, Note_on_c, 7, 48, 105
9, 299460, Note_on_c, 7, 48, 0
9, 299520, Note_on_c, 7, 46, 105
9, 299880, Note_on_c, 7, 46, 0
9, 300000, Note_on_c, 7, 60, 105
9, 300180, Note_on_c, 7, 60, 0
9, 300240, Note_on_c, 7, 56, 105
9, 300420, Note_on_c, 7, 56, 0
9, 300480, Note_on_c, 7, 55, 105
9, 300840, Note_on_c, 7, 55, 0
9, 300960, Note_on_c, 7, 56, 105
9, 301140, Note_on_c, 7, 56, 0
9, 301200, Note_on_c, 7, 53, 105
9, 301380, Note_on_c, 7, 53, 0
9, 301440, Note_on_c, 7, 51, 105
9, 301800, Note_on_c, 7, 51, 0
9, 301920, Note_on_c, 7, 53, 105
9, 302100, Note_on_c, 7, 53, 0
9, 302160, Note_on_c, 7, 50, 105
9, 302340, Note_on_c, 7, 50, 0
9, 302400, Note_on_c, 7, 48, 105
9, 302760, Note_on_c, 7, 48, 0
9, 302880, Note_on_c, 7, 50, 105
9, 303060, Note_on_c, 7, 50, 0
9, 303120, Note_on_c, 7, 46, 105
9, 303300, Note_on_c, 7, 46, 0
9, 303360, Note_on_c, 7, 45, 105
9, 303720, Note_on_c, 7, 45, 0
9, 303840, Note_on_c, 7, 58, 105
9, 304020, Note_on_c, 7, 58, 0
9, 304080, Note_on_c, 7, 55, 105
9, 304260, Note_on_c, 7, 55, 0
9, 304320, Note_on_c, 7, 54, 105
9, 304680, Note_on_c, 7, 54, 0
9, 304800, Note_on_c, 7, 55, 105
9, 304980, Note_on_c, 7, 55, 0
9, 305040, Note_on_c, 7, 52, 105
9, 305220, Note_on_c, 7, 52, 0
9, 305280, Note_on_c, 7, 50, 105
9, 305640, Note_on_c, 7, 50, 0
9, 305760, Note_on_c, 7, 63, 105
9, 305940, Note_on_c, 7, 63, 0
9, 306000, Note_on_c, 7, 60, 105
9, 306180, Note_on_c, 7, 60, 0
9, 306240, Note_on_c, 7, 58, 105
9, 306600, Note_on_c, 7, 58, 0
9, 306720, Note_on_c, 7, 60, 105
9, 306900, Note_on_c, 7, 60, 0
9, 306960, Note_on_c, 7, 57, 105
9, 307140, Note_on_c, 7, 57, 0
9, 307200, Note_on_c, 7, 55, 105
9, 307560, Note_on_c, 7, 55, 0
9, 307680, Note_on_c, 7, 55, 105
9, 308040, Note_on_c, 7, 55, 0
9, 308160, Note_on_c, 7, 52, 105
9, 308520, Note_on_c, 7, 52, 0
9, 308640, Note_on_c, 7, 53, 105
9, 309000, Note_on_c, 7, 53, 0
9, 309120, Note_on_c, 7, 50, 105
9, 309480, Note_on_c, 7, 50, 0
9, 309600, Note_on_c, 7, 52, 105
9, 309960, Note_on_c, 7, 52, 0
9, 310080, Note_on_c, 7, 49, 105
9, 310440, Note_on_c, 7, 49, 0
9, 310560, Note_on_c, 7, 50, 105
9, 310920, Note_on_c, 7, 50, 0
9, 311040, Note_on_c, 7, 47, 105
9, 311400, Note_on_c, 7, 47, 0
9, 311520, Note_on_c, 7, 49, 105
9, 311880, Note_on_c, 7, 49, 0
9, 312000, Note_on_c, 7, 50, 105
9, 312360, Note_on_c, 7, 50, 0
9, 312480, Note_on_c, 7, 44, 105
9, 312840, Note_on_c, 7, 44, 0
9, 312960, Note_on_c, 7, 45, 105
9, 313728, Note_on_c, 7, 45, 0
9, 314400, Note_on_c, 7, 61, 105
9, 314664, Note_on_c, 7, 61, 0
9, 314880, Note_on_c, 7, 61, 92
9, 315840, Note_on_c, 7, 61, 0
9, 315840, Note_on_c, 7, 62, 92
9, 316152, Note_on_c, 7, 62, 0
9, 316320, Note_on_c, 7, 63, 92
9, 316584, Note_on_c, 7, 63, 0
9, 316800, Note_on_c, 7, 63, 92
9, 317760, Note_on_c, 7, 63, 0
9, 317760, Note_on_c, 7, 64, 92
9, 318072, Note_on_c, 7, 64, 0
9, 318240, Note_on_c, 7, 64, 92
9, 318504, Note_on_c, 7, 64, 0
9, 318720, Note_on_c, 7, 65, 92
9, 319032, Note_on_c, 7, 65, 0
9, 319200, Note_on_c, 7, 62, 92
9, 319512, Note_on_c, 7, 62, 0
9, 319680, Note_on_c, 7, 64, 92
9, 319992, Note_on_c, 7, 64, 0
9, 320160, Note_on_c, 7, 61, 92
9, 320472, Note_on_c, 7, 61, 0
9, 320640, Note_on_c, 7, 62, 92
9, 320820, Note_on_c, 7, 62, 0
9, 320880, Note_on_c, 7, 64, 92
9, 321060, Note_on_c, 7, 64, 0
9, 321120, Note_on_c, 7, 65, 92
9, 321300, Note_on_c, 7, 65, 0
9, 321360, Note_on_c, 7, 62, 92
9, 321540, Note_on_c, 7, 62, 0
9, 321600, Note_on_c, 7, 61, 92
9, 321780, Note_on_c, 7, 61, 0
9, 321840, Note_on_c, 7, 62, 92
9, 322020, Note_on_c, 7, 62, 0
9, 322080, Note_on_c, 7, 64, 92
9, 322260, Note_on_c, 7, 64, 0
9, 322320, Note_on_c, 7, 61, 92
9, 322500, Note_on_c, 7, 61, 0
9, 322560, Note_on_c, 7, 62, 92
9, 322740, Note_on_c, 7, 62, 0
9, 322800, Note_on_c, 7, 64, 92
9, 322980, Note_on_c, 7, 64, 0
9, 323040, Note_on_c, 7, 65, 92
9, 323220, Note_on_c, 7, 65, 0
9, 323280, Note_on_c, 7, 62, 92
9, 323460, Note_on_c, 7, 62, 0
9, 323520, Note_on_c, 7, 61, 92
9, 323700, Note_on_c, 7, 61, 0
9, 323760, Note_on_c, 7, 62, 92
9, 323940, Note_on_c, 7, 62, 0
9, 324000, Note_on_c, 7, 64, 92
9, 324180, Note_on_c, 7, 64, 0
9, 324240, Note_on_c, 7, 61, 92
9, 324420, Note_on_c, 7, 61, 0
9, 324480, Note_on_c, 7, 62, 92
9, 324864, Note_on_c, 7, 62, 0
9, 329760, Note_on_c, 7, 59, 92
9, 330024, Note_on_c, 7, 59, 0
9, 330240, Note_on_c, 7, 59, 92
9, 331200, Note_on_c, 7, 59, 0
9, 331200, Note_on_c, 7, 60, 92
9, 331512, Note_on_c, 7, 60, 0
9, 331680, Note_on_c, 7, 61, 92
9, 331944, Note_on_c, 7, 61, 0
9, 332160, Note_on_c, 7, 61, 92
9, 333120, Note_on_c, 7, 61, 0
9, 333120, Note_on_c, 7, 62, 92
9, 333432, Note_on_c, 7, 62, 0
9, 333600, Note_on_c, 7, 62, 92
9, 333864, Note_on_c, 7, 62, 0
9, 334080, Note_on_c, 7, 63, 92
9, 334392, Note_on_c, 7, 63, 0
9, 334560, Note_on_c, 7, 60, 92
9, 334872, Note_on_c, 7, 60, 0
9, 335040, Note_on_c, 7, 62, 92
9, 335352, Note_on_c, 7, 62, 0
9, 335520, Note_on_c, 7, 59, 92
9, 335832, Note_on_c, 7, 59, 0
9, 336000, Note_on_c, 7, 60, 92
9, 336180, Note_on_c, 7, 60, 0
9, 336240, Note_on_c, 7, 62, 92
9, 336420, Note_on_c, 7, 62, 0
9, 336480, Note_on_c, 7, 63, 92
9, 336660, Note_on_c, 7, 63, 0
9, 336720, Note_on_c, 7, 60, 92
9, 336900, Note_on_c, 7, 60, 0
9, 336960, Note_on_c, 7, 59, 92
9, 337140, Note_on_c, 7, 59, 0
9, 337200, Note_on_c, 7, 60, 92
9, 337380, Note_on_c, 7, 60, 0
9, 337440, Note_on_c, 7, 62, 92
9, 337620, Note_on_c, 7, 62, 0
9, 337680, Note_on_c, 7, 59, 92
9, 337860, Note_on_c, 7, 59, 0
9, 337920, Note_on_c, 7, 60, 92
9, 338100, Note_on_c, 7, 60, 0
9, 338160, Note_on_c, 7, 62, 92
9, 338340, Note_on_c, 7, 62, 0
9, 338400, Note_on_c, 7, 63, 92
9, 338580, Note_on_c, 7, 63, 0
9, 338640, Note_on_c, 7, 60, 92
9, 338820, Note_on_c, 7, 60, 0
9, 338880, Note_on_c, 7, 59, 92
9, 339060, Note_on_c, 7, 59, 0
9, 339120, Note_on_c, 7, 60, 92
9, 339300, Note_on_c, 7, 60, 0
9, 339360, Note_on_c, 7, 62, 92
9, 339540, Note_on_c, 7, 62, 0
9, 339600, Note_on_c, 7, 59, 92
9, 339780, Note_on_c, 7, 59, 0
9, 339840, Note_on_c, 7, 60, 92
9, 340020, Note_on_c, 7, 60, 0
9, 340080, Note_on_c, 7, 62, 92
9, 340260, Note_on_c, 7, 62, 0
9, 340320, Note_on_c, 7, 63, 92
9, 340500, Note_on_c, 7, 63, 0
9, 340560, Note_on_c, 7, 60, 92
9, 340740, Note_on_c, 7, 60, 0
9, 340800, Note_on_c, 7, 58, 92
9, 340980, Note_on_c, 7, 58, 0
9, 341040, Note_on_c, 7, 57, 92
9, 341220, Note_on_c, 7, 57, 0
9, 341280, Note_on_c, 7, 58, 92
9, 341460, Note_on_c, 7, 58, 0
9, 341520, Note_on_c, 7, 55, 92
9, 341700, Note_on_c, 7, 55, 0
9, 341760, Note_on_c, 7, 57, 92
9, 341940, Note_on_c, 7, 57, 0
9, 342000, Note_on_c, 7, 55, 92
9, 342180, Note_on_c, 7, 55, 0
9, 342240, Note_on_c, 7, 57, 92
9, 342420, Note_on_c, 7, 57, 0
9, 342480, Note_on_c, 7, 54, 92
9, 342660, Note_on_c, 7, 54, 0
9, 342720, Note_on_c, 7, 54, 105
9, 342900, Note_on_c, 7, 54, 0
9, 342960, Note_on_c, 7, 52, 105
9, 343140, Note_on_c, 7, 52, 0
9, 343200, Note_on_c, 7, 54, 105
9, 343380, Note_on_c, 7, 54, 0
9, 343440, Note_on_c, 7, 50, 105
9, 343620, Note_on_c, 7, 50, 0
9, 343680, Note_on_c, 7, 57, 105
9, 343860, Note_on_c, 7, 57, 0
9, 343920, Note_on_c, 7, 58, 105
9, 344100, Note_on_c, 7, 58, 0
9, 344160, Note_on_c, 7, 62, 105
9, 344340, Note_on_c, 7, 62, 0
9, 344400, Note_on_c, 7, 55, 105
9, 344580, Note_on_c, 7, 55, 0
9, 344640, Note_on_c, 7, 51, 105
9, 344820, Note_on_c, 7, 51, 0
9, 344880, Note_on_c, 7, 55, 105
9, 345060, Note_on_c, 7, 55, 0
9, 345120, Note_on_c, 7, 53, 105
9, 345300, Note_on_c, 7, 53, 0
9, 345360, Note_on_c, 7, 51, 105
9, 345540, Note_on_c, 7, 51, 0
9, 345600, Note_on_c, 7, 50, 105
9, 345912, Note_on_c, 7, 50, 0
9, 346080, Note_on_c, 7, 62, 105
9, 346392, Note_on_c, 7, 62, 0
9, 347040, Note_on_c, 7, 62, 105
9, 347352, Note_on_c, 7, 62, 0
9, 347520, Note_on_c, 7, 63, 105
9, 347832, Note_on_c, 7, 63, 0
9, 348000, Note_on_c, 7, 51, 105
9, 348312, Note_on_c, 7, 51, 0
9, 348960, Note_on_c, 7, 51, 105
9, 349272, Note_on_c, 7, 51, 0
9, 349440, Note_on_c, 7, 50, 105
9, 349752, Note_on_c, 7, 50, 0
9, 353280, Note_on_c, 7, 55, 58
9, 353592, Note_on_c, 7, 55, 0
9, 353760, Note_on_c, 7, 50, 58
9, 354072, Note_on_c, 7, 50, 0
9, 354240, Note_on_c, 7, 58, 58
9, 354780, Note_on_c, 7, 58, 0
9, 354960, Note_on_c, 7, 57, 58
9, 355116, Note_on_c, 7, 57, 0
9, 355200, Note_on_c, 7, 55, 58
9, 355512, Note_on_c, 7, 55, 0
9, 355680, Note_on_c, 7, 58, 58
9, 356160, Note_on_c, 7, 58, 0
9, 356160, Note_on_c, 7, 57, 58
9, 356640, Note_on_c, 7, 57, 0
9, 356640, Note_on_c, 7, 55, 58
9, 357096, Note_on_c, 7, 55, 0
9, 357120, Note_on_c, 7, 54, 58
9, 357432, Note_on_c, 7, 54, 0
9, 357600, Note_on_c, 7, 50, 58
9, 357912, Note_on_c, 7, 50, 0
9, 358080, Note_on_c, 7, 60, 58
9, 358620, Note_on_c, 7, 60, 0
9, 358800, Note_on_c, 7, 58, 58
9, 358956, Note_on_c, 7, 58, 0
9, 359040, Note_on_c, 7, 57, 58
9, 359352, Note_on_c, 7, 57, 0
9, 359520, Note_on_c, 7, 60, 58
9, 360000, Note_on_c, 7, 60, 0
9, 360000, Note_on_c, 7, 58, 58
9, 360480, Note_on_c, 7, 58, 0
9, 360480, Note_on_c, 7, 57, 58
9, 360936, Note_on_c, 7, 57, 0
9, 360960, Note_on_c, 7, 55, 58
9, 361272, Note_on_c, 7, 55, 0
9, 361440, Note_on_c, 7, 58, 58
9, 361752, Note_on_c, 7, 58, 0
9, 361920, Note_on_c, 7, 63, 58
9, 362424, Note_on_c, 7, 63, 0
9, 362640, Note_on_c, 7, 62, 58
9, 362796, Note_on_c, 7, 62, 0
9, 362880, Note_on_c, 7, 60, 58
9, 363192, Note_on_c, 7, 60, 0
9, 363360, Note_on_c, 7, 57, 58
9, 363672, Note_on_c, 7, 57, 0
9, 363840, Note_on_c, 7, 62, 58
9, 364344, Note_on_c, 7, 62, 0
9, 364560, Note_on_c, 7, 60, 58
9, 364716, Note_on_c, 7, 60, 0
9, 364800, Note_on_c, 7, 58, 58
9, 365112, Note_on_c, 7, 58, 0
9, 365280, Note_on_c, 7, 55, 58
9, 365592, Note_on_c, 7, 55, 0
9, 365760, Note_on_c, 7, 51, 58
9, 366072, Note_on_c, 7, 51, 0
9, 366240, Note_on_c, 7, 49, 58
9, 366552, Note_on_c, 7, 49, 0
9, 366720, Note_on_c, 7, 50, 58
9, 367032, Note_on_c, 7, 50, 0
9, 367200, Note_on_c, 7, 60, 58
9, 367680, Note_on_c, 7, 60, 0
9, 367680, Note_on_c, 7, 58, 58
9, 368160, Note_on_c, 7, 58, 0
9, 368160, Note_on_c, 7, 57, 58
9, 368472, Note_on_c, 7, 57, 0
9, 368640, Note_on_c, 7, 55, 105
9, 368952, Note_on_c, 7, 55, 0
9, 369120, Note_on_c, 7, 50, 105
9, 369432, Note_on_c, 7, 50, 0
9, 369600, Note_on_c, 7, 58, 105
9, 370176, Note_on_c, 7, 58, 0
9, 370320, Note_on_c, 7, 57, 105
9, 370476, Note_on_c, 7, 57, 0
9, 370560, Note_on_c, 7, 55, 105
9, 370872, Note_on_c, 7, 55, 0
9, 371040, Note_on_c, 7, 58, 105
9, 371520, Note_on_c, 7, 58, 0
9, 371520, Note_on_c, 7, 57, 105
9, 372000, Note_on_c, 7, 57, 0
9, 372000, Note_on_c, 7, 55, 105
9, 372480, Note_on_c, 7, 55, 0
9, 372480, Note_on_c, 7, 54, 105
9, 372792, Note_on_c, 7, 54, 0
9, 372960, Note_on_c, 7, 50, 105
9, 373272, Note_on_c, 7, 50, 0
9, 373440, Note_on_c, 7, 60, 105
9, 374016, Note_on_c, 7, 60, 0
9, 374160, Note_on_c, 7, 58, 105
9, 374316, Note_on_c, 7, 58, 0
9, 374400, Note_on_c, 7, 57, 105
9, 374712, Note_on_c, 7, 57, 0
9, 374880, Note_on_c, 7, 60, 105
9, 375360, Note_on_c, 7, 60, 0
9, 375360, Note_on_c, 7, 58, 105
9, 375840, Note_on_c, 7, 58, 0
9, 375840, Note_on_c, 7, 57, 105
9, 376320, Note_on_c, 7, 57, 0
9, 376320, Note_on_c, 7, 55, 105
9, 376632, Note_on_c, 7, 55, 0
9, 376800, Note_on_c, 7, 58, 105
9, 377112, Note_on_c, 7, 58, 0
9, 377280, Note_on_c, 7, 63, 105
9, 377856, Note_on_c, 7, 63, 0
9, 378000, Note_on_c, 7, 62, 105
9, 378156, Note_on_c, 7, 62, 0
9, 378240, Note_on_c, 7, 60, 105
9, 378552, Note_on_c, 7, 60, 0
9, 378720, Note_on_c, 7, 57, 105
9, 379032, Note_on_c, 7, 57, 0
9, 379200, Note_on_c, 7, 62, 105
9, 379920, Note_on_c, 7, 62, 0
9, 379920, Note_on_c, 7, 60, 105
9, 380112, Note_on_c, 7, 60, 0
9, 380160, Note_on_c, 7, 58, 105
9, 380472, Note_on_c, 7, 58, 0
9, 380640, Note_on_c, 7, 51, 105
9, 380952, Note_on_c, 7, 51, 0
9, 381120, Note_on_c, 7, 48, 105
9, 381432, Note_on_c, 7, 48, 0
9, 381600, Note_on_c, 7, 50, 105
9, 381912, Note_on_c, 7, 50, 0
9, 382080, Note_on_c, 7, 43, 105
9, 382848, Note_on_c, 7, 43, 0
9, 384960, Note_on_c, 7, 59, 58
9, 385728, Note_on_c, 7, 59, 0
9, 385920, Note_on_c, 7, 59, 58
9, 386880, Note_on_c, 7, 59, 0
9, 386880, Note_on_c, 7, 60, 58
9, 387264, Note_on_c, 7, 60, 0
9, 388800, Note_on_c, 7, 53, 58
9, 389184, Note_on_c, 7, 53, 0
9, 389280, Note_on_c, 7, 53, 58
9, 389664, Note_on_c, 7, 53, 0
9, 389760, Note_on_c, 7, 53, 58
9, 390720, Note_on_c, 7, 53, 0
9, 390720, Note_on_c, 7, 51, 58
9, 391104, Note_on_c, 7, 51, 0
9, 392640, Note_on_c, 7, 48, 58
9, 393408, Note_on_c, 7, 48, 0
9, 393600, Note_on_c, 7, 48, 58
9, 394560, Note_on_c, 7, 48, 0
9, 394560, Note_on_c, 7, 46, 58
9, 394944, Note_on_c, 7, 46, 0
9, 395520, Note_on_c, 7, 54, 58
9, 396288, Note_on_c, 7, 54, 0
9, 396480, Note_on_c, 7, 55, 58
9, 397248, Note_on_c, 7, 55, 0
9, 397440, Note_on_c, 7, 50, 58
9, 398208, Note_on_c, 7, 50, 0
9, 398400, Note_on_c, 7, 43, 58
9, 399168, Note_on_c, 7, 43, 0
9, 399360, Note_on_c, 7, 48, 58
9, 400512, Note_on_c, 7, 48, 0
9, 400800, Note_on_c, 7, 49, 58
9, 401184, Note_on_c, 7, 49, 0
9, 401280, Note_on_c, 7, 50, 58
9, 402624, Note_on_c, 7, 50, 0
9, 406080, Note_on_c, 7, 60, 105
9, 406224, Note_on_c, 7, 60, 0
9, 406320, Note_on_c, 7, 58, 105
9, 406464, Note_on_c, 7, 58, 0
9, 406560, Note_on_c, 7, 57, 105
9, 406704, Note_on_c, 7, 57, 0
9, 406800, Note_on_c, 7, 55, 105
9, 406944, Note_on_c, 7, 55, 0
9, 407040, Note_on_c, 7, 54, 105
9, 407280, Note_on_c, 7, 54, 0
9, 407280, Note_on_c, 7, 55, 105
9, 407424, Note_on_c, 7, 55, 0
9, 407520, Note_on_c, 7, 54, 105
9, 407664, Note_on_c, 7, 54, 0
9, 407760, Note_on_c, 7, 51, 105
9, 407904, Note_on_c, 7, 51, 0
9, 408000, Note_on_c, 7, 50, 105
9, 408144, Note_on_c, 7, 50, 0
9, 408240, Note_on_c, 7, 48, 105
9, 408384, Note_on_c, 7, 48, 0
9, 408480, Note_on_c, 7, 46, 105
9, 408624, Note_on_c, 7, 46, 0
9, 408720, Note_on_c, 7, 45, 105
9, 408864, Note_on_c, 7, 45, 0
9, 408960, Note_on_c, 7, 43, 105
9, 409344, Note_on_c, 7, 43, 0
9, 409920, Note_on_c, 7, 67, 105
9, 410496, Note_on_c, 7, 67, 0
9, 410640, Note_on_c, 7, 65, 105
9, 410832, Note_on_c, 7, 65, 0
9, 410880, Note_on_c, 7, 64, 105
9, 411144, Note_on_c, 7, 64, 0
9, 411360, Note_on_c, 7, 65, 105
9, 411624, Note_on_c, 7, 65, 0
9, 411840, Note_on_c, 7, 63, 105
9, 412416, Note_on_c, 7, 63, 0
9, 412560, Note_on_c, 7, 62, 105
9, 412752, Note_on_c, 7, 62, 0
9, 412800, Note_on_c, 7, 60, 105
9, 413064, Note_on_c, 7, 60, 0
9, 413280, Note_on_c, 7, 62, 105
9, 413544, Note_on_c, 7, 62, 0
9, 413760, Note_on_c, 7, 63, 105
9, 414336, Note_on_c, 7, 63, 0
9, 414480, Note_on_c, 7, 62, 105
9, 414672, Note_on_c, 7, 62, 0
9, 414720, Note_on_c, 7, 60, 105
9, 414984, Note_on_c, 7, 60, 0
9, 415200, Note_on_c, 7, 62, 105
9, 415464, Note_on_c, 7, 62, 0
9, 415680, Note_on_c, 7, 60, 105
9, 416256, Note_on_c, 7, 60, 0
9, 416400, Note_on_c, 7, 58, 105
9, 416592, Note_on_c, 7, 58, 0
9, 416640, Note_on_c, 7, 57, 105
9, 416904, Note_on_c, 7, 57, 0
9, 417120, Note_on_c, 7, 58, 105
9, 417384, Note_on_c, 7, 58, 0
9, 417600, Note_on_c, 7, 57, 105
9, 417840, Note_on_c, 7, 57, 0
9, 417840, Note_on_c, 7, 58, 105
9, 418080, Note_on_c, 7, 58, 0
9, 418080, Note_on_c, 7, 60, 105
9, 418212, Note_on_c, 7, 60, 0
9, 418320, Note_on_c, 7, 58, 105
9, 418452, Note_on_c, 7, 58, 0
9, 418560, Note_on_c, 7, 57, 105
9, 418752, Note_on_c, 7, 57, 0
9, 418800, Note_on_c, 7, 55, 105
9, 418992, Note_on_c, 7, 55, 0
9, 419040, Note_on_c, 7, 54, 105
9, 419232, Note_on_c, 7, 54, 0
9, 419280, Note_on_c, 7, 51, 105
9, 419472, Note_on_c, 7, 51, 0
9, 419520, Note_on_c, 7, 50, 105
9, 419712, Note_on_c, 7, 50, 0
9, 419760, Note_on_c, 7, 52, 105
9, 419952, Note_on_c, 7, 52, 0
9, 420000, Note_on_c, 7, 54, 105
9, 420192, Note_on_c, 7, 54, 0
9, 420240, Note_on_c, 7, 50, 105
9, 420432, Note_on_c, 7, 50, 0
9, 420480, Note_on_c, 7, 55, 105
9, 420636, Note_on_c, 7, 55, 0
9, 420720, Note_on_c, 7, 53, 105
9, 420876, Note_on_c, 7, 53, 0
9, 420960, Note_on_c, 7, 51, 105
9, 421116, Note_on_c, 7, 51, 0
9, 421200, Note_on_c, 7, 50, 105
9, 421356, Note_on_c, 7, 50, 0
9, 421440, Note_on_c, 7, 48, 105
9, 421596, Note_on_c, 7, 48, 0
9, 421680, Note_on_c, 7, 46, 105
9, 421836, Note_on_c, 7, 46, 0
9, 421920, Note_on_c, 7, 45, 105
9, 422076, Note_on_c, 7, 45, 0
9, 422160, Note_on_c, 7, 43, 105
9, 422316, Note_on_c, 7, 43, 0
9, 422400, Note_on_c, 7, 48, 105
9, 422688, Note_on_c, 7, 48, 0
9, 422880, Note_on_c, 7, 60, 105
9, 423168, Note_on_c, 7, 60, 0
9, 423360, Note_on_c, 7, 62, 105
9, 423648, Note_on_c, 7, 62, 0
9, 423840, Note_on_c, 7, 50, 105
9, 424128, Note_on_c, 7, 50, 0
9, 424320, Note_on_c, 7, 55, 105
9, 424608, Note_on_c, 7, 55, 0
9, 424800, Note_on_c, 7, 50, 105
9, 425088, Note_on_c, 7, 50, 0
9, 425280, Note_on_c, 7, 58, 105
9, 425856, Note_on_c, 7, 58, 0
9, 426000, Note_on_c, 7, 57, 105
9, 426192, Note_on_c, 7, 57, 0
9, 426240, Note_on_c, 7, 55, 105
9, 426528, Note_on_c, 7, 55, 0
9, 426720, Note_on_c, 7, 50, 105
9, 427008, Note_on_c, 7, 50, 0
9, 427200, Note_on_c, 7, 46, 105
9, 427488, Note_on_c, 7, 46, 0
9, 427680, Note_on_c, 7, 43, 105
9, 427968, Note_on_c, 7, 43, 0
9, 428160, Note_on_c, 7, 50, 105
9, 428448, Note_on_c, 7, 50, 0
9, 435840, Note_on_c, 7, 43, 70
9, 436608, Note_on_c, 7, 43, 0
9, 437760, Note_on_c, 7, 50, 70
9, 438528, Note_on_c, 7, 50, 0
9, 439680, Note_on_c, 7, 55, 70
9, 441600, Note_on_c, 7, 55, 0
9, 441600, Note_on_c, 7, 50, 70
9, 443424, Note_on_c, 7, 50, 0
9, 443520, Note_on_c, 7, 43, 70
9, 444288, Note_on_c, 7, 43, 0
9, 445440, Note_on_c, 7, 50, 70
9, 446208, Note_on_c, 7, 50, 0
9, 447360, Note_on_c, 7, 55, 70
9, 449280, Note_on_c, 7, 55, 0
9, 449280, Note_on_c, 7, 50, 70
9, 451104, Note_on_c, 7, 50, 0
9, 451200, Note_on_c, 7, 55, 105
9, 451512, Note_on_c, 7, 55, 0
9, 451680, Note_on_c, 7, 50, 105
9, 451992, Note_on_c, 7, 50, 0
9, 452160, Note_on_c, 7, 58, 105
9, 452736, Note_on_c, 7, 58, 0
9, 452880, Note_on_c, 7, 57, 105
9, 453072, Note_on_c, 7, 57, 0
9, 453120, Note_on_c, 7, 55, 105
9, 453432, Note_on_c, 7, 55, 0
9, 453600, Note_on_c, 7, 50, 105
9, 453912, Note_on_c, 7, 50, 0
9, 454080, Note_on_c, 7, 58, 105
9, 454392, Note_on_c, 7, 58, 0
9, 454560, Note_on_c, 7, 55, 105
9, 454872, Note_on_c, 7, 55, 0
9, 455040, Note_on_c, 7, 57, 105
9, 455352, Note_on_c, 7, 57, 0
9, 455520, Note_on_c, 7, 50, 105
9, 455832, Note_on_c, 7, 50, 0
9, 456000, Note_on_c, 7, 60, 105
9, 456576, Note_on_c, 7, 60, 0
9, 456720, Note_on_c, 7, 58, 105
9, 456912, Note_on_c, 7, 58, 0
9, 456960, Note_on_c, 7, 57, 105
9, 457272, Note_on_c, 7, 57, 0
9, 457440, Note_on_c, 7, 50, 105
9, 457752, Note_on_c, 7, 50, 0
9, 457920, Note_on_c, 7, 60, 105
9, 458232, Note_on_c, 7, 60, 0
9, 458400, Note_on_c, 7, 57, 105
9, 458712, Note_on_c, 7, 57, 0
9, 458880, Note_on_c, 7, 55, 105
9, 459240, Note_on_c, 7, 55, 0
9, 459360, Note_on_c, 7, 58, 105
9, 459630, Note_on_c, 7, 58, 0
9, 459720, Note_on_c, 7, 55, 105
9, 459810, Note_on_c, 7, 55, 0
9, 459840, Note_on_c, 7, 47, 105
9, 460200, Note_on_c, 7, 47, 0
9, 460320, Note_on_c, 7, 55, 105
9, 460590, Note_on_c, 7, 55, 0
9, 460680, Note_on_c, 7, 47, 105
9, 460770, Note_on_c, 7, 47, 0
9, 460800, Note_on_c, 7, 48, 105
9, 461160, Note_on_c, 7, 48, 0
9, 461280, Note_on_c, 7, 55, 105
9, 461550, Note_on_c, 7, 55, 0
9, 461640, Note_on_c, 7, 48, 105
9, 461730, Note_on_c, 7, 48, 0
9, 461760, Note_on_c, 7, 51, 105
9, 462120, Note_on_c, 7, 51, 0
9, 462240, Note_on_c, 7, 55, 105
9, 462510, Note_on_c, 7, 55, 0
9, 462600, Note_on_c, 7, 51, 105
9, 462690, Note_on_c, 7, 51, 0
9, 462720, Note_on_c, 7, 50, 105
9, 463080, Note_on_c, 7, 50, 0
9, 463200, Note_on_c, 7, 62, 105
9, 463470, Note_on_c, 7, 62, 0
9, 463560, Note_on_c, 7, 50, 105
9, 463650, Note_on_c, 7, 50, 0
9, 463680, Note_on_c, 7, 54, 105
9, 464040, Note_on_c, 7, 54, 0
9, 464160, Note_on_c, 7, 57, 105
9, 464430, Note_on_c, 7, 57, 0
9, 464520, Note_on_c, 7, 50, 105
9, 464610, Note_on_c, 7, 50, 0
9, 464640, Note_on_c, 7, 55, 105
9, 464952, Note_on_c, 7, 55, 0
9, 465120, Note_on_c, 7, 51, 105
9, 465432, Note_on_c, 7, 51, 0
9, 465600, Note_on_c, 7, 48, 105
9, 465912, Note_on_c, 7, 48, 0
9, 466080, Note_on_c, 7, 50, 105
9, 466392, Note_on_c, 7, 50, 0
9, 466560, Note_on_c, 7, 43, 105
9, 466920, Note_on_c, 7, 43, 0
9, 467040, Note_on_c, 7, 55, 105
9, 467310, Note_on_c, 7, 55, 0
9, 467400, Note_on_c, 7, 43, 105
9, 467490, Note_on_c, 7, 43, 0
9, 467520, Note_on_c, 7, 47, 105
9, 467880, Note_on_c, 7, 47, 0
9, 468000, Note_on_c, 7, 55, 105
9, 468270, Note_on_c, 7, 55, 0
9, 468360, Note_on_c, 7, 47, 105
9, 468450, Note_on_c, 7, 47, 0
9, 468480, Note_on_c, 7, 48, 105
9, 468840, Note_on_c, 7, 48, 0
9, 468960, Note_on_c, 7, 55, 105
9, 469230, Note_on_c, 7, 55, 0
9, 469320, Note_on_c, 7, 48, 105
9, 469410, Note_on_c, 7, 48, 0
9, 469440, Note_on_c, 7, 52, 105
9, 469800, Note_on_c, 7, 52, 0
9, 469920, Note_on_c, 7, 55, 105
9, 470190, Note_on_c, 7, 55, 0
9, 470280, Note_on_c, 7, 52, 105
9, 470370, Note_on_c, 7, 52, 0
9, 470400, Note_on_c, 7, 54, 105
9, 470760, Note_on_c, 7, 54, 0
9, 470880, Note_on_c, 7, 57, 105
9, 471150, Note_on_c, 7, 57, 0
9, 471240, Note_on_c, 7, 54, 105
9, 471330, Note_on_c, 7, 54, 0
9, 471360, Note_on_c, 7, 50, 105
9, 471720, Note_on_c, 7, 50, 0
9, 471840, Note_on_c, 7, 54, 105
9, 472110, Note_on_c, 7, 54, 0
9, 472200, Note_on_c, 7, 50, 105
9, 472290, Note_on_c, 7, 50, 0
9, 472320, Note_on_c, 7, 51, 105
9, 472608, Note_on_c, 7, 51, 0
9, 472800, Note_on_c, 7, 46, 105
9, 473088, Note_on_c, 7, 46, 0
9, 473280, Note_on_c, 7, 48, 105
9, 473568, Note_on_c, 7, 48, 0
9, 473760, Note_on_c, 7, 50, 105
9, 474048, Note_on_c, 7, 50, 0
9, 474240, Note_on_c, 7, 43, 105
9, 474528, Note_on_c, 7, 43, 0
9, 474720, Note_on_c, 7, 43, 105
9, 475008, Note_on_c, 7, 43, 0
9, 475200, Note_on_c, 7, 58, 105
9, 475776, Note_on_c, 7, 58, 0
9, 475920, Note_on_c, 7, 57, 105
9, 476112, Note_on_c, 7, 57, 0
9, 476160, Note_on_c, 7, 55, 105
9, 476736, Note_on_c, 7, 55, 0
9, 476880, Note_on_c, 7, 53, 105
9, 477072, Note_on_c, 7, 53, 0
9, 477120, Note_on_c, 7, 51, 105
9, 477696, Note_on_c, 7, 51, 0
9, 477840, Note_on_c, 7, 50, 105
9, 478032, Note_on_c, 7, 50, 0
9, 478080, Note_on_c, 7, 48, 105
9, 478440, Note_on_c, 7, 48, 0
9, 478560, Note_on_c, 7, 60, 105
9, 478740, Note_on_c, 7, 60, 0
9, 478800, Note_on_c, 7, 58, 105
9, 478980, Note_on_c, 7, 58, 0
9, 479040, Note_on_c, 7, 57, 105
9, 479220, Note_on_c, 7, 57, 0
9, 479280, Note_on_c, 7, 55, 105
9, 479460, Note_on_c, 7, 55, 0
9, 479520, Note_on_c, 7, 54, 105
9, 479700, Note_on_c, 7, 54, 0
9, 479760, Note_on_c, 7, 55, 105
9, 479940, Note_on_c, 7, 55, 0
9, 480000, Note_on_c, 7, 54, 105
9, 480360, Note_on_c, 7, 54, 0
9, 480480, Note_on_c, 7, 60, 105
9, 480660, Note_on_c, 7, 60, 0
9, 480720, Note_on_c, 7, 58, 105
9, 480900, Note_on_c, 7, 58, 0
9, 480960, Note_on_c, 7, 57, 105
9, 481140, Note_on_c, 7, 57, 0
9, 481200, Note_on_c, 7, 55, 105
9, 481380, Note_on_c, 7, 55, 0
9, 481440, Note_on_c, 7, 54, 105
9, 481620, Note_on_c, 7, 54, 0
9, 481680, Note_on_c, 7, 55, 105
9, 481860, Note_on_c, 7, 55, 0
9, 481920, Note_on_c, 7, 54, 105
9, 482280, Note_on_c, 7, 54, 0
9, 482400, Note_on_c, 7, 60, 105
9, 482580, Note_on_c, 7, 60, 0
9, 482640, Note_on_c, 7, 58, 105
9, 482820, Note_on_c, 7, 58, 0
9, 482880, Note_on_c, 7, 57, 105
9, 483060, Note_on_c, 7, 57, 0
9, 483120, Note_on_c, 7, 55, 105
9, 483300, Note_on_c, 7, 55, 0
9, 483360, Note_on_c, 7, 54, 105
9, 483540, Note_on_c, 7, 54, 0
9, 483600, Note_on_c, 7, 55, 105
9, 483780, Note_on_c, 7, 55, 0
9, 483840, Note_on_c, 7, 54, 105
9, 484128, Note_on_c, 7, 54, 0
9, 484320, Note_on_c, 7, 55, 105
9, 484608, Note_on_c, 7, 55, 0
9, 484800, Note_on_c, 7, 48, 105
9, 485088, Note_on_c, 7, 48, 0
9, 485280, Note_on_c, 7, 50, 105
9, 485568, Note_on_c, 7, 50, 0
9, 485760, Note_on_c, 7, 43, 110
9, 486144, Note_on_c, 7, 43, 0
9, 486240, Note_on_c, 7, 48, 70
9, 486420, Note_on_c, 7, 48, 0
9, 486480, Note_on_c, 7, 46, 70
9, 486660, Note_on_c, 7, 46, 0
9, 486720, Note_on_c, 7, 45, 70
9, 486900, Note_on_c, 7, 45, 0
9, 486960, Note_on_c, 7, 43, 70
9, 487140, Note_on_c, 7, 43, 0
9, 487200, Note_on_c, 7, 42, 70
9, 487380, Note_on_c, 7, 42, 0
9, 487440, Note_on_c, 7, 43, 70
9, 487620, Note_on_c, 7, 43, 0
9, 487680, Note_on_c, 7, 42, 70
9, 487968, Note_on_c, 7, 42, 0
9, 488160, Note_on_c, 7, 48, 70
9, 488340, Note_on_c, 7, 48, 0
9, 488400, Note_on_c, 7, 46, 70
9, 488580, Note_on_c, 7, 46, 0
9, 488640, Note_on_c, 7, 45, 70
9, 488820, Note_on_c, 7, 45, 0
9, 488880, Note_on_c, 7, 43, 70
9, 489060, Note_on_c, 7, 43, 0
9, 489120, Note_on_c, 7, 42, 70
9, 489300, Note_on_c, 7, 42, 0
9, 489360, Note_on_c, 7, 43, 70
9, 489540, Note_on_c, 7, 43, 0
9, 489600, Note_on_c, 7, 42, 70
9, 489888, Note_on_c, 7, 42, 0
9, 490080, Note_on_c, 7, 60, 105
9, 490260, Note_on_c, 7, 60, 0
9, 490320, Note_on_c, 7, 58, 105
9, 490500, Note_on_c, 7, 58, 0
9, 490560, Note_on_c, 7, 57, 105
9, 490740, Note_on_c, 7, 57, 0
9, 490800, Note_on_c, 7, 55, 105
9, 490980, Note_on_c, 7, 55, 0
9, 491040, Note_on_c, 7, 54, 105
9, 491220, Note_on_c, 7, 54, 0
9, 491280, Note_on_c, 7, 55, 105
9, 491460, Note_on_c, 7, 55, 0
9, 491520, Note_on_c, 7, 54, 105
9, 491808, Note_on_c, 7, 54, 0
9, 492000, Note_on_c, 7, 55, 105
9, 492288, Note_on_c, 7, 55, 0
9, 492480, Note_on_c, 7, 48, 105
9, 492768, Note_on_c, 7, 48, 0
9, 492960, Note_on_c, 7, 50, 105
9, 493248, Note_on_c, 7, 50, 0
9, 493440, Note_on_c, 7, 43, 105
9, 493728, Note_on_c, 7, 43, 0
9, 493920, Note_on_c, 7, 43, 105
9, 494208, Note_on_c, 7, 43, 0
9, 494400, Note_on_c, 7, 58, 105
9, 494976, Note_on_c, 7, 58, 0
9, 495120, Note_on_c, 7, 57, 105
9, 495312, Note_on_c, 7, 57, 0
9, 495360, Note_on_c, 7, 55, 105
9, 495648, Note_on_c, 7, 55, 0
9, 495840, Note_on_c, 7, 43, 105
9, 496128, Note_on_c, 7, 43, 0
9, 496320, Note_on_c, 7, 58, 105
9, 496896, Note_on_c, 7, 58, 0
9, 497040, Note_on_c, 7, 57, 105
9, 497232, Note_on_c, 7, 57, 0
9, 497280, Note_on_c, 7, 55, 105
9, 498048, Note_on_c, 7, 55, 0
9, 504960, Note_on_c, 7, 55, 105
9, 505344, Note_on_c, 7, 55, 0
9, 505440, Note_on_c, 7, 56, 105
9, 505632, Note_on_c, 7, 56, 0
9, 505680, Note_on_c, 7, 53, 105
9, 505872, Note_on_c, 7, 53, 0
9, 505920, Note_on_c, 7, 51, 105
9, 506304, Note_on_c, 7, 51, 0
9, 506400, Note_on_c, 7, 53, 105
9, 506592, Note_on_c, 7, 53, 0
9, 506640, Note_on_c, 7, 50, 105
9, 506832, Note_on_c, 7, 50, 0
9, 506880, Note_on_c, 7, 48, 105
9, 507264, Note_on_c, 7, 48, 0
9, 507360, Note_on_c, 7, 50, 105
9, 507552, Note_on_c, 7, 50, 0
9, 507600, Note_on_c, 7, 46, 105
9, 507792, Note_on_c, 7, 46, 0
9, 507840, Note_on_c, 7, 45, 105
9, 508224, Note_on_c, 7, 45, 0
9, 508320, Note_on_c, 7, 46, 105
9, 508512, Note_on_c, 7, 46, 0
9, 508560, Note_on_c, 7, 43, 105
9, 508752, Note_on_c, 7, 43, 0
9, 508800, Note_on_c, 7, 49, 105
9, 509184, Note_on_c, 7, 49, 0
9, 510720, Note_on_c, 7, 58, 105
9, 511032, Note_on_c, 7, 58, 0
9, 511200, Note_on_c, 7, 55, 105
9, 511512, Note_on_c, 7, 55, 0
9, 511680, Note_on_c, 7, 52, 105
9, 511992, Note_on_c, 7, 52, 0
9, 512160, Note_on_c, 7, 49, 105
9, 512472, Note_on_c, 7, 49, 0
9, 512640, Note_on_c, 7, 50, 105
9, 512952, Note_on_c, 7, 50, 0
9, 514080, Note_on_c, 7, 63, 105
9, 514272, Note_on_c, 7, 63, 0
9, 514320, Note_on_c, 7, 62, 105
9, 514512, Note_on_c, 7, 62, 0
9, 514560, Note_on_c, 7, 63, 105
9, 514944, Note_on_c, 7, 63, 0
9, 516000, Note_on_c, 7, 62, 105
9, 516192, Note_on_c, 7, 62, 0
9, 516240, Note_on_c, 7, 61, 105
9, 516432, Note_on_c, 7, 61, 0
9, 516480, Note_on_c, 7, 62, 105
9, 517248, Note_on_c, 7, 62, 0
9, 517440, Note_on_c, 7, 50, 105
9, 518208, Note_on_c, 7, 50, 0
9, 518400, Note_on_c, 7, 55, 105
9, 519360, Note_on_c, 7, 55, 0
9, 519360, End_track
10, 0, Start_track
10, 0, Program_c, 8, 43
10, 0, Control_c, 8, 7, 127
10, 0, Control_c, 8, 10, 75
10, 0, Control_c, 8, 91, 90
10, 1920, Note_on_c, 8, 43, 58
10, 2232, Note_on_c, 8, 43, 0
10, 2400, Note_on_c, 8, 38, 58
10, 2712, Note_on_c, 8, 38, 0
10, 2880, Note_on_c, 8, 46, 58
10, 3420, Note_on_c, 8, 46, 0
10, 3600, Note_on_c, 8, 45, 58
10, 3756, Note_on_c, 8, 45, 0
10, 3840, Note_on_c, 8, 43, 58
10, 4152, Note_on_c, 8, 43, 0
10, 4320, Note_on_c, 8, 46, 58
10, 4800, Note_on_c, 8, 46, 0
10, 4800, Note_on_c, 8, 45, 58
10, 5280, Note_on_c, 8, 45, 0
10, 5280, Note_on_c, 8, 43, 58
10, 5736, Note_on_c, 8, 43, 0
10, 5760, Note_on_c, 8, 42, 58
10, 6072, Note_on_c, 8, 42, 0
10, 6240, Note_on_c, 8, 38, 58
10, 6552, Note_on_c, 8, 38, 0
10, 6720, Note_on_c, 8, 48, 58
10, 7260, Note_on_c, 8, 48, 0
10, 7440, Note_on_c, 8, 46, 58
10, 7596, Note_on_c, 8, 46, 0
10, 7680, Note_on_c, 8, 45, 58
10, 7992, Note_on_c, 8, 45, 0
10, 8160, Note_on_c, 8, 48, 58
10, 8640, Note_on_c, 8, 48, 0
10, 8640, Note_on_c, 8, 46, 58
10, 9120, Note_on_c, 8, 46, 0
10, 9120, Note_on_c, 8, 45, 58
10, 9576, Note_on_c, 8, 45, 0
10, 9600, Note_on_c, 8, 43, 58
10, 9912, Note_on_c, 8, 43, 0
10, 10080, Note_on_c, 8, 46, 58
10, 10392, Note_on_c, 8, 46, 0
10, 10560, Note_on_c, 8, 51, 58
10, 11064, Note_on_c, 8, 51, 0
10, 11280, Note_on_c, 8, 50, 58
10, 11436, Note_on_c, 8, 50, 0
10, 11520, Note_on_c, 8, 48, 58
10, 11832, Note_on_c, 8, 48, 0
10, 12000, Note_on_c, 8, 45, 58
10, 12312, Note_on_c, 8, 45, 0
10, 12480, Note_on_c, 8, 50, 58
10, 12984, Note_on_c, 8, 50, 0
10, 13200, Note_on_c, 8, 48, 58
10, 13356, Note_on_c, 8, 48, 0
10, 13440, Note_on_c, 8, 46, 58
10, 13752, Note_on_c, 8, 46, 0
10, 13920, Note_on_c, 8, 43, 58
10, 14232, Note_on_c, 8, 43, 0
10, 14400, Note_on_c, 8, 39, 58
10, 14712, Note_on_c, 8, 39, 0
10, 14880, Note_on_c, 8, 37, 58
10, 15192, Note_on_c, 8, 37, 0
10, 15360, Note_on_c, 8, 38, 58
10, 15672, Note_on_c, 8, 38, 0
10, 15840, Note_on_c, 8, 48, 58
10, 16320, Note_on_c, 8, 48, 0
10, 16320, Note_on_c, 8, 46, 58
10, 16800, Note_on_c, 8, 46, 0
10, 16800, Note_on_c, 8, 45, 58
10, 17112, Note_on_c, 8, 45, 0
10, 17280, Note_on_c, 8, 43, 105
10, 17592, Note_on_c, 8, 43, 0
10, 17760, Note_on_c, 8, 38, 105
10, 18072, Note_on_c, 8, 38, 0
10, 18240, Note_on_c, 8, 46, 105
10, 18816, Note_on_c, 8, 46, 0
10, 18960, Note_on_c, 8, 45, 105
10, 19116, Note_on_c, 8, 45, 0
10, 19200, Note_on_c, 8, 43, 105
10, 19512, Note_on_c, 8, 43, 0
10, 19680, Note_on_c, 8, 46, 105
10, 20160, Note_on_c, 8, 46, 0
10, 20160, Note_on_c, 8, 45, 105
10, 20640, Note_on_c, 8, 45, 0
10, 20640, Note_on_c, 8, 43, 105
10, 21120, Note_on_c, 8, 43, 0
10, 21120, Note_on_c, 8, 42, 105
10, 21432, Note_on_c, 8, 42, 0
10, 21600, Note_on_c, 8, 38, 105
10, 21912, Note_on_c, 8, 38, 0
10, 22080, Note_on_c, 8, 48, 105
10, 22656, Note_on_c, 8, 48, 0
10, 22800, Note_on_c, 8, 46, 105
10, 22956, Note_on_c, 8, 46, 0
10, 23040, Note_on_c, 8, 45, 105
10, 23352, Note_on_c, 8, 45, 0
10, 23520, Note_on_c, 8, 48, 105
10, 24000, Note_on_c, 8, 48, 0
10, 24000, Note_on_c, 8, 46, 105
10, 24480, Note_on_c, 8, 46, 0
10, 24480, Note_on_c, 8, 45, 105
10, 24960, Note_on_c, 8, 45, 0
10, 24960, Note_on_c, 8, 43, 105
10, 25272, Note_on_c, 8, 43, 0
10, 25440, Note_on_c, 8, 46, 105
10, 25752, Note_on_c, 8, 46, 0
10, 25920, Note_on_c, 8, 51, 105
10, 26496, Note_on_c, 8, 51, 0
10, 26640, Note_on_c, 8, 50, 105
10, 26796, Note_on_c, 8, 50, 0
10, 26880, Note_on_c, 8, 48, 105
10, 27192, Note_on_c, 8, 48, 0
10, 27360, Note_on_c, 8, 45, 105
10, 27672, Note_on_c, 8, 45, 0
10, 27840, Note_on_c, 8, 50, 105
10, 28560, Note_on_c, 8, 50, 0
10, 28560, Note_on_c, 8, 48, 105
10, 28752, Note_on_c, 8, 48, 0
10, 28800, Note_on_c, 8, 46, 105
10, 29112, Note_on_c, 8, 46, 0
10, 29280, Note_on_c, 8, 39, 105
10, 29592, Note_on_c, 8, 39, 0
10, 29760, Note_on_c, 8, 36, 105
10, 30072, Note_on_c, 8, 36, 0
10, 30240, Note_on_c, 8, 38, 105
10, 30552, Note_on_c, 8, 38, 0
10, 30720, Note_on_c, 8, 31, 105
10, 31488, Note_on_c, 8, 31, 0
10, 33600, Note_on_c, 8, 45, 58
10, 34368, Note_on_c, 8, 45, 0
10, 34560, Note_on_c, 8, 45, 58
10, 35520, Note_on_c, 8, 45, 0
10, 35520, Note_on_c, 8, 46, 58
10, 35904, Note_on_c, 8, 46, 0
10, 37920, Note_on_c, 8, 39, 58
10, 38304, Note_on_c, 8, 39, 0
10, 38400, Note_on_c, 8, 41, 58
10, 39360, Note_on_c, 8, 41, 0
10, 39360, Note_on_c, 8, 41, 58
10, 39744, Note_on_c, 8, 41, 0
10, 41280, Note_on_c, 8, 33, 58
10, 42048, Note_on_c, 8, 33, 0
10, 42240, Note_on_c, 8, 33, 58
10, 43200, Note_on_c, 8, 33, 0
10, 43200, Note_on_c, 8, 34, 58
10, 43584, Note_on_c, 8, 34, 0
10, 43680, Note_on_c, 8, 43, 58
10, 44544, Note_on_c, 8, 43, 0
10, 44640, Note_on_c, 8, 38, 58
10, 45600, Note_on_c, 8, 38, 0
10, 45600, Note_on_c, 8, 39, 58
10, 45984, Note_on_c, 8, 39, 0
10, 46080, Note_on_c, 8, 41, 58
10, 47424, Note_on_c, 8, 41, 0
10, 50880, Note_on_c, 8, 51, 105
10, 51036, Note_on_c, 8, 51, 0
10, 51120, Note_on_c, 8, 50, 105
10, 51276, Note_on_c, 8, 50, 0
10, 51360, Note_on_c, 8, 48, 105
10, 51516, Note_on_c, 8, 48, 0
10, 51600, Note_on_c, 8, 46, 105
10, 51756, Note_on_c, 8, 46, 0
10, 51840, Note_on_c, 8, 45, 105
10, 52080, Note_on_c, 8, 45, 0
10, 52080, Note_on_c, 8, 46, 105
10, 52236, Note_on_c, 8, 46, 0
10, 52320, Note_on_c, 8, 45, 105
10, 52476, Note_on_c, 8, 45, 0
10, 52560, Note_on_c, 8, 43, 105
10, 52716, Note_on_c, 8, 43, 0
10, 52800, Note_on_c, 8, 41, 105
10, 52956, Note_on_c, 8, 41, 0
10, 53040, Note_on_c, 8, 39, 105
10, 53196, Note_on_c, 8, 39, 0
10, 53280, Note_on_c, 8, 38, 105
10, 53436, Note_on_c, 8, 38, 0
10, 53520, Note_on_c, 8, 36, 105
10, 53676, Note_on_c, 8, 36, 0
10, 53760, Note_on_c, 8, 34, 105
10, 54144, Note_on_c, 8, 34, 0
10, 54720, Note_on_c, 8, 46, 105
10, 55296, Note_on_c, 8, 46, 0
10, 55440, Note_on_c, 8, 45, 105
10, 55632, Note_on_c, 8, 45, 0
10, 55680, Note_on_c, 8, 43, 105
10, 55920, Note_on_c, 8, 43, 0
10, 56160, Note_on_c, 8, 45, 105
10, 56400, Note_on_c, 8, 45, 0
10, 56640, Note_on_c, 8, 43, 105
10, 57216, Note_on_c, 8, 43, 0
10, 57360, Note_on_c, 8, 41, 105
10, 57552, Note_on_c, 8, 41, 0
10, 57600, Note_on_c, 8, 40, 105
10, 57840, Note_on_c, 8, 40, 0
10, 58080, Note_on_c, 8, 41, 105
10, 58320, Note_on_c, 8, 41, 0
10, 58560, Note_on_c, 8, 39, 105
10, 59136, Note_on_c, 8, 39, 0
10, 59280, Note_on_c, 8, 38, 105
10, 59472, Note_on_c, 8, 38, 0
10, 59520, Note_on_c, 8, 36, 105
10, 59760, Note_on_c, 8, 36, 0
10, 60000, Note_on_c, 8, 38, 105
10, 60240, Note_on_c, 8, 38, 0
10, 60480, Note_on_c, 8, 48, 105
10, 60720, Note_on_c, 8, 48, 0
10, 60720, Note_on_c, 8, 50, 105
10, 60960, Note_on_c, 8, 50, 0
10, 60960, Note_on_c, 8, 51, 105
10, 61152, Note_on_c, 8, 51, 0
10, 61200, Note_on_c, 8, 50, 105
10, 61344, Note_on_c, 8, 50, 0
10, 61440, Note_on_c, 8, 48, 105
10, 61584, Note_on_c, 8, 48, 0
10, 61680, Note_on_c, 8, 46, 105
10, 61824, Note_on_c, 8, 46, 0
10, 61920, Note_on_c, 8, 45, 105
10, 62064, Note_on_c, 8, 45, 0
10, 62160, Note_on_c, 8, 43, 105
10, 62304, Note_on_c, 8, 43, 0
10, 62400, Note_on_c, 8, 41, 105
10, 62640, Note_on_c, 8, 41, 0
10, 62640, Note_on_c, 8, 43, 105
10, 62880, Note_on_c, 8, 43, 0
10, 62880, Note_on_c, 8, 45, 105
10, 63120, Note_on_c, 8, 45, 0
10, 63120, Note_on_c, 8, 41, 105
10, 63312, Note_on_c, 8, 41, 0
10, 63360, Note_on_c, 8, 46, 105
10, 63552, Note_on_c, 8, 46, 0
10, 63600, Note_on_c, 8, 45, 105
10, 63792, Note_on_c, 8, 45, 0
10, 63840, Note_on_c, 8, 43, 105
10, 64032, Note_on_c, 8, 43, 0
10, 64080, Note_on_c, 8, 41, 105
10, 64272, Note_on_c, 8, 41, 0
10, 64320, Note_on_c, 8, 39, 105
10, 64512, Note_on_c, 8, 39, 0
10, 64560, Note_on_c, 8, 38, 105
10, 64752, Note_on_c, 8, 38, 0
10, 64800, Note_on_c, 8, 36, 105
10, 64992, Note_on_c, 8, 36, 0
10, 65040, Note_on_c, 8, 34, 105
10, 65232, Note_on_c, 8, 34, 0
10, 65280, Note_on_c, 8, 39, 105
10, 65592, Note_on_c, 8, 39, 0
10, 65760, Note_on_c, 8, 39, 105
10, 66072, Note_on_c, 8, 39, 0
10, 66240, Note_on_c, 8, 41, 105
10, 66552, Note_on_c, 8, 41, 0
10, 66720, Note_on_c, 8, 29, 105
10, 67032, Note_on_c, 8, 29, 0
10, 67200, Note_on_c, 8, 34, 105
10, 67512, Note_on_c, 8, 34, 0
10, 67680, Note_on_c, 8, 41, 105
10, 67992, Note_on_c, 8, 41, 0
10, 68160, Note_on_c, 8, 50, 105
10, 68736, Note_on_c, 8, 50, 0
10, 68880, Note_on_c, 8, 48, 105
10, 69072, Note_on_c, 8, 48, 0
10, 69120, Note_on_c, 8, 46, 105
10, 69408, Note_on_c, 8, 46, 0
10, 69600, Note_on_c, 8, 41, 105
10, 69888, Note_on_c, 8, 41, 0
10, 70080, Note_on_c, 8, 38, 105
10, 70368, Note_on_c, 8, 38, 0
10, 70560, Note_on_c, 8, 34, 105
10, 70848, Note_on_c, 8, 34, 0
10, 71040, Note_on_c, 8, 41, 92
10, 71352, Note_on_c, 8, 41, 0
10, 78720, Note_on_c, 8, 34, 70
10, 79488, Note_on_c, 8, 34, 0
10, 80640, Note_on_c, 8, 41, 70
10, 81408, Note_on_c, 8, 41, 0
10, 82560, Note_on_c, 8, 46, 70
10, 84480, Note_on_c, 8, 46, 0
10, 84480, Note_on_c, 8, 41, 70
10, 86304, Note_on_c, 8, 41, 0
10, 86400, Note_on_c, 8, 38, 70
10, 87168, Note_on_c, 8, 38, 0
10, 88320, Note_on_c, 8, 41, 70
10, 89088, Note_on_c, 8, 41, 0
10, 90240, Note_on_c, 8, 46, 70
10, 92160, Note_on_c, 8, 46, 0
10, 92160, Note_on_c, 8, 41, 70
10, 93984, Note_on_c, 8, 41, 0
10, 94080, Note_on_c, 8, 34, 105
10, 94392, Note_on_c, 8, 34, 0
10, 94560, Note_on_c, 8, 41, 105
10, 94872, Note_on_c, 8, 41, 0
10, 95040, Note_on_c, 8, 50, 105
10, 95616, Note_on_c, 8, 50, 0
10, 95760, Note_on_c, 8, 48, 105
10, 95952, Note_on_c, 8, 48, 0
10, 96000, Note_on_c, 8, 46, 105
10, 96312, Note_on_c, 8, 46, 0
10, 96480, Note_on_c, 8, 41, 105
10, 96792, Note_on_c, 8, 41, 0
10, 96960, Note_on_c, 8, 50, 105
10, 97272, Note_on_c, 8, 50, 0
10, 97440, Note_on_c, 8, 46, 105
10, 97752, Note_on_c, 8, 46, 0
10, 97920, Note_on_c, 8, 48, 105
10, 98232, Note_on_c, 8, 48, 0
10, 98400, Note_on_c, 8, 41, 105
10, 98712, Note_on_c, 8, 41, 0
10, 98880, Note_on_c, 8, 51, 105
10, 99456, Note_on_c, 8, 51, 0
10, 99600, Note_on_c, 8, 50, 105
10, 99792, Note_on_c, 8, 50, 0
10, 99840, Note_on_c, 8, 48, 105
10, 100152, Note_on_c, 8, 48, 0
10, 100320, Note_on_c, 8, 41, 105
10, 100632, Note_on_c, 8, 41, 0
10, 100800, Note_on_c, 8, 51, 105
10, 101112, Note_on_c, 8, 51, 0
10, 101280, Note_on_c, 8, 48, 105
10, 101592, Note_on_c, 8, 48, 0
10, 101760, Note_on_c, 8, 46, 105
10, 102072, Note_on_c, 8, 46, 0
10, 102240, Note_on_c, 8, 50, 105
10, 102474, Note_on_c, 8, 50, 0
10, 102600, Note_on_c, 8, 46, 105
10, 102678, Note_on_c, 8, 46, 0
10, 102720, Note_on_c, 8, 38, 105
10, 103032, Note_on_c, 8, 38, 0
10, 103200, Note_on_c, 8, 46, 105
10, 103434, Note_on_c, 8, 46, 0
10, 103560, Note_on_c, 8, 38, 105
10, 103638, Note_on_c, 8, 38, 0
10, 103680, Note_on_c, 8, 39, 105
10, 103992, Note_on_c, 8, 39, 0
10, 104160, Note_on_c, 8, 46, 105
10, 104394, Note_on_c, 8, 46, 0
10, 104520, Note_on_c, 8, 39, 105
10, 104598, Note_on_c, 8, 39, 0
10, 104640, Note_on_c, 8, 43, 105
10, 104952, Note_on_c, 8, 43, 0
10, 105120, Note_on_c, 8, 46, 105
10, 105354, Note_on_c, 8, 46, 0
10, 105480, Note_on_c, 8, 43, 105
10, 105558, Note_on_c, 8, 43, 0
10, 105600, Note_on_c, 8, 45, 105
10, 105912, Note_on_c, 8, 45, 0
10, 106080, Note_on_c, 8, 48, 105
10, 106314, Note_on_c, 8, 48, 0
10, 106440, Note_on_c, 8, 45, 105
10, 106518, Note_on_c, 8, 45, 0
10, 106560, Note_on_c, 8, 41, 105
10, 106872, Note_on_c, 8, 41, 0
10, 107040, Note_on_c, 8, 45, 105
10, 107274, Note_on_c, 8, 45, 0
10, 107400, Note_on_c, 8, 41, 105
10, 107478, Note_on_c, 8, 41, 0
10, 107520, Note_on_c, 8, 43, 105
10, 107832, Note_on_c, 8, 43, 0
10, 108000, Note_on_c, 8, 38, 105
10, 108312, Note_on_c, 8, 38, 0
10, 108480, Note_on_c, 8, 39, 105
10, 108792, Note_on_c, 8, 39, 0
10, 108960, Note_on_c, 8, 41, 105
10, 109272, Note_on_c, 8, 41, 0
10, 109440, Note_on_c, 8, 46, 105
10, 109752, Note_on_c, 8, 46, 0
10, 109920, Note_on_c, 8, 50, 105
10, 110154, Note_on_c, 8, 50, 0
10, 110280, Note_on_c, 8, 46, 105
10, 110358, Note_on_c, 8, 46, 0
10, 110400, Note_on_c, 8, 38, 105
10, 110712, Note_on_c, 8, 38, 0
10, 110880, Note_on_c, 8, 46, 105
10, 111114, Note_on_c, 8, 46, 0
10, 111240, Note_on_c, 8, 38, 105
10, 111318, Note_on_c, 8, 38, 0
10, 111360, Note_on_c, 8, 39, 105
10, 111672, Note_on_c, 8, 39, 0
10, 111840, Note_on_c, 8, 46, 105
10, 112074, Note_on_c, 8, 46, 0
10, 112200, Note_on_c, 8, 39, 105
10, 112278, Note_on_c, 8, 39, 0
10, 112320, Note_on_c, 8, 43, 105
10, 112632, Note_on_c, 8, 43, 0
10, 112800, Note_on_c, 8, 46, 105
10, 113034, Note_on_c, 8, 46, 0
10, 113160, Note_on_c, 8, 43, 105
10, 113238, Note_on_c, 8, 43, 0
10, 113280, Note_on_c, 8, 45, 105
10, 113592, Note_on_c, 8, 45, 0
10, 113760, Note_on_c, 8, 48, 105
10, 113994, Note_on_c, 8, 48, 0
10, 114120, Note_on_c, 8, 45, 105
10, 114198, Note_on_c, 8, 45, 0
10, 114240, Note_on_c, 8, 41, 105
10, 114552, Note_on_c, 8, 41, 0
10, 114720, Note_on_c, 8, 45, 105
10, 114954, Note_on_c, 8, 45, 0
10, 115080, Note_on_c, 8, 41, 105
10, 115158, Note_on_c, 8, 41, 0
10, 115200, Note_on_c, 8, 43, 105
10, 115512, Note_on_c, 8, 43, 0
10, 115680, Note_on_c, 8, 38, 105
10, 115992, Note_on_c, 8, 38, 0
10, 116160, Note_on_c, 8, 39, 105
10, 116472, Note_on_c, 8, 39, 0
10, 116640, Note_on_c, 8, 41, 105
10, 116952, Note_on_c, 8, 41, 0
10, 117120, Note_on_c, 8, 46, 105
10, 117432, Note_on_c, 8, 46, 0
10, 117600, Note_on_c, 8, 34, 105
10, 117912, Note_on_c, 8, 34, 0
10, 118080, Note_on_c, 8, 50, 105
10, 118656, Note_on_c, 8, 50, 0
10, 118800, Note_on_c, 8, 48, 105
10, 118992, Note_on_c, 8, 48, 0
10, 119040, Note_on_c, 8, 46, 105
10, 119616, Note_on_c, 8, 46, 0
10, 119760, Note_on_c, 8, 45, 105
10, 119952, Note_on_c, 8, 45, 0
10, 120000, Note_on_c, 8, 43, 105
10, 120576, Note_on_c, 8, 43, 0
10, 120720, Note_on_c, 8, 41, 105
10, 120912, Note_on_c, 8, 41, 0
10, 120960, Note_on_c, 8, 39, 105
10, 121344, Note_on_c, 8, 39, 0
10, 121440, Note_on_c, 8, 51, 105
10, 121632, Note_on_c, 8, 51, 0
10, 121680, Note_on_c, 8, 50, 105
10, 121872, Note_on_c, 8, 50, 0
10, 121920, Note_on_c, 8, 48, 105
10, 122112, Note_on_c, 8, 48, 0
10, 122160, Note_on_c, 8, 46, 105
10, 122352, Note_on_c, 8, 46, 0
10, 122400, Note_on_c, 8, 45, 105
10, 122592, Note_on_c, 8, 45, 0
10, 122640, Note_on_c, 8, 46, 105
10, 122832, Note_on_c, 8, 46, 0
10, 122880, Note_on_c, 8, 45, 105
10, 123264, Note_on_c, 8, 45, 0
10, 123360, Note_on_c, 8, 51, 105
10, 123552, Note_on_c, 8, 51, 0
10, 123600, Note_on_c, 8, 50, 105
10, 123792, Note_on_c, 8, 50, 0
10, 123840, Note_on_c, 8, 48, 105
10, 124032, Note_on_c, 8, 48, 0
10, 124080, Note_on_c, 8, 46, 105
10, 124272, Note_on_c, 8, 46, 0
10, 124320, Note_on_c, 8, 45, 105
10, 124512, Note_on_c, 8, 45, 0
10, 124560, Note_on_c, 8, 46, 105
10, 124752, Note_on_c, 8, 46, 0
10, 124800, Note_on_c, 8, 45, 105
10, 125184, Note_on_c, 8, 45, 0
10, 125280, Note_on_c, 8, 51, 105
10, 125472, Note_on_c, 8, 51, 0
10, 125520, Note_on_c, 8, 50, 105
10, 125712, Note_on_c, 8, 50, 0
10, 125760, Note_on_c, 8, 48, 105
10, 125952, Note_on_c, 8, 48, 0
10, 126000, Note_on_c, 8, 46, 105
10, 126192, Note_on_c, 8, 46, 0
10, 126240, Note_on_c, 8, 45, 105
10, 126432, Note_on_c, 8, 45, 0
10, 126480, Note_on_c, 8, 46, 105
10, 126672, Note_on_c, 8, 46, 0
10, 126720, Note_on_c, 8, 45, 105
10, 127032, Note_on_c, 8, 45, 0
10, 127200, Note_on_c, 8, 46, 105
10, 127512, Note_on_c, 8, 46, 0
10, 127680, Note_on_c, 8, 39, 105
10, 127992, Note_on_c, 8, 39, 0
10, 128160, Note_on_c, 8, 41, 105
10, 128472, Note_on_c, 8, 41, 0
10, 128640, Note_on_c, 8, 34, 110
10, 129024, Note_on_c, 8, 34, 0
10, 129120, Note_on_c, 8, 39, 58
10, 129312, Note_on_c, 8, 39, 0
10, 129360, Note_on_c, 8, 38, 58
10, 129552, Note_on_c, 8, 38, 0
10, 129600, Note_on_c, 8, 36, 58
10, 129792, Note_on_c, 8, 36, 0
10, 129840, Note_on_c, 8, 34, 58
10, 130032, Note_on_c, 8, 34, 0
10, 130080, Note_on_c, 8, 33, 58
10, 130272, Note_on_c, 8, 33, 0
10, 130320, Note_on_c, 8, 34, 58
10, 130512, Note_on_c, 8, 34, 0
10, 130560, Note_on_c, 8, 33, 58
10, 130944, Note_on_c, 8, 33, 0
10, 131040, Note_on_c, 8, 39, 58
10, 131232, Note_on_c, 8, 39, 0
10, 131280, Note_on_c, 8, 38, 58
10, 131472, Note_on_c, 8, 38, 0
10, 131520, Note_on_c, 8, 36, 58
10, 131712, Note_on_c, 8, 36, 0
10, 131760, Note_on_c, 8, 34, 58
10, 131952, Note_on_c, 8, 34, 0
10, 132000, Note_on_c, 8, 33, 58
10, 132192, Note_on_c, 8, 33, 0
10, 132240, Note_on_c, 8, 34, 58
10, 132432, Note_on_c, 8, 34, 0
10, 132480, Note_on_c, 8, 33, 58
10, 132864, Note_on_c, 8, 33, 0
10, 132960, Note_on_c, 8, 51, 105
10, 133152, Note_on_c, 8, 51, 0
10, 133200, Note_on_c, 8, 50, 105
10, 133392, Note_on_c, 8, 50, 0
10, 133440, Note_on_c, 8, 48, 105
10, 133632, Note_on_c, 8, 48, 0
10, 133680, Note_on_c, 8, 46, 105
10, 133872, Note_on_c, 8, 46, 0
10, 133920, Note_on_c, 8, 45, 105
10, 134112, Note_on_c, 8, 45, 0
10, 134160, Note_on_c, 8, 46, 105
10, 134352, Note_on_c, 8, 46, 0
10, 134400, Note_on_c, 8, 45, 105
10, 134712, Note_on_c, 8, 45, 0
10, 134880, Note_on_c, 8, 46, 105
10, 135192, Note_on_c, 8, 46, 0
10, 135360, Note_on_c, 8, 39, 105
10, 135672, Note_on_c, 8, 39, 0
10, 135840, Note_on_c, 8, 41, 105
10, 136152, Note_on_c, 8, 41, 0
10, 136320, Note_on_c, 8, 34, 105
10, 136632, Note_on_c, 8, 34, 0
10, 136800, Note_on_c, 8, 34, 105
10, 137112, Note_on_c, 8, 34, 0
10, 137280, Note_on_c, 8, 50, 105
10, 137856, Note_on_c, 8, 50, 0
10, 138000, Note_on_c, 8, 48, 105
10, 138192, Note_on_c, 8, 48, 0
10, 138240, Note_on_c, 8, 46, 105
10, 138552, Note_on_c, 8, 46, 0
10, 138720, Note_on_c, 8, 34, 105
10, 139032, Note_on_c, 8, 34, 0
10, 139200, Note_on_c, 8, 50, 105
10, 139776, Note_on_c, 8, 50, 0
10, 139920, Note_on_c, 8, 48, 105
10, 140112, Note_on_c, 8, 48, 0
10, 140160, Note_on_c, 8, 46, 105
10, 140928, Note_on_c, 8, 46, 0
10, 147840, Note_on_c, 8, 43, 58
10, 148152, Note_on_c, 8, 43, 0
10, 148320, Note_on_c, 8, 38, 58
10, 148632, Note_on_c, 8, 38, 0
10, 148800, Note_on_c, 8, 46, 58
10, 149340, Note_on_c, 8, 46, 0
10, 149520, Note_on_c, 8, 45, 58
10, 149676, Note_on_c, 8, 45, 0
10, 149760, Note_on_c, 8, 43, 58
10, 150072, Note_on_c, 8, 43, 0
10, 150240, Note_on_c, 8, 46, 58
10, 150720, Note_on_c, 8, 46, 0
10, 150720, Note_on_c, 8, 45, 58
10, 151200, Note_on_c, 8, 45, 0
10, 151200, Note_on_c, 8, 43, 58
10, 151656, Note_on_c, 8, 43, 0
10, 151680, Note_on_c, 8, 42, 58
10, 151992, Note_on_c, 8, 42, 0
10, 152160, Note_on_c, 8, 38, 58
10, 152472, Note_on_c, 8, 38, 0
10, 152640, Note_on_c, 8, 48, 58
10, 153180, Note_on_c, 8, 48, 0
10, 153360, Note_on_c, 8, 46, 58
10, 153516, Note_on_c, 8, 46, 0
10, 153600, Note_on_c, 8, 45, 58
10, 153912, Note_on_c, 8, 45, 0
10, 154080, Note_on_c, 8, 48, 58
10, 154560, Note_on_c, 8, 48, 0
10, 154560, Note_on_c, 8, 46, 58
10, 155040, Note_on_c, 8, 46, 0
10, 155040, Note_on_c, 8, 45, 58
10, 155496, Note_on_c, 8, 45, 0
10, 155520, Note_on_c, 8, 43, 58
10, 155832, Note_on_c, 8, 43, 0
10, 156000, Note_on_c, 8, 46, 58
10, 156312, Note_on_c, 8, 46, 0
10, 156480, Note_on_c, 8, 51, 58
10, 156984, Note_on_c, 8, 51, 0
10, 157200, Note_on_c, 8, 50, 58
10, 157356, Note_on_c, 8, 50, 0
10, 157440, Note_on_c, 8, 48, 58
10, 157752, Note_on_c, 8, 48, 0
10, 157920, Note_on_c, 8, 45, 58
10, 158232, Note_on_c, 8, 45, 0
10, 158400, Note_on_c, 8, 50, 58
10, 158904, Note_on_c, 8, 50, 0
10, 159120, Note_on_c, 8, 48, 58
10, 159276, Note_on_c, 8, 48, 0
10, 159360, Note_on_c, 8, 46, 58
10, 159672, Note_on_c, 8, 46, 0
10, 159840, Note_on_c, 8, 43, 58
10, 160152, Note_on_c, 8, 43, 0
10, 160320, Note_on_c, 8, 39, 58
10, 160632, Note_on_c, 8, 39, 0
10, 160800, Note_on_c, 8, 37, 58
10, 161112, Note_on_c, 8, 37, 0
10, 161280, Note_on_c, 8, 38, 58
10, 161592, Note_on_c, 8, 38, 0
10, 161760, Note_on_c, 8, 48, 58
10, 162240, Note_on_c, 8, 48, 0
10, 162240, Note_on_c, 8, 46, 58
10, 162720, Note_on_c, 8, 46, 0
10, 162720, Note_on_c, 8, 45, 58
10, 163032, Note_on_c, 8, 45, 0
10, 163200, Note_on_c, 8, 43, 105
10, 163512, Note_on_c, 8, 43, 0
10, 163680, Note_on_c, 8, 38, 105
10, 163992, Note_on_c, 8, 38, 0
10, 164160, Note_on_c, 8, 46, 105
10, 164736, Note_on_c, 8, 46, 0
10, 164880, Note_on_c, 8, 45, 105
10, 165036, Note_on_c, 8, 45, 0
10, 165120, Note_on_c, 8, 43, 105
10, 165432, Note_on_c, 8, 43, 0
10, 165600, Note_on_c, 8, 46, 105
10, 166080, Note_on_c, 8, 46, 0
10, 166080, Note_on_c, 8, 45, 105
10, 166560, Note_on_c, 8, 45, 0
10, 166560, Note_on_c, 8, 43, 105
10, 167040, Note_on_c, 8, 43, 0
10, 167040, Note_on_c, 8, 42, 105
10, 167352, Note_on_c, 8, 42, 0
10, 167520, Note_on_c, 8, 38, 105
10, 167832, Note_on_c, 8, 38, 0
10, 168000, Note_on_c, 8, 48, 105
10, 168576, Note_on_c, 8, 48, 0
10, 168720, Note_on_c, 8, 46, 105
10, 168876, Note_on_c, 8, 46, 0
10, 168960, Note_on_c, 8, 45, 105
10, 169272, Note_on_c, 8, 45, 0
10, 169440, Note_on_c, 8, 48, 105
10, 169920, Note_on_c, 8, 48, 0
10, 169920, Note_on_c, 8, 46, 105
10, 170400, Note_on_c, 8, 46, 0
10, 170400, Note_on_c, 8, 45, 105
10, 170880, Note_on_c, 8, 45, 0
10, 170880, Note_on_c, 8, 43, 105
10, 171192, Note_on_c, 8, 43, 0
10, 171360, Note_on_c, 8, 46, 105
10, 171672, Note_on_c, 8, 46, 0
10, 171840, Note_on_c, 8, 51, 105
10, 172416, Note_on_c, 8, 51, 0
10, 172560, Note_on_c, 8, 50, 105
10, 172716, Note_on_c, 8, 50, 0
10, 172800, Note_on_c, 8, 48, 105
10, 173112, Note_on_c, 8, 48, 0
10, 173280, Note_on_c, 8, 45, 105
10, 173592, Note_on_c, 8, 45, 0
10, 173760, Note_on_c, 8, 50, 105
10, 174480, Note_on_c, 8, 50, 0
10, 174480, Note_on_c, 8, 48, 105
10, 174672, Note_on_c, 8, 48, 0
10, 174720, Note_on_c, 8, 46, 105
10, 175032, Note_on_c, 8, 46, 0
10, 175200, Note_on_c, 8, 39, 105
10, 175512, Note_on_c, 8, 39, 0
10, 175680, Note_on_c, 8, 36, 105
10, 175992, Note_on_c, 8, 36, 0
10, 176160, Note_on_c, 8, 38, 105
10, 176472, Note_on_c, 8, 38, 0
10, 176640, Note_on_c, 8, 31, 105
10, 177408, Note_on_c, 8, 31, 0
10, 179520, Note_on_c, 8, 45, 58
10, 180288, Note_on_c, 8, 45, 0
10, 180480, Note_on_c, 8, 45, 58
10, 181440, Note_on_c, 8, 45, 0
10, 181440, Note_on_c, 8, 46, 58
10, 181824, Note_on_c, 8, 46, 0
10, 183840, Note_on_c, 8, 39, 58
10, 184224, Note_on_c, 8, 39, 0
10, 184320, Note_on_c, 8, 41, 58
10, 185280, Note_on_c, 8, 41, 0
10, 185280, Note_on_c, 8, 41, 58
10, 185664, Note_on_c, 8, 41, 0
10, 187200, Note_on_c, 8, 33, 58
10, 187968, Note_on_c, 8, 33, 0
10, 188160, Note_on_c, 8, 33, 58
10, 189120, Note_on_c, 8, 33, 0
10, 189120, Note_on_c, 8, 34, 58
10, 189504, Note_on_c, 8, 34, 0
10, 189600, Note_on_c, 8, 43, 58
10, 190464, Note_on_c, 8, 43, 0
10, 190560, Note_on_c, 8, 38, 58
10, 191520, Note_on_c, 8, 38, 0
10, 191520, Note_on_c, 8, 39, 58
10, 191904, Note_on_c, 8, 39, 0
10, 192000, Note_on_c, 8, 41, 58
10, 193344, Note_on_c, 8, 41, 0
10, 196800, Note_on_c, 8, 51, 105
10, 196956, Note_on_c, 8, 51, 0
10, 197040, Note_on_c, 8, 50, 105
10, 197196, Note_on_c, 8, 50, 0
10, 197280, Note_on_c, 8, 48, 105
10, 197436, Note_on_c, 8, 48, 0
10, 197520, Note_on_c, 8, 46, 105
10, 197676, Note_on_c, 8, 46, 0
10, 197760, Note_on_c, 8, 45, 105
10, 198000, Note_on_c, 8, 45, 0
10, 198000, Note_on_c, 8, 46, 105
10, 198156, Note_on_c, 8, 46, 0
10, 198240, Note_on_c, 8, 45, 105
10, 198396, Note_on_c, 8, 45, 0
10, 198480, Note_on_c, 8, 43, 105
10, 198636, Note_on_c, 8, 43, 0
10, 198720, Note_on_c, 8, 41, 105
10, 198876, Note_on_c, 8, 41, 0
10, 198960, Note_on_c, 8, 39, 105
10, 199116, Note_on_c, 8, 39, 0
10, 199200, Note_on_c, 8, 38, 105
10, 199356, Note_on_c, 8, 38, 0
10, 199440, Note_on_c, 8, 36, 105
10, 199596, Note_on_c, 8, 36, 0
10, 199680, Note_on_c, 8, 34, 105
10, 200064, Note_on_c, 8, 34, 0
10, 200640, Note_on_c, 8, 46, 105
10, 201216, Note_on_c, 8, 46, 0
10, 201360, Note_on_c, 8, 45, 105
10, 201552, Note_on_c, 8, 45, 0
10, 201600, Note_on_c, 8, 43, 105
10, 201840, Note_on_c, 8, 43, 0
10, 202080, Note_on_c, 8, 45, 105
10, 202320, Note_on_c, 8, 45, 0
10, 202560, Note_on_c, 8, 43, 105
10, 203136, Note_on_c, 8, 43, 0
10, 203280, Note_on_c, 8, 41, 105
10, 203472, Note_on_c, 8, 41, 0
10, 203520, Note_on_c, 8, 40, 105
10, 203760, Note_on_c, 8, 40, 0
10, 204000, Note_on_c, 8, 41, 105
10, 204240, Note_on_c, 8, 41, 0
10, 204480, Note_on_c, 8, 39, 105
10, 205056, Note_on_c, 8, 39, 0
10, 205200, Note_on_c, 8, 38, 105
10, 205392, Note_on_c, 8, 38, 0
10, 205440, Note_on_c, 8, 36, 105
10, 205680, Note_on_c, 8, 36, 0
10, 205920, Note_on_c, 8, 38, 105
10, 206160, Note_on_c, 8, 38, 0
10, 206400, Note_on_c, 8, 48, 105
10, 206640, Note_on_c, 8, 48, 0
10, 206640, Note_on_c, 8, 50, 105
10, 206880, Note_on_c, 8, 50, 0
10, 206880, Note_on_c, 8, 51, 105
10, 207072, Note_on_c, 8, 51, 0
10, 207120, Note_on_c, 8, 50, 105
10, 207264, Note_on_c, 8, 50, 0
10, 207360, Note_on_c, 8, 48, 105
10, 207504, Note_on_c, 8, 48, 0
10, 207600, Note_on_c, 8, 46, 105
10, 207744, Note_on_c, 8, 46, 0
10, 207840, Note_on_c, 8, 45, 105
10, 207984, Note_on_c, 8, 45, 0
10, 208080, Note_on_c, 8, 43, 105
10, 208224, Note_on_c, 8, 43, 0
10, 208320, Note_on_c, 8, 41, 105
10, 208560, Note_on_c, 8, 41, 0
10, 208560, Note_on_c, 8, 43, 105
10, 208800, Note_on_c, 8, 43, 0
10, 208800, Note_on_c, 8, 45, 105
10, 209040, Note_on_c, 8, 45, 0
10, 209040, Note_on_c, 8, 41, 105
10, 209232, Note_on_c, 8, 41, 0
10, 209280, Note_on_c, 8, 46, 105
10, 209472, Note_on_c, 8, 46, 0
10, 209520, Note_on_c, 8, 45, 105
10, 209712, Note_on_c, 8, 45, 0
10, 209760, Note_on_c, 8, 43, 105
10, 209952, Note_on_c, 8, 43, 0
10, 210000, Note_on_c, 8, 41, 105
10, 210192, Note_on_c, 8, 41, 0
10, 210240, Note_on_c, 8, 39, 105
10, 210432, Note_on_c, 8, 39, 0
10, 210480, Note_on_c, 8, 38, 105
10, 210672, Note_on_c, 8, 38, 0
10, 210720, Note_on_c, 8, 36, 105
10, 210912, Note_on_c, 8, 36, 0
10, 210960, Note_on_c, 8, 34, 105
10, 211152, Note_on_c, 8, 34, 0
10, 211200, Note_on_c, 8, 39, 105
10, 211512, Note_on_c, 8, 39, 0
10, 211680, Note_on_c, 8, 39, 105
10, 211992, Note_on_c, 8, 39, 0
10, 212160, Note_on_c, 8, 41, 105
10, 212472, Note_on_c, 8, 41, 0
10, 212640, Note_on_c, 8, 29, 105
10, 212952, Note_on_c, 8, 29, 0
10, 213120, Note_on_c, 8, 34, 105
10, 213432, Note_on_c, 8, 34, 0
10, 213600, Note_on_c, 8, 41, 105
10, 213912, Note_on_c, 8, 41, 0
10, 214080, Note_on_c, 8, 50, 105
10, 214656, Note_on_c, 8, 50, 0
10, 214800, Note_on_c, 8, 48, 105
10, 214992, Note_on_c, 8, 48, 0
10, 215040, Note_on_c, 8, 46, 105
10, 215328, Note_on_c, 8, 46, 0
10, 215520, Note_on_c, 8, 41, 105
10, 215808, Note_on_c, 8, 41, 0
10, 216000, Note_on_c, 8, 38, 105
10, 216288, Note_on_c, 8, 38, 0
10, 216480, Note_on_c, 8, 34, 105
10, 216768, Note_on_c, 8, 34, 0
10, 216960, Note_on_c, 8, 41, 92
10, 217272, Note_on_c, 8, 41, 0
10, 224640, Note_on_c, 8, 34, 70
10, 225408, Note_on_c, 8, 34, 0
10, 226560, Note_on_c, 8, 41, 70
10, 227328, Note_on_c, 8, 41, 0
10, 228480, Note_on_c, 8, 46, 70
10, 230400, Note_on_c, 8, 46, 0
10, 230400, Note_on_c, 8, 41, 70
10, 232224, Note_on_c, 8, 41, 0
10, 232320, Note_on_c, 8, 38, 70
10, 233088, Note_on_c, 8, 38, 0
10, 234240, Note_on_c, 8, 41, 70
10, 235008, Note_on_c, 8, 41, 0
10, 236160, Note_on_c, 8, 46, 70
10, 238080, Note_on_c, 8, 46, 0
10, 238080, Note_on_c, 8, 41, 70
10, 239904, Note_on_c, 8, 41, 0
10, 240000, Note_on_c, 8, 34, 105
10, 240312, Note_on_c, 8, 34, 0
10, 240480, Note_on_c, 8, 41, 105
10, 240792, Note_on_c, 8, 41, 0
10, 240960, Note_on_c, 8, 50, 105
10, 241536, Note_on_c, 8, 50, 0
10, 241680, Note_on_c, 8, 48, 105
10, 241872, Note_on_c, 8, 48, 0
10, 241920, Note_on_c, 8, 46, 105
10, 242232, Note_on_c, 8, 46, 0
10, 242400, Note_on_c, 8, 41, 105
10, 242712, Note_on_c, 8, 41, 0
10, 242880, Note_on_c, 8, 50, 105
10, 243192, Note_on_c, 8, 50, 0
10, 243360, Note_on_c, 8, 46, 105
10, 243672, Note_on_c, 8, 46, 0
10, 243840, Note_on_c, 8, 48, 105
10, 244152, Note_on_c, 8, 48, 0
10, 244320, Note_on_c, 8, 41, 105
10, 244632, Note_on_c, 8, 41, 0
10, 244800, Note_on_c, 8, 51, 105
10, 245376, Note_on_c, 8, 51, 0
10, 245520, Note_on_c, 8, 50, 105
10, 245712, Note_on_c, 8, 50, 0
10, 245760, Note_on_c, 8, 48, 105
10, 246072, Note_on_c, 8, 48, 0
10, 246240, Note_on_c, 8, 41, 105
10, 246552, Note_on_c, 8, 41, 0
10, 246720, Note_on_c, 8, 51, 105
10, 247032, Note_on_c, 8, 51, 0
10, 247200, Note_on_c, 8, 48, 105
10, 247512, Note_on_c, 8, 48, 0
10, 247680, Note_on_c, 8, 46, 105
10, 247992, Note_on_c, 8, 46, 0
10, 248160, Note_on_c, 8, 50, 105
10, 248394, Note_on_c, 8, 50, 0
10, 248520, Note_on_c, 8, 46, 105
10, 248598, Note_on_c, 8, 46, 0
10, 248640, Note_on_c, 8, 38, 105
10, 248952, Note_on_c, 8, 38, 0
10, 249120, Note_on_c, 8, 46, 105
10, 249354, Note_on_c, 8, 46, 0
10, 249480, Note_on_c, 8, 38, 105
10, 249558, Note_on_c, 8, 38, 0
10, 249600, Note_on_c, 8, 39, 105
10, 249912, Note_on_c, 8, 39, 0
10, 250080, Note_on_c, 8, 46, 105
10, 250314, Note_on_c, 8, 46, 0
10, 250440, Note_on_c, 8, 39, 105
10, 250518, Note_on_c, 8, 39, 0
10, 250560, Note_on_c, 8, 43, 105
10, 250872, Note_on_c, 8, 43, 0
10, 251040, Note_on_c, 8, 46, 105
10, 251274, Note_on_c, 8, 46, 0
10, 251400, Note_on_c, 8, 43, 105
10, 251478, Note_on_c, 8, 43, 0
10, 251520, Note_on_c, 8, 45, 105
10, 251832, Note_on_c, 8, 45, 0
10, 252000, Note_on_c, 8, 48, 105
10, 252234, Note_on_c, 8, 48, 0
10, 252360, Note_on_c, 8, 45, 105
10, 252438, Note_on_c, 8, 45, 0
10, 252480, Note_on_c, 8, 41, 105
10, 252792, Note_on_c, 8, 41, 0
10, 252960, Note_on_c, 8, 45, 105
10, 253194, Note_on_c, 8, 45, 0
10, 253320, Note_on_c, 8, 41, 105
10, 253398, Note_on_c, 8, 41, 0
10, 253440, Note_on_c, 8, 43, 105
10, 253752, Note_on_c, 8, 43, 0
10, 253920, Note_on_c, 8, 38, 105
10, 254232, Note_on_c, 8, 38, 0
10, 254400, Note_on_c, 8, 39, 105
10, 254712, Note_on_c, 8, 39, 0
10, 254880, Note_on_c, 8, 41, 105
10, 255192, Note_on_c, 8, 41, 0
10, 255360, Note_on_c, 8, 46, 105
10, 255672, Note_on_c, 8, 46, 0
10, 255840, Note_on_c, 8, 50, 105
10, 256074, Note_on_c, 8, 50, 0
10, 256200, Note_on_c, 8, 46, 105
10, 256278, Note_on_c, 8, 46, 0
10, 256320, Note_on_c, 8, 38, 105
10, 256632, Note_on_c, 8, 38, 0
10, 256800, Note_on_c, 8, 46, 105
10, 257034, Note_on_c, 8, 46, 0
10, 257160, Note_on_c, 8, 38, 105
10, 257238, Note_on_c, 8, 38, 0
10, 257280, Note_on_c, 8, 39, 105
10, 257592, Note_on_c, 8, 39, 0
10, 257760, Note_on_c, 8, 46, 105
10, 257994, Note_on_c, 8, 46, 0
10, 258120, Note_on_c, 8, 39, 105
10, 258198, Note_on_c, 8, 39, 0
10, 258240, Note_on_c, 8, 43, 105
10, 258552, Note_on_c, 8, 43, 0
10, 258720, Note_on_c, 8, 46, 105
10, 258954, Note_on_c, 8, 46, 0
10, 259080, Note_on_c, 8, 43, 105
10, 259158, Note_on_c, 8, 43, 0
10, 259200, Note_on_c, 8, 45, 105
10, 259512, Note_on_c, 8, 45, 0
10, 259680, Note_on_c, 8, 48, 105
10, 259914, Note_on_c, 8, 48, 0
10, 260040, Note_on_c, 8, 45, 105
10, 260118, Note_on_c, 8, 45, 0
10, 260160, Note_on_c, 8, 41, 105
10, 260472, Note_on_c, 8, 41, 0
10, 260640, Note_on_c, 8, 45, 105
10, 260874, Note_on_c, 8, 45, 0
10, 261000, Note_on_c, 8, 41, 105
10, 261078, Note_on_c, 8, 41, 0
10, 261120, Note_on_c, 8, 43, 105
10, 261432, Note_on_c, 8, 43, 0
10, 261600, Note_on_c, 8, 38, 105
10, 261912, Note_on_c, 8, 38, 0
10, 262080, Note_on_c, 8, 39, 105
10, 262392, Note_on_c, 8, 39, 0
10, 262560, Note_on_c, 8, 41, 105
10, 262872, Note_on_c, 8, 41, 0
10, 263040, Note_on_c, 8, 46, 105
10, 263352, Note_on_c, 8, 46, 0
10, 263520, Note_on_c, 8, 34, 105
10, 263832, Note_on_c, 8, 34, 0
10, 264000, Note_on_c, 8, 50, 105
10, 264576, Note_on_c, 8, 50, 0
10, 264720, Note_on_c, 8, 48, 105
10, 264912, Note_on_c, 8, 48, 0
10, 264960, Note_on_c, 8, 46, 105
10, 265536, Note_on_c, 8, 46, 0
10, 265680, Note_on_c, 8, 45, 105
10, 265872, Note_on_c, 8, 45, 0
10, 265920, Note_on_c, 8, 43, 105
10, 266496, Note_on_c, 8, 43, 0
10, 266640, Note_on_c, 8, 41, 105
10, 266832, Note_on_c, 8, 41, 0
10, 266880, Note_on_c, 8, 39, 105
10, 267264, Note_on_c, 8, 39, 0
10, 267360, Note_on_c, 8, 51, 105
10, 267552, Note_on_c, 8, 51, 0
10, 267600, Note_on_c, 8, 50, 105
10, 267792, Note_on_c, 8, 50, 0
10, 267840, Note_on_c, 8, 48, 105
10, 268032, Note_on_c, 8, 48, 0
10, 268080, Note_on_c, 8, 46, 105
10, 268272, Note_on_c, 8, 46, 0
10, 268320, Note_on_c, 8, 45, 105
10, 268512, Note_on_c, 8, 45, 0
10, 268560, Note_on_c, 8, 46, 105
10, 268752, Note_on_c, 8, 46, 0
10, 268800, Note_on_c, 8, 45, 105
10, 269184, Note_on_c, 8, 45, 0
10, 269280, Note_on_c, 8, 51, 105
10, 269472, Note_on_c, 8, 51, 0
10, 269520, Note_on_c, 8, 50, 105
10, 269712, Note_on_c, 8, 50, 0
10, 269760, Note_on_c, 8, 48, 105
10, 269952, Note_on_c, 8, 48, 0
10, 270000, Note_on_c, 8, 46, 105
10, 270192, Note_on_c, 8, 46, 0
10, 270240, Note_on_c, 8, 45, 105
10, 270432, Note_on_c, 8, 45, 0
10, 270480, Note_on_c, 8, 46, 105
10, 270672, Note_on_c, 8, 46, 0
10, 270720, Note_on_c, 8, 45, 105
10, 271104, Note_on_c, 8, 45, 0
10, 271200, Note_on_c, 8, 51, 105
10, 271392, Note_on_c, 8, 51, 0
10, 271440, Note_on_c, 8, 50, 105
10, 271632, Note_on_c, 8, 50, 0
10, 271680, Note_on_c, 8, 48, 105
10, 271872, Note_on_c, 8, 48, 0
10, 271920, Note_on_c, 8, 46, 105
10, 272112, Note_on_c, 8, 46, 0
10, 272160, Note_on_c, 8, 45, 105
10, 272352, Note_on_c, 8, 45, 0
10, 272400, Note_on_c, 8, 46, 105
10, 272592, Note_on_c, 8, 46, 0
10, 272640, Note_on_c, 8, 45, 105
10, 272952, Note_on_c, 8, 45, 0
10, 273120, Note_on_c, 8, 46, 105
10, 273432, Note_on_c, 8, 46, 0
10, 273600, Note_on_c, 8, 39, 105
10, 273912, Note_on_c, 8, 39, 0
10, 274080, Note_on_c, 8, 41, 105
10, 274392, Note_on_c, 8, 41, 0
10, 274560, Note_on_c, 8, 34, 110
10, 274944, Note_on_c, 8, 34, 0
10, 275040, Note_on_c, 8, 39, 58
10, 275232, Note_on_c, 8, 39, 0
10, 275280, Note_on_c, 8, 38, 58
10, 275472, Note_on_c, 8, 38, 0
10, 275520, Note_on_c, 8, 36, 58
10, 275712, Note_on_c, 8, 36, 0
10, 275760, Note_on_c, 8, 34, 58
10, 275952, Note_on_c, 8, 34, 0
10, 276000, Note_on_c, 8, 33, 58
10, 276192, Note_on_c, 8, 33, 0
10, 276240, Note_on_c, 8, 34, 58
10, 276432, Note_on_c, 8, 34, 0
10, 276480, Note_on_c, 8, 33, 58
10, 276864, Note_on_c, 8, 33, 0
10, 276960, Note_on_c, 8, 39, 58
10, 277152, Note_on_c, 8, 39, 0
10, 277200, Note_on_c, 8, 38, 58
10, 277392, Note_on_c, 8, 38, 0
10, 277440, Note_on_c, 8, 36, 58
10, 277632, Note_on_c, 8, 36, 0
10, 277680, Note_on_c, 8, 34, 58
10, 277872, Note_on_c, 8, 34, 0
10, 277920, Note_on_c, 8, 33, 58
10, 278112, Note_on_c, 8, 33, 0
10, 278160, Note_on_c, 8, 34, 58
10, 278352, Note_on_c, 8, 34, 0
10, 278400, Note_on_c, 8, 33, 58
10, 278784, Note_on_c, 8, 33, 0
10, 278880, Note_on_c, 8, 51, 105
10, 279072, Note_on_c, 8, 51, 0
10, 279120, Note_on_c, 8, 50, 105
10, 279312, Note_on_c, 8, 50, 0
10, 279360, Note_on_c, 8, 48, 105
10, 279552, Note_on_c, 8, 48, 0
10, 279600, Note_on_c, 8, 46, 105
10, 279792, Note_on_c, 8, 46, 0
10, 279840, Note_on_c, 8, 45, 105
10, 280032, Note_on_c, 8, 45, 0
10, 280080, Note_on_c, 8, 46, 105
10, 280272, Note_on_c, 8, 46, 0
10, 280320, Note_on_c, 8, 45, 105
10, 280632, Note_on_c, 8, 45, 0
10, 280800, Note_on_c, 8, 46, 105
10, 281112, Note_on_c, 8, 46, 0
10, 281280, Note_on_c, 8, 39, 105
10, 281592, Note_on_c, 8, 39, 0
10, 281760, Note_on_c, 8, 41, 105
10, 282072, Note_on_c, 8, 41, 0
10, 282240, Note_on_c, 8, 34, 105
10, 282552, Note_on_c, 8, 34, 0
10, 282720, Note_on_c, 8, 34, 105
10, 283032, Note_on_c, 8, 34, 0
10, 283200, Note_on_c, 8, 50, 105
10, 283776, Note_on_c, 8, 50, 0
10, 283920, Note_on_c, 8, 48, 105
10, 284112, Note_on_c, 8, 48, 0
10, 284160, Note_on_c, 8, 46, 105
10, 284472, Note_on_c, 8, 46, 0
10, 284640, Note_on_c, 8, 34, 105
10, 284952, Note_on_c, 8, 34, 0
10, 285120, Note_on_c, 8, 50, 105
10, 285696, Note_on_c, 8, 50, 0
10, 285840, Note_on_c, 8, 48, 105
10, 286032, Note_on_c, 8, 48, 0
10, 286080, Note_on_c, 8, 46, 105
10, 286848, Note_on_c, 8, 46, 0
10, 293760, Note_on_c, 8, 43, 105
10, 294120, Note_on_c, 8, 43, 0
10, 294240, Note_on_c, 8, 44, 105
10, 294420, Note_on_c, 8, 44, 0
10, 294480, Note_on_c, 8, 41, 105
10, 294660, Note_on_c, 8, 41, 0
10, 294720, Note_on_c, 8, 39, 105
10, 295080, Note_on_c, 8, 39, 0
10, 295200, Note_on_c, 8, 41, 105
10, 295380, Note_on_c, 8, 41, 0
10, 295440, Note_on_c, 8, 38, 105
10, 295620, Note_on_c, 8, 38, 0
10, 295680, Note_on_c, 8, 36, 105
10, 296040, Note_on_c, 8, 36, 0
10, 296160, Note_on_c, 8, 50, 105
10, 296340, Note_on_c, 8, 50, 0
10, 296400, Note_on_c, 8, 46, 105
10, 296580, Note_on_c, 8, 46, 0
10, 296640, Note_on_c, 8, 45, 105
10, 297000, Note_on_c, 8, 45, 0
10, 297120, Note_on_c, 8, 46, 105
10, 297300, Note_on_c, 8, 46, 0
10, 297360, Note_on_c, 8, 43, 105
10, 297540, Note_on_c, 8, 43, 0
10, 297600, Note_on_c, 8, 41, 105
10, 297960, Note_on_c, 8, 41, 0
10, 298080, Note_on_c, 8, 43, 105
10, 298260, Note_on_c, 8, 43, 0
10, 298320, Note_on_c, 8, 39, 105
10, 298500, Note_on_c, 8, 39, 0
10, 298560, Note_on_c, 8, 38, 105
10, 298920, Note_on_c, 8, 38, 0
10, 299040, Note_on_c, 8, 39, 105
10, 299220, Note_on_c, 8, 39, 0
10, 299280, Note_on_c, 8, 36, 105
10, 299460, Note_on_c, 8, 36, 0
10, 299520, Note_on_c, 8, 34, 105
10, 299880, Note_on_c, 8, 34, 0
10, 300000, Note_on_c, 8, 48, 105
10, 300180, Note_on_c, 8, 48, 0
10, 300240, Note_on_c, 8, 44, 105
10, 300420, Note_on_c, 8, 44, 0
10, 300480, Note_on_c, 8, 43, 105
10, 300840, Note_on_c, 8, 43, 0
10, 300960, Note_on_c, 8, 44, 105
10, 301140, Note_on_c, 8, 44, 0
10, 301200, Note_on_c, 8, 41, 105
10, 301380, Note_on_c, 8, 41, 0
10, 301440, Note_on_c, 8, 39, 105
10, 301800, Note_on_c, 8, 39, 0
10, 301920, Note_on_c, 8, 41, 105
10, 302100, Note_on_c, 8, 41, 0
10, 302160, Note_on_c, 8, 38, 105
10, 302340, Note_on_c, 8, 38, 0
10, 302400, Note_on_c, 8, 36, 105
10, 302760, Note_on_c, 8, 36, 0
10, 302880, Note_on_c, 8, 38, 105
10, 303060, Note_on_c, 8, 38, 0
10, 303120, Note_on_c, 8, 34, 105
10, 303300, Note_on_c, 8, 34, 0
10, 303360, Note_on_c, 8, 33, 105
10, 303720, Note_on_c, 8, 33, 0
10, 303840, Note_on_c, 8, 46, 105
10, 304020, Note_on_c, 8, 46, 0
10, 304080, Note_on_c, 8, 43, 105
10, 304260, Note_on_c, 8, 43, 0
10, 304320, Note_on_c, 8, 42, 105
10, 304680, Note_on_c, 8, 42, 0
10, 304800, Note_on_c, 8, 43, 105
10, 304980, Note_on_c, 8, 43, 0
10, 305040, Note_on_c, 8, 40, 105
10, 305220, Note_on_c, 8, 40, 0
10, 305280, Note_on_c, 8, 38, 105
10, 305640, Note_on_c, 8, 38, 0
10, 305760, Note_on_c, 8, 51, 105
10, 305940, Note_on_c, 8, 51, 0
10, 306000, Note_on_c, 8, 48, 105
10, 306180, Note_on_c, 8, 48, 0
10, 306240, Note_on_c, 8, 46, 105
10, 306600, Note_on_c, 8, 46, 0
10, 306720, Note_on_c, 8, 48, 105
10, 306900, Note_on_c, 8, 48, 0
10, 306960, Note_on_c, 8, 45, 105
10, 307140, Note_on_c, 8, 45, 0
10, 307200, Note_on_c, 8, 43, 105
10, 307560, Note_on_c, 8, 43, 0
10, 307680, Note_on_c, 8, 43, 105
10, 308040, Note_on_c, 8, 43, 0
10, 308160, Note_on_c, 8, 40, 105
10, 308520, Note_on_c, 8, 40, 0
10, 308640, Note_on_c, 8, 41, 105
10, 309000, Note_on_c, 8, 41, 0
10, 309120, Note_on_c, 8, 38, 105
10, 309480, Note_on_c, 8, 38, 0
10, 309600, Note_on_c, 8, 40, 105
10, 309960, Note_on_c, 8, 40, 0
10, 310080, Note_on_c, 8, 37, 105
10, 310440, Note_on_c, 8, 37, 0
10, 310560, Note_on_c, 8, 38, 105
10, 310920, Note_on_c, 8, 38, 0
10, 311040, Note_on_c, 8, 35, 105
10, 311400, Note_on_c, 8, 35, 0
10, 311520, Note_on_c, 8, 37, 105
10, 311880, Note_on_c, 8, 37, 0
10, 312000, Note_on_c, 8, 38, 105
10, 312360, Note_on_c, 8, 38, 0
10, 312480, Note_on_c, 8, 32, 105
10, 312840, Note_on_c, 8, 32, 0
10, 312960, Note_on_c, 8, 33, 105
10, 313728, Note_on_c, 8, 33, 0
10, 314400, Note_on_c, 8, 49, 105
10, 314664, Note_on_c, 8, 49, 0
10, 314880, Note_on_c, 8, 49, 105
10, 315840, Note_on_c, 8, 49, 0
10, 315840, Note_on_c, 8, 50, 105
10, 316152, Note_on_c, 8, 50, 0
10, 316320, Note_on_c, 8, 51, 105
10, 316584, Note_on_c, 8, 51, 0
10, 316800, Note_on_c, 8, 51, 105
10, 317760, Note_on_c, 8, 51, 0
10, 317760, Note_on_c, 8, 52, 105
10, 318072, Note_on_c, 8, 52, 0
10, 318240, Note_on_c, 8, 52, 105
10, 318504, Note_on_c, 8, 52, 0
10, 318720, Note_on_c, 8, 53, 105
10, 319032, Note_on_c, 8, 53, 0
10, 319200, Note_on_c, 8, 50, 105
10, 319512, Note_on_c, 8, 50, 0
10, 319680, Note_on_c, 8, 52, 105
10, 319992, Note_on_c, 8, 52, 0
10, 320160, Note_on_c, 8, 49, 105
10, 320472, Note_on_c, 8, 49, 0
10, 320640, Note_on_c, 8, 50, 105
10, 320820, Note_on_c, 8, 50, 0
10, 320880, Note_on_c, 8, 52, 105
10, 321060, Note_on_c, 8, 52, 0
10, 321120, Note_on_c, 8, 53, 105
10, 321300, Note_on_c, 8, 53, 0
10, 321360, Note_on_c, 8, 50, 105
10, 321540, Note_on_c, 8, 50, 0
10, 321600, Note_on_c, 8, 49, 105
10, 321780, Note_on_c, 8, 49, 0
10, 321840, Note_on_c, 8, 50, 105
10, 322020, Note_on_c, 8, 50, 0
10, 322080, Note_on_c, 8, 52, 105
10, 322260, Note_on_c, 8, 52, 0
10, 322320, Note_on_c, 8, 49, 105
10, 322500, Note_on_c, 8, 49, 0
10, 322560, Note_on_c, 8, 50, 105
10, 322740, Note_on_c, 8, 50, 0
10, 322800, Note_on_c, 8, 52, 105
10, 322980, Note_on_c, 8, 52, 0
10, 323040, Note_on_c, 8, 53, 105
10, 323220, Note_on_c, 8, 53, 0
10, 323280, Note_on_c, 8, 50, 105
10, 323460, Note_on_c, 8, 50, 0
10, 323520, Note_on_c, 8, 49, 105
10, 323700, Note_on_c, 8, 49, 0
10, 323760, Note_on_c, 8, 50, 105
10, 323940, Note_on_c, 8, 50, 0
10, 324000, Note_on_c, 8, 52, 105
10, 324180, Note_on_c, 8, 52, 0
10, 324240, Note_on_c, 8, 49, 105
10, 324420, Note_on_c, 8, 49, 0
10, 324480, Note_on_c, 8, 50, 105
10, 324864, Note_on_c, 8, 50, 0
10, 329760, Note_on_c, 8, 47, 105
10, 330024, Note_on_c, 8, 47, 0
10, 330240, Note_on_c, 8, 47, 105
10, 331200, Note_on_c, 8, 47, 0
10, 331200, Note_on_c, 8, 48, 105
10, 331512, Note_on_c, 8, 48, 0
10, 331680, Note_on_c, 8, 49, 105
10, 331944, Note_on_c, 8, 49, 0
10, 332160, Note_on_c, 8, 49, 105
10, 333120, Note_on_c, 8, 49, 0
10, 333120, Note_on_c, 8, 50, 105
10, 333432, Note_on_c, 8, 50, 0
10, 333600, Note_on_c, 8, 50, 105
10, 333864, Note_on_c, 8, 50, 0
10, 334080, Note_on_c, 8, 51, 105
10, 334392, Note_on_c, 8, 51, 0
10, 334560, Note_on_c, 8, 48, 105
10, 334872, Note_on_c, 8, 48, 0
10, 335040, Note_on_c, 8, 50, 105
10, 335352, Note_on_c, 8, 50, 0
10, 335520, Note_on_c, 8, 47, 105
10, 335832, Note_on_c, 8, 47, 0
10, 336000, Note_on_c, 8, 48, 105
10, 336180, Note_on_c, 8, 48, 0
10, 336240, Note_on_c, 8, 50, 105
10, 336420, Note_on_c, 8, 50, 0
10, 336480, Note_on_c, 8, 51, 105
10, 336660, Note_on_c, 8, 51, 0
10, 336720, Note_on_c, 8, 48, 105
10, 336900, Note_on_c, 8, 48, 0
10, 336960, Note_on_c, 8, 47, 105
10, 337140, Note_on_c, 8, 47, 0
10, 337200, Note_on_c, 8, 48, 105
10, 337380, Note_on_c, 8, 48, 0
10, 337440, Note_on_c, 8, 50, 105
10, 337620, Note_on_c, 8, 50, 0
10, 337680, Note_on_c, 8, 47, 105
10, 337860, Note_on_c, 8, 47, 0
10, 337920, Note_on_c, 8, 48, 105
10, 338100, Note_on_c, 8, 48, 0
10, 338160, Note_on_c, 8, 50, 105
10, 338340, Note_on_c, 8, 50, 0
10, 338400, Note_on_c, 8, 51, 105
10, 338580, Note_on_c, 8, 51, 0
10, 338640, Note_on_c, 8, 48, 105
10, 338820, Note_on_c, 8, 48, 0
10, 338880, Note_on_c, 8, 47, 105
10, 339060, Note_on_c, 8, 47, 0
10, 339120, Note_on_c, 8, 48, 105
10, 339300, Note_on_c, 8, 48, 0
10, 339360, Note_on_c, 8, 50, 105
10, 339540, Note_on_c, 8, 50, 0
10, 339600, Note_on_c, 8, 47, 105
10, 339780, Note_on_c, 8, 47, 0
10, 339840, Note_on_c, 8, 48, 105
10, 340020, Note_on_c, 8, 48, 0
10, 340080, Note_on_c, 8, 50, 105
10, 340260, Note_on_c, 8, 50, 0
10, 340320, Note_on_c, 8, 51, 105
10, 340500, Note_on_c, 8, 51, 0
10, 340560, Note_on_c, 8, 48, 105
10, 340740, Note_on_c, 8, 48, 0
10, 340800, Note_on_c, 8, 46, 105
10, 340980, Note_on_c, 8, 46, 0
10, 341040, Note_on_c, 8, 45, 105
10, 341220, Note_on_c, 8, 45, 0
10, 341280, Note_on_c, 8, 46, 105
10, 341460, Note_on_c, 8, 46, 0
10, 341520, Note_on_c, 8, 43, 105
10, 341700, Note_on_c, 8, 43, 0
10, 341760, Note_on_c, 8, 45, 105
10, 341940, Note_on_c, 8, 45, 0
10, 342000, Note_on_c, 8, 43, 105
10, 342180, Note_on_c, 8, 43, 0
10, 342240, Note_on_c, 8, 45, 105
10, 342420, Note_on_c, 8, 45, 0
10, 342480, Note_on_c, 8, 42, 105
10, 342660, Note_on_c, 8, 42, 0
10, 342720, Note_on_c, 8, 42, 105
10, 342900, Note_on_c, 8, 42, 0
10, 342960, Note_on_c, 8, 40, 105
10, 343140, Note_on_c, 8, 40, 0
10, 343200, Note_on_c, 8, 42, 105
10, 343380, Note_on_c, 8, 42, 0
10, 343440, Note_on_c, 8, 38, 105
10, 343620, Note_on_c, 8, 38, 0
10, 343680, Note_on_c, 8, 45, 105
10, 343860, Note_on_c, 8, 45, 0
10, 343920, Note_on_c, 8, 46, 105
10, 344100, Note_on_c, 8, 46, 0
10, 344160, Note_on_c, 8, 50, 105
10, 344340, Note_on_c, 8, 50, 0
10, 344400, Note_on_c, 8, 43, 105
10, 344580, Note_on_c, 8, 43, 0
10, 344640, Note_on_c, 8, 39, 105
10, 344820, Note_on_c, 8, 39, 0
10, 344880, Note_on_c, 8, 43, 105
10, 345060, Note_on_c, 8, 43, 0
10, 345120, Note_on_c, 8, 41, 105
10, 345300, Note_on_c, 8, 41, 0
10, 345360, Note_on_c, 8, 39, 105
10, 345540, Note_on_c, 8, 39, 0
10, 345600, Note_on_c, 8, 38, 105
10, 345912, Note_on_c, 8, 38, 0
10, 346080, Note_on_c, 8, 50, 105
10, 346392, Note_on_c, 8, 50, 0
10, 347040, Note_on_c, 8, 50, 105
10, 347352, Note_on_c, 8, 50, 0
10, 347520, Note_on_c, 8, 51, 105
10, 347832, Note_on_c, 8, 51, 0
10, 348000, Note_on_c, 8, 39, 105
10, 348312, Note_on_c, 8, 39, 0
10, 348960, Note_on_c, 8, 39, 105
10, 349272, Note_on_c, 8, 39, 0
10, 349440, Note_on_c, 8, 38, 92
10, 349752, Note_on_c, 8, 38, 0
10, 353280, Note_on_c, 8, 43, 58
10, 353592, Note_on_c, 8, 43, 0
10, 353760, Note_on_c, 8, 38, 58
10, 354072, Note_on_c, 8, 38, 0
10, 354240, Note_on_c, 8, 46, 58
10, 354780, Note_on_c, 8, 46, 0
10, 354960, Note_on_c, 8, 45, 58
10, 355116, Note_on_c, 8, 45, 0
10, 355200, Note_on_c, 8, 43, 58
10, 355512, Note_on_c, 8, 43, 0
10, 355680, Note_on_c, 8, 46, 58
10, 356160, Note_on_c, 8, 46, 0
10, 356160, Note_on_c, 8, 45, 58
10, 356640, Note_on_c, 8, 45, 0
10, 356640, Note_on_c, 8, 43, 58
10, 357096, Note_on_c, 8, 43, 0
10, 357120, Note_on_c, 8, 42, 58
10, 357432, Note_on_c, 8, 42, 0
10, 357600, Note_on_c, 8, 38, 58
10, 357912, Note_on_c, 8, 38, 0
10, 358080, Note_on_c, 8, 48, 58
10, 358620, Note_on_c, 8, 48, 0
10, 358800, Note_on_c, 8, 46, 58
10, 358956, Note_on_c, 8, 46, 0
10, 359040, Note_on_c, 8, 45, 58
10, 359352, Note_on_c, 8, 45, 0
10, 359520, Note_on_c, 8, 48, 58
10, 360000, Note_on_c, 8, 48, 0
10, 360000, Note_on_c, 8, 46, 58
10, 360480, Note_on_c, 8, 46, 0
10, 360480, Note_on_c, 8, 45, 58
10, 360936, Note_on_c, 8, 45, 0
10, 360960, Note_on_c, 8, 43, 58
10, 361272, Note_on_c, 8, 43, 0
10, 361440, Note_on_c, 8, 46, 58
10, 361752, Note_on_c, 8, 46, 0
10, 361920, Note_on_c, 8, 51, 58
10, 362424, Note_on_c, 8, 51, 0
10, 362640, Note_on_c, 8, 50, 58
10, 362796, Note_on_c, 8, 50, 0
10, 362880, Note_on_c, 8, 48, 58
10, 363192, Note_on_c, 8, 48, 0
10, 363360, Note_on_c, 8, 45, 58
10, 363672, Note_on_c, 8, 45, 0
10, 363840, Note_on_c, 8, 50, 58
10, 364344, Note_on_c, 8, 50, 0
10, 364560, Note_on_c, 8, 48, 58
10, 364716, Note_on_c, 8, 48, 0
10, 364800, Note_on_c, 8, 46, 58
10, 365112, Note_on_c, 8, 46, 0
10, 365280, Note_on_c, 8, 43, 58
10, 365592, Note_on_c, 8, 43, 0
10, 365760, Note_on_c, 8, 39, 58
10, 366072, Note_on_c, 8, 39, 0
10, 366240, Note_on_c, 8, 37, 58
10, 366552, Note_on_c, 8, 37, 0
10, 366720, Note_on_c, 8, 38, 58
10, 367032, Note_on_c, 8, 38, 0
10, 367200, Note_on_c, 8, 48, 58
10, 367680, Note_on_c, 8, 48, 0
10, 367680, Note_on_c, 8, 46, 58
10, 368160, Note_on_c, 8, 46, 0
10, 368160, Note_on_c, 8, 45, 58
10, 368472, Note_on_c, 8, 45, 0
10, 368640, Note_on_c, 8, 43, 105
10, 368952, Note_on_c, 8, 43, 0
10, 369120, Note_on_c, 8, 38, 105
10, 369432, Note_on_c, 8, 38, 0
10, 369600, Note_on_c, 8, 46, 105
10, 370176, Note_on_c, 8, 46, 0
10, 370320, Note_on_c, 8, 45, 105
10, 370476, Note_on_c, 8, 45, 0
10, 370560, Note_on_c, 8, 43, 105
10, 370872, Note_on_c, 8, 43, 0
10, 371040, Note_on_c, 8, 46, 105
10, 371520, Note_on_c, 8, 46, 0
10, 371520, Note_on_c, 8, 45, 105
10, 372000, Note_on_c, 8, 45, 0
10, 372000, Note_on_c, 8, 43, 105
10, 372480, Note_on_c, 8, 43, 0
10, 372480, Note_on_c, 8, 42, 105
10, 372792, Note_on_c, 8, 42, 0
10, 372960, Note_on_c, 8, 38, 105
10, 373272, Note_on_c, 8, 38, 0
10, 373440, Note_on_c, 8, 48, 105
10, 374016, Note_on_c, 8, 48, 0
10, 374160, Note_on_c, 8, 46, 105
10, 374316, Note_on_c, 8, 46, 0
10, 374400, Note_on_c, 8, 45, 105
10, 374712, Note_on_c, 8, 45, 0
10, 374880, Note_on_c, 8, 48, 105
10, 375360, Note_on_c, 8, 48, 0
10, 375360, Note_on_c, 8, 46, 105
10, 375840, Note_on_c, 8, 46, 0
10, 375840, Note_on_c, 8, 45, 105
10, 376320, Note_on_c, 8, 45, 0
10, 376320, Note_on_c, 8, 43, 105
10, 376632, Note_on_c, 8, 43, 0
10, 376800, Note_on_c, 8, 46, 105
10, 377112, Note_on_c, 8, 46, 0
10, 377280, Note_on_c, 8, 51, 105
10, 377856, Note_on_c, 8, 51, 0
10, 378000, Note_on_c, 8, 50, 105
10, 378156, Note_on_c, 8, 50, 0
10, 378240, Note_on_c, 8, 48, 105
10, 378552, Note_on_c, 8, 48, 0
10, 378720, Note_on_c, 8, 45, 105
10, 379032, Note_on_c, 8, 45, 0
10, 379200, Note_on_c, 8, 50, 105
10, 379920, Note_on_c, 8, 50, 0
10, 379920, Note_on_c, 8, 48, 105
10, 380112, Note_on_c, 8, 48, 0
10, 380160, Note_on_c, 8, 46, 105
10, 380472, Note_on_c, 8, 46, 0
10, 380640, Note_on_c, 8, 39, 105
10, 380952, Note_on_c, 8, 39, 0
10, 381120, Note_on_c, 8, 36, 105
10, 381432, Note_on_c, 8, 36, 0
10, 381600, Note_on_c, 8, 38, 105
10, 381912, Note_on_c, 8, 38, 0
10, 382080, Note_on_c, 8, 31, 105
10, 382848, Note_on_c, 8, 31, 0
10, 384960, Note_on_c, 8, 47, 58
10, 385728, Note_on_c, 8, 47, 0
10, 385920, Note_on_c, 8, 47, 58
10, 386880, Note_on_c, 8, 47, 0
10, 386880, Note_on_c, 8, 48, 58
10, 387264, Note_on_c, 8, 48, 0
10, 388800, Note_on_c, 8, 41, 58
10, 389184, Note_on_c, 8, 41, 0
10, 389280, Note_on_c, 8, 41, 58
10, 389664, Note_on_c, 8, 41, 0
10, 389760, Note_on_c, 8, 41, 58
10, 390720, Note_on_c, 8, 41, 0
10, 390720, Note_on_c, 8, 39, 58
10, 391104, Note_on_c, 8, 39, 0
10, 392640, Note_on_c, 8, 36, 58
10, 393408, Note_on_c, 8, 36, 0
10, 393600, Note_on_c, 8, 36, 58
10, 394560, Note_on_c, 8, 36, 0
10, 394560, Note_on_c, 8, 34, 58
10, 394944, Note_on_c, 8, 34, 0
10, 395520, Note_on_c, 8, 42, 58
10, 396288, Note_on_c, 8, 42, 0
10, 396480, Note_on_c, 8, 43, 58
10, 397248, Note_on_c, 8, 43, 0
10, 397440, Note_on_c, 8, 38, 58
10, 398208, Note_on_c, 8, 38, 0
10, 398400, Note_on_c, 8, 31, 58
10, 399168, Note_on_c, 8, 31, 0
10, 399360, Note_on_c, 8, 36, 58
10, 400512, Note_on_c, 8, 36, 0
10, 400800, Note_on_c, 8, 37, 58
10, 401184, Note_on_c, 8, 37, 0
10, 401280, Note_on_c, 8, 38, 58
10, 402624, Note_on_c, 8, 38, 0
10, 406080, Note_on_c, 8, 48, 105
10, 406224, Note_on_c, 8, 48, 0
10, 406320, Note_on_c, 8, 46, 105
10, 406464, Note_on_c, 8, 46, 0
10, 406560, Note_on_c, 8, 45, 105
10, 406704, Note_on_c, 8, 45, 0
10, 406800, Note_on_c, 8, 43, 105
10, 406944, Note_on_c, 8, 43, 0
10, 407040, Note_on_c, 8, 42, 105
10, 407280, Note_on_c, 8, 42, 0
10, 407280, Note_on_c, 8, 43, 105
10, 407424, Note_on_c, 8, 43, 0
10, 407520, Note_on_c, 8, 42, 105
10, 407664, Note_on_c, 8, 42, 0
10, 407760, Note_on_c, 8, 39, 105
10, 407904, Note_on_c, 8, 39, 0
10, 408000, Note_on_c, 8, 38, 105
10, 408144, Note_on_c, 8, 38, 0
10, 408240, Note_on_c, 8, 36, 105
10, 408384, Note_on_c, 8, 36, 0
10, 408480, Note_on_c, 8, 34, 105
10, 408624, Note_on_c, 8, 34, 0
10, 408720, Note_on_c, 8, 33, 105
10, 408864, Note_on_c, 8, 33, 0
10, 408960, Note_on_c, 8, 31, 105
10, 409344, Note_on_c, 8, 31, 0
10, 409920, Note_on_c, 8, 55, 105
10, 410496, Note_on_c, 8, 55, 0
10, 410640, Note_on_c, 8, 53, 105
10, 410832, Note_on_c, 8, 53, 0
10, 410880, Note_on_c, 8, 52, 105
10, 411144, Note_on_c, 8, 52, 0
10, 411360, Note_on_c, 8, 53, 105
10, 411624, Note_on_c, 8, 53, 0
10, 411840, Note_on_c, 8, 51, 105
10, 412416, Note_on_c, 8, 51, 0
10, 412560, Note_on_c, 8, 50, 105
10, 412752, Note_on_c, 8, 50, 0
10, 412800, Note_on_c, 8, 48, 105
10, 413064, Note_on_c, 8, 48, 0
10, 413280, Note_on_c, 8, 50, 105
10, 413544, Note_on_c, 8, 50, 0
10, 413760, Note_on_c, 8, 51, 105
10, 414336, Note_on_c, 8, 51, 0
10, 414480, Note_on_c, 8, 50, 105
10, 414672, Note_on_c, 8, 50, 0
10, 414720, Note_on_c, 8, 48, 105
10, 414984, Note_on_c, 8, 48, 0
10, 415200, Note_on_c, 8, 50, 105
10, 415464, Note_on_c, 8, 50, 0
10, 415680, Note_on_c, 8, 48, 105
10, 416256, Note_on_c, 8, 48, 0
10, 416400, Note_on_c, 8, 46, 105
10, 416592, Note_on_c, 8, 46, 0
10, 416640, Note_on_c, 8, 45, 105
10, 416904, Note_on_c, 8, 45, 0
10, 417120, Note_on_c, 8, 46, 105
10, 417384, Note_on_c, 8, 46, 0
10, 417600, Note_on_c, 8, 45, 105
10, 417840, Note_on_c, 8, 45, 0
10, 417840, Note_on_c, 8, 46, 105
10, 418080, Note_on_c, 8, 46, 0
10, 418080, Note_on_c, 8, 48, 105
10, 418212, Note_on_c, 8, 48, 0
10, 418320, Note_on_c, 8, 46, 105
10, 418452, Note_on_c, 8, 46, 0
10, 418560, Note_on_c, 8, 57, 105
10, 418752, Note_on_c, 8, 57, 0
10, 418800, Note_on_c, 8, 55, 105
10, 418992, Note_on_c, 8, 55, 0
10, 419040, Note_on_c, 8, 54, 105
10, 419232, Note_on_c, 8, 54, 0
10, 419280, Note_on_c, 8, 51, 105
10, 419472, Note_on_c, 8, 51, 0
10, 419520, Note_on_c, 8, 50, 105
10, 419712, Note_on_c, 8, 50, 0
10, 419760, Note_on_c, 8, 52, 105
10, 419952, Note_on_c, 8, 52, 0
10, 420000, Note_on_c, 8, 54, 105
10, 420192, Note_on_c, 8, 54, 0
10, 420240, Note_on_c, 8, 50, 105
10, 420432, Note_on_c, 8, 50, 0
10, 420480, Note_on_c, 8, 43, 105
10, 420636, Note_on_c, 8, 43, 0
10, 420720, Note_on_c, 8, 41, 105
10, 420876, Note_on_c, 8, 41, 0
10, 420960, Note_on_c, 8, 39, 105
10, 421116, Note_on_c, 8, 39, 0
10, 421200, Note_on_c, 8, 38, 105
10, 421356, Note_on_c, 8, 38, 0
10, 421440, Note_on_c, 8, 36, 105
10, 421596, Note_on_c, 8, 36, 0
10, 421680, Note_on_c, 8, 34, 105
10, 421836, Note_on_c, 8, 34, 0
10, 421920, Note_on_c, 8, 33, 105
10, 422076, Note_on_c, 8, 33, 0
10, 422160, Note_on_c, 8, 31, 105
10, 422316, Note_on_c, 8, 31, 0
10, 422400, Note_on_c, 8, 36, 105
10, 422688, Note_on_c, 8, 36, 0
10, 422880, Note_on_c, 8, 48, 105
10, 423168, Note_on_c, 8, 48, 0
10, 423360, Note_on_c, 8, 50, 105
10, 423648, Note_on_c, 8, 50, 0
10, 423840, Note_on_c, 8, 38, 105
10, 424128, Note_on_c, 8, 38, 0
10, 424320, Note_on_c, 8, 43, 105
10, 424608, Note_on_c, 8, 43, 0
10, 424800, Note_on_c, 8, 38, 105
10, 425088, Note_on_c, 8, 38, 0
10, 425280, Note_on_c, 8, 46, 105
10, 425856, Note_on_c, 8, 46, 0
10, 426000, Note_on_c, 8, 45, 105
10, 426192, Note_on_c, 8, 45, 0
10, 426240, Note_on_c, 8, 43, 105
10, 426528, Note_on_c, 8, 43, 0
10, 426720, Note_on_c, 8, 38, 105
10, 427008, Note_on_c, 8, 38, 0
10, 427200, Note_on_c, 8, 34, 105
10, 427488, Note_on_c, 8, 34, 0
10, 427680, Note_on_c, 8, 31, 105
10, 427968, Note_on_c, 8, 31, 0
10, 428160, Note_on_c, 8, 38, 92
10, 428448, Note_on_c, 8, 38, 0
10, 435840, Note_on_c, 8, 31, 70
10, 436608, Note_on_c, 8, 31, 0
10, 437760, Note_on_c, 8, 38, 70
10, 438528, Note_on_c, 8, 38, 0
10, 439680, Note_on_c, 8, 43, 70
10, 441600, Note_on_c, 8, 43, 0
10, 441600, Note_on_c, 8, 38, 70
10, 443424, Note_on_c, 8, 38, 0
10, 443520, Note_on_c, 8, 31, 70
10, 444288, Note_on_c, 8, 31, 0
10, 445440, Note_on_c, 8, 38, 70
10, 446208, Note_on_c, 8, 38, 0
10, 447360, Note_on_c, 8, 43, 70
10, 449280, Note_on_c, 8, 43, 0
10, 449280, Note_on_c, 8, 38, 70
10, 451104, Note_on_c, 8, 38, 0
10, 451200, Note_on_c, 8, 43, 105
10, 451512, Note_on_c, 8, 43, 0
10, 451680, Note_on_c, 8, 38, 105
10, 451992, Note_on_c, 8, 38, 0
10, 452160, Note_on_c, 8, 46, 105
10, 452736, Note_on_c, 8, 46, 0
10, 452880, Note_on_c, 8, 45, 105
10, 453072, Note_on_c, 8, 45, 0
10, 453120, Note_on_c, 8, 43, 105
10, 453432, Note_on_c, 8, 43, 0
10, 453600, Note_on_c, 8, 38, 105
10, 453912, Note_on_c, 8, 38, 0
10, 454080, Note_on_c, 8, 46, 105
10, 454392, Note_on_c, 8, 46, 0
10, 454560, Note_on_c, 8, 43, 105
10, 454872, Note_on_c, 8, 43, 0
10, 455040, Note_on_c, 8, 45, 105
10, 455352, Note_on_c, 8, 45, 0
10, 455520, Note_on_c, 8, 38, 105
10, 455832, Note_on_c, 8, 38, 0
10, 456000, Note_on_c, 8, 48, 105
10, 456576, Note_on_c, 8, 48, 0
10, 456720, Note_on_c, 8, 46, 105
10, 456912, Note_on_c, 8, 46, 0
10, 456960, Note_on_c, 8, 45, 105
10, 457272, Note_on_c, 8, 45, 0
10, 457440, Note_on_c, 8, 38, 105
10, 457752, Note_on_c, 8, 38, 0
10, 457920, Note_on_c, 8, 48, 105
10, 458232, Note_on_c, 8, 48, 0
10, 458400, Note_on_c, 8, 45, 105
10, 458712, Note_on_c, 8, 45, 0
10, 458880, Note_on_c, 8, 43, 105
10, 459240, Note_on_c, 8, 43, 0
10, 459360, Note_on_c, 8, 46, 105
10, 459630, Note_on_c, 8, 46, 0
10, 459720, Note_on_c, 8, 43, 105
10, 459810, Note_on_c, 8, 43, 0
10, 459840, Note_on_c, 8, 35, 105
10, 460200, Note_on_c, 8, 35, 0
10, 460320, Note_on_c, 8, 43, 105
10, 460590, Note_on_c, 8, 43, 0
10, 460680, Note_on_c, 8, 35, 105
10, 460770, Note_on_c, 8, 35, 0
10, 460800, Note_on_c, 8, 36, 105
10, 461160, Note_on_c, 8, 36, 0
10, 461280, Note_on_c, 8, 43, 105
10, 461550, Note_on_c, 8, 43, 0
10, 461640, Note_on_c, 8, 36, 105
10, 461730, Note_on_c, 8, 36, 0
10, 461760, Note_on_c, 8, 39, 105
10, 462120, Note_on_c, 8, 39, 0
10, 462240, Note_on_c, 8, 43, 105
10, 462510, Note_on_c, 8, 43, 0
10, 462600, Note_on_c, 8, 39, 105
10, 462690, Note_on_c, 8, 39, 0
10, 462720, Note_on_c, 8, 38, 105
10, 463080, Note_on_c, 8, 38, 0
10, 463200, Note_on_c, 8, 50, 105
10, 463470, Note_on_c, 8, 50, 0
10, 463560, Note_on_c, 8, 38, 105
10, 463650, Note_on_c, 8, 38, 0
10, 463680, Note_on_c, 8, 42, 105
10, 464040, Note_on_c, 8, 42, 0
10, 464160, Note_on_c, 8, 45, 105
10, 464430, Note_on_c, 8, 45, 0
10, 464520, Note_on_c, 8, 38, 105
10, 464610, Note_on_c, 8, 38, 0
10, 464640, Note_on_c, 8, 43, 105
10, 464952, Note_on_c, 8, 43, 0
10, 465120, Note_on_c, 8, 39, 105
10, 465432, Note_on_c, 8, 39, 0
10, 465600, Note_on_c, 8, 36, 105
10, 465912, Note_on_c, 8, 36, 0
10, 466080, Note_on_c, 8, 38, 105
10, 466392, Note_on_c, 8, 38, 0
10, 466560, Note_on_c, 8, 31, 105
10, 466920, Note_on_c, 8, 31, 0
10, 467040, Note_on_c, 8, 43, 105
10, 467310, Note_on_c, 8, 43, 0
10, 467400, Note_on_c, 8, 31, 105
10, 467490, Note_on_c, 8, 31, 0
10, 467520, Note_on_c, 8, 35, 105
10, 467880, Note_on_c, 8, 35, 0
10, 468000, Note_on_c, 8, 43, 105
10, 468270, Note_on_c, 8, 43, 0
10, 468360, Note_on_c, 8, 35, 105
10, 468450, Note_on_c, 8, 35, 0
10, 468480, Note_on_c, 8, 36, 105
10, 468840, Note_on_c, 8, 36, 0
10, 468960, Note_on_c, 8, 43, 105
10, 469230, Note_on_c, 8, 43, 0
10, 469320, Note_on_c, 8, 36, 105
10, 469410, Note_on_c, 8, 36, 0
10, 469440, Note_on_c, 8, 40, 105
10, 469800, Note_on_c, 8, 40, 0
10, 469920, Note_on_c, 8, 43, 105
10, 470190, Note_on_c, 8, 43, 0
10, 470280, Note_on_c, 8, 40, 105
10, 470370, Note_on_c, 8, 40, 0
10, 470400, Note_on_c, 8, 42, 105
10, 470760, Note_on_c, 8, 42, 0
10, 470880, Note_on_c, 8, 45, 105
10, 471150, Note_on_c, 8, 45, 0
10, 471240, Note_on_c, 8, 42, 105
10, 471330, Note_on_c, 8, 42, 0
10, 471360, Note_on_c, 8, 38, 105
10, 471720, Note_on_c, 8, 38, 0
10, 471840, Note_on_c, 8, 42, 105
10, 472110, Note_on_c, 8, 42, 0
10, 472200, Note_on_c, 8, 38, 105
10, 472290, Note_on_c, 8, 38, 0
10, 472320, Note_on_c, 8, 39, 105
10, 472608, Note_on_c, 8, 39, 0
10, 472800, Note_on_c, 8, 34, 105
10, 473088, Note_on_c, 8, 34, 0
10, 473280, Note_on_c, 8, 36, 105
10, 473568, Note_on_c, 8, 36, 0
10, 473760, Note_on_c, 8, 38, 105
10, 474048, Note_on_c, 8, 38, 0
10, 474240, Note_on_c, 8, 31, 105
10, 474528, Note_on_c, 8, 31, 0
10, 474720, Note_on_c, 8, 31, 105
10, 475008, Note_on_c, 8, 31, 0
10, 475200, Note_on_c, 8, 46, 105
10, 475776, Note_on_c, 8, 46, 0
10, 475920, Note_on_c, 8, 45, 105
10, 476112, Note_on_c, 8, 45, 0
10, 476160, Note_on_c, 8, 43, 105
10, 476736, Note_on_c, 8, 43, 0
10, 476880, Note_on_c, 8, 41, 105
10, 477072, Note_on_c, 8, 41, 0
10, 477120, Note_on_c, 8, 39, 105
10, 477696, Note_on_c, 8, 39, 0
10, 477840, Note_on_c, 8, 38, 105
10, 478032, Note_on_c, 8, 38, 0
10, 478080, Note_on_c, 8, 36, 105
10, 478440, Note_on_c, 8, 36, 0
10, 478560, Note_on_c, 8, 48, 105
10, 478740, Note_on_c, 8, 48, 0
10, 478800, Note_on_c, 8, 46, 105
10, 478980, Note_on_c, 8, 46, 0
10, 479040, Note_on_c, 8, 45, 105
10, 479220, Note_on_c, 8, 45, 0
10, 479280, Note_on_c, 8, 43, 105
10, 479460, Note_on_c, 8, 43, 0
10, 479520, Note_on_c, 8, 42, 105
10, 479700, Note_on_c, 8, 42, 0
10, 479760, Note_on_c, 8, 43, 105
10, 479940, Note_on_c, 8, 43, 0
10, 480000, Note_on_c, 8, 42, 105
10, 480360, Note_on_c, 8, 42, 0
10, 480480, Note_on_c, 8, 48, 105
10, 480660, Note_on_c, 8, 48, 0
10, 480720, Note_on_c, 8, 46, 105
10, 480900, Note_on_c, 8, 46, 0
10, 480960, Note_on_c, 8, 45, 105
10, 481140, Note_on_c, 8, 45, 0
10, 481200, Note_on_c, 8, 43, 105
10, 481380, Note_on_c, 8, 43, 0
10, 481440, Note_on_c, 8, 42, 105
10, 481620, Note_on_c, 8, 42, 0
10, 481680, Note_on_c, 8, 43, 105
10, 481860, Note_on_c, 8, 43, 0
10, 481920, Note_on_c, 8, 42, 105
10, 482280, Note_on_c, 8, 42, 0
10, 482400, Note_on_c, 8, 48, 105
10, 482580, Note_on_c, 8, 48, 0
10, 482640, Note_on_c, 8, 46, 105
10, 482820, Note_on_c, 8, 46, 0
10, 482880, Note_on_c, 8, 45, 105
10, 483060, Note_on_c, 8, 45, 0
10, 483120, Note_on_c, 8, 43, 105
10, 483300, Note_on_c, 8, 43, 0
10, 483360, Note_on_c, 8, 42, 105
10, 483540, Note_on_c, 8, 42, 0
10, 483600, Note_on_c, 8, 43, 105
10, 483780, Note_on_c, 8, 43, 0
10, 483840, Note_on_c, 8, 42, 105
10, 484128, Note_on_c, 8, 42, 0
10, 484320, Note_on_c, 8, 43, 105
10, 484608, Note_on_c, 8, 43, 0
10, 484800, Note_on_c, 8, 36, 105
10, 485088, Note_on_c, 8, 36, 0
10, 485280, Note_on_c, 8, 38, 105
10, 485568, Note_on_c, 8, 38, 0
10, 485760, Note_on_c, 8, 31, 110
10, 486144, Note_on_c, 8, 31, 0
10, 486240, Note_on_c, 8, 36, 70
10, 486420, Note_on_c, 8, 36, 0
10, 486480, Note_on_c, 8, 34, 70
10, 486660, Note_on_c, 8, 34, 0
10, 486720, Note_on_c, 8, 33, 70
10, 486900, Note_on_c, 8, 33, 0
10, 486960, Note_on_c, 8, 31, 70
10, 487140, Note_on_c, 8, 31, 0
10, 487200, Note_on_c, 8, 30, 70
10, 487380, Note_on_c, 8, 30, 0
10, 487440, Note_on_c, 8, 31, 70
10, 487620, Note_on_c, 8, 31, 0
10, 487680, Note_on_c, 8, 30, 70
10, 487968, Note_on_c, 8, 30, 0
10, 488160, Note_on_c, 8, 36, 70
10, 488340, Note_on_c, 8, 36, 0
10, 488400, Note_on_c, 8, 34, 70
10, 488580, Note_on_c, 8, 34, 0
10, 488640, Note_on_c, 8, 33, 70
10, 488820, Note_on_c, 8, 33, 0
10, 488880, Note_on_c, 8, 31, 70
10, 489060, Note_on_c, 8, 31, 0
10, 489120, Note_on_c, 8, 30, 70
10, 489300, Note_on_c, 8, 30, 0
10, 489360, Note_on_c, 8, 31, 70
10, 489540, Note_on_c, 8, 31, 0
10, 489600, Note_on_c, 8, 30, 70
10, 489888, Note_on_c, 8, 30, 0
10, 490080, Note_on_c, 8, 48, 105
10, 490260, Note_on_c, 8, 48, 0
10, 490320, Note_on_c, 8, 46, 105
10, 490500, Note_on_c, 8, 46, 0
10, 490560, Note_on_c, 8, 45, 105
10, 490740, Note_on_c, 8, 45, 0
10, 490800, Note_on_c, 8, 43, 105
10, 490980, Note_on_c, 8, 43, 0
10, 491040, Note_on_c, 8, 42, 105
10, 491220, Note_on_c, 8, 42, 0
10, 491280, Note_on_c, 8, 43, 105
10, 491460, Note_on_c, 8, 43, 0
10, 491520, Note_on_c, 8, 42, 105
10, 491808, Note_on_c, 8, 42, 0
10, 492000, Note_on_c, 8, 43, 105
10, 492288, Note_on_c, 8, 43, 0
10, 492480, Note_on_c, 8, 36, 105
10, 492768, Note_on_c, 8, 36, 0
10, 492960, Note_on_c, 8, 38, 105
10, 493248, Note_on_c, 8, 38, 0
10, 493440, Note_on_c, 8, 31, 105
10, 493728, Note_on_c, 8, 31, 0
10, 493920, Note_on_c, 8, 31, 105
10, 494208, Note_on_c, 8, 31, 0
10, 494400, Note_on_c, 8, 46, 105
10, 494976, Note_on_c, 8, 46, 0
10, 495120, Note_on_c, 8, 45, 105
10, 495312, Note_on_c, 8, 45, 0
10, 495360, Note_on_c, 8, 43, 105
10, 495648, Note_on_c, 8, 43, 0
10, 495840, Note_on_c, 8, 31, 105
10, 496128, Note_on_c, 8, 31, 0
10, 496320, Note_on_c, 8, 46, 105
10, 496896, Note_on_c, 8, 46, 0
10, 497040, Note_on_c, 8, 45, 105
10, 497232, Note_on_c, 8, 45, 0
10, 497280, Note_on_c, 8, 43, 105
10, 498048, Note_on_c, 8, 43, 0
10, 504960, Note_on_c, 8, 43, 105
10, 505344, Note_on_c, 8, 43, 0
10, 505440, Note_on_c, 8, 44, 105
10, 505632, Note_on_c, 8, 44, 0
10, 505680, Note_on_c, 8, 41, 105
10, 505872, Note_on_c, 8, 41, 0
10, 505920, Note_on_c, 8, 39, 105
10, 506304, Note_on_c, 8, 39, 0
10, 506400, Note_on_c, 8, 41, 105
10, 506592, Note_on_c, 8, 41, 0
10, 506640, Note_on_c, 8, 38, 105
10, 506832, Note_on_c, 8, 38, 0
10, 506880, Note_on_c, 8, 36, 105
10, 507264, Note_on_c, 8, 36, 0
10, 507360, Note_on_c, 8, 38, 105
10, 507552, Note_on_c, 8, 38, 0
10, 507600, Note_on_c, 8, 34, 105
10, 507792, Note_on_c, 8, 34, 0
10, 507840, Note_on_c, 8, 33, 105
10, 508224, Note_on_c, 8, 33, 0
10, 508320, Note_on_c, 8, 34, 105
10, 508512, Note_on_c, 8, 34, 0
10, 508560, Note_on_c, 8, 31, 105
10, 508752, Note_on_c, 8, 31, 0
10, 508800, Note_on_c, 8, 37, 105
10, 509184, Note_on_c, 8, 37, 0
10, 510720, Note_on_c, 8, 46, 105
10, 511032, Note_on_c, 8, 46, 0
10, 511200, Note_on_c, 8, 43, 105
10, 511512, Note_on_c, 8, 43, 0
10, 511680, Note_on_c, 8, 40, 105
10, 511992, Note_on_c, 8, 40, 0
10, 512160, Note_on_c, 8, 37, 105
10, 512472, Note_on_c, 8, 37, 0
10, 512640, Note_on_c, 8, 38, 105
10, 512952, Note_on_c, 8, 38, 0
10, 514080, Note_on_c, 8, 51, 105
10, 514272, Note_on_c, 8, 51, 0
10, 514320, Note_on_c, 8, 50, 105
10, 514512, Note_on_c, 8, 50, 0
10, 514560, Note_on_c, 8, 51, 105
10, 514944, Note_on_c, 8, 51, 0
10, 516000, Note_on_c, 8, 50, 105
10, 516192, Note_on_c, 8, 50, 0
10, 516240, Note_on_c, 8, 49, 105
10, 516432, Note_on_c, 8, 49, 0
10, 516480, Note_on_c, 8, 50, 105
10, 517248, Note_on_c, 8, 50, 0
10, 517440, Note_on_c, 8, 38, 105
10, 518208, Note_on_c, 8, 38, 0
10, 518400, Note_on_c, 8, 43, 105
10, 519360, Note_on_c, 8, 43, 0
10, 520320, Note_on_c, 8, 31, 1
10, 521856, Note_on_c, 8, 31, 0
10, 521856, End_track
11, 0, Start_track
11, 0, End_track
0, 0, End_of_file