0, 0, Header, 1, 15, 480
1, 0, Start_track
1, 0, Title_t, "untitled"
1, 0, Time_signature, 4, 2, 24, 8
1, 0, Key_signature, -1, "major"
1, 0, Tempo, 521739
1, 0, Marker_t, "2nd Movement, Andante ma Adagio"
1, 1922, Tempo, 1443696
1, 2144, Tempo, 1621622
1, 2400, Tempo, 1666667
1, 2640, Tempo, 1621622
1, 2880, Tempo, 1578947
1, 3132, Tempo, 1538462
1, 3380, Tempo, 1666667
1, 3640, Tempo, 1578947
1, 3860, Tempo, 1621622
1, 4092, Tempo, 1666667
1, 4340, Tempo, 1578947
1, 4640, Tempo, 1666667
1, 4772, Tempo, 1621622
1, 5024, Tempo, 1578947
1, 5264, Tempo, 1538462
1, 5520, Tempo, 1621622
1, 5760, Tempo, 1578947
1, 6000, Tempo, 1666667
1, 6240, Tempo, 1621622
1, 6480, Tempo, 1666667
1, 6720, Tempo, 1578947
1, 6920, Tempo, 1538462
1, 7200, Tempo, 1621622
1, 7440, Tempo, 1578947
1, 7680, Tempo, 1621622
1, 7920, Tempo, 1666667
1, 8160, Tempo, 1578947
1, 8400, Tempo, 1666667
1, 8640, Tempo, 1621622
1, 8852, Tempo, 1538462
1, 9120, Tempo, 1578947
1, 9360, Tempo, 1621622
1, 9600, Tempo, 1666667
1, 9840, Tempo, 1621622
1, 10040, Tempo, 1578947
1, 10320, Tempo, 1666667
1, 10560, Tempo, 1621622
1, 10800, Tempo, 1666667
1, 11040, Tempo, 1578947
1, 11280, Tempo, 1666667
1, 11500, Tempo, 1621622
1, 11692, Tempo, 1578947
1, 11920, Tempo, 1666667
1, 12140, Tempo, 1621622
1, 12424, Tempo, 1578947
1, 12660, Tempo, 1666667
1, 12980, Tempo, 1621622
1, 13160, Tempo, 1578947
1, 13400, Tempo, 1666667
1, 13664, Tempo, 1578947
1, 13920, Tempo, 1538462
1, 14144, Tempo, 1621622
1, 14400, Tempo, 1578947
1, 14624, Tempo, 1666667
1, 14864, Tempo, 1578947
1, 15064, Tempo, 1621622
1, 15360, Tempo, 1578947
1, 15584, Tempo, 1538462
1, 15852, Tempo, 1578947
1, 16064, Tempo, 1500000
1, 16332, Tempo, 1538462
1, 16572, Tempo, 1621622
1, 16800, Tempo, 1578947
1, 17052, Tempo, 1538462
1, 17264, Tempo, 1621622
1, 17492, Tempo, 1578947
1, 17720, Tempo, 1666667
1, 18012, Tempo, 1578947
1, 18240, Tempo, 1538462
1, 18480, Tempo, 1621622
1, 18680, Tempo, 1578947
1, 18960, Tempo, 1500000
1, 19172, Tempo, 1538462
1, 19412, Tempo, 1621622
1, 19640, Tempo, 1578947
1, 19920, Tempo, 1666667
1, 20132, Tempo, 1621622
1, 20344, Tempo, 1538462
1, 20612, Tempo, 1578947
1, 20840, Tempo, 1621622
1, 21092, Tempo, 1538462
1, 21304, Tempo, 1578947
1, 21600, Tempo, 1500000
1, 21780, Tempo, 1578947
1, 22100, Tempo, 1666667
1, 22252, Tempo, 1578947
1, 22540, Tempo, 1621622
1, 22820, Tempo, 1578947
1, 23060, Tempo, 1666667
1, 23240, Tempo, 1621622
1, 23504, Tempo, 1538462
1, 23720, Tempo, 1578947
1, 24000, Tempo, 1500000
1, 24184, Tempo, 1578947
1, 24440, Tempo, 1538462
1, 24692, Tempo, 1621622
1, 24944, Tempo, 1578947
1, 25184, Tempo, 1500000
1, 25400, Tempo, 1578947
1, 25640, Tempo, 1538462
1, 25904, Tempo, 1621622
1, 26200, Tempo, 1578947
1, 26372, Tempo, 1500000
1, 26612, Tempo, 1578947
1, 26880, Tempo, 1538462
1, 27120, Tempo, 1578947
1, 27344, Tempo, 1621622
1, 27572, Tempo, 1538462
1, 27840, Tempo, 1578947
1, 28080, Tempo, 1500000
1, 28344, Tempo, 1538462
1, 28572, Tempo, 1621622
1, 28760, Tempo, 1578947
1, 29040, Tempo, 1666667
1, 29240, Tempo, 1621622
1, 29520, Tempo, 1538462
1, 29732, Tempo, 1500000
1, 29984, Tempo, 1578947
1, 30212, Tempo, 1538462
1, 30452, Tempo, 1621622
1, 30692, Tempo, 1578947
1, 30984, Tempo, 1500000
1, 31172, Tempo, 1538462
1, 31424, Tempo, 1621622
1, 31664, Tempo, 1578947
1, 31944, Tempo, 1714286
1, 32120, Tempo, 1666667
1, 32360, Tempo, 1538462
1, 32652, Tempo, 1578947
1, 32920, Tempo, 1500000
1, 33092, Tempo, 1578947
1, 33344, Tempo, 1538462
1, 33560, Tempo, 1621622
1, 33800, Tempo, 1578947
1, 34040, Tempo, 1666667
1, 34304, Tempo, 1578947
1, 34544, Tempo, 1538462
1, 34900, Tempo, 1621622
1, 35260, Tempo, 1578947
1, 35580, Tempo, 1666667
1, 35800, Tempo, 1621622
1, 35972, Tempo, 1538462
1, 36200, Tempo, 1578947
1, 36440, Tempo, 1666667
1, 36664, Tempo, 1578947
1, 36944, Tempo, 1621622
1, 37184, Tempo, 1538462
1, 37424, Tempo, 1578947
1, 37680, Tempo, 1621622
1, 37920, Tempo, 1538462
1, 38160, Tempo, 1578947
1, 38384, Tempo, 1500000
1, 38624, Tempo, 1538462
1, 38892, Tempo, 1621622
1, 39092, Tempo, 1578947
1, 39304, Tempo, 1500000
1, 39612, Tempo, 1538462
1, 39812, Tempo, 1666667
1, 40052, Tempo, 1578947
1, 40292, Tempo, 1666667
1, 40504, Tempo, 1578947
1, 40784, Tempo, 1621622
1, 41064, Tempo, 1538462
1, 41280, Tempo, 1578947
1, 41504, Tempo, 1500000
1, 41732, Tempo, 1538462
1, 42000, Tempo, 1621622
1, 42224, Tempo, 1578947
1, 42492, Tempo, 1538462
1, 42704, Tempo, 1621622
1, 42944, Tempo, 1578947
1, 43172, Tempo, 1666667
1, 43424, Tempo, 1621622
1, 43692, Tempo, 1538462
1, 43920, Tempo, 1578947
1, 44132, Tempo, 1500000
1, 44384, Tempo, 1578947
1, 44624, Tempo, 1538462
1, 44852, Tempo, 1621622
1, 45144, Tempo, 1578947
1, 45332, Tempo, 1666667
1, 45560, Tempo, 1621622
1, 45852, Tempo, 1538462
1, 46052, Tempo, 1578947
1, 46304, Tempo, 1621622
1, 46532, Tempo, 1500000
1, 46760, Tempo, 1578947
1, 47024, Tempo, 1538462
1, 47240, Tempo, 1621622
1, 47480, Tempo, 1578947
1, 47720, Tempo, 1666667
1, 47984, Tempo, 1621622
1, 48184, Tempo, 1538462
1, 48440, Tempo, 1578947
1, 48720, Tempo, 1500000
1, 48932, Tempo, 1538462
1, 49184, Tempo, 1621622
1, 49384, Tempo, 1578947
1, 49640, Tempo, 1714286
1, 49892, Tempo, 1621622
1, 50132, Tempo, 1538462
1, 50360, Tempo, 1578947
1, 50624, Tempo, 1500000
1, 50880, Tempo, 1538462
1, 51092, Tempo, 1621622
1, 51360, Tempo, 1578947
1, 51600, Tempo, 1666667
1, 51824, Tempo, 1578947
1, 52052, Tempo, 1538462
1, 52320, Tempo, 1666667
1, 52560, Tempo, 1578947
1, 52772, Tempo, 1500000
1, 52972, Tempo, 1578947
1, 53220, Tempo, 1666667
1, 53424, Tempo, 1621622
1, 53760, Tempo, 1578947
1, 53972, Tempo, 1538462
1, 54212, Tempo, 1621622
1, 54492, Tempo, 1578947
1, 54704, Tempo, 1500000
1, 54960, Tempo, 1538462
1, 55172, Tempo, 1621622
1, 55440, Tempo, 1578947
1, 55680, Tempo, 1666667
1, 55920, Tempo, 1578947
1, 56132, Tempo, 1538462
1, 56400, Tempo, 1621622
1, 56600, Tempo, 1578947
1, 56852, Tempo, 1500000
1, 57104, Tempo, 1578947
1, 57292, Tempo, 1621622
1, 57572, Tempo, 1538462
1, 57824, Tempo, 1578947
1, 58052, Tempo, 1666667
1, 58240, Tempo, 1621622
1, 58520, Tempo, 1538462
1, 58760, Tempo, 1578947
1, 59012, Tempo, 1500000
1, 59252, Tempo, 1538462
1, 59504, Tempo, 1621622
1, 59720, Tempo, 1666667
1, 59972, Tempo, 1578947
1, 60224, Tempo, 1538462
1, 60424, Tempo, 1621622
1, 60744, Tempo, 1578947
1, 60944, Tempo, 1500000
1, 61160, Tempo, 1538462
1, 61424, Tempo, 1621622
1, 61640, Tempo, 1578947
1, 61892, Tempo, 1666667
1, 62120, Tempo, 1578947
1, 62384, Tempo, 1621622
1, 62612, Tempo, 1538462
1, 62864, Tempo, 1500000
1, 63092, Tempo, 1578947
1, 63332, Tempo, 1538462
1, 63560, Tempo, 1621622
1, 63824, Tempo, 1578947
1, 64080, Tempo, 1538462
1, 64304, Tempo, 1621622
1, 64544, Tempo, 1578947
1, 64784, Tempo, 1666667
1, 65024, Tempo, 1578947
1, 65264, Tempo, 1621622
1, 65504, Tempo, 1538462
1, 65704, Tempo, 1578947
1, 65944, Tempo, 1500000
1, 66224, Tempo, 1578947
1, 66464, Tempo, 1538462
1, 66704, Tempo, 1621622
1, 66944, Tempo, 1578947
1, 67172, Tempo, 1666667
1, 67424, Tempo, 1621622
1, 67664, Tempo, 1538462
1, 67892, Tempo, 1578947
1, 68144, Tempo, 1500000
1, 68384, Tempo, 1578947
1, 68624, Tempo, 1538462
1, 68840, Tempo, 1621622
1, 69092, Tempo, 1578947
1, 69320, Tempo, 1666667
1, 69572, Tempo, 1578947
1, 69812, Tempo, 1666667
1, 70080, Tempo, 1538462
1, 70320, Tempo, 1500000
1, 70544, Tempo, 1578947
1, 70760, Tempo, 1500000
1, 71000, Tempo, 1538462
1, 71264, Tempo, 1621622
1, 71480, Tempo, 1578947
1, 71720, Tempo, 1714286
1, 71932, Tempo, 1621622
1, 72200, Tempo, 1578947
1, 72464, Tempo, 1500000
1, 72720, Tempo, 1578947
1, 72972, Tempo, 1538462
1, 73200, Tempo, 1621622
1, 73440, Tempo, 1578947
1, 73680, Tempo, 1666667
1, 73920, Tempo, 1578947
1, 74160, Tempo, 1538462
1, 74372, Tempo, 1621622
1, 74640, Tempo, 1538462
1, 74864, Tempo, 1621622
1, 75120, Tempo, 1578947
1, 75320, Tempo, 1500000
1, 75572, Tempo, 1578947
1, 75840, Tempo, 1538462
1, 76052, Tempo, 1621622
1, 76292, Tempo, 1578947
1, 76480, Tempo, 1621622
1, 76784, Tempo, 1666667
1, 77024, Tempo, 1578947
1, 77252, Tempo, 1621622
1, 77504, Tempo, 1538462
1, 77744, Tempo, 1578947
1, 78000, Tempo, 1666667
1, 78240, Tempo, 1621622
1, 78452, Tempo, 1538462
1, 78692, Tempo, 1578947
1, 78960, Tempo, 1500000
1, 79200, Tempo, 1538462
1, 79424, Tempo, 1621622
1, 79664, Tempo, 1578947
1, 79880, Tempo, 1666667
1, 80160, Tempo, 1578947
1, 80360, Tempo, 1500000
1, 80640, Tempo, 1538462
1, 80880, Tempo, 1621622
1, 81092, Tempo, 1578947
1, 81360, Tempo, 1666667
1, 81600, Tempo, 1621622
1, 81864, Tempo, 1538462
1, 82052, Tempo, 1578947
1, 82360, Tempo, 1500000
1, 82520, Tempo, 1578947
1, 82744, Tempo, 1538462
1, 83000, Tempo, 1621622
1, 83252, Tempo, 1578947
1, 83492, Tempo, 1538462
1, 83744, Tempo, 1621622
1, 83972, Tempo, 1621622
1, 84004, Tempo, 1574803
1, 84224, Tempo, 1500000
1, 84464, Tempo, 1538462
1, 84664, Tempo, 1621622
1, 84944, Tempo, 1578947
1, 85172, Tempo, 1666667
1, 85412, Tempo, 1578947
1, 85624, Tempo, 1500000
1, 85904, Tempo, 1578947
1, 86172, Tempo, 1538462
1, 86412, Tempo, 1621622
1, 86612, Tempo, 1578947
1, 86852, Tempo, 1500000
1, 87104, Tempo, 1538462
1, 87332, Tempo, 1621622
1, 87612, Tempo, 1578947
1, 87812, Tempo, 1666667
1, 88092, Tempo, 1578947
1, 88304, Tempo, 1621622
1, 88532, Tempo, 1538462
1, 88784, Tempo, 1578947
1, 89000, Tempo, 1500000
1, 89264, Tempo, 1578947
1, 89504, Tempo, 1538462
1, 89772, Tempo, 1621622
1, 89984, Tempo, 1578947
1, 90212, Tempo, 1666667
1, 90464, Tempo, 1578947
1, 90704, Tempo, 1621622
1, 91000, Tempo, 1538462
1, 91200, Tempo, 1500000
1, 91372, Tempo, 1578947
1, 91664, Tempo, 1538462
1, 91880, Tempo, 1621622
1, 92120, Tempo, 1578947
1, 92412, Tempo, 1538462
1, 92612, Tempo, 1621622
1, 92812, Tempo, 1578947
1, 93092, Tempo, 1500000
1, 93360, Tempo, 1538462
1, 93600, Tempo, 1621622
1, 93840, Tempo, 1578947
1, 94052, Tempo, 1666667
1, 94292, Tempo, 1578947
1, 94560, Tempo, 1538462
1, 94772, Tempo, 1621622
1, 95040, Tempo, 1578947
1, 95252, Tempo, 1500000
1, 95504, Tempo, 1538462
1, 95744, Tempo, 1621622
1, 95960, Tempo, 1578947
1, 96212, Tempo, 1666667
1, 96452, Tempo, 1621622
1, 96732, Tempo, 1538462
1, 96932, Tempo, 1578947
1, 97172, Tempo, 1500000
1, 97452, Tempo, 1578947
1, 97692, Tempo, 1538462
1, 97920, Tempo, 1621622
1, 98132, Tempo, 1578947
1, 98372, Tempo, 1666667
1, 98612, Tempo, 1621622
1, 98864, Tempo, 1538462
1, 99052, Tempo, 1578947
1, 99360, Tempo, 1500000
1, 99572, Tempo, 1578947
1, 99864, Tempo, 1621622
1, 100052, Tempo, 1648352
1, 100304, Tempo, 1714286
1, 100532, Tempo, 1818182
1, 100772, Tempo, 2068966
1, 102066, Tempo, 594059
1, 102066, End_track
2, 0, Start_track
2, 0, Title_t, "Solo Bassoon"
2, 0, Control_c, 0, 0, 0
2, 0, Control_c, 0, 7, 100
2, 0, Control_c, 0, 10, 64
2, 0, Control_c, 0, 91, 79
2, 0, Control_c, 0, 93, 79
2, 1, Control_c, 0, 32, 1
2, 2, Program_c, 0, 70
2, 13439, Note_on_c, 0, 60, 89
2, 14159, Note_on_c, 0, 65, 93
2, 14171, Note_on_c, 0, 60, 0
2, 14373, Note_on_c, 0, 67, 84
2, 14409, Note_on_c, 0, 65, 0
2, 14418, Note_on_c, 0, 65, 98
2, 14449, Note_on_c, 0, 67, 0
2, 14639, Note_on_c, 0, 64, 87
2, 14656, Note_on_c, 0, 65, 0
2, 14881, Note_on_c, 0, 64, 0
2, 15119, Note_on_c, 0, 58, 93
2, 15333, Note_on_c, 0, 60, 87
2, 15343, Note_on_c, 0, 58, 0
2, 15369, Note_on_c, 0, 58, 93
2, 15413, Note_on_c, 0, 60, 0
2, 15599, Note_on_c, 0, 57, 93
2, 15607, Note_on_c, 0, 58, 0
2, 15827, Note_on_c, 0, 57, 0
2, 16079, Note_on_c, 0, 57, 95
2, 16281, Note_on_c, 0, 57, 0
2, 16319, Note_on_c, 0, 57, 96
2, 16439, Note_on_c, 0, 55, 98
2, 16449, Note_on_c, 0, 57, 0
2, 16559, Note_on_c, 0, 53, 98
2, 16569, Note_on_c, 0, 55, 0
2, 17039, Note_on_c, 0, 52, 93
2, 17049, Note_on_c, 0, 53, 0
2, 17244, Note_on_c, 0, 52, 0
2, 17279, Note_on_c, 0, 53, 93
2, 17399, Note_on_c, 0, 62, 95
2, 17409, Note_on_c, 0, 53, 0
2, 17497, Note_on_c, 0, 62, 0
2, 17519, Note_on_c, 0, 62, 99
2, 17975, Note_on_c, 0, 62, 0
2, 17999, Note_on_c, 0, 60, 102
2, 18119, Note_on_c, 0, 58, 101
2, 18129, Note_on_c, 0, 60, 0
2, 18231, Note_on_c, 0, 58, 0
2, 18239, Note_on_c, 0, 57, 98
2, 18347, Note_on_c, 0, 57, 0
2, 18479, Note_on_c, 0, 67, 87
2, 18539, Note_on_c, 0, 65, 89
2, 18545, Note_on_c, 0, 67, 0
2, 18599, Note_on_c, 0, 64, 89
2, 18605, Note_on_c, 0, 65, 0
2, 18659, Note_on_c, 0, 65, 89
2, 18665, Note_on_c, 0, 64, 0
2, 18719, Note_on_c, 0, 64, 89
2, 18725, Note_on_c, 0, 65, 0
2, 18779, Note_on_c, 0, 62, 89
2, 18785, Note_on_c, 0, 64, 0
2, 18839, Note_on_c, 0, 61, 89
2, 18845, Note_on_c, 0, 62, 0
2, 18899, Note_on_c, 0, 62, 89
2, 18905, Note_on_c, 0, 61, 0
2, 18959, Note_on_c, 0, 60, 89
2, 18965, Note_on_c, 0, 62, 0
2, 19019, Note_on_c, 0, 58, 89
2, 19025, Note_on_c, 0, 60, 0
2, 19079, Note_on_c, 0, 57, 87
2, 19085, Note_on_c, 0, 58, 0
2, 19139, Note_on_c, 0, 58, 87
2, 19145, Note_on_c, 0, 57, 0
2, 19199, Note_on_c, 0, 60, 86
2, 19205, Note_on_c, 0, 58, 0
2, 19319, Note_on_c, 0, 62, 86
2, 19329, Note_on_c, 0, 60, 0
2, 19359, Note_on_c, 0, 60, 84
2, 19363, Note_on_c, 0, 62, 0
2, 19399, Note_on_c, 0, 59, 84
2, 19403, Note_on_c, 0, 60, 0
2, 19439, Note_on_c, 0, 60, 84
2, 19443, Note_on_c, 0, 59, 0
2, 19559, Note_on_c, 0, 62, 84
2, 19571, Note_on_c, 0, 60, 0
2, 19671, Note_on_c, 0, 62, 0
2, 19679, Note_on_c, 0, 53, 84
2, 19919, Note_on_c, 0, 52, 84
2, 19931, Note_on_c, 0, 53, 0
2, 20147, Note_on_c, 0, 52, 0
2, 20159, Note_on_c, 0, 53, 82
2, 20615, Note_on_c, 0, 53, 0
2, 21119, Note_on_c, 0, 41, 89
2, 21575, Note_on_c, 0, 41, 0
2, 21599, Note_on_c, 0, 65, 99
2, 21959, Note_on_c, 0, 62, 86
2, 21969, Note_on_c, 0, 65, 0
2, 22071, Note_on_c, 0, 62, 0
2, 22079, Note_on_c, 0, 60, 81
2, 22199, Note_on_c, 0, 59, 90
2, 22217, Note_on_c, 0, 60, 0
2, 22439, Note_on_c, 0, 60, 87
2, 22457, Note_on_c, 0, 59, 0
2, 22499, Note_on_c, 0, 62, 90
2, 22507, Note_on_c, 0, 60, 0
2, 22555, Note_on_c, 0, 62, 0
2, 22559, Note_on_c, 0, 60, 89
2, 22799, Note_on_c, 0, 60, 0
2, 23039, Note_on_c, 0, 55, 85
2, 23279, Note_on_c, 0, 65, 92
2, 23291, Note_on_c, 0, 55, 0
2, 23759, Note_on_c, 0, 64, 86
2, 23771, Note_on_c, 0, 65, 0
2, 23987, Note_on_c, 0, 64, 0
2, 23999, Note_on_c, 0, 65, 84
2, 24031, Note_on_c, 0, 64, 84
2, 24058, Note_on_c, 0, 65, 0
2, 24066, Note_on_c, 0, 64, 0
2, 24066, Note_on_c, 0, 65, 88
2, 24089, Note_on_c, 0, 64, 88
2, 24106, Note_on_c, 0, 65, 0
2, 24122, Note_on_c, 0, 65, 89
2, 24125, Note_on_c, 0, 64, 0
2, 24144, Note_on_c, 0, 64, 89
2, 24172, Note_on_c, 0, 65, 0
2, 24178, Note_on_c, 0, 62, 89
2, 24198, Note_on_c, 0, 64, 0
2, 24205, Note_on_c, 0, 64, 89
2, 24208, Note_on_c, 0, 62, 0
2, 24239, Note_on_c, 0, 62, 89
2, 24250, Note_on_c, 0, 64, 0
2, 24483, Note_on_c, 0, 62, 0
2, 24959, Note_on_c, 0, 62, 93
2, 25019, Note_on_c, 0, 64, 93
2, 25029, Note_on_c, 0, 62, 0
2, 25079, Note_on_c, 0, 62, 93
2, 25089, Note_on_c, 0, 64, 0
2, 25139, Note_on_c, 0, 60, 93
2, 25151, Note_on_c, 0, 62, 0
2, 25199, Note_on_c, 0, 59, 93
2, 25211, Note_on_c, 0, 60, 0
2, 25287, Note_on_c, 0, 59, 0
2, 25319, Note_on_c, 0, 59, 92
2, 25383, Note_on_c, 0, 59, 0
2, 25439, Note_on_c, 0, 59, 92
2, 25501, Note_on_c, 0, 59, 0
2, 25559, Note_on_c, 0, 59, 92
2, 25679, Note_on_c, 0, 60, 93
2, 25691, Note_on_c, 0, 59, 0
2, 25799, Note_on_c, 0, 62, 93
2, 25813, Note_on_c, 0, 60, 0
2, 25911, Note_on_c, 0, 62, 0
2, 25919, Note_on_c, 0, 64, 95
2, 25979, Note_on_c, 0, 65, 98
2, 25987, Note_on_c, 0, 64, 0
2, 26039, Note_on_c, 0, 64, 99
2, 26051, Note_on_c, 0, 65, 0
2, 26099, Note_on_c, 0, 62, 99
2, 26109, Note_on_c, 0, 64, 0
2, 26159, Note_on_c, 0, 60, 102
2, 26171, Note_on_c, 0, 62, 0
2, 26249, Note_on_c, 0, 60, 0
2, 26279, Note_on_c, 0, 60, 102
2, 26353, Note_on_c, 0, 60, 0
2, 26399, Note_on_c, 0, 60, 102
2, 26485, Note_on_c, 0, 60, 0
2, 26519, Note_on_c, 0, 64, 102
2, 26639, Note_on_c, 0, 62, 98
2, 26651, Note_on_c, 0, 64, 0
2, 26759, Note_on_c, 0, 60, 96
2, 26771, Note_on_c, 0, 62, 0
2, 26871, Note_on_c, 0, 60, 0
2, 26879, Note_on_c, 0, 67, 100
2, 28687, Note_on_c, 0, 67, 0
2, 28799, Note_on_c, 0, 57, 81
2, 29279, Note_on_c, 0, 65, 89
2, 29293, Note_on_c, 0, 57, 0
2, 29657, Note_on_c, 0, 65, 0
2, 29759, Note_on_c, 0, 55, 83
2, 30239, Note_on_c, 0, 64, 83
2, 30249, Note_on_c, 0, 55, 0
2, 30617, Note_on_c, 0, 64, 0
2, 30719, Note_on_c, 0, 53, 80
2, 31199, Note_on_c, 0, 62, 89
2, 31211, Note_on_c, 0, 53, 0
2, 31577, Note_on_c, 0, 62, 0
2, 31679, Note_on_c, 0, 52, 81
2, 31799, Note_on_c, 0, 55, 89
2, 31813, Note_on_c, 0, 52, 0
2, 31919, Note_on_c, 0, 67, 89
2, 31931, Note_on_c, 0, 55, 0
2, 32003, Note_on_c, 0, 67, 0
2, 32039, Note_on_c, 0, 67, 90
2, 32113, Note_on_c, 0, 67, 0
2, 32159, Note_on_c, 0, 67, 90
2, 32279, Note_on_c, 0, 65, 87
2, 32289, Note_on_c, 0, 67, 0
2, 32399, Note_on_c, 0, 64, 83
2, 32417, Note_on_c, 0, 65, 0
2, 32519, Note_on_c, 0, 62, 83
2, 32531, Note_on_c, 0, 64, 0
2, 32631, Note_on_c, 0, 62, 0
2, 32639, Note_on_c, 0, 60, 87
2, 32719, Note_on_c, 0, 60, 0
2, 32759, Note_on_c, 0, 60, 92
2, 32827, Note_on_c, 0, 60, 0
2, 32879, Note_on_c, 0, 60, 92
2, 32957, Note_on_c, 0, 60, 0
2, 32999, Note_on_c, 0, 60, 89
2, 33079, Note_on_c, 0, 60, 0
2, 33119, Note_on_c, 0, 60, 89
2, 33239, Note_on_c, 0, 59, 86
2, 33249, Note_on_c, 0, 60, 0
2, 33359, Note_on_c, 0, 57, 83
2, 33373, Note_on_c, 0, 59, 0
2, 33479, Note_on_c, 0, 55, 81
2, 33493, Note_on_c, 0, 57, 0
2, 33563, Note_on_c, 0, 55, 0
2, 33599, Note_on_c, 0, 55, 78
2, 33765, Note_on_c, 0, 55, 0
2, 33839, Note_on_c, 0, 59, 84
2, 33959, Note_on_c, 0, 60, 86
2, 33975, Note_on_c, 0, 59, 0
2, 34047, Note_on_c, 0, 60, 0
2, 34319, Note_on_c, 0, 67, 85
2, 34439, Note_on_c, 0, 65, 87
2, 34453, Note_on_c, 0, 67, 0
2, 34527, Note_on_c, 0, 65, 0
2, 34799, Note_on_c, 0, 63, 90
2, 34919, Note_on_c, 0, 64, 92
2, 34931, Note_on_c, 0, 63, 0
2, 35003, Note_on_c, 0, 64, 0
2, 35279, Note_on_c, 0, 60, 90
2, 35399, Note_on_c, 0, 59, 100
2, 35409, Note_on_c, 0, 60, 0
2, 35487, Note_on_c, 0, 59, 0
2, 35519, Note_on_c, 0, 67, 99
2, 35975, Note_on_c, 0, 67, 0
2, 35999, Note_on_c, 0, 48, 88
2, 36055, Note_on_c, 0, 46, 91
2, 36067, Note_on_c, 0, 48, 0
2, 36076, Note_on_c, 0, 48, 93
2, 36101, Note_on_c, 0, 46, 93
2, 36107, Note_on_c, 0, 46, 0
2, 36110, Note_on_c, 0, 48, 0
2, 36122, Note_on_c, 0, 48, 93
2, 36132, Note_on_c, 0, 46, 0
2, 36150, Note_on_c, 0, 46, 94
2, 36153, Note_on_c, 0, 48, 0
2, 36178, Note_on_c, 0, 48, 95
2, 36184, Note_on_c, 0, 46, 0
2, 36208, Note_on_c, 0, 46, 97
2, 36209, Note_on_c, 0, 48, 0
2, 36236, Note_on_c, 0, 48, 99
2, 36239, Note_on_c, 0, 46, 0
2, 36262, Note_on_c, 0, 48, 0
2, 36266, Note_on_c, 0, 46, 99
2, 36293, Note_on_c, 0, 48, 99
2, 36300, Note_on_c, 0, 46, 0
2, 36327, Note_on_c, 0, 48, 0
2, 36327, Note_on_c, 0, 46, 99
2, 36361, Note_on_c, 0, 46, 0
2, 36372, Note_on_c, 0, 45, 97
2, 36416, Note_on_c, 0, 46, 97
2, 36431, Note_on_c, 0, 45, 0
2, 36479, Note_on_c, 0, 45, 100
2, 36480, Note_on_c, 0, 46, 0
2, 36935, Note_on_c, 0, 45, 0
2, 36959, Note_on_c, 0, 69, 112
2, 37383, Note_on_c, 0, 69, 0
2, 37439, Note_on_c, 0, 55, 122
2, 37679, Note_on_c, 0, 67, 127
2, 37689, Note_on_c, 0, 55, 0
2, 38135, Note_on_c, 0, 67, 0
2, 38159, Note_on_c, 0, 65, 127
2, 38219, Note_on_c, 0, 64, 125
2, 38231, Note_on_c, 0, 65, 0
2, 38279, Note_on_c, 0, 62, 125
2, 38283, Note_on_c, 0, 64, 0
2, 38339, Note_on_c, 0, 60, 125
2, 38351, Note_on_c, 0, 62, 0
2, 38399, Note_on_c, 0, 64, 123
2, 38407, Note_on_c, 0, 60, 0
2, 38463, Note_on_c, 0, 62, 119
2, 38469, Note_on_c, 0, 64, 0
2, 38519, Note_on_c, 0, 64, 117
2, 38523, Note_on_c, 0, 62, 0
2, 38565, Note_on_c, 0, 62, 117
2, 38569, Note_on_c, 0, 64, 0
2, 38595, Note_on_c, 0, 62, 0
2, 38595, Note_on_c, 0, 64, 117
2, 38619, Note_on_c, 0, 64, 0
2, 38619, Note_on_c, 0, 62, 116
2, 38643, Note_on_c, 0, 62, 0
2, 38643, Note_on_c, 0, 64, 114
2, 38667, Note_on_c, 0, 64, 0
2, 38668, Note_on_c, 0, 62, 114
2, 38692, Note_on_c, 0, 62, 0
2, 38693, Note_on_c, 0, 64, 114
2, 38717, Note_on_c, 0, 64, 0
2, 38717, Note_on_c, 0, 62, 114
2, 38741, Note_on_c, 0, 62, 0
2, 38742, Note_on_c, 0, 64, 114
2, 38766, Note_on_c, 0, 64, 0
2, 38766, Note_on_c, 0, 62, 114
2, 38790, Note_on_c, 0, 62, 0
2, 38790, Note_on_c, 0, 64, 113
2, 38814, Note_on_c, 0, 64, 0
2, 38815, Note_on_c, 0, 62, 111
2, 38839, Note_on_c, 0, 62, 0
2, 38839, Note_on_c, 0, 64, 108
2, 38863, Note_on_c, 0, 64, 0
2, 38863, Note_on_c, 0, 62, 107
2, 38887, Note_on_c, 0, 62, 0
2, 38887, Note_on_c, 0, 64, 104
2, 38911, Note_on_c, 0, 64, 0
2, 38911, Note_on_c, 0, 62, 99
2, 38935, Note_on_c, 0, 62, 0
2, 38936, Note_on_c, 0, 64, 100
2, 38960, Note_on_c, 0, 64, 0
2, 38961, Note_on_c, 0, 62, 99
2, 38985, Note_on_c, 0, 62, 0
2, 38985, Note_on_c, 0, 64, 99
2, 39009, Note_on_c, 0, 64, 0
2, 39009, Note_on_c, 0, 62, 98
2, 39033, Note_on_c, 0, 62, 0
2, 39033, Note_on_c, 0, 64, 97
2, 39057, Note_on_c, 0, 64, 0
2, 39057, Note_on_c, 0, 62, 97
2, 39081, Note_on_c, 0, 62, 0
2, 39081, Note_on_c, 0, 64, 95
2, 39105, Note_on_c, 0, 62, 95
2, 39119, Note_on_c, 0, 64, 0
2, 39129, Note_on_c, 0, 62, 0
2, 39130, Note_on_c, 0, 64, 95
2, 39154, Note_on_c, 0, 64, 0
2, 39154, Note_on_c, 0, 62, 95
2, 39178, Note_on_c, 0, 62, 0
2, 39179, Note_on_c, 0, 64, 95
2, 39203, Note_on_c, 0, 64, 0
2, 39203, Note_on_c, 0, 62, 95
2, 39227, Note_on_c, 0, 62, 0
2, 39239, Note_on_c, 0, 60, 95
2, 39293, Note_on_c, 0, 62, 95
2, 39309, Note_on_c, 0, 60, 0
2, 39359, Note_on_c, 0, 60, 95
2, 39363, Note_on_c, 0, 62, 0
2, 39815, Note_on_c, 0, 60, 0
2, 44399, Note_on_c, 0, 51, 104
2, 44871, Note_on_c, 0, 51, 0
2, 44879, Note_on_c, 0, 60, 114
2, 44999, Note_on_c, 0, 57, 114
2, 45019, Note_on_c, 0, 60, 0
2, 45111, Note_on_c, 0, 57, 0
2, 45119, Note_on_c, 0, 55, 114
2, 45359, Note_on_c, 0, 54, 107
2, 45369, Note_on_c, 0, 55, 0
2, 45729, Note_on_c, 0, 54, 0
2, 45839, Note_on_c, 0, 69, 122
2, 46193, Note_on_c, 0, 69, 0
2, 46199, Note_on_c, 0, 66, 117
2, 46427, Note_on_c, 0, 66, 0
2, 46439, Note_on_c, 0, 63, 110
2, 46667, Note_on_c, 0, 63, 0
2, 46679, Note_on_c, 0, 62, 110
2, 46919, Note_on_c, 0, 60, 110
2, 46929, Note_on_c, 0, 62, 0
2, 47013, Note_on_c, 0, 60, 0
2, 47039, Note_on_c, 0, 60, 101
2, 47159, Note_on_c, 0, 59, 95
2, 47173, Note_on_c, 0, 60, 0
2, 47271, Note_on_c, 0, 59, 0
2, 47279, Note_on_c, 0, 59, 89
2, 47759, Note_on_c, 0, 58, 89
2, 47773, Note_on_c, 0, 59, 0
2, 48177, Note_on_c, 0, 58, 0
2, 48239, Note_on_c, 0, 36, 84
2, 48695, Note_on_c, 0, 36, 0
2, 48719, Note_on_c, 0, 67, 113
2, 49067, Note_on_c, 0, 67, 0
2, 49079, Note_on_c, 0, 64, 106
2, 49199, Note_on_c, 0, 60, 112
2, 49213, Note_on_c, 0, 64, 0
2, 49319, Note_on_c, 0, 58, 117
2, 49333, Note_on_c, 0, 60, 0
2, 49425, Note_on_c, 0, 58, 0
2, 49439, Note_on_c, 0, 57, 117
2, 49559, Note_on_c, 0, 60, 116
2, 49569, Note_on_c, 0, 57, 0
2, 49679, Note_on_c, 0, 65, 116
2, 49689, Note_on_c, 0, 60, 0
2, 49771, Note_on_c, 0, 65, 0
2, 49799, Note_on_c, 0, 57, 121
2, 49869, Note_on_c, 0, 57, 0
2, 49919, Note_on_c, 0, 60, 121
2, 50279, Note_on_c, 0, 57, 114
2, 50293, Note_on_c, 0, 60, 0
2, 50391, Note_on_c, 0, 57, 0
2, 50399, Note_on_c, 0, 55, 112
2, 50878, Note_on_c, 0, 55, 0
2, 53759, Note_on_c, 0, 60, 90
2, 54479, Note_on_c, 0, 65, 98
2, 54493, Note_on_c, 0, 60, 0
2, 54693, Note_on_c, 0, 67, 98
2, 54695, Note_on_c, 0, 65, 0
2, 54723, Note_on_c, 0, 67, 0
2, 54729, Note_on_c, 0, 65, 102
2, 54959, Note_on_c, 0, 64, 99
2, 54967, Note_on_c, 0, 65, 0
2, 55213, Note_on_c, 0, 64, 0
2, 55438, Note_on_c, 0, 58, 98
2, 55654, Note_on_c, 0, 58, 0
2, 55655, Note_on_c, 0, 60, 92
2, 55655, Note_on_c, 0, 60, 95
2, 55685, Note_on_c, 0, 60, 0
2, 55685, Note_on_c, 0, 60, 0
2, 55691, Note_on_c, 0, 58, 98
2, 55919, Note_on_c, 0, 57, 98
2, 55933, Note_on_c, 0, 58, 0
2, 56165, Note_on_c, 0, 57, 0
2, 56399, Note_on_c, 0, 57, 93
2, 56605, Note_on_c, 0, 57, 0
2, 56639, Note_on_c, 0, 57, 93
2, 56759, Note_on_c, 0, 55, 93
2, 56773, Note_on_c, 0, 57, 0
2, 56879, Note_on_c, 0, 53, 92
2, 56897, Note_on_c, 0, 55, 0
2, 57359, Note_on_c, 0, 52, 90
2, 57377, Note_on_c, 0, 53, 0
2, 57573, Note_on_c, 0, 52, 0
2, 57599, Note_on_c, 0, 53, 93
2, 58073, Note_on_c, 0, 53, 0
2, 60239, Note_on_c, 0, 65, 108
2, 60359, Note_on_c, 0, 60, 107
2, 60371, Note_on_c, 0, 65, 0
2, 60463, Note_on_c, 0, 60, 0
2, 60479, Note_on_c, 0, 60, 104
2, 60599, Note_on_c, 0, 58, 101
2, 60609, Note_on_c, 0, 60, 0
2, 60701, Note_on_c, 0, 58, 0
2, 60719, Note_on_c, 0, 58, 101
2, 61175, Note_on_c, 0, 58, 0
2, 61199, Note_on_c, 0, 57, 98
2, 61319, Note_on_c, 0, 55, 98
2, 61337, Note_on_c, 0, 57, 0
2, 61425, Note_on_c, 0, 55, 0
2, 61439, Note_on_c, 0, 53, 95
2, 61559, Note_on_c, 0, 62, 98
2, 61575, Note_on_c, 0, 53, 0
2, 61659, Note_on_c, 0, 62, 0
2, 61679, Note_on_c, 0, 62, 99
2, 62135, Note_on_c, 0, 62, 0
2, 62159, Note_on_c, 0, 60, 101
2, 62279, Note_on_c, 0, 58, 99
2, 62295, Note_on_c, 0, 60, 0
2, 62383, Note_on_c, 0, 58, 0
2, 62399, Note_on_c, 0, 57, 95
2, 62549, Note_on_c, 0, 57, 0
2, 62627, Note_on_c, 0, 67, 86
2, 62699, Note_on_c, 0, 65, 87
2, 62711, Note_on_c, 0, 67, 0
2, 62759, Note_on_c, 0, 64, 89
2, 62771, Note_on_c, 0, 65, 0
2, 62819, Note_on_c, 0, 65, 89
2, 62833, Note_on_c, 0, 64, 0
2, 62879, Note_on_c, 0, 64, 89
2, 62891, Note_on_c, 0, 65, 0
2, 62939, Note_on_c, 0, 62, 89
2, 62951, Note_on_c, 0, 64, 0
2, 62999, Note_on_c, 0, 61, 89
2, 63013, Note_on_c, 0, 62, 0
2, 63059, Note_on_c, 0, 62, 89
2, 63071, Note_on_c, 0, 61, 0
2, 63119, Note_on_c, 0, 60, 87
2, 63133, Note_on_c, 0, 62, 0
2, 63179, Note_on_c, 0, 58, 85
2, 63191, Note_on_c, 0, 60, 0
2, 63239, Note_on_c, 0, 57, 83
2, 63251, Note_on_c, 0, 58, 0
2, 63299, Note_on_c, 0, 58, 83
2, 63313, Note_on_c, 0, 57, 0
2, 63355, Note_on_c, 0, 58, 0
2, 63359, Note_on_c, 0, 60, 83
2, 63479, Note_on_c, 0, 62, 86
2, 63493, Note_on_c, 0, 60, 0
2, 63517, Note_on_c, 0, 62, 0
2, 63519, Note_on_c, 0, 60, 87
2, 63555, Note_on_c, 0, 60, 0
2, 63559, Note_on_c, 0, 59, 88
2, 63595, Note_on_c, 0, 59, 0
2, 63599, Note_on_c, 0, 60, 88
2, 63719, Note_on_c, 0, 62, 86
2, 63731, Note_on_c, 0, 60, 0
2, 63811, Note_on_c, 0, 62, 0
2, 63839, Note_on_c, 0, 53, 84
2, 64079, Note_on_c, 0, 52, 85
2, 64091, Note_on_c, 0, 53, 0
2, 64319, Note_on_c, 0, 53, 85
2, 64335, Note_on_c, 0, 52, 0
2, 64567, Note_on_c, 0, 53, 0
2, 65279, Note_on_c, 0, 41, 110
2, 65735, Note_on_c, 0, 41, 0
2, 65759, Note_on_c, 0, 65, 113
2, 66119, Note_on_c, 0, 62, 106
2, 66131, Note_on_c, 0, 65, 0
2, 66225, Note_on_c, 0, 62, 0
2, 66239, Note_on_c, 0, 59, 102
2, 66599, Note_on_c, 0, 60, 112
2, 66611, Note_on_c, 0, 59, 0
2, 66659, Note_on_c, 0, 62, 109
2, 66669, Note_on_c, 0, 60, 0
2, 66719, Note_on_c, 0, 60, 115
2, 66729, Note_on_c, 0, 62, 0
2, 66961, Note_on_c, 0, 60, 0
2, 67199, Note_on_c, 0, 38, 102
2, 67655, Note_on_c, 0, 38, 0
2, 67679, Note_on_c, 0, 62, 117
2, 68039, Note_on_c, 0, 58, 104
2, 68051, Note_on_c, 0, 62, 0
2, 68151, Note_on_c, 0, 58, 0
2, 68159, Note_on_c, 0, 56, 117
2, 68519, Note_on_c, 0, 57, 116
2, 68533, Note_on_c, 0, 56, 0
2, 68579, Note_on_c, 0, 59, 119
2, 68591, Note_on_c, 0, 57, 0
2, 68639, Note_on_c, 0, 57, 119
2, 68651, Note_on_c, 0, 59, 0
2, 68885, Note_on_c, 0, 57, 0
2, 69119, Note_on_c, 0, 34, 116
2, 69567, Note_on_c, 0, 34, 0
2, 69599, Note_on_c, 0, 58, 116
2, 69959, Note_on_c, 0, 55, 108
2, 69973, Note_on_c, 0, 58, 0
2, 70069, Note_on_c, 0, 55, 0
2, 70079, Note_on_c, 0, 52, 95
2, 70439, Note_on_c, 0, 53, 98
2, 70451, Note_on_c, 0, 52, 0
2, 70499, Note_on_c, 0, 55, 104
2, 70509, Note_on_c, 0, 53, 0
2, 70555, Note_on_c, 0, 55, 0
2, 70559, Note_on_c, 0, 53, 108
2, 70797, Note_on_c, 0, 53, 0
2, 71039, Note_on_c, 0, 48, 93
2, 71279, Note_on_c, 0, 58, 104
2, 71291, Note_on_c, 0, 48, 0
2, 71759, Note_on_c, 0, 57, 102
2, 71771, Note_on_c, 0, 58, 0
2, 71983, Note_on_c, 0, 57, 0
2, 72002, Note_on_c, 0, 58, 87
2, 72023, Note_on_c, 0, 57, 86
2, 72026, Note_on_c, 0, 58, 0
2, 72047, Note_on_c, 0, 57, 0
2, 72049, Note_on_c, 0, 58, 86
2, 72073, Note_on_c, 0, 58, 0
2, 72078, Note_on_c, 0, 57, 84
2, 72102, Note_on_c, 0, 57, 0
2, 72107, Note_on_c, 0, 58, 84
2, 72131, Note_on_c, 0, 58, 0
2, 72140, Note_on_c, 0, 57, 84
2, 72164, Note_on_c, 0, 57, 0
2, 72171, Note_on_c, 0, 55, 84
2, 72195, Note_on_c, 0, 55, 0
2, 72206, Note_on_c, 0, 57, 84
2, 72230, Note_on_c, 0, 57, 0
2, 72239, Note_on_c, 0, 55, 87
2, 72467, Note_on_c, 0, 55, 0
2, 72959, Note_on_c, 0, 55, 87
2, 73019, Note_on_c, 0, 57, 89
2, 73029, Note_on_c, 0, 55, 0
2, 73079, Note_on_c, 0, 55, 92
2, 73089, Note_on_c, 0, 57, 0
2, 73139, Note_on_c, 0, 53, 92
2, 73149, Note_on_c, 0, 55, 0
2, 73199, Note_on_c, 0, 52, 92
2, 73209, Note_on_c, 0, 53, 0
2, 73285, Note_on_c, 0, 52, 0
2, 73319, Note_on_c, 0, 52, 92
2, 73389, Note_on_c, 0, 52, 0
2, 73439, Note_on_c, 0, 52, 92
2, 73509, Note_on_c, 0, 52, 0
2, 73559, Note_on_c, 0, 52, 92
2, 73679, Note_on_c, 0, 53, 92
2, 73693, Note_on_c, 0, 52, 0
2, 73799, Note_on_c, 0, 55, 92
2, 73813, Note_on_c, 0, 53, 0
2, 73901, Note_on_c, 0, 55, 0
2, 73919, Note_on_c, 0, 57, 89
2, 73979, Note_on_c, 0, 58, 92
2, 73989, Note_on_c, 0, 57, 0
2, 74039, Note_on_c, 0, 57, 89
2, 74049, Note_on_c, 0, 58, 0
2, 74099, Note_on_c, 0, 55, 87
2, 74109, Note_on_c, 0, 57, 0
2, 74159, Note_on_c, 0, 53, 87
2, 74169, Note_on_c, 0, 55, 0
2, 74235, Note_on_c, 0, 53, 0
2, 74279, Note_on_c, 0, 53, 87
2, 74349, Note_on_c, 0, 53, 0
2, 74399, Note_on_c, 0, 53, 87
2, 74475, Note_on_c, 0, 53, 0
2, 74519, Note_on_c, 0, 57, 93
2, 74639, Note_on_c, 0, 55, 93
2, 74651, Note_on_c, 0, 57, 0
2, 74751, Note_on_c, 0, 55, 0
2, 74759, Note_on_c, 0, 53, 93
2, 74871, Note_on_c, 0, 53, 0
2, 74879, Note_on_c, 0, 60, 102
2, 76659, Note_on_c, 0, 60, 0
2, 76799, Note_on_c, 0, 46, 96
2, 77247, Note_on_c, 0, 46, 0
2, 77279, Note_on_c, 0, 62, 101
2, 77759, Note_on_c, 0, 60, 104
2, 77769, Note_on_c, 0, 62, 0
2, 78207, Note_on_c, 0, 60, 0
2, 78239, Note_on_c, 0, 45, 99
2, 78719, Note_on_c, 0, 48, 99
2, 78731, Note_on_c, 0, 45, 0
2, 79175, Note_on_c, 0, 48, 0
2, 79209, Note_on_c, 0, 60, 105
2, 79284, Note_on_c, 0, 58, 96
2, 79293, Note_on_c, 0, 60, 0
2, 79320, Note_on_c, 0, 60, 98
2, 79350, Note_on_c, 0, 58, 0
2, 79356, Note_on_c, 0, 58, 98
2, 79368, Note_on_c, 0, 60, 0
2, 79384, Note_on_c, 0, 60, 100
2, 79393, Note_on_c, 0, 58, 0
2, 79415, Note_on_c, 0, 58, 100
2, 79417, Note_on_c, 0, 60, 0
2, 79444, Note_on_c, 0, 60, 101
2, 79452, Note_on_c, 0, 58, 0
2, 79478, Note_on_c, 0, 60, 0
2, 79478, Note_on_c, 0, 58, 103
2, 79504, Note_on_c, 0, 60, 105
2, 79511, Note_on_c, 0, 58, 0
2, 79536, Note_on_c, 0, 58, 106
2, 79546, Note_on_c, 0, 60, 0
2, 79564, Note_on_c, 0, 57, 108
2, 79579, Note_on_c, 0, 58, 0
2, 79618, Note_on_c, 0, 58, 110
2, 79619, Note_on_c, 0, 57, 0
2, 79679, Note_on_c, 0, 57, 113
2, 79686, Note_on_c, 0, 58, 0
2, 79791, Note_on_c, 0, 57, 0
2, 79799, Note_on_c, 0, 65, 117
2, 80034, Note_on_c, 0, 65, 0
2, 80039, Note_on_c, 0, 60, 117
2, 80272, Note_on_c, 0, 60, 0
2, 80279, Note_on_c, 0, 57, 117
2, 80503, Note_on_c, 0, 57, 0
2, 80519, Note_on_c, 0, 53, 117
2, 80587, Note_on_c, 0, 53, 0
2, 80639, Note_on_c, 0, 48, 112
2, 81095, Note_on_c, 0, 48, 0
2, 81119, Note_on_c, 0, 60, 92
2, 81173, Note_on_c, 0, 58, 94
2, 81179, Note_on_c, 0, 60, 0
2, 81223, Note_on_c, 0, 58, 0
2, 81224, Note_on_c, 0, 60, 96
2, 81254, Note_on_c, 0, 58, 96
2, 81257, Note_on_c, 0, 60, 0
2, 81279, Note_on_c, 0, 60, 96
2, 81289, Note_on_c, 0, 58, 0
2, 81307, Note_on_c, 0, 58, 96
2, 81311, Note_on_c, 0, 60, 0
2, 81335, Note_on_c, 0, 60, 96
2, 81343, Note_on_c, 0, 58, 0
2, 81363, Note_on_c, 0, 58, 95
2, 81369, Note_on_c, 0, 60, 0
2, 81389, Note_on_c, 0, 58, 0
2, 81391, Note_on_c, 0, 60, 94
2, 81425, Note_on_c, 0, 58, 93
2, 81432, Note_on_c, 0, 60, 0
2, 81474, Note_on_c, 0, 58, 0
2, 81477, Note_on_c, 0, 57, 89
2, 81533, Note_on_c, 0, 58, 88
2, 81547, Note_on_c, 0, 57, 0
2, 81599, Note_on_c, 0, 57, 88
2, 81603, Note_on_c, 0, 58, 0
2, 81711, Note_on_c, 0, 57, 0
2, 81719, Note_on_c, 0, 48, 88
2, 81831, Note_on_c, 0, 48, 0
2, 81839, Note_on_c, 0, 60, 88
2, 81925, Note_on_c, 0, 60, 0
2, 81959, Note_on_c, 0, 60, 88
2, 82041, Note_on_c, 0, 60, 0
2, 82079, Note_on_c, 0, 60, 88
2, 82199, Note_on_c, 0, 58, 92
2, 82213, Note_on_c, 0, 60, 0
2, 82319, Note_on_c, 0, 57, 95
2, 82333, Note_on_c, 0, 58, 0
2, 82439, Note_on_c, 0, 55, 93
2, 82449, Note_on_c, 0, 57, 0
2, 82551, Note_on_c, 0, 55, 0
2, 82559, Note_on_c, 0, 53, 90
2, 82633, Note_on_c, 0, 53, 0
2, 82679, Note_on_c, 0, 53, 88
2, 82741, Note_on_c, 0, 53, 0
2, 82799, Note_on_c, 0, 53, 88
2, 82857, Note_on_c, 0, 53, 0
2, 82919, Note_on_c, 0, 53, 86
2, 82981, Note_on_c, 0, 53, 0
2, 83039, Note_on_c, 0, 53, 84
2, 83159, Note_on_c, 0, 52, 82
2, 83169, Note_on_c, 0, 53, 0
2, 83279, Note_on_c, 0, 50, 81
2, 83289, Note_on_c, 0, 52, 0
2, 83399, Note_on_c, 0, 48, 81
2, 83413, Note_on_c, 0, 50, 0
2, 83505, Note_on_c, 0, 48, 0
2, 83519, Note_on_c, 0, 48, 83
2, 83627, Note_on_c, 0, 48, 0
2, 83759, Note_on_c, 0, 52, 85
2, 83879, Note_on_c, 0, 53, 90
2, 83893, Note_on_c, 0, 52, 0
2, 84001, Note_on_c, 0, 53, 0
2, 84239, Note_on_c, 0, 60, 92
2, 84359, Note_on_c, 0, 58, 89
2, 84369, Note_on_c, 0, 60, 0
2, 84477, Note_on_c, 0, 58, 0
2, 84719, Note_on_c, 0, 56, 83
2, 84839, Note_on_c, 0, 57, 88
2, 84853, Note_on_c, 0, 56, 0
2, 84951, Note_on_c, 0, 57, 0
2, 85199, Note_on_c, 0, 53, 90
2, 85319, Note_on_c, 0, 52, 86
2, 85333, Note_on_c, 0, 53, 0
2, 85431, Note_on_c, 0, 52, 0
2, 85439, Note_on_c, 0, 60, 85
2, 85895, Note_on_c, 0, 60, 0
2, 85919, Note_on_c, 0, 46, 96
2, 85974, Note_on_c, 0, 45, 90
2, 85983, Note_on_c, 0, 46, 0
2, 86023, Note_on_c, 0, 46, 90
2, 86025, Note_on_c, 0, 45, 0
2, 86053, Note_on_c, 0, 45, 90
2, 86058, Note_on_c, 0, 46, 0
2, 86080, Note_on_c, 0, 46, 93
2, 86088, Note_on_c, 0, 45, 0
2, 86106, Note_on_c, 0, 45, 93
2, 86113, Note_on_c, 0, 46, 0
2, 86132, Note_on_c, 0, 46, 95
2, 86142, Note_on_c, 0, 45, 0
2, 86157, Note_on_c, 0, 45, 96
2, 86171, Note_on_c, 0, 46, 0
2, 86183, Note_on_c, 0, 46, 96
2, 86193, Note_on_c, 0, 45, 0
2, 86212, Note_on_c, 0, 45, 101
2, 86216, Note_on_c, 0, 46, 0
2, 86262, Note_on_c, 0, 45, 0
2, 86264, Note_on_c, 0, 43, 108
2, 86327, Note_on_c, 0, 45, 116
2, 86340, Note_on_c, 0, 43, 0
2, 86399, Note_on_c, 0, 46, 104
2, 86403, Note_on_c, 0, 45, 0
2, 86855, Note_on_c, 0, 46, 0
2, 86879, Note_on_c, 0, 62, 127
2, 87253, Note_on_c, 0, 62, 0
2, 87359, Note_on_c, 0, 48, 114
2, 87777, Note_on_c, 0, 48, 0
2, 87839, Note_on_c, 0, 57, 120
2, 87893, Note_on_c, 0, 55, 120
2, 87902, Note_on_c, 0, 57, 0
2, 87943, Note_on_c, 0, 57, 120
2, 87944, Note_on_c, 0, 55, 0
2, 87974, Note_on_c, 0, 55, 120
2, 87977, Note_on_c, 0, 57, 0
2, 87998, Note_on_c, 0, 57, 120
2, 88009, Note_on_c, 0, 55, 0
2, 88027, Note_on_c, 0, 55, 119
2, 88033, Note_on_c, 0, 57, 0
2, 88051, Note_on_c, 0, 57, 117
2, 88061, Note_on_c, 0, 55, 0
2, 88076, Note_on_c, 0, 55, 116
2, 88087, Note_on_c, 0, 57, 0
2, 88105, Note_on_c, 0, 57, 114
2, 88111, Note_on_c, 0, 55, 0
2, 88134, Note_on_c, 0, 55, 113
2, 88146, Note_on_c, 0, 57, 0
2, 88182, Note_on_c, 0, 55, 0
2, 88183, Note_on_c, 0, 53, 113
2, 88253, Note_on_c, 0, 55, 113
2, 88259, Note_on_c, 0, 53, 0
2, 88319, Note_on_c, 0, 53, 113
2, 88329, Note_on_c, 0, 55, 0
2, 88399, Note_on_c, 0, 57, 113
2, 88411, Note_on_c, 0, 53, 0
2, 88479, Note_on_c, 0, 60, 113
2, 88489, Note_on_c, 0, 57, 0
2, 88542, Note_on_c, 0, 60, 0
2, 88559, Note_on_c, 0, 60, 113
2, 89039, Note_on_c, 0, 61, 114
2, 89057, Note_on_c, 0, 60, 0
2, 89267, Note_on_c, 0, 61, 0
2, 89279, Note_on_c, 0, 62, 114
2, 89395, Note_on_c, 0, 62, 0
2, 89519, Note_on_c, 0, 62, 113
2, 89759, Note_on_c, 0, 64, 105
2, 89773, Note_on_c, 0, 62, 0
2, 89999, Note_on_c, 0, 65, 95
2, 90017, Note_on_c, 0, 64, 0
2, 90205, Note_on_c, 0, 65, 0
2, 90239, Note_on_c, 0, 60, 86
2, 90807, Note_on_c, 0, 60, 0
2, 90839, Note_on_c, 0, 62, 94
2, 90899, Note_on_c, 0, 60, 90
2, 90909, Note_on_c, 0, 62, 0
2, 90959, Note_on_c, 0, 58, 87
2, 90969, Note_on_c, 0, 60, 0
2, 91019, Note_on_c, 0, 57, 83
2, 91033, Note_on_c, 0, 58, 0
2, 91079, Note_on_c, 0, 55, 83
2, 91093, Note_on_c, 0, 57, 0
2, 91139, Note_on_c, 0, 53, 83
2, 91151, Note_on_c, 0, 55, 0
2, 91195, Note_on_c, 0, 53, 0
2, 91199, Note_on_c, 0, 57, 83
2, 91275, Note_on_c, 0, 55, 83
2, 91285, Note_on_c, 0, 57, 0
2, 91319, Note_on_c, 0, 57, 81
2, 91348, Note_on_c, 0, 55, 0
2, 91363, Note_on_c, 0, 55, 82
2, 91369, Note_on_c, 0, 57, 0
2, 91399, Note_on_c, 0, 55, 0
2, 91399, Note_on_c, 0, 57, 84
2, 91424, Note_on_c, 0, 55, 84
2, 91434, Note_on_c, 0, 57, 0
2, 91449, Note_on_c, 0, 57, 84
2, 91458, Note_on_c, 0, 55, 0
2, 91475, Note_on_c, 0, 55, 86
2, 91482, Note_on_c, 0, 57, 0
2, 91500, Note_on_c, 0, 57, 86
2, 91510, Note_on_c, 0, 55, 0
2, 91526, Note_on_c, 0, 55, 87
2, 91534, Note_on_c, 0, 57, 0
2, 91551, Note_on_c, 0, 57, 87
2, 91562, Note_on_c, 0, 55, 0
2, 91576, Note_on_c, 0, 55, 89
2, 91588, Note_on_c, 0, 57, 0
2, 91603, Note_on_c, 0, 57, 89
2, 91608, Note_on_c, 0, 55, 0
2, 91628, Note_on_c, 0, 55, 91
2, 91638, Note_on_c, 0, 57, 0
2, 91653, Note_on_c, 0, 57, 93
2, 91664, Note_on_c, 0, 55, 0
2, 91679, Note_on_c, 0, 55, 93
2, 91688, Note_on_c, 0, 57, 0
2, 91704, Note_on_c, 0, 57, 93
2, 91714, Note_on_c, 0, 55, 0
2, 91730, Note_on_c, 0, 55, 94
2, 91740, Note_on_c, 0, 57, 0
2, 91756, Note_on_c, 0, 57, 94
2, 91764, Note_on_c, 0, 55, 0
2, 91781, Note_on_c, 0, 55, 94
2, 91791, Note_on_c, 0, 57, 0
2, 91806, Note_on_c, 0, 57, 96
2, 91817, Note_on_c, 0, 55, 0
2, 91832, Note_on_c, 0, 55, 96
2, 91841, Note_on_c, 0, 57, 0
2, 91859, Note_on_c, 0, 57, 98
2, 91867, Note_on_c, 0, 55, 0
2, 91884, Note_on_c, 0, 55, 98
2, 91893, Note_on_c, 0, 57, 0
2, 91909, Note_on_c, 0, 57, 99
2, 91920, Note_on_c, 0, 55, 0
2, 91934, Note_on_c, 0, 55, 99
2, 91943, Note_on_c, 0, 57, 0
2, 91960, Note_on_c, 0, 57, 101
2, 91970, Note_on_c, 0, 55, 0
2, 91985, Note_on_c, 0, 55, 101
2, 91994, Note_on_c, 0, 57, 0
2, 92019, Note_on_c, 0, 55, 0
2, 92023, Note_on_c, 0, 53, 103
2, 92092, Note_on_c, 0, 55, 108
2, 92105, Note_on_c, 0, 53, 0
2, 92159, Note_on_c, 0, 53, 111
2, 92168, Note_on_c, 0, 55, 0
2, 92615, Note_on_c, 0, 53, 0
2, 94079, Note_on_c, 0, 53, 114
2, 94873, Note_on_c, 0, 53, 0
2, 95039, Note_on_c, 0, 65, 108
2, 95131, Note_on_c, 0, 64, 108
2, 95145, Note_on_c, 0, 65, 0
2, 95189, Note_on_c, 0, 65, 108
2, 95211, Note_on_c, 0, 64, 0
2, 95240, Note_on_c, 0, 64, 108
2, 95249, Note_on_c, 0, 65, 0
2, 95269, Note_on_c, 0, 65, 108
2, 95280, Note_on_c, 0, 64, 0
2, 95299, Note_on_c, 0, 64, 108
2, 95302, Note_on_c, 0, 65, 0
2, 95327, Note_on_c, 0, 65, 108
2, 95335, Note_on_c, 0, 64, 0
2, 95356, Note_on_c, 0, 64, 108
2, 95362, Note_on_c, 0, 65, 0
2, 95388, Note_on_c, 0, 65, 108
2, 95392, Note_on_c, 0, 64, 0
2, 95414, Note_on_c, 0, 64, 108
2, 95423, Note_on_c, 0, 65, 0
2, 95444, Note_on_c, 0, 65, 108
2, 95449, Note_on_c, 0, 64, 0
2, 95474, Note_on_c, 0, 64, 108
2, 95478, Note_on_c, 0, 65, 0
2, 95522, Note_on_c, 0, 62, 102
2, 95523, Note_on_c, 0, 64, 0
2, 95747, Note_on_c, 0, 64, 108
2, 95760, Note_on_c, 0, 62, 0
2, 95999, Note_on_c, 0, 65, 113
2, 96016, Note_on_c, 0, 64, 0
2, 96472, Note_on_c, 0, 65, 0
2, 96472, End_track
3, 0, Start_track
3, 0, Title_t, "Oboe I, II"
3, 0, Control_c, 1, 0, 0
3, 0, Control_c, 1, 7, 90
3, 0, Control_c, 1, 10, 75
3, 0, Control_c, 1, 91, 73
3, 0, Control_c, 1, 93, 67
3, 1, Control_c, 1, 32, 1
3, 2, Program_c, 1, 68
3, 5760, Note_on_c, 1, 69, 68
3, 5762, Note_on_c, 1, 65, 68
3, 5880, Note_on_c, 1, 67, 68
3, 5882, Note_on_c, 1, 70, 68
3, 5900, Note_on_c, 1, 69, 0
3, 5908, Note_on_c, 1, 65, 0
3, 6000, Note_on_c, 1, 72, 70
3, 6002, Note_on_c, 1, 69, 69
3, 6026, Note_on_c, 1, 67, 0
3, 6026, Note_on_c, 1, 70, 0
3, 6120, Note_on_c, 1, 70, 69
3, 6122, Note_on_c, 1, 74, 70
3, 6144, Note_on_c, 1, 72, 0
3, 6148, Note_on_c, 1, 69, 0
3, 6242, Note_on_c, 1, 75, 70
3, 6242, Note_on_c, 1, 72, 69
3, 6256, Note_on_c, 1, 70, 0
3, 6262, Note_on_c, 1, 74, 0
3, 6362, Note_on_c, 1, 74, 70
3, 6362, Note_on_c, 1, 70, 71
3, 6382, Note_on_c, 1, 75, 0
3, 6384, Note_on_c, 1, 72, 0
3, 6480, Note_on_c, 1, 75, 70
3, 6482, Note_on_c, 1, 72, 70
3, 6498, Note_on_c, 1, 74, 0
3, 6500, Note_on_c, 1, 70, 0
3, 6585, Note_on_c, 1, 72, 0
3, 6600, Note_on_c, 1, 72, 67
3, 6600, Note_on_c, 1, 69, 67
3, 6616, Note_on_c, 1, 75, 0
3, 6712, Note_on_c, 1, 69, 0
3, 6715, Note_on_c, 1, 72, 0
3, 6720, Note_on_c, 1, 70, 67
3, 6722, Note_on_c, 1, 74, 66
3, 6938, Note_on_c, 1, 74, 0
3, 6938, Note_on_c, 1, 70, 0
3, 10082, Note_on_c, 1, 79, 52
3, 10082, Note_on_c, 1, 76, 52
3, 10542, Note_on_c, 1, 76, 0
3, 10542, Note_on_c, 1, 79, 0
3, 10560, Note_on_c, 1, 77, 54
3, 10562, Note_on_c, 1, 81, 54
3, 11032, Note_on_c, 1, 81, 0
3, 11042, Note_on_c, 1, 83, 54
3, 11504, Note_on_c, 1, 83, 0
3, 11504, Note_on_c, 1, 77, 0
3, 11522, Note_on_c, 1, 84, 56
3, 11522, Note_on_c, 1, 76, 55
3, 11770, Note_on_c, 1, 84, 0
3, 11778, Note_on_c, 1, 76, 0
3, 24242, Note_on_c, 1, 79, 51
3, 24242, Note_on_c, 1, 67, 53
3, 24450, Note_on_c, 1, 67, 0
3, 24456, Note_on_c, 1, 79, 0
3, 24480, Note_on_c, 1, 79, 51
3, 24482, Note_on_c, 1, 67, 51
3, 24692, Note_on_c, 1, 79, 0
3, 24694, Note_on_c, 1, 67, 0
3, 24720, Note_on_c, 1, 79, 49
3, 24722, Note_on_c, 1, 67, 52
3, 24934, Note_on_c, 1, 79, 0
3, 24938, Note_on_c, 1, 67, 0
3, 24960, Note_on_c, 1, 67, 49
3, 24962, Note_on_c, 1, 79, 51
3, 26830, Note_on_c, 1, 67, 0
3, 26832, Note_on_c, 1, 79, 0
3, 26880, Note_on_c, 1, 74, 78
3, 26882, Note_on_c, 1, 77, 77
3, 26942, Note_on_c, 1, 79, 77
3, 26942, Note_on_c, 1, 76, 77
3, 26950, Note_on_c, 1, 74, 0
3, 26954, Note_on_c, 1, 77, 0
3, 27000, Note_on_c, 1, 77, 74
3, 27000, Note_on_c, 1, 74, 71
3, 27014, Note_on_c, 1, 76, 0
3, 27018, Note_on_c, 1, 79, 0
3, 27060, Note_on_c, 1, 76, 69
3, 27062, Note_on_c, 1, 72, 69
3, 27072, Note_on_c, 1, 77, 0
3, 27072, Note_on_c, 1, 74, 0
3, 27120, Note_on_c, 1, 72, 0
3, 27120, Note_on_c, 1, 74, 63
3, 27120, Note_on_c, 1, 71, 64
3, 27126, Note_on_c, 1, 76, 0
3, 27164, Note_on_c, 1, 71, 0
3, 27164, Note_on_c, 1, 74, 0
3, 27240, Note_on_c, 1, 71, 64
3, 27242, Note_on_c, 1, 74, 64
3, 27288, Note_on_c, 1, 71, 0
3, 27290, Note_on_c, 1, 74, 0
3, 27362, Note_on_c, 1, 74, 65
3, 27362, Note_on_c, 1, 71, 66
3, 27408, Note_on_c, 1, 71, 0
3, 27410, Note_on_c, 1, 74, 0
3, 27480, Note_on_c, 1, 71, 64
3, 27482, Note_on_c, 1, 74, 63
3, 27600, Note_on_c, 1, 76, 63
3, 27602, Note_on_c, 1, 72, 65
3, 27618, Note_on_c, 1, 74, 0
3, 27622, Note_on_c, 1, 71, 0
3, 27722, Note_on_c, 1, 74, 65
3, 27722, Note_on_c, 1, 77, 64
3, 27740, Note_on_c, 1, 76, 0
3, 27744, Note_on_c, 1, 72, 0
3, 27800, Note_on_c, 1, 74, 0
3, 27802, Note_on_c, 1, 77, 0
3, 27840, Note_on_c, 1, 79, 63
3, 27842, Note_on_c, 1, 76, 63
3, 27900, Note_on_c, 1, 77, 65
3, 27902, Note_on_c, 1, 81, 64
3, 27912, Note_on_c, 1, 79, 0
3, 27922, Note_on_c, 1, 76, 0
3, 27960, Note_on_c, 1, 79, 66
3, 27960, Note_on_c, 1, 76, 65
3, 27972, Note_on_c, 1, 77, 0
3, 27980, Note_on_c, 1, 81, 0
3, 28020, Note_on_c, 1, 77, 64
3, 28022, Note_on_c, 1, 74, 65
3, 28034, Note_on_c, 1, 79, 0
3, 28036, Note_on_c, 1, 76, 0
3, 28072, Note_on_c, 1, 74, 0
3, 28076, Note_on_c, 1, 77, 0
3, 28080, Note_on_c, 1, 76, 64
3, 28080, Note_on_c, 1, 72, 63
3, 28124, Note_on_c, 1, 76, 0
3, 28134, Note_on_c, 1, 72, 0
3, 28200, Note_on_c, 1, 76, 63
3, 28202, Note_on_c, 1, 72, 63
3, 28244, Note_on_c, 1, 76, 0
3, 28256, Note_on_c, 1, 72, 0
3, 28320, Note_on_c, 1, 72, 63
3, 28322, Note_on_c, 1, 76, 64
3, 28366, Note_on_c, 1, 76, 0
3, 28370, Note_on_c, 1, 72, 0
3, 28440, Note_on_c, 1, 76, 66
3, 28442, Note_on_c, 1, 79, 65
3, 28562, Note_on_c, 1, 77, 66
3, 28562, Note_on_c, 1, 74, 66
3, 28576, Note_on_c, 1, 76, 0
3, 28586, Note_on_c, 1, 79, 0
3, 28680, Note_on_c, 1, 72, 66
3, 28682, Note_on_c, 1, 76, 63
3, 28700, Note_on_c, 1, 74, 0
3, 28702, Note_on_c, 1, 77, 0
3, 28758, Note_on_c, 1, 72, 0
3, 28764, Note_on_c, 1, 76, 0
3, 29042, Note_on_c, 1, 72, 90
3, 29282, Note_on_c, 1, 77, 92
3, 29304, Note_on_c, 1, 72, 0
3, 29520, Note_on_c, 1, 81, 90
3, 29542, Note_on_c, 1, 77, 0
3, 29710, Note_on_c, 1, 81, 0
3, 30000, Note_on_c, 1, 72, 89
3, 30242, Note_on_c, 1, 76, 89
3, 30258, Note_on_c, 1, 72, 0
3, 30480, Note_on_c, 1, 79, 92
3, 30500, Note_on_c, 1, 76, 0
3, 30674, Note_on_c, 1, 79, 0
3, 30960, Note_on_c, 1, 71, 95
3, 31200, Note_on_c, 1, 74, 95
3, 31218, Note_on_c, 1, 71, 0
3, 31440, Note_on_c, 1, 77, 94
3, 31462, Note_on_c, 1, 74, 0
3, 31638, Note_on_c, 1, 77, 0
3, 31682, Note_on_c, 1, 76, 96
3, 31934, Note_on_c, 1, 76, 0
3, 37920, Note_on_c, 1, 72, 66
3, 37922, Note_on_c, 1, 76, 66
3, 38400, Note_on_c, 1, 76, 0
3, 38400, Note_on_c, 1, 74, 63
3, 38882, Note_on_c, 1, 71, 60
3, 38884, Note_on_c, 1, 72, 0
3, 39354, Note_on_c, 1, 71, 0
3, 39360, Note_on_c, 1, 74, 0
3, 39360, Note_on_c, 1, 72, 60
3, 39780, Note_on_c, 1, 72, 0
3, 48000, Note_on_c, 1, 82, 53
3, 48000, Note_on_c, 1, 76, 52
3, 49440, Note_on_c, 1, 77, 55
3, 49442, Note_on_c, 1, 81, 55
3, 49454, Note_on_c, 1, 76, 0
3, 49456, Note_on_c, 1, 82, 0
3, 49894, Note_on_c, 1, 81, 0
3, 49900, Note_on_c, 1, 77, 0
3, 49922, Note_on_c, 1, 84, 63
3, 49922, Note_on_c, 1, 81, 62
3, 50266, Note_on_c, 1, 81, 0
3, 50280, Note_on_c, 1, 81, 57
3, 50280, Note_on_c, 1, 77, 55
3, 50294, Note_on_c, 1, 84, 0
3, 50362, Note_on_c, 1, 77, 0
3, 50362, Note_on_c, 1, 81, 0
3, 50402, Note_on_c, 1, 79, 52
3, 50402, Note_on_c, 1, 76, 52
3, 50522, Note_on_c, 1, 79, 0
3, 50524, Note_on_c, 1, 76, 0
3, 57600, Note_on_c, 1, 65, 74
3, 57602, Note_on_c, 1, 69, 72
3, 57722, Note_on_c, 1, 70, 86
3, 57722, Note_on_c, 1, 67, 83
3, 57736, Note_on_c, 1, 69, 0
3, 57744, Note_on_c, 1, 65, 0
3, 57840, Note_on_c, 1, 69, 85
3, 57842, Note_on_c, 1, 72, 84
3, 57864, Note_on_c, 1, 70, 0
3, 57866, Note_on_c, 1, 67, 0
3, 57960, Note_on_c, 1, 74, 81
3, 57960, Note_on_c, 1, 70, 80
3, 57980, Note_on_c, 1, 69, 0
3, 57982, Note_on_c, 1, 72, 0
3, 58082, Note_on_c, 1, 75, 80
3, 58082, Note_on_c, 1, 72, 82
3, 58094, Note_on_c, 1, 70, 0
3, 58098, Note_on_c, 1, 74, 0
3, 58200, Note_on_c, 1, 74, 80
3, 58200, Note_on_c, 1, 70, 78
3, 58216, Note_on_c, 1, 72, 0
3, 58220, Note_on_c, 1, 75, 0
3, 58320, Note_on_c, 1, 75, 76
3, 58322, Note_on_c, 1, 72, 78
3, 58334, Note_on_c, 1, 70, 0
3, 58344, Note_on_c, 1, 74, 0
3, 58436, Note_on_c, 1, 72, 0
3, 58440, Note_on_c, 1, 72, 76
3, 58440, Note_on_c, 1, 69, 78
3, 58452, Note_on_c, 1, 75, 0
3, 58554, Note_on_c, 1, 69, 0
3, 58554, Note_on_c, 1, 72, 0
3, 58560, Note_on_c, 1, 74, 76
3, 58562, Note_on_c, 1, 70, 77
3, 58774, Note_on_c, 1, 74, 0
3, 58778, Note_on_c, 1, 70, 0
3, 72240, Note_on_c, 1, 72, 47
3, 72242, Note_on_c, 1, 84, 45
3, 72450, Note_on_c, 1, 72, 0
3, 72460, Note_on_c, 1, 84, 0
3, 72480, Note_on_c, 1, 84, 47
3, 72482, Note_on_c, 1, 72, 47
3, 72688, Note_on_c, 1, 84, 0
3, 72698, Note_on_c, 1, 72, 0
3, 72722, Note_on_c, 1, 84, 48
3, 72722, Note_on_c, 1, 72, 51
3, 72930, Note_on_c, 1, 84, 0
3, 72932, Note_on_c, 1, 72, 0
3, 72960, Note_on_c, 1, 84, 47
3, 72962, Note_on_c, 1, 72, 46
3, 74822, Note_on_c, 1, 72, 0
3, 74826, Note_on_c, 1, 84, 0
3, 74880, Note_on_c, 1, 79, 60
3, 74882, Note_on_c, 1, 82, 59
3, 74940, Note_on_c, 1, 84, 58
3, 74940, Note_on_c, 1, 81, 61
3, 74954, Note_on_c, 1, 79, 0
3, 74960, Note_on_c, 1, 82, 0
3, 75000, Note_on_c, 1, 79, 61
3, 75002, Note_on_c, 1, 82, 61
3, 75018, Note_on_c, 1, 84, 0
3, 75018, Note_on_c, 1, 81, 0
3, 75060, Note_on_c, 1, 81, 60
3, 75062, Note_on_c, 1, 77, 60
3, 75070, Note_on_c, 1, 79, 0
3, 75082, Note_on_c, 1, 82, 0
3, 75120, Note_on_c, 1, 79, 59
3, 75122, Note_on_c, 1, 81, 0
3, 75122, Note_on_c, 1, 76, 62
3, 75124, Note_on_c, 1, 77, 0
3, 75172, Note_on_c, 1, 76, 0
3, 75174, Note_on_c, 1, 79, 0
3, 75240, Note_on_c, 1, 79, 62
3, 75242, Note_on_c, 1, 76, 60
3, 75288, Note_on_c, 1, 76, 0
3, 75294, Note_on_c, 1, 79, 0
3, 75360, Note_on_c, 1, 76, 59
3, 75362, Note_on_c, 1, 79, 59
3, 75412, Note_on_c, 1, 79, 0
3, 75412, Note_on_c, 1, 76, 0
3, 75482, Note_on_c, 1, 79, 62
3, 75482, Note_on_c, 1, 76, 59
3, 75600, Note_on_c, 1, 81, 63
3, 75602, Note_on_c, 1, 77, 63
3, 75616, Note_on_c, 1, 79, 0
3, 75620, Note_on_c, 1, 76, 0
3, 75720, Note_on_c, 1, 82, 63
3, 75722, Note_on_c, 1, 79, 63
3, 75738, Note_on_c, 1, 81, 0
3, 75744, Note_on_c, 1, 77, 0
3, 75802, Note_on_c, 1, 82, 0
3, 75810, Note_on_c, 1, 79, 0
3, 75840, Note_on_c, 1, 84, 61
3, 75840, Note_on_c, 1, 81, 63
3, 75900, Note_on_c, 1, 82, 62
3, 75902, Note_on_c, 1, 86, 62
3, 75914, Note_on_c, 1, 84, 0
3, 75920, Note_on_c, 1, 81, 0
3, 75960, Note_on_c, 1, 84, 62
3, 75960, Note_on_c, 1, 81, 62
3, 75970, Note_on_c, 1, 82, 0
3, 75972, Note_on_c, 1, 86, 0
3, 76020, Note_on_c, 1, 82, 64
3, 76022, Note_on_c, 1, 79, 64
3, 76036, Note_on_c, 1, 84, 0
3, 76036, Note_on_c, 1, 81, 0
3, 76066, Note_on_c, 1, 82, 0
3, 76070, Note_on_c, 1, 79, 0
3, 76080, Note_on_c, 1, 77, 63
3, 76082, Note_on_c, 1, 81, 64
3, 76130, Note_on_c, 1, 81, 0
3, 76130, Note_on_c, 1, 77, 0
3, 76202, Note_on_c, 1, 81, 62
3, 76202, Note_on_c, 1, 77, 64
3, 76254, Note_on_c, 1, 77, 0
3, 76254, Note_on_c, 1, 81, 0
3, 76322, Note_on_c, 1, 81, 62
3, 76322, Note_on_c, 1, 77, 61
3, 76374, Note_on_c, 1, 77, 0
3, 76374, Note_on_c, 1, 81, 0
3, 76442, Note_on_c, 1, 84, 64
3, 76442, Note_on_c, 1, 81, 64
3, 76560, Note_on_c, 1, 79, 61
3, 76562, Note_on_c, 1, 82, 61
3, 76580, Note_on_c, 1, 81, 0
3, 76582, Note_on_c, 1, 84, 0
3, 76680, Note_on_c, 1, 81, 61
3, 76680, Note_on_c, 1, 77, 61
3, 76694, Note_on_c, 1, 79, 0
3, 76698, Note_on_c, 1, 82, 0
3, 76764, Note_on_c, 1, 81, 0
3, 76768, Note_on_c, 1, 77, 0
3, 77042, Note_on_c, 1, 77, 92
3, 77280, Note_on_c, 1, 82, 91
3, 77294, Note_on_c, 1, 77, 0
3, 77522, Note_on_c, 1, 86, 88
3, 77536, Note_on_c, 1, 82, 0
3, 77714, Note_on_c, 1, 86, 0
3, 78000, Note_on_c, 1, 77, 69
3, 78242, Note_on_c, 1, 81, 71
3, 78262, Note_on_c, 1, 77, 0
3, 78480, Note_on_c, 1, 84, 69
3, 78496, Note_on_c, 1, 81, 0
3, 78674, Note_on_c, 1, 84, 0
3, 78720, Note_on_c, 1, 82, 71
3, 78722, Note_on_c, 1, 76, 70
3, 79680, Note_on_c, 1, 81, 70
3, 79680, Note_on_c, 1, 77, 68
3, 79700, Note_on_c, 1, 82, 0
3, 79704, Note_on_c, 1, 76, 0
3, 80066, Note_on_c, 1, 81, 0
3, 80070, Note_on_c, 1, 77, 0
3, 80640, Note_on_c, 1, 82, 72
3, 80640, Note_on_c, 1, 76, 73
3, 81600, Note_on_c, 1, 81, 75
3, 81600, Note_on_c, 1, 77, 76
3, 81612, Note_on_c, 1, 76, 0
3, 81616, Note_on_c, 1, 82, 0
3, 81692, Note_on_c, 1, 77, 0
3, 81698, Note_on_c, 1, 81, 0
3, 90722, Note_on_c, 1, 81, 53
3, 90722, Note_on_c, 1, 77, 52
3, 91200, Note_on_c, 1, 79, 56
3, 91210, Note_on_c, 1, 81, 0
3, 91682, Note_on_c, 1, 76, 64
3, 91698, Note_on_c, 1, 77, 0
3, 92150, Note_on_c, 1, 79, 0
3, 92156, Note_on_c, 1, 76, 0
3, 92162, Note_on_c, 1, 77, 68
3, 92642, Note_on_c, 1, 65, 77
3, 94080, Note_on_c, 1, 65, 0
3, 94082, Note_on_c, 1, 69, 81
3, 94530, Note_on_c, 1, 77, 0
3, 94532, Note_on_c, 1, 69, 0
3, 96023, Note_on_c, 1, 77, 87
3, 96235, Note_on_c, 1, 77, 0
3, 96240, Note_on_c, 1, 84, 65
3, 96242, Note_on_c, 1, 81, 66
3, 96722, Note_on_c, 1, 82, 59
3, 96722, Note_on_c, 1, 79, 60
3, 96736, Note_on_c, 1, 84, 0
3, 96738, Note_on_c, 1, 81, 0
3, 96916, Note_on_c, 1, 79, 0
3, 96918, Note_on_c, 1, 82, 0
3, 96960, Note_on_c, 1, 79, 61
3, 96962, Note_on_c, 1, 82, 60
3, 97082, Note_on_c, 1, 81, 61
3, 97082, Note_on_c, 1, 77, 60
3, 97092, Note_on_c, 1, 82, 0
3, 97092, Note_on_c, 1, 79, 0
3, 97188, Note_on_c, 1, 77, 0
3, 97190, Note_on_c, 1, 81, 0
3, 97200, Note_on_c, 1, 81, 61
3, 97200, Note_on_c, 1, 77, 59
3, 97682, Note_on_c, 1, 79, 59
3, 97682, Note_on_c, 1, 76, 58
3, 97690, Note_on_c, 1, 77, 0
3, 97698, Note_on_c, 1, 81, 0
3, 97876, Note_on_c, 1, 76, 0
3, 97878, Note_on_c, 1, 79, 0
3, 97920, Note_on_c, 1, 77, 61
3, 98158, Note_on_c, 1, 77, 0
3, 98158, End_track
4, 0, Start_track
4, 0, Title_t, "Horns"
4, 0, Control_c, 2, 0, 0
4, 0, Control_c, 2, 7, 100
4, 0, Control_c, 2, 10, 45
4, 0, Control_c, 2, 91, 79
4, 0, Control_c, 2, 93, 79
4, 1, Control_c, 2, 32, 1
4, 2, Program_c, 2, 60
4, 5764, Note_on_c, 2, 65, 54
4, 5764, Note_on_c, 2, 53, 54
4, 6992, Note_on_c, 2, 53, 0
4, 7012, Note_on_c, 2, 65, 0
4, 9604, Note_on_c, 2, 48, 54
4, 9604, Note_on_c, 2, 60, 54
4, 11772, Note_on_c, 2, 48, 0
4, 11792, Note_on_c, 2, 60, 0
4, 28802, Note_on_c, 2, 48, 48
4, 28804, Note_on_c, 2, 60, 48
4, 30666, Note_on_c, 2, 48, 0
4, 30672, Note_on_c, 2, 60, 0
4, 38402, Note_on_c, 2, 67, 77
4, 39310, Note_on_c, 2, 67, 0
4, 39362, Note_on_c, 2, 67, 77
4, 39362, Note_on_c, 2, 60, 77
4, 39790, Note_on_c, 2, 67, 0
4, 39792, Note_on_c, 2, 60, 0
4, 48004, Note_on_c, 2, 67, 63
4, 48004, Note_on_c, 2, 60, 63
4, 49432, Note_on_c, 2, 67, 0
4, 49442, Note_on_c, 2, 65, 62
4, 49442, Note_on_c, 2, 69, 62
4, 49444, Note_on_c, 2, 60, 0
4, 49892, Note_on_c, 2, 65, 0
4, 49906, Note_on_c, 2, 69, 0
4, 49922, Note_on_c, 2, 69, 62
4, 49922, Note_on_c, 2, 65, 62
4, 50392, Note_on_c, 2, 65, 0
4, 50402, Note_on_c, 2, 60, 62
4, 50404, Note_on_c, 2, 69, 0
4, 50404, Note_on_c, 2, 67, 62
4, 50650, Note_on_c, 2, 60, 0
4, 50652, Note_on_c, 2, 67, 0
4, 57602, Note_on_c, 2, 65, 49
4, 57602, Note_on_c, 2, 53, 49
4, 58804, Note_on_c, 2, 53, 0
4, 58804, Note_on_c, 2, 65, 0
4, 78964, Note_on_c, 2, 60, 84
4, 79202, Note_on_c, 2, 67, 70
4, 79220, Note_on_c, 2, 60, 0
4, 79442, Note_on_c, 2, 70, 63
4, 79452, Note_on_c, 2, 67, 0
4, 79632, Note_on_c, 2, 70, 0
4, 79922, Note_on_c, 2, 65, 84
4, 80164, Note_on_c, 2, 69, 84
4, 80174, Note_on_c, 2, 65, 0
4, 80402, Note_on_c, 2, 72, 84
4, 80420, Note_on_c, 2, 69, 0
4, 80598, Note_on_c, 2, 72, 0
4, 80884, Note_on_c, 2, 60, 83
4, 81122, Note_on_c, 2, 67, 83
4, 81134, Note_on_c, 2, 60, 0
4, 81364, Note_on_c, 2, 70, 81
4, 81380, Note_on_c, 2, 67, 0
4, 81558, Note_on_c, 2, 70, 0
4, 81602, Note_on_c, 2, 69, 81
4, 81816, Note_on_c, 2, 69, 0
4, 91204, Note_on_c, 2, 60, 54
4, 92162, Note_on_c, 2, 53, 72
4, 92164, Note_on_c, 2, 65, 72
4, 92176, Note_on_c, 2, 60, 0
4, 94076, Note_on_c, 2, 65, 0
4, 94078, Note_on_c, 2, 53, 0
4, 94082, Note_on_c, 2, 60, 76
4, 94084, Note_on_c, 2, 48, 76
4, 94502, Note_on_c, 2, 60, 0
4, 94512, Note_on_c, 2, 48, 0
4, 96002, Note_on_c, 2, 57, 60
4, 96004, Note_on_c, 2, 65, 60
4, 96236, Note_on_c, 2, 57, 0
4, 96242, Note_on_c, 2, 69, 71
4, 96244, Note_on_c, 2, 65, 0
4, 96244, Note_on_c, 2, 72, 71
4, 96724, Note_on_c, 2, 70, 77
4, 96724, Note_on_c, 2, 67, 77
4, 96742, Note_on_c, 2, 69, 0
4, 96748, Note_on_c, 2, 72, 0
4, 96942, Note_on_c, 2, 70, 0
4, 96948, Note_on_c, 2, 67, 0
4, 96962, Note_on_c, 2, 70, 77
4, 96962, Note_on_c, 2, 67, 77
4, 97082, Note_on_c, 2, 69, 77
4, 97084, Note_on_c, 2, 65, 77
4, 97104, Note_on_c, 2, 70, 0
4, 97106, Note_on_c, 2, 67, 0
4, 97190, Note_on_c, 2, 69, 0
4, 97198, Note_on_c, 2, 65, 0
4, 97202, Note_on_c, 2, 65, 76
4, 97204, Note_on_c, 2, 69, 76
4, 97684, Note_on_c, 2, 67, 68
4, 97684, Note_on_c, 2, 60, 68
4, 97704, Note_on_c, 2, 69, 0
4, 97704, Note_on_c, 2, 65, 0
4, 97882, Note_on_c, 2, 67, 0
4, 97886, Note_on_c, 2, 60, 0
4, 97922, Note_on_c, 2, 65, 61
4, 97924, Note_on_c, 2, 57, 61
4, 98166, Note_on_c, 2, 65, 0
4, 98168, Note_on_c, 2, 57, 0
4, 98168, End_track
5, 0, Start_track
5, 0, Title_t, "Orchestral Bassoon"
5, 0, Control_c, 3, 0, 0
5, 0, Control_c, 3, 7, 75
5, 0, Control_c, 3, 10, 64
5, 0, Control_c, 3, 91, 73
5, 0, Control_c, 3, 93, 73
5, 1, Control_c, 3, 32, 1
5, 2, Program_c, 3, 70
5, 1921, Note_on_c, 3, 53, 40
5, 2163, Note_on_c, 3, 53, 0
5, 2399, Note_on_c, 3, 53, 40
5, 2647, Note_on_c, 3, 53, 0
5, 2879, Note_on_c, 3, 55, 40
5, 3127, Note_on_c, 3, 55, 0
5, 3361, Note_on_c, 3, 48, 41
5, 3611, Note_on_c, 3, 48, 0
5, 3841, Note_on_c, 3, 53, 42
5, 4085, Note_on_c, 3, 53, 0
5, 4319, Note_on_c, 3, 45, 42
5, 4565, Note_on_c, 3, 45, 0
5, 4799, Note_on_c, 3, 46, 42
5, 5045, Note_on_c, 3, 46, 0
5, 5279, Note_on_c, 3, 48, 42
5, 5525, Note_on_c, 3, 48, 0
5, 5761, Note_on_c, 3, 53, 41
5, 6931, Note_on_c, 3, 53, 0
5, 7201, Note_on_c, 3, 41, 41
5, 7439, Note_on_c, 3, 41, 0
5, 7679, Note_on_c, 3, 53, 42
5, 7923, Note_on_c, 3, 53, 0
5, 8161, Note_on_c, 3, 41, 43
5, 8399, Note_on_c, 3, 41, 0
5, 8639, Note_on_c, 3, 50, 43
5, 8885, Note_on_c, 3, 50, 0
5, 9121, Note_on_c, 3, 50, 43
5, 9365, Note_on_c, 3, 50, 0
5, 9601, Note_on_c, 3, 48, 42
5, 9843, Note_on_c, 3, 48, 0
5, 10079, Note_on_c, 3, 48, 42
5, 10321, Note_on_c, 3, 48, 0
5, 10559, Note_on_c, 3, 48, 44
5, 10803, Note_on_c, 3, 48, 0
5, 11041, Note_on_c, 3, 48, 44
5, 11279, Note_on_c, 3, 48, 0
5, 11279, End_track
6, 0, Start_track
6, 0, Title_t, "Violin I"
6, 0, Control_c, 4, 0, 0
6, 0, Control_c, 4, 7, 110
6, 0, Control_c, 4, 10, 30
6, 0, Control_c, 4, 91, 88
6, 0, Control_c, 4, 93, 76
6, 1, Control_c, 4, 32, 1
6, 2, Program_c, 4, 48
6, 1920, Note_on_c, 4, 72, 61
6, 2642, Note_on_c, 4, 77, 65
6, 2665, Note_on_c, 4, 72, 0
6, 2880, Note_on_c, 4, 79, 61
6, 2896, Note_on_c, 4, 77, 0
6, 2920, Note_on_c, 4, 77, 71
6, 2946, Note_on_c, 4, 79, 0
6, 3122, Note_on_c, 4, 76, 66
6, 3152, Note_on_c, 4, 77, 0
6, 3361, Note_on_c, 4, 76, 0
6, 3600, Note_on_c, 4, 70, 65
6, 3842, Note_on_c, 4, 72, 60
6, 3854, Note_on_c, 4, 70, 0
6, 3882, Note_on_c, 4, 70, 70
6, 3915, Note_on_c, 4, 72, 0
6, 4080, Note_on_c, 4, 69, 68
6, 4103, Note_on_c, 4, 70, 0
6, 4318, Note_on_c, 4, 69, 0
6, 4562, Note_on_c, 4, 69, 65
6, 4787, Note_on_c, 4, 69, 0
6, 4802, Note_on_c, 4, 69, 56
6, 4920, Note_on_c, 4, 67, 64
6, 4947, Note_on_c, 4, 69, 0
6, 5038, Note_on_c, 4, 67, 0
6, 5040, Note_on_c, 4, 65, 60
6, 5522, Note_on_c, 4, 64, 64
6, 5544, Note_on_c, 4, 65, 0
6, 5760, Note_on_c, 4, 64, 0
6, 5760, Note_on_c, 4, 65, 66
6, 6238, Note_on_c, 4, 65, 0
6, 6722, Note_on_c, 4, 74, 64
6, 6796, Note_on_c, 4, 70, 64
6, 6808, Note_on_c, 4, 74, 0
6, 6878, Note_on_c, 4, 77, 66
6, 6880, Note_on_c, 4, 70, 0
6, 6950, Note_on_c, 4, 77, 0
6, 6962, Note_on_c, 4, 77, 70
6, 7440, Note_on_c, 4, 77, 0
6, 7440, Note_on_c, 4, 76, 68
6, 7560, Note_on_c, 4, 74, 65
6, 7582, Note_on_c, 4, 76, 0
6, 7680, Note_on_c, 4, 74, 0
6, 7680, Note_on_c, 4, 71, 65
6, 7920, Note_on_c, 4, 72, 67
6, 7945, Note_on_c, 4, 71, 0
6, 8164, Note_on_c, 4, 72, 0
6, 8400, Note_on_c, 4, 72, 67
6, 8642, Note_on_c, 4, 72, 0
6, 8642, Note_on_c, 4, 77, 69
6, 8760, Note_on_c, 4, 69, 69
6, 8787, Note_on_c, 4, 77, 0
6, 8874, Note_on_c, 4, 69, 0
6, 8880, Note_on_c, 4, 69, 66
6, 9362, Note_on_c, 4, 71, 66
6, 9384, Note_on_c, 4, 69, 0
6, 9599, Note_on_c, 4, 71, 0
6, 9602, Note_on_c, 4, 74, 70
6, 9842, Note_on_c, 4, 72, 70
6, 9864, Note_on_c, 4, 74, 0
6, 10080, Note_on_c, 4, 72, 0
6, 10320, Note_on_c, 4, 79, 65
6, 10558, Note_on_c, 4, 79, 0
6, 10560, Note_on_c, 4, 81, 72
6, 10800, Note_on_c, 4, 77, 66
6, 10822, Note_on_c, 4, 81, 0
6, 11036, Note_on_c, 4, 77, 0
6, 11282, Note_on_c, 4, 71, 68
6, 11520, Note_on_c, 4, 72, 70
6, 11521, Note_on_c, 4, 71, 0
6, 12000, Note_on_c, 4, 73, 71
6, 12023, Note_on_c, 4, 72, 0
6, 12480, Note_on_c, 4, 74, 70
6, 12503, Note_on_c, 4, 73, 0
6, 12962, Note_on_c, 4, 64, 65
6, 12984, Note_on_c, 4, 74, 0
6, 13399, Note_on_c, 4, 64, 0
6, 13442, Note_on_c, 4, 65, 49
6, 13562, Note_on_c, 4, 69, 52
6, 13578, Note_on_c, 4, 65, 0
6, 13636, Note_on_c, 4, 69, 0
6, 13682, Note_on_c, 4, 69, 52
6, 13756, Note_on_c, 4, 69, 0
6, 13802, Note_on_c, 4, 69, 52
6, 13872, Note_on_c, 4, 69, 0
6, 13920, Note_on_c, 4, 69, 52
6, 13994, Note_on_c, 4, 69, 0
6, 14042, Note_on_c, 4, 69, 52
6, 14124, Note_on_c, 4, 69, 0
6, 14160, Note_on_c, 4, 69, 52
6, 14230, Note_on_c, 4, 69, 0
6, 14282, Note_on_c, 4, 69, 51
6, 14354, Note_on_c, 4, 69, 0
6, 14522, Note_on_c, 4, 70, 51
6, 14600, Note_on_c, 4, 70, 0
6, 14642, Note_on_c, 4, 70, 51
6, 14720, Note_on_c, 4, 70, 0
6, 14760, Note_on_c, 4, 70, 51
6, 14842, Note_on_c, 4, 70, 0
6, 14882, Note_on_c, 4, 67, 50
6, 14954, Note_on_c, 4, 67, 0
6, 15002, Note_on_c, 4, 67, 49
6, 15082, Note_on_c, 4, 67, 0
6, 15122, Note_on_c, 4, 67, 49
6, 15196, Note_on_c, 4, 67, 0
6, 15240, Note_on_c, 4, 67, 48
6, 15312, Note_on_c, 4, 67, 0
6, 15482, Note_on_c, 4, 67, 49
6, 15600, Note_on_c, 4, 69, 51
6, 15618, Note_on_c, 4, 67, 0
6, 15676, Note_on_c, 4, 69, 0
6, 15722, Note_on_c, 4, 69, 51
6, 15796, Note_on_c, 4, 69, 0
6, 15842, Note_on_c, 4, 72, 53
6, 15918, Note_on_c, 4, 72, 0
6, 15960, Note_on_c, 4, 72, 53
6, 16032, Note_on_c, 4, 72, 0
6, 16080, Note_on_c, 4, 72, 53
6, 16202, Note_on_c, 4, 69, 53
6, 16220, Note_on_c, 4, 72, 0
6, 16300, Note_on_c, 4, 69, 0
6, 16440, Note_on_c, 4, 67, 53
6, 16562, Note_on_c, 4, 65, 54
6, 16576, Note_on_c, 4, 67, 0
6, 16646, Note_on_c, 4, 65, 0
6, 16682, Note_on_c, 4, 65, 52
6, 16766, Note_on_c, 4, 65, 0
6, 16802, Note_on_c, 4, 65, 50
6, 16922, Note_on_c, 4, 69, 53
6, 16932, Note_on_c, 4, 65, 0
6, 17042, Note_on_c, 4, 67, 54
6, 17056, Note_on_c, 4, 69, 0
6, 17162, Note_on_c, 4, 64, 53
6, 17178, Note_on_c, 4, 67, 0
6, 17272, Note_on_c, 4, 64, 0
6, 17400, Note_on_c, 4, 65, 55
6, 17520, Note_on_c, 4, 74, 56
6, 17538, Note_on_c, 4, 65, 0
6, 17602, Note_on_c, 4, 74, 0
6, 17640, Note_on_c, 4, 74, 58
6, 17716, Note_on_c, 4, 74, 0
6, 17760, Note_on_c, 4, 74, 56
6, 17846, Note_on_c, 4, 74, 0
6, 17880, Note_on_c, 4, 74, 55
6, 18000, Note_on_c, 4, 72, 52
6, 18014, Note_on_c, 4, 74, 0
6, 18120, Note_on_c, 4, 70, 53
6, 18132, Note_on_c, 4, 72, 0
6, 18239, Note_on_c, 4, 70, 0
6, 18240, Note_on_c, 4, 69, 47
6, 18366, Note_on_c, 4, 69, 0
6, 18482, Note_on_c, 4, 77, 47
6, 18608, Note_on_c, 4, 77, 0
6, 18722, Note_on_c, 4, 74, 47
6, 18846, Note_on_c, 4, 74, 0
6, 18962, Note_on_c, 4, 70, 44
6, 19084, Note_on_c, 4, 70, 0
6, 19320, Note_on_c, 4, 72, 46
6, 19400, Note_on_c, 4, 72, 0
6, 19440, Note_on_c, 4, 72, 46
6, 19560, Note_on_c, 4, 74, 46
6, 19578, Note_on_c, 4, 72, 0
6, 19664, Note_on_c, 4, 74, 0
6, 19680, Note_on_c, 4, 65, 46
6, 19762, Note_on_c, 4, 65, 0
6, 19800, Note_on_c, 4, 65, 46
6, 19884, Note_on_c, 4, 65, 0
6, 19922, Note_on_c, 4, 64, 46
6, 20006, Note_on_c, 4, 64, 0
6, 20040, Note_on_c, 4, 64, 46
6, 20120, Note_on_c, 4, 64, 0
6, 20160, Note_on_c, 4, 65, 46
6, 20280, Note_on_c, 4, 60, 51
6, 20282, Note_on_c, 4, 65, 0
6, 20394, Note_on_c, 4, 60, 0
6, 20402, Note_on_c, 4, 69, 59
6, 20520, Note_on_c, 4, 60, 63
6, 20540, Note_on_c, 4, 69, 0
6, 20596, Note_on_c, 4, 60, 0
6, 20642, Note_on_c, 4, 60, 63
6, 20760, Note_on_c, 4, 59, 57
6, 20778, Note_on_c, 4, 60, 0
6, 20854, Note_on_c, 4, 59, 0
6, 20880, Note_on_c, 4, 67, 64
6, 21000, Note_on_c, 4, 58, 67
6, 21012, Note_on_c, 4, 67, 0
6, 21090, Note_on_c, 4, 58, 0
6, 21122, Note_on_c, 4, 57, 49
6, 21242, Note_on_c, 4, 60, 51
6, 21250, Note_on_c, 4, 57, 0
6, 21360, Note_on_c, 4, 69, 52
6, 21376, Note_on_c, 4, 60, 0
6, 21454, Note_on_c, 4, 69, 0
6, 21482, Note_on_c, 4, 69, 52
6, 21558, Note_on_c, 4, 69, 0
6, 21602, Note_on_c, 4, 74, 54
6, 21678, Note_on_c, 4, 74, 0
6, 21720, Note_on_c, 4, 74, 54
6, 21794, Note_on_c, 4, 74, 0
6, 21842, Note_on_c, 4, 74, 54
6, 21922, Note_on_c, 4, 74, 0
6, 21960, Note_on_c, 4, 74, 52
6, 22042, Note_on_c, 4, 74, 0
6, 22200, Note_on_c, 4, 71, 50
6, 22276, Note_on_c, 4, 71, 0
6, 22322, Note_on_c, 4, 71, 48
6, 22394, Note_on_c, 4, 71, 0
6, 22440, Note_on_c, 4, 71, 48
6, 22516, Note_on_c, 4, 71, 0
6, 22562, Note_on_c, 4, 72, 49
6, 22638, Note_on_c, 4, 72, 0
6, 22682, Note_on_c, 4, 72, 52
6, 22760, Note_on_c, 4, 72, 0
6, 22802, Note_on_c, 4, 72, 52
6, 22882, Note_on_c, 4, 72, 0
6, 22922, Note_on_c, 4, 72, 51
6, 23000, Note_on_c, 4, 72, 0
6, 23160, Note_on_c, 4, 67, 45
6, 23280, Note_on_c, 4, 77, 45
6, 23292, Note_on_c, 4, 67, 0
6, 23365, Note_on_c, 4, 77, 0
6, 23402, Note_on_c, 4, 77, 46
6, 23474, Note_on_c, 4, 77, 0
6, 23522, Note_on_c, 4, 77, 47
6, 23608, Note_on_c, 4, 77, 0
6, 23642, Note_on_c, 4, 77, 47
6, 23734, Note_on_c, 4, 77, 0
6, 23760, Note_on_c, 4, 76, 45
6, 23846, Note_on_c, 4, 76, 0
6, 23882, Note_on_c, 4, 76, 45
6, 23966, Note_on_c, 4, 76, 0
6, 24002, Note_on_c, 4, 77, 56
6, 24022, Note_on_c, 4, 76, 56
6, 24034, Note_on_c, 4, 77, 0
6, 24044, Note_on_c, 4, 77, 56
6, 24052, Note_on_c, 4, 76, 0
6, 24062, Note_on_c, 4, 76, 56
6, 24078, Note_on_c, 4, 77, 0
6, 24082, Note_on_c, 4, 77, 56
6, 24096, Note_on_c, 4, 76, 0
6, 24100, Note_on_c, 4, 76, 56
6, 24118, Note_on_c, 4, 77, 0
6, 24122, Note_on_c, 4, 77, 55
6, 24136, Note_on_c, 4, 76, 0
6, 24140, Note_on_c, 4, 76, 54
6, 24158, Note_on_c, 4, 77, 0
6, 24162, Note_on_c, 4, 77, 54
6, 24170, Note_on_c, 4, 76, 0
6, 24180, Note_on_c, 4, 76, 54
6, 24200, Note_on_c, 4, 77, 0
6, 24202, Note_on_c, 4, 74, 54
6, 24210, Note_on_c, 4, 76, 0
6, 24222, Note_on_c, 4, 76, 53
6, 24236, Note_on_c, 4, 74, 0
6, 24242, Note_on_c, 4, 74, 53
6, 24254, Note_on_c, 4, 76, 0
6, 24456, Note_on_c, 4, 74, 0
6, 24962, Note_on_c, 4, 77, 52
6, 25022, Note_on_c, 4, 79, 55
6, 25040, Note_on_c, 4, 77, 0
6, 25080, Note_on_c, 4, 77, 55
6, 25098, Note_on_c, 4, 79, 0
6, 25142, Note_on_c, 4, 76, 55
6, 25150, Note_on_c, 4, 77, 0
6, 25202, Note_on_c, 4, 74, 55
6, 25210, Note_on_c, 4, 76, 0
6, 25272, Note_on_c, 4, 74, 0
6, 25320, Note_on_c, 4, 74, 53
6, 25396, Note_on_c, 4, 74, 0
6, 25440, Note_on_c, 4, 74, 53
6, 25512, Note_on_c, 4, 74, 0
6, 25562, Note_on_c, 4, 74, 53
6, 25680, Note_on_c, 4, 76, 53
6, 25700, Note_on_c, 4, 74, 0
6, 25802, Note_on_c, 4, 77, 53
6, 25818, Note_on_c, 4, 76, 0
6, 25920, Note_on_c, 4, 77, 0
6, 25922, Note_on_c, 4, 79, 56
6, 25980, Note_on_c, 4, 81, 56
6, 26000, Note_on_c, 4, 79, 0
6, 26040, Note_on_c, 4, 79, 56
6, 26058, Note_on_c, 4, 81, 0
6, 26100, Note_on_c, 4, 77, 56
6, 26118, Note_on_c, 4, 79, 0
6, 26162, Note_on_c, 4, 76, 56
6, 26174, Note_on_c, 4, 77, 0
6, 26234, Note_on_c, 4, 76, 0
6, 26282, Note_on_c, 4, 76, 56
6, 26346, Note_on_c, 4, 76, 0
6, 26402, Note_on_c, 4, 76, 56
6, 26466, Note_on_c, 4, 76, 0
6, 26520, Note_on_c, 4, 79, 56
6, 26640, Note_on_c, 4, 77, 56
6, 26660, Note_on_c, 4, 79, 0
6, 26762, Note_on_c, 4, 76, 55
6, 26780, Note_on_c, 4, 77, 0
6, 26874, Note_on_c, 4, 76, 0
6, 26880, Note_on_c, 4, 65, 53
6, 26942, Note_on_c, 4, 67, 52
6, 26950, Note_on_c, 4, 65, 0
6, 27000, Note_on_c, 4, 65, 52
6, 27016, Note_on_c, 4, 67, 0
6, 27062, Note_on_c, 4, 64, 52
6, 27074, Note_on_c, 4, 65, 0
6, 27120, Note_on_c, 4, 62, 49
6, 27128, Note_on_c, 4, 64, 0
6, 27188, Note_on_c, 4, 62, 0
6, 27240, Note_on_c, 4, 62, 49
6, 27306, Note_on_c, 4, 62, 0
6, 27362, Note_on_c, 4, 62, 49
6, 27436, Note_on_c, 4, 62, 0
6, 27482, Note_on_c, 4, 62, 52
6, 27600, Note_on_c, 4, 64, 52
6, 27620, Note_on_c, 4, 62, 0
6, 27722, Note_on_c, 4, 65, 53
6, 27741, Note_on_c, 4, 64, 0
6, 27831, Note_on_c, 4, 65, 0
6, 27842, Note_on_c, 4, 67, 56
6, 27900, Note_on_c, 4, 69, 56
6, 27920, Note_on_c, 4, 67, 0
6, 27960, Note_on_c, 4, 67, 56
6, 27974, Note_on_c, 4, 69, 0
6, 28022, Note_on_c, 4, 65, 56
6, 28034, Note_on_c, 4, 67, 0
6, 28075, Note_on_c, 4, 65, 0
6, 28082, Note_on_c, 4, 64, 56
6, 28126, Note_on_c, 4, 64, 0
6, 28200, Note_on_c, 4, 64, 54
6, 28252, Note_on_c, 4, 64, 0
6, 28322, Note_on_c, 4, 64, 54
6, 28398, Note_on_c, 4, 64, 0
6, 28440, Note_on_c, 4, 67, 54
6, 28562, Note_on_c, 4, 65, 54
6, 28581, Note_on_c, 4, 67, 0
6, 28682, Note_on_c, 4, 64, 53
6, 28705, Note_on_c, 4, 65, 0
6, 28792, Note_on_c, 4, 64, 0
6, 28920, Note_on_c, 4, 69, 53
6, 29040, Note_on_c, 4, 72, 53
6, 29058, Note_on_c, 4, 69, 0
6, 29120, Note_on_c, 4, 72, 0
6, 29162, Note_on_c, 4, 72, 53
6, 29240, Note_on_c, 4, 72, 0
6, 29280, Note_on_c, 4, 72, 53
6, 29400, Note_on_c, 4, 69, 53
6, 29410, Note_on_c, 4, 72, 0
6, 29494, Note_on_c, 4, 69, 0
6, 29520, Note_on_c, 4, 72, 53
6, 29640, Note_on_c, 4, 69, 53
6, 29652, Note_on_c, 4, 72, 0
6, 29742, Note_on_c, 4, 69, 0
6, 29880, Note_on_c, 4, 67, 52
6, 30000, Note_on_c, 4, 72, 56
6, 30022, Note_on_c, 4, 67, 0
6, 30074, Note_on_c, 4, 72, 0
6, 30122, Note_on_c, 4, 72, 56
6, 30192, Note_on_c, 4, 72, 0
6, 30242, Note_on_c, 4, 72, 57
6, 30360, Note_on_c, 4, 67, 57
6, 30376, Note_on_c, 4, 72, 0
6, 30462, Note_on_c, 4, 67, 0
6, 30480, Note_on_c, 4, 72, 57
6, 30600, Note_on_c, 4, 67, 55
6, 30616, Note_on_c, 4, 72, 0
6, 30690, Note_on_c, 4, 67, 0
6, 30842, Note_on_c, 4, 65, 54
6, 30962, Note_on_c, 4, 74, 54
6, 30982, Note_on_c, 4, 65, 0
6, 31044, Note_on_c, 4, 74, 0
6, 31080, Note_on_c, 4, 74, 55
6, 31152, Note_on_c, 4, 74, 0
6, 31202, Note_on_c, 4, 74, 55
6, 31322, Note_on_c, 4, 65, 54
6, 31336, Note_on_c, 4, 74, 0
6, 31428, Note_on_c, 4, 65, 0
6, 31442, Note_on_c, 4, 74, 53
6, 31560, Note_on_c, 4, 65, 51
6, 31572, Note_on_c, 4, 74, 0
6, 31664, Note_on_c, 4, 65, 0
6, 31680, Note_on_c, 4, 64, 49
6, 31928, Note_on_c, 4, 64, 0
6, 32162, Note_on_c, 4, 69, 52
6, 32402, Note_on_c, 4, 69, 0
6, 32640, Note_on_c, 4, 67, 53
6, 32886, Note_on_c, 4, 67, 0
6, 33120, Note_on_c, 4, 67, 46
6, 33364, Note_on_c, 4, 67, 0
6, 33722, Note_on_c, 4, 67, 46
6, 33840, Note_on_c, 4, 79, 51
6, 33858, Note_on_c, 4, 67, 0
6, 33918, Note_on_c, 4, 79, 0
6, 33962, Note_on_c, 4, 79, 52
6, 34026, Note_on_c, 4, 79, 0
6, 34080, Note_on_c, 4, 79, 52
6, 34202, Note_on_c, 4, 77, 52
6, 34210, Note_on_c, 4, 79, 0
6, 34322, Note_on_c, 4, 76, 52
6, 34338, Note_on_c, 4, 77, 0
6, 34440, Note_on_c, 4, 74, 52
6, 34452, Note_on_c, 4, 76, 0
6, 34544, Note_on_c, 4, 74, 0
6, 34560, Note_on_c, 4, 72, 52
6, 34620, Note_on_c, 4, 72, 0
6, 34680, Note_on_c, 4, 72, 52
6, 34738, Note_on_c, 4, 72, 0
6, 34802, Note_on_c, 4, 72, 52
6, 34860, Note_on_c, 4, 72, 0
6, 34922, Note_on_c, 4, 72, 52
6, 34980, Note_on_c, 4, 72, 0
6, 35040, Note_on_c, 4, 72, 52
6, 35160, Note_on_c, 4, 71, 52
6, 35172, Note_on_c, 4, 72, 0
6, 35282, Note_on_c, 4, 69, 52
6, 35298, Note_on_c, 4, 71, 0
6, 35400, Note_on_c, 4, 67, 50
6, 35416, Note_on_c, 4, 69, 0
6, 35510, Note_on_c, 4, 67, 0
6, 35522, Note_on_c, 4, 67, 49
6, 35642, Note_on_c, 4, 60, 49
6, 35656, Note_on_c, 4, 67, 0
6, 35738, Note_on_c, 4, 60, 0
6, 35762, Note_on_c, 4, 60, 49
6, 35830, Note_on_c, 4, 60, 0
6, 35880, Note_on_c, 4, 60, 49
6, 35942, Note_on_c, 4, 60, 0
6, 36000, Note_on_c, 4, 60, 48
6, 36074, Note_on_c, 4, 60, 0
6, 36122, Note_on_c, 4, 60, 49
6, 36200, Note_on_c, 4, 60, 0
6, 36240, Note_on_c, 4, 60, 51
6, 36322, Note_on_c, 4, 60, 0
6, 36360, Note_on_c, 4, 60, 56
6, 36438, Note_on_c, 4, 60, 0
6, 36480, Note_on_c, 4, 60, 56
6, 36562, Note_on_c, 4, 60, 0
6, 36602, Note_on_c, 4, 60, 57
6, 36684, Note_on_c, 4, 60, 0
6, 36720, Note_on_c, 4, 60, 57
6, 36800, Note_on_c, 4, 60, 0
6, 36840, Note_on_c, 4, 60, 57
6, 36916, Note_on_c, 4, 60, 0
6, 36962, Note_on_c, 4, 62, 57
6, 37036, Note_on_c, 4, 62, 0
6, 37082, Note_on_c, 4, 62, 57
6, 37162, Note_on_c, 4, 62, 0
6, 37200, Note_on_c, 4, 62, 58
6, 37278, Note_on_c, 4, 62, 0
6, 37320, Note_on_c, 4, 62, 58
6, 37398, Note_on_c, 4, 62, 0
6, 37442, Note_on_c, 4, 64, 58
6, 37522, Note_on_c, 4, 64, 0
6, 37562, Note_on_c, 4, 76, 55
6, 37644, Note_on_c, 4, 76, 0
6, 37680, Note_on_c, 4, 76, 60
6, 37754, Note_on_c, 4, 76, 0
6, 37800, Note_on_c, 4, 76, 59
6, 37874, Note_on_c, 4, 76, 0
6, 37920, Note_on_c, 4, 76, 58
6, 38002, Note_on_c, 4, 76, 0
6, 38042, Note_on_c, 4, 76, 54
6, 38116, Note_on_c, 4, 76, 0
6, 38162, Note_on_c, 4, 76, 54
6, 38236, Note_on_c, 4, 76, 0
6, 38282, Note_on_c, 4, 76, 54
6, 38356, Note_on_c, 4, 76, 0
6, 38400, Note_on_c, 4, 74, 50
6, 38474, Note_on_c, 4, 74, 0
6, 38520, Note_on_c, 4, 74, 50
6, 38600, Note_on_c, 4, 74, 0
6, 38640, Note_on_c, 4, 74, 49
6, 38722, Note_on_c, 4, 74, 0
6, 38760, Note_on_c, 4, 74, 46
6, 38840, Note_on_c, 4, 74, 0
6, 38880, Note_on_c, 4, 74, 46
6, 38954, Note_on_c, 4, 74, 0
6, 39000, Note_on_c, 4, 74, 44
6, 39080, Note_on_c, 4, 74, 0
6, 39120, Note_on_c, 4, 74, 41
6, 39196, Note_on_c, 4, 74, 0
6, 39240, Note_on_c, 4, 74, 41
6, 39318, Note_on_c, 4, 74, 0
6, 39362, Note_on_c, 4, 72, 44
6, 39596, Note_on_c, 4, 72, 0
6, 39600, Note_on_c, 4, 79, 81
6, 40082, Note_on_c, 4, 77, 80
6, 40106, Note_on_c, 4, 79, 0
6, 40318, Note_on_c, 4, 77, 0
6, 40322, Note_on_c, 4, 79, 64
6, 40357, Note_on_c, 4, 77, 84
6, 40376, Note_on_c, 4, 79, 0
6, 40562, Note_on_c, 4, 76, 80
6, 40588, Note_on_c, 4, 77, 0
6, 40796, Note_on_c, 4, 76, 0
6, 41040, Note_on_c, 4, 74, 76
6, 41278, Note_on_c, 4, 74, 0
6, 41282, Note_on_c, 4, 76, 67
6, 41316, Note_on_c, 4, 74, 78
6, 41342, Note_on_c, 4, 76, 0
6, 41520, Note_on_c, 4, 72, 75
6, 41545, Note_on_c, 4, 74, 0
6, 42002, Note_on_c, 4, 71, 74
6, 42027, Note_on_c, 4, 72, 0
6, 42236, Note_on_c, 4, 71, 0
6, 42240, Note_on_c, 4, 72, 74
6, 42672, Note_on_c, 4, 72, 0
6, 42720, Note_on_c, 4, 68, 46
6, 43200, Note_on_c, 4, 69, 51
6, 43228, Note_on_c, 4, 68, 0
6, 43682, Note_on_c, 4, 70, 48
6, 43706, Note_on_c, 4, 69, 0
6, 44119, Note_on_c, 4, 70, 0
6, 44160, Note_on_c, 4, 71, 49
6, 44280, Note_on_c, 4, 72, 58
6, 44303, Note_on_c, 4, 71, 0
6, 44348, Note_on_c, 4, 72, 0
6, 44400, Note_on_c, 4, 72, 58
6, 44472, Note_on_c, 4, 72, 0
6, 44522, Note_on_c, 4, 72, 58
6, 44596, Note_on_c, 4, 72, 0
6, 44642, Note_on_c, 4, 72, 58
6, 44722, Note_on_c, 4, 72, 0
6, 44760, Note_on_c, 4, 72, 57
6, 44838, Note_on_c, 4, 72, 0
6, 44880, Note_on_c, 4, 72, 57
6, 44960, Note_on_c, 4, 72, 0
6, 45002, Note_on_c, 4, 72, 55
6, 45078, Note_on_c, 4, 72, 0
6, 45242, Note_on_c, 4, 72, 55
6, 45322, Note_on_c, 4, 72, 0
6, 45360, Note_on_c, 4, 72, 55
6, 45438, Note_on_c, 4, 72, 0
6, 45480, Note_on_c, 4, 72, 55
6, 45556, Note_on_c, 4, 72, 0
6, 45602, Note_on_c, 4, 72, 56
6, 45676, Note_on_c, 4, 72, 0
6, 45720, Note_on_c, 4, 72, 62
6, 45798, Note_on_c, 4, 72, 0
6, 45842, Note_on_c, 4, 72, 62
6, 45922, Note_on_c, 4, 72, 0
6, 45960, Note_on_c, 4, 72, 62
6, 46038, Note_on_c, 4, 72, 0
6, 46202, Note_on_c, 4, 72, 66
6, 46282, Note_on_c, 4, 72, 0
6, 46320, Note_on_c, 4, 72, 64
6, 46400, Note_on_c, 4, 72, 0
6, 46440, Note_on_c, 4, 72, 62
6, 46518, Note_on_c, 4, 72, 0
6, 46562, Note_on_c, 4, 72, 59
6, 46638, Note_on_c, 4, 72, 0
6, 46682, Note_on_c, 4, 72, 53
6, 46760, Note_on_c, 4, 72, 0
6, 46800, Note_on_c, 4, 72, 53
6, 46878, Note_on_c, 4, 72, 0
6, 46920, Note_on_c, 4, 72, 51
6, 46996, Note_on_c, 4, 72, 0
6, 47160, Note_on_c, 4, 71, 51
6, 47240, Note_on_c, 4, 71, 0
6, 47282, Note_on_c, 4, 71, 50
6, 47364, Note_on_c, 4, 71, 0
6, 47400, Note_on_c, 4, 71, 53
6, 47482, Note_on_c, 4, 71, 0
6, 47520, Note_on_c, 4, 71, 53
6, 47596, Note_on_c, 4, 71, 0
6, 47642, Note_on_c, 4, 71, 53
6, 47716, Note_on_c, 4, 71, 0
6, 47762, Note_on_c, 4, 70, 53
6, 47836, Note_on_c, 4, 70, 0
6, 47880, Note_on_c, 4, 70, 53
6, 47962, Note_on_c, 4, 70, 0
6, 48122, Note_on_c, 4, 70, 51
6, 48196, Note_on_c, 4, 70, 0
6, 48242, Note_on_c, 4, 70, 51
6, 48320, Note_on_c, 4, 70, 0
6, 48360, Note_on_c, 4, 70, 51
6, 48440, Note_on_c, 4, 70, 0
6, 48480, Note_on_c, 4, 70, 52
6, 48556, Note_on_c, 4, 70, 0
6, 48600, Note_on_c, 4, 70, 56
6, 48674, Note_on_c, 4, 70, 0
6, 48720, Note_on_c, 4, 70, 56
6, 48796, Note_on_c, 4, 70, 0
6, 48842, Note_on_c, 4, 70, 57
6, 48924, Note_on_c, 4, 70, 0
6, 49080, Note_on_c, 4, 70, 60
6, 49160, Note_on_c, 4, 70, 0
6, 49202, Note_on_c, 4, 70, 61
6, 49284, Note_on_c, 4, 70, 0
6, 49322, Note_on_c, 4, 70, 61
6, 49402, Note_on_c, 4, 70, 0
6, 49442, Note_on_c, 4, 69, 62
6, 49518, Note_on_c, 4, 69, 0
6, 49560, Note_on_c, 4, 69, 62
6, 49640, Note_on_c, 4, 69, 0
6, 49682, Note_on_c, 4, 69, 62
6, 49758, Note_on_c, 4, 69, 0
6, 49800, Note_on_c, 4, 69, 62
6, 49876, Note_on_c, 4, 69, 0
6, 50042, Note_on_c, 4, 69, 59
6, 50116, Note_on_c, 4, 69, 0
6, 50162, Note_on_c, 4, 69, 59
6, 50242, Note_on_c, 4, 69, 0
6, 50282, Note_on_c, 4, 69, 59
6, 50364, Note_on_c, 4, 69, 0
6, 50400, Note_on_c, 4, 67, 58
6, 50482, Note_on_c, 4, 67, 0
6, 50522, Note_on_c, 4, 67, 57
6, 50600, Note_on_c, 4, 67, 0
6, 50640, Note_on_c, 4, 67, 57
6, 50760, Note_on_c, 4, 72, 57
6, 50774, Note_on_c, 4, 67, 0
6, 50842, Note_on_c, 4, 72, 0
6, 50882, Note_on_c, 4, 72, 58
6, 51120, Note_on_c, 4, 73, 59
6, 51148, Note_on_c, 4, 72, 0
6, 51360, Note_on_c, 4, 74, 60
6, 51384, Note_on_c, 4, 73, 0
6, 51602, Note_on_c, 4, 64, 63
6, 51618, Note_on_c, 4, 74, 0
6, 51772, Note_on_c, 4, 64, 0
6, 51802, Note_on_c, 4, 65, 52
6, 51858, Note_on_c, 4, 72, 68
6, 51870, Note_on_c, 4, 65, 0
6, 52562, Note_on_c, 4, 77, 68
6, 52603, Note_on_c, 4, 72, 0
6, 52798, Note_on_c, 4, 77, 0
6, 52800, Note_on_c, 4, 79, 57
6, 52838, Note_on_c, 4, 77, 71
6, 52862, Note_on_c, 4, 79, 0
6, 53040, Note_on_c, 4, 76, 69
6, 53083, Note_on_c, 4, 77, 0
6, 53248, Note_on_c, 4, 76, 0
6, 53522, Note_on_c, 4, 70, 66
6, 53757, Note_on_c, 4, 70, 0
6, 53760, Note_on_c, 4, 70, 54
6, 54002, Note_on_c, 4, 69, 52
6, 54026, Note_on_c, 4, 70, 0
6, 54221, Note_on_c, 4, 69, 0
6, 54242, Note_on_c, 4, 72, 48
6, 54314, Note_on_c, 4, 72, 0
6, 54360, Note_on_c, 4, 72, 49
6, 54438, Note_on_c, 4, 72, 0
6, 54482, Note_on_c, 4, 72, 50
6, 54562, Note_on_c, 4, 72, 0
6, 54600, Note_on_c, 4, 72, 52
6, 54680, Note_on_c, 4, 72, 0
6, 54840, Note_on_c, 4, 70, 50
6, 54914, Note_on_c, 4, 70, 0
6, 54962, Note_on_c, 4, 70, 49
6, 55038, Note_on_c, 4, 70, 0
6, 55082, Note_on_c, 4, 70, 51
6, 55160, Note_on_c, 4, 70, 0
6, 55202, Note_on_c, 4, 67, 52
6, 55274, Note_on_c, 4, 67, 0
6, 55320, Note_on_c, 4, 67, 53
6, 55392, Note_on_c, 4, 67, 0
6, 55442, Note_on_c, 4, 67, 53
6, 55518, Note_on_c, 4, 67, 0
6, 55560, Note_on_c, 4, 67, 50
6, 55636, Note_on_c, 4, 67, 0
6, 55800, Note_on_c, 4, 67, 52
6, 55922, Note_on_c, 4, 69, 52
6, 55936, Note_on_c, 4, 67, 0
6, 55996, Note_on_c, 4, 69, 0
6, 56042, Note_on_c, 4, 69, 55
6, 56114, Note_on_c, 4, 69, 0
6, 56162, Note_on_c, 4, 72, 55
6, 56238, Note_on_c, 4, 72, 0
6, 56280, Note_on_c, 4, 72, 55
6, 56352, Note_on_c, 4, 72, 0
6, 56402, Note_on_c, 4, 72, 54
6, 56520, Note_on_c, 4, 69, 49
6, 56534, Note_on_c, 4, 72, 0
6, 56596, Note_on_c, 4, 69, 0
6, 56760, Note_on_c, 4, 67, 52
6, 56880, Note_on_c, 4, 65, 52
6, 56894, Note_on_c, 4, 67, 0
6, 56952, Note_on_c, 4, 65, 0
6, 57000, Note_on_c, 4, 65, 52
6, 57072, Note_on_c, 4, 65, 0
6, 57122, Note_on_c, 4, 65, 55
6, 57240, Note_on_c, 4, 69, 58
6, 57262, Note_on_c, 4, 65, 0
6, 57362, Note_on_c, 4, 67, 58
6, 57382, Note_on_c, 4, 69, 0
6, 57482, Note_on_c, 4, 64, 57
6, 57505, Note_on_c, 4, 67, 0
6, 57600, Note_on_c, 4, 64, 0
6, 57602, Note_on_c, 4, 65, 53
6, 58090, Note_on_c, 4, 65, 0
6, 58562, Note_on_c, 4, 74, 54
6, 58638, Note_on_c, 4, 70, 54
6, 58662, Note_on_c, 4, 74, 0
6, 58718, Note_on_c, 4, 77, 57
6, 58736, Note_on_c, 4, 70, 0
6, 58794, Note_on_c, 4, 77, 0
6, 58802, Note_on_c, 4, 77, 57
6, 59280, Note_on_c, 4, 76, 57
6, 59305, Note_on_c, 4, 77, 0
6, 59400, Note_on_c, 4, 74, 54
6, 59419, Note_on_c, 4, 76, 0
6, 59521, Note_on_c, 4, 74, 0
6, 59522, Note_on_c, 4, 71, 52
6, 59762, Note_on_c, 4, 72, 52
6, 59785, Note_on_c, 4, 71, 0
6, 59952, Note_on_c, 4, 72, 0
6, 60242, Note_on_c, 4, 77, 56
6, 60360, Note_on_c, 4, 72, 52
6, 60380, Note_on_c, 4, 77, 0
6, 60472, Note_on_c, 4, 72, 0
6, 60482, Note_on_c, 4, 72, 52
6, 60600, Note_on_c, 4, 70, 52
6, 60624, Note_on_c, 4, 72, 0
6, 60678, Note_on_c, 4, 70, 0
6, 60722, Note_on_c, 4, 70, 49
6, 60796, Note_on_c, 4, 70, 0
6, 60840, Note_on_c, 4, 70, 51
6, 60916, Note_on_c, 4, 70, 0
6, 60962, Note_on_c, 4, 70, 51
6, 61042, Note_on_c, 4, 70, 0
6, 61082, Note_on_c, 4, 70, 51
6, 61158, Note_on_c, 4, 70, 0
6, 61202, Note_on_c, 4, 69, 51
6, 61320, Note_on_c, 4, 67, 51
6, 61334, Note_on_c, 4, 69, 0
6, 61432, Note_on_c, 4, 67, 0
6, 61560, Note_on_c, 4, 65, 55
6, 61682, Note_on_c, 4, 74, 56
6, 61692, Note_on_c, 4, 65, 0
6, 61759, Note_on_c, 4, 74, 0
6, 61802, Note_on_c, 4, 74, 56
6, 61874, Note_on_c, 4, 74, 0
6, 61922, Note_on_c, 4, 74, 56
6, 62004, Note_on_c, 4, 74, 0
6, 62040, Note_on_c, 4, 74, 57
6, 62160, Note_on_c, 4, 72, 57
6, 62179, Note_on_c, 4, 74, 0
6, 62282, Note_on_c, 4, 70, 54
6, 62301, Note_on_c, 4, 72, 0
6, 62391, Note_on_c, 4, 70, 0
6, 62400, Note_on_c, 4, 69, 51
6, 62530, Note_on_c, 4, 69, 0
6, 62642, Note_on_c, 4, 77, 45
6, 62764, Note_on_c, 4, 77, 0
6, 62880, Note_on_c, 4, 74, 43
6, 63008, Note_on_c, 4, 74, 0
6, 63120, Note_on_c, 4, 70, 43
6, 63244, Note_on_c, 4, 70, 0
6, 63480, Note_on_c, 4, 72, 47
6, 63550, Note_on_c, 4, 72, 0
6, 63602, Note_on_c, 4, 72, 49
6, 63722, Note_on_c, 4, 74, 48
6, 63743, Note_on_c, 4, 72, 0
6, 63842, Note_on_c, 4, 65, 47
6, 63846, Note_on_c, 4, 74, 0
6, 63922, Note_on_c, 4, 65, 0
6, 63962, Note_on_c, 4, 65, 52
6, 64034, Note_on_c, 4, 65, 0
6, 64080, Note_on_c, 4, 64, 52
6, 64152, Note_on_c, 4, 64, 0
6, 64200, Note_on_c, 4, 64, 55
6, 64276, Note_on_c, 4, 64, 0
6, 64320, Note_on_c, 4, 65, 58
6, 64405, Note_on_c, 4, 65, 0
6, 64442, Note_on_c, 4, 60, 66
6, 64535, Note_on_c, 4, 60, 0
6, 64560, Note_on_c, 4, 69, 69
6, 64682, Note_on_c, 4, 60, 70
6, 64698, Note_on_c, 4, 69, 0
6, 64764, Note_on_c, 4, 60, 0
6, 64800, Note_on_c, 4, 60, 70
6, 64920, Note_on_c, 4, 59, 71
6, 64942, Note_on_c, 4, 60, 0
6, 65042, Note_on_c, 4, 59, 0
6, 65042, Note_on_c, 4, 67, 73
6, 65160, Note_on_c, 4, 58, 68
6, 65176, Note_on_c, 4, 67, 0
6, 65254, Note_on_c, 4, 58, 0
6, 65282, Note_on_c, 4, 57, 54
6, 65366, Note_on_c, 4, 57, 0
6, 65400, Note_on_c, 4, 60, 47
6, 65522, Note_on_c, 4, 69, 50
6, 65536, Note_on_c, 4, 60, 0
6, 65594, Note_on_c, 4, 69, 0
6, 65640, Note_on_c, 4, 69, 51
6, 65710, Note_on_c, 4, 69, 0
6, 65760, Note_on_c, 4, 74, 51
6, 65836, Note_on_c, 4, 74, 0
6, 65880, Note_on_c, 4, 74, 51
6, 65962, Note_on_c, 4, 74, 0
6, 66002, Note_on_c, 4, 74, 51
6, 66078, Note_on_c, 4, 74, 0
6, 66120, Note_on_c, 4, 74, 51
6, 66194, Note_on_c, 4, 74, 0
6, 66362, Note_on_c, 4, 71, 50
6, 66438, Note_on_c, 4, 71, 0
6, 66482, Note_on_c, 4, 71, 51
6, 66558, Note_on_c, 4, 71, 0
6, 66600, Note_on_c, 4, 71, 55
6, 66676, Note_on_c, 4, 71, 0
6, 66720, Note_on_c, 4, 72, 58
6, 66800, Note_on_c, 4, 72, 0
6, 66842, Note_on_c, 4, 72, 66
6, 66960, Note_on_c, 4, 73, 69
6, 66982, Note_on_c, 4, 72, 0
6, 67040, Note_on_c, 4, 73, 0
6, 67080, Note_on_c, 4, 73, 73
6, 67162, Note_on_c, 4, 73, 0
6, 67202, Note_on_c, 4, 74, 75
6, 67320, Note_on_c, 4, 65, 75
6, 67338, Note_on_c, 4, 74, 0
6, 67394, Note_on_c, 4, 65, 0
6, 67440, Note_on_c, 4, 65, 54
6, 67518, Note_on_c, 4, 65, 0
6, 67562, Note_on_c, 4, 65, 54
6, 67634, Note_on_c, 4, 65, 0
6, 67682, Note_on_c, 4, 70, 53
6, 67764, Note_on_c, 4, 70, 0
6, 67802, Note_on_c, 4, 70, 52
6, 67880, Note_on_c, 4, 70, 0
6, 67922, Note_on_c, 4, 70, 52
6, 67996, Note_on_c, 4, 70, 0
6, 68042, Note_on_c, 4, 70, 55
6, 68124, Note_on_c, 4, 70, 0
6, 68280, Note_on_c, 4, 68, 55
6, 68356, Note_on_c, 4, 68, 0
6, 68400, Note_on_c, 4, 68, 55
6, 68474, Note_on_c, 4, 68, 0
6, 68522, Note_on_c, 4, 68, 55
6, 68596, Note_on_c, 4, 68, 0
6, 68642, Note_on_c, 4, 69, 58
6, 68714, Note_on_c, 4, 69, 0
6, 68760, Note_on_c, 4, 69, 63
6, 68834, Note_on_c, 4, 69, 0
6, 68882, Note_on_c, 4, 69, 72
6, 68958, Note_on_c, 4, 69, 0
6, 69000, Note_on_c, 4, 69, 78
6, 69072, Note_on_c, 4, 69, 0
6, 69120, Note_on_c, 4, 70, 81
6, 69240, Note_on_c, 4, 62, 74
6, 69252, Note_on_c, 4, 70, 0
6, 69316, Note_on_c, 4, 62, 0
6, 69362, Note_on_c, 4, 62, 48
6, 69440, Note_on_c, 4, 62, 0
6, 69480, Note_on_c, 4, 62, 48
6, 69554, Note_on_c, 4, 62, 0
6, 69602, Note_on_c, 4, 67, 51
6, 69680, Note_on_c, 4, 67, 0
6, 69720, Note_on_c, 4, 67, 51
6, 69794, Note_on_c, 4, 67, 0
6, 69840, Note_on_c, 4, 67, 52
6, 69912, Note_on_c, 4, 67, 0
6, 69962, Note_on_c, 4, 67, 54
6, 70040, Note_on_c, 4, 67, 0
6, 70200, Note_on_c, 4, 64, 54
6, 70278, Note_on_c, 4, 64, 0
6, 70320, Note_on_c, 4, 64, 54
6, 70400, Note_on_c, 4, 64, 0
6, 70442, Note_on_c, 4, 64, 54
6, 70522, Note_on_c, 4, 64, 0
6, 70562, Note_on_c, 4, 65, 54
6, 70638, Note_on_c, 4, 65, 0
6, 70682, Note_on_c, 4, 65, 54
6, 70758, Note_on_c, 4, 65, 0
6, 70802, Note_on_c, 4, 65, 54
6, 70876, Note_on_c, 4, 65, 0
6, 70922, Note_on_c, 4, 65, 53
6, 70994, Note_on_c, 4, 65, 0
6, 71162, Note_on_c, 4, 60, 53
6, 71280, Note_on_c, 4, 70, 56
6, 71304, Note_on_c, 4, 60, 0
6, 71360, Note_on_c, 4, 70, 0
6, 71400, Note_on_c, 4, 70, 58
6, 71466, Note_on_c, 4, 70, 0
6, 71520, Note_on_c, 4, 70, 60
6, 71594, Note_on_c, 4, 70, 0
6, 71640, Note_on_c, 4, 70, 56
6, 71722, Note_on_c, 4, 70, 0
6, 71760, Note_on_c, 4, 69, 55
6, 71842, Note_on_c, 4, 69, 0
6, 71882, Note_on_c, 4, 69, 56
6, 71960, Note_on_c, 4, 69, 0
6, 72002, Note_on_c, 4, 70, 61
6, 72022, Note_on_c, 4, 69, 56
6, 72032, Note_on_c, 4, 70, 0
6, 72042, Note_on_c, 4, 70, 57
6, 72054, Note_on_c, 4, 69, 0
6, 72060, Note_on_c, 4, 69, 60
6, 72078, Note_on_c, 4, 70, 0
6, 72080, Note_on_c, 4, 70, 61
6, 72092, Note_on_c, 4, 69, 0
6, 72100, Note_on_c, 4, 69, 61
6, 72118, Note_on_c, 4, 70, 0
6, 72122, Note_on_c, 4, 70, 61
6, 72134, Note_on_c, 4, 69, 0
6, 72142, Note_on_c, 4, 69, 61
6, 72154, Note_on_c, 4, 70, 0
6, 72162, Note_on_c, 4, 70, 60
6, 72176, Note_on_c, 4, 69, 0
6, 72180, Note_on_c, 4, 69, 57
6, 72198, Note_on_c, 4, 70, 0
6, 72202, Note_on_c, 4, 67, 56
6, 72212, Note_on_c, 4, 69, 0
6, 72220, Note_on_c, 4, 69, 54
6, 72234, Note_on_c, 4, 67, 0
6, 72240, Note_on_c, 4, 67, 54
6, 72258, Note_on_c, 4, 69, 0
6, 72452, Note_on_c, 4, 67, 0
6, 72962, Note_on_c, 4, 70, 56
6, 73020, Note_on_c, 4, 72, 59
6, 73042, Note_on_c, 4, 70, 0
6, 73082, Note_on_c, 4, 70, 59
6, 73099, Note_on_c, 4, 72, 0
6, 73140, Note_on_c, 4, 69, 59
6, 73160, Note_on_c, 4, 70, 0
6, 73200, Note_on_c, 4, 67, 59
6, 73216, Note_on_c, 4, 69, 0
6, 73266, Note_on_c, 4, 67, 0
6, 73322, Note_on_c, 4, 67, 55
6, 73392, Note_on_c, 4, 67, 0
6, 73442, Note_on_c, 4, 67, 55
6, 73514, Note_on_c, 4, 67, 0
6, 73562, Note_on_c, 4, 67, 54
6, 73682, Note_on_c, 4, 69, 54
6, 73707, Note_on_c, 4, 67, 0
6, 73802, Note_on_c, 4, 70, 54
6, 73824, Note_on_c, 4, 69, 0
6, 73921, Note_on_c, 4, 70, 0
6, 73922, Note_on_c, 4, 72, 56
6, 73982, Note_on_c, 4, 74, 59
6, 74005, Note_on_c, 4, 72, 0
6, 74042, Note_on_c, 4, 72, 59
6, 74058, Note_on_c, 4, 74, 0
6, 74102, Note_on_c, 4, 70, 59
6, 74125, Note_on_c, 4, 72, 0
6, 74162, Note_on_c, 4, 69, 59
6, 74168, Note_on_c, 4, 70, 0
6, 74228, Note_on_c, 4, 69, 0
6, 74280, Note_on_c, 4, 69, 59
6, 74352, Note_on_c, 4, 69, 0
6, 74400, Note_on_c, 4, 69, 58
6, 74466, Note_on_c, 4, 69, 0
6, 74522, Note_on_c, 4, 72, 58
6, 74640, Note_on_c, 4, 70, 58
6, 74667, Note_on_c, 4, 72, 0
6, 74762, Note_on_c, 4, 69, 58
6, 74787, Note_on_c, 4, 70, 0
6, 74866, Note_on_c, 4, 69, 0
6, 74882, Note_on_c, 4, 70, 64
6, 74942, Note_on_c, 4, 72, 58
6, 74966, Note_on_c, 4, 70, 0
6, 75002, Note_on_c, 4, 70, 58
6, 75024, Note_on_c, 4, 72, 0
6, 75060, Note_on_c, 4, 69, 58
6, 75080, Note_on_c, 4, 70, 0
6, 75120, Note_on_c, 4, 67, 58
6, 75132, Note_on_c, 4, 69, 0
6, 75184, Note_on_c, 4, 67, 0
6, 75240, Note_on_c, 4, 67, 59
6, 75310, Note_on_c, 4, 67, 0
6, 75362, Note_on_c, 4, 67, 61
6, 75430, Note_on_c, 4, 67, 0
6, 75482, Note_on_c, 4, 67, 61
6, 75600, Note_on_c, 4, 69, 59
6, 75625, Note_on_c, 4, 67, 0
6, 75722, Note_on_c, 4, 70, 55
6, 75746, Note_on_c, 4, 69, 0
6, 75840, Note_on_c, 4, 70, 0
6, 75840, Note_on_c, 4, 72, 54
6, 75902, Note_on_c, 4, 74, 54
6, 75920, Note_on_c, 4, 72, 0
6, 75962, Note_on_c, 4, 72, 54
6, 75981, Note_on_c, 4, 74, 0
6, 76022, Note_on_c, 4, 70, 54
6, 76045, Note_on_c, 4, 72, 0
6, 76080, Note_on_c, 4, 69, 54
6, 76084, Note_on_c, 4, 70, 0
6, 76150, Note_on_c, 4, 69, 0
6, 76200, Note_on_c, 4, 69, 55
6, 76272, Note_on_c, 4, 69, 0
6, 76322, Note_on_c, 4, 69, 59
6, 76396, Note_on_c, 4, 69, 0
6, 76442, Note_on_c, 4, 72, 59
6, 76560, Note_on_c, 4, 70, 59
6, 76588, Note_on_c, 4, 72, 0
6, 76682, Note_on_c, 4, 69, 59
6, 76704, Note_on_c, 4, 70, 0
6, 76804, Note_on_c, 4, 69, 0
6, 76922, Note_on_c, 4, 74, 55
6, 77042, Note_on_c, 4, 77, 55
6, 77056, Note_on_c, 4, 74, 0
6, 77113, Note_on_c, 4, 77, 0
6, 77162, Note_on_c, 4, 77, 55
6, 77234, Note_on_c, 4, 77, 0
6, 77282, Note_on_c, 4, 77, 55
6, 77400, Note_on_c, 4, 74, 57
6, 77418, Note_on_c, 4, 77, 0
6, 77514, Note_on_c, 4, 74, 0
6, 77522, Note_on_c, 4, 77, 57
6, 77640, Note_on_c, 4, 74, 57
6, 77662, Note_on_c, 4, 77, 0
6, 77754, Note_on_c, 4, 74, 0
6, 77882, Note_on_c, 4, 72, 49
6, 78000, Note_on_c, 4, 77, 51
6, 78030, Note_on_c, 4, 72, 0
6, 78074, Note_on_c, 4, 77, 0
6, 78122, Note_on_c, 4, 77, 53
6, 78189, Note_on_c, 4, 77, 0
6, 78242, Note_on_c, 4, 77, 53
6, 78362, Note_on_c, 4, 72, 52
6, 78376, Note_on_c, 4, 77, 0
6, 78476, Note_on_c, 4, 72, 0
6, 78482, Note_on_c, 4, 77, 54
6, 78600, Note_on_c, 4, 72, 52
6, 78616, Note_on_c, 4, 77, 0
6, 78712, Note_on_c, 4, 72, 0
6, 78842, Note_on_c, 4, 70, 56
6, 78960, Note_on_c, 4, 79, 58
6, 78978, Note_on_c, 4, 70, 0
6, 79028, Note_on_c, 4, 79, 0
6, 79080, Note_on_c, 4, 79, 58
6, 79154, Note_on_c, 4, 79, 0
6, 79200, Note_on_c, 4, 79, 58
6, 79320, Note_on_c, 4, 70, 62
6, 79340, Note_on_c, 4, 79, 0
6, 79434, Note_on_c, 4, 70, 0
6, 79442, Note_on_c, 4, 79, 63
6, 79562, Note_on_c, 4, 70, 66
6, 79578, Note_on_c, 4, 79, 0
6, 79654, Note_on_c, 4, 70, 0
6, 79680, Note_on_c, 4, 69, 66
6, 79896, Note_on_c, 4, 69, 0
6, 80162, Note_on_c, 4, 60, 49
6, 80376, Note_on_c, 4, 60, 0
6, 80762, Note_on_c, 4, 70, 54
6, 80880, Note_on_c, 4, 79, 56
6, 80902, Note_on_c, 4, 70, 0
6, 80964, Note_on_c, 4, 79, 0
6, 81000, Note_on_c, 4, 79, 55
6, 81074, Note_on_c, 4, 79, 0
6, 81120, Note_on_c, 4, 79, 53
6, 81240, Note_on_c, 4, 70, 51
6, 81258, Note_on_c, 4, 79, 0
6, 81358, Note_on_c, 4, 70, 0
6, 81360, Note_on_c, 4, 79, 56
6, 81480, Note_on_c, 4, 70, 55
6, 81508, Note_on_c, 4, 79, 0
6, 81588, Note_on_c, 4, 70, 0
6, 81600, Note_on_c, 4, 69, 54
6, 81756, Note_on_c, 4, 69, 0
6, 82080, Note_on_c, 4, 67, 42
6, 82237, Note_on_c, 4, 67, 0
6, 82560, Note_on_c, 4, 65, 43
6, 82725, Note_on_c, 4, 65, 0
6, 83040, Note_on_c, 4, 64, 43
6, 83199, Note_on_c, 4, 64, 0
6, 83640, Note_on_c, 4, 72, 46
6, 83760, Note_on_c, 4, 84, 44
6, 83778, Note_on_c, 4, 72, 0
6, 83836, Note_on_c, 4, 84, 0
6, 83882, Note_on_c, 4, 84, 45
6, 83948, Note_on_c, 4, 84, 0
6, 84002, Note_on_c, 4, 84, 48
6, 84122, Note_on_c, 4, 82, 48
6, 84142, Note_on_c, 4, 84, 0
6, 84242, Note_on_c, 4, 81, 48
6, 84256, Note_on_c, 4, 82, 0
6, 84362, Note_on_c, 4, 79, 48
6, 84382, Note_on_c, 4, 81, 0
6, 84466, Note_on_c, 4, 79, 0
6, 84480, Note_on_c, 4, 77, 51
6, 84554, Note_on_c, 4, 77, 0
6, 84600, Note_on_c, 4, 77, 51
6, 84674, Note_on_c, 4, 77, 0
6, 84722, Note_on_c, 4, 77, 51
6, 84788, Note_on_c, 4, 77, 0
6, 84842, Note_on_c, 4, 77, 51
6, 84916, Note_on_c, 4, 77, 0
6, 84960, Note_on_c, 4, 77, 51
6, 85082, Note_on_c, 4, 76, 51
6, 85102, Note_on_c, 4, 77, 0
6, 85200, Note_on_c, 4, 74, 51
6, 85222, Note_on_c, 4, 76, 0
6, 85322, Note_on_c, 4, 72, 51
6, 85342, Note_on_c, 4, 74, 0
6, 85424, Note_on_c, 4, 72, 0
6, 85440, Note_on_c, 4, 72, 50
6, 85518, Note_on_c, 4, 72, 0
6, 85560, Note_on_c, 4, 65, 50
6, 85632, Note_on_c, 4, 65, 0
6, 85682, Note_on_c, 4, 65, 50
6, 85754, Note_on_c, 4, 65, 0
6, 85802, Note_on_c, 4, 65, 50
6, 85880, Note_on_c, 4, 65, 0
6, 85920, Note_on_c, 4, 65, 50
6, 85996, Note_on_c, 4, 65, 0
6, 86042, Note_on_c, 4, 65, 53
6, 86122, Note_on_c, 4, 65, 0
6, 86160, Note_on_c, 4, 65, 55
6, 86238, Note_on_c, 4, 65, 0
6, 86282, Note_on_c, 4, 65, 55
6, 86362, Note_on_c, 4, 65, 0
6, 86400, Note_on_c, 4, 65, 59
6, 86478, Note_on_c, 4, 65, 0
6, 86522, Note_on_c, 4, 65, 59
6, 86602, Note_on_c, 4, 65, 0
6, 86642, Note_on_c, 4, 65, 59
6, 86720, Note_on_c, 4, 65, 0
6, 86760, Note_on_c, 4, 65, 59
6, 86838, Note_on_c, 4, 65, 0
6, 86882, Note_on_c, 4, 67, 63
6, 86960, Note_on_c, 4, 67, 0
6, 87002, Note_on_c, 4, 67, 64
6, 87082, Note_on_c, 4, 67, 0
6, 87120, Note_on_c, 4, 67, 61
6, 87200, Note_on_c, 4, 67, 0
6, 87242, Note_on_c, 4, 67, 62
6, 87322, Note_on_c, 4, 67, 0
6, 87480, Note_on_c, 4, 69, 62
6, 87556, Note_on_c, 4, 69, 0
6, 87600, Note_on_c, 4, 69, 62
6, 87676, Note_on_c, 4, 69, 0
6, 87722, Note_on_c, 4, 69, 62
6, 87804, Note_on_c, 4, 69, 0
6, 87842, Note_on_c, 4, 67, 65
6, 87920, Note_on_c, 4, 67, 0
6, 87960, Note_on_c, 4, 67, 67
6, 88036, Note_on_c, 4, 67, 0
6, 88082, Note_on_c, 4, 67, 68
6, 88164, Note_on_c, 4, 67, 0
6, 88202, Note_on_c, 4, 67, 67
6, 88282, Note_on_c, 4, 67, 0
6, 88442, Note_on_c, 4, 65, 65
6, 88524, Note_on_c, 4, 65, 0
6, 88562, Note_on_c, 4, 72, 62
6, 88644, Note_on_c, 4, 72, 0
6, 88682, Note_on_c, 4, 72, 62
6, 88764, Note_on_c, 4, 72, 0
6, 88802, Note_on_c, 4, 72, 62
6, 88884, Note_on_c, 4, 72, 0
6, 88922, Note_on_c, 4, 72, 62
6, 88996, Note_on_c, 4, 72, 0
6, 89042, Note_on_c, 4, 73, 62
6, 89124, Note_on_c, 4, 73, 0
6, 89160, Note_on_c, 4, 73, 62
6, 89238, Note_on_c, 4, 73, 0
6, 89280, Note_on_c, 4, 74, 63
6, 89410, Note_on_c, 4, 74, 0
6, 89522, Note_on_c, 4, 74, 48
6, 89762, Note_on_c, 4, 76, 49
6, 89780, Note_on_c, 4, 74, 0
6, 90000, Note_on_c, 4, 77, 45
6, 90016, Note_on_c, 4, 76, 0
6, 90248, Note_on_c, 4, 77, 0
6, 90360, Note_on_c, 4, 69, 47
6, 90440, Note_on_c, 4, 69, 0
6, 90482, Note_on_c, 4, 69, 48
6, 90558, Note_on_c, 4, 69, 0
6, 90602, Note_on_c, 4, 69, 48
6, 90680, Note_on_c, 4, 69, 0
6, 90722, Note_on_c, 4, 69, 50
6, 90796, Note_on_c, 4, 69, 0
6, 90840, Note_on_c, 4, 69, 55
6, 90920, Note_on_c, 4, 69, 0
6, 90962, Note_on_c, 4, 69, 57
6, 91044, Note_on_c, 4, 69, 0
6, 91082, Note_on_c, 4, 69, 61
6, 91164, Note_on_c, 4, 69, 0
6, 91200, Note_on_c, 4, 67, 65
6, 91280, Note_on_c, 4, 67, 0
6, 91320, Note_on_c, 4, 67, 69
6, 91396, Note_on_c, 4, 67, 0
6, 91442, Note_on_c, 4, 67, 74
6, 91518, Note_on_c, 4, 67, 0
6, 91562, Note_on_c, 4, 67, 79
6, 91642, Note_on_c, 4, 67, 0
6, 91682, Note_on_c, 4, 67, 84
6, 91758, Note_on_c, 4, 67, 0
6, 91800, Note_on_c, 4, 67, 88
6, 91880, Note_on_c, 4, 67, 0
6, 91922, Note_on_c, 4, 67, 90
6, 91998, Note_on_c, 4, 67, 0
6, 92040, Note_on_c, 4, 67, 93
6, 92114, Note_on_c, 4, 67, 0
6, 92162, Note_on_c, 4, 65, 93
6, 92282, Note_on_c, 4, 77, 95
6, 92300, Note_on_c, 4, 65, 0
6, 92350, Note_on_c, 4, 77, 0
6, 92400, Note_on_c, 4, 77, 92
6, 92478, Note_on_c, 4, 77, 0
6, 92520, Note_on_c, 4, 77, 93
6, 92598, Note_on_c, 4, 77, 0
6, 92640, Note_on_c, 4, 77, 94
6, 92760, Note_on_c, 4, 74, 94
6, 92780, Note_on_c, 4, 77, 0
6, 92836, Note_on_c, 4, 74, 0
6, 92882, Note_on_c, 4, 74, 92
6, 92954, Note_on_c, 4, 74, 0
6, 93002, Note_on_c, 4, 74, 91
6, 93062, Note_on_c, 4, 74, 0
6, 93122, Note_on_c, 4, 74, 90
6, 93240, Note_on_c, 4, 72, 90
6, 93256, Note_on_c, 4, 74, 0
6, 93344, Note_on_c, 4, 72, 0
6, 93360, Note_on_c, 4, 72, 89
6, 93428, Note_on_c, 4, 72, 0
6, 93482, Note_on_c, 4, 72, 88
6, 93554, Note_on_c, 4, 72, 0
6, 93600, Note_on_c, 4, 72, 86
6, 93722, Note_on_c, 4, 70, 86
6, 93734, Note_on_c, 4, 72, 0
6, 93818, Note_on_c, 4, 70, 0
6, 93840, Note_on_c, 4, 70, 85
6, 93908, Note_on_c, 4, 70, 0
6, 93962, Note_on_c, 4, 70, 85
6, 94030, Note_on_c, 4, 70, 0
6, 94082, Note_on_c, 4, 69, 85
6, 94564, Note_on_c, 4, 69, 0
6, 96120, Note_on_c, 4, 81, 89
6, 96242, Note_on_c, 4, 72, 87
6, 96258, Note_on_c, 4, 81, 0
6, 96312, Note_on_c, 4, 72, 0
6, 96360, Note_on_c, 4, 72, 85
6, 96436, Note_on_c, 4, 72, 0
6, 96480, Note_on_c, 4, 72, 85
6, 96550, Note_on_c, 4, 72, 0
6, 96602, Note_on_c, 4, 72, 85
6, 96680, Note_on_c, 4, 72, 0
6, 96720, Note_on_c, 4, 70, 85
6, 96798, Note_on_c, 4, 70, 0
6, 96842, Note_on_c, 4, 70, 85
6, 96918, Note_on_c, 4, 70, 0
6, 97082, Note_on_c, 4, 77, 92
6, 97202, Note_on_c, 4, 69, 89
6, 97220, Note_on_c, 4, 77, 0
6, 97280, Note_on_c, 4, 69, 0
6, 97320, Note_on_c, 4, 69, 86
6, 97388, Note_on_c, 4, 69, 0
6, 97440, Note_on_c, 4, 69, 85
6, 97514, Note_on_c, 4, 69, 0
6, 97562, Note_on_c, 4, 69, 81
6, 97640, Note_on_c, 4, 69, 0
6, 97682, Note_on_c, 4, 67, 79
6, 97762, Note_on_c, 4, 67, 0
6, 97800, Note_on_c, 4, 67, 78
6, 97880, Note_on_c, 4, 67, 0
6, 97920, Note_on_c, 4, 65, 78
6, 98388, Note_on_c, 4, 65, 0
6, 98400, Note_on_c, 4, 73, 50
6, 98882, Note_on_c, 4, 74, 54
6, 98898, Note_on_c, 4, 73, 0
6, 99360, Note_on_c, 4, 64, 48
6, 99380, Note_on_c, 4, 74, 0
6, 99840, Note_on_c, 4, 64, 0
6, 99842, Note_on_c, 4, 65, 48
6, 100082, Note_on_c, 4, 65, 0
6, 100320, Note_on_c, 4, 65, 47
6, 100564, Note_on_c, 4, 65, 0
6, 100800, Note_on_c, 4, 65, 46
6, 101050, Note_on_c, 4, 65, 0
6, 101050, End_track
7, 0, Start_track
7, 0, Title_t, "Violin II"
7, 0, Control_c, 5, 0, 0
7, 0, Control_c, 5, 7, 110
7, 0, Control_c, 5, 10, 100
7, 0, Control_c, 5, 91, 79
7, 0, Control_c, 5, 93, 82
7, 1, Control_c, 5, 32, 1
7, 2, Program_c, 5, 48
7, 2044, Note_on_c, 5, 69, 51
7, 2142, Note_on_c, 5, 69, 0
7, 2162, Note_on_c, 5, 69, 51
7, 2264, Note_on_c, 5, 69, 0
7, 2282, Note_on_c, 5, 69, 51
7, 2384, Note_on_c, 5, 69, 0
7, 2404, Note_on_c, 5, 69, 49
7, 2498, Note_on_c, 5, 69, 0
7, 2524, Note_on_c, 5, 69, 49
7, 2620, Note_on_c, 5, 69, 0
7, 2642, Note_on_c, 5, 69, 49
7, 2738, Note_on_c, 5, 69, 0
7, 2764, Note_on_c, 5, 69, 49
7, 2858, Note_on_c, 5, 69, 0
7, 3002, Note_on_c, 5, 70, 51
7, 3102, Note_on_c, 5, 70, 0
7, 3124, Note_on_c, 5, 70, 51
7, 3220, Note_on_c, 5, 70, 0
7, 3242, Note_on_c, 5, 70, 51
7, 3336, Note_on_c, 5, 70, 0
7, 3364, Note_on_c, 5, 64, 48
7, 3462, Note_on_c, 5, 64, 0
7, 3482, Note_on_c, 5, 64, 48
7, 3574, Note_on_c, 5, 64, 0
7, 3602, Note_on_c, 5, 67, 48
7, 3702, Note_on_c, 5, 67, 0
7, 3722, Note_on_c, 5, 67, 50
7, 3818, Note_on_c, 5, 67, 0
7, 3964, Note_on_c, 5, 67, 50
7, 4084, Note_on_c, 5, 65, 49
7, 4098, Note_on_c, 5, 67, 0
7, 4170, Note_on_c, 5, 65, 0
7, 4202, Note_on_c, 5, 65, 51
7, 4272, Note_on_c, 5, 65, 0
7, 4322, Note_on_c, 5, 65, 51
7, 4396, Note_on_c, 5, 65, 0
7, 4442, Note_on_c, 5, 65, 51
7, 4516, Note_on_c, 5, 65, 0
7, 4562, Note_on_c, 5, 65, 51
7, 4640, Note_on_c, 5, 65, 0
7, 4682, Note_on_c, 5, 65, 51
7, 4754, Note_on_c, 5, 65, 0
7, 4924, Note_on_c, 5, 62, 52
7, 5002, Note_on_c, 5, 62, 0
7, 5042, Note_on_c, 5, 62, 52
7, 5122, Note_on_c, 5, 62, 0
7, 5162, Note_on_c, 5, 62, 52
7, 5238, Note_on_c, 5, 62, 0
7, 5284, Note_on_c, 5, 60, 49
7, 5358, Note_on_c, 5, 60, 0
7, 5402, Note_on_c, 5, 60, 49
7, 5474, Note_on_c, 5, 60, 0
7, 5522, Note_on_c, 5, 58, 49
7, 5602, Note_on_c, 5, 58, 0
7, 5642, Note_on_c, 5, 58, 49
7, 5720, Note_on_c, 5, 58, 0
7, 5762, Note_on_c, 5, 57, 51
7, 5884, Note_on_c, 5, 58, 53
7, 5898, Note_on_c, 5, 57, 0
7, 6004, Note_on_c, 5, 60, 55
7, 6016, Note_on_c, 5, 58, 0
7, 6122, Note_on_c, 5, 62, 55
7, 6138, Note_on_c, 5, 60, 0
7, 6244, Note_on_c, 5, 63, 57
7, 6258, Note_on_c, 5, 62, 0
7, 6362, Note_on_c, 5, 62, 59
7, 6380, Note_on_c, 5, 63, 0
7, 6484, Note_on_c, 5, 63, 59
7, 6500, Note_on_c, 5, 62, 0
7, 6602, Note_on_c, 5, 60, 59
7, 6622, Note_on_c, 5, 63, 0
7, 6722, Note_on_c, 5, 60, 0
7, 6842, Note_on_c, 5, 62, 55
7, 6914, Note_on_c, 5, 62, 0
7, 6964, Note_on_c, 5, 62, 54
7, 7038, Note_on_c, 5, 62, 0
7, 7084, Note_on_c, 5, 62, 54
7, 7160, Note_on_c, 5, 62, 0
7, 7204, Note_on_c, 5, 62, 54
7, 7284, Note_on_c, 5, 62, 0
7, 7324, Note_on_c, 5, 62, 55
7, 7398, Note_on_c, 5, 62, 0
7, 7444, Note_on_c, 5, 62, 55
7, 7522, Note_on_c, 5, 62, 0
7, 7564, Note_on_c, 5, 62, 55
7, 7638, Note_on_c, 5, 62, 0
7, 7802, Note_on_c, 5, 59, 55
7, 7924, Note_on_c, 5, 60, 55
7, 7944, Note_on_c, 5, 59, 0
7, 8004, Note_on_c, 5, 60, 0
7, 8042, Note_on_c, 5, 60, 55
7, 8114, Note_on_c, 5, 60, 0
7, 8162, Note_on_c, 5, 60, 55
7, 8240, Note_on_c, 5, 60, 0
7, 8282, Note_on_c, 5, 60, 53
7, 8358, Note_on_c, 5, 60, 0
7, 8404, Note_on_c, 5, 60, 50
7, 8486, Note_on_c, 5, 60, 0
7, 8522, Note_on_c, 5, 60, 52
7, 8598, Note_on_c, 5, 60, 0
7, 8764, Note_on_c, 5, 65, 55
7, 8842, Note_on_c, 5, 65, 0
7, 8882, Note_on_c, 5, 65, 55
7, 8962, Note_on_c, 5, 65, 0
7, 9002, Note_on_c, 5, 65, 55
7, 9076, Note_on_c, 5, 65, 0
7, 9122, Note_on_c, 5, 65, 55
7, 9198, Note_on_c, 5, 65, 0
7, 9244, Note_on_c, 5, 65, 55
7, 9318, Note_on_c, 5, 65, 0
7, 9362, Note_on_c, 5, 65, 56
7, 9440, Note_on_c, 5, 65, 0
7, 9482, Note_on_c, 5, 65, 51
7, 9558, Note_on_c, 5, 65, 0
7, 9724, Note_on_c, 5, 65, 51
7, 9844, Note_on_c, 5, 64, 50
7, 9866, Note_on_c, 5, 65, 0
7, 9916, Note_on_c, 5, 64, 0
7, 9962, Note_on_c, 5, 64, 49
7, 10034, Note_on_c, 5, 64, 0
7, 10084, Note_on_c, 5, 64, 52
7, 10202, Note_on_c, 5, 67, 54
7, 10218, Note_on_c, 5, 64, 0
7, 10270, Note_on_c, 5, 67, 0
7, 10324, Note_on_c, 5, 67, 55
7, 10398, Note_on_c, 5, 67, 0
7, 10442, Note_on_c, 5, 67, 55
7, 10516, Note_on_c, 5, 67, 0
7, 10564, Note_on_c, 5, 65, 55
7, 10682, Note_on_c, 5, 69, 55
7, 10700, Note_on_c, 5, 65, 0
7, 10750, Note_on_c, 5, 69, 0
7, 10802, Note_on_c, 5, 69, 59
7, 10872, Note_on_c, 5, 69, 0
7, 10922, Note_on_c, 5, 69, 59
7, 10990, Note_on_c, 5, 69, 0
7, 11044, Note_on_c, 5, 69, 58
7, 11164, Note_on_c, 5, 65, 57
7, 11180, Note_on_c, 5, 69, 0
7, 11238, Note_on_c, 5, 65, 0
7, 11282, Note_on_c, 5, 65, 54
7, 11356, Note_on_c, 5, 65, 0
7, 11404, Note_on_c, 5, 65, 53
7, 11470, Note_on_c, 5, 65, 0
7, 13442, Note_on_c, 5, 65, 50
7, 13564, Note_on_c, 5, 60, 50
7, 13584, Note_on_c, 5, 65, 0
7, 13660, Note_on_c, 5, 60, 0
7, 13684, Note_on_c, 5, 60, 50
7, 13730, Note_on_c, 5, 60, 0
7, 13802, Note_on_c, 5, 60, 50
7, 13846, Note_on_c, 5, 60, 0
7, 13922, Note_on_c, 5, 60, 49
7, 13996, Note_on_c, 5, 60, 0
7, 14042, Note_on_c, 5, 60, 49
7, 14116, Note_on_c, 5, 60, 0
7, 14164, Note_on_c, 5, 60, 49
7, 14238, Note_on_c, 5, 60, 0
7, 14284, Note_on_c, 5, 60, 49
7, 14358, Note_on_c, 5, 60, 0
7, 14524, Note_on_c, 5, 60, 49
7, 14600, Note_on_c, 5, 60, 0
7, 14642, Note_on_c, 5, 60, 49
7, 14722, Note_on_c, 5, 60, 0
7, 14762, Note_on_c, 5, 60, 49
7, 14840, Note_on_c, 5, 60, 0
7, 14882, Note_on_c, 5, 64, 49
7, 14958, Note_on_c, 5, 64, 0
7, 15004, Note_on_c, 5, 64, 49
7, 15086, Note_on_c, 5, 64, 0
7, 15122, Note_on_c, 5, 64, 49
7, 15198, Note_on_c, 5, 64, 0
7, 15244, Note_on_c, 5, 64, 50
7, 15320, Note_on_c, 5, 64, 0
7, 15484, Note_on_c, 5, 64, 52
7, 15604, Note_on_c, 5, 65, 53
7, 15626, Note_on_c, 5, 64, 0
7, 15694, Note_on_c, 5, 65, 0
7, 15722, Note_on_c, 5, 65, 53
7, 15792, Note_on_c, 5, 65, 0
7, 15844, Note_on_c, 5, 65, 53
7, 15924, Note_on_c, 5, 65, 0
7, 15962, Note_on_c, 5, 65, 53
7, 16034, Note_on_c, 5, 65, 0
7, 16082, Note_on_c, 5, 65, 53
7, 16160, Note_on_c, 5, 65, 0
7, 16202, Note_on_c, 5, 65, 53
7, 16278, Note_on_c, 5, 65, 0
7, 16442, Note_on_c, 5, 62, 51
7, 16516, Note_on_c, 5, 62, 0
7, 16564, Note_on_c, 5, 62, 51
7, 16646, Note_on_c, 5, 62, 0
7, 16682, Note_on_c, 5, 62, 51
7, 16762, Note_on_c, 5, 62, 0
7, 16802, Note_on_c, 5, 60, 53
7, 16922, Note_on_c, 5, 65, 54
7, 16936, Note_on_c, 5, 60, 0
7, 17042, Note_on_c, 5, 64, 54
7, 17060, Note_on_c, 5, 65, 0
7, 17164, Note_on_c, 5, 58, 54
7, 17186, Note_on_c, 5, 64, 0
7, 17282, Note_on_c, 5, 58, 0
7, 17402, Note_on_c, 5, 57, 54
7, 17524, Note_on_c, 5, 65, 54
7, 17546, Note_on_c, 5, 57, 0
7, 17620, Note_on_c, 5, 65, 0
7, 17642, Note_on_c, 5, 65, 56
7, 17726, Note_on_c, 5, 65, 0
7, 17762, Note_on_c, 5, 67, 57
7, 17846, Note_on_c, 5, 67, 0
7, 17882, Note_on_c, 5, 70, 57
7, 18004, Note_on_c, 5, 69, 57
7, 18020, Note_on_c, 5, 70, 0
7, 18124, Note_on_c, 5, 67, 57
7, 18136, Note_on_c, 5, 69, 0
7, 18224, Note_on_c, 5, 67, 0
7, 18244, Note_on_c, 5, 65, 52
7, 18372, Note_on_c, 5, 65, 0
7, 18482, Note_on_c, 5, 62, 49
7, 18604, Note_on_c, 5, 62, 0
7, 18724, Note_on_c, 5, 58, 47
7, 18846, Note_on_c, 5, 58, 0
7, 18964, Note_on_c, 5, 55, 47
7, 19094, Note_on_c, 5, 55, 0
7, 19322, Note_on_c, 5, 65, 57
7, 19406, Note_on_c, 5, 65, 0
7, 19442, Note_on_c, 5, 65, 57
7, 19518, Note_on_c, 5, 65, 0
7, 19562, Note_on_c, 5, 65, 57
7, 19638, Note_on_c, 5, 65, 0
7, 19682, Note_on_c, 5, 57, 55
7, 19766, Note_on_c, 5, 57, 0
7, 19802, Note_on_c, 5, 57, 54
7, 19880, Note_on_c, 5, 57, 0
7, 19922, Note_on_c, 5, 55, 54
7, 20000, Note_on_c, 5, 55, 0
7, 20042, Note_on_c, 5, 55, 54
7, 20128, Note_on_c, 5, 55, 0
7, 21244, Note_on_c, 5, 57, 50
7, 21362, Note_on_c, 5, 65, 51
7, 21384, Note_on_c, 5, 57, 0
7, 21460, Note_on_c, 5, 65, 0
7, 21482, Note_on_c, 5, 65, 51
7, 21560, Note_on_c, 5, 65, 0
7, 21602, Note_on_c, 5, 69, 51
7, 21690, Note_on_c, 5, 69, 0
7, 21722, Note_on_c, 5, 69, 53
7, 21802, Note_on_c, 5, 69, 0
7, 21844, Note_on_c, 5, 69, 53
7, 21926, Note_on_c, 5, 69, 0
7, 21962, Note_on_c, 5, 69, 53
7, 22044, Note_on_c, 5, 69, 0
7, 22204, Note_on_c, 5, 67, 52
7, 22284, Note_on_c, 5, 67, 0
7, 22324, Note_on_c, 5, 67, 51
7, 22410, Note_on_c, 5, 67, 0
7, 22444, Note_on_c, 5, 67, 51
7, 22526, Note_on_c, 5, 67, 0
7, 22564, Note_on_c, 5, 67, 51
7, 22648, Note_on_c, 5, 67, 0
7, 22682, Note_on_c, 5, 67, 51
7, 22762, Note_on_c, 5, 67, 0
7, 22804, Note_on_c, 5, 67, 51
7, 22884, Note_on_c, 5, 67, 0
7, 22922, Note_on_c, 5, 67, 51
7, 23002, Note_on_c, 5, 67, 0
7, 23164, Note_on_c, 5, 67, 48
7, 23282, Note_on_c, 5, 74, 48
7, 23302, Note_on_c, 5, 67, 0
7, 23370, Note_on_c, 5, 74, 0
7, 23402, Note_on_c, 5, 74, 50
7, 23478, Note_on_c, 5, 74, 0
7, 23524, Note_on_c, 5, 74, 50
7, 23600, Note_on_c, 5, 74, 0
7, 23644, Note_on_c, 5, 74, 49
7, 23724, Note_on_c, 5, 74, 0
7, 23764, Note_on_c, 5, 72, 47
7, 23850, Note_on_c, 5, 72, 0
7, 23884, Note_on_c, 5, 72, 49
7, 23962, Note_on_c, 5, 72, 0
7, 24002, Note_on_c, 5, 74, 54
7, 24024, Note_on_c, 5, 72, 55
7, 24032, Note_on_c, 5, 74, 0
7, 24044, Note_on_c, 5, 74, 56
7, 24054, Note_on_c, 5, 72, 0
7, 24064, Note_on_c, 5, 72, 56
7, 24078, Note_on_c, 5, 74, 0
7, 24084, Note_on_c, 5, 74, 56
7, 24102, Note_on_c, 5, 72, 0
7, 24102, Note_on_c, 5, 72, 56
7, 24103, Note_on_c, 5, 72, 0
7, 24116, Note_on_c, 5, 74, 0
7, 24122, Note_on_c, 5, 74, 56
7, 24142, Note_on_c, 5, 72, 56
7, 24158, Note_on_c, 5, 74, 0
7, 24162, Note_on_c, 5, 74, 55
7, 24176, Note_on_c, 5, 72, 0
7, 24182, Note_on_c, 5, 72, 55
7, 24192, Note_on_c, 5, 74, 0
7, 24202, Note_on_c, 5, 71, 53
7, 24218, Note_on_c, 5, 72, 0
7, 24222, Note_on_c, 5, 72, 51
7, 24236, Note_on_c, 5, 71, 0
7, 24242, Note_on_c, 5, 71, 51
7, 24258, Note_on_c, 5, 72, 0
7, 24456, Note_on_c, 5, 71, 0
7, 26884, Note_on_c, 5, 62, 49
7, 26942, Note_on_c, 5, 64, 53
7, 26954, Note_on_c, 5, 62, 0
7, 27004, Note_on_c, 5, 62, 54
7, 27020, Note_on_c, 5, 64, 0
7, 27062, Note_on_c, 5, 60, 54
7, 27076, Note_on_c, 5, 62, 0
7, 27122, Note_on_c, 5, 59, 54
7, 27128, Note_on_c, 5, 60, 0
7, 27196, Note_on_c, 5, 59, 0
7, 27244, Note_on_c, 5, 59, 50
7, 27318, Note_on_c, 5, 59, 0
7, 27364, Note_on_c, 5, 59, 48
7, 27436, Note_on_c, 5, 59, 0
7, 27482, Note_on_c, 5, 59, 51
7, 27604, Note_on_c, 5, 60, 51
7, 27626, Note_on_c, 5, 59, 0
7, 27722, Note_on_c, 5, 62, 54
7, 27742, Note_on_c, 5, 60, 0
7, 27820, Note_on_c, 5, 62, 0
7, 27842, Note_on_c, 5, 64, 58
7, 27904, Note_on_c, 5, 65, 58
7, 27918, Note_on_c, 5, 64, 0
7, 27962, Note_on_c, 5, 64, 58
7, 27982, Note_on_c, 5, 65, 0
7, 28024, Note_on_c, 5, 62, 58
7, 28040, Note_on_c, 5, 64, 0
7, 28080, Note_on_c, 5, 62, 0
7, 28084, Note_on_c, 5, 60, 57
7, 28154, Note_on_c, 5, 60, 0
7, 28202, Note_on_c, 5, 60, 52
7, 28272, Note_on_c, 5, 60, 0
7, 28322, Note_on_c, 5, 60, 52
7, 28396, Note_on_c, 5, 60, 0
7, 28444, Note_on_c, 5, 64, 55
7, 28564, Note_on_c, 5, 62, 56
7, 28580, Note_on_c, 5, 64, 0
7, 28684, Note_on_c, 5, 60, 56
7, 28700, Note_on_c, 5, 62, 0
7, 28784, Note_on_c, 5, 60, 0
7, 28924, Note_on_c, 5, 60, 53
7, 29042, Note_on_c, 5, 69, 55
7, 29064, Note_on_c, 5, 60, 0
7, 29122, Note_on_c, 5, 69, 0
7, 29164, Note_on_c, 5, 69, 57
7, 29216, Note_on_c, 5, 69, 0
7, 29284, Note_on_c, 5, 69, 57
7, 29402, Note_on_c, 5, 60, 49
7, 29422, Note_on_c, 5, 69, 0
7, 29504, Note_on_c, 5, 60, 0
7, 29522, Note_on_c, 5, 69, 55
7, 29644, Note_on_c, 5, 60, 51
7, 29658, Note_on_c, 5, 69, 0
7, 29744, Note_on_c, 5, 60, 0
7, 29882, Note_on_c, 5, 64, 51
7, 30004, Note_on_c, 5, 67, 55
7, 30018, Note_on_c, 5, 64, 0
7, 30104, Note_on_c, 5, 67, 0
7, 30124, Note_on_c, 5, 67, 56
7, 30174, Note_on_c, 5, 67, 0
7, 30244, Note_on_c, 5, 67, 56
7, 30364, Note_on_c, 5, 64, 47
7, 30382, Note_on_c, 5, 67, 0
7, 30450, Note_on_c, 5, 64, 0
7, 30484, Note_on_c, 5, 67, 52
7, 30604, Note_on_c, 5, 64, 49
7, 30620, Note_on_c, 5, 67, 0
7, 30690, Note_on_c, 5, 64, 0
7, 30842, Note_on_c, 5, 62, 46
7, 30962, Note_on_c, 5, 71, 48
7, 30978, Note_on_c, 5, 62, 0
7, 31054, Note_on_c, 5, 71, 0
7, 31082, Note_on_c, 5, 71, 52
7, 31148, Note_on_c, 5, 71, 0
7, 31204, Note_on_c, 5, 71, 53
7, 31324, Note_on_c, 5, 62, 53
7, 31340, Note_on_c, 5, 71, 0
7, 31418, Note_on_c, 5, 62, 0
7, 31442, Note_on_c, 5, 71, 52
7, 31564, Note_on_c, 5, 62, 55
7, 31582, Note_on_c, 5, 71, 0
7, 31648, Note_on_c, 5, 62, 0
7, 31684, Note_on_c, 5, 60, 54
7, 31896, Note_on_c, 5, 60, 0
7, 32164, Note_on_c, 5, 60, 51
7, 32376, Note_on_c, 5, 60, 0
7, 32642, Note_on_c, 5, 64, 54
7, 32858, Note_on_c, 5, 64, 0
7, 33124, Note_on_c, 5, 62, 45
7, 33336, Note_on_c, 5, 62, 0
7, 33722, Note_on_c, 5, 55, 51
7, 33844, Note_on_c, 5, 67, 55
7, 33864, Note_on_c, 5, 55, 0
7, 33926, Note_on_c, 5, 67, 0
7, 33964, Note_on_c, 5, 67, 62
7, 34030, Note_on_c, 5, 67, 0
7, 34084, Note_on_c, 5, 67, 62
7, 34204, Note_on_c, 5, 65, 62
7, 34222, Note_on_c, 5, 67, 0
7, 34322, Note_on_c, 5, 64, 60
7, 34340, Note_on_c, 5, 65, 0
7, 34444, Note_on_c, 5, 65, 55
7, 34466, Note_on_c, 5, 64, 0
7, 34528, Note_on_c, 5, 65, 0
7, 34562, Note_on_c, 5, 64, 53
7, 34624, Note_on_c, 5, 64, 0
7, 34682, Note_on_c, 5, 64, 53
7, 34740, Note_on_c, 5, 64, 0
7, 34804, Note_on_c, 5, 64, 53
7, 34866, Note_on_c, 5, 64, 0
7, 34922, Note_on_c, 5, 64, 53
7, 34978, Note_on_c, 5, 64, 0
7, 35042, Note_on_c, 5, 64, 53
7, 35162, Note_on_c, 5, 62, 54
7, 35184, Note_on_c, 5, 64, 0
7, 35284, Note_on_c, 5, 60, 54
7, 35306, Note_on_c, 5, 62, 0
7, 35404, Note_on_c, 5, 59, 54
7, 35420, Note_on_c, 5, 60, 0
7, 35488, Note_on_c, 5, 59, 0
7, 35522, Note_on_c, 5, 60, 53
7, 35642, Note_on_c, 5, 55, 51
7, 35660, Note_on_c, 5, 60, 0
7, 35734, Note_on_c, 5, 55, 0
7, 35764, Note_on_c, 5, 55, 49
7, 35832, Note_on_c, 5, 55, 0
7, 35884, Note_on_c, 5, 55, 49
7, 35952, Note_on_c, 5, 55, 0
7, 36002, Note_on_c, 5, 58, 49
7, 36076, Note_on_c, 5, 58, 0
7, 36124, Note_on_c, 5, 58, 49
7, 36206, Note_on_c, 5, 58, 0
7, 36244, Note_on_c, 5, 58, 49
7, 36324, Note_on_c, 5, 58, 0
7, 36362, Note_on_c, 5, 58, 54
7, 36444, Note_on_c, 5, 58, 0
7, 36482, Note_on_c, 5, 57, 54
7, 36564, Note_on_c, 5, 57, 0
7, 36604, Note_on_c, 5, 57, 54
7, 36684, Note_on_c, 5, 57, 0
7, 36724, Note_on_c, 5, 57, 57
7, 36804, Note_on_c, 5, 57, 0
7, 36842, Note_on_c, 5, 57, 58
7, 36916, Note_on_c, 5, 57, 0
7, 36962, Note_on_c, 5, 60, 57
7, 37040, Note_on_c, 5, 60, 0
7, 37082, Note_on_c, 5, 60, 56
7, 37156, Note_on_c, 5, 60, 0
7, 37202, Note_on_c, 5, 60, 56
7, 37280, Note_on_c, 5, 60, 0
7, 37324, Note_on_c, 5, 60, 56
7, 37398, Note_on_c, 5, 60, 0
7, 37444, Note_on_c, 5, 60, 56
7, 37518, Note_on_c, 5, 60, 0
7, 37564, Note_on_c, 5, 72, 56
7, 37642, Note_on_c, 5, 72, 0
7, 37684, Note_on_c, 5, 72, 57
7, 37766, Note_on_c, 5, 72, 0
7, 37802, Note_on_c, 5, 72, 57
7, 37878, Note_on_c, 5, 72, 0
7, 37922, Note_on_c, 5, 72, 57
7, 38002, Note_on_c, 5, 72, 0
7, 38044, Note_on_c, 5, 72, 59
7, 38120, Note_on_c, 5, 72, 0
7, 38164, Note_on_c, 5, 72, 61
7, 38240, Note_on_c, 5, 72, 0
7, 38282, Note_on_c, 5, 72, 61
7, 38364, Note_on_c, 5, 72, 0
7, 38402, Note_on_c, 5, 72, 56
7, 38482, Note_on_c, 5, 72, 0
7, 38524, Note_on_c, 5, 72, 54
7, 38598, Note_on_c, 5, 72, 0
7, 38644, Note_on_c, 5, 72, 53
7, 38720, Note_on_c, 5, 72, 0
7, 38762, Note_on_c, 5, 72, 49
7, 38840, Note_on_c, 5, 72, 0
7, 38884, Note_on_c, 5, 71, 46
7, 38960, Note_on_c, 5, 71, 0
7, 39004, Note_on_c, 5, 71, 47
7, 39078, Note_on_c, 5, 71, 0
7, 39122, Note_on_c, 5, 71, 47
7, 39200, Note_on_c, 5, 71, 0
7, 39244, Note_on_c, 5, 71, 42
7, 39320, Note_on_c, 5, 71, 0
7, 39362, Note_on_c, 5, 72, 42
7, 39472, Note_on_c, 5, 72, 0
7, 39484, Note_on_c, 5, 67, 81
7, 39602, Note_on_c, 5, 64, 81
7, 39628, Note_on_c, 5, 67, 0
7, 39694, Note_on_c, 5, 64, 0
7, 39722, Note_on_c, 5, 64, 77
7, 39800, Note_on_c, 5, 64, 0
7, 39844, Note_on_c, 5, 64, 77
7, 39928, Note_on_c, 5, 64, 0
7, 39962, Note_on_c, 5, 64, 77
7, 40040, Note_on_c, 5, 64, 0
7, 40082, Note_on_c, 5, 62, 77
7, 40164, Note_on_c, 5, 62, 0
7, 40204, Note_on_c, 5, 62, 77
7, 40280, Note_on_c, 5, 62, 0
7, 40442, Note_on_c, 5, 62, 76
7, 40564, Note_on_c, 5, 60, 75
7, 40580, Note_on_c, 5, 62, 0
7, 40648, Note_on_c, 5, 60, 0
7, 40682, Note_on_c, 5, 60, 75
7, 40760, Note_on_c, 5, 60, 0
7, 40804, Note_on_c, 5, 69, 75
7, 40878, Note_on_c, 5, 69, 0
7, 40924, Note_on_c, 5, 69, 74
7, 40998, Note_on_c, 5, 69, 0
7, 41044, Note_on_c, 5, 69, 73
7, 41116, Note_on_c, 5, 69, 0
7, 41164, Note_on_c, 5, 69, 73
7, 41240, Note_on_c, 5, 69, 0
7, 41402, Note_on_c, 5, 65, 73
7, 41524, Note_on_c, 5, 64, 74
7, 41544, Note_on_c, 5, 65, 0
7, 41618, Note_on_c, 5, 64, 0
7, 41642, Note_on_c, 5, 64, 74
7, 41712, Note_on_c, 5, 64, 0
7, 41762, Note_on_c, 5, 64, 74
7, 41882, Note_on_c, 5, 67, 74
7, 41894, Note_on_c, 5, 64, 0
7, 42004, Note_on_c, 5, 65, 72
7, 42032, Note_on_c, 5, 67, 0
7, 42124, Note_on_c, 5, 67, 70
7, 42140, Note_on_c, 5, 65, 0
7, 42232, Note_on_c, 5, 67, 0
7, 42244, Note_on_c, 5, 64, 70
7, 42677, Note_on_c, 5, 64, 0
7, 44284, Note_on_c, 5, 67, 52
7, 44360, Note_on_c, 5, 67, 0
7, 44404, Note_on_c, 5, 67, 52
7, 44476, Note_on_c, 5, 67, 0
7, 44524, Note_on_c, 5, 67, 52
7, 44604, Note_on_c, 5, 67, 0
7, 44644, Note_on_c, 5, 67, 55
7, 44722, Note_on_c, 5, 67, 0
7, 44764, Note_on_c, 5, 67, 55
7, 44844, Note_on_c, 5, 67, 0
7, 44882, Note_on_c, 5, 67, 54
7, 44962, Note_on_c, 5, 67, 0
7, 45002, Note_on_c, 5, 67, 54
7, 45080, Note_on_c, 5, 67, 0
7, 45242, Note_on_c, 5, 69, 54
7, 45320, Note_on_c, 5, 69, 0
7, 45364, Note_on_c, 5, 69, 54
7, 45438, Note_on_c, 5, 69, 0
7, 45484, Note_on_c, 5, 69, 54
7, 45560, Note_on_c, 5, 69, 0
7, 45602, Note_on_c, 5, 69, 56
7, 45684, Note_on_c, 5, 69, 0
7, 45724, Note_on_c, 5, 69, 55
7, 45800, Note_on_c, 5, 69, 0
7, 45844, Note_on_c, 5, 69, 59
7, 45922, Note_on_c, 5, 69, 0
7, 45962, Note_on_c, 5, 69, 59
7, 46044, Note_on_c, 5, 69, 0
7, 46202, Note_on_c, 5, 69, 60
7, 46280, Note_on_c, 5, 69, 0
7, 46324, Note_on_c, 5, 69, 57
7, 46398, Note_on_c, 5, 69, 0
7, 46444, Note_on_c, 5, 69, 57
7, 46520, Note_on_c, 5, 69, 0
7, 46564, Note_on_c, 5, 69, 54
7, 46640, Note_on_c, 5, 69, 0
7, 46682, Note_on_c, 5, 69, 54
7, 46760, Note_on_c, 5, 69, 0
7, 46802, Note_on_c, 5, 69, 54
7, 46882, Note_on_c, 5, 69, 0
7, 46922, Note_on_c, 5, 69, 51
7, 47002, Note_on_c, 5, 69, 0
7, 47162, Note_on_c, 5, 67, 50
7, 47244, Note_on_c, 5, 67, 0
7, 47282, Note_on_c, 5, 67, 50
7, 47360, Note_on_c, 5, 67, 0
7, 47404, Note_on_c, 5, 67, 51
7, 47482, Note_on_c, 5, 67, 0
7, 47522, Note_on_c, 5, 67, 54
7, 47644, Note_on_c, 5, 68, 54
7, 47654, Note_on_c, 5, 67, 0
7, 47762, Note_on_c, 5, 67, 54
7, 47778, Note_on_c, 5, 68, 0
7, 47884, Note_on_c, 5, 65, 54
7, 47904, Note_on_c, 5, 67, 0
7, 47992, Note_on_c, 5, 65, 0
7, 48122, Note_on_c, 5, 64, 50
7, 48198, Note_on_c, 5, 64, 0
7, 48242, Note_on_c, 5, 64, 50
7, 48316, Note_on_c, 5, 64, 0
7, 48364, Note_on_c, 5, 64, 50
7, 48440, Note_on_c, 5, 64, 0
7, 48482, Note_on_c, 5, 67, 52
7, 48562, Note_on_c, 5, 67, 0
7, 48602, Note_on_c, 5, 67, 55
7, 48684, Note_on_c, 5, 67, 0
7, 48722, Note_on_c, 5, 67, 56
7, 48802, Note_on_c, 5, 67, 0
7, 48842, Note_on_c, 5, 67, 56
7, 48922, Note_on_c, 5, 67, 0
7, 49084, Note_on_c, 5, 67, 56
7, 49166, Note_on_c, 5, 67, 0
7, 49204, Note_on_c, 5, 67, 56
7, 49284, Note_on_c, 5, 67, 0
7, 49324, Note_on_c, 5, 67, 53
7, 49406, Note_on_c, 5, 67, 0
7, 49444, Note_on_c, 5, 65, 53
7, 49522, Note_on_c, 5, 65, 0
7, 49564, Note_on_c, 5, 65, 56
7, 49640, Note_on_c, 5, 65, 0
7, 49682, Note_on_c, 5, 65, 58
7, 49762, Note_on_c, 5, 65, 0
7, 49804, Note_on_c, 5, 65, 58
7, 49880, Note_on_c, 5, 65, 0
7, 50044, Note_on_c, 5, 65, 56
7, 50118, Note_on_c, 5, 65, 0
7, 50164, Note_on_c, 5, 65, 56
7, 50246, Note_on_c, 5, 65, 0
7, 50282, Note_on_c, 5, 65, 56
7, 50362, Note_on_c, 5, 65, 0
7, 50402, Note_on_c, 5, 64, 56
7, 50476, Note_on_c, 5, 64, 0
7, 50522, Note_on_c, 5, 64, 56
7, 50602, Note_on_c, 5, 64, 0
7, 50644, Note_on_c, 5, 64, 55
7, 50764, Note_on_c, 5, 67, 55
7, 50786, Note_on_c, 5, 64, 0
7, 50834, Note_on_c, 5, 67, 0
7, 51842, Note_on_c, 5, 65, 51
7, 51908, Note_on_c, 5, 65, 0
7, 51964, Note_on_c, 5, 60, 50
7, 52082, Note_on_c, 5, 69, 50
7, 52106, Note_on_c, 5, 60, 0
7, 52168, Note_on_c, 5, 69, 0
7, 52202, Note_on_c, 5, 69, 50
7, 52274, Note_on_c, 5, 69, 0
7, 52322, Note_on_c, 5, 69, 50
7, 52394, Note_on_c, 5, 69, 0
7, 52444, Note_on_c, 5, 69, 50
7, 52516, Note_on_c, 5, 69, 0
7, 52564, Note_on_c, 5, 69, 50
7, 52638, Note_on_c, 5, 69, 0
7, 52682, Note_on_c, 5, 69, 50
7, 52758, Note_on_c, 5, 69, 0
7, 52922, Note_on_c, 5, 70, 50
7, 52996, Note_on_c, 5, 70, 0
7, 53044, Note_on_c, 5, 70, 48
7, 53116, Note_on_c, 5, 70, 0
7, 53164, Note_on_c, 5, 70, 48
7, 53236, Note_on_c, 5, 70, 0
7, 53282, Note_on_c, 5, 67, 48
7, 53360, Note_on_c, 5, 67, 0
7, 53404, Note_on_c, 5, 67, 48
7, 53480, Note_on_c, 5, 67, 0
7, 53524, Note_on_c, 5, 67, 49
7, 53600, Note_on_c, 5, 67, 0
7, 53642, Note_on_c, 5, 67, 50
7, 53720, Note_on_c, 5, 67, 0
7, 53882, Note_on_c, 5, 67, 51
7, 54004, Note_on_c, 5, 69, 51
7, 54016, Note_on_c, 5, 67, 0
7, 54078, Note_on_c, 5, 69, 0
7, 54122, Note_on_c, 5, 69, 54
7, 54184, Note_on_c, 5, 69, 0
7, 54242, Note_on_c, 5, 69, 55
7, 54320, Note_on_c, 5, 69, 0
7, 54364, Note_on_c, 5, 69, 55
7, 54438, Note_on_c, 5, 69, 0
7, 54482, Note_on_c, 5, 69, 55
7, 54558, Note_on_c, 5, 69, 0
7, 54602, Note_on_c, 5, 69, 55
7, 54680, Note_on_c, 5, 69, 0
7, 54842, Note_on_c, 5, 60, 55
7, 54914, Note_on_c, 5, 60, 0
7, 54962, Note_on_c, 5, 60, 55
7, 55038, Note_on_c, 5, 60, 0
7, 55082, Note_on_c, 5, 60, 55
7, 55158, Note_on_c, 5, 60, 0
7, 55202, Note_on_c, 5, 64, 50
7, 55282, Note_on_c, 5, 64, 0
7, 55324, Note_on_c, 5, 64, 53
7, 55404, Note_on_c, 5, 64, 0
7, 55444, Note_on_c, 5, 64, 53
7, 55524, Note_on_c, 5, 64, 0
7, 55562, Note_on_c, 5, 64, 51
7, 55640, Note_on_c, 5, 64, 0
7, 55802, Note_on_c, 5, 64, 50
7, 55922, Note_on_c, 5, 65, 54
7, 55944, Note_on_c, 5, 64, 0
7, 55996, Note_on_c, 5, 65, 0
7, 56042, Note_on_c, 5, 65, 54
7, 56118, Note_on_c, 5, 65, 0
7, 56162, Note_on_c, 5, 65, 54
7, 56240, Note_on_c, 5, 65, 0
7, 56282, Note_on_c, 5, 65, 54
7, 56354, Note_on_c, 5, 65, 0
7, 56402, Note_on_c, 5, 65, 54
7, 56482, Note_on_c, 5, 65, 0
7, 56522, Note_on_c, 5, 65, 54
7, 56602, Note_on_c, 5, 65, 0
7, 56764, Note_on_c, 5, 62, 51
7, 56844, Note_on_c, 5, 62, 0
7, 56884, Note_on_c, 5, 62, 51
7, 56956, Note_on_c, 5, 62, 0
7, 57004, Note_on_c, 5, 62, 51
7, 57084, Note_on_c, 5, 62, 0
7, 57122, Note_on_c, 5, 60, 51
7, 57242, Note_on_c, 5, 65, 57
7, 57260, Note_on_c, 5, 60, 0
7, 57362, Note_on_c, 5, 64, 56
7, 57378, Note_on_c, 5, 65, 0
7, 57484, Note_on_c, 5, 58, 53
7, 57502, Note_on_c, 5, 64, 0
7, 57592, Note_on_c, 5, 58, 0
7, 57604, Note_on_c, 5, 57, 52
7, 57722, Note_on_c, 5, 58, 54
7, 57738, Note_on_c, 5, 57, 0
7, 57842, Note_on_c, 5, 60, 55
7, 57854, Note_on_c, 5, 58, 0
7, 57962, Note_on_c, 5, 62, 55
7, 57982, Note_on_c, 5, 60, 0
7, 58078, Note_on_c, 5, 63, 63
7, 58096, Note_on_c, 5, 62, 0
7, 58202, Note_on_c, 5, 62, 55
7, 58210, Note_on_c, 5, 63, 0
7, 58318, Note_on_c, 5, 63, 61
7, 58340, Note_on_c, 5, 62, 0
7, 58444, Note_on_c, 5, 60, 56
7, 58452, Note_on_c, 5, 63, 0
7, 58536, Note_on_c, 5, 60, 0
7, 58682, Note_on_c, 5, 62, 54
7, 58754, Note_on_c, 5, 62, 0
7, 58802, Note_on_c, 5, 62, 57
7, 58878, Note_on_c, 5, 62, 0
7, 58924, Note_on_c, 5, 62, 55
7, 58996, Note_on_c, 5, 62, 0
7, 59042, Note_on_c, 5, 62, 53
7, 59114, Note_on_c, 5, 62, 0
7, 59164, Note_on_c, 5, 62, 53
7, 59236, Note_on_c, 5, 62, 0
7, 59282, Note_on_c, 5, 62, 53
7, 59356, Note_on_c, 5, 62, 0
7, 59404, Note_on_c, 5, 62, 53
7, 59482, Note_on_c, 5, 62, 0
7, 59642, Note_on_c, 5, 59, 49
7, 59762, Note_on_c, 5, 60, 49
7, 59780, Note_on_c, 5, 59, 0
7, 59854, Note_on_c, 5, 60, 0
7, 59882, Note_on_c, 5, 60, 49
7, 59954, Note_on_c, 5, 60, 0
7, 60004, Note_on_c, 5, 60, 49
7, 60056, Note_on_c, 5, 60, 0
7, 60122, Note_on_c, 5, 60, 49
7, 60172, Note_on_c, 5, 60, 0
7, 60242, Note_on_c, 5, 60, 49
7, 60362, Note_on_c, 5, 65, 48
7, 60384, Note_on_c, 5, 60, 0
7, 60438, Note_on_c, 5, 65, 0
7, 60604, Note_on_c, 5, 67, 48
7, 60650, Note_on_c, 5, 67, 0
7, 60722, Note_on_c, 5, 67, 54
7, 60774, Note_on_c, 5, 67, 0
7, 60842, Note_on_c, 5, 67, 54
7, 60888, Note_on_c, 5, 67, 0
7, 60962, Note_on_c, 5, 67, 54
7, 61010, Note_on_c, 5, 67, 0
7, 61082, Note_on_c, 5, 67, 54
7, 61132, Note_on_c, 5, 67, 0
7, 61202, Note_on_c, 5, 65, 54
7, 61322, Note_on_c, 5, 64, 54
7, 61342, Note_on_c, 5, 65, 0
7, 61422, Note_on_c, 5, 64, 0
7, 61564, Note_on_c, 5, 57, 48
7, 61684, Note_on_c, 5, 65, 49
7, 61702, Note_on_c, 5, 57, 0
7, 61764, Note_on_c, 5, 65, 0
7, 61804, Note_on_c, 5, 65, 51
7, 61870, Note_on_c, 5, 65, 0
7, 61922, Note_on_c, 5, 67, 51
7, 62000, Note_on_c, 5, 67, 0
7, 62044, Note_on_c, 5, 70, 52
7, 62164, Note_on_c, 5, 69, 53
7, 62188, Note_on_c, 5, 70, 0
7, 62284, Note_on_c, 5, 67, 53
7, 62308, Note_on_c, 5, 69, 0
7, 62378, Note_on_c, 5, 67, 0
7, 62402, Note_on_c, 5, 65, 52
7, 62524, Note_on_c, 5, 65, 0
7, 62644, Note_on_c, 5, 62, 43
7, 62768, Note_on_c, 5, 62, 0
7, 62882, Note_on_c, 5, 58, 43
7, 63006, Note_on_c, 5, 58, 0
7, 63124, Note_on_c, 5, 55, 44
7, 63246, Note_on_c, 5, 55, 0
7, 63484, Note_on_c, 5, 65, 47
7, 63562, Note_on_c, 5, 65, 0
7, 63602, Note_on_c, 5, 65, 49
7, 63686, Note_on_c, 5, 65, 0
7, 63722, Note_on_c, 5, 65, 49
7, 63802, Note_on_c, 5, 65, 0
7, 63842, Note_on_c, 5, 57, 49
7, 63916, Note_on_c, 5, 57, 0
7, 63964, Note_on_c, 5, 57, 51
7, 64038, Note_on_c, 5, 57, 0
7, 64082, Note_on_c, 5, 55, 55
7, 64156, Note_on_c, 5, 55, 0
7, 64204, Note_on_c, 5, 55, 55
7, 64276, Note_on_c, 5, 55, 0
7, 64322, Note_on_c, 5, 57, 55
7, 64398, Note_on_c, 5, 57, 0
7, 65404, Note_on_c, 5, 57, 56
7, 65524, Note_on_c, 5, 65, 56
7, 65536, Note_on_c, 5, 57, 0
7, 65600, Note_on_c, 5, 65, 0
7, 65642, Note_on_c, 5, 65, 56
7, 65722, Note_on_c, 5, 65, 0
7, 65762, Note_on_c, 5, 69, 56
7, 65840, Note_on_c, 5, 69, 0
7, 65884, Note_on_c, 5, 69, 56
7, 65964, Note_on_c, 5, 69, 0
7, 66002, Note_on_c, 5, 69, 56
7, 66076, Note_on_c, 5, 69, 0
7, 66124, Note_on_c, 5, 69, 56
7, 66206, Note_on_c, 5, 69, 0
7, 66362, Note_on_c, 5, 67, 56
7, 66440, Note_on_c, 5, 67, 0
7, 66482, Note_on_c, 5, 67, 56
7, 66560, Note_on_c, 5, 67, 0
7, 66602, Note_on_c, 5, 67, 56
7, 66680, Note_on_c, 5, 67, 0
7, 66722, Note_on_c, 5, 67, 58
7, 66804, Note_on_c, 5, 67, 0
7, 66842, Note_on_c, 5, 67, 67
7, 66922, Note_on_c, 5, 67, 0
7, 66964, Note_on_c, 5, 67, 70
7, 67042, Note_on_c, 5, 67, 0
7, 67084, Note_on_c, 5, 67, 76
7, 67158, Note_on_c, 5, 67, 0
7, 67202, Note_on_c, 5, 65, 76
7, 67322, Note_on_c, 5, 62, 76
7, 67344, Note_on_c, 5, 65, 0
7, 67394, Note_on_c, 5, 62, 0
7, 67442, Note_on_c, 5, 62, 50
7, 67514, Note_on_c, 5, 62, 0
7, 67564, Note_on_c, 5, 62, 52
7, 67636, Note_on_c, 5, 62, 0
7, 67682, Note_on_c, 5, 65, 53
7, 67764, Note_on_c, 5, 65, 0
7, 67802, Note_on_c, 5, 65, 52
7, 67880, Note_on_c, 5, 65, 0
7, 67924, Note_on_c, 5, 65, 52
7, 67998, Note_on_c, 5, 65, 0
7, 68044, Note_on_c, 5, 65, 52
7, 68122, Note_on_c, 5, 65, 0
7, 68284, Note_on_c, 5, 64, 55
7, 68364, Note_on_c, 5, 64, 0
7, 68402, Note_on_c, 5, 64, 55
7, 68476, Note_on_c, 5, 64, 0
7, 68522, Note_on_c, 5, 64, 55
7, 68604, Note_on_c, 5, 64, 0
7, 68644, Note_on_c, 5, 64, 60
7, 68724, Note_on_c, 5, 64, 0
7, 68762, Note_on_c, 5, 64, 66
7, 68842, Note_on_c, 5, 64, 0
7, 68884, Note_on_c, 5, 63, 71
7, 68958, Note_on_c, 5, 63, 0
7, 69004, Note_on_c, 5, 63, 74
7, 69084, Note_on_c, 5, 63, 0
7, 69122, Note_on_c, 5, 62, 75
7, 69242, Note_on_c, 5, 58, 76
7, 69264, Note_on_c, 5, 62, 0
7, 69304, Note_on_c, 5, 58, 0
7, 69362, Note_on_c, 5, 58, 46
7, 69428, Note_on_c, 5, 58, 0
7, 69482, Note_on_c, 5, 58, 50
7, 69548, Note_on_c, 5, 58, 0
7, 69602, Note_on_c, 5, 62, 53
7, 69674, Note_on_c, 5, 62, 0
7, 69722, Note_on_c, 5, 62, 53
7, 69794, Note_on_c, 5, 62, 0
7, 69844, Note_on_c, 5, 62, 53
7, 69916, Note_on_c, 5, 62, 0
7, 69962, Note_on_c, 5, 62, 51
7, 70034, Note_on_c, 5, 62, 0
7, 70204, Note_on_c, 5, 60, 49
7, 70276, Note_on_c, 5, 60, 0
7, 70322, Note_on_c, 5, 60, 49
7, 70402, Note_on_c, 5, 60, 0
7, 70442, Note_on_c, 5, 60, 50
7, 70516, Note_on_c, 5, 60, 0
7, 70564, Note_on_c, 5, 60, 50
7, 70636, Note_on_c, 5, 60, 0
7, 70684, Note_on_c, 5, 60, 50
7, 70758, Note_on_c, 5, 60, 0
7, 70804, Note_on_c, 5, 60, 50
7, 70876, Note_on_c, 5, 60, 0
7, 70924, Note_on_c, 5, 60, 51
7, 70998, Note_on_c, 5, 60, 0
7, 71164, Note_on_c, 5, 60, 55
7, 71282, Note_on_c, 5, 67, 57
7, 71304, Note_on_c, 5, 60, 0
7, 71356, Note_on_c, 5, 67, 0
7, 71404, Note_on_c, 5, 67, 57
7, 71468, Note_on_c, 5, 67, 0
7, 71522, Note_on_c, 5, 67, 57
7, 71596, Note_on_c, 5, 67, 0
7, 71642, Note_on_c, 5, 67, 57
7, 71720, Note_on_c, 5, 67, 0
7, 71764, Note_on_c, 5, 65, 55
7, 71844, Note_on_c, 5, 65, 0
7, 71882, Note_on_c, 5, 65, 54
7, 71964, Note_on_c, 5, 65, 0
7, 72004, Note_on_c, 5, 67, 65
7, 72022, Note_on_c, 5, 65, 65
7, 72038, Note_on_c, 5, 67, 0
7, 72044, Note_on_c, 5, 67, 65
7, 72060, Note_on_c, 5, 65, 0
7, 72064, Note_on_c, 5, 65, 65
7, 72076, Note_on_c, 5, 67, 0
7, 72082, Note_on_c, 5, 67, 65
7, 72098, Note_on_c, 5, 65, 0
7, 72104, Note_on_c, 5, 65, 65
7, 72112, Note_on_c, 5, 67, 0
7, 72124, Note_on_c, 5, 67, 64
7, 72136, Note_on_c, 5, 65, 0
7, 72144, Note_on_c, 5, 65, 63
7, 72160, Note_on_c, 5, 67, 0
7, 72162, Note_on_c, 5, 67, 63
7, 72178, Note_on_c, 5, 65, 0
7, 72184, Note_on_c, 5, 65, 62
7, 72196, Note_on_c, 5, 67, 0
7, 72204, Note_on_c, 5, 64, 60
7, 72214, Note_on_c, 5, 65, 0
7, 72224, Note_on_c, 5, 65, 59
7, 72240, Note_on_c, 5, 64, 0
7, 72244, Note_on_c, 5, 64, 59
7, 72258, Note_on_c, 5, 65, 0
7, 72456, Note_on_c, 5, 64, 0
7, 74884, Note_on_c, 5, 67, 53
7, 74944, Note_on_c, 5, 69, 55
7, 74962, Note_on_c, 5, 67, 0
7, 75004, Note_on_c, 5, 67, 55
7, 75020, Note_on_c, 5, 69, 0
7, 75062, Note_on_c, 5, 65, 54
7, 75076, Note_on_c, 5, 67, 0
7, 75122, Note_on_c, 5, 65, 0
7, 75122, Note_on_c, 5, 64, 52
7, 75196, Note_on_c, 5, 64, 0
7, 75242, Note_on_c, 5, 64, 50
7, 75308, Note_on_c, 5, 64, 0
7, 75362, Note_on_c, 5, 64, 50
7, 75434, Note_on_c, 5, 64, 0
7, 75484, Note_on_c, 5, 64, 50
7, 75602, Note_on_c, 5, 65, 52
7, 75624, Note_on_c, 5, 64, 0
7, 75724, Note_on_c, 5, 67, 55
7, 75744, Note_on_c, 5, 65, 0
7, 75832, Note_on_c, 5, 67, 0
7, 75842, Note_on_c, 5, 69, 55
7, 75902, Note_on_c, 5, 70, 55
7, 75912, Note_on_c, 5, 69, 0
7, 75962, Note_on_c, 5, 69, 55
7, 75976, Note_on_c, 5, 70, 0
7, 76022, Note_on_c, 5, 67, 55
7, 76032, Note_on_c, 5, 69, 0
7, 76078, Note_on_c, 5, 67, 0
7, 76084, Note_on_c, 5, 65, 53
7, 76156, Note_on_c, 5, 65, 0
7, 76202, Note_on_c, 5, 65, 52
7, 76274, Note_on_c, 5, 65, 0
7, 76324, Note_on_c, 5, 65, 54
7, 76400, Note_on_c, 5, 65, 0
7, 76442, Note_on_c, 5, 69, 54
7, 76562, Note_on_c, 5, 67, 54
7, 76582, Note_on_c, 5, 69, 0
7, 76682, Note_on_c, 5, 65, 50
7, 76698, Note_on_c, 5, 67, 0
7, 76802, Note_on_c, 5, 65, 0
7, 76922, Note_on_c, 5, 65, 51
7, 77032, Note_on_c, 5, 65, 0
7, 77044, Note_on_c, 5, 74, 54
7, 77120, Note_on_c, 5, 74, 0
7, 77164, Note_on_c, 5, 74, 55
7, 77230, Note_on_c, 5, 74, 0
7, 77282, Note_on_c, 5, 74, 56
7, 77404, Note_on_c, 5, 65, 57
7, 77414, Note_on_c, 5, 74, 0
7, 77504, Note_on_c, 5, 65, 0
7, 77524, Note_on_c, 5, 74, 58
7, 77644, Note_on_c, 5, 65, 57
7, 77658, Note_on_c, 5, 74, 0
7, 77738, Note_on_c, 5, 65, 0
7, 77884, Note_on_c, 5, 69, 56
7, 78002, Note_on_c, 5, 72, 58
7, 78024, Note_on_c, 5, 69, 0
7, 78076, Note_on_c, 5, 72, 0
7, 78122, Note_on_c, 5, 72, 58
7, 78196, Note_on_c, 5, 72, 0
7, 78244, Note_on_c, 5, 72, 58
7, 78364, Note_on_c, 5, 69, 53
7, 78384, Note_on_c, 5, 72, 0
7, 78456, Note_on_c, 5, 69, 0
7, 78482, Note_on_c, 5, 72, 56
7, 78604, Note_on_c, 5, 69, 54
7, 78626, Note_on_c, 5, 72, 0
7, 78688, Note_on_c, 5, 69, 0
7, 78844, Note_on_c, 5, 67, 57
7, 78962, Note_on_c, 5, 70, 60
7, 78982, Note_on_c, 5, 67, 0
7, 79026, Note_on_c, 5, 70, 0
7, 79082, Note_on_c, 5, 70, 61
7, 79148, Note_on_c, 5, 70, 0
7, 79204, Note_on_c, 5, 70, 64
7, 79322, Note_on_c, 5, 67, 64
7, 79342, Note_on_c, 5, 70, 0
7, 79408, Note_on_c, 5, 67, 0
7, 79442, Note_on_c, 5, 70, 65
7, 79564, Note_on_c, 5, 67, 65
7, 79578, Note_on_c, 5, 70, 0
7, 79648, Note_on_c, 5, 67, 0
7, 79684, Note_on_c, 5, 65, 66
7, 79894, Note_on_c, 5, 65, 0
7, 80162, Note_on_c, 5, 57, 53
7, 80374, Note_on_c, 5, 57, 0
7, 80764, Note_on_c, 5, 67, 52
7, 80884, Note_on_c, 5, 70, 52
7, 80908, Note_on_c, 5, 67, 0
7, 80960, Note_on_c, 5, 70, 0
7, 81004, Note_on_c, 5, 70, 55
7, 81074, Note_on_c, 5, 70, 0
7, 81122, Note_on_c, 5, 70, 55
7, 81244, Note_on_c, 5, 67, 54
7, 81256, Note_on_c, 5, 70, 0
7, 81338, Note_on_c, 5, 67, 0
7, 81362, Note_on_c, 5, 70, 55
7, 81484, Note_on_c, 5, 67, 51
7, 81510, Note_on_c, 5, 70, 0
7, 81572, Note_on_c, 5, 67, 0
7, 81602, Note_on_c, 5, 65, 50
7, 81760, Note_on_c, 5, 65, 0
7, 82084, Note_on_c, 5, 62, 43
7, 82247, Note_on_c, 5, 62, 0
7, 82564, Note_on_c, 5, 60, 43
7, 82728, Note_on_c, 5, 60, 0
7, 83042, Note_on_c, 5, 60, 44
7, 83206, Note_on_c, 5, 60, 0
7, 83644, Note_on_c, 5, 60, 45
7, 83762, Note_on_c, 5, 72, 48
7, 83788, Note_on_c, 5, 60, 0
7, 83826, Note_on_c, 5, 72, 0
7, 83882, Note_on_c, 5, 72, 48
7, 83950, Note_on_c, 5, 72, 0
7, 84004, Note_on_c, 5, 72, 49
7, 84124, Note_on_c, 5, 70, 47
7, 84138, Note_on_c, 5, 72, 0
7, 84242, Note_on_c, 5, 69, 51
7, 84262, Note_on_c, 5, 70, 0
7, 84362, Note_on_c, 5, 70, 51
7, 84374, Note_on_c, 5, 69, 0
7, 84454, Note_on_c, 5, 70, 0
7, 84482, Note_on_c, 5, 69, 51
7, 84548, Note_on_c, 5, 69, 0
7, 84602, Note_on_c, 5, 65, 51
7, 84672, Note_on_c, 5, 65, 0
7, 84724, Note_on_c, 5, 65, 51
7, 84792, Note_on_c, 5, 65, 0
7, 84842, Note_on_c, 5, 65, 51
7, 84916, Note_on_c, 5, 65, 0
7, 84962, Note_on_c, 5, 65, 51
7, 85084, Note_on_c, 5, 64, 51
7, 85100, Note_on_c, 5, 65, 0
7, 85204, Note_on_c, 5, 62, 52
7, 85222, Note_on_c, 5, 64, 0
7, 85324, Note_on_c, 5, 60, 52
7, 85344, Note_on_c, 5, 62, 0
7, 85424, Note_on_c, 5, 60, 0
7, 85442, Note_on_c, 5, 60, 51
7, 85514, Note_on_c, 5, 60, 0
7, 85564, Note_on_c, 5, 60, 51
7, 85638, Note_on_c, 5, 60, 0
7, 85682, Note_on_c, 5, 60, 52
7, 85760, Note_on_c, 5, 60, 0
7, 85802, Note_on_c, 5, 60, 52
7, 85874, Note_on_c, 5, 60, 0
7, 85924, Note_on_c, 5, 63, 52
7, 86002, Note_on_c, 5, 63, 0
7, 86044, Note_on_c, 5, 63, 55
7, 86120, Note_on_c, 5, 63, 0
7, 86162, Note_on_c, 5, 63, 56
7, 86236, Note_on_c, 5, 63, 0
7, 86284, Note_on_c, 5, 63, 58
7, 86364, Note_on_c, 5, 63, 0
7, 86402, Note_on_c, 5, 62, 60
7, 86476, Note_on_c, 5, 62, 0
7, 86524, Note_on_c, 5, 62, 60
7, 86600, Note_on_c, 5, 62, 0
7, 86644, Note_on_c, 5, 62, 60
7, 86726, Note_on_c, 5, 62, 0
7, 86762, Note_on_c, 5, 62, 61
7, 86838, Note_on_c, 5, 62, 0
7, 86884, Note_on_c, 5, 65, 63
7, 86958, Note_on_c, 5, 65, 0
7, 87004, Note_on_c, 5, 65, 63
7, 87086, Note_on_c, 5, 65, 0
7, 87122, Note_on_c, 5, 65, 63
7, 87198, Note_on_c, 5, 65, 0
7, 87242, Note_on_c, 5, 65, 63
7, 87318, Note_on_c, 5, 65, 0
7, 87482, Note_on_c, 5, 65, 64
7, 87564, Note_on_c, 5, 65, 0
7, 87604, Note_on_c, 5, 65, 65
7, 87678, Note_on_c, 5, 65, 0
7, 87722, Note_on_c, 5, 65, 65
7, 87798, Note_on_c, 5, 65, 0
7, 87844, Note_on_c, 5, 64, 63
7, 87918, Note_on_c, 5, 64, 0
7, 87962, Note_on_c, 5, 64, 61
7, 88036, Note_on_c, 5, 64, 0
7, 88082, Note_on_c, 5, 64, 61
7, 88158, Note_on_c, 5, 64, 0
7, 88204, Note_on_c, 5, 64, 58
7, 88278, Note_on_c, 5, 64, 0
7, 88442, Note_on_c, 5, 65, 57
7, 88516, Note_on_c, 5, 65, 0
7, 88562, Note_on_c, 5, 65, 56
7, 88640, Note_on_c, 5, 65, 0
7, 88682, Note_on_c, 5, 65, 56
7, 88764, Note_on_c, 5, 65, 0
7, 88802, Note_on_c, 5, 65, 56
7, 88878, Note_on_c, 5, 65, 0
7, 88922, Note_on_c, 5, 65, 56
7, 89004, Note_on_c, 5, 65, 0
7, 89044, Note_on_c, 5, 65, 59
7, 89126, Note_on_c, 5, 65, 0
7, 89162, Note_on_c, 5, 65, 57
7, 89236, Note_on_c, 5, 65, 0
7, 89282, Note_on_c, 5, 65, 59
7, 89414, Note_on_c, 5, 65, 0
7, 89522, Note_on_c, 5, 58, 48
7, 89764, Note_on_c, 5, 60, 47
7, 89778, Note_on_c, 5, 58, 0
7, 90004, Note_on_c, 5, 62, 47
7, 90020, Note_on_c, 5, 60, 0
7, 90244, Note_on_c, 5, 62, 0
7, 90364, Note_on_c, 5, 65, 43
7, 90442, Note_on_c, 5, 65, 0
7, 90484, Note_on_c, 5, 65, 43
7, 90564, Note_on_c, 5, 65, 0
7, 90604, Note_on_c, 5, 65, 45
7, 90680, Note_on_c, 5, 65, 0
7, 90722, Note_on_c, 5, 65, 46
7, 90798, Note_on_c, 5, 65, 0
7, 90844, Note_on_c, 5, 65, 46
7, 90924, Note_on_c, 5, 65, 0
7, 90962, Note_on_c, 5, 65, 46
7, 91042, Note_on_c, 5, 65, 0
7, 91082, Note_on_c, 5, 65, 51
7, 91162, Note_on_c, 5, 65, 0
7, 91204, Note_on_c, 5, 65, 54
7, 91284, Note_on_c, 5, 65, 0
7, 91324, Note_on_c, 5, 65, 59
7, 91402, Note_on_c, 5, 65, 0
7, 91444, Note_on_c, 5, 65, 63
7, 91522, Note_on_c, 5, 65, 0
7, 91562, Note_on_c, 5, 65, 63
7, 91644, Note_on_c, 5, 65, 0
7, 91682, Note_on_c, 5, 64, 66
7, 91762, Note_on_c, 5, 64, 0
7, 91802, Note_on_c, 5, 64, 67
7, 91882, Note_on_c, 5, 64, 0
7, 91922, Note_on_c, 5, 64, 75
7, 92004, Note_on_c, 5, 64, 0
7, 92044, Note_on_c, 5, 64, 78
7, 92124, Note_on_c, 5, 64, 0
7, 92164, Note_on_c, 5, 65, 86
7, 92240, Note_on_c, 5, 65, 0
7, 92282, Note_on_c, 5, 65, 76
7, 92360, Note_on_c, 5, 65, 0
7, 92404, Note_on_c, 5, 65, 79
7, 92476, Note_on_c, 5, 65, 0
7, 92524, Note_on_c, 5, 65, 81
7, 92594, Note_on_c, 5, 65, 0
7, 92642, Note_on_c, 5, 65, 82
7, 92762, Note_on_c, 5, 62, 75
7, 92778, Note_on_c, 5, 65, 0
7, 92838, Note_on_c, 5, 62, 0
7, 92884, Note_on_c, 5, 62, 75
7, 92936, Note_on_c, 5, 62, 0
7, 93002, Note_on_c, 5, 62, 75
7, 93052, Note_on_c, 5, 62, 0
7, 93122, Note_on_c, 5, 62, 75
7, 93242, Note_on_c, 5, 60, 72
7, 93262, Note_on_c, 5, 62, 0
7, 93332, Note_on_c, 5, 60, 0
7, 93362, Note_on_c, 5, 60, 70
7, 93406, Note_on_c, 5, 60, 0
7, 93484, Note_on_c, 5, 60, 70
7, 93530, Note_on_c, 5, 60, 0
7, 93604, Note_on_c, 5, 60, 70
7, 93722, Note_on_c, 5, 58, 70
7, 93742, Note_on_c, 5, 60, 0
7, 93818, Note_on_c, 5, 58, 0
7, 93844, Note_on_c, 5, 58, 70
7, 93894, Note_on_c, 5, 58, 0
7, 93964, Note_on_c, 5, 58, 70
7, 94008, Note_on_c, 5, 58, 0
7, 94082, Note_on_c, 5, 57, 70
7, 94562, Note_on_c, 5, 57, 0
7, 96124, Note_on_c, 5, 77, 82
7, 96242, Note_on_c, 5, 69, 83
7, 96260, Note_on_c, 5, 77, 0
7, 96320, Note_on_c, 5, 69, 0
7, 96362, Note_on_c, 5, 69, 83
7, 96434, Note_on_c, 5, 69, 0
7, 96482, Note_on_c, 5, 69, 81
7, 96552, Note_on_c, 5, 69, 0
7, 96604, Note_on_c, 5, 69, 77
7, 96676, Note_on_c, 5, 69, 0
7, 96722, Note_on_c, 5, 67, 77
7, 96794, Note_on_c, 5, 67, 0
7, 96844, Note_on_c, 5, 67, 77
7, 96926, Note_on_c, 5, 67, 0
7, 97082, Note_on_c, 5, 69, 76
7, 97204, Note_on_c, 5, 60, 75
7, 97218, Note_on_c, 5, 69, 0
7, 97286, Note_on_c, 5, 60, 0
7, 97324, Note_on_c, 5, 60, 73
7, 97400, Note_on_c, 5, 60, 0
7, 97442, Note_on_c, 5, 60, 72
7, 97518, Note_on_c, 5, 60, 0
7, 97564, Note_on_c, 5, 60, 72
7, 97638, Note_on_c, 5, 60, 0
7, 97682, Note_on_c, 5, 58, 72
7, 97760, Note_on_c, 5, 58, 0
7, 97804, Note_on_c, 5, 58, 72
7, 97882, Note_on_c, 5, 58, 0
7, 97922, Note_on_c, 5, 57, 72
7, 98396, Note_on_c, 5, 57, 0
7, 100324, Note_on_c, 5, 57, 48
7, 100576, Note_on_c, 5, 57, 0
7, 100804, Note_on_c, 5, 57, 47
7, 101060, Note_on_c, 5, 57, 0
7, 101060, End_track
8, 0, Start_track
8, 0, Title_t, "Viola I, II"
8, 0, Control_c, 6, 0, 0
8, 0, Control_c, 6, 7, 90
8, 0, Control_c, 6, 10, 45
8, 0, Control_c, 6, 91, 70
8, 0, Control_c, 6, 93, 70
8, 1, Control_c, 6, 32, 1
8, 2, Program_c, 6, 48
8, 2046, Note_on_c, 6, 65, 55
8, 2144, Note_on_c, 6, 65, 0
8, 2168, Note_on_c, 6, 65, 55
8, 2266, Note_on_c, 6, 65, 0
8, 2286, Note_on_c, 6, 65, 55
8, 2382, Note_on_c, 6, 65, 0
8, 2406, Note_on_c, 6, 65, 55
8, 2500, Note_on_c, 6, 65, 0
8, 2528, Note_on_c, 6, 65, 55
8, 2624, Note_on_c, 6, 65, 0
8, 2648, Note_on_c, 6, 65, 55
8, 2744, Note_on_c, 6, 65, 0
8, 2766, Note_on_c, 6, 65, 55
8, 2866, Note_on_c, 6, 65, 0
8, 3006, Note_on_c, 6, 60, 51
8, 3102, Note_on_c, 6, 60, 0
8, 3128, Note_on_c, 6, 60, 51
8, 3220, Note_on_c, 6, 60, 0
8, 3248, Note_on_c, 6, 60, 51
8, 3344, Note_on_c, 6, 60, 0
8, 3368, Note_on_c, 6, 55, 51
8, 3466, Note_on_c, 6, 55, 0
8, 3486, Note_on_c, 6, 55, 51
8, 3584, Note_on_c, 6, 55, 0
8, 3608, Note_on_c, 6, 64, 51
8, 3704, Note_on_c, 6, 64, 0
8, 3726, Note_on_c, 6, 64, 51
8, 3822, Note_on_c, 6, 64, 0
8, 3966, Note_on_c, 6, 64, 53
8, 4086, Note_on_c, 6, 65, 53
8, 4100, Note_on_c, 6, 64, 0
8, 4196, Note_on_c, 6, 65, 0
8, 4208, Note_on_c, 6, 65, 53
8, 4280, Note_on_c, 6, 65, 0
8, 4328, Note_on_c, 6, 60, 53
8, 4404, Note_on_c, 6, 60, 0
8, 4446, Note_on_c, 6, 60, 53
8, 4524, Note_on_c, 6, 60, 0
8, 4566, Note_on_c, 6, 60, 53
8, 4644, Note_on_c, 6, 60, 0
8, 4686, Note_on_c, 6, 60, 52
8, 4762, Note_on_c, 6, 60, 0
8, 4928, Note_on_c, 6, 58, 53
8, 5004, Note_on_c, 6, 58, 0
8, 5048, Note_on_c, 6, 58, 53
8, 5124, Note_on_c, 6, 58, 0
8, 5168, Note_on_c, 6, 58, 53
8, 5242, Note_on_c, 6, 58, 0
8, 5286, Note_on_c, 6, 57, 53
8, 5358, Note_on_c, 6, 57, 0
8, 5408, Note_on_c, 6, 57, 53
8, 5486, Note_on_c, 6, 57, 0
8, 5526, Note_on_c, 6, 55, 53
8, 5598, Note_on_c, 6, 55, 0
8, 5646, Note_on_c, 6, 55, 53
8, 5718, Note_on_c, 6, 55, 0
8, 5766, Note_on_c, 6, 53, 53
8, 5888, Note_on_c, 6, 55, 53
8, 5898, Note_on_c, 6, 53, 0
8, 6006, Note_on_c, 6, 57, 53
8, 6024, Note_on_c, 6, 55, 0
8, 6128, Note_on_c, 6, 58, 55
8, 6146, Note_on_c, 6, 57, 0
8, 6248, Note_on_c, 6, 60, 57
8, 6266, Note_on_c, 6, 58, 0
8, 6366, Note_on_c, 6, 58, 57
8, 6388, Note_on_c, 6, 60, 0
8, 6488, Note_on_c, 6, 60, 57
8, 6500, Note_on_c, 6, 58, 0
8, 6606, Note_on_c, 6, 57, 57
8, 6624, Note_on_c, 6, 60, 0
8, 6716, Note_on_c, 6, 57, 0
8, 6848, Note_on_c, 6, 58, 53
8, 6926, Note_on_c, 6, 58, 0
8, 6968, Note_on_c, 6, 58, 53
8, 7044, Note_on_c, 6, 58, 0
8, 7086, Note_on_c, 6, 58, 53
8, 7164, Note_on_c, 6, 58, 0
8, 7206, Note_on_c, 6, 58, 53
8, 7280, Note_on_c, 6, 58, 0
8, 7328, Note_on_c, 6, 58, 53
8, 7400, Note_on_c, 6, 58, 0
8, 7446, Note_on_c, 6, 58, 53
8, 7520, Note_on_c, 6, 58, 0
8, 7568, Note_on_c, 6, 58, 53
8, 7642, Note_on_c, 6, 58, 0
8, 7806, Note_on_c, 6, 56, 52
8, 7928, Note_on_c, 6, 57, 53
8, 7942, Note_on_c, 6, 56, 0
8, 8016, Note_on_c, 6, 57, 0
8, 8048, Note_on_c, 6, 57, 53
8, 8114, Note_on_c, 6, 57, 0
8, 8168, Note_on_c, 6, 57, 53
8, 8250, Note_on_c, 6, 57, 0
8, 8286, Note_on_c, 6, 57, 53
8, 8366, Note_on_c, 6, 57, 0
8, 8406, Note_on_c, 6, 57, 55
8, 8486, Note_on_c, 6, 57, 0
8, 8526, Note_on_c, 6, 57, 56
8, 8608, Note_on_c, 6, 57, 0
8, 8768, Note_on_c, 6, 62, 57
8, 8848, Note_on_c, 6, 62, 0
8, 8888, Note_on_c, 6, 62, 57
8, 8970, Note_on_c, 6, 62, 0
8, 9006, Note_on_c, 6, 62, 57
8, 9088, Note_on_c, 6, 62, 0
8, 9126, Note_on_c, 6, 62, 56
8, 9202, Note_on_c, 6, 62, 0
8, 9248, Note_on_c, 6, 62, 55
8, 9322, Note_on_c, 6, 62, 0
8, 9366, Note_on_c, 6, 62, 55
8, 9440, Note_on_c, 6, 62, 0
8, 9486, Note_on_c, 6, 62, 55
8, 9560, Note_on_c, 6, 62, 0
8, 9728, Note_on_c, 6, 59, 54
8, 9846, Note_on_c, 6, 60, 54
8, 9860, Note_on_c, 6, 59, 0
8, 9916, Note_on_c, 6, 60, 0
8, 9966, Note_on_c, 6, 60, 56
8, 10034, Note_on_c, 6, 60, 0
8, 10086, Note_on_c, 6, 60, 57
8, 10206, Note_on_c, 6, 58, 56
8, 10218, Note_on_c, 6, 60, 0
8, 10274, Note_on_c, 6, 58, 0
8, 10326, Note_on_c, 6, 58, 54
8, 10398, Note_on_c, 6, 58, 0
8, 10448, Note_on_c, 6, 58, 54
8, 10514, Note_on_c, 6, 58, 0
8, 10566, Note_on_c, 6, 57, 53
8, 10686, Note_on_c, 6, 60, 53
8, 10700, Note_on_c, 6, 57, 0
8, 10766, Note_on_c, 6, 60, 0
8, 10806, Note_on_c, 6, 60, 54
8, 10874, Note_on_c, 6, 60, 0
8, 10928, Note_on_c, 6, 60, 56
8, 10998, Note_on_c, 6, 60, 0
8, 11048, Note_on_c, 6, 65, 57
8, 11166, Note_on_c, 6, 62, 57
8, 11196, Note_on_c, 6, 65, 0
8, 11238, Note_on_c, 6, 62, 0
8, 11288, Note_on_c, 6, 62, 56
8, 11358, Note_on_c, 6, 62, 0
8, 11406, Note_on_c, 6, 62, 55
8, 11474, Note_on_c, 6, 62, 0
8, 13566, Note_on_c, 6, 53, 47
8, 13688, Note_on_c, 6, 65, 48
8, 13704, Note_on_c, 6, 53, 0
8, 13762, Note_on_c, 6, 65, 0
8, 13808, Note_on_c, 6, 65, 48
8, 13878, Note_on_c, 6, 65, 0
8, 13928, Note_on_c, 6, 65, 50
8, 14002, Note_on_c, 6, 65, 0
8, 14048, Note_on_c, 6, 65, 52
8, 14128, Note_on_c, 6, 65, 0
8, 14168, Note_on_c, 6, 65, 54
8, 14244, Note_on_c, 6, 65, 0
8, 14288, Note_on_c, 6, 65, 54
8, 14370, Note_on_c, 6, 65, 0
8, 14528, Note_on_c, 6, 55, 54
8, 14604, Note_on_c, 6, 55, 0
8, 14648, Note_on_c, 6, 55, 54
8, 14726, Note_on_c, 6, 55, 0
8, 14766, Note_on_c, 6, 55, 54
8, 14842, Note_on_c, 6, 55, 0
8, 14886, Note_on_c, 6, 60, 54
8, 14962, Note_on_c, 6, 60, 0
8, 15008, Note_on_c, 6, 60, 53
8, 15086, Note_on_c, 6, 60, 0
8, 15126, Note_on_c, 6, 60, 53
8, 15204, Note_on_c, 6, 60, 0
8, 15248, Note_on_c, 6, 60, 55
8, 15326, Note_on_c, 6, 60, 0
8, 15488, Note_on_c, 6, 60, 55
8, 15564, Note_on_c, 6, 60, 0
8, 15608, Note_on_c, 6, 60, 55
8, 15686, Note_on_c, 6, 60, 0
8, 15728, Note_on_c, 6, 60, 55
8, 15800, Note_on_c, 6, 60, 0
8, 15846, Note_on_c, 6, 57, 54
8, 15918, Note_on_c, 6, 57, 0
8, 15966, Note_on_c, 6, 57, 52
8, 16044, Note_on_c, 6, 57, 0
8, 16088, Note_on_c, 6, 57, 51
8, 16170, Note_on_c, 6, 57, 0
8, 16206, Note_on_c, 6, 57, 50
8, 16286, Note_on_c, 6, 57, 0
8, 16448, Note_on_c, 6, 58, 50
8, 16518, Note_on_c, 6, 58, 0
8, 16568, Note_on_c, 6, 58, 50
8, 16646, Note_on_c, 6, 58, 0
8, 16686, Note_on_c, 6, 58, 50
8, 16770, Note_on_c, 6, 58, 0
8, 16806, Note_on_c, 6, 57, 50
8, 16928, Note_on_c, 6, 60, 54
8, 16944, Note_on_c, 6, 57, 0
8, 17046, Note_on_c, 6, 58, 54
8, 17062, Note_on_c, 6, 60, 0
8, 17168, Note_on_c, 6, 55, 52
8, 17184, Note_on_c, 6, 58, 0
8, 17260, Note_on_c, 6, 55, 0
8, 17286, Note_on_c, 6, 53, 50
8, 17408, Note_on_c, 6, 57, 50
8, 17426, Note_on_c, 6, 53, 0
8, 17526, Note_on_c, 6, 58, 52
8, 17548, Note_on_c, 6, 57, 0
8, 17612, Note_on_c, 6, 58, 0
8, 17648, Note_on_c, 6, 58, 52
8, 17722, Note_on_c, 6, 58, 0
8, 17888, Note_on_c, 6, 60, 52
8, 17964, Note_on_c, 6, 60, 0
8, 18006, Note_on_c, 6, 60, 52
8, 18084, Note_on_c, 6, 60, 0
8, 18126, Note_on_c, 6, 60, 52
8, 18208, Note_on_c, 6, 60, 0
8, 18248, Note_on_c, 6, 60, 52
8, 18350, Note_on_c, 6, 60, 0
8, 19328, Note_on_c, 6, 57, 53
8, 19408, Note_on_c, 6, 57, 0
8, 19448, Note_on_c, 6, 57, 53
8, 19566, Note_on_c, 6, 58, 55
8, 19588, Note_on_c, 6, 57, 0
8, 19688, Note_on_c, 6, 60, 60
8, 19720, Note_on_c, 6, 58, 0
8, 19766, Note_on_c, 6, 60, 0
8, 19806, Note_on_c, 6, 60, 61
8, 19890, Note_on_c, 6, 60, 0
8, 19926, Note_on_c, 6, 58, 61
8, 20012, Note_on_c, 6, 58, 0
8, 20046, Note_on_c, 6, 58, 61
8, 20130, Note_on_c, 6, 58, 0
8, 20166, Note_on_c, 6, 57, 61
8, 20400, Note_on_c, 6, 57, 0
8, 20406, Note_on_c, 6, 54, 61
8, 20648, Note_on_c, 6, 55, 59
8, 20664, Note_on_c, 6, 54, 0
8, 20858, Note_on_c, 6, 55, 0
8, 20888, Note_on_c, 6, 58, 62
8, 21006, Note_on_c, 6, 55, 62
8, 21032, Note_on_c, 6, 58, 0
8, 21108, Note_on_c, 6, 55, 0
8, 21128, Note_on_c, 6, 53, 53
8, 21234, Note_on_c, 6, 53, 0
8, 21246, Note_on_c, 6, 53, 53
8, 21368, Note_on_c, 6, 60, 53
8, 21386, Note_on_c, 6, 53, 0
8, 21452, Note_on_c, 6, 60, 0
8, 21486, Note_on_c, 6, 60, 54
8, 21532, Note_on_c, 6, 60, 0
8, 21606, Note_on_c, 6, 65, 58
8, 21692, Note_on_c, 6, 65, 0
8, 21728, Note_on_c, 6, 65, 58
8, 21808, Note_on_c, 6, 65, 0
8, 21846, Note_on_c, 6, 65, 58
8, 21932, Note_on_c, 6, 65, 0
8, 21966, Note_on_c, 6, 65, 58
8, 22050, Note_on_c, 6, 65, 0
8, 22206, Note_on_c, 6, 62, 52
8, 22290, Note_on_c, 6, 62, 0
8, 22328, Note_on_c, 6, 62, 52
8, 22412, Note_on_c, 6, 62, 0
8, 22446, Note_on_c, 6, 62, 53
8, 22526, Note_on_c, 6, 62, 0
8, 22568, Note_on_c, 6, 60, 50
8, 22648, Note_on_c, 6, 60, 0
8, 22686, Note_on_c, 6, 60, 50
8, 22770, Note_on_c, 6, 60, 0
8, 22806, Note_on_c, 6, 60, 49
8, 22890, Note_on_c, 6, 60, 0
8, 22926, Note_on_c, 6, 60, 48
8, 23014, Note_on_c, 6, 60, 0
8, 23166, Note_on_c, 6, 62, 50
8, 23288, Note_on_c, 6, 67, 51
8, 23308, Note_on_c, 6, 62, 0
8, 23380, Note_on_c, 6, 67, 0
8, 23406, Note_on_c, 6, 67, 51
8, 23488, Note_on_c, 6, 67, 0
8, 23528, Note_on_c, 6, 67, 53
8, 23600, Note_on_c, 6, 67, 0
8, 23646, Note_on_c, 6, 67, 53
8, 23730, Note_on_c, 6, 67, 0
8, 23768, Note_on_c, 6, 67, 54
8, 23846, Note_on_c, 6, 67, 0
8, 23886, Note_on_c, 6, 67, 55
8, 23964, Note_on_c, 6, 67, 0
8, 24008, Note_on_c, 6, 67, 55
8, 24248, Note_on_c, 6, 55, 58
8, 24286, Note_on_c, 6, 67, 0
8, 24486, Note_on_c, 6, 55, 0
8, 25206, Note_on_c, 6, 67, 77
8, 25450, Note_on_c, 6, 67, 0
8, 25686, Note_on_c, 6, 55, 75
8, 25934, Note_on_c, 6, 55, 0
8, 26166, Note_on_c, 6, 48, 74
8, 26412, Note_on_c, 6, 48, 0
8, 26648, Note_on_c, 6, 60, 79
8, 26888, Note_on_c, 6, 60, 0
8, 27126, Note_on_c, 6, 67, 83
8, 27374, Note_on_c, 6, 67, 0
8, 27608, Note_on_c, 6, 55, 78
8, 27852, Note_on_c, 6, 55, 0
8, 28086, Note_on_c, 6, 60, 78
8, 28324, Note_on_c, 6, 60, 0
8, 28566, Note_on_c, 6, 48, 74
8, 28806, Note_on_c, 6, 48, 0
8, 28808, Note_on_c, 6, 65, 82
8, 29050, Note_on_c, 6, 65, 0
8, 29288, Note_on_c, 6, 65, 82
8, 29528, Note_on_c, 6, 65, 0
8, 29768, Note_on_c, 6, 60, 64
8, 30004, Note_on_c, 6, 60, 0
8, 30246, Note_on_c, 6, 60, 64
8, 30492, Note_on_c, 6, 60, 0
8, 30728, Note_on_c, 6, 59, 66
8, 31686, Note_on_c, 6, 60, 71
8, 31706, Note_on_c, 6, 59, 0
8, 31916, Note_on_c, 6, 60, 0
8, 32166, Note_on_c, 6, 53, 65
8, 32400, Note_on_c, 6, 53, 0
8, 32646, Note_on_c, 6, 55, 68
8, 32874, Note_on_c, 6, 55, 0
8, 33126, Note_on_c, 6, 59, 63
8, 33362, Note_on_c, 6, 59, 0
8, 33726, Note_on_c, 6, 55, 58
8, 33848, Note_on_c, 6, 64, 58
8, 33862, Note_on_c, 6, 55, 0
8, 33934, Note_on_c, 6, 64, 0
8, 33966, Note_on_c, 6, 64, 60
8, 34036, Note_on_c, 6, 64, 0
8, 34088, Note_on_c, 6, 64, 60
8, 34206, Note_on_c, 6, 62, 60
8, 34224, Note_on_c, 6, 64, 0
8, 34328, Note_on_c, 6, 61, 59
8, 34338, Note_on_c, 6, 62, 0
8, 34448, Note_on_c, 6, 62, 57
8, 34462, Note_on_c, 6, 61, 0
8, 34542, Note_on_c, 6, 62, 0
8, 34568, Note_on_c, 6, 60, 54
8, 34632, Note_on_c, 6, 60, 0
8, 34686, Note_on_c, 6, 60, 54
8, 34742, Note_on_c, 6, 60, 0
8, 34808, Note_on_c, 6, 60, 55
8, 34864, Note_on_c, 6, 60, 0
8, 34928, Note_on_c, 6, 60, 55
8, 34992, Note_on_c, 6, 60, 0
8, 35046, Note_on_c, 6, 60, 54
8, 35166, Note_on_c, 6, 59, 54
8, 35182, Note_on_c, 6, 60, 0
8, 35288, Note_on_c, 6, 57, 54
8, 35304, Note_on_c, 6, 59, 0
8, 35408, Note_on_c, 6, 55, 54
8, 35428, Note_on_c, 6, 57, 0
8, 35500, Note_on_c, 6, 55, 0
8, 35528, Note_on_c, 6, 55, 54
8, 35646, Note_on_c, 6, 52, 56
8, 35670, Note_on_c, 6, 55, 0
8, 35744, Note_on_c, 6, 52, 0
8, 35766, Note_on_c, 6, 52, 57
8, 35826, Note_on_c, 6, 52, 0
8, 35888, Note_on_c, 6, 52, 59
8, 35946, Note_on_c, 6, 52, 0
8, 36006, Note_on_c, 6, 55, 60
8, 36088, Note_on_c, 6, 55, 0
8, 36128, Note_on_c, 6, 55, 61
8, 36202, Note_on_c, 6, 55, 0
8, 36248, Note_on_c, 6, 55, 61
8, 36330, Note_on_c, 6, 55, 0
8, 36368, Note_on_c, 6, 55, 63
8, 36444, Note_on_c, 6, 55, 0
8, 36486, Note_on_c, 6, 53, 66
8, 36568, Note_on_c, 6, 53, 0
8, 36608, Note_on_c, 6, 53, 67
8, 36684, Note_on_c, 6, 53, 0
8, 36728, Note_on_c, 6, 53, 67
8, 36808, Note_on_c, 6, 53, 0
8, 36848, Note_on_c, 6, 53, 71
8, 36930, Note_on_c, 6, 53, 0
8, 36966, Note_on_c, 6, 57, 73
8, 37042, Note_on_c, 6, 57, 0
8, 37088, Note_on_c, 6, 57, 73
8, 37166, Note_on_c, 6, 57, 0
8, 37206, Note_on_c, 6, 57, 71
8, 37282, Note_on_c, 6, 57, 0
8, 37326, Note_on_c, 6, 57, 72
8, 37404, Note_on_c, 6, 57, 0
8, 37446, Note_on_c, 6, 55, 72
8, 37524, Note_on_c, 6, 55, 0
8, 37568, Note_on_c, 6, 55, 72
8, 37650, Note_on_c, 6, 55, 0
8, 37688, Note_on_c, 6, 55, 74
8, 37764, Note_on_c, 6, 55, 0
8, 37808, Note_on_c, 6, 55, 74
8, 37890, Note_on_c, 6, 55, 0
8, 37928, Note_on_c, 6, 67, 73
8, 38010, Note_on_c, 6, 67, 0
8, 38048, Note_on_c, 6, 67, 69
8, 38130, Note_on_c, 6, 67, 0
8, 38168, Note_on_c, 6, 67, 67
8, 38246, Note_on_c, 6, 67, 0
8, 38288, Note_on_c, 6, 67, 65
8, 38362, Note_on_c, 6, 67, 0
8, 38408, Note_on_c, 6, 67, 62
8, 38482, Note_on_c, 6, 67, 0
8, 38526, Note_on_c, 6, 67, 59
8, 38602, Note_on_c, 6, 67, 0
8, 38646, Note_on_c, 6, 67, 57
8, 38722, Note_on_c, 6, 67, 0
8, 38768, Note_on_c, 6, 67, 55
8, 38848, Note_on_c, 6, 67, 0
8, 38888, Note_on_c, 6, 65, 50
8, 38962, Note_on_c, 6, 65, 0
8, 39008, Note_on_c, 6, 65, 48
8, 39088, Note_on_c, 6, 65, 0
8, 39126, Note_on_c, 6, 65, 45
8, 39206, Note_on_c, 6, 65, 0
8, 39246, Note_on_c, 6, 65, 44
8, 39322, Note_on_c, 6, 65, 0
8, 39368, Note_on_c, 6, 64, 43
8, 39472, Note_on_c, 6, 64, 0
8, 39488, Note_on_c, 6, 64, 81
8, 39606, Note_on_c, 6, 60, 81
8, 39628, Note_on_c, 6, 64, 0
8, 39696, Note_on_c, 6, 60, 0
8, 39726, Note_on_c, 6, 60, 78
8, 39798, Note_on_c, 6, 60, 0
8, 39846, Note_on_c, 6, 60, 77
8, 39928, Note_on_c, 6, 60, 0
8, 39968, Note_on_c, 6, 60, 77
8, 40044, Note_on_c, 6, 60, 0
8, 40088, Note_on_c, 6, 59, 76
8, 40164, Note_on_c, 6, 59, 0
8, 40206, Note_on_c, 6, 59, 75
8, 40280, Note_on_c, 6, 59, 0
8, 40446, Note_on_c, 6, 59, 78
8, 40566, Note_on_c, 6, 60, 80
8, 40584, Note_on_c, 6, 59, 0
8, 40654, Note_on_c, 6, 60, 0
8, 40686, Note_on_c, 6, 60, 81
8, 40754, Note_on_c, 6, 60, 0
8, 40806, Note_on_c, 6, 60, 81
8, 40890, Note_on_c, 6, 60, 0
8, 40928, Note_on_c, 6, 60, 80
8, 41010, Note_on_c, 6, 60, 0
8, 41048, Note_on_c, 6, 60, 78
8, 41124, Note_on_c, 6, 60, 0
8, 41166, Note_on_c, 6, 60, 77
8, 41252, Note_on_c, 6, 60, 0
8, 41406, Note_on_c, 6, 59, 78
8, 41526, Note_on_c, 6, 60, 85
8, 41554, Note_on_c, 6, 59, 0
8, 41616, Note_on_c, 6, 60, 0
8, 41646, Note_on_c, 6, 60, 85
8, 41722, Note_on_c, 6, 60, 0
8, 41766, Note_on_c, 6, 60, 82
8, 41888, Note_on_c, 6, 64, 86
8, 41904, Note_on_c, 6, 60, 0
8, 42006, Note_on_c, 6, 62, 86
8, 42024, Note_on_c, 6, 64, 0
8, 42128, Note_on_c, 6, 65, 86
8, 42138, Note_on_c, 6, 62, 0
8, 42244, Note_on_c, 6, 65, 0
8, 42248, Note_on_c, 6, 60, 91
8, 42678, Note_on_c, 6, 60, 0
8, 44166, Note_on_c, 6, 51, 59
8, 44248, Note_on_c, 6, 51, 0
8, 44286, Note_on_c, 6, 51, 62
8, 44408, Note_on_c, 6, 63, 63
8, 44420, Note_on_c, 6, 51, 0
8, 44486, Note_on_c, 6, 63, 0
8, 44526, Note_on_c, 6, 63, 64
8, 44598, Note_on_c, 6, 63, 0
8, 44646, Note_on_c, 6, 63, 64
8, 44728, Note_on_c, 6, 63, 0
8, 44768, Note_on_c, 6, 63, 61
8, 44850, Note_on_c, 6, 63, 0
8, 44888, Note_on_c, 6, 63, 58
8, 44962, Note_on_c, 6, 63, 0
8, 45006, Note_on_c, 6, 63, 57
8, 45086, Note_on_c, 6, 63, 0
8, 45248, Note_on_c, 6, 62, 57
8, 45330, Note_on_c, 6, 62, 0
8, 45368, Note_on_c, 6, 62, 56
8, 45450, Note_on_c, 6, 62, 0
8, 45488, Note_on_c, 6, 62, 56
8, 45570, Note_on_c, 6, 62, 0
8, 45606, Note_on_c, 6, 62, 56
8, 45726, Note_on_c, 6, 66, 56
8, 45746, Note_on_c, 6, 62, 0
8, 45794, Note_on_c, 6, 66, 0
8, 45848, Note_on_c, 6, 66, 56
8, 45922, Note_on_c, 6, 66, 0
8, 45968, Note_on_c, 6, 66, 55
8, 46048, Note_on_c, 6, 66, 0
8, 46208, Note_on_c, 6, 66, 55
8, 46282, Note_on_c, 6, 66, 0
8, 46326, Note_on_c, 6, 66, 57
8, 46404, Note_on_c, 6, 66, 0
8, 46446, Note_on_c, 6, 66, 58
8, 46522, Note_on_c, 6, 66, 0
8, 46566, Note_on_c, 6, 66, 58
8, 46642, Note_on_c, 6, 66, 0
8, 46688, Note_on_c, 6, 66, 58
8, 46768, Note_on_c, 6, 66, 0
8, 46806, Note_on_c, 6, 66, 57
8, 46888, Note_on_c, 6, 66, 0
8, 46928, Note_on_c, 6, 66, 57
8, 47008, Note_on_c, 6, 66, 0
8, 47168, Note_on_c, 6, 62, 53
8, 47248, Note_on_c, 6, 62, 0
8, 47288, Note_on_c, 6, 62, 53
8, 47364, Note_on_c, 6, 62, 0
8, 47408, Note_on_c, 6, 62, 53
8, 47484, Note_on_c, 6, 62, 0
8, 47526, Note_on_c, 6, 62, 53
8, 47604, Note_on_c, 6, 62, 0
8, 47648, Note_on_c, 6, 62, 53
8, 47722, Note_on_c, 6, 62, 0
8, 47768, Note_on_c, 6, 62, 55
8, 47850, Note_on_c, 6, 62, 0
8, 47888, Note_on_c, 6, 62, 59
8, 47966, Note_on_c, 6, 62, 0
8, 48126, Note_on_c, 6, 60, 59
8, 48246, Note_on_c, 6, 55, 59
8, 48260, Note_on_c, 6, 60, 0
8, 48318, Note_on_c, 6, 55, 0
8, 48366, Note_on_c, 6, 67, 61
8, 48436, Note_on_c, 6, 67, 0
8, 48486, Note_on_c, 6, 64, 61
8, 48562, Note_on_c, 6, 64, 0
8, 48608, Note_on_c, 6, 64, 63
8, 48684, Note_on_c, 6, 64, 0
8, 48728, Note_on_c, 6, 64, 58
8, 48808, Note_on_c, 6, 64, 0
8, 48846, Note_on_c, 6, 64, 58
8, 48926, Note_on_c, 6, 64, 0
8, 49086, Note_on_c, 6, 64, 57
8, 49162, Note_on_c, 6, 64, 0
8, 49206, Note_on_c, 6, 64, 57
8, 49286, Note_on_c, 6, 64, 0
8, 49326, Note_on_c, 6, 64, 58
8, 49408, Note_on_c, 6, 64, 0
8, 49448, Note_on_c, 6, 65, 60
8, 49522, Note_on_c, 6, 65, 0
8, 49566, Note_on_c, 6, 60, 58
8, 49642, Note_on_c, 6, 60, 0
8, 49688, Note_on_c, 6, 60, 58
8, 49768, Note_on_c, 6, 60, 0
8, 49808, Note_on_c, 6, 60, 58
8, 49886, Note_on_c, 6, 60, 0
8, 50046, Note_on_c, 6, 60, 54
8, 50128, Note_on_c, 6, 60, 0
8, 50166, Note_on_c, 6, 60, 54
8, 50246, Note_on_c, 6, 60, 0
8, 50286, Note_on_c, 6, 60, 54
8, 50362, Note_on_c, 6, 60, 0
8, 50406, Note_on_c, 6, 60, 54
8, 50482, Note_on_c, 6, 60, 0
8, 50528, Note_on_c, 6, 60, 53
8, 50606, Note_on_c, 6, 60, 0
8, 50648, Note_on_c, 6, 60, 53
8, 50724, Note_on_c, 6, 60, 0
8, 50768, Note_on_c, 6, 60, 52
8, 50848, Note_on_c, 6, 60, 0
8, 51846, Note_on_c, 6, 53, 55
8, 51920, Note_on_c, 6, 53, 0
8, 51966, Note_on_c, 6, 57, 55
8, 52088, Note_on_c, 6, 65, 57
8, 52106, Note_on_c, 6, 57, 0
8, 52174, Note_on_c, 6, 65, 0
8, 52208, Note_on_c, 6, 65, 58
8, 52284, Note_on_c, 6, 65, 0
8, 52328, Note_on_c, 6, 65, 58
8, 52400, Note_on_c, 6, 65, 0
8, 52446, Note_on_c, 6, 65, 58
8, 52524, Note_on_c, 6, 65, 0
8, 52568, Note_on_c, 6, 65, 58
8, 52644, Note_on_c, 6, 65, 0
8, 52686, Note_on_c, 6, 65, 57
8, 52762, Note_on_c, 6, 65, 0
8, 52926, Note_on_c, 6, 60, 53
8, 53000, Note_on_c, 6, 60, 0
8, 53046, Note_on_c, 6, 60, 52
8, 53124, Note_on_c, 6, 60, 0
8, 53168, Note_on_c, 6, 60, 53
8, 53240, Note_on_c, 6, 60, 0
8, 53288, Note_on_c, 6, 64, 54
8, 53364, Note_on_c, 6, 64, 0
8, 53408, Note_on_c, 6, 64, 56
8, 53488, Note_on_c, 6, 64, 0
8, 53528, Note_on_c, 6, 64, 57
8, 53602, Note_on_c, 6, 64, 0
8, 53646, Note_on_c, 6, 64, 58
8, 53728, Note_on_c, 6, 64, 0
8, 53888, Note_on_c, 6, 64, 58
8, 54006, Note_on_c, 6, 65, 56
8, 54028, Note_on_c, 6, 64, 0
8, 54106, Note_on_c, 6, 65, 0
8, 54126, Note_on_c, 6, 65, 56
8, 54198, Note_on_c, 6, 65, 0
8, 54246, Note_on_c, 6, 65, 56
8, 54318, Note_on_c, 6, 65, 0
8, 54366, Note_on_c, 6, 65, 56
8, 54446, Note_on_c, 6, 65, 0
8, 54488, Note_on_c, 6, 65, 56
8, 54562, Note_on_c, 6, 65, 0
8, 54606, Note_on_c, 6, 65, 56
8, 54684, Note_on_c, 6, 65, 0
8, 54848, Note_on_c, 6, 55, 56
8, 54920, Note_on_c, 6, 55, 0
8, 54968, Note_on_c, 6, 55, 53
8, 55042, Note_on_c, 6, 55, 0
8, 55086, Note_on_c, 6, 55, 52
8, 55158, Note_on_c, 6, 55, 0
8, 55206, Note_on_c, 6, 60, 54
8, 55278, Note_on_c, 6, 60, 0
8, 55328, Note_on_c, 6, 60, 56
8, 55400, Note_on_c, 6, 60, 0
8, 55448, Note_on_c, 6, 60, 56
8, 55524, Note_on_c, 6, 60, 0
8, 55568, Note_on_c, 6, 60, 57
8, 55640, Note_on_c, 6, 60, 0
8, 55808, Note_on_c, 6, 60, 54
8, 55878, Note_on_c, 6, 60, 0
8, 55926, Note_on_c, 6, 60, 54
8, 56004, Note_on_c, 6, 60, 0
8, 56048, Note_on_c, 6, 60, 54
8, 56122, Note_on_c, 6, 60, 0
8, 56166, Note_on_c, 6, 57, 52
8, 56244, Note_on_c, 6, 57, 0
8, 56288, Note_on_c, 6, 57, 48
8, 56360, Note_on_c, 6, 57, 0
8, 56408, Note_on_c, 6, 57, 48
8, 56486, Note_on_c, 6, 57, 0
8, 56526, Note_on_c, 6, 57, 48
8, 56602, Note_on_c, 6, 57, 0
8, 56766, Note_on_c, 6, 58, 48
8, 56838, Note_on_c, 6, 58, 0
8, 56886, Note_on_c, 6, 58, 49
8, 56964, Note_on_c, 6, 58, 0
8, 57006, Note_on_c, 6, 58, 54
8, 57082, Note_on_c, 6, 58, 0
8, 57128, Note_on_c, 6, 57, 56
8, 57246, Note_on_c, 6, 60, 58
8, 57260, Note_on_c, 6, 57, 0
8, 57366, Note_on_c, 6, 58, 58
8, 57380, Note_on_c, 6, 60, 0
8, 57488, Note_on_c, 6, 55, 55
8, 57506, Note_on_c, 6, 58, 0
8, 57598, Note_on_c, 6, 55, 0
8, 57606, Note_on_c, 6, 53, 54
8, 57726, Note_on_c, 6, 55, 54
8, 57738, Note_on_c, 6, 53, 0
8, 57848, Note_on_c, 6, 57, 54
8, 57864, Note_on_c, 6, 55, 0
8, 57966, Note_on_c, 6, 58, 55
8, 57986, Note_on_c, 6, 57, 0
8, 58088, Note_on_c, 6, 60, 56
8, 58104, Note_on_c, 6, 58, 0
8, 58208, Note_on_c, 6, 58, 55
8, 58222, Note_on_c, 6, 60, 0
8, 58326, Note_on_c, 6, 60, 54
8, 58344, Note_on_c, 6, 58, 0
8, 58446, Note_on_c, 6, 57, 56
8, 58460, Note_on_c, 6, 60, 0
8, 58540, Note_on_c, 6, 57, 0
8, 58686, Note_on_c, 6, 58, 55
8, 58766, Note_on_c, 6, 58, 0
8, 58808, Note_on_c, 6, 58, 55
8, 58882, Note_on_c, 6, 58, 0
8, 58928, Note_on_c, 6, 58, 55
8, 59000, Note_on_c, 6, 58, 0
8, 59046, Note_on_c, 6, 58, 55
8, 59120, Note_on_c, 6, 58, 0
8, 59166, Note_on_c, 6, 58, 55
8, 59242, Note_on_c, 6, 58, 0
8, 59288, Note_on_c, 6, 58, 55
8, 59364, Note_on_c, 6, 58, 0
8, 59406, Note_on_c, 6, 58, 55
8, 59486, Note_on_c, 6, 58, 0
8, 59648, Note_on_c, 6, 56, 57
8, 59768, Note_on_c, 6, 57, 56
8, 59792, Note_on_c, 6, 56, 0
8, 59850, Note_on_c, 6, 57, 0
8, 59886, Note_on_c, 6, 57, 55
8, 59958, Note_on_c, 6, 57, 0
8, 60006, Note_on_c, 6, 57, 55
8, 60082, Note_on_c, 6, 57, 0
8, 60126, Note_on_c, 6, 57, 55
8, 60206, Note_on_c, 6, 57, 0
8, 60248, Note_on_c, 6, 57, 55
8, 60322, Note_on_c, 6, 57, 0
8, 60368, Note_on_c, 6, 57, 55
8, 60444, Note_on_c, 6, 57, 0
8, 60606, Note_on_c, 6, 64, 55
8, 60718, Note_on_c, 6, 64, 0
8, 60728, Note_on_c, 6, 64, 56
8, 60838, Note_on_c, 6, 64, 0
8, 60848, Note_on_c, 6, 64, 56
8, 60958, Note_on_c, 6, 64, 0
8, 60966, Note_on_c, 6, 64, 56
8, 61074, Note_on_c, 6, 64, 0
8, 61088, Note_on_c, 6, 64, 57
8, 61200, Note_on_c, 6, 64, 0
8, 61208, Note_on_c, 6, 57, 57
8, 61316, Note_on_c, 6, 57, 0
8, 61328, Note_on_c, 6, 57, 55
8, 61434, Note_on_c, 6, 57, 0
8, 61566, Note_on_c, 6, 57, 57
8, 61688, Note_on_c, 6, 58, 57
8, 61704, Note_on_c, 6, 57, 0
8, 61760, Note_on_c, 6, 58, 0
8, 61806, Note_on_c, 6, 58, 55
8, 61878, Note_on_c, 6, 58, 0
8, 62046, Note_on_c, 6, 60, 55
8, 62130, Note_on_c, 6, 60, 0
8, 62166, Note_on_c, 6, 60, 53
8, 62242, Note_on_c, 6, 60, 0
8, 62288, Note_on_c, 6, 60, 53
8, 62366, Note_on_c, 6, 60, 0
8, 62406, Note_on_c, 6, 60, 53
8, 62545, Note_on_c, 6, 60, 0
8, 63488, Note_on_c, 6, 57, 52
8, 63560, Note_on_c, 6, 57, 0
8, 63606, Note_on_c, 6, 57, 56
8, 63726, Note_on_c, 6, 58, 56
8, 63742, Note_on_c, 6, 57, 0
8, 63804, Note_on_c, 6, 58, 0
8, 63848, Note_on_c, 6, 60, 59
8, 63922, Note_on_c, 6, 60, 0
8, 63966, Note_on_c, 6, 60, 59
8, 64046, Note_on_c, 6, 60, 0
8, 64088, Note_on_c, 6, 58, 59
8, 64162, Note_on_c, 6, 58, 0
8, 64208, Note_on_c, 6, 58, 58
8, 64280, Note_on_c, 6, 58, 0
8, 64326, Note_on_c, 6, 57, 56
8, 64560, Note_on_c, 6, 57, 0
8, 65046, Note_on_c, 6, 58, 68
8, 65166, Note_on_c, 6, 55, 66
8, 65188, Note_on_c, 6, 58, 0
8, 65260, Note_on_c, 6, 55, 0
8, 65406, Note_on_c, 6, 53, 54
8, 65526, Note_on_c, 6, 60, 58
8, 65552, Note_on_c, 6, 53, 0
8, 65602, Note_on_c, 6, 60, 0
8, 65646, Note_on_c, 6, 60, 58
8, 65724, Note_on_c, 6, 60, 0
8, 65768, Note_on_c, 6, 65, 61
8, 65850, Note_on_c, 6, 65, 0
8, 65888, Note_on_c, 6, 65, 62
8, 65968, Note_on_c, 6, 65, 0
8, 66006, Note_on_c, 6, 65, 62
8, 66086, Note_on_c, 6, 65, 0
8, 66128, Note_on_c, 6, 65, 62
8, 66204, Note_on_c, 6, 65, 0
8, 66368, Note_on_c, 6, 62, 61
8, 66446, Note_on_c, 6, 62, 0
8, 66486, Note_on_c, 6, 62, 58
8, 66568, Note_on_c, 6, 62, 0
8, 66606, Note_on_c, 6, 62, 57
8, 66680, Note_on_c, 6, 62, 0
8, 66728, Note_on_c, 6, 64, 58
8, 66810, Note_on_c, 6, 64, 0
8, 66846, Note_on_c, 6, 64, 64
8, 66928, Note_on_c, 6, 64, 0
8, 66968, Note_on_c, 6, 69, 68
8, 67046, Note_on_c, 6, 69, 0
8, 67088, Note_on_c, 6, 69, 71
8, 67164, Note_on_c, 6, 69, 0
8, 67208, Note_on_c, 6, 69, 73
8, 67276, Note_on_c, 6, 69, 0
8, 67328, Note_on_c, 6, 57, 74
8, 67406, Note_on_c, 6, 57, 0
8, 67448, Note_on_c, 6, 57, 66
8, 67518, Note_on_c, 6, 57, 0
8, 67566, Note_on_c, 6, 57, 51
8, 67638, Note_on_c, 6, 57, 0
8, 67686, Note_on_c, 6, 62, 51
8, 67762, Note_on_c, 6, 62, 0
8, 67808, Note_on_c, 6, 62, 53
8, 67886, Note_on_c, 6, 62, 0
8, 67926, Note_on_c, 6, 62, 53
8, 68008, Note_on_c, 6, 62, 0
8, 68046, Note_on_c, 6, 62, 56
8, 68120, Note_on_c, 6, 62, 0
8, 68286, Note_on_c, 6, 59, 56
8, 68360, Note_on_c, 6, 59, 0
8, 68408, Note_on_c, 6, 59, 55
8, 68486, Note_on_c, 6, 59, 0
8, 68528, Note_on_c, 6, 59, 54
8, 68602, Note_on_c, 6, 59, 0
8, 68646, Note_on_c, 6, 60, 52
8, 68724, Note_on_c, 6, 60, 0
8, 68766, Note_on_c, 6, 60, 50
8, 68838, Note_on_c, 6, 60, 0
8, 68888, Note_on_c, 6, 65, 62
8, 68968, Note_on_c, 6, 65, 0
8, 69008, Note_on_c, 6, 65, 67
8, 69080, Note_on_c, 6, 65, 0
8, 69128, Note_on_c, 6, 65, 74
8, 69232, Note_on_c, 6, 65, 0
8, 69246, Note_on_c, 6, 53, 78
8, 69326, Note_on_c, 6, 53, 0
8, 69366, Note_on_c, 6, 53, 48
8, 69444, Note_on_c, 6, 53, 0
8, 69488, Note_on_c, 6, 53, 48
8, 69568, Note_on_c, 6, 53, 0
8, 69606, Note_on_c, 6, 58, 51
8, 69684, Note_on_c, 6, 58, 0
8, 69728, Note_on_c, 6, 58, 52
8, 69802, Note_on_c, 6, 58, 0
8, 69848, Note_on_c, 6, 58, 52
8, 69928, Note_on_c, 6, 58, 0
8, 69966, Note_on_c, 6, 58, 52
8, 70042, Note_on_c, 6, 58, 0
8, 70208, Note_on_c, 6, 55, 52
8, 70280, Note_on_c, 6, 55, 0
8, 70326, Note_on_c, 6, 55, 51
8, 70398, Note_on_c, 6, 55, 0
8, 70448, Note_on_c, 6, 55, 50
8, 70522, Note_on_c, 6, 55, 0
8, 70568, Note_on_c, 6, 53, 49
8, 70642, Note_on_c, 6, 53, 0
8, 70686, Note_on_c, 6, 53, 49
8, 70764, Note_on_c, 6, 53, 0
8, 70806, Note_on_c, 6, 53, 47
8, 70878, Note_on_c, 6, 53, 0
8, 70928, Note_on_c, 6, 53, 47
8, 71006, Note_on_c, 6, 53, 0
8, 71166, Note_on_c, 6, 55, 54
8, 71288, Note_on_c, 6, 60, 54
8, 71304, Note_on_c, 6, 55, 0
8, 71358, Note_on_c, 6, 60, 0
8, 71408, Note_on_c, 6, 60, 54
8, 71472, Note_on_c, 6, 60, 0
8, 71526, Note_on_c, 6, 60, 54
8, 71604, Note_on_c, 6, 60, 0
8, 71646, Note_on_c, 6, 60, 54
8, 71724, Note_on_c, 6, 60, 0
8, 71766, Note_on_c, 6, 60, 54
8, 71846, Note_on_c, 6, 60, 0
8, 71886, Note_on_c, 6, 60, 54
8, 71968, Note_on_c, 6, 60, 0
8, 72008, Note_on_c, 6, 60, 61
8, 72218, Note_on_c, 6, 60, 0
8, 72248, Note_on_c, 6, 48, 61
8, 72464, Note_on_c, 6, 48, 0
8, 73206, Note_on_c, 6, 60, 71
8, 73414, Note_on_c, 6, 60, 0
8, 73688, Note_on_c, 6, 48, 68
8, 73902, Note_on_c, 6, 48, 0
8, 74168, Note_on_c, 6, 53, 71
8, 74378, Note_on_c, 6, 53, 0
8, 74648, Note_on_c, 6, 65, 70
8, 74864, Note_on_c, 6, 65, 0
8, 75126, Note_on_c, 6, 60, 66
8, 75342, Note_on_c, 6, 60, 0
8, 75606, Note_on_c, 6, 48, 66
8, 75822, Note_on_c, 6, 48, 0
8, 76086, Note_on_c, 6, 65, 78
8, 76294, Note_on_c, 6, 65, 0
8, 76566, Note_on_c, 6, 53, 70
8, 76776, Note_on_c, 6, 53, 0
8, 76808, Note_on_c, 6, 70, 74
8, 77022, Note_on_c, 6, 70, 0
8, 77286, Note_on_c, 6, 70, 69
8, 77496, Note_on_c, 6, 70, 0
8, 77768, Note_on_c, 6, 65, 66
8, 77984, Note_on_c, 6, 65, 0
8, 78248, Note_on_c, 6, 65, 64
8, 78460, Note_on_c, 6, 65, 0
8, 78728, Note_on_c, 6, 64, 69
8, 79686, Note_on_c, 6, 65, 72
8, 79706, Note_on_c, 6, 64, 0
8, 79894, Note_on_c, 6, 65, 0
8, 80168, Note_on_c, 6, 53, 68
8, 80376, Note_on_c, 6, 53, 0
8, 80648, Note_on_c, 6, 64, 78
8, 81608, Note_on_c, 6, 65, 86
8, 81628, Note_on_c, 6, 64, 0
8, 81816, Note_on_c, 6, 65, 0
8, 82086, Note_on_c, 6, 58, 63
8, 82302, Note_on_c, 6, 58, 0
8, 82566, Note_on_c, 6, 57, 61
8, 82774, Note_on_c, 6, 57, 0
8, 83048, Note_on_c, 6, 55, 62
8, 83258, Note_on_c, 6, 55, 0
8, 83648, Note_on_c, 6, 60, 49
8, 83766, Note_on_c, 6, 69, 53
8, 83780, Note_on_c, 6, 60, 0
8, 83836, Note_on_c, 6, 69, 0
8, 83886, Note_on_c, 6, 69, 54
8, 83950, Note_on_c, 6, 69, 0
8, 84006, Note_on_c, 6, 69, 55
8, 84126, Note_on_c, 6, 67, 55
8, 84144, Note_on_c, 6, 69, 0
8, 84246, Note_on_c, 6, 66, 55
8, 84260, Note_on_c, 6, 67, 0
8, 84366, Note_on_c, 6, 67, 55
8, 84386, Note_on_c, 6, 66, 0
8, 84456, Note_on_c, 6, 67, 0
8, 84486, Note_on_c, 6, 65, 53
8, 84554, Note_on_c, 6, 65, 0
8, 84606, Note_on_c, 6, 57, 52
8, 84678, Note_on_c, 6, 57, 0
8, 84728, Note_on_c, 6, 57, 50
8, 84796, Note_on_c, 6, 57, 0
8, 84846, Note_on_c, 6, 57, 50
8, 84920, Note_on_c, 6, 57, 0
8, 84968, Note_on_c, 6, 57, 50
8, 85088, Note_on_c, 6, 55, 50
8, 85108, Note_on_c, 6, 57, 0
8, 85208, Note_on_c, 6, 53, 49
8, 85228, Note_on_c, 6, 55, 0
8, 85326, Note_on_c, 6, 52, 49
8, 85344, Note_on_c, 6, 53, 0
8, 85412, Note_on_c, 6, 52, 0
8, 85448, Note_on_c, 6, 53, 49
8, 85522, Note_on_c, 6, 53, 0
8, 85566, Note_on_c, 6, 53, 52
8, 85646, Note_on_c, 6, 53, 0
8, 85686, Note_on_c, 6, 53, 53
8, 85766, Note_on_c, 6, 53, 0
8, 85806, Note_on_c, 6, 53, 52
8, 85884, Note_on_c, 6, 53, 0
8, 85926, Note_on_c, 6, 60, 51
8, 86002, Note_on_c, 6, 60, 0
8, 86048, Note_on_c, 6, 60, 53
8, 86122, Note_on_c, 6, 60, 0
8, 86166, Note_on_c, 6, 60, 53
8, 86244, Note_on_c, 6, 60, 0
8, 86286, Note_on_c, 6, 60, 56
8, 86362, Note_on_c, 6, 60, 0
8, 86408, Note_on_c, 6, 58, 56
8, 86488, Note_on_c, 6, 58, 0
8, 86528, Note_on_c, 6, 58, 60
8, 86610, Note_on_c, 6, 58, 0
8, 86648, Note_on_c, 6, 58, 61
8, 86726, Note_on_c, 6, 58, 0
8, 86768, Note_on_c, 6, 58, 63
8, 86842, Note_on_c, 6, 58, 0
8, 86888, Note_on_c, 6, 62, 63
8, 86970, Note_on_c, 6, 62, 0
8, 87008, Note_on_c, 6, 62, 63
8, 87084, Note_on_c, 6, 62, 0
8, 87126, Note_on_c, 6, 62, 62
8, 87200, Note_on_c, 6, 62, 0
8, 87246, Note_on_c, 6, 62, 60
8, 87322, Note_on_c, 6, 62, 0
8, 87486, Note_on_c, 6, 60, 59
8, 87564, Note_on_c, 6, 60, 0
8, 87608, Note_on_c, 6, 60, 60
8, 87686, Note_on_c, 6, 60, 0
8, 87728, Note_on_c, 6, 60, 60
8, 87804, Note_on_c, 6, 60, 0
8, 87846, Note_on_c, 6, 60, 61
8, 87922, Note_on_c, 6, 60, 0
8, 87966, Note_on_c, 6, 60, 64
8, 88044, Note_on_c, 6, 60, 0
8, 88086, Note_on_c, 6, 60, 64
8, 88162, Note_on_c, 6, 60, 0
8, 88206, Note_on_c, 6, 60, 64
8, 88286, Note_on_c, 6, 60, 0
8, 88448, Note_on_c, 6, 60, 64
8, 88528, Note_on_c, 6, 60, 0
8, 88568, Note_on_c, 6, 57, 67
8, 88646, Note_on_c, 6, 57, 0
8, 88686, Note_on_c, 6, 57, 68
8, 88764, Note_on_c, 6, 57, 0
8, 88808, Note_on_c, 6, 57, 66
8, 88886, Note_on_c, 6, 57, 0
8, 88928, Note_on_c, 6, 57, 66
8, 89010, Note_on_c, 6, 57, 0
8, 89048, Note_on_c, 6, 57, 66
8, 89128, Note_on_c, 6, 57, 0
8, 89166, Note_on_c, 6, 57, 66
8, 89240, Note_on_c, 6, 57, 0
8, 89286, Note_on_c, 6, 58, 66
8, 89412, Note_on_c, 6, 58, 0
8, 90366, Note_on_c, 6, 60, 45
8, 90440, Note_on_c, 6, 60, 0
8, 90486, Note_on_c, 6, 60, 45
8, 90566, Note_on_c, 6, 60, 0
8, 90608, Note_on_c, 6, 60, 45
8, 90684, Note_on_c, 6, 60, 0
8, 90728, Note_on_c, 6, 60, 49
8, 90806, Note_on_c, 6, 60, 0
8, 90846, Note_on_c, 6, 60, 49
8, 90920, Note_on_c, 6, 60, 0
8, 90966, Note_on_c, 6, 60, 49
8, 91048, Note_on_c, 6, 60, 0
8, 91088, Note_on_c, 6, 60, 49
8, 91164, Note_on_c, 6, 60, 0
8, 91206, Note_on_c, 6, 60, 58
8, 91284, Note_on_c, 6, 60, 0
8, 91326, Note_on_c, 6, 60, 65
8, 91402, Note_on_c, 6, 60, 0
8, 91448, Note_on_c, 6, 60, 71
8, 91530, Note_on_c, 6, 60, 0
8, 91566, Note_on_c, 6, 60, 76
8, 91644, Note_on_c, 6, 60, 0
8, 91686, Note_on_c, 6, 58, 84
8, 91766, Note_on_c, 6, 58, 0
8, 91806, Note_on_c, 6, 58, 86
8, 91880, Note_on_c, 6, 58, 0
8, 91926, Note_on_c, 6, 58, 93
8, 92002, Note_on_c, 6, 58, 0
8, 92046, Note_on_c, 6, 58, 102
8, 92120, Note_on_c, 6, 58, 0
8, 92168, Note_on_c, 6, 57, 105
8, 92638, Note_on_c, 6, 57, 0
8, 92648, Note_on_c, 6, 58, 107
8, 93112, Note_on_c, 6, 58, 0
8, 93128, Note_on_c, 6, 57, 102
8, 93584, Note_on_c, 6, 57, 0
8, 93608, Note_on_c, 6, 50, 94
8, 94072, Note_on_c, 6, 50, 0
8, 94086, Note_on_c, 6, 48, 94
8, 94570, Note_on_c, 6, 48, 0
8, 96246, Note_on_c, 6, 60, 106
8, 96728, Note_on_c, 6, 64, 114
8, 96742, Note_on_c, 6, 60, 0
8, 96918, Note_on_c, 6, 64, 0
8, 96968, Note_on_c, 6, 65, 110
8, 97178, Note_on_c, 6, 65, 0
8, 97206, Note_on_c, 6, 48, 101
8, 97686, Note_on_c, 6, 52, 104
8, 97702, Note_on_c, 6, 48, 0
8, 97882, Note_on_c, 6, 52, 0
8, 97882, End_track
9, 0, Start_track
9, 0, Title_t, "Celli"
9, 0, Control_c, 7, 0, 0
9, 0, Control_c, 7, 7, 80
9, 0, Control_c, 7, 10, 85
9, 0, Control_c, 7, 91, 58
9, 0, Control_c, 7, 93, 58
9, 1, Control_c, 7, 32, 1
9, 2, Program_c, 7, 48
9, 1924, Note_on_c, 7, 53, 49
9, 2172, Note_on_c, 7, 53, 0
9, 2404, Note_on_c, 7, 53, 47
9, 2646, Note_on_c, 7, 53, 0
9, 2886, Note_on_c, 7, 55, 50
9, 3126, Note_on_c, 7, 55, 0
9, 3364, Note_on_c, 7, 48, 49
9, 3606, Note_on_c, 7, 48, 0
9, 3846, Note_on_c, 7, 53, 49
9, 4092, Note_on_c, 7, 53, 0
9, 4324, Note_on_c, 7, 45, 48
9, 4572, Note_on_c, 7, 45, 0
9, 4806, Note_on_c, 7, 46, 48
9, 5050, Note_on_c, 7, 46, 0
9, 5284, Note_on_c, 7, 48, 50
9, 5532, Note_on_c, 7, 48, 0
9, 5766, Note_on_c, 7, 53, 52
9, 6978, Note_on_c, 7, 53, 0
9, 7204, Note_on_c, 7, 41, 46
9, 7450, Note_on_c, 7, 41, 0
9, 7686, Note_on_c, 7, 53, 52
9, 7926, Note_on_c, 7, 53, 0
9, 8164, Note_on_c, 7, 41, 54
9, 8402, Note_on_c, 7, 41, 0
9, 8644, Note_on_c, 7, 50, 52
9, 8886, Note_on_c, 7, 50, 0
9, 9126, Note_on_c, 7, 50, 52
9, 9364, Note_on_c, 7, 50, 0
9, 9604, Note_on_c, 7, 48, 52
9, 9842, Note_on_c, 7, 48, 0
9, 10086, Note_on_c, 7, 48, 51
9, 10326, Note_on_c, 7, 48, 0
9, 10566, Note_on_c, 7, 48, 51
9, 10810, Note_on_c, 7, 48, 0
9, 11046, Note_on_c, 7, 48, 54
9, 11288, Note_on_c, 7, 48, 0
9, 11524, Note_on_c, 7, 60, 54
9, 12004, Note_on_c, 7, 61, 54
9, 12022, Note_on_c, 7, 60, 0
9, 12486, Note_on_c, 7, 62, 57
9, 12500, Note_on_c, 7, 61, 0
9, 12966, Note_on_c, 7, 52, 58
9, 12986, Note_on_c, 7, 62, 0
9, 13432, Note_on_c, 7, 52, 0
9, 13444, Note_on_c, 7, 53, 60
9, 13688, Note_on_c, 7, 53, 0
9, 13924, Note_on_c, 7, 53, 60
9, 14166, Note_on_c, 7, 53, 0
9, 14404, Note_on_c, 7, 55, 65
9, 14648, Note_on_c, 7, 55, 0
9, 14886, Note_on_c, 7, 48, 58
9, 15128, Note_on_c, 7, 48, 0
9, 15364, Note_on_c, 7, 53, 63
9, 15608, Note_on_c, 7, 53, 0
9, 15846, Note_on_c, 7, 45, 58
9, 16094, Note_on_c, 7, 45, 0
9, 16326, Note_on_c, 7, 46, 61
9, 16566, Note_on_c, 7, 46, 0
9, 16804, Note_on_c, 7, 48, 62
9, 17044, Note_on_c, 7, 49, 66
9, 17062, Note_on_c, 7, 48, 0
9, 17252, Note_on_c, 7, 49, 0
9, 17284, Note_on_c, 7, 50, 66
9, 17526, Note_on_c, 7, 50, 0
9, 17766, Note_on_c, 7, 52, 66
9, 18014, Note_on_c, 7, 52, 0
9, 18244, Note_on_c, 7, 53, 68
9, 18376, Note_on_c, 7, 53, 0
9, 19206, Note_on_c, 7, 45, 66
9, 19566, Note_on_c, 7, 46, 67
9, 19586, Note_on_c, 7, 45, 0
9, 19672, Note_on_c, 7, 46, 0
9, 19686, Note_on_c, 7, 48, 70
9, 19896, Note_on_c, 7, 48, 0
9, 19924, Note_on_c, 7, 48, 72
9, 20134, Note_on_c, 7, 48, 0
9, 20164, Note_on_c, 7, 53, 75
9, 20386, Note_on_c, 7, 53, 0
9, 20404, Note_on_c, 7, 54, 81
9, 20646, Note_on_c, 7, 55, 83
9, 20654, Note_on_c, 7, 54, 0
9, 20886, Note_on_c, 7, 52, 81
9, 20904, Note_on_c, 7, 55, 0
9, 21112, Note_on_c, 7, 52, 0
9, 21126, Note_on_c, 7, 53, 61
9, 21370, Note_on_c, 7, 53, 0
9, 21604, Note_on_c, 7, 53, 62
9, 21846, Note_on_c, 7, 53, 0
9, 22084, Note_on_c, 7, 53, 61
9, 22328, Note_on_c, 7, 53, 0
9, 22564, Note_on_c, 7, 52, 60
9, 22812, Note_on_c, 7, 52, 0
9, 23044, Note_on_c, 7, 47, 61
9, 23284, Note_on_c, 7, 47, 0
9, 23524, Note_on_c, 7, 47, 62
9, 23760, Note_on_c, 7, 47, 0
9, 23766, Note_on_c, 7, 48, 63
9, 23996, Note_on_c, 7, 48, 0
9, 24004, Note_on_c, 7, 43, 59
9, 24478, Note_on_c, 7, 43, 0
9, 24964, Note_on_c, 7, 55, 64
9, 25210, Note_on_c, 7, 55, 0
9, 25446, Note_on_c, 7, 43, 58
9, 25692, Note_on_c, 7, 43, 0
9, 25924, Note_on_c, 7, 48, 62
9, 26164, Note_on_c, 7, 48, 0
9, 26406, Note_on_c, 7, 60, 61
9, 26650, Note_on_c, 7, 60, 0
9, 26886, Note_on_c, 7, 55, 57
9, 27124, Note_on_c, 7, 55, 0
9, 27366, Note_on_c, 7, 43, 57
9, 27608, Note_on_c, 7, 43, 0
9, 27846, Note_on_c, 7, 48, 58
9, 28092, Note_on_c, 7, 48, 0
9, 28324, Note_on_c, 7, 60, 65
9, 28562, Note_on_c, 7, 60, 0
9, 28804, Note_on_c, 7, 53, 63
9, 29046, Note_on_c, 7, 53, 0
9, 29286, Note_on_c, 7, 53, 61
9, 29528, Note_on_c, 7, 53, 0
9, 29764, Note_on_c, 7, 48, 57
9, 30006, Note_on_c, 7, 48, 0
9, 30246, Note_on_c, 7, 48, 57
9, 30490, Note_on_c, 7, 48, 0
9, 30724, Note_on_c, 7, 55, 61
9, 30962, Note_on_c, 7, 55, 0
9, 31206, Note_on_c, 7, 43, 58
9, 31444, Note_on_c, 7, 43, 0
9, 31684, Note_on_c, 7, 48, 64
9, 31930, Note_on_c, 7, 48, 0
9, 32164, Note_on_c, 7, 53, 64
9, 32404, Note_on_c, 7, 53, 0
9, 32644, Note_on_c, 7, 55, 60
9, 32886, Note_on_c, 7, 55, 0
9, 33124, Note_on_c, 7, 53, 55
9, 33362, Note_on_c, 7, 53, 0
9, 33606, Note_on_c, 7, 52, 65
9, 33848, Note_on_c, 7, 52, 0
9, 34086, Note_on_c, 7, 53, 66
9, 34330, Note_on_c, 7, 53, 0
9, 34566, Note_on_c, 7, 55, 60
9, 34804, Note_on_c, 7, 55, 0
9, 35044, Note_on_c, 7, 53, 60
9, 35288, Note_on_c, 7, 53, 0
9, 35526, Note_on_c, 7, 52, 56
9, 35766, Note_on_c, 7, 52, 0
9, 36006, Note_on_c, 7, 52, 59
9, 36244, Note_on_c, 7, 52, 0
9, 36484, Note_on_c, 7, 53, 63
9, 36724, Note_on_c, 7, 53, 0
9, 36964, Note_on_c, 7, 54, 63
9, 37204, Note_on_c, 7, 54, 0
9, 37446, Note_on_c, 7, 55, 64
9, 37686, Note_on_c, 7, 55, 0
9, 37926, Note_on_c, 7, 55, 63
9, 38168, Note_on_c, 7, 55, 0
9, 38406, Note_on_c, 7, 43, 58
9, 38646, Note_on_c, 7, 43, 0
9, 38886, Note_on_c, 7, 43, 53
9, 39130, Note_on_c, 7, 43, 0
9, 39364, Note_on_c, 7, 48, 53
9, 39602, Note_on_c, 7, 48, 0
9, 39844, Note_on_c, 7, 55, 72
9, 40088, Note_on_c, 7, 55, 0
9, 40326, Note_on_c, 7, 57, 79
9, 40572, Note_on_c, 7, 57, 0
9, 40804, Note_on_c, 7, 53, 77
9, 41048, Note_on_c, 7, 53, 0
9, 41284, Note_on_c, 7, 55, 75
9, 41530, Note_on_c, 7, 55, 0
9, 41764, Note_on_c, 7, 43, 68
9, 42006, Note_on_c, 7, 43, 0
9, 42244, Note_on_c, 7, 48, 72
9, 42678, Note_on_c, 7, 48, 0
9, 42724, Note_on_c, 7, 56, 54
9, 43206, Note_on_c, 7, 57, 55
9, 43218, Note_on_c, 7, 56, 0
9, 43684, Note_on_c, 7, 58, 58
9, 43706, Note_on_c, 7, 57, 0
9, 44128, Note_on_c, 7, 58, 0
9, 44164, Note_on_c, 7, 51, 54
9, 44410, Note_on_c, 7, 51, 0
9, 44646, Note_on_c, 7, 51, 55
9, 44892, Note_on_c, 7, 51, 0
9, 45126, Note_on_c, 7, 50, 54
9, 45364, Note_on_c, 7, 50, 0
9, 45604, Note_on_c, 7, 50, 54
9, 45848, Note_on_c, 7, 50, 0
9, 46086, Note_on_c, 7, 50, 55
9, 46326, Note_on_c, 7, 50, 0
9, 46566, Note_on_c, 7, 50, 54
9, 46808, Note_on_c, 7, 50, 0
9, 47046, Note_on_c, 7, 43, 51
9, 47288, Note_on_c, 7, 43, 0
9, 47524, Note_on_c, 7, 55, 56
9, 47760, Note_on_c, 7, 55, 0
9, 48004, Note_on_c, 7, 48, 55
9, 48246, Note_on_c, 7, 48, 0
9, 48484, Note_on_c, 7, 48, 55
9, 48726, Note_on_c, 7, 48, 0
9, 48966, Note_on_c, 7, 48, 55
9, 49208, Note_on_c, 7, 48, 0
9, 49444, Note_on_c, 7, 48, 56
9, 49682, Note_on_c, 7, 48, 0
9, 49924, Note_on_c, 7, 48, 56
9, 50400, Note_on_c, 7, 48, 0
9, 50886, Note_on_c, 7, 60, 54
9, 51124, Note_on_c, 7, 61, 55
9, 51142, Note_on_c, 7, 60, 0
9, 51366, Note_on_c, 7, 62, 55
9, 51378, Note_on_c, 7, 61, 0
9, 51604, Note_on_c, 7, 52, 52
9, 51628, Note_on_c, 7, 62, 0
9, 51828, Note_on_c, 7, 52, 0
9, 51846, Note_on_c, 7, 53, 52
9, 52084, Note_on_c, 7, 53, 0
9, 52326, Note_on_c, 7, 53, 56
9, 52568, Note_on_c, 7, 53, 0
9, 52804, Note_on_c, 7, 55, 57
9, 53046, Note_on_c, 7, 55, 0
9, 53286, Note_on_c, 7, 48, 57
9, 53522, Note_on_c, 7, 48, 0
9, 53764, Note_on_c, 7, 53, 57
9, 54006, Note_on_c, 7, 53, 0
9, 54244, Note_on_c, 7, 53, 56
9, 54486, Note_on_c, 7, 53, 0
9, 54724, Note_on_c, 7, 55, 56
9, 54966, Note_on_c, 7, 55, 0
9, 55204, Note_on_c, 7, 48, 56
9, 55442, Note_on_c, 7, 48, 0
9, 55686, Note_on_c, 7, 53, 59
9, 55924, Note_on_c, 7, 53, 0
9, 56164, Note_on_c, 7, 45, 58
9, 56398, Note_on_c, 7, 45, 0
9, 56644, Note_on_c, 7, 46, 57
9, 56878, Note_on_c, 7, 46, 0
9, 57126, Note_on_c, 7, 48, 57
9, 57366, Note_on_c, 7, 48, 0
9, 57606, Note_on_c, 7, 53, 61
9, 58800, Note_on_c, 7, 53, 0
9, 59044, Note_on_c, 7, 53, 62
9, 59278, Note_on_c, 7, 53, 0
9, 59524, Note_on_c, 7, 53, 60
9, 59762, Note_on_c, 7, 53, 0
9, 60006, Note_on_c, 7, 53, 60
9, 60248, Note_on_c, 7, 53, 0
9, 60486, Note_on_c, 7, 48, 57
9, 60724, Note_on_c, 7, 48, 0
9, 60964, Note_on_c, 7, 48, 57
9, 61206, Note_on_c, 7, 49, 57
9, 61220, Note_on_c, 7, 48, 0
9, 61410, Note_on_c, 7, 49, 0
9, 61444, Note_on_c, 7, 50, 59
9, 61686, Note_on_c, 7, 50, 0
9, 61924, Note_on_c, 7, 52, 62
9, 62164, Note_on_c, 7, 52, 0
9, 62404, Note_on_c, 7, 53, 62
9, 62539, Note_on_c, 7, 53, 0
9, 63364, Note_on_c, 7, 45, 52
9, 63726, Note_on_c, 7, 46, 56
9, 63746, Note_on_c, 7, 45, 0
9, 63832, Note_on_c, 7, 46, 0
9, 63846, Note_on_c, 7, 48, 58
9, 64056, Note_on_c, 7, 48, 0
9, 64086, Note_on_c, 7, 48, 60
9, 64294, Note_on_c, 7, 48, 0
9, 64324, Note_on_c, 7, 53, 61
9, 64550, Note_on_c, 7, 53, 0
9, 64566, Note_on_c, 7, 54, 79
9, 64806, Note_on_c, 7, 55, 83
9, 64826, Note_on_c, 7, 54, 0
9, 65044, Note_on_c, 7, 52, 83
9, 65062, Note_on_c, 7, 55, 0
9, 65242, Note_on_c, 7, 52, 0
9, 65284, Note_on_c, 7, 53, 62
9, 65518, Note_on_c, 7, 53, 0
9, 65764, Note_on_c, 7, 53, 62
9, 66002, Note_on_c, 7, 53, 0
9, 66246, Note_on_c, 7, 53, 61
9, 66482, Note_on_c, 7, 53, 0
9, 66724, Note_on_c, 7, 52, 61
9, 66964, Note_on_c, 7, 52, 0
9, 67206, Note_on_c, 7, 50, 78
9, 67446, Note_on_c, 7, 50, 0
9, 67684, Note_on_c, 7, 50, 56
9, 67926, Note_on_c, 7, 50, 0
9, 68166, Note_on_c, 7, 50, 56
9, 68408, Note_on_c, 7, 50, 0
9, 68646, Note_on_c, 7, 48, 56
9, 68886, Note_on_c, 7, 48, 0
9, 69126, Note_on_c, 7, 46, 56
9, 69360, Note_on_c, 7, 46, 0
9, 69604, Note_on_c, 7, 46, 56
9, 69840, Note_on_c, 7, 46, 0
9, 70084, Note_on_c, 7, 46, 55
9, 70324, Note_on_c, 7, 46, 0
9, 70564, Note_on_c, 7, 45, 55
9, 70800, Note_on_c, 7, 45, 0
9, 71046, Note_on_c, 7, 52, 59
9, 71286, Note_on_c, 7, 52, 0
9, 71524, Note_on_c, 7, 52, 60
9, 71736, Note_on_c, 7, 52, 0
9, 71764, Note_on_c, 7, 53, 62
9, 71980, Note_on_c, 7, 53, 0
9, 72006, Note_on_c, 7, 48, 59
9, 72480, Note_on_c, 7, 48, 0
9, 72966, Note_on_c, 7, 60, 67
9, 73202, Note_on_c, 7, 60, 0
9, 73446, Note_on_c, 7, 48, 62
9, 73686, Note_on_c, 7, 48, 0
9, 73926, Note_on_c, 7, 41, 58
9, 74160, Note_on_c, 7, 41, 0
9, 74404, Note_on_c, 7, 53, 62
9, 74644, Note_on_c, 7, 53, 0
9, 74886, Note_on_c, 7, 60, 65
9, 75122, Note_on_c, 7, 60, 0
9, 75364, Note_on_c, 7, 48, 65
9, 75602, Note_on_c, 7, 48, 0
9, 75846, Note_on_c, 7, 41, 65
9, 76088, Note_on_c, 7, 41, 0
9, 76324, Note_on_c, 7, 53, 68
9, 76558, Note_on_c, 7, 53, 0
9, 76804, Note_on_c, 7, 58, 68
9, 77046, Note_on_c, 7, 58, 0
9, 77286, Note_on_c, 7, 58, 65
9, 77526, Note_on_c, 7, 58, 0
9, 77764, Note_on_c, 7, 53, 62
9, 78000, Note_on_c, 7, 53, 0
9, 78246, Note_on_c, 7, 53, 59
9, 78482, Note_on_c, 7, 53, 0
9, 78724, Note_on_c, 7, 48, 59
9, 78960, Note_on_c, 7, 48, 0
9, 79204, Note_on_c, 7, 48, 64
9, 79444, Note_on_c, 7, 48, 0
9, 79686, Note_on_c, 7, 53, 65
9, 79926, Note_on_c, 7, 53, 0
9, 80166, Note_on_c, 7, 41, 64
9, 80406, Note_on_c, 7, 41, 0
9, 80646, Note_on_c, 7, 48, 64
9, 80886, Note_on_c, 7, 48, 0
9, 81124, Note_on_c, 7, 48, 64
9, 81364, Note_on_c, 7, 48, 0
9, 81604, Note_on_c, 7, 53, 64
9, 81771, Note_on_c, 7, 53, 0
9, 82084, Note_on_c, 7, 46, 57
9, 82251, Note_on_c, 7, 46, 0
9, 82564, Note_on_c, 7, 48, 55
9, 82723, Note_on_c, 7, 48, 0
9, 83044, Note_on_c, 7, 46, 55
9, 83207, Note_on_c, 7, 46, 0
9, 83524, Note_on_c, 7, 45, 54
9, 83762, Note_on_c, 7, 45, 0
9, 84004, Note_on_c, 7, 46, 56
9, 84240, Note_on_c, 7, 46, 0
9, 84486, Note_on_c, 7, 48, 60
9, 84724, Note_on_c, 7, 48, 0
9, 84966, Note_on_c, 7, 46, 60
9, 85202, Note_on_c, 7, 46, 0
9, 85444, Note_on_c, 7, 45, 57
9, 85686, Note_on_c, 7, 45, 0
9, 85924, Note_on_c, 7, 45, 54
9, 86168, Note_on_c, 7, 45, 0
9, 86404, Note_on_c, 7, 46, 54
9, 86642, Note_on_c, 7, 46, 0
9, 86886, Note_on_c, 7, 47, 58
9, 87122, Note_on_c, 7, 47, 0
9, 87364, Note_on_c, 7, 48, 59
9, 87604, Note_on_c, 7, 48, 0
9, 87846, Note_on_c, 7, 46, 59
9, 88080, Note_on_c, 7, 46, 0
9, 88324, Note_on_c, 7, 45, 59
9, 88564, Note_on_c, 7, 45, 0
9, 88804, Note_on_c, 7, 57, 60
9, 89044, Note_on_c, 7, 57, 0
9, 89284, Note_on_c, 7, 58, 65
9, 89416, Note_on_c, 7, 58, 0
9, 90246, Note_on_c, 7, 60, 68
9, 90482, Note_on_c, 7, 60, 0
9, 90726, Note_on_c, 7, 60, 68
9, 90962, Note_on_c, 7, 60, 0
9, 91206, Note_on_c, 7, 48, 60
9, 91440, Note_on_c, 7, 48, 0
9, 91686, Note_on_c, 7, 48, 69
9, 91922, Note_on_c, 7, 48, 0
9, 92166, Note_on_c, 7, 53, 73
9, 92634, Note_on_c, 7, 53, 0
9, 92644, Note_on_c, 7, 46, 72
9, 93116, Note_on_c, 7, 46, 0
9, 93126, Note_on_c, 7, 45, 68
9, 93600, Note_on_c, 7, 45, 0
9, 93604, Note_on_c, 7, 50, 75
9, 94082, Note_on_c, 7, 50, 0
9, 94086, Note_on_c, 7, 48, 74
9, 94506, Note_on_c, 7, 48, 0
9, 96028, Note_on_c, 7, 53, 83
9, 96486, Note_on_c, 7, 60, 87
9, 96504, Note_on_c, 7, 53, 0
9, 96966, Note_on_c, 7, 53, 87
9, 96968, Note_on_c, 7, 60, 0
9, 97436, Note_on_c, 7, 53, 0
9, 97444, Note_on_c, 7, 48, 79
9, 97918, Note_on_c, 7, 48, 0
9, 97924, Note_on_c, 7, 53, 77
9, 98362, Note_on_c, 7, 53, 0
9, 98406, Note_on_c, 7, 61, 81
9, 98886, Note_on_c, 7, 62, 83
9, 98906, Note_on_c, 7, 61, 0
9, 99364, Note_on_c, 7, 52, 79
9, 99386, Note_on_c, 7, 62, 0
9, 99832, Note_on_c, 7, 52, 0
9, 99844, Note_on_c, 7, 53, 77
9, 100074, Note_on_c, 7, 53, 0
9, 100324, Note_on_c, 7, 41, 74
9, 100560, Note_on_c, 7, 41, 0
9, 100806, Note_on_c, 7, 41, 74
9, 101048, Note_on_c, 7, 41, 0
9, 101048, End_track
10, 0, Start_track
10, 0, Title_t, "Contrabass"
10, 0, Control_c, 8, 0, 0
10, 0, Control_c, 8, 7, 80
10, 0, Control_c, 8, 10, 75
10, 0, Control_c, 8, 91, 85
10, 0, Control_c, 8, 93, 70
10, 1, Control_c, 8, 32, 1
10, 2, Program_c, 8, 48
10, 1924, Note_on_c, 8, 53, 49
10, 2172, Note_on_c, 8, 53, 0
10, 2404, Note_on_c, 8, 53, 47
10, 2646, Note_on_c, 8, 53, 0
10, 2886, Note_on_c, 8, 55, 50
10, 3130, Note_on_c, 8, 55, 0
10, 3364, Note_on_c, 8, 48, 49
10, 3606, Note_on_c, 8, 48, 0
10, 3846, Note_on_c, 8, 53, 49
10, 4090, Note_on_c, 8, 53, 0
10, 4326, Note_on_c, 8, 45, 48
10, 4570, Note_on_c, 8, 45, 0
10, 4806, Note_on_c, 8, 46, 48
10, 5052, Note_on_c, 8, 46, 0
10, 5284, Note_on_c, 8, 48, 50
10, 5524, Note_on_c, 8, 48, 0
10, 5764, Note_on_c, 8, 53, 52
10, 6974, Note_on_c, 8, 53, 0
10, 7204, Note_on_c, 8, 41, 46
10, 7442, Note_on_c, 8, 41, 0
10, 7686, Note_on_c, 8, 53, 52
10, 7924, Note_on_c, 8, 53, 0
10, 8164, Note_on_c, 8, 41, 54
10, 8404, Note_on_c, 8, 41, 0
10, 8646, Note_on_c, 8, 50, 52
10, 8884, Note_on_c, 8, 50, 0
10, 9124, Note_on_c, 8, 50, 52
10, 9362, Note_on_c, 8, 50, 0
10, 9606, Note_on_c, 8, 48, 52
10, 9844, Note_on_c, 8, 48, 0
10, 10084, Note_on_c, 8, 48, 51
10, 10322, Note_on_c, 8, 48, 0
10, 10564, Note_on_c, 8, 48, 51
10, 10802, Note_on_c, 8, 48, 0
10, 11046, Note_on_c, 8, 48, 54
10, 11292, Note_on_c, 8, 48, 0
10, 11524, Note_on_c, 8, 60, 54
10, 12006, Note_on_c, 8, 61, 54
10, 12020, Note_on_c, 8, 60, 0
10, 12486, Note_on_c, 8, 62, 57
10, 12502, Note_on_c, 8, 61, 0
10, 12964, Note_on_c, 8, 52, 58
10, 12988, Note_on_c, 8, 62, 0
10, 13424, Note_on_c, 8, 52, 0
10, 13444, Note_on_c, 8, 53, 60
10, 13688, Note_on_c, 8, 53, 0
10, 13926, Note_on_c, 8, 53, 60
10, 14166, Note_on_c, 8, 53, 0
10, 14404, Note_on_c, 8, 55, 65
10, 14644, Note_on_c, 8, 55, 0
10, 14886, Note_on_c, 8, 48, 58
10, 15126, Note_on_c, 8, 48, 0
10, 15364, Note_on_c, 8, 53, 63
10, 15604, Note_on_c, 8, 53, 0
10, 15846, Note_on_c, 8, 45, 58
10, 16086, Note_on_c, 8, 45, 0
10, 16326, Note_on_c, 8, 46, 61
10, 16572, Note_on_c, 8, 46, 0
10, 16806, Note_on_c, 8, 48, 62
10, 17046, Note_on_c, 8, 49, 66
10, 17064, Note_on_c, 8, 48, 0
10, 17252, Note_on_c, 8, 49, 0
10, 17284, Note_on_c, 8, 50, 66
10, 17530, Note_on_c, 8, 50, 0
10, 17766, Note_on_c, 8, 52, 66
10, 18006, Note_on_c, 8, 52, 0
10, 18246, Note_on_c, 8, 53, 68
10, 18376, Note_on_c, 8, 53, 0
10, 19206, Note_on_c, 8, 45, 66
10, 19566, Note_on_c, 8, 46, 67
10, 19586, Note_on_c, 8, 45, 0
10, 19670, Note_on_c, 8, 46, 0
10, 19684, Note_on_c, 8, 48, 70
10, 19898, Note_on_c, 8, 48, 0
10, 19924, Note_on_c, 8, 48, 72
10, 20138, Note_on_c, 8, 48, 0
10, 20164, Note_on_c, 8, 53, 75
10, 20384, Note_on_c, 8, 53, 0
10, 20406, Note_on_c, 8, 54, 81
10, 20646, Note_on_c, 8, 55, 83
10, 20658, Note_on_c, 8, 54, 0
10, 20884, Note_on_c, 8, 52, 81
10, 20900, Note_on_c, 8, 55, 0
10, 21104, Note_on_c, 8, 52, 0
10, 21126, Note_on_c, 8, 53, 61
10, 21368, Note_on_c, 8, 53, 0
10, 21604, Note_on_c, 8, 53, 62
10, 21850, Note_on_c, 8, 53, 0
10, 22086, Note_on_c, 8, 53, 61
10, 22330, Note_on_c, 8, 53, 0
10, 22566, Note_on_c, 8, 52, 60
10, 22814, Note_on_c, 8, 52, 0
10, 23046, Note_on_c, 8, 47, 61
10, 23288, Note_on_c, 8, 47, 0
10, 23526, Note_on_c, 8, 47, 62
10, 23760, Note_on_c, 8, 47, 0
10, 23764, Note_on_c, 8, 48, 63
10, 23998, Note_on_c, 8, 48, 0
10, 24006, Note_on_c, 8, 43, 59
10, 24488, Note_on_c, 8, 43, 0
10, 24964, Note_on_c, 8, 55, 64
10, 25210, Note_on_c, 8, 55, 0
10, 25446, Note_on_c, 8, 43, 58
10, 25684, Note_on_c, 8, 43, 0
10, 25924, Note_on_c, 8, 48, 62
10, 26166, Note_on_c, 8, 48, 0
10, 26406, Note_on_c, 8, 60, 61
10, 26646, Note_on_c, 8, 60, 0
10, 26884, Note_on_c, 8, 55, 57
10, 27126, Note_on_c, 8, 55, 0
10, 27366, Note_on_c, 8, 43, 57
10, 27612, Note_on_c, 8, 43, 0
10, 27846, Note_on_c, 8, 48, 58
10, 28092, Note_on_c, 8, 48, 0
10, 28326, Note_on_c, 8, 60, 65
10, 28566, Note_on_c, 8, 60, 0
10, 28804, Note_on_c, 8, 53, 63
10, 29046, Note_on_c, 8, 53, 0
10, 29284, Note_on_c, 8, 53, 61
10, 29528, Note_on_c, 8, 53, 0
10, 29764, Note_on_c, 8, 48, 57
10, 30008, Note_on_c, 8, 48, 0
10, 30246, Note_on_c, 8, 48, 57
10, 30486, Note_on_c, 8, 48, 0
10, 30726, Note_on_c, 8, 55, 61
10, 30970, Note_on_c, 8, 55, 0
10, 31204, Note_on_c, 8, 43, 58
10, 31448, Note_on_c, 8, 43, 0
10, 31684, Note_on_c, 8, 48, 64
10, 31926, Note_on_c, 8, 48, 0
10, 32166, Note_on_c, 8, 53, 59
10, 32410, Note_on_c, 8, 53, 0
10, 32644, Note_on_c, 8, 55, 61
10, 32882, Note_on_c, 8, 55, 0
10, 33126, Note_on_c, 8, 53, 52
10, 33362, Note_on_c, 8, 53, 0
10, 33606, Note_on_c, 8, 52, 65
10, 33848, Note_on_c, 8, 52, 0
10, 34086, Note_on_c, 8, 53, 66
10, 34326, Note_on_c, 8, 53, 0
10, 34566, Note_on_c, 8, 55, 60
10, 34810, Note_on_c, 8, 55, 0
10, 35044, Note_on_c, 8, 53, 60
10, 35282, Note_on_c, 8, 53, 0
10, 35524, Note_on_c, 8, 52, 56
10, 35764, Note_on_c, 8, 52, 0
10, 36004, Note_on_c, 8, 52, 59
10, 36248, Note_on_c, 8, 52, 0
10, 36484, Note_on_c, 8, 53, 63
10, 36726, Note_on_c, 8, 53, 0
10, 36966, Note_on_c, 8, 54, 63
10, 37202, Note_on_c, 8, 54, 0
10, 37444, Note_on_c, 8, 55, 63
10, 37680, Note_on_c, 8, 55, 0
10, 37926, Note_on_c, 8, 55, 63
10, 38170, Note_on_c, 8, 55, 0
10, 38404, Note_on_c, 8, 43, 59
10, 38648, Note_on_c, 8, 43, 0
10, 38884, Note_on_c, 8, 43, 54
10, 39128, Note_on_c, 8, 43, 0
10, 39366, Note_on_c, 8, 48, 48
10, 39608, Note_on_c, 8, 48, 0
10, 39846, Note_on_c, 8, 55, 72
10, 40088, Note_on_c, 8, 55, 0
10, 40324, Note_on_c, 8, 57, 79
10, 40566, Note_on_c, 8, 57, 0
10, 40806, Note_on_c, 8, 53, 77
10, 41044, Note_on_c, 8, 53, 0
10, 41284, Note_on_c, 8, 55, 75
10, 41528, Note_on_c, 8, 55, 0
10, 41766, Note_on_c, 8, 43, 68
10, 42006, Note_on_c, 8, 43, 0
10, 42246, Note_on_c, 8, 48, 72
10, 42677, Note_on_c, 8, 48, 0
10, 42726, Note_on_c, 8, 56, 54
10, 43206, Note_on_c, 8, 57, 55
10, 43224, Note_on_c, 8, 56, 0
10, 43684, Note_on_c, 8, 58, 58
10, 43708, Note_on_c, 8, 57, 0
10, 44128, Note_on_c, 8, 58, 0
10, 44164, Note_on_c, 8, 51, 54
10, 44410, Note_on_c, 8, 51, 0
10, 44644, Note_on_c, 8, 51, 55
10, 44882, Note_on_c, 8, 51, 0
10, 45126, Note_on_c, 8, 50, 54
10, 45368, Note_on_c, 8, 50, 0
10, 45606, Note_on_c, 8, 50, 54
10, 45846, Note_on_c, 8, 50, 0
10, 46086, Note_on_c, 8, 50, 55
10, 46324, Note_on_c, 8, 50, 0
10, 46566, Note_on_c, 8, 50, 54
10, 46810, Note_on_c, 8, 50, 0
10, 47046, Note_on_c, 8, 43, 51
10, 47282, Note_on_c, 8, 43, 0
10, 47524, Note_on_c, 8, 55, 56
10, 47768, Note_on_c, 8, 55, 0
10, 48004, Note_on_c, 8, 48, 55
10, 48240, Note_on_c, 8, 48, 0
10, 48484, Note_on_c, 8, 48, 55
10, 48722, Note_on_c, 8, 48, 0
10, 48964, Note_on_c, 8, 48, 55
10, 49204, Note_on_c, 8, 48, 0
10, 49444, Note_on_c, 8, 48, 56
10, 49684, Note_on_c, 8, 48, 0
10, 49926, Note_on_c, 8, 48, 56
10, 50408, Note_on_c, 8, 48, 0
10, 50884, Note_on_c, 8, 60, 54
10, 51126, Note_on_c, 8, 61, 55
10, 51136, Note_on_c, 8, 60, 0
10, 51366, Note_on_c, 8, 62, 55
10, 51380, Note_on_c, 8, 61, 0
10, 51606, Note_on_c, 8, 52, 52
10, 51620, Note_on_c, 8, 62, 0
10, 51828, Note_on_c, 8, 52, 0
10, 51846, Note_on_c, 8, 53, 52
10, 52086, Note_on_c, 8, 53, 0
10, 52324, Note_on_c, 8, 53, 56
10, 52564, Note_on_c, 8, 53, 0
10, 52806, Note_on_c, 8, 55, 57
10, 53044, Note_on_c, 8, 55, 0
10, 53284, Note_on_c, 8, 48, 57
10, 53522, Note_on_c, 8, 48, 0
10, 53766, Note_on_c, 8, 53, 57
10, 54000, Note_on_c, 8, 53, 0
10, 54246, Note_on_c, 8, 53, 56
10, 54486, Note_on_c, 8, 53, 0
10, 54726, Note_on_c, 8, 55, 56
10, 54960, Note_on_c, 8, 55, 0
10, 55206, Note_on_c, 8, 48, 56
10, 55446, Note_on_c, 8, 48, 0
10, 55684, Note_on_c, 8, 53, 59
10, 55920, Note_on_c, 8, 53, 0
10, 56166, Note_on_c, 8, 45, 58
10, 56400, Note_on_c, 8, 45, 0
10, 56644, Note_on_c, 8, 46, 57
10, 56878, Note_on_c, 8, 46, 0
10, 57126, Note_on_c, 8, 48, 57
10, 57364, Note_on_c, 8, 48, 0
10, 57606, Note_on_c, 8, 53, 61
10, 58802, Note_on_c, 8, 53, 0
10, 59046, Note_on_c, 8, 53, 62
10, 59286, Note_on_c, 8, 53, 0
10, 59526, Note_on_c, 8, 53, 60
10, 59762, Note_on_c, 8, 53, 0
10, 60006, Note_on_c, 8, 53, 60
10, 60244, Note_on_c, 8, 53, 0
10, 60484, Note_on_c, 8, 48, 57
10, 60722, Note_on_c, 8, 48, 0
10, 60964, Note_on_c, 8, 48, 57
10, 61204, Note_on_c, 8, 49, 57
10, 61222, Note_on_c, 8, 48, 0
10, 61406, Note_on_c, 8, 49, 0
10, 61446, Note_on_c, 8, 50, 59
10, 61684, Note_on_c, 8, 50, 0
10, 61924, Note_on_c, 8, 52, 62
10, 62160, Note_on_c, 8, 52, 0
10, 62404, Note_on_c, 8, 53, 62
10, 62539, Note_on_c, 8, 53, 0
10, 63364, Note_on_c, 8, 45, 52
10, 63724, Note_on_c, 8, 46, 56
10, 63742, Note_on_c, 8, 45, 0
10, 63832, Note_on_c, 8, 46, 0
10, 63844, Note_on_c, 8, 48, 58
10, 64060, Note_on_c, 8, 48, 0
10, 64084, Note_on_c, 8, 48, 60
10, 64296, Note_on_c, 8, 48, 0
10, 64326, Note_on_c, 8, 53, 61
10, 64552, Note_on_c, 8, 53, 0
10, 64564, Note_on_c, 8, 54, 79
10, 64804, Note_on_c, 8, 55, 83
10, 64820, Note_on_c, 8, 54, 0
10, 65044, Note_on_c, 8, 52, 83
10, 65064, Note_on_c, 8, 55, 0
10, 65242, Note_on_c, 8, 52, 0
10, 65286, Note_on_c, 8, 53, 62
10, 65526, Note_on_c, 8, 53, 0
10, 65764, Note_on_c, 8, 53, 62
10, 66006, Note_on_c, 8, 53, 0
10, 66244, Note_on_c, 8, 53, 61
10, 66482, Note_on_c, 8, 53, 0
10, 66726, Note_on_c, 8, 52, 61
10, 66968, Note_on_c, 8, 52, 0
10, 67206, Note_on_c, 8, 50, 78
10, 67442, Note_on_c, 8, 50, 0
10, 67686, Note_on_c, 8, 50, 56
10, 67926, Note_on_c, 8, 50, 0
10, 68166, Note_on_c, 8, 50, 56
10, 68404, Note_on_c, 8, 50, 0
10, 68646, Note_on_c, 8, 48, 56
10, 68888, Note_on_c, 8, 48, 0
10, 69126, Note_on_c, 8, 46, 56
10, 69360, Note_on_c, 8, 46, 0
10, 69606, Note_on_c, 8, 46, 56
10, 69848, Note_on_c, 8, 46, 0
10, 70084, Note_on_c, 8, 46, 55
10, 70326, Note_on_c, 8, 46, 0
10, 70564, Note_on_c, 8, 45, 55
10, 70798, Note_on_c, 8, 45, 0
10, 71044, Note_on_c, 8, 52, 59
10, 71282, Note_on_c, 8, 52, 0
10, 71526, Note_on_c, 8, 52, 60
10, 71738, Note_on_c, 8, 52, 0
10, 71764, Note_on_c, 8, 53, 62
10, 71978, Note_on_c, 8, 53, 0
10, 72004, Note_on_c, 8, 48, 59
10, 72470, Note_on_c, 8, 48, 0
10, 72966, Note_on_c, 8, 60, 67
10, 73202, Note_on_c, 8, 60, 0
10, 73444, Note_on_c, 8, 48, 62
10, 73678, Note_on_c, 8, 48, 0
10, 73926, Note_on_c, 8, 41, 58
10, 74166, Note_on_c, 8, 41, 0
10, 74404, Note_on_c, 8, 53, 62
10, 74638, Note_on_c, 8, 53, 0
10, 74884, Note_on_c, 8, 60, 65
10, 75126, Note_on_c, 8, 60, 0
10, 75366, Note_on_c, 8, 48, 65
10, 75602, Note_on_c, 8, 48, 0
10, 75844, Note_on_c, 8, 41, 65
10, 76086, Note_on_c, 8, 41, 0
10, 76324, Note_on_c, 8, 53, 68
10, 76564, Note_on_c, 8, 53, 0
10, 76804, Note_on_c, 8, 58, 68
10, 77042, Note_on_c, 8, 58, 0
10, 77284, Note_on_c, 8, 58, 65
10, 77526, Note_on_c, 8, 58, 0
10, 77764, Note_on_c, 8, 53, 62
10, 78006, Note_on_c, 8, 53, 0
10, 78246, Note_on_c, 8, 53, 59
10, 78480, Note_on_c, 8, 53, 0
10, 78726, Note_on_c, 8, 48, 59
10, 78968, Note_on_c, 8, 48, 0
10, 79204, Note_on_c, 8, 48, 68
10, 79438, Note_on_c, 8, 48, 0
10, 79684, Note_on_c, 8, 53, 73
10, 79920, Note_on_c, 8, 53, 0
10, 80166, Note_on_c, 8, 41, 73
10, 80402, Note_on_c, 8, 41, 0
10, 80644, Note_on_c, 8, 48, 73
10, 80888, Note_on_c, 8, 48, 0
10, 81126, Note_on_c, 8, 48, 74
10, 81366, Note_on_c, 8, 48, 0
10, 81604, Note_on_c, 8, 53, 64
10, 81782, Note_on_c, 8, 53, 0
10, 82084, Note_on_c, 8, 46, 50
10, 82263, Note_on_c, 8, 46, 0
10, 82566, Note_on_c, 8, 48, 53
10, 82745, Note_on_c, 8, 48, 0
10, 83044, Note_on_c, 8, 46, 48
10, 83224, Note_on_c, 8, 46, 0
10, 83526, Note_on_c, 8, 45, 48
10, 83704, Note_on_c, 8, 45, 0
10, 84006, Note_on_c, 8, 46, 55
10, 84246, Note_on_c, 8, 46, 0
10, 84486, Note_on_c, 8, 48, 53
10, 84724, Note_on_c, 8, 48, 0
10, 84964, Note_on_c, 8, 46, 52
10, 85206, Note_on_c, 8, 46, 0
10, 85446, Note_on_c, 8, 45, 57
10, 85690, Note_on_c, 8, 45, 0
10, 85924, Note_on_c, 8, 45, 57
10, 86166, Note_on_c, 8, 45, 0
10, 86404, Note_on_c, 8, 46, 61
10, 86642, Note_on_c, 8, 46, 0
10, 86884, Note_on_c, 8, 47, 60
10, 87128, Note_on_c, 8, 47, 0
10, 87364, Note_on_c, 8, 48, 63
10, 87604, Note_on_c, 8, 48, 0
10, 87844, Note_on_c, 8, 46, 63
10, 88078, Note_on_c, 8, 46, 0
10, 88324, Note_on_c, 8, 45, 63
10, 88562, Note_on_c, 8, 45, 0
10, 88806, Note_on_c, 8, 57, 60
10, 89048, Note_on_c, 8, 57, 0
10, 89286, Note_on_c, 8, 58, 65
10, 89419, Note_on_c, 8, 58, 0
10, 90246, Note_on_c, 8, 60, 49
10, 90488, Note_on_c, 8, 60, 0
10, 90724, Note_on_c, 8, 60, 51
10, 90962, Note_on_c, 8, 60, 0
10, 91206, Note_on_c, 8, 48, 54
10, 91444, Note_on_c, 8, 48, 0
10, 91686, Note_on_c, 8, 48, 66
10, 91922, Note_on_c, 8, 48, 0
10, 92164, Note_on_c, 8, 53, 74
10, 92636, Note_on_c, 8, 53, 0
10, 92646, Note_on_c, 8, 46, 72
10, 93116, Note_on_c, 8, 46, 0
10, 93124, Note_on_c, 8, 45, 68
10, 93596, Note_on_c, 8, 45, 0
10, 93606, Note_on_c, 8, 50, 75
10, 94076, Note_on_c, 8, 50, 0
10, 94084, Note_on_c, 8, 48, 74
10, 94506, Note_on_c, 8, 48, 0
10, 96026, Note_on_c, 8, 53, 83
10, 96484, Note_on_c, 8, 60, 87
10, 96504, Note_on_c, 8, 53, 0
10, 96960, Note_on_c, 8, 60, 0
10, 96964, Note_on_c, 8, 53, 87
10, 97438, Note_on_c, 8, 53, 0
10, 97444, Note_on_c, 8, 48, 79
10, 97926, Note_on_c, 8, 48, 0
10, 97926, Note_on_c, 8, 53, 77
10, 98366, Note_on_c, 8, 53, 0
10, 98406, Note_on_c, 8, 61, 81
10, 98884, Note_on_c, 8, 62, 83
10, 98904, Note_on_c, 8, 61, 0
10, 99364, Note_on_c, 8, 52, 79
10, 99384, Note_on_c, 8, 62, 0
10, 99838, Note_on_c, 8, 52, 0
10, 99844, Note_on_c, 8, 53, 77
10, 100078, Note_on_c, 8, 53, 0
10, 100324, Note_on_c, 8, 41, 74
10, 100562, Note_on_c, 8, 41, 0
10, 100804, Note_on_c, 8, 41, 74
10, 101046, Note_on_c, 8, 41, 0
10, 101046, End_track
11, 0, Start_track
11, 0, Title_t, "Mozart Concerto K.191 (1774)"
11, 0, Control_c, 0, 91, 0
11, 0, Control_c, 0, 93, 0
11, 0, End_track
12, 0, Start_track
12, 0, Title_t, "  for Bassoon & Orch."
12, 0, Control_c, 0, 91, 0
12, 0, Control_c, 0, 93, 0
12, 0, End_track
13, 0, Start_track
13, 0, Title_t, "  Sequenced by Randy and Yuko  Reid"
13, 0, Control_c, 0, 91, 0
13, 0, Control_c, 0, 93, 0
13, 0, End_track
14, 0, Start_track
14, 0, Title_t, "  troppo@msn.com"
14, 0, Control_c, 0, 91, 0
14, 0, Control_c, 0, 93, 0
14, 0, End_track
15, 0, Start_track
15, 0, Title_t, "Console Automation Data"
15, 0, Control_c, 0, 93, 64
15, 0, Control_c, 0, 92, 0
15, 0, Control_c, 0, 96, 64
15, 0, Control_c, 0, 95, 127
15, 0, Control_c, 1, 93, 64
15, 0, Control_c, 1, 92, 0
15, 0, Control_c, 1, 96, 64
15, 0, Control_c, 1, 95, 127
15, 0, Control_c, 1, 40, 103
15, 0, Control_c, 0, 40, 103
15, 0, End_track
0, 0, End_of_file