0, 0, Header, 0, 1, 120
1, 0, Start_track
1, 0, Tempo, 500000
1, 0, Control_c, 3, 10, 64
1, 0, Copyright_t, "MIDI file built by MUS2MIDI \270 Reinier Bakels 1996"
1, 0, Title_t, "KV622A00"
1, 0, Control_c, 3, 91, 127
1, 0, Time_signature, 4, 2, 24, 8
1, 0, Control_c, 3, 7, 127
1, 0, Control_c, 9, 7, 127
1, 0, Control_c, 4, 10, 0
1, 0, Title_t, "KV622A01"
1, 0, Control_c, 4, 91, 127
1, 0, Control_c, 4, 7, 127
1, 0, Title_t, "KV622A02"
1, 0, Control_c, 5, 10, 42
1, 0, Title_t, "KV622A03"
1, 0, Control_c, 5, 91, 127
1, 0, Control_c, 5, 7, 127
1, 0, Title_t, "KV622A04"
1, 0, Control_c, 6, 10, 85
1, 0, Title_t, "KV622A05"
1, 0, Control_c, 6, 91, 127
1, 0, Control_c, 6, 7, 127
1, 0, Title_t, "KV622A06"
1, 0, Control_c, 7, 10, 127
1, 0, Title_t, "KV622A07"
1, 0, Control_c, 7, 91, 127
1, 0, Control_c, 7, 7, 127
1, 0, Title_t, "KV622A08"
1, 0, Title_t, "KV622A09"
1, 0, Title_t, "KV622A10"
1, 0, Title_t, "KV622A11"
1, 127, Key_signature, 3, "major"
1, 127, Control_c, 3, 0, 0
1, 127, Instrument_name_t, "Clarinet"
1, 127, Program_c, 3, 71
1, 127, Control_c, 4, 0, 0
1, 127, Instrument_name_t, "Flute"
1, 127, Program_c, 4, 73
1, 127, Control_c, 5, 0, 0
1, 127, Instrument_name_t, "Bassoon"
1, 127, Program_c, 5, 70
1, 127, Control_c, 6, 0, 1
1, 127, Instrument_name_t, "French Horn"
1, 127, Program_c, 6, 60
1, 127, Control_c, 7, 0, 0
1, 127, Instrument_name_t, "String Ensemble 1"
1, 127, Program_c, 7, 48
1, 127, Note_on_c, 7, 76, 100
1, 127, Note_on_c, 7, 73, 100
1, 127, Note_on_c, 7, 57, 100
1, 127, Note_on_c, 7, 45, 100
1, 187, Note_on_c, 7, 45, 0
1, 187, Note_on_c, 7, 45, 100
1, 247, Note_on_c, 7, 45, 0
1, 247, Note_on_c, 7, 45, 100
1, 307, Note_on_c, 7, 45, 0
1, 307, Note_on_c, 7, 45, 100
1, 367, Note_on_c, 7, 76, 0
1, 367, Note_on_c, 7, 69, 100
1, 367, Note_on_c, 7, 45, 0
1, 367, Note_on_c, 7, 45, 100
1, 427, Note_on_c, 7, 45, 0
1, 427, Note_on_c, 7, 45, 100
1, 487, Note_on_c, 7, 45, 0
1, 487, Note_on_c, 7, 45, 100
1, 547, Note_on_c, 7, 73, 0
1, 547, Note_on_c, 7, 74, 100
1, 547, Note_on_c, 7, 69, 0
1, 547, Note_on_c, 7, 71, 100
1, 547, Note_on_c, 7, 45, 0
1, 547, Note_on_c, 7, 45, 100
1, 607, Note_on_c, 7, 74, 0
1, 607, Note_on_c, 7, 78, 100
1, 607, Note_on_c, 7, 71, 0
1, 607, Note_on_c, 7, 74, 100
1, 607, Note_on_c, 7, 45, 0
1, 607, Note_on_c, 7, 45, 100
1, 667, Note_on_c, 7, 78, 0
1, 667, Note_on_c, 7, 76, 100
1, 667, Note_on_c, 7, 74, 0
1, 667, Note_on_c, 7, 73, 100
1, 667, Note_on_c, 7, 45, 0
1, 667, Note_on_c, 7, 45, 100
1, 727, Note_on_c, 7, 76, 0
1, 727, Note_on_c, 7, 74, 100
1, 727, Note_on_c, 7, 73, 0
1, 727, Note_on_c, 7, 71, 100
1, 727, Note_on_c, 7, 45, 0
1, 727, Note_on_c, 7, 45, 100
1, 757, Note_on_c, 7, 74, 0
1, 757, Note_on_c, 7, 71, 0
1, 787, Note_on_c, 7, 73, 100
1, 787, Note_on_c, 7, 69, 100
1, 787, Note_on_c, 7, 45, 0
1, 787, Note_on_c, 7, 45, 100
1, 817, Note_on_c, 7, 73, 0
1, 817, Note_on_c, 7, 69, 0
1, 847, Note_on_c, 7, 73, 100
1, 847, Note_on_c, 7, 69, 100
1, 847, Note_on_c, 7, 45, 0
1, 847, Note_on_c, 7, 45, 100
1, 907, Note_on_c, 7, 45, 0
1, 907, Note_on_c, 7, 45, 100
1, 967, Note_on_c, 7, 73, 0
1, 967, Note_on_c, 7, 69, 0
1, 967, Note_on_c, 7, 45, 0
1, 967, Note_on_c, 7, 45, 100
1, 1027, Note_on_c, 7, 45, 0
1, 1027, Note_on_c, 7, 45, 100
1, 1087, Note_on_c, 7, 74, 100
1, 1087, Note_on_c, 7, 66, 100
1, 1087, Note_on_c, 7, 59, 100
1, 1087, Note_on_c, 7, 57, 0
1, 1087, Note_on_c, 7, 50, 100
1, 1087, Note_on_c, 7, 45, 0
1, 1087, Note_on_c, 7, 38, 100
1, 1207, Note_on_c, 7, 74, 0
1, 1207, Note_on_c, 7, 71, 100
1, 1207, Note_on_c, 7, 66, 0
1, 1207, Note_on_c, 7, 62, 100
1, 1207, Note_on_c, 7, 59, 0
1, 1207, Note_on_c, 7, 50, 0
1, 1207, Note_on_c, 7, 38, 0
1, 1267, Note_on_c, 7, 71, 0
1, 1267, Note_on_c, 7, 62, 0
1, 1327, Note_on_c, 7, 74, 100
1, 1327, Note_on_c, 7, 66, 100
1, 1327, Note_on_c, 7, 59, 100
1, 1327, Note_on_c, 7, 50, 100
1, 1327, Note_on_c, 7, 38, 100
1, 1447, Note_on_c, 7, 74, 0
1, 1447, Note_on_c, 7, 71, 100
1, 1447, Note_on_c, 7, 66, 0
1, 1447, Note_on_c, 7, 62, 100
1, 1447, Note_on_c, 7, 59, 0
1, 1447, Note_on_c, 7, 50, 0
1, 1447, Note_on_c, 7, 38, 0
1, 1507, Note_on_c, 7, 71, 0
1, 1507, Note_on_c, 7, 62, 0
1, 1567, Note_on_c, 7, 69, 100
1, 1567, Note_on_c, 7, 61, 100
1, 1567, Note_on_c, 7, 52, 100
1, 1627, Note_on_c, 7, 40, 100
1, 1687, Note_on_c, 7, 40, 0
1, 1687, Note_on_c, 7, 40, 100
1, 1747, Note_on_c, 7, 40, 0
1, 1747, Note_on_c, 7, 40, 100
1, 1807, Note_on_c, 7, 69, 0
1, 1807, Note_on_c, 7, 68, 100
1, 1807, Note_on_c, 7, 61, 0
1, 1807, Note_on_c, 7, 59, 100
1, 1807, Note_on_c, 7, 40, 0
1, 1807, Note_on_c, 7, 40, 100
1, 1867, Note_on_c, 7, 68, 0
1, 1867, Note_on_c, 7, 59, 0
1, 1867, Note_on_c, 7, 52, 0
1, 1867, Note_on_c, 7, 64, 100
1, 1867, Note_on_c, 7, 40, 0
1, 1867, Note_on_c, 7, 52, 100
1, 1927, Note_on_c, 7, 64, 0
1, 1927, Note_on_c, 7, 63, 100
1, 1927, Note_on_c, 7, 52, 0
1, 1927, Note_on_c, 7, 51, 100
1, 1987, Note_on_c, 7, 63, 0
1, 1987, Note_on_c, 7, 62, 100
1, 1987, Note_on_c, 7, 51, 0
1, 1987, Note_on_c, 7, 50, 100
1, 2047, Note_on_c, 7, 69, 100
1, 2047, Note_on_c, 7, 64, 100
1, 2047, Note_on_c, 7, 62, 0
1, 2047, Note_on_c, 7, 61, 100
1, 2047, Note_on_c, 7, 50, 0
1, 2047, Note_on_c, 7, 49, 100
1, 2107, Note_on_c, 7, 61, 0
1, 2107, Note_on_c, 7, 61, 100
1, 2107, Note_on_c, 7, 49, 0
1, 2107, Note_on_c, 7, 49, 100
1, 2167, Note_on_c, 7, 61, 0
1, 2167, Note_on_c, 7, 61, 100
1, 2167, Note_on_c, 7, 49, 0
1, 2167, Note_on_c, 7, 49, 100
1, 2227, Note_on_c, 7, 61, 0
1, 2227, Note_on_c, 7, 61, 100
1, 2227, Note_on_c, 7, 49, 0
1, 2227, Note_on_c, 7, 49, 100
1, 2287, Note_on_c, 7, 62, 100
1, 2287, Note_on_c, 7, 61, 0
1, 2287, Note_on_c, 7, 59, 100
1, 2287, Note_on_c, 7, 49, 0
1, 2287, Note_on_c, 7, 47, 100
1, 2347, Note_on_c, 7, 69, 0
1, 2347, Note_on_c, 7, 68, 100
1, 2347, Note_on_c, 7, 62, 0
1, 2347, Note_on_c, 7, 62, 100
1, 2347, Note_on_c, 7, 59, 0
1, 2347, Note_on_c, 7, 59, 100
1, 2347, Note_on_c, 7, 47, 0
1, 2347, Note_on_c, 7, 47, 100
1, 2407, Note_on_c, 7, 68, 0
1, 2407, Note_on_c, 7, 69, 100
1, 2407, Note_on_c, 7, 62, 0
1, 2407, Note_on_c, 7, 61, 100
1, 2407, Note_on_c, 7, 59, 0
1, 2407, Note_on_c, 7, 57, 100
1, 2407, Note_on_c, 7, 47, 0
1, 2407, Note_on_c, 7, 45, 100
1, 2467, Note_on_c, 7, 69, 0
1, 2467, Note_on_c, 7, 66, 100
1, 2467, Note_on_c, 7, 61, 0
1, 2467, Note_on_c, 7, 61, 100
1, 2467, Note_on_c, 7, 57, 0
1, 2467, Note_on_c, 7, 57, 100
1, 2467, Note_on_c, 7, 45, 0
1, 2467, Note_on_c, 7, 45, 100
1, 2527, Note_on_c, 7, 66, 0
1, 2527, Note_on_c, 7, 61, 0
1, 2527, Note_on_c, 7, 59, 100
1, 2527, Note_on_c, 7, 57, 0
1, 2527, Note_on_c, 7, 56, 100
1, 2527, Note_on_c, 7, 45, 0
1, 2527, Note_on_c, 7, 44, 100
1, 2587, Note_on_c, 7, 74, 100
1, 2587, Note_on_c, 7, 59, 0
1, 2587, Note_on_c, 7, 59, 100
1, 2587, Note_on_c, 7, 56, 0
1, 2587, Note_on_c, 7, 56, 100
1, 2587, Note_on_c, 7, 44, 0
1, 2587, Note_on_c, 7, 44, 100
1, 2647, Note_on_c, 7, 74, 0
1, 2647, Note_on_c, 7, 74, 100
1, 2647, Note_on_c, 7, 59, 0
1, 2647, Note_on_c, 7, 57, 100
1, 2647, Note_on_c, 7, 56, 0
1, 2647, Note_on_c, 7, 54, 100
1, 2647, Note_on_c, 7, 44, 0
1, 2647, Note_on_c, 7, 42, 100
1, 2707, Note_on_c, 7, 57, 0
1, 2707, Note_on_c, 7, 57, 100
1, 2707, Note_on_c, 7, 54, 0
1, 2707, Note_on_c, 7, 54, 100
1, 2707, Note_on_c, 7, 42, 0
1, 2707, Note_on_c, 7, 42, 100
1, 2767, Note_on_c, 7, 57, 0
1, 2767, Note_on_c, 7, 56, 100
1, 2767, Note_on_c, 7, 54, 0
1, 2767, Note_on_c, 7, 52, 100
1, 2767, Note_on_c, 7, 42, 0
1, 2767, Note_on_c, 7, 40, 100
1, 2827, Note_on_c, 7, 74, 0
1, 2827, Note_on_c, 7, 73, 100
1, 2827, Note_on_c, 7, 56, 0
1, 2827, Note_on_c, 7, 56, 100
1, 2827, Note_on_c, 7, 52, 0
1, 2827, Note_on_c, 7, 52, 100
1, 2827, Note_on_c, 7, 40, 0
1, 2827, Note_on_c, 7, 40, 100
1, 2887, Note_on_c, 7, 73, 0
1, 2887, Note_on_c, 7, 74, 100
1, 2887, Note_on_c, 7, 56, 0
1, 2887, Note_on_c, 7, 68, 100
1, 2887, Note_on_c, 7, 52, 0
1, 2887, Note_on_c, 7, 50, 100
1, 2887, Note_on_c, 7, 40, 0
1, 2887, Note_on_c, 7, 38, 100
1, 2947, Note_on_c, 7, 74, 0
1, 2947, Note_on_c, 7, 71, 100
1, 2947, Note_on_c, 7, 68, 0
1, 2947, Note_on_c, 7, 68, 100
1, 2947, Note_on_c, 7, 50, 0
1, 2947, Note_on_c, 7, 50, 100
1, 2947, Note_on_c, 7, 38, 0
1, 2947, Note_on_c, 7, 38, 100
1, 3007, Note_on_c, 7, 71, 0
1, 3007, Note_on_c, 7, 76, 100
1, 3007, Note_on_c, 7, 68, 0
1, 3007, Note_on_c, 7, 69, 100
1, 3007, Note_on_c, 7, 64, 0
1, 3007, Note_on_c, 7, 64, 100
1, 3007, Note_on_c, 7, 50, 0
1, 3007, Note_on_c, 7, 49, 100
1, 3007, Note_on_c, 7, 38, 0
1, 3007, Note_on_c, 7, 37, 100
1, 3067, Note_on_c, 7, 76, 0
1, 3067, Note_on_c, 7, 81, 100
1, 3067, Note_on_c, 7, 69, 0
1, 3127, Note_on_c, 7, 81, 0
1, 3127, Note_on_c, 7, 80, 100
1, 3127, Note_on_c, 7, 62, 100
1, 3127, Note_on_c, 7, 49, 0
1, 3127, Note_on_c, 7, 47, 100
1, 3127, Note_on_c, 7, 37, 0
1, 3127, Note_on_c, 7, 35, 100
1, 3187, Note_on_c, 7, 80, 0
1, 3187, Note_on_c, 7, 74, 100
1, 3187, Note_on_c, 7, 62, 0
1, 3187, Note_on_c, 7, 68, 100
1, 3247, Note_on_c, 7, 74, 0
1, 3247, Note_on_c, 7, 73, 100
1, 3247, Note_on_c, 7, 68, 0
1, 3247, Note_on_c, 7, 69, 100
1, 3247, Note_on_c, 7, 47, 0
1, 3247, Note_on_c, 7, 45, 100
1, 3247, Note_on_c, 7, 35, 0
1, 3247, Note_on_c, 7, 33, 100
1, 3307, Note_on_c, 7, 73, 0
1, 3307, Note_on_c, 7, 76, 100
1, 3307, Note_on_c, 7, 69, 0
1, 3307, Note_on_c, 7, 61, 100
1, 3307, Note_on_c, 7, 64, 0
1, 3367, Note_on_c, 7, 76, 0
1, 3367, Note_on_c, 7, 71, 100
1, 3367, Note_on_c, 7, 61, 0
1, 3367, Note_on_c, 7, 66, 100
1, 3367, Note_on_c, 7, 62, 100
1, 3367, Note_on_c, 7, 45, 0
1, 3367, Note_on_c, 7, 50, 100
1, 3367, Note_on_c, 7, 33, 0
1, 3367, Note_on_c, 7, 38, 100
1, 3427, Note_on_c, 7, 71, 0
1, 3427, Note_on_c, 7, 78, 100
1, 3427, Note_on_c, 7, 66, 0
1, 3427, Note_on_c, 7, 54, 100
1, 3487, Note_on_c, 7, 78, 0
1, 3487, Note_on_c, 7, 69, 100
1, 3487, Note_on_c, 7, 62, 0
1, 3487, Note_on_c, 7, 61, 100
1, 3487, Note_on_c, 7, 54, 0
1, 3487, Note_on_c, 7, 52, 100
1, 3487, Note_on_c, 7, 50, 0
1, 3487, Note_on_c, 7, 38, 0
1, 3487, Note_on_c, 7, 40, 100
1, 3547, Note_on_c, 7, 51, 100
1, 3547, Note_on_c, 7, 52, 0
1, 3547, Note_on_c, 7, 40, 0
1, 3547, Note_on_c, 7, 39, 100
1, 3607, Note_on_c, 7, 52, 100
1, 3607, Note_on_c, 7, 51, 0
1, 3607, Note_on_c, 7, 39, 0
1, 3607, Note_on_c, 7, 40, 100
1, 3667, Note_on_c, 7, 69, 0
1, 3667, Note_on_c, 7, 71, 100
1, 3667, Note_on_c, 7, 61, 0
1, 3667, Note_on_c, 7, 62, 100
1, 3667, Note_on_c, 7, 51, 100
1, 3667, Note_on_c, 7, 52, 0
1, 3667, Note_on_c, 7, 40, 0
1, 3667, Note_on_c, 7, 39, 100
1, 3697, Note_on_c, 7, 71, 0
1, 3697, Note_on_c, 7, 69, 100
1, 3697, Note_on_c, 7, 62, 0
1, 3697, Note_on_c, 7, 61, 100
1, 3727, Note_on_c, 7, 69, 0
1, 3727, Note_on_c, 7, 68, 100
1, 3727, Note_on_c, 7, 61, 0
1, 3727, Note_on_c, 7, 59, 100
1, 3727, Note_on_c, 7, 52, 100
1, 3727, Note_on_c, 7, 51, 0
1, 3727, Note_on_c, 7, 39, 0
1, 3727, Note_on_c, 7, 40, 100
1, 3757, Note_on_c, 7, 68, 0
1, 3757, Note_on_c, 7, 59, 0
1, 3787, Note_on_c, 4, 71, 80
1, 3787, Note_on_c, 4, 68, 80
1, 3787, Note_on_c, 5, 59, 80
1, 3787, Note_on_c, 5, 56, 80
1, 3787, Note_on_c, 7, 71, 100
1, 3787, Note_on_c, 7, 68, 100
1, 3847, Note_on_c, 4, 71, 0
1, 3847, Note_on_c, 4, 73, 80
1, 3847, Note_on_c, 4, 68, 0
1, 3847, Note_on_c, 4, 69, 80
1, 3847, Note_on_c, 5, 59, 0
1, 3847, Note_on_c, 5, 61, 80
1, 3847, Note_on_c, 5, 56, 0
1, 3847, Note_on_c, 5, 57, 80
1, 3847, Note_on_c, 7, 71, 0
1, 3847, Note_on_c, 7, 73, 100
1, 3847, Note_on_c, 7, 68, 0
1, 3847, Note_on_c, 7, 69, 100
1, 3847, Note_on_c, 7, 52, 0
1, 3847, Note_on_c, 7, 40, 0
1, 3907, Note_on_c, 4, 73, 0
1, 3907, Note_on_c, 4, 74, 80
1, 3907, Note_on_c, 4, 69, 0
1, 3907, Note_on_c, 4, 71, 80
1, 3907, Note_on_c, 5, 61, 0
1, 3907, Note_on_c, 5, 62, 80
1, 3907, Note_on_c, 5, 57, 0
1, 3907, Note_on_c, 5, 59, 80
1, 3907, Note_on_c, 7, 73, 0
1, 3907, Note_on_c, 7, 74, 100
1, 3907, Note_on_c, 7, 69, 0
1, 3907, Note_on_c, 7, 71, 100
1, 3967, Note_on_c, 4, 74, 0
1, 3967, Note_on_c, 4, 76, 80
1, 3967, Note_on_c, 4, 71, 0
1, 3967, Note_on_c, 4, 85, 80
1, 3967, Note_on_c, 5, 62, 0
1, 3967, Note_on_c, 5, 64, 80
1, 3967, Note_on_c, 5, 59, 0
1, 3967, Note_on_c, 5, 61, 80
1, 3967, Note_on_c, 6, 57, 80
1, 3967, Note_on_c, 6, 45, 80
1, 3967, Note_on_c, 7, 74, 0
1, 3967, Note_on_c, 7, 76, 100
1, 3967, Note_on_c, 7, 71, 0
1, 3967, Note_on_c, 7, 73, 100
1, 3967, Note_on_c, 7, 69, 100
1, 3967, Note_on_c, 7, 57, 100
1, 3967, Note_on_c, 7, 45, 100
1, 4027, Note_on_c, 7, 69, 0
1, 4027, Note_on_c, 7, 69, 100
1, 4027, Note_on_c, 7, 57, 0
1, 4027, Note_on_c, 7, 57, 100
1, 4027, Note_on_c, 7, 45, 0
1, 4027, Note_on_c, 7, 45, 100
1, 4087, Note_on_c, 7, 69, 0
1, 4087, Note_on_c, 7, 69, 100
1, 4087, Note_on_c, 7, 57, 0
1, 4087, Note_on_c, 7, 57, 100
1, 4087, Note_on_c, 7, 45, 0
1, 4087, Note_on_c, 7, 45, 100
1, 4147, Note_on_c, 7, 69, 0
1, 4147, Note_on_c, 7, 69, 100
1, 4147, Note_on_c, 7, 57, 0
1, 4147, Note_on_c, 7, 57, 100
1, 4147, Note_on_c, 7, 45, 0
1, 4147, Note_on_c, 7, 45, 100
1, 4207, Note_on_c, 4, 76, 0
1, 4207, Note_on_c, 4, 73, 80
1, 4207, Note_on_c, 4, 85, 0
1, 4207, Note_on_c, 4, 81, 80
1, 4207, Note_on_c, 5, 64, 0
1, 4207, Note_on_c, 5, 57, 80
1, 4207, Note_on_c, 6, 57, 0
1, 4207, Note_on_c, 6, 57, 80
1, 4207, Note_on_c, 6, 45, 0
1, 4207, Note_on_c, 6, 45, 80
1, 4207, Note_on_c, 7, 76, 0
1, 4207, Note_on_c, 7, 57, 0
1, 4207, Note_on_c, 7, 57, 100
1, 4207, Note_on_c, 7, 45, 0
1, 4207, Note_on_c, 7, 45, 100
1, 4267, Note_on_c, 7, 57, 0
1, 4267, Note_on_c, 7, 57, 100
1, 4267, Note_on_c, 7, 45, 0
1, 4267, Note_on_c, 7, 45, 100
1, 4327, Note_on_c, 7, 57, 0
1, 4327, Note_on_c, 7, 57, 100
1, 4327, Note_on_c, 7, 45, 0
1, 4327, Note_on_c, 7, 45, 100
1, 4387, Note_on_c, 4, 73, 0
1, 4387, Note_on_c, 4, 74, 80
1, 4387, Note_on_c, 4, 81, 0
1, 4387, Note_on_c, 4, 83, 80
1, 4387, Note_on_c, 5, 61, 0
1, 4387, Note_on_c, 5, 62, 80
1, 4387, Note_on_c, 5, 57, 0
1, 4387, Note_on_c, 5, 59, 80
1, 4387, Note_on_c, 6, 57, 0
1, 4387, Note_on_c, 6, 57, 80
1, 4387, Note_on_c, 6, 45, 0
1, 4387, Note_on_c, 6, 45, 80
1, 4387, Note_on_c, 7, 73, 0
1, 4387, Note_on_c, 7, 74, 100
1, 4387, Note_on_c, 7, 71, 100
1, 4387, Note_on_c, 7, 69, 0
1, 4387, Note_on_c, 7, 69, 100
1, 4387, Note_on_c, 7, 57, 0
1, 4387, Note_on_c, 7, 57, 100
1, 4387, Note_on_c, 7, 45, 0
1, 4387, Note_on_c, 7, 45, 100
1, 4447, Note_on_c, 4, 74, 0
1, 4447, Note_on_c, 4, 78, 80
1, 4447, Note_on_c, 4, 83, 0
1, 4447, Note_on_c, 4, 86, 80
1, 4447, Note_on_c, 5, 62, 0
1, 4447, Note_on_c, 5, 66, 80
1, 4447, Note_on_c, 5, 59, 0
1, 4447, Note_on_c, 5, 62, 80
1, 4447, Note_on_c, 6, 57, 0
1, 4447, Note_on_c, 6, 57, 80
1, 4447, Note_on_c, 6, 45, 0
1, 4447, Note_on_c, 6, 45, 80
1, 4447, Note_on_c, 7, 74, 0
1, 4447, Note_on_c, 7, 78, 100
1, 4447, Note_on_c, 7, 71, 0
1, 4447, Note_on_c, 7, 74, 100
1, 4447, Note_on_c, 7, 69, 0
1, 4447, Note_on_c, 7, 69, 100
1, 4447, Note_on_c, 7, 57, 0
1, 4447, Note_on_c, 7, 57, 100
1, 4447, Note_on_c, 7, 45, 0
1, 4447, Note_on_c, 7, 45, 100
1, 4507, Note_on_c, 4, 78, 0
1, 4507, Note_on_c, 4, 76, 80
1, 4507, Note_on_c, 4, 86, 0
1, 4507, Note_on_c, 4, 85, 80
1, 4507, Note_on_c, 5, 66, 0
1, 4507, Note_on_c, 5, 64, 80
1, 4507, Note_on_c, 5, 62, 0
1, 4507, Note_on_c, 5, 61, 80
1, 4507, Note_on_c, 7, 78, 0
1, 4507, Note_on_c, 7, 76, 100
1, 4507, Note_on_c, 7, 74, 0
1, 4507, Note_on_c, 7, 73, 100
1, 4507, Note_on_c, 7, 69, 0
1, 4507, Note_on_c, 7, 69, 100
1, 4507, Note_on_c, 7, 57, 0
1, 4507, Note_on_c, 7, 57, 100
1, 4507, Note_on_c, 7, 45, 0
1, 4507, Note_on_c, 7, 45, 100
1, 4567, Note_on_c, 4, 76, 0
1, 4567, Note_on_c, 4, 74, 80
1, 4567, Note_on_c, 4, 85, 0
1, 4567, Note_on_c, 4, 83, 80
1, 4567, Note_on_c, 5, 64, 0
1, 4567, Note_on_c, 5, 62, 80
1, 4567, Note_on_c, 5, 61, 0
1, 4567, Note_on_c, 5, 59, 80
1, 4567, Note_on_c, 6, 57, 0
1, 4567, Note_on_c, 6, 57, 80
1, 4567, Note_on_c, 6, 45, 0
1, 4567, Note_on_c, 6, 45, 80
1, 4567, Note_on_c, 7, 76, 0
1, 4567, Note_on_c, 7, 74, 100
1, 4567, Note_on_c, 7, 73, 0
1, 4567, Note_on_c, 7, 71, 100
1, 4567, Note_on_c, 7, 69, 0
1, 4567, Note_on_c, 7, 69, 100
1, 4567, Note_on_c, 7, 57, 0
1, 4567, Note_on_c, 7, 57, 100
1, 4567, Note_on_c, 7, 45, 0
1, 4567, Note_on_c, 7, 45, 100
1, 4597, Note_on_c, 4, 74, 0
1, 4597, Note_on_c, 4, 83, 0
1, 4597, Note_on_c, 5, 62, 0
1, 4597, Note_on_c, 5, 59, 0
1, 4597, Note_on_c, 7, 74, 0
1, 4597, Note_on_c, 7, 71, 0
1, 4627, Note_on_c, 4, 73, 80
1, 4627, Note_on_c, 4, 81, 80
1, 4627, Note_on_c, 5, 61, 80
1, 4627, Note_on_c, 5, 57, 80
1, 4627, Note_on_c, 7, 73, 100
1, 4627, Note_on_c, 7, 57, 0
1, 4627, Note_on_c, 7, 57, 100
1, 4627, Note_on_c, 7, 45, 0
1, 4627, Note_on_c, 7, 45, 100
1, 4657, Note_on_c, 4, 73, 0
1, 4657, Note_on_c, 4, 81, 0
1, 4657, Note_on_c, 5, 61, 0
1, 4657, Note_on_c, 7, 73, 0
1, 4687, Note_on_c, 4, 73, 80
1, 4687, Note_on_c, 4, 81, 80
1, 4687, Note_on_c, 5, 61, 80
1, 4687, Note_on_c, 5, 57, 0
1, 4687, Note_on_c, 5, 57, 80
1, 4687, Note_on_c, 6, 57, 0
1, 4687, Note_on_c, 6, 57, 80
1, 4687, Note_on_c, 6, 45, 0
1, 4687, Note_on_c, 6, 45, 80
1, 4687, Note_on_c, 7, 73, 100
1, 4687, Note_on_c, 7, 57, 0
1, 4687, Note_on_c, 7, 57, 100
1, 4687, Note_on_c, 7, 45, 0
1, 4687, Note_on_c, 7, 45, 100
1, 4747, Note_on_c, 7, 57, 0
1, 4747, Note_on_c, 7, 57, 100
1, 4747, Note_on_c, 7, 45, 0
1, 4747, Note_on_c, 7, 45, 100
1, 4807, Note_on_c, 4, 73, 0
1, 4807, Note_on_c, 4, 81, 0
1, 4807, Note_on_c, 5, 61, 0
1, 4807, Note_on_c, 5, 57, 0
1, 4807, Note_on_c, 6, 57, 0
1, 4807, Note_on_c, 6, 45, 0
1, 4807, Note_on_c, 7, 73, 0
1, 4807, Note_on_c, 7, 69, 0
1, 4807, Note_on_c, 7, 69, 100
1, 4807, Note_on_c, 7, 57, 0
1, 4807, Note_on_c, 7, 57, 100
1, 4807, Note_on_c, 7, 45, 0
1, 4807, Note_on_c, 7, 45, 100
1, 4867, Note_on_c, 7, 69, 0
1, 4867, Note_on_c, 7, 69, 100
1, 4867, Note_on_c, 7, 57, 0
1, 4867, Note_on_c, 7, 57, 100
1, 4867, Note_on_c, 7, 45, 0
1, 4867, Note_on_c, 7, 45, 100
1, 4927, Note_on_c, 4, 74, 80
1, 4927, Note_on_c, 4, 78, 80
1, 4927, Note_on_c, 7, 74, 100
1, 4927, Note_on_c, 7, 66, 100
1, 4927, Note_on_c, 7, 69, 0
1, 4927, Note_on_c, 7, 59, 100
1, 4927, Note_on_c, 7, 57, 0
1, 4927, Note_on_c, 7, 50, 100
1, 4927, Note_on_c, 7, 45, 0
1, 4927, Note_on_c, 7, 38, 100
1, 5047, Note_on_c, 4, 74, 0
1, 5047, Note_on_c, 4, 71, 80
1, 5047, Note_on_c, 4, 78, 0
1, 5047, Note_on_c, 4, 74, 80
1, 5047, Note_on_c, 7, 74, 0
1, 5047, Note_on_c, 7, 71, 100
1, 5047, Note_on_c, 7, 66, 0
1, 5047, Note_on_c, 7, 62, 100
1, 5047, Note_on_c, 7, 59, 0
1, 5047, Note_on_c, 7, 50, 0
1, 5047, Note_on_c, 7, 38, 0
1, 5107, Note_on_c, 4, 71, 0
1, 5107, Note_on_c, 4, 74, 0
1, 5107, Note_on_c, 7, 71, 0
1, 5107, Note_on_c, 7, 62, 0
1, 5167, Note_on_c, 4, 74, 80
1, 5167, Note_on_c, 4, 78, 80
1, 5167, Note_on_c, 7, 74, 100
1, 5167, Note_on_c, 7, 66, 100
1, 5167, Note_on_c, 7, 59, 100
1, 5167, Note_on_c, 7, 50, 100
1, 5167, Note_on_c, 7, 38, 100
1, 5287, Note_on_c, 4, 74, 0
1, 5287, Note_on_c, 4, 71, 80
1, 5287, Note_on_c, 4, 78, 0
1, 5287, Note_on_c, 4, 74, 80
1, 5287, Note_on_c, 7, 74, 0
1, 5287, Note_on_c, 7, 71, 100
1, 5287, Note_on_c, 7, 66, 0
1, 5287, Note_on_c, 7, 62, 100
1, 5287, Note_on_c, 7, 59, 0
1, 5287, Note_on_c, 7, 50, 0
1, 5287, Note_on_c, 7, 38, 0
1, 5347, Note_on_c, 4, 71, 0
1, 5347, Note_on_c, 4, 74, 0
1, 5347, Note_on_c, 7, 71, 0
1, 5347, Note_on_c, 7, 62, 0
1, 5407, Note_on_c, 4, 69, 80
1, 5407, Note_on_c, 4, 73, 80
1, 5407, Note_on_c, 6, 52, 80
1, 5407, Note_on_c, 7, 69, 100
1, 5407, Note_on_c, 7, 61, 100
1, 5407, Note_on_c, 7, 52, 100
1, 5467, Note_on_c, 7, 40, 100
1, 5527, Note_on_c, 7, 40, 0
1, 5527, Note_on_c, 7, 40, 100
1, 5587, Note_on_c, 7, 40, 0
1, 5587, Note_on_c, 7, 40, 100
1, 5647, Note_on_c, 4, 69, 0
1, 5647, Note_on_c, 4, 68, 80
1, 5647, Note_on_c, 4, 73, 0
1, 5647, Note_on_c, 4, 71, 80
1, 5647, Note_on_c, 7, 69, 0
1, 5647, Note_on_c, 7, 68, 100
1, 5647, Note_on_c, 7, 61, 0
1, 5647, Note_on_c, 7, 59, 100
1, 5647, Note_on_c, 7, 40, 0
1, 5647, Note_on_c, 7, 40, 100
1, 5707, Note_on_c, 4, 68, 0
1, 5707, Note_on_c, 4, 71, 0
1, 5707, Note_on_c, 6, 52, 0
1, 5707, Note_on_c, 7, 68, 0
1, 5707, Note_on_c, 7, 59, 0
1, 5707, Note_on_c, 7, 52, 0
1, 5707, Note_on_c, 7, 64, 100
1, 5707, Note_on_c, 7, 40, 0
1, 5707, Note_on_c, 7, 52, 100
1, 5767, Note_on_c, 7, 64, 0
1, 5767, Note_on_c, 7, 63, 100
1, 5767, Note_on_c, 7, 52, 0
1, 5767, Note_on_c, 7, 51, 100
1, 5827, Note_on_c, 7, 63, 0
1, 5827, Note_on_c, 7, 62, 100
1, 5827, Note_on_c, 7, 51, 0
1, 5827, Note_on_c, 7, 50, 100
1, 5887, Note_on_c, 4, 69, 80
1, 5887, Note_on_c, 5, 64, 80
1, 5887, Note_on_c, 5, 61, 80
1, 5887, Note_on_c, 6, 57, 80
1, 5887, Note_on_c, 6, 45, 80
1, 5887, Note_on_c, 7, 81, 100
1, 5887, Note_on_c, 7, 69, 100
1, 5887, Note_on_c, 7, 64, 100
1, 5887, Note_on_c, 7, 62, 0
1, 5887, Note_on_c, 7, 61, 100
1, 5887, Note_on_c, 7, 50, 0
1, 5887, Note_on_c, 7, 49, 100
1, 5947, Note_on_c, 7, 64, 0
1, 5947, Note_on_c, 7, 64, 100
1, 5947, Note_on_c, 7, 61, 0
1, 5947, Note_on_c, 7, 61, 100
1, 5947, Note_on_c, 7, 49, 0
1, 5947, Note_on_c, 7, 49, 100
1, 6007, Note_on_c, 6, 57, 0
1, 6007, Note_on_c, 6, 45, 0
1, 6007, Note_on_c, 7, 64, 0
1, 6007, Note_on_c, 7, 64, 100
1, 6007, Note_on_c, 7, 61, 0
1, 6007, Note_on_c, 7, 61, 100
1, 6007, Note_on_c, 7, 49, 0
1, 6007, Note_on_c, 7, 49, 100
1, 6037, Note_on_c, 7, 81, 0
1, 6037, Note_on_c, 7, 85, 100
1, 6037, Note_on_c, 7, 69, 0
1, 6037, Note_on_c, 7, 73, 100
1, 6067, Note_on_c, 7, 85, 0
1, 6067, Note_on_c, 7, 83, 100
1, 6067, Note_on_c, 7, 73, 0
1, 6067, Note_on_c, 7, 71, 100
1, 6067, Note_on_c, 7, 64, 0
1, 6067, Note_on_c, 7, 64, 100
1, 6067, Note_on_c, 7, 61, 0
1, 6067, Note_on_c, 7, 61, 100
1, 6067, Note_on_c, 7, 49, 0
1, 6067, Note_on_c, 7, 49, 100
1, 6097, Note_on_c, 7, 83, 0
1, 6097, Note_on_c, 7, 81, 100
1, 6097, Note_on_c, 7, 71, 0
1, 6097, Note_on_c, 7, 69, 100
1, 6127, Note_on_c, 4, 68, 80
1, 6127, Note_on_c, 4, 69, 0
1, 6127, Note_on_c, 5, 64, 0
1, 6127, Note_on_c, 5, 62, 80
1, 6127, Note_on_c, 5, 61, 0
1, 6127, Note_on_c, 5, 59, 80
1, 6127, Note_on_c, 7, 81, 0
1, 6127, Note_on_c, 7, 80, 100
1, 6127, Note_on_c, 7, 69, 0
1, 6127, Note_on_c, 7, 68, 100
1, 6127, Note_on_c, 7, 64, 0
1, 6127, Note_on_c, 7, 62, 100
1, 6127, Note_on_c, 7, 61, 0
1, 6127, Note_on_c, 7, 59, 100
1, 6127, Note_on_c, 7, 49, 0
1, 6127, Note_on_c, 7, 47, 100
1, 6157, Note_on_c, 7, 80, 0
1, 6157, Note_on_c, 7, 83, 100
1, 6157, Note_on_c, 7, 68, 0
1, 6157, Note_on_c, 7, 71, 100
1, 6187, Note_on_c, 7, 83, 0
1, 6187, Note_on_c, 7, 81, 100
1, 6187, Note_on_c, 7, 71, 0
1, 6187, Note_on_c, 7, 69, 100
1, 6187, Note_on_c, 7, 62, 0
1, 6187, Note_on_c, 7, 62, 100
1, 6187, Note_on_c, 7, 59, 0
1, 6187, Note_on_c, 7, 59, 100
1, 6187, Note_on_c, 7, 47, 0
1, 6187, Note_on_c, 7, 47, 100
1, 6217, Note_on_c, 7, 81, 0
1, 6217, Note_on_c, 7, 80, 100
1, 6217, Note_on_c, 7, 69, 0
1, 6217, Note_on_c, 7, 68, 100
1, 6247, Note_on_c, 4, 66, 80
1, 6247, Note_on_c, 4, 68, 0
1, 6247, Note_on_c, 5, 62, 0
1, 6247, Note_on_c, 5, 61, 80
1, 6247, Note_on_c, 5, 59, 0
1, 6247, Note_on_c, 5, 57, 80
1, 6247, Note_on_c, 7, 80, 0
1, 6247, Note_on_c, 7, 78, 100
1, 6247, Note_on_c, 7, 68, 0
1, 6247, Note_on_c, 7, 66, 100
1, 6247, Note_on_c, 7, 62, 0
1, 6247, Note_on_c, 7, 61, 100
1, 6247, Note_on_c, 7, 59, 0
1, 6247, Note_on_c, 7, 57, 100
1, 6247, Note_on_c, 7, 47, 0
1, 6247, Note_on_c, 7, 45, 100
1, 6277, Note_on_c, 7, 78, 0
1, 6277, Note_on_c, 7, 81, 100
1, 6277, Note_on_c, 7, 66, 0
1, 6277, Note_on_c, 7, 69, 100
1, 6307, Note_on_c, 7, 81, 0
1, 6307, Note_on_c, 7, 80, 100
1, 6307, Note_on_c, 7, 69, 0
1, 6307, Note_on_c, 7, 68, 100
1, 6307, Note_on_c, 7, 61, 0
1, 6307, Note_on_c, 7, 61, 100
1, 6307, Note_on_c, 7, 57, 0
1, 6307, Note_on_c, 7, 57, 100
1, 6307, Note_on_c, 7, 45, 0
1, 6307, Note_on_c, 7, 45, 100
1, 6337, Note_on_c, 7, 80, 0
1, 6337, Note_on_c, 7, 78, 100
1, 6337, Note_on_c, 7, 68, 0
1, 6337, Note_on_c, 7, 66, 100
1, 6367, Note_on_c, 4, 64, 80
1, 6367, Note_on_c, 4, 66, 0
1, 6367, Note_on_c, 5, 61, 0
1, 6367, Note_on_c, 5, 59, 80
1, 6367, Note_on_c, 5, 57, 0
1, 6367, Note_on_c, 5, 56, 80
1, 6367, Note_on_c, 6, 64, 80
1, 6367, Note_on_c, 6, 52, 80
1, 6367, Note_on_c, 7, 78, 0
1, 6367, Note_on_c, 7, 76, 100
1, 6367, Note_on_c, 7, 66, 0
1, 6367, Note_on_c, 7, 64, 100
1, 6367, Note_on_c, 7, 61, 0
1, 6367, Note_on_c, 7, 59, 100
1, 6367, Note_on_c, 7, 57, 0
1, 6367, Note_on_c, 7, 56, 100
1, 6367, Note_on_c, 7, 45, 0
1, 6367, Note_on_c, 7, 44, 100
1, 6427, Note_on_c, 7, 59, 0
1, 6427, Note_on_c, 7, 59, 100
1, 6427, Note_on_c, 7, 56, 0
1, 6427, Note_on_c, 7, 56, 100
1, 6427, Note_on_c, 7, 44, 0
1, 6427, Note_on_c, 7, 44, 100
1, 6487, Note_on_c, 4, 86, 80
1, 6487, Note_on_c, 4, 64, 0
1, 6487, Note_on_c, 5, 59, 0
1, 6487, Note_on_c, 5, 57, 80
1, 6487, Note_on_c, 5, 56, 0
1, 6487, Note_on_c, 5, 54, 80
1, 6487, Note_on_c, 6, 64, 0
1, 6487, Note_on_c, 6, 52, 0
1, 6487, Note_on_c, 7, 76, 0
1, 6487, Note_on_c, 7, 74, 100
1, 6487, Note_on_c, 7, 64, 0
1, 6487, Note_on_c, 7, 62, 100
1, 6487, Note_on_c, 7, 59, 0
1, 6487, Note_on_c, 7, 57, 100
1, 6487, Note_on_c, 7, 56, 0
1, 6487, Note_on_c, 7, 54, 100
1, 6487, Note_on_c, 7, 44, 0
1, 6487, Note_on_c, 7, 42, 100
1, 6517, Note_on_c, 7, 74, 0
1, 6517, Note_on_c, 7, 78, 100
1, 6517, Note_on_c, 7, 62, 0
1, 6517, Note_on_c, 7, 66, 100
1, 6547, Note_on_c, 7, 78, 0
1, 6547, Note_on_c, 7, 76, 100
1, 6547, Note_on_c, 7, 66, 0
1, 6547, Note_on_c, 7, 64, 100
1, 6547, Note_on_c, 7, 57, 0
1, 6547, Note_on_c, 7, 57, 100
1, 6547, Note_on_c, 7, 54, 0
1, 6547, Note_on_c, 7, 54, 100
1, 6547, Note_on_c, 7, 42, 0
1, 6547, Note_on_c, 7, 42, 100
1, 6577, Note_on_c, 7, 76, 0
1, 6577, Note_on_c, 7, 74, 100
1, 6577, Note_on_c, 7, 64, 0
1, 6577, Note_on_c, 7, 62, 100
1, 6607, Note_on_c, 4, 85, 80
1, 6607, Note_on_c, 4, 86, 0
1, 6607, Note_on_c, 5, 57, 0
1, 6607, Note_on_c, 5, 56, 80
1, 6607, Note_on_c, 5, 54, 0
1, 6607, Note_on_c, 5, 52, 80
1, 6607, Note_on_c, 7, 74, 0
1, 6607, Note_on_c, 7, 73, 100
1, 6607, Note_on_c, 7, 62, 0
1, 6607, Note_on_c, 7, 61, 100
1, 6607, Note_on_c, 7, 57, 0
1, 6607, Note_on_c, 7, 56, 100
1, 6607, Note_on_c, 7, 54, 0
1, 6607, Note_on_c, 7, 52, 100
1, 6607, Note_on_c, 7, 42, 0
1, 6607, Note_on_c, 7, 40, 100
1, 6637, Note_on_c, 7, 73, 0
1, 6637, Note_on_c, 7, 76, 100
1, 6637, Note_on_c, 7, 61, 0
1, 6637, Note_on_c, 7, 64, 100
1, 6667, Note_on_c, 7, 76, 0
1, 6667, Note_on_c, 7, 74, 100
1, 6667, Note_on_c, 7, 64, 0
1, 6667, Note_on_c, 7, 62, 100
1, 6667, Note_on_c, 7, 56, 0
1, 6667, Note_on_c, 7, 56, 100
1, 6667, Note_on_c, 7, 52, 0
1, 6667, Note_on_c, 7, 52, 100
1, 6667, Note_on_c, 7, 40, 0
1, 6667, Note_on_c, 7, 40, 100
1, 6697, Note_on_c, 7, 74, 0
1, 6697, Note_on_c, 7, 73, 100
1, 6697, Note_on_c, 7, 62, 0
1, 6697, Note_on_c, 7, 61, 100
1, 6727, Note_on_c, 4, 83, 80
1, 6727, Note_on_c, 4, 85, 0
1, 6727, Note_on_c, 5, 56, 0
1, 6727, Note_on_c, 5, 54, 80
1, 6727, Note_on_c, 5, 52, 0
1, 6727, Note_on_c, 5, 50, 80
1, 6727, Note_on_c, 7, 73, 0
1, 6727, Note_on_c, 7, 71, 100
1, 6727, Note_on_c, 7, 61, 0
1, 6727, Note_on_c, 7, 59, 100
1, 6727, Note_on_c, 7, 56, 0
1, 6727, Note_on_c, 7, 54, 100
1, 6727, Note_on_c, 7, 52, 0
1, 6727, Note_on_c, 7, 50, 100
1, 6727, Note_on_c, 7, 40, 0
1, 6727, Note_on_c, 7, 38, 100
1, 6757, Note_on_c, 7, 71, 0
1, 6757, Note_on_c, 7, 74, 100
1, 6757, Note_on_c, 7, 59, 0
1, 6757, Note_on_c, 7, 62, 100
1, 6787, Note_on_c, 7, 74, 0
1, 6787, Note_on_c, 7, 73, 100
1, 6787, Note_on_c, 7, 62, 0
1, 6787, Note_on_c, 7, 61, 100
1, 6787, Note_on_c, 7, 54, 0
1, 6787, Note_on_c, 7, 54, 100
1, 6787, Note_on_c, 7, 50, 0
1, 6787, Note_on_c, 7, 50, 100
1, 6787, Note_on_c, 7, 38, 0
1, 6787, Note_on_c, 7, 38, 100
1, 6817, Note_on_c, 7, 73, 0
1, 6817, Note_on_c, 7, 71, 100
1, 6817, Note_on_c, 7, 61, 0
1, 6817, Note_on_c, 7, 59, 100
1, 6847, Note_on_c, 4, 88, 80
1, 6847, Note_on_c, 4, 83, 0
1, 6847, Note_on_c, 4, 81, 80
1, 6847, Note_on_c, 5, 54, 0
1, 6847, Note_on_c, 5, 52, 80
1, 6847, Note_on_c, 5, 50, 0
1, 6847, Note_on_c, 5, 49, 80
1, 6847, Note_on_c, 7, 71, 0
1, 6847, Note_on_c, 7, 69, 100
1, 6847, Note_on_c, 7, 59, 0
1, 6847, Note_on_c, 7, 57, 100
1, 6847, Note_on_c, 7, 54, 0
1, 6847, Note_on_c, 7, 52, 100
1, 6847, Note_on_c, 7, 50, 0
1, 6847, Note_on_c, 7, 49, 100
1, 6847, Note_on_c, 7, 38, 0
1, 6847, Note_on_c, 7, 37, 100
1, 6907, Note_on_c, 5, 52, 0
1, 6907, Note_on_c, 5, 49, 0
1, 6907, Note_on_c, 7, 52, 0
1, 6907, Note_on_c, 7, 52, 100
1, 6907, Note_on_c, 7, 49, 0
1, 6907, Note_on_c, 7, 49, 100
1, 6907, Note_on_c, 7, 37, 0
1, 6907, Note_on_c, 7, 37, 100
1, 6967, Note_on_c, 4, 88, 0
1, 6967, Note_on_c, 4, 85, 80
1, 6967, Note_on_c, 5, 54, 80
1, 6967, Note_on_c, 6, 61, 80
1, 6967, Note_on_c, 6, 57, 80
1, 6967, Note_on_c, 7, 69, 0
1, 6967, Note_on_c, 7, 81, 100
1, 6967, Note_on_c, 7, 57, 0
1, 6967, Note_on_c, 7, 52, 0
1, 6967, Note_on_c, 7, 61, 100
1, 6967, Note_on_c, 7, 49, 0
1, 6967, Note_on_c, 7, 54, 100
1, 6967, Note_on_c, 7, 37, 0
1, 6967, Note_on_c, 7, 42, 100
1, 7027, Note_on_c, 7, 61, 0
1, 7027, Note_on_c, 7, 61, 100
1, 7027, Note_on_c, 7, 54, 0
1, 7027, Note_on_c, 7, 54, 100
1, 7027, Note_on_c, 7, 42, 0
1, 7027, Note_on_c, 7, 42, 100
1, 7057, Note_on_c, 7, 83, 100
1, 7057, Note_on_c, 7, 81, 0
1, 7057, Note_on_c, 7, 81, 100
1, 7087, Note_on_c, 4, 85, 0
1, 7087, Note_on_c, 4, 83, 80
1, 7087, Note_on_c, 5, 50, 80
1, 7087, Note_on_c, 5, 54, 0
1, 7087, Note_on_c, 6, 61, 0
1, 7087, Note_on_c, 6, 59, 80
1, 7087, Note_on_c, 7, 83, 0
1, 7087, Note_on_c, 7, 83, 100
1, 7087, Note_on_c, 7, 81, 0
1, 7087, Note_on_c, 7, 81, 100
1, 7087, Note_on_c, 7, 61, 0
1, 7087, Note_on_c, 7, 66, 100
1, 7087, Note_on_c, 7, 54, 0
1, 7087, Note_on_c, 7, 50, 100
1, 7087, Note_on_c, 7, 42, 0
1, 7087, Note_on_c, 7, 38, 100
1, 7102, Note_on_c, 7, 83, 0
1, 7102, Note_on_c, 7, 85, 100
1, 7117, Note_on_c, 7, 85, 0
1, 7117, Note_on_c, 7, 83, 100
1, 7117, Note_on_c, 7, 81, 0
1, 7117, Note_on_c, 7, 81, 100
1, 7132, Note_on_c, 7, 83, 0
1, 7132, Note_on_c, 7, 85, 100
1, 7147, Note_on_c, 7, 85, 0
1, 7147, Note_on_c, 7, 83, 100
1, 7147, Note_on_c, 7, 81, 0
1, 7147, Note_on_c, 7, 81, 100
1, 7147, Note_on_c, 7, 66, 0
1, 7147, Note_on_c, 7, 66, 100
1, 7147, Note_on_c, 7, 50, 0
1, 7147, Note_on_c, 7, 50, 100
1, 7147, Note_on_c, 7, 38, 0
1, 7147, Note_on_c, 7, 38, 100
1, 7162, Note_on_c, 7, 83, 0
1, 7162, Note_on_c, 7, 85, 100
1, 7177, Note_on_c, 7, 85, 0
1, 7177, Note_on_c, 7, 83, 100
1, 7177, Note_on_c, 7, 81, 0
1, 7177, Note_on_c, 7, 81, 100
1, 7192, Note_on_c, 7, 83, 0
1, 7192, Note_on_c, 7, 85, 100
1, 7207, Note_on_c, 4, 81, 0
1, 7207, Note_on_c, 4, 80, 80
1, 7207, Note_on_c, 5, 52, 80
1, 7207, Note_on_c, 5, 50, 0
1, 7207, Note_on_c, 6, 57, 0
1, 7207, Note_on_c, 6, 64, 80
1, 7207, Note_on_c, 7, 85, 0
1, 7207, Note_on_c, 7, 83, 100
1, 7207, Note_on_c, 7, 81, 0
1, 7207, Note_on_c, 7, 80, 100
1, 7207, Note_on_c, 7, 66, 0
1, 7207, Note_on_c, 7, 64, 100
1, 7207, Note_on_c, 7, 50, 0
1, 7207, Note_on_c, 7, 52, 100
1, 7207, Note_on_c, 7, 38, 0
1, 7207, Note_on_c, 7, 40, 100
1, 7222, Note_on_c, 7, 83, 0
1, 7222, Note_on_c, 7, 85, 100
1, 7237, Note_on_c, 7, 85, 0
1, 7237, Note_on_c, 7, 83, 100
1, 7237, Note_on_c, 7, 80, 0
1, 7237, Note_on_c, 7, 80, 100
1, 7252, Note_on_c, 7, 83, 0
1, 7252, Note_on_c, 7, 85, 100
1, 7267, Note_on_c, 7, 85, 0
1, 7267, Note_on_c, 7, 81, 100
1, 7267, Note_on_c, 7, 80, 0
1, 7267, Note_on_c, 7, 80, 100
1, 7267, Note_on_c, 7, 64, 0
1, 7267, Note_on_c, 7, 62, 100
1, 7267, Note_on_c, 7, 52, 0
1, 7267, Note_on_c, 7, 52, 100
1, 7267, Note_on_c, 7, 40, 0
1, 7267, Note_on_c, 7, 40, 100
1, 7297, Note_on_c, 7, 81, 0
1, 7297, Note_on_c, 7, 83, 100
1, 7297, Note_on_c, 7, 80, 0
1, 7297, Note_on_c, 7, 80, 100
1, 7327, Note_on_c, 4, 83, 0
1, 7327, Note_on_c, 4, 81, 80
1, 7327, Note_on_c, 4, 80, 0
1, 7327, Note_on_c, 5, 57, 80
1, 7327, Note_on_c, 5, 52, 0
1, 7327, Note_on_c, 6, 59, 0
1, 7327, Note_on_c, 6, 57, 80
1, 7327, Note_on_c, 6, 64, 0
1, 7327, Note_on_c, 6, 49, 80
1, 7327, Note_on_c, 7, 83, 0
1, 7327, Note_on_c, 7, 81, 100
1, 7327, Note_on_c, 7, 80, 0
1, 7327, Note_on_c, 7, 62, 0
1, 7327, Note_on_c, 7, 61, 100
1, 7327, Note_on_c, 7, 52, 0
1, 7327, Note_on_c, 7, 57, 100
1, 7327, Note_on_c, 7, 40, 0
1, 7327, Note_on_c, 7, 45, 100
1, 7387, Note_on_c, 5, 52, 80
1, 7387, Note_on_c, 5, 57, 0
1, 7387, Note_on_c, 7, 64, 100
1, 7387, Note_on_c, 7, 57, 0
1, 7387, Note_on_c, 7, 52, 100
1, 7387, Note_on_c, 7, 45, 0
1, 7387, Note_on_c, 7, 40, 100
1, 7417, Note_on_c, 7, 61, 0
1, 7447, Note_on_c, 4, 81, 0
1, 7447, Note_on_c, 5, 57, 80
1, 7447, Note_on_c, 5, 52, 0
1, 7447, Note_on_c, 6, 57, 0
1, 7447, Note_on_c, 6, 49, 0
1, 7447, Note_on_c, 7, 81, 0
1, 7447, Note_on_c, 7, 61, 100
1, 7447, Note_on_c, 7, 52, 0
1, 7447, Note_on_c, 7, 57, 100
1, 7447, Note_on_c, 7, 40, 0
1, 7447, Note_on_c, 7, 45, 100
1, 7477, Note_on_c, 7, 61, 0
1, 7507, Note_on_c, 5, 52, 80
1, 7507, Note_on_c, 5, 57, 0
1, 7507, Note_on_c, 6, 57, 80
1, 7507, Note_on_c, 6, 49, 80
1, 7507, Note_on_c, 7, 85, 100
1, 7507, Note_on_c, 7, 61, 100
1, 7507, Note_on_c, 7, 64, 0
1, 7507, Note_on_c, 7, 64, 100
1, 7507, Note_on_c, 7, 57, 0
1, 7507, Note_on_c, 7, 52, 100
1, 7507, Note_on_c, 7, 45, 0
1, 7507, Note_on_c, 7, 40, 100
1, 7537, Note_on_c, 7, 85, 0
1, 7537, Note_on_c, 7, 81, 100
1, 7537, Note_on_c, 7, 61, 0
1, 7567, Note_on_c, 5, 57, 80
1, 7567, Note_on_c, 5, 52, 0
1, 7567, Note_on_c, 6, 57, 0
1, 7567, Note_on_c, 6, 57, 80
1, 7567, Note_on_c, 6, 49, 0
1, 7567, Note_on_c, 6, 49, 80
1, 7567, Note_on_c, 7, 81, 0
1, 7567, Note_on_c, 7, 76, 100
1, 7567, Note_on_c, 7, 61, 100
1, 7567, Note_on_c, 7, 52, 0
1, 7567, Note_on_c, 7, 57, 100
1, 7567, Note_on_c, 7, 40, 0
1, 7567, Note_on_c, 7, 45, 100
1, 7597, Note_on_c, 7, 76, 0
1, 7597, Note_on_c, 7, 61, 0
1, 7627, Note_on_c, 5, 52, 80
1, 7627, Note_on_c, 5, 57, 0
1, 7627, Note_on_c, 6, 57, 0
1, 7627, Note_on_c, 6, 57, 80
1, 7627, Note_on_c, 6, 49, 0
1, 7627, Note_on_c, 6, 49, 80
1, 7627, Note_on_c, 7, 76, 100
1, 7627, Note_on_c, 7, 61, 100
1, 7627, Note_on_c, 7, 64, 0
1, 7627, Note_on_c, 7, 64, 100
1, 7627, Note_on_c, 7, 57, 0
1, 7627, Note_on_c, 7, 52, 100
1, 7627, Note_on_c, 7, 45, 0
1, 7627, Note_on_c, 7, 40, 100
1, 7657, Note_on_c, 7, 76, 0
1, 7657, Note_on_c, 7, 61, 0
1, 7687, Note_on_c, 5, 57, 80
1, 7687, Note_on_c, 5, 52, 0
1, 7687, Note_on_c, 6, 57, 0
1, 7687, Note_on_c, 6, 57, 80
1, 7687, Note_on_c, 6, 49, 0
1, 7687, Note_on_c, 6, 49, 80
1, 7687, Note_on_c, 7, 76, 100
1, 7687, Note_on_c, 7, 61, 100
1, 7687, Note_on_c, 7, 52, 0
1, 7687, Note_on_c, 7, 57, 100
1, 7687, Note_on_c, 7, 40, 0
1, 7687, Note_on_c, 7, 45, 100
1, 7717, Note_on_c, 7, 76, 0
1, 7717, Note_on_c, 7, 61, 0
1, 7747, Note_on_c, 5, 52, 80
1, 7747, Note_on_c, 5, 57, 0
1, 7747, Note_on_c, 6, 57, 0
1, 7747, Note_on_c, 6, 57, 80
1, 7747, Note_on_c, 6, 49, 0
1, 7747, Note_on_c, 6, 49, 80
1, 7747, Note_on_c, 7, 76, 100
1, 7747, Note_on_c, 7, 61, 100
1, 7747, Note_on_c, 7, 64, 0
1, 7747, Note_on_c, 7, 64, 100
1, 7747, Note_on_c, 7, 57, 0
1, 7747, Note_on_c, 7, 52, 100
1, 7747, Note_on_c, 7, 45, 0
1, 7747, Note_on_c, 7, 40, 100
1, 7777, Note_on_c, 7, 76, 0
1, 7777, Note_on_c, 7, 61, 0
1, 7807, Note_on_c, 4, 74, 80
1, 7807, Note_on_c, 4, 71, 80
1, 7807, Note_on_c, 5, 56, 80
1, 7807, Note_on_c, 5, 52, 0
1, 7807, Note_on_c, 6, 57, 0
1, 7807, Note_on_c, 6, 59, 80
1, 7807, Note_on_c, 6, 49, 0
1, 7807, Note_on_c, 6, 52, 80
1, 7807, Note_on_c, 7, 76, 100
1, 7807, Note_on_c, 7, 59, 100
1, 7807, Note_on_c, 7, 52, 0
1, 7807, Note_on_c, 7, 56, 100
1, 7807, Note_on_c, 7, 40, 0
1, 7807, Note_on_c, 7, 44, 100
1, 7837, Note_on_c, 7, 59, 0
1, 7867, Note_on_c, 5, 52, 80
1, 7867, Note_on_c, 5, 56, 0
1, 7867, Note_on_c, 7, 76, 0
1, 7867, Note_on_c, 7, 86, 100
1, 7867, Note_on_c, 7, 59, 100
1, 7867, Note_on_c, 7, 64, 0
1, 7867, Note_on_c, 7, 64, 100
1, 7867, Note_on_c, 7, 56, 0
1, 7867, Note_on_c, 7, 52, 100
1, 7867, Note_on_c, 7, 44, 0
1, 7867, Note_on_c, 7, 40, 100
1, 7897, Note_on_c, 7, 59, 0
1, 7927, Note_on_c, 5, 56, 80
1, 7927, Note_on_c, 5, 52, 0
1, 7927, Note_on_c, 6, 59, 0
1, 7927, Note_on_c, 6, 59, 80
1, 7927, Note_on_c, 6, 52, 0
1, 7927, Note_on_c, 6, 52, 80
1, 7927, Note_on_c, 7, 86, 0
1, 7927, Note_on_c, 7, 86, 100
1, 7927, Note_on_c, 7, 59, 100
1, 7927, Note_on_c, 7, 52, 0
1, 7927, Note_on_c, 7, 56, 100
1, 7927, Note_on_c, 7, 40, 0
1, 7927, Note_on_c, 7, 44, 100
1, 7957, Note_on_c, 7, 59, 0
1, 7987, Note_on_c, 5, 52, 80
1, 7987, Note_on_c, 5, 56, 0
1, 7987, Note_on_c, 7, 59, 100
1, 7987, Note_on_c, 7, 64, 0
1, 7987, Note_on_c, 7, 64, 100
1, 7987, Note_on_c, 7, 56, 0
1, 7987, Note_on_c, 7, 52, 100
1, 7987, Note_on_c, 7, 44, 0
1, 7987, Note_on_c, 7, 40, 100
1, 8017, Note_on_c, 7, 59, 0
1, 8047, Note_on_c, 4, 74, 0
1, 8047, Note_on_c, 4, 68, 80
1, 8047, Note_on_c, 5, 59, 80
1, 8047, Note_on_c, 5, 52, 0
1, 8047, Note_on_c, 7, 59, 100
1, 8047, Note_on_c, 7, 52, 0
1, 8047, Note_on_c, 7, 40, 0
1, 8047, Note_on_c, 7, 47, 100
1, 8107, Note_on_c, 5, 52, 80
1, 8107, Note_on_c, 5, 59, 0
1, 8107, Note_on_c, 7, 86, 0
1, 8107, Note_on_c, 7, 85, 100
1, 8107, Note_on_c, 7, 64, 0
1, 8107, Note_on_c, 7, 64, 100
1, 8107, Note_on_c, 7, 52, 100
1, 8107, Note_on_c, 7, 47, 0
1, 8107, Note_on_c, 7, 40, 100
1, 8137, Note_on_c, 7, 85, 0
1, 8137, Note_on_c, 7, 83, 100
1, 8137, Note_on_c, 7, 59, 0
1, 8167, Note_on_c, 4, 71, 0
1, 8167, Note_on_c, 4, 80, 80
1, 8167, Note_on_c, 4, 68, 0
1, 8167, Note_on_c, 4, 76, 80
1, 8167, Note_on_c, 5, 62, 80
1, 8167, Note_on_c, 5, 52, 0
1, 8167, Note_on_c, 6, 59, 0
1, 8167, Note_on_c, 6, 59, 80
1, 8167, Note_on_c, 6, 52, 0
1, 8167, Note_on_c, 6, 52, 80
1, 8167, Note_on_c, 7, 83, 0
1, 8167, Note_on_c, 7, 85, 100
1, 8167, Note_on_c, 7, 59, 100
1, 8167, Note_on_c, 7, 52, 0
1, 8167, Note_on_c, 7, 62, 100
1, 8167, Note_on_c, 7, 40, 0
1, 8167, Note_on_c, 7, 50, 100
1, 8197, Note_on_c, 7, 85, 0
1, 8197, Note_on_c, 7, 83, 100
1, 8197, Note_on_c, 7, 59, 0
1, 8227, Note_on_c, 5, 52, 80
1, 8227, Note_on_c, 5, 62, 0
1, 8227, Note_on_c, 7, 83, 0
1, 8227, Note_on_c, 7, 81, 100
1, 8227, Note_on_c, 7, 59, 100
1, 8227, Note_on_c, 7, 64, 0
1, 8227, Note_on_c, 7, 64, 100
1, 8227, Note_on_c, 7, 62, 0
1, 8227, Note_on_c, 7, 52, 100
1, 8227, Note_on_c, 7, 50, 0
1, 8227, Note_on_c, 7, 40, 100
1, 8257, Note_on_c, 7, 81, 0
1, 8257, Note_on_c, 7, 80, 100
1, 8257, Note_on_c, 7, 59, 0
1, 8287, Note_on_c, 4, 80, 0
1, 8287, Note_on_c, 4, 81, 80
1, 8287, Note_on_c, 4, 76, 0
1, 8287, Note_on_c, 4, 76, 80
1, 8287, Note_on_c, 5, 61, 80
1, 8287, Note_on_c, 5, 52, 0
1, 8287, Note_on_c, 6, 59, 0
1, 8287, Note_on_c, 6, 61, 80
1, 8287, Note_on_c, 6, 52, 0
1, 8287, Note_on_c, 6, 57, 80
1, 8287, Note_on_c, 7, 80, 0
1, 8287, Note_on_c, 7, 83, 100
1, 8287, Note_on_c, 7, 57, 100
1, 8287, Note_on_c, 7, 52, 0
1, 8287, Note_on_c, 7, 61, 100
1, 8287, Note_on_c, 7, 40, 0
1, 8287, Note_on_c, 7, 49, 100
1, 8317, Note_on_c, 7, 57, 0
1, 8347, Note_on_c, 5, 52, 80
1, 8347, Note_on_c, 5, 61, 0
1, 8347, Note_on_c, 7, 83, 0
1, 8347, Note_on_c, 7, 81, 100
1, 8347, Note_on_c, 7, 57, 100
1, 8347, Note_on_c, 7, 64, 0
1, 8347, Note_on_c, 7, 64, 100
1, 8347, Note_on_c, 7, 61, 0
1, 8347, Note_on_c, 7, 52, 100
1, 8347, Note_on_c, 7, 49, 0
1, 8347, Note_on_c, 7, 40, 100
1, 8377, Note_on_c, 7, 57, 0
1, 8407, Note_on_c, 4, 81, 0
1, 8407, Note_on_c, 4, 76, 0
1, 8407, Note_on_c, 5, 61, 80
1, 8407, Note_on_c, 5, 52, 0
1, 8407, Note_on_c, 6, 61, 0
1, 8407, Note_on_c, 6, 57, 0
1, 8407, Note_on_c, 7, 81, 0
1, 8407, Note_on_c, 7, 57, 100
1, 8407, Note_on_c, 7, 52, 0
1, 8407, Note_on_c, 7, 61, 100
1, 8407, Note_on_c, 7, 40, 0
1, 8407, Note_on_c, 7, 49, 100
1, 8437, Note_on_c, 7, 57, 0
1, 8467, Note_on_c, 5, 52, 80
1, 8467, Note_on_c, 5, 61, 0
1, 8467, Note_on_c, 6, 57, 80
1, 8467, Note_on_c, 6, 49, 80
1, 8467, Note_on_c, 7, 85, 100
1, 8467, Note_on_c, 7, 57, 100
1, 8467, Note_on_c, 7, 64, 0
1, 8467, Note_on_c, 7, 64, 100
1, 8467, Note_on_c, 7, 61, 0
1, 8467, Note_on_c, 7, 52, 100
1, 8467, Note_on_c, 7, 49, 0
1, 8467, Note_on_c, 7, 40, 100
1, 8497, Note_on_c, 7, 85, 0
1, 8497, Note_on_c, 7, 81, 100
1, 8497, Note_on_c, 7, 57, 0
1, 8527, Note_on_c, 5, 57, 80
1, 8527, Note_on_c, 5, 52, 0
1, 8527, Note_on_c, 6, 57, 0
1, 8527, Note_on_c, 6, 57, 80
1, 8527, Note_on_c, 6, 49, 0
1, 8527, Note_on_c, 6, 49, 80
1, 8527, Note_on_c, 7, 81, 0
1, 8527, Note_on_c, 7, 76, 100
1, 8527, Note_on_c, 7, 61, 100
1, 8527, Note_on_c, 7, 52, 0
1, 8527, Note_on_c, 7, 57, 100
1, 8527, Note_on_c, 7, 40, 0
1, 8527, Note_on_c, 7, 45, 100
1, 8557, Note_on_c, 7, 76, 0
1, 8557, Note_on_c, 7, 61, 0
1, 8587, Note_on_c, 5, 52, 80
1, 8587, Note_on_c, 5, 57, 0
1, 8587, Note_on_c, 6, 57, 0
1, 8587, Note_on_c, 6, 57, 80
1, 8587, Note_on_c, 6, 49, 0
1, 8587, Note_on_c, 6, 49, 80
1, 8587, Note_on_c, 7, 76, 100
1, 8587, Note_on_c, 7, 61, 100
1, 8587, Note_on_c, 7, 64, 0
1, 8587, Note_on_c, 7, 64, 100
1, 8587, Note_on_c, 7, 57, 0
1, 8587, Note_on_c, 7, 52, 100
1, 8587, Note_on_c, 7, 45, 0
1, 8587, Note_on_c, 7, 40, 100
1, 8617, Note_on_c, 7, 76, 0
1, 8617, Note_on_c, 7, 61, 0
1, 8647, Note_on_c, 5, 57, 80
1, 8647, Note_on_c, 5, 52, 0
1, 8647, Note_on_c, 6, 57, 0
1, 8647, Note_on_c, 6, 57, 80
1, 8647, Note_on_c, 6, 49, 0
1, 8647, Note_on_c, 6, 49, 80
1, 8647, Note_on_c, 7, 76, 100
1, 8647, Note_on_c, 7, 61, 100
1, 8647, Note_on_c, 7, 52, 0
1, 8647, Note_on_c, 7, 57, 100
1, 8647, Note_on_c, 7, 40, 0
1, 8647, Note_on_c, 7, 45, 100
1, 8677, Note_on_c, 7, 76, 0
1, 8677, Note_on_c, 7, 61, 0
1, 8707, Note_on_c, 5, 52, 80
1, 8707, Note_on_c, 5, 57, 0
1, 8707, Note_on_c, 6, 57, 0
1, 8707, Note_on_c, 6, 57, 80
1, 8707, Note_on_c, 6, 49, 0
1, 8707, Note_on_c, 6, 49, 80
1, 8707, Note_on_c, 7, 76, 100
1, 8707, Note_on_c, 7, 61, 100
1, 8707, Note_on_c, 7, 64, 0
1, 8707, Note_on_c, 7, 64, 100
1, 8707, Note_on_c, 7, 57, 0
1, 8707, Note_on_c, 7, 52, 100
1, 8707, Note_on_c, 7, 45, 0
1, 8707, Note_on_c, 7, 40, 100
1, 8737, Note_on_c, 7, 76, 0
1, 8737, Note_on_c, 7, 61, 0
1, 8767, Note_on_c, 4, 86, 80
1, 8767, Note_on_c, 4, 83, 80
1, 8767, Note_on_c, 5, 56, 80
1, 8767, Note_on_c, 5, 52, 0
1, 8767, Note_on_c, 6, 57, 0
1, 8767, Note_on_c, 6, 59, 80
1, 8767, Note_on_c, 6, 49, 0
1, 8767, Note_on_c, 6, 52, 80
1, 8767, Note_on_c, 7, 76, 100
1, 8767, Note_on_c, 7, 59, 100
1, 8767, Note_on_c, 7, 52, 0
1, 8767, Note_on_c, 7, 56, 100
1, 8767, Note_on_c, 7, 40, 0
1, 8767, Note_on_c, 7, 44, 100
1, 8797, Note_on_c, 7, 59, 0
1, 8827, Note_on_c, 5, 52, 80
1, 8827, Note_on_c, 5, 56, 0
1, 8827, Note_on_c, 7, 76, 0
1, 8827, Note_on_c, 7, 86, 100
1, 8827, Note_on_c, 7, 59, 100
1, 8827, Note_on_c, 7, 64, 0
1, 8827, Note_on_c, 7, 64, 100
1, 8827, Note_on_c, 7, 56, 0
1, 8827, Note_on_c, 7, 52, 100
1, 8827, Note_on_c, 7, 44, 0
1, 8827, Note_on_c, 7, 40, 100
1, 8857, Note_on_c, 7, 59, 0
1, 8887, Note_on_c, 5, 56, 80
1, 8887, Note_on_c, 5, 52, 0
1, 8887, Note_on_c, 6, 59, 0
1, 8887, Note_on_c, 6, 59, 80
1, 8887, Note_on_c, 6, 52, 0
1, 8887, Note_on_c, 6, 52, 80
1, 8887, Note_on_c, 7, 86, 0
1, 8887, Note_on_c, 7, 86, 100
1, 8887, Note_on_c, 7, 59, 100
1, 8887, Note_on_c, 7, 52, 0
1, 8887, Note_on_c, 7, 56, 100
1, 8887, Note_on_c, 7, 40, 0
1, 8887, Note_on_c, 7, 44, 100
1, 8917, Note_on_c, 7, 59, 0
1, 8947, Note_on_c, 5, 52, 80
1, 8947, Note_on_c, 5, 56, 0
1, 8947, Note_on_c, 7, 59, 100
1, 8947, Note_on_c, 7, 64, 0
1, 8947, Note_on_c, 7, 64, 100
1, 8947, Note_on_c, 7, 56, 0
1, 8947, Note_on_c, 7, 52, 100
1, 8947, Note_on_c, 7, 44, 0
1, 8947, Note_on_c, 7, 40, 100
1, 8977, Note_on_c, 7, 59, 0
1, 9007, Note_on_c, 4, 86, 0
1, 9007, Note_on_c, 4, 80, 80
1, 9007, Note_on_c, 5, 59, 80
1, 9007, Note_on_c, 5, 52, 0
1, 9007, Note_on_c, 7, 59, 100
1, 9007, Note_on_c, 7, 52, 0
1, 9007, Note_on_c, 7, 40, 0
1, 9007, Note_on_c, 7, 47, 100
1, 9067, Note_on_c, 5, 52, 80
1, 9067, Note_on_c, 5, 59, 0
1, 9067, Note_on_c, 7, 86, 0
1, 9067, Note_on_c, 7, 85, 100
1, 9067, Note_on_c, 7, 64, 0
1, 9067, Note_on_c, 7, 64, 100
1, 9067, Note_on_c, 7, 52, 100
1, 9067, Note_on_c, 7, 47, 0
1, 9067, Note_on_c, 7, 40, 100
1, 9097, Note_on_c, 7, 85, 0
1, 9097, Note_on_c, 7, 83, 100
1, 9097, Note_on_c, 7, 59, 0
1, 9127, Note_on_c, 4, 83, 0
1, 9127, Note_on_c, 4, 76, 80
1, 9127, Note_on_c, 5, 62, 80
1, 9127, Note_on_c, 5, 52, 0
1, 9127, Note_on_c, 6, 59, 0
1, 9127, Note_on_c, 6, 59, 80
1, 9127, Note_on_c, 6, 52, 0
1, 9127, Note_on_c, 6, 52, 80
1, 9127, Note_on_c, 7, 83, 0
1, 9127, Note_on_c, 7, 85, 100
1, 9127, Note_on_c, 7, 59, 100
1, 9127, Note_on_c, 7, 52, 0
1, 9127, Note_on_c, 7, 62, 100
1, 9127, Note_on_c, 7, 40, 0
1, 9127, Note_on_c, 7, 50, 100
1, 9157, Note_on_c, 7, 85, 0
1, 9157, Note_on_c, 7, 83, 100
1, 9157, Note_on_c, 7, 59, 0
1, 9187, Note_on_c, 5, 52, 80
1, 9187, Note_on_c, 5, 62, 0
1, 9187, Note_on_c, 7, 83, 0
1, 9187, Note_on_c, 7, 81, 100
1, 9187, Note_on_c, 7, 59, 100
1, 9187, Note_on_c, 7, 64, 0
1, 9187, Note_on_c, 7, 64, 100
1, 9187, Note_on_c, 7, 62, 0
1, 9187, Note_on_c, 7, 52, 100
1, 9187, Note_on_c, 7, 50, 0
1, 9187, Note_on_c, 7, 40, 100
1, 9217, Note_on_c, 7, 81, 0
1, 9217, Note_on_c, 7, 80, 100
1, 9217, Note_on_c, 7, 59, 0
1, 9247, Note_on_c, 4, 80, 0
1, 9247, Note_on_c, 4, 81, 80
1, 9247, Note_on_c, 4, 76, 0
1, 9247, Note_on_c, 5, 61, 80
1, 9247, Note_on_c, 5, 52, 0
1, 9247, Note_on_c, 6, 59, 0
1, 9247, Note_on_c, 6, 61, 80
1, 9247, Note_on_c, 6, 52, 0
1, 9247, Note_on_c, 6, 57, 80
1, 9247, Note_on_c, 7, 80, 0
1, 9247, Note_on_c, 7, 81, 100
1, 9247, Note_on_c, 7, 57, 100
1, 9247, Note_on_c, 7, 64, 0
1, 9247, Note_on_c, 7, 64, 100
1, 9247, Note_on_c, 7, 52, 0
1, 9247, Note_on_c, 7, 61, 100
1, 9247, Note_on_c, 7, 40, 0
1, 9247, Note_on_c, 7, 49, 100
1, 9277, Note_on_c, 4, 80, 80
1, 9277, Note_on_c, 4, 81, 0
1, 9277, Note_on_c, 7, 81, 0
1, 9277, Note_on_c, 7, 80, 100
1, 9307, Note_on_c, 4, 83, 80
1, 9307, Note_on_c, 4, 80, 0
1, 9307, Note_on_c, 7, 80, 0
1, 9307, Note_on_c, 7, 83, 100
1, 9337, Note_on_c, 4, 81, 80
1, 9337, Note_on_c, 4, 83, 0
1, 9337, Note_on_c, 7, 83, 0
1, 9337, Note_on_c, 7, 81, 100
1, 9367, Note_on_c, 4, 85, 80
1, 9367, Note_on_c, 4, 81, 0
1, 9367, Note_on_c, 5, 61, 0
1, 9367, Note_on_c, 6, 61, 0
1, 9367, Note_on_c, 6, 57, 0
1, 9367, Note_on_c, 7, 81, 0
1, 9367, Note_on_c, 7, 85, 100
1, 9367, Note_on_c, 7, 57, 0
1, 9367, Note_on_c, 7, 64, 0
1, 9367, Note_on_c, 7, 61, 0
1, 9367, Note_on_c, 7, 49, 0
1, 9397, Note_on_c, 4, 83, 80
1, 9397, Note_on_c, 4, 85, 0
1, 9397, Note_on_c, 7, 83, 100
1, 9397, Note_on_c, 7, 85, 0
1, 9427, Note_on_c, 4, 81, 80
1, 9427, Note_on_c, 4, 83, 0
1, 9427, Note_on_c, 5, 61, 80
1, 9427, Note_on_c, 6, 57, 80
1, 9427, Note_on_c, 6, 45, 80
1, 9427, Note_on_c, 7, 81, 100
1, 9427, Note_on_c, 7, 83, 0
1, 9427, Note_on_c, 7, 64, 100
1, 9427, Note_on_c, 7, 61, 100
1, 9427, Note_on_c, 7, 49, 100
1, 9457, Note_on_c, 4, 80, 80
1, 9457, Note_on_c, 4, 81, 0
1, 9457, Note_on_c, 7, 80, 100
1, 9457, Note_on_c, 7, 81, 0
1, 9487, Note_on_c, 4, 78, 80
1, 9487, Note_on_c, 4, 80, 0
1, 9487, Note_on_c, 5, 62, 80
1, 9487, Note_on_c, 5, 61, 0
1, 9487, Note_on_c, 6, 57, 0
1, 9487, Note_on_c, 6, 57, 80
1, 9487, Note_on_c, 6, 45, 0
1, 9487, Note_on_c, 6, 45, 80
1, 9487, Note_on_c, 7, 78, 100
1, 9487, Note_on_c, 7, 80, 0
1, 9487, Note_on_c, 7, 64, 0
1, 9487, Note_on_c, 7, 62, 100
1, 9487, Note_on_c, 7, 61, 0
1, 9487, Note_on_c, 7, 49, 0
1, 9487, Note_on_c, 7, 50, 100
1, 9517, Note_on_c, 4, 77, 80
1, 9517, Note_on_c, 4, 78, 0
1, 9517, Note_on_c, 7, 77, 100
1, 9517, Note_on_c, 7, 78, 0
1, 9547, Note_on_c, 4, 80, 80
1, 9547, Note_on_c, 4, 77, 0
1, 9547, Note_on_c, 7, 80, 100
1, 9547, Note_on_c, 7, 77, 0
1, 9577, Note_on_c, 4, 78, 80
1, 9577, Note_on_c, 4, 80, 0
1, 9577, Note_on_c, 7, 78, 100
1, 9577, Note_on_c, 7, 80, 0
1, 9607, Note_on_c, 4, 81, 80
1, 9607, Note_on_c, 4, 78, 0
1, 9607, Note_on_c, 5, 62, 0
1, 9607, Note_on_c, 6, 57, 0
1, 9607, Note_on_c, 6, 45, 0
1, 9607, Note_on_c, 7, 81, 100
1, 9607, Note_on_c, 7, 78, 0
1, 9607, Note_on_c, 7, 62, 0
1, 9607, Note_on_c, 7, 50, 0
1, 9667, Note_on_c, 4, 81, 0
1, 9667, Note_on_c, 5, 61, 80
1, 9667, Note_on_c, 6, 57, 80
1, 9667, Note_on_c, 6, 45, 80
1, 9667, Note_on_c, 7, 81, 0
1, 9667, Note_on_c, 7, 69, 100
1, 9667, Note_on_c, 7, 61, 100
1, 9667, Note_on_c, 7, 49, 100
1, 9727, Note_on_c, 4, 78, 80
1, 9727, Note_on_c, 5, 62, 80
1, 9727, Note_on_c, 5, 61, 0
1, 9727, Note_on_c, 6, 57, 0
1, 9727, Note_on_c, 6, 57, 80
1, 9727, Note_on_c, 6, 45, 0
1, 9727, Note_on_c, 6, 45, 80
1, 9727, Note_on_c, 7, 78, 100
1, 9727, Note_on_c, 7, 69, 0
1, 9727, Note_on_c, 7, 69, 100
1, 9727, Note_on_c, 7, 61, 0
1, 9727, Note_on_c, 7, 62, 100
1, 9727, Note_on_c, 7, 49, 0
1, 9727, Note_on_c, 7, 50, 100
1, 9757, Note_on_c, 4, 77, 80
1, 9757, Note_on_c, 4, 78, 0
1, 9757, Note_on_c, 7, 77, 100
1, 9757, Note_on_c, 7, 78, 0
1, 9787, Note_on_c, 4, 80, 80
1, 9787, Note_on_c, 4, 77, 0
1, 9787, Note_on_c, 7, 80, 100
1, 9787, Note_on_c, 7, 77, 0
1, 9817, Note_on_c, 4, 78, 80
1, 9817, Note_on_c, 4, 80, 0
1, 9817, Note_on_c, 7, 78, 100
1, 9817, Note_on_c, 7, 80, 0
1, 9847, Note_on_c, 4, 81, 80
1, 9847, Note_on_c, 4, 78, 0
1, 9847, Note_on_c, 5, 62, 0
1, 9847, Note_on_c, 6, 57, 0
1, 9847, Note_on_c, 6, 45, 0
1, 9847, Note_on_c, 7, 81, 100
1, 9847, Note_on_c, 7, 78, 0
1, 9847, Note_on_c, 7, 69, 0
1, 9847, Note_on_c, 7, 62, 0
1, 9847, Note_on_c, 7, 50, 0
1, 9877, Note_on_c, 4, 79, 80
1, 9877, Note_on_c, 4, 81, 0
1, 9877, Note_on_c, 7, 79, 100
1, 9877, Note_on_c, 7, 81, 0
1, 9907, Note_on_c, 4, 78, 80
1, 9907, Note_on_c, 4, 79, 0
1, 9907, Note_on_c, 5, 58, 80
1, 9907, Note_on_c, 7, 78, 100
1, 9907, Note_on_c, 7, 79, 0
1, 9907, Note_on_c, 7, 61, 100
1, 9907, Note_on_c, 7, 58, 100
1, 9907, Note_on_c, 7, 46, 100
1, 9937, Note_on_c, 4, 76, 80
1, 9937, Note_on_c, 4, 78, 0
1, 9937, Note_on_c, 7, 76, 100
1, 9937, Note_on_c, 7, 78, 0
1, 9967, Note_on_c, 4, 74, 80
1, 9967, Note_on_c, 4, 76, 0
1, 9967, Note_on_c, 5, 59, 80
1, 9967, Note_on_c, 5, 58, 0
1, 9967, Note_on_c, 7, 74, 100
1, 9967, Note_on_c, 7, 76, 0
1, 9967, Note_on_c, 7, 61, 0
1, 9967, Note_on_c, 7, 59, 100
1, 9967, Note_on_c, 7, 58, 0
1, 9967, Note_on_c, 7, 46, 0
1, 9967, Note_on_c, 7, 47, 100
1, 9997, Note_on_c, 4, 73, 80
1, 9997, Note_on_c, 4, 74, 0
1, 9997, Note_on_c, 7, 73, 100
1, 9997, Note_on_c, 7, 74, 0
1, 10027, Note_on_c, 4, 76, 80
1, 10027, Note_on_c, 4, 73, 0
1, 10027, Note_on_c, 7, 76, 100
1, 10027, Note_on_c, 7, 73, 0
1, 10057, Note_on_c, 4, 74, 80
1, 10057, Note_on_c, 4, 76, 0
1, 10057, Note_on_c, 7, 74, 100
1, 10057, Note_on_c, 7, 76, 0
1, 10087, Note_on_c, 4, 78, 80
1, 10087, Note_on_c, 4, 74, 0
1, 10087, Note_on_c, 5, 59, 0
1, 10087, Note_on_c, 7, 78, 100
1, 10087, Note_on_c, 7, 74, 0
1, 10087, Note_on_c, 7, 59, 0
1, 10087, Note_on_c, 7, 47, 0
1, 10147, Note_on_c, 4, 78, 0
1, 10147, Note_on_c, 5, 58, 80
1, 10147, Note_on_c, 7, 78, 0
1, 10147, Note_on_c, 7, 66, 100
1, 10147, Note_on_c, 7, 58, 100
1, 10147, Note_on_c, 7, 46, 100
1, 10207, Note_on_c, 4, 86, 80
1, 10207, Note_on_c, 5, 59, 80
1, 10207, Note_on_c, 5, 58, 0
1, 10207, Note_on_c, 7, 74, 100
1, 10207, Note_on_c, 7, 58, 0
1, 10207, Note_on_c, 7, 59, 100
1, 10207, Note_on_c, 7, 46, 0
1, 10207, Note_on_c, 7, 47, 100
1, 10237, Note_on_c, 4, 85, 80
1, 10237, Note_on_c, 4, 86, 0
1, 10237, Note_on_c, 7, 73, 100
1, 10237, Note_on_c, 7, 74, 0
1, 10267, Note_on_c, 4, 88, 80
1, 10267, Note_on_c, 4, 85, 0
1, 10267, Note_on_c, 7, 76, 100
1, 10267, Note_on_c, 7, 73, 0
1, 10297, Note_on_c, 4, 86, 80
1, 10297, Note_on_c, 4, 88, 0
1, 10297, Note_on_c, 7, 74, 100
1, 10297, Note_on_c, 7, 76, 0
1, 10327, Note_on_c, 4, 90, 80
1, 10327, Note_on_c, 4, 86, 0
1, 10327, Note_on_c, 5, 59, 0
1, 10327, Note_on_c, 7, 78, 100
1, 10327, Note_on_c, 7, 74, 0
1, 10327, Note_on_c, 7, 66, 0
1, 10327, Note_on_c, 7, 59, 0
1, 10327, Note_on_c, 7, 47, 0
1, 10357, Note_on_c, 4, 88, 80
1, 10357, Note_on_c, 4, 90, 0
1, 10357, Note_on_c, 7, 76, 100
1, 10357, Note_on_c, 7, 78, 0
1, 10387, Note_on_c, 4, 86, 80
1, 10387, Note_on_c, 4, 88, 0
1, 10387, Note_on_c, 5, 54, 80
1, 10387, Note_on_c, 7, 74, 100
1, 10387, Note_on_c, 7, 76, 0
1, 10387, Note_on_c, 7, 66, 100
1, 10387, Note_on_c, 7, 54, 100
1, 10387, Note_on_c, 7, 42, 100
1, 10417, Note_on_c, 4, 85, 80
1, 10417, Note_on_c, 4, 86, 0
1, 10417, Note_on_c, 7, 73, 100
1, 10417, Note_on_c, 7, 74, 0
1, 10447, Note_on_c, 4, 83, 80
1, 10447, Note_on_c, 4, 85, 0
1, 10447, Note_on_c, 5, 50, 80
1, 10447, Note_on_c, 5, 54, 0
1, 10447, Note_on_c, 7, 71, 100
1, 10447, Note_on_c, 7, 73, 0
1, 10447, Note_on_c, 7, 54, 0
1, 10447, Note_on_c, 7, 50, 100
1, 10447, Note_on_c, 7, 42, 0
1, 10447, Note_on_c, 7, 38, 100
1, 10477, Note_on_c, 4, 82, 80
1, 10477, Note_on_c, 4, 83, 0
1, 10477, Note_on_c, 7, 70, 100
1, 10477, Note_on_c, 7, 71, 0
1, 10507, Note_on_c, 4, 85, 80
1, 10507, Note_on_c, 4, 82, 0
1, 10507, Note_on_c, 7, 73, 100
1, 10507, Note_on_c, 7, 70, 0
1, 10537, Note_on_c, 4, 83, 80
1, 10537, Note_on_c, 4, 85, 0
1, 10537, Note_on_c, 7, 71, 100
1, 10537, Note_on_c, 7, 73, 0
1, 10567, Note_on_c, 4, 86, 80
1, 10567, Note_on_c, 4, 83, 0
1, 10567, Note_on_c, 5, 50, 0
1, 10567, Note_on_c, 7, 74, 100
1, 10567, Note_on_c, 7, 71, 0
1, 10567, Note_on_c, 7, 66, 0
1, 10567, Note_on_c, 7, 50, 0
1, 10567, Note_on_c, 7, 38, 0
1, 10597, Note_on_c, 4, 85, 80
1, 10597, Note_on_c, 4, 86, 0
1, 10597, Note_on_c, 7, 73, 100
1, 10597, Note_on_c, 7, 74, 0
1, 10627, Note_on_c, 4, 83, 80
1, 10627, Note_on_c, 4, 85, 0
1, 10627, Note_on_c, 5, 51, 80
1, 10627, Note_on_c, 7, 71, 100
1, 10627, Note_on_c, 7, 73, 0
1, 10627, Note_on_c, 7, 66, 100
1, 10627, Note_on_c, 7, 51, 100
1, 10627, Note_on_c, 7, 39, 100
1, 10657, Note_on_c, 4, 81, 80
1, 10657, Note_on_c, 4, 83, 0
1, 10657, Note_on_c, 7, 69, 100
1, 10657, Note_on_c, 7, 71, 0
1, 10687, Note_on_c, 4, 80, 80
1, 10687, Note_on_c, 4, 81, 0
1, 10687, Note_on_c, 5, 52, 80
1, 10687, Note_on_c, 5, 51, 0
1, 10687, Note_on_c, 6, 52, 80
1, 10687, Note_on_c, 7, 68, 100
1, 10687, Note_on_c, 7, 69, 0
1, 10687, Note_on_c, 7, 66, 0
1, 10687, Note_on_c, 7, 59, 100
1, 10687, Note_on_c, 7, 51, 0
1, 10687, Note_on_c, 7, 52, 100
1, 10687, Note_on_c, 7, 39, 0
1, 10687, Note_on_c, 7, 40, 100
1, 10717, Note_on_c, 7, 64, 100
1, 10717, Note_on_c, 7, 68, 0
1, 10747, Note_on_c, 7, 66, 100
1, 10747, Note_on_c, 7, 64, 0
1, 10777, Note_on_c, 7, 68, 100
1, 10777, Note_on_c, 7, 66, 0
1, 10807, Note_on_c, 4, 80, 0
1, 10807, Note_on_c, 5, 52, 0
1, 10807, Note_on_c, 6, 52, 0
1, 10807, Note_on_c, 7, 69, 100
1, 10807, Note_on_c, 7, 68, 0
1, 10807, Note_on_c, 7, 59, 0
1, 10807, Note_on_c, 7, 52, 0
1, 10807, Note_on_c, 7, 40, 0
1, 10837, Note_on_c, 5, 47, 80
1, 10837, Note_on_c, 7, 71, 100
1, 10837, Note_on_c, 7, 69, 0
1, 10837, Note_on_c, 7, 59, 100
1, 10837, Note_on_c, 7, 47, 100
1, 10837, Note_on_c, 7, 35, 100
1, 10867, Note_on_c, 4, 88, 80
1, 10867, Note_on_c, 4, 80, 80
1, 10867, Note_on_c, 5, 49, 80
1, 10867, Note_on_c, 5, 47, 0
1, 10867, Note_on_c, 6, 59, 80
1, 10867, Note_on_c, 6, 52, 80
1, 10867, Note_on_c, 7, 73, 100
1, 10867, Note_on_c, 7, 71, 0
1, 10867, Note_on_c, 7, 59, 0
1, 10867, Note_on_c, 7, 61, 100
1, 10867, Note_on_c, 7, 47, 0
1, 10867, Note_on_c, 7, 49, 100
1, 10867, Note_on_c, 7, 35, 0
1, 10867, Note_on_c, 7, 37, 100
1, 10897, Note_on_c, 5, 51, 80
1, 10897, Note_on_c, 5, 49, 0
1, 10897, Note_on_c, 7, 75, 100
1, 10897, Note_on_c, 7, 73, 0
1, 10897, Note_on_c, 7, 61, 0
1, 10897, Note_on_c, 7, 63, 100
1, 10897, Note_on_c, 7, 49, 0
1, 10897, Note_on_c, 7, 51, 100
1, 10897, Note_on_c, 7, 37, 0
1, 10897, Note_on_c, 7, 39, 100
1, 10927, Note_on_c, 4, 88, 0
1, 10927, Note_on_c, 4, 88, 80
1, 10927, Note_on_c, 4, 80, 0
1, 10927, Note_on_c, 4, 80, 80
1, 10927, Note_on_c, 5, 52, 80
1, 10927, Note_on_c, 5, 51, 0
1, 10927, Note_on_c, 6, 59, 0
1, 10927, Note_on_c, 6, 59, 80
1, 10927, Note_on_c, 6, 52, 0
1, 10927, Note_on_c, 6, 52, 80
1, 10927, Note_on_c, 7, 76, 100
1, 10927, Note_on_c, 7, 75, 0
1, 10927, Note_on_c, 7, 63, 0
1, 10927, Note_on_c, 7, 64, 100
1, 10927, Note_on_c, 7, 51, 0
1, 10927, Note_on_c, 7, 52, 100
1, 10927, Note_on_c, 7, 39, 0
1, 10927, Note_on_c, 7, 40, 100
1, 10957, Note_on_c, 5, 54, 80
1, 10957, Note_on_c, 5, 52, 0
1, 10957, Note_on_c, 7, 78, 100
1, 10957, Note_on_c, 7, 76, 0
1, 10957, Note_on_c, 7, 64, 0
1, 10957, Note_on_c, 7, 66, 100
1, 10957, Note_on_c, 7, 52, 0
1, 10957, Note_on_c, 7, 54, 100
1, 10957, Note_on_c, 7, 40, 0
1, 10957, Note_on_c, 7, 42, 100
1, 10987, Note_on_c, 4, 88, 0
1, 10987, Note_on_c, 4, 88, 80
1, 10987, Note_on_c, 4, 80, 0
1, 10987, Note_on_c, 4, 80, 80
1, 10987, Note_on_c, 5, 56, 80
1, 10987, Note_on_c, 5, 54, 0
1, 10987, Note_on_c, 6, 59, 0
1, 10987, Note_on_c, 6, 59, 80
1, 10987, Note_on_c, 6, 52, 0
1, 10987, Note_on_c, 6, 52, 80
1, 10987, Note_on_c, 7, 80, 100
1, 10987, Note_on_c, 7, 78, 0
1, 10987, Note_on_c, 7, 66, 0
1, 10987, Note_on_c, 7, 68, 100
1, 10987, Note_on_c, 7, 54, 0
1, 10987, Note_on_c, 7, 56, 100
1, 10987, Note_on_c, 7, 42, 0
1, 10987, Note_on_c, 7, 44, 100
1, 11017, Note_on_c, 5, 57, 80
1, 11017, Note_on_c, 5, 56, 0
1, 11017, Note_on_c, 7, 81, 100
1, 11017, Note_on_c, 7, 80, 0
1, 11017, Note_on_c, 7, 68, 0
1, 11017, Note_on_c, 7, 69, 100
1, 11017, Note_on_c, 7, 56, 0
1, 11017, Note_on_c, 7, 57, 100
1, 11017, Note_on_c, 7, 44, 0
1, 11017, Note_on_c, 7, 45, 100
1, 11047, Note_on_c, 4, 88, 0
1, 11047, Note_on_c, 4, 88, 80
1, 11047, Note_on_c, 4, 80, 0
1, 11047, Note_on_c, 4, 80, 80
1, 11047, Note_on_c, 5, 59, 80
1, 11047, Note_on_c, 5, 57, 0
1, 11047, Note_on_c, 6, 59, 0
1, 11047, Note_on_c, 6, 59, 80
1, 11047, Note_on_c, 6, 52, 0
1, 11047, Note_on_c, 6, 52, 80
1, 11047, Note_on_c, 7, 83, 100
1, 11047, Note_on_c, 7, 81, 0
1, 11047, Note_on_c, 7, 69, 0
1, 11047, Note_on_c, 7, 71, 100
1, 11047, Note_on_c, 7, 57, 0
1, 11047, Note_on_c, 7, 59, 100
1, 11047, Note_on_c, 7, 45, 0
1, 11047, Note_on_c, 7, 47, 100
1, 11077, Note_on_c, 5, 56, 80
1, 11077, Note_on_c, 5, 59, 0
1, 11077, Note_on_c, 7, 80, 100
1, 11077, Note_on_c, 7, 83, 0
1, 11077, Note_on_c, 7, 71, 0
1, 11077, Note_on_c, 7, 68, 100
1, 11077, Note_on_c, 7, 59, 0
1, 11077, Note_on_c, 7, 56, 100
1, 11077, Note_on_c, 7, 47, 0
1, 11077, Note_on_c, 7, 44, 100
1, 11107, Note_on_c, 4, 88, 0
1, 11107, Note_on_c, 4, 88, 80
1, 11107, Note_on_c, 4, 80, 0
1, 11107, Note_on_c, 4, 80, 80
1, 11107, Note_on_c, 5, 59, 80
1, 11107, Note_on_c, 5, 56, 0
1, 11107, Note_on_c, 6, 59, 0
1, 11107, Note_on_c, 6, 59, 80
1, 11107, Note_on_c, 6, 52, 0
1, 11107, Note_on_c, 6, 52, 80
1, 11107, Note_on_c, 7, 83, 100
1, 11107, Note_on_c, 7, 80, 0
1, 11107, Note_on_c, 7, 68, 0
1, 11107, Note_on_c, 7, 71, 100
1, 11107, Note_on_c, 7, 56, 0
1, 11107, Note_on_c, 7, 59, 100
1, 11107, Note_on_c, 7, 44, 0
1, 11107, Note_on_c, 7, 47, 100
1, 11137, Note_on_c, 5, 56, 80
1, 11137, Note_on_c, 5, 59, 0
1, 11137, Note_on_c, 7, 80, 100
1, 11137, Note_on_c, 7, 83, 0
1, 11137, Note_on_c, 7, 71, 0
1, 11137, Note_on_c, 7, 68, 100
1, 11137, Note_on_c, 7, 59, 0
1, 11137, Note_on_c, 7, 56, 100
1, 11137, Note_on_c, 7, 47, 0
1, 11137, Note_on_c, 7, 44, 100
1, 11167, Note_on_c, 4, 88, 0
1, 11167, Note_on_c, 4, 88, 80
1, 11167, Note_on_c, 4, 80, 0
1, 11167, Note_on_c, 4, 80, 80
1, 11167, Note_on_c, 5, 52, 80
1, 11167, Note_on_c, 5, 56, 0
1, 11167, Note_on_c, 6, 59, 0
1, 11167, Note_on_c, 6, 59, 80
1, 11167, Note_on_c, 6, 52, 0
1, 11167, Note_on_c, 6, 52, 80
1, 11167, Note_on_c, 7, 76, 100
1, 11167, Note_on_c, 7, 80, 0
1, 11167, Note_on_c, 7, 68, 0
1, 11167, Note_on_c, 7, 64, 100
1, 11167, Note_on_c, 7, 56, 0
1, 11167, Note_on_c, 7, 52, 100
1, 11167, Note_on_c, 7, 44, 0
1, 11167, Note_on_c, 7, 40, 100
1, 11227, Note_on_c, 4, 88, 0
1, 11227, Note_on_c, 4, 80, 0
1, 11227, Note_on_c, 5, 52, 0
1, 11227, Note_on_c, 6, 59, 0
1, 11227, Note_on_c, 6, 52, 0
1, 11227, Note_on_c, 7, 76, 0
1, 11227, Note_on_c, 7, 64, 0
1, 11227, Note_on_c, 7, 52, 0
1, 11227, Note_on_c, 7, 40, 0
1, 11287, Note_on_c, 4, 88, 80
1, 11287, Note_on_c, 4, 80, 80
1, 11287, Note_on_c, 5, 64, 80
1, 11287, Note_on_c, 6, 59, 80
1, 11287, Note_on_c, 6, 52, 80
1, 11287, Note_on_c, 7, 64, 100
1, 11287, Note_on_c, 7, 71, 100
1, 11287, Note_on_c, 7, 80, 100
1, 11287, Note_on_c, 7, 76, 100
1, 11287, Note_on_c, 7, 52, 100
1, 11347, Note_on_c, 4, 88, 0
1, 11347, Note_on_c, 4, 80, 0
1, 11347, Note_on_c, 5, 64, 0
1, 11347, Note_on_c, 6, 59, 0
1, 11347, Note_on_c, 6, 52, 0
1, 11347, Note_on_c, 7, 71, 0
1, 11347, Note_on_c, 7, 80, 0
1, 11347, Note_on_c, 7, 76, 0
1, 11347, Note_on_c, 7, 64, 0
1, 11347, Note_on_c, 7, 52, 0
1, 11407, Note_on_c, 4, 76, 80
1, 11407, Note_on_c, 5, 52, 80
1, 11407, Note_on_c, 6, 52, 80
1, 11407, Note_on_c, 6, 40, 80
1, 11407, Note_on_c, 7, 64, 100
1, 11407, Note_on_c, 7, 71, 100
1, 11407, Note_on_c, 7, 76, 100
1, 11407, Note_on_c, 7, 52, 100
1, 11407, Note_on_c, 7, 40, 100
1, 11467, Note_on_c, 4, 76, 0
1, 11467, Note_on_c, 5, 52, 0
1, 11467, Note_on_c, 6, 52, 0
1, 11467, Note_on_c, 6, 40, 0
1, 11467, Note_on_c, 7, 71, 0
1, 11467, Note_on_c, 7, 76, 0
1, 11467, Note_on_c, 7, 64, 0
1, 11467, Note_on_c, 7, 52, 0
1, 11467, Note_on_c, 7, 40, 0
1, 11647, Note_on_c, 7, 76, 100
1, 11887, Note_on_c, 7, 76, 0
1, 11887, Note_on_c, 7, 73, 100
1, 11887, Note_on_c, 7, 64, 100
1, 12067, Note_on_c, 7, 73, 0
1, 12067, Note_on_c, 7, 74, 100
1, 12127, Note_on_c, 7, 81, 100
1, 12127, Note_on_c, 7, 74, 0
1, 12127, Note_on_c, 7, 78, 100
1, 12127, Note_on_c, 7, 61, 100
1, 12127, Note_on_c, 7, 64, 0
1, 12187, Note_on_c, 7, 78, 0
1, 12187, Note_on_c, 7, 76, 100
1, 12247, Note_on_c, 7, 76, 0
1, 12247, Note_on_c, 7, 74, 100
1, 12277, Note_on_c, 7, 74, 0
1, 12307, Note_on_c, 7, 73, 100
1, 12307, Note_on_c, 7, 62, 100
1, 12307, Note_on_c, 7, 61, 0
1, 12337, Note_on_c, 7, 73, 0
1, 12367, Note_on_c, 7, 81, 0
1, 12367, Note_on_c, 7, 80, 100
1, 12367, Note_on_c, 7, 71, 100
1, 12367, Note_on_c, 7, 66, 100
1, 12367, Note_on_c, 7, 62, 0
1, 12427, Note_on_c, 7, 64, 100
1, 12427, Note_on_c, 7, 66, 0
1, 12487, Note_on_c, 7, 62, 100
1, 12487, Note_on_c, 7, 64, 0
1, 12517, Note_on_c, 7, 62, 0
1, 12547, Note_on_c, 7, 80, 0
1, 12547, Note_on_c, 7, 81, 100
1, 12547, Note_on_c, 7, 71, 0
1, 12547, Note_on_c, 7, 73, 100
1, 12547, Note_on_c, 7, 61, 100
1, 12577, Note_on_c, 7, 61, 0
1, 12607, Note_on_c, 7, 81, 0
1, 12607, Note_on_c, 7, 85, 100
1, 12607, Note_on_c, 7, 73, 0
1, 12607, Note_on_c, 7, 76, 100
1, 12607, Note_on_c, 7, 59, 100
1, 12667, Note_on_c, 7, 85, 0
1, 12667, Note_on_c, 7, 83, 100
1, 12667, Note_on_c, 7, 76, 0
1, 12667, Note_on_c, 7, 74, 100
1, 12727, Note_on_c, 7, 83, 0
1, 12727, Note_on_c, 7, 81, 100
1, 12727, Note_on_c, 7, 74, 0
1, 12727, Note_on_c, 7, 73, 100
1, 12757, Note_on_c, 7, 81, 0
1, 12757, Note_on_c, 7, 73, 0
1, 12787, Note_on_c, 7, 80, 100
1, 12787, Note_on_c, 7, 71, 100
1, 12787, Note_on_c, 7, 61, 100
1, 12787, Note_on_c, 7, 59, 0
1, 12817, Note_on_c, 7, 80, 0
1, 12817, Note_on_c, 7, 71, 0
1, 12847, Note_on_c, 7, 78, 100
1, 12847, Note_on_c, 7, 69, 100
1, 12847, Note_on_c, 7, 64, 100
1, 12847, Note_on_c, 7, 61, 0
1, 12907, Note_on_c, 7, 62, 100
1, 12907, Note_on_c, 7, 64, 0
1, 12967, Note_on_c, 7, 61, 100
1, 12967, Note_on_c, 7, 62, 0
1, 12997, Note_on_c, 7, 61, 0
1, 13027, Note_on_c, 7, 78, 0
1, 13027, Note_on_c, 7, 80, 100
1, 13027, Note_on_c, 7, 69, 0
1, 13027, Note_on_c, 7, 71, 100
1, 13027, Note_on_c, 7, 59, 100
1, 13057, Note_on_c, 7, 59, 0
1, 13087, Note_on_c, 7, 80, 0
1, 13087, Note_on_c, 7, 81, 100
1, 13087, Note_on_c, 7, 71, 0
1, 13087, Note_on_c, 7, 73, 100
1, 13087, Note_on_c, 7, 57, 100
1, 13147, Note_on_c, 7, 81, 0
1, 13147, Note_on_c, 7, 85, 100
1, 13147, Note_on_c, 7, 73, 0
1, 13147, Note_on_c, 7, 76, 100
1, 13207, Note_on_c, 7, 85, 0
1, 13207, Note_on_c, 7, 83, 100
1, 13207, Note_on_c, 7, 76, 0
1, 13207, Note_on_c, 7, 74, 100
1, 13237, Note_on_c, 7, 83, 0
1, 13237, Note_on_c, 7, 81, 100
1, 13237, Note_on_c, 7, 74, 0
1, 13237, Note_on_c, 7, 73, 100
1, 13267, Note_on_c, 7, 81, 0
1, 13267, Note_on_c, 7, 80, 100
1, 13267, Note_on_c, 7, 73, 0
1, 13267, Note_on_c, 7, 71, 100
1, 13267, Note_on_c, 7, 61, 100
1, 13297, Note_on_c, 7, 80, 0
1, 13297, Note_on_c, 7, 78, 100
1, 13297, Note_on_c, 7, 71, 0
1, 13297, Note_on_c, 7, 69, 100
1, 13327, Note_on_c, 7, 78, 0
1, 13327, Note_on_c, 7, 78, 100
1, 13327, Note_on_c, 7, 69, 0
1, 13327, Note_on_c, 7, 69, 100
1, 13327, Note_on_c, 7, 61, 0
1, 13327, Note_on_c, 7, 59, 100
1, 13327, Note_on_c, 7, 57, 0
1, 13387, Note_on_c, 7, 78, 0
1, 13387, Note_on_c, 7, 76, 100
1, 13387, Note_on_c, 7, 69, 0
1, 13387, Note_on_c, 7, 68, 100
1, 13447, Note_on_c, 7, 76, 0
1, 13447, Note_on_c, 7, 76, 100
1, 13447, Note_on_c, 7, 68, 0
1, 13447, Note_on_c, 7, 68, 100
1, 13447, Note_on_c, 7, 57, 100
1, 13507, Note_on_c, 7, 76, 0
1, 13507, Note_on_c, 7, 75, 100
1, 13507, Note_on_c, 7, 68, 0
1, 13507, Note_on_c, 7, 66, 100
1, 13507, Note_on_c, 7, 59, 0
1, 13567, Note_on_c, 7, 75, 0
1, 13567, Note_on_c, 7, 76, 100
1, 13567, Note_on_c, 7, 66, 0
1, 13567, Note_on_c, 7, 64, 100
1, 13567, Note_on_c, 7, 59, 100
1, 13567, Note_on_c, 7, 57, 0
1, 13567, Note_on_c, 7, 56, 100
1, 13627, Note_on_c, 7, 76, 0
1, 13627, Note_on_c, 7, 78, 100
1, 13627, Note_on_c, 7, 64, 0
1, 13627, Note_on_c, 7, 59, 0
1, 13627, Note_on_c, 7, 56, 0
1, 13687, Note_on_c, 7, 78, 0
1, 13687, Note_on_c, 7, 74, 100
1, 13687, Note_on_c, 7, 68, 100
1, 13687, Note_on_c, 7, 59, 100
1, 13687, Note_on_c, 7, 52, 100
1, 13747, Note_on_c, 7, 68, 0
1, 13747, Note_on_c, 7, 59, 0
1, 13747, Note_on_c, 7, 52, 0
1, 13807, Note_on_c, 7, 74, 0
1, 13867, Note_on_c, 7, 71, 100
1, 13867, Note_on_c, 7, 68, 100
1, 13927, Note_on_c, 7, 71, 0
1, 13927, Note_on_c, 7, 73, 100
1, 13927, Note_on_c, 7, 68, 0
1, 13927, Note_on_c, 7, 69, 100
1, 13927, Note_on_c, 7, 64, 100
1, 13927, Note_on_c, 7, 50, 100
1, 13987, Note_on_c, 7, 73, 0
1, 13987, Note_on_c, 7, 74, 100
1, 13987, Note_on_c, 7, 69, 0
1, 13987, Note_on_c, 7, 71, 100
1, 14047, Note_on_c, 7, 74, 0
1, 14047, Note_on_c, 7, 76, 100
1, 14047, Note_on_c, 7, 71, 0
1, 14047, Note_on_c, 7, 69, 100
1, 14047, Note_on_c, 7, 50, 0
1, 14047, Note_on_c, 7, 49, 100
1, 14107, Note_on_c, 7, 76, 0
1, 14107, Note_on_c, 7, 78, 100
1, 14107, Note_on_c, 7, 64, 0
1, 14107, Note_on_c, 7, 61, 100
1, 14167, Note_on_c, 7, 78, 0
1, 14167, Note_on_c, 7, 76, 100
1, 14167, Note_on_c, 7, 69, 0
1, 14167, Note_on_c, 7, 68, 100
1, 14167, Note_on_c, 7, 61, 0
1, 14167, Note_on_c, 7, 59, 100
1, 14167, Note_on_c, 7, 49, 0
1, 14167, Note_on_c, 7, 50, 100
1, 14197, Note_on_c, 7, 76, 0
1, 14197, Note_on_c, 7, 74, 100
1, 14197, Note_on_c, 7, 68, 0
1, 14197, Note_on_c, 7, 66, 100
1, 14227, Note_on_c, 7, 74, 0
1, 14227, Note_on_c, 7, 73, 100
1, 14227, Note_on_c, 7, 66, 0
1, 14227, Note_on_c, 7, 64, 100
1, 14227, Note_on_c, 7, 59, 0
1, 14227, Note_on_c, 7, 66, 100
1, 14257, Note_on_c, 7, 73, 0
1, 14257, Note_on_c, 7, 71, 100
1, 14257, Note_on_c, 7, 64, 0
1, 14257, Note_on_c, 7, 62, 100
1, 14257, Note_on_c, 7, 66, 0
1, 14287, Note_on_c, 7, 71, 0
1, 14287, Note_on_c, 7, 69, 100
1, 14287, Note_on_c, 7, 62, 0
1, 14287, Note_on_c, 7, 61, 100
1, 14287, Note_on_c, 7, 64, 100
1, 14287, Note_on_c, 7, 50, 0
1, 14287, Note_on_c, 7, 52, 100
1, 14347, Note_on_c, 7, 61, 0
1, 14347, Note_on_c, 7, 52, 0
1, 14407, Note_on_c, 7, 69, 0
1, 14407, Note_on_c, 7, 68, 100
1, 14407, Note_on_c, 7, 64, 0
1, 14407, Note_on_c, 7, 62, 100
1, 14407, Note_on_c, 7, 52, 100
1, 14467, Note_on_c, 7, 62, 0
1, 14467, Note_on_c, 7, 59, 100
1, 14467, Note_on_c, 7, 52, 0
1, 14527, Note_on_c, 5, 61, 80
1, 14527, Note_on_c, 5, 57, 80
1, 14527, Note_on_c, 6, 57, 80
1, 14527, Note_on_c, 6, 49, 80
1, 14527, Note_on_c, 7, 68, 0
1, 14527, Note_on_c, 7, 69, 100
1, 14527, Note_on_c, 7, 59, 0
1, 14527, Note_on_c, 7, 61, 100
1, 14527, Note_on_c, 7, 57, 100
1, 14527, Note_on_c, 7, 45, 100
1, 14587, Note_on_c, 7, 71, 100
1, 14617, Note_on_c, 7, 71, 0
1, 14617, Note_on_c, 7, 73, 100
1, 14647, Note_on_c, 7, 69, 0
1, 14647, Note_on_c, 7, 73, 0
1, 14647, Note_on_c, 7, 74, 100
1, 14677, Note_on_c, 7, 74, 0
1, 14677, Note_on_c, 7, 76, 100
1, 14707, Note_on_c, 7, 76, 0
1, 14707, Note_on_c, 7, 78, 100
1, 14737, Note_on_c, 7, 78, 0
1, 14737, Note_on_c, 7, 80, 100
1, 14767, Note_on_c, 5, 61, 0
1, 14767, Note_on_c, 5, 54, 80
1, 14767, Note_on_c, 6, 57, 0
1, 14767, Note_on_c, 6, 49, 0
1, 14767, Note_on_c, 7, 80, 0
1, 14767, Note_on_c, 7, 81, 100
1, 14767, Note_on_c, 7, 61, 0
1, 14767, Note_on_c, 7, 54, 100
1, 14767, Note_on_c, 7, 45, 0
1, 14767, Note_on_c, 7, 42, 100
1, 14797, Note_on_c, 7, 81, 0
1, 14797, Note_on_c, 7, 85, 100
1, 14827, Note_on_c, 7, 85, 0
1, 14827, Note_on_c, 7, 83, 100
1, 14857, Note_on_c, 7, 83, 0
1, 14857, Note_on_c, 7, 81, 100
1, 14887, Note_on_c, 7, 81, 0
1, 14887, Note_on_c, 7, 80, 100
1, 14917, Note_on_c, 7, 80, 0
1, 14917, Note_on_c, 7, 78, 100
1, 14947, Note_on_c, 7, 78, 0
1, 14947, Note_on_c, 7, 76, 100
1, 14977, Note_on_c, 5, 57, 0
1, 14977, Note_on_c, 5, 59, 80
1, 14977, Note_on_c, 5, 54, 0
1, 14977, Note_on_c, 5, 56, 80
1, 14977, Note_on_c, 7, 76, 0
1, 14977, Note_on_c, 7, 74, 100
1, 14977, Note_on_c, 7, 57, 0
1, 14977, Note_on_c, 7, 59, 100
1, 14977, Note_on_c, 7, 54, 0
1, 14977, Note_on_c, 7, 56, 100
1, 14977, Note_on_c, 7, 42, 0
1, 14977, Note_on_c, 7, 44, 100
1, 15007, Note_on_c, 4, 85, 80
1, 15007, Note_on_c, 4, 76, 80
1, 15007, Note_on_c, 5, 59, 0
1, 15007, Note_on_c, 5, 61, 80
1, 15007, Note_on_c, 5, 56, 0
1, 15007, Note_on_c, 5, 57, 80
1, 15007, Note_on_c, 6, 61, 80
1, 15007, Note_on_c, 6, 57, 80
1, 15007, Note_on_c, 7, 88, 100
1, 15007, Note_on_c, 7, 74, 0
1, 15007, Note_on_c, 7, 73, 100
1, 15007, Note_on_c, 7, 59, 0
1, 15007, Note_on_c, 7, 61, 100
1, 15007, Note_on_c, 7, 56, 0
1, 15007, Note_on_c, 7, 57, 100
1, 15007, Note_on_c, 7, 44, 0
1, 15007, Note_on_c, 7, 45, 100
1, 15037, Note_on_c, 7, 61, 0
1, 15067, Note_on_c, 7, 59, 100
1, 15067, Note_on_c, 7, 57, 0
1, 15067, Note_on_c, 7, 45, 0
1, 15097, Note_on_c, 7, 59, 0
1, 15097, Note_on_c, 7, 61, 100
1, 15127, Note_on_c, 5, 61, 0
1, 15127, Note_on_c, 5, 57, 0
1, 15127, Note_on_c, 7, 61, 0
1, 15127, Note_on_c, 7, 62, 100
1, 15127, Note_on_c, 7, 45, 100
1, 15127, Note_on_c, 7, 33, 100
1, 15157, Note_on_c, 7, 62, 0
1, 15157, Note_on_c, 7, 64, 100
1, 15187, Note_on_c, 7, 64, 0
1, 15187, Note_on_c, 7, 66, 100
1, 15187, Note_on_c, 7, 45, 0
1, 15187, Note_on_c, 7, 33, 0
1, 15217, Note_on_c, 7, 66, 0
1, 15217, Note_on_c, 7, 68, 100
1, 15247, Note_on_c, 4, 85, 0
1, 15247, Note_on_c, 4, 81, 80
1, 15247, Note_on_c, 4, 76, 0
1, 15247, Note_on_c, 4, 73, 80
1, 15247, Note_on_c, 6, 61, 0
1, 15247, Note_on_c, 6, 57, 0
1, 15247, Note_on_c, 7, 88, 0
1, 15247, Note_on_c, 7, 85, 100
1, 15247, Note_on_c, 7, 73, 0
1, 15247, Note_on_c, 7, 69, 100
1, 15247, Note_on_c, 7, 68, 0
1, 15277, Note_on_c, 7, 73, 100
1, 15307, Note_on_c, 7, 73, 0
1, 15307, Note_on_c, 7, 71, 100
1, 15337, Note_on_c, 7, 71, 0
1, 15367, Note_on_c, 7, 68, 100
1, 15397, Note_on_c, 7, 68, 0
1, 15397, Note_on_c, 7, 66, 100
1, 15427, Note_on_c, 7, 66, 0
1, 15427, Note_on_c, 7, 64, 100
1, 15457, Note_on_c, 4, 81, 0
1, 15457, Note_on_c, 4, 83, 80
1, 15457, Note_on_c, 4, 73, 0
1, 15457, Note_on_c, 4, 74, 80
1, 15457, Note_on_c, 7, 85, 0
1, 15457, Note_on_c, 7, 86, 100
1, 15457, Note_on_c, 7, 69, 0
1, 15457, Note_on_c, 7, 71, 100
1, 15457, Note_on_c, 7, 64, 0
1, 15457, Note_on_c, 7, 62, 100
1, 15487, Note_on_c, 4, 83, 0
1, 15487, Note_on_c, 4, 85, 80
1, 15487, Note_on_c, 4, 74, 0
1, 15487, Note_on_c, 4, 76, 80
1, 15487, Note_on_c, 5, 61, 80
1, 15487, Note_on_c, 5, 57, 80
1, 15487, Note_on_c, 6, 57, 80
1, 15487, Note_on_c, 6, 49, 80
1, 15487, Note_on_c, 7, 86, 0
1, 15487, Note_on_c, 7, 88, 100
1, 15487, Note_on_c, 7, 71, 0
1, 15487, Note_on_c, 7, 73, 100
1, 15487, Note_on_c, 7, 62, 0
1, 15487, Note_on_c, 7, 61, 100
1, 15487, Note_on_c, 7, 57, 100
1, 15487, Note_on_c, 7, 45, 100
1, 15517, Note_on_c, 7, 73, 0
1, 15517, Note_on_c, 7, 69, 100
1, 15547, Note_on_c, 7, 88, 0
1, 15547, Note_on_c, 7, 69, 0
1, 15547, Note_on_c, 7, 71, 100
1, 15577, Note_on_c, 7, 71, 0
1, 15577, Note_on_c, 7, 73, 100
1, 15607, Note_on_c, 4, 85, 0
1, 15607, Note_on_c, 4, 76, 0
1, 15607, Note_on_c, 7, 81, 100
1, 15607, Note_on_c, 7, 73, 0
1, 15607, Note_on_c, 7, 74, 100
1, 15637, Note_on_c, 7, 74, 0
1, 15637, Note_on_c, 7, 76, 100
1, 15667, Note_on_c, 7, 81, 0
1, 15667, Note_on_c, 7, 76, 0
1, 15667, Note_on_c, 7, 78, 100
1, 15697, Note_on_c, 7, 78, 0
1, 15697, Note_on_c, 7, 80, 100
1, 15727, Note_on_c, 5, 61, 0
1, 15727, Note_on_c, 5, 54, 80
1, 15727, Note_on_c, 6, 57, 0
1, 15727, Note_on_c, 6, 49, 0
1, 15727, Note_on_c, 7, 80, 0
1, 15727, Note_on_c, 7, 81, 100
1, 15727, Note_on_c, 7, 61, 0
1, 15727, Note_on_c, 7, 54, 100
1, 15727, Note_on_c, 7, 45, 0
1, 15727, Note_on_c, 7, 42, 100
1, 15757, Note_on_c, 7, 81, 0
1, 15757, Note_on_c, 7, 85, 100
1, 15787, Note_on_c, 7, 85, 0
1, 15787, Note_on_c, 7, 83, 100
1, 15817, Note_on_c, 7, 83, 0
1, 15817, Note_on_c, 7, 81, 100
1, 15847, Note_on_c, 7, 81, 0
1, 15847, Note_on_c, 7, 80, 100
1, 15877, Note_on_c, 7, 80, 0
1, 15877, Note_on_c, 7, 78, 100
1, 15907, Note_on_c, 7, 78, 0
1, 15907, Note_on_c, 7, 76, 100
1, 15937, Note_on_c, 5, 57, 0
1, 15937, Note_on_c, 5, 59, 80
1, 15937, Note_on_c, 5, 54, 0
1, 15937, Note_on_c, 5, 56, 80
1, 15937, Note_on_c, 7, 76, 0
1, 15937, Note_on_c, 7, 74, 100
1, 15937, Note_on_c, 7, 57, 0
1, 15937, Note_on_c, 7, 59, 100
1, 15937, Note_on_c, 7, 54, 0
1, 15937, Note_on_c, 7, 56, 100
1, 15937, Note_on_c, 7, 42, 0
1, 15937, Note_on_c, 7, 44, 100
1, 15967, Note_on_c, 4, 85, 80
1, 15967, Note_on_c, 4, 76, 80
1, 15967, Note_on_c, 5, 59, 0
1, 15967, Note_on_c, 5, 61, 80
1, 15967, Note_on_c, 5, 56, 0
1, 15967, Note_on_c, 5, 57, 80
1, 15967, Note_on_c, 6, 61, 80
1, 15967, Note_on_c, 6, 52, 80
1, 15967, Note_on_c, 7, 88, 100
1, 15967, Note_on_c, 7, 74, 0
1, 15967, Note_on_c, 7, 73, 100
1, 15967, Note_on_c, 7, 59, 0
1, 15967, Note_on_c, 7, 61, 100
1, 15967, Note_on_c, 7, 56, 0
1, 15967, Note_on_c, 7, 57, 100
1, 15967, Note_on_c, 7, 44, 0
1, 15967, Note_on_c, 7, 45, 100
1, 15997, Note_on_c, 7, 61, 0
1, 16027, Note_on_c, 7, 59, 100
1, 16027, Note_on_c, 7, 57, 0
1, 16027, Note_on_c, 7, 45, 0
1, 16057, Note_on_c, 7, 59, 0
1, 16057, Note_on_c, 7, 61, 100
1, 16087, Note_on_c, 5, 61, 0
1, 16087, Note_on_c, 5, 57, 0
1, 16087, Note_on_c, 7, 61, 0
1, 16087, Note_on_c, 7, 62, 100
1, 16087, Note_on_c, 7, 45, 100
1, 16087, Note_on_c, 7, 33, 100
1, 16117, Note_on_c, 7, 62, 0
1, 16117, Note_on_c, 7, 64, 100
1, 16147, Note_on_c, 7, 64, 0
1, 16147, Note_on_c, 7, 66, 100
1, 16147, Note_on_c, 7, 45, 0
1, 16147, Note_on_c, 7, 33, 0
1, 16177, Note_on_c, 7, 66, 0
1, 16177, Note_on_c, 7, 68, 100
1, 16207, Note_on_c, 4, 85, 0
1, 16207, Note_on_c, 4, 81, 80
1, 16207, Note_on_c, 4, 76, 0
1, 16207, Note_on_c, 4, 73, 80
1, 16207, Note_on_c, 6, 61, 0
1, 16207, Note_on_c, 6, 52, 0
1, 16207, Note_on_c, 7, 88, 0
1, 16207, Note_on_c, 7, 85, 100
1, 16207, Note_on_c, 7, 73, 0
1, 16207, Note_on_c, 7, 69, 100
1, 16207, Note_on_c, 7, 68, 0
1, 16237, Note_on_c, 7, 73, 100
1, 16267, Note_on_c, 7, 73, 0
1, 16267, Note_on_c, 7, 71, 100
1, 16297, Note_on_c, 7, 71, 0
1, 16327, Note_on_c, 7, 68, 100
1, 16357, Note_on_c, 7, 68, 0
1, 16357, Note_on_c, 7, 66, 100
1, 16387, Note_on_c, 7, 66, 0
1, 16387, Note_on_c, 7, 64, 100
1, 16417, Note_on_c, 4, 81, 0
1, 16417, Note_on_c, 4, 83, 80
1, 16417, Note_on_c, 4, 73, 0
1, 16417, Note_on_c, 4, 74, 80
1, 16417, Note_on_c, 7, 85, 0
1, 16417, Note_on_c, 7, 86, 100
1, 16417, Note_on_c, 7, 69, 0
1, 16417, Note_on_c, 7, 71, 100
1, 16417, Note_on_c, 7, 64, 0
1, 16417, Note_on_c, 7, 62, 100
1, 16447, Note_on_c, 4, 83, 0
1, 16447, Note_on_c, 4, 85, 80
1, 16447, Note_on_c, 4, 74, 0
1, 16447, Note_on_c, 4, 76, 80
1, 16447, Note_on_c, 5, 45, 80
1, 16447, Note_on_c, 6, 57, 80
1, 16447, Note_on_c, 6, 45, 80
1, 16447, Note_on_c, 7, 86, 0
1, 16447, Note_on_c, 7, 88, 100
1, 16447, Note_on_c, 7, 71, 0
1, 16447, Note_on_c, 7, 73, 100
1, 16447, Note_on_c, 7, 62, 0
1, 16447, Note_on_c, 7, 61, 100
1, 16447, Note_on_c, 7, 45, 100
1, 16447, Note_on_c, 7, 33, 100
1, 16477, Note_on_c, 7, 61, 0
1, 16477, Note_on_c, 7, 57, 100
1, 16507, Note_on_c, 5, 47, 80
1, 16507, Note_on_c, 5, 45, 0
1, 16507, Note_on_c, 7, 57, 0
1, 16507, Note_on_c, 7, 59, 100
1, 16507, Note_on_c, 7, 45, 0
1, 16507, Note_on_c, 7, 47, 100
1, 16507, Note_on_c, 7, 33, 0
1, 16507, Note_on_c, 7, 35, 100
1, 16537, Note_on_c, 5, 49, 80
1, 16537, Note_on_c, 5, 47, 0
1, 16537, Note_on_c, 7, 59, 0
1, 16537, Note_on_c, 7, 61, 100
1, 16537, Note_on_c, 7, 47, 0
1, 16537, Note_on_c, 7, 49, 100
1, 16537, Note_on_c, 7, 35, 0
1, 16537, Note_on_c, 7, 37, 100
1, 16567, Note_on_c, 4, 85, 0
1, 16567, Note_on_c, 4, 76, 0
1, 16567, Note_on_c, 5, 50, 80
1, 16567, Note_on_c, 5, 49, 0
1, 16567, Note_on_c, 6, 57, 0
1, 16567, Note_on_c, 6, 45, 0
1, 16567, Note_on_c, 7, 88, 0
1, 16567, Note_on_c, 7, 73, 0
1, 16567, Note_on_c, 7, 61, 0
1, 16567, Note_on_c, 7, 62, 100
1, 16567, Note_on_c, 7, 49, 0
1, 16567, Note_on_c, 7, 50, 100
1, 16567, Note_on_c, 7, 37, 0
1, 16567, Note_on_c, 7, 38, 100
1, 16597, Note_on_c, 5, 52, 80
1, 16597, Note_on_c, 5, 50, 0
1, 16597, Note_on_c, 7, 62, 0
1, 16597, Note_on_c, 7, 64, 100
1, 16597, Note_on_c, 7, 50, 0
1, 16597, Note_on_c, 7, 52, 100
1, 16597, Note_on_c, 7, 38, 0
1, 16597, Note_on_c, 7, 40, 100
1, 16627, Note_on_c, 4, 85, 80
1, 16627, Note_on_c, 4, 81, 80
1, 16627, Note_on_c, 5, 54, 80
1, 16627, Note_on_c, 5, 52, 0
1, 16627, Note_on_c, 6, 57, 80
1, 16627, Note_on_c, 6, 45, 80
1, 16627, Note_on_c, 7, 85, 100
1, 16627, Note_on_c, 7, 76, 100
1, 16627, Note_on_c, 7, 64, 0
1, 16627, Note_on_c, 7, 66, 100
1, 16627, Note_on_c, 7, 52, 0
1, 16627, Note_on_c, 7, 54, 100
1, 16627, Note_on_c, 7, 40, 0
1, 16627, Note_on_c, 7, 42, 100
1, 16657, Note_on_c, 4, 85, 0
1, 16657, Note_on_c, 4, 85, 80
1, 16657, Note_on_c, 4, 81, 0
1, 16657, Note_on_c, 4, 81, 80
1, 16657, Note_on_c, 5, 56, 80
1, 16657, Note_on_c, 5, 54, 0
1, 16657, Note_on_c, 6, 57, 0
1, 16657, Note_on_c, 6, 57, 80
1, 16657, Note_on_c, 6, 45, 0
1, 16657, Note_on_c, 6, 45, 80
1, 16657, Note_on_c, 7, 85, 0
1, 16657, Note_on_c, 7, 85, 100
1, 16657, Note_on_c, 7, 76, 0
1, 16657, Note_on_c, 7, 76, 100
1, 16657, Note_on_c, 7, 66, 0
1, 16657, Note_on_c, 7, 68, 100
1, 16657, Note_on_c, 7, 54, 0
1, 16657, Note_on_c, 7, 56, 100
1, 16657, Note_on_c, 7, 42, 0
1, 16657, Note_on_c, 7, 44, 100
1, 16687, Note_on_c, 4, 85, 0
1, 16687, Note_on_c, 4, 85, 80
1, 16687, Note_on_c, 4, 81, 0
1, 16687, Note_on_c, 4, 81, 80
1, 16687, Note_on_c, 5, 57, 80
1, 16687, Note_on_c, 5, 56, 0
1, 16687, Note_on_c, 6, 57, 0
1, 16687, Note_on_c, 6, 57, 80
1, 16687, Note_on_c, 6, 45, 0
1, 16687, Note_on_c, 6, 45, 80
1, 16687, Note_on_c, 7, 85, 0
1, 16687, Note_on_c, 7, 85, 100
1, 16687, Note_on_c, 7, 76, 0
1, 16687, Note_on_c, 7, 76, 100
1, 16687, Note_on_c, 7, 68, 0
1, 16687, Note_on_c, 7, 69, 100
1, 16687, Note_on_c, 7, 56, 0
1, 16687, Note_on_c, 7, 57, 100
1, 16687, Note_on_c, 7, 44, 0
1, 16687, Note_on_c, 7, 45, 100
1, 16717, Note_on_c, 5, 56, 80
1, 16717, Note_on_c, 5, 57, 0
1, 16717, Note_on_c, 7, 69, 0
1, 16717, Note_on_c, 7, 68, 100
1, 16717, Note_on_c, 7, 57, 0
1, 16717, Note_on_c, 7, 56, 100
1, 16717, Note_on_c, 7, 45, 0
1, 16717, Note_on_c, 7, 44, 100
1, 16747, Note_on_c, 4, 85, 0
1, 16747, Note_on_c, 4, 85, 80
1, 16747, Note_on_c, 4, 81, 0
1, 16747, Note_on_c, 4, 81, 80
1, 16747, Note_on_c, 5, 57, 80
1, 16747, Note_on_c, 5, 56, 0
1, 16747, Note_on_c, 6, 57, 0
1, 16747, Note_on_c, 6, 57, 80
1, 16747, Note_on_c, 6, 45, 0
1, 16747, Note_on_c, 6, 45, 80
1, 16747, Note_on_c, 7, 85, 0
1, 16747, Note_on_c, 7, 85, 100
1, 16747, Note_on_c, 7, 76, 0
1, 16747, Note_on_c, 7, 76, 100
1, 16747, Note_on_c, 7, 68, 0
1, 16747, Note_on_c, 7, 69, 100
1, 16747, Note_on_c, 7, 56, 0
1, 16747, Note_on_c, 7, 57, 100
1, 16747, Note_on_c, 7, 44, 0
1, 16747, Note_on_c, 7, 45, 100
1, 16777, Note_on_c, 5, 59, 80
1, 16777, Note_on_c, 5, 57, 0
1, 16777, Note_on_c, 7, 69, 0
1, 16777, Note_on_c, 7, 71, 100
1, 16777, Note_on_c, 7, 57, 0
1, 16777, Note_on_c, 7, 59, 100
1, 16777, Note_on_c, 7, 45, 0
1, 16777, Note_on_c, 7, 47, 100
1, 16807, Note_on_c, 4, 85, 0
1, 16807, Note_on_c, 4, 85, 80
1, 16807, Note_on_c, 4, 81, 0
1, 16807, Note_on_c, 4, 81, 80
1, 16807, Note_on_c, 5, 55, 80
1, 16807, Note_on_c, 5, 59, 0
1, 16807, Note_on_c, 6, 57, 0
1, 16807, Note_on_c, 6, 57, 80
1, 16807, Note_on_c, 6, 45, 0
1, 16807, Note_on_c, 6, 45, 80
1, 16807, Note_on_c, 7, 85, 0
1, 16807, Note_on_c, 7, 85, 100
1, 16807, Note_on_c, 7, 76, 0
1, 16807, Note_on_c, 7, 76, 100
1, 16807, Note_on_c, 7, 71, 0
1, 16807, Note_on_c, 7, 67, 100
1, 16807, Note_on_c, 7, 59, 0
1, 16807, Note_on_c, 7, 55, 100
1, 16807, Note_on_c, 7, 47, 0
1, 16807, Note_on_c, 7, 43, 100
1, 16837, Note_on_c, 5, 54, 80
1, 16837, Note_on_c, 5, 55, 0
1, 16837, Note_on_c, 7, 67, 0
1, 16837, Note_on_c, 7, 66, 100
1, 16837, Note_on_c, 7, 55, 0
1, 16837, Note_on_c, 7, 54, 100
1, 16837, Note_on_c, 7, 43, 0
1, 16837, Note_on_c, 7, 42, 100
1, 16867, Note_on_c, 4, 85, 0
1, 16867, Note_on_c, 4, 85, 80
1, 16867, Note_on_c, 4, 81, 0
1, 16867, Note_on_c, 4, 81, 80
1, 16867, Note_on_c, 5, 55, 80
1, 16867, Note_on_c, 5, 54, 0
1, 16867, Note_on_c, 6, 57, 0
1, 16867, Note_on_c, 6, 57, 80
1, 16867, Note_on_c, 6, 45, 0
1, 16867, Note_on_c, 6, 45, 80
1, 16867, Note_on_c, 7, 85, 0
1, 16867, Note_on_c, 7, 85, 100
1, 16867, Note_on_c, 7, 76, 0
1, 16867, Note_on_c, 7, 76, 100
1, 16867, Note_on_c, 7, 66, 0
1, 16867, Note_on_c, 7, 67, 100
1, 16867, Note_on_c, 7, 54, 0
1, 16867, Note_on_c, 7, 55, 100
1, 16867, Note_on_c, 7, 42, 0
1, 16867, Note_on_c, 7, 43, 100
1, 16897, Note_on_c, 5, 57, 80
1, 16897, Note_on_c, 5, 55, 0
1, 16897, Note_on_c, 7, 67, 0
1, 16897, Note_on_c, 7, 69, 100
1, 16897, Note_on_c, 7, 55, 0
1, 16897, Note_on_c, 7, 57, 100
1, 16897, Note_on_c, 7, 43, 0
1, 16897, Note_on_c, 7, 45, 100
1, 16927, Note_on_c, 4, 85, 0
1, 16927, Note_on_c, 4, 86, 80
1, 16927, Note_on_c, 4, 81, 0
1, 16927, Note_on_c, 4, 81, 80
1, 16927, Note_on_c, 5, 54, 80
1, 16927, Note_on_c, 5, 57, 0
1, 16927, Note_on_c, 6, 57, 0
1, 16927, Note_on_c, 6, 57, 80
1, 16927, Note_on_c, 6, 45, 0
1, 16927, Note_on_c, 6, 45, 80
1, 16927, Note_on_c, 7, 85, 0
1, 16927, Note_on_c, 7, 86, 100
1, 16927, Note_on_c, 7, 76, 0
1, 16927, Note_on_c, 7, 78, 100
1, 16927, Note_on_c, 7, 69, 0
1, 16927, Note_on_c, 7, 66, 100
1, 16927, Note_on_c, 7, 57, 0
1, 16927, Note_on_c, 7, 54, 100
1, 16927, Note_on_c, 7, 45, 0
1, 16927, Note_on_c, 7, 42, 100
1, 16987, Note_on_c, 4, 86, 0
1, 16987, Note_on_c, 4, 81, 0
1, 16987, Note_on_c, 5, 54, 0
1, 16987, Note_on_c, 6, 57, 0
1, 16987, Note_on_c, 6, 45, 0
1, 16987, Note_on_c, 7, 86, 0
1, 16987, Note_on_c, 7, 78, 0
1, 16987, Note_on_c, 7, 66, 0
1, 16987, Note_on_c, 7, 54, 0
1, 16987, Note_on_c, 7, 42, 0
1, 17047, Note_on_c, 4, 88, 80
1, 17047, Note_on_c, 4, 81, 80
1, 17047, Note_on_c, 5, 49, 80
1, 17047, Note_on_c, 6, 57, 80
1, 17047, Note_on_c, 6, 45, 80
1, 17047, Note_on_c, 7, 69, 100
1, 17047, Note_on_c, 7, 81, 100
1, 17047, Note_on_c, 7, 76, 100
1, 17047, Note_on_c, 7, 61, 100
1, 17047, Note_on_c, 7, 49, 100
1, 17047, Note_on_c, 7, 37, 100
1, 17107, Note_on_c, 4, 88, 0
1, 17107, Note_on_c, 4, 81, 0
1, 17107, Note_on_c, 5, 49, 0
1, 17107, Note_on_c, 6, 57, 0
1, 17107, Note_on_c, 6, 45, 0
1, 17107, Note_on_c, 7, 81, 0
1, 17107, Note_on_c, 7, 69, 0
1, 17107, Note_on_c, 7, 76, 0
1, 17107, Note_on_c, 7, 61, 0
1, 17107, Note_on_c, 7, 49, 0
1, 17107, Note_on_c, 7, 37, 0
1, 17167, Note_on_c, 4, 90, 80
1, 17167, Note_on_c, 4, 81, 80
1, 17167, Note_on_c, 5, 50, 80
1, 17167, Note_on_c, 6, 57, 80
1, 17167, Note_on_c, 6, 45, 80
1, 17167, Note_on_c, 7, 62, 100
1, 17167, Note_on_c, 7, 69, 100
1, 17167, Note_on_c, 7, 78, 100
1, 17167, Note_on_c, 7, 57, 100
1, 17167, Note_on_c, 7, 66, 100
1, 17167, Note_on_c, 7, 74, 100
1, 17167, Note_on_c, 7, 50, 100
1, 17167, Note_on_c, 7, 38, 100
1, 17227, Note_on_c, 4, 90, 0
1, 17227, Note_on_c, 4, 81, 0
1, 17227, Note_on_c, 5, 50, 0
1, 17227, Note_on_c, 6, 57, 0
1, 17227, Note_on_c, 6, 45, 0
1, 17227, Note_on_c, 7, 69, 0
1, 17227, Note_on_c, 7, 78, 0
1, 17227, Note_on_c, 7, 57, 0
1, 17227, Note_on_c, 7, 66, 0
1, 17227, Note_on_c, 7, 74, 0
1, 17227, Note_on_c, 7, 62, 0
1, 17227, Note_on_c, 7, 50, 0
1, 17227, Note_on_c, 7, 38, 0
1, 17407, Note_on_c, 7, 66, 100
1, 17407, Note_on_c, 7, 54, 100
1, 17587, Note_on_c, 7, 66, 0
1, 17587, Note_on_c, 7, 68, 100
1, 17587, Note_on_c, 7, 54, 0
1, 17587, Note_on_c, 7, 56, 100
1, 17617, Note_on_c, 7, 68, 0
1, 17617, Note_on_c, 7, 70, 100
1, 17617, Note_on_c, 7, 56, 0
1, 17617, Note_on_c, 7, 58, 100
1, 17647, Note_on_c, 7, 70, 0
1, 17647, Note_on_c, 7, 71, 100
1, 17647, Note_on_c, 7, 58, 0
1, 17647, Note_on_c, 7, 59, 100
1, 17707, Note_on_c, 7, 71, 0
1, 17707, Note_on_c, 7, 73, 100
1, 17707, Note_on_c, 7, 59, 0
1, 17707, Note_on_c, 7, 61, 100
1, 17767, Note_on_c, 7, 73, 0
1, 17767, Note_on_c, 7, 74, 100
1, 17767, Note_on_c, 7, 61, 0
1, 17767, Note_on_c, 7, 62, 100
1, 17827, Note_on_c, 7, 74, 0
1, 17827, Note_on_c, 7, 76, 100
1, 17827, Note_on_c, 7, 62, 0
1, 17827, Note_on_c, 7, 64, 100
1, 17887, Note_on_c, 7, 76, 0
1, 17887, Note_on_c, 7, 78, 100
1, 17887, Note_on_c, 7, 64, 0
1, 17887, Note_on_c, 7, 66, 100
1, 17947, Note_on_c, 7, 78, 0
1, 17947, Note_on_c, 7, 70, 100
1, 17947, Note_on_c, 7, 61, 100
1, 17947, Note_on_c, 7, 66, 0
1, 17947, Note_on_c, 7, 58, 100
1, 18007, Note_on_c, 7, 70, 0
1, 18007, Note_on_c, 7, 71, 100
1, 18007, Note_on_c, 7, 61, 0
1, 18007, Note_on_c, 7, 62, 100
1, 18007, Note_on_c, 7, 58, 0
1, 18007, Note_on_c, 7, 59, 100
1, 18007, Note_on_c, 7, 50, 100
1, 18007, Note_on_c, 7, 38, 100
1, 18067, Note_on_c, 7, 71, 0
1, 18067, Note_on_c, 7, 74, 100
1, 18067, Note_on_c, 7, 62, 0
1, 18067, Note_on_c, 7, 66, 100
1, 18067, Note_on_c, 7, 59, 0
1, 18067, Note_on_c, 7, 62, 100
1, 18127, Note_on_c, 7, 74, 0
1, 18127, Note_on_c, 7, 69, 100
1, 18127, Note_on_c, 7, 66, 0
1, 18127, Note_on_c, 7, 61, 100
1, 18127, Note_on_c, 7, 62, 0
1, 18127, Note_on_c, 7, 57, 100
1, 18127, Note_on_c, 7, 50, 0
1, 18127, Note_on_c, 7, 52, 100
1, 18127, Note_on_c, 7, 38, 0
1, 18127, Note_on_c, 7, 40, 100
1, 18247, Note_on_c, 7, 69, 0
1, 18247, Note_on_c, 7, 68, 100
1, 18247, Note_on_c, 7, 61, 0
1, 18247, Note_on_c, 7, 59, 100
1, 18247, Note_on_c, 7, 57, 0
1, 18247, Note_on_c, 7, 56, 100
1, 18247, Note_on_c, 7, 52, 0
1, 18247, Note_on_c, 7, 52, 100
1, 18247, Note_on_c, 7, 40, 0
1, 18247, Note_on_c, 7, 40, 100
1, 18307, Note_on_c, 7, 52, 0
1, 18307, Note_on_c, 7, 40, 0
1, 18367, Note_on_c, 7, 68, 0
1, 18367, Note_on_c, 7, 69, 100
1, 18367, Note_on_c, 7, 59, 0
1, 18367, Note_on_c, 7, 57, 100
1, 18367, Note_on_c, 7, 56, 0
1, 18367, Note_on_c, 7, 61, 100
1, 18367, Note_on_c, 7, 45, 100
1, 18397, Note_on_c, 7, 69, 0
1, 18397, Note_on_c, 7, 61, 0
1, 18397, Note_on_c, 7, 64, 100
1, 18427, Note_on_c, 7, 81, 100
1, 18427, Note_on_c, 7, 64, 0
1, 18427, Note_on_c, 7, 64, 100
1, 18427, Note_on_c, 7, 45, 0
1, 18442, Note_on_c, 7, 64, 0
1, 18457, Note_on_c, 7, 64, 100
1, 18472, Note_on_c, 7, 64, 0
1, 18487, Note_on_c, 4, 68, 80
1, 18487, Note_on_c, 5, 64, 80
1, 18487, Note_on_c, 5, 62, 80
1, 18487, Note_on_c, 7, 81, 0
1, 18487, Note_on_c, 7, 80, 100
1, 18487, Note_on_c, 7, 57, 0
1, 18487, Note_on_c, 7, 62, 100
1, 18487, Note_on_c, 7, 59, 100
1, 18487, Note_on_c, 7, 47, 100
1, 18517, Note_on_c, 7, 62, 0
1, 18517, Note_on_c, 7, 64, 100
1, 18547, Note_on_c, 4, 68, 0
1, 18547, Note_on_c, 5, 64, 0
1, 18547, Note_on_c, 5, 62, 0
1, 18547, Note_on_c, 7, 80, 0
1, 18547, Note_on_c, 7, 74, 100
1, 18547, Note_on_c, 7, 64, 0
1, 18547, Note_on_c, 7, 64, 100
1, 18547, Note_on_c, 7, 59, 0
1, 18547, Note_on_c, 7, 47, 0
1, 18562, Note_on_c, 7, 64, 0
1, 18577, Note_on_c, 7, 64, 100
1, 18592, Note_on_c, 7, 64, 0
1, 18607, Note_on_c, 4, 69, 80
1, 18607, Note_on_c, 5, 64, 80
1, 18607, Note_on_c, 5, 61, 80
1, 18607, Note_on_c, 7, 74, 0
1, 18607, Note_on_c, 7, 73, 100
1, 18607, Note_on_c, 7, 61, 100
1, 18607, Note_on_c, 7, 57, 100
1, 18607, Note_on_c, 7, 45, 100
1, 18637, Note_on_c, 7, 61, 0
1, 18637, Note_on_c, 7, 64, 100
1, 18667, Note_on_c, 4, 69, 0
1, 18667, Note_on_c, 5, 64, 0
1, 18667, Note_on_c, 5, 61, 0
1, 18667, Note_on_c, 7, 73, 0
1, 18667, Note_on_c, 7, 85, 100
1, 18667, Note_on_c, 7, 69, 100
1, 18667, Note_on_c, 7, 64, 0
1, 18667, Note_on_c, 7, 64, 100
1, 18667, Note_on_c, 7, 57, 0
1, 18667, Note_on_c, 7, 45, 0
1, 18677, Note_on_c, 7, 85, 0
1, 18677, Note_on_c, 7, 86, 100
1, 18682, Note_on_c, 7, 64, 0
1, 18687, Note_on_c, 7, 86, 0
1, 18687, Note_on_c, 7, 85, 100
1, 18697, Note_on_c, 7, 85, 0
1, 18697, Note_on_c, 7, 83, 100
1, 18697, Note_on_c, 7, 64, 100
1, 18712, Note_on_c, 7, 83, 0
1, 18712, Note_on_c, 7, 85, 100
1, 18712, Note_on_c, 7, 64, 0
1, 18727, Note_on_c, 4, 86, 80
1, 18727, Note_on_c, 4, 80, 80
1, 18727, Note_on_c, 6, 59, 80
1, 18727, Note_on_c, 6, 52, 80
1, 18727, Note_on_c, 7, 85, 0
1, 18727, Note_on_c, 7, 86, 100
1, 18727, Note_on_c, 7, 69, 0
1, 18727, Note_on_c, 7, 68, 100
1, 18727, Note_on_c, 7, 59, 100
1, 18727, Note_on_c, 7, 52, 100
1, 18727, Note_on_c, 7, 40, 100
1, 18757, Note_on_c, 7, 59, 0
1, 18757, Note_on_c, 7, 64, 100
1, 18787, Note_on_c, 4, 86, 0
1, 18787, Note_on_c, 4, 80, 0
1, 18787, Note_on_c, 6, 59, 0
1, 18787, Note_on_c, 6, 52, 0
1, 18787, Note_on_c, 7, 86, 0
1, 18787, Note_on_c, 7, 68, 0
1, 18787, Note_on_c, 7, 62, 100
1, 18787, Note_on_c, 7, 64, 0
1, 18787, Note_on_c, 7, 64, 100
1, 18787, Note_on_c, 7, 52, 0
1, 18787, Note_on_c, 7, 40, 0
1, 18802, Note_on_c, 7, 64, 0
1, 18817, Note_on_c, 7, 64, 100
1, 18832, Note_on_c, 7, 64, 0
1, 18847, Note_on_c, 4, 85, 80
1, 18847, Note_on_c, 4, 81, 80
1, 18847, Note_on_c, 6, 61, 80
1, 18847, Note_on_c, 6, 57, 80
1, 18847, Note_on_c, 7, 62, 0
1, 18847, Note_on_c, 7, 61, 100
1, 18847, Note_on_c, 7, 57, 100
1, 18847, Note_on_c, 7, 45, 100
1, 18877, Note_on_c, 7, 64, 100
1, 18907, Note_on_c, 4, 85, 0
1, 18907, Note_on_c, 4, 81, 0
1, 18907, Note_on_c, 6, 61, 0
1, 18907, Note_on_c, 6, 57, 0
1, 18907, Note_on_c, 7, 81, 100
1, 18907, Note_on_c, 7, 61, 0
1, 18907, Note_on_c, 7, 73, 100
1, 18907, Note_on_c, 7, 64, 0
1, 18907, Note_on_c, 7, 64, 100
1, 18907, Note_on_c, 7, 57, 0
1, 18907, Note_on_c, 7, 45, 0
1, 18917, Note_on_c, 7, 73, 0
1, 18917, Note_on_c, 7, 74, 100
1, 18922, Note_on_c, 7, 64, 0
1, 18927, Note_on_c, 7, 74, 0
1, 18927, Note_on_c, 7, 73, 100
1, 18937, Note_on_c, 7, 73, 0
1, 18937, Note_on_c, 7, 71, 100
1, 18937, Note_on_c, 7, 64, 100
1, 18952, Note_on_c, 7, 71, 0
1, 18952, Note_on_c, 7, 73, 100
1, 18952, Note_on_c, 7, 64, 0
1, 18967, Note_on_c, 4, 68, 80
1, 18967, Note_on_c, 5, 64, 80
1, 18967, Note_on_c, 5, 62, 80
1, 18967, Note_on_c, 7, 81, 0
1, 18967, Note_on_c, 7, 80, 100
1, 18967, Note_on_c, 7, 73, 0
1, 18967, Note_on_c, 7, 74, 100
1, 18967, Note_on_c, 7, 59, 100
1, 18967, Note_on_c, 7, 47, 100
1, 18997, Note_on_c, 7, 64, 100
1, 19027, Note_on_c, 4, 68, 0
1, 19027, Note_on_c, 5, 64, 0
1, 19027, Note_on_c, 5, 62, 0
1, 19027, Note_on_c, 7, 80, 0
1, 19027, Note_on_c, 7, 64, 0
1, 19027, Note_on_c, 7, 64, 100
1, 19027, Note_on_c, 7, 59, 0
1, 19027, Note_on_c, 7, 47, 0
1, 19042, Note_on_c, 7, 64, 0
1, 19057, Note_on_c, 7, 64, 100
1, 19072, Note_on_c, 7, 64, 0
1, 19087, Note_on_c, 4, 69, 80
1, 19087, Note_on_c, 5, 64, 80
1, 19087, Note_on_c, 5, 61, 80
1, 19087, Note_on_c, 7, 74, 0
1, 19087, Note_on_c, 7, 73, 100
1, 19087, Note_on_c, 7, 61, 100
1, 19087, Note_on_c, 7, 57, 100
1, 19087, Note_on_c, 7, 45, 100
1, 19117, Note_on_c, 7, 61, 0
1, 19117, Note_on_c, 7, 64, 100
1, 19147, Note_on_c, 4, 69, 0
1, 19147, Note_on_c, 5, 64, 0
1, 19147, Note_on_c, 5, 61, 0
1, 19147, Note_on_c, 7, 73, 0
1, 19147, Note_on_c, 7, 85, 100
1, 19147, Note_on_c, 7, 69, 100
1, 19147, Note_on_c, 7, 64, 0
1, 19147, Note_on_c, 7, 64, 100
1, 19147, Note_on_c, 7, 57, 0
1, 19147, Note_on_c, 7, 45, 0
1, 19157, Note_on_c, 7, 85, 0
1, 19157, Note_on_c, 7, 86, 100
1, 19162, Note_on_c, 7, 64, 0
1, 19167, Note_on_c, 7, 86, 0
1, 19167, Note_on_c, 7, 85, 100
1, 19177, Note_on_c, 7, 85, 0
1, 19177, Note_on_c, 7, 83, 100
1, 19177, Note_on_c, 7, 64, 100
1, 19192, Note_on_c, 7, 83, 0
1, 19192, Note_on_c, 7, 85, 100
1, 19192, Note_on_c, 7, 64, 0
1, 19207, Note_on_c, 4, 86, 80
1, 19207, Note_on_c, 4, 80, 80
1, 19207, Note_on_c, 5, 64, 80
1, 19207, Note_on_c, 6, 59, 80
1, 19207, Note_on_c, 6, 52, 80
1, 19207, Note_on_c, 7, 85, 0
1, 19207, Note_on_c, 7, 86, 100
1, 19207, Note_on_c, 7, 69, 0
1, 19207, Note_on_c, 7, 68, 100
1, 19207, Note_on_c, 7, 59, 100
1, 19207, Note_on_c, 7, 50, 100
1, 19207, Note_on_c, 7, 38, 100
1, 19237, Note_on_c, 7, 59, 0
1, 19237, Note_on_c, 7, 64, 100
1, 19267, Note_on_c, 4, 86, 0
1, 19267, Note_on_c, 4, 80, 0
1, 19267, Note_on_c, 6, 59, 0
1, 19267, Note_on_c, 6, 52, 0
1, 19267, Note_on_c, 7, 86, 0
1, 19267, Note_on_c, 7, 68, 0
1, 19267, Note_on_c, 7, 62, 100
1, 19267, Note_on_c, 7, 64, 0
1, 19267, Note_on_c, 7, 64, 100
1, 19267, Note_on_c, 7, 50, 0
1, 19267, Note_on_c, 7, 38, 0
1, 19282, Note_on_c, 7, 64, 0
1, 19297, Note_on_c, 7, 64, 100
1, 19312, Note_on_c, 7, 64, 0
1, 19327, Note_on_c, 4, 85, 80
1, 19327, Note_on_c, 4, 81, 80
1, 19327, Note_on_c, 5, 64, 0
1, 19327, Note_on_c, 6, 61, 80
1, 19327, Note_on_c, 6, 57, 80
1, 19327, Note_on_c, 7, 62, 0
1, 19327, Note_on_c, 7, 61, 100
1, 19327, Note_on_c, 7, 57, 100
1, 19327, Note_on_c, 7, 45, 100
1, 19357, Note_on_c, 7, 64, 100
1, 19387, Note_on_c, 4, 85, 0
1, 19387, Note_on_c, 4, 81, 0
1, 19387, Note_on_c, 6, 61, 0
1, 19387, Note_on_c, 6, 57, 0
1, 19387, Note_on_c, 7, 81, 100
1, 19387, Note_on_c, 7, 61, 0
1, 19387, Note_on_c, 7, 73, 100
1, 19387, Note_on_c, 7, 64, 0
1, 19387, Note_on_c, 7, 64, 100
1, 19387, Note_on_c, 7, 57, 0
1, 19387, Note_on_c, 7, 45, 0
1, 19397, Note_on_c, 7, 73, 0
1, 19397, Note_on_c, 7, 74, 100
1, 19402, Note_on_c, 7, 64, 0
1, 19407, Note_on_c, 7, 74, 0
1, 19407, Note_on_c, 7, 73, 100
1, 19417, Note_on_c, 7, 73, 0
1, 19417, Note_on_c, 7, 71, 100
1, 19417, Note_on_c, 7, 64, 100
1, 19432, Note_on_c, 7, 71, 0
1, 19432, Note_on_c, 7, 73, 100
1, 19432, Note_on_c, 7, 64, 0
1, 19447, Note_on_c, 4, 68, 80
1, 19447, Note_on_c, 5, 64, 80
1, 19447, Note_on_c, 5, 62, 80
1, 19447, Note_on_c, 7, 81, 0
1, 19447, Note_on_c, 7, 80, 100
1, 19447, Note_on_c, 7, 73, 0
1, 19447, Note_on_c, 7, 74, 100
1, 19447, Note_on_c, 7, 59, 100
1, 19447, Note_on_c, 7, 47, 100
1, 19477, Note_on_c, 7, 64, 100
1, 19507, Note_on_c, 4, 68, 0
1, 19507, Note_on_c, 5, 64, 0
1, 19507, Note_on_c, 5, 62, 0
1, 19507, Note_on_c, 7, 80, 0
1, 19507, Note_on_c, 7, 64, 0
1, 19507, Note_on_c, 7, 64, 100
1, 19507, Note_on_c, 7, 59, 0
1, 19507, Note_on_c, 7, 47, 0
1, 19522, Note_on_c, 7, 64, 0
1, 19537, Note_on_c, 7, 64, 100
1, 19552, Note_on_c, 7, 64, 0
1, 19567, Note_on_c, 4, 69, 80
1, 19567, Note_on_c, 5, 64, 80
1, 19567, Note_on_c, 5, 61, 80
1, 19567, Note_on_c, 7, 74, 0
1, 19567, Note_on_c, 7, 73, 100
1, 19567, Note_on_c, 7, 61, 100
1, 19567, Note_on_c, 7, 57, 100
1, 19567, Note_on_c, 7, 45, 100
1, 19597, Note_on_c, 7, 61, 0
1, 19597, Note_on_c, 7, 64, 100
1, 19627, Note_on_c, 4, 69, 0
1, 19627, Note_on_c, 5, 64, 0
1, 19627, Note_on_c, 5, 61, 0
1, 19627, Note_on_c, 7, 73, 0
1, 19627, Note_on_c, 7, 85, 100
1, 19627, Note_on_c, 7, 69, 100
1, 19627, Note_on_c, 7, 64, 0
1, 19627, Note_on_c, 7, 64, 100
1, 19627, Note_on_c, 7, 57, 0
1, 19627, Note_on_c, 7, 45, 0
1, 19637, Note_on_c, 7, 85, 0
1, 19637, Note_on_c, 7, 86, 100
1, 19642, Note_on_c, 7, 64, 0
1, 19647, Note_on_c, 7, 86, 0
1, 19647, Note_on_c, 7, 85, 100
1, 19657, Note_on_c, 7, 85, 0
1, 19657, Note_on_c, 7, 83, 100
1, 19657, Note_on_c, 7, 64, 100
1, 19672, Note_on_c, 7, 83, 0
1, 19672, Note_on_c, 7, 85, 100
1, 19672, Note_on_c, 7, 64, 0
1, 19687, Note_on_c, 4, 86, 80
1, 19687, Note_on_c, 4, 80, 80
1, 19687, Note_on_c, 6, 59, 80
1, 19687, Note_on_c, 6, 52, 80
1, 19687, Note_on_c, 7, 85, 0
1, 19687, Note_on_c, 7, 86, 100
1, 19687, Note_on_c, 7, 69, 0
1, 19687, Note_on_c, 7, 68, 100
1, 19687, Note_on_c, 7, 59, 100
1, 19687, Note_on_c, 7, 52, 100
1, 19687, Note_on_c, 7, 40, 100
1, 19717, Note_on_c, 7, 59, 0
1, 19717, Note_on_c, 7, 64, 100
1, 19747, Note_on_c, 4, 86, 0
1, 19747, Note_on_c, 4, 80, 0
1, 19747, Note_on_c, 6, 59, 0
1, 19747, Note_on_c, 6, 52, 0
1, 19747, Note_on_c, 7, 86, 0
1, 19747, Note_on_c, 7, 68, 0
1, 19747, Note_on_c, 7, 80, 100
1, 19747, Note_on_c, 7, 64, 0
1, 19747, Note_on_c, 7, 64, 100
1, 19747, Note_on_c, 7, 52, 0
1, 19747, Note_on_c, 7, 40, 0
1, 19757, Note_on_c, 7, 80, 0
1, 19757, Note_on_c, 7, 81, 100
1, 19762, Note_on_c, 7, 64, 0
1, 19767, Note_on_c, 7, 81, 0
1, 19767, Note_on_c, 7, 80, 100
1, 19777, Note_on_c, 7, 80, 0
1, 19777, Note_on_c, 7, 78, 100
1, 19777, Note_on_c, 7, 64, 100
1, 19792, Note_on_c, 7, 78, 0
1, 19792, Note_on_c, 7, 80, 100
1, 19792, Note_on_c, 7, 64, 0
1, 19807, Note_on_c, 4, 85, 80
1, 19807, Note_on_c, 4, 81, 80
1, 19807, Note_on_c, 5, 64, 80
1, 19807, Note_on_c, 5, 61, 80
1, 19807, Note_on_c, 6, 61, 80
1, 19807, Note_on_c, 6, 57, 80
1, 19807, Note_on_c, 7, 80, 0
1, 19807, Note_on_c, 7, 81, 100
1, 19807, Note_on_c, 7, 64, 100
1, 19807, Note_on_c, 7, 57, 100
1, 19807, Note_on_c, 7, 45, 100
1, 19822, Note_on_c, 7, 64, 0
1, 19837, Note_on_c, 7, 73, 100
1, 19852, Note_on_c, 7, 73, 0
1, 19867, Note_on_c, 4, 85, 0
1, 19867, Note_on_c, 4, 81, 0
1, 19867, Note_on_c, 5, 64, 0
1, 19867, Note_on_c, 5, 61, 0
1, 19867, Note_on_c, 6, 61, 0
1, 19867, Note_on_c, 6, 57, 0
1, 19867, Note_on_c, 7, 85, 100
1, 19867, Note_on_c, 7, 81, 0
1, 19867, Note_on_c, 7, 69, 100
1, 19867, Note_on_c, 7, 57, 0
1, 19867, Note_on_c, 7, 45, 0
1, 19877, Note_on_c, 7, 85, 0
1, 19877, Note_on_c, 7, 86, 100
1, 19882, Note_on_c, 7, 69, 0
1, 19887, Note_on_c, 7, 86, 0
1, 19887, Note_on_c, 7, 85, 100
1, 19897, Note_on_c, 7, 85, 0
1, 19897, Note_on_c, 7, 83, 100
1, 19897, Note_on_c, 7, 73, 100
1, 19912, Note_on_c, 7, 83, 0
1, 19912, Note_on_c, 7, 85, 100
1, 19912, Note_on_c, 7, 73, 0
1, 19927, Note_on_c, 4, 86, 80
1, 19927, Note_on_c, 4, 80, 80
1, 19927, Note_on_c, 5, 64, 80
1, 19927, Note_on_c, 5, 61, 80
1, 19927, Note_on_c, 6, 59, 80
1, 19927, Note_on_c, 6, 52, 80
1, 19927, Note_on_c, 7, 85, 0
1, 19927, Note_on_c, 7, 86, 100
1, 19927, Note_on_c, 7, 64, 100
1, 19927, Note_on_c, 7, 52, 100
1, 19927, Note_on_c, 7, 40, 100
1, 19942, Note_on_c, 7, 64, 0
1, 19957, Note_on_c, 7, 74, 100
1, 19972, Note_on_c, 7, 74, 0
1, 19987, Note_on_c, 4, 86, 0
1, 19987, Note_on_c, 4, 80, 0
1, 19987, Note_on_c, 5, 64, 0
1, 19987, Note_on_c, 5, 61, 0
1, 19987, Note_on_c, 6, 59, 0
1, 19987, Note_on_c, 6, 52, 0
1, 19987, Note_on_c, 7, 86, 0
1, 19987, Note_on_c, 7, 80, 100
1, 19987, Note_on_c, 7, 71, 100
1, 19987, Note_on_c, 7, 52, 0
1, 19987, Note_on_c, 7, 40, 0
1, 19997, Note_on_c, 7, 80, 0
1, 19997, Note_on_c, 7, 81, 100
1, 20002, Note_on_c, 7, 71, 0
1, 20007, Note_on_c, 7, 81, 0
1, 20007, Note_on_c, 7, 80, 100
1, 20017, Note_on_c, 7, 80, 0
1, 20017, Note_on_c, 7, 78, 100
1, 20017, Note_on_c, 7, 74, 100
1, 20032, Note_on_c, 7, 78, 0
1, 20032, Note_on_c, 7, 80, 100
1, 20032, Note_on_c, 7, 74, 0
1, 20047, Note_on_c, 4, 85, 80
1, 20047, Note_on_c, 4, 81, 80
1, 20047, Note_on_c, 5, 64, 80
1, 20047, Note_on_c, 5, 61, 80
1, 20047, Note_on_c, 6, 61, 80
1, 20047, Note_on_c, 6, 57, 80
1, 20047, Note_on_c, 7, 80, 0
1, 20047, Note_on_c, 7, 81, 100
1, 20047, Note_on_c, 7, 64, 100
1, 20047, Note_on_c, 7, 57, 100
1, 20047, Note_on_c, 7, 45, 100
1, 20062, Note_on_c, 7, 64, 0
1, 20077, Note_on_c, 7, 73, 100
1, 20092, Note_on_c, 7, 73, 0
1, 20107, Note_on_c, 4, 85, 0
1, 20107, Note_on_c, 4, 81, 0
1, 20107, Note_on_c, 5, 64, 0
1, 20107, Note_on_c, 5, 61, 0
1, 20107, Note_on_c, 6, 61, 0
1, 20107, Note_on_c, 6, 57, 0
1, 20107, Note_on_c, 7, 85, 100
1, 20107, Note_on_c, 7, 81, 0
1, 20107, Note_on_c, 7, 69, 100
1, 20107, Note_on_c, 7, 57, 0
1, 20107, Note_on_c, 7, 45, 0
1, 20117, Note_on_c, 7, 85, 0
1, 20117, Note_on_c, 7, 86, 100
1, 20122, Note_on_c, 7, 69, 0
1, 20127, Note_on_c, 7, 86, 0
1, 20127, Note_on_c, 7, 85, 100
1, 20137, Note_on_c, 7, 85, 0
1, 20137, Note_on_c, 7, 83, 100
1, 20137, Note_on_c, 7, 73, 100
1, 20152, Note_on_c, 7, 83, 0
1, 20152, Note_on_c, 7, 85, 100
1, 20152, Note_on_c, 7, 73, 0
1, 20167, Note_on_c, 4, 86, 80
1, 20167, Note_on_c, 4, 80, 80
1, 20167, Note_on_c, 5, 64, 80
1, 20167, Note_on_c, 5, 61, 80
1, 20167, Note_on_c, 6, 59, 80
1, 20167, Note_on_c, 6, 52, 80
1, 20167, Note_on_c, 7, 85, 0
1, 20167, Note_on_c, 7, 86, 100
1, 20167, Note_on_c, 7, 64, 100
1, 20167, Note_on_c, 7, 52, 100
1, 20167, Note_on_c, 7, 40, 100
1, 20182, Note_on_c, 7, 64, 0
1, 20197, Note_on_c, 7, 74, 100
1, 20212, Note_on_c, 7, 74, 0
1, 20227, Note_on_c, 4, 86, 0
1, 20227, Note_on_c, 4, 80, 0
1, 20227, Note_on_c, 5, 64, 0
1, 20227, Note_on_c, 5, 61, 0
1, 20227, Note_on_c, 6, 59, 0
1, 20227, Note_on_c, 6, 52, 0
1, 20227, Note_on_c, 7, 86, 0
1, 20227, Note_on_c, 7, 80, 100
1, 20227, Note_on_c, 7, 71, 100
1, 20227, Note_on_c, 7, 52, 0
1, 20227, Note_on_c, 7, 40, 0
1, 20237, Note_on_c, 7, 80, 0
1, 20237, Note_on_c, 7, 81, 100
1, 20242, Note_on_c, 7, 71, 0
1, 20247, Note_on_c, 7, 81, 0
1, 20247, Note_on_c, 7, 80, 100
1, 20257, Note_on_c, 7, 80, 0
1, 20257, Note_on_c, 7, 78, 100
1, 20257, Note_on_c, 7, 74, 100
1, 20272, Note_on_c, 7, 78, 0
1, 20272, Note_on_c, 7, 80, 100
1, 20272, Note_on_c, 7, 74, 0
1, 20287, Note_on_c, 4, 85, 80
1, 20287, Note_on_c, 4, 81, 80
1, 20287, Note_on_c, 5, 64, 80
1, 20287, Note_on_c, 5, 61, 80
1, 20287, Note_on_c, 6, 57, 80
1, 20287, Note_on_c, 6, 49, 80
1, 20287, Note_on_c, 7, 80, 0
1, 20287, Note_on_c, 7, 81, 100
1, 20287, Note_on_c, 7, 73, 100
1, 20287, Note_on_c, 7, 57, 100
1, 20287, Note_on_c, 7, 45, 100
1, 20347, Note_on_c, 4, 85, 0
1, 20347, Note_on_c, 4, 88, 80
1, 20347, Note_on_c, 4, 81, 0
1, 20347, Note_on_c, 4, 76, 80
1, 20347, Note_on_c, 5, 64, 0
1, 20347, Note_on_c, 5, 52, 80
1, 20347, Note_on_c, 5, 61, 0
1, 20347, Note_on_c, 6, 57, 0
1, 20347, Note_on_c, 6, 57, 80
1, 20347, Note_on_c, 6, 49, 0
1, 20347, Note_on_c, 6, 49, 80
1, 20347, Note_on_c, 7, 69, 100
1, 20347, Note_on_c, 7, 73, 0
1, 20347, Note_on_c, 7, 64, 100
1, 20347, Note_on_c, 7, 57, 0
1, 20347, Note_on_c, 7, 52, 100
1, 20347, Note_on_c, 7, 45, 0
1, 20347, Note_on_c, 7, 40, 100
1, 20357, Note_on_c, 7, 81, 0
1, 20357, Note_on_c, 7, 83, 100
1, 20357, Note_on_c, 7, 69, 0
1, 20357, Note_on_c, 7, 71, 100
1, 20367, Note_on_c, 7, 83, 0
1, 20367, Note_on_c, 7, 81, 100
1, 20367, Note_on_c, 7, 71, 0
1, 20367, Note_on_c, 7, 69, 100
1, 20377, Note_on_c, 7, 81, 0
1, 20377, Note_on_c, 7, 80, 100
1, 20377, Note_on_c, 7, 69, 0
1, 20377, Note_on_c, 7, 68, 100
1, 20392, Note_on_c, 7, 80, 0
1, 20392, Note_on_c, 7, 81, 100
1, 20392, Note_on_c, 7, 68, 0
1, 20392, Note_on_c, 7, 69, 100
1, 20407, Note_on_c, 5, 56, 80
1, 20407, Note_on_c, 5, 52, 0
1, 20407, Note_on_c, 6, 57, 0
1, 20407, Note_on_c, 6, 59, 80
1, 20407, Note_on_c, 6, 49, 0
1, 20407, Note_on_c, 6, 52, 80
1, 20407, Note_on_c, 7, 81, 0
1, 20407, Note_on_c, 7, 83, 100
1, 20407, Note_on_c, 7, 69, 0
1, 20407, Note_on_c, 7, 71, 100
1, 20407, Note_on_c, 7, 64, 0
1, 20407, Note_on_c, 7, 68, 100
1, 20407, Note_on_c, 7, 52, 0
1, 20407, Note_on_c, 7, 56, 100
1, 20407, Note_on_c, 7, 40, 0
1, 20407, Note_on_c, 7, 44, 100
1, 20467, Note_on_c, 4, 88, 0
1, 20467, Note_on_c, 4, 88, 80
1, 20467, Note_on_c, 4, 76, 0
1, 20467, Note_on_c, 4, 76, 80
1, 20467, Note_on_c, 5, 52, 80
1, 20467, Note_on_c, 5, 56, 0
1, 20467, Note_on_c, 6, 59, 0
1, 20467, Note_on_c, 6, 59, 80
1, 20467, Note_on_c, 6, 52, 0
1, 20467, Note_on_c, 6, 52, 80
1, 20467, Note_on_c, 7, 83, 0
1, 20467, Note_on_c, 7, 83, 100
1, 20467, Note_on_c, 7, 71, 0
1, 20467, Note_on_c, 7, 71, 100
1, 20467, Note_on_c, 7, 68, 0
1, 20467, Note_on_c, 7, 64, 100
1, 20467, Note_on_c, 7, 56, 0
1, 20467, Note_on_c, 7, 52, 100
1, 20467, Note_on_c, 7, 44, 0
1, 20467, Note_on_c, 7, 40, 100
1, 20477, Note_on_c, 7, 83, 0
1, 20477, Note_on_c, 7, 85, 100
1, 20477, Note_on_c, 7, 71, 0
1, 20477, Note_on_c, 7, 73, 100
1, 20487, Note_on_c, 7, 85, 0
1, 20487, Note_on_c, 7, 83, 100
1, 20487, Note_on_c, 7, 73, 0
1, 20487, Note_on_c, 7, 71, 100
1, 20497, Note_on_c, 7, 83, 0
1, 20497, Note_on_c, 7, 81, 100
1, 20497, Note_on_c, 7, 71, 0
1, 20497, Note_on_c, 7, 69, 100
1, 20512, Note_on_c, 7, 81, 0
1, 20512, Note_on_c, 7, 83, 100
1, 20512, Note_on_c, 7, 69, 0
1, 20512, Note_on_c, 7, 71, 100
1, 20527, Note_on_c, 5, 57, 80
1, 20527, Note_on_c, 5, 52, 0
1, 20527, Note_on_c, 6, 59, 0
1, 20527, Note_on_c, 6, 61, 80
1, 20527, Note_on_c, 6, 52, 0
1, 20527, Note_on_c, 6, 57, 80
1, 20527, Note_on_c, 7, 83, 0
1, 20527, Note_on_c, 7, 85, 100
1, 20527, Note_on_c, 7, 71, 0
1, 20527, Note_on_c, 7, 73, 100
1, 20527, Note_on_c, 7, 64, 0
1, 20527, Note_on_c, 7, 69, 100
1, 20527, Note_on_c, 7, 52, 0
1, 20527, Note_on_c, 7, 57, 100
1, 20527, Note_on_c, 7, 40, 0
1, 20527, Note_on_c, 7, 45, 100
1, 20587, Note_on_c, 4, 88, 0
1, 20587, Note_on_c, 4, 85, 80
1, 20587, Note_on_c, 4, 76, 0
1, 20587, Note_on_c, 4, 76, 80
1, 20587, Note_on_c, 5, 52, 80
1, 20587, Note_on_c, 5, 57, 0
1, 20587, Note_on_c, 6, 61, 0
1, 20587, Note_on_c, 6, 61, 80
1, 20587, Note_on_c, 6, 57, 0
1, 20587, Note_on_c, 6, 57, 80
1, 20587, Note_on_c, 7, 85, 0
1, 20587, Note_on_c, 7, 85, 100
1, 20587, Note_on_c, 7, 73, 0
1, 20587, Note_on_c, 7, 73, 100
1, 20587, Note_on_c, 7, 69, 0
1, 20587, Note_on_c, 7, 64, 100
1, 20587, Note_on_c, 7, 57, 0
1, 20587, Note_on_c, 7, 52, 100
1, 20587, Note_on_c, 7, 45, 0
1, 20587, Note_on_c, 7, 40, 100
1, 20617, Note_on_c, 7, 85, 0
1, 20617, Note_on_c, 7, 73, 0
1, 20647, Note_on_c, 4, 85, 0
1, 20647, Note_on_c, 4, 86, 80
1, 20647, Note_on_c, 5, 59, 80
1, 20647, Note_on_c, 5, 52, 0
1, 20647, Note_on_c, 6, 61, 0
1, 20647, Note_on_c, 6, 59, 80
1, 20647, Note_on_c, 6, 57, 0
1, 20647, Note_on_c, 7, 86, 100
1, 20647, Note_on_c, 7, 74, 100
1, 20647, Note_on_c, 7, 64, 0
1, 20647, Note_on_c, 7, 71, 100
1, 20647, Note_on_c, 7, 52, 0
1, 20647, Note_on_c, 7, 59, 100
1, 20647, Note_on_c, 7, 40, 0
1, 20647, Note_on_c, 7, 47, 100
1, 20677, Note_on_c, 7, 86, 0
1, 20677, Note_on_c, 7, 74, 0
1, 20707, Note_on_c, 4, 86, 0
1, 20707, Note_on_c, 4, 80, 80
1, 20707, Note_on_c, 4, 76, 0
1, 20707, Note_on_c, 4, 76, 80
1, 20707, Note_on_c, 5, 52, 80
1, 20707, Note_on_c, 5, 59, 0
1, 20707, Note_on_c, 7, 86, 100
1, 20707, Note_on_c, 7, 74, 100
1, 20707, Note_on_c, 7, 71, 0
1, 20707, Note_on_c, 7, 64, 100
1, 20707, Note_on_c, 7, 59, 0
1, 20707, Note_on_c, 7, 52, 100
1, 20707, Note_on_c, 7, 47, 0
1, 20707, Note_on_c, 7, 40, 100
1, 20737, Note_on_c, 7, 86, 0
1, 20737, Note_on_c, 7, 74, 0
1, 20767, Note_on_c, 4, 80, 0
1, 20767, Note_on_c, 4, 81, 80
1, 20767, Note_on_c, 4, 76, 0
1, 20767, Note_on_c, 4, 76, 80
1, 20767, Note_on_c, 5, 61, 80
1, 20767, Note_on_c, 5, 52, 0
1, 20767, Note_on_c, 6, 57, 80
1, 20767, Note_on_c, 6, 59, 0
1, 20767, Note_on_c, 7, 88, 100
1, 20767, Note_on_c, 7, 76, 100
1, 20767, Note_on_c, 7, 64, 0
1, 20767, Note_on_c, 7, 73, 100
1, 20767, Note_on_c, 7, 52, 0
1, 20767, Note_on_c, 7, 61, 100
1, 20767, Note_on_c, 7, 40, 0
1, 20767, Note_on_c, 7, 49, 100
1, 20827, Note_on_c, 7, 73, 0
1, 20827, Note_on_c, 7, 49, 0
1, 20827, Note_on_c, 7, 49, 100
1, 20887, Note_on_c, 7, 49, 0
1, 20887, Note_on_c, 7, 49, 100
1, 20917, Note_on_c, 7, 88, 0
1, 20917, Note_on_c, 7, 86, 100
1, 20917, Note_on_c, 7, 76, 0
1, 20917, Note_on_c, 7, 74, 100
1, 20932, Note_on_c, 7, 86, 0
1, 20932, Note_on_c, 7, 74, 0
1, 20947, Note_on_c, 7, 85, 100
1, 20947, Note_on_c, 7, 73, 100
1, 20947, Note_on_c, 7, 49, 0
1, 20947, Note_on_c, 7, 49, 100
1, 20962, Note_on_c, 7, 85, 0
1, 20962, Note_on_c, 7, 73, 0
1, 20977, Note_on_c, 7, 83, 100
1, 20977, Note_on_c, 7, 71, 100
1, 20992, Note_on_c, 7, 83, 0
1, 20992, Note_on_c, 7, 71, 0
1, 21007, Note_on_c, 7, 81, 100
1, 21007, Note_on_c, 7, 69, 100
1, 21007, Note_on_c, 7, 49, 0
1, 21007, Note_on_c, 7, 49, 100
1, 21022, Note_on_c, 7, 81, 0
1, 21022, Note_on_c, 7, 69, 0
1, 21037, Note_on_c, 7, 80, 100
1, 21037, Note_on_c, 7, 68, 100
1, 21052, Note_on_c, 7, 80, 0
1, 21052, Note_on_c, 7, 68, 0
1, 21067, Note_on_c, 7, 78, 100
1, 21067, Note_on_c, 7, 66, 100
1, 21067, Note_on_c, 7, 49, 0
1, 21067, Note_on_c, 7, 49, 100
1, 21082, Note_on_c, 7, 78, 0
1, 21082, Note_on_c, 7, 66, 0
1, 21097, Note_on_c, 7, 76, 100
1, 21097, Note_on_c, 7, 64, 100
1, 21112, Note_on_c, 7, 76, 0
1, 21112, Note_on_c, 7, 64, 0
1, 21127, Note_on_c, 7, 74, 100
1, 21127, Note_on_c, 7, 62, 100
1, 21127, Note_on_c, 7, 49, 0
1, 21127, Note_on_c, 7, 49, 100
1, 21142, Note_on_c, 7, 74, 0
1, 21142, Note_on_c, 7, 62, 0
1, 21157, Note_on_c, 7, 73, 100
1, 21172, Note_on_c, 7, 73, 0
1, 21187, Note_on_c, 7, 71, 100
1, 21187, Note_on_c, 7, 59, 100
1, 21187, Note_on_c, 7, 49, 0
1, 21187, Note_on_c, 7, 49, 100
1, 21202, Note_on_c, 7, 71, 0
1, 21202, Note_on_c, 7, 59, 0
1, 21217, Note_on_c, 7, 69, 100
1, 21217, Note_on_c, 7, 57, 100
1, 21232, Note_on_c, 7, 69, 0
1, 21232, Note_on_c, 7, 57, 0
1, 21247, Note_on_c, 4, 81, 0
1, 21247, Note_on_c, 4, 79, 80
1, 21247, Note_on_c, 4, 76, 0
1, 21247, Note_on_c, 5, 64, 80
1, 21247, Note_on_c, 5, 61, 0
1, 21247, Note_on_c, 7, 67, 100
1, 21247, Note_on_c, 7, 64, 100
1, 21247, Note_on_c, 7, 61, 0
1, 21247, Note_on_c, 7, 49, 0
1, 21247, Note_on_c, 7, 52, 100
1, 21307, Note_on_c, 7, 52, 0
1, 21307, Note_on_c, 7, 52, 100
1, 21367, Note_on_c, 7, 67, 0
1, 21367, Note_on_c, 7, 52, 0
1, 21367, Note_on_c, 7, 52, 100
1, 21427, Note_on_c, 7, 67, 100
1, 21427, Note_on_c, 7, 52, 0
1, 21427, Note_on_c, 7, 52, 100
1, 21487, Note_on_c, 4, 77, 80
1, 21487, Note_on_c, 4, 79, 0
1, 21487, Note_on_c, 5, 61, 80
1, 21487, Note_on_c, 5, 64, 0
1, 21487, Note_on_c, 7, 65, 100
1, 21487, Note_on_c, 7, 67, 0
1, 21487, Note_on_c, 7, 61, 100
1, 21487, Note_on_c, 7, 64, 0
1, 21487, Note_on_c, 7, 52, 0
1, 21487, Note_on_c, 7, 49, 100
1, 21547, Note_on_c, 7, 49, 0
1, 21547, Note_on_c, 7, 49, 100
1, 21607, Note_on_c, 7, 65, 0
1, 21607, Note_on_c, 7, 49, 0
1, 21607, Note_on_c, 7, 49, 100
1, 21667, Note_on_c, 7, 65, 100
1, 21667, Note_on_c, 7, 49, 0
1, 21667, Note_on_c, 7, 49, 100
1, 21727, Note_on_c, 4, 78, 80
1, 21727, Note_on_c, 4, 77, 0
1, 21727, Note_on_c, 5, 62, 80
1, 21727, Note_on_c, 5, 61, 0
1, 21727, Note_on_c, 7, 66, 100
1, 21727, Note_on_c, 7, 65, 0
1, 21727, Note_on_c, 7, 62, 100
1, 21727, Note_on_c, 7, 61, 0
1, 21727, Note_on_c, 7, 49, 0
1, 21727, Note_on_c, 7, 50, 100
1, 21787, Note_on_c, 7, 66, 0
1, 21787, Note_on_c, 7, 50, 0
1, 21787, Note_on_c, 7, 50, 100
1, 21847, Note_on_c, 7, 81, 100
1, 21847, Note_on_c, 7, 50, 0
1, 21847, Note_on_c, 7, 50, 100
1, 21907, Note_on_c, 7, 81, 0
1, 21907, Note_on_c, 7, 50, 0
1, 21907, Note_on_c, 7, 50, 100
1, 21967, Note_on_c, 4, 75, 80
1, 21967, Note_on_c, 4, 78, 0
1, 21967, Note_on_c, 5, 66, 80
1, 21967, Note_on_c, 5, 62, 0
1, 21967, Note_on_c, 7, 66, 100
1, 21967, Note_on_c, 7, 62, 0
1, 21967, Note_on_c, 7, 50, 0
1, 21967, Note_on_c, 7, 54, 100
1, 22027, Note_on_c, 7, 54, 0
1, 22027, Note_on_c, 7, 54, 100
1, 22087, Note_on_c, 7, 63, 100
1, 22087, Note_on_c, 7, 54, 0
1, 22087, Note_on_c, 7, 54, 100
1, 22147, Note_on_c, 7, 63, 0
1, 22147, Note_on_c, 7, 54, 0
1, 22147, Note_on_c, 7, 54, 100
1, 22207, Note_on_c, 4, 76, 80
1, 22207, Note_on_c, 4, 75, 0
1, 22207, Note_on_c, 5, 64, 80
1, 22207, Note_on_c, 5, 66, 0
1, 22207, Note_on_c, 6, 52, 80
1, 22207, Note_on_c, 6, 57, 0
1, 22207, Note_on_c, 7, 64, 100
1, 22207, Note_on_c, 7, 66, 0
1, 22207, Note_on_c, 7, 54, 0
1, 22207, Note_on_c, 7, 52, 100
1, 22267, Note_on_c, 5, 63, 80
1, 22267, Note_on_c, 5, 64, 0
1, 22267, Note_on_c, 7, 63, 100
1, 22267, Note_on_c, 7, 52, 0
1, 22267, Note_on_c, 7, 51, 100
1, 22297, Note_on_c, 7, 66, 100
1, 22297, Note_on_c, 7, 64, 0
1, 22327, Note_on_c, 5, 62, 80
1, 22327, Note_on_c, 5, 63, 0
1, 22327, Note_on_c, 7, 68, 100
1, 22327, Note_on_c, 7, 66, 0
1, 22327, Note_on_c, 7, 62, 100
1, 22327, Note_on_c, 7, 63, 0
1, 22327, Note_on_c, 7, 51, 0
1, 22327, Note_on_c, 7, 50, 100
1, 22357, Note_on_c, 7, 69, 100
1, 22357, Note_on_c, 7, 68, 0
1, 22387, Note_on_c, 5, 61, 80
1, 22387, Note_on_c, 5, 62, 0
1, 22387, Note_on_c, 7, 71, 100
1, 22387, Note_on_c, 7, 69, 0
1, 22387, Note_on_c, 7, 61, 100
1, 22387, Note_on_c, 7, 62, 0
1, 22387, Note_on_c, 7, 50, 0
1, 22387, Note_on_c, 7, 49, 100
1, 22417, Note_on_c, 7, 73, 100
1, 22417, Note_on_c, 7, 71, 0
1, 22447, Note_on_c, 4, 74, 80
1, 22447, Note_on_c, 4, 76, 0
1, 22447, Note_on_c, 5, 59, 80
1, 22447, Note_on_c, 5, 61, 0
1, 22447, Note_on_c, 7, 74, 100
1, 22447, Note_on_c, 7, 73, 0
1, 22447, Note_on_c, 7, 59, 100
1, 22447, Note_on_c, 7, 61, 0
1, 22447, Note_on_c, 7, 49, 0
1, 22447, Note_on_c, 7, 47, 100
1, 22477, Note_on_c, 4, 76, 80
1, 22477, Note_on_c, 4, 74, 0
1, 22477, Note_on_c, 7, 76, 100
1, 22477, Note_on_c, 7, 74, 0
1, 22507, Note_on_c, 4, 78, 80
1, 22507, Note_on_c, 4, 76, 0
1, 22507, Note_on_c, 5, 62, 80
1, 22507, Note_on_c, 5, 59, 0
1, 22507, Note_on_c, 7, 78, 100
1, 22507, Note_on_c, 7, 76, 0
1, 22507, Note_on_c, 7, 62, 100
1, 22507, Note_on_c, 7, 59, 0
1, 22507, Note_on_c, 7, 47, 0
1, 22507, Note_on_c, 7, 50, 100
1, 22537, Note_on_c, 4, 79, 80
1, 22537, Note_on_c, 4, 78, 0
1, 22537, Note_on_c, 7, 80, 100
1, 22537, Note_on_c, 7, 78, 0
1, 22567, Note_on_c, 4, 81, 80
1, 22567, Note_on_c, 4, 79, 0
1, 22567, Note_on_c, 5, 61, 80
1, 22567, Note_on_c, 5, 62, 0
1, 22567, Note_on_c, 7, 81, 100
1, 22567, Note_on_c, 7, 80, 0
1, 22567, Note_on_c, 7, 61, 100
1, 22567, Note_on_c, 7, 62, 0
1, 22567, Note_on_c, 7, 50, 0
1, 22567, Note_on_c, 7, 49, 100
1, 22597, Note_on_c, 4, 83, 80
1, 22597, Note_on_c, 4, 81, 0
1, 22597, Note_on_c, 7, 83, 100
1, 22597, Note_on_c, 7, 81, 0
1, 22627, Note_on_c, 4, 85, 80
1, 22627, Note_on_c, 4, 83, 0
1, 22627, Note_on_c, 5, 57, 80
1, 22627, Note_on_c, 5, 61, 0
1, 22627, Note_on_c, 7, 85, 100
1, 22627, Note_on_c, 7, 83, 0
1, 22627, Note_on_c, 7, 57, 100
1, 22627, Note_on_c, 7, 61, 0
1, 22627, Note_on_c, 7, 49, 0
1, 22627, Note_on_c, 7, 45, 100
1, 22657, Note_on_c, 4, 86, 80
1, 22657, Note_on_c, 4, 85, 0
1, 22657, Note_on_c, 7, 86, 100
1, 22657, Note_on_c, 7, 85, 0
1, 22687, Note_on_c, 4, 88, 80
1, 22687, Note_on_c, 4, 86, 0
1, 22687, Note_on_c, 5, 52, 80
1, 22687, Note_on_c, 5, 57, 0
1, 22687, Note_on_c, 7, 88, 100
1, 22687, Note_on_c, 7, 86, 0
1, 22687, Note_on_c, 7, 64, 100
1, 22687, Note_on_c, 7, 57, 0
1, 22687, Note_on_c, 7, 52, 100
1, 22687, Note_on_c, 7, 45, 0
1, 22687, Note_on_c, 7, 40, 100
1, 22747, Note_on_c, 7, 85, 100
1, 22747, Note_on_c, 7, 88, 0
1, 22747, Note_on_c, 7, 64, 0
1, 22747, Note_on_c, 7, 64, 100
1, 22747, Note_on_c, 7, 52, 0
1, 22747, Note_on_c, 7, 52, 100
1, 22747, Note_on_c, 7, 40, 0
1, 22747, Note_on_c, 7, 40, 100
1, 22777, Note_on_c, 7, 81, 100
1, 22777, Note_on_c, 7, 85, 0
1, 22807, Note_on_c, 4, 85, 80
1, 22807, Note_on_c, 4, 88, 0
1, 22807, Note_on_c, 4, 81, 80
1, 22807, Note_on_c, 6, 61, 80
1, 22807, Note_on_c, 6, 52, 0
1, 22807, Note_on_c, 6, 57, 80
1, 22807, Note_on_c, 7, 76, 100
1, 22807, Note_on_c, 7, 81, 0
1, 22807, Note_on_c, 7, 64, 0
1, 22807, Note_on_c, 7, 64, 100
1, 22807, Note_on_c, 7, 52, 0
1, 22807, Note_on_c, 7, 52, 100
1, 22807, Note_on_c, 7, 40, 0
1, 22807, Note_on_c, 7, 40, 100
1, 22867, Note_on_c, 7, 73, 100
1, 22867, Note_on_c, 7, 76, 0
1, 22867, Note_on_c, 7, 64, 0
1, 22867, Note_on_c, 7, 64, 100
1, 22867, Note_on_c, 7, 52, 0
1, 22867, Note_on_c, 7, 52, 100
1, 22867, Note_on_c, 7, 40, 0
1, 22867, Note_on_c, 7, 40, 100
1, 22897, Note_on_c, 4, 85, 0
1, 22897, Note_on_c, 4, 85, 80
1, 22897, Note_on_c, 4, 81, 0
1, 22897, Note_on_c, 4, 81, 80
1, 22897, Note_on_c, 6, 61, 0
1, 22897, Note_on_c, 6, 61, 80
1, 22897, Note_on_c, 6, 57, 0
1, 22897, Note_on_c, 6, 57, 80
1, 22897, Note_on_c, 7, 69, 100
1, 22897, Note_on_c, 7, 73, 0
1, 22927, Note_on_c, 4, 85, 0
1, 22927, Note_on_c, 4, 85, 80
1, 22927, Note_on_c, 4, 81, 0
1, 22927, Note_on_c, 4, 81, 80
1, 22927, Note_on_c, 6, 61, 0
1, 22927, Note_on_c, 6, 61, 80
1, 22927, Note_on_c, 6, 57, 0
1, 22927, Note_on_c, 6, 57, 80
1, 22927, Note_on_c, 7, 69, 0
1, 22927, Note_on_c, 7, 52, 0
1, 22927, Note_on_c, 7, 52, 100
1, 22927, Note_on_c, 7, 40, 0
1, 22927, Note_on_c, 7, 40, 100
1, 22957, Note_on_c, 4, 85, 0
1, 22957, Note_on_c, 4, 81, 0
1, 22987, Note_on_c, 4, 85, 80
1, 22987, Note_on_c, 4, 81, 80
1, 22987, Note_on_c, 6, 61, 0
1, 22987, Note_on_c, 6, 61, 80
1, 22987, Note_on_c, 6, 57, 0
1, 22987, Note_on_c, 6, 57, 80
1, 22987, Note_on_c, 7, 52, 0
1, 22987, Note_on_c, 7, 52, 100
1, 22987, Note_on_c, 7, 40, 0
1, 22987, Note_on_c, 7, 40, 100
1, 23017, Note_on_c, 4, 85, 0
1, 23017, Note_on_c, 4, 81, 0
1, 23047, Note_on_c, 4, 83, 80
1, 23047, Note_on_c, 4, 80, 80
1, 23047, Note_on_c, 6, 61, 0
1, 23047, Note_on_c, 6, 59, 80
1, 23047, Note_on_c, 6, 57, 0
1, 23047, Note_on_c, 6, 52, 80
1, 23047, Note_on_c, 7, 71, 100
1, 23047, Note_on_c, 7, 80, 100
1, 23047, Note_on_c, 7, 52, 0
1, 23047, Note_on_c, 7, 52, 100
1, 23047, Note_on_c, 7, 40, 0
1, 23047, Note_on_c, 7, 40, 100
1, 23077, Note_on_c, 4, 83, 0
1, 23077, Note_on_c, 4, 80, 0
1, 23107, Note_on_c, 4, 83, 80
1, 23107, Note_on_c, 4, 80, 80
1, 23107, Note_on_c, 6, 59, 0
1, 23107, Note_on_c, 6, 59, 80
1, 23107, Note_on_c, 6, 52, 0
1, 23107, Note_on_c, 6, 52, 80
1, 23107, Note_on_c, 7, 52, 0
1, 23107, Note_on_c, 7, 52, 100
1, 23107, Note_on_c, 7, 40, 0
1, 23107, Note_on_c, 7, 40, 100
1, 23137, Note_on_c, 4, 83, 0
1, 23137, Note_on_c, 4, 80, 0
1, 23167, Note_on_c, 4, 81, 80
1, 23167, Note_on_c, 5, 45, 80
1, 23167, Note_on_c, 5, 52, 0
1, 23167, Note_on_c, 6, 59, 0
1, 23167, Note_on_c, 6, 57, 80
1, 23167, Note_on_c, 6, 52, 0
1, 23167, Note_on_c, 6, 49, 80
1, 23167, Note_on_c, 7, 71, 0
1, 23167, Note_on_c, 7, 73, 100
1, 23167, Note_on_c, 7, 81, 100
1, 23167, Note_on_c, 7, 80, 0
1, 23167, Note_on_c, 7, 57, 100
1, 23167, Note_on_c, 7, 52, 0
1, 23167, Note_on_c, 7, 45, 100
1, 23167, Note_on_c, 7, 40, 0
1, 23167, Note_on_c, 7, 33, 100
1, 23287, Note_on_c, 4, 81, 0
1, 23287, Note_on_c, 5, 45, 0
1, 23287, Note_on_c, 6, 57, 0
1, 23287, Note_on_c, 6, 49, 0
1, 23287, Note_on_c, 7, 64, 0
1, 23287, Note_on_c, 7, 73, 0
1, 23287, Note_on_c, 7, 81, 0
1, 23287, Note_on_c, 7, 57, 0
1, 23287, Note_on_c, 7, 45, 0
1, 23287, Note_on_c, 7, 33, 0
1, 23407, Note_on_c, 7, 81, 100
1, 23407, Note_on_c, 7, 69, 100
1, 23527, Note_on_c, 7, 81, 0
1, 23527, Note_on_c, 7, 85, 100
1, 23527, Note_on_c, 7, 69, 0
1, 23527, Note_on_c, 7, 73, 100
1, 23587, Note_on_c, 7, 85, 0
1, 23587, Note_on_c, 7, 73, 0
1, 23647, Note_on_c, 7, 78, 100
1, 23647, Note_on_c, 7, 66, 100
1, 23767, Note_on_c, 7, 78, 0
1, 23767, Note_on_c, 7, 81, 100
1, 23767, Note_on_c, 7, 66, 0
1, 23767, Note_on_c, 7, 69, 100
1, 23827, Note_on_c, 7, 81, 0
1, 23827, Note_on_c, 7, 69, 0
1, 23887, Note_on_c, 7, 71, 100
1, 23887, Note_on_c, 7, 66, 100
1, 23887, Note_on_c, 7, 62, 100
1, 23887, Note_on_c, 7, 50, 100
1, 23887, Note_on_c, 7, 38, 100
1, 23917, Note_on_c, 7, 66, 0
1, 23917, Note_on_c, 7, 62, 0
1, 23917, Note_on_c, 7, 50, 0
1, 23917, Note_on_c, 7, 38, 0
1, 23977, Note_on_c, 7, 71, 0
1, 23977, Note_on_c, 7, 71, 100
1, 24007, Note_on_c, 7, 71, 0
1, 24007, Note_on_c, 7, 73, 100
1, 24007, Note_on_c, 7, 67, 100
1, 24007, Note_on_c, 7, 64, 100
1, 24007, Note_on_c, 7, 52, 100
1, 24007, Note_on_c, 7, 40, 100
1, 24037, Note_on_c, 7, 67, 0
1, 24037, Note_on_c, 7, 64, 0
1, 24037, Note_on_c, 7, 52, 0
1, 24037, Note_on_c, 7, 40, 0
1, 24097, Note_on_c, 7, 73, 0
1, 24097, Note_on_c, 7, 73, 100
1, 24127, Note_on_c, 7, 73, 0
1, 24127, Note_on_c, 7, 76, 100
1, 24127, Note_on_c, 7, 69, 100
1, 24127, Note_on_c, 7, 66, 100
1, 24127, Note_on_c, 7, 54, 100
1, 24127, Note_on_c, 7, 42, 100
1, 24247, Note_on_c, 7, 76, 0
1, 24247, Note_on_c, 7, 74, 100
1, 24247, Note_on_c, 7, 69, 0
1, 24247, Note_on_c, 7, 66, 0
1, 24247, Note_on_c, 7, 54, 0
1, 24247, Note_on_c, 7, 42, 0
1, 24307, Note_on_c, 7, 74, 0
1, 24367, Note_on_c, 7, 74, 100
1, 24367, Note_on_c, 7, 62, 100
1, 24487, Note_on_c, 7, 74, 0
1, 24487, Note_on_c, 7, 78, 100
1, 24487, Note_on_c, 7, 62, 0
1, 24487, Note_on_c, 7, 66, 100
1, 24547, Note_on_c, 7, 78, 0
1, 24547, Note_on_c, 7, 66, 0
1, 24607, Note_on_c, 7, 71, 100
1, 24607, Note_on_c, 7, 59, 100
1, 24727, Note_on_c, 7, 71, 0
1, 24727, Note_on_c, 7, 74, 100
1, 24727, Note_on_c, 7, 59, 0
1, 24727, Note_on_c, 7, 62, 100
1, 24787, Note_on_c, 7, 74, 0
1, 24787, Note_on_c, 7, 62, 0
1, 24847, Note_on_c, 7, 66, 100
1, 24847, Note_on_c, 7, 62, 100
1, 24847, Note_on_c, 7, 59, 100
1, 24847, Note_on_c, 7, 47, 100
1, 24847, Note_on_c, 7, 35, 100
1, 24877, Note_on_c, 7, 62, 0
1, 24877, Note_on_c, 7, 59, 0
1, 24877, Note_on_c, 7, 47, 0
1, 24877, Note_on_c, 7, 35, 0
1, 24937, Note_on_c, 7, 66, 0
1, 24937, Note_on_c, 7, 66, 100
1, 24967, Note_on_c, 7, 66, 0
1, 24967, Note_on_c, 7, 68, 100
1, 24967, Note_on_c, 7, 62, 100
1, 24967, Note_on_c, 7, 64, 100
1, 24967, Note_on_c, 7, 52, 100
1, 24967, Note_on_c, 7, 40, 100
1, 24997, Note_on_c, 7, 62, 0
1, 24997, Note_on_c, 7, 64, 0
1, 24997, Note_on_c, 7, 52, 0
1, 24997, Note_on_c, 7, 40, 0
1, 25057, Note_on_c, 7, 68, 0
1, 25057, Note_on_c, 7, 68, 100
1, 25087, Note_on_c, 7, 68, 0
1, 25087, Note_on_c, 7, 69, 100
1, 25087, Note_on_c, 7, 61, 100
1, 25087, Note_on_c, 7, 57, 100
1, 25087, Note_on_c, 7, 45, 100
1, 25087, Note_on_c, 7, 33, 100
1, 25117, Note_on_c, 7, 69, 0
1, 25117, Note_on_c, 7, 73, 100
1, 25147, Note_on_c, 7, 73, 0
1, 25147, Note_on_c, 7, 76, 100
1, 25177, Note_on_c, 7, 76, 0
1, 25177, Note_on_c, 7, 73, 100
1, 25207, Note_on_c, 7, 73, 0
1, 25207, Note_on_c, 7, 69, 100
1, 25207, Note_on_c, 7, 61, 0
1, 25207, Note_on_c, 7, 57, 0
1, 25207, Note_on_c, 7, 45, 0
1, 25207, Note_on_c, 7, 33, 0
1, 25237, Note_on_c, 7, 69, 0
1, 25237, Note_on_c, 7, 64, 100
1, 25267, Note_on_c, 7, 64, 0
1, 25267, Note_on_c, 7, 61, 100
1, 25297, Note_on_c, 7, 61, 0
1, 25297, Note_on_c, 7, 64, 100
1, 25327, Note_on_c, 7, 64, 0
1, 25327, Note_on_c, 7, 66, 100
1, 25327, Note_on_c, 7, 62, 100
1, 25327, Note_on_c, 7, 59, 100
1, 25327, Note_on_c, 7, 50, 100
1, 25327, Note_on_c, 7, 38, 100
1, 25357, Note_on_c, 7, 66, 0
1, 25357, Note_on_c, 7, 59, 0
1, 25357, Note_on_c, 7, 50, 0
1, 25357, Note_on_c, 7, 38, 0
1, 25387, Note_on_c, 7, 62, 0
1, 25387, Note_on_c, 7, 66, 100
1, 25417, Note_on_c, 7, 66, 0
1, 25417, Note_on_c, 7, 69, 100
1, 25447, Note_on_c, 7, 69, 0
1, 25447, Note_on_c, 7, 68, 100
1, 25447, Note_on_c, 7, 62, 100
1, 25447, Note_on_c, 7, 59, 100
1, 25447, Note_on_c, 7, 52, 100
1, 25447, Note_on_c, 7, 40, 100
1, 25477, Note_on_c, 7, 68, 0
1, 25477, Note_on_c, 7, 64, 100
1, 25477, Note_on_c, 7, 62, 0
1, 25477, Note_on_c, 7, 59, 0
1, 25477, Note_on_c, 7, 52, 0
1, 25477, Note_on_c, 7, 40, 0
1, 25507, Note_on_c, 7, 64, 0
1, 25507, Note_on_c, 7, 68, 100
1, 25537, Note_on_c, 7, 68, 0
1, 25537, Note_on_c, 7, 71, 100
1, 25567, Note_on_c, 7, 71, 0
1, 25567, Note_on_c, 7, 69, 100
1, 25567, Note_on_c, 7, 61, 100
1, 25567, Note_on_c, 7, 57, 100
1, 25567, Note_on_c, 7, 45, 100
1, 25567, Note_on_c, 7, 33, 100
1, 25597, Note_on_c, 7, 69, 0
1, 25597, Note_on_c, 7, 73, 100
1, 25627, Note_on_c, 7, 73, 0
1, 25627, Note_on_c, 7, 76, 100
1, 25657, Note_on_c, 7, 76, 0
1, 25657, Note_on_c, 7, 73, 100
1, 25687, Note_on_c, 7, 73, 0
1, 25687, Note_on_c, 7, 69, 100
1, 25687, Note_on_c, 7, 61, 0
1, 25687, Note_on_c, 7, 57, 0
1, 25687, Note_on_c, 7, 45, 0
1, 25687, Note_on_c, 7, 33, 0
1, 25717, Note_on_c, 7, 69, 0
1, 25717, Note_on_c, 7, 64, 100
1, 25747, Note_on_c, 7, 64, 0
1, 25747, Note_on_c, 7, 61, 100
1, 25777, Note_on_c, 7, 61, 0
1, 25777, Note_on_c, 7, 64, 100
1, 25807, Note_on_c, 7, 64, 0
1, 25807, Note_on_c, 7, 66, 100
1, 25807, Note_on_c, 7, 62, 100
1, 25807, Note_on_c, 7, 59, 100
1, 25807, Note_on_c, 7, 50, 100
1, 25807, Note_on_c, 7, 38, 100
1, 25837, Note_on_c, 7, 66, 0
1, 25837, Note_on_c, 7, 59, 0
1, 25837, Note_on_c, 7, 50, 0
1, 25837, Note_on_c, 7, 38, 0
1, 25867, Note_on_c, 7, 62, 0
1, 25867, Note_on_c, 7, 66, 100
1, 25897, Note_on_c, 7, 66, 0
1, 25897, Note_on_c, 7, 69, 100
1, 25927, Note_on_c, 7, 69, 0
1, 25927, Note_on_c, 7, 68, 100
1, 25927, Note_on_c, 7, 62, 100
1, 25927, Note_on_c, 7, 59, 100
1, 25927, Note_on_c, 7, 52, 100
1, 25927, Note_on_c, 7, 40, 100
1, 25957, Note_on_c, 7, 68, 0
1, 25957, Note_on_c, 7, 64, 100
1, 25957, Note_on_c, 7, 62, 0
1, 25957, Note_on_c, 7, 59, 0
1, 25957, Note_on_c, 7, 52, 0
1, 25957, Note_on_c, 7, 40, 0
1, 25987, Note_on_c, 7, 64, 0
1, 25987, Note_on_c, 7, 68, 100
1, 26017, Note_on_c, 7, 68, 0
1, 26017, Note_on_c, 7, 71, 100
1, 26047, Note_on_c, 4, 81, 80
1, 26047, Note_on_c, 4, 73, 80
1, 26047, Note_on_c, 5, 64, 80
1, 26047, Note_on_c, 5, 61, 80
1, 26047, Note_on_c, 6, 57, 80
1, 26047, Note_on_c, 6, 45, 80
1, 26047, Note_on_c, 7, 71, 0
1, 26047, Note_on_c, 7, 69, 100
1, 26047, Note_on_c, 7, 61, 100
1, 26047, Note_on_c, 7, 57, 100
1, 26047, Note_on_c, 7, 45, 100
1, 26047, Note_on_c, 7, 33, 100
1, 26077, Note_on_c, 7, 69, 0
1, 26077, Note_on_c, 7, 64, 100
1, 26107, Note_on_c, 7, 64, 0
1, 26107, Note_on_c, 7, 57, 0
1, 26107, Note_on_c, 7, 69, 100
1, 26107, Note_on_c, 7, 45, 0
1, 26107, Note_on_c, 7, 57, 100
1, 26107, Note_on_c, 7, 33, 0
1, 26107, Note_on_c, 7, 45, 100
1, 26137, Note_on_c, 7, 64, 100
1, 26137, Note_on_c, 7, 61, 0
1, 26137, Note_on_c, 7, 69, 0
1, 26137, Note_on_c, 7, 57, 0
1, 26137, Note_on_c, 7, 45, 0
1, 26167, Note_on_c, 4, 81, 0
1, 26167, Note_on_c, 4, 81, 80
1, 26167, Note_on_c, 4, 73, 0
1, 26167, Note_on_c, 4, 73, 80
1, 26167, Note_on_c, 5, 64, 0
1, 26167, Note_on_c, 5, 64, 80
1, 26167, Note_on_c, 5, 61, 0
1, 26167, Note_on_c, 5, 61, 80
1, 26167, Note_on_c, 6, 57, 0
1, 26167, Note_on_c, 6, 57, 80
1, 26167, Note_on_c, 6, 45, 0
1, 26167, Note_on_c, 6, 45, 80
1, 26167, Note_on_c, 7, 69, 100
1, 26167, Note_on_c, 7, 64, 0
1, 26167, Note_on_c, 7, 73, 100
1, 26167, Note_on_c, 7, 61, 100
1, 26167, Note_on_c, 7, 49, 100
1, 26197, Note_on_c, 7, 64, 100
1, 26197, Note_on_c, 7, 69, 0
1, 26197, Note_on_c, 7, 73, 0
1, 26197, Note_on_c, 7, 61, 0
1, 26197, Note_on_c, 7, 49, 0
1, 26227, Note_on_c, 7, 69, 100
1, 26227, Note_on_c, 7, 64, 0
1, 26227, Note_on_c, 7, 57, 100
1, 26227, Note_on_c, 7, 45, 100
1, 26257, Note_on_c, 4, 81, 0
1, 26257, Note_on_c, 4, 81, 80
1, 26257, Note_on_c, 4, 73, 0
1, 26257, Note_on_c, 4, 73, 80
1, 26257, Note_on_c, 5, 64, 0
1, 26257, Note_on_c, 5, 64, 80
1, 26257, Note_on_c, 5, 61, 0
1, 26257, Note_on_c, 5, 61, 80
1, 26257, Note_on_c, 6, 57, 0
1, 26257, Note_on_c, 6, 57, 80
1, 26257, Note_on_c, 6, 45, 0
1, 26257, Note_on_c, 6, 45, 80
1, 26257, Note_on_c, 7, 64, 100
1, 26257, Note_on_c, 7, 69, 0
1, 26257, Note_on_c, 7, 57, 0
1, 26257, Note_on_c, 7, 45, 0
1, 26287, Note_on_c, 4, 81, 0
1, 26287, Note_on_c, 4, 81, 80
1, 26287, Note_on_c, 4, 73, 0
1, 26287, Note_on_c, 4, 73, 80
1, 26287, Note_on_c, 5, 64, 0
1, 26287, Note_on_c, 5, 64, 80
1, 26287, Note_on_c, 5, 61, 0
1, 26287, Note_on_c, 5, 61, 80
1, 26287, Note_on_c, 6, 57, 0
1, 26287, Note_on_c, 6, 57, 80
1, 26287, Note_on_c, 6, 45, 0
1, 26287, Note_on_c, 6, 45, 80
1, 26287, Note_on_c, 7, 73, 100
1, 26287, Note_on_c, 7, 64, 0
1, 26287, Note_on_c, 7, 64, 100
1, 26287, Note_on_c, 7, 52, 100
1, 26287, Note_on_c, 7, 40, 100
1, 26317, Note_on_c, 7, 69, 100
1, 26317, Note_on_c, 7, 73, 0
1, 26317, Note_on_c, 7, 64, 0
1, 26317, Note_on_c, 7, 52, 0
1, 26317, Note_on_c, 7, 40, 0
1, 26347, Note_on_c, 4, 81, 0
1, 26347, Note_on_c, 4, 81, 80
1, 26347, Note_on_c, 4, 73, 0
1, 26347, Note_on_c, 4, 73, 80
1, 26347, Note_on_c, 5, 64, 0
1, 26347, Note_on_c, 5, 64, 80
1, 26347, Note_on_c, 5, 61, 0
1, 26347, Note_on_c, 5, 61, 80
1, 26347, Note_on_c, 6, 57, 0
1, 26347, Note_on_c, 6, 57, 80
1, 26347, Note_on_c, 6, 45, 0
1, 26347, Note_on_c, 6, 45, 80
1, 26347, Note_on_c, 7, 73, 100
1, 26347, Note_on_c, 7, 69, 0
1, 26347, Note_on_c, 7, 69, 100
1, 26347, Note_on_c, 7, 57, 100
1, 26347, Note_on_c, 7, 45, 100
1, 26377, Note_on_c, 7, 73, 0
1, 26377, Note_on_c, 7, 57, 0
1, 26377, Note_on_c, 7, 45, 0
1, 26407, Note_on_c, 4, 81, 0
1, 26407, Note_on_c, 4, 81, 80
1, 26407, Note_on_c, 4, 73, 0
1, 26407, Note_on_c, 4, 73, 80
1, 26407, Note_on_c, 5, 64, 0
1, 26407, Note_on_c, 5, 64, 80
1, 26407, Note_on_c, 5, 61, 0
1, 26407, Note_on_c, 5, 61, 80
1, 26407, Note_on_c, 6, 57, 0
1, 26407, Note_on_c, 6, 57, 80
1, 26407, Note_on_c, 6, 45, 0
1, 26407, Note_on_c, 6, 45, 80
1, 26407, Note_on_c, 7, 76, 100
1, 26407, Note_on_c, 7, 69, 0
1, 26407, Note_on_c, 7, 61, 100
1, 26407, Note_on_c, 7, 49, 100
1, 26407, Note_on_c, 7, 37, 100
1, 26437, Note_on_c, 7, 73, 100
1, 26437, Note_on_c, 7, 76, 0
1, 26437, Note_on_c, 7, 61, 0
1, 26437, Note_on_c, 7, 49, 0
1, 26437, Note_on_c, 7, 37, 0
1, 26467, Note_on_c, 4, 81, 0
1, 26467, Note_on_c, 4, 81, 80
1, 26467, Note_on_c, 4, 73, 0
1, 26467, Note_on_c, 4, 73, 80
1, 26467, Note_on_c, 5, 64, 0
1, 26467, Note_on_c, 5, 64, 80
1, 26467, Note_on_c, 5, 61, 0
1, 26467, Note_on_c, 5, 61, 80
1, 26467, Note_on_c, 6, 57, 0
1, 26467, Note_on_c, 6, 57, 80
1, 26467, Note_on_c, 6, 45, 0
1, 26467, Note_on_c, 6, 45, 80
1, 26467, Note_on_c, 7, 76, 100
1, 26467, Note_on_c, 7, 73, 0
1, 26467, Note_on_c, 7, 64, 100
1, 26467, Note_on_c, 7, 52, 100
1, 26467, Note_on_c, 7, 40, 100
1, 26497, Note_on_c, 7, 73, 100
1, 26497, Note_on_c, 7, 76, 0
1, 26497, Note_on_c, 7, 64, 0
1, 26497, Note_on_c, 7, 52, 0
1, 26497, Note_on_c, 7, 40, 0
1, 26527, Note_on_c, 4, 81, 0
1, 26527, Note_on_c, 4, 81, 80
1, 26527, Note_on_c, 4, 73, 0
1, 26527, Note_on_c, 4, 73, 80
1, 26527, Note_on_c, 5, 64, 0
1, 26527, Note_on_c, 5, 64, 80
1, 26527, Note_on_c, 5, 61, 0
1, 26527, Note_on_c, 5, 61, 80
1, 26527, Note_on_c, 6, 57, 0
1, 26527, Note_on_c, 6, 57, 80
1, 26527, Note_on_c, 6, 45, 0
1, 26527, Note_on_c, 6, 45, 80
1, 26527, Note_on_c, 7, 69, 100
1, 26527, Note_on_c, 7, 73, 0
1, 26527, Note_on_c, 7, 57, 100
1, 26527, Note_on_c, 7, 45, 100
1, 26527, Note_on_c, 7, 33, 100
1, 26587, Note_on_c, 4, 81, 0
1, 26587, Note_on_c, 4, 73, 0
1, 26587, Note_on_c, 5, 64, 0
1, 26587, Note_on_c, 5, 61, 0
1, 26587, Note_on_c, 6, 57, 0
1, 26587, Note_on_c, 6, 45, 0
1, 26587, Note_on_c, 7, 69, 0
1, 26587, Note_on_c, 7, 57, 0
1, 26587, Note_on_c, 7, 45, 0
1, 26587, Note_on_c, 7, 33, 0
1, 26647, Note_on_c, 4, 85, 80
1, 26647, Note_on_c, 4, 76, 80
1, 26647, Note_on_c, 5, 64, 80
1, 26647, Note_on_c, 5, 61, 80
1, 26647, Note_on_c, 6, 57, 80
1, 26647, Note_on_c, 6, 45, 80
1, 26647, Note_on_c, 7, 64, 100
1, 26647, Note_on_c, 7, 73, 100
1, 26647, Note_on_c, 7, 81, 100
1, 26647, Note_on_c, 7, 69, 100
1, 26647, Note_on_c, 7, 57, 100
1, 26647, Note_on_c, 7, 45, 100
1, 26707, Note_on_c, 4, 85, 0
1, 26707, Note_on_c, 4, 76, 0
1, 26707, Note_on_c, 5, 64, 0
1, 26707, Note_on_c, 5, 61, 0
1, 26707, Note_on_c, 6, 57, 0
1, 26707, Note_on_c, 6, 45, 0
1, 26707, Note_on_c, 7, 64, 0
1, 26707, Note_on_c, 7, 73, 0
1, 26707, Note_on_c, 7, 81, 0
1, 26707, Note_on_c, 7, 69, 0
1, 26707, Note_on_c, 7, 57, 0
1, 26707, Note_on_c, 7, 45, 0
1, 26767, Note_on_c, 4, 81, 80
1, 26767, Note_on_c, 4, 73, 80
1, 26767, Note_on_c, 5, 64, 80
1, 26767, Note_on_c, 5, 61, 80
1, 26767, Note_on_c, 6, 57, 80
1, 26767, Note_on_c, 6, 45, 80
1, 26767, Note_on_c, 7, 57, 100
1, 26767, Note_on_c, 7, 45, 100
1, 26767, Note_on_c, 7, 33, 100
1, 26827, Note_on_c, 4, 81, 0
1, 26827, Note_on_c, 4, 73, 0
1, 26827, Note_on_c, 5, 64, 0
1, 26827, Note_on_c, 5, 61, 0
1, 26827, Note_on_c, 6, 57, 0
1, 26827, Note_on_c, 6, 45, 0
1, 26827, Note_on_c, 7, 57, 0
1, 26827, Note_on_c, 7, 45, 0
1, 26827, Note_on_c, 7, 33, 0
1, 27007, Note_on_c, 3, 76, 127
1, 27007, Note_on_c, 7, 73, 100
1, 27007, Note_on_c, 7, 57, 100
1, 27067, Note_on_c, 7, 57, 0
1, 27067, Note_on_c, 7, 57, 100
1, 27127, Note_on_c, 7, 57, 0
1, 27127, Note_on_c, 7, 57, 100
1, 27187, Note_on_c, 7, 57, 0
1, 27187, Note_on_c, 7, 57, 100
1, 27247, Note_on_c, 3, 76, 0
1, 27247, Note_on_c, 3, 73, 127
1, 27247, Note_on_c, 7, 73, 0
1, 27247, Note_on_c, 7, 69, 100
1, 27247, Note_on_c, 7, 57, 0
1, 27247, Note_on_c, 7, 57, 100
1, 27307, Note_on_c, 7, 57, 0
1, 27307, Note_on_c, 7, 57, 100
1, 27367, Note_on_c, 7, 57, 0
1, 27367, Note_on_c, 7, 57, 100
1, 27427, Note_on_c, 3, 73, 0
1, 27427, Note_on_c, 3, 74, 127
1, 27427, Note_on_c, 7, 69, 0
1, 27427, Note_on_c, 7, 71, 100
1, 27427, Note_on_c, 7, 57, 0
1, 27427, Note_on_c, 7, 57, 100
1, 27487, Note_on_c, 3, 74, 0
1, 27487, Note_on_c, 3, 78, 127
1, 27487, Note_on_c, 7, 71, 0
1, 27487, Note_on_c, 7, 74, 100
1, 27487, Note_on_c, 7, 57, 0
1, 27487, Note_on_c, 7, 57, 100
1, 27547, Note_on_c, 3, 78, 0
1, 27547, Note_on_c, 3, 76, 127
1, 27547, Note_on_c, 7, 74, 0
1, 27547, Note_on_c, 7, 73, 100
1, 27607, Note_on_c, 3, 76, 0
1, 27607, Note_on_c, 3, 74, 127
1, 27607, Note_on_c, 7, 73, 0
1, 27607, Note_on_c, 7, 71, 100
1, 27607, Note_on_c, 7, 57, 0
1, 27637, Note_on_c, 3, 74, 0
1, 27637, Note_on_c, 7, 71, 0
1, 27667, Note_on_c, 3, 73, 127
1, 27667, Note_on_c, 7, 69, 100
1, 27697, Note_on_c, 3, 73, 0
1, 27697, Note_on_c, 7, 69, 0
1, 27727, Note_on_c, 3, 73, 127
1, 27727, Note_on_c, 7, 69, 100
1, 27787, Note_on_c, 7, 57, 100
1, 27847, Note_on_c, 3, 73, 0
1, 27847, Note_on_c, 7, 69, 0
1, 27847, Note_on_c, 7, 57, 0
1, 27847, Note_on_c, 7, 61, 100
1, 27907, Note_on_c, 7, 61, 0
1, 27907, Note_on_c, 7, 57, 100
1, 27967, Note_on_c, 3, 74, 127
1, 27967, Note_on_c, 7, 66, 100
1, 27967, Note_on_c, 7, 57, 0
1, 27967, Note_on_c, 7, 59, 100
1, 27967, Note_on_c, 7, 50, 100
1, 28087, Note_on_c, 3, 74, 0
1, 28087, Note_on_c, 3, 71, 127
1, 28087, Note_on_c, 7, 66, 0
1, 28087, Note_on_c, 7, 62, 100
1, 28087, Note_on_c, 7, 59, 0
1, 28087, Note_on_c, 7, 50, 0
1, 28147, Note_on_c, 3, 71, 0
1, 28147, Note_on_c, 7, 62, 0
1, 28207, Note_on_c, 3, 74, 127
1, 28207, Note_on_c, 7, 66, 100
1, 28207, Note_on_c, 7, 59, 100
1, 28207, Note_on_c, 7, 50, 100
1, 28327, Note_on_c, 3, 74, 0
1, 28327, Note_on_c, 3, 71, 127
1, 28327, Note_on_c, 7, 66, 0
1, 28327, Note_on_c, 7, 62, 100
1, 28327, Note_on_c, 7, 59, 0
1, 28327, Note_on_c, 7, 50, 0
1, 28387, Note_on_c, 3, 71, 0
1, 28387, Note_on_c, 7, 62, 0
1, 28447, Note_on_c, 3, 69, 127
1, 28447, Note_on_c, 7, 61, 100
1, 28507, Note_on_c, 7, 52, 100
1, 28567, Note_on_c, 7, 52, 0
1, 28567, Note_on_c, 7, 52, 100
1, 28627, Note_on_c, 7, 52, 0
1, 28627, Note_on_c, 7, 52, 100
1, 28687, Note_on_c, 3, 69, 0
1, 28687, Note_on_c, 3, 68, 127
1, 28687, Note_on_c, 7, 61, 0
1, 28687, Note_on_c, 7, 59, 100
1, 28687, Note_on_c, 7, 52, 0
1, 28687, Note_on_c, 7, 52, 100
1, 28747, Note_on_c, 7, 64, 100
1, 28807, Note_on_c, 3, 68, 0
1, 28807, Note_on_c, 7, 59, 0
1, 28807, Note_on_c, 7, 64, 0
1, 28807, Note_on_c, 7, 63, 100
1, 28807, Note_on_c, 7, 52, 0
1, 28867, Note_on_c, 7, 63, 0
1, 28867, Note_on_c, 7, 62, 100
1, 28927, Note_on_c, 3, 69, 127
1, 28927, Note_on_c, 7, 64, 100
1, 28927, Note_on_c, 7, 62, 0
1, 28927, Note_on_c, 7, 61, 100
1, 28987, Note_on_c, 7, 61, 0
1, 28987, Note_on_c, 7, 61, 100
1, 29047, Note_on_c, 7, 61, 0
1, 29047, Note_on_c, 7, 61, 100
1, 29107, Note_on_c, 7, 61, 0
1, 29107, Note_on_c, 7, 61, 100
1, 29167, Note_on_c, 7, 64, 0
1, 29167, Note_on_c, 7, 62, 100
1, 29167, Note_on_c, 7, 61, 0
1, 29167, Note_on_c, 7, 59, 100
1, 29197, Note_on_c, 3, 69, 0
1, 29197, Note_on_c, 3, 68, 127
1, 29227, Note_on_c, 3, 68, 0
1, 29227, Note_on_c, 3, 69, 127
1, 29227, Note_on_c, 7, 59, 0
1, 29227, Note_on_c, 7, 59, 100
1, 29257, Note_on_c, 3, 69, 0
1, 29257, Note_on_c, 3, 68, 127
1, 29287, Note_on_c, 3, 68, 0
1, 29287, Note_on_c, 3, 71, 127
1, 29287, Note_on_c, 7, 62, 0
1, 29287, Note_on_c, 7, 61, 100
1, 29287, Note_on_c, 7, 59, 0
1, 29287, Note_on_c, 7, 57, 100
1, 29317, Note_on_c, 3, 71, 0
1, 29317, Note_on_c, 3, 69, 127
1, 29347, Note_on_c, 3, 69, 0
1, 29347, Note_on_c, 3, 68, 127
1, 29347, Note_on_c, 7, 57, 0
1, 29347, Note_on_c, 7, 57, 100
1, 29377, Note_on_c, 3, 68, 0
1, 29377, Note_on_c, 3, 66, 127
1, 29407, Note_on_c, 3, 66, 0
1, 29407, Note_on_c, 3, 64, 127
1, 29407, Note_on_c, 7, 61, 0
1, 29407, Note_on_c, 7, 59, 100
1, 29407, Note_on_c, 7, 57, 0
1, 29407, Note_on_c, 7, 56, 100
1, 29467, Note_on_c, 3, 64, 0
1, 29467, Note_on_c, 3, 74, 127
1, 29527, Note_on_c, 3, 74, 0
1, 29527, Note_on_c, 3, 74, 127
1, 29527, Note_on_c, 7, 59, 0
1, 29527, Note_on_c, 7, 71, 100
1, 29527, Note_on_c, 7, 56, 0
1, 29527, Note_on_c, 7, 68, 100
1, 29527, Note_on_c, 7, 64, 100
1, 29647, Note_on_c, 7, 64, 0
1, 29647, Note_on_c, 7, 65, 100
1, 29767, Note_on_c, 3, 74, 0
1, 29767, Note_on_c, 3, 73, 127
1, 29767, Note_on_c, 7, 71, 0
1, 29767, Note_on_c, 7, 69, 100
1, 29767, Note_on_c, 7, 68, 0
1, 29767, Note_on_c, 7, 65, 0
1, 29767, Note_on_c, 7, 66, 100
1, 29887, Note_on_c, 3, 73, 0
1, 29887, Note_on_c, 3, 71, 127
1, 29887, Note_on_c, 7, 71, 100
1, 29887, Note_on_c, 7, 69, 0
1, 29887, Note_on_c, 7, 62, 100
1, 29917, Note_on_c, 3, 71, 0
1, 29917, Note_on_c, 3, 73, 127
1, 29947, Note_on_c, 3, 73, 0
1, 29947, Note_on_c, 3, 74, 127
1, 29977, Note_on_c, 3, 74, 0
1, 29977, Note_on_c, 3, 76, 127
1, 30007, Note_on_c, 3, 76, 0
1, 30007, Note_on_c, 3, 77, 127
1, 30007, Note_on_c, 7, 71, 0
1, 30007, Note_on_c, 7, 66, 0
1, 30007, Note_on_c, 7, 62, 0
1, 30037, Note_on_c, 3, 77, 0
1, 30037, Note_on_c, 3, 78, 127
1, 30067, Note_on_c, 3, 78, 0
1, 30067, Note_on_c, 3, 74, 127
1, 30067, Note_on_c, 7, 66, 100
1, 30067, Note_on_c, 7, 50, 100
1, 30097, Note_on_c, 3, 74, 0
1, 30097, Note_on_c, 3, 71, 127
1, 30097, Note_on_c, 7, 66, 0
1, 30097, Note_on_c, 7, 62, 100
1, 30127, Note_on_c, 3, 71, 0
1, 30127, Note_on_c, 3, 69, 127
1, 30127, Note_on_c, 7, 62, 0
1, 30127, Note_on_c, 7, 61, 100
1, 30127, Note_on_c, 7, 50, 0
1, 30127, Note_on_c, 7, 52, 100
1, 30187, Note_on_c, 7, 61, 0
1, 30187, Note_on_c, 7, 64, 100
1, 30247, Note_on_c, 3, 69, 0
1, 30247, Note_on_c, 3, 73, 127
1, 30247, Note_on_c, 7, 64, 0
1, 30247, Note_on_c, 7, 62, 100
1, 30247, Note_on_c, 7, 56, 100
1, 30247, Note_on_c, 7, 52, 0
1, 30247, Note_on_c, 7, 52, 100
1, 30307, Note_on_c, 3, 73, 0
1, 30307, Note_on_c, 3, 71, 127
1, 30307, Note_on_c, 7, 62, 0
1, 30307, Note_on_c, 7, 64, 100
1, 30367, Note_on_c, 3, 71, 0
1, 30367, Note_on_c, 3, 69, 127
1, 30367, Note_on_c, 7, 64, 0
1, 30367, Note_on_c, 7, 61, 100
1, 30367, Note_on_c, 7, 56, 0
1, 30367, Note_on_c, 7, 57, 100
1, 30367, Note_on_c, 7, 52, 0
1, 30397, Note_on_c, 7, 61, 0
1, 30427, Note_on_c, 5, 64, 80
1, 30427, Note_on_c, 5, 61, 80
1, 30427, Note_on_c, 7, 64, 100
1, 30457, Note_on_c, 7, 64, 0
1, 30487, Note_on_c, 3, 69, 0
1, 30487, Note_on_c, 7, 69, 100
1, 30487, Note_on_c, 7, 57, 0
1, 30517, Note_on_c, 7, 69, 0
1, 30547, Note_on_c, 5, 64, 0
1, 30547, Note_on_c, 5, 62, 80
1, 30547, Note_on_c, 5, 61, 0
1, 30547, Note_on_c, 5, 59, 80
1, 30547, Note_on_c, 7, 71, 100
1, 30557, Note_on_c, 7, 71, 0
1, 30557, Note_on_c, 7, 73, 100
1, 30567, Note_on_c, 7, 73, 0
1, 30567, Note_on_c, 7, 71, 100
1, 30577, Note_on_c, 7, 71, 0
1, 30577, Note_on_c, 7, 69, 100
1, 30592, Note_on_c, 7, 69, 0
1, 30592, Note_on_c, 7, 71, 100
1, 30607, Note_on_c, 5, 62, 0
1, 30607, Note_on_c, 5, 61, 80
1, 30607, Note_on_c, 5, 59, 0
1, 30607, Note_on_c, 5, 57, 80
1, 30607, Note_on_c, 7, 71, 0
1, 30607, Note_on_c, 7, 73, 100
1, 30637, Note_on_c, 5, 61, 0
1, 30637, Note_on_c, 5, 57, 0
1, 30637, Note_on_c, 7, 73, 0
1, 30667, Note_on_c, 5, 61, 80
1, 30667, Note_on_c, 5, 52, 80
1, 30667, Note_on_c, 7, 69, 100
1, 30667, Note_on_c, 7, 64, 100
1, 30697, Note_on_c, 7, 69, 0
1, 30697, Note_on_c, 7, 64, 0
1, 30727, Note_on_c, 7, 73, 100
1, 30727, Note_on_c, 7, 69, 100
1, 30757, Note_on_c, 7, 73, 0
1, 30757, Note_on_c, 7, 69, 0
1, 30787, Note_on_c, 5, 61, 0
1, 30787, Note_on_c, 5, 59, 80
1, 30787, Note_on_c, 5, 52, 0
1, 30787, Note_on_c, 5, 50, 80
1, 30787, Note_on_c, 7, 74, 100
1, 30787, Note_on_c, 7, 71, 100
1, 30797, Note_on_c, 7, 74, 0
1, 30797, Note_on_c, 7, 76, 100
1, 30797, Note_on_c, 7, 71, 0
1, 30797, Note_on_c, 7, 73, 100
1, 30807, Note_on_c, 7, 76, 0
1, 30807, Note_on_c, 7, 74, 100
1, 30807, Note_on_c, 7, 73, 0
1, 30807, Note_on_c, 7, 71, 100
1, 30817, Note_on_c, 7, 74, 0
1, 30817, Note_on_c, 7, 73, 100
1, 30817, Note_on_c, 7, 71, 0
1, 30817, Note_on_c, 7, 69, 100
1, 30832, Note_on_c, 7, 73, 0
1, 30832, Note_on_c, 7, 74, 100
1, 30832, Note_on_c, 7, 69, 0
1, 30832, Note_on_c, 7, 71, 100
1, 30847, Note_on_c, 3, 69, 127
1, 30847, Note_on_c, 5, 59, 0
1, 30847, Note_on_c, 5, 57, 80
1, 30847, Note_on_c, 5, 50, 0
1, 30847, Note_on_c, 5, 49, 80
1, 30847, Note_on_c, 7, 74, 0
1, 30847, Note_on_c, 7, 76, 100
1, 30847, Note_on_c, 7, 71, 0
1, 30847, Note_on_c, 7, 73, 100
1, 30847, Note_on_c, 7, 61, 100
1, 30847, Note_on_c, 7, 64, 100
1, 30847, Note_on_c, 7, 45, 100
1, 30847, Note_on_c, 7, 33, 100
1, 30907, Note_on_c, 7, 45, 0
1, 30907, Note_on_c, 7, 33, 0
1, 30967, Note_on_c, 5, 57, 0
1, 30967, Note_on_c, 5, 49, 0
1, 30967, Note_on_c, 7, 57, 100
1, 30967, Note_on_c, 7, 45, 100
1, 31027, Note_on_c, 7, 57, 0
1, 31027, Note_on_c, 7, 45, 0
1, 31087, Note_on_c, 7, 76, 0
1, 31087, Note_on_c, 7, 69, 100
1, 31087, Note_on_c, 7, 61, 0
1, 31087, Note_on_c, 7, 64, 0
1, 31087, Note_on_c, 7, 57, 100
1, 31087, Note_on_c, 7, 61, 100
1, 31087, Note_on_c, 7, 45, 100
1, 31087, Note_on_c, 7, 33, 100
1, 31147, Note_on_c, 7, 45, 0
1, 31147, Note_on_c, 7, 33, 0
1, 31207, Note_on_c, 7, 45, 100
1, 31267, Note_on_c, 7, 73, 0
1, 31267, Note_on_c, 7, 74, 100
1, 31267, Note_on_c, 7, 69, 0
1, 31267, Note_on_c, 7, 71, 100
1, 31267, Note_on_c, 7, 61, 0
1, 31267, Note_on_c, 7, 59, 100
1, 31267, Note_on_c, 7, 62, 100
1, 31267, Note_on_c, 7, 57, 0
1, 31267, Note_on_c, 7, 45, 0
1, 31327, Note_on_c, 7, 74, 0
1, 31327, Note_on_c, 7, 78, 100
1, 31327, Note_on_c, 7, 71, 0
1, 31327, Note_on_c, 7, 74, 100
1, 31327, Note_on_c, 7, 59, 0
1, 31327, Note_on_c, 7, 62, 0
1, 31327, Note_on_c, 7, 62, 100
1, 31327, Note_on_c, 7, 66, 100
1, 31327, Note_on_c, 7, 45, 100
1, 31327, Note_on_c, 7, 33, 100
1, 31357, Note_on_c, 3, 69, 0
1, 31357, Note_on_c, 3, 71, 127
1, 31387, Note_on_c, 3, 71, 0
1, 31387, Note_on_c, 3, 73, 127
1, 31387, Note_on_c, 7, 78, 0
1, 31387, Note_on_c, 7, 76, 100
1, 31387, Note_on_c, 7, 74, 0
1, 31387, Note_on_c, 7, 73, 100
1, 31387, Note_on_c, 7, 62, 0
1, 31387, Note_on_c, 7, 66, 0
1, 31387, Note_on_c, 7, 61, 100
1, 31387, Note_on_c, 7, 64, 100
1, 31387, Note_on_c, 7, 45, 0
1, 31387, Note_on_c, 7, 33, 0
1, 31417, Note_on_c, 3, 73, 0
1, 31417, Note_on_c, 3, 74, 127
1, 31447, Note_on_c, 3, 74, 0
1, 31447, Note_on_c, 3, 76, 127
1, 31447, Note_on_c, 7, 76, 0
1, 31447, Note_on_c, 7, 74, 100
1, 31447, Note_on_c, 7, 73, 0
1, 31447, Note_on_c, 7, 71, 100
1, 31447, Note_on_c, 7, 61, 0
1, 31447, Note_on_c, 7, 64, 0
1, 31447, Note_on_c, 7, 59, 100
1, 31447, Note_on_c, 7, 62, 100
1, 31447, Note_on_c, 7, 57, 100
1, 31447, Note_on_c, 7, 45, 100
1, 31477, Note_on_c, 3, 76, 0
1, 31477, Note_on_c, 3, 78, 127
1, 31477, Note_on_c, 7, 74, 0
1, 31477, Note_on_c, 7, 71, 0
1, 31477, Note_on_c, 7, 59, 0
1, 31477, Note_on_c, 7, 62, 0
1, 31507, Note_on_c, 3, 78, 0
1, 31507, Note_on_c, 3, 80, 127
1, 31507, Note_on_c, 7, 73, 100
1, 31507, Note_on_c, 7, 69, 100
1, 31507, Note_on_c, 7, 61, 100
1, 31507, Note_on_c, 7, 45, 0
1, 31537, Note_on_c, 3, 80, 0
1, 31537, Note_on_c, 3, 81, 127
1, 31537, Note_on_c, 7, 73, 0
1, 31537, Note_on_c, 7, 69, 0
1, 31537, Note_on_c, 7, 57, 0
1, 31537, Note_on_c, 7, 61, 0
1, 31567, Note_on_c, 3, 81, 0
1, 31567, Note_on_c, 3, 80, 127
1, 31567, Note_on_c, 7, 73, 100
1, 31567, Note_on_c, 7, 69, 100
1, 31567, Note_on_c, 7, 57, 100
1, 31567, Note_on_c, 7, 61, 100
1, 31567, Note_on_c, 7, 45, 100
1, 31567, Note_on_c, 7, 33, 100
1, 31597, Note_on_c, 3, 80, 0
1, 31597, Note_on_c, 3, 81, 127
1, 31627, Note_on_c, 3, 81, 0
1, 31627, Note_on_c, 3, 80, 127
1, 31627, Note_on_c, 7, 45, 0
1, 31627, Note_on_c, 7, 33, 0
1, 31657, Note_on_c, 3, 80, 0
1, 31657, Note_on_c, 3, 81, 127
1, 31687, Note_on_c, 3, 81, 0
1, 31687, Note_on_c, 3, 80, 127
1, 31687, Note_on_c, 7, 73, 0
1, 31687, Note_on_c, 7, 69, 0
1, 31687, Note_on_c, 7, 57, 0
1, 31687, Note_on_c, 7, 61, 0
1, 31687, Note_on_c, 7, 57, 100
1, 31687, Note_on_c, 7, 45, 100
1, 31717, Note_on_c, 3, 80, 0
1, 31717, Note_on_c, 3, 81, 127
1, 31747, Note_on_c, 3, 81, 0
1, 31747, Note_on_c, 3, 80, 127
1, 31747, Note_on_c, 7, 57, 0
1, 31747, Note_on_c, 7, 45, 0
1, 31777, Note_on_c, 3, 80, 0
1, 31777, Note_on_c, 3, 81, 127
1, 31807, Note_on_c, 3, 81, 0
1, 31807, Note_on_c, 3, 77, 127
1, 31807, Note_on_c, 7, 74, 100
1, 31807, Note_on_c, 7, 66, 100
1, 31807, Note_on_c, 7, 59, 100
1, 31807, Note_on_c, 7, 50, 100
1, 31807, Note_on_c, 7, 38, 100
1, 31837, Note_on_c, 3, 77, 0
1, 31837, Note_on_c, 3, 78, 127
1, 31867, Note_on_c, 3, 78, 0
1, 31867, Note_on_c, 3, 77, 127
1, 31897, Note_on_c, 3, 77, 0
1, 31897, Note_on_c, 3, 78, 127
1, 31927, Note_on_c, 3, 78, 0
1, 31927, Note_on_c, 3, 73, 127
1, 31927, Note_on_c, 7, 74, 0
1, 31927, Note_on_c, 7, 71, 100
1, 31927, Note_on_c, 7, 66, 0
1, 31927, Note_on_c, 7, 62, 100
1, 31927, Note_on_c, 7, 59, 0
1, 31927, Note_on_c, 7, 50, 0
1, 31927, Note_on_c, 7, 38, 0
1, 31957, Note_on_c, 3, 73, 0
1, 31957, Note_on_c, 3, 74, 127
1, 31987, Note_on_c, 3, 74, 0
1, 31987, Note_on_c, 3, 73, 127
1, 31987, Note_on_c, 7, 71, 0
1, 31987, Note_on_c, 7, 62, 0
1, 32017, Note_on_c, 3, 73, 0
1, 32017, Note_on_c, 3, 74, 127
1, 32047, Note_on_c, 3, 74, 0
1, 32047, Note_on_c, 3, 70, 127
1, 32047, Note_on_c, 7, 74, 100
1, 32047, Note_on_c, 7, 66, 100
1, 32047, Note_on_c, 7, 59, 100
1, 32047, Note_on_c, 7, 50, 100
1, 32047, Note_on_c, 7, 38, 100
1, 32077, Note_on_c, 3, 70, 0
1, 32077, Note_on_c, 3, 71, 127
1, 32107, Note_on_c, 3, 71, 0
1, 32107, Note_on_c, 3, 73, 127
1, 32137, Note_on_c, 3, 73, 0
1, 32137, Note_on_c, 3, 74, 127
1, 32167, Note_on_c, 3, 74, 0
1, 32167, Note_on_c, 3, 75, 127
1, 32167, Note_on_c, 7, 74, 0
1, 32167, Note_on_c, 7, 71, 100
1, 32167, Note_on_c, 7, 66, 0
1, 32167, Note_on_c, 7, 62, 100
1, 32167, Note_on_c, 7, 59, 0
1, 32167, Note_on_c, 7, 50, 0
1, 32167, Note_on_c, 7, 38, 0
1, 32197, Note_on_c, 3, 75, 0
1, 32197, Note_on_c, 3, 76, 127
1, 32227, Note_on_c, 3, 76, 0
1, 32227, Note_on_c, 3, 77, 127
1, 32227, Note_on_c, 7, 71, 0
1, 32227, Note_on_c, 7, 62, 0
1, 32257, Note_on_c, 3, 77, 0
1, 32257, Note_on_c, 3, 78, 127
1, 32287, Note_on_c, 3, 78, 0
1, 32287, Note_on_c, 3, 69, 127
1, 32287, Note_on_c, 7, 69, 100
1, 32287, Note_on_c, 7, 61, 100
1, 32287, Note_on_c, 7, 64, 100
1, 32347, Note_on_c, 7, 52, 100
1, 32347, Note_on_c, 7, 40, 100
1, 32377, Note_on_c, 7, 52, 0
1, 32377, Note_on_c, 7, 40, 0
1, 32407, Note_on_c, 7, 52, 100
1, 32407, Note_on_c, 7, 40, 100
1, 32437, Note_on_c, 7, 52, 0
1, 32437, Note_on_c, 7, 40, 0
1, 32467, Note_on_c, 3, 69, 0
1, 32467, Note_on_c, 3, 71, 127
1, 32467, Note_on_c, 7, 52, 100
1, 32467, Note_on_c, 7, 40, 100
1, 32497, Note_on_c, 3, 71, 0
1, 32497, Note_on_c, 3, 69, 127
1, 32497, Note_on_c, 7, 52, 0
1, 32497, Note_on_c, 7, 40, 0
1, 32527, Note_on_c, 3, 69, 0
1, 32527, Note_on_c, 3, 68, 127
1, 32527, Note_on_c, 7, 69, 0
1, 32527, Note_on_c, 7, 68, 100
1, 32527, Note_on_c, 7, 61, 0
1, 32527, Note_on_c, 7, 59, 100
1, 32527, Note_on_c, 7, 52, 100
1, 32527, Note_on_c, 7, 40, 100
1, 32587, Note_on_c, 7, 52, 0
1, 32587, Note_on_c, 7, 56, 100
1, 32587, Note_on_c, 7, 40, 0
1, 32587, Note_on_c, 7, 44, 100
1, 32647, Note_on_c, 3, 68, 0
1, 32647, Note_on_c, 7, 68, 0
1, 32647, Note_on_c, 7, 59, 0
1, 32647, Note_on_c, 7, 64, 0
1, 32647, Note_on_c, 7, 56, 0
1, 32647, Note_on_c, 7, 59, 100
1, 32647, Note_on_c, 7, 44, 0
1, 32647, Note_on_c, 7, 47, 100
1, 32707, Note_on_c, 7, 59, 0
1, 32707, Note_on_c, 7, 56, 100
1, 32707, Note_on_c, 7, 47, 0
1, 32707, Note_on_c, 7, 44, 100
1, 32767, Note_on_c, 3, 76, 127
1, 32767, Note_on_c, 7, 59, 100
1, 32767, Note_on_c, 7, 52, 100
1, 32767, Note_on_c, 7, 44, 0
1, 32767, Note_on_c, 7, 40, 100
1, 32797, Note_on_c, 3, 76, 0
1, 32797, Note_on_c, 3, 74, 127
1, 32827, Note_on_c, 3, 74, 0
1, 32827, Note_on_c, 3, 71, 127
1, 32842, Note_on_c, 3, 71, 0
1, 32857, Note_on_c, 3, 68, 127
1, 32872, Note_on_c, 3, 68, 0
1, 32887, Note_on_c, 3, 64, 127
1, 32887, Note_on_c, 7, 59, 0
1, 32887, Note_on_c, 7, 56, 0
1, 32887, Note_on_c, 7, 52, 0
1, 32887, Note_on_c, 7, 40, 0
1, 32902, Note_on_c, 3, 64, 0
1, 32917, Note_on_c, 3, 62, 127
1, 32932, Note_on_c, 3, 62, 0
1, 32947, Note_on_c, 3, 59, 127
1, 32962, Note_on_c, 3, 59, 0
1, 32977, Note_on_c, 3, 56, 127
1, 32992, Note_on_c, 3, 56, 0
1, 33007, Note_on_c, 3, 52, 127
1, 33067, Note_on_c, 7, 64, 100
1, 33067, Note_on_c, 7, 56, 100
1, 33127, Note_on_c, 7, 64, 0
1, 33127, Note_on_c, 7, 64, 100
1, 33127, Note_on_c, 7, 56, 0
1, 33127, Note_on_c, 7, 56, 100
1, 33187, Note_on_c, 7, 64, 0
1, 33187, Note_on_c, 7, 64, 100
1, 33187, Note_on_c, 7, 56, 0
1, 33187, Note_on_c, 7, 56, 100
1, 33247, Note_on_c, 3, 52, 0
1, 33247, Note_on_c, 3, 50, 127
1, 33247, Note_on_c, 7, 64, 0
1, 33247, Note_on_c, 7, 56, 0
1, 33247, Note_on_c, 7, 54, 100
1, 33247, Note_on_c, 7, 42, 100
1, 33307, Note_on_c, 7, 62, 100
1, 33307, Note_on_c, 7, 57, 100
1, 33367, Note_on_c, 7, 62, 0
1, 33367, Note_on_c, 7, 62, 100
1, 33367, Note_on_c, 7, 57, 0
1, 33367, Note_on_c, 7, 57, 100
1, 33427, Note_on_c, 7, 62, 0
1, 33427, Note_on_c, 7, 62, 100
1, 33427, Note_on_c, 7, 57, 0
1, 33427, Note_on_c, 7, 57, 100
1, 33487, Note_on_c, 3, 50, 0
1, 33487, Note_on_c, 3, 80, 127
1, 33487, Note_on_c, 7, 62, 0
1, 33487, Note_on_c, 7, 57, 0
1, 33487, Note_on_c, 7, 54, 0
1, 33487, Note_on_c, 7, 50, 100
1, 33487, Note_on_c, 7, 42, 0
1, 33487, Note_on_c, 7, 38, 100
1, 33547, Note_on_c, 7, 71, 100
1, 33547, Note_on_c, 7, 68, 100
1, 33547, Note_on_c, 7, 64, 100
1, 33607, Note_on_c, 7, 71, 0
1, 33607, Note_on_c, 7, 71, 100
1, 33607, Note_on_c, 7, 68, 0
1, 33607, Note_on_c, 7, 68, 100
1, 33607, Note_on_c, 7, 64, 0
1, 33607, Note_on_c, 7, 64, 100
1, 33667, Note_on_c, 7, 71, 0
1, 33667, Note_on_c, 7, 71, 100
1, 33667, Note_on_c, 7, 68, 0
1, 33667, Note_on_c, 7, 68, 100
1, 33667, Note_on_c, 7, 64, 0
1, 33667, Note_on_c, 7, 64, 100
1, 33727, Note_on_c, 3, 80, 0
1, 33727, Note_on_c, 3, 81, 127
1, 33727, Note_on_c, 7, 71, 0
1, 33727, Note_on_c, 7, 73, 100
1, 33727, Note_on_c, 7, 68, 0
1, 33727, Note_on_c, 7, 69, 100
1, 33727, Note_on_c, 7, 64, 0
1, 33727, Note_on_c, 7, 64, 100
1, 33727, Note_on_c, 7, 50, 0
1, 33727, Note_on_c, 7, 49, 100
1, 33727, Note_on_c, 7, 38, 0
1, 33727, Note_on_c, 7, 37, 100
1, 33787, Note_on_c, 3, 81, 0
1, 33787, Note_on_c, 3, 73, 127
1, 33847, Note_on_c, 3, 73, 0
1, 33847, Note_on_c, 3, 74, 127
1, 33847, Note_on_c, 7, 73, 0
1, 33847, Note_on_c, 7, 69, 0
1, 33847, Note_on_c, 7, 64, 0
1, 33847, Note_on_c, 7, 49, 0
1, 33847, Note_on_c, 7, 37, 0
1, 33907, Note_on_c, 3, 74, 0
1, 33907, Note_on_c, 3, 75, 127
1, 33967, Note_on_c, 3, 75, 0
1, 33967, Note_on_c, 3, 76, 127
1, 34027, Note_on_c, 3, 76, 0
1, 34027, Note_on_c, 3, 68, 127
1, 34087, Note_on_c, 3, 68, 0
1, 34087, Note_on_c, 3, 69, 127
1, 34147, Note_on_c, 3, 69, 0
1, 34147, Note_on_c, 3, 70, 127
1, 34207, Note_on_c, 3, 70, 0
1, 34207, Note_on_c, 3, 71, 127
1, 34327, Note_on_c, 7, 69, 100
1, 34327, Note_on_c, 7, 66, 100
1, 34327, Note_on_c, 7, 63, 100
1, 34447, Note_on_c, 7, 66, 0
1, 34447, Note_on_c, 7, 64, 100
1, 34447, Note_on_c, 7, 63, 0
1, 34567, Note_on_c, 3, 71, 0
1, 34567, Note_on_c, 3, 73, 127
1, 34567, Note_on_c, 7, 69, 0
1, 34567, Note_on_c, 7, 68, 100
1, 34567, Note_on_c, 7, 52, 100
1, 34627, Note_on_c, 3, 73, 0
1, 34627, Note_on_c, 3, 74, 127
1, 34687, Note_on_c, 3, 74, 0
1, 34687, Note_on_c, 3, 73, 127
1, 34687, Note_on_c, 7, 68, 0
1, 34687, Note_on_c, 7, 69, 100
1, 34687, Note_on_c, 7, 64, 0
1, 34687, Note_on_c, 7, 64, 100
1, 34687, Note_on_c, 7, 52, 0
1, 34687, Note_on_c, 7, 57, 100
1, 34687, Note_on_c, 7, 45, 100
1, 34717, Note_on_c, 3, 73, 0
1, 34717, Note_on_c, 3, 81, 127
1, 34747, Note_on_c, 3, 81, 0
1, 34747, Note_on_c, 3, 76, 127
1, 34747, Note_on_c, 7, 69, 0
1, 34747, Note_on_c, 7, 69, 100
1, 34747, Note_on_c, 7, 64, 0
1, 34747, Note_on_c, 7, 64, 100
1, 34747, Note_on_c, 7, 61, 100
1, 34762, Note_on_c, 3, 76, 0
1, 34777, Note_on_c, 3, 73, 127
1, 34792, Note_on_c, 3, 73, 0
1, 34807, Note_on_c, 3, 69, 127
1, 34807, Note_on_c, 7, 69, 0
1, 34807, Note_on_c, 7, 69, 100
1, 34807, Note_on_c, 7, 64, 0
1, 34807, Note_on_c, 7, 64, 100
1, 34807, Note_on_c, 7, 61, 0
1, 34807, Note_on_c, 7, 61, 100
1, 34807, Note_on_c, 7, 57, 0
1, 34807, Note_on_c, 7, 45, 0
1, 34822, Note_on_c, 3, 69, 0
1, 34837, Note_on_c, 3, 64, 127
1, 34852, Note_on_c, 3, 64, 0
1, 34867, Note_on_c, 3, 61, 127
1, 34867, Note_on_c, 7, 69, 0
1, 34867, Note_on_c, 7, 69, 100
1, 34867, Note_on_c, 7, 64, 0
1, 34867, Note_on_c, 7, 64, 100
1, 34867, Note_on_c, 7, 61, 0
1, 34867, Note_on_c, 7, 61, 100
1, 34882, Note_on_c, 3, 61, 0
1, 34897, Note_on_c, 3, 57, 127
1, 34912, Note_on_c, 3, 57, 0
1, 34927, Note_on_c, 3, 54, 127
1, 34927, Note_on_c, 7, 69, 0
1, 34927, Note_on_c, 7, 64, 0
1, 34927, Note_on_c, 7, 61, 0
1, 34927, Note_on_c, 7, 50, 100
1, 34927, Note_on_c, 7, 38, 100
1, 34957, Note_on_c, 3, 54, 0
1, 34957, Note_on_c, 3, 57, 127
1, 34987, Note_on_c, 3, 57, 0
1, 34987, Note_on_c, 3, 62, 127
1, 34987, Note_on_c, 7, 69, 100
1, 34987, Note_on_c, 7, 66, 100
1, 34987, Note_on_c, 7, 62, 100
1, 35017, Note_on_c, 3, 62, 0
1, 35017, Note_on_c, 3, 66, 127
1, 35047, Note_on_c, 3, 66, 0
1, 35047, Note_on_c, 3, 69, 127
1, 35047, Note_on_c, 7, 69, 0
1, 35047, Note_on_c, 7, 69, 100
1, 35047, Note_on_c, 7, 66, 0
1, 35047, Note_on_c, 7, 66, 100
1, 35047, Note_on_c, 7, 62, 0
1, 35047, Note_on_c, 7, 62, 100
1, 35047, Note_on_c, 7, 50, 0
1, 35047, Note_on_c, 7, 38, 0
1, 35077, Note_on_c, 3, 69, 0
1, 35077, Note_on_c, 3, 74, 127
1, 35107, Note_on_c, 3, 74, 0
1, 35107, Note_on_c, 3, 78, 127
1, 35107, Note_on_c, 7, 69, 0
1, 35107, Note_on_c, 7, 69, 100
1, 35107, Note_on_c, 7, 66, 0
1, 35107, Note_on_c, 7, 66, 100
1, 35107, Note_on_c, 7, 62, 0
1, 35107, Note_on_c, 7, 62, 100
1, 35137, Note_on_c, 3, 78, 0
1, 35137, Note_on_c, 3, 81, 127
1, 35167, Note_on_c, 3, 81, 0
1, 35167, Note_on_c, 3, 75, 127
1, 35167, Note_on_c, 7, 69, 0
1, 35167, Note_on_c, 7, 66, 0
1, 35167, Note_on_c, 7, 62, 0
1, 35167, Note_on_c, 7, 49, 100
1, 35167, Note_on_c, 7, 37, 100
1, 35197, Note_on_c, 3, 75, 0
1, 35197, Note_on_c, 3, 76, 127
1, 35227, Note_on_c, 3, 76, 0
1, 35227, Note_on_c, 3, 78, 127
1, 35227, Note_on_c, 7, 69, 100
1, 35227, Note_on_c, 7, 64, 100
1, 35227, Note_on_c, 7, 57, 100
1, 35257, Note_on_c, 3, 78, 0
1, 35257, Note_on_c, 3, 76, 127
1, 35287, Note_on_c, 3, 76, 0
1, 35287, Note_on_c, 3, 74, 127
1, 35287, Note_on_c, 7, 69, 0
1, 35287, Note_on_c, 7, 69, 100
1, 35287, Note_on_c, 7, 64, 0
1, 35287, Note_on_c, 7, 61, 100
1, 35287, Note_on_c, 7, 57, 0
1, 35287, Note_on_c, 7, 57, 100
1, 35287, Note_on_c, 7, 49, 0
1, 35287, Note_on_c, 7, 54, 100
1, 35287, Note_on_c, 7, 37, 0
1, 35287, Note_on_c, 7, 42, 100
1, 35317, Note_on_c, 3, 74, 0
1, 35317, Note_on_c, 3, 73, 127
1, 35347, Note_on_c, 3, 73, 0
1, 35347, Note_on_c, 3, 71, 127
1, 35347, Note_on_c, 7, 69, 0
1, 35347, Note_on_c, 7, 69, 100
1, 35347, Note_on_c, 7, 61, 0
1, 35347, Note_on_c, 7, 61, 100
1, 35347, Note_on_c, 7, 57, 0
1, 35347, Note_on_c, 7, 66, 100
1, 35377, Note_on_c, 3, 71, 0
1, 35377, Note_on_c, 3, 69, 127
1, 35407, Note_on_c, 3, 69, 0
1, 35407, Note_on_c, 3, 71, 127
1, 35407, Note_on_c, 7, 69, 0
1, 35407, Note_on_c, 7, 69, 100
1, 35407, Note_on_c, 7, 61, 0
1, 35407, Note_on_c, 7, 59, 100
1, 35407, Note_on_c, 7, 66, 0
1, 35407, Note_on_c, 7, 66, 100
1, 35407, Note_on_c, 7, 54, 0
1, 35407, Note_on_c, 7, 50, 100
1, 35407, Note_on_c, 7, 42, 0
1, 35407, Note_on_c, 7, 38, 100
1, 35422, Note_on_c, 3, 71, 0
1, 35422, Note_on_c, 3, 73, 127
1, 35437, Note_on_c, 3, 73, 0
1, 35437, Note_on_c, 3, 71, 127
1, 35452, Note_on_c, 3, 71, 0
1, 35452, Note_on_c, 3, 73, 127
1, 35467, Note_on_c, 3, 73, 0
1, 35467, Note_on_c, 3, 71, 127
1, 35467, Note_on_c, 7, 69, 0
1, 35467, Note_on_c, 7, 69, 100
1, 35467, Note_on_c, 7, 59, 0
1, 35467, Note_on_c, 7, 59, 100
1, 35467, Note_on_c, 7, 66, 0
1, 35467, Note_on_c, 7, 66, 100
1, 35482, Note_on_c, 3, 71, 0
1, 35482, Note_on_c, 3, 73, 127
1, 35497, Note_on_c, 3, 73, 0
1, 35497, Note_on_c, 3, 71, 127
1, 35512, Note_on_c, 3, 71, 0
1, 35512, Note_on_c, 3, 73, 127
1, 35527, Note_on_c, 3, 73, 0
1, 35527, Note_on_c, 3, 71, 127
1, 35527, Note_on_c, 7, 69, 0
1, 35527, Note_on_c, 7, 68, 100
1, 35527, Note_on_c, 7, 59, 0
1, 35527, Note_on_c, 7, 59, 100
1, 35527, Note_on_c, 7, 66, 0
1, 35527, Note_on_c, 7, 64, 100
1, 35527, Note_on_c, 7, 50, 0
1, 35527, Note_on_c, 7, 52, 100
1, 35527, Note_on_c, 7, 38, 0
1, 35527, Note_on_c, 7, 40, 100
1, 35542, Note_on_c, 3, 71, 0
1, 35542, Note_on_c, 3, 73, 127
1, 35557, Note_on_c, 3, 73, 0
1, 35557, Note_on_c, 3, 71, 127
1, 35572, Note_on_c, 3, 71, 0
1, 35572, Note_on_c, 3, 73, 127
1, 35587, Note_on_c, 3, 73, 0
1, 35587, Note_on_c, 3, 71, 127
1, 35587, Note_on_c, 7, 68, 0
1, 35587, Note_on_c, 7, 68, 100
1, 35587, Note_on_c, 7, 59, 0
1, 35587, Note_on_c, 7, 59, 100
1, 35587, Note_on_c, 7, 64, 0
1, 35587, Note_on_c, 7, 62, 100
1, 35602, Note_on_c, 3, 71, 0
1, 35602, Note_on_c, 3, 73, 127
1, 35617, Note_on_c, 3, 73, 0
1, 35617, Note_on_c, 3, 69, 127
1, 35632, Note_on_c, 3, 69, 0
1, 35632, Note_on_c, 3, 71, 127
1, 35647, Note_on_c, 3, 71, 0
1, 35647, Note_on_c, 3, 69, 127
1, 35647, Note_on_c, 4, 81, 80
1, 35647, Note_on_c, 4, 73, 80
1, 35647, Note_on_c, 5, 57, 80
1, 35647, Note_on_c, 6, 57, 80
1, 35647, Note_on_c, 6, 45, 80
1, 35647, Note_on_c, 7, 68, 0
1, 35647, Note_on_c, 7, 69, 100
1, 35647, Note_on_c, 7, 59, 0
1, 35647, Note_on_c, 7, 57, 100
1, 35647, Note_on_c, 7, 62, 0
1, 35647, Note_on_c, 7, 61, 100
1, 35647, Note_on_c, 7, 52, 0
1, 35647, Note_on_c, 7, 45, 100
1, 35647, Note_on_c, 7, 40, 0
1, 35647, Note_on_c, 7, 33, 100
1, 35677, Note_on_c, 7, 69, 0
1, 35677, Note_on_c, 7, 64, 100
1, 35707, Note_on_c, 7, 64, 0
1, 35707, Note_on_c, 7, 57, 0
1, 35707, Note_on_c, 7, 69, 100
1, 35707, Note_on_c, 7, 45, 0
1, 35707, Note_on_c, 7, 57, 100
1, 35707, Note_on_c, 7, 33, 0
1, 35707, Note_on_c, 7, 45, 100
1, 35737, Note_on_c, 7, 64, 100
1, 35737, Note_on_c, 7, 61, 0
1, 35737, Note_on_c, 7, 69, 0
1, 35737, Note_on_c, 7, 57, 0
1, 35737, Note_on_c, 7, 45, 0
1, 35767, Note_on_c, 3, 69, 0
1, 35767, Note_on_c, 4, 81, 0
1, 35767, Note_on_c, 4, 81, 80
1, 35767, Note_on_c, 4, 73, 0
1, 35767, Note_on_c, 4, 73, 80
1, 35767, Note_on_c, 5, 64, 80
1, 35767, Note_on_c, 5, 57, 0
1, 35767, Note_on_c, 5, 61, 80
1, 35767, Note_on_c, 6, 57, 0
1, 35767, Note_on_c, 6, 57, 80
1, 35767, Note_on_c, 6, 45, 0
1, 35767, Note_on_c, 6, 45, 80
1, 35767, Note_on_c, 7, 69, 100
1, 35767, Note_on_c, 7, 64, 0
1, 35767, Note_on_c, 7, 73, 100
1, 35767, Note_on_c, 7, 61, 100
1, 35767, Note_on_c, 7, 49, 100
1, 35797, Note_on_c, 7, 64, 100
1, 35797, Note_on_c, 7, 69, 0
1, 35797, Note_on_c, 7, 73, 0
1, 35797, Note_on_c, 7, 61, 0
1, 35797, Note_on_c, 7, 49, 0
1, 35827, Note_on_c, 7, 69, 100
1, 35827, Note_on_c, 7, 64, 0
1, 35827, Note_on_c, 7, 57, 100
1, 35827, Note_on_c, 7, 45, 100
1, 35857, Note_on_c, 4, 81, 0
1, 35857, Note_on_c, 4, 81, 80
1, 35857, Note_on_c, 4, 73, 0
1, 35857, Note_on_c, 4, 73, 80
1, 35857, Note_on_c, 5, 64, 0
1, 35857, Note_on_c, 5, 64, 80
1, 35857, Note_on_c, 5, 61, 0
1, 35857, Note_on_c, 5, 61, 80
1, 35857, Note_on_c, 6, 57, 0
1, 35857, Note_on_c, 6, 57, 80
1, 35857, Note_on_c, 6, 45, 0
1, 35857, Note_on_c, 6, 45, 80
1, 35857, Note_on_c, 7, 64, 100
1, 35857, Note_on_c, 7, 69, 0
1, 35857, Note_on_c, 7, 57, 0
1, 35857, Note_on_c, 7, 45, 0
1, 35887, Note_on_c, 4, 81, 0
1, 35887, Note_on_c, 4, 81, 80
1, 35887, Note_on_c, 4, 73, 0
1, 35887, Note_on_c, 4, 73, 80
1, 35887, Note_on_c, 5, 64, 0
1, 35887, Note_on_c, 5, 64, 80
1, 35887, Note_on_c, 5, 61, 0
1, 35887, Note_on_c, 5, 61, 80
1, 35887, Note_on_c, 6, 57, 0
1, 35887, Note_on_c, 6, 57, 80
1, 35887, Note_on_c, 6, 45, 0
1, 35887, Note_on_c, 6, 45, 80
1, 35887, Note_on_c, 7, 73, 100
1, 35887, Note_on_c, 7, 64, 0
1, 35887, Note_on_c, 7, 64, 100
1, 35887, Note_on_c, 7, 52, 100
1, 35887, Note_on_c, 7, 40, 100
1, 35917, Note_on_c, 7, 69, 100
1, 35917, Note_on_c, 7, 73, 0
1, 35917, Note_on_c, 7, 64, 0
1, 35917, Note_on_c, 7, 52, 0
1, 35917, Note_on_c, 7, 40, 0
1, 35947, Note_on_c, 4, 81, 0
1, 35947, Note_on_c, 4, 81, 80
1, 35947, Note_on_c, 4, 73, 0
1, 35947, Note_on_c, 4, 73, 80
1, 35947, Note_on_c, 5, 64, 0
1, 35947, Note_on_c, 5, 64, 80
1, 35947, Note_on_c, 5, 61, 0
1, 35947, Note_on_c, 5, 61, 80
1, 35947, Note_on_c, 6, 57, 0
1, 35947, Note_on_c, 6, 57, 80
1, 35947, Note_on_c, 6, 45, 0
1, 35947, Note_on_c, 6, 45, 80
1, 35947, Note_on_c, 7, 73, 100
1, 35947, Note_on_c, 7, 69, 0
1, 35947, Note_on_c, 7, 69, 100
1, 35947, Note_on_c, 7, 57, 100
1, 35947, Note_on_c, 7, 45, 100
1, 35977, Note_on_c, 7, 73, 0
1, 35977, Note_on_c, 7, 57, 0
1, 35977, Note_on_c, 7, 45, 0
1, 36007, Note_on_c, 4, 81, 0
1, 36007, Note_on_c, 4, 81, 80
1, 36007, Note_on_c, 4, 73, 0
1, 36007, Note_on_c, 4, 73, 80
1, 36007, Note_on_c, 5, 64, 0
1, 36007, Note_on_c, 5, 64, 80
1, 36007, Note_on_c, 5, 61, 0
1, 36007, Note_on_c, 5, 61, 80
1, 36007, Note_on_c, 6, 57, 0
1, 36007, Note_on_c, 6, 57, 80
1, 36007, Note_on_c, 6, 45, 0
1, 36007, Note_on_c, 6, 45, 80
1, 36007, Note_on_c, 7, 76, 100
1, 36007, Note_on_c, 7, 69, 0
1, 36007, Note_on_c, 7, 61, 100
1, 36007, Note_on_c, 7, 49, 100
1, 36007, Note_on_c, 7, 37, 100
1, 36037, Note_on_c, 7, 73, 100
1, 36037, Note_on_c, 7, 76, 0
1, 36037, Note_on_c, 7, 61, 0
1, 36037, Note_on_c, 7, 49, 0
1, 36037, Note_on_c, 7, 37, 0
1, 36067, Note_on_c, 4, 81, 0
1, 36067, Note_on_c, 4, 81, 80
1, 36067, Note_on_c, 4, 73, 0
1, 36067, Note_on_c, 4, 73, 80
1, 36067, Note_on_c, 5, 64, 0
1, 36067, Note_on_c, 5, 64, 80
1, 36067, Note_on_c, 5, 61, 0
1, 36067, Note_on_c, 5, 61, 80
1, 36067, Note_on_c, 6, 57, 0
1, 36067, Note_on_c, 6, 57, 80
1, 36067, Note_on_c, 6, 45, 0
1, 36067, Note_on_c, 6, 45, 80
1, 36067, Note_on_c, 7, 76, 100
1, 36067, Note_on_c, 7, 73, 0
1, 36067, Note_on_c, 7, 64, 100
1, 36067, Note_on_c, 7, 52, 100
1, 36067, Note_on_c, 7, 40, 100
1, 36097, Note_on_c, 7, 73, 100
1, 36097, Note_on_c, 7, 76, 0
1, 36097, Note_on_c, 7, 64, 0
1, 36097, Note_on_c, 7, 52, 0
1, 36097, Note_on_c, 7, 40, 0
1, 36127, Note_on_c, 4, 81, 0
1, 36127, Note_on_c, 4, 81, 80
1, 36127, Note_on_c, 4, 73, 0
1, 36127, Note_on_c, 4, 73, 80
1, 36127, Note_on_c, 5, 64, 0
1, 36127, Note_on_c, 5, 64, 80
1, 36127, Note_on_c, 5, 61, 0
1, 36127, Note_on_c, 5, 61, 80
1, 36127, Note_on_c, 6, 57, 0
1, 36127, Note_on_c, 6, 57, 80
1, 36127, Note_on_c, 6, 45, 0
1, 36127, Note_on_c, 6, 45, 80
1, 36127, Note_on_c, 7, 81, 100
1, 36127, Note_on_c, 7, 73, 0
1, 36127, Note_on_c, 7, 57, 100
1, 36127, Note_on_c, 7, 45, 100
1, 36127, Note_on_c, 7, 33, 100
1, 36187, Note_on_c, 6, 57, 0
1, 36187, Note_on_c, 6, 45, 0
1, 36247, Note_on_c, 4, 81, 0
1, 36247, Note_on_c, 4, 73, 0
1, 36247, Note_on_c, 5, 64, 0
1, 36247, Note_on_c, 5, 61, 0
1, 36247, Note_on_c, 6, 57, 80
1, 36247, Note_on_c, 6, 45, 80
1, 36247, Note_on_c, 7, 81, 0
1, 36247, Note_on_c, 7, 57, 0
1, 36247, Note_on_c, 7, 45, 0
1, 36247, Note_on_c, 7, 33, 0
1, 36307, Note_on_c, 6, 57, 0
1, 36307, Note_on_c, 6, 45, 0
1, 36367, Note_on_c, 6, 57, 80
1, 36367, Note_on_c, 6, 45, 80
1, 36367, Note_on_c, 7, 69, 100
1, 36367, Note_on_c, 7, 61, 100
1, 36367, Note_on_c, 7, 54, 100
1, 36367, Note_on_c, 7, 42, 100
1, 36427, Note_on_c, 6, 57, 0
1, 36427, Note_on_c, 6, 45, 0
1, 36487, Note_on_c, 7, 69, 0
1, 36487, Note_on_c, 7, 61, 0
1, 36487, Note_on_c, 7, 54, 0
1, 36487, Note_on_c, 7, 42, 0
1, 36607, Note_on_c, 7, 74, 100
1, 36607, Note_on_c, 7, 66, 100
1, 36607, Note_on_c, 7, 69, 100
1, 36607, Note_on_c, 7, 59, 100
1, 36607, Note_on_c, 7, 47, 100
1, 36607, Note_on_c, 7, 35, 100
1, 36727, Note_on_c, 7, 74, 0
1, 36727, Note_on_c, 7, 66, 0
1, 36727, Note_on_c, 7, 69, 0
1, 36727, Note_on_c, 7, 59, 0
1, 36727, Note_on_c, 7, 47, 0
1, 36727, Note_on_c, 7, 35, 0
1, 36847, Note_on_c, 7, 68, 100
1, 36847, Note_on_c, 7, 62, 100
1, 36847, Note_on_c, 7, 64, 100
1, 36847, Note_on_c, 7, 59, 100
1, 36847, Note_on_c, 7, 52, 100
1, 36847, Note_on_c, 7, 40, 100
1, 36967, Note_on_c, 7, 68, 0
1, 36967, Note_on_c, 7, 62, 0
1, 36967, Note_on_c, 7, 64, 0
1, 36967, Note_on_c, 7, 59, 0
1, 36967, Note_on_c, 7, 52, 0
1, 36967, Note_on_c, 7, 40, 0
1, 37087, Note_on_c, 3, 69, 127
1, 37087, Note_on_c, 7, 69, 100
1, 37087, Note_on_c, 7, 60, 100
1, 37087, Note_on_c, 7, 64, 100
1, 37087, Note_on_c, 7, 57, 100
1, 37087, Note_on_c, 7, 45, 100
1, 37087, Note_on_c, 7, 33, 100
1, 37207, Note_on_c, 7, 69, 0
1, 37207, Note_on_c, 7, 60, 0
1, 37207, Note_on_c, 7, 64, 0
1, 37207, Note_on_c, 7, 57, 0
1, 37207, Note_on_c, 7, 45, 0
1, 37207, Note_on_c, 7, 33, 0
1, 37327, Note_on_c, 7, 60, 100
1, 37327, Note_on_c, 7, 57, 100
1, 37327, Note_on_c, 7, 53, 100
1, 37327, Note_on_c, 7, 41, 100
1, 37447, Note_on_c, 3, 69, 0
1, 37447, Note_on_c, 3, 71, 127
1, 37447, Note_on_c, 7, 60, 0
1, 37447, Note_on_c, 7, 57, 0
1, 37447, Note_on_c, 7, 53, 0
1, 37447, Note_on_c, 7, 41, 0
1, 37507, Note_on_c, 3, 71, 0
1, 37507, Note_on_c, 3, 72, 127
1, 37567, Note_on_c, 3, 72, 0
1, 37567, Note_on_c, 3, 71, 127
1, 37567, Note_on_c, 7, 65, 100
1, 37567, Note_on_c, 7, 59, 100
1, 37567, Note_on_c, 7, 57, 100
1, 37567, Note_on_c, 7, 50, 100
1, 37567, Note_on_c, 7, 38, 100
1, 37627, Note_on_c, 3, 71, 0
1, 37627, Note_on_c, 3, 74, 127
1, 37687, Note_on_c, 3, 74, 0
1, 37687, Note_on_c, 3, 77, 127
1, 37687, Note_on_c, 7, 65, 0
1, 37687, Note_on_c, 7, 59, 0
1, 37687, Note_on_c, 7, 57, 0
1, 37687, Note_on_c, 7, 50, 0
1, 37687, Note_on_c, 7, 38, 0
1, 37807, Note_on_c, 7, 59, 100
1, 37807, Note_on_c, 7, 56, 100
1, 37807, Note_on_c, 7, 52, 100
1, 37807, Note_on_c, 7, 40, 100
1, 37927, Note_on_c, 3, 77, 0
1, 37927, Note_on_c, 3, 76, 127
1, 37927, Note_on_c, 7, 59, 0
1, 37927, Note_on_c, 7, 56, 0
1, 37927, Note_on_c, 7, 52, 0
1, 37927, Note_on_c, 7, 40, 0
1, 37987, Note_on_c, 3, 76, 0
1, 37987, Note_on_c, 3, 74, 127
1, 38047, Note_on_c, 3, 74, 0
1, 38047, Note_on_c, 3, 74, 127
1, 38047, Note_on_c, 7, 60, 100
1, 38047, Note_on_c, 7, 57, 100
1, 38047, Note_on_c, 7, 52, 100
1, 38047, Note_on_c, 7, 45, 100
1, 38047, Note_on_c, 7, 33, 100
1, 38077, Note_on_c, 3, 74, 0
1, 38077, Note_on_c, 3, 72, 127
1, 38077, Note_on_c, 7, 60, 0
1, 38077, Note_on_c, 7, 57, 0
1, 38077, Note_on_c, 7, 52, 0
1, 38077, Note_on_c, 7, 45, 0
1, 38077, Note_on_c, 7, 33, 0
1, 38107, Note_on_c, 3, 72, 0
1, 38107, Note_on_c, 3, 71, 127
1, 38107, Note_on_c, 7, 64, 100
1, 38107, Note_on_c, 7, 60, 100
1, 38107, Note_on_c, 7, 52, 100
1, 38107, Note_on_c, 7, 57, 100
1, 38107, Note_on_c, 7, 45, 100
1, 38137, Note_on_c, 3, 71, 0
1, 38137, Note_on_c, 3, 69, 127
1, 38137, Note_on_c, 7, 64, 0
1, 38137, Note_on_c, 7, 60, 0
1, 38137, Note_on_c, 7, 52, 0
1, 38137, Note_on_c, 7, 57, 0
1, 38137, Note_on_c, 7, 45, 0
1, 38167, Note_on_c, 3, 69, 0
1, 38167, Note_on_c, 3, 69, 127
1, 38167, Note_on_c, 7, 60, 100
1, 38167, Note_on_c, 7, 57, 100
1, 38167, Note_on_c, 7, 52, 100
1, 38167, Note_on_c, 7, 45, 100
1, 38167, Note_on_c, 7, 33, 100
1, 38197, Note_on_c, 7, 60, 0
1, 38197, Note_on_c, 7, 57, 0
1, 38197, Note_on_c, 7, 52, 0
1, 38197, Note_on_c, 7, 45, 0
1, 38197, Note_on_c, 7, 33, 0
1, 38227, Note_on_c, 7, 64, 100
1, 38227, Note_on_c, 7, 60, 100
1, 38227, Note_on_c, 7, 52, 100
1, 38227, Note_on_c, 7, 57, 100
1, 38227, Note_on_c, 7, 45, 100
1, 38257, Note_on_c, 7, 64, 0
1, 38257, Note_on_c, 7, 60, 0
1, 38257, Note_on_c, 7, 52, 0
1, 38257, Note_on_c, 7, 57, 0
1, 38257, Note_on_c, 7, 45, 0
1, 38287, Note_on_c, 3, 69, 0
1, 38287, Note_on_c, 7, 60, 100
1, 38287, Note_on_c, 7, 57, 100
1, 38287, Note_on_c, 7, 52, 100
1, 38287, Note_on_c, 7, 45, 100
1, 38287, Note_on_c, 7, 33, 100
1, 38347, Note_on_c, 3, 72, 127
1, 38407, Note_on_c, 3, 72, 0
1, 38407, Note_on_c, 3, 74, 127
1, 38407, Note_on_c, 7, 60, 0
1, 38407, Note_on_c, 7, 57, 0
1, 38407, Note_on_c, 7, 52, 0
1, 38407, Note_on_c, 7, 45, 0
1, 38407, Note_on_c, 7, 33, 0
1, 38467, Note_on_c, 3, 74, 0
1, 38467, Note_on_c, 3, 76, 127
1, 38527, Note_on_c, 3, 76, 0
1, 38527, Note_on_c, 3, 77, 127
1, 38647, Note_on_c, 7, 65, 100
1, 38647, Note_on_c, 7, 60, 100
1, 38647, Note_on_c, 7, 56, 100
1, 38647, Note_on_c, 7, 44, 100
1, 38737, Note_on_c, 7, 60, 0
1, 38737, Note_on_c, 7, 60, 100
1, 38737, Note_on_c, 7, 44, 0
1, 38737, Note_on_c, 7, 44, 100
1, 38767, Note_on_c, 7, 60, 0
1, 38767, Note_on_c, 7, 59, 100
1, 38767, Note_on_c, 7, 55, 100
1, 38767, Note_on_c, 7, 56, 0
1, 38767, Note_on_c, 7, 44, 0
1, 38767, Note_on_c, 7, 43, 100
1, 38857, Note_on_c, 7, 59, 0
1, 38857, Note_on_c, 7, 59, 100
1, 38857, Note_on_c, 7, 43, 0
1, 38857, Note_on_c, 7, 43, 100
1, 38887, Note_on_c, 7, 65, 0
1, 38887, Note_on_c, 7, 65, 100
1, 38887, Note_on_c, 7, 59, 0
1, 38887, Note_on_c, 7, 60, 100
1, 38887, Note_on_c, 7, 56, 100
1, 38887, Note_on_c, 7, 55, 0
1, 38887, Note_on_c, 7, 43, 0
1, 38887, Note_on_c, 7, 44, 100
1, 38977, Note_on_c, 7, 60, 0
1, 38977, Note_on_c, 7, 60, 100
1, 38977, Note_on_c, 7, 44, 0
1, 38977, Note_on_c, 7, 44, 100
1, 39007, Note_on_c, 7, 65, 0
1, 39007, Note_on_c, 7, 65, 100
1, 39007, Note_on_c, 7, 60, 0
1, 39007, Note_on_c, 7, 59, 100
1, 39007, Note_on_c, 7, 55, 100
1, 39007, Note_on_c, 7, 56, 0
1, 39007, Note_on_c, 7, 44, 0
1, 39007, Note_on_c, 7, 43, 100
1, 39047, Note_on_c, 3, 77, 0
1, 39047, Note_on_c, 3, 74, 127
1, 39067, Note_on_c, 3, 74, 0
1, 39087, Note_on_c, 3, 71, 127
1, 39107, Note_on_c, 3, 71, 0
1, 39127, Note_on_c, 3, 67, 127
1, 39127, Note_on_c, 7, 65, 0
1, 39127, Note_on_c, 7, 59, 0
1, 39127, Note_on_c, 7, 55, 0
1, 39127, Note_on_c, 7, 43, 0
1, 39147, Note_on_c, 3, 67, 0
1, 39167, Note_on_c, 3, 71, 127
1, 39187, Note_on_c, 3, 71, 0
1, 39207, Note_on_c, 3, 74, 127
1, 39227, Note_on_c, 3, 74, 0
1, 39247, Note_on_c, 3, 77, 127
1, 39247, Note_on_c, 7, 65, 100
1, 39247, Note_on_c, 7, 59, 100
1, 39247, Note_on_c, 7, 62, 100
1, 39247, Note_on_c, 7, 55, 100
1, 39247, Note_on_c, 7, 43, 100
1, 39267, Note_on_c, 3, 77, 0
1, 39287, Note_on_c, 3, 74, 127
1, 39307, Note_on_c, 3, 74, 0
1, 39327, Note_on_c, 3, 71, 127
1, 39347, Note_on_c, 3, 71, 0
1, 39367, Note_on_c, 3, 67, 127
1, 39367, Note_on_c, 7, 65, 0
1, 39367, Note_on_c, 7, 59, 0
1, 39367, Note_on_c, 7, 62, 0
1, 39367, Note_on_c, 7, 55, 0
1, 39367, Note_on_c, 7, 43, 0
1, 39387, Note_on_c, 3, 67, 0
1, 39407, Note_on_c, 3, 71, 127
1, 39427, Note_on_c, 3, 71, 0
1, 39447, Note_on_c, 3, 74, 127
1, 39467, Note_on_c, 3, 74, 0
1, 39487, Note_on_c, 3, 77, 127
1, 39487, Note_on_c, 7, 65, 100
1, 39487, Note_on_c, 7, 59, 100
1, 39487, Note_on_c, 7, 62, 100
1, 39487, Note_on_c, 7, 55, 100
1, 39487, Note_on_c, 7, 43, 100
1, 39517, Note_on_c, 3, 77, 0
1, 39517, Note_on_c, 3, 74, 127
1, 39547, Note_on_c, 3, 74, 0
1, 39547, Note_on_c, 3, 71, 127
1, 39562, Note_on_c, 3, 71, 0
1, 39577, Note_on_c, 3, 67, 127
1, 39592, Note_on_c, 3, 67, 0
1, 39607, Note_on_c, 3, 65, 127
1, 39622, Note_on_c, 3, 65, 0
1, 39637, Note_on_c, 3, 62, 127
1, 39652, Note_on_c, 3, 62, 0
1, 39667, Note_on_c, 3, 59, 127
1, 39682, Note_on_c, 3, 59, 0
1, 39697, Note_on_c, 3, 55, 127
1, 39712, Note_on_c, 3, 55, 0
1, 39727, Note_on_c, 3, 53, 127
1, 39757, Note_on_c, 3, 53, 0
1, 39757, Note_on_c, 3, 55, 127
1, 39787, Note_on_c, 3, 55, 0
1, 39787, Note_on_c, 3, 59, 127
1, 39802, Note_on_c, 3, 59, 0
1, 39817, Note_on_c, 3, 62, 127
1, 39832, Note_on_c, 3, 62, 0
1, 39847, Note_on_c, 3, 65, 127
1, 39862, Note_on_c, 3, 65, 0
1, 39877, Note_on_c, 3, 67, 127
1, 39892, Note_on_c, 3, 67, 0
1, 39907, Note_on_c, 3, 71, 127
1, 39922, Note_on_c, 3, 71, 0
1, 39937, Note_on_c, 3, 74, 127
1, 39952, Note_on_c, 3, 74, 0
1, 39967, Note_on_c, 3, 77, 127
1, 40027, Note_on_c, 3, 77, 0
1, 40027, Note_on_c, 3, 76, 127
1, 40087, Note_on_c, 3, 76, 0
1, 40087, Note_on_c, 3, 74, 127
1, 40087, Note_on_c, 7, 65, 0
1, 40087, Note_on_c, 7, 59, 0
1, 40087, Note_on_c, 7, 62, 0
1, 40087, Note_on_c, 7, 55, 0
1, 40087, Note_on_c, 7, 43, 0
1, 40147, Note_on_c, 3, 74, 0
1, 40147, Note_on_c, 3, 72, 127
1, 40207, Note_on_c, 3, 72, 0
1, 40207, Note_on_c, 3, 71, 127
1, 40267, Note_on_c, 3, 71, 0
1, 40267, Note_on_c, 3, 81, 127
1, 40327, Note_on_c, 3, 81, 0
1, 40327, Note_on_c, 3, 79, 127
1, 40387, Note_on_c, 3, 79, 0
1, 40387, Note_on_c, 3, 77, 127
1, 40447, Note_on_c, 3, 77, 0
1, 40447, Note_on_c, 3, 75, 127
1, 40567, Note_on_c, 3, 75, 0
1, 40567, Note_on_c, 3, 76, 127
1, 40567, Note_on_c, 7, 64, 100
1, 40567, Note_on_c, 7, 55, 100
1, 40567, Note_on_c, 7, 48, 100
1, 40627, Note_on_c, 7, 64, 0
1, 40627, Note_on_c, 7, 55, 0
1, 40627, Note_on_c, 7, 48, 0
1, 40687, Note_on_c, 3, 76, 0
1, 40687, Note_on_c, 7, 64, 100
1, 40687, Note_on_c, 7, 60, 100
1, 40687, Note_on_c, 7, 48, 100
1, 40747, Note_on_c, 3, 67, 127
1, 40747, Note_on_c, 7, 64, 0
1, 40747, Note_on_c, 7, 60, 0
1, 40747, Note_on_c, 7, 48, 0
1, 40807, Note_on_c, 3, 67, 0
1, 40807, Note_on_c, 3, 72, 127
1, 40867, Note_on_c, 3, 72, 0
1, 40867, Note_on_c, 3, 76, 127
1, 40927, Note_on_c, 3, 76, 0
1, 40927, Note_on_c, 3, 74, 127
1, 40927, Note_on_c, 7, 65, 100
1, 40987, Note_on_c, 7, 65, 0
1, 40987, Note_on_c, 7, 67, 100
1, 41047, Note_on_c, 7, 67, 0
1, 41047, Note_on_c, 7, 65, 100
1, 41107, Note_on_c, 3, 74, 0
1, 41107, Note_on_c, 3, 76, 127
1, 41107, Note_on_c, 7, 65, 0
1, 41107, Note_on_c, 7, 67, 100
1, 41167, Note_on_c, 3, 76, 0
1, 41167, Note_on_c, 3, 77, 127
1, 41167, Note_on_c, 7, 67, 0
1, 41167, Note_on_c, 7, 65, 100
1, 41227, Note_on_c, 3, 77, 0
1, 41227, Note_on_c, 3, 74, 127
1, 41227, Note_on_c, 7, 65, 0
1, 41227, Note_on_c, 7, 67, 100
1, 41287, Note_on_c, 3, 74, 0
1, 41287, Note_on_c, 3, 69, 127
1, 41287, Note_on_c, 7, 67, 0
1, 41287, Note_on_c, 7, 65, 100
1, 41347, Note_on_c, 3, 69, 0
1, 41347, Note_on_c, 3, 71, 127
1, 41347, Note_on_c, 7, 65, 0
1, 41347, Note_on_c, 7, 67, 100
1, 41407, Note_on_c, 3, 71, 0
1, 41407, Note_on_c, 3, 72, 127
1, 41407, Note_on_c, 7, 67, 0
1, 41407, Note_on_c, 7, 64, 100
1, 41437, Note_on_c, 3, 72, 0
1, 41467, Note_on_c, 3, 76, 127
1, 41467, Note_on_c, 7, 64, 0
1, 41467, Note_on_c, 7, 67, 100
1, 41497, Note_on_c, 3, 76, 0
1, 41527, Note_on_c, 3, 79, 127
1, 41527, Note_on_c, 7, 67, 0
1, 41527, Note_on_c, 7, 64, 100
1, 41587, Note_on_c, 7, 64, 0
1, 41587, Note_on_c, 7, 67, 100
1, 41647, Note_on_c, 7, 67, 0
1, 41647, Note_on_c, 7, 64, 100
1, 41707, Note_on_c, 3, 79, 0
1, 41707, Note_on_c, 3, 78, 127
1, 41707, Note_on_c, 7, 64, 0
1, 41707, Note_on_c, 7, 67, 100
1, 41767, Note_on_c, 3, 78, 0
1, 41767, Note_on_c, 3, 77, 127
1, 41767, Note_on_c, 7, 67, 0
1, 41767, Note_on_c, 7, 64, 100
1, 41827, Note_on_c, 3, 77, 0
1, 41827, Note_on_c, 3, 76, 127
1, 41827, Note_on_c, 7, 64, 0
1, 41827, Note_on_c, 7, 67, 100
1, 41887, Note_on_c, 3, 76, 0
1, 41887, Note_on_c, 3, 74, 127
1, 41887, Note_on_c, 7, 67, 0
1, 41887, Note_on_c, 7, 65, 100
1, 41947, Note_on_c, 7, 65, 0
1, 41947, Note_on_c, 7, 67, 100
1, 42007, Note_on_c, 7, 67, 0
1, 42007, Note_on_c, 7, 65, 100
1, 42067, Note_on_c, 3, 74, 0
1, 42067, Note_on_c, 3, 76, 127
1, 42067, Note_on_c, 7, 65, 0
1, 42067, Note_on_c, 7, 67, 100
1, 42127, Note_on_c, 3, 76, 0
1, 42127, Note_on_c, 3, 77, 127
1, 42127, Note_on_c, 7, 67, 0
1, 42127, Note_on_c, 7, 65, 100
1, 42187, Note_on_c, 3, 77, 0
1, 42187, Note_on_c, 3, 74, 127
1, 42187, Note_on_c, 7, 65, 0
1, 42187, Note_on_c, 7, 67, 100
1, 42247, Note_on_c, 3, 74, 0
1, 42247, Note_on_c, 3, 69, 127
1, 42247, Note_on_c, 7, 67, 0
1, 42247, Note_on_c, 7, 65, 100
1, 42307, Note_on_c, 3, 69, 0
1, 42307, Note_on_c, 3, 71, 127
1, 42307, Note_on_c, 7, 65, 0
1, 42307, Note_on_c, 7, 67, 100
1, 42367, Note_on_c, 3, 71, 0
1, 42367, Note_on_c, 3, 72, 127
1, 42367, Note_on_c, 7, 67, 0
1, 42367, Note_on_c, 7, 64, 100
1, 42367, Note_on_c, 7, 67, 100
1, 42427, Note_on_c, 3, 72, 0
1, 42427, Note_on_c, 3, 76, 127
1, 42487, Note_on_c, 3, 76, 0
1, 42487, Note_on_c, 3, 79, 127
1, 42667, Note_on_c, 3, 79, 0
1, 42667, Note_on_c, 3, 76, 127
1, 42727, Note_on_c, 3, 76, 0
1, 42727, Note_on_c, 3, 74, 127
1, 42787, Note_on_c, 3, 74, 0
1, 42787, Note_on_c, 3, 72, 127
1, 42847, Note_on_c, 3, 72, 0
1, 42847, Note_on_c, 3, 71, 127
1, 42847, Note_on_c, 7, 62, 100
1, 42847, Note_on_c, 7, 64, 0
1, 42907, Note_on_c, 3, 71, 0
1, 42907, Note_on_c, 3, 74, 127
1, 42967, Note_on_c, 3, 74, 0
1, 42967, Note_on_c, 3, 79, 127
1, 43147, Note_on_c, 3, 79, 0
1, 43147, Note_on_c, 3, 74, 127
1, 43207, Note_on_c, 3, 74, 0
1, 43207, Note_on_c, 3, 72, 127
1, 43267, Note_on_c, 3, 72, 0
1, 43267, Note_on_c, 3, 71, 127
1, 43327, Note_on_c, 3, 71, 0
1, 43327, Note_on_c, 3, 70, 127
1, 43327, Note_on_c, 7, 61, 100
1, 43327, Note_on_c, 7, 67, 0
1, 43327, Note_on_c, 7, 67, 100
1, 43327, Note_on_c, 7, 62, 0
1, 43447, Note_on_c, 3, 70, 0
1, 43447, Note_on_c, 3, 49, 127
1, 43447, Note_on_c, 7, 70, 100
1, 43447, Note_on_c, 7, 67, 0
1, 43447, Note_on_c, 7, 67, 100
1, 43447, Note_on_c, 7, 61, 0
1, 43447, Note_on_c, 7, 64, 100
1, 43687, Note_on_c, 3, 49, 0
1, 43687, Note_on_c, 3, 47, 127
1, 43687, Note_on_c, 7, 70, 0
1, 43687, Note_on_c, 7, 71, 100
1, 43687, Note_on_c, 7, 67, 0
1, 43687, Note_on_c, 7, 67, 100
1, 43687, Note_on_c, 7, 64, 0
1, 43687, Note_on_c, 7, 64, 100
1, 43807, Note_on_c, 3, 47, 0
1, 43807, Note_on_c, 3, 46, 127
1, 43807, Note_on_c, 7, 71, 0
1, 43807, Note_on_c, 7, 73, 100
1, 43927, Note_on_c, 3, 46, 0
1, 43927, Note_on_c, 3, 79, 127
1, 43927, Note_on_c, 7, 73, 0
1, 43927, Note_on_c, 7, 61, 100
1, 43927, Note_on_c, 7, 46, 100
1, 43927, Note_on_c, 7, 34, 100
1, 44167, Note_on_c, 3, 79, 0
1, 44167, Note_on_c, 3, 78, 127
1, 44167, Note_on_c, 7, 67, 0
1, 44167, Note_on_c, 7, 67, 100
1, 44167, Note_on_c, 7, 64, 0
1, 44167, Note_on_c, 7, 64, 100
1, 44167, Note_on_c, 7, 61, 0
1, 44167, Note_on_c, 7, 59, 100
1, 44167, Note_on_c, 7, 46, 0
1, 44167, Note_on_c, 7, 47, 100
1, 44167, Note_on_c, 7, 34, 0
1, 44167, Note_on_c, 7, 35, 100
1, 44227, Note_on_c, 3, 78, 0
1, 44227, Note_on_c, 3, 76, 127
1, 44287, Note_on_c, 3, 76, 0
1, 44287, Note_on_c, 3, 76, 127
1, 44287, Note_on_c, 7, 64, 0
1, 44287, Note_on_c, 7, 64, 100
1, 44287, Note_on_c, 7, 59, 0
1, 44287, Note_on_c, 7, 58, 100
1, 44287, Note_on_c, 7, 47, 0
1, 44287, Note_on_c, 7, 48, 100
1, 44287, Note_on_c, 7, 35, 0
1, 44287, Note_on_c, 7, 36, 100
1, 44407, Note_on_c, 7, 67, 0
1, 44407, Note_on_c, 7, 67, 100
1, 44407, Note_on_c, 7, 64, 0
1, 44407, Note_on_c, 7, 64, 100
1, 44407, Note_on_c, 7, 58, 0
1, 44407, Note_on_c, 7, 58, 100
1, 44407, Note_on_c, 7, 48, 0
1, 44407, Note_on_c, 7, 36, 0
1, 44467, Note_on_c, 3, 76, 0
1, 44467, Note_on_c, 3, 74, 127
1, 44487, Note_on_c, 3, 74, 0
1, 44487, Note_on_c, 3, 72, 127
1, 44507, Note_on_c, 3, 72, 0
1, 44507, Note_on_c, 3, 71, 127
1, 44527, Note_on_c, 3, 71, 0
1, 44527, Note_on_c, 3, 70, 127
1, 44527, Note_on_c, 7, 67, 0
1, 44527, Note_on_c, 7, 64, 0
1, 44527, Note_on_c, 7, 48, 100
1, 44527, Note_on_c, 7, 36, 100
1, 44587, Note_on_c, 3, 70, 0
1, 44587, Note_on_c, 7, 67, 100
1, 44587, Note_on_c, 7, 52, 100
1, 44647, Note_on_c, 3, 70, 127
1, 44647, Note_on_c, 7, 67, 0
1, 44647, Note_on_c, 7, 66, 100
1, 44647, Note_on_c, 7, 52, 0
1, 44647, Note_on_c, 7, 51, 100
1, 44647, Note_on_c, 7, 48, 0
1, 44647, Note_on_c, 7, 36, 0
1, 44707, Note_on_c, 3, 70, 0
1, 44707, Note_on_c, 7, 66, 0
1, 44707, Note_on_c, 7, 64, 100
1, 44707, Note_on_c, 7, 51, 0
1, 44707, Note_on_c, 7, 52, 100
1, 44767, Note_on_c, 3, 71, 127
1, 44767, Note_on_c, 7, 64, 0
1, 44767, Note_on_c, 7, 63, 100
1, 44767, Note_on_c, 7, 58, 0
1, 44767, Note_on_c, 7, 59, 100
1, 44767, Note_on_c, 7, 52, 0
1, 44767, Note_on_c, 7, 54, 100
1, 44767, Note_on_c, 7, 47, 100
1, 44767, Note_on_c, 7, 35, 100
1, 44827, Note_on_c, 7, 63, 0
1, 44827, Note_on_c, 7, 75, 100
1, 44827, Note_on_c, 7, 59, 0
1, 44827, Note_on_c, 7, 71, 100
1, 44857, Note_on_c, 7, 75, 0
1, 44857, Note_on_c, 7, 76, 100
1, 44857, Note_on_c, 7, 71, 0
1, 44857, Note_on_c, 7, 73, 100
1, 44887, Note_on_c, 3, 71, 0
1, 44887, Note_on_c, 7, 76, 0
1, 44887, Note_on_c, 7, 78, 100
1, 44887, Note_on_c, 7, 73, 0
1, 44887, Note_on_c, 7, 75, 100
1, 44887, Note_on_c, 7, 54, 0
1, 44887, Note_on_c, 7, 47, 0
1, 44887, Note_on_c, 7, 35, 0
1, 44947, Note_on_c, 7, 78, 0
1, 44947, Note_on_c, 7, 79, 100
1, 44947, Note_on_c, 7, 75, 0
1, 44947, Note_on_c, 7, 76, 100
1, 44977, Note_on_c, 7, 79, 0
1, 44977, Note_on_c, 7, 76, 0
1, 45007, Note_on_c, 7, 81, 100
1, 45007, Note_on_c, 7, 78, 100
1, 45067, Note_on_c, 3, 47, 127
1, 45097, Note_on_c, 3, 47, 0
1, 45127, Note_on_c, 3, 49, 127
1, 45157, Note_on_c, 3, 49, 0
1, 45187, Note_on_c, 3, 51, 127
1, 45217, Note_on_c, 3, 51, 0
1, 45247, Note_on_c, 3, 52, 127
1, 45247, Note_on_c, 7, 81, 0
1, 45247, Note_on_c, 7, 79, 100
1, 45277, Note_on_c, 3, 52, 0
1, 45277, Note_on_c, 3, 51, 127
1, 45307, Note_on_c, 3, 51, 0
1, 45307, Note_on_c, 3, 52, 127
1, 45307, Note_on_c, 7, 78, 0
1, 45307, Note_on_c, 7, 71, 100
1, 45337, Note_on_c, 3, 52, 0
1, 45337, Note_on_c, 3, 51, 127
1, 45367, Note_on_c, 3, 51, 0
1, 45367, Note_on_c, 3, 52, 127
1, 45367, Note_on_c, 7, 79, 0
1, 45367, Note_on_c, 7, 79, 100
1, 45367, Note_on_c, 7, 71, 0
1, 45367, Note_on_c, 7, 73, 100
1, 45397, Note_on_c, 3, 52, 0
1, 45397, Note_on_c, 3, 51, 127
1, 45427, Note_on_c, 3, 51, 0
1, 45427, Note_on_c, 3, 52, 127
1, 45427, Note_on_c, 7, 73, 0
1, 45427, Note_on_c, 7, 75, 100
1, 45457, Note_on_c, 3, 52, 0
1, 45457, Note_on_c, 3, 54, 127
1, 45457, Note_on_c, 7, 79, 0
1, 45457, Note_on_c, 7, 79, 100
1, 45487, Note_on_c, 3, 54, 0
1, 45487, Note_on_c, 3, 55, 127
1, 45487, Note_on_c, 7, 79, 0
1, 45487, Note_on_c, 7, 79, 100
1, 45487, Note_on_c, 7, 75, 0
1, 45487, Note_on_c, 7, 76, 100
1, 45502, Note_on_c, 7, 79, 0
1, 45502, Note_on_c, 7, 81, 100
1, 45502, Note_on_c, 7, 76, 0
1, 45502, Note_on_c, 7, 78, 100
1, 45517, Note_on_c, 3, 55, 0
1, 45517, Note_on_c, 3, 54, 127
1, 45517, Note_on_c, 7, 81, 0
1, 45517, Note_on_c, 7, 79, 100
1, 45517, Note_on_c, 7, 78, 0
1, 45517, Note_on_c, 7, 76, 100
1, 45532, Note_on_c, 7, 79, 0
1, 45532, Note_on_c, 7, 81, 100
1, 45532, Note_on_c, 7, 76, 0
1, 45532, Note_on_c, 7, 78, 100
1, 45547, Note_on_c, 3, 54, 0
1, 45547, Note_on_c, 3, 52, 127
1, 45547, Note_on_c, 7, 81, 0
1, 45547, Note_on_c, 7, 79, 100
1, 45547, Note_on_c, 7, 78, 0
1, 45547, Note_on_c, 7, 76, 100
1, 45562, Note_on_c, 7, 79, 0
1, 45562, Note_on_c, 7, 81, 100
1, 45562, Note_on_c, 7, 76, 0
1, 45562, Note_on_c, 7, 78, 100
1, 45577, Note_on_c, 3, 52, 0
1, 45577, Note_on_c, 3, 54, 127
1, 45577, Note_on_c, 7, 81, 0
1, 45577, Note_on_c, 7, 79, 100
1, 45577, Note_on_c, 7, 78, 0
1, 45577, Note_on_c, 7, 76, 100
1, 45592, Note_on_c, 7, 79, 0
1, 45592, Note_on_c, 7, 81, 100
1, 45592, Note_on_c, 7, 76, 0
1, 45592, Note_on_c, 7, 78, 100
1, 45607, Note_on_c, 3, 54, 0
1, 45607, Note_on_c, 3, 55, 127
1, 45607, Note_on_c, 7, 81, 0
1, 45607, Note_on_c, 7, 79, 100
1, 45607, Note_on_c, 7, 78, 0
1, 45607, Note_on_c, 7, 76, 100
1, 45622, Note_on_c, 7, 79, 0
1, 45622, Note_on_c, 7, 81, 100
1, 45622, Note_on_c, 7, 76, 0
1, 45622, Note_on_c, 7, 78, 100
1, 45637, Note_on_c, 3, 55, 0
1, 45637, Note_on_c, 3, 54, 127
1, 45637, Note_on_c, 7, 81, 0
1, 45637, Note_on_c, 7, 79, 100
1, 45637, Note_on_c, 7, 78, 0
1, 45637, Note_on_c, 7, 76, 100
1, 45652, Note_on_c, 7, 79, 0
1, 45652, Note_on_c, 7, 81, 100
1, 45652, Note_on_c, 7, 76, 0
1, 45652, Note_on_c, 7, 78, 100
1, 45667, Note_on_c, 3, 54, 0
1, 45667, Note_on_c, 3, 55, 127
1, 45667, Note_on_c, 7, 81, 0
1, 45667, Note_on_c, 7, 75, 100
1, 45697, Note_on_c, 3, 55, 0
1, 45697, Note_on_c, 3, 57, 127
1, 45697, Note_on_c, 7, 78, 0
1, 45697, Note_on_c, 7, 79, 100
1, 45697, Note_on_c, 7, 75, 0
1, 45697, Note_on_c, 7, 76, 100
1, 45727, Note_on_c, 3, 57, 0
1, 45727, Note_on_c, 3, 59, 127
1, 45727, Note_on_c, 7, 79, 0
1, 45727, Note_on_c, 7, 78, 100
1, 45727, Note_on_c, 7, 76, 0
1, 45727, Note_on_c, 7, 75, 100
1, 45787, Note_on_c, 4, 75, 80
1, 45787, Note_on_c, 4, 71, 80
1, 45787, Note_on_c, 7, 78, 0
1, 45787, Note_on_c, 7, 63, 100
1, 45787, Note_on_c, 7, 75, 0
1, 45787, Note_on_c, 7, 59, 100
1, 45817, Note_on_c, 4, 75, 0
1, 45817, Note_on_c, 4, 76, 80
1, 45817, Note_on_c, 4, 71, 0
1, 45817, Note_on_c, 4, 73, 80
1, 45817, Note_on_c, 7, 63, 0
1, 45817, Note_on_c, 7, 64, 100
1, 45817, Note_on_c, 7, 59, 0
1, 45817, Note_on_c, 7, 61, 100
1, 45847, Note_on_c, 3, 59, 0
1, 45847, Note_on_c, 3, 47, 127
1, 45847, Note_on_c, 4, 76, 0
1, 45847, Note_on_c, 4, 78, 80
1, 45847, Note_on_c, 4, 73, 0
1, 45847, Note_on_c, 4, 75, 80
1, 45847, Note_on_c, 7, 64, 0
1, 45847, Note_on_c, 7, 66, 100
1, 45847, Note_on_c, 7, 61, 0
1, 45847, Note_on_c, 7, 63, 100
1, 45907, Note_on_c, 4, 78, 0
1, 45907, Note_on_c, 4, 79, 80
1, 45907, Note_on_c, 4, 75, 0
1, 45907, Note_on_c, 4, 76, 80
1, 45907, Note_on_c, 7, 66, 0
1, 45907, Note_on_c, 7, 67, 100
1, 45907, Note_on_c, 7, 63, 0
1, 45907, Note_on_c, 7, 64, 100
1, 45937, Note_on_c, 4, 79, 0
1, 45937, Note_on_c, 4, 76, 0
1, 45937, Note_on_c, 7, 67, 0
1, 45937, Note_on_c, 7, 64, 0
1, 45967, Note_on_c, 3, 47, 0
1, 45967, Note_on_c, 4, 81, 80
1, 45967, Note_on_c, 4, 78, 80
1, 45967, Note_on_c, 7, 69, 100
1, 45967, Note_on_c, 7, 66, 100
1, 46027, Note_on_c, 3, 47, 127
1, 46057, Note_on_c, 3, 47, 0
1, 46087, Note_on_c, 3, 49, 127
1, 46117, Note_on_c, 3, 49, 0
1, 46147, Note_on_c, 3, 51, 127
1, 46177, Note_on_c, 3, 51, 0
1, 46207, Note_on_c, 3, 52, 127
1, 46207, Note_on_c, 4, 81, 0
1, 46207, Note_on_c, 4, 79, 80
1, 46207, Note_on_c, 7, 69, 0
1, 46207, Note_on_c, 7, 67, 100
1, 46237, Note_on_c, 3, 52, 0
1, 46237, Note_on_c, 3, 51, 127
1, 46267, Note_on_c, 3, 51, 0
1, 46267, Note_on_c, 3, 52, 127
1, 46267, Note_on_c, 7, 66, 0
1, 46267, Note_on_c, 7, 59, 100
1, 46297, Note_on_c, 3, 52, 0
1, 46297, Note_on_c, 3, 51, 127
1, 46327, Note_on_c, 3, 51, 0
1, 46327, Note_on_c, 3, 52, 127
1, 46327, Note_on_c, 7, 67, 0
1, 46327, Note_on_c, 7, 67, 100
1, 46327, Note_on_c, 7, 59, 0
1, 46327, Note_on_c, 7, 61, 100
1, 46357, Note_on_c, 3, 52, 0
1, 46357, Note_on_c, 3, 51, 127
1, 46387, Note_on_c, 3, 51, 0
1, 46387, Note_on_c, 3, 52, 127
1, 46387, Note_on_c, 7, 61, 0
1, 46387, Note_on_c, 7, 63, 100
1, 46417, Note_on_c, 3, 52, 0
1, 46417, Note_on_c, 3, 54, 127
1, 46417, Note_on_c, 7, 67, 0
1, 46417, Note_on_c, 7, 67, 100
1, 46447, Note_on_c, 3, 54, 0
1, 46447, Note_on_c, 3, 55, 127
1, 46447, Note_on_c, 4, 78, 0
1, 46447, Note_on_c, 4, 76, 80
1, 46447, Note_on_c, 7, 67, 0
1, 46447, Note_on_c, 7, 67, 100
1, 46447, Note_on_c, 7, 63, 0
1, 46447, Note_on_c, 7, 64, 100
1, 46462, Note_on_c, 7, 67, 0
1, 46462, Note_on_c, 7, 69, 100
1, 46462, Note_on_c, 7, 64, 0
1, 46462, Note_on_c, 7, 66, 100
1, 46477, Note_on_c, 3, 55, 0
1, 46477, Note_on_c, 3, 54, 127
1, 46477, Note_on_c, 7, 69, 0
1, 46477, Note_on_c, 7, 67, 100
1, 46477, Note_on_c, 7, 66, 0
1, 46477, Note_on_c, 7, 64, 100
1, 46492, Note_on_c, 7, 67, 0
1, 46492, Note_on_c, 7, 69, 100
1, 46492, Note_on_c, 7, 64, 0
1, 46492, Note_on_c, 7, 66, 100
1, 46507, Note_on_c, 3, 54, 0
1, 46507, Note_on_c, 3, 52, 127
1, 46507, Note_on_c, 7, 69, 0
1, 46507, Note_on_c, 7, 67, 100
1, 46507, Note_on_c, 7, 66, 0
1, 46507, Note_on_c, 7, 64, 100
1, 46522, Note_on_c, 7, 67, 0
1, 46522, Note_on_c, 7, 69, 100
1, 46522, Note_on_c, 7, 64, 0
1, 46522, Note_on_c, 7, 66, 100
1, 46537, Note_on_c, 3, 52, 0
1, 46537, Note_on_c, 3, 54, 127
1, 46537, Note_on_c, 7, 69, 0
1, 46537, Note_on_c, 7, 67, 100
1, 46537, Note_on_c, 7, 66, 0
1, 46537, Note_on_c, 7, 64, 100
1, 46552, Note_on_c, 7, 67, 0
1, 46552, Note_on_c, 7, 69, 100
1, 46552, Note_on_c, 7, 64, 0
1, 46552, Note_on_c, 7, 66, 100
1, 46567, Note_on_c, 3, 54, 0
1, 46567, Note_on_c, 3, 55, 127
1, 46567, Note_on_c, 7, 69, 0
1, 46567, Note_on_c, 7, 67, 100
1, 46567, Note_on_c, 7, 66, 0
1, 46567, Note_on_c, 7, 64, 100
1, 46582, Note_on_c, 7, 67, 0
1, 46582, Note_on_c, 7, 69, 100
1, 46582, Note_on_c, 7, 64, 0
1, 46582, Note_on_c, 7, 66, 100
1, 46597, Note_on_c, 3, 55, 0
1, 46597, Note_on_c, 3, 54, 127
1, 46597, Note_on_c, 7, 69, 0
1, 46597, Note_on_c, 7, 67, 100
1, 46597, Note_on_c, 7, 66, 0
1, 46597, Note_on_c, 7, 64, 100
1, 46612, Note_on_c, 7, 67, 0
1, 46612, Note_on_c, 7, 69, 100
1, 46612, Note_on_c, 7, 64, 0
1, 46612, Note_on_c, 7, 66, 100
1, 46627, Note_on_c, 3, 54, 0
1, 46627, Note_on_c, 3, 55, 127
1, 46627, Note_on_c, 7, 69, 0
1, 46627, Note_on_c, 7, 63, 100
1, 46657, Note_on_c, 3, 55, 0
1, 46657, Note_on_c, 3, 57, 127
1, 46657, Note_on_c, 7, 66, 0
1, 46657, Note_on_c, 7, 67, 100
1, 46657, Note_on_c, 7, 63, 0
1, 46657, Note_on_c, 7, 64, 100
1, 46687, Note_on_c, 3, 57, 0
1, 46687, Note_on_c, 3, 59, 127
1, 46687, Note_on_c, 4, 79, 0
1, 46687, Note_on_c, 4, 78, 80
1, 46687, Note_on_c, 4, 76, 0
1, 46687, Note_on_c, 4, 75, 80
1, 46687, Note_on_c, 7, 67, 0
1, 46687, Note_on_c, 7, 66, 100
1, 46687, Note_on_c, 7, 64, 0
1, 46687, Note_on_c, 7, 63, 100
1, 46747, Note_on_c, 5, 47, 80
1, 46747, Note_on_c, 7, 59, 100
1, 46747, Note_on_c, 7, 47, 100
1, 46747, Note_on_c, 7, 35, 100
1, 46777, Note_on_c, 5, 47, 0
1, 46777, Note_on_c, 7, 59, 0
1, 46777, Note_on_c, 7, 47, 0
1, 46777, Note_on_c, 7, 35, 0
1, 46807, Note_on_c, 3, 59, 0
1, 46807, Note_on_c, 4, 78, 0
1, 46807, Note_on_c, 4, 75, 0
1, 46807, Note_on_c, 5, 49, 80
1, 46807, Note_on_c, 7, 66, 0
1, 46807, Note_on_c, 7, 63, 0
1, 46807, Note_on_c, 7, 61, 100
1, 46807, Note_on_c, 7, 49, 100
1, 46807, Note_on_c, 7, 37, 100
1, 46837, Note_on_c, 5, 49, 0
1, 46837, Note_on_c, 7, 61, 0
1, 46837, Note_on_c, 7, 49, 0
1, 46837, Note_on_c, 7, 37, 0
1, 46867, Note_on_c, 4, 83, 80
1, 46867, Note_on_c, 4, 78, 80
1, 46867, Note_on_c, 5, 51, 80
1, 46867, Note_on_c, 7, 71, 100
1, 46867, Note_on_c, 7, 66, 100
1, 46867, Note_on_c, 7, 63, 100
1, 46867, Note_on_c, 7, 51, 100
1, 46867, Note_on_c, 7, 39, 100
1, 46897, Note_on_c, 4, 83, 0
1, 46897, Note_on_c, 4, 78, 0
1, 46897, Note_on_c, 5, 51, 0
1, 46897, Note_on_c, 7, 71, 0
1, 46897, Note_on_c, 7, 66, 0
1, 46897, Note_on_c, 7, 63, 0
1, 46897, Note_on_c, 7, 51, 0
1, 46897, Note_on_c, 7, 39, 0
1, 46927, Note_on_c, 4, 79, 80
1, 46927, Note_on_c, 4, 76, 80
1, 46927, Note_on_c, 5, 52, 80
1, 46927, Note_on_c, 6, 59, 80
1, 46927, Note_on_c, 6, 52, 80
1, 46927, Note_on_c, 7, 67, 100
1, 46927, Note_on_c, 7, 64, 100
1, 46927, Note_on_c, 7, 52, 100
1, 46927, Note_on_c, 7, 40, 100
1, 46957, Note_on_c, 4, 79, 0
1, 46957, Note_on_c, 4, 76, 0
1, 46957, Note_on_c, 5, 51, 80
1, 46957, Note_on_c, 5, 52, 0
1, 46957, Note_on_c, 7, 67, 0
1, 46957, Note_on_c, 7, 64, 0
1, 46957, Note_on_c, 7, 63, 100
1, 46957, Note_on_c, 7, 52, 0
1, 46957, Note_on_c, 7, 51, 100
1, 46957, Note_on_c, 7, 40, 0
1, 46957, Note_on_c, 7, 39, 100
1, 46987, Note_on_c, 5, 52, 80
1, 46987, Note_on_c, 5, 51, 0
1, 46987, Note_on_c, 6, 59, 0
1, 46987, Note_on_c, 6, 52, 0
1, 46987, Note_on_c, 7, 63, 0
1, 46987, Note_on_c, 7, 64, 100
1, 46987, Note_on_c, 7, 51, 0
1, 46987, Note_on_c, 7, 52, 100
1, 46987, Note_on_c, 7, 39, 0
1, 46987, Note_on_c, 7, 40, 100
1, 47017, Note_on_c, 5, 54, 80
1, 47017, Note_on_c, 5, 52, 0
1, 47017, Note_on_c, 7, 64, 0
1, 47017, Note_on_c, 7, 66, 100
1, 47017, Note_on_c, 7, 52, 0
1, 47017, Note_on_c, 7, 54, 100
1, 47017, Note_on_c, 7, 40, 0
1, 47017, Note_on_c, 7, 42, 100
1, 47047, Note_on_c, 4, 88, 80
1, 47047, Note_on_c, 4, 79, 80
1, 47047, Note_on_c, 5, 55, 80
1, 47047, Note_on_c, 5, 54, 0
1, 47047, Note_on_c, 6, 59, 80
1, 47047, Note_on_c, 6, 52, 80
1, 47047, Note_on_c, 7, 59, 100
1, 47047, Note_on_c, 7, 68, 100
1, 47047, Note_on_c, 7, 76, 100
1, 47047, Note_on_c, 7, 67, 100
1, 47047, Note_on_c, 7, 66, 0
1, 47047, Note_on_c, 7, 54, 0
1, 47047, Note_on_c, 7, 55, 100
1, 47047, Note_on_c, 7, 42, 0
1, 47047, Note_on_c, 7, 43, 100
1, 47077, Note_on_c, 4, 88, 0
1, 47077, Note_on_c, 4, 79, 0
1, 47077, Note_on_c, 5, 54, 80
1, 47077, Note_on_c, 5, 55, 0
1, 47077, Note_on_c, 7, 68, 0
1, 47077, Note_on_c, 7, 76, 0
1, 47077, Note_on_c, 7, 59, 0
1, 47077, Note_on_c, 7, 67, 0
1, 47077, Note_on_c, 7, 66, 100
1, 47077, Note_on_c, 7, 55, 0
1, 47077, Note_on_c, 7, 54, 100
1, 47077, Note_on_c, 7, 43, 0
1, 47077, Note_on_c, 7, 42, 100
1, 47107, Note_on_c, 5, 55, 80
1, 47107, Note_on_c, 5, 54, 0
1, 47107, Note_on_c, 6, 59, 0
1, 47107, Note_on_c, 6, 52, 0
1, 47107, Note_on_c, 7, 66, 0
1, 47107, Note_on_c, 7, 67, 100
1, 47107, Note_on_c, 7, 54, 0
1, 47107, Note_on_c, 7, 55, 100
1, 47107, Note_on_c, 7, 42, 0
1, 47107, Note_on_c, 7, 43, 100
1, 47137, Note_on_c, 5, 57, 80
1, 47137, Note_on_c, 5, 55, 0
1, 47137, Note_on_c, 7, 67, 0
1, 47137, Note_on_c, 7, 69, 100
1, 47137, Note_on_c, 7, 55, 0
1, 47137, Note_on_c, 7, 57, 100
1, 47137, Note_on_c, 7, 43, 0
1, 47137, Note_on_c, 7, 45, 100
1, 47167, Note_on_c, 4, 87, 80
1, 47167, Note_on_c, 4, 78, 80
1, 47167, Note_on_c, 5, 59, 80
1, 47167, Note_on_c, 5, 57, 0
1, 47167, Note_on_c, 6, 59, 80
1, 47167, Note_on_c, 7, 59, 100
1, 47167, Note_on_c, 7, 66, 100
1, 47167, Note_on_c, 7, 75, 100
1, 47167, Note_on_c, 7, 69, 0
1, 47167, Note_on_c, 7, 71, 100
1, 47167, Note_on_c, 7, 57, 0
1, 47167, Note_on_c, 7, 45, 0
1, 47167, Note_on_c, 7, 47, 100
1, 47227, Note_on_c, 5, 47, 80
1, 47227, Note_on_c, 5, 59, 0
1, 47227, Note_on_c, 7, 71, 0
1, 47227, Note_on_c, 7, 35, 100
1, 47257, Note_on_c, 5, 47, 0
1, 47257, Note_on_c, 7, 47, 0
1, 47257, Note_on_c, 7, 35, 0
1, 47287, Note_on_c, 4, 87, 0
1, 47287, Note_on_c, 4, 78, 0
1, 47287, Note_on_c, 5, 49, 80
1, 47287, Note_on_c, 6, 59, 0
1, 47287, Note_on_c, 7, 75, 0
1, 47287, Note_on_c, 7, 59, 0
1, 47287, Note_on_c, 7, 66, 0
1, 47287, Note_on_c, 7, 61, 100
1, 47287, Note_on_c, 7, 49, 100
1, 47287, Note_on_c, 7, 37, 100
1, 47317, Note_on_c, 5, 49, 0
1, 47317, Note_on_c, 7, 61, 0
1, 47317, Note_on_c, 7, 49, 0
1, 47317, Note_on_c, 7, 37, 0
1, 47347, Note_on_c, 4, 83, 80
1, 47347, Note_on_c, 4, 78, 80
1, 47347, Note_on_c, 5, 51, 80
1, 47347, Note_on_c, 7, 71, 100
1, 47347, Note_on_c, 7, 54, 100
1, 47347, Note_on_c, 7, 63, 100
1, 47347, Note_on_c, 7, 51, 100
1, 47347, Note_on_c, 7, 39, 100
1, 47377, Note_on_c, 4, 83, 0
1, 47377, Note_on_c, 4, 78, 0
1, 47377, Note_on_c, 5, 51, 0
1, 47377, Note_on_c, 7, 71, 0
1, 47377, Note_on_c, 7, 54, 0
1, 47377, Note_on_c, 7, 63, 0
1, 47377, Note_on_c, 7, 51, 0
1, 47377, Note_on_c, 7, 39, 0
1, 47407, Note_on_c, 4, 79, 80
1, 47407, Note_on_c, 4, 76, 80
1, 47407, Note_on_c, 5, 52, 80
1, 47407, Note_on_c, 6, 59, 80
1, 47407, Note_on_c, 6, 52, 80
1, 47407, Note_on_c, 7, 67, 100
1, 47407, Note_on_c, 7, 52, 100
1, 47407, Note_on_c, 7, 64, 100
1, 47407, Note_on_c, 7, 40, 100
1, 47437, Note_on_c, 4, 79, 0
1, 47437, Note_on_c, 4, 76, 0
1, 47437, Note_on_c, 5, 51, 80
1, 47437, Note_on_c, 5, 52, 0
1, 47437, Note_on_c, 7, 67, 0
1, 47437, Note_on_c, 7, 64, 0
1, 47437, Note_on_c, 7, 63, 100
1, 47437, Note_on_c, 7, 52, 0
1, 47437, Note_on_c, 7, 51, 100
1, 47437, Note_on_c, 7, 40, 0
1, 47437, Note_on_c, 7, 39, 100
1, 47467, Note_on_c, 5, 52, 80
1, 47467, Note_on_c, 5, 51, 0
1, 47467, Note_on_c, 6, 59, 0
1, 47467, Note_on_c, 6, 52, 0
1, 47467, Note_on_c, 7, 63, 0
1, 47467, Note_on_c, 7, 64, 100
1, 47467, Note_on_c, 7, 51, 0
1, 47467, Note_on_c, 7, 52, 100
1, 47467, Note_on_c, 7, 39, 0
1, 47467, Note_on_c, 7, 40, 100
1, 47497, Note_on_c, 5, 54, 80
1, 47497, Note_on_c, 5, 52, 0
1, 47497, Note_on_c, 7, 64, 0
1, 47497, Note_on_c, 7, 66, 100
1, 47497, Note_on_c, 7, 52, 0
1, 47497, Note_on_c, 7, 54, 100
1, 47497, Note_on_c, 7, 40, 0
1, 47497, Note_on_c, 7, 42, 100
1, 47527, Note_on_c, 4, 91, 80
1, 47527, Note_on_c, 4, 88, 80
1, 47527, Note_on_c, 5, 55, 80
1, 47527, Note_on_c, 5, 54, 0
1, 47527, Note_on_c, 6, 59, 80
1, 47527, Note_on_c, 6, 52, 80
1, 47527, Note_on_c, 7, 71, 100
1, 47527, Note_on_c, 7, 79, 100
1, 47527, Note_on_c, 7, 59, 100
1, 47527, Note_on_c, 7, 67, 100
1, 47527, Note_on_c, 7, 76, 100
1, 47527, Note_on_c, 7, 66, 0
1, 47527, Note_on_c, 7, 54, 0
1, 47527, Note_on_c, 7, 55, 100
1, 47527, Note_on_c, 7, 42, 0
1, 47527, Note_on_c, 7, 43, 100
1, 47557, Note_on_c, 4, 91, 0
1, 47557, Note_on_c, 4, 88, 0
1, 47557, Note_on_c, 5, 54, 80
1, 47557, Note_on_c, 5, 55, 0
1, 47557, Note_on_c, 7, 71, 0
1, 47557, Note_on_c, 7, 79, 0
1, 47557, Note_on_c, 7, 59, 0
1, 47557, Note_on_c, 7, 76, 0
1, 47557, Note_on_c, 7, 67, 0
1, 47557, Note_on_c, 7, 66, 100
1, 47557, Note_on_c, 7, 55, 0
1, 47557, Note_on_c, 7, 54, 100
1, 47557, Note_on_c, 7, 43, 0
1, 47557, Note_on_c, 7, 42, 100
1, 47587, Note_on_c, 5, 55, 80
1, 47587, Note_on_c, 5, 54, 0
1, 47587, Note_on_c, 6, 59, 0
1, 47587, Note_on_c, 6, 52, 0
1, 47587, Note_on_c, 7, 66, 0
1, 47587, Note_on_c, 7, 67, 100
1, 47587, Note_on_c, 7, 54, 0
1, 47587, Note_on_c, 7, 55, 100
1, 47587, Note_on_c, 7, 42, 0
1, 47587, Note_on_c, 7, 43, 100
1, 47617, Note_on_c, 5, 57, 80
1, 47617, Note_on_c, 5, 55, 0
1, 47617, Note_on_c, 7, 67, 0
1, 47617, Note_on_c, 7, 69, 100
1, 47617, Note_on_c, 7, 55, 0
1, 47617, Note_on_c, 7, 57, 100
1, 47617, Note_on_c, 7, 43, 0
1, 47617, Note_on_c, 7, 45, 100
1, 47647, Note_on_c, 3, 71, 127
1, 47647, Note_on_c, 4, 90, 80
1, 47647, Note_on_c, 4, 87, 80
1, 47647, Note_on_c, 5, 59, 80
1, 47647, Note_on_c, 5, 57, 0
1, 47647, Note_on_c, 6, 59, 80
1, 47647, Note_on_c, 7, 71, 100
1, 47647, Note_on_c, 7, 78, 100
1, 47647, Note_on_c, 7, 59, 100
1, 47647, Note_on_c, 7, 66, 100
1, 47647, Note_on_c, 7, 75, 100
1, 47647, Note_on_c, 7, 69, 0
1, 47647, Note_on_c, 7, 57, 0
1, 47647, Note_on_c, 7, 45, 0
1, 47647, Note_on_c, 7, 47, 100
1, 47767, Note_on_c, 4, 90, 0
1, 47767, Note_on_c, 4, 87, 0
1, 47767, Note_on_c, 5, 59, 0
1, 47767, Note_on_c, 6, 59, 0
1, 47767, Note_on_c, 7, 78, 0
1, 47767, Note_on_c, 7, 66, 0
1, 47767, Note_on_c, 7, 75, 0
1, 47767, Note_on_c, 7, 71, 0
1, 47767, Note_on_c, 7, 59, 0
1, 47767, Note_on_c, 7, 47, 0
1, 47947, Note_on_c, 3, 71, 0
1, 47947, Note_on_c, 3, 73, 127
1, 48007, Note_on_c, 3, 73, 0
1, 48007, Note_on_c, 3, 75, 127
1, 48067, Note_on_c, 3, 75, 0
1, 48067, Note_on_c, 3, 76, 127
1, 48127, Note_on_c, 3, 76, 0
1, 48127, Note_on_c, 3, 76, 127
1, 48127, Note_on_c, 7, 63, 100
1, 48127, Note_on_c, 7, 59, 100
1, 48187, Note_on_c, 3, 76, 0
1, 48187, Note_on_c, 3, 75, 127
1, 48247, Note_on_c, 3, 75, 0
1, 48247, Note_on_c, 3, 71, 127
1, 48307, Note_on_c, 3, 71, 0
1, 48307, Note_on_c, 3, 68, 127
1, 48367, Note_on_c, 3, 68, 0
1, 48367, Note_on_c, 3, 65, 127
1, 48367, Note_on_c, 7, 63, 0
1, 48367, Note_on_c, 7, 61, 100
1, 48367, Note_on_c, 7, 59, 0
1, 48367, Note_on_c, 7, 57, 100
1, 48427, Note_on_c, 3, 65, 0
1, 48427, Note_on_c, 3, 66, 127
1, 48487, Note_on_c, 3, 66, 0
1, 48487, Note_on_c, 3, 69, 127
1, 48547, Note_on_c, 3, 69, 0
1, 48547, Note_on_c, 3, 73, 127
1, 48607, Note_on_c, 3, 73, 0
1, 48607, Note_on_c, 3, 73, 127
1, 48607, Note_on_c, 7, 61, 0
1, 48607, Note_on_c, 7, 59, 100
1, 48607, Note_on_c, 7, 57, 0
1, 48607, Note_on_c, 7, 56, 100
1, 48667, Note_on_c, 3, 73, 0
1, 48667, Note_on_c, 3, 71, 127
1, 48727, Note_on_c, 3, 71, 0
1, 48727, Note_on_c, 3, 68, 127
1, 48787, Note_on_c, 3, 68, 0
1, 48787, Note_on_c, 3, 64, 127
1, 48847, Note_on_c, 3, 64, 0
1, 48847, Note_on_c, 3, 64, 127
1, 48847, Note_on_c, 7, 59, 0
1, 48847, Note_on_c, 7, 57, 100
1, 48847, Note_on_c, 7, 56, 0
1, 48847, Note_on_c, 7, 54, 100
1, 48907, Note_on_c, 3, 64, 0
1, 48907, Note_on_c, 3, 63, 127
1, 48967, Note_on_c, 3, 63, 0
1, 48967, Note_on_c, 3, 66, 127
1, 48967, Note_on_c, 7, 63, 100
1, 49027, Note_on_c, 3, 66, 0
1, 49027, Note_on_c, 3, 69, 127
1, 49087, Note_on_c, 3, 69, 0
1, 49087, Note_on_c, 3, 68, 127
1, 49087, Note_on_c, 7, 63, 0
1, 49087, Note_on_c, 7, 64, 100
1, 49087, Note_on_c, 7, 57, 0
1, 49087, Note_on_c, 7, 59, 100
1, 49087, Note_on_c, 7, 52, 100
1, 49087, Note_on_c, 7, 54, 0
1, 49117, Note_on_c, 3, 68, 0
1, 49117, Note_on_c, 3, 69, 127
1, 49147, Note_on_c, 3, 69, 0
1, 49147, Note_on_c, 3, 71, 127
1, 49162, Note_on_c, 3, 71, 0
1, 49177, Note_on_c, 3, 73, 127
1, 49192, Note_on_c, 3, 73, 0
1, 49207, Note_on_c, 3, 75, 127
1, 49207, Note_on_c, 7, 64, 0
1, 49207, Note_on_c, 7, 59, 0
1, 49222, Note_on_c, 3, 75, 0
1, 49237, Note_on_c, 3, 76, 127
1, 49252, Note_on_c, 3, 76, 0
1, 49267, Note_on_c, 3, 78, 127
1, 49282, Note_on_c, 3, 78, 0
1, 49297, Note_on_c, 3, 80, 127
1, 49312, Note_on_c, 3, 80, 0
1, 49327, Note_on_c, 3, 81, 127
1, 49327, Note_on_c, 7, 59, 100
1, 49327, Note_on_c, 7, 52, 0
1, 49327, Note_on_c, 7, 35, 100
1, 49387, Note_on_c, 7, 63, 100
1, 49447, Note_on_c, 7, 63, 0
1, 49447, Note_on_c, 7, 66, 100
1, 49447, Note_on_c, 7, 63, 100
1, 49507, Note_on_c, 3, 81, 0
1, 49507, Note_on_c, 3, 75, 127
1, 49507, Note_on_c, 7, 66, 0
1, 49507, Note_on_c, 7, 69, 100
1, 49507, Note_on_c, 7, 63, 0
1, 49507, Note_on_c, 7, 66, 100
1, 49567, Note_on_c, 3, 75, 0
1, 49567, Note_on_c, 3, 78, 127
1, 49567, Note_on_c, 7, 69, 0
1, 49567, Note_on_c, 7, 68, 100
1, 49567, Note_on_c, 7, 66, 0
1, 49567, Note_on_c, 7, 64, 100
1, 49567, Note_on_c, 7, 52, 100
1, 49567, Note_on_c, 7, 35, 0
1, 49567, Note_on_c, 7, 40, 100
1, 49627, Note_on_c, 3, 78, 0
1, 49627, Note_on_c, 3, 76, 127
1, 49627, Note_on_c, 7, 68, 0
1, 49627, Note_on_c, 7, 71, 100
1, 49627, Note_on_c, 7, 64, 0
1, 49627, Note_on_c, 7, 68, 100
1, 49627, Note_on_c, 7, 59, 0
1, 49627, Note_on_c, 7, 64, 100
1, 49687, Note_on_c, 3, 76, 0
1, 49687, Note_on_c, 3, 76, 127
1, 49687, Note_on_c, 7, 71, 0
1, 49687, Note_on_c, 7, 71, 100
1, 49687, Note_on_c, 7, 68, 0
1, 49687, Note_on_c, 7, 68, 100
1, 49687, Note_on_c, 7, 64, 0
1, 49687, Note_on_c, 7, 64, 100
1, 49687, Note_on_c, 7, 52, 0
1, 49687, Note_on_c, 7, 40, 0
1, 49747, Note_on_c, 7, 71, 0
1, 49747, Note_on_c, 7, 71, 100
1, 49747, Note_on_c, 7, 68, 0
1, 49747, Note_on_c, 7, 68, 100
1, 49747, Note_on_c, 7, 64, 0
1, 49747, Note_on_c, 7, 64, 100
1, 49807, Note_on_c, 7, 71, 0
1, 49807, Note_on_c, 7, 68, 0
1, 49807, Note_on_c, 7, 64, 0
1, 49807, Note_on_c, 7, 52, 100
1, 49807, Note_on_c, 7, 40, 100
1, 49867, Note_on_c, 3, 76, 0
1, 49867, Note_on_c, 3, 78, 127
1, 49867, Note_on_c, 7, 71, 100
1, 49867, Note_on_c, 7, 68, 100
1, 49867, Note_on_c, 7, 64, 100
1, 49897, Note_on_c, 3, 78, 0
1, 49897, Note_on_c, 3, 80, 127
1, 49927, Note_on_c, 3, 80, 0
1, 49927, Note_on_c, 3, 78, 127
1, 49927, Note_on_c, 7, 71, 0
1, 49927, Note_on_c, 7, 71, 100
1, 49927, Note_on_c, 7, 68, 0
1, 49927, Note_on_c, 7, 68, 100
1, 49927, Note_on_c, 7, 64, 0
1, 49927, Note_on_c, 7, 64, 100
1, 49927, Note_on_c, 7, 52, 0
1, 49927, Note_on_c, 7, 40, 0
1, 49957, Note_on_c, 3, 78, 0
1, 49987, Note_on_c, 3, 76, 127
1, 49987, Note_on_c, 7, 71, 0
1, 49987, Note_on_c, 7, 71, 100
1, 49987, Note_on_c, 7, 68, 0
1, 49987, Note_on_c, 7, 68, 100
1, 49987, Note_on_c, 7, 64, 0
1, 49987, Note_on_c, 7, 64, 100
1, 50017, Note_on_c, 3, 76, 0
1, 50047, Note_on_c, 3, 75, 127
1, 50047, Note_on_c, 7, 71, 0
1, 50047, Note_on_c, 7, 71, 100
1, 50047, Note_on_c, 7, 68, 0
1, 50047, Note_on_c, 7, 69, 100
1, 50047, Note_on_c, 7, 64, 0
1, 50047, Note_on_c, 7, 66, 100
1, 50047, Note_on_c, 7, 54, 100
1, 50047, Note_on_c, 7, 42, 100
1, 50087, Note_on_c, 3, 75, 0
1, 50087, Note_on_c, 3, 78, 127
1, 50127, Note_on_c, 3, 78, 0
1, 50127, Note_on_c, 3, 81, 127
1, 50167, Note_on_c, 3, 81, 0
1, 50167, Note_on_c, 3, 78, 127
1, 50167, Note_on_c, 7, 71, 0
1, 50167, Note_on_c, 7, 69, 0
1, 50167, Note_on_c, 7, 66, 0
1, 50167, Note_on_c, 7, 54, 0
1, 50167, Note_on_c, 7, 42, 0
1, 50207, Note_on_c, 3, 78, 0
1, 50207, Note_on_c, 3, 75, 127
1, 50247, Note_on_c, 3, 75, 0
1, 50247, Note_on_c, 3, 71, 127
1, 50287, Note_on_c, 3, 71, 0
1, 50287, Note_on_c, 3, 69, 127
1, 50287, Note_on_c, 7, 47, 100
1, 50287, Note_on_c, 7, 35, 100
1, 50347, Note_on_c, 7, 69, 100
1, 50347, Note_on_c, 7, 66, 100
1, 50407, Note_on_c, 3, 69, 0
1, 50407, Note_on_c, 7, 69, 0
1, 50407, Note_on_c, 7, 68, 100
1, 50407, Note_on_c, 7, 66, 0
1, 50407, Note_on_c, 7, 64, 100
1, 50407, Note_on_c, 7, 59, 100
1, 50407, Note_on_c, 7, 47, 0
1, 50407, Note_on_c, 7, 35, 0
1, 50467, Note_on_c, 7, 68, 0
1, 50467, Note_on_c, 7, 66, 100
1, 50467, Note_on_c, 7, 64, 0
1, 50467, Note_on_c, 7, 63, 100
1, 50527, Note_on_c, 3, 68, 127
1, 50527, Note_on_c, 7, 66, 0
1, 50527, Note_on_c, 7, 68, 100
1, 50527, Note_on_c, 7, 63, 0
1, 50527, Note_on_c, 7, 64, 100
1, 50527, Note_on_c, 7, 52, 100
1, 50527, Note_on_c, 7, 40, 100
1, 50587, Note_on_c, 3, 68, 0
1, 50587, Note_on_c, 3, 71, 127
1, 50587, Note_on_c, 7, 68, 0
1, 50587, Note_on_c, 7, 71, 100
1, 50587, Note_on_c, 7, 64, 0
1, 50587, Note_on_c, 7, 68, 100
1, 50587, Note_on_c, 7, 59, 0
1, 50587, Note_on_c, 7, 64, 100
1, 50647, Note_on_c, 3, 71, 0
1, 50647, Note_on_c, 3, 76, 127
1, 50647, Note_on_c, 7, 71, 0
1, 50647, Note_on_c, 7, 71, 100
1, 50647, Note_on_c, 7, 68, 0
1, 50647, Note_on_c, 7, 68, 100
1, 50647, Note_on_c, 7, 64, 0
1, 50647, Note_on_c, 7, 64, 100
1, 50647, Note_on_c, 7, 52, 0
1, 50647, Note_on_c, 7, 40, 0
1, 50707, Note_on_c, 7, 71, 0
1, 50707, Note_on_c, 7, 71, 100
1, 50707, Note_on_c, 7, 68, 0
1, 50707, Note_on_c, 7, 68, 100
1, 50707, Note_on_c, 7, 64, 0
1, 50707, Note_on_c, 7, 64, 100
1, 50767, Note_on_c, 7, 71, 0
1, 50767, Note_on_c, 7, 68, 0
1, 50767, Note_on_c, 7, 64, 0
1, 50767, Note_on_c, 7, 52, 100
1, 50767, Note_on_c, 7, 40, 100
1, 50827, Note_on_c, 3, 76, 0
1, 50827, Note_on_c, 3, 78, 127
1, 50827, Note_on_c, 7, 71, 100
1, 50827, Note_on_c, 7, 68, 100
1, 50827, Note_on_c, 7, 64, 100
1, 50857, Note_on_c, 3, 78, 0
1, 50857, Note_on_c, 3, 80, 127
1, 50887, Note_on_c, 3, 80, 0
1, 50887, Note_on_c, 3, 78, 127
1, 50887, Note_on_c, 7, 71, 0
1, 50887, Note_on_c, 7, 71, 100
1, 50887, Note_on_c, 7, 68, 0
1, 50887, Note_on_c, 7, 68, 100
1, 50887, Note_on_c, 7, 64, 0
1, 50887, Note_on_c, 7, 64, 100
1, 50887, Note_on_c, 7, 52, 0
1, 50887, Note_on_c, 7, 40, 0
1, 50947, Note_on_c, 3, 78, 0
1, 50947, Note_on_c, 3, 76, 127
1, 50947, Note_on_c, 7, 71, 0
1, 50947, Note_on_c, 7, 71, 100
1, 50947, Note_on_c, 7, 68, 0
1, 50947, Note_on_c, 7, 68, 100
1, 50947, Note_on_c, 7, 64, 0
1, 50947, Note_on_c, 7, 64, 100
1, 51007, Note_on_c, 3, 76, 0
1, 51007, Note_on_c, 3, 75, 127
1, 51007, Note_on_c, 7, 71, 0
1, 51007, Note_on_c, 7, 71, 100
1, 51007, Note_on_c, 7, 68, 0
1, 51007, Note_on_c, 7, 69, 100
1, 51007, Note_on_c, 7, 64, 0
1, 51007, Note_on_c, 7, 66, 100
1, 51007, Note_on_c, 7, 54, 100
1, 51007, Note_on_c, 7, 42, 100
1, 51037, Note_on_c, 3, 75, 0
1, 51037, Note_on_c, 3, 78, 127
1, 51067, Note_on_c, 3, 78, 0
1, 51067, Note_on_c, 3, 81, 127
1, 51097, Note_on_c, 3, 81, 0
1, 51097, Note_on_c, 3, 78, 127
1, 51127, Note_on_c, 3, 78, 0
1, 51127, Note_on_c, 3, 75, 127
1, 51127, Note_on_c, 7, 71, 0
1, 51127, Note_on_c, 7, 69, 0
1, 51127, Note_on_c, 7, 66, 0
1, 51127, Note_on_c, 7, 54, 0
1, 51127, Note_on_c, 7, 42, 0
1, 51157, Note_on_c, 3, 75, 0
1, 51157, Note_on_c, 3, 71, 127
1, 51187, Note_on_c, 3, 71, 0
1, 51187, Note_on_c, 3, 69, 127
1, 51217, Note_on_c, 3, 69, 0
1, 51217, Note_on_c, 3, 66, 127
1, 51247, Note_on_c, 3, 66, 0
1, 51247, Note_on_c, 3, 63, 127
1, 51247, Note_on_c, 7, 47, 100
1, 51247, Note_on_c, 7, 35, 100
1, 51307, Note_on_c, 7, 69, 100
1, 51307, Note_on_c, 7, 66, 100
1, 51367, Note_on_c, 3, 63, 0
1, 51367, Note_on_c, 7, 69, 0
1, 51367, Note_on_c, 7, 68, 100
1, 51367, Note_on_c, 7, 66, 0
1, 51367, Note_on_c, 7, 64, 100
1, 51367, Note_on_c, 7, 59, 100
1, 51367, Note_on_c, 7, 47, 0
1, 51367, Note_on_c, 7, 35, 0
1, 51427, Note_on_c, 7, 68, 0
1, 51427, Note_on_c, 7, 66, 100
1, 51427, Note_on_c, 7, 64, 0
1, 51427, Note_on_c, 7, 63, 100
1, 51487, Note_on_c, 3, 76, 127
1, 51487, Note_on_c, 7, 66, 0
1, 51487, Note_on_c, 7, 68, 100
1, 51487, Note_on_c, 7, 63, 0
1, 51487, Note_on_c, 7, 64, 100
1, 51487, Note_on_c, 7, 52, 100
1, 51487, Note_on_c, 7, 40, 100
1, 51517, Note_on_c, 3, 76, 0
1, 51517, Note_on_c, 3, 75, 127
1, 51547, Note_on_c, 3, 75, 0
1, 51547, Note_on_c, 3, 78, 127
1, 51577, Note_on_c, 3, 78, 0
1, 51577, Note_on_c, 3, 76, 127
1, 51607, Note_on_c, 3, 76, 0
1, 51607, Note_on_c, 3, 80, 127
1, 51607, Note_on_c, 7, 68, 0
1, 51607, Note_on_c, 7, 64, 0
1, 51607, Note_on_c, 7, 59, 0
1, 51607, Note_on_c, 7, 52, 0
1, 51607, Note_on_c, 7, 40, 0
1, 51637, Note_on_c, 3, 80, 0
1, 51637, Note_on_c, 3, 78, 127
1, 51667, Note_on_c, 3, 78, 0
1, 51667, Note_on_c, 3, 76, 127
1, 51667, Note_on_c, 7, 71, 100
1, 51667, Note_on_c, 7, 64, 100
1, 51667, Note_on_c, 7, 56, 100
1, 51697, Note_on_c, 3, 76, 0
1, 51697, Note_on_c, 3, 75, 127
1, 51727, Note_on_c, 3, 75, 0
1, 51727, Note_on_c, 3, 73, 127
1, 51727, Note_on_c, 7, 71, 0
1, 51727, Note_on_c, 7, 69, 100
1, 51727, Note_on_c, 7, 57, 100
1, 51727, Note_on_c, 7, 56, 0
1, 51757, Note_on_c, 3, 73, 0
1, 51757, Note_on_c, 3, 72, 127
1, 51787, Note_on_c, 3, 72, 0
1, 51787, Note_on_c, 3, 75, 127
1, 51817, Note_on_c, 3, 75, 0
1, 51817, Note_on_c, 3, 73, 127
1, 51847, Note_on_c, 3, 73, 0
1, 51847, Note_on_c, 3, 76, 127
1, 51847, Note_on_c, 7, 69, 0
1, 51847, Note_on_c, 7, 64, 0
1, 51847, Note_on_c, 7, 57, 0
1, 51907, Note_on_c, 3, 76, 0
1, 51907, Note_on_c, 7, 71, 100
1, 51907, Note_on_c, 7, 64, 100
1, 51907, Note_on_c, 7, 56, 100
1, 51967, Note_on_c, 3, 73, 127
1, 51967, Note_on_c, 7, 71, 0
1, 51967, Note_on_c, 7, 73, 100
1, 51967, Note_on_c, 7, 57, 100
1, 51967, Note_on_c, 7, 56, 0
1, 51997, Note_on_c, 3, 73, 0
1, 51997, Note_on_c, 3, 72, 127
1, 52027, Note_on_c, 3, 72, 0
1, 52027, Note_on_c, 3, 75, 127
1, 52057, Note_on_c, 3, 75, 0
1, 52057, Note_on_c, 3, 73, 127
1, 52087, Note_on_c, 3, 73, 0
1, 52087, Note_on_c, 3, 76, 127
1, 52087, Note_on_c, 7, 73, 0
1, 52087, Note_on_c, 7, 64, 0
1, 52087, Note_on_c, 7, 57, 0
1, 52117, Note_on_c, 3, 76, 0
1, 52117, Note_on_c, 3, 75, 127
1, 52147, Note_on_c, 3, 75, 0
1, 52147, Note_on_c, 3, 73, 127
1, 52147, Note_on_c, 7, 68, 100
1, 52147, Note_on_c, 7, 61, 100
1, 52147, Note_on_c, 7, 53, 100
1, 52177, Note_on_c, 3, 73, 0
1, 52177, Note_on_c, 3, 71, 127
1, 52207, Note_on_c, 3, 71, 0
1, 52207, Note_on_c, 3, 69, 127
1, 52207, Note_on_c, 7, 68, 0
1, 52207, Note_on_c, 7, 66, 100
1, 52207, Note_on_c, 7, 54, 100
1, 52207, Note_on_c, 7, 53, 0
1, 52237, Note_on_c, 3, 69, 0
1, 52237, Note_on_c, 3, 68, 127
1, 52267, Note_on_c, 3, 68, 0
1, 52267, Note_on_c, 3, 71, 127
1, 52297, Note_on_c, 3, 71, 0
1, 52297, Note_on_c, 3, 69, 127
1, 52327, Note_on_c, 3, 69, 0
1, 52327, Note_on_c, 3, 73, 127
1, 52327, Note_on_c, 7, 66, 0
1, 52327, Note_on_c, 7, 61, 0
1, 52327, Note_on_c, 7, 54, 0
1, 52387, Note_on_c, 3, 73, 0
1, 52387, Note_on_c, 7, 68, 100
1, 52387, Note_on_c, 7, 61, 100
1, 52387, Note_on_c, 7, 53, 100
1, 52447, Note_on_c, 3, 69, 127
1, 52447, Note_on_c, 7, 68, 0
1, 52447, Note_on_c, 7, 69, 100
1, 52447, Note_on_c, 7, 54, 100
1, 52447, Note_on_c, 7, 53, 0
1, 52477, Note_on_c, 3, 69, 0
1, 52477, Note_on_c, 3, 68, 127
1, 52507, Note_on_c, 3, 68, 0
1, 52507, Note_on_c, 3, 71, 127
1, 52537, Note_on_c, 3, 71, 0
1, 52537, Note_on_c, 3, 69, 127
1, 52567, Note_on_c, 3, 69, 0
1, 52567, Note_on_c, 3, 73, 127
1, 52567, Note_on_c, 7, 69, 0
1, 52567, Note_on_c, 7, 61, 0
1, 52567, Note_on_c, 7, 54, 0
1, 52597, Note_on_c, 3, 73, 0
1, 52597, Note_on_c, 3, 71, 127
1, 52627, Note_on_c, 3, 71, 0
1, 52627, Note_on_c, 3, 69, 127
1, 52627, Note_on_c, 7, 65, 100
1, 52627, Note_on_c, 7, 59, 100
1, 52627, Note_on_c, 7, 56, 100
1, 52657, Note_on_c, 3, 69, 0
1, 52657, Note_on_c, 3, 68, 127
1, 52687, Note_on_c, 3, 68, 0
1, 52687, Note_on_c, 3, 66, 127
1, 52687, Note_on_c, 7, 65, 0
1, 52687, Note_on_c, 7, 66, 100
1, 52687, Note_on_c, 7, 59, 0
1, 52687, Note_on_c, 7, 61, 100
1, 52687, Note_on_c, 7, 57, 100
1, 52687, Note_on_c, 7, 56, 0
1, 52717, Note_on_c, 3, 66, 0
1, 52717, Note_on_c, 3, 65, 127
1, 52747, Note_on_c, 3, 65, 0
1, 52747, Note_on_c, 3, 68, 127
1, 52777, Note_on_c, 3, 68, 0
1, 52777, Note_on_c, 3, 66, 127
1, 52807, Note_on_c, 3, 66, 0
1, 52807, Note_on_c, 3, 69, 127
1, 52807, Note_on_c, 7, 66, 0
1, 52807, Note_on_c, 7, 61, 0
1, 52807, Note_on_c, 7, 57, 0
1, 52837, Note_on_c, 3, 69, 0
1, 52837, Note_on_c, 3, 68, 127
1, 52867, Note_on_c, 3, 68, 0
1, 52867, Note_on_c, 3, 66, 127
1, 52867, Note_on_c, 7, 64, 100
1, 52867, Note_on_c, 7, 61, 100
1, 52867, Note_on_c, 7, 58, 100
1, 52897, Note_on_c, 3, 66, 0
1, 52897, Note_on_c, 3, 64, 127
1, 52927, Note_on_c, 3, 64, 0
1, 52927, Note_on_c, 3, 63, 127
1, 52927, Note_on_c, 7, 64, 0
1, 52927, Note_on_c, 7, 63, 100
1, 52927, Note_on_c, 7, 61, 0
1, 52927, Note_on_c, 7, 59, 100
1, 52927, Note_on_c, 7, 58, 0
1, 52927, Note_on_c, 7, 54, 100
1, 52927, Note_on_c, 7, 47, 100
1, 52927, Note_on_c, 7, 35, 100
1, 52957, Note_on_c, 3, 63, 0
1, 52957, Note_on_c, 3, 59, 127
1, 52987, Note_on_c, 3, 59, 0
1, 52987, Note_on_c, 3, 57, 127
1, 53017, Note_on_c, 3, 57, 0
1, 53017, Note_on_c, 3, 54, 127
1, 53047, Note_on_c, 3, 54, 0
1, 53047, Note_on_c, 3, 57, 127
1, 53077, Note_on_c, 3, 57, 0
1, 53077, Note_on_c, 3, 59, 127
1, 53107, Note_on_c, 3, 59, 0
1, 53107, Note_on_c, 3, 63, 127
1, 53137, Note_on_c, 3, 63, 0
1, 53137, Note_on_c, 3, 66, 127
1, 53167, Note_on_c, 3, 66, 0
1, 53167, Note_on_c, 3, 69, 127
1, 53197, Note_on_c, 3, 69, 0
1, 53197, Note_on_c, 3, 71, 127
1, 53227, Note_on_c, 3, 71, 0
1, 53227, Note_on_c, 3, 75, 127
1, 53257, Note_on_c, 3, 75, 0
1, 53257, Note_on_c, 3, 78, 127
1, 53287, Note_on_c, 3, 78, 0
1, 53287, Note_on_c, 3, 81, 127
1, 53287, Note_on_c, 7, 47, 0
1, 53287, Note_on_c, 7, 45, 100
1, 53287, Note_on_c, 7, 35, 0
1, 53287, Note_on_c, 7, 33, 100
1, 53317, Note_on_c, 3, 81, 0
1, 53317, Note_on_c, 3, 78, 127
1, 53347, Note_on_c, 3, 78, 0
1, 53347, Note_on_c, 3, 75, 127
1, 53377, Note_on_c, 3, 75, 0
1, 53377, Note_on_c, 3, 78, 127
1, 53407, Note_on_c, 3, 78, 0
1, 53407, Note_on_c, 3, 76, 127
1, 53407, Note_on_c, 7, 63, 0
1, 53407, Note_on_c, 7, 64, 100
1, 53407, Note_on_c, 7, 54, 0
1, 53407, Note_on_c, 7, 56, 100
1, 53407, Note_on_c, 7, 45, 0
1, 53407, Note_on_c, 7, 44, 100
1, 53407, Note_on_c, 7, 33, 0
1, 53407, Note_on_c, 7, 32, 100
1, 53467, Note_on_c, 3, 76, 0
1, 53467, Note_on_c, 3, 83, 127
1, 53527, Note_on_c, 3, 83, 0
1, 53527, Note_on_c, 3, 81, 127
1, 53527, Note_on_c, 7, 64, 0
1, 53527, Note_on_c, 7, 59, 0
1, 53527, Note_on_c, 7, 56, 0
1, 53527, Note_on_c, 7, 44, 0
1, 53527, Note_on_c, 7, 32, 0
1, 53587, Note_on_c, 3, 81, 0
1, 53587, Note_on_c, 3, 80, 127
1, 53647, Note_on_c, 3, 80, 0
1, 53647, Note_on_c, 3, 78, 127
1, 53707, Note_on_c, 3, 78, 0
1, 53707, Note_on_c, 3, 76, 127
1, 53767, Note_on_c, 3, 76, 0
1, 53767, Note_on_c, 3, 75, 127
1, 53767, Note_on_c, 7, 71, 100
1, 53767, Note_on_c, 7, 64, 100
1, 53767, Note_on_c, 7, 56, 100
1, 53827, Note_on_c, 3, 75, 0
1, 53827, Note_on_c, 3, 74, 127
1, 53887, Note_on_c, 3, 74, 0
1, 53887, Note_on_c, 3, 73, 127
1, 53887, Note_on_c, 7, 71, 0
1, 53887, Note_on_c, 7, 73, 100
1, 53887, Note_on_c, 7, 57, 100
1, 53887, Note_on_c, 7, 56, 0
1, 53947, Note_on_c, 3, 73, 0
1, 53947, Note_on_c, 3, 74, 127
1, 54007, Note_on_c, 3, 74, 0
1, 54007, Note_on_c, 3, 75, 127
1, 54007, Note_on_c, 7, 73, 0
1, 54007, Note_on_c, 7, 64, 0
1, 54007, Note_on_c, 7, 57, 0
1, 54067, Note_on_c, 3, 75, 0
1, 54067, Note_on_c, 3, 76, 127
1, 54127, Note_on_c, 3, 76, 0
1, 54127, Note_on_c, 3, 77, 127
1, 54187, Note_on_c, 3, 77, 0
1, 54187, Note_on_c, 3, 78, 127
1, 54247, Note_on_c, 3, 78, 0
1, 54247, Note_on_c, 3, 80, 127
1, 54307, Note_on_c, 3, 80, 0
1, 54307, Note_on_c, 3, 81, 127
1, 54367, Note_on_c, 3, 81, 0
1, 54367, Note_on_c, 3, 76, 127
1, 54487, Note_on_c, 7, 73, 100
1, 54487, Note_on_c, 7, 67, 100
1, 54487, Note_on_c, 7, 58, 100
1, 54487, Note_on_c, 7, 34, 100
1, 54607, Note_on_c, 7, 73, 0
1, 54607, Note_on_c, 7, 71, 100
1, 54607, Note_on_c, 7, 67, 0
1, 54607, Note_on_c, 7, 68, 100
1, 54607, Note_on_c, 7, 59, 100
1, 54607, Note_on_c, 7, 58, 0
1, 54607, Note_on_c, 7, 34, 0
1, 54607, Note_on_c, 7, 35, 100
1, 54727, Note_on_c, 3, 76, 0
1, 54727, Note_on_c, 3, 80, 127
1, 54727, Note_on_c, 7, 71, 0
1, 54727, Note_on_c, 7, 75, 100
1, 54727, Note_on_c, 7, 68, 0
1, 54727, Note_on_c, 7, 69, 100
1, 54787, Note_on_c, 3, 80, 0
1, 54787, Note_on_c, 3, 78, 127
1, 54847, Note_on_c, 3, 78, 0
1, 54847, Note_on_c, 3, 76, 127
1, 54847, Note_on_c, 7, 75, 0
1, 54847, Note_on_c, 7, 76, 100
1, 54847, Note_on_c, 7, 69, 0
1, 54847, Note_on_c, 7, 68, 100
1, 54847, Note_on_c, 7, 52, 100
1, 54847, Note_on_c, 7, 59, 0
1, 54847, Note_on_c, 7, 35, 0
1, 54847, Note_on_c, 7, 28, 100
1, 54907, Note_on_c, 7, 76, 0
1, 54967, Note_on_c, 3, 76, 0
1, 54967, Note_on_c, 7, 64, 100
1, 54967, Note_on_c, 7, 68, 0
1, 54967, Note_on_c, 7, 52, 0
1, 54967, Note_on_c, 7, 28, 0
1, 55027, Note_on_c, 7, 64, 0
1, 55027, Note_on_c, 7, 68, 100
1, 55087, Note_on_c, 7, 68, 0
1, 55087, Note_on_c, 7, 64, 100
1, 55147, Note_on_c, 3, 76, 127
1, 55147, Note_on_c, 7, 64, 0
1, 55147, Note_on_c, 7, 68, 100
1, 55207, Note_on_c, 3, 76, 0
1, 55207, Note_on_c, 3, 75, 127
1, 55207, Note_on_c, 7, 68, 0
1, 55207, Note_on_c, 7, 64, 100
1, 55267, Note_on_c, 3, 75, 0
1, 55267, Note_on_c, 3, 73, 127
1, 55267, Note_on_c, 7, 64, 0
1, 55267, Note_on_c, 7, 68, 100
1, 55327, Note_on_c, 3, 73, 0
1, 55327, Note_on_c, 3, 72, 127
1, 55327, Note_on_c, 7, 68, 0
1, 55327, Note_on_c, 7, 66, 100
1, 55387, Note_on_c, 3, 72, 0
1, 55387, Note_on_c, 3, 75, 127
1, 55387, Note_on_c, 7, 66, 0
1, 55387, Note_on_c, 7, 68, 100
1, 55447, Note_on_c, 3, 75, 0
1, 55447, Note_on_c, 3, 78, 127
1, 55447, Note_on_c, 7, 68, 0
1, 55447, Note_on_c, 7, 66, 100
1, 55507, Note_on_c, 7, 66, 0
1, 55507, Note_on_c, 7, 68, 100
1, 55567, Note_on_c, 7, 68, 0
1, 55567, Note_on_c, 7, 66, 100
1, 55627, Note_on_c, 7, 66, 0
1, 55627, Note_on_c, 7, 68, 100
1, 55687, Note_on_c, 3, 78, 0
1, 55687, Note_on_c, 3, 72, 127
1, 55687, Note_on_c, 7, 68, 0
1, 55687, Note_on_c, 7, 66, 100
1, 55747, Note_on_c, 7, 66, 0
1, 55747, Note_on_c, 7, 68, 100
1, 55807, Note_on_c, 3, 72, 0
1, 55807, Note_on_c, 3, 75, 127
1, 55807, Note_on_c, 7, 68, 0
1, 55807, Note_on_c, 7, 64, 100
1, 55867, Note_on_c, 7, 64, 0
1, 55867, Note_on_c, 7, 68, 100
1, 55927, Note_on_c, 3, 75, 0
1, 55927, Note_on_c, 3, 73, 127
1, 55927, Note_on_c, 7, 68, 0
1, 55927, Note_on_c, 7, 64, 100
1, 55987, Note_on_c, 7, 64, 0
1, 55987, Note_on_c, 7, 68, 100
1, 56047, Note_on_c, 3, 73, 0
1, 56047, Note_on_c, 7, 68, 0
1, 56047, Note_on_c, 7, 64, 100
1, 56107, Note_on_c, 3, 49, 127
1, 56107, Note_on_c, 7, 64, 0
1, 56107, Note_on_c, 7, 68, 100
1, 56167, Note_on_c, 3, 49, 0
1, 56167, Note_on_c, 3, 52, 127
1, 56167, Note_on_c, 7, 68, 0
1, 56167, Note_on_c, 7, 64, 100
1, 56167, Note_on_c, 7, 61, 100
1, 56227, Note_on_c, 3, 52, 0
1, 56227, Note_on_c, 3, 49, 127
1, 56227, Note_on_c, 7, 64, 0
1, 56227, Note_on_c, 7, 68, 100
1, 56287, Note_on_c, 3, 49, 0
1, 56287, Note_on_c, 3, 56, 127
1, 56287, Note_on_c, 7, 68, 0
1, 56287, Note_on_c, 7, 63, 100
1, 56287, Note_on_c, 7, 61, 0
1, 56287, Note_on_c, 7, 60, 100
1, 56347, Note_on_c, 3, 56, 0
1, 56347, Note_on_c, 3, 55, 127
1, 56347, Note_on_c, 7, 63, 0
1, 56347, Note_on_c, 7, 68, 100
1, 56407, Note_on_c, 3, 55, 0
1, 56407, Note_on_c, 3, 56, 127
1, 56407, Note_on_c, 7, 68, 0
1, 56407, Note_on_c, 7, 63, 100
1, 56467, Note_on_c, 3, 56, 0
1, 56467, Note_on_c, 3, 55, 127
1, 56467, Note_on_c, 7, 63, 0
1, 56467, Note_on_c, 7, 68, 100
1, 56527, Note_on_c, 3, 55, 0
1, 56527, Note_on_c, 3, 56, 127
1, 56527, Note_on_c, 7, 68, 0
1, 56527, Note_on_c, 7, 63, 100
1, 56587, Note_on_c, 3, 56, 0
1, 56587, Note_on_c, 3, 55, 127
1, 56587, Note_on_c, 7, 63, 0
1, 56587, Note_on_c, 7, 68, 100
1, 56647, Note_on_c, 3, 55, 0
1, 56647, Note_on_c, 3, 56, 127
1, 56647, Note_on_c, 7, 68, 0
1, 56647, Note_on_c, 7, 63, 100
1, 56707, Note_on_c, 3, 56, 0
1, 56707, Note_on_c, 3, 54, 127
1, 56707, Note_on_c, 7, 63, 0
1, 56707, Note_on_c, 7, 68, 100
1, 56767, Note_on_c, 3, 54, 0
1, 56767, Note_on_c, 3, 52, 127
1, 56767, Note_on_c, 7, 68, 0
1, 56767, Note_on_c, 7, 64, 100
1, 56767, Note_on_c, 7, 60, 0
1, 56767, Note_on_c, 7, 61, 100
1, 56827, Note_on_c, 7, 64, 0
1, 56827, Note_on_c, 7, 68, 100
1, 56887, Note_on_c, 3, 52, 0
1, 56887, Note_on_c, 3, 49, 127
1, 56887, Note_on_c, 7, 68, 0
1, 56887, Note_on_c, 7, 64, 100
1, 56887, Note_on_c, 7, 61, 0
1, 56947, Note_on_c, 7, 64, 0
1, 56947, Note_on_c, 7, 68, 100
1, 57007, Note_on_c, 3, 49, 0
1, 57007, Note_on_c, 7, 68, 0
1, 57007, Note_on_c, 7, 64, 100
1, 57067, Note_on_c, 3, 76, 127
1, 57067, Note_on_c, 7, 64, 0
1, 57067, Note_on_c, 7, 68, 100
1, 57127, Note_on_c, 3, 76, 0
1, 57127, Note_on_c, 3, 75, 127
1, 57127, Note_on_c, 7, 68, 0
1, 57127, Note_on_c, 7, 64, 100
1, 57187, Note_on_c, 3, 75, 0
1, 57187, Note_on_c, 3, 73, 127
1, 57187, Note_on_c, 7, 64, 0
1, 57187, Note_on_c, 7, 68, 100
1, 57247, Note_on_c, 3, 73, 0
1, 57247, Note_on_c, 3, 72, 127
1, 57247, Note_on_c, 7, 68, 0
1, 57247, Note_on_c, 7, 66, 100
1, 57307, Note_on_c, 3, 72, 0
1, 57307, Note_on_c, 3, 75, 127
1, 57307, Note_on_c, 7, 66, 0
1, 57307, Note_on_c, 7, 68, 100
1, 57367, Note_on_c, 3, 75, 0
1, 57367, Note_on_c, 3, 78, 127
1, 57367, Note_on_c, 7, 68, 0
1, 57367, Note_on_c, 7, 66, 100
1, 57427, Note_on_c, 7, 66, 0
1, 57427, Note_on_c, 7, 68, 100
1, 57487, Note_on_c, 7, 68, 0
1, 57487, Note_on_c, 7, 66, 100
1, 57547, Note_on_c, 7, 66, 0
1, 57547, Note_on_c, 7, 68, 100
1, 57607, Note_on_c, 3, 78, 0
1, 57607, Note_on_c, 3, 72, 127
1, 57607, Note_on_c, 7, 68, 0
1, 57607, Note_on_c, 7, 66, 100
1, 57667, Note_on_c, 7, 66, 0
1, 57667, Note_on_c, 7, 68, 100
1, 57727, Note_on_c, 3, 72, 0
1, 57727, Note_on_c, 3, 75, 127
1, 57727, Note_on_c, 7, 68, 0
1, 57727, Note_on_c, 7, 64, 100
1, 57787, Note_on_c, 7, 64, 0
1, 57787, Note_on_c, 7, 68, 100
1, 57847, Note_on_c, 3, 75, 0
1, 57847, Note_on_c, 3, 73, 127
1, 57847, Note_on_c, 7, 68, 0
1, 57847, Note_on_c, 7, 64, 100
1, 57907, Note_on_c, 7, 64, 0
1, 57907, Note_on_c, 7, 68, 100
1, 57967, Note_on_c, 3, 73, 0
1, 57967, Note_on_c, 7, 68, 0
1, 57967, Note_on_c, 7, 64, 100
1, 58027, Note_on_c, 3, 49, 127
1, 58027, Note_on_c, 7, 64, 0
1, 58027, Note_on_c, 7, 68, 100
1, 58087, Note_on_c, 3, 49, 0
1, 58087, Note_on_c, 3, 52, 127
1, 58087, Note_on_c, 7, 68, 0
1, 58087, Note_on_c, 7, 64, 100
1, 58087, Note_on_c, 7, 61, 100
1, 58147, Note_on_c, 3, 52, 0
1, 58147, Note_on_c, 3, 49, 127
1, 58147, Note_on_c, 7, 64, 0
1, 58147, Note_on_c, 7, 68, 100
1, 58207, Note_on_c, 3, 49, 0
1, 58207, Note_on_c, 3, 56, 127
1, 58207, Note_on_c, 7, 68, 0
1, 58207, Note_on_c, 7, 63, 100
1, 58207, Note_on_c, 7, 61, 0
1, 58207, Note_on_c, 7, 60, 100
1, 58267, Note_on_c, 3, 56, 0
1, 58267, Note_on_c, 3, 55, 127
1, 58267, Note_on_c, 7, 63, 0
1, 58267, Note_on_c, 7, 68, 100
1, 58327, Note_on_c, 3, 55, 0
1, 58327, Note_on_c, 3, 56, 127
1, 58327, Note_on_c, 7, 68, 0
1, 58327, Note_on_c, 7, 63, 100
1, 58387, Note_on_c, 3, 56, 0
1, 58387, Note_on_c, 3, 55, 127
1, 58387, Note_on_c, 7, 63, 0
1, 58387, Note_on_c, 7, 68, 100
1, 58447, Note_on_c, 3, 55, 0
1, 58447, Note_on_c, 3, 56, 127
1, 58447, Note_on_c, 7, 68, 0
1, 58447, Note_on_c, 7, 63, 100
1, 58507, Note_on_c, 3, 56, 0
1, 58507, Note_on_c, 3, 55, 127
1, 58507, Note_on_c, 7, 63, 0
1, 58507, Note_on_c, 7, 68, 100
1, 58567, Note_on_c, 3, 55, 0
1, 58567, Note_on_c, 3, 56, 127
1, 58567, Note_on_c, 7, 68, 0
1, 58567, Note_on_c, 7, 63, 100
1, 58627, Note_on_c, 3, 56, 0
1, 58627, Note_on_c, 3, 54, 127
1, 58627, Note_on_c, 7, 63, 0
1, 58627, Note_on_c, 7, 68, 100
1, 58687, Note_on_c, 3, 54, 0
1, 58687, Note_on_c, 3, 52, 127
1, 58687, Note_on_c, 7, 68, 0
1, 58687, Note_on_c, 7, 64, 100
1, 58687, Note_on_c, 7, 60, 0
1, 58687, Note_on_c, 7, 61, 100
1, 58747, Note_on_c, 7, 64, 0
1, 58747, Note_on_c, 7, 68, 100
1, 58807, Note_on_c, 3, 52, 0
1, 58807, Note_on_c, 3, 49, 127
1, 58807, Note_on_c, 7, 68, 0
1, 58807, Note_on_c, 7, 64, 100
1, 58807, Note_on_c, 7, 61, 0
1, 58807, Note_on_c, 7, 61, 100
1, 58867, Note_on_c, 7, 64, 0
1, 58867, Note_on_c, 7, 68, 100
1, 58867, Note_on_c, 7, 61, 0
1, 58927, Note_on_c, 3, 49, 0
1, 58927, Note_on_c, 7, 68, 0
1, 58927, Note_on_c, 7, 64, 100
1, 58927, Note_on_c, 7, 61, 100
1, 58967, Note_on_c, 3, 73, 127
1, 58987, Note_on_c, 3, 73, 0
1, 58987, Note_on_c, 7, 61, 0
1, 59007, Note_on_c, 3, 75, 127
1, 59027, Note_on_c, 3, 75, 0
1, 59047, Note_on_c, 3, 76, 127
1, 59047, Note_on_c, 7, 64, 0
1, 59067, Note_on_c, 3, 76, 0
1, 59087, Note_on_c, 3, 78, 127
1, 59107, Note_on_c, 3, 78, 0
1, 59127, Note_on_c, 3, 80, 127
1, 59147, Note_on_c, 3, 80, 0
1, 59167, Note_on_c, 3, 81, 127
1, 59167, Note_on_c, 7, 69, 100
1, 59167, Note_on_c, 7, 64, 100
1, 59167, Note_on_c, 7, 66, 100
1, 59167, Note_on_c, 7, 60, 100
1, 59347, Note_on_c, 3, 81, 0
1, 59347, Note_on_c, 3, 78, 127
1, 59407, Note_on_c, 3, 78, 0
1, 59407, Note_on_c, 3, 75, 127
1, 59407, Note_on_c, 7, 64, 0
1, 59407, Note_on_c, 7, 63, 100
1, 59407, Note_on_c, 7, 66, 0
1, 59407, Note_on_c, 7, 66, 100
1, 59407, Note_on_c, 7, 60, 0
1, 59407, Note_on_c, 7, 59, 100
1, 59427, Note_on_c, 3, 75, 0
1, 59447, Note_on_c, 3, 76, 127
1, 59467, Note_on_c, 3, 76, 0
1, 59487, Note_on_c, 3, 77, 127
1, 59507, Note_on_c, 3, 77, 0
1, 59527, Note_on_c, 3, 78, 127
1, 59527, Note_on_c, 7, 69, 0
1, 59527, Note_on_c, 7, 63, 0
1, 59527, Note_on_c, 7, 66, 0
1, 59527, Note_on_c, 7, 59, 0
1, 59547, Note_on_c, 3, 78, 0
1, 59567, Note_on_c, 3, 79, 127
1, 59587, Note_on_c, 3, 79, 0
1, 59607, Note_on_c, 3, 80, 127
1, 59627, Note_on_c, 3, 80, 0
1, 59647, Note_on_c, 3, 81, 127
1, 59647, Note_on_c, 7, 69, 100
1, 59647, Note_on_c, 7, 64, 100
1, 59647, Note_on_c, 7, 66, 100
1, 59647, Note_on_c, 7, 60, 100
1, 59827, Note_on_c, 3, 81, 0
1, 59827, Note_on_c, 3, 78, 127
1, 59887, Note_on_c, 3, 78, 0
1, 59887, Note_on_c, 3, 75, 127
1, 59887, Note_on_c, 7, 64, 0
1, 59887, Note_on_c, 7, 63, 100
1, 59887, Note_on_c, 7, 66, 0
1, 59887, Note_on_c, 7, 66, 100
1, 59887, Note_on_c, 7, 60, 0
1, 59887, Note_on_c, 7, 59, 100
1, 59917, Note_on_c, 3, 75, 0
1, 59917, Note_on_c, 3, 73, 127
1, 59947, Note_on_c, 3, 73, 0
1, 59947, Note_on_c, 3, 71, 127
1, 59962, Note_on_c, 3, 71, 0
1, 59977, Note_on_c, 3, 73, 127
1, 59992, Note_on_c, 3, 73, 0
1, 60007, Note_on_c, 3, 75, 127
1, 60007, Note_on_c, 7, 69, 0
1, 60007, Note_on_c, 7, 63, 0
1, 60007, Note_on_c, 7, 66, 0
1, 60007, Note_on_c, 7, 59, 0
1, 60022, Note_on_c, 3, 75, 0
1, 60037, Note_on_c, 3, 76, 127
1, 60052, Note_on_c, 3, 76, 0
1, 60067, Note_on_c, 3, 78, 127
1, 60082, Note_on_c, 3, 78, 0
1, 60097, Note_on_c, 3, 80, 127
1, 60112, Note_on_c, 3, 80, 0
1, 60127, Note_on_c, 3, 81, 127
1, 60127, Note_on_c, 7, 69, 100
1, 60127, Note_on_c, 7, 63, 100
1, 60127, Note_on_c, 7, 66, 100
1, 60157, Note_on_c, 3, 81, 0
1, 60157, Note_on_c, 3, 78, 127
1, 60187, Note_on_c, 3, 78, 0
1, 60187, Note_on_c, 3, 75, 127
1, 60187, Note_on_c, 7, 69, 0
1, 60187, Note_on_c, 7, 69, 100
1, 60187, Note_on_c, 7, 63, 0
1, 60187, Note_on_c, 7, 63, 100
1, 60187, Note_on_c, 7, 66, 0
1, 60187, Note_on_c, 7, 66, 100
1, 60217, Note_on_c, 3, 75, 0
1, 60217, Note_on_c, 3, 71, 127
1, 60247, Note_on_c, 3, 71, 0
1, 60247, Note_on_c, 3, 69, 127
1, 60247, Note_on_c, 7, 59, 100
1, 60247, Note_on_c, 7, 35, 100
1, 60277, Note_on_c, 3, 69, 0
1, 60277, Note_on_c, 3, 66, 127
1, 60277, Note_on_c, 7, 59, 0
1, 60277, Note_on_c, 7, 35, 0
1, 60307, Note_on_c, 3, 66, 0
1, 60307, Note_on_c, 3, 63, 127
1, 60307, Note_on_c, 7, 69, 0
1, 60307, Note_on_c, 7, 69, 100
1, 60307, Note_on_c, 7, 63, 0
1, 60307, Note_on_c, 7, 63, 100
1, 60307, Note_on_c, 7, 66, 0
1, 60307, Note_on_c, 7, 66, 100
1, 60337, Note_on_c, 3, 63, 0
1, 60337, Note_on_c, 3, 59, 127
1, 60367, Note_on_c, 3, 59, 0
1, 60367, Note_on_c, 3, 57, 127
1, 60367, Note_on_c, 7, 54, 100
1, 60367, Note_on_c, 7, 30, 100
1, 60397, Note_on_c, 3, 57, 0
1, 60397, Note_on_c, 3, 59, 127
1, 60397, Note_on_c, 7, 54, 0
1, 60397, Note_on_c, 7, 30, 0
1, 60427, Note_on_c, 3, 59, 0
1, 60427, Note_on_c, 3, 63, 127
1, 60427, Note_on_c, 7, 69, 0
1, 60427, Note_on_c, 7, 69, 100
1, 60427, Note_on_c, 7, 63, 0
1, 60427, Note_on_c, 7, 63, 100
1, 60427, Note_on_c, 7, 66, 0
1, 60427, Note_on_c, 7, 66, 100
1, 60457, Note_on_c, 3, 63, 0
1, 60457, Note_on_c, 3, 66, 127
1, 60487, Note_on_c, 3, 66, 0
1, 60487, Note_on_c, 3, 69, 127
1, 60487, Note_on_c, 7, 51, 100
1, 60487, Note_on_c, 7, 27, 100
1, 60517, Note_on_c, 3, 69, 0
1, 60517, Note_on_c, 3, 71, 127
1, 60517, Note_on_c, 7, 51, 0
1, 60517, Note_on_c, 7, 27, 0
1, 60547, Note_on_c, 3, 71, 0
1, 60547, Note_on_c, 3, 75, 127
1, 60547, Note_on_c, 7, 69, 0
1, 60547, Note_on_c, 7, 69, 100
1, 60547, Note_on_c, 7, 63, 0
1, 60547, Note_on_c, 7, 63, 100
1, 60547, Note_on_c, 7, 66, 0
1, 60547, Note_on_c, 7, 66, 100
1, 60577, Note_on_c, 3, 75, 0
1, 60577, Note_on_c, 3, 78, 127
1, 60607, Note_on_c, 3, 78, 0
1, 60607, Note_on_c, 3, 81, 127
1, 60607, Note_on_c, 7, 69, 0
1, 60607, Note_on_c, 7, 69, 100
1, 60607, Note_on_c, 7, 63, 0
1, 60607, Note_on_c, 7, 63, 100
1, 60607, Note_on_c, 7, 66, 0
1, 60607, Note_on_c, 7, 66, 100
1, 60607, Note_on_c, 7, 47, 100
1, 60607, Note_on_c, 7, 35, 100
1, 60727, Note_on_c, 7, 69, 0
1, 60727, Note_on_c, 7, 63, 0
1, 60727, Note_on_c, 7, 66, 0
1, 60727, Note_on_c, 7, 47, 0
1, 60727, Note_on_c, 7, 35, 0
1, 60787, Note_on_c, 3, 81, 0
1, 60787, Note_on_c, 3, 78, 127
1, 60847, Note_on_c, 3, 78, 0
1, 60847, Note_on_c, 3, 75, 127
1, 61327, Note_on_c, 3, 75, 0
1, 61567, Note_on_c, 7, 71, 100
1, 61807, Note_on_c, 7, 71, 0
1, 61807, Note_on_c, 7, 68, 100
1, 61807, Note_on_c, 7, 59, 100
1, 61987, Note_on_c, 7, 68, 0
1, 61987, Note_on_c, 7, 69, 100
1, 62047, Note_on_c, 3, 76, 127
1, 62047, Note_on_c, 7, 69, 0
1, 62047, Note_on_c, 7, 73, 100
1, 62047, Note_on_c, 7, 56, 100
1, 62047, Note_on_c, 7, 59, 0
1, 62107, Note_on_c, 7, 73, 0
1, 62107, Note_on_c, 7, 71, 100
1, 62167, Note_on_c, 7, 71, 0
1, 62167, Note_on_c, 7, 69, 100
1, 62197, Note_on_c, 7, 69, 0
1, 62227, Note_on_c, 7, 68, 100
1, 62227, Note_on_c, 7, 57, 100
1, 62227, Note_on_c, 7, 56, 0
1, 62257, Note_on_c, 7, 68, 0
1, 62287, Note_on_c, 3, 76, 0
1, 62287, Note_on_c, 3, 75, 127
1, 62287, Note_on_c, 7, 66, 100
1, 62287, Note_on_c, 7, 61, 100
1, 62287, Note_on_c, 7, 57, 0
1, 62347, Note_on_c, 7, 59, 100
1, 62347, Note_on_c, 7, 61, 0
1, 62407, Note_on_c, 7, 57, 100
1, 62407, Note_on_c, 7, 59, 0
1, 62437, Note_on_c, 7, 57, 0
1, 62467, Note_on_c, 3, 75, 0
1, 62467, Note_on_c, 3, 76, 127
1, 62467, Note_on_c, 7, 66, 0
1, 62467, Note_on_c, 7, 68, 100
1, 62467, Note_on_c, 7, 56, 100
1, 62497, Note_on_c, 7, 56, 0
1, 62527, Note_on_c, 3, 76, 0
1, 62527, Note_on_c, 3, 80, 127
1, 62527, Note_on_c, 7, 68, 0
1, 62527, Note_on_c, 7, 71, 100
1, 62527, Note_on_c, 7, 54, 100
1, 62587, Note_on_c, 3, 80, 0
1, 62587, Note_on_c, 3, 78, 127
1, 62587, Note_on_c, 7, 71, 0
1, 62587, Note_on_c, 7, 69, 100
1, 62647, Note_on_c, 3, 78, 0
1, 62647, Note_on_c, 3, 76, 127
1, 62647, Note_on_c, 7, 69, 0
1, 62647, Note_on_c, 7, 68, 100
1, 62677, Note_on_c, 3, 76, 0
1, 62677, Note_on_c, 7, 68, 0
1, 62707, Note_on_c, 3, 75, 127
1, 62707, Note_on_c, 7, 66, 100
1, 62707, Note_on_c, 7, 56, 100
1, 62707, Note_on_c, 7, 54, 0
1, 62737, Note_on_c, 3, 75, 0
1, 62737, Note_on_c, 7, 66, 0
1, 62767, Note_on_c, 3, 73, 127
1, 62767, Note_on_c, 7, 64, 100
1, 62767, Note_on_c, 7, 59, 100
1, 62767, Note_on_c, 7, 56, 0
1, 62827, Note_on_c, 7, 57, 100
1, 62827, Note_on_c, 7, 59, 0
1, 62887, Note_on_c, 7, 56, 100
1, 62887, Note_on_c, 7, 57, 0
1, 62917, Note_on_c, 7, 56, 0
1, 62947, Note_on_c, 3, 73, 0
1, 62947, Note_on_c, 3, 75, 127
1, 62947, Note_on_c, 7, 64, 0
1, 62947, Note_on_c, 7, 66, 100
1, 62947, Note_on_c, 7, 54, 100
1, 62977, Note_on_c, 7, 54, 0
1, 63007, Note_on_c, 3, 75, 0
1, 63007, Note_on_c, 3, 76, 127
1, 63007, Note_on_c, 7, 66, 0
1, 63007, Note_on_c, 7, 68, 100
1, 63007, Note_on_c, 7, 52, 100
1, 63067, Note_on_c, 3, 76, 0
1, 63067, Note_on_c, 3, 78, 127
1, 63067, Note_on_c, 7, 68, 0
1, 63067, Note_on_c, 7, 69, 100
1, 63097, Note_on_c, 3, 78, 0
1, 63097, Note_on_c, 3, 80, 127
1, 63097, Note_on_c, 7, 69, 0
1, 63097, Note_on_c, 7, 71, 100
1, 63127, Note_on_c, 3, 80, 0
1, 63127, Note_on_c, 3, 78, 127
1, 63127, Note_on_c, 7, 71, 0
1, 63127, Note_on_c, 7, 69, 100
1, 63127, Note_on_c, 7, 52, 0
1, 63157, Note_on_c, 3, 78, 0
1, 63157, Note_on_c, 3, 76, 127
1, 63157, Note_on_c, 7, 69, 0
1, 63157, Note_on_c, 7, 68, 100
1, 63187, Note_on_c, 3, 76, 0
1, 63187, Note_on_c, 3, 75, 127
1, 63187, Note_on_c, 7, 68, 0
1, 63187, Note_on_c, 7, 66, 100
1, 63187, Note_on_c, 7, 52, 100
1, 63217, Note_on_c, 3, 75, 0
1, 63217, Note_on_c, 3, 73, 127
1, 63217, Note_on_c, 7, 66, 0
1, 63217, Note_on_c, 7, 64, 100
1, 63247, Note_on_c, 3, 73, 0
1, 63247, Note_on_c, 3, 73, 127
1, 63247, Note_on_c, 7, 64, 0
1, 63247, Note_on_c, 7, 63, 100
1, 63247, Note_on_c, 7, 54, 100
1, 63247, Note_on_c, 7, 52, 0
1, 63307, Note_on_c, 3, 73, 0
1, 63307, Note_on_c, 3, 71, 127
1, 63307, Note_on_c, 7, 63, 0
1, 63367, Note_on_c, 3, 71, 0
1, 63367, Note_on_c, 3, 71, 127
1, 63367, Note_on_c, 7, 61, 100
1, 63367, Note_on_c, 7, 52, 100
1, 63367, Note_on_c, 7, 54, 0
1, 63427, Note_on_c, 3, 71, 0
1, 63427, Note_on_c, 3, 70, 127
1, 63427, Note_on_c, 7, 61, 0
1, 63427, Note_on_c, 7, 52, 0
1, 63487, Note_on_c, 3, 70, 0
1, 63487, Note_on_c, 3, 71, 127
1, 63487, Note_on_c, 7, 59, 100
1, 63487, Note_on_c, 7, 51, 100
1, 63547, Note_on_c, 3, 71, 0
1, 63547, Note_on_c, 3, 73, 127
1, 63547, Note_on_c, 7, 59, 0
1, 63547, Note_on_c, 7, 51, 0
1, 63607, Note_on_c, 3, 73, 0
1, 63607, Note_on_c, 3, 69, 127
1, 63607, Note_on_c, 7, 63, 100
1, 63607, Note_on_c, 7, 59, 100
1, 63667, Note_on_c, 7, 63, 0
1, 63667, Note_on_c, 7, 59, 0
1, 63727, Note_on_c, 3, 69, 0
1, 63787, Note_on_c, 7, 66, 100
1, 63787, Note_on_c, 7, 63, 100
1, 63847, Note_on_c, 7, 66, 0
1, 63847, Note_on_c, 7, 68, 100
1, 63847, Note_on_c, 7, 63, 0
1, 63847, Note_on_c, 7, 64, 100
1, 63847, Note_on_c, 7, 59, 100
1, 63847, Note_on_c, 7, 57, 100
1, 63847, Note_on_c, 7, 33, 100
1, 63907, Note_on_c, 7, 68, 0
1, 63907, Note_on_c, 7, 69, 100
1, 63907, Note_on_c, 7, 64, 0
1, 63907, Note_on_c, 7, 66, 100
1, 63967, Note_on_c, 7, 69, 0
1, 63967, Note_on_c, 7, 71, 100
1, 63967, Note_on_c, 7, 66, 0
1, 63967, Note_on_c, 7, 64, 100
1, 63967, Note_on_c, 7, 57, 0
1, 63967, Note_on_c, 7, 56, 100
1, 63967, Note_on_c, 7, 33, 0
1, 63967, Note_on_c, 7, 32, 100
1, 64027, Note_on_c, 7, 71, 0
1, 64027, Note_on_c, 7, 73, 100
1, 64087, Note_on_c, 7, 73, 0
1, 64087, Note_on_c, 7, 71, 100
1, 64087, Note_on_c, 7, 64, 0
1, 64087, Note_on_c, 7, 63, 100
1, 64087, Note_on_c, 7, 59, 0
1, 64087, Note_on_c, 7, 56, 0
1, 64087, Note_on_c, 7, 57, 100
1, 64087, Note_on_c, 7, 32, 0
1, 64087, Note_on_c, 7, 33, 100
1, 64117, Note_on_c, 7, 71, 0
1, 64117, Note_on_c, 7, 69, 100
1, 64117, Note_on_c, 7, 63, 0
1, 64117, Note_on_c, 7, 61, 100
1, 64147, Note_on_c, 7, 69, 0
1, 64147, Note_on_c, 7, 68, 100
1, 64147, Note_on_c, 7, 61, 0
1, 64147, Note_on_c, 7, 59, 100
1, 64147, Note_on_c, 7, 61, 100
1, 64177, Note_on_c, 7, 68, 0
1, 64177, Note_on_c, 7, 66, 100
1, 64177, Note_on_c, 7, 59, 0
1, 64207, Note_on_c, 7, 66, 0
1, 64207, Note_on_c, 7, 66, 100
1, 64207, Note_on_c, 7, 56, 100
1, 64207, Note_on_c, 7, 61, 0
1, 64207, Note_on_c, 7, 59, 100
1, 64207, Note_on_c, 7, 57, 0
1, 64207, Note_on_c, 7, 33, 0
1, 64207, Note_on_c, 7, 35, 100
1, 64267, Note_on_c, 7, 66, 0
1, 64267, Note_on_c, 7, 64, 100
1, 64327, Note_on_c, 7, 64, 0
1, 64327, Note_on_c, 7, 64, 100
1, 64327, Note_on_c, 7, 56, 0
1, 64327, Note_on_c, 7, 57, 100
1, 64327, Note_on_c, 7, 47, 100
1, 64327, Note_on_c, 7, 35, 0
1, 64327, Note_on_c, 7, 35, 100
1, 64387, Note_on_c, 7, 64, 0
1, 64387, Note_on_c, 7, 63, 100
1, 64447, Note_on_c, 3, 52, 127
1, 64447, Note_on_c, 7, 63, 0
1, 64447, Note_on_c, 7, 64, 100
1, 64447, Note_on_c, 7, 57, 0
1, 64447, Note_on_c, 7, 56, 100
1, 64447, Note_on_c, 7, 59, 0
1, 64447, Note_on_c, 7, 59, 100
1, 64447, Note_on_c, 7, 47, 0
1, 64447, Note_on_c, 7, 52, 100
1, 64447, Note_on_c, 7, 35, 0
1, 64447, Note_on_c, 7, 40, 100
1, 64477, Note_on_c, 3, 52, 0
1, 64477, Note_on_c, 3, 59, 127
1, 64477, Note_on_c, 7, 64, 0
1, 64507, Note_on_c, 3, 59, 0
1, 64507, Note_on_c, 3, 56, 127
1, 64507, Note_on_c, 7, 76, 100
1, 64507, Note_on_c, 7, 52, 0
1, 64507, Note_on_c, 7, 40, 0
1, 64537, Note_on_c, 3, 56, 0
1, 64537, Note_on_c, 3, 59, 127
1, 64567, Note_on_c, 3, 59, 0
1, 64567, Note_on_c, 3, 54, 127
1, 64567, Note_on_c, 7, 76, 0
1, 64567, Note_on_c, 7, 75, 100
1, 64567, Note_on_c, 7, 56, 0
1, 64567, Note_on_c, 7, 59, 0
1, 64567, Note_on_c, 7, 54, 100
1, 64567, Note_on_c, 7, 42, 100
1, 64597, Note_on_c, 3, 54, 0
1, 64597, Note_on_c, 3, 59, 127
1, 64627, Note_on_c, 3, 59, 0
1, 64627, Note_on_c, 3, 57, 127
1, 64627, Note_on_c, 7, 75, 0
1, 64627, Note_on_c, 7, 69, 100
1, 64627, Note_on_c, 7, 54, 0
1, 64627, Note_on_c, 7, 42, 0
1, 64657, Note_on_c, 3, 57, 0
1, 64657, Note_on_c, 3, 59, 127
1, 64687, Note_on_c, 3, 59, 0
1, 64687, Note_on_c, 3, 52, 127
1, 64687, Note_on_c, 7, 69, 0
1, 64687, Note_on_c, 7, 68, 100
1, 64687, Note_on_c, 7, 52, 100
1, 64687, Note_on_c, 7, 40, 100
1, 64717, Note_on_c, 3, 52, 0
1, 64717, Note_on_c, 3, 59, 127
1, 64747, Note_on_c, 3, 59, 0
1, 64747, Note_on_c, 3, 56, 127
1, 64747, Note_on_c, 7, 68, 0
1, 64747, Note_on_c, 7, 80, 100
1, 64747, Note_on_c, 7, 64, 100
1, 64747, Note_on_c, 7, 52, 0
1, 64747, Note_on_c, 7, 40, 0
1, 64757, Note_on_c, 7, 80, 0
1, 64757, Note_on_c, 7, 81, 100
1, 64767, Note_on_c, 7, 81, 0
1, 64767, Note_on_c, 7, 80, 100
1, 64777, Note_on_c, 3, 56, 0
1, 64777, Note_on_c, 3, 59, 127
1, 64777, Note_on_c, 7, 80, 0
1, 64777, Note_on_c, 7, 78, 100
1, 64792, Note_on_c, 7, 78, 0
1, 64792, Note_on_c, 7, 80, 100
1, 64807, Note_on_c, 3, 59, 0
1, 64807, Note_on_c, 3, 47, 127
1, 64807, Note_on_c, 7, 80, 0
1, 64807, Note_on_c, 7, 81, 100
1, 64807, Note_on_c, 7, 64, 0
1, 64807, Note_on_c, 7, 63, 100
1, 64807, Note_on_c, 7, 47, 100
1, 64807, Note_on_c, 7, 35, 100
1, 64837, Note_on_c, 3, 47, 0
1, 64837, Note_on_c, 3, 59, 127
1, 64867, Note_on_c, 3, 59, 0
1, 64867, Note_on_c, 3, 54, 127
1, 64867, Note_on_c, 7, 81, 0
1, 64867, Note_on_c, 7, 63, 0
1, 64867, Note_on_c, 7, 57, 100
1, 64867, Note_on_c, 7, 47, 0
1, 64867, Note_on_c, 7, 35, 0
1, 64897, Note_on_c, 3, 54, 0
1, 64897, Note_on_c, 3, 59, 127
1, 64927, Note_on_c, 3, 59, 0
1, 64927, Note_on_c, 3, 52, 127
1, 64927, Note_on_c, 7, 57, 0
1, 64927, Note_on_c, 7, 56, 100
1, 64927, Note_on_c, 7, 52, 100
1, 64927, Note_on_c, 7, 40, 100
1, 64957, Note_on_c, 3, 52, 0
1, 64957, Note_on_c, 3, 59, 127
1, 64987, Note_on_c, 3, 59, 0
1, 64987, Note_on_c, 3, 56, 127
1, 64987, Note_on_c, 7, 76, 100
1, 64987, Note_on_c, 7, 56, 0
1, 64987, Note_on_c, 7, 68, 100
1, 64987, Note_on_c, 7, 71, 100
1, 64987, Note_on_c, 7, 52, 0
1, 64987, Note_on_c, 7, 40, 0
1, 64997, Note_on_c, 7, 68, 0
1, 64997, Note_on_c, 7, 69, 100
1, 65007, Note_on_c, 7, 69, 0
1, 65007, Note_on_c, 7, 68, 100
1, 65017, Note_on_c, 3, 56, 0
1, 65017, Note_on_c, 3, 59, 127
1, 65017, Note_on_c, 7, 68, 0
1, 65017, Note_on_c, 7, 66, 100
1, 65032, Note_on_c, 7, 66, 0
1, 65032, Note_on_c, 7, 68, 100
1, 65047, Note_on_c, 3, 59, 0
1, 65047, Note_on_c, 3, 54, 127
1, 65047, Note_on_c, 7, 76, 0
1, 65047, Note_on_c, 7, 75, 100
1, 65047, Note_on_c, 7, 68, 0
1, 65047, Note_on_c, 7, 69, 100
1, 65047, Note_on_c, 7, 54, 100
1, 65047, Note_on_c, 7, 42, 100
1, 65077, Note_on_c, 3, 54, 0
1, 65077, Note_on_c, 3, 59, 127
1, 65107, Note_on_c, 3, 59, 0
1, 65107, Note_on_c, 3, 57, 127
1, 65107, Note_on_c, 7, 75, 0
1, 65107, Note_on_c, 7, 71, 0
1, 65107, Note_on_c, 7, 71, 100
1, 65107, Note_on_c, 7, 54, 0
1, 65107, Note_on_c, 7, 42, 0
1, 65137, Note_on_c, 3, 57, 0
1, 65137, Note_on_c, 3, 59, 127
1, 65167, Note_on_c, 3, 59, 0
1, 65167, Note_on_c, 3, 52, 127
1, 65167, Note_on_c, 7, 69, 0
1, 65167, Note_on_c, 7, 68, 100
1, 65167, Note_on_c, 7, 52, 100
1, 65167, Note_on_c, 7, 40, 100
1, 65197, Note_on_c, 3, 52, 0
1, 65197, Note_on_c, 3, 59, 127
1, 65227, Note_on_c, 3, 59, 0
1, 65227, Note_on_c, 3, 56, 127
1, 65227, Note_on_c, 7, 68, 0
1, 65227, Note_on_c, 7, 80, 100
1, 65227, Note_on_c, 7, 64, 100
1, 65227, Note_on_c, 7, 71, 0
1, 65227, Note_on_c, 7, 71, 100
1, 65227, Note_on_c, 7, 52, 0
1, 65227, Note_on_c, 7, 40, 0
1, 65237, Note_on_c, 7, 80, 0
1, 65237, Note_on_c, 7, 81, 100
1, 65247, Note_on_c, 7, 81, 0
1, 65247, Note_on_c, 7, 80, 100
1, 65257, Note_on_c, 3, 56, 0
1, 65257, Note_on_c, 3, 59, 127
1, 65257, Note_on_c, 7, 80, 0
1, 65257, Note_on_c, 7, 78, 100
1, 65272, Note_on_c, 7, 78, 0
1, 65272, Note_on_c, 7, 80, 100
1, 65287, Note_on_c, 3, 59, 0
1, 65287, Note_on_c, 3, 47, 127
1, 65287, Note_on_c, 7, 80, 0
1, 65287, Note_on_c, 7, 81, 100
1, 65287, Note_on_c, 7, 64, 0
1, 65287, Note_on_c, 7, 63, 100
1, 65287, Note_on_c, 7, 47, 100
1, 65287, Note_on_c, 7, 35, 100
1, 65317, Note_on_c, 3, 47, 0
1, 65317, Note_on_c, 3, 59, 127
1, 65347, Note_on_c, 3, 59, 0
1, 65347, Note_on_c, 3, 54, 127
1, 65347, Note_on_c, 7, 81, 0
1, 65347, Note_on_c, 7, 63, 0
1, 65347, Note_on_c, 7, 57, 100
1, 65347, Note_on_c, 7, 71, 0
1, 65347, Note_on_c, 7, 71, 100
1, 65347, Note_on_c, 7, 47, 0
1, 65347, Note_on_c, 7, 35, 0
1, 65377, Note_on_c, 3, 54, 0
1, 65377, Note_on_c, 3, 59, 127
1, 65407, Note_on_c, 3, 59, 0
1, 65407, Note_on_c, 3, 52, 127
1, 65407, Note_on_c, 7, 57, 0
1, 65407, Note_on_c, 7, 56, 100
1, 65407, Note_on_c, 7, 52, 100
1, 65407, Note_on_c, 7, 40, 100
1, 65437, Note_on_c, 3, 52, 0
1, 65437, Note_on_c, 3, 59, 127
1, 65467, Note_on_c, 3, 59, 0
1, 65467, Note_on_c, 3, 56, 127
1, 65467, Note_on_c, 7, 76, 100
1, 65467, Note_on_c, 7, 56, 0
1, 65467, Note_on_c, 7, 68, 100
1, 65467, Note_on_c, 7, 71, 0
1, 65467, Note_on_c, 7, 71, 100
1, 65467, Note_on_c, 7, 52, 0
1, 65467, Note_on_c, 7, 40, 0
1, 65477, Note_on_c, 7, 68, 0
1, 65477, Note_on_c, 7, 69, 100
1, 65487, Note_on_c, 7, 69, 0
1, 65487, Note_on_c, 7, 68, 100
1, 65497, Note_on_c, 3, 56, 0
1, 65497, Note_on_c, 3, 59, 127
1, 65497, Note_on_c, 7, 68, 0
1, 65497, Note_on_c, 7, 66, 100
1, 65512, Note_on_c, 7, 66, 0
1, 65512, Note_on_c, 7, 68, 100
1, 65527, Note_on_c, 3, 59, 0
1, 65527, Note_on_c, 3, 51, 127
1, 65527, Note_on_c, 7, 76, 0
1, 65527, Note_on_c, 7, 75, 100
1, 65527, Note_on_c, 7, 68, 0
1, 65527, Note_on_c, 7, 69, 100
1, 65527, Note_on_c, 7, 54, 100
1, 65527, Note_on_c, 7, 42, 100
1, 65557, Note_on_c, 3, 51, 0
1, 65557, Note_on_c, 3, 59, 127
1, 65587, Note_on_c, 3, 59, 0
1, 65587, Note_on_c, 3, 54, 127
1, 65587, Note_on_c, 7, 75, 0
1, 65587, Note_on_c, 7, 71, 0
1, 65587, Note_on_c, 7, 71, 100
1, 65587, Note_on_c, 7, 54, 0
1, 65587, Note_on_c, 7, 42, 0
1, 65617, Note_on_c, 3, 54, 0
1, 65617, Note_on_c, 3, 59, 127
1, 65647, Note_on_c, 3, 59, 0
1, 65647, Note_on_c, 3, 52, 127
1, 65647, Note_on_c, 7, 69, 0
1, 65647, Note_on_c, 7, 68, 100
1, 65647, Note_on_c, 7, 52, 100
1, 65647, Note_on_c, 7, 40, 100
1, 65677, Note_on_c, 3, 52, 0
1, 65677, Note_on_c, 3, 59, 127
1, 65707, Note_on_c, 3, 59, 0
1, 65707, Note_on_c, 3, 56, 127
1, 65707, Note_on_c, 7, 68, 0
1, 65707, Note_on_c, 7, 80, 100
1, 65707, Note_on_c, 7, 64, 100
1, 65707, Note_on_c, 7, 71, 0
1, 65707, Note_on_c, 7, 71, 100
1, 65707, Note_on_c, 7, 52, 0
1, 65707, Note_on_c, 7, 40, 0
1, 65717, Note_on_c, 7, 80, 0
1, 65717, Note_on_c, 7, 81, 100
1, 65727, Note_on_c, 7, 81, 0
1, 65727, Note_on_c, 7, 80, 100
1, 65737, Note_on_c, 3, 56, 0
1, 65737, Note_on_c, 3, 59, 127
1, 65737, Note_on_c, 7, 80, 0
1, 65737, Note_on_c, 7, 78, 100
1, 65752, Note_on_c, 7, 78, 0
1, 65752, Note_on_c, 7, 80, 100
1, 65767, Note_on_c, 3, 59, 0
1, 65767, Note_on_c, 3, 47, 127
1, 65767, Note_on_c, 7, 80, 0
1, 65767, Note_on_c, 7, 81, 100
1, 65767, Note_on_c, 7, 64, 0
1, 65767, Note_on_c, 7, 63, 100
1, 65767, Note_on_c, 7, 59, 100
1, 65767, Note_on_c, 7, 47, 100
1, 65797, Note_on_c, 3, 47, 0
1, 65797, Note_on_c, 3, 59, 127
1, 65827, Note_on_c, 3, 59, 0
1, 65827, Note_on_c, 3, 54, 127
1, 65827, Note_on_c, 7, 81, 0
1, 65827, Note_on_c, 7, 63, 0
1, 65827, Note_on_c, 7, 75, 100
1, 65827, Note_on_c, 7, 71, 0
1, 65827, Note_on_c, 7, 71, 100
1, 65827, Note_on_c, 7, 59, 0
1, 65827, Note_on_c, 7, 47, 0
1, 65837, Note_on_c, 7, 75, 0
1, 65837, Note_on_c, 7, 76, 100
1, 65847, Note_on_c, 7, 76, 0
1, 65847, Note_on_c, 7, 75, 100
1, 65857, Note_on_c, 3, 54, 0
1, 65857, Note_on_c, 3, 59, 127
1, 65857, Note_on_c, 7, 75, 0
1, 65857, Note_on_c, 7, 73, 100
1, 65872, Note_on_c, 7, 73, 0
1, 65872, Note_on_c, 7, 75, 100
1, 65887, Note_on_c, 3, 59, 0
1, 65887, Note_on_c, 3, 52, 127
1, 65887, Note_on_c, 7, 75, 0
1, 65887, Note_on_c, 7, 76, 100
1, 65887, Note_on_c, 7, 64, 100
1, 65887, Note_on_c, 7, 52, 100
1, 65917, Note_on_c, 3, 52, 0
1, 65917, Note_on_c, 3, 59, 127
1, 65947, Note_on_c, 3, 59, 0
1, 65947, Note_on_c, 3, 56, 127
1, 65947, Note_on_c, 7, 80, 100
1, 65947, Note_on_c, 7, 76, 0
1, 65947, Note_on_c, 7, 71, 0
1, 65947, Note_on_c, 7, 71, 100
1, 65947, Note_on_c, 7, 64, 0
1, 65947, Note_on_c, 7, 52, 0
1, 65957, Note_on_c, 7, 80, 0
1, 65957, Note_on_c, 7, 81, 100
1, 65967, Note_on_c, 7, 81, 0
1, 65967, Note_on_c, 7, 80, 100
1, 65977, Note_on_c, 3, 56, 0
1, 65977, Note_on_c, 3, 59, 127
1, 65977, Note_on_c, 7, 80, 0
1, 65977, Note_on_c, 7, 78, 100
1, 65992, Note_on_c, 7, 78, 0
1, 65992, Note_on_c, 7, 80, 100
1, 66007, Note_on_c, 3, 59, 0
1, 66007, Note_on_c, 3, 47, 127
1, 66007, Note_on_c, 7, 80, 0
1, 66007, Note_on_c, 7, 81, 100
1, 66007, Note_on_c, 7, 59, 100
1, 66007, Note_on_c, 7, 47, 100
1, 66037, Note_on_c, 3, 47, 0
1, 66037, Note_on_c, 3, 59, 127
1, 66067, Note_on_c, 3, 59, 0
1, 66067, Note_on_c, 3, 54, 127
1, 66067, Note_on_c, 7, 81, 0
1, 66067, Note_on_c, 7, 75, 100
1, 66067, Note_on_c, 7, 71, 0
1, 66067, Note_on_c, 7, 71, 100
1, 66067, Note_on_c, 7, 59, 0
1, 66067, Note_on_c, 7, 47, 0
1, 66077, Note_on_c, 7, 75, 0
1, 66077, Note_on_c, 7, 76, 100
1, 66087, Note_on_c, 7, 76, 0
1, 66087, Note_on_c, 7, 75, 100
1, 66097, Note_on_c, 3, 54, 0
1, 66097, Note_on_c, 3, 59, 127
1, 66097, Note_on_c, 7, 75, 0
1, 66097, Note_on_c, 7, 73, 100
1, 66112, Note_on_c, 7, 73, 0
1, 66112, Note_on_c, 7, 75, 100
1, 66127, Note_on_c, 3, 59, 0
1, 66127, Note_on_c, 3, 52, 127
1, 66127, Note_on_c, 7, 75, 0
1, 66127, Note_on_c, 7, 76, 100
1, 66127, Note_on_c, 7, 64, 100
1, 66127, Note_on_c, 7, 52, 100
1, 66157, Note_on_c, 3, 52, 0
1, 66157, Note_on_c, 3, 59, 127
1, 66187, Note_on_c, 3, 59, 0
1, 66187, Note_on_c, 3, 56, 127
1, 66187, Note_on_c, 7, 80, 100
1, 66187, Note_on_c, 7, 76, 0
1, 66187, Note_on_c, 7, 71, 0
1, 66187, Note_on_c, 7, 71, 100
1, 66187, Note_on_c, 7, 64, 0
1, 66187, Note_on_c, 7, 52, 0
1, 66197, Note_on_c, 7, 80, 0
1, 66197, Note_on_c, 7, 81, 100
1, 66207, Note_on_c, 7, 81, 0
1, 66207, Note_on_c, 7, 80, 100
1, 66217, Note_on_c, 3, 56, 0
1, 66217, Note_on_c, 3, 59, 127
1, 66217, Note_on_c, 7, 80, 0
1, 66217, Note_on_c, 7, 78, 100
1, 66232, Note_on_c, 7, 78, 0
1, 66232, Note_on_c, 7, 80, 100
1, 66247, Note_on_c, 3, 59, 0
1, 66247, Note_on_c, 3, 47, 127
1, 66247, Note_on_c, 7, 80, 0
1, 66247, Note_on_c, 7, 81, 100
1, 66247, Note_on_c, 7, 59, 100
1, 66247, Note_on_c, 7, 47, 100
1, 66277, Note_on_c, 3, 47, 0
1, 66277, Note_on_c, 3, 59, 127
1, 66307, Note_on_c, 3, 59, 0
1, 66307, Note_on_c, 3, 54, 127
1, 66307, Note_on_c, 7, 81, 0
1, 66307, Note_on_c, 7, 75, 100
1, 66307, Note_on_c, 7, 71, 0
1, 66307, Note_on_c, 7, 71, 100
1, 66307, Note_on_c, 7, 59, 0
1, 66307, Note_on_c, 7, 47, 0
1, 66317, Note_on_c, 7, 75, 0
1, 66317, Note_on_c, 7, 76, 100
1, 66327, Note_on_c, 7, 76, 0
1, 66327, Note_on_c, 7, 75, 100
1, 66337, Note_on_c, 3, 54, 0
1, 66337, Note_on_c, 3, 59, 127
1, 66337, Note_on_c, 7, 75, 0
1, 66337, Note_on_c, 7, 73, 100
1, 66352, Note_on_c, 7, 73, 0
1, 66352, Note_on_c, 7, 75, 100
1, 66367, Note_on_c, 3, 59, 0
1, 66367, Note_on_c, 3, 52, 127
1, 66367, Note_on_c, 7, 75, 0
1, 66367, Note_on_c, 7, 76, 100
1, 66367, Note_on_c, 7, 71, 0
1, 66367, Note_on_c, 7, 71, 100
1, 66367, Note_on_c, 7, 64, 100
1, 66367, Note_on_c, 7, 52, 100
1, 66397, Note_on_c, 3, 52, 0
1, 66397, Note_on_c, 3, 56, 127
1, 66427, Note_on_c, 3, 56, 0
1, 66427, Note_on_c, 3, 59, 127
1, 66427, Note_on_c, 7, 76, 0
1, 66427, Note_on_c, 7, 68, 100
1, 66457, Note_on_c, 3, 59, 0
1, 66457, Note_on_c, 3, 64, 127
1, 66457, Note_on_c, 7, 68, 0
1, 66487, Note_on_c, 3, 64, 0
1, 66487, Note_on_c, 3, 68, 127
1, 66487, Note_on_c, 7, 68, 100
1, 66487, Note_on_c, 7, 52, 0
1, 66517, Note_on_c, 3, 68, 0
1, 66517, Note_on_c, 3, 64, 127
1, 66517, Note_on_c, 7, 71, 0
1, 66517, Note_on_c, 7, 68, 0
1, 66547, Note_on_c, 3, 64, 0
1, 66547, Note_on_c, 3, 59, 127
1, 66547, Note_on_c, 7, 71, 100
1, 66547, Note_on_c, 7, 68, 100
1, 66577, Note_on_c, 3, 59, 0
1, 66577, Note_on_c, 3, 56, 127
1, 66577, Note_on_c, 7, 71, 0
1, 66577, Note_on_c, 7, 68, 0
1, 66607, Note_on_c, 3, 56, 0
1, 66607, Note_on_c, 3, 52, 127
1, 66607, Note_on_c, 7, 71, 100
1, 66607, Note_on_c, 7, 68, 100
1, 66607, Note_on_c, 7, 64, 0
1, 66607, Note_on_c, 7, 52, 100
1, 66607, Note_on_c, 7, 40, 100
1, 66637, Note_on_c, 3, 52, 0
1, 66637, Note_on_c, 3, 56, 127
1, 66667, Note_on_c, 3, 56, 0
1, 66667, Note_on_c, 3, 59, 127
1, 66697, Note_on_c, 3, 59, 0
1, 66697, Note_on_c, 3, 64, 127
1, 66727, Note_on_c, 3, 64, 0
1, 66727, Note_on_c, 3, 68, 127
1, 66727, Note_on_c, 7, 64, 100
1, 66727, Note_on_c, 7, 52, 0
1, 66727, Note_on_c, 7, 40, 0
1, 66757, Note_on_c, 3, 68, 0
1, 66757, Note_on_c, 3, 64, 127
1, 66787, Note_on_c, 3, 64, 0
1, 66787, Note_on_c, 3, 59, 127
1, 66787, Note_on_c, 7, 71, 0
1, 66787, Note_on_c, 7, 76, 100
1, 66817, Note_on_c, 3, 59, 0
1, 66817, Note_on_c, 3, 56, 127
1, 66847, Note_on_c, 3, 56, 0
1, 66847, Note_on_c, 3, 45, 127
1, 66847, Note_on_c, 7, 76, 0
1, 66847, Note_on_c, 7, 76, 100
1, 66847, Note_on_c, 7, 68, 0
1, 66847, Note_on_c, 7, 73, 100
1, 66847, Note_on_c, 7, 64, 0
1, 66847, Note_on_c, 7, 57, 100
1, 66847, Note_on_c, 7, 45, 100
1, 66877, Note_on_c, 3, 45, 0
1, 66877, Note_on_c, 3, 49, 127
1, 66907, Note_on_c, 3, 49, 0
1, 66907, Note_on_c, 3, 52, 127
1, 66907, Note_on_c, 7, 76, 0
1, 66907, Note_on_c, 7, 69, 100
1, 66937, Note_on_c, 3, 52, 0
1, 66937, Note_on_c, 3, 57, 127
1, 66967, Note_on_c, 3, 57, 0
1, 66967, Note_on_c, 3, 61, 127
1, 66967, Note_on_c, 7, 73, 0
1, 66967, Note_on_c, 7, 73, 100
1, 66967, Note_on_c, 7, 69, 0
1, 66967, Note_on_c, 7, 69, 100
1, 66967, Note_on_c, 7, 45, 0
1, 66997, Note_on_c, 3, 61, 0
1, 66997, Note_on_c, 3, 57, 127
1, 66997, Note_on_c, 7, 73, 0
1, 66997, Note_on_c, 7, 69, 0
1, 67027, Note_on_c, 3, 57, 0
1, 67027, Note_on_c, 3, 52, 127
1, 67027, Note_on_c, 7, 73, 100
1, 67027, Note_on_c, 7, 69, 100
1, 67057, Note_on_c, 3, 52, 0
1, 67057, Note_on_c, 3, 49, 127
1, 67057, Note_on_c, 7, 73, 0
1, 67057, Note_on_c, 7, 69, 0
1, 67087, Note_on_c, 3, 49, 0
1, 67087, Note_on_c, 3, 45, 127
1, 67087, Note_on_c, 7, 73, 100
1, 67087, Note_on_c, 7, 69, 100
1, 67087, Note_on_c, 7, 57, 0
1, 67087, Note_on_c, 7, 45, 100
1, 67087, Note_on_c, 7, 33, 100
1, 67117, Note_on_c, 3, 45, 0
1, 67117, Note_on_c, 3, 49, 127
1, 67147, Note_on_c, 3, 49, 0
1, 67147, Note_on_c, 3, 52, 127
1, 67177, Note_on_c, 3, 52, 0
1, 67177, Note_on_c, 3, 57, 127
1, 67207, Note_on_c, 3, 57, 0
1, 67207, Note_on_c, 3, 61, 127
1, 67207, Note_on_c, 7, 57, 100
1, 67207, Note_on_c, 7, 45, 0
1, 67207, Note_on_c, 7, 33, 0
1, 67237, Note_on_c, 3, 61, 0
1, 67237, Note_on_c, 3, 57, 127
1, 67267, Note_on_c, 3, 57, 0
1, 67267, Note_on_c, 3, 52, 127
1, 67267, Note_on_c, 7, 73, 0
1, 67267, Note_on_c, 7, 76, 100
1, 67267, Note_on_c, 7, 69, 0
1, 67267, Note_on_c, 7, 73, 100
1, 67297, Note_on_c, 3, 52, 0
1, 67297, Note_on_c, 3, 49, 127
1, 67327, Note_on_c, 3, 49, 0
1, 67327, Note_on_c, 3, 47, 127
1, 67327, Note_on_c, 7, 76, 0
1, 67327, Note_on_c, 7, 76, 100
1, 67327, Note_on_c, 7, 73, 0
1, 67327, Note_on_c, 7, 68, 100
1, 67327, Note_on_c, 7, 57, 0
1, 67327, Note_on_c, 7, 59, 100
1, 67327, Note_on_c, 7, 47, 100
1, 67357, Note_on_c, 3, 47, 0
1, 67357, Note_on_c, 3, 52, 127
1, 67387, Note_on_c, 3, 52, 0
1, 67387, Note_on_c, 3, 56, 127
1, 67387, Note_on_c, 7, 76, 0
1, 67387, Note_on_c, 7, 71, 100
1, 67417, Note_on_c, 3, 56, 0
1, 67417, Note_on_c, 3, 59, 127
1, 67447, Note_on_c, 3, 59, 0
1, 67447, Note_on_c, 3, 64, 127
1, 67447, Note_on_c, 7, 71, 0
1, 67447, Note_on_c, 7, 64, 100
1, 67447, Note_on_c, 7, 47, 0
1, 67477, Note_on_c, 3, 64, 0
1, 67477, Note_on_c, 3, 59, 127
1, 67507, Note_on_c, 3, 59, 0
1, 67507, Note_on_c, 3, 56, 127
1, 67507, Note_on_c, 7, 68, 0
1, 67507, Note_on_c, 7, 71, 100
1, 67507, Note_on_c, 7, 64, 0
1, 67507, Note_on_c, 7, 68, 100
1, 67537, Note_on_c, 3, 56, 0
1, 67537, Note_on_c, 3, 52, 127
1, 67567, Note_on_c, 3, 52, 0
1, 67567, Note_on_c, 3, 47, 127
1, 67567, Note_on_c, 7, 71, 0
1, 67567, Note_on_c, 7, 71, 100
1, 67567, Note_on_c, 7, 68, 0
1, 67567, Note_on_c, 7, 68, 100
1, 67567, Note_on_c, 7, 59, 0
1, 67567, Note_on_c, 7, 47, 100
1, 67567, Note_on_c, 7, 35, 100
1, 67627, Note_on_c, 7, 71, 0
1, 67627, Note_on_c, 7, 69, 100
1, 67627, Note_on_c, 7, 68, 0
1, 67627, Note_on_c, 7, 66, 100
1, 67687, Note_on_c, 3, 47, 0
1, 67687, Note_on_c, 7, 69, 0
1, 67687, Note_on_c, 7, 68, 100
1, 67687, Note_on_c, 7, 66, 0
1, 67687, Note_on_c, 7, 64, 100
1, 67687, Note_on_c, 7, 59, 100
1, 67687, Note_on_c, 7, 47, 0
1, 67687, Note_on_c, 7, 35, 0
1, 67747, Note_on_c, 7, 68, 0
1, 67747, Note_on_c, 7, 66, 100
1, 67747, Note_on_c, 7, 64, 0
1, 67747, Note_on_c, 7, 63, 100
1, 67807, Note_on_c, 3, 52, 127
1, 67807, Note_on_c, 7, 66, 0
1, 67807, Note_on_c, 7, 64, 100
1, 67807, Note_on_c, 7, 63, 0
1, 67807, Note_on_c, 7, 59, 0
1, 67807, Note_on_c, 7, 56, 100
1, 67807, Note_on_c, 7, 52, 100
1, 67807, Note_on_c, 7, 40, 100
1, 67867, Note_on_c, 3, 52, 0
1, 67867, Note_on_c, 3, 54, 127
1, 67882, Note_on_c, 3, 54, 0
1, 67897, Note_on_c, 3, 56, 127
1, 67912, Note_on_c, 3, 56, 0
1, 67927, Note_on_c, 3, 57, 127
1, 67927, Note_on_c, 7, 64, 0
1, 67927, Note_on_c, 7, 56, 0
1, 67927, Note_on_c, 7, 52, 0
1, 67927, Note_on_c, 7, 40, 0
1, 67942, Note_on_c, 3, 57, 0
1, 67957, Note_on_c, 3, 59, 127
1, 67972, Note_on_c, 3, 59, 0
1, 67987, Note_on_c, 3, 61, 127
1, 68002, Note_on_c, 3, 61, 0
1, 68017, Note_on_c, 3, 63, 127
1, 68032, Note_on_c, 3, 63, 0
1, 68047, Note_on_c, 3, 64, 127
1, 68107, Note_on_c, 3, 64, 0
1, 68107, Note_on_c, 3, 66, 127
1, 68122, Note_on_c, 3, 66, 0
1, 68137, Note_on_c, 3, 68, 127
1, 68152, Note_on_c, 3, 68, 0
1, 68167, Note_on_c, 3, 69, 127
1, 68182, Note_on_c, 3, 69, 0
1, 68197, Note_on_c, 3, 71, 127
1, 68212, Note_on_c, 3, 71, 0
1, 68227, Note_on_c, 3, 73, 127
1, 68242, Note_on_c, 3, 73, 0
1, 68257, Note_on_c, 3, 75, 127
1, 68272, Note_on_c, 3, 75, 0
1, 68287, Note_on_c, 3, 76, 127
1, 68287, Note_on_c, 7, 62, 100
1, 68287, Note_on_c, 7, 59, 100
1, 68287, Note_on_c, 7, 52, 100
1, 68287, Note_on_c, 7, 56, 100
1, 68287, Note_on_c, 7, 44, 100
1, 68317, Note_on_c, 3, 76, 0
1, 68317, Note_on_c, 3, 78, 127
1, 68347, Note_on_c, 3, 78, 0
1, 68347, Note_on_c, 3, 80, 127
1, 68377, Note_on_c, 3, 80, 0
1, 68377, Note_on_c, 3, 81, 127
1, 68407, Note_on_c, 3, 81, 0
1, 68407, Note_on_c, 3, 83, 127
1, 68437, Note_on_c, 3, 83, 0
1, 68437, Note_on_c, 3, 85, 127
1, 68467, Note_on_c, 3, 85, 0
1, 68467, Note_on_c, 3, 86, 127
1, 68497, Note_on_c, 3, 86, 0
1, 68497, Note_on_c, 3, 85, 127
1, 68527, Note_on_c, 3, 85, 0
1, 68527, Note_on_c, 3, 83, 127
1, 68557, Note_on_c, 3, 83, 0
1, 68557, Note_on_c, 3, 81, 127
1, 68587, Note_on_c, 3, 81, 0
1, 68587, Note_on_c, 3, 80, 127
1, 68617, Note_on_c, 3, 80, 0
1, 68617, Note_on_c, 3, 78, 127
1, 68647, Note_on_c, 3, 78, 0
1, 68647, Note_on_c, 3, 76, 127
1, 68677, Note_on_c, 3, 76, 0
1, 68677, Note_on_c, 3, 75, 127
1, 68707, Note_on_c, 3, 75, 0
1, 68707, Note_on_c, 3, 76, 127
1, 68737, Note_on_c, 3, 76, 0
1, 68737, Note_on_c, 3, 74, 127
1, 68767, Note_on_c, 3, 74, 0
1, 68767, Note_on_c, 3, 73, 127
1, 68767, Note_on_c, 7, 62, 0
1, 68767, Note_on_c, 7, 61, 100
1, 68767, Note_on_c, 7, 59, 0
1, 68767, Note_on_c, 7, 57, 100
1, 68767, Note_on_c, 7, 56, 0
1, 68767, Note_on_c, 7, 44, 0
1, 68767, Note_on_c, 7, 45, 100
1, 68797, Note_on_c, 3, 73, 0
1, 68797, Note_on_c, 3, 76, 127
1, 68827, Note_on_c, 3, 76, 0
1, 68827, Note_on_c, 3, 73, 127
1, 68827, Note_on_c, 7, 52, 0
1, 68827, Note_on_c, 7, 64, 100
1, 68827, Note_on_c, 7, 45, 0
1, 68857, Note_on_c, 3, 73, 0
1, 68857, Note_on_c, 3, 69, 127
1, 68857, Note_on_c, 7, 64, 0
1, 68887, Note_on_c, 3, 69, 0
1, 68887, Note_on_c, 3, 68, 127
1, 68887, Note_on_c, 7, 61, 0
1, 68887, Note_on_c, 7, 57, 0
1, 68887, Note_on_c, 7, 64, 100
1, 68887, Note_on_c, 7, 52, 100
1, 68917, Note_on_c, 3, 68, 0
1, 68917, Note_on_c, 3, 71, 127
1, 68947, Note_on_c, 3, 71, 0
1, 68947, Note_on_c, 3, 68, 127
1, 68947, Note_on_c, 7, 74, 100
1, 68947, Note_on_c, 7, 71, 100
1, 68947, Note_on_c, 7, 52, 0
1, 68957, Note_on_c, 7, 74, 0
1, 68957, Note_on_c, 7, 76, 100
1, 68957, Note_on_c, 7, 71, 0
1, 68957, Note_on_c, 7, 73, 100
1, 68967, Note_on_c, 7, 76, 0
1, 68967, Note_on_c, 7, 74, 100
1, 68967, Note_on_c, 7, 73, 0
1, 68967, Note_on_c, 7, 71, 100
1, 68977, Note_on_c, 3, 68, 0
1, 68977, Note_on_c, 3, 64, 127
1, 68977, Note_on_c, 7, 74, 0
1, 68977, Note_on_c, 7, 73, 100
1, 68977, Note_on_c, 7, 71, 0
1, 68977, Note_on_c, 7, 69, 100
1, 68992, Note_on_c, 7, 73, 0
1, 68992, Note_on_c, 7, 74, 100
1, 68992, Note_on_c, 7, 69, 0
1, 68992, Note_on_c, 7, 71, 100
1, 69007, Note_on_c, 3, 64, 0
1, 69007, Note_on_c, 3, 73, 127
1, 69007, Note_on_c, 7, 74, 0
1, 69007, Note_on_c, 7, 73, 100
1, 69007, Note_on_c, 7, 71, 0
1, 69007, Note_on_c, 7, 69, 100
1, 69007, Note_on_c, 7, 57, 100
1, 69007, Note_on_c, 7, 45, 100
1, 69037, Note_on_c, 3, 73, 0
1, 69037, Note_on_c, 3, 76, 127
1, 69037, Note_on_c, 7, 73, 0
1, 69037, Note_on_c, 7, 69, 0
1, 69067, Note_on_c, 3, 76, 0
1, 69067, Note_on_c, 3, 73, 127
1, 69067, Note_on_c, 7, 73, 100
1, 69067, Note_on_c, 7, 69, 100
1, 69067, Note_on_c, 7, 57, 0
1, 69067, Note_on_c, 7, 45, 0
1, 69097, Note_on_c, 3, 73, 0
1, 69097, Note_on_c, 3, 69, 127
1, 69097, Note_on_c, 7, 73, 0
1, 69097, Note_on_c, 7, 69, 0
1, 69127, Note_on_c, 3, 69, 0
1, 69127, Note_on_c, 3, 68, 127
1, 69127, Note_on_c, 7, 74, 100
1, 69127, Note_on_c, 7, 71, 100
1, 69127, Note_on_c, 7, 52, 100
1, 69157, Note_on_c, 3, 68, 0
1, 69157, Note_on_c, 3, 71, 127
1, 69157, Note_on_c, 7, 74, 0
1, 69157, Note_on_c, 7, 71, 0
1, 69187, Note_on_c, 3, 71, 0
1, 69187, Note_on_c, 3, 68, 127
1, 69187, Note_on_c, 7, 74, 100
1, 69187, Note_on_c, 7, 71, 100
1, 69187, Note_on_c, 7, 52, 0
1, 69217, Note_on_c, 3, 68, 0
1, 69217, Note_on_c, 3, 64, 127
1, 69217, Note_on_c, 7, 74, 0
1, 69217, Note_on_c, 7, 71, 0
1, 69247, Note_on_c, 3, 64, 0
1, 69247, Note_on_c, 3, 61, 127
1, 69247, Note_on_c, 7, 73, 100
1, 69247, Note_on_c, 7, 69, 100
1, 69247, Note_on_c, 7, 57, 100
1, 69247, Note_on_c, 7, 45, 100
1, 69277, Note_on_c, 3, 61, 0
1, 69277, Note_on_c, 3, 64, 127
1, 69307, Note_on_c, 3, 64, 0
1, 69307, Note_on_c, 3, 61, 127
1, 69307, Note_on_c, 7, 64, 0
1, 69307, Note_on_c, 7, 52, 100
1, 69307, Note_on_c, 7, 57, 0
1, 69307, Note_on_c, 7, 45, 0
1, 69337, Note_on_c, 3, 61, 0
1, 69337, Note_on_c, 3, 57, 127
1, 69337, Note_on_c, 7, 52, 0
1, 69367, Note_on_c, 3, 57, 0
1, 69367, Note_on_c, 3, 56, 127
1, 69367, Note_on_c, 7, 73, 0
1, 69367, Note_on_c, 7, 69, 0
1, 69367, Note_on_c, 7, 52, 100
1, 69367, Note_on_c, 7, 40, 100
1, 69397, Note_on_c, 3, 56, 0
1, 69397, Note_on_c, 3, 59, 127
1, 69427, Note_on_c, 3, 59, 0
1, 69427, Note_on_c, 3, 56, 127
1, 69427, Note_on_c, 7, 62, 100
1, 69427, Note_on_c, 7, 59, 100
1, 69427, Note_on_c, 7, 40, 0
1, 69437, Note_on_c, 7, 62, 0
1, 69437, Note_on_c, 7, 64, 100
1, 69437, Note_on_c, 7, 59, 0
1, 69437, Note_on_c, 7, 61, 100
1, 69447, Note_on_c, 7, 64, 0
1, 69447, Note_on_c, 7, 62, 100
1, 69447, Note_on_c, 7, 61, 0
1, 69447, Note_on_c, 7, 71, 100
1, 69457, Note_on_c, 3, 56, 0
1, 69457, Note_on_c, 3, 52, 127
1, 69457, Note_on_c, 7, 62, 0
1, 69457, Note_on_c, 7, 61, 100
1, 69457, Note_on_c, 7, 71, 0
1, 69457, Note_on_c, 7, 57, 100
1, 69472, Note_on_c, 7, 61, 0
1, 69472, Note_on_c, 7, 62, 100
1, 69472, Note_on_c, 7, 57, 0
1, 69472, Note_on_c, 7, 59, 100
1, 69487, Note_on_c, 3, 52, 0
1, 69487, Note_on_c, 3, 61, 127
1, 69487, Note_on_c, 7, 62, 0
1, 69487, Note_on_c, 7, 61, 100
1, 69487, Note_on_c, 7, 59, 0
1, 69487, Note_on_c, 7, 57, 100
1, 69487, Note_on_c, 7, 45, 100
1, 69517, Note_on_c, 3, 61, 0
1, 69517, Note_on_c, 3, 64, 127
1, 69517, Note_on_c, 7, 61, 0
1, 69547, Note_on_c, 3, 64, 0
1, 69547, Note_on_c, 3, 61, 127
1, 69547, Note_on_c, 7, 61, 100
1, 69547, Note_on_c, 7, 45, 0
1, 69577, Note_on_c, 3, 61, 0
1, 69577, Note_on_c, 3, 57, 127
1, 69577, Note_on_c, 7, 61, 0
1, 69577, Note_on_c, 7, 57, 0
1, 69607, Note_on_c, 3, 57, 0
1, 69607, Note_on_c, 3, 56, 127
1, 69607, Note_on_c, 7, 62, 100
1, 69607, Note_on_c, 7, 59, 100
1, 69607, Note_on_c, 7, 40, 100
1, 69637, Note_on_c, 3, 56, 0
1, 69637, Note_on_c, 3, 59, 127
1, 69637, Note_on_c, 7, 62, 0
1, 69637, Note_on_c, 7, 59, 0
1, 69667, Note_on_c, 3, 59, 0
1, 69667, Note_on_c, 3, 56, 127
1, 69667, Note_on_c, 7, 62, 100
1, 69667, Note_on_c, 7, 59, 100
1, 69667, Note_on_c, 7, 40, 0
1, 69697, Note_on_c, 3, 56, 0
1, 69697, Note_on_c, 3, 52, 127
1, 69697, Note_on_c, 7, 62, 0
1, 69697, Note_on_c, 7, 59, 0
1, 69727, Note_on_c, 3, 52, 0
1, 69727, Note_on_c, 3, 57, 127
1, 69727, Note_on_c, 7, 61, 100
1, 69727, Note_on_c, 7, 57, 100
1, 69727, Note_on_c, 7, 45, 100
1, 69757, Note_on_c, 3, 57, 0
1, 69757, Note_on_c, 3, 45, 127
1, 69787, Note_on_c, 3, 45, 0
1, 69787, Note_on_c, 3, 49, 127
1, 69817, Note_on_c, 3, 49, 0
1, 69817, Note_on_c, 3, 52, 127
1, 69847, Note_on_c, 3, 52, 0
1, 69847, Note_on_c, 3, 57, 127
1, 69847, Note_on_c, 7, 61, 0
1, 69847, Note_on_c, 7, 52, 0
1, 69847, Note_on_c, 7, 57, 0
1, 69847, Note_on_c, 7, 45, 0
1, 69877, Note_on_c, 3, 57, 0
1, 69877, Note_on_c, 3, 61, 127
1, 69907, Note_on_c, 3, 61, 0
1, 69907, Note_on_c, 3, 64, 127
1, 69937, Note_on_c, 3, 64, 0
1, 69937, Note_on_c, 3, 69, 127
1, 69967, Note_on_c, 3, 69, 0
1, 69967, Note_on_c, 3, 73, 127
1, 70027, Note_on_c, 7, 64, 100
1, 70027, Note_on_c, 7, 61, 100
1, 70027, Note_on_c, 7, 57, 100
1, 70027, Note_on_c, 7, 45, 100
1, 70087, Note_on_c, 3, 73, 0
1, 70087, Note_on_c, 7, 64, 0
1, 70087, Note_on_c, 7, 64, 100
1, 70087, Note_on_c, 7, 61, 0
1, 70087, Note_on_c, 7, 61, 100
1, 70087, Note_on_c, 7, 45, 0
1, 70087, Note_on_c, 7, 45, 100
1, 70147, Note_on_c, 7, 64, 0
1, 70147, Note_on_c, 7, 64, 100
1, 70147, Note_on_c, 7, 61, 0
1, 70147, Note_on_c, 7, 61, 100
1, 70147, Note_on_c, 7, 45, 0
1, 70147, Note_on_c, 7, 45, 100
1, 70207, Note_on_c, 3, 45, 127
1, 70207, Note_on_c, 7, 64, 0
1, 70207, Note_on_c, 7, 66, 100
1, 70207, Note_on_c, 7, 61, 0
1, 70207, Note_on_c, 7, 60, 100
1, 70207, Note_on_c, 7, 63, 100
1, 70207, Note_on_c, 7, 57, 0
1, 70207, Note_on_c, 7, 57, 100
1, 70207, Note_on_c, 7, 45, 0
1, 70207, Note_on_c, 7, 45, 100
1, 70237, Note_on_c, 3, 45, 0
1, 70237, Note_on_c, 3, 51, 127
1, 70267, Note_on_c, 3, 51, 0
1, 70267, Note_on_c, 3, 54, 127
1, 70297, Note_on_c, 3, 54, 0
1, 70297, Note_on_c, 3, 57, 127
1, 70327, Note_on_c, 3, 57, 0
1, 70327, Note_on_c, 3, 63, 127
1, 70327, Note_on_c, 7, 66, 0
1, 70327, Note_on_c, 7, 60, 0
1, 70327, Note_on_c, 7, 63, 0
1, 70327, Note_on_c, 7, 57, 0
1, 70327, Note_on_c, 7, 45, 0
1, 70357, Note_on_c, 3, 63, 0
1, 70357, Note_on_c, 3, 66, 127
1, 70387, Note_on_c, 3, 66, 0
1, 70387, Note_on_c, 3, 69, 127
1, 70417, Note_on_c, 3, 69, 0
1, 70417, Note_on_c, 3, 72, 127
1, 70447, Note_on_c, 3, 72, 0
1, 70447, Note_on_c, 3, 75, 127
1, 70507, Note_on_c, 7, 66, 100
1, 70507, Note_on_c, 7, 60, 100
1, 70507, Note_on_c, 7, 63, 100
1, 70507, Note_on_c, 7, 57, 100
1, 70507, Note_on_c, 7, 45, 100
1, 70567, Note_on_c, 3, 75, 0
1, 70567, Note_on_c, 7, 66, 0
1, 70567, Note_on_c, 7, 66, 100
1, 70567, Note_on_c, 7, 60, 0
1, 70567, Note_on_c, 7, 60, 100
1, 70567, Note_on_c, 7, 63, 0
1, 70567, Note_on_c, 7, 63, 100
1, 70567, Note_on_c, 7, 57, 0
1, 70567, Note_on_c, 7, 57, 100
1, 70567, Note_on_c, 7, 45, 0
1, 70567, Note_on_c, 7, 45, 100
1, 70627, Note_on_c, 7, 66, 0
1, 70627, Note_on_c, 7, 66, 100
1, 70627, Note_on_c, 7, 60, 0
1, 70627, Note_on_c, 7, 60, 100
1, 70627, Note_on_c, 7, 63, 0
1, 70627, Note_on_c, 7, 63, 100
1, 70627, Note_on_c, 7, 57, 0
1, 70627, Note_on_c, 7, 57, 100
1, 70627, Note_on_c, 7, 45, 0
1, 70627, Note_on_c, 7, 45, 100
1, 70687, Note_on_c, 3, 46, 127
1, 70687, Note_on_c, 7, 66, 0
1, 70687, Note_on_c, 7, 67, 100
1, 70687, Note_on_c, 7, 60, 0
1, 70687, Note_on_c, 7, 61, 100
1, 70687, Note_on_c, 7, 63, 0
1, 70687, Note_on_c, 7, 64, 100
1, 70687, Note_on_c, 7, 57, 0
1, 70687, Note_on_c, 7, 58, 100
1, 70687, Note_on_c, 7, 45, 0
1, 70687, Note_on_c, 7, 46, 100
1, 70717, Note_on_c, 3, 46, 0
1, 70717, Note_on_c, 3, 49, 127
1, 70747, Note_on_c, 3, 49, 0
1, 70747, Note_on_c, 3, 52, 127
1, 70777, Note_on_c, 3, 52, 0
1, 70777, Note_on_c, 3, 58, 127
1, 70807, Note_on_c, 3, 58, 0
1, 70807, Note_on_c, 3, 61, 127
1, 70807, Note_on_c, 7, 67, 0
1, 70807, Note_on_c, 7, 61, 0
1, 70807, Note_on_c, 7, 64, 0
1, 70807, Note_on_c, 7, 58, 0
1, 70807, Note_on_c, 7, 46, 0
1, 70837, Note_on_c, 3, 61, 0
1, 70837, Note_on_c, 3, 64, 127
1, 70867, Note_on_c, 3, 64, 0
1, 70867, Note_on_c, 3, 70, 127
1, 70897, Note_on_c, 3, 70, 0
1, 70897, Note_on_c, 3, 73, 127
1, 70927, Note_on_c, 3, 73, 0
1, 70927, Note_on_c, 3, 76, 127
1, 70987, Note_on_c, 7, 67, 100
1, 70987, Note_on_c, 7, 61, 100
1, 70987, Note_on_c, 7, 64, 100
1, 70987, Note_on_c, 7, 58, 100
1, 70987, Note_on_c, 7, 46, 100
1, 71047, Note_on_c, 3, 76, 0
1, 71047, Note_on_c, 7, 67, 0
1, 71047, Note_on_c, 7, 67, 100
1, 71047, Note_on_c, 7, 61, 0
1, 71047, Note_on_c, 7, 61, 100
1, 71047, Note_on_c, 7, 64, 0
1, 71047, Note_on_c, 7, 64, 100
1, 71047, Note_on_c, 7, 58, 0
1, 71047, Note_on_c, 7, 58, 100
1, 71047, Note_on_c, 7, 46, 0
1, 71047, Note_on_c, 7, 46, 100
1, 71107, Note_on_c, 7, 67, 0
1, 71107, Note_on_c, 7, 67, 100
1, 71107, Note_on_c, 7, 61, 0
1, 71107, Note_on_c, 7, 61, 100
1, 71107, Note_on_c, 7, 64, 0
1, 71107, Note_on_c, 7, 64, 100
1, 71107, Note_on_c, 7, 58, 0
1, 71107, Note_on_c, 7, 58, 100
1, 71107, Note_on_c, 7, 46, 0
1, 71107, Note_on_c, 7, 46, 100
1, 71167, Note_on_c, 3, 47, 127
1, 71167, Note_on_c, 7, 67, 0
1, 71167, Note_on_c, 7, 68, 100
1, 71167, Note_on_c, 7, 61, 0
1, 71167, Note_on_c, 7, 59, 100
1, 71167, Note_on_c, 7, 64, 0
1, 71167, Note_on_c, 7, 64, 100
1, 71167, Note_on_c, 7, 58, 0
1, 71167, Note_on_c, 7, 46, 0
1, 71167, Note_on_c, 7, 47, 100
1, 71197, Note_on_c, 3, 47, 0
1, 71197, Note_on_c, 3, 52, 127
1, 71227, Note_on_c, 3, 52, 0
1, 71227, Note_on_c, 3, 51, 127
1, 71257, Note_on_c, 3, 51, 0
1, 71257, Note_on_c, 3, 54, 127
1, 71287, Note_on_c, 3, 54, 0
1, 71287, Note_on_c, 3, 52, 127
1, 71287, Note_on_c, 7, 68, 0
1, 71287, Note_on_c, 7, 64, 0
1, 71287, Note_on_c, 7, 59, 0
1, 71287, Note_on_c, 7, 47, 0
1, 71317, Note_on_c, 3, 52, 0
1, 71317, Note_on_c, 3, 56, 127
1, 71347, Note_on_c, 3, 56, 0
1, 71347, Note_on_c, 3, 54, 127
1, 71377, Note_on_c, 3, 54, 0
1, 71377, Note_on_c, 3, 57, 127
1, 71407, Note_on_c, 3, 57, 0
1, 71407, Note_on_c, 3, 56, 127
1, 71437, Note_on_c, 3, 56, 0
1, 71437, Note_on_c, 3, 59, 127
1, 71467, Note_on_c, 3, 59, 0
1, 71467, Note_on_c, 3, 57, 127
1, 71497, Note_on_c, 3, 57, 0
1, 71497, Note_on_c, 3, 61, 127
1, 71527, Note_on_c, 3, 61, 0
1, 71527, Note_on_c, 3, 59, 127
1, 71557, Note_on_c, 3, 59, 0
1, 71557, Note_on_c, 3, 64, 127
1, 71587, Note_on_c, 3, 64, 0
1, 71587, Note_on_c, 3, 63, 127
1, 71587, Note_on_c, 7, 63, 100
1, 71587, Note_on_c, 7, 59, 100
1, 71617, Note_on_c, 3, 63, 0
1, 71617, Note_on_c, 3, 66, 127
1, 71617, Note_on_c, 7, 63, 0
1, 71617, Note_on_c, 7, 59, 0
1, 71647, Note_on_c, 3, 66, 0
1, 71647, Note_on_c, 3, 64, 127
1, 71647, Note_on_c, 7, 64, 100
1, 71647, Note_on_c, 7, 56, 100
1, 71677, Note_on_c, 3, 64, 0
1, 71677, Note_on_c, 3, 68, 127
1, 71677, Note_on_c, 7, 64, 0
1, 71677, Note_on_c, 7, 56, 0
1, 71707, Note_on_c, 3, 68, 0
1, 71707, Note_on_c, 3, 66, 127
1, 71707, Note_on_c, 7, 66, 100
1, 71707, Note_on_c, 7, 63, 100
1, 71737, Note_on_c, 3, 66, 0
1, 71737, Note_on_c, 3, 69, 127
1, 71737, Note_on_c, 7, 66, 0
1, 71737, Note_on_c, 7, 63, 0
1, 71767, Note_on_c, 3, 69, 0
1, 71767, Note_on_c, 3, 68, 127
1, 71767, Note_on_c, 7, 68, 100
1, 71767, Note_on_c, 7, 64, 100
1, 71797, Note_on_c, 3, 68, 0
1, 71797, Note_on_c, 3, 71, 127
1, 71797, Note_on_c, 7, 68, 0
1, 71797, Note_on_c, 7, 64, 0
1, 71827, Note_on_c, 3, 71, 0
1, 71827, Note_on_c, 3, 69, 127
1, 71827, Note_on_c, 7, 69, 100
1, 71827, Note_on_c, 7, 66, 100
1, 71857, Note_on_c, 3, 69, 0
1, 71857, Note_on_c, 3, 73, 127
1, 71857, Note_on_c, 7, 69, 0
1, 71857, Note_on_c, 7, 66, 0
1, 71887, Note_on_c, 3, 73, 0
1, 71887, Note_on_c, 3, 71, 127
1, 71887, Note_on_c, 7, 71, 100
1, 71887, Note_on_c, 7, 68, 100
1, 71917, Note_on_c, 3, 71, 0
1, 71917, Note_on_c, 3, 76, 127
1, 71917, Note_on_c, 7, 71, 0
1, 71917, Note_on_c, 7, 68, 0
1, 71947, Note_on_c, 3, 76, 0
1, 71947, Note_on_c, 3, 75, 127
1, 71947, Note_on_c, 7, 75, 100
1, 71947, Note_on_c, 7, 66, 100
1, 71977, Note_on_c, 3, 75, 0
1, 71977, Note_on_c, 3, 78, 127
1, 71977, Note_on_c, 7, 75, 0
1, 71977, Note_on_c, 7, 66, 0
1, 72007, Note_on_c, 3, 78, 0
1, 72007, Note_on_c, 3, 76, 127
1, 72007, Note_on_c, 7, 76, 100
1, 72007, Note_on_c, 7, 68, 100
1, 72037, Note_on_c, 3, 76, 0
1, 72037, Note_on_c, 3, 80, 127
1, 72037, Note_on_c, 7, 76, 0
1, 72037, Note_on_c, 7, 68, 0
1, 72067, Note_on_c, 3, 80, 0
1, 72067, Note_on_c, 3, 78, 127
1, 72067, Note_on_c, 7, 78, 100
1, 72067, Note_on_c, 7, 75, 100
1, 72097, Note_on_c, 3, 78, 0
1, 72097, Note_on_c, 3, 81, 127
1, 72097, Note_on_c, 7, 78, 0
1, 72097, Note_on_c, 7, 75, 0
1, 72127, Note_on_c, 3, 81, 0
1, 72127, Note_on_c, 3, 80, 127
1, 72127, Note_on_c, 7, 80, 100
1, 72127, Note_on_c, 7, 76, 100
1, 72127, Note_on_c, 7, 71, 100
1, 72157, Note_on_c, 3, 80, 0
1, 72187, Note_on_c, 3, 83, 127
1, 72217, Note_on_c, 3, 83, 0
1, 72217, Note_on_c, 3, 82, 127
1, 72247, Note_on_c, 3, 82, 0
1, 72247, Note_on_c, 3, 83, 127
1, 72247, Note_on_c, 7, 80, 0
1, 72247, Note_on_c, 7, 76, 0
1, 72247, Note_on_c, 7, 71, 0
1, 72277, Note_on_c, 3, 83, 0
1, 72277, Note_on_c, 3, 82, 127
1, 72307, Note_on_c, 3, 82, 0
1, 72307, Note_on_c, 3, 83, 127
1, 72337, Note_on_c, 3, 83, 0
1, 72337, Note_on_c, 3, 82, 127
1, 72367, Note_on_c, 3, 82, 0
1, 72367, Note_on_c, 3, 83, 127
1, 72367, Note_on_c, 7, 80, 100
1, 72367, Note_on_c, 7, 76, 100
1, 72367, Note_on_c, 7, 71, 100
1, 72397, Note_on_c, 3, 83, 0
1, 72427, Note_on_c, 3, 80, 127
1, 72457, Note_on_c, 3, 80, 0
1, 72457, Note_on_c, 3, 79, 127
1, 72487, Note_on_c, 3, 79, 0
1, 72487, Note_on_c, 3, 80, 127
1, 72487, Note_on_c, 7, 80, 0
1, 72487, Note_on_c, 7, 76, 0
1, 72487, Note_on_c, 7, 71, 0
1, 72517, Note_on_c, 3, 80, 0
1, 72517, Note_on_c, 3, 79, 127
1, 72547, Note_on_c, 3, 79, 0
1, 72547, Note_on_c, 3, 80, 127
1, 72577, Note_on_c, 3, 80, 0
1, 72577, Note_on_c, 3, 79, 127
1, 72607, Note_on_c, 3, 79, 0
1, 72607, Note_on_c, 3, 80, 127
1, 72607, Note_on_c, 7, 76, 100
1, 72607, Note_on_c, 7, 68, 100
1, 72607, Note_on_c, 7, 59, 100
1, 72637, Note_on_c, 3, 80, 0
1, 72667, Note_on_c, 3, 76, 127
1, 72697, Note_on_c, 3, 76, 0
1, 72697, Note_on_c, 3, 75, 127
1, 72727, Note_on_c, 3, 75, 0
1, 72727, Note_on_c, 3, 76, 127
1, 72727, Note_on_c, 7, 76, 0
1, 72727, Note_on_c, 7, 68, 0
1, 72727, Note_on_c, 7, 59, 0
1, 72757, Note_on_c, 3, 76, 0
1, 72757, Note_on_c, 3, 75, 127
1, 72787, Note_on_c, 3, 75, 0
1, 72787, Note_on_c, 3, 76, 127
1, 72817, Note_on_c, 3, 76, 0
1, 72817, Note_on_c, 3, 75, 127
1, 72847, Note_on_c, 3, 75, 0
1, 72847, Note_on_c, 3, 76, 127
1, 72847, Note_on_c, 7, 71, 100
1, 72847, Note_on_c, 7, 68, 100
1, 72847, Note_on_c, 7, 59, 100
1, 72877, Note_on_c, 3, 76, 0
1, 72907, Note_on_c, 3, 71, 127
1, 72937, Note_on_c, 3, 71, 0
1, 72937, Note_on_c, 3, 70, 127
1, 72967, Note_on_c, 3, 70, 0
1, 72967, Note_on_c, 3, 71, 127
1, 72967, Note_on_c, 7, 71, 0
1, 72967, Note_on_c, 7, 68, 0
1, 72967, Note_on_c, 7, 59, 0
1, 72997, Note_on_c, 3, 71, 0
1, 72997, Note_on_c, 3, 70, 127
1, 73027, Note_on_c, 3, 70, 0
1, 73027, Note_on_c, 3, 71, 127
1, 73057, Note_on_c, 3, 71, 0
1, 73057, Note_on_c, 3, 70, 127
1, 73087, Note_on_c, 3, 70, 0
1, 73087, Note_on_c, 3, 71, 127
1, 73087, Note_on_c, 7, 68, 100
1, 73087, Note_on_c, 7, 64, 100
1, 73087, Note_on_c, 7, 59, 100
1, 73087, Note_on_c, 7, 47, 100
1, 73087, Note_on_c, 7, 35, 100
1, 73127, Note_on_c, 3, 71, 0
1, 73127, Note_on_c, 3, 72, 127
1, 73147, Note_on_c, 3, 72, 0
1, 73147, Note_on_c, 7, 68, 0
1, 73147, Note_on_c, 7, 68, 100
1, 73147, Note_on_c, 7, 64, 0
1, 73147, Note_on_c, 7, 64, 100
1, 73147, Note_on_c, 7, 59, 0
1, 73147, Note_on_c, 7, 59, 100
1, 73167, Note_on_c, 3, 73, 127
1, 73187, Note_on_c, 3, 73, 0
1, 73207, Note_on_c, 3, 74, 127
1, 73207, Note_on_c, 7, 68, 0
1, 73207, Note_on_c, 7, 68, 100
1, 73207, Note_on_c, 7, 64, 0
1, 73207, Note_on_c, 7, 64, 100
1, 73207, Note_on_c, 7, 59, 0
1, 73207, Note_on_c, 7, 59, 100
1, 73207, Note_on_c, 7, 47, 0
1, 73207, Note_on_c, 7, 47, 100
1, 73207, Note_on_c, 7, 35, 0
1, 73207, Note_on_c, 7, 35, 100
1, 73227, Note_on_c, 3, 74, 0
1, 73247, Note_on_c, 3, 75, 127
1, 73267, Note_on_c, 3, 75, 0
1, 73267, Note_on_c, 7, 68, 0
1, 73267, Note_on_c, 7, 68, 100
1, 73267, Note_on_c, 7, 64, 0
1, 73267, Note_on_c, 7, 64, 100
1, 73267, Note_on_c, 7, 59, 0
1, 73267, Note_on_c, 7, 59, 100
1, 73287, Note_on_c, 3, 76, 127
1, 73307, Note_on_c, 3, 76, 0
1, 73327, Note_on_c, 3, 77, 127
1, 73327, Note_on_c, 7, 68, 0
1, 73327, Note_on_c, 7, 68, 100
1, 73327, Note_on_c, 7, 64, 0
1, 73327, Note_on_c, 7, 64, 100
1, 73327, Note_on_c, 7, 59, 0
1, 73327, Note_on_c, 7, 59, 100
1, 73327, Note_on_c, 7, 47, 0
1, 73327, Note_on_c, 7, 47, 100
1, 73327, Note_on_c, 7, 35, 0
1, 73327, Note_on_c, 7, 35, 100
1, 73347, Note_on_c, 3, 77, 0
1, 73367, Note_on_c, 3, 78, 127
1, 73387, Note_on_c, 3, 78, 0
1, 73387, Note_on_c, 7, 68, 0
1, 73387, Note_on_c, 7, 68, 100
1, 73387, Note_on_c, 7, 64, 0
1, 73387, Note_on_c, 7, 64, 100
1, 73387, Note_on_c, 7, 59, 0
1, 73387, Note_on_c, 7, 59, 100
1, 73407, Note_on_c, 3, 79, 127
1, 73427, Note_on_c, 3, 79, 0
1, 73447, Note_on_c, 3, 80, 127
1, 73447, Note_on_c, 7, 68, 0
1, 73447, Note_on_c, 7, 68, 100
1, 73447, Note_on_c, 7, 64, 0
1, 73447, Note_on_c, 7, 64, 100
1, 73447, Note_on_c, 7, 59, 0
1, 73447, Note_on_c, 7, 59, 100
1, 73447, Note_on_c, 7, 47, 0
1, 73447, Note_on_c, 7, 47, 100
1, 73447, Note_on_c, 7, 35, 0
1, 73447, Note_on_c, 7, 35, 100
1, 73477, Note_on_c, 3, 80, 0
1, 73477, Note_on_c, 3, 81, 127
1, 73507, Note_on_c, 3, 81, 0
1, 73507, Note_on_c, 3, 82, 127
1, 73507, Note_on_c, 7, 68, 0
1, 73507, Note_on_c, 7, 68, 100
1, 73507, Note_on_c, 7, 64, 0
1, 73507, Note_on_c, 7, 64, 100
1, 73507, Note_on_c, 7, 59, 0
1, 73507, Note_on_c, 7, 59, 100
1, 73537, Note_on_c, 3, 82, 0
1, 73537, Note_on_c, 3, 83, 127
1, 73567, Note_on_c, 3, 83, 0
1, 73567, Note_on_c, 3, 78, 127
1, 73567, Note_on_c, 7, 68, 0
1, 73567, Note_on_c, 7, 66, 100
1, 73567, Note_on_c, 7, 64, 0
1, 73567, Note_on_c, 7, 64, 100
1, 73567, Note_on_c, 7, 59, 0
1, 73567, Note_on_c, 7, 59, 100
1, 73567, Note_on_c, 7, 47, 0
1, 73567, Note_on_c, 7, 47, 100
1, 73567, Note_on_c, 7, 35, 0
1, 73567, Note_on_c, 7, 35, 100
1, 73582, Note_on_c, 3, 78, 0
1, 73582, Note_on_c, 3, 80, 127
1, 73597, Note_on_c, 3, 80, 0
1, 73597, Note_on_c, 3, 78, 127
1, 73597, Note_on_c, 7, 66, 0
1, 73597, Note_on_c, 7, 66, 100
1, 73597, Note_on_c, 7, 64, 0
1, 73597, Note_on_c, 7, 64, 100
1, 73597, Note_on_c, 7, 59, 0
1, 73597, Note_on_c, 7, 59, 100
1, 73612, Note_on_c, 3, 78, 0
1, 73612, Note_on_c, 3, 80, 127
1, 73627, Note_on_c, 3, 80, 0
1, 73627, Note_on_c, 3, 78, 127
1, 73627, Note_on_c, 7, 66, 0
1, 73627, Note_on_c, 7, 66, 100
1, 73627, Note_on_c, 7, 64, 0
1, 73627, Note_on_c, 7, 64, 100
1, 73627, Note_on_c, 7, 59, 0
1, 73627, Note_on_c, 7, 59, 100
1, 73627, Note_on_c, 7, 47, 0
1, 73627, Note_on_c, 7, 47, 100
1, 73627, Note_on_c, 7, 35, 0
1, 73627, Note_on_c, 7, 35, 100
1, 73642, Note_on_c, 3, 78, 0
1, 73642, Note_on_c, 3, 80, 127
1, 73657, Note_on_c, 3, 80, 0
1, 73657, Note_on_c, 3, 78, 127
1, 73657, Note_on_c, 7, 66, 0
1, 73657, Note_on_c, 7, 66, 100
1, 73657, Note_on_c, 7, 64, 0
1, 73657, Note_on_c, 7, 64, 100
1, 73657, Note_on_c, 7, 59, 0
1, 73657, Note_on_c, 7, 59, 100
1, 73672, Note_on_c, 3, 78, 0
1, 73672, Note_on_c, 3, 80, 127
1, 73687, Note_on_c, 3, 80, 0
1, 73687, Note_on_c, 3, 78, 127
1, 73687, Note_on_c, 7, 66, 0
1, 73687, Note_on_c, 7, 66, 100
1, 73687, Note_on_c, 7, 64, 0
1, 73687, Note_on_c, 7, 64, 100
1, 73687, Note_on_c, 7, 59, 0
1, 73687, Note_on_c, 7, 59, 100
1, 73687, Note_on_c, 7, 47, 0
1, 73687, Note_on_c, 7, 47, 100
1, 73687, Note_on_c, 7, 35, 0
1, 73687, Note_on_c, 7, 35, 100
1, 73702, Note_on_c, 3, 78, 0
1, 73702, Note_on_c, 3, 80, 127
1, 73717, Note_on_c, 3, 80, 0
1, 73717, Note_on_c, 3, 78, 127
1, 73717, Note_on_c, 7, 66, 0
1, 73717, Note_on_c, 7, 66, 100
1, 73717, Note_on_c, 7, 64, 0
1, 73717, Note_on_c, 7, 64, 100
1, 73717, Note_on_c, 7, 59, 0
1, 73717, Note_on_c, 7, 59, 100
1, 73732, Note_on_c, 3, 78, 0
1, 73732, Note_on_c, 3, 80, 127
1, 73747, Note_on_c, 3, 80, 0
1, 73747, Note_on_c, 3, 78, 127
1, 73747, Note_on_c, 7, 66, 0
1, 73747, Note_on_c, 7, 66, 100
1, 73747, Note_on_c, 7, 64, 0
1, 73747, Note_on_c, 7, 64, 100
1, 73747, Note_on_c, 7, 59, 0
1, 73747, Note_on_c, 7, 59, 100
1, 73747, Note_on_c, 7, 47, 0
1, 73747, Note_on_c, 7, 47, 100
1, 73747, Note_on_c, 7, 35, 0
1, 73747, Note_on_c, 7, 35, 100
1, 73762, Note_on_c, 3, 78, 0
1, 73762, Note_on_c, 3, 80, 127
1, 73777, Note_on_c, 3, 80, 0
1, 73777, Note_on_c, 3, 78, 127
1, 73777, Note_on_c, 7, 66, 0
1, 73777, Note_on_c, 7, 66, 100
1, 73777, Note_on_c, 7, 64, 0
1, 73777, Note_on_c, 7, 64, 100
1, 73777, Note_on_c, 7, 59, 0
1, 73777, Note_on_c, 7, 59, 100
1, 73792, Note_on_c, 3, 78, 0
1, 73792, Note_on_c, 3, 80, 127
1, 73807, Note_on_c, 3, 80, 0
1, 73807, Note_on_c, 3, 78, 127
1, 73807, Note_on_c, 7, 66, 0
1, 73807, Note_on_c, 7, 66, 100
1, 73807, Note_on_c, 7, 64, 0
1, 73807, Note_on_c, 7, 63, 100
1, 73807, Note_on_c, 7, 59, 0
1, 73807, Note_on_c, 7, 57, 100
1, 73807, Note_on_c, 7, 47, 0
1, 73807, Note_on_c, 7, 47, 100
1, 73807, Note_on_c, 7, 35, 0
1, 73807, Note_on_c, 7, 35, 100
1, 73822, Note_on_c, 3, 78, 0
1, 73822, Note_on_c, 3, 80, 127
1, 73837, Note_on_c, 3, 80, 0
1, 73837, Note_on_c, 3, 78, 127
1, 73837, Note_on_c, 7, 66, 0
1, 73837, Note_on_c, 7, 66, 100
1, 73837, Note_on_c, 7, 63, 0
1, 73837, Note_on_c, 7, 63, 100
1, 73837, Note_on_c, 7, 57, 0
1, 73837, Note_on_c, 7, 57, 100
1, 73852, Note_on_c, 3, 78, 0
1, 73852, Note_on_c, 3, 80, 127
1, 73867, Note_on_c, 3, 80, 0
1, 73867, Note_on_c, 3, 78, 127
1, 73867, Note_on_c, 7, 66, 0
1, 73867, Note_on_c, 7, 66, 100
1, 73867, Note_on_c, 7, 63, 0
1, 73867, Note_on_c, 7, 63, 100
1, 73867, Note_on_c, 7, 57, 0
1, 73867, Note_on_c, 7, 57, 100
1, 73867, Note_on_c, 7, 47, 0
1, 73867, Note_on_c, 7, 47, 100
1, 73867, Note_on_c, 7, 35, 0
1, 73867, Note_on_c, 7, 35, 100
1, 73882, Note_on_c, 3, 78, 0
1, 73882, Note_on_c, 3, 80, 127
1, 73897, Note_on_c, 3, 80, 0
1, 73897, Note_on_c, 3, 78, 127
1, 73897, Note_on_c, 7, 66, 0
1, 73897, Note_on_c, 7, 66, 100
1, 73897, Note_on_c, 7, 63, 0
1, 73897, Note_on_c, 7, 63, 100
1, 73897, Note_on_c, 7, 57, 0
1, 73897, Note_on_c, 7, 57, 100
1, 73912, Note_on_c, 3, 78, 0
1, 73912, Note_on_c, 3, 80, 127
1, 73927, Note_on_c, 3, 80, 0
1, 73927, Note_on_c, 3, 78, 127
1, 73927, Note_on_c, 7, 66, 0
1, 73927, Note_on_c, 7, 66, 100
1, 73927, Note_on_c, 7, 63, 0
1, 73927, Note_on_c, 7, 63, 100
1, 73927, Note_on_c, 7, 57, 0
1, 73927, Note_on_c, 7, 57, 100
1, 73927, Note_on_c, 7, 47, 0
1, 73927, Note_on_c, 7, 47, 100
1, 73927, Note_on_c, 7, 35, 0
1, 73927, Note_on_c, 7, 35, 100
1, 73942, Note_on_c, 3, 78, 0
1, 73942, Note_on_c, 3, 80, 127
1, 73957, Note_on_c, 3, 80, 0
1, 73957, Note_on_c, 3, 78, 127
1, 73957, Note_on_c, 7, 66, 0
1, 73957, Note_on_c, 7, 66, 100
1, 73957, Note_on_c, 7, 63, 0
1, 73957, Note_on_c, 7, 63, 100
1, 73957, Note_on_c, 7, 57, 0
1, 73957, Note_on_c, 7, 57, 100
1, 73972, Note_on_c, 3, 78, 0
1, 73972, Note_on_c, 3, 80, 127
1, 73987, Note_on_c, 3, 80, 0
1, 73987, Note_on_c, 3, 78, 127
1, 73987, Note_on_c, 7, 66, 0
1, 73987, Note_on_c, 7, 66, 100
1, 73987, Note_on_c, 7, 63, 0
1, 73987, Note_on_c, 7, 63, 100
1, 73987, Note_on_c, 7, 57, 0
1, 73987, Note_on_c, 7, 57, 100
1, 73987, Note_on_c, 7, 47, 0
1, 73987, Note_on_c, 7, 47, 100
1, 73987, Note_on_c, 7, 35, 0
1, 73987, Note_on_c, 7, 35, 100
1, 74002, Note_on_c, 3, 78, 0
1, 74002, Note_on_c, 3, 80, 127
1, 74017, Note_on_c, 3, 80, 0
1, 74017, Note_on_c, 3, 76, 127
1, 74017, Note_on_c, 7, 66, 0
1, 74017, Note_on_c, 7, 66, 100
1, 74017, Note_on_c, 7, 63, 0
1, 74017, Note_on_c, 7, 63, 100
1, 74017, Note_on_c, 7, 57, 0
1, 74017, Note_on_c, 7, 57, 100
1, 74032, Note_on_c, 3, 76, 0
1, 74032, Note_on_c, 3, 78, 127
1, 74047, Note_on_c, 3, 78, 0
1, 74047, Note_on_c, 3, 76, 127
1, 74047, Note_on_c, 5, 52, 80
1, 74047, Note_on_c, 6, 52, 80
1, 74047, Note_on_c, 7, 66, 0
1, 74047, Note_on_c, 7, 64, 100
1, 74047, Note_on_c, 7, 71, 100
1, 74047, Note_on_c, 7, 76, 100
1, 74047, Note_on_c, 7, 63, 0
1, 74047, Note_on_c, 7, 57, 0
1, 74047, Note_on_c, 7, 56, 100
1, 74047, Note_on_c, 7, 47, 0
1, 74047, Note_on_c, 7, 52, 100
1, 74047, Note_on_c, 7, 35, 0
1, 74047, Note_on_c, 7, 40, 100
1, 74107, Note_on_c, 5, 47, 80
1, 74107, Note_on_c, 5, 52, 0
1, 74107, Note_on_c, 7, 68, 100
1, 74107, Note_on_c, 7, 56, 0
1, 74107, Note_on_c, 7, 59, 100
1, 74107, Note_on_c, 7, 52, 0
1, 74107, Note_on_c, 7, 47, 100
1, 74107, Note_on_c, 7, 40, 0
1, 74107, Note_on_c, 7, 35, 100
1, 74137, Note_on_c, 7, 68, 0
1, 74167, Note_on_c, 3, 76, 0
1, 74167, Note_on_c, 5, 52, 80
1, 74167, Note_on_c, 5, 47, 0
1, 74167, Note_on_c, 6, 52, 0
1, 74167, Note_on_c, 7, 64, 0
1, 74167, Note_on_c, 7, 76, 0
1, 74167, Note_on_c, 7, 71, 0
1, 74167, Note_on_c, 7, 68, 100
1, 74167, Note_on_c, 7, 47, 0
1, 74167, Note_on_c, 7, 52, 100
1, 74167, Note_on_c, 7, 35, 0
1, 74167, Note_on_c, 7, 40, 100
1, 74197, Note_on_c, 7, 68, 0
1, 74197, Note_on_c, 7, 71, 100
1, 74227, Note_on_c, 5, 47, 80
1, 74227, Note_on_c, 5, 52, 0
1, 74227, Note_on_c, 6, 59, 80
1, 74227, Note_on_c, 6, 52, 80
1, 74227, Note_on_c, 7, 80, 100
1, 74227, Note_on_c, 7, 71, 0
1, 74227, Note_on_c, 7, 68, 100
1, 74227, Note_on_c, 7, 59, 0
1, 74227, Note_on_c, 7, 59, 100
1, 74227, Note_on_c, 7, 52, 0
1, 74227, Note_on_c, 7, 47, 100
1, 74227, Note_on_c, 7, 40, 0
1, 74227, Note_on_c, 7, 35, 100
1, 74257, Note_on_c, 7, 80, 0
1, 74257, Note_on_c, 7, 76, 100
1, 74257, Note_on_c, 7, 68, 0
1, 74257, Note_on_c, 7, 71, 100
1, 74287, Note_on_c, 5, 52, 80
1, 74287, Note_on_c, 5, 47, 0
1, 74287, Note_on_c, 6, 59, 0
1, 74287, Note_on_c, 6, 59, 80
1, 74287, Note_on_c, 6, 52, 0
1, 74287, Note_on_c, 6, 52, 80
1, 74287, Note_on_c, 7, 76, 0
1, 74287, Note_on_c, 7, 68, 100
1, 74287, Note_on_c, 7, 47, 0
1, 74287, Note_on_c, 7, 52, 100
1, 74287, Note_on_c, 7, 35, 0
1, 74287, Note_on_c, 7, 40, 100
1, 74317, Note_on_c, 7, 71, 0
1, 74317, Note_on_c, 7, 68, 0
1, 74317, Note_on_c, 7, 71, 100
1, 74347, Note_on_c, 5, 47, 80
1, 74347, Note_on_c, 5, 52, 0
1, 74347, Note_on_c, 6, 59, 0
1, 74347, Note_on_c, 6, 59, 80
1, 74347, Note_on_c, 6, 52, 0
1, 74347, Note_on_c, 6, 52, 80
1, 74347, Note_on_c, 7, 68, 100
1, 74347, Note_on_c, 7, 59, 0
1, 74347, Note_on_c, 7, 59, 100
1, 74347, Note_on_c, 7, 52, 0
1, 74347, Note_on_c, 7, 47, 100
1, 74347, Note_on_c, 7, 40, 0
1, 74347, Note_on_c, 7, 35, 100
1, 74377, Note_on_c, 7, 71, 0
1, 74377, Note_on_c, 7, 68, 0
1, 74377, Note_on_c, 7, 71, 100
1, 74407, Note_on_c, 5, 52, 80
1, 74407, Note_on_c, 5, 47, 0
1, 74407, Note_on_c, 6, 59, 0
1, 74407, Note_on_c, 6, 59, 80
1, 74407, Note_on_c, 6, 52, 0
1, 74407, Note_on_c, 6, 52, 80
1, 74407, Note_on_c, 7, 68, 100
1, 74407, Note_on_c, 7, 47, 0
1, 74407, Note_on_c, 7, 52, 100
1, 74407, Note_on_c, 7, 35, 0
1, 74407, Note_on_c, 7, 40, 100
1, 74437, Note_on_c, 7, 71, 0
1, 74437, Note_on_c, 7, 68, 0
1, 74437, Note_on_c, 7, 71, 100
1, 74467, Note_on_c, 5, 47, 80
1, 74467, Note_on_c, 5, 52, 0
1, 74467, Note_on_c, 6, 59, 0
1, 74467, Note_on_c, 6, 59, 80
1, 74467, Note_on_c, 6, 52, 0
1, 74467, Note_on_c, 6, 52, 80
1, 74467, Note_on_c, 7, 68, 100
1, 74467, Note_on_c, 7, 59, 0
1, 74467, Note_on_c, 7, 59, 100
1, 74467, Note_on_c, 7, 52, 0
1, 74467, Note_on_c, 7, 47, 100
1, 74467, Note_on_c, 7, 40, 0
1, 74467, Note_on_c, 7, 35, 100
1, 74497, Note_on_c, 7, 71, 0
1, 74497, Note_on_c, 7, 68, 0
1, 74497, Note_on_c, 7, 71, 100
1, 74527, Note_on_c, 4, 81, 80
1, 74527, Note_on_c, 4, 78, 80
1, 74527, Note_on_c, 5, 51, 80
1, 74527, Note_on_c, 5, 47, 0
1, 74527, Note_on_c, 6, 59, 0
1, 74527, Note_on_c, 6, 59, 80
1, 74527, Note_on_c, 6, 52, 0
1, 74527, Note_on_c, 7, 83, 100
1, 74527, Note_on_c, 7, 71, 0
1, 74527, Note_on_c, 7, 66, 100
1, 74527, Note_on_c, 7, 47, 0
1, 74527, Note_on_c, 7, 51, 100
1, 74527, Note_on_c, 7, 35, 0
1, 74527, Note_on_c, 7, 39, 100
1, 74557, Note_on_c, 7, 66, 0
1, 74557, Note_on_c, 7, 71, 100
1, 74587, Note_on_c, 5, 47, 80
1, 74587, Note_on_c, 5, 51, 0
1, 74587, Note_on_c, 7, 83, 0
1, 74587, Note_on_c, 7, 81, 100
1, 74587, Note_on_c, 7, 71, 0
1, 74587, Note_on_c, 7, 66, 100
1, 74587, Note_on_c, 7, 59, 0
1, 74587, Note_on_c, 7, 59, 100
1, 74587, Note_on_c, 7, 51, 0
1, 74587, Note_on_c, 7, 47, 100
1, 74587, Note_on_c, 7, 39, 0
1, 74587, Note_on_c, 7, 35, 100
1, 74617, Note_on_c, 7, 66, 0
1, 74617, Note_on_c, 7, 71, 100
1, 74647, Note_on_c, 5, 51, 80
1, 74647, Note_on_c, 5, 47, 0
1, 74647, Note_on_c, 7, 81, 0
1, 74647, Note_on_c, 7, 81, 100
1, 74647, Note_on_c, 7, 71, 0
1, 74647, Note_on_c, 7, 66, 100
1, 74647, Note_on_c, 7, 47, 0
1, 74647, Note_on_c, 7, 51, 100
1, 74647, Note_on_c, 7, 35, 0
1, 74647, Note_on_c, 7, 39, 100
1, 74677, Note_on_c, 7, 66, 0
1, 74677, Note_on_c, 7, 71, 100
1, 74707, Note_on_c, 5, 47, 80
1, 74707, Note_on_c, 5, 51, 0
1, 74707, Note_on_c, 7, 71, 0
1, 74707, Note_on_c, 7, 66, 100
1, 74707, Note_on_c, 7, 59, 0
1, 74707, Note_on_c, 7, 59, 100
1, 74707, Note_on_c, 7, 51, 0
1, 74707, Note_on_c, 7, 47, 100
1, 74707, Note_on_c, 7, 39, 0
1, 74707, Note_on_c, 7, 35, 100
1, 74737, Note_on_c, 7, 66, 0
1, 74737, Note_on_c, 7, 71, 100
1, 74767, Note_on_c, 4, 81, 0
1, 74767, Note_on_c, 4, 75, 80
1, 74767, Note_on_c, 5, 54, 80
1, 74767, Note_on_c, 5, 47, 0
1, 74767, Note_on_c, 7, 71, 0
1, 74767, Note_on_c, 7, 66, 100
1, 74767, Note_on_c, 7, 47, 0
1, 74767, Note_on_c, 7, 54, 100
1, 74767, Note_on_c, 7, 35, 0
1, 74767, Note_on_c, 7, 42, 100
1, 74797, Note_on_c, 7, 66, 0
1, 74797, Note_on_c, 7, 71, 100
1, 74827, Note_on_c, 5, 47, 80
1, 74827, Note_on_c, 5, 54, 0
1, 74827, Note_on_c, 7, 81, 0
1, 74827, Note_on_c, 7, 83, 100
1, 74827, Note_on_c, 7, 71, 0
1, 74827, Note_on_c, 7, 66, 100
1, 74827, Note_on_c, 7, 59, 0
1, 74827, Note_on_c, 7, 59, 100
1, 74827, Note_on_c, 7, 54, 0
1, 74827, Note_on_c, 7, 47, 100
1, 74827, Note_on_c, 7, 42, 0
1, 74827, Note_on_c, 7, 35, 100
1, 74857, Note_on_c, 7, 83, 0
1, 74857, Note_on_c, 7, 81, 100
1, 74857, Note_on_c, 7, 66, 0
1, 74857, Note_on_c, 7, 71, 100
1, 74887, Note_on_c, 4, 78, 0
1, 74887, Note_on_c, 4, 71, 80
1, 74887, Note_on_c, 5, 57, 80
1, 74887, Note_on_c, 5, 47, 0
1, 74887, Note_on_c, 7, 81, 0
1, 74887, Note_on_c, 7, 80, 100
1, 74887, Note_on_c, 7, 71, 0
1, 74887, Note_on_c, 7, 66, 100
1, 74887, Note_on_c, 7, 47, 0
1, 74887, Note_on_c, 7, 57, 100
1, 74887, Note_on_c, 7, 35, 0
1, 74887, Note_on_c, 7, 45, 100
1, 74917, Note_on_c, 7, 80, 0
1, 74917, Note_on_c, 7, 78, 100
1, 74917, Note_on_c, 7, 66, 0
1, 74917, Note_on_c, 7, 71, 100
1, 74947, Note_on_c, 5, 47, 80
1, 74947, Note_on_c, 5, 57, 0
1, 74947, Note_on_c, 7, 78, 0
1, 74947, Note_on_c, 7, 76, 100
1, 74947, Note_on_c, 7, 71, 0
1, 74947, Note_on_c, 7, 66, 100
1, 74947, Note_on_c, 7, 59, 0
1, 74947, Note_on_c, 7, 59, 100
1, 74947, Note_on_c, 7, 57, 0
1, 74947, Note_on_c, 7, 47, 100
1, 74947, Note_on_c, 7, 45, 0
1, 74947, Note_on_c, 7, 35, 100
1, 74977, Note_on_c, 7, 76, 0
1, 74977, Note_on_c, 7, 75, 100
1, 74977, Note_on_c, 7, 66, 0
1, 74977, Note_on_c, 7, 71, 100
1, 75007, Note_on_c, 4, 75, 0
1, 75007, Note_on_c, 4, 76, 80
1, 75007, Note_on_c, 4, 71, 0
1, 75007, Note_on_c, 4, 71, 80
1, 75007, Note_on_c, 5, 56, 80
1, 75007, Note_on_c, 5, 47, 0
1, 75007, Note_on_c, 6, 52, 80
1, 75007, Note_on_c, 7, 75, 0
1, 75007, Note_on_c, 7, 78, 100
1, 75007, Note_on_c, 7, 71, 0
1, 75007, Note_on_c, 7, 64, 100
1, 75007, Note_on_c, 7, 47, 0
1, 75007, Note_on_c, 7, 56, 100
1, 75007, Note_on_c, 7, 35, 0
1, 75007, Note_on_c, 7, 44, 100
1, 75037, Note_on_c, 7, 64, 0
1, 75037, Note_on_c, 7, 71, 100
1, 75067, Note_on_c, 5, 47, 80
1, 75067, Note_on_c, 5, 56, 0
1, 75067, Note_on_c, 7, 78, 0
1, 75067, Note_on_c, 7, 76, 100
1, 75067, Note_on_c, 7, 71, 0
1, 75067, Note_on_c, 7, 64, 100
1, 75067, Note_on_c, 7, 59, 0
1, 75067, Note_on_c, 7, 59, 100
1, 75067, Note_on_c, 7, 56, 0
1, 75067, Note_on_c, 7, 47, 100
1, 75067, Note_on_c, 7, 44, 0
1, 75067, Note_on_c, 7, 35, 100
1, 75097, Note_on_c, 7, 64, 0
1, 75097, Note_on_c, 7, 71, 100
1, 75127, Note_on_c, 4, 76, 0
1, 75127, Note_on_c, 4, 71, 0
1, 75127, Note_on_c, 5, 56, 80
1, 75127, Note_on_c, 5, 47, 0
1, 75127, Note_on_c, 6, 59, 0
1, 75127, Note_on_c, 6, 52, 0
1, 75127, Note_on_c, 7, 76, 0
1, 75127, Note_on_c, 7, 71, 0
1, 75127, Note_on_c, 7, 64, 100
1, 75127, Note_on_c, 7, 47, 0
1, 75127, Note_on_c, 7, 56, 100
1, 75127, Note_on_c, 7, 35, 0
1, 75127, Note_on_c, 7, 44, 100
1, 75157, Note_on_c, 7, 64, 0
1, 75157, Note_on_c, 7, 71, 100
1, 75187, Note_on_c, 5, 47, 80
1, 75187, Note_on_c, 5, 56, 0
1, 75187, Note_on_c, 6, 59, 80
1, 75187, Note_on_c, 6, 52, 80
1, 75187, Note_on_c, 7, 80, 100
1, 75187, Note_on_c, 7, 71, 0
1, 75187, Note_on_c, 7, 64, 100
1, 75187, Note_on_c, 7, 59, 0
1, 75187, Note_on_c, 7, 59, 100
1, 75187, Note_on_c, 7, 56, 0
1, 75187, Note_on_c, 7, 47, 100
1, 75187, Note_on_c, 7, 44, 0
1, 75187, Note_on_c, 7, 35, 100
1, 75217, Note_on_c, 7, 80, 0
1, 75217, Note_on_c, 7, 76, 100
1, 75217, Note_on_c, 7, 64, 0
1, 75217, Note_on_c, 7, 71, 100
1, 75247, Note_on_c, 5, 52, 80
1, 75247, Note_on_c, 5, 47, 0
1, 75247, Note_on_c, 6, 59, 0
1, 75247, Note_on_c, 6, 59, 80
1, 75247, Note_on_c, 6, 52, 0
1, 75247, Note_on_c, 6, 52, 80
1, 75247, Note_on_c, 7, 76, 0
1, 75247, Note_on_c, 7, 68, 100
1, 75247, Note_on_c, 7, 47, 0
1, 75247, Note_on_c, 7, 52, 100
1, 75247, Note_on_c, 7, 35, 0
1, 75247, Note_on_c, 7, 40, 100
1, 75277, Note_on_c, 7, 71, 0
1, 75277, Note_on_c, 7, 68, 0
1, 75277, Note_on_c, 7, 71, 100
1, 75307, Note_on_c, 5, 47, 80
1, 75307, Note_on_c, 5, 52, 0
1, 75307, Note_on_c, 6, 59, 0
1, 75307, Note_on_c, 6, 59, 80
1, 75307, Note_on_c, 6, 52, 0
1, 75307, Note_on_c, 6, 52, 80
1, 75307, Note_on_c, 7, 68, 100
1, 75307, Note_on_c, 7, 59, 0
1, 75307, Note_on_c, 7, 59, 100
1, 75307, Note_on_c, 7, 52, 0
1, 75307, Note_on_c, 7, 47, 100
1, 75307, Note_on_c, 7, 40, 0
1, 75307, Note_on_c, 7, 35, 100
1, 75337, Note_on_c, 7, 71, 0
1, 75337, Note_on_c, 7, 68, 0
1, 75337, Note_on_c, 7, 71, 100
1, 75367, Note_on_c, 5, 52, 80
1, 75367, Note_on_c, 5, 47, 0
1, 75367, Note_on_c, 6, 59, 0
1, 75367, Note_on_c, 6, 59, 80
1, 75367, Note_on_c, 6, 52, 0
1, 75367, Note_on_c, 6, 52, 80
1, 75367, Note_on_c, 7, 68, 100
1, 75367, Note_on_c, 7, 47, 0
1, 75367, Note_on_c, 7, 52, 100
1, 75367, Note_on_c, 7, 35, 0
1, 75367, Note_on_c, 7, 40, 100
1, 75397, Note_on_c, 7, 71, 0
1, 75397, Note_on_c, 7, 68, 0
1, 75397, Note_on_c, 7, 71, 100
1, 75427, Note_on_c, 5, 47, 80
1, 75427, Note_on_c, 5, 52, 0
1, 75427, Note_on_c, 6, 59, 0
1, 75427, Note_on_c, 6, 59, 80
1, 75427, Note_on_c, 6, 52, 0
1, 75427, Note_on_c, 6, 52, 80
1, 75427, Note_on_c, 7, 68, 100
1, 75427, Note_on_c, 7, 59, 0
1, 75427, Note_on_c, 7, 59, 100
1, 75427, Note_on_c, 7, 52, 0
1, 75427, Note_on_c, 7, 47, 100
1, 75427, Note_on_c, 7, 40, 0
1, 75427, Note_on_c, 7, 35, 100
1, 75457, Note_on_c, 7, 71, 0
1, 75457, Note_on_c, 7, 68, 0
1, 75457, Note_on_c, 7, 71, 100
1, 75487, Note_on_c, 4, 81, 80
1, 75487, Note_on_c, 4, 66, 80
1, 75487, Note_on_c, 5, 51, 80
1, 75487, Note_on_c, 5, 47, 0
1, 75487, Note_on_c, 6, 59, 0
1, 75487, Note_on_c, 6, 59, 80
1, 75487, Note_on_c, 6, 52, 0
1, 75487, Note_on_c, 7, 66, 100
1, 75487, Note_on_c, 7, 47, 0
1, 75487, Note_on_c, 7, 51, 100
1, 75487, Note_on_c, 7, 35, 0
1, 75487, Note_on_c, 7, 39, 100
1, 75517, Note_on_c, 7, 71, 0
1, 75517, Note_on_c, 7, 66, 0
1, 75517, Note_on_c, 7, 71, 100
1, 75547, Note_on_c, 5, 47, 80
1, 75547, Note_on_c, 5, 51, 0
1, 75547, Note_on_c, 7, 83, 100
1, 75547, Note_on_c, 7, 71, 0
1, 75547, Note_on_c, 7, 66, 100
1, 75547, Note_on_c, 7, 59, 0
1, 75547, Note_on_c, 7, 59, 100
1, 75547, Note_on_c, 7, 51, 0
1, 75547, Note_on_c, 7, 47, 100
1, 75547, Note_on_c, 7, 39, 0
1, 75547, Note_on_c, 7, 35, 100
1, 75577, Note_on_c, 7, 83, 0
1, 75577, Note_on_c, 7, 81, 100
1, 75577, Note_on_c, 7, 66, 0
1, 75577, Note_on_c, 7, 71, 100
1, 75607, Note_on_c, 5, 51, 80
1, 75607, Note_on_c, 5, 47, 0
1, 75607, Note_on_c, 7, 81, 0
1, 75607, Note_on_c, 7, 81, 100
1, 75607, Note_on_c, 7, 71, 0
1, 75607, Note_on_c, 7, 66, 100
1, 75607, Note_on_c, 7, 47, 0
1, 75607, Note_on_c, 7, 51, 100
1, 75607, Note_on_c, 7, 35, 0
1, 75607, Note_on_c, 7, 39, 100
1, 75637, Note_on_c, 7, 66, 0
1, 75637, Note_on_c, 7, 71, 100
1, 75667, Note_on_c, 5, 47, 80
1, 75667, Note_on_c, 5, 51, 0
1, 75667, Note_on_c, 7, 71, 0
1, 75667, Note_on_c, 7, 66, 100
1, 75667, Note_on_c, 7, 59, 0
1, 75667, Note_on_c, 7, 59, 100
1, 75667, Note_on_c, 7, 51, 0
1, 75667, Note_on_c, 7, 47, 100
1, 75667, Note_on_c, 7, 39, 0
1, 75667, Note_on_c, 7, 35, 100
1, 75697, Note_on_c, 7, 66, 0
1, 75697, Note_on_c, 7, 71, 100
1, 75727, Note_on_c, 4, 81, 0
1, 75727, Note_on_c, 4, 78, 80
1, 75727, Note_on_c, 4, 66, 0
1, 75727, Note_on_c, 4, 63, 80
1, 75727, Note_on_c, 5, 54, 80
1, 75727, Note_on_c, 5, 47, 0
1, 75727, Note_on_c, 7, 71, 0
1, 75727, Note_on_c, 7, 66, 100
1, 75727, Note_on_c, 7, 47, 0
1, 75727, Note_on_c, 7, 54, 100
1, 75727, Note_on_c, 7, 35, 0
1, 75727, Note_on_c, 7, 42, 100
1, 75757, Note_on_c, 7, 66, 0
1, 75757, Note_on_c, 7, 71, 100
1, 75787, Note_on_c, 5, 47, 80
1, 75787, Note_on_c, 5, 54, 0
1, 75787, Note_on_c, 7, 81, 0
1, 75787, Note_on_c, 7, 83, 100
1, 75787, Note_on_c, 7, 71, 0
1, 75787, Note_on_c, 7, 66, 100
1, 75787, Note_on_c, 7, 59, 0
1, 75787, Note_on_c, 7, 59, 100
1, 75787, Note_on_c, 7, 54, 0
1, 75787, Note_on_c, 7, 47, 100
1, 75787, Note_on_c, 7, 42, 0
1, 75787, Note_on_c, 7, 35, 100
1, 75817, Note_on_c, 7, 83, 0
1, 75817, Note_on_c, 7, 81, 100
1, 75817, Note_on_c, 7, 66, 0
1, 75817, Note_on_c, 7, 71, 100
1, 75847, Note_on_c, 4, 78, 0
1, 75847, Note_on_c, 4, 87, 80
1, 75847, Note_on_c, 4, 63, 0
1, 75847, Note_on_c, 4, 71, 80
1, 75847, Note_on_c, 5, 57, 80
1, 75847, Note_on_c, 5, 47, 0
1, 75847, Note_on_c, 7, 81, 0
1, 75847, Note_on_c, 7, 80, 100
1, 75847, Note_on_c, 7, 71, 0
1, 75847, Note_on_c, 7, 66, 100
1, 75847, Note_on_c, 7, 47, 0
1, 75847, Note_on_c, 7, 57, 100
1, 75847, Note_on_c, 7, 35, 0
1, 75847, Note_on_c, 7, 45, 100
1, 75877, Note_on_c, 7, 80, 0
1, 75877, Note_on_c, 7, 78, 100
1, 75877, Note_on_c, 7, 66, 0
1, 75877, Note_on_c, 7, 71, 100
1, 75907, Note_on_c, 5, 47, 80
1, 75907, Note_on_c, 5, 57, 0
1, 75907, Note_on_c, 7, 78, 0
1, 75907, Note_on_c, 7, 76, 100
1, 75907, Note_on_c, 7, 71, 0
1, 75907, Note_on_c, 7, 66, 100
1, 75907, Note_on_c, 7, 59, 0
1, 75907, Note_on_c, 7, 59, 100
1, 75907, Note_on_c, 7, 57, 0
1, 75907, Note_on_c, 7, 47, 100
1, 75907, Note_on_c, 7, 45, 0
1, 75907, Note_on_c, 7, 35, 100
1, 75937, Note_on_c, 7, 76, 0
1, 75937, Note_on_c, 7, 75, 100
1, 75937, Note_on_c, 7, 66, 0
1, 75937, Note_on_c, 7, 71, 100
1, 75967, Note_on_c, 4, 87, 0
1, 75967, Note_on_c, 4, 88, 80
1, 75967, Note_on_c, 4, 71, 0
1, 75967, Note_on_c, 4, 71, 80
1, 75967, Note_on_c, 5, 56, 80
1, 75967, Note_on_c, 5, 47, 0
1, 75967, Note_on_c, 6, 52, 80
1, 75967, Note_on_c, 7, 75, 0
1, 75967, Note_on_c, 7, 76, 100
1, 75967, Note_on_c, 7, 71, 0
1, 75967, Note_on_c, 7, 59, 0
1, 75967, Note_on_c, 7, 59, 100
1, 75967, Note_on_c, 7, 47, 0
1, 75967, Note_on_c, 7, 56, 100
1, 75967, Note_on_c, 7, 35, 0
1, 75967, Note_on_c, 7, 44, 100
1, 75997, Note_on_c, 7, 75, 100
1, 75997, Note_on_c, 7, 76, 0
1, 76027, Note_on_c, 7, 78, 100
1, 76027, Note_on_c, 7, 75, 0
1, 76057, Note_on_c, 7, 76, 100
1, 76057, Note_on_c, 7, 78, 0
1, 76087, Note_on_c, 4, 88, 0
1, 76087, Note_on_c, 4, 71, 0
1, 76087, Note_on_c, 5, 56, 0
1, 76087, Note_on_c, 6, 59, 0
1, 76087, Note_on_c, 6, 52, 0
1, 76087, Note_on_c, 7, 80, 100
1, 76087, Note_on_c, 7, 76, 0
1, 76087, Note_on_c, 7, 59, 0
1, 76087, Note_on_c, 7, 56, 0
1, 76087, Note_on_c, 7, 44, 0
1, 76117, Note_on_c, 7, 78, 100
1, 76117, Note_on_c, 7, 80, 0
1, 76147, Note_on_c, 5, 56, 80
1, 76147, Note_on_c, 6, 52, 80
1, 76147, Note_on_c, 7, 76, 100
1, 76147, Note_on_c, 7, 78, 0
1, 76147, Note_on_c, 7, 71, 100
1, 76147, Note_on_c, 7, 56, 100
1, 76147, Note_on_c, 7, 44, 100
1, 76177, Note_on_c, 7, 75, 100
1, 76177, Note_on_c, 7, 76, 0
1, 76207, Note_on_c, 5, 57, 80
1, 76207, Note_on_c, 5, 56, 0
1, 76207, Note_on_c, 7, 73, 100
1, 76207, Note_on_c, 7, 75, 0
1, 76207, Note_on_c, 7, 71, 0
1, 76207, Note_on_c, 7, 69, 100
1, 76207, Note_on_c, 7, 56, 0
1, 76207, Note_on_c, 7, 57, 100
1, 76207, Note_on_c, 7, 44, 0
1, 76207, Note_on_c, 7, 45, 100
1, 76237, Note_on_c, 7, 72, 100
1, 76237, Note_on_c, 7, 73, 0
1, 76237, Note_on_c, 7, 60, 100
1, 76267, Note_on_c, 7, 72, 0
1, 76267, Note_on_c, 7, 75, 100
1, 76267, Note_on_c, 7, 60, 0
1, 76267, Note_on_c, 7, 63, 100
1, 76297, Note_on_c, 7, 75, 0
1, 76297, Note_on_c, 7, 73, 100
1, 76297, Note_on_c, 7, 63, 0
1, 76297, Note_on_c, 7, 61, 100
1, 76327, Note_on_c, 5, 57, 0
1, 76327, Note_on_c, 6, 52, 0
1, 76327, Note_on_c, 7, 73, 0
1, 76327, Note_on_c, 7, 76, 100
1, 76327, Note_on_c, 7, 61, 0
1, 76327, Note_on_c, 7, 64, 100
1, 76327, Note_on_c, 7, 69, 0
1, 76327, Note_on_c, 7, 57, 0
1, 76327, Note_on_c, 7, 45, 0
1, 76387, Note_on_c, 5, 56, 80
1, 76387, Note_on_c, 6, 52, 80
1, 76387, Note_on_c, 7, 76, 0
1, 76387, Note_on_c, 7, 64, 0
1, 76387, Note_on_c, 7, 64, 100
1, 76387, Note_on_c, 7, 56, 100
1, 76387, Note_on_c, 7, 44, 100
1, 76447, Note_on_c, 4, 85, 80
1, 76447, Note_on_c, 4, 61, 80
1, 76447, Note_on_c, 5, 57, 80
1, 76447, Note_on_c, 5, 56, 0
1, 76447, Note_on_c, 6, 40, 80
1, 76447, Note_on_c, 7, 73, 100
1, 76447, Note_on_c, 7, 61, 100
1, 76447, Note_on_c, 7, 56, 0
1, 76447, Note_on_c, 7, 57, 100
1, 76447, Note_on_c, 7, 44, 0
1, 76447, Note_on_c, 7, 45, 100
1, 76477, Note_on_c, 4, 85, 0
1, 76477, Note_on_c, 4, 84, 80
1, 76477, Note_on_c, 4, 61, 0
1, 76477, Note_on_c, 7, 73, 0
1, 76477, Note_on_c, 7, 72, 100
1, 76477, Note_on_c, 7, 61, 0
1, 76507, Note_on_c, 4, 87, 80
1, 76507, Note_on_c, 4, 84, 0
1, 76507, Note_on_c, 7, 75, 100
1, 76507, Note_on_c, 7, 72, 0
1, 76537, Note_on_c, 4, 85, 80
1, 76537, Note_on_c, 4, 87, 0
1, 76537, Note_on_c, 7, 73, 100
1, 76537, Note_on_c, 7, 75, 0
1, 76567, Note_on_c, 4, 88, 80
1, 76567, Note_on_c, 4, 85, 0
1, 76567, Note_on_c, 5, 57, 0
1, 76567, Note_on_c, 6, 52, 0
1, 76567, Note_on_c, 6, 40, 0
1, 76567, Note_on_c, 7, 76, 100
1, 76567, Note_on_c, 7, 73, 0
1, 76567, Note_on_c, 7, 64, 0
1, 76567, Note_on_c, 7, 57, 0
1, 76567, Note_on_c, 7, 45, 0
1, 76597, Note_on_c, 4, 86, 80
1, 76597, Note_on_c, 4, 88, 0
1, 76597, Note_on_c, 7, 74, 100
1, 76597, Note_on_c, 7, 76, 0
1, 76627, Note_on_c, 4, 85, 80
1, 76627, Note_on_c, 4, 86, 0
1, 76627, Note_on_c, 5, 53, 80
1, 76627, Note_on_c, 7, 73, 100
1, 76627, Note_on_c, 7, 74, 0
1, 76627, Note_on_c, 7, 68, 100
1, 76627, Note_on_c, 7, 53, 100
1, 76627, Note_on_c, 7, 41, 100
1, 76657, Note_on_c, 4, 83, 80
1, 76657, Note_on_c, 4, 85, 0
1, 76657, Note_on_c, 7, 71, 100
1, 76657, Note_on_c, 7, 73, 0
1, 76687, Note_on_c, 4, 81, 80
1, 76687, Note_on_c, 4, 83, 0
1, 76687, Note_on_c, 5, 54, 80
1, 76687, Note_on_c, 5, 53, 0
1, 76687, Note_on_c, 7, 69, 100
1, 76687, Note_on_c, 7, 71, 0
1, 76687, Note_on_c, 7, 68, 0
1, 76687, Note_on_c, 7, 66, 100
1, 76687, Note_on_c, 7, 53, 0
1, 76687, Note_on_c, 7, 54, 100
1, 76687, Note_on_c, 7, 41, 0
1, 76687, Note_on_c, 7, 42, 100
1, 76717, Note_on_c, 4, 80, 80
1, 76717, Note_on_c, 4, 81, 0
1, 76717, Note_on_c, 7, 68, 100
1, 76717, Note_on_c, 7, 69, 0
1, 76747, Note_on_c, 4, 83, 80
1, 76747, Note_on_c, 4, 80, 0
1, 76747, Note_on_c, 7, 71, 100
1, 76747, Note_on_c, 7, 68, 0
1, 76777, Note_on_c, 4, 81, 80
1, 76777, Note_on_c, 4, 83, 0
1, 76777, Note_on_c, 7, 69, 100
1, 76777, Note_on_c, 7, 71, 0
1, 76807, Note_on_c, 4, 85, 80
1, 76807, Note_on_c, 4, 81, 0
1, 76807, Note_on_c, 5, 54, 0
1, 76807, Note_on_c, 7, 73, 100
1, 76807, Note_on_c, 7, 69, 0
1, 76807, Note_on_c, 7, 66, 0
1, 76807, Note_on_c, 7, 54, 0
1, 76807, Note_on_c, 7, 42, 0
1, 76867, Note_on_c, 4, 85, 0
1, 76867, Note_on_c, 5, 53, 80
1, 76867, Note_on_c, 7, 73, 0
1, 76867, Note_on_c, 7, 61, 100
1, 76867, Note_on_c, 7, 53, 100
1, 76867, Note_on_c, 7, 41, 100
1, 76927, Note_on_c, 4, 81, 80
1, 76927, Note_on_c, 5, 54, 80
1, 76927, Note_on_c, 5, 53, 0
1, 76927, Note_on_c, 7, 69, 100
1, 76927, Note_on_c, 7, 53, 0
1, 76927, Note_on_c, 7, 54, 100
1, 76927, Note_on_c, 7, 41, 0
1, 76927, Note_on_c, 7, 42, 100
1, 76957, Note_on_c, 4, 80, 80
1, 76957, Note_on_c, 4, 81, 0
1, 76957, Note_on_c, 7, 68, 100
1, 76957, Note_on_c, 7, 69, 0
1, 76987, Note_on_c, 4, 83, 80
1, 76987, Note_on_c, 4, 80, 0
1, 76987, Note_on_c, 7, 71, 100
1, 76987, Note_on_c, 7, 68, 0
1, 77017, Note_on_c, 4, 81, 80
1, 77017, Note_on_c, 4, 83, 0
1, 77017, Note_on_c, 7, 69, 100
1, 77017, Note_on_c, 7, 71, 0
1, 77047, Note_on_c, 4, 85, 80
1, 77047, Note_on_c, 4, 81, 0
1, 77047, Note_on_c, 5, 54, 0
1, 77047, Note_on_c, 7, 73, 100
1, 77047, Note_on_c, 7, 69, 0
1, 77047, Note_on_c, 7, 61, 0
1, 77047, Note_on_c, 7, 54, 0
1, 77047, Note_on_c, 7, 42, 0
1, 77077, Note_on_c, 4, 83, 80
1, 77077, Note_on_c, 4, 85, 0
1, 77077, Note_on_c, 7, 71, 100
1, 77077, Note_on_c, 7, 73, 0
1, 77107, Note_on_c, 4, 81, 80
1, 77107, Note_on_c, 4, 83, 0
1, 77107, Note_on_c, 5, 49, 80
1, 77107, Note_on_c, 7, 69, 100
1, 77107, Note_on_c, 7, 71, 0
1, 77107, Note_on_c, 7, 61, 100
1, 77107, Note_on_c, 7, 49, 100
1, 77107, Note_on_c, 7, 37, 100
1, 77137, Note_on_c, 4, 80, 80
1, 77137, Note_on_c, 4, 81, 0
1, 77137, Note_on_c, 7, 68, 100
1, 77137, Note_on_c, 7, 69, 0
1, 77167, Note_on_c, 4, 78, 80
1, 77167, Note_on_c, 4, 80, 0
1, 77167, Note_on_c, 5, 45, 80
1, 77167, Note_on_c, 5, 49, 0
1, 77167, Note_on_c, 7, 66, 100
1, 77167, Note_on_c, 7, 68, 0
1, 77167, Note_on_c, 7, 49, 0
1, 77167, Note_on_c, 7, 45, 100
1, 77167, Note_on_c, 7, 37, 0
1, 77167, Note_on_c, 7, 33, 100
1, 77197, Note_on_c, 4, 77, 80
1, 77197, Note_on_c, 4, 78, 0
1, 77197, Note_on_c, 7, 65, 100
1, 77197, Note_on_c, 7, 66, 0
1, 77227, Note_on_c, 4, 80, 80
1, 77227, Note_on_c, 4, 77, 0
1, 77227, Note_on_c, 7, 68, 100
1, 77227, Note_on_c, 7, 65, 0
1, 77257, Note_on_c, 4, 78, 80
1, 77257, Note_on_c, 4, 80, 0
1, 77257, Note_on_c, 7, 66, 100
1, 77257, Note_on_c, 7, 68, 0
1, 77287, Note_on_c, 4, 81, 80
1, 77287, Note_on_c, 4, 78, 0
1, 77287, Note_on_c, 5, 45, 0
1, 77287, Note_on_c, 7, 69, 100
1, 77287, Note_on_c, 7, 66, 0
1, 77287, Note_on_c, 7, 61, 0
1, 77287, Note_on_c, 7, 45, 0
1, 77287, Note_on_c, 7, 33, 0
1, 77317, Note_on_c, 7, 68, 100
1, 77317, Note_on_c, 7, 69, 0
1, 77347, Note_on_c, 4, 81, 0
1, 77347, Note_on_c, 5, 46, 80
1, 77347, Note_on_c, 7, 66, 100
1, 77347, Note_on_c, 7, 68, 0
1, 77347, Note_on_c, 7, 61, 100
1, 77347, Note_on_c, 7, 46, 100
1, 77347, Note_on_c, 7, 34, 100
1, 77377, Note_on_c, 7, 64, 100
1, 77377, Note_on_c, 7, 66, 0
1, 77407, Note_on_c, 4, 75, 80
1, 77407, Note_on_c, 5, 47, 80
1, 77407, Note_on_c, 5, 46, 0
1, 77407, Note_on_c, 6, 59, 80
1, 77407, Note_on_c, 7, 63, 100
1, 77407, Note_on_c, 7, 64, 0
1, 77407, Note_on_c, 7, 61, 0
1, 77407, Note_on_c, 7, 54, 100
1, 77407, Note_on_c, 7, 46, 0
1, 77407, Note_on_c, 7, 47, 100
1, 77407, Note_on_c, 7, 34, 0
1, 77407, Note_on_c, 7, 35, 100
1, 77437, Note_on_c, 4, 73, 80
1, 77437, Note_on_c, 4, 75, 0
1, 77437, Note_on_c, 7, 61, 100
1, 77437, Note_on_c, 7, 63, 0
1, 77467, Note_on_c, 4, 71, 80
1, 77467, Note_on_c, 4, 73, 0
1, 77467, Note_on_c, 7, 59, 100
1, 77467, Note_on_c, 7, 61, 0
1, 77467, Note_on_c, 7, 54, 0
1, 77467, Note_on_c, 7, 47, 0
1, 77467, Note_on_c, 7, 47, 100
1, 77467, Note_on_c, 7, 35, 0
1, 77467, Note_on_c, 7, 35, 100
1, 77497, Note_on_c, 4, 73, 80
1, 77497, Note_on_c, 4, 71, 0
1, 77497, Note_on_c, 7, 61, 100
1, 77527, Note_on_c, 4, 75, 80
1, 77527, Note_on_c, 4, 73, 0
1, 77527, Note_on_c, 7, 63, 100
1, 77527, Note_on_c, 7, 61, 0
1, 77527, Note_on_c, 7, 47, 0
1, 77527, Note_on_c, 7, 47, 100
1, 77527, Note_on_c, 7, 35, 0
1, 77527, Note_on_c, 7, 35, 100
1, 77557, Note_on_c, 4, 76, 80
1, 77557, Note_on_c, 4, 75, 0
1, 77557, Note_on_c, 7, 64, 100
1, 77557, Note_on_c, 7, 63, 0
1, 77587, Note_on_c, 4, 78, 80
1, 77587, Note_on_c, 4, 76, 0
1, 77587, Note_on_c, 7, 66, 100
1, 77587, Note_on_c, 7, 64, 0
1, 77587, Note_on_c, 7, 59, 0
1, 77587, Note_on_c, 7, 63, 100
1, 77587, Note_on_c, 7, 47, 0
1, 77587, Note_on_c, 7, 47, 100
1, 77587, Note_on_c, 7, 35, 0
1, 77587, Note_on_c, 7, 35, 100
1, 77617, Note_on_c, 4, 80, 80
1, 77617, Note_on_c, 4, 78, 0
1, 77617, Note_on_c, 7, 68, 100
1, 77617, Note_on_c, 7, 66, 0
1, 77647, Note_on_c, 4, 81, 80
1, 77647, Note_on_c, 4, 80, 0
1, 77647, Note_on_c, 5, 45, 80
1, 77647, Note_on_c, 5, 47, 0
1, 77647, Note_on_c, 7, 69, 100
1, 77647, Note_on_c, 7, 68, 0
1, 77647, Note_on_c, 7, 47, 0
1, 77647, Note_on_c, 7, 45, 100
1, 77647, Note_on_c, 7, 35, 0
1, 77647, Note_on_c, 7, 33, 100
1, 77677, Note_on_c, 4, 80, 80
1, 77677, Note_on_c, 4, 81, 0
1, 77677, Note_on_c, 7, 68, 100
1, 77677, Note_on_c, 7, 69, 0
1, 77707, Note_on_c, 4, 78, 80
1, 77707, Note_on_c, 4, 80, 0
1, 77707, Note_on_c, 7, 66, 100
1, 77707, Note_on_c, 7, 68, 0
1, 77707, Note_on_c, 7, 63, 0
1, 77707, Note_on_c, 7, 63, 100
1, 77707, Note_on_c, 7, 45, 0
1, 77707, Note_on_c, 7, 45, 100
1, 77707, Note_on_c, 7, 33, 0
1, 77707, Note_on_c, 7, 33, 100
1, 77737, Note_on_c, 4, 80, 80
1, 77737, Note_on_c, 4, 78, 0
1, 77737, Note_on_c, 7, 68, 100
1, 77737, Note_on_c, 7, 66, 0
1, 77767, Note_on_c, 4, 81, 80
1, 77767, Note_on_c, 4, 80, 0
1, 77767, Note_on_c, 7, 69, 100
1, 77767, Note_on_c, 7, 68, 0
1, 77767, Note_on_c, 7, 63, 0
1, 77767, Note_on_c, 7, 66, 100
1, 77767, Note_on_c, 7, 45, 0
1, 77767, Note_on_c, 7, 45, 100
1, 77767, Note_on_c, 7, 33, 0
1, 77767, Note_on_c, 7, 33, 100
1, 77797, Note_on_c, 4, 83, 80
1, 77797, Note_on_c, 4, 81, 0
1, 77797, Note_on_c, 7, 71, 100
1, 77797, Note_on_c, 7, 69, 0
1, 77827, Note_on_c, 4, 85, 80
1, 77827, Note_on_c, 4, 83, 0
1, 77827, Note_on_c, 7, 73, 100
1, 77827, Note_on_c, 7, 71, 0
1, 77827, Note_on_c, 7, 66, 0
1, 77827, Note_on_c, 7, 66, 100
1, 77827, Note_on_c, 7, 45, 0
1, 77827, Note_on_c, 7, 45, 100
1, 77827, Note_on_c, 7, 33, 0
1, 77827, Note_on_c, 7, 33, 100
1, 77857, Note_on_c, 4, 87, 80
1, 77857, Note_on_c, 4, 85, 0
1, 77857, Note_on_c, 7, 75, 100
1, 77857, Note_on_c, 7, 73, 0
1, 77857, Note_on_c, 7, 66, 0
1, 77887, Note_on_c, 4, 88, 80
1, 77887, Note_on_c, 4, 87, 0
1, 77887, Note_on_c, 5, 44, 80
1, 77887, Note_on_c, 5, 45, 0
1, 77887, Note_on_c, 6, 52, 80
1, 77887, Note_on_c, 7, 76, 100
1, 77887, Note_on_c, 7, 75, 0
1, 77887, Note_on_c, 7, 68, 100
1, 77887, Note_on_c, 7, 45, 0
1, 77887, Note_on_c, 7, 44, 100
1, 77887, Note_on_c, 7, 33, 0
1, 77887, Note_on_c, 7, 32, 100
1, 77947, Note_on_c, 7, 80, 100
1, 77947, Note_on_c, 7, 76, 0
1, 77947, Note_on_c, 7, 68, 0
1, 77947, Note_on_c, 7, 68, 100
1, 77947, Note_on_c, 7, 44, 0
1, 77947, Note_on_c, 7, 44, 100
1, 77947, Note_on_c, 7, 32, 0
1, 77947, Note_on_c, 7, 32, 100
1, 77977, Note_on_c, 7, 76, 100
1, 77977, Note_on_c, 7, 80, 0
1, 78007, Note_on_c, 4, 76, 80
1, 78007, Note_on_c, 4, 88, 0
1, 78007, Note_on_c, 4, 71, 80
1, 78007, Note_on_c, 5, 56, 80
1, 78007, Note_on_c, 5, 44, 0
1, 78007, Note_on_c, 6, 59, 0
1, 78007, Note_on_c, 7, 83, 100
1, 78007, Note_on_c, 7, 76, 0
1, 78007, Note_on_c, 7, 68, 0
1, 78007, Note_on_c, 7, 68, 100
1, 78007, Note_on_c, 7, 44, 0
1, 78007, Note_on_c, 7, 56, 100
1, 78007, Note_on_c, 7, 32, 0
1, 78007, Note_on_c, 7, 44, 100
1, 78067, Note_on_c, 7, 83, 0
1, 78067, Note_on_c, 7, 56, 0
1, 78067, Note_on_c, 7, 56, 100
1, 78067, Note_on_c, 7, 44, 0
1, 78067, Note_on_c, 7, 44, 100
1, 78127, Note_on_c, 4, 76, 0
1, 78127, Note_on_c, 4, 78, 80
1, 78127, Note_on_c, 4, 71, 0
1, 78127, Note_on_c, 4, 73, 80
1, 78127, Note_on_c, 5, 57, 80
1, 78127, Note_on_c, 5, 56, 0
1, 78127, Note_on_c, 7, 69, 100
1, 78127, Note_on_c, 7, 68, 0
1, 78127, Note_on_c, 7, 56, 0
1, 78127, Note_on_c, 7, 57, 100
1, 78127, Note_on_c, 7, 44, 0
1, 78127, Note_on_c, 7, 45, 100
1, 78187, Note_on_c, 7, 57, 0
1, 78187, Note_on_c, 7, 57, 100
1, 78187, Note_on_c, 7, 45, 0
1, 78187, Note_on_c, 7, 45, 100
1, 78247, Note_on_c, 4, 78, 0
1, 78247, Note_on_c, 4, 79, 80
1, 78247, Note_on_c, 5, 58, 80
1, 78247, Note_on_c, 5, 57, 0
1, 78247, Note_on_c, 7, 85, 100
1, 78247, Note_on_c, 7, 69, 0
1, 78247, Note_on_c, 7, 70, 100
1, 78247, Note_on_c, 7, 57, 0
1, 78247, Note_on_c, 7, 58, 100
1, 78247, Note_on_c, 7, 45, 0
1, 78247, Note_on_c, 7, 46, 100
1, 78307, Note_on_c, 7, 70, 0
1, 78307, Note_on_c, 7, 70, 100
1, 78307, Note_on_c, 7, 58, 0
1, 78307, Note_on_c, 7, 58, 100
1, 78307, Note_on_c, 7, 46, 0
1, 78307, Note_on_c, 7, 46, 100
1, 78367, Note_on_c, 4, 79, 0
1, 78367, Note_on_c, 4, 80, 80
1, 78367, Note_on_c, 4, 73, 0
1, 78367, Note_on_c, 4, 71, 80
1, 78367, Note_on_c, 5, 59, 80
1, 78367, Note_on_c, 5, 58, 0
1, 78367, Note_on_c, 6, 59, 80
1, 78367, Note_on_c, 6, 52, 0
1, 78367, Note_on_c, 7, 83, 100
1, 78367, Note_on_c, 7, 85, 0
1, 78367, Note_on_c, 7, 70, 0
1, 78367, Note_on_c, 7, 71, 100
1, 78367, Note_on_c, 7, 58, 0
1, 78367, Note_on_c, 7, 59, 100
1, 78367, Note_on_c, 7, 46, 0
1, 78367, Note_on_c, 7, 47, 100
1, 78427, Note_on_c, 7, 80, 100
1, 78427, Note_on_c, 7, 83, 0
1, 78427, Note_on_c, 7, 71, 0
1, 78427, Note_on_c, 7, 71, 100
1, 78427, Note_on_c, 7, 59, 0
1, 78427, Note_on_c, 7, 59, 100
1, 78427, Note_on_c, 7, 47, 0
1, 78427, Note_on_c, 7, 47, 100
1, 78457, Note_on_c, 7, 76, 100
1, 78457, Note_on_c, 7, 80, 0
1, 78487, Note_on_c, 4, 80, 0
1, 78487, Note_on_c, 4, 78, 80
1, 78487, Note_on_c, 4, 71, 0
1, 78487, Note_on_c, 4, 64, 80
1, 78487, Note_on_c, 5, 56, 80
1, 78487, Note_on_c, 5, 59, 0
1, 78487, Note_on_c, 7, 76, 0
1, 78487, Note_on_c, 7, 68, 100
1, 78487, Note_on_c, 7, 59, 0
1, 78487, Note_on_c, 7, 56, 100
1, 78487, Note_on_c, 7, 47, 0
1, 78487, Note_on_c, 7, 44, 100
1, 78547, Note_on_c, 5, 52, 80
1, 78547, Note_on_c, 5, 56, 0
1, 78547, Note_on_c, 7, 71, 0
1, 78547, Note_on_c, 7, 64, 100
1, 78547, Note_on_c, 7, 56, 0
1, 78547, Note_on_c, 7, 52, 100
1, 78547, Note_on_c, 7, 44, 0
1, 78547, Note_on_c, 7, 40, 100
1, 78577, Note_on_c, 4, 78, 0
1, 78577, Note_on_c, 4, 78, 80
1, 78577, Note_on_c, 4, 64, 0
1, 78577, Note_on_c, 4, 64, 80
1, 78577, Note_on_c, 7, 68, 0
1, 78607, Note_on_c, 4, 78, 0
1, 78607, Note_on_c, 4, 80, 80
1, 78607, Note_on_c, 4, 64, 0
1, 78607, Note_on_c, 4, 64, 80
1, 78607, Note_on_c, 5, 47, 80
1, 78607, Note_on_c, 5, 52, 0
1, 78607, Note_on_c, 7, 59, 100
1, 78607, Note_on_c, 7, 64, 0
1, 78607, Note_on_c, 7, 52, 0
1, 78607, Note_on_c, 7, 47, 100
1, 78607, Note_on_c, 7, 40, 0
1, 78607, Note_on_c, 7, 35, 100
1, 78637, Note_on_c, 4, 80, 0
1, 78637, Note_on_c, 4, 64, 0
1, 78667, Note_on_c, 4, 80, 80
1, 78667, Note_on_c, 4, 64, 80
1, 78667, Note_on_c, 7, 47, 0
1, 78667, Note_on_c, 7, 47, 100
1, 78667, Note_on_c, 7, 35, 0
1, 78667, Note_on_c, 7, 35, 100
1, 78697, Note_on_c, 4, 80, 0
1, 78697, Note_on_c, 4, 64, 0
1, 78727, Note_on_c, 4, 78, 80
1, 78727, Note_on_c, 4, 63, 80
1, 78727, Note_on_c, 7, 66, 100
1, 78727, Note_on_c, 7, 75, 100
1, 78727, Note_on_c, 7, 47, 0
1, 78727, Note_on_c, 7, 47, 100
1, 78727, Note_on_c, 7, 35, 0
1, 78727, Note_on_c, 7, 35, 100
1, 78757, Note_on_c, 4, 78, 0
1, 78757, Note_on_c, 4, 63, 0
1, 78787, Note_on_c, 4, 78, 80
1, 78787, Note_on_c, 4, 63, 80
1, 78787, Note_on_c, 7, 47, 0
1, 78787, Note_on_c, 7, 47, 100
1, 78787, Note_on_c, 7, 35, 0
1, 78787, Note_on_c, 7, 35, 100
1, 78817, Note_on_c, 4, 78, 0
1, 78817, Note_on_c, 4, 63, 0
1, 78847, Note_on_c, 4, 76, 80
1, 78847, Note_on_c, 4, 64, 80
1, 78847, Note_on_c, 5, 52, 80
1, 78847, Note_on_c, 5, 47, 0
1, 78847, Note_on_c, 6, 52, 80
1, 78847, Note_on_c, 7, 68, 100
1, 78847, Note_on_c, 7, 76, 100
1, 78847, Note_on_c, 7, 66, 0
1, 78847, Note_on_c, 7, 75, 0
1, 78847, Note_on_c, 7, 64, 100
1, 78847, Note_on_c, 7, 47, 0
1, 78847, Note_on_c, 7, 52, 100
1, 78847, Note_on_c, 7, 35, 0
1, 78847, Note_on_c, 7, 40, 100
1, 78967, Note_on_c, 4, 76, 0
1, 78967, Note_on_c, 4, 64, 0
1, 78967, Note_on_c, 5, 52, 0
1, 78967, Note_on_c, 6, 59, 0
1, 78967, Note_on_c, 6, 52, 0
1, 78967, Note_on_c, 7, 59, 0
1, 78967, Note_on_c, 7, 68, 0
1, 78967, Note_on_c, 7, 76, 0
1, 78967, Note_on_c, 7, 64, 0
1, 78967, Note_on_c, 7, 52, 0
1, 78967, Note_on_c, 7, 40, 0
1, 79087, Note_on_c, 7, 76, 100
1, 79087, Note_on_c, 7, 64, 100
1, 79207, Note_on_c, 7, 76, 0
1, 79207, Note_on_c, 7, 80, 100
1, 79207, Note_on_c, 7, 64, 0
1, 79207, Note_on_c, 7, 68, 100
1, 79267, Note_on_c, 7, 80, 0
1, 79267, Note_on_c, 7, 68, 0
1, 79327, Note_on_c, 7, 73, 100
1, 79327, Note_on_c, 7, 61, 100
1, 79447, Note_on_c, 7, 73, 0
1, 79447, Note_on_c, 7, 76, 100
1, 79447, Note_on_c, 7, 61, 0
1, 79447, Note_on_c, 7, 64, 100
1, 79507, Note_on_c, 7, 76, 0
1, 79507, Note_on_c, 7, 64, 0
1, 79567, Note_on_c, 7, 66, 100
1, 79567, Note_on_c, 7, 61, 100
1, 79567, Note_on_c, 7, 57, 100
1, 79567, Note_on_c, 7, 45, 100
1, 79597, Note_on_c, 7, 61, 0
1, 79597, Note_on_c, 7, 57, 0
1, 79597, Note_on_c, 7, 45, 0
1, 79657, Note_on_c, 7, 66, 0
1, 79657, Note_on_c, 7, 66, 100
1, 79687, Note_on_c, 7, 66, 0
1, 79687, Note_on_c, 7, 68, 100
1, 79687, Note_on_c, 7, 63, 100
1, 79687, Note_on_c, 7, 59, 100
1, 79687, Note_on_c, 7, 47, 100
1, 79717, Note_on_c, 7, 63, 0
1, 79717, Note_on_c, 7, 59, 0
1, 79717, Note_on_c, 7, 47, 0
1, 79777, Note_on_c, 7, 68, 0
1, 79777, Note_on_c, 7, 68, 100
1, 79807, Note_on_c, 7, 68, 0
1, 79807, Note_on_c, 7, 71, 100
1, 79807, Note_on_c, 7, 64, 100
1, 79807, Note_on_c, 7, 61, 100
1, 79807, Note_on_c, 7, 49, 100
1, 79927, Note_on_c, 7, 71, 0
1, 79927, Note_on_c, 7, 69, 100
1, 79927, Note_on_c, 7, 64, 0
1, 79927, Note_on_c, 7, 61, 0
1, 79927, Note_on_c, 7, 49, 0
1, 79987, Note_on_c, 7, 69, 0
1, 80047, Note_on_c, 7, 81, 100
1, 80047, Note_on_c, 7, 69, 100
1, 80167, Note_on_c, 7, 81, 0
1, 80167, Note_on_c, 7, 85, 100
1, 80167, Note_on_c, 7, 69, 0
1, 80167, Note_on_c, 7, 73, 100
1, 80227, Note_on_c, 7, 85, 0
1, 80227, Note_on_c, 7, 73, 0
1, 80287, Note_on_c, 7, 78, 100
1, 80287, Note_on_c, 7, 66, 100
1, 80407, Note_on_c, 7, 78, 0
1, 80407, Note_on_c, 7, 81, 100
1, 80407, Note_on_c, 7, 66, 0
1, 80407, Note_on_c, 7, 69, 100
1, 80467, Note_on_c, 7, 81, 0
1, 80467, Note_on_c, 7, 69, 0
1, 80527, Note_on_c, 7, 73, 100
1, 80527, Note_on_c, 7, 69, 100
1, 80527, Note_on_c, 7, 66, 100
1, 80527, Note_on_c, 7, 54, 100
1, 80527, Note_on_c, 7, 42, 100
1, 80557, Note_on_c, 7, 69, 0
1, 80557, Note_on_c, 7, 66, 0
1, 80557, Note_on_c, 7, 54, 0
1, 80557, Note_on_c, 7, 42, 0
1, 80617, Note_on_c, 7, 73, 0
1, 80617, Note_on_c, 7, 73, 100
1, 80647, Note_on_c, 7, 73, 0
1, 80647, Note_on_c, 7, 75, 100
1, 80647, Note_on_c, 7, 69, 100
1, 80647, Note_on_c, 7, 66, 100
1, 80647, Note_on_c, 7, 59, 100
1, 80647, Note_on_c, 7, 47, 100
1, 80677, Note_on_c, 7, 69, 0
1, 80677, Note_on_c, 7, 66, 0
1, 80677, Note_on_c, 7, 59, 0
1, 80677, Note_on_c, 7, 47, 0
1, 80737, Note_on_c, 7, 75, 0
1, 80737, Note_on_c, 7, 75, 100
1, 80767, Note_on_c, 7, 75, 0
1, 80767, Note_on_c, 7, 76, 100
1, 80767, Note_on_c, 7, 68, 100
1, 80767, Note_on_c, 7, 64, 100
1, 80767, Note_on_c, 7, 52, 100
1, 80767, Note_on_c, 7, 40, 100
1, 80797, Note_on_c, 7, 76, 0
1, 80797, Note_on_c, 7, 80, 100
1, 80827, Note_on_c, 7, 80, 0
1, 80827, Note_on_c, 7, 83, 100
1, 80857, Note_on_c, 7, 83, 0
1, 80857, Note_on_c, 7, 80, 100
1, 80887, Note_on_c, 7, 80, 0
1, 80887, Note_on_c, 7, 76, 100
1, 80887, Note_on_c, 7, 68, 0
1, 80887, Note_on_c, 7, 64, 0
1, 80887, Note_on_c, 7, 52, 0
1, 80887, Note_on_c, 7, 40, 0
1, 80917, Note_on_c, 7, 76, 0
1, 80917, Note_on_c, 7, 71, 100
1, 80947, Note_on_c, 7, 71, 0
1, 80947, Note_on_c, 7, 68, 100
1, 80977, Note_on_c, 7, 68, 0
1, 80977, Note_on_c, 7, 71, 100
1, 81007, Note_on_c, 7, 71, 0
1, 81007, Note_on_c, 7, 73, 100
1, 81007, Note_on_c, 7, 69, 100
1, 81007, Note_on_c, 7, 66, 100
1, 81007, Note_on_c, 7, 57, 100
1, 81007, Note_on_c, 7, 45, 100
1, 81037, Note_on_c, 7, 73, 0
1, 81037, Note_on_c, 7, 66, 0
1, 81037, Note_on_c, 7, 57, 0
1, 81037, Note_on_c, 7, 45, 0
1, 81067, Note_on_c, 7, 69, 0
1, 81067, Note_on_c, 7, 73, 100
1, 81097, Note_on_c, 7, 73, 0
1, 81097, Note_on_c, 7, 76, 100
1, 81127, Note_on_c, 7, 76, 0
1, 81127, Note_on_c, 7, 75, 100
1, 81127, Note_on_c, 7, 69, 100
1, 81127, Note_on_c, 7, 66, 100
1, 81127, Note_on_c, 7, 59, 100
1, 81127, Note_on_c, 7, 47, 100
1, 81157, Note_on_c, 7, 75, 0
1, 81157, Note_on_c, 7, 71, 100
1, 81157, Note_on_c, 7, 69, 0
1, 81157, Note_on_c, 7, 66, 0
1, 81157, Note_on_c, 7, 59, 0
1, 81157, Note_on_c, 7, 47, 0
1, 81187, Note_on_c, 7, 71, 0
1, 81187, Note_on_c, 7, 75, 100
1, 81217, Note_on_c, 7, 75, 0
1, 81217, Note_on_c, 7, 78, 100
1, 81247, Note_on_c, 7, 78, 0
1, 81247, Note_on_c, 7, 76, 100
1, 81247, Note_on_c, 7, 68, 100
1, 81247, Note_on_c, 7, 64, 100
1, 81247, Note_on_c, 7, 52, 100
1, 81247, Note_on_c, 7, 40, 100
1, 81277, Note_on_c, 7, 76, 0
1, 81277, Note_on_c, 7, 80, 100
1, 81307, Note_on_c, 7, 80, 0
1, 81307, Note_on_c, 7, 83, 100
1, 81337, Note_on_c, 7, 83, 0
1, 81337, Note_on_c, 7, 80, 100
1, 81367, Note_on_c, 7, 80, 0
1, 81367, Note_on_c, 7, 76, 100
1, 81367, Note_on_c, 7, 68, 0
1, 81367, Note_on_c, 7, 64, 0
1, 81367, Note_on_c, 7, 52, 0
1, 81367, Note_on_c, 7, 40, 0
1, 81397, Note_on_c, 7, 76, 0
1, 81397, Note_on_c, 7, 71, 100
1, 81427, Note_on_c, 7, 71, 0
1, 81427, Note_on_c, 7, 68, 100
1, 81457, Note_on_c, 7, 68, 0
1, 81457, Note_on_c, 7, 71, 100
1, 81487, Note_on_c, 7, 71, 0
1, 81487, Note_on_c, 7, 73, 100
1, 81487, Note_on_c, 7, 69, 100
1, 81487, Note_on_c, 7, 66, 100
1, 81487, Note_on_c, 7, 57, 100
1, 81487, Note_on_c, 7, 45, 100
1, 81517, Note_on_c, 7, 73, 0
1, 81517, Note_on_c, 7, 66, 0
1, 81517, Note_on_c, 7, 57, 0
1, 81517, Note_on_c, 7, 45, 0
1, 81547, Note_on_c, 7, 69, 0
1, 81547, Note_on_c, 7, 73, 100
1, 81577, Note_on_c, 7, 73, 0
1, 81577, Note_on_c, 7, 76, 100
1, 81607, Note_on_c, 7, 76, 0
1, 81607, Note_on_c, 7, 75, 100
1, 81607, Note_on_c, 7, 69, 100
1, 81607, Note_on_c, 7, 66, 100
1, 81607, Note_on_c, 7, 59, 100
1, 81607, Note_on_c, 7, 47, 100
1, 81637, Note_on_c, 7, 75, 0
1, 81637, Note_on_c, 7, 71, 100
1, 81637, Note_on_c, 7, 69, 0
1, 81637, Note_on_c, 7, 66, 0
1, 81637, Note_on_c, 7, 59, 0
1, 81637, Note_on_c, 7, 47, 0
1, 81667, Note_on_c, 7, 71, 0
1, 81667, Note_on_c, 7, 75, 100
1, 81697, Note_on_c, 7, 75, 0
1, 81697, Note_on_c, 7, 78, 100
1, 81727, Note_on_c, 4, 88, 80
1, 81727, Note_on_c, 4, 80, 80
1, 81727, Note_on_c, 5, 52, 80
1, 81727, Note_on_c, 6, 59, 80
1, 81727, Note_on_c, 6, 52, 80
1, 81727, Note_on_c, 7, 78, 0
1, 81727, Note_on_c, 7, 76, 100
1, 81727, Note_on_c, 7, 68, 100
1, 81727, Note_on_c, 7, 64, 100
1, 81727, Note_on_c, 7, 52, 100
1, 81727, Note_on_c, 7, 40, 100
1, 81757, Note_on_c, 7, 76, 0
1, 81757, Note_on_c, 7, 71, 100
1, 81787, Note_on_c, 5, 64, 80
1, 81787, Note_on_c, 5, 52, 0
1, 81787, Note_on_c, 7, 71, 0
1, 81787, Note_on_c, 7, 76, 100
1, 81787, Note_on_c, 7, 68, 0
1, 81787, Note_on_c, 7, 68, 100
1, 81787, Note_on_c, 7, 64, 0
1, 81787, Note_on_c, 7, 64, 100
1, 81787, Note_on_c, 7, 52, 0
1, 81787, Note_on_c, 7, 40, 0
1, 81787, Note_on_c, 7, 52, 100
1, 81817, Note_on_c, 7, 76, 0
1, 81817, Note_on_c, 7, 71, 100
1, 81817, Note_on_c, 7, 68, 0
1, 81847, Note_on_c, 4, 88, 0
1, 81847, Note_on_c, 4, 88, 80
1, 81847, Note_on_c, 4, 80, 0
1, 81847, Note_on_c, 4, 80, 80
1, 81847, Note_on_c, 6, 59, 0
1, 81847, Note_on_c, 6, 59, 80
1, 81847, Note_on_c, 6, 52, 0
1, 81847, Note_on_c, 6, 52, 80
1, 81847, Note_on_c, 7, 68, 100
1, 81847, Note_on_c, 7, 71, 0
1, 81847, Note_on_c, 7, 52, 0
1, 81847, Note_on_c, 7, 52, 100
1, 81877, Note_on_c, 7, 68, 0
1, 81907, Note_on_c, 7, 68, 100
1, 81907, Note_on_c, 7, 52, 0
1, 81907, Note_on_c, 7, 52, 100
1, 81937, Note_on_c, 4, 88, 0
1, 81937, Note_on_c, 4, 88, 80
1, 81937, Note_on_c, 4, 80, 0
1, 81937, Note_on_c, 4, 80, 80
1, 81937, Note_on_c, 6, 59, 0
1, 81937, Note_on_c, 6, 59, 80
1, 81937, Note_on_c, 6, 52, 0
1, 81937, Note_on_c, 6, 52, 80
1, 81937, Note_on_c, 7, 71, 100
1, 81937, Note_on_c, 7, 68, 0
1, 81967, Note_on_c, 4, 88, 0
1, 81967, Note_on_c, 4, 88, 80
1, 81967, Note_on_c, 4, 80, 0
1, 81967, Note_on_c, 4, 80, 80
1, 81967, Note_on_c, 5, 59, 80
1, 81967, Note_on_c, 5, 64, 0
1, 81967, Note_on_c, 6, 59, 0
1, 81967, Note_on_c, 6, 59, 80
1, 81967, Note_on_c, 6, 52, 0
1, 81967, Note_on_c, 6, 52, 80
1, 81967, Note_on_c, 7, 76, 100
1, 81967, Note_on_c, 7, 71, 0
1, 81967, Note_on_c, 7, 59, 100
1, 81967, Note_on_c, 7, 64, 0
1, 81967, Note_on_c, 7, 52, 0
1, 81967, Note_on_c, 7, 47, 100
1, 81997, Note_on_c, 7, 71, 100
1, 81997, Note_on_c, 7, 76, 0
1, 82027, Note_on_c, 4, 88, 0
1, 82027, Note_on_c, 4, 88, 80
1, 82027, Note_on_c, 4, 80, 0
1, 82027, Note_on_c, 4, 80, 80
1, 82027, Note_on_c, 5, 64, 80
1, 82027, Note_on_c, 5, 59, 0
1, 82027, Note_on_c, 6, 59, 0
1, 82027, Note_on_c, 6, 59, 80
1, 82027, Note_on_c, 6, 52, 0
1, 82027, Note_on_c, 6, 52, 80
1, 82027, Note_on_c, 7, 76, 100
1, 82027, Note_on_c, 7, 71, 0
1, 82027, Note_on_c, 7, 64, 100
1, 82027, Note_on_c, 7, 59, 0
1, 82027, Note_on_c, 7, 47, 0
1, 82027, Note_on_c, 7, 52, 100
1, 82057, Note_on_c, 7, 80, 100
1, 82057, Note_on_c, 7, 76, 0
1, 82087, Note_on_c, 4, 88, 0
1, 82087, Note_on_c, 4, 88, 80
1, 82087, Note_on_c, 4, 80, 0
1, 82087, Note_on_c, 4, 80, 80
1, 82087, Note_on_c, 5, 56, 80
1, 82087, Note_on_c, 5, 64, 0
1, 82087, Note_on_c, 6, 59, 0
1, 82087, Note_on_c, 6, 59, 80
1, 82087, Note_on_c, 6, 52, 0
1, 82087, Note_on_c, 6, 52, 80
1, 82087, Note_on_c, 7, 83, 100
1, 82087, Note_on_c, 7, 80, 0
1, 82087, Note_on_c, 7, 56, 100
1, 82087, Note_on_c, 7, 64, 0
1, 82087, Note_on_c, 7, 52, 0
1, 82087, Note_on_c, 7, 44, 100
1, 82117, Note_on_c, 7, 80, 100
1, 82117, Note_on_c, 7, 83, 0
1, 82147, Note_on_c, 4, 88, 0
1, 82147, Note_on_c, 4, 88, 80
1, 82147, Note_on_c, 4, 80, 0
1, 82147, Note_on_c, 4, 80, 80
1, 82147, Note_on_c, 5, 59, 80
1, 82147, Note_on_c, 5, 56, 0
1, 82147, Note_on_c, 6, 59, 0
1, 82147, Note_on_c, 6, 59, 80
1, 82147, Note_on_c, 6, 52, 0
1, 82147, Note_on_c, 6, 52, 80
1, 82147, Note_on_c, 7, 83, 100
1, 82147, Note_on_c, 7, 80, 0
1, 82147, Note_on_c, 7, 59, 100
1, 82147, Note_on_c, 7, 56, 0
1, 82147, Note_on_c, 7, 44, 0
1, 82147, Note_on_c, 7, 47, 100
1, 82177, Note_on_c, 7, 80, 100
1, 82177, Note_on_c, 7, 83, 0
1, 82207, Note_on_c, 4, 88, 0
1, 82207, Note_on_c, 4, 88, 80
1, 82207, Note_on_c, 4, 80, 0
1, 82207, Note_on_c, 4, 80, 80
1, 82207, Note_on_c, 5, 52, 80
1, 82207, Note_on_c, 5, 59, 0
1, 82207, Note_on_c, 6, 59, 0
1, 82207, Note_on_c, 6, 59, 80
1, 82207, Note_on_c, 6, 52, 0
1, 82207, Note_on_c, 6, 52, 80
1, 82207, Note_on_c, 7, 76, 100
1, 82207, Note_on_c, 7, 80, 0
1, 82207, Note_on_c, 7, 52, 100
1, 82207, Note_on_c, 7, 59, 0
1, 82207, Note_on_c, 7, 47, 0
1, 82207, Note_on_c, 7, 40, 100
1, 82267, Note_on_c, 4, 88, 0
1, 82267, Note_on_c, 4, 80, 0
1, 82267, Note_on_c, 5, 52, 0
1, 82267, Note_on_c, 6, 59, 0
1, 82267, Note_on_c, 6, 52, 0
1, 82267, Note_on_c, 7, 76, 0
1, 82267, Note_on_c, 7, 52, 0
1, 82267, Note_on_c, 7, 40, 0
1, 82327, Note_on_c, 4, 88, 80
1, 82327, Note_on_c, 4, 80, 80
1, 82327, Note_on_c, 5, 52, 80
1, 82327, Note_on_c, 6, 59, 80
1, 82327, Note_on_c, 6, 52, 80
1, 82327, Note_on_c, 7, 64, 100
1, 82327, Note_on_c, 7, 71, 100
1, 82327, Note_on_c, 7, 80, 100
1, 82327, Note_on_c, 7, 52, 100
1, 82327, Note_on_c, 7, 40, 100
1, 82387, Note_on_c, 4, 88, 0
1, 82387, Note_on_c, 4, 80, 0
1, 82387, Note_on_c, 5, 52, 0
1, 82387, Note_on_c, 6, 59, 0
1, 82387, Note_on_c, 6, 52, 0
1, 82387, Note_on_c, 7, 71, 0
1, 82387, Note_on_c, 7, 80, 0
1, 82387, Note_on_c, 7, 64, 0
1, 82387, Note_on_c, 7, 52, 0
1, 82387, Note_on_c, 7, 40, 0
1, 82447, Note_on_c, 4, 88, 80
1, 82447, Note_on_c, 4, 80, 80
1, 82447, Note_on_c, 5, 52, 80
1, 82447, Note_on_c, 6, 59, 80
1, 82447, Note_on_c, 6, 52, 80
1, 82447, Note_on_c, 7, 64, 100
1, 82447, Note_on_c, 7, 71, 100
1, 82447, Note_on_c, 7, 76, 100
1, 82447, Note_on_c, 7, 52, 100
1, 82447, Note_on_c, 7, 40, 100
1, 82507, Note_on_c, 4, 88, 0
1, 82507, Note_on_c, 4, 80, 0
1, 82507, Note_on_c, 5, 52, 0
1, 82507, Note_on_c, 6, 59, 0
1, 82507, Note_on_c, 6, 52, 0
1, 82507, Note_on_c, 7, 64, 0
1, 82507, Note_on_c, 7, 71, 0
1, 82507, Note_on_c, 7, 76, 0
1, 82507, Note_on_c, 7, 52, 0
1, 82507, Note_on_c, 7, 40, 0
1, 82687, Note_on_c, 3, 71, 127
1, 82687, Note_on_c, 7, 68, 100
1, 82687, Note_on_c, 7, 64, 100
1, 82927, Note_on_c, 3, 71, 0
1, 82927, Note_on_c, 3, 68, 127
1, 82927, Note_on_c, 7, 68, 0
1, 83107, Note_on_c, 3, 68, 0
1, 83107, Note_on_c, 3, 69, 127
1, 83107, Note_on_c, 7, 66, 100
1, 83167, Note_on_c, 3, 69, 0
1, 83167, Note_on_c, 3, 73, 127
1, 83167, Note_on_c, 7, 66, 0
1, 83167, Note_on_c, 7, 69, 100
1, 83227, Note_on_c, 3, 73, 0
1, 83227, Note_on_c, 3, 71, 127
1, 83227, Note_on_c, 7, 69, 0
1, 83227, Note_on_c, 7, 68, 100
1, 83287, Note_on_c, 3, 71, 0
1, 83287, Note_on_c, 3, 71, 127
1, 83287, Note_on_c, 7, 68, 0
1, 83287, Note_on_c, 7, 68, 100
1, 83317, Note_on_c, 7, 68, 0
1, 83347, Note_on_c, 7, 68, 100
1, 83377, Note_on_c, 7, 68, 0
1, 83407, Note_on_c, 7, 68, 100
1, 83467, Note_on_c, 3, 71, 0
1, 83467, Note_on_c, 3, 80, 127
1, 83527, Note_on_c, 3, 80, 0
1, 83527, Note_on_c, 3, 78, 127
1, 83527, Note_on_c, 7, 68, 0
1, 83527, Note_on_c, 7, 64, 0
1, 83587, Note_on_c, 3, 78, 0
1, 83587, Note_on_c, 3, 76, 127
1, 83647, Note_on_c, 3, 76, 0
1, 83647, Note_on_c, 3, 75, 127
1, 83647, Note_on_c, 7, 59, 100
1, 83647, Note_on_c, 7, 47, 100
1, 83707, Note_on_c, 3, 75, 0
1, 83707, Note_on_c, 3, 78, 127
1, 83767, Note_on_c, 3, 78, 0
1, 83767, Note_on_c, 3, 81, 127
1, 83767, Note_on_c, 7, 63, 100
1, 83947, Note_on_c, 3, 81, 0
1, 83947, Note_on_c, 3, 80, 127
1, 83947, Note_on_c, 7, 63, 0
1, 83947, Note_on_c, 7, 64, 100
1, 83947, Note_on_c, 7, 61, 100
1, 84007, Note_on_c, 3, 80, 0
1, 84007, Note_on_c, 3, 78, 127
1, 84007, Note_on_c, 7, 64, 0
1, 84007, Note_on_c, 7, 66, 100
1, 84007, Note_on_c, 7, 61, 0
1, 84007, Note_on_c, 7, 63, 100
1, 84067, Note_on_c, 3, 78, 0
1, 84067, Note_on_c, 3, 76, 127
1, 84067, Note_on_c, 7, 66, 0
1, 84067, Note_on_c, 7, 68, 100
1, 84067, Note_on_c, 7, 63, 0
1, 84067, Note_on_c, 7, 64, 100
1, 84127, Note_on_c, 3, 76, 0
1, 84127, Note_on_c, 3, 76, 127
1, 84127, Note_on_c, 7, 68, 0
1, 84127, Note_on_c, 7, 69, 100
1, 84127, Note_on_c, 7, 64, 0
1, 84127, Note_on_c, 7, 66, 100
1, 84127, Note_on_c, 7, 35, 100
1, 84187, Note_on_c, 3, 76, 0
1, 84187, Note_on_c, 3, 75, 127
1, 84187, Note_on_c, 7, 69, 0
1, 84187, Note_on_c, 7, 66, 0
1, 84247, Note_on_c, 3, 75, 0
1, 84247, Note_on_c, 3, 73, 127
1, 84247, Note_on_c, 7, 66, 100
1, 84247, Note_on_c, 7, 63, 100
1, 84247, Note_on_c, 7, 59, 0
1, 84247, Note_on_c, 7, 47, 0
1, 84247, Note_on_c, 7, 35, 0
1, 84307, Note_on_c, 3, 73, 0
1, 84307, Note_on_c, 3, 71, 127
1, 84307, Note_on_c, 7, 66, 0
1, 84307, Note_on_c, 7, 63, 0
1, 84367, Note_on_c, 3, 71, 0
1, 84367, Note_on_c, 3, 70, 127
1, 84367, Note_on_c, 7, 59, 100
1, 84367, Note_on_c, 7, 47, 100
1, 84367, Note_on_c, 7, 35, 100
1, 84427, Note_on_c, 3, 70, 0
1, 84427, Note_on_c, 3, 71, 127
1, 84487, Note_on_c, 3, 71, 0
1, 84487, Note_on_c, 3, 73, 127
1, 84487, Note_on_c, 7, 69, 100
1, 84487, Note_on_c, 7, 66, 100
1, 84487, Note_on_c, 7, 59, 0
1, 84487, Note_on_c, 7, 47, 0
1, 84487, Note_on_c, 7, 35, 0
1, 84547, Note_on_c, 3, 73, 0
1, 84547, Note_on_c, 3, 75, 127
1, 84607, Note_on_c, 3, 75, 0
1, 84607, Note_on_c, 3, 76, 127
1, 84607, Note_on_c, 7, 69, 0
1, 84607, Note_on_c, 7, 68, 100
1, 84607, Note_on_c, 7, 66, 0
1, 84607, Note_on_c, 7, 64, 100
1, 84607, Note_on_c, 7, 52, 100
1, 84607, Note_on_c, 7, 40, 100
1, 84727, Note_on_c, 7, 52, 0
1, 84727, Note_on_c, 7, 40, 0
1, 84847, Note_on_c, 3, 76, 0
1, 84847, Note_on_c, 3, 68, 127
1, 84847, Note_on_c, 7, 68, 0
1, 85027, Note_on_c, 3, 68, 0
1, 85027, Note_on_c, 3, 69, 127
1, 85027, Note_on_c, 7, 66, 100
1, 85087, Note_on_c, 3, 69, 0
1, 85087, Note_on_c, 3, 73, 127
1, 85087, Note_on_c, 7, 66, 0
1, 85087, Note_on_c, 7, 69, 100
1, 85147, Note_on_c, 3, 73, 0
1, 85147, Note_on_c, 3, 71, 127
1, 85147, Note_on_c, 7, 69, 0
1, 85147, Note_on_c, 7, 68, 100
1, 85207, Note_on_c, 3, 71, 0
1, 85207, Note_on_c, 3, 71, 127
1, 85207, Note_on_c, 7, 68, 0
1, 85207, Note_on_c, 7, 68, 100
1, 85237, Note_on_c, 7, 68, 0
1, 85267, Note_on_c, 7, 68, 100
1, 85297, Note_on_c, 7, 68, 0
1, 85327, Note_on_c, 7, 68, 100
1, 85387, Note_on_c, 3, 71, 0
1, 85387, Note_on_c, 3, 80, 127
1, 85447, Note_on_c, 3, 80, 0
1, 85447, Note_on_c, 3, 78, 127
1, 85447, Note_on_c, 7, 68, 0
1, 85447, Note_on_c, 7, 64, 0
1, 85507, Note_on_c, 3, 78, 0
1, 85507, Note_on_c, 3, 76, 127
1, 85567, Note_on_c, 3, 76, 0
1, 85567, Note_on_c, 3, 75, 127
1, 85567, Note_on_c, 7, 59, 100
1, 85567, Note_on_c, 7, 47, 100
1, 85627, Note_on_c, 3, 75, 0
1, 85627, Note_on_c, 3, 78, 127
1, 85687, Note_on_c, 3, 78, 0
1, 85687, Note_on_c, 3, 81, 127
1, 85687, Note_on_c, 7, 63, 100
1, 85867, Note_on_c, 3, 81, 0
1, 85867, Note_on_c, 3, 80, 127
1, 85867, Note_on_c, 7, 63, 0
1, 85867, Note_on_c, 7, 64, 100
1, 85867, Note_on_c, 7, 61, 100
1, 85927, Note_on_c, 3, 80, 0
1, 85927, Note_on_c, 3, 78, 127
1, 85927, Note_on_c, 7, 64, 0
1, 85927, Note_on_c, 7, 66, 100
1, 85927, Note_on_c, 7, 61, 0
1, 85927, Note_on_c, 7, 63, 100
1, 85987, Note_on_c, 3, 78, 0
1, 85987, Note_on_c, 3, 76, 127
1, 85987, Note_on_c, 7, 66, 0
1, 85987, Note_on_c, 7, 68, 100
1, 85987, Note_on_c, 7, 63, 0
1, 85987, Note_on_c, 7, 64, 100
1, 86047, Note_on_c, 3, 76, 0
1, 86047, Note_on_c, 3, 76, 127
1, 86047, Note_on_c, 7, 68, 0
1, 86047, Note_on_c, 7, 69, 100
1, 86047, Note_on_c, 7, 64, 0
1, 86047, Note_on_c, 7, 66, 100
1, 86047, Note_on_c, 7, 35, 100
1, 86107, Note_on_c, 3, 76, 0
1, 86107, Note_on_c, 3, 75, 127
1, 86107, Note_on_c, 7, 69, 0
1, 86107, Note_on_c, 7, 66, 0
1, 86167, Note_on_c, 3, 75, 0
1, 86167, Note_on_c, 3, 73, 127
1, 86167, Note_on_c, 7, 66, 100
1, 86167, Note_on_c, 7, 63, 100
1, 86167, Note_on_c, 7, 59, 0
1, 86167, Note_on_c, 7, 47, 0
1, 86167, Note_on_c, 7, 35, 0
1, 86227, Note_on_c, 3, 73, 0
1, 86227, Note_on_c, 3, 71, 127
1, 86227, Note_on_c, 7, 66, 0
1, 86227, Note_on_c, 7, 63, 0
1, 86287, Note_on_c, 3, 71, 0
1, 86287, Note_on_c, 3, 70, 127
1, 86287, Note_on_c, 7, 59, 100
1, 86287, Note_on_c, 7, 47, 100
1, 86287, Note_on_c, 7, 35, 100
1, 86347, Note_on_c, 3, 70, 0
1, 86347, Note_on_c, 3, 71, 127
1, 86407, Note_on_c, 3, 71, 0
1, 86407, Note_on_c, 3, 73, 127
1, 86407, Note_on_c, 7, 69, 100
1, 86407, Note_on_c, 7, 66, 100
1, 86407, Note_on_c, 7, 59, 0
1, 86407, Note_on_c, 7, 47, 0
1, 86407, Note_on_c, 7, 35, 0
1, 86467, Note_on_c, 3, 73, 0
1, 86467, Note_on_c, 3, 75, 127
1, 86527, Note_on_c, 3, 75, 0
1, 86527, Note_on_c, 3, 76, 127
1, 86527, Note_on_c, 7, 69, 0
1, 86527, Note_on_c, 7, 68, 100
1, 86527, Note_on_c, 7, 66, 0
1, 86527, Note_on_c, 7, 64, 100
1, 86527, Note_on_c, 7, 59, 100
1, 86527, Note_on_c, 7, 52, 100
1, 86527, Note_on_c, 7, 40, 100
1, 86587, Note_on_c, 7, 68, 0
1, 86587, Note_on_c, 7, 71, 100
1, 86587, Note_on_c, 7, 64, 0
1, 86587, Note_on_c, 7, 68, 100
1, 86587, Note_on_c, 7, 59, 0
1, 86587, Note_on_c, 7, 59, 100
1, 86587, Note_on_c, 7, 52, 0
1, 86587, Note_on_c, 7, 52, 100
1, 86587, Note_on_c, 7, 40, 0
1, 86587, Note_on_c, 7, 40, 100
1, 86647, Note_on_c, 3, 76, 0
1, 86647, Note_on_c, 7, 71, 0
1, 86647, Note_on_c, 7, 64, 100
1, 86647, Note_on_c, 7, 59, 0
1, 86647, Note_on_c, 7, 59, 100
1, 86647, Note_on_c, 7, 52, 0
1, 86647, Note_on_c, 7, 52, 100
1, 86647, Note_on_c, 7, 40, 0
1, 86647, Note_on_c, 7, 40, 100
1, 86707, Note_on_c, 3, 64, 127
1, 86737, Note_on_c, 3, 64, 0
1, 86737, Note_on_c, 3, 66, 127
1, 86767, Note_on_c, 3, 66, 0
1, 86767, Note_on_c, 3, 68, 127
1, 86767, Note_on_c, 7, 68, 0
1, 86767, Note_on_c, 7, 64, 0
1, 86767, Note_on_c, 7, 59, 0
1, 86767, Note_on_c, 7, 52, 0
1, 86767, Note_on_c, 7, 40, 0
1, 86797, Note_on_c, 3, 68, 0
1, 86797, Note_on_c, 3, 69, 127
1, 86827, Note_on_c, 3, 69, 0
1, 86827, Note_on_c, 3, 71, 127
1, 86857, Note_on_c, 3, 71, 0
1, 86857, Note_on_c, 3, 73, 127
1, 86887, Note_on_c, 3, 73, 0
1, 86887, Note_on_c, 3, 75, 127
1, 86917, Note_on_c, 3, 75, 0
1, 86917, Note_on_c, 3, 76, 127
1, 86947, Note_on_c, 3, 76, 0
1, 86947, Note_on_c, 3, 78, 127
1, 86977, Note_on_c, 3, 78, 0
1, 86977, Note_on_c, 3, 80, 127
1, 87007, Note_on_c, 3, 80, 0
1, 87007, Note_on_c, 3, 81, 127
1, 87007, Note_on_c, 7, 59, 100
1, 87007, Note_on_c, 7, 47, 100
1, 87007, Note_on_c, 7, 35, 100
1, 87037, Note_on_c, 3, 81, 0
1, 87037, Note_on_c, 3, 83, 127
1, 87067, Note_on_c, 3, 83, 0
1, 87067, Note_on_c, 3, 81, 127
1, 87097, Note_on_c, 3, 81, 0
1, 87097, Note_on_c, 3, 80, 127
1, 87127, Note_on_c, 3, 80, 0
1, 87127, Note_on_c, 3, 78, 127
1, 87127, Note_on_c, 7, 69, 100
1, 87127, Note_on_c, 7, 63, 100
1, 87127, Note_on_c, 7, 59, 0
1, 87127, Note_on_c, 7, 47, 0
1, 87127, Note_on_c, 7, 35, 0
1, 87157, Note_on_c, 3, 78, 0
1, 87157, Note_on_c, 3, 76, 127
1, 87187, Note_on_c, 3, 76, 0
1, 87187, Note_on_c, 3, 75, 127
1, 87217, Note_on_c, 3, 75, 0
1, 87217, Note_on_c, 3, 73, 127
1, 87247, Note_on_c, 3, 73, 0
1, 87247, Note_on_c, 3, 71, 127
1, 87247, Note_on_c, 7, 69, 0
1, 87247, Note_on_c, 7, 63, 0
1, 87247, Note_on_c, 7, 59, 100
1, 87247, Note_on_c, 7, 47, 100
1, 87247, Note_on_c, 7, 35, 100
1, 87277, Note_on_c, 3, 71, 0
1, 87277, Note_on_c, 3, 75, 127
1, 87307, Note_on_c, 3, 75, 0
1, 87307, Note_on_c, 3, 78, 127
1, 87337, Note_on_c, 3, 78, 0
1, 87337, Note_on_c, 3, 76, 127
1, 87367, Note_on_c, 3, 76, 0
1, 87367, Note_on_c, 3, 75, 127
1, 87367, Note_on_c, 7, 66, 100
1, 87367, Note_on_c, 7, 63, 100
1, 87367, Note_on_c, 7, 59, 0
1, 87367, Note_on_c, 7, 47, 0
1, 87367, Note_on_c, 7, 35, 0
1, 87397, Note_on_c, 3, 75, 0
1, 87397, Note_on_c, 3, 73, 127
1, 87427, Note_on_c, 3, 73, 0
1, 87427, Note_on_c, 3, 71, 127
1, 87457, Note_on_c, 3, 71, 0
1, 87457, Note_on_c, 3, 69, 127
1, 87487, Note_on_c, 3, 69, 0
1, 87487, Note_on_c, 3, 68, 127
1, 87487, Note_on_c, 7, 66, 0
1, 87487, Note_on_c, 7, 68, 100
1, 87487, Note_on_c, 7, 63, 0
1, 87487, Note_on_c, 7, 64, 100
1, 87487, Note_on_c, 7, 59, 100
1, 87487, Note_on_c, 7, 52, 100
1, 87487, Note_on_c, 7, 40, 100
1, 87547, Note_on_c, 7, 68, 0
1, 87547, Note_on_c, 7, 71, 100
1, 87547, Note_on_c, 7, 64, 0
1, 87547, Note_on_c, 7, 64, 100
1, 87547, Note_on_c, 7, 59, 0
1, 87547, Note_on_c, 7, 59, 100
1, 87547, Note_on_c, 7, 52, 0
1, 87547, Note_on_c, 7, 52, 100
1, 87547, Note_on_c, 7, 40, 0
1, 87547, Note_on_c, 7, 40, 100
1, 87607, Note_on_c, 3, 68, 0
1, 87607, Note_on_c, 7, 71, 0
1, 87607, Note_on_c, 7, 68, 100
1, 87607, Note_on_c, 7, 64, 0
1, 87607, Note_on_c, 7, 64, 100
1, 87607, Note_on_c, 7, 59, 0
1, 87607, Note_on_c, 7, 59, 100
1, 87607, Note_on_c, 7, 52, 0
1, 87607, Note_on_c, 7, 52, 100
1, 87607, Note_on_c, 7, 40, 0
1, 87607, Note_on_c, 7, 40, 100
1, 87667, Note_on_c, 3, 64, 127
1, 87697, Note_on_c, 3, 64, 0
1, 87697, Note_on_c, 3, 66, 127
1, 87727, Note_on_c, 3, 66, 0
1, 87727, Note_on_c, 3, 68, 127
1, 87727, Note_on_c, 7, 68, 0
1, 87727, Note_on_c, 7, 64, 0
1, 87727, Note_on_c, 7, 59, 0
1, 87727, Note_on_c, 7, 52, 0
1, 87727, Note_on_c, 7, 40, 0
1, 87757, Note_on_c, 3, 68, 0
1, 87757, Note_on_c, 3, 69, 127
1, 87787, Note_on_c, 3, 69, 0
1, 87787, Note_on_c, 3, 71, 127
1, 87817, Note_on_c, 3, 71, 0
1, 87817, Note_on_c, 3, 73, 127
1, 87847, Note_on_c, 3, 73, 0
1, 87847, Note_on_c, 3, 75, 127
1, 87877, Note_on_c, 3, 75, 0
1, 87877, Note_on_c, 3, 76, 127
1, 87907, Note_on_c, 3, 76, 0
1, 87907, Note_on_c, 3, 78, 127
1, 87937, Note_on_c, 3, 78, 0
1, 87937, Note_on_c, 3, 80, 127
1, 87967, Note_on_c, 3, 80, 0
1, 87967, Note_on_c, 3, 81, 127
1, 87967, Note_on_c, 7, 59, 100
1, 87967, Note_on_c, 7, 47, 100
1, 87967, Note_on_c, 7, 35, 100
1, 87997, Note_on_c, 3, 81, 0
1, 87997, Note_on_c, 3, 83, 127
1, 88027, Note_on_c, 3, 83, 0
1, 88027, Note_on_c, 3, 81, 127
1, 88057, Note_on_c, 3, 81, 0
1, 88057, Note_on_c, 3, 80, 127
1, 88087, Note_on_c, 3, 80, 0
1, 88087, Note_on_c, 3, 78, 127
1, 88087, Note_on_c, 7, 69, 100
1, 88087, Note_on_c, 7, 63, 100
1, 88087, Note_on_c, 7, 59, 0
1, 88087, Note_on_c, 7, 47, 0
1, 88087, Note_on_c, 7, 35, 0
1, 88117, Note_on_c, 3, 78, 0
1, 88117, Note_on_c, 3, 76, 127
1, 88147, Note_on_c, 3, 76, 0
1, 88147, Note_on_c, 3, 75, 127
1, 88177, Note_on_c, 3, 75, 0
1, 88177, Note_on_c, 3, 73, 127
1, 88207, Note_on_c, 3, 73, 0
1, 88207, Note_on_c, 3, 71, 127
1, 88207, Note_on_c, 7, 69, 0
1, 88207, Note_on_c, 7, 63, 0
1, 88207, Note_on_c, 7, 59, 100
1, 88207, Note_on_c, 7, 47, 100
1, 88207, Note_on_c, 7, 35, 100
1, 88237, Note_on_c, 3, 71, 0
1, 88237, Note_on_c, 3, 75, 127
1, 88267, Note_on_c, 3, 75, 0
1, 88267, Note_on_c, 3, 78, 127
1, 88297, Note_on_c, 3, 78, 0
1, 88297, Note_on_c, 3, 76, 127
1, 88327, Note_on_c, 3, 76, 0
1, 88327, Note_on_c, 3, 75, 127
1, 88327, Note_on_c, 7, 66, 100
1, 88327, Note_on_c, 7, 63, 100
1, 88327, Note_on_c, 7, 59, 0
1, 88327, Note_on_c, 7, 47, 0
1, 88327, Note_on_c, 7, 35, 0
1, 88357, Note_on_c, 3, 75, 0
1, 88357, Note_on_c, 3, 73, 127
1, 88387, Note_on_c, 3, 73, 0
1, 88387, Note_on_c, 3, 71, 127
1, 88417, Note_on_c, 3, 71, 0
1, 88417, Note_on_c, 3, 69, 127
1, 88447, Note_on_c, 3, 69, 0
1, 88447, Note_on_c, 3, 68, 127
1, 88447, Note_on_c, 7, 66, 0
1, 88447, Note_on_c, 7, 68, 100
1, 88447, Note_on_c, 7, 63, 0
1, 88447, Note_on_c, 7, 64, 100
1, 88447, Note_on_c, 7, 59, 100
1, 88447, Note_on_c, 7, 52, 100
1, 88447, Note_on_c, 7, 40, 100
1, 88507, Note_on_c, 7, 68, 0
1, 88507, Note_on_c, 7, 71, 100
1, 88507, Note_on_c, 7, 64, 0
1, 88507, Note_on_c, 7, 64, 100
1, 88507, Note_on_c, 7, 59, 0
1, 88507, Note_on_c, 7, 59, 100
1, 88507, Note_on_c, 7, 52, 0
1, 88507, Note_on_c, 7, 52, 100
1, 88507, Note_on_c, 7, 40, 0
1, 88507, Note_on_c, 7, 40, 100
1, 88567, Note_on_c, 3, 68, 0
1, 88567, Note_on_c, 7, 71, 0
1, 88567, Note_on_c, 7, 68, 100
1, 88567, Note_on_c, 7, 64, 0
1, 88567, Note_on_c, 7, 64, 100
1, 88567, Note_on_c, 7, 59, 0
1, 88567, Note_on_c, 7, 52, 0
1, 88567, Note_on_c, 7, 52, 100
1, 88567, Note_on_c, 7, 40, 0
1, 88567, Note_on_c, 7, 40, 100
1, 88597, Note_on_c, 3, 64, 127
1, 88627, Note_on_c, 3, 64, 0
1, 88627, Note_on_c, 3, 66, 127
1, 88657, Note_on_c, 3, 66, 0
1, 88657, Note_on_c, 3, 68, 127
1, 88687, Note_on_c, 3, 68, 0
1, 88687, Note_on_c, 3, 69, 127
1, 88687, Note_on_c, 7, 68, 0
1, 88687, Note_on_c, 7, 64, 0
1, 88687, Note_on_c, 7, 52, 0
1, 88687, Note_on_c, 7, 40, 0
1, 88717, Note_on_c, 3, 69, 0
1, 88717, Note_on_c, 3, 71, 127
1, 88747, Note_on_c, 3, 71, 0
1, 88747, Note_on_c, 3, 73, 127
1, 88777, Note_on_c, 3, 73, 0
1, 88777, Note_on_c, 3, 75, 127
1, 88807, Note_on_c, 3, 75, 0
1, 88807, Note_on_c, 3, 76, 127
1, 88837, Note_on_c, 3, 76, 0
1, 88837, Note_on_c, 3, 78, 127
1, 88867, Note_on_c, 3, 78, 0
1, 88867, Note_on_c, 3, 76, 127
1, 88897, Note_on_c, 3, 76, 0
1, 88897, Note_on_c, 3, 75, 127
1, 88927, Note_on_c, 3, 75, 0
1, 88927, Note_on_c, 3, 76, 127
1, 88927, Note_on_c, 7, 71, 100
1, 88927, Note_on_c, 7, 68, 100
1, 88927, Note_on_c, 7, 64, 100
1, 88927, Note_on_c, 7, 52, 100
1, 88927, Note_on_c, 7, 40, 100
1, 88987, Note_on_c, 7, 71, 0
1, 88987, Note_on_c, 7, 71, 100
1, 88987, Note_on_c, 7, 68, 0
1, 88987, Note_on_c, 7, 68, 100
1, 88987, Note_on_c, 7, 64, 0
1, 88987, Note_on_c, 7, 64, 100
1, 88987, Note_on_c, 7, 52, 0
1, 88987, Note_on_c, 7, 52, 100
1, 88987, Note_on_c, 7, 40, 0
1, 88987, Note_on_c, 7, 40, 100
1, 89047, Note_on_c, 3, 76, 0
1, 89047, Note_on_c, 7, 71, 0
1, 89047, Note_on_c, 7, 71, 100
1, 89047, Note_on_c, 7, 68, 0
1, 89047, Note_on_c, 7, 68, 100
1, 89047, Note_on_c, 7, 64, 0
1, 89047, Note_on_c, 7, 64, 100
1, 89047, Note_on_c, 7, 52, 0
1, 89047, Note_on_c, 7, 52, 100
1, 89047, Note_on_c, 7, 40, 0
1, 89047, Note_on_c, 7, 40, 100
1, 89077, Note_on_c, 3, 68, 127
1, 89107, Note_on_c, 3, 68, 0
1, 89107, Note_on_c, 3, 69, 127
1, 89137, Note_on_c, 3, 69, 0
1, 89137, Note_on_c, 3, 71, 127
1, 89167, Note_on_c, 3, 71, 0
1, 89167, Note_on_c, 3, 73, 127
1, 89167, Note_on_c, 7, 71, 0
1, 89167, Note_on_c, 7, 68, 0
1, 89167, Note_on_c, 7, 64, 0
1, 89167, Note_on_c, 7, 52, 0
1, 89167, Note_on_c, 7, 40, 0
1, 89197, Note_on_c, 3, 73, 0
1, 89197, Note_on_c, 3, 75, 127
1, 89227, Note_on_c, 3, 75, 0
1, 89227, Note_on_c, 3, 76, 127
1, 89257, Note_on_c, 3, 76, 0
1, 89257, Note_on_c, 3, 78, 127
1, 89287, Note_on_c, 3, 78, 0
1, 89287, Note_on_c, 3, 80, 127
1, 89317, Note_on_c, 3, 80, 0
1, 89317, Note_on_c, 3, 81, 127
1, 89347, Note_on_c, 3, 81, 0
1, 89347, Note_on_c, 3, 80, 127
1, 89377, Note_on_c, 3, 80, 0
1, 89377, Note_on_c, 3, 78, 127
1, 89407, Note_on_c, 3, 78, 0
1, 89407, Note_on_c, 3, 80, 127
1, 89407, Note_on_c, 7, 76, 100
1, 89407, Note_on_c, 7, 71, 100
1, 89407, Note_on_c, 7, 68, 100
1, 89407, Note_on_c, 7, 52, 100
1, 89407, Note_on_c, 7, 40, 100
1, 89467, Note_on_c, 7, 76, 0
1, 89467, Note_on_c, 7, 76, 100
1, 89467, Note_on_c, 7, 71, 0
1, 89467, Note_on_c, 7, 71, 100
1, 89467, Note_on_c, 7, 68, 0
1, 89467, Note_on_c, 7, 68, 100
1, 89467, Note_on_c, 7, 52, 0
1, 89467, Note_on_c, 7, 52, 100
1, 89467, Note_on_c, 7, 40, 0
1, 89467, Note_on_c, 7, 40, 100
1, 89527, Note_on_c, 3, 80, 0
1, 89527, Note_on_c, 7, 76, 0
1, 89527, Note_on_c, 7, 76, 100
1, 89527, Note_on_c, 7, 71, 0
1, 89527, Note_on_c, 7, 71, 100
1, 89527, Note_on_c, 7, 68, 0
1, 89527, Note_on_c, 7, 68, 100
1, 89527, Note_on_c, 7, 52, 0
1, 89527, Note_on_c, 7, 52, 100
1, 89527, Note_on_c, 7, 40, 0
1, 89527, Note_on_c, 7, 40, 100
1, 89557, Note_on_c, 3, 71, 127
1, 89587, Note_on_c, 3, 71, 0
1, 89587, Note_on_c, 3, 73, 127
1, 89617, Note_on_c, 3, 73, 0
1, 89617, Note_on_c, 3, 75, 127
1, 89647, Note_on_c, 3, 75, 0
1, 89647, Note_on_c, 3, 76, 127
1, 89647, Note_on_c, 7, 76, 0
1, 89647, Note_on_c, 7, 71, 0
1, 89647, Note_on_c, 7, 68, 0
1, 89647, Note_on_c, 7, 52, 0
1, 89647, Note_on_c, 7, 40, 0
1, 89677, Note_on_c, 3, 76, 0
1, 89677, Note_on_c, 3, 75, 127
1, 89707, Note_on_c, 3, 75, 0
1, 89707, Note_on_c, 3, 78, 127
1, 89737, Note_on_c, 3, 78, 0
1, 89737, Note_on_c, 3, 76, 127
1, 89767, Note_on_c, 3, 76, 0
1, 89767, Note_on_c, 3, 80, 127
1, 89797, Note_on_c, 3, 80, 0
1, 89797, Note_on_c, 3, 78, 127
1, 89827, Note_on_c, 3, 78, 0
1, 89827, Note_on_c, 3, 81, 127
1, 89857, Note_on_c, 3, 81, 0
1, 89857, Note_on_c, 3, 80, 127
1, 89887, Note_on_c, 3, 80, 0
1, 89887, Note_on_c, 3, 83, 127
1, 90007, Note_on_c, 7, 66, 100
1, 90007, Note_on_c, 7, 56, 100
1, 90007, Note_on_c, 7, 59, 100
1, 90007, Note_on_c, 7, 50, 100
1, 90007, Note_on_c, 7, 38, 100
1, 90127, Note_on_c, 7, 66, 0
1, 90127, Note_on_c, 7, 65, 100
1, 90127, Note_on_c, 7, 50, 0
1, 90127, Note_on_c, 7, 49, 100
1, 90127, Note_on_c, 7, 38, 0
1, 90127, Note_on_c, 7, 37, 100
1, 90247, Note_on_c, 7, 65, 0
1, 90247, Note_on_c, 7, 66, 100
1, 90247, Note_on_c, 7, 56, 0
1, 90247, Note_on_c, 7, 56, 100
1, 90247, Note_on_c, 7, 59, 0
1, 90247, Note_on_c, 7, 59, 100
1, 90247, Note_on_c, 7, 49, 0
1, 90247, Note_on_c, 7, 50, 100
1, 90247, Note_on_c, 7, 37, 0
1, 90247, Note_on_c, 7, 38, 100
1, 90367, Note_on_c, 7, 66, 0
1, 90367, Note_on_c, 7, 65, 100
1, 90367, Note_on_c, 7, 56, 0
1, 90367, Note_on_c, 7, 56, 100
1, 90367, Note_on_c, 7, 59, 0
1, 90367, Note_on_c, 7, 59, 100
1, 90367, Note_on_c, 7, 50, 0
1, 90367, Note_on_c, 7, 49, 100
1, 90367, Note_on_c, 7, 38, 0
1, 90367, Note_on_c, 7, 37, 100
1, 90427, Note_on_c, 3, 83, 0
1, 90427, Note_on_c, 3, 80, 127
1, 90427, Note_on_c, 7, 65, 0
1, 90427, Note_on_c, 7, 56, 0
1, 90427, Note_on_c, 7, 59, 0
1, 90427, Note_on_c, 7, 49, 0
1, 90427, Note_on_c, 7, 37, 0
1, 90487, Note_on_c, 7, 65, 100
1, 90487, Note_on_c, 7, 56, 100
1, 90487, Note_on_c, 7, 59, 100
1, 90487, Note_on_c, 7, 49, 100
1, 90487, Note_on_c, 7, 37, 100
1, 90547, Note_on_c, 3, 80, 0
1, 90547, Note_on_c, 3, 77, 127
1, 90547, Note_on_c, 7, 65, 0
1, 90547, Note_on_c, 7, 56, 0
1, 90547, Note_on_c, 7, 59, 0
1, 90547, Note_on_c, 7, 49, 0
1, 90547, Note_on_c, 7, 37, 0
1, 90607, Note_on_c, 7, 65, 100
1, 90607, Note_on_c, 7, 56, 100
1, 90607, Note_on_c, 7, 59, 100
1, 90607, Note_on_c, 7, 49, 100
1, 90607, Note_on_c, 7, 37, 100
1, 90667, Note_on_c, 3, 77, 0
1, 90667, Note_on_c, 3, 74, 127
1, 90667, Note_on_c, 7, 65, 0
1, 90667, Note_on_c, 7, 56, 0
1, 90667, Note_on_c, 7, 59, 0
1, 90667, Note_on_c, 7, 49, 0
1, 90667, Note_on_c, 7, 37, 0
1, 90727, Note_on_c, 7, 65, 100
1, 90727, Note_on_c, 7, 56, 100
1, 90727, Note_on_c, 7, 59, 100
1, 90727, Note_on_c, 7, 49, 100
1, 90727, Note_on_c, 7, 37, 100
1, 90787, Note_on_c, 3, 74, 0
1, 90787, Note_on_c, 3, 71, 127
1, 90787, Note_on_c, 7, 65, 0
1, 90787, Note_on_c, 7, 56, 0
1, 90787, Note_on_c, 7, 59, 0
1, 90787, Note_on_c, 7, 49, 0
1, 90787, Note_on_c, 7, 37, 0
1, 90847, Note_on_c, 7, 65, 100
1, 90847, Note_on_c, 7, 56, 100
1, 90847, Note_on_c, 7, 59, 100
1, 90847, Note_on_c, 7, 49, 100
1, 90847, Note_on_c, 7, 37, 100
1, 90907, Note_on_c, 3, 71, 0
1, 90907, Note_on_c, 3, 68, 127
1, 90907, Note_on_c, 7, 65, 0
1, 90907, Note_on_c, 7, 56, 0
1, 90907, Note_on_c, 7, 59, 0
1, 90907, Note_on_c, 7, 49, 0
1, 90907, Note_on_c, 7, 37, 0
1, 90967, Note_on_c, 7, 65, 100
1, 90967, Note_on_c, 7, 56, 100
1, 90967, Note_on_c, 7, 59, 100
1, 90967, Note_on_c, 7, 49, 100
1, 90967, Note_on_c, 7, 37, 100
1, 91027, Note_on_c, 3, 68, 0
1, 91027, Note_on_c, 3, 65, 127
1, 91027, Note_on_c, 7, 65, 0
1, 91027, Note_on_c, 7, 56, 0
1, 91027, Note_on_c, 7, 59, 0
1, 91027, Note_on_c, 7, 49, 0
1, 91027, Note_on_c, 7, 37, 0
1, 91087, Note_on_c, 3, 65, 0
1, 91087, Note_on_c, 3, 61, 127
1, 91087, Note_on_c, 7, 65, 100
1, 91087, Note_on_c, 7, 56, 100
1, 91087, Note_on_c, 7, 59, 100
1, 91087, Note_on_c, 7, 49, 100
1, 91087, Note_on_c, 7, 37, 100
1, 91147, Note_on_c, 3, 61, 0
1, 91147, Note_on_c, 3, 59, 127
1, 91147, Note_on_c, 7, 65, 0
1, 91147, Note_on_c, 7, 56, 0
1, 91147, Note_on_c, 7, 59, 0
1, 91147, Note_on_c, 7, 49, 0
1, 91147, Note_on_c, 7, 37, 0
1, 91207, Note_on_c, 3, 59, 0
1, 91207, Note_on_c, 3, 57, 127
1, 91207, Note_on_c, 7, 65, 100
1, 91207, Note_on_c, 7, 56, 100
1, 91207, Note_on_c, 7, 59, 100
1, 91207, Note_on_c, 7, 49, 100
1, 91207, Note_on_c, 7, 37, 100
1, 91267, Note_on_c, 3, 57, 0
1, 91267, Note_on_c, 3, 56, 127
1, 91267, Note_on_c, 7, 65, 0
1, 91267, Note_on_c, 7, 56, 0
1, 91267, Note_on_c, 7, 59, 0
1, 91267, Note_on_c, 7, 49, 0
1, 91267, Note_on_c, 7, 37, 0
1, 91327, Note_on_c, 3, 56, 0
1, 91327, Note_on_c, 3, 54, 127
1, 91327, Note_on_c, 7, 66, 100
1, 91327, Note_on_c, 7, 57, 100
1, 91327, Note_on_c, 7, 54, 100
1, 91327, Note_on_c, 7, 42, 100
1, 91387, Note_on_c, 7, 66, 0
1, 91387, Note_on_c, 7, 69, 100
1, 91387, Note_on_c, 7, 66, 100
1, 91447, Note_on_c, 3, 54, 0
1, 91447, Note_on_c, 3, 52, 127
1, 91447, Note_on_c, 7, 57, 0
1, 91447, Note_on_c, 7, 54, 0
1, 91447, Note_on_c, 7, 42, 0
1, 91507, Note_on_c, 7, 69, 0
1, 91507, Note_on_c, 7, 69, 100
1, 91507, Note_on_c, 7, 66, 0
1, 91507, Note_on_c, 7, 66, 100
1, 91567, Note_on_c, 3, 52, 0
1, 91567, Note_on_c, 3, 50, 127
1, 91627, Note_on_c, 7, 69, 0
1, 91627, Note_on_c, 7, 69, 100
1, 91627, Note_on_c, 7, 66, 0
1, 91627, Note_on_c, 7, 66, 100
1, 91687, Note_on_c, 3, 50, 0
1, 91687, Note_on_c, 3, 49, 127
1, 91747, Note_on_c, 7, 69, 0
1, 91747, Note_on_c, 7, 69, 100
1, 91747, Note_on_c, 7, 66, 0
1, 91747, Note_on_c, 7, 66, 100
1, 91807, Note_on_c, 3, 49, 0
1, 91807, Note_on_c, 3, 47, 127
1, 91807, Note_on_c, 7, 69, 0
1, 91807, Note_on_c, 7, 66, 0
1, 91867, Note_on_c, 7, 68, 100
1, 91867, Note_on_c, 7, 66, 100
1, 91927, Note_on_c, 7, 68, 0
1, 91927, Note_on_c, 7, 68, 100
1, 91927, Note_on_c, 7, 66, 0
1, 91927, Note_on_c, 7, 66, 100
1, 91987, Note_on_c, 7, 68, 0
1, 91987, Note_on_c, 7, 68, 100
1, 91987, Note_on_c, 7, 66, 0
1, 91987, Note_on_c, 7, 66, 100
1, 92047, Note_on_c, 3, 47, 0
1, 92047, Note_on_c, 3, 48, 127
1, 92047, Note_on_c, 7, 68, 0
1, 92047, Note_on_c, 7, 66, 0
1, 92107, Note_on_c, 7, 68, 100
1, 92107, Note_on_c, 7, 66, 100
1, 92167, Note_on_c, 7, 68, 0
1, 92167, Note_on_c, 7, 68, 100
1, 92167, Note_on_c, 7, 66, 0
1, 92167, Note_on_c, 7, 66, 100
1, 92227, Note_on_c, 7, 68, 0
1, 92227, Note_on_c, 7, 68, 100
1, 92227, Note_on_c, 7, 66, 0
1, 92227, Note_on_c, 7, 66, 100
1, 92287, Note_on_c, 3, 48, 0
1, 92287, Note_on_c, 3, 49, 127
1, 92287, Note_on_c, 5, 61, 80
1, 92287, Note_on_c, 6, 61, 80
1, 92287, Note_on_c, 6, 49, 80
1, 92287, Note_on_c, 7, 68, 0
1, 92287, Note_on_c, 7, 68, 100
1, 92287, Note_on_c, 7, 66, 0
1, 92287, Note_on_c, 7, 65, 100
1, 92287, Note_on_c, 7, 73, 100
1, 92287, Note_on_c, 7, 61, 100
1, 92287, Note_on_c, 7, 49, 100
1, 92347, Note_on_c, 7, 73, 0
1, 92347, Note_on_c, 7, 73, 100
1, 92347, Note_on_c, 7, 61, 0
1, 92347, Note_on_c, 7, 61, 100
1, 92347, Note_on_c, 7, 49, 0
1, 92347, Note_on_c, 7, 49, 100
1, 92407, Note_on_c, 3, 49, 0
1, 92407, Note_on_c, 7, 68, 0
1, 92407, Note_on_c, 7, 65, 0
1, 92407, Note_on_c, 7, 73, 0
1, 92407, Note_on_c, 7, 73, 100
1, 92407, Note_on_c, 7, 61, 0
1, 92407, Note_on_c, 7, 61, 100
1, 92407, Note_on_c, 7, 49, 0
1, 92407, Note_on_c, 7, 49, 100
1, 92467, Note_on_c, 7, 73, 0
1, 92467, Note_on_c, 7, 73, 100
1, 92467, Note_on_c, 7, 61, 0
1, 92467, Note_on_c, 7, 61, 100
1, 92467, Note_on_c, 7, 49, 0
1, 92467, Note_on_c, 7, 49, 100
1, 92527, Note_on_c, 4, 83, 80
1, 92527, Note_on_c, 4, 80, 80
1, 92527, Note_on_c, 7, 80, 100
1, 92527, Note_on_c, 7, 77, 100
1, 92527, Note_on_c, 7, 73, 0
1, 92527, Note_on_c, 7, 73, 100
1, 92527, Note_on_c, 7, 61, 0
1, 92527, Note_on_c, 7, 61, 100
1, 92527, Note_on_c, 7, 49, 0
1, 92527, Note_on_c, 7, 49, 100
1, 92557, Note_on_c, 7, 80, 0
1, 92557, Note_on_c, 7, 80, 100
1, 92557, Note_on_c, 7, 77, 0
1, 92557, Note_on_c, 7, 77, 100
1, 92587, Note_on_c, 7, 80, 0
1, 92587, Note_on_c, 7, 80, 100
1, 92587, Note_on_c, 7, 77, 0
1, 92587, Note_on_c, 7, 77, 100
1, 92587, Note_on_c, 7, 73, 0
1, 92587, Note_on_c, 7, 73, 100
1, 92587, Note_on_c, 7, 61, 0
1, 92587, Note_on_c, 7, 61, 100
1, 92587, Note_on_c, 7, 49, 0
1, 92587, Note_on_c, 7, 49, 100
1, 92617, Note_on_c, 7, 80, 0
1, 92617, Note_on_c, 7, 80, 100
1, 92617, Note_on_c, 7, 77, 0
1, 92617, Note_on_c, 7, 77, 100
1, 92647, Note_on_c, 7, 80, 0
1, 92647, Note_on_c, 7, 80, 100
1, 92647, Note_on_c, 7, 77, 0
1, 92647, Note_on_c, 7, 77, 100
1, 92647, Note_on_c, 7, 73, 0
1, 92647, Note_on_c, 7, 73, 100
1, 92647, Note_on_c, 7, 61, 0
1, 92647, Note_on_c, 7, 61, 100
1, 92647, Note_on_c, 7, 49, 0
1, 92647, Note_on_c, 7, 49, 100
1, 92677, Note_on_c, 7, 80, 0
1, 92677, Note_on_c, 7, 80, 100
1, 92677, Note_on_c, 7, 77, 0
1, 92677, Note_on_c, 7, 77, 100
1, 92707, Note_on_c, 7, 80, 0
1, 92707, Note_on_c, 7, 80, 100
1, 92707, Note_on_c, 7, 77, 0
1, 92707, Note_on_c, 7, 77, 100
1, 92707, Note_on_c, 7, 73, 0
1, 92707, Note_on_c, 7, 73, 100
1, 92707, Note_on_c, 7, 61, 0
1, 92707, Note_on_c, 7, 61, 100
1, 92707, Note_on_c, 7, 49, 0
1, 92707, Note_on_c, 7, 49, 100
1, 92737, Note_on_c, 7, 80, 0
1, 92737, Note_on_c, 7, 80, 100
1, 92737, Note_on_c, 7, 77, 0
1, 92737, Note_on_c, 7, 77, 100
1, 92767, Note_on_c, 4, 83, 0
1, 92767, Note_on_c, 4, 81, 80
1, 92767, Note_on_c, 4, 80, 0
1, 92767, Note_on_c, 4, 78, 80
1, 92767, Note_on_c, 7, 80, 0
1, 92767, Note_on_c, 7, 81, 100
1, 92767, Note_on_c, 7, 77, 0
1, 92767, Note_on_c, 7, 78, 100
1, 92767, Note_on_c, 7, 73, 0
1, 92767, Note_on_c, 7, 73, 100
1, 92767, Note_on_c, 7, 61, 0
1, 92767, Note_on_c, 7, 61, 100
1, 92767, Note_on_c, 7, 49, 0
1, 92767, Note_on_c, 7, 49, 100
1, 92797, Note_on_c, 7, 81, 0
1, 92797, Note_on_c, 7, 81, 100
1, 92797, Note_on_c, 7, 78, 0
1, 92797, Note_on_c, 7, 78, 100
1, 92827, Note_on_c, 7, 81, 0
1, 92827, Note_on_c, 7, 81, 100
1, 92827, Note_on_c, 7, 78, 0
1, 92827, Note_on_c, 7, 78, 100
1, 92827, Note_on_c, 7, 73, 0
1, 92827, Note_on_c, 7, 73, 100
1, 92827, Note_on_c, 7, 61, 0
1, 92827, Note_on_c, 7, 61, 100
1, 92827, Note_on_c, 7, 49, 0
1, 92827, Note_on_c, 7, 49, 100
1, 92857, Note_on_c, 7, 81, 0
1, 92857, Note_on_c, 7, 81, 100
1, 92857, Note_on_c, 7, 78, 0
1, 92857, Note_on_c, 7, 78, 100
1, 92887, Note_on_c, 7, 81, 0
1, 92887, Note_on_c, 7, 81, 100
1, 92887, Note_on_c, 7, 78, 0
1, 92887, Note_on_c, 7, 78, 100
1, 92887, Note_on_c, 7, 73, 0
1, 92887, Note_on_c, 7, 73, 100
1, 92887, Note_on_c, 7, 61, 0
1, 92887, Note_on_c, 7, 61, 100
1, 92887, Note_on_c, 7, 49, 0
1, 92887, Note_on_c, 7, 49, 100
1, 92917, Note_on_c, 7, 81, 0
1, 92917, Note_on_c, 7, 81, 100
1, 92917, Note_on_c, 7, 78, 0
1, 92917, Note_on_c, 7, 78, 100
1, 92947, Note_on_c, 7, 81, 0
1, 92947, Note_on_c, 7, 81, 100
1, 92947, Note_on_c, 7, 78, 0
1, 92947, Note_on_c, 7, 78, 100
1, 92947, Note_on_c, 7, 73, 0
1, 92947, Note_on_c, 7, 73, 100
1, 92947, Note_on_c, 7, 61, 0
1, 92947, Note_on_c, 7, 61, 100
1, 92947, Note_on_c, 7, 49, 0
1, 92947, Note_on_c, 7, 49, 100
1, 92977, Note_on_c, 7, 81, 0
1, 92977, Note_on_c, 7, 81, 100
1, 92977, Note_on_c, 7, 78, 0
1, 92977, Note_on_c, 7, 78, 100
1, 93007, Note_on_c, 4, 81, 0
1, 93007, Note_on_c, 4, 90, 80
1, 93007, Note_on_c, 4, 78, 0
1, 93007, Note_on_c, 4, 84, 80
1, 93007, Note_on_c, 7, 81, 0
1, 93007, Note_on_c, 7, 84, 100
1, 93007, Note_on_c, 7, 78, 0
1, 93007, Note_on_c, 7, 78, 100
1, 93007, Note_on_c, 7, 73, 0
1, 93007, Note_on_c, 7, 69, 100
1, 93007, Note_on_c, 7, 61, 0
1, 93007, Note_on_c, 7, 61, 100
1, 93007, Note_on_c, 7, 49, 0
1, 93007, Note_on_c, 7, 49, 100
1, 93037, Note_on_c, 7, 84, 0
1, 93037, Note_on_c, 7, 84, 100
1, 93037, Note_on_c, 7, 78, 0
1, 93037, Note_on_c, 7, 78, 100
1, 93067, Note_on_c, 7, 84, 0
1, 93067, Note_on_c, 7, 84, 100
1, 93067, Note_on_c, 7, 78, 0
1, 93067, Note_on_c, 7, 78, 100
1, 93067, Note_on_c, 7, 69, 0
1, 93067, Note_on_c, 7, 69, 100
1, 93067, Note_on_c, 7, 61, 0
1, 93067, Note_on_c, 7, 61, 100
1, 93067, Note_on_c, 7, 49, 0
1, 93067, Note_on_c, 7, 49, 100
1, 93097, Note_on_c, 7, 84, 0
1, 93097, Note_on_c, 7, 84, 100
1, 93097, Note_on_c, 7, 78, 0
1, 93097, Note_on_c, 7, 78, 100
1, 93127, Note_on_c, 7, 84, 0
1, 93127, Note_on_c, 7, 84, 100
1, 93127, Note_on_c, 7, 78, 0
1, 93127, Note_on_c, 7, 78, 100
1, 93127, Note_on_c, 7, 69, 0
1, 93127, Note_on_c, 7, 66, 100
1, 93127, Note_on_c, 7, 61, 0
1, 93127, Note_on_c, 7, 61, 100
1, 93127, Note_on_c, 7, 49, 0
1, 93127, Note_on_c, 7, 49, 100
1, 93157, Note_on_c, 7, 84, 0
1, 93157, Note_on_c, 7, 84, 100
1, 93157, Note_on_c, 7, 78, 0
1, 93157, Note_on_c, 7, 78, 100
1, 93187, Note_on_c, 7, 84, 0
1, 93187, Note_on_c, 7, 84, 100
1, 93187, Note_on_c, 7, 78, 0
1, 93187, Note_on_c, 7, 78, 100
1, 93187, Note_on_c, 7, 66, 0
1, 93187, Note_on_c, 7, 66, 100
1, 93187, Note_on_c, 7, 61, 0
1, 93187, Note_on_c, 7, 61, 100
1, 93187, Note_on_c, 7, 49, 0
1, 93187, Note_on_c, 7, 49, 100
1, 93217, Note_on_c, 7, 84, 0
1, 93217, Note_on_c, 7, 84, 100
1, 93217, Note_on_c, 7, 78, 0
1, 93217, Note_on_c, 7, 78, 100
1, 93247, Note_on_c, 4, 90, 0
1, 93247, Note_on_c, 4, 89, 80
1, 93247, Note_on_c, 4, 84, 0
1, 93247, Note_on_c, 4, 85, 80
1, 93247, Note_on_c, 6, 61, 0
1, 93247, Note_on_c, 6, 61, 80
1, 93247, Note_on_c, 6, 49, 0
1, 93247, Note_on_c, 6, 49, 80
1, 93247, Note_on_c, 7, 84, 0
1, 93247, Note_on_c, 7, 85, 100
1, 93247, Note_on_c, 7, 78, 0
1, 93247, Note_on_c, 7, 77, 100
1, 93247, Note_on_c, 7, 66, 0
1, 93247, Note_on_c, 7, 68, 100
1, 93247, Note_on_c, 7, 61, 0
1, 93247, Note_on_c, 7, 61, 100
1, 93247, Note_on_c, 7, 49, 0
1, 93247, Note_on_c, 7, 49, 100
1, 93367, Note_on_c, 3, 49, 127
1, 93367, Note_on_c, 4, 89, 0
1, 93367, Note_on_c, 4, 85, 0
1, 93367, Note_on_c, 5, 61, 0
1, 93367, Note_on_c, 6, 61, 0
1, 93367, Note_on_c, 6, 49, 0
1, 93367, Note_on_c, 7, 85, 0
1, 93367, Note_on_c, 7, 77, 0
1, 93367, Note_on_c, 7, 68, 0
1, 93367, Note_on_c, 7, 61, 0
1, 93367, Note_on_c, 7, 49, 0
1, 93487, Note_on_c, 3, 49, 0
1, 93487, Note_on_c, 3, 49, 127
1, 93607, Note_on_c, 3, 49, 0
1, 93607, Note_on_c, 3, 49, 127
1, 93727, Note_on_c, 3, 49, 0
1, 93727, Note_on_c, 3, 49, 127
1, 93847, Note_on_c, 3, 49, 0
1, 93847, Note_on_c, 7, 73, 100
1, 93847, Note_on_c, 7, 68, 100
1, 93847, Note_on_c, 7, 65, 100
1, 93847, Note_on_c, 7, 61, 100
1, 93847, Note_on_c, 7, 49, 100
1, 93967, Note_on_c, 7, 73, 0
1, 93967, Note_on_c, 7, 73, 100
1, 93967, Note_on_c, 7, 68, 0
1, 93967, Note_on_c, 7, 68, 100
1, 93967, Note_on_c, 7, 65, 0
1, 93967, Note_on_c, 7, 65, 100
1, 93967, Note_on_c, 7, 61, 0
1, 93967, Note_on_c, 7, 61, 100
1, 93967, Note_on_c, 7, 49, 0
1, 93967, Note_on_c, 7, 49, 100
1, 94087, Note_on_c, 7, 73, 0
1, 94087, Note_on_c, 7, 73, 100
1, 94087, Note_on_c, 7, 68, 0
1, 94087, Note_on_c, 7, 68, 100
1, 94087, Note_on_c, 7, 65, 0
1, 94087, Note_on_c, 7, 65, 100
1, 94087, Note_on_c, 7, 61, 0
1, 94087, Note_on_c, 7, 61, 100
1, 94087, Note_on_c, 7, 49, 0
1, 94087, Note_on_c, 7, 49, 100
1, 94207, Note_on_c, 7, 73, 0
1, 94207, Note_on_c, 7, 74, 100
1, 94207, Note_on_c, 7, 68, 0
1, 94207, Note_on_c, 7, 68, 100
1, 94207, Note_on_c, 7, 65, 0
1, 94207, Note_on_c, 7, 65, 100
1, 94207, Note_on_c, 7, 61, 0
1, 94207, Note_on_c, 7, 59, 100
1, 94207, Note_on_c, 7, 49, 0
1, 94207, Note_on_c, 7, 47, 100
1, 94327, Note_on_c, 3, 47, 127
1, 94327, Note_on_c, 7, 74, 0
1, 94327, Note_on_c, 7, 68, 0
1, 94327, Note_on_c, 7, 65, 0
1, 94327, Note_on_c, 7, 59, 0
1, 94327, Note_on_c, 7, 47, 0
1, 94447, Note_on_c, 3, 47, 0
1, 94447, Note_on_c, 3, 47, 127
1, 94567, Note_on_c, 3, 47, 0
1, 94567, Note_on_c, 3, 47, 127
1, 94687, Note_on_c, 3, 47, 0
1, 94687, Note_on_c, 3, 47, 127
1, 94807, Note_on_c, 3, 47, 0
1, 94807, Note_on_c, 4, 86, 80
1, 94807, Note_on_c, 4, 89, 80
1, 94807, Note_on_c, 5, 62, 80
1, 94807, Note_on_c, 5, 56, 80
1, 94807, Note_on_c, 7, 74, 100
1, 94807, Note_on_c, 7, 65, 100
1, 94807, Note_on_c, 7, 68, 100
1, 94807, Note_on_c, 7, 59, 100
1, 94807, Note_on_c, 7, 47, 100
1, 94927, Note_on_c, 4, 86, 0
1, 94927, Note_on_c, 4, 86, 80
1, 94927, Note_on_c, 4, 89, 0
1, 94927, Note_on_c, 4, 89, 80
1, 94927, Note_on_c, 5, 62, 0
1, 94927, Note_on_c, 5, 62, 80
1, 94927, Note_on_c, 5, 56, 0
1, 94927, Note_on_c, 5, 56, 80
1, 94927, Note_on_c, 7, 74, 0
1, 94927, Note_on_c, 7, 74, 100
1, 94927, Note_on_c, 7, 65, 0
1, 94927, Note_on_c, 7, 65, 100
1, 94927, Note_on_c, 7, 68, 0
1, 94927, Note_on_c, 7, 68, 100
1, 94927, Note_on_c, 7, 59, 0
1, 94927, Note_on_c, 7, 59, 100
1, 94927, Note_on_c, 7, 47, 0
1, 94927, Note_on_c, 7, 47, 100
1, 95047, Note_on_c, 4, 86, 0
1, 95047, Note_on_c, 4, 86, 80
1, 95047, Note_on_c, 4, 89, 0
1, 95047, Note_on_c, 4, 89, 80
1, 95047, Note_on_c, 5, 62, 0
1, 95047, Note_on_c, 5, 62, 80
1, 95047, Note_on_c, 5, 56, 0
1, 95047, Note_on_c, 5, 56, 80
1, 95047, Note_on_c, 7, 74, 0
1, 95047, Note_on_c, 7, 74, 100
1, 95047, Note_on_c, 7, 65, 0
1, 95047, Note_on_c, 7, 65, 100
1, 95047, Note_on_c, 7, 68, 0
1, 95047, Note_on_c, 7, 68, 100
1, 95047, Note_on_c, 7, 59, 0
1, 95047, Note_on_c, 7, 59, 100
1, 95047, Note_on_c, 7, 47, 0
1, 95047, Note_on_c, 7, 47, 100
1, 95167, Note_on_c, 4, 86, 0
1, 95167, Note_on_c, 4, 86, 80
1, 95167, Note_on_c, 4, 89, 0
1, 95167, Note_on_c, 4, 90, 80
1, 95167, Note_on_c, 5, 62, 0
1, 95167, Note_on_c, 5, 57, 80
1, 95167, Note_on_c, 5, 56, 0
1, 95167, Note_on_c, 6, 57, 80
1, 95167, Note_on_c, 6, 45, 80
1, 95167, Note_on_c, 7, 74, 0
1, 95167, Note_on_c, 7, 74, 100
1, 95167, Note_on_c, 7, 65, 0
1, 95167, Note_on_c, 7, 66, 100
1, 95167, Note_on_c, 7, 68, 0
1, 95167, Note_on_c, 7, 69, 100
1, 95167, Note_on_c, 7, 59, 0
1, 95167, Note_on_c, 7, 57, 100
1, 95167, Note_on_c, 7, 47, 0
1, 95167, Note_on_c, 7, 45, 100
1, 95207, Note_on_c, 3, 45, 127
1, 95227, Note_on_c, 3, 45, 0
1, 95247, Note_on_c, 3, 50, 127
1, 95267, Note_on_c, 3, 50, 0
1, 95287, Note_on_c, 3, 54, 127
1, 95287, Note_on_c, 7, 57, 0
1, 95287, Note_on_c, 7, 45, 0
1, 95307, Note_on_c, 3, 54, 0
1, 95327, Note_on_c, 3, 57, 127
1, 95347, Note_on_c, 3, 57, 0
1, 95367, Note_on_c, 3, 62, 127
1, 95387, Note_on_c, 3, 62, 0
1, 95407, Note_on_c, 3, 66, 127
1, 95427, Note_on_c, 3, 66, 0
1, 95447, Note_on_c, 3, 69, 127
1, 95467, Note_on_c, 3, 69, 0
1, 95487, Note_on_c, 3, 74, 127
1, 95507, Note_on_c, 3, 74, 0
1, 95527, Note_on_c, 3, 78, 127
1, 95547, Note_on_c, 3, 78, 0
1, 95567, Note_on_c, 3, 74, 127
1, 95587, Note_on_c, 3, 74, 0
1, 95607, Note_on_c, 3, 81, 127
1, 95627, Note_on_c, 3, 81, 0
1, 95647, Note_on_c, 4, 86, 0
1, 95647, Note_on_c, 4, 85, 80
1, 95647, Note_on_c, 4, 90, 0
1, 95647, Note_on_c, 4, 91, 80
1, 95647, Note_on_c, 5, 45, 80
1, 95647, Note_on_c, 5, 57, 0
1, 95647, Note_on_c, 7, 74, 0
1, 95647, Note_on_c, 7, 73, 100
1, 95647, Note_on_c, 7, 66, 0
1, 95647, Note_on_c, 7, 64, 100
1, 95647, Note_on_c, 7, 69, 0
1, 95647, Note_on_c, 7, 67, 100
1, 95647, Note_on_c, 7, 45, 100
1, 95647, Note_on_c, 7, 33, 100
1, 95707, Note_on_c, 3, 73, 127
1, 95737, Note_on_c, 3, 73, 0
1, 95737, Note_on_c, 3, 76, 127
1, 95767, Note_on_c, 3, 76, 0
1, 95767, Note_on_c, 3, 79, 127
1, 95767, Note_on_c, 7, 45, 0
1, 95767, Note_on_c, 7, 33, 0
1, 95797, Note_on_c, 3, 79, 0
1, 95797, Note_on_c, 3, 83, 127
1, 95827, Note_on_c, 3, 83, 0
1, 95827, Note_on_c, 3, 79, 127
1, 95857, Note_on_c, 3, 79, 0
1, 95857, Note_on_c, 3, 76, 127
1, 95887, Note_on_c, 3, 76, 0
1, 95887, Note_on_c, 3, 73, 127
1, 95917, Note_on_c, 3, 73, 0
1, 95917, Note_on_c, 3, 69, 127
1, 95947, Note_on_c, 3, 69, 0
1, 95947, Note_on_c, 3, 67, 127
1, 95977, Note_on_c, 3, 67, 0
1, 95977, Note_on_c, 3, 64, 127
1, 96007, Note_on_c, 3, 64, 0
1, 96007, Note_on_c, 3, 61, 127
1, 96037, Note_on_c, 3, 61, 0
1, 96037, Note_on_c, 3, 57, 127
1, 96067, Note_on_c, 3, 57, 0
1, 96067, Note_on_c, 3, 55, 127
1, 96097, Note_on_c, 3, 55, 0
1, 96097, Note_on_c, 3, 52, 127
1, 96127, Note_on_c, 3, 52, 0
1, 96127, Note_on_c, 3, 50, 127
1, 96127, Note_on_c, 4, 85, 0
1, 96127, Note_on_c, 4, 86, 80
1, 96127, Note_on_c, 4, 91, 0
1, 96127, Note_on_c, 4, 90, 80
1, 96127, Note_on_c, 5, 50, 80
1, 96127, Note_on_c, 5, 45, 0
1, 96127, Note_on_c, 6, 57, 0
1, 96127, Note_on_c, 6, 57, 80
1, 96127, Note_on_c, 6, 45, 0
1, 96127, Note_on_c, 6, 45, 80
1, 96127, Note_on_c, 7, 73, 0
1, 96127, Note_on_c, 7, 74, 100
1, 96127, Note_on_c, 7, 64, 0
1, 96127, Note_on_c, 7, 62, 100
1, 96127, Note_on_c, 7, 67, 0
1, 96127, Note_on_c, 7, 66, 100
1, 96127, Note_on_c, 7, 50, 100
1, 96127, Note_on_c, 7, 38, 100
1, 96187, Note_on_c, 7, 74, 0
1, 96187, Note_on_c, 7, 69, 100
1, 96247, Note_on_c, 3, 50, 0
1, 96247, Note_on_c, 4, 86, 0
1, 96247, Note_on_c, 4, 90, 0
1, 96247, Note_on_c, 5, 50, 0
1, 96247, Note_on_c, 6, 57, 0
1, 96247, Note_on_c, 6, 45, 0
1, 96247, Note_on_c, 7, 69, 0
1, 96247, Note_on_c, 7, 62, 0
1, 96247, Note_on_c, 7, 50, 0
1, 96247, Note_on_c, 7, 38, 0
1, 96307, Note_on_c, 7, 66, 0
1, 96307, Note_on_c, 7, 69, 100
1, 96367, Note_on_c, 7, 69, 0
1, 96367, Note_on_c, 7, 66, 100
1, 96427, Note_on_c, 3, 69, 127
1, 96427, Note_on_c, 7, 66, 0
1, 96427, Note_on_c, 7, 69, 100
1, 96487, Note_on_c, 3, 69, 0
1, 96487, Note_on_c, 3, 74, 127
1, 96487, Note_on_c, 7, 69, 0
1, 96487, Note_on_c, 7, 66, 100
1, 96547, Note_on_c, 3, 74, 0
1, 96547, Note_on_c, 3, 78, 127
1, 96547, Note_on_c, 7, 66, 0
1, 96547, Note_on_c, 7, 69, 100
1, 96607, Note_on_c, 3, 78, 0
1, 96607, Note_on_c, 3, 76, 127
1, 96607, Note_on_c, 7, 69, 0
1, 96607, Note_on_c, 7, 67, 100
1, 96667, Note_on_c, 7, 67, 0
1, 96667, Note_on_c, 7, 69, 100
1, 96727, Note_on_c, 7, 69, 0
1, 96727, Note_on_c, 7, 67, 100
1, 96787, Note_on_c, 3, 76, 0
1, 96787, Note_on_c, 3, 78, 127
1, 96787, Note_on_c, 7, 67, 0
1, 96787, Note_on_c, 7, 69, 100
1, 96847, Note_on_c, 3, 78, 0
1, 96847, Note_on_c, 3, 79, 127
1, 96847, Note_on_c, 7, 69, 0
1, 96847, Note_on_c, 7, 67, 100
1, 96907, Note_on_c, 3, 79, 0
1, 96907, Note_on_c, 3, 76, 127
1, 96907, Note_on_c, 7, 67, 0
1, 96907, Note_on_c, 7, 69, 100
1, 96967, Note_on_c, 3, 76, 0
1, 96967, Note_on_c, 3, 71, 127
1, 96967, Note_on_c, 7, 69, 0
1, 96967, Note_on_c, 7, 67, 100
1, 97027, Note_on_c, 3, 71, 0
1, 97027, Note_on_c, 3, 73, 127
1, 97027, Note_on_c, 7, 67, 0
1, 97027, Note_on_c, 7, 69, 100
1, 97087, Note_on_c, 3, 73, 0
1, 97087, Note_on_c, 3, 74, 127
1, 97087, Note_on_c, 7, 69, 0
1, 97087, Note_on_c, 7, 66, 100
1, 97117, Note_on_c, 3, 74, 0
1, 97147, Note_on_c, 3, 78, 127
1, 97147, Note_on_c, 7, 66, 0
1, 97147, Note_on_c, 7, 69, 100
1, 97177, Note_on_c, 3, 78, 0
1, 97207, Note_on_c, 3, 81, 127
1, 97207, Note_on_c, 7, 69, 0
1, 97207, Note_on_c, 7, 66, 100
1, 97267, Note_on_c, 7, 66, 0
1, 97267, Note_on_c, 7, 69, 100
1, 97327, Note_on_c, 7, 69, 0
1, 97327, Note_on_c, 7, 66, 100
1, 97387, Note_on_c, 3, 81, 0
1, 97387, Note_on_c, 3, 80, 127
1, 97387, Note_on_c, 7, 66, 0
1, 97387, Note_on_c, 7, 69, 100
1, 97447, Note_on_c, 3, 80, 0
1, 97447, Note_on_c, 3, 79, 127
1, 97447, Note_on_c, 7, 69, 0
1, 97447, Note_on_c, 7, 66, 100
1, 97507, Note_on_c, 3, 79, 0
1, 97507, Note_on_c, 3, 78, 127
1, 97507, Note_on_c, 7, 66, 0
1, 97507, Note_on_c, 7, 69, 100
1, 97567, Note_on_c, 3, 78, 0
1, 97567, Note_on_c, 3, 76, 127
1, 97567, Note_on_c, 7, 69, 0
1, 97567, Note_on_c, 7, 67, 100
1, 97627, Note_on_c, 7, 67, 0
1, 97627, Note_on_c, 7, 69, 100
1, 97687, Note_on_c, 7, 69, 0
1, 97687, Note_on_c, 7, 67, 100
1, 97747, Note_on_c, 3, 76, 0
1, 97747, Note_on_c, 3, 78, 127
1, 97747, Note_on_c, 7, 67, 0
1, 97747, Note_on_c, 7, 69, 100
1, 97807, Note_on_c, 3, 78, 0
1, 97807, Note_on_c, 3, 79, 127
1, 97807, Note_on_c, 7, 69, 0
1, 97807, Note_on_c, 7, 67, 100
1, 97867, Note_on_c, 3, 79, 0
1, 97867, Note_on_c, 3, 76, 127
1, 97867, Note_on_c, 7, 67, 0
1, 97867, Note_on_c, 7, 69, 100
1, 97927, Note_on_c, 3, 76, 0
1, 97927, Note_on_c, 3, 71, 127
1, 97927, Note_on_c, 7, 69, 0
1, 97927, Note_on_c, 7, 67, 100
1, 97987, Note_on_c, 3, 71, 0
1, 97987, Note_on_c, 3, 73, 127
1, 97987, Note_on_c, 7, 67, 0
1, 97987, Note_on_c, 7, 69, 100
1, 98047, Note_on_c, 3, 73, 0
1, 98047, Note_on_c, 3, 74, 127
1, 98047, Note_on_c, 7, 69, 0
1, 98047, Note_on_c, 7, 66, 100
1, 98047, Note_on_c, 7, 69, 100
1, 98077, Note_on_c, 3, 74, 0
1, 98107, Note_on_c, 3, 78, 127
1, 98137, Note_on_c, 3, 78, 0
1, 98167, Note_on_c, 3, 81, 127
1, 98347, Note_on_c, 3, 81, 0
1, 98347, Note_on_c, 3, 78, 127
1, 98407, Note_on_c, 3, 78, 0
1, 98407, Note_on_c, 3, 76, 127
1, 98467, Note_on_c, 3, 76, 0
1, 98467, Note_on_c, 3, 74, 127
1, 98527, Note_on_c, 3, 74, 0
1, 98527, Note_on_c, 3, 73, 127
1, 98527, Note_on_c, 7, 64, 100
1, 98527, Note_on_c, 7, 66, 0
1, 98557, Note_on_c, 3, 73, 0
1, 98587, Note_on_c, 3, 76, 127
1, 98617, Note_on_c, 3, 76, 0
1, 98647, Note_on_c, 3, 81, 127
1, 98827, Note_on_c, 3, 81, 0
1, 98827, Note_on_c, 3, 76, 127
1, 98887, Note_on_c, 3, 76, 0
1, 98887, Note_on_c, 3, 74, 127
1, 98947, Note_on_c, 3, 74, 0
1, 98947, Note_on_c, 3, 73, 127
1, 99007, Note_on_c, 3, 73, 0
1, 99007, Note_on_c, 3, 72, 127
1, 99007, Note_on_c, 7, 63, 100
1, 99007, Note_on_c, 7, 69, 0
1, 99007, Note_on_c, 7, 69, 100
1, 99007, Note_on_c, 7, 64, 0
1, 99067, Note_on_c, 7, 81, 100
1, 99067, Note_on_c, 7, 69, 0
1, 99067, Note_on_c, 7, 78, 100
1, 99127, Note_on_c, 3, 72, 0
1, 99127, Note_on_c, 3, 51, 127
1, 99127, Note_on_c, 7, 81, 0
1, 99127, Note_on_c, 7, 81, 100
1, 99127, Note_on_c, 7, 78, 0
1, 99127, Note_on_c, 7, 78, 100
1, 99127, Note_on_c, 7, 63, 0
1, 99187, Note_on_c, 7, 81, 0
1, 99187, Note_on_c, 7, 81, 100
1, 99187, Note_on_c, 7, 78, 0
1, 99187, Note_on_c, 7, 78, 100
1, 99247, Note_on_c, 7, 81, 0
1, 99247, Note_on_c, 7, 81, 100
1, 99247, Note_on_c, 7, 78, 0
1, 99247, Note_on_c, 7, 78, 100
1, 99307, Note_on_c, 7, 81, 0
1, 99307, Note_on_c, 7, 81, 100
1, 99307, Note_on_c, 7, 78, 0
1, 99307, Note_on_c, 7, 78, 100
1, 99367, Note_on_c, 3, 51, 0
1, 99367, Note_on_c, 3, 49, 127
1, 99367, Note_on_c, 7, 81, 0
1, 99367, Note_on_c, 7, 81, 100
1, 99367, Note_on_c, 7, 78, 0
1, 99367, Note_on_c, 7, 78, 100
1, 99427, Note_on_c, 7, 81, 0
1, 99427, Note_on_c, 7, 81, 100
1, 99427, Note_on_c, 7, 78, 0
1, 99427, Note_on_c, 7, 78, 100
1, 99487, Note_on_c, 3, 49, 0
1, 99487, Note_on_c, 3, 48, 127
1, 99487, Note_on_c, 7, 81, 0
1, 99487, Note_on_c, 7, 80, 100
1, 99487, Note_on_c, 7, 78, 0
1, 99487, Note_on_c, 7, 78, 100
1, 99487, Note_on_c, 7, 63, 100
1, 99547, Note_on_c, 7, 80, 0
1, 99547, Note_on_c, 7, 68, 100
1, 99547, Note_on_c, 7, 78, 0
1, 99547, Note_on_c, 7, 66, 100
1, 99607, Note_on_c, 3, 48, 0
1, 99607, Note_on_c, 7, 68, 0
1, 99607, Note_on_c, 7, 68, 100
1, 99607, Note_on_c, 7, 66, 0
1, 99607, Note_on_c, 7, 66, 100
1, 99607, Note_on_c, 7, 60, 100
1, 99667, Note_on_c, 7, 68, 0
1, 99667, Note_on_c, 7, 68, 100
1, 99667, Note_on_c, 7, 66, 0
1, 99667, Note_on_c, 7, 66, 100
1, 99727, Note_on_c, 3, 80, 127
1, 99727, Note_on_c, 7, 68, 0
1, 99727, Note_on_c, 7, 68, 100
1, 99727, Note_on_c, 7, 66, 0
1, 99727, Note_on_c, 7, 66, 100
1, 99787, Note_on_c, 7, 68, 0
1, 99787, Note_on_c, 7, 68, 100
1, 99787, Note_on_c, 7, 66, 0
1, 99787, Note_on_c, 7, 66, 100
1, 99847, Note_on_c, 7, 68, 0
1, 99847, Note_on_c, 7, 68, 100
1, 99847, Note_on_c, 7, 66, 0
1, 99847, Note_on_c, 7, 66, 100
1, 99907, Note_on_c, 3, 80, 0
1, 99907, Note_on_c, 3, 78, 127
1, 99907, Note_on_c, 7, 68, 0
1, 99907, Note_on_c, 7, 68, 100
1, 99907, Note_on_c, 7, 66, 0
1, 99907, Note_on_c, 7, 66, 100
1, 99927, Note_on_c, 3, 78, 0
1, 99927, Note_on_c, 3, 76, 127
1, 99947, Note_on_c, 3, 76, 0
1, 99947, Note_on_c, 3, 75, 127
1, 99967, Note_on_c, 3, 75, 0
1, 99967, Note_on_c, 3, 76, 127
1, 99967, Note_on_c, 7, 68, 0
1, 99967, Note_on_c, 7, 68, 100
1, 99967, Note_on_c, 7, 66, 0
1, 99967, Note_on_c, 7, 64, 100
1, 99967, Note_on_c, 7, 63, 0
1, 99967, Note_on_c, 7, 61, 100
1, 99967, Note_on_c, 7, 60, 0
1, 100027, Note_on_c, 7, 68, 0
1, 100027, Note_on_c, 7, 80, 100
1, 100027, Note_on_c, 7, 64, 0
1, 100027, Note_on_c, 7, 76, 100
1, 100087, Note_on_c, 3, 76, 0
1, 100087, Note_on_c, 3, 49, 127
1, 100087, Note_on_c, 7, 80, 0
1, 100087, Note_on_c, 7, 80, 100
1, 100087, Note_on_c, 7, 76, 0
1, 100087, Note_on_c, 7, 76, 100
1, 100087, Note_on_c, 7, 61, 0
1, 100147, Note_on_c, 7, 80, 0
1, 100147, Note_on_c, 7, 80, 100
1, 100147, Note_on_c, 7, 76, 0
1, 100147, Note_on_c, 7, 76, 100
1, 100207, Note_on_c, 7, 80, 0
1, 100207, Note_on_c, 7, 79, 100
1, 100207, Note_on_c, 7, 76, 0
1, 100207, Note_on_c, 7, 76, 100
1, 100267, Note_on_c, 7, 79, 0
1, 100267, Note_on_c, 7, 79, 100
1, 100267, Note_on_c, 7, 76, 0
1, 100267, Note_on_c, 7, 76, 100
1, 100327, Note_on_c, 3, 49, 0
1, 100327, Note_on_c, 3, 47, 127
1, 100327, Note_on_c, 7, 79, 0
1, 100327, Note_on_c, 7, 79, 100
1, 100327, Note_on_c, 7, 76, 0
1, 100327, Note_on_c, 7, 76, 100
1, 100387, Note_on_c, 7, 79, 0
1, 100387, Note_on_c, 7, 79, 100
1, 100387, Note_on_c, 7, 76, 0
1, 100387, Note_on_c, 7, 76, 100
1, 100447, Note_on_c, 3, 47, 0
1, 100447, Note_on_c, 3, 46, 127
1, 100447, Note_on_c, 7, 79, 0
1, 100447, Note_on_c, 7, 78, 100
1, 100447, Note_on_c, 7, 76, 0
1, 100447, Note_on_c, 7, 76, 100
1, 100447, Note_on_c, 7, 61, 100
1, 100507, Note_on_c, 7, 78, 0
1, 100507, Note_on_c, 7, 66, 100
1, 100507, Note_on_c, 7, 76, 0
1, 100507, Note_on_c, 7, 64, 100
1, 100567, Note_on_c, 3, 46, 0
1, 100567, Note_on_c, 7, 66, 0
1, 100567, Note_on_c, 7, 66, 100
1, 100567, Note_on_c, 7, 64, 0
1, 100567, Note_on_c, 7, 64, 100
1, 100567, Note_on_c, 7, 58, 100
1, 100567, Note_on_c, 7, 46, 100
1, 100627, Note_on_c, 7, 66, 0
1, 100627, Note_on_c, 7, 66, 100
1, 100627, Note_on_c, 7, 64, 0
1, 100627, Note_on_c, 7, 64, 100
1, 100687, Note_on_c, 3, 78, 127
1, 100687, Note_on_c, 7, 66, 0
1, 100687, Note_on_c, 7, 66, 100
1, 100687, Note_on_c, 7, 64, 0
1, 100687, Note_on_c, 7, 64, 100
1, 100747, Note_on_c, 7, 66, 0
1, 100747, Note_on_c, 7, 66, 100
1, 100747, Note_on_c, 7, 64, 0
1, 100747, Note_on_c, 7, 64, 100
1, 100807, Note_on_c, 7, 66, 0
1, 100807, Note_on_c, 7, 66, 100
1, 100807, Note_on_c, 7, 64, 0
1, 100807, Note_on_c, 7, 64, 100
1, 100807, Note_on_c, 7, 58, 0
1, 100807, Note_on_c, 7, 58, 100
1, 100807, Note_on_c, 7, 46, 0
1, 100807, Note_on_c, 7, 46, 100
1, 100867, Note_on_c, 3, 78, 0
1, 100867, Note_on_c, 3, 76, 127
1, 100867, Note_on_c, 7, 66, 0
1, 100867, Note_on_c, 7, 66, 100
1, 100867, Note_on_c, 7, 64, 0
1, 100867, Note_on_c, 7, 64, 100
1, 100887, Note_on_c, 3, 76, 0
1, 100887, Note_on_c, 3, 74, 127
1, 100907, Note_on_c, 3, 74, 0
1, 100907, Note_on_c, 3, 73, 127
1, 100927, Note_on_c, 3, 73, 0
1, 100927, Note_on_c, 3, 74, 127
1, 100927, Note_on_c, 7, 66, 0
1, 100927, Note_on_c, 7, 66, 100
1, 100927, Note_on_c, 7, 64, 0
1, 100927, Note_on_c, 7, 62, 100
1, 100927, Note_on_c, 7, 61, 0
1, 100927, Note_on_c, 7, 59, 100
1, 100927, Note_on_c, 7, 58, 0
1, 100927, Note_on_c, 7, 46, 0
1, 100927, Note_on_c, 7, 47, 100
1, 100957, Note_on_c, 7, 66, 0
1, 100957, Note_on_c, 7, 62, 0
1, 100957, Note_on_c, 7, 47, 0
1, 100987, Note_on_c, 7, 74, 100
1, 100987, Note_on_c, 7, 66, 100
1, 100987, Note_on_c, 7, 59, 0
1, 100987, Note_on_c, 7, 71, 100
1, 100987, Note_on_c, 7, 59, 100
1, 100987, Note_on_c, 7, 47, 100
1, 101017, Note_on_c, 7, 74, 0
1, 101017, Note_on_c, 7, 66, 0
1, 101017, Note_on_c, 7, 71, 0
1, 101017, Note_on_c, 7, 59, 0
1, 101017, Note_on_c, 7, 47, 0
1, 101047, Note_on_c, 3, 74, 0
1, 101047, Note_on_c, 7, 74, 100
1, 101047, Note_on_c, 7, 66, 100
1, 101047, Note_on_c, 7, 71, 100
1, 101047, Note_on_c, 7, 59, 100
1, 101047, Note_on_c, 7, 47, 100
1, 101077, Note_on_c, 3, 71, 127
1, 101107, Note_on_c, 3, 71, 0
1, 101107, Note_on_c, 3, 70, 127
1, 101107, Note_on_c, 7, 74, 0
1, 101107, Note_on_c, 7, 66, 0
1, 101107, Note_on_c, 7, 71, 0
1, 101107, Note_on_c, 7, 59, 0
1, 101107, Note_on_c, 7, 47, 0
1, 101137, Note_on_c, 3, 70, 0
1, 101137, Note_on_c, 3, 71, 127
1, 101167, Note_on_c, 3, 71, 0
1, 101167, Note_on_c, 3, 73, 127
1, 101197, Note_on_c, 3, 73, 0
1, 101197, Note_on_c, 3, 71, 127
1, 101227, Note_on_c, 3, 71, 0
1, 101227, Note_on_c, 3, 70, 127
1, 101257, Note_on_c, 3, 70, 0
1, 101257, Note_on_c, 3, 71, 127
1, 101287, Note_on_c, 3, 71, 0
1, 101287, Note_on_c, 3, 73, 127
1, 101317, Note_on_c, 3, 73, 0
1, 101317, Note_on_c, 3, 74, 127
1, 101347, Note_on_c, 3, 74, 0
1, 101347, Note_on_c, 3, 75, 127
1, 101377, Note_on_c, 3, 75, 0
1, 101377, Note_on_c, 3, 76, 127
1, 101407, Note_on_c, 3, 76, 0
1, 101407, Note_on_c, 3, 77, 127
1, 101407, Note_on_c, 7, 68, 100
1, 101407, Note_on_c, 7, 65, 100
1, 101407, Note_on_c, 7, 61, 100
1, 101407, Note_on_c, 7, 59, 100
1, 101407, Note_on_c, 7, 47, 100
1, 101437, Note_on_c, 7, 68, 0
1, 101437, Note_on_c, 7, 65, 0
1, 101437, Note_on_c, 7, 61, 0
1, 101437, Note_on_c, 7, 59, 0
1, 101437, Note_on_c, 7, 47, 0
1, 101467, Note_on_c, 7, 77, 100
1, 101467, Note_on_c, 7, 68, 100
1, 101467, Note_on_c, 7, 73, 100
1, 101467, Note_on_c, 7, 59, 100
1, 101467, Note_on_c, 7, 47, 100
1, 101497, Note_on_c, 7, 77, 0
1, 101497, Note_on_c, 7, 68, 0
1, 101497, Note_on_c, 7, 73, 0
1, 101497, Note_on_c, 7, 59, 0
1, 101497, Note_on_c, 7, 47, 0
1, 101527, Note_on_c, 3, 77, 0
1, 101527, Note_on_c, 7, 77, 100
1, 101527, Note_on_c, 7, 68, 100
1, 101527, Note_on_c, 7, 73, 100
1, 101527, Note_on_c, 7, 59, 100
1, 101527, Note_on_c, 7, 47, 100
1, 101557, Note_on_c, 3, 73, 127
1, 101587, Note_on_c, 3, 73, 0
1, 101587, Note_on_c, 3, 72, 127
1, 101587, Note_on_c, 7, 77, 0
1, 101587, Note_on_c, 7, 68, 0
1, 101587, Note_on_c, 7, 73, 0
1, 101587, Note_on_c, 7, 59, 0
1, 101587, Note_on_c, 7, 47, 0
1, 101617, Note_on_c, 3, 72, 0
1, 101617, Note_on_c, 3, 73, 127
1, 101647, Note_on_c, 3, 73, 0
1, 101647, Note_on_c, 3, 74, 127
1, 101677, Note_on_c, 3, 74, 0
1, 101677, Note_on_c, 3, 73, 127
1, 101707, Note_on_c, 3, 73, 0
1, 101707, Note_on_c, 3, 72, 127
1, 101737, Note_on_c, 3, 72, 0
1, 101737, Note_on_c, 3, 73, 127
1, 101767, Note_on_c, 3, 73, 0
1, 101767, Note_on_c, 3, 74, 127
1, 101797, Note_on_c, 3, 74, 0
1, 101797, Note_on_c, 3, 75, 127
1, 101827, Note_on_c, 3, 75, 0
1, 101827, Note_on_c, 3, 76, 127
1, 101857, Note_on_c, 3, 76, 0
1, 101857, Note_on_c, 3, 77, 127
1, 101887, Note_on_c, 3, 77, 0
1, 101887, Note_on_c, 3, 78, 127
1, 101887, Note_on_c, 7, 78, 100
1, 101887, Note_on_c, 7, 69, 100
1, 101887, Note_on_c, 7, 73, 100
1, 101887, Note_on_c, 7, 57, 100
1, 101887, Note_on_c, 7, 45, 100
1, 101927, Note_on_c, 3, 78, 0
1, 101927, Note_on_c, 3, 73, 127
1, 101947, Note_on_c, 7, 78, 0
1, 101947, Note_on_c, 7, 69, 0
1, 101947, Note_on_c, 7, 73, 0
1, 101947, Note_on_c, 7, 57, 0
1, 101947, Note_on_c, 7, 45, 0
1, 101967, Note_on_c, 3, 73, 0
1, 101967, Note_on_c, 3, 75, 127
1, 102007, Note_on_c, 3, 75, 0
1, 102007, Note_on_c, 3, 77, 127
1, 102047, Note_on_c, 3, 77, 0
1, 102047, Note_on_c, 3, 78, 127
1, 102087, Note_on_c, 3, 78, 0
1, 102087, Note_on_c, 3, 79, 127
1, 102127, Note_on_c, 3, 79, 0
1, 102127, Note_on_c, 3, 80, 127
1, 102127, Note_on_c, 7, 80, 100
1, 102127, Note_on_c, 7, 73, 100
1, 102127, Note_on_c, 7, 61, 100
1, 102127, Note_on_c, 7, 53, 100
1, 102127, Note_on_c, 7, 41, 100
1, 102157, Note_on_c, 3, 80, 0
1, 102157, Note_on_c, 3, 73, 127
1, 102187, Note_on_c, 3, 73, 0
1, 102187, Note_on_c, 3, 74, 127
1, 102187, Note_on_c, 7, 80, 0
1, 102187, Note_on_c, 7, 73, 0
1, 102187, Note_on_c, 7, 61, 0
1, 102187, Note_on_c, 7, 53, 0
1, 102187, Note_on_c, 7, 41, 0
1, 102217, Note_on_c, 3, 74, 0
1, 102217, Note_on_c, 3, 76, 127
1, 102247, Note_on_c, 3, 76, 0
1, 102247, Note_on_c, 3, 77, 127
1, 102277, Note_on_c, 3, 77, 0
1, 102277, Note_on_c, 3, 78, 127
1, 102307, Note_on_c, 3, 78, 0
1, 102307, Note_on_c, 3, 79, 127
1, 102337, Note_on_c, 3, 79, 0
1, 102337, Note_on_c, 3, 80, 127
1, 102367, Note_on_c, 3, 80, 0
1, 102367, Note_on_c, 3, 81, 127
1, 102367, Note_on_c, 7, 81, 100
1, 102367, Note_on_c, 7, 73, 100
1, 102367, Note_on_c, 7, 66, 100
1, 102367, Note_on_c, 7, 54, 100
1, 102367, Note_on_c, 7, 42, 100
1, 102427, Note_on_c, 3, 81, 0
1, 102427, Note_on_c, 3, 78, 127
1, 102427, Note_on_c, 7, 81, 0
1, 102427, Note_on_c, 7, 73, 0
1, 102427, Note_on_c, 7, 66, 0
1, 102427, Note_on_c, 7, 54, 0
1, 102427, Note_on_c, 7, 42, 0
1, 102487, Note_on_c, 7, 78, 100
1, 102487, Note_on_c, 7, 66, 100
1, 102487, Note_on_c, 7, 57, 100
1, 102487, Note_on_c, 7, 45, 100
1, 102547, Note_on_c, 3, 78, 0
1, 102547, Note_on_c, 3, 74, 127
1, 102547, Note_on_c, 7, 78, 0
1, 102547, Note_on_c, 7, 66, 0
1, 102547, Note_on_c, 7, 57, 0
1, 102547, Note_on_c, 7, 45, 0
1, 102607, Note_on_c, 7, 74, 100
1, 102607, Note_on_c, 7, 66, 100
1, 102607, Note_on_c, 7, 59, 100
1, 102607, Note_on_c, 7, 47, 100
1, 102667, Note_on_c, 3, 74, 0
1, 102667, Note_on_c, 3, 71, 127
1, 102667, Note_on_c, 7, 74, 0
1, 102667, Note_on_c, 7, 66, 0
1, 102667, Note_on_c, 7, 59, 0
1, 102667, Note_on_c, 7, 47, 0
1, 102727, Note_on_c, 7, 71, 100
1, 102727, Note_on_c, 7, 66, 100
1, 102727, Note_on_c, 7, 62, 100
1, 102727, Note_on_c, 7, 50, 100
1, 102787, Note_on_c, 3, 71, 0
1, 102787, Note_on_c, 3, 68, 127
1, 102787, Note_on_c, 7, 71, 0
1, 102787, Note_on_c, 7, 66, 0
1, 102787, Note_on_c, 7, 62, 0
1, 102787, Note_on_c, 7, 50, 0
1, 102847, Note_on_c, 3, 68, 0
1, 102847, Note_on_c, 3, 73, 127
1, 102847, Note_on_c, 7, 61, 100
1, 102847, Note_on_c, 7, 49, 100
1, 102907, Note_on_c, 7, 69, 100
1, 102907, Note_on_c, 7, 66, 100
1, 102967, Note_on_c, 7, 69, 0
1, 102967, Note_on_c, 7, 69, 100
1, 102967, Note_on_c, 7, 66, 0
1, 102967, Note_on_c, 7, 66, 100
1, 102967, Note_on_c, 7, 49, 0
1, 103027, Note_on_c, 7, 69, 0
1, 103027, Note_on_c, 7, 69, 100
1, 103027, Note_on_c, 7, 66, 0
1, 103027, Note_on_c, 7, 66, 100
1, 103027, Note_on_c, 7, 61, 0
1, 103027, Note_on_c, 7, 61, 100
1, 103087, Note_on_c, 3, 73, 0
1, 103087, Note_on_c, 3, 65, 127
1, 103087, Note_on_c, 7, 69, 0
1, 103087, Note_on_c, 7, 66, 0
1, 103087, Note_on_c, 7, 61, 0
1, 103087, Note_on_c, 7, 49, 100
1, 103087, Note_on_c, 7, 37, 100
1, 103147, Note_on_c, 7, 68, 100
1, 103147, Note_on_c, 7, 65, 100
1, 103147, Note_on_c, 7, 61, 100
1, 103207, Note_on_c, 7, 68, 0
1, 103207, Note_on_c, 7, 68, 100
1, 103207, Note_on_c, 7, 65, 0
1, 103207, Note_on_c, 7, 65, 100
1, 103207, Note_on_c, 7, 61, 0
1, 103207, Note_on_c, 7, 61, 100
1, 103207, Note_on_c, 7, 49, 0
1, 103207, Note_on_c, 7, 37, 0
1, 103267, Note_on_c, 7, 68, 0
1, 103267, Note_on_c, 7, 68, 100
1, 103267, Note_on_c, 7, 65, 0
1, 103267, Note_on_c, 7, 65, 100
1, 103267, Note_on_c, 7, 61, 0
1, 103267, Note_on_c, 7, 61, 100
1, 103327, Note_on_c, 3, 65, 0
1, 103327, Note_on_c, 7, 68, 0
1, 103327, Note_on_c, 7, 81, 100
1, 103327, Note_on_c, 7, 65, 0
1, 103327, Note_on_c, 7, 61, 0
1, 103327, Note_on_c, 7, 57, 100
1, 103327, Note_on_c, 7, 54, 100
1, 103327, Note_on_c, 7, 42, 100
1, 103387, Note_on_c, 4, 89, 80
1, 103387, Note_on_c, 5, 65, 80
1, 103387, Note_on_c, 7, 77, 100
1, 103387, Note_on_c, 7, 81, 0
1, 103387, Note_on_c, 7, 57, 0
1, 103387, Note_on_c, 7, 68, 100
1, 103387, Note_on_c, 7, 54, 0
1, 103387, Note_on_c, 7, 56, 100
1, 103387, Note_on_c, 7, 42, 0
1, 103387, Note_on_c, 7, 44, 100
1, 103447, Note_on_c, 4, 90, 80
1, 103447, Note_on_c, 4, 89, 0
1, 103447, Note_on_c, 5, 66, 80
1, 103447, Note_on_c, 5, 65, 0
1, 103447, Note_on_c, 7, 78, 100
1, 103447, Note_on_c, 7, 77, 0
1, 103447, Note_on_c, 7, 68, 0
1, 103447, Note_on_c, 7, 69, 100
1, 103447, Note_on_c, 7, 56, 0
1, 103447, Note_on_c, 7, 57, 100
1, 103447, Note_on_c, 7, 44, 0
1, 103447, Note_on_c, 7, 45, 100
1, 103507, Note_on_c, 4, 85, 80
1, 103507, Note_on_c, 4, 90, 0
1, 103507, Note_on_c, 5, 61, 80
1, 103507, Note_on_c, 5, 66, 0
1, 103507, Note_on_c, 7, 73, 100
1, 103507, Note_on_c, 7, 78, 0
1, 103507, Note_on_c, 7, 69, 0
1, 103507, Note_on_c, 7, 70, 100
1, 103507, Note_on_c, 7, 57, 0
1, 103507, Note_on_c, 7, 58, 100
1, 103507, Note_on_c, 7, 45, 0
1, 103507, Note_on_c, 7, 46, 100
1, 103567, Note_on_c, 4, 86, 80
1, 103567, Note_on_c, 4, 85, 0
1, 103567, Note_on_c, 5, 62, 80
1, 103567, Note_on_c, 5, 61, 0
1, 103567, Note_on_c, 7, 74, 100
1, 103567, Note_on_c, 7, 73, 0
1, 103567, Note_on_c, 7, 70, 0
1, 103567, Note_on_c, 7, 71, 100
1, 103567, Note_on_c, 7, 58, 0
1, 103567, Note_on_c, 7, 59, 100
1, 103567, Note_on_c, 7, 46, 0
1, 103567, Note_on_c, 7, 47, 100
1, 103627, Note_on_c, 4, 82, 80
1, 103627, Note_on_c, 4, 86, 0
1, 103627, Note_on_c, 5, 58, 80
1, 103627, Note_on_c, 5, 62, 0
1, 103627, Note_on_c, 7, 70, 100
1, 103627, Note_on_c, 7, 74, 0
1, 103627, Note_on_c, 7, 71, 0
1, 103627, Note_on_c, 7, 73, 100
1, 103627, Note_on_c, 7, 59, 0
1, 103627, Note_on_c, 7, 61, 100
1, 103627, Note_on_c, 7, 47, 0
1, 103627, Note_on_c, 7, 49, 100
1, 103687, Note_on_c, 4, 83, 80
1, 103687, Note_on_c, 4, 82, 0
1, 103687, Note_on_c, 5, 59, 80
1, 103687, Note_on_c, 5, 58, 0
1, 103687, Note_on_c, 7, 71, 100
1, 103687, Note_on_c, 7, 70, 0
1, 103687, Note_on_c, 7, 73, 0
1, 103687, Note_on_c, 7, 74, 100
1, 103687, Note_on_c, 7, 61, 0
1, 103687, Note_on_c, 7, 62, 100
1, 103687, Note_on_c, 7, 49, 0
1, 103687, Note_on_c, 7, 50, 100
1, 103747, Note_on_c, 4, 78, 80
1, 103747, Note_on_c, 4, 83, 0
1, 103747, Note_on_c, 5, 54, 80
1, 103747, Note_on_c, 5, 59, 0
1, 103747, Note_on_c, 7, 66, 100
1, 103747, Note_on_c, 7, 71, 0
1, 103747, Note_on_c, 7, 74, 0
1, 103747, Note_on_c, 7, 70, 100
1, 103747, Note_on_c, 7, 62, 0
1, 103747, Note_on_c, 7, 58, 100
1, 103747, Note_on_c, 7, 50, 0
1, 103747, Note_on_c, 7, 46, 100
1, 103807, Note_on_c, 3, 67, 127
1, 103807, Note_on_c, 4, 79, 80
1, 103807, Note_on_c, 4, 78, 0
1, 103807, Note_on_c, 5, 55, 80
1, 103807, Note_on_c, 5, 54, 0
1, 103807, Note_on_c, 7, 67, 100
1, 103807, Note_on_c, 7, 66, 0
1, 103807, Note_on_c, 7, 70, 0
1, 103807, Note_on_c, 7, 71, 100
1, 103807, Note_on_c, 7, 58, 0
1, 103807, Note_on_c, 7, 59, 100
1, 103807, Note_on_c, 7, 46, 0
1, 103807, Note_on_c, 7, 47, 100
1, 103927, Note_on_c, 4, 79, 0
1, 103927, Note_on_c, 5, 55, 0
1, 103927, Note_on_c, 7, 62, 100
1, 103927, Note_on_c, 7, 67, 0
1, 103927, Note_on_c, 7, 71, 0
1, 103927, Note_on_c, 7, 47, 0
1, 104047, Note_on_c, 7, 62, 0
1, 104047, Note_on_c, 7, 62, 100
1, 104047, Note_on_c, 7, 59, 0
1, 104047, Note_on_c, 7, 59, 100
1, 104167, Note_on_c, 7, 62, 0
1, 104167, Note_on_c, 7, 62, 100
1, 104167, Note_on_c, 7, 59, 0
1, 104167, Note_on_c, 7, 59, 100
1, 104287, Note_on_c, 3, 67, 0
1, 104287, Note_on_c, 3, 58, 127
1, 104287, Note_on_c, 7, 62, 0
1, 104287, Note_on_c, 7, 59, 0
1, 104287, Note_on_c, 7, 52, 100
1, 104287, Note_on_c, 7, 49, 100
1, 104287, Note_on_c, 7, 37, 100
1, 104407, Note_on_c, 7, 79, 100
1, 104407, Note_on_c, 7, 76, 100
1, 104407, Note_on_c, 7, 52, 0
1, 104407, Note_on_c, 7, 49, 0
1, 104407, Note_on_c, 7, 37, 0
1, 104527, Note_on_c, 7, 79, 0
1, 104527, Note_on_c, 7, 79, 100
1, 104527, Note_on_c, 7, 76, 0
1, 104527, Note_on_c, 7, 76, 100
1, 104647, Note_on_c, 7, 79, 0
1, 104647, Note_on_c, 7, 79, 100
1, 104647, Note_on_c, 7, 76, 0
1, 104647, Note_on_c, 7, 76, 100
1, 104767, Note_on_c, 3, 58, 0
1, 104767, Note_on_c, 3, 78, 127
1, 104767, Note_on_c, 7, 79, 0
1, 104767, Note_on_c, 7, 76, 0
1, 104767, Note_on_c, 7, 54, 100
1, 104767, Note_on_c, 7, 50, 100
1, 104767, Note_on_c, 7, 38, 100
1, 104887, Note_on_c, 7, 62, 100
1, 104887, Note_on_c, 7, 59, 100
1, 104887, Note_on_c, 7, 54, 0
1, 104887, Note_on_c, 7, 50, 0
1, 104887, Note_on_c, 7, 38, 0
1, 105007, Note_on_c, 7, 62, 0
1, 105007, Note_on_c, 7, 62, 100
1, 105007, Note_on_c, 7, 59, 0
1, 105007, Note_on_c, 7, 59, 100
1, 105127, Note_on_c, 7, 62, 0
1, 105127, Note_on_c, 7, 62, 100
1, 105127, Note_on_c, 7, 59, 0
1, 105127, Note_on_c, 7, 59, 100
1, 105247, Note_on_c, 3, 78, 0
1, 105247, Note_on_c, 3, 60, 127
1, 105247, Note_on_c, 7, 62, 0
1, 105247, Note_on_c, 7, 59, 0
1, 105247, Note_on_c, 7, 54, 100
1, 105247, Note_on_c, 7, 51, 100
1, 105247, Note_on_c, 7, 39, 100
1, 105367, Note_on_c, 7, 81, 100
1, 105367, Note_on_c, 7, 78, 100
1, 105367, Note_on_c, 7, 54, 0
1, 105367, Note_on_c, 7, 51, 0
1, 105367, Note_on_c, 7, 39, 0
1, 105487, Note_on_c, 7, 81, 0
1, 105487, Note_on_c, 7, 81, 100
1, 105487, Note_on_c, 7, 78, 0
1, 105487, Note_on_c, 7, 78, 100
1, 105607, Note_on_c, 7, 81, 0
1, 105607, Note_on_c, 7, 81, 100
1, 105607, Note_on_c, 7, 78, 0
1, 105607, Note_on_c, 7, 78, 100
1, 105727, Note_on_c, 3, 60, 0
1, 105727, Note_on_c, 3, 61, 127
1, 105727, Note_on_c, 7, 81, 0
1, 105727, Note_on_c, 7, 81, 100
1, 105727, Note_on_c, 7, 78, 0
1, 105727, Note_on_c, 7, 78, 100
1, 105727, Note_on_c, 7, 61, 100
1, 105727, Note_on_c, 7, 49, 100
1, 105727, Note_on_c, 7, 37, 100
1, 105787, Note_on_c, 7, 81, 0
1, 105787, Note_on_c, 7, 66, 100
1, 105787, Note_on_c, 7, 78, 0
1, 105787, Note_on_c, 7, 57, 100
1, 105787, Note_on_c, 7, 61, 0
1, 105787, Note_on_c, 7, 61, 100
1, 105787, Note_on_c, 7, 49, 0
1, 105787, Note_on_c, 7, 49, 100
1, 105787, Note_on_c, 7, 37, 0
1, 105787, Note_on_c, 7, 37, 100
1, 105847, Note_on_c, 3, 61, 0
1, 105847, Note_on_c, 7, 66, 0
1, 105847, Note_on_c, 7, 66, 100
1, 105847, Note_on_c, 7, 57, 0
1, 105847, Note_on_c, 7, 57, 100
1, 105847, Note_on_c, 7, 61, 0
1, 105847, Note_on_c, 7, 61, 100
1, 105847, Note_on_c, 7, 49, 0
1, 105847, Note_on_c, 7, 49, 100
1, 105847, Note_on_c, 7, 37, 0
1, 105847, Note_on_c, 7, 37, 100
1, 105907, Note_on_c, 3, 57, 127
1, 105937, Note_on_c, 3, 57, 0
1, 105937, Note_on_c, 3, 56, 127
1, 105967, Note_on_c, 3, 56, 0
1, 105967, Note_on_c, 3, 57, 127
1, 105967, Note_on_c, 7, 66, 0
1, 105967, Note_on_c, 7, 57, 0
1, 105967, Note_on_c, 7, 61, 0
1, 105967, Note_on_c, 7, 49, 0
1, 105967, Note_on_c, 7, 37, 0
1, 106027, Note_on_c, 3, 57, 0
1, 106027, Note_on_c, 3, 66, 127
1, 106057, Note_on_c, 3, 66, 0
1, 106057, Note_on_c, 3, 65, 127
1, 106087, Note_on_c, 3, 65, 0
1, 106087, Note_on_c, 3, 66, 127
1, 106147, Note_on_c, 3, 66, 0
1, 106147, Note_on_c, 3, 73, 127
1, 106177, Note_on_c, 3, 73, 0
1, 106177, Note_on_c, 3, 72, 127
1, 106207, Note_on_c, 3, 72, 0
1, 106207, Note_on_c, 3, 73, 127
1, 106207, Note_on_c, 7, 69, 100
1, 106207, Note_on_c, 7, 66, 100
1, 106207, Note_on_c, 7, 61, 100
1, 106207, Note_on_c, 7, 49, 100
1, 106207, Note_on_c, 7, 37, 100
1, 106267, Note_on_c, 7, 69, 0
1, 106267, Note_on_c, 7, 69, 100
1, 106267, Note_on_c, 7, 66, 0
1, 106267, Note_on_c, 7, 66, 100
1, 106267, Note_on_c, 7, 61, 0
1, 106267, Note_on_c, 7, 61, 100
1, 106267, Note_on_c, 7, 49, 0
1, 106267, Note_on_c, 7, 49, 100
1, 106267, Note_on_c, 7, 37, 0
1, 106267, Note_on_c, 7, 37, 100
1, 106327, Note_on_c, 3, 73, 0
1, 106327, Note_on_c, 7, 69, 0
1, 106327, Note_on_c, 7, 69, 100
1, 106327, Note_on_c, 7, 66, 0
1, 106327, Note_on_c, 7, 66, 100
1, 106327, Note_on_c, 7, 61, 0
1, 106327, Note_on_c, 7, 61, 100
1, 106327, Note_on_c, 7, 49, 0
1, 106327, Note_on_c, 7, 49, 100
1, 106327, Note_on_c, 7, 37, 0
1, 106327, Note_on_c, 7, 37, 100
1, 106387, Note_on_c, 3, 69, 127
1, 106417, Note_on_c, 3, 69, 0
1, 106417, Note_on_c, 3, 68, 127
1, 106447, Note_on_c, 3, 68, 0
1, 106447, Note_on_c, 3, 69, 127
1, 106447, Note_on_c, 7, 69, 0
1, 106447, Note_on_c, 7, 66, 0
1, 106447, Note_on_c, 7, 61, 0
1, 106447, Note_on_c, 7, 49, 0
1, 106447, Note_on_c, 7, 37, 0
1, 106507, Note_on_c, 3, 69, 0
1, 106507, Note_on_c, 3, 78, 127
1, 106537, Note_on_c, 3, 78, 0
1, 106537, Note_on_c, 3, 77, 127
1, 106567, Note_on_c, 3, 77, 0
1, 106567, Note_on_c, 3, 78, 127
1, 106627, Note_on_c, 3, 78, 0
1, 106627, Note_on_c, 3, 81, 127
1, 106657, Note_on_c, 3, 81, 0
1, 106657, Note_on_c, 3, 80, 127
1, 106687, Note_on_c, 3, 80, 0
1, 106687, Note_on_c, 3, 81, 127
1, 106687, Note_on_c, 7, 78, 100
1, 106687, Note_on_c, 7, 69, 100
1, 106687, Note_on_c, 7, 73, 100
1, 106687, Note_on_c, 7, 61, 100
1, 106687, Note_on_c, 7, 49, 100
1, 106747, Note_on_c, 7, 78, 0
1, 106747, Note_on_c, 7, 78, 100
1, 106747, Note_on_c, 7, 69, 0
1, 106747, Note_on_c, 7, 69, 100
1, 106747, Note_on_c, 7, 73, 0
1, 106747, Note_on_c, 7, 73, 100
1, 106747, Note_on_c, 7, 61, 0
1, 106747, Note_on_c, 7, 61, 100
1, 106747, Note_on_c, 7, 49, 0
1, 106747, Note_on_c, 7, 49, 100
1, 106807, Note_on_c, 3, 81, 0
1, 106807, Note_on_c, 7, 78, 0
1, 106807, Note_on_c, 7, 78, 100
1, 106807, Note_on_c, 7, 69, 0
1, 106807, Note_on_c, 7, 69, 100
1, 106807, Note_on_c, 7, 73, 0
1, 106807, Note_on_c, 7, 73, 100
1, 106807, Note_on_c, 7, 61, 0
1, 106807, Note_on_c, 7, 61, 100
1, 106807, Note_on_c, 7, 49, 0
1, 106807, Note_on_c, 7, 49, 100
1, 106867, Note_on_c, 3, 73, 127
1, 106897, Note_on_c, 3, 73, 0
1, 106897, Note_on_c, 3, 72, 127
1, 106927, Note_on_c, 3, 72, 0
1, 106927, Note_on_c, 3, 73, 127
1, 106927, Note_on_c, 7, 78, 0
1, 106927, Note_on_c, 7, 69, 0
1, 106927, Note_on_c, 7, 73, 0
1, 106927, Note_on_c, 7, 61, 0
1, 106927, Note_on_c, 7, 49, 0
1, 106987, Note_on_c, 3, 73, 0
1, 106987, Note_on_c, 3, 81, 127
1, 107017, Note_on_c, 3, 81, 0
1, 107017, Note_on_c, 3, 80, 127
1, 107047, Note_on_c, 3, 80, 0
1, 107047, Note_on_c, 3, 81, 127
1, 107107, Note_on_c, 3, 81, 0
1, 107107, Note_on_c, 3, 85, 127
1, 107137, Note_on_c, 3, 85, 0
1, 107137, Note_on_c, 3, 84, 127
1, 107167, Note_on_c, 3, 84, 0
1, 107167, Note_on_c, 3, 85, 127
1, 107227, Note_on_c, 3, 85, 0
1, 107227, Note_on_c, 7, 81, 100
1, 107227, Note_on_c, 7, 78, 100
1, 107287, Note_on_c, 3, 66, 127
1, 107287, Note_on_c, 7, 81, 0
1, 107287, Note_on_c, 7, 81, 100
1, 107287, Note_on_c, 7, 78, 0
1, 107287, Note_on_c, 7, 78, 100
1, 107347, Note_on_c, 7, 81, 0
1, 107347, Note_on_c, 7, 81, 100
1, 107347, Note_on_c, 7, 78, 0
1, 107347, Note_on_c, 7, 78, 100
1, 107407, Note_on_c, 3, 66, 0
1, 107407, Note_on_c, 3, 62, 127
1, 107407, Note_on_c, 7, 81, 0
1, 107407, Note_on_c, 7, 81, 100
1, 107407, Note_on_c, 7, 78, 0
1, 107407, Note_on_c, 7, 78, 100
1, 107467, Note_on_c, 7, 81, 0
1, 107467, Note_on_c, 7, 81, 100
1, 107467, Note_on_c, 7, 78, 0
1, 107467, Note_on_c, 7, 78, 100
1, 107527, Note_on_c, 3, 62, 0
1, 107527, Note_on_c, 3, 60, 127
1, 107527, Note_on_c, 7, 81, 0
1, 107527, Note_on_c, 7, 81, 100
1, 107527, Note_on_c, 7, 78, 0
1, 107527, Note_on_c, 7, 78, 100
1, 107587, Note_on_c, 7, 81, 0
1, 107587, Note_on_c, 7, 81, 100
1, 107587, Note_on_c, 7, 78, 0
1, 107587, Note_on_c, 7, 78, 100
1, 107647, Note_on_c, 3, 60, 0
1, 107647, Note_on_c, 3, 61, 127
1, 107647, Note_on_c, 7, 81, 0
1, 107647, Note_on_c, 7, 81, 100
1, 107647, Note_on_c, 7, 78, 0
1, 107647, Note_on_c, 7, 78, 100
1, 107767, Note_on_c, 3, 61, 0
1, 107767, Note_on_c, 7, 81, 0
1, 107767, Note_on_c, 7, 61, 100
1, 107767, Note_on_c, 7, 78, 0
1, 107767, Note_on_c, 7, 49, 100
1, 107767, Note_on_c, 7, 37, 100
1, 107827, Note_on_c, 3, 72, 127
1, 107857, Note_on_c, 3, 72, 0
1, 107887, Note_on_c, 3, 73, 127
1, 107887, Note_on_c, 7, 61, 0
1, 107887, Note_on_c, 7, 49, 0
1, 107887, Note_on_c, 7, 37, 0
1, 107917, Note_on_c, 3, 73, 0
1, 107947, Note_on_c, 3, 74, 127
1, 107977, Note_on_c, 3, 74, 0
1, 108007, Note_on_c, 3, 75, 127
1, 108037, Note_on_c, 3, 75, 0
1, 108067, Note_on_c, 3, 76, 127
1, 108097, Note_on_c, 3, 76, 0
1, 108127, Note_on_c, 3, 77, 127
1, 108127, Note_on_c, 6, 49, 80
1, 108127, Note_on_c, 7, 61, 100
1, 108142, Note_on_c, 3, 77, 0
1, 108142, Note_on_c, 3, 78, 127
1, 108157, Note_on_c, 3, 78, 0
1, 108157, Note_on_c, 3, 77, 127
1, 108172, Note_on_c, 3, 77, 0
1, 108172, Note_on_c, 3, 78, 127
1, 108187, Note_on_c, 3, 78, 0
1, 108187, Note_on_c, 3, 77, 127
1, 108187, Note_on_c, 7, 71, 100
1, 108187, Note_on_c, 7, 68, 100
1, 108202, Note_on_c, 3, 77, 0
1, 108202, Note_on_c, 3, 78, 127
1, 108217, Note_on_c, 3, 78, 0
1, 108217, Note_on_c, 3, 77, 127
1, 108232, Note_on_c, 3, 77, 0
1, 108232, Note_on_c, 3, 78, 127
1, 108247, Note_on_c, 3, 78, 0
1, 108247, Note_on_c, 3, 77, 127
1, 108247, Note_on_c, 7, 71, 0
1, 108247, Note_on_c, 7, 71, 100
1, 108247, Note_on_c, 7, 68, 0
1, 108247, Note_on_c, 7, 68, 100
1, 108247, Note_on_c, 7, 61, 0
1, 108262, Note_on_c, 3, 77, 0
1, 108262, Note_on_c, 3, 78, 127
1, 108277, Note_on_c, 3, 78, 0
1, 108277, Note_on_c, 3, 77, 127
1, 108292, Note_on_c, 3, 77, 0
1, 108292, Note_on_c, 3, 78, 127
1, 108307, Note_on_c, 3, 78, 0
1, 108307, Note_on_c, 3, 77, 127
1, 108307, Note_on_c, 7, 71, 0
1, 108307, Note_on_c, 7, 71, 100
1, 108307, Note_on_c, 7, 68, 0
1, 108307, Note_on_c, 7, 68, 100
1, 108322, Note_on_c, 3, 77, 0
1, 108322, Note_on_c, 3, 78, 127
1, 108337, Note_on_c, 3, 78, 0
1, 108337, Note_on_c, 3, 77, 127
1, 108352, Note_on_c, 3, 77, 0
1, 108352, Note_on_c, 3, 78, 127
1, 108367, Note_on_c, 3, 78, 0
1, 108367, Note_on_c, 3, 78, 127
1, 108367, Note_on_c, 4, 81, 80
1, 108367, Note_on_c, 4, 78, 80
1, 108367, Note_on_c, 5, 57, 80
1, 108367, Note_on_c, 7, 71, 0
1, 108367, Note_on_c, 7, 68, 0
1, 108367, Note_on_c, 7, 61, 100
1, 108382, Note_on_c, 3, 78, 0
1, 108382, Note_on_c, 3, 80, 127
1, 108397, Note_on_c, 3, 80, 0
1, 108397, Note_on_c, 3, 78, 127
1, 108412, Note_on_c, 3, 78, 0
1, 108412, Note_on_c, 3, 80, 127
1, 108427, Note_on_c, 3, 80, 0
1, 108427, Note_on_c, 3, 78, 127
1, 108427, Note_on_c, 7, 69, 100
1, 108427, Note_on_c, 7, 66, 100
1, 108442, Note_on_c, 3, 78, 0
1, 108442, Note_on_c, 3, 80, 127
1, 108457, Note_on_c, 3, 80, 0
1, 108457, Note_on_c, 3, 78, 127
1, 108472, Note_on_c, 3, 78, 0
1, 108472, Note_on_c, 3, 80, 127
1, 108487, Note_on_c, 3, 80, 0
1, 108487, Note_on_c, 3, 78, 127
1, 108487, Note_on_c, 7, 69, 0
1, 108487, Note_on_c, 7, 69, 100
1, 108487, Note_on_c, 7, 66, 0
1, 108487, Note_on_c, 7, 66, 100
1, 108487, Note_on_c, 7, 61, 0
1, 108502, Note_on_c, 3, 78, 0
1, 108502, Note_on_c, 3, 80, 127
1, 108517, Note_on_c, 3, 80, 0
1, 108517, Note_on_c, 3, 78, 127
1, 108532, Note_on_c, 3, 78, 0
1, 108532, Note_on_c, 3, 80, 127
1, 108547, Note_on_c, 3, 80, 0
1, 108547, Note_on_c, 3, 78, 127
1, 108547, Note_on_c, 7, 69, 0
1, 108547, Note_on_c, 7, 69, 100
1, 108547, Note_on_c, 7, 66, 0
1, 108547, Note_on_c, 7, 66, 100
1, 108562, Note_on_c, 3, 78, 0
1, 108562, Note_on_c, 3, 80, 127
1, 108577, Note_on_c, 3, 80, 0
1, 108577, Note_on_c, 3, 78, 127
1, 108592, Note_on_c, 3, 78, 0
1, 108592, Note_on_c, 3, 80, 127
1, 108607, Note_on_c, 3, 80, 0
1, 108607, Note_on_c, 3, 80, 127
1, 108607, Note_on_c, 4, 81, 0
1, 108607, Note_on_c, 4, 80, 80
1, 108607, Note_on_c, 5, 56, 80
1, 108607, Note_on_c, 5, 57, 0
1, 108607, Note_on_c, 7, 69, 0
1, 108607, Note_on_c, 7, 68, 100
1, 108607, Note_on_c, 7, 66, 0
1, 108607, Note_on_c, 7, 66, 100
1, 108607, Note_on_c, 7, 61, 100
1, 108607, Note_on_c, 7, 49, 100
1, 108607, Note_on_c, 7, 37, 100
1, 108622, Note_on_c, 3, 80, 0
1, 108622, Note_on_c, 3, 81, 127
1, 108637, Note_on_c, 3, 81, 0
1, 108637, Note_on_c, 3, 80, 127
1, 108652, Note_on_c, 3, 80, 0
1, 108652, Note_on_c, 3, 81, 127
1, 108667, Note_on_c, 3, 81, 0
1, 108667, Note_on_c, 3, 80, 127
1, 108667, Note_on_c, 7, 61, 0
1, 108667, Note_on_c, 7, 61, 100
1, 108667, Note_on_c, 7, 49, 0
1, 108667, Note_on_c, 7, 49, 100
1, 108667, Note_on_c, 7, 37, 0
1, 108667, Note_on_c, 7, 37, 100
1, 108682, Note_on_c, 3, 80, 0
1, 108682, Note_on_c, 3, 81, 127
1, 108697, Note_on_c, 3, 81, 0
1, 108697, Note_on_c, 3, 80, 127
1, 108712, Note_on_c, 3, 80, 0
1, 108712, Note_on_c, 3, 81, 127
1, 108727, Note_on_c, 3, 81, 0
1, 108727, Note_on_c, 3, 80, 127
1, 108727, Note_on_c, 7, 68, 0
1, 108727, Note_on_c, 7, 66, 0
1, 108727, Note_on_c, 7, 61, 0
1, 108727, Note_on_c, 7, 61, 100
1, 108727, Note_on_c, 7, 49, 0
1, 108727, Note_on_c, 7, 49, 100
1, 108727, Note_on_c, 7, 37, 0
1, 108727, Note_on_c, 7, 37, 100
1, 108742, Note_on_c, 3, 80, 0
1, 108742, Note_on_c, 3, 81, 127
1, 108757, Note_on_c, 3, 81, 0
1, 108757, Note_on_c, 3, 80, 127
1, 108772, Note_on_c, 3, 80, 0
1, 108772, Note_on_c, 3, 81, 127
1, 108787, Note_on_c, 3, 81, 0
1, 108787, Note_on_c, 3, 80, 127
1, 108787, Note_on_c, 7, 61, 0
1, 108787, Note_on_c, 7, 61, 100
1, 108787, Note_on_c, 7, 49, 0
1, 108787, Note_on_c, 7, 49, 100
1, 108787, Note_on_c, 7, 37, 0
1, 108787, Note_on_c, 7, 37, 100
1, 108802, Note_on_c, 3, 80, 0
1, 108802, Note_on_c, 3, 81, 127
1, 108817, Note_on_c, 3, 81, 0
1, 108817, Note_on_c, 3, 80, 127
1, 108832, Note_on_c, 3, 80, 0
1, 108832, Note_on_c, 3, 81, 127
1, 108847, Note_on_c, 3, 81, 0
1, 108847, Note_on_c, 3, 80, 127
1, 108847, Note_on_c, 4, 78, 0
1, 108847, Note_on_c, 4, 77, 80
1, 108847, Note_on_c, 7, 68, 100
1, 108847, Note_on_c, 7, 77, 100
1, 108847, Note_on_c, 7, 85, 100
1, 108847, Note_on_c, 7, 65, 100
1, 108847, Note_on_c, 7, 73, 100
1, 108847, Note_on_c, 7, 80, 100
1, 108847, Note_on_c, 7, 61, 0
1, 108847, Note_on_c, 7, 61, 100
1, 108847, Note_on_c, 7, 49, 0
1, 108847, Note_on_c, 7, 49, 100
1, 108847, Note_on_c, 7, 37, 0
1, 108847, Note_on_c, 7, 37, 100
1, 108862, Note_on_c, 3, 80, 0
1, 108862, Note_on_c, 3, 81, 127
1, 108877, Note_on_c, 3, 81, 0
1, 108877, Note_on_c, 3, 80, 127
1, 108892, Note_on_c, 3, 80, 0
1, 108892, Note_on_c, 3, 81, 127
1, 108907, Note_on_c, 3, 81, 0
1, 108907, Note_on_c, 3, 80, 127
1, 108907, Note_on_c, 7, 61, 0
1, 108907, Note_on_c, 7, 61, 100
1, 108907, Note_on_c, 7, 49, 0
1, 108907, Note_on_c, 7, 49, 100
1, 108907, Note_on_c, 7, 37, 0
1, 108907, Note_on_c, 7, 37, 100
1, 108922, Note_on_c, 3, 80, 0
1, 108922, Note_on_c, 3, 81, 127
1, 108937, Note_on_c, 3, 81, 0
1, 108937, Note_on_c, 3, 80, 127
1, 108952, Note_on_c, 3, 80, 0
1, 108952, Note_on_c, 3, 81, 127
1, 108967, Note_on_c, 3, 81, 0
1, 108967, Note_on_c, 3, 80, 127
1, 108967, Note_on_c, 7, 68, 0
1, 108967, Note_on_c, 7, 77, 0
1, 108967, Note_on_c, 7, 85, 0
1, 108967, Note_on_c, 7, 65, 0
1, 108967, Note_on_c, 7, 73, 0
1, 108967, Note_on_c, 7, 80, 0
1, 108967, Note_on_c, 7, 61, 0
1, 108967, Note_on_c, 7, 61, 100
1, 108967, Note_on_c, 7, 49, 0
1, 108967, Note_on_c, 7, 49, 100
1, 108967, Note_on_c, 7, 37, 0
1, 108967, Note_on_c, 7, 37, 100
1, 108982, Note_on_c, 3, 80, 0
1, 108982, Note_on_c, 3, 81, 127
1, 108997, Note_on_c, 3, 81, 0
1, 108997, Note_on_c, 3, 80, 127
1, 109012, Note_on_c, 3, 80, 0
1, 109012, Note_on_c, 3, 81, 127
1, 109027, Note_on_c, 3, 81, 0
1, 109027, Note_on_c, 3, 80, 127
1, 109027, Note_on_c, 7, 61, 0
1, 109027, Note_on_c, 7, 61, 100
1, 109027, Note_on_c, 7, 49, 0
1, 109027, Note_on_c, 7, 49, 100
1, 109027, Note_on_c, 7, 37, 0
1, 109027, Note_on_c, 7, 37, 100
1, 109042, Note_on_c, 3, 80, 0
1, 109042, Note_on_c, 3, 81, 127
1, 109057, Note_on_c, 3, 81, 0
1, 109057, Note_on_c, 3, 78, 127
1, 109072, Note_on_c, 3, 78, 0
1, 109072, Note_on_c, 3, 80, 127
1, 109087, Note_on_c, 3, 80, 0
1, 109087, Note_on_c, 3, 78, 127
1, 109087, Note_on_c, 4, 80, 0
1, 109087, Note_on_c, 4, 78, 80
1, 109087, Note_on_c, 4, 77, 0
1, 109087, Note_on_c, 5, 54, 80
1, 109087, Note_on_c, 5, 56, 0
1, 109087, Note_on_c, 7, 78, 100
1, 109087, Note_on_c, 7, 66, 100
1, 109087, Note_on_c, 7, 61, 0
1, 109087, Note_on_c, 7, 49, 0
1, 109087, Note_on_c, 7, 54, 100
1, 109087, Note_on_c, 7, 37, 0
1, 109087, Note_on_c, 7, 42, 100
1, 109117, Note_on_c, 4, 78, 0
1, 109117, Note_on_c, 5, 54, 0
1, 109117, Note_on_c, 7, 78, 0
1, 109117, Note_on_c, 7, 78, 100
1, 109117, Note_on_c, 7, 54, 0
1, 109117, Note_on_c, 7, 42, 0
1, 109147, Note_on_c, 4, 77, 80
1, 109147, Note_on_c, 5, 53, 80
1, 109147, Note_on_c, 6, 49, 0
1, 109147, Note_on_c, 7, 78, 0
1, 109147, Note_on_c, 7, 77, 100
1, 109147, Note_on_c, 7, 66, 0
1, 109147, Note_on_c, 7, 65, 100
1, 109147, Note_on_c, 7, 53, 100
1, 109147, Note_on_c, 7, 41, 100
1, 109177, Note_on_c, 4, 77, 0
1, 109177, Note_on_c, 5, 53, 0
1, 109177, Note_on_c, 7, 77, 0
1, 109177, Note_on_c, 7, 77, 100
1, 109177, Note_on_c, 7, 53, 0
1, 109177, Note_on_c, 7, 41, 0
1, 109207, Note_on_c, 3, 78, 0
1, 109207, Note_on_c, 4, 78, 80
1, 109207, Note_on_c, 5, 54, 80
1, 109207, Note_on_c, 7, 77, 0
1, 109207, Note_on_c, 7, 78, 100
1, 109207, Note_on_c, 7, 65, 0
1, 109207, Note_on_c, 7, 66, 100
1, 109207, Note_on_c, 7, 54, 100
1, 109207, Note_on_c, 7, 42, 100
1, 109237, Note_on_c, 4, 78, 0
1, 109237, Note_on_c, 5, 54, 0
1, 109237, Note_on_c, 7, 78, 0
1, 109237, Note_on_c, 7, 78, 100
1, 109237, Note_on_c, 7, 54, 0
1, 109237, Note_on_c, 7, 42, 0
1, 109267, Note_on_c, 4, 80, 80
1, 109267, Note_on_c, 5, 56, 80
1, 109267, Note_on_c, 7, 78, 0
1, 109267, Note_on_c, 7, 80, 100
1, 109267, Note_on_c, 7, 66, 0
1, 109267, Note_on_c, 7, 68, 100
1, 109267, Note_on_c, 7, 56, 100
1, 109267, Note_on_c, 7, 44, 100
1, 109297, Note_on_c, 4, 80, 0
1, 109297, Note_on_c, 5, 56, 0
1, 109297, Note_on_c, 7, 80, 0
1, 109297, Note_on_c, 7, 80, 100
1, 109297, Note_on_c, 7, 56, 0
1, 109297, Note_on_c, 7, 44, 0
1, 109327, Note_on_c, 4, 81, 80
1, 109327, Note_on_c, 5, 57, 80
1, 109327, Note_on_c, 7, 80, 0
1, 109327, Note_on_c, 7, 81, 100
1, 109327, Note_on_c, 7, 68, 0
1, 109327, Note_on_c, 7, 69, 100
1, 109327, Note_on_c, 7, 57, 100
1, 109327, Note_on_c, 7, 45, 100
1, 109357, Note_on_c, 4, 81, 0
1, 109357, Note_on_c, 5, 57, 0
1, 109357, Note_on_c, 7, 81, 0
1, 109357, Note_on_c, 7, 81, 100
1, 109357, Note_on_c, 7, 57, 0
1, 109357, Note_on_c, 7, 45, 0
1, 109387, Note_on_c, 4, 80, 80
1, 109387, Note_on_c, 5, 56, 80
1, 109387, Note_on_c, 7, 81, 0
1, 109387, Note_on_c, 7, 80, 100
1, 109387, Note_on_c, 7, 69, 0
1, 109387, Note_on_c, 7, 68, 100
1, 109387, Note_on_c, 7, 56, 100
1, 109387, Note_on_c, 7, 44, 100
1, 109417, Note_on_c, 4, 80, 0
1, 109417, Note_on_c, 5, 56, 0
1, 109417, Note_on_c, 7, 80, 0
1, 109417, Note_on_c, 7, 80, 100
1, 109417, Note_on_c, 7, 56, 0
1, 109417, Note_on_c, 7, 44, 0
1, 109447, Note_on_c, 4, 81, 80
1, 109447, Note_on_c, 5, 57, 80
1, 109447, Note_on_c, 7, 80, 0
1, 109447, Note_on_c, 7, 81, 100
1, 109447, Note_on_c, 7, 68, 0
1, 109447, Note_on_c, 7, 69, 100
1, 109447, Note_on_c, 7, 57, 100
1, 109447, Note_on_c, 7, 45, 100
1, 109477, Note_on_c, 4, 81, 0
1, 109477, Note_on_c, 5, 57, 0
1, 109477, Note_on_c, 7, 81, 0
1, 109477, Note_on_c, 7, 83, 100
1, 109477, Note_on_c, 7, 57, 0
1, 109477, Note_on_c, 7, 45, 0
1, 109507, Note_on_c, 4, 83, 80
1, 109507, Note_on_c, 5, 59, 80
1, 109507, Note_on_c, 7, 83, 0
1, 109507, Note_on_c, 7, 83, 100
1, 109507, Note_on_c, 7, 69, 0
1, 109507, Note_on_c, 7, 71, 100
1, 109507, Note_on_c, 7, 59, 100
1, 109507, Note_on_c, 7, 47, 100
1, 109537, Note_on_c, 4, 83, 0
1, 109537, Note_on_c, 5, 59, 0
1, 109537, Note_on_c, 7, 83, 0
1, 109537, Note_on_c, 7, 85, 100
1, 109537, Note_on_c, 7, 59, 0
1, 109537, Note_on_c, 7, 47, 0
1, 109567, Note_on_c, 4, 85, 80
1, 109567, Note_on_c, 5, 61, 80
1, 109567, Note_on_c, 6, 61, 80
1, 109567, Note_on_c, 6, 49, 80
1, 109567, Note_on_c, 7, 85, 0
1, 109567, Note_on_c, 7, 85, 100
1, 109567, Note_on_c, 7, 71, 0
1, 109567, Note_on_c, 7, 73, 100
1, 109567, Note_on_c, 7, 61, 100
1, 109567, Note_on_c, 7, 49, 100
1, 109597, Note_on_c, 4, 85, 0
1, 109597, Note_on_c, 5, 61, 0
1, 109597, Note_on_c, 7, 85, 0
1, 109597, Note_on_c, 7, 85, 100
1, 109597, Note_on_c, 7, 61, 0
1, 109597, Note_on_c, 7, 49, 0
1, 109627, Note_on_c, 4, 84, 80
1, 109627, Note_on_c, 5, 60, 80
1, 109627, Note_on_c, 7, 85, 0
1, 109627, Note_on_c, 7, 84, 100
1, 109627, Note_on_c, 7, 73, 0
1, 109627, Note_on_c, 7, 72, 100
1, 109627, Note_on_c, 7, 60, 100
1, 109627, Note_on_c, 7, 48, 100
1, 109657, Note_on_c, 4, 84, 0
1, 109657, Note_on_c, 5, 60, 0
1, 109657, Note_on_c, 7, 84, 0
1, 109657, Note_on_c, 7, 84, 100
1, 109657, Note_on_c, 7, 60, 0
1, 109657, Note_on_c, 7, 48, 0
1, 109687, Note_on_c, 4, 85, 80
1, 109687, Note_on_c, 5, 61, 80
1, 109687, Note_on_c, 6, 61, 0
1, 109687, Note_on_c, 6, 49, 0
1, 109687, Note_on_c, 7, 84, 0
1, 109687, Note_on_c, 7, 73, 100
1, 109687, Note_on_c, 7, 72, 0
1, 109687, Note_on_c, 7, 61, 100
1, 109687, Note_on_c, 7, 49, 100
1, 109717, Note_on_c, 4, 85, 0
1, 109717, Note_on_c, 5, 61, 0
1, 109717, Note_on_c, 7, 61, 0
1, 109717, Note_on_c, 7, 49, 0
1, 109747, Note_on_c, 4, 86, 80
1, 109747, Note_on_c, 5, 62, 80
1, 109747, Note_on_c, 7, 74, 100
1, 109747, Note_on_c, 7, 73, 0
1, 109747, Note_on_c, 7, 62, 100
1, 109747, Note_on_c, 7, 50, 100
1, 109777, Note_on_c, 4, 86, 0
1, 109777, Note_on_c, 5, 62, 0
1, 109777, Note_on_c, 7, 62, 0
1, 109777, Note_on_c, 7, 50, 0
1, 109807, Note_on_c, 4, 85, 80
1, 109807, Note_on_c, 5, 61, 80
1, 109807, Note_on_c, 7, 73, 100
1, 109807, Note_on_c, 7, 74, 0
1, 109807, Note_on_c, 7, 61, 100
1, 109807, Note_on_c, 7, 49, 100
1, 109837, Note_on_c, 4, 85, 0
1, 109837, Note_on_c, 5, 61, 0
1, 109837, Note_on_c, 7, 61, 0
1, 109837, Note_on_c, 7, 49, 0
1, 109867, Note_on_c, 4, 83, 80
1, 109867, Note_on_c, 5, 59, 80
1, 109867, Note_on_c, 7, 83, 100
1, 109867, Note_on_c, 7, 73, 0
1, 109867, Note_on_c, 7, 71, 100
1, 109867, Note_on_c, 7, 59, 100
1, 109867, Note_on_c, 7, 47, 100
1, 109897, Note_on_c, 4, 83, 0
1, 109897, Note_on_c, 5, 59, 0
1, 109897, Note_on_c, 7, 83, 0
1, 109897, Note_on_c, 7, 83, 100
1, 109897, Note_on_c, 7, 59, 0
1, 109897, Note_on_c, 7, 47, 0
1, 109927, Note_on_c, 4, 81, 80
1, 109927, Note_on_c, 5, 57, 80
1, 109927, Note_on_c, 7, 83, 0
1, 109927, Note_on_c, 7, 81, 100
1, 109927, Note_on_c, 7, 71, 0
1, 109927, Note_on_c, 7, 69, 100
1, 109927, Note_on_c, 7, 57, 100
1, 109927, Note_on_c, 7, 45, 100
1, 109957, Note_on_c, 4, 81, 0
1, 109957, Note_on_c, 5, 57, 0
1, 109957, Note_on_c, 7, 81, 0
1, 109957, Note_on_c, 7, 81, 100
1, 109957, Note_on_c, 7, 57, 0
1, 109957, Note_on_c, 7, 45, 0
1, 109987, Note_on_c, 4, 80, 80
1, 109987, Note_on_c, 5, 56, 80
1, 109987, Note_on_c, 7, 81, 0
1, 109987, Note_on_c, 7, 80, 100
1, 109987, Note_on_c, 7, 69, 0
1, 109987, Note_on_c, 7, 68, 100
1, 109987, Note_on_c, 7, 56, 100
1, 109987, Note_on_c, 7, 44, 100
1, 110017, Note_on_c, 4, 80, 0
1, 110017, Note_on_c, 5, 56, 0
1, 110017, Note_on_c, 7, 80, 0
1, 110017, Note_on_c, 7, 80, 100
1, 110017, Note_on_c, 7, 56, 0
1, 110017, Note_on_c, 7, 44, 0
1, 110047, Note_on_c, 4, 78, 80
1, 110047, Note_on_c, 5, 54, 80
1, 110047, Note_on_c, 6, 57, 80
1, 110047, Note_on_c, 6, 49, 80
1, 110047, Note_on_c, 7, 80, 0
1, 110047, Note_on_c, 7, 78, 100
1, 110047, Note_on_c, 7, 68, 0
1, 110047, Note_on_c, 7, 66, 100
1, 110047, Note_on_c, 7, 54, 100
1, 110047, Note_on_c, 7, 42, 100
1, 110077, Note_on_c, 7, 78, 0
1, 110107, Note_on_c, 7, 77, 100
1, 110107, Note_on_c, 7, 65, 100
1, 110137, Note_on_c, 7, 77, 0
1, 110137, Note_on_c, 7, 65, 0
1, 110167, Note_on_c, 4, 78, 0
1, 110167, Note_on_c, 5, 54, 0
1, 110167, Note_on_c, 6, 57, 0
1, 110167, Note_on_c, 6, 49, 0
1, 110167, Note_on_c, 7, 78, 100
1, 110167, Note_on_c, 7, 54, 0
1, 110167, Note_on_c, 7, 42, 0
1, 110197, Note_on_c, 7, 78, 0
1, 110197, Note_on_c, 7, 66, 0
1, 110227, Note_on_c, 7, 80, 100
1, 110227, Note_on_c, 7, 68, 100
1, 110257, Note_on_c, 7, 80, 0
1, 110257, Note_on_c, 7, 68, 0
1, 110287, Note_on_c, 5, 66, 80
1, 110287, Note_on_c, 7, 81, 100
1, 110287, Note_on_c, 7, 69, 100
1, 110287, Note_on_c, 7, 66, 100
1, 110287, Note_on_c, 7, 54, 100
1, 110317, Note_on_c, 7, 81, 0
1, 110317, Note_on_c, 7, 69, 0
1, 110347, Note_on_c, 7, 80, 100
1, 110347, Note_on_c, 7, 68, 100
1, 110377, Note_on_c, 7, 80, 0
1, 110377, Note_on_c, 7, 68, 0
1, 110407, Note_on_c, 7, 81, 100
1, 110407, Note_on_c, 7, 69, 100
1, 110437, Note_on_c, 7, 81, 0
1, 110437, Note_on_c, 7, 69, 0
1, 110467, Note_on_c, 7, 83, 100
1, 110467, Note_on_c, 7, 71, 100
1, 110497, Note_on_c, 7, 83, 0
1, 110497, Note_on_c, 7, 71, 0
1, 110527, Note_on_c, 7, 85, 100
1, 110527, Note_on_c, 7, 73, 100
1, 110527, Note_on_c, 7, 68, 100
1, 110557, Note_on_c, 7, 85, 0
1, 110557, Note_on_c, 7, 73, 0
1, 110587, Note_on_c, 7, 73, 100
1, 110587, Note_on_c, 7, 72, 100
1, 110617, Note_on_c, 7, 73, 0
1, 110617, Note_on_c, 7, 72, 0
1, 110647, Note_on_c, 7, 85, 100
1, 110647, Note_on_c, 7, 73, 100
1, 110677, Note_on_c, 7, 85, 0
1, 110677, Note_on_c, 7, 73, 0
1, 110707, Note_on_c, 7, 86, 100
1, 110707, Note_on_c, 7, 74, 100
1, 110737, Note_on_c, 7, 86, 0
1, 110737, Note_on_c, 7, 74, 0
1, 110767, Note_on_c, 5, 66, 0
1, 110767, Note_on_c, 5, 65, 80
1, 110767, Note_on_c, 7, 85, 100
1, 110767, Note_on_c, 7, 73, 100
1, 110767, Note_on_c, 7, 66, 0
1, 110767, Note_on_c, 7, 65, 100
1, 110767, Note_on_c, 7, 54, 0
1, 110767, Note_on_c, 7, 53, 100
1, 110797, Note_on_c, 7, 85, 0
1, 110797, Note_on_c, 7, 73, 0
1, 110827, Note_on_c, 7, 83, 100
1, 110827, Note_on_c, 7, 71, 100
1, 110857, Note_on_c, 7, 83, 0
1, 110857, Note_on_c, 7, 71, 0
1, 110887, Note_on_c, 7, 81, 100
1, 110887, Note_on_c, 7, 69, 100
1, 110887, Note_on_c, 7, 68, 0
1, 110887, Note_on_c, 7, 71, 100
1, 110917, Note_on_c, 7, 81, 0
1, 110917, Note_on_c, 7, 69, 0
1, 110947, Note_on_c, 7, 80, 100
1, 110947, Note_on_c, 7, 68, 100
1, 110977, Note_on_c, 7, 80, 0
1, 110977, Note_on_c, 7, 68, 0
1, 111007, Note_on_c, 5, 65, 0
1, 111007, Note_on_c, 5, 66, 80
1, 111007, Note_on_c, 7, 78, 100
1, 111007, Note_on_c, 7, 66, 100
1, 111007, Note_on_c, 7, 71, 0
1, 111007, Note_on_c, 7, 69, 100
1, 111007, Note_on_c, 7, 65, 0
1, 111007, Note_on_c, 7, 53, 0
1, 111007, Note_on_c, 7, 54, 100
1, 111037, Note_on_c, 7, 78, 0
1, 111067, Note_on_c, 7, 77, 100
1, 111067, Note_on_c, 7, 65, 100
1, 111097, Note_on_c, 7, 77, 0
1, 111097, Note_on_c, 7, 65, 0
1, 111127, Note_on_c, 5, 66, 0
1, 111127, Note_on_c, 7, 78, 100
1, 111127, Note_on_c, 7, 69, 0
1, 111127, Note_on_c, 7, 54, 0
1, 111157, Note_on_c, 7, 78, 0
1, 111157, Note_on_c, 7, 66, 0
1, 111187, Note_on_c, 7, 80, 100
1, 111187, Note_on_c, 7, 68, 100
1, 111217, Note_on_c, 7, 80, 0
1, 111217, Note_on_c, 7, 68, 0
1, 111247, Note_on_c, 5, 64, 80
1, 111247, Note_on_c, 7, 81, 100
1, 111247, Note_on_c, 7, 69, 100
1, 111247, Note_on_c, 7, 66, 100
1, 111247, Note_on_c, 7, 64, 100
1, 111247, Note_on_c, 7, 52, 100
1, 111277, Note_on_c, 7, 81, 0
1, 111277, Note_on_c, 7, 69, 0
1, 111307, Note_on_c, 7, 80, 100
1, 111307, Note_on_c, 7, 68, 100
1, 111337, Note_on_c, 7, 80, 0
1, 111337, Note_on_c, 7, 68, 0
1, 111367, Note_on_c, 7, 81, 100
1, 111367, Note_on_c, 7, 69, 100
1, 111397, Note_on_c, 7, 81, 0
1, 111397, Note_on_c, 7, 69, 0
1, 111427, Note_on_c, 7, 83, 100
1, 111427, Note_on_c, 7, 71, 100
1, 111457, Note_on_c, 7, 83, 0
1, 111457, Note_on_c, 7, 71, 0
1, 111487, Note_on_c, 7, 84, 100
1, 111487, Note_on_c, 7, 72, 100
1, 111517, Note_on_c, 7, 84, 0
1, 111517, Note_on_c, 7, 72, 0
1, 111547, Note_on_c, 7, 83, 100
1, 111547, Note_on_c, 7, 71, 100
1, 111577, Note_on_c, 7, 83, 0
1, 111577, Note_on_c, 7, 71, 0
1, 111607, Note_on_c, 7, 82, 100
1, 111607, Note_on_c, 7, 70, 100
1, 111637, Note_on_c, 7, 82, 0
1, 111637, Note_on_c, 7, 70, 0
1, 111667, Note_on_c, 7, 84, 100
1, 111667, Note_on_c, 7, 72, 100
1, 111697, Note_on_c, 7, 84, 0
1, 111697, Note_on_c, 7, 72, 0
1, 111727, Note_on_c, 5, 64, 0
1, 111727, Note_on_c, 5, 63, 80
1, 111727, Note_on_c, 7, 83, 100
1, 111727, Note_on_c, 7, 71, 100
1, 111727, Note_on_c, 7, 64, 0
1, 111727, Note_on_c, 7, 63, 100
1, 111727, Note_on_c, 7, 52, 0
1, 111727, Note_on_c, 7, 51, 100
1, 111757, Note_on_c, 7, 83, 0
1, 111757, Note_on_c, 7, 71, 0
1, 111787, Note_on_c, 7, 80, 100
1, 111787, Note_on_c, 7, 68, 100
1, 111817, Note_on_c, 7, 80, 0
1, 111817, Note_on_c, 7, 68, 0
1, 111847, Note_on_c, 7, 81, 100
1, 111847, Note_on_c, 7, 69, 100
1, 111847, Note_on_c, 7, 66, 0
1, 111847, Note_on_c, 7, 71, 100
1, 111877, Note_on_c, 7, 81, 0
1, 111877, Note_on_c, 7, 69, 0
1, 111877, Note_on_c, 7, 71, 0
1, 111907, Note_on_c, 7, 78, 100
1, 111907, Note_on_c, 7, 66, 100
1, 111907, Note_on_c, 7, 69, 100
1, 111937, Note_on_c, 7, 78, 0
1, 111937, Note_on_c, 7, 66, 0
1, 111937, Note_on_c, 7, 69, 0
1, 111967, Note_on_c, 4, 76, 80
1, 111967, Note_on_c, 5, 63, 0
1, 111967, Note_on_c, 5, 52, 80
1, 111967, Note_on_c, 6, 52, 80
1, 111967, Note_on_c, 7, 76, 100
1, 111967, Note_on_c, 7, 64, 100
1, 111967, Note_on_c, 7, 67, 100
1, 111967, Note_on_c, 7, 63, 0
1, 111967, Note_on_c, 7, 51, 0
1, 111967, Note_on_c, 7, 52, 100
1, 111997, Note_on_c, 4, 76, 0
1, 111997, Note_on_c, 5, 52, 0
1, 111997, Note_on_c, 7, 76, 0
1, 111997, Note_on_c, 7, 76, 100
1, 111997, Note_on_c, 7, 67, 0
1, 111997, Note_on_c, 7, 52, 0
1, 112027, Note_on_c, 4, 75, 80
1, 112027, Note_on_c, 5, 51, 80
1, 112027, Note_on_c, 7, 76, 0
1, 112027, Note_on_c, 7, 75, 100
1, 112027, Note_on_c, 7, 64, 0
1, 112027, Note_on_c, 7, 63, 100
1, 112027, Note_on_c, 7, 51, 100
1, 112027, Note_on_c, 7, 39, 100
1, 112057, Note_on_c, 4, 75, 0
1, 112057, Note_on_c, 5, 51, 0
1, 112057, Note_on_c, 7, 75, 0
1, 112057, Note_on_c, 7, 75, 100
1, 112057, Note_on_c, 7, 51, 0
1, 112057, Note_on_c, 7, 39, 0
1, 112087, Note_on_c, 4, 76, 80
1, 112087, Note_on_c, 5, 52, 80
1, 112087, Note_on_c, 6, 52, 0
1, 112087, Note_on_c, 7, 75, 0
1, 112087, Note_on_c, 7, 76, 100
1, 112087, Note_on_c, 7, 63, 0
1, 112087, Note_on_c, 7, 64, 100
1, 112087, Note_on_c, 7, 52, 100
1, 112087, Note_on_c, 7, 40, 100
1, 112117, Note_on_c, 4, 76, 0
1, 112117, Note_on_c, 5, 52, 0
1, 112117, Note_on_c, 7, 76, 0
1, 112117, Note_on_c, 7, 76, 100
1, 112117, Note_on_c, 7, 52, 0
1, 112117, Note_on_c, 7, 40, 0
1, 112147, Note_on_c, 4, 78, 80
1, 112147, Note_on_c, 5, 54, 80
1, 112147, Note_on_c, 7, 76, 0
1, 112147, Note_on_c, 7, 78, 100
1, 112147, Note_on_c, 7, 64, 0
1, 112147, Note_on_c, 7, 66, 100
1, 112147, Note_on_c, 7, 54, 100
1, 112147, Note_on_c, 7, 42, 100
1, 112177, Note_on_c, 4, 78, 0
1, 112177, Note_on_c, 5, 54, 0
1, 112177, Note_on_c, 7, 78, 0
1, 112177, Note_on_c, 7, 78, 100
1, 112177, Note_on_c, 7, 54, 0
1, 112177, Note_on_c, 7, 42, 0
1, 112207, Note_on_c, 4, 79, 80
1, 112207, Note_on_c, 5, 55, 80
1, 112207, Note_on_c, 7, 78, 0
1, 112207, Note_on_c, 7, 79, 100
1, 112207, Note_on_c, 7, 66, 0
1, 112207, Note_on_c, 7, 67, 100
1, 112207, Note_on_c, 7, 55, 100
1, 112207, Note_on_c, 7, 43, 100
1, 112237, Note_on_c, 4, 79, 0
1, 112237, Note_on_c, 5, 55, 0
1, 112237, Note_on_c, 7, 79, 0
1, 112237, Note_on_c, 7, 79, 100
1, 112237, Note_on_c, 7, 55, 0
1, 112237, Note_on_c, 7, 43, 0
1, 112267, Note_on_c, 4, 78, 80
1, 112267, Note_on_c, 5, 54, 80
1, 112267, Note_on_c, 7, 79, 0
1, 112267, Note_on_c, 7, 78, 100
1, 112267, Note_on_c, 7, 67, 0
1, 112267, Note_on_c, 7, 66, 100
1, 112267, Note_on_c, 7, 54, 100
1, 112267, Note_on_c, 7, 42, 100
1, 112297, Note_on_c, 4, 78, 0
1, 112297, Note_on_c, 5, 54, 0
1, 112297, Note_on_c, 7, 78, 0
1, 112297, Note_on_c, 7, 78, 100
1, 112297, Note_on_c, 7, 54, 0
1, 112297, Note_on_c, 7, 42, 0
1, 112327, Note_on_c, 4, 79, 80
1, 112327, Note_on_c, 5, 55, 80
1, 112327, Note_on_c, 7, 78, 0
1, 112327, Note_on_c, 7, 79, 100
1, 112327, Note_on_c, 7, 66, 0
1, 112327, Note_on_c, 7, 67, 100
1, 112327, Note_on_c, 7, 55, 100
1, 112327, Note_on_c, 7, 43, 100
1, 112357, Note_on_c, 4, 79, 0
1, 112357, Note_on_c, 5, 55, 0
1, 112357, Note_on_c, 7, 79, 0
1, 112357, Note_on_c, 7, 79, 100
1, 112357, Note_on_c, 7, 55, 0
1, 112357, Note_on_c, 7, 43, 0
1, 112387, Note_on_c, 4, 81, 80
1, 112387, Note_on_c, 5, 57, 80
1, 112387, Note_on_c, 7, 79, 0
1, 112387, Note_on_c, 7, 81, 100
1, 112387, Note_on_c, 7, 67, 0
1, 112387, Note_on_c, 7, 69, 100
1, 112387, Note_on_c, 7, 57, 100
1, 112387, Note_on_c, 7, 45, 100
1, 112417, Note_on_c, 4, 81, 0
1, 112417, Note_on_c, 5, 57, 0
1, 112417, Note_on_c, 7, 81, 0
1, 112417, Note_on_c, 7, 81, 100
1, 112417, Note_on_c, 7, 57, 0
1, 112417, Note_on_c, 7, 45, 0
1, 112447, Note_on_c, 4, 83, 80
1, 112447, Note_on_c, 5, 59, 80
1, 112447, Note_on_c, 6, 59, 80
1, 112447, Note_on_c, 7, 81, 0
1, 112447, Note_on_c, 7, 83, 100
1, 112447, Note_on_c, 7, 69, 0
1, 112447, Note_on_c, 7, 71, 100
1, 112447, Note_on_c, 7, 59, 100
1, 112447, Note_on_c, 7, 47, 100
1, 112477, Note_on_c, 4, 83, 0
1, 112477, Note_on_c, 5, 59, 0
1, 112477, Note_on_c, 7, 83, 0
1, 112477, Note_on_c, 7, 83, 100
1, 112477, Note_on_c, 7, 59, 0
1, 112477, Note_on_c, 7, 47, 0
1, 112507, Note_on_c, 4, 82, 80
1, 112507, Note_on_c, 5, 58, 80
1, 112507, Note_on_c, 7, 83, 0
1, 112507, Note_on_c, 7, 82, 100
1, 112507, Note_on_c, 7, 71, 0
1, 112507, Note_on_c, 7, 70, 100
1, 112507, Note_on_c, 7, 58, 100
1, 112507, Note_on_c, 7, 46, 100
1, 112537, Note_on_c, 4, 82, 0
1, 112537, Note_on_c, 5, 58, 0
1, 112537, Note_on_c, 7, 82, 0
1, 112537, Note_on_c, 7, 82, 100
1, 112537, Note_on_c, 7, 58, 0
1, 112537, Note_on_c, 7, 46, 0
1, 112567, Note_on_c, 4, 83, 80
1, 112567, Note_on_c, 5, 59, 80
1, 112567, Note_on_c, 6, 59, 0
1, 112567, Note_on_c, 7, 82, 0
1, 112567, Note_on_c, 7, 83, 100
1, 112567, Note_on_c, 7, 70, 0
1, 112567, Note_on_c, 7, 71, 100
1, 112567, Note_on_c, 7, 59, 100
1, 112567, Note_on_c, 7, 47, 100
1, 112597, Note_on_c, 4, 83, 0
1, 112597, Note_on_c, 5, 59, 0
1, 112597, Note_on_c, 7, 83, 0
1, 112597, Note_on_c, 7, 83, 100
1, 112597, Note_on_c, 7, 59, 0
1, 112597, Note_on_c, 7, 47, 0
1, 112627, Note_on_c, 4, 84, 80
1, 112627, Note_on_c, 5, 60, 80
1, 112627, Note_on_c, 7, 83, 0
1, 112627, Note_on_c, 7, 84, 100
1, 112627, Note_on_c, 7, 71, 0
1, 112627, Note_on_c, 7, 72, 100
1, 112627, Note_on_c, 7, 60, 100
1, 112627, Note_on_c, 7, 48, 100
1, 112657, Note_on_c, 4, 84, 0
1, 112657, Note_on_c, 5, 60, 0
1, 112657, Note_on_c, 7, 84, 0
1, 112657, Note_on_c, 7, 84, 100
1, 112657, Note_on_c, 7, 60, 0
1, 112657, Note_on_c, 7, 48, 0
1, 112687, Note_on_c, 4, 83, 80
1, 112687, Note_on_c, 5, 59, 80
1, 112687, Note_on_c, 7, 84, 0
1, 112687, Note_on_c, 7, 83, 100
1, 112687, Note_on_c, 7, 72, 0
1, 112687, Note_on_c, 7, 71, 100
1, 112687, Note_on_c, 7, 59, 100
1, 112687, Note_on_c, 7, 47, 100
1, 112717, Note_on_c, 4, 83, 0
1, 112717, Note_on_c, 5, 59, 0
1, 112717, Note_on_c, 7, 83, 0
1, 112717, Note_on_c, 7, 83, 100
1, 112717, Note_on_c, 7, 59, 0
1, 112717, Note_on_c, 7, 47, 0
1, 112747, Note_on_c, 4, 81, 80
1, 112747, Note_on_c, 5, 57, 80
1, 112747, Note_on_c, 7, 83, 0
1, 112747, Note_on_c, 7, 81, 100
1, 112747, Note_on_c, 7, 71, 0
1, 112747, Note_on_c, 7, 69, 100
1, 112747, Note_on_c, 7, 57, 100
1, 112747, Note_on_c, 7, 45, 100
1, 112777, Note_on_c, 4, 81, 0
1, 112777, Note_on_c, 5, 57, 0
1, 112777, Note_on_c, 7, 81, 0
1, 112777, Note_on_c, 7, 81, 100
1, 112777, Note_on_c, 7, 57, 0
1, 112777, Note_on_c, 7, 45, 0
1, 112807, Note_on_c, 4, 79, 80
1, 112807, Note_on_c, 5, 55, 80
1, 112807, Note_on_c, 7, 81, 0
1, 112807, Note_on_c, 7, 79, 100
1, 112807, Note_on_c, 7, 69, 0
1, 112807, Note_on_c, 7, 67, 100
1, 112807, Note_on_c, 7, 55, 100
1, 112807, Note_on_c, 7, 43, 100
1, 112837, Note_on_c, 4, 79, 0
1, 112837, Note_on_c, 5, 55, 0
1, 112837, Note_on_c, 7, 79, 0
1, 112837, Note_on_c, 7, 79, 100
1, 112837, Note_on_c, 7, 55, 0
1, 112837, Note_on_c, 7, 43, 0
1, 112867, Note_on_c, 4, 78, 80
1, 112867, Note_on_c, 5, 54, 80
1, 112867, Note_on_c, 7, 79, 0
1, 112867, Note_on_c, 7, 78, 100
1, 112867, Note_on_c, 7, 67, 0
1, 112867, Note_on_c, 7, 66, 100
1, 112867, Note_on_c, 7, 54, 100
1, 112867, Note_on_c, 7, 42, 100
1, 112897, Note_on_c, 4, 78, 0
1, 112897, Note_on_c, 5, 54, 0
1, 112897, Note_on_c, 7, 78, 0
1, 112897, Note_on_c, 7, 78, 100
1, 112897, Note_on_c, 7, 54, 0
1, 112897, Note_on_c, 7, 42, 0
1, 112927, Note_on_c, 4, 76, 80
1, 112927, Note_on_c, 5, 52, 80
1, 112927, Note_on_c, 6, 52, 80
1, 112927, Note_on_c, 7, 78, 0
1, 112927, Note_on_c, 7, 76, 100
1, 112927, Note_on_c, 7, 66, 0
1, 112927, Note_on_c, 7, 64, 100
1, 112927, Note_on_c, 7, 52, 100
1, 112927, Note_on_c, 7, 40, 100
1, 112957, Note_on_c, 7, 76, 0
1, 112987, Note_on_c, 7, 75, 100
1, 112987, Note_on_c, 7, 63, 100
1, 113017, Note_on_c, 7, 75, 0
1, 113017, Note_on_c, 7, 63, 0
1, 113047, Note_on_c, 4, 76, 0
1, 113047, Note_on_c, 5, 52, 0
1, 113047, Note_on_c, 6, 52, 0
1, 113047, Note_on_c, 7, 76, 100
1, 113047, Note_on_c, 7, 52, 0
1, 113047, Note_on_c, 7, 40, 0
1, 113077, Note_on_c, 7, 76, 0
1, 113077, Note_on_c, 7, 64, 0
1, 113107, Note_on_c, 7, 78, 100
1, 113107, Note_on_c, 7, 66, 100
1, 113137, Note_on_c, 7, 78, 0
1, 113137, Note_on_c, 7, 66, 0
1, 113167, Note_on_c, 5, 64, 80
1, 113167, Note_on_c, 7, 79, 100
1, 113167, Note_on_c, 7, 67, 100
1, 113167, Note_on_c, 7, 64, 100
1, 113167, Note_on_c, 7, 52, 100
1, 113197, Note_on_c, 7, 79, 0
1, 113197, Note_on_c, 7, 67, 0
1, 113227, Note_on_c, 7, 78, 100
1, 113227, Note_on_c, 7, 66, 100
1, 113257, Note_on_c, 7, 78, 0
1, 113257, Note_on_c, 7, 66, 0
1, 113287, Note_on_c, 7, 79, 100
1, 113287, Note_on_c, 7, 67, 100
1, 113317, Note_on_c, 7, 79, 0
1, 113317, Note_on_c, 7, 67, 0
1, 113347, Note_on_c, 7, 81, 100
1, 113347, Note_on_c, 7, 69, 100
1, 113377, Note_on_c, 7, 81, 0
1, 113377, Note_on_c, 7, 69, 0
1, 113407, Note_on_c, 7, 83, 100
1, 113407, Note_on_c, 7, 71, 100
1, 113407, Note_on_c, 7, 66, 100
1, 113437, Note_on_c, 7, 83, 0
1, 113437, Note_on_c, 7, 71, 0
1, 113467, Note_on_c, 7, 82, 100
1, 113467, Note_on_c, 7, 70, 100
1, 113497, Note_on_c, 7, 82, 0
1, 113497, Note_on_c, 7, 70, 0
1, 113527, Note_on_c, 7, 83, 100
1, 113527, Note_on_c, 7, 71, 100
1, 113557, Note_on_c, 7, 83, 0
1, 113557, Note_on_c, 7, 71, 0
1, 113587, Note_on_c, 7, 84, 100
1, 113587, Note_on_c, 7, 72, 100
1, 113617, Note_on_c, 7, 84, 0
1, 113617, Note_on_c, 7, 72, 0
1, 113647, Note_on_c, 5, 64, 0
1, 113647, Note_on_c, 5, 63, 80
1, 113647, Note_on_c, 7, 83, 100
1, 113647, Note_on_c, 7, 71, 100
1, 113647, Note_on_c, 7, 64, 0
1, 113647, Note_on_c, 7, 63, 100
1, 113647, Note_on_c, 7, 52, 0
1, 113647, Note_on_c, 7, 51, 100
1, 113677, Note_on_c, 7, 83, 0
1, 113677, Note_on_c, 7, 71, 0
1, 113707, Note_on_c, 7, 81, 100
1, 113707, Note_on_c, 7, 69, 100
1, 113737, Note_on_c, 7, 81, 0
1, 113737, Note_on_c, 7, 69, 0
1, 113767, Note_on_c, 7, 79, 100
1, 113767, Note_on_c, 7, 67, 100
1, 113767, Note_on_c, 7, 66, 0
1, 113767, Note_on_c, 7, 69, 100
1, 113797, Note_on_c, 7, 79, 0
1, 113797, Note_on_c, 7, 67, 0
1, 113827, Note_on_c, 7, 78, 100
1, 113827, Note_on_c, 7, 66, 100
1, 113857, Note_on_c, 7, 78, 0
1, 113857, Note_on_c, 7, 66, 0
1, 113887, Note_on_c, 5, 63, 0
1, 113887, Note_on_c, 5, 64, 80
1, 113887, Note_on_c, 7, 76, 100
1, 113887, Note_on_c, 7, 64, 100
1, 113887, Note_on_c, 7, 69, 0
1, 113887, Note_on_c, 7, 67, 100
1, 113887, Note_on_c, 7, 63, 0
1, 113887, Note_on_c, 7, 51, 0
1, 113887, Note_on_c, 7, 52, 100
1, 113917, Note_on_c, 7, 76, 0
1, 113947, Note_on_c, 7, 75, 100
1, 113947, Note_on_c, 7, 63, 100
1, 113977, Note_on_c, 7, 75, 0
1, 113977, Note_on_c, 7, 63, 0
1, 114007, Note_on_c, 5, 64, 0
1, 114007, Note_on_c, 7, 76, 100
1, 114007, Note_on_c, 7, 67, 0
1, 114007, Note_on_c, 7, 52, 0
1, 114037, Note_on_c, 7, 76, 0
1, 114037, Note_on_c, 7, 64, 0
1, 114067, Note_on_c, 7, 78, 100
1, 114067, Note_on_c, 7, 66, 100
1, 114097, Note_on_c, 7, 78, 0
1, 114097, Note_on_c, 7, 66, 0
1, 114127, Note_on_c, 5, 62, 80
1, 114127, Note_on_c, 7, 79, 100
1, 114127, Note_on_c, 7, 67, 100
1, 114127, Note_on_c, 7, 64, 100
1, 114127, Note_on_c, 7, 62, 100
1, 114127, Note_on_c, 7, 50, 100
1, 114157, Note_on_c, 7, 79, 0
1, 114157, Note_on_c, 7, 67, 0
1, 114187, Note_on_c, 7, 78, 100
1, 114187, Note_on_c, 7, 66, 100
1, 114217, Note_on_c, 7, 78, 0
1, 114217, Note_on_c, 7, 66, 0
1, 114247, Note_on_c, 7, 79, 100
1, 114247, Note_on_c, 7, 67, 100
1, 114277, Note_on_c, 7, 79, 0
1, 114277, Note_on_c, 7, 67, 0
1, 114307, Note_on_c, 7, 81, 100
1, 114307, Note_on_c, 7, 69, 100
1, 114337, Note_on_c, 7, 81, 0
1, 114337, Note_on_c, 7, 69, 0
1, 114367, Note_on_c, 7, 82, 100
1, 114367, Note_on_c, 7, 70, 100
1, 114397, Note_on_c, 7, 82, 0
1, 114397, Note_on_c, 7, 70, 0
1, 114427, Note_on_c, 7, 81, 100
1, 114427, Note_on_c, 7, 69, 100
1, 114457, Note_on_c, 7, 81, 0
1, 114457, Note_on_c, 7, 69, 0
1, 114487, Note_on_c, 7, 80, 100
1, 114487, Note_on_c, 7, 68, 100
1, 114517, Note_on_c, 7, 80, 0
1, 114517, Note_on_c, 7, 68, 0
1, 114547, Note_on_c, 7, 82, 100
1, 114547, Note_on_c, 7, 70, 100
1, 114577, Note_on_c, 7, 82, 0
1, 114577, Note_on_c, 7, 70, 0
1, 114607, Note_on_c, 5, 62, 0
1, 114607, Note_on_c, 5, 61, 80
1, 114607, Note_on_c, 7, 81, 100
1, 114607, Note_on_c, 7, 69, 100
1, 114607, Note_on_c, 7, 62, 0
1, 114607, Note_on_c, 7, 61, 100
1, 114607, Note_on_c, 7, 50, 0
1, 114607, Note_on_c, 7, 49, 100
1, 114637, Note_on_c, 7, 81, 0
1, 114637, Note_on_c, 7, 69, 0
1, 114667, Note_on_c, 7, 78, 100
1, 114667, Note_on_c, 7, 66, 100
1, 114697, Note_on_c, 7, 78, 0
1, 114697, Note_on_c, 7, 66, 0
1, 114727, Note_on_c, 7, 79, 100
1, 114727, Note_on_c, 7, 67, 100
1, 114727, Note_on_c, 7, 64, 0
1, 114727, Note_on_c, 7, 69, 100
1, 114757, Note_on_c, 7, 79, 0
1, 114757, Note_on_c, 7, 67, 0
1, 114757, Note_on_c, 7, 69, 0
1, 114787, Note_on_c, 7, 76, 100
1, 114787, Note_on_c, 7, 64, 100
1, 114787, Note_on_c, 7, 68, 100
1, 114817, Note_on_c, 7, 76, 0
1, 114817, Note_on_c, 7, 64, 0
1, 114817, Note_on_c, 7, 68, 0
1, 114847, Note_on_c, 5, 61, 0
1, 114847, Note_on_c, 5, 50, 80
1, 114847, Note_on_c, 6, 57, 80
1, 114847, Note_on_c, 6, 45, 80
1, 114847, Note_on_c, 7, 62, 100
1, 114847, Note_on_c, 7, 76, 100
1, 114847, Note_on_c, 7, 66, 100
1, 114847, Note_on_c, 7, 61, 0
1, 114847, Note_on_c, 7, 49, 0
1, 114847, Note_on_c, 7, 50, 100
1, 114877, Note_on_c, 7, 69, 100
1, 114907, Note_on_c, 5, 45, 80
1, 114907, Note_on_c, 5, 50, 0
1, 114907, Note_on_c, 7, 69, 0
1, 114907, Note_on_c, 7, 57, 100
1, 114907, Note_on_c, 7, 45, 100
1, 114907, Note_on_c, 7, 50, 0
1, 114907, Note_on_c, 7, 33, 100
1, 114937, Note_on_c, 7, 66, 0
1, 114937, Note_on_c, 7, 69, 100
1, 114967, Note_on_c, 5, 50, 80
1, 114967, Note_on_c, 5, 45, 0
1, 114967, Note_on_c, 6, 57, 0
1, 114967, Note_on_c, 6, 45, 0
1, 114967, Note_on_c, 7, 62, 0
1, 114967, Note_on_c, 7, 76, 0
1, 114967, Note_on_c, 7, 69, 0
1, 114967, Note_on_c, 7, 66, 100
1, 114967, Note_on_c, 7, 57, 0
1, 114967, Note_on_c, 7, 62, 100
1, 114967, Note_on_c, 7, 45, 0
1, 114967, Note_on_c, 7, 50, 100
1, 114967, Note_on_c, 7, 33, 0
1, 114967, Note_on_c, 7, 38, 100
1, 114997, Note_on_c, 7, 66, 0
1, 114997, Note_on_c, 7, 69, 100
1, 115027, Note_on_c, 5, 45, 80
1, 115027, Note_on_c, 5, 50, 0
1, 115027, Note_on_c, 6, 57, 80
1, 115027, Note_on_c, 6, 45, 80
1, 115027, Note_on_c, 7, 78, 100
1, 115027, Note_on_c, 7, 69, 0
1, 115027, Note_on_c, 7, 66, 100
1, 115027, Note_on_c, 7, 62, 0
1, 115027, Note_on_c, 7, 57, 100
1, 115027, Note_on_c, 7, 50, 0
1, 115027, Note_on_c, 7, 45, 100
1, 115027, Note_on_c, 7, 38, 0
1, 115027, Note_on_c, 7, 33, 100
1, 115057, Note_on_c, 7, 78, 0
1, 115057, Note_on_c, 7, 74, 100
1, 115057, Note_on_c, 7, 66, 0
1, 115057, Note_on_c, 7, 69, 100
1, 115087, Note_on_c, 5, 50, 80
1, 115087, Note_on_c, 5, 45, 0
1, 115087, Note_on_c, 6, 57, 0
1, 115087, Note_on_c, 6, 57, 80
1, 115087, Note_on_c, 6, 45, 0
1, 115087, Note_on_c, 6, 45, 80
1, 115087, Note_on_c, 7, 74, 0
1, 115087, Note_on_c, 7, 66, 100
1, 115087, Note_on_c, 7, 57, 0
1, 115087, Note_on_c, 7, 62, 100
1, 115087, Note_on_c, 7, 45, 0
1, 115087, Note_on_c, 7, 50, 100
1, 115087, Note_on_c, 7, 33, 0
1, 115087, Note_on_c, 7, 38, 100
1, 115117, Note_on_c, 7, 69, 0
1, 115117, Note_on_c, 7, 66, 0
1, 115117, Note_on_c, 7, 69, 100
1, 115147, Note_on_c, 5, 45, 80
1, 115147, Note_on_c, 5, 50, 0
1, 115147, Note_on_c, 6, 57, 0
1, 115147, Note_on_c, 6, 57, 80
1, 115147, Note_on_c, 6, 45, 0
1, 115147, Note_on_c, 6, 45, 80
1, 115147, Note_on_c, 7, 66, 100
1, 115147, Note_on_c, 7, 62, 0
1, 115147, Note_on_c, 7, 57, 100
1, 115147, Note_on_c, 7, 50, 0
1, 115147, Note_on_c, 7, 45, 100
1, 115147, Note_on_c, 7, 38, 0
1, 115147, Note_on_c, 7, 33, 100
1, 115177, Note_on_c, 7, 69, 0
1, 115177, Note_on_c, 7, 66, 0
1, 115177, Note_on_c, 7, 69, 100
1, 115207, Note_on_c, 5, 50, 80
1, 115207, Note_on_c, 5, 45, 0
1, 115207, Note_on_c, 6, 57, 0
1, 115207, Note_on_c, 6, 57, 80
1, 115207, Note_on_c, 6, 45, 0
1, 115207, Note_on_c, 6, 45, 80
1, 115207, Note_on_c, 7, 66, 100
1, 115207, Note_on_c, 7, 57, 0
1, 115207, Note_on_c, 7, 62, 100
1, 115207, Note_on_c, 7, 45, 0
1, 115207, Note_on_c, 7, 50, 100
1, 115207, Note_on_c, 7, 33, 0
1, 115207, Note_on_c, 7, 38, 100
1, 115237, Note_on_c, 7, 69, 0
1, 115237, Note_on_c, 7, 66, 0
1, 115237, Note_on_c, 7, 69, 100
1, 115267, Note_on_c, 5, 45, 80
1, 115267, Note_on_c, 5, 50, 0
1, 115267, Note_on_c, 6, 57, 0
1, 115267, Note_on_c, 6, 57, 80
1, 115267, Note_on_c, 6, 45, 0
1, 115267, Note_on_c, 6, 45, 80
1, 115267, Note_on_c, 7, 66, 100
1, 115267, Note_on_c, 7, 62, 0
1, 115267, Note_on_c, 7, 57, 100
1, 115267, Note_on_c, 7, 50, 0
1, 115267, Note_on_c, 7, 45, 100
1, 115267, Note_on_c, 7, 38, 0
1, 115267, Note_on_c, 7, 33, 100
1, 115297, Note_on_c, 7, 69, 0
1, 115297, Note_on_c, 7, 66, 0
1, 115297, Note_on_c, 7, 69, 100
1, 115327, Note_on_c, 4, 76, 80
1, 115327, Note_on_c, 4, 69, 80
1, 115327, Note_on_c, 5, 49, 80
1, 115327, Note_on_c, 5, 45, 0
1, 115327, Note_on_c, 6, 57, 0
1, 115327, Note_on_c, 6, 57, 80
1, 115327, Note_on_c, 6, 45, 0
1, 115327, Note_on_c, 6, 45, 80
1, 115327, Note_on_c, 7, 81, 100
1, 115327, Note_on_c, 7, 69, 0
1, 115327, Note_on_c, 7, 64, 100
1, 115327, Note_on_c, 7, 57, 0
1, 115327, Note_on_c, 7, 61, 100
1, 115327, Note_on_c, 7, 45, 0
1, 115327, Note_on_c, 7, 49, 100
1, 115327, Note_on_c, 7, 33, 0
1, 115327, Note_on_c, 7, 37, 100
1, 115357, Note_on_c, 7, 64, 0
1, 115357, Note_on_c, 7, 69, 100
1, 115387, Note_on_c, 5, 45, 80
1, 115387, Note_on_c, 5, 49, 0
1, 115387, Note_on_c, 7, 81, 0
1, 115387, Note_on_c, 7, 79, 100
1, 115387, Note_on_c, 7, 69, 0
1, 115387, Note_on_c, 7, 64, 100
1, 115387, Note_on_c, 7, 61, 0
1, 115387, Note_on_c, 7, 57, 100
1, 115387, Note_on_c, 7, 49, 0
1, 115387, Note_on_c, 7, 45, 100
1, 115387, Note_on_c, 7, 37, 0
1, 115387, Note_on_c, 7, 33, 100
1, 115417, Note_on_c, 7, 64, 0
1, 115417, Note_on_c, 7, 69, 100
1, 115447, Note_on_c, 5, 49, 80
1, 115447, Note_on_c, 5, 45, 0
1, 115447, Note_on_c, 6, 57, 0
1, 115447, Note_on_c, 6, 57, 80
1, 115447, Note_on_c, 6, 45, 0
1, 115447, Note_on_c, 6, 45, 80
1, 115447, Note_on_c, 7, 79, 0
1, 115447, Note_on_c, 7, 79, 100
1, 115447, Note_on_c, 7, 69, 0
1, 115447, Note_on_c, 7, 64, 100
1, 115447, Note_on_c, 7, 57, 0
1, 115447, Note_on_c, 7, 61, 100
1, 115447, Note_on_c, 7, 45, 0
1, 115447, Note_on_c, 7, 49, 100
1, 115447, Note_on_c, 7, 33, 0
1, 115447, Note_on_c, 7, 37, 100
1, 115477, Note_on_c, 7, 64, 0
1, 115477, Note_on_c, 7, 69, 100
1, 115507, Note_on_c, 5, 45, 80
1, 115507, Note_on_c, 5, 49, 0
1, 115507, Note_on_c, 7, 69, 0
1, 115507, Note_on_c, 7, 64, 100
1, 115507, Note_on_c, 7, 61, 0
1, 115507, Note_on_c, 7, 57, 100
1, 115507, Note_on_c, 7, 49, 0
1, 115507, Note_on_c, 7, 45, 100
1, 115507, Note_on_c, 7, 37, 0
1, 115507, Note_on_c, 7, 33, 100
1, 115537, Note_on_c, 7, 64, 0
1, 115537, Note_on_c, 7, 69, 100
1, 115567, Note_on_c, 4, 76, 0
1, 115567, Note_on_c, 4, 79, 80
1, 115567, Note_on_c, 5, 52, 80
1, 115567, Note_on_c, 5, 45, 0
1, 115567, Note_on_c, 7, 69, 0
1, 115567, Note_on_c, 7, 67, 100
1, 115567, Note_on_c, 7, 57, 0
1, 115567, Note_on_c, 7, 64, 100
1, 115567, Note_on_c, 7, 45, 0
1, 115567, Note_on_c, 7, 52, 100
1, 115567, Note_on_c, 7, 33, 0
1, 115567, Note_on_c, 7, 40, 100
1, 115597, Note_on_c, 7, 67, 0
1, 115597, Note_on_c, 7, 69, 100
1, 115627, Note_on_c, 5, 45, 80
1, 115627, Note_on_c, 5, 52, 0
1, 115627, Note_on_c, 7, 79, 0
1, 115627, Note_on_c, 7, 81, 100
1, 115627, Note_on_c, 7, 69, 0
1, 115627, Note_on_c, 7, 67, 100
1, 115627, Note_on_c, 7, 64, 0
1, 115627, Note_on_c, 7, 57, 100
1, 115627, Note_on_c, 7, 52, 0
1, 115627, Note_on_c, 7, 45, 100
1, 115627, Note_on_c, 7, 40, 0
1, 115627, Note_on_c, 7, 33, 100
1, 115657, Note_on_c, 7, 81, 0
1, 115657, Note_on_c, 7, 79, 100
1, 115657, Note_on_c, 7, 67, 0
1, 115657, Note_on_c, 7, 69, 100
1, 115687, Note_on_c, 4, 79, 0
1, 115687, Note_on_c, 4, 85, 80
1, 115687, Note_on_c, 4, 69, 0
1, 115687, Note_on_c, 4, 79, 80
1, 115687, Note_on_c, 5, 52, 80
1, 115687, Note_on_c, 5, 45, 0
1, 115687, Note_on_c, 6, 57, 0
1, 115687, Note_on_c, 6, 57, 80
1, 115687, Note_on_c, 6, 45, 0
1, 115687, Note_on_c, 6, 45, 80
1, 115687, Note_on_c, 7, 79, 0
1, 115687, Note_on_c, 7, 78, 100
1, 115687, Note_on_c, 7, 69, 0
1, 115687, Note_on_c, 7, 67, 100
1, 115687, Note_on_c, 7, 57, 0
1, 115687, Note_on_c, 7, 64, 100
1, 115687, Note_on_c, 7, 45, 0
1, 115687, Note_on_c, 7, 52, 100
1, 115687, Note_on_c, 7, 33, 0
1, 115687, Note_on_c, 7, 40, 100
1, 115717, Note_on_c, 7, 78, 0
1, 115717, Note_on_c, 7, 76, 100
1, 115717, Note_on_c, 7, 67, 0
1, 115717, Note_on_c, 7, 69, 100
1, 115747, Note_on_c, 5, 45, 80
1, 115747, Note_on_c, 5, 52, 0
1, 115747, Note_on_c, 7, 76, 0
1, 115747, Note_on_c, 7, 74, 100
1, 115747, Note_on_c, 7, 69, 0
1, 115747, Note_on_c, 7, 67, 100
1, 115747, Note_on_c, 7, 64, 0
1, 115747, Note_on_c, 7, 57, 100
1, 115747, Note_on_c, 7, 52, 0
1, 115747, Note_on_c, 7, 45, 100
1, 115747, Note_on_c, 7, 40, 0
1, 115747, Note_on_c, 7, 33, 100
1, 115777, Note_on_c, 7, 74, 0
1, 115777, Note_on_c, 7, 73, 100
1, 115777, Note_on_c, 7, 67, 0
1, 115777, Note_on_c, 7, 69, 100
1, 115807, Note_on_c, 4, 85, 0
1, 115807, Note_on_c, 4, 86, 80
1, 115807, Note_on_c, 4, 79, 0
1, 115807, Note_on_c, 4, 78, 80
1, 115807, Note_on_c, 5, 50, 80
1, 115807, Note_on_c, 5, 45, 0
1, 115807, Note_on_c, 6, 57, 0
1, 115807, Note_on_c, 6, 57, 80
1, 115807, Note_on_c, 6, 45, 0
1, 115807, Note_on_c, 6, 45, 80
1, 115807, Note_on_c, 7, 73, 0
1, 115807, Note_on_c, 7, 76, 100
1, 115807, Note_on_c, 7, 69, 0
1, 115807, Note_on_c, 7, 66, 100
1, 115807, Note_on_c, 7, 57, 0
1, 115807, Note_on_c, 7, 62, 100
1, 115807, Note_on_c, 7, 45, 0
1, 115807, Note_on_c, 7, 50, 100
1, 115807, Note_on_c, 7, 33, 0
1, 115807, Note_on_c, 7, 38, 100
1, 115837, Note_on_c, 7, 66, 0
1, 115837, Note_on_c, 7, 69, 100
1, 115867, Note_on_c, 5, 45, 80
1, 115867, Note_on_c, 5, 50, 0
1, 115867, Note_on_c, 7, 76, 0
1, 115867, Note_on_c, 7, 74, 100
1, 115867, Note_on_c, 7, 69, 0
1, 115867, Note_on_c, 7, 66, 100
1, 115867, Note_on_c, 7, 62, 0
1, 115867, Note_on_c, 7, 57, 100
1, 115867, Note_on_c, 7, 50, 0
1, 115867, Note_on_c, 7, 45, 100
1, 115867, Note_on_c, 7, 38, 0
1, 115867, Note_on_c, 7, 33, 100
1, 115897, Note_on_c, 7, 66, 0
1, 115897, Note_on_c, 7, 69, 100
1, 115927, Note_on_c, 4, 86, 0
1, 115927, Note_on_c, 4, 78, 0
1, 115927, Note_on_c, 5, 50, 80
1, 115927, Note_on_c, 5, 45, 0
1, 115927, Note_on_c, 6, 57, 0
1, 115927, Note_on_c, 6, 45, 0
1, 115927, Note_on_c, 7, 74, 0
1, 115927, Note_on_c, 7, 69, 0
1, 115927, Note_on_c, 7, 66, 100
1, 115927, Note_on_c, 7, 57, 0
1, 115927, Note_on_c, 7, 62, 100
1, 115927, Note_on_c, 7, 45, 0
1, 115927, Note_on_c, 7, 50, 100
1, 115927, Note_on_c, 7, 33, 0
1, 115927, Note_on_c, 7, 38, 100
1, 115957, Note_on_c, 7, 66, 0
1, 115957, Note_on_c, 7, 69, 100
1, 115987, Note_on_c, 5, 45, 80
1, 115987, Note_on_c, 5, 50, 0
1, 115987, Note_on_c, 6, 57, 80
1, 115987, Note_on_c, 6, 45, 80
1, 115987, Note_on_c, 7, 78, 100
1, 115987, Note_on_c, 7, 69, 0
1, 115987, Note_on_c, 7, 66, 100
1, 115987, Note_on_c, 7, 62, 0
1, 115987, Note_on_c, 7, 57, 100
1, 115987, Note_on_c, 7, 50, 0
1, 115987, Note_on_c, 7, 45, 100
1, 115987, Note_on_c, 7, 38, 0
1, 115987, Note_on_c, 7, 33, 100
1, 116017, Note_on_c, 7, 78, 0
1, 116017, Note_on_c, 7, 74, 100
1, 116017, Note_on_c, 7, 66, 0
1, 116017, Note_on_c, 7, 69, 100
1, 116047, Note_on_c, 5, 50, 80
1, 116047, Note_on_c, 5, 45, 0
1, 116047, Note_on_c, 6, 57, 0
1, 116047, Note_on_c, 6, 57, 80
1, 116047, Note_on_c, 6, 45, 0
1, 116047, Note_on_c, 6, 45, 80
1, 116047, Note_on_c, 7, 74, 0
1, 116047, Note_on_c, 7, 66, 100
1, 116047, Note_on_c, 7, 57, 0
1, 116047, Note_on_c, 7, 62, 100
1, 116047, Note_on_c, 7, 45, 0
1, 116047, Note_on_c, 7, 50, 100
1, 116047, Note_on_c, 7, 33, 0
1, 116047, Note_on_c, 7, 38, 100
1, 116077, Note_on_c, 7, 69, 0
1, 116077, Note_on_c, 7, 66, 0
1, 116077, Note_on_c, 7, 69, 100
1, 116107, Note_on_c, 5, 45, 80
1, 116107, Note_on_c, 5, 50, 0
1, 116107, Note_on_c, 6, 57, 0
1, 116107, Note_on_c, 6, 57, 80
1, 116107, Note_on_c, 6, 45, 0
1, 116107, Note_on_c, 6, 45, 80
1, 116107, Note_on_c, 7, 66, 100
1, 116107, Note_on_c, 7, 62, 0
1, 116107, Note_on_c, 7, 57, 100
1, 116107, Note_on_c, 7, 50, 0
1, 116107, Note_on_c, 7, 45, 100
1, 116107, Note_on_c, 7, 38, 0
1, 116107, Note_on_c, 7, 33, 100
1, 116137, Note_on_c, 7, 69, 0
1, 116137, Note_on_c, 7, 66, 0
1, 116137, Note_on_c, 7, 69, 100
1, 116167, Note_on_c, 5, 50, 80
1, 116167, Note_on_c, 5, 45, 0
1, 116167, Note_on_c, 6, 57, 0
1, 116167, Note_on_c, 6, 57, 80
1, 116167, Note_on_c, 6, 45, 0
1, 116167, Note_on_c, 6, 45, 80
1, 116167, Note_on_c, 7, 66, 100
1, 116167, Note_on_c, 7, 57, 0
1, 116167, Note_on_c, 7, 62, 100
1, 116167, Note_on_c, 7, 45, 0
1, 116167, Note_on_c, 7, 50, 100
1, 116167, Note_on_c, 7, 33, 0
1, 116167, Note_on_c, 7, 38, 100
1, 116197, Note_on_c, 7, 69, 0
1, 116197, Note_on_c, 7, 66, 0
1, 116197, Note_on_c, 7, 69, 100
1, 116227, Note_on_c, 5, 45, 80
1, 116227, Note_on_c, 5, 50, 0
1, 116227, Note_on_c, 6, 57, 0
1, 116227, Note_on_c, 6, 57, 80
1, 116227, Note_on_c, 6, 45, 0
1, 116227, Note_on_c, 6, 45, 80
1, 116227, Note_on_c, 7, 66, 100
1, 116227, Note_on_c, 7, 62, 0
1, 116227, Note_on_c, 7, 57, 100
1, 116227, Note_on_c, 7, 50, 0
1, 116227, Note_on_c, 7, 45, 100
1, 116227, Note_on_c, 7, 38, 0
1, 116227, Note_on_c, 7, 33, 100
1, 116257, Note_on_c, 7, 69, 0
1, 116257, Note_on_c, 7, 66, 0
1, 116257, Note_on_c, 7, 69, 100
1, 116287, Note_on_c, 4, 73, 80
1, 116287, Note_on_c, 4, 69, 80
1, 116287, Note_on_c, 5, 52, 80
1, 116287, Note_on_c, 5, 45, 0
1, 116287, Note_on_c, 6, 57, 0
1, 116287, Note_on_c, 6, 57, 80
1, 116287, Note_on_c, 6, 45, 0
1, 116287, Note_on_c, 6, 45, 80
1, 116287, Note_on_c, 7, 61, 100
1, 116287, Note_on_c, 7, 57, 0
1, 116287, Note_on_c, 7, 64, 100
1, 116287, Note_on_c, 7, 45, 0
1, 116287, Note_on_c, 7, 52, 100
1, 116287, Note_on_c, 7, 33, 0
1, 116287, Note_on_c, 7, 40, 100
1, 116317, Note_on_c, 7, 69, 0
1, 116317, Note_on_c, 7, 61, 0
1, 116317, Note_on_c, 7, 69, 100
1, 116347, Note_on_c, 5, 45, 80
1, 116347, Note_on_c, 5, 52, 0
1, 116347, Note_on_c, 7, 81, 100
1, 116347, Note_on_c, 7, 69, 0
1, 116347, Note_on_c, 7, 61, 100
1, 116347, Note_on_c, 7, 64, 0
1, 116347, Note_on_c, 7, 57, 100
1, 116347, Note_on_c, 7, 52, 0
1, 116347, Note_on_c, 7, 45, 100
1, 116347, Note_on_c, 7, 40, 0
1, 116347, Note_on_c, 7, 33, 100
1, 116377, Note_on_c, 7, 81, 0
1, 116377, Note_on_c, 7, 79, 100
1, 116377, Note_on_c, 7, 61, 0
1, 116377, Note_on_c, 7, 69, 100
1, 116407, Note_on_c, 5, 52, 80
1, 116407, Note_on_c, 5, 45, 0
1, 116407, Note_on_c, 6, 57, 0
1, 116407, Note_on_c, 6, 57, 80
1, 116407, Note_on_c, 6, 45, 0
1, 116407, Note_on_c, 6, 45, 80
1, 116407, Note_on_c, 7, 79, 0
1, 116407, Note_on_c, 7, 79, 100
1, 116407, Note_on_c, 7, 69, 0
1, 116407, Note_on_c, 7, 61, 100
1, 116407, Note_on_c, 7, 57, 0
1, 116407, Note_on_c, 7, 64, 100
1, 116407, Note_on_c, 7, 45, 0
1, 116407, Note_on_c, 7, 52, 100
1, 116407, Note_on_c, 7, 33, 0
1, 116407, Note_on_c, 7, 40, 100
1, 116437, Note_on_c, 7, 61, 0
1, 116437, Note_on_c, 7, 69, 100
1, 116467, Note_on_c, 5, 45, 80
1, 116467, Note_on_c, 5, 52, 0
1, 116467, Note_on_c, 7, 69, 0
1, 116467, Note_on_c, 7, 61, 100
1, 116467, Note_on_c, 7, 64, 0
1, 116467, Note_on_c, 7, 57, 100
1, 116467, Note_on_c, 7, 52, 0
1, 116467, Note_on_c, 7, 45, 100
1, 116467, Note_on_c, 7, 40, 0
1, 116467, Note_on_c, 7, 33, 100
1, 116497, Note_on_c, 7, 61, 0
1, 116497, Note_on_c, 7, 69, 100
1, 116527, Note_on_c, 4, 73, 0
1, 116527, Note_on_c, 4, 76, 80
1, 116527, Note_on_c, 5, 49, 80
1, 116527, Note_on_c, 5, 45, 0
1, 116527, Note_on_c, 7, 69, 0
1, 116527, Note_on_c, 7, 64, 100
1, 116527, Note_on_c, 7, 57, 0
1, 116527, Note_on_c, 7, 61, 100
1, 116527, Note_on_c, 7, 45, 0
1, 116527, Note_on_c, 7, 49, 100
1, 116527, Note_on_c, 7, 33, 0
1, 116527, Note_on_c, 7, 37, 100
1, 116557, Note_on_c, 7, 64, 0
1, 116557, Note_on_c, 7, 69, 100
1, 116587, Note_on_c, 5, 45, 80
1, 116587, Note_on_c, 5, 49, 0
1, 116587, Note_on_c, 7, 79, 0
1, 116587, Note_on_c, 7, 78, 100
1, 116587, Note_on_c, 7, 69, 0
1, 116587, Note_on_c, 7, 64, 100
1, 116587, Note_on_c, 7, 61, 0
1, 116587, Note_on_c, 7, 57, 100
1, 116587, Note_on_c, 7, 49, 0
1, 116587, Note_on_c, 7, 45, 100
1, 116587, Note_on_c, 7, 37, 0
1, 116587, Note_on_c, 7, 33, 100
1, 116617, Note_on_c, 7, 78, 0
1, 116617, Note_on_c, 7, 79, 100
1, 116617, Note_on_c, 7, 64, 0
1, 116617, Note_on_c, 7, 69, 100
1, 116647, Note_on_c, 4, 76, 0
1, 116647, Note_on_c, 4, 79, 80
1, 116647, Note_on_c, 4, 69, 0
1, 116647, Note_on_c, 4, 76, 80
1, 116647, Note_on_c, 5, 49, 80
1, 116647, Note_on_c, 5, 45, 0
1, 116647, Note_on_c, 6, 57, 0
1, 116647, Note_on_c, 6, 57, 80
1, 116647, Note_on_c, 6, 45, 0
1, 116647, Note_on_c, 6, 45, 80
1, 116647, Note_on_c, 7, 79, 0
1, 116647, Note_on_c, 7, 81, 100
1, 116647, Note_on_c, 7, 69, 0
1, 116647, Note_on_c, 7, 64, 100
1, 116647, Note_on_c, 7, 57, 0
1, 116647, Note_on_c, 7, 61, 100
1, 116647, Note_on_c, 7, 45, 0
1, 116647, Note_on_c, 7, 49, 100
1, 116647, Note_on_c, 7, 33, 0
1, 116647, Note_on_c, 7, 37, 100
1, 116677, Note_on_c, 7, 81, 0
1, 116677, Note_on_c, 7, 79, 100
1, 116677, Note_on_c, 7, 64, 0
1, 116677, Note_on_c, 7, 69, 100
1, 116707, Note_on_c, 5, 45, 80
1, 116707, Note_on_c, 5, 49, 0
1, 116707, Note_on_c, 7, 79, 0
1, 116707, Note_on_c, 7, 78, 100
1, 116707, Note_on_c, 7, 69, 0
1, 116707, Note_on_c, 7, 64, 100
1, 116707, Note_on_c, 7, 61, 0
1, 116707, Note_on_c, 7, 57, 100
1, 116707, Note_on_c, 7, 49, 0
1, 116707, Note_on_c, 7, 45, 100
1, 116707, Note_on_c, 7, 37, 0
1, 116707, Note_on_c, 7, 33, 100
1, 116737, Note_on_c, 7, 78, 0
1, 116737, Note_on_c, 7, 76, 100
1, 116737, Note_on_c, 7, 64, 0
1, 116737, Note_on_c, 7, 69, 100
1, 116767, Note_on_c, 4, 79, 0
1, 116767, Note_on_c, 4, 78, 80
1, 116767, Note_on_c, 4, 76, 0
1, 116767, Note_on_c, 5, 50, 80
1, 116767, Note_on_c, 5, 45, 0
1, 116767, Note_on_c, 6, 57, 0
1, 116767, Note_on_c, 6, 57, 80
1, 116767, Note_on_c, 6, 45, 0
1, 116767, Note_on_c, 6, 45, 80
1, 116767, Note_on_c, 7, 76, 0
1, 116767, Note_on_c, 7, 78, 100
1, 116767, Note_on_c, 7, 69, 0
1, 116767, Note_on_c, 7, 57, 0
1, 116767, Note_on_c, 7, 62, 100
1, 116767, Note_on_c, 7, 45, 0
1, 116767, Note_on_c, 7, 50, 100
1, 116767, Note_on_c, 7, 33, 0
1, 116767, Note_on_c, 7, 38, 100
1, 116797, Note_on_c, 4, 76, 80
1, 116797, Note_on_c, 4, 78, 0
1, 116797, Note_on_c, 7, 76, 100
1, 116797, Note_on_c, 7, 78, 0
1, 116827, Note_on_c, 4, 79, 80
1, 116827, Note_on_c, 4, 76, 0
1, 116827, Note_on_c, 7, 79, 100
1, 116827, Note_on_c, 7, 76, 0
1, 116857, Note_on_c, 4, 78, 80
1, 116857, Note_on_c, 4, 79, 0
1, 116857, Note_on_c, 7, 78, 100
1, 116857, Note_on_c, 7, 79, 0
1, 116887, Note_on_c, 4, 81, 80
1, 116887, Note_on_c, 4, 78, 0
1, 116887, Note_on_c, 5, 50, 0
1, 116887, Note_on_c, 6, 57, 0
1, 116887, Note_on_c, 6, 45, 0
1, 116887, Note_on_c, 7, 81, 100
1, 116887, Note_on_c, 7, 78, 0
1, 116887, Note_on_c, 7, 62, 0
1, 116887, Note_on_c, 7, 50, 0
1, 116887, Note_on_c, 7, 38, 0
1, 116917, Note_on_c, 4, 79, 80
1, 116917, Note_on_c, 4, 81, 0
1, 116917, Note_on_c, 7, 79, 100
1, 116917, Note_on_c, 7, 81, 0
1, 116947, Note_on_c, 4, 78, 80
1, 116947, Note_on_c, 4, 79, 0
1, 116947, Note_on_c, 5, 55, 80
1, 116947, Note_on_c, 6, 57, 80
1, 116947, Note_on_c, 6, 45, 80
1, 116947, Note_on_c, 7, 78, 100
1, 116947, Note_on_c, 7, 79, 0
1, 116947, Note_on_c, 7, 61, 100
1, 116947, Note_on_c, 7, 55, 100
1, 116947, Note_on_c, 7, 43, 100
1, 116977, Note_on_c, 4, 76, 80
1, 116977, Note_on_c, 4, 78, 0
1, 116977, Note_on_c, 7, 76, 100
1, 116977, Note_on_c, 7, 78, 0
1, 117007, Note_on_c, 4, 74, 80
1, 117007, Note_on_c, 4, 76, 0
1, 117007, Note_on_c, 5, 54, 80
1, 117007, Note_on_c, 5, 55, 0
1, 117007, Note_on_c, 6, 57, 0
1, 117007, Note_on_c, 6, 57, 80
1, 117007, Note_on_c, 6, 45, 0
1, 117007, Note_on_c, 6, 45, 80
1, 117007, Note_on_c, 7, 74, 100
1, 117007, Note_on_c, 7, 76, 0
1, 117007, Note_on_c, 7, 61, 0
1, 117007, Note_on_c, 7, 62, 100
1, 117007, Note_on_c, 7, 55, 0
1, 117007, Note_on_c, 7, 54, 100
1, 117007, Note_on_c, 7, 43, 0
1, 117007, Note_on_c, 7, 42, 100
1, 117037, Note_on_c, 4, 73, 80
1, 117037, Note_on_c, 4, 74, 0
1, 117037, Note_on_c, 7, 73, 100
1, 117037, Note_on_c, 7, 74, 0
1, 117067, Note_on_c, 4, 76, 80
1, 117067, Note_on_c, 4, 73, 0
1, 117067, Note_on_c, 7, 76, 100
1, 117067, Note_on_c, 7, 73, 0
1, 117097, Note_on_c, 4, 74, 80
1, 117097, Note_on_c, 4, 76, 0
1, 117097, Note_on_c, 7, 74, 100
1, 117097, Note_on_c, 7, 76, 0
1, 117127, Note_on_c, 4, 78, 80
1, 117127, Note_on_c, 4, 74, 0
1, 117127, Note_on_c, 5, 54, 0
1, 117127, Note_on_c, 6, 57, 0
1, 117127, Note_on_c, 6, 45, 0
1, 117127, Note_on_c, 7, 78, 100
1, 117127, Note_on_c, 7, 74, 0
1, 117127, Note_on_c, 7, 62, 0
1, 117127, Note_on_c, 7, 54, 0
1, 117127, Note_on_c, 7, 42, 0
1, 117187, Note_on_c, 4, 78, 0
1, 117187, Note_on_c, 5, 58, 80
1, 117187, Note_on_c, 7, 78, 0
1, 117187, Note_on_c, 7, 61, 100
1, 117187, Note_on_c, 7, 58, 100
1, 117187, Note_on_c, 7, 46, 100
1, 117247, Note_on_c, 4, 86, 80
1, 117247, Note_on_c, 5, 59, 80
1, 117247, Note_on_c, 5, 58, 0
1, 117247, Note_on_c, 7, 74, 100
1, 117247, Note_on_c, 7, 61, 0
1, 117247, Note_on_c, 7, 59, 100
1, 117247, Note_on_c, 7, 58, 0
1, 117247, Note_on_c, 7, 46, 0
1, 117247, Note_on_c, 7, 47, 100
1, 117277, Note_on_c, 4, 85, 80
1, 117277, Note_on_c, 4, 86, 0
1, 117277, Note_on_c, 7, 73, 100
1, 117277, Note_on_c, 7, 74, 0
1, 117307, Note_on_c, 4, 88, 80
1, 117307, Note_on_c, 4, 85, 0
1, 117307, Note_on_c, 7, 76, 100
1, 117307, Note_on_c, 7, 73, 0
1, 117337, Note_on_c, 4, 86, 80
1, 117337, Note_on_c, 4, 88, 0
1, 117337, Note_on_c, 7, 74, 100
1, 117337, Note_on_c, 7, 76, 0
1, 117367, Note_on_c, 4, 90, 80
1, 117367, Note_on_c, 4, 86, 0
1, 117367, Note_on_c, 5, 59, 0
1, 117367, Note_on_c, 7, 78, 100
1, 117367, Note_on_c, 7, 74, 0
1, 117367, Note_on_c, 7, 59, 0
1, 117367, Note_on_c, 7, 47, 0
1, 117397, Note_on_c, 4, 88, 80
1, 117397, Note_on_c, 4, 90, 0
1, 117397, Note_on_c, 7, 76, 100
1, 117397, Note_on_c, 7, 78, 0
1, 117427, Note_on_c, 4, 86, 80
1, 117427, Note_on_c, 4, 88, 0
1, 117427, Note_on_c, 5, 52, 80
1, 117427, Note_on_c, 7, 74, 100
1, 117427, Note_on_c, 7, 76, 0
1, 117427, Note_on_c, 7, 58, 100
1, 117427, Note_on_c, 7, 52, 100
1, 117427, Note_on_c, 7, 40, 100
1, 117457, Note_on_c, 4, 85, 80
1, 117457, Note_on_c, 4, 86, 0
1, 117457, Note_on_c, 7, 73, 100
1, 117457, Note_on_c, 7, 74, 0
1, 117487, Note_on_c, 4, 83, 80
1, 117487, Note_on_c, 4, 85, 0
1, 117487, Note_on_c, 5, 50, 80
1, 117487, Note_on_c, 5, 52, 0
1, 117487, Note_on_c, 7, 71, 100
1, 117487, Note_on_c, 7, 73, 0
1, 117487, Note_on_c, 7, 58, 0
1, 117487, Note_on_c, 7, 59, 100
1, 117487, Note_on_c, 7, 52, 0
1, 117487, Note_on_c, 7, 50, 100
1, 117487, Note_on_c, 7, 40, 0
1, 117487, Note_on_c, 7, 38, 100
1, 117517, Note_on_c, 4, 82, 80
1, 117517, Note_on_c, 4, 83, 0
1, 117517, Note_on_c, 7, 70, 100
1, 117517, Note_on_c, 7, 71, 0
1, 117547, Note_on_c, 4, 85, 80
1, 117547, Note_on_c, 4, 82, 0
1, 117547, Note_on_c, 7, 73, 100
1, 117547, Note_on_c, 7, 70, 0
1, 117577, Note_on_c, 4, 83, 80
1, 117577, Note_on_c, 4, 85, 0
1, 117577, Note_on_c, 7, 71, 100
1, 117577, Note_on_c, 7, 73, 0
1, 117607, Note_on_c, 4, 86, 80
1, 117607, Note_on_c, 4, 83, 0
1, 117607, Note_on_c, 5, 50, 0
1, 117607, Note_on_c, 7, 74, 100
1, 117607, Note_on_c, 7, 71, 0
1, 117607, Note_on_c, 7, 59, 0
1, 117607, Note_on_c, 7, 50, 0
1, 117607, Note_on_c, 7, 38, 0
1, 117667, Note_on_c, 4, 86, 0
1, 117667, Note_on_c, 5, 54, 80
1, 117667, Note_on_c, 7, 74, 0
1, 117667, Note_on_c, 7, 62, 100
1, 117667, Note_on_c, 7, 54, 100
1, 117667, Note_on_c, 7, 42, 100
1, 117727, Note_on_c, 4, 83, 80
1, 117727, Note_on_c, 5, 56, 80
1, 117727, Note_on_c, 5, 54, 0
1, 117727, Note_on_c, 7, 71, 100
1, 117727, Note_on_c, 7, 54, 0
1, 117727, Note_on_c, 7, 56, 100
1, 117727, Note_on_c, 7, 42, 0
1, 117727, Note_on_c, 7, 44, 100
1, 117757, Note_on_c, 4, 82, 80
1, 117757, Note_on_c, 4, 83, 0
1, 117757, Note_on_c, 7, 70, 100
1, 117757, Note_on_c, 7, 71, 0
1, 117787, Note_on_c, 4, 85, 80
1, 117787, Note_on_c, 4, 82, 0
1, 117787, Note_on_c, 7, 73, 100
1, 117787, Note_on_c, 7, 70, 0
1, 117817, Note_on_c, 4, 83, 80
1, 117817, Note_on_c, 4, 85, 0
1, 117817, Note_on_c, 7, 71, 100
1, 117817, Note_on_c, 7, 73, 0
1, 117847, Note_on_c, 4, 86, 80
1, 117847, Note_on_c, 4, 83, 0
1, 117847, Note_on_c, 5, 56, 0
1, 117847, Note_on_c, 7, 74, 100
1, 117847, Note_on_c, 7, 71, 0
1, 117847, Note_on_c, 7, 62, 0
1, 117847, Note_on_c, 7, 56, 0
1, 117847, Note_on_c, 7, 44, 0
1, 117877, Note_on_c, 4, 85, 80
1, 117877, Note_on_c, 4, 86, 0
1, 117877, Note_on_c, 7, 73, 100
1, 117877, Note_on_c, 7, 74, 0
1, 117907, Note_on_c, 4, 83, 80
1, 117907, Note_on_c, 4, 85, 0
1, 117907, Note_on_c, 5, 62, 80
1, 117907, Note_on_c, 7, 71, 100
1, 117907, Note_on_c, 7, 73, 0
1, 117907, Note_on_c, 7, 66, 100
1, 117907, Note_on_c, 7, 63, 100
1, 117907, Note_on_c, 7, 51, 100
1, 117937, Note_on_c, 4, 81, 80
1, 117937, Note_on_c, 4, 83, 0
1, 117937, Note_on_c, 7, 69, 100
1, 117937, Note_on_c, 7, 71, 0
1, 117967, Note_on_c, 4, 80, 80
1, 117967, Note_on_c, 4, 81, 0
1, 117967, Note_on_c, 5, 64, 80
1, 117967, Note_on_c, 5, 62, 0
1, 117967, Note_on_c, 7, 68, 100
1, 117967, Note_on_c, 7, 69, 0
1, 117967, Note_on_c, 7, 67, 100
1, 117967, Note_on_c, 7, 66, 0
1, 117967, Note_on_c, 7, 64, 100
1, 117967, Note_on_c, 7, 63, 0
1, 117967, Note_on_c, 7, 51, 0
1, 117967, Note_on_c, 7, 52, 100
1, 117997, Note_on_c, 4, 78, 80
1, 117997, Note_on_c, 4, 80, 0
1, 117997, Note_on_c, 7, 68, 0
1, 117997, Note_on_c, 7, 66, 100
1, 117997, Note_on_c, 7, 67, 0
1, 118027, Note_on_c, 4, 81, 80
1, 118027, Note_on_c, 4, 78, 0
1, 118027, Note_on_c, 7, 69, 100
1, 118027, Note_on_c, 7, 66, 0
1, 118057, Note_on_c, 4, 80, 80
1, 118057, Note_on_c, 4, 81, 0
1, 118057, Note_on_c, 7, 68, 100
1, 118057, Note_on_c, 7, 69, 0
1, 118057, Note_on_c, 7, 67, 100
1, 118087, Note_on_c, 4, 83, 80
1, 118087, Note_on_c, 4, 80, 0
1, 118087, Note_on_c, 5, 64, 0
1, 118087, Note_on_c, 7, 68, 0
1, 118087, Note_on_c, 7, 71, 100
1, 118087, Note_on_c, 7, 67, 0
1, 118087, Note_on_c, 7, 64, 0
1, 118087, Note_on_c, 7, 52, 0
1, 118117, Note_on_c, 4, 81, 80
1, 118117, Note_on_c, 4, 83, 0
1, 118117, Note_on_c, 7, 69, 100
1, 118117, Note_on_c, 7, 71, 0
1, 118147, Note_on_c, 4, 80, 80
1, 118147, Note_on_c, 4, 81, 0
1, 118147, Note_on_c, 5, 57, 80
1, 118147, Note_on_c, 7, 68, 100
1, 118147, Note_on_c, 7, 69, 0
1, 118147, Note_on_c, 7, 67, 100
1, 118147, Note_on_c, 7, 63, 100
1, 118147, Note_on_c, 7, 57, 100
1, 118147, Note_on_c, 7, 45, 100
1, 118177, Note_on_c, 4, 78, 80
1, 118177, Note_on_c, 4, 80, 0
1, 118177, Note_on_c, 7, 68, 0
1, 118177, Note_on_c, 7, 66, 100
1, 118177, Note_on_c, 7, 67, 0
1, 118207, Note_on_c, 4, 76, 80
1, 118207, Note_on_c, 4, 78, 0
1, 118207, Note_on_c, 5, 56, 80
1, 118207, Note_on_c, 5, 57, 0
1, 118207, Note_on_c, 7, 64, 100
1, 118207, Note_on_c, 7, 66, 0
1, 118207, Note_on_c, 7, 63, 0
1, 118207, Note_on_c, 7, 57, 0
1, 118207, Note_on_c, 7, 56, 100
1, 118207, Note_on_c, 7, 45, 0
1, 118207, Note_on_c, 7, 44, 100
1, 118267, Note_on_c, 4, 76, 0
1, 118327, Note_on_c, 4, 86, 80
1, 118327, Note_on_c, 4, 83, 80
1, 118327, Note_on_c, 5, 56, 0
1, 118327, Note_on_c, 6, 52, 80
1, 118327, Note_on_c, 7, 74, 100
1, 118327, Note_on_c, 7, 83, 100
1, 118327, Note_on_c, 7, 56, 0
1, 118327, Note_on_c, 7, 44, 0
1, 118357, Note_on_c, 5, 52, 80
1, 118357, Note_on_c, 7, 52, 100
1, 118357, Note_on_c, 7, 40, 100
1, 118387, Note_on_c, 5, 54, 80
1, 118387, Note_on_c, 5, 52, 0
1, 118387, Note_on_c, 7, 54, 100
1, 118387, Note_on_c, 7, 52, 0
1, 118387, Note_on_c, 7, 40, 0
1, 118387, Note_on_c, 7, 42, 100
1, 118417, Note_on_c, 5, 56, 80
1, 118417, Note_on_c, 5, 54, 0
1, 118417, Note_on_c, 7, 56, 100
1, 118417, Note_on_c, 7, 54, 0
1, 118417, Note_on_c, 7, 42, 0
1, 118417, Note_on_c, 7, 44, 100
1, 118447, Note_on_c, 5, 57, 80
1, 118447, Note_on_c, 5, 56, 0
1, 118447, Note_on_c, 7, 57, 100
1, 118447, Note_on_c, 7, 56, 0
1, 118447, Note_on_c, 7, 44, 0
1, 118447, Note_on_c, 7, 45, 100
1, 118477, Note_on_c, 5, 56, 80
1, 118477, Note_on_c, 5, 57, 0
1, 118477, Note_on_c, 7, 56, 100
1, 118477, Note_on_c, 7, 57, 0
1, 118477, Note_on_c, 7, 45, 0
1, 118477, Note_on_c, 7, 44, 100
1, 118507, Note_on_c, 5, 57, 80
1, 118507, Note_on_c, 5, 56, 0
1, 118507, Note_on_c, 7, 57, 100
1, 118507, Note_on_c, 7, 56, 0
1, 118507, Note_on_c, 7, 44, 0
1, 118507, Note_on_c, 7, 45, 100
1, 118537, Note_on_c, 5, 59, 80
1, 118537, Note_on_c, 5, 57, 0
1, 118537, Note_on_c, 7, 59, 100
1, 118537, Note_on_c, 7, 57, 0
1, 118537, Note_on_c, 7, 45, 0
1, 118537, Note_on_c, 7, 47, 100
1, 118567, Note_on_c, 4, 86, 0
1, 118567, Note_on_c, 4, 85, 80
1, 118567, Note_on_c, 4, 83, 0
1, 118567, Note_on_c, 4, 81, 80
1, 118567, Note_on_c, 5, 61, 80
1, 118567, Note_on_c, 5, 59, 0
1, 118567, Note_on_c, 7, 74, 0
1, 118567, Note_on_c, 7, 73, 100
1, 118567, Note_on_c, 7, 64, 0
1, 118567, Note_on_c, 7, 83, 0
1, 118567, Note_on_c, 7, 69, 100
1, 118567, Note_on_c, 7, 61, 100
1, 118567, Note_on_c, 7, 59, 0
1, 118567, Note_on_c, 7, 47, 0
1, 118567, Note_on_c, 7, 49, 100
1, 118582, Note_on_c, 4, 85, 0
1, 118582, Note_on_c, 4, 86, 80
1, 118582, Note_on_c, 4, 81, 0
1, 118582, Note_on_c, 4, 83, 80
1, 118582, Note_on_c, 7, 73, 0
1, 118582, Note_on_c, 7, 74, 100
1, 118582, Note_on_c, 7, 69, 0
1, 118582, Note_on_c, 7, 71, 100
1, 118597, Note_on_c, 4, 86, 0
1, 118597, Note_on_c, 4, 85, 80
1, 118597, Note_on_c, 4, 83, 0
1, 118597, Note_on_c, 4, 81, 80
1, 118597, Note_on_c, 5, 59, 80
1, 118597, Note_on_c, 5, 61, 0
1, 118597, Note_on_c, 7, 74, 0
1, 118597, Note_on_c, 7, 73, 100
1, 118597, Note_on_c, 7, 71, 0
1, 118597, Note_on_c, 7, 69, 100
1, 118597, Note_on_c, 7, 59, 100
1, 118597, Note_on_c, 7, 61, 0
1, 118597, Note_on_c, 7, 49, 0
1, 118597, Note_on_c, 7, 47, 100
1, 118612, Note_on_c, 4, 85, 0
1, 118612, Note_on_c, 4, 86, 80
1, 118612, Note_on_c, 4, 81, 0
1, 118612, Note_on_c, 4, 83, 80
1, 118612, Note_on_c, 7, 73, 0
1, 118612, Note_on_c, 7, 74, 100
1, 118612, Note_on_c, 7, 69, 0
1, 118612, Note_on_c, 7, 71, 100
1, 118627, Note_on_c, 4, 86, 0
1, 118627, Note_on_c, 4, 85, 80
1, 118627, Note_on_c, 4, 83, 0
1, 118627, Note_on_c, 4, 81, 80
1, 118627, Note_on_c, 5, 61, 80
1, 118627, Note_on_c, 5, 59, 0
1, 118627, Note_on_c, 7, 74, 0
1, 118627, Note_on_c, 7, 73, 100
1, 118627, Note_on_c, 7, 71, 0
1, 118627, Note_on_c, 7, 69, 100
1, 118627, Note_on_c, 7, 61, 100
1, 118627, Note_on_c, 7, 59, 0
1, 118627, Note_on_c, 7, 47, 0
1, 118627, Note_on_c, 7, 49, 100
1, 118642, Note_on_c, 4, 85, 0
1, 118642, Note_on_c, 4, 86, 80
1, 118642, Note_on_c, 4, 81, 0
1, 118642, Note_on_c, 4, 83, 80
1, 118642, Note_on_c, 7, 73, 0
1, 118642, Note_on_c, 7, 74, 100
1, 118642, Note_on_c, 7, 69, 0
1, 118642, Note_on_c, 7, 71, 100
1, 118657, Note_on_c, 4, 86, 0
1, 118657, Note_on_c, 4, 80, 80
1, 118657, Note_on_c, 5, 63, 80
1, 118657, Note_on_c, 5, 61, 0
1, 118657, Note_on_c, 7, 74, 0
1, 118657, Note_on_c, 7, 68, 100
1, 118657, Note_on_c, 7, 63, 100
1, 118657, Note_on_c, 7, 61, 0
1, 118657, Note_on_c, 7, 49, 0
1, 118657, Note_on_c, 7, 51, 100
1, 118672, Note_on_c, 4, 83, 0
1, 118672, Note_on_c, 4, 85, 80
1, 118672, Note_on_c, 4, 80, 0
1, 118672, Note_on_c, 4, 81, 80
1, 118672, Note_on_c, 7, 71, 0
1, 118672, Note_on_c, 7, 73, 100
1, 118672, Note_on_c, 7, 68, 0
1, 118672, Note_on_c, 7, 69, 100
1, 118687, Note_on_c, 4, 85, 0
1, 118687, Note_on_c, 4, 83, 80
1, 118687, Note_on_c, 4, 81, 0
1, 118687, Note_on_c, 4, 80, 80
1, 118687, Note_on_c, 5, 64, 80
1, 118687, Note_on_c, 5, 63, 0
1, 118687, Note_on_c, 7, 73, 0
1, 118687, Note_on_c, 7, 71, 100
1, 118687, Note_on_c, 7, 69, 0
1, 118687, Note_on_c, 7, 68, 100
1, 118687, Note_on_c, 7, 64, 100
1, 118687, Note_on_c, 7, 63, 0
1, 118687, Note_on_c, 7, 51, 0
1, 118687, Note_on_c, 7, 52, 100
1, 118717, Note_on_c, 7, 71, 0
1, 118717, Note_on_c, 7, 68, 0
1, 118747, Note_on_c, 7, 66, 100
1, 118777, Note_on_c, 7, 68, 100
1, 118777, Note_on_c, 7, 66, 0
1, 118807, Note_on_c, 4, 83, 0
1, 118807, Note_on_c, 4, 80, 0
1, 118807, Note_on_c, 5, 64, 0
1, 118807, Note_on_c, 6, 52, 0
1, 118807, Note_on_c, 7, 69, 100
1, 118807, Note_on_c, 7, 68, 0
1, 118807, Note_on_c, 7, 64, 0
1, 118807, Note_on_c, 7, 52, 0
1, 118837, Note_on_c, 5, 47, 80
1, 118837, Note_on_c, 7, 71, 100
1, 118837, Note_on_c, 7, 69, 0
1, 118837, Note_on_c, 7, 59, 100
1, 118837, Note_on_c, 7, 47, 100
1, 118837, Note_on_c, 7, 35, 100
1, 118867, Note_on_c, 4, 88, 80
1, 118867, Note_on_c, 4, 80, 80
1, 118867, Note_on_c, 5, 49, 80
1, 118867, Note_on_c, 5, 47, 0
1, 118867, Note_on_c, 6, 59, 80
1, 118867, Note_on_c, 6, 52, 80
1, 118867, Note_on_c, 7, 73, 100
1, 118867, Note_on_c, 7, 71, 0
1, 118867, Note_on_c, 7, 59, 0
1, 118867, Note_on_c, 7, 61, 100
1, 118867, Note_on_c, 7, 47, 0
1, 118867, Note_on_c, 7, 49, 100
1, 118867, Note_on_c, 7, 35, 0
1, 118867, Note_on_c, 7, 37, 100
1, 118897, Note_on_c, 5, 51, 80
1, 118897, Note_on_c, 5, 49, 0
1, 118897, Note_on_c, 7, 75, 100
1, 118897, Note_on_c, 7, 73, 0
1, 118897, Note_on_c, 7, 61, 0
1, 118897, Note_on_c, 7, 63, 100
1, 118897, Note_on_c, 7, 49, 0
1, 118897, Note_on_c, 7, 51, 100
1, 118897, Note_on_c, 7, 37, 0
1, 118897, Note_on_c, 7, 39, 100
1, 118927, Note_on_c, 4, 88, 0
1, 118927, Note_on_c, 4, 88, 80
1, 118927, Note_on_c, 4, 80, 0
1, 118927, Note_on_c, 4, 80, 80
1, 118927, Note_on_c, 5, 52, 80
1, 118927, Note_on_c, 5, 51, 0
1, 118927, Note_on_c, 6, 59, 0
1, 118927, Note_on_c, 6, 59, 80
1, 118927, Note_on_c, 6, 52, 0
1, 118927, Note_on_c, 6, 52, 80
1, 118927, Note_on_c, 7, 76, 100
1, 118927, Note_on_c, 7, 75, 0
1, 118927, Note_on_c, 7, 63, 0
1, 118927, Note_on_c, 7, 64, 100
1, 118927, Note_on_c, 7, 51, 0
1, 118927, Note_on_c, 7, 52, 100
1, 118927, Note_on_c, 7, 39, 0
1, 118927, Note_on_c, 7, 40, 100
1, 118957, Note_on_c, 5, 54, 80
1, 118957, Note_on_c, 5, 52, 0
1, 118957, Note_on_c, 7, 78, 100
1, 118957, Note_on_c, 7, 76, 0
1, 118957, Note_on_c, 7, 64, 0
1, 118957, Note_on_c, 7, 66, 100
1, 118957, Note_on_c, 7, 52, 0
1, 118957, Note_on_c, 7, 54, 100
1, 118957, Note_on_c, 7, 40, 0
1, 118957, Note_on_c, 7, 42, 100
1, 118987, Note_on_c, 4, 88, 0
1, 118987, Note_on_c, 4, 88, 80
1, 118987, Note_on_c, 4, 80, 0
1, 118987, Note_on_c, 4, 80, 80
1, 118987, Note_on_c, 5, 56, 80
1, 118987, Note_on_c, 5, 54, 0
1, 118987, Note_on_c, 6, 59, 0
1, 118987, Note_on_c, 6, 59, 80
1, 118987, Note_on_c, 6, 52, 0
1, 118987, Note_on_c, 6, 52, 80
1, 118987, Note_on_c, 7, 80, 100
1, 118987, Note_on_c, 7, 78, 0
1, 118987, Note_on_c, 7, 66, 0
1, 118987, Note_on_c, 7, 68, 100
1, 118987, Note_on_c, 7, 54, 0
1, 118987, Note_on_c, 7, 56, 100
1, 118987, Note_on_c, 7, 42, 0
1, 118987, Note_on_c, 7, 44, 100
1, 119017, Note_on_c, 5, 57, 80
1, 119017, Note_on_c, 5, 56, 0
1, 119017, Note_on_c, 7, 81, 100
1, 119017, Note_on_c, 7, 80, 0
1, 119017, Note_on_c, 7, 68, 0
1, 119017, Note_on_c, 7, 69, 100
1, 119017, Note_on_c, 7, 56, 0
1, 119017, Note_on_c, 7, 57, 100
1, 119017, Note_on_c, 7, 44, 0
1, 119017, Note_on_c, 7, 45, 100
1, 119047, Note_on_c, 4, 88, 0
1, 119047, Note_on_c, 4, 88, 80
1, 119047, Note_on_c, 4, 80, 0
1, 119047, Note_on_c, 4, 80, 80
1, 119047, Note_on_c, 5, 59, 80
1, 119047, Note_on_c, 5, 57, 0
1, 119047, Note_on_c, 6, 59, 0
1, 119047, Note_on_c, 6, 59, 80
1, 119047, Note_on_c, 6, 52, 0
1, 119047, Note_on_c, 6, 52, 80
1, 119047, Note_on_c, 7, 83, 100
1, 119047, Note_on_c, 7, 81, 0
1, 119047, Note_on_c, 7, 69, 0
1, 119047, Note_on_c, 7, 71, 100
1, 119047, Note_on_c, 7, 57, 0
1, 119047, Note_on_c, 7, 59, 100
1, 119047, Note_on_c, 7, 45, 0
1, 119047, Note_on_c, 7, 47, 100
1, 119077, Note_on_c, 5, 56, 80
1, 119077, Note_on_c, 5, 59, 0
1, 119077, Note_on_c, 7, 80, 100
1, 119077, Note_on_c, 7, 83, 0
1, 119077, Note_on_c, 7, 71, 0
1, 119077, Note_on_c, 7, 68, 100
1, 119077, Note_on_c, 7, 59, 0
1, 119077, Note_on_c, 7, 56, 100
1, 119077, Note_on_c, 7, 47, 0
1, 119077, Note_on_c, 7, 44, 100
1, 119107, Note_on_c, 4, 88, 0
1, 119107, Note_on_c, 4, 88, 80
1, 119107, Note_on_c, 4, 80, 0
1, 119107, Note_on_c, 4, 80, 80
1, 119107, Note_on_c, 5, 59, 80
1, 119107, Note_on_c, 5, 56, 0
1, 119107, Note_on_c, 6, 59, 0
1, 119107, Note_on_c, 6, 59, 80
1, 119107, Note_on_c, 6, 52, 0
1, 119107, Note_on_c, 6, 52, 80
1, 119107, Note_on_c, 7, 83, 100
1, 119107, Note_on_c, 7, 80, 0
1, 119107, Note_on_c, 7, 68, 0
1, 119107, Note_on_c, 7, 71, 100
1, 119107, Note_on_c, 7, 56, 0
1, 119107, Note_on_c, 7, 59, 100
1, 119107, Note_on_c, 7, 44, 0
1, 119107, Note_on_c, 7, 47, 100
1, 119137, Note_on_c, 5, 56, 80
1, 119137, Note_on_c, 5, 59, 0
1, 119137, Note_on_c, 7, 80, 100
1, 119137, Note_on_c, 7, 83, 0
1, 119137, Note_on_c, 7, 71, 0
1, 119137, Note_on_c, 7, 68, 100
1, 119137, Note_on_c, 7, 59, 0
1, 119137, Note_on_c, 7, 56, 100
1, 119137, Note_on_c, 7, 47, 0
1, 119137, Note_on_c, 7, 44, 100
1, 119167, Note_on_c, 3, 52, 127
1, 119167, Note_on_c, 4, 88, 0
1, 119167, Note_on_c, 4, 88, 80
1, 119167, Note_on_c, 4, 80, 0
1, 119167, Note_on_c, 4, 80, 80
1, 119167, Note_on_c, 5, 52, 80
1, 119167, Note_on_c, 5, 56, 0
1, 119167, Note_on_c, 6, 59, 0
1, 119167, Note_on_c, 6, 59, 80
1, 119167, Note_on_c, 6, 52, 0
1, 119167, Note_on_c, 6, 52, 80
1, 119167, Note_on_c, 7, 76, 100
1, 119167, Note_on_c, 7, 80, 0
1, 119167, Note_on_c, 7, 68, 0
1, 119167, Note_on_c, 7, 64, 100
1, 119167, Note_on_c, 7, 56, 0
1, 119167, Note_on_c, 7, 52, 100
1, 119167, Note_on_c, 7, 44, 0
1, 119167, Note_on_c, 7, 40, 100
1, 119227, Note_on_c, 3, 52, 0
1, 119227, Note_on_c, 3, 54, 127
1, 119242, Note_on_c, 3, 54, 0
1, 119257, Note_on_c, 3, 56, 127
1, 119272, Note_on_c, 3, 56, 0
1, 119287, Note_on_c, 3, 57, 127
1, 119287, Note_on_c, 4, 88, 0
1, 119287, Note_on_c, 4, 80, 0
1, 119287, Note_on_c, 5, 52, 0
1, 119287, Note_on_c, 6, 59, 0
1, 119287, Note_on_c, 6, 52, 0
1, 119287, Note_on_c, 7, 76, 0
1, 119287, Note_on_c, 7, 64, 0
1, 119287, Note_on_c, 7, 52, 0
1, 119287, Note_on_c, 7, 40, 0
1, 119302, Note_on_c, 3, 57, 0
1, 119317, Note_on_c, 3, 59, 127
1, 119332, Note_on_c, 3, 59, 0
1, 119347, Note_on_c, 3, 61, 127
1, 119362, Note_on_c, 3, 61, 0
1, 119377, Note_on_c, 3, 63, 127
1, 119392, Note_on_c, 3, 63, 0
1, 119407, Note_on_c, 3, 64, 127
1, 119422, Note_on_c, 3, 64, 0
1, 119437, Note_on_c, 3, 66, 127
1, 119452, Note_on_c, 3, 66, 0
1, 119467, Note_on_c, 3, 68, 127
1, 119482, Note_on_c, 3, 68, 0
1, 119497, Note_on_c, 3, 69, 127
1, 119512, Note_on_c, 3, 69, 0
1, 119527, Note_on_c, 3, 71, 127
1, 119542, Note_on_c, 3, 71, 0
1, 119557, Note_on_c, 3, 73, 127
1, 119572, Note_on_c, 3, 73, 0
1, 119587, Note_on_c, 3, 74, 127
1, 119602, Note_on_c, 3, 74, 0
1, 119617, Note_on_c, 3, 75, 127
1, 119632, Note_on_c, 3, 75, 0
1, 119647, Note_on_c, 3, 76, 127
1, 119647, Note_on_c, 6, 52, 80
1, 119767, Note_on_c, 5, 64, 80
1, 119767, Note_on_c, 7, 64, 100
1, 119887, Note_on_c, 5, 64, 0
1, 119887, Note_on_c, 5, 63, 80
1, 119887, Note_on_c, 7, 66, 100
1, 119887, Note_on_c, 7, 63, 100
1, 119917, Note_on_c, 7, 66, 0
1, 119917, Note_on_c, 7, 63, 0
1, 119947, Note_on_c, 7, 66, 100
1, 119947, Note_on_c, 7, 63, 100
1, 119977, Note_on_c, 7, 66, 0
1, 119977, Note_on_c, 7, 63, 0
1, 120007, Note_on_c, 5, 64, 80
1, 120007, Note_on_c, 5, 63, 0
1, 120007, Note_on_c, 5, 62, 80
1, 120007, Note_on_c, 7, 68, 100
1, 120007, Note_on_c, 7, 62, 100
1, 120037, Note_on_c, 7, 68, 0
1, 120037, Note_on_c, 7, 62, 0
1, 120067, Note_on_c, 7, 68, 100
1, 120067, Note_on_c, 7, 62, 100
1, 120097, Note_on_c, 7, 68, 0
1, 120097, Note_on_c, 7, 62, 0
1, 120127, Note_on_c, 5, 62, 0
1, 120127, Note_on_c, 5, 61, 80
1, 120127, Note_on_c, 7, 69, 100
1, 120127, Note_on_c, 7, 64, 0
1, 120127, Note_on_c, 7, 64, 100
1, 120127, Note_on_c, 7, 61, 100
1, 120157, Note_on_c, 7, 69, 0
1, 120157, Note_on_c, 7, 64, 0
1, 120157, Note_on_c, 7, 61, 0
1, 120187, Note_on_c, 7, 69, 100
1, 120187, Note_on_c, 7, 64, 100
1, 120187, Note_on_c, 7, 61, 100
1, 120217, Note_on_c, 7, 69, 0
1, 120217, Note_on_c, 7, 64, 0
1, 120217, Note_on_c, 7, 61, 0
1, 120247, Note_on_c, 5, 64, 0
1, 120247, Note_on_c, 5, 62, 80
1, 120247, Note_on_c, 5, 61, 0
1, 120247, Note_on_c, 5, 59, 80
1, 120247, Note_on_c, 7, 71, 100
1, 120247, Note_on_c, 7, 68, 100
1, 120247, Note_on_c, 7, 59, 100
1, 120277, Note_on_c, 7, 71, 0
1, 120277, Note_on_c, 7, 68, 0
1, 120277, Note_on_c, 7, 59, 0
1, 120307, Note_on_c, 7, 71, 100
1, 120307, Note_on_c, 7, 68, 100
1, 120307, Note_on_c, 7, 59, 100
1, 120337, Note_on_c, 7, 71, 0
1, 120337, Note_on_c, 7, 68, 0
1, 120337, Note_on_c, 7, 59, 0
1, 120367, Note_on_c, 5, 62, 0
1, 120367, Note_on_c, 5, 61, 80
1, 120367, Note_on_c, 5, 59, 0
1, 120367, Note_on_c, 5, 57, 80
1, 120367, Note_on_c, 7, 73, 100
1, 120367, Note_on_c, 7, 69, 100
1, 120367, Note_on_c, 7, 57, 100
1, 120397, Note_on_c, 7, 73, 0
1, 120397, Note_on_c, 7, 69, 0
1, 120397, Note_on_c, 7, 57, 0
1, 120427, Note_on_c, 7, 73, 100
1, 120427, Note_on_c, 7, 69, 100
1, 120427, Note_on_c, 7, 57, 100
1, 120457, Note_on_c, 7, 73, 0
1, 120457, Note_on_c, 7, 69, 0
1, 120457, Note_on_c, 7, 57, 0
1, 120487, Note_on_c, 5, 61, 0
1, 120487, Note_on_c, 5, 59, 80
1, 120487, Note_on_c, 5, 57, 0
1, 120487, Note_on_c, 5, 56, 80
1, 120487, Note_on_c, 7, 74, 100
1, 120487, Note_on_c, 7, 71, 100
1, 120487, Note_on_c, 7, 56, 100
1, 120517, Note_on_c, 7, 74, 0
1, 120517, Note_on_c, 7, 71, 0
1, 120517, Note_on_c, 7, 56, 0
1, 120547, Note_on_c, 7, 74, 100
1, 120547, Note_on_c, 7, 71, 100
1, 120547, Note_on_c, 7, 56, 100
1, 120577, Note_on_c, 7, 74, 0
1, 120577, Note_on_c, 7, 71, 0
1, 120577, Note_on_c, 7, 56, 0
1, 120607, Note_on_c, 5, 59, 0
1, 120607, Note_on_c, 5, 57, 80
1, 120607, Note_on_c, 5, 56, 0
1, 120607, Note_on_c, 6, 45, 80
1, 120607, Note_on_c, 6, 52, 0
1, 120607, Note_on_c, 7, 73, 100
1, 120607, Note_on_c, 7, 69, 100
1, 120607, Note_on_c, 7, 59, 100
1, 120667, Note_on_c, 7, 69, 0
1, 120667, Note_on_c, 7, 57, 100
1, 120727, Note_on_c, 5, 57, 0
1, 120727, Note_on_c, 6, 45, 0
1, 120727, Note_on_c, 7, 57, 0
1, 120727, Note_on_c, 7, 57, 100
1, 120727, Note_on_c, 7, 59, 0
1, 120787, Note_on_c, 7, 57, 0
1, 120787, Note_on_c, 7, 57, 100
1, 120847, Note_on_c, 3, 76, 0
1, 120847, Note_on_c, 3, 73, 127
1, 120847, Note_on_c, 7, 73, 0
1, 120847, Note_on_c, 7, 69, 100
1, 120847, Note_on_c, 7, 57, 0
1, 120847, Note_on_c, 7, 57, 100
1, 120907, Note_on_c, 7, 57, 0
1, 120907, Note_on_c, 7, 57, 100
1, 120967, Note_on_c, 7, 57, 0
1, 120967, Note_on_c, 7, 57, 100
1, 121027, Note_on_c, 3, 73, 0
1, 121027, Note_on_c, 3, 74, 127
1, 121027, Note_on_c, 7, 69, 0
1, 121027, Note_on_c, 7, 71, 100
1, 121027, Note_on_c, 7, 57, 0
1, 121027, Note_on_c, 7, 57, 100
1, 121087, Note_on_c, 3, 74, 0
1, 121087, Note_on_c, 3, 78, 127
1, 121087, Note_on_c, 7, 71, 0
1, 121087, Note_on_c, 7, 74, 100
1, 121087, Note_on_c, 7, 57, 0
1, 121087, Note_on_c, 7, 57, 100
1, 121147, Note_on_c, 3, 78, 0
1, 121147, Note_on_c, 3, 76, 127
1, 121147, Note_on_c, 7, 74, 0
1, 121147, Note_on_c, 7, 73, 100
1, 121207, Note_on_c, 3, 76, 0
1, 121207, Note_on_c, 3, 74, 127
1, 121207, Note_on_c, 7, 73, 0
1, 121207, Note_on_c, 7, 71, 100
1, 121207, Note_on_c, 7, 57, 0
1, 121237, Note_on_c, 3, 74, 0
1, 121237, Note_on_c, 7, 71, 0
1, 121267, Note_on_c, 3, 73, 127
1, 121267, Note_on_c, 7, 69, 100
1, 121297, Note_on_c, 3, 73, 0
1, 121297, Note_on_c, 7, 69, 0
1, 121327, Note_on_c, 3, 73, 127
1, 121327, Note_on_c, 7, 69, 100
1, 121387, Note_on_c, 7, 57, 100
1, 121447, Note_on_c, 3, 73, 0
1, 121447, Note_on_c, 7, 69, 0
1, 121447, Note_on_c, 7, 57, 0
1, 121447, Note_on_c, 7, 61, 100
1, 121507, Note_on_c, 7, 61, 0
1, 121507, Note_on_c, 7, 57, 100
1, 121567, Note_on_c, 3, 74, 127
1, 121567, Note_on_c, 7, 66, 100
1, 121567, Note_on_c, 7, 57, 0
1, 121567, Note_on_c, 7, 59, 100
1, 121567, Note_on_c, 7, 50, 100
1, 121687, Note_on_c, 3, 74, 0
1, 121687, Note_on_c, 3, 71, 127
1, 121687, Note_on_c, 7, 66, 0
1, 121687, Note_on_c, 7, 62, 100
1, 121687, Note_on_c, 7, 59, 0
1, 121687, Note_on_c, 7, 50, 0
1, 121747, Note_on_c, 3, 71, 0
1, 121747, Note_on_c, 7, 62, 0
1, 121807, Note_on_c, 3, 74, 127
1, 121807, Note_on_c, 7, 66, 100
1, 121807, Note_on_c, 7, 59, 100
1, 121807, Note_on_c, 7, 50, 100
1, 121927, Note_on_c, 3, 74, 0
1, 121927, Note_on_c, 3, 71, 127
1, 121927, Note_on_c, 7, 66, 0
1, 121927, Note_on_c, 7, 62, 100
1, 121927, Note_on_c, 7, 59, 0
1, 121927, Note_on_c, 7, 50, 0
1, 121987, Note_on_c, 3, 71, 0
1, 121987, Note_on_c, 7, 62, 0
1, 122047, Note_on_c, 3, 69, 127
1, 122047, Note_on_c, 7, 61, 100
1, 122107, Note_on_c, 7, 52, 100
1, 122167, Note_on_c, 7, 52, 0
1, 122167, Note_on_c, 7, 52, 100
1, 122227, Note_on_c, 7, 52, 0
1, 122227, Note_on_c, 7, 52, 100
1, 122287, Note_on_c, 3, 69, 0
1, 122287, Note_on_c, 3, 68, 127
1, 122287, Note_on_c, 7, 61, 0
1, 122287, Note_on_c, 7, 59, 100
1, 122287, Note_on_c, 7, 52, 0
1, 122287, Note_on_c, 7, 52, 100
1, 122347, Note_on_c, 7, 64, 100
1, 122407, Note_on_c, 3, 68, 0
1, 122407, Note_on_c, 7, 59, 0
1, 122407, Note_on_c, 7, 64, 0
1, 122407, Note_on_c, 7, 63, 100
1, 122407, Note_on_c, 7, 52, 0
1, 122467, Note_on_c, 7, 63, 0
1, 122467, Note_on_c, 7, 62, 100
1, 122527, Note_on_c, 3, 69, 127
1, 122527, Note_on_c, 7, 64, 100
1, 122527, Note_on_c, 7, 62, 0
1, 122527, Note_on_c, 7, 61, 100
1, 122587, Note_on_c, 7, 61, 0
1, 122587, Note_on_c, 7, 61, 100
1, 122647, Note_on_c, 7, 61, 0
1, 122647, Note_on_c, 7, 61, 100
1, 122707, Note_on_c, 7, 61, 0
1, 122707, Note_on_c, 7, 61, 100
1, 122767, Note_on_c, 7, 64, 0
1, 122767, Note_on_c, 7, 62, 100
1, 122767, Note_on_c, 7, 61, 0
1, 122767, Note_on_c, 7, 59, 100
1, 122797, Note_on_c, 3, 69, 0
1, 122797, Note_on_c, 3, 68, 127
1, 122827, Note_on_c, 3, 68, 0
1, 122827, Note_on_c, 3, 69, 127
1, 122827, Note_on_c, 7, 59, 0
1, 122827, Note_on_c, 7, 59, 100
1, 122857, Note_on_c, 3, 69, 0
1, 122857, Note_on_c, 3, 68, 127
1, 122887, Note_on_c, 3, 68, 0
1, 122887, Note_on_c, 3, 71, 127
1, 122887, Note_on_c, 7, 62, 0
1, 122887, Note_on_c, 7, 61, 100
1, 122887, Note_on_c, 7, 59, 0
1, 122887, Note_on_c, 7, 57, 100
1, 122917, Note_on_c, 3, 71, 0
1, 122917, Note_on_c, 3, 69, 127
1, 122947, Note_on_c, 3, 69, 0
1, 122947, Note_on_c, 3, 68, 127
1, 122947, Note_on_c, 7, 57, 0
1, 122947, Note_on_c, 7, 57, 100
1, 122977, Note_on_c, 3, 68, 0
1, 122977, Note_on_c, 3, 66, 127
1, 123007, Note_on_c, 3, 66, 0
1, 123007, Note_on_c, 3, 64, 127
1, 123007, Note_on_c, 7, 61, 0
1, 123007, Note_on_c, 7, 59, 100
1, 123007, Note_on_c, 7, 57, 0
1, 123007, Note_on_c, 7, 56, 100
1, 123067, Note_on_c, 3, 64, 0
1, 123067, Note_on_c, 3, 74, 127
1, 123127, Note_on_c, 3, 74, 0
1, 123127, Note_on_c, 3, 74, 127
1, 123127, Note_on_c, 7, 59, 0
1, 123127, Note_on_c, 7, 71, 100
1, 123127, Note_on_c, 7, 56, 0
1, 123127, Note_on_c, 7, 68, 100
1, 123127, Note_on_c, 7, 64, 100
1, 123247, Note_on_c, 7, 64, 0
1, 123247, Note_on_c, 7, 65, 100
1, 123367, Note_on_c, 3, 74, 0
1, 123367, Note_on_c, 3, 73, 127
1, 123367, Note_on_c, 7, 71, 0
1, 123367, Note_on_c, 7, 69, 100
1, 123367, Note_on_c, 7, 68, 0
1, 123367, Note_on_c, 7, 65, 0
1, 123367, Note_on_c, 7, 66, 100
1, 123487, Note_on_c, 3, 73, 0
1, 123487, Note_on_c, 3, 71, 127
1, 123487, Note_on_c, 7, 71, 100
1, 123487, Note_on_c, 7, 69, 0
1, 123487, Note_on_c, 7, 62, 100
1, 123517, Note_on_c, 3, 71, 0
1, 123517, Note_on_c, 3, 73, 127
1, 123547, Note_on_c, 3, 73, 0
1, 123547, Note_on_c, 3, 74, 127
1, 123577, Note_on_c, 3, 74, 0
1, 123577, Note_on_c, 3, 76, 127
1, 123607, Note_on_c, 3, 76, 0
1, 123607, Note_on_c, 3, 77, 127
1, 123607, Note_on_c, 7, 71, 0
1, 123607, Note_on_c, 7, 66, 0
1, 123607, Note_on_c, 7, 62, 0
1, 123637, Note_on_c, 3, 77, 0
1, 123637, Note_on_c, 3, 78, 127
1, 123667, Note_on_c, 3, 78, 0
1, 123667, Note_on_c, 3, 74, 127
1, 123667, Note_on_c, 7, 66, 100
1, 123667, Note_on_c, 7, 50, 100
1, 123697, Note_on_c, 3, 74, 0
1, 123697, Note_on_c, 3, 71, 127
1, 123697, Note_on_c, 7, 66, 0
1, 123697, Note_on_c, 7, 62, 100
1, 123727, Note_on_c, 3, 71, 0
1, 123727, Note_on_c, 3, 69, 127
1, 123727, Note_on_c, 7, 62, 0
1, 123727, Note_on_c, 7, 61, 100
1, 123727, Note_on_c, 7, 50, 0
1, 123727, Note_on_c, 7, 52, 100
1, 123787, Note_on_c, 7, 61, 0
1, 123787, Note_on_c, 7, 64, 100
1, 123847, Note_on_c, 3, 69, 0
1, 123847, Note_on_c, 3, 73, 127
1, 123847, Note_on_c, 7, 64, 0
1, 123847, Note_on_c, 7, 62, 100
1, 123847, Note_on_c, 7, 56, 100
1, 123847, Note_on_c, 7, 52, 0
1, 123847, Note_on_c, 7, 52, 100
1, 123907, Note_on_c, 3, 73, 0
1, 123907, Note_on_c, 3, 71, 127
1, 123907, Note_on_c, 7, 62, 0
1, 123907, Note_on_c, 7, 64, 100
1, 123967, Note_on_c, 3, 71, 0
1, 123967, Note_on_c, 3, 69, 127
1, 123967, Note_on_c, 7, 64, 0
1, 123967, Note_on_c, 7, 61, 100
1, 123967, Note_on_c, 7, 56, 0
1, 123967, Note_on_c, 7, 57, 100
1, 123967, Note_on_c, 7, 52, 0
1, 123997, Note_on_c, 7, 61, 0
1, 124027, Note_on_c, 5, 64, 80
1, 124027, Note_on_c, 5, 61, 80
1, 124027, Note_on_c, 7, 64, 100
1, 124057, Note_on_c, 7, 64, 0
1, 124087, Note_on_c, 3, 69, 0
1, 124087, Note_on_c, 7, 69, 100
1, 124087, Note_on_c, 7, 57, 0
1, 124117, Note_on_c, 7, 69, 0
1, 124147, Note_on_c, 5, 64, 0
1, 124147, Note_on_c, 5, 62, 80
1, 124147, Note_on_c, 5, 61, 0
1, 124147, Note_on_c, 5, 59, 80
1, 124147, Note_on_c, 7, 71, 100
1, 124157, Note_on_c, 7, 71, 0
1, 124157, Note_on_c, 7, 73, 100
1, 124167, Note_on_c, 7, 73, 0
1, 124167, Note_on_c, 7, 71, 100
1, 124177, Note_on_c, 7, 71, 0
1, 124177, Note_on_c, 7, 69, 100
1, 124192, Note_on_c, 7, 69, 0
1, 124192, Note_on_c, 7, 71, 100
1, 124207, Note_on_c, 5, 62, 0
1, 124207, Note_on_c, 5, 61, 80
1, 124207, Note_on_c, 5, 59, 0
1, 124207, Note_on_c, 5, 57, 80
1, 124207, Note_on_c, 7, 71, 0
1, 124207, Note_on_c, 7, 73, 100
1, 124237, Note_on_c, 5, 61, 0
1, 124237, Note_on_c, 5, 57, 0
1, 124237, Note_on_c, 7, 73, 0
1, 124267, Note_on_c, 5, 61, 80
1, 124267, Note_on_c, 5, 52, 80
1, 124267, Note_on_c, 7, 69, 100
1, 124267, Note_on_c, 7, 64, 100
1, 124297, Note_on_c, 7, 69, 0
1, 124297, Note_on_c, 7, 64, 0
1, 124327, Note_on_c, 7, 73, 100
1, 124327, Note_on_c, 7, 69, 100
1, 124357, Note_on_c, 7, 73, 0
1, 124357, Note_on_c, 7, 69, 0
1, 124387, Note_on_c, 5, 61, 0
1, 124387, Note_on_c, 5, 59, 80
1, 124387, Note_on_c, 5, 52, 0
1, 124387, Note_on_c, 5, 50, 80
1, 124387, Note_on_c, 7, 73, 100
1, 124387, Note_on_c, 7, 71, 100
1, 124397, Note_on_c, 7, 73, 0
1, 124397, Note_on_c, 7, 74, 100
1, 124397, Note_on_c, 7, 71, 0
1, 124397, Note_on_c, 7, 73, 100
1, 124407, Note_on_c, 7, 74, 0
1, 124407, Note_on_c, 7, 71, 100
1, 124417, Note_on_c, 7, 73, 0
1, 124417, Note_on_c, 7, 76, 100
1, 124417, Note_on_c, 7, 71, 0
1, 124417, Note_on_c, 7, 69, 100
1, 124432, Note_on_c, 7, 76, 0
1, 124432, Note_on_c, 7, 74, 100
1, 124432, Note_on_c, 7, 69, 0
1, 124432, Note_on_c, 7, 71, 100
1, 124447, Note_on_c, 3, 69, 127
1, 124447, Note_on_c, 5, 59, 0
1, 124447, Note_on_c, 5, 57, 80
1, 124447, Note_on_c, 5, 50, 0
1, 124447, Note_on_c, 5, 49, 80
1, 124447, Note_on_c, 7, 74, 0
1, 124447, Note_on_c, 7, 76, 100
1, 124447, Note_on_c, 7, 71, 0
1, 124447, Note_on_c, 7, 73, 100
1, 124447, Note_on_c, 7, 61, 100
1, 124447, Note_on_c, 7, 64, 100
1, 124447, Note_on_c, 7, 45, 100
1, 124447, Note_on_c, 7, 33, 100
1, 124507, Note_on_c, 7, 45, 0
1, 124507, Note_on_c, 7, 33, 0
1, 124567, Note_on_c, 5, 57, 0
1, 124567, Note_on_c, 5, 49, 0
1, 124567, Note_on_c, 7, 57, 100
1, 124567, Note_on_c, 7, 45, 100
1, 124627, Note_on_c, 7, 57, 0
1, 124627, Note_on_c, 7, 45, 0
1, 124687, Note_on_c, 7, 76, 0
1, 124687, Note_on_c, 7, 69, 100
1, 124687, Note_on_c, 7, 61, 0
1, 124687, Note_on_c, 7, 64, 0
1, 124687, Note_on_c, 7, 57, 100
1, 124687, Note_on_c, 7, 61, 100
1, 124687, Note_on_c, 7, 45, 100
1, 124687, Note_on_c, 7, 33, 100
1, 124747, Note_on_c, 7, 45, 0
1, 124747, Note_on_c, 7, 33, 0
1, 124807, Note_on_c, 7, 45, 100
1, 124867, Note_on_c, 7, 73, 0
1, 124867, Note_on_c, 7, 74, 100
1, 124867, Note_on_c, 7, 69, 0
1, 124867, Note_on_c, 7, 71, 100
1, 124867, Note_on_c, 7, 61, 0
1, 124867, Note_on_c, 7, 59, 100
1, 124867, Note_on_c, 7, 62, 100
1, 124867, Note_on_c, 7, 57, 0
1, 124867, Note_on_c, 7, 45, 0
1, 124927, Note_on_c, 7, 74, 0
1, 124927, Note_on_c, 7, 78, 100
1, 124927, Note_on_c, 7, 71, 0
1, 124927, Note_on_c, 7, 74, 100
1, 124927, Note_on_c, 7, 59, 0
1, 124927, Note_on_c, 7, 62, 0
1, 124927, Note_on_c, 7, 62, 100
1, 124927, Note_on_c, 7, 66, 100
1, 124927, Note_on_c, 7, 45, 100
1, 124927, Note_on_c, 7, 33, 100
1, 124957, Note_on_c, 3, 69, 0
1, 124957, Note_on_c, 3, 71, 127
1, 124987, Note_on_c, 3, 71, 0
1, 124987, Note_on_c, 3, 73, 127
1, 124987, Note_on_c, 7, 78, 0
1, 124987, Note_on_c, 7, 76, 100
1, 124987, Note_on_c, 7, 74, 0
1, 124987, Note_on_c, 7, 73, 100
1, 124987, Note_on_c, 7, 62, 0
1, 124987, Note_on_c, 7, 66, 0
1, 124987, Note_on_c, 7, 61, 100
1, 124987, Note_on_c, 7, 64, 100
1, 124987, Note_on_c, 7, 45, 0
1, 124987, Note_on_c, 7, 33, 0
1, 125017, Note_on_c, 3, 73, 0
1, 125017, Note_on_c, 3, 74, 127
1, 125047, Note_on_c, 3, 74, 0
1, 125047, Note_on_c, 3, 76, 127
1, 125047, Note_on_c, 7, 76, 0
1, 125047, Note_on_c, 7, 74, 100
1, 125047, Note_on_c, 7, 73, 0
1, 125047, Note_on_c, 7, 71, 100
1, 125047, Note_on_c, 7, 61, 0
1, 125047, Note_on_c, 7, 64, 0
1, 125047, Note_on_c, 7, 59, 100
1, 125047, Note_on_c, 7, 62, 100
1, 125047, Note_on_c, 7, 57, 100
1, 125047, Note_on_c, 7, 45, 100
1, 125077, Note_on_c, 3, 76, 0
1, 125077, Note_on_c, 3, 78, 127
1, 125077, Note_on_c, 7, 74, 0
1, 125077, Note_on_c, 7, 71, 0
1, 125077, Note_on_c, 7, 59, 0
1, 125077, Note_on_c, 7, 62, 0
1, 125107, Note_on_c, 3, 78, 0
1, 125107, Note_on_c, 3, 80, 127
1, 125107, Note_on_c, 7, 73, 100
1, 125107, Note_on_c, 7, 69, 100
1, 125107, Note_on_c, 7, 61, 100
1, 125107, Note_on_c, 7, 45, 0
1, 125137, Note_on_c, 3, 80, 0
1, 125137, Note_on_c, 3, 81, 127
1, 125137, Note_on_c, 7, 73, 0
1, 125137, Note_on_c, 7, 69, 0
1, 125137, Note_on_c, 7, 57, 0
1, 125137, Note_on_c, 7, 61, 0
1, 125167, Note_on_c, 3, 81, 0
1, 125167, Note_on_c, 3, 80, 127
1, 125167, Note_on_c, 7, 73, 100
1, 125167, Note_on_c, 7, 69, 100
1, 125167, Note_on_c, 7, 57, 100
1, 125167, Note_on_c, 7, 61, 100
1, 125167, Note_on_c, 7, 45, 100
1, 125167, Note_on_c, 7, 33, 100
1, 125197, Note_on_c, 3, 80, 0
1, 125197, Note_on_c, 3, 81, 127
1, 125227, Note_on_c, 3, 81, 0
1, 125227, Note_on_c, 3, 80, 127
1, 125227, Note_on_c, 7, 45, 0
1, 125227, Note_on_c, 7, 33, 0
1, 125257, Note_on_c, 3, 80, 0
1, 125257, Note_on_c, 3, 81, 127
1, 125287, Note_on_c, 3, 81, 0
1, 125287, Note_on_c, 3, 80, 127
1, 125287, Note_on_c, 7, 73, 0
1, 125287, Note_on_c, 7, 69, 0
1, 125287, Note_on_c, 7, 57, 0
1, 125287, Note_on_c, 7, 61, 0
1, 125287, Note_on_c, 7, 57, 100
1, 125287, Note_on_c, 7, 45, 100
1, 125317, Note_on_c, 3, 80, 0
1, 125317, Note_on_c, 3, 81, 127
1, 125347, Note_on_c, 3, 81, 0
1, 125347, Note_on_c, 3, 80, 127
1, 125347, Note_on_c, 7, 57, 0
1, 125347, Note_on_c, 7, 45, 0
1, 125377, Note_on_c, 3, 80, 0
1, 125377, Note_on_c, 3, 81, 127
1, 125407, Note_on_c, 3, 81, 0
1, 125407, Note_on_c, 3, 77, 127
1, 125407, Note_on_c, 7, 74, 100
1, 125407, Note_on_c, 7, 66, 100
1, 125407, Note_on_c, 7, 59, 100
1, 125407, Note_on_c, 7, 50, 100
1, 125407, Note_on_c, 7, 38, 100
1, 125437, Note_on_c, 3, 77, 0
1, 125437, Note_on_c, 3, 78, 127
1, 125467, Note_on_c, 3, 78, 0
1, 125467, Note_on_c, 3, 77, 127
1, 125497, Note_on_c, 3, 77, 0
1, 125497, Note_on_c, 3, 78, 127
1, 125527, Note_on_c, 3, 78, 0
1, 125527, Note_on_c, 3, 73, 127
1, 125527, Note_on_c, 7, 74, 0
1, 125527, Note_on_c, 7, 71, 100
1, 125527, Note_on_c, 7, 66, 0
1, 125527, Note_on_c, 7, 62, 100
1, 125527, Note_on_c, 7, 59, 0
1, 125527, Note_on_c, 7, 50, 0
1, 125527, Note_on_c, 7, 38, 0
1, 125557, Note_on_c, 3, 73, 0
1, 125557, Note_on_c, 3, 74, 127
1, 125587, Note_on_c, 3, 74, 0
1, 125587, Note_on_c, 3, 73, 127
1, 125587, Note_on_c, 7, 71, 0
1, 125587, Note_on_c, 7, 62, 0
1, 125617, Note_on_c, 3, 73, 0
1, 125617, Note_on_c, 3, 74, 127
1, 125647, Note_on_c, 3, 74, 0
1, 125647, Note_on_c, 3, 70, 127
1, 125647, Note_on_c, 7, 74, 100
1, 125647, Note_on_c, 7, 66, 100
1, 125647, Note_on_c, 7, 59, 100
1, 125647, Note_on_c, 7, 50, 100
1, 125647, Note_on_c, 7, 38, 100
1, 125677, Note_on_c, 3, 70, 0
1, 125677, Note_on_c, 3, 71, 127
1, 125707, Note_on_c, 3, 71, 0
1, 125707, Note_on_c, 3, 73, 127
1, 125737, Note_on_c, 3, 73, 0
1, 125737, Note_on_c, 3, 74, 127
1, 125767, Note_on_c, 3, 74, 0
1, 125767, Note_on_c, 3, 75, 127
1, 125767, Note_on_c, 7, 74, 0
1, 125767, Note_on_c, 7, 71, 100
1, 125767, Note_on_c, 7, 66, 0
1, 125767, Note_on_c, 7, 62, 100
1, 125767, Note_on_c, 7, 59, 0
1, 125767, Note_on_c, 7, 50, 0
1, 125767, Note_on_c, 7, 38, 0
1, 125797, Note_on_c, 3, 75, 0
1, 125797, Note_on_c, 3, 76, 127
1, 125827, Note_on_c, 3, 76, 0
1, 125827, Note_on_c, 3, 77, 127
1, 125827, Note_on_c, 7, 71, 0
1, 125827, Note_on_c, 7, 62, 0
1, 125857, Note_on_c, 3, 77, 0
1, 125857, Note_on_c, 3, 78, 127
1, 125887, Note_on_c, 3, 78, 0
1, 125887, Note_on_c, 3, 69, 127
1, 125887, Note_on_c, 7, 69, 100
1, 125887, Note_on_c, 7, 61, 100
1, 125887, Note_on_c, 7, 64, 100
1, 125947, Note_on_c, 7, 52, 100
1, 125947, Note_on_c, 7, 40, 100
1, 125977, Note_on_c, 7, 52, 0
1, 125977, Note_on_c, 7, 40, 0
1, 126007, Note_on_c, 7, 52, 100
1, 126007, Note_on_c, 7, 40, 100
1, 126037, Note_on_c, 7, 52, 0
1, 126037, Note_on_c, 7, 40, 0
1, 126067, Note_on_c, 3, 69, 0
1, 126067, Note_on_c, 3, 71, 127
1, 126067, Note_on_c, 7, 52, 100
1, 126067, Note_on_c, 7, 40, 100
1, 126097, Note_on_c, 3, 71, 0
1, 126097, Note_on_c, 3, 69, 127
1, 126097, Note_on_c, 7, 52, 0
1, 126097, Note_on_c, 7, 40, 0
1, 126127, Note_on_c, 3, 69, 0
1, 126127, Note_on_c, 3, 68, 127
1, 126127, Note_on_c, 7, 69, 0
1, 126127, Note_on_c, 7, 68, 100
1, 126127, Note_on_c, 7, 61, 0
1, 126127, Note_on_c, 7, 59, 100
1, 126127, Note_on_c, 7, 52, 100
1, 126127, Note_on_c, 7, 40, 100
1, 126187, Note_on_c, 7, 52, 0
1, 126187, Note_on_c, 7, 56, 100
1, 126187, Note_on_c, 7, 40, 0
1, 126187, Note_on_c, 7, 44, 100
1, 126247, Note_on_c, 3, 68, 0
1, 126247, Note_on_c, 7, 68, 0
1, 126247, Note_on_c, 7, 59, 0
1, 126247, Note_on_c, 7, 64, 0
1, 126247, Note_on_c, 7, 56, 0
1, 126247, Note_on_c, 7, 59, 100
1, 126247, Note_on_c, 7, 44, 0
1, 126247, Note_on_c, 7, 47, 100
1, 126307, Note_on_c, 7, 59, 0
1, 126307, Note_on_c, 7, 56, 100
1, 126307, Note_on_c, 7, 47, 0
1, 126307, Note_on_c, 7, 44, 100
1, 126367, Note_on_c, 3, 76, 127
1, 126367, Note_on_c, 7, 59, 100
1, 126367, Note_on_c, 7, 52, 100
1, 126367, Note_on_c, 7, 44, 0
1, 126367, Note_on_c, 7, 40, 100
1, 126397, Note_on_c, 3, 76, 0
1, 126397, Note_on_c, 3, 74, 127
1, 126427, Note_on_c, 3, 74, 0
1, 126427, Note_on_c, 3, 71, 127
1, 126442, Note_on_c, 3, 71, 0
1, 126457, Note_on_c, 3, 68, 127
1, 126472, Note_on_c, 3, 68, 0
1, 126487, Note_on_c, 3, 64, 127
1, 126487, Note_on_c, 7, 59, 0
1, 126487, Note_on_c, 7, 56, 0
1, 126487, Note_on_c, 7, 52, 0
1, 126487, Note_on_c, 7, 40, 0
1, 126502, Note_on_c, 3, 64, 0
1, 126517, Note_on_c, 3, 62, 127
1, 126532, Note_on_c, 3, 62, 0
1, 126547, Note_on_c, 3, 59, 127
1, 126562, Note_on_c, 3, 59, 0
1, 126577, Note_on_c, 3, 56, 127
1, 126592, Note_on_c, 3, 56, 0
1, 126607, Note_on_c, 3, 52, 127
1, 126667, Note_on_c, 7, 64, 100
1, 126667, Note_on_c, 7, 56, 100
1, 126727, Note_on_c, 7, 64, 0
1, 126727, Note_on_c, 7, 64, 100
1, 126727, Note_on_c, 7, 56, 0
1, 126727, Note_on_c, 7, 56, 100
1, 126787, Note_on_c, 7, 64, 0
1, 126787, Note_on_c, 7, 64, 100
1, 126787, Note_on_c, 7, 56, 0
1, 126787, Note_on_c, 7, 56, 100
1, 126847, Note_on_c, 3, 52, 0
1, 126847, Note_on_c, 3, 50, 127
1, 126847, Note_on_c, 7, 64, 0
1, 126847, Note_on_c, 7, 56, 0
1, 126847, Note_on_c, 7, 54, 100
1, 126847, Note_on_c, 7, 42, 100
1, 126907, Note_on_c, 7, 62, 100
1, 126907, Note_on_c, 7, 57, 100
1, 126967, Note_on_c, 7, 62, 0
1, 126967, Note_on_c, 7, 62, 100
1, 126967, Note_on_c, 7, 57, 0
1, 126967, Note_on_c, 7, 57, 100
1, 127027, Note_on_c, 7, 62, 0
1, 127027, Note_on_c, 7, 62, 100
1, 127027, Note_on_c, 7, 57, 0
1, 127027, Note_on_c, 7, 57, 100
1, 127087, Note_on_c, 3, 50, 0
1, 127087, Note_on_c, 3, 80, 127
1, 127087, Note_on_c, 7, 62, 0
1, 127087, Note_on_c, 7, 57, 0
1, 127087, Note_on_c, 7, 54, 0
1, 127087, Note_on_c, 7, 50, 100
1, 127087, Note_on_c, 7, 42, 0
1, 127087, Note_on_c, 7, 38, 100
1, 127147, Note_on_c, 7, 71, 100
1, 127147, Note_on_c, 7, 68, 100
1, 127147, Note_on_c, 7, 64, 100
1, 127207, Note_on_c, 7, 71, 0
1, 127207, Note_on_c, 7, 71, 100
1, 127207, Note_on_c, 7, 68, 0
1, 127207, Note_on_c, 7, 68, 100
1, 127207, Note_on_c, 7, 64, 0
1, 127207, Note_on_c, 7, 64, 100
1, 127267, Note_on_c, 7, 71, 0
1, 127267, Note_on_c, 7, 71, 100
1, 127267, Note_on_c, 7, 68, 0
1, 127267, Note_on_c, 7, 68, 100
1, 127267, Note_on_c, 7, 64, 0
1, 127267, Note_on_c, 7, 64, 100
1, 127327, Note_on_c, 3, 80, 0
1, 127327, Note_on_c, 3, 81, 127
1, 127327, Note_on_c, 7, 71, 0
1, 127327, Note_on_c, 7, 73, 100
1, 127327, Note_on_c, 7, 68, 0
1, 127327, Note_on_c, 7, 69, 100
1, 127327, Note_on_c, 7, 64, 0
1, 127327, Note_on_c, 7, 64, 100
1, 127327, Note_on_c, 7, 50, 0
1, 127327, Note_on_c, 7, 49, 100
1, 127327, Note_on_c, 7, 38, 0
1, 127327, Note_on_c, 7, 37, 100
1, 127387, Note_on_c, 3, 81, 0
1, 127387, Note_on_c, 3, 73, 127
1, 127447, Note_on_c, 3, 73, 0
1, 127447, Note_on_c, 3, 74, 127
1, 127447, Note_on_c, 7, 73, 0
1, 127447, Note_on_c, 7, 69, 0
1, 127447, Note_on_c, 7, 64, 0
1, 127447, Note_on_c, 7, 49, 0
1, 127447, Note_on_c, 7, 37, 0
1, 127507, Note_on_c, 3, 74, 0
1, 127507, Note_on_c, 3, 75, 127
1, 127567, Note_on_c, 3, 75, 0
1, 127567, Note_on_c, 3, 76, 127
1, 127627, Note_on_c, 3, 76, 0
1, 127627, Note_on_c, 3, 68, 127
1, 127687, Note_on_c, 3, 68, 0
1, 127687, Note_on_c, 3, 69, 127
1, 127747, Note_on_c, 3, 69, 0
1, 127747, Note_on_c, 3, 70, 127
1, 127807, Note_on_c, 3, 70, 0
1, 127807, Note_on_c, 3, 71, 127
1, 127927, Note_on_c, 7, 69, 100
1, 127927, Note_on_c, 7, 66, 100
1, 127927, Note_on_c, 7, 63, 100
1, 128047, Note_on_c, 7, 66, 0
1, 128047, Note_on_c, 7, 64, 100
1, 128047, Note_on_c, 7, 63, 0
1, 128167, Note_on_c, 3, 71, 0
1, 128167, Note_on_c, 3, 73, 127
1, 128167, Note_on_c, 7, 69, 0
1, 128167, Note_on_c, 7, 68, 100
1, 128167, Note_on_c, 7, 52, 100
1, 128227, Note_on_c, 3, 73, 0
1, 128227, Note_on_c, 3, 74, 127
1, 128287, Note_on_c, 3, 74, 0
1, 128287, Note_on_c, 3, 73, 127
1, 128287, Note_on_c, 7, 68, 0
1, 128287, Note_on_c, 7, 69, 100
1, 128287, Note_on_c, 7, 64, 0
1, 128287, Note_on_c, 7, 64, 100
1, 128287, Note_on_c, 7, 52, 0
1, 128287, Note_on_c, 7, 57, 100
1, 128287, Note_on_c, 7, 45, 100
1, 128317, Note_on_c, 3, 73, 0
1, 128317, Note_on_c, 3, 81, 127
1, 128347, Note_on_c, 3, 81, 0
1, 128347, Note_on_c, 3, 76, 127
1, 128347, Note_on_c, 7, 69, 0
1, 128347, Note_on_c, 7, 69, 100
1, 128347, Note_on_c, 7, 64, 0
1, 128347, Note_on_c, 7, 64, 100
1, 128347, Note_on_c, 7, 61, 100
1, 128362, Note_on_c, 3, 76, 0
1, 128377, Note_on_c, 3, 73, 127
1, 128392, Note_on_c, 3, 73, 0
1, 128407, Note_on_c, 3, 69, 127
1, 128407, Note_on_c, 7, 69, 0
1, 128407, Note_on_c, 7, 69, 100
1, 128407, Note_on_c, 7, 64, 0
1, 128407, Note_on_c, 7, 64, 100
1, 128407, Note_on_c, 7, 61, 0
1, 128407, Note_on_c, 7, 61, 100
1, 128407, Note_on_c, 7, 57, 0
1, 128407, Note_on_c, 7, 45, 0
1, 128422, Note_on_c, 3, 69, 0
1, 128437, Note_on_c, 3, 64, 127
1, 128452, Note_on_c, 3, 64, 0
1, 128467, Note_on_c, 3, 61, 127
1, 128467, Note_on_c, 7, 69, 0
1, 128467, Note_on_c, 7, 69, 100
1, 128467, Note_on_c, 7, 64, 0
1, 128467, Note_on_c, 7, 64, 100
1, 128467, Note_on_c, 7, 61, 0
1, 128467, Note_on_c, 7, 61, 100
1, 128482, Note_on_c, 3, 61, 0
1, 128497, Note_on_c, 3, 57, 127
1, 128512, Note_on_c, 3, 57, 0
1, 128527, Note_on_c, 3, 54, 127
1, 128527, Note_on_c, 7, 69, 0
1, 128527, Note_on_c, 7, 64, 0
1, 128527, Note_on_c, 7, 61, 0
1, 128527, Note_on_c, 7, 50, 100
1, 128527, Note_on_c, 7, 38, 100
1, 128557, Note_on_c, 3, 54, 0
1, 128557, Note_on_c, 3, 57, 127
1, 128587, Note_on_c, 3, 57, 0
1, 128587, Note_on_c, 3, 62, 127
1, 128587, Note_on_c, 7, 69, 100
1, 128587, Note_on_c, 7, 66, 100
1, 128587, Note_on_c, 7, 62, 100
1, 128617, Note_on_c, 3, 62, 0
1, 128617, Note_on_c, 3, 66, 127
1, 128647, Note_on_c, 3, 66, 0
1, 128647, Note_on_c, 3, 69, 127
1, 128647, Note_on_c, 7, 69, 0
1, 128647, Note_on_c, 7, 69, 100
1, 128647, Note_on_c, 7, 66, 0
1, 128647, Note_on_c, 7, 66, 100
1, 128647, Note_on_c, 7, 62, 0
1, 128647, Note_on_c, 7, 62, 100
1, 128647, Note_on_c, 7, 50, 0
1, 128647, Note_on_c, 7, 38, 0
1, 128677, Note_on_c, 3, 69, 0
1, 128677, Note_on_c, 3, 74, 127
1, 128707, Note_on_c, 3, 74, 0
1, 128707, Note_on_c, 3, 78, 127
1, 128707, Note_on_c, 7, 69, 0
1, 128707, Note_on_c, 7, 69, 100
1, 128707, Note_on_c, 7, 66, 0
1, 128707, Note_on_c, 7, 66, 100
1, 128707, Note_on_c, 7, 62, 0
1, 128707, Note_on_c, 7, 62, 100
1, 128737, Note_on_c, 3, 78, 0
1, 128737, Note_on_c, 3, 81, 127
1, 128767, Note_on_c, 3, 81, 0
1, 128767, Note_on_c, 3, 75, 127
1, 128767, Note_on_c, 7, 69, 0
1, 128767, Note_on_c, 7, 66, 0
1, 128767, Note_on_c, 7, 62, 0
1, 128767, Note_on_c, 7, 49, 100
1, 128767, Note_on_c, 7, 37, 100
1, 128797, Note_on_c, 3, 75, 0
1, 128797, Note_on_c, 3, 76, 127
1, 128827, Note_on_c, 3, 76, 0
1, 128827, Note_on_c, 3, 78, 127
1, 128827, Note_on_c, 7, 69, 100
1, 128827, Note_on_c, 7, 64, 100
1, 128827, Note_on_c, 7, 57, 100
1, 128857, Note_on_c, 3, 78, 0
1, 128857, Note_on_c, 3, 76, 127
1, 128887, Note_on_c, 3, 76, 0
1, 128887, Note_on_c, 3, 74, 127
1, 128887, Note_on_c, 7, 69, 0
1, 128887, Note_on_c, 7, 69, 100
1, 128887, Note_on_c, 7, 64, 0
1, 128887, Note_on_c, 7, 61, 100
1, 128887, Note_on_c, 7, 57, 0
1, 128887, Note_on_c, 7, 57, 100
1, 128887, Note_on_c, 7, 49, 0
1, 128887, Note_on_c, 7, 54, 100
1, 128887, Note_on_c, 7, 37, 0
1, 128887, Note_on_c, 7, 42, 100
1, 128917, Note_on_c, 3, 74, 0
1, 128917, Note_on_c, 3, 73, 127
1, 128947, Note_on_c, 3, 73, 0
1, 128947, Note_on_c, 3, 71, 127
1, 128947, Note_on_c, 7, 69, 0
1, 128947, Note_on_c, 7, 69, 100
1, 128947, Note_on_c, 7, 61, 0
1, 128947, Note_on_c, 7, 61, 100
1, 128947, Note_on_c, 7, 57, 0
1, 128947, Note_on_c, 7, 66, 100
1, 128977, Note_on_c, 3, 71, 0
1, 128977, Note_on_c, 3, 69, 127
1, 129007, Note_on_c, 3, 69, 0
1, 129007, Note_on_c, 3, 71, 127
1, 129007, Note_on_c, 7, 69, 0
1, 129007, Note_on_c, 7, 69, 100
1, 129007, Note_on_c, 7, 61, 0
1, 129007, Note_on_c, 7, 59, 100
1, 129007, Note_on_c, 7, 66, 0
1, 129007, Note_on_c, 7, 66, 100
1, 129007, Note_on_c, 7, 54, 0
1, 129007, Note_on_c, 7, 50, 100
1, 129007, Note_on_c, 7, 42, 0
1, 129007, Note_on_c, 7, 38, 100
1, 129022, Note_on_c, 3, 71, 0
1, 129022, Note_on_c, 3, 73, 127
1, 129037, Note_on_c, 3, 73, 0
1, 129037, Note_on_c, 3, 71, 127
1, 129052, Note_on_c, 3, 71, 0
1, 129052, Note_on_c, 3, 73, 127
1, 129067, Note_on_c, 3, 73, 0
1, 129067, Note_on_c, 3, 71, 127
1, 129067, Note_on_c, 7, 69, 0
1, 129067, Note_on_c, 7, 69, 100
1, 129067, Note_on_c, 7, 59, 0
1, 129067, Note_on_c, 7, 59, 100
1, 129067, Note_on_c, 7, 66, 0
1, 129067, Note_on_c, 7, 66, 100
1, 129082, Note_on_c, 3, 71, 0
1, 129082, Note_on_c, 3, 73, 127
1, 129097, Note_on_c, 3, 73, 0
1, 129097, Note_on_c, 3, 71, 127
1, 129112, Note_on_c, 3, 71, 0
1, 129112, Note_on_c, 3, 73, 127
1, 129127, Note_on_c, 3, 73, 0
1, 129127, Note_on_c, 3, 71, 127
1, 129127, Note_on_c, 7, 69, 0
1, 129127, Note_on_c, 7, 68, 100
1, 129127, Note_on_c, 7, 59, 0
1, 129127, Note_on_c, 7, 59, 100
1, 129127, Note_on_c, 7, 66, 0
1, 129127, Note_on_c, 7, 64, 100
1, 129127, Note_on_c, 7, 50, 0
1, 129127, Note_on_c, 7, 52, 100
1, 129127, Note_on_c, 7, 38, 0
1, 129127, Note_on_c, 7, 40, 100
1, 129142, Note_on_c, 3, 71, 0
1, 129142, Note_on_c, 3, 73, 127
1, 129157, Note_on_c, 3, 73, 0
1, 129157, Note_on_c, 3, 71, 127
1, 129172, Note_on_c, 3, 71, 0
1, 129172, Note_on_c, 3, 73, 127
1, 129187, Note_on_c, 3, 73, 0
1, 129187, Note_on_c, 3, 71, 127
1, 129187, Note_on_c, 7, 68, 0
1, 129187, Note_on_c, 7, 68, 100
1, 129187, Note_on_c, 7, 59, 0
1, 129187, Note_on_c, 7, 59, 100
1, 129187, Note_on_c, 7, 64, 0
1, 129187, Note_on_c, 7, 62, 100
1, 129202, Note_on_c, 3, 71, 0
1, 129202, Note_on_c, 3, 73, 127
1, 129217, Note_on_c, 3, 73, 0
1, 129217, Note_on_c, 3, 69, 127
1, 129232, Note_on_c, 3, 69, 0
1, 129232, Note_on_c, 3, 71, 127
1, 129247, Note_on_c, 3, 71, 0
1, 129247, Note_on_c, 3, 69, 127
1, 129247, Note_on_c, 4, 81, 80
1, 129247, Note_on_c, 4, 73, 80
1, 129247, Note_on_c, 5, 64, 80
1, 129247, Note_on_c, 5, 61, 80
1, 129247, Note_on_c, 6, 45, 80
1, 129247, Note_on_c, 7, 68, 0
1, 129247, Note_on_c, 7, 69, 100
1, 129247, Note_on_c, 7, 59, 0
1, 129247, Note_on_c, 7, 57, 100
1, 129247, Note_on_c, 7, 62, 0
1, 129247, Note_on_c, 7, 61, 100
1, 129247, Note_on_c, 7, 52, 0
1, 129247, Note_on_c, 7, 45, 100
1, 129247, Note_on_c, 7, 40, 0
1, 129247, Note_on_c, 7, 33, 100
1, 129307, Note_on_c, 7, 69, 0
1, 129307, Note_on_c, 7, 57, 0
1, 129307, Note_on_c, 7, 69, 100
1, 129307, Note_on_c, 7, 45, 0
1, 129307, Note_on_c, 7, 57, 100
1, 129307, Note_on_c, 7, 33, 0
1, 129307, Note_on_c, 7, 45, 100
1, 129337, Note_on_c, 7, 64, 100
1, 129337, Note_on_c, 7, 61, 0
1, 129337, Note_on_c, 7, 69, 0
1, 129337, Note_on_c, 7, 57, 0
1, 129337, Note_on_c, 7, 45, 0
1, 129367, Note_on_c, 3, 69, 0
1, 129367, Note_on_c, 4, 81, 0
1, 129367, Note_on_c, 4, 81, 80
1, 129367, Note_on_c, 4, 73, 0
1, 129367, Note_on_c, 4, 73, 80
1, 129367, Note_on_c, 5, 64, 0
1, 129367, Note_on_c, 5, 64, 80
1, 129367, Note_on_c, 5, 61, 0
1, 129367, Note_on_c, 5, 61, 80
1, 129367, Note_on_c, 7, 69, 100
1, 129367, Note_on_c, 7, 64, 0
1, 129367, Note_on_c, 7, 73, 100
1, 129367, Note_on_c, 7, 61, 100
1, 129367, Note_on_c, 7, 49, 100
1, 129397, Note_on_c, 7, 64, 100
1, 129397, Note_on_c, 7, 69, 0
1, 129397, Note_on_c, 7, 73, 0
1, 129397, Note_on_c, 7, 61, 0
1, 129397, Note_on_c, 7, 49, 0
1, 129427, Note_on_c, 7, 69, 100
1, 129427, Note_on_c, 7, 64, 0
1, 129427, Note_on_c, 7, 57, 100
1, 129427, Note_on_c, 7, 45, 100
1, 129457, Note_on_c, 4, 81, 0
1, 129457, Note_on_c, 4, 81, 80
1, 129457, Note_on_c, 4, 73, 0
1, 129457, Note_on_c, 4, 73, 80
1, 129457, Note_on_c, 5, 64, 0
1, 129457, Note_on_c, 5, 64, 80
1, 129457, Note_on_c, 5, 61, 0
1, 129457, Note_on_c, 5, 61, 80
1, 129457, Note_on_c, 7, 64, 100
1, 129457, Note_on_c, 7, 69, 0
1, 129457, Note_on_c, 7, 57, 0
1, 129457, Note_on_c, 7, 45, 0
1, 129487, Note_on_c, 4, 81, 0
1, 129487, Note_on_c, 4, 81, 80
1, 129487, Note_on_c, 4, 73, 0
1, 129487, Note_on_c, 4, 73, 80
1, 129487, Note_on_c, 5, 64, 0
1, 129487, Note_on_c, 5, 64, 80
1, 129487, Note_on_c, 5, 61, 0
1, 129487, Note_on_c, 5, 61, 80
1, 129487, Note_on_c, 7, 73, 100
1, 129487, Note_on_c, 7, 64, 0
1, 129487, Note_on_c, 7, 64, 100
1, 129487, Note_on_c, 7, 52, 100
1, 129487, Note_on_c, 7, 40, 100
1, 129517, Note_on_c, 7, 69, 100
1, 129517, Note_on_c, 7, 73, 0
1, 129517, Note_on_c, 7, 64, 0
1, 129517, Note_on_c, 7, 52, 0
1, 129517, Note_on_c, 7, 40, 0
1, 129547, Note_on_c, 4, 81, 0
1, 129547, Note_on_c, 4, 81, 80
1, 129547, Note_on_c, 4, 73, 0
1, 129547, Note_on_c, 4, 73, 80
1, 129547, Note_on_c, 5, 64, 0
1, 129547, Note_on_c, 5, 64, 80
1, 129547, Note_on_c, 5, 61, 0
1, 129547, Note_on_c, 5, 61, 80
1, 129547, Note_on_c, 7, 73, 100
1, 129547, Note_on_c, 7, 69, 0
1, 129547, Note_on_c, 7, 69, 100
1, 129547, Note_on_c, 7, 57, 100
1, 129547, Note_on_c, 7, 45, 100
1, 129577, Note_on_c, 7, 73, 0
1, 129577, Note_on_c, 7, 57, 0
1, 129577, Note_on_c, 7, 45, 0
1, 129607, Note_on_c, 4, 81, 0
1, 129607, Note_on_c, 4, 81, 80
1, 129607, Note_on_c, 4, 73, 0
1, 129607, Note_on_c, 4, 73, 80
1, 129607, Note_on_c, 5, 64, 0
1, 129607, Note_on_c, 5, 64, 80
1, 129607, Note_on_c, 5, 61, 0
1, 129607, Note_on_c, 5, 61, 80
1, 129607, Note_on_c, 7, 76, 100
1, 129607, Note_on_c, 7, 69, 0
1, 129607, Note_on_c, 7, 61, 100
1, 129607, Note_on_c, 7, 49, 100
1, 129607, Note_on_c, 7, 37, 100
1, 129637, Note_on_c, 7, 73, 100
1, 129637, Note_on_c, 7, 76, 0
1, 129637, Note_on_c, 7, 61, 0
1, 129637, Note_on_c, 7, 49, 0
1, 129637, Note_on_c, 7, 37, 0
1, 129667, Note_on_c, 4, 81, 0
1, 129667, Note_on_c, 4, 81, 80
1, 129667, Note_on_c, 4, 73, 0
1, 129667, Note_on_c, 4, 73, 80
1, 129667, Note_on_c, 5, 64, 0
1, 129667, Note_on_c, 5, 64, 80
1, 129667, Note_on_c, 5, 61, 0
1, 129667, Note_on_c, 5, 61, 80
1, 129667, Note_on_c, 7, 76, 100
1, 129667, Note_on_c, 7, 73, 0
1, 129667, Note_on_c, 7, 64, 100
1, 129667, Note_on_c, 7, 52, 100
1, 129667, Note_on_c, 7, 40, 100
1, 129697, Note_on_c, 7, 73, 100
1, 129697, Note_on_c, 7, 76, 0
1, 129697, Note_on_c, 7, 64, 0
1, 129697, Note_on_c, 7, 52, 0
1, 129697, Note_on_c, 7, 40, 0
1, 129727, Note_on_c, 4, 81, 0
1, 129727, Note_on_c, 4, 81, 80
1, 129727, Note_on_c, 4, 73, 0
1, 129727, Note_on_c, 4, 73, 80
1, 129727, Note_on_c, 5, 64, 0
1, 129727, Note_on_c, 5, 64, 80
1, 129727, Note_on_c, 5, 61, 0
1, 129727, Note_on_c, 5, 61, 80
1, 129727, Note_on_c, 7, 81, 100
1, 129727, Note_on_c, 7, 73, 0
1, 129727, Note_on_c, 7, 57, 100
1, 129727, Note_on_c, 7, 45, 100
1, 129727, Note_on_c, 7, 33, 100
1, 129847, Note_on_c, 4, 81, 0
1, 129847, Note_on_c, 4, 73, 0
1, 129847, Note_on_c, 5, 64, 0
1, 129847, Note_on_c, 5, 61, 0
1, 129847, Note_on_c, 6, 45, 0
1, 129847, Note_on_c, 7, 81, 0
1, 129847, Note_on_c, 7, 57, 0
1, 129847, Note_on_c, 7, 45, 0
1, 129847, Note_on_c, 7, 33, 0
1, 129967, Note_on_c, 7, 69, 100
1, 129967, Note_on_c, 7, 61, 100
1, 129967, Note_on_c, 7, 54, 100
1, 129967, Note_on_c, 7, 42, 100
1, 130087, Note_on_c, 7, 69, 0
1, 130087, Note_on_c, 7, 61, 0
1, 130087, Note_on_c, 7, 54, 0
1, 130087, Note_on_c, 7, 42, 0
1, 130207, Note_on_c, 7, 74, 100
1, 130207, Note_on_c, 7, 66, 100
1, 130207, Note_on_c, 7, 69, 100
1, 130207, Note_on_c, 7, 59, 100
1, 130207, Note_on_c, 7, 47, 100
1, 130207, Note_on_c, 7, 35, 100
1, 130327, Note_on_c, 7, 74, 0
1, 130327, Note_on_c, 7, 66, 0
1, 130327, Note_on_c, 7, 69, 0
1, 130327, Note_on_c, 7, 59, 0
1, 130327, Note_on_c, 7, 47, 0
1, 130327, Note_on_c, 7, 35, 0
1, 130447, Note_on_c, 7, 68, 100
1, 130447, Note_on_c, 7, 62, 100
1, 130447, Note_on_c, 7, 64, 100
1, 130447, Note_on_c, 7, 59, 100
1, 130447, Note_on_c, 7, 52, 100
1, 130447, Note_on_c, 7, 40, 100
1, 130567, Note_on_c, 7, 68, 0
1, 130567, Note_on_c, 7, 62, 0
1, 130567, Note_on_c, 7, 64, 0
1, 130567, Note_on_c, 7, 59, 0
1, 130567, Note_on_c, 7, 52, 0
1, 130567, Note_on_c, 7, 40, 0
1, 130687, Note_on_c, 3, 69, 127
1, 130687, Note_on_c, 7, 69, 100
1, 130687, Note_on_c, 7, 60, 100
1, 130687, Note_on_c, 7, 64, 100
1, 130687, Note_on_c, 7, 57, 100
1, 130687, Note_on_c, 7, 45, 100
1, 130687, Note_on_c, 7, 33, 100
1, 130807, Note_on_c, 7, 69, 0
1, 130807, Note_on_c, 7, 60, 0
1, 130807, Note_on_c, 7, 64, 0
1, 130807, Note_on_c, 7, 57, 0
1, 130807, Note_on_c, 7, 45, 0
1, 130807, Note_on_c, 7, 33, 0
1, 130927, Note_on_c, 7, 72, 100
1, 130927, Note_on_c, 7, 69, 100
1, 130927, Note_on_c, 7, 65, 100
1, 131047, Note_on_c, 3, 69, 0
1, 131047, Note_on_c, 3, 71, 127
1, 131047, Note_on_c, 7, 72, 0
1, 131047, Note_on_c, 7, 69, 0
1, 131047, Note_on_c, 7, 65, 0
1, 131107, Note_on_c, 3, 71, 0
1, 131107, Note_on_c, 3, 72, 127
1, 131167, Note_on_c, 3, 72, 0
1, 131167, Note_on_c, 3, 71, 127
1, 131167, Note_on_c, 7, 77, 100
1, 131167, Note_on_c, 7, 69, 100
1, 131167, Note_on_c, 7, 62, 100
1, 131227, Note_on_c, 3, 71, 0
1, 131227, Note_on_c, 3, 74, 127
1, 131287, Note_on_c, 3, 74, 0
1, 131287, Note_on_c, 3, 77, 127
1, 131287, Note_on_c, 7, 77, 0
1, 131287, Note_on_c, 7, 69, 0
1, 131287, Note_on_c, 7, 62, 0
1, 131407, Note_on_c, 7, 71, 100
1, 131407, Note_on_c, 7, 68, 100
1, 131407, Note_on_c, 7, 64, 100
1, 131527, Note_on_c, 3, 77, 0
1, 131527, Note_on_c, 3, 76, 127
1, 131527, Note_on_c, 7, 71, 0
1, 131527, Note_on_c, 7, 68, 0
1, 131527, Note_on_c, 7, 64, 0
1, 131587, Note_on_c, 3, 76, 0
1, 131587, Note_on_c, 3, 74, 127
1, 131647, Note_on_c, 3, 74, 0
1, 131647, Note_on_c, 3, 74, 127
1, 131647, Note_on_c, 7, 72, 100
1, 131647, Note_on_c, 7, 69, 100
1, 131647, Note_on_c, 7, 57, 100
1, 131677, Note_on_c, 3, 74, 0
1, 131677, Note_on_c, 3, 72, 127
1, 131707, Note_on_c, 3, 72, 0
1, 131707, Note_on_c, 3, 71, 127
1, 131737, Note_on_c, 3, 71, 0
1, 131737, Note_on_c, 3, 69, 127
1, 131767, Note_on_c, 3, 69, 0
1, 131767, Note_on_c, 3, 69, 127
1, 131767, Note_on_c, 7, 72, 0
1, 131767, Note_on_c, 7, 69, 0
1, 131767, Note_on_c, 7, 57, 0
1, 131887, Note_on_c, 3, 69, 0
1, 131887, Note_on_c, 7, 79, 100
1, 131887, Note_on_c, 7, 72, 100
1, 131887, Note_on_c, 7, 64, 100
1, 131947, Note_on_c, 3, 72, 127
1, 132007, Note_on_c, 3, 72, 0
1, 132007, Note_on_c, 3, 74, 127
1, 132007, Note_on_c, 7, 79, 0
1, 132007, Note_on_c, 7, 72, 0
1, 132007, Note_on_c, 7, 64, 0
1, 132067, Note_on_c, 3, 74, 0
1, 132067, Note_on_c, 3, 76, 127
1, 132127, Note_on_c, 3, 76, 0
1, 132127, Note_on_c, 3, 74, 127
1, 132127, Note_on_c, 7, 81, 100
1, 132127, Note_on_c, 7, 72, 100
1, 132127, Note_on_c, 7, 65, 100
1, 132187, Note_on_c, 3, 74, 0
1, 132187, Note_on_c, 3, 77, 127
1, 132247, Note_on_c, 3, 77, 0
1, 132247, Note_on_c, 3, 81, 127
1, 132247, Note_on_c, 7, 81, 0
1, 132247, Note_on_c, 7, 72, 0
1, 132247, Note_on_c, 7, 65, 0
1, 132367, Note_on_c, 7, 74, 100
1, 132367, Note_on_c, 7, 71, 100
1, 132367, Note_on_c, 7, 67, 100
1, 132487, Note_on_c, 3, 81, 0
1, 132487, Note_on_c, 3, 79, 127
1, 132487, Note_on_c, 7, 74, 0
1, 132487, Note_on_c, 7, 71, 0
1, 132487, Note_on_c, 7, 67, 0
1, 132547, Note_on_c, 3, 79, 0
1, 132547, Note_on_c, 3, 77, 127
1, 132607, Note_on_c, 3, 77, 0
1, 132607, Note_on_c, 3, 77, 127
1, 132607, Note_on_c, 7, 76, 100
1, 132607, Note_on_c, 7, 72, 100
1, 132607, Note_on_c, 7, 60, 100
1, 132637, Note_on_c, 3, 77, 0
1, 132637, Note_on_c, 3, 76, 127
1, 132667, Note_on_c, 3, 76, 0
1, 132667, Note_on_c, 3, 74, 127
1, 132697, Note_on_c, 3, 74, 0
1, 132697, Note_on_c, 3, 72, 127
1, 132727, Note_on_c, 3, 72, 0
1, 132727, Note_on_c, 3, 72, 127
1, 132727, Note_on_c, 7, 76, 0
1, 132727, Note_on_c, 7, 72, 0
1, 132727, Note_on_c, 7, 60, 0
1, 132847, Note_on_c, 3, 72, 0
1, 132847, Note_on_c, 7, 71, 100
1, 132847, Note_on_c, 7, 64, 100
1, 132847, Note_on_c, 7, 56, 100
1, 132847, Note_on_c, 7, 44, 100
1, 132907, Note_on_c, 7, 76, 100
1, 132967, Note_on_c, 7, 76, 0
1, 132967, Note_on_c, 7, 78, 100
1, 132967, Note_on_c, 7, 71, 0
1, 132967, Note_on_c, 7, 64, 0
1, 132967, Note_on_c, 7, 56, 0
1, 132967, Note_on_c, 7, 44, 0
1, 133027, Note_on_c, 7, 78, 0
1, 133027, Note_on_c, 7, 79, 100
1, 133087, Note_on_c, 7, 79, 0
1, 133087, Note_on_c, 7, 78, 100
1, 133087, Note_on_c, 7, 72, 100
1, 133087, Note_on_c, 7, 64, 100
1, 133087, Note_on_c, 7, 57, 100
1, 133087, Note_on_c, 7, 45, 100
1, 133147, Note_on_c, 7, 78, 0
1, 133147, Note_on_c, 7, 81, 100
1, 133207, Note_on_c, 7, 81, 0
1, 133207, Note_on_c, 7, 84, 100
1, 133207, Note_on_c, 7, 72, 0
1, 133207, Note_on_c, 7, 64, 0
1, 133207, Note_on_c, 7, 57, 0
1, 133207, Note_on_c, 7, 45, 0
1, 133327, Note_on_c, 7, 66, 100
1, 133327, Note_on_c, 7, 63, 100
1, 133327, Note_on_c, 7, 59, 100
1, 133327, Note_on_c, 7, 47, 100
1, 133447, Note_on_c, 7, 84, 0
1, 133447, Note_on_c, 7, 83, 100
1, 133447, Note_on_c, 7, 66, 0
1, 133447, Note_on_c, 7, 63, 0
1, 133447, Note_on_c, 7, 59, 0
1, 133447, Note_on_c, 7, 47, 0
1, 133507, Note_on_c, 7, 83, 0
1, 133507, Note_on_c, 7, 81, 100
1, 133567, Note_on_c, 3, 74, 127
1, 133567, Note_on_c, 7, 81, 0
1, 133567, Note_on_c, 7, 81, 100
1, 133567, Note_on_c, 7, 71, 100
1, 133567, Note_on_c, 7, 64, 100
1, 133567, Note_on_c, 7, 52, 100
1, 133567, Note_on_c, 7, 40, 100
1, 133627, Note_on_c, 3, 74, 0
1, 133627, Note_on_c, 3, 76, 127
1, 133687, Note_on_c, 3, 76, 0
1, 133687, Note_on_c, 3, 77, 127
1, 133807, Note_on_c, 7, 81, 0
1, 133807, Note_on_c, 7, 80, 100
1, 133927, Note_on_c, 3, 77, 0
1, 133927, Note_on_c, 3, 76, 127
1, 133987, Note_on_c, 3, 76, 0
1, 133987, Note_on_c, 3, 74, 127
1, 134047, Note_on_c, 3, 74, 0
1, 134047, Note_on_c, 3, 73, 127
1, 134047, Note_on_c, 7, 80, 0
1, 134047, Note_on_c, 7, 79, 100
1, 134047, Note_on_c, 7, 71, 0
1, 134047, Note_on_c, 7, 73, 100
1, 134047, Note_on_c, 7, 52, 0
1, 134047, Note_on_c, 7, 57, 100
1, 134047, Note_on_c, 7, 40, 0
1, 134047, Note_on_c, 7, 45, 100
1, 134107, Note_on_c, 3, 73, 0
1, 134107, Note_on_c, 3, 76, 127
1, 134137, Note_on_c, 3, 76, 0
1, 134137, Note_on_c, 3, 79, 127
1, 134167, Note_on_c, 3, 79, 0
1, 134167, Note_on_c, 3, 82, 127
1, 134287, Note_on_c, 7, 79, 0
1, 134287, Note_on_c, 7, 76, 100
1, 134287, Note_on_c, 7, 64, 0
1, 134287, Note_on_c, 7, 69, 100
1, 134407, Note_on_c, 3, 82, 0
1, 134407, Note_on_c, 3, 81, 127
1, 134467, Note_on_c, 3, 81, 0
1, 134467, Note_on_c, 3, 79, 127
1, 134527, Note_on_c, 3, 79, 0
1, 134527, Note_on_c, 3, 79, 127
1, 134527, Note_on_c, 7, 76, 0
1, 134527, Note_on_c, 7, 74, 100
1, 134527, Note_on_c, 7, 73, 0
1, 134527, Note_on_c, 7, 57, 0
1, 134527, Note_on_c, 7, 50, 100
1, 134527, Note_on_c, 7, 45, 0
1, 134527, Note_on_c, 7, 38, 100
1, 134587, Note_on_c, 3, 79, 0
1, 134587, Note_on_c, 3, 77, 127
1, 134587, Note_on_c, 7, 74, 0
1, 134587, Note_on_c, 7, 69, 0
1, 134587, Note_on_c, 7, 50, 0
1, 134587, Note_on_c, 7, 38, 0
1, 134647, Note_on_c, 3, 77, 0
1, 134647, Note_on_c, 7, 67, 100
1, 134647, Note_on_c, 7, 61, 100
1, 134647, Note_on_c, 7, 57, 100
1, 134647, Note_on_c, 7, 52, 100
1, 134647, Note_on_c, 7, 40, 100
1, 134707, Note_on_c, 3, 76, 127
1, 134707, Note_on_c, 7, 67, 0
1, 134707, Note_on_c, 7, 61, 0
1, 134707, Note_on_c, 7, 57, 0
1, 134707, Note_on_c, 7, 52, 0
1, 134707, Note_on_c, 7, 40, 0
1, 134767, Note_on_c, 3, 76, 0
1, 134767, Note_on_c, 3, 76, 127
1, 134767, Note_on_c, 7, 65, 100
1, 134767, Note_on_c, 7, 62, 100
1, 134767, Note_on_c, 7, 57, 100
1, 134767, Note_on_c, 7, 53, 100
1, 134767, Note_on_c, 7, 41, 100
1, 134827, Note_on_c, 3, 76, 0
1, 134827, Note_on_c, 3, 74, 127
1, 134827, Note_on_c, 7, 65, 0
1, 134827, Note_on_c, 7, 62, 0
1, 134827, Note_on_c, 7, 57, 0
1, 134827, Note_on_c, 7, 53, 0
1, 134827, Note_on_c, 7, 41, 0
1, 134887, Note_on_c, 3, 74, 0
1, 134887, Note_on_c, 7, 69, 100
1, 134887, Note_on_c, 7, 64, 100
1, 134887, Note_on_c, 7, 57, 100
1, 134887, Note_on_c, 7, 52, 100
1, 134887, Note_on_c, 7, 40, 100
1, 134947, Note_on_c, 3, 72, 127
1, 134947, Note_on_c, 7, 69, 0
1, 134947, Note_on_c, 7, 64, 0
1, 134947, Note_on_c, 7, 57, 0
1, 134947, Note_on_c, 7, 52, 0
1, 134947, Note_on_c, 7, 40, 0
1, 135007, Note_on_c, 3, 72, 0
1, 135007, Note_on_c, 3, 72, 127
1, 135007, Note_on_c, 7, 69, 100
1, 135007, Note_on_c, 7, 65, 100
1, 135007, Note_on_c, 7, 62, 100
1, 135007, Note_on_c, 7, 50, 100
1, 135007, Note_on_c, 7, 38, 100
1, 135067, Note_on_c, 3, 72, 0
1, 135067, Note_on_c, 3, 71, 127
1, 135187, Note_on_c, 3, 71, 0
1, 135187, Note_on_c, 3, 72, 127
1, 135247, Note_on_c, 7, 65, 0
1, 135247, Note_on_c, 7, 66, 100
1, 135247, Note_on_c, 7, 62, 0
1, 135247, Note_on_c, 7, 59, 100
1, 135247, Note_on_c, 7, 50, 0
1, 135247, Note_on_c, 7, 51, 100
1, 135247, Note_on_c, 7, 38, 0
1, 135247, Note_on_c, 7, 39, 100
1, 135307, Note_on_c, 3, 72, 0
1, 135307, Note_on_c, 3, 71, 127
1, 135427, Note_on_c, 3, 71, 0
1, 135427, Note_on_c, 3, 69, 127
1, 135487, Note_on_c, 3, 69, 0
1, 135487, Note_on_c, 3, 68, 127
1, 135487, Note_on_c, 7, 69, 0
1, 135487, Note_on_c, 7, 68, 100
1, 135487, Note_on_c, 7, 66, 0
1, 135487, Note_on_c, 7, 64, 100
1, 135487, Note_on_c, 7, 59, 0
1, 135487, Note_on_c, 7, 59, 100
1, 135487, Note_on_c, 7, 51, 0
1, 135487, Note_on_c, 7, 52, 100
1, 135487, Note_on_c, 7, 39, 0
1, 135487, Note_on_c, 7, 40, 100
1, 135517, Note_on_c, 7, 68, 0
1, 135517, Note_on_c, 7, 64, 0
1, 135547, Note_on_c, 7, 68, 100
1, 135547, Note_on_c, 7, 64, 100
1, 135577, Note_on_c, 7, 68, 0
1, 135577, Note_on_c, 7, 69, 100
1, 135577, Note_on_c, 7, 64, 0
1, 135577, Note_on_c, 7, 66, 100
1, 135607, Note_on_c, 3, 68, 0
1, 135607, Note_on_c, 7, 69, 0
1, 135607, Note_on_c, 7, 71, 100
1, 135607, Note_on_c, 7, 66, 0
1, 135607, Note_on_c, 7, 68, 100
1, 135607, Note_on_c, 7, 59, 0
1, 135607, Note_on_c, 7, 52, 0
1, 135607, Note_on_c, 7, 40, 0
1, 135667, Note_on_c, 7, 71, 0
1, 135667, Note_on_c, 7, 72, 100
1, 135667, Note_on_c, 7, 68, 0
1, 135667, Note_on_c, 7, 69, 100
1, 135697, Note_on_c, 7, 72, 0
1, 135697, Note_on_c, 7, 69, 0
1, 135727, Note_on_c, 7, 74, 100
1, 135727, Note_on_c, 7, 71, 100
1, 135787, Note_on_c, 3, 52, 127
1, 135817, Note_on_c, 3, 52, 0
1, 135847, Note_on_c, 3, 54, 127
1, 135877, Note_on_c, 3, 54, 0
1, 135907, Note_on_c, 3, 56, 127
1, 135937, Note_on_c, 3, 56, 0
1, 135967, Note_on_c, 3, 57, 127
1, 135967, Note_on_c, 7, 74, 0
1, 135967, Note_on_c, 7, 72, 100
1, 135997, Note_on_c, 3, 57, 0
1, 135997, Note_on_c, 3, 52, 127
1, 136027, Note_on_c, 3, 52, 0
1, 136027, Note_on_c, 3, 54, 127
1, 136027, Note_on_c, 7, 71, 0
1, 136027, Note_on_c, 7, 64, 100
1, 136057, Note_on_c, 3, 54, 0
1, 136057, Note_on_c, 3, 56, 127
1, 136087, Note_on_c, 3, 56, 0
1, 136087, Note_on_c, 3, 57, 127
1, 136087, Note_on_c, 7, 72, 0
1, 136087, Note_on_c, 7, 72, 100
1, 136087, Note_on_c, 7, 64, 0
1, 136087, Note_on_c, 7, 66, 100
1, 136117, Note_on_c, 3, 57, 0
1, 136117, Note_on_c, 3, 56, 127
1, 136147, Note_on_c, 3, 56, 0
1, 136147, Note_on_c, 3, 57, 127
1, 136147, Note_on_c, 7, 66, 0
1, 136147, Note_on_c, 7, 68, 100
1, 136177, Note_on_c, 3, 57, 0
1, 136177, Note_on_c, 3, 59, 127
1, 136177, Note_on_c, 7, 72, 0
1, 136177, Note_on_c, 7, 72, 100
1, 136207, Note_on_c, 3, 59, 0
1, 136207, Note_on_c, 3, 60, 127
1, 136207, Note_on_c, 7, 72, 0
1, 136207, Note_on_c, 7, 72, 100
1, 136207, Note_on_c, 7, 68, 0
1, 136207, Note_on_c, 7, 69, 100
1, 136222, Note_on_c, 7, 72, 0
1, 136222, Note_on_c, 7, 74, 100
1, 136222, Note_on_c, 7, 69, 0
1, 136222, Note_on_c, 7, 71, 100
1, 136237, Note_on_c, 3, 60, 0
1, 136237, Note_on_c, 3, 59, 127
1, 136237, Note_on_c, 7, 74, 0
1, 136237, Note_on_c, 7, 72, 100
1, 136237, Note_on_c, 7, 71, 0
1, 136237, Note_on_c, 7, 69, 100
1, 136252, Note_on_c, 7, 72, 0
1, 136252, Note_on_c, 7, 74, 100
1, 136252, Note_on_c, 7, 69, 0
1, 136252, Note_on_c, 7, 71, 100
1, 136267, Note_on_c, 3, 59, 0
1, 136267, Note_on_c, 3, 57, 127
1, 136267, Note_on_c, 7, 74, 0
1, 136267, Note_on_c, 7, 72, 100
1, 136267, Note_on_c, 7, 71, 0
1, 136267, Note_on_c, 7, 69, 100
1, 136282, Note_on_c, 7, 72, 0
1, 136282, Note_on_c, 7, 74, 100
1, 136282, Note_on_c, 7, 69, 0
1, 136282, Note_on_c, 7, 71, 100
1, 136297, Note_on_c, 3, 57, 0
1, 136297, Note_on_c, 3, 59, 127
1, 136297, Note_on_c, 7, 74, 0
1, 136297, Note_on_c, 7, 72, 100
1, 136297, Note_on_c, 7, 71, 0
1, 136297, Note_on_c, 7, 69, 100
1, 136312, Note_on_c, 7, 72, 0
1, 136312, Note_on_c, 7, 74, 100
1, 136312, Note_on_c, 7, 69, 0
1, 136312, Note_on_c, 7, 71, 100
1, 136327, Note_on_c, 3, 59, 0
1, 136327, Note_on_c, 3, 60, 127
1, 136327, Note_on_c, 7, 74, 0
1, 136327, Note_on_c, 7, 72, 100
1, 136327, Note_on_c, 7, 71, 0
1, 136327, Note_on_c, 7, 69, 100
1, 136342, Note_on_c, 7, 72, 0
1, 136342, Note_on_c, 7, 74, 100
1, 136342, Note_on_c, 7, 69, 0
1, 136342, Note_on_c, 7, 71, 100
1, 136357, Note_on_c, 3, 60, 0
1, 136357, Note_on_c, 3, 59, 127
1, 136357, Note_on_c, 7, 74, 0
1, 136357, Note_on_c, 7, 72, 100
1, 136357, Note_on_c, 7, 71, 0
1, 136357, Note_on_c, 7, 69, 100
1, 136372, Note_on_c, 7, 72, 0
1, 136372, Note_on_c, 7, 74, 100
1, 136372, Note_on_c, 7, 69, 0
1, 136372, Note_on_c, 7, 71, 100
1, 136387, Note_on_c, 3, 59, 0
1, 136387, Note_on_c, 3, 60, 127
1, 136387, Note_on_c, 7, 74, 0
1, 136387, Note_on_c, 7, 68, 100
1, 136417, Note_on_c, 3, 60, 0
1, 136417, Note_on_c, 3, 62, 127
1, 136417, Note_on_c, 7, 71, 0
1, 136417, Note_on_c, 7, 72, 100
1, 136417, Note_on_c, 7, 68, 0
1, 136417, Note_on_c, 7, 69, 100
1, 136447, Note_on_c, 3, 62, 0
1, 136447, Note_on_c, 3, 64, 127
1, 136447, Note_on_c, 7, 72, 0
1, 136447, Note_on_c, 7, 71, 100
1, 136447, Note_on_c, 7, 69, 0
1, 136447, Note_on_c, 7, 68, 100
1, 136477, Note_on_c, 7, 71, 0
1, 136477, Note_on_c, 7, 68, 0
1, 136507, Note_on_c, 4, 80, 80
1, 136507, Note_on_c, 4, 76, 80
1, 136507, Note_on_c, 7, 68, 100
1, 136507, Note_on_c, 7, 64, 100
1, 136537, Note_on_c, 4, 80, 0
1, 136537, Note_on_c, 4, 81, 80
1, 136537, Note_on_c, 4, 76, 0
1, 136537, Note_on_c, 4, 78, 80
1, 136537, Note_on_c, 7, 68, 0
1, 136537, Note_on_c, 7, 69, 100
1, 136537, Note_on_c, 7, 64, 0
1, 136537, Note_on_c, 7, 66, 100
1, 136567, Note_on_c, 3, 64, 0
1, 136567, Note_on_c, 3, 52, 127
1, 136567, Note_on_c, 4, 81, 0
1, 136567, Note_on_c, 4, 83, 80
1, 136567, Note_on_c, 4, 78, 0
1, 136567, Note_on_c, 4, 80, 80
1, 136567, Note_on_c, 7, 69, 0
1, 136567, Note_on_c, 7, 71, 100
1, 136567, Note_on_c, 7, 66, 0
1, 136567, Note_on_c, 7, 68, 100
1, 136627, Note_on_c, 4, 83, 0
1, 136627, Note_on_c, 4, 84, 80
1, 136627, Note_on_c, 4, 80, 0
1, 136627, Note_on_c, 4, 81, 80
1, 136627, Note_on_c, 7, 71, 0
1, 136627, Note_on_c, 7, 72, 100
1, 136627, Note_on_c, 7, 68, 0
1, 136627, Note_on_c, 7, 69, 100
1, 136657, Note_on_c, 4, 84, 0
1, 136657, Note_on_c, 4, 81, 0
1, 136657, Note_on_c, 7, 72, 0
1, 136657, Note_on_c, 7, 69, 0
1, 136687, Note_on_c, 3, 52, 0
1, 136687, Note_on_c, 4, 86, 80
1, 136687, Note_on_c, 4, 83, 80
1, 136687, Note_on_c, 7, 74, 100
1, 136687, Note_on_c, 7, 71, 100
1, 136747, Note_on_c, 3, 52, 127
1, 136777, Note_on_c, 3, 52, 0
1, 136807, Note_on_c, 3, 54, 127
1, 136837, Note_on_c, 3, 54, 0
1, 136867, Note_on_c, 3, 56, 127
1, 136897, Note_on_c, 3, 56, 0
1, 136927, Note_on_c, 3, 57, 127
1, 136927, Note_on_c, 4, 86, 0
1, 136927, Note_on_c, 4, 84, 80
1, 136927, Note_on_c, 7, 74, 0
1, 136927, Note_on_c, 7, 72, 100
1, 136957, Note_on_c, 3, 57, 0
1, 136957, Note_on_c, 3, 52, 127
1, 136987, Note_on_c, 3, 52, 0
1, 136987, Note_on_c, 3, 54, 127
1, 136987, Note_on_c, 7, 71, 0
1, 136987, Note_on_c, 7, 64, 100
1, 137017, Note_on_c, 3, 54, 0
1, 137017, Note_on_c, 3, 56, 127
1, 137047, Note_on_c, 3, 56, 0
1, 137047, Note_on_c, 3, 57, 127
1, 137047, Note_on_c, 7, 72, 0
1, 137047, Note_on_c, 7, 72, 100
1, 137047, Note_on_c, 7, 64, 0
1, 137047, Note_on_c, 7, 66, 100
1, 137077, Note_on_c, 3, 57, 0
1, 137077, Note_on_c, 3, 56, 127
1, 137107, Note_on_c, 3, 56, 0
1, 137107, Note_on_c, 3, 57, 127
1, 137107, Note_on_c, 7, 66, 0
1, 137107, Note_on_c, 7, 68, 100
1, 137137, Note_on_c, 3, 57, 0
1, 137137, Note_on_c, 3, 59, 127
1, 137137, Note_on_c, 7, 72, 0
1, 137137, Note_on_c, 7, 72, 100
1, 137167, Note_on_c, 3, 59, 0
1, 137167, Note_on_c, 3, 60, 127
1, 137167, Note_on_c, 4, 83, 0
1, 137167, Note_on_c, 4, 81, 80
1, 137167, Note_on_c, 7, 72, 0
1, 137167, Note_on_c, 7, 72, 100
1, 137167, Note_on_c, 7, 68, 0
1, 137167, Note_on_c, 7, 69, 100
1, 137182, Note_on_c, 7, 72, 0
1, 137182, Note_on_c, 7, 74, 100
1, 137182, Note_on_c, 7, 69, 0
1, 137182, Note_on_c, 7, 71, 100
1, 137197, Note_on_c, 3, 60, 0
1, 137197, Note_on_c, 3, 59, 127
1, 137197, Note_on_c, 7, 74, 0
1, 137197, Note_on_c, 7, 72, 100
1, 137197, Note_on_c, 7, 71, 0
1, 137197, Note_on_c, 7, 69, 100
1, 137212, Note_on_c, 7, 72, 0
1, 137212, Note_on_c, 7, 74, 100
1, 137212, Note_on_c, 7, 69, 0
1, 137212, Note_on_c, 7, 71, 100
1, 137227, Note_on_c, 3, 59, 0
1, 137227, Note_on_c, 3, 57, 127
1, 137227, Note_on_c, 7, 74, 0
1, 137227, Note_on_c, 7, 72, 100
1, 137227, Note_on_c, 7, 71, 0
1, 137227, Note_on_c, 7, 69, 100
1, 137242, Note_on_c, 7, 72, 0
1, 137242, Note_on_c, 7, 74, 100
1, 137242, Note_on_c, 7, 69, 0
1, 137242, Note_on_c, 7, 71, 100
1, 137257, Note_on_c, 3, 57, 0
1, 137257, Note_on_c, 3, 59, 127
1, 137257, Note_on_c, 7, 74, 0
1, 137257, Note_on_c, 7, 72, 100
1, 137257, Note_on_c, 7, 71, 0
1, 137257, Note_on_c, 7, 69, 100
1, 137272, Note_on_c, 7, 72, 0
1, 137272, Note_on_c, 7, 74, 100
1, 137272, Note_on_c, 7, 69, 0
1, 137272, Note_on_c, 7, 71, 100
1, 137287, Note_on_c, 3, 59, 0
1, 137287, Note_on_c, 3, 60, 127
1, 137287, Note_on_c, 7, 74, 0
1, 137287, Note_on_c, 7, 72, 100
1, 137287, Note_on_c, 7, 71, 0
1, 137287, Note_on_c, 7, 69, 100
1, 137302, Note_on_c, 7, 72, 0
1, 137302, Note_on_c, 7, 74, 100
1, 137302, Note_on_c, 7, 69, 0
1, 137302, Note_on_c, 7, 71, 100
1, 137317, Note_on_c, 3, 60, 0
1, 137317, Note_on_c, 3, 59, 127
1, 137317, Note_on_c, 7, 74, 0
1, 137317, Note_on_c, 7, 72, 100
1, 137317, Note_on_c, 7, 71, 0
1, 137317, Note_on_c, 7, 69, 100
1, 137332, Note_on_c, 7, 72, 0
1, 137332, Note_on_c, 7, 74, 100
1, 137332, Note_on_c, 7, 69, 0
1, 137332, Note_on_c, 7, 71, 100
1, 137347, Note_on_c, 3, 59, 0
1, 137347, Note_on_c, 3, 60, 127
1, 137347, Note_on_c, 7, 74, 0
1, 137347, Note_on_c, 7, 68, 100
1, 137377, Note_on_c, 3, 60, 0
1, 137377, Note_on_c, 3, 62, 127
1, 137377, Note_on_c, 7, 71, 0
1, 137377, Note_on_c, 7, 72, 100
1, 137377, Note_on_c, 7, 68, 0
1, 137377, Note_on_c, 7, 69, 100
1, 137407, Note_on_c, 3, 62, 0
1, 137407, Note_on_c, 3, 64, 127
1, 137407, Note_on_c, 4, 84, 0
1, 137407, Note_on_c, 4, 83, 80
1, 137407, Note_on_c, 4, 81, 0
1, 137407, Note_on_c, 4, 80, 80
1, 137407, Note_on_c, 7, 72, 0
1, 137407, Note_on_c, 7, 71, 100
1, 137407, Note_on_c, 7, 69, 0
1, 137407, Note_on_c, 7, 68, 100
1, 137467, Note_on_c, 5, 52, 80
1, 137467, Note_on_c, 6, 52, 80
1, 137467, Note_on_c, 7, 52, 100
1, 137467, Note_on_c, 7, 40, 100
1, 137497, Note_on_c, 5, 52, 0
1, 137497, Note_on_c, 7, 52, 0
1, 137497, Note_on_c, 7, 40, 0
1, 137527, Note_on_c, 3, 64, 0
1, 137527, Note_on_c, 4, 83, 0
1, 137527, Note_on_c, 4, 80, 0
1, 137527, Note_on_c, 5, 54, 80
1, 137527, Note_on_c, 7, 71, 0
1, 137527, Note_on_c, 7, 68, 0
1, 137527, Note_on_c, 7, 54, 100
1, 137527, Note_on_c, 7, 42, 100
1, 137557, Note_on_c, 5, 54, 0
1, 137557, Note_on_c, 7, 54, 0
1, 137557, Note_on_c, 7, 42, 0
1, 137587, Note_on_c, 4, 76, 80
1, 137587, Note_on_c, 4, 71, 80
1, 137587, Note_on_c, 5, 56, 80
1, 137587, Note_on_c, 7, 76, 100
1, 137587, Note_on_c, 7, 71, 100
1, 137587, Note_on_c, 7, 56, 100
1, 137587, Note_on_c, 7, 44, 100
1, 137617, Note_on_c, 4, 76, 0
1, 137617, Note_on_c, 4, 71, 0
1, 137617, Note_on_c, 5, 56, 0
1, 137617, Note_on_c, 7, 76, 0
1, 137617, Note_on_c, 7, 71, 0
1, 137617, Note_on_c, 7, 56, 0
1, 137617, Note_on_c, 7, 44, 0
1, 137647, Note_on_c, 4, 72, 80
1, 137647, Note_on_c, 4, 69, 80
1, 137647, Note_on_c, 5, 57, 80
1, 137647, Note_on_c, 7, 72, 100
1, 137647, Note_on_c, 7, 69, 100
1, 137647, Note_on_c, 7, 57, 100
1, 137647, Note_on_c, 7, 45, 100
1, 137677, Note_on_c, 4, 72, 0
1, 137677, Note_on_c, 4, 69, 0
1, 137677, Note_on_c, 5, 56, 80
1, 137677, Note_on_c, 5, 57, 0
1, 137677, Note_on_c, 7, 72, 0
1, 137677, Note_on_c, 7, 69, 0
1, 137677, Note_on_c, 7, 56, 100
1, 137677, Note_on_c, 7, 57, 0
1, 137677, Note_on_c, 7, 45, 0
1, 137677, Note_on_c, 7, 44, 100
1, 137707, Note_on_c, 5, 57, 80
1, 137707, Note_on_c, 5, 56, 0
1, 137707, Note_on_c, 6, 52, 0
1, 137707, Note_on_c, 7, 57, 100
1, 137707, Note_on_c, 7, 56, 0
1, 137707, Note_on_c, 7, 44, 0
1, 137707, Note_on_c, 7, 45, 100
1, 137737, Note_on_c, 5, 59, 80
1, 137737, Note_on_c, 5, 57, 0
1, 137737, Note_on_c, 7, 59, 100
1, 137737, Note_on_c, 7, 57, 0
1, 137737, Note_on_c, 7, 45, 0
1, 137737, Note_on_c, 7, 47, 100
1, 137767, Note_on_c, 4, 81, 80
1, 137767, Note_on_c, 4, 72, 80
1, 137767, Note_on_c, 5, 60, 80
1, 137767, Note_on_c, 5, 59, 0
1, 137767, Note_on_c, 6, 52, 80
1, 137767, Note_on_c, 7, 64, 100
1, 137767, Note_on_c, 7, 72, 100
1, 137767, Note_on_c, 7, 81, 100
1, 137767, Note_on_c, 7, 57, 100
1, 137767, Note_on_c, 7, 60, 100
1, 137767, Note_on_c, 7, 59, 0
1, 137767, Note_on_c, 7, 47, 0
1, 137767, Note_on_c, 7, 48, 100
1, 137797, Note_on_c, 4, 81, 0
1, 137797, Note_on_c, 4, 72, 0
1, 137797, Note_on_c, 5, 59, 80
1, 137797, Note_on_c, 5, 60, 0
1, 137797, Note_on_c, 7, 81, 0
1, 137797, Note_on_c, 7, 57, 0
1, 137797, Note_on_c, 7, 64, 0
1, 137797, Note_on_c, 7, 72, 0
1, 137797, Note_on_c, 7, 59, 100
1, 137797, Note_on_c, 7, 60, 0
1, 137797, Note_on_c, 7, 48, 0
1, 137797, Note_on_c, 7, 47, 100
1, 137827, Note_on_c, 5, 60, 80
1, 137827, Note_on_c, 5, 59, 0
1, 137827, Note_on_c, 6, 52, 0
1, 137827, Note_on_c, 7, 60, 100
1, 137827, Note_on_c, 7, 59, 0
1, 137827, Note_on_c, 7, 47, 0
1, 137827, Note_on_c, 7, 48, 100
1, 137857, Note_on_c, 5, 62, 80
1, 137857, Note_on_c, 5, 60, 0
1, 137857, Note_on_c, 7, 62, 100
1, 137857, Note_on_c, 7, 60, 0
1, 137857, Note_on_c, 7, 48, 0
1, 137857, Note_on_c, 7, 50, 100
1, 137887, Note_on_c, 4, 80, 80
1, 137887, Note_on_c, 4, 71, 80
1, 137887, Note_on_c, 5, 64, 80
1, 137887, Note_on_c, 5, 62, 0
1, 137887, Note_on_c, 6, 52, 80
1, 137887, Note_on_c, 7, 64, 100
1, 137887, Note_on_c, 7, 71, 100
1, 137887, Note_on_c, 7, 80, 100
1, 137887, Note_on_c, 7, 68, 100
1, 137887, Note_on_c, 7, 62, 0
1, 137887, Note_on_c, 7, 50, 0
1, 137887, Note_on_c, 7, 52, 100
1, 137947, Note_on_c, 5, 52, 80
1, 137947, Note_on_c, 5, 64, 0
1, 137947, Note_on_c, 7, 40, 100
1, 137977, Note_on_c, 5, 52, 0
1, 137977, Note_on_c, 7, 52, 0
1, 137977, Note_on_c, 7, 40, 0
1, 138007, Note_on_c, 4, 80, 0
1, 138007, Note_on_c, 4, 71, 0
1, 138007, Note_on_c, 5, 54, 80
1, 138007, Note_on_c, 6, 52, 0
1, 138007, Note_on_c, 7, 64, 0
1, 138007, Note_on_c, 7, 80, 0
1, 138007, Note_on_c, 7, 68, 0
1, 138007, Note_on_c, 7, 71, 0
1, 138007, Note_on_c, 7, 66, 100
1, 138007, Note_on_c, 7, 54, 100
1, 138007, Note_on_c, 7, 42, 100
1, 138037, Note_on_c, 5, 54, 0
1, 138037, Note_on_c, 7, 66, 0
1, 138037, Note_on_c, 7, 54, 0
1, 138037, Note_on_c, 7, 42, 0
1, 138067, Note_on_c, 4, 88, 80
1, 138067, Note_on_c, 4, 83, 80
1, 138067, Note_on_c, 5, 56, 80
1, 138067, Note_on_c, 7, 76, 100
1, 138067, Note_on_c, 7, 71, 100
1, 138067, Note_on_c, 7, 68, 100
1, 138067, Note_on_c, 7, 56, 100
1, 138067, Note_on_c, 7, 44, 100
1, 138097, Note_on_c, 4, 88, 0
1, 138097, Note_on_c, 4, 83, 0
1, 138097, Note_on_c, 5, 56, 0
1, 138097, Note_on_c, 7, 76, 0
1, 138097, Note_on_c, 7, 71, 0
1, 138097, Note_on_c, 7, 68, 0
1, 138097, Note_on_c, 7, 56, 0
1, 138097, Note_on_c, 7, 44, 0
1, 138127, Note_on_c, 4, 84, 80
1, 138127, Note_on_c, 4, 81, 80
1, 138127, Note_on_c, 5, 57, 80
1, 138127, Note_on_c, 7, 72, 100
1, 138127, Note_on_c, 7, 69, 100
1, 138127, Note_on_c, 7, 57, 100
1, 138127, Note_on_c, 7, 45, 100
1, 138157, Note_on_c, 4, 84, 0
1, 138157, Note_on_c, 4, 81, 0
1, 138157, Note_on_c, 5, 56, 80
1, 138157, Note_on_c, 5, 57, 0
1, 138157, Note_on_c, 7, 72, 0
1, 138157, Note_on_c, 7, 69, 0
1, 138157, Note_on_c, 7, 68, 100
1, 138157, Note_on_c, 7, 57, 0
1, 138157, Note_on_c, 7, 56, 100
1, 138157, Note_on_c, 7, 45, 0
1, 138157, Note_on_c, 7, 44, 100
1, 138187, Note_on_c, 5, 57, 80
1, 138187, Note_on_c, 5, 56, 0
1, 138187, Note_on_c, 7, 68, 0
1, 138187, Note_on_c, 7, 69, 100
1, 138187, Note_on_c, 7, 56, 0
1, 138187, Note_on_c, 7, 57, 100
1, 138187, Note_on_c, 7, 44, 0
1, 138187, Note_on_c, 7, 45, 100
1, 138217, Note_on_c, 5, 59, 80
1, 138217, Note_on_c, 5, 57, 0
1, 138217, Note_on_c, 7, 69, 0
1, 138217, Note_on_c, 7, 71, 100
1, 138217, Note_on_c, 7, 57, 0
1, 138217, Note_on_c, 7, 59, 100
1, 138217, Note_on_c, 7, 45, 0
1, 138217, Note_on_c, 7, 47, 100
1, 138247, Note_on_c, 4, 84, 80
1, 138247, Note_on_c, 4, 81, 80
1, 138247, Note_on_c, 5, 60, 80
1, 138247, Note_on_c, 5, 59, 0
1, 138247, Note_on_c, 7, 84, 100
1, 138247, Note_on_c, 7, 64, 100
1, 138247, Note_on_c, 7, 72, 100
1, 138247, Note_on_c, 7, 81, 100
1, 138247, Note_on_c, 7, 71, 0
1, 138247, Note_on_c, 7, 59, 0
1, 138247, Note_on_c, 7, 60, 100
1, 138247, Note_on_c, 7, 47, 0
1, 138247, Note_on_c, 7, 48, 100
1, 138277, Note_on_c, 4, 84, 0
1, 138277, Note_on_c, 4, 81, 0
1, 138277, Note_on_c, 5, 59, 80
1, 138277, Note_on_c, 5, 60, 0
1, 138277, Note_on_c, 7, 84, 0
1, 138277, Note_on_c, 7, 71, 100
1, 138277, Note_on_c, 7, 60, 0
1, 138277, Note_on_c, 7, 59, 100
1, 138277, Note_on_c, 7, 48, 0
1, 138277, Note_on_c, 7, 47, 100
1, 138307, Note_on_c, 5, 60, 80
1, 138307, Note_on_c, 5, 59, 0
1, 138307, Note_on_c, 7, 64, 0
1, 138307, Note_on_c, 7, 72, 0
1, 138307, Note_on_c, 7, 81, 0
1, 138307, Note_on_c, 7, 71, 0
1, 138307, Note_on_c, 7, 72, 100
1, 138307, Note_on_c, 7, 59, 0
1, 138307, Note_on_c, 7, 60, 100
1, 138307, Note_on_c, 7, 47, 0
1, 138307, Note_on_c, 7, 48, 100
1, 138337, Note_on_c, 5, 62, 80
1, 138337, Note_on_c, 5, 60, 0
1, 138337, Note_on_c, 7, 72, 0
1, 138337, Note_on_c, 7, 74, 100
1, 138337, Note_on_c, 7, 60, 0
1, 138337, Note_on_c, 7, 62, 100
1, 138337, Note_on_c, 7, 48, 0
1, 138337, Note_on_c, 7, 50, 100
1, 138367, Note_on_c, 3, 76, 127
1, 138367, Note_on_c, 4, 83, 80
1, 138367, Note_on_c, 4, 80, 80
1, 138367, Note_on_c, 5, 64, 80
1, 138367, Note_on_c, 5, 62, 0
1, 138367, Note_on_c, 7, 83, 100
1, 138367, Note_on_c, 7, 64, 100
1, 138367, Note_on_c, 7, 71, 100
1, 138367, Note_on_c, 7, 80, 100
1, 138367, Note_on_c, 7, 74, 0
1, 138367, Note_on_c, 7, 76, 100
1, 138367, Note_on_c, 7, 62, 0
1, 138367, Note_on_c, 7, 50, 0
1, 138367, Note_on_c, 7, 52, 100
1, 138487, Note_on_c, 4, 83, 0
1, 138487, Note_on_c, 4, 80, 0
1, 138487, Note_on_c, 5, 64, 0
1, 138487, Note_on_c, 7, 83, 0
1, 138487, Note_on_c, 7, 71, 0
1, 138487, Note_on_c, 7, 80, 0
1, 138487, Note_on_c, 7, 76, 0
1, 138487, Note_on_c, 7, 64, 0
1, 138487, Note_on_c, 7, 52, 0
1, 138667, Note_on_c, 3, 76, 0
1, 138667, Note_on_c, 3, 78, 127
1, 138727, Note_on_c, 3, 78, 0
1, 138727, Note_on_c, 3, 80, 127
1, 138787, Note_on_c, 3, 80, 0
1, 138787, Note_on_c, 3, 81, 127
1, 138847, Note_on_c, 3, 81, 0
1, 138847, Note_on_c, 3, 81, 127
1, 138847, Note_on_c, 7, 68, 100
1, 138847, Note_on_c, 7, 64, 100
1, 138907, Note_on_c, 3, 81, 0
1, 138907, Note_on_c, 3, 80, 127
1, 138967, Note_on_c, 3, 80, 0
1, 138967, Note_on_c, 3, 76, 127
1, 139027, Note_on_c, 3, 76, 0
1, 139027, Note_on_c, 3, 73, 127
1, 139087, Note_on_c, 3, 73, 0
1, 139087, Note_on_c, 3, 70, 127
1, 139087, Note_on_c, 7, 68, 0
1, 139087, Note_on_c, 7, 66, 100
1, 139087, Note_on_c, 7, 64, 0
1, 139087, Note_on_c, 7, 62, 100
1, 139147, Note_on_c, 3, 70, 0
1, 139147, Note_on_c, 3, 71, 127
1, 139207, Note_on_c, 3, 71, 0
1, 139207, Note_on_c, 3, 74, 127
1, 139267, Note_on_c, 3, 74, 0
1, 139267, Note_on_c, 3, 78, 127
1, 139327, Note_on_c, 3, 78, 0
1, 139327, Note_on_c, 3, 78, 127
1, 139327, Note_on_c, 7, 66, 0
1, 139327, Note_on_c, 7, 64, 100
1, 139327, Note_on_c, 7, 62, 0
1, 139327, Note_on_c, 7, 61, 100
1, 139387, Note_on_c, 3, 78, 0
1, 139387, Note_on_c, 3, 76, 127
1, 139447, Note_on_c, 3, 76, 0
1, 139447, Note_on_c, 3, 73, 127
1, 139507, Note_on_c, 3, 73, 0
1, 139507, Note_on_c, 3, 69, 127
1, 139567, Note_on_c, 3, 69, 0
1, 139567, Note_on_c, 3, 69, 127
1, 139567, Note_on_c, 7, 64, 0
1, 139567, Note_on_c, 7, 62, 100
1, 139567, Note_on_c, 7, 61, 0
1, 139567, Note_on_c, 7, 59, 100
1, 139627, Note_on_c, 3, 69, 0
1, 139627, Note_on_c, 3, 68, 127
1, 139687, Note_on_c, 3, 68, 0
1, 139687, Note_on_c, 3, 71, 127
1, 139687, Note_on_c, 7, 68, 100
1, 139747, Note_on_c, 3, 71, 0
1, 139747, Note_on_c, 3, 74, 127
1, 139807, Note_on_c, 3, 74, 0
1, 139807, Note_on_c, 3, 73, 127
1, 139807, Note_on_c, 7, 68, 0
1, 139807, Note_on_c, 7, 69, 100
1, 139807, Note_on_c, 7, 62, 0
1, 139807, Note_on_c, 7, 64, 100
1, 139807, Note_on_c, 7, 57, 100
1, 139807, Note_on_c, 7, 59, 0
1, 139837, Note_on_c, 3, 73, 0
1, 139837, Note_on_c, 3, 74, 127
1, 139867, Note_on_c, 3, 74, 0
1, 139867, Note_on_c, 3, 75, 127
1, 139897, Note_on_c, 3, 75, 0
1, 139897, Note_on_c, 3, 76, 127
1, 139927, Note_on_c, 3, 76, 0
1, 139927, Note_on_c, 3, 74, 127
1, 139927, Note_on_c, 7, 69, 0
1, 139927, Note_on_c, 7, 64, 0
1, 139957, Note_on_c, 3, 74, 0
1, 139957, Note_on_c, 3, 73, 127
1, 139987, Note_on_c, 3, 73, 0
1, 139987, Note_on_c, 3, 71, 127
1, 140017, Note_on_c, 3, 71, 0
1, 140017, Note_on_c, 3, 69, 127
1, 140047, Note_on_c, 3, 69, 0
1, 140047, Note_on_c, 3, 68, 127
1, 140047, Note_on_c, 7, 62, 100
1, 140047, Note_on_c, 7, 59, 100
1, 140047, Note_on_c, 7, 52, 100
1, 140047, Note_on_c, 7, 57, 0
1, 140077, Note_on_c, 3, 68, 0
1, 140077, Note_on_c, 3, 69, 127
1, 140107, Note_on_c, 3, 69, 0
1, 140107, Note_on_c, 3, 71, 127
1, 140122, Note_on_c, 3, 71, 0
1, 140137, Note_on_c, 3, 73, 127
1, 140152, Note_on_c, 3, 73, 0
1, 140167, Note_on_c, 3, 74, 127
1, 140167, Note_on_c, 7, 62, 0
1, 140167, Note_on_c, 7, 59, 0
1, 140197, Note_on_c, 3, 74, 0
1, 140197, Note_on_c, 3, 76, 127
1, 140227, Note_on_c, 3, 76, 0
1, 140227, Note_on_c, 3, 78, 127
1, 140242, Note_on_c, 3, 78, 0
1, 140257, Note_on_c, 3, 80, 127
1, 140272, Note_on_c, 3, 80, 0
1, 140287, Note_on_c, 3, 81, 127
1, 140287, Note_on_c, 7, 61, 100
1, 140287, Note_on_c, 7, 57, 100
1, 140347, Note_on_c, 3, 81, 0
1, 140347, Note_on_c, 7, 61, 0
1, 140347, Note_on_c, 7, 64, 100
1, 140347, Note_on_c, 7, 61, 100
1, 140347, Note_on_c, 7, 52, 0
1, 140407, Note_on_c, 3, 69, 127
1, 140407, Note_on_c, 7, 64, 0
1, 140407, Note_on_c, 7, 64, 100
1, 140407, Note_on_c, 7, 61, 0
1, 140407, Note_on_c, 7, 61, 100
1, 140467, Note_on_c, 7, 64, 0
1, 140467, Note_on_c, 7, 64, 100
1, 140467, Note_on_c, 7, 61, 0
1, 140467, Note_on_c, 7, 61, 100
1, 140467, Note_on_c, 7, 57, 0
1, 140467, Note_on_c, 7, 57, 100
1, 140527, Note_on_c, 7, 64, 0
1, 140527, Note_on_c, 7, 61, 0
1, 140527, Note_on_c, 7, 57, 0
1, 140527, Note_on_c, 7, 57, 100
1, 140587, Note_on_c, 3, 69, 0
1, 140587, Note_on_c, 3, 71, 127
1, 140587, Note_on_c, 7, 64, 100
1, 140587, Note_on_c, 7, 61, 100
1, 140617, Note_on_c, 3, 71, 0
1, 140617, Note_on_c, 3, 73, 127
1, 140647, Note_on_c, 3, 73, 0
1, 140647, Note_on_c, 3, 71, 127
1, 140647, Note_on_c, 7, 64, 0
1, 140647, Note_on_c, 7, 64, 100
1, 140647, Note_on_c, 7, 61, 0
1, 140647, Note_on_c, 7, 61, 100
1, 140707, Note_on_c, 3, 71, 0
1, 140707, Note_on_c, 3, 69, 127
1, 140707, Note_on_c, 7, 64, 0
1, 140707, Note_on_c, 7, 64, 100
1, 140707, Note_on_c, 7, 61, 0
1, 140707, Note_on_c, 7, 61, 100
1, 140707, Note_on_c, 7, 57, 0
1, 140707, Note_on_c, 7, 57, 100
1, 140767, Note_on_c, 3, 69, 0
1, 140767, Note_on_c, 3, 68, 127
1, 140767, Note_on_c, 7, 64, 0
1, 140767, Note_on_c, 7, 64, 100
1, 140767, Note_on_c, 7, 61, 0
1, 140767, Note_on_c, 7, 62, 100
1, 140767, Note_on_c, 7, 57, 0
1, 140767, Note_on_c, 7, 59, 100
1, 140807, Note_on_c, 3, 68, 0
1, 140807, Note_on_c, 3, 71, 127
1, 140847, Note_on_c, 3, 71, 0
1, 140847, Note_on_c, 3, 74, 127
1, 140867, Note_on_c, 3, 74, 0
1, 140887, Note_on_c, 3, 71, 127
1, 140887, Note_on_c, 7, 64, 0
1, 140887, Note_on_c, 7, 62, 0
1, 140887, Note_on_c, 7, 59, 0
1, 140907, Note_on_c, 3, 71, 0
1, 140927, Note_on_c, 3, 68, 127
1, 140947, Note_on_c, 3, 68, 0
1, 140967, Note_on_c, 3, 64, 127
1, 140987, Note_on_c, 3, 64, 0
1, 141007, Note_on_c, 3, 62, 127
1, 141007, Note_on_c, 7, 52, 100
1, 141067, Note_on_c, 7, 62, 100
1, 141067, Note_on_c, 7, 59, 100
1, 141127, Note_on_c, 3, 62, 0
1, 141127, Note_on_c, 7, 62, 0
1, 141127, Note_on_c, 7, 61, 100
1, 141127, Note_on_c, 7, 59, 0
1, 141127, Note_on_c, 7, 57, 100
1, 141187, Note_on_c, 7, 61, 0
1, 141187, Note_on_c, 7, 59, 100
1, 141187, Note_on_c, 7, 57, 0
1, 141187, Note_on_c, 7, 56, 100
1, 141247, Note_on_c, 7, 59, 0
1, 141247, Note_on_c, 7, 61, 100
1, 141247, Note_on_c, 7, 56, 0
1, 141247, Note_on_c, 7, 57, 100
1, 141307, Note_on_c, 7, 61, 0
1, 141307, Note_on_c, 7, 76, 100
1, 141307, Note_on_c, 7, 73, 100
1, 141367, Note_on_c, 3, 57, 127
1, 141367, Note_on_c, 7, 76, 0
1, 141367, Note_on_c, 7, 76, 100
1, 141367, Note_on_c, 7, 73, 0
1, 141367, Note_on_c, 7, 73, 100
1, 141367, Note_on_c, 7, 52, 0
1, 141367, Note_on_c, 7, 57, 0
1, 141427, Note_on_c, 7, 76, 0
1, 141427, Note_on_c, 7, 76, 100
1, 141427, Note_on_c, 7, 73, 0
1, 141427, Note_on_c, 7, 73, 100
1, 141487, Note_on_c, 7, 76, 0
1, 141487, Note_on_c, 7, 73, 0
1, 141487, Note_on_c, 7, 69, 100
1, 141547, Note_on_c, 3, 57, 0
1, 141547, Note_on_c, 3, 59, 127
1, 141547, Note_on_c, 7, 76, 100
1, 141547, Note_on_c, 7, 73, 100
1, 141577, Note_on_c, 3, 59, 0
1, 141577, Note_on_c, 3, 61, 127
1, 141607, Note_on_c, 3, 61, 0
1, 141607, Note_on_c, 3, 59, 127
1, 141607, Note_on_c, 7, 76, 0
1, 141607, Note_on_c, 7, 76, 100
1, 141607, Note_on_c, 7, 73, 0
1, 141607, Note_on_c, 7, 73, 100
1, 141607, Note_on_c, 7, 69, 0
1, 141667, Note_on_c, 3, 59, 0
1, 141667, Note_on_c, 3, 57, 127
1, 141667, Note_on_c, 7, 76, 0
1, 141667, Note_on_c, 7, 76, 100
1, 141667, Note_on_c, 7, 73, 0
1, 141667, Note_on_c, 7, 73, 100
1, 141727, Note_on_c, 3, 57, 0
1, 141727, Note_on_c, 3, 56, 127
1, 141727, Note_on_c, 7, 76, 0
1, 141727, Note_on_c, 7, 76, 100
1, 141727, Note_on_c, 7, 73, 0
1, 141727, Note_on_c, 7, 74, 100
1, 141727, Note_on_c, 7, 71, 100
1, 141757, Note_on_c, 3, 56, 0
1, 141757, Note_on_c, 3, 59, 127
1, 141787, Note_on_c, 3, 59, 0
1, 141787, Note_on_c, 3, 62, 127
1, 141817, Note_on_c, 3, 62, 0
1, 141817, Note_on_c, 3, 59, 127
1, 141847, Note_on_c, 3, 59, 0
1, 141847, Note_on_c, 3, 62, 127
1, 141847, Note_on_c, 7, 76, 0
1, 141847, Note_on_c, 7, 74, 0
1, 141847, Note_on_c, 7, 71, 0
1, 141877, Note_on_c, 3, 62, 0
1, 141877, Note_on_c, 3, 59, 127
1, 141907, Note_on_c, 3, 59, 0
1, 141907, Note_on_c, 3, 56, 127
1, 141937, Note_on_c, 3, 56, 0
1, 141937, Note_on_c, 3, 52, 127
1, 141967, Note_on_c, 3, 52, 0
1, 141967, Note_on_c, 3, 50, 127
1, 142027, Note_on_c, 7, 62, 100
1, 142027, Note_on_c, 7, 59, 100
1, 142087, Note_on_c, 3, 50, 0
1, 142087, Note_on_c, 7, 62, 0
1, 142087, Note_on_c, 7, 61, 100
1, 142087, Note_on_c, 7, 59, 0
1, 142087, Note_on_c, 7, 57, 100
1, 142087, Note_on_c, 7, 52, 100
1, 142147, Note_on_c, 7, 61, 0
1, 142147, Note_on_c, 7, 59, 100
1, 142147, Note_on_c, 7, 57, 0
1, 142147, Note_on_c, 7, 56, 100
1, 142207, Note_on_c, 3, 57, 127
1, 142207, Note_on_c, 7, 59, 0
1, 142207, Note_on_c, 7, 61, 100
1, 142207, Note_on_c, 7, 56, 0
1, 142207, Note_on_c, 7, 57, 100
1, 142207, Note_on_c, 7, 52, 0
1, 142237, Note_on_c, 3, 57, 0
1, 142237, Note_on_c, 3, 56, 127
1, 142267, Note_on_c, 3, 56, 0
1, 142267, Note_on_c, 3, 59, 127
1, 142297, Note_on_c, 3, 59, 0
1, 142297, Note_on_c, 3, 57, 127
1, 142327, Note_on_c, 3, 57, 0
1, 142327, Note_on_c, 3, 61, 127
1, 142327, Note_on_c, 7, 61, 0
1, 142327, Note_on_c, 7, 57, 0
1, 142357, Note_on_c, 3, 61, 0
1, 142357, Note_on_c, 3, 59, 127
1, 142387, Note_on_c, 3, 59, 0
1, 142387, Note_on_c, 3, 57, 127
1, 142387, Note_on_c, 7, 64, 100
1, 142387, Note_on_c, 7, 57, 100
1, 142387, Note_on_c, 7, 52, 100
1, 142387, Note_on_c, 7, 49, 100
1, 142417, Note_on_c, 3, 57, 0
1, 142417, Note_on_c, 3, 56, 127
1, 142447, Note_on_c, 3, 56, 0
1, 142447, Note_on_c, 3, 54, 127
1, 142447, Note_on_c, 7, 64, 0
1, 142447, Note_on_c, 7, 66, 100
1, 142447, Note_on_c, 7, 52, 0
1, 142447, Note_on_c, 7, 50, 100
1, 142447, Note_on_c, 7, 49, 0
1, 142477, Note_on_c, 3, 54, 0
1, 142477, Note_on_c, 3, 53, 127
1, 142507, Note_on_c, 3, 53, 0
1, 142507, Note_on_c, 3, 56, 127
1, 142537, Note_on_c, 3, 56, 0
1, 142537, Note_on_c, 3, 54, 127
1, 142567, Note_on_c, 3, 54, 0
1, 142567, Note_on_c, 3, 57, 127
1, 142567, Note_on_c, 7, 66, 0
1, 142567, Note_on_c, 7, 57, 0
1, 142567, Note_on_c, 7, 50, 0
1, 142627, Note_on_c, 3, 57, 0
1, 142627, Note_on_c, 7, 65, 100
1, 142627, Note_on_c, 7, 57, 100
1, 142627, Note_on_c, 7, 49, 100
1, 142687, Note_on_c, 3, 54, 127
1, 142687, Note_on_c, 7, 65, 0
1, 142687, Note_on_c, 7, 66, 100
1, 142687, Note_on_c, 7, 50, 100
1, 142687, Note_on_c, 7, 49, 0
1, 142717, Note_on_c, 3, 54, 0
1, 142717, Note_on_c, 3, 53, 127
1, 142747, Note_on_c, 3, 53, 0
1, 142747, Note_on_c, 3, 56, 127
1, 142777, Note_on_c, 3, 56, 0
1, 142777, Note_on_c, 3, 54, 127
1, 142807, Note_on_c, 3, 54, 0
1, 142807, Note_on_c, 3, 57, 127
1, 142807, Note_on_c, 7, 66, 0
1, 142807, Note_on_c, 7, 57, 0
1, 142807, Note_on_c, 7, 50, 0
1, 142837, Note_on_c, 3, 57, 0
1, 142837, Note_on_c, 3, 56, 127
1, 142867, Note_on_c, 3, 56, 0
1, 142867, Note_on_c, 3, 54, 127
1, 142867, Note_on_c, 7, 61, 100
1, 142867, Note_on_c, 7, 54, 100
1, 142867, Note_on_c, 7, 46, 100
1, 142867, Note_on_c, 7, 34, 100
1, 142897, Note_on_c, 3, 54, 0
1, 142897, Note_on_c, 3, 52, 127
1, 142927, Note_on_c, 3, 52, 0
1, 142927, Note_on_c, 3, 50, 127
1, 142927, Note_on_c, 7, 62, 100
1, 142927, Note_on_c, 7, 61, 0
1, 142927, Note_on_c, 7, 59, 100
1, 142927, Note_on_c, 7, 46, 0
1, 142927, Note_on_c, 7, 47, 100
1, 142927, Note_on_c, 7, 34, 0
1, 142927, Note_on_c, 7, 35, 100
1, 142957, Note_on_c, 3, 50, 0
1, 142957, Note_on_c, 3, 49, 127
1, 142987, Note_on_c, 3, 49, 0
1, 142987, Note_on_c, 3, 52, 127
1, 143017, Note_on_c, 3, 52, 0
1, 143017, Note_on_c, 3, 50, 127
1, 143047, Note_on_c, 3, 50, 0
1, 143047, Note_on_c, 3, 54, 127
1, 143047, Note_on_c, 7, 62, 0
1, 143047, Note_on_c, 7, 59, 0
1, 143047, Note_on_c, 7, 54, 0
1, 143047, Note_on_c, 7, 47, 0
1, 143047, Note_on_c, 7, 35, 0
1, 143107, Note_on_c, 3, 54, 0
1, 143107, Note_on_c, 7, 61, 100
1, 143107, Note_on_c, 7, 54, 100
1, 143107, Note_on_c, 7, 46, 100
1, 143107, Note_on_c, 7, 34, 100
1, 143167, Note_on_c, 3, 74, 127
1, 143167, Note_on_c, 7, 62, 100
1, 143167, Note_on_c, 7, 61, 0
1, 143167, Note_on_c, 7, 59, 100
1, 143167, Note_on_c, 7, 46, 0
1, 143167, Note_on_c, 7, 47, 100
1, 143167, Note_on_c, 7, 34, 0
1, 143167, Note_on_c, 7, 35, 100
1, 143197, Note_on_c, 3, 74, 0
1, 143197, Note_on_c, 3, 73, 127
1, 143227, Note_on_c, 3, 73, 0
1, 143227, Note_on_c, 3, 76, 127
1, 143257, Note_on_c, 3, 76, 0
1, 143257, Note_on_c, 3, 74, 127
1, 143287, Note_on_c, 3, 74, 0
1, 143287, Note_on_c, 3, 78, 127
1, 143287, Note_on_c, 7, 62, 0
1, 143287, Note_on_c, 7, 59, 0
1, 143287, Note_on_c, 7, 54, 0
1, 143287, Note_on_c, 7, 47, 0
1, 143287, Note_on_c, 7, 35, 0
1, 143317, Note_on_c, 3, 78, 0
1, 143317, Note_on_c, 3, 76, 127
1, 143347, Note_on_c, 3, 76, 0
1, 143347, Note_on_c, 3, 74, 127
1, 143347, Note_on_c, 7, 70, 100
1, 143347, Note_on_c, 7, 64, 100
1, 143347, Note_on_c, 7, 61, 100
1, 143377, Note_on_c, 3, 74, 0
1, 143377, Note_on_c, 3, 73, 127
1, 143407, Note_on_c, 3, 73, 0
1, 143407, Note_on_c, 3, 71, 127
1, 143407, Note_on_c, 7, 70, 0
1, 143407, Note_on_c, 7, 71, 100
1, 143407, Note_on_c, 7, 64, 0
1, 143407, Note_on_c, 7, 66, 100
1, 143407, Note_on_c, 7, 61, 0
1, 143407, Note_on_c, 7, 62, 100
1, 143437, Note_on_c, 3, 71, 0
1, 143437, Note_on_c, 3, 70, 127
1, 143467, Note_on_c, 3, 70, 0
1, 143467, Note_on_c, 3, 73, 127
1, 143497, Note_on_c, 3, 73, 0
1, 143497, Note_on_c, 3, 71, 127
1, 143527, Note_on_c, 3, 71, 0
1, 143527, Note_on_c, 3, 74, 127
1, 143527, Note_on_c, 7, 71, 0
1, 143527, Note_on_c, 7, 66, 0
1, 143527, Note_on_c, 7, 62, 0
1, 143557, Note_on_c, 3, 74, 0
1, 143557, Note_on_c, 3, 73, 127
1, 143587, Note_on_c, 3, 73, 0
1, 143587, Note_on_c, 3, 71, 127
1, 143587, Note_on_c, 7, 66, 100
1, 143587, Note_on_c, 7, 59, 100
1, 143587, Note_on_c, 7, 51, 100
1, 143617, Note_on_c, 3, 71, 0
1, 143617, Note_on_c, 3, 69, 127
1, 143647, Note_on_c, 3, 69, 0
1, 143647, Note_on_c, 3, 68, 127
1, 143647, Note_on_c, 7, 66, 0
1, 143647, Note_on_c, 7, 64, 100
1, 143647, Note_on_c, 7, 51, 0
1, 143647, Note_on_c, 7, 52, 100
1, 143677, Note_on_c, 3, 68, 0
1, 143677, Note_on_c, 3, 71, 127
1, 143707, Note_on_c, 3, 71, 0
1, 143707, Note_on_c, 3, 74, 127
1, 143737, Note_on_c, 3, 74, 0
1, 143737, Note_on_c, 3, 71, 127
1, 143767, Note_on_c, 3, 71, 0
1, 143767, Note_on_c, 3, 74, 127
1, 143767, Note_on_c, 7, 64, 0
1, 143767, Note_on_c, 7, 59, 0
1, 143767, Note_on_c, 7, 52, 0
1, 143797, Note_on_c, 3, 74, 0
1, 143797, Note_on_c, 3, 71, 127
1, 143827, Note_on_c, 3, 71, 0
1, 143827, Note_on_c, 3, 68, 127
1, 143857, Note_on_c, 3, 68, 0
1, 143857, Note_on_c, 3, 64, 127
1, 143887, Note_on_c, 3, 64, 0
1, 143887, Note_on_c, 3, 62, 127
1, 143887, Note_on_c, 7, 68, 100
1, 143887, Note_on_c, 7, 59, 100
1, 143887, Note_on_c, 7, 64, 100
1, 143917, Note_on_c, 3, 62, 0
1, 143917, Note_on_c, 3, 59, 127
1, 143947, Note_on_c, 3, 59, 0
1, 143947, Note_on_c, 3, 56, 127
1, 143977, Note_on_c, 3, 56, 0
1, 143977, Note_on_c, 3, 52, 127
1, 144007, Note_on_c, 3, 52, 0
1, 144007, Note_on_c, 3, 50, 127
1, 144037, Note_on_c, 3, 50, 0
1, 144037, Note_on_c, 3, 52, 127
1, 144067, Note_on_c, 3, 52, 0
1, 144067, Note_on_c, 3, 50, 127
1, 144097, Note_on_c, 3, 50, 0
1, 144097, Note_on_c, 3, 52, 127
1, 144127, Note_on_c, 3, 52, 0
1, 144127, Note_on_c, 3, 49, 127
1, 144127, Note_on_c, 7, 68, 0
1, 144127, Note_on_c, 7, 69, 100
1, 144127, Note_on_c, 7, 59, 0
1, 144127, Note_on_c, 7, 61, 100
1, 144187, Note_on_c, 3, 49, 0
1, 144187, Note_on_c, 3, 76, 127
1, 144247, Note_on_c, 3, 76, 0
1, 144247, Note_on_c, 3, 74, 127
1, 144247, Note_on_c, 7, 69, 0
1, 144247, Note_on_c, 7, 61, 0
1, 144247, Note_on_c, 7, 64, 0
1, 144307, Note_on_c, 3, 74, 0
1, 144307, Note_on_c, 3, 73, 127
1, 144367, Note_on_c, 3, 73, 0
1, 144367, Note_on_c, 3, 71, 127
1, 144427, Note_on_c, 3, 71, 0
1, 144427, Note_on_c, 3, 69, 127
1, 144487, Note_on_c, 3, 69, 0
1, 144487, Note_on_c, 3, 68, 127
1, 144487, Note_on_c, 7, 64, 100
1, 144487, Note_on_c, 7, 57, 100
1, 144487, Note_on_c, 7, 49, 100
1, 144547, Note_on_c, 3, 68, 0
1, 144547, Note_on_c, 3, 67, 127
1, 144607, Note_on_c, 3, 67, 0
1, 144607, Note_on_c, 3, 66, 127
1, 144607, Note_on_c, 7, 64, 0
1, 144607, Note_on_c, 7, 66, 100
1, 144607, Note_on_c, 7, 50, 100
1, 144607, Note_on_c, 7, 49, 0
1, 144667, Note_on_c, 3, 66, 0
1, 144667, Note_on_c, 3, 67, 127
1, 144727, Note_on_c, 3, 67, 0
1, 144727, Note_on_c, 3, 68, 127
1, 144727, Note_on_c, 7, 66, 0
1, 144727, Note_on_c, 7, 57, 0
1, 144727, Note_on_c, 7, 50, 0
1, 144787, Note_on_c, 3, 68, 0
1, 144787, Note_on_c, 3, 69, 127
1, 144847, Note_on_c, 3, 69, 0
1, 144847, Note_on_c, 3, 70, 127
1, 144907, Note_on_c, 3, 70, 0
1, 144907, Note_on_c, 3, 71, 127
1, 144967, Note_on_c, 3, 71, 0
1, 144967, Note_on_c, 3, 73, 127
1, 145027, Note_on_c, 3, 73, 0
1, 145027, Note_on_c, 3, 74, 127
1, 145087, Note_on_c, 3, 74, 0
1, 145087, Note_on_c, 3, 69, 127
1, 145207, Note_on_c, 7, 66, 100
1, 145207, Note_on_c, 7, 60, 100
1, 145207, Note_on_c, 7, 51, 100
1, 145327, Note_on_c, 7, 66, 0
1, 145327, Note_on_c, 7, 64, 100
1, 145327, Note_on_c, 7, 60, 0
1, 145327, Note_on_c, 7, 61, 100
1, 145327, Note_on_c, 7, 52, 100
1, 145327, Note_on_c, 7, 51, 0
1, 145447, Note_on_c, 3, 69, 0
1, 145447, Note_on_c, 3, 73, 127
1, 145447, Note_on_c, 7, 64, 0
1, 145447, Note_on_c, 7, 68, 100
1, 145447, Note_on_c, 7, 61, 0
1, 145447, Note_on_c, 7, 62, 100
1, 145507, Note_on_c, 3, 73, 0
1, 145507, Note_on_c, 3, 71, 127
1, 145567, Note_on_c, 3, 71, 0
1, 145567, Note_on_c, 3, 69, 127
1, 145567, Note_on_c, 7, 68, 0
1, 145567, Note_on_c, 7, 69, 100
1, 145567, Note_on_c, 7, 62, 0
1, 145567, Note_on_c, 7, 61, 100
1, 145567, Note_on_c, 7, 57, 100
1, 145567, Note_on_c, 7, 52, 0
1, 145567, Note_on_c, 7, 45, 100
1, 145627, Note_on_c, 7, 61, 0
1, 145627, Note_on_c, 7, 61, 100
1, 145687, Note_on_c, 3, 69, 0
1, 145687, Note_on_c, 7, 69, 0
1, 145687, Note_on_c, 7, 61, 0
1, 145687, Note_on_c, 7, 45, 0
1, 145747, Note_on_c, 7, 57, 0
1, 145747, Note_on_c, 7, 61, 100
1, 145807, Note_on_c, 7, 61, 0
1, 145807, Note_on_c, 7, 57, 100
1, 145867, Note_on_c, 3, 73, 127
1, 145867, Note_on_c, 7, 69, 100
1, 145867, Note_on_c, 7, 57, 0
1, 145867, Note_on_c, 7, 61, 100
1, 145897, Note_on_c, 3, 73, 0
1, 145927, Note_on_c, 3, 73, 127
1, 145927, Note_on_c, 7, 69, 0
1, 145927, Note_on_c, 7, 68, 100
1, 145927, Note_on_c, 7, 61, 0
1, 145927, Note_on_c, 7, 57, 100
1, 145957, Note_on_c, 3, 73, 0
1, 145987, Note_on_c, 3, 73, 127
1, 145987, Note_on_c, 7, 68, 0
1, 145987, Note_on_c, 7, 66, 100
1, 145987, Note_on_c, 7, 57, 0
1, 145987, Note_on_c, 7, 61, 100
1, 146017, Note_on_c, 3, 73, 0
1, 146047, Note_on_c, 3, 73, 127
1, 146047, Note_on_c, 7, 66, 0
1, 146047, Note_on_c, 7, 65, 100
1, 146047, Note_on_c, 7, 61, 0
1, 146047, Note_on_c, 7, 59, 100
1, 146107, Note_on_c, 7, 65, 0
1, 146107, Note_on_c, 7, 68, 100
1, 146107, Note_on_c, 7, 59, 0
1, 146107, Note_on_c, 7, 61, 100
1, 146167, Note_on_c, 7, 68, 0
1, 146167, Note_on_c, 7, 71, 100
1, 146167, Note_on_c, 7, 61, 0
1, 146167, Note_on_c, 7, 59, 100
1, 146227, Note_on_c, 3, 73, 0
1, 146227, Note_on_c, 3, 73, 127
1, 146227, Note_on_c, 7, 59, 0
1, 146227, Note_on_c, 7, 61, 100
1, 146287, Note_on_c, 3, 73, 0
1, 146287, Note_on_c, 3, 74, 127
1, 146287, Note_on_c, 7, 61, 0
1, 146287, Note_on_c, 7, 59, 100
1, 146347, Note_on_c, 3, 74, 0
1, 146347, Note_on_c, 3, 75, 127
1, 146347, Note_on_c, 7, 71, 0
1, 146347, Note_on_c, 7, 71, 100
1, 146347, Note_on_c, 7, 59, 0
1, 146347, Note_on_c, 7, 61, 100
1, 146407, Note_on_c, 3, 75, 0
1, 146407, Note_on_c, 3, 76, 127
1, 146407, Note_on_c, 7, 71, 0
1, 146407, Note_on_c, 7, 69, 100
1, 146407, Note_on_c, 7, 61, 0
1, 146407, Note_on_c, 7, 59, 100
1, 146467, Note_on_c, 3, 76, 0
1, 146467, Note_on_c, 3, 77, 127
1, 146467, Note_on_c, 7, 69, 0
1, 146467, Note_on_c, 7, 68, 100
1, 146467, Note_on_c, 7, 59, 0
1, 146467, Note_on_c, 7, 61, 100
1, 146527, Note_on_c, 3, 77, 0
1, 146527, Note_on_c, 3, 77, 127
1, 146527, Note_on_c, 7, 68, 0
1, 146527, Note_on_c, 7, 73, 100
1, 146527, Note_on_c, 7, 61, 0
1, 146527, Note_on_c, 7, 57, 100
1, 146587, Note_on_c, 3, 77, 0
1, 146587, Note_on_c, 3, 78, 127
1, 146587, Note_on_c, 7, 73, 0
1, 146587, Note_on_c, 7, 69, 100
1, 146587, Note_on_c, 7, 57, 0
1, 146587, Note_on_c, 7, 61, 100
1, 146647, Note_on_c, 3, 78, 0
1, 146647, Note_on_c, 3, 73, 127
1, 146647, Note_on_c, 7, 69, 0
1, 146647, Note_on_c, 7, 66, 100
1, 146647, Note_on_c, 7, 61, 0
1, 146647, Note_on_c, 7, 57, 100
1, 146707, Note_on_c, 7, 57, 0
1, 146707, Note_on_c, 7, 61, 100
1, 146767, Note_on_c, 3, 73, 0
1, 146767, Note_on_c, 7, 66, 0
1, 146767, Note_on_c, 7, 61, 0
1, 146767, Note_on_c, 7, 54, 100
1, 146767, Note_on_c, 7, 42, 100
1, 146827, Note_on_c, 3, 54, 127
1, 146827, Note_on_c, 7, 62, 100
1, 146827, Note_on_c, 7, 57, 100
1, 146887, Note_on_c, 3, 54, 0
1, 146887, Note_on_c, 3, 52, 127
1, 146887, Note_on_c, 7, 62, 0
1, 146887, Note_on_c, 7, 62, 100
1, 146887, Note_on_c, 7, 57, 0
1, 146887, Note_on_c, 7, 57, 100
1, 146947, Note_on_c, 3, 52, 0
1, 146947, Note_on_c, 3, 50, 127
1, 146947, Note_on_c, 7, 62, 0
1, 146947, Note_on_c, 7, 62, 100
1, 146947, Note_on_c, 7, 57, 0
1, 146947, Note_on_c, 7, 57, 100
1, 147007, Note_on_c, 3, 50, 0
1, 147007, Note_on_c, 3, 50, 127
1, 147007, Note_on_c, 7, 62, 0
1, 147007, Note_on_c, 7, 57, 0
1, 147007, Note_on_c, 7, 53, 100
1, 147007, Note_on_c, 7, 54, 0
1, 147007, Note_on_c, 7, 42, 0
1, 147007, Note_on_c, 7, 41, 100
1, 147067, Note_on_c, 3, 50, 0
1, 147067, Note_on_c, 3, 49, 127
1, 147067, Note_on_c, 7, 61, 100
1, 147067, Note_on_c, 7, 56, 100
1, 147127, Note_on_c, 3, 49, 0
1, 147127, Note_on_c, 3, 49, 127
1, 147127, Note_on_c, 7, 61, 0
1, 147127, Note_on_c, 7, 61, 100
1, 147127, Note_on_c, 7, 56, 0
1, 147127, Note_on_c, 7, 56, 100
1, 147187, Note_on_c, 7, 61, 0
1, 147187, Note_on_c, 7, 61, 100
1, 147187, Note_on_c, 7, 56, 0
1, 147187, Note_on_c, 7, 56, 100
1, 147247, Note_on_c, 7, 61, 0
1, 147247, Note_on_c, 7, 56, 0
1, 147247, Note_on_c, 7, 49, 100
1, 147247, Note_on_c, 7, 53, 0
1, 147247, Note_on_c, 7, 41, 0
1, 147247, Note_on_c, 7, 37, 100
1, 147307, Note_on_c, 3, 49, 0
1, 147307, Note_on_c, 3, 62, 127
1, 147307, Note_on_c, 7, 68, 100
1, 147307, Note_on_c, 7, 65, 100
1, 147367, Note_on_c, 3, 62, 0
1, 147367, Note_on_c, 3, 61, 127
1, 147367, Note_on_c, 7, 68, 0
1, 147367, Note_on_c, 7, 68, 100
1, 147367, Note_on_c, 7, 65, 0
1, 147367, Note_on_c, 7, 65, 100
1, 147427, Note_on_c, 3, 61, 0
1, 147427, Note_on_c, 3, 59, 127
1, 147427, Note_on_c, 7, 68, 0
1, 147427, Note_on_c, 7, 68, 100
1, 147427, Note_on_c, 7, 65, 0
1, 147427, Note_on_c, 7, 65, 100
1, 147487, Note_on_c, 3, 59, 0
1, 147487, Note_on_c, 3, 59, 127
1, 147487, Note_on_c, 7, 68, 0
1, 147487, Note_on_c, 7, 69, 100
1, 147487, Note_on_c, 7, 65, 0
1, 147487, Note_on_c, 7, 66, 100
1, 147487, Note_on_c, 7, 54, 100
1, 147487, Note_on_c, 7, 49, 0
1, 147487, Note_on_c, 7, 37, 0
1, 147487, Note_on_c, 7, 42, 100
1, 147517, Note_on_c, 3, 59, 0
1, 147517, Note_on_c, 3, 57, 127
1, 147547, Note_on_c, 3, 57, 0
1, 147547, Note_on_c, 3, 56, 127
1, 147547, Note_on_c, 7, 66, 0
1, 147547, Note_on_c, 7, 61, 100
1, 147577, Note_on_c, 3, 56, 0
1, 147577, Note_on_c, 3, 54, 127
1, 147607, Note_on_c, 3, 54, 0
1, 147607, Note_on_c, 3, 54, 127
1, 147607, Note_on_c, 7, 69, 0
1, 147607, Note_on_c, 7, 61, 0
1, 147607, Note_on_c, 7, 57, 100
1, 147607, Note_on_c, 7, 54, 0
1, 147607, Note_on_c, 7, 42, 0
1, 147667, Note_on_c, 7, 57, 0
1, 147667, Note_on_c, 7, 61, 100
1, 147727, Note_on_c, 3, 54, 0
1, 147727, Note_on_c, 7, 61, 0
1, 147727, Note_on_c, 7, 57, 100
1, 147787, Note_on_c, 3, 69, 127
1, 147787, Note_on_c, 7, 73, 100
1, 147787, Note_on_c, 7, 57, 0
1, 147787, Note_on_c, 7, 61, 100
1, 147847, Note_on_c, 3, 69, 0
1, 147847, Note_on_c, 3, 68, 127
1, 147847, Note_on_c, 7, 73, 0
1, 147847, Note_on_c, 7, 73, 100
1, 147847, Note_on_c, 7, 61, 0
1, 147847, Note_on_c, 7, 57, 100
1, 147907, Note_on_c, 3, 68, 0
1, 147907, Note_on_c, 3, 66, 127
1, 147907, Note_on_c, 7, 73, 0
1, 147907, Note_on_c, 7, 73, 100
1, 147907, Note_on_c, 7, 57, 0
1, 147907, Note_on_c, 7, 61, 100
1, 147967, Note_on_c, 3, 66, 0
1, 147967, Note_on_c, 3, 65, 127
1, 147967, Note_on_c, 7, 73, 0
1, 147967, Note_on_c, 7, 73, 100
1, 147967, Note_on_c, 7, 61, 0
1, 147967, Note_on_c, 7, 59, 100
1, 148027, Note_on_c, 3, 65, 0
1, 148027, Note_on_c, 3, 68, 127
1, 148027, Note_on_c, 7, 59, 0
1, 148027, Note_on_c, 7, 61, 100
1, 148087, Note_on_c, 3, 68, 0
1, 148087, Note_on_c, 3, 71, 127
1, 148087, Note_on_c, 7, 61, 0
1, 148087, Note_on_c, 7, 59, 100
1, 148147, Note_on_c, 7, 73, 0
1, 148147, Note_on_c, 7, 73, 100
1, 148147, Note_on_c, 7, 59, 0
1, 148147, Note_on_c, 7, 61, 100
1, 148207, Note_on_c, 7, 73, 0
1, 148207, Note_on_c, 7, 74, 100
1, 148207, Note_on_c, 7, 61, 0
1, 148207, Note_on_c, 7, 59, 100
1, 148267, Note_on_c, 3, 71, 0
1, 148267, Note_on_c, 3, 71, 127
1, 148267, Note_on_c, 7, 74, 0
1, 148267, Note_on_c, 7, 75, 100
1, 148267, Note_on_c, 7, 59, 0
1, 148267, Note_on_c, 7, 61, 100
1, 148327, Note_on_c, 3, 71, 0
1, 148327, Note_on_c, 3, 69, 127
1, 148327, Note_on_c, 7, 75, 0
1, 148327, Note_on_c, 7, 76, 100
1, 148327, Note_on_c, 7, 61, 0
1, 148327, Note_on_c, 7, 59, 100
1, 148387, Note_on_c, 3, 69, 0
1, 148387, Note_on_c, 3, 68, 127
1, 148387, Note_on_c, 7, 76, 0
1, 148387, Note_on_c, 7, 77, 100
1, 148387, Note_on_c, 7, 59, 0
1, 148387, Note_on_c, 7, 61, 100
1, 148447, Note_on_c, 3, 68, 0
1, 148447, Note_on_c, 3, 73, 127
1, 148447, Note_on_c, 7, 77, 0
1, 148447, Note_on_c, 7, 77, 100
1, 148447, Note_on_c, 7, 61, 0
1, 148447, Note_on_c, 7, 57, 100
1, 148507, Note_on_c, 3, 73, 0
1, 148507, Note_on_c, 3, 69, 127
1, 148507, Note_on_c, 7, 77, 0
1, 148507, Note_on_c, 7, 78, 100
1, 148507, Note_on_c, 7, 57, 0
1, 148507, Note_on_c, 7, 61, 100
1, 148567, Note_on_c, 3, 69, 0
1, 148567, Note_on_c, 3, 66, 127
1, 148567, Note_on_c, 7, 78, 0
1, 148567, Note_on_c, 7, 73, 100
1, 148567, Note_on_c, 7, 61, 0
1, 148567, Note_on_c, 7, 57, 100
1, 148627, Note_on_c, 7, 57, 0
1, 148627, Note_on_c, 7, 61, 100
1, 148687, Note_on_c, 3, 66, 0
1, 148687, Note_on_c, 3, 57, 127
1, 148687, Note_on_c, 7, 73, 0
1, 148687, Note_on_c, 7, 61, 0
1, 148687, Note_on_c, 7, 66, 100
1, 148687, Note_on_c, 7, 61, 100
1, 148687, Note_on_c, 7, 45, 100
1, 148807, Note_on_c, 7, 68, 100
1, 148807, Note_on_c, 7, 45, 0
1, 148867, Note_on_c, 7, 68, 0
1, 148867, Note_on_c, 7, 69, 100
1, 148927, Note_on_c, 3, 57, 0
1, 148927, Note_on_c, 3, 59, 127
1, 148927, Note_on_c, 7, 69, 0
1, 148927, Note_on_c, 7, 69, 100
1, 148927, Note_on_c, 7, 61, 0
1, 148927, Note_on_c, 7, 62, 100
1, 148927, Note_on_c, 7, 47, 100
1, 148987, Note_on_c, 7, 69, 0
1, 148987, Note_on_c, 7, 68, 100
1, 149047, Note_on_c, 7, 68, 0
1, 149047, Note_on_c, 7, 68, 100
1, 149047, Note_on_c, 7, 47, 0
1, 149167, Note_on_c, 3, 59, 0
1, 149167, Note_on_c, 3, 61, 127
1, 149167, Note_on_c, 7, 66, 0
1, 149167, Note_on_c, 7, 65, 100
1, 149167, Note_on_c, 7, 62, 0
1, 149167, Note_on_c, 7, 56, 100
1, 149167, Note_on_c, 7, 49, 100
1, 149182, Note_on_c, 3, 61, 0
1, 149182, Note_on_c, 3, 62, 127
1, 149197, Note_on_c, 3, 62, 0
1, 149197, Note_on_c, 3, 61, 127
1, 149212, Note_on_c, 3, 61, 0
1, 149212, Note_on_c, 3, 62, 127
1, 149227, Note_on_c, 3, 62, 0
1, 149227, Note_on_c, 3, 61, 127
1, 149227, Note_on_c, 7, 68, 0
1, 149227, Note_on_c, 7, 74, 100
1, 149242, Note_on_c, 3, 61, 0
1, 149242, Note_on_c, 3, 62, 127
1, 149257, Note_on_c, 3, 62, 0
1, 149257, Note_on_c, 3, 61, 127
1, 149272, Note_on_c, 3, 61, 0
1, 149272, Note_on_c, 3, 62, 127
1, 149287, Note_on_c, 3, 62, 0
1, 149287, Note_on_c, 3, 61, 127
1, 149287, Note_on_c, 7, 74, 0
1, 149287, Note_on_c, 7, 73, 100
1, 149287, Note_on_c, 7, 49, 0
1, 149302, Note_on_c, 3, 61, 0
1, 149302, Note_on_c, 3, 62, 127
1, 149317, Note_on_c, 3, 62, 0
1, 149317, Note_on_c, 3, 61, 127
1, 149332, Note_on_c, 3, 61, 0
1, 149332, Note_on_c, 3, 62, 127
1, 149347, Note_on_c, 3, 62, 0
1, 149347, Note_on_c, 3, 59, 127
1, 149347, Note_on_c, 7, 73, 0
1, 149347, Note_on_c, 7, 71, 100
1, 149377, Note_on_c, 3, 59, 0
1, 149377, Note_on_c, 3, 61, 127
1, 149407, Note_on_c, 3, 61, 0
1, 149407, Note_on_c, 3, 66, 127
1, 149407, Note_on_c, 7, 71, 0
1, 149407, Note_on_c, 7, 71, 100
1, 149407, Note_on_c, 7, 65, 0
1, 149407, Note_on_c, 7, 66, 100
1, 149407, Note_on_c, 7, 56, 0
1, 149407, Note_on_c, 7, 54, 100
1, 149407, Note_on_c, 7, 42, 100
1, 149437, Note_on_c, 7, 71, 0
1, 149437, Note_on_c, 7, 69, 100
1, 149467, Note_on_c, 7, 69, 0
1, 149467, Note_on_c, 7, 68, 100
1, 149467, Note_on_c, 7, 66, 0
1, 149467, Note_on_c, 7, 61, 100
1, 149467, Note_on_c, 7, 54, 0
1, 149467, Note_on_c, 7, 57, 100
1, 149497, Note_on_c, 7, 68, 0
1, 149497, Note_on_c, 7, 66, 100
1, 149527, Note_on_c, 3, 66, 0
1, 149527, Note_on_c, 7, 66, 0
1, 149527, Note_on_c, 7, 66, 100
1, 149527, Note_on_c, 7, 61, 0
1, 149527, Note_on_c, 7, 54, 100
1, 149527, Note_on_c, 7, 42, 0
1, 149587, Note_on_c, 7, 57, 0
1, 149587, Note_on_c, 7, 61, 100
1, 149587, Note_on_c, 7, 57, 100
1, 149647, Note_on_c, 7, 66, 0
1, 149647, Note_on_c, 7, 61, 0
1, 149647, Note_on_c, 7, 42, 100
1, 149687, Note_on_c, 3, 66, 127
1, 149707, Note_on_c, 3, 66, 0
1, 149727, Note_on_c, 3, 68, 127
1, 149747, Note_on_c, 3, 68, 0
1, 149767, Note_on_c, 3, 69, 127
1, 149767, Note_on_c, 7, 57, 0
1, 149767, Note_on_c, 7, 54, 0
1, 149767, Note_on_c, 7, 42, 0
1, 149787, Note_on_c, 3, 69, 0
1, 149807, Note_on_c, 3, 71, 127
1, 149827, Note_on_c, 3, 71, 0
1, 149847, Note_on_c, 3, 73, 127
1, 149867, Note_on_c, 3, 73, 0
1, 149887, Note_on_c, 3, 74, 127
1, 149887, Note_on_c, 7, 69, 100
1, 149887, Note_on_c, 7, 62, 100
1, 149887, Note_on_c, 7, 59, 100
1, 149887, Note_on_c, 7, 53, 100
1, 149887, Note_on_c, 7, 41, 100
1, 150067, Note_on_c, 3, 74, 0
1, 150067, Note_on_c, 3, 71, 127
1, 150127, Note_on_c, 3, 71, 0
1, 150127, Note_on_c, 3, 68, 127
1, 150127, Note_on_c, 7, 69, 0
1, 150127, Note_on_c, 7, 68, 100
1, 150127, Note_on_c, 7, 53, 0
1, 150127, Note_on_c, 7, 52, 100
1, 150127, Note_on_c, 7, 41, 0
1, 150127, Note_on_c, 7, 40, 100
1, 150147, Note_on_c, 3, 68, 0
1, 150167, Note_on_c, 3, 69, 127
1, 150187, Note_on_c, 3, 69, 0
1, 150207, Note_on_c, 3, 70, 127
1, 150227, Note_on_c, 3, 70, 0
1, 150247, Note_on_c, 3, 71, 127
1, 150247, Note_on_c, 7, 68, 0
1, 150247, Note_on_c, 7, 62, 0
1, 150247, Note_on_c, 7, 59, 0
1, 150247, Note_on_c, 7, 52, 0
1, 150247, Note_on_c, 7, 40, 0
1, 150267, Note_on_c, 3, 71, 0
1, 150287, Note_on_c, 3, 72, 127
1, 150307, Note_on_c, 3, 72, 0
1, 150327, Note_on_c, 3, 73, 127
1, 150347, Note_on_c, 3, 73, 0
1, 150367, Note_on_c, 3, 74, 127
1, 150367, Note_on_c, 7, 69, 100
1, 150367, Note_on_c, 7, 62, 100
1, 150367, Note_on_c, 7, 59, 100
1, 150367, Note_on_c, 7, 53, 100
1, 150367, Note_on_c, 7, 41, 100
1, 150547, Note_on_c, 3, 74, 0
1, 150547, Note_on_c, 3, 71, 127
1, 150607, Note_on_c, 3, 71, 0
1, 150607, Note_on_c, 3, 68, 127
1, 150607, Note_on_c, 7, 69, 0
1, 150607, Note_on_c, 7, 68, 100
1, 150607, Note_on_c, 7, 53, 0
1, 150607, Note_on_c, 7, 52, 100
1, 150607, Note_on_c, 7, 41, 0
1, 150607, Note_on_c, 7, 40, 100
1, 150637, Note_on_c, 3, 68, 0
1, 150637, Note_on_c, 3, 66, 127
1, 150667, Note_on_c, 3, 66, 0
1, 150667, Note_on_c, 3, 64, 127
1, 150682, Note_on_c, 3, 64, 0
1, 150697, Note_on_c, 3, 66, 127
1, 150712, Note_on_c, 3, 66, 0
1, 150727, Note_on_c, 3, 68, 127
1, 150727, Note_on_c, 7, 68, 0
1, 150727, Note_on_c, 7, 62, 0
1, 150727, Note_on_c, 7, 59, 0
1, 150727, Note_on_c, 7, 52, 0
1, 150727, Note_on_c, 7, 40, 0
1, 150757, Note_on_c, 3, 68, 0
1, 150757, Note_on_c, 3, 69, 127
1, 150787, Note_on_c, 3, 69, 0
1, 150787, Note_on_c, 3, 71, 127
1, 150802, Note_on_c, 3, 71, 0
1, 150817, Note_on_c, 3, 73, 127
1, 150832, Note_on_c, 3, 73, 0
1, 150847, Note_on_c, 3, 74, 127
1, 150847, Note_on_c, 7, 68, 100
1, 150847, Note_on_c, 7, 59, 100
1, 150847, Note_on_c, 7, 62, 100
1, 150847, Note_on_c, 7, 64, 100
1, 150877, Note_on_c, 3, 74, 0
1, 150877, Note_on_c, 3, 71, 127
1, 150907, Note_on_c, 3, 71, 0
1, 150907, Note_on_c, 3, 68, 127
1, 150907, Note_on_c, 7, 68, 0
1, 150907, Note_on_c, 7, 68, 100
1, 150907, Note_on_c, 7, 59, 0
1, 150907, Note_on_c, 7, 62, 0
1, 150907, Note_on_c, 7, 59, 100
1, 150907, Note_on_c, 7, 62, 100
1, 150907, Note_on_c, 7, 64, 0
1, 150907, Note_on_c, 7, 64, 100
1, 150922, Note_on_c, 3, 68, 0
1, 150937, Note_on_c, 3, 64, 127
1, 150952, Note_on_c, 3, 64, 0
1, 150967, Note_on_c, 3, 62, 127
1, 150967, Note_on_c, 7, 52, 100
1, 150982, Note_on_c, 3, 62, 0
1, 150997, Note_on_c, 3, 59, 127
1, 150997, Note_on_c, 7, 52, 0
1, 151012, Note_on_c, 3, 59, 0
1, 151027, Note_on_c, 3, 56, 127
1, 151027, Note_on_c, 7, 68, 0
1, 151027, Note_on_c, 7, 68, 100
1, 151027, Note_on_c, 7, 59, 0
1, 151027, Note_on_c, 7, 62, 0
1, 151027, Note_on_c, 7, 59, 100
1, 151027, Note_on_c, 7, 62, 100
1, 151027, Note_on_c, 7, 64, 0
1, 151027, Note_on_c, 7, 64, 100
1, 151042, Note_on_c, 3, 56, 0
1, 151057, Note_on_c, 3, 52, 127
1, 151072, Note_on_c, 3, 52, 0
1, 151087, Note_on_c, 3, 50, 127
1, 151087, Note_on_c, 7, 47, 100
1, 151117, Note_on_c, 3, 50, 0
1, 151117, Note_on_c, 3, 52, 127
1, 151117, Note_on_c, 7, 47, 0
1, 151147, Note_on_c, 3, 52, 0
1, 151147, Note_on_c, 3, 56, 127
1, 151147, Note_on_c, 7, 68, 0
1, 151147, Note_on_c, 7, 68, 100
1, 151147, Note_on_c, 7, 59, 0
1, 151147, Note_on_c, 7, 62, 0
1, 151147, Note_on_c, 7, 59, 100
1, 151147, Note_on_c, 7, 62, 100
1, 151147, Note_on_c, 7, 64, 0
1, 151147, Note_on_c, 7, 64, 100
1, 151162, Note_on_c, 3, 56, 0
1, 151177, Note_on_c, 3, 59, 127
1, 151192, Note_on_c, 3, 59, 0
1, 151207, Note_on_c, 3, 62, 127
1, 151207, Note_on_c, 7, 56, 100
1, 151207, Note_on_c, 7, 44, 100
1, 151222, Note_on_c, 3, 62, 0
1, 151237, Note_on_c, 3, 64, 127
1, 151237, Note_on_c, 7, 56, 0
1, 151237, Note_on_c, 7, 44, 0
1, 151252, Note_on_c, 3, 64, 0
1, 151267, Note_on_c, 3, 68, 127
1, 151267, Note_on_c, 7, 68, 0
1, 151267, Note_on_c, 7, 68, 100
1, 151267, Note_on_c, 7, 59, 0
1, 151267, Note_on_c, 7, 62, 0
1, 151267, Note_on_c, 7, 59, 100
1, 151267, Note_on_c, 7, 62, 100
1, 151267, Note_on_c, 7, 64, 0
1, 151267, Note_on_c, 7, 64, 100
1, 151282, Note_on_c, 3, 68, 0
1, 151297, Note_on_c, 3, 71, 127
1, 151312, Note_on_c, 3, 71, 0
1, 151327, Note_on_c, 3, 74, 127
1, 151327, Note_on_c, 7, 68, 0
1, 151327, Note_on_c, 7, 68, 100
1, 151327, Note_on_c, 7, 59, 0
1, 151327, Note_on_c, 7, 62, 0
1, 151327, Note_on_c, 7, 59, 100
1, 151327, Note_on_c, 7, 62, 100
1, 151327, Note_on_c, 7, 64, 0
1, 151327, Note_on_c, 7, 64, 100
1, 151327, Note_on_c, 7, 52, 100
1, 151327, Note_on_c, 7, 40, 100
1, 151447, Note_on_c, 7, 68, 0
1, 151447, Note_on_c, 7, 59, 0
1, 151447, Note_on_c, 7, 62, 0
1, 151447, Note_on_c, 7, 64, 0
1, 151447, Note_on_c, 7, 52, 0
1, 151447, Note_on_c, 7, 40, 0
1, 151507, Note_on_c, 3, 74, 0
1, 151507, Note_on_c, 3, 71, 127
1, 151567, Note_on_c, 3, 71, 0
1, 151567, Note_on_c, 3, 68, 127
1, 152047, Note_on_c, 3, 68, 0
1, 152287, Note_on_c, 3, 76, 127
1, 152527, Note_on_c, 3, 76, 0
1, 152527, Note_on_c, 3, 73, 127
1, 152527, Note_on_c, 7, 64, 100
1, 152707, Note_on_c, 3, 73, 0
1, 152707, Note_on_c, 3, 74, 127
1, 152767, Note_on_c, 3, 74, 0
1, 152767, Note_on_c, 3, 78, 127
1, 152767, Note_on_c, 7, 81, 100
1, 152767, Note_on_c, 7, 61, 100
1, 152767, Note_on_c, 7, 64, 0
1, 152827, Note_on_c, 3, 78, 0
1, 152827, Note_on_c, 3, 76, 127
1, 152887, Note_on_c, 3, 76, 0
1, 152887, Note_on_c, 3, 74, 127
1, 152947, Note_on_c, 3, 74, 0
1, 152947, Note_on_c, 3, 73, 127
1, 152947, Note_on_c, 7, 62, 100
1, 152947, Note_on_c, 7, 61, 0
1, 153007, Note_on_c, 3, 73, 0
1, 153007, Note_on_c, 3, 71, 127
1, 153007, Note_on_c, 7, 81, 0
1, 153007, Note_on_c, 7, 80, 100
1, 153007, Note_on_c, 7, 66, 100
1, 153007, Note_on_c, 7, 62, 0
1, 153067, Note_on_c, 7, 64, 100
1, 153067, Note_on_c, 7, 66, 0
1, 153127, Note_on_c, 7, 62, 100
1, 153127, Note_on_c, 7, 64, 0
1, 153157, Note_on_c, 7, 62, 0
1, 153187, Note_on_c, 3, 71, 0
1, 153187, Note_on_c, 3, 73, 127
1, 153187, Note_on_c, 7, 80, 0
1, 153187, Note_on_c, 7, 81, 100
1, 153187, Note_on_c, 7, 61, 100
1, 153217, Note_on_c, 7, 61, 0
1, 153247, Note_on_c, 3, 73, 0
1, 153247, Note_on_c, 3, 76, 127
1, 153247, Note_on_c, 7, 81, 0
1, 153247, Note_on_c, 7, 85, 100
1, 153247, Note_on_c, 7, 59, 100
1, 153307, Note_on_c, 3, 76, 0
1, 153307, Note_on_c, 3, 74, 127
1, 153307, Note_on_c, 7, 85, 0
1, 153307, Note_on_c, 7, 83, 100
1, 153367, Note_on_c, 3, 74, 0
1, 153367, Note_on_c, 3, 73, 127
1, 153367, Note_on_c, 7, 83, 0
1, 153367, Note_on_c, 7, 81, 100
1, 153397, Note_on_c, 7, 81, 0
1, 153427, Note_on_c, 3, 73, 0
1, 153427, Note_on_c, 3, 71, 127
1, 153427, Note_on_c, 7, 80, 100
1, 153427, Note_on_c, 7, 61, 100
1, 153427, Note_on_c, 7, 59, 0
1, 153457, Note_on_c, 7, 80, 0
1, 153487, Note_on_c, 3, 71, 0
1, 153487, Note_on_c, 3, 69, 127
1, 153487, Note_on_c, 7, 78, 100
1, 153487, Note_on_c, 7, 64, 100
1, 153487, Note_on_c, 7, 61, 0
1, 153547, Note_on_c, 7, 62, 100
1, 153547, Note_on_c, 7, 64, 0
1, 153607, Note_on_c, 7, 61, 100
1, 153607, Note_on_c, 7, 62, 0
1, 153637, Note_on_c, 7, 61, 0
1, 153667, Note_on_c, 3, 69, 0
1, 153667, Note_on_c, 3, 71, 127
1, 153667, Note_on_c, 7, 78, 0
1, 153667, Note_on_c, 7, 80, 100
1, 153667, Note_on_c, 7, 59, 100
1, 153697, Note_on_c, 7, 59, 0
1, 153727, Note_on_c, 3, 71, 0
1, 153727, Note_on_c, 3, 73, 127
1, 153727, Note_on_c, 7, 80, 0
1, 153727, Note_on_c, 7, 81, 100
1, 153727, Note_on_c, 7, 57, 100
1, 153787, Note_on_c, 3, 73, 0
1, 153787, Note_on_c, 3, 75, 127
1, 153787, Note_on_c, 7, 81, 0
1, 153787, Note_on_c, 7, 83, 100
1, 153817, Note_on_c, 3, 75, 0
1, 153817, Note_on_c, 3, 76, 127
1, 153817, Note_on_c, 7, 83, 0
1, 153817, Note_on_c, 7, 85, 100
1, 153847, Note_on_c, 3, 76, 0
1, 153847, Note_on_c, 3, 75, 127
1, 153847, Note_on_c, 7, 85, 0
1, 153847, Note_on_c, 7, 83, 100
1, 153877, Note_on_c, 3, 75, 0
1, 153877, Note_on_c, 3, 73, 127
1, 153877, Note_on_c, 7, 83, 0
1, 153877, Note_on_c, 7, 81, 100
1, 153907, Note_on_c, 3, 73, 0
1, 153907, Note_on_c, 3, 71, 127
1, 153907, Note_on_c, 7, 81, 0
1, 153907, Note_on_c, 7, 80, 100
1, 153937, Note_on_c, 3, 71, 0
1, 153937, Note_on_c, 3, 69, 127
1, 153937, Note_on_c, 7, 80, 0
1, 153937, Note_on_c, 7, 78, 100
1, 153967, Note_on_c, 3, 69, 0
1, 153967, Note_on_c, 3, 68, 127
1, 153967, Note_on_c, 7, 78, 0
1, 153967, Note_on_c, 7, 78, 100
1, 153967, Note_on_c, 7, 59, 100
1, 153967, Note_on_c, 7, 57, 0
1, 154027, Note_on_c, 3, 68, 0
1, 154027, Note_on_c, 7, 78, 0
1, 154027, Note_on_c, 7, 76, 100
1, 154027, Note_on_c, 7, 59, 0
1, 154087, Note_on_c, 3, 66, 127
1, 154087, Note_on_c, 7, 76, 0
1, 154087, Note_on_c, 7, 76, 100
1, 154087, Note_on_c, 7, 57, 100
1, 154147, Note_on_c, 3, 66, 0
1, 154147, Note_on_c, 7, 76, 0
1, 154147, Note_on_c, 7, 75, 100
1, 154147, Note_on_c, 7, 57, 0
1, 154207, Note_on_c, 3, 64, 127
1, 154207, Note_on_c, 7, 75, 0
1, 154207, Note_on_c, 7, 76, 100
1, 154207, Note_on_c, 7, 56, 100
1, 154267, Note_on_c, 3, 64, 0
1, 154267, Note_on_c, 7, 76, 0
1, 154267, Note_on_c, 7, 78, 100
1, 154267, Note_on_c, 7, 56, 0
1, 154327, Note_on_c, 3, 68, 127
1, 154327, Note_on_c, 7, 78, 0
1, 154327, Note_on_c, 7, 74, 100
1, 154327, Note_on_c, 7, 64, 100
1, 154387, Note_on_c, 3, 68, 0
1, 154387, Note_on_c, 7, 64, 0
1, 154447, Note_on_c, 7, 74, 0
1, 154507, Note_on_c, 3, 71, 127
1, 154507, Note_on_c, 7, 68, 100
1, 154567, Note_on_c, 3, 71, 0
1, 154567, Note_on_c, 3, 73, 127
1, 154567, Note_on_c, 7, 68, 0
1, 154567, Note_on_c, 7, 69, 100
1, 154567, Note_on_c, 7, 64, 100
1, 154567, Note_on_c, 7, 62, 100
1, 154627, Note_on_c, 3, 73, 0
1, 154627, Note_on_c, 3, 74, 127
1, 154627, Note_on_c, 7, 69, 0
1, 154627, Note_on_c, 7, 71, 100
1, 154687, Note_on_c, 3, 74, 0
1, 154687, Note_on_c, 3, 76, 127
1, 154687, Note_on_c, 7, 71, 0
1, 154687, Note_on_c, 7, 69, 100
1, 154687, Note_on_c, 7, 62, 0
1, 154687, Note_on_c, 7, 61, 100
1, 154747, Note_on_c, 3, 76, 0
1, 154747, Note_on_c, 3, 80, 127
1, 154777, Note_on_c, 3, 80, 0
1, 154777, Note_on_c, 3, 78, 127
1, 154807, Note_on_c, 3, 78, 0
1, 154807, Note_on_c, 3, 76, 127
1, 154807, Note_on_c, 7, 69, 0
1, 154807, Note_on_c, 7, 68, 100
1, 154807, Note_on_c, 7, 64, 0
1, 154807, Note_on_c, 7, 61, 0
1, 154807, Note_on_c, 7, 59, 100
1, 154807, Note_on_c, 7, 62, 100
1, 154807, Note_on_c, 7, 50, 100
1, 154837, Note_on_c, 3, 76, 0
1, 154837, Note_on_c, 3, 74, 127
1, 154837, Note_on_c, 7, 68, 0
1, 154837, Note_on_c, 7, 66, 100
1, 154867, Note_on_c, 3, 74, 0
1, 154867, Note_on_c, 3, 73, 127
1, 154867, Note_on_c, 7, 66, 0
1, 154867, Note_on_c, 7, 64, 100
1, 154867, Note_on_c, 7, 66, 100
1, 154867, Note_on_c, 7, 59, 0
1, 154867, Note_on_c, 7, 62, 0
1, 154867, Note_on_c, 7, 50, 0
1, 154897, Note_on_c, 3, 73, 0
1, 154897, Note_on_c, 3, 71, 127
1, 154897, Note_on_c, 7, 64, 0
1, 154897, Note_on_c, 7, 62, 100
1, 154927, Note_on_c, 3, 71, 0
1, 154927, Note_on_c, 3, 71, 127
1, 154927, Note_on_c, 7, 62, 0
1, 154927, Note_on_c, 7, 62, 100
1, 154927, Note_on_c, 7, 66, 0
1, 154927, Note_on_c, 7, 64, 100
1, 154927, Note_on_c, 7, 52, 100
1, 154987, Note_on_c, 3, 71, 0
1, 154987, Note_on_c, 3, 69, 127
1, 154987, Note_on_c, 7, 62, 0
1, 154987, Note_on_c, 7, 61, 100
1, 154987, Note_on_c, 7, 52, 0
1, 155047, Note_on_c, 3, 69, 0
1, 155047, Note_on_c, 3, 69, 127
1, 155047, Note_on_c, 7, 61, 0
1, 155047, Note_on_c, 7, 61, 100
1, 155047, Note_on_c, 7, 64, 0
1, 155047, Note_on_c, 7, 62, 100
1, 155047, Note_on_c, 7, 52, 100
1, 155047, Note_on_c, 7, 40, 100
1, 155107, Note_on_c, 3, 69, 0
1, 155107, Note_on_c, 3, 68, 127
1, 155107, Note_on_c, 7, 61, 0
1, 155107, Note_on_c, 7, 59, 100
1, 155107, Note_on_c, 7, 52, 0
1, 155107, Note_on_c, 7, 40, 0
1, 155167, Note_on_c, 3, 68, 0
1, 155167, Note_on_c, 3, 69, 127
1, 155167, Note_on_c, 7, 59, 0
1, 155167, Note_on_c, 7, 62, 0
1, 155167, Note_on_c, 7, 61, 100
1, 155167, Note_on_c, 7, 57, 100
1, 155167, Note_on_c, 7, 45, 100
1, 155197, Note_on_c, 7, 64, 100
1, 155227, Note_on_c, 7, 81, 100
1, 155227, Note_on_c, 7, 64, 0
1, 155227, Note_on_c, 7, 64, 100
1, 155227, Note_on_c, 7, 57, 0
1, 155227, Note_on_c, 7, 45, 0
1, 155242, Note_on_c, 7, 64, 0
1, 155257, Note_on_c, 7, 64, 100
1, 155272, Note_on_c, 7, 64, 0
1, 155287, Note_on_c, 3, 69, 0
1, 155287, Note_on_c, 7, 81, 0
1, 155287, Note_on_c, 7, 80, 100
1, 155287, Note_on_c, 7, 61, 0
1, 155287, Note_on_c, 7, 62, 100
1, 155287, Note_on_c, 7, 59, 100
1, 155287, Note_on_c, 7, 47, 100
1, 155317, Note_on_c, 7, 62, 0
1, 155317, Note_on_c, 7, 64, 100
1, 155347, Note_on_c, 7, 80, 0
1, 155347, Note_on_c, 7, 74, 100
1, 155347, Note_on_c, 7, 64, 0
1, 155347, Note_on_c, 7, 64, 100
1, 155347, Note_on_c, 7, 59, 0
1, 155347, Note_on_c, 7, 47, 0
1, 155362, Note_on_c, 7, 64, 0
1, 155377, Note_on_c, 7, 64, 100
1, 155392, Note_on_c, 7, 64, 0
1, 155407, Note_on_c, 7, 74, 0
1, 155407, Note_on_c, 7, 73, 100
1, 155407, Note_on_c, 7, 61, 100
1, 155407, Note_on_c, 7, 57, 100
1, 155407, Note_on_c, 7, 45, 100
1, 155437, Note_on_c, 7, 61, 0
1, 155437, Note_on_c, 7, 64, 100
1, 155467, Note_on_c, 7, 73, 0
1, 155467, Note_on_c, 7, 85, 100
1, 155467, Note_on_c, 7, 69, 100
1, 155467, Note_on_c, 7, 64, 0
1, 155467, Note_on_c, 7, 64, 100
1, 155467, Note_on_c, 7, 57, 0
1, 155467, Note_on_c, 7, 45, 0
1, 155477, Note_on_c, 7, 85, 0
1, 155477, Note_on_c, 7, 86, 100
1, 155482, Note_on_c, 7, 64, 0
1, 155487, Note_on_c, 7, 86, 0
1, 155487, Note_on_c, 7, 85, 100
1, 155497, Note_on_c, 7, 85, 0
1, 155497, Note_on_c, 7, 83, 100
1, 155497, Note_on_c, 7, 64, 100
1, 155512, Note_on_c, 7, 83, 0
1, 155512, Note_on_c, 7, 85, 100
1, 155512, Note_on_c, 7, 64, 0
1, 155527, Note_on_c, 7, 85, 0
1, 155527, Note_on_c, 7, 86, 100
1, 155527, Note_on_c, 7, 69, 0
1, 155527, Note_on_c, 7, 68, 100
1, 155527, Note_on_c, 7, 59, 100
1, 155527, Note_on_c, 7, 52, 100
1, 155527, Note_on_c, 7, 40, 100
1, 155557, Note_on_c, 7, 59, 0
1, 155557, Note_on_c, 7, 64, 100
1, 155587, Note_on_c, 7, 86, 0
1, 155587, Note_on_c, 7, 68, 0
1, 155587, Note_on_c, 7, 62, 100
1, 155587, Note_on_c, 7, 64, 0
1, 155587, Note_on_c, 7, 64, 100
1, 155587, Note_on_c, 7, 52, 0
1, 155587, Note_on_c, 7, 40, 0
1, 155602, Note_on_c, 7, 64, 0
1, 155617, Note_on_c, 7, 64, 100
1, 155632, Note_on_c, 7, 64, 0
1, 155647, Note_on_c, 7, 62, 0
1, 155647, Note_on_c, 7, 61, 100
1, 155647, Note_on_c, 7, 57, 100
1, 155647, Note_on_c, 7, 45, 100
1, 155677, Note_on_c, 7, 64, 100
1, 155707, Note_on_c, 7, 81, 100
1, 155707, Note_on_c, 7, 61, 0
1, 155707, Note_on_c, 7, 73, 100
1, 155707, Note_on_c, 7, 64, 0
1, 155707, Note_on_c, 7, 64, 100
1, 155707, Note_on_c, 7, 57, 0
1, 155707, Note_on_c, 7, 45, 0
1, 155717, Note_on_c, 7, 73, 0
1, 155717, Note_on_c, 7, 74, 100
1, 155722, Note_on_c, 7, 64, 0
1, 155727, Note_on_c, 7, 74, 0
1, 155727, Note_on_c, 7, 73, 100
1, 155737, Note_on_c, 7, 73, 0
1, 155737, Note_on_c, 7, 71, 100
1, 155737, Note_on_c, 7, 64, 100
1, 155752, Note_on_c, 7, 71, 0
1, 155752, Note_on_c, 7, 73, 100
1, 155752, Note_on_c, 7, 64, 0
1, 155767, Note_on_c, 7, 81, 0
1, 155767, Note_on_c, 7, 80, 100
1, 155767, Note_on_c, 7, 73, 0
1, 155767, Note_on_c, 7, 74, 100
1, 155767, Note_on_c, 7, 59, 100
1, 155767, Note_on_c, 7, 47, 100
1, 155797, Note_on_c, 7, 64, 100
1, 155827, Note_on_c, 7, 80, 0
1, 155827, Note_on_c, 7, 64, 0
1, 155827, Note_on_c, 7, 64, 100
1, 155827, Note_on_c, 7, 59, 0
1, 155827, Note_on_c, 7, 47, 0
1, 155842, Note_on_c, 7, 64, 0
1, 155857, Note_on_c, 7, 64, 100
1, 155872, Note_on_c, 7, 64, 0
1, 155887, Note_on_c, 7, 74, 0
1, 155887, Note_on_c, 7, 73, 100
1, 155887, Note_on_c, 7, 61, 100
1, 155887, Note_on_c, 7, 57, 100
1, 155887, Note_on_c, 7, 45, 100
1, 155917, Note_on_c, 7, 61, 0
1, 155917, Note_on_c, 7, 64, 100
1, 155947, Note_on_c, 7, 73, 0
1, 155947, Note_on_c, 7, 85, 100
1, 155947, Note_on_c, 7, 69, 100
1, 155947, Note_on_c, 7, 64, 0
1, 155947, Note_on_c, 7, 64, 100
1, 155947, Note_on_c, 7, 57, 0
1, 155947, Note_on_c, 7, 45, 0
1, 155957, Note_on_c, 7, 85, 0
1, 155957, Note_on_c, 7, 86, 100
1, 155962, Note_on_c, 7, 64, 0
1, 155967, Note_on_c, 7, 86, 0
1, 155967, Note_on_c, 7, 85, 100
1, 155977, Note_on_c, 7, 85, 0
1, 155977, Note_on_c, 7, 83, 100
1, 155977, Note_on_c, 7, 64, 100
1, 155992, Note_on_c, 7, 83, 0
1, 155992, Note_on_c, 7, 85, 100
1, 155992, Note_on_c, 7, 64, 0
1, 156007, Note_on_c, 7, 85, 0
1, 156007, Note_on_c, 7, 86, 100
1, 156007, Note_on_c, 7, 69, 0
1, 156007, Note_on_c, 7, 68, 100
1, 156007, Note_on_c, 7, 59, 100
1, 156007, Note_on_c, 7, 52, 100
1, 156007, Note_on_c, 7, 40, 100
1, 156037, Note_on_c, 7, 59, 0
1, 156037, Note_on_c, 7, 64, 100
1, 156067, Note_on_c, 7, 86, 0
1, 156067, Note_on_c, 7, 68, 0
1, 156067, Note_on_c, 7, 62, 100
1, 156067, Note_on_c, 7, 64, 0
1, 156067, Note_on_c, 7, 64, 100
1, 156067, Note_on_c, 7, 52, 0
1, 156067, Note_on_c, 7, 40, 0
1, 156082, Note_on_c, 7, 64, 0
1, 156097, Note_on_c, 7, 64, 100
1, 156112, Note_on_c, 7, 64, 0
1, 156127, Note_on_c, 3, 57, 127
1, 156127, Note_on_c, 4, 76, 80
1, 156127, Note_on_c, 5, 64, 80
1, 156127, Note_on_c, 7, 62, 0
1, 156127, Note_on_c, 7, 61, 100
1, 156127, Note_on_c, 7, 57, 100
1, 156157, Note_on_c, 3, 57, 0
1, 156157, Note_on_c, 3, 64, 127
1, 156187, Note_on_c, 3, 64, 0
1, 156187, Note_on_c, 3, 61, 127
1, 156187, Note_on_c, 7, 81, 100
1, 156187, Note_on_c, 7, 61, 0
1, 156187, Note_on_c, 7, 73, 100
1, 156187, Note_on_c, 7, 57, 0
1, 156197, Note_on_c, 7, 73, 0
1, 156197, Note_on_c, 7, 74, 100
1, 156207, Note_on_c, 7, 74, 0
1, 156207, Note_on_c, 7, 73, 100
1, 156217, Note_on_c, 3, 61, 0
1, 156217, Note_on_c, 3, 64, 127
1, 156217, Note_on_c, 7, 73, 0
1, 156217, Note_on_c, 7, 71, 100
1, 156232, Note_on_c, 7, 71, 0
1, 156232, Note_on_c, 7, 73, 100
1, 156247, Note_on_c, 3, 64, 0
1, 156247, Note_on_c, 3, 59, 127
1, 156247, Note_on_c, 7, 81, 0
1, 156247, Note_on_c, 7, 80, 100
1, 156247, Note_on_c, 7, 73, 0
1, 156247, Note_on_c, 7, 74, 100
1, 156247, Note_on_c, 7, 59, 100
1, 156277, Note_on_c, 3, 59, 0
1, 156277, Note_on_c, 3, 64, 127
1, 156307, Note_on_c, 3, 64, 0
1, 156307, Note_on_c, 3, 62, 127
1, 156307, Note_on_c, 7, 80, 0
1, 156307, Note_on_c, 7, 59, 0
1, 156337, Note_on_c, 3, 62, 0
1, 156337, Note_on_c, 3, 64, 127
1, 156367, Note_on_c, 3, 64, 0
1, 156367, Note_on_c, 3, 57, 127
1, 156367, Note_on_c, 7, 74, 0
1, 156367, Note_on_c, 7, 73, 100
1, 156367, Note_on_c, 7, 57, 100
1, 156397, Note_on_c, 3, 57, 0
1, 156397, Note_on_c, 3, 64, 127
1, 156427, Note_on_c, 3, 64, 0
1, 156427, Note_on_c, 3, 61, 127
1, 156427, Note_on_c, 7, 73, 0
1, 156427, Note_on_c, 7, 85, 100
1, 156427, Note_on_c, 7, 69, 100
1, 156427, Note_on_c, 7, 57, 0
1, 156437, Note_on_c, 7, 85, 0
1, 156437, Note_on_c, 7, 86, 100
1, 156447, Note_on_c, 7, 86, 0
1, 156447, Note_on_c, 7, 85, 100
1, 156457, Note_on_c, 3, 61, 0
1, 156457, Note_on_c, 3, 64, 127
1, 156457, Note_on_c, 7, 85, 0
1, 156457, Note_on_c, 7, 83, 100
1, 156472, Note_on_c, 7, 83, 0
1, 156472, Note_on_c, 7, 85, 100
1, 156487, Note_on_c, 3, 64, 0
1, 156487, Note_on_c, 3, 56, 127
1, 156487, Note_on_c, 7, 85, 0
1, 156487, Note_on_c, 7, 86, 100
1, 156487, Note_on_c, 7, 69, 0
1, 156487, Note_on_c, 7, 68, 100
1, 156487, Note_on_c, 7, 52, 100
1, 156517, Note_on_c, 3, 56, 0
1, 156517, Note_on_c, 3, 64, 127
1, 156547, Note_on_c, 3, 64, 0
1, 156547, Note_on_c, 3, 59, 127
1, 156547, Note_on_c, 7, 86, 0
1, 156547, Note_on_c, 7, 68, 0
1, 156547, Note_on_c, 7, 80, 100
1, 156547, Note_on_c, 7, 52, 0
1, 156557, Note_on_c, 7, 80, 0
1, 156557, Note_on_c, 7, 81, 100
1, 156567, Note_on_c, 7, 81, 0
1, 156567, Note_on_c, 7, 80, 100
1, 156577, Note_on_c, 3, 59, 0
1, 156577, Note_on_c, 3, 64, 127
1, 156577, Note_on_c, 7, 80, 0
1, 156577, Note_on_c, 7, 78, 100
1, 156592, Note_on_c, 7, 78, 0
1, 156592, Note_on_c, 7, 80, 100
1, 156607, Note_on_c, 3, 64, 0
1, 156607, Note_on_c, 3, 57, 127
1, 156607, Note_on_c, 7, 80, 0
1, 156607, Note_on_c, 7, 81, 100
1, 156607, Note_on_c, 7, 57, 100
1, 156637, Note_on_c, 3, 57, 0
1, 156637, Note_on_c, 3, 64, 127
1, 156667, Note_on_c, 3, 64, 0
1, 156667, Note_on_c, 3, 61, 127
1, 156667, Note_on_c, 7, 85, 100
1, 156667, Note_on_c, 7, 81, 0
1, 156667, Note_on_c, 7, 57, 0
1, 156677, Note_on_c, 7, 85, 0
1, 156677, Note_on_c, 7, 86, 100
1, 156687, Note_on_c, 7, 86, 0
1, 156687, Note_on_c, 7, 85, 100
1, 156697, Note_on_c, 3, 61, 0
1, 156697, Note_on_c, 3, 64, 127
1, 156697, Note_on_c, 7, 85, 0
1, 156697, Note_on_c, 7, 83, 100
1, 156712, Note_on_c, 7, 83, 0
1, 156712, Note_on_c, 7, 85, 100
1, 156727, Note_on_c, 3, 64, 0
1, 156727, Note_on_c, 3, 56, 127
1, 156727, Note_on_c, 7, 85, 0
1, 156727, Note_on_c, 7, 86, 100
1, 156727, Note_on_c, 7, 52, 100
1, 156757, Note_on_c, 3, 56, 0
1, 156757, Note_on_c, 3, 64, 127
1, 156787, Note_on_c, 3, 64, 0
1, 156787, Note_on_c, 3, 59, 127
1, 156787, Note_on_c, 7, 86, 0
1, 156787, Note_on_c, 7, 68, 100
1, 156787, Note_on_c, 7, 52, 0
1, 156797, Note_on_c, 7, 68, 0
1, 156797, Note_on_c, 7, 69, 100
1, 156807, Note_on_c, 7, 69, 0
1, 156807, Note_on_c, 7, 68, 100
1, 156817, Note_on_c, 3, 59, 0
1, 156817, Note_on_c, 3, 64, 127
1, 156817, Note_on_c, 7, 68, 0
1, 156817, Note_on_c, 7, 66, 100
1, 156832, Note_on_c, 7, 66, 0
1, 156832, Note_on_c, 7, 68, 100
1, 156847, Note_on_c, 3, 64, 0
1, 156847, Note_on_c, 3, 57, 127
1, 156847, Note_on_c, 7, 68, 0
1, 156847, Note_on_c, 7, 69, 100
1, 156847, Note_on_c, 7, 57, 100
1, 156877, Note_on_c, 3, 57, 0
1, 156877, Note_on_c, 3, 64, 127
1, 156907, Note_on_c, 3, 64, 0
1, 156907, Note_on_c, 3, 61, 127
1, 156907, Note_on_c, 7, 73, 100
1, 156907, Note_on_c, 7, 69, 0
1, 156907, Note_on_c, 7, 57, 0
1, 156917, Note_on_c, 7, 73, 0
1, 156917, Note_on_c, 7, 74, 100
1, 156927, Note_on_c, 7, 74, 0
1, 156927, Note_on_c, 7, 73, 100
1, 156937, Note_on_c, 3, 61, 0
1, 156937, Note_on_c, 3, 64, 127
1, 156937, Note_on_c, 7, 73, 0
1, 156937, Note_on_c, 7, 71, 100
1, 156952, Note_on_c, 7, 71, 0
1, 156952, Note_on_c, 7, 73, 100
1, 156967, Note_on_c, 3, 64, 0
1, 156967, Note_on_c, 3, 56, 127
1, 156967, Note_on_c, 7, 73, 0
1, 156967, Note_on_c, 7, 74, 100
1, 156967, Note_on_c, 7, 52, 100
1, 156997, Note_on_c, 3, 56, 0
1, 156997, Note_on_c, 3, 64, 127
1, 157027, Note_on_c, 3, 64, 0
1, 157027, Note_on_c, 3, 59, 127
1, 157027, Note_on_c, 7, 74, 0
1, 157027, Note_on_c, 7, 80, 100
1, 157027, Note_on_c, 7, 71, 100
1, 157027, Note_on_c, 7, 52, 0
1, 157037, Note_on_c, 7, 80, 0
1, 157037, Note_on_c, 7, 81, 100
1, 157037, Note_on_c, 7, 71, 0
1, 157037, Note_on_c, 7, 73, 100
1, 157047, Note_on_c, 7, 81, 0
1, 157047, Note_on_c, 7, 80, 100
1, 157047, Note_on_c, 7, 73, 0
1, 157047, Note_on_c, 7, 71, 100
1, 157057, Note_on_c, 3, 59, 0
1, 157057, Note_on_c, 3, 64, 127
1, 157057, Note_on_c, 7, 80, 0
1, 157057, Note_on_c, 7, 78, 100
1, 157057, Note_on_c, 7, 71, 0
1, 157057, Note_on_c, 7, 69, 100
1, 157072, Note_on_c, 7, 78, 0
1, 157072, Note_on_c, 7, 80, 100
1, 157072, Note_on_c, 7, 69, 0
1, 157072, Note_on_c, 7, 71, 100
1, 157087, Note_on_c, 3, 64, 0
1, 157087, Note_on_c, 3, 45, 127
1, 157087, Note_on_c, 4, 76, 0
1, 157087, Note_on_c, 5, 64, 0
1, 157087, Note_on_c, 7, 80, 0
1, 157087, Note_on_c, 7, 81, 100
1, 157087, Note_on_c, 7, 71, 0
1, 157087, Note_on_c, 7, 73, 100
1, 157087, Note_on_c, 7, 57, 100
1, 157087, Note_on_c, 7, 45, 100
1, 157117, Note_on_c, 3, 45, 0
1, 157117, Note_on_c, 3, 49, 127
1, 157147, Note_on_c, 3, 49, 0
1, 157147, Note_on_c, 3, 52, 127
1, 157147, Note_on_c, 7, 81, 0
1, 157147, Note_on_c, 7, 76, 100
1, 157177, Note_on_c, 3, 52, 0
1, 157177, Note_on_c, 3, 57, 127
1, 157207, Note_on_c, 3, 57, 0
1, 157207, Note_on_c, 3, 61, 127
1, 157207, Note_on_c, 7, 76, 0
1, 157207, Note_on_c, 7, 76, 100
1, 157207, Note_on_c, 7, 73, 0
1, 157207, Note_on_c, 7, 73, 100
1, 157207, Note_on_c, 7, 64, 100
1, 157207, Note_on_c, 7, 57, 0
1, 157207, Note_on_c, 7, 45, 0
1, 157237, Note_on_c, 3, 61, 0
1, 157237, Note_on_c, 3, 64, 127
1, 157237, Note_on_c, 7, 76, 0
1, 157237, Note_on_c, 7, 73, 0
1, 157267, Note_on_c, 3, 64, 0
1, 157267, Note_on_c, 3, 69, 127
1, 157267, Note_on_c, 7, 76, 100
1, 157267, Note_on_c, 7, 73, 100
1, 157267, Note_on_c, 7, 64, 0
1, 157297, Note_on_c, 3, 69, 0
1, 157297, Note_on_c, 3, 73, 127
1, 157297, Note_on_c, 7, 76, 0
1, 157297, Note_on_c, 7, 73, 0
1, 157327, Note_on_c, 3, 73, 0
1, 157327, Note_on_c, 3, 76, 127
1, 157327, Note_on_c, 7, 76, 100
1, 157327, Note_on_c, 7, 73, 100
1, 157327, Note_on_c, 7, 61, 100
1, 157357, Note_on_c, 3, 76, 0
1, 157357, Note_on_c, 3, 81, 127
1, 157387, Note_on_c, 3, 81, 0
1, 157387, Note_on_c, 3, 76, 127
1, 157387, Note_on_c, 7, 61, 0
1, 157417, Note_on_c, 3, 76, 0
1, 157417, Note_on_c, 3, 73, 127
1, 157447, Note_on_c, 3, 73, 0
1, 157447, Note_on_c, 3, 69, 127
1, 157447, Note_on_c, 7, 57, 100
1, 157477, Note_on_c, 3, 69, 0
1, 157477, Note_on_c, 3, 64, 127
1, 157507, Note_on_c, 3, 64, 0
1, 157507, Note_on_c, 3, 61, 127
1, 157507, Note_on_c, 7, 76, 0
1, 157507, Note_on_c, 7, 81, 100
1, 157507, Note_on_c, 7, 73, 0
1, 157507, Note_on_c, 7, 76, 100
1, 157507, Note_on_c, 7, 57, 0
1, 157537, Note_on_c, 3, 61, 0
1, 157537, Note_on_c, 3, 57, 127
1, 157567, Note_on_c, 3, 57, 0
1, 157567, Note_on_c, 3, 50, 127
1, 157567, Note_on_c, 7, 81, 0
1, 157567, Note_on_c, 7, 81, 100
1, 157567, Note_on_c, 7, 76, 0
1, 157567, Note_on_c, 7, 78, 100
1, 157567, Note_on_c, 7, 50, 100
1, 157567, Note_on_c, 7, 38, 100
1, 157597, Note_on_c, 3, 50, 0
1, 157597, Note_on_c, 3, 54, 127
1, 157627, Note_on_c, 3, 54, 0
1, 157627, Note_on_c, 3, 57, 127
1, 157627, Note_on_c, 7, 81, 0
1, 157627, Note_on_c, 7, 74, 100
1, 157657, Note_on_c, 3, 57, 0
1, 157657, Note_on_c, 3, 62, 127
1, 157687, Note_on_c, 3, 62, 0
1, 157687, Note_on_c, 3, 66, 127
1, 157687, Note_on_c, 7, 78, 0
1, 157687, Note_on_c, 7, 78, 100
1, 157687, Note_on_c, 7, 74, 0
1, 157687, Note_on_c, 7, 74, 100
1, 157687, Note_on_c, 7, 57, 100
1, 157687, Note_on_c, 7, 50, 0
1, 157687, Note_on_c, 7, 38, 0
1, 157717, Note_on_c, 3, 66, 0
1, 157717, Note_on_c, 3, 69, 127
1, 157717, Note_on_c, 7, 78, 0
1, 157717, Note_on_c, 7, 74, 0
1, 157747, Note_on_c, 3, 69, 0
1, 157747, Note_on_c, 3, 74, 127
1, 157747, Note_on_c, 7, 78, 100
1, 157747, Note_on_c, 7, 74, 100
1, 157747, Note_on_c, 7, 57, 0
1, 157777, Note_on_c, 3, 74, 0
1, 157777, Note_on_c, 3, 78, 127
1, 157777, Note_on_c, 7, 78, 0
1, 157777, Note_on_c, 7, 74, 0
1, 157807, Note_on_c, 3, 78, 0
1, 157807, Note_on_c, 3, 81, 127
1, 157807, Note_on_c, 7, 78, 100
1, 157807, Note_on_c, 7, 74, 100
1, 157807, Note_on_c, 7, 56, 100
1, 157837, Note_on_c, 3, 81, 0
1, 157837, Note_on_c, 3, 78, 127
1, 157867, Note_on_c, 3, 78, 0
1, 157867, Note_on_c, 3, 74, 127
1, 157867, Note_on_c, 7, 56, 0
1, 157897, Note_on_c, 3, 74, 0
1, 157897, Note_on_c, 3, 69, 127
1, 157927, Note_on_c, 3, 69, 0
1, 157927, Note_on_c, 3, 66, 127
1, 157927, Note_on_c, 7, 54, 100
1, 157957, Note_on_c, 3, 66, 0
1, 157957, Note_on_c, 3, 62, 127
1, 157987, Note_on_c, 3, 62, 0
1, 157987, Note_on_c, 3, 57, 127
1, 157987, Note_on_c, 7, 78, 0
1, 157987, Note_on_c, 7, 81, 100
1, 157987, Note_on_c, 7, 74, 0
1, 157987, Note_on_c, 7, 78, 100
1, 157987, Note_on_c, 7, 54, 0
1, 158017, Note_on_c, 3, 57, 0
1, 158017, Note_on_c, 3, 54, 127
1, 158047, Note_on_c, 3, 54, 0
1, 158047, Note_on_c, 3, 52, 127
1, 158047, Note_on_c, 7, 81, 0
1, 158047, Note_on_c, 7, 81, 100
1, 158047, Note_on_c, 7, 78, 0
1, 158047, Note_on_c, 7, 73, 100
1, 158047, Note_on_c, 7, 52, 100
1, 158047, Note_on_c, 7, 40, 100
1, 158077, Note_on_c, 3, 52, 0
1, 158077, Note_on_c, 3, 57, 127
1, 158107, Note_on_c, 3, 57, 0
1, 158107, Note_on_c, 3, 61, 127
1, 158107, Note_on_c, 7, 81, 0
1, 158107, Note_on_c, 7, 76, 100
1, 158107, Note_on_c, 7, 57, 100
1, 158137, Note_on_c, 3, 61, 0
1, 158137, Note_on_c, 3, 64, 127
1, 158167, Note_on_c, 3, 64, 0
1, 158167, Note_on_c, 3, 69, 127
1, 158167, Note_on_c, 7, 76, 0
1, 158167, Note_on_c, 7, 69, 100
1, 158167, Note_on_c, 7, 57, 0
1, 158167, Note_on_c, 7, 61, 100
1, 158167, Note_on_c, 7, 52, 0
1, 158167, Note_on_c, 7, 40, 0
1, 158197, Note_on_c, 3, 69, 0
1, 158197, Note_on_c, 3, 64, 127
1, 158227, Note_on_c, 3, 64, 0
1, 158227, Note_on_c, 3, 61, 127
1, 158227, Note_on_c, 7, 73, 0
1, 158227, Note_on_c, 7, 76, 100
1, 158227, Note_on_c, 7, 69, 0
1, 158227, Note_on_c, 7, 73, 100
1, 158227, Note_on_c, 7, 61, 0
1, 158227, Note_on_c, 7, 57, 100
1, 158257, Note_on_c, 3, 61, 0
1, 158257, Note_on_c, 3, 57, 127
1, 158287, Note_on_c, 3, 57, 0
1, 158287, Note_on_c, 3, 52, 127
1, 158287, Note_on_c, 7, 76, 0
1, 158287, Note_on_c, 7, 76, 100
1, 158287, Note_on_c, 7, 73, 0
1, 158287, Note_on_c, 7, 73, 100
1, 158287, Note_on_c, 7, 57, 0
1, 158287, Note_on_c, 7, 64, 100
1, 158287, Note_on_c, 7, 52, 100
1, 158287, Note_on_c, 7, 40, 100
1, 158347, Note_on_c, 7, 76, 0
1, 158347, Note_on_c, 7, 74, 100
1, 158347, Note_on_c, 7, 73, 0
1, 158347, Note_on_c, 7, 71, 100
1, 158347, Note_on_c, 7, 64, 0
1, 158407, Note_on_c, 3, 52, 0
1, 158407, Note_on_c, 7, 74, 0
1, 158407, Note_on_c, 7, 73, 100
1, 158407, Note_on_c, 7, 71, 0
1, 158407, Note_on_c, 7, 69, 100
1, 158407, Note_on_c, 7, 40, 0
1, 158467, Note_on_c, 7, 73, 0
1, 158467, Note_on_c, 7, 71, 100
1, 158467, Note_on_c, 7, 69, 0
1, 158467, Note_on_c, 7, 68, 100
1, 158467, Note_on_c, 7, 52, 0
1, 158527, Note_on_c, 3, 57, 127
1, 158527, Note_on_c, 7, 71, 0
1, 158527, Note_on_c, 7, 69, 100
1, 158527, Note_on_c, 7, 68, 0
1, 158527, Note_on_c, 7, 57, 100
1, 158527, Note_on_c, 7, 45, 100
1, 158527, Note_on_c, 7, 33, 100
1, 158587, Note_on_c, 3, 57, 0
1, 158587, Note_on_c, 3, 59, 127
1, 158602, Note_on_c, 3, 59, 0
1, 158617, Note_on_c, 3, 61, 127
1, 158632, Note_on_c, 3, 61, 0
1, 158647, Note_on_c, 3, 62, 127
1, 158647, Note_on_c, 7, 69, 0
1, 158647, Note_on_c, 7, 57, 0
1, 158647, Note_on_c, 7, 45, 0
1, 158647, Note_on_c, 7, 33, 0
1, 158662, Note_on_c, 3, 62, 0
1, 158677, Note_on_c, 3, 64, 127
1, 158692, Note_on_c, 3, 64, 0
1, 158707, Note_on_c, 3, 66, 127
1, 158722, Note_on_c, 3, 66, 0
1, 158737, Note_on_c, 3, 68, 127
1, 158752, Note_on_c, 3, 68, 0
1, 158767, Note_on_c, 3, 69, 127
1, 158797, Note_on_c, 3, 69, 0
1, 158797, Note_on_c, 3, 71, 127
1, 158827, Note_on_c, 3, 71, 0
1, 158827, Note_on_c, 3, 73, 127
1, 158842, Note_on_c, 3, 73, 0
1, 158857, Note_on_c, 3, 74, 127
1, 158872, Note_on_c, 3, 74, 0
1, 158887, Note_on_c, 3, 76, 127
1, 158902, Note_on_c, 3, 76, 0
1, 158917, Note_on_c, 3, 78, 127
1, 158932, Note_on_c, 3, 78, 0
1, 158947, Note_on_c, 3, 80, 127
1, 158962, Note_on_c, 3, 80, 0
1, 158977, Note_on_c, 3, 81, 127
1, 158992, Note_on_c, 3, 81, 0
1, 159007, Note_on_c, 3, 81, 127
1, 159007, Note_on_c, 7, 67, 100
1, 159007, Note_on_c, 7, 64, 100
1, 159007, Note_on_c, 7, 57, 100
1, 159007, Note_on_c, 7, 49, 100
1, 159007, Note_on_c, 7, 37, 100
1, 159037, Note_on_c, 3, 81, 0
1, 159037, Note_on_c, 3, 79, 127
1, 159067, Note_on_c, 3, 79, 0
1, 159067, Note_on_c, 3, 76, 127
1, 159097, Note_on_c, 3, 76, 0
1, 159097, Note_on_c, 3, 73, 127
1, 159127, Note_on_c, 3, 73, 0
1, 159127, Note_on_c, 3, 69, 127
1, 159157, Note_on_c, 3, 69, 0
1, 159157, Note_on_c, 3, 67, 127
1, 159187, Note_on_c, 3, 67, 0
1, 159187, Note_on_c, 3, 64, 127
1, 159217, Note_on_c, 3, 64, 0
1, 159217, Note_on_c, 3, 61, 127
1, 159247, Note_on_c, 3, 61, 0
1, 159247, Note_on_c, 3, 57, 127
1, 159277, Note_on_c, 3, 57, 0
1, 159277, Note_on_c, 3, 61, 127
1, 159307, Note_on_c, 3, 61, 0
1, 159307, Note_on_c, 3, 64, 127
1, 159337, Note_on_c, 3, 64, 0
1, 159337, Note_on_c, 3, 67, 127
1, 159367, Note_on_c, 3, 67, 0
1, 159367, Note_on_c, 3, 69, 127
1, 159397, Note_on_c, 3, 69, 0
1, 159397, Note_on_c, 3, 73, 127
1, 159427, Note_on_c, 3, 73, 0
1, 159427, Note_on_c, 3, 76, 127
1, 159457, Note_on_c, 3, 76, 0
1, 159457, Note_on_c, 3, 79, 127
1, 159487, Note_on_c, 3, 79, 0
1, 159487, Note_on_c, 3, 78, 127
1, 159487, Note_on_c, 7, 67, 0
1, 159487, Note_on_c, 7, 66, 100
1, 159487, Note_on_c, 7, 64, 0
1, 159487, Note_on_c, 7, 62, 100
1, 159487, Note_on_c, 7, 49, 0
1, 159487, Note_on_c, 7, 50, 100
1, 159487, Note_on_c, 7, 37, 0
1, 159487, Note_on_c, 7, 38, 100
1, 159517, Note_on_c, 3, 78, 0
1, 159517, Note_on_c, 3, 81, 127
1, 159547, Note_on_c, 3, 81, 0
1, 159547, Note_on_c, 3, 78, 127
1, 159547, Note_on_c, 7, 57, 0
1, 159547, Note_on_c, 7, 69, 100
1, 159547, Note_on_c, 7, 50, 0
1, 159547, Note_on_c, 7, 38, 0
1, 159577, Note_on_c, 3, 78, 0
1, 159577, Note_on_c, 3, 74, 127
1, 159577, Note_on_c, 7, 69, 0
1, 159607, Note_on_c, 3, 74, 0
1, 159607, Note_on_c, 3, 73, 127
1, 159607, Note_on_c, 7, 66, 0
1, 159607, Note_on_c, 7, 62, 0
1, 159607, Note_on_c, 7, 69, 100
1, 159607, Note_on_c, 7, 57, 100
1, 159607, Note_on_c, 7, 45, 100
1, 159637, Note_on_c, 3, 73, 0
1, 159637, Note_on_c, 3, 76, 127
1, 159667, Note_on_c, 3, 76, 0
1, 159667, Note_on_c, 3, 73, 127
1, 159667, Note_on_c, 7, 79, 100
1, 159667, Note_on_c, 7, 76, 100
1, 159667, Note_on_c, 7, 57, 0
1, 159667, Note_on_c, 7, 45, 0
1, 159677, Note_on_c, 7, 79, 0
1, 159677, Note_on_c, 7, 81, 100
1, 159677, Note_on_c, 7, 76, 0
1, 159677, Note_on_c, 7, 78, 100
1, 159687, Note_on_c, 7, 81, 0
1, 159687, Note_on_c, 7, 79, 100
1, 159687, Note_on_c, 7, 78, 0
1, 159687, Note_on_c, 7, 76, 100
1, 159697, Note_on_c, 3, 73, 0
1, 159697, Note_on_c, 3, 69, 127
1, 159697, Note_on_c, 7, 79, 0
1, 159697, Note_on_c, 7, 78, 100
1, 159697, Note_on_c, 7, 76, 0
1, 159697, Note_on_c, 7, 74, 100
1, 159712, Note_on_c, 7, 78, 0
1, 159712, Note_on_c, 7, 79, 100
1, 159712, Note_on_c, 7, 74, 0
1, 159712, Note_on_c, 7, 76, 100
1, 159727, Note_on_c, 3, 69, 0
1, 159727, Note_on_c, 3, 78, 127
1, 159727, Note_on_c, 7, 79, 0
1, 159727, Note_on_c, 7, 78, 100
1, 159727, Note_on_c, 7, 76, 0
1, 159727, Note_on_c, 7, 74, 100
1, 159727, Note_on_c, 7, 62, 100
1, 159727, Note_on_c, 7, 50, 100
1, 159757, Note_on_c, 3, 78, 0
1, 159757, Note_on_c, 3, 81, 127
1, 159757, Note_on_c, 7, 78, 0
1, 159757, Note_on_c, 7, 74, 0
1, 159787, Note_on_c, 3, 81, 0
1, 159787, Note_on_c, 3, 78, 127
1, 159787, Note_on_c, 7, 78, 100
1, 159787, Note_on_c, 7, 74, 100
1, 159787, Note_on_c, 7, 62, 0
1, 159787, Note_on_c, 7, 50, 0
1, 159817, Note_on_c, 3, 78, 0
1, 159817, Note_on_c, 3, 74, 127
1, 159817, Note_on_c, 7, 78, 0
1, 159817, Note_on_c, 7, 74, 0
1, 159847, Note_on_c, 3, 74, 0
1, 159847, Note_on_c, 3, 73, 127
1, 159847, Note_on_c, 7, 79, 100
1, 159847, Note_on_c, 7, 76, 100
1, 159847, Note_on_c, 7, 57, 100
1, 159847, Note_on_c, 7, 45, 100
1, 159877, Note_on_c, 3, 73, 0
1, 159877, Note_on_c, 3, 76, 127
1, 159877, Note_on_c, 7, 79, 0
1, 159877, Note_on_c, 7, 76, 0
1, 159907, Note_on_c, 3, 76, 0
1, 159907, Note_on_c, 3, 73, 127
1, 159907, Note_on_c, 7, 79, 100
1, 159907, Note_on_c, 7, 76, 100
1, 159907, Note_on_c, 7, 57, 0
1, 159907, Note_on_c, 7, 45, 0
1, 159937, Note_on_c, 3, 73, 0
1, 159937, Note_on_c, 3, 69, 127
1, 159937, Note_on_c, 7, 79, 0
1, 159937, Note_on_c, 7, 76, 0
1, 159967, Note_on_c, 3, 69, 0
1, 159967, Note_on_c, 3, 66, 127
1, 159967, Note_on_c, 7, 78, 100
1, 159967, Note_on_c, 7, 74, 100
1, 159967, Note_on_c, 7, 62, 100
1, 159967, Note_on_c, 7, 50, 100
1, 159997, Note_on_c, 3, 66, 0
1, 159997, Note_on_c, 3, 69, 127
1, 160027, Note_on_c, 3, 69, 0
1, 160027, Note_on_c, 3, 66, 127
1, 160027, Note_on_c, 7, 69, 0
1, 160027, Note_on_c, 7, 57, 100
1, 160027, Note_on_c, 7, 62, 0
1, 160027, Note_on_c, 7, 50, 0
1, 160057, Note_on_c, 3, 66, 0
1, 160057, Note_on_c, 3, 62, 127
1, 160057, Note_on_c, 7, 57, 0
1, 160087, Note_on_c, 3, 62, 0
1, 160087, Note_on_c, 3, 61, 127
1, 160087, Note_on_c, 7, 78, 0
1, 160087, Note_on_c, 7, 74, 0
1, 160087, Note_on_c, 7, 57, 100
1, 160087, Note_on_c, 7, 45, 100
1, 160117, Note_on_c, 3, 61, 0
1, 160117, Note_on_c, 3, 64, 127
1, 160147, Note_on_c, 3, 64, 0
1, 160147, Note_on_c, 3, 61, 127
1, 160147, Note_on_c, 4, 79, 80
1, 160147, Note_on_c, 4, 76, 80
1, 160147, Note_on_c, 7, 67, 100
1, 160147, Note_on_c, 7, 64, 100
1, 160147, Note_on_c, 7, 45, 0
1, 160157, Note_on_c, 7, 67, 0
1, 160157, Note_on_c, 7, 69, 100
1, 160157, Note_on_c, 7, 64, 0
1, 160157, Note_on_c, 7, 66, 100
1, 160167, Note_on_c, 7, 69, 0
1, 160167, Note_on_c, 7, 67, 100
1, 160167, Note_on_c, 7, 66, 0
1, 160167, Note_on_c, 7, 64, 100
1, 160177, Note_on_c, 3, 61, 0
1, 160177, Note_on_c, 3, 57, 127
1, 160177, Note_on_c, 4, 79, 0
1, 160177, Note_on_c, 4, 76, 0
1, 160177, Note_on_c, 7, 67, 0
1, 160177, Note_on_c, 7, 66, 100
1, 160177, Note_on_c, 7, 64, 0
1, 160177, Note_on_c, 7, 62, 100
1, 160192, Note_on_c, 7, 66, 0
1, 160192, Note_on_c, 7, 67, 100
1, 160192, Note_on_c, 7, 62, 0
1, 160192, Note_on_c, 7, 64, 100
1, 160207, Note_on_c, 3, 57, 0
1, 160207, Note_on_c, 3, 66, 127
1, 160207, Note_on_c, 4, 78, 80
1, 160207, Note_on_c, 4, 74, 80
1, 160207, Note_on_c, 7, 67, 0
1, 160207, Note_on_c, 7, 66, 100
1, 160207, Note_on_c, 7, 64, 0
1, 160207, Note_on_c, 7, 62, 100
1, 160207, Note_on_c, 7, 50, 100
1, 160207, Note_on_c, 7, 38, 100
1, 160237, Note_on_c, 3, 66, 0
1, 160237, Note_on_c, 3, 69, 127
1, 160237, Note_on_c, 4, 78, 0
1, 160237, Note_on_c, 4, 74, 0
1, 160237, Note_on_c, 7, 66, 0
1, 160237, Note_on_c, 7, 62, 0
1, 160267, Note_on_c, 3, 69, 0
1, 160267, Note_on_c, 3, 66, 127
1, 160267, Note_on_c, 4, 78, 80
1, 160267, Note_on_c, 4, 74, 80
1, 160267, Note_on_c, 7, 66, 100
1, 160267, Note_on_c, 7, 62, 100
1, 160267, Note_on_c, 7, 50, 0
1, 160267, Note_on_c, 7, 38, 0
1, 160297, Note_on_c, 3, 66, 0
1, 160297, Note_on_c, 3, 62, 127
1, 160297, Note_on_c, 4, 78, 0
1, 160297, Note_on_c, 4, 74, 0
1, 160297, Note_on_c, 7, 66, 0
1, 160297, Note_on_c, 7, 62, 0
1, 160327, Note_on_c, 3, 62, 0
1, 160327, Note_on_c, 3, 61, 127
1, 160327, Note_on_c, 4, 79, 80
1, 160327, Note_on_c, 4, 76, 80
1, 160327, Note_on_c, 7, 67, 100
1, 160327, Note_on_c, 7, 64, 100
1, 160327, Note_on_c, 7, 45, 100
1, 160357, Note_on_c, 3, 61, 0
1, 160357, Note_on_c, 3, 64, 127
1, 160357, Note_on_c, 4, 79, 0
1, 160357, Note_on_c, 4, 76, 0
1, 160357, Note_on_c, 7, 67, 0
1, 160357, Note_on_c, 7, 64, 0
1, 160387, Note_on_c, 3, 64, 0
1, 160387, Note_on_c, 3, 61, 127
1, 160387, Note_on_c, 4, 79, 80
1, 160387, Note_on_c, 4, 76, 80
1, 160387, Note_on_c, 7, 67, 100
1, 160387, Note_on_c, 7, 64, 100
1, 160387, Note_on_c, 7, 45, 0
1, 160417, Note_on_c, 3, 61, 0
1, 160417, Note_on_c, 3, 57, 127
1, 160417, Note_on_c, 4, 79, 0
1, 160417, Note_on_c, 4, 76, 0
1, 160417, Note_on_c, 7, 67, 0
1, 160417, Note_on_c, 7, 64, 0
1, 160447, Note_on_c, 3, 57, 0
1, 160447, Note_on_c, 3, 54, 127
1, 160447, Note_on_c, 4, 78, 80
1, 160447, Note_on_c, 4, 74, 80
1, 160447, Note_on_c, 7, 66, 100
1, 160447, Note_on_c, 7, 62, 100
1, 160447, Note_on_c, 7, 57, 0
1, 160447, Note_on_c, 7, 57, 100
1, 160447, Note_on_c, 7, 50, 100
1, 160447, Note_on_c, 7, 38, 100
1, 160477, Note_on_c, 3, 54, 0
1, 160477, Note_on_c, 3, 57, 127
1, 160477, Note_on_c, 7, 62, 0
1, 160507, Note_on_c, 3, 57, 0
1, 160507, Note_on_c, 3, 54, 127
1, 160507, Note_on_c, 7, 50, 0
1, 160507, Note_on_c, 7, 38, 0
1, 160537, Note_on_c, 3, 54, 0
1, 160537, Note_on_c, 3, 50, 127
1, 160567, Note_on_c, 3, 50, 0
1, 160567, Note_on_c, 3, 49, 127
1, 160567, Note_on_c, 4, 78, 0
1, 160567, Note_on_c, 4, 74, 0
1, 160567, Note_on_c, 7, 66, 0
1, 160567, Note_on_c, 7, 45, 100
1, 160567, Note_on_c, 7, 33, 100
1, 160597, Note_on_c, 3, 49, 0
1, 160597, Note_on_c, 3, 52, 127
1, 160627, Note_on_c, 3, 52, 0
1, 160627, Note_on_c, 3, 49, 127
1, 160627, Note_on_c, 4, 68, 80
1, 160627, Note_on_c, 4, 64, 80
1, 160627, Note_on_c, 5, 55, 80
1, 160627, Note_on_c, 5, 52, 80
1, 160627, Note_on_c, 7, 64, 100
1, 160627, Note_on_c, 7, 55, 100
1, 160627, Note_on_c, 7, 45, 0
1, 160627, Note_on_c, 7, 33, 0
1, 160635, Note_on_c, 7, 55, 0
1, 160637, Note_on_c, 7, 64, 0
1, 160637, Note_on_c, 7, 66, 100
1, 160642, Note_on_c, 7, 55, 100
1, 160647, Note_on_c, 7, 66, 0
1, 160647, Note_on_c, 7, 64, 100
1, 160650, Note_on_c, 7, 55, 0
1, 160657, Note_on_c, 3, 49, 0
1, 160657, Note_on_c, 3, 45, 127
1, 160657, Note_on_c, 4, 68, 0
1, 160657, Note_on_c, 4, 64, 0
1, 160657, Note_on_c, 7, 64, 0
1, 160657, Note_on_c, 7, 62, 100
1, 160657, Note_on_c, 7, 54, 100
1, 160672, Note_on_c, 7, 62, 0
1, 160672, Note_on_c, 7, 64, 100
1, 160672, Note_on_c, 7, 54, 0
1, 160672, Note_on_c, 7, 55, 100
1, 160687, Note_on_c, 3, 45, 0
1, 160687, Note_on_c, 3, 54, 127
1, 160687, Note_on_c, 4, 66, 80
1, 160687, Note_on_c, 4, 62, 80
1, 160687, Note_on_c, 5, 55, 0
1, 160687, Note_on_c, 5, 54, 80
1, 160687, Note_on_c, 5, 52, 0
1, 160687, Note_on_c, 5, 50, 80
1, 160687, Note_on_c, 7, 64, 0
1, 160687, Note_on_c, 7, 62, 100
1, 160687, Note_on_c, 7, 55, 0
1, 160687, Note_on_c, 7, 54, 100
1, 160687, Note_on_c, 7, 50, 100
1, 160687, Note_on_c, 7, 38, 100
1, 160717, Note_on_c, 3, 54, 0
1, 160717, Note_on_c, 3, 57, 127
1, 160717, Note_on_c, 4, 66, 0
1, 160717, Note_on_c, 4, 62, 0
1, 160717, Note_on_c, 5, 54, 0
1, 160717, Note_on_c, 5, 50, 0
1, 160717, Note_on_c, 7, 62, 0
1, 160717, Note_on_c, 7, 54, 0
1, 160747, Note_on_c, 3, 57, 0
1, 160747, Note_on_c, 3, 54, 127
1, 160747, Note_on_c, 4, 66, 80
1, 160747, Note_on_c, 4, 62, 80
1, 160747, Note_on_c, 5, 54, 80
1, 160747, Note_on_c, 5, 50, 80
1, 160747, Note_on_c, 7, 62, 100
1, 160747, Note_on_c, 7, 54, 100
1, 160747, Note_on_c, 7, 50, 0
1, 160747, Note_on_c, 7, 38, 0
1, 160777, Note_on_c, 3, 54, 0
1, 160777, Note_on_c, 3, 50, 127
1, 160777, Note_on_c, 4, 66, 0
1, 160777, Note_on_c, 4, 62, 0
1, 160777, Note_on_c, 5, 54, 0
1, 160777, Note_on_c, 5, 50, 0
1, 160777, Note_on_c, 7, 62, 0
1, 160777, Note_on_c, 7, 54, 0
1, 160807, Note_on_c, 3, 50, 0
1, 160807, Note_on_c, 3, 49, 127
1, 160807, Note_on_c, 4, 67, 80
1, 160807, Note_on_c, 4, 64, 80
1, 160807, Note_on_c, 5, 55, 80
1, 160807, Note_on_c, 5, 52, 80
1, 160807, Note_on_c, 7, 64, 100
1, 160807, Note_on_c, 7, 55, 100
1, 160807, Note_on_c, 7, 45, 100
1, 160807, Note_on_c, 7, 33, 100
1, 160837, Note_on_c, 3, 49, 0
1, 160837, Note_on_c, 3, 52, 127
1, 160837, Note_on_c, 4, 67, 0
1, 160837, Note_on_c, 4, 64, 0
1, 160837, Note_on_c, 5, 55, 0
1, 160837, Note_on_c, 5, 52, 0
1, 160837, Note_on_c, 7, 64, 0
1, 160837, Note_on_c, 7, 55, 0
1, 160867, Note_on_c, 3, 52, 0
1, 160867, Note_on_c, 3, 49, 127
1, 160867, Note_on_c, 4, 67, 80
1, 160867, Note_on_c, 4, 64, 80
1, 160867, Note_on_c, 5, 55, 80
1, 160867, Note_on_c, 5, 52, 80
1, 160867, Note_on_c, 7, 64, 100
1, 160867, Note_on_c, 7, 55, 100
1, 160867, Note_on_c, 7, 45, 0
1, 160867, Note_on_c, 7, 33, 0
1, 160897, Note_on_c, 3, 49, 0
1, 160897, Note_on_c, 3, 45, 127
1, 160897, Note_on_c, 4, 67, 0
1, 160897, Note_on_c, 4, 64, 0
1, 160897, Note_on_c, 5, 55, 0
1, 160897, Note_on_c, 5, 52, 0
1, 160897, Note_on_c, 7, 64, 0
1, 160897, Note_on_c, 7, 55, 0
1, 160927, Note_on_c, 3, 45, 0
1, 160927, Note_on_c, 3, 50, 127
1, 160927, Note_on_c, 4, 66, 80
1, 160927, Note_on_c, 4, 62, 80
1, 160927, Note_on_c, 5, 54, 80
1, 160927, Note_on_c, 5, 50, 80
1, 160927, Note_on_c, 7, 62, 100
1, 160927, Note_on_c, 7, 54, 100
1, 160927, Note_on_c, 7, 50, 100
1, 160927, Note_on_c, 7, 38, 100
1, 160987, Note_on_c, 3, 50, 0
1, 160987, Note_on_c, 3, 54, 127
1, 161002, Note_on_c, 3, 54, 0
1, 161017, Note_on_c, 3, 57, 127
1, 161032, Note_on_c, 3, 57, 0
1, 161047, Note_on_c, 3, 62, 127
1, 161047, Note_on_c, 4, 66, 0
1, 161047, Note_on_c, 4, 62, 0
1, 161047, Note_on_c, 5, 54, 0
1, 161047, Note_on_c, 5, 50, 0
1, 161047, Note_on_c, 7, 62, 0
1, 161047, Note_on_c, 7, 57, 0
1, 161047, Note_on_c, 7, 54, 0
1, 161047, Note_on_c, 7, 50, 0
1, 161047, Note_on_c, 7, 38, 0
1, 161062, Note_on_c, 3, 62, 0
1, 161077, Note_on_c, 3, 66, 127
1, 161092, Note_on_c, 3, 66, 0
1, 161107, Note_on_c, 3, 69, 127
1, 161122, Note_on_c, 3, 69, 0
1, 161137, Note_on_c, 3, 74, 127
1, 161152, Note_on_c, 3, 74, 0
1, 161167, Note_on_c, 3, 78, 127
1, 161227, Note_on_c, 7, 66, 100
1, 161227, Note_on_c, 7, 57, 100
1, 161227, Note_on_c, 7, 62, 100
1, 161227, Note_on_c, 7, 50, 100
1, 161227, Note_on_c, 7, 38, 100
1, 161287, Note_on_c, 3, 78, 0
1, 161287, Note_on_c, 7, 66, 0
1, 161287, Note_on_c, 7, 66, 100
1, 161287, Note_on_c, 7, 57, 0
1, 161287, Note_on_c, 7, 57, 100
1, 161287, Note_on_c, 7, 62, 0
1, 161287, Note_on_c, 7, 62, 100
1, 161287, Note_on_c, 7, 50, 0
1, 161287, Note_on_c, 7, 50, 100
1, 161287, Note_on_c, 7, 38, 0
1, 161287, Note_on_c, 7, 38, 100
1, 161347, Note_on_c, 7, 66, 0
1, 161347, Note_on_c, 7, 66, 100
1, 161347, Note_on_c, 7, 57, 0
1, 161347, Note_on_c, 7, 57, 100
1, 161347, Note_on_c, 7, 62, 0
1, 161347, Note_on_c, 7, 62, 100
1, 161347, Note_on_c, 7, 50, 0
1, 161347, Note_on_c, 7, 50, 100
1, 161347, Note_on_c, 7, 38, 0
1, 161347, Note_on_c, 7, 38, 100
1, 161407, Note_on_c, 3, 52, 127
1, 161407, Note_on_c, 7, 66, 0
1, 161407, Note_on_c, 7, 68, 100
1, 161407, Note_on_c, 7, 57, 0
1, 161407, Note_on_c, 7, 59, 100
1, 161407, Note_on_c, 7, 62, 0
1, 161407, Note_on_c, 7, 64, 100
1, 161407, Note_on_c, 7, 50, 0
1, 161407, Note_on_c, 7, 50, 100
1, 161407, Note_on_c, 7, 38, 0
1, 161407, Note_on_c, 7, 38, 100
1, 161467, Note_on_c, 3, 52, 0
1, 161467, Note_on_c, 3, 56, 127
1, 161482, Note_on_c, 3, 56, 0
1, 161497, Note_on_c, 3, 59, 127
1, 161512, Note_on_c, 3, 59, 0
1, 161527, Note_on_c, 3, 64, 127
1, 161527, Note_on_c, 7, 68, 0
1, 161527, Note_on_c, 7, 59, 0
1, 161527, Note_on_c, 7, 64, 0
1, 161527, Note_on_c, 7, 50, 0
1, 161527, Note_on_c, 7, 38, 0
1, 161542, Note_on_c, 3, 64, 0
1, 161557, Note_on_c, 3, 68, 127
1, 161572, Note_on_c, 3, 68, 0
1, 161587, Note_on_c, 3, 71, 127
1, 161602, Note_on_c, 3, 71, 0
1, 161617, Note_on_c, 3, 76, 127
1, 161632, Note_on_c, 3, 76, 0
1, 161647, Note_on_c, 3, 80, 127
1, 161707, Note_on_c, 7, 68, 100
1, 161707, Note_on_c, 7, 59, 100
1, 161707, Note_on_c, 7, 64, 100
1, 161707, Note_on_c, 7, 50, 100
1, 161707, Note_on_c, 7, 38, 100
1, 161767, Note_on_c, 3, 80, 0
1, 161767, Note_on_c, 7, 68, 0
1, 161767, Note_on_c, 7, 68, 100
1, 161767, Note_on_c, 7, 59, 0
1, 161767, Note_on_c, 7, 59, 100
1, 161767, Note_on_c, 7, 64, 0
1, 161767, Note_on_c, 7, 64, 100
1, 161767, Note_on_c, 7, 50, 0
1, 161767, Note_on_c, 7, 50, 100
1, 161767, Note_on_c, 7, 38, 0
1, 161767, Note_on_c, 7, 38, 100
1, 161827, Note_on_c, 7, 68, 0
1, 161827, Note_on_c, 7, 68, 100
1, 161827, Note_on_c, 7, 59, 0
1, 161827, Note_on_c, 7, 59, 100
1, 161827, Note_on_c, 7, 64, 0
1, 161827, Note_on_c, 7, 64, 100
1, 161827, Note_on_c, 7, 50, 0
1, 161827, Note_on_c, 7, 50, 100
1, 161827, Note_on_c, 7, 38, 0
1, 161827, Note_on_c, 7, 38, 100
1, 161887, Note_on_c, 3, 54, 127
1, 161887, Note_on_c, 7, 68, 0
1, 161887, Note_on_c, 7, 69, 100
1, 161887, Note_on_c, 7, 59, 0
1, 161887, Note_on_c, 7, 60, 100
1, 161887, Note_on_c, 7, 64, 0
1, 161887, Note_on_c, 7, 66, 100
1, 161887, Note_on_c, 7, 50, 0
1, 161887, Note_on_c, 7, 51, 100
1, 161887, Note_on_c, 7, 38, 0
1, 161887, Note_on_c, 7, 39, 100
1, 161917, Note_on_c, 3, 54, 0
1, 161917, Note_on_c, 3, 57, 127
1, 161947, Note_on_c, 3, 57, 0
1, 161947, Note_on_c, 3, 63, 127
1, 161962, Note_on_c, 3, 63, 0
1, 161977, Note_on_c, 3, 66, 127
1, 161992, Note_on_c, 3, 66, 0
1, 162007, Note_on_c, 3, 69, 127
1, 162007, Note_on_c, 7, 69, 0
1, 162007, Note_on_c, 7, 60, 0
1, 162007, Note_on_c, 7, 66, 0
1, 162007, Note_on_c, 7, 51, 0
1, 162007, Note_on_c, 7, 39, 0
1, 162022, Note_on_c, 3, 69, 0
1, 162037, Note_on_c, 3, 72, 127
1, 162052, Note_on_c, 3, 72, 0
1, 162067, Note_on_c, 3, 75, 127
1, 162082, Note_on_c, 3, 75, 0
1, 162097, Note_on_c, 3, 78, 127
1, 162112, Note_on_c, 3, 78, 0
1, 162127, Note_on_c, 3, 81, 127
1, 162187, Note_on_c, 7, 69, 100
1, 162187, Note_on_c, 7, 60, 100
1, 162187, Note_on_c, 7, 66, 100
1, 162187, Note_on_c, 7, 51, 100
1, 162187, Note_on_c, 7, 39, 100
1, 162247, Note_on_c, 3, 81, 0
1, 162247, Note_on_c, 7, 69, 0
1, 162247, Note_on_c, 7, 69, 100
1, 162247, Note_on_c, 7, 60, 0
1, 162247, Note_on_c, 7, 60, 100
1, 162247, Note_on_c, 7, 66, 0
1, 162247, Note_on_c, 7, 66, 100
1, 162247, Note_on_c, 7, 51, 0
1, 162247, Note_on_c, 7, 51, 100
1, 162247, Note_on_c, 7, 39, 0
1, 162247, Note_on_c, 7, 39, 100
1, 162307, Note_on_c, 7, 69, 0
1, 162307, Note_on_c, 7, 69, 100
1, 162307, Note_on_c, 7, 60, 0
1, 162307, Note_on_c, 7, 60, 100
1, 162307, Note_on_c, 7, 66, 0
1, 162307, Note_on_c, 7, 66, 100
1, 162307, Note_on_c, 7, 51, 0
1, 162307, Note_on_c, 7, 51, 100
1, 162307, Note_on_c, 7, 39, 0
1, 162307, Note_on_c, 7, 39, 100
1, 162367, Note_on_c, 3, 45, 127
1, 162367, Note_on_c, 7, 69, 0
1, 162367, Note_on_c, 7, 69, 100
1, 162367, Note_on_c, 7, 60, 0
1, 162367, Note_on_c, 7, 61, 100
1, 162367, Note_on_c, 7, 66, 0
1, 162367, Note_on_c, 7, 64, 100
1, 162367, Note_on_c, 7, 51, 0
1, 162367, Note_on_c, 7, 52, 100
1, 162367, Note_on_c, 7, 39, 0
1, 162367, Note_on_c, 7, 40, 100
1, 162397, Note_on_c, 3, 45, 0
1, 162397, Note_on_c, 3, 49, 127
1, 162427, Note_on_c, 3, 49, 0
1, 162427, Note_on_c, 3, 52, 127
1, 162427, Note_on_c, 7, 69, 0
1, 162427, Note_on_c, 7, 69, 100
1, 162427, Note_on_c, 7, 61, 0
1, 162427, Note_on_c, 7, 61, 100
1, 162427, Note_on_c, 7, 64, 0
1, 162427, Note_on_c, 7, 64, 100
1, 162457, Note_on_c, 3, 52, 0
1, 162457, Note_on_c, 3, 57, 127
1, 162487, Note_on_c, 3, 57, 0
1, 162487, Note_on_c, 3, 61, 127
1, 162487, Note_on_c, 7, 69, 0
1, 162487, Note_on_c, 7, 69, 100
1, 162487, Note_on_c, 7, 61, 0
1, 162487, Note_on_c, 7, 61, 100
1, 162487, Note_on_c, 7, 64, 0
1, 162487, Note_on_c, 7, 64, 100
1, 162487, Note_on_c, 7, 52, 0
1, 162487, Note_on_c, 7, 40, 0
1, 162517, Note_on_c, 3, 61, 0
1, 162517, Note_on_c, 3, 57, 127
1, 162547, Note_on_c, 3, 57, 0
1, 162547, Note_on_c, 3, 52, 127
1, 162547, Note_on_c, 7, 69, 0
1, 162547, Note_on_c, 7, 69, 100
1, 162547, Note_on_c, 7, 61, 0
1, 162547, Note_on_c, 7, 61, 100
1, 162547, Note_on_c, 7, 64, 0
1, 162547, Note_on_c, 7, 64, 100
1, 162577, Note_on_c, 3, 52, 0
1, 162577, Note_on_c, 3, 49, 127
1, 162607, Note_on_c, 3, 49, 0
1, 162607, Note_on_c, 3, 52, 127
1, 162607, Note_on_c, 7, 69, 0
1, 162607, Note_on_c, 7, 61, 0
1, 162607, Note_on_c, 7, 64, 0
1, 162607, Note_on_c, 7, 64, 100
1, 162607, Note_on_c, 7, 52, 100
1, 162637, Note_on_c, 3, 52, 0
1, 162637, Note_on_c, 3, 57, 127
1, 162667, Note_on_c, 3, 57, 0
1, 162667, Note_on_c, 3, 61, 127
1, 162667, Note_on_c, 7, 73, 100
1, 162667, Note_on_c, 7, 69, 100
1, 162697, Note_on_c, 3, 61, 0
1, 162697, Note_on_c, 3, 64, 127
1, 162727, Note_on_c, 3, 64, 0
1, 162727, Note_on_c, 3, 69, 127
1, 162727, Note_on_c, 7, 73, 0
1, 162727, Note_on_c, 7, 73, 100
1, 162727, Note_on_c, 7, 69, 0
1, 162727, Note_on_c, 7, 69, 100
1, 162727, Note_on_c, 7, 52, 0
1, 162757, Note_on_c, 3, 69, 0
1, 162757, Note_on_c, 3, 64, 127
1, 162787, Note_on_c, 3, 64, 0
1, 162787, Note_on_c, 3, 61, 127
1, 162787, Note_on_c, 7, 73, 0
1, 162787, Note_on_c, 7, 73, 100
1, 162787, Note_on_c, 7, 69, 0
1, 162787, Note_on_c, 7, 69, 100
1, 162787, Note_on_c, 7, 64, 0
1, 162787, Note_on_c, 7, 64, 100
1, 162817, Note_on_c, 3, 61, 0
1, 162817, Note_on_c, 3, 57, 127
1, 162847, Note_on_c, 3, 57, 0
1, 162847, Note_on_c, 3, 61, 127
1, 162847, Note_on_c, 7, 73, 0
1, 162847, Note_on_c, 7, 69, 0
1, 162847, Note_on_c, 7, 64, 0
1, 162847, Note_on_c, 7, 61, 100
1, 162847, Note_on_c, 7, 49, 100
1, 162877, Note_on_c, 3, 61, 0
1, 162877, Note_on_c, 3, 64, 127
1, 162907, Note_on_c, 3, 64, 0
1, 162907, Note_on_c, 3, 69, 127
1, 162907, Note_on_c, 7, 76, 100
1, 162907, Note_on_c, 7, 73, 100
1, 162907, Note_on_c, 7, 69, 100
1, 162937, Note_on_c, 3, 69, 0
1, 162937, Note_on_c, 3, 73, 127
1, 162967, Note_on_c, 3, 73, 0
1, 162967, Note_on_c, 3, 76, 127
1, 162967, Note_on_c, 7, 76, 0
1, 162967, Note_on_c, 7, 76, 100
1, 162967, Note_on_c, 7, 73, 0
1, 162967, Note_on_c, 7, 73, 100
1, 162967, Note_on_c, 7, 69, 0
1, 162967, Note_on_c, 7, 69, 100
1, 162967, Note_on_c, 7, 61, 0
1, 162967, Note_on_c, 7, 49, 0
1, 162997, Note_on_c, 3, 76, 0
1, 162997, Note_on_c, 3, 73, 127
1, 163027, Note_on_c, 3, 73, 0
1, 163027, Note_on_c, 3, 69, 127
1, 163027, Note_on_c, 7, 76, 0
1, 163027, Note_on_c, 7, 76, 100
1, 163027, Note_on_c, 7, 73, 0
1, 163027, Note_on_c, 7, 73, 100
1, 163027, Note_on_c, 7, 69, 0
1, 163027, Note_on_c, 7, 69, 100
1, 163057, Note_on_c, 3, 69, 0
1, 163057, Note_on_c, 3, 64, 127
1, 163087, Note_on_c, 3, 64, 0
1, 163087, Note_on_c, 3, 69, 127
1, 163087, Note_on_c, 7, 76, 0
1, 163087, Note_on_c, 7, 73, 0
1, 163087, Note_on_c, 7, 69, 0
1, 163087, Note_on_c, 7, 57, 100
1, 163087, Note_on_c, 7, 45, 100
1, 163117, Note_on_c, 3, 69, 0
1, 163117, Note_on_c, 3, 73, 127
1, 163147, Note_on_c, 3, 73, 0
1, 163147, Note_on_c, 3, 76, 127
1, 163147, Note_on_c, 7, 81, 100
1, 163147, Note_on_c, 7, 76, 100
1, 163147, Note_on_c, 7, 73, 100
1, 163162, Note_on_c, 3, 76, 0
1, 163177, Note_on_c, 3, 81, 127
1, 163192, Note_on_c, 3, 81, 0
1, 163207, Note_on_c, 3, 85, 127
1, 163207, Note_on_c, 7, 81, 0
1, 163207, Note_on_c, 7, 81, 100
1, 163207, Note_on_c, 7, 76, 0
1, 163207, Note_on_c, 7, 76, 100
1, 163207, Note_on_c, 7, 73, 0
1, 163207, Note_on_c, 7, 73, 100
1, 163207, Note_on_c, 7, 57, 0
1, 163207, Note_on_c, 7, 45, 0
1, 163267, Note_on_c, 3, 85, 0
1, 163267, Note_on_c, 7, 81, 0
1, 163267, Note_on_c, 7, 81, 100
1, 163267, Note_on_c, 7, 76, 0
1, 163267, Note_on_c, 7, 76, 100
1, 163267, Note_on_c, 7, 73, 0
1, 163267, Note_on_c, 7, 73, 100
1, 163327, Note_on_c, 7, 81, 0
1, 163327, Note_on_c, 7, 81, 100
1, 163327, Note_on_c, 7, 76, 0
1, 163327, Note_on_c, 7, 76, 100
1, 163327, Note_on_c, 7, 73, 0
1, 163327, Note_on_c, 7, 73, 100
1, 163327, Note_on_c, 7, 52, 100
1, 163327, Note_on_c, 7, 40, 100
1, 163387, Note_on_c, 3, 81, 127
1, 163387, Note_on_c, 7, 81, 0
1, 163387, Note_on_c, 7, 76, 0
1, 163387, Note_on_c, 7, 73, 0
1, 163417, Note_on_c, 3, 81, 0
1, 163417, Note_on_c, 3, 80, 127
1, 163447, Note_on_c, 3, 80, 0
1, 163447, Note_on_c, 3, 81, 127
1, 163447, Note_on_c, 7, 73, 100
1, 163447, Note_on_c, 7, 69, 100
1, 163447, Note_on_c, 7, 64, 100
1, 163447, Note_on_c, 7, 52, 0
1, 163447, Note_on_c, 7, 40, 0
1, 163477, Note_on_c, 3, 81, 0
1, 163477, Note_on_c, 3, 80, 127
1, 163477, Note_on_c, 7, 73, 0
1, 163477, Note_on_c, 7, 69, 0
1, 163477, Note_on_c, 7, 64, 0
1, 163507, Note_on_c, 3, 80, 0
1, 163507, Note_on_c, 3, 81, 127
1, 163507, Note_on_c, 7, 73, 100
1, 163507, Note_on_c, 7, 69, 100
1, 163507, Note_on_c, 7, 64, 100
1, 163537, Note_on_c, 3, 81, 0
1, 163537, Note_on_c, 3, 80, 127
1, 163537, Note_on_c, 7, 73, 0
1, 163537, Note_on_c, 7, 69, 0
1, 163537, Note_on_c, 7, 64, 0
1, 163567, Note_on_c, 3, 80, 0
1, 163567, Note_on_c, 3, 81, 127
1, 163567, Note_on_c, 7, 73, 100
1, 163567, Note_on_c, 7, 69, 100
1, 163567, Note_on_c, 7, 64, 100
1, 163597, Note_on_c, 3, 81, 0
1, 163597, Note_on_c, 7, 73, 0
1, 163597, Note_on_c, 7, 69, 0
1, 163597, Note_on_c, 7, 64, 0
1, 163627, Note_on_c, 3, 76, 127
1, 163657, Note_on_c, 3, 76, 0
1, 163657, Note_on_c, 3, 75, 127
1, 163687, Note_on_c, 3, 75, 0
1, 163687, Note_on_c, 3, 76, 127
1, 163687, Note_on_c, 7, 73, 100
1, 163687, Note_on_c, 7, 69, 100
1, 163687, Note_on_c, 7, 64, 100
1, 163717, Note_on_c, 3, 76, 0
1, 163717, Note_on_c, 3, 75, 127
1, 163717, Note_on_c, 7, 73, 0
1, 163717, Note_on_c, 7, 69, 0
1, 163717, Note_on_c, 7, 64, 0
1, 163747, Note_on_c, 3, 75, 0
1, 163747, Note_on_c, 3, 76, 127
1, 163747, Note_on_c, 7, 73, 100
1, 163747, Note_on_c, 7, 69, 100
1, 163747, Note_on_c, 7, 64, 100
1, 163777, Note_on_c, 3, 76, 0
1, 163777, Note_on_c, 3, 75, 127
1, 163777, Note_on_c, 7, 73, 0
1, 163777, Note_on_c, 7, 69, 0
1, 163777, Note_on_c, 7, 64, 0
1, 163807, Note_on_c, 3, 75, 0
1, 163807, Note_on_c, 3, 76, 127
1, 163807, Note_on_c, 7, 73, 100
1, 163807, Note_on_c, 7, 69, 100
1, 163807, Note_on_c, 7, 64, 100
1, 163837, Note_on_c, 3, 76, 0
1, 163837, Note_on_c, 7, 73, 0
1, 163837, Note_on_c, 7, 69, 0
1, 163837, Note_on_c, 7, 64, 0
1, 163867, Note_on_c, 3, 73, 127
1, 163897, Note_on_c, 3, 73, 0
1, 163897, Note_on_c, 3, 72, 127
1, 163927, Note_on_c, 3, 72, 0
1, 163927, Note_on_c, 3, 73, 127
1, 163927, Note_on_c, 7, 69, 100
1, 163927, Note_on_c, 7, 61, 100
1, 163927, Note_on_c, 7, 64, 100
1, 163927, Note_on_c, 7, 52, 100
1, 163957, Note_on_c, 3, 73, 0
1, 163957, Note_on_c, 3, 72, 127
1, 163957, Note_on_c, 7, 69, 0
1, 163957, Note_on_c, 7, 61, 0
1, 163957, Note_on_c, 7, 64, 0
1, 163957, Note_on_c, 7, 52, 0
1, 163987, Note_on_c, 3, 72, 0
1, 163987, Note_on_c, 3, 73, 127
1, 163987, Note_on_c, 7, 69, 100
1, 163987, Note_on_c, 7, 61, 100
1, 163987, Note_on_c, 7, 64, 100
1, 163987, Note_on_c, 7, 52, 100
1, 164017, Note_on_c, 3, 73, 0
1, 164017, Note_on_c, 3, 72, 127
1, 164017, Note_on_c, 7, 69, 0
1, 164017, Note_on_c, 7, 61, 0
1, 164017, Note_on_c, 7, 64, 0
1, 164017, Note_on_c, 7, 52, 0
1, 164047, Note_on_c, 3, 72, 0
1, 164047, Note_on_c, 3, 73, 127
1, 164047, Note_on_c, 7, 69, 100
1, 164047, Note_on_c, 7, 61, 100
1, 164047, Note_on_c, 7, 64, 100
1, 164047, Note_on_c, 7, 52, 100
1, 164077, Note_on_c, 3, 73, 0
1, 164077, Note_on_c, 7, 69, 0
1, 164077, Note_on_c, 7, 61, 0
1, 164077, Note_on_c, 7, 64, 0
1, 164077, Note_on_c, 7, 52, 0
1, 164107, Note_on_c, 3, 69, 127
1, 164137, Note_on_c, 3, 69, 0
1, 164137, Note_on_c, 3, 68, 127
1, 164167, Note_on_c, 3, 68, 0
1, 164167, Note_on_c, 3, 69, 127
1, 164167, Note_on_c, 7, 64, 100
1, 164167, Note_on_c, 7, 61, 100
1, 164167, Note_on_c, 7, 57, 100
1, 164167, Note_on_c, 7, 52, 100
1, 164197, Note_on_c, 3, 69, 0
1, 164197, Note_on_c, 3, 68, 127
1, 164197, Note_on_c, 7, 61, 0
1, 164197, Note_on_c, 7, 57, 0
1, 164197, Note_on_c, 7, 64, 0
1, 164197, Note_on_c, 7, 52, 0
1, 164227, Note_on_c, 3, 68, 0
1, 164227, Note_on_c, 3, 69, 127
1, 164227, Note_on_c, 7, 64, 100
1, 164227, Note_on_c, 7, 61, 100
1, 164227, Note_on_c, 7, 57, 100
1, 164227, Note_on_c, 7, 52, 100
1, 164257, Note_on_c, 3, 69, 0
1, 164257, Note_on_c, 3, 68, 127
1, 164257, Note_on_c, 7, 61, 0
1, 164257, Note_on_c, 7, 57, 0
1, 164257, Note_on_c, 7, 64, 0
1, 164257, Note_on_c, 7, 52, 0
1, 164287, Note_on_c, 3, 68, 0
1, 164287, Note_on_c, 3, 69, 127
1, 164287, Note_on_c, 6, 52, 80
1, 164287, Note_on_c, 7, 64, 100
1, 164287, Note_on_c, 7, 61, 100
1, 164287, Note_on_c, 7, 57, 100
1, 164287, Note_on_c, 7, 52, 100
1, 164317, Note_on_c, 3, 69, 0
1, 164317, Note_on_c, 3, 64, 127
1, 164347, Note_on_c, 3, 64, 0
1, 164347, Note_on_c, 3, 66, 127
1, 164377, Note_on_c, 3, 66, 0
1, 164377, Note_on_c, 3, 68, 127
1, 164407, Note_on_c, 3, 68, 0
1, 164407, Note_on_c, 3, 69, 127
1, 164407, Note_on_c, 7, 61, 0
1, 164407, Note_on_c, 7, 61, 100
1, 164407, Note_on_c, 7, 64, 0
1, 164407, Note_on_c, 7, 52, 0
1, 164437, Note_on_c, 3, 69, 0
1, 164437, Note_on_c, 3, 71, 127
1, 164467, Note_on_c, 3, 71, 0
1, 164467, Note_on_c, 3, 72, 127
1, 164467, Note_on_c, 7, 61, 0
1, 164467, Note_on_c, 7, 61, 100
1, 164467, Note_on_c, 7, 57, 0
1, 164467, Note_on_c, 7, 57, 100
1, 164497, Note_on_c, 3, 72, 0
1, 164497, Note_on_c, 3, 73, 127
1, 164527, Note_on_c, 3, 73, 0
1, 164527, Note_on_c, 3, 74, 127
1, 164527, Note_on_c, 7, 61, 0
1, 164527, Note_on_c, 7, 61, 100
1, 164527, Note_on_c, 7, 57, 0
1, 164527, Note_on_c, 7, 57, 100
1, 164557, Note_on_c, 3, 74, 0
1, 164557, Note_on_c, 3, 75, 127
1, 164587, Note_on_c, 3, 75, 0
1, 164587, Note_on_c, 3, 76, 127
1, 164587, Note_on_c, 7, 61, 0
1, 164587, Note_on_c, 7, 61, 100
1, 164587, Note_on_c, 7, 57, 0
1, 164587, Note_on_c, 7, 57, 100
1, 164617, Note_on_c, 3, 76, 0
1, 164617, Note_on_c, 3, 77, 127
1, 164647, Note_on_c, 3, 77, 0
1, 164647, Note_on_c, 3, 78, 127
1, 164647, Note_on_c, 7, 61, 0
1, 164647, Note_on_c, 7, 61, 100
1, 164647, Note_on_c, 7, 57, 0
1, 164647, Note_on_c, 7, 57, 100
1, 164677, Note_on_c, 3, 78, 0
1, 164677, Note_on_c, 3, 79, 127
1, 164707, Note_on_c, 3, 79, 0
1, 164707, Note_on_c, 3, 80, 127
1, 164707, Note_on_c, 7, 61, 0
1, 164707, Note_on_c, 7, 61, 100
1, 164707, Note_on_c, 7, 57, 0
1, 164707, Note_on_c, 7, 57, 100
1, 164737, Note_on_c, 3, 80, 0
1, 164737, Note_on_c, 3, 81, 127
1, 164767, Note_on_c, 3, 81, 0
1, 164767, Note_on_c, 3, 71, 127
1, 164767, Note_on_c, 7, 61, 0
1, 164767, Note_on_c, 7, 59, 100
1, 164767, Note_on_c, 7, 57, 0
1, 164767, Note_on_c, 7, 56, 100
1, 164767, Note_on_c, 7, 52, 100
1, 164767, Note_on_c, 7, 40, 100
1, 164782, Note_on_c, 3, 71, 0
1, 164782, Note_on_c, 3, 73, 127
1, 164797, Note_on_c, 3, 73, 0
1, 164797, Note_on_c, 3, 71, 127
1, 164797, Note_on_c, 7, 59, 0
1, 164797, Note_on_c, 7, 59, 100
1, 164797, Note_on_c, 7, 56, 0
1, 164797, Note_on_c, 7, 56, 100
1, 164812, Note_on_c, 3, 71, 0
1, 164812, Note_on_c, 3, 73, 127
1, 164827, Note_on_c, 3, 73, 0
1, 164827, Note_on_c, 3, 71, 127
1, 164827, Note_on_c, 7, 59, 0
1, 164827, Note_on_c, 7, 59, 100
1, 164827, Note_on_c, 7, 56, 0
1, 164827, Note_on_c, 7, 56, 100
1, 164827, Note_on_c, 7, 40, 0
1, 164827, Note_on_c, 7, 40, 100
1, 164842, Note_on_c, 3, 71, 0
1, 164842, Note_on_c, 3, 73, 127
1, 164857, Note_on_c, 3, 73, 0
1, 164857, Note_on_c, 3, 71, 127
1, 164857, Note_on_c, 7, 59, 0
1, 164857, Note_on_c, 7, 59, 100
1, 164857, Note_on_c, 7, 56, 0
1, 164857, Note_on_c, 7, 56, 100
1, 164872, Note_on_c, 3, 71, 0
1, 164872, Note_on_c, 3, 73, 127
1, 164887, Note_on_c, 3, 73, 0
1, 164887, Note_on_c, 3, 71, 127
1, 164887, Note_on_c, 7, 59, 0
1, 164887, Note_on_c, 7, 59, 100
1, 164887, Note_on_c, 7, 56, 0
1, 164887, Note_on_c, 7, 56, 100
1, 164887, Note_on_c, 7, 40, 0
1, 164887, Note_on_c, 7, 40, 100
1, 164902, Note_on_c, 3, 71, 0
1, 164902, Note_on_c, 3, 73, 127
1, 164917, Note_on_c, 3, 73, 0
1, 164917, Note_on_c, 3, 71, 127
1, 164917, Note_on_c, 7, 59, 0
1, 164917, Note_on_c, 7, 59, 100
1, 164917, Note_on_c, 7, 56, 0
1, 164917, Note_on_c, 7, 56, 100
1, 164932, Note_on_c, 3, 71, 0
1, 164932, Note_on_c, 3, 73, 127
1, 164947, Note_on_c, 3, 73, 0
1, 164947, Note_on_c, 3, 71, 127
1, 164947, Note_on_c, 7, 59, 0
1, 164947, Note_on_c, 7, 59, 100
1, 164947, Note_on_c, 7, 56, 0
1, 164947, Note_on_c, 7, 56, 100
1, 164947, Note_on_c, 7, 40, 0
1, 164947, Note_on_c, 7, 40, 100
1, 164962, Note_on_c, 3, 71, 0
1, 164962, Note_on_c, 3, 73, 127
1, 164977, Note_on_c, 3, 73, 0
1, 164977, Note_on_c, 3, 71, 127
1, 164977, Note_on_c, 7, 59, 0
1, 164977, Note_on_c, 7, 59, 100
1, 164977, Note_on_c, 7, 56, 0
1, 164977, Note_on_c, 7, 56, 100
1, 164992, Note_on_c, 3, 71, 0
1, 164992, Note_on_c, 3, 73, 127
1, 165007, Note_on_c, 3, 73, 0
1, 165007, Note_on_c, 3, 71, 127
1, 165007, Note_on_c, 7, 59, 0
1, 165007, Note_on_c, 7, 59, 100
1, 165007, Note_on_c, 7, 56, 0
1, 165007, Note_on_c, 7, 56, 100
1, 165007, Note_on_c, 7, 50, 100
1, 165007, Note_on_c, 7, 52, 0
1, 165007, Note_on_c, 7, 52, 100
1, 165007, Note_on_c, 7, 40, 0
1, 165007, Note_on_c, 7, 40, 100
1, 165022, Note_on_c, 3, 71, 0
1, 165022, Note_on_c, 3, 73, 127
1, 165037, Note_on_c, 3, 73, 0
1, 165037, Note_on_c, 3, 71, 127
1, 165037, Note_on_c, 7, 59, 0
1, 165037, Note_on_c, 7, 59, 100
1, 165037, Note_on_c, 7, 56, 0
1, 165037, Note_on_c, 7, 56, 100
1, 165037, Note_on_c, 7, 50, 0
1, 165037, Note_on_c, 7, 50, 100
1, 165052, Note_on_c, 3, 71, 0
1, 165052, Note_on_c, 3, 73, 127
1, 165067, Note_on_c, 3, 73, 0
1, 165067, Note_on_c, 3, 71, 127
1, 165067, Note_on_c, 7, 59, 0
1, 165067, Note_on_c, 7, 59, 100
1, 165067, Note_on_c, 7, 56, 0
1, 165067, Note_on_c, 7, 56, 100
1, 165067, Note_on_c, 7, 50, 0
1, 165067, Note_on_c, 7, 50, 100
1, 165067, Note_on_c, 7, 52, 0
1, 165067, Note_on_c, 7, 52, 100
1, 165067, Note_on_c, 7, 40, 0
1, 165067, Note_on_c, 7, 40, 100
1, 165082, Note_on_c, 3, 71, 0
1, 165082, Note_on_c, 3, 73, 127
1, 165097, Note_on_c, 3, 73, 0
1, 165097, Note_on_c, 3, 71, 127
1, 165097, Note_on_c, 7, 59, 0
1, 165097, Note_on_c, 7, 59, 100
1, 165097, Note_on_c, 7, 56, 0
1, 165097, Note_on_c, 7, 56, 100
1, 165097, Note_on_c, 7, 50, 0
1, 165097, Note_on_c, 7, 50, 100
1, 165112, Note_on_c, 3, 71, 0
1, 165112, Note_on_c, 3, 73, 127
1, 165127, Note_on_c, 3, 73, 0
1, 165127, Note_on_c, 3, 71, 127
1, 165127, Note_on_c, 7, 59, 0
1, 165127, Note_on_c, 7, 59, 100
1, 165127, Note_on_c, 7, 56, 0
1, 165127, Note_on_c, 7, 56, 100
1, 165127, Note_on_c, 7, 50, 0
1, 165127, Note_on_c, 7, 50, 100
1, 165127, Note_on_c, 7, 52, 0
1, 165127, Note_on_c, 7, 52, 100
1, 165127, Note_on_c, 7, 40, 0
1, 165127, Note_on_c, 7, 40, 100
1, 165142, Note_on_c, 3, 71, 0
1, 165142, Note_on_c, 3, 73, 127
1, 165157, Note_on_c, 3, 73, 0
1, 165157, Note_on_c, 3, 71, 127
1, 165157, Note_on_c, 7, 59, 0
1, 165157, Note_on_c, 7, 59, 100
1, 165157, Note_on_c, 7, 56, 0
1, 165157, Note_on_c, 7, 56, 100
1, 165157, Note_on_c, 7, 50, 0
1, 165157, Note_on_c, 7, 50, 100
1, 165172, Note_on_c, 3, 71, 0
1, 165172, Note_on_c, 3, 73, 127
1, 165187, Note_on_c, 3, 73, 0
1, 165187, Note_on_c, 3, 71, 127
1, 165187, Note_on_c, 7, 59, 0
1, 165187, Note_on_c, 7, 59, 100
1, 165187, Note_on_c, 7, 56, 0
1, 165187, Note_on_c, 7, 56, 100
1, 165187, Note_on_c, 7, 50, 0
1, 165187, Note_on_c, 7, 50, 100
1, 165187, Note_on_c, 7, 52, 0
1, 165187, Note_on_c, 7, 52, 100
1, 165187, Note_on_c, 7, 40, 0
1, 165187, Note_on_c, 7, 40, 100
1, 165202, Note_on_c, 3, 71, 0
1, 165202, Note_on_c, 3, 73, 127
1, 165217, Note_on_c, 3, 73, 0
1, 165217, Note_on_c, 3, 69, 127
1, 165217, Note_on_c, 7, 59, 0
1, 165217, Note_on_c, 7, 59, 100
1, 165217, Note_on_c, 7, 56, 0
1, 165217, Note_on_c, 7, 56, 100
1, 165217, Note_on_c, 7, 50, 0
1, 165217, Note_on_c, 7, 50, 100
1, 165232, Note_on_c, 3, 69, 0
1, 165232, Note_on_c, 3, 71, 127
1, 165247, Note_on_c, 3, 71, 0
1, 165247, Note_on_c, 3, 69, 127
1, 165247, Note_on_c, 5, 57, 80
1, 165247, Note_on_c, 7, 59, 0
1, 165247, Note_on_c, 7, 57, 100
1, 165247, Note_on_c, 7, 56, 0
1, 165247, Note_on_c, 7, 50, 0
1, 165247, Note_on_c, 7, 49, 100
1, 165247, Note_on_c, 7, 52, 0
1, 165247, Note_on_c, 7, 40, 0
1, 165247, Note_on_c, 7, 45, 100
1, 165277, Note_on_c, 7, 64, 100
1, 165307, Note_on_c, 5, 52, 80
1, 165307, Note_on_c, 5, 57, 0
1, 165307, Note_on_c, 7, 64, 0
1, 165307, Note_on_c, 7, 61, 100
1, 165307, Note_on_c, 7, 49, 0
1, 165307, Note_on_c, 7, 64, 100
1, 165307, Note_on_c, 7, 52, 100
1, 165307, Note_on_c, 7, 45, 0
1, 165307, Note_on_c, 7, 40, 100
1, 165337, Note_on_c, 7, 61, 0
1, 165367, Note_on_c, 3, 69, 0
1, 165367, Note_on_c, 5, 57, 80
1, 165367, Note_on_c, 5, 52, 0
1, 165367, Note_on_c, 6, 52, 0
1, 165367, Note_on_c, 7, 57, 0
1, 165367, Note_on_c, 7, 61, 100
1, 165367, Note_on_c, 7, 52, 0
1, 165367, Note_on_c, 7, 57, 100
1, 165367, Note_on_c, 7, 40, 0
1, 165367, Note_on_c, 7, 45, 100
1, 165397, Note_on_c, 7, 61, 0
1, 165427, Note_on_c, 5, 52, 80
1, 165427, Note_on_c, 5, 57, 0
1, 165427, Note_on_c, 6, 57, 80
1, 165427, Note_on_c, 6, 49, 80
1, 165427, Note_on_c, 7, 85, 100
1, 165427, Note_on_c, 7, 61, 100
1, 165427, Note_on_c, 7, 64, 0
1, 165427, Note_on_c, 7, 64, 100
1, 165427, Note_on_c, 7, 57, 0
1, 165427, Note_on_c, 7, 52, 100
1, 165427, Note_on_c, 7, 45, 0
1, 165427, Note_on_c, 7, 40, 100
1, 165457, Note_on_c, 7, 85, 0
1, 165457, Note_on_c, 7, 81, 100
1, 165457, Note_on_c, 7, 61, 0
1, 165487, Note_on_c, 5, 57, 80
1, 165487, Note_on_c, 5, 52, 0
1, 165487, Note_on_c, 6, 57, 0
1, 165487, Note_on_c, 6, 57, 80
1, 165487, Note_on_c, 6, 49, 0
1, 165487, Note_on_c, 6, 49, 80
1, 165487, Note_on_c, 7, 81, 0
1, 165487, Note_on_c, 7, 76, 100
1, 165487, Note_on_c, 7, 61, 100
1, 165487, Note_on_c, 7, 52, 0
1, 165487, Note_on_c, 7, 57, 100
1, 165487, Note_on_c, 7, 40, 0
1, 165487, Note_on_c, 7, 45, 100
1, 165517, Note_on_c, 7, 76, 0
1, 165517, Note_on_c, 7, 61, 0
1, 165547, Note_on_c, 5, 52, 80
1, 165547, Note_on_c, 5, 57, 0
1, 165547, Note_on_c, 6, 57, 0
1, 165547, Note_on_c, 6, 57, 80
1, 165547, Note_on_c, 6, 49, 0
1, 165547, Note_on_c, 6, 49, 80
1, 165547, Note_on_c, 7, 76, 100
1, 165547, Note_on_c, 7, 61, 100
1, 165547, Note_on_c, 7, 64, 0
1, 165547, Note_on_c, 7, 64, 100
1, 165547, Note_on_c, 7, 57, 0
1, 165547, Note_on_c, 7, 52, 100
1, 165547, Note_on_c, 7, 45, 0
1, 165547, Note_on_c, 7, 40, 100
1, 165577, Note_on_c, 7, 76, 0
1, 165577, Note_on_c, 7, 61, 0
1, 165607, Note_on_c, 5, 57, 80
1, 165607, Note_on_c, 5, 52, 0
1, 165607, Note_on_c, 6, 57, 0
1, 165607, Note_on_c, 6, 57, 80
1, 165607, Note_on_c, 6, 49, 0
1, 165607, Note_on_c, 6, 49, 80
1, 165607, Note_on_c, 7, 76, 100
1, 165607, Note_on_c, 7, 61, 100
1, 165607, Note_on_c, 7, 52, 0
1, 165607, Note_on_c, 7, 57, 100
1, 165607, Note_on_c, 7, 40, 0
1, 165607, Note_on_c, 7, 45, 100
1, 165637, Note_on_c, 7, 76, 0
1, 165637, Note_on_c, 7, 61, 0
1, 165667, Note_on_c, 5, 52, 80
1, 165667, Note_on_c, 5, 57, 0
1, 165667, Note_on_c, 6, 57, 0
1, 165667, Note_on_c, 6, 57, 80
1, 165667, Note_on_c, 6, 49, 0
1, 165667, Note_on_c, 6, 49, 80
1, 165667, Note_on_c, 7, 76, 100
1, 165667, Note_on_c, 7, 61, 100
1, 165667, Note_on_c, 7, 64, 0
1, 165667, Note_on_c, 7, 64, 100
1, 165667, Note_on_c, 7, 57, 0
1, 165667, Note_on_c, 7, 52, 100
1, 165667, Note_on_c, 7, 45, 0
1, 165667, Note_on_c, 7, 40, 100
1, 165697, Note_on_c, 7, 76, 0
1, 165697, Note_on_c, 7, 61, 0
1, 165727, Note_on_c, 4, 74, 80
1, 165727, Note_on_c, 4, 71, 80
1, 165727, Note_on_c, 5, 56, 80
1, 165727, Note_on_c, 5, 52, 0
1, 165727, Note_on_c, 6, 57, 0
1, 165727, Note_on_c, 6, 59, 80
1, 165727, Note_on_c, 6, 49, 0
1, 165727, Note_on_c, 6, 52, 80
1, 165727, Note_on_c, 7, 76, 100
1, 165727, Note_on_c, 7, 59, 100
1, 165727, Note_on_c, 7, 52, 0
1, 165727, Note_on_c, 7, 56, 100
1, 165727, Note_on_c, 7, 40, 0
1, 165727, Note_on_c, 7, 44, 100
1, 165757, Note_on_c, 7, 59, 0
1, 165787, Note_on_c, 5, 52, 80
1, 165787, Note_on_c, 5, 56, 0
1, 165787, Note_on_c, 7, 76, 0
1, 165787, Note_on_c, 7, 86, 100
1, 165787, Note_on_c, 7, 59, 100
1, 165787, Note_on_c, 7, 64, 0
1, 165787, Note_on_c, 7, 64, 100
1, 165787, Note_on_c, 7, 56, 0
1, 165787, Note_on_c, 7, 52, 100
1, 165787, Note_on_c, 7, 44, 0
1, 165787, Note_on_c, 7, 40, 100
1, 165817, Note_on_c, 7, 59, 0
1, 165847, Note_on_c, 5, 56, 80
1, 165847, Note_on_c, 5, 52, 0
1, 165847, Note_on_c, 6, 59, 0
1, 165847, Note_on_c, 6, 59, 80
1, 165847, Note_on_c, 6, 52, 0
1, 165847, Note_on_c, 6, 52, 80
1, 165847, Note_on_c, 7, 86, 0
1, 165847, Note_on_c, 7, 86, 100
1, 165847, Note_on_c, 7, 59, 100
1, 165847, Note_on_c, 7, 52, 0
1, 165847, Note_on_c, 7, 56, 100
1, 165847, Note_on_c, 7, 40, 0
1, 165847, Note_on_c, 7, 44, 100
1, 165877, Note_on_c, 7, 59, 0
1, 165907, Note_on_c, 5, 52, 80
1, 165907, Note_on_c, 5, 56, 0
1, 165907, Note_on_c, 7, 59, 100
1, 165907, Note_on_c, 7, 64, 0
1, 165907, Note_on_c, 7, 64, 100
1, 165907, Note_on_c, 7, 56, 0
1, 165907, Note_on_c, 7, 52, 100
1, 165907, Note_on_c, 7, 44, 0
1, 165907, Note_on_c, 7, 40, 100
1, 165937, Note_on_c, 7, 59, 0
1, 165967, Note_on_c, 4, 74, 0
1, 165967, Note_on_c, 4, 68, 80
1, 165967, Note_on_c, 5, 59, 80
1, 165967, Note_on_c, 5, 52, 0
1, 165967, Note_on_c, 7, 59, 100
1, 165967, Note_on_c, 7, 52, 0
1, 165967, Note_on_c, 7, 40, 0
1, 165967, Note_on_c, 7, 47, 100
1, 166027, Note_on_c, 5, 52, 80
1, 166027, Note_on_c, 5, 59, 0
1, 166027, Note_on_c, 7, 86, 0
1, 166027, Note_on_c, 7, 85, 100
1, 166027, Note_on_c, 7, 64, 0
1, 166027, Note_on_c, 7, 64, 100
1, 166027, Note_on_c, 7, 52, 100
1, 166027, Note_on_c, 7, 47, 0
1, 166027, Note_on_c, 7, 40, 100
1, 166057, Note_on_c, 7, 85, 0
1, 166057, Note_on_c, 7, 83, 100
1, 166057, Note_on_c, 7, 59, 0
1, 166087, Note_on_c, 4, 71, 0
1, 166087, Note_on_c, 4, 80, 80
1, 166087, Note_on_c, 4, 68, 0
1, 166087, Note_on_c, 4, 76, 80
1, 166087, Note_on_c, 5, 62, 80
1, 166087, Note_on_c, 5, 52, 0
1, 166087, Note_on_c, 6, 59, 0
1, 166087, Note_on_c, 6, 59, 80
1, 166087, Note_on_c, 6, 52, 0
1, 166087, Note_on_c, 6, 52, 80
1, 166087, Note_on_c, 7, 83, 0
1, 166087, Note_on_c, 7, 85, 100
1, 166087, Note_on_c, 7, 59, 100
1, 166087, Note_on_c, 7, 52, 0
1, 166087, Note_on_c, 7, 62, 100
1, 166087, Note_on_c, 7, 40, 0
1, 166087, Note_on_c, 7, 50, 100
1, 166117, Note_on_c, 7, 85, 0
1, 166117, Note_on_c, 7, 83, 100
1, 166117, Note_on_c, 7, 59, 0
1, 166147, Note_on_c, 5, 52, 80
1, 166147, Note_on_c, 5, 62, 0
1, 166147, Note_on_c, 7, 83, 0
1, 166147, Note_on_c, 7, 81, 100
1, 166147, Note_on_c, 7, 59, 100
1, 166147, Note_on_c, 7, 64, 0
1, 166147, Note_on_c, 7, 64, 100
1, 166147, Note_on_c, 7, 62, 0
1, 166147, Note_on_c, 7, 52, 100
1, 166147, Note_on_c, 7, 50, 0
1, 166147, Note_on_c, 7, 40, 100
1, 166177, Note_on_c, 7, 81, 0
1, 166177, Note_on_c, 7, 80, 100
1, 166177, Note_on_c, 7, 59, 0
1, 166207, Note_on_c, 4, 80, 0
1, 166207, Note_on_c, 4, 81, 80
1, 166207, Note_on_c, 4, 76, 0
1, 166207, Note_on_c, 4, 76, 80
1, 166207, Note_on_c, 5, 61, 80
1, 166207, Note_on_c, 5, 52, 0
1, 166207, Note_on_c, 6, 59, 0
1, 166207, Note_on_c, 6, 61, 80
1, 166207, Note_on_c, 6, 52, 0
1, 166207, Note_on_c, 6, 57, 80
1, 166207, Note_on_c, 7, 80, 0
1, 166207, Note_on_c, 7, 83, 100
1, 166207, Note_on_c, 7, 57, 100
1, 166207, Note_on_c, 7, 52, 0
1, 166207, Note_on_c, 7, 61, 100
1, 166207, Note_on_c, 7, 40, 0
1, 166207, Note_on_c, 7, 49, 100
1, 166237, Note_on_c, 7, 57, 0
1, 166267, Note_on_c, 5, 52, 80
1, 166267, Note_on_c, 5, 61, 0
1, 166267, Note_on_c, 7, 83, 0
1, 166267, Note_on_c, 7, 81, 100
1, 166267, Note_on_c, 7, 57, 100
1, 166267, Note_on_c, 7, 64, 0
1, 166267, Note_on_c, 7, 64, 100
1, 166267, Note_on_c, 7, 61, 0
1, 166267, Note_on_c, 7, 52, 100
1, 166267, Note_on_c, 7, 49, 0
1, 166267, Note_on_c, 7, 40, 100
1, 166297, Note_on_c, 7, 57, 0
1, 166327, Note_on_c, 4, 81, 0
1, 166327, Note_on_c, 4, 76, 0
1, 166327, Note_on_c, 5, 61, 80
1, 166327, Note_on_c, 5, 52, 0
1, 166327, Note_on_c, 6, 61, 0
1, 166327, Note_on_c, 6, 57, 0
1, 166327, Note_on_c, 7, 81, 0
1, 166327, Note_on_c, 7, 57, 100
1, 166327, Note_on_c, 7, 52, 0
1, 166327, Note_on_c, 7, 61, 100
1, 166327, Note_on_c, 7, 40, 0
1, 166327, Note_on_c, 7, 49, 100
1, 166357, Note_on_c, 7, 57, 0
1, 166387, Note_on_c, 5, 52, 80
1, 166387, Note_on_c, 5, 61, 0
1, 166387, Note_on_c, 6, 57, 80
1, 166387, Note_on_c, 6, 49, 80
1, 166387, Note_on_c, 7, 85, 100
1, 166387, Note_on_c, 7, 57, 100
1, 166387, Note_on_c, 7, 64, 0
1, 166387, Note_on_c, 7, 64, 100
1, 166387, Note_on_c, 7, 61, 0
1, 166387, Note_on_c, 7, 52, 100
1, 166387, Note_on_c, 7, 49, 0
1, 166387, Note_on_c, 7, 40, 100
1, 166417, Note_on_c, 7, 85, 0
1, 166417, Note_on_c, 7, 81, 100
1, 166417, Note_on_c, 7, 57, 0
1, 166447, Note_on_c, 5, 57, 80
1, 166447, Note_on_c, 5, 52, 0
1, 166447, Note_on_c, 6, 57, 0
1, 166447, Note_on_c, 6, 57, 80
1, 166447, Note_on_c, 6, 49, 0
1, 166447, Note_on_c, 6, 49, 80
1, 166447, Note_on_c, 7, 81, 0
1, 166447, Note_on_c, 7, 76, 100
1, 166447, Note_on_c, 7, 61, 100
1, 166447, Note_on_c, 7, 52, 0
1, 166447, Note_on_c, 7, 57, 100
1, 166447, Note_on_c, 7, 40, 0
1, 166447, Note_on_c, 7, 45, 100
1, 166477, Note_on_c, 7, 76, 0
1, 166477, Note_on_c, 7, 61, 0
1, 166507, Note_on_c, 5, 52, 80
1, 166507, Note_on_c, 5, 57, 0
1, 166507, Note_on_c, 6, 57, 0
1, 166507, Note_on_c, 6, 57, 80
1, 166507, Note_on_c, 6, 49, 0
1, 166507, Note_on_c, 6, 49, 80
1, 166507, Note_on_c, 7, 76, 100
1, 166507, Note_on_c, 7, 61, 100
1, 166507, Note_on_c, 7, 64, 0
1, 166507, Note_on_c, 7, 64, 100
1, 166507, Note_on_c, 7, 57, 0
1, 166507, Note_on_c, 7, 52, 100
1, 166507, Note_on_c, 7, 45, 0
1, 166507, Note_on_c, 7, 40, 100
1, 166537, Note_on_c, 7, 76, 0
1, 166537, Note_on_c, 7, 61, 0
1, 166567, Note_on_c, 5, 57, 80
1, 166567, Note_on_c, 5, 52, 0
1, 166567, Note_on_c, 6, 57, 0
1, 166567, Note_on_c, 6, 57, 80
1, 166567, Note_on_c, 6, 49, 0
1, 166567, Note_on_c, 6, 49, 80
1, 166567, Note_on_c, 7, 76, 100
1, 166567, Note_on_c, 7, 61, 100
1, 166567, Note_on_c, 7, 52, 0
1, 166567, Note_on_c, 7, 57, 100
1, 166567, Note_on_c, 7, 40, 0
1, 166567, Note_on_c, 7, 45, 100
1, 166597, Note_on_c, 7, 76, 0
1, 166597, Note_on_c, 7, 61, 0
1, 166627, Note_on_c, 5, 52, 80
1, 166627, Note_on_c, 5, 57, 0
1, 166627, Note_on_c, 6, 57, 0
1, 166627, Note_on_c, 6, 57, 80
1, 166627, Note_on_c, 6, 49, 0
1, 166627, Note_on_c, 6, 49, 80
1, 166627, Note_on_c, 7, 76, 100
1, 166627, Note_on_c, 7, 61, 100
1, 166627, Note_on_c, 7, 64, 0
1, 166627, Note_on_c, 7, 64, 100
1, 166627, Note_on_c, 7, 57, 0
1, 166627, Note_on_c, 7, 52, 100
1, 166627, Note_on_c, 7, 45, 0
1, 166627, Note_on_c, 7, 40, 100
1, 166657, Note_on_c, 7, 76, 0
1, 166657, Note_on_c, 7, 61, 0
1, 166687, Note_on_c, 4, 86, 80
1, 166687, Note_on_c, 4, 83, 80
1, 166687, Note_on_c, 5, 56, 80
1, 166687, Note_on_c, 5, 52, 0
1, 166687, Note_on_c, 6, 57, 0
1, 166687, Note_on_c, 6, 59, 80
1, 166687, Note_on_c, 6, 49, 0
1, 166687, Note_on_c, 6, 52, 80
1, 166687, Note_on_c, 7, 76, 100
1, 166687, Note_on_c, 7, 59, 100
1, 166687, Note_on_c, 7, 52, 0
1, 166687, Note_on_c, 7, 56, 100
1, 166687, Note_on_c, 7, 40, 0
1, 166687, Note_on_c, 7, 44, 100
1, 166717, Note_on_c, 7, 59, 0
1, 166747, Note_on_c, 5, 52, 80
1, 166747, Note_on_c, 5, 56, 0
1, 166747, Note_on_c, 7, 76, 0
1, 166747, Note_on_c, 7, 86, 100
1, 166747, Note_on_c, 7, 59, 100
1, 166747, Note_on_c, 7, 64, 0
1, 166747, Note_on_c, 7, 64, 100
1, 166747, Note_on_c, 7, 56, 0
1, 166747, Note_on_c, 7, 52, 100
1, 166747, Note_on_c, 7, 44, 0
1, 166747, Note_on_c, 7, 40, 100
1, 166777, Note_on_c, 7, 59, 0
1, 166807, Note_on_c, 5, 56, 80
1, 166807, Note_on_c, 5, 52, 0
1, 166807, Note_on_c, 6, 59, 0
1, 166807, Note_on_c, 6, 59, 80
1, 166807, Note_on_c, 6, 52, 0
1, 166807, Note_on_c, 6, 52, 80
1, 166807, Note_on_c, 7, 86, 0
1, 166807, Note_on_c, 7, 86, 100
1, 166807, Note_on_c, 7, 59, 100
1, 166807, Note_on_c, 7, 52, 0
1, 166807, Note_on_c, 7, 56, 100
1, 166807, Note_on_c, 7, 40, 0
1, 166807, Note_on_c, 7, 44, 100
1, 166837, Note_on_c, 7, 59, 0
1, 166867, Note_on_c, 5, 52, 80
1, 166867, Note_on_c, 5, 56, 0
1, 166867, Note_on_c, 7, 59, 100
1, 166867, Note_on_c, 7, 64, 0
1, 166867, Note_on_c, 7, 64, 100
1, 166867, Note_on_c, 7, 56, 0
1, 166867, Note_on_c, 7, 52, 100
1, 166867, Note_on_c, 7, 44, 0
1, 166867, Note_on_c, 7, 40, 100
1, 166897, Note_on_c, 7, 59, 0
1, 166927, Note_on_c, 4, 86, 0
1, 166927, Note_on_c, 4, 80, 80
1, 166927, Note_on_c, 5, 59, 80
1, 166927, Note_on_c, 5, 52, 0
1, 166927, Note_on_c, 7, 59, 100
1, 166927, Note_on_c, 7, 52, 0
1, 166927, Note_on_c, 7, 40, 0
1, 166927, Note_on_c, 7, 47, 100
1, 166987, Note_on_c, 5, 52, 80
1, 166987, Note_on_c, 5, 59, 0
1, 166987, Note_on_c, 7, 86, 0
1, 166987, Note_on_c, 7, 85, 100
1, 166987, Note_on_c, 7, 64, 0
1, 166987, Note_on_c, 7, 64, 100
1, 166987, Note_on_c, 7, 52, 100
1, 166987, Note_on_c, 7, 47, 0
1, 166987, Note_on_c, 7, 40, 100
1, 167017, Note_on_c, 7, 85, 0
1, 167017, Note_on_c, 7, 83, 100
1, 167017, Note_on_c, 7, 59, 0
1, 167047, Note_on_c, 4, 83, 0
1, 167047, Note_on_c, 4, 76, 80
1, 167047, Note_on_c, 5, 62, 80
1, 167047, Note_on_c, 5, 52, 0
1, 167047, Note_on_c, 6, 59, 0
1, 167047, Note_on_c, 6, 59, 80
1, 167047, Note_on_c, 6, 52, 0
1, 167047, Note_on_c, 6, 52, 80
1, 167047, Note_on_c, 7, 83, 0
1, 167047, Note_on_c, 7, 85, 100
1, 167047, Note_on_c, 7, 59, 100
1, 167047, Note_on_c, 7, 52, 0
1, 167047, Note_on_c, 7, 62, 100
1, 167047, Note_on_c, 7, 40, 0
1, 167047, Note_on_c, 7, 50, 100
1, 167077, Note_on_c, 7, 85, 0
1, 167077, Note_on_c, 7, 83, 100
1, 167077, Note_on_c, 7, 59, 0
1, 167107, Note_on_c, 5, 52, 80
1, 167107, Note_on_c, 5, 62, 0
1, 167107, Note_on_c, 7, 83, 0
1, 167107, Note_on_c, 7, 81, 100
1, 167107, Note_on_c, 7, 59, 100
1, 167107, Note_on_c, 7, 64, 0
1, 167107, Note_on_c, 7, 64, 100
1, 167107, Note_on_c, 7, 62, 0
1, 167107, Note_on_c, 7, 52, 100
1, 167107, Note_on_c, 7, 50, 0
1, 167107, Note_on_c, 7, 40, 100
1, 167137, Note_on_c, 7, 81, 0
1, 167137, Note_on_c, 7, 80, 100
1, 167137, Note_on_c, 7, 59, 0
1, 167167, Note_on_c, 4, 80, 0
1, 167167, Note_on_c, 4, 81, 80
1, 167167, Note_on_c, 4, 76, 0
1, 167167, Note_on_c, 4, 76, 80
1, 167167, Note_on_c, 5, 61, 80
1, 167167, Note_on_c, 5, 52, 0
1, 167167, Note_on_c, 6, 59, 0
1, 167167, Note_on_c, 6, 57, 80
1, 167167, Note_on_c, 6, 52, 0
1, 167167, Note_on_c, 6, 45, 80
1, 167167, Note_on_c, 7, 80, 0
1, 167167, Note_on_c, 7, 88, 100
1, 167167, Note_on_c, 7, 76, 100
1, 167167, Note_on_c, 7, 52, 0
1, 167167, Note_on_c, 7, 61, 100
1, 167167, Note_on_c, 7, 40, 0
1, 167167, Note_on_c, 7, 49, 100
1, 167227, Note_on_c, 7, 64, 0
1, 167227, Note_on_c, 7, 49, 0
1, 167227, Note_on_c, 7, 49, 100
1, 167287, Note_on_c, 7, 49, 0
1, 167287, Note_on_c, 7, 49, 100
1, 167317, Note_on_c, 7, 88, 0
1, 167317, Note_on_c, 7, 86, 100
1, 167317, Note_on_c, 7, 76, 0
1, 167317, Note_on_c, 7, 74, 100
1, 167332, Note_on_c, 7, 86, 0
1, 167332, Note_on_c, 7, 74, 0
1, 167347, Note_on_c, 7, 85, 100
1, 167347, Note_on_c, 7, 73, 100
1, 167347, Note_on_c, 7, 49, 0
1, 167347, Note_on_c, 7, 49, 100
1, 167362, Note_on_c, 7, 85, 0
1, 167362, Note_on_c, 7, 73, 0
1, 167377, Note_on_c, 7, 83, 100
1, 167377, Note_on_c, 7, 71, 100
1, 167392, Note_on_c, 7, 83, 0
1, 167392, Note_on_c, 7, 71, 0
1, 167407, Note_on_c, 6, 57, 0
1, 167407, Note_on_c, 6, 57, 80
1, 167407, Note_on_c, 6, 45, 0
1, 167407, Note_on_c, 6, 45, 80
1, 167407, Note_on_c, 7, 81, 100
1, 167407, Note_on_c, 7, 69, 100
1, 167407, Note_on_c, 7, 49, 0
1, 167407, Note_on_c, 7, 49, 100
1, 167422, Note_on_c, 7, 81, 0
1, 167422, Note_on_c, 7, 69, 0
1, 167437, Note_on_c, 7, 80, 100
1, 167437, Note_on_c, 7, 68, 100
1, 167452, Note_on_c, 7, 80, 0
1, 167452, Note_on_c, 7, 68, 0
1, 167467, Note_on_c, 7, 78, 100
1, 167467, Note_on_c, 7, 66, 100
1, 167467, Note_on_c, 7, 49, 0
1, 167467, Note_on_c, 7, 49, 100
1, 167482, Note_on_c, 7, 78, 0
1, 167482, Note_on_c, 7, 66, 0
1, 167497, Note_on_c, 7, 76, 100
1, 167497, Note_on_c, 7, 64, 100
1, 167512, Note_on_c, 7, 76, 0
1, 167512, Note_on_c, 7, 64, 0
1, 167527, Note_on_c, 6, 57, 0
1, 167527, Note_on_c, 6, 57, 80
1, 167527, Note_on_c, 6, 45, 0
1, 167527, Note_on_c, 6, 45, 80
1, 167527, Note_on_c, 7, 74, 100
1, 167527, Note_on_c, 7, 62, 100
1, 167527, Note_on_c, 7, 49, 0
1, 167527, Note_on_c, 7, 49, 100
1, 167542, Note_on_c, 7, 74, 0
1, 167542, Note_on_c, 7, 62, 0
1, 167557, Note_on_c, 7, 73, 100
1, 167572, Note_on_c, 7, 73, 0
1, 167587, Note_on_c, 7, 71, 100
1, 167587, Note_on_c, 7, 59, 100
1, 167587, Note_on_c, 7, 49, 0
1, 167587, Note_on_c, 7, 49, 100
1, 167602, Note_on_c, 7, 71, 0
1, 167602, Note_on_c, 7, 59, 0
1, 167617, Note_on_c, 7, 69, 100
1, 167617, Note_on_c, 7, 57, 100
1, 167632, Note_on_c, 7, 69, 0
1, 167632, Note_on_c, 7, 57, 0
1, 167647, Note_on_c, 4, 81, 0
1, 167647, Note_on_c, 4, 79, 80
1, 167647, Note_on_c, 4, 76, 0
1, 167647, Note_on_c, 5, 64, 80
1, 167647, Note_on_c, 5, 61, 0
1, 167647, Note_on_c, 6, 57, 0
1, 167647, Note_on_c, 6, 57, 80
1, 167647, Note_on_c, 6, 45, 0
1, 167647, Note_on_c, 6, 45, 80
1, 167647, Note_on_c, 7, 67, 100
1, 167647, Note_on_c, 7, 64, 100
1, 167647, Note_on_c, 7, 61, 0
1, 167647, Note_on_c, 7, 49, 0
1, 167647, Note_on_c, 7, 52, 100
1, 167707, Note_on_c, 7, 52, 0
1, 167707, Note_on_c, 7, 52, 100
1, 167767, Note_on_c, 7, 67, 0
1, 167767, Note_on_c, 7, 52, 0
1, 167767, Note_on_c, 7, 52, 100
1, 167827, Note_on_c, 7, 67, 100
1, 167827, Note_on_c, 7, 52, 0
1, 167827, Note_on_c, 7, 52, 100
1, 167887, Note_on_c, 4, 77, 80
1, 167887, Note_on_c, 4, 79, 0
1, 167887, Note_on_c, 5, 61, 80
1, 167887, Note_on_c, 5, 64, 0
1, 167887, Note_on_c, 6, 57, 0
1, 167887, Note_on_c, 6, 57, 80
1, 167887, Note_on_c, 6, 45, 0
1, 167887, Note_on_c, 6, 45, 80
1, 167887, Note_on_c, 7, 65, 100
1, 167887, Note_on_c, 7, 67, 0
1, 167887, Note_on_c, 7, 61, 100
1, 167887, Note_on_c, 7, 64, 0
1, 167887, Note_on_c, 7, 52, 0
1, 167887, Note_on_c, 7, 49, 100
1, 167947, Note_on_c, 7, 49, 0
1, 167947, Note_on_c, 7, 49, 100
1, 168007, Note_on_c, 7, 65, 0
1, 168007, Note_on_c, 7, 49, 0
1, 168007, Note_on_c, 7, 49, 100
1, 168067, Note_on_c, 7, 65, 100
1, 168067, Note_on_c, 7, 49, 0
1, 168067, Note_on_c, 7, 49, 100
1, 168127, Note_on_c, 4, 78, 80
1, 168127, Note_on_c, 4, 77, 0
1, 168127, Note_on_c, 5, 62, 80
1, 168127, Note_on_c, 5, 61, 0
1, 168127, Note_on_c, 6, 57, 0
1, 168127, Note_on_c, 6, 57, 80
1, 168127, Note_on_c, 6, 45, 0
1, 168127, Note_on_c, 6, 45, 80
1, 168127, Note_on_c, 7, 66, 100
1, 168127, Note_on_c, 7, 65, 0
1, 168127, Note_on_c, 7, 62, 100
1, 168127, Note_on_c, 7, 61, 0
1, 168127, Note_on_c, 7, 49, 0
1, 168127, Note_on_c, 7, 50, 100
1, 168187, Note_on_c, 7, 66, 0
1, 168187, Note_on_c, 7, 50, 0
1, 168187, Note_on_c, 7, 50, 100
1, 168247, Note_on_c, 6, 57, 0
1, 168247, Note_on_c, 6, 57, 80
1, 168247, Note_on_c, 6, 45, 0
1, 168247, Note_on_c, 6, 45, 80
1, 168247, Note_on_c, 7, 81, 100
1, 168247, Note_on_c, 7, 50, 0
1, 168247, Note_on_c, 7, 50, 100
1, 168307, Note_on_c, 7, 81, 0
1, 168307, Note_on_c, 7, 50, 0
1, 168307, Note_on_c, 7, 50, 100
1, 168337, Note_on_c, 6, 57, 0
1, 168337, Note_on_c, 6, 57, 80
1, 168337, Note_on_c, 6, 45, 0
1, 168337, Note_on_c, 6, 45, 80
1, 168367, Note_on_c, 4, 75, 80
1, 168367, Note_on_c, 4, 78, 0
1, 168367, Note_on_c, 5, 66, 80
1, 168367, Note_on_c, 5, 62, 0
1, 168367, Note_on_c, 6, 57, 0
1, 168367, Note_on_c, 6, 57, 80
1, 168367, Note_on_c, 6, 45, 0
1, 168367, Note_on_c, 6, 45, 80
1, 168367, Note_on_c, 7, 66, 100
1, 168367, Note_on_c, 7, 62, 0
1, 168367, Note_on_c, 7, 50, 0
1, 168367, Note_on_c, 7, 54, 100
1, 168427, Note_on_c, 7, 54, 0
1, 168427, Note_on_c, 7, 54, 100
1, 168487, Note_on_c, 6, 57, 0
1, 168487, Note_on_c, 6, 57, 80
1, 168487, Note_on_c, 6, 45, 0
1, 168487, Note_on_c, 6, 45, 80
1, 168487, Note_on_c, 7, 63, 100
1, 168487, Note_on_c, 7, 54, 0
1, 168487, Note_on_c, 7, 54, 100
1, 168547, Note_on_c, 7, 63, 0
1, 168547, Note_on_c, 7, 54, 0
1, 168547, Note_on_c, 7, 54, 100
1, 168607, Note_on_c, 4, 76, 80
1, 168607, Note_on_c, 4, 75, 0
1, 168607, Note_on_c, 5, 64, 80
1, 168607, Note_on_c, 5, 66, 0
1, 168607, Note_on_c, 6, 57, 0
1, 168607, Note_on_c, 6, 52, 80
1, 168607, Note_on_c, 6, 45, 0
1, 168607, Note_on_c, 7, 64, 100
1, 168607, Note_on_c, 7, 66, 0
1, 168607, Note_on_c, 7, 54, 0
1, 168607, Note_on_c, 7, 52, 100
1, 168667, Note_on_c, 5, 63, 80
1, 168667, Note_on_c, 5, 64, 0
1, 168667, Note_on_c, 7, 63, 100
1, 168667, Note_on_c, 7, 52, 0
1, 168667, Note_on_c, 7, 51, 100
1, 168697, Note_on_c, 7, 66, 100
1, 168697, Note_on_c, 7, 64, 0
1, 168727, Note_on_c, 5, 62, 80
1, 168727, Note_on_c, 5, 63, 0
1, 168727, Note_on_c, 7, 68, 100
1, 168727, Note_on_c, 7, 66, 0
1, 168727, Note_on_c, 7, 62, 100
1, 168727, Note_on_c, 7, 63, 0
1, 168727, Note_on_c, 7, 51, 0
1, 168727, Note_on_c, 7, 50, 100
1, 168757, Note_on_c, 7, 69, 100
1, 168757, Note_on_c, 7, 68, 0
1, 168787, Note_on_c, 5, 61, 80
1, 168787, Note_on_c, 5, 62, 0
1, 168787, Note_on_c, 7, 71, 100
1, 168787, Note_on_c, 7, 69, 0
1, 168787, Note_on_c, 7, 61, 100
1, 168787, Note_on_c, 7, 62, 0
1, 168787, Note_on_c, 7, 50, 0
1, 168787, Note_on_c, 7, 49, 100
1, 168817, Note_on_c, 7, 73, 100
1, 168817, Note_on_c, 7, 71, 0
1, 168847, Note_on_c, 4, 74, 80
1, 168847, Note_on_c, 4, 76, 0
1, 168847, Note_on_c, 5, 59, 80
1, 168847, Note_on_c, 5, 61, 0
1, 168847, Note_on_c, 7, 74, 100
1, 168847, Note_on_c, 7, 73, 0
1, 168847, Note_on_c, 7, 59, 100
1, 168847, Note_on_c, 7, 61, 0
1, 168847, Note_on_c, 7, 49, 0
1, 168847, Note_on_c, 7, 47, 100
1, 168877, Note_on_c, 4, 76, 80
1, 168877, Note_on_c, 4, 74, 0
1, 168877, Note_on_c, 7, 76, 100
1, 168877, Note_on_c, 7, 74, 0
1, 168907, Note_on_c, 4, 78, 80
1, 168907, Note_on_c, 4, 76, 0
1, 168907, Note_on_c, 5, 62, 80
1, 168907, Note_on_c, 5, 59, 0
1, 168907, Note_on_c, 7, 78, 100
1, 168907, Note_on_c, 7, 76, 0
1, 168907, Note_on_c, 7, 62, 100
1, 168907, Note_on_c, 7, 59, 0
1, 168907, Note_on_c, 7, 47, 0
1, 168907, Note_on_c, 7, 50, 100
1, 168937, Note_on_c, 4, 80, 80
1, 168937, Note_on_c, 4, 78, 0
1, 168937, Note_on_c, 7, 80, 100
1, 168937, Note_on_c, 7, 78, 0
1, 168967, Note_on_c, 4, 81, 80
1, 168967, Note_on_c, 4, 80, 0
1, 168967, Note_on_c, 5, 61, 80
1, 168967, Note_on_c, 5, 62, 0
1, 168967, Note_on_c, 7, 81, 100
1, 168967, Note_on_c, 7, 80, 0
1, 168967, Note_on_c, 7, 61, 100
1, 168967, Note_on_c, 7, 62, 0
1, 168967, Note_on_c, 7, 50, 0
1, 168967, Note_on_c, 7, 49, 100
1, 168997, Note_on_c, 4, 83, 80
1, 168997, Note_on_c, 4, 81, 0
1, 168997, Note_on_c, 7, 83, 100
1, 168997, Note_on_c, 7, 81, 0
1, 169027, Note_on_c, 4, 85, 80
1, 169027, Note_on_c, 4, 83, 0
1, 169027, Note_on_c, 5, 57, 80
1, 169027, Note_on_c, 5, 61, 0
1, 169027, Note_on_c, 7, 85, 100
1, 169027, Note_on_c, 7, 83, 0
1, 169027, Note_on_c, 7, 57, 100
1, 169027, Note_on_c, 7, 61, 0
1, 169027, Note_on_c, 7, 49, 0
1, 169027, Note_on_c, 7, 45, 100
1, 169057, Note_on_c, 4, 86, 80
1, 169057, Note_on_c, 4, 85, 0
1, 169057, Note_on_c, 7, 86, 100
1, 169057, Note_on_c, 7, 85, 0
1, 169087, Note_on_c, 4, 88, 80
1, 169087, Note_on_c, 4, 86, 0
1, 169087, Note_on_c, 5, 52, 80
1, 169087, Note_on_c, 5, 57, 0
1, 169087, Note_on_c, 7, 88, 100
1, 169087, Note_on_c, 7, 86, 0
1, 169087, Note_on_c, 7, 64, 100
1, 169087, Note_on_c, 7, 57, 0
1, 169087, Note_on_c, 7, 52, 100
1, 169087, Note_on_c, 7, 45, 0
1, 169087, Note_on_c, 7, 40, 100
1, 169147, Note_on_c, 7, 85, 100
1, 169147, Note_on_c, 7, 88, 0
1, 169147, Note_on_c, 7, 64, 0
1, 169147, Note_on_c, 7, 64, 100
1, 169147, Note_on_c, 7, 52, 0
1, 169147, Note_on_c, 7, 52, 100
1, 169147, Note_on_c, 7, 40, 0
1, 169147, Note_on_c, 7, 40, 100
1, 169177, Note_on_c, 7, 81, 100
1, 169177, Note_on_c, 7, 85, 0
1, 169207, Note_on_c, 4, 85, 80
1, 169207, Note_on_c, 4, 88, 0
1, 169207, Note_on_c, 4, 81, 80
1, 169207, Note_on_c, 6, 61, 80
1, 169207, Note_on_c, 6, 52, 0
1, 169207, Note_on_c, 6, 45, 80
1, 169207, Note_on_c, 7, 76, 100
1, 169207, Note_on_c, 7, 81, 0
1, 169207, Note_on_c, 7, 64, 0
1, 169207, Note_on_c, 7, 64, 100
1, 169207, Note_on_c, 7, 52, 0
1, 169207, Note_on_c, 7, 52, 100
1, 169207, Note_on_c, 7, 40, 0
1, 169207, Note_on_c, 7, 40, 100
1, 169267, Note_on_c, 7, 73, 100
1, 169267, Note_on_c, 7, 76, 0
1, 169267, Note_on_c, 7, 64, 0
1, 169267, Note_on_c, 7, 64, 100
1, 169267, Note_on_c, 7, 52, 0
1, 169267, Note_on_c, 7, 52, 100
1, 169267, Note_on_c, 7, 40, 0
1, 169267, Note_on_c, 7, 40, 100
1, 169297, Note_on_c, 4, 85, 0
1, 169297, Note_on_c, 4, 85, 80
1, 169297, Note_on_c, 4, 81, 0
1, 169297, Note_on_c, 4, 81, 80
1, 169297, Note_on_c, 6, 61, 0
1, 169297, Note_on_c, 6, 61, 80
1, 169297, Note_on_c, 6, 45, 0
1, 169297, Note_on_c, 6, 45, 80
1, 169297, Note_on_c, 7, 69, 100
1, 169297, Note_on_c, 7, 73, 0
1, 169327, Note_on_c, 4, 85, 0
1, 169327, Note_on_c, 4, 85, 80
1, 169327, Note_on_c, 4, 81, 0
1, 169327, Note_on_c, 4, 81, 80
1, 169327, Note_on_c, 6, 61, 0
1, 169327, Note_on_c, 6, 61, 80
1, 169327, Note_on_c, 6, 45, 0
1, 169327, Note_on_c, 6, 45, 80
1, 169327, Note_on_c, 7, 69, 0
1, 169327, Note_on_c, 7, 52, 0
1, 169327, Note_on_c, 7, 52, 100
1, 169327, Note_on_c, 7, 40, 0
1, 169327, Note_on_c, 7, 40, 100
1, 169387, Note_on_c, 4, 85, 0
1, 169387, Note_on_c, 4, 85, 80
1, 169387, Note_on_c, 4, 81, 0
1, 169387, Note_on_c, 4, 81, 80
1, 169387, Note_on_c, 6, 61, 0
1, 169387, Note_on_c, 6, 61, 80
1, 169387, Note_on_c, 6, 45, 0
1, 169387, Note_on_c, 6, 45, 80
1, 169387, Note_on_c, 7, 52, 0
1, 169387, Note_on_c, 7, 52, 100
1, 169387, Note_on_c, 7, 40, 0
1, 169387, Note_on_c, 7, 40, 100
1, 169447, Note_on_c, 4, 85, 0
1, 169447, Note_on_c, 4, 83, 80
1, 169447, Note_on_c, 4, 81, 0
1, 169447, Note_on_c, 4, 80, 80
1, 169447, Note_on_c, 6, 61, 0
1, 169447, Note_on_c, 6, 59, 80
1, 169447, Note_on_c, 6, 45, 0
1, 169447, Note_on_c, 6, 52, 80
1, 169447, Note_on_c, 7, 62, 100
1, 169447, Note_on_c, 7, 71, 100
1, 169447, Note_on_c, 7, 80, 100
1, 169447, Note_on_c, 7, 52, 0
1, 169447, Note_on_c, 7, 52, 100
1, 169447, Note_on_c, 7, 40, 0
1, 169447, Note_on_c, 7, 40, 100
1, 169507, Note_on_c, 4, 83, 0
1, 169507, Note_on_c, 4, 83, 80
1, 169507, Note_on_c, 4, 80, 0
1, 169507, Note_on_c, 4, 80, 80
1, 169507, Note_on_c, 6, 59, 0
1, 169507, Note_on_c, 6, 59, 80
1, 169507, Note_on_c, 6, 52, 0
1, 169507, Note_on_c, 6, 52, 80
1, 169507, Note_on_c, 7, 52, 0
1, 169507, Note_on_c, 7, 52, 100
1, 169507, Note_on_c, 7, 40, 0
1, 169507, Note_on_c, 7, 40, 100
1, 169567, Note_on_c, 4, 83, 0
1, 169567, Note_on_c, 4, 81, 80
1, 169567, Note_on_c, 4, 80, 0
1, 169567, Note_on_c, 5, 45, 80
1, 169567, Note_on_c, 5, 52, 0
1, 169567, Note_on_c, 6, 59, 0
1, 169567, Note_on_c, 6, 57, 80
1, 169567, Note_on_c, 6, 52, 0
1, 169567, Note_on_c, 6, 49, 80
1, 169567, Note_on_c, 7, 62, 0
1, 169567, Note_on_c, 7, 73, 100
1, 169567, Note_on_c, 7, 81, 100
1, 169567, Note_on_c, 7, 71, 0
1, 169567, Note_on_c, 7, 80, 0
1, 169567, Note_on_c, 7, 57, 100
1, 169567, Note_on_c, 7, 52, 0
1, 169567, Note_on_c, 7, 45, 100
1, 169567, Note_on_c, 7, 40, 0
1, 169567, Note_on_c, 7, 33, 100
1, 169687, Note_on_c, 4, 81, 0
1, 169687, Note_on_c, 5, 45, 0
1, 169687, Note_on_c, 6, 57, 0
1, 169687, Note_on_c, 6, 49, 0
1, 169687, Note_on_c, 7, 64, 0
1, 169687, Note_on_c, 7, 73, 0
1, 169687, Note_on_c, 7, 81, 0
1, 169687, Note_on_c, 7, 57, 0
1, 169687, Note_on_c, 7, 45, 0
1, 169687, Note_on_c, 7, 33, 0
1, 169807, Note_on_c, 7, 81, 100
1, 169807, Note_on_c, 7, 69, 100
1, 169927, Note_on_c, 7, 81, 0
1, 169927, Note_on_c, 7, 85, 100
1, 169927, Note_on_c, 7, 69, 0
1, 169927, Note_on_c, 7, 73, 100
1, 169987, Note_on_c, 7, 85, 0
1, 169987, Note_on_c, 7, 73, 0
1, 170047, Note_on_c, 7, 78, 100
1, 170047, Note_on_c, 7, 66, 100
1, 170167, Note_on_c, 7, 78, 0
1, 170167, Note_on_c, 7, 81, 100
1, 170167, Note_on_c, 7, 66, 0
1, 170167, Note_on_c, 7, 69, 100
1, 170227, Note_on_c, 7, 81, 0
1, 170227, Note_on_c, 7, 69, 0
1, 170287, Note_on_c, 7, 71, 100
1, 170287, Note_on_c, 7, 66, 100
1, 170287, Note_on_c, 7, 62, 100
1, 170287, Note_on_c, 7, 50, 100
1, 170287, Note_on_c, 7, 38, 100
1, 170317, Note_on_c, 7, 66, 0
1, 170317, Note_on_c, 7, 62, 0
1, 170317, Note_on_c, 7, 50, 0
1, 170317, Note_on_c, 7, 38, 0
1, 170347, Note_on_c, 7, 64, 100
1, 170377, Note_on_c, 7, 71, 0
1, 170377, Note_on_c, 7, 71, 100
1, 170407, Note_on_c, 7, 71, 0
1, 170407, Note_on_c, 7, 73, 100
1, 170407, Note_on_c, 7, 67, 100
1, 170407, Note_on_c, 7, 64, 0
1, 170407, Note_on_c, 7, 64, 100
1, 170407, Note_on_c, 7, 52, 100
1, 170407, Note_on_c, 7, 40, 100
1, 170437, Note_on_c, 7, 67, 0
1, 170437, Note_on_c, 7, 64, 0
1, 170437, Note_on_c, 7, 52, 0
1, 170437, Note_on_c, 7, 40, 0
1, 170497, Note_on_c, 7, 73, 0
1, 170497, Note_on_c, 7, 73, 100
1, 170527, Note_on_c, 7, 73, 0
1, 170527, Note_on_c, 7, 76, 100
1, 170527, Note_on_c, 7, 69, 100
1, 170527, Note_on_c, 7, 66, 100
1, 170527, Note_on_c, 7, 54, 100
1, 170527, Note_on_c, 7, 42, 100
1, 170647, Note_on_c, 7, 76, 0
1, 170647, Note_on_c, 7, 74, 100
1, 170647, Note_on_c, 7, 69, 0
1, 170647, Note_on_c, 7, 66, 0
1, 170647, Note_on_c, 7, 54, 0
1, 170647, Note_on_c, 7, 42, 0
1, 170707, Note_on_c, 7, 74, 0
1, 170767, Note_on_c, 7, 74, 100
1, 170767, Note_on_c, 7, 62, 100
1, 170887, Note_on_c, 7, 74, 0
1, 170887, Note_on_c, 7, 78, 100
1, 170887, Note_on_c, 7, 62, 0
1, 170887, Note_on_c, 7, 66, 100
1, 170947, Note_on_c, 7, 78, 0
1, 170947, Note_on_c, 7, 66, 0
1, 171007, Note_on_c, 7, 71, 100
1, 171007, Note_on_c, 7, 59, 100
1, 171127, Note_on_c, 7, 71, 0
1, 171127, Note_on_c, 7, 74, 100
1, 171127, Note_on_c, 7, 59, 0
1, 171127, Note_on_c, 7, 62, 100
1, 171187, Note_on_c, 7, 74, 0
1, 171187, Note_on_c, 7, 62, 0
1, 171247, Note_on_c, 7, 66, 100
1, 171247, Note_on_c, 7, 62, 100
1, 171247, Note_on_c, 7, 59, 100
1, 171247, Note_on_c, 7, 47, 100
1, 171247, Note_on_c, 7, 35, 100
1, 171277, Note_on_c, 7, 62, 0
1, 171277, Note_on_c, 7, 59, 0
1, 171277, Note_on_c, 7, 47, 0
1, 171277, Note_on_c, 7, 35, 0
1, 171307, Note_on_c, 7, 52, 100
1, 171337, Note_on_c, 7, 66, 0
1, 171337, Note_on_c, 7, 66, 100
1, 171367, Note_on_c, 7, 66, 0
1, 171367, Note_on_c, 7, 68, 100
1, 171367, Note_on_c, 7, 62, 100
1, 171367, Note_on_c, 7, 52, 0
1, 171367, Note_on_c, 7, 64, 100
1, 171367, Note_on_c, 7, 52, 100
1, 171367, Note_on_c, 7, 40, 100
1, 171397, Note_on_c, 7, 62, 0
1, 171397, Note_on_c, 7, 64, 0
1, 171397, Note_on_c, 7, 52, 0
1, 171397, Note_on_c, 7, 40, 0
1, 171457, Note_on_c, 7, 68, 0
1, 171457, Note_on_c, 7, 68, 100
1, 171487, Note_on_c, 7, 68, 0
1, 171487, Note_on_c, 7, 69, 100
1, 171487, Note_on_c, 7, 61, 100
1, 171487, Note_on_c, 7, 57, 100
1, 171487, Note_on_c, 7, 45, 100
1, 171487, Note_on_c, 7, 33, 100
1, 171517, Note_on_c, 7, 69, 0
1, 171517, Note_on_c, 7, 73, 100
1, 171547, Note_on_c, 7, 73, 0
1, 171547, Note_on_c, 7, 76, 100
1, 171577, Note_on_c, 7, 76, 0
1, 171577, Note_on_c, 7, 73, 100
1, 171607, Note_on_c, 7, 73, 0
1, 171607, Note_on_c, 7, 69, 100
1, 171607, Note_on_c, 7, 61, 0
1, 171607, Note_on_c, 7, 57, 0
1, 171607, Note_on_c, 7, 45, 0
1, 171607, Note_on_c, 7, 33, 0
1, 171637, Note_on_c, 7, 69, 0
1, 171637, Note_on_c, 7, 64, 100
1, 171667, Note_on_c, 7, 64, 0
1, 171667, Note_on_c, 7, 61, 100
1, 171697, Note_on_c, 7, 61, 0
1, 171697, Note_on_c, 7, 64, 100
1, 171727, Note_on_c, 7, 64, 0
1, 171727, Note_on_c, 7, 66, 100
1, 171727, Note_on_c, 7, 62, 100
1, 171727, Note_on_c, 7, 59, 100
1, 171727, Note_on_c, 7, 50, 100
1, 171727, Note_on_c, 7, 38, 100
1, 171757, Note_on_c, 7, 66, 0
1, 171757, Note_on_c, 7, 59, 0
1, 171757, Note_on_c, 7, 50, 0
1, 171757, Note_on_c, 7, 38, 0
1, 171787, Note_on_c, 7, 62, 0
1, 171787, Note_on_c, 7, 66, 100
1, 171817, Note_on_c, 7, 66, 0
1, 171817, Note_on_c, 7, 69, 100
1, 171847, Note_on_c, 7, 69, 0
1, 171847, Note_on_c, 7, 68, 100
1, 171847, Note_on_c, 7, 62, 100
1, 171847, Note_on_c, 7, 59, 100
1, 171847, Note_on_c, 7, 52, 100
1, 171847, Note_on_c, 7, 40, 100
1, 171877, Note_on_c, 7, 68, 0
1, 171877, Note_on_c, 7, 64, 100
1, 171877, Note_on_c, 7, 62, 0
1, 171877, Note_on_c, 7, 59, 0
1, 171877, Note_on_c, 7, 52, 0
1, 171877, Note_on_c, 7, 40, 0
1, 171907, Note_on_c, 7, 64, 0
1, 171907, Note_on_c, 7, 68, 100
1, 171937, Note_on_c, 7, 68, 0
1, 171937, Note_on_c, 7, 71, 100
1, 171967, Note_on_c, 7, 71, 0
1, 171967, Note_on_c, 7, 69, 100
1, 171967, Note_on_c, 7, 61, 100
1, 171967, Note_on_c, 7, 57, 100
1, 171967, Note_on_c, 7, 45, 100
1, 171967, Note_on_c, 7, 33, 100
1, 171997, Note_on_c, 7, 69, 0
1, 171997, Note_on_c, 7, 73, 100
1, 172027, Note_on_c, 7, 73, 0
1, 172027, Note_on_c, 7, 76, 100
1, 172057, Note_on_c, 7, 76, 0
1, 172057, Note_on_c, 7, 73, 100
1, 172087, Note_on_c, 7, 73, 0
1, 172087, Note_on_c, 7, 69, 100
1, 172087, Note_on_c, 7, 61, 0
1, 172087, Note_on_c, 7, 57, 0
1, 172087, Note_on_c, 7, 45, 0
1, 172087, Note_on_c, 7, 33, 0
1, 172117, Note_on_c, 7, 69, 0
1, 172117, Note_on_c, 7, 64, 100
1, 172147, Note_on_c, 7, 64, 0
1, 172147, Note_on_c, 7, 61, 100
1, 172177, Note_on_c, 7, 61, 0
1, 172177, Note_on_c, 7, 64, 100
1, 172207, Note_on_c, 7, 64, 0
1, 172207, Note_on_c, 7, 66, 100
1, 172207, Note_on_c, 7, 62, 100
1, 172207, Note_on_c, 7, 59, 100
1, 172207, Note_on_c, 7, 50, 100
1, 172207, Note_on_c, 7, 38, 100
1, 172237, Note_on_c, 7, 66, 0
1, 172237, Note_on_c, 7, 59, 0
1, 172237, Note_on_c, 7, 50, 0
1, 172237, Note_on_c, 7, 38, 0
1, 172267, Note_on_c, 7, 62, 0
1, 172267, Note_on_c, 7, 66, 100
1, 172297, Note_on_c, 7, 66, 0
1, 172297, Note_on_c, 7, 69, 100
1, 172327, Note_on_c, 7, 69, 0
1, 172327, Note_on_c, 7, 68, 100
1, 172327, Note_on_c, 7, 62, 100
1, 172327, Note_on_c, 7, 59, 100
1, 172327, Note_on_c, 7, 52, 100
1, 172327, Note_on_c, 7, 40, 100
1, 172357, Note_on_c, 7, 68, 0
1, 172357, Note_on_c, 7, 64, 100
1, 172357, Note_on_c, 7, 62, 0
1, 172357, Note_on_c, 7, 59, 0
1, 172357, Note_on_c, 7, 52, 0
1, 172357, Note_on_c, 7, 40, 0
1, 172387, Note_on_c, 7, 64, 0
1, 172387, Note_on_c, 7, 68, 100
1, 172417, Note_on_c, 7, 68, 0
1, 172417, Note_on_c, 7, 71, 100
1, 172447, Note_on_c, 4, 81, 80
1, 172447, Note_on_c, 4, 73, 80
1, 172447, Note_on_c, 5, 64, 80
1, 172447, Note_on_c, 5, 61, 80
1, 172447, Note_on_c, 6, 57, 80
1, 172447, Note_on_c, 6, 45, 80
1, 172447, Note_on_c, 7, 71, 0
1, 172447, Note_on_c, 7, 69, 100
1, 172447, Note_on_c, 7, 61, 100
1, 172447, Note_on_c, 7, 57, 100
1, 172447, Note_on_c, 7, 45, 100
1, 172447, Note_on_c, 7, 33, 100
1, 172477, Note_on_c, 7, 69, 0
1, 172477, Note_on_c, 7, 64, 100
1, 172507, Note_on_c, 7, 64, 0
1, 172507, Note_on_c, 7, 57, 0
1, 172507, Note_on_c, 7, 69, 100
1, 172507, Note_on_c, 7, 45, 0
1, 172507, Note_on_c, 7, 57, 100
1, 172507, Note_on_c, 7, 33, 0
1, 172507, Note_on_c, 7, 45, 100
1, 172537, Note_on_c, 7, 64, 100
1, 172537, Note_on_c, 7, 61, 0
1, 172537, Note_on_c, 7, 69, 0
1, 172537, Note_on_c, 7, 57, 0
1, 172537, Note_on_c, 7, 45, 0
1, 172567, Note_on_c, 4, 81, 0
1, 172567, Note_on_c, 4, 81, 80
1, 172567, Note_on_c, 4, 73, 0
1, 172567, Note_on_c, 4, 73, 80
1, 172567, Note_on_c, 5, 64, 0
1, 172567, Note_on_c, 5, 64, 80
1, 172567, Note_on_c, 5, 61, 0
1, 172567, Note_on_c, 5, 61, 80
1, 172567, Note_on_c, 6, 57, 0
1, 172567, Note_on_c, 6, 57, 80
1, 172567, Note_on_c, 6, 45, 0
1, 172567, Note_on_c, 6, 45, 80
1, 172567, Note_on_c, 7, 69, 100
1, 172567, Note_on_c, 7, 64, 0
1, 172567, Note_on_c, 7, 73, 100
1, 172567, Note_on_c, 7, 61, 100
1, 172567, Note_on_c, 7, 49, 100
1, 172597, Note_on_c, 7, 64, 100
1, 172597, Note_on_c, 7, 69, 0
1, 172597, Note_on_c, 7, 73, 0
1, 172597, Note_on_c, 7, 61, 0
1, 172597, Note_on_c, 7, 49, 0
1, 172627, Note_on_c, 7, 69, 100
1, 172627, Note_on_c, 7, 64, 0
1, 172627, Note_on_c, 7, 57, 100
1, 172627, Note_on_c, 7, 45, 100
1, 172657, Note_on_c, 4, 81, 0
1, 172657, Note_on_c, 4, 81, 80
1, 172657, Note_on_c, 4, 73, 0
1, 172657, Note_on_c, 4, 73, 80
1, 172657, Note_on_c, 5, 64, 0
1, 172657, Note_on_c, 5, 64, 80
1, 172657, Note_on_c, 5, 61, 0
1, 172657, Note_on_c, 5, 61, 80
1, 172657, Note_on_c, 6, 57, 0
1, 172657, Note_on_c, 6, 57, 80
1, 172657, Note_on_c, 6, 45, 0
1, 172657, Note_on_c, 6, 45, 80
1, 172657, Note_on_c, 7, 64, 100
1, 172657, Note_on_c, 7, 69, 0
1, 172657, Note_on_c, 7, 57, 0
1, 172657, Note_on_c, 7, 45, 0
1, 172687, Note_on_c, 4, 81, 0
1, 172687, Note_on_c, 4, 81, 80
1, 172687, Note_on_c, 4, 73, 0
1, 172687, Note_on_c, 4, 73, 80
1, 172687, Note_on_c, 5, 64, 0
1, 172687, Note_on_c, 5, 64, 80
1, 172687, Note_on_c, 5, 61, 0
1, 172687, Note_on_c, 5, 61, 80
1, 172687, Note_on_c, 6, 57, 0
1, 172687, Note_on_c, 6, 57, 80
1, 172687, Note_on_c, 6, 45, 0
1, 172687, Note_on_c, 6, 45, 80
1, 172687, Note_on_c, 7, 73, 100
1, 172687, Note_on_c, 7, 64, 0
1, 172687, Note_on_c, 7, 64, 100
1, 172687, Note_on_c, 7, 52, 100
1, 172687, Note_on_c, 7, 40, 100
1, 172717, Note_on_c, 7, 69, 100
1, 172717, Note_on_c, 7, 73, 0
1, 172717, Note_on_c, 7, 64, 0
1, 172717, Note_on_c, 7, 52, 0
1, 172717, Note_on_c, 7, 40, 0
1, 172747, Note_on_c, 4, 81, 0
1, 172747, Note_on_c, 4, 81, 80
1, 172747, Note_on_c, 4, 73, 0
1, 172747, Note_on_c, 4, 73, 80
1, 172747, Note_on_c, 5, 64, 0
1, 172747, Note_on_c, 5, 64, 80
1, 172747, Note_on_c, 5, 61, 0
1, 172747, Note_on_c, 5, 61, 80
1, 172747, Note_on_c, 6, 57, 0
1, 172747, Note_on_c, 6, 57, 80
1, 172747, Note_on_c, 6, 45, 0
1, 172747, Note_on_c, 6, 45, 80
1, 172747, Note_on_c, 7, 73, 100
1, 172747, Note_on_c, 7, 69, 0
1, 172747, Note_on_c, 7, 69, 100
1, 172747, Note_on_c, 7, 57, 100
1, 172747, Note_on_c, 7, 45, 100
1, 172777, Note_on_c, 7, 73, 0
1, 172777, Note_on_c, 7, 57, 0
1, 172777, Note_on_c, 7, 45, 0
1, 172807, Note_on_c, 4, 81, 0
1, 172807, Note_on_c, 4, 81, 80
1, 172807, Note_on_c, 4, 73, 0
1, 172807, Note_on_c, 4, 73, 80
1, 172807, Note_on_c, 5, 64, 0
1, 172807, Note_on_c, 5, 64, 80
1, 172807, Note_on_c, 5, 61, 0
1, 172807, Note_on_c, 5, 61, 80
1, 172807, Note_on_c, 6, 57, 0
1, 172807, Note_on_c, 6, 57, 80
1, 172807, Note_on_c, 6, 45, 0
1, 172807, Note_on_c, 6, 45, 80
1, 172807, Note_on_c, 7, 76, 100
1, 172807, Note_on_c, 7, 69, 0
1, 172807, Note_on_c, 7, 61, 100
1, 172807, Note_on_c, 7, 49, 100
1, 172807, Note_on_c, 7, 37, 100
1, 172837, Note_on_c, 7, 73, 100
1, 172837, Note_on_c, 7, 76, 0
1, 172837, Note_on_c, 7, 61, 0
1, 172837, Note_on_c, 7, 49, 0
1, 172837, Note_on_c, 7, 37, 0
1, 172867, Note_on_c, 4, 81, 0
1, 172867, Note_on_c, 4, 81, 80
1, 172867, Note_on_c, 4, 73, 0
1, 172867, Note_on_c, 4, 73, 80
1, 172867, Note_on_c, 5, 64, 0
1, 172867, Note_on_c, 5, 64, 80
1, 172867, Note_on_c, 5, 61, 0
1, 172867, Note_on_c, 5, 61, 80
1, 172867, Note_on_c, 6, 57, 0
1, 172867, Note_on_c, 6, 57, 80
1, 172867, Note_on_c, 6, 45, 0
1, 172867, Note_on_c, 6, 45, 80
1, 172867, Note_on_c, 7, 76, 100
1, 172867, Note_on_c, 7, 73, 0
1, 172867, Note_on_c, 7, 64, 100
1, 172867, Note_on_c, 7, 52, 100
1, 172867, Note_on_c, 7, 40, 100
1, 172897, Note_on_c, 7, 73, 100
1, 172897, Note_on_c, 7, 76, 0
1, 172897, Note_on_c, 7, 64, 0
1, 172897, Note_on_c, 7, 52, 0
1, 172897, Note_on_c, 7, 40, 0
1, 172927, Note_on_c, 4, 81, 0
1, 172927, Note_on_c, 4, 81, 80
1, 172927, Note_on_c, 4, 73, 0
1, 172927, Note_on_c, 4, 73, 80
1, 172927, Note_on_c, 5, 64, 0
1, 172927, Note_on_c, 5, 64, 80
1, 172927, Note_on_c, 5, 61, 0
1, 172927, Note_on_c, 5, 61, 80
1, 172927, Note_on_c, 6, 57, 0
1, 172927, Note_on_c, 6, 57, 80
1, 172927, Note_on_c, 6, 45, 0
1, 172927, Note_on_c, 6, 45, 80
1, 172927, Note_on_c, 7, 69, 100
1, 172927, Note_on_c, 7, 73, 0
1, 172927, Note_on_c, 7, 57, 100
1, 172927, Note_on_c, 7, 45, 100
1, 172927, Note_on_c, 7, 33, 100
1, 172987, Note_on_c, 7, 69, 0
1, 172987, Note_on_c, 7, 57, 0
1, 172987, Note_on_c, 7, 45, 0
1, 172987, Note_on_c, 7, 33, 0
1, 173047, Note_on_c, 4, 81, 0
1, 173047, Note_on_c, 4, 85, 80
1, 173047, Note_on_c, 4, 73, 0
1, 173047, Note_on_c, 4, 76, 80
1, 173047, Note_on_c, 5, 64, 0
1, 173047, Note_on_c, 5, 64, 80
1, 173047, Note_on_c, 5, 61, 0
1, 173047, Note_on_c, 5, 61, 80
1, 173047, Note_on_c, 6, 57, 0
1, 173047, Note_on_c, 6, 57, 80
1, 173047, Note_on_c, 6, 45, 0
1, 173047, Note_on_c, 6, 45, 80
1, 173047, Note_on_c, 7, 64, 100
1, 173047, Note_on_c, 7, 73, 100
1, 173047, Note_on_c, 7, 81, 100
1, 173047, Note_on_c, 7, 69, 100
1, 173047, Note_on_c, 7, 57, 100
1, 173047, Note_on_c, 7, 45, 100
1, 173107, Note_on_c, 7, 64, 0
1, 173107, Note_on_c, 7, 73, 0
1, 173107, Note_on_c, 7, 81, 0
1, 173107, Note_on_c, 7, 69, 0
1, 173107, Note_on_c, 7, 57, 0
1, 173107, Note_on_c, 7, 45, 0
1, 173167, Note_on_c, 4, 85, 0
1, 173167, Note_on_c, 4, 81, 80
1, 173167, Note_on_c, 4, 76, 0
1, 173167, Note_on_c, 4, 73, 80
1, 173167, Note_on_c, 5, 64, 0
1, 173167, Note_on_c, 5, 64, 80
1, 173167, Note_on_c, 5, 61, 0
1, 173167, Note_on_c, 5, 61, 80
1, 173167, Note_on_c, 6, 57, 0
1, 173167, Note_on_c, 6, 57, 80
1, 173167, Note_on_c, 6, 45, 0
1, 173167, Note_on_c, 6, 45, 80
1, 173167, Note_on_c, 7, 57, 100
1, 173167, Note_on_c, 7, 45, 100
1, 173167, Note_on_c, 7, 33, 100
1, 173227, Note_on_c, 7, 57, 0
1, 173227, Note_on_c, 7, 45, 0
1, 173227, Note_on_c, 7, 33, 0
1, 173287, Note_on_c, 4, 81, 0
1, 173287, Note_on_c, 4, 73, 0
1, 173287, Note_on_c, 5, 64, 0
1, 173287, Note_on_c, 5, 61, 0
1, 173287, Note_on_c, 6, 57, 0
1, 173287, Note_on_c, 6, 45, 0
1, 173407, End_track
0, 0, End_of_file