0, 0, Header, 1, 4, 240
1, 0, Start_track
1, 0, Title_t, "untitled"
1, 0, Time_signature, 3, 2, 24, 8
1, 0, Key_signature, 0, "major"
1, 0, Tempo, 389610
1, 0, End_track
2, 0, Start_track
2, 0, Program_c, 0, 0
2, 0, Note_on_c, 0, 77, 64
2, 96, Note_on_c, 0, 77, 0
2, 120, Note_on_c, 0, 81, 64
2, 216, Note_on_c, 0, 81, 0
2, 240, Note_on_c, 0, 72, 64
2, 348, Note_on_c, 0, 72, 0
2, 480, Note_on_c, 0, 72, 64
2, 588, Note_on_c, 0, 72, 0
2, 720, Note_on_c, 0, 74, 64
2, 816, Note_on_c, 0, 74, 0
2, 840, Note_on_c, 0, 77, 64
2, 936, Note_on_c, 0, 77, 0
2, 960, Note_on_c, 0, 70, 64
2, 1068, Note_on_c, 0, 70, 0
2, 1200, Note_on_c, 0, 70, 64
2, 1308, Note_on_c, 0, 70, 0
2, 1440, Note_on_c, 0, 69, 64
2, 1536, Note_on_c, 0, 69, 0
2, 1560, Note_on_c, 0, 72, 64
2, 1656, Note_on_c, 0, 72, 0
2, 1680, Note_on_c, 0, 65, 64
2, 1788, Note_on_c, 0, 65, 0
2, 1920, Note_on_c, 0, 64, 64
2, 2028, Note_on_c, 0, 64, 0
2, 2160, Note_on_c, 0, 64, 64
2, 2544, Note_on_c, 0, 64, 0
2, 2640, Note_on_c, 0, 65, 64
2, 2748, Note_on_c, 0, 65, 0
2, 2880, Note_on_c, 0, 60, 64
2, 2976, Note_on_c, 0, 60, 0
2, 3000, Note_on_c, 0, 64, 64
2, 3096, Note_on_c, 0, 64, 0
2, 3120, Note_on_c, 0, 67, 64
2, 3228, Note_on_c, 0, 67, 0
2, 3360, Note_on_c, 0, 67, 64
2, 3468, Note_on_c, 0, 67, 0
2, 3600, Note_on_c, 0, 60, 64
2, 3696, Note_on_c, 0, 60, 0
2, 3720, Note_on_c, 0, 65, 64
2, 3816, Note_on_c, 0, 65, 0
2, 3840, Note_on_c, 0, 69, 64
2, 3948, Note_on_c, 0, 69, 0
2, 4080, Note_on_c, 0, 69, 64
2, 4188, Note_on_c, 0, 69, 0
2, 4320, Note_on_c, 0, 60, 64
2, 4356, Note_on_c, 0, 60, 0
2, 4400, Note_on_c, 0, 64, 64
2, 4436, Note_on_c, 0, 64, 0
2, 4480, Note_on_c, 0, 67, 64
2, 4516, Note_on_c, 0, 67, 0
2, 4560, Note_on_c, 0, 70, 64
2, 4668, Note_on_c, 0, 70, 0
2, 4800, Note_on_c, 0, 69, 64
2, 4908, Note_on_c, 0, 69, 0
2, 5040, Note_on_c, 0, 69, 64
2, 5424, Note_on_c, 0, 69, 0
2, 5520, Note_on_c, 0, 67, 64
2, 5628, Note_on_c, 0, 67, 0
2, 5760, Note_on_c, 0, 77, 64
2, 5856, Note_on_c, 0, 77, 0
2, 5880, Note_on_c, 0, 81, 64
2, 5976, Note_on_c, 0, 81, 0
2, 6000, Note_on_c, 0, 72, 64
2, 6108, Note_on_c, 0, 72, 0
2, 6240, Note_on_c, 0, 72, 64
2, 6348, Note_on_c, 0, 72, 0
2, 6480, Note_on_c, 0, 74, 64
2, 6576, Note_on_c, 0, 74, 0
2, 6600, Note_on_c, 0, 77, 64
2, 6696, Note_on_c, 0, 77, 0
2, 6720, Note_on_c, 0, 70, 64
2, 6828, Note_on_c, 0, 70, 0
2, 6960, Note_on_c, 0, 70, 64
2, 7068, Note_on_c, 0, 70, 0
2, 7200, Note_on_c, 0, 69, 64
2, 7296, Note_on_c, 0, 69, 0
2, 7320, Note_on_c, 0, 72, 64
2, 7416, Note_on_c, 0, 72, 0
2, 7440, Note_on_c, 0, 65, 64
2, 7548, Note_on_c, 0, 65, 0
2, 7680, Note_on_c, 0, 64, 64
2, 7788, Note_on_c, 0, 64, 0
2, 7920, Note_on_c, 0, 64, 64
2, 8304, Note_on_c, 0, 64, 0
2, 8400, Note_on_c, 0, 65, 64
2, 8592, Note_on_c, 0, 65, 0
2, 8640, Note_on_c, 0, 60, 64
2, 8736, Note_on_c, 0, 60, 0
2, 8760, Note_on_c, 0, 64, 64
2, 8856, Note_on_c, 0, 64, 0
2, 8880, Note_on_c, 0, 67, 64
2, 8988, Note_on_c, 0, 67, 0
2, 9120, Note_on_c, 0, 67, 64
2, 9228, Note_on_c, 0, 67, 0
2, 9360, Note_on_c, 0, 60, 64
2, 9456, Note_on_c, 0, 60, 0
2, 9480, Note_on_c, 0, 65, 64
2, 9576, Note_on_c, 0, 65, 0
2, 9600, Note_on_c, 0, 69, 64
2, 9708, Note_on_c, 0, 69, 0
2, 9840, Note_on_c, 0, 69, 64
2, 9948, Note_on_c, 0, 69, 0
2, 10080, Note_on_c, 0, 60, 64
2, 10116, Note_on_c, 0, 60, 0
2, 10160, Note_on_c, 0, 64, 64
2, 10196, Note_on_c, 0, 64, 0
2, 10240, Note_on_c, 0, 67, 64
2, 10276, Note_on_c, 0, 67, 0
2, 10320, Note_on_c, 0, 70, 64
2, 10428, Note_on_c, 0, 70, 0
2, 10560, Note_on_c, 0, 69, 64
2, 10668, Note_on_c, 0, 69, 0
2, 10800, Note_on_c, 0, 69, 64
2, 11184, Note_on_c, 0, 69, 0
2, 11280, Note_on_c, 0, 67, 64
2, 11388, Note_on_c, 0, 67, 0
2, 11520, Note_on_c, 0, 72, 64
2, 11616, Note_on_c, 0, 72, 0
2, 11640, Note_on_c, 0, 75, 64
2, 11736, Note_on_c, 0, 75, 0
2, 11760, Note_on_c, 0, 69, 64
2, 11868, Note_on_c, 0, 69, 0
2, 12000, Note_on_c, 0, 69, 64
2, 12108, Note_on_c, 0, 69, 0
2, 12240, Note_on_c, 0, 70, 64
2, 12336, Note_on_c, 0, 70, 0
2, 12360, Note_on_c, 0, 74, 64
2, 12456, Note_on_c, 0, 74, 0
2, 12480, Note_on_c, 0, 67, 64
2, 12588, Note_on_c, 0, 67, 0
2, 12720, Note_on_c, 0, 67, 64
2, 12828, Note_on_c, 0, 67, 0
2, 12960, Note_on_c, 0, 69, 64
2, 13056, Note_on_c, 0, 69, 0
2, 13080, Note_on_c, 0, 72, 64
2, 13176, Note_on_c, 0, 72, 0
2, 13200, Note_on_c, 0, 66, 64
2, 13308, Note_on_c, 0, 66, 0
2, 13440, Note_on_c, 0, 66, 64
2, 13548, Note_on_c, 0, 66, 0
2, 13680, Note_on_c, 0, 66, 64
2, 14064, Note_on_c, 0, 66, 0
2, 14160, Note_on_c, 0, 67, 64
2, 14268, Note_on_c, 0, 67, 0
2, 14400, Note_on_c, 0, 70, 64
2, 14496, Note_on_c, 0, 70, 0
2, 14520, Note_on_c, 0, 74, 64
2, 14616, Note_on_c, 0, 74, 0
2, 14640, Note_on_c, 0, 67, 64
2, 14748, Note_on_c, 0, 67, 0
2, 14880, Note_on_c, 0, 67, 64
2, 14988, Note_on_c, 0, 67, 0
2, 15120, Note_on_c, 0, 69, 64
2, 15216, Note_on_c, 0, 69, 0
2, 15240, Note_on_c, 0, 72, 64
2, 15336, Note_on_c, 0, 72, 0
2, 15360, Note_on_c, 0, 65, 64
2, 15468, Note_on_c, 0, 65, 0
2, 15600, Note_on_c, 0, 65, 64
2, 15708, Note_on_c, 0, 65, 0
2, 15840, Note_on_c, 0, 67, 64
2, 15936, Note_on_c, 0, 67, 0
2, 15960, Note_on_c, 0, 70, 64
2, 16056, Note_on_c, 0, 70, 0
2, 16080, Note_on_c, 0, 64, 64
2, 16188, Note_on_c, 0, 64, 0
2, 16320, Note_on_c, 0, 64, 64
2, 16428, Note_on_c, 0, 64, 0
2, 16560, Note_on_c, 0, 64, 64
2, 16944, Note_on_c, 0, 64, 0
2, 17040, Note_on_c, 0, 65, 64
2, 17148, Note_on_c, 0, 65, 0
2, 17280, Note_on_c, 0, 77, 64
2, 17376, Note_on_c, 0, 77, 0
2, 17400, Note_on_c, 0, 81, 64
2, 17496, Note_on_c, 0, 81, 0
2, 17520, Note_on_c, 0, 72, 64
2, 17628, Note_on_c, 0, 72, 0
2, 17760, Note_on_c, 0, 72, 64
2, 17868, Note_on_c, 0, 72, 0
2, 18000, Note_on_c, 0, 74, 64
2, 18096, Note_on_c, 0, 74, 0
2, 18120, Note_on_c, 0, 77, 64
2, 18216, Note_on_c, 0, 77, 0
2, 18240, Note_on_c, 0, 70, 64
2, 18348, Note_on_c, 0, 70, 0
2, 18480, Note_on_c, 0, 70, 64
2, 18588, Note_on_c, 0, 70, 0
2, 18720, Note_on_c, 0, 69, 64
2, 18816, Note_on_c, 0, 69, 0
2, 18840, Note_on_c, 0, 72, 64
2, 18936, Note_on_c, 0, 72, 0
2, 18960, Note_on_c, 0, 65, 64
2, 19068, Note_on_c, 0, 65, 0
2, 19200, Note_on_c, 0, 64, 64
2, 19308, Note_on_c, 0, 64, 0
2, 19440, Note_on_c, 0, 64, 64
2, 19824, Note_on_c, 0, 64, 0
2, 19920, Note_on_c, 0, 65, 64
2, 20028, Note_on_c, 0, 65, 0
2, 20160, Note_on_c, 0, 77, 64
2, 20256, Note_on_c, 0, 77, 0
2, 20280, Note_on_c, 0, 81, 64
2, 20376, Note_on_c, 0, 81, 0
2, 20400, Note_on_c, 0, 72, 64
2, 20508, Note_on_c, 0, 72, 0
2, 20640, Note_on_c, 0, 72, 64
2, 20748, Note_on_c, 0, 72, 0
2, 20880, Note_on_c, 0, 74, 64
2, 20976, Note_on_c, 0, 74, 0
2, 21000, Note_on_c, 0, 77, 64
2, 21096, Note_on_c, 0, 77, 0
2, 21120, Note_on_c, 0, 70, 64
2, 21228, Note_on_c, 0, 70, 0
2, 21360, Note_on_c, 0, 70, 64
2, 21468, Note_on_c, 0, 70, 0
2, 21600, Note_on_c, 0, 69, 64
2, 21696, Note_on_c, 0, 69, 0
2, 21720, Note_on_c, 0, 72, 64
2, 21816, Note_on_c, 0, 72, 0
2, 21840, Note_on_c, 0, 65, 64
2, 21948, Note_on_c, 0, 65, 0
2, 22080, Note_on_c, 0, 64, 64
2, 22188, Note_on_c, 0, 64, 0
2, 22320, Note_on_c, 0, 64, 64
2, 22704, Note_on_c, 0, 64, 0
2, 22800, Note_on_c, 0, 65, 64
2, 22908, Note_on_c, 0, 65, 0
2, 23040, Note_on_c, 0, 72, 64
2, 23136, Note_on_c, 0, 72, 0
2, 23160, Note_on_c, 0, 75, 64
2, 23256, Note_on_c, 0, 75, 0
2, 23280, Note_on_c, 0, 69, 64
2, 23388, Note_on_c, 0, 69, 0
2, 23520, Note_on_c, 0, 69, 64
2, 23628, Note_on_c, 0, 69, 0
2, 23760, Note_on_c, 0, 70, 64
2, 23856, Note_on_c, 0, 70, 0
2, 23880, Note_on_c, 0, 74, 64
2, 23976, Note_on_c, 0, 74, 0
2, 24000, Note_on_c, 0, 67, 64
2, 24108, Note_on_c, 0, 67, 0
2, 24240, Note_on_c, 0, 67, 64
2, 24348, Note_on_c, 0, 67, 0
2, 24480, Note_on_c, 0, 69, 64
2, 24576, Note_on_c, 0, 69, 0
2, 24600, Note_on_c, 0, 72, 64
2, 24696, Note_on_c, 0, 72, 0
2, 24720, Note_on_c, 0, 66, 64
2, 24828, Note_on_c, 0, 66, 0
2, 24960, Note_on_c, 0, 66, 64
2, 25068, Note_on_c, 0, 66, 0
2, 25200, Note_on_c, 0, 66, 64
2, 25584, Note_on_c, 0, 66, 0
2, 25680, Note_on_c, 0, 67, 64
2, 25788, Note_on_c, 0, 67, 0
2, 25920, Note_on_c, 0, 70, 64
2, 26016, Note_on_c, 0, 70, 0
2, 26040, Note_on_c, 0, 74, 64
2, 26136, Note_on_c, 0, 74, 0
2, 26160, Note_on_c, 0, 67, 64
2, 26268, Note_on_c, 0, 67, 0
2, 26400, Note_on_c, 0, 67, 64
2, 26508, Note_on_c, 0, 67, 0
2, 26640, Note_on_c, 0, 69, 64
2, 26736, Note_on_c, 0, 69, 0
2, 26760, Note_on_c, 0, 72, 64
2, 26856, Note_on_c, 0, 72, 0
2, 26880, Note_on_c, 0, 65, 64
2, 26988, Note_on_c, 0, 65, 0
2, 27120, Note_on_c, 0, 65, 64
2, 27228, Note_on_c, 0, 65, 0
2, 27360, Note_on_c, 0, 67, 64
2, 27456, Note_on_c, 0, 67, 0
2, 27480, Note_on_c, 0, 70, 64
2, 27576, Note_on_c, 0, 70, 0
2, 27600, Note_on_c, 0, 64, 64
2, 27708, Note_on_c, 0, 64, 0
2, 27840, Note_on_c, 0, 64, 64
2, 27948, Note_on_c, 0, 64, 0
2, 28080, Note_on_c, 0, 64, 64
2, 28464, Note_on_c, 0, 64, 0
2, 28560, Note_on_c, 0, 65, 64
2, 28668, Note_on_c, 0, 65, 0
2, 28800, Note_on_c, 0, 77, 64
2, 28896, Note_on_c, 0, 77, 0
2, 28920, Note_on_c, 0, 81, 64
2, 29016, Note_on_c, 0, 81, 0
2, 29040, Note_on_c, 0, 72, 64
2, 29148, Note_on_c, 0, 72, 0
2, 29280, Note_on_c, 0, 72, 64
2, 29388, Note_on_c, 0, 72, 0
2, 29520, Note_on_c, 0, 74, 64
2, 29616, Note_on_c, 0, 74, 0
2, 29640, Note_on_c, 0, 77, 64
2, 29736, Note_on_c, 0, 77, 0
2, 29760, Note_on_c, 0, 70, 64
2, 29868, Note_on_c, 0, 70, 0
2, 30000, Note_on_c, 0, 70, 64
2, 30108, Note_on_c, 0, 70, 0
2, 30240, Note_on_c, 0, 69, 64
2, 30336, Note_on_c, 0, 69, 0
2, 30360, Note_on_c, 0, 72, 64
2, 30456, Note_on_c, 0, 72, 0
2, 30480, Note_on_c, 0, 65, 64
2, 30588, Note_on_c, 0, 65, 0
2, 30720, Note_on_c, 0, 64, 64
2, 30828, Note_on_c, 0, 64, 0
2, 30960, Note_on_c, 0, 64, 64
2, 31344, Note_on_c, 0, 64, 0
2, 31440, Note_on_c, 0, 65, 64
2, 31548, Note_on_c, 0, 65, 0
2, 31680, Note_on_c, 0, 77, 64
2, 31776, Note_on_c, 0, 77, 0
2, 31800, Note_on_c, 0, 81, 64
2, 31896, Note_on_c, 0, 81, 0
2, 31920, Note_on_c, 0, 72, 64
2, 32028, Note_on_c, 0, 72, 0
2, 32160, Note_on_c, 0, 72, 64
2, 32268, Note_on_c, 0, 72, 0
2, 32400, Note_on_c, 0, 74, 64
2, 32496, Note_on_c, 0, 74, 0
2, 32520, Note_on_c, 0, 77, 64
2, 32616, Note_on_c, 0, 77, 0
2, 32640, Note_on_c, 0, 70, 64
2, 32748, Note_on_c, 0, 70, 0
2, 32880, Note_on_c, 0, 70, 64
2, 32988, Note_on_c, 0, 70, 0
2, 33120, Note_on_c, 0, 69, 64
2, 33216, Note_on_c, 0, 69, 0
2, 33240, Note_on_c, 0, 72, 64
2, 33336, Note_on_c, 0, 72, 0
2, 33360, Note_on_c, 0, 65, 64
2, 33552, Note_on_c, 0, 65, 0
2, 33600, Note_on_c, 0, 64, 64
2, 33792, Note_on_c, 0, 64, 0
2, 33840, Note_on_c, 0, 64, 64
2, 34224, Note_on_c, 0, 64, 0
2, 34320, Note_on_c, 0, 65, 64
2, 34512, Note_on_c, 0, 65, 0
2, 34512, End_track
3, 0, Start_track
3, 0, Note_on_c, 0, 53, 64
3, 384, Note_on_c, 0, 53, 0
3, 480, Note_on_c, 0, 57, 64
3, 588, Note_on_c, 0, 57, 0
3, 720, Note_on_c, 0, 58, 64
3, 1104, Note_on_c, 0, 58, 0
3, 1200, Note_on_c, 0, 58, 64
3, 1308, Note_on_c, 0, 58, 0
3, 1440, Note_on_c, 0, 60, 64
3, 1824, Note_on_c, 0, 60, 0
3, 1920, Note_on_c, 0, 48, 64
3, 2028, Note_on_c, 0, 48, 0
3, 2160, Note_on_c, 0, 53, 64
3, 2268, Note_on_c, 0, 53, 0
3, 2400, Note_on_c, 0, 48, 64
3, 2508, Note_on_c, 0, 48, 0
3, 2640, Note_on_c, 0, 41, 64
3, 2748, Note_on_c, 0, 41, 0
3, 2880, Note_on_c, 0, 48, 64
3, 3456, Note_on_c, 0, 48, 0
3, 3600, Note_on_c, 0, 48, 64
3, 4176, Note_on_c, 0, 48, 0
3, 4320, Note_on_c, 0, 48, 64
3, 4512, Note_on_c, 0, 48, 0
3, 4560, Note_on_c, 0, 52, 64
3, 4752, Note_on_c, 0, 52, 0
3, 4800, Note_on_c, 0, 53, 64
3, 4908, Note_on_c, 0, 53, 0
3, 5040, Note_on_c, 0, 60, 64
3, 5148, Note_on_c, 0, 60, 0
3, 5280, Note_on_c, 0, 55, 64
3, 5388, Note_on_c, 0, 55, 0
3, 5520, Note_on_c, 0, 48, 64
3, 5628, Note_on_c, 0, 48, 0
3, 5760, Note_on_c, 0, 53, 64
3, 6144, Note_on_c, 0, 53, 0
3, 6240, Note_on_c, 0, 57, 64
3, 6348, Note_on_c, 0, 57, 0
3, 6480, Note_on_c, 0, 58, 64
3, 6864, Note_on_c, 0, 58, 0
3, 6960, Note_on_c, 0, 58, 64
3, 7068, Note_on_c, 0, 58, 0
3, 7200, Note_on_c, 0, 60, 64
3, 7584, Note_on_c, 0, 60, 0
3, 7680, Note_on_c, 0, 48, 64
3, 7788, Note_on_c, 0, 48, 0
3, 7920, Note_on_c, 0, 53, 64
3, 8028, Note_on_c, 0, 53, 0
3, 8160, Note_on_c, 0, 48, 64
3, 8268, Note_on_c, 0, 48, 0
3, 8400, Note_on_c, 0, 41, 64
3, 8508, Note_on_c, 0, 41, 0
3, 8640, Note_on_c, 0, 48, 64
3, 9216, Note_on_c, 0, 48, 0
3, 9360, Note_on_c, 0, 48, 64
3, 9936, Note_on_c, 0, 48, 0
3, 10080, Note_on_c, 0, 48, 64
3, 10272, Note_on_c, 0, 48, 0
3, 10320, Note_on_c, 0, 52, 64
3, 10512, Note_on_c, 0, 52, 0
3, 10560, Note_on_c, 0, 53, 64
3, 10668, Note_on_c, 0, 53, 0
3, 10800, Note_on_c, 0, 60, 64
3, 10908, Note_on_c, 0, 60, 0
3, 11040, Note_on_c, 0, 55, 64
3, 11148, Note_on_c, 0, 55, 0
3, 11280, Note_on_c, 0, 48, 64
3, 11388, Note_on_c, 0, 48, 0
3, 11520, Note_on_c, 0, 54, 64
3, 12096, Note_on_c, 0, 54, 0
3, 12240, Note_on_c, 0, 55, 64
3, 12816, Note_on_c, 0, 55, 0
3, 12960, Note_on_c, 0, 60, 64
3, 13152, Note_on_c, 0, 60, 0
3, 13200, Note_on_c, 0, 62, 64
3, 13308, Note_on_c, 0, 62, 0
3, 13440, Note_on_c, 0, 50, 64
3, 13548, Note_on_c, 0, 50, 0
3, 13680, Note_on_c, 0, 55, 64
3, 13788, Note_on_c, 0, 55, 0
3, 13920, Note_on_c, 0, 50, 64
3, 14028, Note_on_c, 0, 50, 0
3, 14160, Note_on_c, 0, 43, 64
3, 14268, Note_on_c, 0, 43, 0
3, 14400, Note_on_c, 0, 52, 64
3, 14976, Note_on_c, 0, 52, 0
3, 15120, Note_on_c, 0, 53, 64
3, 15696, Note_on_c, 0, 53, 0
3, 15840, Note_on_c, 0, 58, 64
3, 16032, Note_on_c, 0, 58, 0
3, 16080, Note_on_c, 0, 60, 64
3, 16188, Note_on_c, 0, 60, 0
3, 16320, Note_on_c, 0, 48, 64
3, 16428, Note_on_c, 0, 48, 0
3, 16560, Note_on_c, 0, 53, 64
3, 16668, Note_on_c, 0, 53, 0
3, 16800, Note_on_c, 0, 48, 64
3, 16908, Note_on_c, 0, 48, 0
3, 17040, Note_on_c, 0, 41, 64
3, 17148, Note_on_c, 0, 41, 0
3, 17280, Note_on_c, 0, 57, 64
3, 17856, Note_on_c, 0, 57, 0
3, 18000, Note_on_c, 0, 58, 64
3, 18576, Note_on_c, 0, 58, 0
3, 18720, Note_on_c, 0, 60, 64
3, 19104, Note_on_c, 0, 60, 0
3, 19200, Note_on_c, 0, 48, 64
3, 19308, Note_on_c, 0, 48, 0
3, 19440, Note_on_c, 0, 50, 64
3, 20016, Note_on_c, 0, 50, 0
3, 20160, Note_on_c, 0, 57, 64
3, 20736, Note_on_c, 0, 57, 0
3, 20880, Note_on_c, 0, 58, 64
3, 21456, Note_on_c, 0, 58, 0
3, 21600, Note_on_c, 0, 60, 64
3, 21984, Note_on_c, 0, 60, 0
3, 22080, Note_on_c, 0, 48, 64
3, 22188, Note_on_c, 0, 48, 0
3, 22320, Note_on_c, 0, 53, 64
3, 22428, Note_on_c, 0, 53, 0
3, 22560, Note_on_c, 0, 48, 64
3, 22668, Note_on_c, 0, 48, 0
3, 22800, Note_on_c, 0, 41, 64
3, 22908, Note_on_c, 0, 41, 0
3, 23040, Note_on_c, 0, 54, 64
3, 23616, Note_on_c, 0, 54, 0
3, 23760, Note_on_c, 0, 55, 64
3, 24336, Note_on_c, 0, 55, 0
3, 24480, Note_on_c, 0, 60, 64
3, 24672, Note_on_c, 0, 60, 0
3, 24720, Note_on_c, 0, 62, 64
3, 24828, Note_on_c, 0, 62, 0
3, 24960, Note_on_c, 0, 50, 64
3, 25068, Note_on_c, 0, 50, 0
3, 25200, Note_on_c, 0, 55, 64
3, 25308, Note_on_c, 0, 55, 0
3, 25440, Note_on_c, 0, 50, 64
3, 25548, Note_on_c, 0, 50, 0
3, 25680, Note_on_c, 0, 43, 64
3, 25788, Note_on_c, 0, 43, 0
3, 25920, Note_on_c, 0, 52, 64
3, 26496, Note_on_c, 0, 52, 0
3, 26640, Note_on_c, 0, 53, 64
3, 27216, Note_on_c, 0, 53, 0
3, 27360, Note_on_c, 0, 58, 64
3, 27552, Note_on_c, 0, 58, 0
3, 27600, Note_on_c, 0, 60, 64
3, 27708, Note_on_c, 0, 60, 0
3, 27840, Note_on_c, 0, 48, 64
3, 27948, Note_on_c, 0, 48, 0
3, 28080, Note_on_c, 0, 53, 64
3, 28188, Note_on_c, 0, 53, 0
3, 28320, Note_on_c, 0, 48, 64
3, 28428, Note_on_c, 0, 48, 0
3, 28560, Note_on_c, 0, 41, 64
3, 28668, Note_on_c, 0, 41, 0
3, 28800, Note_on_c, 0, 57, 64
3, 29376, Note_on_c, 0, 57, 0
3, 29520, Note_on_c, 0, 58, 64
3, 30096, Note_on_c, 0, 58, 0
3, 30240, Note_on_c, 0, 60, 64
3, 30624, Note_on_c, 0, 60, 0
3, 30720, Note_on_c, 0, 48, 64
3, 30828, Note_on_c, 0, 48, 0
3, 30960, Note_on_c, 0, 50, 64
3, 31536, Note_on_c, 0, 50, 0
3, 31680, Note_on_c, 0, 57, 64
3, 32256, Note_on_c, 0, 57, 0
3, 32400, Note_on_c, 0, 58, 64
3, 32976, Note_on_c, 0, 58, 0
3, 33120, Note_on_c, 0, 60, 64
3, 33504, Note_on_c, 0, 60, 0
3, 33600, Note_on_c, 0, 48, 64
3, 33708, Note_on_c, 0, 48, 0
3, 33840, Note_on_c, 0, 53, 64
3, 33948, Note_on_c, 0, 53, 0
3, 34080, Note_on_c, 0, 48, 64
3, 34188, Note_on_c, 0, 48, 0
3, 34320, Note_on_c, 0, 41, 64
3, 34512, Note_on_c, 0, 41, 0
3, 34512, End_track
4, 0, Start_track
4, 0, End_track
0, 0, End_of_file