0, 0, Header, 1, 12, 192
1, 0, Start_track
1, 0, Title_t, "Fl\366te-Konzert Nr. 2"
1, 0, Text_t, "By Wolfgang Amadeus Mozart, KV.314"
1, 0, Copyright_t, "This Selection is in the Public Domain"
1, 0, Text_t, "Generated by NoteWorthy Composer"
1, 0, Tempo, 500000
1, 0, Key_signature, 2, "major"
1, 0, Time_signature, 2, 2, 24, 8
1, 46848, Tempo, 530973
1, 46944, Tempo, 631578
1, 47040, Tempo, 769230
1, 47136, Tempo, 1000000
1, 47232, Tempo, 1200000
1, 47424, Tempo, 2000000
1, 47616, Tempo, 3000000
1, 47712, Tempo, 600000
1, 48480, Tempo, 2000000
1, 48576, Tempo, 659340
1, 48672, Tempo, 638297
1, 48768, Tempo, 618556
1, 48864, Tempo, 600000
1, 48960, Tempo, 582524
1, 49056, Tempo, 566037
1, 49152, Tempo, 550458
1, 49248, Tempo, 535714
1, 49344, Tempo, 521739
1, 49440, Tempo, 508474
1, 49536, Tempo, 500000
1, 86208, Tempo, 512820
1, 86304, Tempo, 545454
1, 86400, Tempo, 588235
1, 86496, Tempo, 631578
1, 86592, Tempo, 689655
1, 86688, Tempo, 750000
1, 86784, Tempo, 833333
1, 86880, Tempo, 923076
1, 86976, Tempo, 500000
1, 97728, Tempo, 530973
1, 97824, Tempo, 631578
1, 97920, Tempo, 769230
1, 98016, Tempo, 1000000
1, 98112, Tempo, 1200000
1, 98304, Tempo, 600000
1, 98496, Tempo, 594059
1, 98592, Tempo, 571428
1, 98688, Tempo, 550458
1, 98784, Tempo, 535714
1, 98880, Tempo, 517241
1, 98976, Tempo, 500000
1, 99072, Tempo, 483870
1, 99168, Tempo, 472440
1, 99264, Tempo, 461538
1, 100992, Tempo, 476190
1, 101088, Tempo, 517241
1, 101184, Tempo, 545454
1, 101568, Tempo, 588235
1, 101664, Tempo, 560747
1, 101760, Tempo, 535714
1, 101856, Tempo, 512820
1, 101952, Tempo, 491803
1, 102048, Tempo, 472440
1, 102144, Tempo, 454545
1, 102240, Tempo, 437956
1, 102336, Tempo, 434782
1, 102432, Tempo, 458015
1, 102528, Tempo, 483870
1, 102624, Tempo, 508474
1, 102720, Tempo, 540540
1, 102816, Tempo, 576923
1, 102912, Tempo, 600000
1, 103104, Tempo, 588235
1, 103200, Tempo, 560747
1, 103296, Tempo, 535714
1, 103392, Tempo, 512820
1, 103488, Tempo, 491803
1, 103584, Tempo, 472440
1, 103680, Tempo, 454545
1, 103776, Tempo, 437956
1, 103872, Tempo, 434782
1, 103968, Tempo, 454545
1, 104064, Tempo, 472440
1, 104160, Tempo, 495867
1, 104256, Tempo, 521739
1, 104352, Tempo, 550458
1, 104448, Tempo, 576923
1, 104544, Tempo, 600000
1, 104640, Tempo, 582524
1, 104736, Tempo, 545454
1, 104832, Tempo, 508474
1, 104928, Tempo, 480000
1, 105024, Tempo, 461538
1, 106944, Tempo, 468750
1, 107040, Tempo, 491803
1, 107136, Tempo, 521739
1, 107232, Tempo, 550458
1, 107328, Tempo, 571428
1, 107520, Tempo, 566037
1, 107616, Tempo, 555555
1, 107712, Tempo, 540540
1, 107808, Tempo, 530973
1, 107904, Tempo, 517241
1, 108000, Tempo, 508474
1, 108096, Tempo, 495867
1, 108192, Tempo, 487804
1, 108288, Tempo, 476190
1, 108384, Tempo, 468750
1, 108480, Tempo, 468750
1, 108576, Tempo, 491803
1, 108672, Tempo, 521739
1, 108768, Tempo, 550458
1, 108864, Tempo, 571428
1, 109248, Tempo, 566037
1, 109344, Tempo, 555555
1, 109440, Tempo, 540540
1, 109536, Tempo, 530973
1, 109632, Tempo, 545454
1, 109728, Tempo, 606060
1, 109824, Tempo, 689655
1, 109920, Tempo, 800000
1, 110016, Tempo, 952380
1, 110112, Tempo, 1176470
1, 110208, Tempo, 1935483
1, 110304, Tempo, 1034482
1, 110400, Tempo, 705882
1, 110496, Tempo, 594059
1, 110592, Tempo, 576923
1, 110688, Tempo, 566037
1, 110784, Tempo, 550458
1, 110880, Tempo, 535714
1, 110976, Tempo, 521739
1, 111072, Tempo, 508474
1, 111168, Tempo, 500000
1, 112320, Tempo, 504201
1, 112416, Tempo, 521739
1, 112512, Tempo, 540540
1, 112608, Tempo, 560747
1, 112704, Tempo, 582524
1, 112800, Tempo, 600000
1, 113280, Tempo, 500000
1, 119232, Tempo, 500000
1, 123848, Tempo, 504201
1, 123856, Tempo, 508474
1, 123865, Tempo, 512820
1, 123873, Tempo, 517241
1, 123881, Tempo, 521739
1, 123890, Tempo, 526315
1, 123898, Tempo, 530973
1, 123907, Tempo, 535714
1, 123915, Tempo, 540540
1, 123923, Tempo, 545454
1, 123932, Tempo, 550458
1, 123940, Tempo, 555555
1, 123949, Tempo, 560747
1, 123957, Tempo, 566037
1, 123965, Tempo, 571428
1, 123974, Tempo, 576923
1, 123982, Tempo, 582524
1, 123991, Tempo, 588235
1, 123999, Tempo, 594059
1, 124007, Tempo, 600000
1, 124016, Tempo, 606060
1, 124024, Tempo, 612244
1, 124033, Tempo, 618556
1, 124041, Tempo, 625000
1, 124049, Tempo, 631578
1, 124058, Tempo, 638297
1, 124066, Tempo, 645161
1, 124075, Tempo, 652173
1, 124083, Tempo, 659340
1, 124091, Tempo, 666666
1, 124100, Tempo, 674157
1, 124108, Tempo, 681818
1, 124117, Tempo, 689655
1, 124125, Tempo, 697674
1, 124133, Tempo, 705882
1, 124142, Tempo, 714285
1, 124150, Tempo, 722891
1, 124159, Tempo, 731707
1, 124167, Tempo, 740740
1, 124175, Tempo, 750000
1, 124184, Tempo, 759493
1, 124192, Tempo, 769230
1, 124201, Tempo, 779220
1, 124209, Tempo, 789473
1, 124217, Tempo, 800000
1, 124226, Tempo, 810810
1, 124234, Tempo, 821917
1, 124243, Tempo, 833333
1, 124251, Tempo, 845070
1, 124259, Tempo, 857142
1, 124268, Tempo, 869565
1, 124276, Tempo, 882352
1, 124285, Tempo, 895522
1, 124293, Tempo, 909090
1, 124301, Tempo, 923076
1, 124310, Tempo, 937500
1, 124318, Tempo, 952380
1, 124327, Tempo, 967741
1, 124335, Tempo, 983606
1, 124343, Tempo, 1000000
1, 124352, Tempo, 1016949
1, 124360, Tempo, 1034482
1, 124369, Tempo, 1052631
1, 124377, Tempo, 1071428
1, 124385, Tempo, 1090909
1, 124394, Tempo, 1111111
1, 124402, Tempo, 1132075
1, 124411, Tempo, 1153846
1, 124419, Tempo, 1176470
1, 124427, Tempo, 1200000
1, 124436, Tempo, 1224489
1, 124444, Tempo, 1250000
1, 124453, Tempo, 1276595
1, 124461, Tempo, 1304347
1, 124469, Tempo, 1333333
1, 124478, Tempo, 1363636
1, 124486, Tempo, 1395348
1, 124495, Tempo, 1428571
1, 124503, Tempo, 1463414
1, 124512, Tempo, 1500000
1, 124512, End_track
2, 0, Start_track
2, 0, MIDI_port, 0
2, 0, Title_t, "Oboe I"
2, 0, Program_c, 1, 68
2, 0, Control_c, 1, 7, 60
2, 0, Control_c, 1, 10, 64
2, 4992, Note_on_c, 1, 74, 92
2, 5086, Note_on_c, 1, 74, 0
2, 5184, Note_on_c, 1, 76, 92
2, 5328, Note_on_c, 1, 76, 0
2, 5328, Note_on_c, 1, 74, 92
2, 5352, Note_on_c, 1, 74, 0
2, 5352, Note_on_c, 1, 76, 92
2, 5374, Note_on_c, 1, 76, 0
2, 5376, Note_on_c, 1, 78, 92
2, 5470, Note_on_c, 1, 78, 0
2, 5568, Note_on_c, 1, 78, 92
2, 5600, Note_on_c, 1, 78, 0
2, 5664, Note_on_c, 1, 79, 92
2, 5696, Note_on_c, 1, 79, 0
2, 5760, Note_on_c, 1, 81, 92
2, 5792, Note_on_c, 1, 81, 0
2, 5856, Note_on_c, 1, 83, 92
2, 5888, Note_on_c, 1, 83, 0
2, 5952, Note_on_c, 1, 85, 92
2, 5984, Note_on_c, 1, 85, 0
2, 6048, Note_on_c, 1, 86, 92
2, 6080, Note_on_c, 1, 86, 0
2, 6144, Note_on_c, 1, 81, 92
2, 6304, Note_on_c, 1, 81, 0
2, 6528, Note_on_c, 1, 79, 92
2, 6784, Note_on_c, 1, 79, 0
2, 6816, Note_on_c, 1, 78, 92
2, 6910, Note_on_c, 1, 78, 0
2, 6912, Note_on_c, 1, 76, 92
2, 7072, Note_on_c, 1, 76, 0
2, 7296, Note_on_c, 1, 74, 92
2, 7390, Note_on_c, 1, 74, 0
2, 7488, Note_on_c, 1, 78, 92
2, 7512, Note_on_c, 1, 78, 0
2, 7512, Note_on_c, 1, 76, 92
2, 7536, Note_on_c, 1, 76, 0
2, 7536, Note_on_c, 1, 78, 92
2, 7560, Note_on_c, 1, 78, 0
2, 7560, Note_on_c, 1, 76, 92
2, 7584, Note_on_c, 1, 76, 0
2, 7584, Note_on_c, 1, 78, 92
2, 7608, Note_on_c, 1, 78, 0
2, 7608, Note_on_c, 1, 76, 92
2, 7632, Note_on_c, 1, 76, 0
2, 7632, Note_on_c, 1, 74, 92
2, 7656, Note_on_c, 1, 74, 0
2, 7656, Note_on_c, 1, 76, 92
2, 7678, Note_on_c, 1, 76, 0
2, 7680, Note_on_c, 1, 78, 92
2, 7774, Note_on_c, 1, 78, 0
2, 7872, Note_on_c, 1, 78, 92
2, 7904, Note_on_c, 1, 78, 0
2, 7968, Note_on_c, 1, 79, 92
2, 8000, Note_on_c, 1, 79, 0
2, 8064, Note_on_c, 1, 81, 92
2, 8096, Note_on_c, 1, 81, 0
2, 8160, Note_on_c, 1, 83, 92
2, 8192, Note_on_c, 1, 83, 0
2, 8256, Note_on_c, 1, 85, 92
2, 8288, Note_on_c, 1, 85, 0
2, 8352, Note_on_c, 1, 86, 92
2, 8384, Note_on_c, 1, 86, 0
2, 8448, Note_on_c, 1, 81, 92
2, 8608, Note_on_c, 1, 81, 0
2, 8640, Note_on_c, 1, 83, 92
2, 8688, Note_on_c, 1, 83, 0
2, 8688, Note_on_c, 1, 81, 92
2, 8734, Note_on_c, 1, 81, 0
2, 8736, Note_on_c, 1, 79, 92
2, 8768, Note_on_c, 1, 79, 0
2, 8784, Note_on_c, 1, 78, 92
2, 8816, Note_on_c, 1, 78, 0
2, 8832, Note_on_c, 1, 83, 92
2, 8926, Note_on_c, 1, 83, 0
2, 8928, Note_on_c, 1, 79, 92
2, 9022, Note_on_c, 1, 79, 0
2, 9024, Note_on_c, 1, 78, 92
2, 9118, Note_on_c, 1, 78, 0
2, 9120, Note_on_c, 1, 76, 92
2, 9214, Note_on_c, 1, 76, 0
2, 9216, Note_on_c, 1, 74, 92
2, 9376, Note_on_c, 1, 74, 0
2, 9408, Note_on_c, 1, 74, 92
2, 9440, Note_on_c, 1, 74, 0
2, 9504, Note_on_c, 1, 74, 92
2, 9536, Note_on_c, 1, 74, 0
2, 9600, Note_on_c, 1, 78, 92
2, 9624, Note_on_c, 1, 78, 0
2, 9624, Note_on_c, 1, 76, 92
2, 9648, Note_on_c, 1, 76, 0
2, 9648, Note_on_c, 1, 78, 92
2, 9672, Note_on_c, 1, 78, 0
2, 9672, Note_on_c, 1, 76, 92
2, 9696, Note_on_c, 1, 76, 0
2, 9696, Note_on_c, 1, 74, 92
2, 9790, Note_on_c, 1, 74, 0
2, 9792, Note_on_c, 1, 76, 92
2, 9824, Note_on_c, 1, 76, 0
2, 9888, Note_on_c, 1, 76, 92
2, 9920, Note_on_c, 1, 76, 0
2, 9984, Note_on_c, 1, 79, 92
2, 10008, Note_on_c, 1, 79, 0
2, 10008, Note_on_c, 1, 78, 92
2, 10032, Note_on_c, 1, 78, 0
2, 10032, Note_on_c, 1, 79, 92
2, 10056, Note_on_c, 1, 79, 0
2, 10056, Note_on_c, 1, 78, 92
2, 10080, Note_on_c, 1, 78, 0
2, 10080, Note_on_c, 1, 76, 92
2, 10174, Note_on_c, 1, 76, 0
2, 10944, Note_on_c, 1, 74, 92
2, 10976, Note_on_c, 1, 74, 0
2, 11040, Note_on_c, 1, 74, 92
2, 11072, Note_on_c, 1, 74, 0
2, 11136, Note_on_c, 1, 78, 92
2, 11160, Note_on_c, 1, 78, 0
2, 11160, Note_on_c, 1, 76, 92
2, 11184, Note_on_c, 1, 76, 0
2, 11184, Note_on_c, 1, 78, 92
2, 11208, Note_on_c, 1, 78, 0
2, 11208, Note_on_c, 1, 76, 92
2, 11232, Note_on_c, 1, 76, 0
2, 11232, Note_on_c, 1, 74, 92
2, 11326, Note_on_c, 1, 74, 0
2, 11328, Note_on_c, 1, 76, 92
2, 11360, Note_on_c, 1, 76, 0
2, 11424, Note_on_c, 1, 76, 92
2, 11456, Note_on_c, 1, 76, 0
2, 11520, Note_on_c, 1, 79, 92
2, 11544, Note_on_c, 1, 79, 0
2, 11544, Note_on_c, 1, 78, 92
2, 11568, Note_on_c, 1, 78, 0
2, 11568, Note_on_c, 1, 79, 92
2, 11592, Note_on_c, 1, 79, 0
2, 11592, Note_on_c, 1, 78, 92
2, 11616, Note_on_c, 1, 78, 0
2, 11616, Note_on_c, 1, 76, 92
2, 11710, Note_on_c, 1, 76, 0
2, 12288, Note_on_c, 1, 81, 92
2, 13918, Note_on_c, 1, 81, 0
2, 13920, Note_on_c, 1, 69, 92
2, 14014, Note_on_c, 1, 69, 0
2, 14016, Note_on_c, 1, 69, 92
2, 14110, Note_on_c, 1, 69, 0
2, 14112, Note_on_c, 1, 69, 92
2, 14206, Note_on_c, 1, 69, 0
2, 14208, Note_on_c, 1, 69, 92
2, 14368, Note_on_c, 1, 69, 0
2, 15168, Note_on_c, 1, 73, 45
2, 15360, Note_on_c, 1, 73, 0
2, 15360, Note_on_c, 1, 74, 45
2, 15520, Note_on_c, 1, 74, 0
2, 15936, Note_on_c, 1, 73, 45
2, 16128, Note_on_c, 1, 73, 0
2, 16128, Note_on_c, 1, 74, 45
2, 16288, Note_on_c, 1, 74, 0
2, 16704, Note_on_c, 1, 85, 45
2, 16896, Note_on_c, 1, 85, 0
2, 16896, Note_on_c, 1, 86, 45
2, 17056, Note_on_c, 1, 86, 0
2, 17088, Note_on_c, 1, 74, 92
2, 17248, Note_on_c, 1, 74, 0
2, 17280, Note_on_c, 1, 76, 92
2, 17440, Note_on_c, 1, 76, 0
2, 17472, Note_on_c, 1, 79, 92
2, 17632, Note_on_c, 1, 79, 0
2, 17664, Note_on_c, 1, 78, 92
2, 17824, Note_on_c, 1, 78, 0
2, 17856, Note_on_c, 1, 81, 92
2, 18016, Note_on_c, 1, 81, 0
2, 18048, Note_on_c, 1, 86, 92
2, 18208, Note_on_c, 1, 86, 0
2, 18240, Note_on_c, 1, 79, 92
2, 18288, Note_on_c, 1, 79, 0
2, 18288, Note_on_c, 1, 78, 92
2, 18334, Note_on_c, 1, 78, 0
2, 18336, Note_on_c, 1, 79, 92
2, 18368, Note_on_c, 1, 79, 0
2, 18384, Note_on_c, 1, 76, 92
2, 18416, Note_on_c, 1, 76, 0
2, 18432, Note_on_c, 1, 74, 92
2, 18592, Note_on_c, 1, 74, 0
2, 18912, Note_on_c, 1, 81, 92
2, 18944, Note_on_c, 1, 81, 0
2, 19008, Note_on_c, 1, 81, 92
2, 19040, Note_on_c, 1, 81, 0
2, 19104, Note_on_c, 1, 81, 92
2, 19136, Note_on_c, 1, 81, 0
2, 19200, Note_on_c, 1, 81, 92
2, 19360, Note_on_c, 1, 81, 0
2, 19680, Note_on_c, 1, 81, 92
2, 19712, Note_on_c, 1, 81, 0
2, 19776, Note_on_c, 1, 81, 92
2, 19808, Note_on_c, 1, 81, 0
2, 19872, Note_on_c, 1, 81, 92
2, 19904, Note_on_c, 1, 81, 0
2, 19968, Note_on_c, 1, 74, 92
2, 20000, Note_on_c, 1, 74, 0
2, 20064, Note_on_c, 1, 78, 92
2, 20096, Note_on_c, 1, 78, 0
2, 20160, Note_on_c, 1, 79, 92
2, 20192, Note_on_c, 1, 79, 0
2, 20256, Note_on_c, 1, 76, 92
2, 20288, Note_on_c, 1, 76, 0
2, 20352, Note_on_c, 1, 74, 92
2, 20384, Note_on_c, 1, 74, 0
2, 20448, Note_on_c, 1, 78, 92
2, 20480, Note_on_c, 1, 78, 0
2, 20544, Note_on_c, 1, 79, 92
2, 20576, Note_on_c, 1, 79, 0
2, 20640, Note_on_c, 1, 76, 92
2, 20672, Note_on_c, 1, 76, 0
2, 20736, Note_on_c, 1, 74, 92
2, 20896, Note_on_c, 1, 74, 0
2, 20928, Note_on_c, 1, 86, 92
2, 21088, Note_on_c, 1, 86, 0
2, 21120, Note_on_c, 1, 86, 92
2, 21280, Note_on_c, 1, 86, 0
2, 27072, Note_on_c, 1, 74, 92
2, 27104, Note_on_c, 1, 74, 0
2, 27168, Note_on_c, 1, 74, 92
2, 27200, Note_on_c, 1, 74, 0
2, 27264, Note_on_c, 1, 78, 92
2, 27288, Note_on_c, 1, 78, 0
2, 27288, Note_on_c, 1, 76, 92
2, 27312, Note_on_c, 1, 76, 0
2, 27312, Note_on_c, 1, 78, 92
2, 27336, Note_on_c, 1, 78, 0
2, 27336, Note_on_c, 1, 76, 92
2, 27360, Note_on_c, 1, 76, 0
2, 27360, Note_on_c, 1, 74, 92
2, 27454, Note_on_c, 1, 74, 0
2, 27456, Note_on_c, 1, 76, 92
2, 27488, Note_on_c, 1, 76, 0
2, 27552, Note_on_c, 1, 76, 92
2, 27584, Note_on_c, 1, 76, 0
2, 27648, Note_on_c, 1, 79, 92
2, 27672, Note_on_c, 1, 79, 0
2, 27672, Note_on_c, 1, 78, 92
2, 27696, Note_on_c, 1, 78, 0
2, 27696, Note_on_c, 1, 79, 92
2, 27720, Note_on_c, 1, 79, 0
2, 27720, Note_on_c, 1, 78, 92
2, 27744, Note_on_c, 1, 78, 0
2, 27744, Note_on_c, 1, 76, 92
2, 27838, Note_on_c, 1, 76, 0
2, 28608, Note_on_c, 1, 74, 92
2, 28640, Note_on_c, 1, 74, 0
2, 28704, Note_on_c, 1, 74, 92
2, 28736, Note_on_c, 1, 74, 0
2, 28800, Note_on_c, 1, 78, 92
2, 28824, Note_on_c, 1, 78, 0
2, 28824, Note_on_c, 1, 76, 92
2, 28848, Note_on_c, 1, 76, 0
2, 28848, Note_on_c, 1, 78, 92
2, 28872, Note_on_c, 1, 78, 0
2, 28872, Note_on_c, 1, 76, 92
2, 28896, Note_on_c, 1, 76, 0
2, 28896, Note_on_c, 1, 74, 92
2, 28990, Note_on_c, 1, 74, 0
2, 28992, Note_on_c, 1, 76, 92
2, 29024, Note_on_c, 1, 76, 0
2, 29088, Note_on_c, 1, 76, 92
2, 29120, Note_on_c, 1, 76, 0
2, 29184, Note_on_c, 1, 79, 92
2, 29208, Note_on_c, 1, 79, 0
2, 29208, Note_on_c, 1, 78, 92
2, 29232, Note_on_c, 1, 78, 0
2, 29232, Note_on_c, 1, 79, 92
2, 29256, Note_on_c, 1, 79, 0
2, 29256, Note_on_c, 1, 78, 92
2, 29280, Note_on_c, 1, 78, 0
2, 29280, Note_on_c, 1, 76, 92
2, 29374, Note_on_c, 1, 76, 0
2, 46176, Note_on_c, 1, 76, 92
2, 46270, Note_on_c, 1, 76, 0
2, 46272, Note_on_c, 1, 76, 92
2, 46366, Note_on_c, 1, 76, 0
2, 46368, Note_on_c, 1, 76, 92
2, 46462, Note_on_c, 1, 76, 0
2, 46464, Note_on_c, 1, 76, 92
2, 46624, Note_on_c, 1, 76, 0
2, 46944, Note_on_c, 1, 76, 92
2, 47038, Note_on_c, 1, 76, 0
2, 47040, Note_on_c, 1, 76, 92
2, 47134, Note_on_c, 1, 76, 0
2, 47136, Note_on_c, 1, 76, 92
2, 47230, Note_on_c, 1, 76, 0
2, 47232, Note_on_c, 1, 73, 92
2, 47392, Note_on_c, 1, 73, 0
2, 54144, Note_on_c, 1, 81, 92
2, 54192, Note_on_c, 1, 81, 0
2, 54192, Note_on_c, 1, 78, 92
2, 54238, Note_on_c, 1, 78, 0
2, 54240, Note_on_c, 1, 79, 92
2, 54288, Note_on_c, 1, 79, 0
2, 54288, Note_on_c, 1, 76, 92
2, 54334, Note_on_c, 1, 76, 0
2, 54336, Note_on_c, 1, 74, 92
2, 54430, Note_on_c, 1, 74, 0
2, 54528, Note_on_c, 1, 78, 92
2, 54552, Note_on_c, 1, 78, 0
2, 54552, Note_on_c, 1, 76, 92
2, 54576, Note_on_c, 1, 76, 0
2, 54576, Note_on_c, 1, 78, 92
2, 54600, Note_on_c, 1, 78, 0
2, 54600, Note_on_c, 1, 76, 92
2, 54624, Note_on_c, 1, 76, 0
2, 54624, Note_on_c, 1, 78, 92
2, 54648, Note_on_c, 1, 78, 0
2, 54648, Note_on_c, 1, 76, 92
2, 54672, Note_on_c, 1, 76, 0
2, 54672, Note_on_c, 1, 74, 92
2, 54696, Note_on_c, 1, 74, 0
2, 54696, Note_on_c, 1, 76, 92
2, 54718, Note_on_c, 1, 76, 0
2, 54720, Note_on_c, 1, 78, 92
2, 54814, Note_on_c, 1, 78, 0
2, 54912, Note_on_c, 1, 78, 92
2, 54944, Note_on_c, 1, 78, 0
2, 55008, Note_on_c, 1, 79, 92
2, 55040, Note_on_c, 1, 79, 0
2, 55104, Note_on_c, 1, 81, 92
2, 55136, Note_on_c, 1, 81, 0
2, 55200, Note_on_c, 1, 83, 92
2, 55232, Note_on_c, 1, 83, 0
2, 55296, Note_on_c, 1, 85, 92
2, 55328, Note_on_c, 1, 85, 0
2, 55392, Note_on_c, 1, 86, 92
2, 55424, Note_on_c, 1, 86, 0
2, 55488, Note_on_c, 1, 81, 92
2, 55648, Note_on_c, 1, 81, 0
2, 55680, Note_on_c, 1, 83, 92
2, 55728, Note_on_c, 1, 83, 0
2, 55728, Note_on_c, 1, 81, 92
2, 55774, Note_on_c, 1, 81, 0
2, 55776, Note_on_c, 1, 79, 92
2, 55808, Note_on_c, 1, 79, 0
2, 55824, Note_on_c, 1, 78, 92
2, 55856, Note_on_c, 1, 78, 0
2, 55872, Note_on_c, 1, 78, 92
2, 55894, Note_on_c, 1, 78, 0
2, 55896, Note_on_c, 1, 76, 92
2, 55918, Note_on_c, 1, 76, 0
2, 55920, Note_on_c, 1, 75, 92
2, 55966, Note_on_c, 1, 75, 0
2, 55968, Note_on_c, 1, 76, 92
2, 56000, Note_on_c, 1, 76, 0
2, 56016, Note_on_c, 1, 78, 92
2, 56048, Note_on_c, 1, 78, 0
2, 56064, Note_on_c, 1, 79, 92
2, 56158, Note_on_c, 1, 79, 0
2, 56160, Note_on_c, 1, 78, 92
2, 56254, Note_on_c, 1, 78, 0
2, 56256, Note_on_c, 1, 76, 92
2, 56416, Note_on_c, 1, 76, 0
2, 56448, Note_on_c, 1, 81, 92
2, 56496, Note_on_c, 1, 81, 0
2, 56496, Note_on_c, 1, 78, 92
2, 56542, Note_on_c, 1, 78, 0
2, 56544, Note_on_c, 1, 79, 92
2, 56592, Note_on_c, 1, 79, 0
2, 56592, Note_on_c, 1, 76, 92
2, 56638, Note_on_c, 1, 76, 0
2, 56640, Note_on_c, 1, 74, 92
2, 56734, Note_on_c, 1, 74, 0
2, 56832, Note_on_c, 1, 78, 92
2, 56856, Note_on_c, 1, 78, 0
2, 56856, Note_on_c, 1, 76, 92
2, 56880, Note_on_c, 1, 76, 0
2, 56880, Note_on_c, 1, 78, 92
2, 56904, Note_on_c, 1, 78, 0
2, 56904, Note_on_c, 1, 76, 92
2, 56928, Note_on_c, 1, 76, 0
2, 56928, Note_on_c, 1, 78, 92
2, 56952, Note_on_c, 1, 78, 0
2, 56952, Note_on_c, 1, 76, 92
2, 56976, Note_on_c, 1, 76, 0
2, 56976, Note_on_c, 1, 74, 92
2, 57000, Note_on_c, 1, 74, 0
2, 57000, Note_on_c, 1, 76, 92
2, 57022, Note_on_c, 1, 76, 0
2, 57024, Note_on_c, 1, 78, 92
2, 57118, Note_on_c, 1, 78, 0
2, 57216, Note_on_c, 1, 78, 92
2, 57248, Note_on_c, 1, 78, 0
2, 57312, Note_on_c, 1, 79, 92
2, 57344, Note_on_c, 1, 79, 0
2, 57408, Note_on_c, 1, 81, 92
2, 57440, Note_on_c, 1, 81, 0
2, 57504, Note_on_c, 1, 83, 92
2, 57536, Note_on_c, 1, 83, 0
2, 57600, Note_on_c, 1, 85, 92
2, 57632, Note_on_c, 1, 85, 0
2, 57696, Note_on_c, 1, 86, 92
2, 57728, Note_on_c, 1, 86, 0
2, 57792, Note_on_c, 1, 81, 92
2, 57952, Note_on_c, 1, 81, 0
2, 57984, Note_on_c, 1, 78, 92
2, 58144, Note_on_c, 1, 78, 0
2, 58176, Note_on_c, 1, 83, 92
2, 58270, Note_on_c, 1, 83, 0
2, 58272, Note_on_c, 1, 79, 92
2, 58366, Note_on_c, 1, 79, 0
2, 58368, Note_on_c, 1, 78, 92
2, 58462, Note_on_c, 1, 78, 0
2, 58464, Note_on_c, 1, 76, 92
2, 58558, Note_on_c, 1, 76, 0
2, 58560, Note_on_c, 1, 74, 92
2, 58656, Note_on_c, 1, 74, 0
2, 58656, Note_on_c, 1, 86, 92
2, 60190, Note_on_c, 1, 86, 0
2, 60192, Note_on_c, 1, 74, 92
2, 60286, Note_on_c, 1, 74, 0
2, 60288, Note_on_c, 1, 74, 92
2, 60382, Note_on_c, 1, 74, 0
2, 60384, Note_on_c, 1, 74, 92
2, 60478, Note_on_c, 1, 74, 0
2, 60480, Note_on_c, 1, 74, 92
2, 60640, Note_on_c, 1, 74, 0
2, 61440, Note_on_c, 1, 78, 45
2, 61632, Note_on_c, 1, 78, 0
2, 61632, Note_on_c, 1, 79, 45
2, 61792, Note_on_c, 1, 79, 0
2, 62208, Note_on_c, 1, 72, 45
2, 62400, Note_on_c, 1, 72, 0
2, 62400, Note_on_c, 1, 71, 45
2, 62560, Note_on_c, 1, 71, 0
2, 64512, Note_on_c, 1, 72, 45
2, 64704, Note_on_c, 1, 72, 0
2, 64704, Note_on_c, 1, 71, 45
2, 64864, Note_on_c, 1, 71, 0
2, 65280, Note_on_c, 1, 84, 45
2, 65472, Note_on_c, 1, 84, 0
2, 65472, Note_on_c, 1, 83, 45
2, 65632, Note_on_c, 1, 83, 0
2, 66048, Note_on_c, 1, 78, 45
2, 66240, Note_on_c, 1, 78, 0
2, 66240, Note_on_c, 1, 79, 45
2, 66400, Note_on_c, 1, 79, 0
2, 81024, Note_on_c, 1, 74, 92
2, 81056, Note_on_c, 1, 74, 0
2, 81120, Note_on_c, 1, 74, 92
2, 81152, Note_on_c, 1, 74, 0
2, 81216, Note_on_c, 1, 78, 92
2, 81240, Note_on_c, 1, 78, 0
2, 81240, Note_on_c, 1, 76, 92
2, 81264, Note_on_c, 1, 76, 0
2, 81264, Note_on_c, 1, 78, 92
2, 81288, Note_on_c, 1, 78, 0
2, 81288, Note_on_c, 1, 76, 92
2, 81312, Note_on_c, 1, 76, 0
2, 81312, Note_on_c, 1, 74, 92
2, 81406, Note_on_c, 1, 74, 0
2, 81408, Note_on_c, 1, 76, 92
2, 81440, Note_on_c, 1, 76, 0
2, 81504, Note_on_c, 1, 76, 92
2, 81536, Note_on_c, 1, 76, 0
2, 81600, Note_on_c, 1, 79, 92
2, 81624, Note_on_c, 1, 79, 0
2, 81624, Note_on_c, 1, 78, 92
2, 81648, Note_on_c, 1, 78, 0
2, 81648, Note_on_c, 1, 79, 92
2, 81672, Note_on_c, 1, 79, 0
2, 81672, Note_on_c, 1, 78, 92
2, 81696, Note_on_c, 1, 78, 0
2, 81696, Note_on_c, 1, 76, 92
2, 81790, Note_on_c, 1, 76, 0
2, 82560, Note_on_c, 1, 74, 92
2, 82592, Note_on_c, 1, 74, 0
2, 82656, Note_on_c, 1, 74, 92
2, 82688, Note_on_c, 1, 74, 0
2, 82752, Note_on_c, 1, 78, 92
2, 82776, Note_on_c, 1, 78, 0
2, 82776, Note_on_c, 1, 76, 92
2, 82800, Note_on_c, 1, 76, 0
2, 82800, Note_on_c, 1, 78, 92
2, 82824, Note_on_c, 1, 78, 0
2, 82824, Note_on_c, 1, 76, 92
2, 82848, Note_on_c, 1, 76, 0
2, 82848, Note_on_c, 1, 74, 92
2, 82942, Note_on_c, 1, 74, 0
2, 82944, Note_on_c, 1, 76, 92
2, 82976, Note_on_c, 1, 76, 0
2, 83040, Note_on_c, 1, 76, 92
2, 83072, Note_on_c, 1, 76, 0
2, 83136, Note_on_c, 1, 79, 92
2, 83160, Note_on_c, 1, 79, 0
2, 83160, Note_on_c, 1, 78, 92
2, 83184, Note_on_c, 1, 78, 0
2, 83184, Note_on_c, 1, 79, 92
2, 83208, Note_on_c, 1, 79, 0
2, 83208, Note_on_c, 1, 78, 92
2, 83232, Note_on_c, 1, 78, 0
2, 83232, Note_on_c, 1, 76, 92
2, 83326, Note_on_c, 1, 76, 0
2, 83904, Note_on_c, 1, 81, 92
2, 85534, Note_on_c, 1, 81, 0
2, 85536, Note_on_c, 1, 69, 92
2, 85630, Note_on_c, 1, 69, 0
2, 85632, Note_on_c, 1, 69, 92
2, 85726, Note_on_c, 1, 69, 0
2, 85728, Note_on_c, 1, 69, 92
2, 85822, Note_on_c, 1, 69, 0
2, 85824, Note_on_c, 1, 69, 92
2, 85984, Note_on_c, 1, 69, 0
2, 91392, Note_on_c, 1, 74, 92
2, 91552, Note_on_c, 1, 74, 0
2, 91584, Note_on_c, 1, 76, 92
2, 91776, Note_on_c, 1, 76, 0
2, 91776, Note_on_c, 1, 79, 92
2, 91936, Note_on_c, 1, 79, 0
2, 91968, Note_on_c, 1, 78, 92
2, 92160, Note_on_c, 1, 78, 0
2, 92160, Note_on_c, 1, 81, 92
2, 92320, Note_on_c, 1, 81, 0
2, 92352, Note_on_c, 1, 83, 92
2, 92512, Note_on_c, 1, 83, 0
2, 92544, Note_on_c, 1, 79, 92
2, 92592, Note_on_c, 1, 79, 0
2, 92592, Note_on_c, 1, 78, 92
2, 92640, Note_on_c, 1, 78, 0
2, 92640, Note_on_c, 1, 79, 92
2, 92688, Note_on_c, 1, 79, 0
2, 92688, Note_on_c, 1, 76, 92
2, 92734, Note_on_c, 1, 76, 0
2, 92736, Note_on_c, 1, 74, 92
2, 92896, Note_on_c, 1, 74, 0
2, 95808, Note_on_c, 1, 86, 92
2, 97504, Note_on_c, 1, 86, 0
2, 97824, Note_on_c, 1, 86, 92
2, 97918, Note_on_c, 1, 86, 0
2, 97920, Note_on_c, 1, 86, 92
2, 98014, Note_on_c, 1, 86, 0
2, 98016, Note_on_c, 1, 86, 92
2, 98110, Note_on_c, 1, 86, 0
2, 98112, Note_on_c, 1, 69, 92
2, 98272, Note_on_c, 1, 69, 0
2, 115584, Note_on_c, 1, 78, 92
2, 115632, Note_on_c, 1, 78, 0
2, 115632, Note_on_c, 1, 74, 92
2, 115678, Note_on_c, 1, 74, 0
2, 115680, Note_on_c, 1, 76, 92
2, 115712, Note_on_c, 1, 76, 0
2, 115728, Note_on_c, 1, 73, 92
2, 115760, Note_on_c, 1, 73, 0
2, 115776, Note_on_c, 1, 74, 92
2, 115870, Note_on_c, 1, 74, 0
2, 115968, Note_on_c, 1, 73, 92
2, 116112, Note_on_c, 1, 73, 0
2, 116112, Note_on_c, 1, 71, 92
2, 116136, Note_on_c, 1, 71, 0
2, 116136, Note_on_c, 1, 73, 92
2, 116158, Note_on_c, 1, 73, 0
2, 116160, Note_on_c, 1, 74, 92
2, 116254, Note_on_c, 1, 74, 0
2, 116352, Note_on_c, 1, 66, 92
2, 116384, Note_on_c, 1, 66, 0
2, 116448, Note_on_c, 1, 67, 92
2, 116480, Note_on_c, 1, 67, 0
2, 116544, Note_on_c, 1, 69, 92
2, 116576, Note_on_c, 1, 69, 0
2, 116640, Note_on_c, 1, 71, 92
2, 116672, Note_on_c, 1, 71, 0
2, 116736, Note_on_c, 1, 73, 92
2, 116768, Note_on_c, 1, 73, 0
2, 116832, Note_on_c, 1, 74, 92
2, 116864, Note_on_c, 1, 74, 0
2, 116928, Note_on_c, 1, 69, 92
2, 117088, Note_on_c, 1, 69, 0
2, 117888, Note_on_c, 1, 74, 92
2, 118048, Note_on_c, 1, 74, 0
2, 118080, Note_on_c, 1, 76, 92
2, 118174, Note_on_c, 1, 76, 0
2, 118176, Note_on_c, 1, 79, 92
2, 118270, Note_on_c, 1, 79, 0
2, 118272, Note_on_c, 1, 78, 92
2, 118366, Note_on_c, 1, 78, 0
2, 118368, Note_on_c, 1, 76, 92
2, 118462, Note_on_c, 1, 76, 0
2, 118464, Note_on_c, 1, 74, 92
2, 118624, Note_on_c, 1, 74, 0
2, 120768, Note_on_c, 1, 81, 45
2, 121696, Note_on_c, 1, 81, 0
2, 122016, Note_on_c, 1, 81, 92
2, 122048, Note_on_c, 1, 81, 0
2, 122112, Note_on_c, 1, 81, 92
2, 122144, Note_on_c, 1, 81, 0
2, 122208, Note_on_c, 1, 81, 92
2, 122240, Note_on_c, 1, 81, 0
2, 122304, Note_on_c, 1, 81, 92
2, 122464, Note_on_c, 1, 81, 0
2, 122784, Note_on_c, 1, 81, 92
2, 122816, Note_on_c, 1, 81, 0
2, 122880, Note_on_c, 1, 81, 92
2, 122912, Note_on_c, 1, 81, 0
2, 122976, Note_on_c, 1, 81, 92
2, 123008, Note_on_c, 1, 81, 0
2, 123072, Note_on_c, 1, 74, 92
2, 123104, Note_on_c, 1, 74, 0
2, 123168, Note_on_c, 1, 78, 92
2, 123200, Note_on_c, 1, 78, 0
2, 123264, Note_on_c, 1, 79, 92
2, 123296, Note_on_c, 1, 79, 0
2, 123360, Note_on_c, 1, 76, 92
2, 123392, Note_on_c, 1, 76, 0
2, 123456, Note_on_c, 1, 74, 92
2, 123488, Note_on_c, 1, 74, 0
2, 123552, Note_on_c, 1, 78, 92
2, 123584, Note_on_c, 1, 78, 0
2, 123648, Note_on_c, 1, 79, 92
2, 123680, Note_on_c, 1, 79, 0
2, 123744, Note_on_c, 1, 76, 92
2, 123776, Note_on_c, 1, 76, 0
2, 123840, Note_on_c, 1, 74, 92
2, 124000, Note_on_c, 1, 74, 0
2, 124032, Note_on_c, 1, 86, 92
2, 124192, Note_on_c, 1, 86, 0
2, 124224, Note_on_c, 1, 86, 92
2, 124480, Note_on_c, 1, 86, 0
2, 124480, End_track
3, 0, Start_track
3, 0, MIDI_port, 0
3, 0, Title_t, "Oboe II"
3, 0, Program_c, 1, 68
3, 0, Control_c, 1, 7, 60
3, 0, Control_c, 1, 10, 64
3, 4992, Note_on_c, 1, 69, 92
3, 5086, Note_on_c, 1, 69, 0
3, 5184, Note_on_c, 1, 73, 92
3, 5328, Note_on_c, 1, 73, 0
3, 5328, Note_on_c, 1, 71, 92
3, 5352, Note_on_c, 1, 71, 0
3, 5352, Note_on_c, 1, 73, 92
3, 5374, Note_on_c, 1, 73, 0
3, 5376, Note_on_c, 1, 74, 92
3, 5470, Note_on_c, 1, 74, 0
3, 5568, Note_on_c, 1, 66, 92
3, 5600, Note_on_c, 1, 66, 0
3, 5664, Note_on_c, 1, 67, 92
3, 5696, Note_on_c, 1, 67, 0
3, 5760, Note_on_c, 1, 69, 92
3, 5792, Note_on_c, 1, 69, 0
3, 5856, Note_on_c, 1, 71, 92
3, 5888, Note_on_c, 1, 71, 0
3, 5952, Note_on_c, 1, 73, 92
3, 5984, Note_on_c, 1, 73, 0
3, 6048, Note_on_c, 1, 74, 92
3, 6080, Note_on_c, 1, 74, 0
3, 6144, Note_on_c, 1, 69, 92
3, 6304, Note_on_c, 1, 69, 0
3, 6528, Note_on_c, 1, 76, 92
3, 6784, Note_on_c, 1, 76, 0
3, 6816, Note_on_c, 1, 74, 92
3, 6910, Note_on_c, 1, 74, 0
3, 6912, Note_on_c, 1, 73, 92
3, 7072, Note_on_c, 1, 73, 0
3, 7296, Note_on_c, 1, 69, 92
3, 7390, Note_on_c, 1, 69, 0
3, 7488, Note_on_c, 1, 74, 92
3, 7512, Note_on_c, 1, 74, 0
3, 7512, Note_on_c, 1, 73, 92
3, 7536, Note_on_c, 1, 73, 0
3, 7536, Note_on_c, 1, 74, 92
3, 7560, Note_on_c, 1, 74, 0
3, 7560, Note_on_c, 1, 73, 92
3, 7584, Note_on_c, 1, 73, 0
3, 7584, Note_on_c, 1, 74, 92
3, 7608, Note_on_c, 1, 74, 0
3, 7608, Note_on_c, 1, 73, 92
3, 7632, Note_on_c, 1, 73, 0
3, 7632, Note_on_c, 1, 71, 92
3, 7656, Note_on_c, 1, 71, 0
3, 7656, Note_on_c, 1, 73, 92
3, 7678, Note_on_c, 1, 73, 0
3, 7680, Note_on_c, 1, 74, 92
3, 7774, Note_on_c, 1, 74, 0
3, 7872, Note_on_c, 1, 66, 92
3, 7904, Note_on_c, 1, 66, 0
3, 7968, Note_on_c, 1, 67, 92
3, 8000, Note_on_c, 1, 67, 0
3, 8064, Note_on_c, 1, 69, 92
3, 8096, Note_on_c, 1, 69, 0
3, 8160, Note_on_c, 1, 71, 92
3, 8192, Note_on_c, 1, 71, 0
3, 8256, Note_on_c, 1, 73, 92
3, 8288, Note_on_c, 1, 73, 0
3, 8352, Note_on_c, 1, 74, 92
3, 8384, Note_on_c, 1, 74, 0
3, 8448, Note_on_c, 1, 69, 92
3, 8608, Note_on_c, 1, 69, 0
3, 8640, Note_on_c, 1, 79, 92
3, 8688, Note_on_c, 1, 79, 0
3, 8688, Note_on_c, 1, 78, 92
3, 8734, Note_on_c, 1, 78, 0
3, 8736, Note_on_c, 1, 76, 92
3, 8768, Note_on_c, 1, 76, 0
3, 8784, Note_on_c, 1, 74, 92
3, 8816, Note_on_c, 1, 74, 0
3, 8832, Note_on_c, 1, 71, 92
3, 8926, Note_on_c, 1, 71, 0
3, 8928, Note_on_c, 1, 76, 92
3, 9022, Note_on_c, 1, 76, 0
3, 9024, Note_on_c, 1, 74, 92
3, 9118, Note_on_c, 1, 74, 0
3, 9120, Note_on_c, 1, 73, 92
3, 9214, Note_on_c, 1, 73, 0
3, 9216, Note_on_c, 1, 74, 92
3, 9376, Note_on_c, 1, 74, 0
3, 9408, Note_on_c, 1, 69, 92
3, 9440, Note_on_c, 1, 69, 0
3, 9504, Note_on_c, 1, 69, 92
3, 9536, Note_on_c, 1, 69, 0
3, 9600, Note_on_c, 1, 74, 92
3, 9624, Note_on_c, 1, 74, 0
3, 9624, Note_on_c, 1, 73, 92
3, 9648, Note_on_c, 1, 73, 0
3, 9648, Note_on_c, 1, 74, 92
3, 9672, Note_on_c, 1, 74, 0
3, 9672, Note_on_c, 1, 73, 92
3, 9696, Note_on_c, 1, 73, 0
3, 9696, Note_on_c, 1, 74, 92
3, 9790, Note_on_c, 1, 74, 0
3, 9792, Note_on_c, 1, 73, 92
3, 9824, Note_on_c, 1, 73, 0
3, 9888, Note_on_c, 1, 73, 92
3, 9920, Note_on_c, 1, 73, 0
3, 9984, Note_on_c, 1, 76, 92
3, 10008, Note_on_c, 1, 76, 0
3, 10008, Note_on_c, 1, 74, 92
3, 10032, Note_on_c, 1, 74, 0
3, 10032, Note_on_c, 1, 76, 92
3, 10056, Note_on_c, 1, 76, 0
3, 10056, Note_on_c, 1, 74, 92
3, 10080, Note_on_c, 1, 74, 0
3, 10080, Note_on_c, 1, 73, 92
3, 10174, Note_on_c, 1, 73, 0
3, 10944, Note_on_c, 1, 69, 92
3, 10976, Note_on_c, 1, 69, 0
3, 11040, Note_on_c, 1, 69, 92
3, 11072, Note_on_c, 1, 69, 0
3, 11136, Note_on_c, 1, 74, 92
3, 11160, Note_on_c, 1, 74, 0
3, 11160, Note_on_c, 1, 73, 92
3, 11184, Note_on_c, 1, 73, 0
3, 11184, Note_on_c, 1, 74, 92
3, 11208, Note_on_c, 1, 74, 0
3, 11208, Note_on_c, 1, 73, 92
3, 11232, Note_on_c, 1, 73, 0
3, 11232, Note_on_c, 1, 74, 92
3, 11326, Note_on_c, 1, 74, 0
3, 11328, Note_on_c, 1, 73, 92
3, 11360, Note_on_c, 1, 73, 0
3, 11424, Note_on_c, 1, 73, 92
3, 11456, Note_on_c, 1, 73, 0
3, 11520, Note_on_c, 1, 76, 92
3, 11544, Note_on_c, 1, 76, 0
3, 11544, Note_on_c, 1, 74, 92
3, 11568, Note_on_c, 1, 74, 0
3, 11568, Note_on_c, 1, 76, 92
3, 11592, Note_on_c, 1, 76, 0
3, 11592, Note_on_c, 1, 74, 92
3, 11616, Note_on_c, 1, 74, 0
3, 11616, Note_on_c, 1, 73, 92
3, 11710, Note_on_c, 1, 73, 0
3, 12288, Note_on_c, 1, 69, 92
3, 13918, Note_on_c, 1, 69, 0
3, 13920, Note_on_c, 1, 69, 92
3, 14014, Note_on_c, 1, 69, 0
3, 14016, Note_on_c, 1, 69, 92
3, 14110, Note_on_c, 1, 69, 0
3, 14112, Note_on_c, 1, 69, 92
3, 14206, Note_on_c, 1, 69, 0
3, 14208, Note_on_c, 1, 69, 92
3, 14368, Note_on_c, 1, 69, 0
3, 15168, Note_on_c, 1, 67, 45
3, 15360, Note_on_c, 1, 67, 0
3, 15360, Note_on_c, 1, 66, 45
3, 15520, Note_on_c, 1, 66, 0
3, 15936, Note_on_c, 1, 67, 45
3, 16128, Note_on_c, 1, 67, 0
3, 16128, Note_on_c, 1, 66, 45
3, 16288, Note_on_c, 1, 66, 0
3, 16704, Note_on_c, 1, 79, 45
3, 16896, Note_on_c, 1, 79, 0
3, 16896, Note_on_c, 1, 78, 45
3, 17056, Note_on_c, 1, 78, 0
3, 17088, Note_on_c, 1, 69, 92
3, 17248, Note_on_c, 1, 69, 0
3, 17280, Note_on_c, 1, 71, 92
3, 17440, Note_on_c, 1, 71, 0
3, 17472, Note_on_c, 1, 73, 92
3, 17632, Note_on_c, 1, 73, 0
3, 17664, Note_on_c, 1, 74, 92
3, 18000, Note_on_c, 1, 74, 0
3, 18048, Note_on_c, 1, 71, 92
3, 18208, Note_on_c, 1, 71, 0
3, 18240, Note_on_c, 1, 73, 92
3, 18400, Note_on_c, 1, 73, 0
3, 18432, Note_on_c, 1, 74, 92
3, 18592, Note_on_c, 1, 74, 0
3, 18912, Note_on_c, 1, 69, 92
3, 18944, Note_on_c, 1, 69, 0
3, 19008, Note_on_c, 1, 69, 92
3, 19040, Note_on_c, 1, 69, 0
3, 19104, Note_on_c, 1, 69, 92
3, 19136, Note_on_c, 1, 69, 0
3, 19200, Note_on_c, 1, 69, 92
3, 19360, Note_on_c, 1, 69, 0
3, 19680, Note_on_c, 1, 69, 92
3, 19712, Note_on_c, 1, 69, 0
3, 19776, Note_on_c, 1, 69, 92
3, 19808, Note_on_c, 1, 69, 0
3, 19872, Note_on_c, 1, 69, 92
3, 19904, Note_on_c, 1, 69, 0
3, 19968, Note_on_c, 1, 74, 92
3, 20000, Note_on_c, 1, 74, 0
3, 20064, Note_on_c, 1, 78, 92
3, 20096, Note_on_c, 1, 78, 0
3, 20160, Note_on_c, 1, 79, 92
3, 20192, Note_on_c, 1, 79, 0
3, 20256, Note_on_c, 1, 76, 92
3, 20288, Note_on_c, 1, 76, 0
3, 20352, Note_on_c, 1, 74, 92
3, 20384, Note_on_c, 1, 74, 0
3, 20448, Note_on_c, 1, 78, 92
3, 20480, Note_on_c, 1, 78, 0
3, 20544, Note_on_c, 1, 79, 92
3, 20576, Note_on_c, 1, 79, 0
3, 20640, Note_on_c, 1, 76, 92
3, 20672, Note_on_c, 1, 76, 0
3, 20736, Note_on_c, 1, 74, 92
3, 20896, Note_on_c, 1, 74, 0
3, 20928, Note_on_c, 1, 78, 92
3, 21088, Note_on_c, 1, 78, 0
3, 21120, Note_on_c, 1, 78, 92
3, 21280, Note_on_c, 1, 78, 0
3, 27072, Note_on_c, 1, 69, 92
3, 27104, Note_on_c, 1, 69, 0
3, 27168, Note_on_c, 1, 69, 92
3, 27200, Note_on_c, 1, 69, 0
3, 27264, Note_on_c, 1, 74, 92
3, 27288, Note_on_c, 1, 74, 0
3, 27288, Note_on_c, 1, 73, 92
3, 27312, Note_on_c, 1, 73, 0
3, 27312, Note_on_c, 1, 74, 92
3, 27336, Note_on_c, 1, 74, 0
3, 27336, Note_on_c, 1, 73, 92
3, 27360, Note_on_c, 1, 73, 0
3, 27360, Note_on_c, 1, 74, 92
3, 27454, Note_on_c, 1, 74, 0
3, 27456, Note_on_c, 1, 73, 92
3, 27488, Note_on_c, 1, 73, 0
3, 27552, Note_on_c, 1, 73, 92
3, 27584, Note_on_c, 1, 73, 0
3, 27648, Note_on_c, 1, 76, 92
3, 27672, Note_on_c, 1, 76, 0
3, 27672, Note_on_c, 1, 74, 92
3, 27696, Note_on_c, 1, 74, 0
3, 27696, Note_on_c, 1, 76, 92
3, 27720, Note_on_c, 1, 76, 0
3, 27720, Note_on_c, 1, 74, 92
3, 27744, Note_on_c, 1, 74, 0
3, 27744, Note_on_c, 1, 73, 92
3, 27838, Note_on_c, 1, 73, 0
3, 28608, Note_on_c, 1, 69, 92
3, 28640, Note_on_c, 1, 69, 0
3, 28704, Note_on_c, 1, 69, 92
3, 28736, Note_on_c, 1, 69, 0
3, 28800, Note_on_c, 1, 74, 92
3, 28824, Note_on_c, 1, 74, 0
3, 28824, Note_on_c, 1, 73, 92
3, 28848, Note_on_c, 1, 73, 0
3, 28848, Note_on_c, 1, 74, 92
3, 28872, Note_on_c, 1, 74, 0
3, 28872, Note_on_c, 1, 73, 92
3, 28896, Note_on_c, 1, 73, 0
3, 28896, Note_on_c, 1, 74, 92
3, 28990, Note_on_c, 1, 74, 0
3, 28992, Note_on_c, 1, 73, 92
3, 29024, Note_on_c, 1, 73, 0
3, 29088, Note_on_c, 1, 73, 92
3, 29120, Note_on_c, 1, 73, 0
3, 29184, Note_on_c, 1, 76, 92
3, 29208, Note_on_c, 1, 76, 0
3, 29208, Note_on_c, 1, 74, 92
3, 29232, Note_on_c, 1, 74, 0
3, 29232, Note_on_c, 1, 76, 92
3, 29256, Note_on_c, 1, 76, 0
3, 29256, Note_on_c, 1, 74, 92
3, 29280, Note_on_c, 1, 74, 0
3, 29280, Note_on_c, 1, 73, 92
3, 29374, Note_on_c, 1, 73, 0
3, 46176, Note_on_c, 1, 64, 92
3, 46270, Note_on_c, 1, 64, 0
3, 46272, Note_on_c, 1, 64, 92
3, 46366, Note_on_c, 1, 64, 0
3, 46368, Note_on_c, 1, 64, 92
3, 46462, Note_on_c, 1, 64, 0
3, 46464, Note_on_c, 1, 64, 92
3, 46624, Note_on_c, 1, 64, 0
3, 46944, Note_on_c, 1, 64, 92
3, 47038, Note_on_c, 1, 64, 0
3, 47040, Note_on_c, 1, 64, 92
3, 47134, Note_on_c, 1, 64, 0
3, 47136, Note_on_c, 1, 64, 92
3, 47230, Note_on_c, 1, 64, 0
3, 47232, Note_on_c, 1, 64, 92
3, 47392, Note_on_c, 1, 64, 0
3, 54336, Note_on_c, 1, 69, 92
3, 54430, Note_on_c, 1, 69, 0
3, 54528, Note_on_c, 1, 74, 92
3, 54552, Note_on_c, 1, 74, 0
3, 54552, Note_on_c, 1, 73, 92
3, 54576, Note_on_c, 1, 73, 0
3, 54576, Note_on_c, 1, 74, 92
3, 54600, Note_on_c, 1, 74, 0
3, 54600, Note_on_c, 1, 73, 92
3, 54624, Note_on_c, 1, 73, 0
3, 54624, Note_on_c, 1, 74, 92
3, 54648, Note_on_c, 1, 74, 0
3, 54648, Note_on_c, 1, 73, 92
3, 54672, Note_on_c, 1, 73, 0
3, 54672, Note_on_c, 1, 71, 92
3, 54696, Note_on_c, 1, 71, 0
3, 54696, Note_on_c, 1, 73, 92
3, 54718, Note_on_c, 1, 73, 0
3, 54720, Note_on_c, 1, 74, 92
3, 54814, Note_on_c, 1, 74, 0
3, 54912, Note_on_c, 1, 66, 92
3, 54944, Note_on_c, 1, 66, 0
3, 55008, Note_on_c, 1, 67, 92
3, 55040, Note_on_c, 1, 67, 0
3, 55104, Note_on_c, 1, 69, 92
3, 55136, Note_on_c, 1, 69, 0
3, 55200, Note_on_c, 1, 71, 92
3, 55232, Note_on_c, 1, 71, 0
3, 55296, Note_on_c, 1, 73, 92
3, 55328, Note_on_c, 1, 73, 0
3, 55392, Note_on_c, 1, 74, 92
3, 55424, Note_on_c, 1, 74, 0
3, 55488, Note_on_c, 1, 69, 92
3, 55648, Note_on_c, 1, 69, 0
3, 55680, Note_on_c, 1, 79, 92
3, 55728, Note_on_c, 1, 79, 0
3, 55728, Note_on_c, 1, 78, 92
3, 55774, Note_on_c, 1, 78, 0
3, 55776, Note_on_c, 1, 76, 92
3, 55808, Note_on_c, 1, 76, 0
3, 55824, Note_on_c, 1, 74, 92
3, 55856, Note_on_c, 1, 74, 0
3, 55872, Note_on_c, 1, 78, 92
3, 55894, Note_on_c, 1, 78, 0
3, 55896, Note_on_c, 1, 76, 92
3, 55918, Note_on_c, 1, 76, 0
3, 55920, Note_on_c, 1, 75, 92
3, 55966, Note_on_c, 1, 75, 0
3, 55968, Note_on_c, 1, 76, 92
3, 56000, Note_on_c, 1, 76, 0
3, 56016, Note_on_c, 1, 78, 92
3, 56048, Note_on_c, 1, 78, 0
3, 56064, Note_on_c, 1, 76, 92
3, 56158, Note_on_c, 1, 76, 0
3, 56160, Note_on_c, 1, 74, 92
3, 56254, Note_on_c, 1, 74, 0
3, 56256, Note_on_c, 1, 73, 92
3, 56416, Note_on_c, 1, 73, 0
3, 56448, Note_on_c, 1, 78, 92
3, 56496, Note_on_c, 1, 78, 0
3, 56496, Note_on_c, 1, 74, 92
3, 56542, Note_on_c, 1, 74, 0
3, 56544, Note_on_c, 1, 76, 92
3, 56592, Note_on_c, 1, 76, 0
3, 56592, Note_on_c, 1, 73, 92
3, 56638, Note_on_c, 1, 73, 0
3, 56640, Note_on_c, 1, 74, 92
3, 56734, Note_on_c, 1, 74, 0
3, 56832, Note_on_c, 1, 74, 92
3, 56856, Note_on_c, 1, 74, 0
3, 56856, Note_on_c, 1, 73, 92
3, 56880, Note_on_c, 1, 73, 0
3, 56880, Note_on_c, 1, 74, 92
3, 56904, Note_on_c, 1, 74, 0
3, 56904, Note_on_c, 1, 73, 92
3, 56928, Note_on_c, 1, 73, 0
3, 56928, Note_on_c, 1, 74, 92
3, 56952, Note_on_c, 1, 74, 0
3, 56952, Note_on_c, 1, 73, 92
3, 56976, Note_on_c, 1, 73, 0
3, 56976, Note_on_c, 1, 71, 92
3, 57000, Note_on_c, 1, 71, 0
3, 57000, Note_on_c, 1, 73, 92
3, 57022, Note_on_c, 1, 73, 0
3, 57024, Note_on_c, 1, 74, 92
3, 57118, Note_on_c, 1, 74, 0
3, 57216, Note_on_c, 1, 66, 92
3, 57248, Note_on_c, 1, 66, 0
3, 57312, Note_on_c, 1, 67, 92
3, 57344, Note_on_c, 1, 67, 0
3, 57408, Note_on_c, 1, 69, 92
3, 57440, Note_on_c, 1, 69, 0
3, 57504, Note_on_c, 1, 71, 92
3, 57536, Note_on_c, 1, 71, 0
3, 57600, Note_on_c, 1, 73, 92
3, 57632, Note_on_c, 1, 73, 0
3, 57696, Note_on_c, 1, 74, 92
3, 57728, Note_on_c, 1, 74, 0
3, 57792, Note_on_c, 1, 69, 92
3, 57952, Note_on_c, 1, 69, 0
3, 57984, Note_on_c, 1, 74, 92
3, 58144, Note_on_c, 1, 74, 0
3, 58176, Note_on_c, 1, 71, 92
3, 58270, Note_on_c, 1, 71, 0
3, 58272, Note_on_c, 1, 76, 92
3, 58366, Note_on_c, 1, 76, 0
3, 58368, Note_on_c, 1, 74, 92
3, 58462, Note_on_c, 1, 74, 0
3, 58464, Note_on_c, 1, 73, 92
3, 58558, Note_on_c, 1, 73, 0
3, 58560, Note_on_c, 1, 74, 92
3, 60190, Note_on_c, 1, 74, 0
3, 60192, Note_on_c, 1, 74, 92
3, 60286, Note_on_c, 1, 74, 0
3, 60288, Note_on_c, 1, 74, 92
3, 60382, Note_on_c, 1, 74, 0
3, 60384, Note_on_c, 1, 74, 92
3, 60478, Note_on_c, 1, 74, 0
3, 60480, Note_on_c, 1, 74, 92
3, 60640, Note_on_c, 1, 74, 0
3, 61440, Note_on_c, 1, 72, 45
3, 61632, Note_on_c, 1, 72, 0
3, 61632, Note_on_c, 1, 71, 45
3, 61792, Note_on_c, 1, 71, 0
3, 62208, Note_on_c, 1, 66, 45
3, 62400, Note_on_c, 1, 66, 0
3, 62400, Note_on_c, 1, 67, 45
3, 62560, Note_on_c, 1, 67, 0
3, 64512, Note_on_c, 1, 66, 45
3, 64704, Note_on_c, 1, 66, 0
3, 64704, Note_on_c, 1, 67, 45
3, 64864, Note_on_c, 1, 67, 0
3, 65280, Note_on_c, 1, 78, 45
3, 65472, Note_on_c, 1, 78, 0
3, 65472, Note_on_c, 1, 79, 45
3, 65632, Note_on_c, 1, 79, 0
3, 66048, Note_on_c, 1, 72, 45
3, 66240, Note_on_c, 1, 72, 0
3, 66240, Note_on_c, 1, 71, 45
3, 66400, Note_on_c, 1, 71, 0
3, 81024, Note_on_c, 1, 69, 92
3, 81056, Note_on_c, 1, 69, 0
3, 81120, Note_on_c, 1, 69, 92
3, 81152, Note_on_c, 1, 69, 0
3, 81216, Note_on_c, 1, 74, 92
3, 81240, Note_on_c, 1, 74, 0
3, 81240, Note_on_c, 1, 73, 92
3, 81264, Note_on_c, 1, 73, 0
3, 81264, Note_on_c, 1, 74, 92
3, 81288, Note_on_c, 1, 74, 0
3, 81288, Note_on_c, 1, 73, 92
3, 81312, Note_on_c, 1, 73, 0
3, 81312, Note_on_c, 1, 74, 92
3, 81406, Note_on_c, 1, 74, 0
3, 81408, Note_on_c, 1, 73, 92
3, 81440, Note_on_c, 1, 73, 0
3, 81504, Note_on_c, 1, 73, 92
3, 81536, Note_on_c, 1, 73, 0
3, 81600, Note_on_c, 1, 76, 92
3, 81624, Note_on_c, 1, 76, 0
3, 81624, Note_on_c, 1, 74, 92
3, 81648, Note_on_c, 1, 74, 0
3, 81648, Note_on_c, 1, 76, 92
3, 81672, Note_on_c, 1, 76, 0
3, 81672, Note_on_c, 1, 74, 92
3, 81696, Note_on_c, 1, 74, 0
3, 81696, Note_on_c, 1, 73, 92
3, 81790, Note_on_c, 1, 73, 0
3, 82560, Note_on_c, 1, 69, 92
3, 82592, Note_on_c, 1, 69, 0
3, 82656, Note_on_c, 1, 69, 92
3, 82688, Note_on_c, 1, 69, 0
3, 82752, Note_on_c, 1, 73, 92
3, 82776, Note_on_c, 1, 73, 0
3, 82776, Note_on_c, 1, 71, 92
3, 82800, Note_on_c, 1, 71, 0
3, 82800, Note_on_c, 1, 73, 92
3, 82824, Note_on_c, 1, 73, 0
3, 82824, Note_on_c, 1, 71, 92
3, 82848, Note_on_c, 1, 71, 0
3, 82848, Note_on_c, 1, 69, 92
3, 82942, Note_on_c, 1, 69, 0
3, 82944, Note_on_c, 1, 71, 92
3, 82976, Note_on_c, 1, 71, 0
3, 83040, Note_on_c, 1, 71, 92
3, 83072, Note_on_c, 1, 71, 0
3, 83136, Note_on_c, 1, 74, 92
3, 83160, Note_on_c, 1, 74, 0
3, 83160, Note_on_c, 1, 73, 92
3, 83184, Note_on_c, 1, 73, 0
3, 83184, Note_on_c, 1, 74, 92
3, 83208, Note_on_c, 1, 74, 0
3, 83208, Note_on_c, 1, 73, 92
3, 83232, Note_on_c, 1, 73, 0
3, 83232, Note_on_c, 1, 71, 92
3, 83326, Note_on_c, 1, 71, 0
3, 83904, Note_on_c, 1, 69, 92
3, 85534, Note_on_c, 1, 69, 0
3, 85536, Note_on_c, 1, 69, 92
3, 85630, Note_on_c, 1, 69, 0
3, 85632, Note_on_c, 1, 69, 92
3, 85726, Note_on_c, 1, 69, 0
3, 85728, Note_on_c, 1, 69, 92
3, 85822, Note_on_c, 1, 69, 0
3, 85824, Note_on_c, 1, 69, 92
3, 85984, Note_on_c, 1, 69, 0
3, 91392, Note_on_c, 1, 69, 92
3, 91552, Note_on_c, 1, 69, 0
3, 91584, Note_on_c, 1, 71, 92
3, 91776, Note_on_c, 1, 71, 0
3, 91776, Note_on_c, 1, 73, 92
3, 91936, Note_on_c, 1, 73, 0
3, 91968, Note_on_c, 1, 74, 92
3, 92304, Note_on_c, 1, 74, 0
3, 92352, Note_on_c, 1, 71, 92
3, 92544, Note_on_c, 1, 71, 0
3, 92544, Note_on_c, 1, 73, 92
3, 92704, Note_on_c, 1, 73, 0
3, 92736, Note_on_c, 1, 74, 92
3, 92896, Note_on_c, 1, 74, 0
3, 95808, Note_on_c, 1, 78, 92
3, 97504, Note_on_c, 1, 78, 0
3, 97824, Note_on_c, 1, 78, 92
3, 97918, Note_on_c, 1, 78, 0
3, 97920, Note_on_c, 1, 78, 92
3, 98014, Note_on_c, 1, 78, 0
3, 98016, Note_on_c, 1, 78, 92
3, 98110, Note_on_c, 1, 78, 0
3, 98112, Note_on_c, 1, 69, 92
3, 98272, Note_on_c, 1, 69, 0
3, 115584, Note_on_c, 1, 78, 92
3, 115632, Note_on_c, 1, 78, 0
3, 115632, Note_on_c, 1, 74, 92
3, 115678, Note_on_c, 1, 74, 0
3, 115680, Note_on_c, 1, 76, 92
3, 115712, Note_on_c, 1, 76, 0
3, 115728, Note_on_c, 1, 73, 92
3, 115760, Note_on_c, 1, 73, 0
3, 115776, Note_on_c, 1, 69, 92
3, 115870, Note_on_c, 1, 69, 0
3, 115968, Note_on_c, 1, 76, 92
3, 116112, Note_on_c, 1, 76, 0
3, 116112, Note_on_c, 1, 74, 92
3, 116136, Note_on_c, 1, 74, 0
3, 116136, Note_on_c, 1, 76, 92
3, 116158, Note_on_c, 1, 76, 0
3, 116160, Note_on_c, 1, 78, 92
3, 116254, Note_on_c, 1, 78, 0
3, 116352, Note_on_c, 1, 78, 92
3, 116384, Note_on_c, 1, 78, 0
3, 116448, Note_on_c, 1, 79, 92
3, 116480, Note_on_c, 1, 79, 0
3, 116544, Note_on_c, 1, 81, 92
3, 116576, Note_on_c, 1, 81, 0
3, 116640, Note_on_c, 1, 83, 92
3, 116672, Note_on_c, 1, 83, 0
3, 116736, Note_on_c, 1, 85, 92
3, 116768, Note_on_c, 1, 85, 0
3, 116832, Note_on_c, 1, 86, 92
3, 116864, Note_on_c, 1, 86, 0
3, 116928, Note_on_c, 1, 81, 92
3, 117088, Note_on_c, 1, 81, 0
3, 117888, Note_on_c, 1, 69, 92
3, 118048, Note_on_c, 1, 69, 0
3, 118080, Note_on_c, 1, 71, 92
3, 118174, Note_on_c, 1, 71, 0
3, 118176, Note_on_c, 1, 76, 92
3, 118270, Note_on_c, 1, 76, 0
3, 118272, Note_on_c, 1, 74, 92
3, 118366, Note_on_c, 1, 74, 0
3, 118368, Note_on_c, 1, 73, 92
3, 118462, Note_on_c, 1, 73, 0
3, 118464, Note_on_c, 1, 74, 92
3, 118624, Note_on_c, 1, 74, 0
3, 120768, Note_on_c, 1, 69, 45
3, 121696, Note_on_c, 1, 69, 0
3, 122016, Note_on_c, 1, 69, 92
3, 122048, Note_on_c, 1, 69, 0
3, 122112, Note_on_c, 1, 69, 92
3, 122144, Note_on_c, 1, 69, 0
3, 122208, Note_on_c, 1, 69, 92
3, 122240, Note_on_c, 1, 69, 0
3, 122304, Note_on_c, 1, 69, 92
3, 122464, Note_on_c, 1, 69, 0
3, 122784, Note_on_c, 1, 69, 92
3, 122816, Note_on_c, 1, 69, 0
3, 122880, Note_on_c, 1, 69, 92
3, 122912, Note_on_c, 1, 69, 0
3, 122976, Note_on_c, 1, 69, 92
3, 123008, Note_on_c, 1, 69, 0
3, 123072, Note_on_c, 1, 74, 92
3, 123104, Note_on_c, 1, 74, 0
3, 123168, Note_on_c, 1, 78, 92
3, 123200, Note_on_c, 1, 78, 0
3, 123264, Note_on_c, 1, 79, 92
3, 123296, Note_on_c, 1, 79, 0
3, 123360, Note_on_c, 1, 76, 92
3, 123392, Note_on_c, 1, 76, 0
3, 123456, Note_on_c, 1, 74, 92
3, 123488, Note_on_c, 1, 74, 0
3, 123552, Note_on_c, 1, 78, 92
3, 123584, Note_on_c, 1, 78, 0
3, 123648, Note_on_c, 1, 79, 92
3, 123680, Note_on_c, 1, 79, 0
3, 123744, Note_on_c, 1, 76, 92
3, 123776, Note_on_c, 1, 76, 0
3, 123840, Note_on_c, 1, 74, 92
3, 124000, Note_on_c, 1, 74, 0
3, 124032, Note_on_c, 1, 78, 92
3, 124192, Note_on_c, 1, 78, 0
3, 124224, Note_on_c, 1, 78, 92
3, 124480, Note_on_c, 1, 78, 0
3, 124480, End_track
4, 0, Start_track
4, 0, MIDI_port, 0
4, 0, Title_t, "Corno I in F"
4, 0, Program_c, 5, 60
4, 0, Control_c, 5, 7, 80
4, 0, Control_c, 5, 10, 64
4, 4992, Note_on_c, 5, 62, 92
4, 5086, Note_on_c, 5, 62, 0
4, 5184, Note_on_c, 5, 64, 92
4, 5278, Note_on_c, 5, 64, 0
4, 5376, Note_on_c, 5, 66, 92
4, 5470, Note_on_c, 5, 66, 0
4, 5568, Note_on_c, 5, 62, 92
4, 5600, Note_on_c, 5, 62, 0
4, 5664, Note_on_c, 5, 62, 92
4, 5696, Note_on_c, 5, 62, 0
4, 5760, Note_on_c, 5, 62, 92
4, 5854, Note_on_c, 5, 62, 0
4, 5856, Note_on_c, 5, 62, 92
4, 5950, Note_on_c, 5, 62, 0
4, 5952, Note_on_c, 5, 62, 92
4, 6046, Note_on_c, 5, 62, 0
4, 6048, Note_on_c, 5, 62, 92
4, 6142, Note_on_c, 5, 62, 0
4, 6144, Note_on_c, 5, 62, 92
4, 6304, Note_on_c, 5, 62, 0
4, 6528, Note_on_c, 5, 67, 92
4, 6784, Note_on_c, 5, 67, 0
4, 6816, Note_on_c, 5, 66, 92
4, 6910, Note_on_c, 5, 66, 0
4, 6912, Note_on_c, 5, 64, 92
4, 7072, Note_on_c, 5, 64, 0
4, 7296, Note_on_c, 5, 62, 92
4, 7390, Note_on_c, 5, 62, 0
4, 7488, Note_on_c, 5, 64, 92
4, 7582, Note_on_c, 5, 64, 0
4, 7680, Note_on_c, 5, 66, 92
4, 7774, Note_on_c, 5, 66, 0
4, 7872, Note_on_c, 5, 62, 92
4, 7904, Note_on_c, 5, 62, 0
4, 7968, Note_on_c, 5, 62, 92
4, 8000, Note_on_c, 5, 62, 0
4, 8064, Note_on_c, 5, 62, 92
4, 8158, Note_on_c, 5, 62, 0
4, 8160, Note_on_c, 5, 62, 92
4, 8254, Note_on_c, 5, 62, 0
4, 8256, Note_on_c, 5, 62, 92
4, 8350, Note_on_c, 5, 62, 0
4, 8352, Note_on_c, 5, 62, 92
4, 8446, Note_on_c, 5, 62, 0
4, 8448, Note_on_c, 5, 62, 92
4, 8608, Note_on_c, 5, 62, 0
4, 8832, Note_on_c, 5, 67, 92
4, 8992, Note_on_c, 5, 67, 0
4, 9024, Note_on_c, 5, 66, 92
4, 9118, Note_on_c, 5, 66, 0
4, 9120, Note_on_c, 5, 64, 92
4, 9214, Note_on_c, 5, 64, 0
4, 9216, Note_on_c, 5, 62, 92
4, 9376, Note_on_c, 5, 62, 0
4, 9408, Note_on_c, 5, 62, 92
4, 9440, Note_on_c, 5, 62, 0
4, 9504, Note_on_c, 5, 62, 92
4, 9536, Note_on_c, 5, 62, 0
4, 9600, Note_on_c, 5, 65, 92
4, 9624, Note_on_c, 5, 65, 0
4, 9624, Note_on_c, 5, 64, 92
4, 9648, Note_on_c, 5, 64, 0
4, 9648, Note_on_c, 5, 65, 92
4, 9672, Note_on_c, 5, 65, 0
4, 9672, Note_on_c, 5, 64, 92
4, 9696, Note_on_c, 5, 64, 0
4, 9696, Note_on_c, 5, 62, 92
4, 9790, Note_on_c, 5, 62, 0
4, 9792, Note_on_c, 5, 64, 92
4, 9824, Note_on_c, 5, 64, 0
4, 9888, Note_on_c, 5, 64, 92
4, 9920, Note_on_c, 5, 64, 0
4, 9984, Note_on_c, 5, 67, 92
4, 10008, Note_on_c, 5, 67, 0
4, 10008, Note_on_c, 5, 66, 92
4, 10032, Note_on_c, 5, 66, 0
4, 10032, Note_on_c, 5, 67, 92
4, 10056, Note_on_c, 5, 67, 0
4, 10056, Note_on_c, 5, 66, 92
4, 10080, Note_on_c, 5, 66, 0
4, 10080, Note_on_c, 5, 64, 92
4, 10174, Note_on_c, 5, 64, 0
4, 10944, Note_on_c, 5, 62, 92
4, 10976, Note_on_c, 5, 62, 0
4, 11040, Note_on_c, 5, 62, 92
4, 11072, Note_on_c, 5, 62, 0
4, 11136, Note_on_c, 5, 65, 92
4, 11160, Note_on_c, 5, 65, 0
4, 11160, Note_on_c, 5, 64, 92
4, 11184, Note_on_c, 5, 64, 0
4, 11184, Note_on_c, 5, 65, 92
4, 11208, Note_on_c, 5, 65, 0
4, 11208, Note_on_c, 5, 64, 92
4, 11232, Note_on_c, 5, 64, 0
4, 11232, Note_on_c, 5, 62, 92
4, 11326, Note_on_c, 5, 62, 0
4, 11328, Note_on_c, 5, 64, 92
4, 11360, Note_on_c, 5, 64, 0
4, 11424, Note_on_c, 5, 64, 92
4, 11456, Note_on_c, 5, 64, 0
4, 11520, Note_on_c, 5, 67, 92
4, 11544, Note_on_c, 5, 67, 0
4, 11544, Note_on_c, 5, 66, 92
4, 11568, Note_on_c, 5, 66, 0
4, 11568, Note_on_c, 5, 67, 92
4, 11592, Note_on_c, 5, 67, 0
4, 11592, Note_on_c, 5, 66, 92
4, 11616, Note_on_c, 5, 66, 0
4, 11616, Note_on_c, 5, 64, 92
4, 11710, Note_on_c, 5, 64, 0
4, 12288, Note_on_c, 5, 57, 92
4, 13918, Note_on_c, 5, 57, 0
4, 13920, Note_on_c, 5, 57, 92
4, 14014, Note_on_c, 5, 57, 0
4, 14016, Note_on_c, 5, 57, 92
4, 14110, Note_on_c, 5, 57, 0
4, 14112, Note_on_c, 5, 57, 92
4, 14206, Note_on_c, 5, 57, 0
4, 14208, Note_on_c, 5, 57, 92
4, 14368, Note_on_c, 5, 57, 0
4, 16320, Note_on_c, 5, 67, 45
4, 16480, Note_on_c, 5, 67, 0
4, 16512, Note_on_c, 5, 66, 45
4, 16672, Note_on_c, 5, 66, 0
4, 16704, Note_on_c, 5, 64, 45
4, 16864, Note_on_c, 5, 64, 0
4, 16896, Note_on_c, 5, 62, 45
4, 17056, Note_on_c, 5, 62, 0
4, 17088, Note_on_c, 5, 66, 92
4, 17248, Note_on_c, 5, 66, 0
4, 17280, Note_on_c, 5, 64, 92
4, 17616, Note_on_c, 5, 64, 0
4, 17664, Note_on_c, 5, 62, 92
4, 17824, Note_on_c, 5, 62, 0
4, 17856, Note_on_c, 5, 66, 92
4, 18016, Note_on_c, 5, 66, 0
4, 18048, Note_on_c, 5, 64, 92
4, 18384, Note_on_c, 5, 64, 0
4, 18432, Note_on_c, 5, 62, 92
4, 18526, Note_on_c, 5, 62, 0
4, 18528, Note_on_c, 5, 62, 92
4, 18622, Note_on_c, 5, 62, 0
4, 18624, Note_on_c, 5, 66, 92
4, 18718, Note_on_c, 5, 66, 0
4, 18720, Note_on_c, 5, 66, 92
4, 18814, Note_on_c, 5, 66, 0
4, 18816, Note_on_c, 5, 69, 92
4, 18976, Note_on_c, 5, 69, 0
4, 19296, Note_on_c, 5, 62, 92
4, 19390, Note_on_c, 5, 62, 0
4, 19392, Note_on_c, 5, 66, 92
4, 19486, Note_on_c, 5, 66, 0
4, 19488, Note_on_c, 5, 66, 92
4, 19582, Note_on_c, 5, 66, 0
4, 19584, Note_on_c, 5, 69, 92
4, 19744, Note_on_c, 5, 69, 0
4, 19968, Note_on_c, 5, 62, 92
4, 20000, Note_on_c, 5, 62, 0
4, 20064, Note_on_c, 5, 66, 92
4, 20096, Note_on_c, 5, 66, 0
4, 20160, Note_on_c, 5, 67, 92
4, 20192, Note_on_c, 5, 67, 0
4, 20256, Note_on_c, 5, 64, 92
4, 20288, Note_on_c, 5, 64, 0
4, 20352, Note_on_c, 5, 62, 92
4, 20384, Note_on_c, 5, 62, 0
4, 20448, Note_on_c, 5, 66, 92
4, 20480, Note_on_c, 5, 66, 0
4, 20544, Note_on_c, 5, 67, 92
4, 20576, Note_on_c, 5, 67, 0
4, 20640, Note_on_c, 5, 64, 92
4, 20672, Note_on_c, 5, 64, 0
4, 20736, Note_on_c, 5, 62, 92
4, 20896, Note_on_c, 5, 62, 0
4, 20928, Note_on_c, 5, 62, 92
4, 21088, Note_on_c, 5, 62, 0
4, 21120, Note_on_c, 5, 62, 92
4, 21280, Note_on_c, 5, 62, 0
4, 27072, Note_on_c, 5, 62, 92
4, 27104, Note_on_c, 5, 62, 0
4, 27168, Note_on_c, 5, 62, 92
4, 27200, Note_on_c, 5, 62, 0
4, 27264, Note_on_c, 5, 65, 92
4, 27288, Note_on_c, 5, 65, 0
4, 27288, Note_on_c, 5, 64, 92
4, 27312, Note_on_c, 5, 64, 0
4, 27312, Note_on_c, 5, 65, 92
4, 27336, Note_on_c, 5, 65, 0
4, 27336, Note_on_c, 5, 64, 92
4, 27360, Note_on_c, 5, 64, 0
4, 27360, Note_on_c, 5, 62, 92
4, 27454, Note_on_c, 5, 62, 0
4, 27456, Note_on_c, 5, 64, 92
4, 27488, Note_on_c, 5, 64, 0
4, 27552, Note_on_c, 5, 64, 92
4, 27584, Note_on_c, 5, 64, 0
4, 27648, Note_on_c, 5, 67, 92
4, 27672, Note_on_c, 5, 67, 0
4, 27672, Note_on_c, 5, 66, 92
4, 27696, Note_on_c, 5, 66, 0
4, 27696, Note_on_c, 5, 67, 92
4, 27720, Note_on_c, 5, 67, 0
4, 27720, Note_on_c, 5, 66, 92
4, 27744, Note_on_c, 5, 66, 0
4, 27744, Note_on_c, 5, 64, 92
4, 27838, Note_on_c, 5, 64, 0
4, 28608, Note_on_c, 5, 62, 92
4, 28640, Note_on_c, 5, 62, 0
4, 28704, Note_on_c, 5, 62, 92
4, 28736, Note_on_c, 5, 62, 0
4, 28800, Note_on_c, 5, 65, 92
4, 28824, Note_on_c, 5, 65, 0
4, 28824, Note_on_c, 5, 64, 92
4, 28848, Note_on_c, 5, 64, 0
4, 28848, Note_on_c, 5, 65, 92
4, 28872, Note_on_c, 5, 65, 0
4, 28872, Note_on_c, 5, 64, 92
4, 28896, Note_on_c, 5, 64, 0
4, 28896, Note_on_c, 5, 62, 92
4, 28990, Note_on_c, 5, 62, 0
4, 28992, Note_on_c, 5, 64, 92
4, 29024, Note_on_c, 5, 64, 0
4, 29088, Note_on_c, 5, 64, 92
4, 29120, Note_on_c, 5, 64, 0
4, 29184, Note_on_c, 5, 67, 92
4, 29208, Note_on_c, 5, 67, 0
4, 29208, Note_on_c, 5, 66, 92
4, 29232, Note_on_c, 5, 66, 0
4, 29232, Note_on_c, 5, 67, 92
4, 29256, Note_on_c, 5, 67, 0
4, 29256, Note_on_c, 5, 66, 92
4, 29280, Note_on_c, 5, 66, 0
4, 29280, Note_on_c, 5, 64, 92
4, 29374, Note_on_c, 5, 64, 0
4, 45792, Note_on_c, 5, 57, 92
4, 45886, Note_on_c, 5, 57, 0
4, 45888, Note_on_c, 5, 57, 92
4, 45982, Note_on_c, 5, 57, 0
4, 45984, Note_on_c, 5, 57, 92
4, 46078, Note_on_c, 5, 57, 0
4, 46080, Note_on_c, 5, 64, 92
4, 46240, Note_on_c, 5, 64, 0
4, 46560, Note_on_c, 5, 57, 92
4, 46654, Note_on_c, 5, 57, 0
4, 46656, Note_on_c, 5, 57, 92
4, 46750, Note_on_c, 5, 57, 0
4, 46752, Note_on_c, 5, 57, 92
4, 46846, Note_on_c, 5, 57, 0
4, 46848, Note_on_c, 5, 64, 92
4, 47008, Note_on_c, 5, 64, 0
4, 47232, Note_on_c, 5, 64, 92
4, 47392, Note_on_c, 5, 64, 0
4, 54336, Note_on_c, 5, 62, 92
4, 54430, Note_on_c, 5, 62, 0
4, 54528, Note_on_c, 5, 64, 92
4, 54622, Note_on_c, 5, 64, 0
4, 54720, Note_on_c, 5, 66, 92
4, 54814, Note_on_c, 5, 66, 0
4, 54912, Note_on_c, 5, 62, 92
4, 54944, Note_on_c, 5, 62, 0
4, 55008, Note_on_c, 5, 62, 92
4, 55040, Note_on_c, 5, 62, 0
4, 55104, Note_on_c, 5, 62, 92
4, 55198, Note_on_c, 5, 62, 0
4, 55200, Note_on_c, 5, 62, 92
4, 55294, Note_on_c, 5, 62, 0
4, 55296, Note_on_c, 5, 62, 92
4, 55390, Note_on_c, 5, 62, 0
4, 55392, Note_on_c, 5, 62, 92
4, 55486, Note_on_c, 5, 62, 0
4, 55488, Note_on_c, 5, 62, 92
4, 55648, Note_on_c, 5, 62, 0
4, 55680, Note_on_c, 5, 62, 92
4, 55774, Note_on_c, 5, 62, 0
4, 55776, Note_on_c, 5, 66, 92
4, 55870, Note_on_c, 5, 66, 0
4, 55872, Note_on_c, 5, 69, 92
4, 56032, Note_on_c, 5, 69, 0
4, 56064, Note_on_c, 5, 67, 92
4, 56158, Note_on_c, 5, 67, 0
4, 56160, Note_on_c, 5, 66, 92
4, 56254, Note_on_c, 5, 66, 0
4, 56256, Note_on_c, 5, 64, 92
4, 56416, Note_on_c, 5, 64, 0
4, 56640, Note_on_c, 5, 69, 92
4, 56734, Note_on_c, 5, 69, 0
4, 56736, Note_on_c, 5, 66, 92
4, 56830, Note_on_c, 5, 66, 0
4, 56832, Note_on_c, 5, 67, 92
4, 56926, Note_on_c, 5, 67, 0
4, 56928, Note_on_c, 5, 64, 92
4, 57022, Note_on_c, 5, 64, 0
4, 57024, Note_on_c, 5, 66, 92
4, 57118, Note_on_c, 5, 66, 0
4, 57216, Note_on_c, 5, 62, 92
4, 57248, Note_on_c, 5, 62, 0
4, 57312, Note_on_c, 5, 62, 92
4, 57344, Note_on_c, 5, 62, 0
4, 57408, Note_on_c, 5, 62, 92
4, 57502, Note_on_c, 5, 62, 0
4, 57504, Note_on_c, 5, 62, 92
4, 57598, Note_on_c, 5, 62, 0
4, 57600, Note_on_c, 5, 62, 92
4, 57694, Note_on_c, 5, 62, 0
4, 57696, Note_on_c, 5, 62, 92
4, 57790, Note_on_c, 5, 62, 0
4, 57792, Note_on_c, 5, 62, 92
4, 57952, Note_on_c, 5, 62, 0
4, 58176, Note_on_c, 5, 67, 92
4, 58336, Note_on_c, 5, 67, 0
4, 58368, Note_on_c, 5, 66, 92
4, 58462, Note_on_c, 5, 66, 0
4, 58464, Note_on_c, 5, 64, 92
4, 58558, Note_on_c, 5, 64, 0
4, 58560, Note_on_c, 5, 62, 92
4, 60190, Note_on_c, 5, 62, 0
4, 60192, Note_on_c, 5, 62, 92
4, 60286, Note_on_c, 5, 62, 0
4, 60288, Note_on_c, 5, 62, 92
4, 60382, Note_on_c, 5, 62, 0
4, 60384, Note_on_c, 5, 62, 92
4, 60478, Note_on_c, 5, 62, 0
4, 60480, Note_on_c, 5, 62, 92
4, 60640, Note_on_c, 5, 62, 0
4, 63168, Note_on_c, 5, 62, 45
4, 66400, Note_on_c, 5, 62, 0
4, 81024, Note_on_c, 5, 62, 92
4, 81056, Note_on_c, 5, 62, 0
4, 81120, Note_on_c, 5, 62, 92
4, 81152, Note_on_c, 5, 62, 0
4, 81216, Note_on_c, 5, 65, 92
4, 81240, Note_on_c, 5, 65, 0
4, 81240, Note_on_c, 5, 64, 92
4, 81264, Note_on_c, 5, 64, 0
4, 81264, Note_on_c, 5, 65, 92
4, 81288, Note_on_c, 5, 65, 0
4, 81288, Note_on_c, 5, 64, 92
4, 81312, Note_on_c, 5, 64, 0
4, 81312, Note_on_c, 5, 62, 92
4, 81406, Note_on_c, 5, 62, 0
4, 81408, Note_on_c, 5, 64, 92
4, 81440, Note_on_c, 5, 64, 0
4, 81504, Note_on_c, 5, 64, 92
4, 81536, Note_on_c, 5, 64, 0
4, 81600, Note_on_c, 5, 67, 92
4, 81624, Note_on_c, 5, 67, 0
4, 81624, Note_on_c, 5, 66, 92
4, 81648, Note_on_c, 5, 66, 0
4, 81648, Note_on_c, 5, 67, 92
4, 81672, Note_on_c, 5, 67, 0
4, 81672, Note_on_c, 5, 66, 92
4, 81696, Note_on_c, 5, 66, 0
4, 81696, Note_on_c, 5, 64, 92
4, 81790, Note_on_c, 5, 64, 0
4, 82560, Note_on_c, 5, 62, 92
4, 82592, Note_on_c, 5, 62, 0
4, 82656, Note_on_c, 5, 62, 92
4, 82688, Note_on_c, 5, 62, 0
4, 82752, Note_on_c, 5, 65, 92
4, 82776, Note_on_c, 5, 65, 0
4, 82776, Note_on_c, 5, 64, 92
4, 82800, Note_on_c, 5, 64, 0
4, 82800, Note_on_c, 5, 65, 92
4, 82824, Note_on_c, 5, 65, 0
4, 82824, Note_on_c, 5, 64, 92
4, 82848, Note_on_c, 5, 64, 0
4, 82848, Note_on_c, 5, 62, 92
4, 82942, Note_on_c, 5, 62, 0
4, 82944, Note_on_c, 5, 64, 92
4, 82976, Note_on_c, 5, 64, 0
4, 83040, Note_on_c, 5, 64, 92
4, 83072, Note_on_c, 5, 64, 0
4, 83136, Note_on_c, 5, 67, 92
4, 83160, Note_on_c, 5, 67, 0
4, 83160, Note_on_c, 5, 66, 92
4, 83184, Note_on_c, 5, 66, 0
4, 83184, Note_on_c, 5, 67, 92
4, 83208, Note_on_c, 5, 67, 0
4, 83208, Note_on_c, 5, 66, 92
4, 83232, Note_on_c, 5, 66, 0
4, 83232, Note_on_c, 5, 64, 92
4, 83326, Note_on_c, 5, 64, 0
4, 83904, Note_on_c, 5, 57, 92
4, 85534, Note_on_c, 5, 57, 0
4, 85536, Note_on_c, 5, 57, 92
4, 85630, Note_on_c, 5, 57, 0
4, 85632, Note_on_c, 5, 57, 92
4, 85726, Note_on_c, 5, 57, 0
4, 85728, Note_on_c, 5, 57, 92
4, 85822, Note_on_c, 5, 57, 0
4, 85824, Note_on_c, 5, 57, 92
4, 85984, Note_on_c, 5, 57, 0
4, 91392, Note_on_c, 5, 66, 92
4, 91552, Note_on_c, 5, 66, 0
4, 91584, Note_on_c, 5, 64, 92
4, 91920, Note_on_c, 5, 64, 0
4, 91968, Note_on_c, 5, 62, 92
4, 92128, Note_on_c, 5, 62, 0
4, 92160, Note_on_c, 5, 66, 92
4, 92320, Note_on_c, 5, 66, 0
4, 92352, Note_on_c, 5, 64, 92
4, 92688, Note_on_c, 5, 64, 0
4, 92736, Note_on_c, 5, 62, 92
4, 92896, Note_on_c, 5, 62, 0
4, 95808, Note_on_c, 5, 66, 92
4, 97504, Note_on_c, 5, 66, 0
4, 97824, Note_on_c, 5, 66, 92
4, 97918, Note_on_c, 5, 66, 0
4, 97920, Note_on_c, 5, 66, 92
4, 98014, Note_on_c, 5, 66, 0
4, 98016, Note_on_c, 5, 66, 92
4, 98110, Note_on_c, 5, 66, 0
4, 98112, Note_on_c, 5, 69, 92
4, 98272, Note_on_c, 5, 69, 0
4, 111168, Note_on_c, 5, 62, 45
4, 112798, Note_on_c, 5, 62, 0
4, 115584, Note_on_c, 5, 57, 92
4, 115678, Note_on_c, 5, 57, 0
4, 115680, Note_on_c, 5, 57, 92
4, 115774, Note_on_c, 5, 57, 0
4, 115776, Note_on_c, 5, 62, 92
4, 115870, Note_on_c, 5, 62, 0
4, 115872, Note_on_c, 5, 62, 92
4, 115966, Note_on_c, 5, 62, 0
4, 115968, Note_on_c, 5, 64, 92
4, 116128, Note_on_c, 5, 64, 0
4, 116160, Note_on_c, 5, 66, 92
4, 116254, Note_on_c, 5, 66, 0
4, 116352, Note_on_c, 5, 62, 92
4, 116446, Note_on_c, 5, 62, 0
4, 116448, Note_on_c, 5, 64, 92
4, 116542, Note_on_c, 5, 64, 0
4, 116544, Note_on_c, 5, 66, 92
4, 116638, Note_on_c, 5, 66, 0
4, 116640, Note_on_c, 5, 67, 92
4, 116734, Note_on_c, 5, 67, 0
4, 116736, Note_on_c, 5, 69, 92
4, 116830, Note_on_c, 5, 69, 0
4, 116832, Note_on_c, 5, 67, 92
4, 116926, Note_on_c, 5, 67, 0
4, 116928, Note_on_c, 5, 66, 92
4, 117088, Note_on_c, 5, 66, 0
4, 118080, Note_on_c, 5, 67, 92
4, 118240, Note_on_c, 5, 67, 0
4, 118272, Note_on_c, 5, 66, 92
4, 118366, Note_on_c, 5, 66, 0
4, 118368, Note_on_c, 5, 64, 92
4, 118462, Note_on_c, 5, 64, 0
4, 118464, Note_on_c, 5, 62, 92
4, 118624, Note_on_c, 5, 62, 0
4, 119232, Note_on_c, 5, 64, 45
4, 120160, Note_on_c, 5, 64, 0
4, 120768, Note_on_c, 5, 62, 45
4, 121024, Note_on_c, 5, 62, 0
4, 121056, Note_on_c, 5, 64, 45
4, 121150, Note_on_c, 5, 64, 0
4, 121152, Note_on_c, 5, 62, 45
4, 121246, Note_on_c, 5, 62, 0
4, 121248, Note_on_c, 5, 64, 45
4, 121342, Note_on_c, 5, 64, 0
4, 121344, Note_on_c, 5, 62, 45
4, 121438, Note_on_c, 5, 62, 0
4, 121440, Note_on_c, 5, 64, 45
4, 121534, Note_on_c, 5, 64, 0
4, 121536, Note_on_c, 5, 62, 45
4, 121630, Note_on_c, 5, 62, 0
4, 121632, Note_on_c, 5, 62, 92
4, 121726, Note_on_c, 5, 62, 0
4, 121728, Note_on_c, 5, 66, 92
4, 121822, Note_on_c, 5, 66, 0
4, 121824, Note_on_c, 5, 66, 92
4, 121918, Note_on_c, 5, 66, 0
4, 121920, Note_on_c, 5, 69, 92
4, 122080, Note_on_c, 5, 69, 0
4, 122400, Note_on_c, 5, 62, 92
4, 122494, Note_on_c, 5, 62, 0
4, 122496, Note_on_c, 5, 66, 92
4, 122590, Note_on_c, 5, 66, 0
4, 122592, Note_on_c, 5, 66, 92
4, 122686, Note_on_c, 5, 66, 0
4, 122688, Note_on_c, 5, 69, 92
4, 122848, Note_on_c, 5, 69, 0
4, 123072, Note_on_c, 5, 62, 92
4, 123104, Note_on_c, 5, 62, 0
4, 123168, Note_on_c, 5, 66, 92
4, 123200, Note_on_c, 5, 66, 0
4, 123264, Note_on_c, 5, 67, 92
4, 123296, Note_on_c, 5, 67, 0
4, 123360, Note_on_c, 5, 64, 92
4, 123392, Note_on_c, 5, 64, 0
4, 123456, Note_on_c, 5, 62, 92
4, 123488, Note_on_c, 5, 62, 0
4, 123552, Note_on_c, 5, 66, 92
4, 123584, Note_on_c, 5, 66, 0
4, 123648, Note_on_c, 5, 67, 92
4, 123680, Note_on_c, 5, 67, 0
4, 123744, Note_on_c, 5, 64, 92
4, 123776, Note_on_c, 5, 64, 0
4, 123840, Note_on_c, 5, 62, 92
4, 124000, Note_on_c, 5, 62, 0
4, 124032, Note_on_c, 5, 62, 92
4, 124192, Note_on_c, 5, 62, 0
4, 124224, Note_on_c, 5, 62, 92
4, 124480, Note_on_c, 5, 62, 0
4, 124480, End_track
5, 0, Start_track
5, 0, MIDI_port, 0
5, 0, Title_t, "Corno II in F"
5, 0, Program_c, 5, 60
5, 0, Control_c, 5, 7, 80
5, 0, Control_c, 5, 10, 64
5, 4992, Note_on_c, 5, 54, 92
5, 5086, Note_on_c, 5, 54, 0
5, 5184, Note_on_c, 5, 57, 92
5, 5278, Note_on_c, 5, 57, 0
5, 5376, Note_on_c, 5, 62, 92
5, 5470, Note_on_c, 5, 62, 0
5, 5568, Note_on_c, 5, 50, 92
5, 5600, Note_on_c, 5, 50, 0
5, 5664, Note_on_c, 5, 50, 92
5, 5696, Note_on_c, 5, 50, 0
5, 5760, Note_on_c, 5, 50, 92
5, 5854, Note_on_c, 5, 50, 0
5, 5856, Note_on_c, 5, 50, 92
5, 5950, Note_on_c, 5, 50, 0
5, 5952, Note_on_c, 5, 50, 92
5, 6046, Note_on_c, 5, 50, 0
5, 6048, Note_on_c, 5, 50, 92
5, 6142, Note_on_c, 5, 50, 0
5, 6144, Note_on_c, 5, 50, 92
5, 6304, Note_on_c, 5, 50, 0
5, 6528, Note_on_c, 5, 57, 92
5, 6784, Note_on_c, 5, 57, 0
5, 6816, Note_on_c, 5, 57, 92
5, 6910, Note_on_c, 5, 57, 0
5, 6912, Note_on_c, 5, 57, 92
5, 7072, Note_on_c, 5, 57, 0
5, 7296, Note_on_c, 5, 54, 92
5, 7390, Note_on_c, 5, 54, 0
5, 7488, Note_on_c, 5, 57, 92
5, 7582, Note_on_c, 5, 57, 0
5, 7680, Note_on_c, 5, 62, 92
5, 7774, Note_on_c, 5, 62, 0
5, 7872, Note_on_c, 5, 50, 92
5, 7904, Note_on_c, 5, 50, 0
5, 7968, Note_on_c, 5, 50, 92
5, 8000, Note_on_c, 5, 50, 0
5, 8064, Note_on_c, 5, 50, 92
5, 8158, Note_on_c, 5, 50, 0
5, 8160, Note_on_c, 5, 50, 92
5, 8254, Note_on_c, 5, 50, 0
5, 8256, Note_on_c, 5, 50, 92
5, 8350, Note_on_c, 5, 50, 0
5, 8352, Note_on_c, 5, 50, 92
5, 8446, Note_on_c, 5, 50, 0
5, 8448, Note_on_c, 5, 50, 92
5, 8608, Note_on_c, 5, 50, 0
5, 8832, Note_on_c, 5, 64, 92
5, 8992, Note_on_c, 5, 64, 0
5, 9024, Note_on_c, 5, 62, 92
5, 9118, Note_on_c, 5, 62, 0
5, 9120, Note_on_c, 5, 57, 92
5, 9214, Note_on_c, 5, 57, 0
5, 9216, Note_on_c, 5, 50, 92
5, 9376, Note_on_c, 5, 50, 0
5, 9408, Note_on_c, 5, 54, 92
5, 9440, Note_on_c, 5, 54, 0
5, 9504, Note_on_c, 5, 54, 92
5, 9536, Note_on_c, 5, 54, 0
5, 9600, Note_on_c, 5, 57, 92
5, 9696, Note_on_c, 5, 57, 0
5, 9696, Note_on_c, 5, 54, 92
5, 9790, Note_on_c, 5, 54, 0
5, 9792, Note_on_c, 5, 57, 92
5, 9824, Note_on_c, 5, 57, 0
5, 9888, Note_on_c, 5, 57, 92
5, 9920, Note_on_c, 5, 57, 0
5, 9984, Note_on_c, 5, 62, 92
5, 10080, Note_on_c, 5, 62, 0
5, 10080, Note_on_c, 5, 57, 92
5, 10174, Note_on_c, 5, 57, 0
5, 10944, Note_on_c, 5, 54, 92
5, 10976, Note_on_c, 5, 54, 0
5, 11040, Note_on_c, 5, 54, 92
5, 11072, Note_on_c, 5, 54, 0
5, 11136, Note_on_c, 5, 57, 92
5, 11232, Note_on_c, 5, 57, 0
5, 11232, Note_on_c, 5, 54, 92
5, 11326, Note_on_c, 5, 54, 0
5, 11328, Note_on_c, 5, 57, 92
5, 11360, Note_on_c, 5, 57, 0
5, 11424, Note_on_c, 5, 57, 92
5, 11456, Note_on_c, 5, 57, 0
5, 11520, Note_on_c, 5, 62, 92
5, 11616, Note_on_c, 5, 62, 0
5, 11616, Note_on_c, 5, 57, 92
5, 11710, Note_on_c, 5, 57, 0
5, 12288, Note_on_c, 5, 45, 92
5, 13918, Note_on_c, 5, 45, 0
5, 13920, Note_on_c, 5, 57, 92
5, 14014, Note_on_c, 5, 57, 0
5, 14016, Note_on_c, 5, 57, 92
5, 14110, Note_on_c, 5, 57, 0
5, 14112, Note_on_c, 5, 57, 92
5, 14206, Note_on_c, 5, 57, 0
5, 14208, Note_on_c, 5, 57, 92
5, 14368, Note_on_c, 5, 57, 0
5, 16320, Note_on_c, 5, 64, 45
5, 16480, Note_on_c, 5, 64, 0
5, 16512, Note_on_c, 5, 62, 45
5, 16672, Note_on_c, 5, 62, 0
5, 16704, Note_on_c, 5, 57, 45
5, 16864, Note_on_c, 5, 57, 0
5, 16896, Note_on_c, 5, 50, 45
5, 17056, Note_on_c, 5, 50, 0
5, 17088, Note_on_c, 5, 62, 92
5, 17440, Note_on_c, 5, 62, 0
5, 17472, Note_on_c, 5, 57, 92
5, 17632, Note_on_c, 5, 57, 0
5, 17664, Note_on_c, 5, 50, 92
5, 17824, Note_on_c, 5, 50, 0
5, 17856, Note_on_c, 5, 62, 92
5, 18208, Note_on_c, 5, 62, 0
5, 18240, Note_on_c, 5, 57, 92
5, 18400, Note_on_c, 5, 57, 0
5, 18432, Note_on_c, 5, 54, 92
5, 18526, Note_on_c, 5, 54, 0
5, 18528, Note_on_c, 5, 50, 92
5, 18622, Note_on_c, 5, 50, 0
5, 18624, Note_on_c, 5, 54, 92
5, 18718, Note_on_c, 5, 54, 0
5, 18720, Note_on_c, 5, 54, 92
5, 18814, Note_on_c, 5, 54, 0
5, 18816, Note_on_c, 5, 57, 92
5, 18976, Note_on_c, 5, 57, 0
5, 19296, Note_on_c, 5, 50, 92
5, 19390, Note_on_c, 5, 50, 0
5, 19392, Note_on_c, 5, 54, 92
5, 19486, Note_on_c, 5, 54, 0
5, 19488, Note_on_c, 5, 54, 92
5, 19582, Note_on_c, 5, 54, 0
5, 19584, Note_on_c, 5, 57, 92
5, 19744, Note_on_c, 5, 57, 0
5, 19968, Note_on_c, 5, 62, 92
5, 20000, Note_on_c, 5, 62, 0
5, 20064, Note_on_c, 5, 66, 92
5, 20096, Note_on_c, 5, 66, 0
5, 20160, Note_on_c, 5, 67, 92
5, 20192, Note_on_c, 5, 67, 0
5, 20256, Note_on_c, 5, 64, 92
5, 20288, Note_on_c, 5, 64, 0
5, 20352, Note_on_c, 5, 62, 92
5, 20384, Note_on_c, 5, 62, 0
5, 20448, Note_on_c, 5, 66, 92
5, 20480, Note_on_c, 5, 66, 0
5, 20544, Note_on_c, 5, 67, 92
5, 20576, Note_on_c, 5, 67, 0
5, 20640, Note_on_c, 5, 64, 92
5, 20672, Note_on_c, 5, 64, 0
5, 20736, Note_on_c, 5, 62, 92
5, 20896, Note_on_c, 5, 62, 0
5, 20928, Note_on_c, 5, 62, 92
5, 21088, Note_on_c, 5, 62, 0
5, 21120, Note_on_c, 5, 62, 92
5, 21280, Note_on_c, 5, 62, 0
5, 27072, Note_on_c, 5, 54, 92
5, 27104, Note_on_c, 5, 54, 0
5, 27168, Note_on_c, 5, 54, 92
5, 27200, Note_on_c, 5, 54, 0
5, 27264, Note_on_c, 5, 57, 92
5, 27360, Note_on_c, 5, 57, 0
5, 27360, Note_on_c, 5, 54, 92
5, 27454, Note_on_c, 5, 54, 0
5, 27456, Note_on_c, 5, 57, 92
5, 27488, Note_on_c, 5, 57, 0
5, 27552, Note_on_c, 5, 57, 92
5, 27584, Note_on_c, 5, 57, 0
5, 27648, Note_on_c, 5, 62, 92
5, 27744, Note_on_c, 5, 62, 0
5, 27744, Note_on_c, 5, 57, 92
5, 27838, Note_on_c, 5, 57, 0
5, 28608, Note_on_c, 5, 54, 92
5, 28640, Note_on_c, 5, 54, 0
5, 28704, Note_on_c, 5, 54, 92
5, 28736, Note_on_c, 5, 54, 0
5, 28800, Note_on_c, 5, 57, 92
5, 28896, Note_on_c, 5, 57, 0
5, 28896, Note_on_c, 5, 54, 92
5, 28990, Note_on_c, 5, 54, 0
5, 28992, Note_on_c, 5, 57, 92
5, 29024, Note_on_c, 5, 57, 0
5, 29088, Note_on_c, 5, 57, 92
5, 29120, Note_on_c, 5, 57, 0
5, 29184, Note_on_c, 5, 62, 92
5, 29280, Note_on_c, 5, 62, 0
5, 29280, Note_on_c, 5, 57, 92
5, 29374, Note_on_c, 5, 57, 0
5, 45792, Note_on_c, 5, 57, 92
5, 45886, Note_on_c, 5, 57, 0
5, 45888, Note_on_c, 5, 57, 92
5, 45982, Note_on_c, 5, 57, 0
5, 45984, Note_on_c, 5, 57, 92
5, 46078, Note_on_c, 5, 57, 0
5, 46080, Note_on_c, 5, 64, 92
5, 46240, Note_on_c, 5, 64, 0
5, 46560, Note_on_c, 5, 57, 92
5, 46654, Note_on_c, 5, 57, 0
5, 46656, Note_on_c, 5, 57, 92
5, 46750, Note_on_c, 5, 57, 0
5, 46752, Note_on_c, 5, 57, 92
5, 46846, Note_on_c, 5, 57, 0
5, 46848, Note_on_c, 5, 64, 92
5, 47008, Note_on_c, 5, 64, 0
5, 47232, Note_on_c, 5, 57, 92
5, 47392, Note_on_c, 5, 57, 0
5, 54336, Note_on_c, 5, 54, 92
5, 54430, Note_on_c, 5, 54, 0
5, 54528, Note_on_c, 5, 57, 92
5, 54622, Note_on_c, 5, 57, 0
5, 54720, Note_on_c, 5, 62, 92
5, 54814, Note_on_c, 5, 62, 0
5, 54912, Note_on_c, 5, 50, 92
5, 54944, Note_on_c, 5, 50, 0
5, 55008, Note_on_c, 5, 50, 92
5, 55040, Note_on_c, 5, 50, 0
5, 55104, Note_on_c, 5, 50, 92
5, 55198, Note_on_c, 5, 50, 0
5, 55200, Note_on_c, 5, 50, 92
5, 55294, Note_on_c, 5, 50, 0
5, 55296, Note_on_c, 5, 50, 92
5, 55390, Note_on_c, 5, 50, 0
5, 55392, Note_on_c, 5, 50, 92
5, 55486, Note_on_c, 5, 50, 0
5, 55488, Note_on_c, 5, 50, 92
5, 55648, Note_on_c, 5, 50, 0
5, 55680, Note_on_c, 5, 50, 92
5, 55774, Note_on_c, 5, 50, 0
5, 55776, Note_on_c, 5, 54, 92
5, 55870, Note_on_c, 5, 54, 0
5, 55872, Note_on_c, 5, 57, 92
5, 56128, Note_on_c, 5, 57, 0
5, 56160, Note_on_c, 5, 62, 92
5, 56254, Note_on_c, 5, 62, 0
5, 56256, Note_on_c, 5, 57, 92
5, 56416, Note_on_c, 5, 57, 0
5, 56640, Note_on_c, 5, 66, 92
5, 56734, Note_on_c, 5, 66, 0
5, 56736, Note_on_c, 5, 62, 92
5, 56830, Note_on_c, 5, 62, 0
5, 56832, Note_on_c, 5, 64, 92
5, 56926, Note_on_c, 5, 64, 0
5, 56928, Note_on_c, 5, 57, 92
5, 57022, Note_on_c, 5, 57, 0
5, 57024, Note_on_c, 5, 62, 92
5, 57118, Note_on_c, 5, 62, 0
5, 57216, Note_on_c, 5, 50, 92
5, 57248, Note_on_c, 5, 50, 0
5, 57312, Note_on_c, 5, 50, 92
5, 57344, Note_on_c, 5, 50, 0
5, 57408, Note_on_c, 5, 50, 92
5, 57502, Note_on_c, 5, 50, 0
5, 57504, Note_on_c, 5, 50, 92
5, 57598, Note_on_c, 5, 50, 0
5, 57600, Note_on_c, 5, 50, 92
5, 57694, Note_on_c, 5, 50, 0
5, 57696, Note_on_c, 5, 50, 92
5, 57790, Note_on_c, 5, 50, 0
5, 57792, Note_on_c, 5, 50, 92
5, 57952, Note_on_c, 5, 50, 0
5, 58176, Note_on_c, 5, 64, 92
5, 58336, Note_on_c, 5, 64, 0
5, 58368, Note_on_c, 5, 62, 92
5, 58462, Note_on_c, 5, 62, 0
5, 58464, Note_on_c, 5, 57, 92
5, 58558, Note_on_c, 5, 57, 0
5, 58560, Note_on_c, 5, 50, 92
5, 60190, Note_on_c, 5, 50, 0
5, 60192, Note_on_c, 5, 62, 92
5, 60286, Note_on_c, 5, 62, 0
5, 60288, Note_on_c, 5, 62, 92
5, 60382, Note_on_c, 5, 62, 0
5, 60384, Note_on_c, 5, 62, 92
5, 60478, Note_on_c, 5, 62, 0
5, 60480, Note_on_c, 5, 62, 92
5, 60640, Note_on_c, 5, 62, 0
5, 63168, Note_on_c, 5, 50, 45
5, 66400, Note_on_c, 5, 50, 0
5, 81024, Note_on_c, 5, 54, 92
5, 81056, Note_on_c, 5, 54, 0
5, 81120, Note_on_c, 5, 54, 92
5, 81152, Note_on_c, 5, 54, 0
5, 81216, Note_on_c, 5, 57, 92
5, 81312, Note_on_c, 5, 57, 0
5, 81312, Note_on_c, 5, 54, 92
5, 81406, Note_on_c, 5, 54, 0
5, 81408, Note_on_c, 5, 57, 92
5, 81440, Note_on_c, 5, 57, 0
5, 81504, Note_on_c, 5, 57, 92
5, 81536, Note_on_c, 5, 57, 0
5, 81600, Note_on_c, 5, 62, 92
5, 81696, Note_on_c, 5, 62, 0
5, 81696, Note_on_c, 5, 57, 92
5, 81790, Note_on_c, 5, 57, 0
5, 82560, Note_on_c, 5, 54, 92
5, 82592, Note_on_c, 5, 54, 0
5, 82656, Note_on_c, 5, 54, 92
5, 82688, Note_on_c, 5, 54, 0
5, 82752, Note_on_c, 5, 57, 92
5, 82848, Note_on_c, 5, 57, 0
5, 82848, Note_on_c, 5, 54, 92
5, 82942, Note_on_c, 5, 54, 0
5, 82944, Note_on_c, 5, 57, 92
5, 82976, Note_on_c, 5, 57, 0
5, 83040, Note_on_c, 5, 57, 92
5, 83072, Note_on_c, 5, 57, 0
5, 83136, Note_on_c, 5, 62, 92
5, 83232, Note_on_c, 5, 62, 0
5, 83232, Note_on_c, 5, 57, 92
5, 83326, Note_on_c, 5, 57, 0
5, 83904, Note_on_c, 5, 45, 92
5, 85534, Note_on_c, 5, 45, 0
5, 85536, Note_on_c, 5, 57, 92
5, 85630, Note_on_c, 5, 57, 0
5, 85632, Note_on_c, 5, 57, 92
5, 85726, Note_on_c, 5, 57, 0
5, 85728, Note_on_c, 5, 57, 92
5, 85822, Note_on_c, 5, 57, 0
5, 85824, Note_on_c, 5, 57, 92
5, 85984, Note_on_c, 5, 57, 0
5, 91392, Note_on_c, 5, 62, 92
5, 91744, Note_on_c, 5, 62, 0
5, 91776, Note_on_c, 5, 57, 92
5, 91936, Note_on_c, 5, 57, 0
5, 91968, Note_on_c, 5, 50, 92
5, 92128, Note_on_c, 5, 50, 0
5, 92160, Note_on_c, 5, 62, 92
5, 92512, Note_on_c, 5, 62, 0
5, 92544, Note_on_c, 5, 57, 92
5, 92704, Note_on_c, 5, 57, 0
5, 92736, Note_on_c, 5, 54, 92
5, 92896, Note_on_c, 5, 54, 0
5, 95808, Note_on_c, 5, 62, 92
5, 97504, Note_on_c, 5, 62, 0
5, 97824, Note_on_c, 5, 62, 92
5, 97918, Note_on_c, 5, 62, 0
5, 97920, Note_on_c, 5, 62, 92
5, 98014, Note_on_c, 5, 62, 0
5, 98016, Note_on_c, 5, 62, 92
5, 98110, Note_on_c, 5, 62, 0
5, 98112, Note_on_c, 5, 57, 92
5, 98272, Note_on_c, 5, 57, 0
5, 111168, Note_on_c, 5, 50, 45
5, 112798, Note_on_c, 5, 50, 0
5, 115584, Note_on_c, 5, 57, 92
5, 115678, Note_on_c, 5, 57, 0
5, 115680, Note_on_c, 5, 57, 92
5, 115774, Note_on_c, 5, 57, 0
5, 115776, Note_on_c, 5, 54, 92
5, 115870, Note_on_c, 5, 54, 0
5, 115872, Note_on_c, 5, 54, 92
5, 115966, Note_on_c, 5, 54, 0
5, 115968, Note_on_c, 5, 57, 92
5, 116128, Note_on_c, 5, 57, 0
5, 116160, Note_on_c, 5, 62, 92
5, 116254, Note_on_c, 5, 62, 0
5, 116352, Note_on_c, 5, 62, 92
5, 116446, Note_on_c, 5, 62, 0
5, 116448, Note_on_c, 5, 62, 92
5, 116542, Note_on_c, 5, 62, 0
5, 116544, Note_on_c, 5, 62, 92
5, 116638, Note_on_c, 5, 62, 0
5, 116640, Note_on_c, 5, 62, 92
5, 116734, Note_on_c, 5, 62, 0
5, 116736, Note_on_c, 5, 62, 92
5, 116830, Note_on_c, 5, 62, 0
5, 116832, Note_on_c, 5, 62, 92
5, 116926, Note_on_c, 5, 62, 0
5, 116928, Note_on_c, 5, 62, 92
5, 117088, Note_on_c, 5, 62, 0
5, 118080, Note_on_c, 5, 64, 92
5, 118240, Note_on_c, 5, 64, 0
5, 118272, Note_on_c, 5, 62, 92
5, 118366, Note_on_c, 5, 62, 0
5, 118368, Note_on_c, 5, 57, 92
5, 118462, Note_on_c, 5, 57, 0
5, 118464, Note_on_c, 5, 54, 92
5, 118624, Note_on_c, 5, 54, 0
5, 119232, Note_on_c, 5, 64, 45
5, 120160, Note_on_c, 5, 64, 0
5, 120768, Note_on_c, 5, 54, 45
5, 121024, Note_on_c, 5, 54, 0
5, 121056, Note_on_c, 5, 57, 45
5, 121150, Note_on_c, 5, 57, 0
5, 121152, Note_on_c, 5, 54, 45
5, 121246, Note_on_c, 5, 54, 0
5, 121248, Note_on_c, 5, 57, 45
5, 121342, Note_on_c, 5, 57, 0
5, 121344, Note_on_c, 5, 54, 45
5, 121438, Note_on_c, 5, 54, 0
5, 121440, Note_on_c, 5, 57, 45
5, 121534, Note_on_c, 5, 57, 0
5, 121536, Note_on_c, 5, 54, 45
5, 121630, Note_on_c, 5, 54, 0
5, 121632, Note_on_c, 5, 50, 92
5, 121726, Note_on_c, 5, 50, 0
5, 121728, Note_on_c, 5, 54, 92
5, 121822, Note_on_c, 5, 54, 0
5, 121824, Note_on_c, 5, 54, 92
5, 121918, Note_on_c, 5, 54, 0
5, 121920, Note_on_c, 5, 57, 92
5, 122080, Note_on_c, 5, 57, 0
5, 122400, Note_on_c, 5, 50, 92
5, 122494, Note_on_c, 5, 50, 0
5, 122496, Note_on_c, 5, 54, 92
5, 122590, Note_on_c, 5, 54, 0
5, 122592, Note_on_c, 5, 54, 92
5, 122686, Note_on_c, 5, 54, 0
5, 122688, Note_on_c, 5, 57, 92
5, 122848, Note_on_c, 5, 57, 0
5, 123072, Note_on_c, 5, 62, 92
5, 123104, Note_on_c, 5, 62, 0
5, 123168, Note_on_c, 5, 66, 92
5, 123200, Note_on_c, 5, 66, 0
5, 123264, Note_on_c, 5, 67, 92
5, 123296, Note_on_c, 5, 67, 0
5, 123360, Note_on_c, 5, 64, 92
5, 123392, Note_on_c, 5, 64, 0
5, 123456, Note_on_c, 5, 62, 92
5, 123488, Note_on_c, 5, 62, 0
5, 123552, Note_on_c, 5, 66, 92
5, 123584, Note_on_c, 5, 66, 0
5, 123648, Note_on_c, 5, 67, 92
5, 123680, Note_on_c, 5, 67, 0
5, 123744, Note_on_c, 5, 64, 92
5, 123776, Note_on_c, 5, 64, 0
5, 123840, Note_on_c, 5, 62, 92
5, 124000, Note_on_c, 5, 62, 0
5, 124032, Note_on_c, 5, 50, 92
5, 124192, Note_on_c, 5, 50, 0
5, 124224, Note_on_c, 5, 50, 92
5, 124480, Note_on_c, 5, 50, 0
5, 124480, End_track
6, 0, Start_track
6, 0, MIDI_port, 0
6, 0, Title_t, "Flauto principale"
6, 0, Program_c, 6, 73
6, 0, Control_c, 6, 7, 127
6, 0, Control_c, 6, 10, 64
6, 192, Note_on_c, 6, 81, 110
6, 240, Note_on_c, 6, 81, 0
6, 240, Note_on_c, 6, 78, 110
6, 286, Note_on_c, 6, 78, 0
6, 288, Note_on_c, 6, 79, 110
6, 320, Note_on_c, 6, 79, 0
6, 336, Note_on_c, 6, 76, 110
6, 368, Note_on_c, 6, 76, 0
6, 384, Note_on_c, 6, 74, 110
6, 544, Note_on_c, 6, 74, 0
6, 576, Note_on_c, 6, 78, 110
6, 600, Note_on_c, 6, 78, 0
6, 600, Note_on_c, 6, 76, 110
6, 624, Note_on_c, 6, 76, 0
6, 624, Note_on_c, 6, 78, 110
6, 648, Note_on_c, 6, 78, 0
6, 648, Note_on_c, 6, 76, 110
6, 672, Note_on_c, 6, 76, 0
6, 672, Note_on_c, 6, 78, 110
6, 696, Note_on_c, 6, 78, 0
6, 696, Note_on_c, 6, 76, 110
6, 720, Note_on_c, 6, 76, 0
6, 720, Note_on_c, 6, 74, 110
6, 744, Note_on_c, 6, 74, 0
6, 744, Note_on_c, 6, 76, 110
6, 766, Note_on_c, 6, 76, 0
6, 768, Note_on_c, 6, 78, 110
6, 862, Note_on_c, 6, 78, 0
6, 960, Note_on_c, 6, 78, 110
6, 992, Note_on_c, 6, 78, 0
6, 1056, Note_on_c, 6, 79, 110
6, 1088, Note_on_c, 6, 79, 0
6, 1152, Note_on_c, 6, 81, 110
6, 1184, Note_on_c, 6, 81, 0
6, 1248, Note_on_c, 6, 83, 110
6, 1280, Note_on_c, 6, 83, 0
6, 1344, Note_on_c, 6, 85, 110
6, 1376, Note_on_c, 6, 85, 0
6, 1440, Note_on_c, 6, 86, 110
6, 1472, Note_on_c, 6, 86, 0
6, 1536, Note_on_c, 6, 81, 110
6, 1696, Note_on_c, 6, 81, 0
6, 1728, Note_on_c, 6, 83, 110
6, 1776, Note_on_c, 6, 83, 0
6, 1776, Note_on_c, 6, 81, 110
6, 1822, Note_on_c, 6, 81, 0
6, 1824, Note_on_c, 6, 79, 110
6, 1870, Note_on_c, 6, 79, 0
6, 1872, Note_on_c, 6, 78, 110
6, 1918, Note_on_c, 6, 78, 0
6, 1920, Note_on_c, 6, 78, 110
6, 1942, Note_on_c, 6, 78, 0
6, 1944, Note_on_c, 6, 76, 110
6, 1966, Note_on_c, 6, 76, 0
6, 1968, Note_on_c, 6, 75, 110
6, 2014, Note_on_c, 6, 75, 0
6, 2016, Note_on_c, 6, 76, 110
6, 2048, Note_on_c, 6, 76, 0
6, 2064, Note_on_c, 6, 78, 110
6, 2096, Note_on_c, 6, 78, 0
6, 2112, Note_on_c, 6, 79, 110
6, 2160, Note_on_c, 6, 79, 0
6, 2160, Note_on_c, 6, 76, 110
6, 2206, Note_on_c, 6, 76, 0
6, 2208, Note_on_c, 6, 78, 110
6, 2240, Note_on_c, 6, 78, 0
6, 2256, Note_on_c, 6, 74, 110
6, 2288, Note_on_c, 6, 74, 0
6, 2304, Note_on_c, 6, 76, 110
6, 2352, Note_on_c, 6, 76, 0
6, 2352, Note_on_c, 6, 73, 110
6, 2398, Note_on_c, 6, 73, 0
6, 2400, Note_on_c, 6, 73, 110
6, 2422, Note_on_c, 6, 73, 0
6, 2424, Note_on_c, 6, 71, 110
6, 2446, Note_on_c, 6, 71, 0
6, 2448, Note_on_c, 6, 69, 110
6, 2480, Note_on_c, 6, 69, 0
6, 2496, Note_on_c, 6, 81, 110
6, 2544, Note_on_c, 6, 81, 0
6, 2544, Note_on_c, 6, 78, 110
6, 2590, Note_on_c, 6, 78, 0
6, 2592, Note_on_c, 6, 79, 110
6, 2624, Note_on_c, 6, 79, 0
6, 2640, Note_on_c, 6, 76, 110
6, 2672, Note_on_c, 6, 76, 0
6, 2688, Note_on_c, 6, 74, 110
6, 2848, Note_on_c, 6, 74, 0
6, 2880, Note_on_c, 6, 78, 110
6, 2904, Note_on_c, 6, 78, 0
6, 2904, Note_on_c, 6, 76, 110
6, 2928, Note_on_c, 6, 76, 0
6, 2928, Note_on_c, 6, 78, 110
6, 2952, Note_on_c, 6, 78, 0
6, 2952, Note_on_c, 6, 76, 110
6, 2976, Note_on_c, 6, 76, 0
6, 2976, Note_on_c, 6, 78, 110
6, 3000, Note_on_c, 6, 78, 0
6, 3000, Note_on_c, 6, 76, 110
6, 3024, Note_on_c, 6, 76, 0
6, 3024, Note_on_c, 6, 74, 110
6, 3048, Note_on_c, 6, 74, 0
6, 3048, Note_on_c, 6, 76, 110
6, 3070, Note_on_c, 6, 76, 0
6, 3072, Note_on_c, 6, 78, 110
6, 3166, Note_on_c, 6, 78, 0
6, 3264, Note_on_c, 6, 78, 110
6, 3296, Note_on_c, 6, 78, 0
6, 3360, Note_on_c, 6, 79, 110
6, 3392, Note_on_c, 6, 79, 0
6, 3456, Note_on_c, 6, 81, 110
6, 3488, Note_on_c, 6, 81, 0
6, 3552, Note_on_c, 6, 83, 110
6, 3584, Note_on_c, 6, 83, 0
6, 3648, Note_on_c, 6, 85, 110
6, 3680, Note_on_c, 6, 85, 0
6, 3744, Note_on_c, 6, 86, 110
6, 3776, Note_on_c, 6, 86, 0
6, 3840, Note_on_c, 6, 81, 110
6, 4000, Note_on_c, 6, 81, 0
6, 4032, Note_on_c, 6, 83, 110
6, 4080, Note_on_c, 6, 83, 0
6, 4080, Note_on_c, 6, 81, 110
6, 4126, Note_on_c, 6, 81, 0
6, 4128, Note_on_c, 6, 79, 110
6, 4174, Note_on_c, 6, 79, 0
6, 4176, Note_on_c, 6, 78, 110
6, 4222, Note_on_c, 6, 78, 0
6, 4224, Note_on_c, 6, 75, 110
6, 4272, Note_on_c, 6, 75, 0
6, 4272, Note_on_c, 6, 76, 110
6, 4318, Note_on_c, 6, 76, 0
6, 4320, Note_on_c, 6, 79, 110
6, 4352, Note_on_c, 6, 79, 0
6, 4368, Note_on_c, 6, 83, 110
6, 4400, Note_on_c, 6, 83, 0
6, 4416, Note_on_c, 6, 81, 110
6, 4464, Note_on_c, 6, 81, 0
6, 4464, Note_on_c, 6, 78, 110
6, 4510, Note_on_c, 6, 78, 0
6, 4512, Note_on_c, 6, 79, 110
6, 4544, Note_on_c, 6, 79, 0
6, 4560, Note_on_c, 6, 76, 110
6, 4592, Note_on_c, 6, 76, 0
6, 4608, Note_on_c, 6, 74, 110
6, 4768, Note_on_c, 6, 74, 0
6, 10176, Note_on_c, 6, 81, 110
6, 10208, Note_on_c, 6, 81, 0
6, 10272, Note_on_c, 6, 81, 110
6, 10304, Note_on_c, 6, 81, 0
6, 10368, Note_on_c, 6, 81, 110
6, 10528, Note_on_c, 6, 81, 0
6, 10560, Note_on_c, 6, 83, 110
6, 10608, Note_on_c, 6, 83, 0
6, 10608, Note_on_c, 6, 81, 110
6, 10656, Note_on_c, 6, 81, 0
6, 10656, Note_on_c, 6, 79, 110
6, 10704, Note_on_c, 6, 79, 0
6, 10704, Note_on_c, 6, 78, 110
6, 10750, Note_on_c, 6, 78, 0
6, 10752, Note_on_c, 6, 78, 110
6, 10848, Note_on_c, 6, 78, 0
6, 10848, Note_on_c, 6, 76, 110
6, 10942, Note_on_c, 6, 76, 0
6, 11712, Note_on_c, 6, 81, 110
6, 11744, Note_on_c, 6, 81, 0
6, 11808, Note_on_c, 6, 81, 110
6, 11840, Note_on_c, 6, 81, 0
6, 11904, Note_on_c, 6, 81, 110
6, 12064, Note_on_c, 6, 81, 0
6, 12096, Note_on_c, 6, 83, 110
6, 12144, Note_on_c, 6, 83, 0
6, 12144, Note_on_c, 6, 81, 110
6, 12190, Note_on_c, 6, 81, 0
6, 12192, Note_on_c, 6, 79, 110
6, 12240, Note_on_c, 6, 79, 0
6, 12240, Note_on_c, 6, 78, 110
6, 12286, Note_on_c, 6, 78, 0
6, 12288, Note_on_c, 6, 76, 110
6, 12448, Note_on_c, 6, 76, 0
6, 21312, Note_on_c, 6, 81, 110
6, 21360, Note_on_c, 6, 81, 0
6, 21360, Note_on_c, 6, 78, 110
6, 21406, Note_on_c, 6, 78, 0
6, 21408, Note_on_c, 6, 79, 110
6, 21440, Note_on_c, 6, 79, 0
6, 21456, Note_on_c, 6, 76, 110
6, 21488, Note_on_c, 6, 76, 0
6, 21504, Note_on_c, 6, 74, 110
6, 21840, Note_on_c, 6, 74, 0
6, 21888, Note_on_c, 6, 86, 110
6, 22224, Note_on_c, 6, 86, 0
6, 22272, Note_on_c, 6, 86, 110
6, 22368, Note_on_c, 6, 86, 0
6, 22368, Note_on_c, 6, 85, 110
6, 22462, Note_on_c, 6, 85, 0
6, 22464, Note_on_c, 6, 85, 110
6, 22624, Note_on_c, 6, 85, 0
6, 22848, Note_on_c, 6, 76, 110
6, 22896, Note_on_c, 6, 76, 0
6, 22896, Note_on_c, 6, 73, 110
6, 22942, Note_on_c, 6, 73, 0
6, 22944, Note_on_c, 6, 74, 110
6, 22976, Note_on_c, 6, 74, 0
6, 22992, Note_on_c, 6, 71, 110
6, 23024, Note_on_c, 6, 71, 0
6, 23040, Note_on_c, 6, 69, 110
6, 23376, Note_on_c, 6, 69, 0
6, 23424, Note_on_c, 6, 79, 110
6, 23760, Note_on_c, 6, 79, 0
6, 23808, Note_on_c, 6, 81, 110
6, 23832, Note_on_c, 6, 81, 0
6, 23832, Note_on_c, 6, 79, 110
6, 23856, Note_on_c, 6, 79, 0
6, 23856, Note_on_c, 6, 81, 110
6, 23880, Note_on_c, 6, 81, 0
6, 23880, Note_on_c, 6, 79, 110
6, 23904, Note_on_c, 6, 79, 0
6, 23904, Note_on_c, 6, 78, 110
6, 23998, Note_on_c, 6, 78, 0
6, 24000, Note_on_c, 6, 78, 110
6, 24160, Note_on_c, 6, 78, 0
6, 24384, Note_on_c, 6, 81, 110
6, 24544, Note_on_c, 6, 81, 0
6, 24576, Note_on_c, 6, 82, 110
6, 24624, Note_on_c, 6, 82, 0
6, 24624, Note_on_c, 6, 83, 110
6, 24670, Note_on_c, 6, 83, 0
6, 24672, Note_on_c, 6, 79, 110
6, 24704, Note_on_c, 6, 79, 0
6, 24720, Note_on_c, 6, 76, 110
6, 24752, Note_on_c, 6, 76, 0
6, 24768, Note_on_c, 6, 80, 110
6, 24816, Note_on_c, 6, 80, 0
6, 24816, Note_on_c, 6, 81, 110
6, 24862, Note_on_c, 6, 81, 0
6, 24864, Note_on_c, 6, 78, 110
6, 24896, Note_on_c, 6, 78, 0
6, 24912, Note_on_c, 6, 75, 110
6, 24944, Note_on_c, 6, 75, 0
6, 24960, Note_on_c, 6, 78, 110
6, 24982, Note_on_c, 6, 78, 0
6, 24984, Note_on_c, 6, 76, 110
6, 25006, Note_on_c, 6, 76, 0
6, 25008, Note_on_c, 6, 75, 110
6, 25054, Note_on_c, 6, 75, 0
6, 25056, Note_on_c, 6, 76, 110
6, 25088, Note_on_c, 6, 76, 0
6, 25104, Note_on_c, 6, 78, 110
6, 25136, Note_on_c, 6, 78, 0
6, 25152, Note_on_c, 6, 79, 110
6, 25200, Note_on_c, 6, 79, 0
6, 25200, Note_on_c, 6, 81, 110
6, 25246, Note_on_c, 6, 81, 0
6, 25248, Note_on_c, 6, 83, 110
6, 25280, Note_on_c, 6, 83, 0
6, 25296, Note_on_c, 6, 79, 110
6, 25328, Note_on_c, 6, 79, 0
6, 25344, Note_on_c, 6, 80, 110
6, 25392, Note_on_c, 6, 80, 0
6, 25392, Note_on_c, 6, 81, 110
6, 25438, Note_on_c, 6, 81, 0
6, 25440, Note_on_c, 6, 78, 110
6, 25472, Note_on_c, 6, 78, 0
6, 25488, Note_on_c, 6, 74, 110
6, 25520, Note_on_c, 6, 74, 0
6, 25536, Note_on_c, 6, 78, 110
6, 25584, Note_on_c, 6, 78, 0
6, 25584, Note_on_c, 6, 79, 110
6, 25630, Note_on_c, 6, 79, 0
6, 25632, Note_on_c, 6, 76, 110
6, 25664, Note_on_c, 6, 76, 0
6, 25680, Note_on_c, 6, 73, 110
6, 25712, Note_on_c, 6, 73, 0
6, 25728, Note_on_c, 6, 76, 110
6, 25750, Note_on_c, 6, 76, 0
6, 25752, Note_on_c, 6, 74, 110
6, 25774, Note_on_c, 6, 74, 0
6, 25776, Note_on_c, 6, 73, 110
6, 25822, Note_on_c, 6, 73, 0
6, 25824, Note_on_c, 6, 74, 110
6, 25856, Note_on_c, 6, 74, 0
6, 25872, Note_on_c, 6, 76, 110
6, 25904, Note_on_c, 6, 76, 0
6, 25920, Note_on_c, 6, 78, 110
6, 25968, Note_on_c, 6, 78, 0
6, 25968, Note_on_c, 6, 79, 110
6, 26014, Note_on_c, 6, 79, 0
6, 26016, Note_on_c, 6, 81, 110
6, 26048, Note_on_c, 6, 81, 0
6, 26064, Note_on_c, 6, 78, 110
6, 26096, Note_on_c, 6, 78, 0
6, 26112, Note_on_c, 6, 78, 110
6, 26134, Note_on_c, 6, 78, 0
6, 26136, Note_on_c, 6, 76, 110
6, 26158, Note_on_c, 6, 76, 0
6, 26160, Note_on_c, 6, 75, 110
6, 26206, Note_on_c, 6, 75, 0
6, 26208, Note_on_c, 6, 76, 110
6, 26240, Note_on_c, 6, 76, 0
6, 26256, Note_on_c, 6, 78, 110
6, 26288, Note_on_c, 6, 78, 0
6, 26304, Note_on_c, 6, 79, 110
6, 26352, Note_on_c, 6, 79, 0
6, 26352, Note_on_c, 6, 81, 110
6, 26398, Note_on_c, 6, 81, 0
6, 26400, Note_on_c, 6, 83, 110
6, 26432, Note_on_c, 6, 83, 0
6, 26448, Note_on_c, 6, 79, 110
6, 26480, Note_on_c, 6, 79, 0
6, 26496, Note_on_c, 6, 78, 110
6, 26544, Note_on_c, 6, 78, 0
6, 26544, Note_on_c, 6, 81, 110
6, 26590, Note_on_c, 6, 81, 0
6, 26592, Note_on_c, 6, 74, 110
6, 26624, Note_on_c, 6, 74, 0
6, 26640, Note_on_c, 6, 78, 110
6, 26672, Note_on_c, 6, 78, 0
6, 26688, Note_on_c, 6, 76, 110
6, 26736, Note_on_c, 6, 76, 0
6, 26736, Note_on_c, 6, 79, 110
6, 26782, Note_on_c, 6, 79, 0
6, 26784, Note_on_c, 6, 73, 110
6, 26816, Note_on_c, 6, 73, 0
6, 26832, Note_on_c, 6, 76, 110
6, 26864, Note_on_c, 6, 76, 0
6, 26880, Note_on_c, 6, 74, 110
6, 27040, Note_on_c, 6, 74, 0
6, 27840, Note_on_c, 6, 81, 110
6, 27872, Note_on_c, 6, 81, 0
6, 27936, Note_on_c, 6, 81, 110
6, 27968, Note_on_c, 6, 81, 0
6, 28032, Note_on_c, 6, 81, 110
6, 28192, Note_on_c, 6, 81, 0
6, 28224, Note_on_c, 6, 83, 110
6, 28272, Note_on_c, 6, 83, 0
6, 28272, Note_on_c, 6, 81, 110
6, 28318, Note_on_c, 6, 81, 0
6, 28320, Note_on_c, 6, 79, 110
6, 28352, Note_on_c, 6, 79, 0
6, 28368, Note_on_c, 6, 78, 110
6, 28400, Note_on_c, 6, 78, 0
6, 28416, Note_on_c, 6, 78, 110
6, 28512, Note_on_c, 6, 78, 0
6, 28512, Note_on_c, 6, 76, 110
6, 28606, Note_on_c, 6, 76, 0
6, 29376, Note_on_c, 6, 81, 110
6, 29408, Note_on_c, 6, 81, 0
6, 29472, Note_on_c, 6, 81, 110
6, 29504, Note_on_c, 6, 81, 0
6, 29568, Note_on_c, 6, 81, 110
6, 29728, Note_on_c, 6, 81, 0
6, 29760, Note_on_c, 6, 83, 110
6, 29808, Note_on_c, 6, 83, 0
6, 29808, Note_on_c, 6, 81, 110
6, 29854, Note_on_c, 6, 81, 0
6, 29856, Note_on_c, 6, 79, 110
6, 29888, Note_on_c, 6, 79, 0
6, 29904, Note_on_c, 6, 78, 110
6, 29936, Note_on_c, 6, 78, 0
6, 29952, Note_on_c, 6, 78, 110
6, 30048, Note_on_c, 6, 78, 0
6, 30048, Note_on_c, 6, 76, 110
6, 30142, Note_on_c, 6, 76, 0
6, 30240, Note_on_c, 6, 78, 110
6, 30262, Note_on_c, 6, 78, 0
6, 30264, Note_on_c, 6, 76, 110
6, 30286, Note_on_c, 6, 76, 0
6, 30288, Note_on_c, 6, 78, 110
6, 30310, Note_on_c, 6, 78, 0
6, 30312, Note_on_c, 6, 76, 110
6, 30334, Note_on_c, 6, 76, 0
6, 30336, Note_on_c, 6, 78, 110
6, 30384, Note_on_c, 6, 78, 0
6, 30384, Note_on_c, 6, 76, 110
6, 30430, Note_on_c, 6, 76, 0
6, 30432, Note_on_c, 6, 74, 110
6, 30464, Note_on_c, 6, 74, 0
6, 30480, Note_on_c, 6, 76, 110
6, 30512, Note_on_c, 6, 76, 0
6, 30528, Note_on_c, 6, 74, 110
6, 30576, Note_on_c, 6, 74, 0
6, 30576, Note_on_c, 6, 78, 110
6, 30622, Note_on_c, 6, 78, 0
6, 30624, Note_on_c, 6, 76, 110
6, 30656, Note_on_c, 6, 76, 0
6, 30672, Note_on_c, 6, 79, 110
6, 30704, Note_on_c, 6, 79, 0
6, 30720, Note_on_c, 6, 78, 110
6, 30768, Note_on_c, 6, 78, 0
6, 30768, Note_on_c, 6, 76, 110
6, 30814, Note_on_c, 6, 76, 0
6, 30816, Note_on_c, 6, 74, 110
6, 30848, Note_on_c, 6, 74, 0
6, 30864, Note_on_c, 6, 76, 110
6, 30896, Note_on_c, 6, 76, 0
6, 30912, Note_on_c, 6, 78, 110
6, 30960, Note_on_c, 6, 78, 0
6, 30960, Note_on_c, 6, 80, 110
6, 31006, Note_on_c, 6, 80, 0
6, 31008, Note_on_c, 6, 81, 110
6, 31040, Note_on_c, 6, 81, 0
6, 31056, Note_on_c, 6, 78, 110
6, 31088, Note_on_c, 6, 78, 0
6, 31104, Note_on_c, 6, 80, 110
6, 31152, Note_on_c, 6, 80, 0
6, 31152, Note_on_c, 6, 76, 110
6, 31198, Note_on_c, 6, 76, 0
6, 31200, Note_on_c, 6, 75, 110
6, 31232, Note_on_c, 6, 75, 0
6, 31248, Note_on_c, 6, 78, 110
6, 31280, Note_on_c, 6, 78, 0
6, 31296, Note_on_c, 6, 76, 110
6, 31344, Note_on_c, 6, 76, 0
6, 31344, Note_on_c, 6, 80, 110
6, 31390, Note_on_c, 6, 80, 0
6, 31392, Note_on_c, 6, 78, 110
6, 31424, Note_on_c, 6, 78, 0
6, 31440, Note_on_c, 6, 81, 110
6, 31472, Note_on_c, 6, 81, 0
6, 31488, Note_on_c, 6, 80, 110
6, 31536, Note_on_c, 6, 80, 0
6, 31536, Note_on_c, 6, 78, 110
6, 31582, Note_on_c, 6, 78, 0
6, 31584, Note_on_c, 6, 76, 110
6, 31616, Note_on_c, 6, 76, 0
6, 31632, Note_on_c, 6, 78, 110
6, 31664, Note_on_c, 6, 78, 0
6, 31680, Note_on_c, 6, 80, 110
6, 31728, Note_on_c, 6, 80, 0
6, 31728, Note_on_c, 6, 81, 110
6, 31774, Note_on_c, 6, 81, 0
6, 31776, Note_on_c, 6, 83, 110
6, 31808, Note_on_c, 6, 83, 0
6, 31824, Note_on_c, 6, 80, 110
6, 31856, Note_on_c, 6, 80, 0
6, 31872, Note_on_c, 6, 81, 110
6, 31920, Note_on_c, 6, 81, 0
6, 31920, Note_on_c, 6, 78, 110
6, 31966, Note_on_c, 6, 78, 0
6, 31968, Note_on_c, 6, 77, 110
6, 32000, Note_on_c, 6, 77, 0
6, 32016, Note_on_c, 6, 80, 110
6, 32048, Note_on_c, 6, 80, 0
6, 32064, Note_on_c, 6, 78, 110
6, 32112, Note_on_c, 6, 78, 0
6, 32112, Note_on_c, 6, 81, 110
6, 32158, Note_on_c, 6, 81, 0
6, 32160, Note_on_c, 6, 80, 110
6, 32192, Note_on_c, 6, 80, 0
6, 32208, Note_on_c, 6, 83, 110
6, 32240, Note_on_c, 6, 83, 0
6, 32256, Note_on_c, 6, 81, 110
6, 32304, Note_on_c, 6, 81, 0
6, 32304, Note_on_c, 6, 80, 110
6, 32350, Note_on_c, 6, 80, 0
6, 32352, Note_on_c, 6, 78, 110
6, 32384, Note_on_c, 6, 78, 0
6, 32400, Note_on_c, 6, 80, 110
6, 32432, Note_on_c, 6, 80, 0
6, 32448, Note_on_c, 6, 81, 110
6, 32496, Note_on_c, 6, 81, 0
6, 32496, Note_on_c, 6, 83, 110
6, 32542, Note_on_c, 6, 83, 0
6, 32544, Note_on_c, 6, 85, 110
6, 32576, Note_on_c, 6, 85, 0
6, 32592, Note_on_c, 6, 81, 110
6, 32624, Note_on_c, 6, 81, 0
6, 32640, Note_on_c, 6, 83, 110
6, 32688, Note_on_c, 6, 83, 0
6, 32688, Note_on_c, 6, 85, 110
6, 32734, Note_on_c, 6, 85, 0
6, 32736, Note_on_c, 6, 86, 110
6, 32768, Note_on_c, 6, 86, 0
6, 32784, Note_on_c, 6, 85, 110
6, 32816, Note_on_c, 6, 85, 0
6, 32832, Note_on_c, 6, 83, 110
6, 32880, Note_on_c, 6, 83, 0
6, 32880, Note_on_c, 6, 81, 110
6, 32926, Note_on_c, 6, 81, 0
6, 32928, Note_on_c, 6, 80, 110
6, 32960, Note_on_c, 6, 80, 0
6, 32976, Note_on_c, 6, 78, 110
6, 33008, Note_on_c, 6, 78, 0
6, 33024, Note_on_c, 6, 76, 110
6, 33072, Note_on_c, 6, 76, 0
6, 33072, Note_on_c, 6, 78, 110
6, 33118, Note_on_c, 6, 78, 0
6, 33120, Note_on_c, 6, 76, 110
6, 33152, Note_on_c, 6, 76, 0
6, 33168, Note_on_c, 6, 78, 110
6, 33200, Note_on_c, 6, 78, 0
6, 33216, Note_on_c, 6, 76, 110
6, 33264, Note_on_c, 6, 76, 0
6, 33264, Note_on_c, 6, 74, 110
6, 33310, Note_on_c, 6, 74, 0
6, 33312, Note_on_c, 6, 73, 110
6, 33344, Note_on_c, 6, 73, 0
6, 33360, Note_on_c, 6, 71, 110
6, 33392, Note_on_c, 6, 71, 0
6, 33408, Note_on_c, 6, 73, 110
6, 33456, Note_on_c, 6, 73, 0
6, 33456, Note_on_c, 6, 76, 110
6, 33502, Note_on_c, 6, 76, 0
6, 33504, Note_on_c, 6, 74, 110
6, 33536, Note_on_c, 6, 74, 0
6, 33552, Note_on_c, 6, 73, 110
6, 33584, Note_on_c, 6, 73, 0
6, 33600, Note_on_c, 6, 74, 110
6, 33648, Note_on_c, 6, 74, 0
6, 33648, Note_on_c, 6, 76, 110
6, 33694, Note_on_c, 6, 76, 0
6, 33696, Note_on_c, 6, 78, 110
6, 33728, Note_on_c, 6, 78, 0
6, 33744, Note_on_c, 6, 80, 110
6, 33776, Note_on_c, 6, 80, 0
6, 33792, Note_on_c, 6, 81, 110
6, 33840, Note_on_c, 6, 81, 0
6, 33840, Note_on_c, 6, 83, 110
6, 33886, Note_on_c, 6, 83, 0
6, 33888, Note_on_c, 6, 85, 110
6, 33920, Note_on_c, 6, 85, 0
6, 33936, Note_on_c, 6, 86, 110
6, 33968, Note_on_c, 6, 86, 0
6, 33984, Note_on_c, 6, 88, 110
6, 34078, Note_on_c, 6, 88, 0
6, 34080, Note_on_c, 6, 73, 110
6, 34174, Note_on_c, 6, 73, 0
6, 34176, Note_on_c, 6, 74, 110
6, 34200, Note_on_c, 6, 74, 0
6, 34200, Note_on_c, 6, 73, 110
6, 34224, Note_on_c, 6, 73, 0
6, 34224, Note_on_c, 6, 74, 110
6, 34248, Note_on_c, 6, 74, 0
6, 34248, Note_on_c, 6, 73, 110
6, 34272, Note_on_c, 6, 73, 0
6, 34272, Note_on_c, 6, 74, 110
6, 34296, Note_on_c, 6, 74, 0
6, 34296, Note_on_c, 6, 73, 110
6, 34320, Note_on_c, 6, 73, 0
6, 34320, Note_on_c, 6, 71, 110
6, 34344, Note_on_c, 6, 71, 0
6, 34344, Note_on_c, 6, 73, 110
6, 34366, Note_on_c, 6, 73, 0
6, 34368, Note_on_c, 6, 71, 110
6, 34528, Note_on_c, 6, 71, 0
6, 34848, Note_on_c, 6, 76, 110
6, 34942, Note_on_c, 6, 76, 0
6, 34944, Note_on_c, 6, 80, 110
6, 34992, Note_on_c, 6, 80, 0
6, 34992, Note_on_c, 6, 83, 110
6, 35038, Note_on_c, 6, 83, 0
6, 35040, Note_on_c, 6, 86, 110
6, 35072, Note_on_c, 6, 86, 0
6, 35088, Note_on_c, 6, 83, 110
6, 35120, Note_on_c, 6, 83, 0
6, 35136, Note_on_c, 6, 80, 110
6, 35184, Note_on_c, 6, 80, 0
6, 35184, Note_on_c, 6, 76, 110
6, 35230, Note_on_c, 6, 76, 0
6, 35232, Note_on_c, 6, 74, 110
6, 35264, Note_on_c, 6, 74, 0
6, 35280, Note_on_c, 6, 71, 110
6, 35312, Note_on_c, 6, 71, 0
6, 35328, Note_on_c, 6, 80, 110
6, 35376, Note_on_c, 6, 80, 0
6, 35376, Note_on_c, 6, 83, 110
6, 35422, Note_on_c, 6, 83, 0
6, 35424, Note_on_c, 6, 86, 110
6, 35456, Note_on_c, 6, 86, 0
6, 35472, Note_on_c, 6, 83, 110
6, 35504, Note_on_c, 6, 83, 0
6, 35520, Note_on_c, 6, 80, 110
6, 35568, Note_on_c, 6, 80, 0
6, 35568, Note_on_c, 6, 76, 110
6, 35614, Note_on_c, 6, 76, 0
6, 35616, Note_on_c, 6, 74, 110
6, 35648, Note_on_c, 6, 74, 0
6, 35664, Note_on_c, 6, 71, 110
6, 35696, Note_on_c, 6, 71, 0
6, 35712, Note_on_c, 6, 81, 110
6, 35760, Note_on_c, 6, 81, 0
6, 35760, Note_on_c, 6, 85, 110
6, 35806, Note_on_c, 6, 85, 0
6, 35808, Note_on_c, 6, 88, 110
6, 35840, Note_on_c, 6, 88, 0
6, 35856, Note_on_c, 6, 85, 110
6, 35888, Note_on_c, 6, 85, 0
6, 35904, Note_on_c, 6, 81, 110
6, 35952, Note_on_c, 6, 81, 0
6, 35952, Note_on_c, 6, 76, 110
6, 35998, Note_on_c, 6, 76, 0
6, 36000, Note_on_c, 6, 73, 110
6, 36032, Note_on_c, 6, 73, 0
6, 36048, Note_on_c, 6, 69, 110
6, 36080, Note_on_c, 6, 69, 0
6, 36096, Note_on_c, 6, 81, 110
6, 36144, Note_on_c, 6, 81, 0
6, 36144, Note_on_c, 6, 85, 110
6, 36190, Note_on_c, 6, 85, 0
6, 36192, Note_on_c, 6, 88, 110
6, 36224, Note_on_c, 6, 88, 0
6, 36240, Note_on_c, 6, 85, 110
6, 36272, Note_on_c, 6, 85, 0
6, 36288, Note_on_c, 6, 81, 110
6, 36336, Note_on_c, 6, 81, 0
6, 36336, Note_on_c, 6, 76, 110
6, 36382, Note_on_c, 6, 76, 0
6, 36384, Note_on_c, 6, 73, 110
6, 36416, Note_on_c, 6, 73, 0
6, 36432, Note_on_c, 6, 69, 110
6, 36464, Note_on_c, 6, 69, 0
6, 36480, Note_on_c, 6, 80, 110
6, 36528, Note_on_c, 6, 80, 0
6, 36528, Note_on_c, 6, 83, 110
6, 36574, Note_on_c, 6, 83, 0
6, 36576, Note_on_c, 6, 86, 110
6, 36608, Note_on_c, 6, 86, 0
6, 36624, Note_on_c, 6, 83, 110
6, 36656, Note_on_c, 6, 83, 0
6, 36672, Note_on_c, 6, 80, 110
6, 36720, Note_on_c, 6, 80, 0
6, 36720, Note_on_c, 6, 76, 110
6, 36766, Note_on_c, 6, 76, 0
6, 36768, Note_on_c, 6, 74, 110
6, 36800, Note_on_c, 6, 74, 0
6, 36816, Note_on_c, 6, 71, 110
6, 36848, Note_on_c, 6, 71, 0
6, 36864, Note_on_c, 6, 80, 110
6, 36912, Note_on_c, 6, 80, 0
6, 36912, Note_on_c, 6, 83, 110
6, 36958, Note_on_c, 6, 83, 0
6, 36960, Note_on_c, 6, 86, 110
6, 36992, Note_on_c, 6, 86, 0
6, 37008, Note_on_c, 6, 83, 110
6, 37040, Note_on_c, 6, 83, 0
6, 37056, Note_on_c, 6, 80, 110
6, 37104, Note_on_c, 6, 80, 0
6, 37104, Note_on_c, 6, 76, 110
6, 37150, Note_on_c, 6, 76, 0
6, 37152, Note_on_c, 6, 74, 110
6, 37184, Note_on_c, 6, 74, 0
6, 37200, Note_on_c, 6, 71, 110
6, 37232, Note_on_c, 6, 71, 0
6, 37248, Note_on_c, 6, 81, 110
6, 37296, Note_on_c, 6, 81, 0
6, 37296, Note_on_c, 6, 85, 110
6, 37342, Note_on_c, 6, 85, 0
6, 37344, Note_on_c, 6, 88, 110
6, 37376, Note_on_c, 6, 88, 0
6, 37392, Note_on_c, 6, 85, 110
6, 37424, Note_on_c, 6, 85, 0
6, 37440, Note_on_c, 6, 81, 110
6, 37488, Note_on_c, 6, 81, 0
6, 37488, Note_on_c, 6, 76, 110
6, 37534, Note_on_c, 6, 76, 0
6, 37536, Note_on_c, 6, 73, 110
6, 37568, Note_on_c, 6, 73, 0
6, 37584, Note_on_c, 6, 69, 110
6, 37616, Note_on_c, 6, 69, 0
6, 37632, Note_on_c, 6, 81, 110
6, 37680, Note_on_c, 6, 81, 0
6, 37680, Note_on_c, 6, 85, 110
6, 37726, Note_on_c, 6, 85, 0
6, 37728, Note_on_c, 6, 88, 110
6, 37760, Note_on_c, 6, 88, 0
6, 37776, Note_on_c, 6, 85, 110
6, 37808, Note_on_c, 6, 85, 0
6, 37824, Note_on_c, 6, 81, 110
6, 37872, Note_on_c, 6, 81, 0
6, 37872, Note_on_c, 6, 76, 110
6, 37918, Note_on_c, 6, 76, 0
6, 37920, Note_on_c, 6, 73, 110
6, 37952, Note_on_c, 6, 73, 0
6, 37968, Note_on_c, 6, 69, 110
6, 38000, Note_on_c, 6, 69, 0
6, 38016, Note_on_c, 6, 78, 110
6, 38176, Note_on_c, 6, 78, 0
6, 38256, Note_on_c, 6, 81, 110
6, 38288, Note_on_c, 6, 81, 0
6, 38304, Note_on_c, 6, 83, 110
6, 38336, Note_on_c, 6, 83, 0
6, 38352, Note_on_c, 6, 85, 110
6, 38384, Note_on_c, 6, 85, 0
6, 38400, Note_on_c, 6, 86, 110
6, 38448, Note_on_c, 6, 86, 0
6, 38448, Note_on_c, 6, 85, 110
6, 38494, Note_on_c, 6, 85, 0
6, 38496, Note_on_c, 6, 83, 110
6, 38528, Note_on_c, 6, 83, 0
6, 38544, Note_on_c, 6, 81, 110
6, 38576, Note_on_c, 6, 81, 0
6, 38592, Note_on_c, 6, 80, 110
6, 38640, Note_on_c, 6, 80, 0
6, 38640, Note_on_c, 6, 78, 110
6, 38686, Note_on_c, 6, 78, 0
6, 38688, Note_on_c, 6, 76, 110
6, 38720, Note_on_c, 6, 76, 0
6, 38736, Note_on_c, 6, 74, 110
6, 38768, Note_on_c, 6, 74, 0
6, 38784, Note_on_c, 6, 75, 110
6, 38880, Note_on_c, 6, 75, 0
6, 38880, Note_on_c, 6, 76, 110
6, 38974, Note_on_c, 6, 76, 0
6, 39024, Note_on_c, 6, 80, 110
6, 39056, Note_on_c, 6, 80, 0
6, 39072, Note_on_c, 6, 81, 110
6, 39104, Note_on_c, 6, 81, 0
6, 39120, Note_on_c, 6, 83, 110
6, 39152, Note_on_c, 6, 83, 0
6, 39168, Note_on_c, 6, 85, 110
6, 39216, Note_on_c, 6, 85, 0
6, 39216, Note_on_c, 6, 83, 110
6, 39262, Note_on_c, 6, 83, 0
6, 39264, Note_on_c, 6, 81, 110
6, 39296, Note_on_c, 6, 81, 0
6, 39312, Note_on_c, 6, 80, 110
6, 39344, Note_on_c, 6, 80, 0
6, 39360, Note_on_c, 6, 78, 110
6, 39408, Note_on_c, 6, 78, 0
6, 39408, Note_on_c, 6, 76, 110
6, 39454, Note_on_c, 6, 76, 0
6, 39456, Note_on_c, 6, 74, 110
6, 39488, Note_on_c, 6, 74, 0
6, 39504, Note_on_c, 6, 73, 110
6, 39536, Note_on_c, 6, 73, 0
6, 39552, Note_on_c, 6, 76, 110
6, 39648, Note_on_c, 6, 76, 0
6, 39648, Note_on_c, 6, 74, 110
6, 39742, Note_on_c, 6, 74, 0
6, 39792, Note_on_c, 6, 78, 110
6, 39824, Note_on_c, 6, 78, 0
6, 39840, Note_on_c, 6, 80, 110
6, 39872, Note_on_c, 6, 80, 0
6, 39888, Note_on_c, 6, 81, 110
6, 39920, Note_on_c, 6, 81, 0
6, 39936, Note_on_c, 6, 80, 110
6, 39984, Note_on_c, 6, 80, 0
6, 39984, Note_on_c, 6, 81, 110
6, 40030, Note_on_c, 6, 81, 0
6, 40032, Note_on_c, 6, 83, 110
6, 40064, Note_on_c, 6, 83, 0
6, 40080, Note_on_c, 6, 81, 110
6, 40112, Note_on_c, 6, 81, 0
6, 40128, Note_on_c, 6, 80, 110
6, 40176, Note_on_c, 6, 80, 0
6, 40176, Note_on_c, 6, 78, 110
6, 40222, Note_on_c, 6, 78, 0
6, 40224, Note_on_c, 6, 76, 110
6, 40256, Note_on_c, 6, 76, 0
6, 40272, Note_on_c, 6, 74, 110
6, 40304, Note_on_c, 6, 74, 0
6, 40320, Note_on_c, 6, 73, 110
6, 40368, Note_on_c, 6, 73, 0
6, 40368, Note_on_c, 6, 69, 110
6, 40414, Note_on_c, 6, 69, 0
6, 40416, Note_on_c, 6, 74, 110
6, 40464, Note_on_c, 6, 74, 0
6, 40464, Note_on_c, 6, 71, 110
6, 40510, Note_on_c, 6, 71, 0
6, 40512, Note_on_c, 6, 76, 110
6, 40560, Note_on_c, 6, 76, 0
6, 40560, Note_on_c, 6, 73, 110
6, 40606, Note_on_c, 6, 73, 0
6, 40608, Note_on_c, 6, 78, 110
6, 40656, Note_on_c, 6, 78, 0
6, 40656, Note_on_c, 6, 74, 110
6, 40702, Note_on_c, 6, 74, 0
6, 40704, Note_on_c, 6, 80, 110
6, 40752, Note_on_c, 6, 80, 0
6, 40752, Note_on_c, 6, 76, 110
6, 40798, Note_on_c, 6, 76, 0
6, 40800, Note_on_c, 6, 81, 110
6, 40848, Note_on_c, 6, 81, 0
6, 40848, Note_on_c, 6, 78, 110
6, 40894, Note_on_c, 6, 78, 0
6, 40896, Note_on_c, 6, 83, 110
6, 40944, Note_on_c, 6, 83, 0
6, 40944, Note_on_c, 6, 80, 110
6, 40990, Note_on_c, 6, 80, 0
6, 40992, Note_on_c, 6, 85, 110
6, 41040, Note_on_c, 6, 85, 0
6, 41040, Note_on_c, 6, 81, 110
6, 41086, Note_on_c, 6, 81, 0
6, 41088, Note_on_c, 6, 86, 110
6, 41232, Note_on_c, 6, 86, 0
6, 41232, Note_on_c, 6, 85, 110
6, 41278, Note_on_c, 6, 85, 0
6, 41280, Note_on_c, 6, 86, 110
6, 41328, Note_on_c, 6, 86, 0
6, 41328, Note_on_c, 6, 85, 110
6, 41374, Note_on_c, 6, 85, 0
6, 41376, Note_on_c, 6, 86, 110
6, 41424, Note_on_c, 6, 86, 0
6, 41424, Note_on_c, 6, 85, 110
6, 41470, Note_on_c, 6, 85, 0
6, 41472, Note_on_c, 6, 86, 110
6, 41728, Note_on_c, 6, 86, 0
6, 41760, Note_on_c, 6, 83, 110
6, 41854, Note_on_c, 6, 83, 0
6, 41856, Note_on_c, 6, 85, 110
6, 42000, Note_on_c, 6, 85, 0
6, 42000, Note_on_c, 6, 81, 110
6, 42046, Note_on_c, 6, 81, 0
6, 42048, Note_on_c, 6, 78, 110
6, 42192, Note_on_c, 6, 78, 0
6, 42192, Note_on_c, 6, 83, 110
6, 42238, Note_on_c, 6, 83, 0
6, 42240, Note_on_c, 6, 81, 110
6, 42432, Note_on_c, 6, 81, 0
6, 42432, Note_on_c, 6, 80, 110
6, 42592, Note_on_c, 6, 80, 0
6, 42624, Note_on_c, 6, 86, 110
6, 42768, Note_on_c, 6, 86, 0
6, 42768, Note_on_c, 6, 85, 110
6, 42814, Note_on_c, 6, 85, 0
6, 42816, Note_on_c, 6, 86, 110
6, 42864, Note_on_c, 6, 86, 0
6, 42864, Note_on_c, 6, 85, 110
6, 42910, Note_on_c, 6, 85, 0
6, 42912, Note_on_c, 6, 86, 110
6, 42960, Note_on_c, 6, 86, 0
6, 42960, Note_on_c, 6, 85, 110
6, 43006, Note_on_c, 6, 85, 0
6, 43008, Note_on_c, 6, 86, 110
6, 43264, Note_on_c, 6, 86, 0
6, 43296, Note_on_c, 6, 83, 110
6, 43390, Note_on_c, 6, 83, 0
6, 43392, Note_on_c, 6, 85, 110
6, 43440, Note_on_c, 6, 85, 0
6, 43440, Note_on_c, 6, 83, 110
6, 43486, Note_on_c, 6, 83, 0
6, 43488, Note_on_c, 6, 85, 110
6, 43520, Note_on_c, 6, 85, 0
6, 43536, Note_on_c, 6, 81, 110
6, 43568, Note_on_c, 6, 81, 0
6, 43584, Note_on_c, 6, 80, 110
6, 43632, Note_on_c, 6, 80, 0
6, 43632, Note_on_c, 6, 78, 110
6, 43678, Note_on_c, 6, 78, 0
6, 43680, Note_on_c, 6, 86, 110
6, 43712, Note_on_c, 6, 86, 0
6, 43728, Note_on_c, 6, 83, 110
6, 43760, Note_on_c, 6, 83, 0
6, 43776, Note_on_c, 6, 81, 110
6, 43936, Note_on_c, 6, 81, 0
6, 43968, Note_on_c, 6, 81, 110
6, 43992, Note_on_c, 6, 81, 0
6, 43992, Note_on_c, 6, 80, 110
6, 44016, Note_on_c, 6, 80, 0
6, 44016, Note_on_c, 6, 81, 110
6, 44040, Note_on_c, 6, 81, 0
6, 44040, Note_on_c, 6, 80, 110
6, 44064, Note_on_c, 6, 80, 0
6, 44064, Note_on_c, 6, 81, 110
6, 44088, Note_on_c, 6, 81, 0
6, 44088, Note_on_c, 6, 80, 110
6, 44112, Note_on_c, 6, 80, 0
6, 44112, Note_on_c, 6, 78, 110
6, 44136, Note_on_c, 6, 78, 0
6, 44136, Note_on_c, 6, 80, 110
6, 44160, Note_on_c, 6, 80, 0
6, 44160, Note_on_c, 6, 81, 110
6, 44320, Note_on_c, 6, 81, 0
6, 44352, Note_on_c, 6, 81, 110
6, 44384, Note_on_c, 6, 81, 0
6, 44448, Note_on_c, 6, 81, 110
6, 44480, Note_on_c, 6, 81, 0
6, 44544, Note_on_c, 6, 71, 110
6, 44704, Note_on_c, 6, 71, 0
6, 44736, Note_on_c, 6, 74, 110
6, 44784, Note_on_c, 6, 74, 0
6, 44784, Note_on_c, 6, 76, 110
6, 44830, Note_on_c, 6, 76, 0
6, 44832, Note_on_c, 6, 74, 110
6, 44880, Note_on_c, 6, 74, 0
6, 44880, Note_on_c, 6, 76, 110
6, 44926, Note_on_c, 6, 76, 0
6, 44928, Note_on_c, 6, 73, 110
6, 45088, Note_on_c, 6, 73, 0
6, 45120, Note_on_c, 6, 81, 110
6, 45152, Note_on_c, 6, 81, 0
6, 45216, Note_on_c, 6, 81, 110
6, 45248, Note_on_c, 6, 81, 0
6, 45312, Note_on_c, 6, 71, 110
6, 45472, Note_on_c, 6, 71, 0
6, 45504, Note_on_c, 6, 74, 110
6, 45552, Note_on_c, 6, 74, 0
6, 45552, Note_on_c, 6, 73, 110
6, 45598, Note_on_c, 6, 73, 0
6, 45600, Note_on_c, 6, 74, 110
6, 45632, Note_on_c, 6, 74, 0
6, 45648, Note_on_c, 6, 71, 110
6, 45680, Note_on_c, 6, 71, 0
6, 45696, Note_on_c, 6, 69, 110
6, 45856, Note_on_c, 6, 69, 0
6, 47232, Note_on_c, 6, 69, 110
6, 47518, Note_on_c, 6, 69, 0
6, 47520, Note_on_c, 6, 61, 110
6, 47530, Note_on_c, 6, 61, 0
6, 47532, Note_on_c, 6, 64, 110
6, 47542, Note_on_c, 6, 64, 0
6, 47544, Note_on_c, 6, 67, 110
6, 47554, Note_on_c, 6, 67, 0
6, 47556, Note_on_c, 6, 73, 110
6, 47566, Note_on_c, 6, 73, 0
6, 47568, Note_on_c, 6, 76, 110
6, 47578, Note_on_c, 6, 76, 0
6, 47580, Note_on_c, 6, 79, 110
6, 47590, Note_on_c, 6, 79, 0
6, 47592, Note_on_c, 6, 85, 110
6, 47602, Note_on_c, 6, 85, 0
6, 47604, Note_on_c, 6, 88, 110
6, 47614, Note_on_c, 6, 88, 0
6, 47616, Note_on_c, 6, 91, 110
6, 47662, Note_on_c, 6, 91, 0
6, 47664, Note_on_c, 6, 90, 110
6, 47710, Note_on_c, 6, 90, 0
6, 47712, Note_on_c, 6, 88, 110
6, 47758, Note_on_c, 6, 88, 0
6, 47760, Note_on_c, 6, 86, 110
6, 47806, Note_on_c, 6, 86, 0
6, 47808, Note_on_c, 6, 85, 110
6, 47854, Note_on_c, 6, 85, 0
6, 47856, Note_on_c, 6, 83, 110
6, 47902, Note_on_c, 6, 83, 0
6, 47904, Note_on_c, 6, 81, 110
6, 47950, Note_on_c, 6, 81, 0
6, 47952, Note_on_c, 6, 79, 110
6, 47998, Note_on_c, 6, 79, 0
6, 48000, Note_on_c, 6, 78, 110
6, 48046, Note_on_c, 6, 78, 0
6, 48048, Note_on_c, 6, 76, 110
6, 48094, Note_on_c, 6, 76, 0
6, 48096, Note_on_c, 6, 74, 110
6, 48142, Note_on_c, 6, 74, 0
6, 48144, Note_on_c, 6, 73, 110
6, 48190, Note_on_c, 6, 73, 0
6, 48192, Note_on_c, 6, 71, 110
6, 48238, Note_on_c, 6, 71, 0
6, 48240, Note_on_c, 6, 69, 110
6, 48286, Note_on_c, 6, 69, 0
6, 48288, Note_on_c, 6, 67, 110
6, 48334, Note_on_c, 6, 67, 0
6, 48336, Note_on_c, 6, 66, 110
6, 48382, Note_on_c, 6, 66, 0
6, 48384, Note_on_c, 6, 64, 110
6, 48430, Note_on_c, 6, 64, 0
6, 48432, Note_on_c, 6, 62, 110
6, 48478, Note_on_c, 6, 62, 0
6, 48480, Note_on_c, 6, 61, 110
6, 48574, Note_on_c, 6, 61, 0
6, 48576, Note_on_c, 6, 62, 110
6, 48622, Note_on_c, 6, 62, 0
6, 48624, Note_on_c, 6, 63, 110
6, 48670, Note_on_c, 6, 63, 0
6, 48672, Note_on_c, 6, 64, 110
6, 48718, Note_on_c, 6, 64, 0
6, 48720, Note_on_c, 6, 65, 110
6, 48766, Note_on_c, 6, 65, 0
6, 48768, Note_on_c, 6, 66, 110
6, 48814, Note_on_c, 6, 66, 0
6, 48816, Note_on_c, 6, 67, 110
6, 48862, Note_on_c, 6, 67, 0
6, 48864, Note_on_c, 6, 68, 110
6, 48910, Note_on_c, 6, 68, 0
6, 48912, Note_on_c, 6, 69, 110
6, 48958, Note_on_c, 6, 69, 0
6, 48960, Note_on_c, 6, 70, 110
6, 49006, Note_on_c, 6, 70, 0
6, 49008, Note_on_c, 6, 71, 110
6, 49054, Note_on_c, 6, 71, 0
6, 49056, Note_on_c, 6, 72, 110
6, 49102, Note_on_c, 6, 72, 0
6, 49104, Note_on_c, 6, 73, 110
6, 49150, Note_on_c, 6, 73, 0
6, 49152, Note_on_c, 6, 74, 110
6, 49198, Note_on_c, 6, 74, 0
6, 49200, Note_on_c, 6, 75, 110
6, 49246, Note_on_c, 6, 75, 0
6, 49248, Note_on_c, 6, 76, 110
6, 49294, Note_on_c, 6, 76, 0
6, 49296, Note_on_c, 6, 77, 110
6, 49342, Note_on_c, 6, 77, 0
6, 49344, Note_on_c, 6, 78, 110
6, 49390, Note_on_c, 6, 78, 0
6, 49392, Note_on_c, 6, 79, 110
6, 49438, Note_on_c, 6, 79, 0
6, 49440, Note_on_c, 6, 80, 110
6, 49486, Note_on_c, 6, 80, 0
6, 49488, Note_on_c, 6, 81, 110
6, 49534, Note_on_c, 6, 81, 0
6, 49536, Note_on_c, 6, 81, 110
6, 49582, Note_on_c, 6, 81, 0
6, 49584, Note_on_c, 6, 78, 110
6, 49630, Note_on_c, 6, 78, 0
6, 49632, Note_on_c, 6, 79, 110
6, 49678, Note_on_c, 6, 79, 0
6, 49680, Note_on_c, 6, 76, 110
6, 49726, Note_on_c, 6, 76, 0
6, 49728, Note_on_c, 6, 74, 110
6, 49822, Note_on_c, 6, 74, 0
6, 49920, Note_on_c, 6, 78, 110
6, 49944, Note_on_c, 6, 78, 0
6, 49944, Note_on_c, 6, 76, 110
6, 49968, Note_on_c, 6, 76, 0
6, 49968, Note_on_c, 6, 78, 110
6, 49992, Note_on_c, 6, 78, 0
6, 49992, Note_on_c, 6, 76, 110
6, 50016, Note_on_c, 6, 76, 0
6, 50016, Note_on_c, 6, 78, 110
6, 50040, Note_on_c, 6, 78, 0
6, 50040, Note_on_c, 6, 76, 110
6, 50064, Note_on_c, 6, 76, 0
6, 50064, Note_on_c, 6, 74, 110
6, 50088, Note_on_c, 6, 74, 0
6, 50088, Note_on_c, 6, 76, 110
6, 50110, Note_on_c, 6, 76, 0
6, 50112, Note_on_c, 6, 78, 110
6, 50206, Note_on_c, 6, 78, 0
6, 50304, Note_on_c, 6, 78, 110
6, 50336, Note_on_c, 6, 78, 0
6, 50400, Note_on_c, 6, 79, 110
6, 50432, Note_on_c, 6, 79, 0
6, 50496, Note_on_c, 6, 81, 110
6, 50528, Note_on_c, 6, 81, 0
6, 50592, Note_on_c, 6, 83, 110
6, 50624, Note_on_c, 6, 83, 0
6, 50688, Note_on_c, 6, 85, 110
6, 50720, Note_on_c, 6, 85, 0
6, 50784, Note_on_c, 6, 86, 110
6, 50816, Note_on_c, 6, 86, 0
6, 50880, Note_on_c, 6, 81, 110
6, 51040, Note_on_c, 6, 81, 0
6, 51072, Note_on_c, 6, 83, 110
6, 51120, Note_on_c, 6, 83, 0
6, 51120, Note_on_c, 6, 81, 110
6, 51166, Note_on_c, 6, 81, 0
6, 51168, Note_on_c, 6, 79, 110
6, 51214, Note_on_c, 6, 79, 0
6, 51216, Note_on_c, 6, 78, 110
6, 51262, Note_on_c, 6, 78, 0
6, 51264, Note_on_c, 6, 78, 110
6, 51286, Note_on_c, 6, 78, 0
6, 51288, Note_on_c, 6, 76, 110
6, 51310, Note_on_c, 6, 76, 0
6, 51312, Note_on_c, 6, 75, 110
6, 51358, Note_on_c, 6, 75, 0
6, 51360, Note_on_c, 6, 76, 110
6, 51392, Note_on_c, 6, 76, 0
6, 51408, Note_on_c, 6, 78, 110
6, 51440, Note_on_c, 6, 78, 0
6, 51456, Note_on_c, 6, 79, 110
6, 51504, Note_on_c, 6, 79, 0
6, 51504, Note_on_c, 6, 76, 110
6, 51550, Note_on_c, 6, 76, 0
6, 51552, Note_on_c, 6, 78, 110
6, 51584, Note_on_c, 6, 78, 0
6, 51600, Note_on_c, 6, 74, 110
6, 51632, Note_on_c, 6, 74, 0
6, 51648, Note_on_c, 6, 76, 110
6, 51696, Note_on_c, 6, 76, 0
6, 51696, Note_on_c, 6, 73, 110
6, 51742, Note_on_c, 6, 73, 0
6, 51744, Note_on_c, 6, 73, 110
6, 51766, Note_on_c, 6, 73, 0
6, 51768, Note_on_c, 6, 71, 110
6, 51790, Note_on_c, 6, 71, 0
6, 51792, Note_on_c, 6, 69, 110
6, 51838, Note_on_c, 6, 69, 0
6, 51840, Note_on_c, 6, 81, 110
6, 51888, Note_on_c, 6, 81, 0
6, 51888, Note_on_c, 6, 78, 110
6, 51934, Note_on_c, 6, 78, 0
6, 51936, Note_on_c, 6, 79, 110
6, 51968, Note_on_c, 6, 79, 0
6, 51984, Note_on_c, 6, 76, 110
6, 52016, Note_on_c, 6, 76, 0
6, 52032, Note_on_c, 6, 74, 110
6, 52126, Note_on_c, 6, 74, 0
6, 52224, Note_on_c, 6, 78, 110
6, 52248, Note_on_c, 6, 78, 0
6, 52248, Note_on_c, 6, 76, 110
6, 52272, Note_on_c, 6, 76, 0
6, 52272, Note_on_c, 6, 78, 110
6, 52296, Note_on_c, 6, 78, 0
6, 52296, Note_on_c, 6, 76, 110
6, 52320, Note_on_c, 6, 76, 0
6, 52320, Note_on_c, 6, 78, 110
6, 52344, Note_on_c, 6, 78, 0
6, 52344, Note_on_c, 6, 76, 110
6, 52368, Note_on_c, 6, 76, 0
6, 52368, Note_on_c, 6, 74, 110
6, 52392, Note_on_c, 6, 74, 0
6, 52392, Note_on_c, 6, 76, 110
6, 52414, Note_on_c, 6, 76, 0
6, 52416, Note_on_c, 6, 78, 110
6, 52510, Note_on_c, 6, 78, 0
6, 52608, Note_on_c, 6, 78, 110
6, 52640, Note_on_c, 6, 78, 0
6, 52704, Note_on_c, 6, 79, 110
6, 52736, Note_on_c, 6, 79, 0
6, 52800, Note_on_c, 6, 81, 110
6, 52832, Note_on_c, 6, 81, 0
6, 52896, Note_on_c, 6, 83, 110
6, 52928, Note_on_c, 6, 83, 0
6, 52992, Note_on_c, 6, 85, 110
6, 53024, Note_on_c, 6, 85, 0
6, 53088, Note_on_c, 6, 86, 110
6, 53120, Note_on_c, 6, 86, 0
6, 53184, Note_on_c, 6, 81, 110
6, 53344, Note_on_c, 6, 81, 0
6, 53376, Note_on_c, 6, 83, 110
6, 53424, Note_on_c, 6, 83, 0
6, 53424, Note_on_c, 6, 81, 110
6, 53470, Note_on_c, 6, 81, 0
6, 53472, Note_on_c, 6, 79, 110
6, 53518, Note_on_c, 6, 79, 0
6, 53520, Note_on_c, 6, 78, 110
6, 53566, Note_on_c, 6, 78, 0
6, 53568, Note_on_c, 6, 75, 110
6, 53616, Note_on_c, 6, 75, 0
6, 53616, Note_on_c, 6, 76, 110
6, 53662, Note_on_c, 6, 76, 0
6, 53664, Note_on_c, 6, 79, 110
6, 53696, Note_on_c, 6, 79, 0
6, 53712, Note_on_c, 6, 83, 110
6, 53744, Note_on_c, 6, 83, 0
6, 53760, Note_on_c, 6, 81, 110
6, 53808, Note_on_c, 6, 81, 0
6, 53808, Note_on_c, 6, 78, 110
6, 53854, Note_on_c, 6, 78, 0
6, 53856, Note_on_c, 6, 79, 110
6, 53888, Note_on_c, 6, 79, 0
6, 53904, Note_on_c, 6, 76, 110
6, 53936, Note_on_c, 6, 76, 0
6, 53952, Note_on_c, 6, 74, 110
6, 54112, Note_on_c, 6, 74, 0
6, 60576, Note_on_c, 6, 86, 110
6, 60608, Note_on_c, 6, 86, 0
6, 60672, Note_on_c, 6, 86, 110
6, 60704, Note_on_c, 6, 86, 0
6, 60768, Note_on_c, 6, 86, 110
6, 60800, Note_on_c, 6, 86, 0
6, 60864, Note_on_c, 6, 86, 110
6, 61008, Note_on_c, 6, 86, 0
6, 61008, Note_on_c, 6, 83, 110
6, 61054, Note_on_c, 6, 83, 0
6, 61056, Note_on_c, 6, 84, 110
6, 61200, Note_on_c, 6, 84, 0
6, 61200, Note_on_c, 6, 81, 110
6, 61246, Note_on_c, 6, 81, 0
6, 61248, Note_on_c, 6, 79, 110
6, 61408, Note_on_c, 6, 79, 0
6, 61440, Note_on_c, 6, 83, 110
6, 61464, Note_on_c, 6, 83, 0
6, 61464, Note_on_c, 6, 81, 110
6, 61488, Note_on_c, 6, 81, 0
6, 61488, Note_on_c, 6, 83, 110
6, 61512, Note_on_c, 6, 83, 0
6, 61512, Note_on_c, 6, 81, 110
6, 61536, Note_on_c, 6, 81, 0
6, 61536, Note_on_c, 6, 83, 110
6, 61560, Note_on_c, 6, 83, 0
6, 61560, Note_on_c, 6, 81, 110
6, 61584, Note_on_c, 6, 81, 0
6, 61584, Note_on_c, 6, 79, 110
6, 61608, Note_on_c, 6, 79, 0
6, 61608, Note_on_c, 6, 81, 110
6, 61630, Note_on_c, 6, 81, 0
6, 61632, Note_on_c, 6, 83, 110
6, 61680, Note_on_c, 6, 83, 0
6, 61680, Note_on_c, 6, 79, 110
6, 61726, Note_on_c, 6, 79, 0
6, 61728, Note_on_c, 6, 83, 110
6, 61760, Note_on_c, 6, 83, 0
6, 61776, Note_on_c, 6, 79, 110
6, 61808, Note_on_c, 6, 79, 0
6, 61824, Note_on_c, 6, 86, 110
6, 61984, Note_on_c, 6, 86, 0
6, 62112, Note_on_c, 6, 86, 110
6, 62144, Note_on_c, 6, 86, 0
6, 62208, Note_on_c, 6, 86, 110
6, 62240, Note_on_c, 6, 86, 0
6, 62304, Note_on_c, 6, 86, 110
6, 62336, Note_on_c, 6, 86, 0
6, 62400, Note_on_c, 6, 86, 110
6, 62544, Note_on_c, 6, 86, 0
6, 62544, Note_on_c, 6, 83, 110
6, 62590, Note_on_c, 6, 83, 0
6, 62592, Note_on_c, 6, 84, 110
6, 62736, Note_on_c, 6, 84, 0
6, 62736, Note_on_c, 6, 81, 110
6, 62782, Note_on_c, 6, 81, 0
6, 62784, Note_on_c, 6, 79, 110
6, 62976, Note_on_c, 6, 79, 0
6, 62976, Note_on_c, 6, 84, 110
6, 63136, Note_on_c, 6, 84, 0
6, 63168, Note_on_c, 6, 83, 110
6, 63360, Note_on_c, 6, 83, 0
6, 63360, Note_on_c, 6, 81, 110
6, 63520, Note_on_c, 6, 81, 0
6, 63936, Note_on_c, 6, 74, 110
6, 65182, Note_on_c, 6, 74, 0
6, 65184, Note_on_c, 6, 86, 110
6, 65216, Note_on_c, 6, 86, 0
6, 65280, Note_on_c, 6, 86, 110
6, 65312, Note_on_c, 6, 86, 0
6, 65376, Note_on_c, 6, 86, 110
6, 65408, Note_on_c, 6, 86, 0
6, 65472, Note_on_c, 6, 86, 110
6, 65520, Note_on_c, 6, 86, 0
6, 65520, Note_on_c, 6, 83, 110
6, 65568, Note_on_c, 6, 83, 0
6, 65568, Note_on_c, 6, 86, 110
6, 65616, Note_on_c, 6, 86, 0
6, 65616, Note_on_c, 6, 83, 110
6, 65662, Note_on_c, 6, 83, 0
6, 65664, Note_on_c, 6, 84, 110
6, 65712, Note_on_c, 6, 84, 0
6, 65712, Note_on_c, 6, 81, 110
6, 65760, Note_on_c, 6, 81, 0
6, 65760, Note_on_c, 6, 84, 110
6, 65808, Note_on_c, 6, 84, 0
6, 65808, Note_on_c, 6, 81, 110
6, 65854, Note_on_c, 6, 81, 0
6, 65856, Note_on_c, 6, 79, 110
6, 66016, Note_on_c, 6, 79, 0
6, 66048, Note_on_c, 6, 83, 110
6, 66072, Note_on_c, 6, 83, 0
6, 66072, Note_on_c, 6, 81, 110
6, 66096, Note_on_c, 6, 81, 0
6, 66096, Note_on_c, 6, 83, 110
6, 66120, Note_on_c, 6, 83, 0
6, 66120, Note_on_c, 6, 81, 110
6, 66144, Note_on_c, 6, 81, 0
6, 66144, Note_on_c, 6, 83, 110
6, 66168, Note_on_c, 6, 83, 0
6, 66168, Note_on_c, 6, 81, 110
6, 66192, Note_on_c, 6, 81, 0
6, 66192, Note_on_c, 6, 79, 110
6, 66216, Note_on_c, 6, 79, 0
6, 66216, Note_on_c, 6, 81, 110
6, 66238, Note_on_c, 6, 81, 0
6, 66240, Note_on_c, 6, 79, 110
6, 66334, Note_on_c, 6, 79, 0
6, 66432, Note_on_c, 6, 83, 110
6, 66784, Note_on_c, 6, 83, 0
6, 66816, Note_on_c, 6, 81, 110
6, 66864, Note_on_c, 6, 81, 0
6, 66864, Note_on_c, 6, 79, 110
6, 66910, Note_on_c, 6, 79, 0
6, 66912, Note_on_c, 6, 78, 110
6, 66944, Note_on_c, 6, 78, 0
6, 66960, Note_on_c, 6, 76, 110
6, 66992, Note_on_c, 6, 76, 0
6, 67008, Note_on_c, 6, 75, 110
6, 67056, Note_on_c, 6, 75, 0
6, 67056, Note_on_c, 6, 76, 110
6, 67102, Note_on_c, 6, 76, 0
6, 67104, Note_on_c, 6, 78, 110
6, 67136, Note_on_c, 6, 78, 0
6, 67152, Note_on_c, 6, 76, 110
6, 67184, Note_on_c, 6, 76, 0
6, 67200, Note_on_c, 6, 75, 110
6, 67248, Note_on_c, 6, 75, 0
6, 67248, Note_on_c, 6, 76, 110
6, 67294, Note_on_c, 6, 76, 0
6, 67296, Note_on_c, 6, 78, 110
6, 67328, Note_on_c, 6, 78, 0
6, 67344, Note_on_c, 6, 79, 110
6, 67376, Note_on_c, 6, 79, 0
6, 67392, Note_on_c, 6, 81, 110
6, 67440, Note_on_c, 6, 81, 0
6, 67440, Note_on_c, 6, 83, 110
6, 67486, Note_on_c, 6, 83, 0
6, 67488, Note_on_c, 6, 84, 110
6, 67520, Note_on_c, 6, 84, 0
6, 67536, Note_on_c, 6, 81, 110
6, 67568, Note_on_c, 6, 81, 0
6, 67584, Note_on_c, 6, 79, 110
6, 67632, Note_on_c, 6, 79, 0
6, 67632, Note_on_c, 6, 78, 110
6, 67678, Note_on_c, 6, 78, 0
6, 67680, Note_on_c, 6, 76, 110
6, 67712, Note_on_c, 6, 76, 0
6, 67728, Note_on_c, 6, 75, 110
6, 67760, Note_on_c, 6, 75, 0
6, 67776, Note_on_c, 6, 76, 110
6, 67824, Note_on_c, 6, 76, 0
6, 67824, Note_on_c, 6, 75, 110
6, 67870, Note_on_c, 6, 75, 0
6, 67872, Note_on_c, 6, 78, 110
6, 67920, Note_on_c, 6, 78, 0
6, 67920, Note_on_c, 6, 76, 110
6, 67966, Note_on_c, 6, 76, 0
6, 67968, Note_on_c, 6, 79, 110
6, 68016, Note_on_c, 6, 79, 0
6, 68016, Note_on_c, 6, 78, 110
6, 68062, Note_on_c, 6, 78, 0
6, 68064, Note_on_c, 6, 81, 110
6, 68112, Note_on_c, 6, 81, 0
6, 68112, Note_on_c, 6, 79, 110
6, 68158, Note_on_c, 6, 79, 0
6, 68160, Note_on_c, 6, 83, 110
6, 68208, Note_on_c, 6, 83, 0
6, 68208, Note_on_c, 6, 81, 110
6, 68254, Note_on_c, 6, 81, 0
6, 68256, Note_on_c, 6, 79, 110
6, 68288, Note_on_c, 6, 79, 0
6, 68304, Note_on_c, 6, 78, 110
6, 68336, Note_on_c, 6, 78, 0
6, 68352, Note_on_c, 6, 79, 110
6, 68400, Note_on_c, 6, 79, 0
6, 68400, Note_on_c, 6, 78, 110
6, 68446, Note_on_c, 6, 78, 0
6, 68448, Note_on_c, 6, 76, 110
6, 68480, Note_on_c, 6, 76, 0
6, 68496, Note_on_c, 6, 74, 110
6, 68528, Note_on_c, 6, 74, 0
6, 68544, Note_on_c, 6, 73, 110
6, 68592, Note_on_c, 6, 73, 0
6, 68592, Note_on_c, 6, 74, 110
6, 68638, Note_on_c, 6, 74, 0
6, 68640, Note_on_c, 6, 76, 110
6, 68672, Note_on_c, 6, 76, 0
6, 68688, Note_on_c, 6, 74, 110
6, 68720, Note_on_c, 6, 74, 0
6, 68736, Note_on_c, 6, 73, 110
6, 68784, Note_on_c, 6, 73, 0
6, 68784, Note_on_c, 6, 74, 110
6, 68830, Note_on_c, 6, 74, 0
6, 68832, Note_on_c, 6, 76, 110
6, 68864, Note_on_c, 6, 76, 0
6, 68880, Note_on_c, 6, 78, 110
6, 68912, Note_on_c, 6, 78, 0
6, 68928, Note_on_c, 6, 79, 110
6, 68976, Note_on_c, 6, 79, 0
6, 68976, Note_on_c, 6, 81, 110
6, 69022, Note_on_c, 6, 81, 0
6, 69024, Note_on_c, 6, 82, 110
6, 69072, Note_on_c, 6, 82, 0
6, 69072, Note_on_c, 6, 79, 110
6, 69118, Note_on_c, 6, 79, 0
6, 69120, Note_on_c, 6, 78, 110
6, 69168, Note_on_c, 6, 78, 0
6, 69168, Note_on_c, 6, 76, 110
6, 69214, Note_on_c, 6, 76, 0
6, 69216, Note_on_c, 6, 74, 110
6, 69248, Note_on_c, 6, 74, 0
6, 69264, Note_on_c, 6, 73, 110
6, 69296, Note_on_c, 6, 73, 0
6, 69312, Note_on_c, 6, 74, 110
6, 69360, Note_on_c, 6, 74, 0
6, 69360, Note_on_c, 6, 73, 110
6, 69406, Note_on_c, 6, 73, 0
6, 69408, Note_on_c, 6, 76, 110
6, 69456, Note_on_c, 6, 76, 0
6, 69456, Note_on_c, 6, 74, 110
6, 69502, Note_on_c, 6, 74, 0
6, 69504, Note_on_c, 6, 78, 110
6, 69552, Note_on_c, 6, 78, 0
6, 69552, Note_on_c, 6, 76, 110
6, 69598, Note_on_c, 6, 76, 0
6, 69600, Note_on_c, 6, 79, 110
6, 69648, Note_on_c, 6, 79, 0
6, 69648, Note_on_c, 6, 78, 110
6, 69694, Note_on_c, 6, 78, 0
6, 69696, Note_on_c, 6, 81, 110
6, 69744, Note_on_c, 6, 81, 0
6, 69744, Note_on_c, 6, 80, 110
6, 69790, Note_on_c, 6, 80, 0
6, 69792, Note_on_c, 6, 81, 110
6, 69840, Note_on_c, 6, 81, 0
6, 69840, Note_on_c, 6, 80, 110
6, 69886, Note_on_c, 6, 80, 0
6, 69888, Note_on_c, 6, 83, 110
6, 69936, Note_on_c, 6, 83, 0
6, 69936, Note_on_c, 6, 81, 110
6, 69982, Note_on_c, 6, 81, 0
6, 69984, Note_on_c, 6, 79, 110
6, 70016, Note_on_c, 6, 79, 0
6, 70032, Note_on_c, 6, 78, 110
6, 70064, Note_on_c, 6, 78, 0
6, 70080, Note_on_c, 6, 76, 110
6, 70128, Note_on_c, 6, 76, 0
6, 70128, Note_on_c, 6, 78, 110
6, 70174, Note_on_c, 6, 78, 0
6, 70176, Note_on_c, 6, 76, 110
6, 70208, Note_on_c, 6, 76, 0
6, 70224, Note_on_c, 6, 75, 110
6, 70256, Note_on_c, 6, 75, 0
6, 70272, Note_on_c, 6, 76, 110
6, 70320, Note_on_c, 6, 76, 0
6, 70320, Note_on_c, 6, 78, 110
6, 70366, Note_on_c, 6, 78, 0
6, 70368, Note_on_c, 6, 79, 110
6, 70400, Note_on_c, 6, 79, 0
6, 70416, Note_on_c, 6, 81, 110
6, 70448, Note_on_c, 6, 81, 0
6, 70464, Note_on_c, 6, 83, 110
6, 70512, Note_on_c, 6, 83, 0
6, 70512, Note_on_c, 6, 85, 110
6, 70558, Note_on_c, 6, 85, 0
6, 70560, Note_on_c, 6, 86, 110
6, 70592, Note_on_c, 6, 86, 0
6, 70608, Note_on_c, 6, 85, 110
6, 70640, Note_on_c, 6, 85, 0
6, 70656, Note_on_c, 6, 86, 110
6, 70750, Note_on_c, 6, 86, 0
6, 70752, Note_on_c, 6, 78, 110
6, 70846, Note_on_c, 6, 78, 0
6, 70848, Note_on_c, 6, 79, 110
6, 70872, Note_on_c, 6, 79, 0
6, 70872, Note_on_c, 6, 78, 110
6, 70896, Note_on_c, 6, 78, 0
6, 70896, Note_on_c, 6, 79, 110
6, 70920, Note_on_c, 6, 79, 0
6, 70920, Note_on_c, 6, 78, 110
6, 70944, Note_on_c, 6, 78, 0
6, 70944, Note_on_c, 6, 79, 110
6, 70968, Note_on_c, 6, 79, 0
6, 70968, Note_on_c, 6, 78, 110
6, 70992, Note_on_c, 6, 78, 0
6, 70992, Note_on_c, 6, 76, 110
6, 71016, Note_on_c, 6, 76, 0
6, 71016, Note_on_c, 6, 78, 110
6, 71040, Note_on_c, 6, 78, 0
6, 71040, Note_on_c, 6, 76, 110
6, 71200, Note_on_c, 6, 76, 0
6, 71520, Note_on_c, 6, 69, 110
6, 71614, Note_on_c, 6, 69, 0
6, 71616, Note_on_c, 6, 79, 110
6, 71664, Note_on_c, 6, 79, 0
6, 71664, Note_on_c, 6, 76, 110
6, 71710, Note_on_c, 6, 76, 0
6, 71712, Note_on_c, 6, 73, 110
6, 71744, Note_on_c, 6, 73, 0
6, 71760, Note_on_c, 6, 69, 110
6, 71792, Note_on_c, 6, 69, 0
6, 71808, Note_on_c, 6, 67, 110
6, 71856, Note_on_c, 6, 67, 0
6, 71856, Note_on_c, 6, 69, 110
6, 71902, Note_on_c, 6, 69, 0
6, 71904, Note_on_c, 6, 67, 110
6, 71952, Note_on_c, 6, 67, 0
6, 71952, Note_on_c, 6, 69, 110
6, 71998, Note_on_c, 6, 69, 0
6, 72000, Note_on_c, 6, 79, 110
6, 72048, Note_on_c, 6, 79, 0
6, 72048, Note_on_c, 6, 76, 110
6, 72094, Note_on_c, 6, 76, 0
6, 72096, Note_on_c, 6, 73, 110
6, 72128, Note_on_c, 6, 73, 0
6, 72144, Note_on_c, 6, 69, 110
6, 72176, Note_on_c, 6, 69, 0
6, 72192, Note_on_c, 6, 67, 110
6, 72240, Note_on_c, 6, 67, 0
6, 72240, Note_on_c, 6, 69, 110
6, 72286, Note_on_c, 6, 69, 0
6, 72288, Note_on_c, 6, 67, 110
6, 72336, Note_on_c, 6, 67, 0
6, 72336, Note_on_c, 6, 69, 110
6, 72382, Note_on_c, 6, 69, 0
6, 72384, Note_on_c, 6, 66, 110
6, 72432, Note_on_c, 6, 66, 0
6, 72432, Note_on_c, 6, 69, 110
6, 72478, Note_on_c, 6, 69, 0
6, 72480, Note_on_c, 6, 71, 110
6, 72512, Note_on_c, 6, 71, 0
6, 72528, Note_on_c, 6, 73, 110
6, 72560, Note_on_c, 6, 73, 0
6, 72576, Note_on_c, 6, 74, 110
6, 72624, Note_on_c, 6, 74, 0
6, 72624, Note_on_c, 6, 76, 110
6, 72670, Note_on_c, 6, 76, 0
6, 72672, Note_on_c, 6, 78, 110
6, 72704, Note_on_c, 6, 78, 0
6, 72720, Note_on_c, 6, 79, 110
6, 72752, Note_on_c, 6, 79, 0
6, 72768, Note_on_c, 6, 81, 110
6, 72816, Note_on_c, 6, 81, 0
6, 72816, Note_on_c, 6, 83, 110
6, 72862, Note_on_c, 6, 83, 0
6, 72864, Note_on_c, 6, 85, 110
6, 72896, Note_on_c, 6, 85, 0
6, 72912, Note_on_c, 6, 86, 110
6, 72944, Note_on_c, 6, 86, 0
6, 72960, Note_on_c, 6, 81, 110
6, 73054, Note_on_c, 6, 81, 0
6, 73152, Note_on_c, 6, 79, 110
6, 73200, Note_on_c, 6, 79, 0
6, 73200, Note_on_c, 6, 76, 110
6, 73246, Note_on_c, 6, 76, 0
6, 73248, Note_on_c, 6, 73, 110
6, 73280, Note_on_c, 6, 73, 0
6, 73296, Note_on_c, 6, 69, 110
6, 73328, Note_on_c, 6, 69, 0
6, 73344, Note_on_c, 6, 67, 110
6, 73392, Note_on_c, 6, 67, 0
6, 73392, Note_on_c, 6, 69, 110
6, 73438, Note_on_c, 6, 69, 0
6, 73440, Note_on_c, 6, 67, 110
6, 73488, Note_on_c, 6, 67, 0
6, 73488, Note_on_c, 6, 69, 110
6, 73534, Note_on_c, 6, 69, 0
6, 73536, Note_on_c, 6, 79, 110
6, 73584, Note_on_c, 6, 79, 0
6, 73584, Note_on_c, 6, 76, 110
6, 73630, Note_on_c, 6, 76, 0
6, 73632, Note_on_c, 6, 73, 110
6, 73664, Note_on_c, 6, 73, 0
6, 73680, Note_on_c, 6, 69, 110
6, 73712, Note_on_c, 6, 69, 0
6, 73728, Note_on_c, 6, 67, 110
6, 73776, Note_on_c, 6, 67, 0
6, 73776, Note_on_c, 6, 69, 110
6, 73822, Note_on_c, 6, 69, 0
6, 73824, Note_on_c, 6, 67, 110
6, 73872, Note_on_c, 6, 67, 0
6, 73872, Note_on_c, 6, 69, 110
6, 73918, Note_on_c, 6, 69, 0
6, 73920, Note_on_c, 6, 66, 110
6, 73968, Note_on_c, 6, 66, 0
6, 73968, Note_on_c, 6, 69, 110
6, 74014, Note_on_c, 6, 69, 0
6, 74016, Note_on_c, 6, 71, 110
6, 74048, Note_on_c, 6, 71, 0
6, 74064, Note_on_c, 6, 73, 110
6, 74096, Note_on_c, 6, 73, 0
6, 74112, Note_on_c, 6, 74, 110
6, 74160, Note_on_c, 6, 74, 0
6, 74160, Note_on_c, 6, 76, 110
6, 74206, Note_on_c, 6, 76, 0
6, 74208, Note_on_c, 6, 78, 110
6, 74240, Note_on_c, 6, 78, 0
6, 74256, Note_on_c, 6, 79, 110
6, 74288, Note_on_c, 6, 79, 0
6, 74304, Note_on_c, 6, 81, 110
6, 74352, Note_on_c, 6, 81, 0
6, 74352, Note_on_c, 6, 83, 110
6, 74398, Note_on_c, 6, 83, 0
6, 74400, Note_on_c, 6, 85, 110
6, 74432, Note_on_c, 6, 85, 0
6, 74448, Note_on_c, 6, 86, 110
6, 74480, Note_on_c, 6, 86, 0
6, 74496, Note_on_c, 6, 81, 110
6, 74590, Note_on_c, 6, 81, 0
6, 74688, Note_on_c, 6, 83, 110
6, 74736, Note_on_c, 6, 83, 0
6, 74736, Note_on_c, 6, 79, 110
6, 74782, Note_on_c, 6, 79, 0
6, 74784, Note_on_c, 6, 81, 110
6, 74816, Note_on_c, 6, 81, 0
6, 74832, Note_on_c, 6, 78, 110
6, 74864, Note_on_c, 6, 78, 0
6, 74880, Note_on_c, 6, 79, 110
6, 74928, Note_on_c, 6, 79, 0
6, 74928, Note_on_c, 6, 76, 110
6, 74974, Note_on_c, 6, 76, 0
6, 74976, Note_on_c, 6, 78, 110
6, 75008, Note_on_c, 6, 78, 0
6, 75024, Note_on_c, 6, 75, 110
6, 75056, Note_on_c, 6, 75, 0
6, 75072, Note_on_c, 6, 76, 110
6, 75120, Note_on_c, 6, 76, 0
6, 75120, Note_on_c, 6, 87, 110
6, 75168, Note_on_c, 6, 87, 0
6, 75168, Note_on_c, 6, 88, 110
6, 75216, Note_on_c, 6, 88, 0
6, 75216, Note_on_c, 6, 87, 110
6, 75262, Note_on_c, 6, 87, 0
6, 75264, Note_on_c, 6, 88, 110
6, 75312, Note_on_c, 6, 88, 0
6, 75312, Note_on_c, 6, 86, 110
6, 75360, Note_on_c, 6, 86, 0
6, 75360, Note_on_c, 6, 85, 110
6, 75408, Note_on_c, 6, 85, 0
6, 75408, Note_on_c, 6, 83, 110
6, 75454, Note_on_c, 6, 83, 0
6, 75456, Note_on_c, 6, 81, 110
6, 75504, Note_on_c, 6, 81, 0
6, 75504, Note_on_c, 6, 78, 110
6, 75550, Note_on_c, 6, 78, 0
6, 75552, Note_on_c, 6, 79, 110
6, 75584, Note_on_c, 6, 79, 0
6, 75600, Note_on_c, 6, 76, 110
6, 75632, Note_on_c, 6, 76, 0
6, 75648, Note_on_c, 6, 78, 110
6, 75696, Note_on_c, 6, 78, 0
6, 75696, Note_on_c, 6, 74, 110
6, 75742, Note_on_c, 6, 74, 0
6, 75744, Note_on_c, 6, 76, 110
6, 75776, Note_on_c, 6, 76, 0
6, 75792, Note_on_c, 6, 73, 110
6, 75824, Note_on_c, 6, 73, 0
6, 75840, Note_on_c, 6, 74, 110
6, 75888, Note_on_c, 6, 74, 0
6, 75888, Note_on_c, 6, 85, 110
6, 75936, Note_on_c, 6, 85, 0
6, 75936, Note_on_c, 6, 86, 110
6, 75984, Note_on_c, 6, 86, 0
6, 75984, Note_on_c, 6, 85, 110
6, 76030, Note_on_c, 6, 85, 0
6, 76032, Note_on_c, 6, 86, 110
6, 76080, Note_on_c, 6, 86, 0
6, 76080, Note_on_c, 6, 85, 110
6, 76126, Note_on_c, 6, 85, 0
6, 76128, Note_on_c, 6, 83, 110
6, 76160, Note_on_c, 6, 83, 0
6, 76176, Note_on_c, 6, 81, 110
6, 76208, Note_on_c, 6, 81, 0
6, 76224, Note_on_c, 6, 79, 110
6, 76272, Note_on_c, 6, 79, 0
6, 76272, Note_on_c, 6, 81, 110
6, 76318, Note_on_c, 6, 81, 0
6, 76320, Note_on_c, 6, 83, 110
6, 76352, Note_on_c, 6, 83, 0
6, 76368, Note_on_c, 6, 81, 110
6, 76400, Note_on_c, 6, 81, 0
6, 76416, Note_on_c, 6, 79, 110
6, 76464, Note_on_c, 6, 79, 0
6, 76464, Note_on_c, 6, 78, 110
6, 76510, Note_on_c, 6, 78, 0
6, 76512, Note_on_c, 6, 76, 110
6, 76544, Note_on_c, 6, 76, 0
6, 76560, Note_on_c, 6, 74, 110
6, 76592, Note_on_c, 6, 74, 0
6, 76608, Note_on_c, 6, 73, 110
6, 76656, Note_on_c, 6, 73, 0
6, 76656, Note_on_c, 6, 74, 110
6, 76702, Note_on_c, 6, 74, 0
6, 76704, Note_on_c, 6, 76, 110
6, 76736, Note_on_c, 6, 76, 0
6, 76752, Note_on_c, 6, 74, 110
6, 76784, Note_on_c, 6, 74, 0
6, 76800, Note_on_c, 6, 73, 110
6, 76848, Note_on_c, 6, 73, 0
6, 76848, Note_on_c, 6, 71, 110
6, 76894, Note_on_c, 6, 71, 0
6, 76896, Note_on_c, 6, 69, 110
6, 76928, Note_on_c, 6, 69, 0
6, 76944, Note_on_c, 6, 67, 110
6, 76976, Note_on_c, 6, 67, 0
6, 76992, Note_on_c, 6, 66, 110
6, 77086, Note_on_c, 6, 66, 0
6, 77088, Note_on_c, 6, 67, 110
6, 77136, Note_on_c, 6, 67, 0
6, 77136, Note_on_c, 6, 64, 110
6, 77182, Note_on_c, 6, 64, 0
6, 77184, Note_on_c, 6, 69, 110
6, 77232, Note_on_c, 6, 69, 0
6, 77232, Note_on_c, 6, 66, 110
6, 77278, Note_on_c, 6, 66, 0
6, 77280, Note_on_c, 6, 71, 110
6, 77328, Note_on_c, 6, 71, 0
6, 77328, Note_on_c, 6, 67, 110
6, 77374, Note_on_c, 6, 67, 0
6, 77376, Note_on_c, 6, 73, 110
6, 77424, Note_on_c, 6, 73, 0
6, 77424, Note_on_c, 6, 69, 110
6, 77470, Note_on_c, 6, 69, 0
6, 77472, Note_on_c, 6, 74, 110
6, 77520, Note_on_c, 6, 74, 0
6, 77520, Note_on_c, 6, 71, 110
6, 77566, Note_on_c, 6, 71, 0
6, 77568, Note_on_c, 6, 76, 110
6, 77616, Note_on_c, 6, 76, 0
6, 77616, Note_on_c, 6, 73, 110
6, 77662, Note_on_c, 6, 73, 0
6, 77664, Note_on_c, 6, 78, 110
6, 77712, Note_on_c, 6, 78, 0
6, 77712, Note_on_c, 6, 74, 110
6, 77758, Note_on_c, 6, 74, 0
6, 77760, Note_on_c, 6, 79, 110
6, 77904, Note_on_c, 6, 79, 0
6, 77904, Note_on_c, 6, 78, 110
6, 77950, Note_on_c, 6, 78, 0
6, 77952, Note_on_c, 6, 79, 110
6, 78000, Note_on_c, 6, 79, 0
6, 78000, Note_on_c, 6, 78, 110
6, 78046, Note_on_c, 6, 78, 0
6, 78048, Note_on_c, 6, 79, 110
6, 78096, Note_on_c, 6, 79, 0
6, 78096, Note_on_c, 6, 78, 110
6, 78142, Note_on_c, 6, 78, 0
6, 78144, Note_on_c, 6, 79, 110
6, 78400, Note_on_c, 6, 79, 0
6, 78432, Note_on_c, 6, 76, 110
6, 78526, Note_on_c, 6, 76, 0
6, 78528, Note_on_c, 6, 78, 110
6, 78672, Note_on_c, 6, 78, 0
6, 78672, Note_on_c, 6, 74, 110
6, 78718, Note_on_c, 6, 74, 0
6, 78720, Note_on_c, 6, 71, 110
6, 78864, Note_on_c, 6, 71, 0
6, 78864, Note_on_c, 6, 76, 110
6, 78910, Note_on_c, 6, 76, 0
6, 78912, Note_on_c, 6, 74, 110
6, 79104, Note_on_c, 6, 74, 0
6, 79104, Note_on_c, 6, 73, 110
6, 79264, Note_on_c, 6, 73, 0
6, 79296, Note_on_c, 6, 79, 110
6, 79440, Note_on_c, 6, 79, 0
6, 79440, Note_on_c, 6, 78, 110
6, 79486, Note_on_c, 6, 78, 0
6, 79488, Note_on_c, 6, 79, 110
6, 79536, Note_on_c, 6, 79, 0
6, 79536, Note_on_c, 6, 78, 110
6, 79582, Note_on_c, 6, 78, 0
6, 79584, Note_on_c, 6, 79, 110
6, 79632, Note_on_c, 6, 79, 0
6, 79632, Note_on_c, 6, 78, 110
6, 79678, Note_on_c, 6, 78, 0
6, 79680, Note_on_c, 6, 79, 110
6, 79936, Note_on_c, 6, 79, 0
6, 79968, Note_on_c, 6, 76, 110
6, 80062, Note_on_c, 6, 76, 0
6, 80064, Note_on_c, 6, 78, 110
6, 80160, Note_on_c, 6, 78, 0
6, 80160, Note_on_c, 6, 86, 110
6, 80254, Note_on_c, 6, 86, 0
6, 80256, Note_on_c, 6, 85, 110
6, 80352, Note_on_c, 6, 85, 0
6, 80352, Note_on_c, 6, 83, 110
6, 80446, Note_on_c, 6, 83, 0
6, 80448, Note_on_c, 6, 85, 110
6, 80472, Note_on_c, 6, 85, 0
6, 80472, Note_on_c, 6, 83, 110
6, 80496, Note_on_c, 6, 83, 0
6, 80496, Note_on_c, 6, 85, 110
6, 80520, Note_on_c, 6, 85, 0
6, 80520, Note_on_c, 6, 83, 110
6, 80544, Note_on_c, 6, 83, 0
6, 80544, Note_on_c, 6, 81, 110
6, 80638, Note_on_c, 6, 81, 0
6, 80640, Note_on_c, 6, 83, 110
6, 80664, Note_on_c, 6, 83, 0
6, 80664, Note_on_c, 6, 81, 110
6, 80688, Note_on_c, 6, 81, 0
6, 80688, Note_on_c, 6, 83, 110
6, 80712, Note_on_c, 6, 83, 0
6, 80712, Note_on_c, 6, 81, 110
6, 80736, Note_on_c, 6, 81, 0
6, 80736, Note_on_c, 6, 80, 110
6, 80830, Note_on_c, 6, 80, 0
6, 80832, Note_on_c, 6, 81, 110
6, 82368, Note_on_c, 6, 81, 0
6, 82368, Note_on_c, 6, 83, 110
6, 82390, Note_on_c, 6, 83, 0
6, 82392, Note_on_c, 6, 81, 110
6, 82414, Note_on_c, 6, 81, 0
6, 82416, Note_on_c, 6, 83, 110
6, 82438, Note_on_c, 6, 83, 0
6, 82440, Note_on_c, 6, 81, 110
6, 82462, Note_on_c, 6, 81, 0
6, 82464, Note_on_c, 6, 83, 110
6, 82486, Note_on_c, 6, 83, 0
6, 82488, Note_on_c, 6, 81, 110
6, 82510, Note_on_c, 6, 81, 0
6, 82512, Note_on_c, 6, 83, 110
6, 82534, Note_on_c, 6, 83, 0
6, 82536, Note_on_c, 6, 81, 110
6, 82558, Note_on_c, 6, 81, 0
6, 82560, Note_on_c, 6, 83, 110
6, 82582, Note_on_c, 6, 83, 0
6, 82584, Note_on_c, 6, 81, 110
6, 82606, Note_on_c, 6, 81, 0
6, 82608, Note_on_c, 6, 83, 110
6, 82630, Note_on_c, 6, 83, 0
6, 82632, Note_on_c, 6, 81, 110
6, 82654, Note_on_c, 6, 81, 0
6, 82656, Note_on_c, 6, 83, 110
6, 82678, Note_on_c, 6, 83, 0
6, 82680, Note_on_c, 6, 81, 110
6, 82702, Note_on_c, 6, 81, 0
6, 82704, Note_on_c, 6, 83, 110
6, 82726, Note_on_c, 6, 83, 0
6, 82728, Note_on_c, 6, 81, 110
6, 82750, Note_on_c, 6, 81, 0
6, 82752, Note_on_c, 6, 83, 110
6, 82774, Note_on_c, 6, 83, 0
6, 82776, Note_on_c, 6, 81, 110
6, 82798, Note_on_c, 6, 81, 0
6, 82800, Note_on_c, 6, 83, 110
6, 82822, Note_on_c, 6, 83, 0
6, 82824, Note_on_c, 6, 81, 110
6, 82846, Note_on_c, 6, 81, 0
6, 82848, Note_on_c, 6, 83, 110
6, 82870, Note_on_c, 6, 83, 0
6, 82872, Note_on_c, 6, 81, 110
6, 82894, Note_on_c, 6, 81, 0
6, 82896, Note_on_c, 6, 83, 110
6, 82918, Note_on_c, 6, 83, 0
6, 82920, Note_on_c, 6, 81, 110
6, 82942, Note_on_c, 6, 81, 0
6, 82944, Note_on_c, 6, 83, 110
6, 82966, Note_on_c, 6, 83, 0
6, 82968, Note_on_c, 6, 81, 110
6, 82990, Note_on_c, 6, 81, 0
6, 82992, Note_on_c, 6, 83, 110
6, 83014, Note_on_c, 6, 83, 0
6, 83016, Note_on_c, 6, 81, 110
6, 83038, Note_on_c, 6, 81, 0
6, 83040, Note_on_c, 6, 83, 110
6, 83062, Note_on_c, 6, 83, 0
6, 83064, Note_on_c, 6, 81, 110
6, 83086, Note_on_c, 6, 81, 0
6, 83088, Note_on_c, 6, 83, 110
6, 83110, Note_on_c, 6, 83, 0
6, 83112, Note_on_c, 6, 81, 110
6, 83134, Note_on_c, 6, 81, 0
6, 83136, Note_on_c, 6, 83, 110
6, 83158, Note_on_c, 6, 83, 0
6, 83160, Note_on_c, 6, 81, 110
6, 83182, Note_on_c, 6, 81, 0
6, 83184, Note_on_c, 6, 83, 110
6, 83206, Note_on_c, 6, 83, 0
6, 83208, Note_on_c, 6, 81, 110
6, 83230, Note_on_c, 6, 81, 0
6, 83232, Note_on_c, 6, 83, 110
6, 83254, Note_on_c, 6, 83, 0
6, 83256, Note_on_c, 6, 81, 110
6, 83278, Note_on_c, 6, 81, 0
6, 83280, Note_on_c, 6, 83, 110
6, 83302, Note_on_c, 6, 83, 0
6, 83304, Note_on_c, 6, 81, 110
6, 83326, Note_on_c, 6, 81, 0
6, 83328, Note_on_c, 6, 83, 110
6, 83350, Note_on_c, 6, 83, 0
6, 83352, Note_on_c, 6, 81, 110
6, 83374, Note_on_c, 6, 81, 0
6, 83376, Note_on_c, 6, 83, 110
6, 83398, Note_on_c, 6, 83, 0
6, 83400, Note_on_c, 6, 81, 110
6, 83422, Note_on_c, 6, 81, 0
6, 83424, Note_on_c, 6, 83, 110
6, 83446, Note_on_c, 6, 83, 0
6, 83448, Note_on_c, 6, 81, 110
6, 83470, Note_on_c, 6, 81, 0
6, 83472, Note_on_c, 6, 83, 110
6, 83494, Note_on_c, 6, 83, 0
6, 83496, Note_on_c, 6, 81, 110
6, 83518, Note_on_c, 6, 81, 0
6, 83520, Note_on_c, 6, 83, 110
6, 83542, Note_on_c, 6, 83, 0
6, 83544, Note_on_c, 6, 81, 110
6, 83566, Note_on_c, 6, 81, 0
6, 83568, Note_on_c, 6, 83, 110
6, 83590, Note_on_c, 6, 83, 0
6, 83592, Note_on_c, 6, 81, 110
6, 83614, Note_on_c, 6, 81, 0
6, 83616, Note_on_c, 6, 83, 110
6, 83638, Note_on_c, 6, 83, 0
6, 83640, Note_on_c, 6, 81, 110
6, 83662, Note_on_c, 6, 81, 0
6, 83664, Note_on_c, 6, 83, 110
6, 83686, Note_on_c, 6, 83, 0
6, 83688, Note_on_c, 6, 81, 110
6, 83710, Note_on_c, 6, 81, 0
6, 83712, Note_on_c, 6, 83, 110
6, 83734, Note_on_c, 6, 83, 0
6, 83736, Note_on_c, 6, 81, 110
6, 83758, Note_on_c, 6, 81, 0
6, 83760, Note_on_c, 6, 83, 110
6, 83782, Note_on_c, 6, 83, 0
6, 83784, Note_on_c, 6, 81, 110
6, 83806, Note_on_c, 6, 81, 0
6, 83808, Note_on_c, 6, 83, 110
6, 83830, Note_on_c, 6, 83, 0
6, 83832, Note_on_c, 6, 81, 110
6, 83854, Note_on_c, 6, 81, 0
6, 83856, Note_on_c, 6, 79, 110
6, 83880, Note_on_c, 6, 79, 0
6, 83880, Note_on_c, 6, 81, 110
6, 83904, Note_on_c, 6, 81, 0
6, 83904, Note_on_c, 6, 69, 110
6, 84064, Note_on_c, 6, 69, 0
6, 85920, Note_on_c, 6, 81, 110
6, 86014, Note_on_c, 6, 81, 0
6, 86016, Note_on_c, 6, 81, 110
6, 86110, Note_on_c, 6, 81, 0
6, 86112, Note_on_c, 6, 81, 110
6, 86206, Note_on_c, 6, 81, 0
6, 86208, Note_on_c, 6, 81, 110
6, 86352, Note_on_c, 6, 81, 0
6, 86352, Note_on_c, 6, 78, 110
6, 86398, Note_on_c, 6, 78, 0
6, 86400, Note_on_c, 6, 79, 110
6, 86544, Note_on_c, 6, 79, 0
6, 86544, Note_on_c, 6, 76, 110
6, 86590, Note_on_c, 6, 76, 0
6, 86592, Note_on_c, 6, 81, 110
6, 86640, Note_on_c, 6, 81, 0
6, 86640, Note_on_c, 6, 78, 110
6, 86686, Note_on_c, 6, 78, 0
6, 86688, Note_on_c, 6, 79, 110
6, 86736, Note_on_c, 6, 79, 0
6, 86736, Note_on_c, 6, 76, 110
6, 86782, Note_on_c, 6, 76, 0
6, 86784, Note_on_c, 6, 81, 110
6, 86832, Note_on_c, 6, 81, 0
6, 86832, Note_on_c, 6, 78, 110
6, 86878, Note_on_c, 6, 78, 0
6, 86880, Note_on_c, 6, 79, 110
6, 86928, Note_on_c, 6, 79, 0
6, 86928, Note_on_c, 6, 76, 110
6, 86974, Note_on_c, 6, 76, 0
6, 86976, Note_on_c, 6, 74, 110
6, 87070, Note_on_c, 6, 74, 0
6, 87168, Note_on_c, 6, 78, 110
6, 87192, Note_on_c, 6, 78, 0
6, 87192, Note_on_c, 6, 76, 110
6, 87216, Note_on_c, 6, 76, 0
6, 87216, Note_on_c, 6, 78, 110
6, 87240, Note_on_c, 6, 78, 0
6, 87240, Note_on_c, 6, 76, 110
6, 87264, Note_on_c, 6, 76, 0
6, 87264, Note_on_c, 6, 78, 110
6, 87288, Note_on_c, 6, 78, 0
6, 87288, Note_on_c, 6, 76, 110
6, 87312, Note_on_c, 6, 76, 0
6, 87312, Note_on_c, 6, 74, 110
6, 87336, Note_on_c, 6, 74, 0
6, 87336, Note_on_c, 6, 76, 110
6, 87358, Note_on_c, 6, 76, 0
6, 87360, Note_on_c, 6, 78, 110
6, 87454, Note_on_c, 6, 78, 0
6, 87552, Note_on_c, 6, 78, 110
6, 87584, Note_on_c, 6, 78, 0
6, 87648, Note_on_c, 6, 79, 110
6, 87680, Note_on_c, 6, 79, 0
6, 87744, Note_on_c, 6, 81, 110
6, 87776, Note_on_c, 6, 81, 0
6, 87840, Note_on_c, 6, 83, 110
6, 87872, Note_on_c, 6, 83, 0
6, 87936, Note_on_c, 6, 85, 110
6, 87968, Note_on_c, 6, 85, 0
6, 88032, Note_on_c, 6, 86, 110
6, 88064, Note_on_c, 6, 86, 0
6, 88128, Note_on_c, 6, 81, 110
6, 88288, Note_on_c, 6, 81, 0
6, 88320, Note_on_c, 6, 83, 110
6, 88368, Note_on_c, 6, 83, 0
6, 88368, Note_on_c, 6, 81, 110
6, 88414, Note_on_c, 6, 81, 0
6, 88416, Note_on_c, 6, 79, 110
6, 88462, Note_on_c, 6, 79, 0
6, 88464, Note_on_c, 6, 78, 110
6, 88510, Note_on_c, 6, 78, 0
6, 88512, Note_on_c, 6, 78, 110
6, 88536, Note_on_c, 6, 78, 0
6, 88536, Note_on_c, 6, 76, 110
6, 88558, Note_on_c, 6, 76, 0
6, 88560, Note_on_c, 6, 75, 110
6, 88606, Note_on_c, 6, 75, 0
6, 88608, Note_on_c, 6, 76, 110
6, 88640, Note_on_c, 6, 76, 0
6, 88656, Note_on_c, 6, 78, 110
6, 88688, Note_on_c, 6, 78, 0
6, 88704, Note_on_c, 6, 79, 110
6, 88752, Note_on_c, 6, 79, 0
6, 88752, Note_on_c, 6, 76, 110
6, 88798, Note_on_c, 6, 76, 0
6, 88800, Note_on_c, 6, 78, 110
6, 88832, Note_on_c, 6, 78, 0
6, 88848, Note_on_c, 6, 74, 110
6, 88880, Note_on_c, 6, 74, 0
6, 88896, Note_on_c, 6, 76, 110
6, 88944, Note_on_c, 6, 76, 0
6, 88944, Note_on_c, 6, 73, 110
6, 88990, Note_on_c, 6, 73, 0
6, 88992, Note_on_c, 6, 73, 110
6, 89014, Note_on_c, 6, 73, 0
6, 89016, Note_on_c, 6, 71, 110
6, 89038, Note_on_c, 6, 71, 0
6, 89040, Note_on_c, 6, 69, 110
6, 89086, Note_on_c, 6, 69, 0
6, 89088, Note_on_c, 6, 81, 110
6, 89136, Note_on_c, 6, 81, 0
6, 89136, Note_on_c, 6, 78, 110
6, 89182, Note_on_c, 6, 78, 0
6, 89184, Note_on_c, 6, 79, 110
6, 89216, Note_on_c, 6, 79, 0
6, 89232, Note_on_c, 6, 76, 110
6, 89264, Note_on_c, 6, 76, 0
6, 89280, Note_on_c, 6, 74, 110
6, 89374, Note_on_c, 6, 74, 0
6, 89472, Note_on_c, 6, 78, 110
6, 89496, Note_on_c, 6, 78, 0
6, 89496, Note_on_c, 6, 76, 110
6, 89520, Note_on_c, 6, 76, 0
6, 89520, Note_on_c, 6, 78, 110
6, 89544, Note_on_c, 6, 78, 0
6, 89544, Note_on_c, 6, 76, 110
6, 89568, Note_on_c, 6, 76, 0
6, 89568, Note_on_c, 6, 78, 110
6, 89592, Note_on_c, 6, 78, 0
6, 89592, Note_on_c, 6, 76, 110
6, 89616, Note_on_c, 6, 76, 0
6, 89616, Note_on_c, 6, 74, 110
6, 89640, Note_on_c, 6, 74, 0
6, 89640, Note_on_c, 6, 76, 110
6, 89662, Note_on_c, 6, 76, 0
6, 89664, Note_on_c, 6, 78, 110
6, 89758, Note_on_c, 6, 78, 0
6, 89856, Note_on_c, 6, 78, 110
6, 89888, Note_on_c, 6, 78, 0
6, 89952, Note_on_c, 6, 79, 110
6, 89984, Note_on_c, 6, 79, 0
6, 90048, Note_on_c, 6, 81, 110
6, 90080, Note_on_c, 6, 81, 0
6, 90144, Note_on_c, 6, 83, 110
6, 90176, Note_on_c, 6, 83, 0
6, 90240, Note_on_c, 6, 85, 110
6, 90272, Note_on_c, 6, 85, 0
6, 90336, Note_on_c, 6, 86, 110
6, 90368, Note_on_c, 6, 86, 0
6, 90432, Note_on_c, 6, 81, 110
6, 90592, Note_on_c, 6, 81, 0
6, 90624, Note_on_c, 6, 83, 110
6, 90672, Note_on_c, 6, 83, 0
6, 90672, Note_on_c, 6, 81, 110
6, 90718, Note_on_c, 6, 81, 0
6, 90720, Note_on_c, 6, 79, 110
6, 90766, Note_on_c, 6, 79, 0
6, 90768, Note_on_c, 6, 78, 110
6, 90814, Note_on_c, 6, 78, 0
6, 90816, Note_on_c, 6, 75, 110
6, 90864, Note_on_c, 6, 75, 0
6, 90864, Note_on_c, 6, 76, 110
6, 90910, Note_on_c, 6, 76, 0
6, 90912, Note_on_c, 6, 79, 110
6, 90944, Note_on_c, 6, 79, 0
6, 90960, Note_on_c, 6, 83, 110
6, 90992, Note_on_c, 6, 83, 0
6, 91008, Note_on_c, 6, 81, 110
6, 91056, Note_on_c, 6, 81, 0
6, 91056, Note_on_c, 6, 78, 110
6, 91102, Note_on_c, 6, 78, 0
6, 91104, Note_on_c, 6, 79, 110
6, 91136, Note_on_c, 6, 79, 0
6, 91152, Note_on_c, 6, 76, 110
6, 91184, Note_on_c, 6, 76, 0
6, 91200, Note_on_c, 6, 74, 110
6, 91360, Note_on_c, 6, 74, 0
6, 92928, Note_on_c, 6, 86, 110
6, 92960, Note_on_c, 6, 86, 0
6, 93024, Note_on_c, 6, 86, 110
6, 93056, Note_on_c, 6, 86, 0
6, 93120, Note_on_c, 6, 78, 110
6, 93280, Note_on_c, 6, 78, 0
6, 93312, Note_on_c, 6, 83, 110
6, 93360, Note_on_c, 6, 83, 0
6, 93360, Note_on_c, 6, 81, 110
6, 93406, Note_on_c, 6, 81, 0
6, 93408, Note_on_c, 6, 83, 110
6, 93440, Note_on_c, 6, 83, 0
6, 93456, Note_on_c, 6, 80, 110
6, 93488, Note_on_c, 6, 80, 0
6, 93504, Note_on_c, 6, 81, 110
6, 93744, Note_on_c, 6, 81, 0
6, 93744, Note_on_c, 6, 85, 110
6, 93790, Note_on_c, 6, 85, 0
6, 93792, Note_on_c, 6, 83, 110
6, 93824, Note_on_c, 6, 83, 0
6, 93840, Note_on_c, 6, 80, 110
6, 93872, Note_on_c, 6, 80, 0
6, 93888, Note_on_c, 6, 81, 110
6, 93936, Note_on_c, 6, 81, 0
6, 93936, Note_on_c, 6, 85, 110
6, 93982, Note_on_c, 6, 85, 0
6, 93984, Note_on_c, 6, 83, 110
6, 94016, Note_on_c, 6, 83, 0
6, 94032, Note_on_c, 6, 80, 110
6, 94064, Note_on_c, 6, 80, 0
6, 94080, Note_on_c, 6, 81, 110
6, 94128, Note_on_c, 6, 81, 0
6, 94128, Note_on_c, 6, 85, 110
6, 94174, Note_on_c, 6, 85, 0
6, 94176, Note_on_c, 6, 83, 110
6, 94208, Note_on_c, 6, 83, 0
6, 94224, Note_on_c, 6, 80, 110
6, 94256, Note_on_c, 6, 80, 0
6, 94272, Note_on_c, 6, 81, 110
6, 94464, Note_on_c, 6, 81, 0
6, 94464, Note_on_c, 6, 82, 110
6, 94512, Note_on_c, 6, 82, 0
6, 94512, Note_on_c, 6, 83, 110
6, 94558, Note_on_c, 6, 83, 0
6, 94560, Note_on_c, 6, 79, 110
6, 94592, Note_on_c, 6, 79, 0
6, 94608, Note_on_c, 6, 76, 110
6, 94640, Note_on_c, 6, 76, 0
6, 94656, Note_on_c, 6, 71, 110
6, 94688, Note_on_c, 6, 71, 0
6, 94752, Note_on_c, 6, 76, 110
6, 94800, Note_on_c, 6, 76, 0
6, 94824, Note_on_c, 6, 74, 110
6, 94848, Note_on_c, 6, 74, 0
6, 94848, Note_on_c, 6, 76, 110
6, 94870, Note_on_c, 6, 76, 0
6, 94872, Note_on_c, 6, 74, 110
6, 94894, Note_on_c, 6, 74, 0
6, 94896, Note_on_c, 6, 73, 110
6, 94942, Note_on_c, 6, 73, 0
6, 94944, Note_on_c, 6, 71, 110
6, 94992, Note_on_c, 6, 71, 0
6, 94992, Note_on_c, 6, 73, 110
6, 95038, Note_on_c, 6, 73, 0
6, 95040, Note_on_c, 6, 74, 110
6, 95200, Note_on_c, 6, 74, 0
6, 95232, Note_on_c, 6, 74, 110
6, 95280, Note_on_c, 6, 74, 0
6, 95280, Note_on_c, 6, 78, 110
6, 95326, Note_on_c, 6, 78, 0
6, 95328, Note_on_c, 6, 76, 110
6, 95360, Note_on_c, 6, 76, 0
6, 95376, Note_on_c, 6, 73, 110
6, 95408, Note_on_c, 6, 73, 0
6, 95424, Note_on_c, 6, 74, 110
6, 95472, Note_on_c, 6, 74, 0
6, 95472, Note_on_c, 6, 78, 110
6, 95518, Note_on_c, 6, 78, 0
6, 95520, Note_on_c, 6, 76, 110
6, 95552, Note_on_c, 6, 76, 0
6, 95568, Note_on_c, 6, 73, 110
6, 95600, Note_on_c, 6, 73, 0
6, 95616, Note_on_c, 6, 74, 110
6, 95664, Note_on_c, 6, 74, 0
6, 95664, Note_on_c, 6, 78, 110
6, 95710, Note_on_c, 6, 78, 0
6, 95712, Note_on_c, 6, 76, 110
6, 95744, Note_on_c, 6, 76, 0
6, 95760, Note_on_c, 6, 73, 110
6, 95792, Note_on_c, 6, 73, 0
6, 95808, Note_on_c, 6, 74, 110
6, 95968, Note_on_c, 6, 74, 0
6, 98112, Note_on_c, 6, 69, 110
6, 98134, Note_on_c, 6, 69, 0
6, 98136, Note_on_c, 6, 81, 110
6, 98302, Note_on_c, 6, 81, 0
6, 98304, Note_on_c, 6, 81, 110
6, 98350, Note_on_c, 6, 81, 0
6, 98352, Note_on_c, 6, 78, 110
6, 98398, Note_on_c, 6, 78, 0
6, 98400, Note_on_c, 6, 79, 110
6, 98446, Note_on_c, 6, 79, 0
6, 98448, Note_on_c, 6, 76, 110
6, 98494, Note_on_c, 6, 76, 0
6, 98496, Note_on_c, 6, 74, 110
6, 98542, Note_on_c, 6, 74, 0
6, 98544, Note_on_c, 6, 73, 110
6, 98590, Note_on_c, 6, 73, 0
6, 98592, Note_on_c, 6, 74, 110
6, 98638, Note_on_c, 6, 74, 0
6, 98640, Note_on_c, 6, 76, 110
6, 98686, Note_on_c, 6, 76, 0
6, 98688, Note_on_c, 6, 78, 110
6, 98734, Note_on_c, 6, 78, 0
6, 98736, Note_on_c, 6, 76, 110
6, 98782, Note_on_c, 6, 76, 0
6, 98784, Note_on_c, 6, 78, 110
6, 98830, Note_on_c, 6, 78, 0
6, 98832, Note_on_c, 6, 79, 110
6, 98878, Note_on_c, 6, 79, 0
6, 98880, Note_on_c, 6, 81, 110
6, 98926, Note_on_c, 6, 81, 0
6, 98928, Note_on_c, 6, 78, 110
6, 98974, Note_on_c, 6, 78, 0
6, 98976, Note_on_c, 6, 74, 110
6, 99022, Note_on_c, 6, 74, 0
6, 99024, Note_on_c, 6, 69, 110
6, 99070, Note_on_c, 6, 69, 0
6, 99072, Note_on_c, 6, 66, 110
6, 99118, Note_on_c, 6, 66, 0
6, 99120, Note_on_c, 6, 69, 110
6, 99166, Note_on_c, 6, 69, 0
6, 99168, Note_on_c, 6, 74, 110
6, 99214, Note_on_c, 6, 74, 0
6, 99216, Note_on_c, 6, 78, 110
6, 99262, Note_on_c, 6, 78, 0
6, 99264, Note_on_c, 6, 83, 110
6, 99286, Note_on_c, 6, 83, 0
6, 99288, Note_on_c, 6, 81, 110
6, 99310, Note_on_c, 6, 81, 0
6, 99312, Note_on_c, 6, 79, 110
6, 99358, Note_on_c, 6, 79, 0
6, 99360, Note_on_c, 6, 78, 110
6, 99406, Note_on_c, 6, 78, 0
6, 99408, Note_on_c, 6, 79, 110
6, 99454, Note_on_c, 6, 79, 0
6, 99456, Note_on_c, 6, 81, 110
6, 99502, Note_on_c, 6, 81, 0
6, 99504, Note_on_c, 6, 83, 110
6, 99550, Note_on_c, 6, 83, 0
6, 99552, Note_on_c, 6, 85, 110
6, 99598, Note_on_c, 6, 85, 0
6, 99600, Note_on_c, 6, 86, 110
6, 99646, Note_on_c, 6, 86, 0
6, 99648, Note_on_c, 6, 81, 110
6, 99808, Note_on_c, 6, 81, 0
6, 99840, Note_on_c, 6, 80, 110
6, 99886, Note_on_c, 6, 80, 0
6, 99888, Note_on_c, 6, 81, 110
6, 99934, Note_on_c, 6, 81, 0
6, 99936, Note_on_c, 6, 80, 110
6, 99982, Note_on_c, 6, 80, 0
6, 99984, Note_on_c, 6, 81, 110
6, 100030, Note_on_c, 6, 81, 0
6, 100032, Note_on_c, 6, 83, 110
6, 100078, Note_on_c, 6, 83, 0
6, 100080, Note_on_c, 6, 81, 110
6, 100126, Note_on_c, 6, 81, 0
6, 100128, Note_on_c, 6, 81, 110
6, 100174, Note_on_c, 6, 81, 0
6, 100176, Note_on_c, 6, 73, 110
6, 100222, Note_on_c, 6, 73, 0
6, 100224, Note_on_c, 6, 69, 110
6, 100270, Note_on_c, 6, 69, 0
6, 100272, Note_on_c, 6, 69, 110
6, 100318, Note_on_c, 6, 69, 0
6, 100320, Note_on_c, 6, 71, 110
6, 100366, Note_on_c, 6, 71, 0
6, 100368, Note_on_c, 6, 69, 110
6, 100414, Note_on_c, 6, 69, 0
6, 100416, Note_on_c, 6, 79, 110
6, 100462, Note_on_c, 6, 79, 0
6, 100464, Note_on_c, 6, 78, 110
6, 100510, Note_on_c, 6, 78, 0
6, 100512, Note_on_c, 6, 74, 110
6, 100558, Note_on_c, 6, 74, 0
6, 100560, Note_on_c, 6, 69, 110
6, 100606, Note_on_c, 6, 69, 0
6, 100608, Note_on_c, 6, 66, 110
6, 100654, Note_on_c, 6, 66, 0
6, 100656, Note_on_c, 6, 69, 110
6, 100702, Note_on_c, 6, 69, 0
6, 100704, Note_on_c, 6, 74, 110
6, 100750, Note_on_c, 6, 74, 0
6, 100752, Note_on_c, 6, 78, 110
6, 100798, Note_on_c, 6, 78, 0
6, 100800, Note_on_c, 6, 76, 110
6, 100846, Note_on_c, 6, 76, 0
6, 100848, Note_on_c, 6, 85, 110
6, 100894, Note_on_c, 6, 85, 0
6, 100896, Note_on_c, 6, 83, 110
6, 100942, Note_on_c, 6, 83, 0
6, 100944, Note_on_c, 6, 81, 110
6, 100990, Note_on_c, 6, 81, 0
6, 100992, Note_on_c, 6, 80, 110
6, 101038, Note_on_c, 6, 80, 0
6, 101040, Note_on_c, 6, 86, 110
6, 101086, Note_on_c, 6, 86, 0
6, 101088, Note_on_c, 6, 83, 110
6, 101134, Note_on_c, 6, 83, 0
6, 101136, Note_on_c, 6, 80, 110
6, 101182, Note_on_c, 6, 80, 0
6, 101184, Note_on_c, 6, 83, 110
6, 101230, Note_on_c, 6, 83, 0
6, 101232, Note_on_c, 6, 81, 110
6, 101278, Note_on_c, 6, 81, 0
6, 101280, Note_on_c, 6, 76, 110
6, 101326, Note_on_c, 6, 76, 0
6, 101328, Note_on_c, 6, 73, 110
6, 101374, Note_on_c, 6, 73, 0
6, 101376, Note_on_c, 6, 69, 110
6, 101536, Note_on_c, 6, 69, 0
6, 101568, Note_on_c, 6, 67, 110
6, 101614, Note_on_c, 6, 67, 0
6, 101616, Note_on_c, 6, 69, 110
6, 101662, Note_on_c, 6, 69, 0
6, 101664, Note_on_c, 6, 85, 110
6, 101710, Note_on_c, 6, 85, 0
6, 101712, Note_on_c, 6, 69, 110
6, 101758, Note_on_c, 6, 69, 0
6, 101760, Note_on_c, 6, 66, 110
6, 101806, Note_on_c, 6, 66, 0
6, 101808, Note_on_c, 6, 69, 110
6, 101854, Note_on_c, 6, 69, 0
6, 101856, Note_on_c, 6, 86, 110
6, 101902, Note_on_c, 6, 86, 0
6, 101904, Note_on_c, 6, 69, 110
6, 101950, Note_on_c, 6, 69, 0
6, 101952, Note_on_c, 6, 67, 110
6, 101998, Note_on_c, 6, 67, 0
6, 102000, Note_on_c, 6, 69, 110
6, 102046, Note_on_c, 6, 69, 0
6, 102048, Note_on_c, 6, 88, 110
6, 102094, Note_on_c, 6, 88, 0
6, 102096, Note_on_c, 6, 69, 110
6, 102142, Note_on_c, 6, 69, 0
6, 102144, Note_on_c, 6, 66, 110
6, 102190, Note_on_c, 6, 66, 0
6, 102192, Note_on_c, 6, 69, 110
6, 102238, Note_on_c, 6, 69, 0
6, 102240, Note_on_c, 6, 86, 110
6, 102286, Note_on_c, 6, 86, 0
6, 102288, Note_on_c, 6, 81, 110
6, 102334, Note_on_c, 6, 81, 0
6, 102336, Note_on_c, 6, 79, 110
6, 102382, Note_on_c, 6, 79, 0
6, 102384, Note_on_c, 6, 81, 110
6, 102430, Note_on_c, 6, 81, 0
6, 102432, Note_on_c, 6, 78, 110
6, 102478, Note_on_c, 6, 78, 0
6, 102480, Note_on_c, 6, 81, 110
6, 102526, Note_on_c, 6, 81, 0
6, 102528, Note_on_c, 6, 76, 110
6, 102574, Note_on_c, 6, 76, 0
6, 102576, Note_on_c, 6, 81, 110
6, 102622, Note_on_c, 6, 81, 0
6, 102624, Note_on_c, 6, 74, 110
6, 102670, Note_on_c, 6, 74, 0
6, 102672, Note_on_c, 6, 81, 110
6, 102718, Note_on_c, 6, 81, 0
6, 102720, Note_on_c, 6, 73, 110
6, 102766, Note_on_c, 6, 73, 0
6, 102768, Note_on_c, 6, 81, 110
6, 102814, Note_on_c, 6, 81, 0
6, 102816, Note_on_c, 6, 71, 110
6, 102862, Note_on_c, 6, 71, 0
6, 102864, Note_on_c, 6, 81, 110
6, 102910, Note_on_c, 6, 81, 0
6, 102912, Note_on_c, 6, 69, 110
6, 103072, Note_on_c, 6, 69, 0
6, 103104, Note_on_c, 6, 67, 110
6, 103150, Note_on_c, 6, 67, 0
6, 103152, Note_on_c, 6, 69, 110
6, 103198, Note_on_c, 6, 69, 0
6, 103200, Note_on_c, 6, 85, 110
6, 103246, Note_on_c, 6, 85, 0
6, 103248, Note_on_c, 6, 69, 110
6, 103294, Note_on_c, 6, 69, 0
6, 103296, Note_on_c, 6, 66, 110
6, 103342, Note_on_c, 6, 66, 0
6, 103344, Note_on_c, 6, 69, 110
6, 103390, Note_on_c, 6, 69, 0
6, 103392, Note_on_c, 6, 86, 110
6, 103438, Note_on_c, 6, 86, 0
6, 103440, Note_on_c, 6, 69, 110
6, 103486, Note_on_c, 6, 69, 0
6, 103488, Note_on_c, 6, 67, 110
6, 103534, Note_on_c, 6, 67, 0
6, 103536, Note_on_c, 6, 69, 110
6, 103582, Note_on_c, 6, 69, 0
6, 103584, Note_on_c, 6, 88, 110
6, 103630, Note_on_c, 6, 88, 0
6, 103632, Note_on_c, 6, 69, 110
6, 103678, Note_on_c, 6, 69, 0
6, 103680, Note_on_c, 6, 66, 110
6, 103726, Note_on_c, 6, 66, 0
6, 103728, Note_on_c, 6, 69, 110
6, 103774, Note_on_c, 6, 69, 0
6, 103776, Note_on_c, 6, 86, 110
6, 103822, Note_on_c, 6, 86, 0
6, 103824, Note_on_c, 6, 81, 110
6, 103870, Note_on_c, 6, 81, 0
6, 103872, Note_on_c, 6, 79, 110
6, 103918, Note_on_c, 6, 79, 0
6, 103920, Note_on_c, 6, 81, 110
6, 103966, Note_on_c, 6, 81, 0
6, 103968, Note_on_c, 6, 78, 110
6, 104014, Note_on_c, 6, 78, 0
6, 104016, Note_on_c, 6, 81, 110
6, 104062, Note_on_c, 6, 81, 0
6, 104064, Note_on_c, 6, 76, 110
6, 104110, Note_on_c, 6, 76, 0
6, 104112, Note_on_c, 6, 81, 110
6, 104158, Note_on_c, 6, 81, 0
6, 104160, Note_on_c, 6, 69, 110
6, 104416, Note_on_c, 6, 69, 0
6, 104448, Note_on_c, 6, 81, 110
6, 104494, Note_on_c, 6, 81, 0
6, 104496, Note_on_c, 6, 78, 110
6, 104542, Note_on_c, 6, 78, 0
6, 104544, Note_on_c, 6, 79, 110
6, 104590, Note_on_c, 6, 79, 0
6, 104592, Note_on_c, 6, 76, 110
6, 104638, Note_on_c, 6, 76, 0
6, 104640, Note_on_c, 6, 74, 110
6, 104686, Note_on_c, 6, 74, 0
6, 104688, Note_on_c, 6, 73, 110
6, 104734, Note_on_c, 6, 73, 0
6, 104736, Note_on_c, 6, 74, 110
6, 104782, Note_on_c, 6, 74, 0
6, 104784, Note_on_c, 6, 76, 110
6, 104830, Note_on_c, 6, 76, 0
6, 104832, Note_on_c, 6, 78, 110
6, 104878, Note_on_c, 6, 78, 0
6, 104880, Note_on_c, 6, 76, 110
6, 104926, Note_on_c, 6, 76, 0
6, 104928, Note_on_c, 6, 78, 110
6, 104974, Note_on_c, 6, 78, 0
6, 104976, Note_on_c, 6, 79, 110
6, 105022, Note_on_c, 6, 79, 0
6, 105024, Note_on_c, 6, 81, 110
6, 105070, Note_on_c, 6, 81, 0
6, 105072, Note_on_c, 6, 78, 110
6, 105118, Note_on_c, 6, 78, 0
6, 105120, Note_on_c, 6, 74, 110
6, 105166, Note_on_c, 6, 74, 0
6, 105168, Note_on_c, 6, 69, 110
6, 105214, Note_on_c, 6, 69, 0
6, 105216, Note_on_c, 6, 66, 110
6, 105262, Note_on_c, 6, 66, 0
6, 105264, Note_on_c, 6, 69, 110
6, 105310, Note_on_c, 6, 69, 0
6, 105312, Note_on_c, 6, 74, 110
6, 105358, Note_on_c, 6, 74, 0
6, 105360, Note_on_c, 6, 78, 110
6, 105406, Note_on_c, 6, 78, 0
6, 105408, Note_on_c, 6, 83, 110
6, 105430, Note_on_c, 6, 83, 0
6, 105432, Note_on_c, 6, 81, 110
6, 105454, Note_on_c, 6, 81, 0
6, 105456, Note_on_c, 6, 79, 110
6, 105502, Note_on_c, 6, 79, 0
6, 105504, Note_on_c, 6, 78, 110
6, 105550, Note_on_c, 6, 78, 0
6, 105552, Note_on_c, 6, 79, 110
6, 105598, Note_on_c, 6, 79, 0
6, 105600, Note_on_c, 6, 81, 110
6, 105646, Note_on_c, 6, 81, 0
6, 105648, Note_on_c, 6, 83, 110
6, 105694, Note_on_c, 6, 83, 0
6, 105696, Note_on_c, 6, 85, 110
6, 105742, Note_on_c, 6, 85, 0
6, 105744, Note_on_c, 6, 86, 110
6, 105790, Note_on_c, 6, 86, 0
6, 105792, Note_on_c, 6, 81, 110
6, 105952, Note_on_c, 6, 81, 0
6, 105984, Note_on_c, 6, 80, 110
6, 106030, Note_on_c, 6, 80, 0
6, 106032, Note_on_c, 6, 81, 110
6, 106078, Note_on_c, 6, 81, 0
6, 106080, Note_on_c, 6, 80, 110
6, 106126, Note_on_c, 6, 80, 0
6, 106128, Note_on_c, 6, 81, 110
6, 106174, Note_on_c, 6, 81, 0
6, 106176, Note_on_c, 6, 83, 110
6, 106222, Note_on_c, 6, 83, 0
6, 106224, Note_on_c, 6, 81, 110
6, 106270, Note_on_c, 6, 81, 0
6, 106272, Note_on_c, 6, 81, 110
6, 106318, Note_on_c, 6, 81, 0
6, 106320, Note_on_c, 6, 73, 110
6, 106366, Note_on_c, 6, 73, 0
6, 106368, Note_on_c, 6, 69, 110
6, 106414, Note_on_c, 6, 69, 0
6, 106416, Note_on_c, 6, 69, 110
6, 106462, Note_on_c, 6, 69, 0
6, 106464, Note_on_c, 6, 71, 110
6, 106510, Note_on_c, 6, 71, 0
6, 106512, Note_on_c, 6, 69, 110
6, 106558, Note_on_c, 6, 69, 0
6, 106560, Note_on_c, 6, 79, 110
6, 106606, Note_on_c, 6, 79, 0
6, 106608, Note_on_c, 6, 78, 110
6, 106654, Note_on_c, 6, 78, 0
6, 106656, Note_on_c, 6, 74, 110
6, 106702, Note_on_c, 6, 74, 0
6, 106704, Note_on_c, 6, 69, 110
6, 106750, Note_on_c, 6, 69, 0
6, 106752, Note_on_c, 6, 66, 110
6, 106798, Note_on_c, 6, 66, 0
6, 106800, Note_on_c, 6, 69, 110
6, 106846, Note_on_c, 6, 69, 0
6, 106848, Note_on_c, 6, 74, 110
6, 106894, Note_on_c, 6, 74, 0
6, 106896, Note_on_c, 6, 78, 110
6, 106942, Note_on_c, 6, 78, 0
6, 106944, Note_on_c, 6, 78, 110
6, 106966, Note_on_c, 6, 78, 0
6, 106968, Note_on_c, 6, 76, 110
6, 106990, Note_on_c, 6, 76, 0
6, 106992, Note_on_c, 6, 78, 110
6, 107038, Note_on_c, 6, 78, 0
6, 107040, Note_on_c, 6, 76, 110
6, 107086, Note_on_c, 6, 76, 0
6, 107088, Note_on_c, 6, 78, 110
6, 107134, Note_on_c, 6, 78, 0
6, 107136, Note_on_c, 6, 79, 110
6, 107182, Note_on_c, 6, 79, 0
6, 107184, Note_on_c, 6, 81, 110
6, 107230, Note_on_c, 6, 81, 0
6, 107232, Note_on_c, 6, 83, 110
6, 107278, Note_on_c, 6, 83, 0
6, 107280, Note_on_c, 6, 85, 110
6, 107326, Note_on_c, 6, 85, 0
6, 107328, Note_on_c, 6, 86, 110
6, 107488, Note_on_c, 6, 86, 0
6, 107520, Note_on_c, 6, 86, 110
6, 107566, Note_on_c, 6, 86, 0
6, 107616, Note_on_c, 6, 86, 110
6, 107662, Note_on_c, 6, 86, 0
6, 107712, Note_on_c, 6, 76, 110
6, 107758, Note_on_c, 6, 76, 0
6, 107760, Note_on_c, 6, 73, 110
6, 107806, Note_on_c, 6, 73, 0
6, 107808, Note_on_c, 6, 69, 110
6, 107854, Note_on_c, 6, 69, 0
6, 107856, Note_on_c, 6, 78, 110
6, 107902, Note_on_c, 6, 78, 0
6, 107904, Note_on_c, 6, 79, 110
6, 107950, Note_on_c, 6, 79, 0
6, 107952, Note_on_c, 6, 73, 110
6, 107998, Note_on_c, 6, 73, 0
6, 108000, Note_on_c, 6, 69, 110
6, 108046, Note_on_c, 6, 69, 0
6, 108048, Note_on_c, 6, 81, 110
6, 108094, Note_on_c, 6, 81, 0
6, 108096, Note_on_c, 6, 78, 110
6, 108142, Note_on_c, 6, 78, 0
6, 108144, Note_on_c, 6, 79, 110
6, 108190, Note_on_c, 6, 79, 0
6, 108192, Note_on_c, 6, 78, 110
6, 108238, Note_on_c, 6, 78, 0
6, 108240, Note_on_c, 6, 79, 110
6, 108286, Note_on_c, 6, 79, 0
6, 108288, Note_on_c, 6, 81, 110
6, 108334, Note_on_c, 6, 81, 0
6, 108336, Note_on_c, 6, 83, 110
6, 108382, Note_on_c, 6, 83, 0
6, 108384, Note_on_c, 6, 85, 110
6, 108430, Note_on_c, 6, 85, 0
6, 108432, Note_on_c, 6, 86, 110
6, 108478, Note_on_c, 6, 86, 0
6, 108480, Note_on_c, 6, 76, 110
6, 108526, Note_on_c, 6, 76, 0
6, 108528, Note_on_c, 6, 73, 110
6, 108574, Note_on_c, 6, 73, 0
6, 108576, Note_on_c, 6, 69, 110
6, 108622, Note_on_c, 6, 69, 0
6, 108624, Note_on_c, 6, 78, 110
6, 108670, Note_on_c, 6, 78, 0
6, 108672, Note_on_c, 6, 79, 110
6, 108718, Note_on_c, 6, 79, 0
6, 108720, Note_on_c, 6, 76, 110
6, 108766, Note_on_c, 6, 76, 0
6, 108768, Note_on_c, 6, 69, 110
6, 108814, Note_on_c, 6, 69, 0
6, 108816, Note_on_c, 6, 81, 110
6, 108862, Note_on_c, 6, 81, 0
6, 108864, Note_on_c, 6, 78, 110
6, 109024, Note_on_c, 6, 78, 0
6, 109056, Note_on_c, 6, 86, 110
6, 109102, Note_on_c, 6, 86, 0
6, 109152, Note_on_c, 6, 86, 110
6, 109198, Note_on_c, 6, 86, 0
6, 109248, Note_on_c, 6, 76, 110
6, 109294, Note_on_c, 6, 76, 0
6, 109296, Note_on_c, 6, 73, 110
6, 109342, Note_on_c, 6, 73, 0
6, 109344, Note_on_c, 6, 69, 110
6, 109390, Note_on_c, 6, 69, 0
6, 109392, Note_on_c, 6, 78, 110
6, 109438, Note_on_c, 6, 78, 0
6, 109440, Note_on_c, 6, 79, 110
6, 109486, Note_on_c, 6, 79, 0
6, 109488, Note_on_c, 6, 73, 110
6, 109534, Note_on_c, 6, 73, 0
6, 109536, Note_on_c, 6, 69, 110
6, 109582, Note_on_c, 6, 69, 0
6, 109584, Note_on_c, 6, 81, 110
6, 109630, Note_on_c, 6, 81, 0
6, 109632, Note_on_c, 6, 78, 110
6, 109678, Note_on_c, 6, 78, 0
6, 109680, Note_on_c, 6, 79, 110
6, 109726, Note_on_c, 6, 79, 0
6, 109728, Note_on_c, 6, 81, 110
6, 109774, Note_on_c, 6, 81, 0
6, 109776, Note_on_c, 6, 83, 110
6, 109822, Note_on_c, 6, 83, 0
6, 109824, Note_on_c, 6, 85, 110
6, 109870, Note_on_c, 6, 85, 0
6, 109872, Note_on_c, 6, 86, 110
6, 109918, Note_on_c, 6, 86, 0
6, 109920, Note_on_c, 6, 81, 110
6, 109966, Note_on_c, 6, 81, 0
6, 109968, Note_on_c, 6, 78, 110
6, 110014, Note_on_c, 6, 78, 0
6, 110016, Note_on_c, 6, 80, 110
6, 110062, Note_on_c, 6, 80, 0
6, 110064, Note_on_c, 6, 81, 110
6, 110110, Note_on_c, 6, 81, 0
6, 110112, Note_on_c, 6, 78, 110
6, 110158, Note_on_c, 6, 78, 0
6, 110160, Note_on_c, 6, 74, 110
6, 110206, Note_on_c, 6, 74, 0
6, 110208, Note_on_c, 6, 78, 110
6, 110230, Note_on_c, 6, 78, 0
6, 110232, Note_on_c, 6, 76, 110
6, 110254, Note_on_c, 6, 76, 0
6, 110256, Note_on_c, 6, 78, 110
6, 110278, Note_on_c, 6, 78, 0
6, 110280, Note_on_c, 6, 76, 110
6, 110302, Note_on_c, 6, 76, 0
6, 110304, Note_on_c, 6, 78, 110
6, 110326, Note_on_c, 6, 78, 0
6, 110328, Note_on_c, 6, 76, 110
6, 110350, Note_on_c, 6, 76, 0
6, 110352, Note_on_c, 6, 78, 110
6, 110374, Note_on_c, 6, 78, 0
6, 110376, Note_on_c, 6, 76, 110
6, 110398, Note_on_c, 6, 76, 0
6, 110400, Note_on_c, 6, 78, 110
6, 110422, Note_on_c, 6, 78, 0
6, 110424, Note_on_c, 6, 76, 110
6, 110446, Note_on_c, 6, 76, 0
6, 110448, Note_on_c, 6, 78, 110
6, 110470, Note_on_c, 6, 78, 0
6, 110472, Note_on_c, 6, 76, 110
6, 110494, Note_on_c, 6, 76, 0
6, 110496, Note_on_c, 6, 78, 110
6, 110518, Note_on_c, 6, 78, 0
6, 110520, Note_on_c, 6, 76, 110
6, 110542, Note_on_c, 6, 76, 0
6, 110544, Note_on_c, 6, 78, 110
6, 110566, Note_on_c, 6, 78, 0
6, 110568, Note_on_c, 6, 76, 110
6, 110590, Note_on_c, 6, 76, 0
6, 110592, Note_on_c, 6, 78, 110
6, 110614, Note_on_c, 6, 78, 0
6, 110616, Note_on_c, 6, 76, 110
6, 110638, Note_on_c, 6, 76, 0
6, 110640, Note_on_c, 6, 78, 110
6, 110662, Note_on_c, 6, 78, 0
6, 110664, Note_on_c, 6, 76, 110
6, 110686, Note_on_c, 6, 76, 0
6, 110688, Note_on_c, 6, 78, 110
6, 110710, Note_on_c, 6, 78, 0
6, 110712, Note_on_c, 6, 76, 110
6, 110734, Note_on_c, 6, 76, 0
6, 110736, Note_on_c, 6, 78, 110
6, 110758, Note_on_c, 6, 78, 0
6, 110760, Note_on_c, 6, 76, 110
6, 110782, Note_on_c, 6, 76, 0
6, 110784, Note_on_c, 6, 78, 110
6, 110806, Note_on_c, 6, 78, 0
6, 110808, Note_on_c, 6, 76, 110
6, 110830, Note_on_c, 6, 76, 0
6, 110832, Note_on_c, 6, 78, 110
6, 110854, Note_on_c, 6, 78, 0
6, 110856, Note_on_c, 6, 76, 110
6, 110878, Note_on_c, 6, 76, 0
6, 110880, Note_on_c, 6, 78, 110
6, 110902, Note_on_c, 6, 78, 0
6, 110904, Note_on_c, 6, 76, 110
6, 110926, Note_on_c, 6, 76, 0
6, 110928, Note_on_c, 6, 78, 110
6, 110950, Note_on_c, 6, 78, 0
6, 110952, Note_on_c, 6, 76, 110
6, 110974, Note_on_c, 6, 76, 0
6, 110976, Note_on_c, 6, 78, 110
6, 110998, Note_on_c, 6, 78, 0
6, 111000, Note_on_c, 6, 76, 110
6, 111022, Note_on_c, 6, 76, 0
6, 111024, Note_on_c, 6, 78, 110
6, 111046, Note_on_c, 6, 78, 0
6, 111048, Note_on_c, 6, 76, 110
6, 111070, Note_on_c, 6, 76, 0
6, 111072, Note_on_c, 6, 74, 110
6, 111118, Note_on_c, 6, 74, 0
6, 111120, Note_on_c, 6, 76, 110
6, 111166, Note_on_c, 6, 76, 0
6, 111168, Note_on_c, 6, 74, 110
6, 111504, Note_on_c, 6, 74, 0
6, 111552, Note_on_c, 6, 75, 110
6, 111600, Note_on_c, 6, 75, 0
6, 111600, Note_on_c, 6, 76, 110
6, 111934, Note_on_c, 6, 76, 0
6, 111936, Note_on_c, 6, 77, 110
6, 111984, Note_on_c, 6, 77, 0
6, 111984, Note_on_c, 6, 78, 110
6, 112318, Note_on_c, 6, 78, 0
6, 112320, Note_on_c, 6, 79, 110
6, 112368, Note_on_c, 6, 79, 0
6, 112368, Note_on_c, 6, 78, 110
6, 112416, Note_on_c, 6, 78, 0
6, 112416, Note_on_c, 6, 76, 110
6, 112464, Note_on_c, 6, 76, 0
6, 112464, Note_on_c, 6, 78, 110
6, 112512, Note_on_c, 6, 78, 0
6, 112512, Note_on_c, 6, 79, 110
6, 112560, Note_on_c, 6, 79, 0
6, 112560, Note_on_c, 6, 81, 110
6, 112608, Note_on_c, 6, 81, 0
6, 112608, Note_on_c, 6, 83, 110
6, 112656, Note_on_c, 6, 83, 0
6, 112656, Note_on_c, 6, 85, 110
6, 112702, Note_on_c, 6, 85, 0
6, 112704, Note_on_c, 6, 86, 110
6, 112798, Note_on_c, 6, 86, 0
6, 112800, Note_on_c, 6, 86, 110
6, 112896, Note_on_c, 6, 86, 0
6, 112896, Note_on_c, 6, 85, 110
6, 112992, Note_on_c, 6, 85, 0
6, 112992, Note_on_c, 6, 84, 110
6, 113086, Note_on_c, 6, 84, 0
6, 113088, Note_on_c, 6, 83, 110
6, 113184, Note_on_c, 6, 83, 0
6, 113184, Note_on_c, 6, 82, 110
6, 113278, Note_on_c, 6, 82, 0
6, 113280, Note_on_c, 6, 81, 110
6, 113328, Note_on_c, 6, 81, 0
6, 113328, Note_on_c, 6, 78, 110
6, 113374, Note_on_c, 6, 78, 0
6, 113376, Note_on_c, 6, 79, 110
6, 113408, Note_on_c, 6, 79, 0
6, 113424, Note_on_c, 6, 76, 110
6, 113456, Note_on_c, 6, 76, 0
6, 113472, Note_on_c, 6, 74, 110
6, 113566, Note_on_c, 6, 74, 0
6, 113664, Note_on_c, 6, 78, 110
6, 113688, Note_on_c, 6, 78, 0
6, 113688, Note_on_c, 6, 76, 110
6, 113712, Note_on_c, 6, 76, 0
6, 113712, Note_on_c, 6, 78, 110
6, 113736, Note_on_c, 6, 78, 0
6, 113736, Note_on_c, 6, 76, 110
6, 113760, Note_on_c, 6, 76, 0
6, 113760, Note_on_c, 6, 78, 110
6, 113784, Note_on_c, 6, 78, 0
6, 113784, Note_on_c, 6, 76, 110
6, 113808, Note_on_c, 6, 76, 0
6, 113808, Note_on_c, 6, 74, 110
6, 113832, Note_on_c, 6, 74, 0
6, 113832, Note_on_c, 6, 76, 110
6, 113854, Note_on_c, 6, 76, 0
6, 113856, Note_on_c, 6, 78, 110
6, 113950, Note_on_c, 6, 78, 0
6, 114048, Note_on_c, 6, 78, 110
6, 114080, Note_on_c, 6, 78, 0
6, 114144, Note_on_c, 6, 79, 110
6, 114176, Note_on_c, 6, 79, 0
6, 114240, Note_on_c, 6, 81, 110
6, 114272, Note_on_c, 6, 81, 0
6, 114336, Note_on_c, 6, 83, 110
6, 114368, Note_on_c, 6, 83, 0
6, 114432, Note_on_c, 6, 85, 110
6, 114464, Note_on_c, 6, 85, 0
6, 114528, Note_on_c, 6, 86, 110
6, 114560, Note_on_c, 6, 86, 0
6, 114624, Note_on_c, 6, 81, 110
6, 114784, Note_on_c, 6, 81, 0
6, 114816, Note_on_c, 6, 83, 110
6, 114864, Note_on_c, 6, 83, 0
6, 114864, Note_on_c, 6, 81, 110
6, 114910, Note_on_c, 6, 81, 0
6, 114912, Note_on_c, 6, 79, 110
6, 114958, Note_on_c, 6, 79, 0
6, 114960, Note_on_c, 6, 78, 110
6, 115006, Note_on_c, 6, 78, 0
6, 115008, Note_on_c, 6, 78, 110
6, 115030, Note_on_c, 6, 78, 0
6, 115032, Note_on_c, 6, 76, 110
6, 115054, Note_on_c, 6, 76, 0
6, 115056, Note_on_c, 6, 75, 110
6, 115102, Note_on_c, 6, 75, 0
6, 115104, Note_on_c, 6, 76, 110
6, 115136, Note_on_c, 6, 76, 0
6, 115152, Note_on_c, 6, 78, 110
6, 115184, Note_on_c, 6, 78, 0
6, 115200, Note_on_c, 6, 79, 110
6, 115248, Note_on_c, 6, 79, 0
6, 115248, Note_on_c, 6, 76, 110
6, 115294, Note_on_c, 6, 76, 0
6, 115296, Note_on_c, 6, 78, 110
6, 115328, Note_on_c, 6, 78, 0
6, 115344, Note_on_c, 6, 74, 110
6, 115376, Note_on_c, 6, 74, 0
6, 115392, Note_on_c, 6, 73, 110
6, 115488, Note_on_c, 6, 73, 0
6, 115488, Note_on_c, 6, 76, 110
6, 115582, Note_on_c, 6, 76, 0
6, 118656, Note_on_c, 6, 86, 110
6, 118688, Note_on_c, 6, 86, 0
6, 118752, Note_on_c, 6, 86, 110
6, 118784, Note_on_c, 6, 86, 0
6, 118848, Note_on_c, 6, 78, 110
6, 119008, Note_on_c, 6, 78, 0
6, 119040, Note_on_c, 6, 83, 110
6, 119088, Note_on_c, 6, 83, 0
6, 119088, Note_on_c, 6, 81, 110
6, 119134, Note_on_c, 6, 81, 0
6, 119136, Note_on_c, 6, 83, 110
6, 119168, Note_on_c, 6, 83, 0
6, 119184, Note_on_c, 6, 80, 110
6, 119216, Note_on_c, 6, 80, 0
6, 119232, Note_on_c, 6, 81, 110
6, 119472, Note_on_c, 6, 81, 0
6, 119472, Note_on_c, 6, 85, 110
6, 119518, Note_on_c, 6, 85, 0
6, 119520, Note_on_c, 6, 83, 110
6, 119552, Note_on_c, 6, 83, 0
6, 119568, Note_on_c, 6, 80, 110
6, 119600, Note_on_c, 6, 80, 0
6, 119616, Note_on_c, 6, 81, 110
6, 119664, Note_on_c, 6, 81, 0
6, 119664, Note_on_c, 6, 85, 110
6, 119710, Note_on_c, 6, 85, 0
6, 119712, Note_on_c, 6, 83, 110
6, 119744, Note_on_c, 6, 83, 0
6, 119760, Note_on_c, 6, 80, 110
6, 119792, Note_on_c, 6, 80, 0
6, 119808, Note_on_c, 6, 81, 110
6, 119856, Note_on_c, 6, 81, 0
6, 119856, Note_on_c, 6, 85, 110
6, 119902, Note_on_c, 6, 85, 0
6, 119904, Note_on_c, 6, 83, 110
6, 119936, Note_on_c, 6, 83, 0
6, 119952, Note_on_c, 6, 80, 110
6, 119984, Note_on_c, 6, 80, 0
6, 120000, Note_on_c, 6, 81, 110
6, 120192, Note_on_c, 6, 81, 0
6, 120192, Note_on_c, 6, 82, 110
6, 120240, Note_on_c, 6, 82, 0
6, 120240, Note_on_c, 6, 83, 110
6, 120286, Note_on_c, 6, 83, 0
6, 120288, Note_on_c, 6, 79, 110
6, 120320, Note_on_c, 6, 79, 0
6, 120336, Note_on_c, 6, 76, 110
6, 120368, Note_on_c, 6, 76, 0
6, 120384, Note_on_c, 6, 71, 110
6, 120416, Note_on_c, 6, 71, 0
6, 120480, Note_on_c, 6, 76, 110
6, 120528, Note_on_c, 6, 76, 0
6, 120552, Note_on_c, 6, 74, 110
6, 120574, Note_on_c, 6, 74, 0
6, 120576, Note_on_c, 6, 74, 110
6, 120600, Note_on_c, 6, 74, 0
6, 120600, Note_on_c, 6, 73, 110
6, 120624, Note_on_c, 6, 73, 0
6, 120624, Note_on_c, 6, 74, 110
6, 120648, Note_on_c, 6, 74, 0
6, 120648, Note_on_c, 6, 73, 110
6, 120672, Note_on_c, 6, 73, 0
6, 120672, Note_on_c, 6, 71, 110
6, 120720, Note_on_c, 6, 71, 0
6, 120720, Note_on_c, 6, 73, 110
6, 120766, Note_on_c, 6, 73, 0
6, 120768, Note_on_c, 6, 74, 110
6, 120928, Note_on_c, 6, 74, 0
6, 120960, Note_on_c, 6, 74, 110
6, 121008, Note_on_c, 6, 74, 0
6, 121008, Note_on_c, 6, 78, 110
6, 121054, Note_on_c, 6, 78, 0
6, 121056, Note_on_c, 6, 76, 110
6, 121088, Note_on_c, 6, 76, 0
6, 121104, Note_on_c, 6, 73, 110
6, 121136, Note_on_c, 6, 73, 0
6, 121152, Note_on_c, 6, 74, 110
6, 121200, Note_on_c, 6, 74, 0
6, 121200, Note_on_c, 6, 78, 110
6, 121246, Note_on_c, 6, 78, 0
6, 121248, Note_on_c, 6, 76, 110
6, 121280, Note_on_c, 6, 76, 0
6, 121296, Note_on_c, 6, 73, 110
6, 121328, Note_on_c, 6, 73, 0
6, 121344, Note_on_c, 6, 74, 110
6, 121392, Note_on_c, 6, 74, 0
6, 121392, Note_on_c, 6, 78, 110
6, 121438, Note_on_c, 6, 78, 0
6, 121440, Note_on_c, 6, 76, 110
6, 121472, Note_on_c, 6, 76, 0
6, 121488, Note_on_c, 6, 73, 110
6, 121520, Note_on_c, 6, 73, 0
6, 121536, Note_on_c, 6, 74, 110
6, 121696, Note_on_c, 6, 74, 0
6, 121696, End_track
7, 0, Start_track
7, 0, MIDI_port, 0
7, 0, Title_t, "Violino I"
7, 0, Program_c, 7, 48
7, 0, Control_c, 7, 7, 127
7, 0, Control_c, 7, 10, 64
7, 384, Note_on_c, 7, 69, 45
7, 478, Note_on_c, 7, 69, 0
7, 576, Note_on_c, 7, 74, 45
7, 600, Note_on_c, 7, 74, 0
7, 600, Note_on_c, 7, 73, 45
7, 624, Note_on_c, 7, 73, 0
7, 624, Note_on_c, 7, 74, 45
7, 648, Note_on_c, 7, 74, 0
7, 648, Note_on_c, 7, 73, 45
7, 672, Note_on_c, 7, 73, 0
7, 672, Note_on_c, 7, 74, 45
7, 696, Note_on_c, 7, 74, 0
7, 696, Note_on_c, 7, 73, 45
7, 720, Note_on_c, 7, 73, 0
7, 720, Note_on_c, 7, 71, 45
7, 744, Note_on_c, 7, 71, 0
7, 744, Note_on_c, 7, 73, 45
7, 766, Note_on_c, 7, 73, 0
7, 768, Note_on_c, 7, 74, 45
7, 862, Note_on_c, 7, 74, 0
7, 960, Note_on_c, 7, 74, 45
7, 992, Note_on_c, 7, 74, 0
7, 1056, Note_on_c, 7, 74, 45
7, 1088, Note_on_c, 7, 74, 0
7, 1152, Note_on_c, 7, 74, 45
7, 1184, Note_on_c, 7, 74, 0
7, 1248, Note_on_c, 7, 74, 45
7, 1280, Note_on_c, 7, 74, 0
7, 1344, Note_on_c, 7, 74, 45
7, 1376, Note_on_c, 7, 74, 0
7, 1440, Note_on_c, 7, 74, 45
7, 1472, Note_on_c, 7, 74, 0
7, 1536, Note_on_c, 7, 74, 45
7, 1696, Note_on_c, 7, 74, 0
7, 1824, Note_on_c, 7, 69, 45
7, 1918, Note_on_c, 7, 69, 0
7, 1920, Note_on_c, 7, 69, 45
7, 2176, Note_on_c, 7, 69, 0
7, 2208, Note_on_c, 7, 69, 45
7, 2302, Note_on_c, 7, 69, 0
7, 2304, Note_on_c, 7, 69, 45
7, 2464, Note_on_c, 7, 69, 0
7, 2688, Note_on_c, 7, 69, 45
7, 2782, Note_on_c, 7, 69, 0
7, 2880, Note_on_c, 7, 74, 45
7, 2904, Note_on_c, 7, 74, 0
7, 2904, Note_on_c, 7, 73, 45
7, 2928, Note_on_c, 7, 73, 0
7, 2928, Note_on_c, 7, 74, 45
7, 2952, Note_on_c, 7, 74, 0
7, 2952, Note_on_c, 7, 73, 45
7, 2976, Note_on_c, 7, 73, 0
7, 2976, Note_on_c, 7, 74, 45
7, 3000, Note_on_c, 7, 74, 0
7, 3000, Note_on_c, 7, 73, 45
7, 3024, Note_on_c, 7, 73, 0
7, 3024, Note_on_c, 7, 71, 45
7, 3048, Note_on_c, 7, 71, 0
7, 3048, Note_on_c, 7, 73, 45
7, 3070, Note_on_c, 7, 73, 0
7, 3072, Note_on_c, 7, 74, 45
7, 3166, Note_on_c, 7, 74, 0
7, 3264, Note_on_c, 7, 74, 45
7, 3296, Note_on_c, 7, 74, 0
7, 3360, Note_on_c, 7, 74, 45
7, 3392, Note_on_c, 7, 74, 0
7, 3456, Note_on_c, 7, 74, 45
7, 3488, Note_on_c, 7, 74, 0
7, 3552, Note_on_c, 7, 74, 45
7, 3584, Note_on_c, 7, 74, 0
7, 3648, Note_on_c, 7, 74, 45
7, 3680, Note_on_c, 7, 74, 0
7, 3744, Note_on_c, 7, 74, 45
7, 3776, Note_on_c, 7, 74, 0
7, 3840, Note_on_c, 7, 74, 45
7, 4000, Note_on_c, 7, 74, 0
7, 4128, Note_on_c, 7, 74, 45
7, 4222, Note_on_c, 7, 74, 0
7, 4224, Note_on_c, 7, 64, 45
7, 4384, Note_on_c, 7, 64, 0
7, 4416, Note_on_c, 7, 66, 45
7, 4510, Note_on_c, 7, 66, 0
7, 4512, Note_on_c, 7, 67, 45
7, 4606, Note_on_c, 7, 67, 0
7, 4608, Note_on_c, 7, 66, 45
7, 4768, Note_on_c, 7, 66, 0
7, 4800, Note_on_c, 7, 81, 92
7, 4848, Note_on_c, 7, 81, 0
7, 4848, Note_on_c, 7, 78, 92
7, 4894, Note_on_c, 7, 78, 0
7, 4896, Note_on_c, 7, 79, 92
7, 4944, Note_on_c, 7, 79, 0
7, 4944, Note_on_c, 7, 76, 92
7, 4990, Note_on_c, 7, 76, 0
7, 4992, Note_on_c, 7, 74, 92
7, 5086, Note_on_c, 7, 74, 0
7, 5184, Note_on_c, 7, 78, 92
7, 5208, Note_on_c, 7, 78, 0
7, 5208, Note_on_c, 7, 76, 92
7, 5232, Note_on_c, 7, 76, 0
7, 5232, Note_on_c, 7, 78, 92
7, 5256, Note_on_c, 7, 78, 0
7, 5256, Note_on_c, 7, 76, 92
7, 5280, Note_on_c, 7, 76, 0
7, 5280, Note_on_c, 7, 78, 92
7, 5304, Note_on_c, 7, 78, 0
7, 5304, Note_on_c, 7, 76, 92
7, 5328, Note_on_c, 7, 76, 0
7, 5328, Note_on_c, 7, 74, 92
7, 5352, Note_on_c, 7, 74, 0
7, 5352, Note_on_c, 7, 76, 92
7, 5374, Note_on_c, 7, 76, 0
7, 5376, Note_on_c, 7, 78, 92
7, 5470, Note_on_c, 7, 78, 0
7, 5568, Note_on_c, 7, 78, 92
7, 5600, Note_on_c, 7, 78, 0
7, 5664, Note_on_c, 7, 79, 92
7, 5696, Note_on_c, 7, 79, 0
7, 5760, Note_on_c, 7, 81, 92
7, 5792, Note_on_c, 7, 81, 0
7, 5856, Note_on_c, 7, 83, 92
7, 5888, Note_on_c, 7, 83, 0
7, 5952, Note_on_c, 7, 85, 92
7, 5984, Note_on_c, 7, 85, 0
7, 6048, Note_on_c, 7, 86, 92
7, 6080, Note_on_c, 7, 86, 0
7, 6144, Note_on_c, 7, 81, 92
7, 6304, Note_on_c, 7, 81, 0
7, 6336, Note_on_c, 7, 83, 92
7, 6384, Note_on_c, 7, 83, 0
7, 6384, Note_on_c, 7, 81, 92
7, 6430, Note_on_c, 7, 81, 0
7, 6432, Note_on_c, 7, 79, 92
7, 6464, Note_on_c, 7, 79, 0
7, 6480, Note_on_c, 7, 78, 92
7, 6512, Note_on_c, 7, 78, 0
7, 6528, Note_on_c, 7, 76, 92
7, 6576, Note_on_c, 7, 76, 0
7, 6576, Note_on_c, 7, 75, 92
7, 6622, Note_on_c, 7, 75, 0
7, 6624, Note_on_c, 7, 76, 92
7, 6656, Note_on_c, 7, 76, 0
7, 6672, Note_on_c, 7, 78, 92
7, 6704, Note_on_c, 7, 78, 0
7, 6720, Note_on_c, 7, 79, 92
7, 6768, Note_on_c, 7, 79, 0
7, 6768, Note_on_c, 7, 76, 92
7, 6814, Note_on_c, 7, 76, 0
7, 6816, Note_on_c, 7, 78, 92
7, 6864, Note_on_c, 7, 78, 0
7, 6864, Note_on_c, 7, 74, 92
7, 6910, Note_on_c, 7, 74, 0
7, 6912, Note_on_c, 7, 76, 92
7, 6960, Note_on_c, 7, 76, 0
7, 6960, Note_on_c, 7, 73, 92
7, 7006, Note_on_c, 7, 73, 0
7, 7008, Note_on_c, 7, 71, 92
7, 7040, Note_on_c, 7, 71, 0
7, 7056, Note_on_c, 7, 69, 92
7, 7088, Note_on_c, 7, 69, 0
7, 7104, Note_on_c, 7, 81, 92
7, 7152, Note_on_c, 7, 81, 0
7, 7152, Note_on_c, 7, 78, 92
7, 7198, Note_on_c, 7, 78, 0
7, 7200, Note_on_c, 7, 79, 92
7, 7248, Note_on_c, 7, 79, 0
7, 7248, Note_on_c, 7, 76, 92
7, 7294, Note_on_c, 7, 76, 0
7, 7296, Note_on_c, 7, 74, 92
7, 7390, Note_on_c, 7, 74, 0
7, 7488, Note_on_c, 7, 78, 92
7, 7512, Note_on_c, 7, 78, 0
7, 7512, Note_on_c, 7, 76, 92
7, 7536, Note_on_c, 7, 76, 0
7, 7536, Note_on_c, 7, 78, 92
7, 7560, Note_on_c, 7, 78, 0
7, 7560, Note_on_c, 7, 76, 92
7, 7584, Note_on_c, 7, 76, 0
7, 7584, Note_on_c, 7, 78, 92
7, 7608, Note_on_c, 7, 78, 0
7, 7608, Note_on_c, 7, 76, 92
7, 7632, Note_on_c, 7, 76, 0
7, 7632, Note_on_c, 7, 74, 92
7, 7656, Note_on_c, 7, 74, 0
7, 7656, Note_on_c, 7, 76, 92
7, 7678, Note_on_c, 7, 76, 0
7, 7680, Note_on_c, 7, 78, 92
7, 7774, Note_on_c, 7, 78, 0
7, 7872, Note_on_c, 7, 78, 92
7, 7904, Note_on_c, 7, 78, 0
7, 7968, Note_on_c, 7, 79, 92
7, 8000, Note_on_c, 7, 79, 0
7, 8064, Note_on_c, 7, 81, 92
7, 8096, Note_on_c, 7, 81, 0
7, 8160, Note_on_c, 7, 83, 92
7, 8192, Note_on_c, 7, 83, 0
7, 8256, Note_on_c, 7, 85, 92
7, 8288, Note_on_c, 7, 85, 0
7, 8352, Note_on_c, 7, 86, 92
7, 8384, Note_on_c, 7, 86, 0
7, 8448, Note_on_c, 7, 81, 92
7, 8608, Note_on_c, 7, 81, 0
7, 8640, Note_on_c, 7, 83, 92
7, 8688, Note_on_c, 7, 83, 0
7, 8688, Note_on_c, 7, 81, 92
7, 8734, Note_on_c, 7, 81, 0
7, 8736, Note_on_c, 7, 79, 92
7, 8768, Note_on_c, 7, 79, 0
7, 8784, Note_on_c, 7, 78, 92
7, 8816, Note_on_c, 7, 78, 0
7, 8832, Note_on_c, 7, 75, 92
7, 8880, Note_on_c, 7, 75, 0
7, 8880, Note_on_c, 7, 76, 92
7, 8926, Note_on_c, 7, 76, 0
7, 8928, Note_on_c, 7, 79, 92
7, 8960, Note_on_c, 7, 79, 0
7, 8976, Note_on_c, 7, 83, 92
7, 9008, Note_on_c, 7, 83, 0
7, 9024, Note_on_c, 7, 81, 92
7, 9072, Note_on_c, 7, 81, 0
7, 9072, Note_on_c, 7, 78, 92
7, 9118, Note_on_c, 7, 78, 0
7, 9120, Note_on_c, 7, 79, 92
7, 9152, Note_on_c, 7, 79, 0
7, 9168, Note_on_c, 7, 76, 92
7, 9200, Note_on_c, 7, 76, 0
7, 9216, Note_on_c, 7, 74, 92
7, 9376, Note_on_c, 7, 74, 0
7, 10176, Note_on_c, 7, 79, 45
7, 10208, Note_on_c, 7, 79, 0
7, 10272, Note_on_c, 7, 79, 45
7, 10304, Note_on_c, 7, 79, 0
7, 10368, Note_on_c, 7, 78, 45
7, 10528, Note_on_c, 7, 78, 0
7, 10560, Note_on_c, 7, 79, 45
7, 10608, Note_on_c, 7, 79, 0
7, 10608, Note_on_c, 7, 78, 45
7, 10656, Note_on_c, 7, 78, 0
7, 10656, Note_on_c, 7, 76, 45
7, 10704, Note_on_c, 7, 76, 0
7, 10704, Note_on_c, 7, 74, 45
7, 10750, Note_on_c, 7, 74, 0
7, 10752, Note_on_c, 7, 74, 45
7, 10848, Note_on_c, 7, 74, 0
7, 10848, Note_on_c, 7, 73, 45
7, 10942, Note_on_c, 7, 73, 0
7, 11712, Note_on_c, 7, 79, 45
7, 11744, Note_on_c, 7, 79, 0
7, 11808, Note_on_c, 7, 79, 45
7, 11840, Note_on_c, 7, 79, 0
7, 11904, Note_on_c, 7, 78, 45
7, 12064, Note_on_c, 7, 78, 0
7, 12096, Note_on_c, 7, 79, 45
7, 12144, Note_on_c, 7, 79, 0
7, 12144, Note_on_c, 7, 78, 45
7, 12192, Note_on_c, 7, 78, 0
7, 12192, Note_on_c, 7, 76, 45
7, 12240, Note_on_c, 7, 76, 0
7, 12240, Note_on_c, 7, 74, 45
7, 12286, Note_on_c, 7, 74, 0
7, 12288, Note_on_c, 7, 73, 45
7, 12382, Note_on_c, 7, 73, 0
7, 12384, Note_on_c, 7, 76, 92
7, 12416, Note_on_c, 7, 76, 0
7, 12432, Note_on_c, 7, 78, 92
7, 12464, Note_on_c, 7, 78, 0
7, 12480, Note_on_c, 7, 79, 92
7, 12574, Note_on_c, 7, 79, 0
7, 12768, Note_on_c, 7, 76, 92
7, 12800, Note_on_c, 7, 76, 0
7, 12816, Note_on_c, 7, 78, 92
7, 12848, Note_on_c, 7, 78, 0
7, 12864, Note_on_c, 7, 79, 92
7, 12958, Note_on_c, 7, 79, 0
7, 13152, Note_on_c, 7, 85, 92
7, 13184, Note_on_c, 7, 85, 0
7, 13200, Note_on_c, 7, 86, 92
7, 13232, Note_on_c, 7, 86, 0
7, 13248, Note_on_c, 7, 88, 92
7, 13342, Note_on_c, 7, 88, 0
7, 13536, Note_on_c, 7, 85, 92
7, 13568, Note_on_c, 7, 85, 0
7, 13584, Note_on_c, 7, 86, 92
7, 13616, Note_on_c, 7, 86, 0
7, 13632, Note_on_c, 7, 88, 92
7, 13726, Note_on_c, 7, 88, 0
7, 14304, Note_on_c, 7, 81, 45
7, 14336, Note_on_c, 7, 81, 0
7, 14400, Note_on_c, 7, 81, 45
7, 14432, Note_on_c, 7, 81, 0
7, 14496, Note_on_c, 7, 81, 45
7, 14528, Note_on_c, 7, 81, 0
7, 14592, Note_on_c, 7, 81, 45
7, 14736, Note_on_c, 7, 81, 0
7, 14736, Note_on_c, 7, 78, 45
7, 14782, Note_on_c, 7, 78, 0
7, 14784, Note_on_c, 7, 79, 45
7, 14928, Note_on_c, 7, 79, 0
7, 14928, Note_on_c, 7, 76, 45
7, 14974, Note_on_c, 7, 76, 0
7, 14976, Note_on_c, 7, 74, 45
7, 15136, Note_on_c, 7, 74, 0
7, 15168, Note_on_c, 7, 78, 45
7, 15192, Note_on_c, 7, 78, 0
7, 15192, Note_on_c, 7, 76, 45
7, 15216, Note_on_c, 7, 76, 0
7, 15216, Note_on_c, 7, 78, 45
7, 15240, Note_on_c, 7, 78, 0
7, 15240, Note_on_c, 7, 76, 45
7, 15264, Note_on_c, 7, 76, 0
7, 15264, Note_on_c, 7, 78, 45
7, 15288, Note_on_c, 7, 78, 0
7, 15288, Note_on_c, 7, 76, 45
7, 15312, Note_on_c, 7, 76, 0
7, 15312, Note_on_c, 7, 74, 45
7, 15336, Note_on_c, 7, 74, 0
7, 15336, Note_on_c, 7, 76, 45
7, 15358, Note_on_c, 7, 76, 0
7, 15360, Note_on_c, 7, 78, 45
7, 15408, Note_on_c, 7, 78, 0
7, 15408, Note_on_c, 7, 74, 45
7, 15454, Note_on_c, 7, 74, 0
7, 15456, Note_on_c, 7, 78, 45
7, 15504, Note_on_c, 7, 78, 0
7, 15504, Note_on_c, 7, 74, 45
7, 15550, Note_on_c, 7, 74, 0
7, 15552, Note_on_c, 7, 81, 45
7, 15712, Note_on_c, 7, 81, 0
7, 15840, Note_on_c, 7, 81, 45
7, 15872, Note_on_c, 7, 81, 0
7, 15936, Note_on_c, 7, 81, 45
7, 15968, Note_on_c, 7, 81, 0
7, 16032, Note_on_c, 7, 81, 45
7, 16064, Note_on_c, 7, 81, 0
7, 16128, Note_on_c, 7, 81, 45
7, 16272, Note_on_c, 7, 81, 0
7, 16272, Note_on_c, 7, 78, 45
7, 16318, Note_on_c, 7, 78, 0
7, 16320, Note_on_c, 7, 79, 45
7, 16464, Note_on_c, 7, 79, 0
7, 16464, Note_on_c, 7, 76, 45
7, 16510, Note_on_c, 7, 76, 0
7, 16512, Note_on_c, 7, 74, 45
7, 16672, Note_on_c, 7, 74, 0
7, 16704, Note_on_c, 7, 78, 45
7, 16728, Note_on_c, 7, 78, 0
7, 16728, Note_on_c, 7, 76, 45
7, 16752, Note_on_c, 7, 76, 0
7, 16752, Note_on_c, 7, 78, 45
7, 16776, Note_on_c, 7, 78, 0
7, 16776, Note_on_c, 7, 76, 45
7, 16800, Note_on_c, 7, 76, 0
7, 16800, Note_on_c, 7, 78, 45
7, 16824, Note_on_c, 7, 78, 0
7, 16824, Note_on_c, 7, 76, 45
7, 16848, Note_on_c, 7, 76, 0
7, 16848, Note_on_c, 7, 74, 45
7, 16872, Note_on_c, 7, 74, 0
7, 16872, Note_on_c, 7, 76, 45
7, 16894, Note_on_c, 7, 76, 0
7, 16896, Note_on_c, 7, 74, 92
7, 17056, Note_on_c, 7, 74, 0
7, 17088, Note_on_c, 7, 86, 92
7, 17182, Note_on_c, 7, 86, 0
7, 17184, Note_on_c, 7, 86, 92
7, 17278, Note_on_c, 7, 86, 0
7, 17280, Note_on_c, 7, 76, 92
7, 17440, Note_on_c, 7, 76, 0
7, 17472, Note_on_c, 7, 79, 92
7, 17520, Note_on_c, 7, 79, 0
7, 17520, Note_on_c, 7, 81, 92
7, 17566, Note_on_c, 7, 81, 0
7, 17568, Note_on_c, 7, 79, 92
7, 17616, Note_on_c, 7, 79, 0
7, 17616, Note_on_c, 7, 81, 92
7, 17662, Note_on_c, 7, 81, 0
7, 17664, Note_on_c, 7, 78, 92
7, 17824, Note_on_c, 7, 78, 0
7, 17856, Note_on_c, 7, 86, 92
7, 17950, Note_on_c, 7, 86, 0
7, 17952, Note_on_c, 7, 86, 92
7, 18046, Note_on_c, 7, 86, 0
7, 18048, Note_on_c, 7, 76, 92
7, 18208, Note_on_c, 7, 76, 0
7, 18240, Note_on_c, 7, 79, 92
7, 18288, Note_on_c, 7, 79, 0
7, 18288, Note_on_c, 7, 78, 92
7, 18334, Note_on_c, 7, 78, 0
7, 18336, Note_on_c, 7, 79, 92
7, 18368, Note_on_c, 7, 79, 0
7, 18384, Note_on_c, 7, 76, 92
7, 18416, Note_on_c, 7, 76, 0
7, 18432, Note_on_c, 7, 74, 92
7, 18526, Note_on_c, 7, 74, 0
7, 18528, Note_on_c, 7, 62, 92
7, 18560, Note_on_c, 7, 62, 0
7, 18576, Note_on_c, 7, 64, 92
7, 18608, Note_on_c, 7, 64, 0
7, 18624, Note_on_c, 7, 66, 92
7, 18672, Note_on_c, 7, 66, 0
7, 18672, Note_on_c, 7, 64, 92
7, 18718, Note_on_c, 7, 64, 0
7, 18720, Note_on_c, 7, 66, 92
7, 18752, Note_on_c, 7, 66, 0
7, 18768, Note_on_c, 7, 67, 92
7, 18800, Note_on_c, 7, 67, 0
7, 18816, Note_on_c, 7, 69, 92
7, 18910, Note_on_c, 7, 69, 0
7, 18912, Note_on_c, 7, 78, 92
7, 18944, Note_on_c, 7, 78, 0
7, 19008, Note_on_c, 7, 79, 92
7, 19040, Note_on_c, 7, 79, 0
7, 19104, Note_on_c, 7, 76, 92
7, 19136, Note_on_c, 7, 76, 0
7, 19200, Note_on_c, 7, 81, 92
7, 19294, Note_on_c, 7, 81, 0
7, 19296, Note_on_c, 7, 62, 92
7, 19328, Note_on_c, 7, 62, 0
7, 19344, Note_on_c, 7, 64, 92
7, 19376, Note_on_c, 7, 64, 0
7, 19392, Note_on_c, 7, 66, 92
7, 19440, Note_on_c, 7, 66, 0
7, 19440, Note_on_c, 7, 64, 92
7, 19486, Note_on_c, 7, 64, 0
7, 19488, Note_on_c, 7, 66, 92
7, 19520, Note_on_c, 7, 66, 0
7, 19536, Note_on_c, 7, 67, 92
7, 19568, Note_on_c, 7, 67, 0
7, 19584, Note_on_c, 7, 69, 92
7, 19616, Note_on_c, 7, 69, 0
7, 19680, Note_on_c, 7, 78, 92
7, 19712, Note_on_c, 7, 78, 0
7, 19776, Note_on_c, 7, 79, 92
7, 19808, Note_on_c, 7, 79, 0
7, 19872, Note_on_c, 7, 76, 92
7, 19904, Note_on_c, 7, 76, 0
7, 19968, Note_on_c, 7, 74, 92
7, 20000, Note_on_c, 7, 74, 0
7, 20064, Note_on_c, 7, 78, 92
7, 20096, Note_on_c, 7, 78, 0
7, 20160, Note_on_c, 7, 79, 92
7, 20192, Note_on_c, 7, 79, 0
7, 20256, Note_on_c, 7, 76, 92
7, 20288, Note_on_c, 7, 76, 0
7, 20352, Note_on_c, 7, 74, 92
7, 20384, Note_on_c, 7, 74, 0
7, 20448, Note_on_c, 7, 78, 92
7, 20480, Note_on_c, 7, 78, 0
7, 20544, Note_on_c, 7, 79, 92
7, 20576, Note_on_c, 7, 79, 0
7, 20640, Note_on_c, 7, 76, 92
7, 20672, Note_on_c, 7, 76, 0
7, 20736, Note_on_c, 7, 74, 92
7, 20896, Note_on_c, 7, 74, 0
7, 20928, Note_on_c, 7, 78, 92
7, 20928, Note_on_c, 7, 86, 92
7, 21088, Note_on_c, 7, 78, 0
7, 21088, Note_on_c, 7, 86, 0
7, 21120, Note_on_c, 7, 78, 92
7, 21120, Note_on_c, 7, 86, 92
7, 21280, Note_on_c, 7, 78, 0
7, 21280, Note_on_c, 7, 86, 0
7, 21504, Note_on_c, 7, 66, 45
7, 21598, Note_on_c, 7, 66, 0
7, 21600, Note_on_c, 7, 66, 45
7, 21694, Note_on_c, 7, 66, 0
7, 21696, Note_on_c, 7, 66, 45
7, 21790, Note_on_c, 7, 66, 0
7, 21792, Note_on_c, 7, 66, 45
7, 21886, Note_on_c, 7, 66, 0
7, 21888, Note_on_c, 7, 68, 45
7, 21982, Note_on_c, 7, 68, 0
7, 21984, Note_on_c, 7, 68, 45
7, 22078, Note_on_c, 7, 68, 0
7, 22080, Note_on_c, 7, 68, 45
7, 22174, Note_on_c, 7, 68, 0
7, 22176, Note_on_c, 7, 68, 45
7, 22270, Note_on_c, 7, 68, 0
7, 22272, Note_on_c, 7, 69, 45
7, 22368, Note_on_c, 7, 69, 0
7, 22368, Note_on_c, 7, 64, 45
7, 22462, Note_on_c, 7, 64, 0
7, 22464, Note_on_c, 7, 64, 45
7, 22558, Note_on_c, 7, 64, 0
7, 22560, Note_on_c, 7, 64, 45
7, 22654, Note_on_c, 7, 64, 0
7, 22656, Note_on_c, 7, 64, 45
7, 22688, Note_on_c, 7, 64, 0
7, 22752, Note_on_c, 7, 64, 45
7, 22848, Note_on_c, 7, 64, 0
7, 22848, Note_on_c, 7, 69, 45
7, 22944, Note_on_c, 7, 69, 0
7, 22944, Note_on_c, 7, 68, 45
7, 23038, Note_on_c, 7, 68, 0
7, 23040, Note_on_c, 7, 69, 45
7, 23134, Note_on_c, 7, 69, 0
7, 23136, Note_on_c, 7, 64, 45
7, 23230, Note_on_c, 7, 64, 0
7, 23232, Note_on_c, 7, 73, 45
7, 23326, Note_on_c, 7, 73, 0
7, 23328, Note_on_c, 7, 73, 45
7, 23422, Note_on_c, 7, 73, 0
7, 23424, Note_on_c, 7, 74, 45
7, 23518, Note_on_c, 7, 74, 0
7, 23520, Note_on_c, 7, 74, 45
7, 23614, Note_on_c, 7, 74, 0
7, 23616, Note_on_c, 7, 76, 45
7, 23710, Note_on_c, 7, 76, 0
7, 23712, Note_on_c, 7, 76, 45
7, 23806, Note_on_c, 7, 76, 0
7, 23808, Note_on_c, 7, 69, 45
7, 23902, Note_on_c, 7, 69, 0
7, 23904, Note_on_c, 7, 69, 45
7, 23998, Note_on_c, 7, 69, 0
7, 24000, Note_on_c, 7, 69, 45
7, 24094, Note_on_c, 7, 69, 0
7, 24096, Note_on_c, 7, 69, 45
7, 24190, Note_on_c, 7, 69, 0
7, 24192, Note_on_c, 7, 69, 45
7, 24286, Note_on_c, 7, 69, 0
7, 24288, Note_on_c, 7, 78, 45
7, 24384, Note_on_c, 7, 78, 0
7, 24384, Note_on_c, 7, 73, 45
7, 24480, Note_on_c, 7, 73, 0
7, 24480, Note_on_c, 7, 74, 45
7, 24574, Note_on_c, 7, 74, 0
7, 24576, Note_on_c, 7, 71, 45
7, 24768, Note_on_c, 7, 71, 0
7, 24768, Note_on_c, 7, 72, 45
7, 24928, Note_on_c, 7, 72, 0
7, 24960, Note_on_c, 7, 71, 45
7, 25120, Note_on_c, 7, 71, 0
7, 25248, Note_on_c, 7, 71, 45
7, 25342, Note_on_c, 7, 71, 0
7, 25344, Note_on_c, 7, 69, 45
7, 25536, Note_on_c, 7, 69, 0
7, 25536, Note_on_c, 7, 70, 45
7, 25696, Note_on_c, 7, 70, 0
7, 25728, Note_on_c, 7, 69, 45
7, 25888, Note_on_c, 7, 69, 0
7, 26016, Note_on_c, 7, 74, 45
7, 26110, Note_on_c, 7, 74, 0
7, 26112, Note_on_c, 7, 76, 45
7, 26272, Note_on_c, 7, 76, 0
7, 26400, Note_on_c, 7, 71, 45
7, 26494, Note_on_c, 7, 71, 0
7, 26496, Note_on_c, 7, 69, 45
7, 26590, Note_on_c, 7, 69, 0
7, 26592, Note_on_c, 7, 66, 45
7, 26686, Note_on_c, 7, 66, 0
7, 26688, Note_on_c, 7, 67, 45
7, 26782, Note_on_c, 7, 67, 0
7, 26784, Note_on_c, 7, 64, 45
7, 26878, Note_on_c, 7, 64, 0
7, 26880, Note_on_c, 7, 62, 45
7, 27040, Note_on_c, 7, 62, 0
7, 27840, Note_on_c, 7, 79, 45
7, 27872, Note_on_c, 7, 79, 0
7, 27936, Note_on_c, 7, 79, 45
7, 27968, Note_on_c, 7, 79, 0
7, 28032, Note_on_c, 7, 78, 45
7, 28192, Note_on_c, 7, 78, 0
7, 28224, Note_on_c, 7, 79, 45
7, 28272, Note_on_c, 7, 79, 0
7, 28272, Note_on_c, 7, 78, 45
7, 28320, Note_on_c, 7, 78, 0
7, 28320, Note_on_c, 7, 76, 45
7, 28368, Note_on_c, 7, 76, 0
7, 28368, Note_on_c, 7, 74, 45
7, 28414, Note_on_c, 7, 74, 0
7, 28416, Note_on_c, 7, 74, 45
7, 28512, Note_on_c, 7, 74, 0
7, 28512, Note_on_c, 7, 73, 45
7, 28606, Note_on_c, 7, 73, 0
7, 29376, Note_on_c, 7, 79, 45
7, 29408, Note_on_c, 7, 79, 0
7, 29472, Note_on_c, 7, 79, 45
7, 29504, Note_on_c, 7, 79, 0
7, 29568, Note_on_c, 7, 78, 45
7, 29728, Note_on_c, 7, 78, 0
7, 29760, Note_on_c, 7, 79, 45
7, 29808, Note_on_c, 7, 79, 0
7, 29808, Note_on_c, 7, 78, 45
7, 29856, Note_on_c, 7, 78, 0
7, 29856, Note_on_c, 7, 76, 45
7, 29904, Note_on_c, 7, 76, 0
7, 29904, Note_on_c, 7, 74, 45
7, 29950, Note_on_c, 7, 74, 0
7, 29952, Note_on_c, 7, 74, 45
7, 30048, Note_on_c, 7, 74, 0
7, 30048, Note_on_c, 7, 73, 45
7, 30142, Note_on_c, 7, 73, 0
7, 30240, Note_on_c, 7, 69, 45
7, 30334, Note_on_c, 7, 69, 0
7, 30336, Note_on_c, 7, 69, 45
7, 30814, Note_on_c, 7, 69, 0
7, 30816, Note_on_c, 7, 66, 45
7, 30862, Note_on_c, 7, 66, 0
7, 30864, Note_on_c, 7, 64, 45
7, 30910, Note_on_c, 7, 64, 0
7, 30912, Note_on_c, 7, 62, 45
7, 31006, Note_on_c, 7, 62, 0
7, 31008, Note_on_c, 7, 63, 45
7, 31102, Note_on_c, 7, 63, 0
7, 31104, Note_on_c, 7, 64, 45
7, 31198, Note_on_c, 7, 64, 0
7, 31200, Note_on_c, 7, 69, 45
7, 31294, Note_on_c, 7, 69, 0
7, 31296, Note_on_c, 7, 68, 45
7, 31390, Note_on_c, 7, 68, 0
7, 31392, Note_on_c, 7, 63, 45
7, 31486, Note_on_c, 7, 63, 0
7, 31488, Note_on_c, 7, 64, 45
7, 31648, Note_on_c, 7, 64, 0
7, 31776, Note_on_c, 7, 73, 45
7, 31870, Note_on_c, 7, 73, 0
7, 31872, Note_on_c, 7, 73, 45
7, 32350, Note_on_c, 7, 73, 0
7, 32352, Note_on_c, 7, 69, 45
7, 32398, Note_on_c, 7, 69, 0
7, 32400, Note_on_c, 7, 68, 45
7, 32446, Note_on_c, 7, 68, 0
7, 32448, Note_on_c, 7, 66, 45
7, 32542, Note_on_c, 7, 66, 0
7, 32544, Note_on_c, 7, 66, 45
7, 32638, Note_on_c, 7, 66, 0
7, 32640, Note_on_c, 7, 68, 45
7, 32896, Note_on_c, 7, 68, 0
7, 32928, Note_on_c, 7, 71, 45
7, 32976, Note_on_c, 7, 71, 0
7, 32976, Note_on_c, 7, 69, 45
7, 33022, Note_on_c, 7, 69, 0
7, 33024, Note_on_c, 7, 68, 45
7, 33118, Note_on_c, 7, 68, 0
7, 33120, Note_on_c, 7, 68, 45
7, 33214, Note_on_c, 7, 68, 0
7, 33216, Note_on_c, 7, 69, 45
7, 33310, Note_on_c, 7, 69, 0
7, 33312, Note_on_c, 7, 76, 45
7, 33406, Note_on_c, 7, 76, 0
7, 33408, Note_on_c, 7, 76, 45
7, 33568, Note_on_c, 7, 76, 0
7, 34080, Note_on_c, 7, 69, 45
7, 34174, Note_on_c, 7, 69, 0
7, 34176, Note_on_c, 7, 69, 45
7, 34336, Note_on_c, 7, 69, 0
7, 34368, Note_on_c, 7, 68, 45
7, 34462, Note_on_c, 7, 68, 0
7, 34464, Note_on_c, 7, 64, 92
7, 34558, Note_on_c, 7, 64, 0
7, 34560, Note_on_c, 7, 76, 92
7, 34608, Note_on_c, 7, 76, 0
7, 34608, Note_on_c, 7, 75, 92
7, 34654, Note_on_c, 7, 75, 0
7, 34656, Note_on_c, 7, 76, 92
7, 34704, Note_on_c, 7, 76, 0
7, 34704, Note_on_c, 7, 75, 92
7, 34750, Note_on_c, 7, 75, 0
7, 34752, Note_on_c, 7, 76, 92
7, 34846, Note_on_c, 7, 76, 0
7, 34944, Note_on_c, 7, 74, 45
7, 35038, Note_on_c, 7, 74, 0
7, 35040, Note_on_c, 7, 74, 45
7, 35200, Note_on_c, 7, 74, 0
7, 35232, Note_on_c, 7, 74, 45
7, 35422, Note_on_c, 7, 74, 0
7, 35424, Note_on_c, 7, 74, 45
7, 35584, Note_on_c, 7, 74, 0
7, 35616, Note_on_c, 7, 74, 45
7, 35710, Note_on_c, 7, 74, 0
7, 35712, Note_on_c, 7, 73, 45
7, 35806, Note_on_c, 7, 73, 0
7, 35808, Note_on_c, 7, 73, 45
7, 35968, Note_on_c, 7, 73, 0
7, 36000, Note_on_c, 7, 73, 45
7, 36190, Note_on_c, 7, 73, 0
7, 36192, Note_on_c, 7, 73, 45
7, 36352, Note_on_c, 7, 73, 0
7, 36384, Note_on_c, 7, 73, 45
7, 36478, Note_on_c, 7, 73, 0
7, 36480, Note_on_c, 7, 74, 45
7, 36574, Note_on_c, 7, 74, 0
7, 36576, Note_on_c, 7, 74, 45
7, 36736, Note_on_c, 7, 74, 0
7, 36768, Note_on_c, 7, 74, 45
7, 36958, Note_on_c, 7, 74, 0
7, 36960, Note_on_c, 7, 74, 45
7, 37120, Note_on_c, 7, 74, 0
7, 37152, Note_on_c, 7, 74, 45
7, 37246, Note_on_c, 7, 74, 0
7, 37248, Note_on_c, 7, 73, 45
7, 37342, Note_on_c, 7, 73, 0
7, 37344, Note_on_c, 7, 73, 45
7, 37504, Note_on_c, 7, 73, 0
7, 37536, Note_on_c, 7, 73, 45
7, 37726, Note_on_c, 7, 73, 0
7, 37728, Note_on_c, 7, 73, 45
7, 37888, Note_on_c, 7, 73, 0
7, 37920, Note_on_c, 7, 73, 45
7, 38014, Note_on_c, 7, 73, 0
7, 38016, Note_on_c, 7, 69, 45
7, 38110, Note_on_c, 7, 69, 0
7, 38112, Note_on_c, 7, 69, 45
7, 38206, Note_on_c, 7, 69, 0
7, 38208, Note_on_c, 7, 69, 45
7, 38302, Note_on_c, 7, 69, 0
7, 38304, Note_on_c, 7, 69, 45
7, 38398, Note_on_c, 7, 69, 0
7, 38400, Note_on_c, 7, 68, 45
7, 38494, Note_on_c, 7, 68, 0
7, 38496, Note_on_c, 7, 68, 45
7, 38590, Note_on_c, 7, 68, 0
7, 38592, Note_on_c, 7, 68, 45
7, 38686, Note_on_c, 7, 68, 0
7, 38688, Note_on_c, 7, 68, 45
7, 38782, Note_on_c, 7, 68, 0
7, 38784, Note_on_c, 7, 68, 45
7, 38878, Note_on_c, 7, 68, 0
7, 38880, Note_on_c, 7, 68, 45
7, 38974, Note_on_c, 7, 68, 0
7, 38976, Note_on_c, 7, 68, 45
7, 39070, Note_on_c, 7, 68, 0
7, 39072, Note_on_c, 7, 68, 45
7, 39166, Note_on_c, 7, 68, 0
7, 39168, Note_on_c, 7, 66, 45
7, 39262, Note_on_c, 7, 66, 0
7, 39264, Note_on_c, 7, 66, 45
7, 39358, Note_on_c, 7, 66, 0
7, 39360, Note_on_c, 7, 66, 45
7, 39454, Note_on_c, 7, 66, 0
7, 39456, Note_on_c, 7, 66, 45
7, 39550, Note_on_c, 7, 66, 0
7, 39552, Note_on_c, 7, 66, 45
7, 39646, Note_on_c, 7, 66, 0
7, 39648, Note_on_c, 7, 66, 45
7, 39742, Note_on_c, 7, 66, 0
7, 39744, Note_on_c, 7, 71, 45
7, 39838, Note_on_c, 7, 71, 0
7, 39840, Note_on_c, 7, 71, 45
7, 39934, Note_on_c, 7, 71, 0
7, 39936, Note_on_c, 7, 71, 45
7, 40030, Note_on_c, 7, 71, 0
7, 40032, Note_on_c, 7, 74, 45
7, 40126, Note_on_c, 7, 74, 0
7, 40128, Note_on_c, 7, 71, 45
7, 40222, Note_on_c, 7, 71, 0
7, 40224, Note_on_c, 7, 68, 45
7, 40318, Note_on_c, 7, 68, 0
7, 40320, Note_on_c, 7, 69, 45
7, 40480, Note_on_c, 7, 69, 0
7, 41568, Note_on_c, 7, 64, 45
7, 41662, Note_on_c, 7, 64, 0
7, 41664, Note_on_c, 7, 76, 45
7, 41758, Note_on_c, 7, 76, 0
7, 41760, Note_on_c, 7, 76, 45
7, 41854, Note_on_c, 7, 76, 0
7, 41856, Note_on_c, 7, 76, 45
7, 42048, Note_on_c, 7, 76, 0
7, 42048, Note_on_c, 7, 74, 45
7, 42208, Note_on_c, 7, 74, 0
7, 42240, Note_on_c, 7, 73, 45
7, 42432, Note_on_c, 7, 73, 0
7, 42432, Note_on_c, 7, 71, 45
7, 42592, Note_on_c, 7, 71, 0
7, 42624, Note_on_c, 7, 83, 45
7, 42768, Note_on_c, 7, 83, 0
7, 42768, Note_on_c, 7, 82, 45
7, 42814, Note_on_c, 7, 82, 0
7, 42816, Note_on_c, 7, 83, 45
7, 42864, Note_on_c, 7, 83, 0
7, 42864, Note_on_c, 7, 82, 45
7, 42910, Note_on_c, 7, 82, 0
7, 42912, Note_on_c, 7, 83, 45
7, 42960, Note_on_c, 7, 83, 0
7, 42960, Note_on_c, 7, 82, 45
7, 43006, Note_on_c, 7, 82, 0
7, 43008, Note_on_c, 7, 83, 45
7, 43296, Note_on_c, 7, 83, 0
7, 43296, Note_on_c, 7, 76, 45
7, 43390, Note_on_c, 7, 76, 0
7, 43392, Note_on_c, 7, 76, 45
7, 43552, Note_on_c, 7, 76, 0
7, 43584, Note_on_c, 7, 76, 45
7, 43632, Note_on_c, 7, 76, 0
7, 43632, Note_on_c, 7, 74, 45
7, 43678, Note_on_c, 7, 74, 0
7, 43680, Note_on_c, 7, 78, 45
7, 43712, Note_on_c, 7, 78, 0
7, 43728, Note_on_c, 7, 74, 45
7, 43760, Note_on_c, 7, 74, 0
7, 43776, Note_on_c, 7, 73, 45
7, 43870, Note_on_c, 7, 73, 0
7, 43872, Note_on_c, 7, 73, 45
7, 43966, Note_on_c, 7, 73, 0
7, 43968, Note_on_c, 7, 71, 45
7, 44062, Note_on_c, 7, 71, 0
7, 44064, Note_on_c, 7, 71, 45
7, 44158, Note_on_c, 7, 71, 0
7, 44160, Note_on_c, 7, 69, 45
7, 44254, Note_on_c, 7, 69, 0
7, 44256, Note_on_c, 7, 64, 45
7, 44350, Note_on_c, 7, 64, 0
7, 44448, Note_on_c, 7, 64, 45
7, 44542, Note_on_c, 7, 64, 0
7, 44640, Note_on_c, 7, 66, 45
7, 44734, Note_on_c, 7, 66, 0
7, 44832, Note_on_c, 7, 68, 45
7, 44926, Note_on_c, 7, 68, 0
7, 45024, Note_on_c, 7, 69, 45
7, 45118, Note_on_c, 7, 69, 0
7, 45216, Note_on_c, 7, 69, 45
7, 45310, Note_on_c, 7, 69, 0
7, 45408, Note_on_c, 7, 66, 45
7, 45502, Note_on_c, 7, 66, 0
7, 45600, Note_on_c, 7, 68, 45
7, 45694, Note_on_c, 7, 68, 0
7, 45696, Note_on_c, 7, 69, 45
7, 45790, Note_on_c, 7, 69, 0
7, 45792, Note_on_c, 7, 69, 92
7, 45838, Note_on_c, 7, 69, 0
7, 45840, Note_on_c, 7, 71, 92
7, 45886, Note_on_c, 7, 71, 0
7, 45888, Note_on_c, 7, 73, 92
7, 45936, Note_on_c, 7, 73, 0
7, 45936, Note_on_c, 7, 71, 92
7, 45982, Note_on_c, 7, 71, 0
7, 45984, Note_on_c, 7, 73, 92
7, 46016, Note_on_c, 7, 73, 0
7, 46032, Note_on_c, 7, 74, 92
7, 46064, Note_on_c, 7, 74, 0
7, 46080, Note_on_c, 7, 76, 92
7, 46174, Note_on_c, 7, 76, 0
7, 46176, Note_on_c, 7, 85, 92
7, 46208, Note_on_c, 7, 85, 0
7, 46272, Note_on_c, 7, 86, 92
7, 46304, Note_on_c, 7, 86, 0
7, 46368, Note_on_c, 7, 83, 92
7, 46400, Note_on_c, 7, 83, 0
7, 46464, Note_on_c, 7, 88, 92
7, 46558, Note_on_c, 7, 88, 0
7, 46560, Note_on_c, 7, 69, 92
7, 46606, Note_on_c, 7, 69, 0
7, 46608, Note_on_c, 7, 71, 92
7, 46654, Note_on_c, 7, 71, 0
7, 46656, Note_on_c, 7, 73, 92
7, 46704, Note_on_c, 7, 73, 0
7, 46704, Note_on_c, 7, 71, 92
7, 46750, Note_on_c, 7, 71, 0
7, 46752, Note_on_c, 7, 73, 92
7, 46784, Note_on_c, 7, 73, 0
7, 46800, Note_on_c, 7, 74, 92
7, 46832, Note_on_c, 7, 74, 0
7, 46848, Note_on_c, 7, 76, 92
7, 46942, Note_on_c, 7, 76, 0
7, 46944, Note_on_c, 7, 85, 92
7, 46976, Note_on_c, 7, 85, 0
7, 47040, Note_on_c, 7, 86, 92
7, 47072, Note_on_c, 7, 86, 0
7, 47136, Note_on_c, 7, 83, 92
7, 47168, Note_on_c, 7, 83, 0
7, 47232, Note_on_c, 7, 64, 92
7, 47232, Note_on_c, 7, 73, 92
7, 47232, Note_on_c, 7, 81, 92
7, 47392, Note_on_c, 7, 64, 0
7, 47392, Note_on_c, 7, 73, 0
7, 47392, Note_on_c, 7, 81, 0
7, 49728, Note_on_c, 7, 69, 45
7, 49822, Note_on_c, 7, 69, 0
7, 49920, Note_on_c, 7, 74, 45
7, 49944, Note_on_c, 7, 74, 0
7, 49944, Note_on_c, 7, 73, 45
7, 49968, Note_on_c, 7, 73, 0
7, 49968, Note_on_c, 7, 74, 45
7, 49992, Note_on_c, 7, 74, 0
7, 49992, Note_on_c, 7, 73, 45
7, 50016, Note_on_c, 7, 73, 0
7, 50016, Note_on_c, 7, 74, 45
7, 50040, Note_on_c, 7, 74, 0
7, 50040, Note_on_c, 7, 73, 45
7, 50064, Note_on_c, 7, 73, 0
7, 50064, Note_on_c, 7, 71, 45
7, 50088, Note_on_c, 7, 71, 0
7, 50088, Note_on_c, 7, 73, 45
7, 50110, Note_on_c, 7, 73, 0
7, 50112, Note_on_c, 7, 74, 45
7, 50206, Note_on_c, 7, 74, 0
7, 50304, Note_on_c, 7, 74, 45
7, 50336, Note_on_c, 7, 74, 0
7, 50400, Note_on_c, 7, 74, 45
7, 50432, Note_on_c, 7, 74, 0
7, 50496, Note_on_c, 7, 74, 45
7, 50528, Note_on_c, 7, 74, 0
7, 50592, Note_on_c, 7, 74, 45
7, 50624, Note_on_c, 7, 74, 0
7, 50688, Note_on_c, 7, 74, 45
7, 50720, Note_on_c, 7, 74, 0
7, 50784, Note_on_c, 7, 74, 45
7, 50816, Note_on_c, 7, 74, 0
7, 50880, Note_on_c, 7, 74, 45
7, 51040, Note_on_c, 7, 74, 0
7, 51168, Note_on_c, 7, 69, 45
7, 51262, Note_on_c, 7, 69, 0
7, 51264, Note_on_c, 7, 69, 45
7, 51520, Note_on_c, 7, 69, 0
7, 51552, Note_on_c, 7, 69, 45
7, 51646, Note_on_c, 7, 69, 0
7, 51648, Note_on_c, 7, 69, 45
7, 51808, Note_on_c, 7, 69, 0
7, 51840, Note_on_c, 7, 66, 45
7, 51888, Note_on_c, 7, 66, 0
7, 51888, Note_on_c, 7, 62, 45
7, 51934, Note_on_c, 7, 62, 0
7, 51936, Note_on_c, 7, 64, 45
7, 51968, Note_on_c, 7, 64, 0
7, 51984, Note_on_c, 7, 61, 45
7, 52016, Note_on_c, 7, 61, 0
7, 52032, Note_on_c, 7, 62, 45
7, 52126, Note_on_c, 7, 62, 0
7, 52224, Note_on_c, 7, 67, 45
7, 52272, Note_on_c, 7, 67, 0
7, 52272, Note_on_c, 7, 69, 45
7, 52318, Note_on_c, 7, 69, 0
7, 52320, Note_on_c, 7, 67, 45
7, 52352, Note_on_c, 7, 67, 0
7, 52368, Note_on_c, 7, 69, 45
7, 52400, Note_on_c, 7, 69, 0
7, 52416, Note_on_c, 7, 66, 45
7, 52510, Note_on_c, 7, 66, 0
7, 52608, Note_on_c, 7, 74, 45
7, 52640, Note_on_c, 7, 74, 0
7, 52704, Note_on_c, 7, 74, 45
7, 52736, Note_on_c, 7, 74, 0
7, 52800, Note_on_c, 7, 74, 45
7, 52832, Note_on_c, 7, 74, 0
7, 52896, Note_on_c, 7, 74, 45
7, 52928, Note_on_c, 7, 74, 0
7, 52992, Note_on_c, 7, 74, 45
7, 53024, Note_on_c, 7, 74, 0
7, 53088, Note_on_c, 7, 74, 45
7, 53120, Note_on_c, 7, 74, 0
7, 53184, Note_on_c, 7, 74, 45
7, 53344, Note_on_c, 7, 74, 0
7, 53472, Note_on_c, 7, 74, 45
7, 53566, Note_on_c, 7, 74, 0
7, 53568, Note_on_c, 7, 64, 45
7, 53728, Note_on_c, 7, 64, 0
7, 53760, Note_on_c, 7, 66, 45
7, 53854, Note_on_c, 7, 66, 0
7, 53856, Note_on_c, 7, 69, 45
7, 53880, Note_on_c, 7, 69, 0
7, 53880, Note_on_c, 7, 67, 45
7, 53904, Note_on_c, 7, 67, 0
7, 53904, Note_on_c, 7, 69, 45
7, 53928, Note_on_c, 7, 69, 0
7, 53928, Note_on_c, 7, 67, 45
7, 53952, Note_on_c, 7, 67, 0
7, 53952, Note_on_c, 7, 66, 45
7, 54112, Note_on_c, 7, 66, 0
7, 54144, Note_on_c, 7, 81, 92
7, 54192, Note_on_c, 7, 81, 0
7, 54192, Note_on_c, 7, 78, 92
7, 54238, Note_on_c, 7, 78, 0
7, 54240, Note_on_c, 7, 79, 92
7, 54288, Note_on_c, 7, 79, 0
7, 54288, Note_on_c, 7, 76, 92
7, 54334, Note_on_c, 7, 76, 0
7, 54336, Note_on_c, 7, 74, 92
7, 54430, Note_on_c, 7, 74, 0
7, 54528, Note_on_c, 7, 78, 92
7, 54552, Note_on_c, 7, 78, 0
7, 54552, Note_on_c, 7, 76, 92
7, 54576, Note_on_c, 7, 76, 0
7, 54576, Note_on_c, 7, 78, 92
7, 54600, Note_on_c, 7, 78, 0
7, 54600, Note_on_c, 7, 76, 92
7, 54624, Note_on_c, 7, 76, 0
7, 54624, Note_on_c, 7, 78, 92
7, 54648, Note_on_c, 7, 78, 0
7, 54648, Note_on_c, 7, 76, 92
7, 54672, Note_on_c, 7, 76, 0
7, 54672, Note_on_c, 7, 74, 92
7, 54696, Note_on_c, 7, 74, 0
7, 54696, Note_on_c, 7, 76, 92
7, 54718, Note_on_c, 7, 76, 0
7, 54720, Note_on_c, 7, 78, 92
7, 54814, Note_on_c, 7, 78, 0
7, 54912, Note_on_c, 7, 78, 92
7, 54944, Note_on_c, 7, 78, 0
7, 55008, Note_on_c, 7, 79, 92
7, 55040, Note_on_c, 7, 79, 0
7, 55104, Note_on_c, 7, 81, 92
7, 55136, Note_on_c, 7, 81, 0
7, 55200, Note_on_c, 7, 83, 92
7, 55232, Note_on_c, 7, 83, 0
7, 55296, Note_on_c, 7, 85, 92
7, 55328, Note_on_c, 7, 85, 0
7, 55392, Note_on_c, 7, 86, 92
7, 55424, Note_on_c, 7, 86, 0
7, 55488, Note_on_c, 7, 81, 92
7, 55648, Note_on_c, 7, 81, 0
7, 55680, Note_on_c, 7, 83, 92
7, 55728, Note_on_c, 7, 83, 0
7, 55728, Note_on_c, 7, 81, 92
7, 55774, Note_on_c, 7, 81, 0
7, 55776, Note_on_c, 7, 79, 92
7, 55808, Note_on_c, 7, 79, 0
7, 55824, Note_on_c, 7, 78, 92
7, 55856, Note_on_c, 7, 78, 0
7, 55872, Note_on_c, 7, 78, 92
7, 55894, Note_on_c, 7, 78, 0
7, 55896, Note_on_c, 7, 76, 92
7, 55918, Note_on_c, 7, 76, 0
7, 55920, Note_on_c, 7, 75, 92
7, 55966, Note_on_c, 7, 75, 0
7, 55968, Note_on_c, 7, 76, 92
7, 56000, Note_on_c, 7, 76, 0
7, 56016, Note_on_c, 7, 78, 92
7, 56048, Note_on_c, 7, 78, 0
7, 56064, Note_on_c, 7, 79, 92
7, 56112, Note_on_c, 7, 79, 0
7, 56112, Note_on_c, 7, 76, 92
7, 56158, Note_on_c, 7, 76, 0
7, 56160, Note_on_c, 7, 78, 92
7, 56192, Note_on_c, 7, 78, 0
7, 56208, Note_on_c, 7, 74, 92
7, 56240, Note_on_c, 7, 74, 0
7, 56256, Note_on_c, 7, 76, 92
7, 56304, Note_on_c, 7, 76, 0
7, 56304, Note_on_c, 7, 73, 92
7, 56350, Note_on_c, 7, 73, 0
7, 56352, Note_on_c, 7, 71, 92
7, 56384, Note_on_c, 7, 71, 0
7, 56400, Note_on_c, 7, 69, 92
7, 56432, Note_on_c, 7, 69, 0
7, 56448, Note_on_c, 7, 81, 92
7, 56496, Note_on_c, 7, 81, 0
7, 56496, Note_on_c, 7, 78, 92
7, 56542, Note_on_c, 7, 78, 0
7, 56544, Note_on_c, 7, 79, 92
7, 56592, Note_on_c, 7, 79, 0
7, 56592, Note_on_c, 7, 76, 92
7, 56638, Note_on_c, 7, 76, 0
7, 56640, Note_on_c, 7, 74, 92
7, 56734, Note_on_c, 7, 74, 0
7, 56832, Note_on_c, 7, 78, 92
7, 56856, Note_on_c, 7, 78, 0
7, 56856, Note_on_c, 7, 76, 92
7, 56880, Note_on_c, 7, 76, 0
7, 56880, Note_on_c, 7, 78, 92
7, 56904, Note_on_c, 7, 78, 0
7, 56904, Note_on_c, 7, 76, 92
7, 56928, Note_on_c, 7, 76, 0
7, 56928, Note_on_c, 7, 78, 92
7, 56952, Note_on_c, 7, 78, 0
7, 56952, Note_on_c, 7, 76, 92
7, 56976, Note_on_c, 7, 76, 0
7, 56976, Note_on_c, 7, 74, 92
7, 57000, Note_on_c, 7, 74, 0
7, 57000, Note_on_c, 7, 76, 92
7, 57022, Note_on_c, 7, 76, 0
7, 57024, Note_on_c, 7, 78, 92
7, 57118, Note_on_c, 7, 78, 0
7, 57216, Note_on_c, 7, 78, 92
7, 57248, Note_on_c, 7, 78, 0
7, 57312, Note_on_c, 7, 79, 92
7, 57344, Note_on_c, 7, 79, 0
7, 57408, Note_on_c, 7, 81, 92
7, 57440, Note_on_c, 7, 81, 0
7, 57504, Note_on_c, 7, 83, 92
7, 57536, Note_on_c, 7, 83, 0
7, 57600, Note_on_c, 7, 85, 92
7, 57632, Note_on_c, 7, 85, 0
7, 57696, Note_on_c, 7, 86, 92
7, 57728, Note_on_c, 7, 86, 0
7, 57792, Note_on_c, 7, 81, 92
7, 57952, Note_on_c, 7, 81, 0
7, 57984, Note_on_c, 7, 83, 92
7, 58032, Note_on_c, 7, 83, 0
7, 58032, Note_on_c, 7, 81, 92
7, 58078, Note_on_c, 7, 81, 0
7, 58080, Note_on_c, 7, 79, 92
7, 58112, Note_on_c, 7, 79, 0
7, 58128, Note_on_c, 7, 78, 92
7, 58160, Note_on_c, 7, 78, 0
7, 58176, Note_on_c, 7, 75, 92
7, 58224, Note_on_c, 7, 75, 0
7, 58224, Note_on_c, 7, 76, 92
7, 58270, Note_on_c, 7, 76, 0
7, 58272, Note_on_c, 7, 79, 92
7, 58304, Note_on_c, 7, 79, 0
7, 58320, Note_on_c, 7, 83, 92
7, 58352, Note_on_c, 7, 83, 0
7, 58368, Note_on_c, 7, 81, 92
7, 58416, Note_on_c, 7, 81, 0
7, 58416, Note_on_c, 7, 78, 92
7, 58462, Note_on_c, 7, 78, 0
7, 58464, Note_on_c, 7, 79, 92
7, 58496, Note_on_c, 7, 79, 0
7, 58512, Note_on_c, 7, 76, 92
7, 58544, Note_on_c, 7, 76, 0
7, 58560, Note_on_c, 7, 74, 92
7, 58654, Note_on_c, 7, 74, 0
7, 58656, Note_on_c, 7, 78, 92
7, 58688, Note_on_c, 7, 78, 0
7, 58704, Note_on_c, 7, 79, 92
7, 58736, Note_on_c, 7, 79, 0
7, 58752, Note_on_c, 7, 81, 92
7, 58846, Note_on_c, 7, 81, 0
7, 59040, Note_on_c, 7, 78, 92
7, 59072, Note_on_c, 7, 78, 0
7, 59088, Note_on_c, 7, 79, 92
7, 59120, Note_on_c, 7, 79, 0
7, 59136, Note_on_c, 7, 81, 92
7, 59230, Note_on_c, 7, 81, 0
7, 59424, Note_on_c, 7, 81, 92
7, 59456, Note_on_c, 7, 81, 0
7, 59472, Note_on_c, 7, 83, 92
7, 59504, Note_on_c, 7, 83, 0
7, 59520, Note_on_c, 7, 84, 92
7, 59614, Note_on_c, 7, 84, 0
7, 59808, Note_on_c, 7, 81, 92
7, 59840, Note_on_c, 7, 81, 0
7, 59856, Note_on_c, 7, 83, 92
7, 59888, Note_on_c, 7, 83, 0
7, 59904, Note_on_c, 7, 84, 92
7, 59998, Note_on_c, 7, 84, 0
7, 60960, Note_on_c, 7, 74, 45
7, 60992, Note_on_c, 7, 74, 0
7, 61056, Note_on_c, 7, 74, 45
7, 61088, Note_on_c, 7, 74, 0
7, 61152, Note_on_c, 7, 74, 45
7, 61184, Note_on_c, 7, 74, 0
7, 61248, Note_on_c, 7, 74, 45
7, 61392, Note_on_c, 7, 74, 0
7, 61392, Note_on_c, 7, 71, 45
7, 61438, Note_on_c, 7, 71, 0
7, 61440, Note_on_c, 7, 72, 45
7, 61584, Note_on_c, 7, 72, 0
7, 61584, Note_on_c, 7, 69, 45
7, 61630, Note_on_c, 7, 69, 0
7, 61632, Note_on_c, 7, 67, 45
7, 61792, Note_on_c, 7, 67, 0
7, 61824, Note_on_c, 7, 71, 45
7, 61848, Note_on_c, 7, 71, 0
7, 61848, Note_on_c, 7, 69, 45
7, 61872, Note_on_c, 7, 69, 0
7, 61872, Note_on_c, 7, 71, 45
7, 61896, Note_on_c, 7, 71, 0
7, 61896, Note_on_c, 7, 69, 45
7, 61920, Note_on_c, 7, 69, 0
7, 61920, Note_on_c, 7, 71, 45
7, 61944, Note_on_c, 7, 71, 0
7, 61944, Note_on_c, 7, 69, 45
7, 61968, Note_on_c, 7, 69, 0
7, 61968, Note_on_c, 7, 67, 45
7, 61992, Note_on_c, 7, 67, 0
7, 61992, Note_on_c, 7, 69, 45
7, 62014, Note_on_c, 7, 69, 0
7, 62016, Note_on_c, 7, 71, 45
7, 62064, Note_on_c, 7, 71, 0
7, 62064, Note_on_c, 7, 67, 45
7, 62110, Note_on_c, 7, 67, 0
7, 62112, Note_on_c, 7, 71, 45
7, 62144, Note_on_c, 7, 71, 0
7, 62160, Note_on_c, 7, 67, 45
7, 62192, Note_on_c, 7, 67, 0
7, 62208, Note_on_c, 7, 74, 45
7, 62368, Note_on_c, 7, 74, 0
7, 62496, Note_on_c, 7, 74, 45
7, 62528, Note_on_c, 7, 74, 0
7, 62592, Note_on_c, 7, 74, 45
7, 62624, Note_on_c, 7, 74, 0
7, 62688, Note_on_c, 7, 74, 45
7, 62720, Note_on_c, 7, 74, 0
7, 62784, Note_on_c, 7, 67, 45
7, 62976, Note_on_c, 7, 67, 0
7, 62976, Note_on_c, 7, 72, 45
7, 63136, Note_on_c, 7, 72, 0
7, 63168, Note_on_c, 7, 71, 45
7, 63360, Note_on_c, 7, 71, 0
7, 63360, Note_on_c, 7, 69, 45
7, 63520, Note_on_c, 7, 69, 0
7, 63648, Note_on_c, 7, 86, 45
7, 63680, Note_on_c, 7, 86, 0
7, 63744, Note_on_c, 7, 86, 45
7, 63776, Note_on_c, 7, 86, 0
7, 63840, Note_on_c, 7, 86, 45
7, 63872, Note_on_c, 7, 86, 0
7, 63936, Note_on_c, 7, 86, 45
7, 64080, Note_on_c, 7, 86, 0
7, 64080, Note_on_c, 7, 83, 45
7, 64126, Note_on_c, 7, 83, 0
7, 64128, Note_on_c, 7, 84, 45
7, 64272, Note_on_c, 7, 84, 0
7, 64272, Note_on_c, 7, 81, 45
7, 64318, Note_on_c, 7, 81, 0
7, 64320, Note_on_c, 7, 79, 45
7, 64480, Note_on_c, 7, 79, 0
7, 64512, Note_on_c, 7, 83, 45
7, 64536, Note_on_c, 7, 83, 0
7, 64536, Note_on_c, 7, 81, 45
7, 64560, Note_on_c, 7, 81, 0
7, 64560, Note_on_c, 7, 83, 45
7, 64584, Note_on_c, 7, 83, 0
7, 64584, Note_on_c, 7, 81, 45
7, 64608, Note_on_c, 7, 81, 0
7, 64608, Note_on_c, 7, 83, 45
7, 64632, Note_on_c, 7, 83, 0
7, 64632, Note_on_c, 7, 81, 45
7, 64656, Note_on_c, 7, 81, 0
7, 64656, Note_on_c, 7, 79, 45
7, 64680, Note_on_c, 7, 79, 0
7, 64680, Note_on_c, 7, 81, 45
7, 64702, Note_on_c, 7, 81, 0
7, 64704, Note_on_c, 7, 83, 45
7, 64752, Note_on_c, 7, 83, 0
7, 64752, Note_on_c, 7, 79, 45
7, 64798, Note_on_c, 7, 79, 0
7, 64800, Note_on_c, 7, 83, 45
7, 64832, Note_on_c, 7, 83, 0
7, 64848, Note_on_c, 7, 79, 45
7, 64880, Note_on_c, 7, 79, 0
7, 64896, Note_on_c, 7, 86, 45
7, 65056, Note_on_c, 7, 86, 0
7, 65568, Note_on_c, 7, 74, 45
7, 65600, Note_on_c, 7, 74, 0
7, 65664, Note_on_c, 7, 74, 45
7, 65696, Note_on_c, 7, 74, 0
7, 65760, Note_on_c, 7, 74, 45
7, 65792, Note_on_c, 7, 74, 0
7, 65856, Note_on_c, 7, 74, 45
7, 65904, Note_on_c, 7, 74, 0
7, 65904, Note_on_c, 7, 71, 45
7, 65950, Note_on_c, 7, 71, 0
7, 65952, Note_on_c, 7, 74, 45
7, 65984, Note_on_c, 7, 74, 0
7, 66000, Note_on_c, 7, 71, 45
7, 66032, Note_on_c, 7, 71, 0
7, 66048, Note_on_c, 7, 72, 45
7, 66096, Note_on_c, 7, 72, 0
7, 66096, Note_on_c, 7, 69, 45
7, 66142, Note_on_c, 7, 69, 0
7, 66144, Note_on_c, 7, 72, 45
7, 66176, Note_on_c, 7, 72, 0
7, 66192, Note_on_c, 7, 69, 45
7, 66224, Note_on_c, 7, 69, 0
7, 66240, Note_on_c, 7, 71, 45
7, 66334, Note_on_c, 7, 71, 0
7, 66336, Note_on_c, 7, 71, 45
7, 66430, Note_on_c, 7, 71, 0
7, 66432, Note_on_c, 7, 71, 45
7, 66526, Note_on_c, 7, 71, 0
7, 66528, Note_on_c, 7, 71, 45
7, 66622, Note_on_c, 7, 71, 0
7, 66624, Note_on_c, 7, 71, 45
7, 66718, Note_on_c, 7, 71, 0
7, 66720, Note_on_c, 7, 71, 45
7, 66814, Note_on_c, 7, 71, 0
7, 66816, Note_on_c, 7, 71, 45
7, 66910, Note_on_c, 7, 71, 0
7, 66912, Note_on_c, 7, 71, 45
7, 67006, Note_on_c, 7, 71, 0
7, 67008, Note_on_c, 7, 72, 45
7, 67102, Note_on_c, 7, 72, 0
7, 67104, Note_on_c, 7, 72, 45
7, 67198, Note_on_c, 7, 72, 0
7, 67200, Note_on_c, 7, 72, 45
7, 67294, Note_on_c, 7, 72, 0
7, 67296, Note_on_c, 7, 72, 45
7, 67390, Note_on_c, 7, 72, 0
7, 67392, Note_on_c, 7, 72, 45
7, 67486, Note_on_c, 7, 72, 0
7, 67488, Note_on_c, 7, 72, 45
7, 67582, Note_on_c, 7, 72, 0
7, 67584, Note_on_c, 7, 72, 45
7, 67678, Note_on_c, 7, 72, 0
7, 67680, Note_on_c, 7, 72, 45
7, 67774, Note_on_c, 7, 72, 0
7, 67776, Note_on_c, 7, 71, 45
7, 67870, Note_on_c, 7, 71, 0
7, 67872, Note_on_c, 7, 71, 45
7, 67966, Note_on_c, 7, 71, 0
7, 67968, Note_on_c, 7, 71, 45
7, 68062, Note_on_c, 7, 71, 0
7, 68064, Note_on_c, 7, 71, 45
7, 68158, Note_on_c, 7, 71, 0
7, 68160, Note_on_c, 7, 71, 45
7, 68254, Note_on_c, 7, 71, 0
7, 68256, Note_on_c, 7, 71, 45
7, 68350, Note_on_c, 7, 71, 0
7, 68352, Note_on_c, 7, 71, 45
7, 68446, Note_on_c, 7, 71, 0
7, 68448, Note_on_c, 7, 71, 45
7, 68542, Note_on_c, 7, 71, 0
7, 68544, Note_on_c, 7, 70, 45
7, 68638, Note_on_c, 7, 70, 0
7, 68640, Note_on_c, 7, 70, 45
7, 68734, Note_on_c, 7, 70, 0
7, 68736, Note_on_c, 7, 70, 45
7, 68830, Note_on_c, 7, 70, 0
7, 68832, Note_on_c, 7, 70, 45
7, 68926, Note_on_c, 7, 70, 0
7, 68928, Note_on_c, 7, 70, 45
7, 69022, Note_on_c, 7, 70, 0
7, 69024, Note_on_c, 7, 70, 45
7, 69118, Note_on_c, 7, 70, 0
7, 69120, Note_on_c, 7, 70, 45
7, 69214, Note_on_c, 7, 70, 0
7, 69216, Note_on_c, 7, 70, 45
7, 69310, Note_on_c, 7, 70, 0
7, 69312, Note_on_c, 7, 69, 45
7, 69406, Note_on_c, 7, 69, 0
7, 69408, Note_on_c, 7, 69, 45
7, 69502, Note_on_c, 7, 69, 0
7, 69504, Note_on_c, 7, 69, 45
7, 69598, Note_on_c, 7, 69, 0
7, 69600, Note_on_c, 7, 69, 45
7, 69694, Note_on_c, 7, 69, 0
7, 69696, Note_on_c, 7, 69, 45
7, 69790, Note_on_c, 7, 69, 0
7, 69792, Note_on_c, 7, 69, 45
7, 69886, Note_on_c, 7, 69, 0
7, 69888, Note_on_c, 7, 69, 45
7, 69982, Note_on_c, 7, 69, 0
7, 69984, Note_on_c, 7, 69, 45
7, 70078, Note_on_c, 7, 69, 0
7, 70080, Note_on_c, 7, 71, 45
7, 70174, Note_on_c, 7, 71, 0
7, 70176, Note_on_c, 7, 71, 45
7, 70270, Note_on_c, 7, 71, 0
7, 70272, Note_on_c, 7, 71, 45
7, 70366, Note_on_c, 7, 71, 0
7, 70368, Note_on_c, 7, 71, 45
7, 70462, Note_on_c, 7, 71, 0
7, 70464, Note_on_c, 7, 71, 45
7, 70558, Note_on_c, 7, 71, 0
7, 70560, Note_on_c, 7, 71, 45
7, 70654, Note_on_c, 7, 71, 0
7, 70656, Note_on_c, 7, 71, 45
7, 70750, Note_on_c, 7, 71, 0
7, 70752, Note_on_c, 7, 74, 45
7, 70846, Note_on_c, 7, 74, 0
7, 70848, Note_on_c, 7, 74, 45
7, 71008, Note_on_c, 7, 74, 0
7, 71040, Note_on_c, 7, 73, 45
7, 71134, Note_on_c, 7, 73, 0
7, 71136, Note_on_c, 7, 57, 92
7, 71230, Note_on_c, 7, 57, 0
7, 71232, Note_on_c, 7, 69, 92
7, 71280, Note_on_c, 7, 69, 0
7, 71280, Note_on_c, 7, 68, 92
7, 71326, Note_on_c, 7, 68, 0
7, 71328, Note_on_c, 7, 69, 92
7, 71376, Note_on_c, 7, 69, 0
7, 71376, Note_on_c, 7, 68, 92
7, 71422, Note_on_c, 7, 68, 0
7, 71424, Note_on_c, 7, 69, 92
7, 71518, Note_on_c, 7, 69, 0
7, 71616, Note_on_c, 7, 67, 45
7, 71710, Note_on_c, 7, 67, 0
7, 71712, Note_on_c, 7, 67, 45
7, 71872, Note_on_c, 7, 67, 0
7, 71904, Note_on_c, 7, 67, 45
7, 72094, Note_on_c, 7, 67, 0
7, 72096, Note_on_c, 7, 67, 45
7, 72256, Note_on_c, 7, 67, 0
7, 72288, Note_on_c, 7, 67, 45
7, 72382, Note_on_c, 7, 67, 0
7, 72384, Note_on_c, 7, 66, 45
7, 72478, Note_on_c, 7, 66, 0
7, 72480, Note_on_c, 7, 66, 45
7, 72640, Note_on_c, 7, 66, 0
7, 72672, Note_on_c, 7, 66, 45
7, 72862, Note_on_c, 7, 66, 0
7, 72864, Note_on_c, 7, 66, 45
7, 73024, Note_on_c, 7, 66, 0
7, 73056, Note_on_c, 7, 66, 45
7, 73150, Note_on_c, 7, 66, 0
7, 73152, Note_on_c, 7, 67, 45
7, 73246, Note_on_c, 7, 67, 0
7, 73248, Note_on_c, 7, 67, 45
7, 73408, Note_on_c, 7, 67, 0
7, 73440, Note_on_c, 7, 67, 45
7, 73630, Note_on_c, 7, 67, 0
7, 73632, Note_on_c, 7, 67, 45
7, 73792, Note_on_c, 7, 67, 0
7, 73824, Note_on_c, 7, 67, 45
7, 73918, Note_on_c, 7, 67, 0
7, 73920, Note_on_c, 7, 66, 45
7, 74014, Note_on_c, 7, 66, 0
7, 74016, Note_on_c, 7, 66, 45
7, 74176, Note_on_c, 7, 66, 0
7, 74208, Note_on_c, 7, 66, 45
7, 74398, Note_on_c, 7, 66, 0
7, 74400, Note_on_c, 7, 66, 45
7, 74560, Note_on_c, 7, 66, 0
7, 74592, Note_on_c, 7, 66, 45
7, 74686, Note_on_c, 7, 66, 0
7, 74688, Note_on_c, 7, 71, 45
7, 74782, Note_on_c, 7, 71, 0
7, 74784, Note_on_c, 7, 75, 45
7, 74878, Note_on_c, 7, 75, 0
7, 74880, Note_on_c, 7, 76, 45
7, 74974, Note_on_c, 7, 76, 0
7, 74976, Note_on_c, 7, 72, 45
7, 75070, Note_on_c, 7, 72, 0
7, 75072, Note_on_c, 7, 71, 45
7, 75232, Note_on_c, 7, 71, 0
7, 75360, Note_on_c, 7, 73, 45
7, 75454, Note_on_c, 7, 73, 0
7, 75456, Note_on_c, 7, 74, 45
7, 75550, Note_on_c, 7, 74, 0
7, 75552, Note_on_c, 7, 67, 45
7, 75646, Note_on_c, 7, 67, 0
7, 75648, Note_on_c, 7, 69, 45
7, 75742, Note_on_c, 7, 69, 0
7, 75744, Note_on_c, 7, 70, 45
7, 75838, Note_on_c, 7, 70, 0
7, 75840, Note_on_c, 7, 69, 45
7, 76000, Note_on_c, 7, 69, 0
7, 76128, Note_on_c, 7, 74, 45
7, 76222, Note_on_c, 7, 74, 0
7, 76224, Note_on_c, 7, 71, 45
7, 76384, Note_on_c, 7, 71, 0
7, 76512, Note_on_c, 7, 76, 45
7, 76606, Note_on_c, 7, 76, 0
7, 76608, Note_on_c, 7, 76, 45
7, 76768, Note_on_c, 7, 76, 0
7, 76896, Note_on_c, 7, 69, 45
7, 76990, Note_on_c, 7, 69, 0
7, 76992, Note_on_c, 7, 69, 45
7, 77152, Note_on_c, 7, 69, 0
7, 78240, Note_on_c, 7, 57, 45
7, 78334, Note_on_c, 7, 57, 0
7, 78336, Note_on_c, 7, 69, 45
7, 78430, Note_on_c, 7, 69, 0
7, 78432, Note_on_c, 7, 69, 45
7, 78526, Note_on_c, 7, 69, 0
7, 78528, Note_on_c, 7, 69, 45
7, 78720, Note_on_c, 7, 69, 0
7, 78720, Note_on_c, 7, 67, 45
7, 78880, Note_on_c, 7, 67, 0
7, 78912, Note_on_c, 7, 66, 45
7, 79104, Note_on_c, 7, 66, 0
7, 79104, Note_on_c, 7, 64, 45
7, 79264, Note_on_c, 7, 64, 0
7, 79296, Note_on_c, 7, 76, 45
7, 79440, Note_on_c, 7, 76, 0
7, 79440, Note_on_c, 7, 75, 45
7, 79486, Note_on_c, 7, 75, 0
7, 79488, Note_on_c, 7, 76, 45
7, 79536, Note_on_c, 7, 76, 0
7, 79536, Note_on_c, 7, 75, 45
7, 79582, Note_on_c, 7, 75, 0
7, 79584, Note_on_c, 7, 76, 45
7, 79632, Note_on_c, 7, 76, 0
7, 79632, Note_on_c, 7, 75, 45
7, 79678, Note_on_c, 7, 75, 0
7, 79680, Note_on_c, 7, 76, 45
7, 79968, Note_on_c, 7, 76, 0
7, 79968, Note_on_c, 7, 69, 45
7, 80062, Note_on_c, 7, 69, 0
7, 80064, Note_on_c, 7, 69, 45
7, 80158, Note_on_c, 7, 69, 0
7, 80160, Note_on_c, 7, 78, 45
7, 80256, Note_on_c, 7, 78, 0
7, 80256, Note_on_c, 7, 76, 45
7, 80352, Note_on_c, 7, 76, 0
7, 80352, Note_on_c, 7, 74, 45
7, 80446, Note_on_c, 7, 74, 0
7, 80448, Note_on_c, 7, 76, 45
7, 80472, Note_on_c, 7, 76, 0
7, 80472, Note_on_c, 7, 74, 45
7, 80496, Note_on_c, 7, 74, 0
7, 80496, Note_on_c, 7, 76, 45
7, 80520, Note_on_c, 7, 76, 0
7, 80520, Note_on_c, 7, 74, 45
7, 80544, Note_on_c, 7, 74, 0
7, 80544, Note_on_c, 7, 73, 45
7, 80638, Note_on_c, 7, 73, 0
7, 80640, Note_on_c, 7, 74, 45
7, 80664, Note_on_c, 7, 74, 0
7, 80664, Note_on_c, 7, 73, 45
7, 80688, Note_on_c, 7, 73, 0
7, 80688, Note_on_c, 7, 74, 45
7, 80712, Note_on_c, 7, 74, 0
7, 80712, Note_on_c, 7, 73, 45
7, 80736, Note_on_c, 7, 73, 0
7, 80736, Note_on_c, 7, 71, 45
7, 80830, Note_on_c, 7, 71, 0
7, 80832, Note_on_c, 7, 69, 45
7, 80992, Note_on_c, 7, 69, 0
7, 81792, Note_on_c, 7, 81, 45
7, 81824, Note_on_c, 7, 81, 0
7, 81888, Note_on_c, 7, 81, 45
7, 81920, Note_on_c, 7, 81, 0
7, 81984, Note_on_c, 7, 81, 45
7, 82144, Note_on_c, 7, 81, 0
7, 82176, Note_on_c, 7, 83, 45
7, 82224, Note_on_c, 7, 83, 0
7, 82224, Note_on_c, 7, 81, 45
7, 82270, Note_on_c, 7, 81, 0
7, 82272, Note_on_c, 7, 79, 45
7, 82304, Note_on_c, 7, 79, 0
7, 82320, Note_on_c, 7, 78, 45
7, 82352, Note_on_c, 7, 78, 0
7, 82368, Note_on_c, 7, 78, 45
7, 82464, Note_on_c, 7, 78, 0
7, 82464, Note_on_c, 7, 76, 45
7, 82558, Note_on_c, 7, 76, 0
7, 83328, Note_on_c, 7, 81, 45
7, 83360, Note_on_c, 7, 81, 0
7, 83424, Note_on_c, 7, 81, 45
7, 83456, Note_on_c, 7, 81, 0
7, 83520, Note_on_c, 7, 81, 45
7, 83680, Note_on_c, 7, 81, 0
7, 83712, Note_on_c, 7, 83, 45
7, 83760, Note_on_c, 7, 83, 0
7, 83760, Note_on_c, 7, 81, 45
7, 83806, Note_on_c, 7, 81, 0
7, 83808, Note_on_c, 7, 79, 45
7, 83840, Note_on_c, 7, 79, 0
7, 83856, Note_on_c, 7, 78, 45
7, 83888, Note_on_c, 7, 78, 0
7, 83904, Note_on_c, 7, 76, 45
7, 83998, Note_on_c, 7, 76, 0
7, 84000, Note_on_c, 7, 76, 92
7, 84032, Note_on_c, 7, 76, 0
7, 84048, Note_on_c, 7, 78, 92
7, 84080, Note_on_c, 7, 78, 0
7, 84096, Note_on_c, 7, 79, 92
7, 84190, Note_on_c, 7, 79, 0
7, 84384, Note_on_c, 7, 76, 92
7, 84416, Note_on_c, 7, 76, 0
7, 84432, Note_on_c, 7, 78, 92
7, 84464, Note_on_c, 7, 78, 0
7, 84480, Note_on_c, 7, 79, 92
7, 84574, Note_on_c, 7, 79, 0
7, 84768, Note_on_c, 7, 85, 92
7, 84800, Note_on_c, 7, 85, 0
7, 84816, Note_on_c, 7, 86, 92
7, 84848, Note_on_c, 7, 86, 0
7, 84864, Note_on_c, 7, 88, 92
7, 84958, Note_on_c, 7, 88, 0
7, 85152, Note_on_c, 7, 85, 92
7, 85184, Note_on_c, 7, 85, 0
7, 85200, Note_on_c, 7, 86, 92
7, 85232, Note_on_c, 7, 86, 0
7, 85248, Note_on_c, 7, 88, 92
7, 85342, Note_on_c, 7, 88, 0
7, 86976, Note_on_c, 7, 69, 45
7, 87070, Note_on_c, 7, 69, 0
7, 87168, Note_on_c, 7, 74, 45
7, 87192, Note_on_c, 7, 74, 0
7, 87192, Note_on_c, 7, 73, 45
7, 87216, Note_on_c, 7, 73, 0
7, 87216, Note_on_c, 7, 74, 45
7, 87240, Note_on_c, 7, 74, 0
7, 87240, Note_on_c, 7, 73, 45
7, 87264, Note_on_c, 7, 73, 0
7, 87264, Note_on_c, 7, 74, 45
7, 87288, Note_on_c, 7, 74, 0
7, 87288, Note_on_c, 7, 73, 45
7, 87312, Note_on_c, 7, 73, 0
7, 87312, Note_on_c, 7, 71, 45
7, 87336, Note_on_c, 7, 71, 0
7, 87336, Note_on_c, 7, 73, 45
7, 87358, Note_on_c, 7, 73, 0
7, 87360, Note_on_c, 7, 74, 45
7, 87454, Note_on_c, 7, 74, 0
7, 87552, Note_on_c, 7, 74, 45
7, 87584, Note_on_c, 7, 74, 0
7, 87648, Note_on_c, 7, 74, 45
7, 87680, Note_on_c, 7, 74, 0
7, 87744, Note_on_c, 7, 74, 45
7, 87776, Note_on_c, 7, 74, 0
7, 87840, Note_on_c, 7, 74, 45
7, 87872, Note_on_c, 7, 74, 0
7, 87936, Note_on_c, 7, 74, 45
7, 87968, Note_on_c, 7, 74, 0
7, 88032, Note_on_c, 7, 74, 45
7, 88064, Note_on_c, 7, 74, 0
7, 88128, Note_on_c, 7, 74, 45
7, 88288, Note_on_c, 7, 74, 0
7, 88416, Note_on_c, 7, 69, 45
7, 88510, Note_on_c, 7, 69, 0
7, 88512, Note_on_c, 7, 69, 45
7, 88768, Note_on_c, 7, 69, 0
7, 88800, Note_on_c, 7, 69, 45
7, 88894, Note_on_c, 7, 69, 0
7, 88896, Note_on_c, 7, 69, 45
7, 89056, Note_on_c, 7, 69, 0
7, 89088, Note_on_c, 7, 78, 45
7, 89136, Note_on_c, 7, 78, 0
7, 89136, Note_on_c, 7, 74, 45
7, 89182, Note_on_c, 7, 74, 0
7, 89184, Note_on_c, 7, 76, 45
7, 89216, Note_on_c, 7, 76, 0
7, 89232, Note_on_c, 7, 73, 45
7, 89264, Note_on_c, 7, 73, 0
7, 89280, Note_on_c, 7, 74, 45
7, 89374, Note_on_c, 7, 74, 0
7, 89472, Note_on_c, 7, 74, 45
7, 89496, Note_on_c, 7, 74, 0
7, 89496, Note_on_c, 7, 73, 45
7, 89520, Note_on_c, 7, 73, 0
7, 89520, Note_on_c, 7, 74, 45
7, 89544, Note_on_c, 7, 74, 0
7, 89544, Note_on_c, 7, 73, 45
7, 89568, Note_on_c, 7, 73, 0
7, 89568, Note_on_c, 7, 74, 45
7, 89592, Note_on_c, 7, 74, 0
7, 89592, Note_on_c, 7, 73, 45
7, 89616, Note_on_c, 7, 73, 0
7, 89616, Note_on_c, 7, 71, 45
7, 89640, Note_on_c, 7, 71, 0
7, 89640, Note_on_c, 7, 73, 45
7, 89662, Note_on_c, 7, 73, 0
7, 89664, Note_on_c, 7, 74, 45
7, 89758, Note_on_c, 7, 74, 0
7, 89856, Note_on_c, 7, 74, 45
7, 89888, Note_on_c, 7, 74, 0
7, 89952, Note_on_c, 7, 76, 45
7, 89984, Note_on_c, 7, 76, 0
7, 90048, Note_on_c, 7, 78, 45
7, 90080, Note_on_c, 7, 78, 0
7, 90144, Note_on_c, 7, 79, 45
7, 90176, Note_on_c, 7, 79, 0
7, 90240, Note_on_c, 7, 81, 45
7, 90272, Note_on_c, 7, 81, 0
7, 90336, Note_on_c, 7, 79, 45
7, 90368, Note_on_c, 7, 79, 0
7, 90432, Note_on_c, 7, 78, 45
7, 90592, Note_on_c, 7, 78, 0
7, 90720, Note_on_c, 7, 74, 45
7, 90814, Note_on_c, 7, 74, 0
7, 90816, Note_on_c, 7, 64, 45
7, 90976, Note_on_c, 7, 64, 0
7, 91008, Note_on_c, 7, 66, 45
7, 91102, Note_on_c, 7, 66, 0
7, 91104, Note_on_c, 7, 69, 45
7, 91128, Note_on_c, 7, 69, 0
7, 91128, Note_on_c, 7, 67, 45
7, 91152, Note_on_c, 7, 67, 0
7, 91152, Note_on_c, 7, 69, 45
7, 91176, Note_on_c, 7, 69, 0
7, 91176, Note_on_c, 7, 67, 45
7, 91200, Note_on_c, 7, 67, 0
7, 91200, Note_on_c, 7, 66, 45
7, 91360, Note_on_c, 7, 66, 0
7, 91392, Note_on_c, 7, 86, 92
7, 91486, Note_on_c, 7, 86, 0
7, 91488, Note_on_c, 7, 86, 92
7, 91582, Note_on_c, 7, 86, 0
7, 91584, Note_on_c, 7, 76, 92
7, 91744, Note_on_c, 7, 76, 0
7, 91776, Note_on_c, 7, 79, 92
7, 91824, Note_on_c, 7, 79, 0
7, 91824, Note_on_c, 7, 81, 92
7, 91870, Note_on_c, 7, 81, 0
7, 91872, Note_on_c, 7, 79, 92
7, 91920, Note_on_c, 7, 79, 0
7, 91920, Note_on_c, 7, 81, 92
7, 91966, Note_on_c, 7, 81, 0
7, 91968, Note_on_c, 7, 78, 92
7, 92128, Note_on_c, 7, 78, 0
7, 92160, Note_on_c, 7, 86, 92
7, 92254, Note_on_c, 7, 86, 0
7, 92256, Note_on_c, 7, 86, 92
7, 92350, Note_on_c, 7, 86, 0
7, 92352, Note_on_c, 7, 76, 92
7, 92512, Note_on_c, 7, 76, 0
7, 92544, Note_on_c, 7, 79, 92
7, 92592, Note_on_c, 7, 79, 0
7, 92592, Note_on_c, 7, 78, 92
7, 92638, Note_on_c, 7, 78, 0
7, 92640, Note_on_c, 7, 79, 92
7, 92672, Note_on_c, 7, 79, 0
7, 92688, Note_on_c, 7, 76, 92
7, 92720, Note_on_c, 7, 76, 0
7, 92736, Note_on_c, 7, 74, 92
7, 92896, Note_on_c, 7, 74, 0
7, 93120, Note_on_c, 7, 71, 45
7, 93214, Note_on_c, 7, 71, 0
7, 93216, Note_on_c, 7, 71, 45
7, 93310, Note_on_c, 7, 71, 0
7, 93312, Note_on_c, 7, 74, 45
7, 93406, Note_on_c, 7, 74, 0
7, 93408, Note_on_c, 7, 74, 45
7, 93502, Note_on_c, 7, 74, 0
7, 93504, Note_on_c, 7, 73, 45
7, 93598, Note_on_c, 7, 73, 0
7, 93600, Note_on_c, 7, 73, 45
7, 93694, Note_on_c, 7, 73, 0
7, 93696, Note_on_c, 7, 73, 45
7, 93790, Note_on_c, 7, 73, 0
7, 93792, Note_on_c, 7, 74, 45
7, 93886, Note_on_c, 7, 74, 0
7, 93888, Note_on_c, 7, 73, 45
7, 93982, Note_on_c, 7, 73, 0
7, 93984, Note_on_c, 7, 74, 45
7, 94078, Note_on_c, 7, 74, 0
7, 94080, Note_on_c, 7, 73, 45
7, 94174, Note_on_c, 7, 73, 0
7, 94176, Note_on_c, 7, 74, 45
7, 94270, Note_on_c, 7, 74, 0
7, 94272, Note_on_c, 7, 73, 45
7, 94432, Note_on_c, 7, 73, 0
7, 94656, Note_on_c, 7, 64, 45
7, 94750, Note_on_c, 7, 64, 0
7, 94752, Note_on_c, 7, 64, 45
7, 94846, Note_on_c, 7, 64, 0
7, 94848, Note_on_c, 7, 67, 45
7, 94942, Note_on_c, 7, 67, 0
7, 94944, Note_on_c, 7, 67, 45
7, 95038, Note_on_c, 7, 67, 0
7, 95040, Note_on_c, 7, 66, 45
7, 95134, Note_on_c, 7, 66, 0
7, 95136, Note_on_c, 7, 66, 45
7, 95230, Note_on_c, 7, 66, 0
7, 95232, Note_on_c, 7, 66, 45
7, 95326, Note_on_c, 7, 66, 0
7, 95328, Note_on_c, 7, 67, 45
7, 95422, Note_on_c, 7, 67, 0
7, 95424, Note_on_c, 7, 66, 45
7, 95518, Note_on_c, 7, 66, 0
7, 95520, Note_on_c, 7, 67, 45
7, 95614, Note_on_c, 7, 67, 0
7, 95616, Note_on_c, 7, 66, 45
7, 95710, Note_on_c, 7, 66, 0
7, 95712, Note_on_c, 7, 67, 45
7, 95806, Note_on_c, 7, 67, 0
7, 95808, Note_on_c, 7, 66, 92
7, 95902, Note_on_c, 7, 66, 0
7, 95904, Note_on_c, 7, 78, 92
7, 95936, Note_on_c, 7, 78, 0
7, 95952, Note_on_c, 7, 79, 92
7, 95984, Note_on_c, 7, 79, 0
7, 96000, Note_on_c, 7, 81, 92
7, 96094, Note_on_c, 7, 81, 0
7, 96288, Note_on_c, 7, 78, 92
7, 96320, Note_on_c, 7, 78, 0
7, 96336, Note_on_c, 7, 79, 92
7, 96368, Note_on_c, 7, 79, 0
7, 96384, Note_on_c, 7, 81, 92
7, 96478, Note_on_c, 7, 81, 0
7, 96672, Note_on_c, 7, 83, 92
7, 96704, Note_on_c, 7, 83, 0
7, 96720, Note_on_c, 7, 85, 92
7, 96752, Note_on_c, 7, 85, 0
7, 96768, Note_on_c, 7, 86, 92
7, 96862, Note_on_c, 7, 86, 0
7, 97056, Note_on_c, 7, 83, 92
7, 97088, Note_on_c, 7, 83, 0
7, 97104, Note_on_c, 7, 85, 92
7, 97136, Note_on_c, 7, 85, 0
7, 97152, Note_on_c, 7, 86, 92
7, 97246, Note_on_c, 7, 86, 0
7, 97440, Note_on_c, 7, 86, 92
7, 97472, Note_on_c, 7, 86, 0
7, 97536, Note_on_c, 7, 90, 92
7, 97568, Note_on_c, 7, 90, 0
7, 97632, Note_on_c, 7, 83, 92
7, 97664, Note_on_c, 7, 83, 0
7, 97728, Note_on_c, 7, 86, 92
7, 97760, Note_on_c, 7, 86, 0
7, 97824, Note_on_c, 7, 74, 92
7, 97856, Note_on_c, 7, 74, 0
7, 97920, Note_on_c, 7, 78, 92
7, 97952, Note_on_c, 7, 78, 0
7, 98016, Note_on_c, 7, 68, 92
7, 98048, Note_on_c, 7, 68, 0
7, 98112, Note_on_c, 7, 57, 92
7, 98112, Note_on_c, 7, 69, 92
7, 98272, Note_on_c, 7, 57, 0
7, 98272, Note_on_c, 7, 69, 0
7, 111264, Note_on_c, 7, 66, 45
7, 111358, Note_on_c, 7, 66, 0
7, 111360, Note_on_c, 7, 66, 45
7, 111454, Note_on_c, 7, 66, 0
7, 111456, Note_on_c, 7, 66, 45
7, 111550, Note_on_c, 7, 66, 0
7, 111648, Note_on_c, 7, 67, 45
7, 111742, Note_on_c, 7, 67, 0
7, 111744, Note_on_c, 7, 67, 45
7, 111838, Note_on_c, 7, 67, 0
7, 111840, Note_on_c, 7, 67, 45
7, 111934, Note_on_c, 7, 67, 0
7, 112032, Note_on_c, 7, 66, 45
7, 112126, Note_on_c, 7, 66, 0
7, 112128, Note_on_c, 7, 66, 45
7, 112222, Note_on_c, 7, 66, 0
7, 112224, Note_on_c, 7, 66, 45
7, 112318, Note_on_c, 7, 66, 0
7, 112320, Note_on_c, 7, 67, 45
7, 112798, Note_on_c, 7, 67, 0
7, 113472, Note_on_c, 7, 69, 45
7, 113520, Note_on_c, 7, 69, 0
7, 113520, Note_on_c, 7, 66, 45
7, 113566, Note_on_c, 7, 66, 0
7, 113568, Note_on_c, 7, 69, 45
7, 113600, Note_on_c, 7, 69, 0
7, 113616, Note_on_c, 7, 66, 45
7, 113648, Note_on_c, 7, 66, 0
7, 113664, Note_on_c, 7, 67, 45
7, 113712, Note_on_c, 7, 67, 0
7, 113712, Note_on_c, 7, 64, 45
7, 113758, Note_on_c, 7, 64, 0
7, 113760, Note_on_c, 7, 67, 45
7, 113792, Note_on_c, 7, 67, 0
7, 113808, Note_on_c, 7, 64, 45
7, 113840, Note_on_c, 7, 64, 0
7, 113856, Note_on_c, 7, 66, 45
7, 113950, Note_on_c, 7, 66, 0
7, 114048, Note_on_c, 7, 66, 45
7, 114080, Note_on_c, 7, 66, 0
7, 114144, Note_on_c, 7, 67, 45
7, 114176, Note_on_c, 7, 67, 0
7, 114240, Note_on_c, 7, 69, 45
7, 114272, Note_on_c, 7, 69, 0
7, 114336, Note_on_c, 7, 71, 45
7, 114368, Note_on_c, 7, 71, 0
7, 114432, Note_on_c, 7, 73, 45
7, 114464, Note_on_c, 7, 73, 0
7, 114528, Note_on_c, 7, 74, 45
7, 114560, Note_on_c, 7, 74, 0
7, 114624, Note_on_c, 7, 69, 45
7, 114784, Note_on_c, 7, 69, 0
7, 114912, Note_on_c, 7, 69, 45
7, 115006, Note_on_c, 7, 69, 0
7, 115008, Note_on_c, 7, 69, 45
7, 115264, Note_on_c, 7, 69, 0
7, 115296, Note_on_c, 7, 69, 45
7, 115390, Note_on_c, 7, 69, 0
7, 115392, Note_on_c, 7, 69, 45
7, 115488, Note_on_c, 7, 69, 0
7, 115488, Note_on_c, 7, 73, 45
7, 115582, Note_on_c, 7, 73, 0
7, 115584, Note_on_c, 7, 81, 92
7, 115632, Note_on_c, 7, 81, 0
7, 115632, Note_on_c, 7, 78, 92
7, 115678, Note_on_c, 7, 78, 0
7, 115680, Note_on_c, 7, 79, 92
7, 115712, Note_on_c, 7, 79, 0
7, 115728, Note_on_c, 7, 76, 92
7, 115760, Note_on_c, 7, 76, 0
7, 115776, Note_on_c, 7, 74, 92
7, 115870, Note_on_c, 7, 74, 0
7, 115968, Note_on_c, 7, 76, 92
7, 116112, Note_on_c, 7, 76, 0
7, 116112, Note_on_c, 7, 74, 92
7, 116136, Note_on_c, 7, 74, 0
7, 116136, Note_on_c, 7, 76, 92
7, 116158, Note_on_c, 7, 76, 0
7, 116160, Note_on_c, 7, 78, 92
7, 116254, Note_on_c, 7, 78, 0
7, 116352, Note_on_c, 7, 78, 92
7, 116384, Note_on_c, 7, 78, 0
7, 116448, Note_on_c, 7, 79, 92
7, 116480, Note_on_c, 7, 79, 0
7, 116544, Note_on_c, 7, 81, 92
7, 116576, Note_on_c, 7, 81, 0
7, 116640, Note_on_c, 7, 83, 92
7, 116672, Note_on_c, 7, 83, 0
7, 116736, Note_on_c, 7, 85, 92
7, 116768, Note_on_c, 7, 85, 0
7, 116832, Note_on_c, 7, 86, 92
7, 116864, Note_on_c, 7, 86, 0
7, 116928, Note_on_c, 7, 81, 92
7, 117088, Note_on_c, 7, 81, 0
7, 117120, Note_on_c, 7, 85, 45
7, 117216, Note_on_c, 7, 85, 0
7, 117216, Note_on_c, 7, 86, 45
7, 117310, Note_on_c, 7, 86, 0
7, 117312, Note_on_c, 7, 81, 45
7, 117406, Note_on_c, 7, 81, 0
7, 117408, Note_on_c, 7, 81, 45
7, 117502, Note_on_c, 7, 81, 0
7, 117504, Note_on_c, 7, 85, 45
7, 117552, Note_on_c, 7, 85, 0
7, 117552, Note_on_c, 7, 86, 45
7, 117598, Note_on_c, 7, 86, 0
7, 117600, Note_on_c, 7, 85, 45
7, 117648, Note_on_c, 7, 85, 0
7, 117648, Note_on_c, 7, 86, 45
7, 117694, Note_on_c, 7, 86, 0
7, 117696, Note_on_c, 7, 81, 45
7, 117856, Note_on_c, 7, 81, 0
7, 117888, Note_on_c, 7, 83, 92
7, 117936, Note_on_c, 7, 83, 0
7, 117936, Note_on_c, 7, 81, 92
7, 117982, Note_on_c, 7, 81, 0
7, 117984, Note_on_c, 7, 79, 92
7, 118016, Note_on_c, 7, 79, 0
7, 118032, Note_on_c, 7, 78, 92
7, 118064, Note_on_c, 7, 78, 0
7, 118080, Note_on_c, 7, 75, 92
7, 118128, Note_on_c, 7, 75, 0
7, 118128, Note_on_c, 7, 76, 92
7, 118174, Note_on_c, 7, 76, 0
7, 118176, Note_on_c, 7, 79, 92
7, 118208, Note_on_c, 7, 79, 0
7, 118224, Note_on_c, 7, 83, 92
7, 118256, Note_on_c, 7, 83, 0
7, 118272, Note_on_c, 7, 81, 92
7, 118320, Note_on_c, 7, 81, 0
7, 118320, Note_on_c, 7, 78, 92
7, 118366, Note_on_c, 7, 78, 0
7, 118368, Note_on_c, 7, 79, 92
7, 118400, Note_on_c, 7, 79, 0
7, 118416, Note_on_c, 7, 76, 92
7, 118448, Note_on_c, 7, 76, 0
7, 118464, Note_on_c, 7, 74, 92
7, 118624, Note_on_c, 7, 74, 0
7, 118848, Note_on_c, 7, 71, 45
7, 118942, Note_on_c, 7, 71, 0
7, 118944, Note_on_c, 7, 71, 45
7, 119038, Note_on_c, 7, 71, 0
7, 119040, Note_on_c, 7, 74, 45
7, 119134, Note_on_c, 7, 74, 0
7, 119136, Note_on_c, 7, 74, 45
7, 119230, Note_on_c, 7, 74, 0
7, 119232, Note_on_c, 7, 73, 45
7, 119326, Note_on_c, 7, 73, 0
7, 119328, Note_on_c, 7, 73, 45
7, 119422, Note_on_c, 7, 73, 0
7, 119424, Note_on_c, 7, 73, 45
7, 119518, Note_on_c, 7, 73, 0
7, 119520, Note_on_c, 7, 74, 45
7, 119614, Note_on_c, 7, 74, 0
7, 119616, Note_on_c, 7, 73, 45
7, 119710, Note_on_c, 7, 73, 0
7, 119712, Note_on_c, 7, 74, 45
7, 119806, Note_on_c, 7, 74, 0
7, 119808, Note_on_c, 7, 73, 45
7, 119902, Note_on_c, 7, 73, 0
7, 119904, Note_on_c, 7, 74, 45
7, 119998, Note_on_c, 7, 74, 0
7, 120000, Note_on_c, 7, 73, 45
7, 120160, Note_on_c, 7, 73, 0
7, 120384, Note_on_c, 7, 64, 45
7, 120478, Note_on_c, 7, 64, 0
7, 120480, Note_on_c, 7, 64, 45
7, 120574, Note_on_c, 7, 64, 0
7, 120576, Note_on_c, 7, 67, 45
7, 120670, Note_on_c, 7, 67, 0
7, 120672, Note_on_c, 7, 67, 45
7, 120766, Note_on_c, 7, 67, 0
7, 120768, Note_on_c, 7, 66, 45
7, 120862, Note_on_c, 7, 66, 0
7, 120864, Note_on_c, 7, 66, 45
7, 120958, Note_on_c, 7, 66, 0
7, 120960, Note_on_c, 7, 66, 45
7, 121054, Note_on_c, 7, 66, 0
7, 121056, Note_on_c, 7, 67, 45
7, 121150, Note_on_c, 7, 67, 0
7, 121152, Note_on_c, 7, 66, 45
7, 121246, Note_on_c, 7, 66, 0
7, 121248, Note_on_c, 7, 67, 45
7, 121342, Note_on_c, 7, 67, 0
7, 121344, Note_on_c, 7, 66, 45
7, 121438, Note_on_c, 7, 66, 0
7, 121440, Note_on_c, 7, 67, 45
7, 121534, Note_on_c, 7, 67, 0
7, 121536, Note_on_c, 7, 66, 45
7, 121630, Note_on_c, 7, 66, 0
7, 121632, Note_on_c, 7, 62, 92
7, 121664, Note_on_c, 7, 62, 0
7, 121680, Note_on_c, 7, 64, 92
7, 121712, Note_on_c, 7, 64, 0
7, 121728, Note_on_c, 7, 66, 92
7, 121776, Note_on_c, 7, 66, 0
7, 121776, Note_on_c, 7, 64, 92
7, 121822, Note_on_c, 7, 64, 0
7, 121824, Note_on_c, 7, 66, 92
7, 121856, Note_on_c, 7, 66, 0
7, 121872, Note_on_c, 7, 67, 92
7, 121904, Note_on_c, 7, 67, 0
7, 121920, Note_on_c, 7, 69, 92
7, 121952, Note_on_c, 7, 69, 0
7, 122016, Note_on_c, 7, 78, 92
7, 122048, Note_on_c, 7, 78, 0
7, 122112, Note_on_c, 7, 79, 92
7, 122144, Note_on_c, 7, 79, 0
7, 122208, Note_on_c, 7, 76, 92
7, 122240, Note_on_c, 7, 76, 0
7, 122304, Note_on_c, 7, 81, 92
7, 122398, Note_on_c, 7, 81, 0
7, 122400, Note_on_c, 7, 62, 92
7, 122432, Note_on_c, 7, 62, 0
7, 122448, Note_on_c, 7, 64, 92
7, 122480, Note_on_c, 7, 64, 0
7, 122496, Note_on_c, 7, 66, 92
7, 122544, Note_on_c, 7, 66, 0
7, 122544, Note_on_c, 7, 64, 92
7, 122590, Note_on_c, 7, 64, 0
7, 122592, Note_on_c, 7, 66, 92
7, 122624, Note_on_c, 7, 66, 0
7, 122640, Note_on_c, 7, 67, 92
7, 122672, Note_on_c, 7, 67, 0
7, 122688, Note_on_c, 7, 69, 92
7, 122720, Note_on_c, 7, 69, 0
7, 122784, Note_on_c, 7, 78, 92
7, 122816, Note_on_c, 7, 78, 0
7, 122880, Note_on_c, 7, 79, 92
7, 122912, Note_on_c, 7, 79, 0
7, 122976, Note_on_c, 7, 76, 92
7, 123008, Note_on_c, 7, 76, 0
7, 123072, Note_on_c, 7, 74, 92
7, 123104, Note_on_c, 7, 74, 0
7, 123168, Note_on_c, 7, 78, 92
7, 123200, Note_on_c, 7, 78, 0
7, 123264, Note_on_c, 7, 79, 92
7, 123296, Note_on_c, 7, 79, 0
7, 123360, Note_on_c, 7, 76, 92
7, 123392, Note_on_c, 7, 76, 0
7, 123456, Note_on_c, 7, 74, 92
7, 123488, Note_on_c, 7, 74, 0
7, 123552, Note_on_c, 7, 78, 92
7, 123584, Note_on_c, 7, 78, 0
7, 123648, Note_on_c, 7, 79, 92
7, 123680, Note_on_c, 7, 79, 0
7, 123744, Note_on_c, 7, 76, 92
7, 123776, Note_on_c, 7, 76, 0
7, 123840, Note_on_c, 7, 74, 92
7, 124000, Note_on_c, 7, 74, 0
7, 124032, Note_on_c, 7, 78, 92
7, 124032, Note_on_c, 7, 86, 92
7, 124192, Note_on_c, 7, 78, 0
7, 124192, Note_on_c, 7, 86, 0
7, 124224, Note_on_c, 7, 78, 92
7, 124224, Note_on_c, 7, 86, 92
7, 124480, Note_on_c, 7, 78, 0
7, 124480, Note_on_c, 7, 86, 0
7, 124480, End_track
8, 0, Start_track
8, 0, MIDI_port, 0
8, 0, Title_t, "Violino II"
8, 0, Program_c, 8, 48
8, 0, Control_c, 8, 7, 127
8, 0, Control_c, 8, 10, 64
8, 384, Note_on_c, 8, 66, 45
8, 478, Note_on_c, 8, 66, 0
8, 576, Note_on_c, 8, 57, 45
8, 576, Note_on_c, 8, 67, 45
8, 670, Note_on_c, 8, 57, 0
8, 670, Note_on_c, 8, 67, 0
8, 768, Note_on_c, 8, 57, 45
8, 768, Note_on_c, 8, 66, 45
8, 862, Note_on_c, 8, 57, 0
8, 862, Note_on_c, 8, 66, 0
8, 960, Note_on_c, 8, 62, 45
8, 992, Note_on_c, 8, 62, 0
8, 1056, Note_on_c, 8, 64, 45
8, 1088, Note_on_c, 8, 64, 0
8, 1152, Note_on_c, 8, 66, 45
8, 1184, Note_on_c, 8, 66, 0
8, 1248, Note_on_c, 8, 67, 45
8, 1280, Note_on_c, 8, 67, 0
8, 1344, Note_on_c, 8, 69, 45
8, 1376, Note_on_c, 8, 69, 0
8, 1440, Note_on_c, 8, 67, 45
8, 1472, Note_on_c, 8, 67, 0
8, 1536, Note_on_c, 8, 66, 45
8, 1696, Note_on_c, 8, 66, 0
8, 1824, Note_on_c, 8, 66, 45
8, 1918, Note_on_c, 8, 66, 0
8, 1920, Note_on_c, 8, 67, 45
8, 2112, Note_on_c, 8, 67, 0
8, 2112, Note_on_c, 8, 64, 45
8, 2206, Note_on_c, 8, 64, 0
8, 2208, Note_on_c, 8, 62, 45
8, 2302, Note_on_c, 8, 62, 0
8, 2304, Note_on_c, 8, 61, 45
8, 2464, Note_on_c, 8, 61, 0
8, 2688, Note_on_c, 8, 66, 45
8, 2782, Note_on_c, 8, 66, 0
8, 2880, Note_on_c, 8, 57, 45
8, 2880, Note_on_c, 8, 67, 45
8, 2974, Note_on_c, 8, 57, 0
8, 2974, Note_on_c, 8, 67, 0
8, 3072, Note_on_c, 8, 57, 45
8, 3072, Note_on_c, 8, 66, 45
8, 3166, Note_on_c, 8, 57, 0
8, 3166, Note_on_c, 8, 66, 0
8, 3264, Note_on_c, 8, 62, 45
8, 3296, Note_on_c, 8, 62, 0
8, 3360, Note_on_c, 8, 64, 45
8, 3392, Note_on_c, 8, 64, 0
8, 3456, Note_on_c, 8, 66, 45
8, 3488, Note_on_c, 8, 66, 0
8, 3552, Note_on_c, 8, 67, 45
8, 3584, Note_on_c, 8, 67, 0
8, 3648, Note_on_c, 8, 69, 45
8, 3680, Note_on_c, 8, 69, 0
8, 3744, Note_on_c, 8, 67, 45
8, 3776, Note_on_c, 8, 67, 0
8, 3840, Note_on_c, 8, 66, 45
8, 4000, Note_on_c, 8, 66, 0
8, 4128, Note_on_c, 8, 69, 45
8, 4222, Note_on_c, 8, 69, 0
8, 4224, Note_on_c, 8, 71, 45
8, 4384, Note_on_c, 8, 71, 0
8, 4416, Note_on_c, 8, 62, 45
8, 4510, Note_on_c, 8, 62, 0
8, 4512, Note_on_c, 8, 61, 45
8, 4606, Note_on_c, 8, 61, 0
8, 4608, Note_on_c, 8, 62, 45
8, 4768, Note_on_c, 8, 62, 0
8, 4992, Note_on_c, 8, 57, 92
8, 4992, Note_on_c, 8, 66, 92
8, 4992, Note_on_c, 8, 74, 92
8, 5086, Note_on_c, 8, 57, 0
8, 5086, Note_on_c, 8, 66, 0
8, 5086, Note_on_c, 8, 74, 0
8, 5184, Note_on_c, 8, 57, 92
8, 5184, Note_on_c, 8, 64, 92
8, 5184, Note_on_c, 8, 73, 92
8, 5278, Note_on_c, 8, 57, 0
8, 5278, Note_on_c, 8, 64, 0
8, 5278, Note_on_c, 8, 73, 0
8, 5376, Note_on_c, 8, 57, 92
8, 5376, Note_on_c, 8, 66, 92
8, 5376, Note_on_c, 8, 74, 92
8, 5470, Note_on_c, 8, 57, 0
8, 5470, Note_on_c, 8, 66, 0
8, 5470, Note_on_c, 8, 74, 0
8, 5568, Note_on_c, 8, 62, 92
8, 5600, Note_on_c, 8, 62, 0
8, 5664, Note_on_c, 8, 64, 92
8, 5696, Note_on_c, 8, 64, 0
8, 5760, Note_on_c, 8, 66, 92
8, 5792, Note_on_c, 8, 66, 0
8, 5856, Note_on_c, 8, 67, 92
8, 5888, Note_on_c, 8, 67, 0
8, 5952, Note_on_c, 8, 69, 92
8, 5984, Note_on_c, 8, 69, 0
8, 6048, Note_on_c, 8, 67, 92
8, 6080, Note_on_c, 8, 67, 0
8, 6144, Note_on_c, 8, 66, 92
8, 6304, Note_on_c, 8, 66, 0
8, 6336, Note_on_c, 8, 83, 92
8, 6384, Note_on_c, 8, 83, 0
8, 6384, Note_on_c, 8, 81, 92
8, 6430, Note_on_c, 8, 81, 0
8, 6432, Note_on_c, 8, 79, 92
8, 6464, Note_on_c, 8, 79, 0
8, 6480, Note_on_c, 8, 78, 92
8, 6512, Note_on_c, 8, 78, 0
8, 6528, Note_on_c, 8, 76, 92
8, 6576, Note_on_c, 8, 76, 0
8, 6576, Note_on_c, 8, 75, 92
8, 6622, Note_on_c, 8, 75, 0
8, 6624, Note_on_c, 8, 76, 92
8, 6656, Note_on_c, 8, 76, 0
8, 6672, Note_on_c, 8, 78, 92
8, 6704, Note_on_c, 8, 78, 0
8, 6720, Note_on_c, 8, 79, 92
8, 6768, Note_on_c, 8, 79, 0
8, 6768, Note_on_c, 8, 76, 92
8, 6814, Note_on_c, 8, 76, 0
8, 6816, Note_on_c, 8, 78, 92
8, 6864, Note_on_c, 8, 78, 0
8, 6864, Note_on_c, 8, 74, 92
8, 6910, Note_on_c, 8, 74, 0
8, 6912, Note_on_c, 8, 73, 92
8, 7008, Note_on_c, 8, 73, 0
8, 7008, Note_on_c, 8, 76, 92
8, 7102, Note_on_c, 8, 76, 0
8, 7296, Note_on_c, 8, 57, 92
8, 7296, Note_on_c, 8, 66, 92
8, 7296, Note_on_c, 8, 74, 92
8, 7390, Note_on_c, 8, 57, 0
8, 7390, Note_on_c, 8, 66, 0
8, 7390, Note_on_c, 8, 74, 0
8, 7488, Note_on_c, 8, 57, 92
8, 7488, Note_on_c, 8, 64, 92
8, 7488, Note_on_c, 8, 73, 92
8, 7582, Note_on_c, 8, 57, 0
8, 7582, Note_on_c, 8, 64, 0
8, 7582, Note_on_c, 8, 73, 0
8, 7680, Note_on_c, 8, 57, 92
8, 7680, Note_on_c, 8, 66, 92
8, 7680, Note_on_c, 8, 74, 92
8, 7774, Note_on_c, 8, 57, 0
8, 7774, Note_on_c, 8, 66, 0
8, 7774, Note_on_c, 8, 74, 0
8, 7872, Note_on_c, 8, 62, 92
8, 7904, Note_on_c, 8, 62, 0
8, 7968, Note_on_c, 8, 64, 92
8, 8000, Note_on_c, 8, 64, 0
8, 8064, Note_on_c, 8, 66, 92
8, 8096, Note_on_c, 8, 66, 0
8, 8160, Note_on_c, 8, 67, 92
8, 8192, Note_on_c, 8, 67, 0
8, 8256, Note_on_c, 8, 69, 92
8, 8288, Note_on_c, 8, 69, 0
8, 8352, Note_on_c, 8, 67, 92
8, 8384, Note_on_c, 8, 67, 0
8, 8448, Note_on_c, 8, 66, 92
8, 8608, Note_on_c, 8, 66, 0
8, 8640, Note_on_c, 8, 79, 92
8, 8688, Note_on_c, 8, 79, 0
8, 8688, Note_on_c, 8, 78, 92
8, 8734, Note_on_c, 8, 78, 0
8, 8736, Note_on_c, 8, 76, 92
8, 8768, Note_on_c, 8, 76, 0
8, 8784, Note_on_c, 8, 74, 92
8, 8816, Note_on_c, 8, 74, 0
8, 8832, Note_on_c, 8, 71, 92
8, 8926, Note_on_c, 8, 71, 0
8, 8928, Note_on_c, 8, 76, 92
8, 8960, Note_on_c, 8, 76, 0
8, 8976, Note_on_c, 8, 79, 92
8, 9008, Note_on_c, 8, 79, 0
8, 9024, Note_on_c, 8, 78, 92
8, 9072, Note_on_c, 8, 78, 0
8, 9072, Note_on_c, 8, 74, 92
8, 9118, Note_on_c, 8, 74, 0
8, 9120, Note_on_c, 8, 76, 92
8, 9152, Note_on_c, 8, 76, 0
8, 9168, Note_on_c, 8, 73, 92
8, 9200, Note_on_c, 8, 73, 0
8, 9216, Note_on_c, 8, 74, 92
8, 9376, Note_on_c, 8, 74, 0
8, 10176, Note_on_c, 8, 64, 45
8, 10208, Note_on_c, 8, 64, 0
8, 10272, Note_on_c, 8, 64, 45
8, 10304, Note_on_c, 8, 64, 0
8, 10368, Note_on_c, 8, 66, 45
8, 10560, Note_on_c, 8, 66, 0
8, 10560, Note_on_c, 8, 62, 45
8, 10654, Note_on_c, 8, 62, 0
8, 10656, Note_on_c, 8, 69, 45
8, 10750, Note_on_c, 8, 69, 0
8, 10752, Note_on_c, 8, 69, 45
8, 10912, Note_on_c, 8, 69, 0
8, 11712, Note_on_c, 8, 64, 45
8, 11744, Note_on_c, 8, 64, 0
8, 11808, Note_on_c, 8, 64, 45
8, 11840, Note_on_c, 8, 64, 0
8, 11904, Note_on_c, 8, 66, 45
8, 12096, Note_on_c, 8, 66, 0
8, 12096, Note_on_c, 8, 62, 45
8, 12190, Note_on_c, 8, 62, 0
8, 12192, Note_on_c, 8, 69, 45
8, 12286, Note_on_c, 8, 69, 0
8, 12288, Note_on_c, 8, 69, 45
8, 12382, Note_on_c, 8, 69, 0
8, 12384, Note_on_c, 8, 73, 92
8, 12416, Note_on_c, 8, 73, 0
8, 12432, Note_on_c, 8, 74, 92
8, 12464, Note_on_c, 8, 74, 0
8, 12480, Note_on_c, 8, 76, 92
8, 12574, Note_on_c, 8, 76, 0
8, 12768, Note_on_c, 8, 73, 92
8, 12800, Note_on_c, 8, 73, 0
8, 12816, Note_on_c, 8, 74, 92
8, 12848, Note_on_c, 8, 74, 0
8, 12864, Note_on_c, 8, 76, 92
8, 12958, Note_on_c, 8, 76, 0
8, 13152, Note_on_c, 8, 76, 92
8, 13184, Note_on_c, 8, 76, 0
8, 13200, Note_on_c, 8, 78, 92
8, 13232, Note_on_c, 8, 78, 0
8, 13248, Note_on_c, 8, 79, 92
8, 13342, Note_on_c, 8, 79, 0
8, 13536, Note_on_c, 8, 76, 92
8, 13568, Note_on_c, 8, 76, 0
8, 13584, Note_on_c, 8, 78, 92
8, 13616, Note_on_c, 8, 78, 0
8, 13632, Note_on_c, 8, 79, 92
8, 13726, Note_on_c, 8, 79, 0
8, 14688, Note_on_c, 8, 69, 45
8, 14782, Note_on_c, 8, 69, 0
8, 14784, Note_on_c, 8, 69, 45
8, 14878, Note_on_c, 8, 69, 0
8, 14880, Note_on_c, 8, 69, 45
8, 14974, Note_on_c, 8, 69, 0
8, 14976, Note_on_c, 8, 69, 45
8, 15120, Note_on_c, 8, 69, 0
8, 15120, Note_on_c, 8, 66, 45
8, 15166, Note_on_c, 8, 66, 0
8, 15168, Note_on_c, 8, 67, 45
8, 15312, Note_on_c, 8, 67, 0
8, 15312, Note_on_c, 8, 64, 45
8, 15358, Note_on_c, 8, 64, 0
8, 15360, Note_on_c, 8, 62, 45
8, 15520, Note_on_c, 8, 62, 0
8, 15552, Note_on_c, 8, 66, 45
8, 15576, Note_on_c, 8, 66, 0
8, 15576, Note_on_c, 8, 64, 45
8, 15600, Note_on_c, 8, 64, 0
8, 15600, Note_on_c, 8, 66, 45
8, 15624, Note_on_c, 8, 66, 0
8, 15624, Note_on_c, 8, 64, 45
8, 15648, Note_on_c, 8, 64, 0
8, 15648, Note_on_c, 8, 66, 45
8, 15672, Note_on_c, 8, 66, 0
8, 15672, Note_on_c, 8, 64, 45
8, 15696, Note_on_c, 8, 64, 0
8, 15696, Note_on_c, 8, 62, 45
8, 15720, Note_on_c, 8, 62, 0
8, 15720, Note_on_c, 8, 64, 45
8, 15742, Note_on_c, 8, 64, 0
8, 15744, Note_on_c, 8, 66, 45
8, 15792, Note_on_c, 8, 66, 0
8, 15792, Note_on_c, 8, 62, 45
8, 15838, Note_on_c, 8, 62, 0
8, 15840, Note_on_c, 8, 66, 45
8, 15888, Note_on_c, 8, 66, 0
8, 15888, Note_on_c, 8, 62, 45
8, 15934, Note_on_c, 8, 62, 0
8, 15936, Note_on_c, 8, 69, 45
8, 16096, Note_on_c, 8, 69, 0
8, 16224, Note_on_c, 8, 69, 45
8, 16256, Note_on_c, 8, 69, 0
8, 16320, Note_on_c, 8, 69, 45
8, 16352, Note_on_c, 8, 69, 0
8, 16416, Note_on_c, 8, 69, 45
8, 16448, Note_on_c, 8, 69, 0
8, 16512, Note_on_c, 8, 69, 45
8, 16656, Note_on_c, 8, 69, 0
8, 16656, Note_on_c, 8, 66, 45
8, 16702, Note_on_c, 8, 66, 0
8, 16704, Note_on_c, 8, 67, 45
8, 16848, Note_on_c, 8, 67, 0
8, 16848, Note_on_c, 8, 64, 45
8, 16894, Note_on_c, 8, 64, 0
8, 16896, Note_on_c, 8, 66, 92
8, 17056, Note_on_c, 8, 66, 0
8, 17088, Note_on_c, 8, 69, 92
8, 17134, Note_on_c, 8, 69, 0
8, 17136, Note_on_c, 8, 69, 92
8, 17182, Note_on_c, 8, 69, 0
8, 17184, Note_on_c, 8, 69, 92
8, 17230, Note_on_c, 8, 69, 0
8, 17232, Note_on_c, 8, 69, 92
8, 17278, Note_on_c, 8, 69, 0
8, 17280, Note_on_c, 8, 71, 92
8, 17326, Note_on_c, 8, 71, 0
8, 17328, Note_on_c, 8, 71, 92
8, 17374, Note_on_c, 8, 71, 0
8, 17376, Note_on_c, 8, 71, 92
8, 17422, Note_on_c, 8, 71, 0
8, 17424, Note_on_c, 8, 71, 92
8, 17470, Note_on_c, 8, 71, 0
8, 17472, Note_on_c, 8, 73, 92
8, 17518, Note_on_c, 8, 73, 0
8, 17520, Note_on_c, 8, 73, 92
8, 17566, Note_on_c, 8, 73, 0
8, 17568, Note_on_c, 8, 73, 92
8, 17614, Note_on_c, 8, 73, 0
8, 17616, Note_on_c, 8, 73, 92
8, 17662, Note_on_c, 8, 73, 0
8, 17664, Note_on_c, 8, 74, 92
8, 17710, Note_on_c, 8, 74, 0
8, 17712, Note_on_c, 8, 74, 92
8, 17758, Note_on_c, 8, 74, 0
8, 17760, Note_on_c, 8, 74, 92
8, 17806, Note_on_c, 8, 74, 0
8, 17808, Note_on_c, 8, 74, 92
8, 17854, Note_on_c, 8, 74, 0
8, 17856, Note_on_c, 8, 69, 92
8, 17902, Note_on_c, 8, 69, 0
8, 17904, Note_on_c, 8, 69, 92
8, 17950, Note_on_c, 8, 69, 0
8, 17952, Note_on_c, 8, 69, 92
8, 17998, Note_on_c, 8, 69, 0
8, 18000, Note_on_c, 8, 69, 92
8, 18046, Note_on_c, 8, 69, 0
8, 18048, Note_on_c, 8, 71, 92
8, 18094, Note_on_c, 8, 71, 0
8, 18096, Note_on_c, 8, 71, 92
8, 18142, Note_on_c, 8, 71, 0
8, 18144, Note_on_c, 8, 71, 92
8, 18190, Note_on_c, 8, 71, 0
8, 18192, Note_on_c, 8, 71, 92
8, 18238, Note_on_c, 8, 71, 0
8, 18240, Note_on_c, 8, 73, 92
8, 18286, Note_on_c, 8, 73, 0
8, 18288, Note_on_c, 8, 73, 92
8, 18334, Note_on_c, 8, 73, 0
8, 18336, Note_on_c, 8, 73, 92
8, 18382, Note_on_c, 8, 73, 0
8, 18384, Note_on_c, 8, 73, 92
8, 18430, Note_on_c, 8, 73, 0
8, 18432, Note_on_c, 8, 74, 92
8, 18526, Note_on_c, 8, 74, 0
8, 18528, Note_on_c, 8, 62, 92
8, 18560, Note_on_c, 8, 62, 0
8, 18576, Note_on_c, 8, 64, 92
8, 18608, Note_on_c, 8, 64, 0
8, 18624, Note_on_c, 8, 66, 92
8, 18672, Note_on_c, 8, 66, 0
8, 18672, Note_on_c, 8, 64, 92
8, 18718, Note_on_c, 8, 64, 0
8, 18720, Note_on_c, 8, 66, 92
8, 18752, Note_on_c, 8, 66, 0
8, 18768, Note_on_c, 8, 67, 92
8, 18800, Note_on_c, 8, 67, 0
8, 18816, Note_on_c, 8, 69, 92
8, 18910, Note_on_c, 8, 69, 0
8, 18912, Note_on_c, 8, 74, 92
8, 18944, Note_on_c, 8, 74, 0
8, 19008, Note_on_c, 8, 76, 92
8, 19040, Note_on_c, 8, 76, 0
8, 19104, Note_on_c, 8, 73, 92
8, 19136, Note_on_c, 8, 73, 0
8, 19200, Note_on_c, 8, 78, 92
8, 19294, Note_on_c, 8, 78, 0
8, 19296, Note_on_c, 8, 62, 92
8, 19328, Note_on_c, 8, 62, 0
8, 19344, Note_on_c, 8, 64, 92
8, 19376, Note_on_c, 8, 64, 0
8, 19392, Note_on_c, 8, 66, 92
8, 19440, Note_on_c, 8, 66, 0
8, 19440, Note_on_c, 8, 64, 92
8, 19486, Note_on_c, 8, 64, 0
8, 19488, Note_on_c, 8, 66, 92
8, 19520, Note_on_c, 8, 66, 0
8, 19536, Note_on_c, 8, 67, 92
8, 19568, Note_on_c, 8, 67, 0
8, 19584, Note_on_c, 8, 69, 92
8, 19616, Note_on_c, 8, 69, 0
8, 19680, Note_on_c, 8, 74, 92
8, 19712, Note_on_c, 8, 74, 0
8, 19776, Note_on_c, 8, 76, 92
8, 19808, Note_on_c, 8, 76, 0
8, 19872, Note_on_c, 8, 73, 92
8, 19904, Note_on_c, 8, 73, 0
8, 19968, Note_on_c, 8, 74, 92
8, 20000, Note_on_c, 8, 74, 0
8, 20064, Note_on_c, 8, 78, 92
8, 20096, Note_on_c, 8, 78, 0
8, 20160, Note_on_c, 8, 79, 92
8, 20192, Note_on_c, 8, 79, 0
8, 20256, Note_on_c, 8, 76, 92
8, 20288, Note_on_c, 8, 76, 0
8, 20352, Note_on_c, 8, 74, 92
8, 20384, Note_on_c, 8, 74, 0
8, 20448, Note_on_c, 8, 78, 92
8, 20480, Note_on_c, 8, 78, 0
8, 20544, Note_on_c, 8, 79, 92
8, 20576, Note_on_c, 8, 79, 0
8, 20640, Note_on_c, 8, 76, 92
8, 20672, Note_on_c, 8, 76, 0
8, 20736, Note_on_c, 8, 74, 92
8, 20896, Note_on_c, 8, 74, 0
8, 20928, Note_on_c, 8, 69, 92
8, 20928, Note_on_c, 8, 78, 92
8, 21088, Note_on_c, 8, 69, 0
8, 21088, Note_on_c, 8, 78, 0
8, 21120, Note_on_c, 8, 69, 92
8, 21120, Note_on_c, 8, 78, 92
8, 21280, Note_on_c, 8, 69, 0
8, 21280, Note_on_c, 8, 78, 0
8, 21504, Note_on_c, 8, 62, 45
8, 21598, Note_on_c, 8, 62, 0
8, 21600, Note_on_c, 8, 62, 45
8, 21694, Note_on_c, 8, 62, 0
8, 21696, Note_on_c, 8, 62, 45
8, 21790, Note_on_c, 8, 62, 0
8, 21792, Note_on_c, 8, 62, 45
8, 21886, Note_on_c, 8, 62, 0
8, 21888, Note_on_c, 8, 59, 45
8, 21982, Note_on_c, 8, 59, 0
8, 21984, Note_on_c, 8, 59, 45
8, 22078, Note_on_c, 8, 59, 0
8, 22080, Note_on_c, 8, 59, 45
8, 22174, Note_on_c, 8, 59, 0
8, 22176, Note_on_c, 8, 59, 45
8, 22270, Note_on_c, 8, 59, 0
8, 22272, Note_on_c, 8, 57, 45
8, 22366, Note_on_c, 8, 57, 0
8, 22368, Note_on_c, 8, 57, 45
8, 22462, Note_on_c, 8, 57, 0
8, 22464, Note_on_c, 8, 57, 45
8, 22558, Note_on_c, 8, 57, 0
8, 22560, Note_on_c, 8, 57, 45
8, 22654, Note_on_c, 8, 57, 0
8, 22656, Note_on_c, 8, 57, 45
8, 22750, Note_on_c, 8, 57, 0
8, 22752, Note_on_c, 8, 57, 45
8, 22846, Note_on_c, 8, 57, 0
8, 22848, Note_on_c, 8, 57, 45
8, 22944, Note_on_c, 8, 57, 0
8, 22944, Note_on_c, 8, 59, 45
8, 23038, Note_on_c, 8, 59, 0
8, 23040, Note_on_c, 8, 61, 45
8, 23134, Note_on_c, 8, 61, 0
8, 23136, Note_on_c, 8, 61, 45
8, 23230, Note_on_c, 8, 61, 0
8, 23232, Note_on_c, 8, 57, 45
8, 23326, Note_on_c, 8, 57, 0
8, 23328, Note_on_c, 8, 57, 45
8, 23422, Note_on_c, 8, 57, 0
8, 23424, Note_on_c, 8, 59, 45
8, 23518, Note_on_c, 8, 59, 0
8, 23520, Note_on_c, 8, 59, 45
8, 23614, Note_on_c, 8, 59, 0
8, 23616, Note_on_c, 8, 61, 45
8, 23710, Note_on_c, 8, 61, 0
8, 23712, Note_on_c, 8, 61, 45
8, 23806, Note_on_c, 8, 61, 0
8, 23808, Note_on_c, 8, 62, 45
8, 23902, Note_on_c, 8, 62, 0
8, 23904, Note_on_c, 8, 62, 45
8, 23998, Note_on_c, 8, 62, 0
8, 24000, Note_on_c, 8, 62, 45
8, 24094, Note_on_c, 8, 62, 0
8, 24096, Note_on_c, 8, 62, 45
8, 24190, Note_on_c, 8, 62, 0
8, 24192, Note_on_c, 8, 62, 45
8, 24286, Note_on_c, 8, 62, 0
8, 24288, Note_on_c, 8, 62, 45
8, 24384, Note_on_c, 8, 62, 0
8, 24384, Note_on_c, 8, 64, 45
8, 24480, Note_on_c, 8, 64, 0
8, 24480, Note_on_c, 8, 66, 45
8, 24574, Note_on_c, 8, 66, 0
8, 24576, Note_on_c, 8, 67, 45
8, 24768, Note_on_c, 8, 67, 0
8, 24768, Note_on_c, 8, 69, 45
8, 24928, Note_on_c, 8, 69, 0
8, 24960, Note_on_c, 8, 67, 45
8, 25120, Note_on_c, 8, 67, 0
8, 25248, Note_on_c, 8, 67, 45
8, 25342, Note_on_c, 8, 67, 0
8, 25344, Note_on_c, 8, 66, 45
8, 25536, Note_on_c, 8, 66, 0
8, 25536, Note_on_c, 8, 67, 45
8, 25696, Note_on_c, 8, 67, 0
8, 25728, Note_on_c, 8, 66, 45
8, 25888, Note_on_c, 8, 66, 0
8, 26016, Note_on_c, 8, 69, 45
8, 26110, Note_on_c, 8, 69, 0
8, 26112, Note_on_c, 8, 71, 45
8, 26272, Note_on_c, 8, 71, 0
8, 26400, Note_on_c, 8, 67, 45
8, 26494, Note_on_c, 8, 67, 0
8, 26496, Note_on_c, 8, 66, 45
8, 26590, Note_on_c, 8, 66, 0
8, 26592, Note_on_c, 8, 62, 45
8, 26686, Note_on_c, 8, 62, 0
8, 26688, Note_on_c, 8, 64, 45
8, 26782, Note_on_c, 8, 64, 0
8, 26784, Note_on_c, 8, 61, 45
8, 26878, Note_on_c, 8, 61, 0
8, 26880, Note_on_c, 8, 62, 45
8, 27040, Note_on_c, 8, 62, 0
8, 27840, Note_on_c, 8, 64, 45
8, 27872, Note_on_c, 8, 64, 0
8, 27936, Note_on_c, 8, 64, 45
8, 27968, Note_on_c, 8, 64, 0
8, 28032, Note_on_c, 8, 66, 45
8, 28224, Note_on_c, 8, 66, 0
8, 28224, Note_on_c, 8, 62, 45
8, 28318, Note_on_c, 8, 62, 0
8, 28320, Note_on_c, 8, 69, 45
8, 28414, Note_on_c, 8, 69, 0
8, 28416, Note_on_c, 8, 69, 45
8, 28576, Note_on_c, 8, 69, 0
8, 29376, Note_on_c, 8, 64, 45
8, 29408, Note_on_c, 8, 64, 0
8, 29472, Note_on_c, 8, 64, 45
8, 29504, Note_on_c, 8, 64, 0
8, 29568, Note_on_c, 8, 66, 45
8, 29760, Note_on_c, 8, 66, 0
8, 29760, Note_on_c, 8, 62, 45
8, 29854, Note_on_c, 8, 62, 0
8, 29856, Note_on_c, 8, 69, 45
8, 29950, Note_on_c, 8, 69, 0
8, 29952, Note_on_c, 8, 69, 45
8, 30112, Note_on_c, 8, 69, 0
8, 30144, Note_on_c, 8, 57, 45
8, 30238, Note_on_c, 8, 57, 0
8, 30240, Note_on_c, 8, 61, 45
8, 30334, Note_on_c, 8, 61, 0
8, 30336, Note_on_c, 8, 62, 45
8, 30430, Note_on_c, 8, 62, 0
8, 30432, Note_on_c, 8, 67, 45
8, 30526, Note_on_c, 8, 67, 0
8, 30528, Note_on_c, 8, 66, 45
8, 30622, Note_on_c, 8, 66, 0
8, 30624, Note_on_c, 8, 61, 45
8, 30718, Note_on_c, 8, 61, 0
8, 30720, Note_on_c, 8, 62, 45
8, 30880, Note_on_c, 8, 62, 0
8, 31008, Note_on_c, 8, 71, 45
8, 31102, Note_on_c, 8, 71, 0
8, 31104, Note_on_c, 8, 71, 45
8, 31582, Note_on_c, 8, 71, 0
8, 31584, Note_on_c, 8, 68, 45
8, 31630, Note_on_c, 8, 68, 0
8, 31632, Note_on_c, 8, 66, 45
8, 31678, Note_on_c, 8, 66, 0
8, 31680, Note_on_c, 8, 64, 45
8, 31774, Note_on_c, 8, 64, 0
8, 31776, Note_on_c, 8, 65, 45
8, 31870, Note_on_c, 8, 65, 0
8, 31872, Note_on_c, 8, 66, 45
8, 31966, Note_on_c, 8, 66, 0
8, 31968, Note_on_c, 8, 71, 45
8, 32062, Note_on_c, 8, 71, 0
8, 32064, Note_on_c, 8, 69, 45
8, 32158, Note_on_c, 8, 69, 0
8, 32160, Note_on_c, 8, 65, 45
8, 32254, Note_on_c, 8, 65, 0
8, 32256, Note_on_c, 8, 66, 45
8, 32416, Note_on_c, 8, 66, 0
8, 32544, Note_on_c, 8, 74, 45
8, 32638, Note_on_c, 8, 74, 0
8, 32640, Note_on_c, 8, 74, 45
8, 33118, Note_on_c, 8, 74, 0
8, 33120, Note_on_c, 8, 64, 45
8, 33214, Note_on_c, 8, 64, 0
8, 33216, Note_on_c, 8, 66, 45
8, 33310, Note_on_c, 8, 66, 0
8, 33312, Note_on_c, 8, 68, 45
8, 33406, Note_on_c, 8, 68, 0
8, 33408, Note_on_c, 8, 69, 45
8, 33568, Note_on_c, 8, 69, 0
8, 34080, Note_on_c, 8, 57, 45
8, 34174, Note_on_c, 8, 57, 0
8, 34176, Note_on_c, 8, 64, 45
8, 34224, Note_on_c, 8, 64, 0
8, 34224, Note_on_c, 8, 63, 45
8, 34270, Note_on_c, 8, 63, 0
8, 34272, Note_on_c, 8, 64, 45
8, 34320, Note_on_c, 8, 64, 0
8, 34320, Note_on_c, 8, 63, 45
8, 34366, Note_on_c, 8, 63, 0
8, 34368, Note_on_c, 8, 64, 45
8, 34462, Note_on_c, 8, 64, 0
8, 34464, Note_on_c, 8, 64, 92
8, 34558, Note_on_c, 8, 64, 0
8, 34560, Note_on_c, 8, 76, 92
8, 34608, Note_on_c, 8, 76, 0
8, 34608, Note_on_c, 8, 75, 92
8, 34654, Note_on_c, 8, 75, 0
8, 34656, Note_on_c, 8, 76, 92
8, 34704, Note_on_c, 8, 76, 0
8, 34704, Note_on_c, 8, 75, 92
8, 34750, Note_on_c, 8, 75, 0
8, 34752, Note_on_c, 8, 76, 92
8, 34846, Note_on_c, 8, 76, 0
8, 34944, Note_on_c, 8, 68, 45
8, 34944, Note_on_c, 8, 71, 45
8, 35038, Note_on_c, 8, 68, 0
8, 35038, Note_on_c, 8, 71, 0
8, 35040, Note_on_c, 8, 68, 45
8, 35040, Note_on_c, 8, 71, 45
8, 35200, Note_on_c, 8, 68, 0
8, 35200, Note_on_c, 8, 71, 0
8, 35232, Note_on_c, 8, 68, 45
8, 35232, Note_on_c, 8, 71, 45
8, 35422, Note_on_c, 8, 68, 0
8, 35422, Note_on_c, 8, 71, 0
8, 35424, Note_on_c, 8, 68, 45
8, 35424, Note_on_c, 8, 71, 45
8, 35584, Note_on_c, 8, 68, 0
8, 35584, Note_on_c, 8, 71, 0
8, 35616, Note_on_c, 8, 68, 45
8, 35616, Note_on_c, 8, 71, 45
8, 35710, Note_on_c, 8, 68, 0
8, 35710, Note_on_c, 8, 71, 0
8, 35712, Note_on_c, 8, 69, 45
8, 35806, Note_on_c, 8, 69, 0
8, 35808, Note_on_c, 8, 69, 45
8, 35968, Note_on_c, 8, 69, 0
8, 36000, Note_on_c, 8, 69, 45
8, 36190, Note_on_c, 8, 69, 0
8, 36192, Note_on_c, 8, 69, 45
8, 36352, Note_on_c, 8, 69, 0
8, 36384, Note_on_c, 8, 69, 45
8, 36478, Note_on_c, 8, 69, 0
8, 36480, Note_on_c, 8, 68, 45
8, 36480, Note_on_c, 8, 71, 45
8, 36574, Note_on_c, 8, 68, 0
8, 36574, Note_on_c, 8, 71, 0
8, 36576, Note_on_c, 8, 68, 45
8, 36576, Note_on_c, 8, 71, 45
8, 36736, Note_on_c, 8, 68, 0
8, 36736, Note_on_c, 8, 71, 0
8, 36768, Note_on_c, 8, 68, 45
8, 36768, Note_on_c, 8, 71, 45
8, 36958, Note_on_c, 8, 68, 0
8, 36958, Note_on_c, 8, 71, 0
8, 36960, Note_on_c, 8, 68, 45
8, 36960, Note_on_c, 8, 71, 45
8, 37120, Note_on_c, 8, 68, 0
8, 37120, Note_on_c, 8, 71, 0
8, 37152, Note_on_c, 8, 68, 45
8, 37152, Note_on_c, 8, 71, 45
8, 37246, Note_on_c, 8, 68, 0
8, 37246, Note_on_c, 8, 71, 0
8, 37248, Note_on_c, 8, 69, 45
8, 37342, Note_on_c, 8, 69, 0
8, 37344, Note_on_c, 8, 69, 45
8, 37504, Note_on_c, 8, 69, 0
8, 37536, Note_on_c, 8, 69, 45
8, 37726, Note_on_c, 8, 69, 0
8, 37728, Note_on_c, 8, 69, 45
8, 37888, Note_on_c, 8, 69, 0
8, 37920, Note_on_c, 8, 69, 45
8, 38014, Note_on_c, 8, 69, 0
8, 38016, Note_on_c, 8, 62, 45
8, 38110, Note_on_c, 8, 62, 0
8, 38112, Note_on_c, 8, 62, 45
8, 38206, Note_on_c, 8, 62, 0
8, 38208, Note_on_c, 8, 62, 45
8, 38302, Note_on_c, 8, 62, 0
8, 38304, Note_on_c, 8, 62, 45
8, 38398, Note_on_c, 8, 62, 0
8, 38400, Note_on_c, 8, 59, 45
8, 38494, Note_on_c, 8, 59, 0
8, 38496, Note_on_c, 8, 59, 45
8, 38590, Note_on_c, 8, 59, 0
8, 38592, Note_on_c, 8, 59, 45
8, 38686, Note_on_c, 8, 59, 0
8, 38688, Note_on_c, 8, 59, 45
8, 38782, Note_on_c, 8, 59, 0
8, 38784, Note_on_c, 8, 61, 45
8, 38878, Note_on_c, 8, 61, 0
8, 38880, Note_on_c, 8, 61, 45
8, 38974, Note_on_c, 8, 61, 0
8, 38976, Note_on_c, 8, 61, 45
8, 39070, Note_on_c, 8, 61, 0
8, 39072, Note_on_c, 8, 61, 45
8, 39166, Note_on_c, 8, 61, 0
8, 39168, Note_on_c, 8, 57, 45
8, 39262, Note_on_c, 8, 57, 0
8, 39264, Note_on_c, 8, 57, 45
8, 39358, Note_on_c, 8, 57, 0
8, 39360, Note_on_c, 8, 57, 45
8, 39454, Note_on_c, 8, 57, 0
8, 39456, Note_on_c, 8, 57, 45
8, 39550, Note_on_c, 8, 57, 0
8, 39552, Note_on_c, 8, 59, 45
8, 39646, Note_on_c, 8, 59, 0
8, 39648, Note_on_c, 8, 59, 45
8, 39742, Note_on_c, 8, 59, 0
8, 39744, Note_on_c, 8, 62, 45
8, 39838, Note_on_c, 8, 62, 0
8, 39840, Note_on_c, 8, 62, 45
8, 39934, Note_on_c, 8, 62, 0
8, 39936, Note_on_c, 8, 64, 45
8, 40030, Note_on_c, 8, 64, 0
8, 40032, Note_on_c, 8, 64, 45
8, 40126, Note_on_c, 8, 64, 0
8, 40128, Note_on_c, 8, 64, 45
8, 40222, Note_on_c, 8, 64, 0
8, 40224, Note_on_c, 8, 64, 45
8, 40318, Note_on_c, 8, 64, 0
8, 40320, Note_on_c, 8, 57, 45
8, 40352, Note_on_c, 8, 57, 0
8, 40416, Note_on_c, 8, 59, 45
8, 40448, Note_on_c, 8, 59, 0
8, 40512, Note_on_c, 8, 61, 45
8, 40544, Note_on_c, 8, 61, 0
8, 40608, Note_on_c, 8, 62, 45
8, 40640, Note_on_c, 8, 62, 0
8, 40704, Note_on_c, 8, 64, 45
8, 40736, Note_on_c, 8, 64, 0
8, 40800, Note_on_c, 8, 66, 45
8, 40832, Note_on_c, 8, 66, 0
8, 40896, Note_on_c, 8, 68, 45
8, 40928, Note_on_c, 8, 68, 0
8, 40992, Note_on_c, 8, 69, 45
8, 41024, Note_on_c, 8, 69, 0
8, 41088, Note_on_c, 8, 71, 45
8, 41232, Note_on_c, 8, 71, 0
8, 41232, Note_on_c, 8, 70, 45
8, 41278, Note_on_c, 8, 70, 0
8, 41280, Note_on_c, 8, 71, 45
8, 41328, Note_on_c, 8, 71, 0
8, 41328, Note_on_c, 8, 70, 45
8, 41374, Note_on_c, 8, 70, 0
8, 41376, Note_on_c, 8, 71, 45
8, 41424, Note_on_c, 8, 71, 0
8, 41424, Note_on_c, 8, 70, 45
8, 41470, Note_on_c, 8, 70, 0
8, 41472, Note_on_c, 8, 71, 45
8, 41728, Note_on_c, 8, 71, 0
8, 41760, Note_on_c, 8, 68, 45
8, 41854, Note_on_c, 8, 68, 0
8, 41856, Note_on_c, 8, 69, 45
8, 41950, Note_on_c, 8, 69, 0
8, 41952, Note_on_c, 8, 69, 45
8, 42046, Note_on_c, 8, 69, 0
8, 42048, Note_on_c, 8, 62, 45
8, 42142, Note_on_c, 8, 62, 0
8, 42144, Note_on_c, 8, 62, 45
8, 42238, Note_on_c, 8, 62, 0
8, 42240, Note_on_c, 8, 64, 45
8, 42334, Note_on_c, 8, 64, 0
8, 42336, Note_on_c, 8, 64, 45
8, 42430, Note_on_c, 8, 64, 0
8, 42432, Note_on_c, 8, 64, 45
8, 42526, Note_on_c, 8, 64, 0
8, 42528, Note_on_c, 8, 64, 45
8, 42622, Note_on_c, 8, 64, 0
8, 42624, Note_on_c, 8, 76, 45
8, 42784, Note_on_c, 8, 76, 0
8, 43104, Note_on_c, 8, 64, 45
8, 43198, Note_on_c, 8, 64, 0
8, 43200, Note_on_c, 8, 76, 45
8, 43294, Note_on_c, 8, 76, 0
8, 43296, Note_on_c, 8, 68, 45
8, 43390, Note_on_c, 8, 68, 0
8, 43392, Note_on_c, 8, 69, 45
8, 43486, Note_on_c, 8, 69, 0
8, 43488, Note_on_c, 8, 69, 45
8, 43582, Note_on_c, 8, 69, 0
8, 43584, Note_on_c, 8, 62, 45
8, 43678, Note_on_c, 8, 62, 0
8, 43680, Note_on_c, 8, 62, 45
8, 43774, Note_on_c, 8, 62, 0
8, 43776, Note_on_c, 8, 64, 45
8, 43870, Note_on_c, 8, 64, 0
8, 43872, Note_on_c, 8, 64, 45
8, 43966, Note_on_c, 8, 64, 0
8, 43968, Note_on_c, 8, 64, 45
8, 44062, Note_on_c, 8, 64, 0
8, 44064, Note_on_c, 8, 64, 45
8, 44158, Note_on_c, 8, 64, 0
8, 44160, Note_on_c, 8, 64, 45
8, 44254, Note_on_c, 8, 64, 0
8, 44256, Note_on_c, 8, 61, 45
8, 44350, Note_on_c, 8, 61, 0
8, 44448, Note_on_c, 8, 57, 45
8, 44542, Note_on_c, 8, 57, 0
8, 44640, Note_on_c, 8, 57, 45
8, 44734, Note_on_c, 8, 57, 0
8, 44832, Note_on_c, 8, 62, 45
8, 44926, Note_on_c, 8, 62, 0
8, 45024, Note_on_c, 8, 61, 45
8, 45118, Note_on_c, 8, 61, 0
8, 45216, Note_on_c, 8, 64, 45
8, 45310, Note_on_c, 8, 64, 0
8, 45408, Note_on_c, 8, 62, 45
8, 45502, Note_on_c, 8, 62, 0
8, 45600, Note_on_c, 8, 62, 45
8, 45694, Note_on_c, 8, 62, 0
8, 45696, Note_on_c, 8, 61, 45
8, 45790, Note_on_c, 8, 61, 0
8, 45792, Note_on_c, 8, 69, 92
8, 45838, Note_on_c, 8, 69, 0
8, 45840, Note_on_c, 8, 71, 92
8, 45886, Note_on_c, 8, 71, 0
8, 45888, Note_on_c, 8, 73, 92
8, 45936, Note_on_c, 8, 73, 0
8, 45936, Note_on_c, 8, 71, 92
8, 45982, Note_on_c, 8, 71, 0
8, 45984, Note_on_c, 8, 73, 92
8, 46016, Note_on_c, 8, 73, 0
8, 46032, Note_on_c, 8, 74, 92
8, 46064, Note_on_c, 8, 74, 0
8, 46080, Note_on_c, 8, 76, 92
8, 46174, Note_on_c, 8, 76, 0
8, 46176, Note_on_c, 8, 81, 92
8, 46208, Note_on_c, 8, 81, 0
8, 46272, Note_on_c, 8, 83, 92
8, 46304, Note_on_c, 8, 83, 0
8, 46368, Note_on_c, 8, 80, 92
8, 46400, Note_on_c, 8, 80, 0
8, 46464, Note_on_c, 8, 85, 92
8, 46558, Note_on_c, 8, 85, 0
8, 46560, Note_on_c, 8, 69, 92
8, 46606, Note_on_c, 8, 69, 0
8, 46608, Note_on_c, 8, 71, 92
8, 46654, Note_on_c, 8, 71, 0
8, 46656, Note_on_c, 8, 73, 92
8, 46704, Note_on_c, 8, 73, 0
8, 46704, Note_on_c, 8, 71, 92
8, 46750, Note_on_c, 8, 71, 0
8, 46752, Note_on_c, 8, 73, 92
8, 46784, Note_on_c, 8, 73, 0
8, 46800, Note_on_c, 8, 74, 92
8, 46832, Note_on_c, 8, 74, 0
8, 46848, Note_on_c, 8, 76, 92
8, 46942, Note_on_c, 8, 76, 0
8, 46944, Note_on_c, 8, 81, 92
8, 46976, Note_on_c, 8, 81, 0
8, 47040, Note_on_c, 8, 83, 92
8, 47072, Note_on_c, 8, 83, 0
8, 47136, Note_on_c, 8, 80, 92
8, 47168, Note_on_c, 8, 80, 0
8, 47232, Note_on_c, 8, 64, 92
8, 47232, Note_on_c, 8, 73, 92
8, 47232, Note_on_c, 8, 81, 92
8, 47392, Note_on_c, 8, 64, 0
8, 47392, Note_on_c, 8, 73, 0
8, 47392, Note_on_c, 8, 81, 0
8, 49728, Note_on_c, 8, 66, 45
8, 49822, Note_on_c, 8, 66, 0
8, 49920, Note_on_c, 8, 57, 45
8, 49920, Note_on_c, 8, 67, 45
8, 50014, Note_on_c, 8, 57, 0
8, 50014, Note_on_c, 8, 67, 0
8, 50112, Note_on_c, 8, 57, 45
8, 50112, Note_on_c, 8, 66, 45
8, 50206, Note_on_c, 8, 57, 0
8, 50206, Note_on_c, 8, 66, 0
8, 50304, Note_on_c, 8, 62, 45
8, 50336, Note_on_c, 8, 62, 0
8, 50400, Note_on_c, 8, 64, 45
8, 50432, Note_on_c, 8, 64, 0
8, 50496, Note_on_c, 8, 66, 45
8, 50528, Note_on_c, 8, 66, 0
8, 50592, Note_on_c, 8, 67, 45
8, 50624, Note_on_c, 8, 67, 0
8, 50688, Note_on_c, 8, 69, 45
8, 50720, Note_on_c, 8, 69, 0
8, 50784, Note_on_c, 8, 67, 45
8, 50816, Note_on_c, 8, 67, 0
8, 50880, Note_on_c, 8, 66, 45
8, 51040, Note_on_c, 8, 66, 0
8, 51168, Note_on_c, 8, 66, 45
8, 51262, Note_on_c, 8, 66, 0
8, 51264, Note_on_c, 8, 67, 45
8, 51456, Note_on_c, 8, 67, 0
8, 51456, Note_on_c, 8, 64, 45
8, 51550, Note_on_c, 8, 64, 0
8, 51552, Note_on_c, 8, 62, 45
8, 51646, Note_on_c, 8, 62, 0
8, 51648, Note_on_c, 8, 61, 45
8, 51808, Note_on_c, 8, 61, 0
8, 52032, Note_on_c, 8, 57, 45
8, 52032, Note_on_c, 8, 66, 45
8, 52126, Note_on_c, 8, 57, 0
8, 52126, Note_on_c, 8, 66, 0
8, 52224, Note_on_c, 8, 73, 45
8, 52368, Note_on_c, 8, 73, 0
8, 52368, Note_on_c, 8, 71, 45
8, 52392, Note_on_c, 8, 71, 0
8, 52392, Note_on_c, 8, 73, 45
8, 52414, Note_on_c, 8, 73, 0
8, 52416, Note_on_c, 8, 74, 45
8, 52510, Note_on_c, 8, 74, 0
8, 52608, Note_on_c, 8, 62, 45
8, 52640, Note_on_c, 8, 62, 0
8, 52704, Note_on_c, 8, 64, 45
8, 52736, Note_on_c, 8, 64, 0
8, 52800, Note_on_c, 8, 66, 45
8, 52832, Note_on_c, 8, 66, 0
8, 52896, Note_on_c, 8, 67, 45
8, 52928, Note_on_c, 8, 67, 0
8, 52992, Note_on_c, 8, 69, 45
8, 53024, Note_on_c, 8, 69, 0
8, 53088, Note_on_c, 8, 67, 45
8, 53120, Note_on_c, 8, 67, 0
8, 53184, Note_on_c, 8, 66, 45
8, 53344, Note_on_c, 8, 66, 0
8, 53472, Note_on_c, 8, 69, 45
8, 53566, Note_on_c, 8, 69, 0
8, 53568, Note_on_c, 8, 71, 45
8, 53728, Note_on_c, 8, 71, 0
8, 53760, Note_on_c, 8, 62, 45
8, 53854, Note_on_c, 8, 62, 0
8, 53856, Note_on_c, 8, 61, 45
8, 53950, Note_on_c, 8, 61, 0
8, 53952, Note_on_c, 8, 62, 45
8, 54112, Note_on_c, 8, 62, 0
8, 54336, Note_on_c, 8, 57, 92
8, 54336, Note_on_c, 8, 66, 92
8, 54336, Note_on_c, 8, 74, 92
8, 54430, Note_on_c, 8, 57, 0
8, 54430, Note_on_c, 8, 66, 0
8, 54430, Note_on_c, 8, 74, 0
8, 54528, Note_on_c, 8, 57, 92
8, 54528, Note_on_c, 8, 64, 92
8, 54528, Note_on_c, 8, 73, 92
8, 54622, Note_on_c, 8, 57, 0
8, 54622, Note_on_c, 8, 64, 0
8, 54622, Note_on_c, 8, 73, 0
8, 54720, Note_on_c, 8, 57, 92
8, 54720, Note_on_c, 8, 66, 92
8, 54720, Note_on_c, 8, 74, 92
8, 54814, Note_on_c, 8, 57, 0
8, 54814, Note_on_c, 8, 66, 0
8, 54814, Note_on_c, 8, 74, 0
8, 54912, Note_on_c, 8, 74, 92
8, 54944, Note_on_c, 8, 74, 0
8, 55008, Note_on_c, 8, 76, 92
8, 55040, Note_on_c, 8, 76, 0
8, 55104, Note_on_c, 8, 78, 92
8, 55136, Note_on_c, 8, 78, 0
8, 55200, Note_on_c, 8, 79, 92
8, 55232, Note_on_c, 8, 79, 0
8, 55296, Note_on_c, 8, 81, 92
8, 55328, Note_on_c, 8, 81, 0
8, 55392, Note_on_c, 8, 79, 92
8, 55424, Note_on_c, 8, 79, 0
8, 55488, Note_on_c, 8, 78, 92
8, 55648, Note_on_c, 8, 78, 0
8, 55680, Note_on_c, 8, 79, 92
8, 55728, Note_on_c, 8, 79, 0
8, 55728, Note_on_c, 8, 78, 92
8, 55774, Note_on_c, 8, 78, 0
8, 55776, Note_on_c, 8, 76, 92
8, 55808, Note_on_c, 8, 76, 0
8, 55824, Note_on_c, 8, 74, 92
8, 55856, Note_on_c, 8, 74, 0
8, 55872, Note_on_c, 8, 81, 92
8, 55966, Note_on_c, 8, 81, 0
8, 55968, Note_on_c, 8, 81, 92
8, 56128, Note_on_c, 8, 81, 0
8, 56160, Note_on_c, 8, 81, 92
8, 56254, Note_on_c, 8, 81, 0
8, 56256, Note_on_c, 8, 73, 92
8, 56352, Note_on_c, 8, 73, 0
8, 56352, Note_on_c, 8, 76, 92
8, 56446, Note_on_c, 8, 76, 0
8, 56448, Note_on_c, 8, 78, 92
8, 56496, Note_on_c, 8, 78, 0
8, 56496, Note_on_c, 8, 74, 92
8, 56542, Note_on_c, 8, 74, 0
8, 56544, Note_on_c, 8, 76, 92
8, 56592, Note_on_c, 8, 76, 0
8, 56592, Note_on_c, 8, 73, 92
8, 56638, Note_on_c, 8, 73, 0
8, 56640, Note_on_c, 8, 74, 92
8, 56734, Note_on_c, 8, 74, 0
8, 56832, Note_on_c, 8, 67, 92
8, 56880, Note_on_c, 8, 67, 0
8, 56880, Note_on_c, 8, 69, 92
8, 56926, Note_on_c, 8, 69, 0
8, 56928, Note_on_c, 8, 67, 92
8, 56976, Note_on_c, 8, 67, 0
8, 56976, Note_on_c, 8, 69, 92
8, 57022, Note_on_c, 8, 69, 0
8, 57024, Note_on_c, 8, 66, 92
8, 57118, Note_on_c, 8, 66, 0
8, 57216, Note_on_c, 8, 62, 92
8, 57248, Note_on_c, 8, 62, 0
8, 57312, Note_on_c, 8, 62, 92
8, 57344, Note_on_c, 8, 62, 0
8, 57408, Note_on_c, 8, 62, 92
8, 57440, Note_on_c, 8, 62, 0
8, 57504, Note_on_c, 8, 62, 92
8, 57536, Note_on_c, 8, 62, 0
8, 57600, Note_on_c, 8, 62, 92
8, 57632, Note_on_c, 8, 62, 0
8, 57696, Note_on_c, 8, 62, 92
8, 57728, Note_on_c, 8, 62, 0
8, 57792, Note_on_c, 8, 62, 92
8, 57952, Note_on_c, 8, 62, 0
8, 57984, Note_on_c, 8, 83, 92
8, 58032, Note_on_c, 8, 83, 0
8, 58032, Note_on_c, 8, 81, 92
8, 58078, Note_on_c, 8, 81, 0
8, 58080, Note_on_c, 8, 79, 92
8, 58112, Note_on_c, 8, 79, 0
8, 58128, Note_on_c, 8, 78, 92
8, 58160, Note_on_c, 8, 78, 0
8, 58176, Note_on_c, 8, 75, 92
8, 58224, Note_on_c, 8, 75, 0
8, 58224, Note_on_c, 8, 76, 92
8, 58270, Note_on_c, 8, 76, 0
8, 58272, Note_on_c, 8, 76, 92
8, 58304, Note_on_c, 8, 76, 0
8, 58320, Note_on_c, 8, 79, 92
8, 58352, Note_on_c, 8, 79, 0
8, 58368, Note_on_c, 8, 78, 92
8, 58416, Note_on_c, 8, 78, 0
8, 58416, Note_on_c, 8, 74, 92
8, 58462, Note_on_c, 8, 74, 0
8, 58464, Note_on_c, 8, 76, 92
8, 58496, Note_on_c, 8, 76, 0
8, 58512, Note_on_c, 8, 73, 92
8, 58544, Note_on_c, 8, 73, 0
8, 58560, Note_on_c, 8, 74, 92
8, 58654, Note_on_c, 8, 74, 0
8, 58656, Note_on_c, 8, 74, 92
8, 58688, Note_on_c, 8, 74, 0
8, 58704, Note_on_c, 8, 76, 92
8, 58736, Note_on_c, 8, 76, 0
8, 58752, Note_on_c, 8, 78, 92
8, 58846, Note_on_c, 8, 78, 0
8, 59040, Note_on_c, 8, 74, 92
8, 59072, Note_on_c, 8, 74, 0
8, 59088, Note_on_c, 8, 76, 92
8, 59120, Note_on_c, 8, 76, 0
8, 59136, Note_on_c, 8, 78, 92
8, 59230, Note_on_c, 8, 78, 0
8, 59424, Note_on_c, 8, 78, 92
8, 59456, Note_on_c, 8, 78, 0
8, 59472, Note_on_c, 8, 79, 92
8, 59504, Note_on_c, 8, 79, 0
8, 59520, Note_on_c, 8, 81, 92
8, 59614, Note_on_c, 8, 81, 0
8, 59808, Note_on_c, 8, 78, 92
8, 59840, Note_on_c, 8, 78, 0
8, 59856, Note_on_c, 8, 79, 92
8, 59888, Note_on_c, 8, 79, 0
8, 59904, Note_on_c, 8, 81, 92
8, 59998, Note_on_c, 8, 81, 0
8, 61344, Note_on_c, 8, 74, 45
8, 61376, Note_on_c, 8, 74, 0
8, 61440, Note_on_c, 8, 74, 45
8, 61472, Note_on_c, 8, 74, 0
8, 61536, Note_on_c, 8, 74, 45
8, 61568, Note_on_c, 8, 74, 0
8, 61632, Note_on_c, 8, 74, 45
8, 61776, Note_on_c, 8, 74, 0
8, 61776, Note_on_c, 8, 71, 45
8, 61822, Note_on_c, 8, 71, 0
8, 61824, Note_on_c, 8, 72, 45
8, 61968, Note_on_c, 8, 72, 0
8, 61968, Note_on_c, 8, 69, 45
8, 62014, Note_on_c, 8, 69, 0
8, 62016, Note_on_c, 8, 67, 45
8, 62176, Note_on_c, 8, 67, 0
8, 62208, Note_on_c, 8, 71, 45
8, 62232, Note_on_c, 8, 71, 0
8, 62232, Note_on_c, 8, 69, 45
8, 62256, Note_on_c, 8, 69, 0
8, 62256, Note_on_c, 8, 71, 45
8, 62280, Note_on_c, 8, 71, 0
8, 62280, Note_on_c, 8, 69, 45
8, 62304, Note_on_c, 8, 69, 0
8, 62304, Note_on_c, 8, 71, 45
8, 62328, Note_on_c, 8, 71, 0
8, 62328, Note_on_c, 8, 69, 45
8, 62352, Note_on_c, 8, 69, 0
8, 62352, Note_on_c, 8, 67, 45
8, 62376, Note_on_c, 8, 67, 0
8, 62376, Note_on_c, 8, 69, 45
8, 62398, Note_on_c, 8, 69, 0
8, 62400, Note_on_c, 8, 71, 45
8, 62448, Note_on_c, 8, 71, 0
8, 62448, Note_on_c, 8, 67, 45
8, 62494, Note_on_c, 8, 67, 0
8, 62496, Note_on_c, 8, 71, 45
8, 62528, Note_on_c, 8, 71, 0
8, 62544, Note_on_c, 8, 67, 45
8, 62576, Note_on_c, 8, 67, 0
8, 62592, Note_on_c, 8, 74, 45
8, 62752, Note_on_c, 8, 74, 0
8, 62784, Note_on_c, 8, 74, 45
8, 62976, Note_on_c, 8, 74, 0
8, 62976, Note_on_c, 8, 67, 45
8, 63136, Note_on_c, 8, 67, 0
8, 63168, Note_on_c, 8, 67, 45
8, 63360, Note_on_c, 8, 67, 0
8, 63360, Note_on_c, 8, 66, 45
8, 63520, Note_on_c, 8, 66, 0
8, 64032, Note_on_c, 8, 74, 45
8, 64064, Note_on_c, 8, 74, 0
8, 64128, Note_on_c, 8, 74, 45
8, 64160, Note_on_c, 8, 74, 0
8, 64224, Note_on_c, 8, 74, 45
8, 64256, Note_on_c, 8, 74, 0
8, 64320, Note_on_c, 8, 74, 45
8, 64464, Note_on_c, 8, 74, 0
8, 64464, Note_on_c, 8, 71, 45
8, 64510, Note_on_c, 8, 71, 0
8, 64512, Note_on_c, 8, 72, 45
8, 64656, Note_on_c, 8, 72, 0
8, 64656, Note_on_c, 8, 69, 45
8, 64702, Note_on_c, 8, 69, 0
8, 64704, Note_on_c, 8, 67, 45
8, 64864, Note_on_c, 8, 67, 0
8, 64896, Note_on_c, 8, 71, 45
8, 64920, Note_on_c, 8, 71, 0
8, 64920, Note_on_c, 8, 69, 45
8, 64944, Note_on_c, 8, 69, 0
8, 64944, Note_on_c, 8, 71, 45
8, 64968, Note_on_c, 8, 71, 0
8, 64968, Note_on_c, 8, 69, 45
8, 64992, Note_on_c, 8, 69, 0
8, 64992, Note_on_c, 8, 71, 45
8, 65016, Note_on_c, 8, 71, 0
8, 65016, Note_on_c, 8, 69, 45
8, 65040, Note_on_c, 8, 69, 0
8, 65040, Note_on_c, 8, 67, 45
8, 65064, Note_on_c, 8, 67, 0
8, 65064, Note_on_c, 8, 69, 45
8, 65086, Note_on_c, 8, 69, 0
8, 65088, Note_on_c, 8, 71, 45
8, 65136, Note_on_c, 8, 71, 0
8, 65136, Note_on_c, 8, 67, 45
8, 65182, Note_on_c, 8, 67, 0
8, 65184, Note_on_c, 8, 71, 45
8, 65216, Note_on_c, 8, 71, 0
8, 65232, Note_on_c, 8, 67, 45
8, 65264, Note_on_c, 8, 67, 0
8, 65280, Note_on_c, 8, 74, 45
8, 65440, Note_on_c, 8, 74, 0
8, 65952, Note_on_c, 8, 62, 45
8, 65984, Note_on_c, 8, 62, 0
8, 66048, Note_on_c, 8, 62, 45
8, 66080, Note_on_c, 8, 62, 0
8, 66144, Note_on_c, 8, 62, 45
8, 66176, Note_on_c, 8, 62, 0
8, 66240, Note_on_c, 8, 62, 45
8, 66334, Note_on_c, 8, 62, 0
8, 66336, Note_on_c, 8, 67, 45
8, 66430, Note_on_c, 8, 67, 0
8, 66432, Note_on_c, 8, 67, 45
8, 66526, Note_on_c, 8, 67, 0
8, 66528, Note_on_c, 8, 67, 45
8, 66622, Note_on_c, 8, 67, 0
8, 66624, Note_on_c, 8, 67, 45
8, 66718, Note_on_c, 8, 67, 0
8, 66720, Note_on_c, 8, 67, 45
8, 66814, Note_on_c, 8, 67, 0
8, 66816, Note_on_c, 8, 67, 45
8, 66910, Note_on_c, 8, 67, 0
8, 66912, Note_on_c, 8, 67, 45
8, 67006, Note_on_c, 8, 67, 0
8, 67008, Note_on_c, 8, 69, 45
8, 67102, Note_on_c, 8, 69, 0
8, 67104, Note_on_c, 8, 69, 45
8, 67198, Note_on_c, 8, 69, 0
8, 67200, Note_on_c, 8, 69, 45
8, 67294, Note_on_c, 8, 69, 0
8, 67296, Note_on_c, 8, 69, 45
8, 67390, Note_on_c, 8, 69, 0
8, 67392, Note_on_c, 8, 69, 45
8, 67486, Note_on_c, 8, 69, 0
8, 67488, Note_on_c, 8, 69, 45
8, 67582, Note_on_c, 8, 69, 0
8, 67584, Note_on_c, 8, 69, 45
8, 67678, Note_on_c, 8, 69, 0
8, 67680, Note_on_c, 8, 69, 45
8, 67774, Note_on_c, 8, 69, 0
8, 67776, Note_on_c, 8, 67, 45
8, 67870, Note_on_c, 8, 67, 0
8, 67872, Note_on_c, 8, 67, 45
8, 67966, Note_on_c, 8, 67, 0
8, 67968, Note_on_c, 8, 67, 45
8, 68062, Note_on_c, 8, 67, 0
8, 68064, Note_on_c, 8, 67, 45
8, 68158, Note_on_c, 8, 67, 0
8, 68160, Note_on_c, 8, 67, 45
8, 68254, Note_on_c, 8, 67, 0
8, 68256, Note_on_c, 8, 67, 45
8, 68350, Note_on_c, 8, 67, 0
8, 68352, Note_on_c, 8, 67, 45
8, 68446, Note_on_c, 8, 67, 0
8, 68448, Note_on_c, 8, 67, 45
8, 68542, Note_on_c, 8, 67, 0
8, 68544, Note_on_c, 8, 67, 45
8, 68638, Note_on_c, 8, 67, 0
8, 68640, Note_on_c, 8, 67, 45
8, 68734, Note_on_c, 8, 67, 0
8, 68736, Note_on_c, 8, 67, 45
8, 68830, Note_on_c, 8, 67, 0
8, 68832, Note_on_c, 8, 67, 45
8, 68926, Note_on_c, 8, 67, 0
8, 68928, Note_on_c, 8, 67, 45
8, 69022, Note_on_c, 8, 67, 0
8, 69024, Note_on_c, 8, 67, 45
8, 69118, Note_on_c, 8, 67, 0
8, 69120, Note_on_c, 8, 67, 45
8, 69214, Note_on_c, 8, 67, 0
8, 69216, Note_on_c, 8, 67, 45
8, 69310, Note_on_c, 8, 67, 0
8, 69312, Note_on_c, 8, 66, 45
8, 69406, Note_on_c, 8, 66, 0
8, 69408, Note_on_c, 8, 66, 45
8, 69502, Note_on_c, 8, 66, 0
8, 69504, Note_on_c, 8, 66, 45
8, 69598, Note_on_c, 8, 66, 0
8, 69600, Note_on_c, 8, 66, 45
8, 69694, Note_on_c, 8, 66, 0
8, 69696, Note_on_c, 8, 66, 45
8, 69790, Note_on_c, 8, 66, 0
8, 69792, Note_on_c, 8, 66, 45
8, 69886, Note_on_c, 8, 66, 0
8, 69888, Note_on_c, 8, 66, 45
8, 69982, Note_on_c, 8, 66, 0
8, 69984, Note_on_c, 8, 66, 45
8, 70078, Note_on_c, 8, 66, 0
8, 70080, Note_on_c, 8, 67, 45
8, 70174, Note_on_c, 8, 67, 0
8, 70176, Note_on_c, 8, 67, 45
8, 70270, Note_on_c, 8, 67, 0
8, 70272, Note_on_c, 8, 67, 45
8, 70366, Note_on_c, 8, 67, 0
8, 70368, Note_on_c, 8, 67, 45
8, 70462, Note_on_c, 8, 67, 0
8, 70464, Note_on_c, 8, 67, 45
8, 70558, Note_on_c, 8, 67, 0
8, 70560, Note_on_c, 8, 67, 45
8, 70654, Note_on_c, 8, 67, 0
8, 70656, Note_on_c, 8, 67, 45
8, 70750, Note_on_c, 8, 67, 0
8, 70752, Note_on_c, 8, 68, 45
8, 70846, Note_on_c, 8, 68, 0
8, 70848, Note_on_c, 8, 69, 45
8, 70896, Note_on_c, 8, 69, 0
8, 70896, Note_on_c, 8, 68, 45
8, 70942, Note_on_c, 8, 68, 0
8, 70944, Note_on_c, 8, 69, 45
8, 70976, Note_on_c, 8, 69, 0
8, 70992, Note_on_c, 8, 68, 45
8, 71024, Note_on_c, 8, 68, 0
8, 71040, Note_on_c, 8, 69, 45
8, 71134, Note_on_c, 8, 69, 0
8, 71136, Note_on_c, 8, 57, 92
8, 71230, Note_on_c, 8, 57, 0
8, 71232, Note_on_c, 8, 69, 92
8, 71280, Note_on_c, 8, 69, 0
8, 71280, Note_on_c, 8, 68, 92
8, 71326, Note_on_c, 8, 68, 0
8, 71328, Note_on_c, 8, 69, 92
8, 71376, Note_on_c, 8, 69, 0
8, 71376, Note_on_c, 8, 68, 92
8, 71422, Note_on_c, 8, 68, 0
8, 71424, Note_on_c, 8, 69, 92
8, 71518, Note_on_c, 8, 69, 0
8, 71616, Note_on_c, 8, 61, 45
8, 71616, Note_on_c, 8, 64, 45
8, 71710, Note_on_c, 8, 61, 0
8, 71710, Note_on_c, 8, 64, 0
8, 71712, Note_on_c, 8, 61, 45
8, 71712, Note_on_c, 8, 64, 45
8, 71872, Note_on_c, 8, 61, 0
8, 71872, Note_on_c, 8, 64, 0
8, 71904, Note_on_c, 8, 61, 45
8, 71904, Note_on_c, 8, 64, 45
8, 72094, Note_on_c, 8, 61, 0
8, 72094, Note_on_c, 8, 64, 0
8, 72096, Note_on_c, 8, 61, 45
8, 72096, Note_on_c, 8, 64, 45
8, 72256, Note_on_c, 8, 61, 0
8, 72256, Note_on_c, 8, 64, 0
8, 72288, Note_on_c, 8, 61, 45
8, 72288, Note_on_c, 8, 64, 45
8, 72382, Note_on_c, 8, 61, 0
8, 72382, Note_on_c, 8, 64, 0
8, 72384, Note_on_c, 8, 62, 45
8, 72478, Note_on_c, 8, 62, 0
8, 72480, Note_on_c, 8, 62, 45
8, 72640, Note_on_c, 8, 62, 0
8, 72672, Note_on_c, 8, 62, 45
8, 72862, Note_on_c, 8, 62, 0
8, 72864, Note_on_c, 8, 62, 45
8, 73024, Note_on_c, 8, 62, 0
8, 73056, Note_on_c, 8, 62, 45
8, 73150, Note_on_c, 8, 62, 0
8, 73152, Note_on_c, 8, 61, 45
8, 73152, Note_on_c, 8, 64, 45
8, 73246, Note_on_c, 8, 61, 0
8, 73246, Note_on_c, 8, 64, 0
8, 73248, Note_on_c, 8, 61, 45
8, 73248, Note_on_c, 8, 64, 45
8, 73408, Note_on_c, 8, 61, 0
8, 73408, Note_on_c, 8, 64, 0
8, 73440, Note_on_c, 8, 61, 45
8, 73440, Note_on_c, 8, 64, 45
8, 73630, Note_on_c, 8, 61, 0
8, 73630, Note_on_c, 8, 64, 0
8, 73632, Note_on_c, 8, 61, 45
8, 73632, Note_on_c, 8, 64, 45
8, 73792, Note_on_c, 8, 61, 0
8, 73792, Note_on_c, 8, 64, 0
8, 73824, Note_on_c, 8, 61, 45
8, 73824, Note_on_c, 8, 64, 45
8, 73918, Note_on_c, 8, 61, 0
8, 73918, Note_on_c, 8, 64, 0
8, 73920, Note_on_c, 8, 62, 45
8, 74014, Note_on_c, 8, 62, 0
8, 74016, Note_on_c, 8, 62, 45
8, 74176, Note_on_c, 8, 62, 0
8, 74208, Note_on_c, 8, 62, 45
8, 74398, Note_on_c, 8, 62, 0
8, 74400, Note_on_c, 8, 62, 45
8, 74560, Note_on_c, 8, 62, 0
8, 74592, Note_on_c, 8, 62, 45
8, 74686, Note_on_c, 8, 62, 0
8, 74688, Note_on_c, 8, 67, 45
8, 74782, Note_on_c, 8, 67, 0
8, 74784, Note_on_c, 8, 66, 45
8, 74878, Note_on_c, 8, 66, 0
8, 74880, Note_on_c, 8, 64, 45
8, 74974, Note_on_c, 8, 64, 0
8, 74976, Note_on_c, 8, 69, 45
8, 75070, Note_on_c, 8, 69, 0
8, 75072, Note_on_c, 8, 67, 45
8, 75232, Note_on_c, 8, 67, 0
8, 75360, Note_on_c, 8, 67, 45
8, 75454, Note_on_c, 8, 67, 0
8, 75456, Note_on_c, 8, 66, 45
8, 75550, Note_on_c, 8, 66, 0
8, 75552, Note_on_c, 8, 64, 45
8, 75646, Note_on_c, 8, 64, 0
8, 75648, Note_on_c, 8, 62, 45
8, 75742, Note_on_c, 8, 62, 0
8, 75744, Note_on_c, 8, 67, 45
8, 75838, Note_on_c, 8, 67, 0
8, 75840, Note_on_c, 8, 66, 45
8, 76000, Note_on_c, 8, 66, 0
8, 76128, Note_on_c, 8, 66, 45
8, 76222, Note_on_c, 8, 66, 0
8, 76224, Note_on_c, 8, 64, 45
8, 76384, Note_on_c, 8, 64, 0
8, 76512, Note_on_c, 8, 68, 45
8, 76606, Note_on_c, 8, 68, 0
8, 76608, Note_on_c, 8, 69, 45
8, 76768, Note_on_c, 8, 69, 0
8, 76896, Note_on_c, 8, 61, 45
8, 76990, Note_on_c, 8, 61, 0
8, 76992, Note_on_c, 8, 62, 45
8, 77024, Note_on_c, 8, 62, 0
8, 77088, Note_on_c, 8, 64, 45
8, 77120, Note_on_c, 8, 64, 0
8, 77184, Note_on_c, 8, 66, 45
8, 77216, Note_on_c, 8, 66, 0
8, 77280, Note_on_c, 8, 67, 45
8, 77312, Note_on_c, 8, 67, 0
8, 77376, Note_on_c, 8, 69, 45
8, 77408, Note_on_c, 8, 69, 0
8, 77472, Note_on_c, 8, 71, 45
8, 77504, Note_on_c, 8, 71, 0
8, 77568, Note_on_c, 8, 73, 45
8, 77600, Note_on_c, 8, 73, 0
8, 77664, Note_on_c, 8, 74, 45
8, 77696, Note_on_c, 8, 74, 0
8, 77760, Note_on_c, 8, 76, 45
8, 77904, Note_on_c, 8, 76, 0
8, 77904, Note_on_c, 8, 75, 45
8, 77950, Note_on_c, 8, 75, 0
8, 77952, Note_on_c, 8, 76, 45
8, 78000, Note_on_c, 8, 76, 0
8, 78000, Note_on_c, 8, 75, 45
8, 78046, Note_on_c, 8, 75, 0
8, 78048, Note_on_c, 8, 76, 45
8, 78096, Note_on_c, 8, 76, 0
8, 78096, Note_on_c, 8, 75, 45
8, 78142, Note_on_c, 8, 75, 0
8, 78144, Note_on_c, 8, 76, 45
8, 78400, Note_on_c, 8, 76, 0
8, 78432, Note_on_c, 8, 61, 45
8, 78526, Note_on_c, 8, 61, 0
8, 78528, Note_on_c, 8, 62, 45
8, 78622, Note_on_c, 8, 62, 0
8, 78624, Note_on_c, 8, 62, 45
8, 78718, Note_on_c, 8, 62, 0
8, 78720, Note_on_c, 8, 67, 45
8, 78814, Note_on_c, 8, 67, 0
8, 78816, Note_on_c, 8, 67, 45
8, 78910, Note_on_c, 8, 67, 0
8, 78912, Note_on_c, 8, 69, 45
8, 79006, Note_on_c, 8, 69, 0
8, 79008, Note_on_c, 8, 69, 45
8, 79102, Note_on_c, 8, 69, 0
8, 79104, Note_on_c, 8, 57, 45
8, 79198, Note_on_c, 8, 57, 0
8, 79200, Note_on_c, 8, 57, 45
8, 79294, Note_on_c, 8, 57, 0
8, 79296, Note_on_c, 8, 57, 45
8, 79456, Note_on_c, 8, 57, 0
8, 79776, Note_on_c, 8, 57, 45
8, 79870, Note_on_c, 8, 57, 0
8, 79872, Note_on_c, 8, 69, 45
8, 79966, Note_on_c, 8, 69, 0
8, 79968, Note_on_c, 8, 61, 45
8, 80062, Note_on_c, 8, 61, 0
8, 80064, Note_on_c, 8, 62, 45
8, 80158, Note_on_c, 8, 62, 0
8, 80160, Note_on_c, 8, 62, 45
8, 80254, Note_on_c, 8, 62, 0
8, 80256, Note_on_c, 8, 62, 45
8, 80350, Note_on_c, 8, 62, 0
8, 80352, Note_on_c, 8, 62, 45
8, 80446, Note_on_c, 8, 62, 0
8, 80448, Note_on_c, 8, 64, 45
8, 80542, Note_on_c, 8, 64, 0
8, 80544, Note_on_c, 8, 64, 45
8, 80638, Note_on_c, 8, 64, 0
8, 80640, Note_on_c, 8, 64, 45
8, 80734, Note_on_c, 8, 64, 0
8, 80736, Note_on_c, 8, 64, 45
8, 80830, Note_on_c, 8, 64, 0
8, 80832, Note_on_c, 8, 57, 45
8, 80992, Note_on_c, 8, 57, 0
8, 81792, Note_on_c, 8, 67, 45
8, 81824, Note_on_c, 8, 67, 0
8, 81888, Note_on_c, 8, 67, 45
8, 81920, Note_on_c, 8, 67, 0
8, 81984, Note_on_c, 8, 66, 45
8, 82144, Note_on_c, 8, 66, 0
8, 82176, Note_on_c, 8, 67, 45
8, 82224, Note_on_c, 8, 67, 0
8, 82224, Note_on_c, 8, 66, 45
8, 82270, Note_on_c, 8, 66, 0
8, 82272, Note_on_c, 8, 64, 45
8, 82304, Note_on_c, 8, 64, 0
8, 82320, Note_on_c, 8, 62, 45
8, 82352, Note_on_c, 8, 62, 0
8, 82368, Note_on_c, 8, 62, 45
8, 82464, Note_on_c, 8, 62, 0
8, 82464, Note_on_c, 8, 61, 45
8, 82558, Note_on_c, 8, 61, 0
8, 83328, Note_on_c, 8, 67, 45
8, 83422, Note_on_c, 8, 67, 0
8, 83424, Note_on_c, 8, 67, 45
8, 83518, Note_on_c, 8, 67, 0
8, 83520, Note_on_c, 8, 66, 45
8, 83680, Note_on_c, 8, 66, 0
8, 83712, Note_on_c, 8, 67, 45
8, 83760, Note_on_c, 8, 67, 0
8, 83760, Note_on_c, 8, 66, 45
8, 83806, Note_on_c, 8, 66, 0
8, 83808, Note_on_c, 8, 64, 45
8, 83840, Note_on_c, 8, 64, 0
8, 83856, Note_on_c, 8, 62, 45
8, 83888, Note_on_c, 8, 62, 0
8, 83904, Note_on_c, 8, 61, 45
8, 83998, Note_on_c, 8, 61, 0
8, 84000, Note_on_c, 8, 73, 92
8, 84032, Note_on_c, 8, 73, 0
8, 84048, Note_on_c, 8, 74, 92
8, 84080, Note_on_c, 8, 74, 0
8, 84096, Note_on_c, 8, 76, 92
8, 84190, Note_on_c, 8, 76, 0
8, 84384, Note_on_c, 8, 73, 92
8, 84416, Note_on_c, 8, 73, 0
8, 84432, Note_on_c, 8, 74, 92
8, 84464, Note_on_c, 8, 74, 0
8, 84480, Note_on_c, 8, 76, 92
8, 84574, Note_on_c, 8, 76, 0
8, 84768, Note_on_c, 8, 76, 92
8, 84800, Note_on_c, 8, 76, 0
8, 84816, Note_on_c, 8, 78, 92
8, 84848, Note_on_c, 8, 78, 0
8, 84864, Note_on_c, 8, 79, 92
8, 84958, Note_on_c, 8, 79, 0
8, 85152, Note_on_c, 8, 76, 92
8, 85184, Note_on_c, 8, 76, 0
8, 85200, Note_on_c, 8, 78, 92
8, 85232, Note_on_c, 8, 78, 0
8, 85248, Note_on_c, 8, 79, 92
8, 85342, Note_on_c, 8, 79, 0
8, 86976, Note_on_c, 8, 66, 45
8, 87070, Note_on_c, 8, 66, 0
8, 87168, Note_on_c, 8, 57, 45
8, 87168, Note_on_c, 8, 67, 45
8, 87262, Note_on_c, 8, 57, 0
8, 87262, Note_on_c, 8, 67, 0
8, 87360, Note_on_c, 8, 57, 45
8, 87360, Note_on_c, 8, 66, 45
8, 87454, Note_on_c, 8, 57, 0
8, 87454, Note_on_c, 8, 66, 0
8, 87552, Note_on_c, 8, 62, 45
8, 87584, Note_on_c, 8, 62, 0
8, 87648, Note_on_c, 8, 64, 45
8, 87680, Note_on_c, 8, 64, 0
8, 87744, Note_on_c, 8, 66, 45
8, 87776, Note_on_c, 8, 66, 0
8, 87840, Note_on_c, 8, 67, 45
8, 87872, Note_on_c, 8, 67, 0
8, 87936, Note_on_c, 8, 69, 45
8, 87968, Note_on_c, 8, 69, 0
8, 88032, Note_on_c, 8, 67, 45
8, 88064, Note_on_c, 8, 67, 0
8, 88128, Note_on_c, 8, 66, 45
8, 88288, Note_on_c, 8, 66, 0
8, 88416, Note_on_c, 8, 66, 45
8, 88510, Note_on_c, 8, 66, 0
8, 88512, Note_on_c, 8, 67, 45
8, 88704, Note_on_c, 8, 67, 0
8, 88704, Note_on_c, 8, 64, 45
8, 88798, Note_on_c, 8, 64, 0
8, 88800, Note_on_c, 8, 62, 45
8, 88894, Note_on_c, 8, 62, 0
8, 88896, Note_on_c, 8, 61, 45
8, 89056, Note_on_c, 8, 61, 0
8, 89280, Note_on_c, 8, 57, 45
8, 89280, Note_on_c, 8, 66, 45
8, 89374, Note_on_c, 8, 57, 0
8, 89374, Note_on_c, 8, 66, 0
8, 89472, Note_on_c, 8, 67, 45
8, 89520, Note_on_c, 8, 67, 0
8, 89520, Note_on_c, 8, 69, 45
8, 89566, Note_on_c, 8, 69, 0
8, 89568, Note_on_c, 8, 67, 45
8, 89600, Note_on_c, 8, 67, 0
8, 89616, Note_on_c, 8, 69, 45
8, 89648, Note_on_c, 8, 69, 0
8, 89664, Note_on_c, 8, 66, 45
8, 89758, Note_on_c, 8, 66, 0
8, 89856, Note_on_c, 8, 74, 45
8, 89888, Note_on_c, 8, 74, 0
8, 89952, Note_on_c, 8, 74, 45
8, 89984, Note_on_c, 8, 74, 0
8, 90048, Note_on_c, 8, 74, 45
8, 90080, Note_on_c, 8, 74, 0
8, 90144, Note_on_c, 8, 74, 45
8, 90176, Note_on_c, 8, 74, 0
8, 90240, Note_on_c, 8, 74, 45
8, 90272, Note_on_c, 8, 74, 0
8, 90336, Note_on_c, 8, 74, 45
8, 90368, Note_on_c, 8, 74, 0
8, 90432, Note_on_c, 8, 74, 45
8, 90592, Note_on_c, 8, 74, 0
8, 90720, Note_on_c, 8, 69, 45
8, 90814, Note_on_c, 8, 69, 0
8, 90816, Note_on_c, 8, 71, 45
8, 90976, Note_on_c, 8, 71, 0
8, 91008, Note_on_c, 8, 62, 45
8, 91102, Note_on_c, 8, 62, 0
8, 91104, Note_on_c, 8, 61, 45
8, 91198, Note_on_c, 8, 61, 0
8, 91200, Note_on_c, 8, 62, 92
8, 91246, Note_on_c, 8, 62, 0
8, 91248, Note_on_c, 8, 62, 92
8, 91294, Note_on_c, 8, 62, 0
8, 91296, Note_on_c, 8, 62, 92
8, 91342, Note_on_c, 8, 62, 0
8, 91344, Note_on_c, 8, 62, 92
8, 91390, Note_on_c, 8, 62, 0
8, 91392, Note_on_c, 8, 69, 92
8, 91438, Note_on_c, 8, 69, 0
8, 91440, Note_on_c, 8, 69, 92
8, 91486, Note_on_c, 8, 69, 0
8, 91488, Note_on_c, 8, 69, 92
8, 91534, Note_on_c, 8, 69, 0
8, 91536, Note_on_c, 8, 69, 92
8, 91582, Note_on_c, 8, 69, 0
8, 91584, Note_on_c, 8, 71, 92
8, 91630, Note_on_c, 8, 71, 0
8, 91632, Note_on_c, 8, 71, 92
8, 91678, Note_on_c, 8, 71, 0
8, 91680, Note_on_c, 8, 71, 92
8, 91726, Note_on_c, 8, 71, 0
8, 91728, Note_on_c, 8, 71, 92
8, 91774, Note_on_c, 8, 71, 0
8, 91776, Note_on_c, 8, 73, 92
8, 91822, Note_on_c, 8, 73, 0
8, 91824, Note_on_c, 8, 73, 92
8, 91870, Note_on_c, 8, 73, 0
8, 91872, Note_on_c, 8, 73, 92
8, 91918, Note_on_c, 8, 73, 0
8, 91920, Note_on_c, 8, 73, 92
8, 91966, Note_on_c, 8, 73, 0
8, 91968, Note_on_c, 8, 74, 92
8, 92014, Note_on_c, 8, 74, 0
8, 92016, Note_on_c, 8, 74, 92
8, 92062, Note_on_c, 8, 74, 0
8, 92064, Note_on_c, 8, 74, 92
8, 92110, Note_on_c, 8, 74, 0
8, 92112, Note_on_c, 8, 74, 92
8, 92158, Note_on_c, 8, 74, 0
8, 92160, Note_on_c, 8, 69, 92
8, 92206, Note_on_c, 8, 69, 0
8, 92208, Note_on_c, 8, 69, 92
8, 92254, Note_on_c, 8, 69, 0
8, 92256, Note_on_c, 8, 69, 92
8, 92302, Note_on_c, 8, 69, 0
8, 92304, Note_on_c, 8, 69, 92
8, 92350, Note_on_c, 8, 69, 0
8, 92352, Note_on_c, 8, 71, 92
8, 92398, Note_on_c, 8, 71, 0
8, 92400, Note_on_c, 8, 71, 92
8, 92446, Note_on_c, 8, 71, 0
8, 92448, Note_on_c, 8, 71, 92
8, 92494, Note_on_c, 8, 71, 0
8, 92496, Note_on_c, 8, 71, 92
8, 92542, Note_on_c, 8, 71, 0
8, 92544, Note_on_c, 8, 73, 92
8, 92590, Note_on_c, 8, 73, 0
8, 92592, Note_on_c, 8, 73, 92
8, 92638, Note_on_c, 8, 73, 0
8, 92640, Note_on_c, 8, 73, 92
8, 92686, Note_on_c, 8, 73, 0
8, 92688, Note_on_c, 8, 73, 92
8, 92734, Note_on_c, 8, 73, 0
8, 92736, Note_on_c, 8, 74, 92
8, 92896, Note_on_c, 8, 74, 0
8, 93120, Note_on_c, 8, 66, 45
8, 93214, Note_on_c, 8, 66, 0
8, 93216, Note_on_c, 8, 66, 45
8, 93310, Note_on_c, 8, 66, 0
8, 93312, Note_on_c, 8, 71, 45
8, 93406, Note_on_c, 8, 71, 0
8, 93408, Note_on_c, 8, 71, 45
8, 93502, Note_on_c, 8, 71, 0
8, 93504, Note_on_c, 8, 69, 45
8, 93598, Note_on_c, 8, 69, 0
8, 93600, Note_on_c, 8, 69, 45
8, 93694, Note_on_c, 8, 69, 0
8, 93696, Note_on_c, 8, 69, 45
8, 93790, Note_on_c, 8, 69, 0
8, 93792, Note_on_c, 8, 68, 45
8, 93792, Note_on_c, 8, 71, 45
8, 93886, Note_on_c, 8, 68, 0
8, 93886, Note_on_c, 8, 71, 0
8, 93888, Note_on_c, 8, 69, 45
8, 93982, Note_on_c, 8, 69, 0
8, 93984, Note_on_c, 8, 68, 45
8, 93984, Note_on_c, 8, 71, 45
8, 94078, Note_on_c, 8, 68, 0
8, 94078, Note_on_c, 8, 71, 0
8, 94080, Note_on_c, 8, 69, 45
8, 94174, Note_on_c, 8, 69, 0
8, 94176, Note_on_c, 8, 68, 45
8, 94176, Note_on_c, 8, 71, 45
8, 94270, Note_on_c, 8, 68, 0
8, 94270, Note_on_c, 8, 71, 0
8, 94272, Note_on_c, 8, 69, 45
8, 94432, Note_on_c, 8, 69, 0
8, 94656, Note_on_c, 8, 59, 45
8, 94750, Note_on_c, 8, 59, 0
8, 94752, Note_on_c, 8, 59, 45
8, 94846, Note_on_c, 8, 59, 0
8, 94848, Note_on_c, 8, 64, 45
8, 94942, Note_on_c, 8, 64, 0
8, 94944, Note_on_c, 8, 64, 45
8, 95038, Note_on_c, 8, 64, 0
8, 95040, Note_on_c, 8, 62, 45
8, 95134, Note_on_c, 8, 62, 0
8, 95136, Note_on_c, 8, 62, 45
8, 95230, Note_on_c, 8, 62, 0
8, 95232, Note_on_c, 8, 62, 45
8, 95326, Note_on_c, 8, 62, 0
8, 95328, Note_on_c, 8, 61, 45
8, 95328, Note_on_c, 8, 64, 45
8, 95422, Note_on_c, 8, 61, 0
8, 95422, Note_on_c, 8, 64, 0
8, 95424, Note_on_c, 8, 62, 45
8, 95518, Note_on_c, 8, 62, 0
8, 95520, Note_on_c, 8, 61, 45
8, 95520, Note_on_c, 8, 64, 45
8, 95614, Note_on_c, 8, 61, 0
8, 95614, Note_on_c, 8, 64, 0
8, 95616, Note_on_c, 8, 62, 45
8, 95710, Note_on_c, 8, 62, 0
8, 95712, Note_on_c, 8, 61, 45
8, 95712, Note_on_c, 8, 64, 45
8, 95806, Note_on_c, 8, 61, 0
8, 95806, Note_on_c, 8, 64, 0
8, 95808, Note_on_c, 8, 62, 92
8, 95902, Note_on_c, 8, 62, 0
8, 95904, Note_on_c, 8, 74, 92
8, 95936, Note_on_c, 8, 74, 0
8, 95952, Note_on_c, 8, 76, 92
8, 95984, Note_on_c, 8, 76, 0
8, 96000, Note_on_c, 8, 78, 92
8, 96094, Note_on_c, 8, 78, 0
8, 96288, Note_on_c, 8, 74, 92
8, 96320, Note_on_c, 8, 74, 0
8, 96336, Note_on_c, 8, 76, 92
8, 96368, Note_on_c, 8, 76, 0
8, 96384, Note_on_c, 8, 78, 92
8, 96478, Note_on_c, 8, 78, 0
8, 96672, Note_on_c, 8, 74, 92
8, 96704, Note_on_c, 8, 74, 0
8, 96720, Note_on_c, 8, 76, 92
8, 96752, Note_on_c, 8, 76, 0
8, 96768, Note_on_c, 8, 78, 92
8, 96862, Note_on_c, 8, 78, 0
8, 97056, Note_on_c, 8, 74, 92
8, 97088, Note_on_c, 8, 74, 0
8, 97104, Note_on_c, 8, 76, 92
8, 97136, Note_on_c, 8, 76, 0
8, 97152, Note_on_c, 8, 78, 92
8, 97246, Note_on_c, 8, 78, 0
8, 97440, Note_on_c, 8, 74, 92
8, 97472, Note_on_c, 8, 74, 0
8, 97536, Note_on_c, 8, 78, 92
8, 97568, Note_on_c, 8, 78, 0
8, 97632, Note_on_c, 8, 71, 92
8, 97664, Note_on_c, 8, 71, 0
8, 97728, Note_on_c, 8, 74, 92
8, 97760, Note_on_c, 8, 74, 0
8, 97824, Note_on_c, 8, 62, 92
8, 97856, Note_on_c, 8, 62, 0
8, 97920, Note_on_c, 8, 66, 92
8, 97952, Note_on_c, 8, 66, 0
8, 98016, Note_on_c, 8, 68, 92
8, 98048, Note_on_c, 8, 68, 0
8, 98112, Note_on_c, 8, 57, 92
8, 98112, Note_on_c, 8, 69, 92
8, 98272, Note_on_c, 8, 57, 0
8, 98272, Note_on_c, 8, 69, 0
8, 111264, Note_on_c, 8, 62, 45
8, 111358, Note_on_c, 8, 62, 0
8, 111360, Note_on_c, 8, 62, 45
8, 111454, Note_on_c, 8, 62, 0
8, 111456, Note_on_c, 8, 62, 45
8, 111550, Note_on_c, 8, 62, 0
8, 111648, Note_on_c, 8, 61, 45
8, 111742, Note_on_c, 8, 61, 0
8, 111744, Note_on_c, 8, 61, 45
8, 111838, Note_on_c, 8, 61, 0
8, 111840, Note_on_c, 8, 61, 45
8, 111934, Note_on_c, 8, 61, 0
8, 112032, Note_on_c, 8, 62, 45
8, 112126, Note_on_c, 8, 62, 0
8, 112128, Note_on_c, 8, 62, 45
8, 112222, Note_on_c, 8, 62, 0
8, 112224, Note_on_c, 8, 62, 45
8, 112318, Note_on_c, 8, 62, 0
8, 112320, Note_on_c, 8, 61, 45
8, 112798, Note_on_c, 8, 61, 0
8, 113472, Note_on_c, 8, 66, 45
8, 113520, Note_on_c, 8, 66, 0
8, 113520, Note_on_c, 8, 62, 45
8, 113566, Note_on_c, 8, 62, 0
8, 113568, Note_on_c, 8, 66, 45
8, 113600, Note_on_c, 8, 66, 0
8, 113616, Note_on_c, 8, 62, 45
8, 113648, Note_on_c, 8, 62, 0
8, 113664, Note_on_c, 8, 64, 45
8, 113712, Note_on_c, 8, 64, 0
8, 113712, Note_on_c, 8, 61, 45
8, 113758, Note_on_c, 8, 61, 0
8, 113760, Note_on_c, 8, 64, 45
8, 113792, Note_on_c, 8, 64, 0
8, 113808, Note_on_c, 8, 61, 45
8, 113840, Note_on_c, 8, 61, 0
8, 113856, Note_on_c, 8, 61, 45
8, 113950, Note_on_c, 8, 61, 0
8, 114048, Note_on_c, 8, 62, 45
8, 114080, Note_on_c, 8, 62, 0
8, 114144, Note_on_c, 8, 64, 45
8, 114176, Note_on_c, 8, 64, 0
8, 114240, Note_on_c, 8, 66, 45
8, 114272, Note_on_c, 8, 66, 0
8, 114336, Note_on_c, 8, 67, 45
8, 114368, Note_on_c, 8, 67, 0
8, 114432, Note_on_c, 8, 69, 45
8, 114464, Note_on_c, 8, 69, 0
8, 114528, Note_on_c, 8, 67, 45
8, 114560, Note_on_c, 8, 67, 0
8, 114624, Note_on_c, 8, 66, 45
8, 114784, Note_on_c, 8, 66, 0
8, 114912, Note_on_c, 8, 66, 45
8, 115006, Note_on_c, 8, 66, 0
8, 115008, Note_on_c, 8, 67, 45
8, 115200, Note_on_c, 8, 67, 0
8, 115200, Note_on_c, 8, 64, 45
8, 115294, Note_on_c, 8, 64, 0
8, 115296, Note_on_c, 8, 62, 45
8, 115390, Note_on_c, 8, 62, 0
8, 115392, Note_on_c, 8, 64, 45
8, 115488, Note_on_c, 8, 64, 0
8, 115488, Note_on_c, 8, 61, 45
8, 115582, Note_on_c, 8, 61, 0
8, 115584, Note_on_c, 8, 78, 92
8, 115632, Note_on_c, 8, 78, 0
8, 115632, Note_on_c, 8, 74, 92
8, 115678, Note_on_c, 8, 74, 0
8, 115680, Note_on_c, 8, 76, 92
8, 115712, Note_on_c, 8, 76, 0
8, 115728, Note_on_c, 8, 73, 92
8, 115760, Note_on_c, 8, 73, 0
8, 115776, Note_on_c, 8, 74, 92
8, 115870, Note_on_c, 8, 74, 0
8, 115968, Note_on_c, 8, 73, 92
8, 116112, Note_on_c, 8, 73, 0
8, 116112, Note_on_c, 8, 71, 92
8, 116136, Note_on_c, 8, 71, 0
8, 116136, Note_on_c, 8, 73, 92
8, 116158, Note_on_c, 8, 73, 0
8, 116160, Note_on_c, 8, 74, 92
8, 116208, Note_on_c, 8, 74, 0
8, 116208, Note_on_c, 8, 73, 92
8, 116254, Note_on_c, 8, 73, 0
8, 116256, Note_on_c, 8, 74, 92
8, 116288, Note_on_c, 8, 74, 0
8, 116304, Note_on_c, 8, 73, 92
8, 116336, Note_on_c, 8, 73, 0
8, 116352, Note_on_c, 8, 74, 92
8, 116384, Note_on_c, 8, 74, 0
8, 116448, Note_on_c, 8, 74, 92
8, 116480, Note_on_c, 8, 74, 0
8, 116544, Note_on_c, 8, 74, 92
8, 116576, Note_on_c, 8, 74, 0
8, 116640, Note_on_c, 8, 74, 92
8, 116672, Note_on_c, 8, 74, 0
8, 116736, Note_on_c, 8, 74, 92
8, 116768, Note_on_c, 8, 74, 0
8, 116832, Note_on_c, 8, 74, 92
8, 116864, Note_on_c, 8, 74, 0
8, 116928, Note_on_c, 8, 74, 92
8, 117088, Note_on_c, 8, 74, 0
8, 117120, Note_on_c, 8, 74, 45
8, 117214, Note_on_c, 8, 74, 0
8, 117216, Note_on_c, 8, 74, 45
8, 117310, Note_on_c, 8, 74, 0
8, 117312, Note_on_c, 8, 74, 45
8, 117406, Note_on_c, 8, 74, 0
8, 117408, Note_on_c, 8, 74, 45
8, 117502, Note_on_c, 8, 74, 0
8, 117504, Note_on_c, 8, 74, 45
8, 117598, Note_on_c, 8, 74, 0
8, 117600, Note_on_c, 8, 74, 45
8, 117694, Note_on_c, 8, 74, 0
8, 117696, Note_on_c, 8, 74, 45
8, 117856, Note_on_c, 8, 74, 0
8, 117888, Note_on_c, 8, 83, 92
8, 117936, Note_on_c, 8, 83, 0
8, 117936, Note_on_c, 8, 81, 92
8, 117982, Note_on_c, 8, 81, 0
8, 117984, Note_on_c, 8, 79, 92
8, 118016, Note_on_c, 8, 79, 0
8, 118032, Note_on_c, 8, 78, 92
8, 118064, Note_on_c, 8, 78, 0
8, 118080, Note_on_c, 8, 75, 92
8, 118128, Note_on_c, 8, 75, 0
8, 118128, Note_on_c, 8, 76, 92
8, 118174, Note_on_c, 8, 76, 0
8, 118176, Note_on_c, 8, 76, 92
8, 118208, Note_on_c, 8, 76, 0
8, 118224, Note_on_c, 8, 79, 92
8, 118256, Note_on_c, 8, 79, 0
8, 118272, Note_on_c, 8, 78, 92
8, 118320, Note_on_c, 8, 78, 0
8, 118320, Note_on_c, 8, 74, 92
8, 118366, Note_on_c, 8, 74, 0
8, 118368, Note_on_c, 8, 76, 92
8, 118400, Note_on_c, 8, 76, 0
8, 118416, Note_on_c, 8, 73, 92
8, 118448, Note_on_c, 8, 73, 0
8, 118464, Note_on_c, 8, 74, 92
8, 118624, Note_on_c, 8, 74, 0
8, 118848, Note_on_c, 8, 66, 45
8, 118942, Note_on_c, 8, 66, 0
8, 118944, Note_on_c, 8, 66, 45
8, 119038, Note_on_c, 8, 66, 0
8, 119040, Note_on_c, 8, 71, 45
8, 119134, Note_on_c, 8, 71, 0
8, 119136, Note_on_c, 8, 71, 45
8, 119230, Note_on_c, 8, 71, 0
8, 119232, Note_on_c, 8, 69, 45
8, 119326, Note_on_c, 8, 69, 0
8, 119328, Note_on_c, 8, 69, 45
8, 119422, Note_on_c, 8, 69, 0
8, 119424, Note_on_c, 8, 69, 45
8, 119518, Note_on_c, 8, 69, 0
8, 119520, Note_on_c, 8, 68, 45
8, 119520, Note_on_c, 8, 71, 45
8, 119614, Note_on_c, 8, 68, 0
8, 119614, Note_on_c, 8, 71, 0
8, 119616, Note_on_c, 8, 69, 45
8, 119710, Note_on_c, 8, 69, 0
8, 119712, Note_on_c, 8, 68, 45
8, 119712, Note_on_c, 8, 71, 45
8, 119806, Note_on_c, 8, 68, 0
8, 119806, Note_on_c, 8, 71, 0
8, 119808, Note_on_c, 8, 69, 45
8, 119902, Note_on_c, 8, 69, 0
8, 119904, Note_on_c, 8, 68, 45
8, 119904, Note_on_c, 8, 71, 45
8, 119998, Note_on_c, 8, 68, 0
8, 119998, Note_on_c, 8, 71, 0
8, 120000, Note_on_c, 8, 69, 45
8, 120160, Note_on_c, 8, 69, 0
8, 120384, Note_on_c, 8, 59, 45
8, 120478, Note_on_c, 8, 59, 0
8, 120480, Note_on_c, 8, 59, 45
8, 120574, Note_on_c, 8, 59, 0
8, 120576, Note_on_c, 8, 64, 45
8, 120670, Note_on_c, 8, 64, 0
8, 120672, Note_on_c, 8, 64, 45
8, 120766, Note_on_c, 8, 64, 0
8, 120768, Note_on_c, 8, 62, 45
8, 120862, Note_on_c, 8, 62, 0
8, 120864, Note_on_c, 8, 62, 45
8, 120958, Note_on_c, 8, 62, 0
8, 120960, Note_on_c, 8, 62, 45
8, 121054, Note_on_c, 8, 62, 0
8, 121056, Note_on_c, 8, 61, 45
8, 121056, Note_on_c, 8, 64, 45
8, 121150, Note_on_c, 8, 61, 0
8, 121150, Note_on_c, 8, 64, 0
8, 121152, Note_on_c, 8, 62, 45
8, 121246, Note_on_c, 8, 62, 0
8, 121248, Note_on_c, 8, 61, 45
8, 121248, Note_on_c, 8, 64, 45
8, 121342, Note_on_c, 8, 61, 0
8, 121342, Note_on_c, 8, 64, 0
8, 121344, Note_on_c, 8, 62, 45
8, 121438, Note_on_c, 8, 62, 0
8, 121440, Note_on_c, 8, 61, 45
8, 121440, Note_on_c, 8, 64, 45
8, 121534, Note_on_c, 8, 61, 0
8, 121534, Note_on_c, 8, 64, 0
8, 121536, Note_on_c, 8, 62, 45
8, 121630, Note_on_c, 8, 62, 0
8, 121632, Note_on_c, 8, 62, 92
8, 121664, Note_on_c, 8, 62, 0
8, 121680, Note_on_c, 8, 64, 92
8, 121712, Note_on_c, 8, 64, 0
8, 121728, Note_on_c, 8, 66, 92
8, 121776, Note_on_c, 8, 66, 0
8, 121776, Note_on_c, 8, 64, 92
8, 121822, Note_on_c, 8, 64, 0
8, 121824, Note_on_c, 8, 66, 92
8, 121856, Note_on_c, 8, 66, 0
8, 121872, Note_on_c, 8, 67, 92
8, 121904, Note_on_c, 8, 67, 0
8, 121920, Note_on_c, 8, 69, 92
8, 121952, Note_on_c, 8, 69, 0
8, 122016, Note_on_c, 8, 74, 92
8, 122048, Note_on_c, 8, 74, 0
8, 122112, Note_on_c, 8, 76, 92
8, 122144, Note_on_c, 8, 76, 0
8, 122208, Note_on_c, 8, 73, 92
8, 122240, Note_on_c, 8, 73, 0
8, 122304, Note_on_c, 8, 78, 92
8, 122398, Note_on_c, 8, 78, 0
8, 122400, Note_on_c, 8, 62, 92
8, 122432, Note_on_c, 8, 62, 0
8, 122448, Note_on_c, 8, 64, 92
8, 122480, Note_on_c, 8, 64, 0
8, 122496, Note_on_c, 8, 66, 92
8, 122544, Note_on_c, 8, 66, 0
8, 122544, Note_on_c, 8, 64, 92
8, 122590, Note_on_c, 8, 64, 0
8, 122592, Note_on_c, 8, 66, 92
8, 122624, Note_on_c, 8, 66, 0
8, 122640, Note_on_c, 8, 67, 92
8, 122672, Note_on_c, 8, 67, 0
8, 122688, Note_on_c, 8, 69, 92
8, 122720, Note_on_c, 8, 69, 0
8, 122784, Note_on_c, 8, 74, 92
8, 122816, Note_on_c, 8, 74, 0
8, 122880, Note_on_c, 8, 76, 92
8, 122912, Note_on_c, 8, 76, 0
8, 122976, Note_on_c, 8, 73, 92
8, 123008, Note_on_c, 8, 73, 0
8, 123072, Note_on_c, 8, 74, 92
8, 123104, Note_on_c, 8, 74, 0
8, 123168, Note_on_c, 8, 78, 92
8, 123200, Note_on_c, 8, 78, 0
8, 123264, Note_on_c, 8, 79, 92
8, 123296, Note_on_c, 8, 79, 0
8, 123360, Note_on_c, 8, 76, 92
8, 123392, Note_on_c, 8, 76, 0
8, 123456, Note_on_c, 8, 74, 92
8, 123488, Note_on_c, 8, 74, 0
8, 123552, Note_on_c, 8, 78, 92
8, 123584, Note_on_c, 8, 78, 0
8, 123648, Note_on_c, 8, 79, 92
8, 123680, Note_on_c, 8, 79, 0
8, 123744, Note_on_c, 8, 76, 92
8, 123776, Note_on_c, 8, 76, 0
8, 123840, Note_on_c, 8, 74, 92
8, 124000, Note_on_c, 8, 74, 0
8, 124032, Note_on_c, 8, 69, 92
8, 124032, Note_on_c, 8, 78, 92
8, 124192, Note_on_c, 8, 69, 0
8, 124192, Note_on_c, 8, 78, 0
8, 124224, Note_on_c, 8, 69, 92
8, 124224, Note_on_c, 8, 78, 92
8, 124480, Note_on_c, 8, 69, 0
8, 124480, Note_on_c, 8, 78, 0
8, 124480, End_track
9, 0, Start_track
9, 0, MIDI_port, 0
9, 0, Title_t, "Viola"
9, 0, Program_c, 10, 48
9, 0, Control_c, 10, 7, 127
9, 0, Control_c, 10, 10, 64
9, 384, Note_on_c, 10, 62, 45
9, 478, Note_on_c, 10, 62, 0
9, 576, Note_on_c, 10, 57, 45
9, 670, Note_on_c, 10, 57, 0
9, 768, Note_on_c, 10, 50, 45
9, 862, Note_on_c, 10, 50, 0
9, 960, Note_on_c, 10, 62, 45
9, 992, Note_on_c, 10, 62, 0
9, 1056, Note_on_c, 10, 62, 45
9, 1088, Note_on_c, 10, 62, 0
9, 1152, Note_on_c, 10, 62, 45
9, 1246, Note_on_c, 10, 62, 0
9, 1248, Note_on_c, 10, 62, 45
9, 1342, Note_on_c, 10, 62, 0
9, 1344, Note_on_c, 10, 62, 45
9, 1438, Note_on_c, 10, 62, 0
9, 1440, Note_on_c, 10, 62, 45
9, 1534, Note_on_c, 10, 62, 0
9, 1536, Note_on_c, 10, 62, 45
9, 1696, Note_on_c, 10, 62, 0
9, 1824, Note_on_c, 10, 62, 45
9, 1918, Note_on_c, 10, 62, 0
9, 1920, Note_on_c, 10, 61, 45
9, 2208, Note_on_c, 10, 61, 0
9, 2208, Note_on_c, 10, 62, 45
9, 2302, Note_on_c, 10, 62, 0
9, 2304, Note_on_c, 10, 57, 45
9, 2464, Note_on_c, 10, 57, 0
9, 2688, Note_on_c, 10, 62, 45
9, 2782, Note_on_c, 10, 62, 0
9, 2880, Note_on_c, 10, 57, 45
9, 2974, Note_on_c, 10, 57, 0
9, 3072, Note_on_c, 10, 50, 45
9, 3166, Note_on_c, 10, 50, 0
9, 3264, Note_on_c, 10, 62, 45
9, 3358, Note_on_c, 10, 62, 0
9, 3360, Note_on_c, 10, 62, 45
9, 3454, Note_on_c, 10, 62, 0
9, 3456, Note_on_c, 10, 62, 45
9, 3550, Note_on_c, 10, 62, 0
9, 3552, Note_on_c, 10, 62, 45
9, 3646, Note_on_c, 10, 62, 0
9, 3648, Note_on_c, 10, 62, 45
9, 3742, Note_on_c, 10, 62, 0
9, 3744, Note_on_c, 10, 62, 45
9, 3838, Note_on_c, 10, 62, 0
9, 3840, Note_on_c, 10, 62, 45
9, 4000, Note_on_c, 10, 62, 0
9, 4128, Note_on_c, 10, 54, 45
9, 4222, Note_on_c, 10, 54, 0
9, 4224, Note_on_c, 10, 55, 45
9, 4384, Note_on_c, 10, 55, 0
9, 4416, Note_on_c, 10, 57, 45
9, 4510, Note_on_c, 10, 57, 0
9, 4512, Note_on_c, 10, 57, 45
9, 4606, Note_on_c, 10, 57, 0
9, 4608, Note_on_c, 10, 50, 45
9, 4768, Note_on_c, 10, 50, 0
9, 4992, Note_on_c, 10, 57, 92
9, 4992, Note_on_c, 10, 69, 92
9, 5086, Note_on_c, 10, 57, 0
9, 5086, Note_on_c, 10, 69, 0
9, 5184, Note_on_c, 10, 57, 92
9, 5184, Note_on_c, 10, 69, 92
9, 5278, Note_on_c, 10, 57, 0
9, 5278, Note_on_c, 10, 69, 0
9, 5376, Note_on_c, 10, 57, 92
9, 5376, Note_on_c, 10, 69, 92
9, 5470, Note_on_c, 10, 57, 0
9, 5470, Note_on_c, 10, 69, 0
9, 5568, Note_on_c, 10, 62, 92
9, 5600, Note_on_c, 10, 62, 0
9, 5664, Note_on_c, 10, 64, 92
9, 5696, Note_on_c, 10, 64, 0
9, 5760, Note_on_c, 10, 66, 92
9, 5792, Note_on_c, 10, 66, 0
9, 5856, Note_on_c, 10, 67, 92
9, 5888, Note_on_c, 10, 67, 0
9, 5952, Note_on_c, 10, 69, 92
9, 5984, Note_on_c, 10, 69, 0
9, 6048, Note_on_c, 10, 67, 92
9, 6080, Note_on_c, 10, 67, 0
9, 6144, Note_on_c, 10, 66, 92
9, 6304, Note_on_c, 10, 66, 0
9, 6432, Note_on_c, 10, 69, 92
9, 6526, Note_on_c, 10, 69, 0
9, 6528, Note_on_c, 10, 69, 92
9, 6784, Note_on_c, 10, 69, 0
9, 6816, Note_on_c, 10, 69, 92
9, 6910, Note_on_c, 10, 69, 0
9, 6912, Note_on_c, 10, 69, 92
9, 7072, Note_on_c, 10, 69, 0
9, 7296, Note_on_c, 10, 57, 92
9, 7296, Note_on_c, 10, 69, 92
9, 7390, Note_on_c, 10, 57, 0
9, 7390, Note_on_c, 10, 69, 0
9, 7488, Note_on_c, 10, 57, 92
9, 7488, Note_on_c, 10, 69, 92
9, 7582, Note_on_c, 10, 57, 0
9, 7582, Note_on_c, 10, 69, 0
9, 7680, Note_on_c, 10, 57, 92
9, 7680, Note_on_c, 10, 69, 92
9, 7774, Note_on_c, 10, 57, 0
9, 7774, Note_on_c, 10, 69, 0
9, 7872, Note_on_c, 10, 62, 92
9, 7904, Note_on_c, 10, 62, 0
9, 7968, Note_on_c, 10, 64, 92
9, 8000, Note_on_c, 10, 64, 0
9, 8064, Note_on_c, 10, 66, 92
9, 8096, Note_on_c, 10, 66, 0
9, 8160, Note_on_c, 10, 67, 92
9, 8192, Note_on_c, 10, 67, 0
9, 8256, Note_on_c, 10, 69, 92
9, 8288, Note_on_c, 10, 69, 0
9, 8352, Note_on_c, 10, 67, 92
9, 8384, Note_on_c, 10, 67, 0
9, 8448, Note_on_c, 10, 66, 92
9, 8608, Note_on_c, 10, 66, 0
9, 8736, Note_on_c, 10, 69, 92
9, 8830, Note_on_c, 10, 69, 0
9, 8832, Note_on_c, 10, 67, 92
9, 8926, Note_on_c, 10, 67, 0
9, 8928, Note_on_c, 10, 64, 92
9, 9022, Note_on_c, 10, 64, 0
9, 9024, Note_on_c, 10, 69, 92
9, 9118, Note_on_c, 10, 69, 0
9, 9120, Note_on_c, 10, 69, 92
9, 9214, Note_on_c, 10, 69, 0
9, 9216, Note_on_c, 10, 57, 92
9, 9216, Note_on_c, 10, 66, 92
9, 9376, Note_on_c, 10, 57, 0
9, 9376, Note_on_c, 10, 66, 0
9, 10176, Note_on_c, 10, 61, 45
9, 10208, Note_on_c, 10, 61, 0
9, 10272, Note_on_c, 10, 61, 45
9, 10304, Note_on_c, 10, 61, 0
9, 10368, Note_on_c, 10, 62, 45
9, 10560, Note_on_c, 10, 62, 0
9, 10560, Note_on_c, 10, 57, 45
9, 10720, Note_on_c, 10, 57, 0
9, 10752, Note_on_c, 10, 57, 45
9, 10912, Note_on_c, 10, 57, 0
9, 11712, Note_on_c, 10, 61, 45
9, 11744, Note_on_c, 10, 61, 0
9, 11808, Note_on_c, 10, 61, 45
9, 11840, Note_on_c, 10, 61, 0
9, 11904, Note_on_c, 10, 62, 45
9, 12096, Note_on_c, 10, 62, 0
9, 12096, Note_on_c, 10, 57, 45
9, 12256, Note_on_c, 10, 57, 0
9, 12288, Note_on_c, 10, 57, 45
9, 12448, Note_on_c, 10, 57, 0
9, 12576, Note_on_c, 10, 64, 92
9, 12608, Note_on_c, 10, 64, 0
9, 12624, Note_on_c, 10, 62, 92
9, 12656, Note_on_c, 10, 62, 0
9, 12672, Note_on_c, 10, 61, 92
9, 12766, Note_on_c, 10, 61, 0
9, 12960, Note_on_c, 10, 64, 92
9, 12992, Note_on_c, 10, 64, 0
9, 13008, Note_on_c, 10, 62, 92
9, 13040, Note_on_c, 10, 62, 0
9, 13056, Note_on_c, 10, 61, 92
9, 13150, Note_on_c, 10, 61, 0
9, 13344, Note_on_c, 10, 67, 92
9, 13376, Note_on_c, 10, 67, 0
9, 13392, Note_on_c, 10, 66, 92
9, 13424, Note_on_c, 10, 66, 0
9, 13440, Note_on_c, 10, 64, 92
9, 13534, Note_on_c, 10, 64, 0
9, 13728, Note_on_c, 10, 67, 92
9, 13760, Note_on_c, 10, 67, 0
9, 13776, Note_on_c, 10, 66, 92
9, 13808, Note_on_c, 10, 66, 0
9, 13824, Note_on_c, 10, 64, 92
9, 13918, Note_on_c, 10, 64, 0
9, 15072, Note_on_c, 10, 57, 45
9, 15104, Note_on_c, 10, 57, 0
9, 15168, Note_on_c, 10, 57, 45
9, 15200, Note_on_c, 10, 57, 0
9, 15264, Note_on_c, 10, 57, 45
9, 15296, Note_on_c, 10, 57, 0
9, 15360, Note_on_c, 10, 57, 45
9, 15504, Note_on_c, 10, 57, 0
9, 15504, Note_on_c, 10, 54, 45
9, 15550, Note_on_c, 10, 54, 0
9, 15552, Note_on_c, 10, 55, 45
9, 15696, Note_on_c, 10, 55, 0
9, 15696, Note_on_c, 10, 52, 45
9, 15742, Note_on_c, 10, 52, 0
9, 15744, Note_on_c, 10, 50, 45
9, 15904, Note_on_c, 10, 50, 0
9, 15936, Note_on_c, 10, 54, 45
9, 15960, Note_on_c, 10, 54, 0
9, 15960, Note_on_c, 10, 52, 45
9, 15984, Note_on_c, 10, 52, 0
9, 15984, Note_on_c, 10, 54, 45
9, 16008, Note_on_c, 10, 54, 0
9, 16008, Note_on_c, 10, 52, 45
9, 16032, Note_on_c, 10, 52, 0
9, 16032, Note_on_c, 10, 54, 45
9, 16056, Note_on_c, 10, 54, 0
9, 16056, Note_on_c, 10, 52, 45
9, 16080, Note_on_c, 10, 52, 0
9, 16080, Note_on_c, 10, 50, 45
9, 16104, Note_on_c, 10, 50, 0
9, 16104, Note_on_c, 10, 52, 45
9, 16126, Note_on_c, 10, 52, 0
9, 16128, Note_on_c, 10, 54, 45
9, 16174, Note_on_c, 10, 54, 0
9, 16176, Note_on_c, 10, 50, 45
9, 16222, Note_on_c, 10, 50, 0
9, 16224, Note_on_c, 10, 54, 45
9, 16270, Note_on_c, 10, 54, 0
9, 16272, Note_on_c, 10, 50, 45
9, 16318, Note_on_c, 10, 50, 0
9, 16320, Note_on_c, 10, 57, 45
9, 16672, Note_on_c, 10, 57, 0
9, 16704, Note_on_c, 10, 62, 45
9, 16728, Note_on_c, 10, 62, 0
9, 16728, Note_on_c, 10, 61, 45
9, 16752, Note_on_c, 10, 61, 0
9, 16752, Note_on_c, 10, 62, 45
9, 16776, Note_on_c, 10, 62, 0
9, 16776, Note_on_c, 10, 61, 45
9, 16800, Note_on_c, 10, 61, 0
9, 16800, Note_on_c, 10, 62, 45
9, 16824, Note_on_c, 10, 62, 0
9, 16824, Note_on_c, 10, 61, 45
9, 16848, Note_on_c, 10, 61, 0
9, 16848, Note_on_c, 10, 59, 45
9, 16872, Note_on_c, 10, 59, 0
9, 16872, Note_on_c, 10, 61, 45
9, 16894, Note_on_c, 10, 61, 0
9, 16896, Note_on_c, 10, 62, 92
9, 16990, Note_on_c, 10, 62, 0
9, 16992, Note_on_c, 10, 74, 92
9, 17086, Note_on_c, 10, 74, 0
9, 17088, Note_on_c, 10, 66, 92
9, 17182, Note_on_c, 10, 66, 0
9, 17184, Note_on_c, 10, 66, 92
9, 17278, Note_on_c, 10, 66, 0
9, 17280, Note_on_c, 10, 67, 92
9, 17374, Note_on_c, 10, 67, 0
9, 17376, Note_on_c, 10, 67, 92
9, 17470, Note_on_c, 10, 67, 0
9, 17472, Note_on_c, 10, 69, 92
9, 17566, Note_on_c, 10, 69, 0
9, 17568, Note_on_c, 10, 69, 92
9, 17662, Note_on_c, 10, 69, 0
9, 17664, Note_on_c, 10, 71, 92
9, 17758, Note_on_c, 10, 71, 0
9, 17760, Note_on_c, 10, 71, 92
9, 17854, Note_on_c, 10, 71, 0
9, 17856, Note_on_c, 10, 66, 92
9, 17950, Note_on_c, 10, 66, 0
9, 17952, Note_on_c, 10, 66, 92
9, 18046, Note_on_c, 10, 66, 0
9, 18048, Note_on_c, 10, 67, 92
9, 18142, Note_on_c, 10, 67, 0
9, 18144, Note_on_c, 10, 67, 92
9, 18238, Note_on_c, 10, 67, 0
9, 18240, Note_on_c, 10, 69, 92
9, 18334, Note_on_c, 10, 69, 0
9, 18336, Note_on_c, 10, 69, 92
9, 18430, Note_on_c, 10, 69, 0
9, 18432, Note_on_c, 10, 62, 92
9, 18526, Note_on_c, 10, 62, 0
9, 18528, Note_on_c, 10, 62, 92
9, 18560, Note_on_c, 10, 62, 0
9, 18576, Note_on_c, 10, 64, 92
9, 18608, Note_on_c, 10, 64, 0
9, 18624, Note_on_c, 10, 66, 92
9, 18672, Note_on_c, 10, 66, 0
9, 18672, Note_on_c, 10, 64, 92
9, 18718, Note_on_c, 10, 64, 0
9, 18720, Note_on_c, 10, 66, 92
9, 18752, Note_on_c, 10, 66, 0
9, 18768, Note_on_c, 10, 67, 92
9, 18800, Note_on_c, 10, 67, 0
9, 18816, Note_on_c, 10, 69, 92
9, 18910, Note_on_c, 10, 69, 0
9, 18912, Note_on_c, 10, 69, 92
9, 19006, Note_on_c, 10, 69, 0
9, 19008, Note_on_c, 10, 69, 92
9, 19102, Note_on_c, 10, 69, 0
9, 19104, Note_on_c, 10, 69, 92
9, 19198, Note_on_c, 10, 69, 0
9, 19200, Note_on_c, 10, 69, 92
9, 19294, Note_on_c, 10, 69, 0
9, 19296, Note_on_c, 10, 62, 92
9, 19328, Note_on_c, 10, 62, 0
9, 19344, Note_on_c, 10, 64, 92
9, 19376, Note_on_c, 10, 64, 0
9, 19392, Note_on_c, 10, 66, 92
9, 19440, Note_on_c, 10, 66, 0
9, 19440, Note_on_c, 10, 64, 92
9, 19486, Note_on_c, 10, 64, 0
9, 19488, Note_on_c, 10, 66, 92
9, 19520, Note_on_c, 10, 66, 0
9, 19536, Note_on_c, 10, 67, 92
9, 19568, Note_on_c, 10, 67, 0
9, 19584, Note_on_c, 10, 69, 92
9, 19678, Note_on_c, 10, 69, 0
9, 19680, Note_on_c, 10, 69, 92
9, 19774, Note_on_c, 10, 69, 0
9, 19776, Note_on_c, 10, 69, 92
9, 19870, Note_on_c, 10, 69, 0
9, 19872, Note_on_c, 10, 69, 92
9, 19966, Note_on_c, 10, 69, 0
9, 19968, Note_on_c, 10, 62, 92
9, 20000, Note_on_c, 10, 62, 0
9, 20064, Note_on_c, 10, 66, 92
9, 20096, Note_on_c, 10, 66, 0
9, 20160, Note_on_c, 10, 67, 92
9, 20192, Note_on_c, 10, 67, 0
9, 20256, Note_on_c, 10, 64, 92
9, 20288, Note_on_c, 10, 64, 0
9, 20352, Note_on_c, 10, 62, 92
9, 20384, Note_on_c, 10, 62, 0
9, 20448, Note_on_c, 10, 66, 92
9, 20480, Note_on_c, 10, 66, 0
9, 20544, Note_on_c, 10, 67, 92
9, 20576, Note_on_c, 10, 67, 0
9, 20640, Note_on_c, 10, 64, 92
9, 20672, Note_on_c, 10, 64, 0
9, 20736, Note_on_c, 10, 62, 92
9, 20896, Note_on_c, 10, 62, 0
9, 20928, Note_on_c, 10, 50, 92
9, 20928, Note_on_c, 10, 62, 92
9, 21088, Note_on_c, 10, 50, 0
9, 21088, Note_on_c, 10, 62, 0
9, 21120, Note_on_c, 10, 50, 92
9, 21120, Note_on_c, 10, 62, 92
9, 21280, Note_on_c, 10, 50, 0
9, 21280, Note_on_c, 10, 62, 0
9, 24576, Note_on_c, 10, 67, 45
9, 24768, Note_on_c, 10, 67, 0
9, 24768, Note_on_c, 10, 66, 45
9, 24928, Note_on_c, 10, 66, 0
9, 24960, Note_on_c, 10, 67, 45
9, 25120, Note_on_c, 10, 67, 0
9, 25344, Note_on_c, 10, 66, 45
9, 25536, Note_on_c, 10, 66, 0
9, 25536, Note_on_c, 10, 64, 45
9, 25696, Note_on_c, 10, 64, 0
9, 25728, Note_on_c, 10, 66, 45
9, 25888, Note_on_c, 10, 66, 0
9, 26016, Note_on_c, 10, 54, 45
9, 26110, Note_on_c, 10, 54, 0
9, 26112, Note_on_c, 10, 55, 45
9, 26272, Note_on_c, 10, 55, 0
9, 26400, Note_on_c, 10, 55, 45
9, 26494, Note_on_c, 10, 55, 0
9, 26496, Note_on_c, 10, 57, 45
9, 26656, Note_on_c, 10, 57, 0
9, 26688, Note_on_c, 10, 57, 45
9, 26848, Note_on_c, 10, 57, 0
9, 26880, Note_on_c, 10, 50, 45
9, 27040, Note_on_c, 10, 50, 0
9, 27840, Note_on_c, 10, 61, 45
9, 27872, Note_on_c, 10, 61, 0
9, 27936, Note_on_c, 10, 61, 45
9, 27968, Note_on_c, 10, 61, 0
9, 28032, Note_on_c, 10, 62, 45
9, 28224, Note_on_c, 10, 62, 0
9, 28224, Note_on_c, 10, 57, 45
9, 28384, Note_on_c, 10, 57, 0
9, 28416, Note_on_c, 10, 57, 45
9, 28576, Note_on_c, 10, 57, 0
9, 29376, Note_on_c, 10, 61, 45
9, 29408, Note_on_c, 10, 61, 0
9, 29472, Note_on_c, 10, 61, 45
9, 29504, Note_on_c, 10, 61, 0
9, 29568, Note_on_c, 10, 62, 45
9, 29760, Note_on_c, 10, 62, 0
9, 29760, Note_on_c, 10, 57, 45
9, 29920, Note_on_c, 10, 57, 0
9, 29952, Note_on_c, 10, 57, 45
9, 30112, Note_on_c, 10, 57, 0
9, 34464, Note_on_c, 10, 52, 92
9, 34558, Note_on_c, 10, 52, 0
9, 34560, Note_on_c, 10, 64, 92
9, 34608, Note_on_c, 10, 64, 0
9, 34608, Note_on_c, 10, 63, 92
9, 34654, Note_on_c, 10, 63, 0
9, 34656, Note_on_c, 10, 64, 92
9, 34704, Note_on_c, 10, 64, 0
9, 34704, Note_on_c, 10, 63, 92
9, 34750, Note_on_c, 10, 63, 0
9, 34752, Note_on_c, 10, 64, 92
9, 34846, Note_on_c, 10, 64, 0
9, 34944, Note_on_c, 10, 64, 45
9, 35038, Note_on_c, 10, 64, 0
9, 35040, Note_on_c, 10, 64, 45
9, 35200, Note_on_c, 10, 64, 0
9, 35232, Note_on_c, 10, 64, 45
9, 35422, Note_on_c, 10, 64, 0
9, 35424, Note_on_c, 10, 64, 45
9, 35584, Note_on_c, 10, 64, 0
9, 35616, Note_on_c, 10, 64, 45
9, 35806, Note_on_c, 10, 64, 0
9, 35808, Note_on_c, 10, 64, 45
9, 35968, Note_on_c, 10, 64, 0
9, 36000, Note_on_c, 10, 64, 45
9, 36190, Note_on_c, 10, 64, 0
9, 36192, Note_on_c, 10, 64, 45
9, 36352, Note_on_c, 10, 64, 0
9, 36384, Note_on_c, 10, 64, 45
9, 36574, Note_on_c, 10, 64, 0
9, 36576, Note_on_c, 10, 64, 45
9, 36736, Note_on_c, 10, 64, 0
9, 36768, Note_on_c, 10, 64, 45
9, 36958, Note_on_c, 10, 64, 0
9, 36960, Note_on_c, 10, 64, 45
9, 37120, Note_on_c, 10, 64, 0
9, 37152, Note_on_c, 10, 64, 45
9, 37342, Note_on_c, 10, 64, 0
9, 37344, Note_on_c, 10, 64, 45
9, 37504, Note_on_c, 10, 64, 0
9, 37536, Note_on_c, 10, 64, 45
9, 37726, Note_on_c, 10, 64, 0
9, 37728, Note_on_c, 10, 64, 45
9, 37888, Note_on_c, 10, 64, 0
9, 37920, Note_on_c, 10, 64, 45
9, 38014, Note_on_c, 10, 64, 0
9, 38016, Note_on_c, 10, 62, 45
9, 38176, Note_on_c, 10, 62, 0
9, 44160, Note_on_c, 10, 61, 45
9, 44254, Note_on_c, 10, 61, 0
9, 44256, Note_on_c, 10, 57, 45
9, 44350, Note_on_c, 10, 57, 0
9, 44448, Note_on_c, 10, 61, 45
9, 44542, Note_on_c, 10, 61, 0
9, 44640, Note_on_c, 10, 62, 45
9, 44734, Note_on_c, 10, 62, 0
9, 44832, Note_on_c, 10, 59, 45
9, 44926, Note_on_c, 10, 59, 0
9, 45024, Note_on_c, 10, 57, 45
9, 45118, Note_on_c, 10, 57, 0
9, 45216, Note_on_c, 10, 61, 45
9, 45310, Note_on_c, 10, 61, 0
9, 45408, Note_on_c, 10, 59, 45
9, 45502, Note_on_c, 10, 59, 0
9, 45600, Note_on_c, 10, 59, 45
9, 45694, Note_on_c, 10, 59, 0
9, 45696, Note_on_c, 10, 57, 45
9, 45790, Note_on_c, 10, 57, 0
9, 45792, Note_on_c, 10, 57, 92
9, 45838, Note_on_c, 10, 57, 0
9, 45840, Note_on_c, 10, 59, 92
9, 45886, Note_on_c, 10, 59, 0
9, 45888, Note_on_c, 10, 61, 92
9, 45936, Note_on_c, 10, 61, 0
9, 45936, Note_on_c, 10, 59, 92
9, 45982, Note_on_c, 10, 59, 0
9, 45984, Note_on_c, 10, 61, 92
9, 46016, Note_on_c, 10, 61, 0
9, 46032, Note_on_c, 10, 62, 92
9, 46064, Note_on_c, 10, 62, 0
9, 46080, Note_on_c, 10, 64, 92
9, 46174, Note_on_c, 10, 64, 0
9, 46176, Note_on_c, 10, 64, 92
9, 46270, Note_on_c, 10, 64, 0
9, 46272, Note_on_c, 10, 64, 92
9, 46366, Note_on_c, 10, 64, 0
9, 46368, Note_on_c, 10, 64, 92
9, 46462, Note_on_c, 10, 64, 0
9, 46464, Note_on_c, 10, 64, 92
9, 46558, Note_on_c, 10, 64, 0
9, 46560, Note_on_c, 10, 57, 92
9, 46606, Note_on_c, 10, 57, 0
9, 46608, Note_on_c, 10, 59, 92
9, 46654, Note_on_c, 10, 59, 0
9, 46656, Note_on_c, 10, 61, 92
9, 46704, Note_on_c, 10, 61, 0
9, 46704, Note_on_c, 10, 59, 92
9, 46750, Note_on_c, 10, 59, 0
9, 46752, Note_on_c, 10, 61, 92
9, 46784, Note_on_c, 10, 61, 0
9, 46800, Note_on_c, 10, 62, 92
9, 46832, Note_on_c, 10, 62, 0
9, 46848, Note_on_c, 10, 64, 92
9, 46942, Note_on_c, 10, 64, 0
9, 46944, Note_on_c, 10, 64, 92
9, 47038, Note_on_c, 10, 64, 0
9, 47040, Note_on_c, 10, 64, 92
9, 47134, Note_on_c, 10, 64, 0
9, 47136, Note_on_c, 10, 64, 92
9, 47230, Note_on_c, 10, 64, 0
9, 47232, Note_on_c, 10, 57, 92
9, 47232, Note_on_c, 10, 64, 92
9, 47392, Note_on_c, 10, 57, 0
9, 47392, Note_on_c, 10, 64, 0
9, 49728, Note_on_c, 10, 62, 45
9, 49822, Note_on_c, 10, 62, 0
9, 49920, Note_on_c, 10, 57, 45
9, 50014, Note_on_c, 10, 57, 0
9, 50112, Note_on_c, 10, 50, 45
9, 50206, Note_on_c, 10, 50, 0
9, 50304, Note_on_c, 10, 62, 45
9, 50398, Note_on_c, 10, 62, 0
9, 50400, Note_on_c, 10, 62, 45
9, 50494, Note_on_c, 10, 62, 0
9, 50496, Note_on_c, 10, 62, 45
9, 50590, Note_on_c, 10, 62, 0
9, 50592, Note_on_c, 10, 62, 45
9, 50686, Note_on_c, 10, 62, 0
9, 50688, Note_on_c, 10, 62, 45
9, 50782, Note_on_c, 10, 62, 0
9, 50784, Note_on_c, 10, 62, 45
9, 50878, Note_on_c, 10, 62, 0
9, 50880, Note_on_c, 10, 62, 45
9, 51040, Note_on_c, 10, 62, 0
9, 51168, Note_on_c, 10, 62, 45
9, 51262, Note_on_c, 10, 62, 0
9, 51264, Note_on_c, 10, 61, 45
9, 51552, Note_on_c, 10, 61, 0
9, 51552, Note_on_c, 10, 62, 45
9, 51646, Note_on_c, 10, 62, 0
9, 51648, Note_on_c, 10, 57, 45
9, 51808, Note_on_c, 10, 57, 0
9, 52032, Note_on_c, 10, 50, 45
9, 52126, Note_on_c, 10, 50, 0
9, 52224, Note_on_c, 10, 57, 45
9, 52318, Note_on_c, 10, 57, 0
9, 52416, Note_on_c, 10, 62, 45
9, 52510, Note_on_c, 10, 62, 0
9, 52608, Note_on_c, 10, 50, 45
9, 52702, Note_on_c, 10, 50, 0
9, 52704, Note_on_c, 10, 50, 45
9, 52798, Note_on_c, 10, 50, 0
9, 52800, Note_on_c, 10, 50, 45
9, 52894, Note_on_c, 10, 50, 0
9, 52896, Note_on_c, 10, 50, 45
9, 52990, Note_on_c, 10, 50, 0
9, 52992, Note_on_c, 10, 50, 45
9, 53086, Note_on_c, 10, 50, 0
9, 53088, Note_on_c, 10, 50, 45
9, 53182, Note_on_c, 10, 50, 0
9, 53184, Note_on_c, 10, 50, 45
9, 53344, Note_on_c, 10, 50, 0
9, 53472, Note_on_c, 10, 54, 45
9, 53566, Note_on_c, 10, 54, 0
9, 53568, Note_on_c, 10, 55, 45
9, 53728, Note_on_c, 10, 55, 0
9, 53760, Note_on_c, 10, 57, 45
9, 53854, Note_on_c, 10, 57, 0
9, 53856, Note_on_c, 10, 57, 45
9, 53950, Note_on_c, 10, 57, 0
9, 53952, Note_on_c, 10, 50, 45
9, 54112, Note_on_c, 10, 50, 0
9, 54336, Note_on_c, 10, 57, 92
9, 54336, Note_on_c, 10, 69, 92
9, 54430, Note_on_c, 10, 57, 0
9, 54430, Note_on_c, 10, 69, 0
9, 54528, Note_on_c, 10, 57, 92
9, 54528, Note_on_c, 10, 69, 92
9, 54622, Note_on_c, 10, 57, 0
9, 54622, Note_on_c, 10, 69, 0
9, 54720, Note_on_c, 10, 57, 92
9, 54720, Note_on_c, 10, 69, 92
9, 54814, Note_on_c, 10, 57, 0
9, 54814, Note_on_c, 10, 69, 0
9, 54912, Note_on_c, 10, 62, 92
9, 54944, Note_on_c, 10, 62, 0
9, 55008, Note_on_c, 10, 64, 92
9, 55040, Note_on_c, 10, 64, 0
9, 55104, Note_on_c, 10, 66, 92
9, 55136, Note_on_c, 10, 66, 0
9, 55200, Note_on_c, 10, 67, 92
9, 55232, Note_on_c, 10, 67, 0
9, 55296, Note_on_c, 10, 69, 92
9, 55328, Note_on_c, 10, 69, 0
9, 55392, Note_on_c, 10, 67, 92
9, 55424, Note_on_c, 10, 67, 0
9, 55488, Note_on_c, 10, 66, 92
9, 55648, Note_on_c, 10, 66, 0
9, 55776, Note_on_c, 10, 69, 92
9, 55870, Note_on_c, 10, 69, 0
9, 55872, Note_on_c, 10, 61, 92
9, 56128, Note_on_c, 10, 61, 0
9, 56160, Note_on_c, 10, 62, 92
9, 56254, Note_on_c, 10, 62, 0
9, 56256, Note_on_c, 10, 57, 92
9, 56352, Note_on_c, 10, 57, 0
9, 56352, Note_on_c, 10, 61, 92
9, 56446, Note_on_c, 10, 61, 0
9, 56640, Note_on_c, 10, 57, 92
9, 56640, Note_on_c, 10, 66, 92
9, 56734, Note_on_c, 10, 57, 0
9, 56734, Note_on_c, 10, 66, 0
9, 56832, Note_on_c, 10, 57, 92
9, 56832, Note_on_c, 10, 69, 92
9, 56926, Note_on_c, 10, 57, 0
9, 56926, Note_on_c, 10, 69, 0
9, 57024, Note_on_c, 10, 57, 92
9, 57024, Note_on_c, 10, 69, 92
9, 57118, Note_on_c, 10, 57, 0
9, 57118, Note_on_c, 10, 69, 0
9, 57216, Note_on_c, 10, 62, 92
9, 57248, Note_on_c, 10, 62, 0
9, 57312, Note_on_c, 10, 64, 92
9, 57344, Note_on_c, 10, 64, 0
9, 57408, Note_on_c, 10, 66, 92
9, 57440, Note_on_c, 10, 66, 0
9, 57504, Note_on_c, 10, 67, 92
9, 57536, Note_on_c, 10, 67, 0
9, 57600, Note_on_c, 10, 69, 92
9, 57632, Note_on_c, 10, 69, 0
9, 57696, Note_on_c, 10, 67, 92
9, 57728, Note_on_c, 10, 67, 0
9, 57792, Note_on_c, 10, 66, 92
9, 57952, Note_on_c, 10, 66, 0
9, 58080, Note_on_c, 10, 69, 92
9, 58174, Note_on_c, 10, 69, 0
9, 58176, Note_on_c, 10, 71, 92
9, 58270, Note_on_c, 10, 71, 0
9, 58272, Note_on_c, 10, 64, 92
9, 58366, Note_on_c, 10, 64, 0
9, 58368, Note_on_c, 10, 69, 92
9, 58462, Note_on_c, 10, 69, 0
9, 58464, Note_on_c, 10, 69, 92
9, 58558, Note_on_c, 10, 69, 0
9, 58560, Note_on_c, 10, 57, 92
9, 58560, Note_on_c, 10, 66, 92
9, 58720, Note_on_c, 10, 57, 0
9, 58720, Note_on_c, 10, 66, 0
9, 58848, Note_on_c, 10, 69, 92
9, 58880, Note_on_c, 10, 69, 0
9, 58896, Note_on_c, 10, 67, 92
9, 58928, Note_on_c, 10, 67, 0
9, 58944, Note_on_c, 10, 66, 92
9, 59038, Note_on_c, 10, 66, 0
9, 59232, Note_on_c, 10, 69, 92
9, 59264, Note_on_c, 10, 69, 0
9, 59280, Note_on_c, 10, 67, 92
9, 59312, Note_on_c, 10, 67, 0
9, 59328, Note_on_c, 10, 66, 92
9, 59422, Note_on_c, 10, 66, 0
9, 59616, Note_on_c, 10, 72, 92
9, 59648, Note_on_c, 10, 72, 0
9, 59664, Note_on_c, 10, 71, 92
9, 59696, Note_on_c, 10, 71, 0
9, 59712, Note_on_c, 10, 69, 92
9, 59806, Note_on_c, 10, 69, 0
9, 60000, Note_on_c, 10, 72, 92
9, 60032, Note_on_c, 10, 72, 0
9, 60048, Note_on_c, 10, 71, 92
9, 60080, Note_on_c, 10, 71, 0
9, 60096, Note_on_c, 10, 69, 92
9, 60190, Note_on_c, 10, 69, 0
9, 62688, Note_on_c, 10, 72, 45
9, 62782, Note_on_c, 10, 72, 0
9, 62784, Note_on_c, 10, 71, 45
9, 62976, Note_on_c, 10, 71, 0
9, 62976, Note_on_c, 10, 67, 45
9, 63136, Note_on_c, 10, 67, 0
9, 63168, Note_on_c, 10, 74, 45
9, 63504, Note_on_c, 10, 74, 0
9, 64416, Note_on_c, 10, 62, 45
9, 64510, Note_on_c, 10, 62, 0
9, 64512, Note_on_c, 10, 62, 45
9, 64606, Note_on_c, 10, 62, 0
9, 64608, Note_on_c, 10, 62, 45
9, 64702, Note_on_c, 10, 62, 0
9, 64704, Note_on_c, 10, 62, 45
9, 64848, Note_on_c, 10, 62, 0
9, 64848, Note_on_c, 10, 59, 45
9, 64894, Note_on_c, 10, 59, 0
9, 64896, Note_on_c, 10, 60, 45
9, 65040, Note_on_c, 10, 60, 0
9, 65040, Note_on_c, 10, 57, 45
9, 65086, Note_on_c, 10, 57, 0
9, 65088, Note_on_c, 10, 55, 45
9, 65248, Note_on_c, 10, 55, 0
9, 65280, Note_on_c, 10, 59, 45
9, 65304, Note_on_c, 10, 59, 0
9, 65304, Note_on_c, 10, 57, 45
9, 65328, Note_on_c, 10, 57, 0
9, 65328, Note_on_c, 10, 59, 45
9, 65352, Note_on_c, 10, 59, 0
9, 65352, Note_on_c, 10, 57, 45
9, 65376, Note_on_c, 10, 57, 0
9, 65376, Note_on_c, 10, 59, 45
9, 65400, Note_on_c, 10, 59, 0
9, 65400, Note_on_c, 10, 57, 45
9, 65424, Note_on_c, 10, 57, 0
9, 65424, Note_on_c, 10, 55, 45
9, 65448, Note_on_c, 10, 55, 0
9, 65448, Note_on_c, 10, 57, 45
9, 65470, Note_on_c, 10, 57, 0
9, 65472, Note_on_c, 10, 59, 45
9, 65520, Note_on_c, 10, 59, 0
9, 65520, Note_on_c, 10, 55, 45
9, 65566, Note_on_c, 10, 55, 0
9, 65568, Note_on_c, 10, 59, 45
9, 65600, Note_on_c, 10, 59, 0
9, 65616, Note_on_c, 10, 55, 45
9, 65648, Note_on_c, 10, 55, 0
9, 65664, Note_on_c, 10, 62, 45
9, 66016, Note_on_c, 10, 62, 0
9, 66048, Note_on_c, 10, 67, 45
9, 66072, Note_on_c, 10, 67, 0
9, 66072, Note_on_c, 10, 66, 45
9, 66096, Note_on_c, 10, 66, 0
9, 66096, Note_on_c, 10, 67, 45
9, 66120, Note_on_c, 10, 67, 0
9, 66120, Note_on_c, 10, 66, 45
9, 66144, Note_on_c, 10, 66, 0
9, 66144, Note_on_c, 10, 67, 45
9, 66168, Note_on_c, 10, 67, 0
9, 66168, Note_on_c, 10, 66, 45
9, 66192, Note_on_c, 10, 66, 0
9, 66192, Note_on_c, 10, 64, 45
9, 66216, Note_on_c, 10, 64, 0
9, 66216, Note_on_c, 10, 66, 45
9, 66238, Note_on_c, 10, 66, 0
9, 66240, Note_on_c, 10, 67, 45
9, 66400, Note_on_c, 10, 67, 0
9, 67008, Note_on_c, 10, 66, 45
9, 67102, Note_on_c, 10, 66, 0
9, 67104, Note_on_c, 10, 66, 45
9, 67198, Note_on_c, 10, 66, 0
9, 67200, Note_on_c, 10, 66, 45
9, 67294, Note_on_c, 10, 66, 0
9, 67296, Note_on_c, 10, 66, 45
9, 67390, Note_on_c, 10, 66, 0
9, 67392, Note_on_c, 10, 66, 45
9, 67486, Note_on_c, 10, 66, 0
9, 67488, Note_on_c, 10, 66, 45
9, 67582, Note_on_c, 10, 66, 0
9, 67584, Note_on_c, 10, 66, 45
9, 67678, Note_on_c, 10, 66, 0
9, 67680, Note_on_c, 10, 66, 45
9, 67774, Note_on_c, 10, 66, 0
9, 67776, Note_on_c, 10, 67, 45
9, 67870, Note_on_c, 10, 67, 0
9, 68544, Note_on_c, 10, 64, 45
9, 68638, Note_on_c, 10, 64, 0
9, 68640, Note_on_c, 10, 64, 45
9, 68734, Note_on_c, 10, 64, 0
9, 68736, Note_on_c, 10, 64, 45
9, 68830, Note_on_c, 10, 64, 0
9, 68832, Note_on_c, 10, 64, 45
9, 68926, Note_on_c, 10, 64, 0
9, 68928, Note_on_c, 10, 64, 45
9, 69022, Note_on_c, 10, 64, 0
9, 69024, Note_on_c, 10, 64, 45
9, 69118, Note_on_c, 10, 64, 0
9, 69120, Note_on_c, 10, 64, 45
9, 69214, Note_on_c, 10, 64, 0
9, 69216, Note_on_c, 10, 64, 45
9, 69310, Note_on_c, 10, 64, 0
9, 69312, Note_on_c, 10, 66, 45
9, 69472, Note_on_c, 10, 66, 0
9, 71136, Note_on_c, 10, 57, 92
9, 71230, Note_on_c, 10, 57, 0
9, 71232, Note_on_c, 10, 69, 92
9, 71280, Note_on_c, 10, 69, 0
9, 71280, Note_on_c, 10, 68, 92
9, 71328, Note_on_c, 10, 68, 0
9, 71328, Note_on_c, 10, 69, 92
9, 71376, Note_on_c, 10, 69, 0
9, 71376, Note_on_c, 10, 68, 92
9, 71422, Note_on_c, 10, 68, 0
9, 71424, Note_on_c, 10, 69, 92
9, 71518, Note_on_c, 10, 69, 0
9, 71616, Note_on_c, 10, 57, 45
9, 71710, Note_on_c, 10, 57, 0
9, 71712, Note_on_c, 10, 57, 45
9, 71872, Note_on_c, 10, 57, 0
9, 71904, Note_on_c, 10, 57, 45
9, 72094, Note_on_c, 10, 57, 0
9, 72096, Note_on_c, 10, 57, 45
9, 72256, Note_on_c, 10, 57, 0
9, 72288, Note_on_c, 10, 57, 45
9, 72478, Note_on_c, 10, 57, 0
9, 72480, Note_on_c, 10, 57, 45
9, 72640, Note_on_c, 10, 57, 0
9, 72672, Note_on_c, 10, 57, 45
9, 72862, Note_on_c, 10, 57, 0
9, 72864, Note_on_c, 10, 57, 45
9, 73024, Note_on_c, 10, 57, 0
9, 73056, Note_on_c, 10, 57, 45
9, 73246, Note_on_c, 10, 57, 0
9, 73248, Note_on_c, 10, 57, 45
9, 73408, Note_on_c, 10, 57, 0
9, 73440, Note_on_c, 10, 57, 45
9, 73630, Note_on_c, 10, 57, 0
9, 73632, Note_on_c, 10, 57, 45
9, 73792, Note_on_c, 10, 57, 0
9, 73824, Note_on_c, 10, 57, 45
9, 74014, Note_on_c, 10, 57, 0
9, 74016, Note_on_c, 10, 57, 45
9, 74176, Note_on_c, 10, 57, 0
9, 74208, Note_on_c, 10, 57, 45
9, 74398, Note_on_c, 10, 57, 0
9, 74400, Note_on_c, 10, 57, 45
9, 74560, Note_on_c, 10, 57, 0
9, 74592, Note_on_c, 10, 69, 45
9, 74686, Note_on_c, 10, 69, 0
9, 74688, Note_on_c, 10, 67, 45
9, 74848, Note_on_c, 10, 67, 0
9, 81792, Note_on_c, 10, 61, 45
9, 81792, Note_on_c, 10, 64, 45
9, 81824, Note_on_c, 10, 61, 0
9, 81824, Note_on_c, 10, 64, 0
9, 81888, Note_on_c, 10, 61, 45
9, 81888, Note_on_c, 10, 64, 45
9, 81920, Note_on_c, 10, 61, 0
9, 81920, Note_on_c, 10, 64, 0
9, 81984, Note_on_c, 10, 62, 45
9, 82240, Note_on_c, 10, 62, 0
9, 82272, Note_on_c, 10, 57, 45
9, 82366, Note_on_c, 10, 57, 0
9, 82368, Note_on_c, 10, 69, 45
9, 82528, Note_on_c, 10, 69, 0
9, 83328, Note_on_c, 10, 61, 45
9, 83328, Note_on_c, 10, 64, 45
9, 83360, Note_on_c, 10, 61, 0
9, 83360, Note_on_c, 10, 64, 0
9, 83424, Note_on_c, 10, 61, 45
9, 83424, Note_on_c, 10, 64, 45
9, 83456, Note_on_c, 10, 61, 0
9, 83456, Note_on_c, 10, 64, 0
9, 83520, Note_on_c, 10, 62, 45
9, 83776, Note_on_c, 10, 62, 0
9, 83808, Note_on_c, 10, 57, 45
9, 83902, Note_on_c, 10, 57, 0
9, 83904, Note_on_c, 10, 69, 45
9, 84064, Note_on_c, 10, 69, 0
9, 84192, Note_on_c, 10, 64, 92
9, 84224, Note_on_c, 10, 64, 0
9, 84240, Note_on_c, 10, 62, 92
9, 84272, Note_on_c, 10, 62, 0
9, 84288, Note_on_c, 10, 61, 92
9, 84382, Note_on_c, 10, 61, 0
9, 84576, Note_on_c, 10, 64, 92
9, 84608, Note_on_c, 10, 64, 0
9, 84624, Note_on_c, 10, 62, 92
9, 84656, Note_on_c, 10, 62, 0
9, 84672, Note_on_c, 10, 61, 92
9, 84766, Note_on_c, 10, 61, 0
9, 84960, Note_on_c, 10, 67, 92
9, 84992, Note_on_c, 10, 67, 0
9, 85008, Note_on_c, 10, 66, 92
9, 85040, Note_on_c, 10, 66, 0
9, 85056, Note_on_c, 10, 64, 92
9, 85150, Note_on_c, 10, 64, 0
9, 85344, Note_on_c, 10, 67, 92
9, 85376, Note_on_c, 10, 67, 0
9, 85392, Note_on_c, 10, 66, 92
9, 85424, Note_on_c, 10, 66, 0
9, 85440, Note_on_c, 10, 64, 92
9, 85534, Note_on_c, 10, 64, 0
9, 86976, Note_on_c, 10, 62, 45
9, 87070, Note_on_c, 10, 62, 0
9, 87168, Note_on_c, 10, 57, 45
9, 87262, Note_on_c, 10, 57, 0
9, 87360, Note_on_c, 10, 50, 45
9, 87454, Note_on_c, 10, 50, 0
9, 87552, Note_on_c, 10, 62, 45
9, 87584, Note_on_c, 10, 62, 0
9, 87648, Note_on_c, 10, 62, 45
9, 87680, Note_on_c, 10, 62, 0
9, 87744, Note_on_c, 10, 62, 45
9, 87838, Note_on_c, 10, 62, 0
9, 87840, Note_on_c, 10, 62, 45
9, 87934, Note_on_c, 10, 62, 0
9, 87936, Note_on_c, 10, 62, 45
9, 88030, Note_on_c, 10, 62, 0
9, 88032, Note_on_c, 10, 62, 45
9, 88126, Note_on_c, 10, 62, 0
9, 88128, Note_on_c, 10, 62, 45
9, 88288, Note_on_c, 10, 62, 0
9, 88416, Note_on_c, 10, 62, 45
9, 88510, Note_on_c, 10, 62, 0
9, 88512, Note_on_c, 10, 61, 45
9, 88800, Note_on_c, 10, 61, 0
9, 88800, Note_on_c, 10, 62, 45
9, 88894, Note_on_c, 10, 62, 0
9, 88896, Note_on_c, 10, 57, 45
9, 89056, Note_on_c, 10, 57, 0
9, 89280, Note_on_c, 10, 50, 45
9, 89374, Note_on_c, 10, 50, 0
9, 89472, Note_on_c, 10, 57, 45
9, 89566, Note_on_c, 10, 57, 0
9, 89664, Note_on_c, 10, 62, 45
9, 89758, Note_on_c, 10, 62, 0
9, 89856, Note_on_c, 10, 62, 45
9, 89950, Note_on_c, 10, 62, 0
9, 89952, Note_on_c, 10, 62, 45
9, 90046, Note_on_c, 10, 62, 0
9, 90048, Note_on_c, 10, 62, 45
9, 90142, Note_on_c, 10, 62, 0
9, 90144, Note_on_c, 10, 62, 45
9, 90238, Note_on_c, 10, 62, 0
9, 90240, Note_on_c, 10, 62, 45
9, 90334, Note_on_c, 10, 62, 0
9, 90336, Note_on_c, 10, 62, 45
9, 90430, Note_on_c, 10, 62, 0
9, 90432, Note_on_c, 10, 62, 45
9, 90592, Note_on_c, 10, 62, 0
9, 90720, Note_on_c, 10, 54, 45
9, 90814, Note_on_c, 10, 54, 0
9, 90816, Note_on_c, 10, 55, 45
9, 90976, Note_on_c, 10, 55, 0
9, 91008, Note_on_c, 10, 57, 45
9, 91102, Note_on_c, 10, 57, 0
9, 91104, Note_on_c, 10, 57, 45
9, 91198, Note_on_c, 10, 57, 0
9, 91200, Note_on_c, 10, 50, 45
9, 91294, Note_on_c, 10, 50, 0
9, 91296, Note_on_c, 10, 62, 92
9, 91390, Note_on_c, 10, 62, 0
9, 91392, Note_on_c, 10, 66, 92
9, 91486, Note_on_c, 10, 66, 0
9, 91488, Note_on_c, 10, 66, 92
9, 91582, Note_on_c, 10, 66, 0
9, 91584, Note_on_c, 10, 67, 92
9, 91678, Note_on_c, 10, 67, 0
9, 91680, Note_on_c, 10, 67, 92
9, 91774, Note_on_c, 10, 67, 0
9, 91776, Note_on_c, 10, 69, 92
9, 91870, Note_on_c, 10, 69, 0
9, 91872, Note_on_c, 10, 69, 92
9, 91966, Note_on_c, 10, 69, 0
9, 91968, Note_on_c, 10, 71, 92
9, 92062, Note_on_c, 10, 71, 0
9, 92064, Note_on_c, 10, 71, 92
9, 92158, Note_on_c, 10, 71, 0
9, 92160, Note_on_c, 10, 66, 92
9, 92254, Note_on_c, 10, 66, 0
9, 92256, Note_on_c, 10, 66, 92
9, 92350, Note_on_c, 10, 66, 0
9, 92352, Note_on_c, 10, 67, 92
9, 92446, Note_on_c, 10, 67, 0
9, 92448, Note_on_c, 10, 67, 92
9, 92542, Note_on_c, 10, 67, 0
9, 92544, Note_on_c, 10, 69, 92
9, 92638, Note_on_c, 10, 69, 0
9, 92640, Note_on_c, 10, 69, 92
9, 92734, Note_on_c, 10, 69, 0
9, 92736, Note_on_c, 10, 62, 92
9, 92896, Note_on_c, 10, 62, 0
9, 93120, Note_on_c, 10, 62, 45
9, 93214, Note_on_c, 10, 62, 0
9, 93216, Note_on_c, 10, 62, 45
9, 93310, Note_on_c, 10, 62, 0
9, 93312, Note_on_c, 10, 64, 45
9, 93406, Note_on_c, 10, 64, 0
9, 93408, Note_on_c, 10, 64, 45
9, 93502, Note_on_c, 10, 64, 0
9, 93504, Note_on_c, 10, 64, 45
9, 93598, Note_on_c, 10, 64, 0
9, 93600, Note_on_c, 10, 64, 45
9, 93694, Note_on_c, 10, 64, 0
9, 93696, Note_on_c, 10, 64, 45
9, 93790, Note_on_c, 10, 64, 0
9, 93792, Note_on_c, 10, 64, 45
9, 93886, Note_on_c, 10, 64, 0
9, 93888, Note_on_c, 10, 64, 45
9, 93982, Note_on_c, 10, 64, 0
9, 93984, Note_on_c, 10, 64, 45
9, 94078, Note_on_c, 10, 64, 0
9, 94080, Note_on_c, 10, 64, 45
9, 94174, Note_on_c, 10, 64, 0
9, 94176, Note_on_c, 10, 64, 45
9, 94270, Note_on_c, 10, 64, 0
9, 94272, Note_on_c, 10, 64, 45
9, 94432, Note_on_c, 10, 64, 0
9, 94656, Note_on_c, 10, 55, 45
9, 94750, Note_on_c, 10, 55, 0
9, 94752, Note_on_c, 10, 55, 45
9, 94846, Note_on_c, 10, 55, 0
9, 94848, Note_on_c, 10, 57, 45
9, 94942, Note_on_c, 10, 57, 0
9, 94944, Note_on_c, 10, 57, 45
9, 95038, Note_on_c, 10, 57, 0
9, 95040, Note_on_c, 10, 57, 45
9, 95134, Note_on_c, 10, 57, 0
9, 95136, Note_on_c, 10, 57, 45
9, 95230, Note_on_c, 10, 57, 0
9, 95232, Note_on_c, 10, 57, 45
9, 95326, Note_on_c, 10, 57, 0
9, 95328, Note_on_c, 10, 57, 45
9, 95422, Note_on_c, 10, 57, 0
9, 95424, Note_on_c, 10, 57, 45
9, 95518, Note_on_c, 10, 57, 0
9, 95520, Note_on_c, 10, 57, 45
9, 95614, Note_on_c, 10, 57, 0
9, 95616, Note_on_c, 10, 57, 45
9, 95710, Note_on_c, 10, 57, 0
9, 95712, Note_on_c, 10, 57, 45
9, 95806, Note_on_c, 10, 57, 0
9, 95808, Note_on_c, 10, 57, 92
9, 95968, Note_on_c, 10, 57, 0
9, 96096, Note_on_c, 10, 69, 92
9, 96128, Note_on_c, 10, 69, 0
9, 96144, Note_on_c, 10, 67, 92
9, 96176, Note_on_c, 10, 67, 0
9, 96192, Note_on_c, 10, 66, 92
9, 96286, Note_on_c, 10, 66, 0
9, 96480, Note_on_c, 10, 66, 92
9, 96512, Note_on_c, 10, 66, 0
9, 96528, Note_on_c, 10, 64, 92
9, 96560, Note_on_c, 10, 64, 0
9, 96576, Note_on_c, 10, 62, 92
9, 96670, Note_on_c, 10, 62, 0
9, 96864, Note_on_c, 10, 78, 92
9, 96896, Note_on_c, 10, 78, 0
9, 96912, Note_on_c, 10, 76, 92
9, 96944, Note_on_c, 10, 76, 0
9, 96960, Note_on_c, 10, 74, 92
9, 97054, Note_on_c, 10, 74, 0
9, 97248, Note_on_c, 10, 74, 92
9, 97280, Note_on_c, 10, 74, 0
9, 97296, Note_on_c, 10, 73, 92
9, 97328, Note_on_c, 10, 73, 0
9, 97344, Note_on_c, 10, 71, 92
9, 97504, Note_on_c, 10, 71, 0
9, 97824, Note_on_c, 10, 62, 92
9, 97856, Note_on_c, 10, 62, 0
9, 97920, Note_on_c, 10, 66, 92
9, 97952, Note_on_c, 10, 66, 0
9, 98016, Note_on_c, 10, 68, 92
9, 98048, Note_on_c, 10, 68, 0
9, 98112, Note_on_c, 10, 57, 92
9, 98112, Note_on_c, 10, 69, 92
9, 98272, Note_on_c, 10, 57, 0
9, 98272, Note_on_c, 10, 69, 0
9, 111264, Note_on_c, 10, 57, 45
9, 111358, Note_on_c, 10, 57, 0
9, 111360, Note_on_c, 10, 57, 45
9, 111454, Note_on_c, 10, 57, 0
9, 111456, Note_on_c, 10, 57, 45
9, 111550, Note_on_c, 10, 57, 0
9, 111648, Note_on_c, 10, 57, 45
9, 111742, Note_on_c, 10, 57, 0
9, 111744, Note_on_c, 10, 57, 45
9, 111838, Note_on_c, 10, 57, 0
9, 111840, Note_on_c, 10, 57, 45
9, 111934, Note_on_c, 10, 57, 0
9, 112032, Note_on_c, 10, 57, 45
9, 112126, Note_on_c, 10, 57, 0
9, 112128, Note_on_c, 10, 57, 45
9, 112222, Note_on_c, 10, 57, 0
9, 112224, Note_on_c, 10, 57, 45
9, 112318, Note_on_c, 10, 57, 0
9, 112320, Note_on_c, 10, 57, 45
9, 112798, Note_on_c, 10, 57, 0
9, 113472, Note_on_c, 10, 50, 45
9, 113566, Note_on_c, 10, 50, 0
9, 113664, Note_on_c, 10, 57, 45
9, 113758, Note_on_c, 10, 57, 0
9, 113856, Note_on_c, 10, 62, 45
9, 113904, Note_on_c, 10, 62, 0
9, 113904, Note_on_c, 10, 61, 45
9, 113952, Note_on_c, 10, 61, 0
9, 113952, Note_on_c, 10, 62, 45
9, 114000, Note_on_c, 10, 62, 0
9, 114000, Note_on_c, 10, 61, 45
9, 114046, Note_on_c, 10, 61, 0
9, 114048, Note_on_c, 10, 62, 45
9, 114142, Note_on_c, 10, 62, 0
9, 114240, Note_on_c, 10, 50, 45
9, 114334, Note_on_c, 10, 50, 0
9, 114336, Note_on_c, 10, 50, 45
9, 114430, Note_on_c, 10, 50, 0
9, 114432, Note_on_c, 10, 50, 45
9, 114526, Note_on_c, 10, 50, 0
9, 114528, Note_on_c, 10, 50, 45
9, 114622, Note_on_c, 10, 50, 0
9, 114624, Note_on_c, 10, 50, 45
9, 114718, Note_on_c, 10, 50, 0
9, 114720, Note_on_c, 10, 62, 45
9, 114814, Note_on_c, 10, 62, 0
9, 114912, Note_on_c, 10, 62, 45
9, 115006, Note_on_c, 10, 62, 0
9, 115008, Note_on_c, 10, 61, 45
9, 115296, Note_on_c, 10, 61, 0
9, 115296, Note_on_c, 10, 62, 45
9, 115390, Note_on_c, 10, 62, 0
9, 115392, Note_on_c, 10, 57, 45
9, 115552, Note_on_c, 10, 57, 0
9, 115776, Note_on_c, 10, 69, 92
9, 115824, Note_on_c, 10, 69, 0
9, 115824, Note_on_c, 10, 66, 92
9, 115872, Note_on_c, 10, 66, 0
9, 115872, Note_on_c, 10, 69, 92
9, 115920, Note_on_c, 10, 69, 0
9, 115920, Note_on_c, 10, 66, 92
9, 115966, Note_on_c, 10, 66, 0
9, 115968, Note_on_c, 10, 67, 92
9, 116016, Note_on_c, 10, 67, 0
9, 116016, Note_on_c, 10, 64, 92
9, 116064, Note_on_c, 10, 64, 0
9, 116064, Note_on_c, 10, 67, 92
9, 116112, Note_on_c, 10, 67, 0
9, 116112, Note_on_c, 10, 64, 92
9, 116158, Note_on_c, 10, 64, 0
9, 116160, Note_on_c, 10, 62, 92
9, 116254, Note_on_c, 10, 62, 0
9, 116352, Note_on_c, 10, 62, 92
9, 116384, Note_on_c, 10, 62, 0
9, 116448, Note_on_c, 10, 64, 92
9, 116480, Note_on_c, 10, 64, 0
9, 116544, Note_on_c, 10, 66, 92
9, 116576, Note_on_c, 10, 66, 0
9, 116640, Note_on_c, 10, 67, 92
9, 116672, Note_on_c, 10, 67, 0
9, 116736, Note_on_c, 10, 69, 92
9, 116768, Note_on_c, 10, 69, 0
9, 116832, Note_on_c, 10, 67, 92
9, 116864, Note_on_c, 10, 67, 0
9, 116928, Note_on_c, 10, 66, 92
9, 117088, Note_on_c, 10, 66, 0
9, 117120, Note_on_c, 10, 69, 45
9, 117152, Note_on_c, 10, 69, 0
9, 117216, Note_on_c, 10, 67, 45
9, 117248, Note_on_c, 10, 67, 0
9, 117312, Note_on_c, 10, 66, 45
9, 117344, Note_on_c, 10, 66, 0
9, 117408, Note_on_c, 10, 67, 45
9, 117440, Note_on_c, 10, 67, 0
9, 117504, Note_on_c, 10, 69, 45
9, 117536, Note_on_c, 10, 69, 0
9, 117600, Note_on_c, 10, 67, 45
9, 117632, Note_on_c, 10, 67, 0
9, 117696, Note_on_c, 10, 66, 45
9, 117856, Note_on_c, 10, 66, 0
9, 117888, Note_on_c, 10, 62, 92
9, 117982, Note_on_c, 10, 62, 0
9, 117984, Note_on_c, 10, 69, 92
9, 118078, Note_on_c, 10, 69, 0
9, 118080, Note_on_c, 10, 71, 92
9, 118174, Note_on_c, 10, 71, 0
9, 118176, Note_on_c, 10, 64, 92
9, 118270, Note_on_c, 10, 64, 0
9, 118272, Note_on_c, 10, 69, 92
9, 118366, Note_on_c, 10, 69, 0
9, 118368, Note_on_c, 10, 69, 92
9, 118462, Note_on_c, 10, 69, 0
9, 118464, Note_on_c, 10, 57, 92
9, 118464, Note_on_c, 10, 66, 92
9, 118624, Note_on_c, 10, 57, 0
9, 118624, Note_on_c, 10, 66, 0
9, 118848, Note_on_c, 10, 62, 45
9, 118942, Note_on_c, 10, 62, 0
9, 118944, Note_on_c, 10, 62, 45
9, 119038, Note_on_c, 10, 62, 0
9, 119040, Note_on_c, 10, 64, 45
9, 119134, Note_on_c, 10, 64, 0
9, 119136, Note_on_c, 10, 64, 45
9, 119230, Note_on_c, 10, 64, 0
9, 119232, Note_on_c, 10, 64, 45
9, 119326, Note_on_c, 10, 64, 0
9, 119328, Note_on_c, 10, 64, 45
9, 119422, Note_on_c, 10, 64, 0
9, 119424, Note_on_c, 10, 64, 45
9, 119518, Note_on_c, 10, 64, 0
9, 119520, Note_on_c, 10, 64, 45
9, 119614, Note_on_c, 10, 64, 0
9, 119616, Note_on_c, 10, 64, 45
9, 119710, Note_on_c, 10, 64, 0
9, 119712, Note_on_c, 10, 64, 45
9, 119806, Note_on_c, 10, 64, 0
9, 119808, Note_on_c, 10, 64, 45
9, 119902, Note_on_c, 10, 64, 0
9, 119904, Note_on_c, 10, 64, 45
9, 119998, Note_on_c, 10, 64, 0
9, 120000, Note_on_c, 10, 64, 45
9, 120160, Note_on_c, 10, 64, 0
9, 120384, Note_on_c, 10, 55, 45
9, 120478, Note_on_c, 10, 55, 0
9, 120480, Note_on_c, 10, 55, 45
9, 120574, Note_on_c, 10, 55, 0
9, 120576, Note_on_c, 10, 57, 45
9, 120670, Note_on_c, 10, 57, 0
9, 120672, Note_on_c, 10, 57, 45
9, 120766, Note_on_c, 10, 57, 0
9, 120768, Note_on_c, 10, 57, 45
9, 120862, Note_on_c, 10, 57, 0
9, 120864, Note_on_c, 10, 57, 45
9, 120958, Note_on_c, 10, 57, 0
9, 120960, Note_on_c, 10, 57, 45
9, 121054, Note_on_c, 10, 57, 0
9, 121056, Note_on_c, 10, 57, 45
9, 121150, Note_on_c, 10, 57, 0
9, 121152, Note_on_c, 10, 57, 45
9, 121246, Note_on_c, 10, 57, 0
9, 121248, Note_on_c, 10, 57, 45
9, 121342, Note_on_c, 10, 57, 0
9, 121344, Note_on_c, 10, 57, 45
9, 121438, Note_on_c, 10, 57, 0
9, 121440, Note_on_c, 10, 57, 45
9, 121534, Note_on_c, 10, 57, 0
9, 121536, Note_on_c, 10, 57, 45
9, 121630, Note_on_c, 10, 57, 0
9, 121632, Note_on_c, 10, 62, 92
9, 121664, Note_on_c, 10, 62, 0
9, 121680, Note_on_c, 10, 64, 92
9, 121712, Note_on_c, 10, 64, 0
9, 121728, Note_on_c, 10, 66, 92
9, 121776, Note_on_c, 10, 66, 0
9, 121776, Note_on_c, 10, 64, 92
9, 121822, Note_on_c, 10, 64, 0
9, 121824, Note_on_c, 10, 66, 92
9, 121856, Note_on_c, 10, 66, 0
9, 121872, Note_on_c, 10, 67, 92
9, 121904, Note_on_c, 10, 67, 0
9, 121920, Note_on_c, 10, 69, 92
9, 122014, Note_on_c, 10, 69, 0
9, 122016, Note_on_c, 10, 69, 92
9, 122110, Note_on_c, 10, 69, 0
9, 122112, Note_on_c, 10, 69, 92
9, 122206, Note_on_c, 10, 69, 0
9, 122208, Note_on_c, 10, 69, 92
9, 122302, Note_on_c, 10, 69, 0
9, 122304, Note_on_c, 10, 69, 92
9, 122398, Note_on_c, 10, 69, 0
9, 122400, Note_on_c, 10, 62, 92
9, 122432, Note_on_c, 10, 62, 0
9, 122448, Note_on_c, 10, 64, 92
9, 122480, Note_on_c, 10, 64, 0
9, 122496, Note_on_c, 10, 66, 92
9, 122544, Note_on_c, 10, 66, 0
9, 122544, Note_on_c, 10, 64, 92
9, 122590, Note_on_c, 10, 64, 0
9, 122592, Note_on_c, 10, 66, 92
9, 122624, Note_on_c, 10, 66, 0
9, 122640, Note_on_c, 10, 67, 92
9, 122672, Note_on_c, 10, 67, 0
9, 122688, Note_on_c, 10, 69, 92
9, 122782, Note_on_c, 10, 69, 0
9, 122784, Note_on_c, 10, 69, 92
9, 122878, Note_on_c, 10, 69, 0
9, 122880, Note_on_c, 10, 69, 92
9, 122974, Note_on_c, 10, 69, 0
9, 122976, Note_on_c, 10, 69, 92
9, 123070, Note_on_c, 10, 69, 0
9, 123072, Note_on_c, 10, 62, 92
9, 123104, Note_on_c, 10, 62, 0
9, 123168, Note_on_c, 10, 66, 92
9, 123200, Note_on_c, 10, 66, 0
9, 123264, Note_on_c, 10, 67, 92
9, 123296, Note_on_c, 10, 67, 0
9, 123360, Note_on_c, 10, 64, 92
9, 123392, Note_on_c, 10, 64, 0
9, 123456, Note_on_c, 10, 62, 92
9, 123488, Note_on_c, 10, 62, 0
9, 123552, Note_on_c, 10, 66, 92
9, 123584, Note_on_c, 10, 66, 0
9, 123648, Note_on_c, 10, 67, 92
9, 123680, Note_on_c, 10, 67, 0
9, 123744, Note_on_c, 10, 64, 92
9, 123776, Note_on_c, 10, 64, 0
9, 123840, Note_on_c, 10, 62, 92
9, 124000, Note_on_c, 10, 62, 0
9, 124032, Note_on_c, 10, 50, 92
9, 124032, Note_on_c, 10, 62, 92
9, 124192, Note_on_c, 10, 50, 0
9, 124192, Note_on_c, 10, 62, 0
9, 124224, Note_on_c, 10, 50, 92
9, 124224, Note_on_c, 10, 62, 92
9, 124480, Note_on_c, 10, 50, 0
9, 124480, Note_on_c, 10, 62, 0
9, 124480, End_track
10, 0, Start_track
10, 0, MIDI_port, 0
10, 0, Title_t, "V'lncello e Contrabasso"
10, 0, Program_c, 11, 48
10, 0, Control_c, 11, 7, 127
10, 0, Control_c, 11, 10, 64
10, 4992, Note_on_c, 11, 62, 92
10, 5086, Note_on_c, 11, 62, 0
10, 5184, Note_on_c, 11, 57, 92
10, 5278, Note_on_c, 11, 57, 0
10, 5376, Note_on_c, 11, 50, 92
10, 5470, Note_on_c, 11, 50, 0
10, 5568, Note_on_c, 11, 50, 92
10, 5662, Note_on_c, 11, 50, 0
10, 5664, Note_on_c, 11, 50, 92
10, 5758, Note_on_c, 11, 50, 0
10, 5760, Note_on_c, 11, 50, 92
10, 5854, Note_on_c, 11, 50, 0
10, 5856, Note_on_c, 11, 50, 92
10, 5950, Note_on_c, 11, 50, 0
10, 5952, Note_on_c, 11, 50, 92
10, 6046, Note_on_c, 11, 50, 0
10, 6048, Note_on_c, 11, 50, 92
10, 6142, Note_on_c, 11, 50, 0
10, 6144, Note_on_c, 11, 50, 92
10, 6304, Note_on_c, 11, 50, 0
10, 6432, Note_on_c, 11, 62, 92
10, 6526, Note_on_c, 11, 62, 0
10, 6528, Note_on_c, 11, 61, 92
10, 6784, Note_on_c, 11, 61, 0
10, 6816, Note_on_c, 11, 62, 92
10, 6910, Note_on_c, 11, 62, 0
10, 6912, Note_on_c, 11, 57, 92
10, 7072, Note_on_c, 11, 57, 0
10, 7296, Note_on_c, 11, 62, 92
10, 7390, Note_on_c, 11, 62, 0
10, 7488, Note_on_c, 11, 57, 92
10, 7582, Note_on_c, 11, 57, 0
10, 7680, Note_on_c, 11, 50, 92
10, 7774, Note_on_c, 11, 50, 0
10, 7872, Note_on_c, 11, 50, 92
10, 7966, Note_on_c, 11, 50, 0
10, 7968, Note_on_c, 11, 50, 92
10, 8062, Note_on_c, 11, 50, 0
10, 8064, Note_on_c, 11, 50, 92
10, 8158, Note_on_c, 11, 50, 0
10, 8160, Note_on_c, 11, 50, 92
10, 8254, Note_on_c, 11, 50, 0
10, 8256, Note_on_c, 11, 50, 92
10, 8350, Note_on_c, 11, 50, 0
10, 8352, Note_on_c, 11, 50, 92
10, 8446, Note_on_c, 11, 50, 0
10, 8448, Note_on_c, 11, 50, 92
10, 8608, Note_on_c, 11, 50, 0
10, 8736, Note_on_c, 11, 62, 92
10, 8830, Note_on_c, 11, 62, 0
10, 8832, Note_on_c, 11, 55, 92
10, 8992, Note_on_c, 11, 55, 0
10, 9024, Note_on_c, 11, 57, 92
10, 9118, Note_on_c, 11, 57, 0
10, 9120, Note_on_c, 11, 45, 92
10, 9214, Note_on_c, 11, 45, 0
10, 9216, Note_on_c, 11, 50, 92
10, 9376, Note_on_c, 11, 50, 0
10, 10464, Note_on_c, 11, 50, 45
10, 10496, Note_on_c, 11, 50, 0
10, 10560, Note_on_c, 11, 62, 45
10, 10592, Note_on_c, 11, 62, 0
10, 10656, Note_on_c, 11, 54, 45
10, 10688, Note_on_c, 11, 54, 0
10, 10752, Note_on_c, 11, 57, 45
10, 10912, Note_on_c, 11, 57, 0
10, 12000, Note_on_c, 11, 50, 45
10, 12032, Note_on_c, 11, 50, 0
10, 12096, Note_on_c, 11, 62, 45
10, 12128, Note_on_c, 11, 62, 0
10, 12192, Note_on_c, 11, 54, 45
10, 12224, Note_on_c, 11, 54, 0
10, 12288, Note_on_c, 11, 57, 45
10, 12448, Note_on_c, 11, 57, 0
10, 12576, Note_on_c, 11, 61, 92
10, 12608, Note_on_c, 11, 61, 0
10, 12624, Note_on_c, 11, 59, 92
10, 12656, Note_on_c, 11, 59, 0
10, 12672, Note_on_c, 11, 57, 92
10, 12766, Note_on_c, 11, 57, 0
10, 12960, Note_on_c, 11, 61, 92
10, 12992, Note_on_c, 11, 61, 0
10, 13008, Note_on_c, 11, 59, 92
10, 13040, Note_on_c, 11, 59, 0
10, 13056, Note_on_c, 11, 57, 92
10, 13150, Note_on_c, 11, 57, 0
10, 13344, Note_on_c, 11, 64, 92
10, 13376, Note_on_c, 11, 64, 0
10, 13392, Note_on_c, 11, 62, 92
10, 13424, Note_on_c, 11, 62, 0
10, 13440, Note_on_c, 11, 61, 92
10, 13534, Note_on_c, 11, 61, 0
10, 13728, Note_on_c, 11, 64, 92
10, 13760, Note_on_c, 11, 64, 0
10, 13776, Note_on_c, 11, 62, 92
10, 13808, Note_on_c, 11, 62, 0
10, 13824, Note_on_c, 11, 61, 92
10, 13918, Note_on_c, 11, 61, 0
10, 14784, Note_on_c, 11, 61, 45
10, 14976, Note_on_c, 11, 61, 0
10, 14976, Note_on_c, 11, 62, 45
10, 15136, Note_on_c, 11, 62, 0
10, 15552, Note_on_c, 11, 61, 45
10, 15744, Note_on_c, 11, 61, 0
10, 15744, Note_on_c, 11, 62, 45
10, 15904, Note_on_c, 11, 62, 0
10, 16320, Note_on_c, 11, 61, 45
10, 16512, Note_on_c, 11, 61, 0
10, 16512, Note_on_c, 11, 62, 45
10, 16672, Note_on_c, 11, 62, 0
10, 16704, Note_on_c, 11, 57, 45
10, 16864, Note_on_c, 11, 57, 0
10, 16896, Note_on_c, 11, 50, 92
10, 16990, Note_on_c, 11, 50, 0
10, 16992, Note_on_c, 11, 62, 92
10, 17086, Note_on_c, 11, 62, 0
10, 17088, Note_on_c, 11, 54, 92
10, 17182, Note_on_c, 11, 54, 0
10, 17184, Note_on_c, 11, 54, 92
10, 17278, Note_on_c, 11, 54, 0
10, 17280, Note_on_c, 11, 55, 92
10, 17374, Note_on_c, 11, 55, 0
10, 17376, Note_on_c, 11, 55, 92
10, 17470, Note_on_c, 11, 55, 0
10, 17472, Note_on_c, 11, 57, 92
10, 17566, Note_on_c, 11, 57, 0
10, 17568, Note_on_c, 11, 57, 92
10, 17662, Note_on_c, 11, 57, 0
10, 17664, Note_on_c, 11, 59, 92
10, 17758, Note_on_c, 11, 59, 0
10, 17760, Note_on_c, 11, 59, 92
10, 17854, Note_on_c, 11, 59, 0
10, 17856, Note_on_c, 11, 54, 92
10, 17950, Note_on_c, 11, 54, 0
10, 17952, Note_on_c, 11, 54, 92
10, 18046, Note_on_c, 11, 54, 0
10, 18048, Note_on_c, 11, 55, 92
10, 18142, Note_on_c, 11, 55, 0
10, 18144, Note_on_c, 11, 55, 92
10, 18238, Note_on_c, 11, 55, 0
10, 18240, Note_on_c, 11, 57, 92
10, 18334, Note_on_c, 11, 57, 0
10, 18336, Note_on_c, 11, 57, 92
10, 18430, Note_on_c, 11, 57, 0
10, 18432, Note_on_c, 11, 50, 92
10, 18526, Note_on_c, 11, 50, 0
10, 18528, Note_on_c, 11, 50, 92
10, 18560, Note_on_c, 11, 50, 0
10, 18576, Note_on_c, 11, 52, 92
10, 18608, Note_on_c, 11, 52, 0
10, 18624, Note_on_c, 11, 54, 92
10, 18672, Note_on_c, 11, 54, 0
10, 18672, Note_on_c, 11, 52, 92
10, 18718, Note_on_c, 11, 52, 0
10, 18720, Note_on_c, 11, 54, 92
10, 18752, Note_on_c, 11, 54, 0
10, 18768, Note_on_c, 11, 55, 92
10, 18800, Note_on_c, 11, 55, 0
10, 18816, Note_on_c, 11, 57, 92
10, 18976, Note_on_c, 11, 57, 0
10, 19296, Note_on_c, 11, 50, 92
10, 19328, Note_on_c, 11, 50, 0
10, 19344, Note_on_c, 11, 52, 92
10, 19376, Note_on_c, 11, 52, 0
10, 19392, Note_on_c, 11, 54, 92
10, 19440, Note_on_c, 11, 54, 0
10, 19440, Note_on_c, 11, 52, 92
10, 19486, Note_on_c, 11, 52, 0
10, 19488, Note_on_c, 11, 54, 92
10, 19520, Note_on_c, 11, 54, 0
10, 19536, Note_on_c, 11, 55, 92
10, 19568, Note_on_c, 11, 55, 0
10, 19584, Note_on_c, 11, 57, 92
10, 19744, Note_on_c, 11, 57, 0
10, 19968, Note_on_c, 11, 50, 92
10, 20000, Note_on_c, 11, 50, 0
10, 20064, Note_on_c, 11, 54, 92
10, 20096, Note_on_c, 11, 54, 0
10, 20160, Note_on_c, 11, 55, 92
10, 20192, Note_on_c, 11, 55, 0
10, 20256, Note_on_c, 11, 52, 92
10, 20288, Note_on_c, 11, 52, 0
10, 20352, Note_on_c, 11, 50, 92
10, 20384, Note_on_c, 11, 50, 0
10, 20448, Note_on_c, 11, 54, 92
10, 20480, Note_on_c, 11, 54, 0
10, 20544, Note_on_c, 11, 55, 92
10, 20576, Note_on_c, 11, 55, 0
10, 20640, Note_on_c, 11, 52, 92
10, 20672, Note_on_c, 11, 52, 0
10, 20736, Note_on_c, 11, 50, 92
10, 20896, Note_on_c, 11, 50, 0
10, 20928, Note_on_c, 11, 62, 92
10, 21088, Note_on_c, 11, 62, 0
10, 21120, Note_on_c, 11, 50, 92
10, 21280, Note_on_c, 11, 50, 0
10, 28128, Note_on_c, 11, 50, 45
10, 28160, Note_on_c, 11, 50, 0
10, 28224, Note_on_c, 11, 62, 45
10, 28256, Note_on_c, 11, 62, 0
10, 28320, Note_on_c, 11, 54, 45
10, 28352, Note_on_c, 11, 54, 0
10, 28416, Note_on_c, 11, 57, 45
10, 28576, Note_on_c, 11, 57, 0
10, 29664, Note_on_c, 11, 50, 45
10, 29696, Note_on_c, 11, 50, 0
10, 29760, Note_on_c, 11, 62, 45
10, 29792, Note_on_c, 11, 62, 0
10, 29856, Note_on_c, 11, 54, 45
10, 29888, Note_on_c, 11, 54, 0
10, 29952, Note_on_c, 11, 57, 45
10, 30112, Note_on_c, 11, 57, 0
10, 34464, Note_on_c, 11, 52, 92
10, 34558, Note_on_c, 11, 52, 0
10, 34560, Note_on_c, 11, 64, 92
10, 34608, Note_on_c, 11, 64, 0
10, 34608, Note_on_c, 11, 63, 92
10, 34654, Note_on_c, 11, 63, 0
10, 34656, Note_on_c, 11, 64, 92
10, 34704, Note_on_c, 11, 64, 0
10, 34704, Note_on_c, 11, 63, 92
10, 34750, Note_on_c, 11, 63, 0
10, 34752, Note_on_c, 11, 64, 92
10, 34846, Note_on_c, 11, 64, 0
10, 34944, Note_on_c, 11, 52, 45
10, 35038, Note_on_c, 11, 52, 0
10, 35136, Note_on_c, 11, 56, 45
10, 35230, Note_on_c, 11, 56, 0
10, 35328, Note_on_c, 11, 59, 45
10, 35422, Note_on_c, 11, 59, 0
10, 35712, Note_on_c, 11, 57, 45
10, 35806, Note_on_c, 11, 57, 0
10, 35904, Note_on_c, 11, 61, 45
10, 35998, Note_on_c, 11, 61, 0
10, 36096, Note_on_c, 11, 64, 45
10, 36190, Note_on_c, 11, 64, 0
10, 36480, Note_on_c, 11, 52, 45
10, 36574, Note_on_c, 11, 52, 0
10, 36672, Note_on_c, 11, 56, 45
10, 36766, Note_on_c, 11, 56, 0
10, 36864, Note_on_c, 11, 59, 45
10, 36958, Note_on_c, 11, 59, 0
10, 37248, Note_on_c, 11, 57, 45
10, 37342, Note_on_c, 11, 57, 0
10, 37440, Note_on_c, 11, 61, 45
10, 37534, Note_on_c, 11, 61, 0
10, 37632, Note_on_c, 11, 64, 45
10, 37726, Note_on_c, 11, 64, 0
10, 44160, Note_on_c, 11, 57, 45
10, 44254, Note_on_c, 11, 57, 0
10, 44352, Note_on_c, 11, 49, 45
10, 44446, Note_on_c, 11, 49, 0
10, 44544, Note_on_c, 11, 50, 45
10, 44638, Note_on_c, 11, 50, 0
10, 44736, Note_on_c, 11, 52, 45
10, 44830, Note_on_c, 11, 52, 0
10, 44928, Note_on_c, 11, 54, 45
10, 45022, Note_on_c, 11, 54, 0
10, 45120, Note_on_c, 11, 49, 45
10, 45214, Note_on_c, 11, 49, 0
10, 45312, Note_on_c, 11, 50, 45
10, 45406, Note_on_c, 11, 50, 0
10, 45504, Note_on_c, 11, 52, 45
10, 45598, Note_on_c, 11, 52, 0
10, 45696, Note_on_c, 11, 45, 45
10, 45790, Note_on_c, 11, 45, 0
10, 45792, Note_on_c, 11, 57, 92
10, 45838, Note_on_c, 11, 57, 0
10, 45840, Note_on_c, 11, 59, 92
10, 45886, Note_on_c, 11, 59, 0
10, 45888, Note_on_c, 11, 61, 92
10, 45936, Note_on_c, 11, 61, 0
10, 45936, Note_on_c, 11, 59, 92
10, 45982, Note_on_c, 11, 59, 0
10, 45984, Note_on_c, 11, 61, 92
10, 46016, Note_on_c, 11, 61, 0
10, 46032, Note_on_c, 11, 62, 92
10, 46064, Note_on_c, 11, 62, 0
10, 46080, Note_on_c, 11, 64, 92
10, 46240, Note_on_c, 11, 64, 0
10, 46560, Note_on_c, 11, 57, 92
10, 46606, Note_on_c, 11, 57, 0
10, 46608, Note_on_c, 11, 59, 92
10, 46654, Note_on_c, 11, 59, 0
10, 46656, Note_on_c, 11, 61, 92
10, 46704, Note_on_c, 11, 61, 0
10, 46704, Note_on_c, 11, 59, 92
10, 46750, Note_on_c, 11, 59, 0
10, 46752, Note_on_c, 11, 61, 92
10, 46784, Note_on_c, 11, 61, 0
10, 46800, Note_on_c, 11, 62, 92
10, 46832, Note_on_c, 11, 62, 0
10, 46848, Note_on_c, 11, 64, 92
10, 47008, Note_on_c, 11, 64, 0
10, 47232, Note_on_c, 11, 57, 92
10, 47392, Note_on_c, 11, 57, 0
10, 54336, Note_on_c, 11, 62, 92
10, 54430, Note_on_c, 11, 62, 0
10, 54528, Note_on_c, 11, 57, 92
10, 54622, Note_on_c, 11, 57, 0
10, 54720, Note_on_c, 11, 50, 92
10, 54814, Note_on_c, 11, 50, 0
10, 54912, Note_on_c, 11, 50, 92
10, 55006, Note_on_c, 11, 50, 0
10, 55008, Note_on_c, 11, 50, 92
10, 55102, Note_on_c, 11, 50, 0
10, 55104, Note_on_c, 11, 50, 92
10, 55198, Note_on_c, 11, 50, 0
10, 55200, Note_on_c, 11, 50, 92
10, 55294, Note_on_c, 11, 50, 0
10, 55296, Note_on_c, 11, 50, 92
10, 55390, Note_on_c, 11, 50, 0
10, 55392, Note_on_c, 11, 50, 92
10, 55486, Note_on_c, 11, 50, 0
10, 55488, Note_on_c, 11, 50, 92
10, 55648, Note_on_c, 11, 50, 0
10, 55776, Note_on_c, 11, 62, 92
10, 55870, Note_on_c, 11, 62, 0
10, 55872, Note_on_c, 11, 61, 92
10, 56128, Note_on_c, 11, 61, 0
10, 56160, Note_on_c, 11, 62, 92
10, 56254, Note_on_c, 11, 62, 0
10, 56256, Note_on_c, 11, 57, 92
10, 56416, Note_on_c, 11, 57, 0
10, 56640, Note_on_c, 11, 50, 92
10, 56734, Note_on_c, 11, 50, 0
10, 56832, Note_on_c, 11, 57, 92
10, 56926, Note_on_c, 11, 57, 0
10, 57024, Note_on_c, 11, 62, 92
10, 57118, Note_on_c, 11, 62, 0
10, 57216, Note_on_c, 11, 50, 92
10, 57248, Note_on_c, 11, 50, 0
10, 57312, Note_on_c, 11, 52, 92
10, 57344, Note_on_c, 11, 52, 0
10, 57408, Note_on_c, 11, 54, 92
10, 57440, Note_on_c, 11, 54, 0
10, 57504, Note_on_c, 11, 55, 92
10, 57536, Note_on_c, 11, 55, 0
10, 57600, Note_on_c, 11, 57, 92
10, 57632, Note_on_c, 11, 57, 0
10, 57696, Note_on_c, 11, 55, 92
10, 57728, Note_on_c, 11, 55, 0
10, 57792, Note_on_c, 11, 54, 92
10, 57952, Note_on_c, 11, 54, 0
10, 58080, Note_on_c, 11, 54, 92
10, 58174, Note_on_c, 11, 54, 0
10, 58176, Note_on_c, 11, 55, 92
10, 58336, Note_on_c, 11, 55, 0
10, 58368, Note_on_c, 11, 57, 92
10, 58462, Note_on_c, 11, 57, 0
10, 58464, Note_on_c, 11, 45, 92
10, 58558, Note_on_c, 11, 45, 0
10, 58560, Note_on_c, 11, 50, 92
10, 58720, Note_on_c, 11, 50, 0
10, 58848, Note_on_c, 11, 54, 92
10, 58880, Note_on_c, 11, 54, 0
10, 58896, Note_on_c, 11, 52, 92
10, 58928, Note_on_c, 11, 52, 0
10, 58944, Note_on_c, 11, 50, 92
10, 59038, Note_on_c, 11, 50, 0
10, 59232, Note_on_c, 11, 54, 92
10, 59264, Note_on_c, 11, 54, 0
10, 59280, Note_on_c, 11, 52, 92
10, 59312, Note_on_c, 11, 52, 0
10, 59328, Note_on_c, 11, 50, 92
10, 59422, Note_on_c, 11, 50, 0
10, 59616, Note_on_c, 11, 57, 92
10, 59648, Note_on_c, 11, 57, 0
10, 59664, Note_on_c, 11, 55, 92
10, 59696, Note_on_c, 11, 55, 0
10, 59712, Note_on_c, 11, 54, 92
10, 59806, Note_on_c, 11, 54, 0
10, 60000, Note_on_c, 11, 57, 92
10, 60032, Note_on_c, 11, 57, 0
10, 60048, Note_on_c, 11, 55, 92
10, 60080, Note_on_c, 11, 55, 0
10, 60096, Note_on_c, 11, 54, 92
10, 60190, Note_on_c, 11, 54, 0
10, 61056, Note_on_c, 11, 66, 45
10, 61248, Note_on_c, 11, 66, 0
10, 61248, Note_on_c, 11, 67, 45
10, 61408, Note_on_c, 11, 67, 0
10, 61824, Note_on_c, 11, 66, 45
10, 62016, Note_on_c, 11, 66, 0
10, 62016, Note_on_c, 11, 67, 45
10, 62176, Note_on_c, 11, 67, 0
10, 62592, Note_on_c, 11, 54, 45
10, 62784, Note_on_c, 11, 54, 0
10, 62784, Note_on_c, 11, 55, 45
10, 62944, Note_on_c, 11, 55, 0
10, 62976, Note_on_c, 11, 64, 45
10, 63136, Note_on_c, 11, 64, 0
10, 63168, Note_on_c, 11, 62, 45
10, 63504, Note_on_c, 11, 62, 0
10, 63552, Note_on_c, 11, 50, 45
10, 63888, Note_on_c, 11, 50, 0
10, 64128, Note_on_c, 11, 66, 45
10, 64320, Note_on_c, 11, 66, 0
10, 64320, Note_on_c, 11, 67, 45
10, 64480, Note_on_c, 11, 67, 0
10, 64896, Note_on_c, 11, 66, 45
10, 65088, Note_on_c, 11, 66, 0
10, 65088, Note_on_c, 11, 67, 45
10, 65248, Note_on_c, 11, 67, 0
10, 65664, Note_on_c, 11, 66, 45
10, 65856, Note_on_c, 11, 66, 0
10, 65856, Note_on_c, 11, 67, 45
10, 66016, Note_on_c, 11, 67, 0
10, 66048, Note_on_c, 11, 62, 45
10, 66208, Note_on_c, 11, 62, 0
10, 66240, Note_on_c, 11, 55, 45
10, 66400, Note_on_c, 11, 55, 0
10, 71136, Note_on_c, 11, 45, 92
10, 71230, Note_on_c, 11, 45, 0
10, 71232, Note_on_c, 11, 57, 92
10, 71280, Note_on_c, 11, 57, 0
10, 71280, Note_on_c, 11, 56, 92
10, 71328, Note_on_c, 11, 56, 0
10, 71328, Note_on_c, 11, 57, 92
10, 71376, Note_on_c, 11, 57, 0
10, 71376, Note_on_c, 11, 56, 92
10, 71422, Note_on_c, 11, 56, 0
10, 71424, Note_on_c, 11, 57, 92
10, 71518, Note_on_c, 11, 57, 0
10, 71616, Note_on_c, 11, 57, 45
10, 71710, Note_on_c, 11, 57, 0
10, 71808, Note_on_c, 11, 61, 45
10, 71902, Note_on_c, 11, 61, 0
10, 72000, Note_on_c, 11, 64, 45
10, 72094, Note_on_c, 11, 64, 0
10, 72384, Note_on_c, 11, 62, 45
10, 72478, Note_on_c, 11, 62, 0
10, 72576, Note_on_c, 11, 57, 45
10, 72670, Note_on_c, 11, 57, 0
10, 72768, Note_on_c, 11, 54, 45
10, 72862, Note_on_c, 11, 54, 0
10, 72960, Note_on_c, 11, 50, 45
10, 73054, Note_on_c, 11, 50, 0
10, 73152, Note_on_c, 11, 57, 45
10, 73246, Note_on_c, 11, 57, 0
10, 73344, Note_on_c, 11, 61, 45
10, 73438, Note_on_c, 11, 61, 0
10, 73536, Note_on_c, 11, 64, 45
10, 73630, Note_on_c, 11, 64, 0
10, 73920, Note_on_c, 11, 62, 45
10, 74014, Note_on_c, 11, 62, 0
10, 74112, Note_on_c, 11, 57, 45
10, 74206, Note_on_c, 11, 57, 0
10, 74304, Note_on_c, 11, 54, 45
10, 74398, Note_on_c, 11, 54, 0
10, 74496, Note_on_c, 11, 50, 45
10, 74590, Note_on_c, 11, 50, 0
10, 82080, Note_on_c, 11, 50, 45
10, 82112, Note_on_c, 11, 50, 0
10, 82176, Note_on_c, 11, 62, 45
10, 82208, Note_on_c, 11, 62, 0
10, 82272, Note_on_c, 11, 54, 45
10, 82304, Note_on_c, 11, 54, 0
10, 82368, Note_on_c, 11, 57, 45
10, 82528, Note_on_c, 11, 57, 0
10, 83616, Note_on_c, 11, 50, 45
10, 83648, Note_on_c, 11, 50, 0
10, 83712, Note_on_c, 11, 62, 45
10, 83744, Note_on_c, 11, 62, 0
10, 83808, Note_on_c, 11, 54, 45
10, 83840, Note_on_c, 11, 54, 0
10, 83904, Note_on_c, 11, 57, 45
10, 84064, Note_on_c, 11, 57, 0
10, 84192, Note_on_c, 11, 61, 92
10, 84224, Note_on_c, 11, 61, 0
10, 84240, Note_on_c, 11, 59, 92
10, 84272, Note_on_c, 11, 59, 0
10, 84288, Note_on_c, 11, 57, 92
10, 84382, Note_on_c, 11, 57, 0
10, 84576, Note_on_c, 11, 61, 92
10, 84608, Note_on_c, 11, 61, 0
10, 84624, Note_on_c, 11, 59, 92
10, 84656, Note_on_c, 11, 59, 0
10, 84672, Note_on_c, 11, 57, 92
10, 84766, Note_on_c, 11, 57, 0
10, 84960, Note_on_c, 11, 64, 92
10, 84992, Note_on_c, 11, 64, 0
10, 85008, Note_on_c, 11, 62, 92
10, 85040, Note_on_c, 11, 62, 0
10, 85056, Note_on_c, 11, 61, 92
10, 85150, Note_on_c, 11, 61, 0
10, 85344, Note_on_c, 11, 64, 92
10, 85376, Note_on_c, 11, 64, 0
10, 85392, Note_on_c, 11, 62, 92
10, 85424, Note_on_c, 11, 62, 0
10, 85440, Note_on_c, 11, 61, 92
10, 85534, Note_on_c, 11, 61, 0
10, 91296, Note_on_c, 11, 50, 92
10, 91390, Note_on_c, 11, 50, 0
10, 91392, Note_on_c, 11, 54, 92
10, 91486, Note_on_c, 11, 54, 0
10, 91488, Note_on_c, 11, 54, 92
10, 91582, Note_on_c, 11, 54, 0
10, 91584, Note_on_c, 11, 55, 92
10, 91678, Note_on_c, 11, 55, 0
10, 91680, Note_on_c, 11, 55, 92
10, 91774, Note_on_c, 11, 55, 0
10, 91776, Note_on_c, 11, 57, 92
10, 91870, Note_on_c, 11, 57, 0
10, 91872, Note_on_c, 11, 57, 92
10, 91966, Note_on_c, 11, 57, 0
10, 91968, Note_on_c, 11, 59, 92
10, 92062, Note_on_c, 11, 59, 0
10, 92064, Note_on_c, 11, 59, 92
10, 92158, Note_on_c, 11, 59, 0
10, 92160, Note_on_c, 11, 54, 92
10, 92254, Note_on_c, 11, 54, 0
10, 92256, Note_on_c, 11, 54, 92
10, 92350, Note_on_c, 11, 54, 0
10, 92352, Note_on_c, 11, 55, 92
10, 92446, Note_on_c, 11, 55, 0
10, 92448, Note_on_c, 11, 55, 92
10, 92542, Note_on_c, 11, 55, 0
10, 92544, Note_on_c, 11, 57, 92
10, 92638, Note_on_c, 11, 57, 0
10, 92640, Note_on_c, 11, 57, 92
10, 92734, Note_on_c, 11, 57, 0
10, 92736, Note_on_c, 11, 50, 92
10, 92896, Note_on_c, 11, 50, 0
10, 93120, Note_on_c, 11, 50, 45
10, 93214, Note_on_c, 11, 50, 0
10, 93312, Note_on_c, 11, 52, 45
10, 93406, Note_on_c, 11, 52, 0
10, 93504, Note_on_c, 11, 57, 45
10, 93760, Note_on_c, 11, 57, 0
10, 93792, Note_on_c, 11, 52, 45
10, 93886, Note_on_c, 11, 52, 0
10, 93888, Note_on_c, 11, 57, 45
10, 93982, Note_on_c, 11, 57, 0
10, 93984, Note_on_c, 11, 52, 45
10, 94078, Note_on_c, 11, 52, 0
10, 94080, Note_on_c, 11, 57, 45
10, 94174, Note_on_c, 11, 57, 0
10, 94176, Note_on_c, 11, 52, 45
10, 94270, Note_on_c, 11, 52, 0
10, 94272, Note_on_c, 11, 57, 45
10, 94432, Note_on_c, 11, 57, 0
10, 94656, Note_on_c, 11, 55, 45
10, 94750, Note_on_c, 11, 55, 0
10, 94848, Note_on_c, 11, 57, 45
10, 94942, Note_on_c, 11, 57, 0
10, 95040, Note_on_c, 11, 50, 45
10, 95296, Note_on_c, 11, 50, 0
10, 95328, Note_on_c, 11, 57, 45
10, 95422, Note_on_c, 11, 57, 0
10, 95424, Note_on_c, 11, 50, 45
10, 95518, Note_on_c, 11, 50, 0
10, 95520, Note_on_c, 11, 57, 45
10, 95614, Note_on_c, 11, 57, 0
10, 95616, Note_on_c, 11, 50, 45
10, 95710, Note_on_c, 11, 50, 0
10, 95712, Note_on_c, 11, 57, 45
10, 95806, Note_on_c, 11, 57, 0
10, 95808, Note_on_c, 11, 50, 92
10, 95968, Note_on_c, 11, 50, 0
10, 96096, Note_on_c, 11, 66, 92
10, 96128, Note_on_c, 11, 66, 0
10, 96144, Note_on_c, 11, 64, 92
10, 96176, Note_on_c, 11, 64, 0
10, 96192, Note_on_c, 11, 62, 92
10, 96286, Note_on_c, 11, 62, 0
10, 96480, Note_on_c, 11, 62, 92
10, 96512, Note_on_c, 11, 62, 0
10, 96528, Note_on_c, 11, 61, 92
10, 96560, Note_on_c, 11, 61, 0
10, 96576, Note_on_c, 11, 59, 92
10, 96670, Note_on_c, 11, 59, 0
10, 96864, Note_on_c, 11, 62, 92
10, 96896, Note_on_c, 11, 62, 0
10, 96912, Note_on_c, 11, 61, 92
10, 96944, Note_on_c, 11, 61, 0
10, 96960, Note_on_c, 11, 59, 92
10, 97054, Note_on_c, 11, 59, 0
10, 97248, Note_on_c, 11, 59, 92
10, 97280, Note_on_c, 11, 59, 0
10, 97296, Note_on_c, 11, 57, 92
10, 97328, Note_on_c, 11, 57, 0
10, 97344, Note_on_c, 11, 56, 92
10, 97504, Note_on_c, 11, 56, 0
10, 97824, Note_on_c, 11, 62, 92
10, 97856, Note_on_c, 11, 62, 0
10, 97920, Note_on_c, 11, 66, 92
10, 97952, Note_on_c, 11, 66, 0
10, 98016, Note_on_c, 11, 56, 92
10, 98048, Note_on_c, 11, 56, 0
10, 98112, Note_on_c, 11, 57, 92
10, 98272, Note_on_c, 11, 57, 0
10, 111264, Note_on_c, 11, 50, 45
10, 111358, Note_on_c, 11, 50, 0
10, 111360, Note_on_c, 11, 50, 45
10, 111454, Note_on_c, 11, 50, 0
10, 111456, Note_on_c, 11, 50, 45
10, 111550, Note_on_c, 11, 50, 0
10, 111648, Note_on_c, 11, 50, 45
10, 111742, Note_on_c, 11, 50, 0
10, 111744, Note_on_c, 11, 50, 45
10, 111838, Note_on_c, 11, 50, 0
10, 111840, Note_on_c, 11, 50, 45
10, 111934, Note_on_c, 11, 50, 0
10, 112032, Note_on_c, 11, 50, 45
10, 112126, Note_on_c, 11, 50, 0
10, 112128, Note_on_c, 11, 50, 45
10, 112222, Note_on_c, 11, 50, 0
10, 112224, Note_on_c, 11, 50, 45
10, 112318, Note_on_c, 11, 50, 0
10, 112320, Note_on_c, 11, 50, 45
10, 112798, Note_on_c, 11, 50, 0
10, 115776, Note_on_c, 11, 62, 92
10, 115870, Note_on_c, 11, 62, 0
10, 115968, Note_on_c, 11, 57, 92
10, 116062, Note_on_c, 11, 57, 0
10, 116160, Note_on_c, 11, 50, 92
10, 116254, Note_on_c, 11, 50, 0
10, 116352, Note_on_c, 11, 50, 92
10, 116446, Note_on_c, 11, 50, 0
10, 116448, Note_on_c, 11, 50, 92
10, 116542, Note_on_c, 11, 50, 0
10, 116544, Note_on_c, 11, 50, 92
10, 116638, Note_on_c, 11, 50, 0
10, 116640, Note_on_c, 11, 50, 92
10, 116734, Note_on_c, 11, 50, 0
10, 116736, Note_on_c, 11, 50, 92
10, 116830, Note_on_c, 11, 50, 0
10, 116832, Note_on_c, 11, 50, 92
10, 116926, Note_on_c, 11, 50, 0
10, 116928, Note_on_c, 11, 50, 92
10, 117088, Note_on_c, 11, 50, 0
10, 117120, Note_on_c, 11, 50, 45
10, 117214, Note_on_c, 11, 50, 0
10, 117216, Note_on_c, 11, 50, 45
10, 117310, Note_on_c, 11, 50, 0
10, 117312, Note_on_c, 11, 50, 45
10, 117406, Note_on_c, 11, 50, 0
10, 117408, Note_on_c, 11, 50, 45
10, 117502, Note_on_c, 11, 50, 0
10, 117504, Note_on_c, 11, 50, 45
10, 117598, Note_on_c, 11, 50, 0
10, 117600, Note_on_c, 11, 50, 45
10, 117694, Note_on_c, 11, 50, 0
10, 117696, Note_on_c, 11, 50, 45
10, 117856, Note_on_c, 11, 50, 0
10, 117888, Note_on_c, 11, 54, 92
10, 117982, Note_on_c, 11, 54, 0
10, 117984, Note_on_c, 11, 54, 92
10, 118078, Note_on_c, 11, 54, 0
10, 118080, Note_on_c, 11, 55, 92
10, 118174, Note_on_c, 11, 55, 0
10, 118176, Note_on_c, 11, 55, 92
10, 118270, Note_on_c, 11, 55, 0
10, 118272, Note_on_c, 11, 57, 92
10, 118366, Note_on_c, 11, 57, 0
10, 118368, Note_on_c, 11, 45, 92
10, 118462, Note_on_c, 11, 45, 0
10, 118464, Note_on_c, 11, 50, 92
10, 118624, Note_on_c, 11, 50, 0
10, 118848, Note_on_c, 11, 50, 45
10, 118942, Note_on_c, 11, 50, 0
10, 119040, Note_on_c, 11, 52, 45
10, 119134, Note_on_c, 11, 52, 0
10, 119232, Note_on_c, 11, 57, 45
10, 119488, Note_on_c, 11, 57, 0
10, 119520, Note_on_c, 11, 52, 45
10, 119614, Note_on_c, 11, 52, 0
10, 119616, Note_on_c, 11, 57, 45
10, 119710, Note_on_c, 11, 57, 0
10, 119712, Note_on_c, 11, 52, 45
10, 119806, Note_on_c, 11, 52, 0
10, 119808, Note_on_c, 11, 57, 45
10, 119902, Note_on_c, 11, 57, 0
10, 119904, Note_on_c, 11, 52, 45
10, 119998, Note_on_c, 11, 52, 0
10, 120000, Note_on_c, 11, 57, 45
10, 120160, Note_on_c, 11, 57, 0
10, 120384, Note_on_c, 11, 55, 45
10, 120478, Note_on_c, 11, 55, 0
10, 120576, Note_on_c, 11, 57, 45
10, 120670, Note_on_c, 11, 57, 0
10, 120768, Note_on_c, 11, 50, 45
10, 121024, Note_on_c, 11, 50, 0
10, 121056, Note_on_c, 11, 57, 45
10, 121150, Note_on_c, 11, 57, 0
10, 121152, Note_on_c, 11, 50, 45
10, 121246, Note_on_c, 11, 50, 0
10, 121248, Note_on_c, 11, 57, 45
10, 121342, Note_on_c, 11, 57, 0
10, 121344, Note_on_c, 11, 50, 45
10, 121438, Note_on_c, 11, 50, 0
10, 121440, Note_on_c, 11, 57, 45
10, 121534, Note_on_c, 11, 57, 0
10, 121536, Note_on_c, 11, 50, 45
10, 121630, Note_on_c, 11, 50, 0
10, 121632, Note_on_c, 11, 50, 92
10, 121664, Note_on_c, 11, 50, 0
10, 121680, Note_on_c, 11, 52, 92
10, 121712, Note_on_c, 11, 52, 0
10, 121728, Note_on_c, 11, 54, 92
10, 121776, Note_on_c, 11, 54, 0
10, 121776, Note_on_c, 11, 52, 92
10, 121822, Note_on_c, 11, 52, 0
10, 121824, Note_on_c, 11, 54, 92
10, 121856, Note_on_c, 11, 54, 0
10, 121872, Note_on_c, 11, 55, 92
10, 121904, Note_on_c, 11, 55, 0
10, 121920, Note_on_c, 11, 57, 92
10, 122080, Note_on_c, 11, 57, 0
10, 122400, Note_on_c, 11, 50, 92
10, 122432, Note_on_c, 11, 50, 0
10, 122448, Note_on_c, 11, 52, 92
10, 122480, Note_on_c, 11, 52, 0
10, 122496, Note_on_c, 11, 54, 92
10, 122544, Note_on_c, 11, 54, 0
10, 122544, Note_on_c, 11, 52, 92
10, 122590, Note_on_c, 11, 52, 0
10, 122592, Note_on_c, 11, 54, 92
10, 122624, Note_on_c, 11, 54, 0
10, 122640, Note_on_c, 11, 55, 92
10, 122672, Note_on_c, 11, 55, 0
10, 122688, Note_on_c, 11, 57, 92
10, 122848, Note_on_c, 11, 57, 0
10, 123072, Note_on_c, 11, 50, 92
10, 123104, Note_on_c, 11, 50, 0
10, 123168, Note_on_c, 11, 54, 92
10, 123200, Note_on_c, 11, 54, 0
10, 123264, Note_on_c, 11, 55, 92
10, 123296, Note_on_c, 11, 55, 0
10, 123360, Note_on_c, 11, 52, 92
10, 123392, Note_on_c, 11, 52, 0
10, 123456, Note_on_c, 11, 50, 92
10, 123488, Note_on_c, 11, 50, 0
10, 123552, Note_on_c, 11, 54, 92
10, 123584, Note_on_c, 11, 54, 0
10, 123648, Note_on_c, 11, 55, 92
10, 123680, Note_on_c, 11, 55, 0
10, 123744, Note_on_c, 11, 52, 92
10, 123776, Note_on_c, 11, 52, 0
10, 123840, Note_on_c, 11, 50, 92
10, 124000, Note_on_c, 11, 50, 0
10, 124032, Note_on_c, 11, 62, 92
10, 124192, Note_on_c, 11, 62, 0
10, 124224, Note_on_c, 11, 50, 92
10, 124480, Note_on_c, 11, 50, 0
10, 124480, End_track
11, 0, Start_track
11, 0, MIDI_port, 0
11, 0, Title_t, "Staff-1"
11, 0, Program_c, 12, 43
11, 0, Control_c, 12, 7, 127
11, 0, Control_c, 12, 10, 64
11, 4992, Note_on_c, 12, 50, 92
11, 5086, Note_on_c, 12, 50, 0
11, 5184, Note_on_c, 12, 45, 92
11, 5278, Note_on_c, 12, 45, 0
11, 5376, Note_on_c, 12, 38, 92
11, 5470, Note_on_c, 12, 38, 0
11, 5568, Note_on_c, 12, 38, 92
11, 5662, Note_on_c, 12, 38, 0
11, 5664, Note_on_c, 12, 38, 92
11, 5758, Note_on_c, 12, 38, 0
11, 5760, Note_on_c, 12, 38, 92
11, 5854, Note_on_c, 12, 38, 0
11, 5856, Note_on_c, 12, 38, 92
11, 5950, Note_on_c, 12, 38, 0
11, 5952, Note_on_c, 12, 38, 92
11, 6046, Note_on_c, 12, 38, 0
11, 6048, Note_on_c, 12, 38, 92
11, 6142, Note_on_c, 12, 38, 0
11, 6144, Note_on_c, 12, 38, 92
11, 6304, Note_on_c, 12, 38, 0
11, 6432, Note_on_c, 12, 50, 92
11, 6526, Note_on_c, 12, 50, 0
11, 6528, Note_on_c, 12, 49, 92
11, 6784, Note_on_c, 12, 49, 0
11, 6816, Note_on_c, 12, 50, 92
11, 6910, Note_on_c, 12, 50, 0
11, 6912, Note_on_c, 12, 45, 92
11, 7072, Note_on_c, 12, 45, 0
11, 7296, Note_on_c, 12, 50, 92
11, 7390, Note_on_c, 12, 50, 0
11, 7488, Note_on_c, 12, 45, 92
11, 7582, Note_on_c, 12, 45, 0
11, 7680, Note_on_c, 12, 38, 92
11, 7774, Note_on_c, 12, 38, 0
11, 7872, Note_on_c, 12, 38, 92
11, 7966, Note_on_c, 12, 38, 0
11, 7968, Note_on_c, 12, 38, 92
11, 8062, Note_on_c, 12, 38, 0
11, 8064, Note_on_c, 12, 38, 92
11, 8158, Note_on_c, 12, 38, 0
11, 8160, Note_on_c, 12, 38, 92
11, 8254, Note_on_c, 12, 38, 0
11, 8256, Note_on_c, 12, 38, 92
11, 8350, Note_on_c, 12, 38, 0
11, 8352, Note_on_c, 12, 38, 92
11, 8446, Note_on_c, 12, 38, 0
11, 8448, Note_on_c, 12, 38, 92
11, 8608, Note_on_c, 12, 38, 0
11, 8736, Note_on_c, 12, 50, 92
11, 8830, Note_on_c, 12, 50, 0
11, 8832, Note_on_c, 12, 43, 92
11, 8992, Note_on_c, 12, 43, 0
11, 9024, Note_on_c, 12, 45, 92
11, 9118, Note_on_c, 12, 45, 0
11, 9120, Note_on_c, 12, 33, 92
11, 9214, Note_on_c, 12, 33, 0
11, 9216, Note_on_c, 12, 38, 92
11, 9376, Note_on_c, 12, 38, 0
11, 10464, Note_on_c, 12, 38, 45
11, 10496, Note_on_c, 12, 38, 0
11, 10560, Note_on_c, 12, 50, 45
11, 10592, Note_on_c, 12, 50, 0
11, 10656, Note_on_c, 12, 42, 45
11, 10688, Note_on_c, 12, 42, 0
11, 10752, Note_on_c, 12, 45, 45
11, 10912, Note_on_c, 12, 45, 0
11, 12000, Note_on_c, 12, 38, 45
11, 12032, Note_on_c, 12, 38, 0
11, 12096, Note_on_c, 12, 50, 45
11, 12128, Note_on_c, 12, 50, 0
11, 12192, Note_on_c, 12, 42, 45
11, 12224, Note_on_c, 12, 42, 0
11, 12288, Note_on_c, 12, 45, 45
11, 12448, Note_on_c, 12, 45, 0
11, 12576, Note_on_c, 12, 49, 92
11, 12608, Note_on_c, 12, 49, 0
11, 12624, Note_on_c, 12, 47, 92
11, 12656, Note_on_c, 12, 47, 0
11, 12672, Note_on_c, 12, 45, 92
11, 12766, Note_on_c, 12, 45, 0
11, 12960, Note_on_c, 12, 49, 92
11, 12992, Note_on_c, 12, 49, 0
11, 13008, Note_on_c, 12, 47, 92
11, 13040, Note_on_c, 12, 47, 0
11, 13056, Note_on_c, 12, 45, 92
11, 13150, Note_on_c, 12, 45, 0
11, 13344, Note_on_c, 12, 52, 92
11, 13376, Note_on_c, 12, 52, 0
11, 13392, Note_on_c, 12, 50, 92
11, 13424, Note_on_c, 12, 50, 0
11, 13440, Note_on_c, 12, 49, 92
11, 13534, Note_on_c, 12, 49, 0
11, 13728, Note_on_c, 12, 52, 92
11, 13760, Note_on_c, 12, 52, 0
11, 13776, Note_on_c, 12, 50, 92
11, 13808, Note_on_c, 12, 50, 0
11, 13824, Note_on_c, 12, 49, 92
11, 13918, Note_on_c, 12, 49, 0
11, 14784, Note_on_c, 12, 49, 45
11, 14976, Note_on_c, 12, 49, 0
11, 14976, Note_on_c, 12, 50, 45
11, 15136, Note_on_c, 12, 50, 0
11, 15552, Note_on_c, 12, 49, 45
11, 15744, Note_on_c, 12, 49, 0
11, 15744, Note_on_c, 12, 50, 45
11, 15904, Note_on_c, 12, 50, 0
11, 16320, Note_on_c, 12, 49, 45
11, 16512, Note_on_c, 12, 49, 0
11, 16512, Note_on_c, 12, 50, 45
11, 16672, Note_on_c, 12, 50, 0
11, 16704, Note_on_c, 12, 45, 45
11, 16864, Note_on_c, 12, 45, 0
11, 16896, Note_on_c, 12, 38, 92
11, 16990, Note_on_c, 12, 38, 0
11, 16992, Note_on_c, 12, 50, 92
11, 17086, Note_on_c, 12, 50, 0
11, 17088, Note_on_c, 12, 42, 92
11, 17182, Note_on_c, 12, 42, 0
11, 17184, Note_on_c, 12, 42, 92
11, 17278, Note_on_c, 12, 42, 0
11, 17280, Note_on_c, 12, 43, 92
11, 17374, Note_on_c, 12, 43, 0
11, 17376, Note_on_c, 12, 43, 92
11, 17470, Note_on_c, 12, 43, 0
11, 17472, Note_on_c, 12, 45, 92
11, 17566, Note_on_c, 12, 45, 0
11, 17568, Note_on_c, 12, 45, 92
11, 17662, Note_on_c, 12, 45, 0
11, 17664, Note_on_c, 12, 47, 92
11, 17758, Note_on_c, 12, 47, 0
11, 17760, Note_on_c, 12, 47, 92
11, 17854, Note_on_c, 12, 47, 0
11, 17856, Note_on_c, 12, 42, 92
11, 17950, Note_on_c, 12, 42, 0
11, 17952, Note_on_c, 12, 42, 92
11, 18046, Note_on_c, 12, 42, 0
11, 18048, Note_on_c, 12, 43, 92
11, 18142, Note_on_c, 12, 43, 0
11, 18144, Note_on_c, 12, 43, 92
11, 18238, Note_on_c, 12, 43, 0
11, 18240, Note_on_c, 12, 45, 92
11, 18334, Note_on_c, 12, 45, 0
11, 18336, Note_on_c, 12, 45, 92
11, 18430, Note_on_c, 12, 45, 0
11, 18432, Note_on_c, 12, 38, 92
11, 18526, Note_on_c, 12, 38, 0
11, 18528, Note_on_c, 12, 38, 92
11, 18560, Note_on_c, 12, 38, 0
11, 18576, Note_on_c, 12, 40, 92
11, 18608, Note_on_c, 12, 40, 0
11, 18624, Note_on_c, 12, 42, 92
11, 18672, Note_on_c, 12, 42, 0
11, 18672, Note_on_c, 12, 40, 92
11, 18718, Note_on_c, 12, 40, 0
11, 18720, Note_on_c, 12, 42, 92
11, 18752, Note_on_c, 12, 42, 0
11, 18768, Note_on_c, 12, 43, 92
11, 18800, Note_on_c, 12, 43, 0
11, 18816, Note_on_c, 12, 45, 92
11, 18976, Note_on_c, 12, 45, 0
11, 19296, Note_on_c, 12, 38, 92
11, 19328, Note_on_c, 12, 38, 0
11, 19344, Note_on_c, 12, 40, 92
11, 19376, Note_on_c, 12, 40, 0
11, 19392, Note_on_c, 12, 42, 92
11, 19440, Note_on_c, 12, 42, 0
11, 19440, Note_on_c, 12, 40, 92
11, 19486, Note_on_c, 12, 40, 0
11, 19488, Note_on_c, 12, 42, 92
11, 19520, Note_on_c, 12, 42, 0
11, 19536, Note_on_c, 12, 43, 92
11, 19568, Note_on_c, 12, 43, 0
11, 19584, Note_on_c, 12, 45, 92
11, 19744, Note_on_c, 12, 45, 0
11, 19968, Note_on_c, 12, 38, 92
11, 20000, Note_on_c, 12, 38, 0
11, 20064, Note_on_c, 12, 42, 92
11, 20096, Note_on_c, 12, 42, 0
11, 20160, Note_on_c, 12, 43, 92
11, 20192, Note_on_c, 12, 43, 0
11, 20256, Note_on_c, 12, 40, 92
11, 20288, Note_on_c, 12, 40, 0
11, 20352, Note_on_c, 12, 38, 92
11, 20384, Note_on_c, 12, 38, 0
11, 20448, Note_on_c, 12, 42, 92
11, 20480, Note_on_c, 12, 42, 0
11, 20544, Note_on_c, 12, 43, 92
11, 20576, Note_on_c, 12, 43, 0
11, 20640, Note_on_c, 12, 40, 92
11, 20672, Note_on_c, 12, 40, 0
11, 20736, Note_on_c, 12, 38, 92
11, 20896, Note_on_c, 12, 38, 0
11, 20928, Note_on_c, 12, 50, 92
11, 21088, Note_on_c, 12, 50, 0
11, 21120, Note_on_c, 12, 38, 92
11, 21280, Note_on_c, 12, 38, 0
11, 28128, Note_on_c, 12, 38, 45
11, 28160, Note_on_c, 12, 38, 0
11, 28224, Note_on_c, 12, 50, 45
11, 28256, Note_on_c, 12, 50, 0
11, 28320, Note_on_c, 12, 42, 45
11, 28352, Note_on_c, 12, 42, 0
11, 28416, Note_on_c, 12, 45, 45
11, 28576, Note_on_c, 12, 45, 0
11, 29664, Note_on_c, 12, 38, 45
11, 29696, Note_on_c, 12, 38, 0
11, 29760, Note_on_c, 12, 50, 45
11, 29792, Note_on_c, 12, 50, 0
11, 29856, Note_on_c, 12, 42, 45
11, 29888, Note_on_c, 12, 42, 0
11, 29952, Note_on_c, 12, 45, 45
11, 30112, Note_on_c, 12, 45, 0
11, 34464, Note_on_c, 12, 40, 92
11, 34558, Note_on_c, 12, 40, 0
11, 34560, Note_on_c, 12, 52, 92
11, 34608, Note_on_c, 12, 52, 0
11, 34608, Note_on_c, 12, 51, 92
11, 34654, Note_on_c, 12, 51, 0
11, 34656, Note_on_c, 12, 52, 92
11, 34704, Note_on_c, 12, 52, 0
11, 34704, Note_on_c, 12, 51, 92
11, 34750, Note_on_c, 12, 51, 0
11, 34752, Note_on_c, 12, 52, 92
11, 34846, Note_on_c, 12, 52, 0
11, 34944, Note_on_c, 12, 40, 45
11, 35038, Note_on_c, 12, 40, 0
11, 35136, Note_on_c, 12, 44, 45
11, 35230, Note_on_c, 12, 44, 0
11, 35328, Note_on_c, 12, 47, 45
11, 35422, Note_on_c, 12, 47, 0
11, 35712, Note_on_c, 12, 45, 45
11, 35806, Note_on_c, 12, 45, 0
11, 35904, Note_on_c, 12, 49, 45
11, 35998, Note_on_c, 12, 49, 0
11, 36096, Note_on_c, 12, 52, 45
11, 36190, Note_on_c, 12, 52, 0
11, 36480, Note_on_c, 12, 40, 45
11, 36574, Note_on_c, 12, 40, 0
11, 36672, Note_on_c, 12, 44, 45
11, 36766, Note_on_c, 12, 44, 0
11, 36864, Note_on_c, 12, 47, 45
11, 36958, Note_on_c, 12, 47, 0
11, 37248, Note_on_c, 12, 45, 45
11, 37342, Note_on_c, 12, 45, 0
11, 37440, Note_on_c, 12, 49, 45
11, 37534, Note_on_c, 12, 49, 0
11, 37632, Note_on_c, 12, 52, 45
11, 37726, Note_on_c, 12, 52, 0
11, 44160, Note_on_c, 12, 45, 45
11, 44254, Note_on_c, 12, 45, 0
11, 44352, Note_on_c, 12, 37, 45
11, 44446, Note_on_c, 12, 37, 0
11, 44544, Note_on_c, 12, 38, 45
11, 44638, Note_on_c, 12, 38, 0
11, 44736, Note_on_c, 12, 40, 45
11, 44830, Note_on_c, 12, 40, 0
11, 44928, Note_on_c, 12, 42, 45
11, 45022, Note_on_c, 12, 42, 0
11, 45120, Note_on_c, 12, 37, 45
11, 45214, Note_on_c, 12, 37, 0
11, 45312, Note_on_c, 12, 38, 45
11, 45406, Note_on_c, 12, 38, 0
11, 45504, Note_on_c, 12, 40, 45
11, 45598, Note_on_c, 12, 40, 0
11, 45696, Note_on_c, 12, 33, 45
11, 45790, Note_on_c, 12, 33, 0
11, 45792, Note_on_c, 12, 45, 92
11, 45838, Note_on_c, 12, 45, 0
11, 45840, Note_on_c, 12, 47, 92
11, 45886, Note_on_c, 12, 47, 0
11, 45888, Note_on_c, 12, 49, 92
11, 45936, Note_on_c, 12, 49, 0
11, 45936, Note_on_c, 12, 47, 92
11, 45982, Note_on_c, 12, 47, 0
11, 45984, Note_on_c, 12, 49, 92
11, 46016, Note_on_c, 12, 49, 0
11, 46032, Note_on_c, 12, 50, 92
11, 46064, Note_on_c, 12, 50, 0
11, 46080, Note_on_c, 12, 52, 92
11, 46240, Note_on_c, 12, 52, 0
11, 46560, Note_on_c, 12, 45, 92
11, 46606, Note_on_c, 12, 45, 0
11, 46608, Note_on_c, 12, 47, 92
11, 46654, Note_on_c, 12, 47, 0
11, 46656, Note_on_c, 12, 49, 92
11, 46704, Note_on_c, 12, 49, 0
11, 46704, Note_on_c, 12, 47, 92
11, 46750, Note_on_c, 12, 47, 0
11, 46752, Note_on_c, 12, 49, 92
11, 46784, Note_on_c, 12, 49, 0
11, 46800, Note_on_c, 12, 50, 92
11, 46832, Note_on_c, 12, 50, 0
11, 46848, Note_on_c, 12, 52, 92
11, 47008, Note_on_c, 12, 52, 0
11, 47232, Note_on_c, 12, 45, 92
11, 47392, Note_on_c, 12, 45, 0
11, 54336, Note_on_c, 12, 50, 92
11, 54430, Note_on_c, 12, 50, 0
11, 54528, Note_on_c, 12, 45, 92
11, 54622, Note_on_c, 12, 45, 0
11, 54720, Note_on_c, 12, 38, 92
11, 54814, Note_on_c, 12, 38, 0
11, 54912, Note_on_c, 12, 38, 92
11, 55006, Note_on_c, 12, 38, 0
11, 55008, Note_on_c, 12, 38, 92
11, 55102, Note_on_c, 12, 38, 0
11, 55104, Note_on_c, 12, 38, 92
11, 55198, Note_on_c, 12, 38, 0
11, 55200, Note_on_c, 12, 38, 92
11, 55294, Note_on_c, 12, 38, 0
11, 55296, Note_on_c, 12, 38, 92
11, 55390, Note_on_c, 12, 38, 0
11, 55392, Note_on_c, 12, 38, 92
11, 55486, Note_on_c, 12, 38, 0
11, 55488, Note_on_c, 12, 38, 92
11, 55648, Note_on_c, 12, 38, 0
11, 55776, Note_on_c, 12, 50, 92
11, 55870, Note_on_c, 12, 50, 0
11, 55872, Note_on_c, 12, 49, 92
11, 56128, Note_on_c, 12, 49, 0
11, 56160, Note_on_c, 12, 50, 92
11, 56254, Note_on_c, 12, 50, 0
11, 56256, Note_on_c, 12, 45, 92
11, 56416, Note_on_c, 12, 45, 0
11, 56640, Note_on_c, 12, 38, 92
11, 56734, Note_on_c, 12, 38, 0
11, 56832, Note_on_c, 12, 45, 92
11, 56926, Note_on_c, 12, 45, 0
11, 57024, Note_on_c, 12, 50, 92
11, 57118, Note_on_c, 12, 50, 0
11, 57216, Note_on_c, 12, 38, 92
11, 57248, Note_on_c, 12, 38, 0
11, 57312, Note_on_c, 12, 40, 92
11, 57344, Note_on_c, 12, 40, 0
11, 57408, Note_on_c, 12, 42, 92
11, 57440, Note_on_c, 12, 42, 0
11, 57504, Note_on_c, 12, 43, 92
11, 57536, Note_on_c, 12, 43, 0
11, 57600, Note_on_c, 12, 45, 92
11, 57632, Note_on_c, 12, 45, 0
11, 57696, Note_on_c, 12, 43, 92
11, 57728, Note_on_c, 12, 43, 0
11, 57792, Note_on_c, 12, 42, 92
11, 57952, Note_on_c, 12, 42, 0
11, 58080, Note_on_c, 12, 42, 92
11, 58174, Note_on_c, 12, 42, 0
11, 58176, Note_on_c, 12, 43, 92
11, 58336, Note_on_c, 12, 43, 0
11, 58368, Note_on_c, 12, 45, 92
11, 58462, Note_on_c, 12, 45, 0
11, 58464, Note_on_c, 12, 33, 92
11, 58558, Note_on_c, 12, 33, 0
11, 58560, Note_on_c, 12, 38, 92
11, 58720, Note_on_c, 12, 38, 0
11, 58848, Note_on_c, 12, 42, 92
11, 58880, Note_on_c, 12, 42, 0
11, 58896, Note_on_c, 12, 40, 92
11, 58928, Note_on_c, 12, 40, 0
11, 58944, Note_on_c, 12, 38, 92
11, 59038, Note_on_c, 12, 38, 0
11, 59232, Note_on_c, 12, 42, 92
11, 59264, Note_on_c, 12, 42, 0
11, 59280, Note_on_c, 12, 40, 92
11, 59312, Note_on_c, 12, 40, 0
11, 59328, Note_on_c, 12, 38, 92
11, 59422, Note_on_c, 12, 38, 0
11, 59616, Note_on_c, 12, 45, 92
11, 59648, Note_on_c, 12, 45, 0
11, 59664, Note_on_c, 12, 43, 92
11, 59696, Note_on_c, 12, 43, 0
11, 59712, Note_on_c, 12, 42, 92
11, 59806, Note_on_c, 12, 42, 0
11, 60000, Note_on_c, 12, 45, 92
11, 60032, Note_on_c, 12, 45, 0
11, 60048, Note_on_c, 12, 43, 92
11, 60080, Note_on_c, 12, 43, 0
11, 60096, Note_on_c, 12, 42, 92
11, 60190, Note_on_c, 12, 42, 0
11, 61056, Note_on_c, 12, 54, 45
11, 61248, Note_on_c, 12, 54, 0
11, 61248, Note_on_c, 12, 55, 45
11, 61408, Note_on_c, 12, 55, 0
11, 61824, Note_on_c, 12, 54, 45
11, 62016, Note_on_c, 12, 54, 0
11, 62016, Note_on_c, 12, 55, 45
11, 62176, Note_on_c, 12, 55, 0
11, 62592, Note_on_c, 12, 42, 45
11, 62784, Note_on_c, 12, 42, 0
11, 62784, Note_on_c, 12, 43, 45
11, 62944, Note_on_c, 12, 43, 0
11, 62976, Note_on_c, 12, 52, 45
11, 63136, Note_on_c, 12, 52, 0
11, 63168, Note_on_c, 12, 50, 45
11, 63504, Note_on_c, 12, 50, 0
11, 63552, Note_on_c, 12, 38, 45
11, 63888, Note_on_c, 12, 38, 0
11, 64128, Note_on_c, 12, 54, 45
11, 64320, Note_on_c, 12, 54, 0
11, 64320, Note_on_c, 12, 55, 45
11, 64480, Note_on_c, 12, 55, 0
11, 64896, Note_on_c, 12, 54, 45
11, 65088, Note_on_c, 12, 54, 0
11, 65088, Note_on_c, 12, 55, 45
11, 65248, Note_on_c, 12, 55, 0
11, 65664, Note_on_c, 12, 54, 45
11, 65856, Note_on_c, 12, 54, 0
11, 65856, Note_on_c, 12, 55, 45
11, 66016, Note_on_c, 12, 55, 0
11, 66048, Note_on_c, 12, 50, 45
11, 66208, Note_on_c, 12, 50, 0
11, 66240, Note_on_c, 12, 43, 45
11, 66400, Note_on_c, 12, 43, 0
11, 71136, Note_on_c, 12, 33, 92
11, 71230, Note_on_c, 12, 33, 0
11, 71232, Note_on_c, 12, 45, 92
11, 71280, Note_on_c, 12, 45, 0
11, 71280, Note_on_c, 12, 44, 92
11, 71328, Note_on_c, 12, 44, 0
11, 71328, Note_on_c, 12, 45, 92
11, 71376, Note_on_c, 12, 45, 0
11, 71376, Note_on_c, 12, 44, 92
11, 71422, Note_on_c, 12, 44, 0
11, 71424, Note_on_c, 12, 45, 92
11, 71518, Note_on_c, 12, 45, 0
11, 71616, Note_on_c, 12, 45, 45
11, 71710, Note_on_c, 12, 45, 0
11, 71808, Note_on_c, 12, 49, 45
11, 71902, Note_on_c, 12, 49, 0
11, 72000, Note_on_c, 12, 52, 45
11, 72094, Note_on_c, 12, 52, 0
11, 72384, Note_on_c, 12, 50, 45
11, 72478, Note_on_c, 12, 50, 0
11, 72576, Note_on_c, 12, 45, 45
11, 72670, Note_on_c, 12, 45, 0
11, 72768, Note_on_c, 12, 42, 45
11, 72862, Note_on_c, 12, 42, 0
11, 72960, Note_on_c, 12, 38, 45
11, 73054, Note_on_c, 12, 38, 0
11, 73152, Note_on_c, 12, 45, 45
11, 73246, Note_on_c, 12, 45, 0
11, 73344, Note_on_c, 12, 49, 45
11, 73438, Note_on_c, 12, 49, 0
11, 73536, Note_on_c, 12, 52, 45
11, 73630, Note_on_c, 12, 52, 0
11, 73920, Note_on_c, 12, 50, 45
11, 74014, Note_on_c, 12, 50, 0
11, 74112, Note_on_c, 12, 45, 45
11, 74206, Note_on_c, 12, 45, 0
11, 74304, Note_on_c, 12, 42, 45
11, 74398, Note_on_c, 12, 42, 0
11, 74496, Note_on_c, 12, 38, 45
11, 74590, Note_on_c, 12, 38, 0
11, 82080, Note_on_c, 12, 38, 45
11, 82112, Note_on_c, 12, 38, 0
11, 82176, Note_on_c, 12, 50, 45
11, 82208, Note_on_c, 12, 50, 0
11, 82272, Note_on_c, 12, 42, 45
11, 82304, Note_on_c, 12, 42, 0
11, 82368, Note_on_c, 12, 45, 45
11, 82528, Note_on_c, 12, 45, 0
11, 83616, Note_on_c, 12, 38, 45
11, 83648, Note_on_c, 12, 38, 0
11, 83712, Note_on_c, 12, 50, 45
11, 83744, Note_on_c, 12, 50, 0
11, 83808, Note_on_c, 12, 42, 45
11, 83840, Note_on_c, 12, 42, 0
11, 83904, Note_on_c, 12, 45, 45
11, 84064, Note_on_c, 12, 45, 0
11, 84192, Note_on_c, 12, 49, 92
11, 84224, Note_on_c, 12, 49, 0
11, 84240, Note_on_c, 12, 47, 92
11, 84272, Note_on_c, 12, 47, 0
11, 84288, Note_on_c, 12, 45, 92
11, 84382, Note_on_c, 12, 45, 0
11, 84576, Note_on_c, 12, 49, 92
11, 84608, Note_on_c, 12, 49, 0
11, 84624, Note_on_c, 12, 47, 92
11, 84656, Note_on_c, 12, 47, 0
11, 84672, Note_on_c, 12, 45, 92
11, 84766, Note_on_c, 12, 45, 0
11, 84960, Note_on_c, 12, 52, 92
11, 84992, Note_on_c, 12, 52, 0
11, 85008, Note_on_c, 12, 50, 92
11, 85040, Note_on_c, 12, 50, 0
11, 85056, Note_on_c, 12, 49, 92
11, 85150, Note_on_c, 12, 49, 0
11, 85344, Note_on_c, 12, 52, 92
11, 85376, Note_on_c, 12, 52, 0
11, 85392, Note_on_c, 12, 50, 92
11, 85424, Note_on_c, 12, 50, 0
11, 85440, Note_on_c, 12, 49, 92
11, 85534, Note_on_c, 12, 49, 0
11, 91296, Note_on_c, 12, 38, 92
11, 91390, Note_on_c, 12, 38, 0
11, 91392, Note_on_c, 12, 42, 92
11, 91486, Note_on_c, 12, 42, 0
11, 91488, Note_on_c, 12, 42, 92
11, 91582, Note_on_c, 12, 42, 0
11, 91584, Note_on_c, 12, 43, 92
11, 91678, Note_on_c, 12, 43, 0
11, 91680, Note_on_c, 12, 43, 92
11, 91774, Note_on_c, 12, 43, 0
11, 91776, Note_on_c, 12, 45, 92
11, 91870, Note_on_c, 12, 45, 0
11, 91872, Note_on_c, 12, 45, 92
11, 91966, Note_on_c, 12, 45, 0
11, 91968, Note_on_c, 12, 47, 92
11, 92062, Note_on_c, 12, 47, 0
11, 92064, Note_on_c, 12, 47, 92
11, 92158, Note_on_c, 12, 47, 0
11, 92160, Note_on_c, 12, 42, 92
11, 92254, Note_on_c, 12, 42, 0
11, 92256, Note_on_c, 12, 42, 92
11, 92350, Note_on_c, 12, 42, 0
11, 92352, Note_on_c, 12, 43, 92
11, 92446, Note_on_c, 12, 43, 0
11, 92448, Note_on_c, 12, 43, 92
11, 92542, Note_on_c, 12, 43, 0
11, 92544, Note_on_c, 12, 45, 92
11, 92638, Note_on_c, 12, 45, 0
11, 92640, Note_on_c, 12, 45, 92
11, 92734, Note_on_c, 12, 45, 0
11, 92736, Note_on_c, 12, 38, 92
11, 92896, Note_on_c, 12, 38, 0
11, 93120, Note_on_c, 12, 38, 45
11, 93214, Note_on_c, 12, 38, 0
11, 93312, Note_on_c, 12, 40, 45
11, 93406, Note_on_c, 12, 40, 0
11, 93504, Note_on_c, 12, 45, 45
11, 93760, Note_on_c, 12, 45, 0
11, 93792, Note_on_c, 12, 40, 45
11, 93886, Note_on_c, 12, 40, 0
11, 93888, Note_on_c, 12, 45, 45
11, 93982, Note_on_c, 12, 45, 0
11, 93984, Note_on_c, 12, 40, 45
11, 94078, Note_on_c, 12, 40, 0
11, 94080, Note_on_c, 12, 45, 45
11, 94174, Note_on_c, 12, 45, 0
11, 94176, Note_on_c, 12, 40, 45
11, 94270, Note_on_c, 12, 40, 0
11, 94272, Note_on_c, 12, 45, 45
11, 94432, Note_on_c, 12, 45, 0
11, 94656, Note_on_c, 12, 43, 45
11, 94750, Note_on_c, 12, 43, 0
11, 94848, Note_on_c, 12, 45, 45
11, 94942, Note_on_c, 12, 45, 0
11, 95040, Note_on_c, 12, 38, 45
11, 95296, Note_on_c, 12, 38, 0
11, 95328, Note_on_c, 12, 45, 45
11, 95422, Note_on_c, 12, 45, 0
11, 95424, Note_on_c, 12, 38, 45
11, 95518, Note_on_c, 12, 38, 0
11, 95520, Note_on_c, 12, 45, 45
11, 95614, Note_on_c, 12, 45, 0
11, 95616, Note_on_c, 12, 38, 45
11, 95710, Note_on_c, 12, 38, 0
11, 95712, Note_on_c, 12, 45, 45
11, 95806, Note_on_c, 12, 45, 0
11, 95808, Note_on_c, 12, 38, 92
11, 95968, Note_on_c, 12, 38, 0
11, 96096, Note_on_c, 12, 54, 92
11, 96128, Note_on_c, 12, 54, 0
11, 96144, Note_on_c, 12, 52, 92
11, 96176, Note_on_c, 12, 52, 0
11, 96192, Note_on_c, 12, 50, 92
11, 96286, Note_on_c, 12, 50, 0
11, 96480, Note_on_c, 12, 50, 92
11, 96512, Note_on_c, 12, 50, 0
11, 96528, Note_on_c, 12, 49, 92
11, 96560, Note_on_c, 12, 49, 0
11, 96576, Note_on_c, 12, 47, 92
11, 96670, Note_on_c, 12, 47, 0
11, 96864, Note_on_c, 12, 50, 92
11, 96896, Note_on_c, 12, 50, 0
11, 96912, Note_on_c, 12, 49, 92
11, 96944, Note_on_c, 12, 49, 0
11, 96960, Note_on_c, 12, 47, 92
11, 97054, Note_on_c, 12, 47, 0
11, 97248, Note_on_c, 12, 47, 92
11, 97280, Note_on_c, 12, 47, 0
11, 97296, Note_on_c, 12, 45, 92
11, 97328, Note_on_c, 12, 45, 0
11, 97344, Note_on_c, 12, 44, 92
11, 97504, Note_on_c, 12, 44, 0
11, 97824, Note_on_c, 12, 50, 92
11, 97856, Note_on_c, 12, 50, 0
11, 97920, Note_on_c, 12, 54, 92
11, 97952, Note_on_c, 12, 54, 0
11, 98016, Note_on_c, 12, 44, 92
11, 98048, Note_on_c, 12, 44, 0
11, 98112, Note_on_c, 12, 45, 92
11, 98272, Note_on_c, 12, 45, 0
11, 111264, Note_on_c, 12, 38, 45
11, 111358, Note_on_c, 12, 38, 0
11, 111360, Note_on_c, 12, 38, 45
11, 111454, Note_on_c, 12, 38, 0
11, 111456, Note_on_c, 12, 38, 45
11, 111550, Note_on_c, 12, 38, 0
11, 111648, Note_on_c, 12, 38, 45
11, 111742, Note_on_c, 12, 38, 0
11, 111744, Note_on_c, 12, 38, 45
11, 111838, Note_on_c, 12, 38, 0
11, 111840, Note_on_c, 12, 38, 45
11, 111934, Note_on_c, 12, 38, 0
11, 112032, Note_on_c, 12, 38, 45
11, 112126, Note_on_c, 12, 38, 0
11, 112128, Note_on_c, 12, 38, 45
11, 112222, Note_on_c, 12, 38, 0
11, 112224, Note_on_c, 12, 38, 45
11, 112318, Note_on_c, 12, 38, 0
11, 112320, Note_on_c, 12, 38, 45
11, 112798, Note_on_c, 12, 38, 0
11, 115776, Note_on_c, 12, 50, 92
11, 115870, Note_on_c, 12, 50, 0
11, 115968, Note_on_c, 12, 45, 92
11, 116062, Note_on_c, 12, 45, 0
11, 116160, Note_on_c, 12, 38, 92
11, 116254, Note_on_c, 12, 38, 0
11, 116352, Note_on_c, 12, 38, 92
11, 116446, Note_on_c, 12, 38, 0
11, 116448, Note_on_c, 12, 38, 92
11, 116542, Note_on_c, 12, 38, 0
11, 116544, Note_on_c, 12, 38, 92
11, 116638, Note_on_c, 12, 38, 0
11, 116640, Note_on_c, 12, 38, 92
11, 116734, Note_on_c, 12, 38, 0
11, 116736, Note_on_c, 12, 38, 92
11, 116830, Note_on_c, 12, 38, 0
11, 116832, Note_on_c, 12, 38, 92
11, 116926, Note_on_c, 12, 38, 0
11, 116928, Note_on_c, 12, 38, 92
11, 117088, Note_on_c, 12, 38, 0
11, 117120, Note_on_c, 12, 38, 45
11, 117214, Note_on_c, 12, 38, 0
11, 117216, Note_on_c, 12, 38, 45
11, 117310, Note_on_c, 12, 38, 0
11, 117312, Note_on_c, 12, 38, 45
11, 117406, Note_on_c, 12, 38, 0
11, 117408, Note_on_c, 12, 38, 45
11, 117502, Note_on_c, 12, 38, 0
11, 117504, Note_on_c, 12, 38, 45
11, 117598, Note_on_c, 12, 38, 0
11, 117600, Note_on_c, 12, 38, 45
11, 117694, Note_on_c, 12, 38, 0
11, 117696, Note_on_c, 12, 38, 45
11, 117856, Note_on_c, 12, 38, 0
11, 117888, Note_on_c, 12, 42, 92
11, 117982, Note_on_c, 12, 42, 0
11, 117984, Note_on_c, 12, 42, 92
11, 118078, Note_on_c, 12, 42, 0
11, 118080, Note_on_c, 12, 43, 92
11, 118174, Note_on_c, 12, 43, 0
11, 118176, Note_on_c, 12, 43, 92
11, 118270, Note_on_c, 12, 43, 0
11, 118272, Note_on_c, 12, 45, 92
11, 118366, Note_on_c, 12, 45, 0
11, 118368, Note_on_c, 12, 33, 92
11, 118462, Note_on_c, 12, 33, 0
11, 118464, Note_on_c, 12, 38, 92
11, 118624, Note_on_c, 12, 38, 0
11, 118848, Note_on_c, 12, 38, 45
11, 118942, Note_on_c, 12, 38, 0
11, 119040, Note_on_c, 12, 40, 45
11, 119134, Note_on_c, 12, 40, 0
11, 119232, Note_on_c, 12, 45, 45
11, 119488, Note_on_c, 12, 45, 0
11, 119520, Note_on_c, 12, 40, 45
11, 119614, Note_on_c, 12, 40, 0
11, 119616, Note_on_c, 12, 45, 45
11, 119710, Note_on_c, 12, 45, 0
11, 119712, Note_on_c, 12, 40, 45
11, 119806, Note_on_c, 12, 40, 0
11, 119808, Note_on_c, 12, 45, 45
11, 119902, Note_on_c, 12, 45, 0
11, 119904, Note_on_c, 12, 40, 45
11, 119998, Note_on_c, 12, 40, 0
11, 120000, Note_on_c, 12, 45, 45
11, 120160, Note_on_c, 12, 45, 0
11, 120384, Note_on_c, 12, 43, 45
11, 120478, Note_on_c, 12, 43, 0
11, 120576, Note_on_c, 12, 45, 45
11, 120670, Note_on_c, 12, 45, 0
11, 120768, Note_on_c, 12, 38, 45
11, 121024, Note_on_c, 12, 38, 0
11, 121056, Note_on_c, 12, 45, 45
11, 121150, Note_on_c, 12, 45, 0
11, 121152, Note_on_c, 12, 38, 45
11, 121246, Note_on_c, 12, 38, 0
11, 121248, Note_on_c, 12, 45, 45
11, 121342, Note_on_c, 12, 45, 0
11, 121344, Note_on_c, 12, 38, 45
11, 121438, Note_on_c, 12, 38, 0
11, 121440, Note_on_c, 12, 45, 45
11, 121534, Note_on_c, 12, 45, 0
11, 121536, Note_on_c, 12, 38, 45
11, 121630, Note_on_c, 12, 38, 0
11, 121632, Note_on_c, 12, 38, 92
11, 121664, Note_on_c, 12, 38, 0
11, 121680, Note_on_c, 12, 40, 92
11, 121712, Note_on_c, 12, 40, 0
11, 121728, Note_on_c, 12, 42, 92
11, 121776, Note_on_c, 12, 42, 0
11, 121776, Note_on_c, 12, 40, 92
11, 121822, Note_on_c, 12, 40, 0
11, 121824, Note_on_c, 12, 42, 92
11, 121856, Note_on_c, 12, 42, 0
11, 121872, Note_on_c, 12, 43, 92
11, 121904, Note_on_c, 12, 43, 0
11, 121920, Note_on_c, 12, 45, 92
11, 122080, Note_on_c, 12, 45, 0
11, 122400, Note_on_c, 12, 38, 92
11, 122432, Note_on_c, 12, 38, 0
11, 122448, Note_on_c, 12, 40, 92
11, 122480, Note_on_c, 12, 40, 0
11, 122496, Note_on_c, 12, 42, 92
11, 122544, Note_on_c, 12, 42, 0
11, 122544, Note_on_c, 12, 40, 92
11, 122590, Note_on_c, 12, 40, 0
11, 122592, Note_on_c, 12, 42, 92
11, 122624, Note_on_c, 12, 42, 0
11, 122640, Note_on_c, 12, 43, 92
11, 122672, Note_on_c, 12, 43, 0
11, 122688, Note_on_c, 12, 45, 92
11, 122848, Note_on_c, 12, 45, 0
11, 123072, Note_on_c, 12, 38, 92
11, 123104, Note_on_c, 12, 38, 0
11, 123168, Note_on_c, 12, 42, 92
11, 123200, Note_on_c, 12, 42, 0
11, 123264, Note_on_c, 12, 43, 92
11, 123296, Note_on_c, 12, 43, 0
11, 123360, Note_on_c, 12, 40, 92
11, 123392, Note_on_c, 12, 40, 0
11, 123456, Note_on_c, 12, 38, 92
11, 123488, Note_on_c, 12, 38, 0
11, 123552, Note_on_c, 12, 42, 92
11, 123584, Note_on_c, 12, 42, 0
11, 123648, Note_on_c, 12, 43, 92
11, 123680, Note_on_c, 12, 43, 0
11, 123744, Note_on_c, 12, 40, 92
11, 123776, Note_on_c, 12, 40, 0
11, 123840, Note_on_c, 12, 38, 92
11, 124000, Note_on_c, 12, 38, 0
11, 124032, Note_on_c, 12, 50, 92
11, 124192, Note_on_c, 12, 50, 0
11, 124224, Note_on_c, 12, 38, 92
11, 124480, Note_on_c, 12, 38, 0
11, 124480, End_track
12, 0, Start_track
12, 0, MIDI_port, 0
12, 0, Title_t, "Staff-2"
12, 0, Control_c, 13, 7, 127
12, 0, Control_c, 13, 10, 64
12, 0, End_track
0, 0, End_of_file