0, 0, Header, 1, 6, 480
1, 0, Start_track
1, 0, Title_t, "Untitled"
1, 0, Time_signature, 4, 2, 24, 8
1, 0, Key_signature, 0, "major"
1, 0, Tempo, 500000
1, 0, Marker_t, "Mozart "
1, 1920, Tempo, 260869
1, 1920, Marker_t, "Piano Sonata Np.7, Rev.1"
1, 2190, Tempo, 461538
1, 2880, Tempo, 352941
1, 3800, Tempo, 355029
1, 5565, Tempo, 500000
1, 5760, Tempo, 352941
1, 11480, Tempo, 355029
1, 11520, Tempo, 352941
1, 15280, Tempo, 355029
1, 15360, Tempo, 260869
1, 15630, Tempo, 461538
1, 16320, Tempo, 352941
1, 17240, Tempo, 355029
1, 18990, Tempo, 500000
1, 19200, Tempo, 352941
1, 24920, Tempo, 359281
1, 24960, Tempo, 352941
1, 25920, Tempo, 363636
1, 26640, Tempo, 372670
1, 26880, Tempo, 352941
1, 27840, Tempo, 363636
1, 28320, Tempo, 368098
1, 28760, Tempo, 359281
1, 28800, Tempo, 352941
1, 34520, Tempo, 355029
1, 34560, Tempo, 352941
1, 38360, Tempo, 355029
1, 38400, Tempo, 352941
1, 40280, Tempo, 363636
1, 40320, Tempo, 352941
1, 44120, Tempo, 355029
1, 44160, Tempo, 352941
1, 47960, Tempo, 355029
1, 48000, Tempo, 352941
1, 51800, Tempo, 355029
1, 51840, Tempo, 352941
1, 55640, Tempo, 355029
1, 55680, Tempo, 352941
1, 59480, Tempo, 355029
1, 59520, Tempo, 359281
1, 61380, Tempo, 363636
1, 62265, Tempo, 372670
1, 62880, Tempo, 384615
1, 63360, Tempo, 355029
1, 63400, Tempo, 352941
1, 67160, Tempo, 355029
1, 67200, Tempo, 352941
1, 74840, Tempo, 355029
1, 74880, Tempo, 352941
1, 82020, Tempo, 355029
1, 82260, Tempo, 359281
1, 82520, Tempo, 402684
1, 82560, Tempo, 352941
1, 88280, Tempo, 355029
1, 88320, Tempo, 352941
1, 95960, Tempo, 355029
1, 96000, Tempo, 355029
1, 99800, Tempo, 359281
1, 99840, Tempo, 352941
1, 101640, Tempo, 355029
1, 103640, Tempo, 359281
1, 104040, Tempo, 500000
1, 104160, Tempo, 352941
1, 107960, Tempo, 355029
1, 108000, Tempo, 352941
1, 109880, Tempo, 355029
1, 109920, Tempo, 352941
1, 111300, Tempo, 355029
1, 111360, Tempo, 377358
1, 111840, Tempo, 413793
1, 112320, Tempo, 428571
1, 113160, Tempo, 500000
1, 113280, Tempo, 260869
1, 113280, Marker_t, "New Marker 3"
1, 113550, Tempo, 461538
1, 114240, Tempo, 352941
1, 115160, Tempo, 355029
1, 116880, Tempo, 500000
1, 117120, Tempo, 359281
1, 118800, Tempo, 500000
1, 119040, Tempo, 368098
1, 120465, Tempo, 500000
1, 120960, Tempo, 352941
1, 122820, Tempo, 355029
1, 122880, Tempo, 352941
1, 126660, Tempo, 355029
1, 126720, Tempo, 352941
1, 128400, Tempo, 359281
1, 128640, Tempo, 260869
1, 128910, Tempo, 461538
1, 129600, Tempo, 352941
1, 130520, Tempo, 355029
1, 132255, Tempo, 500000
1, 132480, Tempo, 352941
1, 134340, Tempo, 355029
1, 134400, Tempo, 352941
1, 138180, Tempo, 355029
1, 138240, Tempo, 352941
1, 140120, Tempo, 355029
1, 140160, Tempo, 352941
1, 143940, Tempo, 355029
1, 144000, Tempo, 352941
1, 147780, Tempo, 355029
1, 147840, Tempo, 352941
1, 149700, Tempo, 355029
1, 149760, Tempo, 352941
1, 151640, Tempo, 355029
1, 151680, Tempo, 352941
1, 156420, Tempo, 355029
1, 156960, Tempo, 428571
1, 157440, Tempo, 377358
1, 157680, Tempo, 625000
1, 157920, Tempo, 352941
1, 161720, Tempo, 355029
1, 161760, Tempo, 352941
1, 165060, Tempo, 359281
1, 165120, Tempo, 260869
1, 165390, Tempo, 461538
1, 166080, Tempo, 352941
1, 167000, Tempo, 355029
1, 168720, Tempo, 500000
1, 168960, Tempo, 359281
1, 170640, Tempo, 500000
1, 170880, Tempo, 363636
1, 172290, Tempo, 508474
1, 172800, Tempo, 260869
1, 173070, Tempo, 461538
1, 173760, Tempo, 352941
1, 174680, Tempo, 355029
1, 176400, Tempo, 500000
1, 176640, Tempo, 359281
1, 178320, Tempo, 500000
1, 178560, Tempo, 363636
1, 180015, Tempo, 560747
1, 180480, Tempo, 260869
1, 180750, Tempo, 461538
1, 181440, Tempo, 352941
1, 182360, Tempo, 355029
1, 184065, Tempo, 500000
1, 184320, Tempo, 352941
1, 190040, Tempo, 355029
1, 190080, Tempo, 352941
1, 193840, Tempo, 355029
1, 193920, Tempo, 260869
1, 194190, Tempo, 461538
1, 194880, Tempo, 352941
1, 195800, Tempo, 355029
1, 197520, Tempo, 508474
1, 197760, Tempo, 352941
1, 201540, Tempo, 355029
1, 201600, Tempo, 352941
1, 205380, Tempo, 355029
1, 205440, Tempo, 352941
1, 207320, Tempo, 355029
1, 207360, Tempo, 352941
1, 209240, Tempo, 355029
1, 209280, Tempo, 352941
1, 211080, Tempo, 359281
1, 211200, Tempo, 352941
1, 216920, Tempo, 355029
1, 216960, Tempo, 352941
1, 222680, Tempo, 363636
1, 222720, Tempo, 352941
1, 226520, Tempo, 355029
1, 226560, Tempo, 352941
1, 230360, Tempo, 355029
1, 230400, Tempo, 352941
1, 234200, Tempo, 355029
1, 234240, Tempo, 352941
1, 238040, Tempo, 355029
1, 239960, Tempo, 355029
1, 240000, Tempo, 359281
1, 241860, Tempo, 363636
1, 242820, Tempo, 372670
1, 243360, Tempo, 384615
1, 243840, Tempo, 355029
1, 243880, Tempo, 352941
1, 247640, Tempo, 355029
1, 247680, Tempo, 352941
1, 255320, Tempo, 355029
1, 255360, Tempo, 352941
1, 262500, Tempo, 355029
1, 262740, Tempo, 359281
1, 263000, Tempo, 402684
1, 263040, Tempo, 352941
1, 268760, Tempo, 355029
1, 268800, Tempo, 352941
1, 276440, Tempo, 355029
1, 276480, Tempo, 355029
1, 280280, Tempo, 359281
1, 280320, Tempo, 352941
1, 282120, Tempo, 355029
1, 284120, Tempo, 359281
1, 284580, Tempo, 540540
1, 284640, Tempo, 352941
1, 288440, Tempo, 355029
1, 288480, Tempo, 352941
1, 291780, Tempo, 359281
1, 291840, Tempo, 260869
1, 292110, Tempo, 461538
1, 292800, Tempo, 352941
1, 293720, Tempo, 355029
1, 295140, Tempo, 359281
1, 295200, Tempo, 355029
1, 297540, Tempo, 355029
1, 297600, Tempo, 428571
1, 298080, Tempo, 454545
1, 298320, Tempo, 526315
1, 298560, Tempo, 612244
1, 298680, Tempo, 869565
1, 298950, Tempo, 2727272
1, 299520, Time_signature, 3, 1, 24, 8
1, 299520, Tempo, 779220
1, 299520, Marker_t, "(2)"
1, 300400, Tempo, 789473
1, 301380, Tempo, 810810
1, 302400, Tempo, 779220
1, 303280, Tempo, 789473
1, 304270, Tempo, 810810
1, 305280, Tempo, 779220
1, 306160, Tempo, 789473
1, 308040, Tempo, 810810
1, 308580, Tempo, 821917
1, 309070, Tempo, 845070
1, 310060, Tempo, 810810
1, 311000, Tempo, 821917
1, 311040, Tempo, 779220
1, 311950, Tempo, 789473
1, 313880, Tempo, 810810
1, 313920, Tempo, 779220
1, 314800, Tempo, 789473
1, 316680, Tempo, 810810
1, 316800, Tempo, 779220
1, 317680, Tempo, 789473
1, 319640, Tempo, 810810
1, 320580, Tempo, 821917
1, 321120, Tempo, 810810
1, 322520, Tempo, 845070
1, 322560, Tempo, 779220
1, 323440, Tempo, 789473
1, 324430, Tempo, 810810
1, 325440, Tempo, 779220
1, 326320, Tempo, 789473
1, 327300, Tempo, 810810
1, 328320, Tempo, 779220
1, 329200, Tempo, 789473
1, 331160, Tempo, 810810
1, 331630, Tempo, 821917
1, 332100, Tempo, 845070
1, 333120, Tempo, 810810
1, 334040, Tempo, 821917
1, 334080, Tempo, 789473
1, 334960, Tempo, 810810
1, 335760, Tempo, 789473
1, 336920, Tempo, 810810
1, 336960, Tempo, 779220
1, 337840, Tempo, 789473
1, 339720, Tempo, 810810
1, 339840, Tempo, 779220
1, 340680, Tempo, 789473
1, 342495, Tempo, 810810
1, 343620, Tempo, 821917
1, 344160, Tempo, 810810
1, 345560, Tempo, 845070
1, 345600, Tempo, 779220
1, 346480, Tempo, 789473
1, 347460, Tempo, 810810
1, 348480, Tempo, 779220
1, 349360, Tempo, 789473
1, 350340, Tempo, 810810
1, 351360, Tempo, 779220
1, 352240, Tempo, 789473
1, 354200, Tempo, 810810
1, 355120, Tempo, 821917
1, 356160, Tempo, 810810
1, 357080, Tempo, 821917
1, 357120, Tempo, 779220
1, 358000, Tempo, 789473
1, 359960, Tempo, 810810
1, 360000, Tempo, 779220
1, 360880, Tempo, 789473
1, 362840, Tempo, 810810
1, 362880, Tempo, 779220
1, 363760, Tempo, 789473
1, 365650, Tempo, 810810
1, 366640, Tempo, 821917
1, 367215, Tempo, 810810
1, 368600, Tempo, 845070
1, 368640, Tempo, 779220
1, 369520, Tempo, 789473
1, 370500, Tempo, 810810
1, 371520, Tempo, 779220
1, 372400, Tempo, 789473
1, 373370, Tempo, 810810
1, 374400, Tempo, 779220
1, 375280, Tempo, 789473
1, 377240, Tempo, 810810
1, 378160, Tempo, 821917
1, 379190, Tempo, 810810
1, 380120, Tempo, 821917
1, 380160, Tempo, 779220
1, 381040, Tempo, 789473
1, 383000, Tempo, 810810
1, 383040, Tempo, 779220
1, 383920, Tempo, 789473
1, 385880, Tempo, 810810
1, 385920, Tempo, 779220
1, 386760, Tempo, 789473
1, 388695, Tempo, 810810
1, 389760, Tempo, 845070
1, 390240, Tempo, 810810
1, 391640, Tempo, 845070
1, 391680, Tempo, 779220
1, 392560, Tempo, 789473
1, 394520, Tempo, 810810
1, 394560, Tempo, 779220
1, 395440, Tempo, 789473
1, 397400, Tempo, 810810
1, 397440, Tempo, 779220
1, 398320, Tempo, 789473
1, 400280, Tempo, 810810
1, 401200, Tempo, 821917
1, 401360, Tempo, 810810
1, 403080, Tempo, 821917
1, 403200, Tempo, 779220
1, 404110, Tempo, 789473
1, 404240, Tempo, 779220
1, 405960, Tempo, 789473
1, 406080, Tempo, 779220
1, 406980, Tempo, 789473
1, 407120, Tempo, 779220
1, 408920, Tempo, 800000
1, 408960, Tempo, 779220
1, 409870, Tempo, 789473
1, 411800, Tempo, 810810
1, 411840, Tempo, 810810
1, 411960, Tempo, 779220
1, 412720, Tempo, 789473
1, 412880, Tempo, 779220
1, 414600, Tempo, 789473
1, 414720, Tempo, 779220
1, 415600, Tempo, 789473
1, 415760, Tempo, 779220
1, 417480, Tempo, 789473
1, 417600, Tempo, 779220
1, 418480, Tempo, 789473
1, 418640, Tempo, 779220
1, 420360, Tempo, 789473
1, 420480, Tempo, 779220
1, 421360, Tempo, 789473
1, 421520, Tempo, 779220
1, 423320, Tempo, 810810
1, 424240, Tempo, 821917
1, 424530, Tempo, 810810
1, 426200, Tempo, 845070
1, 426240, Tempo, 779220
1, 427120, Tempo, 789473
1, 428100, Tempo, 810810
1, 429120, Tempo, 779220
1, 430000, Tempo, 789473
1, 430980, Tempo, 810810
1, 432000, Tempo, 779220
1, 432880, Tempo, 789473
1, 434840, Tempo, 810810
1, 435760, Tempo, 821917
1, 436790, Tempo, 810810
1, 437720, Tempo, 821917
1, 437760, Tempo, 779220
1, 438640, Tempo, 789473
1, 440600, Tempo, 810810
1, 440640, Tempo, 779220
1, 441520, Tempo, 789473
1, 443400, Tempo, 810810
1, 443520, Tempo, 779220
1, 444345, Tempo, 789473
1, 446280, Tempo, 810810
1, 447360, Tempo, 821917
1, 447830, Tempo, 810810
1, 449240, Tempo, 845070
1, 449280, Tempo, 779220
1, 450160, Tempo, 789473
1, 452120, Tempo, 810810
1, 452160, Tempo, 779220
1, 453040, Tempo, 789473
1, 455000, Tempo, 810810
1, 455040, Tempo, 779220
1, 455920, Tempo, 789473
1, 457880, Tempo, 810810
1, 458800, Tempo, 821917
1, 459010, Tempo, 810810
1, 460760, Tempo, 821917
1, 460800, Tempo, 779220
1, 461720, Tempo, 789473
1, 461840, Tempo, 779220
1, 463560, Tempo, 789473
1, 463680, Tempo, 779220
1, 464580, Tempo, 789473
1, 464720, Tempo, 779220
1, 466440, Tempo, 789473
1, 466560, Tempo, 779220
1, 467440, Tempo, 789473
1, 469400, Tempo, 810810
1, 470320, Tempo, 821917
1, 470480, Tempo, 810810
1, 472200, Tempo, 821917
1, 472320, Tempo, 779220
1, 473200, Tempo, 789473
1, 473360, Tempo, 779220
1, 475080, Tempo, 789473
1, 475200, Tempo, 779220
1, 476080, Tempo, 789473
1, 476240, Tempo, 779220
1, 477960, Tempo, 789473
1, 478080, Tempo, 779220
1, 478960, Tempo, 789473
1, 480920, Tempo, 810810
1, 481840, Tempo, 821917
1, 482040, Tempo, 810810
1, 483710, Tempo, 845070
1, 483840, Tempo, 779220
1, 484720, Tempo, 789473
1, 485700, Tempo, 810810
1, 486720, Tempo, 779220
1, 487600, Tempo, 789473
1, 488580, Tempo, 810810
1, 489600, Tempo, 779220
1, 490480, Tempo, 789473
1, 492440, Tempo, 810810
1, 493360, Tempo, 821917
1, 494390, Tempo, 810810
1, 495320, Tempo, 821917
1, 495360, Tempo, 779220
1, 498120, Tempo, 789473
1, 498240, Tempo, 779220
1, 499120, Tempo, 789473
1, 499280, Tempo, 779220
1, 501000, Tempo, 789473
1, 501120, Tempo, 779220
1, 501945, Tempo, 789473
1, 502980, Tempo, 810810
1, 503895, Tempo, 821917
1, 504920, Tempo, 845070
1, 505080, Tempo, 810810
1, 506840, Tempo, 821917
1, 506880, Tempo, 779220
1, 507760, Tempo, 789473
1, 509720, Tempo, 810810
1, 509760, Tempo, 779220
1, 510640, Tempo, 789473
1, 512600, Tempo, 810810
1, 512640, Tempo, 779220
1, 513520, Tempo, 789473
1, 514500, Tempo, 810810
1, 515480, Tempo, 800000
1, 515720, Tempo, 821917
1, 515760, Tempo, 800000
1, 517370, Tempo, 810810
1, 518400, Tempo, 821917
1, 520280, Tempo, 845070
1, 521160, Tempo, 869565
1, 523560, Tempo, 895522
1, 523695, Tempo, 1071428
1, 527040, Time_signature, 2, 2, 24, 8
1, 527040, Tempo, 1276595
1, 527040, Marker_t, "(3) "
1, 527760, Tempo, 600000
1, 527960, Tempo, 606060
1, 528000, Tempo, 600000
1, 534440, Tempo, 606060
1, 534600, Tempo, 625000
1, 535200, Tempo, 659340
1, 535440, Tempo, 600000
1, 535640, Tempo, 606060
1, 535680, Tempo, 600000
1, 541380, Tempo, 606060
1, 542160, Tempo, 612244
1, 542360, Tempo, 625000
1, 542400, Tempo, 600000
1, 544260, Tempo, 606060
1, 545220, Tempo, 612244
1, 545480, Tempo, 625000
1, 545520, Tempo, 600000
1, 550040, Tempo, 612244
1, 550080, Tempo, 606060
1, 551960, Tempo, 612244
1, 552000, Tempo, 606060
1, 552900, Tempo, 612244
1, 553400, Tempo, 625000
1, 553440, Tempo, 600000
1, 557720, Tempo, 612244
1, 557760, Tempo, 606060
1, 559640, Tempo, 612244
1, 559680, Tempo, 606060
1, 561520, Tempo, 612244
1, 561600, Tempo, 606060
1, 563460, Tempo, 612244
1, 564440, Tempo, 625000
1, 564680, Tempo, 638297
1, 564720, Tempo, 600000
1, 565400, Tempo, 612244
1, 565440, Tempo, 600000
1, 567300, Tempo, 606060
1, 568260, Tempo, 612244
1, 569240, Tempo, 625000
1, 569280, Tempo, 600000
1, 571140, Tempo, 606060
1, 572100, Tempo, 612244
1, 573080, Tempo, 625000
1, 573120, Tempo, 600000
1, 574980, Tempo, 606060
1, 576910, Tempo, 612244
1, 582680, Tempo, 659340
1, 582720, Tempo, 600000
1, 587520, Tempo, 355029
1, 587580, Tempo, 400000
1, 587760, Tempo, 600000
1, 588360, Tempo, 1132075
1, 588457, Tempo, 1176470
1, 588480, Tempo, 612244
1, 590360, Tempo, 625000
1, 590400, Tempo, 606060
1, 593240, Tempo, 659340
1, 593280, Tempo, 600000
1, 597320, Tempo, 612244
1, 597360, Tempo, 600000
1, 598280, Tempo, 612244
1, 598320, Tempo, 600000
1, 599000, Tempo, 612244
1, 599040, Tempo, 600000
1, 599960, Tempo, 612244
1, 600920, Tempo, 625000
1, 600960, Tempo, 659340
1, 601440, Tempo, 600000
1, 603780, Tempo, 606060
1, 604760, Tempo, 612244
1, 605220, Tempo, 625000
1, 605280, Tempo, 600000
1, 607560, Tempo, 606060
1, 608600, Tempo, 612244
1, 608640, Tempo, 600000
1, 612440, Tempo, 612244
1, 612720, Tempo, 600000
1, 616280, Tempo, 769230
1, 616320, Tempo, 600000
1, 622760, Tempo, 612244
1, 622930, Tempo, 625000
1, 623510, Tempo, 612244
1, 623580, Tempo, 600000
1, 629700, Tempo, 606060
1, 630480, Tempo, 612244
1, 630680, Tempo, 625000
1, 630720, Tempo, 600000
1, 632580, Tempo, 606060
1, 633560, Tempo, 659340
1, 633600, Tempo, 600000
1, 637520, Tempo, 612244
1, 637560, Tempo, 612244
1, 638360, Tempo, 705882
1, 638400, Tempo, 600000
1, 641220, Tempo, 606060
1, 642200, Tempo, 612244
1, 642240, Tempo, 600000
1, 645060, Tempo, 606060
1, 646040, Tempo, 612244
1, 646080, Tempo, 600000
1, 648900, Tempo, 606060
1, 649880, Tempo, 612244
1, 649920, Tempo, 600000
1, 651780, Tempo, 606060
1, 652760, Tempo, 612244
1, 652800, Tempo, 600000
1, 653720, Tempo, 612244
1, 653760, Tempo, 600000
1, 653960, Tempo, 612244
1, 654000, Tempo, 600000
1, 654680, Tempo, 612244
1, 654720, Tempo, 600000
1, 655640, Tempo, 612244
1, 655680, Tempo, 600000
1, 655880, Tempo, 612244
1, 655920, Tempo, 600000
1, 656600, Tempo, 612244
1, 656640, Tempo, 600000
1, 658320, Tempo, 606060
1, 658520, Tempo, 612244
1, 658560, Tempo, 600000
1, 660420, Tempo, 606060
1, 663320, Tempo, 612244
1, 663360, Tempo, 600000
1, 663560, Tempo, 625000
1, 664280, Tempo, 674157
1, 664320, Tempo, 600000
1, 666180, Tempo, 606060
1, 667160, Tempo, 612244
1, 668120, Tempo, 625000
1, 668160, Tempo, 600000
1, 670040, Tempo, 606060
1, 671000, Tempo, 612244
1, 671960, Tempo, 625000
1, 672000, Tempo, 600000
1, 673880, Tempo, 606060
1, 674840, Tempo, 612244
1, 675800, Tempo, 625000
1, 675840, Tempo, 600000
1, 677720, Tempo, 612244
1, 682520, Tempo, 659340
1, 682560, Tempo, 600000
1, 687360, Tempo, 355029
1, 687420, Tempo, 400000
1, 687600, Tempo, 600000
1, 688200, Tempo, 1132075
1, 688297, Tempo, 1176470
1, 688320, Tempo, 612244
1, 690200, Tempo, 638297
1, 690240, Tempo, 600000
1, 693080, Tempo, 659340
1, 693120, Tempo, 600000
1, 697160, Tempo, 612244
1, 697200, Tempo, 600000
1, 698120, Tempo, 612244
1, 698160, Tempo, 600000
1, 698840, Tempo, 612244
1, 698880, Tempo, 600000
1, 700520, Tempo, 612244
1, 700560, Tempo, 600000
1, 702440, Tempo, 612244
1, 702480, Tempo, 600000
1, 704600, Tempo, 612244
1, 704640, Tempo, 600000
1, 705560, Tempo, 612244
1, 705770, Tempo, 821917
1, 705840, Tempo, 1176470
1, 706680, Tempo, 625000
1, 706740, Tempo, 612244
1, 708300, Tempo, 625000
1, 708330, Tempo, 731707
1, 708480, Tempo, 600000
1, 714920, Tempo, 606060
1, 715080, Tempo, 625000
1, 715680, Tempo, 674157
1, 715800, Tempo, 600000
1, 721910, Tempo, 606060
1, 722640, Tempo, 612244
1, 722840, Tempo, 638297
1, 722880, Tempo, 600000
1, 724740, Tempo, 606060
1, 725520, Tempo, 612244
1, 725720, Tempo, 638297
1, 725760, Tempo, 600000
1, 728600, Tempo, 612244
1, 728640, Tempo, 652173
1, 729120, Tempo, 600000
1, 731880, Tempo, 612244
1, 732000, Tempo, 600000
1, 732680, Tempo, 612244
1, 732720, Tempo, 600000
1, 733380, Tempo, 606060
1, 733440, Tempo, 600000
1, 734360, Tempo, 612244
1, 734400, Tempo, 606060
1, 735320, Tempo, 625000
1, 735800, Tempo, 625000
1, 735840, Tempo, 600000
1, 736520, Tempo, 612244
1, 736560, Tempo, 600000
1, 737240, Tempo, 612244
1, 737280, Tempo, 600000
1, 738180, Tempo, 606060
1, 738960, Tempo, 612244
1, 739160, Tempo, 612244
1, 739200, Tempo, 600000
1, 743240, Tempo, 612244
1, 743280, Tempo, 600000
1, 744200, Tempo, 612244
1, 744240, Tempo, 600000
1, 745160, Tempo, 612244
1, 745200, Tempo, 600000
1, 745880, Tempo, 612244
1, 745920, Tempo, 600000
1, 747800, Tempo, 612244
1, 749720, Tempo, 625000
1, 750680, Tempo, 638297
1, 750720, Tempo, 625000
1, 751640, Tempo, 638297
1, 751680, Tempo, 612244
1, 751880, Tempo, 625000
1, 751920, Tempo, 612244
1, 756960, Tempo, 606060
1, 757400, Tempo, 625000
1, 757440, Tempo, 612244
1, 759320, Tempo, 625000
1, 759360, Tempo, 612244
1, 760280, Tempo, 625000
1, 760320, Tempo, 612244
1, 761050, Tempo, 674157
1, 761280, Tempo, 705882
1, 762000, Tempo, 638297
1, 762200, Tempo, 652173
1, 762240, Tempo, 638297
1, 764120, Tempo, 652173
1, 764160, Tempo, 638297
1, 766040, Tempo, 652173
1, 766080, Tempo, 638297
1, 767000, Tempo, 659340
1, 767040, Tempo, 638297
1, 767960, Tempo, 652173
1, 768200, Tempo, 722891
1, 768440, Tempo, 731707
1, 768680, Tempo, 810810
1, 768860, Tempo, 1818181
1, 768860, End_track
2, 0, Start_track
2, 0, Title_t, "Unnamed Track"
2, 0, Control_c, 1, 0, 0
2, 0, Control_c, 1, 32, 0
2, 0, Program_c, 1, 0
2, 0, Control_c, 1, 64, 0
2, 0, Control_c, 1, 7, 127
2, 0, Pitch_bend_c, 1, 8192
2, 0, Control_c, 1, 1, 0
2, 0, Control_c, 1, 1, 0
2, 0, Pitch_bend_c, 1, 8192
2, 0, Control_c, 1, 93, 18
2, 0, Pitch_bend_c, 1, 8192
2, 0, Control_c, 1, 93, 28
2, 0, Control_c, 1, 91, 100
2, 0, Control_c, 1, 10, 73
2, 1920, Control_c, 1, 64, 127
2, 2040, Note_on_c, 1, 72, 71
2, 2675, Note_off_c, 1, 72, 0
2, 2820, Control_c, 1, 64, 0
2, 2880, Note_on_c, 1, 67, 74
2, 3720, Note_off_c, 1, 67, 0
2, 3840, Note_on_c, 1, 76, 77
2, 4560, Note_on_c, 1, 77, 70
2, 4565, Note_off_c, 1, 76, 0
2, 4680, Note_off_c, 1, 77, 0
2, 4680, Note_on_c, 1, 74, 70
2, 4800, Note_off_c, 1, 74, 0
2, 4800, Note_on_c, 1, 72, 69
2, 5220, Note_off_c, 1, 72, 0
2, 5760, Note_on_c, 1, 79, 58
2, 6070, Note_off_c, 1, 79, 0
2, 6240, Note_on_c, 1, 79, 58
2, 6550, Note_off_c, 1, 79, 0
2, 7200, Note_on_c, 1, 81, 56
2, 7585, Note_off_c, 1, 81, 0
2, 7680, Note_on_c, 1, 79, 60
2, 7920, Note_off_c, 1, 79, 0
2, 7920, Note_on_c, 1, 77, 58
2, 8045, Note_off_c, 1, 77, 0
2, 8160, Note_on_c, 1, 77, 56
2, 8470, Note_off_c, 1, 77, 0
2, 9120, Note_on_c, 1, 79, 55
2, 9505, Note_off_c, 1, 79, 0
2, 9600, Note_on_c, 1, 77, 58
2, 9840, Note_off_c, 1, 77, 0
2, 9840, Note_on_c, 1, 76, 56
2, 9960, Note_off_c, 1, 76, 0
2, 10080, Note_on_c, 1, 76, 54
2, 10390, Note_off_c, 1, 76, 0
2, 11040, Note_on_c, 1, 79, 52
2, 11280, Note_off_c, 1, 79, 0
2, 11280, Note_on_c, 1, 76, 54
2, 11465, Note_off_c, 1, 76, 0
2, 11520, Note_on_c, 1, 73, 57
2, 11760, Note_off_c, 1, 73, 0
2, 11760, Note_on_c, 1, 74, 53
2, 12000, Note_off_c, 1, 74, 0
2, 12000, Note_on_c, 1, 77, 54
2, 12240, Note_off_c, 1, 77, 0
2, 12240, Note_on_c, 1, 76, 54
2, 12450, Note_off_c, 1, 76, 0
2, 12480, Note_on_c, 1, 73, 58
2, 12720, Note_off_c, 1, 73, 0
2, 12720, Note_on_c, 1, 74, 56
2, 12960, Note_off_c, 1, 74, 0
2, 12960, Note_on_c, 1, 77, 57
2, 13200, Note_off_c, 1, 77, 0
2, 13200, Note_on_c, 1, 76, 58
2, 13410, Note_off_c, 1, 76, 0
2, 13440, Note_on_c, 1, 73, 64
2, 13680, Note_off_c, 1, 73, 0
2, 13680, Note_on_c, 1, 74, 60
2, 13920, Note_off_c, 1, 74, 0
2, 13920, Note_on_c, 1, 77, 61
2, 14160, Note_off_c, 1, 77, 0
2, 14160, Note_on_c, 1, 81, 62
2, 14400, Note_off_c, 1, 81, 0
2, 14400, Note_on_c, 1, 79, 62
2, 14640, Note_off_c, 1, 79, 0
2, 14640, Note_on_c, 1, 76, 63
2, 14880, Note_off_c, 1, 76, 0
2, 14880, Note_on_c, 1, 77, 64
2, 15120, Note_off_c, 1, 77, 0
2, 15120, Note_on_c, 1, 74, 65
2, 15330, Note_off_c, 1, 74, 0
2, 15360, Control_c, 1, 64, 127
2, 15480, Note_on_c, 1, 72, 68
2, 16115, Note_off_c, 1, 72, 0
2, 16260, Control_c, 1, 64, 0
2, 16320, Note_on_c, 1, 67, 71
2, 17160, Note_off_c, 1, 67, 0
2, 17280, Note_on_c, 1, 76, 74
2, 18000, Note_off_c, 1, 76, 0
2, 18000, Note_on_c, 1, 77, 68
2, 18120, Note_off_c, 1, 77, 0
2, 18120, Note_on_c, 1, 74, 67
2, 18240, Note_off_c, 1, 74, 0
2, 18240, Note_on_c, 1, 72, 67
2, 18660, Note_off_c, 1, 72, 0
2, 19200, Note_on_c, 1, 79, 56
2, 19510, Note_off_c, 1, 79, 0
2, 19680, Note_on_c, 1, 79, 55
2, 19990, Note_off_c, 1, 79, 0
2, 20640, Note_on_c, 1, 81, 56
2, 21025, Note_off_c, 1, 81, 0
2, 21120, Note_on_c, 1, 79, 58
2, 21360, Note_off_c, 1, 79, 0
2, 21360, Note_on_c, 1, 77, 55
2, 21485, Note_off_c, 1, 77, 0
2, 21600, Note_on_c, 1, 77, 52
2, 21910, Note_off_c, 1, 77, 0
2, 22320, Note_on_c, 1, 78, 51
2, 22560, Note_off_c, 1, 78, 0
2, 22560, Note_on_c, 1, 81, 53
2, 22800, Note_off_c, 1, 81, 0
2, 22800, Note_on_c, 1, 79, 54
2, 23010, Note_off_c, 1, 79, 0
2, 23040, Note_on_c, 1, 77, 57
2, 23280, Note_off_c, 1, 77, 0
2, 23280, Note_on_c, 1, 76, 54
2, 23400, Note_off_c, 1, 76, 0
2, 23520, Note_on_c, 1, 76, 52
2, 23830, Note_off_c, 1, 76, 0
2, 24240, Note_on_c, 1, 76, 47
2, 24480, Note_off_c, 1, 76, 0
2, 24480, Note_on_c, 1, 79, 50
2, 24720, Note_off_c, 1, 79, 0
2, 24720, Note_on_c, 1, 76, 53
2, 24930, Note_off_c, 1, 76, 0
2, 24960, Note_on_c, 1, 73, 64
2, 25680, Note_off_c, 1, 73, 0
2, 25680, Note_on_c, 1, 74, 60
2, 25800, Note_off_c, 1, 74, 0
2, 25800, Note_on_c, 1, 76, 59
2, 25920, Note_off_c, 1, 76, 0
2, 25920, Note_on_c, 1, 74, 58
2, 26340, Note_off_c, 1, 74, 0
2, 26640, Note_on_c, 1, 77, 67
2, 26825, Note_off_c, 1, 77, 0
2, 26880, Note_on_c, 1, 76, 70
2, 27600, Note_off_c, 1, 76, 0
2, 27600, Note_on_c, 1, 77, 66
2, 27720, Note_off_c, 1, 77, 0
2, 27720, Note_on_c, 1, 79, 64
2, 27840, Note_off_c, 1, 79, 0
2, 27840, Note_on_c, 1, 77, 63
2, 28265, Note_off_c, 1, 77, 0
2, 28800, Note_on_c, 1, 84, 79
2, 28990, Note_off_c, 1, 84, 0
2, 29040, Note_on_c, 1, 84, 77
2, 29230, Note_off_c, 1, 84, 0
2, 29280, Note_on_c, 1, 84, 76
2, 30050, Note_off_c, 1, 84, 0
2, 30240, Note_on_c, 1, 83, 69
2, 30480, Note_off_c, 1, 83, 0
2, 30480, Note_on_c, 1, 81, 68
2, 30690, Note_off_c, 1, 81, 0
2, 30720, Note_on_c, 1, 79, 75
2, 30910, Note_off_c, 1, 79, 0
2, 30960, Note_on_c, 1, 79, 73
2, 31150, Note_off_c, 1, 79, 0
2, 31200, Note_on_c, 1, 79, 72
2, 31970, Note_off_c, 1, 79, 0
2, 32160, Note_on_c, 1, 77, 64
2, 32400, Note_off_c, 1, 77, 0
2, 32400, Note_on_c, 1, 76, 62
2, 32760, Note_on_c, 1, 74, 59
2, 32765, Note_off_c, 1, 76, 0
2, 32880, Note_off_c, 1, 74, 0
2, 32880, Note_on_c, 1, 77, 58
2, 33000, Note_off_c, 1, 77, 0
2, 33000, Note_on_c, 1, 76, 57
2, 33120, Note_off_c, 1, 76, 0
2, 33120, Note_on_c, 1, 79, 56
2, 33240, Note_off_c, 1, 79, 0
2, 33240, Note_on_c, 1, 77, 55
2, 33360, Note_off_c, 1, 77, 0
2, 33360, Note_on_c, 1, 76, 54
2, 33480, Note_off_c, 1, 76, 0
2, 33480, Note_on_c, 1, 74, 53
2, 33600, Note_off_c, 1, 74, 0
2, 33600, Note_on_c, 1, 72, 52
2, 34080, Note_off_c, 1, 72, 0
2, 34080, Note_on_c, 1, 71, 49
2, 34160, Note_off_c, 1, 71, 0
2, 34160, Note_on_c, 1, 72, 48
2, 34240, Note_off_c, 1, 72, 0
2, 34240, Note_on_c, 1, 71, 47
2, 34320, Note_off_c, 1, 71, 0
2, 34320, Note_on_c, 1, 69, 47
2, 34440, Note_off_c, 1, 69, 0
2, 34440, Note_on_c, 1, 71, 46
2, 34560, Note_off_c, 1, 71, 0
2, 34560, Note_on_c, 1, 84, 73
2, 34750, Note_off_c, 1, 84, 0
2, 34800, Note_on_c, 1, 84, 72
2, 34990, Note_off_c, 1, 84, 0
2, 35040, Note_on_c, 1, 84, 71
2, 35715, Note_off_c, 1, 84, 0
2, 35760, Note_on_c, 1, 86, 62
2, 35880, Note_off_c, 1, 86, 0
2, 35880, Note_on_c, 1, 84, 61
2, 36000, Note_off_c, 1, 84, 0
2, 36000, Note_on_c, 1, 83, 60
2, 36240, Note_off_c, 1, 83, 0
2, 36240, Note_on_c, 1, 81, 58
2, 36455, Note_off_c, 1, 81, 0
2, 36480, Note_on_c, 1, 79, 71
2, 36670, Note_off_c, 1, 79, 0
2, 36720, Note_on_c, 1, 79, 70
2, 36910, Note_off_c, 1, 79, 0
2, 36960, Note_on_c, 1, 79, 68
2, 37625, Note_off_c, 1, 79, 0
2, 37680, Note_on_c, 1, 81, 59
2, 37800, Note_off_c, 1, 81, 0
2, 37800, Note_on_c, 1, 79, 59
2, 37920, Note_off_c, 1, 79, 0
2, 37920, Note_on_c, 1, 77, 58
2, 38160, Note_off_c, 1, 77, 0
2, 38160, Note_on_c, 1, 76, 57
2, 38520, Note_on_c, 1, 74, 54
2, 38525, Note_off_c, 1, 76, 0
2, 38640, Note_off_c, 1, 74, 0
2, 38640, Note_on_c, 1, 81, 54
2, 38760, Note_off_c, 1, 81, 0
2, 38760, Note_on_c, 1, 80, 53
2, 38880, Note_off_c, 1, 80, 0
2, 38880, Note_on_c, 1, 83, 52
2, 39000, Note_off_c, 1, 83, 0
2, 39000, Note_on_c, 1, 81, 52
2, 39120, Note_off_c, 1, 81, 0
2, 39120, Note_on_c, 1, 79, 51
2, 39240, Note_off_c, 1, 79, 0
2, 39240, Note_on_c, 1, 77, 50
2, 39360, Note_off_c, 1, 77, 0
2, 39360, Note_on_c, 1, 76, 49
2, 39840, Note_off_c, 1, 76, 0
2, 39840, Note_on_c, 1, 74, 47
2, 39920, Note_off_c, 1, 74, 0
2, 39920, Note_on_c, 1, 76, 46
2, 40000, Note_off_c, 1, 76, 0
2, 40000, Note_on_c, 1, 74, 46
2, 40080, Note_off_c, 1, 74, 0
2, 40080, Note_on_c, 1, 72, 45
2, 40200, Note_off_c, 1, 72, 0
2, 40200, Note_on_c, 1, 74, 44
2, 40320, Note_off_c, 1, 74, 0
2, 40320, Note_on_c, 1, 72, 56
2, 40800, Note_off_c, 1, 72, 0
2, 40980, Note_on_c, 1, 74, 38
2, 41040, Note_off_c, 1, 74, 0
2, 41040, Note_on_c, 1, 72, 38
2, 41160, Note_off_c, 1, 72, 0
2, 41160, Note_on_c, 1, 71, 39
2, 41280, Note_off_c, 1, 71, 0
2, 41280, Note_on_c, 1, 72, 39
2, 41435, Note_off_c, 1, 72, 0
2, 41520, Note_on_c, 1, 75, 41
2, 41675, Note_off_c, 1, 75, 0
2, 41760, Note_on_c, 1, 76, 42
2, 41915, Note_off_c, 1, 76, 0
2, 42000, Note_on_c, 1, 78, 43
2, 42155, Note_off_c, 1, 78, 0
2, 42240, Note_on_c, 1, 79, 45
2, 42395, Note_off_c, 1, 79, 0
2, 42480, Note_on_c, 1, 83, 46
2, 42635, Note_off_c, 1, 83, 0
2, 42720, Note_on_c, 1, 84, 47
2, 42875, Note_off_c, 1, 84, 0
2, 42960, Note_on_c, 1, 87, 48
2, 43115, Note_off_c, 1, 87, 0
2, 43200, Note_on_c, 1, 88, 50
2, 43680, Note_off_c, 1, 88, 0
2, 44240, Note_on_c, 1, 86, 64
2, 44625, Note_off_c, 1, 86, 0
2, 44820, Note_on_c, 1, 72, 50
2, 44880, Note_off_c, 1, 72, 0
2, 44880, Note_on_c, 1, 71, 50
2, 45000, Note_off_c, 1, 71, 0
2, 45000, Note_on_c, 1, 69, 50
2, 45120, Note_off_c, 1, 69, 0
2, 45120, Note_on_c, 1, 71, 50
2, 45275, Note_off_c, 1, 71, 0
2, 45360, Note_on_c, 1, 73, 52
2, 45515, Note_off_c, 1, 73, 0
2, 45600, Note_on_c, 1, 74, 53
2, 45755, Note_off_c, 1, 74, 0
2, 45840, Note_on_c, 1, 78, 54
2, 45995, Note_off_c, 1, 78, 0
2, 46080, Note_on_c, 1, 79, 56
2, 46235, Note_off_c, 1, 79, 0
2, 46320, Note_on_c, 1, 82, 57
2, 46475, Note_off_c, 1, 82, 0
2, 46560, Note_on_c, 1, 83, 59
2, 46715, Note_off_c, 1, 83, 0
2, 46800, Note_on_c, 1, 85, 60
2, 46955, Note_off_c, 1, 85, 0
2, 47040, Note_on_c, 1, 86, 61
2, 47520, Note_off_c, 1, 86, 0
2, 48120, Note_on_c, 1, 84, 76
2, 48480, Note_off_c, 1, 84, 0
2, 48680, Note_on_c, 1, 71, 62
2, 48720, Note_on_c, 1, 69, 62
2, 48740, Note_off_c, 1, 71, 0
2, 48840, Note_off_c, 1, 69, 0
2, 48840, Note_on_c, 1, 68, 62
2, 48960, Note_off_c, 1, 68, 0
2, 48960, Note_on_c, 1, 69, 62
2, 49115, Note_off_c, 1, 69, 0
2, 49200, Note_on_c, 1, 71, 63
2, 49355, Note_off_c, 1, 71, 0
2, 49440, Note_on_c, 1, 72, 64
2, 49595, Note_off_c, 1, 72, 0
2, 49680, Note_on_c, 1, 77, 65
2, 49835, Note_off_c, 1, 77, 0
2, 49920, Note_on_c, 1, 78, 66
2, 50075, Note_off_c, 1, 78, 0
2, 50160, Note_on_c, 1, 80, 68
2, 50315, Note_off_c, 1, 80, 0
2, 50400, Note_on_c, 1, 81, 69
2, 50555, Note_off_c, 1, 81, 0
2, 50640, Note_on_c, 1, 83, 70
2, 50795, Note_off_c, 1, 83, 0
2, 50880, Note_on_c, 1, 84, 71
2, 51360, Note_off_c, 1, 84, 0
2, 51840, Note_on_c, 1, 86, 70
2, 51960, Note_off_c, 1, 86, 0
2, 51960, Note_on_c, 1, 84, 70
2, 52080, Note_off_c, 1, 84, 0
2, 52080, Note_on_c, 1, 83, 70
2, 52200, Note_off_c, 1, 83, 0
2, 52200, Note_on_c, 1, 81, 71
2, 52305, Note_off_c, 1, 81, 0
2, 52320, Note_on_c, 1, 81, 71
2, 52440, Note_off_c, 1, 81, 0
2, 52440, Note_on_c, 1, 79, 71
2, 52560, Note_off_c, 1, 79, 0
2, 52560, Note_on_c, 1, 78, 72
2, 52680, Note_off_c, 1, 78, 0
2, 52680, Note_on_c, 1, 76, 72
2, 52785, Note_off_c, 1, 76, 0
2, 52920, Note_on_c, 1, 84, 78
2, 53730, Note_off_c, 1, 84, 0
2, 53760, Note_on_c, 1, 84, 74
2, 53880, Note_off_c, 1, 84, 0
2, 53880, Note_on_c, 1, 83, 75
2, 54000, Note_off_c, 1, 83, 0
2, 54000, Note_on_c, 1, 81, 75
2, 54120, Note_off_c, 1, 81, 0
2, 54120, Note_on_c, 1, 79, 75
2, 54215, Note_off_c, 1, 79, 0
2, 54240, Note_on_c, 1, 79, 76
2, 54360, Note_off_c, 1, 79, 0
2, 54360, Note_on_c, 1, 78, 76
2, 54480, Note_off_c, 1, 78, 0
2, 54480, Note_on_c, 1, 76, 76
2, 54600, Note_off_c, 1, 76, 0
2, 54600, Note_on_c, 1, 74, 77
2, 54695, Note_off_c, 1, 74, 0
2, 54840, Note_on_c, 1, 84, 80
2, 55640, Note_off_c, 1, 84, 0
2, 55680, Note_on_c, 1, 83, 77
2, 55800, Note_off_c, 1, 83, 0
2, 55800, Note_on_c, 1, 81, 76
2, 55920, Note_off_c, 1, 81, 0
2, 55920, Note_on_c, 1, 84, 76
2, 56040, Note_off_c, 1, 84, 0
2, 56040, Note_on_c, 1, 83, 75
2, 56160, Note_off_c, 1, 83, 0
2, 56160, Note_on_c, 1, 86, 74
2, 56280, Note_off_c, 1, 86, 0
2, 56400, Note_on_c, 1, 78, 72
2, 56520, Note_off_c, 1, 78, 0
2, 56640, Note_on_c, 1, 79, 75
2, 56760, Note_off_c, 1, 79, 0
2, 56760, Note_on_c, 1, 78, 74
2, 56880, Note_off_c, 1, 78, 0
2, 56880, Note_on_c, 1, 81, 73
2, 57000, Note_off_c, 1, 81, 0
2, 57000, Note_on_c, 1, 79, 72
2, 57120, Note_off_c, 1, 79, 0
2, 57120, Note_on_c, 1, 83, 71
2, 57240, Note_off_c, 1, 83, 0
2, 57360, Note_on_c, 1, 75, 68
2, 57480, Note_off_c, 1, 75, 0
2, 57600, Note_on_c, 1, 76, 73
2, 57720, Note_off_c, 1, 76, 0
2, 57720, Note_on_c, 1, 75, 72
2, 57840, Note_off_c, 1, 75, 0
2, 57840, Note_on_c, 1, 78, 71
2, 57960, Note_off_c, 1, 78, 0
2, 57960, Note_on_c, 1, 76, 69
2, 58080, Note_off_c, 1, 76, 0
2, 58080, Note_on_c, 1, 79, 68
2, 58200, Note_off_c, 1, 79, 0
2, 58320, Note_on_c, 1, 71, 66
2, 58440, Note_off_c, 1, 71, 0
2, 58560, Note_on_c, 1, 72, 71
2, 58680, Note_off_c, 1, 72, 0
2, 58680, Note_on_c, 1, 71, 70
2, 58800, Note_off_c, 1, 71, 0
2, 58800, Note_on_c, 1, 74, 68
2, 58920, Note_off_c, 1, 74, 0
2, 58920, Note_on_c, 1, 72, 67
2, 59040, Note_off_c, 1, 72, 0
2, 59040, Note_on_c, 1, 76, 66
2, 59160, Note_off_c, 1, 76, 0
2, 59280, Note_on_c, 1, 68, 63
2, 59400, Note_off_c, 1, 68, 0
2, 59520, Note_on_c, 1, 69, 67
2, 59880, Note_on_c, 1, 71, 66
2, 59905, Note_off_c, 1, 69, 0
2, 59975, Note_off_c, 1, 71, 0
2, 60000, Note_on_c, 1, 72, 66
2, 60360, Note_on_c, 1, 71, 65
2, 60385, Note_off_c, 1, 72, 0
2, 60455, Note_off_c, 1, 71, 0
2, 60480, Note_on_c, 1, 69, 65
2, 60840, Note_on_c, 1, 67, 64
2, 60865, Note_off_c, 1, 69, 0
2, 60935, Note_off_c, 1, 67, 0
2, 60960, Note_on_c, 1, 66, 63
2, 61320, Note_on_c, 1, 64, 62
2, 61345, Note_off_c, 1, 66, 0
2, 61415, Note_off_c, 1, 64, 0
2, 61440, Note_on_c, 1, 62, 63
2, 61680, Note_off_c, 1, 62, 0
2, 61680, Note_on_c, 1, 66, 61
2, 61800, Note_off_c, 1, 66, 0
2, 61800, Note_on_c, 1, 69, 59
2, 61920, Note_off_c, 1, 69, 0
2, 61920, Note_on_c, 1, 74, 58
2, 62075, Note_off_c, 1, 74, 0
2, 62160, Note_on_c, 1, 74, 55
2, 62315, Note_off_c, 1, 74, 0
2, 62400, Note_on_c, 1, 74, 53
2, 62825, Note_off_c, 1, 74, 0
2, 67200, Note_on_c, 1, 83, 47
2, 67355, Note_off_c, 1, 83, 0
2, 67440, Note_on_c, 1, 84, 45
2, 67595, Note_off_c, 1, 84, 0
2, 67680, Note_on_c, 1, 86, 44
2, 67835, Note_off_c, 1, 86, 0
2, 67920, Note_on_c, 1, 83, 42
2, 68075, Note_off_c, 1, 83, 0
2, 68160, Note_on_c, 1, 79, 40
2, 68930, Note_off_c, 1, 79, 0
2, 69120, Note_on_c, 1, 81, 47
2, 69275, Note_off_c, 1, 81, 0
2, 69360, Note_on_c, 1, 83, 46
2, 69515, Note_off_c, 1, 83, 0
2, 69600, Note_on_c, 1, 84, 44
2, 69755, Note_off_c, 1, 84, 0
2, 69840, Note_on_c, 1, 81, 42
2, 69995, Note_off_c, 1, 81, 0
2, 70080, Note_on_c, 1, 78, 41
2, 70850, Note_off_c, 1, 78, 0
2, 71040, Note_on_c, 1, 79, 49
2, 71160, Note_off_c, 1, 79, 0
2, 71160, Note_on_c, 1, 78, 49
2, 71465, Note_off_c, 1, 78, 0
2, 71520, Note_on_c, 1, 76, 47
2, 71640, Note_off_c, 1, 76, 0
2, 71640, Note_on_c, 1, 74, 46
2, 71945, Note_off_c, 1, 74, 0
2, 72000, Note_on_c, 1, 71, 45
2, 72120, Note_off_c, 1, 71, 0
2, 72120, Note_on_c, 1, 72, 44
2, 72425, Note_off_c, 1, 72, 0
2, 72960, Note_on_c, 1, 72, 49
2, 73080, Note_off_c, 1, 72, 0
2, 73080, Note_on_c, 1, 71, 49
2, 73385, Note_off_c, 1, 71, 0
2, 73440, Note_on_c, 1, 69, 48
2, 73560, Note_off_c, 1, 69, 0
2, 73560, Note_on_c, 1, 67, 47
2, 73860, Note_off_c, 1, 67, 0
2, 73920, Note_on_c, 1, 71, 46
2, 74040, Note_off_c, 1, 71, 0
2, 74040, Note_on_c, 1, 69, 46
2, 74345, Note_off_c, 1, 69, 0
2, 74880, Note_on_c, 1, 83, 53
2, 75035, Note_off_c, 1, 83, 0
2, 75120, Note_on_c, 1, 84, 52
2, 75275, Note_off_c, 1, 84, 0
2, 75360, Note_on_c, 1, 86, 51
2, 75515, Note_off_c, 1, 86, 0
2, 75600, Note_on_c, 1, 83, 49
2, 75755, Note_off_c, 1, 83, 0
2, 75840, Note_on_c, 1, 79, 48
2, 76610, Note_off_c, 1, 79, 0
2, 76800, Note_on_c, 1, 81, 57
2, 76955, Note_off_c, 1, 81, 0
2, 77040, Note_on_c, 1, 83, 55
2, 77195, Note_off_c, 1, 83, 0
2, 77280, Note_on_c, 1, 84, 54
2, 77435, Note_off_c, 1, 84, 0
2, 77520, Note_on_c, 1, 81, 52
2, 77675, Note_off_c, 1, 81, 0
2, 77760, Note_on_c, 1, 78, 51
2, 78530, Note_off_c, 1, 78, 0
2, 78720, Note_on_c, 1, 79, 57
2, 78840, Note_off_c, 1, 79, 0
2, 78840, Note_on_c, 1, 78, 57
2, 79145, Note_off_c, 1, 78, 0
2, 79200, Note_on_c, 1, 76, 55
2, 79320, Note_off_c, 1, 76, 0
2, 79320, Note_on_c, 1, 74, 55
2, 79625, Note_off_c, 1, 74, 0
2, 79680, Note_on_c, 1, 71, 53
2, 79800, Note_off_c, 1, 71, 0
2, 79800, Note_on_c, 1, 72, 53
2, 80105, Note_off_c, 1, 72, 0
2, 80640, Note_on_c, 1, 72, 59
2, 80760, Note_off_c, 1, 72, 0
2, 80760, Note_on_c, 1, 71, 58
2, 81065, Note_off_c, 1, 71, 0
2, 81120, Note_on_c, 1, 69, 57
2, 81240, Note_off_c, 1, 69, 0
2, 81240, Note_on_c, 1, 67, 56
2, 81540, Note_off_c, 1, 67, 0
2, 81600, Note_on_c, 1, 76, 55
2, 81720, Note_off_c, 1, 76, 0
2, 81720, Note_on_c, 1, 74, 54
2, 82025, Note_off_c, 1, 74, 0
2, 82560, Note_on_c, 1, 86, 71
2, 83520, Note_off_c, 1, 86, 0
2, 83520, Note_on_c, 1, 84, 66
2, 83675, Note_off_c, 1, 84, 0
2, 83760, Note_on_c, 1, 83, 65
2, 83915, Note_off_c, 1, 83, 0
2, 84000, Note_on_c, 1, 81, 63
2, 84155, Note_off_c, 1, 81, 0
2, 84240, Note_on_c, 1, 79, 62
2, 84395, Note_off_c, 1, 79, 0
2, 84480, Note_on_c, 1, 88, 73
2, 85440, Note_off_c, 1, 88, 0
2, 85440, Note_on_c, 1, 86, 67
2, 85595, Note_off_c, 1, 86, 0
2, 85680, Note_on_c, 1, 84, 65
2, 85835, Note_off_c, 1, 84, 0
2, 85920, Note_on_c, 1, 83, 64
2, 86075, Note_off_c, 1, 83, 0
2, 86160, Note_on_c, 1, 81, 62
2, 86315, Note_off_c, 1, 81, 0
2, 86400, Note_on_c, 1, 83, 55
2, 86520, Note_off_c, 1, 83, 0
2, 86520, Note_on_c, 1, 84, 53
2, 86640, Note_off_c, 1, 84, 0
2, 86640, Note_on_c, 1, 86, 52
2, 86760, Note_off_c, 1, 86, 0
2, 86760, Note_on_c, 1, 83, 50
2, 86880, Note_off_c, 1, 83, 0
2, 86880, Note_on_c, 1, 79, 49
2, 87000, Note_off_c, 1, 79, 0
2, 87360, Note_on_c, 1, 81, 57
2, 87480, Note_off_c, 1, 81, 0
2, 87480, Note_on_c, 1, 83, 56
2, 87600, Note_off_c, 1, 83, 0
2, 87600, Note_on_c, 1, 84, 55
2, 87720, Note_off_c, 1, 84, 0
2, 87720, Note_on_c, 1, 81, 54
2, 87840, Note_off_c, 1, 81, 0
2, 87840, Note_on_c, 1, 78, 53
2, 87960, Note_off_c, 1, 78, 0
2, 88320, Note_on_c, 1, 86, 79
2, 89280, Note_off_c, 1, 86, 0
2, 89280, Note_on_c, 1, 84, 74
2, 89400, Note_off_c, 1, 84, 0
2, 89400, Note_on_c, 1, 86, 74
2, 89520, Note_off_c, 1, 86, 0
2, 89520, Note_on_c, 1, 84, 73
2, 89640, Note_off_c, 1, 84, 0
2, 89640, Note_on_c, 1, 83, 72
2, 89760, Note_off_c, 1, 83, 0
2, 89760, Note_on_c, 1, 81, 72
2, 89880, Note_off_c, 1, 81, 0
2, 89880, Note_on_c, 1, 83, 71
2, 90000, Note_off_c, 1, 83, 0
2, 90000, Note_on_c, 1, 81, 71
2, 90120, Note_off_c, 1, 81, 0
2, 90120, Note_on_c, 1, 79, 70
2, 90240, Note_off_c, 1, 79, 0
2, 90240, Note_on_c, 1, 88, 79
2, 91200, Note_off_c, 1, 88, 0
2, 91200, Note_on_c, 1, 86, 75
2, 91320, Note_off_c, 1, 86, 0
2, 91320, Note_on_c, 1, 88, 75
2, 91440, Note_off_c, 1, 88, 0
2, 91440, Note_on_c, 1, 86, 74
2, 91560, Note_off_c, 1, 86, 0
2, 91560, Note_on_c, 1, 84, 74
2, 91680, Note_off_c, 1, 84, 0
2, 91680, Note_on_c, 1, 83, 73
2, 91800, Note_off_c, 1, 83, 0
2, 91800, Note_on_c, 1, 84, 73
2, 91920, Note_off_c, 1, 84, 0
2, 91920, Note_on_c, 1, 83, 72
2, 92040, Note_off_c, 1, 83, 0
2, 92040, Note_on_c, 1, 81, 72
2, 92160, Note_off_c, 1, 81, 0
2, 92160, Note_on_c, 1, 83, 79
2, 92400, Note_off_c, 1, 83, 0
2, 92400, Note_on_c, 1, 79, 64
2, 92590, Note_off_c, 1, 79, 0
2, 92640, Note_on_c, 1, 84, 80
2, 93025, Note_off_c, 1, 84, 0
2, 93120, Note_on_c, 1, 83, 65
2, 93360, Note_off_c, 1, 83, 0
2, 93360, Note_on_c, 1, 79, 66
2, 93550, Note_off_c, 1, 79, 0
2, 93600, Note_on_c, 1, 88, 82
2, 93985, Note_off_c, 1, 88, 0
2, 94080, Note_on_c, 1, 86, 67
2, 94320, Note_off_c, 1, 86, 0
2, 94320, Note_on_c, 1, 79, 68
2, 94510, Note_off_c, 1, 79, 0
2, 94560, Note_on_c, 1, 84, 84
2, 94945, Note_off_c, 1, 84, 0
2, 95040, Note_on_c, 1, 83, 70
2, 95280, Note_off_c, 1, 83, 0
2, 95280, Note_on_c, 1, 79, 70
2, 95470, Note_off_c, 1, 79, 0
2, 95520, Note_on_c, 1, 88, 84
2, 95905, Note_off_c, 1, 88, 0
2, 96000, Note_on_c, 1, 89, 84
2, 96770, Note_off_c, 1, 89, 0
2, 96960, Note_on_c, 1, 89, 88
2, 97345, Note_off_c, 1, 89, 0
2, 97440, Note_on_c, 1, 89, 89
2, 97825, Note_off_c, 1, 89, 0
2, 97920, Note_on_c, 1, 88, 91
2, 98160, Note_off_c, 1, 88, 0
2, 98160, Note_on_c, 1, 86, 89
2, 98350, Note_off_c, 1, 86, 0
2, 98400, Note_on_c, 1, 84, 86
2, 98480, Note_off_c, 1, 84, 0
2, 98480, Note_on_c, 1, 86, 86
2, 98560, Note_off_c, 1, 86, 0
2, 98560, Note_on_c, 1, 84, 85
2, 98640, Note_off_c, 1, 84, 0
2, 98640, Note_on_c, 1, 83, 84
2, 98830, Note_off_c, 1, 83, 0
2, 98880, Note_on_c, 1, 81, 82
2, 98960, Note_off_c, 1, 81, 0
2, 98960, Note_on_c, 1, 83, 81
2, 99040, Note_off_c, 1, 83, 0
2, 99040, Note_on_c, 1, 81, 81
2, 99120, Note_off_c, 1, 81, 0
2, 99120, Note_on_c, 1, 79, 80
2, 99310, Note_off_c, 1, 79, 0
2, 99360, Note_on_c, 1, 78, 78
2, 99440, Note_off_c, 1, 78, 0
2, 99440, Note_on_c, 1, 79, 77
2, 99520, Note_off_c, 1, 79, 0
2, 99520, Note_on_c, 1, 78, 76
2, 99600, Note_off_c, 1, 78, 0
2, 99600, Note_on_c, 1, 76, 75
2, 99790, Note_off_c, 1, 76, 0
2, 99840, Note_on_c, 1, 74, 76
2, 100080, Note_off_c, 1, 74, 0
2, 100080, Note_on_c, 1, 76, 77
2, 100200, Note_off_c, 1, 76, 0
2, 100200, Note_on_c, 1, 78, 77
2, 100320, Note_off_c, 1, 78, 0
2, 100320, Note_on_c, 1, 79, 78
2, 100440, Note_off_c, 1, 79, 0
2, 100440, Note_on_c, 1, 81, 78
2, 100560, Note_off_c, 1, 81, 0
2, 100560, Note_on_c, 1, 83, 79
2, 100680, Note_off_c, 1, 83, 0
2, 100680, Note_on_c, 1, 84, 79
2, 100800, Note_off_c, 1, 84, 0
2, 100800, Note_on_c, 1, 86, 79
2, 100920, Note_off_c, 1, 86, 0
2, 100920, Note_on_c, 1, 84, 80
2, 101040, Note_off_c, 1, 84, 0
2, 101040, Note_on_c, 1, 83, 80
2, 101160, Note_off_c, 1, 83, 0
2, 101160, Note_on_c, 1, 84, 81
2, 101280, Note_off_c, 1, 84, 0
2, 101280, Note_on_c, 1, 86, 81
2, 101400, Note_off_c, 1, 86, 0
2, 101400, Note_on_c, 1, 83, 81
2, 101520, Note_off_c, 1, 83, 0
2, 101520, Note_on_c, 1, 81, 82
2, 101640, Note_off_c, 1, 81, 0
2, 101640, Note_on_c, 1, 79, 82
2, 101760, Note_off_c, 1, 79, 0
2, 101760, Note_on_c, 1, 81, 83
2, 101840, Note_off_c, 1, 81, 0
2, 101840, Note_on_c, 1, 83, 83
2, 101920, Note_off_c, 1, 83, 0
2, 101920, Note_on_c, 1, 81, 83
2, 102000, Note_off_c, 1, 81, 0
2, 102000, Note_on_c, 1, 83, 83
2, 102080, Note_off_c, 1, 83, 0
2, 102080, Note_on_c, 1, 81, 84
2, 102160, Note_off_c, 1, 81, 0
2, 102160, Note_on_c, 1, 83, 84
2, 102240, Note_off_c, 1, 83, 0
2, 102240, Note_on_c, 1, 81, 84
2, 102320, Note_off_c, 1, 81, 0
2, 102320, Note_on_c, 1, 83, 84
2, 102400, Note_off_c, 1, 83, 0
2, 102400, Note_on_c, 1, 81, 85
2, 102480, Note_off_c, 1, 81, 0
2, 102480, Note_on_c, 1, 83, 85
2, 102560, Note_off_c, 1, 83, 0
2, 102560, Note_on_c, 1, 81, 85
2, 102640, Note_off_c, 1, 81, 0
2, 102640, Note_on_c, 1, 83, 86
2, 102720, Note_off_c, 1, 83, 0
2, 102720, Note_on_c, 1, 81, 86
2, 102800, Note_off_c, 1, 81, 0
2, 102800, Note_on_c, 1, 83, 86
2, 102880, Note_off_c, 1, 83, 0
2, 102880, Note_on_c, 1, 81, 86
2, 102960, Note_off_c, 1, 81, 0
2, 102960, Note_on_c, 1, 83, 87
2, 103040, Note_off_c, 1, 83, 0
2, 103040, Note_on_c, 1, 81, 87
2, 103120, Note_off_c, 1, 81, 0
2, 103120, Note_on_c, 1, 83, 87
2, 103200, Note_off_c, 1, 83, 0
2, 103200, Note_on_c, 1, 81, 87
2, 103280, Note_off_c, 1, 81, 0
2, 103280, Note_on_c, 1, 83, 88
2, 103360, Note_off_c, 1, 83, 0
2, 103360, Note_on_c, 1, 81, 88
2, 103440, Note_off_c, 1, 81, 0
2, 103440, Note_on_c, 1, 79, 88
2, 103560, Note_off_c, 1, 79, 0
2, 103560, Note_on_c, 1, 81, 89
2, 103680, Note_off_c, 1, 81, 0
2, 103680, Note_on_c, 1, 79, 89
2, 104160, Note_off_c, 1, 79, 0
2, 104400, Note_on_c, 1, 71, 47
2, 104640, Note_off_c, 1, 71, 0
2, 104640, Note_on_c, 1, 74, 51
2, 104880, Note_off_c, 1, 74, 0
2, 104880, Note_on_c, 1, 72, 48
2, 105070, Note_off_c, 1, 72, 0
2, 105360, Note_on_c, 1, 69, 49
2, 105600, Note_off_c, 1, 69, 0
2, 105600, Note_on_c, 1, 72, 55
2, 105840, Note_off_c, 1, 72, 0
2, 105840, Note_on_c, 1, 71, 50
2, 106030, Note_off_c, 1, 71, 0
2, 106320, Note_on_c, 1, 67, 51
2, 106560, Note_off_c, 1, 67, 0
2, 106560, Note_on_c, 1, 71, 58
2, 106800, Note_off_c, 1, 71, 0
2, 106800, Note_on_c, 1, 69, 52
2, 106990, Note_off_c, 1, 69, 0
2, 107280, Note_on_c, 1, 66, 53
2, 107520, Note_off_c, 1, 66, 0
2, 107520, Note_on_c, 1, 69, 60
2, 107760, Note_off_c, 1, 69, 0
2, 107760, Note_on_c, 1, 67, 54
2, 107950, Note_off_c, 1, 67, 0
2, 108000, Note_on_c, 1, 71, 74
2, 108095, Note_off_c, 1, 71, 0
2, 108120, Note_on_c, 1, 72, 74
2, 108215, Note_off_c, 1, 72, 0
2, 108240, Note_on_c, 1, 74, 74
2, 108335, Note_off_c, 1, 74, 0
2, 108360, Note_on_c, 1, 71, 75
2, 108455, Note_off_c, 1, 71, 0
2, 108480, Note_on_c, 1, 72, 75
2, 108575, Note_off_c, 1, 72, 0
2, 108600, Note_on_c, 1, 74, 76
2, 108695, Note_off_c, 1, 74, 0
2, 108720, Note_on_c, 1, 76, 76
2, 108815, Note_off_c, 1, 76, 0
2, 108840, Note_on_c, 1, 72, 76
2, 108935, Note_off_c, 1, 72, 0
2, 108960, Note_on_c, 1, 81, 77
2, 109055, Note_off_c, 1, 81, 0
2, 109080, Note_on_c, 1, 83, 77
2, 109175, Note_off_c, 1, 83, 0
2, 109200, Note_on_c, 1, 84, 77
2, 109295, Note_off_c, 1, 84, 0
2, 109320, Note_on_c, 1, 81, 78
2, 109415, Note_off_c, 1, 81, 0
2, 109440, Note_on_c, 1, 83, 78
2, 109535, Note_off_c, 1, 83, 0
2, 109560, Note_on_c, 1, 84, 78
2, 109655, Note_off_c, 1, 84, 0
2, 109680, Note_on_c, 1, 86, 79
2, 109775, Note_off_c, 1, 86, 0
2, 109800, Note_on_c, 1, 83, 79
2, 109895, Note_off_c, 1, 83, 0
2, 109920, Note_on_c, 1, 67, 79
2, 110015, Note_off_c, 1, 67, 0
2, 110040, Note_on_c, 1, 69, 80
2, 110135, Note_off_c, 1, 69, 0
2, 110160, Note_on_c, 1, 71, 80
2, 110255, Note_off_c, 1, 71, 0
2, 110280, Note_on_c, 1, 67, 81
2, 110375, Note_off_c, 1, 67, 0
2, 110400, Note_on_c, 1, 69, 81
2, 110495, Note_off_c, 1, 69, 0
2, 110520, Note_on_c, 1, 71, 81
2, 110615, Note_off_c, 1, 71, 0
2, 110640, Note_on_c, 1, 72, 82
2, 110735, Note_off_c, 1, 72, 0
2, 110760, Note_on_c, 1, 69, 82
2, 110855, Note_off_c, 1, 69, 0
2, 110880, Note_on_c, 1, 78, 82
2, 110975, Note_off_c, 1, 78, 0
2, 111000, Note_on_c, 1, 79, 83
2, 111095, Note_off_c, 1, 79, 0
2, 111120, Note_on_c, 1, 81, 83
2, 111215, Note_off_c, 1, 81, 0
2, 111240, Note_on_c, 1, 78, 83
2, 111335, Note_off_c, 1, 78, 0
2, 111360, Note_on_c, 1, 79, 84
2, 111745, Note_off_c, 1, 79, 0
2, 111920, Note_on_c, 1, 83, 85
2, 112260, Note_off_c, 1, 83, 0
2, 112400, Note_on_c, 1, 79, 87
2, 112745, Note_off_c, 1, 79, 0
2, 113280, Control_c, 1, 64, 127
2, 113400, Note_on_c, 1, 67, 68
2, 114035, Note_off_c, 1, 67, 0
2, 114180, Control_c, 1, 64, 0
2, 114240, Note_on_c, 1, 62, 71
2, 115080, Note_off_c, 1, 62, 0
2, 115200, Note_on_c, 1, 70, 75
2, 115920, Note_off_c, 1, 70, 0
2, 115920, Note_on_c, 1, 72, 65
2, 116040, Note_off_c, 1, 72, 0
2, 116040, Note_on_c, 1, 69, 63
2, 116160, Note_off_c, 1, 69, 0
2, 116160, Note_on_c, 1, 67, 61
2, 116580, Note_off_c, 1, 67, 0
2, 117120, Note_on_c, 1, 74, 56
2, 117840, Note_on_c, 1, 75, 46
2, 117840, Note_on_c, 1, 72, 46
2, 117845, Note_off_c, 1, 74, 0
2, 117960, Note_off_c, 1, 72, 0
2, 117960, Note_off_c, 1, 75, 0
2, 117960, Note_on_c, 1, 72, 44
2, 118080, Note_off_c, 1, 72, 0
2, 118080, Note_on_c, 1, 70, 43
2, 118520, Note_off_c, 1, 70, 0
2, 119040, Note_on_c, 1, 82, 38
2, 119760, Note_off_c, 1, 82, 0
2, 119760, Note_on_c, 1, 84, 28
2, 119880, Note_off_c, 1, 84, 0
2, 119880, Note_on_c, 1, 81, 26
2, 120000, Note_off_c, 1, 81, 0
2, 120000, Note_on_c, 1, 79, 24
2, 120440, Note_off_c, 1, 79, 0
2, 121440, Note_on_c, 1, 79, 44
2, 121920, Note_off_c, 1, 79, 0
2, 121920, Note_on_c, 1, 86, 47
2, 122400, Note_off_c, 1, 86, 0
2, 122400, Note_on_c, 1, 88, 50
2, 122840, Note_off_c, 1, 88, 0
2, 122880, Note_on_c, 1, 86, 53
2, 123840, Note_off_c, 1, 86, 0
2, 123840, Note_on_c, 1, 85, 44
2, 124280, Note_off_c, 1, 85, 0
2, 125160, Note_on_c, 1, 79, 49
2, 125270, Note_off_c, 1, 79, 0
2, 125280, Note_on_c, 1, 79, 50
2, 125355, Note_off_c, 1, 79, 0
2, 125360, Note_on_c, 1, 81, 50
2, 125435, Note_off_c, 1, 81, 0
2, 125440, Note_on_c, 1, 79, 51
2, 125515, Note_off_c, 1, 79, 0
2, 125520, Note_on_c, 1, 78, 52
2, 125630, Note_off_c, 1, 78, 0
2, 125640, Note_on_c, 1, 79, 53
2, 125750, Note_off_c, 1, 79, 0
2, 125760, Note_on_c, 1, 86, 54
2, 126240, Note_off_c, 1, 86, 0
2, 126240, Note_on_c, 1, 88, 58
2, 126680, Note_off_c, 1, 88, 0
2, 126720, Note_on_c, 1, 86, 63
2, 127680, Note_on_c, 1, 85, 55
2, 127685, Note_off_c, 1, 86, 0
2, 128120, Note_off_c, 1, 85, 0
2, 128640, Control_c, 1, 64, 127
2, 128760, Note_on_c, 1, 62, 59
2, 129395, Note_off_c, 1, 62, 0
2, 129540, Control_c, 1, 64, 0
2, 129600, Note_on_c, 1, 57, 62
2, 130440, Note_off_c, 1, 57, 0
2, 130560, Note_on_c, 1, 65, 66
2, 131280, Note_on_c, 1, 67, 60
2, 131295, Note_off_c, 1, 65, 0
2, 131400, Note_on_c, 1, 64, 59
2, 131405, Note_off_c, 1, 67, 0
2, 131520, Note_off_c, 1, 64, 0
2, 131520, Note_on_c, 1, 62, 57
2, 131940, Note_off_c, 1, 62, 0
2, 132840, Note_on_c, 1, 74, 48
2, 132960, Note_off_c, 1, 74, 0
2, 132960, Note_on_c, 1, 74, 49
2, 133040, Note_off_c, 1, 74, 0
2, 133040, Note_on_c, 1, 76, 50
2, 133120, Note_off_c, 1, 76, 0
2, 133120, Note_on_c, 1, 74, 51
2, 133200, Note_off_c, 1, 74, 0
2, 133200, Note_on_c, 1, 73, 51
2, 133320, Note_off_c, 1, 73, 0
2, 133320, Note_on_c, 1, 74, 53
2, 133440, Note_off_c, 1, 74, 0
2, 133440, Note_on_c, 1, 81, 54
2, 133920, Note_off_c, 1, 81, 0
2, 133920, Note_on_c, 1, 83, 58
2, 134345, Note_off_c, 1, 83, 0
2, 134400, Note_on_c, 1, 81, 62
2, 135360, Note_off_c, 1, 81, 0
2, 135360, Note_on_c, 1, 80, 53
2, 135795, Note_off_c, 1, 80, 0
2, 136560, Note_on_c, 1, 81, 55
2, 136800, Note_off_c, 1, 81, 0
2, 136800, Note_on_c, 1, 86, 57
2, 137040, Note_off_c, 1, 86, 0
2, 137040, Note_on_c, 1, 85, 59
2, 137280, Note_off_c, 1, 85, 0
2, 137280, Note_on_c, 1, 88, 61
2, 137520, Note_off_c, 1, 88, 0
2, 137520, Note_on_c, 1, 86, 63
2, 137760, Note_off_c, 1, 86, 0
2, 137760, Note_on_c, 1, 84, 65
2, 138000, Note_off_c, 1, 84, 0
2, 138000, Note_on_c, 1, 83, 67
2, 138215, Note_off_c, 1, 83, 0
2, 138240, Note_on_c, 1, 81, 69
2, 138960, Note_on_c, 1, 83, 58
2, 138975, Note_off_c, 1, 81, 0
2, 139080, Note_off_c, 1, 83, 0
2, 139080, Note_on_c, 1, 81, 57
2, 139200, Note_off_c, 1, 81, 0
2, 139200, Note_on_c, 1, 80, 56
2, 139655, Note_off_c, 1, 80, 0
2, 140160, Note_on_c, 1, 84, 74
2, 140930, Note_off_c, 1, 84, 0
2, 141120, Note_on_c, 1, 81, 80
2, 141890, Note_off_c, 1, 81, 0
2, 142080, Note_on_c, 1, 87, 95
2, 142800, Note_off_c, 1, 87, 0
2, 142800, Note_on_c, 1, 88, 88
2, 142920, Note_off_c, 1, 88, 0
2, 142920, Note_on_c, 1, 87, 86
2, 143040, Note_off_c, 1, 87, 0
2, 143040, Note_on_c, 1, 88, 85
2, 143465, Note_off_c, 1, 88, 0
2, 144000, Note_on_c, 1, 82, 74
2, 144770, Note_off_c, 1, 82, 0
2, 144960, Note_on_c, 1, 79, 81
2, 145730, Note_off_c, 1, 79, 0
2, 145920, Note_on_c, 1, 85, 91
2, 146640, Note_off_c, 1, 85, 0
2, 146640, Note_on_c, 1, 86, 85
2, 146760, Note_off_c, 1, 86, 0
2, 146760, Note_on_c, 1, 85, 84
2, 146880, Note_off_c, 1, 85, 0
2, 146880, Note_on_c, 1, 86, 83
2, 147305, Note_off_c, 1, 86, 0
2, 147840, Note_on_c, 1, 83, 85
2, 148560, Note_off_c, 1, 83, 0
2, 148560, Note_on_c, 1, 84, 77
2, 148680, Note_off_c, 1, 84, 0
2, 148680, Note_on_c, 1, 83, 76
2, 148800, Note_off_c, 1, 83, 0
2, 148800, Note_on_c, 1, 84, 75
2, 149220, Note_off_c, 1, 84, 0
2, 149760, Note_on_c, 1, 80, 81
2, 150480, Note_off_c, 1, 80, 0
2, 150480, Note_on_c, 1, 81, 72
2, 150600, Note_off_c, 1, 81, 0
2, 150600, Note_on_c, 1, 80, 71
2, 150720, Note_off_c, 1, 80, 0
2, 150720, Note_on_c, 1, 81, 70
2, 151200, Note_off_c, 1, 81, 0
2, 151920, Note_on_c, 1, 81, 66
2, 152075, Note_off_c, 1, 81, 0
2, 152160, Note_on_c, 1, 84, 66
2, 152315, Note_off_c, 1, 84, 0
2, 152400, Note_on_c, 1, 78, 66
2, 152555, Note_off_c, 1, 78, 0
2, 152640, Note_on_c, 1, 81, 66
2, 152795, Note_off_c, 1, 81, 0
2, 152880, Note_on_c, 1, 75, 65
2, 153035, Note_off_c, 1, 75, 0
2, 153120, Note_on_c, 1, 78, 65
2, 153275, Note_off_c, 1, 78, 0
2, 153360, Note_on_c, 1, 72, 65
2, 153515, Note_off_c, 1, 72, 0
2, 153600, Note_on_c, 1, 75, 65
2, 153755, Note_off_c, 1, 75, 0
2, 153840, Note_on_c, 1, 69, 65
2, 153995, Note_off_c, 1, 69, 0
2, 154080, Note_on_c, 1, 72, 64
2, 154235, Note_off_c, 1, 72, 0
2, 154320, Note_on_c, 1, 66, 64
2, 154475, Note_off_c, 1, 66, 0
2, 154560, Note_on_c, 1, 69, 64
2, 154715, Note_off_c, 1, 69, 0
2, 154800, Note_on_c, 1, 63, 64
2, 154955, Note_off_c, 1, 63, 0
2, 155040, Note_on_c, 1, 66, 64
2, 155195, Note_off_c, 1, 66, 0
2, 155280, Note_on_c, 1, 57, 63
2, 155435, Note_off_c, 1, 57, 0
2, 155520, Note_on_c, 1, 60, 63
2, 155675, Note_off_c, 1, 60, 0
2, 155760, Note_on_c, 1, 54, 63
2, 155915, Note_off_c, 1, 54, 0
2, 156000, Note_on_c, 1, 57, 63
2, 156155, Note_off_c, 1, 57, 0
2, 156240, Note_on_c, 1, 51, 63
2, 156395, Note_off_c, 1, 51, 0
2, 156480, Note_on_c, 1, 52, 65
2, 156865, Note_off_c, 1, 52, 0
2, 157080, Note_on_c, 1, 80, 62
2, 157385, Note_off_c, 1, 80, 0
2, 157560, Note_on_c, 1, 81, 60
2, 157865, Note_off_c, 1, 81, 0
2, 158160, Note_on_c, 1, 72, 44
2, 158400, Note_off_c, 1, 72, 0
2, 158400, Note_on_c, 1, 76, 50
2, 158640, Note_off_c, 1, 76, 0
2, 158640, Note_on_c, 1, 74, 45
2, 158830, Note_off_c, 1, 74, 0
2, 159120, Note_on_c, 1, 71, 46
2, 159360, Note_off_c, 1, 71, 0
2, 159360, Note_on_c, 1, 74, 51
2, 159600, Note_off_c, 1, 74, 0
2, 159600, Note_on_c, 1, 72, 47
2, 159790, Note_off_c, 1, 72, 0
2, 160080, Note_on_c, 1, 69, 48
2, 160320, Note_off_c, 1, 69, 0
2, 160320, Note_on_c, 1, 72, 52
2, 160560, Note_off_c, 1, 72, 0
2, 160560, Note_on_c, 1, 71, 48
2, 160750, Note_off_c, 1, 71, 0
2, 161040, Note_on_c, 1, 68, 50
2, 161280, Note_off_c, 1, 68, 0
2, 161280, Note_on_c, 1, 71, 54
2, 161520, Note_off_c, 1, 71, 0
2, 161520, Note_on_c, 1, 69, 48
2, 161710, Note_off_c, 1, 69, 0
2, 161760, Note_on_c, 1, 72, 66
2, 161855, Note_off_c, 1, 72, 0
2, 161880, Note_on_c, 1, 74, 66
2, 161975, Note_off_c, 1, 74, 0
2, 162000, Note_on_c, 1, 76, 67
2, 162095, Note_off_c, 1, 76, 0
2, 162120, Note_on_c, 1, 72, 67
2, 162215, Note_off_c, 1, 72, 0
2, 162240, Note_on_c, 1, 74, 67
2, 162335, Note_off_c, 1, 74, 0
2, 162360, Note_on_c, 1, 76, 67
2, 162455, Note_off_c, 1, 76, 0
2, 162480, Note_on_c, 1, 77, 67
2, 162575, Note_off_c, 1, 77, 0
2, 162600, Note_on_c, 1, 74, 67
2, 162695, Note_off_c, 1, 74, 0
2, 162720, Note_on_c, 1, 71, 68
2, 162815, Note_off_c, 1, 71, 0
2, 162840, Note_on_c, 1, 72, 68
2, 162935, Note_off_c, 1, 72, 0
2, 162960, Note_on_c, 1, 74, 68
2, 163055, Note_off_c, 1, 74, 0
2, 163080, Note_on_c, 1, 71, 68
2, 163175, Note_off_c, 1, 71, 0
2, 163200, Note_on_c, 1, 72, 68
2, 163295, Note_off_c, 1, 72, 0
2, 163320, Note_on_c, 1, 74, 68
2, 163415, Note_off_c, 1, 74, 0
2, 163440, Note_on_c, 1, 76, 68
2, 163535, Note_off_c, 1, 76, 0
2, 163560, Note_on_c, 1, 72, 69
2, 163655, Note_off_c, 1, 72, 0
2, 163680, Note_on_c, 1, 69, 69
2, 163775, Note_off_c, 1, 69, 0
2, 163800, Note_on_c, 1, 71, 69
2, 163895, Note_off_c, 1, 71, 0
2, 163920, Note_on_c, 1, 72, 69
2, 164015, Note_off_c, 1, 72, 0
2, 164040, Note_on_c, 1, 69, 69
2, 164135, Note_off_c, 1, 69, 0
2, 164160, Note_on_c, 1, 71, 69
2, 164255, Note_off_c, 1, 71, 0
2, 164280, Note_on_c, 1, 72, 70
2, 164375, Note_off_c, 1, 72, 0
2, 164400, Note_on_c, 1, 74, 70
2, 164495, Note_off_c, 1, 74, 0
2, 164520, Note_on_c, 1, 71, 70
2, 164615, Note_off_c, 1, 71, 0
2, 164640, Note_on_c, 1, 68, 70
2, 164735, Note_off_c, 1, 68, 0
2, 164760, Note_on_c, 1, 69, 70
2, 164855, Note_off_c, 1, 69, 0
2, 164880, Note_on_c, 1, 71, 70
2, 164975, Note_off_c, 1, 71, 0
2, 165000, Note_on_c, 1, 68, 71
2, 165095, Note_off_c, 1, 68, 0
2, 165120, Control_c, 1, 64, 127
2, 165240, Note_on_c, 1, 69, 71
2, 165875, Note_off_c, 1, 69, 0
2, 166020, Control_c, 1, 64, 0
2, 166080, Note_on_c, 1, 64, 72
2, 166920, Note_off_c, 1, 64, 0
2, 167040, Note_on_c, 1, 72, 74
2, 167760, Note_on_c, 1, 74, 67
2, 167765, Note_off_c, 1, 72, 0
2, 167880, Note_on_c, 1, 71, 66
2, 167885, Note_off_c, 1, 74, 0
2, 168000, Note_off_c, 1, 71, 0
2, 168000, Note_on_c, 1, 69, 65
2, 168420, Note_off_c, 1, 69, 0
2, 168960, Note_on_c, 1, 76, 58
2, 169680, Note_on_c, 1, 77, 50
2, 169685, Note_off_c, 1, 76, 0
2, 169790, Note_off_c, 1, 77, 0
2, 169800, Note_on_c, 1, 74, 49
2, 169910, Note_off_c, 1, 74, 0
2, 169920, Note_on_c, 1, 72, 47
2, 170360, Note_off_c, 1, 72, 0
2, 170880, Note_on_c, 1, 84, 39
2, 171600, Note_on_c, 1, 86, 32
2, 171605, Note_off_c, 1, 84, 0
2, 171710, Note_off_c, 1, 86, 0
2, 171720, Note_on_c, 1, 83, 31
2, 171830, Note_off_c, 1, 83, 0
2, 171840, Note_on_c, 1, 81, 29
2, 172280, Note_off_c, 1, 81, 0
2, 172800, Control_c, 1, 64, 127
2, 172920, Note_on_c, 1, 71, 73
2, 173555, Note_off_c, 1, 71, 0
2, 173700, Control_c, 1, 64, 0
2, 173760, Note_on_c, 1, 67, 77
2, 174600, Note_off_c, 1, 67, 0
2, 174720, Note_on_c, 1, 74, 84
2, 175440, Note_on_c, 1, 76, 77
2, 175445, Note_off_c, 1, 74, 0
2, 175560, Note_on_c, 1, 72, 75
2, 175565, Note_off_c, 1, 76, 0
2, 175680, Note_off_c, 1, 72, 0
2, 175680, Note_on_c, 1, 71, 74
2, 176100, Note_off_c, 1, 71, 0
2, 176640, Note_on_c, 1, 77, 65
2, 177360, Note_on_c, 1, 79, 58
2, 177365, Note_off_c, 1, 77, 0
2, 177470, Note_off_c, 1, 79, 0
2, 177480, Note_on_c, 1, 76, 57
2, 177590, Note_off_c, 1, 76, 0
2, 177600, Note_on_c, 1, 74, 56
2, 178040, Note_off_c, 1, 74, 0
2, 178560, Note_on_c, 1, 86, 46
2, 179280, Note_off_c, 1, 86, 0
2, 179280, Note_on_c, 1, 88, 39
2, 179390, Note_off_c, 1, 88, 0
2, 179400, Note_on_c, 1, 84, 38
2, 179510, Note_off_c, 1, 84, 0
2, 179520, Note_on_c, 1, 83, 37
2, 179960, Note_off_c, 1, 83, 0
2, 180480, Control_c, 1, 64, 127
2, 180600, Note_on_c, 1, 72, 71
2, 181235, Note_off_c, 1, 72, 0
2, 181380, Control_c, 1, 64, 0
2, 181440, Note_on_c, 1, 67, 75
2, 182280, Note_off_c, 1, 67, 0
2, 182400, Note_on_c, 1, 76, 79
2, 183120, Note_off_c, 1, 76, 0
2, 183120, Note_on_c, 1, 77, 68
2, 183225, Note_off_c, 1, 77, 0
2, 183240, Note_on_c, 1, 74, 66
2, 183345, Note_off_c, 1, 74, 0
2, 183360, Note_on_c, 1, 72, 65
2, 183780, Note_off_c, 1, 72, 0
2, 184320, Note_on_c, 1, 79, 51
2, 184630, Note_off_c, 1, 79, 0
2, 184800, Note_on_c, 1, 79, 50
2, 185110, Note_off_c, 1, 79, 0
2, 185760, Note_on_c, 1, 81, 52
2, 186145, Note_off_c, 1, 81, 0
2, 186240, Note_on_c, 1, 79, 54
2, 186480, Note_on_c, 1, 77, 52
2, 186485, Note_off_c, 1, 79, 0
2, 186600, Note_off_c, 1, 77, 0
2, 186720, Note_on_c, 1, 77, 49
2, 187030, Note_off_c, 1, 77, 0
2, 187680, Note_on_c, 1, 79, 47
2, 188065, Note_off_c, 1, 79, 0
2, 188160, Note_on_c, 1, 77, 54
2, 188400, Note_off_c, 1, 77, 0
2, 188400, Note_on_c, 1, 76, 51
2, 188525, Note_off_c, 1, 76, 0
2, 188640, Note_on_c, 1, 76, 48
2, 188950, Note_off_c, 1, 76, 0
2, 189600, Note_on_c, 1, 79, 49
2, 189840, Note_off_c, 1, 79, 0
2, 189840, Note_on_c, 1, 76, 50
2, 190055, Note_off_c, 1, 76, 0
2, 190080, Note_on_c, 1, 73, 51
2, 190320, Note_off_c, 1, 73, 0
2, 190320, Note_on_c, 1, 74, 50
2, 190560, Note_off_c, 1, 74, 0
2, 190560, Note_on_c, 1, 77, 52
2, 190800, Note_off_c, 1, 77, 0
2, 190800, Note_on_c, 1, 76, 53
2, 191015, Note_off_c, 1, 76, 0
2, 191040, Note_on_c, 1, 73, 58
2, 191280, Note_off_c, 1, 73, 0
2, 191280, Note_on_c, 1, 74, 55
2, 191520, Note_off_c, 1, 74, 0
2, 191520, Note_on_c, 1, 77, 56
2, 191760, Note_off_c, 1, 77, 0
2, 191760, Note_on_c, 1, 76, 57
2, 191975, Note_off_c, 1, 76, 0
2, 192000, Note_on_c, 1, 73, 62
2, 192240, Note_off_c, 1, 73, 0
2, 192240, Note_on_c, 1, 74, 60
2, 192480, Note_off_c, 1, 74, 0
2, 192480, Note_on_c, 1, 77, 61
2, 192720, Note_off_c, 1, 77, 0
2, 192720, Note_on_c, 1, 81, 62
2, 192960, Note_off_c, 1, 81, 0
2, 192960, Note_on_c, 1, 79, 63
2, 193200, Note_off_c, 1, 79, 0
2, 193200, Note_on_c, 1, 76, 64
2, 193440, Note_off_c, 1, 76, 0
2, 193440, Note_on_c, 1, 77, 66
2, 193680, Note_off_c, 1, 77, 0
2, 193680, Note_on_c, 1, 74, 67
2, 193890, Note_off_c, 1, 74, 0
2, 193920, Control_c, 1, 64, 127
2, 194040, Note_on_c, 1, 72, 67
2, 194675, Note_off_c, 1, 72, 0
2, 194820, Control_c, 1, 64, 0
2, 194880, Note_on_c, 1, 67, 71
2, 195720, Note_off_c, 1, 67, 0
2, 195840, Note_on_c, 1, 75, 76
2, 196560, Note_on_c, 1, 77, 69
2, 196575, Note_off_c, 1, 75, 0
2, 196665, Note_off_c, 1, 77, 0
2, 196680, Note_on_c, 1, 74, 68
2, 196785, Note_off_c, 1, 74, 0
2, 196800, Note_on_c, 1, 72, 66
2, 197220, Note_off_c, 1, 72, 0
2, 197760, Note_on_c, 1, 78, 53
2, 197880, Note_off_c, 1, 78, 0
2, 197880, Note_on_c, 1, 79, 56
2, 198005, Note_off_c, 1, 79, 0
2, 198240, Note_on_c, 1, 79, 52
2, 198550, Note_off_c, 1, 79, 0
2, 198960, Note_on_c, 1, 72, 49
2, 199200, Note_off_c, 1, 72, 0
2, 199200, Note_on_c, 1, 84, 52
2, 199440, Note_off_c, 1, 84, 0
2, 199440, Note_on_c, 1, 80, 54
2, 199655, Note_off_c, 1, 80, 0
2, 199680, Note_on_c, 1, 79, 58
2, 199920, Note_off_c, 1, 79, 0
2, 199920, Note_on_c, 1, 78, 54
2, 200160, Note_off_c, 1, 78, 0
2, 200160, Note_on_c, 1, 77, 50
2, 200580, Note_off_c, 1, 77, 0
2, 200880, Note_on_c, 1, 77, 49
2, 201120, Note_off_c, 1, 77, 0
2, 201120, Note_on_c, 1, 80, 49
2, 201360, Note_off_c, 1, 80, 0
2, 201360, Note_on_c, 1, 79, 53
2, 201575, Note_off_c, 1, 79, 0
2, 201600, Note_on_c, 1, 77, 68
2, 201840, Note_off_c, 1, 77, 0
2, 201840, Note_on_c, 1, 76, 61
2, 202035, Note_off_c, 1, 76, 0
2, 202080, Note_on_c, 1, 85, 55
2, 203040, Note_off_c, 1, 85, 0
2, 203040, Note_on_c, 1, 76, 44
2, 203465, Note_off_c, 1, 76, 0
2, 203520, Note_on_c, 1, 79, 49
2, 204000, Note_off_c, 1, 79, 0
2, 204000, Note_on_c, 1, 77, 45
2, 204385, Note_off_c, 1, 77, 0
2, 204720, Note_on_c, 1, 77, 44
2, 204960, Note_off_c, 1, 77, 0
2, 204960, Note_on_c, 1, 84, 47
2, 205200, Note_off_c, 1, 84, 0
2, 205200, Note_on_c, 1, 80, 50
2, 205395, Note_off_c, 1, 80, 0
2, 205440, Note_on_c, 1, 79, 67
2, 205680, Note_off_c, 1, 79, 0
2, 205680, Note_on_c, 1, 78, 59
2, 205880, Note_off_c, 1, 78, 0
2, 205920, Note_on_c, 1, 87, 50
2, 206880, Note_off_c, 1, 87, 0
2, 206880, Note_on_c, 1, 78, 41
2, 207315, Note_off_c, 1, 78, 0
2, 207360, Note_on_c, 1, 81, 40
2, 207600, Note_off_c, 1, 81, 0
2, 207600, Note_on_c, 1, 79, 34
2, 207840, Note_off_c, 1, 79, 0
2, 207840, Note_on_c, 1, 78, 35
2, 208080, Note_off_c, 1, 78, 0
2, 208080, Note_on_c, 1, 79, 36
2, 208320, Note_off_c, 1, 79, 0
2, 208320, Note_on_c, 1, 78, 37
2, 208560, Note_off_c, 1, 78, 0
2, 208560, Note_on_c, 1, 79, 38
2, 208800, Note_off_c, 1, 79, 0
2, 208800, Note_on_c, 1, 78, 39
2, 209040, Note_off_c, 1, 78, 0
2, 209040, Note_on_c, 1, 79, 40
2, 209280, Note_off_c, 1, 79, 0
2, 209280, Note_on_c, 1, 78, 45
2, 209480, Note_off_c, 1, 78, 0
2, 209520, Note_on_c, 1, 79, 48
2, 209760, Note_off_c, 1, 79, 0
2, 209760, Note_on_c, 1, 78, 52
2, 210000, Note_off_c, 1, 78, 0
2, 210000, Note_on_c, 1, 79, 56
2, 210240, Note_off_c, 1, 79, 0
2, 210240, Note_on_c, 1, 80, 60
2, 210480, Note_off_c, 1, 80, 0
2, 210480, Note_on_c, 1, 81, 64
2, 210720, Note_off_c, 1, 81, 0
2, 210720, Note_on_c, 1, 82, 68
2, 210960, Note_off_c, 1, 82, 0
2, 210960, Note_on_c, 1, 83, 72
2, 211160, Note_off_c, 1, 83, 0
2, 211200, Note_on_c, 1, 84, 79
2, 211390, Note_off_c, 1, 84, 0
2, 211440, Note_on_c, 1, 84, 78
2, 211630, Note_off_c, 1, 84, 0
2, 211680, Note_on_c, 1, 84, 77
2, 212450, Note_off_c, 1, 84, 0
2, 212640, Note_on_c, 1, 83, 70
2, 212880, Note_off_c, 1, 83, 0
2, 212880, Note_on_c, 1, 81, 69
2, 213090, Note_off_c, 1, 81, 0
2, 213120, Note_on_c, 1, 79, 73
2, 213310, Note_off_c, 1, 79, 0
2, 213360, Note_on_c, 1, 79, 72
2, 213550, Note_off_c, 1, 79, 0
2, 213600, Note_on_c, 1, 79, 70
2, 214370, Note_off_c, 1, 79, 0
2, 214560, Note_on_c, 1, 77, 61
2, 214800, Note_off_c, 1, 77, 0
2, 214800, Note_on_c, 1, 76, 60
2, 215160, Note_on_c, 1, 74, 58
2, 215165, Note_off_c, 1, 76, 0
2, 215280, Note_off_c, 1, 74, 0
2, 215280, Note_on_c, 1, 77, 57
2, 215400, Note_off_c, 1, 77, 0
2, 215400, Note_on_c, 1, 76, 57
2, 215520, Note_off_c, 1, 76, 0
2, 215520, Note_on_c, 1, 79, 56
2, 215640, Note_off_c, 1, 79, 0
2, 215640, Note_on_c, 1, 77, 56
2, 215760, Note_off_c, 1, 77, 0
2, 215760, Note_on_c, 1, 76, 55
2, 215880, Note_off_c, 1, 76, 0
2, 215880, Note_on_c, 1, 74, 54
2, 216000, Note_off_c, 1, 74, 0
2, 216000, Note_on_c, 1, 72, 54
2, 216385, Note_off_c, 1, 72, 0
2, 216480, Note_on_c, 1, 71, 51
2, 216560, Note_off_c, 1, 71, 0
2, 216560, Note_on_c, 1, 72, 51
2, 216640, Note_off_c, 1, 72, 0
2, 216640, Note_on_c, 1, 71, 51
2, 216720, Note_off_c, 1, 71, 0
2, 216720, Note_on_c, 1, 69, 50
2, 216840, Note_off_c, 1, 69, 0
2, 216840, Note_on_c, 1, 71, 50
2, 216960, Note_off_c, 1, 71, 0
2, 216960, Note_on_c, 1, 84, 67
2, 217150, Note_off_c, 1, 84, 0
2, 217200, Note_on_c, 1, 84, 65
2, 217390, Note_off_c, 1, 84, 0
2, 217440, Note_on_c, 1, 84, 62
2, 218115, Note_off_c, 1, 84, 0
2, 218160, Note_on_c, 1, 86, 59
2, 218280, Note_off_c, 1, 86, 0
2, 218280, Note_on_c, 1, 84, 58
2, 218400, Note_off_c, 1, 84, 0
2, 218400, Note_on_c, 1, 83, 58
2, 218640, Note_off_c, 1, 83, 0
2, 218640, Note_on_c, 1, 81, 57
2, 218850, Note_off_c, 1, 81, 0
2, 218880, Note_on_c, 1, 79, 63
2, 219070, Note_off_c, 1, 79, 0
2, 219120, Note_on_c, 1, 79, 62
2, 219310, Note_off_c, 1, 79, 0
2, 219360, Note_on_c, 1, 79, 60
2, 220025, Note_off_c, 1, 79, 0
2, 220080, Note_on_c, 1, 81, 52
2, 220200, Note_off_c, 1, 81, 0
2, 220200, Note_on_c, 1, 79, 51
2, 220320, Note_off_c, 1, 79, 0
2, 220320, Note_on_c, 1, 77, 51
2, 220560, Note_off_c, 1, 77, 0
2, 220560, Note_on_c, 1, 76, 50
2, 220920, Note_on_c, 1, 74, 49
2, 220925, Note_off_c, 1, 76, 0
2, 221040, Note_off_c, 1, 74, 0
2, 221040, Note_on_c, 1, 81, 48
2, 221160, Note_off_c, 1, 81, 0
2, 221160, Note_on_c, 1, 80, 48
2, 221280, Note_off_c, 1, 80, 0
2, 221280, Note_on_c, 1, 83, 47
2, 221400, Note_off_c, 1, 83, 0
2, 221400, Note_on_c, 1, 81, 47
2, 221520, Note_off_c, 1, 81, 0
2, 221520, Note_on_c, 1, 79, 46
2, 221640, Note_off_c, 1, 79, 0
2, 221640, Note_on_c, 1, 77, 46
2, 221760, Note_off_c, 1, 77, 0
2, 221760, Note_on_c, 1, 76, 45
2, 222240, Note_off_c, 1, 76, 0
2, 222240, Note_on_c, 1, 74, 44
2, 222320, Note_off_c, 1, 74, 0
2, 222320, Note_on_c, 1, 76, 43
2, 222400, Note_off_c, 1, 76, 0
2, 222400, Note_on_c, 1, 74, 43
2, 222480, Note_off_c, 1, 74, 0
2, 222480, Note_on_c, 1, 72, 43
2, 222600, Note_off_c, 1, 72, 0
2, 222600, Note_on_c, 1, 74, 42
2, 222720, Note_off_c, 1, 74, 0
2, 222720, Note_on_c, 1, 72, 58
2, 223200, Note_off_c, 1, 72, 0
2, 223380, Note_on_c, 1, 74, 41
2, 223440, Note_off_c, 1, 74, 0
2, 223440, Note_on_c, 1, 72, 41
2, 223560, Note_off_c, 1, 72, 0
2, 223560, Note_on_c, 1, 71, 42
2, 223680, Note_off_c, 1, 71, 0
2, 223680, Note_on_c, 1, 72, 42
2, 223835, Note_off_c, 1, 72, 0
2, 223920, Note_on_c, 1, 75, 44
2, 224075, Note_off_c, 1, 75, 0
2, 224160, Note_on_c, 1, 76, 45
2, 224315, Note_off_c, 1, 76, 0
2, 224400, Note_on_c, 1, 78, 46
2, 224555, Note_off_c, 1, 78, 0
2, 224640, Note_on_c, 1, 79, 48
2, 224795, Note_off_c, 1, 79, 0
2, 224880, Note_on_c, 1, 83, 49
2, 225035, Note_off_c, 1, 83, 0
2, 225120, Note_on_c, 1, 84, 50
2, 225275, Note_off_c, 1, 84, 0
2, 225360, Note_on_c, 1, 87, 52
2, 225515, Note_off_c, 1, 87, 0
2, 225600, Note_on_c, 1, 88, 55
2, 226080, Note_off_c, 1, 88, 0
2, 226640, Note_on_c, 1, 86, 65
2, 227015, Note_off_c, 1, 86, 0
2, 227220, Note_on_c, 1, 72, 52
2, 227280, Note_off_c, 1, 72, 0
2, 227280, Note_on_c, 1, 71, 52
2, 227400, Note_off_c, 1, 71, 0
2, 227400, Note_on_c, 1, 69, 52
2, 227520, Note_off_c, 1, 69, 0
2, 227520, Note_on_c, 1, 71, 52
2, 227675, Note_off_c, 1, 71, 0
2, 227760, Note_on_c, 1, 73, 53
2, 227915, Note_off_c, 1, 73, 0
2, 228000, Note_on_c, 1, 74, 55
2, 228155, Note_off_c, 1, 74, 0
2, 228240, Note_on_c, 1, 78, 57
2, 228395, Note_off_c, 1, 78, 0
2, 228480, Note_on_c, 1, 79, 59
2, 228635, Note_off_c, 1, 79, 0
2, 228720, Note_on_c, 1, 82, 60
2, 228875, Note_off_c, 1, 82, 0
2, 228960, Note_on_c, 1, 83, 62
2, 229115, Note_off_c, 1, 83, 0
2, 229200, Note_on_c, 1, 85, 64
2, 229355, Note_off_c, 1, 85, 0
2, 229440, Note_on_c, 1, 86, 67
2, 229920, Note_off_c, 1, 86, 0
2, 230520, Note_on_c, 1, 84, 77
2, 230880, Note_off_c, 1, 84, 0
2, 231080, Note_on_c, 1, 71, 63
2, 231120, Note_on_c, 1, 69, 63
2, 231140, Note_off_c, 1, 71, 0
2, 231240, Note_off_c, 1, 69, 0
2, 231240, Note_on_c, 1, 68, 63
2, 231360, Note_off_c, 1, 68, 0
2, 231360, Note_on_c, 1, 69, 64
2, 231515, Note_off_c, 1, 69, 0
2, 231600, Note_on_c, 1, 71, 65
2, 231755, Note_off_c, 1, 71, 0
2, 231840, Note_on_c, 1, 72, 66
2, 231995, Note_off_c, 1, 72, 0
2, 232080, Note_on_c, 1, 77, 68
2, 232235, Note_off_c, 1, 77, 0
2, 232320, Note_on_c, 1, 78, 69
2, 232475, Note_off_c, 1, 78, 0
2, 232560, Note_on_c, 1, 80, 70
2, 232715, Note_off_c, 1, 80, 0
2, 232800, Note_on_c, 1, 81, 72
2, 232955, Note_off_c, 1, 81, 0
2, 233040, Note_on_c, 1, 83, 73
2, 233195, Note_off_c, 1, 83, 0
2, 233280, Note_on_c, 1, 84, 74
2, 233760, Note_off_c, 1, 84, 0
2, 234240, Note_on_c, 1, 83, 81
2, 234360, Note_off_c, 1, 83, 0
2, 234360, Note_on_c, 1, 81, 80
2, 234480, Note_off_c, 1, 81, 0
2, 234480, Note_on_c, 1, 84, 79
2, 234600, Note_off_c, 1, 84, 0
2, 234600, Note_on_c, 1, 83, 78
2, 234720, Note_off_c, 1, 83, 0
2, 234720, Note_on_c, 1, 86, 77
2, 234840, Note_off_c, 1, 86, 0
2, 234960, Note_on_c, 1, 78, 75
2, 235080, Note_off_c, 1, 78, 0
2, 235200, Note_on_c, 1, 79, 77
2, 235320, Note_off_c, 1, 79, 0
2, 235320, Note_on_c, 1, 78, 76
2, 235440, Note_off_c, 1, 78, 0
2, 235440, Note_on_c, 1, 81, 75
2, 235560, Note_off_c, 1, 81, 0
2, 235560, Note_on_c, 1, 79, 74
2, 235680, Note_off_c, 1, 79, 0
2, 235680, Note_on_c, 1, 83, 73
2, 235800, Note_off_c, 1, 83, 0
2, 235920, Note_on_c, 1, 75, 70
2, 236040, Note_off_c, 1, 75, 0
2, 236160, Note_on_c, 1, 76, 75
2, 236280, Note_off_c, 1, 76, 0
2, 236280, Note_on_c, 1, 75, 74
2, 236400, Note_off_c, 1, 75, 0
2, 236400, Note_on_c, 1, 78, 73
2, 236520, Note_off_c, 1, 78, 0
2, 236520, Note_on_c, 1, 76, 72
2, 236640, Note_off_c, 1, 76, 0
2, 236640, Note_on_c, 1, 79, 71
2, 236760, Note_off_c, 1, 79, 0
2, 236880, Note_on_c, 1, 71, 68
2, 237000, Note_off_c, 1, 71, 0
2, 237120, Note_on_c, 1, 72, 73
2, 237240, Note_off_c, 1, 72, 0
2, 237240, Note_on_c, 1, 71, 72
2, 237360, Note_off_c, 1, 71, 0
2, 237360, Note_on_c, 1, 74, 71
2, 237480, Note_off_c, 1, 74, 0
2, 237480, Note_on_c, 1, 72, 70
2, 237600, Note_off_c, 1, 72, 0
2, 237600, Note_on_c, 1, 76, 69
2, 237720, Note_off_c, 1, 76, 0
2, 237840, Note_on_c, 1, 68, 66
2, 237960, Note_off_c, 1, 68, 0
2, 238080, Note_on_c, 1, 71, 71
2, 238200, Note_off_c, 1, 71, 0
2, 238200, Note_on_c, 1, 69, 70
2, 238320, Note_off_c, 1, 69, 0
2, 238320, Note_on_c, 1, 72, 69
2, 238440, Note_off_c, 1, 72, 0
2, 238440, Note_on_c, 1, 71, 67
2, 238560, Note_off_c, 1, 71, 0
2, 238560, Note_on_c, 1, 74, 66
2, 238680, Note_off_c, 1, 74, 0
2, 238800, Note_on_c, 1, 66, 63
2, 238800, Note_on_c, 1, 54, 63
2, 238920, Note_off_c, 1, 54, 0
2, 238920, Note_off_c, 1, 66, 0
2, 239040, Note_on_c, 1, 67, 69
2, 239160, Note_off_c, 1, 67, 0
2, 239160, Note_on_c, 1, 66, 68
2, 239280, Note_off_c, 1, 66, 0
2, 239280, Note_on_c, 1, 69, 66
2, 239400, Note_off_c, 1, 69, 0
2, 239400, Note_on_c, 1, 67, 65
2, 239520, Note_off_c, 1, 67, 0
2, 239520, Note_on_c, 1, 71, 63
2, 239640, Note_off_c, 1, 71, 0
2, 239760, Note_on_c, 1, 62, 60
2, 239880, Note_off_c, 1, 62, 0
2, 240000, Note_on_c, 1, 64, 66
2, 240290, Note_off_c, 1, 64, 0
2, 240360, Note_on_c, 1, 62, 65
2, 240455, Note_off_c, 1, 62, 0
2, 240480, Note_on_c, 1, 60, 65
2, 240770, Note_off_c, 1, 60, 0
2, 240840, Note_on_c, 1, 59, 64
2, 240935, Note_off_c, 1, 59, 0
2, 240960, Note_on_c, 1, 60, 64
2, 241250, Note_off_c, 1, 60, 0
2, 241320, Note_on_c, 1, 57, 63
2, 241415, Note_off_c, 1, 57, 0
2, 241440, Note_on_c, 1, 55, 63
2, 241730, Note_off_c, 1, 55, 0
2, 241800, Note_on_c, 1, 54, 62
2, 241895, Note_off_c, 1, 54, 0
2, 241920, Note_on_c, 1, 55, 65
2, 242110, Note_off_c, 1, 55, 0
2, 242160, Note_on_c, 1, 59, 62
2, 242255, Note_off_c, 1, 59, 0
2, 242280, Note_on_c, 1, 62, 60
2, 242375, Note_off_c, 1, 62, 0
2, 242400, Note_on_c, 1, 67, 59
2, 242555, Note_off_c, 1, 67, 0
2, 242640, Note_on_c, 1, 67, 56
2, 242795, Note_off_c, 1, 67, 0
2, 242880, Note_on_c, 1, 67, 53
2, 243360, Note_off_c, 1, 67, 0
2, 255360, Note_on_c, 1, 76, 51
2, 255515, Note_off_c, 1, 76, 0
2, 255600, Note_on_c, 1, 77, 49
2, 255755, Note_off_c, 1, 77, 0
2, 255840, Note_on_c, 1, 79, 48
2, 255995, Note_off_c, 1, 79, 0
2, 256080, Note_on_c, 1, 76, 46
2, 256235, Note_off_c, 1, 76, 0
2, 256320, Note_on_c, 1, 72, 45
2, 257090, Note_off_c, 1, 72, 0
2, 257280, Note_on_c, 1, 74, 51
2, 257435, Note_off_c, 1, 74, 0
2, 257520, Note_on_c, 1, 76, 50
2, 257675, Note_off_c, 1, 76, 0
2, 257760, Note_on_c, 1, 77, 49
2, 257915, Note_off_c, 1, 77, 0
2, 258000, Note_on_c, 1, 74, 48
2, 258155, Note_off_c, 1, 74, 0
2, 258240, Note_on_c, 1, 83, 47
2, 259010, Note_off_c, 1, 83, 0
2, 259200, Note_on_c, 1, 84, 51
2, 259320, Note_off_c, 1, 84, 0
2, 259320, Note_on_c, 1, 83, 51
2, 259625, Note_off_c, 1, 83, 0
2, 259680, Note_on_c, 1, 81, 49
2, 259800, Note_off_c, 1, 81, 0
2, 259800, Note_on_c, 1, 79, 48
2, 260115, Note_off_c, 1, 79, 0
2, 260160, Note_on_c, 1, 76, 47
2, 260280, Note_off_c, 1, 76, 0
2, 260280, Note_on_c, 1, 77, 46
2, 260580, Note_off_c, 1, 77, 0
2, 261120, Note_on_c, 1, 77, 53
2, 261240, Note_off_c, 1, 77, 0
2, 261240, Note_on_c, 1, 76, 52
2, 261540, Note_off_c, 1, 76, 0
2, 261600, Note_on_c, 1, 74, 50
2, 261720, Note_off_c, 1, 74, 0
2, 261720, Note_on_c, 1, 72, 49
2, 262020, Note_off_c, 1, 72, 0
2, 262080, Note_on_c, 1, 81, 47
2, 262200, Note_off_c, 1, 81, 0
2, 262200, Note_on_c, 1, 79, 46
2, 262505, Note_off_c, 1, 79, 0
2, 263040, Note_on_c, 1, 79, 65
2, 263810, Note_off_c, 1, 79, 0
2, 264000, Note_on_c, 1, 77, 61
2, 264155, Note_off_c, 1, 77, 0
2, 264240, Note_on_c, 1, 76, 60
2, 264395, Note_off_c, 1, 76, 0
2, 264480, Note_on_c, 1, 74, 59
2, 264635, Note_off_c, 1, 74, 0
2, 264720, Note_on_c, 1, 72, 58
2, 264875, Note_off_c, 1, 72, 0
2, 264960, Note_on_c, 1, 81, 69
2, 265730, Note_off_c, 1, 81, 0
2, 265920, Note_on_c, 1, 79, 63
2, 266075, Note_off_c, 1, 79, 0
2, 266160, Note_on_c, 1, 77, 61
2, 266315, Note_off_c, 1, 77, 0
2, 266400, Note_on_c, 1, 76, 60
2, 266555, Note_off_c, 1, 76, 0
2, 266640, Note_on_c, 1, 74, 58
2, 266795, Note_off_c, 1, 74, 0
2, 266880, Note_on_c, 1, 76, 53
2, 267000, Note_off_c, 1, 76, 0
2, 267000, Note_on_c, 1, 77, 52
2, 267120, Note_off_c, 1, 77, 0
2, 267120, Note_on_c, 1, 79, 51
2, 267240, Note_off_c, 1, 79, 0
2, 267240, Note_on_c, 1, 76, 51
2, 267360, Note_off_c, 1, 76, 0
2, 267360, Note_on_c, 1, 72, 50
2, 267480, Note_off_c, 1, 72, 0
2, 267840, Note_on_c, 1, 74, 55
2, 267960, Note_off_c, 1, 74, 0
2, 267960, Note_on_c, 1, 76, 54
2, 268080, Note_off_c, 1, 76, 0
2, 268080, Note_on_c, 1, 77, 54
2, 268200, Note_off_c, 1, 77, 0
2, 268200, Note_on_c, 1, 74, 53
2, 268320, Note_off_c, 1, 74, 0
2, 268320, Note_on_c, 1, 71, 52
2, 268440, Note_off_c, 1, 71, 0
2, 268800, Note_on_c, 1, 79, 71
2, 269760, Note_off_c, 1, 79, 0
2, 269760, Note_on_c, 1, 77, 66
2, 269880, Note_off_c, 1, 77, 0
2, 269880, Note_on_c, 1, 79, 66
2, 270000, Note_off_c, 1, 79, 0
2, 270000, Note_on_c, 1, 77, 65
2, 270120, Note_off_c, 1, 77, 0
2, 270120, Note_on_c, 1, 76, 64
2, 270240, Note_off_c, 1, 76, 0
2, 270240, Note_on_c, 1, 74, 64
2, 270360, Note_off_c, 1, 74, 0
2, 270360, Note_on_c, 1, 76, 63
2, 270480, Note_off_c, 1, 76, 0
2, 270480, Note_on_c, 1, 74, 62
2, 270600, Note_off_c, 1, 74, 0
2, 270600, Note_on_c, 1, 72, 62
2, 270720, Note_off_c, 1, 72, 0
2, 270720, Note_on_c, 1, 84, 73
2, 271680, Note_off_c, 1, 84, 0
2, 271680, Note_on_c, 1, 83, 69
2, 271800, Note_off_c, 1, 83, 0
2, 271800, Note_on_c, 1, 84, 69
2, 271920, Note_off_c, 1, 84, 0
2, 271920, Note_on_c, 1, 83, 68
2, 272040, Note_off_c, 1, 83, 0
2, 272040, Note_on_c, 1, 81, 68
2, 272160, Note_off_c, 1, 81, 0
2, 272160, Note_on_c, 1, 79, 67
2, 272280, Note_off_c, 1, 79, 0
2, 272280, Note_on_c, 1, 81, 67
2, 272400, Note_off_c, 1, 81, 0
2, 272400, Note_on_c, 1, 79, 66
2, 272520, Note_off_c, 1, 79, 0
2, 272520, Note_on_c, 1, 77, 66
2, 272640, Note_off_c, 1, 77, 0
2, 272640, Note_on_c, 1, 76, 70
2, 272880, Note_off_c, 1, 76, 0
2, 272880, Note_on_c, 1, 72, 54
2, 273070, Note_off_c, 1, 72, 0
2, 273120, Note_on_c, 1, 77, 71
2, 273505, Note_off_c, 1, 77, 0
2, 273600, Note_on_c, 1, 76, 55
2, 273840, Note_off_c, 1, 76, 0
2, 273840, Note_on_c, 1, 72, 56
2, 274030, Note_off_c, 1, 72, 0
2, 274080, Note_on_c, 1, 81, 73
2, 274465, Note_off_c, 1, 81, 0
2, 274560, Note_on_c, 1, 79, 57
2, 274800, Note_off_c, 1, 79, 0
2, 274800, Note_on_c, 1, 72, 58
2, 274990, Note_off_c, 1, 72, 0
2, 275040, Note_on_c, 1, 77, 75
2, 275425, Note_off_c, 1, 77, 0
2, 275520, Note_on_c, 1, 76, 59
2, 275760, Note_off_c, 1, 76, 0
2, 275760, Note_on_c, 1, 72, 60
2, 275950, Note_off_c, 1, 72, 0
2, 276000, Note_on_c, 1, 81, 75
2, 276385, Note_off_c, 1, 81, 0
2, 276480, Note_on_c, 1, 82, 74
2, 277250, Note_off_c, 1, 82, 0
2, 277440, Note_on_c, 1, 82, 78
2, 277825, Note_off_c, 1, 82, 0
2, 277920, Note_on_c, 1, 82, 80
2, 278305, Note_off_c, 1, 82, 0
2, 278400, Note_on_c, 1, 81, 81
2, 278640, Note_off_c, 1, 81, 0
2, 278640, Note_on_c, 1, 79, 78
2, 278830, Note_off_c, 1, 79, 0
2, 278880, Note_on_c, 1, 77, 77
2, 278960, Note_off_c, 1, 77, 0
2, 278960, Note_on_c, 1, 79, 77
2, 279040, Note_off_c, 1, 79, 0
2, 279040, Note_on_c, 1, 77, 77
2, 279120, Note_off_c, 1, 77, 0
2, 279120, Note_on_c, 1, 76, 76
2, 279310, Note_off_c, 1, 76, 0
2, 279360, Note_on_c, 1, 74, 75
2, 279440, Note_off_c, 1, 74, 0
2, 279440, Note_on_c, 1, 76, 75
2, 279520, Note_off_c, 1, 76, 0
2, 279520, Note_on_c, 1, 74, 75
2, 279600, Note_off_c, 1, 74, 0
2, 279600, Note_on_c, 1, 72, 74
2, 279790, Note_off_c, 1, 72, 0
2, 279840, Note_on_c, 1, 71, 73
2, 279920, Note_off_c, 1, 71, 0
2, 279920, Note_on_c, 1, 72, 73
2, 280000, Note_off_c, 1, 72, 0
2, 280000, Note_on_c, 1, 71, 72
2, 280080, Note_off_c, 1, 71, 0
2, 280080, Note_on_c, 1, 69, 72
2, 280270, Note_off_c, 1, 69, 0
2, 280320, Note_on_c, 1, 67, 72
2, 280560, Note_off_c, 1, 67, 0
2, 280560, Note_on_c, 1, 69, 73
2, 280680, Note_off_c, 1, 69, 0
2, 280680, Note_on_c, 1, 71, 73
2, 280800, Note_off_c, 1, 71, 0
2, 280800, Note_on_c, 1, 72, 73
2, 280920, Note_off_c, 1, 72, 0
2, 280920, Note_on_c, 1, 74, 73
2, 281040, Note_off_c, 1, 74, 0
2, 281040, Note_on_c, 1, 76, 74
2, 281160, Note_off_c, 1, 76, 0
2, 281160, Note_on_c, 1, 77, 74
2, 281280, Note_off_c, 1, 77, 0
2, 281280, Note_on_c, 1, 78, 74
2, 281400, Note_off_c, 1, 78, 0
2, 281400, Note_on_c, 1, 79, 75
2, 281520, Note_off_c, 1, 79, 0
2, 281520, Note_on_c, 1, 81, 75
2, 281640, Note_off_c, 1, 81, 0
2, 281640, Note_on_c, 1, 79, 75
2, 281760, Note_off_c, 1, 79, 0
2, 281760, Note_on_c, 1, 77, 75
2, 281880, Note_off_c, 1, 77, 0
2, 281880, Note_on_c, 1, 76, 76
2, 282000, Note_off_c, 1, 76, 0
2, 282000, Note_on_c, 1, 74, 76
2, 282120, Note_off_c, 1, 74, 0
2, 282120, Note_on_c, 1, 72, 76
2, 282240, Note_off_c, 1, 72, 0
2, 282240, Note_on_c, 1, 74, 77
2, 282320, Note_off_c, 1, 74, 0
2, 282320, Note_on_c, 1, 76, 77
2, 282400, Note_off_c, 1, 76, 0
2, 282400, Note_on_c, 1, 74, 77
2, 282480, Note_off_c, 1, 74, 0
2, 282480, Note_on_c, 1, 76, 77
2, 282560, Note_off_c, 1, 76, 0
2, 282560, Note_on_c, 1, 74, 77
2, 282640, Note_off_c, 1, 74, 0
2, 282640, Note_on_c, 1, 76, 77
2, 282720, Note_off_c, 1, 76, 0
2, 282720, Note_on_c, 1, 74, 78
2, 282800, Note_off_c, 1, 74, 0
2, 282800, Note_on_c, 1, 76, 78
2, 282880, Note_off_c, 1, 76, 0
2, 282880, Note_on_c, 1, 74, 78
2, 282960, Note_off_c, 1, 74, 0
2, 282960, Note_on_c, 1, 76, 78
2, 283040, Note_off_c, 1, 76, 0
2, 283040, Note_on_c, 1, 74, 78
2, 283120, Note_off_c, 1, 74, 0
2, 283120, Note_on_c, 1, 76, 79
2, 283200, Note_off_c, 1, 76, 0
2, 283200, Note_on_c, 1, 74, 79
2, 283280, Note_off_c, 1, 74, 0
2, 283280, Note_on_c, 1, 76, 79
2, 283360, Note_off_c, 1, 76, 0
2, 283360, Note_on_c, 1, 74, 79
2, 283440, Note_off_c, 1, 74, 0
2, 283440, Note_on_c, 1, 76, 79
2, 283520, Note_off_c, 1, 76, 0
2, 283520, Note_on_c, 1, 74, 80
2, 283600, Note_off_c, 1, 74, 0
2, 283600, Note_on_c, 1, 76, 80
2, 283680, Note_off_c, 1, 76, 0
2, 283680, Note_on_c, 1, 74, 80
2, 283760, Note_off_c, 1, 74, 0
2, 283760, Note_on_c, 1, 76, 80
2, 283840, Note_off_c, 1, 76, 0
2, 283840, Note_on_c, 1, 74, 80
2, 283920, Note_off_c, 1, 74, 0
2, 283920, Note_on_c, 1, 72, 80
2, 284040, Note_off_c, 1, 72, 0
2, 284040, Note_on_c, 1, 74, 81
2, 284160, Note_off_c, 1, 74, 0
2, 284160, Note_on_c, 1, 72, 81
2, 284640, Note_off_c, 1, 72, 0
2, 284880, Note_on_c, 1, 76, 41
2, 285120, Note_off_c, 1, 76, 0
2, 285120, Note_on_c, 1, 79, 48
2, 285360, Note_off_c, 1, 79, 0
2, 285360, Note_on_c, 1, 77, 42
2, 285550, Note_off_c, 1, 77, 0
2, 285840, Note_on_c, 1, 74, 43
2, 286080, Note_off_c, 1, 74, 0
2, 286080, Note_on_c, 1, 77, 50
2, 286320, Note_off_c, 1, 77, 0
2, 286320, Note_on_c, 1, 76, 45
2, 286510, Note_off_c, 1, 76, 0
2, 286800, Note_on_c, 1, 72, 46
2, 287040, Note_off_c, 1, 72, 0
2, 287040, Note_on_c, 1, 76, 51
2, 287280, Note_off_c, 1, 76, 0
2, 287280, Note_on_c, 1, 74, 47
2, 287470, Note_off_c, 1, 74, 0
2, 287760, Note_on_c, 1, 71, 48
2, 288000, Note_off_c, 1, 71, 0
2, 288000, Note_on_c, 1, 74, 52
2, 288240, Note_off_c, 1, 74, 0
2, 288240, Note_on_c, 1, 72, 46
2, 288430, Note_off_c, 1, 72, 0
2, 288480, Note_on_c, 1, 76, 61
2, 288575, Note_off_c, 1, 76, 0
2, 288600, Note_on_c, 1, 77, 61
2, 288695, Note_off_c, 1, 77, 0
2, 288720, Note_on_c, 1, 79, 62
2, 288815, Note_off_c, 1, 79, 0
2, 288840, Note_on_c, 1, 76, 62
2, 288935, Note_off_c, 1, 76, 0
2, 288960, Note_on_c, 1, 77, 62
2, 289055, Note_off_c, 1, 77, 0
2, 289080, Note_on_c, 1, 79, 62
2, 289175, Note_off_c, 1, 79, 0
2, 289200, Note_on_c, 1, 81, 63
2, 289295, Note_off_c, 1, 81, 0
2, 289320, Note_on_c, 1, 77, 63
2, 289415, Note_off_c, 1, 77, 0
2, 289440, Note_on_c, 1, 74, 63
2, 289535, Note_off_c, 1, 74, 0
2, 289560, Note_on_c, 1, 76, 64
2, 289655, Note_off_c, 1, 76, 0
2, 289680, Note_on_c, 1, 77, 64
2, 289775, Note_off_c, 1, 77, 0
2, 289800, Note_on_c, 1, 74, 64
2, 289895, Note_off_c, 1, 74, 0
2, 289920, Note_on_c, 1, 76, 65
2, 290015, Note_off_c, 1, 76, 0
2, 290040, Note_on_c, 1, 77, 65
2, 290135, Note_off_c, 1, 77, 0
2, 290160, Note_on_c, 1, 79, 65
2, 290255, Note_off_c, 1, 79, 0
2, 290280, Note_on_c, 1, 76, 66
2, 290375, Note_off_c, 1, 76, 0
2, 290400, Note_on_c, 1, 72, 66
2, 290495, Note_off_c, 1, 72, 0
2, 290520, Note_on_c, 1, 74, 66
2, 290615, Note_off_c, 1, 74, 0
2, 290640, Note_on_c, 1, 76, 66
2, 290735, Note_off_c, 1, 76, 0
2, 290760, Note_on_c, 1, 72, 67
2, 290855, Note_off_c, 1, 72, 0
2, 290880, Note_on_c, 1, 74, 67
2, 290975, Note_off_c, 1, 74, 0
2, 291000, Note_on_c, 1, 76, 67
2, 291095, Note_off_c, 1, 76, 0
2, 291120, Note_on_c, 1, 77, 68
2, 291215, Note_off_c, 1, 77, 0
2, 291240, Note_on_c, 1, 74, 68
2, 291335, Note_off_c, 1, 74, 0
2, 291360, Note_on_c, 1, 71, 68
2, 291455, Note_off_c, 1, 71, 0
2, 291480, Note_on_c, 1, 72, 69
2, 291575, Note_off_c, 1, 72, 0
2, 291600, Note_on_c, 1, 74, 69
2, 291695, Note_off_c, 1, 74, 0
2, 291720, Note_on_c, 1, 71, 69
2, 291815, Note_off_c, 1, 71, 0
2, 291840, Control_c, 1, 64, 127
2, 291960, Note_on_c, 1, 72, 70
2, 292595, Note_off_c, 1, 72, 0
2, 292740, Control_c, 1, 64, 0
2, 292800, Note_on_c, 1, 67, 72
2, 293640, Note_off_c, 1, 67, 0
2, 293760, Note_on_c, 1, 76, 77
2, 294480, Note_off_c, 1, 76, 0
2, 294480, Note_on_c, 1, 77, 70
2, 294600, Note_off_c, 1, 77, 0
2, 294600, Note_on_c, 1, 74, 69
2, 294720, Note_off_c, 1, 74, 0
2, 294720, Note_on_c, 1, 72, 68
2, 295140, Note_off_c, 1, 72, 0
2, 295200, Note_on_c, 1, 74, 72
2, 295295, Note_off_c, 1, 74, 0
2, 295320, Note_on_c, 1, 77, 73
2, 295415, Note_off_c, 1, 77, 0
2, 295440, Note_on_c, 1, 79, 74
2, 295535, Note_off_c, 1, 79, 0
2, 295560, Note_on_c, 1, 83, 75
2, 295655, Note_off_c, 1, 83, 0
2, 295680, Note_on_c, 1, 72, 76
2, 295775, Note_off_c, 1, 72, 0
2, 295800, Note_on_c, 1, 76, 77
2, 295895, Note_off_c, 1, 76, 0
2, 295920, Note_on_c, 1, 79, 78
2, 296015, Note_off_c, 1, 79, 0
2, 296040, Note_on_c, 1, 84, 79
2, 296135, Note_off_c, 1, 84, 0
2, 296160, Note_on_c, 1, 74, 80
2, 296255, Note_off_c, 1, 74, 0
2, 296280, Note_on_c, 1, 77, 81
2, 296375, Note_off_c, 1, 77, 0
2, 296400, Note_on_c, 1, 79, 82
2, 296495, Note_off_c, 1, 79, 0
2, 296520, Note_on_c, 1, 83, 83
2, 296615, Note_off_c, 1, 83, 0
2, 296640, Note_on_c, 1, 72, 84
2, 296735, Note_off_c, 1, 72, 0
2, 296760, Note_on_c, 1, 76, 85
2, 296855, Note_off_c, 1, 76, 0
2, 296880, Note_on_c, 1, 79, 87
2, 296975, Note_off_c, 1, 79, 0
2, 297000, Note_on_c, 1, 84, 88
2, 297095, Note_off_c, 1, 84, 0
2, 297120, Note_on_c, 1, 74, 89
2, 297215, Note_off_c, 1, 74, 0
2, 297240, Note_on_c, 1, 77, 90
2, 297335, Note_off_c, 1, 77, 0
2, 297360, Note_on_c, 1, 79, 91
2, 297455, Note_off_c, 1, 79, 0
2, 297480, Note_on_c, 1, 83, 92
2, 297575, Note_off_c, 1, 83, 0
2, 297600, Note_on_c, 1, 84, 93
2, 297980, Note_off_c, 1, 84, 0
2, 298200, Note_on_c, 1, 72, 94
2, 298505, Note_off_c, 1, 72, 0
2, 298680, Note_on_c, 1, 72, 97
2, 298985, Note_off_c, 1, 72, 0
2, 299520, Control_c, 1, 64, 0
2, 299520, Note_on_c, 1, 69, 45
2, 299880, Note_off_c, 1, 69, 0
2, 299880, Note_on_c, 1, 65, 50
2, 299975, Note_off_c, 1, 65, 0
2, 300000, Note_on_c, 1, 70, 51
2, 300360, Note_off_c, 1, 70, 0
2, 300360, Note_on_c, 1, 67, 56
2, 300455, Note_off_c, 1, 67, 0
2, 300480, Note_on_c, 1, 72, 61
2, 301200, Note_off_c, 1, 72, 0
2, 301200, Note_on_c, 1, 69, 49
2, 301390, Note_off_c, 1, 69, 0
2, 301440, Note_on_c, 1, 65, 45
2, 301825, Note_off_c, 1, 65, 0
2, 302400, Note_on_c, 1, 74, 51
2, 302760, Note_off_c, 1, 74, 0
2, 302760, Note_on_c, 1, 70, 56
2, 302855, Note_off_c, 1, 70, 0
2, 302880, Note_on_c, 1, 76, 57
2, 303240, Note_off_c, 1, 76, 0
2, 303240, Note_on_c, 1, 72, 61
2, 303335, Note_off_c, 1, 72, 0
2, 303360, Note_on_c, 1, 77, 67
2, 304080, Note_off_c, 1, 77, 0
2, 304080, Note_on_c, 1, 72, 55
2, 304270, Note_off_c, 1, 72, 0
2, 304320, Note_on_c, 1, 69, 49
2, 304705, Note_off_c, 1, 69, 0
2, 305280, Note_on_c, 1, 77, 59
2, 305640, Note_off_c, 1, 77, 0
2, 305640, Note_on_c, 1, 72, 61
2, 305735, Note_off_c, 1, 72, 0
2, 305760, Note_on_c, 1, 79, 61
2, 306120, Note_off_c, 1, 79, 0
2, 306120, Note_on_c, 1, 76, 63
2, 306215, Note_off_c, 1, 76, 0
2, 306240, Note_on_c, 1, 81, 64
2, 306600, Note_off_c, 1, 81, 0
2, 306600, Note_on_c, 1, 79, 66
2, 306695, Note_off_c, 1, 79, 0
2, 306720, Note_on_c, 1, 77, 67
2, 307080, Note_off_c, 1, 77, 0
2, 307080, Note_on_c, 1, 76, 69
2, 307175, Note_off_c, 1, 76, 0
2, 307200, Note_on_c, 1, 77, 69
2, 307560, Note_off_c, 1, 77, 0
2, 307560, Note_on_c, 1, 72, 71
2, 307655, Note_off_c, 1, 72, 0
2, 307680, Note_on_c, 1, 74, 72
2, 308040, Note_off_c, 1, 74, 0
2, 308040, Note_on_c, 1, 69, 74
2, 308135, Note_off_c, 1, 69, 0
2, 308160, Note_on_c, 1, 72, 75
2, 308640, Note_off_c, 1, 72, 0
2, 308640, Note_on_c, 1, 70, 68
2, 308700, Note_off_c, 1, 70, 0
2, 308700, Note_on_c, 1, 72, 66
2, 308760, Note_off_c, 1, 72, 0
2, 308760, Note_on_c, 1, 70, 64
2, 308820, Note_off_c, 1, 70, 0
2, 308820, Note_on_c, 1, 72, 62
2, 308880, Note_off_c, 1, 72, 0
2, 308880, Note_on_c, 1, 70, 60
2, 308920, Note_off_c, 1, 70, 0
2, 308920, Note_on_c, 1, 72, 59
2, 308960, Note_off_c, 1, 72, 0
2, 308960, Note_on_c, 1, 70, 57
2, 309000, Note_off_c, 1, 70, 0
2, 309000, Note_on_c, 1, 69, 56
2, 309060, Note_off_c, 1, 69, 0
2, 309060, Note_on_c, 1, 70, 54
2, 309120, Note_off_c, 1, 70, 0
2, 309120, Note_on_c, 1, 69, 52
2, 309505, Note_off_c, 1, 69, 0
2, 310080, Note_on_c, 1, 69, 39
2, 310235, Note_off_c, 1, 69, 0
2, 310320, Note_on_c, 1, 70, 41
2, 310475, Note_off_c, 1, 70, 0
2, 310560, Note_on_c, 1, 71, 43
2, 310715, Note_off_c, 1, 71, 0
2, 310800, Note_on_c, 1, 72, 45
2, 310955, Note_off_c, 1, 72, 0
2, 311040, Note_on_c, 1, 65, 47
2, 311760, Note_on_c, 1, 67, 38
2, 311765, Note_off_c, 1, 65, 0
2, 311880, Note_off_c, 1, 67, 0
2, 311880, Note_on_c, 1, 65, 36
2, 312000, Note_off_c, 1, 65, 0
2, 312000, Note_on_c, 1, 64, 34
2, 312380, Note_off_c, 1, 64, 0
2, 312720, Note_on_c, 1, 76, 49
2, 312910, Note_off_c, 1, 76, 0
2, 312960, Note_on_c, 1, 79, 51
2, 313200, Note_off_c, 1, 79, 0
2, 313200, Note_on_c, 1, 77, 54
2, 313390, Note_off_c, 1, 77, 0
2, 313440, Note_on_c, 1, 76, 56
2, 313680, Note_off_c, 1, 76, 0
2, 313680, Note_on_c, 1, 74, 59
2, 313870, Note_off_c, 1, 74, 0
2, 313920, Note_on_c, 1, 72, 62
2, 314640, Note_off_c, 1, 72, 0
2, 314640, Note_on_c, 1, 74, 48
2, 314760, Note_off_c, 1, 74, 0
2, 314760, Note_on_c, 1, 72, 44
2, 314880, Note_off_c, 1, 72, 0
2, 314880, Note_on_c, 1, 71, 41
2, 315245, Note_off_c, 1, 71, 0
2, 315600, Note_on_c, 1, 70, 63
2, 315790, Note_off_c, 1, 70, 0
2, 315840, Note_on_c, 1, 82, 67
2, 316080, Note_off_c, 1, 82, 0
2, 316080, Note_on_c, 1, 79, 70
2, 316270, Note_off_c, 1, 79, 0
2, 316320, Note_on_c, 1, 77, 74
2, 316560, Note_off_c, 1, 77, 0
2, 316560, Note_on_c, 1, 76, 77
2, 316750, Note_off_c, 1, 76, 0
2, 316800, Note_on_c, 1, 77, 81
2, 316920, Note_off_c, 1, 77, 0
2, 316920, Note_on_c, 1, 79, 77
2, 317040, Note_off_c, 1, 79, 0
2, 317040, Note_on_c, 1, 77, 74
2, 317160, Note_off_c, 1, 77, 0
2, 317160, Note_on_c, 1, 79, 71
2, 317280, Note_off_c, 1, 79, 0
2, 317280, Note_on_c, 1, 81, 68
2, 317400, Note_off_c, 1, 81, 0
2, 317400, Note_on_c, 1, 82, 64
2, 317520, Note_off_c, 1, 82, 0
2, 317520, Note_on_c, 1, 81, 61
2, 317640, Note_off_c, 1, 81, 0
2, 317640, Note_on_c, 1, 82, 58
2, 317760, Note_off_c, 1, 82, 0
2, 317760, Note_on_c, 1, 84, 55
2, 318125, Note_off_c, 1, 84, 0
2, 318480, Note_on_c, 1, 72, 46
2, 318670, Note_off_c, 1, 72, 0
2, 318720, Note_on_c, 1, 76, 48
2, 318960, Note_off_c, 1, 76, 0
2, 318960, Note_on_c, 1, 74, 49
2, 319150, Note_off_c, 1, 74, 0
2, 319200, Note_on_c, 1, 72, 51
2, 319440, Note_off_c, 1, 72, 0
2, 319440, Note_on_c, 1, 70, 52
2, 319630, Note_off_c, 1, 70, 0
2, 319680, Note_on_c, 1, 69, 56
2, 320400, Note_off_c, 1, 69, 0
2, 320400, Note_on_c, 1, 70, 44
2, 320520, Note_off_c, 1, 70, 0
2, 320520, Note_on_c, 1, 69, 42
2, 320640, Note_off_c, 1, 69, 0
2, 320640, Note_on_c, 1, 67, 40
2, 321480, Note_off_c, 1, 67, 0
2, 322560, Note_on_c, 1, 69, 48
2, 322920, Note_off_c, 1, 69, 0
2, 322920, Note_on_c, 1, 65, 52
2, 323015, Note_off_c, 1, 65, 0
2, 323040, Note_on_c, 1, 70, 53
2, 323400, Note_off_c, 1, 70, 0
2, 323400, Note_on_c, 1, 67, 57
2, 323495, Note_off_c, 1, 67, 0
2, 323520, Note_on_c, 1, 72, 64
2, 324240, Note_off_c, 1, 72, 0
2, 324240, Note_on_c, 1, 69, 49
2, 324430, Note_off_c, 1, 69, 0
2, 324480, Note_on_c, 1, 65, 44
2, 324865, Note_off_c, 1, 65, 0
2, 325440, Note_on_c, 1, 74, 54
2, 325800, Note_off_c, 1, 74, 0
2, 325800, Note_on_c, 1, 70, 59
2, 325895, Note_off_c, 1, 70, 0
2, 325920, Note_on_c, 1, 76, 60
2, 326280, Note_off_c, 1, 76, 0
2, 326280, Note_on_c, 1, 72, 65
2, 326375, Note_off_c, 1, 72, 0
2, 326400, Note_on_c, 1, 77, 71
2, 327120, Note_off_c, 1, 77, 0
2, 327120, Note_on_c, 1, 72, 56
2, 327310, Note_off_c, 1, 72, 0
2, 327360, Note_on_c, 1, 69, 51
2, 327745, Note_off_c, 1, 69, 0
2, 328320, Note_on_c, 1, 84, 65
2, 328680, Note_off_c, 1, 84, 0
2, 328680, Note_on_c, 1, 81, 67
2, 328775, Note_off_c, 1, 81, 0
2, 328800, Note_on_c, 1, 82, 68
2, 329160, Note_off_c, 1, 82, 0
2, 329160, Note_on_c, 1, 79, 70
2, 329255, Note_off_c, 1, 79, 0
2, 329280, Note_on_c, 1, 81, 71
2, 329640, Note_off_c, 1, 81, 0
2, 329640, Note_on_c, 1, 77, 73
2, 329735, Note_off_c, 1, 77, 0
2, 329760, Note_on_c, 1, 79, 74
2, 330120, Note_off_c, 1, 79, 0
2, 330120, Note_on_c, 1, 76, 76
2, 330215, Note_off_c, 1, 76, 0
2, 330240, Note_on_c, 1, 77, 77
2, 330600, Note_off_c, 1, 77, 0
2, 330600, Note_on_c, 1, 72, 79
2, 330695, Note_off_c, 1, 72, 0
2, 330720, Note_on_c, 1, 74, 80
2, 331080, Note_off_c, 1, 74, 0
2, 331080, Note_on_c, 1, 69, 82
2, 331175, Note_off_c, 1, 69, 0
2, 331200, Note_on_c, 1, 72, 83
2, 331680, Note_off_c, 1, 72, 0
2, 331680, Note_on_c, 1, 70, 72
2, 331740, Note_off_c, 1, 70, 0
2, 331740, Note_on_c, 1, 72, 70
2, 331800, Note_off_c, 1, 72, 0
2, 331800, Note_on_c, 1, 70, 68
2, 331860, Note_off_c, 1, 70, 0
2, 331860, Note_on_c, 1, 72, 66
2, 331920, Note_off_c, 1, 72, 0
2, 331920, Note_on_c, 1, 70, 64
2, 331960, Note_off_c, 1, 70, 0
2, 331960, Note_on_c, 1, 72, 63
2, 332000, Note_off_c, 1, 72, 0
2, 332000, Note_on_c, 1, 70, 62
2, 332040, Note_off_c, 1, 70, 0
2, 332040, Note_on_c, 1, 69, 60
2, 332100, Note_off_c, 1, 69, 0
2, 332100, Note_on_c, 1, 70, 58
2, 332160, Note_off_c, 1, 70, 0
2, 332160, Note_on_c, 1, 69, 56
2, 332545, Note_off_c, 1, 69, 0
2, 333120, Note_on_c, 1, 69, 46
2, 333275, Note_off_c, 1, 69, 0
2, 333360, Note_on_c, 1, 70, 48
2, 333515, Note_off_c, 1, 70, 0
2, 333600, Note_on_c, 1, 71, 50
2, 333755, Note_off_c, 1, 71, 0
2, 333840, Note_on_c, 1, 72, 53
2, 333995, Note_off_c, 1, 72, 0
2, 334080, Note_on_c, 1, 65, 59
2, 334800, Note_on_c, 1, 67, 47
2, 334805, Note_off_c, 1, 65, 0
2, 334920, Note_off_c, 1, 67, 0
2, 334920, Note_on_c, 1, 65, 45
2, 335040, Note_off_c, 1, 65, 0
2, 335040, Note_on_c, 1, 64, 43
2, 335425, Note_off_c, 1, 64, 0
2, 335760, Note_on_c, 1, 76, 50
2, 335950, Note_off_c, 1, 76, 0
2, 336000, Note_on_c, 1, 79, 53
2, 336240, Note_off_c, 1, 79, 0
2, 336240, Note_on_c, 1, 77, 56
2, 336430, Note_off_c, 1, 77, 0
2, 336480, Note_on_c, 1, 76, 59
2, 336720, Note_off_c, 1, 76, 0
2, 336720, Note_on_c, 1, 74, 62
2, 336910, Note_off_c, 1, 74, 0
2, 336960, Note_on_c, 1, 72, 69
2, 337200, Note_off_c, 1, 72, 0
2, 337200, Note_on_c, 1, 71, 63
2, 337440, Note_off_c, 1, 71, 0
2, 337440, Note_on_c, 1, 70, 57
2, 337825, Note_off_c, 1, 70, 0
2, 338640, Note_on_c, 1, 67, 50
2, 338830, Note_off_c, 1, 67, 0
2, 338880, Note_on_c, 1, 69, 53
2, 339120, Note_off_c, 1, 69, 0
2, 339120, Note_on_c, 1, 70, 55
2, 339200, Note_off_c, 1, 70, 0
2, 339200, Note_on_c, 1, 69, 56
2, 339280, Note_off_c, 1, 69, 0
2, 339280, Note_on_c, 1, 67, 57
2, 339360, Note_off_c, 1, 67, 0
2, 339360, Note_on_c, 1, 69, 58
2, 339600, Note_off_c, 1, 69, 0
2, 339600, Note_on_c, 1, 70, 60
2, 339790, Note_off_c, 1, 70, 0
2, 339840, Note_on_c, 1, 72, 63
2, 340080, Note_off_c, 1, 72, 0
2, 340080, Note_on_c, 1, 74, 65
2, 340160, Note_off_c, 1, 74, 0
2, 340160, Note_on_c, 1, 72, 66
2, 340240, Note_off_c, 1, 72, 0
2, 340240, Note_on_c, 1, 71, 67
2, 340320, Note_off_c, 1, 71, 0
2, 340320, Note_on_c, 1, 72, 68
2, 340560, Note_off_c, 1, 72, 0
2, 340560, Note_on_c, 1, 74, 70
2, 340750, Note_off_c, 1, 74, 0
2, 340800, Note_on_c, 1, 65, 73
2, 341185, Note_off_c, 1, 65, 0
2, 341760, Note_on_c, 1, 69, 45
2, 342000, Note_off_c, 1, 69, 0
2, 342000, Note_on_c, 1, 67, 46
2, 342240, Note_off_c, 1, 67, 0
2, 342240, Note_on_c, 1, 65, 48
2, 342480, Note_off_c, 1, 65, 0
2, 342480, Note_on_c, 1, 67, 50
2, 342670, Note_off_c, 1, 67, 0
2, 342720, Note_on_c, 1, 67, 52
2, 343680, Note_off_c, 1, 67, 0
2, 343680, Note_on_c, 1, 65, 40
2, 344065, Note_off_c, 1, 65, 0
2, 345600, Note_on_c, 1, 65, 42
2, 345660, Note_on_c, 1, 69, 42
2, 345665, Note_off_c, 1, 65, 0
2, 345950, Note_off_c, 1, 69, 0
2, 345960, Note_on_c, 1, 65, 46
2, 346055, Note_off_c, 1, 65, 0
2, 346080, Note_on_c, 1, 67, 48
2, 346140, Note_on_c, 1, 70, 48
2, 346145, Note_off_c, 1, 67, 0
2, 346440, Note_on_c, 1, 67, 52
2, 346445, Note_off_c, 1, 70, 0
2, 346535, Note_off_c, 1, 67, 0
2, 346560, Note_on_c, 1, 69, 55
2, 346620, Note_off_c, 1, 69, 0
2, 346620, Note_on_c, 1, 72, 59
2, 347280, Note_off_c, 1, 72, 0
2, 347280, Note_on_c, 1, 69, 44
2, 347470, Note_off_c, 1, 69, 0
2, 347520, Note_on_c, 1, 65, 38
2, 347905, Note_off_c, 1, 65, 0
2, 348480, Note_on_c, 1, 70, 46
2, 348540, Note_off_c, 1, 70, 0
2, 348540, Note_on_c, 1, 74, 47
2, 348840, Note_on_c, 1, 70, 52
2, 348845, Note_off_c, 1, 74, 0
2, 348935, Note_off_c, 1, 70, 0
2, 348960, Note_on_c, 1, 72, 53
2, 349020, Note_off_c, 1, 72, 0
2, 349020, Note_on_c, 1, 76, 54
2, 349320, Note_on_c, 1, 72, 59
2, 349325, Note_off_c, 1, 76, 0
2, 349415, Note_off_c, 1, 72, 0
2, 349440, Note_on_c, 1, 72, 63
2, 349500, Note_off_c, 1, 72, 0
2, 349500, Note_on_c, 1, 77, 69
2, 350160, Note_on_c, 1, 72, 52
2, 350165, Note_off_c, 1, 77, 0
2, 350350, Note_off_c, 1, 72, 0
2, 350400, Note_on_c, 1, 69, 46
2, 350785, Note_off_c, 1, 69, 0
2, 351360, Note_on_c, 1, 72, 61
2, 351420, Note_off_c, 1, 72, 0
2, 351420, Note_on_c, 1, 77, 61
2, 351720, Note_on_c, 1, 72, 63
2, 351725, Note_off_c, 1, 77, 0
2, 351815, Note_off_c, 1, 72, 0
2, 351840, Note_on_c, 1, 76, 64
2, 351900, Note_off_c, 1, 76, 0
2, 351900, Note_on_c, 1, 79, 65
2, 352200, Note_off_c, 1, 79, 0
2, 352200, Note_on_c, 1, 76, 67
2, 352295, Note_off_c, 1, 76, 0
2, 352320, Note_on_c, 1, 77, 68
2, 352380, Note_off_c, 1, 77, 0
2, 352380, Note_on_c, 1, 81, 69
2, 352680, Note_on_c, 1, 79, 71
2, 352685, Note_off_c, 1, 81, 0
2, 352775, Note_off_c, 1, 79, 0
2, 352800, Note_on_c, 1, 79, 72
2, 352860, Note_off_c, 1, 79, 0
2, 352860, Note_on_c, 1, 77, 73
2, 353160, Note_off_c, 1, 77, 0
2, 353160, Note_on_c, 1, 76, 75
2, 353255, Note_off_c, 1, 76, 0
2, 353280, Note_on_c, 1, 76, 76
2, 353340, Note_off_c, 1, 76, 0
2, 353340, Note_on_c, 1, 74, 76
2, 353640, Note_on_c, 1, 72, 79
2, 353645, Note_off_c, 1, 74, 0
2, 353735, Note_off_c, 1, 72, 0
2, 353760, Note_on_c, 1, 72, 80
2, 353820, Note_off_c, 1, 72, 0
2, 353820, Note_on_c, 1, 70, 80
2, 354120, Note_on_c, 1, 69, 72
2, 354125, Note_off_c, 1, 70, 0
2, 354215, Note_off_c, 1, 69, 0
2, 354240, Note_on_c, 1, 72, 69
2, 354480, Note_off_c, 1, 72, 0
2, 354480, Note_on_c, 1, 71, 63
2, 354720, Note_off_c, 1, 71, 0
2, 354720, Note_on_c, 1, 72, 57
2, 354960, Note_off_c, 1, 72, 0
2, 354960, Note_on_c, 1, 70, 51
2, 355200, Note_off_c, 1, 70, 0
2, 355200, Note_on_c, 1, 69, 43
2, 355585, Note_off_c, 1, 69, 0
2, 356160, Note_on_c, 1, 69, 51
2, 356280, Note_off_c, 1, 69, 0
2, 356280, Note_on_c, 1, 70, 53
2, 356400, Note_off_c, 1, 70, 0
2, 356400, Note_on_c, 1, 69, 54
2, 356520, Note_off_c, 1, 69, 0
2, 356520, Note_on_c, 1, 70, 56
2, 356640, Note_off_c, 1, 70, 0
2, 356640, Note_on_c, 1, 71, 57
2, 356760, Note_off_c, 1, 71, 0
2, 356760, Note_on_c, 1, 72, 58
2, 356880, Note_off_c, 1, 72, 0
2, 356880, Note_on_c, 1, 71, 60
2, 357000, Note_off_c, 1, 71, 0
2, 357000, Note_on_c, 1, 72, 61
2, 357095, Note_off_c, 1, 72, 0
2, 357120, Note_on_c, 1, 65, 63
2, 357840, Note_off_c, 1, 65, 0
2, 357840, Note_on_c, 1, 67, 48
2, 357960, Note_off_c, 1, 67, 0
2, 357960, Note_on_c, 1, 65, 46
2, 358080, Note_off_c, 1, 65, 0
2, 358080, Note_on_c, 1, 64, 44
2, 358465, Note_off_c, 1, 64, 0
2, 358800, Note_on_c, 1, 76, 43
2, 358990, Note_off_c, 1, 76, 0
2, 359040, Note_on_c, 1, 79, 46
2, 359160, Note_off_c, 1, 79, 0
2, 359160, Note_on_c, 1, 77, 47
2, 359280, Note_off_c, 1, 77, 0
2, 359280, Note_on_c, 1, 76, 48
2, 359400, Note_off_c, 1, 76, 0
2, 359400, Note_on_c, 1, 77, 49
2, 359520, Note_off_c, 1, 77, 0
2, 359520, Note_on_c, 1, 79, 50
2, 359640, Note_off_c, 1, 79, 0
2, 359640, Note_on_c, 1, 77, 51
2, 359760, Note_off_c, 1, 77, 0
2, 359760, Note_on_c, 1, 76, 53
2, 359880, Note_off_c, 1, 76, 0
2, 359880, Note_on_c, 1, 74, 54
2, 359975, Note_off_c, 1, 74, 0
2, 360000, Note_on_c, 1, 72, 54
2, 360720, Note_off_c, 1, 72, 0
2, 360720, Note_on_c, 1, 74, 45
2, 360840, Note_off_c, 1, 74, 0
2, 360840, Note_on_c, 1, 72, 43
2, 360960, Note_off_c, 1, 72, 0
2, 360960, Note_on_c, 1, 71, 41
2, 361345, Note_off_c, 1, 71, 0
2, 361680, Note_on_c, 1, 70, 60
2, 361870, Note_off_c, 1, 70, 0
2, 361920, Note_on_c, 1, 82, 62
2, 362040, Note_off_c, 1, 82, 0
2, 362040, Note_on_c, 1, 81, 63
2, 362160, Note_off_c, 1, 81, 0
2, 362160, Note_on_c, 1, 82, 64
2, 362280, Note_off_c, 1, 82, 0
2, 362280, Note_on_c, 1, 81, 64
2, 362400, Note_off_c, 1, 81, 0
2, 362400, Note_on_c, 1, 82, 65
2, 362520, Note_off_c, 1, 82, 0
2, 362520, Note_on_c, 1, 79, 66
2, 362640, Note_off_c, 1, 79, 0
2, 362640, Note_on_c, 1, 77, 67
2, 362760, Note_off_c, 1, 77, 0
2, 362760, Note_on_c, 1, 76, 68
2, 362855, Note_off_c, 1, 76, 0
2, 362880, Note_on_c, 1, 77, 68
2, 363000, Note_off_c, 1, 77, 0
2, 363000, Note_on_c, 1, 79, 69
2, 363040, Note_off_c, 1, 79, 0
2, 363040, Note_on_c, 1, 77, 70
2, 363080, Note_off_c, 1, 77, 0
2, 363080, Note_on_c, 1, 76, 70
2, 363120, Note_off_c, 1, 76, 0
2, 363120, Note_on_c, 1, 77, 70
2, 363240, Note_off_c, 1, 77, 0
2, 363240, Note_on_c, 1, 79, 71
2, 363335, Note_off_c, 1, 79, 0
2, 363360, Note_on_c, 1, 81, 72
2, 363480, Note_off_c, 1, 81, 0
2, 363480, Note_on_c, 1, 82, 72
2, 363520, Note_off_c, 1, 82, 0
2, 363520, Note_on_c, 1, 81, 73
2, 363560, Note_off_c, 1, 81, 0
2, 363560, Note_on_c, 1, 79, 73
2, 363600, Note_off_c, 1, 79, 0
2, 363600, Note_on_c, 1, 81, 73
2, 363720, Note_off_c, 1, 81, 0
2, 363720, Note_on_c, 1, 82, 74
2, 363815, Note_off_c, 1, 82, 0
2, 363840, Note_on_c, 1, 84, 75
2, 364030, Note_off_c, 1, 84, 0
2, 364080, Note_on_c, 1, 77, 42
2, 364320, Note_off_c, 1, 77, 0
2, 364320, Note_on_c, 1, 76, 44
2, 364560, Note_off_c, 1, 76, 0
2, 364560, Note_on_c, 1, 75, 45
2, 364800, Note_off_c, 1, 75, 0
2, 364800, Note_on_c, 1, 74, 47
2, 365040, Note_off_c, 1, 74, 0
2, 365040, Note_on_c, 1, 73, 48
2, 365280, Note_off_c, 1, 73, 0
2, 365280, Note_on_c, 1, 72, 50
2, 365520, Note_off_c, 1, 72, 0
2, 365520, Note_on_c, 1, 70, 51
2, 365710, Note_off_c, 1, 70, 0
2, 365760, Note_on_c, 1, 69, 51
2, 366480, Note_off_c, 1, 69, 0
2, 366480, Note_on_c, 1, 70, 40
2, 366600, Note_off_c, 1, 70, 0
2, 366600, Note_on_c, 1, 69, 38
2, 366720, Note_off_c, 1, 69, 0
2, 366720, Note_on_c, 1, 67, 36
2, 367100, Note_off_c, 1, 67, 0
2, 368640, Note_on_c, 1, 69, 47
2, 368760, Note_off_c, 1, 69, 0
2, 368760, Note_on_c, 1, 67, 48
2, 368880, Note_off_c, 1, 67, 0
2, 368880, Note_on_c, 1, 69, 50
2, 369000, Note_off_c, 1, 69, 0
2, 369000, Note_on_c, 1, 65, 51
2, 369120, Note_off_c, 1, 65, 0
2, 369120, Note_on_c, 1, 70, 53
2, 369240, Note_off_c, 1, 70, 0
2, 369240, Note_on_c, 1, 69, 54
2, 369360, Note_off_c, 1, 69, 0
2, 369360, Note_on_c, 1, 70, 56
2, 369480, Note_off_c, 1, 70, 0
2, 369480, Note_on_c, 1, 67, 58
2, 369575, Note_off_c, 1, 67, 0
2, 369600, Note_on_c, 1, 72, 64
2, 370200, Note_off_c, 1, 72, 0
2, 370200, Note_on_c, 1, 71, 55
2, 370320, Note_on_c, 1, 72, 51
2, 370325, Note_off_c, 1, 71, 0
2, 370440, Note_off_c, 1, 72, 0
2, 370440, Note_on_c, 1, 69, 48
2, 370560, Note_off_c, 1, 69, 0
2, 370560, Note_on_c, 1, 65, 46
2, 370945, Note_off_c, 1, 65, 0
2, 371520, Note_on_c, 1, 74, 59
2, 371640, Note_off_c, 1, 74, 0
2, 371640, Note_on_c, 1, 72, 60
2, 371760, Note_off_c, 1, 72, 0
2, 371760, Note_on_c, 1, 74, 62
2, 371880, Note_off_c, 1, 74, 0
2, 371880, Note_on_c, 1, 70, 64
2, 372000, Note_off_c, 1, 70, 0
2, 372000, Note_on_c, 1, 76, 66
2, 372120, Note_off_c, 1, 76, 0
2, 372120, Note_on_c, 1, 74, 67
2, 372240, Note_off_c, 1, 74, 0
2, 372240, Note_on_c, 1, 76, 69
2, 372360, Note_off_c, 1, 76, 0
2, 372360, Note_on_c, 1, 72, 71
2, 372465, Note_off_c, 1, 72, 0
2, 372480, Note_on_c, 1, 77, 79
2, 373080, Note_on_c, 1, 76, 65
2, 373095, Note_off_c, 1, 77, 0
2, 373200, Note_off_c, 1, 76, 0
2, 373200, Note_on_c, 1, 77, 61
2, 373320, Note_off_c, 1, 77, 0
2, 373320, Note_on_c, 1, 72, 58
2, 373440, Note_off_c, 1, 72, 0
2, 373440, Note_on_c, 1, 69, 54
2, 373825, Note_off_c, 1, 69, 0
2, 374400, Note_on_c, 1, 84, 62
2, 374520, Note_off_c, 1, 84, 0
2, 374520, Note_on_c, 1, 83, 63
2, 374640, Note_off_c, 1, 83, 0
2, 374640, Note_on_c, 1, 84, 63
2, 374760, Note_off_c, 1, 84, 0
2, 374760, Note_on_c, 1, 81, 64
2, 374880, Note_off_c, 1, 81, 0
2, 374880, Note_on_c, 1, 82, 65
2, 375000, Note_off_c, 1, 82, 0
2, 375000, Note_on_c, 1, 81, 66
2, 375120, Note_off_c, 1, 81, 0
2, 375120, Note_on_c, 1, 82, 66
2, 375240, Note_off_c, 1, 82, 0
2, 375240, Note_on_c, 1, 79, 67
2, 375335, Note_off_c, 1, 79, 0
2, 375360, Note_on_c, 1, 81, 68
2, 375480, Note_off_c, 1, 81, 0
2, 375480, Note_on_c, 1, 79, 69
2, 375600, Note_off_c, 1, 79, 0
2, 375600, Note_on_c, 1, 81, 70
2, 375720, Note_off_c, 1, 81, 0
2, 375720, Note_on_c, 1, 77, 70
2, 375840, Note_off_c, 1, 77, 0
2, 375840, Note_on_c, 1, 79, 71
2, 375960, Note_off_c, 1, 79, 0
2, 375960, Note_on_c, 1, 77, 72
2, 376080, Note_off_c, 1, 77, 0
2, 376080, Note_on_c, 1, 79, 73
2, 376200, Note_off_c, 1, 79, 0
2, 376200, Note_on_c, 1, 76, 73
2, 376295, Note_off_c, 1, 76, 0
2, 376320, Note_on_c, 1, 77, 74
2, 376440, Note_off_c, 1, 77, 0
2, 376440, Note_on_c, 1, 79, 75
2, 376560, Note_off_c, 1, 79, 0
2, 376560, Note_on_c, 1, 81, 76
2, 376680, Note_off_c, 1, 81, 0
2, 376680, Note_on_c, 1, 72, 76
2, 376800, Note_off_c, 1, 72, 0
2, 376800, Note_on_c, 1, 77, 77
2, 376920, Note_off_c, 1, 77, 0
2, 376920, Note_on_c, 1, 72, 78
2, 377040, Note_off_c, 1, 72, 0
2, 377040, Note_on_c, 1, 74, 79
2, 377160, Note_off_c, 1, 74, 0
2, 377160, Note_on_c, 1, 69, 79
2, 377255, Note_off_c, 1, 69, 0
2, 377280, Note_on_c, 1, 72, 80
2, 377640, Note_off_c, 1, 72, 0
2, 377640, Note_on_c, 1, 70, 71
2, 377760, Note_off_c, 1, 70, 0
2, 377760, Note_on_c, 1, 79, 68
2, 378120, Note_off_c, 1, 79, 0
2, 378120, Note_on_c, 1, 70, 60
2, 378240, Note_off_c, 1, 70, 0
2, 378240, Note_on_c, 1, 69, 57
2, 378625, Note_off_c, 1, 69, 0
2, 379200, Note_on_c, 1, 69, 45
2, 379360, Note_off_c, 1, 69, 0
2, 379360, Note_on_c, 1, 70, 48
2, 379520, Note_off_c, 1, 70, 0
2, 379520, Note_on_c, 1, 71, 50
2, 379680, Note_off_c, 1, 71, 0
2, 379680, Note_on_c, 1, 72, 52
2, 379840, Note_off_c, 1, 72, 0
2, 379840, Note_on_c, 1, 73, 54
2, 380000, Note_off_c, 1, 73, 0
2, 380000, Note_on_c, 1, 74, 56
2, 380130, Note_off_c, 1, 74, 0
2, 380160, Note_on_c, 1, 65, 65
2, 380880, Note_off_c, 1, 65, 0
2, 380880, Note_on_c, 1, 67, 51
2, 381000, Note_off_c, 1, 67, 0
2, 381000, Note_on_c, 1, 65, 48
2, 381120, Note_off_c, 1, 65, 0
2, 381120, Note_on_c, 1, 64, 46
2, 381505, Note_off_c, 1, 64, 0
2, 381840, Note_on_c, 1, 76, 52
2, 382030, Note_off_c, 1, 76, 0
2, 382080, Note_on_c, 1, 79, 55
2, 382240, Note_off_c, 1, 79, 0
2, 382240, Note_on_c, 1, 78, 57
2, 382400, Note_off_c, 1, 78, 0
2, 382400, Note_on_c, 1, 77, 59
2, 382560, Note_off_c, 1, 77, 0
2, 382560, Note_on_c, 1, 76, 61
2, 382720, Note_off_c, 1, 76, 0
2, 382720, Note_on_c, 1, 75, 63
2, 382880, Note_off_c, 1, 75, 0
2, 382880, Note_on_c, 1, 74, 65
2, 383015, Note_off_c, 1, 74, 0
2, 383040, Note_on_c, 1, 72, 71
2, 383200, Note_off_c, 1, 72, 0
2, 383200, Note_on_c, 1, 71, 68
2, 383360, Note_off_c, 1, 71, 0
2, 383360, Note_on_c, 1, 79, 64
2, 383495, Note_off_c, 1, 79, 0
2, 383520, Note_on_c, 1, 70, 61
2, 383905, Note_off_c, 1, 70, 0
2, 384720, Note_on_c, 1, 55, 46
2, 384910, Note_off_c, 1, 55, 0
2, 384960, Note_on_c, 1, 57, 47
2, 385080, Note_off_c, 1, 57, 0
2, 385080, Note_on_c, 1, 58, 48
2, 385200, Note_off_c, 1, 58, 0
2, 385200, Note_on_c, 1, 57, 49
2, 385320, Note_off_c, 1, 57, 0
2, 385320, Note_on_c, 1, 55, 50
2, 385440, Note_off_c, 1, 55, 0
2, 385440, Note_on_c, 1, 57, 51
2, 385560, Note_off_c, 1, 57, 0
2, 385560, Note_on_c, 1, 58, 51
2, 385680, Note_off_c, 1, 58, 0
2, 385680, Note_on_c, 1, 57, 52
2, 385800, Note_off_c, 1, 57, 0
2, 385800, Note_on_c, 1, 58, 53
2, 385905, Note_off_c, 1, 58, 0
2, 385920, Note_on_c, 1, 60, 54
2, 386040, Note_off_c, 1, 60, 0
2, 386040, Note_on_c, 1, 62, 55
2, 386160, Note_off_c, 1, 62, 0
2, 386160, Note_on_c, 1, 60, 55
2, 386280, Note_off_c, 1, 60, 0
2, 386280, Note_on_c, 1, 59, 56
2, 386400, Note_off_c, 1, 59, 0
2, 386400, Note_on_c, 1, 60, 57
2, 386520, Note_off_c, 1, 60, 0
2, 386520, Note_on_c, 1, 62, 58
2, 386640, Note_off_c, 1, 62, 0
2, 386640, Note_on_c, 1, 60, 58
2, 386760, Note_off_c, 1, 60, 0
2, 386760, Note_on_c, 1, 62, 59
2, 386880, Note_off_c, 1, 62, 0
2, 386880, Note_on_c, 1, 53, 60
2, 387265, Note_off_c, 1, 53, 0
2, 387840, Note_on_c, 1, 57, 49
2, 388080, Note_off_c, 1, 57, 0
2, 388080, Note_on_c, 1, 55, 51
2, 388320, Note_off_c, 1, 55, 0
2, 388320, Note_on_c, 1, 53, 53
2, 388560, Note_off_c, 1, 53, 0
2, 388560, Note_on_c, 1, 55, 55
2, 388750, Note_off_c, 1, 55, 0
2, 388800, Note_on_c, 1, 55, 57
2, 389760, Note_off_c, 1, 55, 0
2, 389760, Note_on_c, 1, 53, 44
2, 390145, Note_off_c, 1, 53, 0
2, 391680, Note_on_c, 1, 64, 44
2, 391920, Note_off_c, 1, 64, 0
2, 391920, Note_on_c, 1, 67, 45
2, 392160, Note_off_c, 1, 67, 0
2, 392160, Note_on_c, 1, 72, 45
2, 392400, Note_off_c, 1, 72, 0
2, 392400, Note_on_c, 1, 76, 46
2, 392590, Note_off_c, 1, 76, 0
2, 392640, Note_on_c, 1, 79, 47
2, 393840, Note_off_c, 1, 79, 0
2, 393840, Note_on_c, 1, 81, 51
2, 393920, Note_off_c, 1, 81, 0
2, 393920, Note_on_c, 1, 79, 51
2, 394000, Note_off_c, 1, 79, 0
2, 394000, Note_on_c, 1, 78, 51
2, 394080, Note_off_c, 1, 78, 0
2, 394080, Note_on_c, 1, 79, 52
2, 394320, Note_off_c, 1, 79, 0
2, 394320, Note_on_c, 1, 81, 52
2, 394510, Note_off_c, 1, 81, 0
2, 394560, Note_on_c, 1, 72, 54
2, 395520, Note_off_c, 1, 72, 0
2, 395520, Note_on_c, 1, 71, 48
2, 395905, Note_off_c, 1, 71, 0
2, 396480, Note_on_c, 1, 71, 49
2, 396720, Note_off_c, 1, 71, 0
2, 396720, Note_on_c, 1, 74, 50
2, 396960, Note_off_c, 1, 74, 0
2, 396960, Note_on_c, 1, 77, 51
2, 397200, Note_off_c, 1, 77, 0
2, 397200, Note_on_c, 1, 83, 52
2, 397390, Note_off_c, 1, 83, 0
2, 397440, Note_on_c, 1, 86, 53
2, 398160, Note_off_c, 1, 86, 0
2, 398160, Note_on_c, 1, 83, 57
2, 398350, Note_off_c, 1, 83, 0
2, 398400, Note_on_c, 1, 89, 58
2, 398640, Note_off_c, 1, 89, 0
2, 398640, Note_on_c, 1, 86, 59
2, 398880, Note_off_c, 1, 86, 0
2, 398880, Note_on_c, 1, 83, 60
2, 399120, Note_off_c, 1, 83, 0
2, 399120, Note_on_c, 1, 79, 61
2, 399310, Note_off_c, 1, 79, 0
2, 399360, Note_on_c, 1, 78, 62
2, 399600, Note_off_c, 1, 78, 0
2, 399600, Note_on_c, 1, 79, 63
2, 399840, Note_off_c, 1, 79, 0
2, 399840, Note_on_c, 1, 81, 64
2, 400080, Note_off_c, 1, 81, 0
2, 400080, Note_on_c, 1, 77, 65
2, 400270, Note_off_c, 1, 77, 0
2, 400320, Note_on_c, 1, 75, 64
2, 401280, Note_off_c, 1, 75, 0
2, 401280, Note_on_c, 1, 76, 58
2, 401665, Note_off_c, 1, 76, 0
2, 402240, Note_on_c, 1, 72, 62
2, 402480, Note_off_c, 1, 72, 0
2, 402480, Note_on_c, 1, 76, 63
2, 402720, Note_off_c, 1, 76, 0
2, 402720, Note_on_c, 1, 79, 63
2, 402960, Note_off_c, 1, 79, 0
2, 402960, Note_on_c, 1, 84, 64
2, 403150, Note_off_c, 1, 84, 0
2, 403200, Note_on_c, 1, 84, 64
2, 403440, Note_off_c, 1, 84, 0
2, 403440, Note_on_c, 1, 74, 65
2, 403630, Note_off_c, 1, 74, 0
2, 403680, Note_on_c, 1, 74, 66
2, 404400, Note_off_c, 1, 74, 0
2, 404400, Note_on_c, 1, 84, 68
2, 404640, Note_off_c, 1, 84, 0
2, 404640, Note_on_c, 1, 75, 68
2, 404880, Note_off_c, 1, 75, 0
2, 404880, Note_on_c, 1, 84, 69
2, 405070, Note_off_c, 1, 84, 0
2, 405360, Note_on_c, 1, 76, 70
2, 405600, Note_off_c, 1, 76, 0
2, 405600, Note_on_c, 1, 79, 71
2, 405840, Note_off_c, 1, 79, 0
2, 405840, Note_on_c, 1, 84, 71
2, 406030, Note_off_c, 1, 84, 0
2, 406080, Note_on_c, 1, 84, 72
2, 406320, Note_off_c, 1, 84, 0
2, 406320, Note_on_c, 1, 77, 73
2, 406510, Note_off_c, 1, 77, 0
2, 406560, Note_on_c, 1, 77, 73
2, 407280, Note_off_c, 1, 77, 0
2, 407280, Note_on_c, 1, 84, 75
2, 407520, Note_off_c, 1, 84, 0
2, 407520, Note_on_c, 1, 78, 76
2, 407760, Note_off_c, 1, 78, 0
2, 407760, Note_on_c, 1, 84, 77
2, 407950, Note_off_c, 1, 84, 0
2, 408240, Note_on_c, 1, 76, 78
2, 408480, Note_off_c, 1, 76, 0
2, 408480, Note_on_c, 1, 79, 78
2, 408720, Note_off_c, 1, 79, 0
2, 408720, Note_on_c, 1, 82, 79
2, 408910, Note_off_c, 1, 82, 0
2, 408960, Note_on_c, 1, 80, 78
2, 409200, Note_off_c, 1, 80, 0
2, 409200, Note_on_c, 1, 81, 75
2, 409440, Note_off_c, 1, 81, 0
2, 409440, Note_on_c, 1, 77, 73
2, 409680, Note_off_c, 1, 77, 0
2, 409680, Note_on_c, 1, 74, 70
2, 409870, Note_off_c, 1, 74, 0
2, 409920, Note_on_c, 1, 72, 68
2, 410765, Note_off_c, 1, 72, 0
2, 410880, Note_on_c, 1, 76, 58
2, 411120, Note_off_c, 1, 76, 0
2, 411120, Note_on_c, 1, 74, 55
2, 411600, Note_off_c, 1, 74, 0
2, 411600, Note_on_c, 1, 72, 50
2, 411790, Note_off_c, 1, 72, 0
2, 414240, Note_on_c, 1, 73, 72
2, 414720, Note_off_c, 1, 73, 0
2, 414720, Note_on_c, 1, 74, 71
2, 416400, Note_off_c, 1, 74, 0
2, 416400, Note_on_c, 1, 76, 70
2, 416520, Note_off_c, 1, 76, 0
2, 416520, Note_on_c, 1, 78, 69
2, 416640, Note_off_c, 1, 78, 0
2, 416640, Note_on_c, 1, 79, 69
2, 417120, Note_off_c, 1, 79, 0
2, 417120, Note_on_c, 1, 74, 69
2, 417530, Note_off_c, 1, 74, 0
2, 417600, Note_on_c, 1, 72, 68
2, 419280, Note_on_c, 1, 74, 67
2, 419295, Note_off_c, 1, 72, 0
2, 419400, Note_off_c, 1, 74, 0
2, 419400, Note_on_c, 1, 76, 67
2, 419520, Note_off_c, 1, 76, 0
2, 419520, Note_on_c, 1, 77, 67
2, 420000, Note_off_c, 1, 77, 0
2, 420000, Note_on_c, 1, 72, 66
2, 420410, Note_off_c, 1, 72, 0
2, 420480, Note_on_c, 1, 70, 66
2, 421920, Note_on_c, 1, 72, 57
2, 421935, Note_off_c, 1, 70, 0
2, 422160, Note_off_c, 1, 72, 0
2, 422160, Note_on_c, 1, 70, 55
2, 422350, Note_off_c, 1, 70, 0
2, 422400, Note_on_c, 1, 69, 54
2, 422880, Note_off_c, 1, 69, 0
2, 422880, Note_on_c, 1, 72, 52
2, 423000, Note_off_c, 1, 72, 0
2, 423000, Note_on_c, 1, 70, 51
2, 423305, Note_off_c, 1, 70, 0
2, 423360, Note_on_c, 1, 69, 49
2, 424320, Note_off_c, 1, 69, 0
2, 424320, Note_on_c, 1, 67, 44
2, 424705, Note_off_c, 1, 67, 0
2, 426240, Note_on_c, 1, 69, 46
2, 426360, Note_off_c, 1, 69, 0
2, 426360, Note_on_c, 1, 65, 47
2, 426650, Note_off_c, 1, 65, 0
2, 426720, Note_on_c, 1, 70, 49
2, 426840, Note_off_c, 1, 70, 0
2, 426840, Note_on_c, 1, 67, 50
2, 427145, Note_off_c, 1, 67, 0
2, 427200, Note_on_c, 1, 72, 57
2, 427920, Note_off_c, 1, 72, 0
2, 427920, Note_on_c, 1, 70, 44
2, 428000, Note_off_c, 1, 70, 0
2, 428000, Note_on_c, 1, 69, 43
2, 428080, Note_off_c, 1, 69, 0
2, 428080, Note_on_c, 1, 67, 42
2, 428160, Note_off_c, 1, 67, 0
2, 428160, Note_on_c, 1, 65, 40
2, 428545, Note_off_c, 1, 65, 0
2, 429120, Note_on_c, 1, 74, 52
2, 429240, Note_off_c, 1, 74, 0
2, 429240, Note_on_c, 1, 70, 53
2, 429545, Note_off_c, 1, 70, 0
2, 429600, Note_on_c, 1, 76, 57
2, 429720, Note_off_c, 1, 76, 0
2, 429720, Note_on_c, 1, 72, 59
2, 430020, Note_off_c, 1, 72, 0
2, 430080, Note_on_c, 1, 77, 65
2, 430800, Note_off_c, 1, 77, 0
2, 430800, Note_on_c, 1, 76, 52
2, 430860, Note_off_c, 1, 76, 0
2, 430860, Note_on_c, 1, 74, 51
2, 430920, Note_off_c, 1, 74, 0
2, 430920, Note_on_c, 1, 72, 50
2, 430980, Note_off_c, 1, 72, 0
2, 430980, Note_on_c, 1, 70, 49
2, 431040, Note_off_c, 1, 70, 0
2, 431040, Note_on_c, 1, 69, 48
2, 431425, Note_off_c, 1, 69, 0
2, 432000, Note_on_c, 1, 77, 64
2, 432120, Note_off_c, 1, 77, 0
2, 432120, Note_on_c, 1, 72, 64
2, 432450, Note_off_c, 1, 72, 0
2, 432480, Note_on_c, 1, 81, 67
2, 432600, Note_off_c, 1, 81, 0
2, 432600, Note_on_c, 1, 77, 67
2, 432915, Note_off_c, 1, 77, 0
2, 432960, Note_on_c, 1, 84, 70
2, 433080, Note_off_c, 1, 84, 0
2, 433080, Note_on_c, 1, 80, 70
2, 433395, Note_off_c, 1, 80, 0
2, 433440, Note_on_c, 1, 81, 72
2, 433560, Note_off_c, 1, 81, 0
2, 433560, Note_on_c, 1, 76, 73
2, 433875, Note_off_c, 1, 76, 0
2, 433920, Note_on_c, 1, 77, 75
2, 434040, Note_off_c, 1, 77, 0
2, 434040, Note_on_c, 1, 72, 76
2, 434360, Note_off_c, 1, 72, 0
2, 434400, Note_on_c, 1, 74, 78
2, 434520, Note_off_c, 1, 74, 0
2, 434520, Note_on_c, 1, 69, 79
2, 434825, Note_off_c, 1, 69, 0
2, 434880, Note_on_c, 1, 72, 77
2, 435000, Note_off_c, 1, 72, 0
2, 435000, Note_on_c, 1, 71, 75
2, 435320, Note_off_c, 1, 71, 0
2, 435360, Note_on_c, 1, 72, 68
2, 435480, Note_off_c, 1, 72, 0
2, 435480, Note_on_c, 1, 70, 66
2, 435795, Note_off_c, 1, 70, 0
2, 435840, Note_on_c, 1, 69, 59
2, 436225, Note_off_c, 1, 69, 0
2, 436800, Note_on_c, 1, 81, 42
2, 437040, Note_off_c, 1, 81, 0
2, 437040, Note_on_c, 1, 82, 44
2, 437280, Note_off_c, 1, 82, 0
2, 437280, Note_on_c, 1, 83, 46
2, 437520, Note_off_c, 1, 83, 0
2, 437520, Note_on_c, 1, 84, 48
2, 437710, Note_off_c, 1, 84, 0
2, 437760, Note_on_c, 1, 77, 57
2, 438480, Note_off_c, 1, 77, 0
2, 438480, Note_on_c, 1, 79, 44
2, 438600, Note_off_c, 1, 79, 0
2, 438600, Note_on_c, 1, 77, 42
2, 438720, Note_off_c, 1, 77, 0
2, 438720, Note_on_c, 1, 76, 40
2, 439105, Note_off_c, 1, 76, 0
2, 439440, Note_on_c, 1, 76, 48
2, 439630, Note_off_c, 1, 76, 0
2, 439680, Note_on_c, 1, 79, 51
2, 439920, Note_off_c, 1, 79, 0
2, 439920, Note_on_c, 1, 77, 54
2, 440160, Note_off_c, 1, 77, 0
2, 440160, Note_on_c, 1, 76, 57
2, 440400, Note_off_c, 1, 76, 0
2, 440400, Note_on_c, 1, 74, 61
2, 440590, Note_off_c, 1, 74, 0
2, 440640, Note_on_c, 1, 72, 69
2, 440880, Note_off_c, 1, 72, 0
2, 440880, Note_on_c, 1, 71, 64
2, 441120, Note_off_c, 1, 71, 0
2, 441120, Note_on_c, 1, 70, 59
2, 441505, Note_off_c, 1, 70, 0
2, 442320, Note_on_c, 1, 79, 47
2, 442560, Note_off_c, 1, 79, 0
2, 442560, Note_on_c, 1, 84, 49
2, 442920, Note_on_c, 1, 81, 52
2, 442945, Note_off_c, 1, 84, 0
2, 443040, Note_off_c, 1, 81, 0
2, 443040, Note_on_c, 1, 82, 53
2, 443400, Note_on_c, 1, 79, 56
2, 443425, Note_off_c, 1, 82, 0
2, 443520, Note_off_c, 1, 79, 0
2, 443520, Note_on_c, 1, 81, 57
2, 443880, Note_on_c, 1, 72, 59
2, 443905, Note_off_c, 1, 81, 0
2, 444000, Note_off_c, 1, 72, 0
2, 444000, Note_on_c, 1, 74, 60
2, 444360, Note_on_c, 1, 65, 63
2, 444385, Note_off_c, 1, 74, 0
2, 444480, Note_off_c, 1, 65, 0
2, 444480, Note_on_c, 1, 65, 72
2, 444865, Note_off_c, 1, 65, 0
2, 445440, Note_on_c, 1, 69, 41
2, 445680, Note_off_c, 1, 69, 0
2, 445680, Note_on_c, 1, 67, 43
2, 445920, Note_off_c, 1, 67, 0
2, 445920, Note_on_c, 1, 65, 45
2, 446160, Note_off_c, 1, 65, 0
2, 446160, Note_on_c, 1, 67, 48
2, 446355, Note_off_c, 1, 67, 0
2, 446400, Note_on_c, 1, 67, 50
2, 447360, Note_off_c, 1, 67, 0
2, 447360, Note_on_c, 1, 65, 43
2, 447745, Note_off_c, 1, 65, 0
2, 449280, Note_on_c, 1, 64, 52
2, 449400, Note_off_c, 1, 64, 0
2, 449400, Note_on_c, 1, 67, 52
2, 449520, Note_off_c, 1, 67, 0
2, 449520, Note_on_c, 1, 65, 53
2, 449640, Note_off_c, 1, 65, 0
2, 449640, Note_on_c, 1, 64, 53
2, 449760, Note_off_c, 1, 64, 0
2, 449760, Note_on_c, 1, 65, 54
2, 449880, Note_off_c, 1, 65, 0
2, 449880, Note_on_c, 1, 67, 55
2, 450000, Note_off_c, 1, 67, 0
2, 450000, Note_on_c, 1, 69, 55
2, 450120, Note_off_c, 1, 69, 0
2, 450120, Note_on_c, 1, 71, 56
2, 450215, Note_off_c, 1, 71, 0
2, 450240, Note_on_c, 1, 72, 56
2, 450360, Note_off_c, 1, 72, 0
2, 450360, Note_on_c, 1, 74, 57
2, 450480, Note_off_c, 1, 74, 0
2, 450480, Note_on_c, 1, 72, 57
2, 450600, Note_off_c, 1, 72, 0
2, 450600, Note_on_c, 1, 71, 58
2, 450720, Note_off_c, 1, 71, 0
2, 450720, Note_on_c, 1, 72, 58
2, 450840, Note_off_c, 1, 72, 0
2, 450840, Note_on_c, 1, 74, 59
2, 450960, Note_off_c, 1, 74, 0
2, 450960, Note_on_c, 1, 76, 60
2, 451080, Note_off_c, 1, 76, 0
2, 451080, Note_on_c, 1, 77, 60
2, 451175, Note_off_c, 1, 77, 0
2, 451200, Note_on_c, 1, 79, 61
2, 451320, Note_off_c, 1, 79, 0
2, 451320, Note_on_c, 1, 81, 61
2, 451440, Note_off_c, 1, 81, 0
2, 451440, Note_on_c, 1, 79, 62
2, 451560, Note_off_c, 1, 79, 0
2, 451560, Note_on_c, 1, 78, 62
2, 451680, Note_off_c, 1, 78, 0
2, 451680, Note_on_c, 1, 79, 63
2, 451800, Note_off_c, 1, 79, 0
2, 451800, Note_on_c, 1, 81, 63
2, 451920, Note_off_c, 1, 81, 0
2, 451920, Note_on_c, 1, 79, 64
2, 452040, Note_off_c, 1, 79, 0
2, 452040, Note_on_c, 1, 81, 64
2, 452135, Note_off_c, 1, 81, 0
2, 452160, Note_on_c, 1, 72, 65
2, 452880, Note_off_c, 1, 72, 0
2, 452880, Note_on_c, 1, 74, 58
2, 453000, Note_off_c, 1, 74, 0
2, 453000, Note_on_c, 1, 72, 57
2, 453120, Note_off_c, 1, 72, 0
2, 453120, Note_on_c, 1, 71, 56
2, 453505, Note_off_c, 1, 71, 0
2, 454320, Note_on_c, 1, 71, 53
2, 454560, Note_off_c, 1, 71, 0
2, 454560, Note_on_c, 1, 74, 54
2, 454800, Note_off_c, 1, 74, 0
2, 454800, Note_on_c, 1, 77, 55
2, 454990, Note_off_c, 1, 77, 0
2, 455040, Note_on_c, 1, 83, 56
2, 455400, Note_off_c, 1, 83, 0
2, 455400, Note_on_c, 1, 77, 58
2, 455495, Note_off_c, 1, 77, 0
2, 455520, Note_on_c, 1, 86, 58
2, 455880, Note_off_c, 1, 86, 0
2, 455880, Note_on_c, 1, 83, 60
2, 455975, Note_off_c, 1, 83, 0
2, 456000, Note_on_c, 1, 89, 61
2, 456120, Note_off_c, 1, 89, 0
2, 456120, Note_on_c, 1, 88, 61
2, 456240, Note_off_c, 1, 88, 0
2, 456240, Note_on_c, 1, 86, 62
2, 456360, Note_off_c, 1, 86, 0
2, 456360, Note_on_c, 1, 88, 62
2, 456480, Note_off_c, 1, 88, 0
2, 456480, Note_on_c, 1, 86, 63
2, 456600, Note_off_c, 1, 86, 0
2, 456600, Note_on_c, 1, 84, 63
2, 456720, Note_off_c, 1, 84, 0
2, 456720, Note_on_c, 1, 83, 64
2, 456840, Note_off_c, 1, 83, 0
2, 456840, Note_on_c, 1, 84, 64
2, 456950, Note_off_c, 1, 84, 0
2, 456960, Note_on_c, 1, 83, 65
2, 457080, Note_off_c, 1, 83, 0
2, 457080, Note_on_c, 1, 84, 65
2, 457200, Note_off_c, 1, 84, 0
2, 457200, Note_on_c, 1, 86, 66
2, 457320, Note_off_c, 1, 86, 0
2, 457320, Note_on_c, 1, 84, 66
2, 457440, Note_off_c, 1, 84, 0
2, 457440, Note_on_c, 1, 83, 67
2, 457560, Note_off_c, 1, 83, 0
2, 457560, Note_on_c, 1, 81, 67
2, 457680, Note_off_c, 1, 81, 0
2, 457680, Note_on_c, 1, 79, 68
2, 457800, Note_off_c, 1, 79, 0
2, 457800, Note_on_c, 1, 77, 71
2, 457895, Note_off_c, 1, 77, 0
2, 457920, Note_on_c, 1, 75, 70
2, 458160, Note_off_c, 1, 75, 0
2, 458160, Note_on_c, 1, 76, 69
2, 458400, Note_off_c, 1, 76, 0
2, 458400, Note_on_c, 1, 77, 67
2, 458640, Note_off_c, 1, 77, 0
2, 458640, Note_on_c, 1, 76, 65
2, 458880, Note_off_c, 1, 76, 0
2, 458880, Note_on_c, 1, 76, 63
2, 459265, Note_off_c, 1, 76, 0
2, 459840, Note_on_c, 1, 72, 58
2, 459960, Note_off_c, 1, 72, 0
2, 459960, Note_on_c, 1, 74, 59
2, 460080, Note_off_c, 1, 74, 0
2, 460080, Note_on_c, 1, 76, 59
2, 460200, Note_off_c, 1, 76, 0
2, 460200, Note_on_c, 1, 77, 59
2, 460320, Note_off_c, 1, 77, 0
2, 460320, Note_on_c, 1, 79, 60
2, 460440, Note_off_c, 1, 79, 0
2, 460440, Note_on_c, 1, 81, 60
2, 460560, Note_off_c, 1, 81, 0
2, 460560, Note_on_c, 1, 83, 60
2, 460680, Note_off_c, 1, 83, 0
2, 460680, Note_on_c, 1, 84, 61
2, 460775, Note_off_c, 1, 84, 0
2, 460800, Note_on_c, 1, 84, 61
2, 461040, Note_off_c, 1, 84, 0
2, 461040, Note_on_c, 1, 74, 61
2, 461230, Note_off_c, 1, 74, 0
2, 461280, Note_on_c, 1, 74, 62
2, 462105, Note_off_c, 1, 74, 0
2, 462120, Note_on_c, 1, 84, 64
2, 462240, Note_off_c, 1, 84, 0
2, 462240, Note_on_c, 1, 75, 64
2, 462600, Note_off_c, 1, 75, 0
2, 462600, Note_on_c, 1, 84, 65
2, 462695, Note_off_c, 1, 84, 0
2, 462840, Note_on_c, 1, 74, 66
2, 462960, Note_off_c, 1, 74, 0
2, 462960, Note_on_c, 1, 76, 66
2, 463080, Note_off_c, 1, 76, 0
2, 463080, Note_on_c, 1, 77, 67
2, 463200, Note_off_c, 1, 77, 0
2, 463200, Note_on_c, 1, 79, 67
2, 463320, Note_off_c, 1, 79, 0
2, 463320, Note_on_c, 1, 81, 67
2, 463440, Note_off_c, 1, 81, 0
2, 463440, Note_on_c, 1, 83, 67
2, 463560, Note_off_c, 1, 83, 0
2, 463560, Note_on_c, 1, 84, 68
2, 463655, Note_off_c, 1, 84, 0
2, 463680, Note_on_c, 1, 84, 68
2, 463920, Note_off_c, 1, 84, 0
2, 463920, Note_on_c, 1, 77, 69
2, 464110, Note_off_c, 1, 77, 0
2, 464160, Note_on_c, 1, 77, 69
2, 465000, Note_on_c, 1, 84, 71
2, 465005, Note_off_c, 1, 77, 0
2, 465120, Note_off_c, 1, 84, 0
2, 465120, Note_on_c, 1, 78, 72
2, 465480, Note_off_c, 1, 78, 0
2, 465480, Note_on_c, 1, 84, 72
2, 465575, Note_off_c, 1, 84, 0
2, 465720, Note_on_c, 1, 74, 73
2, 465840, Note_off_c, 1, 74, 0
2, 465840, Note_on_c, 1, 76, 73
2, 465960, Note_off_c, 1, 76, 0
2, 465960, Note_on_c, 1, 77, 74
2, 466080, Note_off_c, 1, 77, 0
2, 466080, Note_on_c, 1, 79, 74
2, 466200, Note_off_c, 1, 79, 0
2, 466200, Note_on_c, 1, 81, 74
2, 466320, Note_off_c, 1, 81, 0
2, 466320, Note_on_c, 1, 83, 75
2, 466440, Note_off_c, 1, 83, 0
2, 466440, Note_on_c, 1, 84, 75
2, 466535, Note_off_c, 1, 84, 0
2, 466560, Note_on_c, 1, 80, 75
2, 466680, Note_off_c, 1, 80, 0
2, 466680, Note_on_c, 1, 81, 74
2, 466800, Note_off_c, 1, 81, 0
2, 466800, Note_on_c, 1, 83, 72
2, 466920, Note_off_c, 1, 83, 0
2, 466920, Note_on_c, 1, 81, 71
2, 467040, Note_off_c, 1, 81, 0
2, 467040, Note_on_c, 1, 79, 70
2, 467160, Note_off_c, 1, 79, 0
2, 467160, Note_on_c, 1, 77, 69
2, 467280, Note_off_c, 1, 77, 0
2, 467280, Note_on_c, 1, 76, 68
2, 467400, Note_off_c, 1, 76, 0
2, 467400, Note_on_c, 1, 74, 67
2, 467520, Note_off_c, 1, 74, 0
2, 467520, Note_on_c, 1, 72, 66
2, 468405, Note_off_c, 1, 72, 0
2, 468480, Note_on_c, 1, 76, 56
2, 468720, Note_off_c, 1, 76, 0
2, 468720, Note_on_c, 1, 74, 54
2, 469200, Note_off_c, 1, 74, 0
2, 469200, Note_on_c, 1, 72, 49
2, 469395, Note_off_c, 1, 72, 0
2, 471840, Note_on_c, 1, 73, 70
2, 472320, Note_off_c, 1, 73, 0
2, 472320, Note_on_c, 1, 74, 69
2, 474000, Note_off_c, 1, 74, 0
2, 474000, Note_on_c, 1, 76, 68
2, 474120, Note_off_c, 1, 76, 0
2, 474120, Note_on_c, 1, 78, 67
2, 474240, Note_off_c, 1, 78, 0
2, 474240, Note_on_c, 1, 79, 67
2, 474480, Note_off_c, 1, 79, 0
2, 474480, Note_on_c, 1, 81, 67
2, 474720, Note_off_c, 1, 81, 0
2, 474720, Note_on_c, 1, 82, 67
2, 474960, Note_off_c, 1, 82, 0
2, 474960, Note_on_c, 1, 74, 67
2, 475170, Note_off_c, 1, 74, 0
2, 475200, Note_on_c, 1, 72, 66
2, 476880, Note_on_c, 1, 74, 65
2, 476895, Note_off_c, 1, 72, 0
2, 477000, Note_off_c, 1, 74, 0
2, 477000, Note_on_c, 1, 76, 65
2, 477120, Note_off_c, 1, 76, 0
2, 477120, Note_on_c, 1, 77, 65
2, 477360, Note_off_c, 1, 77, 0
2, 477360, Note_on_c, 1, 79, 64
2, 477600, Note_off_c, 1, 79, 0
2, 477600, Note_on_c, 1, 81, 64
2, 477840, Note_off_c, 1, 81, 0
2, 477840, Note_on_c, 1, 72, 64
2, 478050, Note_off_c, 1, 72, 0
2, 478080, Note_on_c, 1, 70, 63
2, 479500, Note_off_c, 1, 70, 0
2, 479520, Note_on_c, 1, 74, 53
2, 479760, Note_off_c, 1, 74, 0
2, 479760, Note_on_c, 1, 72, 52
2, 479950, Note_off_c, 1, 72, 0
2, 480000, Note_on_c, 1, 70, 51
2, 480240, Note_off_c, 1, 70, 0
2, 480240, Note_on_c, 1, 69, 50
2, 480430, Note_off_c, 1, 69, 0
2, 480480, Note_on_c, 1, 72, 48
2, 480720, Note_off_c, 1, 72, 0
2, 480720, Note_on_c, 1, 70, 47
2, 480910, Note_off_c, 1, 70, 0
2, 480960, Note_on_c, 1, 69, 47
2, 481440, Note_off_c, 1, 69, 0
2, 481440, Note_on_c, 1, 67, 43
2, 481560, Note_off_c, 1, 67, 0
2, 481560, Note_on_c, 1, 69, 42
2, 481680, Note_off_c, 1, 69, 0
2, 481680, Note_on_c, 1, 70, 41
2, 481800, Note_off_c, 1, 70, 0
2, 481800, Note_on_c, 1, 69, 40
2, 481920, Note_off_c, 1, 69, 0
2, 481920, Note_on_c, 1, 67, 39
2, 482305, Note_off_c, 1, 67, 0
2, 483840, Note_on_c, 1, 70, 45
2, 483960, Note_off_c, 1, 70, 0
2, 483960, Note_on_c, 1, 69, 46
2, 484080, Note_off_c, 1, 69, 0
2, 484080, Note_on_c, 1, 68, 47
2, 484200, Note_off_c, 1, 68, 0
2, 484200, Note_on_c, 1, 69, 49
2, 484320, Note_off_c, 1, 69, 0
2, 484320, Note_on_c, 1, 72, 50
2, 484440, Note_off_c, 1, 72, 0
2, 484440, Note_on_c, 1, 70, 52
2, 484560, Note_off_c, 1, 70, 0
2, 484560, Note_on_c, 1, 69, 53
2, 484680, Note_off_c, 1, 69, 0
2, 484680, Note_on_c, 1, 70, 54
2, 484775, Note_off_c, 1, 70, 0
2, 484800, Note_on_c, 1, 72, 61
2, 485400, Note_on_c, 1, 69, 55
2, 485430, Note_off_c, 1, 72, 0
2, 485520, Note_off_c, 1, 69, 0
2, 485520, Note_on_c, 1, 72, 52
2, 485640, Note_off_c, 1, 72, 0
2, 485640, Note_on_c, 1, 69, 49
2, 485760, Note_off_c, 1, 69, 0
2, 485760, Note_on_c, 1, 65, 47
2, 486145, Note_off_c, 1, 65, 0
2, 486720, Note_on_c, 1, 76, 54
2, 486840, Note_off_c, 1, 76, 0
2, 486840, Note_on_c, 1, 74, 55
2, 486960, Note_off_c, 1, 74, 0
2, 486960, Note_on_c, 1, 73, 56
2, 487080, Note_off_c, 1, 73, 0
2, 487080, Note_on_c, 1, 74, 58
2, 487200, Note_off_c, 1, 74, 0
2, 487200, Note_on_c, 1, 77, 59
2, 487320, Note_off_c, 1, 77, 0
2, 487320, Note_on_c, 1, 76, 60
2, 487440, Note_off_c, 1, 76, 0
2, 487440, Note_on_c, 1, 74, 62
2, 487560, Note_off_c, 1, 74, 0
2, 487560, Note_on_c, 1, 76, 63
2, 487655, Note_off_c, 1, 76, 0
2, 487680, Note_on_c, 1, 77, 70
2, 488280, Note_off_c, 1, 77, 0
2, 488280, Note_on_c, 1, 72, 62
2, 488400, Note_off_c, 1, 72, 0
2, 488400, Note_on_c, 1, 77, 60
2, 488520, Note_off_c, 1, 77, 0
2, 488520, Note_on_c, 1, 72, 59
2, 488640, Note_off_c, 1, 72, 0
2, 488640, Note_on_c, 1, 69, 57
2, 489025, Note_off_c, 1, 69, 0
2, 489600, Note_on_c, 1, 79, 64
2, 489720, Note_off_c, 1, 79, 0
2, 489720, Note_on_c, 1, 77, 65
2, 489840, Note_off_c, 1, 77, 0
2, 489840, Note_on_c, 1, 76, 65
2, 489960, Note_off_c, 1, 76, 0
2, 489960, Note_on_c, 1, 77, 66
2, 490080, Note_off_c, 1, 77, 0
2, 490080, Note_on_c, 1, 81, 67
2, 490200, Note_off_c, 1, 81, 0
2, 490200, Note_on_c, 1, 79, 67
2, 490320, Note_off_c, 1, 79, 0
2, 490320, Note_on_c, 1, 78, 68
2, 490440, Note_off_c, 1, 78, 0
2, 490440, Note_on_c, 1, 79, 69
2, 490535, Note_off_c, 1, 79, 0
2, 490560, Note_on_c, 1, 81, 69
2, 490680, Note_off_c, 1, 81, 0
2, 490680, Note_on_c, 1, 82, 70
2, 490800, Note_off_c, 1, 82, 0
2, 490800, Note_on_c, 1, 84, 70
2, 490920, Note_off_c, 1, 84, 0
2, 490920, Note_on_c, 1, 82, 71
2, 491040, Note_off_c, 1, 82, 0
2, 491040, Note_on_c, 1, 81, 72
2, 491160, Note_off_c, 1, 81, 0
2, 491160, Note_on_c, 1, 79, 72
2, 491280, Note_off_c, 1, 79, 0
2, 491280, Note_on_c, 1, 77, 73
2, 491400, Note_off_c, 1, 77, 0
2, 491400, Note_on_c, 1, 76, 73
2, 491495, Note_off_c, 1, 76, 0
2, 491520, Note_on_c, 1, 77, 74
2, 491640, Note_off_c, 1, 77, 0
2, 491640, Note_on_c, 1, 79, 75
2, 491760, Note_off_c, 1, 79, 0
2, 491760, Note_on_c, 1, 81, 75
2, 491880, Note_off_c, 1, 81, 0
2, 491880, Note_on_c, 1, 76, 76
2, 492000, Note_off_c, 1, 76, 0
2, 492000, Note_on_c, 1, 77, 76
2, 492120, Note_off_c, 1, 77, 0
2, 492120, Note_on_c, 1, 72, 77
2, 492240, Note_off_c, 1, 72, 0
2, 492240, Note_on_c, 1, 74, 78
2, 492360, Note_off_c, 1, 74, 0
2, 492360, Note_on_c, 1, 69, 78
2, 492455, Note_off_c, 1, 69, 0
2, 492480, Note_on_c, 1, 72, 78
2, 492600, Note_off_c, 1, 72, 0
2, 492600, Note_on_c, 1, 71, 76
2, 492720, Note_off_c, 1, 71, 0
2, 492720, Note_on_c, 1, 69, 74
2, 492840, Note_off_c, 1, 69, 0
2, 492840, Note_on_c, 1, 71, 71
2, 492960, Note_off_c, 1, 71, 0
2, 492960, Note_on_c, 1, 72, 69
2, 493080, Note_off_c, 1, 72, 0
2, 493080, Note_on_c, 1, 70, 67
2, 493200, Note_off_c, 1, 70, 0
2, 493200, Note_on_c, 1, 69, 64
2, 493320, Note_off_c, 1, 69, 0
2, 493320, Note_on_c, 1, 70, 62
2, 493440, Note_off_c, 1, 70, 0
2, 493440, Note_on_c, 1, 69, 60
2, 493830, Note_off_c, 1, 69, 0
2, 495360, Note_on_c, 1, 72, 54
2, 495550, Note_off_c, 1, 72, 0
2, 495600, Note_on_c, 1, 72, 50
2, 495790, Note_off_c, 1, 72, 0
2, 495840, Note_on_c, 1, 72, 48
2, 496030, Note_off_c, 1, 72, 0
2, 496080, Note_on_c, 1, 72, 47
2, 496270, Note_off_c, 1, 72, 0
2, 496320, Note_on_c, 1, 72, 45
2, 496510, Note_off_c, 1, 72, 0
2, 496560, Note_on_c, 1, 72, 44
2, 496750, Note_off_c, 1, 72, 0
2, 496800, Note_on_c, 1, 72, 43
2, 496990, Note_off_c, 1, 72, 0
2, 497040, Note_on_c, 1, 72, 41
2, 497230, Note_off_c, 1, 72, 0
2, 497280, Note_on_c, 1, 72, 43
2, 497470, Note_off_c, 1, 72, 0
2, 497520, Note_on_c, 1, 72, 47
2, 497710, Note_off_c, 1, 72, 0
2, 497760, Note_on_c, 1, 72, 52
2, 497950, Note_off_c, 1, 72, 0
2, 498000, Note_on_c, 1, 72, 57
2, 498190, Note_off_c, 1, 72, 0
2, 498240, Note_on_c, 1, 72, 64
2, 498480, Note_off_c, 1, 72, 0
2, 498480, Note_on_c, 1, 74, 58
2, 498720, Note_off_c, 1, 74, 0
2, 498720, Note_on_c, 1, 76, 51
2, 499105, Note_off_c, 1, 76, 0
2, 499680, Note_on_c, 1, 77, 53
2, 500065, Note_off_c, 1, 77, 0
2, 500640, Note_on_c, 1, 74, 50
2, 501025, Note_off_c, 1, 74, 0
2, 501600, Note_on_c, 1, 72, 48
2, 501985, Note_off_c, 1, 72, 0
2, 502560, Note_on_c, 1, 65, 45
2, 502945, Note_off_c, 1, 65, 0
2, 503040, Note_on_c, 1, 69, 44
2, 503280, Note_off_c, 1, 69, 0
2, 503280, Note_on_c, 1, 67, 47
2, 503520, Note_off_c, 1, 67, 0
2, 503520, Note_on_c, 1, 65, 49
2, 503760, Note_off_c, 1, 65, 0
2, 503760, Note_on_c, 1, 67, 50
2, 503950, Note_off_c, 1, 67, 0
2, 504000, Note_on_c, 1, 67, 52
2, 504480, Note_off_c, 1, 67, 0
2, 504480, Note_on_c, 1, 68, 46
2, 504960, Note_off_c, 1, 68, 0
2, 504960, Note_on_c, 1, 69, 38
2, 505345, Note_off_c, 1, 69, 0
2, 505920, Note_on_c, 1, 69, 57
2, 506040, Note_off_c, 1, 69, 0
2, 506160, Note_on_c, 1, 70, 59
2, 506280, Note_off_c, 1, 70, 0
2, 506400, Note_on_c, 1, 71, 62
2, 506520, Note_off_c, 1, 71, 0
2, 506640, Note_on_c, 1, 72, 65
2, 506760, Note_off_c, 1, 72, 0
2, 506880, Note_on_c, 1, 65, 71
2, 507000, Note_off_c, 1, 65, 0
2, 507000, Note_on_c, 1, 77, 69
2, 507600, Note_on_c, 1, 79, 60
2, 507615, Note_off_c, 1, 77, 0
2, 507720, Note_off_c, 1, 79, 0
2, 507720, Note_on_c, 1, 77, 58
2, 507840, Note_off_c, 1, 77, 0
2, 507840, Note_on_c, 1, 76, 56
2, 508225, Note_off_c, 1, 76, 0
2, 508560, Note_on_c, 1, 76, 69
2, 508680, Note_off_c, 1, 76, 0
2, 508800, Note_on_c, 1, 77, 70
2, 508920, Note_off_c, 1, 77, 0
2, 509040, Note_on_c, 1, 76, 72
2, 509160, Note_off_c, 1, 76, 0
2, 509280, Note_on_c, 1, 77, 74
2, 509400, Note_off_c, 1, 77, 0
2, 509520, Note_on_c, 1, 74, 76
2, 509640, Note_off_c, 1, 74, 0
2, 509760, Note_on_c, 1, 72, 77
2, 509880, Note_off_c, 1, 72, 0
2, 510000, Note_on_c, 1, 71, 72
2, 510120, Note_off_c, 1, 71, 0
2, 510240, Note_on_c, 1, 70, 67
2, 510360, Note_off_c, 1, 70, 0
2, 511440, Note_on_c, 1, 79, 43
2, 511630, Note_off_c, 1, 79, 0
2, 511680, Note_on_c, 1, 84, 45
2, 511840, Note_off_c, 1, 84, 0
2, 511840, Note_on_c, 1, 81, 46
2, 512000, Note_off_c, 1, 81, 0
2, 512000, Note_on_c, 1, 77, 47
2, 512160, Note_on_c, 1, 82, 48
2, 512190, Note_off_c, 1, 77, 0
2, 512320, Note_off_c, 1, 82, 0
2, 512320, Note_on_c, 1, 79, 49
2, 512480, Note_off_c, 1, 79, 0
2, 512480, Note_on_c, 1, 76, 51
2, 512610, Note_off_c, 1, 76, 0
2, 512640, Note_on_c, 1, 77, 58
2, 512800, Note_off_c, 1, 77, 0
2, 512800, Note_on_c, 1, 72, 56
2, 512960, Note_off_c, 1, 72, 0
2, 512960, Note_on_c, 1, 69, 53
2, 513120, Note_on_c, 1, 74, 50
2, 513150, Note_off_c, 1, 69, 0
2, 513280, Note_off_c, 1, 74, 0
2, 513280, Note_on_c, 1, 70, 48
2, 513440, Note_off_c, 1, 70, 0
2, 513440, Note_on_c, 1, 67, 45
2, 513570, Note_off_c, 1, 67, 0
2, 513600, Note_on_c, 1, 65, 43
2, 513985, Note_off_c, 1, 65, 0
2, 514560, Note_on_c, 1, 69, 40
2, 514800, Note_off_c, 1, 69, 0
2, 514800, Note_on_c, 1, 67, 42
2, 515040, Note_off_c, 1, 67, 0
2, 515040, Note_on_c, 1, 65, 44
2, 515280, Note_off_c, 1, 65, 0
2, 515280, Note_on_c, 1, 67, 46
2, 515520, Note_off_c, 1, 67, 0
2, 515520, Note_on_c, 1, 65, 55
2, 515710, Note_off_c, 1, 65, 0
2, 515760, Note_on_c, 1, 72, 54
2, 516000, Note_off_c, 1, 72, 0
2, 516000, Note_on_c, 1, 71, 52
2, 516240, Note_off_c, 1, 71, 0
2, 516240, Note_on_c, 1, 70, 51
2, 516480, Note_off_c, 1, 70, 0
2, 516480, Note_on_c, 1, 69, 49
2, 516720, Note_off_c, 1, 69, 0
2, 516720, Note_on_c, 1, 68, 48
2, 516960, Note_off_c, 1, 68, 0
2, 516960, Note_on_c, 1, 67, 46
2, 517200, Note_off_c, 1, 67, 0
2, 517200, Note_on_c, 1, 65, 44
2, 517390, Note_off_c, 1, 65, 0
2, 517440, Note_on_c, 1, 69, 43
2, 517680, Note_off_c, 1, 69, 0
2, 517680, Note_on_c, 1, 67, 41
2, 517920, Note_off_c, 1, 67, 0
2, 517920, Note_on_c, 1, 65, 40
2, 518160, Note_off_c, 1, 65, 0
2, 518160, Note_on_c, 1, 67, 38
2, 518400, Note_off_c, 1, 67, 0
2, 518400, Note_on_c, 1, 65, 47
2, 518590, Note_off_c, 1, 65, 0
2, 518640, Note_on_c, 1, 72, 46
2, 518880, Note_off_c, 1, 72, 0
2, 518880, Note_on_c, 1, 71, 44
2, 519120, Note_off_c, 1, 71, 0
2, 519120, Note_on_c, 1, 70, 43
2, 519360, Note_off_c, 1, 70, 0
2, 519360, Note_on_c, 1, 69, 42
2, 519600, Note_off_c, 1, 69, 0
2, 519600, Note_on_c, 1, 68, 40
2, 519840, Note_off_c, 1, 68, 0
2, 519840, Note_on_c, 1, 67, 39
2, 520080, Note_off_c, 1, 67, 0
2, 520080, Note_on_c, 1, 65, 37
2, 520270, Note_off_c, 1, 65, 0
2, 520320, Note_on_c, 1, 69, 36
2, 520560, Note_off_c, 1, 69, 0
2, 520560, Note_on_c, 1, 67, 35
2, 520800, Note_off_c, 1, 67, 0
2, 520800, Note_on_c, 1, 65, 33
2, 521040, Note_off_c, 1, 65, 0
2, 521040, Note_on_c, 1, 67, 32
2, 521280, Note_off_c, 1, 67, 0
2, 521280, Note_on_c, 1, 65, 31
2, 521665, Note_off_c, 1, 65, 0
2, 521760, Note_on_c, 1, 60, 29
2, 522630, Note_off_c, 1, 60, 0
2, 522720, Note_on_c, 1, 62, 31
2, 523200, Note_off_c, 1, 62, 0
2, 523200, Note_on_c, 1, 55, 32
2, 523680, Note_off_c, 1, 55, 0
2, 523680, Note_on_c, 1, 60, 33
2, 524065, Note_off_c, 1, 60, 0
2, 524160, Note_on_c, 1, 58, 34
2, 526080, Note_off_c, 1, 58, 0
2, 526080, Note_on_c, 1, 57, 22
2, 526560, Note_off_c, 1, 57, 0
2, 527040, Control_c, 1, 64, 0
2, 527760, Note_on_c, 1, 79, 46
2, 527880, Note_off_c, 1, 79, 0
2, 528000, Note_on_c, 1, 77, 46
2, 528120, Note_off_c, 1, 77, 0
2, 528120, Note_on_c, 1, 76, 46
2, 528240, Note_off_c, 1, 76, 0
2, 528240, Note_on_c, 1, 74, 47
2, 528360, Note_off_c, 1, 74, 0
2, 528360, Note_on_c, 1, 72, 47
2, 528455, Note_off_c, 1, 72, 0
2, 528480, Note_on_c, 1, 72, 47
2, 528600, Note_off_c, 1, 72, 0
2, 528720, Note_on_c, 1, 72, 47
2, 528840, Note_off_c, 1, 72, 0
2, 528960, Note_on_c, 1, 72, 48
2, 529535, Note_off_c, 1, 72, 0
2, 529680, Note_on_c, 1, 84, 49
2, 529800, Note_off_c, 1, 84, 0
2, 529920, Note_on_c, 1, 83, 50
2, 530040, Note_off_c, 1, 83, 0
2, 530040, Note_on_c, 1, 81, 50
2, 530160, Note_off_c, 1, 81, 0
2, 530160, Note_on_c, 1, 79, 50
2, 530280, Note_off_c, 1, 79, 0
2, 530280, Note_on_c, 1, 77, 50
2, 530375, Note_off_c, 1, 77, 0
2, 530400, Note_on_c, 1, 77, 51
2, 530520, Note_off_c, 1, 77, 0
2, 530640, Note_on_c, 1, 77, 51
2, 530760, Note_off_c, 1, 77, 0
2, 530880, Note_on_c, 1, 77, 51
2, 531455, Note_off_c, 1, 77, 0
2, 531600, Note_on_c, 1, 81, 53
2, 531755, Note_off_c, 1, 81, 0
2, 531840, Note_on_c, 1, 81, 53
2, 531960, Note_off_c, 1, 81, 0
2, 531960, Note_on_c, 1, 79, 53
2, 532080, Note_off_c, 1, 79, 0
2, 532080, Note_on_c, 1, 77, 53
2, 532200, Note_off_c, 1, 77, 0
2, 532200, Note_on_c, 1, 76, 52
2, 532295, Note_off_c, 1, 76, 0
2, 532320, Note_on_c, 1, 76, 52
2, 532560, Note_off_c, 1, 76, 0
2, 532560, Note_on_c, 1, 79, 51
2, 532750, Note_off_c, 1, 79, 0
2, 532800, Note_on_c, 1, 79, 51
2, 532920, Note_off_c, 1, 79, 0
2, 532920, Note_on_c, 1, 77, 50
2, 533040, Note_off_c, 1, 77, 0
2, 533040, Note_on_c, 1, 76, 50
2, 533160, Note_off_c, 1, 76, 0
2, 533160, Note_on_c, 1, 74, 50
2, 533255, Note_off_c, 1, 74, 0
2, 533280, Note_on_c, 1, 74, 49
2, 533520, Note_off_c, 1, 74, 0
2, 533520, Note_on_c, 1, 77, 49
2, 533710, Note_off_c, 1, 77, 0
2, 533760, Note_on_c, 1, 77, 48
2, 533880, Note_off_c, 1, 77, 0
2, 533880, Note_on_c, 1, 76, 48
2, 534000, Note_off_c, 1, 76, 0
2, 534000, Note_on_c, 1, 74, 47
2, 534120, Note_off_c, 1, 74, 0
2, 534120, Note_on_c, 1, 72, 47
2, 534215, Note_off_c, 1, 72, 0
2, 534240, Note_on_c, 1, 71, 47
2, 534395, Note_off_c, 1, 71, 0
2, 534480, Note_on_c, 1, 72, 46
2, 534635, Note_off_c, 1, 72, 0
2, 534720, Note_on_c, 1, 76, 45
2, 535200, Note_off_c, 1, 76, 0
2, 535200, Note_on_c, 1, 74, 43
2, 535390, Note_off_c, 1, 74, 0
2, 535440, Note_on_c, 1, 79, 52
2, 535560, Note_off_c, 1, 79, 0
2, 535680, Note_on_c, 1, 77, 52
2, 535800, Note_off_c, 1, 77, 0
2, 535800, Note_on_c, 1, 76, 52
2, 535920, Note_off_c, 1, 76, 0
2, 535920, Note_on_c, 1, 74, 53
2, 536040, Note_off_c, 1, 74, 0
2, 536040, Note_on_c, 1, 72, 53
2, 536135, Note_off_c, 1, 72, 0
2, 536160, Note_on_c, 1, 72, 53
2, 536315, Note_off_c, 1, 72, 0
2, 536400, Note_on_c, 1, 72, 53
2, 536555, Note_off_c, 1, 72, 0
2, 536640, Note_on_c, 1, 71, 54
2, 536700, Note_off_c, 1, 71, 0
2, 536700, Note_on_c, 1, 72, 54
2, 536760, Note_off_c, 1, 72, 0
2, 536760, Note_on_c, 1, 74, 54
2, 536820, Note_off_c, 1, 74, 0
2, 536820, Note_on_c, 1, 72, 54
2, 537360, Note_on_c, 1, 84, 55
2, 537365, Note_off_c, 1, 72, 0
2, 537480, Note_off_c, 1, 84, 0
2, 537600, Note_on_c, 1, 83, 56
2, 537720, Note_off_c, 1, 83, 0
2, 537720, Note_on_c, 1, 81, 56
2, 537840, Note_off_c, 1, 81, 0
2, 537840, Note_on_c, 1, 79, 56
2, 537960, Note_off_c, 1, 79, 0
2, 537960, Note_on_c, 1, 77, 56
2, 538080, Note_off_c, 1, 77, 0
2, 538080, Note_on_c, 1, 77, 57
2, 538200, Note_off_c, 1, 77, 0
2, 538320, Note_on_c, 1, 77, 57
2, 538440, Note_off_c, 1, 77, 0
2, 538560, Note_on_c, 1, 76, 57
2, 538620, Note_off_c, 1, 76, 0
2, 538620, Note_on_c, 1, 77, 58
2, 538680, Note_off_c, 1, 77, 0
2, 538680, Note_on_c, 1, 79, 58
2, 538740, Note_off_c, 1, 79, 0
2, 538740, Note_on_c, 1, 77, 58
2, 539280, Note_off_c, 1, 77, 0
2, 539280, Note_on_c, 1, 81, 59
2, 539400, Note_off_c, 1, 81, 0
2, 539520, Note_on_c, 1, 81, 59
2, 539640, Note_off_c, 1, 81, 0
2, 539640, Note_on_c, 1, 79, 59
2, 539760, Note_off_c, 1, 79, 0
2, 539760, Note_on_c, 1, 77, 59
2, 539880, Note_off_c, 1, 77, 0
2, 539880, Note_on_c, 1, 76, 58
2, 539975, Note_off_c, 1, 76, 0
2, 540000, Note_on_c, 1, 76, 58
2, 540240, Note_off_c, 1, 76, 0
2, 540240, Note_on_c, 1, 79, 57
2, 540430, Note_off_c, 1, 79, 0
2, 540480, Note_on_c, 1, 79, 56
2, 540600, Note_off_c, 1, 79, 0
2, 540600, Note_on_c, 1, 77, 56
2, 540720, Note_off_c, 1, 77, 0
2, 540720, Note_on_c, 1, 76, 55
2, 540840, Note_off_c, 1, 76, 0
2, 540840, Note_on_c, 1, 74, 55
2, 540935, Note_off_c, 1, 74, 0
2, 540960, Note_on_c, 1, 74, 55
2, 541200, Note_off_c, 1, 74, 0
2, 541200, Note_on_c, 1, 77, 54
2, 541390, Note_off_c, 1, 77, 0
2, 541440, Note_on_c, 1, 77, 53
2, 541560, Note_off_c, 1, 77, 0
2, 541560, Note_on_c, 1, 76, 53
2, 541680, Note_off_c, 1, 76, 0
2, 541680, Note_on_c, 1, 77, 52
2, 541800, Note_off_c, 1, 77, 0
2, 541800, Note_on_c, 1, 74, 52
2, 541920, Note_off_c, 1, 74, 0
2, 541920, Note_on_c, 1, 72, 51
2, 542160, Note_off_c, 1, 72, 0
2, 542160, Note_on_c, 1, 71, 51
2, 542200, Note_off_c, 1, 71, 0
2, 542200, Note_on_c, 1, 72, 50
2, 542240, Note_off_c, 1, 72, 0
2, 542240, Note_on_c, 1, 71, 50
2, 542280, Note_off_c, 1, 71, 0
2, 542280, Note_on_c, 1, 69, 50
2, 542340, Note_off_c, 1, 69, 0
2, 542340, Note_on_c, 1, 71, 50
2, 542400, Note_off_c, 1, 71, 0
2, 542400, Note_on_c, 1, 81, 61
2, 542520, Note_off_c, 1, 81, 0
2, 542520, Note_on_c, 1, 79, 61
2, 542640, Note_off_c, 1, 79, 0
2, 542640, Note_on_c, 1, 77, 61
2, 542760, Note_off_c, 1, 77, 0
2, 542760, Note_on_c, 1, 76, 61
2, 542855, Note_off_c, 1, 76, 0
2, 542880, Note_on_c, 1, 88, 60
2, 543000, Note_off_c, 1, 88, 0
2, 543000, Note_on_c, 1, 85, 60
2, 543120, Note_off_c, 1, 85, 0
2, 543120, Note_on_c, 1, 81, 60
2, 543215, Note_off_c, 1, 81, 0
2, 543240, Note_on_c, 1, 79, 59
2, 543335, Note_off_c, 1, 79, 0
2, 543360, Note_on_c, 1, 79, 59
2, 543480, Note_off_c, 1, 79, 0
2, 543480, Note_on_c, 1, 77, 59
2, 543600, Note_off_c, 1, 77, 0
2, 543600, Note_on_c, 1, 76, 58
2, 543720, Note_off_c, 1, 76, 0
2, 543720, Note_on_c, 1, 74, 58
2, 543815, Note_off_c, 1, 74, 0
2, 543840, Note_on_c, 1, 86, 58
2, 543960, Note_off_c, 1, 86, 0
2, 543960, Note_on_c, 1, 83, 57
2, 544080, Note_off_c, 1, 83, 0
2, 544080, Note_on_c, 1, 79, 57
2, 544175, Note_off_c, 1, 79, 0
2, 544200, Note_on_c, 1, 77, 57
2, 544295, Note_off_c, 1, 77, 0
2, 544320, Note_on_c, 1, 77, 56
2, 544440, Note_off_c, 1, 77, 0
2, 544440, Note_on_c, 1, 76, 56
2, 544535, Note_off_c, 1, 76, 0
2, 544560, Note_on_c, 1, 81, 56
2, 544680, Note_off_c, 1, 81, 0
2, 544680, Note_on_c, 1, 77, 56
2, 544775, Note_off_c, 1, 77, 0
2, 544800, Note_on_c, 1, 76, 55
2, 544920, Note_off_c, 1, 76, 0
2, 544920, Note_on_c, 1, 79, 55
2, 545015, Note_off_c, 1, 79, 0
2, 545040, Note_on_c, 1, 77, 55
2, 545160, Note_off_c, 1, 77, 0
2, 545160, Note_on_c, 1, 74, 54
2, 545255, Note_off_c, 1, 74, 0
2, 545280, Note_on_c, 1, 72, 54
2, 545470, Note_off_c, 1, 72, 0
2, 545760, Note_on_c, 1, 60, 66
2, 545855, Note_off_c, 1, 60, 0
2, 545880, Note_on_c, 1, 64, 66
2, 545975, Note_off_c, 1, 64, 0
2, 546000, Note_on_c, 1, 67, 66
2, 546095, Note_off_c, 1, 67, 0
2, 546120, Note_on_c, 1, 72, 67
2, 546215, Note_off_c, 1, 72, 0
2, 546240, Note_on_c, 1, 72, 67
2, 546665, Note_off_c, 1, 72, 0
2, 546720, Note_on_c, 1, 76, 68
2, 546840, Note_off_c, 1, 76, 0
2, 546840, Note_on_c, 1, 74, 68
2, 546960, Note_off_c, 1, 74, 0
2, 546960, Note_on_c, 1, 72, 68
2, 547080, Note_off_c, 1, 72, 0
2, 547080, Note_on_c, 1, 74, 68
2, 547200, Note_off_c, 1, 74, 0
2, 547200, Note_on_c, 1, 72, 68
2, 547390, Note_off_c, 1, 72, 0
2, 547680, Note_on_c, 1, 64, 69
2, 547775, Note_off_c, 1, 64, 0
2, 547800, Note_on_c, 1, 67, 69
2, 547895, Note_off_c, 1, 67, 0
2, 547920, Note_on_c, 1, 72, 70
2, 548015, Note_off_c, 1, 72, 0
2, 548040, Note_on_c, 1, 76, 70
2, 548135, Note_off_c, 1, 76, 0
2, 548160, Note_on_c, 1, 76, 70
2, 548580, Note_off_c, 1, 76, 0
2, 548640, Note_on_c, 1, 79, 71
2, 548760, Note_off_c, 1, 79, 0
2, 548760, Note_on_c, 1, 77, 71
2, 548880, Note_off_c, 1, 77, 0
2, 548880, Note_on_c, 1, 76, 71
2, 549000, Note_off_c, 1, 76, 0
2, 549000, Note_on_c, 1, 77, 71
2, 549120, Note_off_c, 1, 77, 0
2, 549120, Note_on_c, 1, 76, 72
2, 549310, Note_off_c, 1, 76, 0
2, 549600, Note_on_c, 1, 72, 72
2, 549695, Note_off_c, 1, 72, 0
2, 549720, Note_on_c, 1, 76, 73
2, 549815, Note_off_c, 1, 76, 0
2, 549840, Note_on_c, 1, 79, 73
2, 549935, Note_off_c, 1, 79, 0
2, 549960, Note_on_c, 1, 84, 73
2, 550055, Note_off_c, 1, 84, 0
2, 550080, Note_on_c, 1, 80, 73
2, 550320, Note_off_c, 1, 80, 0
2, 550320, Note_on_c, 1, 81, 73
2, 550440, Note_off_c, 1, 81, 0
2, 550560, Note_on_c, 1, 78, 71
2, 550800, Note_off_c, 1, 78, 0
2, 550800, Note_on_c, 1, 79, 70
2, 550920, Note_off_c, 1, 79, 0
2, 551040, Note_on_c, 1, 76, 69
2, 551280, Note_off_c, 1, 76, 0
2, 551280, Note_on_c, 1, 77, 68
2, 551400, Note_off_c, 1, 77, 0
2, 551520, Note_on_c, 1, 75, 67
2, 551760, Note_off_c, 1, 75, 0
2, 551760, Note_on_c, 1, 76, 66
2, 551880, Note_off_c, 1, 76, 0
2, 552000, Note_on_c, 1, 73, 65
2, 552120, Note_off_c, 1, 73, 0
2, 552120, Note_on_c, 1, 74, 65
2, 552240, Note_off_c, 1, 74, 0
2, 552240, Note_on_c, 1, 77, 64
2, 552360, Note_off_c, 1, 77, 0
2, 552360, Note_on_c, 1, 81, 63
2, 552480, Note_off_c, 1, 81, 0
2, 552480, Note_on_c, 1, 79, 63
2, 552600, Note_off_c, 1, 79, 0
2, 552600, Note_on_c, 1, 77, 62
2, 552720, Note_off_c, 1, 77, 0
2, 552720, Note_on_c, 1, 76, 62
2, 552840, Note_off_c, 1, 76, 0
2, 552840, Note_on_c, 1, 74, 61
2, 552935, Note_off_c, 1, 74, 0
2, 552960, Note_on_c, 1, 72, 61
2, 553200, Note_off_c, 1, 72, 0
2, 553200, Note_on_c, 1, 71, 58
2, 553390, Note_off_c, 1, 71, 0
2, 553440, Note_on_c, 1, 60, 74
2, 553535, Note_off_c, 1, 60, 0
2, 553560, Note_on_c, 1, 64, 74
2, 553655, Note_off_c, 1, 64, 0
2, 553680, Note_on_c, 1, 67, 74
2, 553775, Note_off_c, 1, 67, 0
2, 553800, Note_on_c, 1, 72, 74
2, 553895, Note_off_c, 1, 72, 0
2, 553920, Note_on_c, 1, 72, 75
2, 554345, Note_off_c, 1, 72, 0
2, 554400, Note_on_c, 1, 76, 75
2, 554520, Note_off_c, 1, 76, 0
2, 554520, Note_on_c, 1, 74, 76
2, 554640, Note_off_c, 1, 74, 0
2, 554640, Note_on_c, 1, 72, 76
2, 554760, Note_off_c, 1, 72, 0
2, 554760, Note_on_c, 1, 74, 76
2, 554880, Note_off_c, 1, 74, 0
2, 554880, Note_on_c, 1, 72, 76
2, 555070, Note_off_c, 1, 72, 0
2, 555360, Note_on_c, 1, 64, 77
2, 555455, Note_off_c, 1, 64, 0
2, 555480, Note_on_c, 1, 67, 77
2, 555575, Note_off_c, 1, 67, 0
2, 555600, Note_on_c, 1, 72, 77
2, 555695, Note_off_c, 1, 72, 0
2, 555720, Note_on_c, 1, 76, 78
2, 555815, Note_off_c, 1, 76, 0
2, 555840, Note_on_c, 1, 76, 78
2, 556265, Note_off_c, 1, 76, 0
2, 556320, Note_on_c, 1, 79, 79
2, 556440, Note_off_c, 1, 79, 0
2, 556440, Note_on_c, 1, 77, 79
2, 556560, Note_off_c, 1, 77, 0
2, 556560, Note_on_c, 1, 76, 79
2, 556680, Note_off_c, 1, 76, 0
2, 556680, Note_on_c, 1, 77, 79
2, 556800, Note_off_c, 1, 77, 0
2, 556800, Note_on_c, 1, 76, 80
2, 556990, Note_off_c, 1, 76, 0
2, 557280, Note_on_c, 1, 72, 80
2, 557375, Note_off_c, 1, 72, 0
2, 557400, Note_on_c, 1, 76, 81
2, 557495, Note_off_c, 1, 76, 0
2, 557520, Note_on_c, 1, 79, 81
2, 557615, Note_off_c, 1, 79, 0
2, 557640, Note_on_c, 1, 84, 81
2, 557735, Note_off_c, 1, 84, 0
2, 557760, Note_on_c, 1, 80, 81
2, 557880, Note_off_c, 1, 80, 0
2, 557880, Note_on_c, 1, 81, 81
2, 557960, Note_off_c, 1, 81, 0
2, 558000, Note_on_c, 1, 81, 80
2, 558080, Note_off_c, 1, 81, 0
2, 558120, Note_on_c, 1, 81, 80
2, 558200, Note_off_c, 1, 81, 0
2, 558240, Note_on_c, 1, 78, 80
2, 558360, Note_off_c, 1, 78, 0
2, 558360, Note_on_c, 1, 79, 79
2, 558440, Note_off_c, 1, 79, 0
2, 558480, Note_on_c, 1, 79, 79
2, 558560, Note_off_c, 1, 79, 0
2, 558600, Note_on_c, 1, 79, 78
2, 558680, Note_off_c, 1, 79, 0
2, 558720, Note_on_c, 1, 76, 78
2, 558840, Note_off_c, 1, 76, 0
2, 558840, Note_on_c, 1, 77, 78
2, 558920, Note_off_c, 1, 77, 0
2, 558960, Note_on_c, 1, 77, 77
2, 559040, Note_off_c, 1, 77, 0
2, 559080, Note_on_c, 1, 77, 77
2, 559160, Note_off_c, 1, 77, 0
2, 559200, Note_on_c, 1, 75, 76
2, 559320, Note_off_c, 1, 75, 0
2, 559320, Note_on_c, 1, 76, 76
2, 559400, Note_off_c, 1, 76, 0
2, 559440, Note_on_c, 1, 76, 75
2, 559520, Note_off_c, 1, 76, 0
2, 559560, Note_on_c, 1, 76, 75
2, 559640, Note_off_c, 1, 76, 0
2, 559680, Note_on_c, 1, 84, 75
2, 559920, Note_off_c, 1, 84, 0
2, 559920, Note_on_c, 1, 81, 74
2, 560400, Note_off_c, 1, 81, 0
2, 560400, Note_on_c, 1, 79, 72
2, 560880, Note_off_c, 1, 79, 0
2, 560880, Note_on_c, 1, 77, 70
2, 561360, Note_off_c, 1, 77, 0
2, 561360, Note_on_c, 1, 76, 69
2, 561550, Note_off_c, 1, 76, 0
2, 561600, Note_on_c, 1, 74, 68
2, 561720, Note_off_c, 1, 74, 0
2, 561720, Note_on_c, 1, 76, 69
2, 561760, Note_off_c, 1, 76, 0
2, 561760, Note_on_c, 1, 74, 69
2, 561800, Note_off_c, 1, 74, 0
2, 561800, Note_on_c, 1, 73, 69
2, 561840, Note_off_c, 1, 73, 0
2, 561840, Note_on_c, 1, 74, 69
2, 561960, Note_off_c, 1, 74, 0
2, 561960, Note_on_c, 1, 76, 70
2, 562055, Note_off_c, 1, 76, 0
2, 562080, Note_on_c, 1, 77, 71
2, 562200, Note_off_c, 1, 77, 0
2, 562200, Note_on_c, 1, 79, 72
2, 562240, Note_off_c, 1, 79, 0
2, 562240, Note_on_c, 1, 77, 72
2, 562280, Note_off_c, 1, 77, 0
2, 562280, Note_on_c, 1, 76, 72
2, 562320, Note_off_c, 1, 76, 0
2, 562320, Note_on_c, 1, 77, 72
2, 562440, Note_off_c, 1, 77, 0
2, 562440, Note_on_c, 1, 79, 73
2, 562535, Note_off_c, 1, 79, 0
2, 562560, Note_on_c, 1, 81, 74
2, 562680, Note_off_c, 1, 81, 0
2, 562680, Note_on_c, 1, 83, 74
2, 562720, Note_off_c, 1, 83, 0
2, 562720, Note_on_c, 1, 81, 75
2, 562760, Note_off_c, 1, 81, 0
2, 562760, Note_on_c, 1, 80, 75
2, 562800, Note_off_c, 1, 80, 0
2, 562800, Note_on_c, 1, 81, 75
2, 562920, Note_off_c, 1, 81, 0
2, 562920, Note_on_c, 1, 83, 76
2, 563015, Note_off_c, 1, 83, 0
2, 563040, Note_on_c, 1, 84, 77
2, 563230, Note_off_c, 1, 84, 0
2, 563400, Note_on_c, 1, 76, 54
2, 563495, Note_off_c, 1, 76, 0
2, 563520, Note_on_c, 1, 79, 57
2, 564000, Note_off_c, 1, 79, 0
2, 564120, Note_on_c, 1, 78, 50
2, 564180, Note_off_c, 1, 78, 0
2, 564180, Note_on_c, 1, 79, 49
2, 564240, Note_off_c, 1, 79, 0
2, 564240, Note_on_c, 1, 81, 49
2, 564300, Note_off_c, 1, 81, 0
2, 564300, Note_on_c, 1, 79, 48
2, 564360, Note_off_c, 1, 79, 0
2, 564360, Note_on_c, 1, 77, 47
2, 564420, Note_off_c, 1, 77, 0
2, 564420, Note_on_c, 1, 76, 47
2, 564480, Note_off_c, 1, 76, 0
2, 564480, Note_on_c, 1, 74, 46
2, 564670, Note_off_c, 1, 74, 0
2, 565200, Note_on_c, 1, 74, 68
2, 565390, Note_off_c, 1, 74, 0
2, 565440, Note_on_c, 1, 86, 77
2, 565510, Note_off_c, 1, 86, 0
2, 565520, Note_on_c, 1, 88, 77
2, 565590, Note_off_c, 1, 88, 0
2, 565600, Note_on_c, 1, 86, 77
2, 565670, Note_off_c, 1, 86, 0
2, 565680, Note_on_c, 1, 84, 76
2, 565750, Note_off_c, 1, 84, 0
2, 565760, Note_on_c, 1, 83, 76
2, 565830, Note_off_c, 1, 83, 0
2, 565840, Note_on_c, 1, 81, 76
2, 565910, Note_off_c, 1, 81, 0
2, 565920, Note_on_c, 1, 83, 76
2, 565990, Note_off_c, 1, 83, 0
2, 566000, Note_on_c, 1, 84, 75
2, 566070, Note_off_c, 1, 84, 0
2, 566080, Note_on_c, 1, 83, 75
2, 566150, Note_off_c, 1, 83, 0
2, 566160, Note_on_c, 1, 81, 75
2, 566230, Note_off_c, 1, 81, 0
2, 566240, Note_on_c, 1, 79, 75
2, 566310, Note_off_c, 1, 79, 0
2, 566320, Note_on_c, 1, 78, 74
2, 566390, Note_off_c, 1, 78, 0
2, 566400, Note_on_c, 1, 79, 74
2, 566470, Note_off_c, 1, 79, 0
2, 566480, Note_on_c, 1, 81, 74
2, 566550, Note_off_c, 1, 81, 0
2, 566560, Note_on_c, 1, 79, 73
2, 566630, Note_off_c, 1, 79, 0
2, 566640, Note_on_c, 1, 77, 73
2, 566710, Note_off_c, 1, 77, 0
2, 566720, Note_on_c, 1, 76, 73
2, 566790, Note_off_c, 1, 76, 0
2, 566800, Note_on_c, 1, 74, 73
2, 566870, Note_off_c, 1, 74, 0
2, 566880, Note_on_c, 1, 76, 72
2, 566950, Note_off_c, 1, 76, 0
2, 566960, Note_on_c, 1, 77, 72
2, 567030, Note_off_c, 1, 77, 0
2, 567040, Note_on_c, 1, 76, 72
2, 567110, Note_off_c, 1, 76, 0
2, 567120, Note_on_c, 1, 74, 71
2, 567190, Note_off_c, 1, 74, 0
2, 567200, Note_on_c, 1, 72, 71
2, 567270, Note_off_c, 1, 72, 0
2, 567280, Note_on_c, 1, 71, 71
2, 567350, Note_off_c, 1, 71, 0
2, 567360, Note_on_c, 1, 72, 71
2, 567720, Note_off_c, 1, 72, 0
2, 567720, Note_on_c, 1, 76, 68
2, 567780, Note_off_c, 1, 76, 0
2, 567780, Note_on_c, 1, 74, 68
2, 567840, Note_off_c, 1, 74, 0
2, 567840, Note_on_c, 1, 72, 67
2, 568030, Note_off_c, 1, 72, 0
2, 568200, Note_on_c, 1, 72, 64
2, 568295, Note_off_c, 1, 72, 0
2, 568320, Note_on_c, 1, 72, 57
2, 568680, Note_off_c, 1, 72, 0
2, 568680, Note_on_c, 1, 75, 54
2, 568740, Note_off_c, 1, 75, 0
2, 568740, Note_on_c, 1, 74, 53
2, 568800, Note_off_c, 1, 74, 0
2, 568800, Note_on_c, 1, 72, 52
2, 568990, Note_off_c, 1, 72, 0
2, 569160, Note_on_c, 1, 72, 75
2, 569255, Note_off_c, 1, 72, 0
2, 569280, Note_on_c, 1, 84, 75
2, 569350, Note_off_c, 1, 84, 0
2, 569360, Note_on_c, 1, 86, 75
2, 569430, Note_off_c, 1, 86, 0
2, 569440, Note_on_c, 1, 84, 74
2, 569510, Note_off_c, 1, 84, 0
2, 569520, Note_on_c, 1, 83, 74
2, 569590, Note_off_c, 1, 83, 0
2, 569600, Note_on_c, 1, 81, 74
2, 569670, Note_off_c, 1, 81, 0
2, 569680, Note_on_c, 1, 80, 74
2, 569750, Note_off_c, 1, 80, 0
2, 569760, Note_on_c, 1, 81, 73
2, 569830, Note_off_c, 1, 81, 0
2, 569840, Note_on_c, 1, 83, 73
2, 569910, Note_off_c, 1, 83, 0
2, 569920, Note_on_c, 1, 81, 73
2, 569990, Note_off_c, 1, 81, 0
2, 570000, Note_on_c, 1, 79, 72
2, 570070, Note_off_c, 1, 79, 0
2, 570080, Note_on_c, 1, 78, 72
2, 570150, Note_off_c, 1, 78, 0
2, 570160, Note_on_c, 1, 77, 72
2, 570230, Note_off_c, 1, 77, 0
2, 570240, Note_on_c, 1, 78, 72
2, 570310, Note_off_c, 1, 78, 0
2, 570320, Note_on_c, 1, 79, 71
2, 570390, Note_off_c, 1, 79, 0
2, 570400, Note_on_c, 1, 78, 71
2, 570470, Note_off_c, 1, 78, 0
2, 570480, Note_on_c, 1, 76, 71
2, 570550, Note_off_c, 1, 76, 0
2, 570560, Note_on_c, 1, 74, 70
2, 570630, Note_off_c, 1, 74, 0
2, 570640, Note_on_c, 1, 73, 70
2, 570710, Note_off_c, 1, 73, 0
2, 570720, Note_on_c, 1, 74, 70
2, 570790, Note_off_c, 1, 74, 0
2, 570800, Note_on_c, 1, 76, 70
2, 570870, Note_off_c, 1, 76, 0
2, 570880, Note_on_c, 1, 74, 69
2, 570950, Note_off_c, 1, 74, 0
2, 570960, Note_on_c, 1, 72, 69
2, 571030, Note_off_c, 1, 72, 0
2, 571040, Note_on_c, 1, 71, 69
2, 571110, Note_off_c, 1, 71, 0
2, 571120, Note_on_c, 1, 69, 68
2, 571190, Note_off_c, 1, 69, 0
2, 571200, Note_on_c, 1, 71, 69
2, 571560, Note_off_c, 1, 71, 0
2, 571560, Note_on_c, 1, 74, 65
2, 571620, Note_off_c, 1, 74, 0
2, 571620, Note_on_c, 1, 72, 64
2, 571680, Note_off_c, 1, 72, 0
2, 571680, Note_on_c, 1, 71, 63
2, 571870, Note_off_c, 1, 71, 0
2, 572040, Note_on_c, 1, 71, 53
2, 572135, Note_off_c, 1, 71, 0
2, 572160, Note_on_c, 1, 71, 52
2, 572520, Note_off_c, 1, 71, 0
2, 572520, Note_on_c, 1, 74, 48
2, 572580, Note_off_c, 1, 74, 0
2, 572580, Note_on_c, 1, 72, 47
2, 572640, Note_off_c, 1, 72, 0
2, 572640, Note_on_c, 1, 71, 47
2, 572830, Note_off_c, 1, 71, 0
2, 573000, Note_on_c, 1, 74, 72
2, 573095, Note_off_c, 1, 74, 0
2, 573120, Note_on_c, 1, 83, 77
2, 573190, Note_off_c, 1, 83, 0
2, 573200, Note_on_c, 1, 86, 77
2, 573270, Note_off_c, 1, 86, 0
2, 573280, Note_on_c, 1, 84, 77
2, 573350, Note_off_c, 1, 84, 0
2, 573360, Note_on_c, 1, 83, 76
2, 573430, Note_off_c, 1, 83, 0
2, 573440, Note_on_c, 1, 81, 76
2, 573510, Note_off_c, 1, 81, 0
2, 573520, Note_on_c, 1, 79, 76
2, 573590, Note_off_c, 1, 79, 0
2, 573600, Note_on_c, 1, 78, 75
2, 573670, Note_off_c, 1, 78, 0
2, 573680, Note_on_c, 1, 81, 75
2, 573750, Note_off_c, 1, 81, 0
2, 573760, Note_on_c, 1, 79, 75
2, 573830, Note_off_c, 1, 79, 0
2, 573840, Note_on_c, 1, 83, 74
2, 573910, Note_off_c, 1, 83, 0
2, 573920, Note_on_c, 1, 75, 74
2, 573990, Note_off_c, 1, 75, 0
2, 574000, Note_on_c, 1, 78, 74
2, 574075, Note_off_c, 1, 78, 0
2, 574080, Note_on_c, 1, 76, 73
2, 574150, Note_off_c, 1, 76, 0
2, 574160, Note_on_c, 1, 79, 73
2, 574230, Note_off_c, 1, 79, 0
2, 574240, Note_on_c, 1, 78, 73
2, 574310, Note_off_c, 1, 78, 0
2, 574320, Note_on_c, 1, 76, 73
2, 574390, Note_off_c, 1, 76, 0
2, 574400, Note_on_c, 1, 74, 72
2, 574470, Note_off_c, 1, 74, 0
2, 574480, Note_on_c, 1, 72, 72
2, 574550, Note_off_c, 1, 72, 0
2, 574560, Note_on_c, 1, 71, 72
2, 574630, Note_off_c, 1, 71, 0
2, 574640, Note_on_c, 1, 74, 71
2, 574710, Note_off_c, 1, 74, 0
2, 574720, Note_on_c, 1, 72, 71
2, 574790, Note_off_c, 1, 72, 0
2, 574800, Note_on_c, 1, 76, 71
2, 574870, Note_off_c, 1, 76, 0
2, 574880, Note_on_c, 1, 68, 70
2, 574950, Note_off_c, 1, 68, 0
2, 574960, Note_on_c, 1, 71, 70
2, 575025, Note_off_c, 1, 71, 0
2, 575040, Note_on_c, 1, 69, 70
2, 575110, Note_off_c, 1, 69, 0
2, 575120, Note_on_c, 1, 72, 69
2, 575190, Note_off_c, 1, 72, 0
2, 575200, Note_on_c, 1, 71, 69
2, 575270, Note_off_c, 1, 71, 0
2, 575280, Note_on_c, 1, 69, 69
2, 575350, Note_off_c, 1, 69, 0
2, 575360, Note_on_c, 1, 67, 68
2, 575430, Note_off_c, 1, 67, 0
2, 575440, Note_on_c, 1, 66, 68
2, 575510, Note_off_c, 1, 66, 0
2, 575520, Note_on_c, 1, 64, 68
2, 575590, Note_off_c, 1, 64, 0
2, 575600, Note_on_c, 1, 67, 67
2, 575670, Note_off_c, 1, 67, 0
2, 575680, Note_on_c, 1, 66, 67
2, 575750, Note_off_c, 1, 66, 0
2, 575760, Note_on_c, 1, 69, 67
2, 575830, Note_off_c, 1, 69, 0
2, 575840, Note_on_c, 1, 61, 66
2, 575910, Note_off_c, 1, 61, 0
2, 575920, Note_on_c, 1, 64, 66
2, 575985, Note_off_c, 1, 64, 0
2, 576000, Note_on_c, 1, 62, 67
2, 576070, Note_off_c, 1, 62, 0
2, 576080, Note_on_c, 1, 64, 66
2, 576150, Note_off_c, 1, 64, 0
2, 576160, Note_on_c, 1, 61, 66
2, 576230, Note_off_c, 1, 61, 0
2, 576240, Note_on_c, 1, 62, 65
2, 576310, Note_off_c, 1, 62, 0
2, 576320, Note_on_c, 1, 64, 65
2, 576390, Note_off_c, 1, 64, 0
2, 576400, Note_on_c, 1, 61, 64
2, 576470, Note_off_c, 1, 61, 0
2, 576480, Note_on_c, 1, 62, 63
2, 576550, Note_off_c, 1, 62, 0
2, 576560, Note_on_c, 1, 64, 63
2, 576630, Note_off_c, 1, 64, 0
2, 576640, Note_on_c, 1, 61, 62
2, 576710, Note_off_c, 1, 61, 0
2, 576720, Note_on_c, 1, 62, 62
2, 576790, Note_off_c, 1, 62, 0
2, 576800, Note_on_c, 1, 64, 61
2, 576870, Note_off_c, 1, 64, 0
2, 576880, Note_on_c, 1, 61, 60
2, 576945, Note_off_c, 1, 61, 0
2, 576960, Note_on_c, 1, 62, 60
2, 577105, Note_off_c, 1, 62, 0
2, 577200, Note_on_c, 1, 72, 40
2, 577355, Note_off_c, 1, 72, 0
2, 577440, Note_on_c, 1, 72, 41
2, 577595, Note_off_c, 1, 72, 0
2, 577680, Note_on_c, 1, 72, 42
2, 577835, Note_off_c, 1, 72, 0
2, 577920, Note_on_c, 1, 72, 43
2, 578075, Note_off_c, 1, 72, 0
2, 578160, Note_on_c, 1, 84, 44
2, 578315, Note_off_c, 1, 84, 0
2, 578400, Note_on_c, 1, 84, 45
2, 578555, Note_off_c, 1, 84, 0
2, 578640, Note_on_c, 1, 84, 46
2, 578795, Note_off_c, 1, 84, 0
2, 578880, Note_on_c, 1, 84, 47
2, 579115, Note_off_c, 1, 84, 0
2, 579240, Note_on_c, 1, 81, 49
2, 579320, Note_off_c, 1, 81, 0
2, 579360, Note_on_c, 1, 78, 49
2, 579515, Note_off_c, 1, 78, 0
2, 579960, Note_on_c, 1, 72, 52
2, 580040, Note_off_c, 1, 72, 0
2, 580080, Note_on_c, 1, 84, 52
2, 580160, Note_off_c, 1, 84, 0
2, 580200, Note_on_c, 1, 84, 53
2, 580280, Note_off_c, 1, 84, 0
2, 580320, Note_on_c, 1, 84, 53
2, 580400, Note_off_c, 1, 84, 0
2, 580440, Note_on_c, 1, 84, 54
2, 580520, Note_off_c, 1, 84, 0
2, 580560, Note_on_c, 1, 84, 54
2, 580640, Note_off_c, 1, 84, 0
2, 580680, Note_on_c, 1, 84, 55
2, 580760, Note_off_c, 1, 84, 0
2, 580800, Note_on_c, 1, 84, 55
2, 581160, Note_off_c, 1, 84, 0
2, 581160, Note_on_c, 1, 81, 57
2, 581280, Note_off_c, 1, 81, 0
2, 581280, Note_on_c, 1, 78, 57
2, 581470, Note_off_c, 1, 78, 0
2, 581760, Note_on_c, 1, 84, 59
2, 582060, Note_on_c, 1, 81, 60
2, 582065, Note_off_c, 1, 84, 0
2, 582120, Note_off_c, 1, 81, 0
2, 582120, Note_on_c, 1, 84, 61
2, 582180, Note_off_c, 1, 84, 0
2, 582180, Note_on_c, 1, 81, 61
2, 582240, Note_off_c, 1, 81, 0
2, 582240, Note_on_c, 1, 78, 61
2, 582430, Note_off_c, 1, 78, 0
2, 582720, Note_on_c, 1, 74, 52
2, 582825, Note_off_c, 1, 74, 0
2, 582840, Note_on_c, 1, 74, 53
2, 582945, Note_off_c, 1, 74, 0
2, 582960, Note_on_c, 1, 74, 54
2, 583065, Note_off_c, 1, 74, 0
2, 583080, Note_on_c, 1, 74, 55
2, 583185, Note_off_c, 1, 74, 0
2, 583200, Note_on_c, 1, 74, 55
2, 583305, Note_off_c, 1, 74, 0
2, 583320, Note_on_c, 1, 74, 56
2, 583425, Note_off_c, 1, 74, 0
2, 583440, Note_on_c, 1, 74, 57
2, 583545, Note_off_c, 1, 74, 0
2, 583560, Note_on_c, 1, 74, 57
2, 583665, Note_off_c, 1, 74, 0
2, 583680, Note_on_c, 1, 74, 58
2, 583785, Note_off_c, 1, 74, 0
2, 583800, Note_on_c, 1, 74, 59
2, 583905, Note_off_c, 1, 74, 0
2, 583920, Note_on_c, 1, 74, 60
2, 584025, Note_off_c, 1, 74, 0
2, 584040, Note_on_c, 1, 74, 60
2, 584145, Note_off_c, 1, 74, 0
2, 584160, Note_on_c, 1, 74, 61
2, 584265, Note_off_c, 1, 74, 0
2, 584280, Note_on_c, 1, 74, 62
2, 584385, Note_off_c, 1, 74, 0
2, 584400, Note_on_c, 1, 74, 62
2, 584505, Note_off_c, 1, 74, 0
2, 584520, Note_on_c, 1, 74, 63
2, 584625, Note_off_c, 1, 74, 0
2, 584640, Note_on_c, 1, 74, 64
2, 584745, Note_off_c, 1, 74, 0
2, 584760, Note_on_c, 1, 74, 65
2, 584865, Note_off_c, 1, 74, 0
2, 584880, Note_on_c, 1, 74, 65
2, 584985, Note_off_c, 1, 74, 0
2, 585000, Note_on_c, 1, 74, 66
2, 585105, Note_off_c, 1, 74, 0
2, 585120, Note_on_c, 1, 74, 67
2, 585225, Note_off_c, 1, 74, 0
2, 585240, Note_on_c, 1, 74, 67
2, 585345, Note_off_c, 1, 74, 0
2, 585360, Note_on_c, 1, 74, 68
2, 585465, Note_off_c, 1, 74, 0
2, 585480, Note_on_c, 1, 74, 69
2, 585585, Note_off_c, 1, 74, 0
2, 585600, Note_on_c, 1, 74, 70
2, 585705, Note_off_c, 1, 74, 0
2, 585720, Note_on_c, 1, 74, 70
2, 585825, Note_off_c, 1, 74, 0
2, 585840, Note_on_c, 1, 74, 71
2, 585945, Note_off_c, 1, 74, 0
2, 585960, Note_on_c, 1, 74, 72
2, 586065, Note_off_c, 1, 74, 0
2, 586080, Note_on_c, 1, 74, 72
2, 586185, Note_off_c, 1, 74, 0
2, 586200, Note_on_c, 1, 74, 73
2, 586305, Note_off_c, 1, 74, 0
2, 586320, Note_on_c, 1, 74, 74
2, 586425, Note_off_c, 1, 74, 0
2, 586440, Note_on_c, 1, 74, 75
2, 586545, Note_off_c, 1, 74, 0
2, 586560, Note_on_c, 1, 74, 75
2, 586660, Note_off_c, 1, 74, 0
2, 586680, Note_on_c, 1, 84, 79
2, 586760, Note_off_c, 1, 84, 0
2, 586800, Note_on_c, 1, 83, 78
2, 586880, Note_off_c, 1, 83, 0
2, 586920, Note_on_c, 1, 81, 78
2, 587000, Note_off_c, 1, 81, 0
2, 587040, Note_on_c, 1, 79, 77
2, 587120, Note_off_c, 1, 79, 0
2, 587160, Note_on_c, 1, 78, 77
2, 587240, Note_off_c, 1, 78, 0
2, 587280, Note_on_c, 1, 76, 76
2, 587360, Note_off_c, 1, 76, 0
2, 587400, Note_on_c, 1, 74, 76
2, 587480, Note_off_c, 1, 74, 0
2, 587520, Note_on_c, 1, 72, 75
2, 587560, Note_off_c, 1, 72, 0
2, 587560, Note_on_c, 1, 74, 75
2, 587600, Note_off_c, 1, 74, 0
2, 587600, Note_on_c, 1, 76, 75
2, 587760, Note_off_c, 1, 76, 0
2, 587760, Note_on_c, 1, 74, 74
2, 587840, Note_off_c, 1, 74, 0
2, 587880, Note_on_c, 1, 72, 73
2, 587960, Note_off_c, 1, 72, 0
2, 588000, Note_on_c, 1, 71, 73
2, 588080, Note_off_c, 1, 71, 0
2, 588120, Note_on_c, 1, 69, 72
2, 588200, Note_off_c, 1, 69, 0
2, 588240, Note_on_c, 1, 67, 72
2, 588320, Note_off_c, 1, 67, 0
2, 588360, Note_on_c, 1, 66, 71
2, 588410, Note_off_c, 1, 66, 0
2, 588420, Note_on_c, 1, 64, 71
2, 588470, Note_off_c, 1, 64, 0
2, 588480, Note_on_c, 1, 62, 71
2, 588670, Note_off_c, 1, 62, 0
2, 588960, Note_on_c, 1, 66, 67
2, 589150, Note_off_c, 1, 66, 0
2, 589440, Note_on_c, 1, 67, 62
2, 589630, Note_off_c, 1, 67, 0
2, 590400, Note_on_c, 1, 81, 51
2, 590520, Note_off_c, 1, 81, 0
2, 590520, Note_on_c, 1, 79, 50
2, 591000, Note_on_c, 1, 78, 49
2, 591015, Note_off_c, 1, 79, 0
2, 591120, Note_off_c, 1, 78, 0
2, 591120, Note_on_c, 1, 79, 49
2, 591240, Note_off_c, 1, 79, 0
2, 591240, Note_on_c, 1, 76, 49
2, 591335, Note_off_c, 1, 76, 0
2, 591360, Note_on_c, 1, 74, 48
2, 591960, Note_off_c, 1, 74, 0
2, 591960, Note_on_c, 1, 73, 47
2, 592080, Note_off_c, 1, 73, 0
2, 592080, Note_on_c, 1, 74, 46
2, 592200, Note_off_c, 1, 74, 0
2, 592200, Note_on_c, 1, 71, 46
2, 592295, Note_off_c, 1, 71, 0
2, 592320, Note_on_c, 1, 74, 46
2, 592440, Note_off_c, 1, 74, 0
2, 592440, Note_on_c, 1, 72, 46
2, 592920, Note_on_c, 1, 71, 44
2, 592925, Note_off_c, 1, 72, 0
2, 593040, Note_off_c, 1, 71, 0
2, 593040, Note_on_c, 1, 72, 44
2, 593160, Note_off_c, 1, 72, 0
2, 593160, Note_on_c, 1, 69, 44
2, 593255, Note_off_c, 1, 69, 0
2, 593280, Note_on_c, 1, 74, 52
2, 593376, Note_off_c, 1, 74, 0
2, 593400, Note_on_c, 1, 74, 52
2, 593496, Note_off_c, 1, 74, 0
2, 593520, Note_on_c, 1, 74, 53
2, 593616, Note_off_c, 1, 74, 0
2, 593640, Note_on_c, 1, 74, 54
2, 593736, Note_off_c, 1, 74, 0
2, 593760, Note_on_c, 1, 74, 54
2, 593856, Note_off_c, 1, 74, 0
2, 593880, Note_on_c, 1, 74, 55
2, 593976, Note_off_c, 1, 74, 0
2, 594000, Note_on_c, 1, 74, 55
2, 594096, Note_off_c, 1, 74, 0
2, 594120, Note_on_c, 1, 74, 56
2, 594216, Note_off_c, 1, 74, 0
2, 594240, Note_on_c, 1, 74, 57
2, 594336, Note_off_c, 1, 74, 0
2, 594360, Note_on_c, 1, 74, 57
2, 594456, Note_off_c, 1, 74, 0
2, 594480, Note_on_c, 1, 74, 58
2, 594576, Note_off_c, 1, 74, 0
2, 594600, Note_on_c, 1, 74, 58
2, 594696, Note_off_c, 1, 74, 0
2, 594720, Note_on_c, 1, 74, 59
2, 594816, Note_off_c, 1, 74, 0
2, 594840, Note_on_c, 1, 74, 60
2, 594936, Note_off_c, 1, 74, 0
2, 594960, Note_on_c, 1, 74, 60
2, 595056, Note_off_c, 1, 74, 0
2, 595080, Note_on_c, 1, 74, 61
2, 595176, Note_off_c, 1, 74, 0
2, 595200, Note_on_c, 1, 74, 62
2, 595296, Note_off_c, 1, 74, 0
2, 595320, Note_on_c, 1, 74, 62
2, 595416, Note_off_c, 1, 74, 0
2, 595440, Note_on_c, 1, 74, 63
2, 595536, Note_off_c, 1, 74, 0
2, 595560, Note_on_c, 1, 74, 63
2, 595656, Note_off_c, 1, 74, 0
2, 595680, Note_on_c, 1, 74, 64
2, 595776, Note_off_c, 1, 74, 0
2, 595800, Note_on_c, 1, 74, 65
2, 595896, Note_off_c, 1, 74, 0
2, 595920, Note_on_c, 1, 74, 65
2, 596016, Note_off_c, 1, 74, 0
2, 596040, Note_on_c, 1, 74, 66
2, 596136, Note_off_c, 1, 74, 0
2, 596160, Note_on_c, 1, 74, 66
2, 596256, Note_off_c, 1, 74, 0
2, 596280, Note_on_c, 1, 74, 67
2, 596376, Note_off_c, 1, 74, 0
2, 596400, Note_on_c, 1, 74, 68
2, 596496, Note_off_c, 1, 74, 0
2, 596520, Note_on_c, 1, 74, 68
2, 596616, Note_off_c, 1, 74, 0
2, 596640, Note_on_c, 1, 74, 69
2, 596736, Note_off_c, 1, 74, 0
2, 596760, Note_on_c, 1, 74, 69
2, 596856, Note_off_c, 1, 74, 0
2, 596880, Note_on_c, 1, 74, 70
2, 596976, Note_off_c, 1, 74, 0
2, 597000, Note_on_c, 1, 74, 71
2, 597096, Note_off_c, 1, 74, 0
2, 597120, Note_on_c, 1, 74, 71
2, 597216, Note_off_c, 1, 74, 0
2, 597240, Note_on_c, 1, 74, 72
2, 597336, Note_off_c, 1, 74, 0
2, 597360, Note_on_c, 1, 75, 86
2, 597466, Note_off_c, 1, 75, 0
2, 597480, Note_on_c, 1, 75, 77
2, 597586, Note_off_c, 1, 75, 0
2, 597600, Note_on_c, 1, 75, 74
2, 597706, Note_off_c, 1, 75, 0
2, 597720, Note_on_c, 1, 75, 74
2, 597826, Note_off_c, 1, 75, 0
2, 597840, Note_on_c, 1, 75, 75
2, 597946, Note_off_c, 1, 75, 0
2, 597960, Note_on_c, 1, 75, 76
2, 598066, Note_off_c, 1, 75, 0
2, 598080, Note_on_c, 1, 76, 76
2, 598176, Note_off_c, 1, 76, 0
2, 598200, Note_on_c, 1, 76, 77
2, 598296, Note_off_c, 1, 76, 0
2, 598320, Note_on_c, 1, 70, 94
2, 598416, Note_off_c, 1, 70, 0
2, 598440, Note_on_c, 1, 70, 82
2, 598536, Note_off_c, 1, 70, 0
2, 598560, Note_on_c, 1, 70, 79
2, 598656, Note_off_c, 1, 70, 0
2, 598680, Note_on_c, 1, 70, 79
2, 598776, Note_off_c, 1, 70, 0
2, 598800, Note_on_c, 1, 70, 80
2, 598896, Note_off_c, 1, 70, 0
2, 598920, Note_on_c, 1, 70, 80
2, 599016, Note_off_c, 1, 70, 0
2, 599040, Note_on_c, 1, 83, 83
2, 599120, Note_off_c, 1, 83, 0
2, 599120, Note_on_c, 1, 86, 83
2, 599200, Note_off_c, 1, 86, 0
2, 599200, Note_on_c, 1, 83, 82
2, 599280, Note_off_c, 1, 83, 0
2, 599280, Note_on_c, 1, 79, 82
2, 599360, Note_off_c, 1, 79, 0
2, 599360, Note_on_c, 1, 74, 81
2, 599440, Note_off_c, 1, 74, 0
2, 599440, Note_on_c, 1, 71, 81
2, 599520, Note_off_c, 1, 71, 0
2, 599520, Note_on_c, 1, 67, 80
2, 599600, Note_off_c, 1, 67, 0
2, 599600, Note_on_c, 1, 71, 80
2, 599680, Note_off_c, 1, 71, 0
2, 599680, Note_on_c, 1, 67, 79
2, 599760, Note_off_c, 1, 67, 0
2, 599760, Note_on_c, 1, 62, 79
2, 599840, Note_off_c, 1, 62, 0
2, 599840, Note_on_c, 1, 59, 78
2, 599920, Note_off_c, 1, 59, 0
2, 599920, Note_on_c, 1, 55, 78
2, 600000, Note_off_c, 1, 55, 0
2, 600000, Note_on_c, 1, 62, 77
2, 600190, Note_off_c, 1, 62, 0
2, 600600, Note_on_c, 1, 78, 71
2, 600720, Note_off_c, 1, 78, 0
2, 601080, Note_on_c, 1, 79, 67
2, 601205, Note_off_c, 1, 79, 0
2, 601440, Note_on_c, 1, 67, 40
2, 601520, Note_off_c, 1, 67, 0
2, 601560, Note_on_c, 1, 69, 40
2, 601640, Note_off_c, 1, 69, 0
2, 601680, Note_on_c, 1, 71, 41
2, 601760, Note_off_c, 1, 71, 0
2, 601800, Note_on_c, 1, 72, 41
2, 601880, Note_off_c, 1, 72, 0
2, 601920, Note_on_c, 1, 74, 41
2, 602040, Note_off_c, 1, 74, 0
2, 602160, Note_on_c, 1, 76, 42
2, 602280, Note_off_c, 1, 76, 0
2, 602400, Note_on_c, 1, 74, 42
2, 602520, Note_off_c, 1, 74, 0
2, 602640, Note_on_c, 1, 73, 43
2, 602760, Note_off_c, 1, 73, 0
2, 602880, Note_on_c, 1, 72, 43
2, 603120, Note_off_c, 1, 72, 0
2, 603360, Note_on_c, 1, 71, 45
2, 603600, Note_off_c, 1, 71, 0
2, 604080, Note_on_c, 1, 69, 45
2, 604320, Note_off_c, 1, 69, 0
2, 604320, Note_on_c, 1, 72, 42
2, 604560, Note_off_c, 1, 72, 0
2, 604560, Note_on_c, 1, 66, 40
2, 604750, Note_off_c, 1, 66, 0
2, 604800, Note_on_c, 1, 67, 37
2, 604990, Note_off_c, 1, 67, 0
2, 605280, Note_on_c, 1, 79, 44
2, 605360, Note_off_c, 1, 79, 0
2, 605400, Note_on_c, 1, 81, 44
2, 605480, Note_off_c, 1, 81, 0
2, 605520, Note_on_c, 1, 83, 45
2, 605600, Note_off_c, 1, 83, 0
2, 605640, Note_on_c, 1, 84, 45
2, 605720, Note_off_c, 1, 84, 0
2, 605760, Note_on_c, 1, 86, 46
2, 605880, Note_off_c, 1, 86, 0
2, 606000, Note_on_c, 1, 88, 47
2, 606120, Note_off_c, 1, 88, 0
2, 606240, Note_on_c, 1, 86, 48
2, 606360, Note_off_c, 1, 86, 0
2, 606480, Note_on_c, 1, 85, 49
2, 606600, Note_off_c, 1, 85, 0
2, 606720, Note_on_c, 1, 84, 50
2, 606960, Note_off_c, 1, 84, 0
2, 607200, Note_on_c, 1, 83, 51
2, 607440, Note_off_c, 1, 83, 0
2, 607920, Note_on_c, 1, 81, 53
2, 608160, Note_off_c, 1, 81, 0
2, 608160, Note_on_c, 1, 84, 52
2, 608400, Note_off_c, 1, 84, 0
2, 608400, Note_on_c, 1, 78, 50
2, 608590, Note_off_c, 1, 78, 0
2, 608640, Note_on_c, 1, 79, 48
2, 609070, Note_off_c, 1, 79, 0
2, 609360, Note_on_c, 1, 67, 67
2, 609550, Note_off_c, 1, 67, 0
2, 609680, Note_on_c, 1, 71, 68
2, 610020, Note_off_c, 1, 71, 0
2, 610320, Note_on_c, 1, 71, 70
2, 610510, Note_off_c, 1, 71, 0
2, 610640, Note_on_c, 1, 74, 71
2, 610985, Note_off_c, 1, 74, 0
2, 611280, Note_on_c, 1, 74, 73
2, 611470, Note_off_c, 1, 74, 0
2, 611600, Note_on_c, 1, 74, 74
2, 611640, Note_on_c, 1, 77, 75
2, 611940, Note_off_c, 1, 77, 0
2, 611940, Note_off_c, 1, 74, 0
2, 612240, Note_on_c, 1, 77, 77
2, 612430, Note_off_c, 1, 77, 0
2, 612480, Note_on_c, 1, 83, 77
2, 612670, Note_off_c, 1, 83, 0
2, 612720, Note_on_c, 1, 77, 52
2, 612960, Note_off_c, 1, 77, 0
2, 612960, Note_on_c, 1, 74, 53
2, 613200, Note_off_c, 1, 74, 0
2, 613200, Note_on_c, 1, 71, 53
2, 613390, Note_off_c, 1, 71, 0
2, 613680, Note_on_c, 1, 83, 55
2, 613920, Note_off_c, 1, 83, 0
2, 613920, Note_on_c, 1, 77, 55
2, 614160, Note_off_c, 1, 77, 0
2, 614160, Note_on_c, 1, 74, 56
2, 614350, Note_off_c, 1, 74, 0
2, 614640, Note_on_c, 1, 89, 57
2, 614880, Note_off_c, 1, 89, 0
2, 614880, Note_on_c, 1, 86, 58
2, 615120, Note_off_c, 1, 86, 0
2, 615120, Note_on_c, 1, 83, 59
2, 615310, Note_off_c, 1, 83, 0
2, 615600, Note_on_c, 1, 86, 60
2, 615840, Note_off_c, 1, 86, 0
2, 615840, Note_on_c, 1, 83, 61
2, 616080, Note_off_c, 1, 83, 0
2, 616080, Note_on_c, 1, 79, 61
2, 616270, Note_off_c, 1, 79, 0
2, 616320, Note_on_c, 1, 77, 40
2, 616440, Note_off_c, 1, 77, 0
2, 616440, Note_on_c, 1, 76, 40
2, 616560, Note_off_c, 1, 76, 0
2, 616560, Note_on_c, 1, 74, 40
2, 616680, Note_off_c, 1, 74, 0
2, 616680, Note_on_c, 1, 72, 41
2, 616775, Note_off_c, 1, 72, 0
2, 616800, Note_on_c, 1, 72, 41
2, 616920, Note_off_c, 1, 72, 0
2, 617040, Note_on_c, 1, 72, 42
2, 617160, Note_off_c, 1, 72, 0
2, 617280, Note_on_c, 1, 72, 42
2, 617855, Note_off_c, 1, 72, 0
2, 618000, Note_on_c, 1, 84, 44
2, 618155, Note_off_c, 1, 84, 0
2, 618240, Note_on_c, 1, 83, 44
2, 618360, Note_off_c, 1, 83, 0
2, 618360, Note_on_c, 1, 81, 45
2, 618480, Note_off_c, 1, 81, 0
2, 618480, Note_on_c, 1, 79, 45
2, 618600, Note_off_c, 1, 79, 0
2, 618600, Note_on_c, 1, 77, 45
2, 618695, Note_off_c, 1, 77, 0
2, 618720, Note_on_c, 1, 77, 46
2, 618840, Note_off_c, 1, 77, 0
2, 618960, Note_on_c, 1, 77, 46
2, 619080, Note_off_c, 1, 77, 0
2, 619200, Note_on_c, 1, 77, 47
2, 619775, Note_off_c, 1, 77, 0
2, 619920, Note_on_c, 1, 81, 49
2, 620075, Note_off_c, 1, 81, 0
2, 620160, Note_on_c, 1, 81, 49
2, 620280, Note_off_c, 1, 81, 0
2, 620280, Note_on_c, 1, 79, 49
2, 620400, Note_off_c, 1, 79, 0
2, 620400, Note_on_c, 1, 77, 48
2, 620520, Note_off_c, 1, 77, 0
2, 620520, Note_on_c, 1, 76, 48
2, 620615, Note_off_c, 1, 76, 0
2, 620640, Note_on_c, 1, 76, 48
2, 620880, Note_off_c, 1, 76, 0
2, 620880, Note_on_c, 1, 79, 47
2, 621070, Note_off_c, 1, 79, 0
2, 621120, Note_on_c, 1, 79, 46
2, 621240, Note_off_c, 1, 79, 0
2, 621240, Note_on_c, 1, 77, 46
2, 621360, Note_off_c, 1, 77, 0
2, 621360, Note_on_c, 1, 76, 45
2, 621480, Note_off_c, 1, 76, 0
2, 621480, Note_on_c, 1, 74, 45
2, 621575, Note_off_c, 1, 74, 0
2, 621600, Note_on_c, 1, 74, 45
2, 621840, Note_off_c, 1, 74, 0
2, 621840, Note_on_c, 1, 77, 44
2, 622030, Note_off_c, 1, 77, 0
2, 622080, Note_on_c, 1, 77, 43
2, 622200, Note_off_c, 1, 77, 0
2, 622200, Note_on_c, 1, 76, 43
2, 622320, Note_off_c, 1, 76, 0
2, 622320, Note_on_c, 1, 74, 42
2, 622440, Note_off_c, 1, 74, 0
2, 622440, Note_on_c, 1, 72, 42
2, 622535, Note_off_c, 1, 72, 0
2, 622560, Note_on_c, 1, 71, 42
2, 622715, Note_off_c, 1, 71, 0
2, 622800, Note_on_c, 1, 72, 41
2, 622955, Note_off_c, 1, 72, 0
2, 623040, Note_on_c, 1, 76, 40
2, 623520, Note_off_c, 1, 76, 0
2, 623520, Note_on_c, 1, 74, 39
2, 623615, Note_off_c, 1, 74, 0
2, 623640, Note_on_c, 1, 78, 52
2, 623760, Note_off_c, 1, 78, 0
2, 623760, Note_on_c, 1, 79, 52
2, 623880, Note_off_c, 1, 79, 0
2, 623880, Note_on_c, 1, 77, 52
2, 623975, Note_off_c, 1, 77, 0
2, 624000, Note_on_c, 1, 77, 53
2, 624120, Note_off_c, 1, 77, 0
2, 624120, Note_on_c, 1, 76, 53
2, 624240, Note_off_c, 1, 76, 0
2, 624240, Note_on_c, 1, 74, 53
2, 624360, Note_off_c, 1, 74, 0
2, 624360, Note_on_c, 1, 72, 53
2, 624455, Note_off_c, 1, 72, 0
2, 624480, Note_on_c, 1, 71, 53
2, 624600, Note_off_c, 1, 71, 0
2, 624600, Note_on_c, 1, 72, 54
2, 624720, Note_off_c, 1, 72, 0
2, 624720, Note_on_c, 1, 74, 54
2, 624840, Note_off_c, 1, 74, 0
2, 624840, Note_on_c, 1, 72, 54
2, 624960, Note_off_c, 1, 72, 0
2, 624960, Note_on_c, 1, 72, 54
2, 625560, Note_off_c, 1, 72, 0
2, 625560, Note_on_c, 1, 79, 55
2, 625680, Note_off_c, 1, 79, 0
2, 625680, Note_on_c, 1, 76, 55
2, 625800, Note_off_c, 1, 76, 0
2, 625800, Note_on_c, 1, 84, 56
2, 625895, Note_off_c, 1, 84, 0
2, 625920, Note_on_c, 1, 83, 56
2, 626040, Note_off_c, 1, 83, 0
2, 626040, Note_on_c, 1, 81, 56
2, 626160, Note_off_c, 1, 81, 0
2, 626160, Note_on_c, 1, 79, 56
2, 626280, Note_off_c, 1, 79, 0
2, 626280, Note_on_c, 1, 77, 56
2, 626375, Note_off_c, 1, 77, 0
2, 626400, Note_on_c, 1, 76, 57
2, 626520, Note_off_c, 1, 76, 0
2, 626520, Note_on_c, 1, 77, 57
2, 626640, Note_off_c, 1, 77, 0
2, 626640, Note_on_c, 1, 79, 57
2, 626760, Note_off_c, 1, 79, 0
2, 626760, Note_on_c, 1, 77, 57
2, 626855, Note_off_c, 1, 77, 0
2, 626880, Note_on_c, 1, 77, 57
2, 627480, Note_off_c, 1, 77, 0
2, 627480, Note_on_c, 1, 81, 58
2, 627600, Note_off_c, 1, 81, 0
2, 627600, Note_on_c, 1, 84, 59
2, 627720, Note_off_c, 1, 84, 0
2, 627720, Note_on_c, 1, 81, 59
2, 627815, Note_off_c, 1, 81, 0
2, 627840, Note_on_c, 1, 81, 59
2, 627960, Note_off_c, 1, 81, 0
2, 627960, Note_on_c, 1, 79, 59
2, 628080, Note_off_c, 1, 79, 0
2, 628080, Note_on_c, 1, 77, 58
2, 628200, Note_off_c, 1, 77, 0
2, 628200, Note_on_c, 1, 76, 58
2, 628295, Note_off_c, 1, 76, 0
2, 628320, Note_on_c, 1, 76, 57
2, 628440, Note_off_c, 1, 76, 0
2, 628440, Note_on_c, 1, 82, 57
2, 628560, Note_off_c, 1, 82, 0
2, 628560, Note_on_c, 1, 81, 56
2, 628680, Note_off_c, 1, 81, 0
2, 628680, Note_on_c, 1, 79, 56
2, 628775, Note_off_c, 1, 79, 0
2, 628800, Note_on_c, 1, 79, 55
2, 628920, Note_off_c, 1, 79, 0
2, 628920, Note_on_c, 1, 77, 55
2, 629040, Note_off_c, 1, 77, 0
2, 629040, Note_on_c, 1, 76, 54
2, 629160, Note_off_c, 1, 76, 0
2, 629160, Note_on_c, 1, 74, 54
2, 629255, Note_off_c, 1, 74, 0
2, 629280, Note_on_c, 1, 74, 53
2, 629400, Note_off_c, 1, 74, 0
2, 629400, Note_on_c, 1, 81, 53
2, 629520, Note_off_c, 1, 81, 0
2, 629520, Note_on_c, 1, 79, 52
2, 629640, Note_off_c, 1, 79, 0
2, 629640, Note_on_c, 1, 77, 52
2, 629735, Note_off_c, 1, 77, 0
2, 629760, Note_on_c, 1, 77, 51
2, 629880, Note_off_c, 1, 77, 0
2, 629880, Note_on_c, 1, 76, 51
2, 629975, Note_off_c, 1, 76, 0
2, 630000, Note_on_c, 1, 77, 50
2, 630120, Note_off_c, 1, 77, 0
2, 630120, Note_on_c, 1, 74, 50
2, 630215, Note_off_c, 1, 74, 0
2, 630240, Note_on_c, 1, 72, 49
2, 630480, Note_off_c, 1, 72, 0
2, 630480, Note_on_c, 1, 71, 48
2, 630520, Note_off_c, 1, 71, 0
2, 630520, Note_on_c, 1, 72, 48
2, 630560, Note_off_c, 1, 72, 0
2, 630560, Note_on_c, 1, 71, 48
2, 630600, Note_off_c, 1, 71, 0
2, 630600, Note_on_c, 1, 69, 48
2, 630660, Note_off_c, 1, 69, 0
2, 630660, Note_on_c, 1, 71, 48
2, 630720, Note_off_c, 1, 71, 0
2, 630720, Note_on_c, 1, 76, 71
2, 630840, Note_off_c, 1, 76, 0
2, 630840, Note_on_c, 1, 72, 71
2, 630935, Note_off_c, 1, 72, 0
2, 630960, Note_on_c, 1, 88, 71
2, 631040, Note_off_c, 1, 88, 0
2, 631080, Note_on_c, 1, 88, 70
2, 631160, Note_off_c, 1, 88, 0
2, 631200, Note_on_c, 1, 88, 70
2, 631320, Note_off_c, 1, 88, 0
2, 631320, Note_on_c, 1, 79, 70
2, 631440, Note_off_c, 1, 79, 0
2, 631440, Note_on_c, 1, 81, 69
2, 631560, Note_off_c, 1, 81, 0
2, 631560, Note_on_c, 1, 76, 69
2, 631655, Note_off_c, 1, 76, 0
2, 631680, Note_on_c, 1, 77, 69
2, 631800, Note_off_c, 1, 77, 0
2, 631800, Note_on_c, 1, 74, 68
2, 631895, Note_off_c, 1, 74, 0
2, 631920, Note_on_c, 1, 86, 68
2, 632000, Note_off_c, 1, 86, 0
2, 632040, Note_on_c, 1, 86, 68
2, 632120, Note_off_c, 1, 86, 0
2, 632160, Note_on_c, 1, 86, 67
2, 632280, Note_off_c, 1, 86, 0
2, 632280, Note_on_c, 1, 77, 67
2, 632400, Note_off_c, 1, 77, 0
2, 632400, Note_on_c, 1, 79, 67
2, 632520, Note_off_c, 1, 79, 0
2, 632520, Note_on_c, 1, 74, 66
2, 632615, Note_off_c, 1, 74, 0
2, 632640, Note_on_c, 1, 76, 66
2, 632760, Note_off_c, 1, 76, 0
2, 632760, Note_on_c, 1, 84, 66
2, 632880, Note_off_c, 1, 84, 0
2, 632880, Note_on_c, 1, 80, 65
2, 633000, Note_off_c, 1, 80, 0
2, 633000, Note_on_c, 1, 81, 65
2, 633095, Note_off_c, 1, 81, 0
2, 633120, Note_on_c, 1, 78, 65
2, 633240, Note_off_c, 1, 78, 0
2, 633240, Note_on_c, 1, 79, 64
2, 633335, Note_off_c, 1, 79, 0
2, 633360, Note_on_c, 1, 77, 64
2, 633480, Note_off_c, 1, 77, 0
2, 633480, Note_on_c, 1, 74, 64
2, 633575, Note_off_c, 1, 74, 0
2, 633600, Note_on_c, 1, 72, 62
2, 633696, Note_off_c, 1, 72, 0
2, 633720, Note_on_c, 1, 72, 62
2, 633816, Note_off_c, 1, 72, 0
2, 633840, Note_on_c, 1, 72, 62
2, 633936, Note_off_c, 1, 72, 0
2, 633960, Note_on_c, 1, 72, 63
2, 634056, Note_off_c, 1, 72, 0
2, 634080, Note_on_c, 1, 72, 63
2, 634176, Note_off_c, 1, 72, 0
2, 634200, Note_on_c, 1, 72, 63
2, 634296, Note_off_c, 1, 72, 0
2, 634320, Note_on_c, 1, 72, 64
2, 634416, Note_off_c, 1, 72, 0
2, 634440, Note_on_c, 1, 72, 64
2, 634536, Note_off_c, 1, 72, 0
2, 634560, Note_on_c, 1, 72, 65
2, 634656, Note_off_c, 1, 72, 0
2, 634680, Note_on_c, 1, 72, 65
2, 634776, Note_off_c, 1, 72, 0
2, 634800, Note_on_c, 1, 72, 65
2, 634896, Note_off_c, 1, 72, 0
2, 634920, Note_on_c, 1, 72, 66
2, 635016, Note_off_c, 1, 72, 0
2, 635040, Note_on_c, 1, 72, 66
2, 635136, Note_off_c, 1, 72, 0
2, 635160, Note_on_c, 1, 72, 66
2, 635256, Note_off_c, 1, 72, 0
2, 635280, Note_on_c, 1, 72, 67
2, 635376, Note_off_c, 1, 72, 0
2, 635400, Note_on_c, 1, 72, 67
2, 635496, Note_off_c, 1, 72, 0
2, 635520, Note_on_c, 1, 72, 67
2, 635616, Note_off_c, 1, 72, 0
2, 635640, Note_on_c, 1, 72, 68
2, 635736, Note_off_c, 1, 72, 0
2, 635760, Note_on_c, 1, 72, 68
2, 635856, Note_off_c, 1, 72, 0
2, 635880, Note_on_c, 1, 72, 69
2, 635976, Note_off_c, 1, 72, 0
2, 636000, Note_on_c, 1, 72, 69
2, 636096, Note_off_c, 1, 72, 0
2, 636120, Note_on_c, 1, 72, 69
2, 636216, Note_off_c, 1, 72, 0
2, 636240, Note_on_c, 1, 72, 70
2, 636336, Note_off_c, 1, 72, 0
2, 636360, Note_on_c, 1, 72, 70
2, 636456, Note_off_c, 1, 72, 0
2, 636480, Note_on_c, 1, 72, 70
2, 636576, Note_off_c, 1, 72, 0
2, 636600, Note_on_c, 1, 72, 71
2, 636696, Note_off_c, 1, 72, 0
2, 636720, Note_on_c, 1, 72, 71
2, 636816, Note_off_c, 1, 72, 0
2, 636840, Note_on_c, 1, 72, 72
2, 636936, Note_off_c, 1, 72, 0
2, 636960, Note_on_c, 1, 72, 72
2, 637056, Note_off_c, 1, 72, 0
2, 637080, Note_on_c, 1, 72, 72
2, 637176, Note_off_c, 1, 72, 0
2, 637200, Note_on_c, 1, 72, 73
2, 637296, Note_off_c, 1, 72, 0
2, 637320, Note_on_c, 1, 72, 73
2, 637416, Note_off_c, 1, 72, 0
2, 637440, Note_on_c, 1, 72, 73
2, 637560, Note_off_c, 1, 72, 0
2, 637560, Note_on_c, 1, 83, 74
2, 637680, Note_off_c, 1, 83, 0
2, 637680, Note_on_c, 1, 84, 68
2, 637800, Note_off_c, 1, 84, 0
2, 637800, Note_on_c, 1, 83, 63
2, 637920, Note_off_c, 1, 83, 0
2, 637920, Note_on_c, 1, 82, 58
2, 638040, Note_off_c, 1, 82, 0
2, 638040, Note_on_c, 1, 81, 53
2, 638160, Note_off_c, 1, 81, 0
2, 638160, Note_on_c, 1, 82, 48
2, 638280, Note_off_c, 1, 82, 0
2, 638280, Note_on_c, 1, 79, 43
2, 638375, Note_off_c, 1, 79, 0
2, 638400, Note_on_c, 1, 77, 38
2, 638480, Note_on_c, 1, 79, 38
2, 638485, Note_off_c, 1, 77, 0
2, 638520, Note_off_c, 1, 79, 0
2, 638520, Note_on_c, 1, 77, 39
2, 638580, Note_off_c, 1, 77, 0
2, 638580, Note_on_c, 1, 76, 39
2, 638640, Note_off_c, 1, 76, 0
2, 638640, Note_on_c, 1, 77, 40
2, 638720, Note_off_c, 1, 77, 0
2, 638760, Note_on_c, 1, 79, 40
2, 638840, Note_off_c, 1, 79, 0
2, 638880, Note_on_c, 1, 81, 41
2, 638960, Note_on_c, 1, 82, 42
2, 638965, Note_off_c, 1, 81, 0
2, 639000, Note_off_c, 1, 82, 0
2, 639000, Note_on_c, 1, 81, 42
2, 639060, Note_off_c, 1, 81, 0
2, 639060, Note_on_c, 1, 79, 43
2, 639120, Note_off_c, 1, 79, 0
2, 639120, Note_on_c, 1, 81, 43
2, 639200, Note_off_c, 1, 81, 0
2, 639240, Note_on_c, 1, 82, 44
2, 639320, Note_off_c, 1, 82, 0
2, 639360, Note_on_c, 1, 84, 46
2, 639720, Note_off_c, 1, 84, 0
2, 639720, Note_on_c, 1, 86, 43
2, 639840, Note_off_c, 1, 86, 0
2, 639840, Note_on_c, 1, 82, 42
2, 639960, Note_off_c, 1, 82, 0
2, 640080, Note_on_c, 1, 79, 40
2, 640200, Note_off_c, 1, 79, 0
2, 640320, Note_on_c, 1, 77, 38
2, 640400, Note_on_c, 1, 79, 39
2, 640405, Note_off_c, 1, 77, 0
2, 640440, Note_off_c, 1, 79, 0
2, 640440, Note_on_c, 1, 77, 39
2, 640500, Note_off_c, 1, 77, 0
2, 640500, Note_on_c, 1, 76, 40
2, 640560, Note_off_c, 1, 76, 0
2, 640560, Note_on_c, 1, 77, 40
2, 640640, Note_off_c, 1, 77, 0
2, 640680, Note_on_c, 1, 79, 41
2, 640760, Note_off_c, 1, 79, 0
2, 640800, Note_on_c, 1, 81, 42
2, 640880, Note_on_c, 1, 82, 43
2, 640885, Note_off_c, 1, 81, 0
2, 640920, Note_off_c, 1, 82, 0
2, 640920, Note_on_c, 1, 81, 43
2, 640980, Note_off_c, 1, 81, 0
2, 640980, Note_on_c, 1, 79, 44
2, 641040, Note_off_c, 1, 79, 0
2, 641040, Note_on_c, 1, 81, 45
2, 641120, Note_off_c, 1, 81, 0
2, 641160, Note_on_c, 1, 82, 46
2, 641240, Note_off_c, 1, 82, 0
2, 641280, Note_on_c, 1, 81, 49
2, 641520, Note_off_c, 1, 81, 0
2, 641520, Note_on_c, 1, 79, 45
2, 641710, Note_off_c, 1, 79, 0
2, 641760, Note_on_c, 1, 77, 43
2, 641880, Note_off_c, 1, 77, 0
2, 641880, Note_on_c, 1, 76, 42
2, 642000, Note_off_c, 1, 76, 0
2, 642000, Note_on_c, 1, 74, 41
2, 642120, Note_off_c, 1, 74, 0
2, 642120, Note_on_c, 1, 72, 40
2, 642215, Note_off_c, 1, 72, 0
2, 642240, Note_on_c, 1, 77, 42
2, 642320, Note_on_c, 1, 79, 43
2, 642325, Note_off_c, 1, 77, 0
2, 642360, Note_off_c, 1, 79, 0
2, 642360, Note_on_c, 1, 77, 44
2, 642420, Note_off_c, 1, 77, 0
2, 642420, Note_on_c, 1, 76, 44
2, 642480, Note_off_c, 1, 76, 0
2, 642480, Note_on_c, 1, 77, 45
2, 642560, Note_off_c, 1, 77, 0
2, 642600, Note_on_c, 1, 79, 46
2, 642680, Note_off_c, 1, 79, 0
2, 642720, Note_on_c, 1, 81, 47
2, 642800, Note_on_c, 1, 82, 48
2, 642805, Note_off_c, 1, 81, 0
2, 642840, Note_off_c, 1, 82, 0
2, 642840, Note_on_c, 1, 81, 49
2, 642900, Note_off_c, 1, 81, 0
2, 642900, Note_on_c, 1, 79, 49
2, 642960, Note_off_c, 1, 79, 0
2, 642960, Note_on_c, 1, 81, 50
2, 643040, Note_off_c, 1, 81, 0
2, 643080, Note_on_c, 1, 82, 51
2, 643160, Note_off_c, 1, 82, 0
2, 643200, Note_on_c, 1, 84, 53
2, 643560, Note_off_c, 1, 84, 0
2, 643560, Note_on_c, 1, 86, 49
2, 643680, Note_off_c, 1, 86, 0
2, 643680, Note_on_c, 1, 82, 48
2, 643805, Note_off_c, 1, 82, 0
2, 643920, Note_on_c, 1, 79, 46
2, 644040, Note_off_c, 1, 79, 0
2, 644160, Note_on_c, 1, 81, 49
2, 644520, Note_off_c, 1, 81, 0
2, 644520, Note_on_c, 1, 82, 45
2, 644640, Note_off_c, 1, 82, 0
2, 644640, Note_on_c, 1, 79, 44
2, 644765, Note_off_c, 1, 79, 0
2, 644880, Note_on_c, 1, 76, 42
2, 645000, Note_off_c, 1, 76, 0
2, 645120, Note_on_c, 1, 77, 40
2, 645240, Note_off_c, 1, 77, 0
2, 645240, Note_on_c, 1, 72, 39
2, 645360, Note_off_c, 1, 72, 0
2, 645360, Note_on_c, 1, 74, 41
2, 645480, Note_off_c, 1, 74, 0
2, 645480, Note_on_c, 1, 69, 43
2, 645575, Note_off_c, 1, 69, 0
2, 645600, Note_on_c, 1, 70, 44
2, 645720, Note_off_c, 1, 70, 0
2, 645720, Note_on_c, 1, 67, 46
2, 645815, Note_off_c, 1, 67, 0
2, 645840, Note_on_c, 1, 72, 48
2, 645960, Note_off_c, 1, 72, 0
2, 645960, Note_on_c, 1, 64, 50
2, 646055, Note_off_c, 1, 64, 0
2, 646080, Note_on_c, 1, 65, 52
2, 646160, Note_on_c, 1, 67, 53
2, 646165, Note_off_c, 1, 65, 0
2, 646200, Note_off_c, 1, 67, 0
2, 646200, Note_on_c, 1, 65, 53
2, 646260, Note_off_c, 1, 65, 0
2, 646260, Note_on_c, 1, 64, 54
2, 646320, Note_off_c, 1, 64, 0
2, 646320, Note_on_c, 1, 65, 54
2, 646400, Note_off_c, 1, 65, 0
2, 646440, Note_on_c, 1, 67, 55
2, 646520, Note_off_c, 1, 67, 0
2, 646560, Note_on_c, 1, 69, 56
2, 646640, Note_on_c, 1, 70, 57
2, 646645, Note_off_c, 1, 69, 0
2, 646680, Note_off_c, 1, 70, 0
2, 646680, Note_on_c, 1, 69, 57
2, 646740, Note_off_c, 1, 69, 0
2, 646740, Note_on_c, 1, 67, 57
2, 646800, Note_off_c, 1, 67, 0
2, 646800, Note_on_c, 1, 69, 58
2, 646880, Note_off_c, 1, 69, 0
2, 646920, Note_on_c, 1, 70, 59
2, 647000, Note_off_c, 1, 70, 0
2, 647040, Note_on_c, 1, 72, 60
2, 647400, Note_off_c, 1, 72, 0
2, 647400, Note_on_c, 1, 74, 56
2, 647520, Note_off_c, 1, 74, 0
2, 647520, Note_on_c, 1, 70, 55
2, 647645, Note_off_c, 1, 70, 0
2, 647760, Note_on_c, 1, 67, 52
2, 647880, Note_off_c, 1, 67, 0
2, 648000, Note_on_c, 1, 65, 50
2, 648080, Note_on_c, 1, 67, 51
2, 648085, Note_off_c, 1, 65, 0
2, 648120, Note_off_c, 1, 67, 0
2, 648120, Note_on_c, 1, 65, 51
2, 648180, Note_off_c, 1, 65, 0
2, 648180, Note_on_c, 1, 64, 51
2, 648240, Note_off_c, 1, 64, 0
2, 648240, Note_on_c, 1, 65, 52
2, 648320, Note_off_c, 1, 65, 0
2, 648360, Note_on_c, 1, 67, 53
2, 648440, Note_off_c, 1, 67, 0
2, 648480, Note_on_c, 1, 69, 54
2, 648560, Note_on_c, 1, 70, 54
2, 648565, Note_off_c, 1, 69, 0
2, 648600, Note_off_c, 1, 70, 0
2, 648600, Note_on_c, 1, 69, 54
2, 648660, Note_off_c, 1, 69, 0
2, 648660, Note_on_c, 1, 67, 55
2, 648720, Note_off_c, 1, 67, 0
2, 648720, Note_on_c, 1, 69, 55
2, 648800, Note_off_c, 1, 69, 0
2, 648840, Note_on_c, 1, 70, 56
2, 648920, Note_off_c, 1, 70, 0
2, 648960, Note_on_c, 1, 69, 59
2, 649200, Note_off_c, 1, 69, 0
2, 649200, Note_on_c, 1, 67, 57
2, 649390, Note_off_c, 1, 67, 0
2, 649440, Note_on_c, 1, 65, 53
2, 649560, Note_off_c, 1, 65, 0
2, 649560, Note_on_c, 1, 64, 52
2, 649680, Note_off_c, 1, 64, 0
2, 649680, Note_on_c, 1, 62, 50
2, 649800, Note_off_c, 1, 62, 0
2, 649800, Note_on_c, 1, 60, 49
2, 649895, Note_off_c, 1, 60, 0
2, 649920, Note_on_c, 1, 65, 50
2, 650000, Note_on_c, 1, 67, 51
2, 650005, Note_off_c, 1, 65, 0
2, 650040, Note_off_c, 1, 67, 0
2, 650040, Note_on_c, 1, 65, 52
2, 650100, Note_off_c, 1, 65, 0
2, 650100, Note_on_c, 1, 64, 52
2, 650160, Note_off_c, 1, 64, 0
2, 650160, Note_on_c, 1, 65, 53
2, 650240, Note_off_c, 1, 65, 0
2, 650280, Note_on_c, 1, 67, 54
2, 650360, Note_off_c, 1, 67, 0
2, 650400, Note_on_c, 1, 69, 55
2, 650480, Note_on_c, 1, 70, 56
2, 650485, Note_off_c, 1, 69, 0
2, 650520, Note_off_c, 1, 70, 0
2, 650520, Note_on_c, 1, 69, 57
2, 650580, Note_off_c, 1, 69, 0
2, 650580, Note_on_c, 1, 67, 57
2, 650640, Note_off_c, 1, 67, 0
2, 650640, Note_on_c, 1, 69, 58
2, 650720, Note_off_c, 1, 69, 0
2, 650760, Note_on_c, 1, 70, 59
2, 650840, Note_off_c, 1, 70, 0
2, 650880, Note_on_c, 1, 72, 61
2, 650960, Note_on_c, 1, 74, 61
2, 650965, Note_off_c, 1, 72, 0
2, 651000, Note_off_c, 1, 74, 0
2, 651000, Note_on_c, 1, 72, 62
2, 651060, Note_off_c, 1, 72, 0
2, 651060, Note_on_c, 1, 71, 63
2, 651120, Note_off_c, 1, 71, 0
2, 651120, Note_on_c, 1, 72, 63
2, 651200, Note_off_c, 1, 72, 0
2, 651240, Note_on_c, 1, 74, 65
2, 651320, Note_off_c, 1, 74, 0
2, 651360, Note_on_c, 1, 76, 66
2, 651440, Note_on_c, 1, 77, 67
2, 651445, Note_off_c, 1, 76, 0
2, 651480, Note_off_c, 1, 77, 0
2, 651480, Note_on_c, 1, 76, 67
2, 651540, Note_off_c, 1, 76, 0
2, 651540, Note_on_c, 1, 74, 68
2, 651600, Note_off_c, 1, 74, 0
2, 651600, Note_on_c, 1, 76, 68
2, 651680, Note_off_c, 1, 76, 0
2, 651720, Note_on_c, 1, 77, 70
2, 651800, Note_off_c, 1, 77, 0
2, 651840, Note_on_c, 1, 77, 71
2, 651960, Note_off_c, 1, 77, 0
2, 651960, Note_on_c, 1, 74, 67
2, 652055, Note_off_c, 1, 74, 0
2, 652080, Note_on_c, 1, 77, 63
2, 652200, Note_off_c, 1, 77, 0
2, 652200, Note_on_c, 1, 74, 60
2, 652295, Note_off_c, 1, 74, 0
2, 652320, Note_on_c, 1, 72, 57
2, 652440, Note_off_c, 1, 72, 0
2, 652440, Note_on_c, 1, 69, 53
2, 652560, Note_off_c, 1, 69, 0
2, 652560, Note_on_c, 1, 70, 50
2, 652680, Note_off_c, 1, 70, 0
2, 652680, Note_on_c, 1, 67, 47
2, 652775, Note_off_c, 1, 67, 0
2, 652800, Note_on_c, 1, 65, 44
2, 652955, Note_off_c, 1, 65, 0
2, 653040, Note_on_c, 1, 69, 47
2, 653195, Note_off_c, 1, 69, 0
2, 653280, Note_on_c, 1, 72, 51
2, 653435, Note_off_c, 1, 72, 0
2, 653520, Note_on_c, 1, 76, 54
2, 653675, Note_off_c, 1, 76, 0
2, 653760, Note_on_c, 1, 77, 57
2, 653950, Note_off_c, 1, 77, 0
2, 654000, Note_on_c, 1, 81, 64
2, 654480, Note_off_c, 1, 81, 0
2, 654480, Note_on_c, 1, 79, 52
2, 654530, Note_off_c, 1, 79, 0
2, 654540, Note_on_c, 1, 77, 51
2, 654590, Note_off_c, 1, 77, 0
2, 654600, Note_on_c, 1, 76, 49
2, 654650, Note_off_c, 1, 76, 0
2, 654660, Note_on_c, 1, 74, 48
2, 654710, Note_off_c, 1, 74, 0
2, 654720, Note_on_c, 1, 73, 50
2, 654875, Note_off_c, 1, 73, 0
2, 654960, Note_on_c, 1, 76, 55
2, 655115, Note_off_c, 1, 76, 0
2, 655200, Note_on_c, 1, 79, 61
2, 655355, Note_off_c, 1, 79, 0
2, 655440, Note_on_c, 1, 82, 67
2, 655595, Note_off_c, 1, 82, 0
2, 655680, Note_on_c, 1, 85, 73
2, 655835, Note_off_c, 1, 85, 0
2, 655920, Note_on_c, 1, 88, 81
2, 656395, Note_off_c, 1, 88, 0
2, 656400, Note_on_c, 1, 86, 73
2, 656440, Note_off_c, 1, 86, 0
2, 656460, Note_on_c, 1, 85, 72
2, 656500, Note_off_c, 1, 85, 0
2, 656520, Note_on_c, 1, 83, 71
2, 656560, Note_off_c, 1, 83, 0
2, 656580, Note_on_c, 1, 81, 69
2, 656620, Note_off_c, 1, 81, 0
2, 656640, Note_on_c, 1, 89, 68
2, 656760, Note_off_c, 1, 89, 0
2, 656760, Note_on_c, 1, 81, 69
2, 656880, Note_off_c, 1, 81, 0
2, 656880, Note_on_c, 1, 83, 70
2, 656960, Note_off_c, 1, 83, 0
2, 657000, Note_on_c, 1, 86, 71
2, 657080, Note_off_c, 1, 86, 0
2, 657120, Note_on_c, 1, 88, 72
2, 657240, Note_off_c, 1, 88, 0
2, 657240, Note_on_c, 1, 78, 73
2, 657360, Note_off_c, 1, 78, 0
2, 657360, Note_on_c, 1, 79, 74
2, 657440, Note_off_c, 1, 79, 0
2, 657480, Note_on_c, 1, 84, 75
2, 657560, Note_off_c, 1, 84, 0
2, 657600, Note_on_c, 1, 88, 76
2, 657720, Note_off_c, 1, 88, 0
2, 657720, Note_on_c, 1, 86, 77
2, 657815, Note_off_c, 1, 86, 0
2, 657840, Note_on_c, 1, 86, 78
2, 658320, Note_off_c, 1, 86, 0
2, 658320, Note_on_c, 1, 84, 83
2, 658360, Note_off_c, 1, 84, 0
2, 658360, Note_on_c, 1, 86, 83
2, 658400, Note_off_c, 1, 86, 0
2, 658400, Note_on_c, 1, 84, 83
2, 658440, Note_off_c, 1, 84, 0
2, 658440, Note_on_c, 1, 83, 84
2, 658500, Note_off_c, 1, 83, 0
2, 658500, Note_on_c, 1, 84, 84
2, 658560, Note_off_c, 1, 84, 0
2, 658560, Note_on_c, 1, 83, 85
2, 658620, Note_off_c, 1, 83, 0
2, 658640, Note_on_c, 1, 86, 85
2, 658700, Note_off_c, 1, 86, 0
2, 658720, Note_on_c, 1, 84, 85
2, 658780, Note_off_c, 1, 84, 0
2, 658800, Note_on_c, 1, 83, 85
2, 658860, Note_off_c, 1, 83, 0
2, 658880, Note_on_c, 1, 81, 85
2, 658940, Note_off_c, 1, 81, 0
2, 658960, Note_on_c, 1, 79, 84
2, 659020, Note_off_c, 1, 79, 0
2, 659040, Note_on_c, 1, 78, 84
2, 659100, Note_off_c, 1, 78, 0
2, 659120, Note_on_c, 1, 81, 84
2, 659180, Note_off_c, 1, 81, 0
2, 659200, Note_on_c, 1, 79, 84
2, 659260, Note_off_c, 1, 79, 0
2, 659280, Note_on_c, 1, 83, 84
2, 659340, Note_off_c, 1, 83, 0
2, 659360, Note_on_c, 1, 74, 84
2, 659420, Note_off_c, 1, 74, 0
2, 659440, Note_on_c, 1, 77, 83
2, 659500, Note_off_c, 1, 77, 0
2, 659520, Note_on_c, 1, 76, 83
2, 659580, Note_off_c, 1, 76, 0
2, 659600, Note_on_c, 1, 79, 83
2, 659660, Note_off_c, 1, 79, 0
2, 659680, Note_on_c, 1, 77, 83
2, 659740, Note_off_c, 1, 77, 0
2, 659760, Note_on_c, 1, 76, 83
2, 659820, Note_off_c, 1, 76, 0
2, 659840, Note_on_c, 1, 74, 82
2, 659900, Note_off_c, 1, 74, 0
2, 659920, Note_on_c, 1, 72, 82
2, 659980, Note_off_c, 1, 72, 0
2, 660000, Note_on_c, 1, 71, 82
2, 660060, Note_off_c, 1, 71, 0
2, 660080, Note_on_c, 1, 74, 82
2, 660140, Note_off_c, 1, 74, 0
2, 660160, Note_on_c, 1, 72, 82
2, 660220, Note_off_c, 1, 72, 0
2, 660240, Note_on_c, 1, 76, 82
2, 660300, Note_off_c, 1, 76, 0
2, 660320, Note_on_c, 1, 67, 81
2, 660380, Note_off_c, 1, 67, 0
2, 660400, Note_on_c, 1, 72, 81
2, 660460, Note_off_c, 1, 72, 0
2, 660480, Control_c, 1, 64, 0
2, 660480, Note_on_c, 1, 71, 81
2, 660540, Note_off_c, 1, 71, 0
2, 660560, Note_on_c, 1, 74, 81
2, 660620, Note_off_c, 1, 74, 0
2, 660640, Note_on_c, 1, 72, 81
2, 660700, Note_off_c, 1, 72, 0
2, 660720, Note_on_c, 1, 71, 80
2, 660780, Note_off_c, 1, 71, 0
2, 660800, Note_on_c, 1, 69, 80
2, 660860, Note_off_c, 1, 69, 0
2, 660880, Note_on_c, 1, 67, 80
2, 660940, Note_off_c, 1, 67, 0
2, 660960, Note_on_c, 1, 66, 80
2, 661020, Note_off_c, 1, 66, 0
2, 661040, Note_on_c, 1, 69, 80
2, 661100, Note_off_c, 1, 69, 0
2, 661120, Note_on_c, 1, 67, 80
2, 661180, Note_off_c, 1, 67, 0
2, 661200, Note_on_c, 1, 71, 79
2, 661260, Note_off_c, 1, 71, 0
2, 661280, Note_on_c, 1, 62, 79
2, 661340, Note_off_c, 1, 62, 0
2, 661360, Note_on_c, 1, 65, 79
2, 661420, Note_off_c, 1, 65, 0
2, 661440, Note_on_c, 1, 64, 79
2, 661500, Note_off_c, 1, 64, 0
2, 661520, Note_on_c, 1, 67, 79
2, 661580, Note_off_c, 1, 67, 0
2, 661600, Note_on_c, 1, 65, 78
2, 661660, Note_off_c, 1, 65, 0
2, 661680, Note_on_c, 1, 64, 78
2, 661740, Note_off_c, 1, 64, 0
2, 661760, Note_on_c, 1, 62, 78
2, 661820, Note_off_c, 1, 62, 0
2, 661840, Note_on_c, 1, 60, 78
2, 661900, Note_off_c, 1, 60, 0
2, 661920, Note_on_c, 1, 59, 78
2, 661980, Note_off_c, 1, 59, 0
2, 662000, Note_on_c, 1, 62, 77
2, 662060, Note_off_c, 1, 62, 0
2, 662080, Note_on_c, 1, 60, 77
2, 662140, Note_off_c, 1, 60, 0
2, 662160, Note_on_c, 1, 52, 77
2, 662160, Note_on_c, 1, 64, 77
2, 662220, Note_off_c, 1, 64, 0
2, 662220, Note_off_c, 1, 52, 0
2, 662240, Note_on_c, 1, 54, 77
2, 662300, Note_off_c, 1, 54, 0
2, 662320, Note_on_c, 1, 57, 77
2, 662380, Note_off_c, 1, 57, 0
2, 662400, Note_on_c, 1, 55, 77
2, 662460, Note_off_c, 1, 55, 0
2, 662480, Note_on_c, 1, 57, 76
2, 662540, Note_off_c, 1, 57, 0
2, 662560, Note_on_c, 1, 54, 76
2, 662620, Note_off_c, 1, 54, 0
2, 662640, Note_on_c, 1, 55, 76
2, 662700, Note_off_c, 1, 55, 0
2, 662720, Note_on_c, 1, 57, 76
2, 662780, Note_off_c, 1, 57, 0
2, 662800, Note_on_c, 1, 54, 76
2, 662860, Note_off_c, 1, 54, 0
2, 662880, Note_on_c, 1, 55, 75
2, 662940, Note_off_c, 1, 55, 0
2, 662960, Note_on_c, 1, 57, 75
2, 663020, Note_off_c, 1, 57, 0
2, 663040, Note_on_c, 1, 54, 75
2, 663100, Note_off_c, 1, 54, 0
2, 663120, Note_on_c, 1, 55, 75
2, 663180, Note_off_c, 1, 55, 0
2, 663200, Note_on_c, 1, 57, 75
2, 663260, Note_off_c, 1, 57, 0
2, 663280, Note_on_c, 1, 54, 75
2, 663335, Note_off_c, 1, 54, 0
2, 663360, Note_on_c, 1, 55, 74
2, 663550, Note_off_c, 1, 55, 0
2, 664080, Note_on_c, 1, 67, 79
2, 664200, Note_off_c, 1, 67, 0
2, 664320, Note_on_c, 1, 79, 79
2, 664380, Note_off_c, 1, 79, 0
2, 664400, Note_on_c, 1, 81, 78
2, 664460, Note_off_c, 1, 81, 0
2, 664480, Note_on_c, 1, 79, 78
2, 664540, Note_off_c, 1, 79, 0
2, 664560, Note_on_c, 1, 77, 77
2, 664620, Note_off_c, 1, 77, 0
2, 664640, Note_on_c, 1, 76, 76
2, 664700, Note_off_c, 1, 76, 0
2, 664720, Note_on_c, 1, 74, 76
2, 664780, Note_off_c, 1, 74, 0
2, 664800, Note_on_c, 1, 76, 75
2, 664860, Note_off_c, 1, 76, 0
2, 664880, Note_on_c, 1, 77, 74
2, 664940, Note_off_c, 1, 77, 0
2, 664960, Note_on_c, 1, 76, 74
2, 665020, Note_off_c, 1, 76, 0
2, 665040, Note_on_c, 1, 74, 73
2, 665100, Note_off_c, 1, 74, 0
2, 665120, Note_on_c, 1, 72, 72
2, 665180, Note_off_c, 1, 72, 0
2, 665200, Note_on_c, 1, 71, 72
2, 665260, Note_off_c, 1, 71, 0
2, 665280, Note_on_c, 1, 72, 71
2, 665340, Note_off_c, 1, 72, 0
2, 665360, Note_on_c, 1, 74, 70
2, 665420, Note_off_c, 1, 74, 0
2, 665440, Note_on_c, 1, 72, 70
2, 665500, Note_off_c, 1, 72, 0
2, 665520, Note_on_c, 1, 71, 69
2, 665580, Note_off_c, 1, 71, 0
2, 665600, Note_on_c, 1, 69, 68
2, 665660, Note_off_c, 1, 69, 0
2, 665680, Note_on_c, 1, 68, 68
2, 665740, Note_off_c, 1, 68, 0
2, 665760, Note_on_c, 1, 69, 67
2, 665820, Note_off_c, 1, 69, 0
2, 665840, Note_on_c, 1, 71, 66
2, 665900, Note_off_c, 1, 71, 0
2, 665920, Note_on_c, 1, 69, 66
2, 665980, Note_off_c, 1, 69, 0
2, 666000, Note_on_c, 1, 67, 65
2, 666060, Note_off_c, 1, 67, 0
2, 666080, Note_on_c, 1, 65, 64
2, 666140, Note_off_c, 1, 65, 0
2, 666160, Note_on_c, 1, 64, 63
2, 666230, Note_off_c, 1, 64, 0
2, 666240, Note_on_c, 1, 65, 63
2, 666600, Note_off_c, 1, 65, 0
2, 666600, Note_on_c, 1, 69, 60
2, 666660, Note_off_c, 1, 69, 0
2, 666660, Note_on_c, 1, 67, 59
2, 666720, Note_off_c, 1, 67, 0
2, 666720, Note_on_c, 1, 65, 59
2, 666910, Note_off_c, 1, 65, 0
2, 667080, Note_on_c, 1, 65, 46
2, 667175, Note_off_c, 1, 65, 0
2, 667200, Note_on_c, 1, 65, 46
2, 667560, Note_off_c, 1, 65, 0
2, 667560, Note_on_c, 1, 68, 43
2, 667620, Note_off_c, 1, 68, 0
2, 667620, Note_on_c, 1, 67, 43
2, 667680, Note_off_c, 1, 67, 0
2, 667680, Note_on_c, 1, 65, 42
2, 667870, Note_off_c, 1, 65, 0
2, 668040, Note_on_c, 1, 65, 64
2, 668135, Note_off_c, 1, 65, 0
2, 668160, Note_on_c, 1, 77, 71
2, 668220, Note_off_c, 1, 77, 0
2, 668240, Note_on_c, 1, 79, 70
2, 668300, Note_off_c, 1, 79, 0
2, 668320, Note_on_c, 1, 77, 70
2, 668380, Note_off_c, 1, 77, 0
2, 668400, Note_on_c, 1, 76, 69
2, 668460, Note_off_c, 1, 76, 0
2, 668480, Note_on_c, 1, 74, 69
2, 668540, Note_off_c, 1, 74, 0
2, 668560, Note_on_c, 1, 73, 68
2, 668620, Note_off_c, 1, 73, 0
2, 668640, Note_on_c, 1, 74, 68
2, 668700, Note_off_c, 1, 74, 0
2, 668720, Note_on_c, 1, 76, 67
2, 668780, Note_off_c, 1, 76, 0
2, 668800, Note_on_c, 1, 74, 66
2, 668860, Note_off_c, 1, 74, 0
2, 668880, Note_on_c, 1, 72, 66
2, 668940, Note_off_c, 1, 72, 0
2, 668960, Note_on_c, 1, 71, 65
2, 669020, Note_off_c, 1, 71, 0
2, 669040, Note_on_c, 1, 70, 65
2, 669100, Note_off_c, 1, 70, 0
2, 669120, Note_on_c, 1, 71, 64
2, 669180, Note_off_c, 1, 71, 0
2, 669200, Note_on_c, 1, 72, 64
2, 669260, Note_off_c, 1, 72, 0
2, 669280, Note_on_c, 1, 71, 63
2, 669340, Note_off_c, 1, 71, 0
2, 669360, Note_on_c, 1, 69, 62
2, 669420, Note_off_c, 1, 69, 0
2, 669440, Note_on_c, 1, 67, 62
2, 669500, Note_off_c, 1, 67, 0
2, 669520, Note_on_c, 1, 66, 61
2, 669580, Note_off_c, 1, 66, 0
2, 669600, Note_on_c, 1, 67, 61
2, 669660, Note_off_c, 1, 67, 0
2, 669680, Note_on_c, 1, 69, 60
2, 669740, Note_off_c, 1, 69, 0
2, 669760, Note_on_c, 1, 67, 60
2, 669820, Note_off_c, 1, 67, 0
2, 669840, Note_on_c, 1, 65, 59
2, 669900, Note_off_c, 1, 65, 0
2, 669920, Note_on_c, 1, 64, 58
2, 669980, Note_off_c, 1, 64, 0
2, 670000, Note_on_c, 1, 62, 58
2, 670060, Note_off_c, 1, 62, 0
2, 670080, Note_on_c, 1, 64, 57
2, 670440, Note_off_c, 1, 64, 0
2, 670440, Note_on_c, 1, 67, 55
2, 670500, Note_off_c, 1, 67, 0
2, 670500, Note_on_c, 1, 65, 54
2, 670560, Note_off_c, 1, 65, 0
2, 670560, Note_on_c, 1, 64, 54
2, 670750, Note_off_c, 1, 64, 0
2, 670920, Note_on_c, 1, 64, 43
2, 671015, Note_off_c, 1, 64, 0
2, 671040, Note_on_c, 1, 64, 42
2, 671400, Note_off_c, 1, 64, 0
2, 671400, Note_on_c, 1, 67, 40
2, 671460, Note_off_c, 1, 67, 0
2, 671460, Note_on_c, 1, 65, 40
2, 671520, Note_off_c, 1, 65, 0
2, 671520, Note_on_c, 1, 64, 39
2, 671710, Note_off_c, 1, 64, 0
2, 671880, Note_on_c, 1, 79, 55
2, 671975, Note_off_c, 1, 79, 0
2, 672000, Note_on_c, 1, 84, 61
2, 672080, Note_off_c, 1, 84, 0
2, 672080, Note_on_c, 1, 86, 61
2, 672160, Note_off_c, 1, 86, 0
2, 672160, Note_on_c, 1, 84, 60
2, 672240, Note_off_c, 1, 84, 0
2, 672240, Note_on_c, 1, 81, 60
2, 672320, Note_off_c, 1, 81, 0
2, 672320, Note_on_c, 1, 79, 59
2, 672400, Note_off_c, 1, 79, 0
2, 672400, Note_on_c, 1, 78, 59
2, 672480, Note_off_c, 1, 78, 0
2, 672480, Note_on_c, 1, 79, 58
2, 672560, Note_off_c, 1, 79, 0
2, 672560, Note_on_c, 1, 81, 58
2, 672640, Note_off_c, 1, 81, 0
2, 672640, Note_on_c, 1, 79, 57
2, 672720, Note_off_c, 1, 79, 0
2, 672720, Note_on_c, 1, 77, 57
2, 672800, Note_off_c, 1, 77, 0
2, 672800, Note_on_c, 1, 76, 56
2, 672880, Note_off_c, 1, 76, 0
2, 672880, Note_on_c, 1, 74, 56
2, 672960, Note_off_c, 1, 74, 0
2, 672960, Note_on_c, 1, 76, 55
2, 673040, Note_off_c, 1, 76, 0
2, 673040, Note_on_c, 1, 77, 55
2, 673120, Note_off_c, 1, 77, 0
2, 673120, Note_on_c, 1, 76, 54
2, 673200, Note_off_c, 1, 76, 0
2, 673200, Note_on_c, 1, 74, 54
2, 673280, Note_off_c, 1, 74, 0
2, 673280, Note_on_c, 1, 72, 53
2, 673360, Note_off_c, 1, 72, 0
2, 673360, Note_on_c, 1, 71, 53
2, 673440, Note_off_c, 1, 71, 0
2, 673440, Note_on_c, 1, 72, 52
2, 673520, Note_off_c, 1, 72, 0
2, 673520, Note_on_c, 1, 74, 52
2, 673600, Note_off_c, 1, 74, 0
2, 673600, Note_on_c, 1, 72, 51
2, 673680, Note_off_c, 1, 72, 0
2, 673680, Note_on_c, 1, 67, 51
2, 673760, Note_off_c, 1, 67, 0
2, 673760, Note_on_c, 1, 65, 50
2, 673840, Note_off_c, 1, 65, 0
2, 673840, Note_on_c, 1, 64, 50
2, 673920, Note_off_c, 1, 64, 0
2, 673920, Note_on_c, 1, 62, 49
2, 674280, Note_off_c, 1, 62, 0
2, 674280, Note_on_c, 1, 65, 47
2, 674340, Note_off_c, 1, 65, 0
2, 674340, Note_on_c, 1, 64, 47
2, 674400, Note_off_c, 1, 64, 0
2, 674400, Note_on_c, 1, 62, 46
2, 674590, Note_off_c, 1, 62, 0
2, 674760, Note_on_c, 1, 62, 35
2, 674855, Note_off_c, 1, 62, 0
2, 674880, Note_on_c, 1, 62, 35
2, 675240, Note_off_c, 1, 62, 0
2, 675240, Note_on_c, 1, 65, 33
2, 675300, Note_off_c, 1, 65, 0
2, 675300, Note_on_c, 1, 64, 33
2, 675360, Note_off_c, 1, 64, 0
2, 675360, Note_on_c, 1, 62, 33
2, 675550, Note_off_c, 1, 62, 0
2, 675720, Note_on_c, 1, 74, 46
2, 675815, Note_off_c, 1, 74, 0
2, 675840, Note_on_c, 1, 84, 53
2, 675900, Note_off_c, 1, 84, 0
2, 675920, Note_on_c, 1, 86, 53
2, 675980, Note_off_c, 1, 86, 0
2, 676000, Note_on_c, 1, 84, 52
2, 676060, Note_off_c, 1, 84, 0
2, 676080, Note_on_c, 1, 83, 52
2, 676140, Note_off_c, 1, 83, 0
2, 676160, Note_on_c, 1, 81, 51
2, 676220, Note_off_c, 1, 81, 0
2, 676240, Note_on_c, 1, 80, 51
2, 676300, Note_off_c, 1, 80, 0
2, 676320, Note_on_c, 1, 81, 50
2, 676380, Note_off_c, 1, 81, 0
2, 676400, Note_on_c, 1, 83, 50
2, 676460, Note_off_c, 1, 83, 0
2, 676480, Note_on_c, 1, 81, 49
2, 676540, Note_off_c, 1, 81, 0
2, 676560, Note_on_c, 1, 79, 49
2, 676620, Note_off_c, 1, 79, 0
2, 676640, Note_on_c, 1, 78, 48
2, 676700, Note_off_c, 1, 78, 0
2, 676720, Note_on_c, 1, 76, 47
2, 676785, Note_off_c, 1, 76, 0
2, 676800, Note_on_c, 1, 78, 47
2, 676860, Note_off_c, 1, 78, 0
2, 676880, Note_on_c, 1, 79, 46
2, 676940, Note_off_c, 1, 79, 0
2, 676960, Note_on_c, 1, 78, 46
2, 677020, Note_off_c, 1, 78, 0
2, 677040, Note_on_c, 1, 76, 45
2, 677100, Note_off_c, 1, 76, 0
2, 677120, Note_on_c, 1, 74, 45
2, 677180, Note_off_c, 1, 74, 0
2, 677200, Note_on_c, 1, 73, 44
2, 677260, Note_off_c, 1, 73, 0
2, 677280, Note_on_c, 1, 74, 44
2, 677340, Note_off_c, 1, 74, 0
2, 677360, Note_on_c, 1, 76, 43
2, 677420, Note_off_c, 1, 76, 0
2, 677440, Note_on_c, 1, 74, 43
2, 677500, Note_off_c, 1, 74, 0
2, 677520, Note_on_c, 1, 72, 42
2, 677580, Note_off_c, 1, 72, 0
2, 677600, Note_on_c, 1, 71, 42
2, 677660, Note_off_c, 1, 71, 0
2, 677680, Note_on_c, 1, 69, 42
2, 677740, Note_off_c, 1, 69, 0
2, 677760, Note_on_c, 1, 71, 44
2, 678000, Note_off_c, 1, 71, 0
2, 678000, Note_on_c, 1, 77, 45
2, 678155, Note_off_c, 1, 77, 0
2, 678240, Note_on_c, 1, 77, 46
2, 678395, Note_off_c, 1, 77, 0
2, 678480, Note_on_c, 1, 77, 47
2, 678635, Note_off_c, 1, 77, 0
2, 678720, Note_on_c, 1, 77, 48
2, 679080, Note_off_c, 1, 77, 0
2, 679080, Note_on_c, 1, 74, 50
2, 679200, Note_off_c, 1, 74, 0
2, 679200, Note_on_c, 1, 71, 50
2, 679390, Note_off_c, 1, 71, 0
2, 679800, Note_on_c, 1, 65, 53
2, 679920, Note_off_c, 1, 65, 0
2, 679920, Note_on_c, 1, 77, 54
2, 680000, Note_off_c, 1, 77, 0
2, 680040, Note_on_c, 1, 77, 54
2, 680120, Note_off_c, 1, 77, 0
2, 680160, Note_on_c, 1, 77, 55
2, 680240, Note_off_c, 1, 77, 0
2, 680280, Note_on_c, 1, 77, 55
2, 680360, Note_off_c, 1, 77, 0
2, 680400, Note_on_c, 1, 77, 56
2, 680480, Note_off_c, 1, 77, 0
2, 680520, Note_on_c, 1, 77, 56
2, 680600, Note_off_c, 1, 77, 0
2, 680640, Note_on_c, 1, 77, 57
2, 681000, Note_off_c, 1, 77, 0
2, 681000, Note_on_c, 1, 74, 59
2, 681120, Note_off_c, 1, 74, 0
2, 681120, Note_on_c, 1, 71, 59
2, 681310, Note_off_c, 1, 71, 0
2, 681600, Note_on_c, 1, 77, 61
2, 681900, Note_off_c, 1, 77, 0
2, 681900, Note_on_c, 1, 74, 63
2, 681960, Note_off_c, 1, 74, 0
2, 681960, Note_on_c, 1, 77, 63
2, 682020, Note_off_c, 1, 77, 0
2, 682020, Note_on_c, 1, 74, 63
2, 682080, Note_off_c, 1, 74, 0
2, 682080, Note_on_c, 1, 71, 64
2, 682270, Note_off_c, 1, 71, 0
2, 682560, Note_on_c, 1, 67, 66
2, 682665, Note_off_c, 1, 67, 0
2, 682680, Note_on_c, 1, 67, 66
2, 682785, Note_off_c, 1, 67, 0
2, 682800, Note_on_c, 1, 67, 67
2, 682905, Note_off_c, 1, 67, 0
2, 682920, Note_on_c, 1, 67, 67
2, 683025, Note_off_c, 1, 67, 0
2, 683040, Note_on_c, 1, 67, 68
2, 683145, Note_off_c, 1, 67, 0
2, 683160, Note_on_c, 1, 67, 69
2, 683265, Note_off_c, 1, 67, 0
2, 683280, Note_on_c, 1, 67, 69
2, 683385, Note_off_c, 1, 67, 0
2, 683400, Note_on_c, 1, 67, 70
2, 683505, Note_off_c, 1, 67, 0
2, 683520, Note_on_c, 1, 67, 70
2, 683625, Note_off_c, 1, 67, 0
2, 683640, Note_on_c, 1, 67, 71
2, 683745, Note_off_c, 1, 67, 0
2, 683760, Note_on_c, 1, 67, 71
2, 683865, Note_off_c, 1, 67, 0
2, 683880, Note_on_c, 1, 67, 72
2, 683985, Note_off_c, 1, 67, 0
2, 684000, Note_on_c, 1, 67, 72
2, 684105, Note_off_c, 1, 67, 0
2, 684120, Note_on_c, 1, 67, 73
2, 684225, Note_off_c, 1, 67, 0
2, 684240, Note_on_c, 1, 67, 73
2, 684345, Note_off_c, 1, 67, 0
2, 684360, Note_on_c, 1, 67, 74
2, 684465, Note_off_c, 1, 67, 0
2, 684480, Note_on_c, 1, 67, 75
2, 684585, Note_off_c, 1, 67, 0
2, 684600, Note_on_c, 1, 67, 75
2, 684705, Note_off_c, 1, 67, 0
2, 684720, Note_on_c, 1, 67, 76
2, 684825, Note_off_c, 1, 67, 0
2, 684840, Note_on_c, 1, 67, 76
2, 684945, Note_off_c, 1, 67, 0
2, 684960, Note_on_c, 1, 67, 77
2, 685065, Note_off_c, 1, 67, 0
2, 685080, Note_on_c, 1, 67, 77
2, 685185, Note_off_c, 1, 67, 0
2, 685200, Note_on_c, 1, 67, 78
2, 685305, Note_off_c, 1, 67, 0
2, 685320, Note_on_c, 1, 67, 78
2, 685425, Note_off_c, 1, 67, 0
2, 685440, Note_on_c, 1, 67, 79
2, 685545, Note_off_c, 1, 67, 0
2, 685560, Note_on_c, 1, 67, 80
2, 685665, Note_off_c, 1, 67, 0
2, 685680, Note_on_c, 1, 67, 80
2, 685785, Note_off_c, 1, 67, 0
2, 685800, Note_on_c, 1, 67, 81
2, 685905, Note_off_c, 1, 67, 0
2, 685920, Note_on_c, 1, 67, 81
2, 686025, Note_off_c, 1, 67, 0
2, 686040, Note_on_c, 1, 67, 82
2, 686145, Note_off_c, 1, 67, 0
2, 686160, Note_on_c, 1, 67, 82
2, 686265, Note_off_c, 1, 67, 0
2, 686280, Note_on_c, 1, 67, 83
2, 686385, Note_off_c, 1, 67, 0
2, 686400, Note_on_c, 1, 67, 83
2, 686480, Note_off_c, 1, 67, 0
2, 686520, Note_on_c, 1, 77, 83
2, 686600, Note_off_c, 1, 77, 0
2, 686640, Note_on_c, 1, 76, 82
2, 686720, Note_off_c, 1, 76, 0
2, 686760, Note_on_c, 1, 74, 81
2, 686840, Note_off_c, 1, 74, 0
2, 686880, Note_on_c, 1, 72, 81
2, 686960, Note_off_c, 1, 72, 0
2, 687000, Note_on_c, 1, 71, 80
2, 687080, Note_off_c, 1, 71, 0
2, 687120, Note_on_c, 1, 69, 79
2, 687200, Note_off_c, 1, 69, 0
2, 687240, Note_on_c, 1, 67, 79
2, 687320, Note_off_c, 1, 67, 0
2, 687440, Note_on_c, 1, 81, 78
2, 687565, Note_off_c, 1, 81, 0
2, 687600, Note_on_c, 1, 79, 77
2, 687680, Note_off_c, 1, 79, 0
2, 687720, Note_on_c, 1, 77, 76
2, 687800, Note_off_c, 1, 77, 0
2, 687840, Note_on_c, 1, 76, 75
2, 687920, Note_off_c, 1, 76, 0
2, 687960, Note_on_c, 1, 74, 75
2, 688040, Note_off_c, 1, 74, 0
2, 688080, Note_on_c, 1, 72, 74
2, 688160, Note_off_c, 1, 72, 0
2, 688200, Note_on_c, 1, 71, 73
2, 688250, Note_off_c, 1, 71, 0
2, 688260, Note_on_c, 1, 69, 73
2, 688310, Note_off_c, 1, 69, 0
2, 688320, Note_on_c, 1, 67, 73
2, 688510, Note_off_c, 1, 67, 0
2, 688800, Note_on_c, 1, 71, 70
2, 688990, Note_off_c, 1, 71, 0
2, 689280, Note_on_c, 1, 72, 68
2, 689470, Note_off_c, 1, 72, 0
2, 690240, Note_on_c, 1, 86, 55
2, 690360, Note_off_c, 1, 86, 0
2, 690360, Note_on_c, 1, 84, 54
2, 690840, Note_off_c, 1, 84, 0
2, 690840, Note_on_c, 1, 83, 52
2, 690960, Note_off_c, 1, 83, 0
2, 690960, Note_on_c, 1, 84, 52
2, 691080, Note_off_c, 1, 84, 0
2, 691080, Note_on_c, 1, 81, 51
2, 691175, Note_off_c, 1, 81, 0
2, 691200, Note_on_c, 1, 79, 51
2, 691800, Note_on_c, 1, 78, 49
2, 691805, Note_off_c, 1, 79, 0
2, 691920, Note_off_c, 1, 78, 0
2, 691920, Note_on_c, 1, 79, 48
2, 692040, Note_off_c, 1, 79, 0
2, 692040, Note_on_c, 1, 76, 48
2, 692135, Note_off_c, 1, 76, 0
2, 692160, Note_on_c, 1, 79, 47
2, 692280, Note_off_c, 1, 79, 0
2, 692280, Note_on_c, 1, 77, 47
2, 692400, Note_on_c, 1, 74, 46
2, 692590, Note_off_c, 1, 74, 0
2, 692750, Note_off_c, 1, 77, 0
2, 692760, Note_on_c, 1, 76, 45
2, 692880, Note_off_c, 1, 76, 0
2, 692880, Note_on_c, 1, 77, 44
2, 693000, Note_off_c, 1, 77, 0
2, 693000, Note_on_c, 1, 74, 44
2, 693095, Note_off_c, 1, 74, 0
2, 693120, Note_on_c, 1, 67, 68
2, 693225, Note_off_c, 1, 67, 0
2, 693240, Note_on_c, 1, 67, 68
2, 693345, Note_off_c, 1, 67, 0
2, 693360, Note_on_c, 1, 67, 68
2, 693465, Note_off_c, 1, 67, 0
2, 693480, Note_on_c, 1, 67, 68
2, 693585, Note_off_c, 1, 67, 0
2, 693600, Note_on_c, 1, 67, 69
2, 693705, Note_off_c, 1, 67, 0
2, 693720, Note_on_c, 1, 67, 69
2, 693825, Note_off_c, 1, 67, 0
2, 693840, Note_on_c, 1, 67, 69
2, 693945, Note_off_c, 1, 67, 0
2, 693960, Note_on_c, 1, 67, 69
2, 694065, Note_off_c, 1, 67, 0
2, 694080, Note_on_c, 1, 67, 70
2, 694185, Note_off_c, 1, 67, 0
2, 694200, Note_on_c, 1, 67, 70
2, 694305, Note_off_c, 1, 67, 0
2, 694320, Note_on_c, 1, 67, 70
2, 694425, Note_off_c, 1, 67, 0
2, 694440, Note_on_c, 1, 67, 70
2, 694545, Note_off_c, 1, 67, 0
2, 694560, Note_on_c, 1, 67, 71
2, 694665, Note_off_c, 1, 67, 0
2, 694680, Note_on_c, 1, 67, 71
2, 694785, Note_off_c, 1, 67, 0
2, 694800, Note_on_c, 1, 67, 71
2, 694905, Note_off_c, 1, 67, 0
2, 694920, Note_on_c, 1, 67, 71
2, 695025, Note_off_c, 1, 67, 0
2, 695040, Note_on_c, 1, 67, 72
2, 695145, Note_off_c, 1, 67, 0
2, 695160, Note_on_c, 1, 67, 72
2, 695265, Note_off_c, 1, 67, 0
2, 695280, Note_on_c, 1, 67, 72
2, 695385, Note_off_c, 1, 67, 0
2, 695400, Note_on_c, 1, 67, 72
2, 695505, Note_off_c, 1, 67, 0
2, 695520, Note_on_c, 1, 67, 73
2, 695625, Note_off_c, 1, 67, 0
2, 695640, Note_on_c, 1, 67, 73
2, 695745, Note_off_c, 1, 67, 0
2, 695760, Note_on_c, 1, 67, 73
2, 695865, Note_off_c, 1, 67, 0
2, 695880, Note_on_c, 1, 67, 73
2, 695985, Note_off_c, 1, 67, 0
2, 696000, Note_on_c, 1, 67, 74
2, 696105, Note_off_c, 1, 67, 0
2, 696120, Note_on_c, 1, 67, 74
2, 696225, Note_off_c, 1, 67, 0
2, 696240, Note_on_c, 1, 67, 74
2, 696345, Note_off_c, 1, 67, 0
2, 696360, Note_on_c, 1, 67, 74
2, 696465, Note_off_c, 1, 67, 0
2, 696480, Note_on_c, 1, 67, 75
2, 696585, Note_off_c, 1, 67, 0
2, 696600, Note_on_c, 1, 67, 75
2, 696705, Note_off_c, 1, 67, 0
2, 696720, Note_on_c, 1, 67, 75
2, 696825, Note_off_c, 1, 67, 0
2, 696840, Note_on_c, 1, 67, 75
2, 696945, Note_off_c, 1, 67, 0
2, 696960, Note_on_c, 1, 67, 76
2, 697065, Note_off_c, 1, 67, 0
2, 697080, Note_on_c, 1, 67, 76
2, 697185, Note_off_c, 1, 67, 0
2, 697200, Note_on_c, 1, 68, 76
2, 697305, Note_off_c, 1, 68, 0
2, 697320, Note_on_c, 1, 68, 76
2, 697425, Note_off_c, 1, 68, 0
2, 697440, Note_on_c, 1, 68, 77
2, 697545, Note_off_c, 1, 68, 0
2, 697560, Note_on_c, 1, 68, 77
2, 697665, Note_off_c, 1, 68, 0
2, 697680, Note_on_c, 1, 68, 77
2, 697785, Note_off_c, 1, 68, 0
2, 697800, Note_on_c, 1, 68, 77
2, 697905, Note_off_c, 1, 68, 0
2, 697920, Note_on_c, 1, 69, 78
2, 698025, Note_off_c, 1, 69, 0
2, 698040, Note_on_c, 1, 69, 78
2, 698145, Note_off_c, 1, 69, 0
2, 698160, Note_on_c, 1, 70, 78
2, 698265, Note_off_c, 1, 70, 0
2, 698280, Note_on_c, 1, 70, 78
2, 698385, Note_off_c, 1, 70, 0
2, 698400, Note_on_c, 1, 70, 79
2, 698505, Note_off_c, 1, 70, 0
2, 698520, Note_on_c, 1, 70, 79
2, 698625, Note_off_c, 1, 70, 0
2, 698640, Note_on_c, 1, 70, 79
2, 698745, Note_off_c, 1, 70, 0
2, 698760, Note_on_c, 1, 70, 79
2, 698865, Note_off_c, 1, 70, 0
2, 698880, Note_on_c, 1, 81, 48
2, 698940, Note_off_c, 1, 81, 0
2, 698960, Note_on_c, 1, 82, 48
2, 699020, Note_off_c, 1, 82, 0
2, 699040, Note_on_c, 1, 81, 49
2, 699100, Note_off_c, 1, 81, 0
2, 699120, Note_on_c, 1, 79, 49
2, 699180, Note_off_c, 1, 79, 0
2, 699200, Note_on_c, 1, 81, 50
2, 699260, Note_off_c, 1, 81, 0
2, 699280, Note_on_c, 1, 79, 50
2, 699340, Note_off_c, 1, 79, 0
2, 699360, Note_on_c, 1, 77, 51
2, 699420, Note_off_c, 1, 77, 0
2, 699440, Note_on_c, 1, 79, 51
2, 699500, Note_off_c, 1, 79, 0
2, 699520, Note_on_c, 1, 77, 52
2, 699580, Note_off_c, 1, 77, 0
2, 699600, Note_on_c, 1, 76, 52
2, 699660, Note_off_c, 1, 76, 0
2, 699680, Note_on_c, 1, 77, 53
2, 699740, Note_off_c, 1, 77, 0
2, 699760, Note_on_c, 1, 76, 54
2, 699820, Note_off_c, 1, 76, 0
2, 699840, Note_on_c, 1, 74, 54
2, 699900, Note_off_c, 1, 74, 0
2, 699920, Note_on_c, 1, 76, 55
2, 699980, Note_off_c, 1, 76, 0
2, 700000, Note_on_c, 1, 74, 55
2, 700060, Note_off_c, 1, 74, 0
2, 700080, Note_on_c, 1, 76, 56
2, 700140, Note_off_c, 1, 76, 0
2, 700160, Note_on_c, 1, 77, 56
2, 700220, Note_off_c, 1, 77, 0
2, 700240, Note_on_c, 1, 76, 57
2, 700300, Note_off_c, 1, 76, 0
2, 700320, Note_on_c, 1, 77, 57
2, 700380, Note_off_c, 1, 77, 0
2, 700400, Note_on_c, 1, 79, 58
2, 700460, Note_off_c, 1, 79, 0
2, 700480, Note_on_c, 1, 77, 58
2, 700540, Note_off_c, 1, 77, 0
2, 700560, Note_on_c, 1, 82, 59
2, 700620, Note_off_c, 1, 82, 0
2, 700640, Note_on_c, 1, 84, 70
2, 700700, Note_off_c, 1, 84, 0
2, 700720, Note_on_c, 1, 82, 65
2, 700780, Note_off_c, 1, 82, 0
2, 700800, Note_on_c, 1, 81, 60
2, 700860, Note_off_c, 1, 81, 0
2, 700880, Note_on_c, 1, 82, 61
2, 700940, Note_off_c, 1, 82, 0
2, 700960, Note_on_c, 1, 81, 62
2, 701020, Note_off_c, 1, 81, 0
2, 701040, Note_on_c, 1, 79, 62
2, 701100, Note_off_c, 1, 79, 0
2, 701120, Note_on_c, 1, 81, 63
2, 701180, Note_off_c, 1, 81, 0
2, 701200, Note_on_c, 1, 79, 63
2, 701260, Note_off_c, 1, 79, 0
2, 701280, Note_on_c, 1, 77, 64
2, 701340, Note_off_c, 1, 77, 0
2, 701360, Note_on_c, 1, 79, 64
2, 701420, Note_off_c, 1, 79, 0
2, 701440, Note_on_c, 1, 77, 65
2, 701500, Note_off_c, 1, 77, 0
2, 701520, Note_on_c, 1, 76, 65
2, 701580, Note_off_c, 1, 76, 0
2, 701600, Note_on_c, 1, 77, 66
2, 701660, Note_off_c, 1, 77, 0
2, 701680, Note_on_c, 1, 76, 66
2, 701735, Note_off_c, 1, 76, 0
2, 701760, Note_on_c, 1, 74, 67
2, 701820, Note_off_c, 1, 74, 0
2, 701840, Note_on_c, 1, 76, 67
2, 701900, Note_off_c, 1, 76, 0
2, 701920, Note_on_c, 1, 74, 68
2, 701980, Note_off_c, 1, 74, 0
2, 702000, Note_on_c, 1, 76, 68
2, 702060, Note_off_c, 1, 76, 0
2, 702080, Note_on_c, 1, 77, 69
2, 702140, Note_off_c, 1, 77, 0
2, 702160, Note_on_c, 1, 76, 70
2, 702220, Note_off_c, 1, 76, 0
2, 702240, Note_on_c, 1, 77, 70
2, 702300, Note_off_c, 1, 77, 0
2, 702320, Note_on_c, 1, 79, 71
2, 702380, Note_off_c, 1, 79, 0
2, 702400, Note_on_c, 1, 77, 71
2, 702460, Note_off_c, 1, 77, 0
2, 702480, Note_on_c, 1, 82, 72
2, 702540, Note_off_c, 1, 82, 0
2, 702560, Note_on_c, 1, 84, 84
2, 702620, Note_off_c, 1, 84, 0
2, 702640, Note_on_c, 1, 82, 80
2, 702705, Note_off_c, 1, 82, 0
2, 702720, Note_on_c, 1, 81, 76
2, 702780, Note_off_c, 1, 81, 0
2, 702800, Note_on_c, 1, 84, 75
2, 702860, Note_off_c, 1, 84, 0
2, 702880, Note_on_c, 1, 83, 75
2, 702940, Note_off_c, 1, 83, 0
2, 702960, Note_on_c, 1, 81, 74
2, 703020, Note_off_c, 1, 81, 0
2, 703040, Note_on_c, 1, 83, 74
2, 703100, Note_off_c, 1, 83, 0
2, 703120, Note_on_c, 1, 84, 73
2, 703180, Note_off_c, 1, 84, 0
2, 703200, Note_on_c, 1, 77, 73
2, 703260, Note_off_c, 1, 77, 0
2, 703280, Note_on_c, 1, 81, 73
2, 703340, Note_off_c, 1, 81, 0
2, 703360, Note_on_c, 1, 79, 72
2, 703420, Note_off_c, 1, 79, 0
2, 703440, Note_on_c, 1, 77, 72
2, 703500, Note_off_c, 1, 77, 0
2, 703520, Note_on_c, 1, 79, 71
2, 703580, Note_off_c, 1, 79, 0
2, 703600, Note_on_c, 1, 81, 71
2, 703660, Note_off_c, 1, 81, 0
2, 703680, Note_on_c, 1, 74, 71
2, 703740, Note_off_c, 1, 74, 0
2, 703760, Note_on_c, 1, 77, 70
2, 703820, Note_off_c, 1, 77, 0
2, 703840, Note_on_c, 1, 76, 70
2, 703900, Note_off_c, 1, 76, 0
2, 703920, Note_on_c, 1, 74, 70
2, 703980, Note_off_c, 1, 74, 0
2, 704000, Note_on_c, 1, 76, 69
2, 704060, Note_off_c, 1, 76, 0
2, 704080, Note_on_c, 1, 77, 69
2, 704140, Note_off_c, 1, 77, 0
2, 704160, Note_on_c, 1, 69, 68
2, 704220, Note_off_c, 1, 69, 0
2, 704240, Note_on_c, 1, 72, 68
2, 704300, Note_off_c, 1, 72, 0
2, 704320, Note_on_c, 1, 71, 68
2, 704380, Note_off_c, 1, 71, 0
2, 704400, Note_on_c, 1, 69, 67
2, 704460, Note_off_c, 1, 69, 0
2, 704480, Note_on_c, 1, 71, 67
2, 704540, Note_off_c, 1, 71, 0
2, 704560, Note_on_c, 1, 72, 66
2, 704615, Note_off_c, 1, 72, 0
2, 704640, Note_on_c, 1, 71, 68
2, 704700, Note_off_c, 1, 71, 0
2, 704720, Note_on_c, 1, 67, 69
2, 704780, Note_off_c, 1, 67, 0
2, 704800, Note_on_c, 1, 71, 70
2, 704860, Note_off_c, 1, 71, 0
2, 704880, Note_on_c, 1, 74, 71
2, 704940, Note_off_c, 1, 74, 0
2, 704960, Note_on_c, 1, 71, 72
2, 705020, Note_off_c, 1, 71, 0
2, 705040, Note_on_c, 1, 74, 73
2, 705100, Note_off_c, 1, 74, 0
2, 705120, Note_on_c, 1, 79, 74
2, 705180, Note_off_c, 1, 79, 0
2, 705200, Note_on_c, 1, 74, 75
2, 705260, Note_off_c, 1, 74, 0
2, 705280, Note_on_c, 1, 79, 76
2, 705340, Note_off_c, 1, 79, 0
2, 705360, Note_on_c, 1, 83, 77
2, 705420, Note_off_c, 1, 83, 0
2, 705440, Note_on_c, 1, 79, 78
2, 705500, Note_off_c, 1, 79, 0
2, 705520, Note_on_c, 1, 83, 79
2, 705580, Note_off_c, 1, 83, 0
2, 705600, Note_on_c, 1, 86, 80
2, 705660, Note_off_c, 1, 86, 0
2, 705680, Note_on_c, 1, 83, 81
2, 705740, Note_off_c, 1, 83, 0
2, 705760, Note_on_c, 1, 86, 82
2, 705825, Note_off_c, 1, 86, 0
2, 705840, Note_on_c, 1, 89, 83
2, 706670, Note_off_c, 1, 89, 0
2, 706680, Note_on_c, 1, 89, 59
2, 706800, Note_off_c, 1, 89, 0
2, 706800, Note_on_c, 1, 87, 59
2, 706920, Note_off_c, 1, 87, 0
2, 706920, Note_on_c, 1, 88, 58
2, 707040, Note_off_c, 1, 88, 0
2, 707040, Note_on_c, 1, 85, 57
2, 707160, Note_off_c, 1, 85, 0
2, 707160, Note_on_c, 1, 86, 57
2, 707280, Note_off_c, 1, 86, 0
2, 707280, Note_on_c, 1, 83, 56
2, 707400, Note_off_c, 1, 83, 0
2, 707400, Note_on_c, 1, 84, 55
2, 707520, Note_off_c, 1, 84, 0
2, 707520, Note_on_c, 1, 82, 55
2, 707640, Note_off_c, 1, 82, 0
2, 707640, Note_on_c, 1, 83, 54
2, 707760, Note_off_c, 1, 83, 0
2, 707760, Note_on_c, 1, 80, 53
2, 707880, Note_off_c, 1, 80, 0
2, 707880, Note_on_c, 1, 81, 53
2, 708000, Note_off_c, 1, 81, 0
2, 708000, Note_on_c, 1, 78, 52
2, 708120, Note_off_c, 1, 78, 0
2, 708120, Note_on_c, 1, 79, 51
2, 708240, Note_off_c, 1, 79, 0
2, 708240, Note_on_c, 1, 77, 50
2, 708360, Note_off_c, 1, 77, 0
2, 708360, Note_on_c, 1, 79, 50
2, 708455, Note_off_c, 1, 79, 0
2, 708480, Note_on_c, 1, 77, 48
2, 708600, Note_off_c, 1, 77, 0
2, 708600, Note_on_c, 1, 76, 48
2, 708720, Note_off_c, 1, 76, 0
2, 708720, Note_on_c, 1, 74, 48
2, 708840, Note_off_c, 1, 74, 0
2, 708840, Note_on_c, 1, 72, 48
2, 708935, Note_off_c, 1, 72, 0
2, 708960, Note_on_c, 1, 72, 48
2, 709080, Note_off_c, 1, 72, 0
2, 709200, Note_on_c, 1, 72, 48
2, 709320, Note_off_c, 1, 72, 0
2, 709440, Note_on_c, 1, 71, 49
2, 709500, Note_off_c, 1, 71, 0
2, 709500, Note_on_c, 1, 72, 49
2, 709560, Note_off_c, 1, 72, 0
2, 709560, Note_on_c, 1, 74, 49
2, 709620, Note_off_c, 1, 74, 0
2, 709620, Note_on_c, 1, 72, 49
2, 710160, Note_on_c, 1, 84, 49
2, 710165, Note_off_c, 1, 72, 0
2, 710280, Note_off_c, 1, 84, 0
2, 710400, Note_on_c, 1, 83, 50
2, 710520, Note_off_c, 1, 83, 0
2, 710520, Note_on_c, 1, 81, 50
2, 710640, Note_off_c, 1, 81, 0
2, 710640, Note_on_c, 1, 79, 50
2, 710760, Note_off_c, 1, 79, 0
2, 710760, Note_on_c, 1, 77, 50
2, 710855, Note_off_c, 1, 77, 0
2, 710880, Note_on_c, 1, 77, 50
2, 710995, Note_off_c, 1, 77, 0
2, 711120, Note_on_c, 1, 77, 50
2, 711240, Note_off_c, 1, 77, 0
2, 711360, Note_on_c, 1, 76, 50
2, 711420, Note_off_c, 1, 76, 0
2, 711420, Note_on_c, 1, 77, 51
2, 711480, Note_off_c, 1, 77, 0
2, 711480, Note_on_c, 1, 79, 51
2, 711540, Note_off_c, 1, 79, 0
2, 711540, Note_on_c, 1, 77, 51
2, 712080, Note_off_c, 1, 77, 0
2, 712080, Note_on_c, 1, 81, 51
2, 712235, Note_off_c, 1, 81, 0
2, 712320, Note_on_c, 1, 81, 53
2, 712440, Note_off_c, 1, 81, 0
2, 712440, Note_on_c, 1, 79, 51
2, 712560, Note_off_c, 1, 79, 0
2, 712560, Note_on_c, 1, 77, 51
2, 712680, Note_off_c, 1, 77, 0
2, 712680, Note_on_c, 1, 76, 51
2, 712775, Note_off_c, 1, 76, 0
2, 712800, Note_on_c, 1, 76, 50
2, 713040, Note_off_c, 1, 76, 0
2, 713040, Note_on_c, 1, 79, 50
2, 713160, Note_off_c, 1, 79, 0
2, 713280, Note_on_c, 1, 79, 49
2, 713400, Note_off_c, 1, 79, 0
2, 713400, Note_on_c, 1, 77, 49
2, 713520, Note_off_c, 1, 77, 0
2, 713520, Note_on_c, 1, 76, 49
2, 713640, Note_off_c, 1, 76, 0
2, 713640, Note_on_c, 1, 74, 48
2, 713735, Note_off_c, 1, 74, 0
2, 713760, Note_on_c, 1, 74, 48
2, 714000, Note_off_c, 1, 74, 0
2, 714000, Note_on_c, 1, 77, 48
2, 714120, Note_off_c, 1, 77, 0
2, 714240, Note_on_c, 1, 77, 47
2, 714360, Note_off_c, 1, 77, 0
2, 714360, Note_on_c, 1, 76, 47
2, 714480, Note_off_c, 1, 76, 0
2, 714480, Note_on_c, 1, 74, 46
2, 714600, Note_off_c, 1, 74, 0
2, 714600, Note_on_c, 1, 72, 46
2, 714695, Note_off_c, 1, 72, 0
2, 714720, Note_on_c, 1, 71, 46
2, 714840, Note_off_c, 1, 71, 0
2, 714960, Note_on_c, 1, 72, 45
2, 715085, Note_off_c, 1, 72, 0
2, 715200, Note_on_c, 1, 76, 45
2, 715680, Note_off_c, 1, 76, 0
2, 715680, Note_on_c, 1, 74, 44
2, 715775, Note_off_c, 1, 74, 0
2, 715800, Note_on_c, 1, 79, 50
2, 715920, Note_off_c, 1, 79, 0
2, 715920, Note_on_c, 1, 78, 53
2, 716040, Note_off_c, 1, 78, 0
2, 716040, Note_on_c, 1, 77, 55
2, 716160, Note_off_c, 1, 77, 0
2, 716160, Note_on_c, 1, 77, 57
2, 716280, Note_off_c, 1, 77, 0
2, 716280, Note_on_c, 1, 76, 56
2, 716400, Note_off_c, 1, 76, 0
2, 716400, Note_on_c, 1, 74, 56
2, 716520, Note_off_c, 1, 74, 0
2, 716520, Note_on_c, 1, 72, 57
2, 716640, Note_off_c, 1, 72, 0
2, 716640, Note_on_c, 1, 72, 57
2, 716720, Note_off_c, 1, 72, 0
2, 716760, Note_on_c, 1, 72, 57
2, 716840, Note_off_c, 1, 72, 0
2, 716880, Note_on_c, 1, 72, 57
2, 716960, Note_off_c, 1, 72, 0
2, 717000, Note_on_c, 1, 72, 58
2, 717080, Note_off_c, 1, 72, 0
2, 717120, Note_on_c, 1, 72, 58
2, 717180, Note_off_c, 1, 72, 0
2, 717180, Note_on_c, 1, 74, 58
2, 717240, Note_off_c, 1, 74, 0
2, 717240, Note_on_c, 1, 72, 58
2, 717300, Note_off_c, 1, 72, 0
2, 717300, Note_on_c, 1, 74, 58
2, 717360, Note_off_c, 1, 74, 0
2, 717360, Note_on_c, 1, 72, 59
2, 717420, Note_off_c, 1, 72, 0
2, 717420, Note_on_c, 1, 74, 59
2, 717480, Note_off_c, 1, 74, 0
2, 717480, Note_on_c, 1, 72, 59
2, 717540, Note_off_c, 1, 72, 0
2, 717540, Note_on_c, 1, 71, 59
2, 717600, Note_off_c, 1, 71, 0
2, 717600, Note_on_c, 1, 72, 59
2, 717725, Note_off_c, 1, 72, 0
2, 717840, Note_on_c, 1, 84, 60
2, 717965, Note_off_c, 1, 84, 0
2, 718080, Note_on_c, 1, 83, 60
2, 718200, Note_off_c, 1, 83, 0
2, 718200, Note_on_c, 1, 81, 61
2, 718320, Note_off_c, 1, 81, 0
2, 718320, Note_on_c, 1, 79, 61
2, 718440, Note_off_c, 1, 79, 0
2, 718440, Note_on_c, 1, 77, 61
2, 718535, Note_off_c, 1, 77, 0
2, 718560, Note_on_c, 1, 77, 62
2, 718640, Note_off_c, 1, 77, 0
2, 718680, Note_on_c, 1, 77, 62
2, 718760, Note_off_c, 1, 77, 0
2, 718800, Note_on_c, 1, 77, 62
2, 718880, Note_off_c, 1, 77, 0
2, 718920, Note_on_c, 1, 77, 62
2, 719000, Note_off_c, 1, 77, 0
2, 719040, Note_on_c, 1, 77, 63
2, 719100, Note_off_c, 1, 77, 0
2, 719100, Note_on_c, 1, 79, 63
2, 719160, Note_off_c, 1, 79, 0
2, 719160, Note_on_c, 1, 77, 63
2, 719220, Note_off_c, 1, 77, 0
2, 719220, Note_on_c, 1, 79, 63
2, 719280, Note_off_c, 1, 79, 0
2, 719280, Note_on_c, 1, 77, 63
2, 719340, Note_off_c, 1, 77, 0
2, 719340, Note_on_c, 1, 79, 64
2, 719400, Note_off_c, 1, 79, 0
2, 719400, Note_on_c, 1, 77, 64
2, 719460, Note_off_c, 1, 77, 0
2, 719460, Note_on_c, 1, 79, 64
2, 719520, Note_off_c, 1, 79, 0
2, 719520, Note_on_c, 1, 77, 64
2, 719615, Note_off_c, 1, 77, 0
2, 719640, Note_on_c, 1, 81, 64
2, 719760, Note_off_c, 1, 81, 0
2, 719760, Note_on_c, 1, 84, 65
2, 719880, Note_off_c, 1, 84, 0
2, 719880, Note_on_c, 1, 81, 65
2, 719975, Note_off_c, 1, 81, 0
2, 720000, Note_on_c, 1, 78, 65
2, 720120, Note_off_c, 1, 78, 0
2, 720120, Note_on_c, 1, 79, 65
2, 720215, Note_off_c, 1, 79, 0
2, 720240, Note_on_c, 1, 88, 64
2, 720545, Note_off_c, 1, 88, 0
2, 720600, Note_on_c, 1, 79, 63
2, 720720, Note_off_c, 1, 79, 0
2, 720720, Note_on_c, 1, 81, 63
2, 720840, Note_off_c, 1, 81, 0
2, 720840, Note_on_c, 1, 76, 62
2, 720935, Note_off_c, 1, 76, 0
2, 720960, Note_on_c, 1, 79, 62
2, 721080, Note_off_c, 1, 79, 0
2, 721080, Note_on_c, 1, 78, 62
2, 721200, Note_off_c, 1, 78, 0
2, 721200, Note_on_c, 1, 86, 61
2, 721505, Note_off_c, 1, 86, 0
2, 721560, Note_on_c, 1, 77, 60
2, 721680, Note_off_c, 1, 77, 0
2, 721680, Note_on_c, 1, 79, 60
2, 721800, Note_off_c, 1, 79, 0
2, 721800, Note_on_c, 1, 74, 59
2, 721895, Note_off_c, 1, 74, 0
2, 721920, Note_on_c, 1, 77, 59
2, 722040, Note_off_c, 1, 77, 0
2, 722040, Note_on_c, 1, 76, 58
2, 722135, Note_off_c, 1, 76, 0
2, 722160, Note_on_c, 1, 79, 58
2, 722220, Note_off_c, 1, 79, 0
2, 722220, Note_on_c, 1, 77, 58
2, 722280, Note_off_c, 1, 77, 0
2, 722280, Note_on_c, 1, 76, 57
2, 722340, Note_off_c, 1, 76, 0
2, 722340, Note_on_c, 1, 74, 57
2, 722400, Note_off_c, 1, 74, 0
2, 722400, Note_on_c, 1, 72, 57
2, 722640, Note_off_c, 1, 72, 0
2, 722640, Note_on_c, 1, 71, 56
2, 722680, Note_off_c, 1, 71, 0
2, 722680, Note_on_c, 1, 72, 56
2, 722720, Note_off_c, 1, 72, 0
2, 722720, Note_on_c, 1, 71, 56
2, 722760, Note_off_c, 1, 71, 0
2, 722760, Note_on_c, 1, 69, 56
2, 722820, Note_off_c, 1, 69, 0
2, 722820, Note_on_c, 1, 71, 56
2, 722880, Note_off_c, 1, 71, 0
2, 722880, Note_on_c, 1, 79, 75
2, 722940, Note_off_c, 1, 79, 0
2, 722960, Note_on_c, 1, 76, 75
2, 723020, Note_off_c, 1, 76, 0
2, 723040, Note_on_c, 1, 79, 75
2, 723100, Note_off_c, 1, 79, 0
2, 723120, Note_on_c, 1, 84, 74
2, 723180, Note_off_c, 1, 84, 0
2, 723200, Note_on_c, 1, 79, 74
2, 723260, Note_off_c, 1, 79, 0
2, 723280, Note_on_c, 1, 84, 74
2, 723340, Note_off_c, 1, 84, 0
2, 723360, Note_on_c, 1, 88, 73
2, 723420, Note_off_c, 1, 88, 0
2, 723440, Note_on_c, 1, 86, 73
2, 723500, Note_off_c, 1, 86, 0
2, 723520, Note_on_c, 1, 84, 72
2, 723580, Note_off_c, 1, 84, 0
2, 723600, Note_on_c, 1, 82, 72
2, 723660, Note_off_c, 1, 82, 0
2, 723680, Note_on_c, 1, 81, 72
2, 723740, Note_off_c, 1, 81, 0
2, 723760, Note_on_c, 1, 79, 71
2, 723815, Note_off_c, 1, 79, 0
2, 723840, Note_on_c, 1, 77, 71
2, 723900, Note_off_c, 1, 77, 0
2, 723920, Note_on_c, 1, 79, 71
2, 723980, Note_off_c, 1, 79, 0
2, 724000, Note_on_c, 1, 77, 70
2, 724060, Note_off_c, 1, 77, 0
2, 724080, Note_on_c, 1, 76, 70
2, 724140, Note_off_c, 1, 76, 0
2, 724160, Note_on_c, 1, 74, 70
2, 724220, Note_off_c, 1, 74, 0
2, 724240, Note_on_c, 1, 72, 69
2, 724300, Note_off_c, 1, 72, 0
2, 724320, Note_on_c, 1, 71, 69
2, 724380, Note_off_c, 1, 71, 0
2, 724400, Note_on_c, 1, 69, 68
2, 724460, Note_off_c, 1, 69, 0
2, 724480, Note_on_c, 1, 67, 68
2, 724540, Note_off_c, 1, 67, 0
2, 724560, Note_on_c, 1, 65, 68
2, 724620, Note_off_c, 1, 65, 0
2, 724640, Note_on_c, 1, 64, 67
2, 724700, Note_off_c, 1, 64, 0
2, 724720, Note_on_c, 1, 62, 67
2, 724780, Note_off_c, 1, 62, 0
2, 724800, Note_on_c, 1, 64, 67
2, 724880, Note_off_c, 1, 64, 0
2, 724880, Note_on_c, 1, 67, 66
2, 724960, Note_off_c, 1, 67, 0
2, 724960, Note_on_c, 1, 72, 66
2, 725020, Note_off_c, 1, 72, 0
2, 725040, Note_on_c, 1, 69, 66
2, 725115, Note_off_c, 1, 69, 0
2, 725120, Note_on_c, 1, 65, 65
2, 725200, Note_off_c, 1, 65, 0
2, 725200, Note_on_c, 1, 62, 65
2, 725265, Note_off_c, 1, 62, 0
2, 725280, Note_on_c, 1, 60, 64
2, 725520, Note_off_c, 1, 60, 0
2, 725520, Note_on_c, 1, 62, 63
2, 725560, Note_off_c, 1, 62, 0
2, 725560, Note_on_c, 1, 64, 63
2, 725600, Note_off_c, 1, 64, 0
2, 725600, Note_on_c, 1, 62, 63
2, 725640, Note_off_c, 1, 62, 0
2, 725640, Note_on_c, 1, 60, 63
2, 725700, Note_off_c, 1, 60, 0
2, 725700, Note_on_c, 1, 62, 63
2, 725760, Note_off_c, 1, 62, 0
2, 725760, Note_on_c, 1, 60, 62
2, 725950, Note_off_c, 1, 60, 0
2, 726000, Note_on_c, 1, 76, 71
2, 726060, Note_off_c, 1, 76, 0
2, 726080, Note_on_c, 1, 74, 70
2, 726140, Note_off_c, 1, 74, 0
2, 726160, Note_on_c, 1, 72, 70
2, 726220, Note_off_c, 1, 72, 0
2, 726240, Note_on_c, 1, 71, 69
2, 726300, Note_off_c, 1, 71, 0
2, 726320, Note_on_c, 1, 74, 69
2, 726380, Note_off_c, 1, 74, 0
2, 726400, Note_on_c, 1, 72, 68
2, 726460, Note_off_c, 1, 72, 0
2, 726480, Note_on_c, 1, 76, 68
2, 726540, Note_off_c, 1, 76, 0
2, 726560, Note_on_c, 1, 68, 67
2, 726620, Note_off_c, 1, 68, 0
2, 726640, Note_on_c, 1, 71, 67
2, 726700, Note_off_c, 1, 71, 0
2, 726720, Note_on_c, 1, 69, 66
2, 726780, Note_off_c, 1, 69, 0
2, 726800, Note_on_c, 1, 72, 66
2, 726860, Note_off_c, 1, 72, 0
2, 726880, Note_on_c, 1, 71, 65
2, 726940, Note_off_c, 1, 71, 0
2, 726960, Note_on_c, 1, 69, 65
2, 727020, Note_off_c, 1, 69, 0
2, 727040, Note_on_c, 1, 67, 64
2, 727100, Note_off_c, 1, 67, 0
2, 727120, Note_on_c, 1, 65, 64
2, 727180, Note_off_c, 1, 65, 0
2, 727200, Note_on_c, 1, 64, 63
2, 727260, Note_off_c, 1, 64, 0
2, 727280, Note_on_c, 1, 67, 63
2, 727340, Note_off_c, 1, 67, 0
2, 727360, Note_on_c, 1, 65, 62
2, 727420, Note_off_c, 1, 65, 0
2, 727440, Note_on_c, 1, 69, 62
2, 727500, Note_off_c, 1, 69, 0
2, 727520, Note_on_c, 1, 61, 61
2, 727580, Note_off_c, 1, 61, 0
2, 727600, Note_on_c, 1, 64, 61
2, 727655, Note_off_c, 1, 64, 0
2, 727680, Note_on_c, 1, 62, 60
2, 727740, Note_off_c, 1, 62, 0
2, 727760, Note_on_c, 1, 65, 60
2, 727820, Note_off_c, 1, 65, 0
2, 727840, Note_on_c, 1, 64, 59
2, 727900, Note_off_c, 1, 64, 0
2, 727920, Note_on_c, 1, 62, 59
2, 727980, Note_off_c, 1, 62, 0
2, 728000, Note_on_c, 1, 60, 58
2, 728060, Note_off_c, 1, 60, 0
2, 728080, Note_on_c, 1, 59, 58
2, 728140, Note_off_c, 1, 59, 0
2, 728160, Note_on_c, 1, 57, 57
2, 728220, Note_off_c, 1, 57, 0
2, 728240, Note_on_c, 1, 60, 57
2, 728300, Note_off_c, 1, 60, 0
2, 728320, Note_on_c, 1, 59, 56
2, 728380, Note_off_c, 1, 59, 0
2, 728400, Note_on_c, 1, 62, 56
2, 728460, Note_off_c, 1, 62, 0
2, 728480, Note_on_c, 1, 54, 55
2, 728540, Note_off_c, 1, 54, 0
2, 728560, Note_on_c, 1, 57, 55
2, 728620, Note_off_c, 1, 57, 0
2, 728640, Note_on_c, 1, 55, 54
2, 728830, Note_off_c, 1, 55, 0
2, 729120, Note_on_c, 1, 55, 38
2, 729200, Note_off_c, 1, 55, 0
2, 729240, Note_on_c, 1, 57, 40
2, 729320, Note_off_c, 1, 57, 0
2, 729360, Note_on_c, 1, 59, 41
2, 729440, Note_off_c, 1, 59, 0
2, 729480, Note_on_c, 1, 60, 43
2, 729560, Note_off_c, 1, 60, 0
2, 729600, Note_on_c, 1, 62, 45
2, 729790, Note_off_c, 1, 62, 0
2, 730080, Note_on_c, 1, 67, 51
2, 730160, Note_off_c, 1, 67, 0
2, 730200, Note_on_c, 1, 69, 53
2, 730280, Note_off_c, 1, 69, 0
2, 730320, Note_on_c, 1, 71, 54
2, 730400, Note_off_c, 1, 71, 0
2, 730440, Note_on_c, 1, 72, 56
2, 730520, Note_off_c, 1, 72, 0
2, 730560, Note_on_c, 1, 74, 58
2, 730750, Note_off_c, 1, 74, 0
2, 731040, Note_on_c, 1, 71, 64
2, 731120, Note_off_c, 1, 71, 0
2, 731160, Note_on_c, 1, 72, 66
2, 731240, Note_off_c, 1, 72, 0
2, 731280, Note_on_c, 1, 74, 67
2, 731360, Note_off_c, 1, 74, 0
2, 731400, Note_on_c, 1, 76, 69
2, 731480, Note_off_c, 1, 76, 0
2, 731520, Note_on_c, 1, 77, 71
2, 731710, Note_off_c, 1, 77, 0
2, 732000, Note_on_c, 1, 72, 44
2, 732080, Note_off_c, 1, 72, 0
2, 732120, Note_on_c, 1, 74, 45
2, 732200, Note_off_c, 1, 74, 0
2, 732240, Note_on_c, 1, 76, 45
2, 732320, Note_off_c, 1, 76, 0
2, 732360, Note_on_c, 1, 77, 46
2, 732440, Note_off_c, 1, 77, 0
2, 732480, Note_on_c, 1, 79, 47
2, 732635, Note_off_c, 1, 79, 0
2, 732720, Note_on_c, 1, 81, 48
2, 732875, Note_off_c, 1, 81, 0
2, 732960, Note_on_c, 1, 79, 49
2, 733115, Note_off_c, 1, 79, 0
2, 733200, Note_on_c, 1, 78, 50
2, 733355, Note_off_c, 1, 78, 0
2, 733440, Note_on_c, 1, 77, 52
2, 733630, Note_off_c, 1, 77, 0
2, 733920, Note_on_c, 1, 76, 54
2, 734110, Note_off_c, 1, 76, 0
2, 734640, Note_on_c, 1, 74, 56
2, 734880, Note_off_c, 1, 74, 0
2, 734880, Note_on_c, 1, 77, 52
2, 735120, Note_off_c, 1, 77, 0
2, 735120, Note_on_c, 1, 71, 49
2, 735310, Note_off_c, 1, 71, 0
2, 735360, Note_on_c, 1, 72, 45
2, 735550, Note_off_c, 1, 72, 0
2, 737520, Note_on_c, 1, 83, 78
2, 737710, Note_off_c, 1, 83, 0
2, 738000, Note_on_c, 1, 82, 80
2, 738190, Note_off_c, 1, 82, 0
2, 738320, Note_on_c, 1, 81, 80
2, 738400, Note_off_c, 1, 81, 0
2, 738400, Note_on_c, 1, 80, 79
2, 738480, Note_off_c, 1, 80, 0
2, 738480, Note_on_c, 1, 81, 78
2, 738560, Note_off_c, 1, 81, 0
2, 738560, Note_on_c, 1, 77, 77
2, 738640, Note_off_c, 1, 77, 0
2, 738640, Note_on_c, 1, 74, 76
2, 738710, Note_off_c, 1, 74, 0
2, 738720, Note_on_c, 1, 72, 75
2, 738960, Note_off_c, 1, 72, 0
2, 738960, Note_on_c, 1, 74, 72
2, 739000, Note_off_c, 1, 74, 0
2, 739000, Note_on_c, 1, 76, 72
2, 739040, Note_off_c, 1, 76, 0
2, 739040, Note_on_c, 1, 74, 71
2, 739080, Note_off_c, 1, 74, 0
2, 739080, Note_on_c, 1, 72, 71
2, 739140, Note_off_c, 1, 72, 0
2, 739140, Note_on_c, 1, 74, 72
2, 739200, Note_off_c, 1, 74, 0
2, 739200, Note_on_c, 1, 67, 72
2, 739296, Note_off_c, 1, 67, 0
2, 739320, Note_on_c, 1, 67, 72
2, 739416, Note_off_c, 1, 67, 0
2, 739440, Note_on_c, 1, 67, 72
2, 739536, Note_off_c, 1, 67, 0
2, 739560, Note_on_c, 1, 67, 72
2, 739656, Note_off_c, 1, 67, 0
2, 739680, Note_on_c, 1, 67, 73
2, 739776, Note_off_c, 1, 67, 0
2, 739800, Note_on_c, 1, 67, 73
2, 739896, Note_off_c, 1, 67, 0
2, 739920, Note_on_c, 1, 67, 73
2, 740016, Note_off_c, 1, 67, 0
2, 740040, Note_on_c, 1, 67, 73
2, 740136, Note_off_c, 1, 67, 0
2, 740160, Note_on_c, 1, 67, 74
2, 740256, Note_off_c, 1, 67, 0
2, 740280, Note_on_c, 1, 67, 74
2, 740376, Note_off_c, 1, 67, 0
2, 740400, Note_on_c, 1, 67, 74
2, 740496, Note_off_c, 1, 67, 0
2, 740520, Note_on_c, 1, 67, 74
2, 740616, Note_off_c, 1, 67, 0
2, 740640, Note_on_c, 1, 67, 75
2, 740736, Note_off_c, 1, 67, 0
2, 740760, Note_on_c, 1, 67, 75
2, 740856, Note_off_c, 1, 67, 0
2, 740880, Note_on_c, 1, 67, 75
2, 740976, Note_off_c, 1, 67, 0
2, 741000, Note_on_c, 1, 67, 75
2, 741096, Note_off_c, 1, 67, 0
2, 741120, Note_on_c, 1, 67, 76
2, 741216, Note_off_c, 1, 67, 0
2, 741240, Note_on_c, 1, 67, 76
2, 741336, Note_off_c, 1, 67, 0
2, 741360, Note_on_c, 1, 67, 76
2, 741456, Note_off_c, 1, 67, 0
2, 741480, Note_on_c, 1, 67, 76
2, 741576, Note_off_c, 1, 67, 0
2, 741600, Note_on_c, 1, 67, 77
2, 741696, Note_off_c, 1, 67, 0
2, 741720, Note_on_c, 1, 67, 77
2, 741816, Note_off_c, 1, 67, 0
2, 741840, Note_on_c, 1, 67, 77
2, 741936, Note_off_c, 1, 67, 0
2, 741960, Note_on_c, 1, 67, 77
2, 742056, Note_off_c, 1, 67, 0
2, 742080, Note_on_c, 1, 67, 78
2, 742176, Note_off_c, 1, 67, 0
2, 742200, Note_on_c, 1, 67, 78
2, 742296, Note_off_c, 1, 67, 0
2, 742320, Note_on_c, 1, 67, 78
2, 742416, Note_off_c, 1, 67, 0
2, 742440, Note_on_c, 1, 67, 78
2, 742536, Note_off_c, 1, 67, 0
2, 742560, Note_on_c, 1, 67, 79
2, 742656, Note_off_c, 1, 67, 0
2, 742680, Note_on_c, 1, 67, 79
2, 742776, Note_off_c, 1, 67, 0
2, 742800, Note_on_c, 1, 67, 79
2, 742896, Note_off_c, 1, 67, 0
2, 742920, Note_on_c, 1, 67, 79
2, 743016, Note_off_c, 1, 67, 0
2, 743040, Note_on_c, 1, 67, 80
2, 743136, Note_off_c, 1, 67, 0
2, 743160, Note_on_c, 1, 67, 80
2, 743256, Note_off_c, 1, 67, 0
2, 743280, Note_on_c, 1, 70, 95
2, 743376, Note_off_c, 1, 70, 0
2, 743400, Note_on_c, 1, 70, 85
2, 743496, Note_off_c, 1, 70, 0
2, 743520, Note_on_c, 1, 70, 81
2, 743616, Note_off_c, 1, 70, 0
2, 743640, Note_on_c, 1, 70, 81
2, 743736, Note_off_c, 1, 70, 0
2, 743760, Note_on_c, 1, 70, 81
2, 743856, Note_off_c, 1, 70, 0
2, 743880, Note_on_c, 1, 70, 81
2, 743976, Note_off_c, 1, 70, 0
2, 744000, Note_on_c, 1, 69, 82
2, 744096, Note_off_c, 1, 69, 0
2, 744120, Note_on_c, 1, 69, 82
2, 744216, Note_off_c, 1, 69, 0
2, 744240, Note_on_c, 1, 71, 82
2, 744345, Note_off_c, 1, 71, 0
2, 744360, Note_on_c, 1, 71, 82
2, 744456, Note_off_c, 1, 71, 0
2, 744480, Note_on_c, 1, 71, 83
2, 744576, Note_off_c, 1, 71, 0
2, 744600, Note_on_c, 1, 71, 83
2, 744696, Note_off_c, 1, 71, 0
2, 744720, Note_on_c, 1, 71, 83
2, 744816, Note_off_c, 1, 71, 0
2, 744840, Note_on_c, 1, 71, 83
2, 744936, Note_off_c, 1, 71, 0
2, 744960, Note_on_c, 1, 72, 84
2, 745056, Note_off_c, 1, 72, 0
2, 745080, Note_on_c, 1, 72, 84
2, 745176, Note_off_c, 1, 72, 0
2, 745200, Note_on_c, 1, 63, 96
2, 745305, Note_off_c, 1, 63, 0
2, 745320, Note_on_c, 1, 63, 90
2, 745425, Note_off_c, 1, 63, 0
2, 745440, Note_on_c, 1, 63, 85
2, 745545, Note_off_c, 1, 63, 0
2, 745560, Note_on_c, 1, 63, 85
2, 745665, Note_off_c, 1, 63, 0
2, 745680, Note_on_c, 1, 63, 85
2, 745785, Note_off_c, 1, 63, 0
2, 745800, Note_on_c, 1, 63, 85
2, 745905, Note_off_c, 1, 63, 0
2, 746000, Note_on_c, 1, 76, 56
2, 746080, Note_off_c, 1, 76, 0
2, 746080, Note_on_c, 1, 75, 56
2, 746160, Note_off_c, 1, 75, 0
2, 746160, Note_on_c, 1, 76, 57
2, 746240, Note_off_c, 1, 76, 0
2, 746240, Note_on_c, 1, 72, 57
2, 746320, Note_off_c, 1, 72, 0
2, 746320, Note_on_c, 1, 67, 58
2, 746385, Note_off_c, 1, 67, 0
2, 746480, Note_on_c, 1, 79, 58
2, 746560, Note_off_c, 1, 79, 0
2, 746560, Note_on_c, 1, 78, 59
2, 746640, Note_off_c, 1, 78, 0
2, 746640, Note_on_c, 1, 79, 59
2, 746720, Note_off_c, 1, 79, 0
2, 746720, Note_on_c, 1, 76, 60
2, 746800, Note_off_c, 1, 76, 0
2, 746800, Note_on_c, 1, 72, 60
2, 746865, Note_off_c, 1, 72, 0
2, 746960, Note_on_c, 1, 84, 61
2, 747040, Note_off_c, 1, 84, 0
2, 747040, Note_on_c, 1, 83, 61
2, 747120, Note_off_c, 1, 83, 0
2, 747120, Note_on_c, 1, 84, 62
2, 747200, Note_off_c, 1, 84, 0
2, 747200, Note_on_c, 1, 79, 62
2, 747280, Note_off_c, 1, 79, 0
2, 747280, Note_on_c, 1, 76, 63
2, 747345, Note_off_c, 1, 76, 0
2, 747440, Note_on_c, 1, 88, 63
2, 747520, Note_off_c, 1, 88, 0
2, 747520, Note_on_c, 1, 87, 64
2, 747600, Note_off_c, 1, 87, 0
2, 747600, Note_on_c, 1, 88, 64
2, 747680, Note_off_c, 1, 88, 0
2, 747680, Note_on_c, 1, 84, 65
2, 747760, Note_off_c, 1, 84, 0
2, 747760, Note_on_c, 1, 79, 65
2, 747825, Note_off_c, 1, 79, 0
2, 747840, Note_on_c, 1, 87, 65
2, 748200, Note_off_c, 1, 87, 0
2, 748320, Note_on_c, 1, 87, 68
2, 748680, Note_off_c, 1, 87, 0
2, 748800, Note_on_c, 1, 87, 70
2, 749160, Note_off_c, 1, 87, 0
2, 749280, Note_on_c, 1, 87, 73
2, 749640, Note_off_c, 1, 87, 0
2, 749760, Note_on_c, 1, 88, 75
2, 749820, Note_off_c, 1, 88, 0
2, 749820, Note_on_c, 1, 86, 76
2, 749880, Note_off_c, 1, 86, 0
2, 749880, Note_on_c, 1, 84, 76
2, 749940, Note_off_c, 1, 84, 0
2, 749940, Note_on_c, 1, 83, 76
2, 750000, Note_off_c, 1, 83, 0
2, 750000, Note_on_c, 1, 84, 77
2, 750060, Note_off_c, 1, 84, 0
2, 750060, Note_on_c, 1, 83, 77
2, 750120, Note_off_c, 1, 83, 0
2, 750120, Note_on_c, 1, 81, 77
2, 750180, Note_off_c, 1, 81, 0
2, 750180, Note_on_c, 1, 79, 77
2, 750240, Note_off_c, 1, 79, 0
2, 750240, Note_on_c, 1, 81, 78
2, 750300, Note_off_c, 1, 81, 0
2, 750300, Note_on_c, 1, 79, 78
2, 750360, Note_off_c, 1, 79, 0
2, 750360, Note_on_c, 1, 77, 78
2, 750420, Note_off_c, 1, 77, 0
2, 750420, Note_on_c, 1, 76, 79
2, 750480, Note_off_c, 1, 76, 0
2, 750480, Note_on_c, 1, 77, 79
2, 750540, Note_off_c, 1, 77, 0
2, 750540, Note_on_c, 1, 76, 79
2, 750600, Note_off_c, 1, 76, 0
2, 750600, Note_on_c, 1, 74, 80
2, 750660, Note_off_c, 1, 74, 0
2, 750660, Note_on_c, 1, 72, 80
2, 750720, Note_off_c, 1, 72, 0
2, 750720, Note_on_c, 1, 74, 80
2, 750780, Note_on_c, 1, 76, 81
2, 750785, Note_off_c, 1, 74, 0
2, 750840, Note_off_c, 1, 76, 0
2, 750840, Note_on_c, 1, 74, 81
2, 750900, Note_off_c, 1, 74, 0
2, 750900, Note_on_c, 1, 76, 81
2, 750960, Note_off_c, 1, 76, 0
2, 750960, Note_on_c, 1, 74, 81
2, 751020, Note_off_c, 1, 74, 0
2, 751020, Note_on_c, 1, 76, 82
2, 751080, Note_off_c, 1, 76, 0
2, 751080, Note_on_c, 1, 74, 82
2, 751140, Note_off_c, 1, 74, 0
2, 751140, Note_on_c, 1, 76, 82
2, 751200, Note_off_c, 1, 76, 0
2, 751200, Note_on_c, 1, 74, 83
2, 751260, Note_off_c, 1, 74, 0
2, 751260, Note_on_c, 1, 76, 83
2, 751320, Note_off_c, 1, 76, 0
2, 751320, Note_on_c, 1, 74, 83
2, 751380, Note_off_c, 1, 74, 0
2, 751380, Note_on_c, 1, 76, 84
2, 751440, Note_off_c, 1, 76, 0
2, 751440, Note_on_c, 1, 74, 84
2, 751480, Note_off_c, 1, 74, 0
2, 751480, Note_on_c, 1, 76, 84
2, 751520, Note_off_c, 1, 76, 0
2, 751520, Note_on_c, 1, 74, 84
2, 751560, Note_off_c, 1, 74, 0
2, 751560, Note_on_c, 1, 72, 85
2, 751620, Note_off_c, 1, 72, 0
2, 751620, Note_on_c, 1, 74, 85
2, 751680, Note_off_c, 1, 74, 0
2, 751680, Note_on_c, 1, 72, 85
2, 751920, Note_off_c, 1, 72, 0
2, 752160, Note_on_c, 1, 60, 73
2, 752255, Note_off_c, 1, 60, 0
2, 752280, Note_on_c, 1, 64, 73
2, 752375, Note_off_c, 1, 64, 0
2, 752400, Note_on_c, 1, 67, 73
2, 752495, Note_off_c, 1, 67, 0
2, 752520, Note_on_c, 1, 72, 74
2, 752615, Note_off_c, 1, 72, 0
2, 752640, Note_on_c, 1, 72, 74
2, 753120, Note_off_c, 1, 72, 0
2, 753120, Note_on_c, 1, 76, 76
2, 753240, Note_off_c, 1, 76, 0
2, 753240, Note_on_c, 1, 74, 76
2, 753360, Note_off_c, 1, 74, 0
2, 753360, Note_on_c, 1, 72, 76
2, 753480, Note_off_c, 1, 72, 0
2, 753480, Note_on_c, 1, 74, 77
2, 753600, Note_off_c, 1, 74, 0
2, 753600, Note_on_c, 1, 72, 77
2, 753790, Note_off_c, 1, 72, 0
2, 754080, Note_on_c, 1, 64, 78
2, 754175, Note_off_c, 1, 64, 0
2, 754200, Note_on_c, 1, 67, 79
2, 754295, Note_off_c, 1, 67, 0
2, 754320, Note_on_c, 1, 72, 79
2, 754415, Note_off_c, 1, 72, 0
2, 754440, Note_on_c, 1, 76, 80
2, 754535, Note_off_c, 1, 76, 0
2, 754560, Note_on_c, 1, 76, 80
2, 755040, Note_off_c, 1, 76, 0
2, 755040, Note_on_c, 1, 79, 81
2, 755160, Note_off_c, 1, 79, 0
2, 755160, Note_on_c, 1, 77, 82
2, 755280, Note_off_c, 1, 77, 0
2, 755280, Note_on_c, 1, 76, 82
2, 755400, Note_off_c, 1, 76, 0
2, 755400, Note_on_c, 1, 77, 83
2, 755520, Note_off_c, 1, 77, 0
2, 755520, Note_on_c, 1, 76, 83
2, 755710, Note_off_c, 1, 76, 0
2, 756000, Note_on_c, 1, 67, 84
2, 756095, Note_off_c, 1, 67, 0
2, 756120, Note_on_c, 1, 72, 85
2, 756215, Note_off_c, 1, 72, 0
2, 756240, Note_on_c, 1, 76, 85
2, 756335, Note_off_c, 1, 76, 0
2, 756360, Note_on_c, 1, 79, 85
2, 756455, Note_off_c, 1, 79, 0
2, 756480, Note_on_c, 1, 79, 86
2, 756960, Note_off_c, 1, 79, 0
2, 756960, Note_on_c, 1, 83, 87
2, 757020, Note_off_c, 1, 83, 0
2, 757020, Note_on_c, 1, 84, 87
2, 757080, Note_off_c, 1, 84, 0
2, 757080, Note_on_c, 1, 83, 88
2, 757140, Note_off_c, 1, 83, 0
2, 757140, Note_on_c, 1, 84, 88
2, 757200, Note_off_c, 1, 84, 0
2, 757200, Note_on_c, 1, 83, 88
2, 757240, Note_off_c, 1, 83, 0
2, 757240, Note_on_c, 1, 84, 88
2, 757280, Note_off_c, 1, 84, 0
2, 757280, Note_on_c, 1, 83, 88
2, 757320, Note_off_c, 1, 83, 0
2, 757320, Note_on_c, 1, 81, 88
2, 757380, Note_off_c, 1, 81, 0
2, 757380, Note_on_c, 1, 83, 89
2, 757440, Note_off_c, 1, 83, 0
2, 757440, Note_on_c, 1, 84, 89
2, 757630, Note_off_c, 1, 84, 0
2, 757680, Note_on_c, 1, 79, 90
2, 757740, Note_off_c, 1, 79, 0
2, 757760, Note_on_c, 1, 76, 90
2, 757820, Note_off_c, 1, 76, 0
2, 757840, Note_on_c, 1, 72, 90
2, 757900, Note_off_c, 1, 72, 0
2, 757920, Note_on_c, 1, 76, 90
2, 757980, Note_off_c, 1, 76, 0
2, 758000, Note_on_c, 1, 72, 90
2, 758060, Note_off_c, 1, 72, 0
2, 758080, Note_on_c, 1, 67, 91
2, 758140, Note_off_c, 1, 67, 0
2, 758160, Note_on_c, 1, 83, 91
2, 758220, Note_off_c, 1, 83, 0
2, 758240, Note_on_c, 1, 79, 91
2, 758300, Note_off_c, 1, 79, 0
2, 758320, Note_on_c, 1, 74, 91
2, 758380, Note_off_c, 1, 74, 0
2, 758400, Note_on_c, 1, 84, 92
2, 758460, Note_off_c, 1, 84, 0
2, 758480, Note_on_c, 1, 79, 92
2, 758540, Note_off_c, 1, 79, 0
2, 758560, Note_on_c, 1, 76, 92
2, 758620, Note_off_c, 1, 76, 0
2, 758640, Note_on_c, 1, 79, 92
2, 758700, Note_off_c, 1, 79, 0
2, 758720, Note_on_c, 1, 76, 93
2, 758780, Note_off_c, 1, 76, 0
2, 758800, Note_on_c, 1, 72, 93
2, 758860, Note_off_c, 1, 72, 0
2, 758880, Note_on_c, 1, 76, 93
2, 758940, Note_off_c, 1, 76, 0
2, 758960, Note_on_c, 1, 72, 93
2, 759020, Note_off_c, 1, 72, 0
2, 759040, Note_on_c, 1, 67, 94
2, 759100, Note_off_c, 1, 67, 0
2, 759120, Note_on_c, 1, 83, 94
2, 759180, Note_off_c, 1, 83, 0
2, 759200, Note_on_c, 1, 79, 94
2, 759260, Note_off_c, 1, 79, 0
2, 759280, Note_on_c, 1, 74, 94
2, 759345, Note_off_c, 1, 74, 0
2, 759360, Note_on_c, 1, 84, 95
2, 759550, Note_off_c, 1, 84, 0
2, 760080, Note_on_c, 1, 83, 97
2, 760270, Note_off_c, 1, 83, 0
2, 760320, Note_on_c, 1, 84, 98
2, 760510, Note_off_c, 1, 84, 0
2, 761040, Note_on_c, 1, 83, 100
2, 761230, Note_off_c, 1, 83, 0
2, 761280, Note_on_c, 1, 84, 101
2, 761760, Note_off_c, 1, 84, 0
2, 762000, Note_on_c, 1, 67, 40
2, 762120, Note_off_c, 1, 67, 0
2, 762240, Note_on_c, 1, 65, 40
2, 762360, Note_off_c, 1, 65, 0
2, 762360, Note_on_c, 1, 64, 40
2, 762480, Note_off_c, 1, 64, 0
2, 762480, Note_on_c, 1, 62, 40
2, 762600, Note_off_c, 1, 62, 0
2, 762600, Note_on_c, 1, 60, 40
2, 762695, Note_off_c, 1, 60, 0
2, 762720, Note_on_c, 1, 60, 41
2, 762840, Note_off_c, 1, 60, 0
2, 762960, Note_on_c, 1, 60, 41
2, 763080, Note_off_c, 1, 60, 0
2, 763200, Note_on_c, 1, 60, 41
2, 763795, Note_off_c, 1, 60, 0
2, 763920, Note_on_c, 1, 72, 42
2, 764045, Note_off_c, 1, 72, 0
2, 764160, Note_on_c, 1, 70, 43
2, 764280, Note_off_c, 1, 70, 0
2, 764280, Note_on_c, 1, 69, 43
2, 764400, Note_off_c, 1, 69, 0
2, 764400, Note_on_c, 1, 67, 43
2, 764520, Note_off_c, 1, 67, 0
2, 764520, Note_on_c, 1, 65, 43
2, 764615, Note_off_c, 1, 65, 0
2, 764640, Note_on_c, 1, 65, 43
2, 764795, Note_off_c, 1, 65, 0
2, 764880, Note_on_c, 1, 65, 44
2, 765035, Note_off_c, 1, 65, 0
2, 765120, Note_on_c, 1, 65, 44
2, 765725, Note_off_c, 1, 65, 0
2, 765840, Note_on_c, 1, 69, 45
2, 765960, Note_off_c, 1, 69, 0
2, 766080, Note_on_c, 1, 67, 45
2, 766200, Note_off_c, 1, 67, 0
2, 766200, Note_on_c, 1, 65, 44
2, 766320, Note_off_c, 1, 65, 0
2, 766320, Note_on_c, 1, 64, 43
2, 766440, Note_off_c, 1, 64, 0
2, 766440, Note_on_c, 1, 62, 43
2, 766535, Note_off_c, 1, 62, 0
2, 766560, Note_on_c, 1, 62, 42
2, 766675, Note_off_c, 1, 62, 0
2, 766800, Note_on_c, 1, 62, 40
2, 766925, Note_off_c, 1, 62, 0
2, 767040, Note_on_c, 1, 67, 39
2, 767400, Note_off_c, 1, 67, 0
2, 767400, Note_on_c, 1, 69, 36
2, 767495, Note_off_c, 1, 69, 0
2, 767520, Note_on_c, 1, 67, 36
2, 767640, Note_off_c, 1, 67, 0
2, 767640, Note_on_c, 1, 65, 35
2, 767760, Note_off_c, 1, 65, 0
2, 767760, Note_on_c, 1, 64, 34
2, 767880, Note_off_c, 1, 64, 0
2, 767880, Note_on_c, 1, 62, 33
2, 767975, Note_off_c, 1, 62, 0
2, 768000, Note_on_c, 1, 62, 33
2, 768060, Note_off_c, 1, 62, 0
2, 768060, Note_on_c, 1, 60, 32
2, 768210, Note_off_c, 1, 60, 0
2, 768240, Note_on_c, 1, 60, 31
2, 768430, Note_off_c, 1, 60, 0
2, 768480, Note_on_c, 1, 60, 28
2, 768670, Note_off_c, 1, 60, 0
2, 768720, Note_on_c, 1, 60, 25
2, 768910, Note_off_c, 1, 60, 0
2, 768960, Note_on_c, 1, 60, 23
2, 769440, Note_off_c, 1, 60, 0
2, 769440, End_track
3, 0, Start_track
3, 0, Title_t, "Unnamed Track"
3, 0, Control_c, 2, 0, 0
3, 0, Control_c, 2, 32, 0
3, 0, Program_c, 2, 0
3, 0, Control_c, 2, 10, 73
3, 0, Control_c, 2, 91, 100
3, 0, Control_c, 2, 93, 28
3, 0, Pitch_bend_c, 2, 8192
3, 0, Control_c, 2, 93, 18
3, 0, Pitch_bend_c, 2, 8192
3, 0, Control_c, 2, 1, 0
3, 0, Control_c, 2, 1, 0
3, 0, Pitch_bend_c, 2, 8192
3, 0, Control_c, 2, 7, 122
3, 0, Control_c, 2, 64, 0
3, 1920, Control_c, 2, 64, 127
3, 1920, Note_on_c, 2, 60, 71
3, 1960, Note_on_c, 2, 64, 71
3, 2000, Note_on_c, 2, 67, 71
3, 2080, Note_off_c, 2, 60, 0
3, 2120, Note_off_c, 2, 64, 0
3, 2160, Note_off_c, 2, 67, 0
3, 2820, Control_c, 2, 64, 0
3, 15360, Control_c, 2, 64, 127
3, 15360, Note_on_c, 2, 60, 68
3, 15400, Note_on_c, 2, 64, 68
3, 15440, Note_on_c, 2, 67, 68
3, 15520, Note_off_c, 2, 60, 0
3, 15560, Note_off_c, 2, 64, 0
3, 15600, Note_off_c, 2, 67, 0
3, 16260, Control_c, 2, 64, 0
3, 28800, Note_on_c, 2, 72, 79
3, 28990, Note_off_c, 2, 72, 0
3, 29040, Note_on_c, 2, 72, 77
3, 29230, Note_off_c, 2, 72, 0
3, 29280, Note_on_c, 2, 72, 76
3, 30050, Note_off_c, 2, 72, 0
3, 30720, Note_on_c, 2, 72, 75
3, 30910, Note_off_c, 2, 72, 0
3, 30960, Note_on_c, 2, 72, 73
3, 31150, Note_off_c, 2, 72, 0
3, 31200, Note_on_c, 2, 72, 72
3, 31970, Note_off_c, 2, 72, 0
3, 34560, Note_on_c, 2, 72, 73
3, 34750, Note_off_c, 2, 72, 0
3, 34800, Note_on_c, 2, 72, 72
3, 34990, Note_off_c, 2, 72, 0
3, 35040, Note_on_c, 2, 72, 71
3, 35715, Note_off_c, 2, 72, 0
3, 36480, Note_on_c, 2, 72, 71
3, 36670, Note_off_c, 2, 72, 0
3, 36720, Note_on_c, 2, 72, 70
3, 36910, Note_off_c, 2, 72, 0
3, 36960, Note_on_c, 2, 72, 68
3, 37625, Note_off_c, 2, 72, 0
3, 44160, Note_on_c, 2, 74, 63
3, 44200, Note_on_c, 2, 79, 64
3, 44615, Note_off_c, 2, 79, 0
3, 44630, Note_off_c, 2, 74, 0
3, 48000, Note_on_c, 2, 72, 76
3, 48040, Note_on_c, 2, 78, 76
3, 48080, Note_on_c, 2, 81, 76
3, 48470, Note_off_c, 2, 78, 0
3, 48480, Note_off_c, 2, 81, 0
3, 48480, Note_off_c, 2, 72, 0
3, 52800, Note_on_c, 2, 74, 72
3, 52840, Note_on_c, 2, 78, 74
3, 52880, Note_on_c, 2, 81, 76
3, 53000, Note_off_c, 2, 81, 0
3, 53025, Note_off_c, 2, 78, 0
3, 53045, Note_off_c, 2, 74, 0
3, 54720, Note_on_c, 2, 74, 77
3, 54760, Note_on_c, 2, 78, 78
3, 54800, Note_on_c, 2, 81, 79
3, 54920, Note_off_c, 2, 81, 0
3, 54940, Note_off_c, 2, 78, 0
3, 54960, Note_off_c, 2, 74, 0
3, 82560, Note_on_c, 2, 74, 71
3, 83520, Note_off_c, 2, 74, 0
3, 84480, Note_on_c, 2, 76, 73
3, 85440, Note_off_c, 2, 76, 0
3, 88320, Note_on_c, 2, 74, 79
3, 89280, Note_off_c, 2, 74, 0
3, 90240, Note_on_c, 2, 76, 79
3, 91200, Note_off_c, 2, 76, 0
3, 96000, Note_on_c, 2, 77, 84
3, 96770, Note_off_c, 2, 77, 0
3, 96960, Note_on_c, 2, 77, 88
3, 97345, Note_off_c, 2, 77, 0
3, 97440, Note_on_c, 2, 77, 89
3, 97825, Note_off_c, 2, 77, 0
3, 111840, Note_on_c, 2, 74, 85
3, 111880, Note_on_c, 2, 79, 85
3, 112260, Note_off_c, 2, 79, 0
3, 112265, Note_off_c, 2, 74, 0
3, 112320, Note_on_c, 2, 71, 87
3, 112360, Note_on_c, 2, 74, 87
3, 112745, Note_off_c, 2, 74, 0
3, 112745, Note_off_c, 2, 71, 0
3, 113280, Control_c, 2, 64, 127
3, 113280, Note_on_c, 2, 55, 67
3, 113320, Note_on_c, 2, 58, 67
3, 113360, Note_on_c, 2, 62, 68
3, 113440, Note_off_c, 2, 55, 0
3, 113480, Note_off_c, 2, 58, 0
3, 113520, Note_off_c, 2, 62, 0
3, 114180, Control_c, 2, 64, 0
3, 128640, Control_c, 2, 64, 127
3, 128640, Note_on_c, 2, 50, 58
3, 128680, Note_on_c, 2, 53, 58
3, 128720, Note_on_c, 2, 57, 58
3, 128760, Note_off_c, 2, 50, 0
3, 128840, Note_off_c, 2, 53, 0
3, 128880, Note_off_c, 2, 57, 0
3, 129540, Control_c, 2, 64, 0
3, 140160, Note_on_c, 2, 72, 74
3, 140930, Note_off_c, 2, 72, 0
3, 141120, Note_on_c, 2, 69, 80
3, 141890, Note_off_c, 2, 69, 0
3, 144000, Note_on_c, 2, 70, 74
3, 144770, Note_off_c, 2, 70, 0
3, 144960, Note_on_c, 2, 67, 81
3, 145730, Note_off_c, 2, 67, 0
3, 156960, Note_on_c, 2, 71, 63
3, 157000, Note_on_c, 2, 74, 63
3, 157040, Note_on_c, 2, 76, 62
3, 157380, Note_off_c, 2, 76, 0
3, 157380, Note_off_c, 2, 71, 0
3, 157385, Note_off_c, 2, 74, 0
3, 157440, Note_on_c, 2, 72, 61
3, 157500, Note_on_c, 2, 76, 60
3, 157860, Note_off_c, 2, 72, 0
3, 157865, Note_off_c, 2, 76, 0
3, 165120, Control_c, 2, 64, 127
3, 165120, Note_on_c, 2, 57, 71
3, 165160, Note_on_c, 2, 60, 71
3, 165200, Note_on_c, 2, 64, 71
3, 165280, Note_off_c, 2, 57, 0
3, 165320, Note_off_c, 2, 60, 0
3, 165360, Note_off_c, 2, 64, 0
3, 166020, Control_c, 2, 64, 0
3, 172800, Control_c, 2, 64, 127
3, 172800, Note_on_c, 2, 59, 73
3, 172840, Note_on_c, 2, 62, 73
3, 172880, Note_on_c, 2, 67, 73
3, 172960, Note_off_c, 2, 59, 0
3, 173000, Note_off_c, 2, 62, 0
3, 173040, Note_off_c, 2, 67, 0
3, 173700, Control_c, 2, 64, 0
3, 180480, Control_c, 2, 64, 127
3, 180480, Note_on_c, 2, 60, 71
3, 180520, Note_on_c, 2, 64, 71
3, 180560, Note_on_c, 2, 67, 71
3, 180640, Note_off_c, 2, 60, 0
3, 180680, Note_off_c, 2, 64, 0
3, 180720, Note_off_c, 2, 67, 0
3, 181380, Control_c, 2, 64, 0
3, 193920, Control_c, 2, 64, 127
3, 193920, Note_on_c, 2, 60, 66
3, 193960, Note_on_c, 2, 63, 66
3, 194000, Note_on_c, 2, 67, 67
3, 194080, Note_off_c, 2, 60, 0
3, 194120, Note_off_c, 2, 63, 0
3, 194160, Note_off_c, 2, 67, 0
3, 194820, Control_c, 2, 64, 0
3, 209520, Note_on_c, 2, 67, 48
3, 209760, Note_off_c, 2, 67, 0
3, 209760, Note_on_c, 2, 66, 52
3, 210000, Note_off_c, 2, 66, 0
3, 210000, Note_on_c, 2, 67, 56
3, 210240, Note_off_c, 2, 67, 0
3, 210240, Note_on_c, 2, 68, 60
3, 210480, Note_off_c, 2, 68, 0
3, 210480, Note_on_c, 2, 69, 64
3, 210720, Note_off_c, 2, 69, 0
3, 210720, Note_on_c, 2, 70, 68
3, 210960, Note_off_c, 2, 70, 0
3, 210960, Note_on_c, 2, 71, 72
3, 211175, Note_off_c, 2, 71, 0
3, 211200, Note_on_c, 2, 72, 79
3, 211390, Note_off_c, 2, 72, 0
3, 211440, Note_on_c, 2, 72, 78
3, 211630, Note_off_c, 2, 72, 0
3, 211680, Note_on_c, 2, 72, 77
3, 212450, Note_off_c, 2, 72, 0
3, 213120, Note_on_c, 2, 72, 73
3, 213310, Note_off_c, 2, 72, 0
3, 213360, Note_on_c, 2, 72, 72
3, 213550, Note_off_c, 2, 72, 0
3, 213600, Note_on_c, 2, 72, 70
3, 214370, Note_off_c, 2, 72, 0
3, 216960, Note_on_c, 2, 72, 67
3, 217150, Note_off_c, 2, 72, 0
3, 217200, Note_on_c, 2, 72, 65
3, 217390, Note_off_c, 2, 72, 0
3, 217440, Note_on_c, 2, 72, 62
3, 218115, Note_off_c, 2, 72, 0
3, 218880, Note_on_c, 2, 72, 63
3, 219070, Note_off_c, 2, 72, 0
3, 219120, Note_on_c, 2, 72, 62
3, 219310, Note_off_c, 2, 72, 0
3, 219360, Note_on_c, 2, 72, 60
3, 220025, Note_off_c, 2, 72, 0
3, 226560, Note_on_c, 2, 74, 64
3, 226600, Note_on_c, 2, 79, 65
3, 227015, Note_off_c, 2, 79, 0
3, 227030, Note_off_c, 2, 74, 0
3, 230400, Note_on_c, 2, 72, 75
3, 230440, Note_on_c, 2, 78, 76
3, 230480, Note_on_c, 2, 81, 76
3, 230870, Note_off_c, 2, 78, 0
3, 230880, Note_off_c, 2, 81, 0
3, 230880, Note_off_c, 2, 72, 0
3, 243840, Note_on_c, 2, 78, 36
3, 244200, Note_off_c, 2, 78, 0
3, 244320, Note_on_c, 2, 78, 36
3, 244680, Note_off_c, 2, 78, 0
3, 244800, Note_on_c, 2, 78, 36
3, 245160, Note_off_c, 2, 78, 0
3, 245280, Note_on_c, 2, 78, 37
3, 245640, Note_off_c, 2, 78, 0
3, 245760, Note_on_c, 2, 77, 37
3, 246120, Note_off_c, 2, 77, 0
3, 246240, Note_on_c, 2, 76, 38
3, 246600, Note_off_c, 2, 76, 0
3, 246720, Note_on_c, 2, 77, 38
3, 247080, Note_off_c, 2, 77, 0
3, 247200, Note_on_c, 2, 74, 38
3, 247560, Note_off_c, 2, 74, 0
3, 247680, Note_on_c, 2, 72, 39
3, 248040, Note_off_c, 2, 72, 0
3, 248160, Note_on_c, 2, 72, 39
3, 248520, Note_off_c, 2, 72, 0
3, 248640, Note_on_c, 2, 76, 39
3, 249000, Note_off_c, 2, 76, 0
3, 249120, Note_on_c, 2, 76, 40
3, 249480, Note_off_c, 2, 76, 0
3, 249600, Note_on_c, 2, 77, 40
3, 249960, Note_off_c, 2, 77, 0
3, 250080, Note_on_c, 2, 77, 40
3, 250440, Note_off_c, 2, 77, 0
3, 250560, Note_on_c, 2, 74, 41
3, 250920, Note_off_c, 2, 74, 0
3, 251040, Note_on_c, 2, 74, 41
3, 251400, Note_off_c, 2, 74, 0
3, 251520, Note_on_c, 2, 76, 41
3, 251880, Note_off_c, 2, 76, 0
3, 252000, Note_on_c, 2, 72, 42
3, 252360, Note_off_c, 2, 72, 0
3, 252480, Note_on_c, 2, 71, 42
3, 252840, Note_off_c, 2, 71, 0
3, 252960, Note_on_c, 2, 74, 42
3, 253320, Note_off_c, 2, 74, 0
3, 253440, Note_on_c, 2, 72, 43
3, 253800, Note_off_c, 2, 72, 0
3, 253920, Note_on_c, 2, 72, 43
3, 254280, Note_off_c, 2, 72, 0
3, 254400, Note_on_c, 2, 71, 43
3, 254640, Note_on_c, 2, 74, 44
3, 254760, Note_off_c, 2, 71, 0
3, 254880, Note_off_c, 2, 74, 0
3, 254880, Note_on_c, 2, 78, 44
3, 255120, Note_off_c, 2, 78, 0
3, 255120, Note_on_c, 2, 79, 44
3, 255330, Note_off_c, 2, 79, 0
3, 263040, Note_on_c, 2, 67, 65
3, 263810, Note_off_c, 2, 67, 0
3, 264960, Note_on_c, 2, 69, 69
3, 265730, Note_off_c, 2, 69, 0
3, 268800, Note_on_c, 2, 67, 71
3, 269760, Note_off_c, 2, 67, 0
3, 270720, Note_on_c, 2, 72, 73
3, 271680, Note_off_c, 2, 72, 0
3, 276480, Note_on_c, 2, 70, 74
3, 277250, Note_off_c, 2, 70, 0
3, 277440, Note_on_c, 2, 70, 78
3, 277825, Note_off_c, 2, 70, 0
3, 277920, Note_on_c, 2, 70, 80
3, 278305, Note_off_c, 2, 70, 0
3, 278400, Note_on_c, 2, 69, 81
3, 278640, Note_off_c, 2, 69, 0
3, 291840, Control_c, 2, 64, 127
3, 291840, Note_on_c, 2, 60, 70
3, 291880, Note_on_c, 2, 64, 70
3, 291920, Note_on_c, 2, 67, 70
3, 292000, Note_off_c, 2, 60, 0
3, 292040, Note_off_c, 2, 64, 0
3, 292080, Note_off_c, 2, 67, 0
3, 292740, Control_c, 2, 64, 0
3, 297600, Note_on_c, 2, 76, 93
3, 297980, Note_off_c, 2, 76, 0
3, 298080, Note_on_c, 2, 64, 93
3, 298140, Note_on_c, 2, 67, 94
3, 298500, Note_off_c, 2, 67, 0
3, 298505, Note_off_c, 2, 64, 0
3, 298560, Note_on_c, 2, 64, 96
3, 298620, Note_on_c, 2, 67, 97
3, 298980, Note_off_c, 2, 64, 0
3, 298995, Note_off_c, 2, 67, 0
3, 299520, Control_c, 2, 64, 0
3, 318480, Note_on_c, 2, 65, 46
3, 318670, Note_off_c, 2, 65, 0
3, 318720, Note_on_c, 2, 65, 48
3, 319105, Note_off_c, 2, 65, 0
3, 319200, Note_on_c, 2, 65, 51
3, 319585, Note_off_c, 2, 65, 0
3, 319680, Note_on_c, 2, 65, 56
3, 320640, Note_off_c, 2, 65, 0
3, 320640, Note_on_c, 2, 64, 40
3, 321480, Note_off_c, 2, 64, 0
3, 338880, Note_on_c, 2, 60, 53
3, 339600, Note_off_c, 2, 60, 0
3, 339840, Note_on_c, 2, 65, 63
3, 340560, Note_off_c, 2, 65, 0
3, 340800, Note_on_c, 2, 57, 73
3, 341185, Note_off_c, 2, 57, 0
3, 341760, Note_on_c, 2, 58, 45
3, 342675, Note_off_c, 2, 58, 0
3, 342720, Note_on_c, 2, 58, 52
3, 343680, Note_off_c, 2, 58, 0
3, 343680, Note_on_c, 2, 57, 40
3, 344065, Note_off_c, 2, 57, 0
3, 387840, Note_on_c, 2, 52, 49
3, 388680, Note_off_c, 2, 52, 0
3, 388800, Note_on_c, 2, 52, 57
3, 389760, Note_off_c, 2, 52, 0
3, 403200, Note_on_c, 2, 72, 64
3, 405105, Note_off_c, 2, 72, 0
3, 405120, Note_on_c, 2, 72, 70
3, 406070, Note_off_c, 2, 72, 0
3, 406080, Note_on_c, 2, 72, 72
3, 407990, Note_off_c, 2, 72, 0
3, 408000, Note_on_c, 2, 72, 77
3, 408935, Note_off_c, 2, 72, 0
3, 410880, Note_on_c, 2, 71, 58
3, 411725, Note_off_c, 2, 71, 0
3, 411840, Note_on_c, 2, 72, 73
3, 415670, Note_off_c, 2, 72, 0
3, 415680, Note_on_c, 2, 70, 70
3, 418550, Note_off_c, 2, 70, 0
3, 418560, Note_on_c, 2, 69, 68
3, 420960, Note_off_c, 2, 69, 0
3, 420960, Note_on_c, 2, 67, 65
3, 421020, Note_on_c, 2, 69, 65
3, 421040, Note_off_c, 2, 67, 0
3, 421080, Note_on_c, 2, 67, 64
3, 421100, Note_off_c, 2, 69, 0
3, 421200, Note_on_c, 2, 66, 62
3, 421205, Note_off_c, 2, 67, 0
3, 421440, Note_off_c, 2, 66, 0
3, 421440, Note_on_c, 2, 67, 59
3, 421920, Note_off_c, 2, 67, 0
3, 421920, Note_on_c, 2, 64, 57
3, 422400, Note_off_c, 2, 64, 0
3, 422400, Note_on_c, 2, 65, 54
3, 422880, Note_off_c, 2, 65, 0
3, 422880, Note_on_c, 2, 69, 52
3, 423000, Note_off_c, 2, 69, 0
3, 423000, Note_on_c, 2, 67, 51
3, 423305, Note_off_c, 2, 67, 0
3, 423360, Note_on_c, 2, 65, 49
3, 424320, Note_off_c, 2, 65, 0
3, 424320, Note_on_c, 2, 64, 44
3, 424705, Note_off_c, 2, 64, 0
3, 436800, Note_on_c, 2, 69, 42
3, 437040, Note_off_c, 2, 69, 0
3, 437040, Note_on_c, 2, 70, 44
3, 437280, Note_off_c, 2, 70, 0
3, 437280, Note_on_c, 2, 71, 46
3, 437520, Note_off_c, 2, 71, 0
3, 437520, Note_on_c, 2, 72, 48
3, 437710, Note_off_c, 2, 72, 0
3, 437760, Note_on_c, 2, 65, 57
3, 438720, Note_off_c, 2, 65, 0
3, 438720, Note_on_c, 2, 64, 40
3, 439105, Note_off_c, 2, 64, 0
3, 439440, Note_on_c, 2, 64, 48
3, 439630, Note_off_c, 2, 64, 0
3, 439680, Note_on_c, 2, 67, 51
3, 439920, Note_off_c, 2, 67, 0
3, 439920, Note_on_c, 2, 65, 54
3, 440160, Note_off_c, 2, 65, 0
3, 440160, Note_on_c, 2, 64, 57
3, 440400, Note_off_c, 2, 64, 0
3, 440400, Note_on_c, 2, 62, 61
3, 440590, Note_off_c, 2, 62, 0
3, 440640, Note_on_c, 2, 60, 69
3, 440880, Note_off_c, 2, 60, 0
3, 440880, Note_on_c, 2, 59, 64
3, 441120, Note_off_c, 2, 59, 0
3, 441120, Note_on_c, 2, 58, 59
3, 441505, Note_off_c, 2, 58, 0
3, 445440, Note_on_c, 2, 64, 41
3, 446285, Note_off_c, 2, 64, 0
3, 446400, Note_on_c, 2, 64, 50
3, 447360, Note_off_c, 2, 64, 0
3, 457920, Note_on_c, 2, 72, 61
3, 459810, Note_off_c, 2, 72, 0
3, 459840, Note_on_c, 2, 72, 66
3, 460770, Note_off_c, 2, 72, 0
3, 460800, Note_on_c, 2, 72, 68
3, 462695, Note_off_c, 2, 72, 0
3, 462720, Note_on_c, 2, 72, 73
3, 463625, Note_off_c, 2, 72, 0
3, 468480, Note_on_c, 2, 71, 56
3, 469395, Note_off_c, 2, 71, 0
3, 469440, Note_on_c, 2, 72, 71
3, 473255, Note_off_c, 2, 72, 0
3, 473280, Note_on_c, 2, 70, 68
3, 476145, Note_off_c, 2, 70, 0
3, 476160, Note_on_c, 2, 69, 66
3, 478545, Note_off_c, 2, 69, 0
3, 478560, Note_on_c, 2, 67, 59
3, 478620, Note_on_c, 2, 69, 58
3, 478640, Note_off_c, 2, 67, 0
3, 478680, Note_on_c, 2, 67, 58
3, 478700, Note_off_c, 2, 69, 0
3, 478800, Note_on_c, 2, 66, 57
3, 478805, Note_off_c, 2, 67, 0
3, 479040, Note_off_c, 2, 66, 0
3, 479040, Note_on_c, 2, 67, 54
3, 479955, Note_off_c, 2, 67, 0
3, 480000, Note_on_c, 2, 67, 51
3, 480240, Note_off_c, 2, 67, 0
3, 480240, Note_on_c, 2, 65, 50
3, 480430, Note_off_c, 2, 65, 0
3, 480480, Note_on_c, 2, 69, 48
3, 480720, Note_off_c, 2, 69, 0
3, 480720, Note_on_c, 2, 67, 47
3, 480910, Note_off_c, 2, 67, 0
3, 480960, Note_on_c, 2, 65, 47
3, 481920, Note_off_c, 2, 65, 0
3, 481920, Note_on_c, 2, 64, 39
3, 482305, Note_off_c, 2, 64, 0
3, 495360, Note_on_c, 2, 69, 54
3, 495550, Note_off_c, 2, 69, 0
3, 495600, Note_on_c, 2, 69, 50
3, 495790, Note_off_c, 2, 69, 0
3, 495840, Note_on_c, 2, 69, 48
3, 496030, Note_off_c, 2, 69, 0
3, 496080, Note_on_c, 2, 69, 47
3, 496270, Note_off_c, 2, 69, 0
3, 496320, Note_on_c, 2, 70, 45
3, 496510, Note_off_c, 2, 70, 0
3, 496560, Note_on_c, 2, 70, 44
3, 496750, Note_off_c, 2, 70, 0
3, 496800, Note_on_c, 2, 70, 43
3, 496990, Note_off_c, 2, 70, 0
3, 497040, Note_on_c, 2, 70, 41
3, 497230, Note_off_c, 2, 70, 0
3, 497280, Note_on_c, 2, 70, 43
3, 497470, Note_off_c, 2, 70, 0
3, 497520, Note_on_c, 2, 69, 47
3, 497710, Note_off_c, 2, 69, 0
3, 497760, Note_on_c, 2, 67, 52
3, 497950, Note_off_c, 2, 67, 0
3, 498000, Note_on_c, 2, 65, 57
3, 498190, Note_off_c, 2, 65, 0
3, 498240, Note_on_c, 2, 64, 64
3, 498480, Note_off_c, 2, 64, 0
3, 498480, Note_on_c, 2, 65, 58
3, 498720, Note_off_c, 2, 65, 0
3, 498720, Note_on_c, 2, 67, 51
3, 499105, Note_off_c, 2, 67, 0
3, 499680, Note_on_c, 2, 65, 53
3, 500065, Note_off_c, 2, 65, 0
3, 500640, Note_on_c, 2, 65, 50
3, 501025, Note_off_c, 2, 65, 0
3, 501600, Note_on_c, 2, 65, 48
3, 501985, Note_off_c, 2, 65, 0
3, 502560, Note_on_c, 2, 60, 45
3, 502945, Note_off_c, 2, 60, 0
3, 503040, Note_on_c, 2, 64, 44
3, 503520, Note_off_c, 2, 64, 0
3, 503520, Note_on_c, 2, 62, 49
3, 503760, Note_off_c, 2, 62, 0
3, 503760, Note_on_c, 2, 64, 50
3, 503950, Note_off_c, 2, 64, 0
3, 504000, Note_on_c, 2, 64, 52
3, 504960, Note_off_c, 2, 64, 0
3, 504960, Note_on_c, 2, 65, 38
3, 505345, Note_off_c, 2, 65, 0
3, 506040, Note_on_c, 2, 81, 58
3, 506160, Note_off_c, 2, 81, 0
3, 506280, Note_on_c, 2, 82, 61
3, 506400, Note_off_c, 2, 82, 0
3, 506520, Note_on_c, 2, 83, 63
3, 506640, Note_off_c, 2, 83, 0
3, 506760, Note_on_c, 2, 84, 66
3, 506855, Note_off_c, 2, 84, 0
3, 508680, Note_on_c, 2, 88, 70
3, 508775, Note_off_c, 2, 88, 0
3, 508920, Note_on_c, 2, 89, 71
3, 509015, Note_off_c, 2, 89, 0
3, 509160, Note_on_c, 2, 88, 73
3, 509255, Note_off_c, 2, 88, 0
3, 509400, Note_on_c, 2, 89, 75
3, 509495, Note_off_c, 2, 89, 0
3, 509640, Note_on_c, 2, 86, 77
3, 509735, Note_off_c, 2, 86, 0
3, 509880, Note_on_c, 2, 84, 74
3, 509975, Note_off_c, 2, 84, 0
3, 510120, Note_on_c, 2, 83, 70
3, 510215, Note_off_c, 2, 83, 0
3, 510360, Note_on_c, 2, 82, 65
3, 510455, Note_off_c, 2, 82, 0
3, 514560, Note_on_c, 2, 64, 40
3, 515520, Note_off_c, 2, 64, 0
3, 520320, Note_on_c, 2, 64, 36
3, 521280, Note_off_c, 2, 64, 0
3, 521760, Note_on_c, 2, 57, 29
3, 522635, Note_off_c, 2, 57, 0
3, 522720, Note_on_c, 2, 58, 31
3, 523200, Note_off_c, 2, 58, 0
3, 523200, Note_on_c, 2, 52, 32
3, 523680, Note_off_c, 2, 52, 0
3, 523680, Note_on_c, 2, 57, 33
3, 524065, Note_off_c, 2, 57, 0
3, 524160, Note_on_c, 2, 55, 34
3, 524160, Note_on_c, 2, 52, 34
3, 526080, Note_off_c, 2, 52, 0
3, 526080, Note_off_c, 2, 55, 0
3, 526080, Note_on_c, 2, 53, 22
3, 526560, Note_off_c, 2, 53, 0
3, 527040, Control_c, 2, 64, 0
3, 546240, Note_on_c, 2, 64, 67
3, 546660, Note_off_c, 2, 64, 0
3, 546720, Note_on_c, 2, 65, 68
3, 547200, Note_off_c, 2, 65, 0
3, 547200, Note_on_c, 2, 64, 68
3, 547390, Note_off_c, 2, 64, 0
3, 547680, Note_on_c, 2, 60, 69
3, 547775, Note_off_c, 2, 60, 0
3, 547800, Note_on_c, 2, 64, 69
3, 547895, Note_off_c, 2, 64, 0
3, 547920, Note_on_c, 2, 67, 70
3, 548015, Note_off_c, 2, 67, 0
3, 548040, Note_on_c, 2, 72, 70
3, 548135, Note_off_c, 2, 72, 0
3, 548160, Note_on_c, 2, 72, 70
3, 548580, Note_off_c, 2, 72, 0
3, 548640, Note_on_c, 2, 76, 71
3, 548760, Note_off_c, 2, 76, 0
3, 548760, Note_on_c, 2, 74, 71
3, 548880, Note_off_c, 2, 74, 0
3, 548880, Note_on_c, 2, 72, 71
3, 549000, Note_off_c, 2, 72, 0
3, 549000, Note_on_c, 2, 74, 71
3, 549120, Note_off_c, 2, 74, 0
3, 549120, Note_on_c, 2, 72, 72
3, 549310, Note_off_c, 2, 72, 0
3, 553920, Note_on_c, 2, 64, 75
3, 554340, Note_off_c, 2, 64, 0
3, 554400, Note_on_c, 2, 65, 75
3, 554880, Note_off_c, 2, 65, 0
3, 554880, Note_on_c, 2, 64, 76
3, 555070, Note_off_c, 2, 64, 0
3, 555360, Note_on_c, 2, 60, 77
3, 555455, Note_off_c, 2, 60, 0
3, 555480, Note_on_c, 2, 64, 77
3, 555575, Note_off_c, 2, 64, 0
3, 555600, Note_on_c, 2, 67, 77
3, 555695, Note_off_c, 2, 67, 0
3, 555720, Note_on_c, 2, 72, 78
3, 555815, Note_off_c, 2, 72, 0
3, 555840, Note_on_c, 2, 72, 78
3, 556265, Note_off_c, 2, 72, 0
3, 556320, Note_on_c, 2, 76, 79
3, 556440, Note_off_c, 2, 76, 0
3, 556440, Note_on_c, 2, 74, 79
3, 556560, Note_off_c, 2, 74, 0
3, 556560, Note_on_c, 2, 72, 79
3, 556680, Note_off_c, 2, 72, 0
3, 556680, Note_on_c, 2, 74, 79
3, 556800, Note_off_c, 2, 74, 0
3, 556800, Note_on_c, 2, 72, 80
3, 556990, Note_off_c, 2, 72, 0
3, 559680, Note_on_c, 2, 72, 75
3, 560160, Note_off_c, 2, 72, 0
3, 560160, Note_on_c, 2, 72, 73
3, 560640, Note_off_c, 2, 72, 0
3, 560640, Note_on_c, 2, 72, 71
3, 561120, Note_off_c, 2, 72, 0
3, 561120, Note_on_c, 2, 72, 69
3, 561550, Note_off_c, 2, 72, 0
3, 582780, Note_on_c, 2, 86, 53
3, 582840, Note_off_c, 2, 86, 0
3, 582900, Note_on_c, 2, 86, 54
3, 582960, Note_off_c, 2, 86, 0
3, 583020, Note_on_c, 2, 86, 54
3, 583080, Note_off_c, 2, 86, 0
3, 583140, Note_on_c, 2, 86, 55
3, 583200, Note_off_c, 2, 86, 0
3, 583260, Note_on_c, 2, 86, 56
3, 583320, Note_off_c, 2, 86, 0
3, 583380, Note_on_c, 2, 86, 56
3, 583440, Note_off_c, 2, 86, 0
3, 583500, Note_on_c, 2, 86, 57
3, 583560, Note_off_c, 2, 86, 0
3, 583620, Note_on_c, 2, 86, 58
3, 583680, Note_off_c, 2, 86, 0
3, 583740, Note_on_c, 2, 86, 59
3, 583800, Note_off_c, 2, 86, 0
3, 583860, Note_on_c, 2, 86, 59
3, 583920, Note_off_c, 2, 86, 0
3, 583980, Note_on_c, 2, 86, 60
3, 584040, Note_off_c, 2, 86, 0
3, 584100, Note_on_c, 2, 86, 61
3, 584160, Note_off_c, 2, 86, 0
3, 584220, Note_on_c, 2, 86, 61
3, 584280, Note_off_c, 2, 86, 0
3, 584340, Note_on_c, 2, 86, 62
3, 584400, Note_off_c, 2, 86, 0
3, 584460, Note_on_c, 2, 86, 63
3, 584520, Note_off_c, 2, 86, 0
3, 584580, Note_on_c, 2, 86, 64
3, 584640, Note_off_c, 2, 86, 0
3, 584700, Note_on_c, 2, 86, 64
3, 584760, Note_off_c, 2, 86, 0
3, 584820, Note_on_c, 2, 86, 65
3, 584880, Note_off_c, 2, 86, 0
3, 584940, Note_on_c, 2, 86, 66
3, 585000, Note_off_c, 2, 86, 0
3, 585060, Note_on_c, 2, 86, 66
3, 585120, Note_off_c, 2, 86, 0
3, 585180, Note_on_c, 2, 86, 67
3, 585240, Note_off_c, 2, 86, 0
3, 585300, Note_on_c, 2, 86, 68
3, 585360, Note_off_c, 2, 86, 0
3, 585420, Note_on_c, 2, 86, 69
3, 585480, Note_off_c, 2, 86, 0
3, 585540, Note_on_c, 2, 86, 69
3, 585600, Note_off_c, 2, 86, 0
3, 585660, Note_on_c, 2, 86, 70
3, 585720, Note_off_c, 2, 86, 0
3, 585780, Note_on_c, 2, 86, 71
3, 585840, Note_off_c, 2, 86, 0
3, 585900, Note_on_c, 2, 86, 71
3, 585960, Note_off_c, 2, 86, 0
3, 586020, Note_on_c, 2, 86, 72
3, 586080, Note_off_c, 2, 86, 0
3, 586140, Note_on_c, 2, 86, 73
3, 586200, Note_off_c, 2, 86, 0
3, 586260, Note_on_c, 2, 86, 74
3, 586320, Note_off_c, 2, 86, 0
3, 586380, Note_on_c, 2, 86, 74
3, 586440, Note_off_c, 2, 86, 0
3, 586500, Note_on_c, 2, 86, 75
3, 586560, Note_off_c, 2, 86, 0
3, 586560, Note_on_c, 2, 86, 75
3, 586660, Note_off_c, 2, 86, 0
3, 588960, Note_on_c, 2, 60, 67
3, 588960, Note_on_c, 2, 57, 67
3, 589150, Note_off_c, 2, 57, 0
3, 589150, Note_off_c, 2, 60, 0
3, 589440, Note_on_c, 2, 59, 62
3, 589440, Note_on_c, 2, 55, 62
3, 589630, Note_off_c, 2, 55, 0
3, 589630, Note_off_c, 2, 59, 0
3, 593340, Note_on_c, 2, 86, 52
3, 593400, Note_off_c, 2, 86, 0
3, 593460, Note_on_c, 2, 86, 53
3, 593520, Note_off_c, 2, 86, 0
3, 593580, Note_on_c, 2, 86, 53
3, 593640, Note_off_c, 2, 86, 0
3, 593700, Note_on_c, 2, 86, 54
3, 593760, Note_off_c, 2, 86, 0
3, 593820, Note_on_c, 2, 86, 55
3, 593880, Note_off_c, 2, 86, 0
3, 593940, Note_on_c, 2, 86, 55
3, 594000, Note_off_c, 2, 86, 0
3, 594060, Note_on_c, 2, 86, 56
3, 594120, Note_off_c, 2, 86, 0
3, 594180, Note_on_c, 2, 86, 56
3, 594240, Note_off_c, 2, 86, 0
3, 594300, Note_on_c, 2, 86, 57
3, 594360, Note_off_c, 2, 86, 0
3, 594420, Note_on_c, 2, 86, 58
3, 594480, Note_off_c, 2, 86, 0
3, 594540, Note_on_c, 2, 86, 58
3, 594600, Note_off_c, 2, 86, 0
3, 594660, Note_on_c, 2, 86, 59
3, 594720, Note_off_c, 2, 86, 0
3, 594780, Note_on_c, 2, 86, 59
3, 594840, Note_off_c, 2, 86, 0
3, 594900, Note_on_c, 2, 86, 60
3, 594960, Note_off_c, 2, 86, 0
3, 595020, Note_on_c, 2, 86, 61
3, 595080, Note_off_c, 2, 86, 0
3, 595140, Note_on_c, 2, 86, 61
3, 595200, Note_off_c, 2, 86, 0
3, 595260, Note_on_c, 2, 86, 62
3, 595320, Note_off_c, 2, 86, 0
3, 595380, Note_on_c, 2, 86, 62
3, 595440, Note_off_c, 2, 86, 0
3, 595500, Note_on_c, 2, 86, 63
3, 595560, Note_off_c, 2, 86, 0
3, 595620, Note_on_c, 2, 86, 64
3, 595680, Note_off_c, 2, 86, 0
3, 595740, Note_on_c, 2, 86, 64
3, 595800, Note_off_c, 2, 86, 0
3, 595860, Note_on_c, 2, 86, 65
3, 595920, Note_off_c, 2, 86, 0
3, 595980, Note_on_c, 2, 86, 65
3, 596040, Note_off_c, 2, 86, 0
3, 596100, Note_on_c, 2, 86, 66
3, 596160, Note_off_c, 2, 86, 0
3, 596220, Note_on_c, 2, 86, 67
3, 596280, Note_off_c, 2, 86, 0
3, 596340, Note_on_c, 2, 86, 67
3, 596400, Note_off_c, 2, 86, 0
3, 596460, Note_on_c, 2, 86, 68
3, 596520, Note_off_c, 2, 86, 0
3, 596580, Note_on_c, 2, 86, 69
3, 596640, Note_off_c, 2, 86, 0
3, 596700, Note_on_c, 2, 86, 69
3, 596760, Note_off_c, 2, 86, 0
3, 596820, Note_on_c, 2, 86, 70
3, 596880, Note_off_c, 2, 86, 0
3, 596940, Note_on_c, 2, 86, 70
3, 597000, Note_off_c, 2, 86, 0
3, 597060, Note_on_c, 2, 86, 71
3, 597120, Note_off_c, 2, 86, 0
3, 597180, Note_on_c, 2, 86, 72
3, 597240, Note_off_c, 2, 86, 0
3, 597300, Note_on_c, 2, 86, 72
3, 597360, Note_off_c, 2, 86, 0
3, 597420, Note_on_c, 2, 87, 82
3, 597490, Note_off_c, 2, 87, 0
3, 597540, Note_on_c, 2, 87, 73
3, 597610, Note_off_c, 2, 87, 0
3, 597660, Note_on_c, 2, 87, 74
3, 597730, Note_off_c, 2, 87, 0
3, 597780, Note_on_c, 2, 87, 75
3, 597850, Note_off_c, 2, 87, 0
3, 597900, Note_on_c, 2, 87, 75
3, 597970, Note_off_c, 2, 87, 0
3, 598020, Note_on_c, 2, 87, 76
3, 598075, Note_off_c, 2, 87, 0
3, 598140, Note_on_c, 2, 88, 76
3, 598200, Note_off_c, 2, 88, 0
3, 598260, Note_on_c, 2, 88, 77
3, 598320, Note_off_c, 2, 88, 0
3, 598380, Note_on_c, 2, 82, 88
3, 598440, Note_off_c, 2, 82, 0
3, 598500, Note_on_c, 2, 82, 78
3, 598560, Note_off_c, 2, 82, 0
3, 598620, Note_on_c, 2, 82, 79
3, 598680, Note_off_c, 2, 82, 0
3, 598740, Note_on_c, 2, 82, 79
3, 598800, Note_off_c, 2, 82, 0
3, 598860, Note_on_c, 2, 82, 80
3, 598920, Note_off_c, 2, 82, 0
3, 598980, Note_on_c, 2, 82, 81
3, 599040, Note_off_c, 2, 82, 0
3, 600480, Note_on_c, 2, 69, 72
3, 600520, Note_on_c, 2, 72, 72
3, 600560, Note_on_c, 2, 74, 72
3, 600720, Note_off_c, 2, 69, 0
3, 600725, Note_off_c, 2, 74, 0
3, 600725, Note_off_c, 2, 72, 0
3, 600960, Note_on_c, 2, 67, 68
3, 601000, Note_on_c, 2, 71, 67
3, 601040, Note_on_c, 2, 74, 67
3, 601200, Note_off_c, 2, 74, 0
3, 601200, Note_off_c, 2, 71, 0
3, 601200, Note_off_c, 2, 67, 0
3, 609360, Note_on_c, 2, 62, 67
3, 609360, Note_on_c, 2, 59, 67
3, 609550, Note_off_c, 2, 59, 0
3, 609550, Note_off_c, 2, 62, 0
3, 609600, Note_on_c, 2, 62, 68
3, 609640, Note_on_c, 2, 67, 68
3, 610015, Note_off_c, 2, 62, 0
3, 610020, Note_off_c, 2, 67, 0
3, 610320, Note_on_c, 2, 67, 70
3, 610320, Note_on_c, 2, 62, 70
3, 610510, Note_off_c, 2, 62, 0
3, 610510, Note_off_c, 2, 67, 0
3, 610560, Note_on_c, 2, 67, 71
3, 610600, Note_on_c, 2, 71, 71
3, 610975, Note_off_c, 2, 71, 0
3, 610985, Note_off_c, 2, 67, 0
3, 611280, Note_on_c, 2, 71, 73
3, 611280, Note_on_c, 2, 67, 73
3, 611470, Note_off_c, 2, 67, 0
3, 611470, Note_off_c, 2, 71, 0
3, 611520, Note_on_c, 2, 67, 74
3, 611560, Note_on_c, 2, 71, 74
3, 611935, Note_off_c, 2, 67, 0
3, 611945, Note_off_c, 2, 71, 0
3, 612240, Note_on_c, 2, 74, 77
3, 612240, Note_on_c, 2, 71, 77
3, 612240, Note_on_c, 2, 67, 77
3, 612430, Note_off_c, 2, 67, 0
3, 612430, Note_off_c, 2, 71, 0
3, 612430, Note_off_c, 2, 74, 0
3, 612480, Note_on_c, 2, 77, 77
3, 612480, Note_on_c, 2, 79, 77
3, 612480, Note_on_c, 2, 74, 77
3, 612670, Note_off_c, 2, 74, 0
3, 612670, Note_off_c, 2, 79, 0
3, 612670, Note_off_c, 2, 77, 0
3, 633660, Note_on_c, 2, 84, 62
3, 633720, Note_off_c, 2, 84, 0
3, 633780, Note_on_c, 2, 84, 62
3, 633840, Note_off_c, 2, 84, 0
3, 633900, Note_on_c, 2, 84, 63
3, 633960, Note_off_c, 2, 84, 0
3, 634020, Note_on_c, 2, 84, 63
3, 634080, Note_off_c, 2, 84, 0
3, 634140, Note_on_c, 2, 84, 63
3, 634200, Note_off_c, 2, 84, 0
3, 634260, Note_on_c, 2, 84, 64
3, 634320, Note_off_c, 2, 84, 0
3, 634380, Note_on_c, 2, 84, 64
3, 634440, Note_off_c, 2, 84, 0
3, 634500, Note_on_c, 2, 84, 64
3, 634560, Note_off_c, 2, 84, 0
3, 634620, Note_on_c, 2, 84, 65
3, 634680, Note_off_c, 2, 84, 0
3, 634740, Note_on_c, 2, 84, 65
3, 634800, Note_off_c, 2, 84, 0
3, 634860, Note_on_c, 2, 84, 65
3, 634920, Note_off_c, 2, 84, 0
3, 634980, Note_on_c, 2, 84, 66
3, 635040, Note_off_c, 2, 84, 0
3, 635100, Note_on_c, 2, 84, 66
3, 635160, Note_off_c, 2, 84, 0
3, 635220, Note_on_c, 2, 84, 67
3, 635280, Note_off_c, 2, 84, 0
3, 635340, Note_on_c, 2, 84, 67
3, 635400, Note_off_c, 2, 84, 0
3, 635460, Note_on_c, 2, 84, 67
3, 635520, Note_off_c, 2, 84, 0
3, 635580, Note_on_c, 2, 84, 68
3, 635640, Note_off_c, 2, 84, 0
3, 635700, Note_on_c, 2, 84, 68
3, 635760, Note_off_c, 2, 84, 0
3, 635820, Note_on_c, 2, 84, 68
3, 635880, Note_off_c, 2, 84, 0
3, 635940, Note_on_c, 2, 84, 69
3, 636000, Note_off_c, 2, 84, 0
3, 636060, Note_on_c, 2, 84, 69
3, 636120, Note_off_c, 2, 84, 0
3, 636180, Note_on_c, 2, 84, 70
3, 636240, Note_off_c, 2, 84, 0
3, 636300, Note_on_c, 2, 84, 70
3, 636360, Note_off_c, 2, 84, 0
3, 636420, Note_on_c, 2, 84, 70
3, 636480, Note_off_c, 2, 84, 0
3, 636540, Note_on_c, 2, 84, 71
3, 636600, Note_off_c, 2, 84, 0
3, 636660, Note_on_c, 2, 84, 71
3, 636720, Note_off_c, 2, 84, 0
3, 636780, Note_on_c, 2, 84, 71
3, 636840, Note_off_c, 2, 84, 0
3, 636900, Note_on_c, 2, 84, 72
3, 636960, Note_off_c, 2, 84, 0
3, 637020, Note_on_c, 2, 84, 72
3, 637080, Note_off_c, 2, 84, 0
3, 637140, Note_on_c, 2, 84, 72
3, 637200, Note_off_c, 2, 84, 0
3, 637260, Note_on_c, 2, 84, 73
3, 637320, Note_off_c, 2, 84, 0
3, 637380, Note_on_c, 2, 84, 73
3, 637440, Note_off_c, 2, 84, 0
3, 652080, Note_on_c, 2, 74, 63
3, 652200, Note_off_c, 2, 74, 0
3, 652200, Note_on_c, 2, 70, 60
3, 652295, Note_off_c, 2, 70, 0
3, 652320, Note_on_c, 2, 69, 57
3, 652440, Note_off_c, 2, 69, 0
3, 652440, Note_on_c, 2, 65, 53
3, 652560, Note_off_c, 2, 65, 0
3, 652560, Note_on_c, 2, 67, 50
3, 652680, Note_off_c, 2, 67, 0
3, 652680, Note_on_c, 2, 64, 47
3, 652775, Note_off_c, 2, 64, 0
3, 682620, Note_on_c, 2, 79, 66
3, 682680, Note_off_c, 2, 79, 0
3, 682740, Note_on_c, 2, 79, 67
3, 682800, Note_off_c, 2, 79, 0
3, 682860, Note_on_c, 2, 79, 67
3, 682920, Note_off_c, 2, 79, 0
3, 682980, Note_on_c, 2, 79, 68
3, 683040, Note_off_c, 2, 79, 0
3, 683100, Note_on_c, 2, 79, 68
3, 683160, Note_off_c, 2, 79, 0
3, 683220, Note_on_c, 2, 79, 69
3, 683280, Note_off_c, 2, 79, 0
3, 683340, Note_on_c, 2, 79, 69
3, 683400, Note_off_c, 2, 79, 0
3, 683460, Note_on_c, 2, 79, 70
3, 683520, Note_off_c, 2, 79, 0
3, 683580, Note_on_c, 2, 79, 70
3, 683640, Note_off_c, 2, 79, 0
3, 683700, Note_on_c, 2, 79, 71
3, 683760, Note_off_c, 2, 79, 0
3, 683820, Note_on_c, 2, 79, 72
3, 683880, Note_off_c, 2, 79, 0
3, 683940, Note_on_c, 2, 79, 72
3, 684000, Note_off_c, 2, 79, 0
3, 684060, Note_on_c, 2, 79, 73
3, 684120, Note_off_c, 2, 79, 0
3, 684180, Note_on_c, 2, 79, 73
3, 684240, Note_off_c, 2, 79, 0
3, 684300, Note_on_c, 2, 79, 74
3, 684360, Note_off_c, 2, 79, 0
3, 684420, Note_on_c, 2, 79, 74
3, 684480, Note_off_c, 2, 79, 0
3, 684540, Note_on_c, 2, 79, 75
3, 684600, Note_off_c, 2, 79, 0
3, 684660, Note_on_c, 2, 79, 75
3, 684720, Note_off_c, 2, 79, 0
3, 684780, Note_on_c, 2, 79, 76
3, 684840, Note_off_c, 2, 79, 0
3, 684900, Note_on_c, 2, 79, 76
3, 684960, Note_off_c, 2, 79, 0
3, 685020, Note_on_c, 2, 79, 77
3, 685080, Note_off_c, 2, 79, 0
3, 685140, Note_on_c, 2, 79, 78
3, 685200, Note_off_c, 2, 79, 0
3, 685260, Note_on_c, 2, 79, 78
3, 685320, Note_off_c, 2, 79, 0
3, 685380, Note_on_c, 2, 79, 79
3, 685440, Note_off_c, 2, 79, 0
3, 685500, Note_on_c, 2, 79, 79
3, 685560, Note_off_c, 2, 79, 0
3, 685620, Note_on_c, 2, 79, 80
3, 685680, Note_off_c, 2, 79, 0
3, 685740, Note_on_c, 2, 79, 80
3, 685800, Note_off_c, 2, 79, 0
3, 685860, Note_on_c, 2, 79, 81
3, 685920, Note_off_c, 2, 79, 0
3, 685980, Note_on_c, 2, 79, 81
3, 686040, Note_off_c, 2, 79, 0
3, 686100, Note_on_c, 2, 79, 82
3, 686160, Note_off_c, 2, 79, 0
3, 686220, Note_on_c, 2, 79, 83
3, 686280, Note_off_c, 2, 79, 0
3, 686340, Note_on_c, 2, 79, 83
3, 686400, Note_off_c, 2, 79, 0
3, 686400, Note_on_c, 2, 79, 83
3, 686480, Note_off_c, 2, 79, 0
3, 687360, Note_on_c, 2, 72, 78
3, 687400, Note_off_c, 2, 72, 0
3, 687400, Note_on_c, 2, 74, 78
3, 687440, Note_off_c, 2, 74, 0
3, 688800, Note_on_c, 2, 65, 70
3, 688800, Note_on_c, 2, 62, 70
3, 688990, Note_off_c, 2, 62, 0
3, 688990, Note_off_c, 2, 65, 0
3, 689280, Note_on_c, 2, 60, 68
3, 689280, Note_on_c, 2, 64, 68
3, 689470, Note_off_c, 2, 64, 0
3, 689470, Note_off_c, 2, 60, 0
3, 692640, Note_on_c, 2, 74, 45
3, 692830, Note_off_c, 2, 74, 0
3, 693180, Note_on_c, 2, 79, 68
3, 693240, Note_off_c, 2, 79, 0
3, 693300, Note_on_c, 2, 79, 68
3, 693360, Note_off_c, 2, 79, 0
3, 693420, Note_on_c, 2, 79, 68
3, 693480, Note_off_c, 2, 79, 0
3, 693540, Note_on_c, 2, 79, 68
3, 693600, Note_off_c, 2, 79, 0
3, 693660, Note_on_c, 2, 79, 69
3, 693720, Note_off_c, 2, 79, 0
3, 693780, Note_on_c, 2, 79, 69
3, 693840, Note_off_c, 2, 79, 0
3, 693900, Note_on_c, 2, 79, 69
3, 693960, Note_off_c, 2, 79, 0
3, 694020, Note_on_c, 2, 79, 69
3, 694080, Note_off_c, 2, 79, 0
3, 694140, Note_on_c, 2, 79, 70
3, 694200, Note_off_c, 2, 79, 0
3, 694260, Note_on_c, 2, 79, 70
3, 694320, Note_off_c, 2, 79, 0
3, 694380, Note_on_c, 2, 79, 70
3, 694440, Note_off_c, 2, 79, 0
3, 694500, Note_on_c, 2, 79, 70
3, 694560, Note_off_c, 2, 79, 0
3, 694620, Note_on_c, 2, 79, 71
3, 694680, Note_off_c, 2, 79, 0
3, 694740, Note_on_c, 2, 79, 71
3, 694800, Note_off_c, 2, 79, 0
3, 694860, Note_on_c, 2, 79, 71
3, 694920, Note_off_c, 2, 79, 0
3, 694980, Note_on_c, 2, 79, 71
3, 695040, Note_off_c, 2, 79, 0
3, 695100, Note_on_c, 2, 79, 72
3, 695160, Note_off_c, 2, 79, 0
3, 695220, Note_on_c, 2, 79, 72
3, 695280, Note_off_c, 2, 79, 0
3, 695340, Note_on_c, 2, 79, 72
3, 695400, Note_off_c, 2, 79, 0
3, 695460, Note_on_c, 2, 79, 72
3, 695520, Note_off_c, 2, 79, 0
3, 695580, Note_on_c, 2, 79, 73
3, 695640, Note_off_c, 2, 79, 0
3, 695700, Note_on_c, 2, 79, 73
3, 695760, Note_off_c, 2, 79, 0
3, 695820, Note_on_c, 2, 79, 73
3, 695880, Note_off_c, 2, 79, 0
3, 695940, Note_on_c, 2, 79, 73
3, 696000, Note_off_c, 2, 79, 0
3, 696060, Note_on_c, 2, 79, 74
3, 696120, Note_off_c, 2, 79, 0
3, 696180, Note_on_c, 2, 79, 74
3, 696240, Note_off_c, 2, 79, 0
3, 696300, Note_on_c, 2, 79, 74
3, 696360, Note_off_c, 2, 79, 0
3, 696420, Note_on_c, 2, 79, 74
3, 696480, Note_off_c, 2, 79, 0
3, 696540, Note_on_c, 2, 79, 75
3, 696600, Note_off_c, 2, 79, 0
3, 696660, Note_on_c, 2, 79, 75
3, 696720, Note_off_c, 2, 79, 0
3, 696780, Note_on_c, 2, 79, 75
3, 696840, Note_off_c, 2, 79, 0
3, 696900, Note_on_c, 2, 79, 75
3, 696960, Note_off_c, 2, 79, 0
3, 697020, Note_on_c, 2, 79, 76
3, 697080, Note_off_c, 2, 79, 0
3, 697140, Note_on_c, 2, 79, 76
3, 697200, Note_off_c, 2, 79, 0
3, 697260, Note_on_c, 2, 80, 76
3, 697320, Note_off_c, 2, 80, 0
3, 697380, Note_on_c, 2, 80, 76
3, 697440, Note_off_c, 2, 80, 0
3, 697500, Note_on_c, 2, 80, 77
3, 697560, Note_off_c, 2, 80, 0
3, 697620, Note_on_c, 2, 80, 77
3, 697680, Note_off_c, 2, 80, 0
3, 697740, Note_on_c, 2, 80, 77
3, 697800, Note_off_c, 2, 80, 0
3, 697860, Note_on_c, 2, 80, 77
3, 697920, Note_off_c, 2, 80, 0
3, 697980, Note_on_c, 2, 81, 78
3, 698040, Note_off_c, 2, 81, 0
3, 698100, Note_on_c, 2, 81, 78
3, 698160, Note_off_c, 2, 81, 0
3, 698220, Note_on_c, 2, 82, 78
3, 698280, Note_off_c, 2, 82, 0
3, 698340, Note_on_c, 2, 82, 78
3, 698400, Note_off_c, 2, 82, 0
3, 698460, Note_on_c, 2, 82, 79
3, 698520, Note_off_c, 2, 82, 0
3, 698580, Note_on_c, 2, 82, 79
3, 698640, Note_off_c, 2, 82, 0
3, 698700, Note_on_c, 2, 82, 79
3, 698760, Note_off_c, 2, 82, 0
3, 698820, Note_on_c, 2, 82, 79
3, 698880, Note_off_c, 2, 82, 0
3, 705840, Note_on_c, 2, 77, 83
3, 707875, Note_off_c, 2, 77, 0
3, 737520, Note_on_c, 2, 80, 78
3, 737520, Note_on_c, 2, 74, 78
3, 737710, Note_off_c, 2, 74, 0
3, 737710, Note_off_c, 2, 80, 0
3, 738000, Note_on_c, 2, 73, 80
3, 738000, Note_on_c, 2, 79, 80
3, 738190, Note_off_c, 2, 79, 0
3, 738190, Note_off_c, 2, 73, 0
3, 739260, Note_on_c, 2, 79, 72
3, 739320, Note_off_c, 2, 79, 0
3, 739380, Note_on_c, 2, 79, 72
3, 739440, Note_off_c, 2, 79, 0
3, 739500, Note_on_c, 2, 79, 72
3, 739560, Note_off_c, 2, 79, 0
3, 739620, Note_on_c, 2, 79, 73
3, 739680, Note_off_c, 2, 79, 0
3, 739740, Note_on_c, 2, 79, 73
3, 739800, Note_off_c, 2, 79, 0
3, 739860, Note_on_c, 2, 79, 73
3, 739920, Note_off_c, 2, 79, 0
3, 739980, Note_on_c, 2, 79, 73
3, 740040, Note_off_c, 2, 79, 0
3, 740100, Note_on_c, 2, 79, 74
3, 740160, Note_off_c, 2, 79, 0
3, 740220, Note_on_c, 2, 79, 74
3, 740280, Note_off_c, 2, 79, 0
3, 740340, Note_on_c, 2, 79, 74
3, 740400, Note_off_c, 2, 79, 0
3, 740460, Note_on_c, 2, 79, 74
3, 740520, Note_off_c, 2, 79, 0
3, 740580, Note_on_c, 2, 79, 75
3, 740640, Note_off_c, 2, 79, 0
3, 740700, Note_on_c, 2, 79, 75
3, 740760, Note_off_c, 2, 79, 0
3, 740820, Note_on_c, 2, 79, 75
3, 740880, Note_off_c, 2, 79, 0
3, 740940, Note_on_c, 2, 79, 75
3, 741000, Note_off_c, 2, 79, 0
3, 741060, Note_on_c, 2, 79, 76
3, 741120, Note_off_c, 2, 79, 0
3, 741180, Note_on_c, 2, 79, 76
3, 741240, Note_off_c, 2, 79, 0
3, 741300, Note_on_c, 2, 79, 76
3, 741360, Note_off_c, 2, 79, 0
3, 741420, Note_on_c, 2, 79, 76
3, 741480, Note_off_c, 2, 79, 0
3, 741540, Note_on_c, 2, 79, 76
3, 741600, Note_off_c, 2, 79, 0
3, 741660, Note_on_c, 2, 79, 77
3, 741720, Note_off_c, 2, 79, 0
3, 741780, Note_on_c, 2, 79, 77
3, 741840, Note_off_c, 2, 79, 0
3, 741900, Note_on_c, 2, 79, 77
3, 741960, Note_off_c, 2, 79, 0
3, 742020, Note_on_c, 2, 79, 77
3, 742080, Note_off_c, 2, 79, 0
3, 742140, Note_on_c, 2, 79, 78
3, 742200, Note_off_c, 2, 79, 0
3, 742260, Note_on_c, 2, 79, 78
3, 742320, Note_off_c, 2, 79, 0
3, 742380, Note_on_c, 2, 79, 78
3, 742440, Note_off_c, 2, 79, 0
3, 742500, Note_on_c, 2, 79, 78
3, 742560, Note_off_c, 2, 79, 0
3, 742620, Note_on_c, 2, 79, 79
3, 742680, Note_off_c, 2, 79, 0
3, 742740, Note_on_c, 2, 79, 79
3, 742800, Note_off_c, 2, 79, 0
3, 742860, Note_on_c, 2, 79, 79
3, 742920, Note_off_c, 2, 79, 0
3, 742980, Note_on_c, 2, 79, 79
3, 743040, Note_off_c, 2, 79, 0
3, 743100, Note_on_c, 2, 79, 80
3, 743160, Note_off_c, 2, 79, 0
3, 743220, Note_on_c, 2, 79, 80
3, 743280, Note_off_c, 2, 79, 0
3, 743340, Note_on_c, 2, 82, 90
3, 743400, Note_off_c, 2, 82, 0
3, 743460, Note_on_c, 2, 82, 80
3, 743520, Note_off_c, 2, 82, 0
3, 743580, Note_on_c, 2, 82, 81
3, 743640, Note_off_c, 2, 82, 0
3, 743700, Note_on_c, 2, 82, 81
3, 743760, Note_off_c, 2, 82, 0
3, 743820, Note_on_c, 2, 82, 81
3, 743880, Note_off_c, 2, 82, 0
3, 743940, Note_on_c, 2, 82, 81
3, 744000, Note_off_c, 2, 82, 0
3, 744060, Note_on_c, 2, 81, 82
3, 744120, Note_off_c, 2, 81, 0
3, 744180, Note_on_c, 2, 81, 82
3, 744240, Note_off_c, 2, 81, 0
3, 744300, Note_on_c, 2, 83, 82
3, 744360, Note_off_c, 2, 83, 0
3, 744420, Note_on_c, 2, 83, 82
3, 744480, Note_off_c, 2, 83, 0
3, 744540, Note_on_c, 2, 83, 83
3, 744600, Note_off_c, 2, 83, 0
3, 744660, Note_on_c, 2, 83, 83
3, 744720, Note_off_c, 2, 83, 0
3, 744780, Note_on_c, 2, 83, 83
3, 744840, Note_off_c, 2, 83, 0
3, 744900, Note_on_c, 2, 83, 83
3, 744960, Note_off_c, 2, 83, 0
3, 745020, Note_on_c, 2, 84, 84
3, 745080, Note_off_c, 2, 84, 0
3, 745140, Note_on_c, 2, 84, 84
3, 745200, Note_off_c, 2, 84, 0
3, 745260, Note_on_c, 2, 75, 93
3, 745320, Note_off_c, 2, 75, 0
3, 745380, Note_on_c, 2, 75, 87
3, 745440, Note_off_c, 2, 75, 0
3, 745500, Note_on_c, 2, 75, 85
3, 745560, Note_off_c, 2, 75, 0
3, 745620, Note_on_c, 2, 75, 85
3, 745680, Note_off_c, 2, 75, 0
3, 745740, Note_on_c, 2, 75, 85
3, 745800, Note_off_c, 2, 75, 0
3, 745860, Note_on_c, 2, 75, 85
3, 745920, Note_off_c, 2, 75, 0
3, 747840, Note_on_c, 2, 78, 65
3, 747840, Note_on_c, 2, 81, 65
3, 747840, Note_on_c, 2, 84, 65
3, 748200, Note_off_c, 2, 84, 0
3, 748200, Note_off_c, 2, 81, 0
3, 748200, Note_off_c, 2, 78, 0
3, 748320, Note_on_c, 2, 84, 68
3, 748320, Note_on_c, 2, 81, 68
3, 748320, Note_on_c, 2, 78, 68
3, 748680, Note_off_c, 2, 78, 0
3, 748680, Note_off_c, 2, 81, 0
3, 748680, Note_off_c, 2, 84, 0
3, 748800, Note_on_c, 2, 84, 70
3, 748800, Note_on_c, 2, 81, 70
3, 748800, Note_on_c, 2, 78, 70
3, 749160, Note_off_c, 2, 78, 0
3, 749160, Note_off_c, 2, 81, 0
3, 749160, Note_off_c, 2, 84, 0
3, 749280, Note_on_c, 2, 78, 73
3, 749280, Note_on_c, 2, 81, 73
3, 749280, Note_on_c, 2, 84, 73
3, 749640, Note_off_c, 2, 84, 0
3, 749640, Note_off_c, 2, 81, 0
3, 749640, Note_off_c, 2, 78, 0
3, 751680, Note_on_c, 2, 60, 85
3, 751870, Note_off_c, 2, 60, 0
3, 752640, Note_on_c, 2, 64, 74
3, 753120, Note_off_c, 2, 64, 0
3, 753120, Note_on_c, 2, 65, 76
3, 753600, Note_off_c, 2, 65, 0
3, 753600, Note_on_c, 2, 64, 77
3, 753600, Note_on_c, 2, 60, 77
3, 753790, Note_off_c, 2, 60, 0
3, 753790, Note_off_c, 2, 64, 0
3, 754080, Note_on_c, 2, 60, 78
3, 754175, Note_off_c, 2, 60, 0
3, 754200, Note_on_c, 2, 64, 79
3, 754295, Note_off_c, 2, 64, 0
3, 754320, Note_on_c, 2, 67, 79
3, 754415, Note_off_c, 2, 67, 0
3, 754440, Note_on_c, 2, 72, 80
3, 754535, Note_off_c, 2, 72, 0
3, 754560, Note_on_c, 2, 72, 80
3, 755040, Note_off_c, 2, 72, 0
3, 755040, Note_on_c, 2, 76, 81
3, 755160, Note_off_c, 2, 76, 0
3, 755160, Note_on_c, 2, 74, 82
3, 755280, Note_off_c, 2, 74, 0
3, 755280, Note_on_c, 2, 72, 82
3, 755400, Note_off_c, 2, 72, 0
3, 755400, Note_on_c, 2, 74, 83
3, 755520, Note_off_c, 2, 74, 0
3, 755520, Note_on_c, 2, 72, 83
3, 755520, Note_on_c, 2, 60, 83
3, 755710, Note_off_c, 2, 60, 0
3, 755710, Note_off_c, 2, 72, 0
3, 756000, Note_on_c, 2, 64, 84
3, 756095, Note_off_c, 2, 64, 0
3, 756120, Note_on_c, 2, 67, 85
3, 756215, Note_off_c, 2, 67, 0
3, 756240, Note_on_c, 2, 72, 85
3, 756335, Note_off_c, 2, 72, 0
3, 756360, Note_on_c, 2, 76, 85
3, 756455, Note_off_c, 2, 76, 0
3, 756480, Note_on_c, 2, 76, 86
3, 756960, Note_off_c, 2, 76, 0
3, 756960, Note_on_c, 2, 74, 87
3, 757440, Note_off_c, 2, 74, 0
3, 757440, Note_on_c, 2, 72, 89
3, 757630, Note_off_c, 2, 72, 0
3, 759360, Note_on_c, 2, 76, 95
3, 759360, Note_on_c, 2, 79, 95
3, 759550, Note_off_c, 2, 79, 0
3, 759550, Note_off_c, 2, 76, 0
3, 760080, Note_on_c, 2, 74, 97
3, 760080, Note_on_c, 2, 79, 97
3, 760270, Note_off_c, 2, 79, 0
3, 760270, Note_off_c, 2, 74, 0
3, 760320, Note_on_c, 2, 76, 98
3, 760320, Note_on_c, 2, 79, 98
3, 760510, Note_off_c, 2, 79, 0
3, 760510, Note_off_c, 2, 76, 0
3, 761040, Note_on_c, 2, 74, 100
3, 761040, Note_on_c, 2, 79, 100
3, 761230, Note_off_c, 2, 79, 0
3, 761230, Note_off_c, 2, 74, 0
3, 761280, Note_on_c, 2, 76, 101
3, 761280, Note_on_c, 2, 79, 101
3, 761760, Note_off_c, 2, 79, 0
3, 761760, Note_off_c, 2, 76, 0
3, 768240, Note_on_c, 2, 55, 31
3, 768240, Note_on_c, 2, 52, 31
3, 768430, Note_off_c, 2, 52, 0
3, 768430, Note_off_c, 2, 55, 0
3, 768480, Note_on_c, 2, 55, 28
3, 768480, Note_on_c, 2, 52, 28
3, 768670, Note_off_c, 2, 52, 0
3, 768670, Note_off_c, 2, 55, 0
3, 768720, Note_on_c, 2, 52, 25
3, 768720, Note_on_c, 2, 55, 25
3, 768910, Note_off_c, 2, 55, 0
3, 768910, Note_off_c, 2, 52, 0
3, 768960, Note_on_c, 2, 52, 23
3, 768960, Note_on_c, 2, 55, 23
3, 769440, Note_off_c, 2, 55, 0
3, 769440, Note_off_c, 2, 52, 0
3, 769440, End_track
4, 0, Start_track
4, 0, Title_t, "Unnamed Track"
4, 0, Control_c, 3, 0, 0
4, 0, Control_c, 3, 32, 0
4, 0, Program_c, 3, 0
4, 0, Control_c, 3, 7, 112
4, 0, Pitch_bend_c, 3, 8192
4, 0, Control_c, 3, 1, 0
4, 0, Control_c, 3, 1, 0
4, 0, Pitch_bend_c, 3, 8192
4, 0, Control_c, 3, 93, 18
4, 0, Pitch_bend_c, 3, 8192
4, 0, Control_c, 3, 64, 0
4, 0, Control_c, 3, 93, 28
4, 0, Control_c, 3, 91, 100
4, 0, Control_c, 3, 10, 64
4, 0, Control_c, 3, 64, 0
4, 6000, Note_on_c, 3, 67, 58
4, 6240, Note_off_c, 3, 67, 0
4, 6480, Note_on_c, 3, 67, 57
4, 6690, Note_off_c, 3, 67, 0
4, 6960, Note_on_c, 3, 67, 57
4, 7200, Note_off_c, 3, 67, 0
4, 7440, Note_on_c, 3, 67, 56
4, 7650, Note_off_c, 3, 67, 0
4, 7920, Note_on_c, 3, 67, 55
4, 8160, Note_off_c, 3, 67, 0
4, 8400, Note_on_c, 3, 67, 54
4, 8610, Note_off_c, 3, 67, 0
4, 8880, Note_on_c, 3, 67, 54
4, 9120, Note_off_c, 3, 67, 0
4, 9360, Note_on_c, 3, 67, 53
4, 9575, Note_off_c, 3, 67, 0
4, 9840, Note_on_c, 3, 67, 52
4, 10080, Note_off_c, 3, 67, 0
4, 10320, Note_on_c, 3, 67, 52
4, 10535, Note_off_c, 3, 67, 0
4, 10800, Note_on_c, 3, 67, 51
4, 11040, Note_off_c, 3, 67, 0
4, 11280, Note_on_c, 3, 67, 50
4, 11495, Note_off_c, 3, 67, 0
4, 11520, Note_on_c, 3, 69, 50
4, 13410, Note_off_c, 3, 69, 0
4, 19440, Note_on_c, 3, 67, 55
4, 19680, Note_off_c, 3, 67, 0
4, 19920, Note_on_c, 3, 67, 55
4, 20135, Note_off_c, 3, 67, 0
4, 20400, Note_on_c, 3, 67, 54
4, 20640, Note_off_c, 3, 67, 0
4, 20880, Note_on_c, 3, 67, 53
4, 21090, Note_off_c, 3, 67, 0
4, 21360, Note_on_c, 3, 67, 52
4, 21600, Note_off_c, 3, 67, 0
4, 21840, Note_on_c, 3, 67, 51
4, 22050, Note_off_c, 3, 67, 0
4, 22320, Note_on_c, 3, 67, 50
4, 22560, Note_off_c, 3, 67, 0
4, 22800, Note_on_c, 3, 67, 49
4, 23010, Note_off_c, 3, 67, 0
4, 23280, Note_on_c, 3, 67, 48
4, 23520, Note_off_c, 3, 67, 0
4, 23760, Note_on_c, 3, 67, 47
4, 23975, Note_off_c, 3, 67, 0
4, 24240, Note_on_c, 3, 67, 46
4, 24480, Note_off_c, 3, 67, 0
4, 24720, Note_on_c, 3, 67, 46
4, 24935, Note_off_c, 3, 67, 0
4, 29040, Note_on_c, 3, 60, 76
4, 29280, Note_off_c, 3, 60, 0
4, 29520, Note_on_c, 3, 60, 73
4, 29760, Note_off_c, 3, 60, 0
4, 30000, Note_on_c, 3, 60, 71
4, 30240, Note_off_c, 3, 60, 0
4, 30480, Note_on_c, 3, 60, 68
4, 30690, Note_off_c, 3, 60, 0
4, 30960, Note_on_c, 3, 60, 73
4, 31200, Note_off_c, 3, 60, 0
4, 31440, Note_on_c, 3, 60, 69
4, 31680, Note_off_c, 3, 60, 0
4, 31920, Note_on_c, 3, 60, 66
4, 32160, Note_off_c, 3, 60, 0
4, 32400, Note_on_c, 3, 60, 62
4, 32600, Note_off_c, 3, 60, 0
4, 32880, Note_on_c, 3, 57, 58
4, 33120, Note_off_c, 3, 57, 0
4, 33360, Note_on_c, 3, 62, 54
4, 33600, Note_off_c, 3, 62, 0
4, 33840, Note_on_c, 3, 64, 51
4, 34080, Note_off_c, 3, 64, 0
4, 34320, Note_on_c, 3, 62, 47
4, 34530, Note_off_c, 3, 62, 0
4, 34800, Note_on_c, 3, 60, 70
4, 35040, Note_off_c, 3, 60, 0
4, 35280, Note_on_c, 3, 60, 66
4, 35520, Note_off_c, 3, 60, 0
4, 35760, Note_on_c, 3, 60, 62
4, 36000, Note_off_c, 3, 60, 0
4, 36240, Note_on_c, 3, 60, 58
4, 36450, Note_off_c, 3, 60, 0
4, 36720, Note_on_c, 3, 60, 65
4, 36960, Note_off_c, 3, 60, 0
4, 37200, Note_on_c, 3, 60, 62
4, 37440, Note_off_c, 3, 60, 0
4, 37680, Note_on_c, 3, 60, 59
4, 37920, Note_off_c, 3, 60, 0
4, 38160, Note_on_c, 3, 60, 57
4, 38375, Note_off_c, 3, 60, 0
4, 38640, Note_on_c, 3, 60, 54
4, 38880, Note_off_c, 3, 60, 0
4, 39120, Note_on_c, 3, 62, 51
4, 39360, Note_off_c, 3, 62, 0
4, 39600, Note_on_c, 3, 60, 48
4, 39840, Note_off_c, 3, 60, 0
4, 40080, Note_on_c, 3, 59, 45
4, 40290, Note_off_c, 3, 59, 0
4, 40560, Note_on_c, 3, 64, 36
4, 40560, Note_on_c, 3, 60, 36
4, 40750, Note_off_c, 3, 60, 0
4, 40750, Note_off_c, 3, 64, 0
4, 40800, Note_on_c, 3, 64, 37
4, 40800, Note_on_c, 3, 60, 37
4, 40990, Note_off_c, 3, 60, 0
4, 40990, Note_off_c, 3, 64, 0
4, 41040, Note_on_c, 3, 64, 38
4, 41040, Note_on_c, 3, 60, 38
4, 41230, Note_off_c, 3, 60, 0
4, 41230, Note_off_c, 3, 64, 0
4, 41280, Note_on_c, 3, 64, 39
4, 41280, Note_on_c, 3, 60, 39
4, 41470, Note_off_c, 3, 60, 0
4, 41470, Note_off_c, 3, 64, 0
4, 41520, Note_on_c, 3, 64, 39
4, 41520, Note_on_c, 3, 60, 39
4, 41710, Note_off_c, 3, 60, 0
4, 41710, Note_off_c, 3, 64, 0
4, 41760, Note_on_c, 3, 64, 40
4, 41760, Note_on_c, 3, 60, 40
4, 41950, Note_off_c, 3, 60, 0
4, 41950, Note_off_c, 3, 64, 0
4, 42000, Note_on_c, 3, 64, 41
4, 42000, Note_on_c, 3, 60, 41
4, 42190, Note_off_c, 3, 60, 0
4, 42190, Note_off_c, 3, 64, 0
4, 42240, Note_on_c, 3, 64, 42
4, 42240, Note_on_c, 3, 60, 42
4, 42430, Note_off_c, 3, 60, 0
4, 42430, Note_off_c, 3, 64, 0
4, 42480, Note_on_c, 3, 64, 42
4, 42480, Note_on_c, 3, 60, 42
4, 42670, Note_off_c, 3, 60, 0
4, 42670, Note_off_c, 3, 64, 0
4, 42720, Note_on_c, 3, 64, 43
4, 42720, Note_on_c, 3, 60, 43
4, 42910, Note_off_c, 3, 60, 0
4, 42910, Note_off_c, 3, 64, 0
4, 42960, Note_on_c, 3, 64, 44
4, 42960, Note_on_c, 3, 60, 44
4, 43150, Note_off_c, 3, 60, 0
4, 43150, Note_off_c, 3, 64, 0
4, 43200, Note_on_c, 3, 64, 45
4, 43200, Note_on_c, 3, 60, 45
4, 43390, Note_off_c, 3, 60, 0
4, 43390, Note_off_c, 3, 64, 0
4, 43440, Note_on_c, 3, 64, 45
4, 43440, Note_on_c, 3, 60, 45
4, 43630, Note_off_c, 3, 60, 0
4, 43630, Note_off_c, 3, 64, 0
4, 43680, Note_on_c, 3, 64, 46
4, 43680, Note_on_c, 3, 60, 46
4, 43870, Note_off_c, 3, 60, 0
4, 43870, Note_off_c, 3, 64, 0
4, 43920, Note_on_c, 3, 64, 47
4, 43920, Note_on_c, 3, 60, 47
4, 44110, Note_off_c, 3, 60, 0
4, 44110, Note_off_c, 3, 64, 0
4, 44400, Note_on_c, 3, 59, 48
4, 44400, Note_on_c, 3, 62, 48
4, 44590, Note_off_c, 3, 62, 0
4, 44590, Note_off_c, 3, 59, 0
4, 44640, Note_on_c, 3, 59, 49
4, 44640, Note_on_c, 3, 62, 49
4, 44830, Note_off_c, 3, 62, 0
4, 44830, Note_off_c, 3, 59, 0
4, 44880, Note_on_c, 3, 59, 50
4, 44880, Note_on_c, 3, 62, 50
4, 45070, Note_off_c, 3, 62, 0
4, 45070, Note_off_c, 3, 59, 0
4, 45120, Note_on_c, 3, 59, 51
4, 45120, Note_on_c, 3, 62, 51
4, 45310, Note_off_c, 3, 62, 0
4, 45310, Note_off_c, 3, 59, 0
4, 45360, Note_on_c, 3, 59, 51
4, 45360, Note_on_c, 3, 62, 51
4, 45550, Note_off_c, 3, 62, 0
4, 45550, Note_off_c, 3, 59, 0
4, 45600, Note_on_c, 3, 59, 52
4, 45600, Note_on_c, 3, 62, 52
4, 45790, Note_off_c, 3, 62, 0
4, 45790, Note_off_c, 3, 59, 0
4, 45840, Note_on_c, 3, 59, 53
4, 45840, Note_on_c, 3, 62, 53
4, 46030, Note_off_c, 3, 62, 0
4, 46030, Note_off_c, 3, 59, 0
4, 46080, Note_on_c, 3, 59, 54
4, 46080, Note_on_c, 3, 62, 54
4, 46270, Note_off_c, 3, 62, 0
4, 46270, Note_off_c, 3, 59, 0
4, 46320, Note_on_c, 3, 59, 54
4, 46320, Note_on_c, 3, 62, 54
4, 46510, Note_off_c, 3, 62, 0
4, 46510, Note_off_c, 3, 59, 0
4, 46560, Note_on_c, 3, 59, 55
4, 46560, Note_on_c, 3, 62, 55
4, 46750, Note_off_c, 3, 62, 0
4, 46750, Note_off_c, 3, 59, 0
4, 46800, Note_on_c, 3, 62, 56
4, 46800, Note_on_c, 3, 59, 56
4, 46990, Note_off_c, 3, 59, 0
4, 46990, Note_off_c, 3, 62, 0
4, 47040, Note_on_c, 3, 59, 57
4, 47040, Note_on_c, 3, 62, 57
4, 47230, Note_off_c, 3, 62, 0
4, 47230, Note_off_c, 3, 59, 0
4, 47280, Note_on_c, 3, 59, 57
4, 47280, Note_on_c, 3, 62, 57
4, 47470, Note_off_c, 3, 62, 0
4, 47470, Note_off_c, 3, 59, 0
4, 47520, Note_on_c, 3, 59, 58
4, 47520, Note_on_c, 3, 62, 58
4, 47710, Note_off_c, 3, 62, 0
4, 47710, Note_off_c, 3, 59, 0
4, 47760, Note_on_c, 3, 62, 59
4, 47760, Note_on_c, 3, 59, 59
4, 47950, Note_off_c, 3, 59, 0
4, 47950, Note_off_c, 3, 62, 0
4, 48240, Note_on_c, 3, 57, 60
4, 48240, Note_on_c, 3, 54, 60
4, 48240, Note_on_c, 3, 62, 60
4, 48430, Note_off_c, 3, 62, 0
4, 48430, Note_off_c, 3, 54, 0
4, 48430, Note_off_c, 3, 57, 0
4, 48480, Note_on_c, 3, 57, 61
4, 48480, Note_on_c, 3, 62, 61
4, 48480, Note_on_c, 3, 54, 61
4, 48670, Note_off_c, 3, 54, 0
4, 48670, Note_off_c, 3, 62, 0
4, 48670, Note_off_c, 3, 57, 0
4, 48720, Note_on_c, 3, 57, 62
4, 48720, Note_on_c, 3, 62, 62
4, 48720, Note_on_c, 3, 54, 62
4, 48910, Note_off_c, 3, 54, 0
4, 48910, Note_off_c, 3, 62, 0
4, 48910, Note_off_c, 3, 57, 0
4, 48960, Note_on_c, 3, 57, 63
4, 48960, Note_on_c, 3, 62, 63
4, 48960, Note_on_c, 3, 54, 63
4, 49150, Note_off_c, 3, 54, 0
4, 49150, Note_off_c, 3, 62, 0
4, 49150, Note_off_c, 3, 57, 0
4, 49200, Note_on_c, 3, 62, 63
4, 49200, Note_on_c, 3, 54, 63
4, 49200, Note_on_c, 3, 57, 63
4, 49390, Note_off_c, 3, 57, 0
4, 49390, Note_off_c, 3, 54, 0
4, 49390, Note_off_c, 3, 62, 0
4, 49440, Note_on_c, 3, 57, 64
4, 49440, Note_on_c, 3, 62, 64
4, 49440, Note_on_c, 3, 54, 64
4, 49630, Note_off_c, 3, 54, 0
4, 49630, Note_off_c, 3, 62, 0
4, 49630, Note_off_c, 3, 57, 0
4, 49680, Note_on_c, 3, 57, 65
4, 49680, Note_on_c, 3, 62, 65
4, 49680, Note_on_c, 3, 54, 65
4, 49870, Note_off_c, 3, 54, 0
4, 49870, Note_off_c, 3, 62, 0
4, 49870, Note_off_c, 3, 57, 0
4, 49920, Note_on_c, 3, 62, 66
4, 49920, Note_on_c, 3, 57, 66
4, 49920, Note_on_c, 3, 54, 66
4, 50110, Note_off_c, 3, 54, 0
4, 50110, Note_off_c, 3, 57, 0
4, 50110, Note_off_c, 3, 62, 0
4, 50160, Note_on_c, 3, 57, 66
4, 50160, Note_on_c, 3, 62, 66
4, 50160, Note_on_c, 3, 54, 66
4, 50350, Note_off_c, 3, 54, 0
4, 50350, Note_off_c, 3, 62, 0
4, 50350, Note_off_c, 3, 57, 0
4, 50400, Note_on_c, 3, 54, 67
4, 50400, Note_on_c, 3, 62, 67
4, 50400, Note_on_c, 3, 57, 67
4, 50590, Note_off_c, 3, 57, 0
4, 50590, Note_off_c, 3, 62, 0
4, 50590, Note_off_c, 3, 54, 0
4, 50640, Note_on_c, 3, 62, 68
4, 50640, Note_on_c, 3, 57, 68
4, 50640, Note_on_c, 3, 54, 68
4, 50830, Note_off_c, 3, 54, 0
4, 50830, Note_off_c, 3, 57, 0
4, 50830, Note_off_c, 3, 62, 0
4, 50880, Note_on_c, 3, 62, 69
4, 50880, Note_on_c, 3, 57, 69
4, 50880, Note_on_c, 3, 54, 69
4, 51070, Note_off_c, 3, 54, 0
4, 51070, Note_off_c, 3, 57, 0
4, 51070, Note_off_c, 3, 62, 0
4, 51120, Note_on_c, 3, 62, 69
4, 51120, Note_on_c, 3, 54, 69
4, 51120, Note_on_c, 3, 57, 69
4, 51310, Note_off_c, 3, 57, 0
4, 51310, Note_off_c, 3, 54, 0
4, 51310, Note_off_c, 3, 62, 0
4, 51360, Note_on_c, 3, 62, 70
4, 51360, Note_on_c, 3, 54, 70
4, 51360, Note_on_c, 3, 57, 70
4, 51550, Note_off_c, 3, 57, 0
4, 51550, Note_off_c, 3, 54, 0
4, 51550, Note_off_c, 3, 62, 0
4, 51600, Note_on_c, 3, 62, 71
4, 51600, Note_on_c, 3, 57, 71
4, 51600, Note_on_c, 3, 54, 71
4, 51790, Note_off_c, 3, 54, 0
4, 51790, Note_off_c, 3, 57, 0
4, 51790, Note_off_c, 3, 62, 0
4, 52080, Note_on_c, 3, 62, 70
4, 52270, Note_off_c, 3, 62, 0
4, 52560, Note_on_c, 3, 62, 72
4, 52750, Note_off_c, 3, 62, 0
4, 53040, Note_on_c, 3, 62, 73
4, 53230, Note_off_c, 3, 62, 0
4, 53520, Note_on_c, 3, 62, 74
4, 53710, Note_off_c, 3, 62, 0
4, 54000, Note_on_c, 3, 62, 75
4, 54190, Note_off_c, 3, 62, 0
4, 54480, Note_on_c, 3, 62, 76
4, 54670, Note_off_c, 3, 62, 0
4, 54960, Note_on_c, 3, 62, 77
4, 55150, Note_off_c, 3, 62, 0
4, 55440, Note_on_c, 3, 62, 79
4, 55630, Note_off_c, 3, 62, 0
4, 63600, Note_on_c, 3, 62, 38
4, 63840, Note_off_c, 3, 62, 0
4, 64080, Note_on_c, 3, 62, 39
4, 64320, Note_off_c, 3, 62, 0
4, 64560, Note_on_c, 3, 62, 39
4, 64800, Note_off_c, 3, 62, 0
4, 65040, Note_on_c, 3, 62, 40
4, 65280, Note_off_c, 3, 62, 0
4, 65520, Note_on_c, 3, 62, 40
4, 65760, Note_off_c, 3, 62, 0
4, 66000, Note_on_c, 3, 62, 41
4, 66240, Note_off_c, 3, 62, 0
4, 66480, Note_on_c, 3, 62, 41
4, 66720, Note_off_c, 3, 62, 0
4, 66960, Note_on_c, 3, 62, 42
4, 67180, Note_off_c, 3, 62, 0
4, 67440, Note_on_c, 3, 62, 42
4, 67680, Note_off_c, 3, 62, 0
4, 67920, Note_on_c, 3, 62, 43
4, 68160, Note_off_c, 3, 62, 0
4, 68400, Note_on_c, 3, 62, 44
4, 68640, Note_off_c, 3, 62, 0
4, 68880, Note_on_c, 3, 62, 44
4, 69100, Note_off_c, 3, 62, 0
4, 69360, Note_on_c, 3, 62, 45
4, 69600, Note_off_c, 3, 62, 0
4, 69840, Note_on_c, 3, 62, 45
4, 70080, Note_off_c, 3, 62, 0
4, 70320, Note_on_c, 3, 62, 46
4, 70560, Note_off_c, 3, 62, 0
4, 70800, Note_on_c, 3, 62, 46
4, 71020, Note_off_c, 3, 62, 0
4, 71280, Note_on_c, 3, 62, 47
4, 71520, Note_off_c, 3, 62, 0
4, 71760, Note_on_c, 3, 62, 47
4, 72000, Note_off_c, 3, 62, 0
4, 72240, Note_on_c, 3, 62, 48
4, 72480, Note_off_c, 3, 62, 0
4, 72720, Note_on_c, 3, 62, 48
4, 72940, Note_off_c, 3, 62, 0
4, 73200, Note_on_c, 3, 62, 49
4, 73440, Note_off_c, 3, 62, 0
4, 73680, Note_on_c, 3, 61, 50
4, 73920, Note_off_c, 3, 61, 0
4, 75120, Note_on_c, 3, 62, 51
4, 75360, Note_off_c, 3, 62, 0
4, 75600, Note_on_c, 3, 62, 52
4, 75840, Note_off_c, 3, 62, 0
4, 76080, Note_on_c, 3, 62, 52
4, 76320, Note_off_c, 3, 62, 0
4, 76560, Note_on_c, 3, 62, 53
4, 76780, Note_off_c, 3, 62, 0
4, 77040, Note_on_c, 3, 62, 53
4, 77280, Note_off_c, 3, 62, 0
4, 77520, Note_on_c, 3, 62, 54
4, 77760, Note_off_c, 3, 62, 0
4, 78000, Note_on_c, 3, 62, 54
4, 78240, Note_off_c, 3, 62, 0
4, 78480, Note_on_c, 3, 62, 55
4, 78700, Note_off_c, 3, 62, 0
4, 78960, Note_on_c, 3, 62, 56
4, 79200, Note_off_c, 3, 62, 0
4, 79440, Note_on_c, 3, 62, 56
4, 79680, Note_off_c, 3, 62, 0
4, 79920, Note_on_c, 3, 62, 57
4, 80160, Note_off_c, 3, 62, 0
4, 80400, Note_on_c, 3, 62, 57
4, 80620, Note_off_c, 3, 62, 0
4, 80880, Note_on_c, 3, 62, 58
4, 81100, Note_off_c, 3, 62, 0
4, 81360, Note_on_c, 3, 61, 58
4, 81580, Note_off_c, 3, 61, 0
4, 81840, Note_on_c, 3, 62, 59
4, 81996, Note_off_c, 3, 62, 0
4, 82320, Note_on_c, 3, 60, 59
4, 82476, Note_off_c, 3, 60, 0
4, 86640, Note_on_c, 3, 55, 49
4, 86880, Note_off_c, 3, 55, 0
4, 86880, Note_on_c, 3, 59, 49
4, 87120, Note_off_c, 3, 59, 0
4, 87120, Note_on_c, 3, 55, 50
4, 87360, Note_off_c, 3, 55, 0
4, 87600, Note_on_c, 3, 57, 52
4, 87840, Note_off_c, 3, 57, 0
4, 87840, Note_on_c, 3, 60, 52
4, 88080, Note_off_c, 3, 60, 0
4, 88080, Note_on_c, 3, 57, 53
4, 88300, Note_off_c, 3, 57, 0
4, 92160, Note_on_c, 3, 62, 79
4, 92400, Note_on_c, 3, 67, 64
4, 92520, Note_off_c, 3, 62, 0
4, 92590, Note_off_c, 3, 67, 0
4, 92640, Note_on_c, 3, 64, 80
4, 92880, Note_on_c, 3, 67, 65
4, 93000, Note_off_c, 3, 64, 0
4, 93070, Note_off_c, 3, 67, 0
4, 93120, Note_on_c, 3, 62, 65
4, 93360, Note_on_c, 3, 67, 66
4, 93480, Note_off_c, 3, 62, 0
4, 93550, Note_off_c, 3, 67, 0
4, 93600, Note_on_c, 3, 60, 82
4, 93840, Note_on_c, 3, 67, 67
4, 93960, Note_off_c, 3, 60, 0
4, 94030, Note_off_c, 3, 67, 0
4, 94080, Note_on_c, 3, 59, 67
4, 94320, Note_on_c, 3, 67, 68
4, 94440, Note_off_c, 3, 59, 0
4, 94510, Note_off_c, 3, 67, 0
4, 94560, Note_on_c, 3, 64, 84
4, 94800, Note_on_c, 3, 67, 69
4, 94920, Note_off_c, 3, 64, 0
4, 94990, Note_off_c, 3, 67, 0
4, 95040, Note_on_c, 3, 62, 70
4, 95280, Note_on_c, 3, 67, 70
4, 95400, Note_off_c, 3, 62, 0
4, 95470, Note_off_c, 3, 67, 0
4, 95520, Note_on_c, 3, 60, 84
4, 95760, Note_on_c, 3, 67, 71
4, 95880, Note_off_c, 3, 60, 0
4, 95950, Note_off_c, 3, 67, 0
4, 96000, Note_on_c, 3, 62, 84
4, 96000, Note_on_c, 3, 68, 84
4, 96190, Note_off_c, 3, 68, 0
4, 96190, Note_off_c, 3, 62, 0
4, 96240, Note_on_c, 3, 62, 85
4, 96240, Note_on_c, 3, 68, 85
4, 96430, Note_off_c, 3, 68, 0
4, 96430, Note_off_c, 3, 62, 0
4, 96480, Note_on_c, 3, 62, 86
4, 96480, Note_on_c, 3, 68, 86
4, 96670, Note_off_c, 3, 68, 0
4, 96670, Note_off_c, 3, 62, 0
4, 96720, Note_on_c, 3, 62, 87
4, 96720, Note_on_c, 3, 68, 87
4, 96910, Note_off_c, 3, 68, 0
4, 96910, Note_off_c, 3, 62, 0
4, 96960, Note_on_c, 3, 62, 88
4, 96960, Note_on_c, 3, 68, 88
4, 97150, Note_off_c, 3, 68, 0
4, 97150, Note_off_c, 3, 62, 0
4, 97200, Note_on_c, 3, 68, 89
4, 97200, Note_on_c, 3, 62, 89
4, 97390, Note_off_c, 3, 62, 0
4, 97390, Note_off_c, 3, 68, 0
4, 97440, Note_on_c, 3, 62, 89
4, 97440, Note_on_c, 3, 68, 89
4, 97630, Note_off_c, 3, 68, 0
4, 97630, Note_off_c, 3, 62, 0
4, 97680, Note_on_c, 3, 68, 90
4, 97680, Note_on_c, 3, 62, 90
4, 97870, Note_off_c, 3, 62, 0
4, 97870, Note_off_c, 3, 68, 0
4, 97920, Note_on_c, 3, 64, 91
4, 97920, Note_on_c, 3, 69, 91
4, 98400, Note_off_c, 3, 69, 0
4, 98400, Note_off_c, 3, 64, 0
4, 99840, Control_c, 3, 64, 127
4, 99960, Note_on_c, 3, 59, 77
4, 100080, Note_off_c, 3, 59, 0
4, 100080, Note_on_c, 3, 55, 77
4, 100200, Note_off_c, 3, 55, 0
4, 100200, Note_on_c, 3, 59, 77
4, 100320, Note_off_c, 3, 59, 0
4, 100440, Note_on_c, 3, 59, 78
4, 100560, Note_off_c, 3, 59, 0
4, 100560, Note_on_c, 3, 55, 79
4, 100680, Note_off_c, 3, 55, 0
4, 100680, Note_on_c, 3, 59, 79
4, 100800, Note_off_c, 3, 59, 0
4, 100920, Note_on_c, 3, 59, 80
4, 101040, Note_off_c, 3, 59, 0
4, 101040, Note_on_c, 3, 55, 80
4, 101160, Note_off_c, 3, 55, 0
4, 101160, Note_on_c, 3, 59, 81
4, 101280, Note_off_c, 3, 59, 0
4, 101400, Note_on_c, 3, 59, 81
4, 101520, Note_off_c, 3, 59, 0
4, 101520, Note_on_c, 3, 55, 82
4, 101640, Note_off_c, 3, 55, 0
4, 101640, Note_on_c, 3, 59, 82
4, 101700, Control_c, 3, 64, 0
4, 101760, Control_c, 3, 64, 127
4, 101760, Note_off_c, 3, 59, 0
4, 101880, Note_on_c, 3, 60, 83
4, 102000, Note_off_c, 3, 60, 0
4, 102000, Note_on_c, 3, 54, 83
4, 102120, Note_off_c, 3, 54, 0
4, 102120, Note_on_c, 3, 60, 84
4, 102240, Note_off_c, 3, 60, 0
4, 102360, Note_on_c, 3, 60, 85
4, 102480, Note_off_c, 3, 60, 0
4, 102480, Note_on_c, 3, 54, 85
4, 102600, Note_off_c, 3, 54, 0
4, 102600, Note_on_c, 3, 60, 85
4, 102720, Note_off_c, 3, 60, 0
4, 102840, Note_on_c, 3, 60, 86
4, 102960, Note_off_c, 3, 60, 0
4, 102960, Note_on_c, 3, 54, 87
4, 103080, Note_off_c, 3, 54, 0
4, 103080, Note_on_c, 3, 60, 87
4, 103200, Note_off_c, 3, 60, 0
4, 103320, Note_on_c, 3, 60, 88
4, 103440, Note_off_c, 3, 60, 0
4, 103440, Note_on_c, 3, 54, 88
4, 103560, Note_off_c, 3, 54, 0
4, 103560, Note_on_c, 3, 60, 89
4, 103620, Control_c, 3, 64, 0
4, 103680, Note_off_c, 3, 60, 0
4, 120960, Note_on_c, 3, 62, 40
4, 121200, Note_on_c, 3, 67, 40
4, 121320, Note_off_c, 3, 62, 0
4, 121440, Note_off_c, 3, 67, 0
4, 121440, Note_on_c, 3, 62, 40
4, 121680, Note_on_c, 3, 67, 41
4, 121800, Note_off_c, 3, 62, 0
4, 121920, Note_off_c, 3, 67, 0
4, 121920, Note_on_c, 3, 62, 41
4, 122160, Note_on_c, 3, 67, 42
4, 122280, Note_off_c, 3, 62, 0
4, 122400, Note_off_c, 3, 67, 0
4, 122400, Note_on_c, 3, 62, 42
4, 122640, Note_on_c, 3, 67, 42
4, 122760, Note_off_c, 3, 62, 0
4, 122860, Note_off_c, 3, 67, 0
4, 122880, Note_on_c, 3, 64, 43
4, 123120, Note_on_c, 3, 67, 43
4, 123240, Note_off_c, 3, 64, 0
4, 123360, Note_off_c, 3, 67, 0
4, 123360, Note_on_c, 3, 64, 43
4, 123600, Note_on_c, 3, 67, 44
4, 123720, Note_off_c, 3, 64, 0
4, 123840, Note_off_c, 3, 67, 0
4, 123840, Note_on_c, 3, 64, 44
4, 124080, Note_on_c, 3, 67, 45
4, 124200, Note_off_c, 3, 64, 0
4, 124320, Note_off_c, 3, 67, 0
4, 124320, Note_on_c, 3, 64, 45
4, 124560, Note_on_c, 3, 67, 45
4, 124680, Note_off_c, 3, 64, 0
4, 124780, Note_off_c, 3, 67, 0
4, 124800, Note_on_c, 3, 62, 46
4, 125040, Note_on_c, 3, 67, 46
4, 125160, Note_off_c, 3, 62, 0
4, 125280, Note_off_c, 3, 67, 0
4, 125280, Note_on_c, 3, 62, 46
4, 125520, Note_on_c, 3, 67, 47
4, 125640, Note_off_c, 3, 62, 0
4, 125760, Note_off_c, 3, 67, 0
4, 125760, Note_on_c, 3, 62, 47
4, 126000, Note_on_c, 3, 67, 48
4, 126120, Note_off_c, 3, 62, 0
4, 126240, Note_off_c, 3, 67, 0
4, 126240, Note_on_c, 3, 62, 48
4, 126480, Note_on_c, 3, 67, 48
4, 126600, Note_off_c, 3, 62, 0
4, 126700, Note_off_c, 3, 67, 0
4, 126720, Note_on_c, 3, 64, 49
4, 126960, Note_on_c, 3, 67, 49
4, 127080, Note_off_c, 3, 64, 0
4, 127200, Note_off_c, 3, 67, 0
4, 127200, Note_on_c, 3, 64, 49
4, 127440, Note_on_c, 3, 67, 50
4, 127560, Note_off_c, 3, 64, 0
4, 127680, Note_off_c, 3, 67, 0
4, 127680, Note_on_c, 3, 64, 50
4, 127920, Note_on_c, 3, 67, 50
4, 128040, Note_off_c, 3, 64, 0
4, 128140, Note_off_c, 3, 67, 0
4, 128160, Note_on_c, 3, 64, 51
4, 128400, Note_on_c, 3, 67, 51
4, 128542, Note_off_c, 3, 64, 0
4, 128610, Note_off_c, 3, 67, 0
4, 132480, Note_on_c, 3, 57, 48
4, 132720, Note_on_c, 3, 62, 49
4, 132840, Note_off_c, 3, 57, 0
4, 132960, Note_off_c, 3, 62, 0
4, 132960, Note_on_c, 3, 57, 49
4, 133200, Note_on_c, 3, 62, 50
4, 133320, Note_off_c, 3, 57, 0
4, 133440, Note_off_c, 3, 62, 0
4, 133440, Note_on_c, 3, 57, 50
4, 133680, Note_on_c, 3, 62, 50
4, 133800, Note_off_c, 3, 57, 0
4, 133920, Note_off_c, 3, 62, 0
4, 133920, Note_on_c, 3, 57, 51
4, 134160, Note_on_c, 3, 62, 51
4, 134280, Note_off_c, 3, 57, 0
4, 134375, Note_off_c, 3, 62, 0
4, 134400, Note_on_c, 3, 59, 51
4, 134640, Note_on_c, 3, 62, 52
4, 134760, Note_off_c, 3, 59, 0
4, 134880, Note_off_c, 3, 62, 0
4, 134880, Note_on_c, 3, 59, 52
4, 135120, Note_on_c, 3, 62, 52
4, 135240, Note_off_c, 3, 59, 0
4, 135360, Note_off_c, 3, 62, 0
4, 135360, Note_on_c, 3, 59, 53
4, 135600, Note_on_c, 3, 62, 53
4, 135720, Note_off_c, 3, 59, 0
4, 135840, Note_off_c, 3, 62, 0
4, 135840, Note_on_c, 3, 59, 53
4, 136080, Note_on_c, 3, 62, 54
4, 136200, Note_off_c, 3, 59, 0
4, 136290, Note_off_c, 3, 62, 0
4, 136320, Note_on_c, 3, 57, 54
4, 136560, Note_on_c, 3, 62, 54
4, 136680, Note_off_c, 3, 57, 0
4, 136800, Note_off_c, 3, 62, 0
4, 136800, Note_on_c, 3, 57, 55
4, 137040, Note_on_c, 3, 62, 55
4, 137160, Note_off_c, 3, 57, 0
4, 137280, Note_off_c, 3, 62, 0
4, 137280, Note_on_c, 3, 57, 55
4, 137520, Note_on_c, 3, 62, 56
4, 137640, Note_off_c, 3, 57, 0
4, 137760, Note_off_c, 3, 62, 0
4, 137760, Note_on_c, 3, 57, 56
4, 138000, Note_on_c, 3, 62, 57
4, 138120, Note_off_c, 3, 57, 0
4, 138215, Note_off_c, 3, 62, 0
4, 138240, Note_on_c, 3, 59, 57
4, 138480, Note_on_c, 3, 62, 57
4, 138600, Note_off_c, 3, 59, 0
4, 138720, Note_off_c, 3, 62, 0
4, 138720, Note_on_c, 3, 59, 58
4, 138960, Note_on_c, 3, 62, 58
4, 139080, Note_off_c, 3, 59, 0
4, 139200, Note_off_c, 3, 62, 0
4, 139200, Note_on_c, 3, 59, 58
4, 139440, Note_on_c, 3, 62, 59
4, 139560, Note_off_c, 3, 59, 0
4, 139680, Note_off_c, 3, 62, 0
4, 139680, Note_on_c, 3, 59, 59
4, 139920, Note_on_c, 3, 62, 59
4, 140040, Note_off_c, 3, 59, 0
4, 140130, Note_off_c, 3, 62, 0
4, 140160, Control_c, 3, 64, 127
4, 140280, Note_on_c, 3, 64, 75
4, 140375, Note_off_c, 3, 64, 0
4, 140400, Note_on_c, 3, 60, 75
4, 140495, Note_off_c, 3, 60, 0
4, 140520, Note_on_c, 3, 64, 75
4, 140615, Note_off_c, 3, 64, 0
4, 140760, Note_on_c, 3, 64, 75
4, 140855, Note_off_c, 3, 64, 0
4, 140880, Note_on_c, 3, 60, 75
4, 140975, Note_off_c, 3, 60, 0
4, 141000, Note_on_c, 3, 64, 75
4, 141060, Control_c, 3, 64, 0
4, 141095, Note_off_c, 3, 64, 0
4, 141120, Control_c, 3, 64, 127
4, 141240, Note_on_c, 3, 65, 75
4, 141335, Note_off_c, 3, 65, 0
4, 141360, Note_on_c, 3, 60, 75
4, 141455, Note_off_c, 3, 60, 0
4, 141480, Note_on_c, 3, 65, 74
4, 141575, Note_off_c, 3, 65, 0
4, 141720, Note_on_c, 3, 65, 74
4, 141815, Note_off_c, 3, 65, 0
4, 141840, Note_on_c, 3, 60, 74
4, 141935, Note_off_c, 3, 60, 0
4, 141960, Note_on_c, 3, 65, 74
4, 142020, Control_c, 3, 64, 0
4, 142055, Note_off_c, 3, 65, 0
4, 142080, Control_c, 3, 64, 127
4, 142200, Note_on_c, 3, 66, 74
4, 142295, Note_off_c, 3, 66, 0
4, 142320, Note_on_c, 3, 60, 74
4, 142415, Note_off_c, 3, 60, 0
4, 142440, Note_on_c, 3, 66, 74
4, 142535, Note_off_c, 3, 66, 0
4, 142680, Note_on_c, 3, 66, 73
4, 142775, Note_off_c, 3, 66, 0
4, 142800, Note_on_c, 3, 60, 73
4, 142895, Note_off_c, 3, 60, 0
4, 142920, Note_on_c, 3, 66, 73
4, 142980, Control_c, 3, 64, 0
4, 143015, Note_off_c, 3, 66, 0
4, 143040, Control_c, 3, 64, 127
4, 143160, Note_on_c, 3, 64, 73
4, 143255, Note_off_c, 3, 64, 0
4, 143280, Note_on_c, 3, 59, 73
4, 143375, Note_off_c, 3, 59, 0
4, 143400, Note_on_c, 3, 64, 73
4, 143495, Note_off_c, 3, 64, 0
4, 143640, Note_on_c, 3, 64, 73
4, 143735, Note_off_c, 3, 64, 0
4, 143760, Note_on_c, 3, 59, 73
4, 143855, Note_off_c, 3, 59, 0
4, 143880, Note_on_c, 3, 64, 73
4, 143940, Control_c, 3, 64, 0
4, 143975, Note_off_c, 3, 64, 0
4, 144000, Control_c, 3, 64, 127
4, 144120, Note_on_c, 3, 62, 72
4, 144215, Note_off_c, 3, 62, 0
4, 144240, Note_on_c, 3, 58, 72
4, 144335, Note_off_c, 3, 58, 0
4, 144360, Note_on_c, 3, 62, 72
4, 144455, Note_off_c, 3, 62, 0
4, 144600, Note_on_c, 3, 62, 72
4, 144695, Note_off_c, 3, 62, 0
4, 144720, Note_on_c, 3, 58, 72
4, 144815, Note_off_c, 3, 58, 0
4, 144840, Note_on_c, 3, 62, 72
4, 144900, Control_c, 3, 64, 0
4, 144935, Note_off_c, 3, 62, 0
4, 144960, Control_c, 3, 64, 127
4, 145080, Note_on_c, 3, 63, 72
4, 145175, Note_off_c, 3, 63, 0
4, 145200, Note_on_c, 3, 58, 71
4, 145295, Note_off_c, 3, 58, 0
4, 145320, Note_on_c, 3, 63, 71
4, 145415, Note_off_c, 3, 63, 0
4, 145560, Note_on_c, 3, 63, 71
4, 145655, Note_off_c, 3, 63, 0
4, 145680, Note_on_c, 3, 58, 71
4, 145775, Note_off_c, 3, 58, 0
4, 145800, Note_on_c, 3, 63, 71
4, 145860, Control_c, 3, 64, 0
4, 145895, Note_off_c, 3, 63, 0
4, 145920, Control_c, 3, 64, 127
4, 146040, Note_on_c, 3, 64, 71
4, 146135, Note_off_c, 3, 64, 0
4, 146160, Note_on_c, 3, 58, 71
4, 146255, Note_off_c, 3, 58, 0
4, 146280, Note_on_c, 3, 64, 71
4, 146375, Note_off_c, 3, 64, 0
4, 146520, Note_on_c, 3, 64, 70
4, 146615, Note_off_c, 3, 64, 0
4, 146640, Note_on_c, 3, 58, 70
4, 146735, Note_off_c, 3, 58, 0
4, 146760, Note_on_c, 3, 64, 70
4, 146820, Control_c, 3, 64, 0
4, 146855, Note_off_c, 3, 64, 0
4, 146880, Control_c, 3, 64, 127
4, 147000, Note_on_c, 3, 62, 70
4, 147095, Note_off_c, 3, 62, 0
4, 147120, Note_on_c, 3, 57, 70
4, 147215, Note_off_c, 3, 57, 0
4, 147240, Note_on_c, 3, 62, 70
4, 147335, Note_off_c, 3, 62, 0
4, 147480, Note_on_c, 3, 62, 70
4, 147575, Note_off_c, 3, 62, 0
4, 147600, Note_on_c, 3, 57, 70
4, 147695, Note_off_c, 3, 57, 0
4, 147720, Note_on_c, 3, 62, 69
4, 147780, Control_c, 3, 64, 0
4, 147815, Note_off_c, 3, 62, 0
4, 147840, Control_c, 3, 64, 127
4, 147960, Note_on_c, 3, 62, 69
4, 148055, Note_off_c, 3, 62, 0
4, 148080, Note_on_c, 3, 56, 69
4, 148175, Note_off_c, 3, 56, 0
4, 148200, Note_on_c, 3, 62, 69
4, 148295, Note_off_c, 3, 62, 0
4, 148440, Note_on_c, 3, 62, 69
4, 148535, Note_off_c, 3, 62, 0
4, 148560, Note_on_c, 3, 56, 69
4, 148655, Note_off_c, 3, 56, 0
4, 148680, Note_on_c, 3, 62, 69
4, 148740, Control_c, 3, 64, 0
4, 148775, Note_off_c, 3, 62, 0
4, 148800, Control_c, 3, 64, 127
4, 148920, Note_on_c, 3, 60, 69
4, 149015, Note_off_c, 3, 60, 0
4, 149040, Note_on_c, 3, 55, 68
4, 149135, Note_off_c, 3, 55, 0
4, 149160, Note_on_c, 3, 60, 68
4, 149255, Note_off_c, 3, 60, 0
4, 149400, Note_on_c, 3, 60, 68
4, 149495, Note_off_c, 3, 60, 0
4, 149520, Note_on_c, 3, 55, 68
4, 149615, Note_off_c, 3, 55, 0
4, 149640, Note_on_c, 3, 60, 68
4, 149700, Control_c, 3, 64, 0
4, 149735, Note_off_c, 3, 60, 0
4, 149760, Control_c, 3, 64, 127
4, 149880, Note_on_c, 3, 59, 68
4, 149975, Note_off_c, 3, 59, 0
4, 150000, Note_on_c, 3, 53, 68
4, 150095, Note_off_c, 3, 53, 0
4, 150120, Note_on_c, 3, 59, 68
4, 150215, Note_off_c, 3, 59, 0
4, 150360, Note_on_c, 3, 59, 67
4, 150455, Note_off_c, 3, 59, 0
4, 150480, Note_on_c, 3, 53, 67
4, 150575, Note_off_c, 3, 53, 0
4, 150600, Note_on_c, 3, 59, 67
4, 150660, Control_c, 3, 64, 0
4, 150695, Note_off_c, 3, 59, 0
4, 150720, Control_c, 3, 64, 127
4, 150840, Note_on_c, 3, 57, 67
4, 150935, Note_off_c, 3, 57, 0
4, 150960, Note_on_c, 3, 52, 67
4, 151055, Note_off_c, 3, 52, 0
4, 151080, Note_on_c, 3, 57, 67
4, 151175, Note_off_c, 3, 57, 0
4, 151320, Note_on_c, 3, 57, 67
4, 151415, Note_off_c, 3, 57, 0
4, 151440, Note_on_c, 3, 52, 67
4, 151535, Note_off_c, 3, 52, 0
4, 151560, Note_on_c, 3, 57, 66
4, 151620, Control_c, 3, 64, 0
4, 151655, Note_off_c, 3, 57, 0
4, 184560, Note_on_c, 3, 67, 51
4, 184800, Note_off_c, 3, 67, 0
4, 185040, Note_on_c, 3, 67, 50
4, 185255, Note_off_c, 3, 67, 0
4, 185520, Note_on_c, 3, 67, 49
4, 185760, Note_off_c, 3, 67, 0
4, 186000, Note_on_c, 3, 67, 49
4, 186210, Note_off_c, 3, 67, 0
4, 186480, Note_on_c, 3, 67, 48
4, 186720, Note_off_c, 3, 67, 0
4, 186960, Note_on_c, 3, 67, 47
4, 187200, Note_off_c, 3, 67, 0
4, 187440, Note_on_c, 3, 67, 47
4, 187680, Note_off_c, 3, 67, 0
4, 187920, Note_on_c, 3, 67, 46
4, 188130, Note_off_c, 3, 67, 0
4, 188400, Note_on_c, 3, 67, 46
4, 188640, Note_off_c, 3, 67, 0
4, 188880, Note_on_c, 3, 67, 45
4, 189095, Note_off_c, 3, 67, 0
4, 189360, Note_on_c, 3, 67, 44
4, 189600, Note_off_c, 3, 67, 0
4, 189840, Note_on_c, 3, 67, 44
4, 190055, Note_off_c, 3, 67, 0
4, 190080, Note_on_c, 3, 69, 44
4, 191960, Note_off_c, 3, 69, 0
4, 198000, Note_on_c, 3, 67, 52
4, 198240, Note_off_c, 3, 67, 0
4, 198480, Note_on_c, 3, 67, 52
4, 198690, Note_off_c, 3, 67, 0
4, 198960, Note_on_c, 3, 67, 51
4, 199200, Note_off_c, 3, 67, 0
4, 199440, Note_on_c, 3, 67, 50
4, 199650, Note_off_c, 3, 67, 0
4, 199920, Note_on_c, 3, 67, 50
4, 200160, Note_off_c, 3, 67, 0
4, 200400, Note_on_c, 3, 67, 49
4, 200615, Note_off_c, 3, 67, 0
4, 200880, Note_on_c, 3, 67, 49
4, 201120, Note_off_c, 3, 67, 0
4, 201360, Note_on_c, 3, 67, 48
4, 201575, Note_off_c, 3, 67, 0
4, 201600, Note_on_c, 3, 61, 68
4, 201840, Note_on_c, 3, 67, 61
4, 201960, Note_off_c, 3, 61, 0
4, 202080, Note_off_c, 3, 67, 0
4, 202080, Note_on_c, 3, 61, 55
4, 202320, Note_on_c, 3, 67, 48
4, 202440, Note_off_c, 3, 61, 0
4, 202560, Note_off_c, 3, 67, 0
4, 202560, Note_on_c, 3, 61, 46
4, 202800, Note_on_c, 3, 67, 46
4, 202920, Note_off_c, 3, 61, 0
4, 203040, Note_off_c, 3, 67, 0
4, 203040, Note_on_c, 3, 61, 46
4, 203280, Note_on_c, 3, 67, 46
4, 203400, Note_off_c, 3, 61, 0
4, 203490, Note_off_c, 3, 67, 0
4, 203520, Note_on_c, 3, 60, 45
4, 203760, Note_on_c, 3, 64, 45
4, 203880, Note_off_c, 3, 60, 0
4, 204000, Note_off_c, 3, 64, 0
4, 204000, Note_on_c, 3, 60, 45
4, 204240, Note_on_c, 3, 65, 44
4, 204360, Note_off_c, 3, 60, 0
4, 204480, Note_off_c, 3, 65, 0
4, 204480, Note_on_c, 3, 60, 44
4, 204720, Note_on_c, 3, 65, 44
4, 204840, Note_off_c, 3, 60, 0
4, 204960, Note_off_c, 3, 65, 0
4, 204960, Note_on_c, 3, 60, 43
4, 205200, Note_on_c, 3, 65, 43
4, 205320, Note_off_c, 3, 60, 0
4, 205410, Note_off_c, 3, 65, 0
4, 205440, Note_on_c, 3, 63, 63
4, 205680, Note_on_c, 3, 69, 54
4, 205800, Note_off_c, 3, 63, 0
4, 205920, Note_off_c, 3, 69, 0
4, 205920, Note_on_c, 3, 63, 49
4, 206160, Note_on_c, 3, 69, 43
4, 206280, Note_off_c, 3, 63, 0
4, 206400, Note_off_c, 3, 69, 0
4, 206400, Note_on_c, 3, 63, 42
4, 206640, Note_on_c, 3, 69, 41
4, 206760, Note_off_c, 3, 63, 0
4, 206880, Note_off_c, 3, 69, 0
4, 206880, Note_on_c, 3, 63, 41
4, 207120, Note_on_c, 3, 69, 41
4, 207240, Note_off_c, 3, 63, 0
4, 207320, Note_off_c, 3, 69, 0
4, 211440, Note_on_c, 3, 60, 76
4, 211680, Note_off_c, 3, 60, 0
4, 211920, Note_on_c, 3, 60, 74
4, 212160, Note_off_c, 3, 60, 0
4, 212400, Note_on_c, 3, 60, 72
4, 212640, Note_off_c, 3, 60, 0
4, 212880, Note_on_c, 3, 60, 69
4, 213090, Note_off_c, 3, 60, 0
4, 213360, Note_on_c, 3, 60, 67
4, 213600, Note_off_c, 3, 60, 0
4, 213840, Note_on_c, 3, 60, 64
4, 214080, Note_off_c, 3, 60, 0
4, 214320, Note_on_c, 3, 60, 62
4, 214560, Note_off_c, 3, 60, 0
4, 214800, Note_on_c, 3, 60, 60
4, 214995, Note_off_c, 3, 60, 0
4, 215280, Note_on_c, 3, 57, 57
4, 215520, Note_off_c, 3, 57, 0
4, 215760, Note_on_c, 3, 62, 55
4, 215970, Note_off_c, 3, 62, 0
4, 216240, Note_on_c, 3, 64, 53
4, 216480, Note_off_c, 3, 64, 0
4, 216720, Note_on_c, 3, 62, 50
4, 216935, Note_off_c, 3, 62, 0
4, 217200, Note_on_c, 3, 60, 62
4, 217440, Note_off_c, 3, 60, 0
4, 217680, Note_on_c, 3, 60, 61
4, 217920, Note_off_c, 3, 60, 0
4, 218160, Note_on_c, 3, 60, 59
4, 218400, Note_off_c, 3, 60, 0
4, 218640, Note_on_c, 3, 60, 57
4, 218855, Note_off_c, 3, 60, 0
4, 219120, Note_on_c, 3, 60, 55
4, 219360, Note_off_c, 3, 60, 0
4, 219600, Note_on_c, 3, 60, 53
4, 219840, Note_off_c, 3, 60, 0
4, 220080, Note_on_c, 3, 60, 52
4, 220320, Note_off_c, 3, 60, 0
4, 220560, Note_on_c, 3, 60, 50
4, 220775, Note_off_c, 3, 60, 0
4, 221040, Note_on_c, 3, 60, 48
4, 221280, Note_off_c, 3, 60, 0
4, 221520, Note_on_c, 3, 62, 46
4, 221730, Note_off_c, 3, 62, 0
4, 222000, Note_on_c, 3, 60, 45
4, 222240, Note_off_c, 3, 60, 0
4, 222480, Note_on_c, 3, 59, 43
4, 222690, Note_off_c, 3, 59, 0
4, 222960, Note_on_c, 3, 60, 40
4, 222960, Note_on_c, 3, 64, 40
4, 223150, Note_off_c, 3, 64, 0
4, 223150, Note_off_c, 3, 60, 0
4, 223200, Note_on_c, 3, 60, 41
4, 223200, Note_on_c, 3, 64, 41
4, 223390, Note_off_c, 3, 64, 0
4, 223390, Note_off_c, 3, 60, 0
4, 223440, Note_on_c, 3, 60, 41
4, 223440, Note_on_c, 3, 64, 41
4, 223630, Note_off_c, 3, 64, 0
4, 223630, Note_off_c, 3, 60, 0
4, 223680, Note_on_c, 3, 60, 42
4, 223680, Note_on_c, 3, 64, 42
4, 223870, Note_off_c, 3, 64, 0
4, 223870, Note_off_c, 3, 60, 0
4, 223920, Note_on_c, 3, 60, 43
4, 223920, Note_on_c, 3, 64, 43
4, 224110, Note_off_c, 3, 64, 0
4, 224110, Note_off_c, 3, 60, 0
4, 224160, Note_on_c, 3, 60, 43
4, 224160, Note_on_c, 3, 64, 43
4, 224350, Note_off_c, 3, 64, 0
4, 224350, Note_off_c, 3, 60, 0
4, 224400, Note_on_c, 3, 60, 44
4, 224400, Note_on_c, 3, 64, 44
4, 224590, Note_off_c, 3, 64, 0
4, 224590, Note_off_c, 3, 60, 0
4, 224640, Note_on_c, 3, 60, 45
4, 224640, Note_on_c, 3, 64, 45
4, 224830, Note_off_c, 3, 64, 0
4, 224830, Note_off_c, 3, 60, 0
4, 224880, Note_on_c, 3, 60, 45
4, 224880, Note_on_c, 3, 64, 45
4, 225070, Note_off_c, 3, 64, 0
4, 225070, Note_off_c, 3, 60, 0
4, 225120, Note_on_c, 3, 60, 46
4, 225120, Note_on_c, 3, 64, 46
4, 225310, Note_off_c, 3, 64, 0
4, 225310, Note_off_c, 3, 60, 0
4, 225360, Note_on_c, 3, 60, 47
4, 225360, Note_on_c, 3, 64, 47
4, 225550, Note_off_c, 3, 64, 0
4, 225550, Note_off_c, 3, 60, 0
4, 225600, Note_on_c, 3, 60, 47
4, 225600, Note_on_c, 3, 64, 47
4, 225790, Note_off_c, 3, 64, 0
4, 225790, Note_off_c, 3, 60, 0
4, 225840, Note_on_c, 3, 60, 48
4, 225840, Note_on_c, 3, 64, 48
4, 226030, Note_off_c, 3, 64, 0
4, 226030, Note_off_c, 3, 60, 0
4, 226080, Note_on_c, 3, 60, 49
4, 226080, Note_on_c, 3, 64, 49
4, 226270, Note_off_c, 3, 64, 0
4, 226270, Note_off_c, 3, 60, 0
4, 226320, Note_on_c, 3, 60, 49
4, 226320, Note_on_c, 3, 64, 49
4, 226510, Note_off_c, 3, 64, 0
4, 226510, Note_off_c, 3, 60, 0
4, 226800, Note_on_c, 3, 62, 51
4, 226800, Note_on_c, 3, 59, 51
4, 226990, Note_off_c, 3, 59, 0
4, 226990, Note_off_c, 3, 62, 0
4, 227040, Note_on_c, 3, 62, 51
4, 227040, Note_on_c, 3, 59, 51
4, 227230, Note_off_c, 3, 59, 0
4, 227230, Note_off_c, 3, 62, 0
4, 227280, Note_on_c, 3, 62, 52
4, 227280, Note_on_c, 3, 59, 52
4, 227470, Note_off_c, 3, 59, 0
4, 227470, Note_off_c, 3, 62, 0
4, 227520, Note_on_c, 3, 62, 53
4, 227520, Note_on_c, 3, 59, 53
4, 227710, Note_off_c, 3, 59, 0
4, 227710, Note_off_c, 3, 62, 0
4, 227760, Note_on_c, 3, 62, 53
4, 227760, Note_on_c, 3, 59, 53
4, 227950, Note_off_c, 3, 59, 0
4, 227950, Note_off_c, 3, 62, 0
4, 228000, Note_on_c, 3, 62, 54
4, 228000, Note_on_c, 3, 59, 54
4, 228190, Note_off_c, 3, 59, 0
4, 228190, Note_off_c, 3, 62, 0
4, 228240, Note_on_c, 3, 62, 55
4, 228240, Note_on_c, 3, 59, 55
4, 228430, Note_off_c, 3, 59, 0
4, 228430, Note_off_c, 3, 62, 0
4, 228480, Note_on_c, 3, 62, 56
4, 228480, Note_on_c, 3, 59, 56
4, 228670, Note_off_c, 3, 59, 0
4, 228670, Note_off_c, 3, 62, 0
4, 228720, Note_on_c, 3, 62, 56
4, 228720, Note_on_c, 3, 59, 56
4, 228910, Note_off_c, 3, 59, 0
4, 228910, Note_off_c, 3, 62, 0
4, 228960, Note_on_c, 3, 62, 57
4, 228960, Note_on_c, 3, 59, 57
4, 229150, Note_off_c, 3, 59, 0
4, 229150, Note_off_c, 3, 62, 0
4, 229200, Note_on_c, 3, 59, 58
4, 229200, Note_on_c, 3, 62, 58
4, 229390, Note_off_c, 3, 62, 0
4, 229390, Note_off_c, 3, 59, 0
4, 229440, Note_on_c, 3, 62, 58
4, 229440, Note_on_c, 3, 59, 58
4, 229630, Note_off_c, 3, 59, 0
4, 229630, Note_off_c, 3, 62, 0
4, 229680, Note_on_c, 3, 62, 59
4, 229680, Note_on_c, 3, 59, 59
4, 229870, Note_off_c, 3, 59, 0
4, 229870, Note_off_c, 3, 62, 0
4, 229920, Note_on_c, 3, 62, 60
4, 229920, Note_on_c, 3, 59, 60
4, 230110, Note_off_c, 3, 59, 0
4, 230110, Note_off_c, 3, 62, 0
4, 230160, Note_on_c, 3, 59, 60
4, 230160, Note_on_c, 3, 62, 60
4, 230350, Note_off_c, 3, 62, 0
4, 230350, Note_off_c, 3, 59, 0
4, 230640, Note_on_c, 3, 62, 62
4, 230640, Note_on_c, 3, 54, 62
4, 230640, Note_on_c, 3, 57, 62
4, 230830, Note_off_c, 3, 57, 0
4, 230830, Note_off_c, 3, 54, 0
4, 230830, Note_off_c, 3, 62, 0
4, 230880, Note_on_c, 3, 54, 62
4, 230880, Note_on_c, 3, 62, 62
4, 230880, Note_on_c, 3, 57, 62
4, 231070, Note_off_c, 3, 57, 0
4, 231070, Note_off_c, 3, 62, 0
4, 231070, Note_off_c, 3, 54, 0
4, 231120, Note_on_c, 3, 54, 63
4, 231120, Note_on_c, 3, 62, 63
4, 231120, Note_on_c, 3, 57, 63
4, 231310, Note_off_c, 3, 57, 0
4, 231310, Note_off_c, 3, 62, 0
4, 231310, Note_off_c, 3, 54, 0
4, 231360, Note_on_c, 3, 54, 64
4, 231360, Note_on_c, 3, 62, 64
4, 231360, Note_on_c, 3, 57, 64
4, 231550, Note_off_c, 3, 57, 0
4, 231550, Note_off_c, 3, 62, 0
4, 231550, Note_off_c, 3, 54, 0
4, 231600, Note_on_c, 3, 57, 64
4, 231600, Note_on_c, 3, 54, 64
4, 231600, Note_on_c, 3, 62, 64
4, 231790, Note_off_c, 3, 62, 0
4, 231790, Note_off_c, 3, 54, 0
4, 231790, Note_off_c, 3, 57, 0
4, 231840, Note_on_c, 3, 54, 65
4, 231840, Note_on_c, 3, 62, 65
4, 231840, Note_on_c, 3, 57, 65
4, 232030, Note_off_c, 3, 57, 0
4, 232030, Note_off_c, 3, 62, 0
4, 232030, Note_off_c, 3, 54, 0
4, 232080, Note_on_c, 3, 54, 66
4, 232080, Note_on_c, 3, 62, 66
4, 232080, Note_on_c, 3, 57, 66
4, 232270, Note_off_c, 3, 57, 0
4, 232270, Note_off_c, 3, 62, 0
4, 232270, Note_off_c, 3, 54, 0
4, 232320, Note_on_c, 3, 54, 66
4, 232320, Note_on_c, 3, 57, 66
4, 232320, Note_on_c, 3, 62, 66
4, 232510, Note_off_c, 3, 62, 0
4, 232510, Note_off_c, 3, 57, 0
4, 232510, Note_off_c, 3, 54, 0
4, 232560, Note_on_c, 3, 54, 67
4, 232560, Note_on_c, 3, 62, 67
4, 232560, Note_on_c, 3, 57, 67
4, 232750, Note_off_c, 3, 57, 0
4, 232750, Note_off_c, 3, 62, 0
4, 232750, Note_off_c, 3, 54, 0
4, 232800, Note_on_c, 3, 57, 68
4, 232800, Note_on_c, 3, 62, 68
4, 232800, Note_on_c, 3, 54, 68
4, 232990, Note_off_c, 3, 54, 0
4, 232990, Note_off_c, 3, 62, 0
4, 232990, Note_off_c, 3, 57, 0
4, 233040, Note_on_c, 3, 54, 68
4, 233040, Note_on_c, 3, 57, 68
4, 233040, Note_on_c, 3, 62, 68
4, 233230, Note_off_c, 3, 62, 0
4, 233230, Note_off_c, 3, 57, 0
4, 233230, Note_off_c, 3, 54, 0
4, 233280, Note_on_c, 3, 54, 69
4, 233280, Note_on_c, 3, 57, 69
4, 233280, Note_on_c, 3, 62, 69
4, 233470, Note_off_c, 3, 62, 0
4, 233470, Note_off_c, 3, 57, 0
4, 233470, Note_off_c, 3, 54, 0
4, 233520, Note_on_c, 3, 57, 70
4, 233520, Note_on_c, 3, 54, 70
4, 233520, Note_on_c, 3, 62, 70
4, 233710, Note_off_c, 3, 62, 0
4, 233710, Note_off_c, 3, 54, 0
4, 233710, Note_off_c, 3, 57, 0
4, 233760, Note_on_c, 3, 57, 70
4, 233760, Note_on_c, 3, 54, 70
4, 233760, Note_on_c, 3, 62, 70
4, 233950, Note_off_c, 3, 62, 0
4, 233950, Note_off_c, 3, 54, 0
4, 233950, Note_off_c, 3, 57, 0
4, 234000, Note_on_c, 3, 54, 71
4, 234000, Note_on_c, 3, 57, 71
4, 234000, Note_on_c, 3, 62, 71
4, 234190, Note_off_c, 3, 62, 0
4, 234190, Note_off_c, 3, 57, 0
4, 234190, Note_off_c, 3, 54, 0
4, 244080, Note_on_c, 3, 79, 36
4, 244320, Note_off_c, 3, 79, 0
4, 244560, Note_on_c, 3, 79, 36
4, 244800, Note_off_c, 3, 79, 0
4, 245040, Note_on_c, 3, 79, 37
4, 245280, Note_off_c, 3, 79, 0
4, 245520, Note_on_c, 3, 79, 37
4, 245760, Note_off_c, 3, 79, 0
4, 246000, Note_on_c, 3, 79, 37
4, 246240, Note_off_c, 3, 79, 0
4, 246480, Note_on_c, 3, 79, 38
4, 246720, Note_off_c, 3, 79, 0
4, 246960, Note_on_c, 3, 79, 38
4, 247200, Note_off_c, 3, 79, 0
4, 247440, Note_on_c, 3, 79, 38
4, 247655, Note_off_c, 3, 79, 0
4, 247920, Note_on_c, 3, 79, 39
4, 248160, Note_off_c, 3, 79, 0
4, 248400, Note_on_c, 3, 79, 39
4, 248640, Note_off_c, 3, 79, 0
4, 248880, Note_on_c, 3, 79, 39
4, 249120, Note_off_c, 3, 79, 0
4, 249360, Note_on_c, 3, 79, 40
4, 249570, Note_off_c, 3, 79, 0
4, 249840, Note_on_c, 3, 79, 40
4, 250080, Note_off_c, 3, 79, 0
4, 250320, Note_on_c, 3, 79, 40
4, 250560, Note_off_c, 3, 79, 0
4, 250800, Note_on_c, 3, 79, 41
4, 251040, Note_off_c, 3, 79, 0
4, 251280, Note_on_c, 3, 79, 41
4, 251490, Note_off_c, 3, 79, 0
4, 251760, Note_on_c, 3, 79, 41
4, 252000, Note_off_c, 3, 79, 0
4, 252240, Note_on_c, 3, 79, 42
4, 252480, Note_off_c, 3, 79, 0
4, 252720, Note_on_c, 3, 79, 42
4, 252960, Note_off_c, 3, 79, 0
4, 253200, Note_on_c, 3, 79, 43
4, 253410, Note_off_c, 3, 79, 0
4, 253680, Note_on_c, 3, 79, 43
4, 253920, Note_off_c, 3, 79, 0
4, 254160, Note_on_c, 3, 81, 43
4, 254400, Note_off_c, 3, 81, 0
4, 255600, Note_on_c, 3, 55, 44
4, 255840, Note_off_c, 3, 55, 0
4, 256080, Note_on_c, 3, 55, 45
4, 256320, Note_off_c, 3, 55, 0
4, 256560, Note_on_c, 3, 55, 45
4, 256800, Note_off_c, 3, 55, 0
4, 257040, Note_on_c, 3, 55, 45
4, 257255, Note_off_c, 3, 55, 0
4, 257520, Note_on_c, 3, 55, 46
4, 257760, Note_off_c, 3, 55, 0
4, 258000, Note_on_c, 3, 55, 46
4, 258240, Note_off_c, 3, 55, 0
4, 258480, Note_on_c, 3, 55, 46
4, 258720, Note_off_c, 3, 55, 0
4, 258960, Note_on_c, 3, 55, 47
4, 259170, Note_off_c, 3, 55, 0
4, 259440, Note_on_c, 3, 55, 47
4, 259680, Note_off_c, 3, 55, 0
4, 259920, Note_on_c, 3, 55, 47
4, 260160, Note_off_c, 3, 55, 0
4, 260400, Note_on_c, 3, 55, 48
4, 260640, Note_off_c, 3, 55, 0
4, 260880, Note_on_c, 3, 55, 48
4, 261080, Note_off_c, 3, 55, 0
4, 261360, Note_on_c, 3, 55, 48
4, 261600, Note_off_c, 3, 55, 0
4, 261840, Note_on_c, 3, 54, 49
4, 262080, Note_off_c, 3, 54, 0
4, 262320, Note_on_c, 3, 55, 49
4, 262475, Note_off_c, 3, 55, 0
4, 262800, Note_on_c, 3, 53, 49
4, 262955, Note_off_c, 3, 53, 0
4, 267120, Note_on_c, 3, 48, 48
4, 267360, Note_off_c, 3, 48, 0
4, 267360, Note_on_c, 3, 52, 49
4, 267600, Note_off_c, 3, 52, 0
4, 267600, Note_on_c, 3, 48, 49
4, 267840, Note_off_c, 3, 48, 0
4, 268080, Note_on_c, 3, 50, 50
4, 268320, Note_off_c, 3, 50, 0
4, 268320, Note_on_c, 3, 53, 51
4, 268560, Note_off_c, 3, 53, 0
4, 268560, Note_on_c, 3, 50, 51
4, 268770, Note_off_c, 3, 50, 0
4, 272880, Note_on_c, 3, 60, 54
4, 273070, Note_off_c, 3, 60, 0
4, 273360, Note_on_c, 3, 60, 55
4, 273550, Note_off_c, 3, 60, 0
4, 273840, Note_on_c, 3, 60, 56
4, 274030, Note_off_c, 3, 60, 0
4, 274320, Note_on_c, 3, 60, 57
4, 274510, Note_off_c, 3, 60, 0
4, 274800, Note_on_c, 3, 60, 58
4, 274990, Note_off_c, 3, 60, 0
4, 275280, Note_on_c, 3, 60, 59
4, 275470, Note_off_c, 3, 60, 0
4, 275760, Note_on_c, 3, 60, 60
4, 275950, Note_off_c, 3, 60, 0
4, 276240, Note_on_c, 3, 60, 61
4, 276430, Note_off_c, 3, 60, 0
4, 276480, Note_on_c, 3, 61, 74
4, 276480, Note_on_c, 3, 55, 74
4, 276670, Note_off_c, 3, 55, 0
4, 276670, Note_off_c, 3, 61, 0
4, 276720, Note_on_c, 3, 55, 75
4, 276720, Note_on_c, 3, 61, 75
4, 276910, Note_off_c, 3, 61, 0
4, 276910, Note_off_c, 3, 55, 0
4, 276960, Note_on_c, 3, 61, 76
4, 276960, Note_on_c, 3, 55, 76
4, 277150, Note_off_c, 3, 55, 0
4, 277150, Note_off_c, 3, 61, 0
4, 277200, Note_on_c, 3, 55, 77
4, 277200, Note_on_c, 3, 61, 77
4, 277390, Note_off_c, 3, 61, 0
4, 277390, Note_off_c, 3, 55, 0
4, 277440, Note_on_c, 3, 55, 78
4, 277440, Note_on_c, 3, 61, 78
4, 277630, Note_off_c, 3, 61, 0
4, 277630, Note_off_c, 3, 55, 0
4, 277680, Note_on_c, 3, 61, 79
4, 277680, Note_on_c, 3, 55, 79
4, 277870, Note_off_c, 3, 55, 0
4, 277870, Note_off_c, 3, 61, 0
4, 277920, Note_on_c, 3, 55, 80
4, 277920, Note_on_c, 3, 61, 80
4, 278110, Note_off_c, 3, 61, 0
4, 278110, Note_off_c, 3, 55, 0
4, 278160, Note_on_c, 3, 55, 80
4, 278160, Note_on_c, 3, 61, 80
4, 278350, Note_off_c, 3, 61, 0
4, 278350, Note_off_c, 3, 55, 0
4, 278400, Note_on_c, 3, 57, 81
4, 278400, Note_on_c, 3, 62, 81
4, 278880, Note_off_c, 3, 62, 0
4, 278880, Note_off_c, 3, 57, 0
4, 280320, Control_c, 3, 64, 127
4, 280440, Note_on_c, 3, 64, 72
4, 280535, Note_off_c, 3, 64, 0
4, 280560, Note_on_c, 3, 60, 73
4, 280655, Note_off_c, 3, 60, 0
4, 280680, Note_on_c, 3, 64, 73
4, 280775, Note_off_c, 3, 64, 0
4, 280920, Note_on_c, 3, 64, 73
4, 281015, Note_off_c, 3, 64, 0
4, 281040, Note_on_c, 3, 60, 74
4, 281135, Note_off_c, 3, 60, 0
4, 281160, Note_on_c, 3, 64, 74
4, 281255, Note_off_c, 3, 64, 0
4, 281400, Note_on_c, 3, 64, 75
4, 281495, Note_off_c, 3, 64, 0
4, 281520, Note_on_c, 3, 60, 75
4, 281615, Note_off_c, 3, 60, 0
4, 281640, Note_on_c, 3, 64, 75
4, 281735, Note_off_c, 3, 64, 0
4, 281880, Note_on_c, 3, 64, 76
4, 281975, Note_off_c, 3, 64, 0
4, 282000, Note_on_c, 3, 60, 76
4, 282095, Note_off_c, 3, 60, 0
4, 282120, Note_on_c, 3, 64, 76
4, 282180, Control_c, 3, 64, 0
4, 282215, Note_off_c, 3, 64, 0
4, 282240, Control_c, 3, 64, 127
4, 282360, Note_on_c, 3, 65, 77
4, 282455, Note_off_c, 3, 65, 0
4, 282480, Note_on_c, 3, 62, 77
4, 282575, Note_off_c, 3, 62, 0
4, 282600, Note_on_c, 3, 65, 77
4, 282695, Note_off_c, 3, 65, 0
4, 282840, Note_on_c, 3, 65, 78
4, 282935, Note_off_c, 3, 65, 0
4, 282960, Note_on_c, 3, 62, 78
4, 283055, Note_off_c, 3, 62, 0
4, 283080, Note_on_c, 3, 65, 78
4, 283175, Note_off_c, 3, 65, 0
4, 283320, Note_on_c, 3, 65, 79
4, 283415, Note_off_c, 3, 65, 0
4, 283440, Note_on_c, 3, 62, 79
4, 283535, Note_off_c, 3, 62, 0
4, 283560, Note_on_c, 3, 65, 80
4, 283655, Note_off_c, 3, 65, 0
4, 283800, Note_on_c, 3, 65, 80
4, 283895, Note_off_c, 3, 65, 0
4, 283920, Note_on_c, 3, 62, 80
4, 284015, Note_off_c, 3, 62, 0
4, 284040, Note_on_c, 3, 65, 81
4, 284100, Control_c, 3, 64, 0
4, 284135, Note_off_c, 3, 65, 0
4, 299520, Control_c, 3, 64, 0
4, 527040, Control_c, 3, 64, 0
4, 528000, Control_c, 3, 64, 127
4, 528120, Note_on_c, 3, 64, 46
4, 528240, Note_off_c, 3, 64, 0
4, 528240, Note_on_c, 3, 67, 47
4, 528360, Note_off_c, 3, 67, 0
4, 528360, Note_on_c, 3, 64, 47
4, 528480, Note_off_c, 3, 64, 0
4, 528600, Note_on_c, 3, 64, 47
4, 528720, Note_off_c, 3, 64, 0
4, 528720, Note_on_c, 3, 67, 47
4, 528840, Note_off_c, 3, 67, 0
4, 528840, Note_on_c, 3, 64, 48
4, 528960, Note_off_c, 3, 64, 0
4, 529080, Note_on_c, 3, 64, 48
4, 529200, Note_off_c, 3, 64, 0
4, 529200, Note_on_c, 3, 67, 48
4, 529320, Note_off_c, 3, 67, 0
4, 529320, Note_on_c, 3, 64, 49
4, 529440, Note_off_c, 3, 64, 0
4, 529560, Note_on_c, 3, 64, 49
4, 529680, Note_off_c, 3, 64, 0
4, 529680, Note_on_c, 3, 67, 49
4, 529800, Note_off_c, 3, 67, 0
4, 529800, Note_on_c, 3, 64, 49
4, 529860, Control_c, 3, 64, 0
4, 529895, Note_off_c, 3, 64, 0
4, 529920, Control_c, 3, 64, 127
4, 530040, Note_on_c, 3, 65, 50
4, 530160, Note_off_c, 3, 65, 0
4, 530160, Note_on_c, 3, 69, 50
4, 530280, Note_off_c, 3, 69, 0
4, 530280, Note_on_c, 3, 65, 50
4, 530400, Note_off_c, 3, 65, 0
4, 530520, Note_on_c, 3, 65, 51
4, 530640, Note_off_c, 3, 65, 0
4, 530640, Note_on_c, 3, 69, 51
4, 530760, Note_off_c, 3, 69, 0
4, 530760, Note_on_c, 3, 65, 51
4, 530880, Note_off_c, 3, 65, 0
4, 531000, Note_on_c, 3, 65, 52
4, 531120, Note_off_c, 3, 65, 0
4, 531120, Note_on_c, 3, 69, 52
4, 531240, Note_off_c, 3, 69, 0
4, 531240, Note_on_c, 3, 65, 52
4, 531360, Note_off_c, 3, 65, 0
4, 531480, Note_on_c, 3, 65, 53
4, 531600, Note_off_c, 3, 65, 0
4, 531600, Note_on_c, 3, 69, 53
4, 531720, Note_off_c, 3, 69, 0
4, 531720, Note_on_c, 3, 65, 53
4, 531780, Control_c, 3, 64, 0
4, 531815, Note_off_c, 3, 65, 0
4, 531840, Control_c, 3, 64, 127
4, 531960, Note_on_c, 3, 64, 53
4, 532080, Note_off_c, 3, 64, 0
4, 532080, Note_on_c, 3, 67, 53
4, 532200, Note_off_c, 3, 67, 0
4, 532200, Note_on_c, 3, 64, 52
4, 532320, Note_off_c, 3, 64, 0
4, 532440, Note_on_c, 3, 64, 52
4, 532560, Note_off_c, 3, 64, 0
4, 532560, Note_on_c, 3, 67, 51
4, 532680, Note_off_c, 3, 67, 0
4, 532680, Note_on_c, 3, 64, 51
4, 532740, Control_c, 3, 64, 0
4, 532740, Control_c, 3, 64, 0
4, 532775, Note_off_c, 3, 64, 0
4, 532800, Control_c, 3, 64, 127
4, 532920, Note_on_c, 3, 62, 50
4, 533040, Note_off_c, 3, 62, 0
4, 533040, Note_on_c, 3, 67, 50
4, 533160, Note_off_c, 3, 67, 0
4, 533160, Note_on_c, 3, 62, 50
4, 533280, Note_off_c, 3, 62, 0
4, 533400, Note_on_c, 3, 62, 49
4, 533520, Note_off_c, 3, 62, 0
4, 533520, Note_on_c, 3, 67, 49
4, 533640, Note_off_c, 3, 67, 0
4, 533640, Note_on_c, 3, 62, 48
4, 533700, Control_c, 3, 64, 0
4, 533735, Note_off_c, 3, 62, 0
4, 535680, Control_c, 3, 64, 127
4, 535800, Note_on_c, 3, 64, 52
4, 535920, Note_off_c, 3, 64, 0
4, 535920, Note_on_c, 3, 67, 53
4, 536040, Note_off_c, 3, 67, 0
4, 536040, Note_on_c, 3, 64, 53
4, 536160, Note_off_c, 3, 64, 0
4, 536280, Note_on_c, 3, 64, 53
4, 536400, Note_off_c, 3, 64, 0
4, 536400, Note_on_c, 3, 67, 53
4, 536520, Note_off_c, 3, 67, 0
4, 536520, Note_on_c, 3, 64, 54
4, 536640, Note_off_c, 3, 64, 0
4, 536760, Note_on_c, 3, 64, 54
4, 536880, Note_off_c, 3, 64, 0
4, 536880, Note_on_c, 3, 67, 54
4, 537000, Note_off_c, 3, 67, 0
4, 537000, Note_on_c, 3, 64, 55
4, 537120, Note_off_c, 3, 64, 0
4, 537240, Note_on_c, 3, 64, 55
4, 537360, Note_off_c, 3, 64, 0
4, 537360, Note_on_c, 3, 67, 55
4, 537480, Note_off_c, 3, 67, 0
4, 537480, Note_on_c, 3, 64, 55
4, 537540, Control_c, 3, 64, 0
4, 537575, Note_off_c, 3, 64, 0
4, 537600, Control_c, 3, 64, 127
4, 537720, Note_on_c, 3, 65, 56
4, 537840, Note_off_c, 3, 65, 0
4, 537840, Note_on_c, 3, 69, 56
4, 537960, Note_off_c, 3, 69, 0
4, 537960, Note_on_c, 3, 65, 56
4, 538080, Note_off_c, 3, 65, 0
4, 538200, Note_on_c, 3, 65, 57
4, 538320, Note_off_c, 3, 65, 0
4, 538320, Note_on_c, 3, 69, 57
4, 538440, Note_off_c, 3, 69, 0
4, 538440, Note_on_c, 3, 65, 57
4, 538560, Note_off_c, 3, 65, 0
4, 538680, Note_on_c, 3, 65, 58
4, 538800, Note_off_c, 3, 65, 0
4, 538800, Note_on_c, 3, 69, 58
4, 538920, Note_off_c, 3, 69, 0
4, 538920, Note_on_c, 3, 65, 58
4, 539040, Note_off_c, 3, 65, 0
4, 539160, Note_on_c, 3, 65, 59
4, 539280, Note_off_c, 3, 65, 0
4, 539280, Note_on_c, 3, 69, 59
4, 539400, Note_off_c, 3, 69, 0
4, 539400, Note_on_c, 3, 65, 59
4, 539460, Control_c, 3, 64, 0
4, 539495, Note_off_c, 3, 65, 0
4, 539520, Control_c, 3, 64, 127
4, 539640, Note_on_c, 3, 64, 59
4, 539760, Note_off_c, 3, 64, 0
4, 539760, Note_on_c, 3, 67, 59
4, 539880, Note_off_c, 3, 67, 0
4, 539880, Note_on_c, 3, 64, 58
4, 539940, Control_c, 3, 64, 0
4, 540000, Control_c, 3, 64, 127
4, 540000, Note_off_c, 3, 64, 0
4, 540120, Note_on_c, 3, 64, 57
4, 540240, Note_off_c, 3, 64, 0
4, 540240, Note_on_c, 3, 69, 57
4, 540360, Note_off_c, 3, 69, 0
4, 540360, Note_on_c, 3, 64, 57
4, 540420, Control_c, 3, 64, 0
4, 540455, Note_off_c, 3, 64, 0
4, 540480, Control_c, 3, 64, 127
4, 540600, Note_on_c, 3, 65, 56
4, 540720, Note_off_c, 3, 65, 0
4, 540720, Note_on_c, 3, 69, 55
4, 540840, Note_off_c, 3, 69, 0
4, 540840, Note_on_c, 3, 65, 55
4, 540900, Control_c, 3, 64, 0
4, 540960, Control_c, 3, 64, 127
4, 540960, Note_off_c, 3, 65, 0
4, 541080, Note_on_c, 3, 62, 54
4, 541200, Note_off_c, 3, 62, 0
4, 541200, Note_on_c, 3, 67, 54
4, 541320, Note_off_c, 3, 67, 0
4, 541320, Note_on_c, 3, 62, 53
4, 541380, Control_c, 3, 64, 0
4, 541415, Note_off_c, 3, 62, 0
4, 542340, Control_c, 3, 64, 0
4, 542400, Control_c, 3, 64, 127
4, 542520, Note_on_c, 3, 64, 61
4, 542640, Note_off_c, 3, 64, 0
4, 542640, Note_on_c, 3, 67, 61
4, 542760, Note_off_c, 3, 67, 0
4, 542760, Note_on_c, 3, 64, 61
4, 542820, Control_c, 3, 64, 0
4, 542855, Note_off_c, 3, 64, 0
4, 542880, Control_c, 3, 64, 127
4, 543000, Note_on_c, 3, 64, 60
4, 543120, Note_off_c, 3, 64, 0
4, 543120, Note_on_c, 3, 69, 60
4, 543240, Note_off_c, 3, 69, 0
4, 543240, Note_on_c, 3, 64, 59
4, 543300, Control_c, 3, 64, 0
4, 543335, Note_off_c, 3, 64, 0
4, 543360, Control_c, 3, 64, 127
4, 543480, Note_on_c, 3, 65, 59
4, 543600, Note_off_c, 3, 65, 0
4, 543600, Note_on_c, 3, 69, 58
4, 543720, Note_off_c, 3, 69, 0
4, 543720, Note_on_c, 3, 65, 58
4, 543780, Control_c, 3, 64, 0
4, 543815, Note_off_c, 3, 65, 0
4, 543840, Control_c, 3, 64, 127
4, 543960, Note_on_c, 3, 62, 57
4, 544080, Note_off_c, 3, 62, 0
4, 544080, Note_on_c, 3, 67, 57
4, 544200, Note_off_c, 3, 67, 0
4, 544200, Note_on_c, 3, 62, 57
4, 544260, Control_c, 3, 64, 0
4, 544295, Note_off_c, 3, 62, 0
4, 577920, Note_on_c, 3, 66, 43
4, 578040, Note_on_c, 3, 69, 44
4, 578160, Note_off_c, 3, 69, 0
4, 578160, Note_off_c, 3, 66, 0
4, 578160, Note_on_c, 3, 66, 44
4, 578280, Note_on_c, 3, 69, 45
4, 578400, Note_off_c, 3, 69, 0
4, 578400, Note_off_c, 3, 66, 0
4, 578400, Note_on_c, 3, 66, 45
4, 578520, Note_on_c, 3, 69, 46
4, 578640, Note_off_c, 3, 69, 0
4, 578640, Note_off_c, 3, 66, 0
4, 578640, Note_on_c, 3, 66, 46
4, 578760, Note_on_c, 3, 69, 47
4, 578880, Note_off_c, 3, 69, 0
4, 578880, Note_off_c, 3, 66, 0
4, 578880, Note_on_c, 3, 66, 47
4, 579000, Note_on_c, 3, 69, 48
4, 579120, Note_off_c, 3, 69, 0
4, 579120, Note_off_c, 3, 66, 0
4, 579120, Note_on_c, 3, 66, 48
4, 579240, Note_on_c, 3, 69, 49
4, 579360, Note_off_c, 3, 69, 0
4, 579360, Note_off_c, 3, 66, 0
4, 579360, Note_on_c, 3, 66, 49
4, 579480, Note_on_c, 3, 69, 50
4, 579600, Note_off_c, 3, 69, 0
4, 579600, Note_off_c, 3, 66, 0
4, 579600, Note_on_c, 3, 66, 50
4, 579720, Note_on_c, 3, 69, 51
4, 579825, Note_off_c, 3, 69, 0
4, 579840, Note_off_c, 3, 66, 0
4, 579840, Note_on_c, 3, 66, 51
4, 579960, Note_on_c, 3, 69, 52
4, 580080, Note_off_c, 3, 69, 0
4, 580080, Note_off_c, 3, 66, 0
4, 580080, Note_on_c, 3, 66, 52
4, 580200, Note_on_c, 3, 69, 53
4, 580320, Note_off_c, 3, 69, 0
4, 580320, Note_off_c, 3, 66, 0
4, 580320, Note_on_c, 3, 66, 53
4, 580440, Note_on_c, 3, 69, 54
4, 580560, Note_off_c, 3, 69, 0
4, 580560, Note_off_c, 3, 66, 0
4, 580560, Note_on_c, 3, 66, 54
4, 580680, Note_on_c, 3, 69, 55
4, 580800, Note_off_c, 3, 69, 0
4, 580800, Note_off_c, 3, 66, 0
4, 580800, Note_on_c, 3, 66, 55
4, 580920, Note_on_c, 3, 69, 56
4, 581040, Note_off_c, 3, 69, 0
4, 581040, Note_off_c, 3, 66, 0
4, 581040, Note_on_c, 3, 66, 56
4, 581160, Note_on_c, 3, 69, 57
4, 581280, Note_off_c, 3, 69, 0
4, 581280, Note_off_c, 3, 66, 0
4, 581280, Note_on_c, 3, 66, 57
4, 581400, Note_on_c, 3, 69, 58
4, 581520, Note_off_c, 3, 69, 0
4, 581520, Note_off_c, 3, 66, 0
4, 581520, Note_on_c, 3, 66, 58
4, 581640, Note_on_c, 3, 69, 59
4, 581735, Note_off_c, 3, 69, 0
4, 581760, Note_off_c, 3, 66, 0
4, 581760, Note_on_c, 3, 66, 59
4, 581880, Note_on_c, 3, 69, 60
4, 582000, Note_off_c, 3, 69, 0
4, 582000, Note_off_c, 3, 66, 0
4, 582000, Note_on_c, 3, 66, 60
4, 582120, Note_on_c, 3, 69, 61
4, 582240, Note_off_c, 3, 69, 0
4, 582240, Note_off_c, 3, 66, 0
4, 582240, Note_on_c, 3, 66, 61
4, 582360, Note_on_c, 3, 69, 62
4, 582480, Note_off_c, 3, 69, 0
4, 582480, Note_off_c, 3, 66, 0
4, 582480, Note_on_c, 3, 66, 62
4, 582600, Note_on_c, 3, 69, 63
4, 582695, Note_off_c, 3, 69, 0
4, 582720, Note_off_c, 3, 66, 0
4, 616260, Control_c, 3, 64, 0
4, 616320, Control_c, 3, 64, 127
4, 616440, Note_on_c, 3, 64, 40
4, 616560, Note_off_c, 3, 64, 0
4, 616560, Note_on_c, 3, 67, 40
4, 616680, Note_off_c, 3, 67, 0
4, 616680, Note_on_c, 3, 64, 41
4, 616800, Note_off_c, 3, 64, 0
4, 616920, Note_on_c, 3, 64, 41
4, 617040, Note_off_c, 3, 64, 0
4, 617040, Note_on_c, 3, 67, 42
4, 617160, Note_off_c, 3, 67, 0
4, 617160, Note_on_c, 3, 64, 42
4, 617280, Note_off_c, 3, 64, 0
4, 617400, Note_on_c, 3, 64, 42
4, 617520, Note_off_c, 3, 64, 0
4, 617520, Note_on_c, 3, 67, 43
4, 617640, Note_off_c, 3, 67, 0
4, 617640, Note_on_c, 3, 64, 43
4, 617760, Note_off_c, 3, 64, 0
4, 617880, Note_on_c, 3, 64, 44
4, 618000, Note_off_c, 3, 64, 0
4, 618000, Note_on_c, 3, 67, 44
4, 618120, Note_off_c, 3, 67, 0
4, 618120, Note_on_c, 3, 64, 44
4, 618180, Control_c, 3, 64, 0
4, 618215, Note_off_c, 3, 64, 0
4, 618240, Control_c, 3, 64, 127
4, 618360, Note_on_c, 3, 65, 45
4, 618480, Note_off_c, 3, 65, 0
4, 618480, Note_on_c, 3, 69, 45
4, 618600, Note_off_c, 3, 69, 0
4, 618600, Note_on_c, 3, 65, 45
4, 618720, Note_off_c, 3, 65, 0
4, 618840, Note_on_c, 3, 65, 46
4, 618960, Note_off_c, 3, 65, 0
4, 618960, Note_on_c, 3, 69, 46
4, 619080, Note_off_c, 3, 69, 0
4, 619080, Note_on_c, 3, 65, 47
4, 619200, Note_off_c, 3, 65, 0
4, 619320, Note_on_c, 3, 65, 47
4, 619440, Note_off_c, 3, 65, 0
4, 619440, Note_on_c, 3, 69, 47
4, 619560, Note_off_c, 3, 69, 0
4, 619560, Note_on_c, 3, 65, 48
4, 619680, Note_off_c, 3, 65, 0
4, 619800, Note_on_c, 3, 65, 48
4, 619920, Note_off_c, 3, 65, 0
4, 619920, Note_on_c, 3, 69, 49
4, 620040, Note_off_c, 3, 69, 0
4, 620040, Note_on_c, 3, 65, 49
4, 620100, Control_c, 3, 64, 0
4, 620135, Note_off_c, 3, 65, 0
4, 620160, Control_c, 3, 64, 127
4, 620280, Note_on_c, 3, 64, 49
4, 620400, Note_off_c, 3, 64, 0
4, 620400, Note_on_c, 3, 67, 48
4, 620520, Note_off_c, 3, 67, 0
4, 620520, Note_on_c, 3, 64, 48
4, 620640, Note_off_c, 3, 64, 0
4, 620760, Note_on_c, 3, 64, 47
4, 620880, Note_off_c, 3, 64, 0
4, 620880, Note_on_c, 3, 67, 47
4, 621000, Note_off_c, 3, 67, 0
4, 621000, Note_on_c, 3, 64, 47
4, 621060, Control_c, 3, 64, 0
4, 621095, Note_off_c, 3, 64, 0
4, 621120, Control_c, 3, 64, 127
4, 621240, Note_on_c, 3, 62, 46
4, 621360, Note_off_c, 3, 62, 0
4, 621360, Note_on_c, 3, 67, 45
4, 621480, Note_off_c, 3, 67, 0
4, 621480, Note_on_c, 3, 62, 45
4, 621595, Note_off_c, 3, 62, 0
4, 621720, Note_on_c, 3, 62, 44
4, 621840, Note_off_c, 3, 62, 0
4, 621840, Note_on_c, 3, 67, 44
4, 621960, Note_off_c, 3, 67, 0
4, 621960, Note_on_c, 3, 62, 44
4, 622020, Control_c, 3, 64, 0
4, 622055, Note_off_c, 3, 62, 0
4, 623940, Control_c, 3, 64, 0
4, 624000, Control_c, 3, 64, 127
4, 624120, Note_on_c, 3, 64, 53
4, 624240, Note_off_c, 3, 64, 0
4, 624240, Note_on_c, 3, 67, 53
4, 624360, Note_off_c, 3, 67, 0
4, 624360, Note_on_c, 3, 64, 53
4, 624480, Note_off_c, 3, 64, 0
4, 624600, Note_on_c, 3, 64, 54
4, 624720, Note_off_c, 3, 64, 0
4, 624720, Note_on_c, 3, 67, 54
4, 624840, Note_off_c, 3, 67, 0
4, 624840, Note_on_c, 3, 64, 54
4, 624960, Note_off_c, 3, 64, 0
4, 625080, Note_on_c, 3, 64, 54
4, 625200, Note_off_c, 3, 64, 0
4, 625200, Note_on_c, 3, 67, 55
4, 625320, Note_off_c, 3, 67, 0
4, 625320, Note_on_c, 3, 64, 55
4, 625440, Note_off_c, 3, 64, 0
4, 625560, Note_on_c, 3, 64, 55
4, 625680, Note_off_c, 3, 64, 0
4, 625680, Note_on_c, 3, 67, 55
4, 625800, Note_off_c, 3, 67, 0
4, 625800, Note_on_c, 3, 64, 56
4, 625860, Control_c, 3, 64, 0
4, 625905, Note_off_c, 3, 64, 0
4, 625920, Control_c, 3, 64, 127
4, 626040, Note_on_c, 3, 65, 56
4, 626160, Note_off_c, 3, 65, 0
4, 626160, Note_on_c, 3, 69, 56
4, 626280, Note_off_c, 3, 69, 0
4, 626280, Note_on_c, 3, 65, 56
4, 626400, Note_off_c, 3, 65, 0
4, 626520, Note_on_c, 3, 65, 57
4, 626640, Note_off_c, 3, 65, 0
4, 626640, Note_on_c, 3, 69, 57
4, 626760, Note_off_c, 3, 69, 0
4, 626760, Note_on_c, 3, 65, 57
4, 626880, Note_off_c, 3, 65, 0
4, 627000, Note_on_c, 3, 65, 58
4, 627120, Note_off_c, 3, 65, 0
4, 627120, Note_on_c, 3, 69, 58
4, 627240, Note_off_c, 3, 69, 0
4, 627240, Note_on_c, 3, 65, 58
4, 627360, Note_off_c, 3, 65, 0
4, 627480, Note_on_c, 3, 65, 58
4, 627600, Note_off_c, 3, 65, 0
4, 627600, Note_on_c, 3, 69, 59
4, 627720, Note_off_c, 3, 69, 0
4, 627720, Note_on_c, 3, 65, 59
4, 627780, Control_c, 3, 64, 0
4, 627815, Note_off_c, 3, 65, 0
4, 627840, Control_c, 3, 64, 127
4, 627960, Note_on_c, 3, 64, 59
4, 628080, Note_off_c, 3, 64, 0
4, 628080, Note_on_c, 3, 67, 58
4, 628200, Note_off_c, 3, 67, 0
4, 628200, Note_on_c, 3, 64, 58
4, 628260, Control_c, 3, 64, 0
4, 628320, Control_c, 3, 64, 127
4, 628320, Note_off_c, 3, 64, 0
4, 628440, Note_on_c, 3, 64, 57
4, 628560, Note_off_c, 3, 64, 0
4, 628560, Note_on_c, 3, 69, 56
4, 628680, Note_off_c, 3, 69, 0
4, 628680, Note_on_c, 3, 64, 56
4, 628740, Control_c, 3, 64, 0
4, 628775, Note_off_c, 3, 64, 0
4, 628800, Control_c, 3, 64, 127
4, 628920, Note_on_c, 3, 65, 55
4, 629040, Note_off_c, 3, 65, 0
4, 629040, Note_on_c, 3, 69, 54
4, 629160, Note_off_c, 3, 69, 0
4, 629160, Note_on_c, 3, 65, 54
4, 629220, Control_c, 3, 64, 0
4, 629280, Control_c, 3, 64, 127
4, 629280, Note_off_c, 3, 65, 0
4, 629400, Note_on_c, 3, 62, 53
4, 629520, Note_off_c, 3, 62, 0
4, 629520, Note_on_c, 3, 67, 52
4, 629640, Note_off_c, 3, 67, 0
4, 629640, Note_on_c, 3, 62, 52
4, 629700, Control_c, 3, 64, 0
4, 629735, Note_off_c, 3, 62, 0
4, 630660, Control_c, 3, 64, 0
4, 630720, Control_c, 3, 64, 127
4, 631140, Control_c, 3, 64, 0
4, 631200, Control_c, 3, 64, 127
4, 631620, Control_c, 3, 64, 0
4, 631680, Control_c, 3, 64, 127
4, 632100, Control_c, 3, 64, 0
4, 632160, Control_c, 3, 64, 127
4, 632580, Control_c, 3, 64, 0
4, 638340, Control_c, 3, 64, 0
4, 638400, Control_c, 3, 64, 127
4, 638520, Note_on_c, 3, 72, 39
4, 638640, Note_off_c, 3, 72, 0
4, 638640, Note_on_c, 3, 69, 40
4, 638760, Note_off_c, 3, 69, 0
4, 638760, Note_on_c, 3, 72, 40
4, 638880, Note_off_c, 3, 72, 0
4, 639000, Note_on_c, 3, 72, 42
4, 639120, Note_off_c, 3, 72, 0
4, 639120, Note_on_c, 3, 69, 43
4, 639240, Note_off_c, 3, 69, 0
4, 639240, Note_on_c, 3, 72, 44
4, 639300, Control_c, 3, 64, 0
4, 639335, Note_off_c, 3, 72, 0
4, 639360, Control_c, 3, 64, 127
4, 639480, Note_on_c, 3, 72, 44
4, 639600, Note_off_c, 3, 72, 0
4, 639600, Note_on_c, 3, 67, 44
4, 639720, Note_off_c, 3, 67, 0
4, 639720, Note_on_c, 3, 72, 43
4, 639780, Control_c, 3, 64, 0
4, 639840, Control_c, 3, 64, 127
4, 639840, Note_off_c, 3, 72, 0
4, 639960, Note_on_c, 3, 72, 41
4, 640080, Note_off_c, 3, 72, 0
4, 640080, Note_on_c, 3, 67, 40
4, 640200, Note_off_c, 3, 67, 0
4, 640200, Note_on_c, 3, 72, 39
4, 640260, Control_c, 3, 64, 0
4, 640295, Note_off_c, 3, 72, 0
4, 640320, Control_c, 3, 64, 127
4, 640440, Note_on_c, 3, 72, 39
4, 640560, Note_off_c, 3, 72, 0
4, 640560, Note_on_c, 3, 69, 40
4, 640680, Note_off_c, 3, 69, 0
4, 640680, Note_on_c, 3, 72, 41
4, 640800, Note_off_c, 3, 72, 0
4, 640920, Note_on_c, 3, 72, 43
4, 641040, Note_off_c, 3, 72, 0
4, 641040, Note_on_c, 3, 69, 45
4, 641160, Note_off_c, 3, 69, 0
4, 641160, Note_on_c, 3, 72, 46
4, 641220, Control_c, 3, 64, 0
4, 641255, Note_off_c, 3, 72, 0
4, 641280, Control_c, 3, 64, 127
4, 641400, Note_on_c, 3, 72, 46
4, 641520, Note_off_c, 3, 72, 0
4, 641520, Note_on_c, 3, 71, 45
4, 641640, Note_off_c, 3, 71, 0
4, 641640, Note_on_c, 3, 72, 44
4, 641700, Control_c, 3, 64, 0
4, 641760, Control_c, 3, 64, 127
4, 641760, Note_off_c, 3, 72, 0
4, 641880, Note_on_c, 3, 70, 42
4, 642000, Note_off_c, 3, 70, 0
4, 642000, Note_on_c, 3, 67, 41
4, 642120, Note_off_c, 3, 67, 0
4, 642120, Note_on_c, 3, 70, 40
4, 642180, Control_c, 3, 64, 0
4, 642215, Note_off_c, 3, 70, 0
4, 642240, Control_c, 3, 64, 127
4, 642360, Note_on_c, 3, 72, 44
4, 642480, Note_off_c, 3, 72, 0
4, 642480, Note_on_c, 3, 69, 45
4, 642600, Note_off_c, 3, 69, 0
4, 642600, Note_on_c, 3, 72, 46
4, 642720, Note_off_c, 3, 72, 0
4, 642840, Note_on_c, 3, 72, 49
4, 642960, Note_off_c, 3, 72, 0
4, 642960, Note_on_c, 3, 69, 50
4, 643080, Note_off_c, 3, 69, 0
4, 643080, Note_on_c, 3, 72, 51
4, 643140, Control_c, 3, 64, 0
4, 643175, Note_off_c, 3, 72, 0
4, 643200, Control_c, 3, 64, 127
4, 643320, Note_on_c, 3, 72, 52
4, 643440, Note_off_c, 3, 72, 0
4, 643440, Note_on_c, 3, 67, 51
4, 643560, Note_off_c, 3, 67, 0
4, 643560, Note_on_c, 3, 72, 49
4, 643620, Control_c, 3, 64, 0
4, 643680, Control_c, 3, 64, 127
4, 643680, Note_off_c, 3, 72, 0
4, 643800, Note_on_c, 3, 72, 47
4, 643920, Note_off_c, 3, 72, 0
4, 643920, Note_on_c, 3, 70, 46
4, 644040, Note_off_c, 3, 70, 0
4, 644040, Note_on_c, 3, 72, 44
4, 644100, Control_c, 3, 64, 0
4, 644135, Note_off_c, 3, 72, 0
4, 644160, Control_c, 3, 64, 127
4, 644280, Note_on_c, 3, 72, 48
4, 644400, Note_off_c, 3, 72, 0
4, 644400, Note_on_c, 3, 69, 47
4, 644520, Note_off_c, 3, 69, 0
4, 644520, Note_on_c, 3, 72, 45
4, 644580, Control_c, 3, 64, 0
4, 644640, Control_c, 3, 64, 127
4, 644640, Note_off_c, 3, 72, 0
4, 644760, Note_on_c, 3, 70, 43
4, 644880, Note_off_c, 3, 70, 0
4, 644880, Note_on_c, 3, 67, 42
4, 645000, Note_off_c, 3, 67, 0
4, 645000, Note_on_c, 3, 70, 41
4, 645060, Control_c, 3, 64, 0
4, 645095, Note_off_c, 3, 70, 0
4, 646020, Control_c, 3, 64, 0
4, 646080, Control_c, 3, 64, 127
4, 646200, Note_on_c, 3, 48, 53
4, 646320, Note_off_c, 3, 48, 0
4, 646320, Note_on_c, 3, 45, 54
4, 646440, Note_off_c, 3, 45, 0
4, 646440, Note_on_c, 3, 48, 55
4, 646560, Note_off_c, 3, 48, 0
4, 646680, Note_on_c, 3, 48, 57
4, 646800, Note_off_c, 3, 48, 0
4, 646800, Note_on_c, 3, 45, 58
4, 646920, Note_off_c, 3, 45, 0
4, 646920, Note_on_c, 3, 48, 59
4, 646980, Control_c, 3, 64, 0
4, 647015, Note_off_c, 3, 48, 0
4, 647040, Control_c, 3, 64, 127
4, 647160, Note_on_c, 3, 48, 59
4, 647280, Note_off_c, 3, 48, 0
4, 647280, Note_on_c, 3, 43, 58
4, 647400, Note_off_c, 3, 43, 0
4, 647400, Note_on_c, 3, 48, 56
4, 647460, Control_c, 3, 64, 0
4, 647520, Control_c, 3, 64, 127
4, 647520, Note_off_c, 3, 48, 0
4, 647640, Note_on_c, 3, 43, 54
4, 647760, Note_off_c, 3, 43, 0
4, 647760, Note_on_c, 3, 40, 52
4, 647880, Note_off_c, 3, 40, 0
4, 647880, Note_on_c, 3, 43, 51
4, 647940, Control_c, 3, 64, 0
4, 647975, Note_off_c, 3, 43, 0
4, 648000, Control_c, 3, 64, 127
4, 648120, Note_on_c, 3, 48, 51
4, 648240, Note_off_c, 3, 48, 0
4, 648240, Note_on_c, 3, 45, 52
4, 648360, Note_off_c, 3, 45, 0
4, 648360, Note_on_c, 3, 48, 53
4, 648480, Note_off_c, 3, 48, 0
4, 648600, Note_on_c, 3, 48, 54
4, 648720, Note_off_c, 3, 48, 0
4, 648720, Note_on_c, 3, 45, 55
4, 648840, Note_off_c, 3, 45, 0
4, 648840, Note_on_c, 3, 48, 56
4, 648900, Control_c, 3, 64, 0
4, 648935, Note_off_c, 3, 48, 0
4, 648960, Control_c, 3, 64, 127
4, 649080, Note_on_c, 3, 48, 58
4, 649200, Note_off_c, 3, 48, 0
4, 649200, Note_on_c, 3, 43, 57
4, 649320, Note_off_c, 3, 43, 0
4, 649320, Note_on_c, 3, 48, 55
4, 649380, Control_c, 3, 64, 0
4, 649440, Control_c, 3, 64, 127
4, 649440, Note_off_c, 3, 48, 0
4, 649560, Note_on_c, 3, 46, 52
4, 649680, Note_off_c, 3, 46, 0
4, 649680, Note_on_c, 3, 43, 50
4, 649800, Note_off_c, 3, 43, 0
4, 649800, Note_on_c, 3, 46, 49
4, 649860, Control_c, 3, 64, 0
4, 649895, Note_off_c, 3, 46, 0
4, 677760, Note_on_c, 3, 59, 44
4, 677880, Note_on_c, 3, 62, 44
4, 678000, Note_off_c, 3, 62, 0
4, 678000, Note_off_c, 3, 59, 0
4, 678000, Note_on_c, 3, 59, 45
4, 678120, Note_on_c, 3, 62, 45
4, 678240, Note_off_c, 3, 62, 0
4, 678240, Note_off_c, 3, 59, 0
4, 678240, Note_on_c, 3, 59, 46
4, 678360, Note_on_c, 3, 62, 46
4, 678480, Note_off_c, 3, 62, 0
4, 678480, Note_off_c, 3, 59, 0
4, 678480, Note_on_c, 3, 59, 47
4, 678600, Note_on_c, 3, 62, 48
4, 678720, Note_off_c, 3, 62, 0
4, 678720, Note_off_c, 3, 59, 0
4, 678720, Note_on_c, 3, 59, 48
4, 678840, Note_on_c, 3, 62, 49
4, 678960, Note_off_c, 3, 62, 0
4, 678960, Note_off_c, 3, 59, 0
4, 678960, Note_on_c, 3, 59, 49
4, 679080, Note_on_c, 3, 62, 50
4, 679200, Note_off_c, 3, 62, 0
4, 679200, Note_off_c, 3, 59, 0
4, 679200, Note_on_c, 3, 59, 50
4, 679320, Note_on_c, 3, 62, 51
4, 679440, Note_off_c, 3, 62, 0
4, 679440, Note_off_c, 3, 59, 0
4, 679440, Note_on_c, 3, 59, 51
4, 679560, Note_on_c, 3, 62, 52
4, 679655, Note_off_c, 3, 62, 0
4, 679680, Note_off_c, 3, 59, 0
4, 679680, Note_on_c, 3, 59, 53
4, 679800, Note_on_c, 3, 62, 53
4, 679920, Note_off_c, 3, 62, 0
4, 679920, Note_off_c, 3, 59, 0
4, 679920, Note_on_c, 3, 59, 54
4, 680040, Note_on_c, 3, 62, 54
4, 680160, Note_off_c, 3, 62, 0
4, 680160, Note_off_c, 3, 59, 0
4, 680160, Note_on_c, 3, 59, 55
4, 680280, Note_on_c, 3, 62, 55
4, 680400, Note_off_c, 3, 62, 0
4, 680400, Note_off_c, 3, 59, 0
4, 680400, Note_on_c, 3, 59, 56
4, 680520, Note_on_c, 3, 62, 56
4, 680640, Note_off_c, 3, 62, 0
4, 680640, Note_off_c, 3, 59, 0
4, 680640, Note_on_c, 3, 59, 57
4, 680760, Note_on_c, 3, 62, 57
4, 680880, Note_off_c, 3, 62, 0
4, 680880, Note_off_c, 3, 59, 0
4, 680880, Note_on_c, 3, 59, 58
4, 681000, Note_on_c, 3, 62, 59
4, 681120, Note_off_c, 3, 62, 0
4, 681120, Note_off_c, 3, 59, 0
4, 681120, Note_on_c, 3, 59, 59
4, 681240, Note_on_c, 3, 62, 60
4, 681360, Note_off_c, 3, 62, 0
4, 681360, Note_off_c, 3, 59, 0
4, 681360, Note_on_c, 3, 59, 60
4, 681480, Note_on_c, 3, 62, 61
4, 681575, Note_off_c, 3, 62, 0
4, 681600, Note_off_c, 3, 59, 0
4, 681600, Note_on_c, 3, 59, 61
4, 681720, Note_on_c, 3, 62, 62
4, 681840, Note_off_c, 3, 62, 0
4, 681840, Note_off_c, 3, 59, 0
4, 681840, Note_on_c, 3, 59, 62
4, 681960, Note_on_c, 3, 62, 63
4, 682080, Note_off_c, 3, 62, 0
4, 682080, Note_off_c, 3, 59, 0
4, 682080, Note_on_c, 3, 59, 64
4, 682200, Note_on_c, 3, 62, 64
4, 682320, Note_off_c, 3, 62, 0
4, 682320, Note_off_c, 3, 59, 0
4, 682320, Note_on_c, 3, 59, 65
4, 682440, Note_on_c, 3, 62, 65
4, 682535, Note_off_c, 3, 62, 0
4, 682560, Note_off_c, 3, 59, 0
4, 682560, Note_on_c, 3, 60, 66
4, 682800, Note_off_c, 3, 60, 0
4, 708420, Control_c, 3, 64, 0
4, 708480, Control_c, 3, 64, 127
4, 708600, Note_on_c, 3, 64, 48
4, 708720, Note_off_c, 3, 64, 0
4, 708720, Note_on_c, 3, 67, 48
4, 708840, Note_off_c, 3, 67, 0
4, 708840, Note_on_c, 3, 64, 48
4, 708960, Note_off_c, 3, 64, 0
4, 709080, Note_on_c, 3, 64, 48
4, 709200, Note_off_c, 3, 64, 0
4, 709200, Note_on_c, 3, 67, 48
4, 709320, Note_off_c, 3, 67, 0
4, 709320, Note_on_c, 3, 64, 48
4, 709440, Note_off_c, 3, 64, 0
4, 709560, Note_on_c, 3, 64, 49
4, 709680, Note_off_c, 3, 64, 0
4, 709680, Note_on_c, 3, 67, 49
4, 709800, Note_off_c, 3, 67, 0
4, 709800, Note_on_c, 3, 64, 49
4, 709920, Note_off_c, 3, 64, 0
4, 710040, Note_on_c, 3, 64, 49
4, 710160, Note_off_c, 3, 64, 0
4, 710160, Note_on_c, 3, 67, 49
4, 710280, Note_off_c, 3, 67, 0
4, 710280, Note_on_c, 3, 64, 49
4, 710340, Control_c, 3, 64, 0
4, 710375, Note_off_c, 3, 64, 0
4, 710400, Control_c, 3, 64, 127
4, 710520, Note_on_c, 3, 65, 50
4, 710640, Note_off_c, 3, 65, 0
4, 710640, Note_on_c, 3, 69, 50
4, 710760, Note_off_c, 3, 69, 0
4, 710760, Note_on_c, 3, 65, 50
4, 710880, Note_off_c, 3, 65, 0
4, 711000, Note_on_c, 3, 65, 50
4, 711120, Note_off_c, 3, 65, 0
4, 711120, Note_on_c, 3, 69, 50
4, 711240, Note_off_c, 3, 69, 0
4, 711240, Note_on_c, 3, 65, 50
4, 711360, Note_off_c, 3, 65, 0
4, 711480, Note_on_c, 3, 65, 51
4, 711600, Note_off_c, 3, 65, 0
4, 711600, Note_on_c, 3, 69, 51
4, 711720, Note_off_c, 3, 69, 0
4, 711720, Note_on_c, 3, 65, 51
4, 711840, Note_off_c, 3, 65, 0
4, 711960, Note_on_c, 3, 65, 51
4, 712080, Note_off_c, 3, 65, 0
4, 712080, Note_on_c, 3, 69, 51
4, 712200, Note_off_c, 3, 69, 0
4, 712200, Note_on_c, 3, 65, 51
4, 712260, Control_c, 3, 64, 0
4, 712295, Note_off_c, 3, 65, 0
4, 712320, Control_c, 3, 64, 127
4, 712440, Note_on_c, 3, 64, 51
4, 712560, Note_off_c, 3, 64, 0
4, 712560, Note_on_c, 3, 67, 51
4, 712680, Note_off_c, 3, 67, 0
4, 712680, Note_on_c, 3, 64, 51
4, 712740, Control_c, 3, 64, 0
4, 712800, Control_c, 3, 64, 127
4, 712800, Note_off_c, 3, 64, 0
4, 712920, Note_on_c, 3, 64, 50
4, 713040, Note_off_c, 3, 64, 0
4, 713040, Note_on_c, 3, 70, 50
4, 713160, Note_off_c, 3, 70, 0
4, 713160, Note_on_c, 3, 64, 50
4, 713220, Control_c, 3, 64, 0
4, 713255, Note_off_c, 3, 64, 0
4, 713280, Control_c, 3, 64, 127
4, 713400, Note_on_c, 3, 65, 49
4, 713520, Note_off_c, 3, 65, 0
4, 713520, Note_on_c, 3, 69, 49
4, 713640, Note_off_c, 3, 69, 0
4, 713640, Note_on_c, 3, 65, 48
4, 713700, Control_c, 3, 64, 0
4, 713760, Control_c, 3, 64, 127
4, 713760, Note_off_c, 3, 65, 0
4, 713880, Note_on_c, 3, 67, 48
4, 714000, Note_off_c, 3, 67, 0
4, 714000, Note_on_c, 3, 68, 48
4, 714120, Note_off_c, 3, 68, 0
4, 714120, Note_on_c, 3, 67, 47
4, 714180, Control_c, 3, 64, 0
4, 714215, Note_off_c, 3, 67, 0
4, 714240, Control_c, 3, 64, 127
4, 714360, Note_on_c, 3, 67, 47
4, 714480, Note_off_c, 3, 67, 0
4, 714480, Note_on_c, 3, 64, 46
4, 714600, Note_off_c, 3, 64, 0
4, 714600, Note_on_c, 3, 67, 46
4, 714660, Control_c, 3, 64, 0
4, 714720, Control_c, 3, 64, 127
4, 714720, Note_off_c, 3, 67, 0
4, 714720, Note_on_c, 3, 62, 46
4, 714840, Note_off_c, 3, 62, 0
4, 714840, Note_on_c, 3, 65, 46
4, 714900, Control_c, 3, 64, 0
4, 714960, Control_c, 3, 64, 127
4, 714960, Note_off_c, 3, 65, 0
4, 715080, Note_on_c, 3, 64, 45
4, 715140, Control_c, 3, 64, 0
4, 715175, Note_off_c, 3, 64, 0
4, 715320, Note_on_c, 3, 60, 44
4, 715440, Note_off_c, 3, 60, 0
4, 715440, Note_on_c, 3, 64, 44
4, 715560, Note_off_c, 3, 64, 0
4, 715560, Note_on_c, 3, 60, 44
4, 715680, Note_off_c, 3, 60, 0
4, 715680, Note_on_c, 3, 59, 44
4, 715870, Note_off_c, 3, 59, 0
4, 716100, Control_c, 3, 64, 0
4, 716160, Control_c, 3, 64, 127
4, 716280, Note_on_c, 3, 60, 56
4, 716400, Note_off_c, 3, 60, 0
4, 716400, Note_on_c, 3, 52, 56
4, 716520, Note_off_c, 3, 52, 0
4, 716520, Note_on_c, 3, 60, 57
4, 716640, Note_off_c, 3, 60, 0
4, 716640, Note_on_c, 3, 55, 57
4, 716760, Note_off_c, 3, 55, 0
4, 716760, Note_on_c, 3, 60, 57
4, 716880, Note_off_c, 3, 60, 0
4, 716880, Note_on_c, 3, 52, 57
4, 717000, Note_off_c, 3, 52, 0
4, 717000, Note_on_c, 3, 60, 58
4, 717120, Note_off_c, 3, 60, 0
4, 717240, Note_on_c, 3, 60, 58
4, 717360, Note_off_c, 3, 60, 0
4, 717360, Note_on_c, 3, 52, 59
4, 717480, Note_off_c, 3, 52, 0
4, 717480, Note_on_c, 3, 60, 59
4, 717600, Note_off_c, 3, 60, 0
4, 717600, Note_on_c, 3, 55, 59
4, 717720, Note_off_c, 3, 55, 0
4, 717720, Note_on_c, 3, 60, 60
4, 717840, Note_off_c, 3, 60, 0
4, 717840, Note_on_c, 3, 52, 60
4, 717960, Note_off_c, 3, 52, 0
4, 717960, Note_on_c, 3, 60, 60
4, 718020, Control_c, 3, 64, 0
4, 718055, Note_off_c, 3, 60, 0
4, 718080, Control_c, 3, 64, 127
4, 718200, Note_on_c, 3, 60, 61
4, 718320, Note_off_c, 3, 60, 0
4, 718320, Note_on_c, 3, 53, 61
4, 718440, Note_off_c, 3, 53, 0
4, 718440, Note_on_c, 3, 60, 61
4, 718560, Note_off_c, 3, 60, 0
4, 718560, Note_on_c, 3, 57, 62
4, 718680, Note_off_c, 3, 57, 0
4, 718680, Note_on_c, 3, 60, 62
4, 718800, Note_off_c, 3, 60, 0
4, 718800, Note_on_c, 3, 53, 62
4, 718920, Note_off_c, 3, 53, 0
4, 718920, Note_on_c, 3, 60, 62
4, 719040, Note_off_c, 3, 60, 0
4, 719160, Note_on_c, 3, 60, 63
4, 719280, Note_off_c, 3, 60, 0
4, 719280, Note_on_c, 3, 53, 63
4, 719400, Note_off_c, 3, 53, 0
4, 719400, Note_on_c, 3, 60, 64
4, 719520, Note_off_c, 3, 60, 0
4, 719520, Note_on_c, 3, 57, 64
4, 719640, Note_off_c, 3, 57, 0
4, 719640, Note_on_c, 3, 60, 64
4, 719760, Note_off_c, 3, 60, 0
4, 719760, Note_on_c, 3, 53, 65
4, 719880, Note_off_c, 3, 53, 0
4, 719880, Note_on_c, 3, 60, 65
4, 719940, Control_c, 3, 64, 0
4, 719975, Note_off_c, 3, 60, 0
4, 720000, Control_c, 3, 64, 127
4, 720120, Note_on_c, 3, 60, 65
4, 720240, Note_off_c, 3, 60, 0
4, 720240, Note_on_c, 3, 55, 64
4, 720360, Note_off_c, 3, 55, 0
4, 720360, Note_on_c, 3, 60, 64
4, 720420, Control_c, 3, 64, 0
4, 720480, Control_c, 3, 64, 127
4, 720480, Note_off_c, 3, 60, 0
4, 720600, Note_on_c, 3, 57, 63
4, 720720, Note_off_c, 3, 57, 0
4, 720720, Note_on_c, 3, 52, 63
4, 720840, Note_off_c, 3, 52, 0
4, 720840, Note_on_c, 3, 57, 62
4, 720900, Control_c, 3, 64, 0
4, 720935, Note_off_c, 3, 57, 0
4, 720960, Control_c, 3, 64, 127
4, 721080, Note_on_c, 3, 57, 62
4, 721200, Note_off_c, 3, 57, 0
4, 721200, Note_on_c, 3, 54, 61
4, 721320, Note_off_c, 3, 54, 0
4, 721320, Note_on_c, 3, 57, 61
4, 721380, Control_c, 3, 64, 0
4, 721440, Control_c, 3, 64, 127
4, 721440, Note_off_c, 3, 57, 0
4, 721560, Note_on_c, 3, 55, 60
4, 721680, Note_off_c, 3, 55, 0
4, 721680, Note_on_c, 3, 50, 60
4, 721800, Note_off_c, 3, 50, 0
4, 721800, Note_on_c, 3, 55, 59
4, 721860, Control_c, 3, 64, 0
4, 721895, Note_off_c, 3, 55, 0
4, 721920, Control_c, 3, 64, 127
4, 722040, Note_on_c, 3, 55, 58
4, 722100, Control_c, 3, 64, 0
4, 722160, Control_c, 3, 64, 127
4, 722160, Note_off_c, 3, 55, 0
4, 722160, Note_on_c, 3, 57, 58
4, 722280, Note_off_c, 3, 57, 0
4, 722280, Note_on_c, 3, 62, 57
4, 722340, Control_c, 3, 64, 0
4, 722400, Control_c, 3, 64, 127
4, 722400, Note_off_c, 3, 62, 0
4, 722520, Note_on_c, 3, 64, 57
4, 722580, Control_c, 3, 64, 0
4, 722640, Control_c, 3, 64, 127
4, 722640, Note_off_c, 3, 64, 0
4, 722760, Note_on_c, 3, 65, 56
4, 722820, Control_c, 3, 64, 0
4, 722880, Note_off_c, 3, 65, 0
4, 762180, Control_c, 3, 64, 0
4, 762240, Control_c, 3, 64, 127
4, 762360, Note_on_c, 3, 43, 40
4, 762480, Note_off_c, 3, 43, 0
4, 762480, Note_on_c, 3, 40, 40
4, 762600, Note_off_c, 3, 40, 0
4, 762600, Note_on_c, 3, 43, 40
4, 762720, Note_off_c, 3, 43, 0
4, 762720, Note_on_c, 3, 48, 41
4, 762840, Note_off_c, 3, 48, 0
4, 762840, Note_on_c, 3, 43, 41
4, 762960, Note_off_c, 3, 43, 0
4, 762960, Note_on_c, 3, 40, 41
4, 763080, Note_off_c, 3, 40, 0
4, 763080, Note_on_c, 3, 43, 41
4, 763140, Control_c, 3, 64, 0
4, 763175, Note_off_c, 3, 43, 0
4, 763200, Control_c, 3, 64, 127
4, 763320, Note_on_c, 3, 43, 41
4, 763440, Note_off_c, 3, 43, 0
4, 763440, Note_on_c, 3, 40, 42
4, 763560, Note_off_c, 3, 40, 0
4, 763560, Note_on_c, 3, 43, 42
4, 763680, Note_off_c, 3, 43, 0
4, 763680, Note_on_c, 3, 46, 42
4, 763800, Note_off_c, 3, 46, 0
4, 763800, Note_on_c, 3, 43, 42
4, 763920, Note_off_c, 3, 43, 0
4, 763920, Note_on_c, 3, 40, 42
4, 764040, Note_off_c, 3, 40, 0
4, 764040, Note_on_c, 3, 43, 42
4, 764100, Control_c, 3, 64, 0
4, 764135, Note_off_c, 3, 43, 0
4, 764160, Control_c, 3, 64, 127
4, 764280, Note_on_c, 3, 45, 43
4, 764400, Note_off_c, 3, 45, 0
4, 764400, Note_on_c, 3, 41, 43
4, 764520, Note_off_c, 3, 41, 0
4, 764520, Note_on_c, 3, 45, 43
4, 764640, Note_off_c, 3, 45, 0
4, 764640, Note_on_c, 3, 48, 43
4, 764760, Note_off_c, 3, 48, 0
4, 764760, Note_on_c, 3, 45, 43
4, 764880, Note_off_c, 3, 45, 0
4, 764880, Note_on_c, 3, 41, 44
4, 765000, Note_off_c, 3, 41, 0
4, 765000, Note_on_c, 3, 45, 44
4, 765060, Control_c, 3, 64, 0
4, 765095, Note_off_c, 3, 45, 0
4, 765120, Control_c, 3, 64, 127
4, 765240, Note_on_c, 3, 45, 44
4, 765360, Note_off_c, 3, 45, 0
4, 765360, Note_on_c, 3, 41, 44
4, 765480, Note_off_c, 3, 41, 0
4, 765480, Note_on_c, 3, 45, 44
4, 765600, Note_off_c, 3, 45, 0
4, 765600, Note_on_c, 3, 48, 45
4, 765720, Note_off_c, 3, 48, 0
4, 765720, Note_on_c, 3, 45, 45
4, 765840, Note_off_c, 3, 45, 0
4, 765840, Note_on_c, 3, 41, 45
4, 765960, Note_off_c, 3, 41, 0
4, 765960, Note_on_c, 3, 45, 45
4, 766020, Control_c, 3, 64, 0
4, 766055, Note_off_c, 3, 45, 0
4, 766080, Control_c, 3, 64, 127
4, 766200, Note_on_c, 3, 43, 44
4, 766320, Note_off_c, 3, 43, 0
4, 766320, Note_on_c, 3, 41, 43
4, 766440, Note_off_c, 3, 41, 0
4, 766440, Note_on_c, 3, 43, 43
4, 766560, Note_off_c, 3, 43, 0
4, 766560, Note_on_c, 3, 47, 42
4, 766680, Note_off_c, 3, 47, 0
4, 766680, Note_on_c, 3, 43, 41
4, 766800, Note_off_c, 3, 43, 0
4, 766800, Note_on_c, 3, 41, 40
4, 766920, Note_off_c, 3, 41, 0
4, 766920, Note_on_c, 3, 43, 39
4, 766980, Control_c, 3, 64, 0
4, 767015, Note_off_c, 3, 43, 0
4, 767040, Control_c, 3, 64, 127
4, 767160, Note_on_c, 3, 47, 38
4, 767280, Note_off_c, 3, 47, 0
4, 767280, Note_on_c, 3, 43, 37
4, 767400, Note_off_c, 3, 43, 0
4, 767400, Note_on_c, 3, 47, 36
4, 767520, Note_off_c, 3, 47, 0
4, 767520, Note_on_c, 3, 50, 36
4, 767640, Note_off_c, 3, 50, 0
4, 767640, Note_on_c, 3, 47, 35
4, 767760, Note_off_c, 3, 47, 0
4, 767760, Note_on_c, 3, 43, 34
4, 767880, Note_off_c, 3, 43, 0
4, 767880, Note_on_c, 3, 47, 33
4, 767940, Control_c, 3, 64, 0
4, 767975, Note_off_c, 3, 47, 0
4, 768000, Control_c, 3, 64, 127
4, 768120, Note_on_c, 3, 43, 32
4, 768240, Note_off_c, 3, 43, 0
4, 768240, Note_on_c, 3, 40, 31
4, 768360, Note_off_c, 3, 40, 0
4, 768360, Note_on_c, 3, 43, 29
4, 768480, Note_off_c, 3, 43, 0
4, 768480, Note_on_c, 3, 48, 28
4, 768600, Note_off_c, 3, 48, 0
4, 768600, Note_on_c, 3, 43, 27
4, 768720, Note_off_c, 3, 43, 0
4, 768720, Note_on_c, 3, 40, 25
4, 768840, Note_off_c, 3, 40, 0
4, 768840, Note_on_c, 3, 43, 24
4, 768900, Control_c, 3, 64, 0
4, 768935, Note_off_c, 3, 43, 0
4, 768935, End_track
5, 0, Start_track
5, 0, Title_t, "Unnamed Track"
5, 0, Control_c, 4, 0, 0
5, 0, Control_c, 4, 32, 0
5, 0, Program_c, 4, 0
5, 0, Control_c, 4, 7, 120
5, 0, Pitch_bend_c, 4, 8192
5, 0, Control_c, 4, 1, 0
5, 0, Control_c, 4, 1, 0
5, 0, Pitch_bend_c, 4, 8192
5, 0, Control_c, 4, 93, 18
5, 0, Pitch_bend_c, 4, 8192
5, 0, Control_c, 4, 64, 0
5, 0, Control_c, 4, 93, 28
5, 0, Control_c, 4, 91, 100
5, 0, Control_c, 4, 10, 55
5, 0, Control_c, 4, 64, 0
5, 5760, Note_on_c, 4, 64, 58
5, 6120, Note_off_c, 4, 64, 0
5, 6240, Note_on_c, 4, 64, 58
5, 6600, Note_off_c, 4, 64, 0
5, 6720, Note_on_c, 4, 61, 57
5, 7080, Note_off_c, 4, 61, 0
5, 7200, Note_on_c, 4, 61, 56
5, 7560, Note_off_c, 4, 61, 0
5, 7680, Note_on_c, 4, 62, 55
5, 8040, Note_off_c, 4, 62, 0
5, 8160, Note_on_c, 4, 62, 55
5, 8520, Note_off_c, 4, 62, 0
5, 8640, Note_on_c, 4, 59, 54
5, 9000, Note_off_c, 4, 59, 0
5, 9120, Note_on_c, 4, 59, 53
5, 9480, Note_off_c, 4, 59, 0
5, 9600, Note_on_c, 4, 60, 53
5, 9960, Note_off_c, 4, 60, 0
5, 10080, Note_on_c, 4, 60, 52
5, 10440, Note_off_c, 4, 60, 0
5, 10560, Note_on_c, 4, 64, 51
5, 10920, Note_off_c, 4, 64, 0
5, 11040, Note_on_c, 4, 64, 50
5, 11400, Note_off_c, 4, 64, 0
5, 11520, Note_on_c, 4, 65, 50
5, 13410, Note_off_c, 4, 65, 0
5, 13920, Note_on_c, 4, 62, 61
5, 13920, Note_on_c, 4, 57, 61
5, 14230, Note_off_c, 4, 57, 0
5, 14230, Note_off_c, 4, 62, 0
5, 14400, Note_on_c, 4, 60, 64
5, 14400, Note_on_c, 4, 64, 64
5, 14710, Note_off_c, 4, 64, 0
5, 14710, Note_off_c, 4, 60, 0
5, 14880, Note_on_c, 4, 59, 66
5, 14880, Note_on_c, 4, 62, 66
5, 15190, Note_off_c, 4, 62, 0
5, 15190, Note_off_c, 4, 59, 0
5, 19200, Note_on_c, 4, 64, 56
5, 19560, Note_off_c, 4, 64, 0
5, 19680, Note_on_c, 4, 64, 55
5, 20040, Note_off_c, 4, 64, 0
5, 20160, Note_on_c, 4, 61, 54
5, 20520, Note_off_c, 4, 61, 0
5, 20640, Note_on_c, 4, 61, 53
5, 21000, Note_off_c, 4, 61, 0
5, 21120, Note_on_c, 4, 62, 52
5, 21480, Note_off_c, 4, 62, 0
5, 21600, Note_on_c, 4, 62, 51
5, 21960, Note_off_c, 4, 62, 0
5, 22080, Note_on_c, 4, 59, 51
5, 22440, Note_off_c, 4, 59, 0
5, 22560, Note_on_c, 4, 59, 50
5, 22920, Note_off_c, 4, 59, 0
5, 23040, Note_on_c, 4, 60, 49
5, 23400, Note_off_c, 4, 60, 0
5, 23520, Note_on_c, 4, 60, 48
5, 23880, Note_off_c, 4, 60, 0
5, 24000, Note_on_c, 4, 64, 47
5, 24360, Note_off_c, 4, 64, 0
5, 24480, Note_on_c, 4, 64, 46
5, 24840, Note_off_c, 4, 64, 0
5, 24960, Note_on_c, 4, 70, 64
5, 25920, Note_off_c, 4, 70, 0
5, 25920, Note_on_c, 4, 69, 58
5, 26340, Note_off_c, 4, 69, 0
5, 26880, Note_on_c, 4, 70, 71
5, 27840, Note_off_c, 4, 70, 0
5, 27840, Note_on_c, 4, 72, 63
5, 28260, Note_off_c, 4, 72, 0
5, 28800, Note_on_c, 4, 57, 79
5, 29160, Note_off_c, 4, 57, 0
5, 29280, Note_on_c, 4, 57, 75
5, 29640, Note_off_c, 4, 57, 0
5, 29760, Note_on_c, 4, 53, 72
5, 30120, Note_off_c, 4, 53, 0
5, 30240, Note_on_c, 4, 53, 69
5, 30600, Note_off_c, 4, 53, 0
5, 30720, Note_on_c, 4, 52, 75
5, 31080, Note_off_c, 4, 52, 0
5, 31200, Note_on_c, 4, 52, 71
5, 31560, Note_off_c, 4, 52, 0
5, 31680, Note_on_c, 4, 48, 67
5, 32040, Note_off_c, 4, 48, 0
5, 32160, Note_on_c, 4, 48, 64
5, 32520, Note_off_c, 4, 48, 0
5, 32640, Note_on_c, 4, 53, 60
5, 33000, Note_off_c, 4, 53, 0
5, 33120, Note_on_c, 4, 53, 56
5, 33480, Note_off_c, 4, 53, 0
5, 33600, Note_on_c, 4, 55, 52
5, 33960, Note_off_c, 4, 55, 0
5, 34080, Note_on_c, 4, 55, 49
5, 34440, Note_off_c, 4, 55, 0
5, 34560, Note_on_c, 4, 57, 72
5, 34920, Note_off_c, 4, 57, 0
5, 35040, Note_on_c, 4, 57, 68
5, 35400, Note_off_c, 4, 57, 0
5, 35520, Note_on_c, 4, 53, 64
5, 35880, Note_off_c, 4, 53, 0
5, 36000, Note_on_c, 4, 53, 60
5, 36360, Note_off_c, 4, 53, 0
5, 36480, Note_on_c, 4, 52, 67
5, 36840, Note_off_c, 4, 52, 0
5, 36960, Note_on_c, 4, 52, 64
5, 37320, Note_off_c, 4, 52, 0
5, 37440, Note_on_c, 4, 48, 61
5, 37800, Note_off_c, 4, 48, 0
5, 37920, Note_on_c, 4, 48, 58
5, 38280, Note_off_c, 4, 48, 0
5, 38400, Note_on_c, 4, 53, 55
5, 38760, Note_off_c, 4, 53, 0
5, 38880, Note_on_c, 4, 53, 52
5, 39240, Note_off_c, 4, 53, 0
5, 39360, Note_on_c, 4, 55, 49
5, 39720, Note_off_c, 4, 55, 0
5, 39840, Note_on_c, 4, 55, 47
5, 40200, Note_off_c, 4, 55, 0
5, 40320, Note_on_c, 4, 64, 56
5, 40680, Note_off_c, 4, 64, 0
5, 44160, Note_on_c, 4, 62, 63
5, 44520, Note_off_c, 4, 62, 0
5, 48000, Note_on_c, 4, 57, 76
5, 48000, Note_on_c, 4, 62, 76
5, 48360, Note_off_c, 4, 62, 0
5, 48360, Note_off_c, 4, 57, 0
5, 51840, Note_on_c, 4, 55, 70
5, 52124, Note_off_c, 4, 55, 0
5, 52320, Note_on_c, 4, 57, 71
5, 52604, Note_off_c, 4, 57, 0
5, 52800, Note_on_c, 4, 54, 84
5, 53084, Note_off_c, 4, 54, 0
5, 53280, Note_on_c, 4, 50, 73
5, 53564, Note_off_c, 4, 50, 0
5, 53760, Note_on_c, 4, 55, 74
5, 54044, Note_off_c, 4, 55, 0
5, 54240, Note_on_c, 4, 57, 76
5, 54524, Note_off_c, 4, 57, 0
5, 54720, Note_on_c, 4, 54, 90
5, 55004, Note_off_c, 4, 54, 0
5, 55200, Note_on_c, 4, 50, 78
5, 55484, Note_off_c, 4, 50, 0
5, 55680, Note_on_c, 4, 62, 77
5, 56065, Note_off_c, 4, 62, 0
5, 56640, Note_on_c, 4, 62, 75
5, 57025, Note_off_c, 4, 62, 0
5, 57600, Note_on_c, 4, 67, 72
5, 57985, Note_off_c, 4, 67, 0
5, 58560, Note_on_c, 4, 67, 70
5, 58945, Note_off_c, 4, 67, 0
5, 63360, Note_on_c, 4, 61, 38
5, 63720, Note_off_c, 4, 61, 0
5, 63840, Note_on_c, 4, 61, 38
5, 64200, Note_off_c, 4, 61, 0
5, 64320, Note_on_c, 4, 61, 39
5, 64680, Note_off_c, 4, 61, 0
5, 64800, Note_on_c, 4, 61, 39
5, 65160, Note_off_c, 4, 61, 0
5, 65280, Note_on_c, 4, 60, 40
5, 65640, Note_off_c, 4, 60, 0
5, 65760, Note_on_c, 4, 59, 41
5, 66120, Note_off_c, 4, 59, 0
5, 66240, Note_on_c, 4, 60, 41
5, 66600, Note_off_c, 4, 60, 0
5, 66720, Note_on_c, 4, 57, 42
5, 67080, Note_off_c, 4, 57, 0
5, 67200, Note_on_c, 4, 55, 42
5, 67560, Note_off_c, 4, 55, 0
5, 67680, Note_on_c, 4, 55, 43
5, 68040, Note_off_c, 4, 55, 0
5, 68160, Note_on_c, 4, 59, 43
5, 68520, Note_off_c, 4, 59, 0
5, 68640, Note_on_c, 4, 59, 44
5, 69000, Note_off_c, 4, 59, 0
5, 69120, Note_on_c, 4, 60, 44
5, 69480, Note_off_c, 4, 60, 0
5, 69600, Note_on_c, 4, 60, 45
5, 69960, Note_off_c, 4, 60, 0
5, 70080, Note_on_c, 4, 57, 45
5, 70440, Note_off_c, 4, 57, 0
5, 70560, Note_on_c, 4, 57, 46
5, 70920, Note_off_c, 4, 57, 0
5, 71040, Note_on_c, 4, 59, 47
5, 71041, Note_off_c, 4, 59, 0
5, 71520, Note_on_c, 4, 59, 47
5, 71880, Note_off_c, 4, 59, 0
5, 72000, Note_on_c, 4, 57, 48
5, 72360, Note_off_c, 4, 57, 0
5, 72480, Note_on_c, 4, 54, 48
5, 72840, Note_off_c, 4, 54, 0
5, 72960, Note_on_c, 4, 55, 49
5, 73320, Note_off_c, 4, 55, 0
5, 73440, Note_on_c, 4, 52, 49
5, 73800, Note_off_c, 4, 52, 0
5, 73920, Note_on_c, 4, 50, 50
5, 74160, Note_on_c, 4, 62, 50
5, 74280, Note_off_c, 4, 50, 0
5, 74400, Note_off_c, 4, 62, 0
5, 74400, Note_on_c, 4, 60, 50
5, 74640, Note_off_c, 4, 60, 0
5, 74640, Note_on_c, 4, 57, 51
5, 74857, Note_off_c, 4, 57, 0
5, 74880, Note_on_c, 4, 55, 51
5, 75240, Note_off_c, 4, 55, 0
5, 75360, Note_on_c, 4, 55, 51
5, 75720, Note_off_c, 4, 55, 0
5, 75840, Note_on_c, 4, 59, 52
5, 76200, Note_off_c, 4, 59, 0
5, 76320, Note_on_c, 4, 59, 53
5, 76680, Note_off_c, 4, 59, 0
5, 76800, Note_on_c, 4, 60, 53
5, 77160, Note_off_c, 4, 60, 0
5, 77280, Note_on_c, 4, 60, 54
5, 77640, Note_off_c, 4, 60, 0
5, 77760, Note_on_c, 4, 57, 54
5, 78120, Note_off_c, 4, 57, 0
5, 78240, Note_on_c, 4, 57, 55
5, 78600, Note_off_c, 4, 57, 0
5, 78720, Note_on_c, 4, 59, 55
5, 79080, Note_off_c, 4, 59, 0
5, 79200, Note_on_c, 4, 59, 56
5, 79560, Note_off_c, 4, 59, 0
5, 79680, Note_on_c, 4, 57, 56
5, 80040, Note_off_c, 4, 57, 0
5, 80160, Note_on_c, 4, 54, 57
5, 80520, Note_off_c, 4, 54, 0
5, 80640, Note_on_c, 4, 55, 57
5, 81000, Note_off_c, 4, 55, 0
5, 81120, Note_on_c, 4, 52, 58
5, 81480, Note_off_c, 4, 52, 0
5, 81600, Note_on_c, 4, 50, 58
5, 81756, Note_off_c, 4, 50, 0
5, 82080, Note_on_c, 4, 48, 59
5, 82236, Note_off_c, 4, 48, 0
5, 96000, Note_on_c, 4, 59, 84
5, 96190, Note_off_c, 4, 59, 0
5, 96240, Note_on_c, 4, 59, 85
5, 96430, Note_off_c, 4, 59, 0
5, 96480, Note_on_c, 4, 59, 86
5, 96670, Note_off_c, 4, 59, 0
5, 96720, Note_on_c, 4, 59, 87
5, 96910, Note_off_c, 4, 59, 0
5, 96960, Note_on_c, 4, 59, 88
5, 97150, Note_off_c, 4, 59, 0
5, 97200, Note_on_c, 4, 59, 89
5, 97390, Note_off_c, 4, 59, 0
5, 97440, Note_on_c, 4, 59, 89
5, 97630, Note_off_c, 4, 59, 0
5, 97680, Note_on_c, 4, 59, 90
5, 97870, Note_off_c, 4, 59, 0
5, 97920, Note_on_c, 4, 60, 91
5, 98400, Note_off_c, 4, 60, 0
5, 99840, Control_c, 4, 64, 127
5, 99840, Note_on_c, 4, 50, 76
5, 99960, Note_off_c, 4, 50, 0
5, 100320, Note_on_c, 4, 50, 78
5, 100440, Note_off_c, 4, 50, 0
5, 100800, Note_on_c, 4, 50, 79
5, 100920, Note_off_c, 4, 50, 0
5, 101280, Note_on_c, 4, 50, 81
5, 101400, Note_off_c, 4, 50, 0
5, 101700, Control_c, 4, 64, 0
5, 101760, Control_c, 4, 64, 127
5, 101760, Note_on_c, 4, 50, 83
5, 101880, Note_off_c, 4, 50, 0
5, 102240, Note_on_c, 4, 50, 84
5, 102360, Note_off_c, 4, 50, 0
5, 102720, Note_on_c, 4, 50, 86
5, 102840, Note_off_c, 4, 50, 0
5, 103200, Note_on_c, 4, 50, 87
5, 103320, Note_off_c, 4, 50, 0
5, 103620, Control_c, 4, 64, 0
5, 103680, Note_on_c, 4, 59, 89
5, 104160, Note_off_c, 4, 59, 0
5, 120960, Note_on_c, 4, 58, 40
5, 121320, Note_off_c, 4, 58, 0
5, 121440, Note_on_c, 4, 58, 40
5, 121800, Note_off_c, 4, 58, 0
5, 121920, Note_on_c, 4, 58, 41
5, 122280, Note_off_c, 4, 58, 0
5, 122400, Note_on_c, 4, 58, 42
5, 122760, Note_off_c, 4, 58, 0
5, 122880, Note_on_c, 4, 57, 43
5, 123240, Note_off_c, 4, 57, 0
5, 123360, Note_on_c, 4, 57, 43
5, 123720, Note_off_c, 4, 57, 0
5, 123840, Note_on_c, 4, 57, 44
5, 124200, Note_off_c, 4, 57, 0
5, 124320, Note_on_c, 4, 57, 45
5, 124680, Note_off_c, 4, 57, 0
5, 124800, Note_on_c, 4, 58, 46
5, 125160, Note_off_c, 4, 58, 0
5, 125280, Note_on_c, 4, 58, 46
5, 125640, Note_off_c, 4, 58, 0
5, 125760, Note_on_c, 4, 58, 47
5, 126120, Note_off_c, 4, 58, 0
5, 126240, Note_on_c, 4, 58, 48
5, 126600, Note_off_c, 4, 58, 0
5, 126720, Note_on_c, 4, 57, 49
5, 127080, Note_off_c, 4, 57, 0
5, 127200, Note_on_c, 4, 57, 49
5, 127560, Note_off_c, 4, 57, 0
5, 127680, Note_on_c, 4, 57, 50
5, 128040, Note_off_c, 4, 57, 0
5, 128160, Note_on_c, 4, 57, 51
5, 128161, Note_off_c, 4, 57, 0
5, 132480, Note_on_c, 4, 53, 48
5, 132960, Note_off_c, 4, 53, 0
5, 132960, Note_on_c, 4, 53, 49
5, 133440, Note_off_c, 4, 53, 0
5, 133440, Note_on_c, 4, 53, 50
5, 133920, Note_off_c, 4, 53, 0
5, 133920, Note_on_c, 4, 53, 51
5, 134370, Note_off_c, 4, 53, 0
5, 134400, Note_on_c, 4, 52, 51
5, 134880, Note_off_c, 4, 52, 0
5, 134880, Note_on_c, 4, 52, 52
5, 135360, Note_off_c, 4, 52, 0
5, 135360, Note_on_c, 4, 52, 53
5, 135840, Note_off_c, 4, 52, 0
5, 135840, Note_on_c, 4, 52, 53
5, 136290, Note_off_c, 4, 52, 0
5, 136320, Note_on_c, 4, 53, 54
5, 136800, Note_off_c, 4, 53, 0
5, 136800, Note_on_c, 4, 53, 55
5, 137280, Note_off_c, 4, 53, 0
5, 137280, Note_on_c, 4, 53, 55
5, 137760, Note_off_c, 4, 53, 0
5, 137760, Note_on_c, 4, 53, 56
5, 138215, Note_off_c, 4, 53, 0
5, 138240, Note_on_c, 4, 52, 57
5, 138720, Note_off_c, 4, 52, 0
5, 138720, Note_on_c, 4, 52, 58
5, 139200, Note_off_c, 4, 52, 0
5, 139200, Note_on_c, 4, 52, 58
5, 139680, Note_off_c, 4, 52, 0
5, 139680, Note_on_c, 4, 52, 59
5, 140130, Note_off_c, 4, 52, 0
5, 140160, Control_c, 4, 64, 127
5, 140160, Note_on_c, 4, 57, 75
5, 140255, Note_off_c, 4, 57, 0
5, 140640, Note_on_c, 4, 57, 75
5, 140735, Note_off_c, 4, 57, 0
5, 141060, Control_c, 4, 64, 0
5, 141120, Control_c, 4, 64, 127
5, 141120, Note_on_c, 4, 57, 75
5, 141215, Note_off_c, 4, 57, 0
5, 141600, Note_on_c, 4, 57, 74
5, 141695, Note_off_c, 4, 57, 0
5, 142020, Control_c, 4, 64, 0
5, 142080, Control_c, 4, 64, 127
5, 142080, Note_on_c, 4, 57, 74
5, 142175, Note_off_c, 4, 57, 0
5, 142560, Note_on_c, 4, 57, 74
5, 142655, Note_off_c, 4, 57, 0
5, 142980, Control_c, 4, 64, 0
5, 143040, Control_c, 4, 64, 127
5, 143040, Note_on_c, 4, 56, 73
5, 143135, Note_off_c, 4, 56, 0
5, 143520, Note_on_c, 4, 56, 73
5, 143615, Note_off_c, 4, 56, 0
5, 143940, Control_c, 4, 64, 0
5, 144000, Control_c, 4, 64, 127
5, 144000, Note_on_c, 4, 55, 72
5, 144095, Note_off_c, 4, 55, 0
5, 144480, Note_on_c, 4, 55, 72
5, 144575, Note_off_c, 4, 55, 0
5, 144900, Control_c, 4, 64, 0
5, 144960, Control_c, 4, 64, 127
5, 144960, Note_on_c, 4, 55, 72
5, 145055, Note_off_c, 4, 55, 0
5, 145440, Note_on_c, 4, 55, 71
5, 145535, Note_off_c, 4, 55, 0
5, 145860, Control_c, 4, 64, 0
5, 145920, Control_c, 4, 64, 127
5, 145920, Note_on_c, 4, 55, 71
5, 146015, Note_off_c, 4, 55, 0
5, 146400, Note_on_c, 4, 55, 71
5, 146495, Note_off_c, 4, 55, 0
5, 146820, Control_c, 4, 64, 0
5, 146880, Control_c, 4, 64, 127
5, 146880, Note_on_c, 4, 54, 70
5, 146975, Note_off_c, 4, 54, 0
5, 147360, Note_on_c, 4, 54, 70
5, 147455, Note_off_c, 4, 54, 0
5, 147780, Control_c, 4, 64, 0
5, 147840, Control_c, 4, 64, 127
5, 147840, Note_on_c, 4, 53, 69
5, 147935, Note_off_c, 4, 53, 0
5, 148320, Note_on_c, 4, 53, 69
5, 148415, Note_off_c, 4, 53, 0
5, 148740, Control_c, 4, 64, 0
5, 148800, Control_c, 4, 64, 127
5, 148800, Note_on_c, 4, 52, 69
5, 148895, Note_off_c, 4, 52, 0
5, 149280, Note_on_c, 4, 52, 68
5, 149375, Note_off_c, 4, 52, 0
5, 149700, Control_c, 4, 64, 0
5, 149760, Control_c, 4, 64, 127
5, 149760, Note_on_c, 4, 50, 68
5, 149855, Note_off_c, 4, 50, 0
5, 150240, Note_on_c, 4, 50, 67
5, 150335, Note_off_c, 4, 50, 0
5, 150660, Control_c, 4, 64, 0
5, 150720, Control_c, 4, 64, 127
5, 150720, Note_on_c, 4, 48, 67
5, 150815, Note_off_c, 4, 48, 0
5, 151200, Note_on_c, 4, 48, 67
5, 151295, Note_off_c, 4, 48, 0
5, 151620, Control_c, 4, 64, 0
5, 184320, Note_on_c, 4, 64, 51
5, 184680, Note_off_c, 4, 64, 0
5, 184800, Note_on_c, 4, 64, 50
5, 185160, Note_off_c, 4, 64, 0
5, 185280, Note_on_c, 4, 61, 50
5, 185640, Note_off_c, 4, 61, 0
5, 185760, Note_on_c, 4, 61, 49
5, 186120, Note_off_c, 4, 61, 0
5, 186240, Note_on_c, 4, 62, 48
5, 186600, Note_off_c, 4, 62, 0
5, 186720, Note_on_c, 4, 62, 48
5, 187080, Note_off_c, 4, 62, 0
5, 187200, Note_on_c, 4, 59, 47
5, 187560, Note_off_c, 4, 59, 0
5, 187680, Note_on_c, 4, 59, 46
5, 188040, Note_off_c, 4, 59, 0
5, 188160, Note_on_c, 4, 60, 46
5, 188520, Note_off_c, 4, 60, 0
5, 188640, Note_on_c, 4, 60, 45
5, 189000, Note_off_c, 4, 60, 0
5, 189120, Note_on_c, 4, 64, 45
5, 189480, Note_off_c, 4, 64, 0
5, 189600, Note_on_c, 4, 64, 44
5, 189960, Note_off_c, 4, 64, 0
5, 192480, Note_on_c, 4, 57, 58
5, 192480, Note_on_c, 4, 62, 58
5, 192790, Note_off_c, 4, 62, 0
5, 192790, Note_off_c, 4, 57, 0
5, 192960, Note_on_c, 4, 64, 61
5, 192960, Note_on_c, 4, 60, 61
5, 193270, Note_off_c, 4, 60, 0
5, 193270, Note_off_c, 4, 64, 0
5, 193440, Note_on_c, 4, 62, 64
5, 193440, Note_on_c, 4, 59, 64
5, 193750, Note_off_c, 4, 59, 0
5, 193750, Note_off_c, 4, 62, 0
5, 197760, Note_on_c, 4, 63, 53
5, 198120, Note_off_c, 4, 63, 0
5, 198240, Note_on_c, 4, 63, 52
5, 198600, Note_off_c, 4, 63, 0
5, 198720, Note_on_c, 4, 60, 51
5, 199080, Note_off_c, 4, 60, 0
5, 199200, Note_on_c, 4, 60, 51
5, 199560, Note_off_c, 4, 60, 0
5, 199680, Note_on_c, 4, 62, 50
5, 200040, Note_off_c, 4, 62, 0
5, 200160, Note_on_c, 4, 62, 50
5, 200520, Note_off_c, 4, 62, 0
5, 200640, Note_on_c, 4, 59, 49
5, 201000, Note_off_c, 4, 59, 0
5, 201120, Note_on_c, 4, 59, 48
5, 201480, Note_off_c, 4, 59, 0
5, 201600, Note_on_c, 4, 58, 68
5, 201960, Note_off_c, 4, 58, 0
5, 202080, Note_on_c, 4, 58, 55
5, 202440, Note_off_c, 4, 58, 0
5, 202560, Note_on_c, 4, 58, 46
5, 202920, Note_off_c, 4, 58, 0
5, 203040, Note_on_c, 4, 58, 46
5, 203400, Note_off_c, 4, 58, 0
5, 203520, Note_on_c, 4, 56, 45
5, 203880, Note_off_c, 4, 56, 0
5, 204000, Note_on_c, 4, 56, 45
5, 204360, Note_off_c, 4, 56, 0
5, 204480, Note_on_c, 4, 56, 44
5, 204840, Note_off_c, 4, 56, 0
5, 204960, Note_on_c, 4, 56, 43
5, 205320, Note_off_c, 4, 56, 0
5, 205440, Note_on_c, 4, 60, 65
5, 205800, Note_off_c, 4, 60, 0
5, 205920, Note_on_c, 4, 60, 49
5, 206280, Note_off_c, 4, 60, 0
5, 206400, Note_on_c, 4, 60, 42
5, 206760, Note_off_c, 4, 60, 0
5, 206880, Note_on_c, 4, 60, 41
5, 207240, Note_off_c, 4, 60, 0
5, 211200, Note_on_c, 4, 57, 78
5, 211560, Note_off_c, 4, 57, 0
5, 211680, Note_on_c, 4, 57, 75
5, 212040, Note_off_c, 4, 57, 0
5, 212160, Note_on_c, 4, 53, 73
5, 212520, Note_off_c, 4, 53, 0
5, 212640, Note_on_c, 4, 53, 70
5, 213000, Note_off_c, 4, 53, 0
5, 213120, Note_on_c, 4, 52, 68
5, 213480, Note_off_c, 4, 52, 0
5, 213600, Note_on_c, 4, 52, 66
5, 213960, Note_off_c, 4, 52, 0
5, 214080, Note_on_c, 4, 48, 63
5, 214440, Note_off_c, 4, 48, 0
5, 214560, Note_on_c, 4, 48, 61
5, 214920, Note_off_c, 4, 48, 0
5, 215040, Note_on_c, 4, 53, 59
5, 215400, Note_off_c, 4, 53, 0
5, 215520, Note_on_c, 4, 53, 56
5, 215880, Note_off_c, 4, 53, 0
5, 216000, Note_on_c, 4, 55, 54
5, 216360, Note_off_c, 4, 55, 0
5, 216480, Note_on_c, 4, 55, 51
5, 216840, Note_off_c, 4, 55, 0
5, 216960, Note_on_c, 4, 57, 63
5, 217320, Note_off_c, 4, 57, 0
5, 217440, Note_on_c, 4, 57, 61
5, 217800, Note_off_c, 4, 57, 0
5, 217920, Note_on_c, 4, 53, 60
5, 218280, Note_off_c, 4, 53, 0
5, 218400, Note_on_c, 4, 53, 58
5, 218760, Note_off_c, 4, 53, 0
5, 218880, Note_on_c, 4, 52, 56
5, 219240, Note_off_c, 4, 52, 0
5, 219360, Note_on_c, 4, 52, 54
5, 219720, Note_off_c, 4, 52, 0
5, 219840, Note_on_c, 4, 48, 53
5, 220200, Note_off_c, 4, 48, 0
5, 220320, Note_on_c, 4, 48, 51
5, 220680, Note_off_c, 4, 48, 0
5, 220800, Note_on_c, 4, 53, 49
5, 221160, Note_off_c, 4, 53, 0
5, 221280, Note_on_c, 4, 53, 47
5, 221640, Note_off_c, 4, 53, 0
5, 221760, Note_on_c, 4, 55, 45
5, 222120, Note_off_c, 4, 55, 0
5, 222240, Note_on_c, 4, 55, 44
5, 222600, Note_off_c, 4, 55, 0
5, 222720, Note_on_c, 4, 64, 58
5, 223080, Note_off_c, 4, 64, 0
5, 226560, Note_on_c, 4, 62, 64
5, 226920, Note_off_c, 4, 62, 0
5, 230400, Note_on_c, 4, 62, 75
5, 230400, Note_on_c, 4, 57, 75
5, 230760, Note_off_c, 4, 57, 0
5, 230760, Note_off_c, 4, 62, 0
5, 234240, Note_on_c, 4, 62, 79
5, 234960, Note_off_c, 4, 62, 0
5, 235200, Note_on_c, 4, 62, 77
5, 235920, Note_off_c, 4, 62, 0
5, 236160, Note_on_c, 4, 67, 75
5, 236880, Note_off_c, 4, 67, 0
5, 237120, Note_on_c, 4, 67, 73
5, 237845, Note_off_c, 4, 67, 0
5, 255360, Note_on_c, 4, 48, 44
5, 255720, Note_off_c, 4, 48, 0
5, 255840, Note_on_c, 4, 48, 44
5, 256200, Note_off_c, 4, 48, 0
5, 256320, Note_on_c, 4, 52, 45
5, 256680, Note_off_c, 4, 52, 0
5, 256800, Note_on_c, 4, 52, 45
5, 257160, Note_off_c, 4, 52, 0
5, 257280, Note_on_c, 4, 53, 45
5, 257640, Note_off_c, 4, 53, 0
5, 257760, Note_on_c, 4, 53, 46
5, 258120, Note_off_c, 4, 53, 0
5, 258240, Note_on_c, 4, 50, 46
5, 258600, Note_off_c, 4, 50, 0
5, 258720, Note_on_c, 4, 50, 46
5, 259080, Note_off_c, 4, 50, 0
5, 259200, Note_on_c, 4, 52, 47
5, 259560, Note_off_c, 4, 52, 0
5, 259680, Note_on_c, 4, 48, 47
5, 260040, Note_off_c, 4, 48, 0
5, 260160, Note_on_c, 4, 50, 47
5, 260520, Note_off_c, 4, 50, 0
5, 260640, Note_on_c, 4, 47, 48
5, 261000, Note_off_c, 4, 47, 0
5, 261120, Note_on_c, 4, 48, 48
5, 261480, Note_off_c, 4, 48, 0
5, 261600, Note_on_c, 4, 45, 49
5, 261960, Note_off_c, 4, 45, 0
5, 262080, Note_on_c, 4, 43, 49
5, 262236, Note_off_c, 4, 43, 0
5, 262560, Note_on_c, 4, 41, 49
5, 262716, Note_off_c, 4, 41, 0
5, 276480, Note_on_c, 4, 52, 74
5, 276670, Note_off_c, 4, 52, 0
5, 276720, Note_on_c, 4, 52, 75
5, 276910, Note_off_c, 4, 52, 0
5, 276960, Note_on_c, 4, 52, 76
5, 277150, Note_off_c, 4, 52, 0
5, 277200, Note_on_c, 4, 52, 77
5, 277390, Note_off_c, 4, 52, 0
5, 277440, Note_on_c, 4, 52, 78
5, 277630, Note_off_c, 4, 52, 0
5, 277680, Note_on_c, 4, 52, 79
5, 277870, Note_off_c, 4, 52, 0
5, 277920, Note_on_c, 4, 52, 80
5, 278110, Note_off_c, 4, 52, 0
5, 278160, Note_on_c, 4, 52, 80
5, 278350, Note_off_c, 4, 52, 0
5, 278400, Note_on_c, 4, 53, 81
5, 278880, Note_off_c, 4, 53, 0
5, 280320, Control_c, 4, 64, 127
5, 280320, Note_on_c, 4, 55, 72
5, 280415, Note_off_c, 4, 55, 0
5, 280800, Note_on_c, 4, 55, 73
5, 280895, Note_off_c, 4, 55, 0
5, 281280, Note_on_c, 4, 55, 74
5, 281375, Note_off_c, 4, 55, 0
5, 281760, Note_on_c, 4, 55, 75
5, 281855, Note_off_c, 4, 55, 0
5, 282180, Control_c, 4, 64, 0
5, 282240, Control_c, 4, 64, 127
5, 282240, Note_on_c, 4, 55, 77
5, 282335, Note_off_c, 4, 55, 0
5, 282720, Note_on_c, 4, 55, 78
5, 282815, Note_off_c, 4, 55, 0
5, 283200, Note_on_c, 4, 55, 79
5, 283295, Note_off_c, 4, 55, 0
5, 283680, Note_on_c, 4, 55, 80
5, 283775, Note_off_c, 4, 55, 0
5, 284100, Control_c, 4, 64, 0
5, 284160, Note_on_c, 4, 64, 81
5, 284545, Note_off_c, 4, 64, 0
5, 299520, Control_c, 4, 64, 0
5, 300480, Note_on_c, 4, 57, 61
5, 301200, Note_off_c, 4, 57, 0
5, 301200, Note_on_c, 4, 60, 49
5, 301390, Note_off_c, 4, 60, 0
5, 301440, Note_on_c, 4, 57, 45
5, 301825, Note_off_c, 4, 57, 0
5, 303360, Note_on_c, 4, 60, 67
5, 304080, Note_off_c, 4, 60, 0
5, 304080, Note_on_c, 4, 65, 55
5, 304270, Note_off_c, 4, 65, 0
5, 304320, Note_on_c, 4, 60, 49
5, 304705, Note_off_c, 4, 60, 0
5, 307680, Note_on_c, 4, 57, 72
5, 308065, Note_off_c, 4, 57, 0
5, 308160, Note_on_c, 4, 62, 75
5, 308640, Note_off_c, 4, 62, 0
5, 308640, Note_on_c, 4, 64, 68
5, 309120, Note_off_c, 4, 64, 0
5, 309120, Note_on_c, 4, 65, 52
5, 309505, Note_off_c, 4, 65, 0
5, 311040, Note_on_c, 4, 57, 47
5, 312000, Note_off_c, 4, 57, 0
5, 312000, Note_on_c, 4, 55, 34
5, 312385, Note_off_c, 4, 55, 0
5, 312480, Note_on_c, 4, 58, 46
5, 312960, Note_off_c, 4, 58, 0
5, 312960, Note_on_c, 4, 57, 51
5, 313345, Note_off_c, 4, 57, 0
5, 313440, Note_on_c, 4, 57, 56
5, 313825, Note_off_c, 4, 57, 0
5, 313920, Note_on_c, 4, 62, 62
5, 315240, Note_off_c, 4, 62, 0
5, 315360, Note_on_c, 4, 61, 60
5, 315745, Note_off_c, 4, 61, 0
5, 315840, Note_on_c, 4, 60, 67
5, 317760, Note_off_c, 4, 60, 0
5, 323520, Note_on_c, 4, 57, 64
5, 324240, Note_off_c, 4, 57, 0
5, 324240, Note_on_c, 4, 60, 49
5, 324430, Note_off_c, 4, 60, 0
5, 324480, Note_on_c, 4, 57, 44
5, 324865, Note_off_c, 4, 57, 0
5, 326400, Note_on_c, 4, 60, 71
5, 327120, Note_off_c, 4, 60, 0
5, 327120, Note_on_c, 4, 65, 56
5, 327310, Note_off_c, 4, 65, 0
5, 327360, Note_on_c, 4, 60, 51
5, 327745, Note_off_c, 4, 60, 0
5, 334080, Note_on_c, 4, 57, 59
5, 335040, Note_off_c, 4, 57, 0
5, 335040, Note_on_c, 4, 55, 43
5, 335425, Note_off_c, 4, 55, 0
5, 336960, Note_on_c, 4, 62, 69
5, 337440, Note_off_c, 4, 62, 0
5, 337440, Note_on_c, 4, 60, 57
5, 337825, Note_off_c, 4, 60, 0
5, 344160, Note_on_c, 4, 60, 57
5, 344640, Note_off_c, 4, 60, 0
5, 344640, Note_on_c, 4, 57, 54
5, 345025, Note_off_c, 4, 57, 0
5, 345120, Note_on_c, 4, 60, 51
5, 345505, Note_off_c, 4, 60, 0
5, 346600, Note_on_c, 4, 57, 59
5, 347280, Note_on_c, 4, 60, 44
5, 347295, Note_off_c, 4, 57, 0
5, 347470, Note_off_c, 4, 60, 0
5, 347520, Note_on_c, 4, 57, 38
5, 347905, Note_off_c, 4, 57, 0
5, 349500, Note_on_c, 4, 60, 69
5, 350145, Note_off_c, 4, 60, 0
5, 350160, Note_on_c, 4, 65, 52
5, 350350, Note_off_c, 4, 65, 0
5, 350400, Note_on_c, 4, 60, 46
5, 350785, Note_off_c, 4, 60, 0
5, 353760, Note_on_c, 4, 60, 80
5, 354145, Note_off_c, 4, 60, 0
5, 354240, Note_on_c, 4, 60, 69
5, 355590, Note_off_c, 4, 60, 0
5, 357120, Note_on_c, 4, 57, 63
5, 357120, Note_on_c, 4, 53, 63
5, 358080, Note_off_c, 4, 53, 0
5, 358080, Note_off_c, 4, 57, 0
5, 358080, Note_on_c, 4, 58, 44
5, 358080, Note_on_c, 4, 55, 44
5, 358465, Note_off_c, 4, 55, 0
5, 358465, Note_off_c, 4, 58, 0
5, 358560, Note_on_c, 4, 60, 41
5, 359420, Note_off_c, 4, 60, 0
5, 359520, Note_on_c, 4, 57, 50
5, 359905, Note_off_c, 4, 57, 0
5, 360000, Note_on_c, 4, 62, 54
5, 361355, Note_off_c, 4, 62, 0
5, 361440, Note_on_c, 4, 61, 35
5, 361825, Note_off_c, 4, 61, 0
5, 361920, Note_on_c, 4, 60, 62
5, 362305, Note_off_c, 4, 60, 0
5, 362400, Note_on_c, 4, 60, 65
5, 363255, Note_off_c, 4, 60, 0
5, 364320, Note_on_c, 4, 53, 44
5, 365175, Note_off_c, 4, 53, 0
5, 365280, Note_on_c, 4, 53, 50
5, 365660, Note_off_c, 4, 53, 0
5, 365760, Note_on_c, 4, 53, 51
5, 366720, Note_off_c, 4, 53, 0
5, 366720, Note_on_c, 4, 52, 36
5, 367105, Note_off_c, 4, 52, 0
5, 369600, Note_on_c, 4, 57, 64
5, 370955, Note_off_c, 4, 57, 0
5, 372480, Note_on_c, 4, 60, 79
5, 373835, Note_off_c, 4, 60, 0
5, 380160, Note_on_c, 4, 57, 65
5, 381120, Note_off_c, 4, 57, 0
5, 381120, Note_on_c, 4, 55, 46
5, 381505, Note_off_c, 4, 55, 0
5, 383040, Note_on_c, 4, 62, 71
5, 383425, Note_off_c, 4, 62, 0
5, 383520, Note_on_c, 4, 60, 61
5, 383905, Note_off_c, 4, 60, 0
5, 387840, Note_on_c, 4, 46, 49
5, 388685, Note_off_c, 4, 46, 0
5, 388800, Note_on_c, 4, 46, 57
5, 389760, Note_off_c, 4, 46, 0
5, 389760, Note_on_c, 4, 45, 44
5, 390145, Note_off_c, 4, 45, 0
5, 390240, Note_on_c, 4, 53, 54
5, 390625, Note_off_c, 4, 53, 0
5, 390720, Note_on_c, 4, 52, 50
5, 391105, Note_off_c, 4, 52, 0
5, 391200, Note_on_c, 4, 50, 46
5, 391585, Note_off_c, 4, 50, 0
5, 391680, Note_on_c, 4, 48, 44
5, 392450, Note_off_c, 4, 48, 0
5, 393120, Note_on_c, 4, 64, 49
5, 393505, Note_off_c, 4, 64, 0
5, 393600, Note_on_c, 4, 64, 50
5, 393985, Note_off_c, 4, 64, 0
5, 394080, Note_on_c, 4, 64, 52
5, 394465, Note_off_c, 4, 64, 0
5, 395040, Note_on_c, 4, 65, 50
5, 395425, Note_off_c, 4, 65, 0
5, 395520, Note_on_c, 4, 65, 48
5, 395905, Note_off_c, 4, 65, 0
5, 396000, Note_on_c, 4, 65, 45
5, 396385, Note_off_c, 4, 65, 0
5, 396480, Note_on_c, 4, 65, 49
5, 396865, Note_off_c, 4, 65, 0
5, 396960, Note_on_c, 4, 65, 51
5, 397345, Note_off_c, 4, 65, 0
5, 397920, Note_on_c, 4, 59, 56
5, 398305, Note_off_c, 4, 59, 0
5, 398400, Note_on_c, 4, 59, 58
5, 398785, Note_off_c, 4, 59, 0
5, 398880, Note_on_c, 4, 59, 60
5, 399265, Note_off_c, 4, 59, 0
5, 399360, Note_on_c, 4, 59, 62
5, 399745, Note_off_c, 4, 59, 0
5, 399840, Note_on_c, 4, 59, 64
5, 400225, Note_off_c, 4, 59, 0
5, 400800, Note_on_c, 4, 60, 61
5, 401185, Note_off_c, 4, 60, 0
5, 401280, Note_on_c, 4, 60, 58
5, 401665, Note_off_c, 4, 60, 0
5, 401760, Note_on_c, 4, 60, 55
5, 402145, Note_off_c, 4, 60, 0
5, 408960, Note_on_c, 4, 60, 78
5, 409440, Note_off_c, 4, 60, 0
5, 409440, Note_on_c, 4, 62, 73
5, 409875, Note_off_c, 4, 62, 0
5, 409920, Note_on_c, 4, 64, 68
5, 410760, Note_off_c, 4, 64, 0
5, 410880, Note_on_c, 4, 65, 58
5, 411725, Note_off_c, 4, 65, 0
5, 411840, Note_on_c, 4, 64, 48
5, 412225, Note_off_c, 4, 64, 0
5, 427200, Note_on_c, 4, 57, 57
5, 428555, Note_off_c, 4, 57, 0
5, 430080, Note_on_c, 4, 60, 65
5, 431435, Note_off_c, 4, 60, 0
5, 434400, Note_on_c, 4, 57, 78
5, 434785, Note_off_c, 4, 57, 0
5, 434880, Note_on_c, 4, 53, 77
5, 435360, Note_off_c, 4, 53, 0
5, 435360, Note_on_c, 4, 55, 68
5, 435840, Note_off_c, 4, 55, 0
5, 435840, Note_on_c, 4, 60, 59
5, 436225, Note_off_c, 4, 60, 0
5, 437760, Note_on_c, 4, 57, 57
5, 438720, Note_off_c, 4, 57, 0
5, 438720, Note_on_c, 4, 55, 40
5, 439105, Note_off_c, 4, 55, 0
5, 440640, Note_on_c, 4, 53, 69
5, 441120, Note_off_c, 4, 53, 0
5, 441120, Note_on_c, 4, 55, 59
5, 441505, Note_off_c, 4, 55, 0
5, 442560, Note_on_c, 4, 45, 49
5, 442945, Note_off_c, 4, 45, 0
5, 443040, Note_on_c, 4, 48, 53
5, 443900, Note_off_c, 4, 48, 0
5, 444000, Note_on_c, 4, 53, 60
5, 444385, Note_off_c, 4, 53, 0
5, 444480, Note_on_c, 4, 57, 72
5, 444865, Note_off_c, 4, 57, 0
5, 445440, Note_on_c, 4, 58, 41
5, 446285, Note_off_c, 4, 58, 0
5, 446400, Note_on_c, 4, 58, 50
5, 447360, Note_off_c, 4, 58, 0
5, 447360, Note_on_c, 4, 57, 43
5, 447745, Note_off_c, 4, 57, 0
5, 450720, Note_on_c, 4, 64, 58
5, 451105, Note_off_c, 4, 64, 0
5, 451200, Note_on_c, 4, 64, 61
5, 451585, Note_off_c, 4, 64, 0
5, 451680, Note_on_c, 4, 64, 63
5, 452065, Note_off_c, 4, 64, 0
5, 452640, Note_on_c, 4, 65, 61
5, 453025, Note_off_c, 4, 65, 0
5, 453120, Note_on_c, 4, 65, 56
5, 453505, Note_off_c, 4, 65, 0
5, 453600, Note_on_c, 4, 65, 52
5, 453985, Note_off_c, 4, 65, 0
5, 454080, Note_on_c, 4, 65, 52
5, 454465, Note_off_c, 4, 65, 0
5, 454560, Note_on_c, 4, 65, 54
5, 454945, Note_off_c, 4, 65, 0
5, 455520, Note_on_c, 4, 59, 58
5, 455905, Note_off_c, 4, 59, 0
5, 456000, Note_on_c, 4, 59, 61
5, 456385, Note_off_c, 4, 59, 0
5, 456480, Note_on_c, 4, 59, 63
5, 456865, Note_off_c, 4, 59, 0
5, 456960, Note_on_c, 4, 59, 65
5, 457345, Note_off_c, 4, 59, 0
5, 457440, Note_on_c, 4, 59, 67
5, 457825, Note_off_c, 4, 59, 0
5, 458400, Note_on_c, 4, 60, 67
5, 458785, Note_off_c, 4, 60, 0
5, 458880, Note_on_c, 4, 60, 63
5, 459265, Note_off_c, 4, 60, 0
5, 459360, Note_on_c, 4, 60, 60
5, 459745, Note_off_c, 4, 60, 0
5, 466560, Note_on_c, 4, 60, 75
5, 466945, Note_off_c, 4, 60, 0
5, 467040, Note_on_c, 4, 61, 70
5, 467280, Note_on_c, 4, 62, 68
5, 467285, Note_off_c, 4, 61, 0
5, 467470, Note_off_c, 4, 62, 0
5, 467520, Note_on_c, 4, 64, 66
5, 467905, Note_off_c, 4, 64, 0
5, 468000, Note_on_c, 4, 64, 61
5, 468385, Note_off_c, 4, 64, 0
5, 468480, Note_on_c, 4, 65, 56
5, 468865, Note_off_c, 4, 65, 0
5, 468960, Note_on_c, 4, 65, 52
5, 469345, Note_off_c, 4, 65, 0
5, 469440, Note_on_c, 4, 64, 47
5, 469825, Note_off_c, 4, 64, 0
5, 484800, Note_on_c, 4, 57, 61
5, 485385, Note_off_c, 4, 57, 0
5, 485400, Note_on_c, 4, 60, 55
5, 485520, Note_off_c, 4, 60, 0
5, 485520, Note_on_c, 4, 57, 52
5, 485640, Note_off_c, 4, 57, 0
5, 485640, Note_on_c, 4, 60, 49
5, 485760, Note_off_c, 4, 60, 0
5, 485760, Note_on_c, 4, 57, 47
5, 486145, Note_off_c, 4, 57, 0
5, 487680, Note_on_c, 4, 60, 70
5, 488265, Note_off_c, 4, 60, 0
5, 488280, Note_on_c, 4, 65, 62
5, 488400, Note_off_c, 4, 65, 0
5, 488400, Note_on_c, 4, 60, 60
5, 488520, Note_off_c, 4, 60, 0
5, 488520, Note_on_c, 4, 65, 59
5, 488640, Note_off_c, 4, 65, 0
5, 488640, Note_on_c, 4, 60, 57
5, 489025, Note_off_c, 4, 60, 0
5, 490560, Note_on_c, 4, 60, 69
5, 491885, Note_off_c, 4, 60, 0
5, 492000, Note_on_c, 4, 62, 76
5, 492960, Note_off_c, 4, 62, 0
5, 492960, Note_on_c, 4, 64, 69
5, 493345, Note_off_c, 4, 64, 0
5, 493440, Note_on_c, 4, 65, 60
5, 493825, Note_off_c, 4, 65, 0
5, 499680, Note_on_c, 4, 57, 53
5, 500065, Note_off_c, 4, 57, 0
5, 500640, Note_on_c, 4, 56, 50
5, 501025, Note_off_c, 4, 56, 0
5, 501600, Note_on_c, 4, 57, 48
5, 501985, Note_off_c, 4, 57, 0
5, 502560, Note_on_c, 4, 57, 45
5, 502945, Note_off_c, 4, 57, 0
5, 503040, Note_on_c, 4, 58, 44
5, 503425, Note_off_c, 4, 58, 0
5, 503520, Note_on_c, 4, 58, 49
5, 503905, Note_off_c, 4, 58, 0
5, 504000, Note_on_c, 4, 58, 52
5, 504960, Note_off_c, 4, 58, 0
5, 504960, Note_on_c, 4, 57, 38
5, 505345, Note_off_c, 4, 57, 0
5, 506880, Note_on_c, 4, 57, 71
5, 507600, Note_off_c, 4, 57, 0
5, 507600, Note_on_c, 4, 58, 60
5, 507720, Note_off_c, 4, 58, 0
5, 507720, Note_on_c, 4, 57, 58
5, 507840, Note_off_c, 4, 57, 0
5, 507840, Note_on_c, 4, 55, 56
5, 508225, Note_off_c, 4, 55, 0
5, 511440, Note_on_c, 4, 58, 43
5, 511630, Note_off_c, 4, 58, 0
5, 511680, Note_on_c, 4, 57, 45
5, 512065, Note_off_c, 4, 57, 0
5, 512160, Note_on_c, 4, 58, 48
5, 512545, Note_off_c, 4, 58, 0
5, 512640, Note_on_c, 4, 60, 58
5, 513025, Note_off_c, 4, 60, 0
5, 513120, Note_on_c, 4, 55, 50
5, 513505, Note_off_c, 4, 55, 0
5, 513600, Note_on_c, 4, 57, 43
5, 513985, Note_off_c, 4, 57, 0
5, 514560, Note_on_c, 4, 58, 40
5, 515520, Note_off_c, 4, 58, 0
5, 515520, Note_on_c, 4, 57, 55
5, 515905, Note_off_c, 4, 57, 0
5, 517440, Note_on_c, 4, 58, 43
5, 518400, Note_off_c, 4, 58, 0
5, 518400, Note_on_c, 4, 57, 47
5, 518785, Note_off_c, 4, 57, 0
5, 520320, Note_on_c, 4, 58, 36
5, 521280, Note_off_c, 4, 58, 0
5, 521280, Note_on_c, 4, 57, 31
5, 521665, Note_off_c, 4, 57, 0
5, 522240, Note_on_c, 4, 45, 30
5, 522625, Note_off_c, 4, 45, 0
5, 523200, Note_on_c, 4, 48, 32
5, 523585, Note_off_c, 4, 48, 0
5, 524160, Note_on_c, 4, 48, 34
5, 526560, Note_off_c, 4, 48, 0
5, 527040, Control_c, 4, 64, 0
5, 528000, Control_c, 4, 64, 127
5, 529860, Control_c, 4, 64, 0
5, 529920, Control_c, 4, 64, 127
5, 531780, Control_c, 4, 64, 0
5, 531840, Control_c, 4, 64, 127
5, 532740, Control_c, 4, 64, 0
5, 532740, Control_c, 4, 64, 0
5, 532800, Control_c, 4, 64, 127
5, 533700, Control_c, 4, 64, 0
5, 534000, Note_on_c, 4, 67, 47
5, 534210, Note_off_c, 4, 67, 0
5, 534240, Note_on_c, 4, 65, 47
5, 534480, Note_off_c, 4, 65, 0
5, 534480, Note_on_c, 4, 64, 46
5, 534670, Note_off_c, 4, 64, 0
5, 534720, Note_on_c, 4, 60, 45
5, 535200, Note_off_c, 4, 60, 0
5, 535200, Note_on_c, 4, 59, 43
5, 535390, Note_off_c, 4, 59, 0
5, 535680, Control_c, 4, 64, 127
5, 537540, Control_c, 4, 64, 0
5, 537600, Control_c, 4, 64, 127
5, 539460, Control_c, 4, 64, 0
5, 539520, Control_c, 4, 64, 127
5, 539940, Control_c, 4, 64, 0
5, 540000, Control_c, 4, 64, 127
5, 540420, Control_c, 4, 64, 0
5, 540480, Control_c, 4, 64, 127
5, 540900, Control_c, 4, 64, 0
5, 540960, Control_c, 4, 64, 127
5, 541380, Control_c, 4, 64, 0
5, 541440, Note_on_c, 4, 67, 53
5, 541630, Note_off_c, 4, 67, 0
5, 541680, Note_on_c, 4, 62, 52
5, 541920, Note_off_c, 4, 62, 0
5, 541920, Note_on_c, 4, 64, 51
5, 542160, Note_off_c, 4, 64, 0
5, 542160, Note_on_c, 4, 62, 51
5, 542340, Control_c, 4, 64, 0
5, 542350, Note_off_c, 4, 62, 0
5, 542400, Control_c, 4, 64, 127
5, 542820, Control_c, 4, 64, 0
5, 542880, Control_c, 4, 64, 127
5, 543300, Control_c, 4, 64, 0
5, 543360, Control_c, 4, 64, 127
5, 543780, Control_c, 4, 64, 0
5, 543840, Control_c, 4, 64, 127
5, 544260, Control_c, 4, 64, 0
5, 544320, Note_on_c, 4, 67, 56
5, 544510, Note_off_c, 4, 67, 0
5, 544560, Note_on_c, 4, 62, 56
5, 544800, Note_off_c, 4, 62, 0
5, 544800, Note_on_c, 4, 60, 55
5, 545040, Note_off_c, 4, 60, 0
5, 550080, Note_on_c, 4, 60, 73
5, 551040, Note_off_c, 4, 60, 0
5, 551040, Note_on_c, 4, 60, 69
5, 551880, Note_off_c, 4, 60, 0
5, 552000, Note_on_c, 4, 57, 65
5, 552355, Note_off_c, 4, 57, 0
5, 552720, Note_on_c, 4, 65, 62
5, 552910, Note_off_c, 4, 65, 0
5, 552960, Note_on_c, 4, 64, 61
5, 553200, Note_off_c, 4, 64, 0
5, 553200, Note_on_c, 4, 62, 58
5, 553390, Note_off_c, 4, 62, 0
5, 557760, Note_on_c, 4, 60, 81
5, 558000, Note_off_c, 4, 60, 0
5, 558000, Note_on_c, 4, 60, 80
5, 558480, Note_off_c, 4, 60, 0
5, 558480, Note_on_c, 4, 60, 79
5, 558960, Note_off_c, 4, 60, 0
5, 558960, Note_on_c, 4, 60, 77
5, 559440, Note_off_c, 4, 60, 0
5, 559440, Note_on_c, 4, 60, 75
5, 559630, Note_off_c, 4, 60, 0
5, 561600, Note_on_c, 4, 57, 68
5, 563040, Note_off_c, 4, 57, 0
5, 563040, Note_on_c, 4, 57, 77
5, 563230, Note_off_c, 4, 57, 0
5, 563760, Note_on_c, 4, 60, 54
5, 563950, Note_off_c, 4, 60, 0
5, 564000, Note_on_c, 4, 60, 51
5, 564190, Note_off_c, 4, 60, 0
5, 564240, Note_on_c, 4, 60, 49
5, 564430, Note_off_c, 4, 60, 0
5, 564480, Note_on_c, 4, 59, 46
5, 564670, Note_off_c, 4, 59, 0
5, 564720, Note_on_c, 4, 71, 64
5, 564960, Note_off_c, 4, 71, 0
5, 564960, Note_on_c, 4, 72, 66
5, 565200, Note_off_c, 4, 72, 0
5, 565200, Note_on_c, 4, 69, 68
5, 565390, Note_off_c, 4, 69, 0
5, 565440, Note_on_c, 4, 71, 77
5, 565620, Note_off_c, 4, 71, 0
5, 567600, Note_on_c, 4, 64, 69
5, 567600, Note_on_c, 4, 57, 69
5, 567790, Note_off_c, 4, 57, 0
5, 567790, Note_off_c, 4, 64, 0
5, 567840, Note_on_c, 4, 64, 67
5, 567840, Note_on_c, 4, 57, 67
5, 568030, Note_off_c, 4, 57, 0
5, 568030, Note_off_c, 4, 64, 0
5, 568080, Note_on_c, 4, 64, 65
5, 568080, Note_on_c, 4, 57, 65
5, 568270, Note_off_c, 4, 57, 0
5, 568270, Note_off_c, 4, 64, 0
5, 568560, Note_on_c, 4, 57, 55
5, 568560, Note_on_c, 4, 63, 55
5, 568750, Note_off_c, 4, 63, 0
5, 568750, Note_off_c, 4, 57, 0
5, 568800, Note_on_c, 4, 63, 52
5, 568800, Note_on_c, 4, 57, 52
5, 568990, Note_off_c, 4, 57, 0
5, 568990, Note_off_c, 4, 63, 0
5, 569040, Note_on_c, 4, 63, 50
5, 569040, Note_on_c, 4, 57, 50
5, 569230, Note_off_c, 4, 57, 0
5, 569230, Note_off_c, 4, 63, 0
5, 569280, Note_on_c, 4, 62, 75
5, 569280, Note_on_c, 4, 57, 75
5, 569470, Note_off_c, 4, 57, 0
5, 569470, Note_off_c, 4, 62, 0
5, 571440, Note_on_c, 4, 62, 66
5, 571630, Note_off_c, 4, 62, 0
5, 571680, Note_on_c, 4, 62, 63
5, 571870, Note_off_c, 4, 62, 0
5, 571920, Note_on_c, 4, 62, 60
5, 572110, Note_off_c, 4, 62, 0
5, 572400, Note_on_c, 4, 62, 49
5, 572590, Note_off_c, 4, 62, 0
5, 572640, Note_on_c, 4, 62, 47
5, 572830, Note_off_c, 4, 62, 0
5, 572880, Note_on_c, 4, 62, 44
5, 573070, Note_off_c, 4, 62, 0
5, 573120, Note_on_c, 4, 55, 77
5, 573545, Note_off_c, 4, 55, 0
5, 574080, Note_on_c, 4, 55, 73
5, 574500, Note_off_c, 4, 55, 0
5, 587520, Note_on_c, 4, 57, 75
5, 587520, Note_on_c, 4, 52, 75
5, 587675, Note_off_c, 4, 52, 0
5, 587675, Note_off_c, 4, 57, 0
5, 590640, Note_on_c, 4, 64, 50
5, 590640, Note_on_c, 4, 69, 50
5, 590830, Note_off_c, 4, 69, 0
5, 590830, Note_off_c, 4, 64, 0
5, 590880, Note_on_c, 4, 64, 50
5, 590880, Note_on_c, 4, 69, 50
5, 591070, Note_off_c, 4, 69, 0
5, 591070, Note_off_c, 4, 64, 0
5, 591120, Note_on_c, 4, 64, 49
5, 591120, Note_on_c, 4, 69, 49
5, 591310, Note_off_c, 4, 69, 0
5, 591310, Note_off_c, 4, 64, 0
5, 591600, Note_on_c, 4, 67, 48
5, 591600, Note_on_c, 4, 71, 48
5, 591790, Note_off_c, 4, 71, 0
5, 591790, Note_off_c, 4, 67, 0
5, 591840, Note_on_c, 4, 67, 47
5, 591840, Note_on_c, 4, 71, 47
5, 592030, Note_off_c, 4, 71, 0
5, 592030, Note_off_c, 4, 67, 0
5, 592080, Note_on_c, 4, 67, 46
5, 592080, Note_on_c, 4, 71, 46
5, 592267, Note_off_c, 4, 71, 0
5, 592270, Note_off_c, 4, 67, 0
5, 592560, Note_on_c, 4, 66, 45
5, 592560, Note_on_c, 4, 69, 45
5, 592750, Note_off_c, 4, 69, 0
5, 592750, Note_off_c, 4, 66, 0
5, 592800, Note_on_c, 4, 66, 45
5, 592800, Note_on_c, 4, 69, 45
5, 592990, Note_off_c, 4, 69, 0
5, 592990, Note_off_c, 4, 66, 0
5, 593040, Note_on_c, 4, 66, 44
5, 593230, Note_off_c, 4, 66, 0
5, 597360, Note_on_c, 4, 54, 82
5, 597360, Note_on_c, 4, 57, 82
5, 598015, Note_off_c, 4, 57, 0
5, 598020, Note_off_c, 4, 54, 0
5, 598080, Note_on_c, 4, 55, 76
5, 598235, Note_off_c, 4, 55, 0
5, 598320, Note_on_c, 4, 52, 89
5, 598320, Note_on_c, 4, 55, 89
5, 598985, Note_off_c, 4, 55, 0
5, 598985, Note_off_c, 4, 52, 0
5, 599040, Note_on_c, 4, 55, 83
5, 599195, Note_off_c, 4, 55, 0
5, 603120, Note_on_c, 4, 63, 44
5, 603310, Note_off_c, 4, 63, 0
5, 603600, Note_on_c, 4, 62, 45
5, 603790, Note_off_c, 4, 62, 0
5, 603840, Note_on_c, 4, 52, 47
5, 604225, Note_off_c, 4, 52, 0
5, 604560, Note_on_c, 4, 60, 40
5, 604750, Note_off_c, 4, 60, 0
5, 604800, Note_on_c, 4, 59, 37
5, 604955, Note_off_c, 4, 59, 0
5, 606960, Note_on_c, 4, 66, 50
5, 607150, Note_off_c, 4, 66, 0
5, 607440, Note_on_c, 4, 67, 52
5, 607630, Note_off_c, 4, 67, 0
5, 607680, Note_on_c, 4, 64, 55
5, 608065, Note_off_c, 4, 64, 0
5, 608400, Note_on_c, 4, 72, 50
5, 608590, Note_off_c, 4, 72, 0
5, 608640, Note_on_c, 4, 71, 48
5, 608830, Note_off_c, 4, 71, 0
5, 613200, Note_on_c, 4, 62, 53
5, 613200, Note_on_c, 4, 59, 53
5, 613390, Note_off_c, 4, 59, 0
5, 613390, Note_off_c, 4, 62, 0
5, 613440, Note_on_c, 4, 59, 54
5, 613440, Note_on_c, 4, 62, 54
5, 613825, Note_off_c, 4, 62, 0
5, 613825, Note_off_c, 4, 59, 0
5, 614160, Note_on_c, 4, 59, 56
5, 614160, Note_on_c, 4, 62, 56
5, 614350, Note_off_c, 4, 62, 0
5, 614350, Note_off_c, 4, 59, 0
5, 614400, Note_on_c, 4, 59, 57
5, 614400, Note_on_c, 4, 62, 57
5, 614785, Note_off_c, 4, 62, 0
5, 614785, Note_off_c, 4, 59, 0
5, 615120, Note_on_c, 4, 59, 59
5, 615120, Note_on_c, 4, 62, 59
5, 615310, Note_off_c, 4, 62, 0
5, 615310, Note_off_c, 4, 59, 0
5, 615360, Note_on_c, 4, 65, 59
5, 615360, Note_on_c, 4, 62, 59
5, 615360, Note_on_c, 4, 59, 59
5, 615745, Note_off_c, 4, 59, 0
5, 615745, Note_off_c, 4, 62, 0
5, 615745, Note_off_c, 4, 65, 0
5, 616260, Control_c, 4, 64, 0
5, 616320, Control_c, 4, 64, 127
5, 618180, Control_c, 4, 64, 0
5, 618240, Control_c, 4, 64, 127
5, 620100, Control_c, 4, 64, 0
5, 620160, Control_c, 4, 64, 127
5, 621060, Control_c, 4, 64, 0
5, 621120, Control_c, 4, 64, 127
5, 622020, Control_c, 4, 64, 0
5, 622320, Note_on_c, 4, 67, 42
5, 622510, Note_off_c, 4, 67, 0
5, 622560, Note_on_c, 4, 65, 42
5, 622800, Note_off_c, 4, 65, 0
5, 622800, Note_on_c, 4, 64, 41
5, 622990, Note_off_c, 4, 64, 0
5, 623040, Note_on_c, 4, 60, 40
5, 623520, Note_off_c, 4, 60, 0
5, 623520, Note_on_c, 4, 59, 35
5, 623710, Note_off_c, 4, 59, 0
5, 623940, Control_c, 4, 64, 0
5, 624000, Control_c, 4, 64, 127
5, 625860, Control_c, 4, 64, 0
5, 625920, Control_c, 4, 64, 127
5, 627780, Control_c, 4, 64, 0
5, 627840, Control_c, 4, 64, 127
5, 628260, Control_c, 4, 64, 0
5, 628320, Control_c, 4, 64, 127
5, 628740, Control_c, 4, 64, 0
5, 628800, Control_c, 4, 64, 127
5, 629220, Control_c, 4, 64, 0
5, 629280, Control_c, 4, 64, 127
5, 629700, Control_c, 4, 64, 0
5, 629760, Note_on_c, 4, 67, 51
5, 629950, Note_off_c, 4, 67, 0
5, 630000, Note_on_c, 4, 62, 50
5, 630240, Note_off_c, 4, 62, 0
5, 630240, Note_on_c, 4, 64, 49
5, 630480, Note_off_c, 4, 64, 0
5, 630480, Note_on_c, 4, 62, 48
5, 630660, Control_c, 4, 64, 0
5, 630670, Note_off_c, 4, 62, 0
5, 630720, Control_c, 4, 64, 127
5, 630840, Note_on_c, 4, 55, 71
5, 630960, Note_off_c, 4, 55, 0
5, 630960, Note_on_c, 4, 52, 71
5, 631080, Note_off_c, 4, 52, 0
5, 631080, Note_on_c, 4, 55, 70
5, 631140, Control_c, 4, 64, 0
5, 631200, Control_c, 4, 64, 127
5, 631200, Note_off_c, 4, 55, 0
5, 631320, Note_on_c, 4, 57, 70
5, 631440, Note_off_c, 4, 57, 0
5, 631440, Note_on_c, 4, 52, 69
5, 631560, Note_off_c, 4, 52, 0
5, 631560, Note_on_c, 4, 57, 69
5, 631620, Control_c, 4, 64, 0
5, 631655, Note_off_c, 4, 57, 0
5, 631680, Control_c, 4, 64, 127
5, 631800, Note_on_c, 4, 57, 68
5, 631920, Note_off_c, 4, 57, 0
5, 631920, Note_on_c, 4, 53, 68
5, 632040, Note_off_c, 4, 53, 0
5, 632040, Note_on_c, 4, 57, 68
5, 632100, Control_c, 4, 64, 0
5, 632160, Control_c, 4, 64, 127
5, 632160, Note_off_c, 4, 57, 0
5, 632280, Note_on_c, 4, 55, 67
5, 632400, Note_off_c, 4, 55, 0
5, 632520, Note_on_c, 4, 55, 66
5, 632580, Control_c, 4, 64, 0
5, 632615, Note_off_c, 4, 55, 0
5, 632880, Note_on_c, 4, 64, 65
5, 633000, Note_off_c, 4, 64, 0
5, 633000, Note_on_c, 4, 65, 65
5, 633095, Note_off_c, 4, 65, 0
5, 633120, Note_on_c, 4, 63, 65
5, 633240, Note_off_c, 4, 63, 0
5, 633240, Note_on_c, 4, 64, 64
5, 633335, Note_off_c, 4, 64, 0
5, 633360, Note_on_c, 4, 62, 64
5, 633480, Note_off_c, 4, 62, 0
5, 633480, Note_on_c, 4, 59, 64
5, 633575, Note_off_c, 4, 59, 0
5, 638340, Control_c, 4, 64, 0
5, 638400, Control_c, 4, 64, 127
5, 639300, Control_c, 4, 64, 0
5, 639360, Control_c, 4, 64, 127
5, 639780, Control_c, 4, 64, 0
5, 639840, Control_c, 4, 64, 127
5, 640260, Control_c, 4, 64, 0
5, 640320, Control_c, 4, 64, 127
5, 641220, Control_c, 4, 64, 0
5, 641280, Control_c, 4, 64, 127
5, 641700, Control_c, 4, 64, 0
5, 641760, Control_c, 4, 64, 127
5, 642180, Control_c, 4, 64, 0
5, 642240, Control_c, 4, 64, 127
5, 643140, Control_c, 4, 64, 0
5, 643200, Control_c, 4, 64, 127
5, 643620, Control_c, 4, 64, 0
5, 643680, Control_c, 4, 64, 127
5, 644100, Control_c, 4, 64, 0
5, 644160, Control_c, 4, 64, 127
5, 644580, Control_c, 4, 64, 0
5, 644640, Control_c, 4, 64, 127
5, 645060, Control_c, 4, 64, 0
5, 645120, Note_on_c, 4, 69, 40
5, 645360, Note_off_c, 4, 69, 0
5, 646020, Control_c, 4, 64, 0
5, 646080, Control_c, 4, 64, 127
5, 646980, Control_c, 4, 64, 0
5, 647040, Control_c, 4, 64, 127
5, 647460, Control_c, 4, 64, 0
5, 647520, Control_c, 4, 64, 127
5, 647940, Control_c, 4, 64, 0
5, 648000, Control_c, 4, 64, 127
5, 648900, Control_c, 4, 64, 0
5, 648960, Control_c, 4, 64, 127
5, 649380, Control_c, 4, 64, 0
5, 649440, Control_c, 4, 64, 127
5, 649860, Control_c, 4, 64, 0
5, 649920, Note_on_c, 4, 45, 50
5, 650160, Note_off_c, 4, 45, 0
5, 654000, Note_on_c, 4, 69, 64
5, 654190, Note_off_c, 4, 69, 0
5, 654240, Note_on_c, 4, 69, 59
5, 654430, Note_off_c, 4, 69, 0
5, 654480, Note_on_c, 4, 69, 52
5, 654670, Note_off_c, 4, 69, 0
5, 654720, Note_on_c, 4, 67, 50
5, 654720, Note_on_c, 4, 70, 50
5, 654910, Note_off_c, 4, 70, 0
5, 654910, Note_off_c, 4, 67, 0
5, 655920, Note_on_c, 4, 67, 81
5, 655920, Note_on_c, 4, 69, 81
5, 656110, Note_off_c, 4, 69, 0
5, 656110, Note_off_c, 4, 67, 0
5, 656160, Note_on_c, 4, 67, 77
5, 656160, Note_on_c, 4, 69, 77
5, 656350, Note_off_c, 4, 69, 0
5, 656350, Note_off_c, 4, 67, 0
5, 656400, Note_on_c, 4, 67, 73
5, 656400, Note_on_c, 4, 69, 73
5, 656590, Note_off_c, 4, 69, 0
5, 656590, Note_off_c, 4, 67, 0
5, 656640, Note_on_c, 4, 65, 68
5, 656640, Note_on_c, 4, 69, 68
5, 656830, Note_off_c, 4, 69, 0
5, 656830, Note_off_c, 4, 65, 0
5, 656880, Note_on_c, 4, 65, 70
5, 657070, Note_off_c, 4, 65, 0
5, 657120, Note_on_c, 4, 67, 72
5, 657310, Note_off_c, 4, 67, 0
5, 657360, Note_on_c, 4, 64, 74
5, 657360, Note_on_c, 4, 72, 74
5, 657550, Note_off_c, 4, 72, 0
5, 657550, Note_off_c, 4, 64, 0
5, 657600, Note_on_c, 4, 69, 76
5, 657790, Note_off_c, 4, 69, 0
5, 657840, Note_on_c, 4, 69, 78
5, 658030, Note_off_c, 4, 69, 0
5, 658080, Note_on_c, 4, 69, 81
5, 658270, Note_off_c, 4, 69, 0
5, 658320, Note_on_c, 4, 69, 83
5, 658320, Note_on_c, 4, 74, 83
5, 658510, Note_off_c, 4, 74, 0
5, 658510, Note_off_c, 4, 69, 0
5, 658560, Note_on_c, 4, 71, 85
5, 658560, Note_on_c, 4, 74, 85
5, 658980, Note_off_c, 4, 74, 0
5, 658980, Note_off_c, 4, 71, 0
5, 659520, Note_on_c, 4, 72, 83
5, 659920, Note_off_c, 4, 72, 0
5, 663600, Note_on_c, 4, 62, 73
5, 663840, Note_off_c, 4, 62, 0
5, 663840, Note_on_c, 4, 64, 76
5, 664080, Note_off_c, 4, 64, 0
5, 664080, Note_on_c, 4, 65, 79
5, 664270, Note_off_c, 4, 65, 0
5, 664320, Note_on_c, 4, 64, 79
5, 664735, Note_off_c, 4, 64, 0
5, 666480, Note_on_c, 4, 57, 61
5, 666480, Note_on_c, 4, 50, 61
5, 666670, Note_off_c, 4, 50, 0
5, 666670, Note_off_c, 4, 57, 0
5, 666720, Note_on_c, 4, 57, 59
5, 666720, Note_on_c, 4, 50, 59
5, 666910, Note_off_c, 4, 50, 0
5, 666910, Note_off_c, 4, 57, 0
5, 666960, Note_on_c, 4, 57, 47
5, 666960, Note_on_c, 4, 50, 47
5, 667150, Note_off_c, 4, 50, 0
5, 667150, Note_off_c, 4, 57, 0
5, 667440, Note_on_c, 4, 56, 44
5, 667440, Note_on_c, 4, 50, 44
5, 667630, Note_off_c, 4, 50, 0
5, 667630, Note_off_c, 4, 56, 0
5, 667680, Note_on_c, 4, 56, 42
5, 667680, Note_on_c, 4, 50, 42
5, 667870, Note_off_c, 4, 50, 0
5, 667870, Note_off_c, 4, 56, 0
5, 667920, Note_on_c, 4, 56, 42
5, 667920, Note_on_c, 4, 50, 42
5, 668110, Note_off_c, 4, 50, 0
5, 668110, Note_off_c, 4, 56, 0
5, 668160, Note_on_c, 4, 50, 71
5, 668160, Note_on_c, 4, 55, 71
5, 668580, Note_off_c, 4, 55, 0
5, 668580, Note_off_c, 4, 50, 0
5, 670320, Note_on_c, 4, 55, 56
5, 670510, Note_off_c, 4, 55, 0
5, 670560, Note_on_c, 4, 55, 54
5, 670750, Note_off_c, 4, 55, 0
5, 670800, Note_on_c, 4, 55, 52
5, 670990, Note_off_c, 4, 55, 0
5, 671280, Note_on_c, 4, 55, 41
5, 671470, Note_off_c, 4, 55, 0
5, 671520, Note_on_c, 4, 55, 39
5, 671710, Note_off_c, 4, 55, 0
5, 671760, Note_on_c, 4, 55, 38
5, 671950, Note_off_c, 4, 55, 0
5, 672000, Note_on_c, 4, 55, 61
5, 672000, Note_on_c, 4, 60, 61
5, 672415, Note_off_c, 4, 60, 0
5, 672420, Note_off_c, 4, 55, 0
5, 674160, Note_on_c, 4, 57, 48
5, 674160, Note_on_c, 4, 60, 48
5, 674350, Note_off_c, 4, 60, 0
5, 674350, Note_off_c, 4, 57, 0
5, 674400, Note_on_c, 4, 57, 46
5, 674400, Note_on_c, 4, 60, 46
5, 674590, Note_off_c, 4, 60, 0
5, 674590, Note_off_c, 4, 57, 0
5, 674640, Note_on_c, 4, 57, 44
5, 674640, Note_on_c, 4, 60, 44
5, 674830, Note_off_c, 4, 60, 0
5, 674830, Note_off_c, 4, 57, 0
5, 675120, Note_on_c, 4, 57, 34
5, 675120, Note_on_c, 4, 60, 34
5, 675310, Note_off_c, 4, 60, 0
5, 675310, Note_off_c, 4, 57, 0
5, 675360, Note_on_c, 4, 57, 33
5, 675360, Note_on_c, 4, 60, 33
5, 675550, Note_off_c, 4, 60, 0
5, 675550, Note_off_c, 4, 57, 0
5, 675600, Note_on_c, 4, 57, 32
5, 675600, Note_on_c, 4, 60, 32
5, 675790, Note_off_c, 4, 60, 0
5, 675790, Note_off_c, 4, 57, 0
5, 675840, Note_on_c, 4, 57, 53
5, 675840, Note_on_c, 4, 62, 53
5, 676260, Note_off_c, 4, 57, 0
5, 676265, Note_off_c, 4, 62, 0
5, 686400, Note_on_c, 4, 52, 83
5, 686555, Note_off_c, 4, 52, 0
5, 687360, Note_on_c, 4, 50, 78
5, 687360, Note_on_c, 4, 45, 78
5, 687600, Note_off_c, 4, 45, 0
5, 687600, Note_off_c, 4, 50, 0
5, 690480, Note_on_c, 4, 69, 54
5, 690480, Note_on_c, 4, 74, 54
5, 690670, Note_off_c, 4, 74, 0
5, 690670, Note_off_c, 4, 69, 0
5, 690720, Note_on_c, 4, 69, 53
5, 690720, Note_on_c, 4, 74, 53
5, 690910, Note_off_c, 4, 74, 0
5, 690910, Note_off_c, 4, 69, 0
5, 690960, Note_on_c, 4, 69, 52
5, 690960, Note_on_c, 4, 74, 52
5, 691150, Note_off_c, 4, 74, 0
5, 691150, Note_off_c, 4, 69, 0
5, 691440, Note_on_c, 4, 72, 50
5, 691440, Note_on_c, 4, 76, 50
5, 691630, Note_off_c, 4, 76, 0
5, 691630, Note_off_c, 4, 72, 0
5, 691680, Note_on_c, 4, 72, 49
5, 691680, Note_on_c, 4, 76, 49
5, 691870, Note_off_c, 4, 76, 0
5, 691870, Note_off_c, 4, 72, 0
5, 691920, Note_on_c, 4, 72, 48
5, 692110, Note_off_c, 4, 72, 0
5, 692400, Note_on_c, 4, 71, 46
5, 692590, Note_off_c, 4, 71, 0
5, 692640, Note_on_c, 4, 71, 45
5, 692830, Note_off_c, 4, 71, 0
5, 692880, Note_on_c, 4, 71, 44
5, 693070, Note_off_c, 4, 71, 0
5, 697200, Note_on_c, 4, 62, 76
5, 697200, Note_on_c, 4, 59, 76
5, 697920, Note_off_c, 4, 59, 0
5, 697920, Note_off_c, 4, 62, 0
5, 697920, Note_on_c, 4, 60, 78
5, 698075, Note_off_c, 4, 60, 0
5, 698160, Note_on_c, 4, 64, 78
5, 698160, Note_on_c, 4, 61, 78
5, 698880, Note_off_c, 4, 61, 0
5, 698880, Note_off_c, 4, 64, 0
5, 698880, Note_on_c, 4, 62, 48
5, 698880, Note_on_c, 4, 57, 48
5, 699070, Note_off_c, 4, 57, 0
5, 699070, Note_off_c, 4, 62, 0
5, 700560, Note_on_c, 4, 55, 59
5, 700560, Note_on_c, 4, 61, 59
5, 700750, Note_off_c, 4, 61, 0
5, 700750, Note_off_c, 4, 55, 0
5, 700800, Note_on_c, 4, 57, 60
5, 700800, Note_on_c, 4, 62, 60
5, 700990, Note_off_c, 4, 62, 0
5, 700990, Note_off_c, 4, 57, 0
5, 702480, Note_on_c, 4, 61, 72
5, 702480, Note_on_c, 4, 55, 72
5, 702670, Note_off_c, 4, 55, 0
5, 702670, Note_off_c, 4, 61, 0
5, 702720, Note_on_c, 4, 57, 76
5, 702720, Note_on_c, 4, 62, 76
5, 704610, Note_off_c, 4, 57, 0
5, 704615, Note_off_c, 4, 62, 0
5, 704640, Note_on_c, 4, 62, 68
5, 704640, Note_on_c, 4, 59, 68
5, 704880, Note_off_c, 4, 59, 0
5, 704880, Note_off_c, 4, 62, 0
5, 705840, Note_on_c, 4, 47, 83
5, 705840, Note_on_c, 4, 50, 83
5, 705840, Note_on_c, 4, 55, 83
5, 708355, Note_off_c, 4, 50, 0
5, 708360, Note_off_c, 4, 55, 0
5, 708360, Note_off_c, 4, 47, 0
5, 708420, Control_c, 4, 64, 0
5, 708480, Control_c, 4, 64, 127
5, 710340, Control_c, 4, 64, 0
5, 710400, Control_c, 4, 64, 127
5, 712260, Control_c, 4, 64, 0
5, 712320, Control_c, 4, 64, 127
5, 712740, Control_c, 4, 64, 0
5, 712800, Control_c, 4, 64, 127
5, 713220, Control_c, 4, 64, 0
5, 713280, Control_c, 4, 64, 127
5, 713700, Control_c, 4, 64, 0
5, 713760, Control_c, 4, 64, 127
5, 714180, Control_c, 4, 64, 0
5, 714240, Control_c, 4, 64, 127
5, 714660, Control_c, 4, 64, 0
5, 714720, Control_c, 4, 64, 127
5, 714900, Control_c, 4, 64, 0
5, 714960, Control_c, 4, 64, 127
5, 715140, Control_c, 4, 64, 0
5, 716100, Control_c, 4, 64, 0
5, 716160, Control_c, 4, 64, 127
5, 718020, Control_c, 4, 64, 0
5, 718080, Control_c, 4, 64, 127
5, 719940, Control_c, 4, 64, 0
5, 720000, Control_c, 4, 64, 127
5, 720420, Control_c, 4, 64, 0
5, 720480, Control_c, 4, 64, 127
5, 720900, Control_c, 4, 64, 0
5, 720960, Control_c, 4, 64, 127
5, 721380, Control_c, 4, 64, 0
5, 721440, Control_c, 4, 64, 127
5, 721860, Control_c, 4, 64, 0
5, 721920, Control_c, 4, 64, 127
5, 722100, Control_c, 4, 64, 0
5, 722160, Control_c, 4, 64, 127
5, 722340, Control_c, 4, 64, 0
5, 722400, Control_c, 4, 64, 127
5, 722580, Control_c, 4, 64, 0
5, 722640, Control_c, 4, 64, 127
5, 722820, Control_c, 4, 64, 0
5, 722880, Note_on_c, 4, 64, 75
5, 723070, Note_off_c, 4, 64, 0
5, 723600, Note_on_c, 4, 57, 72
5, 723600, Note_on_c, 4, 52, 72
5, 723790, Note_off_c, 4, 52, 0
5, 723790, Note_off_c, 4, 57, 0
5, 723840, Note_on_c, 4, 57, 71
5, 723840, Note_on_c, 4, 53, 71
5, 724030, Note_off_c, 4, 53, 0
5, 724030, Note_off_c, 4, 57, 0
5, 724560, Note_on_c, 4, 50, 68
5, 724560, Note_on_c, 4, 53, 68
5, 724750, Note_off_c, 4, 53, 0
5, 724750, Note_off_c, 4, 50, 0
5, 725040, Note_on_c, 4, 53, 66
5, 725230, Note_off_c, 4, 53, 0
5, 725280, Note_on_c, 4, 52, 64
5, 725520, Note_off_c, 4, 52, 0
5, 729840, Note_on_c, 4, 50, 48
5, 729840, Note_on_c, 4, 47, 48
5, 730030, Note_off_c, 4, 47, 0
5, 730030, Note_off_c, 4, 50, 0
5, 730800, Note_on_c, 4, 50, 61
5, 730800, Note_on_c, 4, 47, 61
5, 730990, Note_off_c, 4, 47, 0
5, 730990, Note_off_c, 4, 50, 0
5, 731760, Note_on_c, 4, 62, 60
5, 731760, Note_on_c, 4, 59, 60
5, 731950, Note_off_c, 4, 59, 0
5, 731950, Note_off_c, 4, 62, 0
5, 733680, Note_on_c, 4, 59, 53
5, 733870, Note_off_c, 4, 59, 0
5, 734160, Note_on_c, 4, 60, 55
5, 734350, Note_off_c, 4, 60, 0
5, 734400, Note_on_c, 4, 57, 59
5, 734800, Note_off_c, 4, 57, 0
5, 735120, Note_on_c, 4, 65, 49
5, 735310, Note_off_c, 4, 65, 0
5, 735360, Note_on_c, 4, 64, 45
5, 735550, Note_off_c, 4, 64, 0
5, 738480, Note_on_c, 4, 62, 78
5, 738670, Note_off_c, 4, 62, 0
5, 738720, Note_on_c, 4, 64, 75
5, 738910, Note_off_c, 4, 64, 0
5, 738960, Note_on_c, 4, 59, 72
5, 739150, Note_off_c, 4, 59, 0
5, 743280, Note_on_c, 4, 52, 95
5, 743280, Note_on_c, 4, 55, 95
5, 743920, Note_off_c, 4, 55, 0
5, 743920, Note_off_c, 4, 52, 0
5, 744000, Note_on_c, 4, 54, 82
5, 744155, Note_off_c, 4, 54, 0
5, 744240, Note_on_c, 4, 50, 82
5, 744240, Note_on_c, 4, 53, 82
5, 744885, Note_off_c, 4, 53, 0
5, 744885, Note_off_c, 4, 50, 0
5, 744960, Note_on_c, 4, 48, 84
5, 744960, Note_on_c, 4, 52, 84
5, 745115, Note_off_c, 4, 52, 0
5, 745115, Note_off_c, 4, 48, 0
5, 745200, Note_on_c, 4, 57, 96
5, 745200, Note_on_c, 4, 60, 96
5, 745835, Note_off_c, 4, 60, 0
5, 745835, Note_off_c, 4, 57, 0
5, 745920, Note_on_c, 4, 60, 56
5, 746110, Note_off_c, 4, 60, 0
5, 746400, Note_on_c, 4, 60, 58
5, 746400, Note_on_c, 4, 64, 58
5, 746590, Note_off_c, 4, 64, 0
5, 746590, Note_off_c, 4, 60, 0
5, 746880, Note_on_c, 4, 60, 60
5, 746880, Note_on_c, 4, 64, 60
5, 747070, Note_off_c, 4, 64, 0
5, 747070, Note_off_c, 4, 60, 0
5, 747360, Note_on_c, 4, 60, 63
5, 747360, Note_on_c, 4, 64, 63
5, 747550, Note_off_c, 4, 64, 0
5, 747550, Note_off_c, 4, 60, 0
5, 749760, Note_on_c, 4, 60, 75
5, 749950, Note_off_c, 4, 60, 0
5, 750000, Note_on_c, 4, 60, 77
5, 750190, Note_off_c, 4, 60, 0
5, 750240, Note_on_c, 4, 60, 78
5, 750430, Note_off_c, 4, 60, 0
5, 750480, Note_on_c, 4, 60, 79
5, 750670, Note_off_c, 4, 60, 0
5, 750720, Note_on_c, 4, 60, 80
5, 750910, Note_off_c, 4, 60, 0
5, 750960, Note_on_c, 4, 60, 81
5, 751150, Note_off_c, 4, 60, 0
5, 751200, Note_on_c, 4, 59, 83
5, 751390, Note_off_c, 4, 59, 0
5, 751440, Note_on_c, 4, 59, 84
5, 751630, Note_off_c, 4, 59, 0
5, 758160, Note_on_c, 4, 62, 91
5, 758160, Note_on_c, 4, 65, 91
5, 758350, Note_off_c, 4, 65, 0
5, 758350, Note_off_c, 4, 62, 0
5, 758400, Note_on_c, 4, 64, 92
5, 758785, Note_off_c, 4, 64, 0
5, 759120, Note_on_c, 4, 62, 94
5, 759120, Note_on_c, 4, 65, 94
5, 759310, Note_off_c, 4, 65, 0
5, 759310, Note_off_c, 4, 62, 0
5, 759360, Note_on_c, 4, 64, 95
5, 759550, Note_off_c, 4, 64, 0
5, 761280, Note_on_c, 4, 64, 101
5, 761760, Note_off_c, 4, 64, 0
5, 762180, Control_c, 4, 64, 0
5, 762240, Control_c, 4, 64, 127
5, 763140, Control_c, 4, 64, 0
5, 763200, Control_c, 4, 64, 127
5, 764100, Control_c, 4, 64, 0
5, 764160, Control_c, 4, 64, 127
5, 765060, Control_c, 4, 64, 0
5, 765120, Control_c, 4, 64, 127
5, 766020, Control_c, 4, 64, 0
5, 766080, Control_c, 4, 64, 127
5, 766980, Control_c, 4, 64, 0
5, 767040, Control_c, 4, 64, 127
5, 767940, Control_c, 4, 64, 0
5, 768000, Control_c, 4, 64, 127
5, 768900, Control_c, 4, 64, 0
5, 768900, End_track
6, 0, Start_track
6, 0, Title_t, "Unnamed Track"
6, 0, Control_c, 5, 0, 0
6, 0, Control_c, 5, 32, 0
6, 0, Program_c, 5, 0
6, 0, Control_c, 5, 64, 0
6, 0, Control_c, 5, 10, 55
6, 0, Control_c, 5, 91, 100
6, 0, Control_c, 5, 93, 28
6, 0, Control_c, 5, 64, 0
6, 0, Pitch_bend_c, 5, 8192
6, 0, Control_c, 5, 93, 18
6, 0, Pitch_bend_c, 5, 8192
6, 0, Control_c, 5, 1, 0
6, 0, Control_c, 5, 1, 0
6, 0, Pitch_bend_c, 5, 8192
6, 0, Control_c, 5, 7, 125
6, 1920, Control_c, 5, 64, 127
6, 2040, Note_on_c, 5, 36, 71
6, 2040, Note_on_c, 5, 48, 71
6, 2700, Note_off_c, 5, 36, 0
6, 2705, Note_off_c, 5, 48, 0
6, 2820, Control_c, 5, 64, 0
6, 2880, Note_on_c, 5, 43, 74
6, 3720, Note_off_c, 5, 43, 0
6, 3840, Note_on_c, 5, 52, 77
6, 4560, Note_off_c, 5, 52, 0
6, 4560, Note_on_c, 5, 53, 70
6, 4680, Note_off_c, 5, 53, 0
6, 4680, Note_on_c, 5, 50, 70
6, 4800, Note_off_c, 5, 50, 0
6, 4800, Note_on_c, 5, 48, 69
6, 5220, Note_off_c, 5, 48, 0
6, 13920, Note_on_c, 5, 53, 61
6, 14230, Note_off_c, 5, 53, 0
6, 14400, Note_on_c, 5, 55, 64
6, 14710, Note_off_c, 5, 55, 0
6, 14880, Note_on_c, 5, 55, 66
6, 15190, Note_off_c, 5, 55, 0
6, 15360, Control_c, 5, 64, 127
6, 15520, Note_on_c, 5, 48, 68
6, 15520, Note_on_c, 5, 36, 68
6, 16180, Note_off_c, 5, 36, 0
6, 16185, Note_off_c, 5, 48, 0
6, 16260, Control_c, 5, 64, 0
6, 16320, Note_on_c, 5, 43, 71
6, 16320, Note_on_c, 5, 31, 71
6, 17160, Note_off_c, 5, 43, 0
6, 17165, Note_off_c, 5, 31, 0
6, 17280, Note_on_c, 5, 52, 74
6, 18000, Note_on_c, 5, 53, 68
6, 18005, Note_off_c, 5, 52, 0
6, 18120, Note_off_c, 5, 53, 0
6, 18120, Note_on_c, 5, 50, 67
6, 18240, Note_off_c, 5, 50, 0
6, 18240, Note_on_c, 5, 48, 67
6, 18720, Note_off_c, 5, 48, 0
6, 24960, Note_on_c, 5, 67, 64
6, 25920, Note_off_c, 5, 67, 0
6, 25920, Note_on_c, 5, 65, 58
6, 26340, Note_off_c, 5, 65, 0
6, 26880, Note_on_c, 5, 67, 71
6, 27840, Note_off_c, 5, 67, 0
6, 27840, Note_on_c, 5, 69, 63
6, 28265, Note_off_c, 5, 69, 0
6, 40320, Note_on_c, 5, 60, 56
6, 40680, Note_off_c, 5, 60, 0
6, 44160, Note_on_c, 5, 59, 63
6, 44520, Note_off_c, 5, 59, 0
6, 48000, Note_on_c, 5, 54, 76
6, 48360, Note_off_c, 5, 54, 0
6, 55680, Note_on_c, 5, 55, 77
6, 56065, Note_off_c, 5, 55, 0
6, 56640, Note_on_c, 5, 59, 75
6, 57025, Note_off_c, 5, 59, 0
6, 57600, Note_on_c, 5, 60, 72
6, 57985, Note_off_c, 5, 60, 0
6, 58560, Note_on_c, 5, 64, 70
6, 58945, Note_off_c, 5, 64, 0
6, 59520, Note_on_c, 5, 57, 67
6, 59810, Note_off_c, 5, 57, 0
6, 59880, Note_on_c, 5, 59, 66
6, 59975, Note_off_c, 5, 59, 0
6, 60000, Note_on_c, 5, 60, 66
6, 60290, Note_off_c, 5, 60, 0
6, 60360, Note_on_c, 5, 59, 65
6, 60455, Note_off_c, 5, 59, 0
6, 60480, Note_on_c, 5, 57, 65
6, 60770, Note_off_c, 5, 57, 0
6, 60840, Note_on_c, 5, 55, 64
6, 60935, Note_off_c, 5, 55, 0
6, 60960, Note_on_c, 5, 54, 63
6, 61250, Note_off_c, 5, 54, 0
6, 61320, Note_on_c, 5, 52, 62
6, 61415, Note_off_c, 5, 52, 0
6, 61440, Note_on_c, 5, 50, 65
6, 61680, Note_off_c, 5, 50, 0
6, 61680, Note_on_c, 5, 54, 62
6, 61800, Note_off_c, 5, 54, 0
6, 61800, Note_on_c, 5, 57, 61
6, 61920, Note_off_c, 5, 57, 0
6, 61920, Note_on_c, 5, 62, 60
6, 62110, Note_off_c, 5, 62, 0
6, 62160, Note_on_c, 5, 62, 57
6, 62350, Note_off_c, 5, 62, 0
6, 62400, Note_on_c, 5, 62, 54
6, 62825, Note_off_c, 5, 62, 0
6, 82560, Note_on_c, 5, 47, 66
6, 82680, Note_off_c, 5, 47, 0
6, 82680, Note_on_c, 5, 55, 66
6, 82800, Note_off_c, 5, 55, 0
6, 82800, Note_on_c, 5, 54, 66
6, 82920, Note_off_c, 5, 54, 0
6, 82920, Note_on_c, 5, 55, 67
6, 83040, Note_off_c, 5, 55, 0
6, 83040, Note_on_c, 5, 57, 67
6, 83160, Note_off_c, 5, 57, 0
6, 83160, Note_on_c, 5, 55, 67
6, 83280, Note_off_c, 5, 55, 0
6, 83280, Note_on_c, 5, 54, 67
6, 83400, Note_off_c, 5, 54, 0
6, 83400, Note_on_c, 5, 55, 67
6, 83520, Note_off_c, 5, 55, 0
6, 83520, Note_on_c, 5, 43, 67
6, 83960, Note_off_c, 5, 43, 0
6, 84480, Note_on_c, 5, 48, 69
6, 84590, Note_off_c, 5, 48, 0
6, 84600, Note_on_c, 5, 55, 69
6, 84710, Note_off_c, 5, 55, 0
6, 84720, Note_on_c, 5, 54, 69
6, 84830, Note_off_c, 5, 54, 0
6, 84840, Note_on_c, 5, 55, 69
6, 84950, Note_off_c, 5, 55, 0
6, 84960, Note_on_c, 5, 57, 69
6, 85070, Note_off_c, 5, 57, 0
6, 85080, Note_on_c, 5, 55, 70
6, 85190, Note_off_c, 5, 55, 0
6, 85200, Note_on_c, 5, 54, 70
6, 85310, Note_off_c, 5, 54, 0
6, 85320, Note_on_c, 5, 55, 70
6, 85430, Note_off_c, 5, 55, 0
6, 85440, Note_on_c, 5, 48, 70
6, 85880, Note_off_c, 5, 48, 0
6, 86400, Note_on_c, 5, 50, 48
6, 87120, Note_off_c, 5, 50, 0
6, 87360, Note_on_c, 5, 50, 51
6, 88080, Note_off_c, 5, 50, 0
6, 88320, Note_on_c, 5, 47, 74
6, 88440, Note_off_c, 5, 47, 0
6, 88440, Note_on_c, 5, 55, 74
6, 88560, Note_off_c, 5, 55, 0
6, 88560, Note_on_c, 5, 54, 74
6, 88680, Note_off_c, 5, 54, 0
6, 88680, Note_on_c, 5, 55, 75
6, 88800, Note_off_c, 5, 55, 0
6, 88800, Note_on_c, 5, 57, 75
6, 88920, Note_off_c, 5, 57, 0
6, 88920, Note_on_c, 5, 55, 75
6, 89040, Note_off_c, 5, 55, 0
6, 89040, Note_on_c, 5, 54, 75
6, 89160, Note_off_c, 5, 54, 0
6, 89160, Note_on_c, 5, 55, 75
6, 89280, Note_off_c, 5, 55, 0
6, 89280, Note_on_c, 5, 47, 75
6, 89720, Note_off_c, 5, 47, 0
6, 90240, Note_on_c, 5, 48, 77
6, 90360, Note_off_c, 5, 48, 0
6, 90360, Note_on_c, 5, 55, 77
6, 90480, Note_off_c, 5, 55, 0
6, 90480, Note_on_c, 5, 54, 77
6, 90600, Note_off_c, 5, 54, 0
6, 90600, Note_on_c, 5, 55, 77
6, 90720, Note_off_c, 5, 55, 0
6, 90720, Note_on_c, 5, 57, 77
6, 90840, Note_off_c, 5, 57, 0
6, 90840, Note_on_c, 5, 55, 78
6, 90960, Note_off_c, 5, 55, 0
6, 90960, Note_on_c, 5, 54, 78
6, 91080, Note_off_c, 5, 54, 0
6, 91080, Note_on_c, 5, 55, 78
6, 91200, Note_off_c, 5, 55, 0
6, 91200, Note_on_c, 5, 48, 78
6, 91640, Note_off_c, 5, 48, 0
6, 99840, Control_c, 5, 64, 127
6, 101700, Control_c, 5, 64, 0
6, 101760, Control_c, 5, 64, 127
6, 103620, Control_c, 5, 64, 0
6, 103680, Note_on_c, 5, 55, 89
6, 104160, Note_off_c, 5, 55, 0
6, 104160, Note_on_c, 5, 67, 50
6, 104400, Note_off_c, 5, 67, 0
6, 104640, Note_on_c, 5, 69, 51
6, 104880, Note_off_c, 5, 69, 0
6, 105120, Note_on_c, 5, 66, 52
6, 105360, Note_off_c, 5, 66, 0
6, 105600, Note_on_c, 5, 67, 54
6, 105840, Note_off_c, 5, 67, 0
6, 106080, Note_on_c, 5, 64, 55
6, 106320, Note_off_c, 5, 64, 0
6, 106560, Note_on_c, 5, 60, 56
6, 106800, Note_off_c, 5, 60, 0
6, 107040, Note_on_c, 5, 62, 58
6, 107280, Note_off_c, 5, 62, 0
6, 107520, Note_on_c, 5, 59, 59
6, 107760, Note_off_c, 5, 59, 0
6, 108000, Note_on_c, 5, 55, 74
6, 108000, Note_on_c, 5, 43, 74
6, 108385, Note_off_c, 5, 43, 0
6, 108385, Note_off_c, 5, 55, 0
6, 108480, Note_on_c, 5, 57, 75
6, 108480, Note_on_c, 5, 45, 75
6, 108865, Note_off_c, 5, 45, 0
6, 108865, Note_off_c, 5, 57, 0
6, 108960, Note_on_c, 5, 42, 77
6, 108960, Note_on_c, 5, 54, 77
6, 109345, Note_off_c, 5, 54, 0
6, 109345, Note_off_c, 5, 42, 0
6, 109440, Note_on_c, 5, 55, 78
6, 109440, Note_on_c, 5, 43, 78
6, 109825, Note_off_c, 5, 43, 0
6, 109825, Note_off_c, 5, 55, 0
6, 109920, Note_on_c, 5, 52, 79
6, 109920, Note_on_c, 5, 40, 79
6, 110305, Note_off_c, 5, 40, 0
6, 110305, Note_off_c, 5, 52, 0
6, 110400, Note_on_c, 5, 36, 81
6, 110400, Note_on_c, 5, 48, 81
6, 110785, Note_off_c, 5, 48, 0
6, 110785, Note_off_c, 5, 36, 0
6, 110880, Note_on_c, 5, 50, 82
6, 110880, Note_on_c, 5, 38, 82
6, 111265, Note_off_c, 5, 38, 0
6, 111265, Note_off_c, 5, 50, 0
6, 111360, Note_on_c, 5, 43, 84
6, 111745, Note_off_c, 5, 43, 0
6, 111840, Note_on_c, 5, 43, 85
6, 111840, Note_on_c, 5, 55, 85
6, 112225, Note_off_c, 5, 55, 0
6, 112225, Note_off_c, 5, 43, 0
6, 112320, Note_on_c, 5, 55, 87
6, 112320, Note_on_c, 5, 43, 87
6, 112705, Note_off_c, 5, 43, 0
6, 112705, Note_off_c, 5, 55, 0
6, 113280, Control_c, 5, 64, 127
6, 113400, Note_on_c, 5, 43, 68
6, 113400, Note_on_c, 5, 31, 68
6, 114060, Note_off_c, 5, 31, 0
6, 114065, Note_off_c, 5, 43, 0
6, 114180, Control_c, 5, 64, 0
6, 114240, Note_on_c, 5, 38, 71
6, 115080, Note_off_c, 5, 38, 0
6, 115200, Note_on_c, 5, 46, 75
6, 115920, Note_on_c, 5, 48, 65
6, 115935, Note_off_c, 5, 46, 0
6, 116040, Note_off_c, 5, 48, 0
6, 116040, Note_on_c, 5, 45, 63
6, 116160, Note_off_c, 5, 45, 0
6, 116160, Note_on_c, 5, 43, 61
6, 116640, Note_off_c, 5, 43, 0
6, 117120, Note_on_c, 5, 70, 56
6, 117840, Note_off_c, 5, 70, 0
6, 117960, Note_on_c, 5, 69, 44
6, 118080, Note_off_c, 5, 69, 0
6, 118080, Note_on_c, 5, 67, 43
6, 118520, Note_off_c, 5, 67, 0
6, 119040, Note_on_c, 5, 74, 38
6, 119760, Note_on_c, 5, 75, 28
6, 119765, Note_off_c, 5, 74, 0
6, 119880, Note_off_c, 5, 75, 0
6, 119880, Note_on_c, 5, 72, 26
6, 120000, Note_off_c, 5, 72, 0
6, 120000, Note_on_c, 5, 70, 24
6, 120440, Note_off_c, 5, 70, 0
6, 128640, Control_c, 5, 64, 127
6, 128760, Note_on_c, 5, 38, 59
6, 128760, Note_on_c, 5, 50, 59
6, 129420, Note_off_c, 5, 38, 0
6, 129425, Note_off_c, 5, 50, 0
6, 129540, Control_c, 5, 64, 0
6, 129600, Note_on_c, 5, 45, 62
6, 130440, Note_off_c, 5, 45, 0
6, 130560, Note_on_c, 5, 53, 66
6, 131280, Note_off_c, 5, 53, 0
6, 131280, Note_on_c, 5, 55, 60
6, 131400, Note_off_c, 5, 55, 0
6, 131400, Note_on_c, 5, 52, 59
6, 131520, Note_off_c, 5, 52, 0
6, 131520, Note_on_c, 5, 50, 57
6, 131955, Note_off_c, 5, 50, 0
6, 151680, Note_on_c, 5, 39, 66
6, 151680, Note_on_c, 5, 51, 66
6, 152060, Note_off_c, 5, 51, 0
6, 152060, Note_off_c, 5, 39, 0
6, 153840, Note_on_c, 5, 57, 65
6, 153995, Note_off_c, 5, 57, 0
6, 154080, Note_on_c, 5, 60, 64
6, 154235, Note_off_c, 5, 60, 0
6, 154320, Note_on_c, 5, 54, 64
6, 154475, Note_off_c, 5, 54, 0
6, 154560, Note_on_c, 5, 57, 64
6, 154715, Note_off_c, 5, 57, 0
6, 154800, Note_on_c, 5, 51, 64
6, 154955, Note_off_c, 5, 51, 0
6, 155040, Note_on_c, 5, 54, 64
6, 155195, Note_off_c, 5, 54, 0
6, 155280, Note_on_c, 5, 45, 63
6, 155435, Note_off_c, 5, 45, 0
6, 155520, Note_on_c, 5, 48, 63
6, 155675, Note_off_c, 5, 48, 0
6, 155760, Note_on_c, 5, 42, 63
6, 155915, Note_off_c, 5, 42, 0
6, 156000, Note_on_c, 5, 45, 63
6, 156155, Note_off_c, 5, 45, 0
6, 156240, Note_on_c, 5, 39, 63
6, 156395, Note_off_c, 5, 39, 0
6, 156480, Note_on_c, 5, 40, 67
6, 156865, Note_off_c, 5, 40, 0
6, 156960, Note_on_c, 5, 52, 64
6, 156960, Note_on_c, 5, 40, 64
6, 157345, Note_off_c, 5, 40, 0
6, 157345, Note_off_c, 5, 52, 0
6, 157440, Note_on_c, 5, 57, 60
6, 157440, Note_on_c, 5, 45, 60
6, 157825, Note_off_c, 5, 45, 0
6, 157825, Note_off_c, 5, 57, 0
6, 157920, Note_on_c, 5, 69, 50
6, 158230, Note_off_c, 5, 69, 0
6, 158400, Note_on_c, 5, 71, 51
6, 158710, Note_off_c, 5, 71, 0
6, 158880, Note_on_c, 5, 68, 51
6, 159190, Note_off_c, 5, 68, 0
6, 159360, Note_on_c, 5, 69, 52
6, 159670, Note_off_c, 5, 69, 0
6, 159840, Note_on_c, 5, 65, 53
6, 160150, Note_off_c, 5, 65, 0
6, 160320, Note_on_c, 5, 62, 54
6, 160630, Note_off_c, 5, 62, 0
6, 160800, Note_on_c, 5, 64, 54
6, 161110, Note_off_c, 5, 64, 0
6, 161280, Note_on_c, 5, 60, 55
6, 161590, Note_off_c, 5, 60, 0
6, 161760, Note_on_c, 5, 45, 66
6, 161760, Note_on_c, 5, 57, 66
6, 162145, Note_off_c, 5, 57, 0
6, 162145, Note_off_c, 5, 45, 0
6, 162240, Note_on_c, 5, 47, 67
6, 162240, Note_on_c, 5, 59, 67
6, 162625, Note_off_c, 5, 59, 0
6, 162625, Note_off_c, 5, 47, 0
6, 162720, Note_on_c, 5, 56, 68
6, 162720, Note_on_c, 5, 44, 68
6, 163105, Note_off_c, 5, 44, 0
6, 163105, Note_off_c, 5, 56, 0
6, 163200, Note_on_c, 5, 45, 68
6, 163200, Note_on_c, 5, 57, 68
6, 163585, Note_off_c, 5, 57, 0
6, 163585, Note_off_c, 5, 45, 0
6, 163680, Note_on_c, 5, 53, 69
6, 163680, Note_on_c, 5, 41, 69
6, 164065, Note_off_c, 5, 41, 0
6, 164065, Note_off_c, 5, 53, 0
6, 164160, Note_on_c, 5, 50, 69
6, 164160, Note_on_c, 5, 38, 69
6, 164545, Note_off_c, 5, 38, 0
6, 164545, Note_off_c, 5, 50, 0
6, 164640, Note_on_c, 5, 52, 70
6, 164640, Note_on_c, 5, 40, 70
6, 165025, Note_off_c, 5, 40, 0
6, 165025, Note_off_c, 5, 52, 0
6, 165120, Control_c, 5, 64, 127
6, 165240, Note_on_c, 5, 45, 71
6, 165240, Note_on_c, 5, 33, 71
6, 165900, Note_off_c, 5, 33, 0
6, 165905, Note_off_c, 5, 45, 0
6, 166020, Control_c, 5, 64, 0
6, 166080, Note_on_c, 5, 40, 72
6, 166920, Note_off_c, 5, 40, 0
6, 167040, Note_on_c, 5, 48, 74
6, 167760, Note_off_c, 5, 48, 0
6, 167760, Note_on_c, 5, 50, 67
6, 167880, Note_off_c, 5, 50, 0
6, 167880, Note_on_c, 5, 47, 66
6, 168000, Note_off_c, 5, 47, 0
6, 168000, Note_on_c, 5, 45, 65
6, 168435, Note_off_c, 5, 45, 0
6, 168960, Note_on_c, 5, 72, 58
6, 169680, Note_off_c, 5, 72, 0
6, 169680, Note_on_c, 5, 74, 50
6, 169790, Note_off_c, 5, 74, 0
6, 169800, Note_on_c, 5, 71, 49
6, 169910, Note_off_c, 5, 71, 0
6, 169920, Note_on_c, 5, 69, 47
6, 170360, Note_off_c, 5, 69, 0
6, 170880, Note_on_c, 5, 76, 39
6, 171600, Note_on_c, 5, 77, 32
6, 171615, Note_off_c, 5, 76, 0
6, 171710, Note_off_c, 5, 77, 0
6, 171720, Note_on_c, 5, 74, 31
6, 171830, Note_off_c, 5, 74, 0
6, 171840, Note_on_c, 5, 72, 29
6, 172280, Note_off_c, 5, 72, 0
6, 172800, Control_c, 5, 64, 127
6, 172920, Note_on_c, 5, 47, 73
6, 172920, Note_on_c, 5, 35, 73
6, 173580, Note_off_c, 5, 35, 0
6, 173585, Note_off_c, 5, 47, 0
6, 173700, Control_c, 5, 64, 0
6, 173760, Note_on_c, 5, 43, 77
6, 174600, Note_off_c, 5, 43, 0
6, 174720, Note_on_c, 5, 50, 84
6, 175440, Note_off_c, 5, 50, 0
6, 175440, Note_on_c, 5, 52, 77
6, 175560, Note_off_c, 5, 52, 0
6, 175560, Note_on_c, 5, 48, 75
6, 175680, Note_off_c, 5, 48, 0
6, 175680, Note_on_c, 5, 47, 74
6, 176105, Note_off_c, 5, 47, 0
6, 176640, Note_on_c, 5, 74, 65
6, 177360, Note_on_c, 5, 76, 58
6, 177365, Note_off_c, 5, 74, 0
6, 177470, Note_off_c, 5, 76, 0
6, 177480, Note_on_c, 5, 72, 57
6, 177590, Note_off_c, 5, 72, 0
6, 177600, Note_on_c, 5, 71, 56
6, 178040, Note_off_c, 5, 71, 0
6, 178560, Note_on_c, 5, 77, 46
6, 179280, Note_on_c, 5, 79, 39
6, 179285, Note_off_c, 5, 77, 0
6, 179390, Note_off_c, 5, 79, 0
6, 179400, Note_on_c, 5, 76, 38
6, 179510, Note_off_c, 5, 76, 0
6, 179520, Note_on_c, 5, 74, 37
6, 179960, Note_off_c, 5, 74, 0
6, 180480, Control_c, 5, 64, 127
6, 180600, Note_on_c, 5, 48, 71
6, 180640, Note_on_c, 5, 36, 71
6, 181265, Note_off_c, 5, 48, 0
6, 181300, Note_off_c, 5, 36, 0
6, 181380, Control_c, 5, 64, 0
6, 181440, Note_on_c, 5, 43, 75
6, 182280, Note_off_c, 5, 43, 0
6, 182400, Note_on_c, 5, 52, 79
6, 183120, Note_off_c, 5, 52, 0
6, 183120, Note_on_c, 5, 53, 68
6, 183240, Note_off_c, 5, 53, 0
6, 183240, Note_on_c, 5, 50, 66
6, 183360, Note_off_c, 5, 50, 0
6, 183360, Note_on_c, 5, 48, 65
6, 183785, Note_off_c, 5, 48, 0
6, 190080, Note_on_c, 5, 65, 44
6, 191970, Note_off_c, 5, 65, 0
6, 192480, Note_on_c, 5, 53, 58
6, 192790, Note_off_c, 5, 53, 0
6, 192960, Note_on_c, 5, 55, 61
6, 193270, Note_off_c, 5, 55, 0
6, 193440, Note_on_c, 5, 55, 64
6, 193750, Note_off_c, 5, 55, 0
6, 193920, Control_c, 5, 64, 127
6, 194040, Note_on_c, 5, 48, 67
6, 194040, Note_on_c, 5, 36, 67
6, 194700, Note_off_c, 5, 36, 0
6, 194705, Note_off_c, 5, 48, 0
6, 194820, Control_c, 5, 64, 0
6, 194880, Note_on_c, 5, 31, 71
6, 194880, Note_on_c, 5, 43, 71
6, 195720, Note_off_c, 5, 43, 0
6, 195725, Note_off_c, 5, 31, 0
6, 195840, Note_on_c, 5, 51, 76
6, 196560, Note_off_c, 5, 51, 0
6, 196560, Note_on_c, 5, 53, 69
6, 196680, Note_off_c, 5, 53, 0
6, 196680, Note_on_c, 5, 50, 68
6, 196800, Note_off_c, 5, 50, 0
6, 196800, Note_on_c, 5, 48, 66
6, 197225, Note_off_c, 5, 48, 0
6, 207360, Note_on_c, 5, 62, 40
6, 207360, Note_on_c, 5, 59, 40
6, 207840, Note_off_c, 5, 59, 0
6, 207840, Note_off_c, 5, 62, 0
6, 222720, Note_on_c, 5, 60, 58
6, 223080, Note_off_c, 5, 60, 0
6, 226560, Note_on_c, 5, 59, 64
6, 226920, Note_off_c, 5, 59, 0
6, 230400, Note_on_c, 5, 54, 75
6, 230760, Note_off_c, 5, 54, 0
6, 234240, Note_on_c, 5, 55, 79
6, 234975, Note_off_c, 5, 55, 0
6, 235200, Note_on_c, 5, 59, 77
6, 235925, Note_off_c, 5, 59, 0
6, 236160, Note_on_c, 5, 60, 75
6, 236880, Note_off_c, 5, 60, 0
6, 237120, Note_on_c, 5, 64, 73
6, 237845, Note_off_c, 5, 64, 0
6, 238080, Note_on_c, 5, 59, 71
6, 238200, Note_off_c, 5, 59, 0
6, 238200, Note_on_c, 5, 57, 69
6, 238320, Note_off_c, 5, 57, 0
6, 238320, Note_on_c, 5, 60, 67
6, 238440, Note_off_c, 5, 60, 0
6, 238440, Note_on_c, 5, 59, 66
6, 238560, Note_off_c, 5, 59, 0
6, 238560, Note_on_c, 5, 62, 64
6, 238680, Note_off_c, 5, 62, 0
6, 239040, Note_on_c, 5, 55, 69
6, 239160, Note_off_c, 5, 55, 0
6, 239160, Note_on_c, 5, 54, 68
6, 239280, Note_off_c, 5, 54, 0
6, 239280, Note_on_c, 5, 57, 66
6, 239400, Note_off_c, 5, 57, 0
6, 239400, Note_on_c, 5, 55, 65
6, 239520, Note_off_c, 5, 55, 0
6, 239520, Note_on_c, 5, 59, 64
6, 239640, Note_off_c, 5, 59, 0
6, 239760, Note_on_c, 5, 50, 61
6, 239880, Note_off_c, 5, 50, 0
6, 240000, Note_on_c, 5, 52, 66
6, 240360, Note_off_c, 5, 52, 0
6, 240360, Note_on_c, 5, 50, 65
6, 240480, Note_off_c, 5, 50, 0
6, 240480, Note_on_c, 5, 48, 65
6, 240840, Note_off_c, 5, 48, 0
6, 240840, Note_on_c, 5, 47, 64
6, 240960, Note_off_c, 5, 47, 0
6, 240960, Note_on_c, 5, 48, 64
6, 241320, Note_off_c, 5, 48, 0
6, 241320, Note_on_c, 5, 45, 63
6, 241440, Note_off_c, 5, 45, 0
6, 241440, Note_on_c, 5, 43, 63
6, 241800, Note_off_c, 5, 43, 0
6, 241800, Note_on_c, 5, 42, 62
6, 241920, Note_off_c, 5, 42, 0
6, 241920, Note_on_c, 5, 43, 65
6, 242160, Note_off_c, 5, 43, 0
6, 242160, Note_on_c, 5, 47, 62
6, 242280, Note_off_c, 5, 47, 0
6, 242280, Note_on_c, 5, 50, 61
6, 242400, Note_off_c, 5, 50, 0
6, 242400, Note_on_c, 5, 55, 59
6, 242555, Note_off_c, 5, 55, 0
6, 242640, Note_on_c, 5, 55, 56
6, 242795, Note_off_c, 5, 55, 0
6, 242880, Note_on_c, 5, 55, 53
6, 243360, Note_off_c, 5, 55, 0
6, 247680, Note_on_c, 5, 64, 43
6, 247835, Note_off_c, 5, 64, 0
6, 247920, Note_on_c, 5, 65, 41
6, 248075, Note_off_c, 5, 65, 0
6, 248160, Note_on_c, 5, 67, 40
6, 248315, Note_off_c, 5, 67, 0
6, 248400, Note_on_c, 5, 64, 38
6, 248555, Note_off_c, 5, 64, 0
6, 248640, Note_on_c, 5, 60, 37
6, 249410, Note_off_c, 5, 60, 0
6, 249600, Note_on_c, 5, 62, 43
6, 249755, Note_off_c, 5, 62, 0
6, 249840, Note_on_c, 5, 64, 42
6, 249995, Note_off_c, 5, 64, 0
6, 250080, Note_on_c, 5, 65, 40
6, 250235, Note_off_c, 5, 65, 0
6, 250320, Note_on_c, 5, 62, 38
6, 250475, Note_off_c, 5, 62, 0
6, 250560, Note_on_c, 5, 59, 37
6, 251330, Note_off_c, 5, 59, 0
6, 251520, Note_on_c, 5, 62, 47
6, 251640, Note_off_c, 5, 62, 0
6, 251640, Note_on_c, 5, 60, 46
6, 251940, Note_off_c, 5, 60, 0
6, 252000, Note_on_c, 5, 65, 44
6, 252120, Note_off_c, 5, 65, 0
6, 252120, Note_on_c, 5, 64, 43
6, 252425, Note_off_c, 5, 64, 0
6, 252480, Note_on_c, 5, 61, 41
6, 252600, Note_off_c, 5, 61, 0
6, 252600, Note_on_c, 5, 62, 40
6, 252905, Note_off_c, 5, 62, 0
6, 253440, Note_on_c, 5, 65, 47
6, 253560, Note_off_c, 5, 65, 0
6, 253560, Note_on_c, 5, 64, 46
6, 253865, Note_off_c, 5, 64, 0
6, 253920, Note_on_c, 5, 67, 45
6, 254040, Note_off_c, 5, 67, 0
6, 254040, Note_on_c, 5, 66, 44
6, 254355, Note_off_c, 5, 66, 0
6, 254400, Note_on_c, 5, 69, 43
6, 254520, Note_off_c, 5, 69, 0
6, 254520, Note_on_c, 5, 67, 42
6, 254820, Note_off_c, 5, 67, 0
6, 263040, Note_on_c, 5, 40, 59
6, 263160, Note_off_c, 5, 40, 0
6, 263160, Note_on_c, 5, 48, 59
6, 263280, Note_off_c, 5, 48, 0
6, 263280, Note_on_c, 5, 47, 59
6, 263400, Note_off_c, 5, 47, 0
6, 263400, Note_on_c, 5, 48, 59
6, 263520, Note_off_c, 5, 48, 0
6, 263520, Note_on_c, 5, 50, 59
6, 263640, Note_off_c, 5, 50, 0
6, 263640, Note_on_c, 5, 48, 59
6, 263760, Note_off_c, 5, 48, 0
6, 263760, Note_on_c, 5, 47, 59
6, 263880, Note_off_c, 5, 47, 0
6, 263880, Note_on_c, 5, 48, 60
6, 264000, Note_off_c, 5, 48, 0
6, 264000, Note_on_c, 5, 40, 60
6, 264480, Note_off_c, 5, 40, 0
6, 264960, Note_on_c, 5, 41, 61
6, 265080, Note_off_c, 5, 41, 0
6, 265080, Note_on_c, 5, 48, 61
6, 265200, Note_off_c, 5, 48, 0
6, 265200, Note_on_c, 5, 47, 61
6, 265320, Note_off_c, 5, 47, 0
6, 265320, Note_on_c, 5, 48, 61
6, 265440, Note_off_c, 5, 48, 0
6, 265440, Note_on_c, 5, 50, 61
6, 265560, Note_off_c, 5, 50, 0
6, 265560, Note_on_c, 5, 48, 62
6, 265680, Note_off_c, 5, 48, 0
6, 265680, Note_on_c, 5, 47, 62
6, 265800, Note_off_c, 5, 47, 0
6, 265800, Note_on_c, 5, 48, 62
6, 265920, Note_off_c, 5, 48, 0
6, 265920, Note_on_c, 5, 41, 62
6, 266400, Note_off_c, 5, 41, 0
6, 266880, Note_on_c, 5, 43, 48
6, 267600, Note_off_c, 5, 43, 0
6, 267840, Note_on_c, 5, 43, 50
6, 268560, Note_off_c, 5, 43, 0
6, 268800, Note_on_c, 5, 48, 65
6, 268920, Note_off_c, 5, 48, 0
6, 268920, Note_on_c, 5, 60, 65
6, 269040, Note_off_c, 5, 60, 0
6, 269040, Note_on_c, 5, 59, 66
6, 269160, Note_off_c, 5, 59, 0
6, 269160, Note_on_c, 5, 60, 66
6, 269280, Note_off_c, 5, 60, 0
6, 269280, Note_on_c, 5, 62, 66
6, 269400, Note_off_c, 5, 62, 0
6, 269400, Note_on_c, 5, 60, 66
6, 269520, Note_off_c, 5, 60, 0
6, 269520, Note_on_c, 5, 59, 66
6, 269640, Note_off_c, 5, 59, 0
6, 269640, Note_on_c, 5, 60, 66
6, 269760, Note_off_c, 5, 60, 0
6, 269760, Note_on_c, 5, 52, 66
6, 270240, Note_off_c, 5, 52, 0
6, 270720, Note_on_c, 5, 57, 68
6, 270840, Note_off_c, 5, 57, 0
6, 270840, Note_on_c, 5, 65, 68
6, 270960, Note_off_c, 5, 65, 0
6, 270960, Note_on_c, 5, 64, 68
6, 271080, Note_off_c, 5, 64, 0
6, 271080, Note_on_c, 5, 65, 68
6, 271200, Note_off_c, 5, 65, 0
6, 271200, Note_on_c, 5, 67, 68
6, 271320, Note_off_c, 5, 67, 0
6, 271320, Note_on_c, 5, 65, 68
6, 271440, Note_off_c, 5, 65, 0
6, 271440, Note_on_c, 5, 64, 68
6, 271560, Note_off_c, 5, 64, 0
6, 271560, Note_on_c, 5, 65, 69
6, 271680, Note_off_c, 5, 65, 0
6, 271680, Note_on_c, 5, 57, 69
6, 272160, Note_off_c, 5, 57, 0
6, 272640, Note_on_c, 5, 55, 70
6, 273000, Note_off_c, 5, 55, 0
6, 273120, Note_on_c, 5, 57, 71
6, 273480, Note_off_c, 5, 57, 0
6, 273600, Note_on_c, 5, 55, 55
6, 273960, Note_off_c, 5, 55, 0
6, 274080, Note_on_c, 5, 53, 73
6, 274440, Note_off_c, 5, 53, 0
6, 274560, Note_on_c, 5, 52, 57
6, 274920, Note_off_c, 5, 52, 0
6, 275040, Note_on_c, 5, 57, 75
6, 275400, Note_off_c, 5, 57, 0
6, 275520, Note_on_c, 5, 55, 59
6, 275880, Note_off_c, 5, 55, 0
6, 276000, Note_on_c, 5, 53, 75
6, 276360, Note_off_c, 5, 53, 0
6, 284160, Note_on_c, 5, 60, 81
6, 284545, Note_off_c, 5, 60, 0
6, 284640, Note_on_c, 5, 72, 44
6, 284950, Note_off_c, 5, 72, 0
6, 285120, Note_on_c, 5, 74, 45
6, 285430, Note_off_c, 5, 74, 0
6, 285600, Note_on_c, 5, 71, 47
6, 285910, Note_off_c, 5, 71, 0
6, 286080, Note_on_c, 5, 72, 48
6, 286390, Note_off_c, 5, 72, 0
6, 286560, Note_on_c, 5, 69, 49
6, 286870, Note_off_c, 5, 69, 0
6, 287040, Note_on_c, 5, 65, 51
6, 287350, Note_off_c, 5, 65, 0
6, 287520, Note_on_c, 5, 67, 52
6, 287830, Note_off_c, 5, 67, 0
6, 288000, Note_on_c, 5, 64, 53
6, 288310, Note_off_c, 5, 64, 0
6, 288480, Note_on_c, 5, 61, 61
6, 288480, Note_on_c, 5, 49, 61
6, 288865, Note_off_c, 5, 49, 0
6, 288865, Note_off_c, 5, 61, 0
6, 288960, Note_on_c, 5, 50, 62
6, 288960, Note_on_c, 5, 62, 62
6, 289345, Note_off_c, 5, 62, 0
6, 289345, Note_off_c, 5, 50, 0
6, 289440, Note_on_c, 5, 47, 63
6, 289440, Note_on_c, 5, 59, 63
6, 289825, Note_off_c, 5, 59, 0
6, 289825, Note_off_c, 5, 47, 0
6, 289920, Note_on_c, 5, 60, 65
6, 289920, Note_on_c, 5, 48, 65
6, 290305, Note_off_c, 5, 48, 0
6, 290305, Note_off_c, 5, 60, 0
6, 290400, Note_on_c, 5, 45, 66
6, 290400, Note_on_c, 5, 57, 66
6, 290785, Note_off_c, 5, 57, 0
6, 290785, Note_off_c, 5, 45, 0
6, 290880, Note_on_c, 5, 53, 67
6, 290880, Note_on_c, 5, 41, 67
6, 291265, Note_off_c, 5, 41, 0
6, 291265, Note_off_c, 5, 53, 0
6, 291360, Note_on_c, 5, 43, 68
6, 291360, Note_on_c, 5, 55, 68
6, 291745, Note_off_c, 5, 55, 0
6, 291745, Note_off_c, 5, 43, 0
6, 291840, Control_c, 5, 64, 127
6, 291960, Note_on_c, 5, 48, 70
6, 291960, Note_on_c, 5, 36, 70
6, 292620, Note_off_c, 5, 36, 0
6, 292625, Note_off_c, 5, 48, 0
6, 292740, Control_c, 5, 64, 0
6, 292800, Note_on_c, 5, 43, 72
6, 293640, Note_off_c, 5, 43, 0
6, 293760, Note_on_c, 5, 52, 77
6, 294480, Note_off_c, 5, 52, 0
6, 294480, Note_on_c, 5, 53, 70
6, 294600, Note_off_c, 5, 53, 0
6, 294600, Note_on_c, 5, 50, 69
6, 294720, Note_off_c, 5, 50, 0
6, 294720, Note_on_c, 5, 48, 68
6, 295125, Note_off_c, 5, 48, 0
6, 295200, Note_on_c, 5, 43, 71
6, 295200, Note_on_c, 5, 55, 71
6, 295585, Note_off_c, 5, 55, 0
6, 295585, Note_off_c, 5, 43, 0
6, 295680, Note_on_c, 5, 60, 74
6, 295680, Note_on_c, 5, 48, 74
6, 296065, Note_off_c, 5, 48, 0
6, 296065, Note_off_c, 5, 60, 0
6, 296160, Note_on_c, 5, 43, 78
6, 296160, Note_on_c, 5, 55, 78
6, 296545, Note_off_c, 5, 55, 0
6, 296545, Note_off_c, 5, 43, 0
6, 296640, Note_on_c, 5, 60, 81
6, 296640, Note_on_c, 5, 48, 81
6, 297025, Note_off_c, 5, 48, 0
6, 297025, Note_off_c, 5, 60, 0
6, 297120, Note_on_c, 5, 43, 84
6, 297120, Note_on_c, 5, 55, 84
6, 297505, Note_off_c, 5, 55, 0
6, 297505, Note_off_c, 5, 43, 0
6, 297600, Note_on_c, 5, 48, 88
6, 297600, Note_on_c, 5, 60, 88
6, 297985, Note_off_c, 5, 60, 0
6, 297985, Note_off_c, 5, 48, 0
6, 298080, Note_on_c, 5, 36, 91
6, 298080, Note_on_c, 5, 48, 91
6, 298465, Note_off_c, 5, 48, 0
6, 298465, Note_off_c, 5, 36, 0
6, 298560, Note_on_c, 5, 36, 95
6, 298560, Note_on_c, 5, 48, 95
6, 298945, Note_off_c, 5, 48, 0
6, 298945, Note_off_c, 5, 36, 0
6, 299520, Control_c, 5, 64, 0
6, 300480, Note_on_c, 5, 53, 61
6, 301830, Note_off_c, 5, 53, 0
6, 303360, Note_on_c, 5, 57, 67
6, 304700, Note_off_c, 5, 57, 0
6, 307680, Note_on_c, 5, 53, 72
6, 308065, Note_off_c, 5, 53, 0
6, 308160, Note_on_c, 5, 55, 75
6, 308640, Note_off_c, 5, 55, 0
6, 308640, Note_on_c, 5, 48, 68
6, 309120, Note_off_c, 5, 48, 0
6, 309120, Note_on_c, 5, 53, 52
6, 309505, Note_off_c, 5, 53, 0
6, 311040, Note_on_c, 5, 48, 47
6, 312390, Note_off_c, 5, 48, 0
6, 313440, Note_on_c, 5, 53, 56
6, 313825, Note_off_c, 5, 53, 0
6, 313920, Note_on_c, 5, 55, 62
6, 315240, Note_off_c, 5, 55, 0
6, 315360, Note_on_c, 5, 53, 60
6, 315745, Note_off_c, 5, 53, 0
6, 315840, Note_on_c, 5, 52, 67
6, 316320, Note_off_c, 5, 52, 0
6, 316320, Note_on_c, 5, 58, 74
6, 316800, Note_off_c, 5, 58, 0
6, 316800, Note_on_c, 5, 57, 81
6, 317760, Note_off_c, 5, 57, 0
6, 318240, Note_on_c, 5, 45, 44
6, 318720, Note_off_c, 5, 45, 0
6, 318720, Note_on_c, 5, 46, 48
6, 319200, Note_off_c, 5, 46, 0
6, 319200, Note_on_c, 5, 50, 51
6, 319680, Note_off_c, 5, 50, 0
6, 319680, Note_on_c, 5, 48, 56
6, 321065, Note_off_c, 5, 48, 0
6, 321120, Note_on_c, 5, 46, 63
6, 321600, Note_off_c, 5, 46, 0
6, 321600, Note_on_c, 5, 45, 59
6, 322080, Note_off_c, 5, 45, 0
6, 322080, Note_on_c, 5, 43, 54
6, 322505, Note_off_c, 5, 43, 0
6, 322560, Note_on_c, 5, 41, 48
6, 323040, Note_off_c, 5, 41, 0
6, 323520, Note_on_c, 5, 53, 64
6, 324875, Note_off_c, 5, 53, 0
6, 326400, Note_on_c, 5, 57, 71
6, 327765, Note_off_c, 5, 57, 0
6, 329280, Note_on_c, 5, 72, 71
6, 329640, Note_off_c, 5, 72, 0
6, 329640, Note_on_c, 5, 69, 73
6, 329735, Note_off_c, 5, 69, 0
6, 329760, Note_on_c, 5, 70, 74
6, 330120, Note_off_c, 5, 70, 0
6, 330120, Note_on_c, 5, 67, 76
6, 330215, Note_off_c, 5, 67, 0
6, 330240, Note_on_c, 5, 69, 77
6, 330660, Note_off_c, 5, 69, 0
6, 330720, Note_on_c, 5, 66, 80
6, 331145, Note_off_c, 5, 66, 0
6, 331200, Note_on_c, 5, 67, 83
6, 331680, Note_off_c, 5, 67, 0
6, 331680, Note_on_c, 5, 64, 72
6, 332160, Note_off_c, 5, 64, 0
6, 332160, Note_on_c, 5, 65, 56
6, 332545, Note_off_c, 5, 65, 0
6, 334080, Note_on_c, 5, 48, 59
6, 335430, Note_off_c, 5, 48, 0
6, 336960, Note_on_c, 5, 55, 69
6, 337440, Note_off_c, 5, 55, 0
6, 337440, Note_on_c, 5, 52, 57
6, 337825, Note_off_c, 5, 52, 0
6, 338640, Note_on_c, 5, 40, 50
6, 338830, Note_off_c, 5, 40, 0
6, 338880, Note_on_c, 5, 41, 53
6, 339600, Note_off_c, 5, 41, 0
6, 339600, Note_on_c, 5, 43, 60
6, 339790, Note_off_c, 5, 43, 0
6, 339840, Note_on_c, 5, 45, 63
6, 340560, Note_off_c, 5, 45, 0
6, 340560, Note_on_c, 5, 46, 70
6, 340750, Note_off_c, 5, 46, 0
6, 340800, Note_on_c, 5, 48, 73
6, 341185, Note_off_c, 5, 48, 0
6, 341760, Note_on_c, 5, 36, 45
6, 342680, Note_off_c, 5, 36, 0
6, 342720, Note_on_c, 5, 41, 52
6, 344040, Note_off_c, 5, 41, 0
6, 344160, Note_on_c, 5, 48, 57
6, 344640, Note_off_c, 5, 48, 0
6, 344640, Note_on_c, 5, 45, 54
6, 345120, Note_off_c, 5, 45, 0
6, 345120, Note_on_c, 5, 48, 51
6, 345515, Note_off_c, 5, 48, 0
6, 345600, Note_on_c, 5, 41, 42
6, 346080, Note_off_c, 5, 41, 0
6, 346560, Note_on_c, 5, 53, 55
6, 347910, Note_off_c, 5, 53, 0
6, 349440, Note_on_c, 5, 57, 63
6, 350780, Note_off_c, 5, 57, 0
6, 353760, Note_on_c, 5, 53, 80
6, 354145, Note_off_c, 5, 53, 0
6, 354240, Note_on_c, 5, 55, 69
6, 354720, Note_off_c, 5, 55, 0
6, 354720, Note_on_c, 5, 52, 57
6, 355200, Note_off_c, 5, 52, 0
6, 355200, Note_on_c, 5, 53, 43
6, 355585, Note_off_c, 5, 53, 0
6, 357120, Note_on_c, 5, 48, 63
6, 358460, Note_off_c, 5, 48, 0
6, 358560, Note_on_c, 5, 58, 41
6, 359040, Note_off_c, 5, 58, 0
6, 359040, Note_on_c, 5, 57, 46
6, 359425, Note_off_c, 5, 57, 0
6, 359520, Note_on_c, 5, 53, 50
6, 359905, Note_off_c, 5, 53, 0
6, 360000, Note_on_c, 5, 55, 54
6, 361355, Note_off_c, 5, 55, 0
6, 361440, Note_on_c, 5, 53, 35
6, 361825, Note_off_c, 5, 53, 0
6, 361920, Note_on_c, 5, 52, 62
6, 362305, Note_off_c, 5, 52, 0
6, 362400, Note_on_c, 5, 58, 65
6, 362785, Note_off_c, 5, 58, 0
6, 362880, Note_on_c, 5, 57, 68
6, 363265, Note_off_c, 5, 57, 0
6, 364320, Note_on_c, 5, 45, 44
6, 364705, Note_off_c, 5, 45, 0
6, 364800, Note_on_c, 5, 46, 47
6, 365185, Note_off_c, 5, 46, 0
6, 365280, Note_on_c, 5, 50, 50
6, 365665, Note_off_c, 5, 50, 0
6, 365760, Note_on_c, 5, 48, 51
6, 367105, Note_off_c, 5, 48, 0
6, 367200, Note_on_c, 5, 46, 71
6, 367360, Note_off_c, 5, 46, 0
6, 367360, Note_on_c, 5, 48, 68
6, 367520, Note_off_c, 5, 48, 0
6, 367520, Note_on_c, 5, 46, 65
6, 367680, Note_off_c, 5, 46, 0
6, 367680, Note_on_c, 5, 45, 62
6, 367840, Note_off_c, 5, 45, 0
6, 367840, Note_on_c, 5, 46, 59
6, 368000, Note_off_c, 5, 46, 0
6, 368000, Note_on_c, 5, 45, 56
6, 368160, Note_off_c, 5, 45, 0
6, 368160, Note_on_c, 5, 43, 53
6, 368320, Note_off_c, 5, 43, 0
6, 368320, Note_on_c, 5, 45, 50
6, 368480, Note_off_c, 5, 45, 0
6, 368480, Note_on_c, 5, 43, 47
6, 368610, Note_off_c, 5, 43, 0
6, 368640, Note_on_c, 5, 41, 47
6, 369025, Note_off_c, 5, 41, 0
6, 369600, Note_on_c, 5, 53, 64
6, 370955, Note_off_c, 5, 53, 0
6, 372480, Note_on_c, 5, 57, 79
6, 373845, Note_off_c, 5, 57, 0
6, 375360, Note_on_c, 5, 72, 68
6, 375480, Note_off_c, 5, 72, 0
6, 375480, Note_on_c, 5, 71, 69
6, 375600, Note_off_c, 5, 71, 0
6, 375600, Note_on_c, 5, 72, 70
6, 375720, Note_off_c, 5, 72, 0
6, 375720, Note_on_c, 5, 69, 70
6, 375840, Note_off_c, 5, 69, 0
6, 375840, Note_on_c, 5, 70, 71
6, 375960, Note_off_c, 5, 70, 0
6, 375960, Note_on_c, 5, 69, 72
6, 376080, Note_off_c, 5, 69, 0
6, 376080, Note_on_c, 5, 70, 73
6, 376200, Note_off_c, 5, 70, 0
6, 376200, Note_on_c, 5, 67, 73
6, 376295, Note_off_c, 5, 67, 0
6, 376320, Note_on_c, 5, 69, 74
6, 377040, Note_off_c, 5, 69, 0
6, 377040, Note_on_c, 5, 65, 79
6, 377255, Note_off_c, 5, 65, 0
6, 377280, Note_on_c, 5, 67, 80
6, 377760, Note_off_c, 5, 67, 0
6, 377760, Note_on_c, 5, 64, 68
6, 378240, Note_off_c, 5, 64, 0
6, 378240, Note_on_c, 5, 65, 57
6, 378625, Note_off_c, 5, 65, 0
6, 380160, Note_on_c, 5, 48, 65
6, 381500, Note_off_c, 5, 48, 0
6, 383040, Note_on_c, 5, 55, 71
6, 383425, Note_off_c, 5, 55, 0
6, 383520, Note_on_c, 5, 52, 61
6, 383905, Note_off_c, 5, 52, 0
6, 384720, Note_on_c, 5, 40, 46
6, 384910, Note_off_c, 5, 40, 0
6, 384960, Note_on_c, 5, 41, 47
6, 385680, Note_off_c, 5, 41, 0
6, 385680, Note_on_c, 5, 43, 52
6, 385870, Note_off_c, 5, 43, 0
6, 385920, Note_on_c, 5, 45, 54
6, 386640, Note_off_c, 5, 45, 0
6, 386640, Note_on_c, 5, 46, 58
6, 386830, Note_off_c, 5, 46, 0
6, 386880, Note_on_c, 5, 48, 60
6, 387265, Note_off_c, 5, 48, 0
6, 387840, Note_on_c, 5, 36, 49
6, 388685, Note_off_c, 5, 36, 0
6, 388800, Note_on_c, 5, 41, 57
6, 390145, Note_off_c, 5, 41, 0
6, 390240, Note_on_c, 5, 41, 54
6, 390625, Note_off_c, 5, 41, 0
6, 390720, Note_on_c, 5, 40, 50
6, 391105, Note_off_c, 5, 40, 0
6, 391200, Note_on_c, 5, 38, 46
6, 391585, Note_off_c, 5, 38, 0
6, 391680, Note_on_c, 5, 36, 44
6, 392450, Note_off_c, 5, 36, 0
6, 393120, Note_on_c, 5, 60, 49
6, 393505, Note_off_c, 5, 60, 0
6, 393600, Note_on_c, 5, 60, 50
6, 393985, Note_off_c, 5, 60, 0
6, 394080, Note_on_c, 5, 60, 52
6, 394465, Note_off_c, 5, 60, 0
6, 395040, Note_on_c, 5, 62, 50
6, 395425, Note_off_c, 5, 62, 0
6, 395520, Note_on_c, 5, 62, 48
6, 395905, Note_off_c, 5, 62, 0
6, 396000, Note_on_c, 5, 62, 45
6, 396385, Note_off_c, 5, 62, 0
6, 396480, Note_on_c, 5, 62, 49
6, 396865, Note_off_c, 5, 62, 0
6, 396960, Note_on_c, 5, 62, 51
6, 397345, Note_off_c, 5, 62, 0
6, 397920, Note_on_c, 5, 55, 56
6, 398305, Note_off_c, 5, 55, 0
6, 398400, Note_on_c, 5, 55, 58
6, 398785, Note_off_c, 5, 55, 0
6, 398880, Note_on_c, 5, 55, 60
6, 399265, Note_off_c, 5, 55, 0
6, 399360, Note_on_c, 5, 55, 62
6, 399745, Note_off_c, 5, 55, 0
6, 399840, Note_on_c, 5, 55, 64
6, 400225, Note_off_c, 5, 55, 0
6, 400800, Note_on_c, 5, 48, 61
6, 401185, Note_off_c, 5, 48, 0
6, 401280, Note_on_c, 5, 48, 58
6, 401665, Note_off_c, 5, 48, 0
6, 401760, Note_on_c, 5, 48, 55
6, 402145, Note_off_c, 5, 48, 0
6, 402240, Note_on_c, 5, 36, 62
6, 402625, Note_off_c, 5, 36, 0
6, 402720, Note_on_c, 5, 48, 63
6, 403105, Note_off_c, 5, 48, 0
6, 403200, Note_on_c, 5, 41, 64
6, 403585, Note_off_c, 5, 41, 0
6, 403680, Note_on_c, 5, 53, 66
6, 404040, Note_off_c, 5, 53, 0
6, 404040, Note_on_c, 5, 52, 67
6, 404160, Note_off_c, 5, 52, 0
6, 404160, Note_on_c, 5, 53, 67
6, 404545, Note_off_c, 5, 53, 0
6, 404640, Note_on_c, 5, 54, 68
6, 405025, Note_off_c, 5, 54, 0
6, 405120, Note_on_c, 5, 55, 70
6, 405505, Note_off_c, 5, 55, 0
6, 405600, Note_on_c, 5, 43, 71
6, 405985, Note_off_c, 5, 43, 0
6, 406080, Note_on_c, 5, 45, 72
6, 406465, Note_off_c, 5, 45, 0
6, 406560, Note_on_c, 5, 57, 73
6, 406920, Note_off_c, 5, 57, 0
6, 406920, Note_on_c, 5, 56, 74
6, 407040, Note_off_c, 5, 56, 0
6, 407040, Note_on_c, 5, 57, 75
6, 407425, Note_off_c, 5, 57, 0
6, 407520, Note_on_c, 5, 45, 76
6, 407905, Note_off_c, 5, 45, 0
6, 408000, Note_on_c, 5, 40, 77
6, 408385, Note_off_c, 5, 40, 0
6, 408480, Note_on_c, 5, 52, 78
6, 408865, Note_off_c, 5, 52, 0
6, 408960, Note_on_c, 5, 53, 78
6, 409880, Note_off_c, 5, 53, 0
6, 409920, Note_on_c, 5, 55, 68
6, 410780, Note_off_c, 5, 55, 0
6, 410880, Note_on_c, 5, 55, 58
6, 411725, Note_off_c, 5, 55, 0
6, 411840, Note_on_c, 5, 60, 48
6, 412225, Note_off_c, 5, 60, 0
6, 412320, Note_on_c, 5, 48, 73
6, 412800, Note_off_c, 5, 48, 0
6, 412800, Note_on_c, 5, 60, 73
6, 413280, Note_off_c, 5, 60, 0
6, 413280, Note_on_c, 5, 58, 72
6, 413760, Note_off_c, 5, 58, 0
6, 413760, Note_on_c, 5, 57, 72
6, 414240, Note_off_c, 5, 57, 0
6, 414240, Note_on_c, 5, 55, 72
6, 414605, Note_off_c, 5, 55, 0
6, 414720, Note_on_c, 5, 54, 71
6, 415200, Note_off_c, 5, 54, 0
6, 415200, Note_on_c, 5, 50, 71
6, 415565, Note_off_c, 5, 50, 0
6, 415680, Note_on_c, 5, 58, 70
6, 416160, Note_off_c, 5, 58, 0
6, 416160, Note_on_c, 5, 57, 70
6, 416640, Note_off_c, 5, 57, 0
6, 416640, Note_on_c, 5, 55, 69
6, 417120, Note_off_c, 5, 55, 0
6, 417120, Note_on_c, 5, 53, 69
6, 417485, Note_off_c, 5, 53, 0
6, 417600, Note_on_c, 5, 52, 68
6, 418080, Note_off_c, 5, 52, 0
6, 418080, Note_on_c, 5, 48, 68
6, 418445, Note_off_c, 5, 48, 0
6, 418560, Note_on_c, 5, 57, 68
6, 419040, Note_off_c, 5, 57, 0
6, 419040, Note_on_c, 5, 55, 67
6, 419520, Note_off_c, 5, 55, 0
6, 419520, Note_on_c, 5, 53, 67
6, 420000, Note_off_c, 5, 53, 0
6, 420000, Note_on_c, 5, 52, 66
6, 420365, Note_off_c, 5, 52, 0
6, 420480, Note_on_c, 5, 50, 66
6, 421325, Note_off_c, 5, 50, 0
6, 421440, Note_on_c, 5, 52, 59
6, 421920, Note_off_c, 5, 52, 0
6, 421920, Note_on_c, 5, 48, 57
6, 422330, Note_off_c, 5, 48, 0
6, 422400, Note_on_c, 5, 50, 54
6, 422880, Note_off_c, 5, 50, 0
6, 422880, Note_on_c, 5, 46, 52
6, 423290, Note_off_c, 5, 46, 0
6, 423360, Note_on_c, 5, 48, 49
6, 423735, Note_off_c, 5, 48, 0
6, 423840, Note_on_c, 5, 60, 47
6, 424560, Note_off_c, 5, 60, 0
6, 424560, Note_on_c, 5, 48, 61
6, 424800, Note_off_c, 5, 48, 0
6, 424800, Note_on_c, 5, 58, 59
6, 425040, Note_off_c, 5, 58, 0
6, 425040, Note_on_c, 5, 46, 57
6, 425280, Note_off_c, 5, 46, 0
6, 425280, Note_on_c, 5, 57, 55
6, 425520, Note_off_c, 5, 57, 0
6, 425520, Note_on_c, 5, 45, 53
6, 425760, Note_off_c, 5, 45, 0
6, 425760, Note_on_c, 5, 55, 51
6, 426000, Note_off_c, 5, 55, 0
6, 426000, Note_on_c, 5, 43, 49
6, 426190, Note_off_c, 5, 43, 0
6, 426240, Note_on_c, 5, 41, 46
6, 426240, Note_on_c, 5, 53, 46
6, 426625, Note_off_c, 5, 53, 0
6, 426625, Note_off_c, 5, 41, 0
6, 427200, Note_on_c, 5, 53, 57
6, 428550, Note_off_c, 5, 53, 0
6, 430080, Note_on_c, 5, 57, 65
6, 431450, Note_off_c, 5, 57, 0
6, 434400, Note_on_c, 5, 53, 78
6, 434785, Note_off_c, 5, 53, 0
6, 434880, Note_on_c, 5, 50, 77
6, 435360, Note_off_c, 5, 50, 0
6, 435360, Note_on_c, 5, 52, 68
6, 435840, Note_off_c, 5, 52, 0
6, 435840, Note_on_c, 5, 53, 59
6, 436225, Note_off_c, 5, 53, 0
6, 437760, Note_on_c, 5, 48, 57
6, 439110, Note_off_c, 5, 48, 0
6, 440640, Note_on_c, 5, 50, 69
6, 441120, Note_off_c, 5, 50, 0
6, 441120, Note_on_c, 5, 52, 59
6, 441505, Note_off_c, 5, 52, 0
6, 442560, Note_on_c, 5, 41, 49
6, 442945, Note_off_c, 5, 41, 0
6, 443040, Note_on_c, 5, 43, 53
6, 443425, Note_off_c, 5, 43, 0
6, 443520, Note_on_c, 5, 45, 57
6, 443905, Note_off_c, 5, 45, 0
6, 444000, Note_on_c, 5, 46, 60
6, 444385, Note_off_c, 5, 46, 0
6, 444480, Note_on_c, 5, 48, 72
6, 444865, Note_off_c, 5, 48, 0
6, 445440, Note_on_c, 5, 48, 41
6, 446280, Note_off_c, 5, 48, 0
6, 446400, Note_on_c, 5, 53, 50
6, 447735, Note_off_c, 5, 53, 0
6, 447840, Note_on_c, 5, 41, 60
6, 447960, Note_off_c, 5, 41, 0
6, 447960, Note_on_c, 5, 53, 59
6, 448320, Note_on_c, 5, 40, 57
6, 448345, Note_off_c, 5, 53, 0
6, 448440, Note_off_c, 5, 40, 0
6, 448440, Note_on_c, 5, 52, 56
6, 448800, Note_on_c, 5, 38, 54
6, 448825, Note_off_c, 5, 52, 0
6, 448920, Note_off_c, 5, 38, 0
6, 448920, Note_on_c, 5, 50, 53
6, 449175, Note_off_c, 5, 50, 0
6, 449280, Note_on_c, 5, 36, 52
6, 449280, Note_on_c, 5, 48, 52
6, 450120, Note_off_c, 5, 36, 0
6, 450135, Note_off_c, 5, 48, 0
6, 450720, Note_on_c, 5, 60, 58
6, 451105, Note_off_c, 5, 60, 0
6, 451200, Note_on_c, 5, 60, 61
6, 451585, Note_off_c, 5, 60, 0
6, 451680, Note_on_c, 5, 60, 63
6, 452065, Note_off_c, 5, 60, 0
6, 452640, Note_on_c, 5, 62, 61
6, 453025, Note_off_c, 5, 62, 0
6, 453120, Note_on_c, 5, 62, 56
6, 453505, Note_off_c, 5, 62, 0
6, 453600, Note_on_c, 5, 62, 52
6, 453985, Note_off_c, 5, 62, 0
6, 454080, Note_on_c, 5, 62, 52
6, 454465, Note_off_c, 5, 62, 0
6, 454560, Note_on_c, 5, 62, 54
6, 454945, Note_off_c, 5, 62, 0
6, 455520, Note_on_c, 5, 55, 58
6, 455905, Note_off_c, 5, 55, 0
6, 456000, Note_on_c, 5, 55, 61
6, 456385, Note_off_c, 5, 55, 0
6, 456480, Note_on_c, 5, 55, 63
6, 456865, Note_off_c, 5, 55, 0
6, 456960, Note_on_c, 5, 55, 65
6, 457345, Note_off_c, 5, 55, 0
6, 457440, Note_on_c, 5, 55, 67
6, 457825, Note_off_c, 5, 55, 0
6, 458400, Note_on_c, 5, 48, 67
6, 458785, Note_off_c, 5, 48, 0
6, 458880, Note_on_c, 5, 48, 63
6, 459265, Note_off_c, 5, 48, 0
6, 459360, Note_on_c, 5, 48, 60
6, 459745, Note_off_c, 5, 48, 0
6, 459840, Note_on_c, 5, 40, 58
6, 460225, Note_off_c, 5, 40, 0
6, 460320, Note_on_c, 5, 52, 60
6, 460705, Note_off_c, 5, 52, 0
6, 460800, Note_on_c, 5, 41, 61
6, 461185, Note_off_c, 5, 41, 0
6, 461280, Note_on_c, 5, 53, 62
6, 461360, Note_off_c, 5, 53, 0
6, 461360, Note_on_c, 5, 55, 62
6, 461440, Note_off_c, 5, 55, 0
6, 461440, Note_on_c, 5, 53, 62
6, 461520, Note_off_c, 5, 53, 0
6, 461520, Note_on_c, 5, 55, 63
6, 461600, Note_off_c, 5, 55, 0
6, 461600, Note_on_c, 5, 53, 63
6, 461680, Note_off_c, 5, 53, 0
6, 461680, Note_on_c, 5, 52, 63
6, 461760, Note_off_c, 5, 52, 0
6, 461760, Note_on_c, 5, 53, 63
6, 462145, Note_off_c, 5, 53, 0
6, 462240, Note_on_c, 5, 54, 64
6, 462625, Note_off_c, 5, 54, 0
6, 462720, Note_on_c, 5, 55, 66
6, 463105, Note_off_c, 5, 55, 0
6, 463200, Note_on_c, 5, 43, 67
6, 463585, Note_off_c, 5, 43, 0
6, 463680, Note_on_c, 5, 45, 68
6, 464065, Note_off_c, 5, 45, 0
6, 464160, Note_on_c, 5, 57, 69
6, 464240, Note_off_c, 5, 57, 0
6, 464240, Note_on_c, 5, 58, 69
6, 464320, Note_off_c, 5, 58, 0
6, 464320, Note_on_c, 5, 57, 70
6, 464400, Note_off_c, 5, 57, 0
6, 464400, Note_on_c, 5, 58, 70
6, 464480, Note_off_c, 5, 58, 0
6, 464480, Note_on_c, 5, 57, 70
6, 464560, Note_off_c, 5, 57, 0
6, 464560, Note_on_c, 5, 56, 70
6, 464640, Note_off_c, 5, 56, 0
6, 464640, Note_on_c, 5, 57, 70
6, 465025, Note_off_c, 5, 57, 0
6, 465120, Note_on_c, 5, 45, 72
6, 465505, Note_off_c, 5, 45, 0
6, 465600, Note_on_c, 5, 40, 73
6, 465985, Note_off_c, 5, 40, 0
6, 466080, Note_on_c, 5, 52, 74
6, 466465, Note_off_c, 5, 52, 0
6, 466560, Note_on_c, 5, 53, 75
6, 466945, Note_off_c, 5, 53, 0
6, 467040, Note_on_c, 5, 53, 70
6, 467425, Note_off_c, 5, 53, 0
6, 467520, Note_on_c, 5, 55, 66
6, 467905, Note_off_c, 5, 55, 0
6, 468000, Note_on_c, 5, 55, 61
6, 468385, Note_off_c, 5, 55, 0
6, 468480, Note_on_c, 5, 55, 56
6, 468865, Note_off_c, 5, 55, 0
6, 468960, Note_on_c, 5, 55, 52
6, 469345, Note_off_c, 5, 55, 0
6, 469440, Note_on_c, 5, 60, 47
6, 469825, Note_off_c, 5, 60, 0
6, 469920, Note_on_c, 5, 48, 71
6, 470305, Note_off_c, 5, 48, 0
6, 470400, Note_on_c, 5, 60, 71
6, 470560, Note_off_c, 5, 60, 0
6, 470560, Note_on_c, 5, 62, 71
6, 470720, Note_off_c, 5, 62, 0
6, 470720, Note_on_c, 5, 60, 71
6, 470880, Note_off_c, 5, 60, 0
6, 470880, Note_on_c, 5, 58, 70
6, 471040, Note_off_c, 5, 58, 0
6, 471040, Note_on_c, 5, 60, 70
6, 471200, Note_off_c, 5, 60, 0
6, 471200, Note_on_c, 5, 58, 70
6, 471360, Note_off_c, 5, 58, 0
6, 471360, Note_on_c, 5, 57, 70
6, 471520, Note_off_c, 5, 57, 0
6, 471520, Note_on_c, 5, 58, 70
6, 471680, Note_off_c, 5, 58, 0
6, 471680, Note_on_c, 5, 57, 70
6, 471840, Note_off_c, 5, 57, 0
6, 471840, Note_on_c, 5, 55, 70
6, 472000, Note_off_c, 5, 55, 0
6, 472000, Note_on_c, 5, 57, 69
6, 472160, Note_off_c, 5, 57, 0
6, 472160, Note_on_c, 5, 55, 69
6, 472290, Note_off_c, 5, 55, 0
6, 472320, Note_on_c, 5, 54, 69
6, 472480, Note_off_c, 5, 54, 0
6, 472480, Note_on_c, 5, 55, 69
6, 472640, Note_off_c, 5, 55, 0
6, 472640, Note_on_c, 5, 54, 69
6, 472800, Note_off_c, 5, 54, 0
6, 472800, Note_on_c, 5, 50, 69
6, 472960, Note_off_c, 5, 50, 0
6, 472960, Note_on_c, 5, 52, 69
6, 473120, Note_off_c, 5, 52, 0
6, 473120, Note_on_c, 5, 50, 68
6, 473280, Note_off_c, 5, 50, 0
6, 473280, Note_on_c, 5, 58, 68
6, 473440, Note_off_c, 5, 58, 0
6, 473440, Note_on_c, 5, 60, 68
6, 473600, Note_off_c, 5, 60, 0
6, 473600, Note_on_c, 5, 58, 68
6, 473760, Note_off_c, 5, 58, 0
6, 473760, Note_on_c, 5, 57, 68
6, 473920, Note_off_c, 5, 57, 0
6, 473920, Note_on_c, 5, 58, 68
6, 474080, Note_off_c, 5, 58, 0
6, 474080, Note_on_c, 5, 57, 67
6, 474240, Note_off_c, 5, 57, 0
6, 474240, Note_on_c, 5, 55, 67
6, 474400, Note_off_c, 5, 55, 0
6, 474400, Note_on_c, 5, 57, 67
6, 474560, Note_off_c, 5, 57, 0
6, 474560, Note_on_c, 5, 55, 67
6, 474720, Note_off_c, 5, 55, 0
6, 474720, Note_on_c, 5, 53, 67
6, 474880, Note_off_c, 5, 53, 0
6, 474880, Note_on_c, 5, 55, 67
6, 475040, Note_off_c, 5, 55, 0
6, 475040, Note_on_c, 5, 53, 67
6, 475170, Note_off_c, 5, 53, 0
6, 475200, Note_on_c, 5, 52, 66
6, 475360, Note_off_c, 5, 52, 0
6, 475360, Note_on_c, 5, 53, 66
6, 475520, Note_off_c, 5, 53, 0
6, 475520, Note_on_c, 5, 52, 66
6, 475680, Note_off_c, 5, 52, 0
6, 475680, Note_on_c, 5, 48, 66
6, 475840, Note_off_c, 5, 48, 0
6, 475840, Note_on_c, 5, 50, 66
6, 476000, Note_off_c, 5, 50, 0
6, 476000, Note_on_c, 5, 48, 66
6, 476160, Note_off_c, 5, 48, 0
6, 476160, Note_on_c, 5, 57, 66
6, 476320, Note_off_c, 5, 57, 0
6, 476320, Note_on_c, 5, 58, 65
6, 476480, Note_off_c, 5, 58, 0
6, 476480, Note_on_c, 5, 57, 65
6, 476640, Note_off_c, 5, 57, 0
6, 476640, Note_on_c, 5, 55, 65
6, 476800, Note_off_c, 5, 55, 0
6, 476800, Note_on_c, 5, 57, 65
6, 476960, Note_off_c, 5, 57, 0
6, 476960, Note_on_c, 5, 55, 65
6, 477120, Note_off_c, 5, 55, 0
6, 477120, Note_on_c, 5, 53, 65
6, 477280, Note_off_c, 5, 53, 0
6, 477280, Note_on_c, 5, 55, 64
6, 477440, Note_off_c, 5, 55, 0
6, 477440, Note_on_c, 5, 53, 64
6, 477600, Note_off_c, 5, 53, 0
6, 477600, Note_on_c, 5, 52, 64
6, 477760, Note_off_c, 5, 52, 0
6, 477760, Note_on_c, 5, 53, 64
6, 477920, Note_off_c, 5, 53, 0
6, 477920, Note_on_c, 5, 52, 64
6, 478050, Note_off_c, 5, 52, 0
6, 478080, Note_on_c, 5, 50, 63
6, 478925, Note_off_c, 5, 50, 0
6, 479040, Note_on_c, 5, 52, 54
6, 479420, Note_off_c, 5, 52, 0
6, 479520, Note_on_c, 5, 48, 53
6, 480000, Note_off_c, 5, 48, 0
6, 480000, Note_on_c, 5, 50, 51
6, 480385, Note_off_c, 5, 50, 0
6, 480480, Note_on_c, 5, 46, 48
6, 480865, Note_off_c, 5, 46, 0
6, 480960, Note_on_c, 5, 48, 47
6, 481345, Note_off_c, 5, 48, 0
6, 481440, Note_on_c, 5, 60, 43
6, 482120, Note_off_c, 5, 60, 0
6, 482160, Note_on_c, 5, 48, 63
6, 482315, Note_off_c, 5, 48, 0
6, 482400, Note_on_c, 5, 57, 60
6, 482560, Note_off_c, 5, 57, 0
6, 482560, Note_on_c, 5, 58, 59
6, 482665, Note_off_c, 5, 58, 0
6, 482720, Note_on_c, 5, 46, 57
6, 482825, Note_off_c, 5, 46, 0
6, 482880, Note_on_c, 5, 56, 55
6, 483040, Note_off_c, 5, 56, 0
6, 483040, Note_on_c, 5, 57, 53
6, 483145, Note_off_c, 5, 57, 0
6, 483200, Note_on_c, 5, 45, 51
6, 483305, Note_off_c, 5, 45, 0
6, 483360, Note_on_c, 5, 54, 49
6, 483520, Note_off_c, 5, 54, 0
6, 483520, Note_on_c, 5, 55, 47
6, 483625, Note_off_c, 5, 55, 0
6, 483680, Note_on_c, 5, 43, 45
6, 483785, Note_off_c, 5, 43, 0
6, 483840, Note_on_c, 5, 41, 45
6, 484225, Note_off_c, 5, 41, 0
6, 484800, Note_on_c, 5, 53, 61
6, 486140, Note_off_c, 5, 53, 0
6, 487680, Note_on_c, 5, 57, 70
6, 489015, Note_off_c, 5, 57, 0
6, 490560, Note_on_c, 5, 53, 69
6, 491405, Note_off_c, 5, 53, 0
6, 491520, Note_on_c, 5, 57, 74
6, 492380, Note_off_c, 5, 57, 0
6, 492480, Note_on_c, 5, 55, 78
6, 492865, Note_off_c, 5, 55, 0
6, 492960, Note_on_c, 5, 60, 69
6, 493345, Note_off_c, 5, 60, 0
6, 493440, Note_on_c, 5, 53, 60
6, 493825, Note_off_c, 5, 53, 0
6, 494400, Note_on_c, 5, 57, 46
6, 494400, Note_on_c, 5, 45, 46
6, 494640, Note_off_c, 5, 45, 0
6, 494640, Note_off_c, 5, 57, 0
6, 494640, Note_on_c, 5, 46, 47
6, 494640, Note_on_c, 5, 58, 47
6, 494880, Note_off_c, 5, 58, 0
6, 494880, Note_off_c, 5, 46, 0
6, 494880, Note_on_c, 5, 59, 48
6, 494880, Note_on_c, 5, 47, 48
6, 495120, Note_off_c, 5, 47, 0
6, 495120, Note_off_c, 5, 59, 0
6, 495120, Note_on_c, 5, 60, 50
6, 495120, Note_on_c, 5, 48, 50
6, 495310, Note_off_c, 5, 48, 0
6, 495310, Note_off_c, 5, 60, 0
6, 495360, Note_on_c, 5, 41, 54
6, 495360, Note_on_c, 5, 53, 54
6, 496080, Note_off_c, 5, 53, 0
6, 496080, Note_off_c, 5, 41, 0
6, 496080, Note_on_c, 5, 55, 47
6, 496200, Note_off_c, 5, 55, 0
6, 496200, Note_on_c, 5, 53, 46
6, 496320, Note_off_c, 5, 53, 0
6, 496320, Note_on_c, 5, 40, 45
6, 496320, Note_on_c, 5, 52, 45
6, 496705, Note_off_c, 5, 52, 0
6, 496705, Note_off_c, 5, 40, 0
6, 497040, Note_on_c, 5, 64, 41
6, 497040, Note_on_c, 5, 52, 41
6, 497230, Note_off_c, 5, 52, 0
6, 497230, Note_off_c, 5, 64, 0
6, 497280, Note_on_c, 5, 55, 43
6, 497280, Note_on_c, 5, 67, 43
6, 497520, Note_off_c, 5, 67, 0
6, 497520, Note_off_c, 5, 55, 0
6, 497520, Note_on_c, 5, 65, 47
6, 497520, Note_on_c, 5, 53, 47
6, 497760, Note_off_c, 5, 53, 0
6, 497760, Note_off_c, 5, 65, 0
6, 497760, Note_on_c, 5, 64, 52
6, 497760, Note_on_c, 5, 52, 52
6, 498000, Note_off_c, 5, 52, 0
6, 498000, Note_off_c, 5, 64, 0
6, 498000, Note_on_c, 5, 62, 57
6, 498000, Note_on_c, 5, 50, 57
6, 498190, Note_off_c, 5, 50, 0
6, 498190, Note_off_c, 5, 62, 0
6, 498240, Note_on_c, 5, 60, 64
6, 498240, Note_on_c, 5, 48, 64
6, 498480, Note_off_c, 5, 48, 0
6, 498480, Note_off_c, 5, 60, 0
6, 498480, Note_on_c, 5, 59, 58
6, 498480, Note_on_c, 5, 47, 58
6, 498720, Note_off_c, 5, 47, 0
6, 498720, Note_off_c, 5, 59, 0
6, 498720, Note_on_c, 5, 58, 51
6, 498720, Note_on_c, 5, 46, 51
6, 499105, Note_off_c, 5, 46, 0
6, 499105, Note_off_c, 5, 58, 0
6, 499680, Note_on_c, 5, 45, 53
6, 500065, Note_off_c, 5, 45, 0
6, 500640, Note_on_c, 5, 47, 50
6, 501025, Note_off_c, 5, 47, 0
6, 501600, Note_on_c, 5, 48, 48
6, 501985, Note_off_c, 5, 48, 0
6, 502560, Note_on_c, 5, 48, 45
6, 502945, Note_off_c, 5, 48, 0
6, 503040, Note_on_c, 5, 48, 44
6, 503425, Note_off_c, 5, 48, 0
6, 503520, Note_on_c, 5, 48, 49
6, 503905, Note_off_c, 5, 48, 0
6, 504000, Note_on_c, 5, 53, 52
6, 505350, Note_off_c, 5, 53, 0
6, 506880, Note_on_c, 5, 48, 71
6, 508235, Note_off_c, 5, 48, 0
6, 509760, Note_on_c, 5, 36, 77
6, 509760, Note_on_c, 5, 48, 77
6, 510000, Note_off_c, 5, 48, 0
6, 510000, Note_off_c, 5, 36, 0
6, 510000, Note_on_c, 5, 38, 72
6, 510000, Note_on_c, 5, 50, 72
6, 510240, Note_off_c, 5, 50, 0
6, 510240, Note_off_c, 5, 38, 0
6, 510240, Note_on_c, 5, 52, 67
6, 510240, Note_on_c, 5, 40, 67
6, 510625, Note_off_c, 5, 40, 0
6, 510625, Note_off_c, 5, 52, 0
6, 511440, Note_on_c, 5, 52, 43
6, 511630, Note_off_c, 5, 52, 0
6, 511680, Note_on_c, 5, 53, 45
6, 512065, Note_off_c, 5, 53, 0
6, 512160, Note_on_c, 5, 55, 48
6, 512545, Note_off_c, 5, 55, 0
6, 512640, Note_on_c, 5, 57, 58
6, 513025, Note_off_c, 5, 57, 0
6, 513120, Note_on_c, 5, 46, 50
6, 513505, Note_off_c, 5, 46, 0
6, 513600, Note_on_c, 5, 48, 43
6, 513985, Note_off_c, 5, 48, 0
6, 514560, Note_on_c, 5, 48, 40
6, 515520, Note_off_c, 5, 48, 0
6, 515520, Note_on_c, 5, 53, 55
6, 515905, Note_off_c, 5, 53, 0
6, 517440, Note_on_c, 5, 48, 43
6, 518400, Note_off_c, 5, 48, 0
6, 518400, Note_on_c, 5, 53, 47
6, 518785, Note_off_c, 5, 53, 0
6, 520320, Note_on_c, 5, 48, 36
6, 521280, Note_off_c, 5, 48, 0
6, 521280, Note_on_c, 5, 53, 31
6, 521665, Note_off_c, 5, 53, 0
6, 522240, Note_on_c, 5, 33, 30
6, 522625, Note_off_c, 5, 33, 0
6, 523200, Note_on_c, 5, 36, 32
6, 523585, Note_off_c, 5, 36, 0
6, 524160, Note_on_c, 5, 41, 34
6, 526565, Note_off_c, 5, 41, 0
6, 527040, Control_c, 5, 64, 0
6, 528000, Control_c, 5, 64, 127
6, 528000, Note_on_c, 5, 60, 46
6, 528120, Note_off_c, 5, 60, 0
6, 528480, Note_on_c, 5, 60, 47
6, 528600, Note_off_c, 5, 60, 0
6, 528960, Note_on_c, 5, 60, 48
6, 529080, Note_off_c, 5, 60, 0
6, 529440, Note_on_c, 5, 60, 49
6, 529560, Note_off_c, 5, 60, 0
6, 529860, Control_c, 5, 64, 0
6, 529920, Control_c, 5, 64, 127
6, 529920, Note_on_c, 5, 60, 50
6, 530040, Note_off_c, 5, 60, 0
6, 530400, Note_on_c, 5, 60, 51
6, 530520, Note_off_c, 5, 60, 0
6, 530880, Note_on_c, 5, 60, 51
6, 531000, Note_off_c, 5, 60, 0
6, 531360, Note_on_c, 5, 60, 52
6, 531480, Note_off_c, 5, 60, 0
6, 531780, Control_c, 5, 64, 0
6, 531840, Control_c, 5, 64, 127
6, 531840, Note_on_c, 5, 60, 53
6, 531960, Note_off_c, 5, 60, 0
6, 532320, Note_on_c, 5, 60, 52
6, 532440, Note_off_c, 5, 60, 0
6, 532740, Control_c, 5, 64, 0
6, 532740, Control_c, 5, 64, 0
6, 532800, Control_c, 5, 64, 127
6, 532800, Note_on_c, 5, 59, 51
6, 532920, Note_off_c, 5, 59, 0
6, 533280, Note_on_c, 5, 59, 49
6, 533400, Note_off_c, 5, 59, 0
6, 533700, Control_c, 5, 64, 0
6, 533760, Note_on_c, 5, 60, 48
6, 533950, Note_off_c, 5, 60, 0
6, 534000, Note_on_c, 5, 64, 47
6, 534210, Note_off_c, 5, 64, 0
6, 534240, Note_on_c, 5, 62, 47
6, 534480, Note_off_c, 5, 62, 0
6, 534480, Note_on_c, 5, 60, 46
6, 534670, Note_off_c, 5, 60, 0
6, 534720, Note_on_c, 5, 55, 45
6, 535395, Note_off_c, 5, 55, 0
6, 535680, Control_c, 5, 64, 127
6, 535680, Note_on_c, 5, 60, 52
6, 535800, Note_off_c, 5, 60, 0
6, 536160, Note_on_c, 5, 60, 53
6, 536280, Note_off_c, 5, 60, 0
6, 536640, Note_on_c, 5, 60, 54
6, 536760, Note_off_c, 5, 60, 0
6, 537120, Note_on_c, 5, 60, 55
6, 537240, Note_off_c, 5, 60, 0
6, 537540, Control_c, 5, 64, 0
6, 537600, Control_c, 5, 64, 127
6, 537600, Note_on_c, 5, 60, 56
6, 537720, Note_off_c, 5, 60, 0
6, 538080, Note_on_c, 5, 60, 57
6, 538200, Note_off_c, 5, 60, 0
6, 538560, Note_on_c, 5, 60, 57
6, 538680, Note_off_c, 5, 60, 0
6, 539040, Note_on_c, 5, 60, 58
6, 539160, Note_off_c, 5, 60, 0
6, 539460, Control_c, 5, 64, 0
6, 539520, Control_c, 5, 64, 127
6, 539520, Note_on_c, 5, 60, 59
6, 539640, Note_off_c, 5, 60, 0
6, 539940, Control_c, 5, 64, 0
6, 540000, Control_c, 5, 64, 127
6, 540000, Note_on_c, 5, 61, 58
6, 540120, Note_off_c, 5, 61, 0
6, 540420, Control_c, 5, 64, 0
6, 540480, Control_c, 5, 64, 127
6, 540480, Note_on_c, 5, 62, 56
6, 540600, Note_off_c, 5, 62, 0
6, 540900, Control_c, 5, 64, 0
6, 540960, Control_c, 5, 64, 127
6, 540960, Note_on_c, 5, 59, 55
6, 541080, Note_off_c, 5, 59, 0
6, 541380, Control_c, 5, 64, 0
6, 541440, Note_on_c, 5, 60, 53
6, 541630, Note_off_c, 5, 60, 0
6, 541680, Note_on_c, 5, 53, 52
6, 541920, Note_off_c, 5, 53, 0
6, 541920, Note_on_c, 5, 55, 51
6, 542340, Control_c, 5, 64, 0
6, 542355, Note_off_c, 5, 55, 0
6, 542400, Control_c, 5, 64, 127
6, 542400, Note_on_c, 5, 60, 61
6, 542520, Note_off_c, 5, 60, 0
6, 542820, Control_c, 5, 64, 0
6, 542880, Control_c, 5, 64, 127
6, 542880, Note_on_c, 5, 61, 60
6, 543000, Note_off_c, 5, 61, 0
6, 543300, Control_c, 5, 64, 0
6, 543360, Control_c, 5, 64, 127
6, 543360, Note_on_c, 5, 62, 59
6, 543480, Note_off_c, 5, 62, 0
6, 543780, Control_c, 5, 64, 0
6, 543840, Control_c, 5, 64, 127
6, 543840, Note_on_c, 5, 59, 58
6, 543960, Note_off_c, 5, 59, 0
6, 544260, Control_c, 5, 64, 0
6, 544320, Note_on_c, 5, 60, 56
6, 544510, Note_off_c, 5, 60, 0
6, 544560, Note_on_c, 5, 53, 56
6, 544800, Note_off_c, 5, 53, 0
6, 544800, Note_on_c, 5, 55, 55
6, 545040, Note_on_c, 5, 59, 55
6, 545230, Note_off_c, 5, 59, 0
6, 545235, Note_off_c, 5, 55, 0
6, 545280, Note_on_c, 5, 60, 54
6, 545470, Note_off_c, 5, 60, 0
6, 545520, Note_on_c, 5, 43, 66
6, 545520, Note_on_c, 5, 55, 66
6, 545710, Note_off_c, 5, 55, 0
6, 545710, Note_off_c, 5, 43, 0
6, 545760, Note_on_c, 5, 40, 66
6, 545760, Note_on_c, 5, 52, 66
6, 545950, Note_off_c, 5, 52, 0
6, 545950, Note_off_c, 5, 40, 0
6, 546000, Note_on_c, 5, 36, 66
6, 546000, Note_on_c, 5, 48, 66
6, 546190, Note_off_c, 5, 48, 0
6, 546190, Note_off_c, 5, 36, 0
6, 546240, Note_on_c, 5, 43, 67
6, 546240, Note_on_c, 5, 55, 67
6, 546430, Note_off_c, 5, 55, 0
6, 546430, Note_off_c, 5, 43, 0
6, 546480, Note_on_c, 5, 55, 67
6, 546670, Note_off_c, 5, 55, 0
6, 546720, Note_on_c, 5, 55, 68
6, 546910, Note_off_c, 5, 55, 0
6, 546960, Note_on_c, 5, 55, 68
6, 547150, Note_off_c, 5, 55, 0
6, 547200, Note_on_c, 5, 60, 68
6, 547390, Note_off_c, 5, 60, 0
6, 547440, Note_on_c, 5, 55, 69
6, 547440, Note_on_c, 5, 43, 69
6, 547630, Note_off_c, 5, 43, 0
6, 547630, Note_off_c, 5, 55, 0
6, 547680, Note_on_c, 5, 52, 69
6, 547680, Note_on_c, 5, 40, 69
6, 547870, Note_off_c, 5, 40, 0
6, 547870, Note_off_c, 5, 52, 0
6, 547920, Note_on_c, 5, 48, 70
6, 547920, Note_on_c, 5, 36, 70
6, 548110, Note_off_c, 5, 36, 0
6, 548110, Note_off_c, 5, 48, 0
6, 548160, Note_on_c, 5, 43, 70
6, 548160, Note_on_c, 5, 55, 70
6, 548350, Note_off_c, 5, 55, 0
6, 548350, Note_off_c, 5, 43, 0
6, 548400, Note_on_c, 5, 55, 70
6, 548590, Note_off_c, 5, 55, 0
6, 548640, Note_on_c, 5, 55, 71
6, 548830, Note_off_c, 5, 55, 0
6, 548880, Note_on_c, 5, 55, 71
6, 549070, Note_off_c, 5, 55, 0
6, 549120, Note_on_c, 5, 60, 72
6, 549310, Note_off_c, 5, 60, 0
6, 549360, Note_on_c, 5, 43, 72
6, 549360, Note_on_c, 5, 55, 72
6, 549550, Note_off_c, 5, 55, 0
6, 549550, Note_off_c, 5, 43, 0
6, 549600, Note_on_c, 5, 40, 72
6, 549600, Note_on_c, 5, 52, 72
6, 549790, Note_off_c, 5, 52, 0
6, 549790, Note_off_c, 5, 40, 0
6, 549840, Note_on_c, 5, 36, 73
6, 549840, Note_on_c, 5, 48, 73
6, 550030, Note_off_c, 5, 48, 0
6, 550030, Note_off_c, 5, 36, 0
6, 550080, Note_on_c, 5, 53, 73
6, 550560, Note_off_c, 5, 53, 0
6, 550560, Note_on_c, 5, 52, 71
6, 551040, Note_off_c, 5, 52, 0
6, 551040, Note_on_c, 5, 57, 69
6, 551520, Note_off_c, 5, 57, 0
6, 551520, Note_on_c, 5, 55, 67
6, 551885, Note_off_c, 5, 55, 0
6, 552000, Note_on_c, 5, 53, 65
6, 552360, Note_off_c, 5, 53, 0
6, 552720, Note_on_c, 5, 53, 62
6, 552910, Note_off_c, 5, 53, 0
6, 552960, Note_on_c, 5, 55, 61
6, 553390, Note_off_c, 5, 55, 0
6, 553920, Note_on_c, 5, 43, 75
6, 554015, Note_off_c, 5, 43, 0
6, 554040, Note_on_c, 5, 48, 75
6, 554135, Note_off_c, 5, 48, 0
6, 554160, Note_on_c, 5, 52, 75
6, 554255, Note_off_c, 5, 52, 0
6, 554280, Note_on_c, 5, 55, 75
6, 554375, Note_off_c, 5, 55, 0
6, 554400, Note_on_c, 5, 55, 75
6, 554555, Note_off_c, 5, 55, 0
6, 554640, Note_on_c, 5, 55, 76
6, 554795, Note_off_c, 5, 55, 0
6, 554880, Note_on_c, 5, 60, 76
6, 555070, Note_off_c, 5, 60, 0
6, 555120, Note_on_c, 5, 48, 77
6, 555275, Note_off_c, 5, 48, 0
6, 555840, Note_on_c, 5, 43, 78
6, 555935, Note_off_c, 5, 43, 0
6, 555960, Note_on_c, 5, 48, 78
6, 556055, Note_off_c, 5, 48, 0
6, 556080, Note_on_c, 5, 52, 78
6, 556175, Note_off_c, 5, 52, 0
6, 556200, Note_on_c, 5, 55, 79
6, 556295, Note_off_c, 5, 55, 0
6, 556320, Note_on_c, 5, 55, 79
6, 556475, Note_off_c, 5, 55, 0
6, 556560, Note_on_c, 5, 55, 79
6, 556715, Note_off_c, 5, 55, 0
6, 556800, Note_on_c, 5, 60, 80
6, 556990, Note_off_c, 5, 60, 0
6, 557040, Note_on_c, 5, 48, 80
6, 557195, Note_off_c, 5, 48, 0
6, 557760, Note_on_c, 5, 53, 81
6, 558240, Note_off_c, 5, 53, 0
6, 558240, Note_on_c, 5, 52, 80
6, 558720, Note_off_c, 5, 52, 0
6, 558720, Note_on_c, 5, 57, 78
6, 559200, Note_off_c, 5, 57, 0
6, 559200, Note_on_c, 5, 55, 76
6, 559635, Note_off_c, 5, 55, 0
6, 559680, Note_on_c, 5, 52, 75
6, 559800, Note_off_c, 5, 52, 0
6, 559800, Note_on_c, 5, 53, 74
6, 559880, Note_off_c, 5, 53, 0
6, 559920, Note_on_c, 5, 53, 74
6, 560000, Note_off_c, 5, 53, 0
6, 560040, Note_on_c, 5, 53, 73
6, 560120, Note_off_c, 5, 53, 0
6, 560160, Note_on_c, 5, 51, 73
6, 560280, Note_off_c, 5, 51, 0
6, 560280, Note_on_c, 5, 52, 72
6, 560360, Note_off_c, 5, 52, 0
6, 560400, Note_on_c, 5, 52, 72
6, 560480, Note_off_c, 5, 52, 0
6, 560520, Note_on_c, 5, 52, 72
6, 560600, Note_off_c, 5, 52, 0
6, 560640, Note_on_c, 5, 49, 71
6, 560760, Note_off_c, 5, 49, 0
6, 560760, Note_on_c, 5, 50, 71
6, 560840, Note_off_c, 5, 50, 0
6, 560880, Note_on_c, 5, 50, 70
6, 560960, Note_off_c, 5, 50, 0
6, 561000, Note_on_c, 5, 50, 70
6, 561080, Note_off_c, 5, 50, 0
6, 561120, Note_on_c, 5, 47, 69
6, 561240, Note_off_c, 5, 47, 0
6, 561240, Note_on_c, 5, 48, 69
6, 561320, Note_off_c, 5, 48, 0
6, 561360, Note_on_c, 5, 48, 69
6, 561440, Note_off_c, 5, 48, 0
6, 561480, Note_on_c, 5, 48, 68
6, 561560, Note_off_c, 5, 48, 0
6, 561600, Note_on_c, 5, 53, 68
6, 563040, Note_off_c, 5, 53, 0
6, 563040, Note_on_c, 5, 54, 77
6, 563230, Note_off_c, 5, 54, 0
6, 563760, Note_on_c, 5, 55, 54
6, 563950, Note_off_c, 5, 55, 0
6, 564000, Note_on_c, 5, 55, 51
6, 564190, Note_off_c, 5, 55, 0
6, 564240, Note_on_c, 5, 55, 49
6, 564430, Note_off_c, 5, 55, 0
6, 564480, Note_on_c, 5, 55, 46
6, 564670, Note_off_c, 5, 55, 0
6, 564720, Note_on_c, 5, 67, 64
6, 564960, Note_off_c, 5, 67, 0
6, 564960, Note_on_c, 5, 69, 66
6, 565200, Note_off_c, 5, 69, 0
6, 565200, Note_on_c, 5, 66, 68
6, 565390, Note_off_c, 5, 66, 0
6, 565440, Note_on_c, 5, 67, 77
6, 565630, Note_off_c, 5, 67, 0
6, 567600, Note_on_c, 5, 55, 69
6, 567790, Note_off_c, 5, 55, 0
6, 567840, Note_on_c, 5, 55, 67
6, 568030, Note_off_c, 5, 55, 0
6, 568080, Note_on_c, 5, 55, 65
6, 568270, Note_off_c, 5, 55, 0
6, 568560, Note_on_c, 5, 55, 55
6, 568750, Note_off_c, 5, 55, 0
6, 568800, Note_on_c, 5, 55, 52
6, 568990, Note_off_c, 5, 55, 0
6, 569040, Note_on_c, 5, 55, 50
6, 569230, Note_off_c, 5, 55, 0
6, 569280, Note_on_c, 5, 54, 75
6, 569470, Note_off_c, 5, 54, 0
6, 571440, Note_on_c, 5, 55, 66
6, 571630, Note_off_c, 5, 55, 0
6, 571680, Note_on_c, 5, 55, 63
6, 571870, Note_off_c, 5, 55, 0
6, 571920, Note_on_c, 5, 55, 60
6, 572110, Note_off_c, 5, 55, 0
6, 572400, Note_on_c, 5, 55, 49
6, 572590, Note_off_c, 5, 55, 0
6, 572640, Note_on_c, 5, 55, 47
6, 572830, Note_off_c, 5, 55, 0
6, 572880, Note_on_c, 5, 55, 44
6, 573070, Note_off_c, 5, 55, 0
6, 573120, Note_on_c, 5, 47, 77
6, 573540, Note_off_c, 5, 47, 0
6, 574080, Note_on_c, 5, 48, 73
6, 574490, Note_off_c, 5, 48, 0
6, 575040, Note_on_c, 5, 57, 70
6, 575110, Note_off_c, 5, 57, 0
6, 575120, Note_on_c, 5, 60, 69
6, 575190, Note_off_c, 5, 60, 0
6, 575200, Note_on_c, 5, 59, 69
6, 575270, Note_off_c, 5, 59, 0
6, 575280, Note_on_c, 5, 57, 69
6, 575350, Note_off_c, 5, 57, 0
6, 575360, Note_on_c, 5, 55, 68
6, 575430, Note_off_c, 5, 55, 0
6, 575440, Note_on_c, 5, 54, 68
6, 575510, Note_off_c, 5, 54, 0
6, 575520, Note_on_c, 5, 52, 68
6, 575590, Note_off_c, 5, 52, 0
6, 575600, Note_on_c, 5, 55, 67
6, 575670, Note_off_c, 5, 55, 0
6, 575680, Note_on_c, 5, 54, 67
6, 575750, Note_off_c, 5, 54, 0
6, 575760, Note_on_c, 5, 57, 67
6, 575830, Note_off_c, 5, 57, 0
6, 575840, Note_on_c, 5, 49, 66
6, 575910, Note_off_c, 5, 49, 0
6, 575920, Note_on_c, 5, 52, 66
6, 575990, Note_off_c, 5, 52, 0
6, 576000, Note_on_c, 5, 50, 67
6, 576070, Note_off_c, 5, 50, 0
6, 576080, Note_on_c, 5, 52, 66
6, 576150, Note_off_c, 5, 52, 0
6, 576160, Note_on_c, 5, 49, 66
6, 576230, Note_off_c, 5, 49, 0
6, 576240, Note_on_c, 5, 50, 65
6, 576310, Note_off_c, 5, 50, 0
6, 576320, Note_on_c, 5, 52, 65
6, 576390, Note_off_c, 5, 52, 0
6, 576400, Note_on_c, 5, 49, 64
6, 576470, Note_off_c, 5, 49, 0
6, 576480, Note_on_c, 5, 50, 63
6, 576550, Note_off_c, 5, 50, 0
6, 576560, Note_on_c, 5, 52, 63
6, 576630, Note_off_c, 5, 52, 0
6, 576640, Note_on_c, 5, 49, 62
6, 576710, Note_off_c, 5, 49, 0
6, 576720, Note_on_c, 5, 50, 62
6, 576790, Note_off_c, 5, 50, 0
6, 576800, Note_on_c, 5, 52, 61
6, 576870, Note_off_c, 5, 52, 0
6, 576880, Note_on_c, 5, 49, 60
6, 576950, Note_off_c, 5, 49, 0
6, 576960, Note_on_c, 5, 50, 60
6, 577105, Note_off_c, 5, 50, 0
6, 577920, Note_on_c, 5, 62, 43
6, 578160, Note_off_c, 5, 62, 0
6, 578160, Note_on_c, 5, 63, 44
6, 578400, Note_off_c, 5, 63, 0
6, 578400, Note_on_c, 5, 62, 45
6, 578640, Note_off_c, 5, 62, 0
6, 578640, Note_on_c, 5, 63, 46
6, 578880, Note_off_c, 5, 63, 0
6, 578880, Note_on_c, 5, 62, 47
6, 579120, Note_off_c, 5, 62, 0
6, 579120, Note_on_c, 5, 63, 48
6, 579360, Note_off_c, 5, 63, 0
6, 579360, Note_on_c, 5, 62, 49
6, 579600, Note_off_c, 5, 62, 0
6, 579600, Note_on_c, 5, 63, 50
6, 579815, Note_off_c, 5, 63, 0
6, 579840, Note_on_c, 5, 62, 51
6, 580080, Note_off_c, 5, 62, 0
6, 580080, Note_on_c, 5, 63, 52
6, 580320, Note_off_c, 5, 63, 0
6, 580320, Note_on_c, 5, 62, 53
6, 580560, Note_off_c, 5, 62, 0
6, 580560, Note_on_c, 5, 63, 54
6, 580800, Note_off_c, 5, 63, 0
6, 580800, Note_on_c, 5, 62, 55
6, 581040, Note_off_c, 5, 62, 0
6, 581040, Note_on_c, 5, 63, 56
6, 581280, Note_off_c, 5, 63, 0
6, 581280, Note_on_c, 5, 62, 57
6, 581520, Note_off_c, 5, 62, 0
6, 581520, Note_on_c, 5, 63, 58
6, 581745, Note_off_c, 5, 63, 0
6, 581760, Note_on_c, 5, 62, 59
6, 582000, Note_off_c, 5, 62, 0
6, 582000, Note_on_c, 5, 63, 60
6, 582240, Note_off_c, 5, 63, 0
6, 582240, Note_on_c, 5, 62, 61
6, 582480, Note_off_c, 5, 62, 0
6, 582480, Note_on_c, 5, 60, 62
6, 582695, Note_off_c, 5, 60, 0
6, 582720, Note_on_c, 5, 59, 63
6, 582720, Note_on_c, 5, 67, 63
6, 582960, Note_off_c, 5, 67, 0
6, 582960, Note_off_c, 5, 59, 0
6, 583200, Note_on_c, 5, 67, 65
6, 583200, Note_on_c, 5, 71, 65
6, 583355, Note_off_c, 5, 71, 0
6, 583355, Note_off_c, 5, 67, 0
6, 583440, Note_on_c, 5, 66, 66
6, 583440, Note_on_c, 5, 72, 66
6, 583595, Note_off_c, 5, 72, 0
6, 583595, Note_off_c, 5, 66, 0
6, 583680, Note_on_c, 5, 67, 67
6, 583680, Note_on_c, 5, 71, 67
6, 583835, Note_off_c, 5, 71, 0
6, 583835, Note_off_c, 5, 67, 0
6, 584160, Note_on_c, 5, 55, 69
6, 584160, Note_on_c, 5, 59, 69
6, 584315, Note_off_c, 5, 59, 0
6, 584315, Note_off_c, 5, 55, 0
6, 584400, Note_on_c, 5, 54, 70
6, 584400, Note_on_c, 5, 60, 70
6, 584555, Note_off_c, 5, 60, 0
6, 584555, Note_off_c, 5, 54, 0
6, 584640, Note_on_c, 5, 55, 71
6, 584640, Note_on_c, 5, 59, 71
6, 584795, Note_off_c, 5, 59, 0
6, 584795, Note_off_c, 5, 55, 0
6, 585120, Note_on_c, 5, 67, 73
6, 585120, Note_on_c, 5, 71, 73
6, 585200, Note_off_c, 5, 71, 0
6, 585200, Note_off_c, 5, 67, 0
6, 585240, Note_on_c, 5, 67, 74
6, 585240, Note_on_c, 5, 71, 74
6, 585320, Note_off_c, 5, 71, 0
6, 585320, Note_off_c, 5, 67, 0
6, 585360, Note_on_c, 5, 66, 74
6, 585360, Note_on_c, 5, 72, 74
6, 585440, Note_off_c, 5, 72, 0
6, 585440, Note_off_c, 5, 66, 0
6, 585480, Note_on_c, 5, 66, 75
6, 585480, Note_on_c, 5, 72, 75
6, 585560, Note_off_c, 5, 72, 0
6, 585560, Note_off_c, 5, 66, 0
6, 585600, Note_on_c, 5, 71, 75
6, 585600, Note_on_c, 5, 67, 75
6, 585755, Note_off_c, 5, 67, 0
6, 585755, Note_off_c, 5, 71, 0
6, 586080, Note_on_c, 5, 55, 77
6, 586080, Note_on_c, 5, 59, 77
6, 586160, Note_off_c, 5, 59, 0
6, 586160, Note_off_c, 5, 55, 0
6, 586200, Note_on_c, 5, 55, 78
6, 586200, Note_on_c, 5, 59, 78
6, 586280, Note_off_c, 5, 59, 0
6, 586280, Note_off_c, 5, 55, 0
6, 586320, Note_on_c, 5, 54, 78
6, 586320, Note_on_c, 5, 60, 78
6, 586400, Note_off_c, 5, 60, 0
6, 586400, Note_off_c, 5, 54, 0
6, 586440, Note_on_c, 5, 54, 79
6, 586440, Note_on_c, 5, 60, 79
6, 586520, Note_off_c, 5, 60, 0
6, 586520, Note_off_c, 5, 54, 0
6, 586560, Note_on_c, 5, 55, 80
6, 586560, Note_on_c, 5, 59, 80
6, 586715, Note_off_c, 5, 59, 0
6, 586715, Note_off_c, 5, 55, 0
6, 587520, Note_on_c, 5, 48, 75
6, 587675, Note_off_c, 5, 48, 0
6, 588480, Note_on_c, 5, 38, 71
6, 588480, Note_on_c, 5, 50, 71
6, 588670, Note_off_c, 5, 50, 0
6, 588670, Note_off_c, 5, 38, 0
6, 588960, Note_on_c, 5, 39, 67
6, 588960, Note_on_c, 5, 51, 67
6, 589150, Note_off_c, 5, 51, 0
6, 589150, Note_off_c, 5, 39, 0
6, 589440, Note_on_c, 5, 40, 62
6, 589440, Note_on_c, 5, 52, 62
6, 589630, Note_off_c, 5, 52, 0
6, 589630, Note_off_c, 5, 40, 0
6, 590640, Note_on_c, 5, 61, 50
6, 590830, Note_off_c, 5, 61, 0
6, 590880, Note_on_c, 5, 61, 50
6, 591070, Note_off_c, 5, 61, 0
6, 591120, Note_on_c, 5, 61, 49
6, 591310, Note_off_c, 5, 61, 0
6, 591600, Note_on_c, 5, 62, 48
6, 591790, Note_off_c, 5, 62, 0
6, 591840, Note_on_c, 5, 62, 47
6, 592030, Note_off_c, 5, 62, 0
6, 592080, Note_on_c, 5, 62, 46
6, 592270, Note_off_c, 5, 62, 0
6, 592560, Note_on_c, 5, 62, 45
6, 592750, Note_off_c, 5, 62, 0
6, 592800, Note_on_c, 5, 62, 45
6, 592990, Note_off_c, 5, 62, 0
6, 593040, Note_on_c, 5, 62, 44
6, 593230, Note_off_c, 5, 62, 0
6, 593760, Note_on_c, 5, 70, 54
6, 593760, Note_on_c, 5, 67, 54
6, 593915, Note_off_c, 5, 67, 0
6, 593915, Note_off_c, 5, 70, 0
6, 594000, Note_on_c, 5, 72, 55
6, 594000, Note_on_c, 5, 66, 55
6, 594155, Note_off_c, 5, 66, 0
6, 594155, Note_off_c, 5, 72, 0
6, 594240, Note_on_c, 5, 70, 57
6, 594240, Note_on_c, 5, 67, 57
6, 594395, Note_off_c, 5, 67, 0
6, 594395, Note_off_c, 5, 70, 0
6, 594720, Note_on_c, 5, 58, 59
6, 594720, Note_on_c, 5, 55, 59
6, 594875, Note_off_c, 5, 55, 0
6, 594875, Note_off_c, 5, 58, 0
6, 594960, Note_on_c, 5, 54, 60
6, 594960, Note_on_c, 5, 60, 60
6, 595115, Note_off_c, 5, 60, 0
6, 595115, Note_off_c, 5, 54, 0
6, 595200, Note_on_c, 5, 58, 62
6, 595200, Note_on_c, 5, 55, 62
6, 595355, Note_off_c, 5, 55, 0
6, 595355, Note_off_c, 5, 58, 0
6, 595680, Note_on_c, 5, 67, 64
6, 595680, Note_on_c, 5, 71, 64
6, 595760, Note_off_c, 5, 71, 0
6, 595760, Note_off_c, 5, 67, 0
6, 595800, Note_on_c, 5, 67, 65
6, 595800, Note_on_c, 5, 71, 65
6, 595880, Note_off_c, 5, 71, 0
6, 595880, Note_off_c, 5, 67, 0
6, 595920, Note_on_c, 5, 72, 65
6, 595920, Note_on_c, 5, 66, 65
6, 596000, Note_off_c, 5, 66, 0
6, 596000, Note_off_c, 5, 72, 0
6, 596040, Note_on_c, 5, 66, 66
6, 596040, Note_on_c, 5, 72, 66
6, 596120, Note_off_c, 5, 72, 0
6, 596120, Note_off_c, 5, 66, 0
6, 596160, Note_on_c, 5, 71, 66
6, 596160, Note_on_c, 5, 67, 66
6, 596315, Note_off_c, 5, 67, 0
6, 596315, Note_off_c, 5, 71, 0
6, 596640, Note_on_c, 5, 55, 69
6, 596640, Note_on_c, 5, 59, 69
6, 596720, Note_off_c, 5, 59, 0
6, 596720, Note_off_c, 5, 55, 0
6, 596760, Note_on_c, 5, 59, 69
6, 596760, Note_on_c, 5, 55, 69
6, 596840, Note_off_c, 5, 55, 0
6, 596840, Note_off_c, 5, 59, 0
6, 596880, Note_on_c, 5, 54, 70
6, 596880, Note_on_c, 5, 60, 70
6, 596960, Note_off_c, 5, 60, 0
6, 596960, Note_off_c, 5, 54, 0
6, 597000, Note_on_c, 5, 54, 71
6, 597000, Note_on_c, 5, 60, 71
6, 597080, Note_off_c, 5, 60, 0
6, 597080, Note_off_c, 5, 54, 0
6, 597120, Note_on_c, 5, 55, 71
6, 597120, Note_on_c, 5, 59, 71
6, 597275, Note_off_c, 5, 59, 0
6, 597275, Note_off_c, 5, 55, 0
6, 597360, Note_on_c, 5, 47, 82
6, 598020, Note_off_c, 5, 47, 0
6, 598080, Note_on_c, 5, 48, 76
6, 598235, Note_off_c, 5, 48, 0
6, 598320, Note_on_c, 5, 49, 89
6, 598985, Note_off_c, 5, 49, 0
6, 599040, Note_on_c, 5, 50, 83
6, 599195, Note_off_c, 5, 50, 0
6, 599600, Note_on_c, 5, 59, 80
6, 599680, Note_off_c, 5, 59, 0
6, 599680, Note_on_c, 5, 55, 79
6, 599760, Note_off_c, 5, 55, 0
6, 599760, Note_on_c, 5, 50, 79
6, 599840, Note_off_c, 5, 50, 0
6, 599840, Note_on_c, 5, 47, 78
6, 599920, Note_off_c, 5, 47, 0
6, 599920, Note_on_c, 5, 43, 78
6, 600000, Note_off_c, 5, 43, 0
6, 600000, Note_on_c, 5, 38, 77
6, 600190, Note_off_c, 5, 38, 0
6, 600480, Note_on_c, 5, 50, 72
6, 600480, Note_on_c, 5, 62, 72
6, 600670, Note_off_c, 5, 62, 0
6, 600670, Note_off_c, 5, 50, 0
6, 600960, Note_on_c, 5, 43, 68
6, 600960, Note_on_c, 5, 55, 68
6, 601150, Note_off_c, 5, 55, 0
6, 601150, Note_off_c, 5, 43, 0
6, 603120, Note_on_c, 5, 54, 44
6, 603310, Note_off_c, 5, 54, 0
6, 603600, Note_on_c, 5, 55, 45
6, 603790, Note_off_c, 5, 55, 0
6, 603840, Note_on_c, 5, 48, 47
6, 604225, Note_off_c, 5, 48, 0
6, 604560, Note_on_c, 5, 50, 40
6, 604750, Note_off_c, 5, 50, 0
6, 604800, Note_on_c, 5, 55, 37
6, 604955, Note_off_c, 5, 55, 0
6, 605040, Note_on_c, 5, 43, 35
6, 605195, Note_off_c, 5, 43, 0
6, 606960, Note_on_c, 5, 63, 50
6, 607150, Note_off_c, 5, 63, 0
6, 607440, Note_on_c, 5, 64, 52
6, 607630, Note_off_c, 5, 64, 0
6, 607680, Note_on_c, 5, 60, 55
6, 608065, Note_off_c, 5, 60, 0
6, 608400, Note_on_c, 5, 62, 50
6, 608590, Note_off_c, 5, 62, 0
6, 608640, Note_on_c, 5, 67, 48
6, 608830, Note_off_c, 5, 67, 0
6, 608880, Note_on_c, 5, 50, 66
6, 608880, Note_on_c, 5, 62, 66
6, 609120, Note_off_c, 5, 62, 0
6, 609120, Note_off_c, 5, 50, 0
6, 609120, Note_on_c, 5, 47, 66
6, 609120, Note_on_c, 5, 59, 66
6, 609360, Note_off_c, 5, 59, 0
6, 609360, Note_off_c, 5, 47, 0
6, 609360, Note_on_c, 5, 43, 67
6, 609360, Note_on_c, 5, 55, 67
6, 609550, Note_off_c, 5, 55, 0
6, 609550, Note_off_c, 5, 43, 0
6, 609840, Note_on_c, 5, 59, 69
6, 609840, Note_on_c, 5, 47, 69
6, 610080, Note_off_c, 5, 47, 0
6, 610080, Note_off_c, 5, 59, 0
6, 610080, Note_on_c, 5, 55, 69
6, 610080, Note_on_c, 5, 43, 69
6, 610320, Note_off_c, 5, 43, 0
6, 610320, Note_off_c, 5, 55, 0
6, 610320, Note_on_c, 5, 50, 70
6, 610320, Note_on_c, 5, 38, 70
6, 610510, Note_off_c, 5, 38, 0
6, 610510, Note_off_c, 5, 50, 0
6, 610800, Note_on_c, 5, 41, 72
6, 610800, Note_on_c, 5, 53, 72
6, 611040, Note_off_c, 5, 53, 0
6, 611040, Note_off_c, 5, 41, 0
6, 611040, Note_on_c, 5, 38, 73
6, 611040, Note_on_c, 5, 50, 73
6, 611280, Note_off_c, 5, 50, 0
6, 611280, Note_off_c, 5, 38, 0
6, 611280, Note_on_c, 5, 47, 73
6, 611280, Note_on_c, 5, 35, 73
6, 611470, Note_off_c, 5, 35, 0
6, 611470, Note_off_c, 5, 47, 0
6, 611760, Note_on_c, 5, 50, 75
6, 611760, Note_on_c, 5, 38, 75
6, 612000, Note_off_c, 5, 38, 0
6, 612000, Note_off_c, 5, 50, 0
6, 612000, Note_on_c, 5, 47, 76
6, 612000, Note_on_c, 5, 35, 76
6, 612240, Note_off_c, 5, 35, 0
6, 612240, Note_off_c, 5, 47, 0
6, 612240, Note_on_c, 5, 43, 77
6, 612240, Note_on_c, 5, 31, 77
6, 612430, Note_off_c, 5, 31, 0
6, 612430, Note_off_c, 5, 43, 0
6, 612480, Note_on_c, 5, 55, 77
6, 612480, Note_on_c, 5, 43, 77
6, 612895, Note_off_c, 5, 43, 0
6, 612900, Note_off_c, 5, 55, 0
6, 613200, Note_on_c, 5, 55, 53
6, 613390, Note_off_c, 5, 55, 0
6, 613440, Note_on_c, 5, 55, 54
6, 613825, Note_off_c, 5, 55, 0
6, 614160, Note_on_c, 5, 55, 56
6, 614350, Note_off_c, 5, 55, 0
6, 614400, Note_on_c, 5, 55, 57
6, 614785, Note_off_c, 5, 55, 0
6, 615120, Note_on_c, 5, 55, 59
6, 615310, Note_off_c, 5, 55, 0
6, 615360, Note_on_c, 5, 55, 59
6, 615745, Note_off_c, 5, 55, 0
6, 616260, Control_c, 5, 64, 0
6, 616320, Control_c, 5, 64, 127
6, 616320, Note_on_c, 5, 60, 40
6, 616440, Note_off_c, 5, 60, 0
6, 616800, Note_on_c, 5, 60, 41
6, 616920, Note_off_c, 5, 60, 0
6, 617280, Note_on_c, 5, 60, 42
6, 617400, Note_off_c, 5, 60, 0
6, 617760, Note_on_c, 5, 60, 43
6, 617880, Note_off_c, 5, 60, 0
6, 618180, Control_c, 5, 64, 0
6, 618240, Control_c, 5, 64, 127
6, 618240, Note_on_c, 5, 60, 44
6, 618360, Note_off_c, 5, 60, 0
6, 618720, Note_on_c, 5, 60, 46
6, 618840, Note_off_c, 5, 60, 0
6, 619200, Note_on_c, 5, 60, 47
6, 619320, Note_off_c, 5, 60, 0
6, 619680, Note_on_c, 5, 60, 48
6, 619800, Note_off_c, 5, 60, 0
6, 620100, Control_c, 5, 64, 0
6, 620160, Control_c, 5, 64, 127
6, 620160, Note_on_c, 5, 60, 49
6, 620280, Note_off_c, 5, 60, 0
6, 620640, Note_on_c, 5, 60, 48
6, 620760, Note_off_c, 5, 60, 0
6, 621060, Control_c, 5, 64, 0
6, 621120, Control_c, 5, 64, 127
6, 621120, Note_on_c, 5, 59, 46
6, 621240, Note_off_c, 5, 59, 0
6, 621600, Note_on_c, 5, 59, 45
6, 621720, Note_off_c, 5, 59, 0
6, 622020, Control_c, 5, 64, 0
6, 622080, Note_on_c, 5, 60, 43
6, 622270, Note_off_c, 5, 60, 0
6, 622320, Note_on_c, 5, 64, 42
6, 622510, Note_off_c, 5, 64, 0
6, 622560, Note_on_c, 5, 62, 42
6, 622800, Note_off_c, 5, 62, 0
6, 622800, Note_on_c, 5, 60, 41
6, 622990, Note_off_c, 5, 60, 0
6, 623040, Note_on_c, 5, 55, 40
6, 623715, Note_off_c, 5, 55, 0
6, 623940, Control_c, 5, 64, 0
6, 624000, Control_c, 5, 64, 127
6, 624000, Note_on_c, 5, 60, 53
6, 624120, Note_off_c, 5, 60, 0
6, 624480, Note_on_c, 5, 60, 53
6, 624600, Note_off_c, 5, 60, 0
6, 624960, Note_on_c, 5, 60, 54
6, 625080, Note_off_c, 5, 60, 0
6, 625440, Note_on_c, 5, 60, 55
6, 625560, Note_off_c, 5, 60, 0
6, 625860, Control_c, 5, 64, 0
6, 625920, Control_c, 5, 64, 127
6, 625920, Note_on_c, 5, 60, 56
6, 626040, Note_off_c, 5, 60, 0
6, 626400, Note_on_c, 5, 60, 57
6, 626520, Note_off_c, 5, 60, 0
6, 626880, Note_on_c, 5, 60, 57
6, 627000, Note_off_c, 5, 60, 0
6, 627360, Note_on_c, 5, 60, 58
6, 627480, Note_off_c, 5, 60, 0
6, 627780, Control_c, 5, 64, 0
6, 627840, Control_c, 5, 64, 127
6, 627840, Note_on_c, 5, 60, 59
6, 627960, Note_off_c, 5, 60, 0
6, 628260, Control_c, 5, 64, 0
6, 628320, Control_c, 5, 64, 127
6, 628320, Note_on_c, 5, 61, 57
6, 628440, Note_off_c, 5, 61, 0
6, 628740, Control_c, 5, 64, 0
6, 628800, Control_c, 5, 64, 127
6, 628800, Note_on_c, 5, 62, 55
6, 628920, Note_off_c, 5, 62, 0
6, 629220, Control_c, 5, 64, 0
6, 629280, Control_c, 5, 64, 127
6, 629280, Note_on_c, 5, 59, 53
6, 629400, Note_off_c, 5, 59, 0
6, 629700, Control_c, 5, 64, 0
6, 629760, Note_on_c, 5, 60, 51
6, 629950, Note_off_c, 5, 60, 0
6, 630000, Note_on_c, 5, 53, 50
6, 630240, Note_off_c, 5, 53, 0
6, 630240, Note_on_c, 5, 55, 49
6, 630660, Control_c, 5, 64, 0
6, 630665, Note_off_c, 5, 55, 0
6, 630720, Control_c, 5, 64, 127
6, 630720, Note_on_c, 5, 48, 71
6, 630840, Note_off_c, 5, 48, 0
6, 631140, Control_c, 5, 64, 0
6, 631200, Control_c, 5, 64, 127
6, 631200, Note_on_c, 5, 49, 70
6, 631320, Note_off_c, 5, 49, 0
6, 631620, Control_c, 5, 64, 0
6, 631680, Control_c, 5, 64, 127
6, 631680, Note_on_c, 5, 50, 69
6, 631800, Note_off_c, 5, 50, 0
6, 632100, Control_c, 5, 64, 0
6, 632160, Control_c, 5, 64, 127
6, 632160, Note_on_c, 5, 47, 67
6, 632280, Note_off_c, 5, 47, 0
6, 632400, Note_on_c, 5, 50, 67
6, 632520, Note_off_c, 5, 50, 0
6, 632580, Control_c, 5, 64, 0
6, 632640, Note_on_c, 5, 48, 66
6, 632880, Note_off_c, 5, 48, 0
6, 633360, Note_on_c, 5, 55, 64
6, 633570, Note_off_c, 5, 55, 0
6, 633600, Note_on_c, 5, 60, 68
6, 633840, Note_off_c, 5, 60, 0
6, 634080, Note_on_c, 5, 64, 69
6, 634080, Note_on_c, 5, 67, 69
6, 634235, Note_off_c, 5, 67, 0
6, 634235, Note_off_c, 5, 64, 0
6, 634320, Note_on_c, 5, 69, 69
6, 634320, Note_on_c, 5, 65, 69
6, 634475, Note_off_c, 5, 65, 0
6, 634475, Note_off_c, 5, 69, 0
6, 634560, Note_on_c, 5, 70, 70
6, 634560, Note_on_c, 5, 67, 70
6, 634715, Note_off_c, 5, 67, 0
6, 634715, Note_off_c, 5, 70, 0
6, 635040, Note_on_c, 5, 52, 71
6, 635040, Note_on_c, 5, 55, 71
6, 635195, Note_off_c, 5, 55, 0
6, 635195, Note_off_c, 5, 52, 0
6, 635280, Note_on_c, 5, 57, 72
6, 635280, Note_on_c, 5, 53, 72
6, 635435, Note_off_c, 5, 53, 0
6, 635435, Note_off_c, 5, 57, 0
6, 635520, Note_on_c, 5, 55, 72
6, 635520, Note_on_c, 5, 58, 72
6, 635675, Note_off_c, 5, 58, 0
6, 635675, Note_off_c, 5, 55, 0
6, 636000, Note_on_c, 5, 64, 74
6, 636000, Note_on_c, 5, 67, 74
6, 636080, Note_off_c, 5, 67, 0
6, 636080, Note_off_c, 5, 64, 0
6, 636120, Note_on_c, 5, 64, 74
6, 636120, Note_on_c, 5, 67, 74
6, 636200, Note_off_c, 5, 67, 0
6, 636200, Note_off_c, 5, 64, 0
6, 636240, Note_on_c, 5, 65, 74
6, 636240, Note_on_c, 5, 69, 74
6, 636320, Note_off_c, 5, 69, 0
6, 636320, Note_off_c, 5, 65, 0
6, 636360, Note_on_c, 5, 65, 75
6, 636360, Note_on_c, 5, 69, 75
6, 636440, Note_off_c, 5, 69, 0
6, 636440, Note_off_c, 5, 65, 0
6, 636480, Note_on_c, 5, 70, 75
6, 636480, Note_on_c, 5, 67, 75
6, 636635, Note_off_c, 5, 67, 0
6, 636635, Note_off_c, 5, 70, 0
6, 636960, Note_on_c, 5, 55, 76
6, 636960, Note_on_c, 5, 52, 76
6, 637040, Note_off_c, 5, 52, 0
6, 637040, Note_off_c, 5, 55, 0
6, 637080, Note_on_c, 5, 52, 76
6, 637080, Note_on_c, 5, 55, 76
6, 637160, Note_off_c, 5, 55, 0
6, 637160, Note_off_c, 5, 52, 0
6, 637200, Note_on_c, 5, 53, 77
6, 637200, Note_on_c, 5, 57, 77
6, 637280, Note_off_c, 5, 57, 0
6, 637280, Note_off_c, 5, 53, 0
6, 637320, Note_on_c, 5, 57, 77
6, 637320, Note_on_c, 5, 53, 77
6, 637400, Note_off_c, 5, 53, 0
6, 637400, Note_off_c, 5, 57, 0
6, 637440, Note_on_c, 5, 55, 77
6, 637440, Note_on_c, 5, 58, 77
6, 637595, Note_off_c, 5, 58, 0
6, 637595, Note_off_c, 5, 55, 0
6, 638340, Control_c, 5, 64, 0
6, 638400, Control_c, 5, 64, 127
6, 638400, Note_on_c, 5, 65, 38
6, 638520, Note_off_c, 5, 65, 0
6, 638880, Note_on_c, 5, 65, 41
6, 639000, Note_off_c, 5, 65, 0
6, 639300, Control_c, 5, 64, 0
6, 639360, Control_c, 5, 64, 127
6, 639360, Note_on_c, 5, 64, 46
6, 639480, Note_off_c, 5, 64, 0
6, 639780, Control_c, 5, 64, 0
6, 639840, Control_c, 5, 64, 127
6, 639840, Note_on_c, 5, 60, 42
6, 639960, Note_off_c, 5, 60, 0
6, 640260, Control_c, 5, 64, 0
6, 640320, Control_c, 5, 64, 127
6, 640320, Note_on_c, 5, 65, 38
6, 640440, Note_off_c, 5, 65, 0
6, 640800, Note_on_c, 5, 65, 42
6, 640920, Note_off_c, 5, 65, 0
6, 641220, Control_c, 5, 64, 0
6, 641280, Control_c, 5, 64, 127
6, 641280, Note_on_c, 5, 60, 49
6, 641400, Note_off_c, 5, 60, 0
6, 641700, Control_c, 5, 64, 0
6, 641760, Control_c, 5, 64, 127
6, 641760, Note_on_c, 5, 60, 43
6, 641880, Note_off_c, 5, 60, 0
6, 642180, Control_c, 5, 64, 0
6, 642240, Control_c, 5, 64, 127
6, 642240, Note_on_c, 5, 65, 42
6, 642360, Note_off_c, 5, 65, 0
6, 642720, Note_on_c, 5, 65, 47
6, 642840, Note_off_c, 5, 65, 0
6, 643140, Control_c, 5, 64, 0
6, 643200, Control_c, 5, 64, 127
6, 643200, Note_on_c, 5, 64, 53
6, 643320, Note_off_c, 5, 64, 0
6, 643620, Control_c, 5, 64, 0
6, 643680, Control_c, 5, 64, 127
6, 643680, Note_on_c, 5, 64, 48
6, 643800, Note_off_c, 5, 64, 0
6, 644100, Control_c, 5, 64, 0
6, 644160, Control_c, 5, 64, 127
6, 644160, Note_on_c, 5, 65, 49
6, 644280, Note_off_c, 5, 65, 0
6, 644580, Control_c, 5, 64, 0
6, 644640, Control_c, 5, 64, 127
6, 644640, Note_on_c, 5, 60, 44
6, 644760, Note_off_c, 5, 60, 0
6, 645060, Control_c, 5, 64, 0
6, 645120, Note_on_c, 5, 65, 40
6, 645360, Note_off_c, 5, 65, 0
6, 646020, Control_c, 5, 64, 0
6, 646080, Control_c, 5, 64, 127
6, 646080, Note_on_c, 5, 41, 52
6, 646200, Note_off_c, 5, 41, 0
6, 646560, Note_on_c, 5, 41, 56
6, 646680, Note_off_c, 5, 41, 0
6, 646980, Control_c, 5, 64, 0
6, 647040, Control_c, 5, 64, 127
6, 647040, Note_on_c, 5, 40, 60
6, 647160, Note_off_c, 5, 40, 0
6, 647460, Control_c, 5, 64, 0
6, 647520, Control_c, 5, 64, 127
6, 647520, Note_on_c, 5, 36, 55
6, 647640, Note_off_c, 5, 36, 0
6, 647940, Control_c, 5, 64, 0
6, 648000, Control_c, 5, 64, 127
6, 648000, Note_on_c, 5, 41, 50
6, 648120, Note_off_c, 5, 41, 0
6, 648480, Note_on_c, 5, 41, 54
6, 648600, Note_off_c, 5, 41, 0
6, 648900, Control_c, 5, 64, 0
6, 648960, Control_c, 5, 64, 127
6, 648960, Note_on_c, 5, 36, 59
6, 649080, Note_off_c, 5, 36, 0
6, 649380, Control_c, 5, 64, 0
6, 649440, Control_c, 5, 64, 127
6, 649440, Note_on_c, 5, 36, 53
6, 649560, Note_off_c, 5, 36, 0
6, 649860, Control_c, 5, 64, 0
6, 649920, Note_on_c, 5, 41, 50
6, 650160, Note_off_c, 5, 41, 0
6, 650880, Note_on_c, 5, 57, 61
6, 650960, Note_on_c, 5, 58, 61
6, 650965, Note_off_c, 5, 57, 0
6, 651000, Note_off_c, 5, 58, 0
6, 651000, Note_on_c, 5, 57, 62
6, 651060, Note_off_c, 5, 57, 0
6, 651060, Note_on_c, 5, 55, 63
6, 651120, Note_off_c, 5, 55, 0
6, 651120, Note_on_c, 5, 57, 63
6, 651200, Note_off_c, 5, 57, 0
6, 651240, Note_on_c, 5, 58, 65
6, 651320, Note_off_c, 5, 58, 0
6, 651360, Note_on_c, 5, 60, 66
6, 651440, Note_on_c, 5, 62, 67
6, 651445, Note_off_c, 5, 60, 0
6, 651480, Note_on_c, 5, 60, 67
6, 651490, Note_off_c, 5, 62, 0
6, 651540, Note_off_c, 5, 60, 0
6, 651540, Note_on_c, 5, 58, 68
6, 651600, Note_off_c, 5, 58, 0
6, 651600, Note_on_c, 5, 60, 68
6, 651680, Note_off_c, 5, 60, 0
6, 651720, Note_on_c, 5, 62, 70
6, 651800, Note_off_c, 5, 62, 0
6, 652080, Note_on_c, 5, 58, 63
6, 652235, Note_off_c, 5, 58, 0
6, 652320, Note_on_c, 5, 60, 57
6, 652475, Note_off_c, 5, 60, 0
6, 652560, Note_on_c, 5, 48, 50
6, 652715, Note_off_c, 5, 48, 0
6, 652800, Note_on_c, 5, 53, 44
6, 653280, Note_off_c, 5, 53, 0
6, 654000, Note_on_c, 5, 65, 64
6, 654190, Note_off_c, 5, 65, 0
6, 654240, Note_on_c, 5, 65, 59
6, 654430, Note_off_c, 5, 65, 0
6, 654480, Note_on_c, 5, 65, 52
6, 654670, Note_off_c, 5, 65, 0
6, 654720, Note_on_c, 5, 64, 50
6, 654910, Note_off_c, 5, 64, 0
6, 655920, Note_on_c, 5, 61, 81
6, 656110, Note_off_c, 5, 61, 0
6, 656160, Note_on_c, 5, 61, 77
6, 656350, Note_off_c, 5, 61, 0
6, 656400, Note_on_c, 5, 61, 73
6, 656590, Note_off_c, 5, 61, 0
6, 656640, Note_on_c, 5, 62, 68
6, 657065, Note_off_c, 5, 62, 0
6, 657120, Note_on_c, 5, 60, 72
6, 657555, Note_off_c, 5, 60, 0
6, 657600, Note_on_c, 5, 65, 76
6, 657790, Note_off_c, 5, 65, 0
6, 657840, Note_on_c, 5, 65, 78
6, 658030, Note_off_c, 5, 65, 0
6, 658080, Note_on_c, 5, 65, 81
6, 658270, Note_off_c, 5, 65, 0
6, 658320, Note_on_c, 5, 66, 83
6, 658510, Note_off_c, 5, 66, 0
6, 658560, Note_on_c, 5, 67, 85
6, 658980, Note_off_c, 5, 67, 0
6, 659520, Note_on_c, 5, 67, 83
6, 659940, Note_off_c, 5, 67, 0
6, 660480, Note_on_c, 5, 59, 81
6, 660540, Note_off_c, 5, 59, 0
6, 660560, Note_on_c, 5, 62, 81
6, 660620, Note_off_c, 5, 62, 0
6, 660640, Note_on_c, 5, 60, 81
6, 660700, Note_off_c, 5, 60, 0
6, 660720, Note_on_c, 5, 59, 80
6, 660780, Note_off_c, 5, 59, 0
6, 660800, Note_on_c, 5, 57, 80
6, 660860, Note_off_c, 5, 57, 0
6, 660880, Note_on_c, 5, 55, 80
6, 660940, Note_off_c, 5, 55, 0
6, 660960, Note_on_c, 5, 54, 80
6, 661020, Note_off_c, 5, 54, 0
6, 661040, Note_on_c, 5, 57, 80
6, 661100, Note_off_c, 5, 57, 0
6, 661120, Note_on_c, 5, 55, 80
6, 661180, Note_off_c, 5, 55, 0
6, 661200, Note_on_c, 5, 59, 79
6, 661260, Note_off_c, 5, 59, 0
6, 661280, Note_on_c, 5, 50, 79
6, 661340, Note_off_c, 5, 50, 0
6, 661360, Note_on_c, 5, 53, 79
6, 661420, Note_off_c, 5, 53, 0
6, 661440, Note_on_c, 5, 52, 79
6, 661500, Note_off_c, 5, 52, 0
6, 661520, Note_on_c, 5, 55, 79
6, 661580, Note_off_c, 5, 55, 0
6, 661600, Note_on_c, 5, 53, 78
6, 661660, Note_off_c, 5, 53, 0
6, 661680, Note_on_c, 5, 52, 78
6, 661740, Note_off_c, 5, 52, 0
6, 661760, Note_on_c, 5, 50, 78
6, 661820, Note_off_c, 5, 50, 0
6, 661840, Note_on_c, 5, 48, 78
6, 661900, Note_off_c, 5, 48, 0
6, 661920, Note_on_c, 5, 47, 78
6, 661980, Note_off_c, 5, 47, 0
6, 662000, Note_on_c, 5, 50, 77
6, 662060, Note_off_c, 5, 50, 0
6, 662080, Note_on_c, 5, 48, 77
6, 662140, Note_off_c, 5, 48, 0
6, 662240, Note_on_c, 5, 42, 77
6, 662300, Note_off_c, 5, 42, 0
6, 662320, Note_on_c, 5, 45, 77
6, 662370, Note_off_c, 5, 45, 0
6, 662400, Note_on_c, 5, 43, 77
6, 662460, Note_off_c, 5, 43, 0
6, 662480, Note_on_c, 5, 45, 76
6, 662540, Note_off_c, 5, 45, 0
6, 662560, Note_on_c, 5, 42, 76
6, 662620, Note_off_c, 5, 42, 0
6, 662640, Note_on_c, 5, 43, 76
6, 662700, Note_off_c, 5, 43, 0
6, 662720, Note_on_c, 5, 45, 76
6, 662780, Note_off_c, 5, 45, 0
6, 662800, Note_on_c, 5, 42, 76
6, 662860, Note_off_c, 5, 42, 0
6, 662880, Note_on_c, 5, 43, 75
6, 662940, Note_off_c, 5, 43, 0
6, 662960, Note_on_c, 5, 45, 75
6, 663020, Note_off_c, 5, 45, 0
6, 663040, Note_on_c, 5, 42, 75
6, 663100, Note_off_c, 5, 42, 0
6, 663120, Note_on_c, 5, 43, 75
6, 663180, Note_off_c, 5, 43, 0
6, 663200, Note_on_c, 5, 45, 75
6, 663260, Note_off_c, 5, 45, 0
6, 663280, Note_on_c, 5, 42, 75
6, 663340, Note_off_c, 5, 42, 0
6, 663360, Note_on_c, 5, 43, 74
6, 663550, Note_off_c, 5, 43, 0
6, 663600, Note_on_c, 5, 59, 73
6, 663840, Note_off_c, 5, 59, 0
6, 663840, Note_on_c, 5, 60, 76
6, 664080, Note_off_c, 5, 60, 0
6, 664080, Note_on_c, 5, 62, 79
6, 664270, Note_off_c, 5, 62, 0
6, 664320, Note_on_c, 5, 60, 79
6, 664735, Note_off_c, 5, 60, 0
6, 666480, Note_on_c, 5, 48, 61
6, 666670, Note_off_c, 5, 48, 0
6, 666720, Note_on_c, 5, 48, 59
6, 666910, Note_off_c, 5, 48, 0
6, 666960, Note_on_c, 5, 48, 47
6, 667150, Note_off_c, 5, 48, 0
6, 667440, Note_on_c, 5, 48, 44
6, 667630, Note_off_c, 5, 48, 0
6, 667680, Note_on_c, 5, 48, 42
6, 667870, Note_off_c, 5, 48, 0
6, 667920, Note_on_c, 5, 48, 42
6, 668110, Note_off_c, 5, 48, 0
6, 668160, Note_on_c, 5, 47, 71
6, 668580, Note_off_c, 5, 47, 0
6, 670320, Note_on_c, 5, 48, 56
6, 670510, Note_off_c, 5, 48, 0
6, 670560, Note_on_c, 5, 48, 54
6, 670750, Note_off_c, 5, 48, 0
6, 670800, Note_on_c, 5, 48, 52
6, 670990, Note_off_c, 5, 48, 0
6, 671280, Note_on_c, 5, 48, 41
6, 671470, Note_off_c, 5, 48, 0
6, 671520, Note_on_c, 5, 48, 39
6, 671710, Note_off_c, 5, 48, 0
6, 671760, Note_on_c, 5, 48, 38
6, 671950, Note_off_c, 5, 48, 0
6, 672000, Note_on_c, 5, 52, 61
6, 672425, Note_off_c, 5, 52, 0
6, 674160, Note_on_c, 5, 53, 48
6, 674350, Note_off_c, 5, 53, 0
6, 674400, Note_on_c, 5, 53, 46
6, 674590, Note_off_c, 5, 53, 0
6, 674640, Note_on_c, 5, 53, 44
6, 674830, Note_off_c, 5, 53, 0
6, 675120, Note_on_c, 5, 53, 34
6, 675310, Note_off_c, 5, 53, 0
6, 675360, Note_on_c, 5, 53, 33
6, 675550, Note_off_c, 5, 53, 0
6, 675600, Note_on_c, 5, 53, 32
6, 675790, Note_off_c, 5, 53, 0
6, 675840, Note_on_c, 5, 54, 53
6, 676255, Note_off_c, 5, 54, 0
6, 677760, Note_on_c, 5, 55, 44
6, 678000, Note_off_c, 5, 55, 0
6, 678000, Note_on_c, 5, 56, 45
6, 678240, Note_off_c, 5, 56, 0
6, 678240, Note_on_c, 5, 55, 46
6, 678480, Note_off_c, 5, 55, 0
6, 678480, Note_on_c, 5, 56, 47
6, 678720, Note_off_c, 5, 56, 0
6, 678720, Note_on_c, 5, 55, 48
6, 678960, Note_off_c, 5, 55, 0
6, 678960, Note_on_c, 5, 56, 49
6, 679200, Note_off_c, 5, 56, 0
6, 679200, Note_on_c, 5, 55, 50
6, 679440, Note_off_c, 5, 55, 0
6, 679440, Note_on_c, 5, 56, 51
6, 679665, Note_off_c, 5, 56, 0
6, 679680, Note_on_c, 5, 55, 53
6, 679920, Note_off_c, 5, 55, 0
6, 679920, Note_on_c, 5, 56, 54
6, 680160, Note_off_c, 5, 56, 0
6, 680160, Note_on_c, 5, 55, 55
6, 680400, Note_off_c, 5, 55, 0
6, 680400, Note_on_c, 5, 56, 56
6, 680640, Note_off_c, 5, 56, 0
6, 680640, Note_on_c, 5, 55, 57
6, 680880, Note_off_c, 5, 55, 0
6, 680880, Note_on_c, 5, 56, 58
6, 681120, Note_off_c, 5, 56, 0
6, 681120, Note_on_c, 5, 55, 59
6, 681360, Note_off_c, 5, 55, 0
6, 681360, Note_on_c, 5, 56, 60
6, 681585, Note_off_c, 5, 56, 0
6, 681600, Note_on_c, 5, 55, 61
6, 681840, Note_off_c, 5, 55, 0
6, 681840, Note_on_c, 5, 56, 62
6, 682080, Note_off_c, 5, 56, 0
6, 682080, Note_on_c, 5, 55, 64
6, 682320, Note_off_c, 5, 55, 0
6, 682320, Note_on_c, 5, 56, 65
6, 682535, Note_off_c, 5, 56, 0
6, 682560, Note_on_c, 5, 52, 66
6, 682800, Note_off_c, 5, 52, 0
6, 683040, Note_on_c, 5, 64, 68
6, 683040, Note_on_c, 5, 60, 68
6, 683195, Note_off_c, 5, 60, 0
6, 683195, Note_off_c, 5, 64, 0
6, 683280, Note_on_c, 5, 59, 69
6, 683280, Note_on_c, 5, 65, 69
6, 683435, Note_off_c, 5, 65, 0
6, 683435, Note_off_c, 5, 59, 0
6, 683520, Note_on_c, 5, 60, 70
6, 683520, Note_on_c, 5, 64, 70
6, 683675, Note_off_c, 5, 64, 0
6, 683675, Note_off_c, 5, 60, 0
6, 684000, Note_on_c, 5, 48, 72
6, 684000, Note_on_c, 5, 52, 72
6, 684155, Note_off_c, 5, 52, 0
6, 684155, Note_off_c, 5, 48, 0
6, 684240, Note_on_c, 5, 53, 73
6, 684240, Note_on_c, 5, 47, 73
6, 684395, Note_off_c, 5, 47, 0
6, 684395, Note_off_c, 5, 53, 0
6, 684480, Note_on_c, 5, 52, 75
6, 684480, Note_on_c, 5, 48, 75
6, 684635, Note_off_c, 5, 48, 0
6, 684635, Note_off_c, 5, 52, 0
6, 684960, Note_on_c, 5, 60, 77
6, 684960, Note_on_c, 5, 64, 77
6, 685040, Note_off_c, 5, 64, 0
6, 685040, Note_off_c, 5, 60, 0
6, 685080, Note_on_c, 5, 60, 77
6, 685080, Note_on_c, 5, 64, 77
6, 685160, Note_off_c, 5, 64, 0
6, 685160, Note_off_c, 5, 60, 0
6, 685200, Note_on_c, 5, 59, 78
6, 685200, Note_on_c, 5, 65, 78
6, 685280, Note_off_c, 5, 65, 0
6, 685280, Note_off_c, 5, 59, 0
6, 685320, Note_on_c, 5, 65, 78
6, 685320, Note_on_c, 5, 59, 78
6, 685400, Note_off_c, 5, 59, 0
6, 685400, Note_off_c, 5, 65, 0
6, 685440, Note_on_c, 5, 60, 79
6, 685440, Note_on_c, 5, 64, 79
6, 685595, Note_off_c, 5, 64, 0
6, 685595, Note_off_c, 5, 60, 0
6, 685920, Note_on_c, 5, 48, 81
6, 685920, Note_on_c, 5, 52, 81
6, 686000, Note_off_c, 5, 52, 0
6, 686000, Note_off_c, 5, 48, 0
6, 686040, Note_on_c, 5, 52, 82
6, 686040, Note_on_c, 5, 48, 82
6, 686120, Note_off_c, 5, 48, 0
6, 686120, Note_off_c, 5, 52, 0
6, 686160, Note_on_c, 5, 47, 82
6, 686160, Note_on_c, 5, 53, 82
6, 686240, Note_off_c, 5, 53, 0
6, 686240, Note_off_c, 5, 47, 0
6, 686280, Note_on_c, 5, 53, 83
6, 686280, Note_on_c, 5, 47, 83
6, 686360, Note_off_c, 5, 47, 0
6, 686360, Note_off_c, 5, 53, 0
6, 686400, Note_on_c, 5, 48, 83
6, 686555, Note_off_c, 5, 48, 0
6, 687360, Note_on_c, 5, 41, 78
6, 687600, Note_off_c, 5, 41, 0
6, 688320, Note_on_c, 5, 55, 73
6, 688320, Note_on_c, 5, 43, 73
6, 688510, Note_off_c, 5, 43, 0
6, 688510, Note_off_c, 5, 55, 0
6, 688800, Note_on_c, 5, 44, 70
6, 688800, Note_on_c, 5, 56, 70
6, 688990, Note_off_c, 5, 56, 0
6, 688990, Note_off_c, 5, 44, 0
6, 689280, Note_on_c, 5, 45, 68
6, 689280, Note_on_c, 5, 57, 68
6, 689470, Note_off_c, 5, 57, 0
6, 689470, Note_off_c, 5, 45, 0
6, 690480, Note_on_c, 5, 66, 54
6, 690670, Note_off_c, 5, 66, 0
6, 690720, Note_on_c, 5, 66, 53
6, 690910, Note_off_c, 5, 66, 0
6, 690960, Note_on_c, 5, 66, 52
6, 691150, Note_off_c, 5, 66, 0
6, 691440, Note_on_c, 5, 67, 50
6, 691630, Note_off_c, 5, 67, 0
6, 691680, Note_on_c, 5, 67, 49
6, 691870, Note_off_c, 5, 67, 0
6, 691920, Note_on_c, 5, 67, 48
6, 692110, Note_off_c, 5, 67, 0
6, 692400, Note_on_c, 5, 67, 46
6, 692590, Note_off_c, 5, 67, 0
6, 692640, Note_on_c, 5, 67, 45
6, 692830, Note_off_c, 5, 67, 0
6, 692880, Note_on_c, 5, 67, 44
6, 693070, Note_off_c, 5, 67, 0
6, 693600, Note_on_c, 5, 60, 69
6, 693600, Note_on_c, 5, 63, 69
6, 693755, Note_off_c, 5, 63, 0
6, 693755, Note_off_c, 5, 60, 0
6, 693840, Note_on_c, 5, 65, 69
6, 693840, Note_on_c, 5, 59, 69
6, 693995, Note_off_c, 5, 59, 0
6, 693995, Note_off_c, 5, 65, 0
6, 694080, Note_on_c, 5, 60, 70
6, 694080, Note_on_c, 5, 63, 70
6, 694235, Note_off_c, 5, 63, 0
6, 694235, Note_off_c, 5, 60, 0
6, 694560, Note_on_c, 5, 51, 71
6, 694560, Note_on_c, 5, 48, 71
6, 694715, Note_off_c, 5, 48, 0
6, 694715, Note_off_c, 5, 51, 0
6, 694800, Note_on_c, 5, 53, 71
6, 694800, Note_on_c, 5, 47, 71
6, 694955, Note_off_c, 5, 47, 0
6, 694955, Note_off_c, 5, 53, 0
6, 695040, Note_on_c, 5, 48, 72
6, 695040, Note_on_c, 5, 51, 72
6, 695195, Note_off_c, 5, 51, 0
6, 695195, Note_off_c, 5, 48, 0
6, 695520, Note_on_c, 5, 60, 73
6, 695520, Note_on_c, 5, 64, 73
6, 695600, Note_off_c, 5, 64, 0
6, 695600, Note_off_c, 5, 60, 0
6, 695640, Note_on_c, 5, 64, 73
6, 695640, Note_on_c, 5, 60, 73
6, 695720, Note_off_c, 5, 60, 0
6, 695720, Note_off_c, 5, 64, 0
6, 695760, Note_on_c, 5, 59, 73
6, 695760, Note_on_c, 5, 65, 73
6, 695840, Note_off_c, 5, 65, 0
6, 695840, Note_off_c, 5, 59, 0
6, 695880, Note_on_c, 5, 59, 73
6, 695880, Note_on_c, 5, 65, 73
6, 695960, Note_off_c, 5, 65, 0
6, 695960, Note_off_c, 5, 59, 0
6, 696000, Note_on_c, 5, 64, 74
6, 696000, Note_on_c, 5, 60, 74
6, 696155, Note_off_c, 5, 60, 0
6, 696155, Note_off_c, 5, 64, 0
6, 696480, Note_on_c, 5, 52, 75
6, 696480, Note_on_c, 5, 48, 75
6, 696560, Note_off_c, 5, 48, 0
6, 696560, Note_off_c, 5, 52, 0
6, 696600, Note_on_c, 5, 52, 75
6, 696600, Note_on_c, 5, 48, 75
6, 696680, Note_off_c, 5, 48, 0
6, 696680, Note_off_c, 5, 52, 0
6, 696720, Note_on_c, 5, 47, 75
6, 696720, Note_on_c, 5, 53, 75
6, 696800, Note_off_c, 5, 53, 0
6, 696800, Note_off_c, 5, 47, 0
6, 696840, Note_on_c, 5, 47, 75
6, 696840, Note_on_c, 5, 53, 75
6, 696920, Note_off_c, 5, 53, 0
6, 696920, Note_off_c, 5, 47, 0
6, 696960, Note_on_c, 5, 48, 76
6, 696960, Note_on_c, 5, 52, 76
6, 697115, Note_off_c, 5, 52, 0
6, 697115, Note_off_c, 5, 48, 0
6, 697200, Note_on_c, 5, 52, 76
6, 697920, Note_off_c, 5, 52, 0
6, 697920, Note_on_c, 5, 53, 78
6, 698075, Note_off_c, 5, 53, 0
6, 698160, Note_on_c, 5, 55, 78
6, 698880, Note_off_c, 5, 55, 0
6, 698880, Note_on_c, 5, 53, 48
6, 699070, Note_off_c, 5, 53, 0
6, 700560, Note_on_c, 5, 52, 59
6, 700750, Note_off_c, 5, 52, 0
6, 700800, Note_on_c, 5, 53, 60
6, 700990, Note_off_c, 5, 53, 0
6, 702480, Note_on_c, 5, 52, 72
6, 702670, Note_off_c, 5, 52, 0
6, 702720, Note_on_c, 5, 53, 76
6, 704160, Note_off_c, 5, 53, 0
6, 704160, Note_on_c, 5, 54, 68
6, 704610, Note_off_c, 5, 54, 0
6, 704640, Note_on_c, 5, 55, 68
6, 704880, Note_off_c, 5, 55, 0
6, 705840, Note_on_c, 5, 43, 83
6, 708360, Note_off_c, 5, 43, 0
6, 708420, Control_c, 5, 64, 0
6, 708480, Control_c, 5, 64, 127
6, 708480, Note_on_c, 5, 60, 48
6, 708600, Note_off_c, 5, 60, 0
6, 708960, Note_on_c, 5, 60, 48
6, 709080, Note_off_c, 5, 60, 0
6, 709440, Note_on_c, 5, 60, 49
6, 709560, Note_off_c, 5, 60, 0
6, 709920, Note_on_c, 5, 60, 49
6, 710040, Note_off_c, 5, 60, 0
6, 710340, Control_c, 5, 64, 0
6, 710400, Control_c, 5, 64, 127
6, 710400, Note_on_c, 5, 60, 50
6, 710520, Note_off_c, 5, 60, 0
6, 710880, Note_on_c, 5, 60, 50
6, 711000, Note_off_c, 5, 60, 0
6, 711360, Note_on_c, 5, 60, 50
6, 711480, Note_off_c, 5, 60, 0
6, 711840, Note_on_c, 5, 60, 51
6, 711960, Note_off_c, 5, 60, 0
6, 712260, Control_c, 5, 64, 0
6, 712320, Control_c, 5, 64, 127
6, 712320, Note_on_c, 5, 60, 53
6, 712440, Note_off_c, 5, 60, 0
6, 712740, Control_c, 5, 64, 0
6, 712800, Control_c, 5, 64, 127
6, 712800, Note_on_c, 5, 61, 50
6, 712920, Note_off_c, 5, 61, 0
6, 713220, Control_c, 5, 64, 0
6, 713280, Control_c, 5, 64, 127
6, 713280, Note_on_c, 5, 62, 49
6, 713400, Note_off_c, 5, 62, 0
6, 713700, Control_c, 5, 64, 0
6, 713760, Control_c, 5, 64, 127
6, 713760, Note_on_c, 5, 59, 48
6, 713880, Note_off_c, 5, 59, 0
6, 714180, Control_c, 5, 64, 0
6, 714240, Control_c, 5, 64, 127
6, 714240, Note_on_c, 5, 60, 47
6, 714360, Note_off_c, 5, 60, 0
6, 714660, Control_c, 5, 64, 0
6, 714720, Control_c, 5, 64, 127
6, 714900, Control_c, 5, 64, 0
6, 714960, Control_c, 5, 64, 127
6, 714960, Note_on_c, 5, 60, 45
6, 715080, Note_off_c, 5, 60, 0
6, 715140, Control_c, 5, 64, 0
6, 715200, Note_on_c, 5, 55, 45
6, 715320, Note_off_c, 5, 55, 0
6, 715680, Note_on_c, 5, 55, 44
6, 715870, Note_off_c, 5, 55, 0
6, 716100, Control_c, 5, 64, 0
6, 716160, Control_c, 5, 64, 127
6, 716160, Note_on_c, 5, 48, 57
6, 716280, Note_off_c, 5, 48, 0
6, 717120, Note_on_c, 5, 48, 58
6, 717240, Note_off_c, 5, 48, 0
6, 718020, Control_c, 5, 64, 0
6, 718080, Control_c, 5, 64, 127
6, 718080, Note_on_c, 5, 48, 60
6, 718200, Note_off_c, 5, 48, 0
6, 719040, Note_on_c, 5, 48, 63
6, 719160, Note_off_c, 5, 48, 0
6, 719940, Control_c, 5, 64, 0
6, 720000, Control_c, 5, 64, 127
6, 720000, Note_on_c, 5, 52, 65
6, 720120, Note_off_c, 5, 52, 0
6, 720420, Control_c, 5, 64, 0
6, 720480, Control_c, 5, 64, 127
6, 720480, Note_on_c, 5, 49, 64
6, 720600, Note_off_c, 5, 49, 0
6, 720900, Control_c, 5, 64, 0
6, 720960, Control_c, 5, 64, 127
6, 720960, Note_on_c, 5, 48, 62
6, 721080, Note_off_c, 5, 48, 0
6, 721380, Control_c, 5, 64, 0
6, 721440, Control_c, 5, 64, 127
6, 721440, Note_on_c, 5, 47, 60
6, 721560, Note_off_c, 5, 47, 0
6, 721860, Control_c, 5, 64, 0
6, 721920, Control_c, 5, 64, 127
6, 721920, Note_on_c, 5, 48, 59
6, 722040, Note_off_c, 5, 48, 0
6, 722100, Control_c, 5, 64, 0
6, 722160, Control_c, 5, 64, 127
6, 722160, Note_on_c, 5, 53, 58
6, 722340, Control_c, 5, 64, 0
6, 722400, Control_c, 5, 64, 127
6, 722400, Note_off_c, 5, 53, 0
6, 722400, Note_on_c, 5, 55, 57
6, 722520, Note_off_c, 5, 55, 0
6, 722580, Control_c, 5, 64, 0
6, 722640, Control_c, 5, 64, 127
6, 722640, Note_on_c, 5, 55, 56
6, 722760, Note_off_c, 5, 55, 0
6, 722820, Control_c, 5, 64, 0
6, 722880, Note_on_c, 5, 60, 75
6, 723070, Note_off_c, 5, 60, 0
6, 723600, Note_on_c, 5, 49, 72
6, 723790, Note_off_c, 5, 49, 0
6, 723840, Note_on_c, 5, 50, 71
6, 724030, Note_off_c, 5, 50, 0
6, 724560, Note_on_c, 5, 43, 68
6, 724750, Note_off_c, 5, 43, 0
6, 724800, Note_on_c, 5, 48, 67
6, 725040, Note_off_c, 5, 48, 0
6, 725040, Note_on_c, 5, 41, 66
6, 725230, Note_off_c, 5, 41, 0
6, 725280, Note_on_c, 5, 43, 64
6, 725520, Note_on_c, 5, 47, 63
6, 725710, Note_off_c, 5, 47, 0
6, 725710, Note_off_c, 5, 43, 0
6, 725760, Note_on_c, 5, 48, 62
6, 725950, Note_off_c, 5, 48, 0
6, 726000, Note_on_c, 5, 64, 71
6, 726060, Note_off_c, 5, 64, 0
6, 726080, Note_on_c, 5, 62, 70
6, 726140, Note_off_c, 5, 62, 0
6, 726160, Note_on_c, 5, 60, 70
6, 726220, Note_off_c, 5, 60, 0
6, 726240, Note_on_c, 5, 59, 69
6, 726300, Note_off_c, 5, 59, 0
6, 726320, Note_on_c, 5, 62, 69
6, 726380, Note_off_c, 5, 62, 0
6, 726400, Note_on_c, 5, 60, 68
6, 726460, Note_off_c, 5, 60, 0
6, 726480, Note_on_c, 5, 64, 68
6, 726540, Note_off_c, 5, 64, 0
6, 726560, Note_on_c, 5, 56, 67
6, 726620, Note_off_c, 5, 56, 0
6, 726640, Note_on_c, 5, 59, 67
6, 726700, Note_off_c, 5, 59, 0
6, 726720, Note_on_c, 5, 57, 66
6, 726780, Note_off_c, 5, 57, 0
6, 726800, Note_on_c, 5, 60, 66
6, 726860, Note_off_c, 5, 60, 0
6, 726880, Note_on_c, 5, 59, 65
6, 726940, Note_off_c, 5, 59, 0
6, 726960, Note_on_c, 5, 57, 65
6, 727020, Note_off_c, 5, 57, 0
6, 727040, Note_on_c, 5, 55, 64
6, 727100, Note_off_c, 5, 55, 0
6, 727120, Note_on_c, 5, 53, 64
6, 727180, Note_off_c, 5, 53, 0
6, 727200, Note_on_c, 5, 52, 63
6, 727260, Note_off_c, 5, 52, 0
6, 727280, Note_on_c, 5, 55, 63
6, 727340, Note_off_c, 5, 55, 0
6, 727360, Note_on_c, 5, 53, 62
6, 727420, Note_off_c, 5, 53, 0
6, 727440, Note_on_c, 5, 57, 62
6, 727500, Note_off_c, 5, 57, 0
6, 727520, Note_on_c, 5, 49, 61
6, 727580, Note_off_c, 5, 49, 0
6, 727600, Note_on_c, 5, 52, 61
6, 727660, Note_off_c, 5, 52, 0
6, 727680, Note_on_c, 5, 50, 60
6, 727740, Note_off_c, 5, 50, 0
6, 727760, Note_on_c, 5, 53, 60
6, 727820, Note_off_c, 5, 53, 0
6, 727840, Note_on_c, 5, 52, 59
6, 727900, Note_off_c, 5, 52, 0
6, 727920, Note_on_c, 5, 50, 59
6, 727980, Note_off_c, 5, 50, 0
6, 728000, Note_on_c, 5, 48, 58
6, 728060, Note_off_c, 5, 48, 0
6, 728080, Note_on_c, 5, 47, 58
6, 728140, Note_off_c, 5, 47, 0
6, 728160, Note_on_c, 5, 45, 57
6, 728220, Note_off_c, 5, 45, 0
6, 728240, Note_on_c, 5, 48, 57
6, 728300, Note_off_c, 5, 48, 0
6, 728320, Note_on_c, 5, 47, 56
6, 728380, Note_off_c, 5, 47, 0
6, 728400, Note_on_c, 5, 50, 56
6, 728460, Note_off_c, 5, 50, 0
6, 728480, Note_on_c, 5, 42, 55
6, 728540, Note_off_c, 5, 42, 0
6, 728560, Note_on_c, 5, 45, 55
6, 728625, Note_off_c, 5, 45, 0
6, 728640, Note_on_c, 5, 43, 54
6, 728830, Note_off_c, 5, 43, 0
6, 729840, Note_on_c, 5, 43, 48
6, 730030, Note_off_c, 5, 43, 0
6, 730800, Note_on_c, 5, 43, 61
6, 730990, Note_off_c, 5, 43, 0
6, 731760, Note_on_c, 5, 55, 60
6, 731950, Note_off_c, 5, 55, 0
6, 733680, Note_on_c, 5, 56, 53
6, 733870, Note_off_c, 5, 56, 0
6, 734160, Note_on_c, 5, 57, 55
6, 734350, Note_off_c, 5, 57, 0
6, 734400, Note_on_c, 5, 53, 59
6, 734795, Note_off_c, 5, 53, 0
6, 735120, Note_on_c, 5, 55, 49
6, 735310, Note_off_c, 5, 55, 0
6, 735360, Note_on_c, 5, 60, 45
6, 735550, Note_off_c, 5, 60, 0
6, 735600, Note_on_c, 5, 48, 42
6, 735790, Note_off_c, 5, 48, 0
6, 735840, Note_on_c, 5, 48, 72
6, 735840, Note_on_c, 5, 36, 72
6, 735920, Note_off_c, 5, 36, 0
6, 735920, Note_off_c, 5, 48, 0
6, 735960, Note_on_c, 5, 50, 72
6, 735960, Note_on_c, 5, 38, 72
6, 736040, Note_off_c, 5, 38, 0
6, 736040, Note_off_c, 5, 50, 0
6, 736080, Note_on_c, 5, 52, 73
6, 736080, Note_on_c, 5, 40, 73
6, 736160, Note_off_c, 5, 40, 0
6, 736160, Note_off_c, 5, 52, 0
6, 736200, Note_on_c, 5, 53, 73
6, 736200, Note_on_c, 5, 41, 73
6, 736280, Note_off_c, 5, 41, 0
6, 736280, Note_off_c, 5, 53, 0
6, 736320, Note_on_c, 5, 55, 74
6, 736320, Note_on_c, 5, 43, 74
6, 736475, Note_off_c, 5, 43, 0
6, 736475, Note_off_c, 5, 55, 0
6, 736560, Note_on_c, 5, 57, 75
6, 736560, Note_on_c, 5, 45, 75
6, 736715, Note_off_c, 5, 45, 0
6, 736715, Note_off_c, 5, 57, 0
6, 736800, Note_on_c, 5, 43, 76
6, 736800, Note_on_c, 5, 55, 76
6, 736955, Note_off_c, 5, 55, 0
6, 736955, Note_off_c, 5, 43, 0
6, 737040, Note_on_c, 5, 42, 76
6, 737040, Note_on_c, 5, 54, 76
6, 737195, Note_off_c, 5, 54, 0
6, 737195, Note_off_c, 5, 42, 0
6, 737280, Note_on_c, 5, 53, 77
6, 737280, Note_on_c, 5, 41, 77
6, 737520, Note_off_c, 5, 41, 0
6, 737520, Note_off_c, 5, 53, 0
6, 737760, Note_on_c, 5, 40, 79
6, 737760, Note_on_c, 5, 52, 79
6, 738000, Note_off_c, 5, 52, 0
6, 738000, Note_off_c, 5, 40, 0
6, 738240, Note_on_c, 5, 53, 81
6, 738670, Note_off_c, 5, 53, 0
6, 738720, Note_on_c, 5, 55, 75
6, 738910, Note_off_c, 5, 55, 0
6, 738960, Note_on_c, 5, 55, 72
6, 739150, Note_off_c, 5, 55, 0
6, 739680, Note_on_c, 5, 64, 73
6, 739680, Note_on_c, 5, 60, 73
6, 739835, Note_off_c, 5, 60, 0
6, 739835, Note_off_c, 5, 64, 0
6, 739920, Note_on_c, 5, 65, 73
6, 739920, Note_on_c, 5, 59, 73
6, 740075, Note_off_c, 5, 59, 0
6, 740075, Note_off_c, 5, 65, 0
6, 740160, Note_on_c, 5, 60, 74
6, 740160, Note_on_c, 5, 64, 74
6, 740315, Note_off_c, 5, 64, 0
6, 740315, Note_off_c, 5, 60, 0
6, 740640, Note_on_c, 5, 52, 75
6, 740640, Note_on_c, 5, 48, 75
6, 740795, Note_off_c, 5, 48, 0
6, 740795, Note_off_c, 5, 52, 0
6, 740880, Note_on_c, 5, 47, 75
6, 740880, Note_on_c, 5, 53, 75
6, 741035, Note_off_c, 5, 53, 0
6, 741035, Note_off_c, 5, 47, 0
6, 741120, Note_on_c, 5, 48, 76
6, 741120, Note_on_c, 5, 52, 76
6, 741275, Note_off_c, 5, 52, 0
6, 741275, Note_off_c, 5, 48, 0
6, 741600, Note_on_c, 5, 64, 77
6, 741600, Note_on_c, 5, 60, 77
6, 741680, Note_off_c, 5, 60, 0
6, 741680, Note_off_c, 5, 64, 0
6, 741720, Note_on_c, 5, 64, 77
6, 741720, Note_on_c, 5, 60, 77
6, 741800, Note_off_c, 5, 60, 0
6, 741800, Note_off_c, 5, 64, 0
6, 741840, Note_on_c, 5, 59, 77
6, 741840, Note_on_c, 5, 65, 77
6, 741920, Note_off_c, 5, 65, 0
6, 741920, Note_off_c, 5, 59, 0
6, 741960, Note_on_c, 5, 59, 77
6, 741960, Note_on_c, 5, 65, 77
6, 742040, Note_off_c, 5, 65, 0
6, 742040, Note_off_c, 5, 59, 0
6, 742080, Note_on_c, 5, 64, 78
6, 742080, Note_on_c, 5, 60, 78
6, 742240, Note_off_c, 5, 60, 0
6, 742240, Note_off_c, 5, 64, 0
6, 742560, Note_on_c, 5, 52, 79
6, 742560, Note_on_c, 5, 48, 79
6, 742640, Note_off_c, 5, 48, 0
6, 742640, Note_off_c, 5, 52, 0
6, 742680, Note_on_c, 5, 52, 79
6, 742680, Note_on_c, 5, 48, 79
6, 742760, Note_off_c, 5, 48, 0
6, 742760, Note_off_c, 5, 52, 0
6, 742800, Note_on_c, 5, 47, 79
6, 742800, Note_on_c, 5, 53, 79
6, 742880, Note_off_c, 5, 53, 0
6, 742880, Note_off_c, 5, 47, 0
6, 742920, Note_on_c, 5, 47, 79
6, 742920, Note_on_c, 5, 53, 79
6, 743000, Note_off_c, 5, 53, 0
6, 743000, Note_off_c, 5, 47, 0
6, 743040, Note_on_c, 5, 52, 80
6, 743040, Note_on_c, 5, 48, 80
6, 743195, Note_off_c, 5, 48, 0
6, 743195, Note_off_c, 5, 52, 0
6, 743280, Note_on_c, 5, 49, 95
6, 743910, Note_off_c, 5, 49, 0
6, 744000, Note_on_c, 5, 50, 82
6, 744155, Note_off_c, 5, 50, 0
6, 744240, Note_on_c, 5, 44, 82
6, 744880, Note_off_c, 5, 44, 0
6, 744960, Note_on_c, 5, 45, 84
6, 745115, Note_off_c, 5, 45, 0
6, 745200, Note_on_c, 5, 54, 96
6, 745840, Note_off_c, 5, 54, 0
6, 745920, Note_on_c, 5, 55, 56
6, 746110, Note_off_c, 5, 55, 0
6, 746400, Note_on_c, 5, 55, 58
6, 746590, Note_off_c, 5, 55, 0
6, 746880, Note_on_c, 5, 55, 60
6, 747070, Note_off_c, 5, 55, 0
6, 747360, Note_on_c, 5, 55, 63
6, 747550, Note_off_c, 5, 55, 0
6, 747920, Note_on_c, 5, 72, 66
6, 748000, Note_off_c, 5, 72, 0
6, 748000, Note_on_c, 5, 71, 66
6, 748080, Note_off_c, 5, 71, 0
6, 748080, Note_on_c, 5, 72, 67
6, 748160, Note_off_c, 5, 72, 0
6, 748160, Note_on_c, 5, 69, 67
6, 748240, Note_off_c, 5, 69, 0
6, 748240, Note_on_c, 5, 66, 67
6, 748300, Note_off_c, 5, 66, 0
6, 748400, Note_on_c, 5, 69, 68
6, 748480, Note_off_c, 5, 69, 0
6, 748480, Note_on_c, 5, 68, 69
6, 748560, Note_off_c, 5, 68, 0
6, 748560, Note_on_c, 5, 69, 69
6, 748640, Note_off_c, 5, 69, 0
6, 748640, Note_on_c, 5, 65, 70
6, 748720, Note_off_c, 5, 65, 0
6, 748720, Note_on_c, 5, 60, 70
6, 748785, Note_off_c, 5, 60, 0
6, 748880, Note_on_c, 5, 66, 71
6, 748960, Note_off_c, 5, 66, 0
6, 748960, Note_on_c, 5, 65, 71
6, 749040, Note_off_c, 5, 65, 0
6, 749040, Note_on_c, 5, 66, 72
6, 749120, Note_off_c, 5, 66, 0
6, 749120, Note_on_c, 5, 60, 72
6, 749200, Note_off_c, 5, 60, 0
6, 749200, Note_on_c, 5, 57, 72
6, 749265, Note_off_c, 5, 57, 0
6, 749360, Note_on_c, 5, 60, 73
6, 749440, Note_off_c, 5, 60, 0
6, 749440, Note_on_c, 5, 59, 74
6, 749520, Note_off_c, 5, 59, 0
6, 749520, Note_on_c, 5, 60, 74
6, 749600, Note_off_c, 5, 60, 0
6, 749600, Note_on_c, 5, 57, 74
6, 749680, Note_off_c, 5, 57, 0
6, 749680, Note_on_c, 5, 54, 75
6, 749750, Note_off_c, 5, 54, 0
6, 749760, Note_on_c, 5, 55, 75
6, 749950, Note_off_c, 5, 55, 0
6, 750000, Note_on_c, 5, 55, 77
6, 750190, Note_off_c, 5, 55, 0
6, 750240, Note_on_c, 5, 55, 78
6, 750430, Note_off_c, 5, 55, 0
6, 750480, Note_on_c, 5, 55, 79
6, 750670, Note_off_c, 5, 55, 0
6, 750720, Note_on_c, 5, 55, 80
6, 750910, Note_off_c, 5, 55, 0
6, 750960, Note_on_c, 5, 55, 81
6, 751150, Note_off_c, 5, 55, 0
6, 751200, Note_on_c, 5, 55, 83
6, 751390, Note_off_c, 5, 55, 0
6, 751440, Note_on_c, 5, 55, 84
6, 751630, Note_off_c, 5, 55, 0
6, 751920, Note_on_c, 5, 43, 72
6, 751920, Note_on_c, 5, 55, 72
6, 752110, Note_off_c, 5, 55, 0
6, 752110, Note_off_c, 5, 43, 0
6, 752160, Note_on_c, 5, 40, 73
6, 752160, Note_on_c, 5, 52, 73
6, 752350, Note_off_c, 5, 52, 0
6, 752350, Note_off_c, 5, 40, 0
6, 752400, Note_on_c, 5, 36, 73
6, 752400, Note_on_c, 5, 48, 73
6, 752590, Note_off_c, 5, 48, 0
6, 752590, Note_off_c, 5, 36, 0
6, 752640, Note_on_c, 5, 43, 74
6, 752640, Note_on_c, 5, 55, 74
6, 752830, Note_off_c, 5, 55, 0
6, 752830, Note_off_c, 5, 43, 0
6, 752880, Note_on_c, 5, 55, 75
6, 753070, Note_off_c, 5, 55, 0
6, 753120, Note_on_c, 5, 55, 76
6, 753310, Note_off_c, 5, 55, 0
6, 753360, Note_on_c, 5, 55, 76
6, 753550, Note_off_c, 5, 55, 0
6, 753840, Note_on_c, 5, 43, 78
6, 753840, Note_on_c, 5, 55, 78
6, 754030, Note_off_c, 5, 55, 0
6, 754030, Note_off_c, 5, 43, 0
6, 754080, Note_on_c, 5, 40, 78
6, 754080, Note_on_c, 5, 52, 78
6, 754270, Note_off_c, 5, 52, 0
6, 754270, Note_off_c, 5, 40, 0
6, 754320, Note_on_c, 5, 36, 79
6, 754320, Note_on_c, 5, 48, 79
6, 754510, Note_off_c, 5, 48, 0
6, 754510, Note_off_c, 5, 36, 0
6, 754560, Note_on_c, 5, 43, 80
6, 754560, Note_on_c, 5, 55, 80
6, 754750, Note_off_c, 5, 55, 0
6, 754750, Note_off_c, 5, 43, 0
6, 754800, Note_on_c, 5, 55, 81
6, 754990, Note_off_c, 5, 55, 0
6, 755040, Note_on_c, 5, 55, 81
6, 755230, Note_off_c, 5, 55, 0
6, 755280, Note_on_c, 5, 55, 82
6, 755470, Note_off_c, 5, 55, 0
6, 755760, Note_on_c, 5, 43, 84
6, 755760, Note_on_c, 5, 55, 84
6, 755950, Note_off_c, 5, 55, 0
6, 755950, Note_off_c, 5, 43, 0
6, 756000, Note_on_c, 5, 40, 84
6, 756000, Note_on_c, 5, 52, 84
6, 756190, Note_off_c, 5, 52, 0
6, 756190, Note_off_c, 5, 40, 0
6, 756240, Note_on_c, 5, 48, 85
6, 756240, Note_on_c, 5, 36, 85
6, 756430, Note_off_c, 5, 36, 0
6, 756430, Note_off_c, 5, 48, 0
6, 756480, Note_on_c, 5, 55, 86
6, 756480, Note_on_c, 5, 43, 86
6, 756670, Note_off_c, 5, 43, 0
6, 756670, Note_off_c, 5, 55, 0
6, 756720, Note_on_c, 5, 55, 87
6, 756910, Note_off_c, 5, 55, 0
6, 756960, Note_on_c, 5, 55, 87
6, 757150, Note_off_c, 5, 55, 0
6, 757200, Note_on_c, 5, 55, 88
6, 757390, Note_off_c, 5, 55, 0
6, 757440, Note_on_c, 5, 48, 89
6, 757825, Note_off_c, 5, 48, 0
6, 758160, Note_on_c, 5, 55, 91
6, 758350, Note_off_c, 5, 55, 0
6, 758400, Note_on_c, 5, 60, 92
6, 758785, Note_off_c, 5, 60, 0
6, 759120, Note_on_c, 5, 55, 94
6, 759310, Note_off_c, 5, 55, 0
6, 759360, Note_on_c, 5, 60, 95
6, 759550, Note_off_c, 5, 60, 0
6, 759600, Note_on_c, 5, 48, 95
6, 759660, Note_off_c, 5, 48, 0
6, 759680, Note_on_c, 5, 52, 96
6, 759740, Note_off_c, 5, 52, 0
6, 759760, Note_on_c, 5, 55, 96
6, 759820, Note_off_c, 5, 55, 0
6, 759840, Note_on_c, 5, 52, 96
6, 759900, Note_off_c, 5, 52, 0
6, 759920, Note_on_c, 5, 55, 96
6, 759980, Note_off_c, 5, 55, 0
6, 760000, Note_on_c, 5, 60, 97
6, 760060, Note_off_c, 5, 60, 0
6, 760080, Note_on_c, 5, 55, 97
6, 760140, Note_off_c, 5, 55, 0
6, 760160, Note_on_c, 5, 59, 97
6, 760220, Note_off_c, 5, 59, 0
6, 760240, Note_on_c, 5, 62, 97
6, 760305, Note_off_c, 5, 62, 0
6, 760320, Note_on_c, 5, 60, 98
6, 760380, Note_off_c, 5, 60, 0
6, 760400, Note_on_c, 5, 64, 98
6, 760460, Note_off_c, 5, 64, 0
6, 760480, Note_on_c, 5, 67, 98
6, 760540, Note_off_c, 5, 67, 0
6, 760560, Note_on_c, 5, 48, 98
6, 760620, Note_off_c, 5, 48, 0
6, 760640, Note_on_c, 5, 52, 99
6, 760700, Note_off_c, 5, 52, 0
6, 760720, Note_on_c, 5, 55, 99
6, 760780, Note_off_c, 5, 55, 0
6, 760800, Note_on_c, 5, 52, 99
6, 760860, Note_off_c, 5, 52, 0
6, 760880, Note_on_c, 5, 55, 99
6, 760940, Note_off_c, 5, 55, 0
6, 760960, Note_on_c, 5, 60, 100
6, 761020, Note_off_c, 5, 60, 0
6, 761040, Note_on_c, 5, 55, 100
6, 761100, Note_off_c, 5, 55, 0
6, 761120, Note_on_c, 5, 59, 100
6, 761180, Note_off_c, 5, 59, 0
6, 761200, Note_on_c, 5, 62, 100
6, 761260, Note_off_c, 5, 62, 0
6, 761280, Note_on_c, 5, 60, 101
6, 761760, Note_off_c, 5, 60, 0
6, 762180, Control_c, 5, 64, 0
6, 762240, Control_c, 5, 64, 127
6, 762240, Note_on_c, 5, 36, 40
6, 762360, Note_off_c, 5, 36, 0
6, 763140, Control_c, 5, 64, 0
6, 763200, Control_c, 5, 64, 127
6, 763200, Note_on_c, 5, 36, 41
6, 763320, Note_off_c, 5, 36, 0
6, 764100, Control_c, 5, 64, 0
6, 764160, Control_c, 5, 64, 127
6, 764160, Note_on_c, 5, 36, 43
6, 764280, Note_off_c, 5, 36, 0
6, 765060, Control_c, 5, 64, 0
6, 765120, Control_c, 5, 64, 127
6, 765120, Note_on_c, 5, 36, 44
6, 765240, Note_off_c, 5, 36, 0
6, 766020, Control_c, 5, 64, 0
6, 766080, Control_c, 5, 64, 127
6, 766080, Note_on_c, 5, 36, 45
6, 766200, Note_off_c, 5, 36, 0
6, 766980, Control_c, 5, 64, 0
6, 767040, Control_c, 5, 64, 127
6, 767040, Note_on_c, 5, 36, 39
6, 767160, Note_off_c, 5, 36, 0
6, 767940, Control_c, 5, 64, 0
6, 768000, Control_c, 5, 64, 127
6, 768000, Note_on_c, 5, 36, 33
6, 768120, Note_off_c, 5, 36, 0
6, 768900, Control_c, 5, 64, 0
6, 768960, Note_on_c, 5, 36, 23
6, 769440, Note_off_c, 5, 36, 0
6, 769440, End_track
0, 0, End_of_file