0, 0, Header, 1, 12, 120
1, 0, Start_track
1, 0, Title_t, "untitled"
1, 0, Copyright_t, "Copyright \251 2001 by Petr Cvikl"
1, 0, Text_t, "Petr Cvikl"
1, 0, Time_signature, 2, 2, 24, 8
1, 0, Key_signature, 2, "major"
1, 0, Tempo, 315789
1, 7200, Marker_t, "A"
1, 14880, Marker_t, "B"
1, 18540, Tempo, 315789
1, 26160, Marker_t, "C"
1, 35554, Tempo, 317628
1, 35573, Tempo, 319217
1, 35589, Tempo, 320821
1, 35605, Tempo, 322442
1, 35624, Tempo, 324079
1, 35640, Tempo, 325733
1, 35655, Tempo, 327404
1, 35671, Tempo, 329092
1, 35690, Tempo, 330797
1, 35706, Tempo, 332521
1, 35722, Tempo, 334262
1, 35741, Tempo, 336022
1, 35756, Tempo, 337800
1, 35772, Tempo, 339597
1, 35788, Tempo, 341413
1, 35807, Tempo, 343249
1, 35823, Tempo, 345105
1, 35838, Tempo, 346981
1, 35854, Tempo, 348878
1, 35873, Tempo, 350795
1, 35889, Tempo, 352734
1, 35905, Tempo, 354694
1, 35924, Tempo, 356676
1, 35940, Tempo, 358680
1, 35955, Tempo, 360707
1, 35971, Tempo, 362757
1, 35990, Tempo, 364830
1, 36006, Tempo, 366928
1, 36022, Tempo, 369049
1, 36037, Tempo, 371195
1, 36056, Tempo, 373367
1, 36072, Tempo, 375563
1, 36088, Tempo, 377786
1, 36096, Tempo, 377786
1, 36103, Tempo, 375563
1, 36106, Tempo, 373367
1, 36109, Tempo, 371195
1, 36112, Tempo, 369049
1, 36119, Tempo, 366928
1, 36122, Tempo, 364830
1, 36125, Tempo, 362757
1, 36128, Tempo, 360707
1, 36134, Tempo, 358680
1, 36138, Tempo, 356676
1, 36141, Tempo, 354694
1, 36144, Tempo, 352734
1, 36150, Tempo, 350795
1, 36153, Tempo, 348878
1, 36156, Tempo, 346981
1, 36160, Tempo, 345105
1, 36166, Tempo, 343249
1, 36169, Tempo, 341413
1, 36172, Tempo, 339597
1, 36175, Tempo, 337800
1, 36182, Tempo, 336022
1, 36185, Tempo, 334262
1, 36188, Tempo, 332521
1, 36191, Tempo, 330797
1, 36198, Tempo, 329092
1, 36201, Tempo, 327404
1, 36204, Tempo, 325733
1, 36207, Tempo, 324079
1, 36213, Tempo, 322442
1, 36216, Tempo, 320821
1, 36220, Tempo, 319217
1, 36223, Tempo, 317628
1, 36226, Tempo, 316056
1, 36240, Tempo, 315789
1, 43920, Marker_t, "D"
1, 54480, Marker_t, "E"
1, 62160, Marker_t, "F"
1, 62400, Tempo, 315789
1, 65820, Tempo, 315789
1, 73440, Marker_t, "G"
1, 83207, Tempo, 316056
1, 83220, Tempo, 317628
1, 83232, Tempo, 319217
1, 83242, Tempo, 320821
1, 83254, Tempo, 322442
1, 83264, Tempo, 324079
1, 83276, Tempo, 325733
1, 83286, Tempo, 327404
1, 83298, Tempo, 329092
1, 83311, Tempo, 330797
1, 83321, Tempo, 332521
1, 83333, Tempo, 334262
1, 83343, Tempo, 336022
1, 83355, Tempo, 337800
1, 83365, Tempo, 339597
1, 83377, Tempo, 341413
1, 83390, Tempo, 343249
1, 83400, Tempo, 345105
1, 83412, Tempo, 346981
1, 83422, Tempo, 348878
1, 83434, Tempo, 350795
1, 83444, Tempo, 352734
1, 83456, Tempo, 354694
1, 83469, Tempo, 356676
1, 83478, Tempo, 358680
1, 83491, Tempo, 360707
1, 83501, Tempo, 362757
1, 83513, Tempo, 364830
1, 83523, Tempo, 366928
1, 83535, Tempo, 369049
1, 83548, Tempo, 371195
1, 83557, Tempo, 373367
1, 83570, Tempo, 375563
1, 83580, Tempo, 377786
1, 83592, Tempo, 380035
1, 83602, Tempo, 382312
1, 83605, Tempo, 382312
1, 83614, Tempo, 384615
1, 83621, Tempo, 386947
1, 83627, Tempo, 389307
1, 83636, Tempo, 391696
1, 83643, Tempo, 394115
1, 83649, Tempo, 396563
1, 83655, Tempo, 399042
1, 83665, Tempo, 401553
1, 83671, Tempo, 404095
1, 83677, Tempo, 406669
1, 83684, Tempo, 409277
1, 83693, Tempo, 411918
1, 83700, Tempo, 414594
1, 83706, Tempo, 417304
1, 83712, Tempo, 420050
1, 83722, Tempo, 422833
1, 83728, Tempo, 425653
1, 83734, Tempo, 428510
1, 83741, Tempo, 431406
1, 83750, Tempo, 434342
1, 83753, Tempo, 446495
1, 83756, Tempo, 449640
1, 83760, Tempo, 452830
1, 83763, Tempo, 456066
1, 83766, Tempo, 459348
1, 83769, Tempo, 462677
1, 83772, Tempo, 466056
1, 83775, Tempo, 469484
1, 83778, Tempo, 472962
1, 83782, Tempo, 476493
1, 83785, Tempo, 480077
1, 83788, Tempo, 483715
1, 83791, Tempo, 487409
1, 83794, Tempo, 491159
1, 83797, Tempo, 494968
1, 83801, Tempo, 502765
1, 83804, Tempo, 506757
1, 83807, Tempo, 510812
1, 83810, Tempo, 514933
1, 83813, Tempo, 519121
1, 83816, Tempo, 523378
1, 83820, Tempo, 527704
1, 83823, Tempo, 532104
1, 83826, Tempo, 536577
1, 83829, Tempo, 541126
1, 83832, Tempo, 545752
1, 83835, Tempo, 550459
1, 83838, Tempo, 555247
1, 83842, Tempo, 560119
1, 83845, Tempo, 565078
1, 83848, Tempo, 575264
1, 83851, Tempo, 580495
1, 83854, Tempo, 585823
1, 83857, Tempo, 591250
1, 83861, Tempo, 596777
1, 83864, Tempo, 602410
1, 83867, Tempo, 608149
1, 83870, Tempo, 613999
1, 83873, Tempo, 619963
1, 83876, Tempo, 626043
1, 83880, Tempo, 632244
1, 83883, Tempo, 638570
1, 83886, Tempo, 645023
1, 83889, Tempo, 651607
1, 83892, Tempo, 658328
1, 83895, Tempo, 672194
1, 83898, Tempo, 506757
1, 83905, Tempo, 510812
1, 83914, Tempo, 514933
1, 83921, Tempo, 519121
1, 83927, Tempo, 523378
1, 83933, Tempo, 527704
1, 83933, End_track
2, 0, Start_track
2, 0, MIDI_port, 0
2, 0, Title_t, "Flauti"
2, 0, Program_c, 0, 73
2, 0, Control_c, 0, 7, 100
2, 0, Control_c, 0, 10, 80
2, 840, Note_on_c, 0, 83, 50
2, 840, Note_on_c, 0, 81, 50
2, 900, Note_on_c, 0, 81, 0
2, 900, Note_on_c, 0, 83, 0
2, 960, Note_on_c, 0, 79, 50
2, 960, Note_on_c, 0, 83, 50
2, 1020, Note_on_c, 0, 83, 0
2, 1020, Note_on_c, 0, 79, 0
2, 1080, Note_on_c, 0, 83, 50
2, 1080, Note_on_c, 0, 81, 50
2, 1140, Note_on_c, 0, 81, 0
2, 1140, Note_on_c, 0, 83, 0
2, 1200, Note_on_c, 0, 79, 50
2, 1200, Note_on_c, 0, 83, 50
2, 1260, Note_on_c, 0, 83, 0
2, 1260, Note_on_c, 0, 79, 0
2, 1320, Note_on_c, 0, 81, 50
2, 1320, Note_on_c, 0, 83, 50
2, 1380, Note_on_c, 0, 83, 0
2, 1380, Note_on_c, 0, 81, 0
2, 1440, Note_on_c, 0, 79, 50
2, 1440, Note_on_c, 0, 83, 50
2, 1500, Note_on_c, 0, 83, 0
2, 1500, Note_on_c, 0, 79, 0
2, 1560, Note_on_c, 0, 83, 50
2, 1560, Note_on_c, 0, 81, 50
2, 1620, Note_on_c, 0, 81, 0
2, 1620, Note_on_c, 0, 83, 0
2, 1680, Note_on_c, 0, 83, 50
2, 1680, Note_on_c, 0, 79, 50
2, 1740, Note_on_c, 0, 79, 0
2, 1740, Note_on_c, 0, 83, 0
2, 2760, Note_on_c, 0, 85, 50
2, 2760, Note_on_c, 0, 81, 50
2, 2820, Note_on_c, 0, 81, 0
2, 2820, Note_on_c, 0, 85, 0
2, 2880, Note_on_c, 0, 81, 50
2, 2880, Note_on_c, 0, 86, 50
2, 2940, Note_on_c, 0, 86, 0
2, 2940, Note_on_c, 0, 81, 0
2, 3000, Note_on_c, 0, 81, 50
2, 3000, Note_on_c, 0, 85, 50
2, 3060, Note_on_c, 0, 85, 0
2, 3060, Note_on_c, 0, 81, 0
2, 3120, Note_on_c, 0, 81, 50
2, 3120, Note_on_c, 0, 86, 50
2, 3180, Note_on_c, 0, 86, 0
2, 3180, Note_on_c, 0, 81, 0
2, 3240, Note_on_c, 0, 81, 50
2, 3240, Note_on_c, 0, 85, 50
2, 3300, Note_on_c, 0, 85, 0
2, 3300, Note_on_c, 0, 81, 0
2, 3360, Note_on_c, 0, 81, 50
2, 3360, Note_on_c, 0, 86, 50
2, 3420, Note_on_c, 0, 86, 0
2, 3420, Note_on_c, 0, 81, 0
2, 3480, Note_on_c, 0, 81, 50
2, 3480, Note_on_c, 0, 85, 50
2, 3540, Note_on_c, 0, 85, 0
2, 3540, Note_on_c, 0, 81, 0
2, 3600, Note_on_c, 0, 81, 50
2, 3600, Note_on_c, 0, 86, 50
2, 3660, Note_on_c, 0, 86, 0
2, 3660, Note_on_c, 0, 81, 0
2, 4080, Note_on_c, 0, 83, 100
2, 4080, Note_on_c, 0, 79, 100
2, 4320, Note_on_c, 0, 79, 0
2, 4320, Note_on_c, 0, 83, 0
2, 4320, Note_on_c, 0, 78, 100
2, 4320, Note_on_c, 0, 81, 100
2, 4410, Note_on_c, 0, 81, 0
2, 4410, Note_on_c, 0, 78, 0
2, 4560, Note_on_c, 0, 85, 100
2, 4560, Note_on_c, 0, 81, 100
2, 4800, Note_on_c, 0, 81, 0
2, 4800, Note_on_c, 0, 85, 0
2, 4800, Note_on_c, 0, 86, 100
2, 4800, Note_on_c, 0, 81, 100
2, 4890, Note_on_c, 0, 81, 0
2, 4890, Note_on_c, 0, 86, 0
2, 5040, Note_on_c, 0, 83, 100
2, 5040, Note_on_c, 0, 79, 100
2, 5280, Note_on_c, 0, 79, 0
2, 5280, Note_on_c, 0, 83, 0
2, 5280, Note_on_c, 0, 78, 100
2, 5280, Note_on_c, 0, 81, 100
2, 5370, Note_on_c, 0, 81, 0
2, 5370, Note_on_c, 0, 78, 0
2, 5520, Note_on_c, 0, 85, 100
2, 5520, Note_on_c, 0, 81, 100
2, 5760, Note_on_c, 0, 81, 0
2, 5760, Note_on_c, 0, 85, 0
2, 5760, Note_on_c, 0, 86, 100
2, 5760, Note_on_c, 0, 81, 100
2, 5850, Note_on_c, 0, 81, 0
2, 5850, Note_on_c, 0, 86, 0
2, 5880, Note_on_c, 0, 81, 100
2, 6000, Note_on_c, 0, 81, 0
2, 6000, Note_on_c, 0, 90, 100
2, 6120, Note_on_c, 0, 90, 0
2, 6120, Note_on_c, 0, 86, 100
2, 6240, Note_on_c, 0, 86, 0
2, 6240, Note_on_c, 0, 88, 100
2, 6240, Note_on_c, 0, 85, 100
2, 6285, Note_on_c, 0, 85, 0
2, 6285, Note_on_c, 0, 88, 0
2, 6300, Note_on_c, 0, 88, 100
2, 6300, Note_on_c, 0, 85, 100
2, 6345, Note_on_c, 0, 85, 0
2, 6345, Note_on_c, 0, 88, 0
2, 6360, Note_on_c, 0, 90, 100
2, 6360, Note_on_c, 0, 86, 100
2, 6405, Note_on_c, 0, 86, 0
2, 6405, Note_on_c, 0, 90, 0
2, 6420, Note_on_c, 0, 90, 100
2, 6420, Note_on_c, 0, 86, 100
2, 6465, Note_on_c, 0, 86, 0
2, 6465, Note_on_c, 0, 90, 0
2, 6480, Note_on_c, 0, 88, 100
2, 6480, Note_on_c, 0, 85, 100
2, 6525, Note_on_c, 0, 85, 0
2, 6525, Note_on_c, 0, 88, 0
2, 6540, Note_on_c, 0, 88, 100
2, 6540, Note_on_c, 0, 85, 100
2, 6585, Note_on_c, 0, 85, 0
2, 6585, Note_on_c, 0, 88, 0
2, 6600, Note_on_c, 0, 90, 100
2, 6600, Note_on_c, 0, 86, 100
2, 6645, Note_on_c, 0, 86, 0
2, 6645, Note_on_c, 0, 90, 0
2, 6660, Note_on_c, 0, 90, 100
2, 6660, Note_on_c, 0, 86, 100
2, 6705, Note_on_c, 0, 86, 0
2, 6705, Note_on_c, 0, 90, 0
2, 6720, Note_on_c, 0, 88, 100
2, 6720, Note_on_c, 0, 85, 100
2, 6765, Note_on_c, 0, 85, 0
2, 6765, Note_on_c, 0, 88, 0
2, 6780, Note_on_c, 0, 81, 100
2, 6825, Note_on_c, 0, 81, 0
2, 6840, Note_on_c, 0, 81, 100
2, 6885, Note_on_c, 0, 81, 0
2, 6900, Note_on_c, 0, 81, 100
2, 6945, Note_on_c, 0, 81, 0
2, 6960, Note_on_c, 0, 81, 100
2, 7080, Note_on_c, 0, 81, 0
2, 7260, Note_on_c, 0, 74, 50
2, 7290, Note_on_c, 0, 74, 0
2, 7320, Note_on_c, 0, 77, 50
2, 7350, Note_on_c, 0, 77, 0
2, 7380, Note_on_c, 0, 74, 50
2, 7410, Note_on_c, 0, 74, 0
2, 7440, Note_on_c, 0, 81, 50
2, 7740, Note_on_c, 0, 81, 0
2, 7740, Note_on_c, 0, 79, 50
2, 7860, Note_on_c, 0, 79, 0
2, 7860, Note_on_c, 0, 77, 50
2, 7980, Note_on_c, 0, 77, 0
2, 7980, Note_on_c, 0, 76, 50
2, 8100, Note_on_c, 0, 76, 0
2, 8100, Note_on_c, 0, 74, 50
2, 8160, Note_on_c, 0, 74, 0
2, 8160, Note_on_c, 0, 74, 50
2, 8220, Note_on_c, 0, 74, 0
2, 8220, Note_on_c, 0, 72, 50
2, 8250, Note_on_c, 0, 72, 0
2, 8340, Note_on_c, 0, 74, 50
2, 8400, Note_on_c, 0, 74, 0
2, 8400, Note_on_c, 0, 74, 50
2, 8460, Note_on_c, 0, 74, 0
2, 8460, Note_on_c, 0, 72, 50
2, 8490, Note_on_c, 0, 72, 0
2, 8580, Note_on_c, 0, 74, 50
2, 8640, Note_on_c, 0, 74, 0
2, 8640, Note_on_c, 0, 74, 50
2, 8700, Note_on_c, 0, 74, 0
2, 8700, Note_on_c, 0, 72, 50
2, 8730, Note_on_c, 0, 72, 0
2, 8760, Note_on_c, 0, 72, 50
2, 8820, Note_on_c, 0, 72, 0
2, 8820, Note_on_c, 0, 74, 50
2, 8850, Note_on_c, 0, 74, 0
2, 8880, Note_on_c, 0, 74, 50
2, 8940, Note_on_c, 0, 74, 0
2, 8940, Note_on_c, 0, 72, 50
2, 8970, Note_on_c, 0, 72, 0
2, 9000, Note_on_c, 0, 72, 50
2, 9030, Note_on_c, 0, 72, 0
2, 9060, Note_on_c, 0, 72, 50
2, 9090, Note_on_c, 0, 72, 0
2, 9180, Note_on_c, 0, 72, 50
2, 9210, Note_on_c, 0, 72, 0
2, 9240, Note_on_c, 0, 76, 50
2, 9270, Note_on_c, 0, 76, 0
2, 9300, Note_on_c, 0, 72, 50
2, 9330, Note_on_c, 0, 72, 0
2, 9360, Note_on_c, 0, 82, 50
2, 9660, Note_on_c, 0, 82, 0
2, 9660, Note_on_c, 0, 81, 50
2, 9780, Note_on_c, 0, 81, 0
2, 9780, Note_on_c, 0, 79, 50
2, 9900, Note_on_c, 0, 79, 0
2, 9900, Note_on_c, 0, 77, 50
2, 10020, Note_on_c, 0, 77, 0
2, 10020, Note_on_c, 0, 76, 50
2, 10080, Note_on_c, 0, 76, 0
2, 10080, Note_on_c, 0, 79, 50
2, 10140, Note_on_c, 0, 79, 0
2, 10140, Note_on_c, 0, 77, 50
2, 10170, Note_on_c, 0, 77, 0
2, 10260, Note_on_c, 0, 76, 50
2, 10320, Note_on_c, 0, 76, 0
2, 10320, Note_on_c, 0, 79, 50
2, 10380, Note_on_c, 0, 79, 0
2, 10380, Note_on_c, 0, 77, 50
2, 10410, Note_on_c, 0, 77, 0
2, 10500, Note_on_c, 0, 76, 50
2, 10560, Note_on_c, 0, 76, 0
2, 10560, Note_on_c, 0, 79, 50
2, 10620, Note_on_c, 0, 79, 0
2, 10620, Note_on_c, 0, 77, 50
2, 10650, Note_on_c, 0, 77, 0
2, 10680, Note_on_c, 0, 77, 50
2, 10740, Note_on_c, 0, 77, 0
2, 10740, Note_on_c, 0, 79, 50
2, 10770, Note_on_c, 0, 79, 0
2, 10800, Note_on_c, 0, 79, 50
2, 10860, Note_on_c, 0, 79, 0
2, 10860, Note_on_c, 0, 77, 50
2, 10890, Note_on_c, 0, 77, 0
2, 10920, Note_on_c, 0, 77, 50
2, 10950, Note_on_c, 0, 77, 0
2, 10980, Note_on_c, 0, 77, 50
2, 11010, Note_on_c, 0, 77, 0
2, 11040, Note_on_c, 0, 84, 100
2, 11040, Note_on_c, 0, 81, 100
2, 11340, Note_on_c, 0, 81, 0
2, 11340, Note_on_c, 0, 84, 0
2, 11340, Note_on_c, 0, 81, 100
2, 11340, Note_on_c, 0, 84, 100
2, 11370, Note_on_c, 0, 84, 0
2, 11370, Note_on_c, 0, 81, 0
2, 11400, Note_on_c, 0, 81, 100
2, 11400, Note_on_c, 0, 84, 100
2, 11430, Note_on_c, 0, 84, 0
2, 11430, Note_on_c, 0, 81, 0
2, 11460, Note_on_c, 0, 81, 100
2, 11460, Note_on_c, 0, 84, 100
2, 11490, Note_on_c, 0, 84, 0
2, 11490, Note_on_c, 0, 81, 0
2, 11520, Note_on_c, 0, 84, 100
2, 11520, Note_on_c, 0, 81, 100
2, 11820, Note_on_c, 0, 81, 0
2, 11820, Note_on_c, 0, 84, 0
2, 11820, Note_on_c, 0, 84, 100
2, 11820, Note_on_c, 0, 81, 100
2, 11850, Note_on_c, 0, 81, 0
2, 11850, Note_on_c, 0, 84, 0
2, 11880, Note_on_c, 0, 84, 100
2, 11880, Note_on_c, 0, 81, 100
2, 11910, Note_on_c, 0, 81, 0
2, 11910, Note_on_c, 0, 84, 0
2, 11940, Note_on_c, 0, 84, 100
2, 11940, Note_on_c, 0, 81, 100
2, 11970, Note_on_c, 0, 81, 0
2, 11970, Note_on_c, 0, 84, 0
2, 12000, Note_on_c, 0, 84, 100
2, 12000, Note_on_c, 0, 81, 100
2, 12300, Note_on_c, 0, 81, 0
2, 12300, Note_on_c, 0, 84, 0
2, 12300, Note_on_c, 0, 84, 100
2, 12300, Note_on_c, 0, 81, 100
2, 12330, Note_on_c, 0, 81, 0
2, 12330, Note_on_c, 0, 84, 0
2, 12360, Note_on_c, 0, 84, 100
2, 12360, Note_on_c, 0, 81, 100
2, 12390, Note_on_c, 0, 81, 0
2, 12390, Note_on_c, 0, 84, 0
2, 12420, Note_on_c, 0, 84, 100
2, 12420, Note_on_c, 0, 81, 100
2, 12450, Note_on_c, 0, 81, 0
2, 12450, Note_on_c, 0, 84, 0
2, 12480, Note_on_c, 0, 84, 100
2, 12480, Note_on_c, 0, 81, 100
2, 12780, Note_on_c, 0, 81, 0
2, 12780, Note_on_c, 0, 84, 0
2, 12780, Note_on_c, 0, 84, 100
2, 12780, Note_on_c, 0, 81, 100
2, 12810, Note_on_c, 0, 81, 0
2, 12810, Note_on_c, 0, 84, 0
2, 12840, Note_on_c, 0, 84, 100
2, 12840, Note_on_c, 0, 81, 100
2, 12870, Note_on_c, 0, 81, 0
2, 12870, Note_on_c, 0, 84, 0
2, 12900, Note_on_c, 0, 84, 100
2, 12900, Note_on_c, 0, 81, 100
2, 12930, Note_on_c, 0, 81, 0
2, 12930, Note_on_c, 0, 84, 0
2, 12960, Note_on_c, 0, 83, 100
2, 12960, Note_on_c, 0, 80, 100
2, 13080, Note_on_c, 0, 80, 0
2, 13080, Note_on_c, 0, 83, 0
2, 13080, Note_on_c, 0, 86, 100
2, 13080, Note_on_c, 0, 83, 100
2, 13200, Note_on_c, 0, 83, 0
2, 13200, Note_on_c, 0, 86, 0
2, 13200, Note_on_c, 0, 81, 100
2, 13200, Note_on_c, 0, 84, 100
2, 13320, Note_on_c, 0, 84, 0
2, 13320, Note_on_c, 0, 81, 0
2, 13320, Note_on_c, 0, 87, 100
2, 13320, Note_on_c, 0, 84, 100
2, 13440, Note_on_c, 0, 84, 0
2, 13440, Note_on_c, 0, 87, 0
2, 13440, Note_on_c, 0, 83, 100
2, 13440, Note_on_c, 0, 88, 100
2, 13560, Note_on_c, 0, 88, 0
2, 13560, Note_on_c, 0, 86, 100
2, 13680, Note_on_c, 0, 86, 0
2, 13680, Note_on_c, 0, 83, 0
2, 13680, Note_on_c, 0, 81, 100
2, 13680, Note_on_c, 0, 84, 100
2, 13800, Note_on_c, 0, 84, 0
2, 13800, Note_on_c, 0, 81, 0
2, 13800, Note_on_c, 0, 87, 100
2, 13800, Note_on_c, 0, 84, 100
2, 13920, Note_on_c, 0, 84, 0
2, 13920, Note_on_c, 0, 87, 0
2, 13920, Note_on_c, 0, 83, 100
2, 13920, Note_on_c, 0, 88, 100
2, 13980, Note_on_c, 0, 88, 0
2, 13980, Note_on_c, 0, 83, 0
2, 14040, Note_on_c, 0, 88, 100
2, 14070, Note_on_c, 0, 88, 0
2, 14100, Note_on_c, 0, 86, 100
2, 14130, Note_on_c, 0, 86, 0
2, 14160, Note_on_c, 0, 84, 100
2, 14220, Note_on_c, 0, 84, 0
2, 14220, Note_on_c, 0, 88, 100
2, 14280, Note_on_c, 0, 88, 0
2, 14280, Note_on_c, 0, 84, 100
2, 14340, Note_on_c, 0, 84, 0
2, 14340, Note_on_c, 0, 81, 100
2, 14400, Note_on_c, 0, 81, 0
2, 14400, Note_on_c, 0, 80, 100
2, 14460, Note_on_c, 0, 80, 0
2, 14460, Note_on_c, 0, 83, 100
2, 14520, Note_on_c, 0, 83, 0
2, 14520, Note_on_c, 0, 88, 100
2, 14580, Note_on_c, 0, 88, 0
2, 14580, Note_on_c, 0, 86, 100
2, 14640, Note_on_c, 0, 86, 0
2, 14640, Note_on_c, 0, 84, 100
2, 14700, Note_on_c, 0, 84, 0
2, 14700, Note_on_c, 0, 88, 100
2, 14760, Note_on_c, 0, 88, 0
2, 14760, Note_on_c, 0, 85, 100
2, 14820, Note_on_c, 0, 85, 0
2, 14820, Note_on_c, 0, 81, 100
2, 14880, Note_on_c, 0, 81, 0
2, 14880, Note_on_c, 0, 88, 100
2, 14880, Note_on_c, 0, 76, 100
2, 15000, Note_on_c, 0, 76, 0
2, 15000, Note_on_c, 0, 88, 0
2, 17520, Note_on_c, 0, 81, 60
2, 17700, Note_on_c, 0, 81, 0
2, 17700, Note_on_c, 0, 82, 60
2, 17760, Note_on_c, 0, 82, 0
2, 17760, Note_on_c, 0, 83, 60
2, 17820, Note_on_c, 0, 83, 0
2, 17820, Note_on_c, 0, 85, 60
2, 17880, Note_on_c, 0, 85, 0
2, 17880, Note_on_c, 0, 86, 60
2, 17940, Note_on_c, 0, 86, 0
2, 17940, Note_on_c, 0, 80, 60
2, 18000, Note_on_c, 0, 80, 0
2, 18000, Note_on_c, 0, 81, 60
2, 18180, Note_on_c, 0, 81, 0
2, 18180, Note_on_c, 0, 82, 60
2, 18240, Note_on_c, 0, 82, 0
2, 18240, Note_on_c, 0, 83, 60
2, 18300, Note_on_c, 0, 83, 0
2, 18300, Note_on_c, 0, 85, 60
2, 18360, Note_on_c, 0, 85, 0
2, 18360, Note_on_c, 0, 86, 60
2, 18420, Note_on_c, 0, 86, 0
2, 18420, Note_on_c, 0, 80, 60
2, 18480, Note_on_c, 0, 80, 0
2, 18480, Note_on_c, 0, 81, 60
2, 18540, Note_on_c, 0, 81, 0
2, 19440, Note_on_c, 0, 85, 50
2, 19440, Note_on_c, 0, 76, 50
2, 19620, Note_on_c, 0, 76, 0
2, 19620, Note_on_c, 0, 85, 0
2, 19620, Note_on_c, 0, 86, 50
2, 19620, Note_on_c, 0, 78, 50
2, 19680, Note_on_c, 0, 78, 0
2, 19680, Note_on_c, 0, 86, 0
2, 19680, Note_on_c, 0, 78, 50
2, 19680, Note_on_c, 0, 86, 50
2, 19740, Note_on_c, 0, 86, 0
2, 19740, Note_on_c, 0, 78, 0
2, 19740, Note_on_c, 0, 76, 50
2, 19740, Note_on_c, 0, 85, 50
2, 19770, Note_on_c, 0, 85, 0
2, 19770, Note_on_c, 0, 76, 0
2, 19800, Note_on_c, 0, 76, 50
2, 19800, Note_on_c, 0, 85, 50
2, 19830, Note_on_c, 0, 85, 0
2, 19830, Note_on_c, 0, 76, 0
2, 19860, Note_on_c, 0, 76, 50
2, 19860, Note_on_c, 0, 85, 50
2, 19890, Note_on_c, 0, 85, 0
2, 19890, Note_on_c, 0, 76, 0
2, 19920, Note_on_c, 0, 76, 50
2, 19920, Note_on_c, 0, 85, 50
2, 19980, Note_on_c, 0, 85, 0
2, 19980, Note_on_c, 0, 76, 0
2, 19980, Note_on_c, 0, 83, 50
2, 19980, Note_on_c, 0, 74, 50
2, 20010, Note_on_c, 0, 74, 0
2, 20010, Note_on_c, 0, 83, 0
2, 20040, Note_on_c, 0, 83, 50
2, 20040, Note_on_c, 0, 74, 50
2, 20070, Note_on_c, 0, 74, 0
2, 20070, Note_on_c, 0, 83, 0
2, 20100, Note_on_c, 0, 83, 50
2, 20100, Note_on_c, 0, 74, 50
2, 20130, Note_on_c, 0, 74, 0
2, 20130, Note_on_c, 0, 83, 0
2, 20160, Note_on_c, 0, 74, 50
2, 20160, Note_on_c, 0, 83, 50
2, 20220, Note_on_c, 0, 83, 0
2, 20220, Note_on_c, 0, 74, 0
2, 20220, Note_on_c, 0, 81, 50
2, 20220, Note_on_c, 0, 73, 50
2, 20250, Note_on_c, 0, 73, 0
2, 20250, Note_on_c, 0, 81, 0
2, 20280, Note_on_c, 0, 81, 50
2, 20280, Note_on_c, 0, 73, 50
2, 20310, Note_on_c, 0, 73, 0
2, 20310, Note_on_c, 0, 81, 0
2, 20340, Note_on_c, 0, 81, 50
2, 20340, Note_on_c, 0, 73, 50
2, 20370, Note_on_c, 0, 73, 0
2, 20370, Note_on_c, 0, 81, 0
2, 21360, Note_on_c, 0, 81, 60
2, 21540, Note_on_c, 0, 81, 0
2, 21540, Note_on_c, 0, 82, 60
2, 21600, Note_on_c, 0, 82, 0
2, 21600, Note_on_c, 0, 83, 60
2, 21660, Note_on_c, 0, 83, 0
2, 21660, Note_on_c, 0, 85, 60
2, 21720, Note_on_c, 0, 85, 0
2, 21720, Note_on_c, 0, 86, 60
2, 21780, Note_on_c, 0, 86, 0
2, 21780, Note_on_c, 0, 80, 60
2, 21840, Note_on_c, 0, 80, 0
2, 21840, Note_on_c, 0, 81, 60
2, 22020, Note_on_c, 0, 81, 0
2, 22020, Note_on_c, 0, 82, 60
2, 22080, Note_on_c, 0, 82, 0
2, 22080, Note_on_c, 0, 83, 60
2, 22140, Note_on_c, 0, 83, 0
2, 22140, Note_on_c, 0, 85, 60
2, 22200, Note_on_c, 0, 85, 0
2, 22200, Note_on_c, 0, 86, 60
2, 22260, Note_on_c, 0, 86, 0
2, 22260, Note_on_c, 0, 80, 60
2, 22320, Note_on_c, 0, 80, 0
2, 22320, Note_on_c, 0, 81, 60
2, 22380, Note_on_c, 0, 81, 0
2, 23340, Note_on_c, 0, 81, 60
2, 23370, Note_on_c, 0, 81, 0
2, 23400, Note_on_c, 0, 85, 60
2, 23430, Note_on_c, 0, 85, 0
2, 23460, Note_on_c, 0, 81, 60
2, 23490, Note_on_c, 0, 81, 0
2, 23520, Note_on_c, 0, 88, 60
2, 23820, Note_on_c, 0, 88, 0
2, 23820, Note_on_c, 0, 86, 60
2, 23940, Note_on_c, 0, 86, 0
2, 23940, Note_on_c, 0, 85, 60
2, 24060, Note_on_c, 0, 85, 0
2, 24060, Note_on_c, 0, 83, 60
2, 24180, Note_on_c, 0, 83, 0
2, 24180, Note_on_c, 0, 81, 60
2, 24240, Note_on_c, 0, 81, 0
2, 24240, Note_on_c, 0, 80, 60
2, 24480, Note_on_c, 0, 80, 0
2, 24480, Note_on_c, 0, 83, 60
2, 24540, Note_on_c, 0, 83, 0
2, 24540, Note_on_c, 0, 81, 60
2, 24600, Note_on_c, 0, 81, 0
2, 24600, Note_on_c, 0, 80, 60
2, 24660, Note_on_c, 0, 80, 0
2, 24660, Note_on_c, 0, 78, 60
2, 24720, Note_on_c, 0, 78, 0
2, 24720, Note_on_c, 0, 76, 60
2, 24780, Note_on_c, 0, 76, 0
2, 24780, Note_on_c, 0, 81, 60
2, 24840, Note_on_c, 0, 81, 0
2, 24840, Note_on_c, 0, 78, 60
2, 24900, Note_on_c, 0, 78, 0
2, 24900, Note_on_c, 0, 74, 60
2, 24960, Note_on_c, 0, 74, 0
2, 24960, Note_on_c, 0, 73, 60
2, 25080, Note_on_c, 0, 73, 0
2, 25080, Note_on_c, 0, 71, 60
2, 25200, Note_on_c, 0, 71, 0
2, 25200, Note_on_c, 0, 69, 60
2, 25320, Note_on_c, 0, 69, 0
2, 26160, Note_on_c, 0, 81, 100
2, 26160, Note_on_c, 0, 86, 100
2, 26400, Note_on_c, 0, 86, 0
2, 26400, Note_on_c, 0, 85, 100
2, 26640, Note_on_c, 0, 85, 0
2, 26640, Note_on_c, 0, 86, 100
2, 26880, Note_on_c, 0, 86, 0
2, 26880, Note_on_c, 0, 85, 100
2, 27120, Note_on_c, 0, 85, 0
2, 27120, Note_on_c, 0, 86, 100
2, 27360, Note_on_c, 0, 86, 0
2, 27360, Note_on_c, 0, 85, 100
2, 27600, Note_on_c, 0, 85, 0
2, 27600, Note_on_c, 0, 81, 0
2, 27600, Note_on_c, 0, 86, 100
2, 27600, Note_on_c, 0, 81, 100
2, 28080, Note_on_c, 0, 81, 0
2, 28080, Note_on_c, 0, 83, 100
2, 28200, Note_on_c, 0, 83, 0
2, 28200, Note_on_c, 0, 86, 0
2, 28200, Note_on_c, 0, 85, 100
2, 28200, Note_on_c, 0, 81, 100
2, 28320, Note_on_c, 0, 81, 0
2, 28320, Note_on_c, 0, 85, 0
2, 28320, Note_on_c, 0, 86, 100
2, 28320, Note_on_c, 0, 83, 100
2, 28440, Note_on_c, 0, 83, 0
2, 28440, Note_on_c, 0, 86, 0
2, 28440, Note_on_c, 0, 83, 100
2, 28440, Note_on_c, 0, 80, 100
2, 28560, Note_on_c, 0, 80, 0
2, 28560, Note_on_c, 0, 83, 0
2, 28560, Note_on_c, 0, 81, 100
2, 28680, Note_on_c, 0, 81, 0
2, 31020, Note_on_c, 0, 85, 60
2, 31020, Note_on_c, 0, 81, 60
2, 31050, Note_on_c, 0, 81, 0
2, 31050, Note_on_c, 0, 85, 0
2, 31080, Note_on_c, 0, 88, 60
2, 31080, Note_on_c, 0, 85, 60
2, 31110, Note_on_c, 0, 85, 0
2, 31110, Note_on_c, 0, 88, 0
2, 31140, Note_on_c, 0, 81, 60
2, 31140, Note_on_c, 0, 85, 60
2, 31170, Note_on_c, 0, 85, 0
2, 31170, Note_on_c, 0, 81, 0
2, 31200, Note_on_c, 0, 90, 60
2, 31200, Note_on_c, 0, 86, 60
2, 31320, Note_on_c, 0, 86, 0
2, 31320, Note_on_c, 0, 90, 0
2, 31500, Note_on_c, 0, 81, 60
2, 31500, Note_on_c, 0, 76, 60
2, 31530, Note_on_c, 0, 76, 0
2, 31530, Note_on_c, 0, 81, 0
2, 31560, Note_on_c, 0, 85, 60
2, 31560, Note_on_c, 0, 81, 60
2, 31590, Note_on_c, 0, 81, 0
2, 31590, Note_on_c, 0, 85, 0
2, 31620, Note_on_c, 0, 76, 60
2, 31620, Note_on_c, 0, 81, 60
2, 31650, Note_on_c, 0, 81, 0
2, 31650, Note_on_c, 0, 76, 0
2, 31680, Note_on_c, 0, 83, 60
2, 31680, Note_on_c, 0, 80, 60
2, 31800, Note_on_c, 0, 80, 0
2, 31800, Note_on_c, 0, 83, 0
2, 31980, Note_on_c, 0, 85, 60
2, 31980, Note_on_c, 0, 81, 60
2, 32010, Note_on_c, 0, 81, 0
2, 32010, Note_on_c, 0, 85, 0
2, 32040, Note_on_c, 0, 88, 60
2, 32040, Note_on_c, 0, 85, 60
2, 32070, Note_on_c, 0, 85, 0
2, 32070, Note_on_c, 0, 88, 0
2, 32100, Note_on_c, 0, 81, 60
2, 32100, Note_on_c, 0, 85, 60
2, 32130, Note_on_c, 0, 85, 0
2, 32130, Note_on_c, 0, 81, 0
2, 32160, Note_on_c, 0, 90, 60
2, 32160, Note_on_c, 0, 86, 60
2, 32280, Note_on_c, 0, 86, 0
2, 32280, Note_on_c, 0, 90, 0
2, 32460, Note_on_c, 0, 76, 60
2, 32460, Note_on_c, 0, 81, 60
2, 32490, Note_on_c, 0, 81, 0
2, 32490, Note_on_c, 0, 76, 0
2, 32520, Note_on_c, 0, 81, 60
2, 32520, Note_on_c, 0, 85, 60
2, 32550, Note_on_c, 0, 85, 0
2, 32550, Note_on_c, 0, 81, 0
2, 32580, Note_on_c, 0, 81, 60
2, 32580, Note_on_c, 0, 76, 60
2, 32610, Note_on_c, 0, 76, 0
2, 32610, Note_on_c, 0, 81, 0
2, 32640, Note_on_c, 0, 83, 60
2, 32640, Note_on_c, 0, 80, 60
2, 32760, Note_on_c, 0, 80, 0
2, 32760, Note_on_c, 0, 83, 0
2, 32880, Note_on_c, 0, 81, 100
2, 33000, Note_on_c, 0, 81, 0
2, 33120, Note_on_c, 0, 81, 102
2, 33240, Note_on_c, 0, 81, 0
2, 33240, Note_on_c, 0, 81, 103
2, 33330, Note_on_c, 0, 81, 0
2, 33330, Note_on_c, 0, 81, 104
2, 33360, Note_on_c, 0, 81, 0
2, 33360, Note_on_c, 0, 81, 104
2, 33480, Note_on_c, 0, 81, 0
2, 33600, Note_on_c, 0, 85, 106
2, 33600, Note_on_c, 0, 81, 106
2, 33720, Note_on_c, 0, 81, 0
2, 33720, Note_on_c, 0, 85, 0
2, 33720, Note_on_c, 0, 85, 107
2, 33720, Note_on_c, 0, 81, 107
2, 33810, Note_on_c, 0, 81, 0
2, 33810, Note_on_c, 0, 85, 0
2, 33810, Note_on_c, 0, 85, 108
2, 33810, Note_on_c, 0, 81, 108
2, 33840, Note_on_c, 0, 81, 0
2, 33840, Note_on_c, 0, 85, 0
2, 33840, Note_on_c, 0, 81, 109
2, 33840, Note_on_c, 0, 85, 109
2, 33960, Note_on_c, 0, 85, 0
2, 33960, Note_on_c, 0, 81, 0
2, 34080, Note_on_c, 0, 88, 111
2, 34080, Note_on_c, 0, 85, 111
2, 34200, Note_on_c, 0, 85, 0
2, 34200, Note_on_c, 0, 88, 0
2, 34200, Note_on_c, 0, 85, 112
2, 34200, Note_on_c, 0, 88, 112
2, 34290, Note_on_c, 0, 88, 0
2, 34290, Note_on_c, 0, 85, 0
2, 34290, Note_on_c, 0, 85, 113
2, 34290, Note_on_c, 0, 88, 113
2, 34320, Note_on_c, 0, 88, 0
2, 34320, Note_on_c, 0, 85, 0
2, 34320, Note_on_c, 0, 85, 113
2, 34320, Note_on_c, 0, 88, 113
2, 34440, Note_on_c, 0, 88, 0
2, 34440, Note_on_c, 0, 85, 0
2, 34860, Note_on_c, 0, 88, 118
2, 34920, Note_on_c, 0, 88, 0
2, 34920, Note_on_c, 0, 85, 119
2, 34980, Note_on_c, 0, 85, 0
2, 34980, Note_on_c, 0, 81, 119
2, 35040, Note_on_c, 0, 81, 0
2, 35040, Note_on_c, 0, 88, 120
2, 35100, Note_on_c, 0, 88, 0
2, 35100, Note_on_c, 0, 85, 120
2, 35160, Note_on_c, 0, 85, 0
2, 35160, Note_on_c, 0, 81, 121
2, 35220, Note_on_c, 0, 81, 0
2, 35220, Note_on_c, 0, 76, 121
2, 35280, Note_on_c, 0, 76, 0
2, 35280, Note_on_c, 0, 85, 122
2, 35340, Note_on_c, 0, 85, 0
2, 35340, Note_on_c, 0, 81, 123
2, 35400, Note_on_c, 0, 81, 0
2, 35400, Note_on_c, 0, 76, 123
2, 35460, Note_on_c, 0, 76, 0
2, 35460, Note_on_c, 0, 73, 124
2, 35520, Note_on_c, 0, 73, 0
2, 35520, Note_on_c, 0, 81, 124
2, 35580, Note_on_c, 0, 81, 0
2, 35580, Note_on_c, 0, 76, 125
2, 35640, Note_on_c, 0, 76, 0
2, 35640, Note_on_c, 0, 73, 125
2, 35700, Note_on_c, 0, 73, 0
2, 35700, Note_on_c, 0, 69, 126
2, 35760, Note_on_c, 0, 69, 0
2, 35760, Note_on_c, 0, 81, 127
2, 35850, Note_on_c, 0, 81, 0
2, 35880, Note_on_c, 0, 76, 127
2, 35880, Note_on_c, 0, 85, 127
2, 35970, Note_on_c, 0, 85, 0
2, 35970, Note_on_c, 0, 76, 0
2, 36000, Note_on_c, 0, 81, 127
2, 36000, Note_on_c, 0, 73, 127
2, 36090, Note_on_c, 0, 73, 0
2, 36090, Note_on_c, 0, 81, 0
2, 36240, Note_on_c, 0, 88, 127
2, 36240, Note_on_c, 0, 85, 127
2, 37260, Note_on_c, 0, 85, 0
2, 37260, Note_on_c, 0, 88, 0
2, 37260, Note_on_c, 0, 81, 50
2, 37290, Note_on_c, 0, 81, 0
2, 37320, Note_on_c, 0, 85, 50
2, 37350, Note_on_c, 0, 85, 0
2, 37380, Note_on_c, 0, 81, 50
2, 37410, Note_on_c, 0, 81, 0
2, 37440, Note_on_c, 0, 88, 50
2, 37740, Note_on_c, 0, 88, 0
2, 37740, Note_on_c, 0, 86, 50
2, 37860, Note_on_c, 0, 86, 0
2, 37860, Note_on_c, 0, 85, 50
2, 37980, Note_on_c, 0, 85, 0
2, 37980, Note_on_c, 0, 83, 50
2, 38100, Note_on_c, 0, 83, 0
2, 38100, Note_on_c, 0, 81, 50
2, 38160, Note_on_c, 0, 81, 0
2, 38160, Note_on_c, 0, 86, 100
2, 38160, Note_on_c, 0, 88, 100
2, 39180, Note_on_c, 0, 88, 0
2, 39180, Note_on_c, 0, 86, 0
2, 39180, Note_on_c, 0, 80, 50
2, 39210, Note_on_c, 0, 80, 0
2, 39240, Note_on_c, 0, 83, 50
2, 39270, Note_on_c, 0, 83, 0
2, 39300, Note_on_c, 0, 80, 50
2, 39330, Note_on_c, 0, 80, 0
2, 39360, Note_on_c, 0, 86, 50
2, 39660, Note_on_c, 0, 86, 0
2, 39660, Note_on_c, 0, 85, 50
2, 39780, Note_on_c, 0, 85, 0
2, 39780, Note_on_c, 0, 83, 50
2, 39900, Note_on_c, 0, 83, 0
2, 39900, Note_on_c, 0, 81, 50
2, 40020, Note_on_c, 0, 81, 0
2, 40020, Note_on_c, 0, 80, 50
2, 40080, Note_on_c, 0, 80, 0
2, 40080, Note_on_c, 0, 88, 100
2, 40080, Note_on_c, 0, 85, 100
2, 41100, Note_on_c, 0, 85, 0
2, 41100, Note_on_c, 0, 88, 0
2, 41100, Note_on_c, 0, 82, 50
2, 41130, Note_on_c, 0, 82, 0
2, 41160, Note_on_c, 0, 85, 50
2, 41190, Note_on_c, 0, 85, 0
2, 41220, Note_on_c, 0, 82, 50
2, 41250, Note_on_c, 0, 82, 0
2, 41280, Note_on_c, 0, 88, 50
2, 41580, Note_on_c, 0, 88, 0
2, 41580, Note_on_c, 0, 86, 50
2, 41700, Note_on_c, 0, 86, 0
2, 41700, Note_on_c, 0, 85, 50
2, 41820, Note_on_c, 0, 85, 0
2, 41820, Note_on_c, 0, 83, 50
2, 41940, Note_on_c, 0, 83, 0
2, 41940, Note_on_c, 0, 82, 50
2, 42000, Note_on_c, 0, 82, 0
2, 42000, Note_on_c, 0, 86, 50
2, 42000, Note_on_c, 0, 83, 50
2, 42960, Note_on_c, 0, 83, 0
2, 42960, Note_on_c, 0, 86, 0
2, 42960, Note_on_c, 0, 81, 50
2, 42960, Note_on_c, 0, 84, 50
2, 43920, Note_on_c, 0, 84, 0
2, 43920, Note_on_c, 0, 81, 0
2, 43920, Note_on_c, 0, 79, 100
2, 43920, Note_on_c, 0, 83, 100
2, 43980, Note_on_c, 0, 83, 0
2, 43980, Note_on_c, 0, 79, 0
2, 43980, Note_on_c, 0, 79, 100
2, 44010, Note_on_c, 0, 79, 0
2, 44040, Note_on_c, 0, 83, 100
2, 44070, Note_on_c, 0, 83, 0
2, 44100, Note_on_c, 0, 79, 100
2, 44130, Note_on_c, 0, 79, 0
2, 44160, Note_on_c, 0, 86, 100
2, 44460, Note_on_c, 0, 86, 0
2, 44460, Note_on_c, 0, 84, 100
2, 44580, Note_on_c, 0, 84, 0
2, 44580, Note_on_c, 0, 83, 100
2, 44700, Note_on_c, 0, 83, 0
2, 44700, Note_on_c, 0, 81, 100
2, 44820, Note_on_c, 0, 81, 0
2, 44820, Note_on_c, 0, 79, 100
2, 44880, Note_on_c, 0, 79, 0
2, 44880, Note_on_c, 0, 78, 100
2, 45000, Note_on_c, 0, 78, 0
2, 45180, Note_on_c, 0, 74, 100
2, 45210, Note_on_c, 0, 74, 0
2, 45240, Note_on_c, 0, 78, 100
2, 45270, Note_on_c, 0, 78, 0
2, 45300, Note_on_c, 0, 74, 100
2, 45330, Note_on_c, 0, 74, 0
2, 45360, Note_on_c, 0, 86, 100
2, 45420, Note_on_c, 0, 86, 0
2, 45480, Note_on_c, 0, 84, 100
2, 45540, Note_on_c, 0, 84, 0
2, 45600, Note_on_c, 0, 83, 100
2, 45660, Note_on_c, 0, 83, 0
2, 45720, Note_on_c, 0, 81, 100
2, 45780, Note_on_c, 0, 81, 0
2, 45840, Note_on_c, 0, 80, 100
2, 45900, Note_on_c, 0, 80, 0
2, 45900, Note_on_c, 0, 76, 100
2, 45930, Note_on_c, 0, 76, 0
2, 45960, Note_on_c, 0, 80, 100
2, 45990, Note_on_c, 0, 80, 0
2, 46020, Note_on_c, 0, 76, 100
2, 46050, Note_on_c, 0, 76, 0
2, 46080, Note_on_c, 0, 88, 100
2, 46380, Note_on_c, 0, 88, 0
2, 46380, Note_on_c, 0, 86, 100
2, 46500, Note_on_c, 0, 86, 0
2, 46500, Note_on_c, 0, 84, 100
2, 46620, Note_on_c, 0, 84, 0
2, 46620, Note_on_c, 0, 83, 100
2, 46740, Note_on_c, 0, 83, 0
2, 46740, Note_on_c, 0, 81, 100
2, 46800, Note_on_c, 0, 81, 0
2, 46800, Note_on_c, 0, 80, 100
2, 46920, Note_on_c, 0, 80, 0
2, 47100, Note_on_c, 0, 76, 100
2, 47130, Note_on_c, 0, 76, 0
2, 47160, Note_on_c, 0, 80, 100
2, 47190, Note_on_c, 0, 80, 0
2, 47220, Note_on_c, 0, 76, 100
2, 47250, Note_on_c, 0, 76, 0
2, 47280, Note_on_c, 0, 88, 100
2, 47340, Note_on_c, 0, 88, 0
2, 47400, Note_on_c, 0, 86, 100
2, 47460, Note_on_c, 0, 86, 0
2, 47520, Note_on_c, 0, 84, 100
2, 47580, Note_on_c, 0, 84, 0
2, 47640, Note_on_c, 0, 83, 100
2, 47700, Note_on_c, 0, 83, 0
2, 47760, Note_on_c, 0, 82, 100
2, 47820, Note_on_c, 0, 82, 0
2, 47820, Note_on_c, 0, 78, 100
2, 47850, Note_on_c, 0, 78, 0
2, 47880, Note_on_c, 0, 82, 100
2, 47910, Note_on_c, 0, 82, 0
2, 47940, Note_on_c, 0, 78, 100
2, 47970, Note_on_c, 0, 78, 0
2, 48000, Note_on_c, 0, 90, 100
2, 48300, Note_on_c, 0, 90, 0
2, 48300, Note_on_c, 0, 88, 100
2, 48420, Note_on_c, 0, 88, 0
2, 48420, Note_on_c, 0, 86, 100
2, 48540, Note_on_c, 0, 86, 0
2, 48540, Note_on_c, 0, 85, 100
2, 48660, Note_on_c, 0, 85, 0
2, 48660, Note_on_c, 0, 83, 100
2, 48720, Note_on_c, 0, 83, 0
2, 48720, Note_on_c, 0, 84, 100
2, 48960, Note_on_c, 0, 84, 0
2, 48960, Note_on_c, 0, 76, 100
2, 48960, Note_on_c, 0, 82, 100
2, 49200, Note_on_c, 0, 82, 0
2, 49200, Note_on_c, 0, 76, 0
2, 49200, Note_on_c, 0, 83, 100
2, 49320, Note_on_c, 0, 83, 0
2, 50400, Note_on_c, 0, 83, 50
2, 50400, Note_on_c, 0, 91, 50
2, 50640, Note_on_c, 0, 83, 0
2, 50640, Note_on_c, 0, 81, 50
2, 50880, Note_on_c, 0, 91, 0
2, 50880, Note_on_c, 0, 90, 50
2, 51120, Note_on_c, 0, 81, 0
2, 51120, Note_on_c, 0, 79, 50
2, 51360, Note_on_c, 0, 90, 0
2, 51360, Note_on_c, 0, 88, 50
2, 51600, Note_on_c, 0, 88, 0
2, 51600, Note_on_c, 0, 79, 0
2, 51600, Note_on_c, 0, 78, 50
2, 51600, Note_on_c, 0, 86, 50
2, 51720, Note_on_c, 0, 86, 0
2, 51720, Note_on_c, 0, 78, 0
2, 52440, Note_on_c, 0, 83, 50
2, 52440, Note_on_c, 0, 81, 50
2, 52500, Note_on_c, 0, 81, 0
2, 52500, Note_on_c, 0, 83, 0
2, 52560, Note_on_c, 0, 79, 50
2, 52560, Note_on_c, 0, 83, 50
2, 52620, Note_on_c, 0, 83, 0
2, 52620, Note_on_c, 0, 79, 0
2, 52680, Note_on_c, 0, 81, 50
2, 52680, Note_on_c, 0, 83, 50
2, 52740, Note_on_c, 0, 83, 0
2, 52740, Note_on_c, 0, 81, 0
2, 52800, Note_on_c, 0, 79, 50
2, 52800, Note_on_c, 0, 83, 50
2, 52860, Note_on_c, 0, 83, 0
2, 52860, Note_on_c, 0, 79, 0
2, 52920, Note_on_c, 0, 81, 50
2, 52920, Note_on_c, 0, 83, 50
2, 52980, Note_on_c, 0, 83, 0
2, 52980, Note_on_c, 0, 81, 0
2, 53040, Note_on_c, 0, 79, 50
2, 53040, Note_on_c, 0, 83, 50
2, 53100, Note_on_c, 0, 83, 0
2, 53100, Note_on_c, 0, 79, 0
2, 53160, Note_on_c, 0, 81, 50
2, 53160, Note_on_c, 0, 83, 50
2, 53220, Note_on_c, 0, 83, 0
2, 53220, Note_on_c, 0, 81, 0
2, 53280, Note_on_c, 0, 79, 50
2, 53280, Note_on_c, 0, 83, 50
2, 53340, Note_on_c, 0, 83, 0
2, 53340, Note_on_c, 0, 79, 0
2, 53580, Note_on_c, 0, 76, 50
2, 53610, Note_on_c, 0, 76, 0
2, 53640, Note_on_c, 0, 79, 50
2, 53670, Note_on_c, 0, 79, 0
2, 53700, Note_on_c, 0, 76, 50
2, 53730, Note_on_c, 0, 76, 0
2, 53760, Note_on_c, 0, 84, 50
2, 54000, Note_on_c, 0, 74, 50
2, 54060, Note_on_c, 0, 84, 0
2, 54060, Note_on_c, 0, 83, 50
2, 54180, Note_on_c, 0, 83, 0
2, 54180, Note_on_c, 0, 81, 50
2, 54300, Note_on_c, 0, 81, 0
2, 54300, Note_on_c, 0, 79, 50
2, 54420, Note_on_c, 0, 79, 0
2, 54420, Note_on_c, 0, 78, 50
2, 54480, Note_on_c, 0, 78, 0
2, 54480, Note_on_c, 0, 74, 0
2, 54480, Note_on_c, 0, 86, 100
2, 54480, Note_on_c, 0, 82, 100
2, 55500, Note_on_c, 0, 82, 0
2, 55500, Note_on_c, 0, 86, 0
2, 55500, Note_on_c, 0, 79, 50
2, 55530, Note_on_c, 0, 79, 0
2, 55560, Note_on_c, 0, 82, 50
2, 55590, Note_on_c, 0, 82, 0
2, 55620, Note_on_c, 0, 79, 50
2, 55650, Note_on_c, 0, 79, 0
2, 55680, Note_on_c, 0, 86, 50
2, 55980, Note_on_c, 0, 86, 0
2, 55980, Note_on_c, 0, 84, 50
2, 56100, Note_on_c, 0, 84, 0
2, 56100, Note_on_c, 0, 82, 50
2, 56220, Note_on_c, 0, 82, 0
2, 56220, Note_on_c, 0, 81, 50
2, 56340, Note_on_c, 0, 81, 0
2, 56340, Note_on_c, 0, 79, 50
2, 56400, Note_on_c, 0, 79, 0
2, 56400, Note_on_c, 0, 87, 100
2, 56400, Note_on_c, 0, 84, 100
2, 57420, Note_on_c, 0, 84, 0
2, 57420, Note_on_c, 0, 87, 0
2, 57420, Note_on_c, 0, 81, 50
2, 57450, Note_on_c, 0, 81, 0
2, 57480, Note_on_c, 0, 84, 50
2, 57510, Note_on_c, 0, 84, 0
2, 57540, Note_on_c, 0, 81, 50
2, 57570, Note_on_c, 0, 81, 0
2, 57600, Note_on_c, 0, 87, 50
2, 57900, Note_on_c, 0, 87, 0
2, 57900, Note_on_c, 0, 86, 50
2, 58020, Note_on_c, 0, 86, 0
2, 58020, Note_on_c, 0, 84, 50
2, 58140, Note_on_c, 0, 84, 0
2, 58140, Note_on_c, 0, 82, 50
2, 58260, Note_on_c, 0, 82, 0
2, 58260, Note_on_c, 0, 81, 50
2, 58320, Note_on_c, 0, 81, 0
2, 58320, Note_on_c, 0, 77, 100
2, 58320, Note_on_c, 0, 86, 100
2, 58620, Note_on_c, 0, 86, 0
2, 58620, Note_on_c, 0, 77, 0
2, 58620, Note_on_c, 0, 86, 100
2, 58620, Note_on_c, 0, 77, 100
2, 58650, Note_on_c, 0, 77, 0
2, 58650, Note_on_c, 0, 86, 0
2, 58680, Note_on_c, 0, 86, 100
2, 58680, Note_on_c, 0, 77, 100
2, 58710, Note_on_c, 0, 77, 0
2, 58710, Note_on_c, 0, 86, 0
2, 58740, Note_on_c, 0, 77, 100
2, 58740, Note_on_c, 0, 86, 100
2, 58770, Note_on_c, 0, 86, 0
2, 58770, Note_on_c, 0, 77, 0
2, 58800, Note_on_c, 0, 77, 100
2, 58800, Note_on_c, 0, 86, 100
2, 59100, Note_on_c, 0, 86, 0
2, 59100, Note_on_c, 0, 77, 0
2, 59100, Note_on_c, 0, 77, 100
2, 59100, Note_on_c, 0, 86, 100
2, 59130, Note_on_c, 0, 86, 0
2, 59130, Note_on_c, 0, 77, 0
2, 59160, Note_on_c, 0, 77, 100
2, 59160, Note_on_c, 0, 86, 100
2, 59190, Note_on_c, 0, 86, 0
2, 59190, Note_on_c, 0, 77, 0
2, 59220, Note_on_c, 0, 77, 100
2, 59220, Note_on_c, 0, 86, 100
2, 59250, Note_on_c, 0, 86, 0
2, 59250, Note_on_c, 0, 77, 0
2, 59280, Note_on_c, 0, 89, 100
2, 59280, Note_on_c, 0, 86, 100
2, 59580, Note_on_c, 0, 86, 0
2, 59580, Note_on_c, 0, 89, 0
2, 59580, Note_on_c, 0, 89, 100
2, 59580, Note_on_c, 0, 86, 100
2, 59610, Note_on_c, 0, 86, 0
2, 59610, Note_on_c, 0, 89, 0
2, 59640, Note_on_c, 0, 89, 100
2, 59640, Note_on_c, 0, 86, 100
2, 59670, Note_on_c, 0, 86, 0
2, 59670, Note_on_c, 0, 89, 0
2, 59700, Note_on_c, 0, 89, 100
2, 59700, Note_on_c, 0, 86, 100
2, 59730, Note_on_c, 0, 86, 0
2, 59730, Note_on_c, 0, 89, 0
2, 59760, Note_on_c, 0, 89, 100
2, 59760, Note_on_c, 0, 86, 100
2, 60060, Note_on_c, 0, 86, 0
2, 60060, Note_on_c, 0, 89, 0
2, 60060, Note_on_c, 0, 89, 100
2, 60060, Note_on_c, 0, 86, 100
2, 60090, Note_on_c, 0, 86, 0
2, 60090, Note_on_c, 0, 89, 0
2, 60120, Note_on_c, 0, 89, 100
2, 60120, Note_on_c, 0, 86, 100
2, 60150, Note_on_c, 0, 86, 0
2, 60150, Note_on_c, 0, 89, 0
2, 60180, Note_on_c, 0, 89, 100
2, 60180, Note_on_c, 0, 86, 100
2, 60210, Note_on_c, 0, 86, 0
2, 60210, Note_on_c, 0, 89, 0
2, 60240, Note_on_c, 0, 88, 100
2, 60240, Note_on_c, 0, 85, 100
2, 60480, Note_on_c, 0, 85, 0
2, 60480, Note_on_c, 0, 88, 0
2, 60480, Note_on_c, 0, 89, 100
2, 60480, Note_on_c, 0, 86, 100
2, 60720, Note_on_c, 0, 86, 0
2, 60720, Note_on_c, 0, 89, 0
2, 60720, Note_on_c, 0, 85, 100
2, 60720, Note_on_c, 0, 88, 100
2, 60960, Note_on_c, 0, 88, 0
2, 60960, Note_on_c, 0, 85, 0
2, 60960, Note_on_c, 0, 89, 100
2, 60960, Note_on_c, 0, 86, 100
2, 61200, Note_on_c, 0, 86, 0
2, 61200, Note_on_c, 0, 89, 0
2, 61200, Note_on_c, 0, 88, 100
2, 61200, Note_on_c, 0, 85, 100
2, 61320, Note_on_c, 0, 85, 0
2, 61320, Note_on_c, 0, 88, 0
2, 61680, Note_on_c, 0, 85, 100
2, 61740, Note_on_c, 0, 85, 0
2, 61740, Note_on_c, 0, 88, 100
2, 61800, Note_on_c, 0, 88, 0
2, 61800, Note_on_c, 0, 81, 100
2, 61860, Note_on_c, 0, 81, 0
2, 61860, Note_on_c, 0, 79, 100
2, 61920, Note_on_c, 0, 79, 0
2, 61920, Note_on_c, 0, 77, 100
2, 61980, Note_on_c, 0, 77, 0
2, 61980, Note_on_c, 0, 81, 100
2, 62040, Note_on_c, 0, 81, 0
2, 62040, Note_on_c, 0, 77, 100
2, 62100, Note_on_c, 0, 77, 0
2, 62100, Note_on_c, 0, 74, 100
2, 62160, Note_on_c, 0, 74, 0
2, 62160, Note_on_c, 0, 81, 100
2, 62280, Note_on_c, 0, 81, 0
2, 64800, Note_on_c, 0, 74, 60
2, 64800, Note_on_c, 0, 86, 60
2, 64980, Note_on_c, 0, 86, 0
2, 64980, Note_on_c, 0, 74, 0
2, 64980, Note_on_c, 0, 75, 60
2, 64980, Note_on_c, 0, 87, 60
2, 65040, Note_on_c, 0, 87, 0
2, 65040, Note_on_c, 0, 75, 0
2, 65040, Note_on_c, 0, 76, 60
2, 65040, Note_on_c, 0, 88, 60
2, 65100, Note_on_c, 0, 88, 0
2, 65100, Note_on_c, 0, 76, 0
2, 65100, Note_on_c, 0, 78, 60
2, 65100, Note_on_c, 0, 90, 60
2, 65160, Note_on_c, 0, 90, 0
2, 65160, Note_on_c, 0, 78, 0
2, 65160, Note_on_c, 0, 79, 60
2, 65160, Note_on_c, 0, 91, 60
2, 65220, Note_on_c, 0, 91, 0
2, 65220, Note_on_c, 0, 79, 0
2, 65220, Note_on_c, 0, 73, 60
2, 65220, Note_on_c, 0, 85, 60
2, 65280, Note_on_c, 0, 85, 0
2, 65280, Note_on_c, 0, 73, 0
2, 65280, Note_on_c, 0, 74, 60
2, 65280, Note_on_c, 0, 86, 60
2, 65460, Note_on_c, 0, 86, 0
2, 65460, Note_on_c, 0, 74, 0
2, 65460, Note_on_c, 0, 75, 60
2, 65460, Note_on_c, 0, 87, 60
2, 65520, Note_on_c, 0, 87, 0
2, 65520, Note_on_c, 0, 75, 0
2, 65520, Note_on_c, 0, 76, 60
2, 65520, Note_on_c, 0, 88, 60
2, 65580, Note_on_c, 0, 88, 0
2, 65580, Note_on_c, 0, 76, 0
2, 65580, Note_on_c, 0, 78, 60
2, 65580, Note_on_c, 0, 90, 60
2, 65640, Note_on_c, 0, 90, 0
2, 65640, Note_on_c, 0, 78, 0
2, 65640, Note_on_c, 0, 79, 60
2, 65640, Note_on_c, 0, 91, 60
2, 65700, Note_on_c, 0, 91, 0
2, 65700, Note_on_c, 0, 79, 0
2, 65700, Note_on_c, 0, 73, 60
2, 65700, Note_on_c, 0, 85, 60
2, 65760, Note_on_c, 0, 85, 0
2, 65760, Note_on_c, 0, 73, 0
2, 65760, Note_on_c, 0, 74, 60
2, 65760, Note_on_c, 0, 86, 60
2, 65820, Note_on_c, 0, 86, 0
2, 65820, Note_on_c, 0, 74, 0
2, 67980, Note_on_c, 0, 86, 50
2, 68010, Note_on_c, 0, 86, 0
2, 68040, Note_on_c, 0, 86, 50
2, 68070, Note_on_c, 0, 86, 0
2, 68100, Note_on_c, 0, 86, 50
2, 68130, Note_on_c, 0, 86, 0
2, 68160, Note_on_c, 0, 86, 50
2, 68220, Note_on_c, 0, 86, 0
2, 68220, Note_on_c, 0, 85, 50
2, 68250, Note_on_c, 0, 85, 0
2, 68280, Note_on_c, 0, 85, 50
2, 68310, Note_on_c, 0, 85, 0
2, 68340, Note_on_c, 0, 85, 50
2, 68370, Note_on_c, 0, 85, 0
2, 68400, Note_on_c, 0, 85, 50
2, 68460, Note_on_c, 0, 85, 0
2, 68460, Note_on_c, 0, 86, 50
2, 68490, Note_on_c, 0, 86, 0
2, 68520, Note_on_c, 0, 86, 50
2, 68550, Note_on_c, 0, 86, 0
2, 68580, Note_on_c, 0, 86, 50
2, 68610, Note_on_c, 0, 86, 0
2, 68640, Note_on_c, 0, 74, 60
2, 68640, Note_on_c, 0, 86, 60
2, 68820, Note_on_c, 0, 86, 0
2, 68820, Note_on_c, 0, 74, 0
2, 68820, Note_on_c, 0, 75, 60
2, 68820, Note_on_c, 0, 87, 60
2, 68880, Note_on_c, 0, 87, 0
2, 68880, Note_on_c, 0, 75, 0
2, 68880, Note_on_c, 0, 76, 60
2, 68880, Note_on_c, 0, 88, 60
2, 68940, Note_on_c, 0, 88, 0
2, 68940, Note_on_c, 0, 76, 0
2, 68940, Note_on_c, 0, 78, 60
2, 68940, Note_on_c, 0, 90, 60
2, 69000, Note_on_c, 0, 90, 0
2, 69000, Note_on_c, 0, 78, 0
2, 69000, Note_on_c, 0, 79, 60
2, 69000, Note_on_c, 0, 91, 60
2, 69060, Note_on_c, 0, 91, 0
2, 69060, Note_on_c, 0, 79, 0
2, 69060, Note_on_c, 0, 73, 60
2, 69060, Note_on_c, 0, 85, 60
2, 69120, Note_on_c, 0, 85, 0
2, 69120, Note_on_c, 0, 73, 0
2, 69120, Note_on_c, 0, 74, 60
2, 69120, Note_on_c, 0, 86, 60
2, 69300, Note_on_c, 0, 86, 0
2, 69300, Note_on_c, 0, 74, 0
2, 69300, Note_on_c, 0, 75, 60
2, 69300, Note_on_c, 0, 87, 60
2, 69360, Note_on_c, 0, 87, 0
2, 69360, Note_on_c, 0, 75, 0
2, 69360, Note_on_c, 0, 76, 60
2, 69360, Note_on_c, 0, 88, 60
2, 69420, Note_on_c, 0, 88, 0
2, 69420, Note_on_c, 0, 76, 0
2, 69420, Note_on_c, 0, 78, 60
2, 69420, Note_on_c, 0, 90, 60
2, 69480, Note_on_c, 0, 90, 0
2, 69480, Note_on_c, 0, 78, 0
2, 69480, Note_on_c, 0, 79, 60
2, 69480, Note_on_c, 0, 91, 60
2, 69540, Note_on_c, 0, 91, 0
2, 69540, Note_on_c, 0, 79, 0
2, 69540, Note_on_c, 0, 73, 60
2, 69540, Note_on_c, 0, 85, 60
2, 69600, Note_on_c, 0, 85, 0
2, 69600, Note_on_c, 0, 73, 0
2, 69600, Note_on_c, 0, 74, 60
2, 69600, Note_on_c, 0, 86, 60
2, 69660, Note_on_c, 0, 86, 0
2, 69660, Note_on_c, 0, 74, 0
2, 70620, Note_on_c, 0, 74, 60
2, 70650, Note_on_c, 0, 74, 0
2, 70680, Note_on_c, 0, 78, 60
2, 70710, Note_on_c, 0, 78, 0
2, 70740, Note_on_c, 0, 74, 60
2, 70770, Note_on_c, 0, 74, 0
2, 70800, Note_on_c, 0, 81, 60
2, 71100, Note_on_c, 0, 81, 0
2, 71100, Note_on_c, 0, 79, 60
2, 71220, Note_on_c, 0, 79, 0
2, 71220, Note_on_c, 0, 78, 60
2, 71340, Note_on_c, 0, 78, 0
2, 71340, Note_on_c, 0, 76, 60
2, 71460, Note_on_c, 0, 76, 0
2, 71460, Note_on_c, 0, 74, 60
2, 71520, Note_on_c, 0, 74, 0
2, 71520, Note_on_c, 0, 85, 60
2, 71760, Note_on_c, 0, 85, 0
2, 71760, Note_on_c, 0, 88, 60
2, 71820, Note_on_c, 0, 88, 0
2, 71820, Note_on_c, 0, 86, 60
2, 71880, Note_on_c, 0, 86, 0
2, 71880, Note_on_c, 0, 85, 60
2, 71940, Note_on_c, 0, 85, 0
2, 71940, Note_on_c, 0, 83, 60
2, 72000, Note_on_c, 0, 83, 0
2, 72000, Note_on_c, 0, 81, 60
2, 72060, Note_on_c, 0, 81, 0
2, 72060, Note_on_c, 0, 86, 60
2, 72120, Note_on_c, 0, 86, 0
2, 72120, Note_on_c, 0, 83, 60
2, 72180, Note_on_c, 0, 83, 0
2, 72180, Note_on_c, 0, 79, 60
2, 72240, Note_on_c, 0, 79, 0
2, 72240, Note_on_c, 0, 78, 60
2, 72360, Note_on_c, 0, 78, 0
2, 72360, Note_on_c, 0, 76, 60
2, 72480, Note_on_c, 0, 76, 0
2, 72480, Note_on_c, 0, 74, 60
2, 72600, Note_on_c, 0, 74, 0
2, 73440, Note_on_c, 0, 86, 100
2, 73440, Note_on_c, 0, 91, 100
2, 73680, Note_on_c, 0, 91, 0
2, 73680, Note_on_c, 0, 90, 100
2, 73920, Note_on_c, 0, 90, 0
2, 73920, Note_on_c, 0, 91, 100
2, 74160, Note_on_c, 0, 91, 0
2, 74160, Note_on_c, 0, 90, 100
2, 74400, Note_on_c, 0, 90, 0
2, 74400, Note_on_c, 0, 91, 100
2, 74640, Note_on_c, 0, 91, 0
2, 74640, Note_on_c, 0, 90, 100
2, 74880, Note_on_c, 0, 90, 0
2, 74880, Note_on_c, 0, 86, 0
2, 74880, Note_on_c, 0, 91, 100
2, 74880, Note_on_c, 0, 86, 100
2, 75360, Note_on_c, 0, 86, 0
2, 75360, Note_on_c, 0, 88, 100
2, 75480, Note_on_c, 0, 88, 0
2, 75480, Note_on_c, 0, 91, 0
2, 75480, Note_on_c, 0, 90, 100
2, 75480, Note_on_c, 0, 86, 100
2, 75600, Note_on_c, 0, 86, 0
2, 75600, Note_on_c, 0, 90, 0
2, 75600, Note_on_c, 0, 91, 100
2, 75600, Note_on_c, 0, 88, 100
2, 75720, Note_on_c, 0, 88, 0
2, 75720, Note_on_c, 0, 91, 0
2, 75720, Note_on_c, 0, 88, 100
2, 75720, Note_on_c, 0, 85, 100
2, 75840, Note_on_c, 0, 85, 0
2, 75840, Note_on_c, 0, 88, 0
2, 75840, Note_on_c, 0, 86, 100
2, 75960, Note_on_c, 0, 86, 0
2, 78300, Note_on_c, 0, 81, 70
2, 78300, Note_on_c, 0, 78, 70
2, 78330, Note_on_c, 0, 78, 0
2, 78330, Note_on_c, 0, 81, 0
2, 78360, Note_on_c, 0, 86, 70
2, 78360, Note_on_c, 0, 81, 70
2, 78390, Note_on_c, 0, 81, 0
2, 78390, Note_on_c, 0, 86, 0
2, 78420, Note_on_c, 0, 78, 70
2, 78420, Note_on_c, 0, 81, 70
2, 78450, Note_on_c, 0, 81, 0
2, 78450, Note_on_c, 0, 78, 0
2, 78480, Note_on_c, 0, 86, 70
2, 78480, Note_on_c, 0, 83, 70
2, 78600, Note_on_c, 0, 83, 0
2, 78600, Note_on_c, 0, 86, 0
2, 78780, Note_on_c, 0, 86, 70
2, 78780, Note_on_c, 0, 81, 70
2, 78810, Note_on_c, 0, 81, 0
2, 78810, Note_on_c, 0, 86, 0
2, 78840, Note_on_c, 0, 90, 70
2, 78840, Note_on_c, 0, 86, 70
2, 78870, Note_on_c, 0, 86, 0
2, 78870, Note_on_c, 0, 90, 0
2, 78900, Note_on_c, 0, 81, 70
2, 78900, Note_on_c, 0, 86, 70
2, 78930, Note_on_c, 0, 86, 0
2, 78930, Note_on_c, 0, 81, 0
2, 78960, Note_on_c, 0, 88, 70
2, 78960, Note_on_c, 0, 85, 70
2, 79080, Note_on_c, 0, 85, 0
2, 79080, Note_on_c, 0, 88, 0
2, 79260, Note_on_c, 0, 81, 70
2, 79260, Note_on_c, 0, 78, 70
2, 79290, Note_on_c, 0, 78, 0
2, 79290, Note_on_c, 0, 81, 0
2, 79320, Note_on_c, 0, 86, 70
2, 79320, Note_on_c, 0, 81, 70
2, 79350, Note_on_c, 0, 81, 0
2, 79350, Note_on_c, 0, 86, 0
2, 79380, Note_on_c, 0, 78, 70
2, 79380, Note_on_c, 0, 81, 70
2, 79410, Note_on_c, 0, 81, 0
2, 79410, Note_on_c, 0, 78, 0
2, 79440, Note_on_c, 0, 86, 70
2, 79440, Note_on_c, 0, 83, 70
2, 79560, Note_on_c, 0, 83, 0
2, 79560, Note_on_c, 0, 86, 0
2, 79740, Note_on_c, 0, 86, 70
2, 79740, Note_on_c, 0, 81, 70
2, 79770, Note_on_c, 0, 81, 0
2, 79770, Note_on_c, 0, 86, 0
2, 79800, Note_on_c, 0, 90, 70
2, 79800, Note_on_c, 0, 86, 70
2, 79830, Note_on_c, 0, 86, 0
2, 79830, Note_on_c, 0, 90, 0
2, 79860, Note_on_c, 0, 81, 70
2, 79860, Note_on_c, 0, 86, 70
2, 79890, Note_on_c, 0, 86, 0
2, 79890, Note_on_c, 0, 81, 0
2, 79920, Note_on_c, 0, 88, 70
2, 79920, Note_on_c, 0, 85, 70
2, 80040, Note_on_c, 0, 85, 0
2, 80040, Note_on_c, 0, 88, 0
2, 80160, Note_on_c, 0, 74, 100
2, 80400, Note_on_c, 0, 74, 0
2, 80400, Note_on_c, 0, 74, 102
2, 80520, Note_on_c, 0, 74, 0
2, 80520, Note_on_c, 0, 74, 103
2, 80610, Note_on_c, 0, 74, 0
2, 80610, Note_on_c, 0, 74, 103
2, 80640, Note_on_c, 0, 74, 0
2, 80640, Note_on_c, 0, 74, 104
2, 80880, Note_on_c, 0, 74, 0
2, 80880, Note_on_c, 0, 78, 106
2, 81000, Note_on_c, 0, 78, 0
2, 81000, Note_on_c, 0, 78, 107
2, 81090, Note_on_c, 0, 78, 0
2, 81090, Note_on_c, 0, 78, 108
2, 81120, Note_on_c, 0, 78, 0
2, 81120, Note_on_c, 0, 78, 108
2, 81360, Note_on_c, 0, 78, 0
2, 81360, Note_on_c, 0, 86, 110
2, 81360, Note_on_c, 0, 81, 110
2, 81480, Note_on_c, 0, 81, 0
2, 81480, Note_on_c, 0, 86, 0
2, 81480, Note_on_c, 0, 86, 111
2, 81480, Note_on_c, 0, 81, 111
2, 81570, Note_on_c, 0, 81, 0
2, 81570, Note_on_c, 0, 86, 0
2, 81570, Note_on_c, 0, 81, 112
2, 81570, Note_on_c, 0, 86, 112
2, 81600, Note_on_c, 0, 86, 0
2, 81600, Note_on_c, 0, 81, 0
2, 81600, Note_on_c, 0, 86, 112
2, 81600, Note_on_c, 0, 81, 112
2, 81840, Note_on_c, 0, 81, 0
2, 81840, Note_on_c, 0, 86, 0
2, 81840, Note_on_c, 0, 90, 114
2, 81840, Note_on_c, 0, 86, 114
2, 81960, Note_on_c, 0, 86, 0
2, 81960, Note_on_c, 0, 90, 0
2, 81960, Note_on_c, 0, 90, 115
2, 81960, Note_on_c, 0, 86, 115
2, 82050, Note_on_c, 0, 86, 0
2, 82050, Note_on_c, 0, 90, 0
2, 82050, Note_on_c, 0, 90, 116
2, 82050, Note_on_c, 0, 86, 116
2, 82080, Note_on_c, 0, 86, 0
2, 82080, Note_on_c, 0, 90, 0
2, 82080, Note_on_c, 0, 86, 116
2, 82080, Note_on_c, 0, 90, 116
2, 82200, Note_on_c, 0, 90, 0
2, 82200, Note_on_c, 0, 86, 0
2, 82500, Note_on_c, 0, 81, 120
2, 82560, Note_on_c, 0, 81, 0
2, 82560, Note_on_c, 0, 90, 120
2, 82620, Note_on_c, 0, 90, 0
2, 82620, Note_on_c, 0, 86, 121
2, 82680, Note_on_c, 0, 86, 0
2, 82680, Note_on_c, 0, 81, 121
2, 82740, Note_on_c, 0, 81, 0
2, 82740, Note_on_c, 0, 78, 122
2, 82800, Note_on_c, 0, 78, 0
2, 82800, Note_on_c, 0, 86, 122
2, 82860, Note_on_c, 0, 86, 0
2, 82860, Note_on_c, 0, 81, 123
2, 82920, Note_on_c, 0, 81, 0
2, 82920, Note_on_c, 0, 78, 123
2, 82980, Note_on_c, 0, 78, 0
2, 82980, Note_on_c, 0, 74, 124
2, 83040, Note_on_c, 0, 74, 0
2, 83040, Note_on_c, 0, 81, 127
2, 83100, Note_on_c, 0, 81, 0
2, 83100, Note_on_c, 0, 78, 127
2, 83160, Note_on_c, 0, 78, 0
2, 83160, Note_on_c, 0, 74, 127
2, 83220, Note_on_c, 0, 74, 0
2, 83220, Note_on_c, 0, 81, 127
2, 83280, Note_on_c, 0, 81, 0
2, 83280, Note_on_c, 0, 86, 127
2, 83340, Note_on_c, 0, 86, 0
2, 83340, Note_on_c, 0, 81, 127
2, 83400, Note_on_c, 0, 81, 0
2, 83400, Note_on_c, 0, 86, 127
2, 83460, Note_on_c, 0, 86, 0
2, 83460, Note_on_c, 0, 81, 127
2, 83520, Note_on_c, 0, 81, 0
2, 83520, Note_on_c, 0, 86, 127
2, 83610, Note_on_c, 0, 86, 0
2, 83640, Note_on_c, 0, 81, 127
2, 83640, Note_on_c, 0, 90, 127
2, 83730, Note_on_c, 0, 90, 0
2, 83730, Note_on_c, 0, 81, 0
2, 83760, Note_on_c, 0, 78, 127
2, 83760, Note_on_c, 0, 86, 127
2, 83850, Note_on_c, 0, 86, 0
2, 83850, Note_on_c, 0, 78, 0
2, 83850, End_track
3, 0, Start_track
3, 0, MIDI_port, 0
3, 0, Title_t, "Oboi"
3, 0, Program_c, 1, 68
3, 0, Control_c, 1, 7, 100
3, 0, Control_c, 1, 10, 50
3, 840, Note_on_c, 1, 71, 50
3, 840, Note_on_c, 1, 78, 50
3, 900, Note_on_c, 1, 78, 0
3, 900, Note_on_c, 1, 71, 0
3, 960, Note_on_c, 1, 71, 50
3, 960, Note_on_c, 1, 76, 50
3, 1020, Note_on_c, 1, 76, 0
3, 1020, Note_on_c, 1, 71, 0
3, 1080, Note_on_c, 1, 71, 50
3, 1080, Note_on_c, 1, 78, 50
3, 1140, Note_on_c, 1, 78, 0
3, 1140, Note_on_c, 1, 71, 0
3, 1200, Note_on_c, 1, 71, 50
3, 1200, Note_on_c, 1, 76, 50
3, 1260, Note_on_c, 1, 76, 0
3, 1260, Note_on_c, 1, 71, 0
3, 1320, Note_on_c, 1, 71, 50
3, 1320, Note_on_c, 1, 78, 50
3, 1380, Note_on_c, 1, 78, 0
3, 1380, Note_on_c, 1, 71, 0
3, 1440, Note_on_c, 1, 71, 50
3, 1440, Note_on_c, 1, 76, 50
3, 1500, Note_on_c, 1, 76, 0
3, 1500, Note_on_c, 1, 71, 0
3, 1560, Note_on_c, 1, 71, 50
3, 1560, Note_on_c, 1, 78, 50
3, 1620, Note_on_c, 1, 78, 0
3, 1620, Note_on_c, 1, 71, 0
3, 1680, Note_on_c, 1, 71, 50
3, 1680, Note_on_c, 1, 76, 50
3, 1740, Note_on_c, 1, 76, 0
3, 1740, Note_on_c, 1, 71, 0
3, 2760, Note_on_c, 1, 76, 50
3, 2760, Note_on_c, 1, 79, 50
3, 2820, Note_on_c, 1, 79, 0
3, 2820, Note_on_c, 1, 76, 0
3, 2880, Note_on_c, 1, 74, 50
3, 2880, Note_on_c, 1, 78, 50
3, 2940, Note_on_c, 1, 78, 0
3, 2940, Note_on_c, 1, 74, 0
3, 3000, Note_on_c, 1, 76, 50
3, 3000, Note_on_c, 1, 79, 50
3, 3060, Note_on_c, 1, 79, 0
3, 3060, Note_on_c, 1, 76, 0
3, 3120, Note_on_c, 1, 74, 50
3, 3120, Note_on_c, 1, 78, 50
3, 3180, Note_on_c, 1, 78, 0
3, 3180, Note_on_c, 1, 74, 0
3, 3240, Note_on_c, 1, 76, 50
3, 3240, Note_on_c, 1, 79, 50
3, 3300, Note_on_c, 1, 79, 0
3, 3300, Note_on_c, 1, 76, 0
3, 3360, Note_on_c, 1, 74, 50
3, 3360, Note_on_c, 1, 78, 50
3, 3420, Note_on_c, 1, 78, 0
3, 3420, Note_on_c, 1, 74, 0
3, 3480, Note_on_c, 1, 76, 50
3, 3480, Note_on_c, 1, 79, 50
3, 3540, Note_on_c, 1, 79, 0
3, 3540, Note_on_c, 1, 76, 0
3, 3600, Note_on_c, 1, 74, 50
3, 3600, Note_on_c, 1, 78, 50
3, 3660, Note_on_c, 1, 78, 0
3, 3660, Note_on_c, 1, 74, 0
3, 4080, Note_on_c, 1, 67, 100
3, 4080, Note_on_c, 1, 71, 100
3, 4320, Note_on_c, 1, 71, 0
3, 4320, Note_on_c, 1, 67, 0
3, 4320, Note_on_c, 1, 66, 100
3, 4320, Note_on_c, 1, 69, 100
3, 4410, Note_on_c, 1, 69, 0
3, 4410, Note_on_c, 1, 66, 0
3, 4560, Note_on_c, 1, 79, 100
3, 4560, Note_on_c, 1, 73, 100
3, 4800, Note_on_c, 1, 73, 0
3, 4800, Note_on_c, 1, 79, 0
3, 4800, Note_on_c, 1, 78, 100
3, 4800, Note_on_c, 1, 74, 100
3, 4890, Note_on_c, 1, 74, 0
3, 4890, Note_on_c, 1, 78, 0
3, 5040, Note_on_c, 1, 67, 100
3, 5040, Note_on_c, 1, 71, 100
3, 5280, Note_on_c, 1, 71, 0
3, 5280, Note_on_c, 1, 67, 0
3, 5280, Note_on_c, 1, 66, 100
3, 5280, Note_on_c, 1, 69, 100
3, 5370, Note_on_c, 1, 69, 0
3, 5370, Note_on_c, 1, 66, 0
3, 5520, Note_on_c, 1, 79, 100
3, 5520, Note_on_c, 1, 73, 100
3, 5760, Note_on_c, 1, 73, 0
3, 5760, Note_on_c, 1, 79, 0
3, 5760, Note_on_c, 1, 78, 100
3, 5760, Note_on_c, 1, 74, 100
3, 5850, Note_on_c, 1, 74, 0
3, 5850, Note_on_c, 1, 78, 0
3, 5880, Note_on_c, 1, 81, 100
3, 6000, Note_on_c, 1, 81, 0
3, 6000, Note_on_c, 1, 78, 100
3, 6120, Note_on_c, 1, 78, 0
3, 6120, Note_on_c, 1, 74, 100
3, 6240, Note_on_c, 1, 74, 0
3, 6240, Note_on_c, 1, 76, 100
3, 6240, Note_on_c, 1, 73, 100
3, 6285, Note_on_c, 1, 73, 0
3, 6285, Note_on_c, 1, 76, 0
3, 6300, Note_on_c, 1, 76, 100
3, 6300, Note_on_c, 1, 73, 100
3, 6345, Note_on_c, 1, 73, 0
3, 6345, Note_on_c, 1, 76, 0
3, 6360, Note_on_c, 1, 78, 100
3, 6360, Note_on_c, 1, 74, 100
3, 6405, Note_on_c, 1, 74, 0
3, 6405, Note_on_c, 1, 78, 0
3, 6420, Note_on_c, 1, 78, 100
3, 6420, Note_on_c, 1, 74, 100
3, 6465, Note_on_c, 1, 74, 0
3, 6465, Note_on_c, 1, 78, 0
3, 6480, Note_on_c, 1, 76, 100
3, 6480, Note_on_c, 1, 73, 100
3, 6525, Note_on_c, 1, 73, 0
3, 6525, Note_on_c, 1, 76, 0
3, 6540, Note_on_c, 1, 76, 100
3, 6540, Note_on_c, 1, 73, 100
3, 6585, Note_on_c, 1, 73, 0
3, 6585, Note_on_c, 1, 76, 0
3, 6600, Note_on_c, 1, 78, 100
3, 6600, Note_on_c, 1, 74, 100
3, 6645, Note_on_c, 1, 74, 0
3, 6645, Note_on_c, 1, 78, 0
3, 6660, Note_on_c, 1, 78, 100
3, 6660, Note_on_c, 1, 74, 100
3, 6705, Note_on_c, 1, 74, 0
3, 6705, Note_on_c, 1, 78, 0
3, 6720, Note_on_c, 1, 76, 100
3, 6720, Note_on_c, 1, 73, 100
3, 6765, Note_on_c, 1, 73, 0
3, 6765, Note_on_c, 1, 76, 0
3, 6780, Note_on_c, 1, 69, 100
3, 6825, Note_on_c, 1, 69, 0
3, 6840, Note_on_c, 1, 69, 100
3, 6885, Note_on_c, 1, 69, 0
3, 6900, Note_on_c, 1, 69, 100
3, 6945, Note_on_c, 1, 69, 0
3, 6960, Note_on_c, 1, 69, 100
3, 7080, Note_on_c, 1, 69, 0
3, 7200, Note_on_c, 1, 62, 35
3, 7320, Note_on_c, 1, 62, 0
3, 7500, Note_on_c, 1, 65, 35
3, 7500, Note_on_c, 1, 62, 35
3, 7530, Note_on_c, 1, 62, 0
3, 7530, Note_on_c, 1, 65, 0
3, 7560, Note_on_c, 1, 69, 35
3, 7560, Note_on_c, 1, 65, 35
3, 7590, Note_on_c, 1, 65, 0
3, 7590, Note_on_c, 1, 69, 0
3, 7620, Note_on_c, 1, 65, 35
3, 7620, Note_on_c, 1, 62, 35
3, 7650, Note_on_c, 1, 62, 0
3, 7650, Note_on_c, 1, 65, 0
3, 7680, Note_on_c, 1, 69, 35
3, 7680, Note_on_c, 1, 74, 35
3, 7800, Note_on_c, 1, 74, 0
3, 7800, Note_on_c, 1, 69, 0
3, 7800, Note_on_c, 1, 69, 35
3, 7800, Note_on_c, 1, 72, 35
3, 7920, Note_on_c, 1, 72, 0
3, 7920, Note_on_c, 1, 69, 0
3, 7920, Note_on_c, 1, 70, 35
3, 7920, Note_on_c, 1, 67, 35
3, 9000, Note_on_c, 1, 67, 0
3, 9000, Note_on_c, 1, 70, 0
3, 9120, Note_on_c, 1, 64, 35
3, 9120, Note_on_c, 1, 67, 35
3, 9240, Note_on_c, 1, 67, 0
3, 9240, Note_on_c, 1, 64, 0
3, 9420, Note_on_c, 1, 64, 35
3, 9450, Note_on_c, 1, 64, 0
3, 9480, Note_on_c, 1, 67, 35
3, 9510, Note_on_c, 1, 67, 0
3, 9540, Note_on_c, 1, 64, 35
3, 9570, Note_on_c, 1, 64, 0
3, 9600, Note_on_c, 1, 72, 35
3, 9720, Note_on_c, 1, 72, 0
3, 9720, Note_on_c, 1, 70, 35
3, 9720, Note_on_c, 1, 74, 35
3, 9840, Note_on_c, 1, 74, 0
3, 9840, Note_on_c, 1, 70, 0
3, 9840, Note_on_c, 1, 72, 35
3, 9840, Note_on_c, 1, 69, 35
3, 9960, Note_on_c, 1, 69, 0
3, 9960, Note_on_c, 1, 70, 35
3, 10080, Note_on_c, 1, 70, 0
3, 10080, Note_on_c, 1, 69, 35
3, 10200, Note_on_c, 1, 69, 0
3, 10200, Note_on_c, 1, 70, 35
3, 10320, Note_on_c, 1, 70, 0
3, 10320, Note_on_c, 1, 69, 35
3, 10440, Note_on_c, 1, 69, 0
3, 10440, Note_on_c, 1, 70, 35
3, 10560, Note_on_c, 1, 70, 0
3, 10560, Note_on_c, 1, 69, 35
3, 10680, Note_on_c, 1, 69, 0
3, 10680, Note_on_c, 1, 69, 35
3, 10800, Note_on_c, 1, 69, 0
3, 10800, Note_on_c, 1, 69, 35
3, 10920, Note_on_c, 1, 69, 0
3, 10920, Note_on_c, 1, 72, 0
3, 11040, Note_on_c, 1, 81, 100
3, 11040, Note_on_c, 1, 72, 100
3, 11340, Note_on_c, 1, 72, 0
3, 11340, Note_on_c, 1, 81, 0
3, 11340, Note_on_c, 1, 72, 100
3, 11340, Note_on_c, 1, 81, 100
3, 11370, Note_on_c, 1, 81, 0
3, 11370, Note_on_c, 1, 72, 0
3, 11400, Note_on_c, 1, 72, 100
3, 11400, Note_on_c, 1, 81, 100
3, 11430, Note_on_c, 1, 81, 0
3, 11430, Note_on_c, 1, 72, 0
3, 11460, Note_on_c, 1, 72, 100
3, 11460, Note_on_c, 1, 81, 100
3, 11490, Note_on_c, 1, 81, 0
3, 11490, Note_on_c, 1, 72, 0
3, 11520, Note_on_c, 1, 81, 100
3, 11520, Note_on_c, 1, 72, 100
3, 11820, Note_on_c, 1, 72, 0
3, 11820, Note_on_c, 1, 81, 0
3, 11820, Note_on_c, 1, 72, 100
3, 11820, Note_on_c, 1, 81, 100
3, 11850, Note_on_c, 1, 81, 0
3, 11850, Note_on_c, 1, 72, 0
3, 11880, Note_on_c, 1, 72, 100
3, 11880, Note_on_c, 1, 81, 100
3, 11910, Note_on_c, 1, 81, 0
3, 11910, Note_on_c, 1, 72, 0
3, 11940, Note_on_c, 1, 72, 100
3, 11940, Note_on_c, 1, 81, 100
3, 11970, Note_on_c, 1, 81, 0
3, 11970, Note_on_c, 1, 72, 0
3, 12000, Note_on_c, 1, 77, 100
3, 12000, Note_on_c, 1, 72, 100
3, 12300, Note_on_c, 1, 72, 0
3, 12300, Note_on_c, 1, 77, 0
3, 12300, Note_on_c, 1, 72, 100
3, 12300, Note_on_c, 1, 77, 100
3, 12330, Note_on_c, 1, 77, 0
3, 12330, Note_on_c, 1, 72, 0
3, 12360, Note_on_c, 1, 72, 100
3, 12360, Note_on_c, 1, 77, 100
3, 12390, Note_on_c, 1, 77, 0
3, 12390, Note_on_c, 1, 72, 0
3, 12420, Note_on_c, 1, 72, 100
3, 12420, Note_on_c, 1, 77, 100
3, 12450, Note_on_c, 1, 77, 0
3, 12450, Note_on_c, 1, 72, 0
3, 12480, Note_on_c, 1, 78, 100
3, 12480, Note_on_c, 1, 72, 100
3, 12780, Note_on_c, 1, 72, 0
3, 12780, Note_on_c, 1, 78, 0
3, 12780, Note_on_c, 1, 72, 100
3, 12780, Note_on_c, 1, 78, 100
3, 12810, Note_on_c, 1, 78, 0
3, 12810, Note_on_c, 1, 72, 0
3, 12840, Note_on_c, 1, 72, 100
3, 12840, Note_on_c, 1, 78, 100
3, 12870, Note_on_c, 1, 78, 0
3, 12870, Note_on_c, 1, 72, 0
3, 12900, Note_on_c, 1, 72, 100
3, 12900, Note_on_c, 1, 78, 100
3, 12930, Note_on_c, 1, 78, 0
3, 12930, Note_on_c, 1, 72, 0
3, 12960, Note_on_c, 1, 71, 100
3, 12960, Note_on_c, 1, 80, 100
3, 13200, Note_on_c, 1, 80, 0
3, 13200, Note_on_c, 1, 71, 0
3, 13200, Note_on_c, 1, 72, 100
3, 13200, Note_on_c, 1, 81, 100
3, 13440, Note_on_c, 1, 81, 0
3, 13440, Note_on_c, 1, 72, 0
3, 13440, Note_on_c, 1, 71, 100
3, 13440, Note_on_c, 1, 80, 100
3, 13680, Note_on_c, 1, 80, 0
3, 13680, Note_on_c, 1, 71, 0
3, 13680, Note_on_c, 1, 72, 100
3, 13680, Note_on_c, 1, 81, 100
3, 13920, Note_on_c, 1, 81, 0
3, 13920, Note_on_c, 1, 72, 0
3, 13920, Note_on_c, 1, 71, 100
3, 13920, Note_on_c, 1, 80, 100
3, 13980, Note_on_c, 1, 80, 0
3, 13980, Note_on_c, 1, 71, 0
3, 14040, Note_on_c, 1, 76, 100
3, 14070, Note_on_c, 1, 76, 0
3, 14100, Note_on_c, 1, 74, 100
3, 14130, Note_on_c, 1, 74, 0
3, 14160, Note_on_c, 1, 72, 100
3, 14220, Note_on_c, 1, 72, 0
3, 14220, Note_on_c, 1, 76, 100
3, 14280, Note_on_c, 1, 76, 0
3, 14280, Note_on_c, 1, 72, 100
3, 14340, Note_on_c, 1, 72, 0
3, 14340, Note_on_c, 1, 69, 100
3, 14400, Note_on_c, 1, 69, 0
3, 14400, Note_on_c, 1, 68, 100
3, 14460, Note_on_c, 1, 68, 0
3, 14460, Note_on_c, 1, 71, 100
3, 14520, Note_on_c, 1, 71, 0
3, 14520, Note_on_c, 1, 76, 100
3, 14580, Note_on_c, 1, 76, 0
3, 14580, Note_on_c, 1, 74, 100
3, 14640, Note_on_c, 1, 74, 0
3, 14640, Note_on_c, 1, 72, 100
3, 14700, Note_on_c, 1, 72, 0
3, 14700, Note_on_c, 1, 76, 100
3, 14760, Note_on_c, 1, 76, 0
3, 14760, Note_on_c, 1, 72, 100
3, 14820, Note_on_c, 1, 72, 0
3, 14820, Note_on_c, 1, 69, 100
3, 14880, Note_on_c, 1, 69, 0
3, 14880, Note_on_c, 1, 76, 100
3, 14880, Note_on_c, 1, 64, 100
3, 15000, Note_on_c, 1, 64, 0
3, 15000, Note_on_c, 1, 76, 0
3, 17520, Note_on_c, 1, 76, 50
3, 17520, Note_on_c, 1, 73, 50
3, 17760, Note_on_c, 1, 73, 0
3, 17760, Note_on_c, 1, 74, 50
3, 18000, Note_on_c, 1, 74, 0
3, 18000, Note_on_c, 1, 73, 50
3, 18240, Note_on_c, 1, 73, 0
3, 18240, Note_on_c, 1, 74, 50
3, 18480, Note_on_c, 1, 74, 0
3, 18480, Note_on_c, 1, 73, 50
3, 18540, Note_on_c, 1, 73, 0
3, 18540, Note_on_c, 1, 76, 0
3, 20700, Note_on_c, 1, 81, 50
3, 20730, Note_on_c, 1, 81, 0
3, 20760, Note_on_c, 1, 81, 50
3, 20790, Note_on_c, 1, 81, 0
3, 20820, Note_on_c, 1, 81, 50
3, 20850, Note_on_c, 1, 81, 0
3, 20880, Note_on_c, 1, 81, 50
3, 20940, Note_on_c, 1, 81, 0
3, 20940, Note_on_c, 1, 80, 50
3, 20970, Note_on_c, 1, 80, 0
3, 21000, Note_on_c, 1, 80, 50
3, 21030, Note_on_c, 1, 80, 0
3, 21060, Note_on_c, 1, 80, 50
3, 21090, Note_on_c, 1, 80, 0
3, 21120, Note_on_c, 1, 80, 50
3, 21180, Note_on_c, 1, 80, 0
3, 21180, Note_on_c, 1, 81, 50
3, 21210, Note_on_c, 1, 81, 0
3, 21240, Note_on_c, 1, 81, 50
3, 21270, Note_on_c, 1, 81, 0
3, 21300, Note_on_c, 1, 81, 50
3, 21330, Note_on_c, 1, 81, 0
3, 21360, Note_on_c, 1, 76, 50
3, 21360, Note_on_c, 1, 73, 50
3, 21600, Note_on_c, 1, 73, 0
3, 21600, Note_on_c, 1, 74, 50
3, 21840, Note_on_c, 1, 74, 0
3, 21840, Note_on_c, 1, 73, 50
3, 22080, Note_on_c, 1, 73, 0
3, 22080, Note_on_c, 1, 74, 50
3, 22320, Note_on_c, 1, 74, 0
3, 22320, Note_on_c, 1, 73, 50
3, 22380, Note_on_c, 1, 73, 0
3, 22380, Note_on_c, 1, 76, 0
3, 23580, Note_on_c, 1, 73, 50
3, 23580, Note_on_c, 1, 69, 50
3, 23610, Note_on_c, 1, 69, 0
3, 23610, Note_on_c, 1, 73, 0
3, 23640, Note_on_c, 1, 76, 50
3, 23640, Note_on_c, 1, 73, 50
3, 23670, Note_on_c, 1, 73, 0
3, 23670, Note_on_c, 1, 76, 0
3, 23700, Note_on_c, 1, 69, 50
3, 23700, Note_on_c, 1, 73, 50
3, 23730, Note_on_c, 1, 73, 0
3, 23730, Note_on_c, 1, 69, 0
3, 23760, Note_on_c, 1, 78, 50
3, 23760, Note_on_c, 1, 81, 50
3, 23880, Note_on_c, 1, 81, 0
3, 23880, Note_on_c, 1, 78, 0
3, 23880, Note_on_c, 1, 76, 50
3, 23880, Note_on_c, 1, 80, 50
3, 24000, Note_on_c, 1, 80, 0
3, 24000, Note_on_c, 1, 76, 0
3, 24000, Note_on_c, 1, 74, 50
3, 24000, Note_on_c, 1, 78, 50
3, 24120, Note_on_c, 1, 78, 0
3, 24120, Note_on_c, 1, 74, 0
3, 24120, Note_on_c, 1, 73, 50
3, 24120, Note_on_c, 1, 76, 50
3, 24240, Note_on_c, 1, 76, 0
3, 24240, Note_on_c, 1, 73, 0
3, 24240, Note_on_c, 1, 74, 50
3, 24240, Note_on_c, 1, 69, 50
3, 24480, Note_on_c, 1, 69, 0
3, 24480, Note_on_c, 1, 69, 50
3, 24600, Note_on_c, 1, 69, 0
3, 24600, Note_on_c, 1, 71, 50
3, 24720, Note_on_c, 1, 71, 0
3, 24720, Note_on_c, 1, 74, 0
3, 24720, Note_on_c, 1, 73, 50
3, 24840, Note_on_c, 1, 73, 0
3, 24840, Note_on_c, 1, 74, 50
3, 24900, Note_on_c, 1, 74, 0
3, 24900, Note_on_c, 1, 71, 50
3, 24960, Note_on_c, 1, 71, 0
3, 24960, Note_on_c, 1, 69, 50
3, 25080, Note_on_c, 1, 69, 0
3, 25080, Note_on_c, 1, 68, 50
3, 25200, Note_on_c, 1, 68, 0
3, 25200, Note_on_c, 1, 69, 50
3, 25320, Note_on_c, 1, 69, 0
3, 26160, Note_on_c, 1, 77, 100
3, 26160, Note_on_c, 1, 74, 100
3, 26400, Note_on_c, 1, 74, 0
3, 26400, Note_on_c, 1, 77, 0
3, 26400, Note_on_c, 1, 79, 100
3, 26400, Note_on_c, 1, 73, 100
3, 26580, Note_on_c, 1, 79, 0
3, 26580, Note_on_c, 1, 76, 100
3, 26640, Note_on_c, 1, 76, 0
3, 26640, Note_on_c, 1, 73, 0
3, 26640, Note_on_c, 1, 77, 100
3, 26640, Note_on_c, 1, 74, 100
3, 26880, Note_on_c, 1, 74, 0
3, 26880, Note_on_c, 1, 77, 0
3, 26880, Note_on_c, 1, 79, 100
3, 26880, Note_on_c, 1, 73, 100
3, 27060, Note_on_c, 1, 79, 0
3, 27060, Note_on_c, 1, 76, 100
3, 27120, Note_on_c, 1, 76, 0
3, 27120, Note_on_c, 1, 73, 0
3, 27120, Note_on_c, 1, 77, 100
3, 27120, Note_on_c, 1, 74, 100
3, 27360, Note_on_c, 1, 74, 0
3, 27360, Note_on_c, 1, 77, 0
3, 27360, Note_on_c, 1, 79, 100
3, 27360, Note_on_c, 1, 73, 100
3, 27540, Note_on_c, 1, 79, 0
3, 27540, Note_on_c, 1, 76, 100
3, 27600, Note_on_c, 1, 76, 0
3, 27600, Note_on_c, 1, 73, 0
3, 27600, Note_on_c, 1, 81, 100
3, 27600, Note_on_c, 1, 74, 100
3, 28080, Note_on_c, 1, 74, 0
3, 28080, Note_on_c, 1, 81, 0
3, 28080, Note_on_c, 1, 71, 100
3, 28080, Note_on_c, 1, 80, 100
3, 28200, Note_on_c, 1, 80, 0
3, 28200, Note_on_c, 1, 71, 0
3, 28200, Note_on_c, 1, 69, 100
3, 28200, Note_on_c, 1, 81, 100
3, 28320, Note_on_c, 1, 81, 0
3, 28320, Note_on_c, 1, 69, 0
3, 28320, Note_on_c, 1, 74, 100
3, 28320, Note_on_c, 1, 83, 100
3, 28440, Note_on_c, 1, 83, 0
3, 28440, Note_on_c, 1, 74, 0
3, 28440, Note_on_c, 1, 71, 100
3, 28440, Note_on_c, 1, 80, 100
3, 28560, Note_on_c, 1, 80, 0
3, 28560, Note_on_c, 1, 71, 0
3, 28560, Note_on_c, 1, 81, 100
3, 28560, Note_on_c, 1, 73, 100
3, 28620, Note_on_c, 1, 73, 0
3, 28620, Note_on_c, 1, 81, 0
3, 28620, Note_on_c, 1, 64, 50
3, 28620, Note_on_c, 1, 69, 50
3, 28650, Note_on_c, 1, 69, 0
3, 28650, Note_on_c, 1, 64, 0
3, 28680, Note_on_c, 1, 69, 50
3, 28680, Note_on_c, 1, 73, 50
3, 28710, Note_on_c, 1, 73, 0
3, 28710, Note_on_c, 1, 69, 0
3, 28740, Note_on_c, 1, 64, 50
3, 28740, Note_on_c, 1, 69, 50
3, 28770, Note_on_c, 1, 69, 0
3, 28770, Note_on_c, 1, 64, 0
3, 28800, Note_on_c, 1, 74, 50
3, 28800, Note_on_c, 1, 71, 50
3, 29040, Note_on_c, 1, 71, 0
3, 29040, Note_on_c, 1, 74, 0
3, 29040, Note_on_c, 1, 69, 50
3, 29040, Note_on_c, 1, 73, 50
3, 29100, Note_on_c, 1, 73, 0
3, 29100, Note_on_c, 1, 69, 0
3, 29100, Note_on_c, 1, 64, 50
3, 29100, Note_on_c, 1, 69, 50
3, 29130, Note_on_c, 1, 69, 0
3, 29130, Note_on_c, 1, 64, 0
3, 29160, Note_on_c, 1, 69, 50
3, 29160, Note_on_c, 1, 73, 50
3, 29190, Note_on_c, 1, 73, 0
3, 29190, Note_on_c, 1, 69, 0
3, 29220, Note_on_c, 1, 64, 50
3, 29220, Note_on_c, 1, 69, 50
3, 29250, Note_on_c, 1, 69, 0
3, 29250, Note_on_c, 1, 64, 0
3, 29280, Note_on_c, 1, 71, 50
3, 29280, Note_on_c, 1, 74, 50
3, 29520, Note_on_c, 1, 74, 0
3, 29520, Note_on_c, 1, 71, 0
3, 29520, Note_on_c, 1, 69, 50
3, 29520, Note_on_c, 1, 73, 50
3, 29580, Note_on_c, 1, 73, 0
3, 29580, Note_on_c, 1, 69, 0
3, 29580, Note_on_c, 1, 64, 50
3, 29580, Note_on_c, 1, 69, 50
3, 29610, Note_on_c, 1, 69, 0
3, 29610, Note_on_c, 1, 64, 0
3, 29640, Note_on_c, 1, 69, 50
3, 29640, Note_on_c, 1, 73, 50
3, 29670, Note_on_c, 1, 73, 0
3, 29670, Note_on_c, 1, 69, 0
3, 29700, Note_on_c, 1, 64, 50
3, 29700, Note_on_c, 1, 69, 50
3, 29730, Note_on_c, 1, 69, 0
3, 29730, Note_on_c, 1, 64, 0
3, 29760, Note_on_c, 1, 74, 50
3, 29760, Note_on_c, 1, 71, 50
3, 30000, Note_on_c, 1, 71, 0
3, 30000, Note_on_c, 1, 74, 0
3, 30000, Note_on_c, 1, 69, 50
3, 30000, Note_on_c, 1, 73, 50
3, 30120, Note_on_c, 1, 73, 0
3, 30120, Note_on_c, 1, 69, 0
3, 31020, Note_on_c, 1, 73, 60
3, 31020, Note_on_c, 1, 76, 60
3, 31050, Note_on_c, 1, 76, 0
3, 31050, Note_on_c, 1, 73, 0
3, 31080, Note_on_c, 1, 81, 60
3, 31080, Note_on_c, 1, 76, 60
3, 31110, Note_on_c, 1, 76, 0
3, 31110, Note_on_c, 1, 81, 0
3, 31140, Note_on_c, 1, 73, 60
3, 31140, Note_on_c, 1, 76, 60
3, 31170, Note_on_c, 1, 76, 0
3, 31170, Note_on_c, 1, 73, 0
3, 31200, Note_on_c, 1, 81, 60
3, 31200, Note_on_c, 1, 78, 60
3, 31320, Note_on_c, 1, 78, 0
3, 31320, Note_on_c, 1, 81, 0
3, 31500, Note_on_c, 1, 69, 60
3, 31500, Note_on_c, 1, 73, 60
3, 31530, Note_on_c, 1, 73, 0
3, 31530, Note_on_c, 1, 69, 0
3, 31560, Note_on_c, 1, 73, 60
3, 31560, Note_on_c, 1, 76, 60
3, 31590, Note_on_c, 1, 76, 0
3, 31590, Note_on_c, 1, 73, 0
3, 31620, Note_on_c, 1, 73, 60
3, 31620, Note_on_c, 1, 69, 60
3, 31650, Note_on_c, 1, 69, 0
3, 31650, Note_on_c, 1, 73, 0
3, 31680, Note_on_c, 1, 71, 60
3, 31680, Note_on_c, 1, 74, 60
3, 31800, Note_on_c, 1, 74, 0
3, 31800, Note_on_c, 1, 71, 0
3, 31980, Note_on_c, 1, 73, 60
3, 31980, Note_on_c, 1, 76, 60
3, 32010, Note_on_c, 1, 76, 0
3, 32010, Note_on_c, 1, 73, 0
3, 32040, Note_on_c, 1, 81, 60
3, 32040, Note_on_c, 1, 76, 60
3, 32070, Note_on_c, 1, 76, 0
3, 32070, Note_on_c, 1, 81, 0
3, 32100, Note_on_c, 1, 73, 60
3, 32100, Note_on_c, 1, 76, 60
3, 32130, Note_on_c, 1, 76, 0
3, 32130, Note_on_c, 1, 73, 0
3, 32160, Note_on_c, 1, 81, 60
3, 32160, Note_on_c, 1, 78, 60
3, 32280, Note_on_c, 1, 78, 0
3, 32280, Note_on_c, 1, 81, 0
3, 32460, Note_on_c, 1, 69, 60
3, 32460, Note_on_c, 1, 73, 60
3, 32490, Note_on_c, 1, 73, 0
3, 32490, Note_on_c, 1, 69, 0
3, 32520, Note_on_c, 1, 73, 60
3, 32520, Note_on_c, 1, 76, 60
3, 32550, Note_on_c, 1, 76, 0
3, 32550, Note_on_c, 1, 73, 0
3, 32580, Note_on_c, 1, 73, 60
3, 32580, Note_on_c, 1, 69, 60
3, 32610, Note_on_c, 1, 69, 0
3, 32610, Note_on_c, 1, 73, 0
3, 32640, Note_on_c, 1, 71, 60
3, 32640, Note_on_c, 1, 74, 60
3, 32760, Note_on_c, 1, 74, 0
3, 32760, Note_on_c, 1, 71, 0
3, 32880, Note_on_c, 1, 73, 100
3, 32880, Note_on_c, 1, 81, 100
3, 35610, Note_on_c, 1, 81, 0
3, 35610, Note_on_c, 1, 73, 0
3, 35640, Note_on_c, 1, 81, 125
3, 35640, Note_on_c, 1, 73, 125
3, 35730, Note_on_c, 1, 73, 0
3, 35730, Note_on_c, 1, 81, 0
3, 35760, Note_on_c, 1, 73, 127
3, 35760, Note_on_c, 1, 81, 127
3, 35850, Note_on_c, 1, 81, 0
3, 35850, Note_on_c, 1, 73, 0
3, 35880, Note_on_c, 1, 76, 127
3, 35880, Note_on_c, 1, 85, 127
3, 35970, Note_on_c, 1, 85, 0
3, 35970, Note_on_c, 1, 76, 0
3, 36000, Note_on_c, 1, 73, 127
3, 36000, Note_on_c, 1, 81, 127
3, 36090, Note_on_c, 1, 81, 0
3, 36090, Note_on_c, 1, 73, 0
3, 36240, Note_on_c, 1, 73, 127
3, 36240, Note_on_c, 1, 76, 127
3, 37260, Note_on_c, 1, 76, 0
3, 37260, Note_on_c, 1, 73, 0
3, 37500, Note_on_c, 1, 73, 50
3, 37500, Note_on_c, 1, 69, 50
3, 37530, Note_on_c, 1, 69, 0
3, 37530, Note_on_c, 1, 73, 0
3, 37560, Note_on_c, 1, 76, 50
3, 37560, Note_on_c, 1, 73, 50
3, 37590, Note_on_c, 1, 73, 0
3, 37590, Note_on_c, 1, 76, 0
3, 37620, Note_on_c, 1, 73, 50
3, 37620, Note_on_c, 1, 69, 50
3, 37650, Note_on_c, 1, 69, 0
3, 37650, Note_on_c, 1, 73, 0
3, 37680, Note_on_c, 1, 78, 50
3, 37680, Note_on_c, 1, 81, 50
3, 37800, Note_on_c, 1, 81, 0
3, 37800, Note_on_c, 1, 78, 0
3, 37800, Note_on_c, 1, 76, 50
3, 37800, Note_on_c, 1, 80, 50
3, 37920, Note_on_c, 1, 80, 0
3, 37920, Note_on_c, 1, 76, 0
3, 37920, Note_on_c, 1, 74, 50
3, 37920, Note_on_c, 1, 78, 50
3, 38040, Note_on_c, 1, 78, 0
3, 38040, Note_on_c, 1, 74, 0
3, 38040, Note_on_c, 1, 73, 50
3, 38040, Note_on_c, 1, 76, 50
3, 38160, Note_on_c, 1, 76, 0
3, 38160, Note_on_c, 1, 73, 0
3, 38160, Note_on_c, 1, 83, 100
3, 38160, Note_on_c, 1, 80, 100
3, 39180, Note_on_c, 1, 80, 0
3, 39180, Note_on_c, 1, 83, 0
3, 39420, Note_on_c, 1, 64, 50
3, 39420, Note_on_c, 1, 68, 50
3, 39450, Note_on_c, 1, 68, 0
3, 39450, Note_on_c, 1, 64, 0
3, 39480, Note_on_c, 1, 71, 50
3, 39480, Note_on_c, 1, 68, 50
3, 39510, Note_on_c, 1, 68, 0
3, 39510, Note_on_c, 1, 71, 0
3, 39540, Note_on_c, 1, 64, 50
3, 39540, Note_on_c, 1, 68, 50
3, 39570, Note_on_c, 1, 68, 0
3, 39570, Note_on_c, 1, 64, 0
3, 39600, Note_on_c, 1, 69, 50
3, 39600, Note_on_c, 1, 76, 50
3, 39720, Note_on_c, 1, 76, 0
3, 39720, Note_on_c, 1, 69, 0
3, 39720, Note_on_c, 1, 74, 50
3, 39720, Note_on_c, 1, 78, 50
3, 39840, Note_on_c, 1, 78, 0
3, 39840, Note_on_c, 1, 74, 0
3, 39840, Note_on_c, 1, 76, 50
3, 39840, Note_on_c, 1, 73, 50
3, 39960, Note_on_c, 1, 73, 0
3, 39960, Note_on_c, 1, 76, 0
3, 39960, Note_on_c, 1, 71, 50
3, 39960, Note_on_c, 1, 74, 50
3, 40080, Note_on_c, 1, 74, 0
3, 40080, Note_on_c, 1, 71, 0
3, 40080, Note_on_c, 1, 76, 100
3, 40080, Note_on_c, 1, 82, 100
3, 41100, Note_on_c, 1, 82, 0
3, 41100, Note_on_c, 1, 76, 0
3, 41340, Note_on_c, 1, 70, 50
3, 41340, Note_on_c, 1, 66, 50
3, 41370, Note_on_c, 1, 66, 0
3, 41370, Note_on_c, 1, 70, 0
3, 41400, Note_on_c, 1, 73, 50
3, 41400, Note_on_c, 1, 70, 50
3, 41430, Note_on_c, 1, 70, 0
3, 41430, Note_on_c, 1, 73, 0
3, 41460, Note_on_c, 1, 70, 50
3, 41460, Note_on_c, 1, 66, 50
3, 41490, Note_on_c, 1, 66, 0
3, 41490, Note_on_c, 1, 70, 0
3, 41520, Note_on_c, 1, 71, 50
3, 41520, Note_on_c, 1, 78, 50
3, 41640, Note_on_c, 1, 78, 0
3, 41640, Note_on_c, 1, 71, 0
3, 41640, Note_on_c, 1, 79, 50
3, 41640, Note_on_c, 1, 76, 50
3, 41760, Note_on_c, 1, 76, 0
3, 41760, Note_on_c, 1, 79, 0
3, 41760, Note_on_c, 1, 74, 50
3, 41760, Note_on_c, 1, 78, 50
3, 41880, Note_on_c, 1, 78, 0
3, 41880, Note_on_c, 1, 74, 0
3, 41880, Note_on_c, 1, 73, 50
3, 41880, Note_on_c, 1, 76, 50
3, 42000, Note_on_c, 1, 76, 0
3, 42000, Note_on_c, 1, 73, 0
3, 42000, Note_on_c, 1, 71, 50
3, 42000, Note_on_c, 1, 78, 50
3, 42120, Note_on_c, 1, 71, 0
3, 42240, Note_on_c, 1, 78, 0
3, 42240, Note_on_c, 1, 77, 50
3, 42480, Note_on_c, 1, 77, 0
3, 42480, Note_on_c, 1, 76, 50
3, 42720, Note_on_c, 1, 76, 0
3, 42720, Note_on_c, 1, 80, 50
3, 42735, Note_on_c, 1, 78, 50
3, 42750, Note_on_c, 1, 78, 0
3, 42750, Note_on_c, 1, 80, 0
3, 42750, Note_on_c, 1, 80, 50
3, 42765, Note_on_c, 1, 78, 50
3, 42780, Note_on_c, 1, 78, 0
3, 42780, Note_on_c, 1, 80, 0
3, 42780, Note_on_c, 1, 80, 50
3, 42795, Note_on_c, 1, 78, 50
3, 42810, Note_on_c, 1, 78, 0
3, 42810, Note_on_c, 1, 80, 0
3, 42810, Note_on_c, 1, 80, 50
3, 42825, Note_on_c, 1, 78, 50
3, 42840, Note_on_c, 1, 78, 0
3, 42840, Note_on_c, 1, 80, 0
3, 42840, Note_on_c, 1, 80, 50
3, 42855, Note_on_c, 1, 78, 50
3, 42870, Note_on_c, 1, 78, 0
3, 42870, Note_on_c, 1, 80, 0
3, 42870, Note_on_c, 1, 80, 50
3, 42885, Note_on_c, 1, 78, 50
3, 42900, Note_on_c, 1, 78, 0
3, 42900, Note_on_c, 1, 80, 0
3, 42900, Note_on_c, 1, 78, 50
3, 42930, Note_on_c, 1, 78, 0
3, 42930, Note_on_c, 1, 80, 50
3, 42960, Note_on_c, 1, 80, 0
3, 42960, Note_on_c, 1, 81, 50
3, 43200, Note_on_c, 1, 81, 0
3, 43200, Note_on_c, 1, 75, 50
3, 43440, Note_on_c, 1, 75, 0
3, 43440, Note_on_c, 1, 74, 50
3, 43680, Note_on_c, 1, 74, 0
3, 43680, Note_on_c, 1, 78, 50
3, 43695, Note_on_c, 1, 78, 0
3, 43695, Note_on_c, 1, 76, 50
3, 43710, Note_on_c, 1, 76, 0
3, 43710, Note_on_c, 1, 78, 50
3, 43725, Note_on_c, 1, 78, 0
3, 43725, Note_on_c, 1, 76, 50
3, 43740, Note_on_c, 1, 76, 0
3, 43740, Note_on_c, 1, 78, 50
3, 43755, Note_on_c, 1, 78, 0
3, 43755, Note_on_c, 1, 76, 50
3, 43770, Note_on_c, 1, 76, 0
3, 43770, Note_on_c, 1, 78, 50
3, 43785, Note_on_c, 1, 78, 0
3, 43785, Note_on_c, 1, 76, 50
3, 43800, Note_on_c, 1, 76, 0
3, 43800, Note_on_c, 1, 78, 50
3, 43815, Note_on_c, 1, 78, 0
3, 43815, Note_on_c, 1, 76, 50
3, 43830, Note_on_c, 1, 76, 0
3, 43830, Note_on_c, 1, 78, 50
3, 43845, Note_on_c, 1, 78, 0
3, 43845, Note_on_c, 1, 76, 50
3, 43860, Note_on_c, 1, 76, 0
3, 43860, Note_on_c, 1, 76, 50
3, 43890, Note_on_c, 1, 76, 0
3, 43890, Note_on_c, 1, 78, 50
3, 43920, Note_on_c, 1, 78, 0
3, 43920, Note_on_c, 1, 79, 100
3, 43980, Note_on_c, 1, 79, 0
3, 43980, Note_on_c, 1, 67, 100
3, 44010, Note_on_c, 1, 67, 0
3, 44040, Note_on_c, 1, 71, 100
3, 44070, Note_on_c, 1, 71, 0
3, 44100, Note_on_c, 1, 67, 100
3, 44130, Note_on_c, 1, 67, 0
3, 44160, Note_on_c, 1, 74, 100
3, 44460, Note_on_c, 1, 74, 0
3, 44460, Note_on_c, 1, 72, 100
3, 44580, Note_on_c, 1, 72, 0
3, 44580, Note_on_c, 1, 71, 100
3, 44700, Note_on_c, 1, 71, 0
3, 44700, Note_on_c, 1, 69, 100
3, 44820, Note_on_c, 1, 69, 0
3, 44820, Note_on_c, 1, 67, 100
3, 44880, Note_on_c, 1, 67, 0
3, 44880, Note_on_c, 1, 66, 100
3, 45000, Note_on_c, 1, 66, 0
3, 45180, Note_on_c, 1, 62, 100
3, 45210, Note_on_c, 1, 62, 0
3, 45240, Note_on_c, 1, 66, 100
3, 45270, Note_on_c, 1, 66, 0
3, 45300, Note_on_c, 1, 62, 100
3, 45330, Note_on_c, 1, 62, 0
3, 45360, Note_on_c, 1, 74, 100
3, 45420, Note_on_c, 1, 74, 0
3, 45480, Note_on_c, 1, 72, 100
3, 45540, Note_on_c, 1, 72, 0
3, 45600, Note_on_c, 1, 71, 100
3, 45660, Note_on_c, 1, 71, 0
3, 45720, Note_on_c, 1, 69, 100
3, 45780, Note_on_c, 1, 69, 0
3, 45840, Note_on_c, 1, 68, 100
3, 45900, Note_on_c, 1, 68, 0
3, 45900, Note_on_c, 1, 64, 100
3, 45930, Note_on_c, 1, 64, 0
3, 45960, Note_on_c, 1, 68, 100
3, 45990, Note_on_c, 1, 68, 0
3, 46020, Note_on_c, 1, 64, 100
3, 46050, Note_on_c, 1, 64, 0
3, 46080, Note_on_c, 1, 76, 100
3, 46380, Note_on_c, 1, 76, 0
3, 46380, Note_on_c, 1, 74, 100
3, 46500, Note_on_c, 1, 74, 0
3, 46500, Note_on_c, 1, 72, 100
3, 46620, Note_on_c, 1, 72, 0
3, 46620, Note_on_c, 1, 71, 100
3, 46740, Note_on_c, 1, 71, 0
3, 46740, Note_on_c, 1, 69, 100
3, 46800, Note_on_c, 1, 69, 0
3, 46800, Note_on_c, 1, 68, 100
3, 46920, Note_on_c, 1, 68, 0
3, 47100, Note_on_c, 1, 64, 100
3, 47130, Note_on_c, 1, 64, 0
3, 47160, Note_on_c, 1, 68, 100
3, 47190, Note_on_c, 1, 68, 0
3, 47220, Note_on_c, 1, 64, 100
3, 47250, Note_on_c, 1, 64, 0
3, 47280, Note_on_c, 1, 76, 100
3, 47340, Note_on_c, 1, 76, 0
3, 47400, Note_on_c, 1, 74, 100
3, 47460, Note_on_c, 1, 74, 0
3, 47520, Note_on_c, 1, 72, 100
3, 47580, Note_on_c, 1, 72, 0
3, 47640, Note_on_c, 1, 71, 100
3, 47700, Note_on_c, 1, 71, 0
3, 47760, Note_on_c, 1, 70, 100
3, 47820, Note_on_c, 1, 70, 0
3, 47820, Note_on_c, 1, 66, 100
3, 47850, Note_on_c, 1, 66, 0
3, 47880, Note_on_c, 1, 70, 100
3, 47910, Note_on_c, 1, 70, 0
3, 47940, Note_on_c, 1, 66, 100
3, 47970, Note_on_c, 1, 66, 0
3, 48000, Note_on_c, 1, 78, 100
3, 48300, Note_on_c, 1, 78, 0
3, 48300, Note_on_c, 1, 76, 100
3, 48420, Note_on_c, 1, 76, 0
3, 48420, Note_on_c, 1, 74, 100
3, 48540, Note_on_c, 1, 74, 0
3, 48540, Note_on_c, 1, 73, 100
3, 48660, Note_on_c, 1, 73, 0
3, 48660, Note_on_c, 1, 71, 100
3, 48720, Note_on_c, 1, 71, 0
3, 48720, Note_on_c, 1, 72, 100
3, 48960, Note_on_c, 1, 72, 0
3, 48960, Note_on_c, 1, 70, 100
3, 48960, Note_on_c, 1, 73, 100
3, 49200, Note_on_c, 1, 73, 0
3, 49200, Note_on_c, 1, 70, 0
3, 49200, Note_on_c, 1, 71, 100
3, 49320, Note_on_c, 1, 71, 0
3, 49500, Note_on_c, 1, 71, 75
3, 49500, Note_on_c, 1, 66, 75
3, 49530, Note_on_c, 1, 66, 0
3, 49530, Note_on_c, 1, 71, 0
3, 49560, Note_on_c, 1, 74, 75
3, 49560, Note_on_c, 1, 71, 75
3, 49590, Note_on_c, 1, 71, 0
3, 49590, Note_on_c, 1, 74, 0
3, 49620, Note_on_c, 1, 66, 75
3, 49620, Note_on_c, 1, 71, 75
3, 49650, Note_on_c, 1, 71, 0
3, 49650, Note_on_c, 1, 66, 0
3, 49680, Note_on_c, 1, 71, 75
3, 49680, Note_on_c, 1, 79, 75
3, 49800, Note_on_c, 1, 79, 0
3, 49800, Note_on_c, 1, 71, 0
3, 50220, Note_on_c, 1, 71, 75
3, 50220, Note_on_c, 1, 67, 75
3, 50250, Note_on_c, 1, 67, 0
3, 50250, Note_on_c, 1, 71, 0
3, 50280, Note_on_c, 1, 74, 75
3, 50280, Note_on_c, 1, 71, 75
3, 50310, Note_on_c, 1, 71, 0
3, 50310, Note_on_c, 1, 74, 0
3, 50340, Note_on_c, 1, 67, 75
3, 50340, Note_on_c, 1, 71, 75
3, 50370, Note_on_c, 1, 71, 0
3, 50370, Note_on_c, 1, 67, 0
3, 50400, Note_on_c, 1, 71, 75
3, 50400, Note_on_c, 1, 79, 75
3, 50520, Note_on_c, 1, 79, 0
3, 50520, Note_on_c, 1, 71, 0
3, 50700, Note_on_c, 1, 69, 75
3, 50700, Note_on_c, 1, 66, 75
3, 50730, Note_on_c, 1, 66, 0
3, 50730, Note_on_c, 1, 69, 0
3, 50760, Note_on_c, 1, 72, 75
3, 50760, Note_on_c, 1, 69, 75
3, 50790, Note_on_c, 1, 69, 0
3, 50790, Note_on_c, 1, 72, 0
3, 50820, Note_on_c, 1, 66, 75
3, 50820, Note_on_c, 1, 69, 75
3, 50850, Note_on_c, 1, 69, 0
3, 50850, Note_on_c, 1, 66, 0
3, 50880, Note_on_c, 1, 69, 75
3, 50880, Note_on_c, 1, 78, 75
3, 51000, Note_on_c, 1, 78, 0
3, 51000, Note_on_c, 1, 69, 0
3, 51180, Note_on_c, 1, 67, 75
3, 51180, Note_on_c, 1, 64, 75
3, 51210, Note_on_c, 1, 64, 0
3, 51210, Note_on_c, 1, 67, 0
3, 51240, Note_on_c, 1, 71, 75
3, 51240, Note_on_c, 1, 67, 75
3, 51270, Note_on_c, 1, 67, 0
3, 51270, Note_on_c, 1, 71, 0
3, 51300, Note_on_c, 1, 67, 75
3, 51300, Note_on_c, 1, 64, 75
3, 51330, Note_on_c, 1, 64, 0
3, 51330, Note_on_c, 1, 67, 0
3, 51360, Note_on_c, 1, 76, 75
3, 51360, Note_on_c, 1, 67, 75
3, 51480, Note_on_c, 1, 67, 0
3, 51480, Note_on_c, 1, 76, 0
3, 52440, Note_on_c, 1, 71, 50
3, 52440, Note_on_c, 1, 78, 50
3, 52500, Note_on_c, 1, 78, 0
3, 52500, Note_on_c, 1, 71, 0
3, 52560, Note_on_c, 1, 76, 50
3, 52560, Note_on_c, 1, 71, 50
3, 52620, Note_on_c, 1, 71, 0
3, 52620, Note_on_c, 1, 76, 0
3, 52680, Note_on_c, 1, 78, 50
3, 52680, Note_on_c, 1, 71, 50
3, 52740, Note_on_c, 1, 71, 0
3, 52740, Note_on_c, 1, 78, 0
3, 52800, Note_on_c, 1, 76, 50
3, 52800, Note_on_c, 1, 71, 50
3, 52860, Note_on_c, 1, 71, 0
3, 52860, Note_on_c, 1, 76, 0
3, 52920, Note_on_c, 1, 78, 50
3, 52920, Note_on_c, 1, 71, 50
3, 52980, Note_on_c, 1, 71, 0
3, 52980, Note_on_c, 1, 78, 0
3, 53040, Note_on_c, 1, 76, 50
3, 53040, Note_on_c, 1, 71, 50
3, 53100, Note_on_c, 1, 71, 0
3, 53100, Note_on_c, 1, 76, 0
3, 53160, Note_on_c, 1, 78, 50
3, 53160, Note_on_c, 1, 71, 50
3, 53220, Note_on_c, 1, 71, 0
3, 53220, Note_on_c, 1, 78, 0
3, 53280, Note_on_c, 1, 76, 50
3, 53280, Note_on_c, 1, 71, 50
3, 53340, Note_on_c, 1, 71, 0
3, 53340, Note_on_c, 1, 76, 0
3, 53520, Note_on_c, 1, 64, 50
3, 53520, Note_on_c, 1, 67, 50
3, 53640, Note_on_c, 1, 67, 0
3, 53640, Note_on_c, 1, 64, 0
3, 53820, Note_on_c, 1, 72, 50
3, 53850, Note_on_c, 1, 72, 0
3, 53880, Note_on_c, 1, 76, 50
3, 53910, Note_on_c, 1, 76, 0
3, 53940, Note_on_c, 1, 72, 50
3, 53970, Note_on_c, 1, 72, 0
3, 54000, Note_on_c, 1, 69, 50
3, 54060, Note_on_c, 1, 69, 0
3, 54120, Note_on_c, 1, 69, 50
3, 54120, Note_on_c, 1, 66, 50
3, 54240, Note_on_c, 1, 66, 0
3, 54240, Note_on_c, 1, 69, 0
3, 54240, Note_on_c, 1, 71, 50
3, 54240, Note_on_c, 1, 67, 50
3, 54360, Note_on_c, 1, 67, 0
3, 54360, Note_on_c, 1, 71, 0
3, 54360, Note_on_c, 1, 72, 50
3, 54360, Note_on_c, 1, 69, 50
3, 54480, Note_on_c, 1, 69, 0
3, 54480, Note_on_c, 1, 72, 0
3, 54480, Note_on_c, 1, 70, 100
3, 54480, Note_on_c, 1, 79, 100
3, 55500, Note_on_c, 1, 79, 0
3, 55500, Note_on_c, 1, 70, 0
3, 55740, Note_on_c, 1, 70, 50
3, 55740, Note_on_c, 1, 67, 50
3, 55770, Note_on_c, 1, 67, 0
3, 55770, Note_on_c, 1, 70, 0
3, 55800, Note_on_c, 1, 74, 50
3, 55800, Note_on_c, 1, 70, 50
3, 55830, Note_on_c, 1, 70, 0
3, 55830, Note_on_c, 1, 74, 0
3, 55860, Note_on_c, 1, 70, 50
3, 55860, Note_on_c, 1, 67, 50
3, 55890, Note_on_c, 1, 67, 0
3, 55890, Note_on_c, 1, 70, 0
3, 55920, Note_on_c, 1, 79, 50
3, 55920, Note_on_c, 1, 75, 50
3, 56040, Note_on_c, 1, 75, 0
3, 56040, Note_on_c, 1, 79, 0
3, 56040, Note_on_c, 1, 74, 50
3, 56040, Note_on_c, 1, 77, 50
3, 56160, Note_on_c, 1, 77, 0
3, 56160, Note_on_c, 1, 74, 0
3, 56160, Note_on_c, 1, 72, 50
3, 56160, Note_on_c, 1, 75, 50
3, 56280, Note_on_c, 1, 75, 0
3, 56280, Note_on_c, 1, 72, 0
3, 56280, Note_on_c, 1, 74, 50
3, 56280, Note_on_c, 1, 70, 50
3, 56400, Note_on_c, 1, 70, 0
3, 56400, Note_on_c, 1, 74, 0
3, 56400, Note_on_c, 1, 75, 100
3, 56400, Note_on_c, 1, 81, 100
3, 57420, Note_on_c, 1, 81, 0
3, 57420, Note_on_c, 1, 75, 0
3, 57660, Note_on_c, 1, 65, 50
3, 57660, Note_on_c, 1, 69, 50
3, 57690, Note_on_c, 1, 69, 0
3, 57690, Note_on_c, 1, 65, 0
3, 57720, Note_on_c, 1, 72, 50
3, 57720, Note_on_c, 1, 69, 50
3, 57750, Note_on_c, 1, 69, 0
3, 57750, Note_on_c, 1, 72, 0
3, 57780, Note_on_c, 1, 65, 50
3, 57780, Note_on_c, 1, 69, 50
3, 57810, Note_on_c, 1, 69, 0
3, 57810, Note_on_c, 1, 65, 0
3, 57840, Note_on_c, 1, 70, 50
3, 57840, Note_on_c, 1, 77, 50
3, 57960, Note_on_c, 1, 77, 0
3, 57960, Note_on_c, 1, 70, 0
3, 57960, Note_on_c, 1, 79, 50
3, 57960, Note_on_c, 1, 75, 50
3, 58080, Note_on_c, 1, 75, 0
3, 58080, Note_on_c, 1, 79, 0
3, 58080, Note_on_c, 1, 74, 50
3, 58080, Note_on_c, 1, 77, 50
3, 58200, Note_on_c, 1, 77, 0
3, 58200, Note_on_c, 1, 74, 0
3, 58200, Note_on_c, 1, 72, 50
3, 58200, Note_on_c, 1, 75, 50
3, 58320, Note_on_c, 1, 75, 0
3, 58320, Note_on_c, 1, 72, 0
3, 58320, Note_on_c, 1, 74, 100
3, 58320, Note_on_c, 1, 77, 100
3, 58620, Note_on_c, 1, 77, 0
3, 58620, Note_on_c, 1, 74, 0
3, 58620, Note_on_c, 1, 77, 100
3, 58620, Note_on_c, 1, 74, 100
3, 58650, Note_on_c, 1, 74, 0
3, 58650, Note_on_c, 1, 77, 0
3, 58680, Note_on_c, 1, 77, 100
3, 58680, Note_on_c, 1, 74, 100
3, 58710, Note_on_c, 1, 74, 0
3, 58710, Note_on_c, 1, 77, 0
3, 58740, Note_on_c, 1, 77, 100
3, 58740, Note_on_c, 1, 74, 100
3, 58770, Note_on_c, 1, 74, 0
3, 58770, Note_on_c, 1, 77, 0
3, 58800, Note_on_c, 1, 74, 100
3, 58800, Note_on_c, 1, 77, 100
3, 59100, Note_on_c, 1, 77, 0
3, 59100, Note_on_c, 1, 74, 0
3, 59100, Note_on_c, 1, 77, 100
3, 59100, Note_on_c, 1, 86, 100
3, 59130, Note_on_c, 1, 86, 0
3, 59130, Note_on_c, 1, 77, 0
3, 59160, Note_on_c, 1, 77, 100
3, 59160, Note_on_c, 1, 86, 100
3, 59190, Note_on_c, 1, 86, 0
3, 59190, Note_on_c, 1, 77, 0
3, 59220, Note_on_c, 1, 77, 100
3, 59220, Note_on_c, 1, 86, 100
3, 59250, Note_on_c, 1, 86, 0
3, 59250, Note_on_c, 1, 77, 0
3, 59280, Note_on_c, 1, 82, 100
3, 59280, Note_on_c, 1, 77, 100
3, 59580, Note_on_c, 1, 77, 0
3, 59580, Note_on_c, 1, 82, 0
3, 59580, Note_on_c, 1, 77, 100
3, 59580, Note_on_c, 1, 82, 100
3, 59610, Note_on_c, 1, 82, 0
3, 59610, Note_on_c, 1, 77, 0
3, 59640, Note_on_c, 1, 77, 100
3, 59640, Note_on_c, 1, 82, 100
3, 59670, Note_on_c, 1, 82, 0
3, 59670, Note_on_c, 1, 77, 0
3, 59700, Note_on_c, 1, 77, 100
3, 59700, Note_on_c, 1, 82, 100
3, 59730, Note_on_c, 1, 82, 0
3, 59730, Note_on_c, 1, 77, 0
3, 59760, Note_on_c, 1, 83, 100
3, 59760, Note_on_c, 1, 77, 100
3, 60060, Note_on_c, 1, 77, 0
3, 60060, Note_on_c, 1, 83, 0
3, 60060, Note_on_c, 1, 77, 100
3, 60060, Note_on_c, 1, 83, 100
3, 60090, Note_on_c, 1, 83, 0
3, 60090, Note_on_c, 1, 77, 0
3, 60120, Note_on_c, 1, 77, 100
3, 60120, Note_on_c, 1, 83, 100
3, 60150, Note_on_c, 1, 83, 0
3, 60150, Note_on_c, 1, 77, 0
3, 60180, Note_on_c, 1, 77, 100
3, 60180, Note_on_c, 1, 83, 100
3, 60210, Note_on_c, 1, 83, 0
3, 60210, Note_on_c, 1, 77, 0
3, 60240, Note_on_c, 1, 81, 100
3, 60240, Note_on_c, 1, 76, 100
3, 60360, Note_on_c, 1, 81, 0
3, 60360, Note_on_c, 1, 79, 100
3, 60480, Note_on_c, 1, 79, 0
3, 60480, Note_on_c, 1, 76, 0
3, 60480, Note_on_c, 1, 74, 100
3, 60480, Note_on_c, 1, 77, 100
3, 60600, Note_on_c, 1, 77, 0
3, 60600, Note_on_c, 1, 74, 0
3, 60600, Note_on_c, 1, 80, 100
3, 60600, Note_on_c, 1, 71, 100
3, 60720, Note_on_c, 1, 71, 0
3, 60720, Note_on_c, 1, 80, 0
3, 60720, Note_on_c, 1, 81, 100
3, 60720, Note_on_c, 1, 73, 100
3, 60840, Note_on_c, 1, 73, 0
3, 60840, Note_on_c, 1, 81, 0
3, 60840, Note_on_c, 1, 76, 100
3, 60840, Note_on_c, 1, 79, 100
3, 60960, Note_on_c, 1, 79, 0
3, 60960, Note_on_c, 1, 76, 0
3, 60960, Note_on_c, 1, 74, 100
3, 60960, Note_on_c, 1, 77, 100
3, 61080, Note_on_c, 1, 77, 0
3, 61080, Note_on_c, 1, 74, 0
3, 61080, Note_on_c, 1, 71, 100
3, 61080, Note_on_c, 1, 80, 100
3, 61200, Note_on_c, 1, 80, 0
3, 61200, Note_on_c, 1, 71, 0
3, 61200, Note_on_c, 1, 76, 100
3, 61200, Note_on_c, 1, 81, 100
3, 61260, Note_on_c, 1, 81, 0
3, 61260, Note_on_c, 1, 76, 0
3, 61320, Note_on_c, 1, 81, 100
3, 61350, Note_on_c, 1, 81, 0
3, 61380, Note_on_c, 1, 79, 100
3, 61410, Note_on_c, 1, 79, 0
3, 61440, Note_on_c, 1, 77, 100
3, 61500, Note_on_c, 1, 77, 0
3, 61500, Note_on_c, 1, 81, 100
3, 61560, Note_on_c, 1, 81, 0
3, 61560, Note_on_c, 1, 77, 100
3, 61620, Note_on_c, 1, 77, 0
3, 61620, Note_on_c, 1, 74, 100
3, 61680, Note_on_c, 1, 74, 0
3, 61680, Note_on_c, 1, 73, 100
3, 61740, Note_on_c, 1, 73, 0
3, 61740, Note_on_c, 1, 76, 100
3, 61800, Note_on_c, 1, 76, 0
3, 61800, Note_on_c, 1, 81, 100
3, 61860, Note_on_c, 1, 81, 0
3, 61860, Note_on_c, 1, 79, 100
3, 61920, Note_on_c, 1, 79, 0
3, 61920, Note_on_c, 1, 77, 100
3, 61980, Note_on_c, 1, 77, 0
3, 61980, Note_on_c, 1, 81, 100
3, 62040, Note_on_c, 1, 81, 0
3, 62040, Note_on_c, 1, 77, 100
3, 62100, Note_on_c, 1, 77, 0
3, 62100, Note_on_c, 1, 74, 100
3, 62160, Note_on_c, 1, 74, 0
3, 62160, Note_on_c, 1, 81, 100
3, 62160, Note_on_c, 1, 69, 100
3, 62280, Note_on_c, 1, 69, 0
3, 62280, Note_on_c, 1, 81, 0
3, 64800, Note_on_c, 1, 69, 50
3, 64800, Note_on_c, 1, 66, 50
3, 65040, Note_on_c, 1, 66, 0
3, 65040, Note_on_c, 1, 67, 50
3, 65280, Note_on_c, 1, 67, 0
3, 65280, Note_on_c, 1, 66, 50
3, 65520, Note_on_c, 1, 66, 0
3, 65520, Note_on_c, 1, 67, 50
3, 65760, Note_on_c, 1, 67, 0
3, 65760, Note_on_c, 1, 66, 50
3, 65820, Note_on_c, 1, 66, 0
3, 65820, Note_on_c, 1, 69, 0
3, 66540, Note_on_c, 1, 81, 50
3, 66600, Note_on_c, 1, 81, 0
3, 66600, Note_on_c, 1, 80, 50
3, 66660, Note_on_c, 1, 80, 0
3, 66660, Note_on_c, 1, 79, 50
3, 66720, Note_on_c, 1, 79, 0
3, 66720, Note_on_c, 1, 69, 50
3, 66720, Note_on_c, 1, 78, 50
3, 66900, Note_on_c, 1, 78, 0
3, 66900, Note_on_c, 1, 69, 0
3, 66900, Note_on_c, 1, 71, 50
3, 66900, Note_on_c, 1, 79, 50
3, 66960, Note_on_c, 1, 79, 0
3, 66960, Note_on_c, 1, 71, 0
3, 66960, Note_on_c, 1, 71, 50
3, 66960, Note_on_c, 1, 79, 50
3, 67020, Note_on_c, 1, 79, 0
3, 67020, Note_on_c, 1, 71, 0
3, 67020, Note_on_c, 1, 69, 50
3, 67020, Note_on_c, 1, 78, 50
3, 67050, Note_on_c, 1, 78, 0
3, 67050, Note_on_c, 1, 69, 0
3, 67080, Note_on_c, 1, 69, 50
3, 67080, Note_on_c, 1, 78, 50
3, 67110, Note_on_c, 1, 78, 0
3, 67110, Note_on_c, 1, 69, 0
3, 67140, Note_on_c, 1, 69, 50
3, 67140, Note_on_c, 1, 78, 50
3, 67170, Note_on_c, 1, 78, 0
3, 67170, Note_on_c, 1, 69, 0
3, 67200, Note_on_c, 1, 78, 50
3, 67200, Note_on_c, 1, 69, 50
3, 67260, Note_on_c, 1, 69, 0
3, 67260, Note_on_c, 1, 78, 0
3, 67260, Note_on_c, 1, 67, 50
3, 67260, Note_on_c, 1, 76, 50
3, 67290, Note_on_c, 1, 76, 0
3, 67290, Note_on_c, 1, 67, 0
3, 67320, Note_on_c, 1, 67, 50
3, 67320, Note_on_c, 1, 76, 50
3, 67350, Note_on_c, 1, 76, 0
3, 67350, Note_on_c, 1, 67, 0
3, 67380, Note_on_c, 1, 67, 50
3, 67380, Note_on_c, 1, 76, 50
3, 67410, Note_on_c, 1, 76, 0
3, 67410, Note_on_c, 1, 67, 0
3, 67440, Note_on_c, 1, 67, 50
3, 67440, Note_on_c, 1, 76, 50
3, 67500, Note_on_c, 1, 76, 0
3, 67500, Note_on_c, 1, 67, 0
3, 67500, Note_on_c, 1, 74, 50
3, 67500, Note_on_c, 1, 66, 50
3, 67530, Note_on_c, 1, 66, 0
3, 67530, Note_on_c, 1, 74, 0
3, 67560, Note_on_c, 1, 74, 50
3, 67560, Note_on_c, 1, 66, 50
3, 67590, Note_on_c, 1, 66, 0
3, 67590, Note_on_c, 1, 74, 0
3, 67620, Note_on_c, 1, 74, 50
3, 67620, Note_on_c, 1, 66, 50
3, 67650, Note_on_c, 1, 66, 0
3, 67650, Note_on_c, 1, 74, 0
3, 67680, Note_on_c, 1, 81, 50
3, 67680, Note_on_c, 1, 78, 50
3, 67860, Note_on_c, 1, 78, 0
3, 67860, Note_on_c, 1, 81, 0
3, 67860, Note_on_c, 1, 83, 50
3, 67860, Note_on_c, 1, 79, 50
3, 67920, Note_on_c, 1, 79, 0
3, 67920, Note_on_c, 1, 83, 0
3, 67920, Note_on_c, 1, 79, 50
3, 67920, Note_on_c, 1, 83, 50
3, 67980, Note_on_c, 1, 83, 0
3, 67980, Note_on_c, 1, 79, 0
3, 67980, Note_on_c, 1, 81, 50
3, 67980, Note_on_c, 1, 78, 50
3, 68010, Note_on_c, 1, 78, 0
3, 68010, Note_on_c, 1, 81, 0
3, 68040, Note_on_c, 1, 81, 50
3, 68040, Note_on_c, 1, 78, 50
3, 68070, Note_on_c, 1, 78, 0
3, 68070, Note_on_c, 1, 81, 0
3, 68100, Note_on_c, 1, 81, 50
3, 68100, Note_on_c, 1, 78, 50
3, 68130, Note_on_c, 1, 78, 0
3, 68130, Note_on_c, 1, 81, 0
3, 68160, Note_on_c, 1, 78, 50
3, 68160, Note_on_c, 1, 81, 50
3, 68220, Note_on_c, 1, 81, 0
3, 68220, Note_on_c, 1, 78, 0
3, 68220, Note_on_c, 1, 76, 50
3, 68220, Note_on_c, 1, 79, 50
3, 68250, Note_on_c, 1, 79, 0
3, 68250, Note_on_c, 1, 76, 0
3, 68280, Note_on_c, 1, 76, 50
3, 68280, Note_on_c, 1, 79, 50
3, 68310, Note_on_c, 1, 79, 0
3, 68310, Note_on_c, 1, 76, 0
3, 68340, Note_on_c, 1, 76, 50
3, 68340, Note_on_c, 1, 79, 50
3, 68370, Note_on_c, 1, 79, 0
3, 68370, Note_on_c, 1, 76, 0
3, 68400, Note_on_c, 1, 76, 50
3, 68400, Note_on_c, 1, 79, 50
3, 68460, Note_on_c, 1, 79, 0
3, 68460, Note_on_c, 1, 76, 0
3, 68460, Note_on_c, 1, 74, 50
3, 68460, Note_on_c, 1, 78, 50
3, 68490, Note_on_c, 1, 78, 0
3, 68490, Note_on_c, 1, 74, 0
3, 68520, Note_on_c, 1, 74, 50
3, 68520, Note_on_c, 1, 78, 50
3, 68550, Note_on_c, 1, 78, 0
3, 68550, Note_on_c, 1, 74, 0
3, 68580, Note_on_c, 1, 74, 50
3, 68580, Note_on_c, 1, 78, 50
3, 68610, Note_on_c, 1, 78, 0
3, 68610, Note_on_c, 1, 74, 0
3, 68640, Note_on_c, 1, 69, 50
3, 68640, Note_on_c, 1, 66, 50
3, 68880, Note_on_c, 1, 66, 0
3, 68880, Note_on_c, 1, 67, 50
3, 69120, Note_on_c, 1, 67, 0
3, 69120, Note_on_c, 1, 66, 50
3, 69360, Note_on_c, 1, 66, 0
3, 69360, Note_on_c, 1, 67, 50
3, 69600, Note_on_c, 1, 67, 0
3, 69600, Note_on_c, 1, 66, 50
3, 69660, Note_on_c, 1, 66, 0
3, 69660, Note_on_c, 1, 69, 0
3, 70860, Note_on_c, 1, 66, 50
3, 70860, Note_on_c, 1, 62, 50
3, 70890, Note_on_c, 1, 62, 0
3, 70890, Note_on_c, 1, 66, 0
3, 70920, Note_on_c, 1, 69, 50
3, 70920, Note_on_c, 1, 66, 50
3, 70950, Note_on_c, 1, 66, 0
3, 70950, Note_on_c, 1, 69, 0
3, 70980, Note_on_c, 1, 62, 50
3, 70980, Note_on_c, 1, 66, 50
3, 71010, Note_on_c, 1, 66, 0
3, 71010, Note_on_c, 1, 62, 0
3, 71040, Note_on_c, 1, 71, 50
3, 71040, Note_on_c, 1, 74, 50
3, 71160, Note_on_c, 1, 74, 0
3, 71160, Note_on_c, 1, 71, 0
3, 71160, Note_on_c, 1, 69, 50
3, 71160, Note_on_c, 1, 73, 50
3, 71280, Note_on_c, 1, 73, 0
3, 71280, Note_on_c, 1, 69, 0
3, 71280, Note_on_c, 1, 67, 50
3, 71280, Note_on_c, 1, 71, 50
3, 71400, Note_on_c, 1, 71, 0
3, 71400, Note_on_c, 1, 67, 0
3, 71400, Note_on_c, 1, 66, 50
3, 71400, Note_on_c, 1, 69, 50
3, 71520, Note_on_c, 1, 69, 0
3, 71520, Note_on_c, 1, 66, 0
3, 71520, Note_on_c, 1, 79, 50
3, 71520, Note_on_c, 1, 74, 50
3, 71760, Note_on_c, 1, 74, 0
3, 71760, Note_on_c, 1, 74, 50
3, 71880, Note_on_c, 1, 74, 0
3, 71880, Note_on_c, 1, 76, 50
3, 72000, Note_on_c, 1, 76, 0
3, 72000, Note_on_c, 1, 79, 0
3, 72000, Note_on_c, 1, 78, 50
3, 72120, Note_on_c, 1, 78, 0
3, 72120, Note_on_c, 1, 79, 50
3, 72180, Note_on_c, 1, 79, 0
3, 72180, Note_on_c, 1, 76, 50
3, 72240, Note_on_c, 1, 76, 0
3, 72240, Note_on_c, 1, 74, 50
3, 72360, Note_on_c, 1, 74, 0
3, 72360, Note_on_c, 1, 73, 50
3, 72480, Note_on_c, 1, 73, 0
3, 72480, Note_on_c, 1, 74, 50
3, 72600, Note_on_c, 1, 74, 0
3, 73440, Note_on_c, 1, 82, 100
3, 73440, Note_on_c, 1, 79, 100
3, 73680, Note_on_c, 1, 79, 0
3, 73680, Note_on_c, 1, 82, 0
3, 73680, Note_on_c, 1, 84, 100
3, 73680, Note_on_c, 1, 78, 100
3, 73860, Note_on_c, 1, 84, 0
3, 73860, Note_on_c, 1, 81, 100
3, 73920, Note_on_c, 1, 81, 0
3, 73920, Note_on_c, 1, 78, 0
3, 73920, Note_on_c, 1, 82, 100
3, 73920, Note_on_c, 1, 79, 100
3, 74160, Note_on_c, 1, 79, 0
3, 74160, Note_on_c, 1, 82, 0
3, 74160, Note_on_c, 1, 84, 100
3, 74160, Note_on_c, 1, 78, 100
3, 74340, Note_on_c, 1, 84, 0
3, 74340, Note_on_c, 1, 81, 100
3, 74400, Note_on_c, 1, 81, 0
3, 74400, Note_on_c, 1, 78, 0
3, 74400, Note_on_c, 1, 82, 100
3, 74400, Note_on_c, 1, 79, 100
3, 74640, Note_on_c, 1, 79, 0
3, 74640, Note_on_c, 1, 82, 0
3, 74640, Note_on_c, 1, 84, 100
3, 74640, Note_on_c, 1, 78, 100
3, 74820, Note_on_c, 1, 84, 0
3, 74820, Note_on_c, 1, 81, 100
3, 74880, Note_on_c, 1, 81, 0
3, 74880, Note_on_c, 1, 78, 0
3, 74880, Note_on_c, 1, 79, 100
3, 74880, Note_on_c, 1, 74, 100
3, 75360, Note_on_c, 1, 74, 0
3, 75360, Note_on_c, 1, 73, 100
3, 75480, Note_on_c, 1, 73, 0
3, 75480, Note_on_c, 1, 79, 0
3, 75480, Note_on_c, 1, 78, 100
3, 75480, Note_on_c, 1, 74, 100
3, 75600, Note_on_c, 1, 74, 0
3, 75600, Note_on_c, 1, 78, 0
3, 75600, Note_on_c, 1, 79, 100
3, 75600, Note_on_c, 1, 76, 100
3, 75720, Note_on_c, 1, 76, 0
3, 75720, Note_on_c, 1, 79, 0
3, 75720, Note_on_c, 1, 73, 100
3, 75720, Note_on_c, 1, 76, 100
3, 75840, Note_on_c, 1, 76, 0
3, 75840, Note_on_c, 1, 73, 0
3, 75840, Note_on_c, 1, 74, 100
3, 75960, Note_on_c, 1, 74, 0
3, 78300, Note_on_c, 1, 69, 70
3, 78300, Note_on_c, 1, 74, 70
3, 78330, Note_on_c, 1, 74, 0
3, 78330, Note_on_c, 1, 69, 0
3, 78360, Note_on_c, 1, 74, 70
3, 78360, Note_on_c, 1, 78, 70
3, 78390, Note_on_c, 1, 78, 0
3, 78390, Note_on_c, 1, 74, 0
3, 78420, Note_on_c, 1, 69, 70
3, 78420, Note_on_c, 1, 74, 70
3, 78450, Note_on_c, 1, 74, 0
3, 78450, Note_on_c, 1, 69, 0
3, 78480, Note_on_c, 1, 74, 70
3, 78480, Note_on_c, 1, 79, 70
3, 78600, Note_on_c, 1, 79, 0
3, 78600, Note_on_c, 1, 74, 0
3, 78780, Note_on_c, 1, 78, 70
3, 78780, Note_on_c, 1, 74, 70
3, 78810, Note_on_c, 1, 74, 0
3, 78810, Note_on_c, 1, 78, 0
3, 78840, Note_on_c, 1, 81, 70
3, 78840, Note_on_c, 1, 78, 70
3, 78870, Note_on_c, 1, 78, 0
3, 78870, Note_on_c, 1, 81, 0
3, 78900, Note_on_c, 1, 74, 70
3, 78900, Note_on_c, 1, 78, 70
3, 78930, Note_on_c, 1, 78, 0
3, 78930, Note_on_c, 1, 74, 0
3, 78960, Note_on_c, 1, 73, 70
3, 78960, Note_on_c, 1, 76, 70
3, 79080, Note_on_c, 1, 76, 0
3, 79080, Note_on_c, 1, 73, 0
3, 79260, Note_on_c, 1, 69, 70
3, 79260, Note_on_c, 1, 74, 70
3, 79290, Note_on_c, 1, 74, 0
3, 79290, Note_on_c, 1, 69, 0
3, 79320, Note_on_c, 1, 74, 70
3, 79320, Note_on_c, 1, 78, 70
3, 79350, Note_on_c, 1, 78, 0
3, 79350, Note_on_c, 1, 74, 0
3, 79380, Note_on_c, 1, 69, 70
3, 79380, Note_on_c, 1, 74, 70
3, 79410, Note_on_c, 1, 74, 0
3, 79410, Note_on_c, 1, 69, 0
3, 79440, Note_on_c, 1, 74, 70
3, 79440, Note_on_c, 1, 79, 70
3, 79560, Note_on_c, 1, 79, 0
3, 79560, Note_on_c, 1, 74, 0
3, 79740, Note_on_c, 1, 78, 70
3, 79740, Note_on_c, 1, 74, 70
3, 79770, Note_on_c, 1, 74, 0
3, 79770, Note_on_c, 1, 78, 0
3, 79800, Note_on_c, 1, 81, 70
3, 79800, Note_on_c, 1, 78, 70
3, 79830, Note_on_c, 1, 78, 0
3, 79830, Note_on_c, 1, 81, 0
3, 79860, Note_on_c, 1, 74, 70
3, 79860, Note_on_c, 1, 78, 70
3, 79890, Note_on_c, 1, 78, 0
3, 79890, Note_on_c, 1, 74, 0
3, 79920, Note_on_c, 1, 73, 70
3, 79920, Note_on_c, 1, 76, 70
3, 80040, Note_on_c, 1, 76, 0
3, 80040, Note_on_c, 1, 73, 0
3, 80160, Note_on_c, 1, 74, 100
3, 80400, Note_on_c, 1, 74, 0
3, 80400, Note_on_c, 1, 74, 102
3, 80520, Note_on_c, 1, 74, 0
3, 80520, Note_on_c, 1, 74, 103
3, 80610, Note_on_c, 1, 74, 0
3, 80610, Note_on_c, 1, 74, 103
3, 80640, Note_on_c, 1, 74, 0
3, 80640, Note_on_c, 1, 74, 104
3, 80880, Note_on_c, 1, 74, 0
3, 80880, Note_on_c, 1, 78, 106
3, 81000, Note_on_c, 1, 78, 0
3, 81000, Note_on_c, 1, 78, 107
3, 81090, Note_on_c, 1, 78, 0
3, 81090, Note_on_c, 1, 78, 108
3, 81120, Note_on_c, 1, 78, 0
3, 81120, Note_on_c, 1, 78, 108
3, 81360, Note_on_c, 1, 78, 0
3, 81360, Note_on_c, 1, 74, 110
3, 81360, Note_on_c, 1, 78, 110
3, 81480, Note_on_c, 1, 78, 0
3, 81480, Note_on_c, 1, 74, 0
3, 81480, Note_on_c, 1, 74, 111
3, 81480, Note_on_c, 1, 78, 111
3, 81570, Note_on_c, 1, 78, 0
3, 81570, Note_on_c, 1, 74, 0
3, 81570, Note_on_c, 1, 74, 112
3, 81570, Note_on_c, 1, 78, 112
3, 81600, Note_on_c, 1, 78, 0
3, 81600, Note_on_c, 1, 74, 0
3, 81600, Note_on_c, 1, 74, 112
3, 81600, Note_on_c, 1, 78, 112
3, 81840, Note_on_c, 1, 78, 0
3, 81840, Note_on_c, 1, 74, 0
3, 81840, Note_on_c, 1, 81, 114
3, 81840, Note_on_c, 1, 78, 114
3, 81960, Note_on_c, 1, 78, 0
3, 81960, Note_on_c, 1, 81, 0
3, 81960, Note_on_c, 1, 81, 115
3, 81960, Note_on_c, 1, 78, 115
3, 82050, Note_on_c, 1, 78, 0
3, 82050, Note_on_c, 1, 81, 0
3, 82050, Note_on_c, 1, 78, 116
3, 82050, Note_on_c, 1, 81, 116
3, 82080, Note_on_c, 1, 81, 0
3, 82080, Note_on_c, 1, 78, 0
3, 82080, Note_on_c, 1, 78, 116
3, 82080, Note_on_c, 1, 81, 116
3, 82140, Note_on_c, 1, 81, 0
3, 82140, Note_on_c, 1, 78, 0
3, 82140, Note_on_c, 1, 81, 117
3, 82200, Note_on_c, 1, 81, 0
3, 82200, Note_on_c, 1, 78, 117
3, 82260, Note_on_c, 1, 78, 0
3, 82260, Note_on_c, 1, 74, 118
3, 82320, Note_on_c, 1, 74, 0
3, 82320, Note_on_c, 1, 81, 118
3, 82380, Note_on_c, 1, 81, 0
3, 82380, Note_on_c, 1, 78, 119
3, 82440, Note_on_c, 1, 78, 0
3, 82440, Note_on_c, 1, 74, 119
3, 82500, Note_on_c, 1, 74, 0
3, 82500, Note_on_c, 1, 69, 120
3, 82560, Note_on_c, 1, 69, 0
3, 82560, Note_on_c, 1, 78, 120
3, 82620, Note_on_c, 1, 78, 0
3, 82620, Note_on_c, 1, 74, 121
3, 82680, Note_on_c, 1, 74, 0
3, 82680, Note_on_c, 1, 69, 121
3, 82740, Note_on_c, 1, 69, 0
3, 82740, Note_on_c, 1, 66, 122
3, 82800, Note_on_c, 1, 66, 0
3, 82800, Note_on_c, 1, 74, 122
3, 82860, Note_on_c, 1, 74, 0
3, 82860, Note_on_c, 1, 69, 123
3, 82920, Note_on_c, 1, 69, 0
3, 82920, Note_on_c, 1, 66, 123
3, 82980, Note_on_c, 1, 66, 0
3, 82980, Note_on_c, 1, 62, 124
3, 83040, Note_on_c, 1, 62, 0
3, 83040, Note_on_c, 1, 69, 127
3, 83100, Note_on_c, 1, 69, 0
3, 83100, Note_on_c, 1, 66, 127
3, 83160, Note_on_c, 1, 66, 0
3, 83160, Note_on_c, 1, 62, 127
3, 83220, Note_on_c, 1, 62, 0
3, 83220, Note_on_c, 1, 69, 127
3, 83280, Note_on_c, 1, 69, 0
3, 83280, Note_on_c, 1, 74, 127
3, 83340, Note_on_c, 1, 74, 0
3, 83340, Note_on_c, 1, 69, 127
3, 83400, Note_on_c, 1, 69, 0
3, 83400, Note_on_c, 1, 74, 127
3, 83460, Note_on_c, 1, 74, 0
3, 83460, Note_on_c, 1, 69, 127
3, 83520, Note_on_c, 1, 69, 0
3, 83520, Note_on_c, 1, 74, 127
3, 83610, Note_on_c, 1, 74, 0
3, 83640, Note_on_c, 1, 81, 127
3, 83640, Note_on_c, 1, 78, 127
3, 83730, Note_on_c, 1, 78, 0
3, 83730, Note_on_c, 1, 81, 0
3, 83760, Note_on_c, 1, 74, 127
3, 83760, Note_on_c, 1, 78, 127
3, 83850, Note_on_c, 1, 78, 0
3, 83850, Note_on_c, 1, 74, 0
3, 83850, End_track
4, 0, Start_track
4, 0, MIDI_port, 0
4, 0, Title_t, "Fagotti"
4, 0, Program_c, 2, 70
4, 0, Control_c, 2, 7, 100
4, 0, Control_c, 2, 10, 70
4, 840, Note_on_c, 2, 54, 50
4, 840, Note_on_c, 2, 57, 50
4, 900, Note_on_c, 2, 57, 0
4, 900, Note_on_c, 2, 54, 0
4, 960, Note_on_c, 2, 52, 50
4, 960, Note_on_c, 2, 55, 50
4, 1020, Note_on_c, 2, 55, 0
4, 1020, Note_on_c, 2, 52, 0
4, 1080, Note_on_c, 2, 54, 50
4, 1080, Note_on_c, 2, 57, 50
4, 1140, Note_on_c, 2, 57, 0
4, 1140, Note_on_c, 2, 54, 0
4, 1200, Note_on_c, 2, 52, 50
4, 1200, Note_on_c, 2, 55, 50
4, 1260, Note_on_c, 2, 55, 0
4, 1260, Note_on_c, 2, 52, 0
4, 1320, Note_on_c, 2, 54, 50
4, 1320, Note_on_c, 2, 57, 50
4, 1380, Note_on_c, 2, 57, 0
4, 1380, Note_on_c, 2, 54, 0
4, 1440, Note_on_c, 2, 52, 50
4, 1440, Note_on_c, 2, 55, 50
4, 1500, Note_on_c, 2, 55, 0
4, 1500, Note_on_c, 2, 52, 0
4, 1560, Note_on_c, 2, 54, 50
4, 1560, Note_on_c, 2, 57, 50
4, 1620, Note_on_c, 2, 57, 0
4, 1620, Note_on_c, 2, 54, 0
4, 1680, Note_on_c, 2, 52, 50
4, 1680, Note_on_c, 2, 55, 50
4, 1740, Note_on_c, 2, 55, 0
4, 1740, Note_on_c, 2, 52, 0
4, 2760, Note_on_c, 2, 55, 50
4, 2760, Note_on_c, 2, 61, 50
4, 2820, Note_on_c, 2, 61, 0
4, 2820, Note_on_c, 2, 55, 0
4, 2880, Note_on_c, 2, 54, 50
4, 2880, Note_on_c, 2, 62, 50
4, 2940, Note_on_c, 2, 62, 0
4, 2940, Note_on_c, 2, 54, 0
4, 3000, Note_on_c, 2, 55, 50
4, 3000, Note_on_c, 2, 61, 50
4, 3060, Note_on_c, 2, 61, 0
4, 3060, Note_on_c, 2, 55, 0
4, 3120, Note_on_c, 2, 54, 50
4, 3120, Note_on_c, 2, 62, 50
4, 3180, Note_on_c, 2, 62, 0
4, 3180, Note_on_c, 2, 54, 0
4, 3240, Note_on_c, 2, 55, 50
4, 3240, Note_on_c, 2, 61, 50
4, 3300, Note_on_c, 2, 61, 0
4, 3300, Note_on_c, 2, 55, 0
4, 3360, Note_on_c, 2, 54, 50
4, 3360, Note_on_c, 2, 62, 50
4, 3420, Note_on_c, 2, 62, 0
4, 3420, Note_on_c, 2, 54, 0
4, 3480, Note_on_c, 2, 55, 50
4, 3480, Note_on_c, 2, 61, 50
4, 3540, Note_on_c, 2, 61, 0
4, 3540, Note_on_c, 2, 55, 0
4, 3600, Note_on_c, 2, 54, 50
4, 3600, Note_on_c, 2, 62, 50
4, 3660, Note_on_c, 2, 62, 0
4, 3660, Note_on_c, 2, 54, 0
4, 4080, Note_on_c, 2, 59, 100
4, 4080, Note_on_c, 2, 55, 100
4, 4320, Note_on_c, 2, 55, 0
4, 4320, Note_on_c, 2, 59, 0
4, 4320, Note_on_c, 2, 54, 100
4, 4320, Note_on_c, 2, 57, 100
4, 4410, Note_on_c, 2, 57, 0
4, 4410, Note_on_c, 2, 54, 0
4, 4560, Note_on_c, 2, 61, 100
4, 4560, Note_on_c, 2, 55, 100
4, 4800, Note_on_c, 2, 55, 0
4, 4800, Note_on_c, 2, 61, 0
4, 4800, Note_on_c, 2, 54, 100
4, 4800, Note_on_c, 2, 62, 100
4, 4890, Note_on_c, 2, 62, 0
4, 4890, Note_on_c, 2, 54, 0
4, 5040, Note_on_c, 2, 59, 100
4, 5040, Note_on_c, 2, 55, 100
4, 5280, Note_on_c, 2, 55, 0
4, 5280, Note_on_c, 2, 59, 0
4, 5280, Note_on_c, 2, 54, 100
4, 5280, Note_on_c, 2, 57, 100
4, 5370, Note_on_c, 2, 57, 0
4, 5370, Note_on_c, 2, 54, 0
4, 5520, Note_on_c, 2, 61, 100
4, 5520, Note_on_c, 2, 55, 100
4, 5760, Note_on_c, 2, 55, 0
4, 5760, Note_on_c, 2, 61, 0
4, 5760, Note_on_c, 2, 62, 100
4, 5760, Note_on_c, 2, 54, 100
4, 5850, Note_on_c, 2, 54, 0
4, 5850, Note_on_c, 2, 62, 0
4, 5880, Note_on_c, 2, 57, 100
4, 6000, Note_on_c, 2, 57, 0
4, 6000, Note_on_c, 2, 54, 100
4, 6120, Note_on_c, 2, 54, 0
4, 6120, Note_on_c, 2, 50, 100
4, 6240, Note_on_c, 2, 50, 0
4, 6240, Note_on_c, 2, 57, 100
4, 6285, Note_on_c, 2, 57, 0
4, 6300, Note_on_c, 2, 57, 100
4, 6345, Note_on_c, 2, 57, 0
4, 6360, Note_on_c, 2, 57, 100
4, 6405, Note_on_c, 2, 57, 0
4, 6420, Note_on_c, 2, 57, 100
4, 6465, Note_on_c, 2, 57, 0
4, 6480, Note_on_c, 2, 57, 100
4, 6525, Note_on_c, 2, 57, 0
4, 6540, Note_on_c, 2, 57, 100
4, 6585, Note_on_c, 2, 57, 0
4, 6600, Note_on_c, 2, 57, 100
4, 6645, Note_on_c, 2, 57, 0
4, 6660, Note_on_c, 2, 57, 100
4, 6705, Note_on_c, 2, 57, 0
4, 6720, Note_on_c, 2, 57, 100
4, 6765, Note_on_c, 2, 57, 0
4, 6780, Note_on_c, 2, 45, 100
4, 6825, Note_on_c, 2, 45, 0
4, 6840, Note_on_c, 2, 45, 100
4, 6885, Note_on_c, 2, 45, 0
4, 6900, Note_on_c, 2, 45, 100
4, 6945, Note_on_c, 2, 45, 0
4, 6960, Note_on_c, 2, 45, 100
4, 7080, Note_on_c, 2, 45, 0
4, 8040, Note_on_c, 2, 65, 35
4, 8160, Note_on_c, 2, 65, 0
4, 8160, Note_on_c, 2, 64, 35
4, 8280, Note_on_c, 2, 64, 0
4, 8280, Note_on_c, 2, 65, 35
4, 8400, Note_on_c, 2, 65, 0
4, 8400, Note_on_c, 2, 64, 35
4, 8520, Note_on_c, 2, 64, 0
4, 8520, Note_on_c, 2, 65, 35
4, 8640, Note_on_c, 2, 65, 0
4, 8640, Note_on_c, 2, 64, 35
4, 8760, Note_on_c, 2, 64, 0
4, 8760, Note_on_c, 2, 65, 35
4, 8880, Note_on_c, 2, 65, 0
4, 8880, Note_on_c, 2, 64, 35
4, 9000, Note_on_c, 2, 64, 0
4, 9120, Note_on_c, 2, 60, 35
4, 9240, Note_on_c, 2, 60, 0
4, 9420, Note_on_c, 2, 60, 35
4, 9450, Note_on_c, 2, 60, 0
4, 9480, Note_on_c, 2, 64, 35
4, 9510, Note_on_c, 2, 64, 0
4, 9540, Note_on_c, 2, 60, 35
4, 9570, Note_on_c, 2, 60, 0
4, 9600, Note_on_c, 2, 65, 35
4, 9720, Note_on_c, 2, 65, 0
4, 9960, Note_on_c, 2, 60, 35
4, 9960, Note_on_c, 2, 67, 35
4, 10020, Note_on_c, 2, 60, 0
4, 10080, Note_on_c, 2, 67, 0
4, 10080, Note_on_c, 2, 53, 35
4, 10080, Note_on_c, 2, 65, 35
4, 10140, Note_on_c, 2, 53, 0
4, 10200, Note_on_c, 2, 65, 0
4, 10200, Note_on_c, 2, 60, 35
4, 10200, Note_on_c, 2, 67, 35
4, 10260, Note_on_c, 2, 60, 0
4, 10320, Note_on_c, 2, 67, 0
4, 10320, Note_on_c, 2, 53, 35
4, 10320, Note_on_c, 2, 65, 35
4, 10380, Note_on_c, 2, 53, 0
4, 10440, Note_on_c, 2, 65, 0
4, 10440, Note_on_c, 2, 60, 35
4, 10440, Note_on_c, 2, 67, 35
4, 10500, Note_on_c, 2, 60, 0
4, 10560, Note_on_c, 2, 67, 0
4, 10560, Note_on_c, 2, 53, 35
4, 10560, Note_on_c, 2, 65, 35
4, 10620, Note_on_c, 2, 53, 0
4, 10680, Note_on_c, 2, 65, 0
4, 10680, Note_on_c, 2, 60, 35
4, 10680, Note_on_c, 2, 67, 35
4, 10740, Note_on_c, 2, 60, 0
4, 10800, Note_on_c, 2, 67, 0
4, 10800, Note_on_c, 2, 53, 35
4, 10800, Note_on_c, 2, 65, 35
4, 10920, Note_on_c, 2, 65, 0
4, 10920, Note_on_c, 2, 53, 0
4, 11040, Note_on_c, 2, 41, 100
4, 11040, Note_on_c, 2, 53, 100
4, 11520, Note_on_c, 2, 53, 0
4, 11520, Note_on_c, 2, 41, 0
4, 11520, Note_on_c, 2, 52, 100
4, 11520, Note_on_c, 2, 40, 100
4, 12000, Note_on_c, 2, 40, 0
4, 12000, Note_on_c, 2, 52, 0
4, 12000, Note_on_c, 2, 38, 100
4, 12000, Note_on_c, 2, 50, 100
4, 12480, Note_on_c, 2, 50, 0
4, 12480, Note_on_c, 2, 38, 0
4, 12480, Note_on_c, 2, 51, 100
4, 12480, Note_on_c, 2, 39, 100
4, 12960, Note_on_c, 2, 39, 0
4, 12960, Note_on_c, 2, 51, 0
4, 12960, Note_on_c, 2, 52, 100
4, 13005, Note_on_c, 2, 52, 0
4, 13020, Note_on_c, 2, 52, 100
4, 13065, Note_on_c, 2, 52, 0
4, 13080, Note_on_c, 2, 52, 100
4, 13125, Note_on_c, 2, 52, 0
4, 13140, Note_on_c, 2, 52, 100
4, 13185, Note_on_c, 2, 52, 0
4, 13200, Note_on_c, 2, 52, 100
4, 13245, Note_on_c, 2, 52, 0
4, 13260, Note_on_c, 2, 52, 100
4, 13305, Note_on_c, 2, 52, 0
4, 13320, Note_on_c, 2, 52, 100
4, 13365, Note_on_c, 2, 52, 0
4, 13380, Note_on_c, 2, 52, 100
4, 13425, Note_on_c, 2, 52, 0
4, 13440, Note_on_c, 2, 52, 100
4, 13485, Note_on_c, 2, 52, 0
4, 13500, Note_on_c, 2, 52, 100
4, 13545, Note_on_c, 2, 52, 0
4, 13560, Note_on_c, 2, 52, 100
4, 13605, Note_on_c, 2, 52, 0
4, 13620, Note_on_c, 2, 52, 100
4, 13665, Note_on_c, 2, 52, 0
4, 13680, Note_on_c, 2, 52, 100
4, 13725, Note_on_c, 2, 52, 0
4, 13740, Note_on_c, 2, 52, 100
4, 13785, Note_on_c, 2, 52, 0
4, 13800, Note_on_c, 2, 52, 100
4, 13845, Note_on_c, 2, 52, 0
4, 13860, Note_on_c, 2, 52, 100
4, 13905, Note_on_c, 2, 52, 0
4, 13920, Note_on_c, 2, 52, 100
4, 13980, Note_on_c, 2, 52, 0
4, 14040, Note_on_c, 2, 64, 100
4, 14070, Note_on_c, 2, 64, 0
4, 14100, Note_on_c, 2, 62, 100
4, 14130, Note_on_c, 2, 62, 0
4, 14160, Note_on_c, 2, 60, 100
4, 14220, Note_on_c, 2, 60, 0
4, 14220, Note_on_c, 2, 64, 100
4, 14280, Note_on_c, 2, 64, 0
4, 14280, Note_on_c, 2, 60, 100
4, 14340, Note_on_c, 2, 60, 0
4, 14340, Note_on_c, 2, 57, 100
4, 14400, Note_on_c, 2, 57, 0
4, 14400, Note_on_c, 2, 56, 100
4, 14460, Note_on_c, 2, 56, 0
4, 14460, Note_on_c, 2, 59, 100
4, 14520, Note_on_c, 2, 59, 0
4, 14520, Note_on_c, 2, 52, 100
4, 14580, Note_on_c, 2, 52, 0
4, 14580, Note_on_c, 2, 50, 100
4, 14640, Note_on_c, 2, 50, 0
4, 14640, Note_on_c, 2, 48, 100
4, 14700, Note_on_c, 2, 48, 0
4, 14700, Note_on_c, 2, 52, 100
4, 14760, Note_on_c, 2, 52, 0
4, 14760, Note_on_c, 2, 48, 100
4, 14820, Note_on_c, 2, 48, 0
4, 14820, Note_on_c, 2, 45, 100
4, 14880, Note_on_c, 2, 45, 0
4, 14880, Note_on_c, 2, 52, 100
4, 15000, Note_on_c, 2, 52, 0
4, 17520, Note_on_c, 2, 57, 50
4, 17550, Note_on_c, 2, 57, 0
4, 17580, Note_on_c, 2, 52, 50
4, 17610, Note_on_c, 2, 52, 0
4, 17640, Note_on_c, 2, 57, 50
4, 17670, Note_on_c, 2, 57, 0
4, 17700, Note_on_c, 2, 52, 50
4, 17730, Note_on_c, 2, 52, 0
4, 17760, Note_on_c, 2, 56, 50
4, 17790, Note_on_c, 2, 56, 0
4, 17820, Note_on_c, 2, 52, 50
4, 17850, Note_on_c, 2, 52, 0
4, 17880, Note_on_c, 2, 59, 50
4, 17910, Note_on_c, 2, 59, 0
4, 17940, Note_on_c, 2, 52, 50
4, 17970, Note_on_c, 2, 52, 0
4, 18000, Note_on_c, 2, 57, 50
4, 18030, Note_on_c, 2, 57, 0
4, 18060, Note_on_c, 2, 52, 50
4, 18090, Note_on_c, 2, 52, 0
4, 18120, Note_on_c, 2, 57, 50
4, 18150, Note_on_c, 2, 57, 0
4, 18180, Note_on_c, 2, 52, 50
4, 18210, Note_on_c, 2, 52, 0
4, 18240, Note_on_c, 2, 56, 50
4, 18270, Note_on_c, 2, 56, 0
4, 18300, Note_on_c, 2, 52, 50
4, 18330, Note_on_c, 2, 52, 0
4, 18360, Note_on_c, 2, 59, 50
4, 18390, Note_on_c, 2, 59, 0
4, 18420, Note_on_c, 2, 52, 50
4, 18450, Note_on_c, 2, 52, 0
4, 18480, Note_on_c, 2, 57, 50
4, 18540, Note_on_c, 2, 57, 0
4, 19740, Note_on_c, 2, 57, 50
4, 19770, Note_on_c, 2, 57, 0
4, 19800, Note_on_c, 2, 57, 50
4, 19830, Note_on_c, 2, 57, 0
4, 19860, Note_on_c, 2, 57, 50
4, 19890, Note_on_c, 2, 57, 0
4, 19920, Note_on_c, 2, 57, 50
4, 19980, Note_on_c, 2, 57, 0
4, 19980, Note_on_c, 2, 56, 50
4, 20010, Note_on_c, 2, 56, 0
4, 20040, Note_on_c, 2, 56, 50
4, 20070, Note_on_c, 2, 56, 0
4, 20100, Note_on_c, 2, 56, 50
4, 20130, Note_on_c, 2, 56, 0
4, 20160, Note_on_c, 2, 56, 50
4, 20220, Note_on_c, 2, 56, 0
4, 20220, Note_on_c, 2, 57, 50
4, 20250, Note_on_c, 2, 57, 0
4, 20280, Note_on_c, 2, 57, 50
4, 20310, Note_on_c, 2, 57, 0
4, 20340, Note_on_c, 2, 57, 50
4, 20370, Note_on_c, 2, 57, 0
4, 20400, Note_on_c, 2, 64, 50
4, 20400, Note_on_c, 2, 61, 50
4, 20580, Note_on_c, 2, 61, 0
4, 20580, Note_on_c, 2, 64, 0
4, 20580, Note_on_c, 2, 66, 50
4, 20580, Note_on_c, 2, 62, 50
4, 20640, Note_on_c, 2, 62, 0
4, 20640, Note_on_c, 2, 66, 0
4, 20640, Note_on_c, 2, 62, 50
4, 20640, Note_on_c, 2, 66, 50
4, 20700, Note_on_c, 2, 66, 0
4, 20700, Note_on_c, 2, 62, 0
4, 20700, Note_on_c, 2, 61, 50
4, 20700, Note_on_c, 2, 64, 50
4, 20730, Note_on_c, 2, 64, 0
4, 20730, Note_on_c, 2, 61, 0
4, 20760, Note_on_c, 2, 61, 50
4, 20760, Note_on_c, 2, 64, 50
4, 20790, Note_on_c, 2, 64, 0
4, 20790, Note_on_c, 2, 61, 0
4, 20820, Note_on_c, 2, 61, 50
4, 20820, Note_on_c, 2, 64, 50
4, 20850, Note_on_c, 2, 64, 0
4, 20850, Note_on_c, 2, 61, 0
4, 20880, Note_on_c, 2, 64, 50
4, 20880, Note_on_c, 2, 61, 50
4, 20940, Note_on_c, 2, 61, 0
4, 20940, Note_on_c, 2, 64, 0
4, 20940, Note_on_c, 2, 59, 50
4, 20940, Note_on_c, 2, 62, 50
4, 20970, Note_on_c, 2, 62, 0
4, 20970, Note_on_c, 2, 59, 0
4, 21000, Note_on_c, 2, 59, 50
4, 21000, Note_on_c, 2, 62, 50
4, 21030, Note_on_c, 2, 62, 0
4, 21030, Note_on_c, 2, 59, 0
4, 21060, Note_on_c, 2, 59, 50
4, 21060, Note_on_c, 2, 62, 50
4, 21090, Note_on_c, 2, 62, 0
4, 21090, Note_on_c, 2, 59, 0
4, 21120, Note_on_c, 2, 59, 50
4, 21120, Note_on_c, 2, 62, 50
4, 21180, Note_on_c, 2, 62, 0
4, 21180, Note_on_c, 2, 59, 0
4, 21180, Note_on_c, 2, 57, 50
4, 21180, Note_on_c, 2, 61, 50
4, 21210, Note_on_c, 2, 61, 0
4, 21210, Note_on_c, 2, 57, 0
4, 21240, Note_on_c, 2, 57, 50
4, 21240, Note_on_c, 2, 61, 50
4, 21270, Note_on_c, 2, 61, 0
4, 21270, Note_on_c, 2, 57, 0
4, 21300, Note_on_c, 2, 57, 50
4, 21300, Note_on_c, 2, 61, 50
4, 21330, Note_on_c, 2, 61, 0
4, 21330, Note_on_c, 2, 57, 0
4, 21360, Note_on_c, 2, 57, 50
4, 21390, Note_on_c, 2, 57, 0
4, 21420, Note_on_c, 2, 52, 50
4, 21450, Note_on_c, 2, 52, 0
4, 21480, Note_on_c, 2, 57, 50
4, 21510, Note_on_c, 2, 57, 0
4, 21540, Note_on_c, 2, 52, 50
4, 21570, Note_on_c, 2, 52, 0
4, 21600, Note_on_c, 2, 56, 50
4, 21630, Note_on_c, 2, 56, 0
4, 21660, Note_on_c, 2, 52, 50
4, 21690, Note_on_c, 2, 52, 0
4, 21720, Note_on_c, 2, 59, 50
4, 21750, Note_on_c, 2, 59, 0
4, 21780, Note_on_c, 2, 52, 50
4, 21810, Note_on_c, 2, 52, 0
4, 21840, Note_on_c, 2, 57, 50
4, 21870, Note_on_c, 2, 57, 0
4, 21900, Note_on_c, 2, 52, 50
4, 21930, Note_on_c, 2, 52, 0
4, 21960, Note_on_c, 2, 57, 50
4, 21990, Note_on_c, 2, 57, 0
4, 22020, Note_on_c, 2, 52, 50
4, 22050, Note_on_c, 2, 52, 0
4, 22080, Note_on_c, 2, 56, 50
4, 22110, Note_on_c, 2, 56, 0
4, 22140, Note_on_c, 2, 52, 50
4, 22170, Note_on_c, 2, 52, 0
4, 22200, Note_on_c, 2, 59, 50
4, 22230, Note_on_c, 2, 59, 0
4, 22260, Note_on_c, 2, 52, 50
4, 22290, Note_on_c, 2, 52, 0
4, 22320, Note_on_c, 2, 57, 50
4, 22380, Note_on_c, 2, 57, 0
4, 24240, Note_on_c, 2, 64, 50
4, 24240, Note_on_c, 2, 52, 50
4, 24360, Note_on_c, 2, 52, 0
4, 24360, Note_on_c, 2, 64, 0
4, 24360, Note_on_c, 2, 65, 50
4, 24360, Note_on_c, 2, 53, 53
4, 24480, Note_on_c, 2, 53, 0
4, 24480, Note_on_c, 2, 65, 0
4, 24480, Note_on_c, 2, 66, 56
4, 24480, Note_on_c, 2, 54, 56
4, 24600, Note_on_c, 2, 54, 0
4, 24600, Note_on_c, 2, 66, 0
4, 24600, Note_on_c, 2, 68, 59
4, 24600, Note_on_c, 2, 56, 59
4, 24720, Note_on_c, 2, 56, 0
4, 24720, Note_on_c, 2, 68, 0
4, 24720, Note_on_c, 2, 69, 62
4, 24720, Note_on_c, 2, 57, 62
4, 24780, Note_on_c, 2, 57, 0
4, 24780, Note_on_c, 2, 69, 0
4, 24840, Note_on_c, 2, 62, 55
4, 24900, Note_on_c, 2, 62, 0
4, 24960, Note_on_c, 2, 64, 50
4, 25020, Note_on_c, 2, 64, 0
4, 25080, Note_on_c, 2, 52, 50
4, 25140, Note_on_c, 2, 52, 0
4, 25200, Note_on_c, 2, 57, 50
4, 25320, Note_on_c, 2, 57, 0
4, 26160, Note_on_c, 2, 50, 100
4, 26280, Note_on_c, 2, 50, 0
4, 26460, Note_on_c, 2, 52, 100
4, 26490, Note_on_c, 2, 52, 0
4, 26520, Note_on_c, 2, 45, 100
4, 26550, Note_on_c, 2, 45, 0
4, 26580, Note_on_c, 2, 55, 100
4, 26610, Note_on_c, 2, 55, 0
4, 26640, Note_on_c, 2, 53, 100
4, 26880, Note_on_c, 2, 53, 0
4, 26940, Note_on_c, 2, 52, 100
4, 26970, Note_on_c, 2, 52, 0
4, 27000, Note_on_c, 2, 45, 100
4, 27030, Note_on_c, 2, 45, 0
4, 27060, Note_on_c, 2, 55, 100
4, 27090, Note_on_c, 2, 55, 0
4, 27120, Note_on_c, 2, 53, 100
4, 27360, Note_on_c, 2, 53, 0
4, 27420, Note_on_c, 2, 52, 100
4, 27450, Note_on_c, 2, 52, 0
4, 27480, Note_on_c, 2, 45, 100
4, 27510, Note_on_c, 2, 45, 0
4, 27540, Note_on_c, 2, 55, 100
4, 27570, Note_on_c, 2, 55, 0
4, 27600, Note_on_c, 2, 54, 100
4, 27660, Note_on_c, 2, 54, 0
4, 27660, Note_on_c, 2, 54, 100
4, 27720, Note_on_c, 2, 54, 0
4, 27720, Note_on_c, 2, 54, 100
4, 27780, Note_on_c, 2, 54, 0
4, 27780, Note_on_c, 2, 54, 100
4, 27840, Note_on_c, 2, 54, 0
4, 27840, Note_on_c, 2, 53, 100
4, 27900, Note_on_c, 2, 53, 0
4, 27900, Note_on_c, 2, 53, 100
4, 27960, Note_on_c, 2, 53, 0
4, 27960, Note_on_c, 2, 53, 100
4, 28020, Note_on_c, 2, 53, 0
4, 28020, Note_on_c, 2, 53, 100
4, 28080, Note_on_c, 2, 53, 0
4, 28080, Note_on_c, 2, 52, 100
4, 28140, Note_on_c, 2, 52, 0
4, 28140, Note_on_c, 2, 52, 100
4, 28200, Note_on_c, 2, 52, 0
4, 28200, Note_on_c, 2, 54, 100
4, 28260, Note_on_c, 2, 54, 0
4, 28260, Note_on_c, 2, 54, 100
4, 28320, Note_on_c, 2, 54, 0
4, 28320, Note_on_c, 2, 50, 100
4, 28380, Note_on_c, 2, 50, 0
4, 28380, Note_on_c, 2, 50, 100
4, 28440, Note_on_c, 2, 50, 0
4, 28440, Note_on_c, 2, 52, 100
4, 28500, Note_on_c, 2, 52, 0
4, 28500, Note_on_c, 2, 52, 100
4, 28560, Note_on_c, 2, 52, 0
4, 28560, Note_on_c, 2, 45, 100
4, 28680, Note_on_c, 2, 45, 0
4, 28860, Note_on_c, 2, 56, 50
4, 28860, Note_on_c, 2, 52, 50
4, 28890, Note_on_c, 2, 52, 0
4, 28890, Note_on_c, 2, 56, 0
4, 28920, Note_on_c, 2, 59, 50
4, 28920, Note_on_c, 2, 56, 50
4, 28950, Note_on_c, 2, 56, 0
4, 28950, Note_on_c, 2, 59, 0
4, 28980, Note_on_c, 2, 56, 50
4, 28980, Note_on_c, 2, 52, 50
4, 29010, Note_on_c, 2, 52, 0
4, 29010, Note_on_c, 2, 56, 0
4, 29040, Note_on_c, 2, 61, 50
4, 29040, Note_on_c, 2, 57, 50
4, 29280, Note_on_c, 2, 57, 0
4, 29280, Note_on_c, 2, 61, 0
4, 29280, Note_on_c, 2, 56, 50
4, 29280, Note_on_c, 2, 59, 50
4, 29340, Note_on_c, 2, 59, 0
4, 29340, Note_on_c, 2, 56, 0
4, 29340, Note_on_c, 2, 56, 50
4, 29340, Note_on_c, 2, 52, 50
4, 29370, Note_on_c, 2, 52, 0
4, 29370, Note_on_c, 2, 56, 0
4, 29400, Note_on_c, 2, 56, 50
4, 29400, Note_on_c, 2, 59, 50
4, 29430, Note_on_c, 2, 59, 0
4, 29430, Note_on_c, 2, 56, 0
4, 29460, Note_on_c, 2, 56, 50
4, 29460, Note_on_c, 2, 52, 50
4, 29490, Note_on_c, 2, 52, 0
4, 29490, Note_on_c, 2, 56, 0
4, 29520, Note_on_c, 2, 61, 50
4, 29520, Note_on_c, 2, 57, 50
4, 29760, Note_on_c, 2, 57, 0
4, 29760, Note_on_c, 2, 61, 0
4, 29760, Note_on_c, 2, 56, 50
4, 29760, Note_on_c, 2, 59, 50
4, 29820, Note_on_c, 2, 59, 0
4, 29820, Note_on_c, 2, 56, 0
4, 29820, Note_on_c, 2, 56, 50
4, 29820, Note_on_c, 2, 52, 50
4, 29850, Note_on_c, 2, 52, 0
4, 29850, Note_on_c, 2, 56, 0
4, 29880, Note_on_c, 2, 59, 50
4, 29880, Note_on_c, 2, 56, 50
4, 29910, Note_on_c, 2, 56, 0
4, 29910, Note_on_c, 2, 59, 0
4, 29940, Note_on_c, 2, 56, 50
4, 29940, Note_on_c, 2, 52, 50
4, 29970, Note_on_c, 2, 52, 0
4, 29970, Note_on_c, 2, 56, 0
4, 30000, Note_on_c, 2, 61, 50
4, 30000, Note_on_c, 2, 57, 50
4, 30120, Note_on_c, 2, 57, 0
4, 30120, Note_on_c, 2, 61, 0
4, 31260, Note_on_c, 2, 50, 60
4, 31260, Note_on_c, 2, 54, 60
4, 31290, Note_on_c, 2, 54, 0
4, 31290, Note_on_c, 2, 50, 0
4, 31320, Note_on_c, 2, 57, 60
4, 31320, Note_on_c, 2, 54, 60
4, 31350, Note_on_c, 2, 54, 0
4, 31350, Note_on_c, 2, 57, 0
4, 31380, Note_on_c, 2, 50, 60
4, 31380, Note_on_c, 2, 54, 60
4, 31410, Note_on_c, 2, 54, 0
4, 31410, Note_on_c, 2, 50, 0
4, 31440, Note_on_c, 2, 61, 60
4, 31440, Note_on_c, 2, 57, 60
4, 31560, Note_on_c, 2, 57, 0
4, 31560, Note_on_c, 2, 61, 0
4, 31740, Note_on_c, 2, 56, 60
4, 31740, Note_on_c, 2, 52, 60
4, 31770, Note_on_c, 2, 52, 0
4, 31770, Note_on_c, 2, 56, 0
4, 31800, Note_on_c, 2, 59, 60
4, 31800, Note_on_c, 2, 56, 60
4, 31830, Note_on_c, 2, 56, 0
4, 31830, Note_on_c, 2, 59, 0
4, 31860, Note_on_c, 2, 56, 60
4, 31860, Note_on_c, 2, 52, 60
4, 31890, Note_on_c, 2, 52, 0
4, 31890, Note_on_c, 2, 56, 0
4, 31920, Note_on_c, 2, 61, 60
4, 31920, Note_on_c, 2, 57, 60
4, 32040, Note_on_c, 2, 57, 0
4, 32040, Note_on_c, 2, 61, 0
4, 32220, Note_on_c, 2, 50, 60
4, 32220, Note_on_c, 2, 54, 60
4, 32250, Note_on_c, 2, 54, 0
4, 32250, Note_on_c, 2, 50, 0
4, 32280, Note_on_c, 2, 57, 60
4, 32280, Note_on_c, 2, 54, 60
4, 32310, Note_on_c, 2, 54, 0
4, 32310, Note_on_c, 2, 57, 0
4, 32340, Note_on_c, 2, 50, 60
4, 32340, Note_on_c, 2, 54, 60
4, 32370, Note_on_c, 2, 54, 0
4, 32370, Note_on_c, 2, 50, 0
4, 32400, Note_on_c, 2, 61, 60
4, 32400, Note_on_c, 2, 57, 60
4, 32520, Note_on_c, 2, 57, 0
4, 32520, Note_on_c, 2, 61, 0
4, 32700, Note_on_c, 2, 56, 60
4, 32700, Note_on_c, 2, 52, 60
4, 32730, Note_on_c, 2, 52, 0
4, 32730, Note_on_c, 2, 56, 0
4, 32760, Note_on_c, 2, 59, 60
4, 32760, Note_on_c, 2, 56, 60
4, 32790, Note_on_c, 2, 56, 0
4, 32790, Note_on_c, 2, 59, 0
4, 32820, Note_on_c, 2, 56, 60
4, 32820, Note_on_c, 2, 52, 60
4, 32850, Note_on_c, 2, 52, 0
4, 32850, Note_on_c, 2, 56, 0
4, 32880, Note_on_c, 2, 57, 100
4, 33180, Note_on_c, 2, 57, 0
4, 33180, Note_on_c, 2, 45, 102
4, 33210, Note_on_c, 2, 45, 0
4, 33240, Note_on_c, 2, 49, 103
4, 33270, Note_on_c, 2, 49, 0
4, 33300, Note_on_c, 2, 45, 103
4, 33330, Note_on_c, 2, 45, 0
4, 33360, Note_on_c, 2, 57, 104
4, 33660, Note_on_c, 2, 57, 0
4, 33660, Note_on_c, 2, 45, 107
4, 33690, Note_on_c, 2, 45, 0
4, 33720, Note_on_c, 2, 49, 107
4, 33750, Note_on_c, 2, 49, 0
4, 33780, Note_on_c, 2, 45, 108
4, 33810, Note_on_c, 2, 45, 0
4, 33840, Note_on_c, 2, 57, 109
4, 34140, Note_on_c, 2, 57, 0
4, 34140, Note_on_c, 2, 45, 111
4, 34170, Note_on_c, 2, 45, 0
4, 34200, Note_on_c, 2, 49, 112
4, 34230, Note_on_c, 2, 49, 0
4, 34260, Note_on_c, 2, 45, 112
4, 34290, Note_on_c, 2, 45, 0
4, 34320, Note_on_c, 2, 57, 113
4, 34440, Note_on_c, 2, 57, 0
4, 34980, Note_on_c, 2, 57, 119
4, 35040, Note_on_c, 2, 57, 0
4, 35040, Note_on_c, 2, 64, 120
4, 35100, Note_on_c, 2, 64, 0
4, 35100, Note_on_c, 2, 61, 120
4, 35160, Note_on_c, 2, 61, 0
4, 35160, Note_on_c, 2, 57, 121
4, 35220, Note_on_c, 2, 57, 0
4, 35220, Note_on_c, 2, 52, 121
4, 35280, Note_on_c, 2, 52, 0
4, 35280, Note_on_c, 2, 61, 122
4, 35340, Note_on_c, 2, 61, 0
4, 35340, Note_on_c, 2, 57, 123
4, 35400, Note_on_c, 2, 57, 0
4, 35400, Note_on_c, 2, 52, 123
4, 35460, Note_on_c, 2, 52, 0
4, 35460, Note_on_c, 2, 49, 124
4, 35520, Note_on_c, 2, 49, 0
4, 35520, Note_on_c, 2, 57, 124
4, 35580, Note_on_c, 2, 57, 0
4, 35580, Note_on_c, 2, 52, 125
4, 35640, Note_on_c, 2, 52, 0
4, 35640, Note_on_c, 2, 49, 125
4, 35700, Note_on_c, 2, 49, 0
4, 35700, Note_on_c, 2, 45, 126
4, 35760, Note_on_c, 2, 45, 0
4, 35760, Note_on_c, 2, 57, 127
4, 35850, Note_on_c, 2, 57, 0
4, 35880, Note_on_c, 2, 57, 127
4, 35970, Note_on_c, 2, 57, 0
4, 36000, Note_on_c, 2, 45, 127
4, 36090, Note_on_c, 2, 45, 0
4, 36240, Note_on_c, 2, 64, 127
4, 36240, Note_on_c, 2, 61, 127
4, 37260, Note_on_c, 2, 61, 0
4, 37260, Note_on_c, 2, 64, 0
4, 38160, Note_on_c, 2, 56, 100
4, 38160, Note_on_c, 2, 59, 100
4, 39180, Note_on_c, 2, 59, 0
4, 39180, Note_on_c, 2, 56, 0
4, 40080, Note_on_c, 2, 58, 100
4, 40080, Note_on_c, 2, 61, 100
4, 41100, Note_on_c, 2, 61, 0
4, 41100, Note_on_c, 2, 58, 0
4, 42240, Note_on_c, 2, 65, 50
4, 42480, Note_on_c, 2, 65, 0
4, 42480, Note_on_c, 2, 64, 50
4, 42600, Note_on_c, 2, 64, 0
4, 43200, Note_on_c, 2, 63, 50
4, 43440, Note_on_c, 2, 63, 0
4, 43440, Note_on_c, 2, 62, 50
4, 43560, Note_on_c, 2, 62, 0
4, 43920, Note_on_c, 2, 43, 100
4, 43920, Note_on_c, 2, 55, 100
4, 44040, Note_on_c, 2, 55, 0
4, 44040, Note_on_c, 2, 43, 0
4, 44220, Note_on_c, 2, 55, 100
4, 44250, Note_on_c, 2, 55, 0
4, 44280, Note_on_c, 2, 59, 100
4, 44310, Note_on_c, 2, 59, 0
4, 44340, Note_on_c, 2, 55, 100
4, 44370, Note_on_c, 2, 55, 0
4, 44400, Note_on_c, 2, 64, 100
4, 44460, Note_on_c, 2, 64, 0
4, 44520, Note_on_c, 2, 62, 100
4, 44580, Note_on_c, 2, 62, 0
4, 44640, Note_on_c, 2, 60, 100
4, 44700, Note_on_c, 2, 60, 0
4, 44760, Note_on_c, 2, 59, 100
4, 44820, Note_on_c, 2, 59, 0
4, 44880, Note_on_c, 2, 57, 100
4, 44940, Note_on_c, 2, 57, 0
4, 44940, Note_on_c, 2, 50, 100
4, 44970, Note_on_c, 2, 50, 0
4, 45000, Note_on_c, 2, 54, 100
4, 45030, Note_on_c, 2, 54, 0
4, 45060, Note_on_c, 2, 50, 100
4, 45090, Note_on_c, 2, 50, 0
4, 45120, Note_on_c, 2, 60, 100
4, 45420, Note_on_c, 2, 60, 0
4, 45420, Note_on_c, 2, 59, 100
4, 45540, Note_on_c, 2, 59, 0
4, 45540, Note_on_c, 2, 57, 100
4, 45660, Note_on_c, 2, 57, 0
4, 45660, Note_on_c, 2, 55, 100
4, 45780, Note_on_c, 2, 55, 0
4, 45780, Note_on_c, 2, 53, 100
4, 45840, Note_on_c, 2, 53, 0
4, 45840, Note_on_c, 2, 52, 100
4, 45960, Note_on_c, 2, 52, 0
4, 46140, Note_on_c, 2, 57, 100
4, 46170, Note_on_c, 2, 57, 0
4, 46200, Note_on_c, 2, 60, 100
4, 46230, Note_on_c, 2, 60, 0
4, 46260, Note_on_c, 2, 57, 100
4, 46290, Note_on_c, 2, 57, 0
4, 46320, Note_on_c, 2, 65, 100
4, 46380, Note_on_c, 2, 65, 0
4, 46440, Note_on_c, 2, 64, 100
4, 46500, Note_on_c, 2, 64, 0
4, 46560, Note_on_c, 2, 62, 100
4, 46620, Note_on_c, 2, 62, 0
4, 46680, Note_on_c, 2, 60, 100
4, 46740, Note_on_c, 2, 60, 0
4, 46800, Note_on_c, 2, 59, 100
4, 46860, Note_on_c, 2, 59, 0
4, 46860, Note_on_c, 2, 52, 100
4, 46890, Note_on_c, 2, 52, 0
4, 46920, Note_on_c, 2, 56, 100
4, 46950, Note_on_c, 2, 56, 0
4, 46980, Note_on_c, 2, 52, 100
4, 47010, Note_on_c, 2, 52, 0
4, 47040, Note_on_c, 2, 62, 100
4, 47340, Note_on_c, 2, 62, 0
4, 47340, Note_on_c, 2, 60, 100
4, 47460, Note_on_c, 2, 60, 0
4, 47460, Note_on_c, 2, 59, 100
4, 47580, Note_on_c, 2, 59, 0
4, 47580, Note_on_c, 2, 57, 100
4, 47700, Note_on_c, 2, 57, 0
4, 47700, Note_on_c, 2, 55, 100
4, 47760, Note_on_c, 2, 55, 0
4, 47760, Note_on_c, 2, 54, 100
4, 47880, Note_on_c, 2, 54, 0
4, 48060, Note_on_c, 2, 59, 100
4, 48090, Note_on_c, 2, 59, 0
4, 48120, Note_on_c, 2, 62, 100
4, 48150, Note_on_c, 2, 62, 0
4, 48180, Note_on_c, 2, 59, 100
4, 48210, Note_on_c, 2, 59, 0
4, 48240, Note_on_c, 2, 67, 100
4, 48300, Note_on_c, 2, 67, 0
4, 48360, Note_on_c, 2, 66, 100
4, 48420, Note_on_c, 2, 66, 0
4, 48480, Note_on_c, 2, 64, 100
4, 48540, Note_on_c, 2, 64, 0
4, 48600, Note_on_c, 2, 62, 100
4, 48660, Note_on_c, 2, 62, 0
4, 48720, Note_on_c, 2, 64, 100
4, 48780, Note_on_c, 2, 64, 0
4, 48780, Note_on_c, 2, 52, 100
4, 48840, Note_on_c, 2, 52, 0
4, 48840, Note_on_c, 2, 52, 100
4, 48900, Note_on_c, 2, 52, 0
4, 48900, Note_on_c, 2, 52, 100
4, 48960, Note_on_c, 2, 52, 0
4, 48960, Note_on_c, 2, 54, 100
4, 49020, Note_on_c, 2, 54, 0
4, 49020, Note_on_c, 2, 54, 100
4, 49080, Note_on_c, 2, 54, 0
4, 49080, Note_on_c, 2, 54, 100
4, 49140, Note_on_c, 2, 54, 0
4, 49140, Note_on_c, 2, 54, 100
4, 49200, Note_on_c, 2, 54, 0
4, 49200, Note_on_c, 2, 55, 100
4, 49320, Note_on_c, 2, 55, 0
4, 49980, Note_on_c, 2, 54, 75
4, 49980, Note_on_c, 2, 58, 75
4, 50010, Note_on_c, 2, 58, 0
4, 50010, Note_on_c, 2, 54, 0
4, 50040, Note_on_c, 2, 61, 75
4, 50040, Note_on_c, 2, 58, 75
4, 50070, Note_on_c, 2, 58, 0
4, 50070, Note_on_c, 2, 61, 0
4, 50100, Note_on_c, 2, 54, 75
4, 50100, Note_on_c, 2, 58, 75
4, 50130, Note_on_c, 2, 58, 0
4, 50130, Note_on_c, 2, 54, 0
4, 50160, Note_on_c, 2, 62, 75
4, 50160, Note_on_c, 2, 59, 75
4, 50280, Note_on_c, 2, 59, 0
4, 50280, Note_on_c, 2, 62, 0
4, 50460, Note_on_c, 2, 52, 75
4, 50460, Note_on_c, 2, 48, 75
4, 50490, Note_on_c, 2, 48, 0
4, 50490, Note_on_c, 2, 52, 0
4, 50520, Note_on_c, 2, 55, 75
4, 50520, Note_on_c, 2, 52, 75
4, 50550, Note_on_c, 2, 52, 0
4, 50550, Note_on_c, 2, 55, 0
4, 50580, Note_on_c, 2, 52, 75
4, 50580, Note_on_c, 2, 48, 75
4, 50610, Note_on_c, 2, 48, 0
4, 50610, Note_on_c, 2, 52, 0
4, 50640, Note_on_c, 2, 60, 75
4, 50640, Note_on_c, 2, 57, 75
4, 50760, Note_on_c, 2, 57, 0
4, 50760, Note_on_c, 2, 60, 0
4, 50940, Note_on_c, 2, 51, 75
4, 50940, Note_on_c, 2, 47, 75
4, 50970, Note_on_c, 2, 47, 0
4, 50970, Note_on_c, 2, 51, 0
4, 51000, Note_on_c, 2, 54, 75
4, 51000, Note_on_c, 2, 51, 75
4, 51030, Note_on_c, 2, 51, 0
4, 51030, Note_on_c, 2, 54, 0
4, 51060, Note_on_c, 2, 51, 75
4, 51060, Note_on_c, 2, 47, 75
4, 51090, Note_on_c, 2, 47, 0
4, 51090, Note_on_c, 2, 51, 0
4, 51120, Note_on_c, 2, 59, 75
4, 51120, Note_on_c, 2, 55, 75
4, 51240, Note_on_c, 2, 55, 0
4, 51240, Note_on_c, 2, 59, 0
4, 51420, Note_on_c, 2, 49, 75
4, 51420, Note_on_c, 2, 45, 75
4, 51450, Note_on_c, 2, 45, 0
4, 51450, Note_on_c, 2, 49, 0
4, 51480, Note_on_c, 2, 52, 75
4, 51480, Note_on_c, 2, 49, 75
4, 51510, Note_on_c, 2, 49, 0
4, 51510, Note_on_c, 2, 52, 0
4, 51540, Note_on_c, 2, 49, 75
4, 51540, Note_on_c, 2, 45, 75
4, 51570, Note_on_c, 2, 45, 0
4, 51570, Note_on_c, 2, 49, 0
4, 51600, Note_on_c, 2, 57, 50
4, 51600, Note_on_c, 2, 54, 50
4, 51720, Note_on_c, 2, 54, 0
4, 51720, Note_on_c, 2, 57, 0
4, 52440, Note_on_c, 2, 57, 50
4, 52440, Note_on_c, 2, 54, 50
4, 52500, Note_on_c, 2, 54, 0
4, 52500, Note_on_c, 2, 57, 0
4, 52560, Note_on_c, 2, 52, 50
4, 52560, Note_on_c, 2, 55, 50
4, 52620, Note_on_c, 2, 55, 0
4, 52620, Note_on_c, 2, 52, 0
4, 52680, Note_on_c, 2, 57, 50
4, 52680, Note_on_c, 2, 54, 50
4, 52740, Note_on_c, 2, 54, 0
4, 52740, Note_on_c, 2, 57, 0
4, 52800, Note_on_c, 2, 55, 50
4, 52800, Note_on_c, 2, 52, 50
4, 52860, Note_on_c, 2, 52, 0
4, 52860, Note_on_c, 2, 55, 0
4, 52920, Note_on_c, 2, 57, 50
4, 52920, Note_on_c, 2, 54, 50
4, 52980, Note_on_c, 2, 54, 0
4, 52980, Note_on_c, 2, 57, 0
4, 53040, Note_on_c, 2, 55, 50
4, 53040, Note_on_c, 2, 52, 50
4, 53100, Note_on_c, 2, 52, 0
4, 53100, Note_on_c, 2, 55, 0
4, 53160, Note_on_c, 2, 54, 50
4, 53160, Note_on_c, 2, 57, 50
4, 53220, Note_on_c, 2, 57, 0
4, 53220, Note_on_c, 2, 54, 0
4, 53280, Note_on_c, 2, 55, 50
4, 53280, Note_on_c, 2, 52, 50
4, 53340, Note_on_c, 2, 52, 0
4, 53340, Note_on_c, 2, 55, 0
4, 53520, Note_on_c, 2, 64, 50
4, 53640, Note_on_c, 2, 64, 0
4, 53820, Note_on_c, 2, 57, 50
4, 53850, Note_on_c, 2, 57, 0
4, 53880, Note_on_c, 2, 60, 50
4, 53910, Note_on_c, 2, 60, 0
4, 53940, Note_on_c, 2, 57, 50
4, 53970, Note_on_c, 2, 57, 0
4, 54000, Note_on_c, 2, 62, 50
4, 54480, Note_on_c, 2, 62, 0
4, 54480, Note_on_c, 2, 58, 100
4, 54480, Note_on_c, 2, 67, 100
4, 55500, Note_on_c, 2, 67, 0
4, 55500, Note_on_c, 2, 58, 0
4, 56400, Note_on_c, 2, 57, 100
4, 56400, Note_on_c, 2, 60, 100
4, 57420, Note_on_c, 2, 60, 0
4, 57420, Note_on_c, 2, 57, 0
4, 58320, Note_on_c, 2, 46, 100
4, 58320, Note_on_c, 2, 58, 100
4, 58800, Note_on_c, 2, 58, 0
4, 58800, Note_on_c, 2, 46, 0
4, 58800, Note_on_c, 2, 57, 100
4, 58800, Note_on_c, 2, 45, 100
4, 59280, Note_on_c, 2, 45, 0
4, 59280, Note_on_c, 2, 57, 0
4, 59280, Note_on_c, 2, 43, 100
4, 59280, Note_on_c, 2, 55, 100
4, 59760, Note_on_c, 2, 55, 0
4, 59760, Note_on_c, 2, 43, 0
4, 59760, Note_on_c, 2, 56, 100
4, 59760, Note_on_c, 2, 44, 100
4, 60240, Note_on_c, 2, 44, 0
4, 60240, Note_on_c, 2, 56, 0
4, 60240, Note_on_c, 2, 45, 100
4, 60240, Note_on_c, 2, 57, 100
4, 60285, Note_on_c, 2, 57, 0
4, 60285, Note_on_c, 2, 45, 0
4, 60300, Note_on_c, 2, 57, 100
4, 60345, Note_on_c, 2, 57, 0
4, 60360, Note_on_c, 2, 57, 100
4, 60405, Note_on_c, 2, 57, 0
4, 60420, Note_on_c, 2, 57, 100
4, 60465, Note_on_c, 2, 57, 0
4, 60480, Note_on_c, 2, 57, 100
4, 60525, Note_on_c, 2, 57, 0
4, 60540, Note_on_c, 2, 57, 100
4, 60585, Note_on_c, 2, 57, 0
4, 60600, Note_on_c, 2, 57, 100
4, 60645, Note_on_c, 2, 57, 0
4, 60660, Note_on_c, 2, 57, 100
4, 60705, Note_on_c, 2, 57, 0
4, 60720, Note_on_c, 2, 57, 100
4, 60765, Note_on_c, 2, 57, 0
4, 60780, Note_on_c, 2, 57, 100
4, 60825, Note_on_c, 2, 57, 0
4, 60840, Note_on_c, 2, 57, 100
4, 60885, Note_on_c, 2, 57, 0
4, 60900, Note_on_c, 2, 57, 100
4, 60945, Note_on_c, 2, 57, 0
4, 60960, Note_on_c, 2, 57, 100
4, 61005, Note_on_c, 2, 57, 0
4, 61020, Note_on_c, 2, 57, 100
4, 61065, Note_on_c, 2, 57, 0
4, 61080, Note_on_c, 2, 57, 100
4, 61125, Note_on_c, 2, 57, 0
4, 61140, Note_on_c, 2, 57, 100
4, 61185, Note_on_c, 2, 57, 0
4, 61200, Note_on_c, 2, 57, 100
4, 61260, Note_on_c, 2, 57, 0
4, 61560, Note_on_c, 2, 65, 100
4, 61620, Note_on_c, 2, 65, 0
4, 61620, Note_on_c, 2, 62, 100
4, 61680, Note_on_c, 2, 62, 0
4, 61680, Note_on_c, 2, 61, 100
4, 61740, Note_on_c, 2, 61, 0
4, 61740, Note_on_c, 2, 64, 100
4, 61800, Note_on_c, 2, 64, 0
4, 61800, Note_on_c, 2, 57, 100
4, 61860, Note_on_c, 2, 57, 0
4, 61860, Note_on_c, 2, 55, 100
4, 61920, Note_on_c, 2, 55, 0
4, 61920, Note_on_c, 2, 53, 100
4, 61980, Note_on_c, 2, 53, 0
4, 61980, Note_on_c, 2, 57, 100
4, 62040, Note_on_c, 2, 57, 0
4, 62040, Note_on_c, 2, 53, 100
4, 62100, Note_on_c, 2, 53, 0
4, 62100, Note_on_c, 2, 50, 100
4, 62160, Note_on_c, 2, 50, 0
4, 62160, Note_on_c, 2, 45, 100
4, 62280, Note_on_c, 2, 45, 0
4, 64800, Note_on_c, 2, 62, 50
4, 64830, Note_on_c, 2, 62, 0
4, 64860, Note_on_c, 2, 57, 50
4, 64890, Note_on_c, 2, 57, 0
4, 64920, Note_on_c, 2, 62, 50
4, 64950, Note_on_c, 2, 62, 0
4, 64980, Note_on_c, 2, 57, 50
4, 65010, Note_on_c, 2, 57, 0
4, 65040, Note_on_c, 2, 61, 50
4, 65070, Note_on_c, 2, 61, 0
4, 65100, Note_on_c, 2, 57, 50
4, 65130, Note_on_c, 2, 57, 0
4, 65160, Note_on_c, 2, 64, 50
4, 65190, Note_on_c, 2, 64, 0
4, 65220, Note_on_c, 2, 57, 50
4, 65250, Note_on_c, 2, 57, 0
4, 65280, Note_on_c, 2, 62, 50
4, 65310, Note_on_c, 2, 62, 0
4, 65340, Note_on_c, 2, 57, 50
4, 65370, Note_on_c, 2, 57, 0
4, 65400, Note_on_c, 2, 62, 50
4, 65430, Note_on_c, 2, 62, 0
4, 65460, Note_on_c, 2, 57, 50
4, 65490, Note_on_c, 2, 57, 0
4, 65520, Note_on_c, 2, 61, 50
4, 65550, Note_on_c, 2, 61, 0
4, 65580, Note_on_c, 2, 57, 50
4, 65610, Note_on_c, 2, 57, 0
4, 65640, Note_on_c, 2, 64, 50
4, 65670, Note_on_c, 2, 64, 0
4, 65700, Note_on_c, 2, 57, 50
4, 65730, Note_on_c, 2, 57, 0
4, 65760, Note_on_c, 2, 62, 50
4, 65820, Note_on_c, 2, 62, 0
4, 67020, Note_on_c, 2, 62, 50
4, 67050, Note_on_c, 2, 62, 0
4, 67080, Note_on_c, 2, 62, 50
4, 67110, Note_on_c, 2, 62, 0
4, 67140, Note_on_c, 2, 62, 50
4, 67170, Note_on_c, 2, 62, 0
4, 67200, Note_on_c, 2, 62, 50
4, 67260, Note_on_c, 2, 62, 0
4, 67260, Note_on_c, 2, 61, 50
4, 67290, Note_on_c, 2, 61, 0
4, 67320, Note_on_c, 2, 61, 50
4, 67350, Note_on_c, 2, 61, 0
4, 67380, Note_on_c, 2, 61, 50
4, 67410, Note_on_c, 2, 61, 0
4, 67440, Note_on_c, 2, 61, 50
4, 67500, Note_on_c, 2, 61, 0
4, 67500, Note_on_c, 2, 62, 50
4, 67530, Note_on_c, 2, 62, 0
4, 67560, Note_on_c, 2, 62, 50
4, 67590, Note_on_c, 2, 62, 0
4, 67620, Note_on_c, 2, 62, 50
4, 67650, Note_on_c, 2, 62, 0
4, 67680, Note_on_c, 2, 57, 50
4, 67680, Note_on_c, 2, 54, 50
4, 67860, Note_on_c, 2, 54, 0
4, 67860, Note_on_c, 2, 57, 0
4, 67860, Note_on_c, 2, 59, 50
4, 67860, Note_on_c, 2, 55, 50
4, 67920, Note_on_c, 2, 55, 0
4, 67920, Note_on_c, 2, 59, 0
4, 67920, Note_on_c, 2, 55, 50
4, 67920, Note_on_c, 2, 59, 50
4, 67980, Note_on_c, 2, 59, 0
4, 67980, Note_on_c, 2, 55, 0
4, 67980, Note_on_c, 2, 54, 50
4, 67980, Note_on_c, 2, 57, 50
4, 68010, Note_on_c, 2, 57, 0
4, 68010, Note_on_c, 2, 54, 0
4, 68040, Note_on_c, 2, 54, 50
4, 68040, Note_on_c, 2, 57, 50
4, 68070, Note_on_c, 2, 57, 0
4, 68070, Note_on_c, 2, 54, 0
4, 68100, Note_on_c, 2, 54, 50
4, 68100, Note_on_c, 2, 57, 50
4, 68130, Note_on_c, 2, 57, 0
4, 68130, Note_on_c, 2, 54, 0
4, 68160, Note_on_c, 2, 54, 50
4, 68160, Note_on_c, 2, 57, 50
4, 68220, Note_on_c, 2, 57, 0
4, 68220, Note_on_c, 2, 54, 0
4, 68220, Note_on_c, 2, 52, 50
4, 68220, Note_on_c, 2, 55, 50
4, 68250, Note_on_c, 2, 55, 0
4, 68250, Note_on_c, 2, 52, 0
4, 68280, Note_on_c, 2, 52, 50
4, 68280, Note_on_c, 2, 55, 50
4, 68310, Note_on_c, 2, 55, 0
4, 68310, Note_on_c, 2, 52, 0
4, 68340, Note_on_c, 2, 52, 50
4, 68340, Note_on_c, 2, 55, 50
4, 68370, Note_on_c, 2, 55, 0
4, 68370, Note_on_c, 2, 52, 0
4, 68400, Note_on_c, 2, 52, 50
4, 68400, Note_on_c, 2, 55, 50
4, 68460, Note_on_c, 2, 55, 0
4, 68460, Note_on_c, 2, 52, 0
4, 68460, Note_on_c, 2, 50, 50
4, 68460, Note_on_c, 2, 54, 50
4, 68490, Note_on_c, 2, 54, 0
4, 68490, Note_on_c, 2, 50, 0
4, 68520, Note_on_c, 2, 50, 50
4, 68520, Note_on_c, 2, 54, 50
4, 68550, Note_on_c, 2, 54, 0
4, 68550, Note_on_c, 2, 50, 0
4, 68580, Note_on_c, 2, 50, 50
4, 68580, Note_on_c, 2, 54, 50
4, 68610, Note_on_c, 2, 54, 0
4, 68610, Note_on_c, 2, 50, 0
4, 68640, Note_on_c, 2, 50, 50
4, 68640, Note_on_c, 2, 62, 50
4, 68670, Note_on_c, 2, 62, 0
4, 68670, Note_on_c, 2, 50, 0
4, 68700, Note_on_c, 2, 45, 50
4, 68700, Note_on_c, 2, 57, 50
4, 68730, Note_on_c, 2, 57, 0
4, 68730, Note_on_c, 2, 45, 0
4, 68760, Note_on_c, 2, 50, 50
4, 68760, Note_on_c, 2, 62, 50
4, 68790, Note_on_c, 2, 62, 0
4, 68790, Note_on_c, 2, 50, 0
4, 68820, Note_on_c, 2, 45, 50
4, 68820, Note_on_c, 2, 57, 50
4, 68850, Note_on_c, 2, 57, 0
4, 68850, Note_on_c, 2, 45, 0
4, 68880, Note_on_c, 2, 49, 50
4, 68880, Note_on_c, 2, 61, 50
4, 68910, Note_on_c, 2, 61, 0
4, 68910, Note_on_c, 2, 49, 0
4, 68940, Note_on_c, 2, 45, 50
4, 68940, Note_on_c, 2, 57, 50
4, 68970, Note_on_c, 2, 57, 0
4, 68970, Note_on_c, 2, 45, 0
4, 69000, Note_on_c, 2, 52, 50
4, 69000, Note_on_c, 2, 64, 50
4, 69030, Note_on_c, 2, 64, 0
4, 69030, Note_on_c, 2, 52, 0
4, 69060, Note_on_c, 2, 45, 50
4, 69060, Note_on_c, 2, 57, 50
4, 69090, Note_on_c, 2, 57, 0
4, 69090, Note_on_c, 2, 45, 0
4, 69120, Note_on_c, 2, 50, 50
4, 69120, Note_on_c, 2, 62, 50
4, 69150, Note_on_c, 2, 62, 0
4, 69150, Note_on_c, 2, 50, 0
4, 69180, Note_on_c, 2, 45, 50
4, 69180, Note_on_c, 2, 57, 50
4, 69210, Note_on_c, 2, 57, 0
4, 69210, Note_on_c, 2, 45, 0
4, 69240, Note_on_c, 2, 50, 50
4, 69240, Note_on_c, 2, 62, 50
4, 69270, Note_on_c, 2, 62, 0
4, 69270, Note_on_c, 2, 50, 0
4, 69300, Note_on_c, 2, 45, 50
4, 69300, Note_on_c, 2, 57, 50
4, 69330, Note_on_c, 2, 57, 0
4, 69330, Note_on_c, 2, 45, 0
4, 69360, Note_on_c, 2, 49, 50
4, 69360, Note_on_c, 2, 61, 50
4, 69390, Note_on_c, 2, 61, 0
4, 69390, Note_on_c, 2, 49, 0
4, 69420, Note_on_c, 2, 45, 50
4, 69420, Note_on_c, 2, 57, 50
4, 69450, Note_on_c, 2, 57, 0
4, 69450, Note_on_c, 2, 45, 0
4, 69480, Note_on_c, 2, 52, 50
4, 69480, Note_on_c, 2, 64, 50
4, 69510, Note_on_c, 2, 64, 0
4, 69510, Note_on_c, 2, 52, 0
4, 69540, Note_on_c, 2, 45, 50
4, 69540, Note_on_c, 2, 57, 50
4, 69570, Note_on_c, 2, 57, 0
4, 69570, Note_on_c, 2, 45, 0
4, 69600, Note_on_c, 2, 50, 50
4, 69600, Note_on_c, 2, 62, 50
4, 69660, Note_on_c, 2, 62, 0
4, 69660, Note_on_c, 2, 50, 0
4, 71520, Note_on_c, 2, 45, 50
4, 71520, Note_on_c, 2, 57, 50
4, 71640, Note_on_c, 2, 57, 0
4, 71640, Note_on_c, 2, 45, 0
4, 71640, Note_on_c, 2, 46, 50
4, 71640, Note_on_c, 2, 58, 53
4, 71760, Note_on_c, 2, 58, 0
4, 71760, Note_on_c, 2, 46, 0
4, 71760, Note_on_c, 2, 47, 56
4, 71760, Note_on_c, 2, 59, 56
4, 71880, Note_on_c, 2, 59, 0
4, 71880, Note_on_c, 2, 47, 0
4, 71880, Note_on_c, 2, 61, 59
4, 71880, Note_on_c, 2, 49, 59
4, 72000, Note_on_c, 2, 49, 0
4, 72000, Note_on_c, 2, 61, 0
4, 72000, Note_on_c, 2, 62, 62
4, 72000, Note_on_c, 2, 50, 62
4, 72060, Note_on_c, 2, 50, 0
4, 72060, Note_on_c, 2, 62, 0
4, 72120, Note_on_c, 2, 55, 55
4, 72180, Note_on_c, 2, 55, 0
4, 72240, Note_on_c, 2, 57, 50
4, 72300, Note_on_c, 2, 57, 0
4, 72360, Note_on_c, 2, 45, 50
4, 72420, Note_on_c, 2, 45, 0
4, 72480, Note_on_c, 2, 50, 50
4, 72600, Note_on_c, 2, 50, 0
4, 73440, Note_on_c, 2, 55, 100
4, 73560, Note_on_c, 2, 55, 0
4, 73740, Note_on_c, 2, 57, 100
4, 73770, Note_on_c, 2, 57, 0
4, 73800, Note_on_c, 2, 50, 100
4, 73830, Note_on_c, 2, 50, 0
4, 73860, Note_on_c, 2, 60, 100
4, 73890, Note_on_c, 2, 60, 0
4, 73920, Note_on_c, 2, 58, 100
4, 74160, Note_on_c, 2, 58, 0
4, 74220, Note_on_c, 2, 57, 100
4, 74250, Note_on_c, 2, 57, 0
4, 74280, Note_on_c, 2, 50, 100
4, 74310, Note_on_c, 2, 50, 0
4, 74340, Note_on_c, 2, 60, 100
4, 74370, Note_on_c, 2, 60, 0
4, 74400, Note_on_c, 2, 58, 100
4, 74640, Note_on_c, 2, 58, 0
4, 74700, Note_on_c, 2, 57, 100
4, 74730, Note_on_c, 2, 57, 0
4, 74760, Note_on_c, 2, 50, 100
4, 74790, Note_on_c, 2, 50, 0
4, 74820, Note_on_c, 2, 60, 100
4, 74850, Note_on_c, 2, 60, 0
4, 74880, Note_on_c, 2, 59, 100
4, 74940, Note_on_c, 2, 59, 0
4, 74940, Note_on_c, 2, 59, 100
4, 75000, Note_on_c, 2, 59, 0
4, 75000, Note_on_c, 2, 59, 100
4, 75060, Note_on_c, 2, 59, 0
4, 75060, Note_on_c, 2, 59, 100
4, 75120, Note_on_c, 2, 59, 0
4, 75120, Note_on_c, 2, 58, 100
4, 75180, Note_on_c, 2, 58, 0
4, 75180, Note_on_c, 2, 58, 100
4, 75240, Note_on_c, 2, 58, 0
4, 75240, Note_on_c, 2, 58, 100
4, 75300, Note_on_c, 2, 58, 0
4, 75300, Note_on_c, 2, 58, 100
4, 75360, Note_on_c, 2, 58, 0
4, 75360, Note_on_c, 2, 57, 100
4, 75420, Note_on_c, 2, 57, 0
4, 75420, Note_on_c, 2, 57, 100
4, 75480, Note_on_c, 2, 57, 0
4, 75480, Note_on_c, 2, 59, 100
4, 75540, Note_on_c, 2, 59, 0
4, 75540, Note_on_c, 2, 59, 100
4, 75600, Note_on_c, 2, 59, 0
4, 75600, Note_on_c, 2, 55, 100
4, 75660, Note_on_c, 2, 55, 0
4, 75660, Note_on_c, 2, 55, 100
4, 75720, Note_on_c, 2, 55, 0
4, 75720, Note_on_c, 2, 57, 100
4, 75780, Note_on_c, 2, 57, 0
4, 75780, Note_on_c, 2, 57, 100
4, 75840, Note_on_c, 2, 57, 0
4, 75840, Note_on_c, 2, 50, 100
4, 75960, Note_on_c, 2, 50, 0
4, 76140, Note_on_c, 2, 49, 50
4, 76140, Note_on_c, 2, 52, 50
4, 76170, Note_on_c, 2, 52, 0
4, 76170, Note_on_c, 2, 49, 0
4, 76200, Note_on_c, 2, 55, 50
4, 76200, Note_on_c, 2, 52, 50
4, 76230, Note_on_c, 2, 52, 0
4, 76230, Note_on_c, 2, 55, 0
4, 76260, Note_on_c, 2, 49, 50
4, 76260, Note_on_c, 2, 52, 50
4, 76290, Note_on_c, 2, 52, 0
4, 76290, Note_on_c, 2, 49, 0
4, 76320, Note_on_c, 2, 50, 50
4, 76320, Note_on_c, 2, 54, 50
4, 76560, Note_on_c, 2, 54, 0
4, 76560, Note_on_c, 2, 50, 0
4, 76560, Note_on_c, 2, 49, 50
4, 76560, Note_on_c, 2, 52, 50
4, 76620, Note_on_c, 2, 52, 0
4, 76620, Note_on_c, 2, 49, 0
4, 76620, Note_on_c, 2, 52, 50
4, 76620, Note_on_c, 2, 49, 50
4, 76650, Note_on_c, 2, 49, 0
4, 76650, Note_on_c, 2, 52, 0
4, 76680, Note_on_c, 2, 52, 50
4, 76680, Note_on_c, 2, 55, 50
4, 76710, Note_on_c, 2, 55, 0
4, 76710, Note_on_c, 2, 52, 0
4, 76740, Note_on_c, 2, 49, 50
4, 76740, Note_on_c, 2, 52, 50
4, 76770, Note_on_c, 2, 52, 0
4, 76770, Note_on_c, 2, 49, 0
4, 76800, Note_on_c, 2, 50, 50
4, 76800, Note_on_c, 2, 54, 50
4, 77040, Note_on_c, 2, 54, 0
4, 77040, Note_on_c, 2, 50, 0
4, 77040, Note_on_c, 2, 49, 50
4, 77040, Note_on_c, 2, 52, 50
4, 77100, Note_on_c, 2, 52, 0
4, 77100, Note_on_c, 2, 49, 0
4, 77100, Note_on_c, 2, 52, 50
4, 77100, Note_on_c, 2, 49, 50
4, 77130, Note_on_c, 2, 49, 0
4, 77130, Note_on_c, 2, 52, 0
4, 77160, Note_on_c, 2, 55, 50
4, 77160, Note_on_c, 2, 52, 50
4, 77190, Note_on_c, 2, 52, 0
4, 77190, Note_on_c, 2, 55, 0
4, 77220, Note_on_c, 2, 52, 50
4, 77220, Note_on_c, 2, 49, 50
4, 77250, Note_on_c, 2, 49, 0
4, 77250, Note_on_c, 2, 52, 0
4, 77280, Note_on_c, 2, 54, 50
4, 77280, Note_on_c, 2, 50, 50
4, 77400, Note_on_c, 2, 50, 0
4, 77400, Note_on_c, 2, 54, 0
4, 78540, Note_on_c, 2, 59, 70
4, 78540, Note_on_c, 2, 55, 70
4, 78570, Note_on_c, 2, 55, 0
4, 78570, Note_on_c, 2, 59, 0
4, 78600, Note_on_c, 2, 62, 70
4, 78600, Note_on_c, 2, 59, 70
4, 78630, Note_on_c, 2, 59, 0
4, 78630, Note_on_c, 2, 62, 0
4, 78660, Note_on_c, 2, 55, 70
4, 78660, Note_on_c, 2, 59, 70
4, 78690, Note_on_c, 2, 59, 0
4, 78690, Note_on_c, 2, 55, 0
4, 78720, Note_on_c, 2, 66, 70
4, 78720, Note_on_c, 2, 62, 70
4, 78840, Note_on_c, 2, 62, 0
4, 78840, Note_on_c, 2, 66, 0
4, 79020, Note_on_c, 2, 49, 70
4, 79020, Note_on_c, 2, 52, 70
4, 79050, Note_on_c, 2, 52, 0
4, 79050, Note_on_c, 2, 49, 0
4, 79080, Note_on_c, 2, 55, 70
4, 79080, Note_on_c, 2, 52, 70
4, 79110, Note_on_c, 2, 52, 0
4, 79110, Note_on_c, 2, 55, 0
4, 79140, Note_on_c, 2, 49, 70
4, 79140, Note_on_c, 2, 52, 70
4, 79170, Note_on_c, 2, 52, 0
4, 79170, Note_on_c, 2, 49, 0
4, 79200, Note_on_c, 2, 66, 70
4, 79200, Note_on_c, 2, 62, 70
4, 79320, Note_on_c, 2, 62, 0
4, 79320, Note_on_c, 2, 66, 0
4, 79500, Note_on_c, 2, 59, 70
4, 79500, Note_on_c, 2, 55, 70
4, 79530, Note_on_c, 2, 55, 0
4, 79530, Note_on_c, 2, 59, 0
4, 79560, Note_on_c, 2, 62, 70
4, 79560, Note_on_c, 2, 59, 70
4, 79590, Note_on_c, 2, 59, 0
4, 79590, Note_on_c, 2, 62, 0
4, 79620, Note_on_c, 2, 55, 70
4, 79620, Note_on_c, 2, 59, 70
4, 79650, Note_on_c, 2, 59, 0
4, 79650, Note_on_c, 2, 55, 0
4, 79680, Note_on_c, 2, 66, 70
4, 79680, Note_on_c, 2, 62, 70
4, 79800, Note_on_c, 2, 62, 0
4, 79800, Note_on_c, 2, 66, 0
4, 79980, Note_on_c, 2, 49, 70
4, 79980, Note_on_c, 2, 52, 70
4, 80010, Note_on_c, 2, 52, 0
4, 80010, Note_on_c, 2, 49, 0
4, 80040, Note_on_c, 2, 55, 70
4, 80040, Note_on_c, 2, 52, 70
4, 80070, Note_on_c, 2, 52, 0
4, 80070, Note_on_c, 2, 55, 0
4, 80100, Note_on_c, 2, 49, 70
4, 80100, Note_on_c, 2, 52, 70
4, 80130, Note_on_c, 2, 52, 0
4, 80130, Note_on_c, 2, 49, 0
4, 80160, Note_on_c, 2, 62, 100
4, 80460, Note_on_c, 2, 62, 0
4, 80460, Note_on_c, 2, 50, 102
4, 80490, Note_on_c, 2, 50, 0
4, 80520, Note_on_c, 2, 54, 103
4, 80550, Note_on_c, 2, 54, 0
4, 80580, Note_on_c, 2, 50, 103
4, 80610, Note_on_c, 2, 50, 0
4, 80640, Note_on_c, 2, 62, 104
4, 80940, Note_on_c, 2, 62, 0
4, 80940, Note_on_c, 2, 50, 106
4, 80970, Note_on_c, 2, 50, 0
4, 81000, Note_on_c, 2, 54, 107
4, 81030, Note_on_c, 2, 54, 0
4, 81060, Note_on_c, 2, 50, 107
4, 81090, Note_on_c, 2, 50, 0
4, 81120, Note_on_c, 2, 62, 108
4, 81420, Note_on_c, 2, 62, 0
4, 81420, Note_on_c, 2, 50, 110
4, 81450, Note_on_c, 2, 50, 0
4, 81480, Note_on_c, 2, 54, 111
4, 81510, Note_on_c, 2, 54, 0
4, 81540, Note_on_c, 2, 50, 111
4, 81570, Note_on_c, 2, 50, 0
4, 81600, Note_on_c, 2, 62, 112
4, 81900, Note_on_c, 2, 62, 0
4, 81900, Note_on_c, 2, 50, 115
4, 81930, Note_on_c, 2, 50, 0
4, 81960, Note_on_c, 2, 54, 115
4, 81990, Note_on_c, 2, 54, 0
4, 82020, Note_on_c, 2, 50, 116
4, 82050, Note_on_c, 2, 50, 0
4, 82080, Note_on_c, 2, 62, 116
4, 82200, Note_on_c, 2, 62, 0
4, 82500, Note_on_c, 2, 57, 120
4, 82560, Note_on_c, 2, 57, 0
4, 82560, Note_on_c, 2, 66, 120
4, 82620, Note_on_c, 2, 66, 0
4, 82620, Note_on_c, 2, 62, 121
4, 82680, Note_on_c, 2, 62, 0
4, 82680, Note_on_c, 2, 57, 121
4, 82740, Note_on_c, 2, 57, 0
4, 82740, Note_on_c, 2, 54, 122
4, 82800, Note_on_c, 2, 54, 0
4, 82800, Note_on_c, 2, 62, 122
4, 82860, Note_on_c, 2, 62, 0
4, 82860, Note_on_c, 2, 57, 123
4, 82920, Note_on_c, 2, 57, 0
4, 82920, Note_on_c, 2, 54, 123
4, 82980, Note_on_c, 2, 54, 0
4, 82980, Note_on_c, 2, 50, 124
4, 83040, Note_on_c, 2, 50, 0
4, 83040, Note_on_c, 2, 57, 127
4, 83100, Note_on_c, 2, 57, 0
4, 83100, Note_on_c, 2, 54, 127
4, 83160, Note_on_c, 2, 54, 0
4, 83160, Note_on_c, 2, 50, 127
4, 83220, Note_on_c, 2, 50, 0
4, 83220, Note_on_c, 2, 45, 127
4, 83280, Note_on_c, 2, 45, 0
4, 83280, Note_on_c, 2, 50, 127
4, 83340, Note_on_c, 2, 50, 0
4, 83340, Note_on_c, 2, 45, 127
4, 83400, Note_on_c, 2, 45, 0
4, 83400, Note_on_c, 2, 50, 127
4, 83460, Note_on_c, 2, 50, 0
4, 83460, Note_on_c, 2, 45, 127
4, 83520, Note_on_c, 2, 45, 0
4, 83520, Note_on_c, 2, 50, 127
4, 83610, Note_on_c, 2, 50, 0
4, 83640, Note_on_c, 2, 50, 127
4, 83730, Note_on_c, 2, 50, 0
4, 83760, Note_on_c, 2, 50, 127
4, 83850, Note_on_c, 2, 50, 0
4, 83850, End_track
5, 0, Start_track
5, 0, MIDI_port, 0
5, 0, Title_t, "Corni D"
5, 0, Program_c, 3, 60
5, 0, Control_c, 3, 7, 127
5, 0, Control_c, 3, 10, 29
5, 2760, Note_on_c, 3, 45, 50
5, 2760, Note_on_c, 3, 57, 50
5, 2820, Note_on_c, 3, 57, 0
5, 2820, Note_on_c, 3, 45, 0
5, 2880, Note_on_c, 3, 50, 50
5, 2880, Note_on_c, 3, 57, 50
5, 2940, Note_on_c, 3, 57, 0
5, 2940, Note_on_c, 3, 50, 0
5, 3000, Note_on_c, 3, 45, 50
5, 3000, Note_on_c, 3, 57, 50
5, 3060, Note_on_c, 3, 57, 0
5, 3060, Note_on_c, 3, 45, 0
5, 3120, Note_on_c, 3, 50, 50
5, 3120, Note_on_c, 3, 57, 50
5, 3180, Note_on_c, 3, 57, 0
5, 3180, Note_on_c, 3, 50, 0
5, 3240, Note_on_c, 3, 45, 50
5, 3240, Note_on_c, 3, 57, 50
5, 3300, Note_on_c, 3, 57, 0
5, 3300, Note_on_c, 3, 45, 0
5, 3360, Note_on_c, 3, 50, 50
5, 3360, Note_on_c, 3, 57, 50
5, 3420, Note_on_c, 3, 57, 0
5, 3420, Note_on_c, 3, 50, 0
5, 3480, Note_on_c, 3, 45, 50
5, 3480, Note_on_c, 3, 57, 50
5, 3540, Note_on_c, 3, 57, 0
5, 3540, Note_on_c, 3, 45, 0
5, 3600, Note_on_c, 3, 50, 50
5, 3600, Note_on_c, 3, 57, 50
5, 3660, Note_on_c, 3, 57, 0
5, 3660, Note_on_c, 3, 50, 0
5, 3840, Note_on_c, 3, 50, 100
5, 3840, Note_on_c, 3, 62, 100
5, 3960, Note_on_c, 3, 62, 0
5, 3960, Note_on_c, 3, 50, 0
5, 4080, Note_on_c, 3, 50, 100
5, 4080, Note_on_c, 3, 62, 100
5, 4320, Note_on_c, 3, 62, 0
5, 4320, Note_on_c, 3, 50, 0
5, 4320, Note_on_c, 3, 50, 100
5, 4320, Note_on_c, 3, 62, 100
5, 4440, Note_on_c, 3, 62, 0
5, 4440, Note_on_c, 3, 50, 0
5, 4560, Note_on_c, 3, 57, 100
5, 4560, Note_on_c, 3, 64, 100
5, 4800, Note_on_c, 3, 64, 0
5, 4800, Note_on_c, 3, 57, 0
5, 4800, Note_on_c, 3, 54, 100
5, 4800, Note_on_c, 3, 62, 100
5, 4920, Note_on_c, 3, 62, 0
5, 4920, Note_on_c, 3, 54, 0
5, 5040, Note_on_c, 3, 50, 100
5, 5040, Note_on_c, 3, 62, 100
5, 5280, Note_on_c, 3, 62, 0
5, 5280, Note_on_c, 3, 50, 0
5, 5280, Note_on_c, 3, 50, 100
5, 5280, Note_on_c, 3, 62, 100
5, 5400, Note_on_c, 3, 62, 0
5, 5400, Note_on_c, 3, 50, 0
5, 5520, Note_on_c, 3, 57, 100
5, 5520, Note_on_c, 3, 64, 100
5, 5760, Note_on_c, 3, 64, 0
5, 5760, Note_on_c, 3, 57, 0
5, 5760, Note_on_c, 3, 54, 100
5, 5760, Note_on_c, 3, 62, 100
5, 5880, Note_on_c, 3, 62, 0
5, 5880, Note_on_c, 3, 54, 0
5, 5880, Note_on_c, 3, 69, 100
5, 5880, Note_on_c, 3, 57, 100
5, 6000, Note_on_c, 3, 57, 0
5, 6000, Note_on_c, 3, 69, 0
5, 6000, Note_on_c, 3, 54, 100
5, 6000, Note_on_c, 3, 66, 100
5, 6120, Note_on_c, 3, 66, 0
5, 6120, Note_on_c, 3, 54, 0
5, 6120, Note_on_c, 3, 50, 100
5, 6120, Note_on_c, 3, 62, 100
5, 6240, Note_on_c, 3, 62, 0
5, 6240, Note_on_c, 3, 50, 0
5, 6240, Note_on_c, 3, 57, 100
5, 6240, Note_on_c, 3, 64, 100
5, 6285, Note_on_c, 3, 64, 0
5, 6285, Note_on_c, 3, 57, 0
5, 6300, Note_on_c, 3, 57, 100
5, 6300, Note_on_c, 3, 64, 100
5, 6345, Note_on_c, 3, 64, 0
5, 6345, Note_on_c, 3, 57, 0
5, 6360, Note_on_c, 3, 62, 100
5, 6360, Note_on_c, 3, 66, 100
5, 6405, Note_on_c, 3, 66, 0
5, 6405, Note_on_c, 3, 62, 0
5, 6420, Note_on_c, 3, 62, 100
5, 6420, Note_on_c, 3, 66, 100
5, 6465, Note_on_c, 3, 66, 0
5, 6465, Note_on_c, 3, 62, 0
5, 6480, Note_on_c, 3, 57, 100
5, 6480, Note_on_c, 3, 64, 100
5, 6525, Note_on_c, 3, 64, 0
5, 6525, Note_on_c, 3, 57, 0
5, 6540, Note_on_c, 3, 57, 100
5, 6540, Note_on_c, 3, 64, 100
5, 6585, Note_on_c, 3, 64, 0
5, 6585, Note_on_c, 3, 57, 0
5, 6600, Note_on_c, 3, 62, 100
5, 6600, Note_on_c, 3, 66, 100
5, 6645, Note_on_c, 3, 66, 0
5, 6645, Note_on_c, 3, 62, 0
5, 6660, Note_on_c, 3, 62, 100
5, 6660, Note_on_c, 3, 66, 100
5, 6705, Note_on_c, 3, 66, 0
5, 6705, Note_on_c, 3, 62, 0
5, 6720, Note_on_c, 3, 57, 100
5, 6720, Note_on_c, 3, 64, 100
5, 6765, Note_on_c, 3, 64, 0
5, 6765, Note_on_c, 3, 57, 0
5, 6780, Note_on_c, 3, 45, 100
5, 6780, Note_on_c, 3, 57, 100
5, 6825, Note_on_c, 3, 57, 0
5, 6825, Note_on_c, 3, 45, 0
5, 6840, Note_on_c, 3, 45, 100
5, 6840, Note_on_c, 3, 57, 100
5, 6885, Note_on_c, 3, 57, 0
5, 6885, Note_on_c, 3, 45, 0
5, 6900, Note_on_c, 3, 45, 100
5, 6900, Note_on_c, 3, 57, 100
5, 6945, Note_on_c, 3, 57, 0
5, 6945, Note_on_c, 3, 45, 0
5, 6960, Note_on_c, 3, 45, 100
5, 6960, Note_on_c, 3, 57, 100
5, 7080, Note_on_c, 3, 57, 0
5, 7080, Note_on_c, 3, 45, 0
5, 11040, Note_on_c, 3, 57, 100
5, 11040, Note_on_c, 3, 69, 100
5, 11520, Note_on_c, 3, 69, 0
5, 11520, Note_on_c, 3, 57, 0
5, 11520, Note_on_c, 3, 69, 100
5, 11520, Note_on_c, 3, 57, 100
5, 12000, Note_on_c, 3, 57, 0
5, 12000, Note_on_c, 3, 69, 0
5, 12000, Note_on_c, 3, 57, 100
5, 12000, Note_on_c, 3, 69, 100
5, 12480, Note_on_c, 3, 69, 0
5, 12480, Note_on_c, 3, 57, 0
5, 12480, Note_on_c, 3, 57, 100
5, 12480, Note_on_c, 3, 69, 100
5, 12960, Note_on_c, 3, 69, 0
5, 12960, Note_on_c, 3, 57, 0
5, 12960, Note_on_c, 3, 64, 100
5, 14040, Note_on_c, 3, 64, 0
5, 14280, Note_on_c, 3, 57, 100
5, 14280, Note_on_c, 3, 64, 100
5, 14359, Note_on_c, 3, 64, 0
5, 14359, Note_on_c, 3, 57, 0
5, 14400, Note_on_c, 3, 64, 100
5, 14520, Note_on_c, 3, 64, 0
5, 14760, Note_on_c, 3, 57, 100
5, 14760, Note_on_c, 3, 64, 100
5, 14839, Note_on_c, 3, 64, 0
5, 14839, Note_on_c, 3, 57, 0
5, 14880, Note_on_c, 3, 64, 100
5, 15000, Note_on_c, 3, 64, 0
5, 21360, Note_on_c, 3, 64, 50
5, 22320, Note_on_c, 3, 57, 50
5, 22440, Note_on_c, 3, 57, 0
5, 22440, Note_on_c, 3, 64, 0
5, 26160, Note_on_c, 3, 50, 100
5, 26160, Note_on_c, 3, 62, 100
5, 26400, Note_on_c, 3, 62, 0
5, 26400, Note_on_c, 3, 50, 0
5, 26400, Note_on_c, 3, 45, 100
5, 26400, Note_on_c, 3, 57, 100
5, 26640, Note_on_c, 3, 57, 0
5, 26640, Note_on_c, 3, 45, 0
5, 26640, Note_on_c, 3, 50, 100
5, 26640, Note_on_c, 3, 62, 100
5, 26880, Note_on_c, 3, 62, 0
5, 26880, Note_on_c, 3, 50, 0
5, 26880, Note_on_c, 3, 45, 100
5, 26880, Note_on_c, 3, 57, 100
5, 27120, Note_on_c, 3, 57, 0
5, 27120, Note_on_c, 3, 45, 0
5, 27120, Note_on_c, 3, 50, 100
5, 27120, Note_on_c, 3, 62, 100
5, 27360, Note_on_c, 3, 62, 0
5, 27360, Note_on_c, 3, 50, 0
5, 27360, Note_on_c, 3, 45, 100
5, 27360, Note_on_c, 3, 57, 100
5, 27600, Note_on_c, 3, 57, 0
5, 27600, Note_on_c, 3, 45, 0
5, 27600, Note_on_c, 3, 62, 100
5, 27600, Note_on_c, 3, 50, 100
5, 28080, Note_on_c, 3, 50, 0
5, 28080, Note_on_c, 3, 62, 0
5, 28080, Note_on_c, 3, 64, 100
5, 28200, Note_on_c, 3, 64, 0
5, 28200, Note_on_c, 3, 66, 100
5, 28320, Note_on_c, 3, 66, 0
5, 28320, Note_on_c, 3, 62, 100
5, 28320, Note_on_c, 3, 66, 100
5, 28440, Note_on_c, 3, 66, 0
5, 28440, Note_on_c, 3, 62, 0
5, 28440, Note_on_c, 3, 64, 100
5, 28560, Note_on_c, 3, 64, 0
5, 28560, Note_on_c, 3, 57, 100
5, 28560, Note_on_c, 3, 64, 100
5, 28680, Note_on_c, 3, 64, 0
5, 28680, Note_on_c, 3, 57, 0
5, 30960, Note_on_c, 3, 57, 50
5, 30960, Note_on_c, 3, 64, 50
5, 31080, Note_on_c, 3, 64, 0
5, 31080, Note_on_c, 3, 57, 0
5, 31200, Note_on_c, 3, 62, 50
5, 31200, Note_on_c, 3, 66, 50
5, 31320, Note_on_c, 3, 66, 0
5, 31320, Note_on_c, 3, 62, 0
5, 31440, Note_on_c, 3, 64, 50
5, 31560, Note_on_c, 3, 64, 0
5, 31680, Note_on_c, 3, 64, 50
5, 31800, Note_on_c, 3, 64, 0
5, 31920, Note_on_c, 3, 57, 50
5, 31920, Note_on_c, 3, 64, 50
5, 32040, Note_on_c, 3, 64, 0
5, 32040, Note_on_c, 3, 57, 0
5, 32160, Note_on_c, 3, 66, 50
5, 32160, Note_on_c, 3, 62, 50
5, 32280, Note_on_c, 3, 62, 0
5, 32280, Note_on_c, 3, 66, 0
5, 32400, Note_on_c, 3, 64, 50
5, 32520, Note_on_c, 3, 64, 0
5, 32640, Note_on_c, 3, 64, 50
5, 32760, Note_on_c, 3, 64, 0
5, 32880, Note_on_c, 3, 45, 100
5, 32880, Note_on_c, 3, 57, 100
5, 33000, Note_on_c, 3, 57, 0
5, 33000, Note_on_c, 3, 45, 0
5, 33120, Note_on_c, 3, 45, 102
5, 33120, Note_on_c, 3, 57, 102
5, 33240, Note_on_c, 3, 57, 0
5, 33240, Note_on_c, 3, 45, 0
5, 33240, Note_on_c, 3, 45, 103
5, 33240, Note_on_c, 3, 57, 103
5, 33330, Note_on_c, 3, 57, 0
5, 33330, Note_on_c, 3, 45, 0
5, 33330, Note_on_c, 3, 45, 104
5, 33330, Note_on_c, 3, 57, 104
5, 33360, Note_on_c, 3, 57, 0
5, 33360, Note_on_c, 3, 45, 0
5, 33360, Note_on_c, 3, 45, 104
5, 33360, Note_on_c, 3, 57, 104
5, 33480, Note_on_c, 3, 57, 0
5, 33480, Note_on_c, 3, 45, 0
5, 33600, Note_on_c, 3, 45, 106
5, 33600, Note_on_c, 3, 57, 106
5, 33720, Note_on_c, 3, 57, 0
5, 33720, Note_on_c, 3, 45, 0
5, 33720, Note_on_c, 3, 45, 107
5, 33720, Note_on_c, 3, 57, 107
5, 33810, Note_on_c, 3, 57, 0
5, 33810, Note_on_c, 3, 45, 0
5, 33810, Note_on_c, 3, 45, 108
5, 33810, Note_on_c, 3, 57, 108
5, 33840, Note_on_c, 3, 57, 0
5, 33840, Note_on_c, 3, 45, 0
5, 33840, Note_on_c, 3, 45, 109
5, 33840, Note_on_c, 3, 57, 109
5, 33960, Note_on_c, 3, 57, 0
5, 33960, Note_on_c, 3, 45, 0
5, 34080, Note_on_c, 3, 45, 111
5, 34080, Note_on_c, 3, 57, 111
5, 34200, Note_on_c, 3, 57, 0
5, 34200, Note_on_c, 3, 45, 0
5, 34200, Note_on_c, 3, 45, 112
5, 34200, Note_on_c, 3, 57, 112
5, 34290, Note_on_c, 3, 57, 0
5, 34290, Note_on_c, 3, 45, 0
5, 34290, Note_on_c, 3, 45, 113
5, 34290, Note_on_c, 3, 57, 113
5, 34320, Note_on_c, 3, 57, 0
5, 34320, Note_on_c, 3, 45, 0
5, 34320, Note_on_c, 3, 45, 113
5, 34320, Note_on_c, 3, 57, 113
5, 35610, Note_on_c, 3, 57, 0
5, 35610, Note_on_c, 3, 45, 0
5, 35760, Note_on_c, 3, 45, 127
5, 35760, Note_on_c, 3, 57, 127
5, 35850, Note_on_c, 3, 57, 0
5, 35850, Note_on_c, 3, 45, 0
5, 35880, Note_on_c, 3, 45, 127
5, 35880, Note_on_c, 3, 57, 127
5, 35970, Note_on_c, 3, 57, 0
5, 35970, Note_on_c, 3, 45, 0
5, 36000, Note_on_c, 3, 45, 127
5, 36000, Note_on_c, 3, 57, 127
5, 36090, Note_on_c, 3, 57, 0
5, 36090, Note_on_c, 3, 45, 0
5, 36240, Note_on_c, 3, 45, 127
5, 36240, Note_on_c, 3, 57, 127
5, 37260, Note_on_c, 3, 57, 0
5, 37260, Note_on_c, 3, 45, 0
5, 38160, Note_on_c, 3, 62, 100
5, 38160, Note_on_c, 3, 64, 100
5, 39180, Note_on_c, 3, 64, 0
5, 39180, Note_on_c, 3, 62, 0
5, 40080, Note_on_c, 3, 54, 100
5, 40080, Note_on_c, 3, 66, 100
5, 41100, Note_on_c, 3, 66, 0
5, 41100, Note_on_c, 3, 54, 0
5, 43920, Note_on_c, 3, 62, 100
5, 43920, Note_on_c, 3, 50, 100
5, 44040, Note_on_c, 3, 50, 0
5, 44040, Note_on_c, 3, 62, 0
5, 44880, Note_on_c, 3, 50, 100
5, 44880, Note_on_c, 3, 62, 100
5, 45000, Note_on_c, 3, 62, 0
5, 45000, Note_on_c, 3, 50, 0
5, 45840, Note_on_c, 3, 64, 100
5, 45960, Note_on_c, 3, 64, 0
5, 46800, Note_on_c, 3, 64, 100
5, 46920, Note_on_c, 3, 64, 0
5, 47760, Note_on_c, 3, 54, 100
5, 47760, Note_on_c, 3, 66, 100
5, 47880, Note_on_c, 3, 66, 0
5, 47880, Note_on_c, 3, 54, 0
5, 54480, Note_on_c, 3, 50, 100
5, 54480, Note_on_c, 3, 62, 100
5, 55500, Note_on_c, 3, 62, 0
5, 55500, Note_on_c, 3, 50, 0
5, 56400, Note_on_c, 3, 45, 100
5, 56400, Note_on_c, 3, 57, 100
5, 57420, Note_on_c, 3, 57, 0
5, 57420, Note_on_c, 3, 45, 0
5, 58320, Note_on_c, 3, 62, 100
5, 58320, Note_on_c, 3, 50, 100
5, 58800, Note_on_c, 3, 50, 0
5, 58800, Note_on_c, 3, 62, 0
5, 58800, Note_on_c, 3, 50, 100
5, 58800, Note_on_c, 3, 62, 100
5, 59280, Note_on_c, 3, 62, 0
5, 59280, Note_on_c, 3, 50, 0
5, 59280, Note_on_c, 3, 62, 100
5, 59280, Note_on_c, 3, 50, 100
5, 59760, Note_on_c, 3, 50, 0
5, 59760, Note_on_c, 3, 62, 0
5, 59760, Note_on_c, 3, 62, 100
5, 59760, Note_on_c, 3, 50, 100
5, 60240, Note_on_c, 3, 50, 0
5, 60240, Note_on_c, 3, 62, 0
5, 60240, Note_on_c, 3, 45, 100
5, 60240, Note_on_c, 3, 57, 100
5, 61320, Note_on_c, 3, 57, 0
5, 61320, Note_on_c, 3, 45, 0
5, 61560, Note_on_c, 3, 50, 100
5, 61560, Note_on_c, 3, 57, 100
5, 61650, Note_on_c, 3, 57, 0
5, 61650, Note_on_c, 3, 50, 0
5, 61680, Note_on_c, 3, 45, 100
5, 61680, Note_on_c, 3, 57, 100
5, 61770, Note_on_c, 3, 45, 0
5, 61800, Note_on_c, 3, 57, 0
5, 62040, Note_on_c, 3, 50, 100
5, 62040, Note_on_c, 3, 57, 100
5, 62130, Note_on_c, 3, 57, 0
5, 62130, Note_on_c, 3, 50, 0
5, 62160, Note_on_c, 3, 45, 100
5, 62160, Note_on_c, 3, 57, 100
5, 62250, Note_on_c, 3, 45, 0
5, 62280, Note_on_c, 3, 57, 0
5, 68640, Note_on_c, 3, 69, 50
5, 69600, Note_on_c, 3, 62, 50
5, 69720, Note_on_c, 3, 62, 0
5, 69720, Note_on_c, 3, 69, 0
5, 73440, Note_on_c, 3, 50, 100
5, 73440, Note_on_c, 3, 62, 100
5, 73560, Note_on_c, 3, 62, 0
5, 73560, Note_on_c, 3, 50, 0
5, 73560, Note_on_c, 3, 50, 100
5, 73560, Note_on_c, 3, 62, 100
5, 73650, Note_on_c, 3, 62, 0
5, 73650, Note_on_c, 3, 50, 0
5, 73650, Note_on_c, 3, 50, 100
5, 73650, Note_on_c, 3, 62, 100
5, 73680, Note_on_c, 3, 62, 0
5, 73680, Note_on_c, 3, 50, 0
5, 73680, Note_on_c, 3, 50, 100
5, 73680, Note_on_c, 3, 62, 100
5, 73920, Note_on_c, 3, 62, 0
5, 73920, Note_on_c, 3, 50, 0
5, 73920, Note_on_c, 3, 62, 100
5, 73920, Note_on_c, 3, 50, 100
5, 74040, Note_on_c, 3, 50, 0
5, 74040, Note_on_c, 3, 62, 0
5, 74040, Note_on_c, 3, 62, 100
5, 74040, Note_on_c, 3, 50, 100
5, 74130, Note_on_c, 3, 50, 0
5, 74130, Note_on_c, 3, 62, 0
5, 74130, Note_on_c, 3, 50, 100
5, 74130, Note_on_c, 3, 62, 100
5, 74160, Note_on_c, 3, 62, 0
5, 74160, Note_on_c, 3, 50, 0
5, 74160, Note_on_c, 3, 62, 100
5, 74160, Note_on_c, 3, 50, 100
5, 74400, Note_on_c, 3, 50, 0
5, 74400, Note_on_c, 3, 62, 0
5, 74400, Note_on_c, 3, 50, 100
5, 74400, Note_on_c, 3, 62, 100
5, 74520, Note_on_c, 3, 62, 0
5, 74520, Note_on_c, 3, 50, 0
5, 74520, Note_on_c, 3, 50, 100
5, 74520, Note_on_c, 3, 62, 100
5, 74610, Note_on_c, 3, 62, 0
5, 74610, Note_on_c, 3, 50, 0
5, 74610, Note_on_c, 3, 50, 100
5, 74610, Note_on_c, 3, 62, 100
5, 74640, Note_on_c, 3, 62, 0
5, 74640, Note_on_c, 3, 50, 0
5, 74640, Note_on_c, 3, 50, 100
5, 74640, Note_on_c, 3, 62, 100
5, 74880, Note_on_c, 3, 62, 0
5, 74880, Note_on_c, 3, 50, 0
5, 74880, Note_on_c, 3, 62, 100
5, 74880, Note_on_c, 3, 50, 100
5, 75360, Note_on_c, 3, 50, 0
5, 75360, Note_on_c, 3, 62, 0
5, 75360, Note_on_c, 3, 57, 100
5, 75360, Note_on_c, 3, 64, 100
5, 75480, Note_on_c, 3, 64, 0
5, 75480, Note_on_c, 3, 57, 0
5, 75480, Note_on_c, 3, 66, 100
5, 75480, Note_on_c, 3, 62, 100
5, 75600, Note_on_c, 3, 62, 0
5, 75600, Note_on_c, 3, 66, 0
5, 75600, Note_on_c, 3, 67, 100
5, 75600, Note_on_c, 3, 64, 100
5, 75720, Note_on_c, 3, 64, 0
5, 75720, Note_on_c, 3, 67, 0
5, 75720, Note_on_c, 3, 57, 100
5, 75720, Note_on_c, 3, 64, 100
5, 75840, Note_on_c, 3, 64, 0
5, 75840, Note_on_c, 3, 57, 0
5, 75840, Note_on_c, 3, 54, 100
5, 75840, Note_on_c, 3, 62, 100
5, 75900, Note_on_c, 3, 62, 0
5, 75900, Note_on_c, 3, 54, 0
5, 75900, Note_on_c, 3, 66, 50
5, 75900, Note_on_c, 3, 62, 50
5, 75930, Note_on_c, 3, 62, 0
5, 75930, Note_on_c, 3, 66, 0
5, 75960, Note_on_c, 3, 66, 50
5, 75960, Note_on_c, 3, 69, 50
5, 75990, Note_on_c, 3, 69, 0
5, 75990, Note_on_c, 3, 66, 0
5, 76020, Note_on_c, 3, 62, 50
5, 76020, Note_on_c, 3, 66, 50
5, 76050, Note_on_c, 3, 66, 0
5, 76050, Note_on_c, 3, 62, 0
5, 76080, Note_on_c, 3, 67, 50
5, 76080, Note_on_c, 3, 64, 50
5, 76320, Note_on_c, 3, 64, 0
5, 76320, Note_on_c, 3, 67, 0
5, 76320, Note_on_c, 3, 62, 50
5, 76320, Note_on_c, 3, 66, 50
5, 76380, Note_on_c, 3, 66, 0
5, 76380, Note_on_c, 3, 62, 0
5, 76380, Note_on_c, 3, 62, 50
5, 76380, Note_on_c, 3, 66, 50
5, 76410, Note_on_c, 3, 66, 0
5, 76410, Note_on_c, 3, 62, 0
5, 76440, Note_on_c, 3, 69, 50
5, 76440, Note_on_c, 3, 66, 50
5, 76470, Note_on_c, 3, 66, 0
5, 76470, Note_on_c, 3, 69, 0
5, 76500, Note_on_c, 3, 62, 50
5, 76500, Note_on_c, 3, 66, 50
5, 76530, Note_on_c, 3, 66, 0
5, 76530, Note_on_c, 3, 62, 0
5, 76560, Note_on_c, 3, 64, 50
5, 76560, Note_on_c, 3, 67, 50
5, 76800, Note_on_c, 3, 67, 0
5, 76800, Note_on_c, 3, 64, 0
5, 76800, Note_on_c, 3, 66, 50
5, 76800, Note_on_c, 3, 62, 50
5, 76860, Note_on_c, 3, 62, 0
5, 76860, Note_on_c, 3, 66, 0
5, 76860, Note_on_c, 3, 66, 50
5, 76860, Note_on_c, 3, 62, 50
5, 76890, Note_on_c, 3, 62, 0
5, 76890, Note_on_c, 3, 66, 0
5, 76920, Note_on_c, 3, 69, 50
5, 76920, Note_on_c, 3, 66, 50
5, 76950, Note_on_c, 3, 66, 0
5, 76950, Note_on_c, 3, 69, 0
5, 76980, Note_on_c, 3, 62, 50
5, 76980, Note_on_c, 3, 66, 50
5, 77010, Note_on_c, 3, 66, 0
5, 77010, Note_on_c, 3, 62, 0
5, 77040, Note_on_c, 3, 67, 50
5, 77040, Note_on_c, 3, 64, 50
5, 77280, Note_on_c, 3, 64, 0
5, 77280, Note_on_c, 3, 67, 0
5, 77280, Note_on_c, 3, 62, 50
5, 77280, Note_on_c, 3, 66, 50
5, 77340, Note_on_c, 3, 66, 0
5, 77340, Note_on_c, 3, 62, 0
5, 78780, Note_on_c, 3, 66, 50
5, 78780, Note_on_c, 3, 62, 50
5, 78810, Note_on_c, 3, 62, 0
5, 78810, Note_on_c, 3, 66, 0
5, 78840, Note_on_c, 3, 69, 50
5, 78840, Note_on_c, 3, 66, 50
5, 78870, Note_on_c, 3, 66, 0
5, 78870, Note_on_c, 3, 69, 0
5, 78900, Note_on_c, 3, 62, 50
5, 78900, Note_on_c, 3, 66, 50
5, 78930, Note_on_c, 3, 66, 0
5, 78930, Note_on_c, 3, 62, 0
5, 78960, Note_on_c, 3, 57, 50
5, 78960, Note_on_c, 3, 64, 50
5, 78990, Note_on_c, 3, 64, 0
5, 78990, Note_on_c, 3, 57, 0
5, 79020, Note_on_c, 3, 57, 50
5, 79020, Note_on_c, 3, 64, 50
5, 79050, Note_on_c, 3, 64, 0
5, 79050, Note_on_c, 3, 57, 0
5, 79080, Note_on_c, 3, 64, 50
5, 79080, Note_on_c, 3, 67, 50
5, 79110, Note_on_c, 3, 67, 0
5, 79110, Note_on_c, 3, 64, 0
5, 79140, Note_on_c, 3, 64, 50
5, 79140, Note_on_c, 3, 57, 50
5, 79170, Note_on_c, 3, 57, 0
5, 79170, Note_on_c, 3, 64, 0
5, 79200, Note_on_c, 3, 54, 50
5, 79200, Note_on_c, 3, 62, 50
5, 79320, Note_on_c, 3, 62, 0
5, 79320, Note_on_c, 3, 54, 0
5, 79740, Note_on_c, 3, 66, 50
5, 79740, Note_on_c, 3, 62, 50
5, 79770, Note_on_c, 3, 62, 0
5, 79770, Note_on_c, 3, 66, 0
5, 79800, Note_on_c, 3, 69, 50
5, 79800, Note_on_c, 3, 66, 50
5, 79830, Note_on_c, 3, 66, 0
5, 79830, Note_on_c, 3, 69, 0
5, 79860, Note_on_c, 3, 62, 50
5, 79860, Note_on_c, 3, 66, 50
5, 79890, Note_on_c, 3, 66, 0
5, 79890, Note_on_c, 3, 62, 0
5, 79920, Note_on_c, 3, 57, 50
5, 79920, Note_on_c, 3, 64, 50
5, 79950, Note_on_c, 3, 64, 0
5, 79950, Note_on_c, 3, 57, 0
5, 79980, Note_on_c, 3, 57, 50
5, 79980, Note_on_c, 3, 64, 50
5, 80010, Note_on_c, 3, 64, 0
5, 80010, Note_on_c, 3, 57, 0
5, 80040, Note_on_c, 3, 64, 50
5, 80040, Note_on_c, 3, 67, 50
5, 80070, Note_on_c, 3, 67, 0
5, 80070, Note_on_c, 3, 64, 0
5, 80100, Note_on_c, 3, 57, 50
5, 80100, Note_on_c, 3, 64, 50
5, 80130, Note_on_c, 3, 64, 0
5, 80130, Note_on_c, 3, 57, 0
5, 80160, Note_on_c, 3, 50, 100
5, 80160, Note_on_c, 3, 62, 100
5, 80520, Note_on_c, 3, 62, 0
5, 80520, Note_on_c, 3, 50, 0
5, 80520, Note_on_c, 3, 50, 103
5, 80520, Note_on_c, 3, 62, 103
5, 80610, Note_on_c, 3, 62, 0
5, 80610, Note_on_c, 3, 50, 0
5, 80610, Note_on_c, 3, 50, 103
5, 80610, Note_on_c, 3, 62, 103
5, 80640, Note_on_c, 3, 62, 0
5, 80640, Note_on_c, 3, 50, 0
5, 80640, Note_on_c, 3, 62, 104
5, 80640, Note_on_c, 3, 50, 104
5, 81000, Note_on_c, 3, 50, 0
5, 81000, Note_on_c, 3, 62, 0
5, 81000, Note_on_c, 3, 50, 107
5, 81000, Note_on_c, 3, 62, 107
5, 81090, Note_on_c, 3, 62, 0
5, 81090, Note_on_c, 3, 50, 0
5, 81090, Note_on_c, 3, 62, 108
5, 81090, Note_on_c, 3, 50, 108
5, 81120, Note_on_c, 3, 50, 0
5, 81120, Note_on_c, 3, 62, 0
5, 81120, Note_on_c, 3, 50, 108
5, 81120, Note_on_c, 3, 62, 108
5, 81480, Note_on_c, 3, 62, 0
5, 81480, Note_on_c, 3, 50, 0
5, 81480, Note_on_c, 3, 62, 111
5, 81480, Note_on_c, 3, 50, 111
5, 81570, Note_on_c, 3, 50, 0
5, 81570, Note_on_c, 3, 62, 0
5, 81570, Note_on_c, 3, 50, 112
5, 81570, Note_on_c, 3, 62, 112
5, 81600, Note_on_c, 3, 62, 0
5, 81600, Note_on_c, 3, 50, 0
5, 81600, Note_on_c, 3, 50, 112
5, 81600, Note_on_c, 3, 62, 112
5, 81960, Note_on_c, 3, 62, 0
5, 81960, Note_on_c, 3, 50, 0
5, 81960, Note_on_c, 3, 50, 115
5, 81960, Note_on_c, 3, 62, 115
5, 82050, Note_on_c, 3, 62, 0
5, 82050, Note_on_c, 3, 50, 0
5, 82050, Note_on_c, 3, 62, 116
5, 82050, Note_on_c, 3, 50, 116
5, 82080, Note_on_c, 3, 50, 0
5, 82080, Note_on_c, 3, 62, 0
5, 82080, Note_on_c, 3, 50, 116
5, 82080, Note_on_c, 3, 62, 116
5, 82980, Note_on_c, 3, 62, 0
5, 82980, Note_on_c, 3, 50, 0
5, 82980, Note_on_c, 3, 50, 124
5, 82980, Note_on_c, 3, 62, 124
5, 83040, Note_on_c, 3, 62, 0
5, 83040, Note_on_c, 3, 50, 0
5, 83040, Note_on_c, 3, 57, 127
5, 83040, Note_on_c, 3, 69, 127
5, 83100, Note_on_c, 3, 69, 0
5, 83100, Note_on_c, 3, 57, 0
5, 83100, Note_on_c, 3, 54, 127
5, 83100, Note_on_c, 3, 66, 127
5, 83160, Note_on_c, 3, 66, 0
5, 83160, Note_on_c, 3, 54, 0
5, 83160, Note_on_c, 3, 50, 127
5, 83160, Note_on_c, 3, 62, 127
5, 83220, Note_on_c, 3, 62, 0
5, 83220, Note_on_c, 3, 50, 0
5, 83220, Note_on_c, 3, 45, 127
5, 83220, Note_on_c, 3, 57, 127
5, 83280, Note_on_c, 3, 57, 0
5, 83280, Note_on_c, 3, 45, 0
5, 83280, Note_on_c, 3, 50, 127
5, 83280, Note_on_c, 3, 62, 127
5, 83340, Note_on_c, 3, 62, 0
5, 83340, Note_on_c, 3, 50, 0
5, 83340, Note_on_c, 3, 45, 127
5, 83340, Note_on_c, 3, 57, 127
5, 83400, Note_on_c, 3, 57, 0
5, 83400, Note_on_c, 3, 45, 0
5, 83400, Note_on_c, 3, 50, 127
5, 83400, Note_on_c, 3, 62, 127
5, 83460, Note_on_c, 3, 62, 0
5, 83460, Note_on_c, 3, 50, 0
5, 83460, Note_on_c, 3, 45, 127
5, 83460, Note_on_c, 3, 57, 127
5, 83520, Note_on_c, 3, 57, 0
5, 83520, Note_on_c, 3, 45, 0
5, 83520, Note_on_c, 3, 50, 127
5, 83520, Note_on_c, 3, 62, 127
5, 83610, Note_on_c, 3, 62, 0
5, 83610, Note_on_c, 3, 50, 0
5, 83640, Note_on_c, 3, 50, 127
5, 83640, Note_on_c, 3, 62, 127
5, 83730, Note_on_c, 3, 62, 0
5, 83730, Note_on_c, 3, 50, 0
5, 83760, Note_on_c, 3, 50, 127
5, 83760, Note_on_c, 3, 62, 127
5, 83850, Note_on_c, 3, 62, 0
5, 83850, Note_on_c, 3, 50, 0
5, 83850, End_track
6, 0, Start_track
6, 0, MIDI_port, 0
6, 0, Title_t, "Trombe D"
6, 0, Program_c, 4, 56
6, 0, Control_c, 4, 7, 127
6, 0, Control_c, 4, 10, 115
6, 2760, Note_on_c, 4, 57, 50
6, 2760, Note_on_c, 4, 69, 50
6, 2820, Note_on_c, 4, 69, 0
6, 2820, Note_on_c, 4, 57, 0
6, 2880, Note_on_c, 4, 62, 50
6, 2880, Note_on_c, 4, 69, 50
6, 2940, Note_on_c, 4, 69, 0
6, 2940, Note_on_c, 4, 62, 0
6, 3000, Note_on_c, 4, 57, 50
6, 3000, Note_on_c, 4, 69, 50
6, 3060, Note_on_c, 4, 69, 0
6, 3060, Note_on_c, 4, 57, 0
6, 3120, Note_on_c, 4, 62, 50
6, 3120, Note_on_c, 4, 69, 50
6, 3180, Note_on_c, 4, 69, 0
6, 3180, Note_on_c, 4, 62, 0
6, 3240, Note_on_c, 4, 57, 50
6, 3240, Note_on_c, 4, 69, 50
6, 3300, Note_on_c, 4, 69, 0
6, 3300, Note_on_c, 4, 57, 0
6, 3360, Note_on_c, 4, 62, 50
6, 3360, Note_on_c, 4, 69, 50
6, 3420, Note_on_c, 4, 69, 0
6, 3420, Note_on_c, 4, 62, 0
6, 3480, Note_on_c, 4, 57, 50
6, 3480, Note_on_c, 4, 69, 50
6, 3540, Note_on_c, 4, 69, 0
6, 3540, Note_on_c, 4, 57, 0
6, 3600, Note_on_c, 4, 62, 50
6, 3600, Note_on_c, 4, 69, 50
6, 3660, Note_on_c, 4, 69, 0
6, 3660, Note_on_c, 4, 62, 0
6, 3840, Note_on_c, 4, 62, 100
6, 3840, Note_on_c, 4, 74, 100
6, 3960, Note_on_c, 4, 74, 0
6, 3960, Note_on_c, 4, 62, 0
6, 4080, Note_on_c, 4, 62, 100
6, 4080, Note_on_c, 4, 74, 100
6, 4320, Note_on_c, 4, 74, 0
6, 4320, Note_on_c, 4, 62, 0
6, 4320, Note_on_c, 4, 62, 100
6, 4320, Note_on_c, 4, 74, 100
6, 4440, Note_on_c, 4, 74, 0
6, 4440, Note_on_c, 4, 62, 0
6, 4560, Note_on_c, 4, 69, 100
6, 4560, Note_on_c, 4, 76, 100
6, 4800, Note_on_c, 4, 76, 0
6, 4800, Note_on_c, 4, 69, 0
6, 4800, Note_on_c, 4, 66, 100
6, 4800, Note_on_c, 4, 74, 100
6, 4920, Note_on_c, 4, 74, 0
6, 4920, Note_on_c, 4, 66, 0
6, 5040, Note_on_c, 4, 62, 100
6, 5040, Note_on_c, 4, 74, 100
6, 5280, Note_on_c, 4, 74, 0
6, 5280, Note_on_c, 4, 62, 0
6, 5280, Note_on_c, 4, 62, 100
6, 5280, Note_on_c, 4, 74, 100
6, 5400, Note_on_c, 4, 74, 0
6, 5400, Note_on_c, 4, 62, 0
6, 5520, Note_on_c, 4, 69, 100
6, 5520, Note_on_c, 4, 76, 100
6, 5760, Note_on_c, 4, 76, 0
6, 5760, Note_on_c, 4, 69, 0
6, 5760, Note_on_c, 4, 66, 100
6, 5760, Note_on_c, 4, 74, 100
6, 5880, Note_on_c, 4, 74, 0
6, 5880, Note_on_c, 4, 66, 0
6, 5880, Note_on_c, 4, 81, 100
6, 5880, Note_on_c, 4, 69, 100
6, 6000, Note_on_c, 4, 69, 0
6, 6000, Note_on_c, 4, 81, 0
6, 6000, Note_on_c, 4, 66, 100
6, 6000, Note_on_c, 4, 78, 100
6, 6120, Note_on_c, 4, 78, 0
6, 6120, Note_on_c, 4, 66, 0
6, 6120, Note_on_c, 4, 62, 100
6, 6120, Note_on_c, 4, 74, 100
6, 6240, Note_on_c, 4, 74, 0
6, 6240, Note_on_c, 4, 62, 0
6, 6240, Note_on_c, 4, 69, 100
6, 6420, Note_on_c, 4, 69, 0
6, 6480, Note_on_c, 4, 69, 100
6, 6660, Note_on_c, 4, 69, 0
6, 6720, Note_on_c, 4, 57, 100
6, 6720, Note_on_c, 4, 69, 100
6, 6765, Note_on_c, 4, 69, 0
6, 6765, Note_on_c, 4, 57, 0
6, 6780, Note_on_c, 4, 57, 100
6, 6780, Note_on_c, 4, 69, 100
6, 6825, Note_on_c, 4, 69, 0
6, 6825, Note_on_c, 4, 57, 0
6, 6840, Note_on_c, 4, 57, 100
6, 6840, Note_on_c, 4, 69, 100
6, 6885, Note_on_c, 4, 69, 0
6, 6885, Note_on_c, 4, 57, 0
6, 6900, Note_on_c, 4, 57, 100
6, 6900, Note_on_c, 4, 69, 100
6, 6945, Note_on_c, 4, 69, 0
6, 6945, Note_on_c, 4, 57, 0
6, 6960, Note_on_c, 4, 57, 100
6, 6960, Note_on_c, 4, 69, 100
6, 7080, Note_on_c, 4, 69, 0
6, 7080, Note_on_c, 4, 57, 0
6, 11040, Note_on_c, 4, 57, 100
6, 11040, Note_on_c, 4, 69, 100
6, 11160, Note_on_c, 4, 69, 0
6, 11160, Note_on_c, 4, 57, 0
6, 11520, Note_on_c, 4, 57, 100
6, 11520, Note_on_c, 4, 69, 100
6, 11640, Note_on_c, 4, 69, 0
6, 11640, Note_on_c, 4, 57, 0
6, 12000, Note_on_c, 4, 57, 100
6, 12000, Note_on_c, 4, 69, 100
6, 12120, Note_on_c, 4, 69, 0
6, 12120, Note_on_c, 4, 57, 0
6, 12480, Note_on_c, 4, 57, 100
6, 12480, Note_on_c, 4, 69, 100
6, 12600, Note_on_c, 4, 69, 0
6, 12600, Note_on_c, 4, 57, 0
6, 12960, Note_on_c, 4, 76, 100
6, 13080, Note_on_c, 4, 76, 0
6, 13440, Note_on_c, 4, 76, 100
6, 13560, Note_on_c, 4, 76, 0
6, 13920, Note_on_c, 4, 76, 100
6, 14040, Note_on_c, 4, 76, 0
6, 14280, Note_on_c, 4, 69, 100
6, 14280, Note_on_c, 4, 76, 100
6, 14359, Note_on_c, 4, 76, 0
6, 14359, Note_on_c, 4, 69, 0
6, 14400, Note_on_c, 4, 76, 100
6, 14520, Note_on_c, 4, 76, 0
6, 14760, Note_on_c, 4, 69, 100
6, 14760, Note_on_c, 4, 76, 100
6, 14839, Note_on_c, 4, 76, 0
6, 14839, Note_on_c, 4, 69, 0
6, 14880, Note_on_c, 4, 76, 100
6, 15000, Note_on_c, 4, 76, 0
6, 26160, Note_on_c, 4, 62, 100
6, 26160, Note_on_c, 4, 74, 100
6, 26400, Note_on_c, 4, 74, 0
6, 26400, Note_on_c, 4, 62, 0
6, 26400, Note_on_c, 4, 57, 100
6, 26400, Note_on_c, 4, 69, 100
6, 26640, Note_on_c, 4, 69, 0
6, 26640, Note_on_c, 4, 57, 0
6, 26640, Note_on_c, 4, 62, 100
6, 26640, Note_on_c, 4, 74, 100
6, 26880, Note_on_c, 4, 74, 0
6, 26880, Note_on_c, 4, 62, 0
6, 26880, Note_on_c, 4, 57, 100
6, 26880, Note_on_c, 4, 69, 100
6, 27120, Note_on_c, 4, 69, 0
6, 27120, Note_on_c, 4, 57, 0
6, 27120, Note_on_c, 4, 62, 100
6, 27120, Note_on_c, 4, 74, 100
6, 27360, Note_on_c, 4, 74, 0
6, 27360, Note_on_c, 4, 62, 0
6, 27360, Note_on_c, 4, 57, 100
6, 27360, Note_on_c, 4, 69, 100
6, 27600, Note_on_c, 4, 69, 0
6, 27600, Note_on_c, 4, 57, 0
6, 27600, Note_on_c, 4, 62, 100
6, 27600, Note_on_c, 4, 74, 100
6, 27720, Note_on_c, 4, 74, 0
6, 27720, Note_on_c, 4, 62, 0
6, 32880, Note_on_c, 4, 57, 100
6, 32880, Note_on_c, 4, 69, 100
6, 33000, Note_on_c, 4, 69, 0
6, 33000, Note_on_c, 4, 57, 0
6, 33360, Note_on_c, 4, 57, 100
6, 33360, Note_on_c, 4, 69, 100
6, 33480, Note_on_c, 4, 69, 0
6, 33480, Note_on_c, 4, 57, 0
6, 33840, Note_on_c, 4, 57, 100
6, 33840, Note_on_c, 4, 69, 100
6, 33960, Note_on_c, 4, 69, 0
6, 33960, Note_on_c, 4, 57, 0
6, 34320, Note_on_c, 4, 57, 100
6, 34320, Note_on_c, 4, 69, 100
6, 34440, Note_on_c, 4, 69, 0
6, 34440, Note_on_c, 4, 57, 0
6, 34560, Note_on_c, 4, 57, 100
6, 34560, Note_on_c, 4, 69, 100
6, 34680, Note_on_c, 4, 69, 0
6, 34680, Note_on_c, 4, 57, 0
6, 34800, Note_on_c, 4, 57, 100
6, 34800, Note_on_c, 4, 69, 100
6, 34920, Note_on_c, 4, 69, 0
6, 34920, Note_on_c, 4, 57, 0
6, 35040, Note_on_c, 4, 57, 100
6, 35040, Note_on_c, 4, 69, 100
6, 35160, Note_on_c, 4, 69, 0
6, 35160, Note_on_c, 4, 57, 0
6, 35280, Note_on_c, 4, 57, 100
6, 35280, Note_on_c, 4, 69, 100
6, 35400, Note_on_c, 4, 69, 0
6, 35400, Note_on_c, 4, 57, 0
6, 35520, Note_on_c, 4, 69, 100
6, 35520, Note_on_c, 4, 57, 100
6, 35610, Note_on_c, 4, 57, 0
6, 35610, Note_on_c, 4, 69, 0
6, 35760, Note_on_c, 4, 57, 100
6, 35760, Note_on_c, 4, 69, 100
6, 35850, Note_on_c, 4, 69, 0
6, 35850, Note_on_c, 4, 57, 0
6, 35880, Note_on_c, 4, 57, 100
6, 35880, Note_on_c, 4, 69, 100
6, 35970, Note_on_c, 4, 69, 0
6, 35970, Note_on_c, 4, 57, 0
6, 36000, Note_on_c, 4, 57, 100
6, 36000, Note_on_c, 4, 69, 100
6, 36090, Note_on_c, 4, 69, 0
6, 36090, Note_on_c, 4, 57, 0
6, 36240, Note_on_c, 4, 57, 127
6, 36240, Note_on_c, 4, 69, 127
6, 37260, Note_on_c, 4, 69, 0
6, 37260, Note_on_c, 4, 57, 0
6, 38160, Note_on_c, 4, 74, 100
6, 38160, Note_on_c, 4, 76, 100
6, 39180, Note_on_c, 4, 76, 0
6, 39180, Note_on_c, 4, 74, 0
6, 40080, Note_on_c, 4, 66, 100
6, 40080, Note_on_c, 4, 78, 100
6, 41100, Note_on_c, 4, 78, 0
6, 41100, Note_on_c, 4, 66, 0
6, 43920, Note_on_c, 4, 74, 100
6, 43920, Note_on_c, 4, 62, 100
6, 44040, Note_on_c, 4, 62, 0
6, 44040, Note_on_c, 4, 74, 0
6, 44880, Note_on_c, 4, 62, 100
6, 44880, Note_on_c, 4, 74, 100
6, 45000, Note_on_c, 4, 74, 0
6, 45000, Note_on_c, 4, 62, 0
6, 45840, Note_on_c, 4, 76, 100
6, 45960, Note_on_c, 4, 76, 0
6, 46800, Note_on_c, 4, 76, 100
6, 46920, Note_on_c, 4, 76, 0
6, 47760, Note_on_c, 4, 66, 100
6, 47760, Note_on_c, 4, 78, 100
6, 47880, Note_on_c, 4, 78, 0
6, 47880, Note_on_c, 4, 66, 0
6, 54480, Note_on_c, 4, 62, 100
6, 54480, Note_on_c, 4, 74, 100
6, 55500, Note_on_c, 4, 74, 0
6, 55500, Note_on_c, 4, 62, 0
6, 56400, Note_on_c, 4, 57, 100
6, 56400, Note_on_c, 4, 69, 100
6, 57420, Note_on_c, 4, 69, 0
6, 57420, Note_on_c, 4, 57, 0
6, 58320, Note_on_c, 4, 62, 100
6, 58320, Note_on_c, 4, 74, 100
6, 58440, Note_on_c, 4, 74, 0
6, 58440, Note_on_c, 4, 62, 0
6, 58800, Note_on_c, 4, 62, 100
6, 58800, Note_on_c, 4, 74, 100
6, 58920, Note_on_c, 4, 74, 0
6, 58920, Note_on_c, 4, 62, 0
6, 59280, Note_on_c, 4, 62, 100
6, 59280, Note_on_c, 4, 74, 100
6, 59400, Note_on_c, 4, 74, 0
6, 59400, Note_on_c, 4, 62, 0
6, 59760, Note_on_c, 4, 62, 100
6, 59760, Note_on_c, 4, 74, 100
6, 59880, Note_on_c, 4, 74, 0
6, 59880, Note_on_c, 4, 62, 0
6, 60000, Note_on_c, 4, 62, 100
6, 60000, Note_on_c, 4, 74, 100
6, 60120, Note_on_c, 4, 74, 0
6, 60120, Note_on_c, 4, 62, 0
6, 60120, Note_on_c, 4, 62, 100
6, 60120, Note_on_c, 4, 74, 100
6, 60240, Note_on_c, 4, 74, 0
6, 60240, Note_on_c, 4, 62, 0
6, 60240, Note_on_c, 4, 57, 100
6, 60240, Note_on_c, 4, 69, 100
6, 60360, Note_on_c, 4, 69, 0
6, 60360, Note_on_c, 4, 57, 0
6, 60720, Note_on_c, 4, 57, 100
6, 60720, Note_on_c, 4, 69, 100
6, 60840, Note_on_c, 4, 69, 0
6, 60840, Note_on_c, 4, 57, 0
6, 61200, Note_on_c, 4, 57, 100
6, 61200, Note_on_c, 4, 69, 100
6, 61320, Note_on_c, 4, 69, 0
6, 61320, Note_on_c, 4, 57, 0
6, 61560, Note_on_c, 4, 62, 100
6, 61560, Note_on_c, 4, 69, 100
6, 61650, Note_on_c, 4, 69, 0
6, 61650, Note_on_c, 4, 62, 0
6, 61680, Note_on_c, 4, 57, 100
6, 61680, Note_on_c, 4, 69, 100
6, 61770, Note_on_c, 4, 57, 0
6, 61800, Note_on_c, 4, 69, 0
6, 62040, Note_on_c, 4, 62, 100
6, 62040, Note_on_c, 4, 69, 100
6, 62130, Note_on_c, 4, 69, 0
6, 62130, Note_on_c, 4, 62, 0
6, 62160, Note_on_c, 4, 57, 100
6, 62160, Note_on_c, 4, 69, 100
6, 62250, Note_on_c, 4, 57, 0
6, 62280, Note_on_c, 4, 69, 0
6, 73440, Note_on_c, 4, 62, 100
6, 73440, Note_on_c, 4, 74, 100
6, 73560, Note_on_c, 4, 74, 0
6, 73560, Note_on_c, 4, 62, 0
6, 73680, Note_on_c, 4, 74, 100
6, 73680, Note_on_c, 4, 62, 100
6, 73800, Note_on_c, 4, 62, 0
6, 73800, Note_on_c, 4, 74, 0
6, 73800, Note_on_c, 4, 62, 100
6, 73800, Note_on_c, 4, 74, 100
6, 73890, Note_on_c, 4, 74, 0
6, 73890, Note_on_c, 4, 62, 0
6, 73890, Note_on_c, 4, 62, 100
6, 73890, Note_on_c, 4, 74, 100
6, 73920, Note_on_c, 4, 74, 0
6, 73920, Note_on_c, 4, 62, 0
6, 73920, Note_on_c, 4, 62, 100
6, 73920, Note_on_c, 4, 74, 100
6, 74040, Note_on_c, 4, 74, 0
6, 74040, Note_on_c, 4, 62, 0
6, 74160, Note_on_c, 4, 74, 100
6, 74160, Note_on_c, 4, 62, 100
6, 74280, Note_on_c, 4, 62, 0
6, 74280, Note_on_c, 4, 74, 0
6, 74280, Note_on_c, 4, 74, 100
6, 74280, Note_on_c, 4, 62, 100
6, 74370, Note_on_c, 4, 62, 0
6, 74370, Note_on_c, 4, 74, 0
6, 74370, Note_on_c, 4, 74, 100
6, 74370, Note_on_c, 4, 62, 100
6, 74400, Note_on_c, 4, 62, 0
6, 74400, Note_on_c, 4, 74, 0
6, 74400, Note_on_c, 4, 62, 100
6, 74400, Note_on_c, 4, 74, 100
6, 74520, Note_on_c, 4, 74, 0
6, 74520, Note_on_c, 4, 62, 0
6, 74640, Note_on_c, 4, 74, 100
6, 74640, Note_on_c, 4, 62, 100
6, 74760, Note_on_c, 4, 62, 0
6, 74760, Note_on_c, 4, 74, 0
6, 74760, Note_on_c, 4, 62, 100
6, 74760, Note_on_c, 4, 74, 100
6, 74850, Note_on_c, 4, 74, 0
6, 74850, Note_on_c, 4, 62, 0
6, 74850, Note_on_c, 4, 62, 100
6, 74850, Note_on_c, 4, 74, 100
6, 74880, Note_on_c, 4, 74, 0
6, 74880, Note_on_c, 4, 62, 0
6, 74880, Note_on_c, 4, 62, 100
6, 74880, Note_on_c, 4, 74, 100
6, 75000, Note_on_c, 4, 74, 0
6, 75000, Note_on_c, 4, 62, 0
6, 75120, Note_on_c, 4, 74, 100
6, 75120, Note_on_c, 4, 62, 100
6, 75240, Note_on_c, 4, 62, 0
6, 75240, Note_on_c, 4, 74, 0
6, 75360, Note_on_c, 4, 69, 100
6, 75480, Note_on_c, 4, 69, 0
6, 75480, Note_on_c, 4, 62, 100
6, 75480, Note_on_c, 4, 74, 100
6, 75600, Note_on_c, 4, 74, 0
6, 75600, Note_on_c, 4, 62, 0
6, 75720, Note_on_c, 4, 69, 100
6, 75840, Note_on_c, 4, 69, 0
6, 75840, Note_on_c, 4, 66, 100
6, 75840, Note_on_c, 4, 69, 100
6, 75960, Note_on_c, 4, 69, 0
6, 75960, Note_on_c, 4, 66, 0
6, 76080, Note_on_c, 4, 76, 50
6, 76080, Note_on_c, 4, 69, 50
6, 76200, Note_on_c, 4, 69, 0
6, 76200, Note_on_c, 4, 76, 0
6, 76320, Note_on_c, 4, 78, 50
6, 76320, Note_on_c, 4, 74, 50
6, 76380, Note_on_c, 4, 74, 0
6, 76380, Note_on_c, 4, 78, 0
6, 76560, Note_on_c, 4, 69, 50
6, 76560, Note_on_c, 4, 76, 50
6, 76620, Note_on_c, 4, 76, 0
6, 76620, Note_on_c, 4, 69, 0
6, 76800, Note_on_c, 4, 78, 50
6, 76800, Note_on_c, 4, 74, 50
6, 76860, Note_on_c, 4, 74, 0
6, 76860, Note_on_c, 4, 78, 0
6, 77040, Note_on_c, 4, 69, 50
6, 77040, Note_on_c, 4, 76, 50
6, 77100, Note_on_c, 4, 76, 0
6, 77100, Note_on_c, 4, 69, 0
6, 77280, Note_on_c, 4, 74, 50
6, 77280, Note_on_c, 4, 78, 50
6, 77340, Note_on_c, 4, 78, 0
6, 77340, Note_on_c, 4, 74, 0
6, 78240, Note_on_c, 4, 62, 50
6, 78240, Note_on_c, 4, 74, 50
6, 78300, Note_on_c, 4, 74, 0
6, 78300, Note_on_c, 4, 62, 0
6, 78480, Note_on_c, 4, 62, 50
6, 78480, Note_on_c, 4, 74, 50
6, 78540, Note_on_c, 4, 74, 0
6, 78540, Note_on_c, 4, 62, 0
6, 78720, Note_on_c, 4, 57, 50
6, 78720, Note_on_c, 4, 69, 50
6, 78780, Note_on_c, 4, 69, 0
6, 78780, Note_on_c, 4, 57, 0
6, 78960, Note_on_c, 4, 57, 50
6, 78960, Note_on_c, 4, 69, 50
6, 79020, Note_on_c, 4, 69, 0
6, 79020, Note_on_c, 4, 57, 0
6, 79200, Note_on_c, 4, 62, 50
6, 79200, Note_on_c, 4, 74, 50
6, 79260, Note_on_c, 4, 74, 0
6, 79260, Note_on_c, 4, 62, 0
6, 79440, Note_on_c, 4, 62, 50
6, 79440, Note_on_c, 4, 74, 50
6, 79500, Note_on_c, 4, 74, 0
6, 79500, Note_on_c, 4, 62, 0
6, 79680, Note_on_c, 4, 57, 50
6, 79680, Note_on_c, 4, 69, 50
6, 79740, Note_on_c, 4, 69, 0
6, 79740, Note_on_c, 4, 57, 0
6, 79920, Note_on_c, 4, 57, 50
6, 79920, Note_on_c, 4, 69, 50
6, 79980, Note_on_c, 4, 69, 0
6, 79980, Note_on_c, 4, 57, 0
6, 80160, Note_on_c, 4, 62, 100
6, 80160, Note_on_c, 4, 74, 100
6, 80280, Note_on_c, 4, 74, 0
6, 80280, Note_on_c, 4, 62, 0
6, 80640, Note_on_c, 4, 74, 104
6, 80640, Note_on_c, 4, 62, 104
6, 80760, Note_on_c, 4, 62, 0
6, 80760, Note_on_c, 4, 74, 0
6, 81120, Note_on_c, 4, 62, 108
6, 81120, Note_on_c, 4, 74, 108
6, 81240, Note_on_c, 4, 74, 0
6, 81240, Note_on_c, 4, 62, 0
6, 81600, Note_on_c, 4, 62, 112
6, 81600, Note_on_c, 4, 74, 112
6, 81720, Note_on_c, 4, 74, 0
6, 81720, Note_on_c, 4, 62, 0
6, 82080, Note_on_c, 4, 62, 116
6, 82080, Note_on_c, 4, 74, 116
6, 82200, Note_on_c, 4, 74, 0
6, 82200, Note_on_c, 4, 62, 0
6, 82320, Note_on_c, 4, 62, 118
6, 82320, Note_on_c, 4, 74, 118
6, 82440, Note_on_c, 4, 74, 0
6, 82440, Note_on_c, 4, 62, 0
6, 82560, Note_on_c, 4, 62, 120
6, 82560, Note_on_c, 4, 74, 120
6, 82680, Note_on_c, 4, 74, 0
6, 82680, Note_on_c, 4, 62, 0
6, 82800, Note_on_c, 4, 62, 122
6, 82800, Note_on_c, 4, 74, 122
6, 82920, Note_on_c, 4, 74, 0
6, 82920, Note_on_c, 4, 62, 0
6, 82980, Note_on_c, 4, 62, 124
6, 83040, Note_on_c, 4, 62, 0
6, 83040, Note_on_c, 4, 69, 127
6, 83100, Note_on_c, 4, 69, 0
6, 83100, Note_on_c, 4, 66, 127
6, 83160, Note_on_c, 4, 66, 0
6, 83160, Note_on_c, 4, 62, 127
6, 83220, Note_on_c, 4, 62, 0
6, 83220, Note_on_c, 4, 57, 127
6, 83280, Note_on_c, 4, 57, 0
6, 83280, Note_on_c, 4, 62, 127
6, 83340, Note_on_c, 4, 62, 0
6, 83340, Note_on_c, 4, 57, 127
6, 83400, Note_on_c, 4, 57, 0
6, 83400, Note_on_c, 4, 62, 127
6, 83460, Note_on_c, 4, 62, 0
6, 83460, Note_on_c, 4, 57, 127
6, 83520, Note_on_c, 4, 57, 0
6, 83520, Note_on_c, 4, 62, 127
6, 83610, Note_on_c, 4, 62, 0
6, 83640, Note_on_c, 4, 66, 127
6, 83640, Note_on_c, 4, 62, 127
6, 83730, Note_on_c, 4, 62, 0
6, 83730, Note_on_c, 4, 66, 0
6, 83760, Note_on_c, 4, 66, 127
6, 83760, Note_on_c, 4, 62, 127
6, 83850, Note_on_c, 4, 62, 0
6, 83850, Note_on_c, 4, 66, 0
6, 83850, End_track
7, 0, Start_track
7, 0, MIDI_port, 0
7, 0, Title_t, "Timpani"
7, 0, Program_c, 5, 47
7, 0, Control_c, 5, 7, 127
7, 0, Control_c, 5, 10, 64
7, 2760, Note_on_c, 5, 45, 50
7, 2820, Note_on_c, 5, 45, 0
7, 2880, Note_on_c, 5, 50, 50
7, 2940, Note_on_c, 5, 50, 0
7, 3000, Note_on_c, 5, 45, 50
7, 3060, Note_on_c, 5, 45, 0
7, 3120, Note_on_c, 5, 50, 50
7, 3180, Note_on_c, 5, 50, 0
7, 3240, Note_on_c, 5, 45, 50
7, 3300, Note_on_c, 5, 45, 0
7, 3360, Note_on_c, 5, 50, 50
7, 3420, Note_on_c, 5, 50, 0
7, 3480, Note_on_c, 5, 45, 50
7, 3540, Note_on_c, 5, 45, 0
7, 3600, Note_on_c, 5, 50, 50
7, 3660, Note_on_c, 5, 50, 0
7, 3840, Note_on_c, 5, 50, 100
7, 3960, Note_on_c, 5, 50, 0
7, 4080, Note_on_c, 5, 50, 100
7, 4095, Note_on_c, 5, 50, 0
7, 4095, Note_on_c, 5, 50, 100
7, 4110, Note_on_c, 5, 50, 0
7, 4110, Note_on_c, 5, 50, 100
7, 4125, Note_on_c, 5, 50, 0
7, 4125, Note_on_c, 5, 50, 100
7, 4140, Note_on_c, 5, 50, 0
7, 4140, Note_on_c, 5, 50, 100
7, 4155, Note_on_c, 5, 50, 0
7, 4155, Note_on_c, 5, 50, 100
7, 4170, Note_on_c, 5, 50, 0
7, 4170, Note_on_c, 5, 50, 100
7, 4185, Note_on_c, 5, 50, 0
7, 4185, Note_on_c, 5, 50, 100
7, 4200, Note_on_c, 5, 50, 0
7, 4200, Note_on_c, 5, 50, 100
7, 4215, Note_on_c, 5, 50, 0
7, 4215, Note_on_c, 5, 50, 100
7, 4230, Note_on_c, 5, 50, 0
7, 4230, Note_on_c, 5, 50, 100
7, 4245, Note_on_c, 5, 50, 0
7, 4245, Note_on_c, 5, 50, 100
7, 4260, Note_on_c, 5, 50, 0
7, 4260, Note_on_c, 5, 50, 100
7, 4275, Note_on_c, 5, 50, 0
7, 4275, Note_on_c, 5, 50, 100
7, 4290, Note_on_c, 5, 50, 0
7, 4290, Note_on_c, 5, 50, 100
7, 4305, Note_on_c, 5, 50, 0
7, 4305, Note_on_c, 5, 50, 100
7, 4320, Note_on_c, 5, 50, 0
7, 4320, Note_on_c, 5, 50, 100
7, 4440, Note_on_c, 5, 50, 0
7, 4560, Note_on_c, 5, 50, 100
7, 4575, Note_on_c, 5, 50, 0
7, 4575, Note_on_c, 5, 50, 100
7, 4590, Note_on_c, 5, 50, 0
7, 4590, Note_on_c, 5, 50, 100
7, 4605, Note_on_c, 5, 50, 0
7, 4605, Note_on_c, 5, 50, 100
7, 4620, Note_on_c, 5, 50, 0
7, 4620, Note_on_c, 5, 50, 100
7, 4635, Note_on_c, 5, 50, 0
7, 4635, Note_on_c, 5, 50, 100
7, 4650, Note_on_c, 5, 50, 0
7, 4650, Note_on_c, 5, 50, 100
7, 4665, Note_on_c, 5, 50, 0
7, 4665, Note_on_c, 5, 50, 100
7, 4680, Note_on_c, 5, 50, 0
7, 4680, Note_on_c, 5, 50, 100
7, 4695, Note_on_c, 5, 50, 0
7, 4695, Note_on_c, 5, 50, 100
7, 4710, Note_on_c, 5, 50, 0
7, 4710, Note_on_c, 5, 50, 100
7, 4725, Note_on_c, 5, 50, 0
7, 4725, Note_on_c, 5, 50, 100
7, 4740, Note_on_c, 5, 50, 0
7, 4740, Note_on_c, 5, 50, 100
7, 4755, Note_on_c, 5, 50, 0
7, 4755, Note_on_c, 5, 50, 100
7, 4770, Note_on_c, 5, 50, 0
7, 4770, Note_on_c, 5, 50, 100
7, 4785, Note_on_c, 5, 50, 0
7, 4785, Note_on_c, 5, 50, 100
7, 4800, Note_on_c, 5, 50, 0
7, 4800, Note_on_c, 5, 50, 100
7, 4920, Note_on_c, 5, 50, 0
7, 5040, Note_on_c, 5, 50, 100
7, 5055, Note_on_c, 5, 50, 0
7, 5055, Note_on_c, 5, 50, 100
7, 5070, Note_on_c, 5, 50, 0
7, 5070, Note_on_c, 5, 50, 100
7, 5085, Note_on_c, 5, 50, 0
7, 5085, Note_on_c, 5, 50, 100
7, 5100, Note_on_c, 5, 50, 0
7, 5100, Note_on_c, 5, 50, 100
7, 5115, Note_on_c, 5, 50, 0
7, 5115, Note_on_c, 5, 50, 100
7, 5130, Note_on_c, 5, 50, 0
7, 5130, Note_on_c, 5, 50, 100
7, 5145, Note_on_c, 5, 50, 0
7, 5145, Note_on_c, 5, 50, 100
7, 5160, Note_on_c, 5, 50, 0
7, 5160, Note_on_c, 5, 50, 100
7, 5175, Note_on_c, 5, 50, 0
7, 5175, Note_on_c, 5, 50, 100
7, 5190, Note_on_c, 5, 50, 0
7, 5190, Note_on_c, 5, 50, 100
7, 5205, Note_on_c, 5, 50, 0
7, 5205, Note_on_c, 5, 50, 100
7, 5220, Note_on_c, 5, 50, 0
7, 5220, Note_on_c, 5, 50, 100
7, 5235, Note_on_c, 5, 50, 0
7, 5235, Note_on_c, 5, 50, 100
7, 5250, Note_on_c, 5, 50, 0
7, 5250, Note_on_c, 5, 50, 100
7, 5265, Note_on_c, 5, 50, 0
7, 5265, Note_on_c, 5, 50, 100
7, 5280, Note_on_c, 5, 50, 0
7, 5280, Note_on_c, 5, 50, 100
7, 5400, Note_on_c, 5, 50, 0
7, 5520, Note_on_c, 5, 50, 100
7, 5535, Note_on_c, 5, 50, 0
7, 5535, Note_on_c, 5, 50, 100
7, 5550, Note_on_c, 5, 50, 0
7, 5550, Note_on_c, 5, 50, 100
7, 5565, Note_on_c, 5, 50, 0
7, 5565, Note_on_c, 5, 50, 100
7, 5580, Note_on_c, 5, 50, 0
7, 5580, Note_on_c, 5, 50, 100
7, 5595, Note_on_c, 5, 50, 0
7, 5595, Note_on_c, 5, 50, 100
7, 5610, Note_on_c, 5, 50, 0
7, 5610, Note_on_c, 5, 50, 100
7, 5625, Note_on_c, 5, 50, 0
7, 5625, Note_on_c, 5, 50, 100
7, 5640, Note_on_c, 5, 50, 0
7, 5640, Note_on_c, 5, 50, 100
7, 5655, Note_on_c, 5, 50, 0
7, 5655, Note_on_c, 5, 50, 100
7, 5670, Note_on_c, 5, 50, 0
7, 5670, Note_on_c, 5, 50, 100
7, 5685, Note_on_c, 5, 50, 0
7, 5685, Note_on_c, 5, 50, 100
7, 5700, Note_on_c, 5, 50, 0
7, 5700, Note_on_c, 5, 50, 100
7, 5715, Note_on_c, 5, 50, 0
7, 5715, Note_on_c, 5, 50, 100
7, 5730, Note_on_c, 5, 50, 0
7, 5730, Note_on_c, 5, 50, 100
7, 5745, Note_on_c, 5, 50, 0
7, 5745, Note_on_c, 5, 50, 100
7, 5760, Note_on_c, 5, 50, 0
7, 5760, Note_on_c, 5, 50, 100
7, 5880, Note_on_c, 5, 50, 0
7, 5880, Note_on_c, 5, 45, 100
7, 6000, Note_on_c, 5, 45, 0
7, 6000, Note_on_c, 5, 50, 100
7, 6120, Note_on_c, 5, 50, 0
7, 6120, Note_on_c, 5, 50, 100
7, 6240, Note_on_c, 5, 50, 0
7, 6240, Note_on_c, 5, 45, 100
7, 6420, Note_on_c, 5, 45, 0
7, 6480, Note_on_c, 5, 45, 100
7, 6660, Note_on_c, 5, 45, 0
7, 6720, Note_on_c, 5, 45, 100
7, 6780, Note_on_c, 5, 45, 100
7, 6810, Note_on_c, 5, 45, 0
7, 6840, Note_on_c, 5, 45, 100
7, 6870, Note_on_c, 5, 45, 0
7, 6900, Note_on_c, 5, 45, 100
7, 6930, Note_on_c, 5, 45, 0
7, 6960, Note_on_c, 5, 45, 100
7, 6990, Note_on_c, 5, 45, 0
7, 7080, Note_on_c, 5, 45, 0
7, 11040, Note_on_c, 5, 45, 100
7, 11160, Note_on_c, 5, 45, 0
7, 11520, Note_on_c, 5, 45, 100
7, 11640, Note_on_c, 5, 45, 0
7, 12000, Note_on_c, 5, 45, 100
7, 12120, Note_on_c, 5, 45, 0
7, 12480, Note_on_c, 5, 45, 100
7, 12600, Note_on_c, 5, 45, 0
7, 26160, Note_on_c, 5, 50, 100
7, 26280, Note_on_c, 5, 50, 0
7, 26400, Note_on_c, 5, 45, 100
7, 26520, Note_on_c, 5, 45, 0
7, 26640, Note_on_c, 5, 50, 100
7, 26760, Note_on_c, 5, 50, 0
7, 26880, Note_on_c, 5, 45, 100
7, 27000, Note_on_c, 5, 45, 0
7, 27120, Note_on_c, 5, 50, 100
7, 27240, Note_on_c, 5, 50, 0
7, 27360, Note_on_c, 5, 45, 100
7, 27480, Note_on_c, 5, 45, 0
7, 27600, Note_on_c, 5, 50, 100
7, 27720, Note_on_c, 5, 50, 0
7, 32880, Note_on_c, 5, 45, 100
7, 33000, Note_on_c, 5, 45, 0
7, 33360, Note_on_c, 5, 45, 104
7, 33480, Note_on_c, 5, 45, 0
7, 33840, Note_on_c, 5, 45, 109
7, 33960, Note_on_c, 5, 45, 0
7, 34320, Note_on_c, 5, 45, 113
7, 34440, Note_on_c, 5, 45, 0
7, 34560, Note_on_c, 5, 45, 115
7, 34680, Note_on_c, 5, 45, 0
7, 34800, Note_on_c, 5, 45, 118
7, 34920, Note_on_c, 5, 45, 0
7, 35040, Note_on_c, 5, 45, 120
7, 35160, Note_on_c, 5, 45, 0
7, 35280, Note_on_c, 5, 45, 122
7, 35400, Note_on_c, 5, 45, 0
7, 35520, Note_on_c, 5, 45, 124
7, 35640, Note_on_c, 5, 45, 0
7, 35760, Note_on_c, 5, 45, 127
7, 35880, Note_on_c, 5, 45, 0
7, 35880, Note_on_c, 5, 45, 127
7, 36000, Note_on_c, 5, 45, 0
7, 36000, Note_on_c, 5, 45, 127
7, 36120, Note_on_c, 5, 45, 0
7, 36240, Note_on_c, 5, 45, 127
7, 36420, Note_on_c, 5, 45, 0
7, 36420, Note_on_c, 5, 45, 127
7, 36450, Note_on_c, 5, 45, 0
7, 36450, Note_on_c, 5, 45, 127
7, 36480, Note_on_c, 5, 45, 0
7, 36480, Note_on_c, 5, 45, 127
7, 36600, Note_on_c, 5, 45, 0
7, 36600, Note_on_c, 5, 45, 127
7, 36720, Note_on_c, 5, 45, 0
7, 36720, Note_on_c, 5, 45, 127
7, 36840, Note_on_c, 5, 45, 0
7, 36960, Note_on_c, 5, 45, 127
7, 37080, Note_on_c, 5, 45, 0
7, 38160, Note_on_c, 5, 50, 100
7, 38340, Note_on_c, 5, 50, 0
7, 38340, Note_on_c, 5, 50, 100
7, 38370, Note_on_c, 5, 50, 0
7, 38370, Note_on_c, 5, 50, 100
7, 38400, Note_on_c, 5, 50, 0
7, 38400, Note_on_c, 5, 50, 100
7, 38520, Note_on_c, 5, 50, 0
7, 38520, Note_on_c, 5, 50, 100
7, 38640, Note_on_c, 5, 50, 0
7, 38640, Note_on_c, 5, 50, 100
7, 38760, Note_on_c, 5, 50, 0
7, 38880, Note_on_c, 5, 50, 100
7, 39000, Note_on_c, 5, 50, 0
7, 43920, Note_on_c, 5, 50, 100
7, 44040, Note_on_c, 5, 50, 0
7, 44880, Note_on_c, 5, 50, 100
7, 45000, Note_on_c, 5, 50, 0
7, 54480, Note_on_c, 5, 50, 100
7, 54660, Note_on_c, 5, 50, 0
7, 54660, Note_on_c, 5, 50, 100
7, 54690, Note_on_c, 5, 50, 0
7, 54690, Note_on_c, 5, 50, 100
7, 54720, Note_on_c, 5, 50, 0
7, 54720, Note_on_c, 5, 50, 100
7, 54840, Note_on_c, 5, 50, 0
7, 54840, Note_on_c, 5, 50, 100
7, 54960, Note_on_c, 5, 50, 0
7, 54960, Note_on_c, 5, 50, 100
7, 55080, Note_on_c, 5, 50, 0
7, 55200, Note_on_c, 5, 50, 100
7, 55320, Note_on_c, 5, 50, 0
7, 56400, Note_on_c, 5, 45, 100
7, 56580, Note_on_c, 5, 45, 0
7, 56580, Note_on_c, 5, 45, 100
7, 56610, Note_on_c, 5, 45, 0
7, 56610, Note_on_c, 5, 45, 100
7, 56640, Note_on_c, 5, 45, 0
7, 56640, Note_on_c, 5, 45, 100
7, 56760, Note_on_c, 5, 45, 0
7, 56760, Note_on_c, 5, 45, 100
7, 56880, Note_on_c, 5, 45, 0
7, 56880, Note_on_c, 5, 45, 100
7, 57000, Note_on_c, 5, 45, 0
7, 57120, Note_on_c, 5, 45, 100
7, 57240, Note_on_c, 5, 45, 0
7, 58320, Note_on_c, 5, 50, 100
7, 58440, Note_on_c, 5, 50, 0
7, 58800, Note_on_c, 5, 50, 100
7, 58920, Note_on_c, 5, 50, 0
7, 59280, Note_on_c, 5, 50, 100
7, 59400, Note_on_c, 5, 50, 0
7, 59760, Note_on_c, 5, 50, 100
7, 59880, Note_on_c, 5, 50, 0
7, 60000, Note_on_c, 5, 50, 100
7, 60120, Note_on_c, 5, 50, 0
7, 60120, Note_on_c, 5, 50, 100
7, 60240, Note_on_c, 5, 50, 0
7, 60240, Note_on_c, 5, 45, 100
7, 60360, Note_on_c, 5, 45, 0
7, 60720, Note_on_c, 5, 45, 100
7, 60840, Note_on_c, 5, 45, 0
7, 61200, Note_on_c, 5, 45, 100
7, 61320, Note_on_c, 5, 45, 0
7, 61560, Note_on_c, 5, 50, 100
7, 61680, Note_on_c, 5, 50, 0
7, 61680, Note_on_c, 5, 45, 100
7, 61800, Note_on_c, 5, 45, 0
7, 62040, Note_on_c, 5, 50, 100
7, 62160, Note_on_c, 5, 50, 0
7, 62160, Note_on_c, 5, 45, 100
7, 62280, Note_on_c, 5, 45, 0
7, 73440, Note_on_c, 5, 50, 100
7, 73560, Note_on_c, 5, 50, 0
7, 73680, Note_on_c, 5, 50, 100
7, 73800, Note_on_c, 5, 50, 0
7, 73800, Note_on_c, 5, 50, 100
7, 73890, Note_on_c, 5, 50, 0
7, 73890, Note_on_c, 5, 50, 100
7, 73920, Note_on_c, 5, 50, 0
7, 73920, Note_on_c, 5, 50, 100
7, 74040, Note_on_c, 5, 50, 0
7, 74160, Note_on_c, 5, 50, 100
7, 74280, Note_on_c, 5, 50, 0
7, 74280, Note_on_c, 5, 50, 100
7, 74370, Note_on_c, 5, 50, 0
7, 74370, Note_on_c, 5, 50, 100
7, 74400, Note_on_c, 5, 50, 0
7, 74400, Note_on_c, 5, 50, 100
7, 74520, Note_on_c, 5, 50, 0
7, 74640, Note_on_c, 5, 50, 100
7, 74760, Note_on_c, 5, 50, 0
7, 74880, Note_on_c, 5, 50, 100
7, 75000, Note_on_c, 5, 50, 0
7, 75120, Note_on_c, 5, 50, 100
7, 75240, Note_on_c, 5, 50, 0
7, 75360, Note_on_c, 5, 45, 100
7, 75480, Note_on_c, 5, 45, 0
7, 75480, Note_on_c, 5, 50, 100
7, 75600, Note_on_c, 5, 50, 0
7, 75720, Note_on_c, 5, 45, 100
7, 75840, Note_on_c, 5, 45, 0
7, 75840, Note_on_c, 5, 50, 100
7, 75960, Note_on_c, 5, 50, 0
7, 76080, Note_on_c, 5, 45, 50
7, 76140, Note_on_c, 5, 45, 0
7, 76320, Note_on_c, 5, 50, 50
7, 76380, Note_on_c, 5, 50, 0
7, 76560, Note_on_c, 5, 45, 50
7, 76620, Note_on_c, 5, 45, 0
7, 76800, Note_on_c, 5, 50, 50
7, 76860, Note_on_c, 5, 50, 0
7, 78240, Note_on_c, 5, 50, 50
7, 78300, Note_on_c, 5, 50, 0
7, 78480, Note_on_c, 5, 50, 50
7, 78540, Note_on_c, 5, 50, 0
7, 78720, Note_on_c, 5, 45, 50
7, 78780, Note_on_c, 5, 45, 0
7, 78960, Note_on_c, 5, 45, 50
7, 79020, Note_on_c, 5, 45, 0
7, 79200, Note_on_c, 5, 50, 50
7, 79260, Note_on_c, 5, 50, 0
7, 79440, Note_on_c, 5, 50, 50
7, 79500, Note_on_c, 5, 50, 0
7, 79680, Note_on_c, 5, 45, 50
7, 79740, Note_on_c, 5, 45, 0
7, 79920, Note_on_c, 5, 45, 50
7, 79980, Note_on_c, 5, 45, 0
7, 80160, Note_on_c, 5, 50, 100
7, 80280, Note_on_c, 5, 50, 0
7, 80640, Note_on_c, 5, 50, 104
7, 80760, Note_on_c, 5, 50, 0
7, 81120, Note_on_c, 5, 50, 108
7, 81240, Note_on_c, 5, 50, 0
7, 81600, Note_on_c, 5, 50, 112
7, 81720, Note_on_c, 5, 50, 0
7, 82080, Note_on_c, 5, 50, 116
7, 82200, Note_on_c, 5, 50, 0
7, 82320, Note_on_c, 5, 50, 118
7, 82440, Note_on_c, 5, 50, 0
7, 82560, Note_on_c, 5, 50, 120
7, 82680, Note_on_c, 5, 50, 0
7, 82800, Note_on_c, 5, 50, 122
7, 82920, Note_on_c, 5, 50, 0
7, 83040, Note_on_c, 5, 50, 127
7, 83160, Note_on_c, 5, 50, 0
7, 83280, Note_on_c, 5, 50, 127
7, 83400, Note_on_c, 5, 50, 0
7, 83400, Note_on_c, 5, 50, 127
7, 83520, Note_on_c, 5, 50, 0
7, 83520, Note_on_c, 5, 50, 127
7, 83640, Note_on_c, 5, 50, 0
7, 83640, Note_on_c, 5, 50, 127
7, 83760, Note_on_c, 5, 50, 0
7, 83760, Note_on_c, 5, 50, 127
7, 83880, Note_on_c, 5, 50, 0
7, 83880, End_track
8, 0, Start_track
8, 0, MIDI_port, 0
8, 0, Title_t, "Violini I."
8, 0, Program_c, 6, 48
8, 0, Control_c, 6, 7, 127
8, 0, Control_c, 6, 10, 25
8, 60, Note_on_c, 6, 74, 50
8, 90, Note_on_c, 6, 74, 0
8, 120, Note_on_c, 6, 78, 50
8, 150, Note_on_c, 6, 78, 0
8, 180, Note_on_c, 6, 74, 50
8, 210, Note_on_c, 6, 74, 0
8, 240, Note_on_c, 6, 81, 50
8, 540, Note_on_c, 6, 81, 0
8, 540, Note_on_c, 6, 79, 50
8, 660, Note_on_c, 6, 79, 0
8, 660, Note_on_c, 6, 78, 50
8, 780, Note_on_c, 6, 78, 0
8, 780, Note_on_c, 6, 76, 50
8, 900, Note_on_c, 6, 76, 0
8, 900, Note_on_c, 6, 74, 50
8, 960, Note_on_c, 6, 74, 0
8, 960, Note_on_c, 6, 78, 50
8, 1020, Note_on_c, 6, 78, 0
8, 1020, Note_on_c, 6, 76, 50
8, 1050, Note_on_c, 6, 76, 0
8, 1140, Note_on_c, 6, 75, 50
8, 1200, Note_on_c, 6, 75, 0
8, 1200, Note_on_c, 6, 78, 50
8, 1260, Note_on_c, 6, 78, 0
8, 1260, Note_on_c, 6, 76, 50
8, 1290, Note_on_c, 6, 76, 0
8, 1380, Note_on_c, 6, 75, 50
8, 1440, Note_on_c, 6, 75, 0
8, 1440, Note_on_c, 6, 78, 50
8, 1500, Note_on_c, 6, 78, 0
8, 1500, Note_on_c, 6, 76, 50
8, 1530, Note_on_c, 6, 76, 0
8, 1560, Note_on_c, 6, 76, 50
8, 1590, Note_on_c, 6, 76, 0
8, 1620, Note_on_c, 6, 75, 50
8, 1650, Note_on_c, 6, 75, 0
8, 1680, Note_on_c, 6, 78, 50
8, 1740, Note_on_c, 6, 78, 0
8, 1740, Note_on_c, 6, 76, 50
8, 1770, Note_on_c, 6, 76, 0
8, 1800, Note_on_c, 6, 76, 50
8, 1830, Note_on_c, 6, 76, 0
8, 1860, Note_on_c, 6, 76, 50
8, 1890, Note_on_c, 6, 76, 0
8, 1980, Note_on_c, 6, 71, 50
8, 2010, Note_on_c, 6, 71, 0
8, 2040, Note_on_c, 6, 76, 50
8, 2070, Note_on_c, 6, 76, 0
8, 2100, Note_on_c, 6, 71, 50
8, 2130, Note_on_c, 6, 71, 0
8, 2160, Note_on_c, 6, 79, 50
8, 2460, Note_on_c, 6, 79, 0
8, 2460, Note_on_c, 6, 78, 50
8, 2580, Note_on_c, 6, 78, 0
8, 2580, Note_on_c, 6, 76, 50
8, 2700, Note_on_c, 6, 76, 0
8, 2700, Note_on_c, 6, 74, 50
8, 2820, Note_on_c, 6, 74, 0
8, 2820, Note_on_c, 6, 73, 50
8, 2880, Note_on_c, 6, 73, 0
8, 2880, Note_on_c, 6, 76, 50
8, 2940, Note_on_c, 6, 76, 0
8, 2940, Note_on_c, 6, 74, 50
8, 2970, Note_on_c, 6, 74, 0
8, 3060, Note_on_c, 6, 73, 50
8, 3120, Note_on_c, 6, 73, 0
8, 3120, Note_on_c, 6, 76, 50
8, 3180, Note_on_c, 6, 76, 0
8, 3180, Note_on_c, 6, 74, 50
8, 3210, Note_on_c, 6, 74, 0
8, 3300, Note_on_c, 6, 73, 50
8, 3360, Note_on_c, 6, 73, 0
8, 3360, Note_on_c, 6, 76, 50
8, 3420, Note_on_c, 6, 76, 0
8, 3420, Note_on_c, 6, 74, 50
8, 3450, Note_on_c, 6, 74, 0
8, 3480, Note_on_c, 6, 74, 50
8, 3510, Note_on_c, 6, 74, 0
8, 3540, Note_on_c, 6, 74, 50
8, 3570, Note_on_c, 6, 74, 0
8, 3600, Note_on_c, 6, 76, 50
8, 3660, Note_on_c, 6, 76, 0
8, 3660, Note_on_c, 6, 74, 50
8, 3690, Note_on_c, 6, 74, 0
8, 3720, Note_on_c, 6, 74, 50
8, 3750, Note_on_c, 6, 74, 0
8, 3780, Note_on_c, 6, 74, 50
8, 3810, Note_on_c, 6, 74, 0
8, 3900, Note_on_c, 6, 74, 100
8, 3930, Note_on_c, 6, 74, 0
8, 3960, Note_on_c, 6, 78, 100
8, 3990, Note_on_c, 6, 78, 0
8, 4020, Note_on_c, 6, 74, 100
8, 4050, Note_on_c, 6, 74, 0
8, 4080, Note_on_c, 6, 83, 100
8, 4320, Note_on_c, 6, 83, 0
8, 4320, Note_on_c, 6, 81, 110
8, 4370, Note_on_c, 6, 81, 0
8, 4380, Note_on_c, 6, 74, 100
8, 4410, Note_on_c, 6, 74, 0
8, 4440, Note_on_c, 6, 78, 100
8, 4470, Note_on_c, 6, 78, 0
8, 4500, Note_on_c, 6, 74, 100
8, 4530, Note_on_c, 6, 74, 0
8, 4560, Note_on_c, 6, 85, 100
8, 4800, Note_on_c, 6, 85, 0
8, 4800, Note_on_c, 6, 86, 110
8, 4850, Note_on_c, 6, 86, 0
8, 4860, Note_on_c, 6, 74, 100
8, 4890, Note_on_c, 6, 74, 0
8, 4920, Note_on_c, 6, 78, 100
8, 4950, Note_on_c, 6, 78, 0
8, 4980, Note_on_c, 6, 74, 100
8, 5010, Note_on_c, 6, 74, 0
8, 5040, Note_on_c, 6, 83, 100
8, 5280, Note_on_c, 6, 83, 0
8, 5280, Note_on_c, 6, 81, 110
8, 5330, Note_on_c, 6, 81, 0
8, 5340, Note_on_c, 6, 74, 100
8, 5370, Note_on_c, 6, 74, 0
8, 5400, Note_on_c, 6, 78, 100
8, 5430, Note_on_c, 6, 78, 0
8, 5460, Note_on_c, 6, 74, 100
8, 5490, Note_on_c, 6, 74, 0
8, 5520, Note_on_c, 6, 85, 100
8, 5760, Note_on_c, 6, 85, 0
8, 5760, Note_on_c, 6, 86, 110
8, 5810, Note_on_c, 6, 86, 0
8, 5820, Note_on_c, 6, 74, 100
8, 5880, Note_on_c, 6, 74, 0
8, 5880, Note_on_c, 6, 81, 100
8, 5940, Note_on_c, 6, 81, 0
8, 5940, Note_on_c, 6, 69, 100
8, 6000, Note_on_c, 6, 69, 0
8, 6000, Note_on_c, 6, 78, 100
8, 6060, Note_on_c, 6, 78, 0
8, 6060, Note_on_c, 6, 66, 100
8, 6120, Note_on_c, 6, 66, 0
8, 6120, Note_on_c, 6, 74, 100
8, 6180, Note_on_c, 6, 74, 0
8, 6180, Note_on_c, 6, 62, 100
8, 6240, Note_on_c, 6, 62, 0
8, 6240, Note_on_c, 6, 69, 100
8, 6285, Note_on_c, 6, 69, 0
8, 6300, Note_on_c, 6, 85, 100
8, 6345, Note_on_c, 6, 85, 0
8, 6360, Note_on_c, 6, 86, 100
8, 6405, Note_on_c, 6, 86, 0
8, 6420, Note_on_c, 6, 83, 100
8, 6465, Note_on_c, 6, 83, 0
8, 6480, Note_on_c, 6, 76, 100
8, 6525, Note_on_c, 6, 76, 0
8, 6540, Note_on_c, 6, 85, 100
8, 6585, Note_on_c, 6, 85, 0
8, 6600, Note_on_c, 6, 86, 100
8, 6645, Note_on_c, 6, 86, 0
8, 6660, Note_on_c, 6, 78, 100
8, 6705, Note_on_c, 6, 78, 0
8, 6720, Note_on_c, 6, 76, 100
8, 6765, Note_on_c, 6, 76, 0
8, 6780, Note_on_c, 6, 69, 100
8, 6780, Note_on_c, 6, 81, 100
8, 6825, Note_on_c, 6, 81, 0
8, 6825, Note_on_c, 6, 69, 0
8, 6840, Note_on_c, 6, 69, 100
8, 6840, Note_on_c, 6, 81, 100
8, 6885, Note_on_c, 6, 81, 0
8, 6885, Note_on_c, 6, 69, 0
8, 6900, Note_on_c, 6, 69, 100
8, 6900, Note_on_c, 6, 81, 100
8, 6945, Note_on_c, 6, 81, 0
8, 6945, Note_on_c, 6, 69, 0
8, 6960, Note_on_c, 6, 69, 100
8, 6960, Note_on_c, 6, 81, 100
8, 7080, Note_on_c, 6, 81, 0
8, 7080, Note_on_c, 6, 69, 0
8, 11100, Note_on_c, 6, 69, 100
8, 11130, Note_on_c, 6, 69, 0
8, 11160, Note_on_c, 6, 72, 100
8, 11190, Note_on_c, 6, 72, 0
8, 11220, Note_on_c, 6, 69, 100
8, 11250, Note_on_c, 6, 69, 0
8, 11280, Note_on_c, 6, 81, 100
8, 11580, Note_on_c, 6, 81, 0
8, 11580, Note_on_c, 6, 69, 100
8, 11610, Note_on_c, 6, 69, 0
8, 11640, Note_on_c, 6, 72, 100
8, 11670, Note_on_c, 6, 72, 0
8, 11700, Note_on_c, 6, 69, 100
8, 11730, Note_on_c, 6, 69, 0
8, 11760, Note_on_c, 6, 81, 100
8, 12060, Note_on_c, 6, 81, 0
8, 12060, Note_on_c, 6, 69, 100
8, 12090, Note_on_c, 6, 69, 0
8, 12120, Note_on_c, 6, 72, 100
8, 12150, Note_on_c, 6, 72, 0
8, 12180, Note_on_c, 6, 69, 100
8, 12210, Note_on_c, 6, 69, 0
8, 12240, Note_on_c, 6, 81, 100
8, 12540, Note_on_c, 6, 81, 0
8, 12540, Note_on_c, 6, 69, 100
8, 12570, Note_on_c, 6, 69, 0
8, 12600, Note_on_c, 6, 72, 100
8, 12630, Note_on_c, 6, 72, 0
8, 12660, Note_on_c, 6, 69, 100
8, 12690, Note_on_c, 6, 69, 0
8, 12720, Note_on_c, 6, 84, 100
8, 12900, Note_on_c, 6, 84, 0
8, 12900, Note_on_c, 6, 81, 100
8, 12960, Note_on_c, 6, 81, 0
8, 12960, Note_on_c, 6, 80, 100
8, 13020, Note_on_c, 6, 80, 0
8, 13020, Note_on_c, 6, 83, 100
8, 13080, Note_on_c, 6, 83, 0
8, 13080, Note_on_c, 6, 76, 100
8, 13140, Note_on_c, 6, 76, 0
8, 13140, Note_on_c, 6, 80, 100
8, 13200, Note_on_c, 6, 80, 0
8, 13200, Note_on_c, 6, 81, 100
8, 13260, Note_on_c, 6, 81, 0
8, 13260, Note_on_c, 6, 76, 100
8, 13320, Note_on_c, 6, 76, 0
8, 13320, Note_on_c, 6, 84, 100
8, 13380, Note_on_c, 6, 84, 0
8, 13380, Note_on_c, 6, 81, 100
8, 13440, Note_on_c, 6, 81, 0
8, 13440, Note_on_c, 6, 80, 100
8, 13500, Note_on_c, 6, 80, 0
8, 13500, Note_on_c, 6, 83, 100
8, 13560, Note_on_c, 6, 83, 0
8, 13560, Note_on_c, 6, 76, 100
8, 13620, Note_on_c, 6, 76, 0
8, 13620, Note_on_c, 6, 80, 100
8, 13680, Note_on_c, 6, 80, 0
8, 13680, Note_on_c, 6, 81, 100
8, 13740, Note_on_c, 6, 81, 0
8, 13740, Note_on_c, 6, 76, 100
8, 13800, Note_on_c, 6, 76, 0
8, 13800, Note_on_c, 6, 84, 100
8, 13860, Note_on_c, 6, 84, 0
8, 13860, Note_on_c, 6, 81, 100
8, 13920, Note_on_c, 6, 81, 0
8, 13920, Note_on_c, 6, 80, 100
8, 13950, Note_on_c, 6, 80, 0
8, 13980, Note_on_c, 6, 83, 100
8, 14010, Note_on_c, 6, 83, 0
8, 14040, Note_on_c, 6, 76, 100
8, 14070, Note_on_c, 6, 76, 0
8, 14100, Note_on_c, 6, 74, 100
8, 14130, Note_on_c, 6, 74, 0
8, 14160, Note_on_c, 6, 72, 100
8, 14220, Note_on_c, 6, 72, 0
8, 14220, Note_on_c, 6, 76, 100
8, 14280, Note_on_c, 6, 76, 0
8, 14280, Note_on_c, 6, 72, 100
8, 14340, Note_on_c, 6, 72, 0
8, 14340, Note_on_c, 6, 69, 100
8, 14400, Note_on_c, 6, 69, 0
8, 14400, Note_on_c, 6, 68, 100
8, 14460, Note_on_c, 6, 68, 0
8, 14460, Note_on_c, 6, 71, 100
8, 14520, Note_on_c, 6, 71, 0
8, 14520, Note_on_c, 6, 64, 100
8, 14580, Note_on_c, 6, 64, 0
8, 14580, Note_on_c, 6, 62, 100
8, 14640, Note_on_c, 6, 62, 0
8, 14640, Note_on_c, 6, 60, 100
8, 14700, Note_on_c, 6, 60, 0
8, 14700, Note_on_c, 6, 64, 100
8, 14760, Note_on_c, 6, 64, 0
8, 14760, Note_on_c, 6, 60, 100
8, 14820, Note_on_c, 6, 60, 0
8, 14820, Note_on_c, 6, 57, 100
8, 14880, Note_on_c, 6, 57, 0
8, 14880, Note_on_c, 6, 64, 100
8, 14940, Note_on_c, 6, 64, 0
8, 14940, Note_on_c, 6, 76, 50
8, 14980, Note_on_c, 6, 76, 0
8, 15000, Note_on_c, 6, 76, 50
8, 15040, Note_on_c, 6, 76, 0
8, 15060, Note_on_c, 6, 76, 50
8, 15100, Note_on_c, 6, 76, 0
8, 15120, Note_on_c, 6, 76, 50
8, 15160, Note_on_c, 6, 76, 0
8, 15180, Note_on_c, 6, 76, 50
8, 15220, Note_on_c, 6, 76, 0
8, 15240, Note_on_c, 6, 76, 50
8, 15280, Note_on_c, 6, 76, 0
8, 15300, Note_on_c, 6, 76, 50
8, 15340, Note_on_c, 6, 76, 0
8, 15360, Note_on_c, 6, 76, 50
8, 15420, Note_on_c, 6, 76, 0
8, 15420, Note_on_c, 6, 77, 50
8, 15480, Note_on_c, 6, 77, 0
8, 15480, Note_on_c, 6, 78, 50
8, 15540, Note_on_c, 6, 78, 0
8, 15540, Note_on_c, 6, 74, 50
8, 15600, Note_on_c, 6, 74, 0
8, 15600, Note_on_c, 6, 73, 50
8, 15780, Note_on_c, 6, 73, 0
8, 15780, Note_on_c, 6, 74, 50
8, 15840, Note_on_c, 6, 74, 0
8, 15840, Note_on_c, 6, 74, 50
8, 15900, Note_on_c, 6, 74, 0
8, 15900, Note_on_c, 6, 73, 50
8, 15930, Note_on_c, 6, 73, 0
8, 15960, Note_on_c, 6, 73, 50
8, 15990, Note_on_c, 6, 73, 0
8, 16020, Note_on_c, 6, 73, 50
8, 16050, Note_on_c, 6, 73, 0
8, 16080, Note_on_c, 6, 73, 50
8, 16140, Note_on_c, 6, 73, 0
8, 16140, Note_on_c, 6, 71, 50
8, 16170, Note_on_c, 6, 71, 0
8, 16200, Note_on_c, 6, 71, 50
8, 16230, Note_on_c, 6, 71, 0
8, 16260, Note_on_c, 6, 71, 50
8, 16290, Note_on_c, 6, 71, 0
8, 16320, Note_on_c, 6, 71, 50
8, 16380, Note_on_c, 6, 71, 0
8, 16380, Note_on_c, 6, 69, 50
8, 16410, Note_on_c, 6, 69, 0
8, 16440, Note_on_c, 6, 69, 50
8, 16470, Note_on_c, 6, 69, 0
8, 16500, Note_on_c, 6, 69, 50
8, 16530, Note_on_c, 6, 69, 0
8, 16560, Note_on_c, 6, 76, 50
8, 16740, Note_on_c, 6, 76, 0
8, 16740, Note_on_c, 6, 78, 50
8, 16800, Note_on_c, 6, 78, 0
8, 16800, Note_on_c, 6, 78, 50
8, 16860, Note_on_c, 6, 78, 0
8, 16860, Note_on_c, 6, 76, 50
8, 16890, Note_on_c, 6, 76, 0
8, 16920, Note_on_c, 6, 76, 50
8, 16950, Note_on_c, 6, 76, 0
8, 16980, Note_on_c, 6, 76, 50
8, 17010, Note_on_c, 6, 76, 0
8, 17040, Note_on_c, 6, 76, 50
8, 17100, Note_on_c, 6, 76, 0
8, 17100, Note_on_c, 6, 74, 50
8, 17130, Note_on_c, 6, 74, 0
8, 17160, Note_on_c, 6, 74, 50
8, 17190, Note_on_c, 6, 74, 0
8, 17220, Note_on_c, 6, 74, 50
8, 17250, Note_on_c, 6, 74, 0
8, 17280, Note_on_c, 6, 74, 50
8, 17340, Note_on_c, 6, 74, 0
8, 17340, Note_on_c, 6, 73, 50
8, 17370, Note_on_c, 6, 73, 0
8, 17400, Note_on_c, 6, 73, 50
8, 17430, Note_on_c, 6, 73, 0
8, 17460, Note_on_c, 6, 73, 50
8, 17490, Note_on_c, 6, 73, 0
8, 18600, Note_on_c, 6, 81, 50
8, 18690, Note_on_c, 6, 81, 0
8, 18690, Note_on_c, 6, 80, 50
8, 18720, Note_on_c, 6, 80, 0
8, 18720, Note_on_c, 6, 78, 50
8, 18780, Note_on_c, 6, 78, 0
8, 18840, Note_on_c, 6, 78, 50
8, 18930, Note_on_c, 6, 78, 0
8, 18930, Note_on_c, 6, 76, 50
8, 18960, Note_on_c, 6, 76, 0
8, 18960, Note_on_c, 6, 74, 50
8, 19020, Note_on_c, 6, 74, 0
8, 19080, Note_on_c, 6, 73, 50
8, 19140, Note_on_c, 6, 73, 0
8, 19200, Note_on_c, 6, 71, 50
8, 19260, Note_on_c, 6, 71, 0
8, 19260, Note_on_c, 6, 76, 50
8, 19320, Note_on_c, 6, 76, 0
8, 19320, Note_on_c, 6, 75, 50
8, 19380, Note_on_c, 6, 75, 0
8, 19380, Note_on_c, 6, 74, 50
8, 19440, Note_on_c, 6, 74, 0
8, 19440, Note_on_c, 6, 73, 50
8, 19620, Note_on_c, 6, 73, 0
8, 19620, Note_on_c, 6, 74, 50
8, 19680, Note_on_c, 6, 74, 0
8, 19680, Note_on_c, 6, 74, 50
8, 19740, Note_on_c, 6, 74, 0
8, 19740, Note_on_c, 6, 73, 50
8, 19770, Note_on_c, 6, 73, 0
8, 19800, Note_on_c, 6, 73, 50
8, 19830, Note_on_c, 6, 73, 0
8, 19860, Note_on_c, 6, 73, 50
8, 19890, Note_on_c, 6, 73, 0
8, 19920, Note_on_c, 6, 73, 50
8, 19980, Note_on_c, 6, 73, 0
8, 19980, Note_on_c, 6, 71, 50
8, 20010, Note_on_c, 6, 71, 0
8, 20040, Note_on_c, 6, 71, 50
8, 20070, Note_on_c, 6, 71, 0
8, 20100, Note_on_c, 6, 71, 50
8, 20130, Note_on_c, 6, 71, 0
8, 20160, Note_on_c, 6, 71, 50
8, 20220, Note_on_c, 6, 71, 0
8, 20220, Note_on_c, 6, 69, 50
8, 20250, Note_on_c, 6, 69, 0
8, 20280, Note_on_c, 6, 69, 50
8, 20310, Note_on_c, 6, 69, 0
8, 20340, Note_on_c, 6, 69, 50
8, 20370, Note_on_c, 6, 69, 0
8, 20400, Note_on_c, 6, 76, 50
8, 20580, Note_on_c, 6, 76, 0
8, 20580, Note_on_c, 6, 78, 50
8, 20640, Note_on_c, 6, 78, 0
8, 20640, Note_on_c, 6, 78, 50
8, 20700, Note_on_c, 6, 78, 0
8, 20700, Note_on_c, 6, 76, 50
8, 20730, Note_on_c, 6, 76, 0
8, 20760, Note_on_c, 6, 76, 50
8, 20790, Note_on_c, 6, 76, 0
8, 20820, Note_on_c, 6, 76, 50
8, 20850, Note_on_c, 6, 76, 0
8, 20880, Note_on_c, 6, 76, 50
8, 20940, Note_on_c, 6, 76, 0
8, 20940, Note_on_c, 6, 74, 50
8, 20970, Note_on_c, 6, 74, 0
8, 21000, Note_on_c, 6, 74, 50
8, 21030, Note_on_c, 6, 74, 0
8, 21060, Note_on_c, 6, 74, 50
8, 21090, Note_on_c, 6, 74, 0
8, 21120, Note_on_c, 6, 74, 50
8, 21180, Note_on_c, 6, 74, 0
8, 21180, Note_on_c, 6, 73, 50
8, 21210, Note_on_c, 6, 73, 0
8, 21240, Note_on_c, 6, 73, 50
8, 21270, Note_on_c, 6, 73, 0
8, 21300, Note_on_c, 6, 73, 50
8, 21330, Note_on_c, 6, 73, 0
8, 22440, Note_on_c, 6, 81, 50
8, 22530, Note_on_c, 6, 81, 0
8, 22530, Note_on_c, 6, 80, 50
8, 22560, Note_on_c, 6, 80, 0
8, 22560, Note_on_c, 6, 78, 50
8, 22620, Note_on_c, 6, 78, 0
8, 22680, Note_on_c, 6, 78, 50
8, 22770, Note_on_c, 6, 78, 0
8, 22770, Note_on_c, 6, 76, 50
8, 22800, Note_on_c, 6, 76, 0
8, 22800, Note_on_c, 6, 74, 50
8, 22860, Note_on_c, 6, 74, 0
8, 22920, Note_on_c, 6, 73, 50
8, 22980, Note_on_c, 6, 73, 0
8, 23040, Note_on_c, 6, 74, 50
8, 23100, Note_on_c, 6, 74, 0
8, 23160, Note_on_c, 6, 71, 50
8, 23220, Note_on_c, 6, 71, 0
8, 23280, Note_on_c, 6, 69, 50
8, 23400, Note_on_c, 6, 69, 0
8, 25260, Note_on_c, 6, 69, 50
8, 25290, Note_on_c, 6, 69, 0
8, 25320, Note_on_c, 6, 73, 50
8, 25350, Note_on_c, 6, 73, 0
8, 25380, Note_on_c, 6, 69, 50
8, 25410, Note_on_c, 6, 69, 0
8, 25440, Note_on_c, 6, 76, 50
8, 25740, Note_on_c, 6, 76, 0
8, 25740, Note_on_c, 6, 74, 50
8, 25860, Note_on_c, 6, 74, 0
8, 25860, Note_on_c, 6, 73, 50
8, 25980, Note_on_c, 6, 73, 0
8, 25980, Note_on_c, 6, 74, 50
8, 26100, Note_on_c, 6, 74, 0
8, 26100, Note_on_c, 6, 76, 50
8, 26160, Note_on_c, 6, 76, 0
8, 26160, Note_on_c, 6, 77, 100
8, 26190, Note_on_c, 6, 77, 0
8, 26220, Note_on_c, 6, 81, 100
8, 26250, Note_on_c, 6, 81, 0
8, 26280, Note_on_c, 6, 74, 100
8, 26310, Note_on_c, 6, 74, 0
8, 26340, Note_on_c, 6, 86, 100
8, 26370, Note_on_c, 6, 86, 0
8, 26400, Note_on_c, 6, 85, 100
8, 26640, Note_on_c, 6, 85, 0
8, 26700, Note_on_c, 6, 81, 100
8, 26730, Note_on_c, 6, 81, 0
8, 26760, Note_on_c, 6, 74, 100
8, 26790, Note_on_c, 6, 74, 0
8, 26820, Note_on_c, 6, 86, 100
8, 26850, Note_on_c, 6, 86, 0
8, 26880, Note_on_c, 6, 85, 100
8, 27120, Note_on_c, 6, 85, 0
8, 27180, Note_on_c, 6, 81, 100
8, 27210, Note_on_c, 6, 81, 0
8, 27240, Note_on_c, 6, 74, 100
8, 27270, Note_on_c, 6, 74, 0
8, 27300, Note_on_c, 6, 86, 100
8, 27330, Note_on_c, 6, 86, 0
8, 27360, Note_on_c, 6, 85, 100
8, 27600, Note_on_c, 6, 85, 0
8, 27600, Note_on_c, 6, 86, 100
8, 27630, Note_on_c, 6, 86, 0
8, 27630, Note_on_c, 6, 86, 100
8, 27660, Note_on_c, 6, 86, 0
8, 27660, Note_on_c, 6, 86, 100
8, 27690, Note_on_c, 6, 86, 0
8, 27690, Note_on_c, 6, 86, 100
8, 27720, Note_on_c, 6, 86, 0
8, 27720, Note_on_c, 6, 86, 100
8, 27750, Note_on_c, 6, 86, 0
8, 27750, Note_on_c, 6, 86, 100
8, 27780, Note_on_c, 6, 86, 0
8, 27780, Note_on_c, 6, 86, 100
8, 27810, Note_on_c, 6, 86, 0
8, 27810, Note_on_c, 6, 86, 100
8, 27840, Note_on_c, 6, 86, 0
8, 27840, Note_on_c, 6, 86, 100
8, 27870, Note_on_c, 6, 86, 0
8, 27870, Note_on_c, 6, 86, 100
8, 27900, Note_on_c, 6, 86, 0
8, 27900, Note_on_c, 6, 86, 100
8, 27930, Note_on_c, 6, 86, 0
8, 27930, Note_on_c, 6, 86, 100
8, 27960, Note_on_c, 6, 86, 0
8, 27960, Note_on_c, 6, 86, 100
8, 27990, Note_on_c, 6, 86, 0
8, 27990, Note_on_c, 6, 86, 100
8, 28020, Note_on_c, 6, 86, 0
8, 28020, Note_on_c, 6, 86, 100
8, 28050, Note_on_c, 6, 86, 0
8, 28050, Note_on_c, 6, 86, 100
8, 28080, Note_on_c, 6, 86, 0
8, 28080, Note_on_c, 6, 86, 100
8, 28110, Note_on_c, 6, 86, 0
8, 28110, Note_on_c, 6, 86, 100
8, 28140, Note_on_c, 6, 86, 0
8, 28140, Note_on_c, 6, 86, 100
8, 28170, Note_on_c, 6, 86, 0
8, 28170, Note_on_c, 6, 86, 100
8, 28200, Note_on_c, 6, 86, 0
8, 28200, Note_on_c, 6, 85, 100
8, 28230, Note_on_c, 6, 85, 0
8, 28230, Note_on_c, 6, 85, 100
8, 28260, Note_on_c, 6, 85, 0
8, 28260, Note_on_c, 6, 85, 100
8, 28290, Note_on_c, 6, 85, 0
8, 28290, Note_on_c, 6, 85, 100
8, 28320, Note_on_c, 6, 85, 0
8, 28320, Note_on_c, 6, 86, 100
8, 28350, Note_on_c, 6, 86, 0
8, 28350, Note_on_c, 6, 86, 100
8, 28380, Note_on_c, 6, 86, 0
8, 28380, Note_on_c, 6, 86, 100
8, 28410, Note_on_c, 6, 86, 0
8, 28410, Note_on_c, 6, 86, 100
8, 28440, Note_on_c, 6, 86, 0
8, 28440, Note_on_c, 6, 83, 100
8, 28470, Note_on_c, 6, 83, 0
8, 28470, Note_on_c, 6, 83, 100
8, 28500, Note_on_c, 6, 83, 0
8, 28500, Note_on_c, 6, 83, 100
8, 28530, Note_on_c, 6, 83, 0
8, 28530, Note_on_c, 6, 83, 100
8, 28560, Note_on_c, 6, 83, 0
8, 28560, Note_on_c, 6, 81, 50
8, 28590, Note_on_c, 6, 81, 0
8, 28600, Note_on_c, 6, 85, 50
8, 28630, Note_on_c, 6, 85, 0
8, 28640, Note_on_c, 6, 83, 50
8, 28670, Note_on_c, 6, 83, 0
8, 28680, Note_on_c, 6, 81, 50
8, 28710, Note_on_c, 6, 81, 0
8, 28720, Note_on_c, 6, 80, 50
8, 28750, Note_on_c, 6, 80, 0
8, 28760, Note_on_c, 6, 78, 50
8, 28790, Note_on_c, 6, 78, 0
8, 28800, Note_on_c, 6, 76, 50
8, 28830, Note_on_c, 6, 76, 0
8, 28840, Note_on_c, 6, 76, 50
8, 28870, Note_on_c, 6, 76, 0
8, 28880, Note_on_c, 6, 76, 50
8, 28910, Note_on_c, 6, 76, 0
8, 28920, Note_on_c, 6, 76, 50
8, 28950, Note_on_c, 6, 76, 0
8, 28960, Note_on_c, 6, 76, 50
8, 28990, Note_on_c, 6, 76, 0
8, 29000, Note_on_c, 6, 76, 50
8, 29030, Note_on_c, 6, 76, 0
8, 29040, Note_on_c, 6, 76, 50
8, 29070, Note_on_c, 6, 76, 0
8, 29080, Note_on_c, 6, 85, 50
8, 29110, Note_on_c, 6, 85, 0
8, 29120, Note_on_c, 6, 83, 50
8, 29150, Note_on_c, 6, 83, 0
8, 29160, Note_on_c, 6, 81, 50
8, 29190, Note_on_c, 6, 81, 0
8, 29200, Note_on_c, 6, 80, 50
8, 29230, Note_on_c, 6, 80, 0
8, 29240, Note_on_c, 6, 78, 50
8, 29270, Note_on_c, 6, 78, 0
8, 29280, Note_on_c, 6, 76, 50
8, 29310, Note_on_c, 6, 76, 0
8, 29320, Note_on_c, 6, 76, 50
8, 29350, Note_on_c, 6, 76, 0
8, 29360, Note_on_c, 6, 76, 50
8, 29390, Note_on_c, 6, 76, 0
8, 29400, Note_on_c, 6, 76, 50
8, 29430, Note_on_c, 6, 76, 0
8, 29440, Note_on_c, 6, 76, 50
8, 29470, Note_on_c, 6, 76, 0
8, 29480, Note_on_c, 6, 76, 50
8, 29510, Note_on_c, 6, 76, 0
8, 29520, Note_on_c, 6, 76, 50
8, 29550, Note_on_c, 6, 76, 0
8, 29560, Note_on_c, 6, 85, 50
8, 29590, Note_on_c, 6, 85, 0
8, 29600, Note_on_c, 6, 83, 50
8, 29630, Note_on_c, 6, 83, 0
8, 29640, Note_on_c, 6, 81, 50
8, 29670, Note_on_c, 6, 81, 0
8, 29680, Note_on_c, 6, 80, 50
8, 29710, Note_on_c, 6, 80, 0
8, 29720, Note_on_c, 6, 78, 50
8, 29750, Note_on_c, 6, 78, 0
8, 29760, Note_on_c, 6, 76, 50
8, 29790, Note_on_c, 6, 76, 0
8, 29800, Note_on_c, 6, 76, 50
8, 29830, Note_on_c, 6, 76, 0
8, 29840, Note_on_c, 6, 76, 50
8, 29870, Note_on_c, 6, 76, 0
8, 29880, Note_on_c, 6, 76, 50
8, 29910, Note_on_c, 6, 76, 0
8, 29920, Note_on_c, 6, 76, 50
8, 29950, Note_on_c, 6, 76, 0
8, 29960, Note_on_c, 6, 76, 50
8, 29990, Note_on_c, 6, 76, 0
8, 30000, Note_on_c, 6, 76, 50
8, 30040, Note_on_c, 6, 76, 0
8, 30040, Note_on_c, 6, 78, 50
8, 30080, Note_on_c, 6, 78, 0
8, 30080, Note_on_c, 6, 80, 50
8, 30120, Note_on_c, 6, 80, 0
8, 30120, Note_on_c, 6, 81, 50
8, 30160, Note_on_c, 6, 81, 0
8, 30160, Note_on_c, 6, 80, 50
8, 30200, Note_on_c, 6, 80, 0
8, 30200, Note_on_c, 6, 78, 50
8, 30240, Note_on_c, 6, 78, 0
8, 30240, Note_on_c, 6, 76, 50
8, 30280, Note_on_c, 6, 76, 0
8, 30280, Note_on_c, 6, 74, 50
8, 30320, Note_on_c, 6, 74, 0
8, 30320, Note_on_c, 6, 73, 50
8, 30360, Note_on_c, 6, 73, 0
8, 30360, Note_on_c, 6, 71, 50
8, 30400, Note_on_c, 6, 71, 0
8, 30400, Note_on_c, 6, 69, 50
8, 30440, Note_on_c, 6, 69, 0
8, 30440, Note_on_c, 6, 68, 50
8, 30480, Note_on_c, 6, 68, 0
8, 30480, Note_on_c, 6, 66, 50
8, 30520, Note_on_c, 6, 66, 0
8, 30520, Note_on_c, 6, 64, 50
8, 30560, Note_on_c, 6, 64, 0
8, 30560, Note_on_c, 6, 62, 50
8, 30600, Note_on_c, 6, 62, 0
8, 30600, Note_on_c, 6, 61, 50
8, 30640, Note_on_c, 6, 61, 0
8, 30640, Note_on_c, 6, 62, 50
8, 30680, Note_on_c, 6, 62, 0
8, 30680, Note_on_c, 6, 64, 50
8, 30720, Note_on_c, 6, 64, 0
8, 30720, Note_on_c, 6, 66, 50
8, 30760, Note_on_c, 6, 66, 0
8, 30760, Note_on_c, 6, 68, 50
8, 30800, Note_on_c, 6, 68, 0
8, 30800, Note_on_c, 6, 69, 50
8, 30840, Note_on_c, 6, 69, 0
8, 30840, Note_on_c, 6, 71, 50
8, 30880, Note_on_c, 6, 71, 0
8, 30880, Note_on_c, 6, 73, 50
8, 30920, Note_on_c, 6, 73, 0
8, 30920, Note_on_c, 6, 74, 50
8, 30960, Note_on_c, 6, 74, 0
8, 30960, Note_on_c, 6, 76, 50
8, 30975, Note_on_c, 6, 76, 0
8, 30975, Note_on_c, 6, 74, 50
8, 30990, Note_on_c, 6, 74, 0
8, 30990, Note_on_c, 6, 76, 50
8, 31005, Note_on_c, 6, 76, 0
8, 31005, Note_on_c, 6, 74, 50
8, 31020, Note_on_c, 6, 74, 0
8, 31020, Note_on_c, 6, 76, 50
8, 31035, Note_on_c, 6, 76, 0
8, 31035, Note_on_c, 6, 74, 50
8, 31050, Note_on_c, 6, 74, 0
8, 31050, Note_on_c, 6, 76, 50
8, 31065, Note_on_c, 6, 76, 0
8, 31065, Note_on_c, 6, 74, 50
8, 31080, Note_on_c, 6, 74, 0
8, 31080, Note_on_c, 6, 76, 50
8, 31095, Note_on_c, 6, 76, 0
8, 31095, Note_on_c, 6, 74, 50
8, 31110, Note_on_c, 6, 74, 0
8, 31110, Note_on_c, 6, 76, 50
8, 31125, Note_on_c, 6, 76, 0
8, 31125, Note_on_c, 6, 74, 50
8, 31140, Note_on_c, 6, 74, 0
8, 31140, Note_on_c, 6, 74, 50
8, 31170, Note_on_c, 6, 74, 0
8, 31170, Note_on_c, 6, 76, 50
8, 31200, Note_on_c, 6, 76, 0
8, 31200, Note_on_c, 6, 78, 50
8, 31320, Note_on_c, 6, 78, 0
8, 31440, Note_on_c, 6, 73, 50
8, 31455, Note_on_c, 6, 73, 0
8, 31455, Note_on_c, 6, 71, 50
8, 31470, Note_on_c, 6, 71, 0
8, 31470, Note_on_c, 6, 73, 50
8, 31485, Note_on_c, 6, 73, 0
8, 31485, Note_on_c, 6, 71, 50
8, 31500, Note_on_c, 6, 71, 0
8, 31500, Note_on_c, 6, 73, 50
8, 31515, Note_on_c, 6, 73, 0
8, 31515, Note_on_c, 6, 71, 50
8, 31530, Note_on_c, 6, 71, 0
8, 31530, Note_on_c, 6, 73, 50
8, 31545, Note_on_c, 6, 73, 0
8, 31545, Note_on_c, 6, 71, 50
8, 31560, Note_on_c, 6, 71, 0
8, 31560, Note_on_c, 6, 73, 50
8, 31575, Note_on_c, 6, 73, 0
8, 31575, Note_on_c, 6, 71, 50
8, 31590, Note_on_c, 6, 71, 0
8, 31590, Note_on_c, 6, 73, 50
8, 31605, Note_on_c, 6, 73, 0
8, 31605, Note_on_c, 6, 71, 50
8, 31620, Note_on_c, 6, 71, 0
8, 31620, Note_on_c, 6, 71, 50
8, 31650, Note_on_c, 6, 71, 0
8, 31650, Note_on_c, 6, 73, 50
8, 31680, Note_on_c, 6, 73, 0
8, 31680, Note_on_c, 6, 74, 50
8, 31740, Note_on_c, 6, 74, 0
8, 31800, Note_on_c, 6, 71, 50
8, 31860, Note_on_c, 6, 71, 0
8, 31920, Note_on_c, 6, 76, 50
8, 31935, Note_on_c, 6, 76, 0
8, 31935, Note_on_c, 6, 74, 50
8, 31950, Note_on_c, 6, 74, 0
8, 31950, Note_on_c, 6, 76, 50
8, 31965, Note_on_c, 6, 76, 0
8, 31965, Note_on_c, 6, 74, 50
8, 31980, Note_on_c, 6, 74, 0
8, 31980, Note_on_c, 6, 76, 50
8, 31995, Note_on_c, 6, 76, 0
8, 31995, Note_on_c, 6, 74, 50
8, 32010, Note_on_c, 6, 74, 0
8, 32010, Note_on_c, 6, 76, 50
8, 32025, Note_on_c, 6, 76, 0
8, 32025, Note_on_c, 6, 74, 50
8, 32040, Note_on_c, 6, 74, 0
8, 32040, Note_on_c, 6, 76, 50
8, 32055, Note_on_c, 6, 76, 0
8, 32055, Note_on_c, 6, 74, 50
8, 32070, Note_on_c, 6, 74, 0
8, 32070, Note_on_c, 6, 76, 50
8, 32085, Note_on_c, 6, 76, 0
8, 32085, Note_on_c, 6, 74, 50
8, 32100, Note_on_c, 6, 74, 0
8, 32100, Note_on_c, 6, 74, 50
8, 32130, Note_on_c, 6, 74, 0
8, 32130, Note_on_c, 6, 76, 50
8, 32160, Note_on_c, 6, 76, 0
8, 32160, Note_on_c, 6, 78, 50
8, 32280, Note_on_c, 6, 78, 0
8, 32400, Note_on_c, 6, 73, 50
8, 32415, Note_on_c, 6, 73, 0
8, 32415, Note_on_c, 6, 71, 50
8, 32430, Note_on_c, 6, 71, 0
8, 32430, Note_on_c, 6, 73, 50
8, 32445, Note_on_c, 6, 73, 0
8, 32445, Note_on_c, 6, 71, 50
8, 32460, Note_on_c, 6, 71, 0
8, 32460, Note_on_c, 6, 73, 50
8, 32475, Note_on_c, 6, 73, 0
8, 32475, Note_on_c, 6, 71, 50
8, 32490, Note_on_c, 6, 71, 0
8, 32490, Note_on_c, 6, 73, 50
8, 32505, Note_on_c, 6, 73, 0
8, 32505, Note_on_c, 6, 71, 50
8, 32520, Note_on_c, 6, 71, 0
8, 32520, Note_on_c, 6, 73, 50
8, 32535, Note_on_c, 6, 73, 0
8, 32535, Note_on_c, 6, 71, 50
8, 32550, Note_on_c, 6, 71, 0
8, 32550, Note_on_c, 6, 73, 50
8, 32565, Note_on_c, 6, 73, 0
8, 32565, Note_on_c, 6, 71, 50
8, 32580, Note_on_c, 6, 71, 0
8, 32580, Note_on_c, 6, 71, 50
8, 32610, Note_on_c, 6, 71, 0
8, 32610, Note_on_c, 6, 73, 50
8, 32640, Note_on_c, 6, 73, 0
8, 32640, Note_on_c, 6, 74, 50
8, 32700, Note_on_c, 6, 74, 0
8, 32760, Note_on_c, 6, 71, 50
8, 32820, Note_on_c, 6, 71, 0
8, 32940, Note_on_c, 6, 69, 100
8, 32970, Note_on_c, 6, 69, 0
8, 33000, Note_on_c, 6, 73, 101
8, 33030, Note_on_c, 6, 73, 0
8, 33060, Note_on_c, 6, 69, 101
8, 33090, Note_on_c, 6, 69, 0
8, 33120, Note_on_c, 6, 81, 102
8, 33420, Note_on_c, 6, 81, 0
8, 33420, Note_on_c, 6, 69, 105
8, 33450, Note_on_c, 6, 69, 0
8, 33480, Note_on_c, 6, 73, 105
8, 33510, Note_on_c, 6, 73, 0
8, 33540, Note_on_c, 6, 69, 106
8, 33570, Note_on_c, 6, 69, 0
8, 33600, Note_on_c, 6, 85, 106
8, 33900, Note_on_c, 6, 85, 0
8, 33900, Note_on_c, 6, 69, 109
8, 33930, Note_on_c, 6, 69, 0
8, 33960, Note_on_c, 6, 73, 110
8, 33990, Note_on_c, 6, 73, 0
8, 34020, Note_on_c, 6, 69, 110
8, 34050, Note_on_c, 6, 69, 0
8, 34080, Note_on_c, 6, 88, 111
8, 34380, Note_on_c, 6, 88, 0
8, 34380, Note_on_c, 6, 85, 114
8, 34440, Note_on_c, 6, 85, 0
8, 34440, Note_on_c, 6, 81, 114
8, 34500, Note_on_c, 6, 81, 0
8, 34500, Note_on_c, 6, 76, 115
8, 34560, Note_on_c, 6, 76, 0
8, 34560, Note_on_c, 6, 85, 115
8, 34620, Note_on_c, 6, 85, 0
8, 34620, Note_on_c, 6, 81, 116
8, 34680, Note_on_c, 6, 81, 0
8, 34680, Note_on_c, 6, 76, 116
8, 34740, Note_on_c, 6, 76, 0
8, 34740, Note_on_c, 6, 73, 117
8, 34800, Note_on_c, 6, 73, 0
8, 34800, Note_on_c, 6, 81, 118
8, 34860, Note_on_c, 6, 81, 0
8, 34860, Note_on_c, 6, 76, 118
8, 34920, Note_on_c, 6, 76, 0
8, 34920, Note_on_c, 6, 73, 119
8, 34980, Note_on_c, 6, 73, 0
8, 34980, Note_on_c, 6, 69, 119
8, 35040, Note_on_c, 6, 69, 0
8, 35040, Note_on_c, 6, 76, 120
8, 35100, Note_on_c, 6, 76, 0
8, 35100, Note_on_c, 6, 73, 120
8, 35160, Note_on_c, 6, 73, 0
8, 35160, Note_on_c, 6, 69, 121
8, 35220, Note_on_c, 6, 69, 0
8, 35220, Note_on_c, 6, 64, 121
8, 35280, Note_on_c, 6, 64, 0
8, 35280, Note_on_c, 6, 73, 122
8, 35340, Note_on_c, 6, 73, 0
8, 35340, Note_on_c, 6, 69, 123
8, 35400, Note_on_c, 6, 69, 0
8, 35400, Note_on_c, 6, 64, 123
8, 35460, Note_on_c, 6, 64, 0
8, 35460, Note_on_c, 6, 61, 124
8, 35520, Note_on_c, 6, 61, 0
8, 35520, Note_on_c, 6, 69, 124
8, 35580, Note_on_c, 6, 69, 0
8, 35580, Note_on_c, 6, 64, 125
8, 35640, Note_on_c, 6, 64, 0
8, 35640, Note_on_c, 6, 61, 125
8, 35700, Note_on_c, 6, 61, 0
8, 35700, Note_on_c, 6, 57, 126
8, 35760, Note_on_c, 6, 57, 0
8, 35760, Note_on_c, 6, 69, 127
8, 35850, Note_on_c, 6, 69, 0
8, 35880, Note_on_c, 6, 76, 127
8, 35880, Note_on_c, 6, 69, 127
8, 35970, Note_on_c, 6, 69, 0
8, 35970, Note_on_c, 6, 76, 0
8, 36000, Note_on_c, 6, 64, 127
8, 36000, Note_on_c, 6, 73, 127
8, 36000, Note_on_c, 6, 81, 127
8, 36090, Note_on_c, 6, 81, 0
8, 36090, Note_on_c, 6, 73, 0
8, 36090, Note_on_c, 6, 64, 0
8, 36240, Note_on_c, 6, 73, 127
8, 36240, Note_on_c, 6, 81, 127
8, 36270, Note_on_c, 6, 81, 0
8, 36270, Note_on_c, 6, 73, 0
8, 36270, Note_on_c, 6, 73, 127
8, 36270, Note_on_c, 6, 81, 127
8, 36300, Note_on_c, 6, 81, 0
8, 36300, Note_on_c, 6, 73, 0
8, 36300, Note_on_c, 6, 73, 127
8, 36300, Note_on_c, 6, 81, 127
8, 36330, Note_on_c, 6, 81, 0
8, 36330, Note_on_c, 6, 73, 0
8, 36330, Note_on_c, 6, 73, 127
8, 36330, Note_on_c, 6, 81, 127
8, 36360, Note_on_c, 6, 81, 0
8, 36360, Note_on_c, 6, 73, 0
8, 36360, Note_on_c, 6, 73, 127
8, 36360, Note_on_c, 6, 81, 127
8, 36390, Note_on_c, 6, 81, 0
8, 36390, Note_on_c, 6, 73, 0
8, 36390, Note_on_c, 6, 73, 127
8, 36390, Note_on_c, 6, 81, 127
8, 36420, Note_on_c, 6, 81, 0
8, 36420, Note_on_c, 6, 73, 0
8, 36420, Note_on_c, 6, 73, 127
8, 36420, Note_on_c, 6, 81, 127
8, 36450, Note_on_c, 6, 81, 0
8, 36450, Note_on_c, 6, 73, 0
8, 36450, Note_on_c, 6, 73, 127
8, 36450, Note_on_c, 6, 81, 127
8, 36480, Note_on_c, 6, 81, 0
8, 36480, Note_on_c, 6, 73, 0
8, 36480, Note_on_c, 6, 73, 127
8, 36480, Note_on_c, 6, 81, 127
8, 36510, Note_on_c, 6, 81, 0
8, 36510, Note_on_c, 6, 73, 0
8, 36510, Note_on_c, 6, 73, 127
8, 36510, Note_on_c, 6, 81, 127
8, 36540, Note_on_c, 6, 81, 0
8, 36540, Note_on_c, 6, 73, 0
8, 36540, Note_on_c, 6, 73, 127
8, 36540, Note_on_c, 6, 81, 127
8, 36570, Note_on_c, 6, 81, 0
8, 36570, Note_on_c, 6, 73, 0
8, 36570, Note_on_c, 6, 73, 127
8, 36570, Note_on_c, 6, 81, 127
8, 36600, Note_on_c, 6, 81, 0
8, 36600, Note_on_c, 6, 73, 0
8, 36600, Note_on_c, 6, 73, 127
8, 36600, Note_on_c, 6, 81, 127
8, 36630, Note_on_c, 6, 81, 0
8, 36630, Note_on_c, 6, 73, 0
8, 36630, Note_on_c, 6, 73, 127
8, 36630, Note_on_c, 6, 81, 127
8, 36660, Note_on_c, 6, 81, 0
8, 36660, Note_on_c, 6, 73, 0
8, 36660, Note_on_c, 6, 73, 127
8, 36660, Note_on_c, 6, 81, 127
8, 36690, Note_on_c, 6, 81, 0
8, 36690, Note_on_c, 6, 73, 0
8, 36690, Note_on_c, 6, 73, 127
8, 36690, Note_on_c, 6, 81, 127
8, 36720, Note_on_c, 6, 81, 0
8, 36720, Note_on_c, 6, 73, 0
8, 36720, Note_on_c, 6, 73, 127
8, 36720, Note_on_c, 6, 81, 127
8, 36750, Note_on_c, 6, 81, 0
8, 36750, Note_on_c, 6, 73, 0
8, 36750, Note_on_c, 6, 73, 127
8, 36750, Note_on_c, 6, 81, 127
8, 36780, Note_on_c, 6, 81, 0
8, 36780, Note_on_c, 6, 73, 0
8, 36780, Note_on_c, 6, 73, 127
8, 36780, Note_on_c, 6, 81, 127
8, 36810, Note_on_c, 6, 81, 0
8, 36810, Note_on_c, 6, 73, 0
8, 36810, Note_on_c, 6, 73, 127
8, 36810, Note_on_c, 6, 81, 127
8, 36840, Note_on_c, 6, 81, 0
8, 36840, Note_on_c, 6, 73, 0
8, 36840, Note_on_c, 6, 73, 127
8, 36840, Note_on_c, 6, 81, 127
8, 36870, Note_on_c, 6, 81, 0
8, 36870, Note_on_c, 6, 73, 0
8, 36870, Note_on_c, 6, 73, 127
8, 36870, Note_on_c, 6, 81, 127
8, 36900, Note_on_c, 6, 81, 0
8, 36900, Note_on_c, 6, 73, 0
8, 36900, Note_on_c, 6, 73, 127
8, 36900, Note_on_c, 6, 81, 127
8, 36930, Note_on_c, 6, 81, 0
8, 36930, Note_on_c, 6, 73, 0
8, 36930, Note_on_c, 6, 73, 127
8, 36930, Note_on_c, 6, 81, 127
8, 36960, Note_on_c, 6, 81, 0
8, 36960, Note_on_c, 6, 73, 0
8, 36960, Note_on_c, 6, 73, 127
8, 36960, Note_on_c, 6, 81, 127
8, 36990, Note_on_c, 6, 81, 0
8, 36990, Note_on_c, 6, 73, 0
8, 36990, Note_on_c, 6, 73, 127
8, 36990, Note_on_c, 6, 81, 127
8, 37020, Note_on_c, 6, 81, 0
8, 37020, Note_on_c, 6, 73, 0
8, 37020, Note_on_c, 6, 73, 127
8, 37020, Note_on_c, 6, 81, 127
8, 37050, Note_on_c, 6, 81, 0
8, 37050, Note_on_c, 6, 73, 0
8, 37050, Note_on_c, 6, 73, 127
8, 37050, Note_on_c, 6, 81, 127
8, 37080, Note_on_c, 6, 81, 0
8, 37080, Note_on_c, 6, 73, 0
8, 37080, Note_on_c, 6, 73, 127
8, 37080, Note_on_c, 6, 81, 127
8, 37110, Note_on_c, 6, 81, 0
8, 37110, Note_on_c, 6, 73, 0
8, 37110, Note_on_c, 6, 73, 127
8, 37110, Note_on_c, 6, 81, 127
8, 37140, Note_on_c, 6, 81, 0
8, 37140, Note_on_c, 6, 73, 0
8, 37140, Note_on_c, 6, 73, 127
8, 37140, Note_on_c, 6, 81, 127
8, 37170, Note_on_c, 6, 81, 0
8, 37170, Note_on_c, 6, 73, 0
8, 37170, Note_on_c, 6, 73, 127
8, 37170, Note_on_c, 6, 81, 127
8, 37200, Note_on_c, 6, 81, 0
8, 37200, Note_on_c, 6, 73, 0
8, 37200, Note_on_c, 6, 73, 127
8, 37200, Note_on_c, 6, 81, 127
8, 37260, Note_on_c, 6, 81, 0
8, 37260, Note_on_c, 6, 73, 0
8, 38160, Note_on_c, 6, 71, 100
8, 38160, Note_on_c, 6, 80, 100
8, 38190, Note_on_c, 6, 80, 0
8, 38190, Note_on_c, 6, 71, 0
8, 38190, Note_on_c, 6, 71, 100
8, 38190, Note_on_c, 6, 80, 100
8, 38220, Note_on_c, 6, 80, 0
8, 38220, Note_on_c, 6, 71, 0
8, 38220, Note_on_c, 6, 71, 100
8, 38220, Note_on_c, 6, 80, 100
8, 38250, Note_on_c, 6, 80, 0
8, 38250, Note_on_c, 6, 71, 0
8, 38250, Note_on_c, 6, 71, 100
8, 38250, Note_on_c, 6, 80, 100
8, 38280, Note_on_c, 6, 80, 0
8, 38280, Note_on_c, 6, 71, 0
8, 38280, Note_on_c, 6, 71, 100
8, 38280, Note_on_c, 6, 80, 100
8, 38310, Note_on_c, 6, 80, 0
8, 38310, Note_on_c, 6, 71, 0
8, 38310, Note_on_c, 6, 71, 100
8, 38310, Note_on_c, 6, 80, 100
8, 38340, Note_on_c, 6, 80, 0
8, 38340, Note_on_c, 6, 71, 0
8, 38340, Note_on_c, 6, 71, 100
8, 38340, Note_on_c, 6, 80, 100
8, 38370, Note_on_c, 6, 80, 0
8, 38370, Note_on_c, 6, 71, 0
8, 38370, Note_on_c, 6, 71, 100
8, 38370, Note_on_c, 6, 80, 100
8, 38400, Note_on_c, 6, 80, 0
8, 38400, Note_on_c, 6, 71, 0
8, 38400, Note_on_c, 6, 71, 100
8, 38400, Note_on_c, 6, 80, 100
8, 38430, Note_on_c, 6, 80, 0
8, 38430, Note_on_c, 6, 71, 0
8, 38430, Note_on_c, 6, 71, 100
8, 38430, Note_on_c, 6, 80, 100
8, 38460, Note_on_c, 6, 80, 0
8, 38460, Note_on_c, 6, 71, 0
8, 38460, Note_on_c, 6, 71, 100
8, 38460, Note_on_c, 6, 80, 100
8, 38490, Note_on_c, 6, 80, 0
8, 38490, Note_on_c, 6, 71, 0
8, 38490, Note_on_c, 6, 71, 100
8, 38490, Note_on_c, 6, 80, 100
8, 38520, Note_on_c, 6, 80, 0
8, 38520, Note_on_c, 6, 71, 0
8, 38520, Note_on_c, 6, 71, 100
8, 38520, Note_on_c, 6, 80, 100
8, 38550, Note_on_c, 6, 80, 0
8, 38550, Note_on_c, 6, 71, 0
8, 38550, Note_on_c, 6, 71, 100
8, 38550, Note_on_c, 6, 80, 100
8, 38580, Note_on_c, 6, 80, 0
8, 38580, Note_on_c, 6, 71, 0
8, 38580, Note_on_c, 6, 71, 100
8, 38580, Note_on_c, 6, 80, 100
8, 38610, Note_on_c, 6, 80, 0
8, 38610, Note_on_c, 6, 71, 0
8, 38610, Note_on_c, 6, 71, 100
8, 38610, Note_on_c, 6, 80, 100
8, 38640, Note_on_c, 6, 80, 0
8, 38640, Note_on_c, 6, 71, 0
8, 38640, Note_on_c, 6, 71, 100
8, 38640, Note_on_c, 6, 80, 100
8, 38670, Note_on_c, 6, 80, 0
8, 38670, Note_on_c, 6, 71, 0
8, 38670, Note_on_c, 6, 71, 100
8, 38670, Note_on_c, 6, 80, 100
8, 38700, Note_on_c, 6, 80, 0
8, 38700, Note_on_c, 6, 71, 0
8, 38700, Note_on_c, 6, 71, 100
8, 38700, Note_on_c, 6, 80, 100
8, 38730, Note_on_c, 6, 80, 0
8, 38730, Note_on_c, 6, 71, 0
8, 38730, Note_on_c, 6, 71, 100
8, 38730, Note_on_c, 6, 80, 100
8, 38760, Note_on_c, 6, 80, 0
8, 38760, Note_on_c, 6, 71, 0
8, 38760, Note_on_c, 6, 71, 100
8, 38760, Note_on_c, 6, 80, 100
8, 38790, Note_on_c, 6, 80, 0
8, 38790, Note_on_c, 6, 71, 0
8, 38790, Note_on_c, 6, 71, 100
8, 38790, Note_on_c, 6, 80, 100
8, 38820, Note_on_c, 6, 80, 0
8, 38820, Note_on_c, 6, 71, 0
8, 38820, Note_on_c, 6, 71, 100
8, 38820, Note_on_c, 6, 80, 100
8, 38850, Note_on_c, 6, 80, 0
8, 38850, Note_on_c, 6, 71, 0
8, 38850, Note_on_c, 6, 71, 100
8, 38850, Note_on_c, 6, 80, 100
8, 38880, Note_on_c, 6, 80, 0
8, 38880, Note_on_c, 6, 71, 0
8, 38880, Note_on_c, 6, 71, 100
8, 38880, Note_on_c, 6, 80, 100
8, 38910, Note_on_c, 6, 80, 0
8, 38910, Note_on_c, 6, 71, 0
8, 38910, Note_on_c, 6, 71, 100
8, 38910, Note_on_c, 6, 80, 100
8, 38940, Note_on_c, 6, 80, 0
8, 38940, Note_on_c, 6, 71, 0
8, 38940, Note_on_c, 6, 71, 100
8, 38940, Note_on_c, 6, 80, 100
8, 38970, Note_on_c, 6, 80, 0
8, 38970, Note_on_c, 6, 71, 0
8, 38970, Note_on_c, 6, 71, 100
8, 38970, Note_on_c, 6, 80, 100
8, 39000, Note_on_c, 6, 80, 0
8, 39000, Note_on_c, 6, 71, 0
8, 39000, Note_on_c, 6, 71, 100
8, 39000, Note_on_c, 6, 80, 100
8, 39030, Note_on_c, 6, 80, 0
8, 39030, Note_on_c, 6, 71, 0
8, 39030, Note_on_c, 6, 71, 100
8, 39030, Note_on_c, 6, 80, 100
8, 39060, Note_on_c, 6, 80, 0
8, 39060, Note_on_c, 6, 71, 0
8, 39060, Note_on_c, 6, 71, 100
8, 39060, Note_on_c, 6, 80, 100
8, 39090, Note_on_c, 6, 80, 0
8, 39090, Note_on_c, 6, 71, 0
8, 39090, Note_on_c, 6, 71, 100
8, 39090, Note_on_c, 6, 80, 100
8, 39120, Note_on_c, 6, 80, 0
8, 39120, Note_on_c, 6, 71, 0
8, 39120, Note_on_c, 6, 71, 100
8, 39120, Note_on_c, 6, 80, 100
8, 39180, Note_on_c, 6, 80, 0
8, 39180, Note_on_c, 6, 71, 0
8, 40080, Note_on_c, 6, 73, 100
8, 40080, Note_on_c, 6, 82, 100
8, 40110, Note_on_c, 6, 82, 0
8, 40110, Note_on_c, 6, 73, 0
8, 40110, Note_on_c, 6, 73, 100
8, 40110, Note_on_c, 6, 82, 100
8, 40140, Note_on_c, 6, 82, 0
8, 40140, Note_on_c, 6, 73, 0
8, 40140, Note_on_c, 6, 73, 100
8, 40140, Note_on_c, 6, 82, 100
8, 40170, Note_on_c, 6, 82, 0
8, 40170, Note_on_c, 6, 73, 0
8, 40170, Note_on_c, 6, 73, 100
8, 40170, Note_on_c, 6, 82, 100
8, 40200, Note_on_c, 6, 82, 0
8, 40200, Note_on_c, 6, 73, 0
8, 40200, Note_on_c, 6, 73, 100
8, 40200, Note_on_c, 6, 82, 100
8, 40230, Note_on_c, 6, 82, 0
8, 40230, Note_on_c, 6, 73, 0
8, 40230, Note_on_c, 6, 73, 100
8, 40230, Note_on_c, 6, 82, 100
8, 40260, Note_on_c, 6, 82, 0
8, 40260, Note_on_c, 6, 73, 0
8, 40260, Note_on_c, 6, 73, 100
8, 40260, Note_on_c, 6, 82, 100
8, 40290, Note_on_c, 6, 82, 0
8, 40290, Note_on_c, 6, 73, 0
8, 40290, Note_on_c, 6, 73, 100
8, 40290, Note_on_c, 6, 82, 100
8, 40320, Note_on_c, 6, 82, 0
8, 40320, Note_on_c, 6, 73, 0
8, 40320, Note_on_c, 6, 73, 100
8, 40320, Note_on_c, 6, 82, 100
8, 40350, Note_on_c, 6, 82, 0
8, 40350, Note_on_c, 6, 73, 0
8, 40350, Note_on_c, 6, 73, 100
8, 40350, Note_on_c, 6, 82, 100
8, 40380, Note_on_c, 6, 82, 0
8, 40380, Note_on_c, 6, 73, 0
8, 40380, Note_on_c, 6, 73, 100
8, 40380, Note_on_c, 6, 82, 100
8, 40410, Note_on_c, 6, 82, 0
8, 40410, Note_on_c, 6, 73, 0
8, 40410, Note_on_c, 6, 73, 100
8, 40410, Note_on_c, 6, 82, 100
8, 40440, Note_on_c, 6, 82, 0
8, 40440, Note_on_c, 6, 73, 0
8, 40440, Note_on_c, 6, 73, 100
8, 40440, Note_on_c, 6, 82, 100
8, 40470, Note_on_c, 6, 82, 0
8, 40470, Note_on_c, 6, 73, 0
8, 40470, Note_on_c, 6, 73, 100
8, 40470, Note_on_c, 6, 82, 100
8, 40500, Note_on_c, 6, 82, 0
8, 40500, Note_on_c, 6, 73, 0
8, 40500, Note_on_c, 6, 73, 100
8, 40500, Note_on_c, 6, 82, 100
8, 40530, Note_on_c, 6, 82, 0
8, 40530, Note_on_c, 6, 73, 0
8, 40530, Note_on_c, 6, 73, 100
8, 40530, Note_on_c, 6, 82, 100
8, 40560, Note_on_c, 6, 82, 0
8, 40560, Note_on_c, 6, 73, 0
8, 40560, Note_on_c, 6, 73, 100
8, 40560, Note_on_c, 6, 82, 100
8, 40590, Note_on_c, 6, 82, 0
8, 40590, Note_on_c, 6, 73, 0
8, 40590, Note_on_c, 6, 73, 100
8, 40590, Note_on_c, 6, 82, 100
8, 40620, Note_on_c, 6, 82, 0
8, 40620, Note_on_c, 6, 73, 0
8, 40620, Note_on_c, 6, 73, 100
8, 40620, Note_on_c, 6, 82, 100
8, 40650, Note_on_c, 6, 82, 0
8, 40650, Note_on_c, 6, 73, 0
8, 40650, Note_on_c, 6, 73, 100
8, 40650, Note_on_c, 6, 82, 100
8, 40680, Note_on_c, 6, 82, 0
8, 40680, Note_on_c, 6, 73, 0
8, 40680, Note_on_c, 6, 73, 100
8, 40680, Note_on_c, 6, 82, 100
8, 40710, Note_on_c, 6, 82, 0
8, 40710, Note_on_c, 6, 73, 0
8, 40710, Note_on_c, 6, 73, 100
8, 40710, Note_on_c, 6, 82, 100
8, 40740, Note_on_c, 6, 82, 0
8, 40740, Note_on_c, 6, 73, 0
8, 40740, Note_on_c, 6, 73, 100
8, 40740, Note_on_c, 6, 82, 100
8, 40770, Note_on_c, 6, 82, 0
8, 40770, Note_on_c, 6, 73, 0
8, 40770, Note_on_c, 6, 73, 100
8, 40770, Note_on_c, 6, 82, 100
8, 40800, Note_on_c, 6, 82, 0
8, 40800, Note_on_c, 6, 73, 0
8, 40800, Note_on_c, 6, 73, 100
8, 40800, Note_on_c, 6, 82, 100
8, 40830, Note_on_c, 6, 82, 0
8, 40830, Note_on_c, 6, 73, 0
8, 40830, Note_on_c, 6, 73, 100
8, 40830, Note_on_c, 6, 82, 100
8, 40860, Note_on_c, 6, 82, 0
8, 40860, Note_on_c, 6, 73, 0
8, 40860, Note_on_c, 6, 73, 100
8, 40860, Note_on_c, 6, 82, 100
8, 40890, Note_on_c, 6, 82, 0
8, 40890, Note_on_c, 6, 73, 0
8, 40890, Note_on_c, 6, 73, 100
8, 40890, Note_on_c, 6, 82, 100
8, 40920, Note_on_c, 6, 82, 0
8, 40920, Note_on_c, 6, 73, 0
8, 40920, Note_on_c, 6, 73, 100
8, 40920, Note_on_c, 6, 82, 100
8, 40950, Note_on_c, 6, 82, 0
8, 40950, Note_on_c, 6, 73, 0
8, 40950, Note_on_c, 6, 73, 100
8, 40950, Note_on_c, 6, 82, 100
8, 40980, Note_on_c, 6, 82, 0
8, 40980, Note_on_c, 6, 73, 0
8, 40980, Note_on_c, 6, 73, 100
8, 40980, Note_on_c, 6, 82, 100
8, 41010, Note_on_c, 6, 82, 0
8, 41010, Note_on_c, 6, 73, 0
8, 41010, Note_on_c, 6, 73, 100
8, 41010, Note_on_c, 6, 82, 100
8, 41040, Note_on_c, 6, 82, 0
8, 41040, Note_on_c, 6, 73, 0
8, 41040, Note_on_c, 6, 73, 100
8, 41040, Note_on_c, 6, 82, 100
8, 41100, Note_on_c, 6, 82, 0
8, 41100, Note_on_c, 6, 73, 0
8, 42060, Note_on_c, 6, 74, 50
8, 42090, Note_on_c, 6, 74, 0
8, 42120, Note_on_c, 6, 83, 50
8, 42150, Note_on_c, 6, 83, 0
8, 42180, Note_on_c, 6, 74, 50
8, 42210, Note_on_c, 6, 74, 0
8, 42240, Note_on_c, 6, 83, 50
8, 42540, Note_on_c, 6, 83, 0
8, 42540, Note_on_c, 6, 74, 50
8, 42570, Note_on_c, 6, 74, 0
8, 42600, Note_on_c, 6, 83, 50
8, 42630, Note_on_c, 6, 83, 0
8, 42660, Note_on_c, 6, 74, 50
8, 42690, Note_on_c, 6, 74, 0
8, 42720, Note_on_c, 6, 83, 50
8, 42960, Note_on_c, 6, 83, 0
8, 43020, Note_on_c, 6, 72, 50
8, 43050, Note_on_c, 6, 72, 0
8, 43080, Note_on_c, 6, 81, 50
8, 43110, Note_on_c, 6, 81, 0
8, 43140, Note_on_c, 6, 72, 50
8, 43170, Note_on_c, 6, 72, 0
8, 43200, Note_on_c, 6, 81, 50
8, 43500, Note_on_c, 6, 81, 0
8, 43500, Note_on_c, 6, 72, 50
8, 43530, Note_on_c, 6, 72, 0
8, 43560, Note_on_c, 6, 81, 50
8, 43590, Note_on_c, 6, 81, 0
8, 43620, Note_on_c, 6, 72, 50
8, 43650, Note_on_c, 6, 72, 0
8, 43680, Note_on_c, 6, 81, 50
8, 43920, Note_on_c, 6, 81, 0
8, 43980, Note_on_c, 6, 79, 100
8, 44010, Note_on_c, 6, 79, 0
8, 44040, Note_on_c, 6, 83, 100
8, 44070, Note_on_c, 6, 83, 0
8, 44100, Note_on_c, 6, 79, 100
8, 44130, Note_on_c, 6, 79, 0
8, 44160, Note_on_c, 6, 86, 100
8, 44460, Note_on_c, 6, 86, 0
8, 44460, Note_on_c, 6, 84, 100
8, 44580, Note_on_c, 6, 84, 0
8, 44580, Note_on_c, 6, 83, 100
8, 44700, Note_on_c, 6, 83, 0
8, 44700, Note_on_c, 6, 81, 100
8, 44820, Note_on_c, 6, 81, 0
8, 44820, Note_on_c, 6, 79, 100
8, 44880, Note_on_c, 6, 79, 0
8, 44880, Note_on_c, 6, 78, 100
8, 45000, Note_on_c, 6, 78, 0
8, 45180, Note_on_c, 6, 74, 100
8, 45210, Note_on_c, 6, 74, 0
8, 45240, Note_on_c, 6, 78, 100
8, 45270, Note_on_c, 6, 78, 0
8, 45300, Note_on_c, 6, 74, 100
8, 45330, Note_on_c, 6, 74, 0
8, 45360, Note_on_c, 6, 86, 100
8, 45420, Note_on_c, 6, 86, 0
8, 45480, Note_on_c, 6, 84, 100
8, 45540, Note_on_c, 6, 84, 0
8, 45600, Note_on_c, 6, 83, 100
8, 45660, Note_on_c, 6, 83, 0
8, 45720, Note_on_c, 6, 81, 100
8, 45780, Note_on_c, 6, 81, 0
8, 45840, Note_on_c, 6, 80, 100
8, 45900, Note_on_c, 6, 80, 0
8, 45900, Note_on_c, 6, 76, 100
8, 45930, Note_on_c, 6, 76, 0
8, 45960, Note_on_c, 6, 80, 100
8, 45990, Note_on_c, 6, 80, 0
8, 46020, Note_on_c, 6, 76, 100
8, 46050, Note_on_c, 6, 76, 0
8, 46080, Note_on_c, 6, 88, 100
8, 46380, Note_on_c, 6, 88, 0
8, 46380, Note_on_c, 6, 86, 100
8, 46500, Note_on_c, 6, 86, 0
8, 46500, Note_on_c, 6, 84, 100
8, 46620, Note_on_c, 6, 84, 0
8, 46620, Note_on_c, 6, 83, 100
8, 46740, Note_on_c, 6, 83, 0
8, 46740, Note_on_c, 6, 81, 100
8, 46800, Note_on_c, 6, 81, 0
8, 46800, Note_on_c, 6, 80, 100
8, 46920, Note_on_c, 6, 80, 0
8, 47100, Note_on_c, 6, 76, 100
8, 47130, Note_on_c, 6, 76, 0
8, 47160, Note_on_c, 6, 80, 100
8, 47190, Note_on_c, 6, 80, 0
8, 47220, Note_on_c, 6, 76, 100
8, 47250, Note_on_c, 6, 76, 0
8, 47280, Note_on_c, 6, 88, 100
8, 47340, Note_on_c, 6, 88, 0
8, 47400, Note_on_c, 6, 86, 100
8, 47460, Note_on_c, 6, 86, 0
8, 47520, Note_on_c, 6, 84, 100
8, 47580, Note_on_c, 6, 84, 0
8, 47640, Note_on_c, 6, 83, 100
8, 47700, Note_on_c, 6, 83, 0
8, 47760, Note_on_c, 6, 82, 100
8, 47820, Note_on_c, 6, 82, 0
8, 47820, Note_on_c, 6, 78, 100
8, 47850, Note_on_c, 6, 78, 0
8, 47880, Note_on_c, 6, 82, 100
8, 47910, Note_on_c, 6, 82, 0
8, 47940, Note_on_c, 6, 78, 100
8, 47970, Note_on_c, 6, 78, 0
8, 48000, Note_on_c, 6, 90, 100
8, 48300, Note_on_c, 6, 90, 0
8, 48300, Note_on_c, 6, 88, 100
8, 48420, Note_on_c, 6, 88, 0
8, 48420, Note_on_c, 6, 86, 100
8, 48540, Note_on_c, 6, 86, 0
8, 48540, Note_on_c, 6, 85, 100
8, 48660, Note_on_c, 6, 85, 0
8, 48660, Note_on_c, 6, 83, 100
8, 48720, Note_on_c, 6, 83, 0
8, 48720, Note_on_c, 6, 84, 100
8, 48960, Note_on_c, 6, 84, 0
8, 48960, Note_on_c, 6, 82, 100
8, 49200, Note_on_c, 6, 82, 0
8, 49200, Note_on_c, 6, 83, 100
8, 49320, Note_on_c, 6, 83, 0
8, 49440, Note_on_c, 6, 62, 50
8, 49560, Note_on_c, 6, 62, 0
8, 49680, Note_on_c, 6, 61, 50
8, 49800, Note_on_c, 6, 61, 0
8, 49920, Note_on_c, 6, 61, 50
8, 50040, Note_on_c, 6, 61, 0
8, 50160, Note_on_c, 6, 71, 50
8, 50640, Note_on_c, 6, 71, 0
8, 50640, Note_on_c, 6, 69, 50
8, 51120, Note_on_c, 6, 69, 0
8, 51120, Note_on_c, 6, 67, 50
8, 51600, Note_on_c, 6, 67, 0
8, 51600, Note_on_c, 6, 66, 50
8, 51660, Note_on_c, 6, 66, 0
8, 51660, Note_on_c, 6, 74, 50
8, 51690, Note_on_c, 6, 74, 0
8, 51720, Note_on_c, 6, 78, 50
8, 51750, Note_on_c, 6, 78, 0
8, 51780, Note_on_c, 6, 74, 50
8, 51810, Note_on_c, 6, 74, 0
8, 51840, Note_on_c, 6, 81, 50
8, 52140, Note_on_c, 6, 81, 0
8, 52140, Note_on_c, 6, 79, 50
8, 52260, Note_on_c, 6, 79, 0
8, 52260, Note_on_c, 6, 78, 50
8, 52380, Note_on_c, 6, 78, 0
8, 52380, Note_on_c, 6, 76, 50
8, 52500, Note_on_c, 6, 76, 0
8, 52500, Note_on_c, 6, 75, 50
8, 52560, Note_on_c, 6, 75, 0
8, 52560, Note_on_c, 6, 78, 50
8, 52620, Note_on_c, 6, 78, 0
8, 52620, Note_on_c, 6, 76, 50
8, 52650, Note_on_c, 6, 76, 0
8, 52740, Note_on_c, 6, 75, 50
8, 52800, Note_on_c, 6, 75, 0
8, 52800, Note_on_c, 6, 78, 50
8, 52860, Note_on_c, 6, 78, 0
8, 52860, Note_on_c, 6, 76, 50
8, 52890, Note_on_c, 6, 76, 0
8, 52980, Note_on_c, 6, 75, 50
8, 53040, Note_on_c, 6, 75, 0
8, 53040, Note_on_c, 6, 78, 50
8, 53100, Note_on_c, 6, 78, 0
8, 53100, Note_on_c, 6, 76, 50
8, 53130, Note_on_c, 6, 76, 0
8, 53160, Note_on_c, 6, 76, 50
8, 53190, Note_on_c, 6, 76, 0
8, 53220, Note_on_c, 6, 75, 50
8, 53250, Note_on_c, 6, 75, 0
8, 53280, Note_on_c, 6, 78, 50
8, 53340, Note_on_c, 6, 78, 0
8, 53340, Note_on_c, 6, 76, 50
8, 53370, Note_on_c, 6, 76, 0
8, 53400, Note_on_c, 6, 76, 50
8, 53430, Note_on_c, 6, 76, 0
8, 53460, Note_on_c, 6, 76, 50
8, 53490, Note_on_c, 6, 76, 0
8, 54480, Note_on_c, 6, 74, 100
8, 54480, Note_on_c, 6, 82, 100
8, 54510, Note_on_c, 6, 82, 0
8, 54510, Note_on_c, 6, 74, 0
8, 54510, Note_on_c, 6, 74, 100
8, 54510, Note_on_c, 6, 82, 100
8, 54540, Note_on_c, 6, 82, 0
8, 54540, Note_on_c, 6, 74, 0
8, 54540, Note_on_c, 6, 74, 100
8, 54540, Note_on_c, 6, 82, 100
8, 54570, Note_on_c, 6, 82, 0
8, 54570, Note_on_c, 6, 74, 0
8, 54570, Note_on_c, 6, 74, 100
8, 54570, Note_on_c, 6, 82, 100
8, 54600, Note_on_c, 6, 82, 0
8, 54600, Note_on_c, 6, 74, 0
8, 54600, Note_on_c, 6, 74, 100
8, 54600, Note_on_c, 6, 82, 100
8, 54630, Note_on_c, 6, 82, 0
8, 54630, Note_on_c, 6, 74, 0
8, 54630, Note_on_c, 6, 74, 100
8, 54630, Note_on_c, 6, 82, 100
8, 54660, Note_on_c, 6, 82, 0
8, 54660, Note_on_c, 6, 74, 0
8, 54660, Note_on_c, 6, 74, 100
8, 54660, Note_on_c, 6, 82, 100
8, 54690, Note_on_c, 6, 82, 0
8, 54690, Note_on_c, 6, 74, 0
8, 54690, Note_on_c, 6, 74, 100
8, 54690, Note_on_c, 6, 82, 100
8, 54720, Note_on_c, 6, 82, 0
8, 54720, Note_on_c, 6, 74, 0
8, 54720, Note_on_c, 6, 74, 100
8, 54720, Note_on_c, 6, 82, 100
8, 54750, Note_on_c, 6, 82, 0
8, 54750, Note_on_c, 6, 74, 0
8, 54750, Note_on_c, 6, 74, 100
8, 54750, Note_on_c, 6, 82, 100
8, 54780, Note_on_c, 6, 82, 0
8, 54780, Note_on_c, 6, 74, 0
8, 54780, Note_on_c, 6, 74, 100
8, 54780, Note_on_c, 6, 82, 100
8, 54810, Note_on_c, 6, 82, 0
8, 54810, Note_on_c, 6, 74, 0
8, 54810, Note_on_c, 6, 74, 100
8, 54810, Note_on_c, 6, 82, 100
8, 54840, Note_on_c, 6, 82, 0
8, 54840, Note_on_c, 6, 74, 0
8, 54840, Note_on_c, 6, 74, 100
8, 54840, Note_on_c, 6, 82, 100
8, 54870, Note_on_c, 6, 82, 0
8, 54870, Note_on_c, 6, 74, 0
8, 54870, Note_on_c, 6, 74, 100
8, 54870, Note_on_c, 6, 82, 100
8, 54900, Note_on_c, 6, 82, 0
8, 54900, Note_on_c, 6, 74, 0
8, 54900, Note_on_c, 6, 74, 100
8, 54900, Note_on_c, 6, 82, 100
8, 54930, Note_on_c, 6, 82, 0
8, 54930, Note_on_c, 6, 74, 0
8, 54930, Note_on_c, 6, 74, 100
8, 54930, Note_on_c, 6, 82, 100
8, 54960, Note_on_c, 6, 82, 0
8, 54960, Note_on_c, 6, 74, 0
8, 54960, Note_on_c, 6, 74, 100
8, 54960, Note_on_c, 6, 82, 100
8, 54990, Note_on_c, 6, 82, 0
8, 54990, Note_on_c, 6, 74, 0
8, 54990, Note_on_c, 6, 74, 100
8, 54990, Note_on_c, 6, 82, 100
8, 55020, Note_on_c, 6, 82, 0
8, 55020, Note_on_c, 6, 74, 0
8, 55020, Note_on_c, 6, 74, 100
8, 55020, Note_on_c, 6, 82, 100
8, 55050, Note_on_c, 6, 82, 0
8, 55050, Note_on_c, 6, 74, 0
8, 55050, Note_on_c, 6, 74, 100
8, 55050, Note_on_c, 6, 82, 100
8, 55080, Note_on_c, 6, 82, 0
8, 55080, Note_on_c, 6, 74, 0
8, 55080, Note_on_c, 6, 74, 100
8, 55080, Note_on_c, 6, 82, 100
8, 55110, Note_on_c, 6, 82, 0
8, 55110, Note_on_c, 6, 74, 0
8, 55110, Note_on_c, 6, 74, 100
8, 55110, Note_on_c, 6, 82, 100
8, 55140, Note_on_c, 6, 82, 0
8, 55140, Note_on_c, 6, 74, 0
8, 55140, Note_on_c, 6, 74, 100
8, 55140, Note_on_c, 6, 82, 100
8, 55170, Note_on_c, 6, 82, 0
8, 55170, Note_on_c, 6, 74, 0
8, 55170, Note_on_c, 6, 74, 100
8, 55170, Note_on_c, 6, 82, 100
8, 55200, Note_on_c, 6, 82, 0
8, 55200, Note_on_c, 6, 74, 0
8, 55200, Note_on_c, 6, 74, 100
8, 55200, Note_on_c, 6, 82, 100
8, 55230, Note_on_c, 6, 82, 0
8, 55230, Note_on_c, 6, 74, 0
8, 55230, Note_on_c, 6, 74, 100
8, 55230, Note_on_c, 6, 82, 100
8, 55260, Note_on_c, 6, 82, 0
8, 55260, Note_on_c, 6, 74, 0
8, 55260, Note_on_c, 6, 74, 100
8, 55260, Note_on_c, 6, 82, 100
8, 55290, Note_on_c, 6, 82, 0
8, 55290, Note_on_c, 6, 74, 0
8, 55290, Note_on_c, 6, 74, 100
8, 55290, Note_on_c, 6, 82, 100
8, 55320, Note_on_c, 6, 82, 0
8, 55320, Note_on_c, 6, 74, 0
8, 55320, Note_on_c, 6, 74, 100
8, 55320, Note_on_c, 6, 82, 100
8, 55350, Note_on_c, 6, 82, 0
8, 55350, Note_on_c, 6, 74, 0
8, 55350, Note_on_c, 6, 74, 100
8, 55350, Note_on_c, 6, 82, 100
8, 55380, Note_on_c, 6, 82, 0
8, 55380, Note_on_c, 6, 74, 0
8, 55380, Note_on_c, 6, 74, 100
8, 55380, Note_on_c, 6, 82, 100
8, 55410, Note_on_c, 6, 82, 0
8, 55410, Note_on_c, 6, 74, 0
8, 55410, Note_on_c, 6, 74, 100
8, 55410, Note_on_c, 6, 82, 100
8, 55440, Note_on_c, 6, 82, 0
8, 55440, Note_on_c, 6, 74, 0
8, 55440, Note_on_c, 6, 74, 100
8, 55440, Note_on_c, 6, 82, 100
8, 55500, Note_on_c, 6, 82, 0
8, 55500, Note_on_c, 6, 74, 0
8, 56400, Note_on_c, 6, 72, 100
8, 56400, Note_on_c, 6, 81, 100
8, 56430, Note_on_c, 6, 81, 0
8, 56430, Note_on_c, 6, 72, 0
8, 56430, Note_on_c, 6, 72, 100
8, 56430, Note_on_c, 6, 81, 100
8, 56460, Note_on_c, 6, 81, 0
8, 56460, Note_on_c, 6, 72, 0
8, 56460, Note_on_c, 6, 72, 100
8, 56460, Note_on_c, 6, 81, 100
8, 56490, Note_on_c, 6, 81, 0
8, 56490, Note_on_c, 6, 72, 0
8, 56490, Note_on_c, 6, 72, 100
8, 56490, Note_on_c, 6, 81, 100
8, 56520, Note_on_c, 6, 81, 0
8, 56520, Note_on_c, 6, 72, 0
8, 56520, Note_on_c, 6, 72, 100
8, 56520, Note_on_c, 6, 81, 100
8, 56550, Note_on_c, 6, 81, 0
8, 56550, Note_on_c, 6, 72, 0
8, 56550, Note_on_c, 6, 72, 100
8, 56550, Note_on_c, 6, 81, 100
8, 56580, Note_on_c, 6, 81, 0
8, 56580, Note_on_c, 6, 72, 0
8, 56580, Note_on_c, 6, 72, 100
8, 56580, Note_on_c, 6, 81, 100
8, 56610, Note_on_c, 6, 81, 0
8, 56610, Note_on_c, 6, 72, 0
8, 56610, Note_on_c, 6, 72, 100
8, 56610, Note_on_c, 6, 81, 100
8, 56640, Note_on_c, 6, 81, 0
8, 56640, Note_on_c, 6, 72, 0
8, 56640, Note_on_c, 6, 72, 100
8, 56640, Note_on_c, 6, 81, 100
8, 56670, Note_on_c, 6, 81, 0
8, 56670, Note_on_c, 6, 72, 0
8, 56670, Note_on_c, 6, 72, 100
8, 56670, Note_on_c, 6, 81, 100
8, 56700, Note_on_c, 6, 81, 0
8, 56700, Note_on_c, 6, 72, 0
8, 56700, Note_on_c, 6, 72, 100
8, 56700, Note_on_c, 6, 81, 100
8, 56730, Note_on_c, 6, 81, 0
8, 56730, Note_on_c, 6, 72, 0
8, 56730, Note_on_c, 6, 72, 100
8, 56730, Note_on_c, 6, 81, 100
8, 56760, Note_on_c, 6, 81, 0
8, 56760, Note_on_c, 6, 72, 0
8, 56760, Note_on_c, 6, 72, 100
8, 56760, Note_on_c, 6, 81, 100
8, 56790, Note_on_c, 6, 81, 0
8, 56790, Note_on_c, 6, 72, 0
8, 56790, Note_on_c, 6, 72, 100
8, 56790, Note_on_c, 6, 81, 100
8, 56820, Note_on_c, 6, 81, 0
8, 56820, Note_on_c, 6, 72, 0
8, 56820, Note_on_c, 6, 72, 100
8, 56820, Note_on_c, 6, 81, 100
8, 56850, Note_on_c, 6, 81, 0
8, 56850, Note_on_c, 6, 72, 0
8, 56850, Note_on_c, 6, 72, 100
8, 56850, Note_on_c, 6, 81, 100
8, 56880, Note_on_c, 6, 81, 0
8, 56880, Note_on_c, 6, 72, 0
8, 56880, Note_on_c, 6, 72, 100
8, 56880, Note_on_c, 6, 81, 100
8, 56910, Note_on_c, 6, 81, 0
8, 56910, Note_on_c, 6, 72, 0
8, 56910, Note_on_c, 6, 72, 100
8, 56910, Note_on_c, 6, 81, 100
8, 56940, Note_on_c, 6, 81, 0
8, 56940, Note_on_c, 6, 72, 0
8, 56940, Note_on_c, 6, 72, 100
8, 56940, Note_on_c, 6, 81, 100
8, 56970, Note_on_c, 6, 81, 0
8, 56970, Note_on_c, 6, 72, 0
8, 56970, Note_on_c, 6, 72, 100
8, 56970, Note_on_c, 6, 81, 100
8, 57000, Note_on_c, 6, 81, 0
8, 57000, Note_on_c, 6, 72, 0
8, 57000, Note_on_c, 6, 72, 100
8, 57000, Note_on_c, 6, 81, 100
8, 57030, Note_on_c, 6, 81, 0
8, 57030, Note_on_c, 6, 72, 0
8, 57030, Note_on_c, 6, 72, 100
8, 57030, Note_on_c, 6, 81, 100
8, 57060, Note_on_c, 6, 81, 0
8, 57060, Note_on_c, 6, 72, 0
8, 57060, Note_on_c, 6, 72, 100
8, 57060, Note_on_c, 6, 81, 100
8, 57090, Note_on_c, 6, 81, 0
8, 57090, Note_on_c, 6, 72, 0
8, 57090, Note_on_c, 6, 72, 100
8, 57090, Note_on_c, 6, 81, 100
8, 57120, Note_on_c, 6, 81, 0
8, 57120, Note_on_c, 6, 72, 0
8, 57120, Note_on_c, 6, 72, 100
8, 57120, Note_on_c, 6, 81, 100
8, 57150, Note_on_c, 6, 81, 0
8, 57150, Note_on_c, 6, 72, 0
8, 57150, Note_on_c, 6, 72, 100
8, 57150, Note_on_c, 6, 81, 100
8, 57180, Note_on_c, 6, 81, 0
8, 57180, Note_on_c, 6, 72, 0
8, 57180, Note_on_c, 6, 72, 100
8, 57180, Note_on_c, 6, 81, 100
8, 57210, Note_on_c, 6, 81, 0
8, 57210, Note_on_c, 6, 72, 0
8, 57210, Note_on_c, 6, 72, 100
8, 57210, Note_on_c, 6, 81, 100
8, 57240, Note_on_c, 6, 81, 0
8, 57240, Note_on_c, 6, 72, 0
8, 57240, Note_on_c, 6, 72, 100
8, 57240, Note_on_c, 6, 81, 100
8, 57270, Note_on_c, 6, 81, 0
8, 57270, Note_on_c, 6, 72, 0
8, 57270, Note_on_c, 6, 72, 100
8, 57270, Note_on_c, 6, 81, 100
8, 57300, Note_on_c, 6, 81, 0
8, 57300, Note_on_c, 6, 72, 0
8, 57300, Note_on_c, 6, 72, 100
8, 57300, Note_on_c, 6, 81, 100
8, 57330, Note_on_c, 6, 81, 0
8, 57330, Note_on_c, 6, 72, 0
8, 57330, Note_on_c, 6, 72, 100
8, 57330, Note_on_c, 6, 81, 100
8, 57360, Note_on_c, 6, 81, 0
8, 57360, Note_on_c, 6, 72, 0
8, 57360, Note_on_c, 6, 72, 100
8, 57360, Note_on_c, 6, 81, 100
8, 57420, Note_on_c, 6, 81, 0
8, 57420, Note_on_c, 6, 72, 0
8, 58380, Note_on_c, 6, 74, 100
8, 58410, Note_on_c, 6, 74, 0
8, 58440, Note_on_c, 6, 77, 100
8, 58470, Note_on_c, 6, 77, 0
8, 58500, Note_on_c, 6, 74, 100
8, 58530, Note_on_c, 6, 74, 0
8, 58560, Note_on_c, 6, 86, 100
8, 58860, Note_on_c, 6, 86, 0
8, 58860, Note_on_c, 6, 74, 100
8, 58890, Note_on_c, 6, 74, 0
8, 58920, Note_on_c, 6, 77, 100
8, 58950, Note_on_c, 6, 77, 0
8, 58980, Note_on_c, 6, 74, 100
8, 59010, Note_on_c, 6, 74, 0
8, 59040, Note_on_c, 6, 86, 100
8, 59340, Note_on_c, 6, 86, 0
8, 59340, Note_on_c, 6, 74, 100
8, 59370, Note_on_c, 6, 74, 0
8, 59400, Note_on_c, 6, 77, 100
8, 59430, Note_on_c, 6, 77, 0
8, 59460, Note_on_c, 6, 74, 100
8, 59490, Note_on_c, 6, 74, 0
8, 59520, Note_on_c, 6, 86, 100
8, 59820, Note_on_c, 6, 86, 0
8, 59820, Note_on_c, 6, 74, 100
8, 59850, Note_on_c, 6, 74, 0
8, 59880, Note_on_c, 6, 77, 100
8, 59910, Note_on_c, 6, 77, 0
8, 59940, Note_on_c, 6, 74, 100
8, 59970, Note_on_c, 6, 74, 0
8, 60000, Note_on_c, 6, 86, 100
8, 60180, Note_on_c, 6, 86, 0
8, 60180, Note_on_c, 6, 86, 100
8, 60240, Note_on_c, 6, 86, 0
8, 60240, Note_on_c, 6, 85, 100
8, 60300, Note_on_c, 6, 85, 0
8, 60300, Note_on_c, 6, 88, 100
8, 60360, Note_on_c, 6, 88, 0
8, 60360, Note_on_c, 6, 81, 100
8, 60420, Note_on_c, 6, 81, 0
8, 60420, Note_on_c, 6, 85, 100
8, 60480, Note_on_c, 6, 85, 0
8, 60480, Note_on_c, 6, 86, 100
8, 60540, Note_on_c, 6, 86, 0
8, 60540, Note_on_c, 6, 69, 100
8, 60600, Note_on_c, 6, 69, 0
8, 60600, Note_on_c, 6, 86, 100
8, 60660, Note_on_c, 6, 86, 0
8, 60660, Note_on_c, 6, 86, 100
8, 60720, Note_on_c, 6, 86, 0
8, 60720, Note_on_c, 6, 85, 100
8, 60780, Note_on_c, 6, 85, 0
8, 60780, Note_on_c, 6, 88, 100
8, 60840, Note_on_c, 6, 88, 0
8, 60840, Note_on_c, 6, 69, 100
8, 60900, Note_on_c, 6, 69, 0
8, 60900, Note_on_c, 6, 85, 100
8, 60960, Note_on_c, 6, 85, 0
8, 60960, Note_on_c, 6, 86, 100
8, 61020, Note_on_c, 6, 86, 0
8, 61020, Note_on_c, 6, 69, 100
8, 61080, Note_on_c, 6, 69, 0
8, 61080, Note_on_c, 6, 86, 100
8, 61140, Note_on_c, 6, 86, 0
8, 61140, Note_on_c, 6, 86, 100
8, 61200, Note_on_c, 6, 86, 0
8, 61200, Note_on_c, 6, 85, 100
8, 61230, Note_on_c, 6, 85, 0
8, 61260, Note_on_c, 6, 88, 100
8, 61290, Note_on_c, 6, 88, 0
8, 61320, Note_on_c, 6, 81, 100
8, 61350, Note_on_c, 6, 81, 0
8, 61380, Note_on_c, 6, 79, 100
8, 61410, Note_on_c, 6, 79, 0
8, 61440, Note_on_c, 6, 77, 100
8, 61500, Note_on_c, 6, 77, 0
8, 61500, Note_on_c, 6, 81, 100
8, 61560, Note_on_c, 6, 81, 0
8, 61560, Note_on_c, 6, 77, 100
8, 61620, Note_on_c, 6, 77, 0
8, 61620, Note_on_c, 6, 74, 100
8, 61680, Note_on_c, 6, 74, 0
8, 61680, Note_on_c, 6, 73, 100
8, 61740, Note_on_c, 6, 73, 0
8, 61740, Note_on_c, 6, 76, 100
8, 61800, Note_on_c, 6, 76, 0
8, 61800, Note_on_c, 6, 69, 100
8, 61860, Note_on_c, 6, 69, 0
8, 61860, Note_on_c, 6, 67, 100
8, 61920, Note_on_c, 6, 67, 0
8, 61920, Note_on_c, 6, 65, 100
8, 61980, Note_on_c, 6, 65, 0
8, 61980, Note_on_c, 6, 69, 100
8, 62040, Note_on_c, 6, 69, 0
8, 62040, Note_on_c, 6, 65, 100
8, 62100, Note_on_c, 6, 65, 0
8, 62100, Note_on_c, 6, 62, 100
8, 62160, Note_on_c, 6, 62, 0
8, 62160, Note_on_c, 6, 57, 100
8, 62220, Note_on_c, 6, 57, 0
8, 62220, Note_on_c, 6, 69, 50
8, 62265, Note_on_c, 6, 69, 0
8, 62280, Note_on_c, 6, 69, 50
8, 62325, Note_on_c, 6, 69, 0
8, 62340, Note_on_c, 6, 69, 50
8, 62385, Note_on_c, 6, 69, 0
8, 62400, Note_on_c, 6, 69, 50
8, 62445, Note_on_c, 6, 69, 0
8, 62460, Note_on_c, 6, 81, 50
8, 62500, Note_on_c, 6, 81, 0
8, 62520, Note_on_c, 6, 81, 50
8, 62560, Note_on_c, 6, 81, 0
8, 62580, Note_on_c, 6, 81, 50
8, 62620, Note_on_c, 6, 81, 0
8, 62640, Note_on_c, 6, 81, 50
8, 62700, Note_on_c, 6, 81, 0
8, 62700, Note_on_c, 6, 82, 50
8, 62760, Note_on_c, 6, 82, 0
8, 62760, Note_on_c, 6, 83, 50
8, 62820, Note_on_c, 6, 83, 0
8, 62820, Note_on_c, 6, 79, 50
8, 62880, Note_on_c, 6, 79, 0
8, 62880, Note_on_c, 6, 78, 50
8, 63060, Note_on_c, 6, 78, 0
8, 63060, Note_on_c, 6, 79, 50
8, 63120, Note_on_c, 6, 79, 0
8, 63120, Note_on_c, 6, 79, 50
8, 63180, Note_on_c, 6, 79, 0
8, 63180, Note_on_c, 6, 78, 50
8, 63210, Note_on_c, 6, 78, 0
8, 63240, Note_on_c, 6, 78, 50
8, 63270, Note_on_c, 6, 78, 0
8, 63300, Note_on_c, 6, 78, 50
8, 63330, Note_on_c, 6, 78, 0
8, 63360, Note_on_c, 6, 78, 50
8, 63420, Note_on_c, 6, 78, 0
8, 63420, Note_on_c, 6, 76, 50
8, 63450, Note_on_c, 6, 76, 0
8, 63480, Note_on_c, 6, 76, 50
8, 63510, Note_on_c, 6, 76, 0
8, 63540, Note_on_c, 6, 76, 50
8, 63570, Note_on_c, 6, 76, 0
8, 63600, Note_on_c, 6, 76, 50
8, 63660, Note_on_c, 6, 76, 0
8, 63660, Note_on_c, 6, 74, 50
8, 63690, Note_on_c, 6, 74, 0
8, 63720, Note_on_c, 6, 74, 50
8, 63750, Note_on_c, 6, 74, 0
8, 63780, Note_on_c, 6, 74, 50
8, 63810, Note_on_c, 6, 74, 0
8, 63840, Note_on_c, 6, 81, 50
8, 64020, Note_on_c, 6, 81, 0
8, 64020, Note_on_c, 6, 83, 50
8, 64080, Note_on_c, 6, 83, 0
8, 64080, Note_on_c, 6, 83, 50
8, 64140, Note_on_c, 6, 83, 0
8, 64140, Note_on_c, 6, 81, 50
8, 64170, Note_on_c, 6, 81, 0
8, 64200, Note_on_c, 6, 81, 50
8, 64230, Note_on_c, 6, 81, 0
8, 64260, Note_on_c, 6, 81, 50
8, 64290, Note_on_c, 6, 81, 0
8, 64320, Note_on_c, 6, 81, 50
8, 64380, Note_on_c, 6, 81, 0
8, 64380, Note_on_c, 6, 79, 50
8, 64410, Note_on_c, 6, 79, 0
8, 64440, Note_on_c, 6, 79, 50
8, 64470, Note_on_c, 6, 79, 0
8, 64500, Note_on_c, 6, 79, 50
8, 64530, Note_on_c, 6, 79, 0
8, 64560, Note_on_c, 6, 79, 50
8, 64620, Note_on_c, 6, 79, 0
8, 64620, Note_on_c, 6, 78, 50
8, 64650, Note_on_c, 6, 78, 0
8, 64680, Note_on_c, 6, 78, 50
8, 64710, Note_on_c, 6, 78, 0
8, 64740, Note_on_c, 6, 78, 50
8, 64770, Note_on_c, 6, 78, 0
8, 65880, Note_on_c, 6, 86, 50
8, 65970, Note_on_c, 6, 86, 0
8, 65970, Note_on_c, 6, 85, 50
8, 66000, Note_on_c, 6, 85, 0
8, 66000, Note_on_c, 6, 83, 50
8, 66060, Note_on_c, 6, 83, 0
8, 66120, Note_on_c, 6, 83, 50
8, 66210, Note_on_c, 6, 83, 0
8, 66210, Note_on_c, 6, 81, 50
8, 66240, Note_on_c, 6, 81, 0
8, 66240, Note_on_c, 6, 79, 50
8, 66300, Note_on_c, 6, 79, 0
8, 66360, Note_on_c, 6, 78, 50
8, 66420, Note_on_c, 6, 78, 0
8, 66480, Note_on_c, 6, 76, 50
8, 66540, Note_on_c, 6, 76, 0
8, 66540, Note_on_c, 6, 69, 50
8, 66600, Note_on_c, 6, 69, 0
8, 66600, Note_on_c, 6, 68, 50
8, 66660, Note_on_c, 6, 68, 0
8, 66660, Note_on_c, 6, 67, 50
8, 66720, Note_on_c, 6, 67, 0
8, 66720, Note_on_c, 6, 66, 50
8, 66900, Note_on_c, 6, 66, 0
8, 66900, Note_on_c, 6, 67, 50
8, 66960, Note_on_c, 6, 67, 0
8, 66960, Note_on_c, 6, 67, 50
8, 67020, Note_on_c, 6, 67, 0
8, 67020, Note_on_c, 6, 66, 50
8, 67050, Note_on_c, 6, 66, 0
8, 67080, Note_on_c, 6, 66, 50
8, 67110, Note_on_c, 6, 66, 0
8, 67140, Note_on_c, 6, 66, 50
8, 67170, Note_on_c, 6, 66, 0
8, 67200, Note_on_c, 6, 66, 50
8, 67260, Note_on_c, 6, 66, 0
8, 67260, Note_on_c, 6, 64, 50
8, 67290, Note_on_c, 6, 64, 0
8, 67320, Note_on_c, 6, 64, 50
8, 67350, Note_on_c, 6, 64, 0
8, 67380, Note_on_c, 6, 64, 50
8, 67410, Note_on_c, 6, 64, 0
8, 67440, Note_on_c, 6, 64, 50
8, 67500, Note_on_c, 6, 64, 0
8, 67500, Note_on_c, 6, 62, 50
8, 67530, Note_on_c, 6, 62, 0
8, 67560, Note_on_c, 6, 62, 50
8, 67590, Note_on_c, 6, 62, 0
8, 67620, Note_on_c, 6, 62, 50
8, 67650, Note_on_c, 6, 62, 0
8, 67680, Note_on_c, 6, 69, 50
8, 67860, Note_on_c, 6, 69, 0
8, 67860, Note_on_c, 6, 71, 50
8, 67920, Note_on_c, 6, 71, 0
8, 67920, Note_on_c, 6, 71, 50
8, 67980, Note_on_c, 6, 71, 0
8, 67980, Note_on_c, 6, 69, 50
8, 68010, Note_on_c, 6, 69, 0
8, 68040, Note_on_c, 6, 69, 50
8, 68070, Note_on_c, 6, 69, 0
8, 68100, Note_on_c, 6, 69, 50
8, 68130, Note_on_c, 6, 69, 0
8, 68160, Note_on_c, 6, 69, 50
8, 68220, Note_on_c, 6, 69, 0
8, 68220, Note_on_c, 6, 67, 50
8, 68250, Note_on_c, 6, 67, 0
8, 68280, Note_on_c, 6, 67, 50
8, 68310, Note_on_c, 6, 67, 0
8, 68340, Note_on_c, 6, 67, 50
8, 68370, Note_on_c, 6, 67, 0
8, 68400, Note_on_c, 6, 67, 50
8, 68460, Note_on_c, 6, 67, 0
8, 68460, Note_on_c, 6, 66, 50
8, 68490, Note_on_c, 6, 66, 0
8, 68520, Note_on_c, 6, 66, 50
8, 68550, Note_on_c, 6, 66, 0
8, 68580, Note_on_c, 6, 66, 50
8, 68610, Note_on_c, 6, 66, 0
8, 69720, Note_on_c, 6, 86, 50
8, 69810, Note_on_c, 6, 86, 0
8, 69810, Note_on_c, 6, 85, 50
8, 69840, Note_on_c, 6, 85, 0
8, 69840, Note_on_c, 6, 83, 50
8, 69900, Note_on_c, 6, 83, 0
8, 69960, Note_on_c, 6, 83, 50
8, 70050, Note_on_c, 6, 83, 0
8, 70050, Note_on_c, 6, 81, 50
8, 70080, Note_on_c, 6, 81, 0
8, 70080, Note_on_c, 6, 79, 50
8, 70140, Note_on_c, 6, 79, 0
8, 70200, Note_on_c, 6, 78, 50
8, 70260, Note_on_c, 6, 78, 0
8, 70320, Note_on_c, 6, 79, 50
8, 70380, Note_on_c, 6, 79, 0
8, 70440, Note_on_c, 6, 76, 50
8, 70500, Note_on_c, 6, 76, 0
8, 70560, Note_on_c, 6, 74, 50
8, 70680, Note_on_c, 6, 74, 0
8, 72540, Note_on_c, 6, 74, 50
8, 72570, Note_on_c, 6, 74, 0
8, 72600, Note_on_c, 6, 78, 50
8, 72630, Note_on_c, 6, 78, 0
8, 72660, Note_on_c, 6, 74, 50
8, 72690, Note_on_c, 6, 74, 0
8, 72720, Note_on_c, 6, 81, 50
8, 73020, Note_on_c, 6, 81, 0
8, 73020, Note_on_c, 6, 79, 50
8, 73140, Note_on_c, 6, 79, 0
8, 73140, Note_on_c, 6, 78, 50
8, 73260, Note_on_c, 6, 78, 0
8, 73260, Note_on_c, 6, 79, 50
8, 73380, Note_on_c, 6, 79, 0
8, 73380, Note_on_c, 6, 81, 50
8, 73440, Note_on_c, 6, 81, 0
8, 73440, Note_on_c, 6, 82, 100
8, 73470, Note_on_c, 6, 82, 0
8, 73500, Note_on_c, 6, 79, 100
8, 73530, Note_on_c, 6, 79, 0
8, 73560, Note_on_c, 6, 74, 100
8, 73590, Note_on_c, 6, 74, 0
8, 73620, Note_on_c, 6, 86, 100
8, 73650, Note_on_c, 6, 86, 0
8, 73680, Note_on_c, 6, 78, 100
8, 73920, Note_on_c, 6, 78, 0
8, 73980, Note_on_c, 6, 79, 100
8, 74010, Note_on_c, 6, 79, 0
8, 74040, Note_on_c, 6, 74, 100
8, 74070, Note_on_c, 6, 74, 0
8, 74100, Note_on_c, 6, 86, 100
8, 74130, Note_on_c, 6, 86, 0
8, 74160, Note_on_c, 6, 78, 100
8, 74400, Note_on_c, 6, 78, 0
8, 74460, Note_on_c, 6, 79, 100
8, 74490, Note_on_c, 6, 79, 0
8, 74520, Note_on_c, 6, 74, 100
8, 74550, Note_on_c, 6, 74, 0
8, 74580, Note_on_c, 6, 83, 100
8, 74610, Note_on_c, 6, 83, 0
8, 74640, Note_on_c, 6, 78, 100
8, 74880, Note_on_c, 6, 78, 0
8, 74880, Note_on_c, 6, 79, 100
8, 74910, Note_on_c, 6, 79, 0
8, 74910, Note_on_c, 6, 79, 100
8, 74940, Note_on_c, 6, 79, 0
8, 74940, Note_on_c, 6, 79, 100
8, 74970, Note_on_c, 6, 79, 0
8, 74970, Note_on_c, 6, 79, 100
8, 75000, Note_on_c, 6, 79, 0
8, 75000, Note_on_c, 6, 79, 100
8, 75030, Note_on_c, 6, 79, 0
8, 75030, Note_on_c, 6, 79, 100
8, 75060, Note_on_c, 6, 79, 0
8, 75060, Note_on_c, 6, 79, 100
8, 75090, Note_on_c, 6, 79, 0
8, 75090, Note_on_c, 6, 79, 100
8, 75120, Note_on_c, 6, 79, 0
8, 75120, Note_on_c, 6, 79, 100
8, 75150, Note_on_c, 6, 79, 0
8, 75150, Note_on_c, 6, 79, 100
8, 75180, Note_on_c, 6, 79, 0
8, 75180, Note_on_c, 6, 79, 100
8, 75210, Note_on_c, 6, 79, 0
8, 75210, Note_on_c, 6, 79, 100
8, 75240, Note_on_c, 6, 79, 0
8, 75240, Note_on_c, 6, 79, 100
8, 75270, Note_on_c, 6, 79, 0
8, 75270, Note_on_c, 6, 79, 100
8, 75300, Note_on_c, 6, 79, 0
8, 75300, Note_on_c, 6, 79, 100
8, 75330, Note_on_c, 6, 79, 0
8, 75330, Note_on_c, 6, 79, 100
8, 75360, Note_on_c, 6, 79, 0
8, 75360, Note_on_c, 6, 79, 100
8, 75390, Note_on_c, 6, 79, 0
8, 75390, Note_on_c, 6, 79, 100
8, 75420, Note_on_c, 6, 79, 0
8, 75420, Note_on_c, 6, 79, 100
8, 75450, Note_on_c, 6, 79, 0
8, 75450, Note_on_c, 6, 79, 100
8, 75480, Note_on_c, 6, 79, 0
8, 75480, Note_on_c, 6, 78, 100
8, 75510, Note_on_c, 6, 78, 0
8, 75510, Note_on_c, 6, 78, 100
8, 75540, Note_on_c, 6, 78, 0
8, 75540, Note_on_c, 6, 78, 100
8, 75570, Note_on_c, 6, 78, 0
8, 75570, Note_on_c, 6, 78, 100
8, 75600, Note_on_c, 6, 78, 0
8, 75600, Note_on_c, 6, 79, 100
8, 75630, Note_on_c, 6, 79, 0
8, 75630, Note_on_c, 6, 79, 100
8, 75660, Note_on_c, 6, 79, 0
8, 75660, Note_on_c, 6, 79, 100
8, 75690, Note_on_c, 6, 79, 0
8, 75690, Note_on_c, 6, 79, 100
8, 75720, Note_on_c, 6, 79, 0
8, 75720, Note_on_c, 6, 76, 100
8, 75750, Note_on_c, 6, 76, 0
8, 75750, Note_on_c, 6, 76, 100
8, 75780, Note_on_c, 6, 76, 0
8, 75780, Note_on_c, 6, 76, 100
8, 75810, Note_on_c, 6, 76, 0
8, 75810, Note_on_c, 6, 76, 100
8, 75840, Note_on_c, 6, 76, 0
8, 75840, Note_on_c, 6, 74, 50
8, 75870, Note_on_c, 6, 74, 0
8, 75880, Note_on_c, 6, 78, 50
8, 75910, Note_on_c, 6, 78, 0
8, 75920, Note_on_c, 6, 76, 50
8, 75950, Note_on_c, 6, 76, 0
8, 75960, Note_on_c, 6, 74, 50
8, 75990, Note_on_c, 6, 74, 0
8, 76000, Note_on_c, 6, 73, 50
8, 76030, Note_on_c, 6, 73, 0
8, 76040, Note_on_c, 6, 71, 50
8, 76070, Note_on_c, 6, 71, 0
8, 76080, Note_on_c, 6, 69, 50
8, 76110, Note_on_c, 6, 69, 0
8, 76120, Note_on_c, 6, 69, 50
8, 76150, Note_on_c, 6, 69, 0
8, 76160, Note_on_c, 6, 69, 50
8, 76190, Note_on_c, 6, 69, 0
8, 76200, Note_on_c, 6, 69, 50
8, 76230, Note_on_c, 6, 69, 0
8, 76240, Note_on_c, 6, 69, 50
8, 76270, Note_on_c, 6, 69, 0
8, 76280, Note_on_c, 6, 69, 50
8, 76310, Note_on_c, 6, 69, 0
8, 76320, Note_on_c, 6, 69, 50
8, 76350, Note_on_c, 6, 69, 0
8, 76360, Note_on_c, 6, 78, 50
8, 76390, Note_on_c, 6, 78, 0
8, 76400, Note_on_c, 6, 76, 50
8, 76430, Note_on_c, 6, 76, 0
8, 76440, Note_on_c, 6, 74, 50
8, 76470, Note_on_c, 6, 74, 0
8, 76480, Note_on_c, 6, 73, 50
8, 76510, Note_on_c, 6, 73, 0
8, 76520, Note_on_c, 6, 71, 50
8, 76550, Note_on_c, 6, 71, 0
8, 76560, Note_on_c, 6, 69, 50
8, 76590, Note_on_c, 6, 69, 0
8, 76600, Note_on_c, 6, 69, 50
8, 76630, Note_on_c, 6, 69, 0
8, 76640, Note_on_c, 6, 69, 50
8, 76670, Note_on_c, 6, 69, 0
8, 76680, Note_on_c, 6, 69, 50
8, 76710, Note_on_c, 6, 69, 0
8, 76720, Note_on_c, 6, 69, 50
8, 76750, Note_on_c, 6, 69, 0
8, 76760, Note_on_c, 6, 69, 50
8, 76790, Note_on_c, 6, 69, 0
8, 76800, Note_on_c, 6, 69, 50
8, 76830, Note_on_c, 6, 69, 0
8, 76840, Note_on_c, 6, 71, 50
8, 76870, Note_on_c, 6, 71, 0
8, 76880, Note_on_c, 6, 73, 50
8, 76910, Note_on_c, 6, 73, 0
8, 76920, Note_on_c, 6, 74, 50
8, 76950, Note_on_c, 6, 74, 0
8, 76960, Note_on_c, 6, 76, 50
8, 76990, Note_on_c, 6, 76, 0
8, 77000, Note_on_c, 6, 78, 50
8, 77030, Note_on_c, 6, 78, 0
8, 77040, Note_on_c, 6, 81, 50
8, 77070, Note_on_c, 6, 81, 0
8, 77080, Note_on_c, 6, 81, 50
8, 77110, Note_on_c, 6, 81, 0
8, 77120, Note_on_c, 6, 81, 50
8, 77150, Note_on_c, 6, 81, 0
8, 77160, Note_on_c, 6, 81, 50
8, 77190, Note_on_c, 6, 81, 0
8, 77200, Note_on_c, 6, 81, 50
8, 77230, Note_on_c, 6, 81, 0
8, 77240, Note_on_c, 6, 81, 50
8, 77270, Note_on_c, 6, 81, 0
8, 77280, Note_on_c, 6, 81, 50
8, 77320, Note_on_c, 6, 81, 0
8, 77320, Note_on_c, 6, 83, 50
8, 77360, Note_on_c, 6, 83, 0
8, 77360, Note_on_c, 6, 85, 50
8, 77400, Note_on_c, 6, 85, 0
8, 77400, Note_on_c, 6, 86, 50
8, 77440, Note_on_c, 6, 86, 0
8, 77440, Note_on_c, 6, 85, 50
8, 77480, Note_on_c, 6, 85, 0
8, 77480, Note_on_c, 6, 83, 50
8, 77520, Note_on_c, 6, 83, 0
8, 77520, Note_on_c, 6, 81, 50
8, 77560, Note_on_c, 6, 81, 0
8, 77560, Note_on_c, 6, 79, 50
8, 77600, Note_on_c, 6, 79, 0
8, 77600, Note_on_c, 6, 78, 50
8, 77640, Note_on_c, 6, 78, 0
8, 77640, Note_on_c, 6, 76, 50
8, 77680, Note_on_c, 6, 76, 0
8, 77680, Note_on_c, 6, 74, 50
8, 77720, Note_on_c, 6, 74, 0
8, 77720, Note_on_c, 6, 73, 50
8, 77760, Note_on_c, 6, 73, 0
8, 77760, Note_on_c, 6, 71, 50
8, 77800, Note_on_c, 6, 71, 0
8, 77800, Note_on_c, 6, 69, 50
8, 77840, Note_on_c, 6, 69, 0
8, 77840, Note_on_c, 6, 67, 50
8, 77880, Note_on_c, 6, 67, 0
8, 77880, Note_on_c, 6, 66, 50
8, 77920, Note_on_c, 6, 66, 0
8, 77920, Note_on_c, 6, 67, 50
8, 77960, Note_on_c, 6, 67, 0
8, 77960, Note_on_c, 6, 69, 50
8, 78000, Note_on_c, 6, 69, 0
8, 78000, Note_on_c, 6, 71, 50
8, 78040, Note_on_c, 6, 71, 0
8, 78040, Note_on_c, 6, 73, 50
8, 78080, Note_on_c, 6, 73, 0
8, 78080, Note_on_c, 6, 74, 50
8, 78120, Note_on_c, 6, 74, 0
8, 78120, Note_on_c, 6, 76, 50
8, 78160, Note_on_c, 6, 76, 0
8, 78160, Note_on_c, 6, 78, 50
8, 78200, Note_on_c, 6, 78, 0
8, 78200, Note_on_c, 6, 79, 50
8, 78240, Note_on_c, 6, 79, 0
8, 78240, Note_on_c, 6, 81, 50
8, 78255, Note_on_c, 6, 81, 0
8, 78255, Note_on_c, 6, 79, 50
8, 78270, Note_on_c, 6, 79, 0
8, 78270, Note_on_c, 6, 81, 50
8, 78285, Note_on_c, 6, 81, 0
8, 78285, Note_on_c, 6, 79, 50
8, 78300, Note_on_c, 6, 79, 0
8, 78300, Note_on_c, 6, 81, 50
8, 78315, Note_on_c, 6, 81, 0
8, 78315, Note_on_c, 6, 79, 50
8, 78330, Note_on_c, 6, 79, 0
8, 78330, Note_on_c, 6, 81, 50
8, 78345, Note_on_c, 6, 81, 0
8, 78345, Note_on_c, 6, 79, 50
8, 78360, Note_on_c, 6, 79, 0
8, 78360, Note_on_c, 6, 81, 50
8, 78375, Note_on_c, 6, 81, 0
8, 78375, Note_on_c, 6, 79, 50
8, 78390, Note_on_c, 6, 79, 0
8, 78390, Note_on_c, 6, 81, 50
8, 78405, Note_on_c, 6, 81, 0
8, 78405, Note_on_c, 6, 79, 50
8, 78420, Note_on_c, 6, 79, 0
8, 78420, Note_on_c, 6, 79, 50
8, 78450, Note_on_c, 6, 79, 0
8, 78450, Note_on_c, 6, 81, 50
8, 78480, Note_on_c, 6, 81, 0
8, 78480, Note_on_c, 6, 83, 50
8, 78570, Note_on_c, 6, 83, 0
8, 78720, Note_on_c, 6, 78, 50
8, 78735, Note_on_c, 6, 78, 0
8, 78735, Note_on_c, 6, 76, 50
8, 78750, Note_on_c, 6, 76, 0
8, 78750, Note_on_c, 6, 78, 50
8, 78765, Note_on_c, 6, 78, 0
8, 78765, Note_on_c, 6, 76, 50
8, 78780, Note_on_c, 6, 76, 0
8, 78780, Note_on_c, 6, 78, 50
8, 78795, Note_on_c, 6, 78, 0
8, 78795, Note_on_c, 6, 76, 50
8, 78810, Note_on_c, 6, 76, 0
8, 78810, Note_on_c, 6, 78, 50
8, 78825, Note_on_c, 6, 78, 0
8, 78825, Note_on_c, 6, 76, 50
8, 78840, Note_on_c, 6, 76, 0
8, 78840, Note_on_c, 6, 78, 50
8, 78855, Note_on_c, 6, 78, 0
8, 78855, Note_on_c, 6, 76, 50
8, 78870, Note_on_c, 6, 76, 0
8, 78870, Note_on_c, 6, 78, 50
8, 78885, Note_on_c, 6, 78, 0
8, 78885, Note_on_c, 6, 76, 50
8, 78900, Note_on_c, 6, 76, 0
8, 78900, Note_on_c, 6, 76, 50
8, 78930, Note_on_c, 6, 76, 0
8, 78930, Note_on_c, 6, 78, 50
8, 78960, Note_on_c, 6, 78, 0
8, 78960, Note_on_c, 6, 79, 50
8, 79020, Note_on_c, 6, 79, 0
8, 79080, Note_on_c, 6, 76, 50
8, 79140, Note_on_c, 6, 76, 0
8, 79200, Note_on_c, 6, 81, 50
8, 79215, Note_on_c, 6, 81, 0
8, 79215, Note_on_c, 6, 79, 50
8, 79230, Note_on_c, 6, 79, 0
8, 79230, Note_on_c, 6, 81, 50
8, 79245, Note_on_c, 6, 81, 0
8, 79245, Note_on_c, 6, 79, 50
8, 79260, Note_on_c, 6, 79, 0
8, 79260, Note_on_c, 6, 81, 50
8, 79275, Note_on_c, 6, 81, 0
8, 79275, Note_on_c, 6, 79, 50
8, 79290, Note_on_c, 6, 79, 0
8, 79290, Note_on_c, 6, 81, 50
8, 79305, Note_on_c, 6, 81, 0
8, 79305, Note_on_c, 6, 79, 50
8, 79320, Note_on_c, 6, 79, 0
8, 79320, Note_on_c, 6, 81, 50
8, 79335, Note_on_c, 6, 81, 0
8, 79335, Note_on_c, 6, 79, 50
8, 79350, Note_on_c, 6, 79, 0
8, 79350, Note_on_c, 6, 81, 50
8, 79365, Note_on_c, 6, 81, 0
8, 79365, Note_on_c, 6, 79, 50
8, 79380, Note_on_c, 6, 79, 0
8, 79380, Note_on_c, 6, 79, 50
8, 79410, Note_on_c, 6, 79, 0
8, 79410, Note_on_c, 6, 81, 50
8, 79440, Note_on_c, 6, 81, 0
8, 79440, Note_on_c, 6, 83, 50
8, 79530, Note_on_c, 6, 83, 0
8, 79680, Note_on_c, 6, 78, 50
8, 79695, Note_on_c, 6, 78, 0
8, 79695, Note_on_c, 6, 76, 50
8, 79710, Note_on_c, 6, 76, 0
8, 79710, Note_on_c, 6, 78, 50
8, 79725, Note_on_c, 6, 78, 0
8, 79725, Note_on_c, 6, 76, 50
8, 79740, Note_on_c, 6, 76, 0
8, 79740, Note_on_c, 6, 78, 50
8, 79755, Note_on_c, 6, 78, 0
8, 79755, Note_on_c, 6, 76, 50
8, 79770, Note_on_c, 6, 76, 0
8, 79770, Note_on_c, 6, 78, 50
8, 79785, Note_on_c, 6, 78, 0
8, 79785, Note_on_c, 6, 76, 50
8, 79800, Note_on_c, 6, 76, 0
8, 79800, Note_on_c, 6, 78, 50
8, 79815, Note_on_c, 6, 78, 0
8, 79815, Note_on_c, 6, 76, 50
8, 79830, Note_on_c, 6, 76, 0
8, 79830, Note_on_c, 6, 78, 50
8, 79845, Note_on_c, 6, 78, 0
8, 79845, Note_on_c, 6, 76, 50
8, 79860, Note_on_c, 6, 76, 0
8, 79860, Note_on_c, 6, 76, 50
8, 79890, Note_on_c, 6, 76, 0
8, 79890, Note_on_c, 6, 78, 50
8, 79920, Note_on_c, 6, 78, 0
8, 79920, Note_on_c, 6, 79, 50
8, 79980, Note_on_c, 6, 79, 0
8, 80040, Note_on_c, 6, 76, 50
8, 80100, Note_on_c, 6, 76, 0
8, 80220, Note_on_c, 6, 62, 100
8, 80250, Note_on_c, 6, 62, 0
8, 80280, Note_on_c, 6, 66, 101
8, 80310, Note_on_c, 6, 66, 0
8, 80340, Note_on_c, 6, 62, 101
8, 80370, Note_on_c, 6, 62, 0
8, 80400, Note_on_c, 6, 74, 102
8, 80700, Note_on_c, 6, 74, 0
8, 80700, Note_on_c, 6, 62, 104
8, 80730, Note_on_c, 6, 62, 0
8, 80760, Note_on_c, 6, 66, 105
8, 80790, Note_on_c, 6, 66, 0
8, 80820, Note_on_c, 6, 62, 105
8, 80850, Note_on_c, 6, 62, 0
8, 80880, Note_on_c, 6, 78, 106
8, 81180, Note_on_c, 6, 78, 0
8, 81180, Note_on_c, 6, 62, 108
8, 81210, Note_on_c, 6, 62, 0
8, 81240, Note_on_c, 6, 66, 109
8, 81270, Note_on_c, 6, 66, 0
8, 81300, Note_on_c, 6, 62, 109
8, 81330, Note_on_c, 6, 62, 0
8, 81360, Note_on_c, 6, 81, 110
8, 81660, Note_on_c, 6, 81, 0
8, 81660, Note_on_c, 6, 62, 112
8, 81690, Note_on_c, 6, 62, 0
8, 81720, Note_on_c, 6, 66, 113
8, 81750, Note_on_c, 6, 66, 0
8, 81780, Note_on_c, 6, 62, 114
8, 81810, Note_on_c, 6, 62, 0
8, 81840, Note_on_c, 6, 86, 114
8, 82140, Note_on_c, 6, 86, 0
8, 82140, Note_on_c, 6, 81, 117
8, 82200, Note_on_c, 6, 81, 0
8, 82200, Note_on_c, 6, 78, 117
8, 82260, Note_on_c, 6, 78, 0
8, 82260, Note_on_c, 6, 74, 118
8, 82320, Note_on_c, 6, 74, 0
8, 82320, Note_on_c, 6, 81, 118
8, 82380, Note_on_c, 6, 81, 0
8, 82380, Note_on_c, 6, 78, 119
8, 82440, Note_on_c, 6, 78, 0
8, 82440, Note_on_c, 6, 74, 119
8, 82500, Note_on_c, 6, 74, 0
8, 82500, Note_on_c, 6, 69, 120
8, 82560, Note_on_c, 6, 69, 0
8, 82560, Note_on_c, 6, 78, 120
8, 82620, Note_on_c, 6, 78, 0
8, 82620, Note_on_c, 6, 74, 121
8, 82680, Note_on_c, 6, 74, 0
8, 82680, Note_on_c, 6, 69, 121
8, 82740, Note_on_c, 6, 69, 0
8, 82740, Note_on_c, 6, 66, 122
8, 82800, Note_on_c, 6, 66, 0
8, 82800, Note_on_c, 6, 74, 122
8, 82860, Note_on_c, 6, 74, 0
8, 82860, Note_on_c, 6, 69, 123
8, 82920, Note_on_c, 6, 69, 0
8, 82920, Note_on_c, 6, 66, 123
8, 82980, Note_on_c, 6, 66, 0
8, 82980, Note_on_c, 6, 62, 124
8, 83040, Note_on_c, 6, 62, 0
8, 83040, Note_on_c, 6, 69, 127
8, 83100, Note_on_c, 6, 69, 0
8, 83100, Note_on_c, 6, 66, 127
8, 83160, Note_on_c, 6, 66, 0
8, 83160, Note_on_c, 6, 62, 127
8, 83220, Note_on_c, 6, 62, 0
8, 83220, Note_on_c, 6, 57, 127
8, 83280, Note_on_c, 6, 57, 0
8, 83280, Note_on_c, 6, 62, 127
8, 83340, Note_on_c, 6, 62, 0
8, 83340, Note_on_c, 6, 57, 127
8, 83400, Note_on_c, 6, 57, 0
8, 83400, Note_on_c, 6, 62, 127
8, 83460, Note_on_c, 6, 62, 0
8, 83460, Note_on_c, 6, 57, 127
8, 83520, Note_on_c, 6, 57, 0
8, 83520, Note_on_c, 6, 62, 127
8, 83610, Note_on_c, 6, 62, 0
8, 83640, Note_on_c, 6, 81, 127
8, 83640, Note_on_c, 6, 69, 127
8, 83640, Note_on_c, 6, 62, 127
8, 83730, Note_on_c, 6, 62, 0
8, 83730, Note_on_c, 6, 69, 0
8, 83730, Note_on_c, 6, 81, 0
8, 83760, Note_on_c, 6, 86, 127
8, 83760, Note_on_c, 6, 74, 127
8, 83760, Note_on_c, 6, 62, 127
8, 83850, Note_on_c, 6, 62, 0
8, 83850, Note_on_c, 6, 74, 0
8, 83850, Note_on_c, 6, 86, 0
8, 84240, Note_on_c, 6, 79, 1
8, 84360, Note_on_c, 6, 79, 0
8, 84360, End_track
9, 0, Start_track
9, 0, MIDI_port, 0
9, 0, Title_t, "Violini II."
9, 0, Program_c, 7, 48
9, 0, Control_c, 7, 7, 115
9, 0, Control_c, 7, 10, 44
9, 0, Note_on_c, 7, 62, 50
9, 120, Note_on_c, 7, 62, 0
9, 300, Note_on_c, 7, 66, 50
9, 330, Note_on_c, 7, 66, 0
9, 360, Note_on_c, 7, 69, 50
9, 390, Note_on_c, 7, 69, 0
9, 420, Note_on_c, 7, 66, 50
9, 450, Note_on_c, 7, 66, 0
9, 480, Note_on_c, 7, 74, 50
9, 600, Note_on_c, 7, 74, 0
9, 600, Note_on_c, 7, 72, 50
9, 720, Note_on_c, 7, 72, 0
9, 720, Note_on_c, 7, 71, 50
9, 840, Note_on_c, 7, 71, 0
9, 840, Note_on_c, 7, 69, 50
9, 960, Note_on_c, 7, 69, 0
9, 960, Note_on_c, 7, 67, 50
9, 1020, Note_on_c, 7, 67, 0
9, 1080, Note_on_c, 7, 69, 50
9, 1140, Note_on_c, 7, 69, 0
9, 1200, Note_on_c, 7, 67, 50
9, 1260, Note_on_c, 7, 67, 0
9, 1320, Note_on_c, 7, 69, 50
9, 1380, Note_on_c, 7, 69, 0
9, 1440, Note_on_c, 7, 67, 50
9, 1500, Note_on_c, 7, 67, 0
9, 1560, Note_on_c, 7, 69, 50
9, 1620, Note_on_c, 7, 69, 0
9, 1680, Note_on_c, 7, 67, 50
9, 1740, Note_on_c, 7, 67, 0
9, 1920, Note_on_c, 7, 64, 50
9, 2040, Note_on_c, 7, 64, 0
9, 2220, Note_on_c, 7, 67, 50
9, 2250, Note_on_c, 7, 67, 0
9, 2280, Note_on_c, 7, 71, 50
9, 2310, Note_on_c, 7, 71, 0
9, 2340, Note_on_c, 7, 67, 50
9, 2370, Note_on_c, 7, 67, 0
9, 2400, Note_on_c, 7, 73, 50
9, 2520, Note_on_c, 7, 73, 0
9, 2520, Note_on_c, 7, 71, 50
9, 2640, Note_on_c, 7, 71, 0
9, 2640, Note_on_c, 7, 69, 50
9, 2760, Note_on_c, 7, 69, 0
9, 2760, Note_on_c, 7, 67, 50
9, 2880, Note_on_c, 7, 67, 0
9, 2880, Note_on_c, 7, 66, 50
9, 2940, Note_on_c, 7, 66, 0
9, 3000, Note_on_c, 7, 67, 50
9, 3060, Note_on_c, 7, 67, 0
9, 3120, Note_on_c, 7, 66, 50
9, 3180, Note_on_c, 7, 66, 0
9, 3240, Note_on_c, 7, 67, 50
9, 3300, Note_on_c, 7, 67, 0
9, 3360, Note_on_c, 7, 66, 50
9, 3420, Note_on_c, 7, 66, 0
9, 3480, Note_on_c, 7, 67, 50
9, 3540, Note_on_c, 7, 67, 0
9, 3600, Note_on_c, 7, 66, 50
9, 3660, Note_on_c, 7, 66, 0
9, 3840, Note_on_c, 7, 62, 100
9, 3960, Note_on_c, 7, 62, 0
9, 4080, Note_on_c, 7, 71, 100
9, 4080, Note_on_c, 7, 79, 100
9, 4110, Note_on_c, 7, 79, 0
9, 4110, Note_on_c, 7, 71, 0
9, 4110, Note_on_c, 7, 71, 100
9, 4110, Note_on_c, 7, 79, 100
9, 4140, Note_on_c, 7, 79, 0
9, 4140, Note_on_c, 7, 71, 0
9, 4140, Note_on_c, 7, 71, 100
9, 4140, Note_on_c, 7, 79, 100
9, 4170, Note_on_c, 7, 79, 0
9, 4170, Note_on_c, 7, 71, 0
9, 4170, Note_on_c, 7, 71, 100
9, 4170, Note_on_c, 7, 79, 100
9, 4200, Note_on_c, 7, 79, 0
9, 4200, Note_on_c, 7, 71, 0
9, 4200, Note_on_c, 7, 71, 100
9, 4200, Note_on_c, 7, 79, 100
9, 4230, Note_on_c, 7, 79, 0
9, 4230, Note_on_c, 7, 71, 0
9, 4230, Note_on_c, 7, 71, 100
9, 4230, Note_on_c, 7, 79, 100
9, 4260, Note_on_c, 7, 79, 0
9, 4260, Note_on_c, 7, 71, 0
9, 4260, Note_on_c, 7, 71, 100
9, 4260, Note_on_c, 7, 79, 100
9, 4290, Note_on_c, 7, 79, 0
9, 4290, Note_on_c, 7, 71, 0
9, 4290, Note_on_c, 7, 71, 100
9, 4290, Note_on_c, 7, 79, 100
9, 4320, Note_on_c, 7, 79, 0
9, 4320, Note_on_c, 7, 71, 0
9, 4320, Note_on_c, 7, 69, 100
9, 4320, Note_on_c, 7, 78, 100
9, 4410, Note_on_c, 7, 78, 0
9, 4410, Note_on_c, 7, 69, 0
9, 4560, Note_on_c, 7, 79, 100
9, 4560, Note_on_c, 7, 76, 100
9, 4590, Note_on_c, 7, 76, 0
9, 4590, Note_on_c, 7, 79, 0
9, 4590, Note_on_c, 7, 79, 100
9, 4590, Note_on_c, 7, 76, 100
9, 4620, Note_on_c, 7, 76, 0
9, 4620, Note_on_c, 7, 79, 0
9, 4620, Note_on_c, 7, 79, 100
9, 4620, Note_on_c, 7, 76, 100
9, 4650, Note_on_c, 7, 76, 0
9, 4650, Note_on_c, 7, 79, 0
9, 4650, Note_on_c, 7, 79, 100
9, 4650, Note_on_c, 7, 76, 100
9, 4680, Note_on_c, 7, 76, 0
9, 4680, Note_on_c, 7, 79, 0
9, 4680, Note_on_c, 7, 79, 100
9, 4680, Note_on_c, 7, 76, 100
9, 4710, Note_on_c, 7, 76, 0
9, 4710, Note_on_c, 7, 79, 0
9, 4710, Note_on_c, 7, 79, 100
9, 4710, Note_on_c, 7, 76, 100
9, 4740, Note_on_c, 7, 76, 0
9, 4740, Note_on_c, 7, 79, 0
9, 4740, Note_on_c, 7, 79, 100
9, 4740, Note_on_c, 7, 76, 100
9, 4770, Note_on_c, 7, 76, 0
9, 4770, Note_on_c, 7, 79, 0
9, 4770, Note_on_c, 7, 79, 100
9, 4770, Note_on_c, 7, 76, 100
9, 4800, Note_on_c, 7, 76, 0
9, 4800, Note_on_c, 7, 79, 0
9, 4800, Note_on_c, 7, 74, 100
9, 4800, Note_on_c, 7, 78, 100
9, 4890, Note_on_c, 7, 78, 0
9, 4890, Note_on_c, 7, 74, 0
9, 5040, Note_on_c, 7, 71, 100
9, 5040, Note_on_c, 7, 79, 100
9, 5070, Note_on_c, 7, 79, 0
9, 5070, Note_on_c, 7, 71, 0
9, 5070, Note_on_c, 7, 71, 100
9, 5070, Note_on_c, 7, 79, 100
9, 5100, Note_on_c, 7, 79, 0
9, 5100, Note_on_c, 7, 71, 0
9, 5100, Note_on_c, 7, 71, 100
9, 5100, Note_on_c, 7, 79, 100
9, 5130, Note_on_c, 7, 79, 0
9, 5130, Note_on_c, 7, 71, 0
9, 5130, Note_on_c, 7, 71, 100
9, 5130, Note_on_c, 7, 79, 100
9, 5160, Note_on_c, 7, 79, 0
9, 5160, Note_on_c, 7, 71, 0
9, 5160, Note_on_c, 7, 71, 100
9, 5160, Note_on_c, 7, 79, 100
9, 5190, Note_on_c, 7, 79, 0
9, 5190, Note_on_c, 7, 71, 0
9, 5190, Note_on_c, 7, 71, 100
9, 5190, Note_on_c, 7, 79, 100
9, 5220, Note_on_c, 7, 79, 0
9, 5220, Note_on_c, 7, 71, 0
9, 5220, Note_on_c, 7, 71, 100
9, 5220, Note_on_c, 7, 79, 100
9, 5250, Note_on_c, 7, 79, 0
9, 5250, Note_on_c, 7, 71, 0
9, 5250, Note_on_c, 7, 71, 100
9, 5250, Note_on_c, 7, 79, 100
9, 5280, Note_on_c, 7, 79, 0
9, 5280, Note_on_c, 7, 71, 0
9, 5280, Note_on_c, 7, 69, 100
9, 5280, Note_on_c, 7, 78, 100
9, 5370, Note_on_c, 7, 78, 0
9, 5370, Note_on_c, 7, 69, 0
9, 5520, Note_on_c, 7, 79, 100
9, 5520, Note_on_c, 7, 76, 100
9, 5550, Note_on_c, 7, 76, 0
9, 5550, Note_on_c, 7, 79, 0
9, 5550, Note_on_c, 7, 79, 100
9, 5550, Note_on_c, 7, 76, 100
9, 5580, Note_on_c, 7, 76, 0
9, 5580, Note_on_c, 7, 79, 0
9, 5580, Note_on_c, 7, 79, 100
9, 5580, Note_on_c, 7, 76, 100
9, 5610, Note_on_c, 7, 76, 0
9, 5610, Note_on_c, 7, 79, 0
9, 5610, Note_on_c, 7, 79, 100
9, 5610, Note_on_c, 7, 76, 100
9, 5640, Note_on_c, 7, 76, 0
9, 5640, Note_on_c, 7, 79, 0
9, 5640, Note_on_c, 7, 79, 100
9, 5640, Note_on_c, 7, 76, 100
9, 5670, Note_on_c, 7, 76, 0
9, 5670, Note_on_c, 7, 79, 0
9, 5670, Note_on_c, 7, 79, 100
9, 5670, Note_on_c, 7, 76, 100
9, 5700, Note_on_c, 7, 76, 0
9, 5700, Note_on_c, 7, 79, 0
9, 5700, Note_on_c, 7, 79, 100
9, 5700, Note_on_c, 7, 76, 100
9, 5730, Note_on_c, 7, 76, 0
9, 5730, Note_on_c, 7, 79, 0
9, 5730, Note_on_c, 7, 79, 100
9, 5730, Note_on_c, 7, 76, 100
9, 5760, Note_on_c, 7, 76, 0
9, 5760, Note_on_c, 7, 79, 0
9, 5760, Note_on_c, 7, 74, 100
9, 5760, Note_on_c, 7, 78, 100
9, 5850, Note_on_c, 7, 78, 0
9, 5850, Note_on_c, 7, 74, 0
9, 5880, Note_on_c, 7, 81, 100
9, 5940, Note_on_c, 7, 81, 0
9, 5940, Note_on_c, 7, 69, 100
9, 6000, Note_on_c, 7, 69, 0
9, 6000, Note_on_c, 7, 78, 100
9, 6060, Note_on_c, 7, 78, 0
9, 6060, Note_on_c, 7, 66, 100
9, 6120, Note_on_c, 7, 66, 0
9, 6120, Note_on_c, 7, 74, 100
9, 6180, Note_on_c, 7, 74, 0
9, 6180, Note_on_c, 7, 62, 100
9, 6240, Note_on_c, 7, 62, 0
9, 6240, Note_on_c, 7, 69, 100
9, 6285, Note_on_c, 7, 69, 0
9, 6300, Note_on_c, 7, 76, 100
9, 6345, Note_on_c, 7, 76, 0
9, 6360, Note_on_c, 7, 78, 100
9, 6405, Note_on_c, 7, 78, 0
9, 6420, Note_on_c, 7, 74, 100
9, 6465, Note_on_c, 7, 74, 0
9, 6480, Note_on_c, 7, 69, 100
9, 6525, Note_on_c, 7, 69, 0
9, 6540, Note_on_c, 7, 76, 100
9, 6585, Note_on_c, 7, 76, 0
9, 6600, Note_on_c, 7, 78, 100
9, 6645, Note_on_c, 7, 78, 0
9, 6660, Note_on_c, 7, 74, 100
9, 6705, Note_on_c, 7, 74, 0
9, 6720, Note_on_c, 7, 73, 100
9, 6765, Note_on_c, 7, 73, 0
9, 6780, Note_on_c, 7, 69, 100
9, 6780, Note_on_c, 7, 81, 100
9, 6825, Note_on_c, 7, 81, 0
9, 6825, Note_on_c, 7, 69, 0
9, 6840, Note_on_c, 7, 69, 100
9, 6840, Note_on_c, 7, 81, 100
9, 6885, Note_on_c, 7, 81, 0
9, 6885, Note_on_c, 7, 69, 0
9, 6900, Note_on_c, 7, 69, 100
9, 6900, Note_on_c, 7, 81, 100
9, 6945, Note_on_c, 7, 81, 0
9, 6945, Note_on_c, 7, 69, 0
9, 6960, Note_on_c, 7, 81, 100
9, 6960, Note_on_c, 7, 69, 100
9, 7080, Note_on_c, 7, 69, 0
9, 7080, Note_on_c, 7, 81, 0
9, 11040, Note_on_c, 7, 69, 100
9, 11040, Note_on_c, 7, 60, 100
9, 11070, Note_on_c, 7, 60, 0
9, 11070, Note_on_c, 7, 69, 0
9, 11070, Note_on_c, 7, 69, 100
9, 11070, Note_on_c, 7, 60, 100
9, 11100, Note_on_c, 7, 60, 0
9, 11100, Note_on_c, 7, 69, 0
9, 11100, Note_on_c, 7, 69, 100
9, 11100, Note_on_c, 7, 60, 100
9, 11130, Note_on_c, 7, 60, 0
9, 11130, Note_on_c, 7, 69, 0
9, 11130, Note_on_c, 7, 69, 100
9, 11130, Note_on_c, 7, 60, 100
9, 11160, Note_on_c, 7, 60, 0
9, 11160, Note_on_c, 7, 69, 0
9, 11160, Note_on_c, 7, 69, 100
9, 11160, Note_on_c, 7, 60, 100
9, 11190, Note_on_c, 7, 60, 0
9, 11190, Note_on_c, 7, 69, 0
9, 11190, Note_on_c, 7, 69, 100
9, 11190, Note_on_c, 7, 60, 100
9, 11220, Note_on_c, 7, 60, 0
9, 11220, Note_on_c, 7, 69, 0
9, 11220, Note_on_c, 7, 69, 100
9, 11220, Note_on_c, 7, 60, 100
9, 11250, Note_on_c, 7, 60, 0
9, 11250, Note_on_c, 7, 69, 0
9, 11250, Note_on_c, 7, 69, 100
9, 11250, Note_on_c, 7, 60, 100
9, 11280, Note_on_c, 7, 60, 0
9, 11280, Note_on_c, 7, 69, 0
9, 11280, Note_on_c, 7, 69, 100
9, 11280, Note_on_c, 7, 60, 100
9, 11310, Note_on_c, 7, 60, 0
9, 11310, Note_on_c, 7, 69, 0
9, 11310, Note_on_c, 7, 69, 100
9, 11310, Note_on_c, 7, 60, 100
9, 11340, Note_on_c, 7, 60, 0
9, 11340, Note_on_c, 7, 69, 0
9, 11340, Note_on_c, 7, 69, 100
9, 11340, Note_on_c, 7, 60, 100
9, 11370, Note_on_c, 7, 60, 0
9, 11370, Note_on_c, 7, 69, 0
9, 11370, Note_on_c, 7, 69, 100
9, 11370, Note_on_c, 7, 60, 100
9, 11400, Note_on_c, 7, 60, 0
9, 11400, Note_on_c, 7, 69, 0
9, 11400, Note_on_c, 7, 69, 100
9, 11400, Note_on_c, 7, 60, 100
9, 11430, Note_on_c, 7, 60, 0
9, 11430, Note_on_c, 7, 69, 0
9, 11430, Note_on_c, 7, 69, 100
9, 11430, Note_on_c, 7, 60, 100
9, 11460, Note_on_c, 7, 60, 0
9, 11460, Note_on_c, 7, 69, 0
9, 11460, Note_on_c, 7, 69, 100
9, 11460, Note_on_c, 7, 60, 100
9, 11490, Note_on_c, 7, 60, 0
9, 11490, Note_on_c, 7, 69, 0
9, 11490, Note_on_c, 7, 69, 100
9, 11490, Note_on_c, 7, 60, 100
9, 11520, Note_on_c, 7, 60, 0
9, 11520, Note_on_c, 7, 69, 0
9, 11520, Note_on_c, 7, 69, 100
9, 11520, Note_on_c, 7, 60, 100
9, 11550, Note_on_c, 7, 60, 0
9, 11550, Note_on_c, 7, 69, 0
9, 11550, Note_on_c, 7, 69, 100
9, 11550, Note_on_c, 7, 60, 100
9, 11580, Note_on_c, 7, 60, 0
9, 11580, Note_on_c, 7, 69, 0
9, 11580, Note_on_c, 7, 69, 100
9, 11580, Note_on_c, 7, 60, 100
9, 11610, Note_on_c, 7, 60, 0
9, 11610, Note_on_c, 7, 69, 0
9, 11610, Note_on_c, 7, 69, 100
9, 11610, Note_on_c, 7, 60, 100
9, 11640, Note_on_c, 7, 60, 0
9, 11640, Note_on_c, 7, 69, 0
9, 11640, Note_on_c, 7, 69, 100
9, 11640, Note_on_c, 7, 60, 100
9, 11670, Note_on_c, 7, 60, 0
9, 11670, Note_on_c, 7, 69, 0
9, 11670, Note_on_c, 7, 69, 100
9, 11670, Note_on_c, 7, 60, 100
9, 11700, Note_on_c, 7, 60, 0
9, 11700, Note_on_c, 7, 69, 0
9, 11700, Note_on_c, 7, 69, 100
9, 11700, Note_on_c, 7, 60, 100
9, 11730, Note_on_c, 7, 60, 0
9, 11730, Note_on_c, 7, 69, 0
9, 11730, Note_on_c, 7, 69, 100
9, 11730, Note_on_c, 7, 60, 100
9, 11760, Note_on_c, 7, 60, 0
9, 11760, Note_on_c, 7, 69, 0
9, 11760, Note_on_c, 7, 69, 100
9, 11760, Note_on_c, 7, 60, 100
9, 11790, Note_on_c, 7, 60, 0
9, 11790, Note_on_c, 7, 69, 0
9, 11790, Note_on_c, 7, 69, 100
9, 11790, Note_on_c, 7, 60, 100
9, 11820, Note_on_c, 7, 60, 0
9, 11820, Note_on_c, 7, 69, 0
9, 11820, Note_on_c, 7, 69, 100
9, 11820, Note_on_c, 7, 60, 100
9, 11850, Note_on_c, 7, 60, 0
9, 11850, Note_on_c, 7, 69, 0
9, 11850, Note_on_c, 7, 69, 100
9, 11850, Note_on_c, 7, 60, 100
9, 11880, Note_on_c, 7, 60, 0
9, 11880, Note_on_c, 7, 69, 0
9, 11880, Note_on_c, 7, 69, 100
9, 11880, Note_on_c, 7, 60, 100
9, 11910, Note_on_c, 7, 60, 0
9, 11910, Note_on_c, 7, 69, 0
9, 11910, Note_on_c, 7, 69, 100
9, 11910, Note_on_c, 7, 60, 100
9, 11940, Note_on_c, 7, 60, 0
9, 11940, Note_on_c, 7, 69, 0
9, 11940, Note_on_c, 7, 69, 100
9, 11940, Note_on_c, 7, 60, 100
9, 11970, Note_on_c, 7, 60, 0
9, 11970, Note_on_c, 7, 69, 0
9, 11970, Note_on_c, 7, 69, 100
9, 11970, Note_on_c, 7, 60, 100
9, 12000, Note_on_c, 7, 60, 0
9, 12000, Note_on_c, 7, 69, 0
9, 12000, Note_on_c, 7, 69, 100
9, 12000, Note_on_c, 7, 60, 100
9, 12030, Note_on_c, 7, 60, 0
9, 12030, Note_on_c, 7, 69, 0
9, 12030, Note_on_c, 7, 69, 100
9, 12030, Note_on_c, 7, 60, 100
9, 12060, Note_on_c, 7, 60, 0
9, 12060, Note_on_c, 7, 69, 0
9, 12060, Note_on_c, 7, 69, 100
9, 12060, Note_on_c, 7, 60, 100
9, 12090, Note_on_c, 7, 60, 0
9, 12090, Note_on_c, 7, 69, 0
9, 12090, Note_on_c, 7, 69, 100
9, 12090, Note_on_c, 7, 60, 100
9, 12120, Note_on_c, 7, 60, 0
9, 12120, Note_on_c, 7, 69, 0
9, 12120, Note_on_c, 7, 69, 100
9, 12120, Note_on_c, 7, 60, 100
9, 12150, Note_on_c, 7, 60, 0
9, 12150, Note_on_c, 7, 69, 0
9, 12150, Note_on_c, 7, 69, 100
9, 12150, Note_on_c, 7, 60, 100
9, 12180, Note_on_c, 7, 60, 0
9, 12180, Note_on_c, 7, 69, 0
9, 12180, Note_on_c, 7, 69, 100
9, 12180, Note_on_c, 7, 60, 100
9, 12210, Note_on_c, 7, 60, 0
9, 12210, Note_on_c, 7, 69, 0
9, 12210, Note_on_c, 7, 69, 100
9, 12210, Note_on_c, 7, 60, 100
9, 12240, Note_on_c, 7, 60, 0
9, 12240, Note_on_c, 7, 69, 0
9, 12240, Note_on_c, 7, 69, 100
9, 12240, Note_on_c, 7, 60, 100
9, 12270, Note_on_c, 7, 60, 0
9, 12270, Note_on_c, 7, 69, 0
9, 12270, Note_on_c, 7, 69, 100
9, 12270, Note_on_c, 7, 60, 100
9, 12300, Note_on_c, 7, 60, 0
9, 12300, Note_on_c, 7, 69, 0
9, 12300, Note_on_c, 7, 69, 100
9, 12300, Note_on_c, 7, 60, 100
9, 12330, Note_on_c, 7, 60, 0
9, 12330, Note_on_c, 7, 69, 0
9, 12330, Note_on_c, 7, 69, 100
9, 12330, Note_on_c, 7, 60, 100
9, 12360, Note_on_c, 7, 60, 0
9, 12360, Note_on_c, 7, 69, 0
9, 12360, Note_on_c, 7, 69, 100
9, 12360, Note_on_c, 7, 60, 100
9, 12390, Note_on_c, 7, 60, 0
9, 12390, Note_on_c, 7, 69, 0
9, 12390, Note_on_c, 7, 69, 100
9, 12390, Note_on_c, 7, 60, 100
9, 12420, Note_on_c, 7, 60, 0
9, 12420, Note_on_c, 7, 69, 0
9, 12420, Note_on_c, 7, 69, 100
9, 12420, Note_on_c, 7, 60, 100
9, 12450, Note_on_c, 7, 60, 0
9, 12450, Note_on_c, 7, 69, 0
9, 12450, Note_on_c, 7, 69, 100
9, 12450, Note_on_c, 7, 60, 100
9, 12480, Note_on_c, 7, 60, 0
9, 12480, Note_on_c, 7, 69, 0
9, 12480, Note_on_c, 7, 69, 100
9, 12480, Note_on_c, 7, 60, 100
9, 12510, Note_on_c, 7, 60, 0
9, 12510, Note_on_c, 7, 69, 0
9, 12510, Note_on_c, 7, 69, 100
9, 12510, Note_on_c, 7, 60, 100
9, 12540, Note_on_c, 7, 60, 0
9, 12540, Note_on_c, 7, 69, 0
9, 12540, Note_on_c, 7, 69, 100
9, 12540, Note_on_c, 7, 60, 100
9, 12570, Note_on_c, 7, 60, 0
9, 12570, Note_on_c, 7, 69, 0
9, 12570, Note_on_c, 7, 69, 100
9, 12570, Note_on_c, 7, 60, 100
9, 12600, Note_on_c, 7, 60, 0
9, 12600, Note_on_c, 7, 69, 0
9, 12600, Note_on_c, 7, 69, 100
9, 12600, Note_on_c, 7, 60, 100
9, 12630, Note_on_c, 7, 60, 0
9, 12630, Note_on_c, 7, 69, 0
9, 12630, Note_on_c, 7, 69, 100
9, 12630, Note_on_c, 7, 60, 100
9, 12660, Note_on_c, 7, 60, 0
9, 12660, Note_on_c, 7, 69, 0
9, 12660, Note_on_c, 7, 69, 100
9, 12660, Note_on_c, 7, 60, 100
9, 12690, Note_on_c, 7, 60, 0
9, 12690, Note_on_c, 7, 69, 0
9, 12690, Note_on_c, 7, 69, 100
9, 12690, Note_on_c, 7, 60, 100
9, 12720, Note_on_c, 7, 60, 0
9, 12720, Note_on_c, 7, 69, 0
9, 12720, Note_on_c, 7, 69, 100
9, 12720, Note_on_c, 7, 60, 100
9, 12750, Note_on_c, 7, 60, 0
9, 12750, Note_on_c, 7, 69, 0
9, 12750, Note_on_c, 7, 69, 100
9, 12750, Note_on_c, 7, 60, 100
9, 12780, Note_on_c, 7, 60, 0
9, 12780, Note_on_c, 7, 69, 0
9, 12780, Note_on_c, 7, 69, 100
9, 12780, Note_on_c, 7, 60, 100
9, 12810, Note_on_c, 7, 60, 0
9, 12810, Note_on_c, 7, 69, 0
9, 12810, Note_on_c, 7, 69, 100
9, 12810, Note_on_c, 7, 60, 100
9, 12840, Note_on_c, 7, 60, 0
9, 12840, Note_on_c, 7, 69, 0
9, 12840, Note_on_c, 7, 69, 100
9, 12840, Note_on_c, 7, 60, 100
9, 12870, Note_on_c, 7, 60, 0
9, 12870, Note_on_c, 7, 69, 0
9, 12870, Note_on_c, 7, 69, 100
9, 12870, Note_on_c, 7, 60, 100
9, 12900, Note_on_c, 7, 60, 0
9, 12900, Note_on_c, 7, 69, 0
9, 12900, Note_on_c, 7, 69, 100
9, 12900, Note_on_c, 7, 60, 100
9, 12930, Note_on_c, 7, 60, 0
9, 12930, Note_on_c, 7, 69, 0
9, 12930, Note_on_c, 7, 69, 100
9, 12930, Note_on_c, 7, 60, 100
9, 12960, Note_on_c, 7, 60, 0
9, 12960, Note_on_c, 7, 69, 0
9, 12960, Note_on_c, 7, 68, 100
9, 12960, Note_on_c, 7, 59, 100
9, 12990, Note_on_c, 7, 59, 0
9, 12990, Note_on_c, 7, 68, 0
9, 12990, Note_on_c, 7, 68, 100
9, 12990, Note_on_c, 7, 59, 100
9, 13020, Note_on_c, 7, 59, 0
9, 13020, Note_on_c, 7, 68, 0
9, 13020, Note_on_c, 7, 68, 100
9, 13020, Note_on_c, 7, 59, 100
9, 13050, Note_on_c, 7, 59, 0
9, 13050, Note_on_c, 7, 68, 0
9, 13050, Note_on_c, 7, 68, 100
9, 13050, Note_on_c, 7, 59, 100
9, 13080, Note_on_c, 7, 59, 0
9, 13080, Note_on_c, 7, 68, 0
9, 13080, Note_on_c, 7, 74, 100
9, 13110, Note_on_c, 7, 74, 0
9, 13110, Note_on_c, 7, 74, 100
9, 13140, Note_on_c, 7, 74, 0
9, 13140, Note_on_c, 7, 74, 100
9, 13170, Note_on_c, 7, 74, 0
9, 13170, Note_on_c, 7, 74, 100
9, 13200, Note_on_c, 7, 74, 0
9, 13200, Note_on_c, 7, 72, 100
9, 13230, Note_on_c, 7, 72, 0
9, 13230, Note_on_c, 7, 72, 100
9, 13260, Note_on_c, 7, 72, 0
9, 13260, Note_on_c, 7, 72, 100
9, 13290, Note_on_c, 7, 72, 0
9, 13290, Note_on_c, 7, 72, 100
9, 13320, Note_on_c, 7, 72, 0
9, 13320, Note_on_c, 7, 75, 100
9, 13350, Note_on_c, 7, 75, 0
9, 13350, Note_on_c, 7, 75, 100
9, 13380, Note_on_c, 7, 75, 0
9, 13380, Note_on_c, 7, 75, 100
9, 13410, Note_on_c, 7, 75, 0
9, 13410, Note_on_c, 7, 75, 100
9, 13440, Note_on_c, 7, 75, 0
9, 13440, Note_on_c, 7, 76, 100
9, 13470, Note_on_c, 7, 76, 0
9, 13470, Note_on_c, 7, 76, 100
9, 13500, Note_on_c, 7, 76, 0
9, 13500, Note_on_c, 7, 76, 100
9, 13530, Note_on_c, 7, 76, 0
9, 13530, Note_on_c, 7, 76, 100
9, 13560, Note_on_c, 7, 76, 0
9, 13560, Note_on_c, 7, 74, 100
9, 13590, Note_on_c, 7, 74, 0
9, 13590, Note_on_c, 7, 74, 100
9, 13620, Note_on_c, 7, 74, 0
9, 13620, Note_on_c, 7, 74, 100
9, 13650, Note_on_c, 7, 74, 0
9, 13650, Note_on_c, 7, 74, 100
9, 13680, Note_on_c, 7, 74, 0
9, 13680, Note_on_c, 7, 72, 100
9, 13710, Note_on_c, 7, 72, 0
9, 13710, Note_on_c, 7, 72, 100
9, 13740, Note_on_c, 7, 72, 0
9, 13740, Note_on_c, 7, 72, 100
9, 13770, Note_on_c, 7, 72, 0
9, 13770, Note_on_c, 7, 72, 100
9, 13800, Note_on_c, 7, 72, 0
9, 13800, Note_on_c, 7, 75, 100
9, 13830, Note_on_c, 7, 75, 0
9, 13830, Note_on_c, 7, 75, 100
9, 13860, Note_on_c, 7, 75, 0
9, 13860, Note_on_c, 7, 75, 100
9, 13890, Note_on_c, 7, 75, 0
9, 13890, Note_on_c, 7, 75, 100
9, 13920, Note_on_c, 7, 75, 0
9, 13920, Note_on_c, 7, 76, 100
9, 13980, Note_on_c, 7, 76, 0
9, 14040, Note_on_c, 7, 76, 100
9, 14070, Note_on_c, 7, 76, 0
9, 14100, Note_on_c, 7, 74, 100
9, 14130, Note_on_c, 7, 74, 0
9, 14160, Note_on_c, 7, 72, 100
9, 14220, Note_on_c, 7, 72, 0
9, 14220, Note_on_c, 7, 76, 100
9, 14280, Note_on_c, 7, 76, 0
9, 14280, Note_on_c, 7, 72, 100
9, 14340, Note_on_c, 7, 72, 0
9, 14340, Note_on_c, 7, 69, 100
9, 14400, Note_on_c, 7, 69, 0
9, 14400, Note_on_c, 7, 68, 100
9, 14460, Note_on_c, 7, 68, 0
9, 14460, Note_on_c, 7, 71, 100
9, 14520, Note_on_c, 7, 71, 0
9, 14520, Note_on_c, 7, 64, 100
9, 14580, Note_on_c, 7, 64, 0
9, 14580, Note_on_c, 7, 62, 100
9, 14640, Note_on_c, 7, 62, 0
9, 14640, Note_on_c, 7, 60, 100
9, 14700, Note_on_c, 7, 60, 0
9, 14700, Note_on_c, 7, 64, 100
9, 14760, Note_on_c, 7, 64, 0
9, 14760, Note_on_c, 7, 60, 100
9, 14820, Note_on_c, 7, 60, 0
9, 14820, Note_on_c, 7, 57, 100
9, 14880, Note_on_c, 7, 57, 0
9, 14880, Note_on_c, 7, 64, 100
9, 15000, Note_on_c, 7, 64, 0
9, 15600, Note_on_c, 7, 64, 50
9, 15780, Note_on_c, 7, 64, 0
9, 15780, Note_on_c, 7, 66, 50
9, 15840, Note_on_c, 7, 66, 0
9, 15840, Note_on_c, 7, 66, 50
9, 15900, Note_on_c, 7, 66, 0
9, 15900, Note_on_c, 7, 64, 50
9, 15930, Note_on_c, 7, 64, 0
9, 15960, Note_on_c, 7, 64, 50
9, 15990, Note_on_c, 7, 64, 0
9, 16020, Note_on_c, 7, 64, 50
9, 16050, Note_on_c, 7, 64, 0
9, 16080, Note_on_c, 7, 64, 50
9, 16140, Note_on_c, 7, 64, 0
9, 16140, Note_on_c, 7, 62, 50
9, 16170, Note_on_c, 7, 62, 0
9, 16200, Note_on_c, 7, 62, 50
9, 16230, Note_on_c, 7, 62, 0
9, 16260, Note_on_c, 7, 62, 50
9, 16290, Note_on_c, 7, 62, 0
9, 16320, Note_on_c, 7, 62, 50
9, 16380, Note_on_c, 7, 62, 0
9, 16380, Note_on_c, 7, 61, 50
9, 16410, Note_on_c, 7, 61, 0
9, 16440, Note_on_c, 7, 61, 50
9, 16470, Note_on_c, 7, 61, 0
9, 16500, Note_on_c, 7, 61, 50
9, 16530, Note_on_c, 7, 61, 0
9, 16560, Note_on_c, 7, 73, 50
9, 16740, Note_on_c, 7, 73, 0
9, 16740, Note_on_c, 7, 74, 50
9, 16800, Note_on_c, 7, 74, 0
9, 16800, Note_on_c, 7, 74, 50
9, 16860, Note_on_c, 7, 74, 0
9, 16860, Note_on_c, 7, 73, 50
9, 16890, Note_on_c, 7, 73, 0
9, 16920, Note_on_c, 7, 73, 50
9, 16950, Note_on_c, 7, 73, 0
9, 16980, Note_on_c, 7, 73, 50
9, 17010, Note_on_c, 7, 73, 0
9, 17040, Note_on_c, 7, 73, 50
9, 17100, Note_on_c, 7, 73, 0
9, 17100, Note_on_c, 7, 71, 50
9, 17130, Note_on_c, 7, 71, 0
9, 17160, Note_on_c, 7, 71, 50
9, 17190, Note_on_c, 7, 71, 0
9, 17220, Note_on_c, 7, 71, 50
9, 17250, Note_on_c, 7, 71, 0
9, 17280, Note_on_c, 7, 71, 50
9, 17340, Note_on_c, 7, 71, 0
9, 17340, Note_on_c, 7, 69, 50
9, 17370, Note_on_c, 7, 69, 0
9, 17400, Note_on_c, 7, 69, 50
9, 17430, Note_on_c, 7, 69, 0
9, 17460, Note_on_c, 7, 69, 50
9, 17490, Note_on_c, 7, 69, 0
9, 18600, Note_on_c, 7, 73, 50
9, 18690, Note_on_c, 7, 73, 0
9, 18690, Note_on_c, 7, 76, 50
9, 18720, Note_on_c, 7, 76, 0
9, 18720, Note_on_c, 7, 74, 50
9, 18780, Note_on_c, 7, 74, 0
9, 18840, Note_on_c, 7, 74, 50
9, 18930, Note_on_c, 7, 74, 0
9, 18930, Note_on_c, 7, 73, 50
9, 18960, Note_on_c, 7, 73, 0
9, 18960, Note_on_c, 7, 71, 50
9, 19020, Note_on_c, 7, 71, 0
9, 19080, Note_on_c, 7, 69, 50
9, 19140, Note_on_c, 7, 69, 0
9, 19440, Note_on_c, 7, 64, 50
9, 19620, Note_on_c, 7, 64, 0
9, 19620, Note_on_c, 7, 66, 50
9, 19680, Note_on_c, 7, 66, 0
9, 19680, Note_on_c, 7, 66, 50
9, 19740, Note_on_c, 7, 66, 0
9, 19740, Note_on_c, 7, 64, 50
9, 19770, Note_on_c, 7, 64, 0
9, 19800, Note_on_c, 7, 64, 50
9, 19830, Note_on_c, 7, 64, 0
9, 19860, Note_on_c, 7, 64, 50
9, 19890, Note_on_c, 7, 64, 0
9, 19920, Note_on_c, 7, 64, 50
9, 19980, Note_on_c, 7, 64, 0
9, 19980, Note_on_c, 7, 62, 50
9, 20010, Note_on_c, 7, 62, 0
9, 20040, Note_on_c, 7, 62, 50
9, 20070, Note_on_c, 7, 62, 0
9, 20100, Note_on_c, 7, 62, 50
9, 20130, Note_on_c, 7, 62, 0
9, 20160, Note_on_c, 7, 62, 50
9, 20220, Note_on_c, 7, 62, 0
9, 20220, Note_on_c, 7, 61, 50
9, 20250, Note_on_c, 7, 61, 0
9, 20280, Note_on_c, 7, 61, 50
9, 20310, Note_on_c, 7, 61, 0
9, 20340, Note_on_c, 7, 61, 50
9, 20370, Note_on_c, 7, 61, 0
9, 20400, Note_on_c, 7, 73, 50
9, 20580, Note_on_c, 7, 73, 0
9, 20580, Note_on_c, 7, 74, 50
9, 20640, Note_on_c, 7, 74, 0
9, 20640, Note_on_c, 7, 74, 50
9, 20700, Note_on_c, 7, 74, 0
9, 20700, Note_on_c, 7, 73, 50
9, 20730, Note_on_c, 7, 73, 0
9, 20760, Note_on_c, 7, 73, 50
9, 20790, Note_on_c, 7, 73, 0
9, 20820, Note_on_c, 7, 73, 50
9, 20850, Note_on_c, 7, 73, 0
9, 20880, Note_on_c, 7, 73, 50
9, 20940, Note_on_c, 7, 73, 0
9, 20940, Note_on_c, 7, 71, 50
9, 20970, Note_on_c, 7, 71, 0
9, 21000, Note_on_c, 7, 71, 50
9, 21030, Note_on_c, 7, 71, 0
9, 21060, Note_on_c, 7, 71, 50
9, 21090, Note_on_c, 7, 71, 0
9, 21120, Note_on_c, 7, 71, 50
9, 21180, Note_on_c, 7, 71, 0
9, 21180, Note_on_c, 7, 69, 50
9, 21210, Note_on_c, 7, 69, 0
9, 21240, Note_on_c, 7, 69, 50
9, 21270, Note_on_c, 7, 69, 0
9, 21300, Note_on_c, 7, 69, 50
9, 21330, Note_on_c, 7, 69, 0
9, 22440, Note_on_c, 7, 73, 50
9, 22530, Note_on_c, 7, 73, 0
9, 22530, Note_on_c, 7, 76, 50
9, 22560, Note_on_c, 7, 76, 0
9, 22560, Note_on_c, 7, 74, 50
9, 22620, Note_on_c, 7, 74, 0
9, 22680, Note_on_c, 7, 74, 50
9, 22770, Note_on_c, 7, 74, 0
9, 22770, Note_on_c, 7, 73, 50
9, 22800, Note_on_c, 7, 73, 0
9, 22800, Note_on_c, 7, 71, 50
9, 22860, Note_on_c, 7, 71, 0
9, 22920, Note_on_c, 7, 69, 50
9, 22980, Note_on_c, 7, 69, 0
9, 23040, Note_on_c, 7, 71, 50
9, 23100, Note_on_c, 7, 71, 0
9, 23160, Note_on_c, 7, 68, 50
9, 23220, Note_on_c, 7, 68, 0
9, 23280, Note_on_c, 7, 69, 50
9, 23400, Note_on_c, 7, 69, 0
9, 25500, Note_on_c, 7, 61, 50
9, 25530, Note_on_c, 7, 61, 0
9, 25560, Note_on_c, 7, 64, 50
9, 25590, Note_on_c, 7, 64, 0
9, 25620, Note_on_c, 7, 61, 50
9, 25650, Note_on_c, 7, 61, 0
9, 25680, Note_on_c, 7, 69, 50
9, 26160, Note_on_c, 7, 69, 0
9, 26160, Note_on_c, 7, 81, 100
9, 26160, Note_on_c, 7, 69, 100
9, 26190, Note_on_c, 7, 69, 0
9, 26190, Note_on_c, 7, 81, 0
9, 26190, Note_on_c, 7, 81, 100
9, 26190, Note_on_c, 7, 69, 100
9, 26220, Note_on_c, 7, 69, 0
9, 26220, Note_on_c, 7, 81, 0
9, 26220, Note_on_c, 7, 81, 100
9, 26220, Note_on_c, 7, 69, 100
9, 26250, Note_on_c, 7, 69, 0
9, 26250, Note_on_c, 7, 81, 0
9, 26250, Note_on_c, 7, 81, 100
9, 26250, Note_on_c, 7, 69, 100
9, 26280, Note_on_c, 7, 69, 0
9, 26280, Note_on_c, 7, 81, 0
9, 26280, Note_on_c, 7, 81, 100
9, 26280, Note_on_c, 7, 69, 100
9, 26310, Note_on_c, 7, 69, 0
9, 26310, Note_on_c, 7, 81, 0
9, 26310, Note_on_c, 7, 81, 100
9, 26310, Note_on_c, 7, 69, 100
9, 26340, Note_on_c, 7, 69, 0
9, 26340, Note_on_c, 7, 81, 0
9, 26340, Note_on_c, 7, 81, 100
9, 26340, Note_on_c, 7, 69, 100
9, 26370, Note_on_c, 7, 69, 0
9, 26370, Note_on_c, 7, 81, 0
9, 26370, Note_on_c, 7, 81, 100
9, 26370, Note_on_c, 7, 69, 100
9, 26400, Note_on_c, 7, 69, 0
9, 26400, Note_on_c, 7, 81, 0
9, 26400, Note_on_c, 7, 81, 100
9, 26400, Note_on_c, 7, 69, 100
9, 26430, Note_on_c, 7, 69, 0
9, 26430, Note_on_c, 7, 81, 0
9, 26430, Note_on_c, 7, 81, 100
9, 26430, Note_on_c, 7, 69, 100
9, 26460, Note_on_c, 7, 69, 0
9, 26460, Note_on_c, 7, 81, 0
9, 26460, Note_on_c, 7, 81, 100
9, 26460, Note_on_c, 7, 69, 100
9, 26490, Note_on_c, 7, 69, 0
9, 26490, Note_on_c, 7, 81, 0
9, 26490, Note_on_c, 7, 81, 100
9, 26490, Note_on_c, 7, 69, 100
9, 26520, Note_on_c, 7, 69, 0
9, 26520, Note_on_c, 7, 81, 0
9, 26520, Note_on_c, 7, 81, 100
9, 26520, Note_on_c, 7, 69, 100
9, 26550, Note_on_c, 7, 69, 0
9, 26550, Note_on_c, 7, 81, 0
9, 26550, Note_on_c, 7, 81, 100
9, 26550, Note_on_c, 7, 69, 100
9, 26580, Note_on_c, 7, 69, 0
9, 26580, Note_on_c, 7, 81, 0
9, 26580, Note_on_c, 7, 81, 100
9, 26580, Note_on_c, 7, 69, 100
9, 26610, Note_on_c, 7, 69, 0
9, 26610, Note_on_c, 7, 81, 0
9, 26610, Note_on_c, 7, 81, 100
9, 26610, Note_on_c, 7, 69, 100
9, 26640, Note_on_c, 7, 69, 0
9, 26640, Note_on_c, 7, 81, 0
9, 26640, Note_on_c, 7, 81, 100
9, 26640, Note_on_c, 7, 69, 100
9, 26670, Note_on_c, 7, 69, 0
9, 26670, Note_on_c, 7, 81, 0
9, 26670, Note_on_c, 7, 81, 100
9, 26670, Note_on_c, 7, 69, 100
9, 26700, Note_on_c, 7, 69, 0
9, 26700, Note_on_c, 7, 81, 0
9, 26700, Note_on_c, 7, 81, 100
9, 26700, Note_on_c, 7, 69, 100
9, 26730, Note_on_c, 7, 69, 0
9, 26730, Note_on_c, 7, 81, 0
9, 26730, Note_on_c, 7, 81, 100
9, 26730, Note_on_c, 7, 69, 100
9, 26760, Note_on_c, 7, 69, 0
9, 26760, Note_on_c, 7, 81, 0
9, 26760, Note_on_c, 7, 81, 100
9, 26760, Note_on_c, 7, 69, 100
9, 26790, Note_on_c, 7, 69, 0
9, 26790, Note_on_c, 7, 81, 0
9, 26790, Note_on_c, 7, 81, 100
9, 26790, Note_on_c, 7, 69, 100
9, 26820, Note_on_c, 7, 69, 0
9, 26820, Note_on_c, 7, 81, 0
9, 26820, Note_on_c, 7, 81, 100
9, 26820, Note_on_c, 7, 69, 100
9, 26850, Note_on_c, 7, 69, 0
9, 26850, Note_on_c, 7, 81, 0
9, 26850, Note_on_c, 7, 81, 100
9, 26850, Note_on_c, 7, 69, 100
9, 26880, Note_on_c, 7, 69, 0
9, 26880, Note_on_c, 7, 81, 0
9, 26880, Note_on_c, 7, 81, 100
9, 26880, Note_on_c, 7, 69, 100
9, 26910, Note_on_c, 7, 69, 0
9, 26910, Note_on_c, 7, 81, 0
9, 26910, Note_on_c, 7, 81, 100
9, 26910, Note_on_c, 7, 69, 100
9, 26940, Note_on_c, 7, 69, 0
9, 26940, Note_on_c, 7, 81, 0
9, 26940, Note_on_c, 7, 81, 100
9, 26940, Note_on_c, 7, 69, 100
9, 26970, Note_on_c, 7, 69, 0
9, 26970, Note_on_c, 7, 81, 0
9, 26970, Note_on_c, 7, 81, 100
9, 26970, Note_on_c, 7, 69, 100
9, 27000, Note_on_c, 7, 69, 0
9, 27000, Note_on_c, 7, 81, 0
9, 27000, Note_on_c, 7, 81, 100
9, 27000, Note_on_c, 7, 69, 100
9, 27030, Note_on_c, 7, 69, 0
9, 27030, Note_on_c, 7, 81, 0
9, 27030, Note_on_c, 7, 81, 100
9, 27030, Note_on_c, 7, 69, 100
9, 27060, Note_on_c, 7, 69, 0
9, 27060, Note_on_c, 7, 81, 0
9, 27060, Note_on_c, 7, 81, 100
9, 27060, Note_on_c, 7, 69, 100
9, 27090, Note_on_c, 7, 69, 0
9, 27090, Note_on_c, 7, 81, 0
9, 27090, Note_on_c, 7, 81, 100
9, 27090, Note_on_c, 7, 69, 100
9, 27120, Note_on_c, 7, 69, 0
9, 27120, Note_on_c, 7, 81, 0
9, 27120, Note_on_c, 7, 81, 100
9, 27120, Note_on_c, 7, 69, 100
9, 27150, Note_on_c, 7, 69, 0
9, 27150, Note_on_c, 7, 81, 0
9, 27150, Note_on_c, 7, 81, 100
9, 27150, Note_on_c, 7, 69, 100
9, 27180, Note_on_c, 7, 69, 0
9, 27180, Note_on_c, 7, 81, 0
9, 27180, Note_on_c, 7, 81, 100
9, 27180, Note_on_c, 7, 69, 100
9, 27210, Note_on_c, 7, 69, 0
9, 27210, Note_on_c, 7, 81, 0
9, 27210, Note_on_c, 7, 81, 100
9, 27210, Note_on_c, 7, 69, 100
9, 27240, Note_on_c, 7, 69, 0
9, 27240, Note_on_c, 7, 81, 0
9, 27240, Note_on_c, 7, 81, 100
9, 27240, Note_on_c, 7, 69, 100
9, 27270, Note_on_c, 7, 69, 0
9, 27270, Note_on_c, 7, 81, 0
9, 27270, Note_on_c, 7, 81, 100
9, 27270, Note_on_c, 7, 69, 100
9, 27300, Note_on_c, 7, 69, 0
9, 27300, Note_on_c, 7, 81, 0
9, 27300, Note_on_c, 7, 81, 100
9, 27300, Note_on_c, 7, 69, 100
9, 27330, Note_on_c, 7, 69, 0
9, 27330, Note_on_c, 7, 81, 0
9, 27330, Note_on_c, 7, 81, 100
9, 27330, Note_on_c, 7, 69, 100
9, 27360, Note_on_c, 7, 69, 0
9, 27360, Note_on_c, 7, 81, 0
9, 27360, Note_on_c, 7, 81, 100
9, 27360, Note_on_c, 7, 69, 100
9, 27390, Note_on_c, 7, 69, 0
9, 27390, Note_on_c, 7, 81, 0
9, 27390, Note_on_c, 7, 81, 100
9, 27390, Note_on_c, 7, 69, 100
9, 27420, Note_on_c, 7, 69, 0
9, 27420, Note_on_c, 7, 81, 0
9, 27420, Note_on_c, 7, 81, 100
9, 27420, Note_on_c, 7, 69, 100
9, 27450, Note_on_c, 7, 69, 0
9, 27450, Note_on_c, 7, 81, 0
9, 27450, Note_on_c, 7, 81, 100
9, 27450, Note_on_c, 7, 69, 100
9, 27480, Note_on_c, 7, 69, 0
9, 27480, Note_on_c, 7, 81, 0
9, 27480, Note_on_c, 7, 81, 100
9, 27480, Note_on_c, 7, 69, 100
9, 27510, Note_on_c, 7, 69, 0
9, 27510, Note_on_c, 7, 81, 0
9, 27510, Note_on_c, 7, 81, 100
9, 27510, Note_on_c, 7, 69, 100
9, 27540, Note_on_c, 7, 69, 0
9, 27540, Note_on_c, 7, 81, 0
9, 27540, Note_on_c, 7, 81, 100
9, 27540, Note_on_c, 7, 69, 100
9, 27570, Note_on_c, 7, 69, 0
9, 27570, Note_on_c, 7, 81, 0
9, 27570, Note_on_c, 7, 81, 100
9, 27570, Note_on_c, 7, 69, 100
9, 27600, Note_on_c, 7, 69, 0
9, 27600, Note_on_c, 7, 81, 0
9, 27600, Note_on_c, 7, 81, 100
9, 27600, Note_on_c, 7, 69, 100
9, 27630, Note_on_c, 7, 69, 0
9, 27630, Note_on_c, 7, 81, 0
9, 27630, Note_on_c, 7, 81, 100
9, 27630, Note_on_c, 7, 69, 100
9, 27660, Note_on_c, 7, 69, 0
9, 27660, Note_on_c, 7, 81, 0
9, 27660, Note_on_c, 7, 81, 100
9, 27660, Note_on_c, 7, 69, 100
9, 27690, Note_on_c, 7, 69, 0
9, 27690, Note_on_c, 7, 81, 0
9, 27690, Note_on_c, 7, 81, 100
9, 27690, Note_on_c, 7, 69, 100
9, 27720, Note_on_c, 7, 69, 0
9, 27720, Note_on_c, 7, 81, 0
9, 27720, Note_on_c, 7, 81, 100
9, 27720, Note_on_c, 7, 69, 100
9, 27750, Note_on_c, 7, 69, 0
9, 27750, Note_on_c, 7, 81, 0
9, 27750, Note_on_c, 7, 81, 100
9, 27750, Note_on_c, 7, 69, 100
9, 27780, Note_on_c, 7, 69, 0
9, 27780, Note_on_c, 7, 81, 0
9, 27780, Note_on_c, 7, 81, 100
9, 27780, Note_on_c, 7, 69, 100
9, 27810, Note_on_c, 7, 69, 0
9, 27810, Note_on_c, 7, 81, 0
9, 27810, Note_on_c, 7, 81, 100
9, 27810, Note_on_c, 7, 69, 100
9, 27840, Note_on_c, 7, 69, 0
9, 27840, Note_on_c, 7, 81, 0
9, 27840, Note_on_c, 7, 81, 100
9, 27840, Note_on_c, 7, 69, 100
9, 27870, Note_on_c, 7, 69, 0
9, 27870, Note_on_c, 7, 81, 0
9, 27870, Note_on_c, 7, 81, 100
9, 27870, Note_on_c, 7, 69, 100
9, 27900, Note_on_c, 7, 69, 0
9, 27900, Note_on_c, 7, 81, 0
9, 27900, Note_on_c, 7, 81, 100
9, 27900, Note_on_c, 7, 69, 100
9, 27930, Note_on_c, 7, 69, 0
9, 27930, Note_on_c, 7, 81, 0
9, 27930, Note_on_c, 7, 81, 100
9, 27930, Note_on_c, 7, 69, 100
9, 27960, Note_on_c, 7, 69, 0
9, 27960, Note_on_c, 7, 81, 0
9, 27960, Note_on_c, 7, 81, 100
9, 27960, Note_on_c, 7, 69, 100
9, 27990, Note_on_c, 7, 69, 0
9, 27990, Note_on_c, 7, 81, 0
9, 27990, Note_on_c, 7, 81, 100
9, 27990, Note_on_c, 7, 69, 100
9, 28020, Note_on_c, 7, 69, 0
9, 28020, Note_on_c, 7, 81, 0
9, 28020, Note_on_c, 7, 81, 100
9, 28020, Note_on_c, 7, 69, 100
9, 28050, Note_on_c, 7, 69, 0
9, 28050, Note_on_c, 7, 81, 0
9, 28050, Note_on_c, 7, 81, 100
9, 28050, Note_on_c, 7, 69, 100
9, 28080, Note_on_c, 7, 69, 0
9, 28080, Note_on_c, 7, 81, 0
9, 28080, Note_on_c, 7, 80, 100
9, 28110, Note_on_c, 7, 80, 0
9, 28110, Note_on_c, 7, 80, 100
9, 28140, Note_on_c, 7, 80, 0
9, 28140, Note_on_c, 7, 80, 100
9, 28170, Note_on_c, 7, 80, 0
9, 28170, Note_on_c, 7, 80, 100
9, 28200, Note_on_c, 7, 80, 0
9, 28200, Note_on_c, 7, 81, 100
9, 28230, Note_on_c, 7, 81, 0
9, 28230, Note_on_c, 7, 81, 100
9, 28260, Note_on_c, 7, 81, 0
9, 28260, Note_on_c, 7, 81, 100
9, 28290, Note_on_c, 7, 81, 0
9, 28290, Note_on_c, 7, 81, 100
9, 28320, Note_on_c, 7, 81, 0
9, 28320, Note_on_c, 7, 83, 100
9, 28350, Note_on_c, 7, 83, 0
9, 28350, Note_on_c, 7, 83, 100
9, 28380, Note_on_c, 7, 83, 0
9, 28380, Note_on_c, 7, 83, 100
9, 28410, Note_on_c, 7, 83, 0
9, 28410, Note_on_c, 7, 83, 100
9, 28440, Note_on_c, 7, 83, 0
9, 28440, Note_on_c, 7, 80, 100
9, 28470, Note_on_c, 7, 80, 0
9, 28470, Note_on_c, 7, 80, 100
9, 28500, Note_on_c, 7, 80, 0
9, 28500, Note_on_c, 7, 80, 100
9, 28530, Note_on_c, 7, 80, 0
9, 28530, Note_on_c, 7, 80, 100
9, 28560, Note_on_c, 7, 80, 0
9, 28560, Note_on_c, 7, 81, 100
9, 28680, Note_on_c, 7, 81, 0
9, 28800, Program_c, 7, 45
9, 28800, Note_on_c, 7, 59, 50
9, 28800, Note_on_c, 7, 68, 50
9, 28860, Note_on_c, 7, 68, 0
9, 28860, Note_on_c, 7, 59, 0
9, 28920, Note_on_c, 7, 59, 50
9, 28920, Note_on_c, 7, 68, 50
9, 28980, Note_on_c, 7, 68, 0
9, 28980, Note_on_c, 7, 59, 0
9, 29040, Note_on_c, 7, 57, 50
9, 29040, Note_on_c, 7, 69, 50
9, 29100, Note_on_c, 7, 69, 0
9, 29100, Note_on_c, 7, 57, 0
9, 29280, Note_on_c, 7, 59, 50
9, 29280, Note_on_c, 7, 68, 50
9, 29340, Note_on_c, 7, 68, 0
9, 29340, Note_on_c, 7, 59, 0
9, 29400, Note_on_c, 7, 59, 50
9, 29400, Note_on_c, 7, 68, 50
9, 29460, Note_on_c, 7, 68, 0
9, 29460, Note_on_c, 7, 59, 0
9, 29520, Note_on_c, 7, 57, 50
9, 29520, Note_on_c, 7, 69, 50
9, 29580, Note_on_c, 7, 69, 0
9, 29580, Note_on_c, 7, 57, 0
9, 29760, Note_on_c, 7, 59, 50
9, 29760, Note_on_c, 7, 68, 50
9, 29820, Note_on_c, 7, 68, 0
9, 29820, Note_on_c, 7, 59, 0
9, 29880, Note_on_c, 7, 59, 50
9, 29880, Note_on_c, 7, 68, 50
9, 29940, Note_on_c, 7, 68, 0
9, 29940, Note_on_c, 7, 59, 0
9, 30000, Note_on_c, 7, 57, 50
9, 30000, Note_on_c, 7, 69, 50
9, 30060, Note_on_c, 7, 69, 0
9, 30060, Note_on_c, 7, 57, 0
9, 30960, Program_c, 7, 48
9, 30960, Note_on_c, 7, 73, 50
9, 30975, Note_on_c, 7, 73, 0
9, 30975, Note_on_c, 7, 71, 50
9, 30990, Note_on_c, 7, 71, 0
9, 30990, Note_on_c, 7, 73, 50
9, 31005, Note_on_c, 7, 73, 0
9, 31005, Note_on_c, 7, 71, 50
9, 31020, Note_on_c, 7, 71, 0
9, 31020, Note_on_c, 7, 73, 50
9, 31035, Note_on_c, 7, 73, 0
9, 31035, Note_on_c, 7, 71, 50
9, 31050, Note_on_c, 7, 71, 0
9, 31050, Note_on_c, 7, 73, 50
9, 31065, Note_on_c, 7, 73, 0
9, 31065, Note_on_c, 7, 71, 50
9, 31080, Note_on_c, 7, 71, 0
9, 31080, Note_on_c, 7, 73, 50
9, 31095, Note_on_c, 7, 73, 0
9, 31095, Note_on_c, 7, 71, 50
9, 31110, Note_on_c, 7, 71, 0
9, 31110, Note_on_c, 7, 73, 50
9, 31125, Note_on_c, 7, 73, 0
9, 31125, Note_on_c, 7, 71, 50
9, 31140, Note_on_c, 7, 71, 0
9, 31140, Note_on_c, 7, 71, 50
9, 31170, Note_on_c, 7, 71, 0
9, 31170, Note_on_c, 7, 73, 50
9, 31200, Note_on_c, 7, 73, 0
9, 31200, Note_on_c, 7, 74, 50
9, 31320, Note_on_c, 7, 74, 0
9, 31440, Note_on_c, 7, 69, 50
9, 31455, Note_on_c, 7, 69, 0
9, 31455, Note_on_c, 7, 68, 50
9, 31470, Note_on_c, 7, 68, 0
9, 31470, Note_on_c, 7, 69, 50
9, 31485, Note_on_c, 7, 69, 0
9, 31485, Note_on_c, 7, 68, 50
9, 31500, Note_on_c, 7, 68, 0
9, 31500, Note_on_c, 7, 69, 50
9, 31515, Note_on_c, 7, 69, 0
9, 31515, Note_on_c, 7, 68, 50
9, 31530, Note_on_c, 7, 68, 0
9, 31530, Note_on_c, 7, 69, 50
9, 31545, Note_on_c, 7, 69, 0
9, 31545, Note_on_c, 7, 68, 50
9, 31560, Note_on_c, 7, 68, 0
9, 31560, Note_on_c, 7, 69, 50
9, 31575, Note_on_c, 7, 69, 0
9, 31575, Note_on_c, 7, 68, 50
9, 31590, Note_on_c, 7, 68, 0
9, 31590, Note_on_c, 7, 69, 50
9, 31605, Note_on_c, 7, 69, 0
9, 31605, Note_on_c, 7, 68, 50
9, 31620, Note_on_c, 7, 68, 0
9, 31620, Note_on_c, 7, 68, 50
9, 31650, Note_on_c, 7, 68, 0
9, 31650, Note_on_c, 7, 69, 50
9, 31680, Note_on_c, 7, 69, 0
9, 31680, Note_on_c, 7, 71, 50
9, 31740, Note_on_c, 7, 71, 0
9, 31800, Note_on_c, 7, 68, 50
9, 31860, Note_on_c, 7, 68, 0
9, 31920, Program_c, 7, 48
9, 31920, Note_on_c, 7, 73, 50
9, 31935, Note_on_c, 7, 73, 0
9, 31935, Note_on_c, 7, 71, 50
9, 31950, Note_on_c, 7, 71, 0
9, 31950, Note_on_c, 7, 73, 50
9, 31965, Note_on_c, 7, 73, 0
9, 31965, Note_on_c, 7, 71, 50
9, 31980, Note_on_c, 7, 71, 0
9, 31980, Note_on_c, 7, 73, 50
9, 31995, Note_on_c, 7, 73, 0
9, 31995, Note_on_c, 7, 71, 50
9, 32010, Note_on_c, 7, 71, 0
9, 32010, Note_on_c, 7, 73, 50
9, 32025, Note_on_c, 7, 73, 0
9, 32025, Note_on_c, 7, 71, 50
9, 32040, Note_on_c, 7, 71, 0
9, 32040, Note_on_c, 7, 73, 50
9, 32055, Note_on_c, 7, 73, 0
9, 32055, Note_on_c, 7, 71, 50
9, 32070, Note_on_c, 7, 71, 0
9, 32070, Note_on_c, 7, 73, 50
9, 32085, Note_on_c, 7, 73, 0
9, 32085, Note_on_c, 7, 71, 50
9, 32100, Note_on_c, 7, 71, 0
9, 32100, Note_on_c, 7, 71, 50
9, 32130, Note_on_c, 7, 71, 0
9, 32130, Note_on_c, 7, 73, 50
9, 32160, Note_on_c, 7, 73, 0
9, 32160, Note_on_c, 7, 74, 50
9, 32280, Note_on_c, 7, 74, 0
9, 32400, Note_on_c, 7, 69, 50
9, 32415, Note_on_c, 7, 69, 0
9, 32415, Note_on_c, 7, 68, 50
9, 32430, Note_on_c, 7, 68, 0
9, 32430, Note_on_c, 7, 69, 50
9, 32445, Note_on_c, 7, 69, 0
9, 32445, Note_on_c, 7, 68, 50
9, 32460, Note_on_c, 7, 68, 0
9, 32460, Note_on_c, 7, 69, 50
9, 32475, Note_on_c, 7, 69, 0
9, 32475, Note_on_c, 7, 68, 50
9, 32490, Note_on_c, 7, 68, 0
9, 32490, Note_on_c, 7, 69, 50
9, 32505, Note_on_c, 7, 69, 0
9, 32505, Note_on_c, 7, 68, 50
9, 32520, Note_on_c, 7, 68, 0
9, 32520, Note_on_c, 7, 69, 50
9, 32535, Note_on_c, 7, 69, 0
9, 32535, Note_on_c, 7, 68, 50
9, 32550, Note_on_c, 7, 68, 0
9, 32550, Note_on_c, 7, 69, 50
9, 32565, Note_on_c, 7, 69, 0
9, 32565, Note_on_c, 7, 68, 50
9, 32580, Note_on_c, 7, 68, 0
9, 32580, Note_on_c, 7, 68, 50
9, 32610, Note_on_c, 7, 68, 0
9, 32610, Note_on_c, 7, 69, 50
9, 32640, Note_on_c, 7, 69, 0
9, 32640, Note_on_c, 7, 71, 50
9, 32700, Note_on_c, 7, 71, 0
9, 32760, Note_on_c, 7, 68, 50
9, 32820, Note_on_c, 7, 68, 0
9, 32880, Note_on_c, 7, 61, 100
9, 32880, Note_on_c, 7, 64, 100
9, 32910, Note_on_c, 7, 64, 0
9, 32910, Note_on_c, 7, 61, 0
9, 32910, Note_on_c, 7, 61, 100
9, 32910, Note_on_c, 7, 64, 100
9, 32940, Note_on_c, 7, 64, 0
9, 32940, Note_on_c, 7, 61, 0
9, 32940, Note_on_c, 7, 61, 100
9, 32940, Note_on_c, 7, 64, 100
9, 32970, Note_on_c, 7, 64, 0
9, 32970, Note_on_c, 7, 61, 0
9, 32970, Note_on_c, 7, 61, 100
9, 32970, Note_on_c, 7, 64, 100
9, 33000, Note_on_c, 7, 64, 0
9, 33000, Note_on_c, 7, 61, 0
9, 33000, Note_on_c, 7, 61, 101
9, 33000, Note_on_c, 7, 64, 101
9, 33030, Note_on_c, 7, 64, 0
9, 33030, Note_on_c, 7, 61, 0
9, 33030, Note_on_c, 7, 61, 101
9, 33030, Note_on_c, 7, 64, 101
9, 33060, Note_on_c, 7, 64, 0
9, 33060, Note_on_c, 7, 61, 0
9, 33060, Note_on_c, 7, 61, 101
9, 33060, Note_on_c, 7, 64, 101
9, 33090, Note_on_c, 7, 64, 0
9, 33090, Note_on_c, 7, 61, 0
9, 33090, Note_on_c, 7, 61, 101
9, 33090, Note_on_c, 7, 64, 101
9, 33120, Note_on_c, 7, 64, 0
9, 33120, Note_on_c, 7, 61, 0
9, 33120, Note_on_c, 7, 61, 102
9, 33120, Note_on_c, 7, 64, 102
9, 33150, Note_on_c, 7, 64, 0
9, 33150, Note_on_c, 7, 61, 0
9, 33150, Note_on_c, 7, 61, 102
9, 33150, Note_on_c, 7, 64, 102
9, 33180, Note_on_c, 7, 64, 0
9, 33180, Note_on_c, 7, 61, 0
9, 33180, Note_on_c, 7, 61, 102
9, 33180, Note_on_c, 7, 64, 102
9, 33210, Note_on_c, 7, 64, 0
9, 33210, Note_on_c, 7, 61, 0
9, 33210, Note_on_c, 7, 61, 103
9, 33210, Note_on_c, 7, 64, 103
9, 33240, Note_on_c, 7, 64, 0
9, 33240, Note_on_c, 7, 61, 0
9, 33240, Note_on_c, 7, 61, 103
9, 33240, Note_on_c, 7, 64, 103
9, 33270, Note_on_c, 7, 64, 0
9, 33270, Note_on_c, 7, 61, 0
9, 33270, Note_on_c, 7, 61, 103
9, 33270, Note_on_c, 7, 64, 103
9, 33300, Note_on_c, 7, 64, 0
9, 33300, Note_on_c, 7, 61, 0
9, 33300, Note_on_c, 7, 61, 103
9, 33300, Note_on_c, 7, 64, 103
9, 33330, Note_on_c, 7, 64, 0
9, 33330, Note_on_c, 7, 61, 0
9, 33330, Note_on_c, 7, 61, 104
9, 33330, Note_on_c, 7, 64, 104
9, 33360, Note_on_c, 7, 64, 0
9, 33360, Note_on_c, 7, 61, 0
9, 33360, Note_on_c, 7, 61, 104
9, 33360, Note_on_c, 7, 64, 104
9, 33390, Note_on_c, 7, 64, 0
9, 33390, Note_on_c, 7, 61, 0
9, 33390, Note_on_c, 7, 61, 104
9, 33390, Note_on_c, 7, 64, 104
9, 33420, Note_on_c, 7, 64, 0
9, 33420, Note_on_c, 7, 61, 0
9, 33420, Note_on_c, 7, 61, 105
9, 33420, Note_on_c, 7, 64, 105
9, 33450, Note_on_c, 7, 64, 0
9, 33450, Note_on_c, 7, 61, 0
9, 33450, Note_on_c, 7, 61, 105
9, 33450, Note_on_c, 7, 64, 105
9, 33480, Note_on_c, 7, 64, 0
9, 33480, Note_on_c, 7, 61, 0
9, 33480, Note_on_c, 7, 61, 105
9, 33480, Note_on_c, 7, 64, 105
9, 33510, Note_on_c, 7, 64, 0
9, 33510, Note_on_c, 7, 61, 0
9, 33510, Note_on_c, 7, 61, 105
9, 33510, Note_on_c, 7, 64, 105
9, 33540, Note_on_c, 7, 64, 0
9, 33540, Note_on_c, 7, 61, 0
9, 33540, Note_on_c, 7, 61, 106
9, 33540, Note_on_c, 7, 64, 106
9, 33570, Note_on_c, 7, 64, 0
9, 33570, Note_on_c, 7, 61, 0
9, 33570, Note_on_c, 7, 61, 106
9, 33570, Note_on_c, 7, 64, 106
9, 33600, Note_on_c, 7, 64, 0
9, 33600, Note_on_c, 7, 61, 0
9, 33600, Note_on_c, 7, 61, 106
9, 33600, Note_on_c, 7, 64, 106
9, 33630, Note_on_c, 7, 64, 0
9, 33630, Note_on_c, 7, 61, 0
9, 33630, Note_on_c, 7, 61, 107
9, 33630, Note_on_c, 7, 64, 107
9, 33660, Note_on_c, 7, 64, 0
9, 33660, Note_on_c, 7, 61, 0
9, 33660, Note_on_c, 7, 61, 107
9, 33660, Note_on_c, 7, 64, 107
9, 33690, Note_on_c, 7, 64, 0
9, 33690, Note_on_c, 7, 61, 0
9, 33690, Note_on_c, 7, 61, 107
9, 33690, Note_on_c, 7, 64, 107
9, 33720, Note_on_c, 7, 64, 0
9, 33720, Note_on_c, 7, 61, 0
9, 33720, Note_on_c, 7, 61, 107
9, 33720, Note_on_c, 7, 64, 107
9, 33750, Note_on_c, 7, 64, 0
9, 33750, Note_on_c, 7, 61, 0
9, 33750, Note_on_c, 7, 61, 108
9, 33750, Note_on_c, 7, 64, 108
9, 33780, Note_on_c, 7, 64, 0
9, 33780, Note_on_c, 7, 61, 0
9, 33780, Note_on_c, 7, 61, 108
9, 33780, Note_on_c, 7, 64, 108
9, 33810, Note_on_c, 7, 64, 0
9, 33810, Note_on_c, 7, 61, 0
9, 33810, Note_on_c, 7, 61, 108
9, 33810, Note_on_c, 7, 64, 108
9, 33840, Note_on_c, 7, 64, 0
9, 33840, Note_on_c, 7, 61, 0
9, 33840, Note_on_c, 7, 61, 109
9, 33840, Note_on_c, 7, 64, 109
9, 33870, Note_on_c, 7, 64, 0
9, 33870, Note_on_c, 7, 61, 0
9, 33870, Note_on_c, 7, 61, 109
9, 33870, Note_on_c, 7, 64, 109
9, 33900, Note_on_c, 7, 64, 0
9, 33900, Note_on_c, 7, 61, 0
9, 33900, Note_on_c, 7, 61, 109
9, 33900, Note_on_c, 7, 64, 109
9, 33930, Note_on_c, 7, 64, 0
9, 33930, Note_on_c, 7, 61, 0
9, 33930, Note_on_c, 7, 61, 109
9, 33930, Note_on_c, 7, 64, 109
9, 33960, Note_on_c, 7, 64, 0
9, 33960, Note_on_c, 7, 61, 0
9, 33960, Note_on_c, 7, 61, 110
9, 33960, Note_on_c, 7, 64, 110
9, 33990, Note_on_c, 7, 64, 0
9, 33990, Note_on_c, 7, 61, 0
9, 33990, Note_on_c, 7, 61, 110
9, 33990, Note_on_c, 7, 64, 110
9, 34020, Note_on_c, 7, 64, 0
9, 34020, Note_on_c, 7, 61, 0
9, 34020, Note_on_c, 7, 61, 110
9, 34020, Note_on_c, 7, 64, 110
9, 34050, Note_on_c, 7, 64, 0
9, 34050, Note_on_c, 7, 61, 0
9, 34050, Note_on_c, 7, 61, 110
9, 34050, Note_on_c, 7, 64, 110
9, 34080, Note_on_c, 7, 64, 0
9, 34080, Note_on_c, 7, 61, 0
9, 34080, Note_on_c, 7, 61, 111
9, 34080, Note_on_c, 7, 64, 111
9, 34110, Note_on_c, 7, 64, 0
9, 34110, Note_on_c, 7, 61, 0
9, 34110, Note_on_c, 7, 61, 111
9, 34110, Note_on_c, 7, 64, 111
9, 34140, Note_on_c, 7, 64, 0
9, 34140, Note_on_c, 7, 61, 0
9, 34140, Note_on_c, 7, 61, 111
9, 34140, Note_on_c, 7, 64, 111
9, 34170, Note_on_c, 7, 64, 0
9, 34170, Note_on_c, 7, 61, 0
9, 34170, Note_on_c, 7, 61, 112
9, 34170, Note_on_c, 7, 64, 112
9, 34200, Note_on_c, 7, 64, 0
9, 34200, Note_on_c, 7, 61, 0
9, 34200, Note_on_c, 7, 61, 112
9, 34200, Note_on_c, 7, 64, 112
9, 34230, Note_on_c, 7, 64, 0
9, 34230, Note_on_c, 7, 61, 0
9, 34230, Note_on_c, 7, 61, 112
9, 34230, Note_on_c, 7, 64, 112
9, 34260, Note_on_c, 7, 64, 0
9, 34260, Note_on_c, 7, 61, 0
9, 34260, Note_on_c, 7, 61, 112
9, 34260, Note_on_c, 7, 64, 112
9, 34290, Note_on_c, 7, 64, 0
9, 34290, Note_on_c, 7, 61, 0
9, 34290, Note_on_c, 7, 61, 113
9, 34290, Note_on_c, 7, 64, 113
9, 34320, Note_on_c, 7, 64, 0
9, 34320, Note_on_c, 7, 61, 0
9, 34320, Note_on_c, 7, 61, 113
9, 34320, Note_on_c, 7, 64, 113
9, 34350, Note_on_c, 7, 64, 0
9, 34350, Note_on_c, 7, 61, 0
9, 34350, Note_on_c, 7, 61, 113
9, 34350, Note_on_c, 7, 64, 113
9, 34380, Note_on_c, 7, 64, 0
9, 34380, Note_on_c, 7, 61, 0
9, 34380, Note_on_c, 7, 61, 114
9, 34380, Note_on_c, 7, 64, 114
9, 34410, Note_on_c, 7, 64, 0
9, 34410, Note_on_c, 7, 61, 0
9, 34410, Note_on_c, 7, 61, 114
9, 34410, Note_on_c, 7, 64, 114
9, 34440, Note_on_c, 7, 64, 0
9, 34440, Note_on_c, 7, 61, 0
9, 34440, Note_on_c, 7, 61, 114
9, 34440, Note_on_c, 7, 64, 114
9, 34470, Note_on_c, 7, 64, 0
9, 34470, Note_on_c, 7, 61, 0
9, 34470, Note_on_c, 7, 61, 114
9, 34470, Note_on_c, 7, 64, 114
9, 34500, Note_on_c, 7, 64, 0
9, 34500, Note_on_c, 7, 61, 0
9, 34500, Note_on_c, 7, 61, 115
9, 34500, Note_on_c, 7, 64, 115
9, 34530, Note_on_c, 7, 64, 0
9, 34530, Note_on_c, 7, 61, 0
9, 34530, Note_on_c, 7, 61, 115
9, 34530, Note_on_c, 7, 64, 115
9, 34560, Note_on_c, 7, 64, 0
9, 34560, Note_on_c, 7, 61, 0
9, 34560, Note_on_c, 7, 61, 115
9, 34560, Note_on_c, 7, 64, 115
9, 34590, Note_on_c, 7, 64, 0
9, 34590, Note_on_c, 7, 61, 0
9, 34590, Note_on_c, 7, 61, 116
9, 34590, Note_on_c, 7, 64, 116
9, 34620, Note_on_c, 7, 64, 0
9, 34620, Note_on_c, 7, 61, 0
9, 34620, Note_on_c, 7, 61, 116
9, 34620, Note_on_c, 7, 64, 116
9, 34650, Note_on_c, 7, 64, 0
9, 34650, Note_on_c, 7, 61, 0
9, 34650, Note_on_c, 7, 61, 116
9, 34650, Note_on_c, 7, 64, 116
9, 34680, Note_on_c, 7, 64, 0
9, 34680, Note_on_c, 7, 61, 0
9, 34680, Note_on_c, 7, 61, 116
9, 34680, Note_on_c, 7, 64, 116
9, 34710, Note_on_c, 7, 64, 0
9, 34710, Note_on_c, 7, 61, 0
9, 34710, Note_on_c, 7, 61, 117
9, 34710, Note_on_c, 7, 64, 117
9, 34740, Note_on_c, 7, 64, 0
9, 34740, Note_on_c, 7, 61, 0
9, 34740, Note_on_c, 7, 61, 117
9, 34740, Note_on_c, 7, 64, 117
9, 34770, Note_on_c, 7, 64, 0
9, 34770, Note_on_c, 7, 61, 0
9, 34770, Note_on_c, 7, 61, 117
9, 34770, Note_on_c, 7, 64, 117
9, 34800, Note_on_c, 7, 64, 0
9, 34800, Note_on_c, 7, 61, 0
9, 34800, Note_on_c, 7, 61, 118
9, 34800, Note_on_c, 7, 64, 118
9, 34830, Note_on_c, 7, 64, 0
9, 34830, Note_on_c, 7, 61, 0
9, 34830, Note_on_c, 7, 61, 118
9, 34830, Note_on_c, 7, 64, 118
9, 34860, Note_on_c, 7, 64, 0
9, 34860, Note_on_c, 7, 61, 0
9, 34860, Note_on_c, 7, 61, 118
9, 34860, Note_on_c, 7, 64, 118
9, 34890, Note_on_c, 7, 64, 0
9, 34890, Note_on_c, 7, 61, 0
9, 34890, Note_on_c, 7, 61, 118
9, 34890, Note_on_c, 7, 64, 118
9, 34920, Note_on_c, 7, 64, 0
9, 34920, Note_on_c, 7, 61, 0
9, 34920, Note_on_c, 7, 61, 119
9, 34920, Note_on_c, 7, 64, 119
9, 34950, Note_on_c, 7, 64, 0
9, 34950, Note_on_c, 7, 61, 0
9, 34950, Note_on_c, 7, 61, 119
9, 34950, Note_on_c, 7, 64, 119
9, 34980, Note_on_c, 7, 64, 0
9, 34980, Note_on_c, 7, 61, 0
9, 34980, Note_on_c, 7, 61, 119
9, 34980, Note_on_c, 7, 64, 119
9, 35010, Note_on_c, 7, 64, 0
9, 35010, Note_on_c, 7, 61, 0
9, 35010, Note_on_c, 7, 61, 119
9, 35010, Note_on_c, 7, 64, 119
9, 35040, Note_on_c, 7, 64, 0
9, 35040, Note_on_c, 7, 61, 0
9, 35040, Note_on_c, 7, 61, 120
9, 35040, Note_on_c, 7, 64, 120
9, 35070, Note_on_c, 7, 64, 0
9, 35070, Note_on_c, 7, 61, 0
9, 35070, Note_on_c, 7, 61, 120
9, 35070, Note_on_c, 7, 64, 120
9, 35100, Note_on_c, 7, 64, 0
9, 35100, Note_on_c, 7, 61, 0
9, 35100, Note_on_c, 7, 61, 120
9, 35100, Note_on_c, 7, 64, 120
9, 35130, Note_on_c, 7, 64, 0
9, 35130, Note_on_c, 7, 61, 0
9, 35130, Note_on_c, 7, 61, 121
9, 35130, Note_on_c, 7, 64, 121
9, 35160, Note_on_c, 7, 64, 0
9, 35160, Note_on_c, 7, 61, 0
9, 35160, Note_on_c, 7, 61, 121
9, 35160, Note_on_c, 7, 64, 121
9, 35190, Note_on_c, 7, 64, 0
9, 35190, Note_on_c, 7, 61, 0
9, 35190, Note_on_c, 7, 61, 121
9, 35190, Note_on_c, 7, 64, 121
9, 35220, Note_on_c, 7, 64, 0
9, 35220, Note_on_c, 7, 61, 0
9, 35220, Note_on_c, 7, 61, 121
9, 35220, Note_on_c, 7, 64, 121
9, 35250, Note_on_c, 7, 64, 0
9, 35250, Note_on_c, 7, 61, 0
9, 35250, Note_on_c, 7, 61, 122
9, 35250, Note_on_c, 7, 64, 122
9, 35280, Note_on_c, 7, 64, 0
9, 35280, Note_on_c, 7, 61, 0
9, 35280, Note_on_c, 7, 61, 122
9, 35280, Note_on_c, 7, 64, 122
9, 35310, Note_on_c, 7, 64, 0
9, 35310, Note_on_c, 7, 61, 0
9, 35310, Note_on_c, 7, 61, 122
9, 35310, Note_on_c, 7, 64, 122
9, 35340, Note_on_c, 7, 64, 0
9, 35340, Note_on_c, 7, 61, 0
9, 35340, Note_on_c, 7, 61, 123
9, 35340, Note_on_c, 7, 64, 123
9, 35370, Note_on_c, 7, 64, 0
9, 35370, Note_on_c, 7, 61, 0
9, 35370, Note_on_c, 7, 61, 123
9, 35370, Note_on_c, 7, 64, 123
9, 35400, Note_on_c, 7, 64, 0
9, 35400, Note_on_c, 7, 61, 0
9, 35400, Note_on_c, 7, 61, 123
9, 35400, Note_on_c, 7, 64, 123
9, 35430, Note_on_c, 7, 64, 0
9, 35430, Note_on_c, 7, 61, 0
9, 35430, Note_on_c, 7, 61, 123
9, 35430, Note_on_c, 7, 64, 123
9, 35460, Note_on_c, 7, 64, 0
9, 35460, Note_on_c, 7, 61, 0
9, 35460, Note_on_c, 7, 61, 124
9, 35460, Note_on_c, 7, 64, 124
9, 35490, Note_on_c, 7, 64, 0
9, 35490, Note_on_c, 7, 61, 0
9, 35490, Note_on_c, 7, 61, 124
9, 35490, Note_on_c, 7, 64, 124
9, 35520, Note_on_c, 7, 64, 0
9, 35520, Note_on_c, 7, 61, 0
9, 35520, Note_on_c, 7, 61, 124
9, 35520, Note_on_c, 7, 64, 124
9, 35550, Note_on_c, 7, 64, 0
9, 35550, Note_on_c, 7, 61, 0
9, 35550, Note_on_c, 7, 61, 125
9, 35550, Note_on_c, 7, 64, 125
9, 35580, Note_on_c, 7, 64, 0
9, 35580, Note_on_c, 7, 61, 0
9, 35580, Note_on_c, 7, 61, 125
9, 35580, Note_on_c, 7, 64, 125
9, 35610, Note_on_c, 7, 64, 0
9, 35610, Note_on_c, 7, 61, 0
9, 35610, Note_on_c, 7, 61, 125
9, 35610, Note_on_c, 7, 64, 125
9, 35640, Note_on_c, 7, 64, 0
9, 35640, Note_on_c, 7, 61, 0
9, 35640, Note_on_c, 7, 61, 125
9, 35640, Note_on_c, 7, 64, 125
9, 35670, Note_on_c, 7, 64, 0
9, 35670, Note_on_c, 7, 61, 0
9, 35670, Note_on_c, 7, 61, 126
9, 35670, Note_on_c, 7, 64, 126
9, 35700, Note_on_c, 7, 64, 0
9, 35700, Note_on_c, 7, 61, 0
9, 35700, Note_on_c, 7, 61, 126
9, 35700, Note_on_c, 7, 64, 126
9, 35730, Note_on_c, 7, 64, 0
9, 35730, Note_on_c, 7, 61, 0
9, 35730, Note_on_c, 7, 61, 126
9, 35730, Note_on_c, 7, 64, 126
9, 35760, Note_on_c, 7, 64, 0
9, 35760, Note_on_c, 7, 61, 0
9, 35760, Note_on_c, 7, 61, 127
9, 35760, Note_on_c, 7, 64, 127
9, 35850, Note_on_c, 7, 64, 0
9, 35850, Note_on_c, 7, 61, 0
9, 35880, Note_on_c, 7, 73, 127
9, 35880, Note_on_c, 7, 64, 127
9, 35880, Note_on_c, 7, 57, 127
9, 35970, Note_on_c, 7, 57, 0
9, 35970, Note_on_c, 7, 64, 0
9, 35970, Note_on_c, 7, 73, 0
9, 36000, Note_on_c, 7, 57, 127
9, 36000, Note_on_c, 7, 64, 127
9, 36000, Note_on_c, 7, 73, 127
9, 36090, Note_on_c, 7, 73, 0
9, 36090, Note_on_c, 7, 64, 0
9, 36090, Note_on_c, 7, 57, 0
9, 36240, Note_on_c, 7, 69, 127
9, 36240, Note_on_c, 7, 76, 127
9, 36270, Note_on_c, 7, 76, 0
9, 36270, Note_on_c, 7, 69, 0
9, 36270, Note_on_c, 7, 69, 127
9, 36270, Note_on_c, 7, 76, 127
9, 36300, Note_on_c, 7, 76, 0
9, 36300, Note_on_c, 7, 69, 0
9, 36300, Note_on_c, 7, 69, 127
9, 36300, Note_on_c, 7, 76, 127
9, 36330, Note_on_c, 7, 76, 0
9, 36330, Note_on_c, 7, 69, 0
9, 36330, Note_on_c, 7, 69, 127
9, 36330, Note_on_c, 7, 76, 127
9, 36360, Note_on_c, 7, 76, 0
9, 36360, Note_on_c, 7, 69, 0
9, 36360, Note_on_c, 7, 69, 127
9, 36360, Note_on_c, 7, 76, 127
9, 36390, Note_on_c, 7, 76, 0
9, 36390, Note_on_c, 7, 69, 0
9, 36390, Note_on_c, 7, 69, 127
9, 36390, Note_on_c, 7, 76, 127
9, 36420, Note_on_c, 7, 76, 0
9, 36420, Note_on_c, 7, 69, 0
9, 36420, Note_on_c, 7, 69, 127
9, 36420, Note_on_c, 7, 76, 127
9, 36450, Note_on_c, 7, 76, 0
9, 36450, Note_on_c, 7, 69, 0
9, 36450, Note_on_c, 7, 69, 127
9, 36450, Note_on_c, 7, 76, 127
9, 36480, Note_on_c, 7, 76, 0
9, 36480, Note_on_c, 7, 69, 0
9, 36480, Note_on_c, 7, 69, 127
9, 36480, Note_on_c, 7, 76, 127
9, 36510, Note_on_c, 7, 76, 0
9, 36510, Note_on_c, 7, 69, 0
9, 36510, Note_on_c, 7, 69, 127
9, 36510, Note_on_c, 7, 76, 127
9, 36540, Note_on_c, 7, 76, 0
9, 36540, Note_on_c, 7, 69, 0
9, 36540, Note_on_c, 7, 69, 127
9, 36540, Note_on_c, 7, 76, 127
9, 36570, Note_on_c, 7, 76, 0
9, 36570, Note_on_c, 7, 69, 0
9, 36570, Note_on_c, 7, 69, 127
9, 36570, Note_on_c, 7, 76, 127
9, 36600, Note_on_c, 7, 76, 0
9, 36600, Note_on_c, 7, 69, 0
9, 36600, Note_on_c, 7, 69, 127
9, 36600, Note_on_c, 7, 76, 127
9, 36630, Note_on_c, 7, 76, 0
9, 36630, Note_on_c, 7, 69, 0
9, 36630, Note_on_c, 7, 69, 127
9, 36630, Note_on_c, 7, 76, 127
9, 36660, Note_on_c, 7, 76, 0
9, 36660, Note_on_c, 7, 69, 0
9, 36660, Note_on_c, 7, 69, 127
9, 36660, Note_on_c, 7, 76, 127
9, 36690, Note_on_c, 7, 76, 0
9, 36690, Note_on_c, 7, 69, 0
9, 36690, Note_on_c, 7, 69, 127
9, 36690, Note_on_c, 7, 76, 127
9, 36720, Note_on_c, 7, 76, 0
9, 36720, Note_on_c, 7, 69, 0
9, 36720, Note_on_c, 7, 69, 127
9, 36720, Note_on_c, 7, 76, 127
9, 36750, Note_on_c, 7, 76, 0
9, 36750, Note_on_c, 7, 69, 0
9, 36750, Note_on_c, 7, 69, 127
9, 36750, Note_on_c, 7, 76, 127
9, 36780, Note_on_c, 7, 76, 0
9, 36780, Note_on_c, 7, 69, 0
9, 36780, Note_on_c, 7, 69, 127
9, 36780, Note_on_c, 7, 76, 127
9, 36810, Note_on_c, 7, 76, 0
9, 36810, Note_on_c, 7, 69, 0
9, 36810, Note_on_c, 7, 69, 127
9, 36810, Note_on_c, 7, 76, 127
9, 36840, Note_on_c, 7, 76, 0
9, 36840, Note_on_c, 7, 69, 0
9, 36840, Note_on_c, 7, 69, 127
9, 36840, Note_on_c, 7, 76, 127
9, 36870, Note_on_c, 7, 76, 0
9, 36870, Note_on_c, 7, 69, 0
9, 36870, Note_on_c, 7, 69, 127
9, 36870, Note_on_c, 7, 76, 127
9, 36900, Note_on_c, 7, 76, 0
9, 36900, Note_on_c, 7, 69, 0
9, 36900, Note_on_c, 7, 69, 127
9, 36900, Note_on_c, 7, 76, 127
9, 36930, Note_on_c, 7, 76, 0
9, 36930, Note_on_c, 7, 69, 0
9, 36930, Note_on_c, 7, 69, 127
9, 36930, Note_on_c, 7, 76, 127
9, 36960, Note_on_c, 7, 76, 0
9, 36960, Note_on_c, 7, 69, 0
9, 36960, Note_on_c, 7, 69, 127
9, 36960, Note_on_c, 7, 76, 127
9, 36990, Note_on_c, 7, 76, 0
9, 36990, Note_on_c, 7, 69, 0
9, 36990, Note_on_c, 7, 69, 127
9, 36990, Note_on_c, 7, 76, 127
9, 37020, Note_on_c, 7, 76, 0
9, 37020, Note_on_c, 7, 69, 0
9, 37020, Note_on_c, 7, 69, 127
9, 37020, Note_on_c, 7, 76, 127
9, 37050, Note_on_c, 7, 76, 0
9, 37050, Note_on_c, 7, 69, 0
9, 37050, Note_on_c, 7, 69, 127
9, 37050, Note_on_c, 7, 76, 127
9, 37080, Note_on_c, 7, 76, 0
9, 37080, Note_on_c, 7, 69, 0
9, 37080, Note_on_c, 7, 69, 127
9, 37080, Note_on_c, 7, 76, 127
9, 37110, Note_on_c, 7, 76, 0
9, 37110, Note_on_c, 7, 69, 0
9, 37110, Note_on_c, 7, 69, 127
9, 37110, Note_on_c, 7, 76, 127
9, 37140, Note_on_c, 7, 76, 0
9, 37140, Note_on_c, 7, 69, 0
9, 37140, Note_on_c, 7, 69, 127
9, 37140, Note_on_c, 7, 76, 127
9, 37170, Note_on_c, 7, 76, 0
9, 37170, Note_on_c, 7, 69, 0
9, 37170, Note_on_c, 7, 69, 127
9, 37170, Note_on_c, 7, 76, 127
9, 37200, Note_on_c, 7, 76, 0
9, 37200, Note_on_c, 7, 69, 0
9, 37200, Note_on_c, 7, 69, 127
9, 37200, Note_on_c, 7, 76, 127
9, 37260, Note_on_c, 7, 76, 0
9, 37260, Note_on_c, 7, 69, 0
9, 38160, Note_on_c, 7, 64, 100
9, 38160, Note_on_c, 7, 74, 100
9, 38190, Note_on_c, 7, 74, 0
9, 38190, Note_on_c, 7, 64, 0
9, 38190, Note_on_c, 7, 64, 100
9, 38190, Note_on_c, 7, 74, 100
9, 38220, Note_on_c, 7, 74, 0
9, 38220, Note_on_c, 7, 64, 0
9, 38220, Note_on_c, 7, 64, 100
9, 38220, Note_on_c, 7, 74, 100
9, 38250, Note_on_c, 7, 74, 0
9, 38250, Note_on_c, 7, 64, 0
9, 38250, Note_on_c, 7, 64, 100
9, 38250, Note_on_c, 7, 74, 100
9, 38280, Note_on_c, 7, 74, 0
9, 38280, Note_on_c, 7, 64, 0
9, 38280, Note_on_c, 7, 64, 100
9, 38280, Note_on_c, 7, 74, 100
9, 38310, Note_on_c, 7, 74, 0
9, 38310, Note_on_c, 7, 64, 0
9, 38310, Note_on_c, 7, 64, 100
9, 38310, Note_on_c, 7, 74, 100
9, 38340, Note_on_c, 7, 74, 0
9, 38340, Note_on_c, 7, 64, 0
9, 38340, Note_on_c, 7, 64, 100
9, 38340, Note_on_c, 7, 74, 100
9, 38370, Note_on_c, 7, 74, 0
9, 38370, Note_on_c, 7, 64, 0
9, 38370, Note_on_c, 7, 64, 100
9, 38370, Note_on_c, 7, 74, 100
9, 38400, Note_on_c, 7, 74, 0
9, 38400, Note_on_c, 7, 64, 0
9, 38400, Note_on_c, 7, 64, 100
9, 38400, Note_on_c, 7, 74, 100
9, 38430, Note_on_c, 7, 74, 0
9, 38430, Note_on_c, 7, 64, 0
9, 38430, Note_on_c, 7, 64, 100
9, 38430, Note_on_c, 7, 74, 100
9, 38460, Note_on_c, 7, 74, 0
9, 38460, Note_on_c, 7, 64, 0
9, 38460, Note_on_c, 7, 64, 100
9, 38460, Note_on_c, 7, 74, 100
9, 38490, Note_on_c, 7, 74, 0
9, 38490, Note_on_c, 7, 64, 0
9, 38490, Note_on_c, 7, 64, 100
9, 38490, Note_on_c, 7, 74, 100
9, 38520, Note_on_c, 7, 74, 0
9, 38520, Note_on_c, 7, 64, 0
9, 38520, Note_on_c, 7, 64, 100
9, 38520, Note_on_c, 7, 74, 100
9, 38550, Note_on_c, 7, 74, 0
9, 38550, Note_on_c, 7, 64, 0
9, 38550, Note_on_c, 7, 64, 100
9, 38550, Note_on_c, 7, 74, 100
9, 38580, Note_on_c, 7, 74, 0
9, 38580, Note_on_c, 7, 64, 0
9, 38580, Note_on_c, 7, 64, 100
9, 38580, Note_on_c, 7, 74, 100
9, 38610, Note_on_c, 7, 74, 0
9, 38610, Note_on_c, 7, 64, 0
9, 38610, Note_on_c, 7, 64, 100
9, 38610, Note_on_c, 7, 74, 100
9, 38640, Note_on_c, 7, 74, 0
9, 38640, Note_on_c, 7, 64, 0
9, 38640, Note_on_c, 7, 64, 100
9, 38640, Note_on_c, 7, 74, 100
9, 38670, Note_on_c, 7, 74, 0
9, 38670, Note_on_c, 7, 64, 0
9, 38670, Note_on_c, 7, 64, 100
9, 38670, Note_on_c, 7, 74, 100
9, 38700, Note_on_c, 7, 74, 0
9, 38700, Note_on_c, 7, 64, 0
9, 38700, Note_on_c, 7, 64, 100
9, 38700, Note_on_c, 7, 74, 100
9, 38730, Note_on_c, 7, 74, 0
9, 38730, Note_on_c, 7, 64, 0
9, 38730, Note_on_c, 7, 64, 100
9, 38730, Note_on_c, 7, 74, 100
9, 38760, Note_on_c, 7, 74, 0
9, 38760, Note_on_c, 7, 64, 0
9, 38760, Note_on_c, 7, 64, 100
9, 38760, Note_on_c, 7, 74, 100
9, 38790, Note_on_c, 7, 74, 0
9, 38790, Note_on_c, 7, 64, 0
9, 38790, Note_on_c, 7, 64, 100
9, 38790, Note_on_c, 7, 74, 100
9, 38820, Note_on_c, 7, 74, 0
9, 38820, Note_on_c, 7, 64, 0
9, 38820, Note_on_c, 7, 64, 100
9, 38820, Note_on_c, 7, 74, 100
9, 38850, Note_on_c, 7, 74, 0
9, 38850, Note_on_c, 7, 64, 0
9, 38850, Note_on_c, 7, 64, 100
9, 38850, Note_on_c, 7, 74, 100
9, 38880, Note_on_c, 7, 74, 0
9, 38880, Note_on_c, 7, 64, 0
9, 38880, Note_on_c, 7, 64, 100
9, 38880, Note_on_c, 7, 74, 100
9, 38910, Note_on_c, 7, 74, 0
9, 38910, Note_on_c, 7, 64, 0
9, 38910, Note_on_c, 7, 64, 100
9, 38910, Note_on_c, 7, 74, 100
9, 38940, Note_on_c, 7, 74, 0
9, 38940, Note_on_c, 7, 64, 0
9, 38940, Note_on_c, 7, 64, 100
9, 38940, Note_on_c, 7, 74, 100
9, 38970, Note_on_c, 7, 74, 0
9, 38970, Note_on_c, 7, 64, 0
9, 38970, Note_on_c, 7, 64, 100
9, 38970, Note_on_c, 7, 74, 100
9, 39000, Note_on_c, 7, 74, 0
9, 39000, Note_on_c, 7, 64, 0
9, 39000, Note_on_c, 7, 64, 100
9, 39000, Note_on_c, 7, 74, 100
9, 39030, Note_on_c, 7, 74, 0
9, 39030, Note_on_c, 7, 64, 0
9, 39030, Note_on_c, 7, 64, 100
9, 39030, Note_on_c, 7, 74, 100
9, 39060, Note_on_c, 7, 74, 0
9, 39060, Note_on_c, 7, 64, 0
9, 39060, Note_on_c, 7, 64, 100
9, 39060, Note_on_c, 7, 74, 100
9, 39090, Note_on_c, 7, 74, 0
9, 39090, Note_on_c, 7, 64, 0
9, 39090, Note_on_c, 7, 64, 100
9, 39090, Note_on_c, 7, 74, 100
9, 39120, Note_on_c, 7, 74, 0
9, 39120, Note_on_c, 7, 64, 0
9, 39120, Note_on_c, 7, 64, 100
9, 39120, Note_on_c, 7, 74, 100
9, 39180, Note_on_c, 7, 74, 0
9, 39180, Note_on_c, 7, 64, 0
9, 40080, Note_on_c, 7, 66, 100
9, 40080, Note_on_c, 7, 76, 100
9, 40110, Note_on_c, 7, 76, 0
9, 40110, Note_on_c, 7, 66, 0
9, 40110, Note_on_c, 7, 66, 100
9, 40110, Note_on_c, 7, 76, 100
9, 40140, Note_on_c, 7, 76, 0
9, 40140, Note_on_c, 7, 66, 0
9, 40140, Note_on_c, 7, 66, 100
9, 40140, Note_on_c, 7, 76, 100
9, 40170, Note_on_c, 7, 76, 0
9, 40170, Note_on_c, 7, 66, 0
9, 40170, Note_on_c, 7, 66, 100
9, 40170, Note_on_c, 7, 76, 100
9, 40200, Note_on_c, 7, 76, 0
9, 40200, Note_on_c, 7, 66, 0
9, 40200, Note_on_c, 7, 66, 100
9, 40200, Note_on_c, 7, 76, 100
9, 40230, Note_on_c, 7, 76, 0
9, 40230, Note_on_c, 7, 66, 0
9, 40230, Note_on_c, 7, 66, 100
9, 40230, Note_on_c, 7, 76, 100
9, 40260, Note_on_c, 7, 76, 0
9, 40260, Note_on_c, 7, 66, 0
9, 40260, Note_on_c, 7, 66, 100
9, 40260, Note_on_c, 7, 76, 100
9, 40290, Note_on_c, 7, 76, 0
9, 40290, Note_on_c, 7, 66, 0
9, 40290, Note_on_c, 7, 66, 100
9, 40290, Note_on_c, 7, 76, 100
9, 40320, Note_on_c, 7, 76, 0
9, 40320, Note_on_c, 7, 66, 0
9, 40320, Note_on_c, 7, 66, 100
9, 40320, Note_on_c, 7, 76, 100
9, 40350, Note_on_c, 7, 76, 0
9, 40350, Note_on_c, 7, 66, 0
9, 40350, Note_on_c, 7, 66, 100
9, 40350, Note_on_c, 7, 76, 100
9, 40380, Note_on_c, 7, 76, 0
9, 40380, Note_on_c, 7, 66, 0
9, 40380, Note_on_c, 7, 66, 100
9, 40380, Note_on_c, 7, 76, 100
9, 40410, Note_on_c, 7, 76, 0
9, 40410, Note_on_c, 7, 66, 0
9, 40410, Note_on_c, 7, 66, 100
9, 40410, Note_on_c, 7, 76, 100
9, 40440, Note_on_c, 7, 76, 0
9, 40440, Note_on_c, 7, 66, 0
9, 40440, Note_on_c, 7, 66, 100
9, 40440, Note_on_c, 7, 76, 100
9, 40470, Note_on_c, 7, 76, 0
9, 40470, Note_on_c, 7, 66, 0
9, 40470, Note_on_c, 7, 66, 100
9, 40470, Note_on_c, 7, 76, 100
9, 40500, Note_on_c, 7, 76, 0
9, 40500, Note_on_c, 7, 66, 0
9, 40500, Note_on_c, 7, 66, 100
9, 40500, Note_on_c, 7, 76, 100
9, 40530, Note_on_c, 7, 76, 0
9, 40530, Note_on_c, 7, 66, 0
9, 40530, Note_on_c, 7, 66, 100
9, 40530, Note_on_c, 7, 76, 100
9, 40560, Note_on_c, 7, 76, 0
9, 40560, Note_on_c, 7, 66, 0
9, 40560, Note_on_c, 7, 66, 100
9, 40560, Note_on_c, 7, 76, 100
9, 40590, Note_on_c, 7, 76, 0
9, 40590, Note_on_c, 7, 66, 0
9, 40590, Note_on_c, 7, 66, 100
9, 40590, Note_on_c, 7, 76, 100
9, 40620, Note_on_c, 7, 76, 0
9, 40620, Note_on_c, 7, 66, 0
9, 40620, Note_on_c, 7, 66, 100
9, 40620, Note_on_c, 7, 76, 100
9, 40650, Note_on_c, 7, 76, 0
9, 40650, Note_on_c, 7, 66, 0
9, 40650, Note_on_c, 7, 66, 100
9, 40650, Note_on_c, 7, 76, 100
9, 40680, Note_on_c, 7, 76, 0
9, 40680, Note_on_c, 7, 66, 0
9, 40680, Note_on_c, 7, 66, 100
9, 40680, Note_on_c, 7, 76, 100
9, 40710, Note_on_c, 7, 76, 0
9, 40710, Note_on_c, 7, 66, 0
9, 40710, Note_on_c, 7, 66, 100
9, 40710, Note_on_c, 7, 76, 100
9, 40740, Note_on_c, 7, 76, 0
9, 40740, Note_on_c, 7, 66, 0
9, 40740, Note_on_c, 7, 66, 100
9, 40740, Note_on_c, 7, 76, 100
9, 40770, Note_on_c, 7, 76, 0
9, 40770, Note_on_c, 7, 66, 0
9, 40770, Note_on_c, 7, 66, 100
9, 40770, Note_on_c, 7, 76, 100
9, 40800, Note_on_c, 7, 76, 0
9, 40800, Note_on_c, 7, 66, 0
9, 40800, Note_on_c, 7, 66, 100
9, 40800, Note_on_c, 7, 76, 100
9, 40830, Note_on_c, 7, 76, 0
9, 40830, Note_on_c, 7, 66, 0
9, 40830, Note_on_c, 7, 66, 100
9, 40830, Note_on_c, 7, 76, 100
9, 40860, Note_on_c, 7, 76, 0
9, 40860, Note_on_c, 7, 66, 0
9, 40860, Note_on_c, 7, 66, 100
9, 40860, Note_on_c, 7, 76, 100
9, 40890, Note_on_c, 7, 76, 0
9, 40890, Note_on_c, 7, 66, 0
9, 40890, Note_on_c, 7, 66, 100
9, 40890, Note_on_c, 7, 76, 100
9, 40920, Note_on_c, 7, 76, 0
9, 40920, Note_on_c, 7, 66, 0
9, 40920, Note_on_c, 7, 66, 100
9, 40920, Note_on_c, 7, 76, 100
9, 40950, Note_on_c, 7, 76, 0
9, 40950, Note_on_c, 7, 66, 0
9, 40950, Note_on_c, 7, 66, 100
9, 40950, Note_on_c, 7, 76, 100
9, 40980, Note_on_c, 7, 76, 0
9, 40980, Note_on_c, 7, 66, 0
9, 40980, Note_on_c, 7, 66, 100
9, 40980, Note_on_c, 7, 76, 100
9, 41010, Note_on_c, 7, 76, 0
9, 41010, Note_on_c, 7, 66, 0
9, 41010, Note_on_c, 7, 66, 100
9, 41010, Note_on_c, 7, 76, 100
9, 41040, Note_on_c, 7, 76, 0
9, 41040, Note_on_c, 7, 66, 0
9, 41040, Note_on_c, 7, 66, 100
9, 41040, Note_on_c, 7, 76, 100
9, 41100, Note_on_c, 7, 76, 0
9, 41100, Note_on_c, 7, 66, 0
9, 42060, Note_on_c, 7, 71, 50
9, 42090, Note_on_c, 7, 71, 0
9, 42120, Note_on_c, 7, 74, 50
9, 42150, Note_on_c, 7, 74, 0
9, 42180, Note_on_c, 7, 71, 50
9, 42210, Note_on_c, 7, 71, 0
9, 42240, Note_on_c, 7, 74, 50
9, 42540, Note_on_c, 7, 74, 0
9, 42540, Note_on_c, 7, 71, 50
9, 42570, Note_on_c, 7, 71, 0
9, 42600, Note_on_c, 7, 74, 50
9, 42630, Note_on_c, 7, 74, 0
9, 42660, Note_on_c, 7, 71, 50
9, 42690, Note_on_c, 7, 71, 0
9, 42720, Note_on_c, 7, 74, 50
9, 42960, Note_on_c, 7, 74, 0
9, 43020, Note_on_c, 7, 69, 50
9, 43050, Note_on_c, 7, 69, 0
9, 43080, Note_on_c, 7, 72, 50
9, 43110, Note_on_c, 7, 72, 0
9, 43140, Note_on_c, 7, 69, 50
9, 43170, Note_on_c, 7, 69, 0
9, 43200, Note_on_c, 7, 72, 50
9, 43500, Note_on_c, 7, 72, 0
9, 43500, Note_on_c, 7, 69, 50
9, 43530, Note_on_c, 7, 69, 0
9, 43560, Note_on_c, 7, 72, 50
9, 43590, Note_on_c, 7, 72, 0
9, 43620, Note_on_c, 7, 69, 50
9, 43650, Note_on_c, 7, 69, 0
9, 43680, Note_on_c, 7, 72, 50
9, 43920, Note_on_c, 7, 72, 0
9, 43980, Note_on_c, 7, 67, 100
9, 44010, Note_on_c, 7, 67, 0
9, 44040, Note_on_c, 7, 71, 100
9, 44070, Note_on_c, 7, 71, 0
9, 44100, Note_on_c, 7, 67, 100
9, 44130, Note_on_c, 7, 67, 0
9, 44160, Note_on_c, 7, 74, 100
9, 44460, Note_on_c, 7, 74, 0
9, 44460, Note_on_c, 7, 72, 100
9, 44580, Note_on_c, 7, 72, 0
9, 44580, Note_on_c, 7, 71, 100
9, 44700, Note_on_c, 7, 71, 0
9, 44700, Note_on_c, 7, 69, 100
9, 44820, Note_on_c, 7, 69, 0
9, 44820, Note_on_c, 7, 67, 100
9, 44880, Note_on_c, 7, 67, 0
9, 44880, Note_on_c, 7, 66, 100
9, 45000, Note_on_c, 7, 66, 0
9, 45180, Note_on_c, 7, 62, 100
9, 45210, Note_on_c, 7, 62, 0
9, 45240, Note_on_c, 7, 66, 100
9, 45270, Note_on_c, 7, 66, 0
9, 45300, Note_on_c, 7, 62, 100
9, 45330, Note_on_c, 7, 62, 0
9, 45360, Note_on_c, 7, 74, 100
9, 45420, Note_on_c, 7, 74, 0
9, 45480, Note_on_c, 7, 72, 100
9, 45540, Note_on_c, 7, 72, 0
9, 45600, Note_on_c, 7, 71, 100
9, 45660, Note_on_c, 7, 71, 0
9, 45720, Note_on_c, 7, 69, 100
9, 45780, Note_on_c, 7, 69, 0
9, 45840, Note_on_c, 7, 68, 100
9, 45900, Note_on_c, 7, 68, 0
9, 45900, Note_on_c, 7, 64, 100
9, 45930, Note_on_c, 7, 64, 0
9, 45960, Note_on_c, 7, 68, 100
9, 45990, Note_on_c, 7, 68, 0
9, 46020, Note_on_c, 7, 64, 100
9, 46050, Note_on_c, 7, 64, 0
9, 46080, Note_on_c, 7, 76, 100
9, 46380, Note_on_c, 7, 76, 0
9, 46380, Note_on_c, 7, 74, 100
9, 46500, Note_on_c, 7, 74, 0
9, 46500, Note_on_c, 7, 72, 100
9, 46620, Note_on_c, 7, 72, 0
9, 46620, Note_on_c, 7, 71, 100
9, 46740, Note_on_c, 7, 71, 0
9, 46740, Note_on_c, 7, 69, 100
9, 46800, Note_on_c, 7, 69, 0
9, 46800, Note_on_c, 7, 68, 100
9, 46920, Note_on_c, 7, 68, 0
9, 47100, Note_on_c, 7, 64, 100
9, 47130, Note_on_c, 7, 64, 0
9, 47160, Note_on_c, 7, 68, 100
9, 47190, Note_on_c, 7, 68, 0
9, 47220, Note_on_c, 7, 64, 100
9, 47250, Note_on_c, 7, 64, 0
9, 47280, Note_on_c, 7, 76, 100
9, 47340, Note_on_c, 7, 76, 0
9, 47400, Note_on_c, 7, 74, 100
9, 47460, Note_on_c, 7, 74, 0
9, 47520, Note_on_c, 7, 72, 100
9, 47580, Note_on_c, 7, 72, 0
9, 47640, Note_on_c, 7, 71, 100
9, 47700, Note_on_c, 7, 71, 0
9, 47760, Note_on_c, 7, 70, 100
9, 47820, Note_on_c, 7, 70, 0
9, 47820, Note_on_c, 7, 66, 100
9, 47850, Note_on_c, 7, 66, 0
9, 47880, Note_on_c, 7, 70, 100
9, 47910, Note_on_c, 7, 70, 0
9, 47940, Note_on_c, 7, 66, 100
9, 47970, Note_on_c, 7, 66, 0
9, 48000, Note_on_c, 7, 78, 100
9, 48300, Note_on_c, 7, 78, 0
9, 48300, Note_on_c, 7, 76, 100
9, 48420, Note_on_c, 7, 76, 0
9, 48420, Note_on_c, 7, 74, 100
9, 48540, Note_on_c, 7, 74, 0
9, 48540, Note_on_c, 7, 73, 100
9, 48660, Note_on_c, 7, 73, 0
9, 48660, Note_on_c, 7, 71, 100
9, 48720, Note_on_c, 7, 71, 0
9, 48720, Note_on_c, 7, 72, 100
9, 48960, Note_on_c, 7, 72, 0
9, 48960, Note_on_c, 7, 70, 100
9, 49200, Note_on_c, 7, 70, 0
9, 49200, Note_on_c, 7, 71, 100
9, 49320, Note_on_c, 7, 71, 0
9, 49440, Note_on_c, 7, 59, 50
9, 49560, Note_on_c, 7, 59, 0
9, 49680, Note_on_c, 7, 59, 50
9, 49800, Note_on_c, 7, 59, 0
9, 49920, Note_on_c, 7, 58, 50
9, 50040, Note_on_c, 7, 58, 0
9, 50160, Note_on_c, 7, 62, 50
9, 50400, Note_on_c, 7, 62, 0
9, 50400, Note_on_c, 7, 60, 50
9, 50880, Note_on_c, 7, 60, 0
9, 50880, Note_on_c, 7, 59, 50
9, 51360, Note_on_c, 7, 59, 0
9, 51360, Note_on_c, 7, 57, 50
9, 51720, Note_on_c, 7, 57, 0
9, 51900, Note_on_c, 7, 66, 50
9, 51930, Note_on_c, 7, 66, 0
9, 51960, Note_on_c, 7, 69, 50
9, 51990, Note_on_c, 7, 69, 0
9, 52020, Note_on_c, 7, 66, 50
9, 52050, Note_on_c, 7, 66, 0
9, 52080, Note_on_c, 7, 74, 50
9, 52200, Note_on_c, 7, 74, 0
9, 52200, Note_on_c, 7, 72, 50
9, 52320, Note_on_c, 7, 72, 0
9, 52320, Note_on_c, 7, 71, 50
9, 52440, Note_on_c, 7, 71, 0
9, 52440, Note_on_c, 7, 69, 50
9, 52560, Note_on_c, 7, 69, 0
9, 52560, Note_on_c, 7, 67, 50
9, 52620, Note_on_c, 7, 67, 0
9, 52680, Note_on_c, 7, 69, 50
9, 52740, Note_on_c, 7, 69, 0
9, 52800, Note_on_c, 7, 67, 50
9, 52860, Note_on_c, 7, 67, 0
9, 52920, Note_on_c, 7, 69, 50
9, 52980, Note_on_c, 7, 69, 0
9, 53040, Note_on_c, 7, 67, 50
9, 53100, Note_on_c, 7, 67, 0
9, 53160, Note_on_c, 7, 69, 50
9, 53220, Note_on_c, 7, 69, 0
9, 53280, Note_on_c, 7, 67, 50
9, 53400, Note_on_c, 7, 67, 0
9, 54480, Note_on_c, 7, 70, 100
9, 54480, Note_on_c, 7, 79, 100
9, 54510, Note_on_c, 7, 79, 0
9, 54510, Note_on_c, 7, 70, 0
9, 54510, Note_on_c, 7, 70, 100
9, 54510, Note_on_c, 7, 79, 100
9, 54540, Note_on_c, 7, 79, 0
9, 54540, Note_on_c, 7, 70, 0
9, 54540, Note_on_c, 7, 70, 100
9, 54540, Note_on_c, 7, 79, 100
9, 54570, Note_on_c, 7, 79, 0
9, 54570, Note_on_c, 7, 70, 0
9, 54570, Note_on_c, 7, 70, 100
9, 54570, Note_on_c, 7, 79, 100
9, 54600, Note_on_c, 7, 79, 0
9, 54600, Note_on_c, 7, 70, 0
9, 54600, Note_on_c, 7, 70, 100
9, 54600, Note_on_c, 7, 79, 100
9, 54630, Note_on_c, 7, 79, 0
9, 54630, Note_on_c, 7, 70, 0
9, 54630, Note_on_c, 7, 70, 100
9, 54630, Note_on_c, 7, 79, 100
9, 54660, Note_on_c, 7, 79, 0
9, 54660, Note_on_c, 7, 70, 0
9, 54660, Note_on_c, 7, 70, 100
9, 54660, Note_on_c, 7, 79, 100
9, 54690, Note_on_c, 7, 79, 0
9, 54690, Note_on_c, 7, 70, 0
9, 54690, Note_on_c, 7, 70, 100
9, 54690, Note_on_c, 7, 79, 100
9, 54720, Note_on_c, 7, 79, 0
9, 54720, Note_on_c, 7, 70, 0
9, 54720, Note_on_c, 7, 70, 100
9, 54720, Note_on_c, 7, 79, 100
9, 54750, Note_on_c, 7, 79, 0
9, 54750, Note_on_c, 7, 70, 0
9, 54750, Note_on_c, 7, 70, 100
9, 54750, Note_on_c, 7, 79, 100
9, 54780, Note_on_c, 7, 79, 0
9, 54780, Note_on_c, 7, 70, 0
9, 54780, Note_on_c, 7, 70, 100
9, 54780, Note_on_c, 7, 79, 100
9, 54810, Note_on_c, 7, 79, 0
9, 54810, Note_on_c, 7, 70, 0
9, 54810, Note_on_c, 7, 70, 100
9, 54810, Note_on_c, 7, 79, 100
9, 54840, Note_on_c, 7, 79, 0
9, 54840, Note_on_c, 7, 70, 0
9, 54840, Note_on_c, 7, 70, 100
9, 54840, Note_on_c, 7, 79, 100
9, 54870, Note_on_c, 7, 79, 0
9, 54870, Note_on_c, 7, 70, 0
9, 54870, Note_on_c, 7, 70, 100
9, 54870, Note_on_c, 7, 79, 100
9, 54900, Note_on_c, 7, 79, 0
9, 54900, Note_on_c, 7, 70, 0
9, 54900, Note_on_c, 7, 70, 100
9, 54900, Note_on_c, 7, 79, 100
9, 54930, Note_on_c, 7, 79, 0
9, 54930, Note_on_c, 7, 70, 0
9, 54930, Note_on_c, 7, 70, 100
9, 54930, Note_on_c, 7, 79, 100
9, 54960, Note_on_c, 7, 79, 0
9, 54960, Note_on_c, 7, 70, 0
9, 54960, Note_on_c, 7, 70, 100
9, 54960, Note_on_c, 7, 79, 100
9, 54990, Note_on_c, 7, 79, 0
9, 54990, Note_on_c, 7, 70, 0
9, 54990, Note_on_c, 7, 70, 100
9, 54990, Note_on_c, 7, 79, 100
9, 55020, Note_on_c, 7, 79, 0
9, 55020, Note_on_c, 7, 70, 0
9, 55020, Note_on_c, 7, 70, 100
9, 55020, Note_on_c, 7, 79, 100
9, 55050, Note_on_c, 7, 79, 0
9, 55050, Note_on_c, 7, 70, 0
9, 55050, Note_on_c, 7, 70, 100
9, 55050, Note_on_c, 7, 79, 100
9, 55080, Note_on_c, 7, 79, 0
9, 55080, Note_on_c, 7, 70, 0
9, 55080, Note_on_c, 7, 70, 100
9, 55080, Note_on_c, 7, 79, 100
9, 55110, Note_on_c, 7, 79, 0
9, 55110, Note_on_c, 7, 70, 0
9, 55110, Note_on_c, 7, 70, 100
9, 55110, Note_on_c, 7, 79, 100
9, 55140, Note_on_c, 7, 79, 0
9, 55140, Note_on_c, 7, 70, 0
9, 55140, Note_on_c, 7, 70, 100
9, 55140, Note_on_c, 7, 79, 100
9, 55170, Note_on_c, 7, 79, 0
9, 55170, Note_on_c, 7, 70, 0
9, 55170, Note_on_c, 7, 70, 100
9, 55170, Note_on_c, 7, 79, 100
9, 55200, Note_on_c, 7, 79, 0
9, 55200, Note_on_c, 7, 70, 0
9, 55200, Note_on_c, 7, 70, 100
9, 55200, Note_on_c, 7, 79, 100
9, 55230, Note_on_c, 7, 79, 0
9, 55230, Note_on_c, 7, 70, 0
9, 55230, Note_on_c, 7, 70, 100
9, 55230, Note_on_c, 7, 79, 100
9, 55260, Note_on_c, 7, 79, 0
9, 55260, Note_on_c, 7, 70, 0
9, 55260, Note_on_c, 7, 70, 100
9, 55260, Note_on_c, 7, 79, 100
9, 55290, Note_on_c, 7, 79, 0
9, 55290, Note_on_c, 7, 70, 0
9, 55290, Note_on_c, 7, 70, 100
9, 55290, Note_on_c, 7, 79, 100
9, 55320, Note_on_c, 7, 79, 0
9, 55320, Note_on_c, 7, 70, 0
9, 55320, Note_on_c, 7, 70, 100
9, 55320, Note_on_c, 7, 79, 100
9, 55350, Note_on_c, 7, 79, 0
9, 55350, Note_on_c, 7, 70, 0
9, 55350, Note_on_c, 7, 70, 100
9, 55350, Note_on_c, 7, 79, 100
9, 55380, Note_on_c, 7, 79, 0
9, 55380, Note_on_c, 7, 70, 0
9, 55380, Note_on_c, 7, 70, 100
9, 55380, Note_on_c, 7, 79, 100
9, 55410, Note_on_c, 7, 79, 0
9, 55410, Note_on_c, 7, 70, 0
9, 55410, Note_on_c, 7, 70, 100
9, 55410, Note_on_c, 7, 79, 100
9, 55440, Note_on_c, 7, 79, 0
9, 55440, Note_on_c, 7, 70, 0
9, 55440, Note_on_c, 7, 70, 100
9, 55440, Note_on_c, 7, 79, 100
9, 55500, Note_on_c, 7, 79, 0
9, 55500, Note_on_c, 7, 70, 0
9, 56400, Note_on_c, 7, 69, 100
9, 56400, Note_on_c, 7, 77, 100
9, 56430, Note_on_c, 7, 77, 0
9, 56430, Note_on_c, 7, 69, 0
9, 56430, Note_on_c, 7, 69, 100
9, 56430, Note_on_c, 7, 77, 100
9, 56460, Note_on_c, 7, 77, 0
9, 56460, Note_on_c, 7, 69, 0
9, 56460, Note_on_c, 7, 69, 100
9, 56460, Note_on_c, 7, 77, 100
9, 56490, Note_on_c, 7, 77, 0
9, 56490, Note_on_c, 7, 69, 0
9, 56490, Note_on_c, 7, 69, 100
9, 56490, Note_on_c, 7, 77, 100
9, 56520, Note_on_c, 7, 77, 0
9, 56520, Note_on_c, 7, 69, 0
9, 56520, Note_on_c, 7, 69, 100
9, 56520, Note_on_c, 7, 77, 100
9, 56550, Note_on_c, 7, 77, 0
9, 56550, Note_on_c, 7, 69, 0
9, 56550, Note_on_c, 7, 69, 100
9, 56550, Note_on_c, 7, 77, 100
9, 56580, Note_on_c, 7, 77, 0
9, 56580, Note_on_c, 7, 69, 0
9, 56580, Note_on_c, 7, 69, 100
9, 56580, Note_on_c, 7, 77, 100
9, 56610, Note_on_c, 7, 77, 0
9, 56610, Note_on_c, 7, 69, 0
9, 56610, Note_on_c, 7, 69, 100
9, 56610, Note_on_c, 7, 77, 100
9, 56640, Note_on_c, 7, 77, 0
9, 56640, Note_on_c, 7, 69, 0
9, 56640, Note_on_c, 7, 69, 100
9, 56640, Note_on_c, 7, 77, 100
9, 56670, Note_on_c, 7, 77, 0
9, 56670, Note_on_c, 7, 69, 0
9, 56670, Note_on_c, 7, 69, 100
9, 56670, Note_on_c, 7, 77, 100
9, 56700, Note_on_c, 7, 77, 0
9, 56700, Note_on_c, 7, 69, 0
9, 56700, Note_on_c, 7, 69, 100
9, 56700, Note_on_c, 7, 77, 100
9, 56730, Note_on_c, 7, 77, 0
9, 56730, Note_on_c, 7, 69, 0
9, 56730, Note_on_c, 7, 69, 100
9, 56730, Note_on_c, 7, 77, 100
9, 56760, Note_on_c, 7, 77, 0
9, 56760, Note_on_c, 7, 69, 0
9, 56760, Note_on_c, 7, 69, 100
9, 56760, Note_on_c, 7, 77, 100
9, 56790, Note_on_c, 7, 77, 0
9, 56790, Note_on_c, 7, 69, 0
9, 56790, Note_on_c, 7, 69, 100
9, 56790, Note_on_c, 7, 77, 100
9, 56820, Note_on_c, 7, 77, 0
9, 56820, Note_on_c, 7, 69, 0
9, 56820, Note_on_c, 7, 69, 100
9, 56820, Note_on_c, 7, 77, 100
9, 56850, Note_on_c, 7, 77, 0
9, 56850, Note_on_c, 7, 69, 0
9, 56850, Note_on_c, 7, 69, 100
9, 56850, Note_on_c, 7, 77, 100
9, 56880, Note_on_c, 7, 77, 0
9, 56880, Note_on_c, 7, 69, 0
9, 56880, Note_on_c, 7, 69, 100
9, 56880, Note_on_c, 7, 77, 100
9, 56910, Note_on_c, 7, 77, 0
9, 56910, Note_on_c, 7, 69, 0
9, 56910, Note_on_c, 7, 69, 100
9, 56910, Note_on_c, 7, 77, 100
9, 56940, Note_on_c, 7, 77, 0
9, 56940, Note_on_c, 7, 69, 0
9, 56940, Note_on_c, 7, 69, 100
9, 56940, Note_on_c, 7, 77, 100
9, 56970, Note_on_c, 7, 77, 0
9, 56970, Note_on_c, 7, 69, 0
9, 56970, Note_on_c, 7, 69, 100
9, 56970, Note_on_c, 7, 77, 100
9, 57000, Note_on_c, 7, 77, 0
9, 57000, Note_on_c, 7, 69, 0
9, 57000, Note_on_c, 7, 69, 100
9, 57000, Note_on_c, 7, 77, 100
9, 57030, Note_on_c, 7, 77, 0
9, 57030, Note_on_c, 7, 69, 0
9, 57030, Note_on_c, 7, 69, 100
9, 57030, Note_on_c, 7, 77, 100
9, 57060, Note_on_c, 7, 77, 0
9, 57060, Note_on_c, 7, 69, 0
9, 57060, Note_on_c, 7, 69, 100
9, 57060, Note_on_c, 7, 77, 100
9, 57090, Note_on_c, 7, 77, 0
9, 57090, Note_on_c, 7, 69, 0
9, 57090, Note_on_c, 7, 69, 100
9, 57090, Note_on_c, 7, 77, 100
9, 57120, Note_on_c, 7, 77, 0
9, 57120, Note_on_c, 7, 69, 0
9, 57120, Note_on_c, 7, 69, 100
9, 57120, Note_on_c, 7, 77, 100
9, 57150, Note_on_c, 7, 77, 0
9, 57150, Note_on_c, 7, 69, 0
9, 57150, Note_on_c, 7, 69, 100
9, 57150, Note_on_c, 7, 77, 100
9, 57180, Note_on_c, 7, 77, 0
9, 57180, Note_on_c, 7, 69, 0
9, 57180, Note_on_c, 7, 69, 100
9, 57180, Note_on_c, 7, 77, 100
9, 57210, Note_on_c, 7, 77, 0
9, 57210, Note_on_c, 7, 69, 0
9, 57210, Note_on_c, 7, 69, 100
9, 57210, Note_on_c, 7, 77, 100
9, 57240, Note_on_c, 7, 77, 0
9, 57240, Note_on_c, 7, 69, 0
9, 57240, Note_on_c, 7, 69, 100
9, 57240, Note_on_c, 7, 77, 100
9, 57270, Note_on_c, 7, 77, 0
9, 57270, Note_on_c, 7, 69, 0
9, 57270, Note_on_c, 7, 69, 100
9, 57270, Note_on_c, 7, 77, 100
9, 57300, Note_on_c, 7, 77, 0
9, 57300, Note_on_c, 7, 69, 0
9, 57300, Note_on_c, 7, 69, 100
9, 57300, Note_on_c, 7, 77, 100
9, 57330, Note_on_c, 7, 77, 0
9, 57330, Note_on_c, 7, 69, 0
9, 57330, Note_on_c, 7, 69, 100
9, 57330, Note_on_c, 7, 77, 100
9, 57360, Note_on_c, 7, 77, 0
9, 57360, Note_on_c, 7, 69, 0
9, 57360, Note_on_c, 7, 77, 100
9, 57360, Note_on_c, 7, 69, 100
9, 57420, Note_on_c, 7, 69, 0
9, 57420, Note_on_c, 7, 77, 0
9, 58320, Note_on_c, 7, 74, 100
9, 58320, Note_on_c, 7, 65, 100
9, 58350, Note_on_c, 7, 65, 0
9, 58350, Note_on_c, 7, 74, 0
9, 58350, Note_on_c, 7, 74, 100
9, 58350, Note_on_c, 7, 65, 100
9, 58380, Note_on_c, 7, 65, 0
9, 58380, Note_on_c, 7, 74, 0
9, 58380, Note_on_c, 7, 74, 100
9, 58380, Note_on_c, 7, 65, 100
9, 58410, Note_on_c, 7, 65, 0
9, 58410, Note_on_c, 7, 74, 0
9, 58410, Note_on_c, 7, 74, 100
9, 58410, Note_on_c, 7, 65, 100
9, 58440, Note_on_c, 7, 65, 0
9, 58440, Note_on_c, 7, 74, 0
9, 58440, Note_on_c, 7, 74, 100
9, 58440, Note_on_c, 7, 65, 100
9, 58470, Note_on_c, 7, 65, 0
9, 58470, Note_on_c, 7, 74, 0
9, 58470, Note_on_c, 7, 74, 100
9, 58470, Note_on_c, 7, 65, 100
9, 58500, Note_on_c, 7, 65, 0
9, 58500, Note_on_c, 7, 74, 0
9, 58500, Note_on_c, 7, 74, 100
9, 58500, Note_on_c, 7, 65, 100
9, 58530, Note_on_c, 7, 65, 0
9, 58530, Note_on_c, 7, 74, 0
9, 58530, Note_on_c, 7, 74, 100
9, 58530, Note_on_c, 7, 65, 100
9, 58560, Note_on_c, 7, 65, 0
9, 58560, Note_on_c, 7, 74, 0
9, 58560, Note_on_c, 7, 74, 100
9, 58560, Note_on_c, 7, 65, 100
9, 58590, Note_on_c, 7, 65, 0
9, 58590, Note_on_c, 7, 74, 0
9, 58590, Note_on_c, 7, 74, 100
9, 58590, Note_on_c, 7, 65, 100
9, 58620, Note_on_c, 7, 65, 0
9, 58620, Note_on_c, 7, 74, 0
9, 58620, Note_on_c, 7, 74, 100
9, 58620, Note_on_c, 7, 65, 100
9, 58650, Note_on_c, 7, 65, 0
9, 58650, Note_on_c, 7, 74, 0
9, 58650, Note_on_c, 7, 74, 100
9, 58650, Note_on_c, 7, 65, 100
9, 58680, Note_on_c, 7, 65, 0
9, 58680, Note_on_c, 7, 74, 0
9, 58680, Note_on_c, 7, 74, 100
9, 58680, Note_on_c, 7, 65, 100
9, 58710, Note_on_c, 7, 65, 0
9, 58710, Note_on_c, 7, 74, 0
9, 58710, Note_on_c, 7, 74, 100
9, 58710, Note_on_c, 7, 65, 100
9, 58740, Note_on_c, 7, 65, 0
9, 58740, Note_on_c, 7, 74, 0
9, 58740, Note_on_c, 7, 74, 100
9, 58740, Note_on_c, 7, 65, 100
9, 58770, Note_on_c, 7, 65, 0
9, 58770, Note_on_c, 7, 74, 0
9, 58770, Note_on_c, 7, 74, 100
9, 58770, Note_on_c, 7, 65, 100
9, 58800, Note_on_c, 7, 65, 0
9, 58800, Note_on_c, 7, 74, 0
9, 58800, Note_on_c, 7, 74, 100
9, 58800, Note_on_c, 7, 65, 100
9, 58830, Note_on_c, 7, 65, 0
9, 58830, Note_on_c, 7, 74, 0
9, 58830, Note_on_c, 7, 74, 100
9, 58830, Note_on_c, 7, 65, 100
9, 58860, Note_on_c, 7, 65, 0
9, 58860, Note_on_c, 7, 74, 0
9, 58860, Note_on_c, 7, 74, 100
9, 58860, Note_on_c, 7, 65, 100
9, 58890, Note_on_c, 7, 65, 0
9, 58890, Note_on_c, 7, 74, 0
9, 58890, Note_on_c, 7, 74, 100
9, 58890, Note_on_c, 7, 65, 100
9, 58920, Note_on_c, 7, 65, 0
9, 58920, Note_on_c, 7, 74, 0
9, 58920, Note_on_c, 7, 74, 100
9, 58920, Note_on_c, 7, 65, 100
9, 58950, Note_on_c, 7, 65, 0
9, 58950, Note_on_c, 7, 74, 0
9, 58950, Note_on_c, 7, 74, 100
9, 58950, Note_on_c, 7, 65, 100
9, 58980, Note_on_c, 7, 65, 0
9, 58980, Note_on_c, 7, 74, 0
9, 58980, Note_on_c, 7, 74, 100
9, 58980, Note_on_c, 7, 65, 100
9, 59010, Note_on_c, 7, 65, 0
9, 59010, Note_on_c, 7, 74, 0
9, 59010, Note_on_c, 7, 74, 100
9, 59010, Note_on_c, 7, 65, 100
9, 59040, Note_on_c, 7, 65, 0
9, 59040, Note_on_c, 7, 74, 0
9, 59040, Note_on_c, 7, 74, 100
9, 59040, Note_on_c, 7, 65, 100
9, 59070, Note_on_c, 7, 65, 0
9, 59070, Note_on_c, 7, 74, 0
9, 59070, Note_on_c, 7, 74, 100
9, 59070, Note_on_c, 7, 65, 100
9, 59100, Note_on_c, 7, 65, 0
9, 59100, Note_on_c, 7, 74, 0
9, 59100, Note_on_c, 7, 74, 100
9, 59100, Note_on_c, 7, 65, 100
9, 59130, Note_on_c, 7, 65, 0
9, 59130, Note_on_c, 7, 74, 0
9, 59130, Note_on_c, 7, 74, 100
9, 59130, Note_on_c, 7, 65, 100
9, 59160, Note_on_c, 7, 65, 0
9, 59160, Note_on_c, 7, 74, 0
9, 59160, Note_on_c, 7, 74, 100
9, 59160, Note_on_c, 7, 65, 100
9, 59190, Note_on_c, 7, 65, 0
9, 59190, Note_on_c, 7, 74, 0
9, 59190, Note_on_c, 7, 74, 100
9, 59190, Note_on_c, 7, 65, 100
9, 59220, Note_on_c, 7, 65, 0
9, 59220, Note_on_c, 7, 74, 0
9, 59220, Note_on_c, 7, 74, 100
9, 59220, Note_on_c, 7, 65, 100
9, 59250, Note_on_c, 7, 65, 0
9, 59250, Note_on_c, 7, 74, 0
9, 59250, Note_on_c, 7, 74, 100
9, 59250, Note_on_c, 7, 65, 100
9, 59280, Note_on_c, 7, 65, 0
9, 59280, Note_on_c, 7, 74, 0
9, 59280, Note_on_c, 7, 74, 100
9, 59280, Note_on_c, 7, 65, 100
9, 59310, Note_on_c, 7, 65, 0
9, 59310, Note_on_c, 7, 74, 0
9, 59310, Note_on_c, 7, 74, 100
9, 59310, Note_on_c, 7, 65, 100
9, 59340, Note_on_c, 7, 65, 0
9, 59340, Note_on_c, 7, 74, 0
9, 59340, Note_on_c, 7, 74, 100
9, 59340, Note_on_c, 7, 65, 100
9, 59370, Note_on_c, 7, 65, 0
9, 59370, Note_on_c, 7, 74, 0
9, 59370, Note_on_c, 7, 74, 100
9, 59370, Note_on_c, 7, 65, 100
9, 59400, Note_on_c, 7, 65, 0
9, 59400, Note_on_c, 7, 74, 0
9, 59400, Note_on_c, 7, 74, 100
9, 59400, Note_on_c, 7, 65, 100
9, 59430, Note_on_c, 7, 65, 0
9, 59430, Note_on_c, 7, 74, 0
9, 59430, Note_on_c, 7, 74, 100
9, 59430, Note_on_c, 7, 65, 100
9, 59460, Note_on_c, 7, 65, 0
9, 59460, Note_on_c, 7, 74, 0
9, 59460, Note_on_c, 7, 74, 100
9, 59460, Note_on_c, 7, 65, 100
9, 59490, Note_on_c, 7, 65, 0
9, 59490, Note_on_c, 7, 74, 0
9, 59490, Note_on_c, 7, 74, 100
9, 59490, Note_on_c, 7, 65, 100
9, 59520, Note_on_c, 7, 65, 0
9, 59520, Note_on_c, 7, 74, 0
9, 59520, Note_on_c, 7, 74, 100
9, 59520, Note_on_c, 7, 65, 100
9, 59550, Note_on_c, 7, 65, 0
9, 59550, Note_on_c, 7, 74, 0
9, 59550, Note_on_c, 7, 74, 100
9, 59550, Note_on_c, 7, 65, 100
9, 59580, Note_on_c, 7, 65, 0
9, 59580, Note_on_c, 7, 74, 0
9, 59580, Note_on_c, 7, 74, 100
9, 59580, Note_on_c, 7, 65, 100
9, 59610, Note_on_c, 7, 65, 0
9, 59610, Note_on_c, 7, 74, 0
9, 59610, Note_on_c, 7, 74, 100
9, 59610, Note_on_c, 7, 65, 100
9, 59640, Note_on_c, 7, 65, 0
9, 59640, Note_on_c, 7, 74, 0
9, 59640, Note_on_c, 7, 74, 100
9, 59640, Note_on_c, 7, 65, 100
9, 59670, Note_on_c, 7, 65, 0
9, 59670, Note_on_c, 7, 74, 0
9, 59670, Note_on_c, 7, 74, 100
9, 59670, Note_on_c, 7, 65, 100
9, 59700, Note_on_c, 7, 65, 0
9, 59700, Note_on_c, 7, 74, 0
9, 59700, Note_on_c, 7, 74, 100
9, 59700, Note_on_c, 7, 65, 100
9, 59730, Note_on_c, 7, 65, 0
9, 59730, Note_on_c, 7, 74, 0
9, 59730, Note_on_c, 7, 74, 100
9, 59730, Note_on_c, 7, 65, 100
9, 59760, Note_on_c, 7, 65, 0
9, 59760, Note_on_c, 7, 74, 0
9, 59760, Note_on_c, 7, 74, 100
9, 59760, Note_on_c, 7, 65, 100
9, 59790, Note_on_c, 7, 65, 0
9, 59790, Note_on_c, 7, 74, 0
9, 59790, Note_on_c, 7, 74, 100
9, 59790, Note_on_c, 7, 65, 100
9, 59820, Note_on_c, 7, 65, 0
9, 59820, Note_on_c, 7, 74, 0
9, 59820, Note_on_c, 7, 74, 100
9, 59820, Note_on_c, 7, 65, 100
9, 59850, Note_on_c, 7, 65, 0
9, 59850, Note_on_c, 7, 74, 0
9, 59850, Note_on_c, 7, 74, 100
9, 59850, Note_on_c, 7, 65, 100
9, 59880, Note_on_c, 7, 65, 0
9, 59880, Note_on_c, 7, 74, 0
9, 59880, Note_on_c, 7, 74, 100
9, 59880, Note_on_c, 7, 65, 100
9, 59910, Note_on_c, 7, 65, 0
9, 59910, Note_on_c, 7, 74, 0
9, 59910, Note_on_c, 7, 74, 100
9, 59910, Note_on_c, 7, 65, 100
9, 59940, Note_on_c, 7, 65, 0
9, 59940, Note_on_c, 7, 74, 0
9, 59940, Note_on_c, 7, 74, 100
9, 59940, Note_on_c, 7, 65, 100
9, 59970, Note_on_c, 7, 65, 0
9, 59970, Note_on_c, 7, 74, 0
9, 59970, Note_on_c, 7, 74, 100
9, 59970, Note_on_c, 7, 65, 100
9, 60000, Note_on_c, 7, 65, 0
9, 60000, Note_on_c, 7, 74, 0
9, 60000, Note_on_c, 7, 74, 100
9, 60000, Note_on_c, 7, 65, 100
9, 60030, Note_on_c, 7, 65, 0
9, 60030, Note_on_c, 7, 74, 0
9, 60030, Note_on_c, 7, 74, 100
9, 60030, Note_on_c, 7, 65, 100
9, 60060, Note_on_c, 7, 65, 0
9, 60060, Note_on_c, 7, 74, 0
9, 60060, Note_on_c, 7, 74, 100
9, 60060, Note_on_c, 7, 65, 100
9, 60090, Note_on_c, 7, 65, 0
9, 60090, Note_on_c, 7, 74, 0
9, 60090, Note_on_c, 7, 74, 100
9, 60090, Note_on_c, 7, 65, 100
9, 60120, Note_on_c, 7, 65, 0
9, 60120, Note_on_c, 7, 74, 0
9, 60120, Note_on_c, 7, 74, 100
9, 60120, Note_on_c, 7, 65, 100
9, 60150, Note_on_c, 7, 65, 0
9, 60150, Note_on_c, 7, 74, 0
9, 60150, Note_on_c, 7, 74, 100
9, 60150, Note_on_c, 7, 65, 100
9, 60180, Note_on_c, 7, 65, 0
9, 60180, Note_on_c, 7, 74, 0
9, 60180, Note_on_c, 7, 74, 100
9, 60180, Note_on_c, 7, 65, 100
9, 60210, Note_on_c, 7, 65, 0
9, 60210, Note_on_c, 7, 74, 0
9, 60210, Note_on_c, 7, 74, 100
9, 60210, Note_on_c, 7, 65, 100
9, 60240, Note_on_c, 7, 65, 0
9, 60240, Note_on_c, 7, 74, 0
9, 60240, Note_on_c, 7, 73, 100
9, 60240, Note_on_c, 7, 64, 100
9, 60270, Note_on_c, 7, 64, 0
9, 60270, Note_on_c, 7, 73, 0
9, 60270, Note_on_c, 7, 73, 100
9, 60270, Note_on_c, 7, 64, 100
9, 60300, Note_on_c, 7, 64, 0
9, 60300, Note_on_c, 7, 73, 0
9, 60300, Note_on_c, 7, 73, 100
9, 60300, Note_on_c, 7, 64, 100
9, 60330, Note_on_c, 7, 64, 0
9, 60330, Note_on_c, 7, 73, 0
9, 60330, Note_on_c, 7, 73, 100
9, 60330, Note_on_c, 7, 64, 100
9, 60360, Note_on_c, 7, 64, 0
9, 60360, Note_on_c, 7, 73, 0
9, 60360, Note_on_c, 7, 67, 100
9, 60390, Note_on_c, 7, 67, 0
9, 60390, Note_on_c, 7, 67, 100
9, 60420, Note_on_c, 7, 67, 0
9, 60420, Note_on_c, 7, 67, 100
9, 60450, Note_on_c, 7, 67, 0
9, 60450, Note_on_c, 7, 67, 100
9, 60480, Note_on_c, 7, 67, 0
9, 60480, Note_on_c, 7, 65, 100
9, 60510, Note_on_c, 7, 65, 0
9, 60510, Note_on_c, 7, 65, 100
9, 60540, Note_on_c, 7, 65, 0
9, 60540, Note_on_c, 7, 65, 100
9, 60570, Note_on_c, 7, 65, 0
9, 60570, Note_on_c, 7, 65, 100
9, 60600, Note_on_c, 7, 65, 0
9, 60600, Note_on_c, 7, 68, 100
9, 60630, Note_on_c, 7, 68, 0
9, 60630, Note_on_c, 7, 68, 100
9, 60660, Note_on_c, 7, 68, 0
9, 60660, Note_on_c, 7, 68, 100
9, 60690, Note_on_c, 7, 68, 0
9, 60690, Note_on_c, 7, 68, 100
9, 60720, Note_on_c, 7, 68, 0
9, 60720, Note_on_c, 7, 69, 100
9, 60750, Note_on_c, 7, 69, 0
9, 60750, Note_on_c, 7, 69, 100
9, 60780, Note_on_c, 7, 69, 0
9, 60780, Note_on_c, 7, 69, 100
9, 60810, Note_on_c, 7, 69, 0
9, 60810, Note_on_c, 7, 69, 100
9, 60840, Note_on_c, 7, 69, 0
9, 60840, Note_on_c, 7, 67, 100
9, 60870, Note_on_c, 7, 67, 0
9, 60870, Note_on_c, 7, 67, 100
9, 60900, Note_on_c, 7, 67, 0
9, 60900, Note_on_c, 7, 67, 100
9, 60930, Note_on_c, 7, 67, 0
9, 60930, Note_on_c, 7, 67, 100
9, 60960, Note_on_c, 7, 67, 0
9, 60960, Note_on_c, 7, 65, 100
9, 60990, Note_on_c, 7, 65, 0
9, 60990, Note_on_c, 7, 65, 100
9, 61020, Note_on_c, 7, 65, 0
9, 61020, Note_on_c, 7, 65, 100
9, 61050, Note_on_c, 7, 65, 0
9, 61050, Note_on_c, 7, 65, 100
9, 61080, Note_on_c, 7, 65, 0
9, 61080, Note_on_c, 7, 68, 100
9, 61110, Note_on_c, 7, 68, 0
9, 61110, Note_on_c, 7, 68, 100
9, 61140, Note_on_c, 7, 68, 0
9, 61140, Note_on_c, 7, 68, 100
9, 61170, Note_on_c, 7, 68, 0
9, 61170, Note_on_c, 7, 68, 100
9, 61200, Note_on_c, 7, 68, 0
9, 61200, Note_on_c, 7, 69, 100
9, 61260, Note_on_c, 7, 69, 0
9, 61320, Note_on_c, 7, 81, 100
9, 61350, Note_on_c, 7, 81, 0
9, 61380, Note_on_c, 7, 79, 100
9, 61410, Note_on_c, 7, 79, 0
9, 61440, Note_on_c, 7, 77, 100
9, 61500, Note_on_c, 7, 77, 0
9, 61500, Note_on_c, 7, 81, 100
9, 61560, Note_on_c, 7, 81, 0
9, 61560, Note_on_c, 7, 77, 100
9, 61620, Note_on_c, 7, 77, 0
9, 61620, Note_on_c, 7, 74, 100
9, 61680, Note_on_c, 7, 74, 0
9, 61680, Note_on_c, 7, 73, 100
9, 61740, Note_on_c, 7, 73, 0
9, 61740, Note_on_c, 7, 76, 100
9, 61800, Note_on_c, 7, 76, 0
9, 61800, Note_on_c, 7, 69, 100
9, 61860, Note_on_c, 7, 69, 0
9, 61860, Note_on_c, 7, 67, 100
9, 61920, Note_on_c, 7, 67, 0
9, 61920, Note_on_c, 7, 65, 100
9, 61980, Note_on_c, 7, 65, 0
9, 61980, Note_on_c, 7, 69, 100
9, 62040, Note_on_c, 7, 69, 0
9, 62040, Note_on_c, 7, 65, 100
9, 62100, Note_on_c, 7, 65, 0
9, 62100, Note_on_c, 7, 62, 100
9, 62160, Note_on_c, 7, 62, 0
9, 62160, Note_on_c, 7, 57, 100
9, 62280, Note_on_c, 7, 57, 0
9, 62880, Note_on_c, 7, 69, 50
9, 63060, Note_on_c, 7, 69, 0
9, 63060, Note_on_c, 7, 71, 50
9, 63120, Note_on_c, 7, 71, 0
9, 63120, Note_on_c, 7, 71, 50
9, 63180, Note_on_c, 7, 71, 0
9, 63180, Note_on_c, 7, 69, 50
9, 63210, Note_on_c, 7, 69, 0
9, 63240, Note_on_c, 7, 69, 50
9, 63270, Note_on_c, 7, 69, 0
9, 63300, Note_on_c, 7, 69, 50
9, 63330, Note_on_c, 7, 69, 0
9, 63360, Note_on_c, 7, 69, 50
9, 63420, Note_on_c, 7, 69, 0
9, 63420, Note_on_c, 7, 67, 50
9, 63450, Note_on_c, 7, 67, 0
9, 63480, Note_on_c, 7, 67, 50
9, 63510, Note_on_c, 7, 67, 0
9, 63540, Note_on_c, 7, 67, 50
9, 63570, Note_on_c, 7, 67, 0
9, 63600, Note_on_c, 7, 67, 50
9, 63660, Note_on_c, 7, 67, 0
9, 63660, Note_on_c, 7, 66, 50
9, 63690, Note_on_c, 7, 66, 0
9, 63720, Note_on_c, 7, 66, 50
9, 63750, Note_on_c, 7, 66, 0
9, 63780, Note_on_c, 7, 66, 50
9, 63810, Note_on_c, 7, 66, 0
9, 63840, Note_on_c, 7, 78, 50
9, 64020, Note_on_c, 7, 78, 0
9, 64020, Note_on_c, 7, 79, 50
9, 64080, Note_on_c, 7, 79, 0
9, 64080, Note_on_c, 7, 79, 50
9, 64140, Note_on_c, 7, 79, 0
9, 64140, Note_on_c, 7, 78, 50
9, 64170, Note_on_c, 7, 78, 0
9, 64200, Note_on_c, 7, 78, 50
9, 64230, Note_on_c, 7, 78, 0
9, 64260, Note_on_c, 7, 78, 50
9, 64290, Note_on_c, 7, 78, 0
9, 64320, Note_on_c, 7, 78, 50
9, 64380, Note_on_c, 7, 78, 0
9, 64380, Note_on_c, 7, 76, 50
9, 64410, Note_on_c, 7, 76, 0
9, 64440, Note_on_c, 7, 76, 50
9, 64470, Note_on_c, 7, 76, 0
9, 64500, Note_on_c, 7, 76, 50
9, 64530, Note_on_c, 7, 76, 0
9, 64560, Note_on_c, 7, 76, 50
9, 64620, Note_on_c, 7, 76, 0
9, 64620, Note_on_c, 7, 74, 50
9, 64650, Note_on_c, 7, 74, 0
9, 64680, Note_on_c, 7, 74, 50
9, 64710, Note_on_c, 7, 74, 0
9, 64740, Note_on_c, 7, 74, 50
9, 64770, Note_on_c, 7, 74, 0
9, 65880, Note_on_c, 7, 78, 50
9, 65970, Note_on_c, 7, 78, 0
9, 65970, Note_on_c, 7, 81, 50
9, 66000, Note_on_c, 7, 81, 0
9, 66000, Note_on_c, 7, 79, 50
9, 66060, Note_on_c, 7, 79, 0
9, 66120, Note_on_c, 7, 79, 50
9, 66210, Note_on_c, 7, 79, 0
9, 66210, Note_on_c, 7, 78, 50
9, 66240, Note_on_c, 7, 78, 0
9, 66240, Note_on_c, 7, 76, 50
9, 66300, Note_on_c, 7, 76, 0
9, 66360, Note_on_c, 7, 74, 50
9, 66420, Note_on_c, 7, 74, 0
9, 66480, Note_on_c, 7, 73, 50
9, 66600, Note_on_c, 7, 73, 0
9, 67680, Note_on_c, 7, 66, 50
9, 67860, Note_on_c, 7, 66, 0
9, 67860, Note_on_c, 7, 67, 50
9, 67920, Note_on_c, 7, 67, 0
9, 67920, Note_on_c, 7, 67, 50
9, 67980, Note_on_c, 7, 67, 0
9, 67980, Note_on_c, 7, 66, 50
9, 68010, Note_on_c, 7, 66, 0
9, 68040, Note_on_c, 7, 66, 50
9, 68070, Note_on_c, 7, 66, 0
9, 68100, Note_on_c, 7, 66, 50
9, 68130, Note_on_c, 7, 66, 0
9, 68160, Note_on_c, 7, 66, 50
9, 68220, Note_on_c, 7, 66, 0
9, 68220, Note_on_c, 7, 64, 50
9, 68250, Note_on_c, 7, 64, 0
9, 68280, Note_on_c, 7, 64, 50
9, 68310, Note_on_c, 7, 64, 0
9, 68340, Note_on_c, 7, 64, 50
9, 68370, Note_on_c, 7, 64, 0
9, 68400, Note_on_c, 7, 64, 50
9, 68460, Note_on_c, 7, 64, 0
9, 68460, Note_on_c, 7, 62, 50
9, 68490, Note_on_c, 7, 62, 0
9, 68520, Note_on_c, 7, 62, 50
9, 68550, Note_on_c, 7, 62, 0
9, 68580, Note_on_c, 7, 62, 50
9, 68610, Note_on_c, 7, 62, 0
9, 69720, Note_on_c, 7, 83, 50
9, 69810, Note_on_c, 7, 83, 0
9, 69810, Note_on_c, 7, 81, 50
9, 69840, Note_on_c, 7, 81, 0
9, 69840, Note_on_c, 7, 79, 50
9, 69900, Note_on_c, 7, 79, 0
9, 69960, Note_on_c, 7, 79, 50
9, 70050, Note_on_c, 7, 79, 0
9, 70050, Note_on_c, 7, 78, 50
9, 70080, Note_on_c, 7, 78, 0
9, 70080, Note_on_c, 7, 76, 50
9, 70140, Note_on_c, 7, 76, 0
9, 70200, Note_on_c, 7, 74, 50
9, 70260, Note_on_c, 7, 74, 0
9, 70320, Note_on_c, 7, 76, 50
9, 70380, Note_on_c, 7, 76, 0
9, 70440, Note_on_c, 7, 73, 50
9, 70500, Note_on_c, 7, 73, 0
9, 70560, Note_on_c, 7, 74, 50
9, 70680, Note_on_c, 7, 74, 0
9, 72780, Note_on_c, 7, 66, 50
9, 72810, Note_on_c, 7, 66, 0
9, 72840, Note_on_c, 7, 69, 50
9, 72870, Note_on_c, 7, 69, 0
9, 72900, Note_on_c, 7, 66, 50
9, 72930, Note_on_c, 7, 66, 0
9, 72960, Note_on_c, 7, 74, 50
9, 73440, Note_on_c, 7, 74, 0
9, 73440, Note_on_c, 7, 74, 100
9, 73440, Note_on_c, 7, 62, 100
9, 73470, Note_on_c, 7, 62, 0
9, 73470, Note_on_c, 7, 74, 0
9, 73470, Note_on_c, 7, 74, 100
9, 73470, Note_on_c, 7, 62, 100
9, 73500, Note_on_c, 7, 62, 0
9, 73500, Note_on_c, 7, 74, 0
9, 73500, Note_on_c, 7, 74, 100
9, 73500, Note_on_c, 7, 62, 100
9, 73530, Note_on_c, 7, 62, 0
9, 73530, Note_on_c, 7, 74, 0
9, 73530, Note_on_c, 7, 74, 100
9, 73530, Note_on_c, 7, 62, 100
9, 73560, Note_on_c, 7, 62, 0
9, 73560, Note_on_c, 7, 74, 0
9, 73560, Note_on_c, 7, 74, 100
9, 73560, Note_on_c, 7, 62, 100
9, 73590, Note_on_c, 7, 62, 0
9, 73590, Note_on_c, 7, 74, 0
9, 73590, Note_on_c, 7, 74, 100
9, 73590, Note_on_c, 7, 62, 100
9, 73620, Note_on_c, 7, 62, 0
9, 73620, Note_on_c, 7, 74, 0
9, 73620, Note_on_c, 7, 74, 100
9, 73620, Note_on_c, 7, 62, 100
9, 73650, Note_on_c, 7, 62, 0
9, 73650, Note_on_c, 7, 74, 0
9, 73650, Note_on_c, 7, 74, 100
9, 73650, Note_on_c, 7, 62, 100
9, 73680, Note_on_c, 7, 62, 0
9, 73680, Note_on_c, 7, 74, 0
9, 73680, Note_on_c, 7, 74, 100
9, 73680, Note_on_c, 7, 62, 100
9, 73710, Note_on_c, 7, 62, 0
9, 73710, Note_on_c, 7, 74, 0
9, 73710, Note_on_c, 7, 74, 100
9, 73710, Note_on_c, 7, 62, 100
9, 73740, Note_on_c, 7, 62, 0
9, 73740, Note_on_c, 7, 74, 0
9, 73740, Note_on_c, 7, 74, 100
9, 73740, Note_on_c, 7, 62, 100
9, 73770, Note_on_c, 7, 62, 0
9, 73770, Note_on_c, 7, 74, 0
9, 73770, Note_on_c, 7, 74, 100
9, 73770, Note_on_c, 7, 62, 100
9, 73800, Note_on_c, 7, 62, 0
9, 73800, Note_on_c, 7, 74, 0
9, 73800, Note_on_c, 7, 74, 100
9, 73800, Note_on_c, 7, 62, 100
9, 73830, Note_on_c, 7, 62, 0
9, 73830, Note_on_c, 7, 74, 0
9, 73830, Note_on_c, 7, 74, 100
9, 73830, Note_on_c, 7, 62, 100
9, 73860, Note_on_c, 7, 62, 0
9, 73860, Note_on_c, 7, 74, 0
9, 73860, Note_on_c, 7, 74, 100
9, 73860, Note_on_c, 7, 62, 100
9, 73890, Note_on_c, 7, 62, 0
9, 73890, Note_on_c, 7, 74, 0
9, 73890, Note_on_c, 7, 74, 100
9, 73890, Note_on_c, 7, 62, 100
9, 73920, Note_on_c, 7, 62, 0
9, 73920, Note_on_c, 7, 74, 0
9, 73920, Note_on_c, 7, 74, 100
9, 73920, Note_on_c, 7, 62, 100
9, 73950, Note_on_c, 7, 62, 0
9, 73950, Note_on_c, 7, 74, 0
9, 73950, Note_on_c, 7, 74, 100
9, 73950, Note_on_c, 7, 62, 100
9, 73980, Note_on_c, 7, 62, 0
9, 73980, Note_on_c, 7, 74, 0
9, 73980, Note_on_c, 7, 74, 100
9, 73980, Note_on_c, 7, 62, 100
9, 74010, Note_on_c, 7, 62, 0
9, 74010, Note_on_c, 7, 74, 0
9, 74010, Note_on_c, 7, 74, 100
9, 74010, Note_on_c, 7, 62, 100
9, 74040, Note_on_c, 7, 62, 0
9, 74040, Note_on_c, 7, 74, 0
9, 74040, Note_on_c, 7, 74, 100
9, 74040, Note_on_c, 7, 62, 100
9, 74070, Note_on_c, 7, 62, 0
9, 74070, Note_on_c, 7, 74, 0
9, 74070, Note_on_c, 7, 74, 100
9, 74070, Note_on_c, 7, 62, 100
9, 74100, Note_on_c, 7, 62, 0
9, 74100, Note_on_c, 7, 74, 0
9, 74100, Note_on_c, 7, 74, 100
9, 74100, Note_on_c, 7, 62, 100
9, 74130, Note_on_c, 7, 62, 0
9, 74130, Note_on_c, 7, 74, 0
9, 74130, Note_on_c, 7, 74, 100
9, 74130, Note_on_c, 7, 62, 100
9, 74160, Note_on_c, 7, 62, 0
9, 74160, Note_on_c, 7, 74, 0
9, 74160, Note_on_c, 7, 74, 100
9, 74160, Note_on_c, 7, 62, 100
9, 74190, Note_on_c, 7, 62, 0
9, 74190, Note_on_c, 7, 74, 0
9, 74190, Note_on_c, 7, 74, 100
9, 74190, Note_on_c, 7, 62, 100
9, 74220, Note_on_c, 7, 62, 0
9, 74220, Note_on_c, 7, 74, 0
9, 74220, Note_on_c, 7, 74, 100
9, 74220, Note_on_c, 7, 62, 100
9, 74250, Note_on_c, 7, 62, 0
9, 74250, Note_on_c, 7, 74, 0
9, 74250, Note_on_c, 7, 74, 100
9, 74250, Note_on_c, 7, 62, 100
9, 74280, Note_on_c, 7, 62, 0
9, 74280, Note_on_c, 7, 74, 0
9, 74280, Note_on_c, 7, 74, 100
9, 74280, Note_on_c, 7, 62, 100
9, 74310, Note_on_c, 7, 62, 0
9, 74310, Note_on_c, 7, 74, 0
9, 74310, Note_on_c, 7, 74, 100
9, 74310, Note_on_c, 7, 62, 100
9, 74340, Note_on_c, 7, 62, 0
9, 74340, Note_on_c, 7, 74, 0
9, 74340, Note_on_c, 7, 74, 100
9, 74340, Note_on_c, 7, 62, 100
9, 74370, Note_on_c, 7, 62, 0
9, 74370, Note_on_c, 7, 74, 0
9, 74370, Note_on_c, 7, 74, 100
9, 74370, Note_on_c, 7, 62, 100
9, 74400, Note_on_c, 7, 62, 0
9, 74400, Note_on_c, 7, 74, 0
9, 74400, Note_on_c, 7, 74, 100
9, 74400, Note_on_c, 7, 62, 100
9, 74430, Note_on_c, 7, 62, 0
9, 74430, Note_on_c, 7, 74, 0
9, 74430, Note_on_c, 7, 74, 100
9, 74430, Note_on_c, 7, 62, 100
9, 74460, Note_on_c, 7, 62, 0
9, 74460, Note_on_c, 7, 74, 0
9, 74460, Note_on_c, 7, 74, 100
9, 74460, Note_on_c, 7, 62, 100
9, 74490, Note_on_c, 7, 62, 0
9, 74490, Note_on_c, 7, 74, 0
9, 74490, Note_on_c, 7, 74, 100
9, 74490, Note_on_c, 7, 62, 100
9, 74520, Note_on_c, 7, 62, 0
9, 74520, Note_on_c, 7, 74, 0
9, 74520, Note_on_c, 7, 74, 100
9, 74520, Note_on_c, 7, 62, 100
9, 74550, Note_on_c, 7, 62, 0
9, 74550, Note_on_c, 7, 74, 0
9, 74550, Note_on_c, 7, 74, 100
9, 74550, Note_on_c, 7, 62, 100
9, 74580, Note_on_c, 7, 62, 0
9, 74580, Note_on_c, 7, 74, 0
9, 74580, Note_on_c, 7, 74, 100
9, 74580, Note_on_c, 7, 62, 100
9, 74610, Note_on_c, 7, 62, 0
9, 74610, Note_on_c, 7, 74, 0
9, 74610, Note_on_c, 7, 74, 100
9, 74610, Note_on_c, 7, 62, 100
9, 74640, Note_on_c, 7, 62, 0
9, 74640, Note_on_c, 7, 74, 0
9, 74640, Note_on_c, 7, 74, 100
9, 74640, Note_on_c, 7, 62, 100
9, 74670, Note_on_c, 7, 62, 0
9, 74670, Note_on_c, 7, 74, 0
9, 74670, Note_on_c, 7, 74, 100
9, 74670, Note_on_c, 7, 62, 100
9, 74700, Note_on_c, 7, 62, 0
9, 74700, Note_on_c, 7, 74, 0
9, 74700, Note_on_c, 7, 74, 100
9, 74700, Note_on_c, 7, 62, 100
9, 74730, Note_on_c, 7, 62, 0
9, 74730, Note_on_c, 7, 74, 0
9, 74730, Note_on_c, 7, 74, 100
9, 74730, Note_on_c, 7, 62, 100
9, 74760, Note_on_c, 7, 62, 0
9, 74760, Note_on_c, 7, 74, 0
9, 74760, Note_on_c, 7, 74, 100
9, 74760, Note_on_c, 7, 62, 100
9, 74790, Note_on_c, 7, 62, 0
9, 74790, Note_on_c, 7, 74, 0
9, 74790, Note_on_c, 7, 74, 100
9, 74790, Note_on_c, 7, 62, 100
9, 74820, Note_on_c, 7, 62, 0
9, 74820, Note_on_c, 7, 74, 0
9, 74820, Note_on_c, 7, 74, 100
9, 74820, Note_on_c, 7, 62, 100
9, 74850, Note_on_c, 7, 62, 0
9, 74850, Note_on_c, 7, 74, 0
9, 74850, Note_on_c, 7, 74, 100
9, 74850, Note_on_c, 7, 62, 100
9, 74880, Note_on_c, 7, 62, 0
9, 74880, Note_on_c, 7, 74, 0
9, 74880, Note_on_c, 7, 74, 100
9, 74880, Note_on_c, 7, 62, 100
9, 74910, Note_on_c, 7, 62, 0
9, 74910, Note_on_c, 7, 74, 0
9, 74910, Note_on_c, 7, 74, 100
9, 74910, Note_on_c, 7, 62, 100
9, 74940, Note_on_c, 7, 62, 0
9, 74940, Note_on_c, 7, 74, 0
9, 74940, Note_on_c, 7, 74, 100
9, 74940, Note_on_c, 7, 62, 100
9, 74970, Note_on_c, 7, 62, 0
9, 74970, Note_on_c, 7, 74, 0
9, 74970, Note_on_c, 7, 74, 100
9, 74970, Note_on_c, 7, 62, 100
9, 75000, Note_on_c, 7, 62, 0
9, 75000, Note_on_c, 7, 74, 0
9, 75000, Note_on_c, 7, 74, 100
9, 75000, Note_on_c, 7, 62, 100
9, 75030, Note_on_c, 7, 62, 0
9, 75030, Note_on_c, 7, 74, 0
9, 75030, Note_on_c, 7, 74, 100
9, 75030, Note_on_c, 7, 62, 100
9, 75060, Note_on_c, 7, 62, 0
9, 75060, Note_on_c, 7, 74, 0
9, 75060, Note_on_c, 7, 74, 100
9, 75060, Note_on_c, 7, 62, 100
9, 75090, Note_on_c, 7, 62, 0
9, 75090, Note_on_c, 7, 74, 0
9, 75090, Note_on_c, 7, 74, 100
9, 75090, Note_on_c, 7, 62, 100
9, 75120, Note_on_c, 7, 62, 0
9, 75120, Note_on_c, 7, 74, 0
9, 75120, Note_on_c, 7, 74, 100
9, 75120, Note_on_c, 7, 62, 100
9, 75150, Note_on_c, 7, 62, 0
9, 75150, Note_on_c, 7, 74, 0
9, 75150, Note_on_c, 7, 74, 100
9, 75150, Note_on_c, 7, 62, 100
9, 75180, Note_on_c, 7, 62, 0
9, 75180, Note_on_c, 7, 74, 0
9, 75180, Note_on_c, 7, 74, 100
9, 75180, Note_on_c, 7, 62, 100
9, 75210, Note_on_c, 7, 62, 0
9, 75210, Note_on_c, 7, 74, 0
9, 75210, Note_on_c, 7, 74, 100
9, 75210, Note_on_c, 7, 62, 100
9, 75240, Note_on_c, 7, 62, 0
9, 75240, Note_on_c, 7, 74, 0
9, 75240, Note_on_c, 7, 74, 100
9, 75240, Note_on_c, 7, 62, 100
9, 75270, Note_on_c, 7, 62, 0
9, 75270, Note_on_c, 7, 74, 0
9, 75270, Note_on_c, 7, 74, 100
9, 75270, Note_on_c, 7, 62, 100
9, 75300, Note_on_c, 7, 62, 0
9, 75300, Note_on_c, 7, 74, 0
9, 75300, Note_on_c, 7, 74, 100
9, 75300, Note_on_c, 7, 62, 100
9, 75330, Note_on_c, 7, 62, 0
9, 75330, Note_on_c, 7, 74, 0
9, 75330, Note_on_c, 7, 74, 100
9, 75330, Note_on_c, 7, 62, 100
9, 75360, Note_on_c, 7, 62, 0
9, 75360, Note_on_c, 7, 74, 0
9, 75360, Note_on_c, 7, 73, 100
9, 75390, Note_on_c, 7, 73, 0
9, 75390, Note_on_c, 7, 73, 100
9, 75420, Note_on_c, 7, 73, 0
9, 75420, Note_on_c, 7, 73, 100
9, 75450, Note_on_c, 7, 73, 0
9, 75450, Note_on_c, 7, 73, 100
9, 75480, Note_on_c, 7, 73, 0
9, 75480, Note_on_c, 7, 74, 100
9, 75510, Note_on_c, 7, 74, 0
9, 75510, Note_on_c, 7, 74, 100
9, 75540, Note_on_c, 7, 74, 0
9, 75540, Note_on_c, 7, 74, 100
9, 75570, Note_on_c, 7, 74, 0
9, 75570, Note_on_c, 7, 74, 100
9, 75600, Note_on_c, 7, 74, 0
9, 75600, Note_on_c, 7, 76, 100
9, 75630, Note_on_c, 7, 76, 0
9, 75630, Note_on_c, 7, 76, 100
9, 75660, Note_on_c, 7, 76, 0
9, 75660, Note_on_c, 7, 76, 100
9, 75690, Note_on_c, 7, 76, 0
9, 75690, Note_on_c, 7, 76, 100
9, 75720, Note_on_c, 7, 76, 0
9, 75720, Note_on_c, 7, 73, 100
9, 75750, Note_on_c, 7, 73, 0
9, 75750, Note_on_c, 7, 73, 100
9, 75780, Note_on_c, 7, 73, 0
9, 75780, Note_on_c, 7, 73, 100
9, 75810, Note_on_c, 7, 73, 0
9, 75810, Note_on_c, 7, 73, 100
9, 75840, Note_on_c, 7, 73, 0
9, 75840, Note_on_c, 7, 74, 100
9, 75960, Note_on_c, 7, 74, 0
9, 76080, Program_c, 7, 45
9, 76080, Note_on_c, 7, 57, 50
9, 76080, Note_on_c, 7, 67, 50
9, 76140, Note_on_c, 7, 67, 0
9, 76140, Note_on_c, 7, 57, 0
9, 76200, Note_on_c, 7, 57, 50
9, 76200, Note_on_c, 7, 67, 50
9, 76260, Note_on_c, 7, 67, 0
9, 76260, Note_on_c, 7, 57, 0
9, 76320, Note_on_c, 7, 57, 50
9, 76320, Note_on_c, 7, 66, 50
9, 76380, Note_on_c, 7, 66, 0
9, 76380, Note_on_c, 7, 57, 0
9, 76560, Note_on_c, 7, 57, 50
9, 76560, Note_on_c, 7, 67, 50
9, 76620, Note_on_c, 7, 67, 0
9, 76620, Note_on_c, 7, 57, 0
9, 76680, Note_on_c, 7, 57, 50
9, 76680, Note_on_c, 7, 67, 50
9, 76740, Note_on_c, 7, 67, 0
9, 76740, Note_on_c, 7, 57, 0
9, 76800, Note_on_c, 7, 57, 50
9, 76800, Note_on_c, 7, 66, 50
9, 76860, Note_on_c, 7, 66, 0
9, 76860, Note_on_c, 7, 57, 0
9, 77040, Note_on_c, 7, 64, 50
9, 77040, Note_on_c, 7, 73, 50
9, 77100, Note_on_c, 7, 73, 0
9, 77100, Note_on_c, 7, 64, 0
9, 77160, Note_on_c, 7, 64, 50
9, 77160, Note_on_c, 7, 73, 50
9, 77220, Note_on_c, 7, 73, 0
9, 77220, Note_on_c, 7, 64, 0
9, 77280, Note_on_c, 7, 62, 50
9, 77280, Note_on_c, 7, 74, 50
9, 77340, Note_on_c, 7, 74, 0
9, 77340, Note_on_c, 7, 62, 0
9, 78240, Program_c, 7, 48
9, 78240, Note_on_c, 7, 78, 50
9, 78255, Note_on_c, 7, 78, 0
9, 78255, Note_on_c, 7, 76, 50
9, 78270, Note_on_c, 7, 76, 0
9, 78270, Note_on_c, 7, 78, 50
9, 78285, Note_on_c, 7, 78, 0
9, 78285, Note_on_c, 7, 76, 50
9, 78300, Note_on_c, 7, 76, 0
9, 78300, Note_on_c, 7, 78, 50
9, 78315, Note_on_c, 7, 78, 0
9, 78315, Note_on_c, 7, 76, 50
9, 78330, Note_on_c, 7, 76, 0
9, 78330, Note_on_c, 7, 78, 50
9, 78345, Note_on_c, 7, 78, 0
9, 78345, Note_on_c, 7, 76, 50
9, 78360, Note_on_c, 7, 76, 0
9, 78360, Note_on_c, 7, 78, 50
9, 78375, Note_on_c, 7, 78, 0
9, 78375, Note_on_c, 7, 76, 50
9, 78390, Note_on_c, 7, 76, 0
9, 78390, Note_on_c, 7, 78, 50
9, 78405, Note_on_c, 7, 78, 0
9, 78405, Note_on_c, 7, 76, 50
9, 78420, Note_on_c, 7, 76, 0
9, 78420, Note_on_c, 7, 76, 50
9, 78450, Note_on_c, 7, 76, 0
9, 78450, Note_on_c, 7, 78, 50
9, 78480, Note_on_c, 7, 78, 0
9, 78480, Note_on_c, 7, 79, 50
9, 78570, Note_on_c, 7, 79, 0
9, 78720, Note_on_c, 7, 74, 50
9, 78735, Note_on_c, 7, 74, 0
9, 78735, Note_on_c, 7, 73, 50
9, 78750, Note_on_c, 7, 73, 0
9, 78750, Note_on_c, 7, 74, 50
9, 78765, Note_on_c, 7, 74, 0
9, 78765, Note_on_c, 7, 73, 50
9, 78780, Note_on_c, 7, 73, 0
9, 78780, Note_on_c, 7, 74, 50
9, 78795, Note_on_c, 7, 74, 0
9, 78795, Note_on_c, 7, 73, 50
9, 78810, Note_on_c, 7, 73, 0
9, 78810, Note_on_c, 7, 74, 50
9, 78825, Note_on_c, 7, 74, 0
9, 78825, Note_on_c, 7, 73, 50
9, 78840, Note_on_c, 7, 73, 0
9, 78840, Note_on_c, 7, 74, 50
9, 78855, Note_on_c, 7, 74, 0
9, 78855, Note_on_c, 7, 73, 50
9, 78870, Note_on_c, 7, 73, 0
9, 78870, Note_on_c, 7, 74, 50
9, 78885, Note_on_c, 7, 74, 0
9, 78885, Note_on_c, 7, 73, 50
9, 78900, Note_on_c, 7, 73, 0
9, 78900, Note_on_c, 7, 73, 50
9, 78930, Note_on_c, 7, 73, 0
9, 78930, Note_on_c, 7, 74, 50
9, 78960, Note_on_c, 7, 74, 0
9, 78960, Note_on_c, 7, 76, 50
9, 79020, Note_on_c, 7, 76, 0
9, 79080, Note_on_c, 7, 73, 50
9, 79140, Note_on_c, 7, 73, 0
9, 79200, Program_c, 7, 48
9, 79200, Note_on_c, 7, 78, 50
9, 79215, Note_on_c, 7, 78, 0
9, 79215, Note_on_c, 7, 76, 50
9, 79230, Note_on_c, 7, 76, 0
9, 79230, Note_on_c, 7, 78, 50
9, 79245, Note_on_c, 7, 78, 0
9, 79245, Note_on_c, 7, 76, 50
9, 79260, Note_on_c, 7, 76, 0
9, 79260, Note_on_c, 7, 78, 50
9, 79275, Note_on_c, 7, 78, 0
9, 79275, Note_on_c, 7, 76, 50
9, 79290, Note_on_c, 7, 76, 0
9, 79290, Note_on_c, 7, 78, 50
9, 79305, Note_on_c, 7, 78, 0
9, 79305, Note_on_c, 7, 76, 50
9, 79320, Note_on_c, 7, 76, 0
9, 79320, Note_on_c, 7, 78, 50
9, 79335, Note_on_c, 7, 78, 0
9, 79335, Note_on_c, 7, 76, 50
9, 79350, Note_on_c, 7, 76, 0
9, 79350, Note_on_c, 7, 78, 50
9, 79365, Note_on_c, 7, 78, 0
9, 79365, Note_on_c, 7, 76, 50
9, 79380, Note_on_c, 7, 76, 0
9, 79380, Note_on_c, 7, 76, 50
9, 79410, Note_on_c, 7, 76, 0
9, 79410, Note_on_c, 7, 78, 50
9, 79440, Note_on_c, 7, 78, 0
9, 79440, Note_on_c, 7, 79, 50
9, 79530, Note_on_c, 7, 79, 0
9, 79680, Note_on_c, 7, 74, 50
9, 79695, Note_on_c, 7, 74, 0
9, 79695, Note_on_c, 7, 73, 50
9, 79710, Note_on_c, 7, 73, 0
9, 79710, Note_on_c, 7, 74, 50
9, 79725, Note_on_c, 7, 74, 0
9, 79725, Note_on_c, 7, 73, 50
9, 79740, Note_on_c, 7, 73, 0
9, 79740, Note_on_c, 7, 74, 50
9, 79755, Note_on_c, 7, 74, 0
9, 79755, Note_on_c, 7, 73, 50
9, 79770, Note_on_c, 7, 73, 0
9, 79770, Note_on_c, 7, 74, 50
9, 79785, Note_on_c, 7, 74, 0
9, 79785, Note_on_c, 7, 73, 50
9, 79800, Note_on_c, 7, 73, 0
9, 79800, Note_on_c, 7, 74, 50
9, 79815, Note_on_c, 7, 74, 0
9, 79815, Note_on_c, 7, 73, 50
9, 79830, Note_on_c, 7, 73, 0
9, 79830, Note_on_c, 7, 74, 50
9, 79845, Note_on_c, 7, 74, 0
9, 79845, Note_on_c, 7, 73, 50
9, 79860, Note_on_c, 7, 73, 0
9, 79860, Note_on_c, 7, 73, 50
9, 79890, Note_on_c, 7, 73, 0
9, 79890, Note_on_c, 7, 74, 50
9, 79920, Note_on_c, 7, 74, 0
9, 79920, Note_on_c, 7, 76, 50
9, 79980, Note_on_c, 7, 76, 0
9, 80040, Note_on_c, 7, 73, 50
9, 80100, Note_on_c, 7, 73, 0
9, 80160, Note_on_c, 7, 57, 100
9, 80160, Note_on_c, 7, 66, 100
9, 80190, Note_on_c, 7, 66, 0
9, 80190, Note_on_c, 7, 57, 0
9, 80190, Note_on_c, 7, 57, 100
9, 80190, Note_on_c, 7, 66, 100
9, 80220, Note_on_c, 7, 66, 0
9, 80220, Note_on_c, 7, 57, 0
9, 80220, Note_on_c, 7, 57, 100
9, 80220, Note_on_c, 7, 66, 100
9, 80250, Note_on_c, 7, 66, 0
9, 80250, Note_on_c, 7, 57, 0
9, 80250, Note_on_c, 7, 57, 100
9, 80250, Note_on_c, 7, 66, 100
9, 80280, Note_on_c, 7, 66, 0
9, 80280, Note_on_c, 7, 57, 0
9, 80280, Note_on_c, 7, 57, 101
9, 80280, Note_on_c, 7, 66, 101
9, 80310, Note_on_c, 7, 66, 0
9, 80310, Note_on_c, 7, 57, 0
9, 80310, Note_on_c, 7, 57, 101
9, 80310, Note_on_c, 7, 66, 101
9, 80340, Note_on_c, 7, 66, 0
9, 80340, Note_on_c, 7, 57, 0
9, 80340, Note_on_c, 7, 57, 101
9, 80340, Note_on_c, 7, 66, 101
9, 80370, Note_on_c, 7, 66, 0
9, 80370, Note_on_c, 7, 57, 0
9, 80370, Note_on_c, 7, 57, 101
9, 80370, Note_on_c, 7, 66, 101
9, 80400, Note_on_c, 7, 66, 0
9, 80400, Note_on_c, 7, 57, 0
9, 80400, Note_on_c, 7, 57, 102
9, 80400, Note_on_c, 7, 66, 102
9, 80430, Note_on_c, 7, 66, 0
9, 80430, Note_on_c, 7, 57, 0
9, 80430, Note_on_c, 7, 57, 102
9, 80430, Note_on_c, 7, 66, 102
9, 80460, Note_on_c, 7, 66, 0
9, 80460, Note_on_c, 7, 57, 0
9, 80460, Note_on_c, 7, 57, 102
9, 80460, Note_on_c, 7, 66, 102
9, 80490, Note_on_c, 7, 66, 0
9, 80490, Note_on_c, 7, 57, 0
9, 80490, Note_on_c, 7, 57, 102
9, 80490, Note_on_c, 7, 66, 102
9, 80520, Note_on_c, 7, 66, 0
9, 80520, Note_on_c, 7, 57, 0
9, 80520, Note_on_c, 7, 57, 103
9, 80520, Note_on_c, 7, 66, 103
9, 80550, Note_on_c, 7, 66, 0
9, 80550, Note_on_c, 7, 57, 0
9, 80550, Note_on_c, 7, 57, 103
9, 80550, Note_on_c, 7, 66, 103
9, 80580, Note_on_c, 7, 66, 0
9, 80580, Note_on_c, 7, 57, 0
9, 80580, Note_on_c, 7, 57, 103
9, 80580, Note_on_c, 7, 66, 103
9, 80610, Note_on_c, 7, 66, 0
9, 80610, Note_on_c, 7, 57, 0
9, 80610, Note_on_c, 7, 57, 103
9, 80610, Note_on_c, 7, 66, 103
9, 80640, Note_on_c, 7, 66, 0
9, 80640, Note_on_c, 7, 57, 0
9, 80640, Note_on_c, 7, 57, 104
9, 80640, Note_on_c, 7, 66, 104
9, 80670, Note_on_c, 7, 66, 0
9, 80670, Note_on_c, 7, 57, 0
9, 80670, Note_on_c, 7, 57, 104
9, 80670, Note_on_c, 7, 66, 104
9, 80700, Note_on_c, 7, 66, 0
9, 80700, Note_on_c, 7, 57, 0
9, 80700, Note_on_c, 7, 57, 104
9, 80700, Note_on_c, 7, 66, 104
9, 80730, Note_on_c, 7, 66, 0
9, 80730, Note_on_c, 7, 57, 0
9, 80730, Note_on_c, 7, 57, 104
9, 80730, Note_on_c, 7, 66, 104
9, 80760, Note_on_c, 7, 66, 0
9, 80760, Note_on_c, 7, 57, 0
9, 80760, Note_on_c, 7, 57, 105
9, 80760, Note_on_c, 7, 66, 105
9, 80790, Note_on_c, 7, 66, 0
9, 80790, Note_on_c, 7, 57, 0
9, 80790, Note_on_c, 7, 57, 105
9, 80790, Note_on_c, 7, 66, 105
9, 80820, Note_on_c, 7, 66, 0
9, 80820, Note_on_c, 7, 57, 0
9, 80820, Note_on_c, 7, 57, 105
9, 80820, Note_on_c, 7, 66, 105
9, 80850, Note_on_c, 7, 66, 0
9, 80850, Note_on_c, 7, 57, 0
9, 80850, Note_on_c, 7, 57, 105
9, 80850, Note_on_c, 7, 66, 105
9, 80880, Note_on_c, 7, 66, 0
9, 80880, Note_on_c, 7, 57, 0
9, 80880, Note_on_c, 7, 57, 106
9, 80880, Note_on_c, 7, 66, 106
9, 80910, Note_on_c, 7, 66, 0
9, 80910, Note_on_c, 7, 57, 0
9, 80910, Note_on_c, 7, 57, 106
9, 80910, Note_on_c, 7, 66, 106
9, 80940, Note_on_c, 7, 66, 0
9, 80940, Note_on_c, 7, 57, 0
9, 80940, Note_on_c, 7, 57, 106
9, 80940, Note_on_c, 7, 66, 106
9, 80970, Note_on_c, 7, 66, 0
9, 80970, Note_on_c, 7, 57, 0
9, 80970, Note_on_c, 7, 57, 107
9, 80970, Note_on_c, 7, 66, 107
9, 81000, Note_on_c, 7, 66, 0
9, 81000, Note_on_c, 7, 57, 0
9, 81000, Note_on_c, 7, 57, 107
9, 81000, Note_on_c, 7, 66, 107
9, 81030, Note_on_c, 7, 66, 0
9, 81030, Note_on_c, 7, 57, 0
9, 81030, Note_on_c, 7, 57, 107
9, 81030, Note_on_c, 7, 66, 107
9, 81060, Note_on_c, 7, 66, 0
9, 81060, Note_on_c, 7, 57, 0
9, 81060, Note_on_c, 7, 57, 107
9, 81060, Note_on_c, 7, 66, 107
9, 81090, Note_on_c, 7, 66, 0
9, 81090, Note_on_c, 7, 57, 0
9, 81090, Note_on_c, 7, 57, 108
9, 81090, Note_on_c, 7, 66, 108
9, 81120, Note_on_c, 7, 66, 0
9, 81120, Note_on_c, 7, 57, 0
9, 81120, Note_on_c, 7, 57, 108
9, 81120, Note_on_c, 7, 66, 108
9, 81150, Note_on_c, 7, 66, 0
9, 81150, Note_on_c, 7, 57, 0
9, 81150, Note_on_c, 7, 57, 108
9, 81150, Note_on_c, 7, 66, 108
9, 81180, Note_on_c, 7, 66, 0
9, 81180, Note_on_c, 7, 57, 0
9, 81180, Note_on_c, 7, 57, 108
9, 81180, Note_on_c, 7, 66, 108
9, 81210, Note_on_c, 7, 66, 0
9, 81210, Note_on_c, 7, 57, 0
9, 81210, Note_on_c, 7, 57, 109
9, 81210, Note_on_c, 7, 66, 109
9, 81240, Note_on_c, 7, 66, 0
9, 81240, Note_on_c, 7, 57, 0
9, 81240, Note_on_c, 7, 57, 109
9, 81240, Note_on_c, 7, 66, 109
9, 81270, Note_on_c, 7, 66, 0
9, 81270, Note_on_c, 7, 57, 0
9, 81270, Note_on_c, 7, 57, 109
9, 81270, Note_on_c, 7, 66, 109
9, 81300, Note_on_c, 7, 66, 0
9, 81300, Note_on_c, 7, 57, 0
9, 81300, Note_on_c, 7, 57, 109
9, 81300, Note_on_c, 7, 66, 109
9, 81330, Note_on_c, 7, 66, 0
9, 81330, Note_on_c, 7, 57, 0
9, 81330, Note_on_c, 7, 57, 110
9, 81330, Note_on_c, 7, 66, 110
9, 81360, Note_on_c, 7, 66, 0
9, 81360, Note_on_c, 7, 57, 0
9, 81360, Note_on_c, 7, 57, 110
9, 81360, Note_on_c, 7, 66, 110
9, 81390, Note_on_c, 7, 66, 0
9, 81390, Note_on_c, 7, 57, 0
9, 81390, Note_on_c, 7, 57, 110
9, 81390, Note_on_c, 7, 66, 110
9, 81420, Note_on_c, 7, 66, 0
9, 81420, Note_on_c, 7, 57, 0
9, 81420, Note_on_c, 7, 57, 110
9, 81420, Note_on_c, 7, 66, 110
9, 81450, Note_on_c, 7, 66, 0
9, 81450, Note_on_c, 7, 57, 0
9, 81450, Note_on_c, 7, 57, 111
9, 81450, Note_on_c, 7, 66, 111
9, 81480, Note_on_c, 7, 66, 0
9, 81480, Note_on_c, 7, 57, 0
9, 81480, Note_on_c, 7, 57, 111
9, 81480, Note_on_c, 7, 66, 111
9, 81510, Note_on_c, 7, 66, 0
9, 81510, Note_on_c, 7, 57, 0
9, 81510, Note_on_c, 7, 57, 111
9, 81510, Note_on_c, 7, 66, 111
9, 81540, Note_on_c, 7, 66, 0
9, 81540, Note_on_c, 7, 57, 0
9, 81540, Note_on_c, 7, 57, 111
9, 81540, Note_on_c, 7, 66, 111
9, 81570, Note_on_c, 7, 66, 0
9, 81570, Note_on_c, 7, 57, 0
9, 81570, Note_on_c, 7, 57, 112
9, 81570, Note_on_c, 7, 66, 112
9, 81600, Note_on_c, 7, 66, 0
9, 81600, Note_on_c, 7, 57, 0
9, 81600, Note_on_c, 7, 57, 112
9, 81600, Note_on_c, 7, 66, 112
9, 81630, Note_on_c, 7, 66, 0
9, 81630, Note_on_c, 7, 57, 0
9, 81630, Note_on_c, 7, 57, 112
9, 81630, Note_on_c, 7, 66, 112
9, 81660, Note_on_c, 7, 66, 0
9, 81660, Note_on_c, 7, 57, 0
9, 81660, Note_on_c, 7, 57, 112
9, 81660, Note_on_c, 7, 66, 112
9, 81690, Note_on_c, 7, 66, 0
9, 81690, Note_on_c, 7, 57, 0
9, 81690, Note_on_c, 7, 57, 113
9, 81690, Note_on_c, 7, 66, 113
9, 81720, Note_on_c, 7, 66, 0
9, 81720, Note_on_c, 7, 57, 0
9, 81720, Note_on_c, 7, 57, 113
9, 81720, Note_on_c, 7, 66, 113
9, 81750, Note_on_c, 7, 66, 0
9, 81750, Note_on_c, 7, 57, 0
9, 81750, Note_on_c, 7, 57, 113
9, 81750, Note_on_c, 7, 66, 113
9, 81780, Note_on_c, 7, 66, 0
9, 81780, Note_on_c, 7, 57, 0
9, 81780, Note_on_c, 7, 57, 114
9, 81780, Note_on_c, 7, 66, 114
9, 81810, Note_on_c, 7, 66, 0
9, 81810, Note_on_c, 7, 57, 0
9, 81810, Note_on_c, 7, 57, 114
9, 81810, Note_on_c, 7, 66, 114
9, 81840, Note_on_c, 7, 66, 0
9, 81840, Note_on_c, 7, 57, 0
9, 81840, Note_on_c, 7, 57, 114
9, 81840, Note_on_c, 7, 66, 114
9, 81870, Note_on_c, 7, 66, 0
9, 81870, Note_on_c, 7, 57, 0
9, 81870, Note_on_c, 7, 57, 114
9, 81870, Note_on_c, 7, 66, 114
9, 81900, Note_on_c, 7, 66, 0
9, 81900, Note_on_c, 7, 57, 0
9, 81900, Note_on_c, 7, 57, 115
9, 81900, Note_on_c, 7, 66, 115
9, 81930, Note_on_c, 7, 66, 0
9, 81930, Note_on_c, 7, 57, 0
9, 81930, Note_on_c, 7, 57, 115
9, 81930, Note_on_c, 7, 66, 115
9, 81960, Note_on_c, 7, 66, 0
9, 81960, Note_on_c, 7, 57, 0
9, 81960, Note_on_c, 7, 57, 115
9, 81960, Note_on_c, 7, 66, 115
9, 81990, Note_on_c, 7, 66, 0
9, 81990, Note_on_c, 7, 57, 0
9, 81990, Note_on_c, 7, 57, 115
9, 81990, Note_on_c, 7, 66, 115
9, 82020, Note_on_c, 7, 66, 0
9, 82020, Note_on_c, 7, 57, 0
9, 82020, Note_on_c, 7, 57, 116
9, 82020, Note_on_c, 7, 66, 116
9, 82050, Note_on_c, 7, 66, 0
9, 82050, Note_on_c, 7, 57, 0
9, 82050, Note_on_c, 7, 57, 116
9, 82050, Note_on_c, 7, 66, 116
9, 82080, Note_on_c, 7, 66, 0
9, 82080, Note_on_c, 7, 57, 0
9, 82080, Note_on_c, 7, 57, 116
9, 82080, Note_on_c, 7, 66, 116
9, 82200, Note_on_c, 7, 66, 0
9, 82200, Note_on_c, 7, 57, 0
9, 82260, Note_on_c, 7, 74, 118
9, 82320, Note_on_c, 7, 74, 0
9, 82320, Note_on_c, 7, 81, 118
9, 82380, Note_on_c, 7, 81, 0
9, 82380, Note_on_c, 7, 78, 119
9, 82440, Note_on_c, 7, 78, 0
9, 82440, Note_on_c, 7, 74, 119
9, 82500, Note_on_c, 7, 74, 0
9, 82500, Note_on_c, 7, 69, 120
9, 82560, Note_on_c, 7, 69, 0
9, 82560, Note_on_c, 7, 78, 120
9, 82620, Note_on_c, 7, 78, 0
9, 82620, Note_on_c, 7, 74, 121
9, 82680, Note_on_c, 7, 74, 0
9, 82680, Note_on_c, 7, 69, 121
9, 82740, Note_on_c, 7, 69, 0
9, 82740, Note_on_c, 7, 66, 122
9, 82800, Note_on_c, 7, 66, 0
9, 82800, Note_on_c, 7, 74, 122
9, 82860, Note_on_c, 7, 74, 0
9, 82860, Note_on_c, 7, 69, 123
9, 82920, Note_on_c, 7, 69, 0
9, 82920, Note_on_c, 7, 66, 123
9, 82980, Note_on_c, 7, 66, 0
9, 82980, Note_on_c, 7, 62, 124
9, 83040, Note_on_c, 7, 62, 0
9, 83040, Note_on_c, 7, 69, 127
9, 83100, Note_on_c, 7, 69, 0
9, 83100, Note_on_c, 7, 66, 127
9, 83160, Note_on_c, 7, 66, 0
9, 83160, Note_on_c, 7, 62, 127
9, 83220, Note_on_c, 7, 62, 0
9, 83220, Note_on_c, 7, 57, 127
9, 83280, Note_on_c, 7, 57, 0
9, 83280, Note_on_c, 7, 62, 127
9, 83340, Note_on_c, 7, 62, 0
9, 83340, Note_on_c, 7, 57, 127
9, 83400, Note_on_c, 7, 57, 0
9, 83400, Note_on_c, 7, 62, 127
9, 83460, Note_on_c, 7, 62, 0
9, 83460, Note_on_c, 7, 57, 127
9, 83520, Note_on_c, 7, 57, 0
9, 83520, Note_on_c, 7, 62, 127
9, 83610, Note_on_c, 7, 62, 0
9, 83640, Note_on_c, 7, 78, 127
9, 83640, Note_on_c, 7, 69, 127
9, 83640, Note_on_c, 7, 62, 127
9, 83730, Note_on_c, 7, 62, 0
9, 83730, Note_on_c, 7, 69, 0
9, 83730, Note_on_c, 7, 78, 0
9, 83760, Note_on_c, 7, 78, 127
9, 83760, Note_on_c, 7, 69, 127
9, 83760, Note_on_c, 7, 62, 127
9, 83850, Note_on_c, 7, 62, 0
9, 83850, Note_on_c, 7, 69, 0
9, 83850, Note_on_c, 7, 78, 0
9, 83850, End_track
10, 0, Start_track
10, 0, MIDI_port, 0
10, 0, Title_t, "Viole"
10, 0, Program_c, 8, 48
10, 0, Control_c, 8, 7, 115
10, 0, Control_c, 8, 10, 86
10, 0, Note_on_c, 8, 62, 50
10, 120, Note_on_c, 8, 62, 0
10, 300, Note_on_c, 8, 62, 50
10, 330, Note_on_c, 8, 62, 0
10, 360, Note_on_c, 8, 66, 50
10, 390, Note_on_c, 8, 66, 0
10, 420, Note_on_c, 8, 62, 50
10, 450, Note_on_c, 8, 62, 0
10, 480, Note_on_c, 8, 71, 50
10, 600, Note_on_c, 8, 71, 0
10, 600, Note_on_c, 8, 69, 50
10, 720, Note_on_c, 8, 69, 0
10, 720, Note_on_c, 8, 67, 50
10, 840, Note_on_c, 8, 67, 0
10, 840, Note_on_c, 8, 66, 50
10, 960, Note_on_c, 8, 66, 0
10, 960, Note_on_c, 8, 64, 50
10, 1020, Note_on_c, 8, 64, 0
10, 1080, Note_on_c, 8, 66, 50
10, 1140, Note_on_c, 8, 66, 0
10, 1200, Note_on_c, 8, 64, 50
10, 1260, Note_on_c, 8, 64, 0
10, 1320, Note_on_c, 8, 66, 50
10, 1380, Note_on_c, 8, 66, 0
10, 1440, Note_on_c, 8, 64, 50
10, 1500, Note_on_c, 8, 64, 0
10, 1560, Note_on_c, 8, 66, 50
10, 1620, Note_on_c, 8, 66, 0
10, 1680, Note_on_c, 8, 64, 50
10, 1740, Note_on_c, 8, 64, 0
10, 1920, Note_on_c, 8, 64, 50
10, 2040, Note_on_c, 8, 64, 0
10, 2220, Note_on_c, 8, 64, 50
10, 2250, Note_on_c, 8, 64, 0
10, 2280, Note_on_c, 8, 67, 50
10, 2310, Note_on_c, 8, 67, 0
10, 2340, Note_on_c, 8, 64, 50
10, 2370, Note_on_c, 8, 64, 0
10, 2400, Note_on_c, 8, 69, 50
10, 2520, Note_on_c, 8, 69, 0
10, 2520, Note_on_c, 8, 67, 50
10, 2640, Note_on_c, 8, 67, 0
10, 2640, Note_on_c, 8, 66, 50
10, 2760, Note_on_c, 8, 66, 0
10, 2760, Note_on_c, 8, 64, 50
10, 2880, Note_on_c, 8, 64, 0
10, 2880, Note_on_c, 8, 62, 50
10, 2940, Note_on_c, 8, 62, 0
10, 3000, Note_on_c, 8, 64, 50
10, 3060, Note_on_c, 8, 64, 0
10, 3120, Note_on_c, 8, 62, 50
10, 3180, Note_on_c, 8, 62, 0
10, 3240, Note_on_c, 8, 64, 50
10, 3300, Note_on_c, 8, 64, 0
10, 3360, Note_on_c, 8, 62, 50
10, 3420, Note_on_c, 8, 62, 0
10, 3480, Note_on_c, 8, 64, 50
10, 3540, Note_on_c, 8, 64, 0
10, 3600, Note_on_c, 8, 62, 50
10, 3660, Note_on_c, 8, 62, 0
10, 3840, Note_on_c, 8, 62, 100
10, 3960, Note_on_c, 8, 62, 0
10, 4140, Note_on_c, 8, 62, 100
10, 4170, Note_on_c, 8, 62, 0
10, 4200, Note_on_c, 8, 74, 100
10, 4230, Note_on_c, 8, 74, 0
10, 4260, Note_on_c, 8, 62, 100
10, 4290, Note_on_c, 8, 62, 0
10, 4320, Note_on_c, 8, 74, 100
10, 4620, Note_on_c, 8, 74, 0
10, 4620, Note_on_c, 8, 62, 100
10, 4650, Note_on_c, 8, 62, 0
10, 4680, Note_on_c, 8, 74, 100
10, 4710, Note_on_c, 8, 74, 0
10, 4740, Note_on_c, 8, 62, 100
10, 4770, Note_on_c, 8, 62, 0
10, 4800, Note_on_c, 8, 74, 100
10, 5100, Note_on_c, 8, 74, 0
10, 5100, Note_on_c, 8, 62, 100
10, 5130, Note_on_c, 8, 62, 0
10, 5160, Note_on_c, 8, 74, 100
10, 5190, Note_on_c, 8, 74, 0
10, 5220, Note_on_c, 8, 62, 100
10, 5250, Note_on_c, 8, 62, 0
10, 5280, Note_on_c, 8, 74, 100
10, 5580, Note_on_c, 8, 74, 0
10, 5580, Note_on_c, 8, 62, 100
10, 5610, Note_on_c, 8, 62, 0
10, 5640, Note_on_c, 8, 74, 100
10, 5670, Note_on_c, 8, 74, 0
10, 5700, Note_on_c, 8, 62, 100
10, 5730, Note_on_c, 8, 62, 0
10, 5760, Note_on_c, 8, 74, 100
10, 5880, Note_on_c, 8, 74, 0
10, 5880, Note_on_c, 8, 69, 100
10, 6000, Note_on_c, 8, 69, 0
10, 6000, Note_on_c, 8, 66, 100
10, 6120, Note_on_c, 8, 66, 0
10, 6120, Note_on_c, 8, 62, 100
10, 6240, Note_on_c, 8, 62, 0
10, 6240, Note_on_c, 8, 69, 100
10, 6285, Note_on_c, 8, 69, 0
10, 6300, Note_on_c, 8, 69, 100
10, 6345, Note_on_c, 8, 69, 0
10, 6360, Note_on_c, 8, 69, 100
10, 6405, Note_on_c, 8, 69, 0
10, 6420, Note_on_c, 8, 69, 100
10, 6465, Note_on_c, 8, 69, 0
10, 6480, Note_on_c, 8, 69, 100
10, 6525, Note_on_c, 8, 69, 0
10, 6540, Note_on_c, 8, 69, 100
10, 6585, Note_on_c, 8, 69, 0
10, 6600, Note_on_c, 8, 69, 100
10, 6645, Note_on_c, 8, 69, 0
10, 6660, Note_on_c, 8, 69, 100
10, 6705, Note_on_c, 8, 69, 0
10, 6720, Note_on_c, 8, 69, 100
10, 6765, Note_on_c, 8, 69, 0
10, 6780, Note_on_c, 8, 57, 100
10, 6825, Note_on_c, 8, 57, 0
10, 6840, Note_on_c, 8, 57, 100
10, 6885, Note_on_c, 8, 57, 0
10, 6900, Note_on_c, 8, 57, 100
10, 6945, Note_on_c, 8, 57, 0
10, 6960, Note_on_c, 8, 57, 100
10, 7080, Note_on_c, 8, 57, 0
10, 11040, Note_on_c, 8, 65, 100
10, 11070, Note_on_c, 8, 65, 0
10, 11070, Note_on_c, 8, 65, 100
10, 11100, Note_on_c, 8, 65, 0
10, 11100, Note_on_c, 8, 65, 100
10, 11130, Note_on_c, 8, 65, 0
10, 11130, Note_on_c, 8, 65, 100
10, 11160, Note_on_c, 8, 65, 0
10, 11160, Note_on_c, 8, 65, 100
10, 11190, Note_on_c, 8, 65, 0
10, 11190, Note_on_c, 8, 65, 100
10, 11220, Note_on_c, 8, 65, 0
10, 11220, Note_on_c, 8, 65, 100
10, 11250, Note_on_c, 8, 65, 0
10, 11250, Note_on_c, 8, 65, 100
10, 11280, Note_on_c, 8, 65, 0
10, 11280, Note_on_c, 8, 65, 100
10, 11310, Note_on_c, 8, 65, 0
10, 11310, Note_on_c, 8, 65, 100
10, 11340, Note_on_c, 8, 65, 0
10, 11340, Note_on_c, 8, 65, 100
10, 11370, Note_on_c, 8, 65, 0
10, 11370, Note_on_c, 8, 65, 100
10, 11400, Note_on_c, 8, 65, 0
10, 11400, Note_on_c, 8, 65, 100
10, 11430, Note_on_c, 8, 65, 0
10, 11430, Note_on_c, 8, 65, 100
10, 11460, Note_on_c, 8, 65, 0
10, 11460, Note_on_c, 8, 65, 100
10, 11490, Note_on_c, 8, 65, 0
10, 11490, Note_on_c, 8, 65, 100
10, 11520, Note_on_c, 8, 65, 0
10, 11520, Note_on_c, 8, 64, 100
10, 11550, Note_on_c, 8, 64, 0
10, 11550, Note_on_c, 8, 64, 100
10, 11580, Note_on_c, 8, 64, 0
10, 11580, Note_on_c, 8, 64, 100
10, 11610, Note_on_c, 8, 64, 0
10, 11610, Note_on_c, 8, 64, 100
10, 11640, Note_on_c, 8, 64, 0
10, 11640, Note_on_c, 8, 64, 100
10, 11670, Note_on_c, 8, 64, 0
10, 11670, Note_on_c, 8, 64, 100
10, 11700, Note_on_c, 8, 64, 0
10, 11700, Note_on_c, 8, 64, 100
10, 11730, Note_on_c, 8, 64, 0
10, 11730, Note_on_c, 8, 64, 100
10, 11760, Note_on_c, 8, 64, 0
10, 11760, Note_on_c, 8, 64, 100
10, 11790, Note_on_c, 8, 64, 0
10, 11790, Note_on_c, 8, 64, 100
10, 11820, Note_on_c, 8, 64, 0
10, 11820, Note_on_c, 8, 64, 100
10, 11850, Note_on_c, 8, 64, 0
10, 11850, Note_on_c, 8, 64, 100
10, 11880, Note_on_c, 8, 64, 0
10, 11880, Note_on_c, 8, 64, 100
10, 11910, Note_on_c, 8, 64, 0
10, 11910, Note_on_c, 8, 64, 100
10, 11940, Note_on_c, 8, 64, 0
10, 11940, Note_on_c, 8, 64, 100
10, 11970, Note_on_c, 8, 64, 0
10, 11970, Note_on_c, 8, 64, 100
10, 12000, Note_on_c, 8, 64, 0
10, 12000, Note_on_c, 8, 65, 100
10, 12030, Note_on_c, 8, 65, 0
10, 12030, Note_on_c, 8, 65, 100
10, 12060, Note_on_c, 8, 65, 0
10, 12060, Note_on_c, 8, 65, 100
10, 12090, Note_on_c, 8, 65, 0
10, 12090, Note_on_c, 8, 65, 100
10, 12120, Note_on_c, 8, 65, 0
10, 12120, Note_on_c, 8, 65, 100
10, 12150, Note_on_c, 8, 65, 0
10, 12150, Note_on_c, 8, 65, 100
10, 12180, Note_on_c, 8, 65, 0
10, 12180, Note_on_c, 8, 65, 100
10, 12210, Note_on_c, 8, 65, 0
10, 12210, Note_on_c, 8, 65, 100
10, 12240, Note_on_c, 8, 65, 0
10, 12240, Note_on_c, 8, 65, 100
10, 12270, Note_on_c, 8, 65, 0
10, 12270, Note_on_c, 8, 65, 100
10, 12300, Note_on_c, 8, 65, 0
10, 12300, Note_on_c, 8, 65, 100
10, 12330, Note_on_c, 8, 65, 0
10, 12330, Note_on_c, 8, 65, 100
10, 12360, Note_on_c, 8, 65, 0
10, 12360, Note_on_c, 8, 65, 100
10, 12390, Note_on_c, 8, 65, 0
10, 12390, Note_on_c, 8, 65, 100
10, 12420, Note_on_c, 8, 65, 0
10, 12420, Note_on_c, 8, 65, 100
10, 12450, Note_on_c, 8, 65, 0
10, 12450, Note_on_c, 8, 65, 100
10, 12480, Note_on_c, 8, 65, 0
10, 12480, Note_on_c, 8, 66, 100
10, 12510, Note_on_c, 8, 66, 0
10, 12510, Note_on_c, 8, 66, 100
10, 12540, Note_on_c, 8, 66, 0
10, 12540, Note_on_c, 8, 66, 100
10, 12570, Note_on_c, 8, 66, 0
10, 12570, Note_on_c, 8, 66, 100
10, 12600, Note_on_c, 8, 66, 0
10, 12600, Note_on_c, 8, 66, 100
10, 12630, Note_on_c, 8, 66, 0
10, 12630, Note_on_c, 8, 66, 100
10, 12660, Note_on_c, 8, 66, 0
10, 12660, Note_on_c, 8, 66, 100
10, 12690, Note_on_c, 8, 66, 0
10, 12690, Note_on_c, 8, 66, 100
10, 12720, Note_on_c, 8, 66, 0
10, 12720, Note_on_c, 8, 66, 100
10, 12750, Note_on_c, 8, 66, 0
10, 12750, Note_on_c, 8, 66, 100
10, 12780, Note_on_c, 8, 66, 0
10, 12780, Note_on_c, 8, 66, 100
10, 12810, Note_on_c, 8, 66, 0
10, 12810, Note_on_c, 8, 66, 100
10, 12840, Note_on_c, 8, 66, 0
10, 12840, Note_on_c, 8, 66, 100
10, 12870, Note_on_c, 8, 66, 0
10, 12870, Note_on_c, 8, 66, 100
10, 12900, Note_on_c, 8, 66, 0
10, 12900, Note_on_c, 8, 66, 100
10, 12930, Note_on_c, 8, 66, 0
10, 12930, Note_on_c, 8, 66, 100
10, 12960, Note_on_c, 8, 66, 0
10, 12960, Note_on_c, 8, 64, 100
10, 12990, Note_on_c, 8, 64, 0
10, 12990, Note_on_c, 8, 64, 100
10, 13020, Note_on_c, 8, 64, 0
10, 13020, Note_on_c, 8, 64, 100
10, 13050, Note_on_c, 8, 64, 0
10, 13050, Note_on_c, 8, 64, 100
10, 13080, Note_on_c, 8, 64, 0
10, 13080, Note_on_c, 8, 71, 100
10, 13110, Note_on_c, 8, 71, 0
10, 13110, Note_on_c, 8, 71, 100
10, 13140, Note_on_c, 8, 71, 0
10, 13140, Note_on_c, 8, 71, 100
10, 13170, Note_on_c, 8, 71, 0
10, 13170, Note_on_c, 8, 71, 100
10, 13200, Note_on_c, 8, 71, 0
10, 13200, Note_on_c, 8, 69, 100
10, 13230, Note_on_c, 8, 69, 0
10, 13230, Note_on_c, 8, 69, 100
10, 13260, Note_on_c, 8, 69, 0
10, 13260, Note_on_c, 8, 69, 100
10, 13290, Note_on_c, 8, 69, 0
10, 13290, Note_on_c, 8, 69, 100
10, 13320, Note_on_c, 8, 69, 0
10, 13320, Note_on_c, 8, 66, 100
10, 13350, Note_on_c, 8, 66, 0
10, 13350, Note_on_c, 8, 66, 100
10, 13380, Note_on_c, 8, 66, 0
10, 13380, Note_on_c, 8, 66, 100
10, 13410, Note_on_c, 8, 66, 0
10, 13410, Note_on_c, 8, 66, 100
10, 13440, Note_on_c, 8, 66, 0
10, 13440, Note_on_c, 8, 64, 100
10, 13470, Note_on_c, 8, 64, 0
10, 13470, Note_on_c, 8, 64, 100
10, 13500, Note_on_c, 8, 64, 0
10, 13500, Note_on_c, 8, 64, 100
10, 13530, Note_on_c, 8, 64, 0
10, 13530, Note_on_c, 8, 64, 100
10, 13560, Note_on_c, 8, 64, 0
10, 13560, Note_on_c, 8, 71, 100
10, 13590, Note_on_c, 8, 71, 0
10, 13590, Note_on_c, 8, 71, 100
10, 13620, Note_on_c, 8, 71, 0
10, 13620, Note_on_c, 8, 71, 100
10, 13650, Note_on_c, 8, 71, 0
10, 13650, Note_on_c, 8, 71, 100
10, 13680, Note_on_c, 8, 71, 0
10, 13680, Note_on_c, 8, 69, 100
10, 13710, Note_on_c, 8, 69, 0
10, 13710, Note_on_c, 8, 69, 100
10, 13740, Note_on_c, 8, 69, 0
10, 13740, Note_on_c, 8, 69, 100
10, 13770, Note_on_c, 8, 69, 0
10, 13770, Note_on_c, 8, 69, 100
10, 13800, Note_on_c, 8, 69, 0
10, 13800, Note_on_c, 8, 66, 100
10, 13830, Note_on_c, 8, 66, 0
10, 13830, Note_on_c, 8, 66, 100
10, 13860, Note_on_c, 8, 66, 0
10, 13860, Note_on_c, 8, 66, 100
10, 13890, Note_on_c, 8, 66, 0
10, 13890, Note_on_c, 8, 66, 100
10, 13920, Note_on_c, 8, 66, 0
10, 13920, Note_on_c, 8, 64, 100
10, 13980, Note_on_c, 8, 64, 0
10, 14040, Note_on_c, 8, 76, 100
10, 14070, Note_on_c, 8, 76, 0
10, 14100, Note_on_c, 8, 74, 100
10, 14130, Note_on_c, 8, 74, 0
10, 14160, Note_on_c, 8, 72, 100
10, 14220, Note_on_c, 8, 72, 0
10, 14220, Note_on_c, 8, 76, 100
10, 14280, Note_on_c, 8, 76, 0
10, 14280, Note_on_c, 8, 72, 100
10, 14340, Note_on_c, 8, 72, 0
10, 14340, Note_on_c, 8, 69, 100
10, 14400, Note_on_c, 8, 69, 0
10, 14400, Note_on_c, 8, 68, 100
10, 14460, Note_on_c, 8, 68, 0
10, 14460, Note_on_c, 8, 71, 100
10, 14520, Note_on_c, 8, 71, 0
10, 14520, Note_on_c, 8, 64, 100
10, 14580, Note_on_c, 8, 64, 0
10, 14580, Note_on_c, 8, 62, 100
10, 14640, Note_on_c, 8, 62, 0
10, 14640, Note_on_c, 8, 60, 100
10, 14700, Note_on_c, 8, 60, 0
10, 14700, Note_on_c, 8, 64, 100
10, 14760, Note_on_c, 8, 64, 0
10, 14760, Note_on_c, 8, 60, 100
10, 14820, Note_on_c, 8, 60, 0
10, 14820, Note_on_c, 8, 57, 100
10, 14880, Note_on_c, 8, 57, 0
10, 14880, Note_on_c, 8, 64, 100
10, 15000, Note_on_c, 8, 64, 0
10, 15840, Note_on_c, 8, 69, 40
10, 15960, Note_on_c, 8, 69, 0
10, 16080, Note_on_c, 8, 64, 40
10, 16200, Note_on_c, 8, 64, 0
10, 16320, Note_on_c, 8, 57, 40
10, 16440, Note_on_c, 8, 57, 0
10, 16800, Note_on_c, 8, 69, 40
10, 16920, Note_on_c, 8, 69, 0
10, 17040, Note_on_c, 8, 64, 40
10, 17160, Note_on_c, 8, 64, 0
10, 17280, Note_on_c, 8, 57, 40
10, 17400, Note_on_c, 8, 57, 0
10, 18840, Note_on_c, 8, 62, 50
10, 18930, Note_on_c, 8, 62, 0
10, 18930, Note_on_c, 8, 64, 50
10, 18960, Note_on_c, 8, 64, 0
10, 18960, Note_on_c, 8, 66, 50
10, 19020, Note_on_c, 8, 66, 0
10, 19080, Note_on_c, 8, 66, 50
10, 19140, Note_on_c, 8, 66, 0
10, 19200, Note_on_c, 8, 59, 50
10, 19320, Note_on_c, 8, 59, 0
10, 19680, Note_on_c, 8, 69, 40
10, 19800, Note_on_c, 8, 69, 0
10, 19920, Note_on_c, 8, 64, 40
10, 20040, Note_on_c, 8, 64, 0
10, 20160, Note_on_c, 8, 57, 40
10, 20280, Note_on_c, 8, 57, 0
10, 20640, Note_on_c, 8, 69, 40
10, 20760, Note_on_c, 8, 69, 0
10, 20880, Note_on_c, 8, 64, 40
10, 21000, Note_on_c, 8, 64, 0
10, 21120, Note_on_c, 8, 57, 40
10, 21240, Note_on_c, 8, 57, 0
10, 22800, Note_on_c, 8, 68, 50
10, 22860, Note_on_c, 8, 68, 0
10, 22920, Note_on_c, 8, 69, 50
10, 22980, Note_on_c, 8, 69, 0
10, 23040, Note_on_c, 8, 66, 50
10, 23100, Note_on_c, 8, 66, 0
10, 23160, Note_on_c, 8, 62, 50
10, 23220, Note_on_c, 8, 62, 0
10, 23280, Note_on_c, 8, 61, 50
10, 23400, Note_on_c, 8, 61, 0
10, 25500, Note_on_c, 8, 57, 50
10, 25530, Note_on_c, 8, 57, 0
10, 25560, Note_on_c, 8, 61, 50
10, 25590, Note_on_c, 8, 61, 0
10, 25620, Note_on_c, 8, 57, 50
10, 25650, Note_on_c, 8, 57, 0
10, 25680, Note_on_c, 8, 65, 50
10, 25800, Note_on_c, 8, 65, 0
10, 25800, Note_on_c, 8, 64, 50
10, 25920, Note_on_c, 8, 64, 0
10, 25920, Note_on_c, 8, 65, 50
10, 26040, Note_on_c, 8, 65, 0
10, 26040, Note_on_c, 8, 61, 50
10, 26160, Note_on_c, 8, 61, 0
10, 26160, Note_on_c, 8, 62, 100
10, 26280, Note_on_c, 8, 62, 0
10, 26460, Note_on_c, 8, 64, 100
10, 26490, Note_on_c, 8, 64, 0
10, 26520, Note_on_c, 8, 57, 100
10, 26550, Note_on_c, 8, 57, 0
10, 26580, Note_on_c, 8, 67, 100
10, 26610, Note_on_c, 8, 67, 0
10, 26640, Note_on_c, 8, 65, 100
10, 26880, Note_on_c, 8, 65, 0
10, 26940, Note_on_c, 8, 64, 100
10, 26970, Note_on_c, 8, 64, 0
10, 27000, Note_on_c, 8, 57, 100
10, 27030, Note_on_c, 8, 57, 0
10, 27060, Note_on_c, 8, 67, 100
10, 27090, Note_on_c, 8, 67, 0
10, 27120, Note_on_c, 8, 65, 100
10, 27360, Note_on_c, 8, 65, 0
10, 27420, Note_on_c, 8, 64, 100
10, 27450, Note_on_c, 8, 64, 0
10, 27480, Note_on_c, 8, 57, 100
10, 27510, Note_on_c, 8, 57, 0
10, 27540, Note_on_c, 8, 67, 100
10, 27570, Note_on_c, 8, 67, 0
10, 27600, Note_on_c, 8, 66, 100
10, 27660, Note_on_c, 8, 66, 0
10, 27660, Note_on_c, 8, 66, 100
10, 27720, Note_on_c, 8, 66, 0
10, 27720, Note_on_c, 8, 66, 100
10, 27780, Note_on_c, 8, 66, 0
10, 27780, Note_on_c, 8, 66, 100
10, 27840, Note_on_c, 8, 66, 0
10, 27840, Note_on_c, 8, 65, 100
10, 27900, Note_on_c, 8, 65, 0
10, 27900, Note_on_c, 8, 65, 100
10, 27960, Note_on_c, 8, 65, 0
10, 27960, Note_on_c, 8, 65, 100
10, 28020, Note_on_c, 8, 65, 0
10, 28020, Note_on_c, 8, 65, 100
10, 28080, Note_on_c, 8, 65, 0
10, 28080, Note_on_c, 8, 64, 100
10, 28140, Note_on_c, 8, 64, 0
10, 28140, Note_on_c, 8, 64, 100
10, 28200, Note_on_c, 8, 64, 0
10, 28200, Note_on_c, 8, 66, 100
10, 28260, Note_on_c, 8, 66, 0
10, 28260, Note_on_c, 8, 66, 100
10, 28320, Note_on_c, 8, 66, 0
10, 28320, Note_on_c, 8, 62, 100
10, 28380, Note_on_c, 8, 62, 0
10, 28380, Note_on_c, 8, 62, 100
10, 28440, Note_on_c, 8, 62, 0
10, 28440, Note_on_c, 8, 64, 100
10, 28500, Note_on_c, 8, 64, 0
10, 28500, Note_on_c, 8, 64, 100
10, 28560, Note_on_c, 8, 64, 0
10, 28560, Note_on_c, 8, 57, 100
10, 28680, Note_on_c, 8, 57, 0
10, 28800, Program_c, 8, 45
10, 28800, Note_on_c, 8, 62, 50
10, 28800, Note_on_c, 8, 64, 50
10, 28860, Note_on_c, 8, 64, 0
10, 28860, Note_on_c, 8, 62, 0
10, 28920, Note_on_c, 8, 62, 50
10, 28920, Note_on_c, 8, 64, 50
10, 28980, Note_on_c, 8, 64, 0
10, 28980, Note_on_c, 8, 62, 0
10, 29040, Note_on_c, 8, 64, 50
10, 29040, Note_on_c, 8, 61, 50
10, 29100, Note_on_c, 8, 61, 0
10, 29100, Note_on_c, 8, 64, 0
10, 29280, Note_on_c, 8, 62, 50
10, 29280, Note_on_c, 8, 64, 50
10, 29340, Note_on_c, 8, 64, 0
10, 29340, Note_on_c, 8, 62, 0
10, 29400, Note_on_c, 8, 64, 50
10, 29400, Note_on_c, 8, 62, 50
10, 29460, Note_on_c, 8, 62, 0
10, 29460, Note_on_c, 8, 64, 0
10, 29520, Note_on_c, 8, 61, 50
10, 29520, Note_on_c, 8, 64, 50
10, 29580, Note_on_c, 8, 64, 0
10, 29580, Note_on_c, 8, 61, 0
10, 29760, Note_on_c, 8, 64, 50
10, 29760, Note_on_c, 8, 62, 50
10, 29820, Note_on_c, 8, 62, 0
10, 29820, Note_on_c, 8, 64, 0
10, 29880, Note_on_c, 8, 62, 50
10, 29880, Note_on_c, 8, 64, 50
10, 29940, Note_on_c, 8, 64, 0
10, 29940, Note_on_c, 8, 62, 0
10, 30000, Note_on_c, 8, 61, 50
10, 30000, Note_on_c, 8, 64, 50
10, 30060, Note_on_c, 8, 64, 0
10, 30060, Note_on_c, 8, 61, 0
10, 30960, Program_c, 8, 48
10, 30960, Note_on_c, 8, 69, 50
10, 31080, Note_on_c, 8, 69, 0
10, 31200, Note_on_c, 8, 62, 50
10, 31320, Note_on_c, 8, 62, 0
10, 31440, Note_on_c, 8, 64, 50
10, 31560, Note_on_c, 8, 64, 0
10, 31680, Note_on_c, 8, 64, 50
10, 31800, Note_on_c, 8, 64, 0
10, 31920, Note_on_c, 8, 69, 50
10, 32040, Note_on_c, 8, 69, 0
10, 32160, Note_on_c, 8, 62, 50
10, 32280, Note_on_c, 8, 62, 0
10, 32400, Note_on_c, 8, 64, 50
10, 32520, Note_on_c, 8, 64, 0
10, 32640, Note_on_c, 8, 64, 50
10, 32760, Note_on_c, 8, 64, 0
10, 32880, Note_on_c, 8, 57, 100
10, 32910, Note_on_c, 8, 57, 0
10, 32910, Note_on_c, 8, 57, 100
10, 32940, Note_on_c, 8, 57, 0
10, 32940, Note_on_c, 8, 57, 100
10, 32970, Note_on_c, 8, 57, 0
10, 32970, Note_on_c, 8, 57, 100
10, 33000, Note_on_c, 8, 57, 0
10, 33000, Note_on_c, 8, 57, 101
10, 33030, Note_on_c, 8, 57, 0
10, 33030, Note_on_c, 8, 57, 101
10, 33060, Note_on_c, 8, 57, 0
10, 33060, Note_on_c, 8, 57, 101
10, 33090, Note_on_c, 8, 57, 0
10, 33090, Note_on_c, 8, 57, 101
10, 33120, Note_on_c, 8, 57, 0
10, 33120, Note_on_c, 8, 57, 102
10, 33150, Note_on_c, 8, 57, 0
10, 33150, Note_on_c, 8, 57, 102
10, 33180, Note_on_c, 8, 57, 0
10, 33180, Note_on_c, 8, 57, 102
10, 33210, Note_on_c, 8, 57, 0
10, 33210, Note_on_c, 8, 57, 103
10, 33240, Note_on_c, 8, 57, 0
10, 33240, Note_on_c, 8, 57, 103
10, 33270, Note_on_c, 8, 57, 0
10, 33270, Note_on_c, 8, 57, 103
10, 33300, Note_on_c, 8, 57, 0
10, 33300, Note_on_c, 8, 57, 103
10, 33330, Note_on_c, 8, 57, 0
10, 33330, Note_on_c, 8, 57, 104
10, 33360, Note_on_c, 8, 57, 0
10, 33360, Note_on_c, 8, 57, 104
10, 33390, Note_on_c, 8, 57, 0
10, 33390, Note_on_c, 8, 57, 104
10, 33420, Note_on_c, 8, 57, 0
10, 33420, Note_on_c, 8, 57, 105
10, 33450, Note_on_c, 8, 57, 0
10, 33450, Note_on_c, 8, 57, 105
10, 33480, Note_on_c, 8, 57, 0
10, 33480, Note_on_c, 8, 57, 105
10, 33510, Note_on_c, 8, 57, 0
10, 33510, Note_on_c, 8, 57, 105
10, 33540, Note_on_c, 8, 57, 0
10, 33540, Note_on_c, 8, 57, 106
10, 33570, Note_on_c, 8, 57, 0
10, 33570, Note_on_c, 8, 57, 106
10, 33600, Note_on_c, 8, 57, 0
10, 33600, Note_on_c, 8, 57, 106
10, 33630, Note_on_c, 8, 57, 0
10, 33630, Note_on_c, 8, 57, 107
10, 33660, Note_on_c, 8, 57, 0
10, 33660, Note_on_c, 8, 57, 107
10, 33690, Note_on_c, 8, 57, 0
10, 33690, Note_on_c, 8, 57, 107
10, 33720, Note_on_c, 8, 57, 0
10, 33720, Note_on_c, 8, 57, 107
10, 33750, Note_on_c, 8, 57, 0
10, 33750, Note_on_c, 8, 57, 108
10, 33780, Note_on_c, 8, 57, 0
10, 33780, Note_on_c, 8, 57, 108
10, 33810, Note_on_c, 8, 57, 0
10, 33810, Note_on_c, 8, 57, 108
10, 33840, Note_on_c, 8, 57, 0
10, 33840, Note_on_c, 8, 57, 109
10, 33870, Note_on_c, 8, 57, 0
10, 33870, Note_on_c, 8, 57, 109
10, 33900, Note_on_c, 8, 57, 0
10, 33900, Note_on_c, 8, 57, 109
10, 33930, Note_on_c, 8, 57, 0
10, 33930, Note_on_c, 8, 57, 109
10, 33960, Note_on_c, 8, 57, 0
10, 33960, Note_on_c, 8, 57, 110
10, 33990, Note_on_c, 8, 57, 0
10, 33990, Note_on_c, 8, 57, 110
10, 34020, Note_on_c, 8, 57, 0
10, 34020, Note_on_c, 8, 57, 110
10, 34050, Note_on_c, 8, 57, 0
10, 34050, Note_on_c, 8, 57, 110
10, 34080, Note_on_c, 8, 57, 0
10, 34080, Note_on_c, 8, 57, 111
10, 34110, Note_on_c, 8, 57, 0
10, 34110, Note_on_c, 8, 57, 111
10, 34140, Note_on_c, 8, 57, 0
10, 34140, Note_on_c, 8, 57, 111
10, 34170, Note_on_c, 8, 57, 0
10, 34170, Note_on_c, 8, 57, 112
10, 34200, Note_on_c, 8, 57, 0
10, 34200, Note_on_c, 8, 57, 112
10, 34230, Note_on_c, 8, 57, 0
10, 34230, Note_on_c, 8, 57, 112
10, 34260, Note_on_c, 8, 57, 0
10, 34260, Note_on_c, 8, 57, 112
10, 34290, Note_on_c, 8, 57, 0
10, 34290, Note_on_c, 8, 57, 113
10, 34320, Note_on_c, 8, 57, 0
10, 34320, Note_on_c, 8, 57, 113
10, 34350, Note_on_c, 8, 57, 0
10, 34350, Note_on_c, 8, 57, 113
10, 34380, Note_on_c, 8, 57, 0
10, 34380, Note_on_c, 8, 57, 114
10, 34410, Note_on_c, 8, 57, 0
10, 34410, Note_on_c, 8, 57, 114
10, 34440, Note_on_c, 8, 57, 0
10, 34440, Note_on_c, 8, 57, 114
10, 34470, Note_on_c, 8, 57, 0
10, 34470, Note_on_c, 8, 57, 114
10, 34500, Note_on_c, 8, 57, 0
10, 34500, Note_on_c, 8, 57, 115
10, 34530, Note_on_c, 8, 57, 0
10, 34530, Note_on_c, 8, 57, 115
10, 34560, Note_on_c, 8, 57, 0
10, 34560, Note_on_c, 8, 57, 115
10, 34590, Note_on_c, 8, 57, 0
10, 34590, Note_on_c, 8, 57, 116
10, 34620, Note_on_c, 8, 57, 0
10, 34620, Note_on_c, 8, 57, 116
10, 34650, Note_on_c, 8, 57, 0
10, 34650, Note_on_c, 8, 57, 116
10, 34680, Note_on_c, 8, 57, 0
10, 34680, Note_on_c, 8, 57, 116
10, 34710, Note_on_c, 8, 57, 0
10, 34710, Note_on_c, 8, 57, 117
10, 34740, Note_on_c, 8, 57, 0
10, 34740, Note_on_c, 8, 57, 117
10, 34770, Note_on_c, 8, 57, 0
10, 34770, Note_on_c, 8, 57, 117
10, 34800, Note_on_c, 8, 57, 0
10, 34800, Note_on_c, 8, 57, 118
10, 34830, Note_on_c, 8, 57, 0
10, 34830, Note_on_c, 8, 57, 118
10, 34860, Note_on_c, 8, 57, 0
10, 34860, Note_on_c, 8, 57, 118
10, 34890, Note_on_c, 8, 57, 0
10, 34890, Note_on_c, 8, 57, 118
10, 34920, Note_on_c, 8, 57, 0
10, 34920, Note_on_c, 8, 57, 119
10, 34950, Note_on_c, 8, 57, 0
10, 34950, Note_on_c, 8, 57, 119
10, 34980, Note_on_c, 8, 57, 0
10, 34980, Note_on_c, 8, 57, 119
10, 35010, Note_on_c, 8, 57, 0
10, 35010, Note_on_c, 8, 57, 119
10, 35040, Note_on_c, 8, 57, 0
10, 35040, Note_on_c, 8, 57, 120
10, 35070, Note_on_c, 8, 57, 0
10, 35070, Note_on_c, 8, 57, 120
10, 35100, Note_on_c, 8, 57, 0
10, 35100, Note_on_c, 8, 57, 120
10, 35130, Note_on_c, 8, 57, 0
10, 35130, Note_on_c, 8, 57, 121
10, 35160, Note_on_c, 8, 57, 0
10, 35160, Note_on_c, 8, 57, 121
10, 35190, Note_on_c, 8, 57, 0
10, 35190, Note_on_c, 8, 57, 121
10, 35220, Note_on_c, 8, 57, 0
10, 35220, Note_on_c, 8, 57, 121
10, 35250, Note_on_c, 8, 57, 0
10, 35250, Note_on_c, 8, 57, 122
10, 35280, Note_on_c, 8, 57, 0
10, 35280, Note_on_c, 8, 57, 122
10, 35310, Note_on_c, 8, 57, 0
10, 35310, Note_on_c, 8, 57, 122
10, 35340, Note_on_c, 8, 57, 0
10, 35340, Note_on_c, 8, 57, 123
10, 35370, Note_on_c, 8, 57, 0
10, 35370, Note_on_c, 8, 57, 123
10, 35400, Note_on_c, 8, 57, 0
10, 35400, Note_on_c, 8, 57, 123
10, 35430, Note_on_c, 8, 57, 0
10, 35430, Note_on_c, 8, 57, 123
10, 35460, Note_on_c, 8, 57, 0
10, 35460, Note_on_c, 8, 57, 124
10, 35490, Note_on_c, 8, 57, 0
10, 35490, Note_on_c, 8, 57, 124
10, 35520, Note_on_c, 8, 57, 0
10, 35520, Note_on_c, 8, 57, 124
10, 35550, Note_on_c, 8, 57, 0
10, 35550, Note_on_c, 8, 57, 125
10, 35580, Note_on_c, 8, 57, 0
10, 35580, Note_on_c, 8, 57, 125
10, 35610, Note_on_c, 8, 57, 0
10, 35610, Note_on_c, 8, 57, 125
10, 35640, Note_on_c, 8, 57, 0
10, 35640, Note_on_c, 8, 57, 125
10, 35670, Note_on_c, 8, 57, 0
10, 35670, Note_on_c, 8, 57, 126
10, 35700, Note_on_c, 8, 57, 0
10, 35700, Note_on_c, 8, 57, 126
10, 35730, Note_on_c, 8, 57, 0
10, 35730, Note_on_c, 8, 57, 126
10, 35760, Note_on_c, 8, 57, 0
10, 35760, Note_on_c, 8, 57, 127
10, 35850, Note_on_c, 8, 57, 0
10, 35880, Note_on_c, 8, 69, 127
10, 35970, Note_on_c, 8, 69, 0
10, 36000, Note_on_c, 8, 57, 127
10, 36090, Note_on_c, 8, 57, 0
10, 36240, Note_on_c, 8, 73, 127
10, 36480, Note_on_c, 8, 73, 0
10, 36480, Note_on_c, 8, 69, 127
10, 36600, Note_on_c, 8, 69, 0
10, 36600, Note_on_c, 8, 64, 127
10, 36720, Note_on_c, 8, 64, 0
10, 36720, Note_on_c, 8, 61, 127
10, 36960, Note_on_c, 8, 61, 0
10, 36960, Note_on_c, 8, 57, 127
10, 37200, Note_on_c, 8, 57, 0
10, 38160, Note_on_c, 8, 74, 100
10, 38400, Note_on_c, 8, 74, 0
10, 38400, Note_on_c, 8, 71, 100
10, 38520, Note_on_c, 8, 71, 0
10, 38520, Note_on_c, 8, 68, 100
10, 38640, Note_on_c, 8, 68, 0
10, 38640, Note_on_c, 8, 62, 100
10, 38880, Note_on_c, 8, 62, 0
10, 38880, Note_on_c, 8, 59, 100
10, 39120, Note_on_c, 8, 59, 0
10, 40080, Note_on_c, 8, 76, 100
10, 40320, Note_on_c, 8, 76, 0
10, 40320, Note_on_c, 8, 73, 100
10, 40440, Note_on_c, 8, 73, 0
10, 40440, Note_on_c, 8, 70, 100
10, 40560, Note_on_c, 8, 70, 0
10, 40560, Note_on_c, 8, 64, 100
10, 40800, Note_on_c, 8, 64, 0
10, 40800, Note_on_c, 8, 61, 100
10, 41040, Note_on_c, 8, 61, 0
10, 42300, Note_on_c, 8, 62, 50
10, 42300, Note_on_c, 8, 59, 50
10, 42330, Note_on_c, 8, 59, 0
10, 42330, Note_on_c, 8, 62, 0
10, 42360, Note_on_c, 8, 71, 50
10, 42360, Note_on_c, 8, 62, 50
10, 42390, Note_on_c, 8, 62, 0
10, 42390, Note_on_c, 8, 71, 0
10, 42420, Note_on_c, 8, 62, 50
10, 42420, Note_on_c, 8, 59, 50
10, 42450, Note_on_c, 8, 59, 0
10, 42450, Note_on_c, 8, 62, 0
10, 42480, Note_on_c, 8, 62, 50
10, 42480, Note_on_c, 8, 71, 50
10, 42780, Note_on_c, 8, 71, 0
10, 42780, Note_on_c, 8, 62, 0
10, 42780, Note_on_c, 8, 62, 50
10, 42780, Note_on_c, 8, 59, 50
10, 42810, Note_on_c, 8, 59, 0
10, 42810, Note_on_c, 8, 62, 0
10, 42840, Note_on_c, 8, 71, 50
10, 42840, Note_on_c, 8, 62, 50
10, 42870, Note_on_c, 8, 62, 0
10, 42870, Note_on_c, 8, 71, 0
10, 42900, Note_on_c, 8, 59, 50
10, 42900, Note_on_c, 8, 62, 50
10, 42930, Note_on_c, 8, 62, 0
10, 42930, Note_on_c, 8, 59, 0
10, 42960, Note_on_c, 8, 57, 50
10, 42960, Note_on_c, 8, 60, 50
10, 43080, Note_on_c, 8, 60, 0
10, 43080, Note_on_c, 8, 57, 0
10, 43260, Note_on_c, 8, 60, 50
10, 43260, Note_on_c, 8, 57, 50
10, 43290, Note_on_c, 8, 57, 0
10, 43290, Note_on_c, 8, 60, 0
10, 43320, Note_on_c, 8, 69, 50
10, 43320, Note_on_c, 8, 60, 50
10, 43350, Note_on_c, 8, 60, 0
10, 43350, Note_on_c, 8, 69, 0
10, 43380, Note_on_c, 8, 60, 50
10, 43380, Note_on_c, 8, 57, 50
10, 43410, Note_on_c, 8, 57, 0
10, 43410, Note_on_c, 8, 60, 0
10, 43440, Note_on_c, 8, 60, 50
10, 43440, Note_on_c, 8, 69, 50
10, 43740, Note_on_c, 8, 69, 0
10, 43740, Note_on_c, 8, 60, 0
10, 43740, Note_on_c, 8, 60, 50
10, 43740, Note_on_c, 8, 57, 50
10, 43770, Note_on_c, 8, 57, 0
10, 43770, Note_on_c, 8, 60, 0
10, 43800, Note_on_c, 8, 69, 50
10, 43800, Note_on_c, 8, 60, 50
10, 43830, Note_on_c, 8, 60, 0
10, 43830, Note_on_c, 8, 69, 0
10, 43860, Note_on_c, 8, 60, 50
10, 43860, Note_on_c, 8, 57, 50
10, 43890, Note_on_c, 8, 57, 0
10, 43890, Note_on_c, 8, 60, 0
10, 43920, Program_c, 8, 48
10, 43920, Note_on_c, 8, 55, 100
10, 43920, Note_on_c, 8, 59, 100
10, 44040, Note_on_c, 8, 59, 0
10, 44040, Note_on_c, 8, 55, 0
10, 44220, Note_on_c, 8, 55, 100
10, 44250, Note_on_c, 8, 55, 0
10, 44280, Note_on_c, 8, 59, 100
10, 44310, Note_on_c, 8, 59, 0
10, 44340, Note_on_c, 8, 55, 100
10, 44370, Note_on_c, 8, 55, 0
10, 44400, Note_on_c, 8, 64, 100
10, 44460, Note_on_c, 8, 64, 0
10, 44520, Note_on_c, 8, 62, 100
10, 44580, Note_on_c, 8, 62, 0
10, 44640, Note_on_c, 8, 60, 100
10, 44700, Note_on_c, 8, 60, 0
10, 44760, Note_on_c, 8, 59, 100
10, 44820, Note_on_c, 8, 59, 0
10, 44880, Note_on_c, 8, 57, 100
10, 44940, Note_on_c, 8, 57, 0
10, 44940, Note_on_c, 8, 62, 100
10, 44970, Note_on_c, 8, 62, 0
10, 45000, Note_on_c, 8, 66, 100
10, 45030, Note_on_c, 8, 66, 0
10, 45060, Note_on_c, 8, 62, 100
10, 45090, Note_on_c, 8, 62, 0
10, 45120, Note_on_c, 8, 72, 100
10, 45420, Note_on_c, 8, 72, 0
10, 45420, Note_on_c, 8, 71, 100
10, 45540, Note_on_c, 8, 71, 0
10, 45540, Note_on_c, 8, 69, 100
10, 45660, Note_on_c, 8, 69, 0
10, 45660, Note_on_c, 8, 67, 100
10, 45780, Note_on_c, 8, 67, 0
10, 45780, Note_on_c, 8, 65, 100
10, 45840, Note_on_c, 8, 65, 0
10, 45840, Note_on_c, 8, 64, 100
10, 45960, Note_on_c, 8, 64, 0
10, 46140, Note_on_c, 8, 57, 100
10, 46170, Note_on_c, 8, 57, 0
10, 46200, Note_on_c, 8, 60, 100
10, 46230, Note_on_c, 8, 60, 0
10, 46260, Note_on_c, 8, 57, 100
10, 46290, Note_on_c, 8, 57, 0
10, 46320, Note_on_c, 8, 65, 100
10, 46380, Note_on_c, 8, 65, 0
10, 46440, Note_on_c, 8, 64, 100
10, 46500, Note_on_c, 8, 64, 0
10, 46560, Note_on_c, 8, 62, 100
10, 46620, Note_on_c, 8, 62, 0
10, 46680, Note_on_c, 8, 60, 100
10, 46740, Note_on_c, 8, 60, 0
10, 46800, Note_on_c, 8, 59, 100
10, 46860, Note_on_c, 8, 59, 0
10, 46860, Note_on_c, 8, 64, 100
10, 46890, Note_on_c, 8, 64, 0
10, 46920, Note_on_c, 8, 68, 100
10, 46950, Note_on_c, 8, 68, 0
10, 46980, Note_on_c, 8, 64, 100
10, 47010, Note_on_c, 8, 64, 0
10, 47040, Note_on_c, 8, 74, 100
10, 47340, Note_on_c, 8, 74, 0
10, 47340, Note_on_c, 8, 72, 100
10, 47460, Note_on_c, 8, 72, 0
10, 47460, Note_on_c, 8, 71, 100
10, 47580, Note_on_c, 8, 71, 0
10, 47580, Note_on_c, 8, 69, 100
10, 47700, Note_on_c, 8, 69, 0
10, 47700, Note_on_c, 8, 67, 100
10, 47760, Note_on_c, 8, 67, 0
10, 47760, Note_on_c, 8, 66, 100
10, 47880, Note_on_c, 8, 66, 0
10, 48060, Note_on_c, 8, 59, 100
10, 48090, Note_on_c, 8, 59, 0
10, 48120, Note_on_c, 8, 62, 100
10, 48150, Note_on_c, 8, 62, 0
10, 48180, Note_on_c, 8, 59, 100
10, 48210, Note_on_c, 8, 59, 0
10, 48240, Note_on_c, 8, 67, 100
10, 48300, Note_on_c, 8, 67, 0
10, 48360, Note_on_c, 8, 66, 100
10, 48420, Note_on_c, 8, 66, 0
10, 48480, Note_on_c, 8, 64, 100
10, 48540, Note_on_c, 8, 64, 0
10, 48600, Note_on_c, 8, 62, 100
10, 48660, Note_on_c, 8, 62, 0
10, 48720, Note_on_c, 8, 67, 100
10, 48780, Note_on_c, 8, 67, 0
10, 48780, Note_on_c, 8, 67, 100
10, 48840, Note_on_c, 8, 67, 0
10, 48840, Note_on_c, 8, 67, 100
10, 48900, Note_on_c, 8, 67, 0
10, 48900, Note_on_c, 8, 67, 100
10, 48960, Note_on_c, 8, 67, 0
10, 48960, Note_on_c, 8, 61, 100
10, 48960, Note_on_c, 8, 64, 100
10, 49020, Note_on_c, 8, 64, 0
10, 49020, Note_on_c, 8, 61, 0
10, 49020, Note_on_c, 8, 61, 100
10, 49020, Note_on_c, 8, 64, 100
10, 49080, Note_on_c, 8, 64, 0
10, 49080, Note_on_c, 8, 61, 0
10, 49080, Note_on_c, 8, 61, 100
10, 49080, Note_on_c, 8, 64, 100
10, 49140, Note_on_c, 8, 64, 0
10, 49140, Note_on_c, 8, 61, 0
10, 49140, Note_on_c, 8, 61, 100
10, 49140, Note_on_c, 8, 64, 100
10, 49200, Note_on_c, 8, 64, 0
10, 49200, Note_on_c, 8, 61, 0
10, 49200, Note_on_c, 8, 62, 100
10, 49200, Note_on_c, 8, 59, 100
10, 49320, Note_on_c, 8, 59, 0
10, 49320, Note_on_c, 8, 62, 0
10, 49440, Note_on_c, 8, 54, 50
10, 49560, Note_on_c, 8, 54, 0
10, 49680, Note_on_c, 8, 55, 50
10, 49800, Note_on_c, 8, 55, 0
10, 49920, Note_on_c, 8, 54, 50
10, 50040, Note_on_c, 8, 54, 0
10, 50160, Note_on_c, 8, 67, 50
10, 50640, Note_on_c, 8, 67, 0
10, 50640, Note_on_c, 8, 66, 50
10, 51120, Note_on_c, 8, 66, 0
10, 51120, Note_on_c, 8, 64, 50
10, 51600, Note_on_c, 8, 64, 0
10, 51600, Note_on_c, 8, 62, 50
10, 51720, Note_on_c, 8, 62, 0
10, 51900, Note_on_c, 8, 62, 50
10, 51930, Note_on_c, 8, 62, 0
10, 51960, Note_on_c, 8, 66, 50
10, 51990, Note_on_c, 8, 66, 0
10, 52020, Note_on_c, 8, 62, 50
10, 52050, Note_on_c, 8, 62, 0
10, 52080, Note_on_c, 8, 71, 50
10, 52200, Note_on_c, 8, 71, 0
10, 52200, Note_on_c, 8, 69, 50
10, 52320, Note_on_c, 8, 69, 0
10, 52320, Note_on_c, 8, 67, 50
10, 52440, Note_on_c, 8, 67, 0
10, 52440, Note_on_c, 8, 66, 50
10, 52560, Note_on_c, 8, 66, 0
10, 52560, Note_on_c, 8, 64, 50
10, 52620, Note_on_c, 8, 64, 0
10, 52680, Note_on_c, 8, 66, 50
10, 52740, Note_on_c, 8, 66, 0
10, 52800, Note_on_c, 8, 64, 50
10, 52860, Note_on_c, 8, 64, 0
10, 52920, Note_on_c, 8, 66, 50
10, 52980, Note_on_c, 8, 66, 0
10, 53040, Note_on_c, 8, 64, 50
10, 53100, Note_on_c, 8, 64, 0
10, 53160, Note_on_c, 8, 66, 50
10, 53220, Note_on_c, 8, 66, 0
10, 53280, Note_on_c, 8, 64, 50
10, 53400, Note_on_c, 8, 64, 0
10, 54480, Note_on_c, 8, 70, 115
10, 54720, Note_on_c, 8, 70, 0
10, 54720, Note_on_c, 8, 67, 115
10, 54810, Note_on_c, 8, 67, 0
10, 54840, Note_on_c, 8, 62, 115
10, 54930, Note_on_c, 8, 62, 0
10, 54960, Note_on_c, 8, 58, 115
10, 55200, Note_on_c, 8, 58, 0
10, 55200, Note_on_c, 8, 55, 115
10, 55440, Note_on_c, 8, 55, 0
10, 56400, Note_on_c, 8, 75, 115
10, 56640, Note_on_c, 8, 75, 0
10, 56640, Note_on_c, 8, 72, 115
10, 56730, Note_on_c, 8, 72, 0
10, 56760, Note_on_c, 8, 69, 115
10, 56850, Note_on_c, 8, 69, 0
10, 56880, Note_on_c, 8, 63, 115
10, 57120, Note_on_c, 8, 63, 0
10, 57120, Note_on_c, 8, 53, 115
10, 57360, Note_on_c, 8, 53, 0
10, 58320, Note_on_c, 8, 70, 100
10, 58350, Note_on_c, 8, 70, 0
10, 58350, Note_on_c, 8, 70, 100
10, 58380, Note_on_c, 8, 70, 0
10, 58380, Note_on_c, 8, 70, 100
10, 58410, Note_on_c, 8, 70, 0
10, 58410, Note_on_c, 8, 70, 100
10, 58440, Note_on_c, 8, 70, 0
10, 58440, Note_on_c, 8, 70, 100
10, 58470, Note_on_c, 8, 70, 0
10, 58470, Note_on_c, 8, 70, 100
10, 58500, Note_on_c, 8, 70, 0
10, 58500, Note_on_c, 8, 70, 100
10, 58530, Note_on_c, 8, 70, 0
10, 58530, Note_on_c, 8, 70, 100
10, 58560, Note_on_c, 8, 70, 0
10, 58560, Note_on_c, 8, 70, 100
10, 58590, Note_on_c, 8, 70, 0
10, 58590, Note_on_c, 8, 70, 100
10, 58620, Note_on_c, 8, 70, 0
10, 58620, Note_on_c, 8, 70, 100
10, 58650, Note_on_c, 8, 70, 0
10, 58650, Note_on_c, 8, 70, 100
10, 58680, Note_on_c, 8, 70, 0
10, 58680, Note_on_c, 8, 70, 100
10, 58710, Note_on_c, 8, 70, 0
10, 58710, Note_on_c, 8, 70, 100
10, 58740, Note_on_c, 8, 70, 0
10, 58740, Note_on_c, 8, 70, 100
10, 58770, Note_on_c, 8, 70, 0
10, 58770, Note_on_c, 8, 70, 100
10, 58800, Note_on_c, 8, 70, 0
10, 58800, Note_on_c, 8, 69, 100
10, 58830, Note_on_c, 8, 69, 0
10, 58830, Note_on_c, 8, 69, 100
10, 58860, Note_on_c, 8, 69, 0
10, 58860, Note_on_c, 8, 69, 100
10, 58890, Note_on_c, 8, 69, 0
10, 58890, Note_on_c, 8, 69, 100
10, 58920, Note_on_c, 8, 69, 0
10, 58920, Note_on_c, 8, 69, 100
10, 58950, Note_on_c, 8, 69, 0
10, 58950, Note_on_c, 8, 69, 100
10, 58980, Note_on_c, 8, 69, 0
10, 58980, Note_on_c, 8, 69, 100
10, 59010, Note_on_c, 8, 69, 0
10, 59010, Note_on_c, 8, 69, 100
10, 59040, Note_on_c, 8, 69, 0
10, 59040, Note_on_c, 8, 69, 100
10, 59070, Note_on_c, 8, 69, 0
10, 59070, Note_on_c, 8, 69, 100
10, 59100, Note_on_c, 8, 69, 0
10, 59100, Note_on_c, 8, 69, 100
10, 59130, Note_on_c, 8, 69, 0
10, 59130, Note_on_c, 8, 69, 100
10, 59160, Note_on_c, 8, 69, 0
10, 59160, Note_on_c, 8, 69, 100
10, 59190, Note_on_c, 8, 69, 0
10, 59190, Note_on_c, 8, 69, 100
10, 59220, Note_on_c, 8, 69, 0
10, 59220, Note_on_c, 8, 69, 100
10, 59250, Note_on_c, 8, 69, 0
10, 59250, Note_on_c, 8, 69, 100
10, 59280, Note_on_c, 8, 69, 0
10, 59280, Note_on_c, 8, 70, 100
10, 59310, Note_on_c, 8, 70, 0
10, 59310, Note_on_c, 8, 70, 100
10, 59340, Note_on_c, 8, 70, 0
10, 59340, Note_on_c, 8, 70, 100
10, 59370, Note_on_c, 8, 70, 0
10, 59370, Note_on_c, 8, 70, 100
10, 59400, Note_on_c, 8, 70, 0
10, 59400, Note_on_c, 8, 70, 100
10, 59430, Note_on_c, 8, 70, 0
10, 59430, Note_on_c, 8, 70, 100
10, 59460, Note_on_c, 8, 70, 0
10, 59460, Note_on_c, 8, 70, 100
10, 59490, Note_on_c, 8, 70, 0
10, 59490, Note_on_c, 8, 70, 100
10, 59520, Note_on_c, 8, 70, 0
10, 59520, Note_on_c, 8, 70, 100
10, 59550, Note_on_c, 8, 70, 0
10, 59550, Note_on_c, 8, 70, 100
10, 59580, Note_on_c, 8, 70, 0
10, 59580, Note_on_c, 8, 70, 100
10, 59610, Note_on_c, 8, 70, 0
10, 59610, Note_on_c, 8, 70, 100
10, 59640, Note_on_c, 8, 70, 0
10, 59640, Note_on_c, 8, 70, 100
10, 59670, Note_on_c, 8, 70, 0
10, 59670, Note_on_c, 8, 70, 100
10, 59700, Note_on_c, 8, 70, 0
10, 59700, Note_on_c, 8, 70, 100
10, 59730, Note_on_c, 8, 70, 0
10, 59730, Note_on_c, 8, 70, 100
10, 59760, Note_on_c, 8, 70, 0
10, 59760, Note_on_c, 8, 71, 100
10, 59790, Note_on_c, 8, 71, 0
10, 59790, Note_on_c, 8, 71, 100
10, 59820, Note_on_c, 8, 71, 0
10, 59820, Note_on_c, 8, 71, 100
10, 59850, Note_on_c, 8, 71, 0
10, 59850, Note_on_c, 8, 71, 100
10, 59880, Note_on_c, 8, 71, 0
10, 59880, Note_on_c, 8, 71, 100
10, 59910, Note_on_c, 8, 71, 0
10, 59910, Note_on_c, 8, 71, 100
10, 59940, Note_on_c, 8, 71, 0
10, 59940, Note_on_c, 8, 71, 100
10, 59970, Note_on_c, 8, 71, 0
10, 59970, Note_on_c, 8, 71, 100
10, 60000, Note_on_c, 8, 71, 0
10, 60000, Note_on_c, 8, 71, 100
10, 60030, Note_on_c, 8, 71, 0
10, 60030, Note_on_c, 8, 71, 100
10, 60060, Note_on_c, 8, 71, 0
10, 60060, Note_on_c, 8, 71, 100
10, 60090, Note_on_c, 8, 71, 0
10, 60090, Note_on_c, 8, 71, 100
10, 60120, Note_on_c, 8, 71, 0
10, 60120, Note_on_c, 8, 71, 100
10, 60150, Note_on_c, 8, 71, 0
10, 60150, Note_on_c, 8, 71, 100
10, 60180, Note_on_c, 8, 71, 0
10, 60180, Note_on_c, 8, 71, 100
10, 60210, Note_on_c, 8, 71, 0
10, 60210, Note_on_c, 8, 71, 100
10, 60240, Note_on_c, 8, 71, 0
10, 60240, Note_on_c, 8, 69, 100
10, 60270, Note_on_c, 8, 69, 0
10, 60270, Note_on_c, 8, 69, 100
10, 60300, Note_on_c, 8, 69, 0
10, 60300, Note_on_c, 8, 69, 100
10, 60330, Note_on_c, 8, 69, 0
10, 60330, Note_on_c, 8, 69, 100
10, 60360, Note_on_c, 8, 69, 0
10, 60360, Note_on_c, 8, 64, 100
10, 60390, Note_on_c, 8, 64, 0
10, 60390, Note_on_c, 8, 64, 100
10, 60420, Note_on_c, 8, 64, 0
10, 60420, Note_on_c, 8, 64, 100
10, 60450, Note_on_c, 8, 64, 0
10, 60450, Note_on_c, 8, 64, 100
10, 60480, Note_on_c, 8, 64, 0
10, 60480, Note_on_c, 8, 62, 100
10, 60510, Note_on_c, 8, 62, 0
10, 60510, Note_on_c, 8, 62, 100
10, 60540, Note_on_c, 8, 62, 0
10, 60540, Note_on_c, 8, 62, 100
10, 60570, Note_on_c, 8, 62, 0
10, 60570, Note_on_c, 8, 62, 100
10, 60600, Note_on_c, 8, 62, 0
10, 60600, Note_on_c, 8, 59, 100
10, 60630, Note_on_c, 8, 59, 0
10, 60630, Note_on_c, 8, 59, 100
10, 60660, Note_on_c, 8, 59, 0
10, 60660, Note_on_c, 8, 59, 100
10, 60690, Note_on_c, 8, 59, 0
10, 60690, Note_on_c, 8, 59, 100
10, 60720, Note_on_c, 8, 59, 0
10, 60720, Note_on_c, 8, 57, 100
10, 60750, Note_on_c, 8, 57, 0
10, 60750, Note_on_c, 8, 57, 100
10, 60780, Note_on_c, 8, 57, 0
10, 60780, Note_on_c, 8, 57, 100
10, 60810, Note_on_c, 8, 57, 0
10, 60810, Note_on_c, 8, 57, 100
10, 60840, Note_on_c, 8, 57, 0
10, 60840, Note_on_c, 8, 64, 100
10, 60870, Note_on_c, 8, 64, 0
10, 60870, Note_on_c, 8, 64, 100
10, 60900, Note_on_c, 8, 64, 0
10, 60900, Note_on_c, 8, 64, 100
10, 60930, Note_on_c, 8, 64, 0
10, 60930, Note_on_c, 8, 64, 100
10, 60960, Note_on_c, 8, 64, 0
10, 60960, Note_on_c, 8, 62, 100
10, 60990, Note_on_c, 8, 62, 0
10, 60990, Note_on_c, 8, 62, 100
10, 61020, Note_on_c, 8, 62, 0
10, 61020, Note_on_c, 8, 62, 100
10, 61050, Note_on_c, 8, 62, 0
10, 61050, Note_on_c, 8, 62, 100
10, 61080, Note_on_c, 8, 62, 0
10, 61080, Note_on_c, 8, 59, 100
10, 61110, Note_on_c, 8, 59, 0
10, 61110, Note_on_c, 8, 59, 100
10, 61140, Note_on_c, 8, 59, 0
10, 61140, Note_on_c, 8, 59, 100
10, 61170, Note_on_c, 8, 59, 0
10, 61170, Note_on_c, 8, 59, 100
10, 61200, Note_on_c, 8, 59, 0
10, 61200, Note_on_c, 8, 57, 100
10, 61260, Note_on_c, 8, 57, 0
10, 61320, Note_on_c, 8, 69, 100
10, 61350, Note_on_c, 8, 69, 0
10, 61380, Note_on_c, 8, 67, 100
10, 61410, Note_on_c, 8, 67, 0
10, 61440, Note_on_c, 8, 65, 100
10, 61500, Note_on_c, 8, 65, 0
10, 61500, Note_on_c, 8, 69, 100
10, 61560, Note_on_c, 8, 69, 0
10, 61560, Note_on_c, 8, 65, 100
10, 61620, Note_on_c, 8, 65, 0
10, 61620, Note_on_c, 8, 62, 100
10, 61680, Note_on_c, 8, 62, 0
10, 61680, Note_on_c, 8, 61, 100
10, 61740, Note_on_c, 8, 61, 0
10, 61740, Note_on_c, 8, 64, 100
10, 61800, Note_on_c, 8, 64, 0
10, 61800, Note_on_c, 8, 57, 100
10, 61860, Note_on_c, 8, 57, 0
10, 61860, Note_on_c, 8, 55, 100
10, 61920, Note_on_c, 8, 55, 0
10, 61920, Note_on_c, 8, 53, 100
10, 61980, Note_on_c, 8, 53, 0
10, 61980, Note_on_c, 8, 57, 100
10, 62040, Note_on_c, 8, 57, 0
10, 62040, Note_on_c, 8, 53, 100
10, 62100, Note_on_c, 8, 53, 0
10, 62100, Note_on_c, 8, 50, 100
10, 62160, Note_on_c, 8, 50, 0
10, 62160, Note_on_c, 8, 57, 100
10, 62280, Note_on_c, 8, 57, 0
10, 63120, Note_on_c, 8, 74, 40
10, 63240, Note_on_c, 8, 74, 0
10, 63360, Note_on_c, 8, 69, 40
10, 63480, Note_on_c, 8, 69, 0
10, 63600, Note_on_c, 8, 62, 40
10, 63720, Note_on_c, 8, 62, 0
10, 64080, Note_on_c, 8, 74, 40
10, 64200, Note_on_c, 8, 74, 0
10, 64320, Note_on_c, 8, 69, 40
10, 64440, Note_on_c, 8, 69, 0
10, 64560, Note_on_c, 8, 62, 40
10, 64680, Note_on_c, 8, 62, 0
10, 66120, Note_on_c, 8, 67, 50
10, 66210, Note_on_c, 8, 67, 0
10, 66210, Note_on_c, 8, 69, 50
10, 66240, Note_on_c, 8, 69, 0
10, 66240, Note_on_c, 8, 71, 50
10, 66300, Note_on_c, 8, 71, 0
10, 66360, Note_on_c, 8, 71, 50
10, 66420, Note_on_c, 8, 71, 0
10, 66480, Note_on_c, 8, 64, 50
10, 66600, Note_on_c, 8, 64, 0
10, 66720, Note_on_c, 8, 57, 50
10, 66900, Note_on_c, 8, 57, 0
10, 66900, Note_on_c, 8, 59, 50
10, 66960, Note_on_c, 8, 59, 0
10, 66960, Note_on_c, 8, 59, 50
10, 67020, Note_on_c, 8, 59, 0
10, 67020, Note_on_c, 8, 57, 50
10, 67050, Note_on_c, 8, 57, 0
10, 67080, Note_on_c, 8, 57, 50
10, 67110, Note_on_c, 8, 57, 0
10, 67140, Note_on_c, 8, 57, 50
10, 67170, Note_on_c, 8, 57, 0
10, 67200, Note_on_c, 8, 57, 50
10, 67260, Note_on_c, 8, 57, 0
10, 67260, Note_on_c, 8, 55, 50
10, 67290, Note_on_c, 8, 55, 0
10, 67320, Note_on_c, 8, 55, 50
10, 67350, Note_on_c, 8, 55, 0
10, 67380, Note_on_c, 8, 55, 50
10, 67410, Note_on_c, 8, 55, 0
10, 67440, Note_on_c, 8, 55, 50
10, 67500, Note_on_c, 8, 55, 0
10, 67500, Note_on_c, 8, 54, 50
10, 67530, Note_on_c, 8, 54, 0
10, 67560, Note_on_c, 8, 54, 50
10, 67590, Note_on_c, 8, 54, 0
10, 67620, Note_on_c, 8, 54, 50
10, 67650, Note_on_c, 8, 54, 0
10, 67920, Note_on_c, 8, 62, 40
10, 68040, Note_on_c, 8, 62, 0
10, 68160, Note_on_c, 8, 57, 40
10, 68280, Note_on_c, 8, 57, 0
10, 68400, Note_on_c, 8, 50, 40
10, 68520, Note_on_c, 8, 50, 0
10, 69720, Note_on_c, 8, 74, 50
10, 69720, Note_on_c, 8, 71, 50
10, 69810, Note_on_c, 8, 71, 0
10, 69810, Note_on_c, 8, 74, 0
10, 69810, Note_on_c, 8, 73, 50
10, 69810, Note_on_c, 8, 69, 50
10, 69840, Note_on_c, 8, 69, 0
10, 69840, Note_on_c, 8, 73, 0
10, 69840, Note_on_c, 8, 67, 50
10, 69840, Note_on_c, 8, 71, 50
10, 69900, Note_on_c, 8, 71, 0
10, 69900, Note_on_c, 8, 67, 0
10, 69960, Note_on_c, 8, 71, 50
10, 69960, Note_on_c, 8, 67, 50
10, 70050, Note_on_c, 8, 67, 0
10, 70050, Note_on_c, 8, 71, 0
10, 70050, Note_on_c, 8, 66, 50
10, 70050, Note_on_c, 8, 69, 50
10, 70080, Note_on_c, 8, 69, 0
10, 70080, Note_on_c, 8, 66, 0
10, 70080, Note_on_c, 8, 64, 50
10, 70080, Note_on_c, 8, 67, 50
10, 70140, Note_on_c, 8, 67, 0
10, 70140, Note_on_c, 8, 64, 0
10, 70200, Note_on_c, 8, 62, 50
10, 70200, Note_on_c, 8, 66, 50
10, 70260, Note_on_c, 8, 66, 0
10, 70260, Note_on_c, 8, 62, 0
10, 70320, Note_on_c, 8, 64, 50
10, 70320, Note_on_c, 8, 67, 50
10, 70380, Note_on_c, 8, 67, 0
10, 70380, Note_on_c, 8, 64, 0
10, 70440, Note_on_c, 8, 61, 50
10, 70440, Note_on_c, 8, 64, 50
10, 70500, Note_on_c, 8, 64, 0
10, 70500, Note_on_c, 8, 61, 0
10, 70560, Note_on_c, 8, 62, 50
10, 70680, Note_on_c, 8, 62, 0
10, 72780, Note_on_c, 8, 62, 50
10, 72810, Note_on_c, 8, 62, 0
10, 72840, Note_on_c, 8, 66, 50
10, 72870, Note_on_c, 8, 66, 0
10, 72900, Note_on_c, 8, 62, 50
10, 72930, Note_on_c, 8, 62, 0
10, 72960, Note_on_c, 8, 70, 50
10, 73080, Note_on_c, 8, 70, 0
10, 73080, Note_on_c, 8, 69, 50
10, 73200, Note_on_c, 8, 69, 0
10, 73200, Note_on_c, 8, 70, 50
10, 73320, Note_on_c, 8, 70, 0
10, 73320, Note_on_c, 8, 66, 50
10, 73440, Note_on_c, 8, 66, 0
10, 73440, Note_on_c, 8, 67, 100
10, 73560, Note_on_c, 8, 67, 0
10, 73740, Note_on_c, 8, 69, 100
10, 73770, Note_on_c, 8, 69, 0
10, 73800, Note_on_c, 8, 62, 100
10, 73830, Note_on_c, 8, 62, 0
10, 73860, Note_on_c, 8, 72, 100
10, 73890, Note_on_c, 8, 72, 0
10, 73920, Note_on_c, 8, 70, 100
10, 74160, Note_on_c, 8, 70, 0
10, 74220, Note_on_c, 8, 69, 100
10, 74250, Note_on_c, 8, 69, 0
10, 74280, Note_on_c, 8, 62, 100
10, 74310, Note_on_c, 8, 62, 0
10, 74340, Note_on_c, 8, 72, 100
10, 74370, Note_on_c, 8, 72, 0
10, 74400, Note_on_c, 8, 70, 100
10, 74640, Note_on_c, 8, 70, 0
10, 74700, Note_on_c, 8, 69, 100
10, 74730, Note_on_c, 8, 69, 0
10, 74760, Note_on_c, 8, 62, 100
10, 74790, Note_on_c, 8, 62, 0
10, 74820, Note_on_c, 8, 72, 100
10, 74850, Note_on_c, 8, 72, 0
10, 74880, Note_on_c, 8, 71, 100
10, 74940, Note_on_c, 8, 71, 0
10, 74940, Note_on_c, 8, 71, 100
10, 75000, Note_on_c, 8, 71, 0
10, 75000, Note_on_c, 8, 71, 100
10, 75060, Note_on_c, 8, 71, 0
10, 75060, Note_on_c, 8, 71, 100
10, 75120, Note_on_c, 8, 71, 0
10, 75120, Note_on_c, 8, 70, 100
10, 75180, Note_on_c, 8, 70, 0
10, 75180, Note_on_c, 8, 70, 100
10, 75240, Note_on_c, 8, 70, 0
10, 75240, Note_on_c, 8, 70, 100
10, 75300, Note_on_c, 8, 70, 0
10, 75300, Note_on_c, 8, 70, 100
10, 75360, Note_on_c, 8, 70, 0
10, 75360, Note_on_c, 8, 69, 100
10, 75420, Note_on_c, 8, 69, 0
10, 75420, Note_on_c, 8, 69, 100
10, 75480, Note_on_c, 8, 69, 0
10, 75480, Note_on_c, 8, 71, 100
10, 75540, Note_on_c, 8, 71, 0
10, 75540, Note_on_c, 8, 71, 100
10, 75600, Note_on_c, 8, 71, 0
10, 75600, Note_on_c, 8, 67, 100
10, 75660, Note_on_c, 8, 67, 0
10, 75660, Note_on_c, 8, 67, 100
10, 75720, Note_on_c, 8, 67, 0
10, 75720, Note_on_c, 8, 69, 100
10, 75780, Note_on_c, 8, 69, 0
10, 75780, Note_on_c, 8, 69, 100
10, 75840, Note_on_c, 8, 69, 0
10, 75840, Note_on_c, 8, 62, 100
10, 75960, Note_on_c, 8, 62, 0
10, 76080, Program_c, 8, 45
10, 76080, Note_on_c, 8, 64, 50
10, 76080, Note_on_c, 8, 61, 50
10, 76140, Note_on_c, 8, 61, 0
10, 76140, Note_on_c, 8, 64, 0
10, 76200, Note_on_c, 8, 61, 50
10, 76200, Note_on_c, 8, 64, 50
10, 76260, Note_on_c, 8, 64, 0
10, 76260, Note_on_c, 8, 61, 0
10, 76320, Note_on_c, 8, 62, 50
10, 76380, Note_on_c, 8, 62, 0
10, 76560, Note_on_c, 8, 61, 50
10, 76560, Note_on_c, 8, 64, 50
10, 76620, Note_on_c, 8, 64, 0
10, 76620, Note_on_c, 8, 61, 0
10, 76680, Note_on_c, 8, 64, 50
10, 76680, Note_on_c, 8, 61, 50
10, 76740, Note_on_c, 8, 61, 0
10, 76740, Note_on_c, 8, 64, 0
10, 76800, Note_on_c, 8, 62, 50
10, 76860, Note_on_c, 8, 62, 0
10, 77040, Note_on_c, 8, 57, 50
10, 77040, Note_on_c, 8, 67, 50
10, 77100, Note_on_c, 8, 67, 0
10, 77100, Note_on_c, 8, 57, 0
10, 77160, Note_on_c, 8, 67, 50
10, 77160, Note_on_c, 8, 57, 50
10, 77220, Note_on_c, 8, 57, 0
10, 77220, Note_on_c, 8, 67, 0
10, 77280, Note_on_c, 8, 66, 50
10, 77280, Note_on_c, 8, 57, 50
10, 77340, Note_on_c, 8, 57, 0
10, 77340, Note_on_c, 8, 66, 0
10, 78240, Program_c, 8, 48
10, 78240, Note_on_c, 8, 69, 50
10, 78240, Note_on_c, 8, 66, 50
10, 78255, Note_on_c, 8, 66, 0
10, 78255, Note_on_c, 8, 69, 0
10, 78255, Note_on_c, 8, 64, 50
10, 78255, Note_on_c, 8, 67, 50
10, 78270, Note_on_c, 8, 67, 0
10, 78270, Note_on_c, 8, 64, 0
10, 78270, Note_on_c, 8, 66, 50
10, 78270, Note_on_c, 8, 69, 50
10, 78285, Note_on_c, 8, 69, 0
10, 78285, Note_on_c, 8, 66, 0
10, 78285, Note_on_c, 8, 64, 50
10, 78285, Note_on_c, 8, 67, 50
10, 78300, Note_on_c, 8, 67, 0
10, 78300, Note_on_c, 8, 64, 0
10, 78300, Note_on_c, 8, 69, 50
10, 78300, Note_on_c, 8, 66, 50
10, 78315, Note_on_c, 8, 66, 0
10, 78315, Note_on_c, 8, 69, 0
10, 78315, Note_on_c, 8, 64, 50
10, 78315, Note_on_c, 8, 67, 50
10, 78330, Note_on_c, 8, 67, 0
10, 78330, Note_on_c, 8, 64, 0
10, 78330, Note_on_c, 8, 66, 50
10, 78330, Note_on_c, 8, 69, 50
10, 78345, Note_on_c, 8, 69, 0
10, 78345, Note_on_c, 8, 66, 0
10, 78345, Note_on_c, 8, 64, 50
10, 78345, Note_on_c, 8, 67, 50
10, 78360, Note_on_c, 8, 67, 0
10, 78360, Note_on_c, 8, 64, 0
10, 78360, Note_on_c, 8, 66, 50
10, 78360, Note_on_c, 8, 69, 50
10, 78375, Note_on_c, 8, 69, 0
10, 78375, Note_on_c, 8, 66, 0
10, 78375, Note_on_c, 8, 67, 50
10, 78375, Note_on_c, 8, 64, 50
10, 78390, Note_on_c, 8, 64, 0
10, 78390, Note_on_c, 8, 67, 0
10, 78390, Note_on_c, 8, 66, 50
10, 78390, Note_on_c, 8, 69, 50
10, 78405, Note_on_c, 8, 69, 0
10, 78405, Note_on_c, 8, 66, 0
10, 78405, Note_on_c, 8, 64, 50
10, 78405, Note_on_c, 8, 67, 50
10, 78420, Note_on_c, 8, 67, 0
10, 78420, Note_on_c, 8, 64, 0
10, 78420, Note_on_c, 8, 64, 50
10, 78420, Note_on_c, 8, 67, 50
10, 78450, Note_on_c, 8, 67, 0
10, 78450, Note_on_c, 8, 64, 0
10, 78450, Note_on_c, 8, 66, 50
10, 78450, Note_on_c, 8, 69, 50
10, 78480, Note_on_c, 8, 69, 0
10, 78480, Note_on_c, 8, 66, 0
10, 78480, Note_on_c, 8, 71, 50
10, 78480, Note_on_c, 8, 67, 50
10, 78570, Note_on_c, 8, 67, 0
10, 78570, Note_on_c, 8, 71, 0
10, 78720, Note_on_c, 8, 62, 50
10, 78720, Note_on_c, 8, 66, 50
10, 78735, Note_on_c, 8, 66, 0
10, 78735, Note_on_c, 8, 62, 0
10, 78735, Note_on_c, 8, 61, 50
10, 78735, Note_on_c, 8, 64, 50
10, 78750, Note_on_c, 8, 64, 0
10, 78750, Note_on_c, 8, 61, 0
10, 78750, Note_on_c, 8, 62, 50
10, 78750, Note_on_c, 8, 66, 50
10, 78765, Note_on_c, 8, 66, 0
10, 78765, Note_on_c, 8, 62, 0
10, 78765, Note_on_c, 8, 61, 50
10, 78765, Note_on_c, 8, 64, 50
10, 78780, Note_on_c, 8, 64, 0
10, 78780, Note_on_c, 8, 61, 0
10, 78780, Note_on_c, 8, 66, 50
10, 78780, Note_on_c, 8, 62, 50
10, 78795, Note_on_c, 8, 62, 0
10, 78795, Note_on_c, 8, 66, 0
10, 78795, Note_on_c, 8, 61, 50
10, 78795, Note_on_c, 8, 64, 50
10, 78810, Note_on_c, 8, 64, 0
10, 78810, Note_on_c, 8, 61, 0
10, 78810, Note_on_c, 8, 66, 50
10, 78810, Note_on_c, 8, 62, 50
10, 78825, Note_on_c, 8, 62, 0
10, 78825, Note_on_c, 8, 66, 0
10, 78825, Note_on_c, 8, 64, 50
10, 78825, Note_on_c, 8, 61, 50
10, 78840, Note_on_c, 8, 61, 0
10, 78840, Note_on_c, 8, 64, 0
10, 78840, Note_on_c, 8, 66, 50
10, 78840, Note_on_c, 8, 62, 50
10, 78855, Note_on_c, 8, 62, 0
10, 78855, Note_on_c, 8, 66, 0
10, 78855, Note_on_c, 8, 64, 50
10, 78855, Note_on_c, 8, 61, 50
10, 78870, Note_on_c, 8, 61, 0
10, 78870, Note_on_c, 8, 64, 0
10, 78870, Note_on_c, 8, 62, 50
10, 78870, Note_on_c, 8, 66, 50
10, 78885, Note_on_c, 8, 66, 0
10, 78885, Note_on_c, 8, 62, 0
10, 78885, Note_on_c, 8, 64, 50
10, 78885, Note_on_c, 8, 61, 50
10, 78900, Note_on_c, 8, 61, 0
10, 78900, Note_on_c, 8, 64, 0
10, 78900, Note_on_c, 8, 64, 50
10, 78900, Note_on_c, 8, 61, 50
10, 78930, Note_on_c, 8, 61, 0
10, 78930, Note_on_c, 8, 64, 0
10, 78930, Note_on_c, 8, 66, 50
10, 78930, Note_on_c, 8, 62, 50
10, 78960, Note_on_c, 8, 62, 0
10, 78960, Note_on_c, 8, 66, 0
10, 78960, Note_on_c, 8, 67, 50
10, 78960, Note_on_c, 8, 64, 50
10, 79020, Note_on_c, 8, 64, 0
10, 79020, Note_on_c, 8, 67, 0
10, 79080, Note_on_c, 8, 61, 50
10, 79080, Note_on_c, 8, 64, 50
10, 79140, Note_on_c, 8, 64, 0
10, 79140, Note_on_c, 8, 61, 0
10, 79200, Note_on_c, 8, 66, 50
10, 79200, Note_on_c, 8, 69, 50
10, 79200, Program_c, 8, 48
10, 79215, Note_on_c, 8, 69, 0
10, 79215, Note_on_c, 8, 66, 0
10, 79215, Note_on_c, 8, 64, 50
10, 79215, Note_on_c, 8, 67, 50
10, 79230, Note_on_c, 8, 67, 0
10, 79230, Note_on_c, 8, 64, 0
10, 79230, Note_on_c, 8, 69, 50
10, 79230, Note_on_c, 8, 66, 50
10, 79245, Note_on_c, 8, 66, 0
10, 79245, Note_on_c, 8, 69, 0
10, 79245, Note_on_c, 8, 64, 50
10, 79245, Note_on_c, 8, 67, 50
10, 79260, Note_on_c, 8, 67, 0
10, 79260, Note_on_c, 8, 64, 0
10, 79260, Note_on_c, 8, 66, 50
10, 79260, Note_on_c, 8, 69, 50
10, 79275, Note_on_c, 8, 69, 0
10, 79275, Note_on_c, 8, 66, 0
10, 79275, Note_on_c, 8, 67, 50
10, 79275, Note_on_c, 8, 64, 50
10, 79290, Note_on_c, 8, 64, 0
10, 79290, Note_on_c, 8, 67, 0
10, 79290, Note_on_c, 8, 66, 50
10, 79290, Note_on_c, 8, 69, 50
10, 79305, Note_on_c, 8, 69, 0
10, 79305, Note_on_c, 8, 66, 0
10, 79305, Note_on_c, 8, 67, 50
10, 79305, Note_on_c, 8, 64, 50
10, 79320, Note_on_c, 8, 64, 0
10, 79320, Note_on_c, 8, 67, 0
10, 79320, Note_on_c, 8, 66, 50
10, 79320, Note_on_c, 8, 69, 50
10, 79335, Note_on_c, 8, 69, 0
10, 79335, Note_on_c, 8, 66, 0
10, 79335, Note_on_c, 8, 67, 50
10, 79335, Note_on_c, 8, 64, 50
10, 79350, Note_on_c, 8, 64, 0
10, 79350, Note_on_c, 8, 67, 0
10, 79350, Note_on_c, 8, 66, 50
10, 79350, Note_on_c, 8, 69, 50
10, 79365, Note_on_c, 8, 69, 0
10, 79365, Note_on_c, 8, 66, 0
10, 79365, Note_on_c, 8, 67, 50
10, 79365, Note_on_c, 8, 64, 50
10, 79380, Note_on_c, 8, 64, 0
10, 79380, Note_on_c, 8, 67, 0
10, 79380, Note_on_c, 8, 64, 50
10, 79380, Note_on_c, 8, 67, 50
10, 79410, Note_on_c, 8, 67, 0
10, 79410, Note_on_c, 8, 64, 0
10, 79410, Note_on_c, 8, 69, 50
10, 79410, Note_on_c, 8, 66, 50
10, 79440, Note_on_c, 8, 66, 0
10, 79440, Note_on_c, 8, 69, 0
10, 79440, Note_on_c, 8, 67, 50
10, 79440, Note_on_c, 8, 71, 50
10, 79530, Note_on_c, 8, 71, 0
10, 79530, Note_on_c, 8, 67, 0
10, 79680, Note_on_c, 8, 62, 50
10, 79680, Note_on_c, 8, 66, 50
10, 79695, Note_on_c, 8, 66, 0
10, 79695, Note_on_c, 8, 62, 0
10, 79695, Note_on_c, 8, 64, 50
10, 79695, Note_on_c, 8, 61, 50
10, 79710, Note_on_c, 8, 61, 0
10, 79710, Note_on_c, 8, 64, 0
10, 79710, Note_on_c, 8, 62, 50
10, 79710, Note_on_c, 8, 66, 50
10, 79725, Note_on_c, 8, 66, 0
10, 79725, Note_on_c, 8, 62, 0
10, 79725, Note_on_c, 8, 64, 50
10, 79725, Note_on_c, 8, 61, 50
10, 79740, Note_on_c, 8, 61, 0
10, 79740, Note_on_c, 8, 64, 0
10, 79740, Note_on_c, 8, 62, 50
10, 79740, Note_on_c, 8, 66, 50
10, 79755, Note_on_c, 8, 66, 0
10, 79755, Note_on_c, 8, 62, 0
10, 79755, Note_on_c, 8, 61, 50
10, 79755, Note_on_c, 8, 64, 50
10, 79770, Note_on_c, 8, 64, 0
10, 79770, Note_on_c, 8, 61, 0
10, 79770, Note_on_c, 8, 66, 50
10, 79770, Note_on_c, 8, 62, 50
10, 79785, Note_on_c, 8, 62, 0
10, 79785, Note_on_c, 8, 66, 0
10, 79785, Note_on_c, 8, 61, 50
10, 79785, Note_on_c, 8, 64, 50
10, 79800, Note_on_c, 8, 64, 0
10, 79800, Note_on_c, 8, 61, 0
10, 79800, Note_on_c, 8, 66, 50
10, 79800, Note_on_c, 8, 62, 50
10, 79815, Note_on_c, 8, 62, 0
10, 79815, Note_on_c, 8, 66, 0
10, 79815, Note_on_c, 8, 61, 50
10, 79815, Note_on_c, 8, 64, 50
10, 79830, Note_on_c, 8, 64, 0
10, 79830, Note_on_c, 8, 61, 0
10, 79830, Note_on_c, 8, 62, 50
10, 79830, Note_on_c, 8, 66, 50
10, 79845, Note_on_c, 8, 66, 0
10, 79845, Note_on_c, 8, 62, 0
10, 79845, Note_on_c, 8, 64, 50
10, 79845, Note_on_c, 8, 61, 50
10, 79860, Note_on_c, 8, 61, 0
10, 79860, Note_on_c, 8, 64, 0
10, 79860, Note_on_c, 8, 61, 50
10, 79860, Note_on_c, 8, 64, 50
10, 79890, Note_on_c, 8, 64, 0
10, 79890, Note_on_c, 8, 61, 0
10, 79890, Note_on_c, 8, 66, 50
10, 79890, Note_on_c, 8, 62, 50
10, 79920, Note_on_c, 8, 62, 0
10, 79920, Note_on_c, 8, 66, 0
10, 79920, Note_on_c, 8, 64, 50
10, 79920, Note_on_c, 8, 67, 50
10, 79980, Note_on_c, 8, 67, 0
10, 79980, Note_on_c, 8, 64, 0
10, 80040, Note_on_c, 8, 64, 50
10, 80040, Note_on_c, 8, 61, 50
10, 80100, Note_on_c, 8, 61, 0
10, 80100, Note_on_c, 8, 64, 0
10, 80160, Note_on_c, 8, 62, 100
10, 80190, Note_on_c, 8, 62, 0
10, 80190, Note_on_c, 8, 62, 100
10, 80220, Note_on_c, 8, 62, 0
10, 80220, Note_on_c, 8, 62, 100
10, 80250, Note_on_c, 8, 62, 0
10, 80250, Note_on_c, 8, 62, 100
10, 80280, Note_on_c, 8, 62, 0
10, 80280, Note_on_c, 8, 62, 101
10, 80310, Note_on_c, 8, 62, 0
10, 80310, Note_on_c, 8, 62, 101
10, 80340, Note_on_c, 8, 62, 0
10, 80340, Note_on_c, 8, 62, 101
10, 80370, Note_on_c, 8, 62, 0
10, 80370, Note_on_c, 8, 62, 101
10, 80400, Note_on_c, 8, 62, 0
10, 80400, Note_on_c, 8, 62, 102
10, 80430, Note_on_c, 8, 62, 0
10, 80430, Note_on_c, 8, 62, 102
10, 80460, Note_on_c, 8, 62, 0
10, 80460, Note_on_c, 8, 62, 102
10, 80490, Note_on_c, 8, 62, 0
10, 80490, Note_on_c, 8, 62, 102
10, 80520, Note_on_c, 8, 62, 0
10, 80520, Note_on_c, 8, 62, 103
10, 80550, Note_on_c, 8, 62, 0
10, 80550, Note_on_c, 8, 62, 103
10, 80580, Note_on_c, 8, 62, 0
10, 80580, Note_on_c, 8, 62, 103
10, 80610, Note_on_c, 8, 62, 0
10, 80610, Note_on_c, 8, 62, 103
10, 80640, Note_on_c, 8, 62, 0
10, 80640, Note_on_c, 8, 62, 104
10, 80670, Note_on_c, 8, 62, 0
10, 80670, Note_on_c, 8, 62, 104
10, 80700, Note_on_c, 8, 62, 0
10, 80700, Note_on_c, 8, 62, 104
10, 80730, Note_on_c, 8, 62, 0
10, 80730, Note_on_c, 8, 62, 104
10, 80760, Note_on_c, 8, 62, 0
10, 80760, Note_on_c, 8, 62, 105
10, 80790, Note_on_c, 8, 62, 0
10, 80790, Note_on_c, 8, 62, 105
10, 80820, Note_on_c, 8, 62, 0
10, 80820, Note_on_c, 8, 62, 105
10, 80850, Note_on_c, 8, 62, 0
10, 80850, Note_on_c, 8, 62, 105
10, 80880, Note_on_c, 8, 62, 0
10, 80880, Note_on_c, 8, 62, 106
10, 80910, Note_on_c, 8, 62, 0
10, 80910, Note_on_c, 8, 62, 106
10, 80940, Note_on_c, 8, 62, 0
10, 80940, Note_on_c, 8, 62, 106
10, 80970, Note_on_c, 8, 62, 0
10, 80970, Note_on_c, 8, 62, 107
10, 81000, Note_on_c, 8, 62, 0
10, 81000, Note_on_c, 8, 62, 107
10, 81030, Note_on_c, 8, 62, 0
10, 81030, Note_on_c, 8, 62, 107
10, 81060, Note_on_c, 8, 62, 0
10, 81060, Note_on_c, 8, 62, 107
10, 81090, Note_on_c, 8, 62, 0
10, 81090, Note_on_c, 8, 62, 108
10, 81120, Note_on_c, 8, 62, 0
10, 81120, Note_on_c, 8, 62, 108
10, 81150, Note_on_c, 8, 62, 0
10, 81150, Note_on_c, 8, 62, 108
10, 81180, Note_on_c, 8, 62, 0
10, 81180, Note_on_c, 8, 62, 108
10, 81210, Note_on_c, 8, 62, 0
10, 81210, Note_on_c, 8, 62, 109
10, 81240, Note_on_c, 8, 62, 0
10, 81240, Note_on_c, 8, 62, 109
10, 81270, Note_on_c, 8, 62, 0
10, 81270, Note_on_c, 8, 62, 109
10, 81300, Note_on_c, 8, 62, 0
10, 81300, Note_on_c, 8, 62, 109
10, 81330, Note_on_c, 8, 62, 0
10, 81330, Note_on_c, 8, 62, 110
10, 81360, Note_on_c, 8, 62, 0
10, 81360, Note_on_c, 8, 62, 110
10, 81390, Note_on_c, 8, 62, 0
10, 81390, Note_on_c, 8, 62, 110
10, 81420, Note_on_c, 8, 62, 0
10, 81420, Note_on_c, 8, 62, 110
10, 81450, Note_on_c, 8, 62, 0
10, 81450, Note_on_c, 8, 62, 111
10, 81480, Note_on_c, 8, 62, 0
10, 81480, Note_on_c, 8, 62, 111
10, 81510, Note_on_c, 8, 62, 0
10, 81510, Note_on_c, 8, 62, 111
10, 81540, Note_on_c, 8, 62, 0
10, 81540, Note_on_c, 8, 62, 111
10, 81570, Note_on_c, 8, 62, 0
10, 81570, Note_on_c, 8, 62, 112
10, 81600, Note_on_c, 8, 62, 0
10, 81600, Note_on_c, 8, 62, 112
10, 81630, Note_on_c, 8, 62, 0
10, 81630, Note_on_c, 8, 62, 112
10, 81660, Note_on_c, 8, 62, 0
10, 81660, Note_on_c, 8, 62, 112
10, 81690, Note_on_c, 8, 62, 0
10, 81690, Note_on_c, 8, 62, 113
10, 81720, Note_on_c, 8, 62, 0
10, 81720, Note_on_c, 8, 62, 113
10, 81750, Note_on_c, 8, 62, 0
10, 81750, Note_on_c, 8, 62, 113
10, 81780, Note_on_c, 8, 62, 0
10, 81780, Note_on_c, 8, 62, 114
10, 81810, Note_on_c, 8, 62, 0
10, 81810, Note_on_c, 8, 62, 114
10, 81840, Note_on_c, 8, 62, 0
10, 81840, Note_on_c, 8, 62, 114
10, 81870, Note_on_c, 8, 62, 0
10, 81870, Note_on_c, 8, 62, 114
10, 81900, Note_on_c, 8, 62, 0
10, 81900, Note_on_c, 8, 62, 115
10, 81930, Note_on_c, 8, 62, 0
10, 81930, Note_on_c, 8, 62, 115
10, 81960, Note_on_c, 8, 62, 0
10, 81960, Note_on_c, 8, 62, 115
10, 81990, Note_on_c, 8, 62, 0
10, 81990, Note_on_c, 8, 62, 115
10, 82020, Note_on_c, 8, 62, 0
10, 82020, Note_on_c, 8, 62, 116
10, 82050, Note_on_c, 8, 62, 0
10, 82050, Note_on_c, 8, 62, 116
10, 82080, Note_on_c, 8, 62, 0
10, 82080, Note_on_c, 8, 62, 116
10, 82200, Note_on_c, 8, 62, 0
10, 82260, Note_on_c, 8, 62, 118
10, 82320, Note_on_c, 8, 62, 0
10, 82320, Note_on_c, 8, 69, 118
10, 82380, Note_on_c, 8, 69, 0
10, 82380, Note_on_c, 8, 66, 119
10, 82440, Note_on_c, 8, 66, 0
10, 82440, Note_on_c, 8, 62, 119
10, 82500, Note_on_c, 8, 62, 0
10, 82500, Note_on_c, 8, 57, 120
10, 82560, Note_on_c, 8, 57, 0
10, 82560, Note_on_c, 8, 66, 120
10, 82620, Note_on_c, 8, 66, 0
10, 82620, Note_on_c, 8, 62, 121
10, 82680, Note_on_c, 8, 62, 0
10, 82680, Note_on_c, 8, 57, 121
10, 82740, Note_on_c, 8, 57, 0
10, 82740, Note_on_c, 8, 54, 122
10, 82800, Note_on_c, 8, 54, 0
10, 82800, Note_on_c, 8, 62, 122
10, 82860, Note_on_c, 8, 62, 0
10, 82860, Note_on_c, 8, 69, 123
10, 82920, Note_on_c, 8, 69, 0
10, 82920, Note_on_c, 8, 66, 123
10, 82980, Note_on_c, 8, 66, 0
10, 82980, Note_on_c, 8, 62, 124
10, 83040, Note_on_c, 8, 62, 0
10, 83040, Note_on_c, 8, 69, 127
10, 83100, Note_on_c, 8, 69, 0
10, 83100, Note_on_c, 8, 66, 127
10, 83160, Note_on_c, 8, 66, 0
10, 83160, Note_on_c, 8, 62, 127
10, 83220, Note_on_c, 8, 62, 0
10, 83220, Note_on_c, 8, 57, 127
10, 83280, Note_on_c, 8, 57, 0
10, 83280, Note_on_c, 8, 62, 127
10, 83340, Note_on_c, 8, 62, 0
10, 83340, Note_on_c, 8, 57, 127
10, 83400, Note_on_c, 8, 57, 0
10, 83400, Note_on_c, 8, 62, 127
10, 83460, Note_on_c, 8, 62, 0
10, 83460, Note_on_c, 8, 57, 127
10, 83520, Note_on_c, 8, 57, 0
10, 83520, Note_on_c, 8, 62, 127
10, 83610, Note_on_c, 8, 62, 0
10, 83640, Note_on_c, 8, 62, 127
10, 83730, Note_on_c, 8, 62, 0
10, 83760, Note_on_c, 8, 62, 127
10, 83850, Note_on_c, 8, 62, 0
10, 83850, End_track
11, 0, Start_track
11, 0, MIDI_port, 0
11, 0, Title_t, "Violoncelli"
11, 0, Program_c, 10, 48
11, 0, Control_c, 10, 7, 115
11, 0, Control_c, 10, 10, 105
11, 840, Note_on_c, 10, 59, 50
11, 900, Note_on_c, 10, 59, 0
11, 960, Note_on_c, 10, 64, 50
11, 1020, Note_on_c, 10, 64, 0
11, 1080, Note_on_c, 10, 59, 50
11, 1140, Note_on_c, 10, 59, 0
11, 1200, Note_on_c, 10, 64, 50
11, 1260, Note_on_c, 10, 64, 0
11, 1320, Note_on_c, 10, 59, 50
11, 1380, Note_on_c, 10, 59, 0
11, 1440, Note_on_c, 10, 64, 50
11, 1500, Note_on_c, 10, 64, 0
11, 1560, Note_on_c, 10, 59, 50
11, 1620, Note_on_c, 10, 59, 0
11, 1680, Note_on_c, 10, 64, 50
11, 1740, Note_on_c, 10, 64, 0
11, 2760, Note_on_c, 10, 57, 50
11, 2820, Note_on_c, 10, 57, 0
11, 2880, Note_on_c, 10, 62, 50
11, 2940, Note_on_c, 10, 62, 0
11, 3000, Note_on_c, 10, 57, 50
11, 3060, Note_on_c, 10, 57, 0
11, 3120, Note_on_c, 10, 62, 50
11, 3180, Note_on_c, 10, 62, 0
11, 3240, Note_on_c, 10, 57, 50
11, 3300, Note_on_c, 10, 57, 0
11, 3360, Note_on_c, 10, 62, 50
11, 3420, Note_on_c, 10, 62, 0
11, 3480, Note_on_c, 10, 57, 50
11, 3540, Note_on_c, 10, 57, 0
11, 3600, Note_on_c, 10, 62, 50
11, 3660, Note_on_c, 10, 62, 0
11, 3840, Note_on_c, 10, 50, 100
11, 3960, Note_on_c, 10, 50, 0
11, 4140, Note_on_c, 10, 50, 100
11, 4170, Note_on_c, 10, 50, 0
11, 4200, Note_on_c, 10, 62, 100
11, 4230, Note_on_c, 10, 62, 0
11, 4260, Note_on_c, 10, 50, 100
11, 4290, Note_on_c, 10, 50, 0
11, 4320, Note_on_c, 10, 62, 100
11, 4620, Note_on_c, 10, 62, 0
11, 4620, Note_on_c, 10, 50, 100
11, 4650, Note_on_c, 10, 50, 0
11, 4680, Note_on_c, 10, 62, 100
11, 4710, Note_on_c, 10, 62, 0
11, 4740, Note_on_c, 10, 50, 100
11, 4770, Note_on_c, 10, 50, 0
11, 4800, Note_on_c, 10, 62, 100
11, 5100, Note_on_c, 10, 62, 0
11, 5100, Note_on_c, 10, 50, 100
11, 5130, Note_on_c, 10, 50, 0
11, 5160, Note_on_c, 10, 62, 100
11, 5190, Note_on_c, 10, 62, 0
11, 5220, Note_on_c, 10, 50, 100
11, 5250, Note_on_c, 10, 50, 0
11, 5280, Note_on_c, 10, 62, 100
11, 5580, Note_on_c, 10, 62, 0
11, 5580, Note_on_c, 10, 50, 100
11, 5610, Note_on_c, 10, 50, 0
11, 5640, Note_on_c, 10, 62, 100
11, 5670, Note_on_c, 10, 62, 0
11, 5700, Note_on_c, 10, 50, 100
11, 5730, Note_on_c, 10, 50, 0
11, 5760, Note_on_c, 10, 62, 100
11, 5880, Note_on_c, 10, 62, 0
11, 5880, Note_on_c, 10, 57, 100
11, 6000, Note_on_c, 10, 57, 0
11, 6000, Note_on_c, 10, 54, 100
11, 6120, Note_on_c, 10, 54, 0
11, 6120, Note_on_c, 10, 50, 100
11, 6240, Note_on_c, 10, 50, 0
11, 6240, Note_on_c, 10, 57, 100
11, 6285, Note_on_c, 10, 57, 0
11, 6300, Note_on_c, 10, 57, 100
11, 6345, Note_on_c, 10, 57, 0
11, 6360, Note_on_c, 10, 57, 100
11, 6405, Note_on_c, 10, 57, 0
11, 6420, Note_on_c, 10, 57, 100
11, 6465, Note_on_c, 10, 57, 0
11, 6480, Note_on_c, 10, 57, 100
11, 6525, Note_on_c, 10, 57, 0
11, 6540, Note_on_c, 10, 57, 100
11, 6585, Note_on_c, 10, 57, 0
11, 6600, Note_on_c, 10, 57, 100
11, 6645, Note_on_c, 10, 57, 0
11, 6660, Note_on_c, 10, 57, 100
11, 6705, Note_on_c, 10, 57, 0
11, 6720, Note_on_c, 10, 57, 100
11, 6765, Note_on_c, 10, 57, 0
11, 6780, Note_on_c, 10, 45, 100
11, 6825, Note_on_c, 10, 45, 0
11, 6840, Note_on_c, 10, 45, 100
11, 6885, Note_on_c, 10, 45, 0
11, 6900, Note_on_c, 10, 45, 100
11, 6945, Note_on_c, 10, 45, 0
11, 6960, Note_on_c, 10, 45, 100
11, 7080, Note_on_c, 10, 45, 0
11, 11040, Note_on_c, 10, 53, 100
11, 11160, Note_on_c, 10, 53, 0
11, 11340, Note_on_c, 10, 53, 100
11, 11370, Note_on_c, 10, 53, 0
11, 11400, Note_on_c, 10, 65, 100
11, 11430, Note_on_c, 10, 65, 0
11, 11460, Note_on_c, 10, 53, 100
11, 11490, Note_on_c, 10, 53, 0
11, 11520, Note_on_c, 10, 52, 100
11, 11820, Note_on_c, 10, 52, 0
11, 11820, Note_on_c, 10, 52, 100
11, 11850, Note_on_c, 10, 52, 0
11, 11880, Note_on_c, 10, 64, 100
11, 11910, Note_on_c, 10, 64, 0
11, 11940, Note_on_c, 10, 52, 100
11, 11970, Note_on_c, 10, 52, 0
11, 12000, Note_on_c, 10, 50, 100
11, 12300, Note_on_c, 10, 50, 0
11, 12300, Note_on_c, 10, 50, 100
11, 12330, Note_on_c, 10, 50, 0
11, 12360, Note_on_c, 10, 62, 100
11, 12390, Note_on_c, 10, 62, 0
11, 12420, Note_on_c, 10, 50, 100
11, 12450, Note_on_c, 10, 50, 0
11, 12480, Note_on_c, 10, 51, 100
11, 12780, Note_on_c, 10, 51, 0
11, 12780, Note_on_c, 10, 51, 100
11, 12810, Note_on_c, 10, 51, 0
11, 12840, Note_on_c, 10, 63, 100
11, 12870, Note_on_c, 10, 63, 0
11, 12900, Note_on_c, 10, 51, 100
11, 12930, Note_on_c, 10, 51, 0
11, 12960, Note_on_c, 10, 52, 100
11, 13005, Note_on_c, 10, 52, 0
11, 13020, Note_on_c, 10, 52, 100
11, 13065, Note_on_c, 10, 52, 0
11, 13080, Note_on_c, 10, 52, 100
11, 13125, Note_on_c, 10, 52, 0
11, 13140, Note_on_c, 10, 52, 100
11, 13185, Note_on_c, 10, 52, 0
11, 13200, Note_on_c, 10, 52, 100
11, 13245, Note_on_c, 10, 52, 0
11, 13260, Note_on_c, 10, 52, 100
11, 13305, Note_on_c, 10, 52, 0
11, 13320, Note_on_c, 10, 52, 100
11, 13365, Note_on_c, 10, 52, 0
11, 13380, Note_on_c, 10, 52, 100
11, 13425, Note_on_c, 10, 52, 0
11, 13440, Note_on_c, 10, 52, 100
11, 13485, Note_on_c, 10, 52, 0
11, 13500, Note_on_c, 10, 52, 100
11, 13545, Note_on_c, 10, 52, 0
11, 13560, Note_on_c, 10, 52, 100
11, 13605, Note_on_c, 10, 52, 0
11, 13620, Note_on_c, 10, 52, 100
11, 13665, Note_on_c, 10, 52, 0
11, 13680, Note_on_c, 10, 52, 100
11, 13725, Note_on_c, 10, 52, 0
11, 13740, Note_on_c, 10, 52, 100
11, 13785, Note_on_c, 10, 52, 0
11, 13800, Note_on_c, 10, 52, 100
11, 13845, Note_on_c, 10, 52, 0
11, 13860, Note_on_c, 10, 52, 100
11, 13905, Note_on_c, 10, 52, 0
11, 13920, Note_on_c, 10, 52, 100
11, 13980, Note_on_c, 10, 52, 0
11, 14040, Note_on_c, 10, 64, 100
11, 14070, Note_on_c, 10, 64, 0
11, 14100, Note_on_c, 10, 62, 100
11, 14130, Note_on_c, 10, 62, 0
11, 14160, Note_on_c, 10, 60, 100
11, 14220, Note_on_c, 10, 60, 0
11, 14220, Note_on_c, 10, 64, 100
11, 14280, Note_on_c, 10, 64, 0
11, 14280, Note_on_c, 10, 60, 100
11, 14340, Note_on_c, 10, 60, 0
11, 14340, Note_on_c, 10, 57, 100
11, 14400, Note_on_c, 10, 57, 0
11, 14400, Note_on_c, 10, 56, 100
11, 14460, Note_on_c, 10, 56, 0
11, 14460, Note_on_c, 10, 59, 100
11, 14520, Note_on_c, 10, 59, 0
11, 14520, Note_on_c, 10, 52, 100
11, 14580, Note_on_c, 10, 52, 0
11, 14580, Note_on_c, 10, 50, 100
11, 14640, Note_on_c, 10, 50, 0
11, 14640, Note_on_c, 10, 48, 100
11, 14700, Note_on_c, 10, 48, 0
11, 14700, Note_on_c, 10, 52, 100
11, 14760, Note_on_c, 10, 52, 0
11, 14760, Note_on_c, 10, 48, 100
11, 14820, Note_on_c, 10, 48, 0
11, 14820, Note_on_c, 10, 45, 100
11, 14880, Note_on_c, 10, 45, 0
11, 14880, Note_on_c, 10, 52, 100
11, 15000, Note_on_c, 10, 52, 0
11, 15840, Note_on_c, 10, 57, 40
11, 15960, Note_on_c, 10, 57, 0
11, 16080, Note_on_c, 10, 52, 40
11, 16200, Note_on_c, 10, 52, 0
11, 16320, Note_on_c, 10, 45, 40
11, 16440, Note_on_c, 10, 45, 0
11, 16800, Note_on_c, 10, 57, 40
11, 16920, Note_on_c, 10, 57, 0
11, 17040, Note_on_c, 10, 52, 40
11, 17160, Note_on_c, 10, 52, 0
11, 17280, Note_on_c, 10, 45, 40
11, 17400, Note_on_c, 10, 45, 0
11, 18840, Note_on_c, 10, 47, 50
11, 18930, Note_on_c, 10, 47, 0
11, 18930, Note_on_c, 10, 49, 50
11, 18960, Note_on_c, 10, 49, 0
11, 18960, Note_on_c, 10, 50, 50
11, 19020, Note_on_c, 10, 50, 0
11, 19080, Note_on_c, 10, 51, 50
11, 19140, Note_on_c, 10, 51, 0
11, 19200, Note_on_c, 10, 52, 50
11, 19320, Note_on_c, 10, 52, 0
11, 19680, Note_on_c, 10, 57, 40
11, 19800, Note_on_c, 10, 57, 0
11, 19920, Note_on_c, 10, 52, 40
11, 20040, Note_on_c, 10, 52, 0
11, 20160, Note_on_c, 10, 45, 40
11, 20280, Note_on_c, 10, 45, 0
11, 20640, Note_on_c, 10, 57, 40
11, 20760, Note_on_c, 10, 57, 0
11, 20880, Note_on_c, 10, 52, 40
11, 21000, Note_on_c, 10, 52, 0
11, 21120, Note_on_c, 10, 45, 40
11, 21240, Note_on_c, 10, 45, 0
11, 22800, Note_on_c, 10, 50, 50
11, 22860, Note_on_c, 10, 50, 0
11, 22920, Note_on_c, 10, 54, 50
11, 22980, Note_on_c, 10, 54, 0
11, 23040, Note_on_c, 10, 50, 50
11, 23100, Note_on_c, 10, 50, 0
11, 23160, Note_on_c, 10, 52, 50
11, 23220, Note_on_c, 10, 52, 0
11, 23280, Note_on_c, 10, 45, 50
11, 23400, Note_on_c, 10, 45, 0
11, 26160, Note_on_c, 10, 50, 100
11, 26280, Note_on_c, 10, 50, 0
11, 26460, Note_on_c, 10, 52, 100
11, 26490, Note_on_c, 10, 52, 0
11, 26520, Note_on_c, 10, 45, 100
11, 26550, Note_on_c, 10, 45, 0
11, 26580, Note_on_c, 10, 55, 100
11, 26610, Note_on_c, 10, 55, 0
11, 26640, Note_on_c, 10, 53, 100
11, 26880, Note_on_c, 10, 53, 0
11, 26940, Note_on_c, 10, 52, 100
11, 26970, Note_on_c, 10, 52, 0
11, 27000, Note_on_c, 10, 45, 100
11, 27030, Note_on_c, 10, 45, 0
11, 27060, Note_on_c, 10, 55, 100
11, 27090, Note_on_c, 10, 55, 0
11, 27120, Note_on_c, 10, 53, 100
11, 27360, Note_on_c, 10, 53, 0
11, 27420, Note_on_c, 10, 52, 100
11, 27450, Note_on_c, 10, 52, 0
11, 27480, Note_on_c, 10, 45, 100
11, 27510, Note_on_c, 10, 45, 0
11, 27540, Note_on_c, 10, 55, 100
11, 27570, Note_on_c, 10, 55, 0
11, 27600, Note_on_c, 10, 54, 100
11, 27660, Note_on_c, 10, 54, 0
11, 27660, Note_on_c, 10, 54, 100
11, 27720, Note_on_c, 10, 54, 0
11, 27720, Note_on_c, 10, 54, 100
11, 27780, Note_on_c, 10, 54, 0
11, 27780, Note_on_c, 10, 54, 100
11, 27840, Note_on_c, 10, 54, 0
11, 27840, Note_on_c, 10, 53, 100
11, 27900, Note_on_c, 10, 53, 0
11, 27900, Note_on_c, 10, 53, 100
11, 27960, Note_on_c, 10, 53, 0
11, 27960, Note_on_c, 10, 53, 100
11, 28020, Note_on_c, 10, 53, 0
11, 28020, Note_on_c, 10, 53, 100
11, 28080, Note_on_c, 10, 53, 0
11, 28080, Note_on_c, 10, 52, 100
11, 28140, Note_on_c, 10, 52, 0
11, 28140, Note_on_c, 10, 52, 100
11, 28200, Note_on_c, 10, 52, 0
11, 28200, Note_on_c, 10, 54, 100
11, 28260, Note_on_c, 10, 54, 0
11, 28260, Note_on_c, 10, 54, 100
11, 28320, Note_on_c, 10, 54, 0
11, 28320, Note_on_c, 10, 50, 100
11, 28380, Note_on_c, 10, 50, 0
11, 28380, Note_on_c, 10, 50, 100
11, 28440, Note_on_c, 10, 50, 0
11, 28440, Note_on_c, 10, 52, 100
11, 28500, Note_on_c, 10, 52, 0
11, 28500, Note_on_c, 10, 52, 100
11, 28560, Note_on_c, 10, 52, 0
11, 28560, Note_on_c, 10, 45, 100
11, 28680, Note_on_c, 10, 45, 0
11, 28800, Program_c, 10, 45
11, 28800, Note_on_c, 10, 52, 50
11, 28860, Note_on_c, 10, 52, 0
11, 28920, Note_on_c, 10, 52, 50
11, 28980, Note_on_c, 10, 52, 0
11, 29040, Note_on_c, 10, 57, 50
11, 29100, Note_on_c, 10, 57, 0
11, 29280, Note_on_c, 10, 52, 50
11, 29340, Note_on_c, 10, 52, 0
11, 29400, Note_on_c, 10, 52, 50
11, 29460, Note_on_c, 10, 52, 0
11, 29520, Note_on_c, 10, 57, 50
11, 29580, Note_on_c, 10, 57, 0
11, 29760, Note_on_c, 10, 52, 50
11, 29820, Note_on_c, 10, 52, 0
11, 29880, Note_on_c, 10, 52, 50
11, 29940, Note_on_c, 10, 52, 0
11, 30000, Note_on_c, 10, 57, 50
11, 30060, Note_on_c, 10, 57, 0
11, 30960, Program_c, 10, 48
11, 30960, Note_on_c, 10, 57, 50
11, 31080, Note_on_c, 10, 57, 0
11, 31200, Note_on_c, 10, 50, 50
11, 31320, Note_on_c, 10, 50, 0
11, 31440, Note_on_c, 10, 52, 50
11, 31560, Note_on_c, 10, 52, 0
11, 31680, Note_on_c, 10, 52, 50
11, 31800, Note_on_c, 10, 52, 0
11, 31920, Note_on_c, 10, 57, 50
11, 32040, Note_on_c, 10, 57, 0
11, 32160, Note_on_c, 10, 50, 50
11, 32280, Note_on_c, 10, 50, 0
11, 32400, Note_on_c, 10, 52, 50
11, 32520, Note_on_c, 10, 52, 0
11, 32640, Note_on_c, 10, 52, 50
11, 32760, Note_on_c, 10, 52, 0
11, 32880, Note_on_c, 10, 57, 100
11, 33180, Note_on_c, 10, 57, 0
11, 33180, Note_on_c, 10, 45, 102
11, 33210, Note_on_c, 10, 45, 0
11, 33240, Note_on_c, 10, 49, 103
11, 33270, Note_on_c, 10, 49, 0
11, 33300, Note_on_c, 10, 45, 103
11, 33330, Note_on_c, 10, 45, 0
11, 33360, Note_on_c, 10, 57, 104
11, 33660, Note_on_c, 10, 57, 0
11, 33660, Note_on_c, 10, 45, 107
11, 33690, Note_on_c, 10, 45, 0
11, 33720, Note_on_c, 10, 49, 107
11, 33750, Note_on_c, 10, 49, 0
11, 33780, Note_on_c, 10, 45, 108
11, 33810, Note_on_c, 10, 45, 0
11, 33840, Note_on_c, 10, 57, 109
11, 34140, Note_on_c, 10, 57, 0
11, 34140, Note_on_c, 10, 45, 111
11, 34170, Note_on_c, 10, 45, 0
11, 34200, Note_on_c, 10, 49, 112
11, 34230, Note_on_c, 10, 49, 0
11, 34260, Note_on_c, 10, 45, 112
11, 34290, Note_on_c, 10, 45, 0
11, 34320, Note_on_c, 10, 57, 113
11, 34440, Note_on_c, 10, 57, 0
11, 34980, Note_on_c, 10, 57, 119
11, 35040, Note_on_c, 10, 57, 0
11, 35040, Note_on_c, 10, 64, 120
11, 35100, Note_on_c, 10, 64, 0
11, 35100, Note_on_c, 10, 61, 120
11, 35160, Note_on_c, 10, 61, 0
11, 35160, Note_on_c, 10, 57, 121
11, 35220, Note_on_c, 10, 57, 0
11, 35220, Note_on_c, 10, 52, 121
11, 35280, Note_on_c, 10, 52, 0
11, 35280, Note_on_c, 10, 61, 122
11, 35340, Note_on_c, 10, 61, 0
11, 35340, Note_on_c, 10, 57, 123
11, 35400, Note_on_c, 10, 57, 0
11, 35400, Note_on_c, 10, 52, 123
11, 35460, Note_on_c, 10, 52, 0
11, 35460, Note_on_c, 10, 49, 124
11, 35520, Note_on_c, 10, 49, 0
11, 35520, Note_on_c, 10, 57, 124
11, 35580, Note_on_c, 10, 57, 0
11, 35580, Note_on_c, 10, 52, 125
11, 35640, Note_on_c, 10, 52, 0
11, 35640, Note_on_c, 10, 49, 125
11, 35700, Note_on_c, 10, 49, 0
11, 35700, Note_on_c, 10, 45, 126
11, 35760, Note_on_c, 10, 45, 0
11, 35760, Note_on_c, 10, 57, 127
11, 35850, Note_on_c, 10, 57, 0
11, 35880, Note_on_c, 10, 57, 127
11, 35970, Note_on_c, 10, 57, 0
11, 36000, Note_on_c, 10, 45, 127
11, 36090, Note_on_c, 10, 45, 0
11, 36240, Note_on_c, 10, 61, 127
11, 36480, Note_on_c, 10, 61, 0
11, 36480, Note_on_c, 10, 57, 127
11, 36600, Note_on_c, 10, 57, 0
11, 36600, Note_on_c, 10, 52, 127
11, 36720, Note_on_c, 10, 52, 0
11, 36720, Note_on_c, 10, 49, 127
11, 36960, Note_on_c, 10, 49, 0
11, 36960, Note_on_c, 10, 45, 127
11, 37200, Note_on_c, 10, 45, 0
11, 38160, Note_on_c, 10, 62, 100
11, 38400, Note_on_c, 10, 62, 0
11, 38400, Note_on_c, 10, 59, 100
11, 38520, Note_on_c, 10, 59, 0
11, 38520, Note_on_c, 10, 56, 100
11, 38640, Note_on_c, 10, 56, 0
11, 38640, Note_on_c, 10, 50, 100
11, 38880, Note_on_c, 10, 50, 0
11, 38880, Note_on_c, 10, 47, 100
11, 39120, Note_on_c, 10, 47, 0
11, 40080, Note_on_c, 10, 64, 100
11, 40320, Note_on_c, 10, 64, 0
11, 40320, Note_on_c, 10, 61, 100
11, 40440, Note_on_c, 10, 61, 0
11, 40440, Note_on_c, 10, 58, 100
11, 40560, Note_on_c, 10, 58, 0
11, 40560, Note_on_c, 10, 52, 100
11, 40800, Note_on_c, 10, 52, 0
11, 40800, Note_on_c, 10, 49, 100
11, 41040, Note_on_c, 10, 49, 0
11, 42000, Program_c, 10, 45
11, 42000, Note_on_c, 10, 59, 50
11, 42120, Note_on_c, 10, 59, 0
11, 42240, Note_on_c, 10, 57, 50
11, 42360, Note_on_c, 10, 57, 0
11, 42480, Note_on_c, 10, 56, 50
11, 42600, Note_on_c, 10, 56, 0
11, 42720, Note_on_c, 10, 52, 50
11, 42840, Note_on_c, 10, 52, 0
11, 42960, Note_on_c, 10, 57, 50
11, 43080, Note_on_c, 10, 57, 0
11, 43200, Note_on_c, 10, 55, 50
11, 43320, Note_on_c, 10, 55, 0
11, 43440, Note_on_c, 10, 54, 50
11, 43560, Note_on_c, 10, 54, 0
11, 43680, Note_on_c, 10, 50, 50
11, 43800, Note_on_c, 10, 50, 0
11, 43920, Program_c, 10, 48
11, 43920, Note_on_c, 10, 43, 100
11, 43920, Note_on_c, 10, 55, 100
11, 44040, Note_on_c, 10, 55, 0
11, 44040, Note_on_c, 10, 43, 0
11, 44220, Note_on_c, 10, 55, 100
11, 44250, Note_on_c, 10, 55, 0
11, 44280, Note_on_c, 10, 59, 100
11, 44310, Note_on_c, 10, 59, 0
11, 44340, Note_on_c, 10, 55, 100
11, 44370, Note_on_c, 10, 55, 0
11, 44400, Note_on_c, 10, 64, 100
11, 44460, Note_on_c, 10, 64, 0
11, 44520, Note_on_c, 10, 62, 100
11, 44580, Note_on_c, 10, 62, 0
11, 44640, Note_on_c, 10, 60, 100
11, 44700, Note_on_c, 10, 60, 0
11, 44760, Note_on_c, 10, 59, 100
11, 44820, Note_on_c, 10, 59, 0
11, 44880, Note_on_c, 10, 57, 100
11, 44940, Note_on_c, 10, 57, 0
11, 44940, Note_on_c, 10, 50, 100
11, 44970, Note_on_c, 10, 50, 0
11, 45000, Note_on_c, 10, 54, 100
11, 45030, Note_on_c, 10, 54, 0
11, 45060, Note_on_c, 10, 50, 100
11, 45090, Note_on_c, 10, 50, 0
11, 45120, Note_on_c, 10, 60, 100
11, 45420, Note_on_c, 10, 60, 0
11, 45420, Note_on_c, 10, 59, 100
11, 45540, Note_on_c, 10, 59, 0
11, 45540, Note_on_c, 10, 57, 100
11, 45660, Note_on_c, 10, 57, 0
11, 45660, Note_on_c, 10, 55, 100
11, 45780, Note_on_c, 10, 55, 0
11, 45780, Note_on_c, 10, 53, 100
11, 45840, Note_on_c, 10, 53, 0
11, 45840, Note_on_c, 10, 52, 100
11, 45960, Note_on_c, 10, 52, 0
11, 46140, Note_on_c, 10, 57, 100
11, 46170, Note_on_c, 10, 57, 0
11, 46200, Note_on_c, 10, 60, 100
11, 46230, Note_on_c, 10, 60, 0
11, 46260, Note_on_c, 10, 57, 100
11, 46290, Note_on_c, 10, 57, 0
11, 46320, Note_on_c, 10, 65, 100
11, 46380, Note_on_c, 10, 65, 0
11, 46440, Note_on_c, 10, 64, 100
11, 46500, Note_on_c, 10, 64, 0
11, 46560, Note_on_c, 10, 62, 100
11, 46620, Note_on_c, 10, 62, 0
11, 46680, Note_on_c, 10, 60, 100
11, 46740, Note_on_c, 10, 60, 0
11, 46800, Note_on_c, 10, 59, 100
11, 46860, Note_on_c, 10, 59, 0
11, 46860, Note_on_c, 10, 52, 100
11, 46890, Note_on_c, 10, 52, 0
11, 46920, Note_on_c, 10, 56, 100
11, 46950, Note_on_c, 10, 56, 0
11, 46980, Note_on_c, 10, 52, 100
11, 47010, Note_on_c, 10, 52, 0
11, 47040, Note_on_c, 10, 62, 100
11, 47340, Note_on_c, 10, 62, 0
11, 47340, Note_on_c, 10, 60, 100
11, 47460, Note_on_c, 10, 60, 0
11, 47460, Note_on_c, 10, 59, 100
11, 47580, Note_on_c, 10, 59, 0
11, 47580, Note_on_c, 10, 57, 100
11, 47700, Note_on_c, 10, 57, 0
11, 47700, Note_on_c, 10, 55, 100
11, 47760, Note_on_c, 10, 55, 0
11, 47760, Note_on_c, 10, 54, 100
11, 47880, Note_on_c, 10, 54, 0
11, 48060, Note_on_c, 10, 59, 100
11, 48090, Note_on_c, 10, 59, 0
11, 48120, Note_on_c, 10, 62, 100
11, 48150, Note_on_c, 10, 62, 0
11, 48180, Note_on_c, 10, 59, 100
11, 48210, Note_on_c, 10, 59, 0
11, 48240, Note_on_c, 10, 67, 100
11, 48300, Note_on_c, 10, 67, 0
11, 48360, Note_on_c, 10, 66, 100
11, 48420, Note_on_c, 10, 66, 0
11, 48480, Note_on_c, 10, 64, 100
11, 48540, Note_on_c, 10, 64, 0
11, 48600, Note_on_c, 10, 62, 100
11, 48660, Note_on_c, 10, 62, 0
11, 48720, Note_on_c, 10, 64, 100
11, 48780, Note_on_c, 10, 64, 0
11, 48780, Note_on_c, 10, 52, 100
11, 48840, Note_on_c, 10, 52, 0
11, 48840, Note_on_c, 10, 52, 100
11, 48900, Note_on_c, 10, 52, 0
11, 48900, Note_on_c, 10, 52, 100
11, 48960, Note_on_c, 10, 52, 0
11, 48960, Note_on_c, 10, 54, 100
11, 49020, Note_on_c, 10, 54, 0
11, 49020, Note_on_c, 10, 54, 100
11, 49080, Note_on_c, 10, 54, 0
11, 49080, Note_on_c, 10, 54, 100
11, 49140, Note_on_c, 10, 54, 0
11, 49140, Note_on_c, 10, 54, 100
11, 49200, Note_on_c, 10, 54, 0
11, 49200, Note_on_c, 10, 55, 100
11, 49320, Note_on_c, 10, 55, 0
11, 49440, Note_on_c, 10, 50, 50
11, 49560, Note_on_c, 10, 50, 0
11, 49680, Note_on_c, 10, 52, 50
11, 49800, Note_on_c, 10, 52, 0
11, 49920, Note_on_c, 10, 54, 50
11, 50040, Note_on_c, 10, 54, 0
11, 50160, Note_on_c, 10, 55, 50
11, 50400, Note_on_c, 10, 55, 0
11, 50400, Note_on_c, 10, 52, 50
11, 50640, Note_on_c, 10, 52, 0
11, 50640, Note_on_c, 10, 54, 50
11, 50880, Note_on_c, 10, 54, 0
11, 50880, Note_on_c, 10, 51, 50
11, 51120, Note_on_c, 10, 51, 0
11, 51120, Note_on_c, 10, 52, 50
11, 51360, Note_on_c, 10, 52, 0
11, 51360, Note_on_c, 10, 49, 50
11, 51600, Note_on_c, 10, 49, 0
11, 51600, Note_on_c, 10, 50, 50
11, 51720, Note_on_c, 10, 50, 0
11, 52440, Note_on_c, 10, 59, 50
11, 52500, Note_on_c, 10, 59, 0
11, 52560, Note_on_c, 10, 64, 50
11, 52620, Note_on_c, 10, 64, 0
11, 52680, Note_on_c, 10, 59, 50
11, 52740, Note_on_c, 10, 59, 0
11, 52800, Note_on_c, 10, 64, 50
11, 52860, Note_on_c, 10, 64, 0
11, 52920, Note_on_c, 10, 59, 50
11, 52980, Note_on_c, 10, 59, 0
11, 53040, Note_on_c, 10, 64, 50
11, 53100, Note_on_c, 10, 64, 0
11, 53160, Note_on_c, 10, 59, 50
11, 53220, Note_on_c, 10, 59, 0
11, 53280, Note_on_c, 10, 64, 50
11, 53340, Note_on_c, 10, 64, 0
11, 54480, Note_on_c, 10, 58, 115
11, 54720, Note_on_c, 10, 58, 0
11, 54720, Note_on_c, 10, 55, 115
11, 54810, Note_on_c, 10, 55, 0
11, 54840, Note_on_c, 10, 50, 115
11, 54930, Note_on_c, 10, 50, 0
11, 54960, Note_on_c, 10, 46, 115
11, 55200, Note_on_c, 10, 46, 0
11, 55200, Note_on_c, 10, 43, 115
11, 55440, Note_on_c, 10, 43, 0
11, 56400, Note_on_c, 10, 63, 115
11, 56640, Note_on_c, 10, 63, 0
11, 56640, Note_on_c, 10, 60, 115
11, 56730, Note_on_c, 10, 60, 0
11, 56760, Note_on_c, 10, 57, 115
11, 56850, Note_on_c, 10, 57, 0
11, 56880, Note_on_c, 10, 51, 115
11, 57120, Note_on_c, 10, 51, 0
11, 57120, Note_on_c, 10, 41, 115
11, 57360, Note_on_c, 10, 41, 0
11, 58320, Note_on_c, 10, 58, 100
11, 58440, Note_on_c, 10, 58, 0
11, 58620, Note_on_c, 10, 58, 100
11, 58650, Note_on_c, 10, 58, 0
11, 58680, Note_on_c, 10, 46, 100
11, 58710, Note_on_c, 10, 46, 0
11, 58740, Note_on_c, 10, 58, 100
11, 58770, Note_on_c, 10, 58, 0
11, 58800, Note_on_c, 10, 57, 100
11, 59100, Note_on_c, 10, 57, 0
11, 59100, Note_on_c, 10, 57, 100
11, 59130, Note_on_c, 10, 57, 0
11, 59160, Note_on_c, 10, 45, 100
11, 59190, Note_on_c, 10, 45, 0
11, 59220, Note_on_c, 10, 57, 100
11, 59250, Note_on_c, 10, 57, 0
11, 59280, Note_on_c, 10, 55, 100
11, 59580, Note_on_c, 10, 55, 0
11, 59580, Note_on_c, 10, 55, 100
11, 59610, Note_on_c, 10, 55, 0
11, 59640, Note_on_c, 10, 43, 100
11, 59670, Note_on_c, 10, 43, 0
11, 59700, Note_on_c, 10, 55, 100
11, 59730, Note_on_c, 10, 55, 0
11, 59760, Note_on_c, 10, 56, 100
11, 60060, Note_on_c, 10, 56, 0
11, 60060, Note_on_c, 10, 56, 100
11, 60090, Note_on_c, 10, 56, 0
11, 60120, Note_on_c, 10, 44, 100
11, 60150, Note_on_c, 10, 44, 0
11, 60180, Note_on_c, 10, 56, 100
11, 60210, Note_on_c, 10, 56, 0
11, 60240, Note_on_c, 10, 57, 100
11, 60285, Note_on_c, 10, 57, 0
11, 60300, Note_on_c, 10, 57, 100
11, 60345, Note_on_c, 10, 57, 0
11, 60360, Note_on_c, 10, 57, 100
11, 60405, Note_on_c, 10, 57, 0
11, 60420, Note_on_c, 10, 57, 100
11, 60465, Note_on_c, 10, 57, 0
11, 60480, Note_on_c, 10, 57, 100
11, 60525, Note_on_c, 10, 57, 0
11, 60540, Note_on_c, 10, 57, 100
11, 60585, Note_on_c, 10, 57, 0
11, 60600, Note_on_c, 10, 57, 100
11, 60645, Note_on_c, 10, 57, 0
11, 60660, Note_on_c, 10, 57, 100
11, 60705, Note_on_c, 10, 57, 0
11, 60720, Note_on_c, 10, 57, 100
11, 60765, Note_on_c, 10, 57, 0
11, 60780, Note_on_c, 10, 57, 100
11, 60825, Note_on_c, 10, 57, 0
11, 60840, Note_on_c, 10, 57, 100
11, 60885, Note_on_c, 10, 57, 0
11, 60900, Note_on_c, 10, 57, 100
11, 60945, Note_on_c, 10, 57, 0
11, 60960, Note_on_c, 10, 57, 100
11, 61005, Note_on_c, 10, 57, 0
11, 61020, Note_on_c, 10, 57, 100
11, 61065, Note_on_c, 10, 57, 0
11, 61080, Note_on_c, 10, 57, 100
11, 61125, Note_on_c, 10, 57, 0
11, 61140, Note_on_c, 10, 57, 100
11, 61185, Note_on_c, 10, 57, 0
11, 61200, Note_on_c, 10, 57, 100
11, 61260, Note_on_c, 10, 57, 0
11, 61560, Note_on_c, 10, 65, 100
11, 61620, Note_on_c, 10, 65, 0
11, 61620, Note_on_c, 10, 62, 100
11, 61680, Note_on_c, 10, 62, 0
11, 61680, Note_on_c, 10, 61, 100
11, 61740, Note_on_c, 10, 61, 0
11, 61740, Note_on_c, 10, 64, 100
11, 61800, Note_on_c, 10, 64, 0
11, 61800, Note_on_c, 10, 57, 100
11, 61860, Note_on_c, 10, 57, 0
11, 61860, Note_on_c, 10, 55, 100
11, 61920, Note_on_c, 10, 55, 0
11, 61920, Note_on_c, 10, 53, 100
11, 61980, Note_on_c, 10, 53, 0
11, 61980, Note_on_c, 10, 57, 100
11, 62040, Note_on_c, 10, 57, 0
11, 62040, Note_on_c, 10, 53, 100
11, 62100, Note_on_c, 10, 53, 0
11, 62100, Note_on_c, 10, 50, 100
11, 62160, Note_on_c, 10, 50, 0
11, 62160, Note_on_c, 10, 45, 100
11, 62280, Note_on_c, 10, 45, 0
11, 63120, Note_on_c, 10, 62, 40
11, 63240, Note_on_c, 10, 62, 0
11, 63360, Note_on_c, 10, 57, 40
11, 63480, Note_on_c, 10, 57, 0
11, 63600, Note_on_c, 10, 50, 40
11, 63720, Note_on_c, 10, 50, 0
11, 64080, Note_on_c, 10, 62, 40
11, 64200, Note_on_c, 10, 62, 0
11, 64320, Note_on_c, 10, 57, 40
11, 64440, Note_on_c, 10, 57, 0
11, 64560, Note_on_c, 10, 50, 40
11, 64680, Note_on_c, 10, 50, 0
11, 66120, Note_on_c, 10, 52, 50
11, 66210, Note_on_c, 10, 52, 0
11, 66210, Note_on_c, 10, 54, 50
11, 66240, Note_on_c, 10, 54, 0
11, 66240, Note_on_c, 10, 55, 50
11, 66300, Note_on_c, 10, 55, 0
11, 66360, Note_on_c, 10, 56, 50
11, 66420, Note_on_c, 10, 56, 0
11, 66480, Note_on_c, 10, 57, 50
11, 66600, Note_on_c, 10, 57, 0
11, 66960, Note_on_c, 10, 62, 40
11, 67080, Note_on_c, 10, 62, 0
11, 67200, Note_on_c, 10, 57, 40
11, 67320, Note_on_c, 10, 57, 0
11, 67440, Note_on_c, 10, 50, 40
11, 67560, Note_on_c, 10, 50, 0
11, 67920, Note_on_c, 10, 62, 40
11, 68040, Note_on_c, 10, 62, 0
11, 68160, Note_on_c, 10, 57, 40
11, 68280, Note_on_c, 10, 57, 0
11, 68400, Note_on_c, 10, 50, 40
11, 68520, Note_on_c, 10, 50, 0
11, 70080, Note_on_c, 10, 57, 50
11, 70140, Note_on_c, 10, 57, 0
11, 70200, Note_on_c, 10, 59, 50
11, 70260, Note_on_c, 10, 59, 0
11, 70320, Note_on_c, 10, 55, 50
11, 70380, Note_on_c, 10, 55, 0
11, 70440, Note_on_c, 10, 57, 50
11, 70500, Note_on_c, 10, 57, 0
11, 70560, Note_on_c, 10, 50, 50
11, 70680, Note_on_c, 10, 50, 0
11, 73440, Note_on_c, 10, 43, 100
11, 73440, Note_on_c, 10, 55, 100
11, 73560, Note_on_c, 10, 55, 0
11, 73560, Note_on_c, 10, 43, 0
11, 73740, Note_on_c, 10, 57, 100
11, 73770, Note_on_c, 10, 57, 0
11, 73800, Note_on_c, 10, 50, 100
11, 73830, Note_on_c, 10, 50, 0
11, 73860, Note_on_c, 10, 60, 100
11, 73890, Note_on_c, 10, 60, 0
11, 73920, Note_on_c, 10, 58, 100
11, 74160, Note_on_c, 10, 58, 0
11, 74220, Note_on_c, 10, 57, 100
11, 74250, Note_on_c, 10, 57, 0
11, 74280, Note_on_c, 10, 50, 100
11, 74310, Note_on_c, 10, 50, 0
11, 74340, Note_on_c, 10, 60, 100
11, 74370, Note_on_c, 10, 60, 0
11, 74400, Note_on_c, 10, 58, 100
11, 74640, Note_on_c, 10, 58, 0
11, 74700, Note_on_c, 10, 57, 100
11, 74730, Note_on_c, 10, 57, 0
11, 74760, Note_on_c, 10, 50, 100
11, 74790, Note_on_c, 10, 50, 0
11, 74820, Note_on_c, 10, 60, 100
11, 74850, Note_on_c, 10, 60, 0
11, 74880, Note_on_c, 10, 59, 100
11, 74940, Note_on_c, 10, 59, 0
11, 74940, Note_on_c, 10, 59, 100
11, 75000, Note_on_c, 10, 59, 0
11, 75000, Note_on_c, 10, 59, 100
11, 75060, Note_on_c, 10, 59, 0
11, 75060, Note_on_c, 10, 59, 100
11, 75120, Note_on_c, 10, 59, 0
11, 75120, Note_on_c, 10, 58, 100
11, 75180, Note_on_c, 10, 58, 0
11, 75180, Note_on_c, 10, 58, 100
11, 75240, Note_on_c, 10, 58, 0
11, 75240, Note_on_c, 10, 58, 100
11, 75300, Note_on_c, 10, 58, 0
11, 75300, Note_on_c, 10, 58, 100
11, 75360, Note_on_c, 10, 58, 0
11, 75360, Note_on_c, 10, 57, 100
11, 75420, Note_on_c, 10, 57, 0
11, 75420, Note_on_c, 10, 57, 100
11, 75480, Note_on_c, 10, 57, 0
11, 75480, Note_on_c, 10, 59, 100
11, 75540, Note_on_c, 10, 59, 0
11, 75540, Note_on_c, 10, 59, 100
11, 75600, Note_on_c, 10, 59, 0
11, 75600, Note_on_c, 10, 55, 100
11, 75660, Note_on_c, 10, 55, 0
11, 75660, Note_on_c, 10, 55, 100
11, 75720, Note_on_c, 10, 55, 0
11, 75720, Note_on_c, 10, 57, 100
11, 75780, Note_on_c, 10, 57, 0
11, 75780, Note_on_c, 10, 57, 100
11, 75840, Note_on_c, 10, 57, 0
11, 75840, Note_on_c, 10, 50, 100
11, 75960, Note_on_c, 10, 50, 0
11, 76080, Program_c, 10, 45
11, 76080, Note_on_c, 10, 57, 50
11, 76140, Note_on_c, 10, 57, 0
11, 76200, Note_on_c, 10, 45, 50
11, 76260, Note_on_c, 10, 45, 0
11, 76320, Note_on_c, 10, 50, 50
11, 76380, Note_on_c, 10, 50, 0
11, 76560, Note_on_c, 10, 57, 50
11, 76620, Note_on_c, 10, 57, 0
11, 76680, Note_on_c, 10, 45, 50
11, 76740, Note_on_c, 10, 45, 0
11, 76800, Note_on_c, 10, 50, 50
11, 76860, Note_on_c, 10, 50, 0
11, 77040, Note_on_c, 10, 57, 50
11, 77100, Note_on_c, 10, 57, 0
11, 77160, Note_on_c, 10, 45, 50
11, 77220, Note_on_c, 10, 45, 0
11, 77280, Note_on_c, 10, 50, 50
11, 77340, Note_on_c, 10, 50, 0
11, 78240, Program_c, 10, 48
11, 78240, Note_on_c, 10, 62, 50
11, 78360, Note_on_c, 10, 62, 0
11, 78480, Note_on_c, 10, 55, 50
11, 78600, Note_on_c, 10, 55, 0
11, 78720, Note_on_c, 10, 57, 50
11, 78840, Note_on_c, 10, 57, 0
11, 78960, Note_on_c, 10, 57, 50
11, 79080, Note_on_c, 10, 57, 0
11, 79200, Note_on_c, 10, 62, 50
11, 79320, Note_on_c, 10, 62, 0
11, 79440, Note_on_c, 10, 55, 50
11, 79560, Note_on_c, 10, 55, 0
11, 79680, Note_on_c, 10, 57, 50
11, 79800, Note_on_c, 10, 57, 0
11, 79920, Note_on_c, 10, 57, 50
11, 80040, Note_on_c, 10, 57, 0
11, 80160, Note_on_c, 10, 62, 100
11, 80460, Note_on_c, 10, 62, 0
11, 80460, Note_on_c, 10, 50, 102
11, 80490, Note_on_c, 10, 50, 0
11, 80520, Note_on_c, 10, 54, 103
11, 80550, Note_on_c, 10, 54, 0
11, 80580, Note_on_c, 10, 50, 103
11, 80610, Note_on_c, 10, 50, 0
11, 80640, Note_on_c, 10, 62, 104
11, 80940, Note_on_c, 10, 62, 0
11, 80940, Note_on_c, 10, 50, 106
11, 80970, Note_on_c, 10, 50, 0
11, 81000, Note_on_c, 10, 54, 107
11, 81030, Note_on_c, 10, 54, 0
11, 81060, Note_on_c, 10, 50, 107
11, 81090, Note_on_c, 10, 50, 0
11, 81120, Note_on_c, 10, 62, 108
11, 81420, Note_on_c, 10, 62, 0
11, 81420, Note_on_c, 10, 50, 110
11, 81450, Note_on_c, 10, 50, 0
11, 81480, Note_on_c, 10, 54, 111
11, 81510, Note_on_c, 10, 54, 0
11, 81540, Note_on_c, 10, 50, 111
11, 81570, Note_on_c, 10, 50, 0
11, 81600, Note_on_c, 10, 62, 112
11, 81900, Note_on_c, 10, 62, 0
11, 81900, Note_on_c, 10, 50, 115
11, 81930, Note_on_c, 10, 50, 0
11, 81960, Note_on_c, 10, 54, 115
11, 81990, Note_on_c, 10, 54, 0
11, 82020, Note_on_c, 10, 50, 116
11, 82050, Note_on_c, 10, 50, 0
11, 82080, Note_on_c, 10, 62, 116
11, 82200, Note_on_c, 10, 62, 0
11, 82500, Note_on_c, 10, 57, 120
11, 82560, Note_on_c, 10, 57, 0
11, 82560, Note_on_c, 10, 66, 120
11, 82620, Note_on_c, 10, 66, 0
11, 82620, Note_on_c, 10, 62, 121
11, 82680, Note_on_c, 10, 62, 0
11, 82680, Note_on_c, 10, 57, 121
11, 82740, Note_on_c, 10, 57, 0
11, 82740, Note_on_c, 10, 54, 122
11, 82800, Note_on_c, 10, 54, 0
11, 82800, Note_on_c, 10, 62, 122
11, 82860, Note_on_c, 10, 62, 0
11, 82860, Note_on_c, 10, 57, 123
11, 82920, Note_on_c, 10, 57, 0
11, 82920, Note_on_c, 10, 54, 123
11, 82980, Note_on_c, 10, 54, 0
11, 82980, Note_on_c, 10, 50, 124
11, 83040, Note_on_c, 10, 50, 0
11, 83040, Note_on_c, 10, 57, 127
11, 83100, Note_on_c, 10, 57, 0
11, 83100, Note_on_c, 10, 54, 127
11, 83160, Note_on_c, 10, 54, 0
11, 83160, Note_on_c, 10, 50, 127
11, 83220, Note_on_c, 10, 50, 0
11, 83220, Note_on_c, 10, 45, 127
11, 83280, Note_on_c, 10, 45, 0
11, 83280, Note_on_c, 10, 50, 127
11, 83340, Note_on_c, 10, 50, 0
11, 83340, Note_on_c, 10, 45, 127
11, 83400, Note_on_c, 10, 45, 0
11, 83400, Note_on_c, 10, 50, 127
11, 83460, Note_on_c, 10, 50, 0
11, 83460, Note_on_c, 10, 45, 127
11, 83520, Note_on_c, 10, 45, 0
11, 83520, Note_on_c, 10, 50, 127
11, 83610, Note_on_c, 10, 50, 0
11, 83640, Note_on_c, 10, 50, 127
11, 83730, Note_on_c, 10, 50, 0
11, 83760, Note_on_c, 10, 50, 127
11, 83850, Note_on_c, 10, 50, 0
11, 83850, End_track
12, 0, Start_track
12, 0, MIDI_port, 0
12, 0, Title_t, "Contrabassi"
12, 0, Program_c, 11, 48
12, 0, Control_c, 11, 7, 115
12, 0, Control_c, 11, 10, 120
12, 840, Note_on_c, 11, 47, 50
12, 900, Note_on_c, 11, 47, 0
12, 960, Note_on_c, 11, 52, 50
12, 1020, Note_on_c, 11, 52, 0
12, 1080, Note_on_c, 11, 47, 50
12, 1140, Note_on_c, 11, 47, 0
12, 1200, Note_on_c, 11, 52, 50
12, 1260, Note_on_c, 11, 52, 0
12, 1320, Note_on_c, 11, 47, 50
12, 1380, Note_on_c, 11, 47, 0
12, 1440, Note_on_c, 11, 52, 50
12, 1500, Note_on_c, 11, 52, 0
12, 1560, Note_on_c, 11, 47, 50
12, 1620, Note_on_c, 11, 47, 0
12, 1680, Note_on_c, 11, 52, 50
12, 1740, Note_on_c, 11, 52, 0
12, 2760, Note_on_c, 11, 45, 50
12, 2820, Note_on_c, 11, 45, 0
12, 2880, Note_on_c, 11, 50, 50
12, 2940, Note_on_c, 11, 50, 0
12, 3000, Note_on_c, 11, 45, 50
12, 3060, Note_on_c, 11, 45, 0
12, 3120, Note_on_c, 11, 50, 50
12, 3180, Note_on_c, 11, 50, 0
12, 3240, Note_on_c, 11, 45, 50
12, 3300, Note_on_c, 11, 45, 0
12, 3360, Note_on_c, 11, 50, 50
12, 3420, Note_on_c, 11, 50, 0
12, 3480, Note_on_c, 11, 45, 50
12, 3540, Note_on_c, 11, 45, 0
12, 3600, Note_on_c, 11, 50, 50
12, 3660, Note_on_c, 11, 50, 0
12, 3840, Note_on_c, 11, 38, 100
12, 3960, Note_on_c, 11, 38, 0
12, 4140, Note_on_c, 11, 38, 100
12, 4170, Note_on_c, 11, 38, 0
12, 4200, Note_on_c, 11, 50, 100
12, 4230, Note_on_c, 11, 50, 0
12, 4260, Note_on_c, 11, 38, 100
12, 4290, Note_on_c, 11, 38, 0
12, 4320, Note_on_c, 11, 50, 100
12, 4620, Note_on_c, 11, 50, 0
12, 4620, Note_on_c, 11, 38, 100
12, 4650, Note_on_c, 11, 38, 0
12, 4680, Note_on_c, 11, 50, 100
12, 4710, Note_on_c, 11, 50, 0
12, 4740, Note_on_c, 11, 38, 100
12, 4770, Note_on_c, 11, 38, 0
12, 4800, Note_on_c, 11, 50, 100
12, 5100, Note_on_c, 11, 50, 0
12, 5100, Note_on_c, 11, 38, 100
12, 5130, Note_on_c, 11, 38, 0
12, 5160, Note_on_c, 11, 50, 100
12, 5190, Note_on_c, 11, 50, 0
12, 5220, Note_on_c, 11, 38, 100
12, 5250, Note_on_c, 11, 38, 0
12, 5280, Note_on_c, 11, 50, 100
12, 5580, Note_on_c, 11, 50, 0
12, 5580, Note_on_c, 11, 38, 100
12, 5610, Note_on_c, 11, 38, 0
12, 5640, Note_on_c, 11, 50, 100
12, 5670, Note_on_c, 11, 50, 0
12, 5700, Note_on_c, 11, 38, 100
12, 5730, Note_on_c, 11, 38, 0
12, 5760, Note_on_c, 11, 50, 100
12, 5880, Note_on_c, 11, 50, 0
12, 5880, Note_on_c, 11, 45, 100
12, 6000, Note_on_c, 11, 45, 0
12, 6000, Note_on_c, 11, 42, 100
12, 6120, Note_on_c, 11, 42, 0
12, 6120, Note_on_c, 11, 38, 100
12, 6240, Note_on_c, 11, 38, 0
12, 6240, Note_on_c, 11, 45, 100
12, 6285, Note_on_c, 11, 45, 0
12, 6300, Note_on_c, 11, 45, 100
12, 6345, Note_on_c, 11, 45, 0
12, 6360, Note_on_c, 11, 45, 100
12, 6405, Note_on_c, 11, 45, 0
12, 6420, Note_on_c, 11, 45, 100
12, 6465, Note_on_c, 11, 45, 0
12, 6480, Note_on_c, 11, 45, 100
12, 6525, Note_on_c, 11, 45, 0
12, 6540, Note_on_c, 11, 45, 100
12, 6585, Note_on_c, 11, 45, 0
12, 6600, Note_on_c, 11, 45, 100
12, 6645, Note_on_c, 11, 45, 0
12, 6660, Note_on_c, 11, 45, 100
12, 6705, Note_on_c, 11, 45, 0
12, 6720, Note_on_c, 11, 45, 100
12, 6765, Note_on_c, 11, 45, 0
12, 6780, Note_on_c, 11, 33, 100
12, 6825, Note_on_c, 11, 33, 0
12, 6840, Note_on_c, 11, 33, 100
12, 6885, Note_on_c, 11, 33, 0
12, 6900, Note_on_c, 11, 33, 100
12, 6945, Note_on_c, 11, 33, 0
12, 6960, Note_on_c, 11, 33, 100
12, 7080, Note_on_c, 11, 33, 0
12, 11040, Note_on_c, 11, 41, 100
12, 11160, Note_on_c, 11, 41, 0
12, 11340, Note_on_c, 11, 41, 100
12, 11370, Note_on_c, 11, 41, 0
12, 11400, Note_on_c, 11, 53, 100
12, 11430, Note_on_c, 11, 53, 0
12, 11460, Note_on_c, 11, 41, 100
12, 11490, Note_on_c, 11, 41, 0
12, 11520, Note_on_c, 11, 40, 100
12, 11820, Note_on_c, 11, 40, 0
12, 11820, Note_on_c, 11, 40, 100
12, 11850, Note_on_c, 11, 40, 0
12, 11880, Note_on_c, 11, 52, 100
12, 11910, Note_on_c, 11, 52, 0
12, 11940, Note_on_c, 11, 40, 100
12, 11970, Note_on_c, 11, 40, 0
12, 12000, Note_on_c, 11, 38, 100
12, 12300, Note_on_c, 11, 38, 0
12, 12300, Note_on_c, 11, 38, 100
12, 12330, Note_on_c, 11, 38, 0
12, 12360, Note_on_c, 11, 50, 100
12, 12390, Note_on_c, 11, 50, 0
12, 12420, Note_on_c, 11, 38, 100
12, 12450, Note_on_c, 11, 38, 0
12, 12480, Note_on_c, 11, 39, 100
12, 12780, Note_on_c, 11, 39, 0
12, 12780, Note_on_c, 11, 39, 100
12, 12810, Note_on_c, 11, 39, 0
12, 12840, Note_on_c, 11, 51, 100
12, 12870, Note_on_c, 11, 51, 0
12, 12900, Note_on_c, 11, 39, 100
12, 12930, Note_on_c, 11, 39, 0
12, 12960, Note_on_c, 11, 40, 100
12, 13005, Note_on_c, 11, 40, 0
12, 13020, Note_on_c, 11, 40, 100
12, 13065, Note_on_c, 11, 40, 0
12, 13080, Note_on_c, 11, 40, 100
12, 13125, Note_on_c, 11, 40, 0
12, 13140, Note_on_c, 11, 40, 100
12, 13185, Note_on_c, 11, 40, 0
12, 13200, Note_on_c, 11, 40, 100
12, 13245, Note_on_c, 11, 40, 0
12, 13260, Note_on_c, 11, 40, 100
12, 13305, Note_on_c, 11, 40, 0
12, 13320, Note_on_c, 11, 40, 100
12, 13365, Note_on_c, 11, 40, 0
12, 13380, Note_on_c, 11, 40, 100
12, 13425, Note_on_c, 11, 40, 0
12, 13440, Note_on_c, 11, 40, 100
12, 13485, Note_on_c, 11, 40, 0
12, 13500, Note_on_c, 11, 40, 100
12, 13545, Note_on_c, 11, 40, 0
12, 13560, Note_on_c, 11, 40, 100
12, 13605, Note_on_c, 11, 40, 0
12, 13620, Note_on_c, 11, 40, 100
12, 13665, Note_on_c, 11, 40, 0
12, 13680, Note_on_c, 11, 40, 100
12, 13725, Note_on_c, 11, 40, 0
12, 13740, Note_on_c, 11, 40, 100
12, 13785, Note_on_c, 11, 40, 0
12, 13800, Note_on_c, 11, 40, 100
12, 13845, Note_on_c, 11, 40, 0
12, 13860, Note_on_c, 11, 40, 100
12, 13905, Note_on_c, 11, 40, 0
12, 13920, Note_on_c, 11, 40, 100
12, 13980, Note_on_c, 11, 40, 0
12, 14040, Note_on_c, 11, 52, 100
12, 14070, Note_on_c, 11, 52, 0
12, 14100, Note_on_c, 11, 50, 100
12, 14130, Note_on_c, 11, 50, 0
12, 14160, Note_on_c, 11, 48, 100
12, 14220, Note_on_c, 11, 48, 0
12, 14220, Note_on_c, 11, 52, 100
12, 14280, Note_on_c, 11, 52, 0
12, 14280, Note_on_c, 11, 48, 100
12, 14340, Note_on_c, 11, 48, 0
12, 14340, Note_on_c, 11, 45, 100
12, 14400, Note_on_c, 11, 45, 0
12, 14400, Note_on_c, 11, 44, 100
12, 14460, Note_on_c, 11, 44, 0
12, 14460, Note_on_c, 11, 47, 100
12, 14520, Note_on_c, 11, 47, 0
12, 14520, Note_on_c, 11, 40, 100
12, 14580, Note_on_c, 11, 40, 0
12, 14580, Note_on_c, 11, 38, 100
12, 14640, Note_on_c, 11, 38, 0
12, 14640, Note_on_c, 11, 36, 100
12, 14700, Note_on_c, 11, 36, 0
12, 14700, Note_on_c, 11, 40, 100
12, 14760, Note_on_c, 11, 40, 0
12, 14760, Note_on_c, 11, 36, 100
12, 14820, Note_on_c, 11, 36, 0
12, 14820, Note_on_c, 11, 33, 100
12, 14880, Note_on_c, 11, 33, 0
12, 14880, Note_on_c, 11, 40, 100
12, 15000, Note_on_c, 11, 40, 0
12, 15840, Note_on_c, 11, 45, 40
12, 15960, Note_on_c, 11, 45, 0
12, 16080, Note_on_c, 11, 40, 40
12, 16200, Note_on_c, 11, 40, 0
12, 16320, Note_on_c, 11, 33, 40
12, 16440, Note_on_c, 11, 33, 0
12, 16800, Note_on_c, 11, 45, 40
12, 16920, Note_on_c, 11, 45, 0
12, 17040, Note_on_c, 11, 40, 40
12, 17160, Note_on_c, 11, 40, 0
12, 17280, Note_on_c, 11, 33, 40
12, 17400, Note_on_c, 11, 33, 0
12, 18840, Note_on_c, 11, 35, 50
12, 18930, Note_on_c, 11, 35, 0
12, 18930, Note_on_c, 11, 37, 50
12, 18960, Note_on_c, 11, 37, 0
12, 18960, Note_on_c, 11, 38, 50
12, 19020, Note_on_c, 11, 38, 0
12, 19080, Note_on_c, 11, 39, 50
12, 19140, Note_on_c, 11, 39, 0
12, 19200, Note_on_c, 11, 40, 50
12, 19320, Note_on_c, 11, 40, 0
12, 19680, Note_on_c, 11, 45, 40
12, 19800, Note_on_c, 11, 45, 0
12, 19920, Note_on_c, 11, 40, 40
12, 20040, Note_on_c, 11, 40, 0
12, 20160, Note_on_c, 11, 33, 40
12, 20280, Note_on_c, 11, 33, 0
12, 20640, Note_on_c, 11, 45, 40
12, 20760, Note_on_c, 11, 45, 0
12, 20880, Note_on_c, 11, 40, 40
12, 21000, Note_on_c, 11, 40, 0
12, 21120, Note_on_c, 11, 33, 40
12, 21240, Note_on_c, 11, 33, 0
12, 22800, Note_on_c, 11, 38, 50
12, 22860, Note_on_c, 11, 38, 0
12, 22920, Note_on_c, 11, 42, 50
12, 22980, Note_on_c, 11, 42, 0
12, 23040, Note_on_c, 11, 38, 50
12, 23100, Note_on_c, 11, 38, 0
12, 23160, Note_on_c, 11, 40, 50
12, 23220, Note_on_c, 11, 40, 0
12, 23280, Note_on_c, 11, 33, 50
12, 23400, Note_on_c, 11, 33, 0
12, 26160, Note_on_c, 11, 38, 100
12, 26280, Note_on_c, 11, 38, 0
12, 26460, Note_on_c, 11, 40, 100
12, 26490, Note_on_c, 11, 40, 0
12, 26520, Note_on_c, 11, 33, 100
12, 26550, Note_on_c, 11, 33, 0
12, 26580, Note_on_c, 11, 43, 100
12, 26610, Note_on_c, 11, 43, 0
12, 26640, Note_on_c, 11, 41, 100
12, 26880, Note_on_c, 11, 41, 0
12, 26940, Note_on_c, 11, 40, 100
12, 26970, Note_on_c, 11, 40, 0
12, 27000, Note_on_c, 11, 33, 100
12, 27030, Note_on_c, 11, 33, 0
12, 27060, Note_on_c, 11, 43, 100
12, 27090, Note_on_c, 11, 43, 0
12, 27120, Note_on_c, 11, 41, 100
12, 27360, Note_on_c, 11, 41, 0
12, 27420, Note_on_c, 11, 40, 100
12, 27450, Note_on_c, 11, 40, 0
12, 27480, Note_on_c, 11, 33, 100
12, 27510, Note_on_c, 11, 33, 0
12, 27540, Note_on_c, 11, 43, 100
12, 27570, Note_on_c, 11, 43, 0
12, 27600, Note_on_c, 11, 42, 100
12, 27660, Note_on_c, 11, 42, 0
12, 27660, Note_on_c, 11, 42, 100
12, 27720, Note_on_c, 11, 42, 0
12, 27720, Note_on_c, 11, 42, 100
12, 27780, Note_on_c, 11, 42, 0
12, 27780, Note_on_c, 11, 42, 100
12, 27840, Note_on_c, 11, 42, 0
12, 27840, Note_on_c, 11, 41, 100
12, 27900, Note_on_c, 11, 41, 0
12, 27900, Note_on_c, 11, 41, 100
12, 27960, Note_on_c, 11, 41, 0
12, 27960, Note_on_c, 11, 41, 100
12, 28020, Note_on_c, 11, 41, 0
12, 28020, Note_on_c, 11, 41, 100
12, 28080, Note_on_c, 11, 41, 0
12, 28080, Note_on_c, 11, 40, 100
12, 28140, Note_on_c, 11, 40, 0
12, 28140, Note_on_c, 11, 40, 100
12, 28200, Note_on_c, 11, 40, 0
12, 28200, Note_on_c, 11, 42, 100
12, 28260, Note_on_c, 11, 42, 0
12, 28260, Note_on_c, 11, 42, 100
12, 28320, Note_on_c, 11, 42, 0
12, 28320, Note_on_c, 11, 38, 100
12, 28380, Note_on_c, 11, 38, 0
12, 28380, Note_on_c, 11, 38, 100
12, 28440, Note_on_c, 11, 38, 0
12, 28440, Note_on_c, 11, 40, 100
12, 28500, Note_on_c, 11, 40, 0
12, 28500, Note_on_c, 11, 40, 100
12, 28560, Note_on_c, 11, 40, 0
12, 28800, Program_c, 11, 45
12, 28800, Note_on_c, 11, 40, 50
12, 28860, Note_on_c, 11, 40, 0
12, 28920, Note_on_c, 11, 40, 50
12, 28980, Note_on_c, 11, 40, 0
12, 29040, Note_on_c, 11, 45, 50
12, 29100, Note_on_c, 11, 45, 0
12, 29280, Note_on_c, 11, 40, 50
12, 29340, Note_on_c, 11, 40, 0
12, 29400, Note_on_c, 11, 40, 50
12, 29460, Note_on_c, 11, 40, 0
12, 29520, Note_on_c, 11, 45, 50
12, 29580, Note_on_c, 11, 45, 0
12, 29760, Note_on_c, 11, 40, 50
12, 29820, Note_on_c, 11, 40, 0
12, 29880, Note_on_c, 11, 40, 50
12, 29940, Note_on_c, 11, 40, 0
12, 30000, Note_on_c, 11, 45, 50
12, 30060, Note_on_c, 11, 45, 0
12, 30960, Program_c, 11, 48
12, 30960, Note_on_c, 11, 45, 50
12, 31080, Note_on_c, 11, 45, 0
12, 31200, Note_on_c, 11, 38, 50
12, 31320, Note_on_c, 11, 38, 0
12, 31440, Note_on_c, 11, 40, 50
12, 31560, Note_on_c, 11, 40, 0
12, 31680, Note_on_c, 11, 40, 50
12, 31800, Note_on_c, 11, 40, 0
12, 31920, Note_on_c, 11, 45, 50
12, 32040, Note_on_c, 11, 45, 0
12, 32160, Note_on_c, 11, 38, 50
12, 32280, Note_on_c, 11, 38, 0
12, 32400, Note_on_c, 11, 40, 50
12, 32520, Note_on_c, 11, 40, 0
12, 32640, Note_on_c, 11, 40, 50
12, 32760, Note_on_c, 11, 40, 0
12, 32880, Note_on_c, 11, 45, 100
12, 33180, Note_on_c, 11, 45, 0
12, 33180, Note_on_c, 11, 33, 102
12, 33210, Note_on_c, 11, 33, 0
12, 33240, Note_on_c, 11, 37, 103
12, 33270, Note_on_c, 11, 37, 0
12, 33300, Note_on_c, 11, 33, 103
12, 33330, Note_on_c, 11, 33, 0
12, 33360, Note_on_c, 11, 45, 104
12, 33660, Note_on_c, 11, 45, 0
12, 33660, Note_on_c, 11, 33, 107
12, 33690, Note_on_c, 11, 33, 0
12, 33720, Note_on_c, 11, 37, 107
12, 33750, Note_on_c, 11, 37, 0
12, 33780, Note_on_c, 11, 33, 108
12, 33810, Note_on_c, 11, 33, 0
12, 33840, Note_on_c, 11, 45, 109
12, 34140, Note_on_c, 11, 45, 0
12, 34140, Note_on_c, 11, 33, 111
12, 34170, Note_on_c, 11, 33, 0
12, 34200, Note_on_c, 11, 37, 112
12, 34230, Note_on_c, 11, 37, 0
12, 34260, Note_on_c, 11, 33, 112
12, 34290, Note_on_c, 11, 33, 0
12, 34320, Note_on_c, 11, 45, 113
12, 34440, Note_on_c, 11, 45, 0
12, 34980, Note_on_c, 11, 45, 119
12, 35040, Note_on_c, 11, 45, 0
12, 35040, Note_on_c, 11, 52, 120
12, 35100, Note_on_c, 11, 52, 0
12, 35100, Note_on_c, 11, 49, 120
12, 35160, Note_on_c, 11, 49, 0
12, 35160, Note_on_c, 11, 45, 121
12, 35220, Note_on_c, 11, 45, 0
12, 35220, Note_on_c, 11, 40, 121
12, 35280, Note_on_c, 11, 40, 0
12, 35280, Note_on_c, 11, 49, 122
12, 35340, Note_on_c, 11, 49, 0
12, 35340, Note_on_c, 11, 45, 123
12, 35400, Note_on_c, 11, 45, 0
12, 35400, Note_on_c, 11, 40, 123
12, 35460, Note_on_c, 11, 40, 0
12, 35460, Note_on_c, 11, 37, 124
12, 35520, Note_on_c, 11, 37, 0
12, 35520, Note_on_c, 11, 45, 124
12, 35580, Note_on_c, 11, 45, 0
12, 35580, Note_on_c, 11, 40, 125
12, 35640, Note_on_c, 11, 40, 0
12, 35640, Note_on_c, 11, 37, 125
12, 35700, Note_on_c, 11, 37, 0
12, 35700, Note_on_c, 11, 33, 126
12, 35760, Note_on_c, 11, 33, 0
12, 35760, Note_on_c, 11, 45, 127
12, 35850, Note_on_c, 11, 45, 0
12, 35880, Note_on_c, 11, 45, 127
12, 35970, Note_on_c, 11, 45, 0
12, 36000, Note_on_c, 11, 33, 127
12, 36090, Note_on_c, 11, 33, 0
12, 36240, Note_on_c, 11, 49, 127
12, 36480, Note_on_c, 11, 49, 0
12, 36480, Note_on_c, 11, 45, 127
12, 36600, Note_on_c, 11, 45, 0
12, 36600, Note_on_c, 11, 40, 127
12, 36720, Note_on_c, 11, 40, 0
12, 36720, Note_on_c, 11, 37, 127
12, 36960, Note_on_c, 11, 37, 0
12, 36960, Note_on_c, 11, 33, 127
12, 37200, Note_on_c, 11, 33, 0
12, 38160, Note_on_c, 11, 50, 100
12, 38400, Note_on_c, 11, 50, 0
12, 38400, Note_on_c, 11, 47, 100
12, 38520, Note_on_c, 11, 47, 0
12, 38520, Note_on_c, 11, 44, 100
12, 38640, Note_on_c, 11, 44, 0
12, 38640, Note_on_c, 11, 38, 100
12, 38880, Note_on_c, 11, 38, 0
12, 38880, Note_on_c, 11, 35, 100
12, 39120, Note_on_c, 11, 35, 0
12, 40080, Note_on_c, 11, 52, 100
12, 40320, Note_on_c, 11, 52, 0
12, 40320, Note_on_c, 11, 49, 100
12, 40440, Note_on_c, 11, 49, 0
12, 40440, Note_on_c, 11, 46, 100
12, 40560, Note_on_c, 11, 46, 0
12, 40560, Note_on_c, 11, 40, 100
12, 40800, Note_on_c, 11, 40, 0
12, 40800, Note_on_c, 11, 37, 100
12, 41040, Note_on_c, 11, 37, 0
12, 42000, Program_c, 11, 45
12, 42000, Note_on_c, 11, 47, 50
12, 42120, Note_on_c, 11, 47, 0
12, 42240, Note_on_c, 11, 45, 50
12, 42360, Note_on_c, 11, 45, 0
12, 42480, Note_on_c, 11, 44, 50
12, 42600, Note_on_c, 11, 44, 0
12, 42720, Note_on_c, 11, 40, 50
12, 42840, Note_on_c, 11, 40, 0
12, 42960, Note_on_c, 11, 45, 50
12, 43080, Note_on_c, 11, 45, 0
12, 43200, Note_on_c, 11, 43, 50
12, 43320, Note_on_c, 11, 43, 0
12, 43440, Note_on_c, 11, 42, 50
12, 43560, Note_on_c, 11, 42, 0
12, 43680, Note_on_c, 11, 38, 50
12, 43800, Note_on_c, 11, 38, 0
12, 43920, Program_c, 11, 48
12, 43920, Note_on_c, 11, 31, 100
12, 43920, Note_on_c, 11, 43, 100
12, 44040, Note_on_c, 11, 43, 0
12, 44040, Note_on_c, 11, 31, 0
12, 44220, Note_on_c, 11, 43, 100
12, 44250, Note_on_c, 11, 43, 0
12, 44280, Note_on_c, 11, 47, 100
12, 44310, Note_on_c, 11, 47, 0
12, 44340, Note_on_c, 11, 43, 100
12, 44370, Note_on_c, 11, 43, 0
12, 44400, Note_on_c, 11, 52, 100
12, 44460, Note_on_c, 11, 52, 0
12, 44520, Note_on_c, 11, 50, 100
12, 44580, Note_on_c, 11, 50, 0
12, 44640, Note_on_c, 11, 48, 100
12, 44700, Note_on_c, 11, 48, 0
12, 44760, Note_on_c, 11, 47, 100
12, 44820, Note_on_c, 11, 47, 0
12, 44880, Note_on_c, 11, 45, 100
12, 44940, Note_on_c, 11, 45, 0
12, 44940, Note_on_c, 11, 38, 100
12, 44970, Note_on_c, 11, 38, 0
12, 45000, Note_on_c, 11, 42, 100
12, 45030, Note_on_c, 11, 42, 0
12, 45060, Note_on_c, 11, 38, 100
12, 45090, Note_on_c, 11, 38, 0
12, 45120, Note_on_c, 11, 48, 100
12, 45420, Note_on_c, 11, 48, 0
12, 45420, Note_on_c, 11, 47, 100
12, 45540, Note_on_c, 11, 47, 0
12, 45540, Note_on_c, 11, 45, 100
12, 45660, Note_on_c, 11, 45, 0
12, 45660, Note_on_c, 11, 43, 100
12, 45780, Note_on_c, 11, 43, 0
12, 45780, Note_on_c, 11, 41, 100
12, 45840, Note_on_c, 11, 41, 0
12, 45840, Note_on_c, 11, 40, 100
12, 45960, Note_on_c, 11, 40, 0
12, 46140, Note_on_c, 11, 45, 100
12, 46170, Note_on_c, 11, 45, 0
12, 46200, Note_on_c, 11, 48, 100
12, 46230, Note_on_c, 11, 48, 0
12, 46260, Note_on_c, 11, 45, 100
12, 46290, Note_on_c, 11, 45, 0
12, 46320, Note_on_c, 11, 53, 100
12, 46380, Note_on_c, 11, 53, 0
12, 46440, Note_on_c, 11, 52, 100
12, 46500, Note_on_c, 11, 52, 0
12, 46560, Note_on_c, 11, 50, 100
12, 46620, Note_on_c, 11, 50, 0
12, 46680, Note_on_c, 11, 48, 100
12, 46740, Note_on_c, 11, 48, 0
12, 46800, Note_on_c, 11, 47, 100
12, 46860, Note_on_c, 11, 47, 0
12, 46860, Note_on_c, 11, 40, 100
12, 46890, Note_on_c, 11, 40, 0
12, 46920, Note_on_c, 11, 44, 100
12, 46950, Note_on_c, 11, 44, 0
12, 46980, Note_on_c, 11, 40, 100
12, 47010, Note_on_c, 11, 40, 0
12, 47040, Note_on_c, 11, 50, 100
12, 47340, Note_on_c, 11, 50, 0
12, 47340, Note_on_c, 11, 48, 100
12, 47460, Note_on_c, 11, 48, 0
12, 47460, Note_on_c, 11, 47, 100
12, 47580, Note_on_c, 11, 47, 0
12, 47580, Note_on_c, 11, 45, 100
12, 47700, Note_on_c, 11, 45, 0
12, 47700, Note_on_c, 11, 43, 100
12, 47760, Note_on_c, 11, 43, 0
12, 47760, Note_on_c, 11, 42, 100
12, 47880, Note_on_c, 11, 42, 0
12, 48060, Note_on_c, 11, 47, 100
12, 48090, Note_on_c, 11, 47, 0
12, 48120, Note_on_c, 11, 50, 100
12, 48150, Note_on_c, 11, 50, 0
12, 48180, Note_on_c, 11, 47, 100
12, 48210, Note_on_c, 11, 47, 0
12, 48240, Note_on_c, 11, 55, 100
12, 48300, Note_on_c, 11, 55, 0
12, 48360, Note_on_c, 11, 54, 100
12, 48420, Note_on_c, 11, 54, 0
12, 48480, Note_on_c, 11, 52, 100
12, 48540, Note_on_c, 11, 52, 0
12, 48600, Note_on_c, 11, 50, 100
12, 48660, Note_on_c, 11, 50, 0
12, 48720, Note_on_c, 11, 52, 100
12, 48780, Note_on_c, 11, 52, 0
12, 48780, Note_on_c, 11, 40, 100
12, 48840, Note_on_c, 11, 40, 0
12, 48840, Note_on_c, 11, 40, 100
12, 48900, Note_on_c, 11, 40, 0
12, 48900, Note_on_c, 11, 40, 100
12, 48960, Note_on_c, 11, 40, 0
12, 48960, Note_on_c, 11, 42, 100
12, 49020, Note_on_c, 11, 42, 0
12, 49020, Note_on_c, 11, 42, 100
12, 49080, Note_on_c, 11, 42, 0
12, 49080, Note_on_c, 11, 42, 100
12, 49140, Note_on_c, 11, 42, 0
12, 49140, Note_on_c, 11, 42, 100
12, 49200, Note_on_c, 11, 42, 0
12, 49200, Note_on_c, 11, 43, 100
12, 49320, Note_on_c, 11, 43, 0
12, 49440, Note_on_c, 11, 38, 50
12, 49560, Note_on_c, 11, 38, 0
12, 49680, Note_on_c, 11, 40, 50
12, 49800, Note_on_c, 11, 40, 0
12, 49920, Note_on_c, 11, 42, 50
12, 50040, Note_on_c, 11, 42, 0
12, 50160, Note_on_c, 11, 43, 50
12, 50400, Note_on_c, 11, 43, 0
12, 50400, Note_on_c, 11, 40, 50
12, 50640, Note_on_c, 11, 40, 0
12, 50640, Note_on_c, 11, 42, 50
12, 50880, Note_on_c, 11, 42, 0
12, 50880, Note_on_c, 11, 39, 50
12, 51120, Note_on_c, 11, 39, 0
12, 51120, Note_on_c, 11, 40, 50
12, 51360, Note_on_c, 11, 40, 0
12, 51360, Note_on_c, 11, 37, 50
12, 51600, Note_on_c, 11, 37, 0
12, 51600, Note_on_c, 11, 38, 50
12, 51720, Note_on_c, 11, 38, 0
12, 52440, Note_on_c, 11, 47, 50
12, 52500, Note_on_c, 11, 47, 0
12, 52560, Note_on_c, 11, 52, 50
12, 52620, Note_on_c, 11, 52, 0
12, 52680, Note_on_c, 11, 47, 50
12, 52740, Note_on_c, 11, 47, 0
12, 52800, Note_on_c, 11, 52, 50
12, 52860, Note_on_c, 11, 52, 0
12, 52920, Note_on_c, 11, 47, 50
12, 52980, Note_on_c, 11, 47, 0
12, 53040, Note_on_c, 11, 52, 50
12, 53100, Note_on_c, 11, 52, 0
12, 53160, Note_on_c, 11, 47, 50
12, 53220, Note_on_c, 11, 47, 0
12, 53280, Note_on_c, 11, 52, 50
12, 53340, Note_on_c, 11, 52, 0
12, 54480, Note_on_c, 11, 46, 115
12, 54720, Note_on_c, 11, 46, 0
12, 54720, Note_on_c, 11, 43, 115
12, 54810, Note_on_c, 11, 43, 0
12, 54840, Note_on_c, 11, 38, 115
12, 54930, Note_on_c, 11, 38, 0
12, 54960, Note_on_c, 11, 34, 115
12, 55200, Note_on_c, 11, 34, 0
12, 55200, Note_on_c, 11, 31, 115
12, 55440, Note_on_c, 11, 31, 0
12, 56400, Note_on_c, 11, 51, 115
12, 56640, Note_on_c, 11, 51, 0
12, 56640, Note_on_c, 11, 48, 115
12, 56730, Note_on_c, 11, 48, 0
12, 56760, Note_on_c, 11, 45, 115
12, 56850, Note_on_c, 11, 45, 0
12, 56880, Note_on_c, 11, 39, 115
12, 57120, Note_on_c, 11, 39, 0
12, 57120, Note_on_c, 11, 29, 115
12, 57360, Note_on_c, 11, 29, 0
12, 58320, Note_on_c, 11, 46, 100
12, 58440, Note_on_c, 11, 46, 0
12, 58620, Note_on_c, 11, 46, 100
12, 58650, Note_on_c, 11, 46, 0
12, 58680, Note_on_c, 11, 34, 100
12, 58710, Note_on_c, 11, 34, 0
12, 58740, Note_on_c, 11, 46, 100
12, 58770, Note_on_c, 11, 46, 0
12, 58800, Note_on_c, 11, 45, 100
12, 59100, Note_on_c, 11, 45, 0
12, 59100, Note_on_c, 11, 45, 100
12, 59130, Note_on_c, 11, 45, 0
12, 59160, Note_on_c, 11, 33, 100
12, 59190, Note_on_c, 11, 33, 0
12, 59220, Note_on_c, 11, 45, 100
12, 59250, Note_on_c, 11, 45, 0
12, 59280, Note_on_c, 11, 43, 100
12, 59580, Note_on_c, 11, 43, 0
12, 59580, Note_on_c, 11, 43, 100
12, 59610, Note_on_c, 11, 43, 0
12, 59640, Note_on_c, 11, 31, 100
12, 59670, Note_on_c, 11, 31, 0
12, 59700, Note_on_c, 11, 43, 100
12, 59730, Note_on_c, 11, 43, 0
12, 59760, Note_on_c, 11, 44, 100
12, 60060, Note_on_c, 11, 44, 0
12, 60060, Note_on_c, 11, 44, 100
12, 60090, Note_on_c, 11, 44, 0
12, 60120, Note_on_c, 11, 32, 100
12, 60150, Note_on_c, 11, 32, 0
12, 60180, Note_on_c, 11, 44, 100
12, 60210, Note_on_c, 11, 44, 0
12, 60240, Note_on_c, 11, 45, 100
12, 60285, Note_on_c, 11, 45, 0
12, 60300, Note_on_c, 11, 45, 100
12, 60345, Note_on_c, 11, 45, 0
12, 60360, Note_on_c, 11, 45, 100
12, 60405, Note_on_c, 11, 45, 0
12, 60420, Note_on_c, 11, 45, 100
12, 60465, Note_on_c, 11, 45, 0
12, 60480, Note_on_c, 11, 45, 100
12, 60525, Note_on_c, 11, 45, 0
12, 60540, Note_on_c, 11, 45, 100
12, 60585, Note_on_c, 11, 45, 0
12, 60600, Note_on_c, 11, 45, 100
12, 60645, Note_on_c, 11, 45, 0
12, 60660, Note_on_c, 11, 45, 100
12, 60705, Note_on_c, 11, 45, 0
12, 60720, Note_on_c, 11, 45, 100
12, 60765, Note_on_c, 11, 45, 0
12, 60780, Note_on_c, 11, 45, 100
12, 60825, Note_on_c, 11, 45, 0
12, 60840, Note_on_c, 11, 45, 100
12, 60885, Note_on_c, 11, 45, 0
12, 60900, Note_on_c, 11, 45, 100
12, 60945, Note_on_c, 11, 45, 0
12, 60960, Note_on_c, 11, 45, 100
12, 61005, Note_on_c, 11, 45, 0
12, 61020, Note_on_c, 11, 45, 100
12, 61065, Note_on_c, 11, 45, 0
12, 61080, Note_on_c, 11, 45, 100
12, 61125, Note_on_c, 11, 45, 0
12, 61140, Note_on_c, 11, 45, 100
12, 61185, Note_on_c, 11, 45, 0
12, 61200, Note_on_c, 11, 45, 100
12, 61260, Note_on_c, 11, 45, 0
12, 61560, Note_on_c, 11, 53, 100
12, 61620, Note_on_c, 11, 53, 0
12, 61620, Note_on_c, 11, 50, 100
12, 61680, Note_on_c, 11, 50, 0
12, 61680, Note_on_c, 11, 49, 100
12, 61740, Note_on_c, 11, 49, 0
12, 61740, Note_on_c, 11, 52, 100
12, 61800, Note_on_c, 11, 52, 0
12, 61800, Note_on_c, 11, 45, 100
12, 61860, Note_on_c, 11, 45, 0
12, 61860, Note_on_c, 11, 43, 100
12, 61920, Note_on_c, 11, 43, 0
12, 61920, Note_on_c, 11, 41, 100
12, 61980, Note_on_c, 11, 41, 0
12, 61980, Note_on_c, 11, 45, 100
12, 62040, Note_on_c, 11, 45, 0
12, 62040, Note_on_c, 11, 41, 100
12, 62100, Note_on_c, 11, 41, 0
12, 62100, Note_on_c, 11, 38, 100
12, 62160, Note_on_c, 11, 38, 0
12, 62160, Note_on_c, 11, 33, 100
12, 62280, Note_on_c, 11, 33, 0
12, 63120, Note_on_c, 11, 50, 40
12, 63240, Note_on_c, 11, 50, 0
12, 63360, Note_on_c, 11, 45, 40
12, 63480, Note_on_c, 11, 45, 0
12, 63600, Note_on_c, 11, 38, 40
12, 63720, Note_on_c, 11, 38, 0
12, 64080, Note_on_c, 11, 50, 40
12, 64200, Note_on_c, 11, 50, 0
12, 64320, Note_on_c, 11, 45, 40
12, 64440, Note_on_c, 11, 45, 0
12, 64560, Note_on_c, 11, 38, 40
12, 64680, Note_on_c, 11, 38, 0
12, 66120, Note_on_c, 11, 40, 50
12, 66210, Note_on_c, 11, 40, 0
12, 66210, Note_on_c, 11, 42, 50
12, 66240, Note_on_c, 11, 42, 0
12, 66240, Note_on_c, 11, 43, 50
12, 66300, Note_on_c, 11, 43, 0
12, 66360, Note_on_c, 11, 44, 50
12, 66420, Note_on_c, 11, 44, 0
12, 66480, Note_on_c, 11, 45, 50
12, 66600, Note_on_c, 11, 45, 0
12, 66960, Note_on_c, 11, 50, 40
12, 67080, Note_on_c, 11, 50, 0
12, 67200, Note_on_c, 11, 45, 40
12, 67320, Note_on_c, 11, 45, 0
12, 67440, Note_on_c, 11, 38, 40
12, 67560, Note_on_c, 11, 38, 0
12, 67920, Note_on_c, 11, 50, 40
12, 68040, Note_on_c, 11, 50, 0
12, 68160, Note_on_c, 11, 45, 40
12, 68280, Note_on_c, 11, 45, 0
12, 68400, Note_on_c, 11, 38, 40
12, 68520, Note_on_c, 11, 38, 0
12, 70080, Note_on_c, 11, 45, 50
12, 70140, Note_on_c, 11, 45, 0
12, 70200, Note_on_c, 11, 47, 50
12, 70260, Note_on_c, 11, 47, 0
12, 70320, Note_on_c, 11, 43, 50
12, 70380, Note_on_c, 11, 43, 0
12, 70440, Note_on_c, 11, 45, 50
12, 70500, Note_on_c, 11, 45, 0
12, 70560, Note_on_c, 11, 38, 50
12, 70680, Note_on_c, 11, 38, 0
12, 73440, Note_on_c, 11, 31, 100
12, 73440, Note_on_c, 11, 43, 100
12, 73560, Note_on_c, 11, 43, 0
12, 73560, Note_on_c, 11, 31, 0
12, 73740, Note_on_c, 11, 45, 100
12, 73770, Note_on_c, 11, 45, 0
12, 73800, Note_on_c, 11, 38, 100
12, 73830, Note_on_c, 11, 38, 0
12, 73860, Note_on_c, 11, 48, 100
12, 73890, Note_on_c, 11, 48, 0
12, 73920, Note_on_c, 11, 46, 100
12, 74160, Note_on_c, 11, 46, 0
12, 74220, Note_on_c, 11, 45, 100
12, 74250, Note_on_c, 11, 45, 0
12, 74280, Note_on_c, 11, 38, 100
12, 74310, Note_on_c, 11, 38, 0
12, 74340, Note_on_c, 11, 48, 100
12, 74370, Note_on_c, 11, 48, 0
12, 74400, Note_on_c, 11, 46, 100
12, 74640, Note_on_c, 11, 46, 0
12, 74700, Note_on_c, 11, 45, 100
12, 74730, Note_on_c, 11, 45, 0
12, 74760, Note_on_c, 11, 38, 100
12, 74790, Note_on_c, 11, 38, 0
12, 74820, Note_on_c, 11, 48, 100
12, 74850, Note_on_c, 11, 48, 0
12, 74880, Note_on_c, 11, 47, 100
12, 74940, Note_on_c, 11, 47, 0
12, 74940, Note_on_c, 11, 47, 100
12, 75000, Note_on_c, 11, 47, 0
12, 75000, Note_on_c, 11, 47, 100
12, 75060, Note_on_c, 11, 47, 0
12, 75060, Note_on_c, 11, 47, 100
12, 75120, Note_on_c, 11, 47, 0
12, 75120, Note_on_c, 11, 46, 100
12, 75180, Note_on_c, 11, 46, 0
12, 75180, Note_on_c, 11, 46, 100
12, 75240, Note_on_c, 11, 46, 0
12, 75240, Note_on_c, 11, 46, 100
12, 75300, Note_on_c, 11, 46, 0
12, 75300, Note_on_c, 11, 46, 100
12, 75360, Note_on_c, 11, 46, 0
12, 75360, Note_on_c, 11, 45, 100
12, 75420, Note_on_c, 11, 45, 0
12, 75420, Note_on_c, 11, 45, 100
12, 75480, Note_on_c, 11, 45, 0
12, 75480, Note_on_c, 11, 47, 100
12, 75540, Note_on_c, 11, 47, 0
12, 75540, Note_on_c, 11, 47, 100
12, 75600, Note_on_c, 11, 47, 0
12, 75600, Note_on_c, 11, 43, 100
12, 75660, Note_on_c, 11, 43, 0
12, 75660, Note_on_c, 11, 43, 100
12, 75720, Note_on_c, 11, 43, 0
12, 75720, Note_on_c, 11, 45, 100
12, 75780, Note_on_c, 11, 45, 0
12, 75780, Note_on_c, 11, 45, 100
12, 75840, Note_on_c, 11, 45, 0
12, 76080, Program_c, 11, 45
12, 76080, Note_on_c, 11, 45, 50
12, 76140, Note_on_c, 11, 45, 0
12, 76200, Note_on_c, 11, 33, 50
12, 76260, Note_on_c, 11, 33, 0
12, 76320, Note_on_c, 11, 38, 50
12, 76380, Note_on_c, 11, 38, 0
12, 76560, Note_on_c, 11, 45, 50
12, 76620, Note_on_c, 11, 45, 0
12, 76680, Note_on_c, 11, 33, 50
12, 76740, Note_on_c, 11, 33, 0
12, 76800, Note_on_c, 11, 38, 50
12, 76860, Note_on_c, 11, 38, 0
12, 77040, Note_on_c, 11, 45, 50
12, 77100, Note_on_c, 11, 45, 0
12, 77160, Note_on_c, 11, 33, 50
12, 77220, Note_on_c, 11, 33, 0
12, 77280, Note_on_c, 11, 38, 50
12, 77340, Note_on_c, 11, 38, 0
12, 78240, Program_c, 11, 48
12, 78240, Note_on_c, 11, 50, 50
12, 78360, Note_on_c, 11, 50, 0
12, 78480, Note_on_c, 11, 43, 50
12, 78600, Note_on_c, 11, 43, 0
12, 78720, Note_on_c, 11, 45, 50
12, 78840, Note_on_c, 11, 45, 0
12, 78960, Note_on_c, 11, 45, 50
12, 79080, Note_on_c, 11, 45, 0
12, 79200, Note_on_c, 11, 50, 50
12, 79320, Note_on_c, 11, 50, 0
12, 79440, Note_on_c, 11, 43, 50
12, 79560, Note_on_c, 11, 43, 0
12, 79680, Note_on_c, 11, 45, 50
12, 79800, Note_on_c, 11, 45, 0
12, 79920, Note_on_c, 11, 45, 50
12, 80040, Note_on_c, 11, 45, 0
12, 80160, Note_on_c, 11, 50, 100
12, 80460, Note_on_c, 11, 50, 0
12, 80460, Note_on_c, 11, 38, 102
12, 80490, Note_on_c, 11, 38, 0
12, 80520, Note_on_c, 11, 42, 103
12, 80550, Note_on_c, 11, 42, 0
12, 80580, Note_on_c, 11, 38, 103
12, 80610, Note_on_c, 11, 38, 0
12, 80640, Note_on_c, 11, 50, 104
12, 80940, Note_on_c, 11, 50, 0
12, 80940, Note_on_c, 11, 38, 106
12, 80970, Note_on_c, 11, 38, 0
12, 81000, Note_on_c, 11, 42, 107
12, 81030, Note_on_c, 11, 42, 0
12, 81060, Note_on_c, 11, 38, 107
12, 81090, Note_on_c, 11, 38, 0
12, 81120, Note_on_c, 11, 50, 108
12, 81420, Note_on_c, 11, 50, 0
12, 81420, Note_on_c, 11, 38, 110
12, 81450, Note_on_c, 11, 38, 0
12, 81480, Note_on_c, 11, 42, 111
12, 81510, Note_on_c, 11, 42, 0
12, 81540, Note_on_c, 11, 38, 111
12, 81570, Note_on_c, 11, 38, 0
12, 81600, Note_on_c, 11, 50, 112
12, 81900, Note_on_c, 11, 50, 0
12, 81900, Note_on_c, 11, 38, 115
12, 81930, Note_on_c, 11, 38, 0
12, 81960, Note_on_c, 11, 42, 115
12, 81990, Note_on_c, 11, 42, 0
12, 82020, Note_on_c, 11, 38, 116
12, 82050, Note_on_c, 11, 38, 0
12, 82080, Note_on_c, 11, 50, 116
12, 82200, Note_on_c, 11, 50, 0
12, 82500, Note_on_c, 11, 45, 120
12, 82560, Note_on_c, 11, 45, 0
12, 82560, Note_on_c, 11, 54, 120
12, 82620, Note_on_c, 11, 54, 0
12, 82620, Note_on_c, 11, 50, 121
12, 82680, Note_on_c, 11, 50, 0
12, 82680, Note_on_c, 11, 45, 121
12, 82740, Note_on_c, 11, 45, 0
12, 82740, Note_on_c, 11, 42, 122
12, 82800, Note_on_c, 11, 42, 0
12, 82800, Note_on_c, 11, 50, 122
12, 82860, Note_on_c, 11, 50, 0
12, 82860, Note_on_c, 11, 45, 123
12, 82920, Note_on_c, 11, 45, 0
12, 82920, Note_on_c, 11, 42, 123
12, 82980, Note_on_c, 11, 42, 0
12, 82980, Note_on_c, 11, 38, 124
12, 83040, Note_on_c, 11, 38, 0
12, 83040, Note_on_c, 11, 45, 127
12, 83100, Note_on_c, 11, 45, 0
12, 83100, Note_on_c, 11, 42, 127
12, 83160, Note_on_c, 11, 42, 0
12, 83160, Note_on_c, 11, 38, 127
12, 83220, Note_on_c, 11, 38, 0
12, 83220, Note_on_c, 11, 33, 127
12, 83280, Note_on_c, 11, 33, 0
12, 83280, Note_on_c, 11, 38, 127
12, 83340, Note_on_c, 11, 38, 0
12, 83340, Note_on_c, 11, 33, 127
12, 83400, Note_on_c, 11, 33, 0
12, 83400, Note_on_c, 11, 38, 127
12, 83460, Note_on_c, 11, 38, 0
12, 83460, Note_on_c, 11, 33, 127
12, 83520, Note_on_c, 11, 33, 0
12, 83520, Note_on_c, 11, 38, 127
12, 83610, Note_on_c, 11, 38, 0
12, 83640, Note_on_c, 11, 38, 127
12, 83730, Note_on_c, 11, 38, 0
12, 83760, Note_on_c, 11, 38, 127
12, 83850, Note_on_c, 11, 38, 0
12, 83850, End_track
0, 0, End_of_file