0, 0, Header, 1, 10, 480
1, 0, Start_track
1, 0, Time_signature, 4, 2, 24, 8
1, 0, Tempo, 285714
1, 172800, Tempo, 300000
1, 174720, Tempo, 285714
1, 178560, Tempo, 300000
1, 182400, Tempo, 285714
1, 364800, Tempo, 300000
1, 366720, Tempo, 285714
1, 370560, Tempo, 300000
1, 374400, Tempo, 285714
1, 725760, Tempo, 300000
1, 727680, Tempo, 285714
1, 732000, Tempo, 288462
1, 732480, Tempo, 291262
1, 732960, Tempo, 294118
1, 733440, Tempo, 297030
1, 733920, Tempo, 298507
1, 734400, Tempo, 301508
1, 734880, Tempo, 304569
1, 735360, Tempo, 307692
1, 735840, Tempo, 310881
1, 736320, Tempo, 314136
1, 736800, Tempo, 317460
1, 737280, Tempo, 320856
1, 737760, Tempo, 322581
1, 738240, Tempo, 326087
1, 738720, Tempo, 329670
1, 739200, Tempo, 300000
1, 754560, Tempo, 285714
1, 762240, Tempo, 315789
1, 764160, Tempo, 333333
1, 764640, Tempo, 348837
1, 765120, Tempo, 363636
1, 765600, Tempo, 382166
1, 766080, Tempo, 375000
1, 768000, Tempo, 1000000
1, 768000, End_track
2, 0, Start_track
2, 0, Sequencer_specific, 04, 43, 00, 01, 00
2, 0, Program_c, 0, 73
2, 0, Control_c, 0, 7, 90
2, 0, Control_c, 0, 10, 56
2, 0, Control_c, 0, 91, 80
2, 27360, Note_on_c, 0, 78, 70
2, 27840, Note_on_c, 0, 78, 0
2, 27840, Note_on_c, 0, 79, 70
2, 28320, Note_on_c, 0, 79, 0
2, 28320, Note_on_c, 0, 81, 70
2, 28800, Note_on_c, 0, 81, 0
2, 28800, Note_on_c, 0, 82, 70
2, 29280, Note_on_c, 0, 82, 0
2, 29280, Note_on_c, 0, 84, 70
2, 29520, Note_on_c, 0, 84, 0
2, 29520, Note_on_c, 0, 82, 70
2, 29760, Note_on_c, 0, 82, 0
2, 29760, Note_on_c, 0, 81, 70
2, 30240, Note_on_c, 0, 81, 0
2, 30240, Note_on_c, 0, 79, 70
2, 30696, Note_on_c, 0, 79, 0
2, 30720, Note_on_c, 0, 78, 70
2, 31104, Note_on_c, 0, 78, 0
2, 31680, Note_on_c, 0, 85, 105
2, 32640, Note_on_c, 0, 85, 0
2, 32640, Note_on_c, 0, 86, 105
2, 33024, Note_on_c, 0, 86, 0
2, 33600, Note_on_c, 0, 85, 105
2, 34560, Note_on_c, 0, 85, 0
2, 34560, Note_on_c, 0, 86, 105
2, 34944, Note_on_c, 0, 86, 0
2, 35520, Note_on_c, 0, 85, 105
2, 36480, Note_on_c, 0, 85, 0
2, 36480, Note_on_c, 0, 86, 105
2, 36768, Note_on_c, 0, 86, 0
2, 36960, Note_on_c, 0, 85, 105
2, 37248, Note_on_c, 0, 85, 0
2, 37440, Note_on_c, 0, 86, 105
2, 37728, Note_on_c, 0, 86, 0
2, 37920, Note_on_c, 0, 85, 105
2, 38208, Note_on_c, 0, 85, 0
2, 38400, Note_on_c, 0, 86, 105
2, 39168, Note_on_c, 0, 86, 0
2, 53760, Note_on_c, 0, 82, 105
2, 55296, Note_on_c, 0, 82, 0
2, 55680, Note_on_c, 0, 89, 105
2, 57216, Note_on_c, 0, 89, 0
2, 57600, Note_on_c, 0, 87, 105
2, 59136, Note_on_c, 0, 87, 0
2, 59520, Note_on_c, 0, 86, 105
2, 61056, Note_on_c, 0, 86, 0
2, 61440, Note_on_c, 0, 84, 105
2, 62976, Note_on_c, 0, 84, 0
2, 63360, Note_on_c, 0, 82, 105
2, 64896, Note_on_c, 0, 82, 0
2, 65280, Note_on_c, 0, 88, 112
2, 66816, Note_on_c, 0, 88, 0
2, 66960, Note_on_c, 0, 89, 92
2, 67152, Note_on_c, 0, 89, 0
2, 67200, Note_on_c, 0, 88, 112
2, 68736, Note_on_c, 0, 88, 0
2, 68880, Note_on_c, 0, 89, 92
2, 69072, Note_on_c, 0, 89, 0
2, 69120, Note_on_c, 0, 88, 112
2, 70656, Note_on_c, 0, 88, 0
2, 70800, Note_on_c, 0, 89, 92
2, 70992, Note_on_c, 0, 89, 0
2, 71040, Note_on_c, 0, 88, 92
2, 72576, Note_on_c, 0, 88, 0
2, 72960, Note_on_c, 0, 89, 92
2, 73728, Note_on_c, 0, 89, 0
2, 73920, Note_on_c, 0, 87, 105
2, 74688, Note_on_c, 0, 87, 0
2, 74880, Note_on_c, 0, 85, 105
2, 75648, Note_on_c, 0, 85, 0
2, 75840, Note_on_c, 0, 88, 105
2, 76608, Note_on_c, 0, 88, 0
2, 76800, Note_on_c, 0, 89, 105
2, 77568, Note_on_c, 0, 89, 0
2, 77760, Note_on_c, 0, 87, 105
2, 78528, Note_on_c, 0, 87, 0
2, 78720, Note_on_c, 0, 85, 105
2, 79488, Note_on_c, 0, 85, 0
2, 79680, Note_on_c, 0, 88, 105
2, 80448, Note_on_c, 0, 88, 0
2, 80640, Note_on_c, 0, 89, 105
2, 81024, Note_on_c, 0, 89, 0
2, 81600, Note_on_c, 0, 77, 92
2, 81984, Note_on_c, 0, 77, 0
2, 99840, Note_on_c, 0, 89, 70
2, 101280, Note_on_c, 0, 89, 0
2, 101280, Note_on_c, 0, 88, 70
2, 101760, Note_on_c, 0, 88, 0
2, 101760, Note_on_c, 0, 87, 70
2, 102144, Note_on_c, 0, 87, 0
2, 104160, Note_on_c, 0, 82, 70
2, 104472, Note_on_c, 0, 82, 0
2, 104640, Note_on_c, 0, 82, 70
2, 105120, Note_on_c, 0, 82, 0
2, 105120, Note_on_c, 0, 84, 70
2, 105504, Note_on_c, 0, 84, 0
2, 105600, Note_on_c, 0, 86, 70
2, 106320, Note_on_c, 0, 86, 0
2, 106320, Note_on_c, 0, 87, 70
2, 106560, Note_on_c, 0, 87, 0
2, 106560, Note_on_c, 0, 84, 70
2, 106944, Note_on_c, 0, 84, 0
2, 111840, Note_on_c, 0, 79, 70
2, 112800, Note_on_c, 0, 79, 0
2, 112800, Note_on_c, 0, 80, 58
2, 113184, Note_on_c, 0, 80, 0
2, 113760, Note_on_c, 0, 79, 58
2, 114720, Note_on_c, 0, 79, 0
2, 114720, Note_on_c, 0, 80, 58
2, 115104, Note_on_c, 0, 80, 0
2, 115680, Note_on_c, 0, 79, 58
2, 116640, Note_on_c, 0, 79, 0
2, 116640, Note_on_c, 0, 80, 58
2, 117024, Note_on_c, 0, 80, 0
2, 117600, Note_on_c, 0, 79, 58
2, 118560, Note_on_c, 0, 79, 0
2, 118560, Note_on_c, 0, 80, 58
2, 118944, Note_on_c, 0, 80, 0
2, 119040, Note_on_c, 0, 82, 58
2, 120576, Note_on_c, 0, 82, 0
2, 120960, Note_on_c, 0, 91, 70
2, 122496, Note_on_c, 0, 91, 0
2, 122880, Note_on_c, 0, 89, 92
2, 124704, Note_on_c, 0, 89, 0
2, 124800, Note_on_c, 0, 86, 105
2, 124920, Note_on_c, 0, 86, 0
2, 124920, Note_on_c, 0, 84, 105
2, 125040, Note_on_c, 0, 84, 0
2, 125040, Note_on_c, 0, 86, 105
2, 125160, Note_on_c, 0, 86, 0
2, 125160, Note_on_c, 0, 84, 105
2, 125280, Note_on_c, 0, 84, 0
2, 125280, Note_on_c, 0, 86, 105
2, 125400, Note_on_c, 0, 86, 0
2, 125400, Note_on_c, 0, 84, 105
2, 125520, Note_on_c, 0, 84, 0
2, 125520, Note_on_c, 0, 86, 105
2, 125640, Note_on_c, 0, 86, 0
2, 125640, Note_on_c, 0, 84, 105
2, 125760, Note_on_c, 0, 84, 0
2, 125760, Note_on_c, 0, 86, 105
2, 125880, Note_on_c, 0, 86, 0
2, 125880, Note_on_c, 0, 84, 105
2, 126000, Note_on_c, 0, 84, 0
2, 126000, Note_on_c, 0, 86, 105
2, 126120, Note_on_c, 0, 86, 0
2, 126120, Note_on_c, 0, 84, 105
2, 126240, Note_on_c, 0, 84, 0
2, 126240, Note_on_c, 0, 86, 105
2, 126360, Note_on_c, 0, 86, 0
2, 126360, Note_on_c, 0, 84, 105
2, 126480, Note_on_c, 0, 84, 0
2, 126480, Note_on_c, 0, 82, 105
2, 126600, Note_on_c, 0, 82, 0
2, 126600, Note_on_c, 0, 84, 105
2, 126720, Note_on_c, 0, 84, 0
2, 126720, Note_on_c, 0, 82, 92
2, 127104, Note_on_c, 0, 82, 0
2, 132480, Note_on_c, 0, 84, 105
2, 132864, Note_on_c, 0, 84, 0
2, 133440, Note_on_c, 0, 86, 105
2, 133824, Note_on_c, 0, 86, 0
2, 134400, Note_on_c, 0, 91, 105
2, 135504, Note_on_c, 0, 91, 0
2, 135600, Note_on_c, 0, 89, 105
2, 135744, Note_on_c, 0, 89, 0
2, 135840, Note_on_c, 0, 87, 70
2, 135984, Note_on_c, 0, 87, 0
2, 136080, Note_on_c, 0, 86, 70
2, 136224, Note_on_c, 0, 86, 0
2, 136320, Note_on_c, 0, 84, 70
2, 136464, Note_on_c, 0, 84, 0
2, 136560, Note_on_c, 0, 82, 70
2, 136704, Note_on_c, 0, 82, 0
2, 136800, Note_on_c, 0, 81, 70
2, 136944, Note_on_c, 0, 81, 0
2, 137040, Note_on_c, 0, 79, 70
2, 137184, Note_on_c, 0, 79, 0
2, 137280, Note_on_c, 0, 77, 70
2, 137424, Note_on_c, 0, 77, 0
2, 137520, Note_on_c, 0, 75, 70
2, 137664, Note_on_c, 0, 75, 0
2, 137760, Note_on_c, 0, 74, 70
2, 137904, Note_on_c, 0, 74, 0
2, 138000, Note_on_c, 0, 72, 70
2, 138144, Note_on_c, 0, 72, 0
2, 138240, Note_on_c, 0, 70, 70
2, 138624, Note_on_c, 0, 70, 0
2, 147840, Note_on_c, 0, 90, 105
2, 149376, Note_on_c, 0, 90, 0
2, 149760, Note_on_c, 0, 91, 105
2, 150528, Note_on_c, 0, 91, 0
2, 150720, Note_on_c, 0, 91, 105
2, 151296, Note_on_c, 0, 91, 0
2, 151440, Note_on_c, 0, 87, 105
2, 151632, Note_on_c, 0, 87, 0
2, 151680, Note_on_c, 0, 86, 105
2, 152448, Note_on_c, 0, 86, 0
2, 152640, Note_on_c, 0, 84, 105
2, 153408, Note_on_c, 0, 84, 0
2, 153600, Note_on_c, 0, 82, 92
2, 153984, Note_on_c, 0, 82, 0
2, 163200, Note_on_c, 0, 90, 92
2, 164736, Note_on_c, 0, 90, 0
2, 165120, Note_on_c, 0, 91, 105
2, 165888, Note_on_c, 0, 91, 0
2, 166080, Note_on_c, 0, 91, 105
2, 166656, Note_on_c, 0, 91, 0
2, 166800, Note_on_c, 0, 87, 105
2, 166992, Note_on_c, 0, 87, 0
2, 167040, Note_on_c, 0, 86, 105
2, 167808, Note_on_c, 0, 86, 0
2, 168000, Note_on_c, 0, 84, 105
2, 168768, Note_on_c, 0, 84, 0
2, 168960, Note_on_c, 0, 82, 105
2, 169728, Note_on_c, 0, 82, 0
2, 170640, Note_on_c, 0, 89, 105
2, 170832, Note_on_c, 0, 89, 0
2, 170880, Note_on_c, 0, 87, 105
2, 171072, Note_on_c, 0, 87, 0
2, 171120, Note_on_c, 0, 86, 105
2, 171312, Note_on_c, 0, 86, 0
2, 171360, Note_on_c, 0, 84, 105
2, 171552, Note_on_c, 0, 84, 0
2, 171600, Note_on_c, 0, 82, 105
2, 171792, Note_on_c, 0, 82, 0
2, 171840, Note_on_c, 0, 81, 105
2, 172032, Note_on_c, 0, 81, 0
2, 172080, Note_on_c, 0, 79, 105
2, 172272, Note_on_c, 0, 79, 0
2, 172320, Note_on_c, 0, 77, 105
2, 172512, Note_on_c, 0, 77, 0
2, 172560, Note_on_c, 0, 75, 105
2, 172752, Note_on_c, 0, 75, 0
2, 172800, Note_on_c, 0, 74, 105
2, 173136, Note_on_c, 0, 74, 0
2, 173280, Note_on_c, 0, 77, 105
2, 173616, Note_on_c, 0, 77, 0
2, 173760, Note_on_c, 0, 79, 105
2, 174096, Note_on_c, 0, 79, 0
2, 174240, Note_on_c, 0, 81, 105
2, 174576, Note_on_c, 0, 81, 0
2, 174720, Note_on_c, 0, 82, 105
2, 174912, Note_on_c, 0, 82, 0
2, 174960, Note_on_c, 0, 77, 105
2, 175152, Note_on_c, 0, 77, 0
2, 175200, Note_on_c, 0, 86, 105
2, 175392, Note_on_c, 0, 86, 0
2, 175440, Note_on_c, 0, 84, 105
2, 175632, Note_on_c, 0, 84, 0
2, 175680, Note_on_c, 0, 82, 105
2, 175872, Note_on_c, 0, 82, 0
2, 175920, Note_on_c, 0, 81, 105
2, 176112, Note_on_c, 0, 81, 0
2, 176160, Note_on_c, 0, 79, 105
2, 176352, Note_on_c, 0, 79, 0
2, 176400, Note_on_c, 0, 77, 105
2, 176592, Note_on_c, 0, 77, 0
2, 176640, Note_on_c, 0, 87, 105
2, 176832, Note_on_c, 0, 87, 0
2, 176880, Note_on_c, 0, 86, 105
2, 177072, Note_on_c, 0, 86, 0
2, 177120, Note_on_c, 0, 84, 105
2, 177312, Note_on_c, 0, 84, 0
2, 177360, Note_on_c, 0, 82, 105
2, 177552, Note_on_c, 0, 82, 0
2, 177600, Note_on_c, 0, 81, 105
2, 177792, Note_on_c, 0, 81, 0
2, 177840, Note_on_c, 0, 84, 105
2, 178032, Note_on_c, 0, 84, 0
2, 178080, Note_on_c, 0, 89, 105
2, 178272, Note_on_c, 0, 89, 0
2, 178320, Note_on_c, 0, 87, 105
2, 178512, Note_on_c, 0, 87, 0
2, 178560, Note_on_c, 0, 86, 105
2, 178896, Note_on_c, 0, 86, 0
2, 180000, Note_on_c, 0, 87, 105
2, 180336, Note_on_c, 0, 87, 0
2, 180480, Note_on_c, 0, 86, 105
2, 180816, Note_on_c, 0, 86, 0
2, 180960, Note_on_c, 0, 91, 105
2, 181296, Note_on_c, 0, 91, 0
2, 181440, Note_on_c, 0, 89, 105
2, 181776, Note_on_c, 0, 89, 0
2, 181920, Note_on_c, 0, 81, 105
2, 182256, Note_on_c, 0, 81, 0
2, 182400, Note_on_c, 0, 82, 105
2, 182760, Note_on_c, 0, 82, 0
2, 182880, Note_on_c, 0, 82, 105
2, 183060, Note_on_c, 0, 82, 0
2, 183120, Note_on_c, 0, 82, 105
2, 183300, Note_on_c, 0, 82, 0
2, 183360, Note_on_c, 0, 81, 105
2, 183720, Note_on_c, 0, 81, 0
2, 183840, Note_on_c, 0, 81, 105
2, 184020, Note_on_c, 0, 81, 0
2, 184080, Note_on_c, 0, 81, 105
2, 184260, Note_on_c, 0, 81, 0
2, 184320, Note_on_c, 0, 82, 105
2, 184680, Note_on_c, 0, 82, 0
2, 184800, Note_on_c, 0, 82, 105
2, 184980, Note_on_c, 0, 82, 0
2, 185040, Note_on_c, 0, 82, 105
2, 185220, Note_on_c, 0, 82, 0
2, 185280, Note_on_c, 0, 81, 105
2, 185640, Note_on_c, 0, 81, 0
2, 185760, Note_on_c, 0, 81, 105
2, 185940, Note_on_c, 0, 81, 0
2, 186000, Note_on_c, 0, 81, 105
2, 186180, Note_on_c, 0, 81, 0
2, 186240, Note_on_c, 0, 82, 105
2, 186600, Note_on_c, 0, 82, 0
2, 186720, Note_on_c, 0, 82, 105
2, 186900, Note_on_c, 0, 82, 0
2, 186960, Note_on_c, 0, 82, 105
2, 187140, Note_on_c, 0, 82, 0
2, 187200, Note_on_c, 0, 81, 105
2, 187560, Note_on_c, 0, 81, 0
2, 187680, Note_on_c, 0, 81, 105
2, 187860, Note_on_c, 0, 81, 0
2, 187920, Note_on_c, 0, 81, 105
2, 188100, Note_on_c, 0, 81, 0
2, 188160, Note_on_c, 0, 82, 105
2, 188520, Note_on_c, 0, 82, 0
2, 188640, Note_on_c, 0, 81, 105
2, 189000, Note_on_c, 0, 81, 0
2, 189120, Note_on_c, 0, 82, 105
2, 189480, Note_on_c, 0, 82, 0
2, 189600, Note_on_c, 0, 81, 105
2, 189960, Note_on_c, 0, 81, 0
2, 190080, Note_on_c, 0, 82, 105
2, 190464, Note_on_c, 0, 82, 0
2, 192000, Note_on_c, 0, 78, 105
2, 192384, Note_on_c, 0, 78, 0
2, 219360, Note_on_c, 0, 78, 70
2, 219840, Note_on_c, 0, 78, 0
2, 219840, Note_on_c, 0, 79, 70
2, 220320, Note_on_c, 0, 79, 0
2, 220320, Note_on_c, 0, 81, 70
2, 220800, Note_on_c, 0, 81, 0
2, 220800, Note_on_c, 0, 82, 70
2, 221280, Note_on_c, 0, 82, 0
2, 221280, Note_on_c, 0, 84, 70
2, 221520, Note_on_c, 0, 84, 0
2, 221520, Note_on_c, 0, 82, 70
2, 221760, Note_on_c, 0, 82, 0
2, 221760, Note_on_c, 0, 81, 70
2, 222240, Note_on_c, 0, 81, 0
2, 222240, Note_on_c, 0, 79, 70
2, 222696, Note_on_c, 0, 79, 0
2, 222720, Note_on_c, 0, 78, 70
2, 223104, Note_on_c, 0, 78, 0
2, 223680, Note_on_c, 0, 85, 105
2, 224640, Note_on_c, 0, 85, 0
2, 224640, Note_on_c, 0, 86, 105
2, 225024, Note_on_c, 0, 86, 0
2, 225600, Note_on_c, 0, 85, 105
2, 226560, Note_on_c, 0, 85, 0
2, 226560, Note_on_c, 0, 86, 105
2, 226944, Note_on_c, 0, 86, 0
2, 227520, Note_on_c, 0, 85, 105
2, 228480, Note_on_c, 0, 85, 0
2, 228480, Note_on_c, 0, 86, 105
2, 228768, Note_on_c, 0, 86, 0
2, 228960, Note_on_c, 0, 85, 105
2, 229248, Note_on_c, 0, 85, 0
2, 229440, Note_on_c, 0, 86, 105
2, 229728, Note_on_c, 0, 86, 0
2, 229920, Note_on_c, 0, 85, 105
2, 230208, Note_on_c, 0, 85, 0
2, 230400, Note_on_c, 0, 86, 105
2, 231168, Note_on_c, 0, 86, 0
2, 245760, Note_on_c, 0, 82, 105
2, 247296, Note_on_c, 0, 82, 0
2, 247680, Note_on_c, 0, 89, 105
2, 249216, Note_on_c, 0, 89, 0
2, 249600, Note_on_c, 0, 87, 105
2, 251136, Note_on_c, 0, 87, 0
2, 251520, Note_on_c, 0, 86, 105
2, 253056, Note_on_c, 0, 86, 0
2, 253440, Note_on_c, 0, 84, 105
2, 254976, Note_on_c, 0, 84, 0
2, 255360, Note_on_c, 0, 82, 105
2, 256896, Note_on_c, 0, 82, 0
2, 257280, Note_on_c, 0, 88, 112
2, 258816, Note_on_c, 0, 88, 0
2, 258960, Note_on_c, 0, 89, 92
2, 259152, Note_on_c, 0, 89, 0
2, 259200, Note_on_c, 0, 88, 112
2, 260736, Note_on_c, 0, 88, 0
2, 260880, Note_on_c, 0, 89, 92
2, 261072, Note_on_c, 0, 89, 0
2, 261120, Note_on_c, 0, 88, 112
2, 262656, Note_on_c, 0, 88, 0
2, 262800, Note_on_c, 0, 89, 92
2, 262992, Note_on_c, 0, 89, 0
2, 263040, Note_on_c, 0, 88, 92
2, 264576, Note_on_c, 0, 88, 0
2, 264960, Note_on_c, 0, 89, 92
2, 265728, Note_on_c, 0, 89, 0
2, 265920, Note_on_c, 0, 87, 105
2, 266688, Note_on_c, 0, 87, 0
2, 266880, Note_on_c, 0, 85, 105
2, 267648, Note_on_c, 0, 85, 0
2, 267840, Note_on_c, 0, 88, 105
2, 268608, Note_on_c, 0, 88, 0
2, 268800, Note_on_c, 0, 89, 105
2, 269568, Note_on_c, 0, 89, 0
2, 269760, Note_on_c, 0, 87, 105
2, 270528, Note_on_c, 0, 87, 0
2, 270720, Note_on_c, 0, 85, 105
2, 271488, Note_on_c, 0, 85, 0
2, 271680, Note_on_c, 0, 88, 105
2, 272448, Note_on_c, 0, 88, 0
2, 272640, Note_on_c, 0, 89, 105
2, 273024, Note_on_c, 0, 89, 0
2, 273600, Note_on_c, 0, 77, 92
2, 273984, Note_on_c, 0, 77, 0
2, 291840, Note_on_c, 0, 89, 70
2, 293280, Note_on_c, 0, 89, 0
2, 293280, Note_on_c, 0, 88, 70
2, 293760, Note_on_c, 0, 88, 0
2, 293760, Note_on_c, 0, 87, 70
2, 294144, Note_on_c, 0, 87, 0
2, 296160, Note_on_c, 0, 82, 70
2, 296472, Note_on_c, 0, 82, 0
2, 296640, Note_on_c, 0, 82, 70
2, 297120, Note_on_c, 0, 82, 0
2, 297120, Note_on_c, 0, 84, 70
2, 297504, Note_on_c, 0, 84, 0
2, 297600, Note_on_c, 0, 86, 70
2, 298320, Note_on_c, 0, 86, 0
2, 298320, Note_on_c, 0, 87, 70
2, 298560, Note_on_c, 0, 87, 0
2, 298560, Note_on_c, 0, 84, 70
2, 298944, Note_on_c, 0, 84, 0
2, 303840, Note_on_c, 0, 79, 70
2, 304800, Note_on_c, 0, 79, 0
2, 304800, Note_on_c, 0, 80, 58
2, 305184, Note_on_c, 0, 80, 0
2, 305760, Note_on_c, 0, 79, 58
2, 306720, Note_on_c, 0, 79, 0
2, 306720, Note_on_c, 0, 80, 58
2, 307104, Note_on_c, 0, 80, 0
2, 307680, Note_on_c, 0, 79, 58
2, 308640, Note_on_c, 0, 79, 0
2, 308640, Note_on_c, 0, 80, 58
2, 309024, Note_on_c, 0, 80, 0
2, 309600, Note_on_c, 0, 79, 58
2, 310560, Note_on_c, 0, 79, 0
2, 310560, Note_on_c, 0, 80, 58
2, 310944, Note_on_c, 0, 80, 0
2, 311040, Note_on_c, 0, 82, 58
2, 312576, Note_on_c, 0, 82, 0
2, 312960, Note_on_c, 0, 91, 70
2, 314496, Note_on_c, 0, 91, 0
2, 314880, Note_on_c, 0, 89, 92
2, 316704, Note_on_c, 0, 89, 0
2, 316800, Note_on_c, 0, 86, 105
2, 316920, Note_on_c, 0, 86, 0
2, 316920, Note_on_c, 0, 84, 105
2, 317040, Note_on_c, 0, 84, 0
2, 317040, Note_on_c, 0, 86, 105
2, 317160, Note_on_c, 0, 86, 0
2, 317160, Note_on_c, 0, 84, 105
2, 317280, Note_on_c, 0, 84, 0
2, 317280, Note_on_c, 0, 86, 105
2, 317400, Note_on_c, 0, 86, 0
2, 317400, Note_on_c, 0, 84, 105
2, 317520, Note_on_c, 0, 84, 0
2, 317520, Note_on_c, 0, 86, 105
2, 317640, Note_on_c, 0, 86, 0
2, 317640, Note_on_c, 0, 84, 105
2, 317760, Note_on_c, 0, 84, 0
2, 317760, Note_on_c, 0, 86, 105
2, 317880, Note_on_c, 0, 86, 0
2, 317880, Note_on_c, 0, 84, 105
2, 318000, Note_on_c, 0, 84, 0
2, 318000, Note_on_c, 0, 86, 105
2, 318120, Note_on_c, 0, 86, 0
2, 318120, Note_on_c, 0, 84, 105
2, 318240, Note_on_c, 0, 84, 0
2, 318240, Note_on_c, 0, 86, 105
2, 318360, Note_on_c, 0, 86, 0
2, 318360, Note_on_c, 0, 84, 105
2, 318480, Note_on_c, 0, 84, 0
2, 318480, Note_on_c, 0, 82, 105
2, 318600, Note_on_c, 0, 82, 0
2, 318600, Note_on_c, 0, 84, 105
2, 318720, Note_on_c, 0, 84, 0
2, 318720, Note_on_c, 0, 82, 92
2, 319104, Note_on_c, 0, 82, 0
2, 324480, Note_on_c, 0, 84, 105
2, 324864, Note_on_c, 0, 84, 0
2, 325440, Note_on_c, 0, 86, 105
2, 325824, Note_on_c, 0, 86, 0
2, 326400, Note_on_c, 0, 91, 105
2, 327504, Note_on_c, 0, 91, 0
2, 327600, Note_on_c, 0, 89, 105
2, 327744, Note_on_c, 0, 89, 0
2, 327840, Note_on_c, 0, 87, 70
2, 327984, Note_on_c, 0, 87, 0
2, 328080, Note_on_c, 0, 86, 70
2, 328224, Note_on_c, 0, 86, 0
2, 328320, Note_on_c, 0, 84, 70
2, 328464, Note_on_c, 0, 84, 0
2, 328560, Note_on_c, 0, 82, 70
2, 328704, Note_on_c, 0, 82, 0
2, 328800, Note_on_c, 0, 81, 70
2, 328944, Note_on_c, 0, 81, 0
2, 329040, Note_on_c, 0, 79, 70
2, 329184, Note_on_c, 0, 79, 0
2, 329280, Note_on_c, 0, 77, 70
2, 329424, Note_on_c, 0, 77, 0
2, 329520, Note_on_c, 0, 75, 70
2, 329664, Note_on_c, 0, 75, 0
2, 329760, Note_on_c, 0, 74, 70
2, 329904, Note_on_c, 0, 74, 0
2, 330000, Note_on_c, 0, 72, 70
2, 330144, Note_on_c, 0, 72, 0
2, 330240, Note_on_c, 0, 70, 70
2, 330624, Note_on_c, 0, 70, 0
2, 339840, Note_on_c, 0, 90, 105
2, 341376, Note_on_c, 0, 90, 0
2, 341760, Note_on_c, 0, 91, 105
2, 342528, Note_on_c, 0, 91, 0
2, 342720, Note_on_c, 0, 91, 105
2, 343296, Note_on_c, 0, 91, 0
2, 343440, Note_on_c, 0, 87, 105
2, 343632, Note_on_c, 0, 87, 0
2, 343680, Note_on_c, 0, 86, 105
2, 344448, Note_on_c, 0, 86, 0
2, 344640, Note_on_c, 0, 84, 105
2, 345408, Note_on_c, 0, 84, 0
2, 345600, Note_on_c, 0, 82, 92
2, 345984, Note_on_c, 0, 82, 0
2, 355200, Note_on_c, 0, 90, 92
2, 356736, Note_on_c, 0, 90, 0
2, 357120, Note_on_c, 0, 91, 105
2, 357888, Note_on_c, 0, 91, 0
2, 358080, Note_on_c, 0, 91, 105
2, 358656, Note_on_c, 0, 91, 0
2, 358800, Note_on_c, 0, 87, 105
2, 358992, Note_on_c, 0, 87, 0
2, 359040, Note_on_c, 0, 86, 105
2, 359808, Note_on_c, 0, 86, 0
2, 360000, Note_on_c, 0, 84, 105
2, 360768, Note_on_c, 0, 84, 0
2, 360960, Note_on_c, 0, 82, 105
2, 361728, Note_on_c, 0, 82, 0
2, 362640, Note_on_c, 0, 89, 105
2, 362832, Note_on_c, 0, 89, 0
2, 362880, Note_on_c, 0, 87, 105
2, 363072, Note_on_c, 0, 87, 0
2, 363120, Note_on_c, 0, 86, 105
2, 363312, Note_on_c, 0, 86, 0
2, 363360, Note_on_c, 0, 84, 105
2, 363552, Note_on_c, 0, 84, 0
2, 363600, Note_on_c, 0, 82, 105
2, 363792, Note_on_c, 0, 82, 0
2, 363840, Note_on_c, 0, 81, 105
2, 364032, Note_on_c, 0, 81, 0
2, 364080, Note_on_c, 0, 79, 105
2, 364272, Note_on_c, 0, 79, 0
2, 364320, Note_on_c, 0, 77, 105
2, 364512, Note_on_c, 0, 77, 0
2, 364560, Note_on_c, 0, 75, 105
2, 364752, Note_on_c, 0, 75, 0
2, 364800, Note_on_c, 0, 74, 105
2, 365136, Note_on_c, 0, 74, 0
2, 365280, Note_on_c, 0, 77, 105
2, 365616, Note_on_c, 0, 77, 0
2, 365760, Note_on_c, 0, 79, 105
2, 366096, Note_on_c, 0, 79, 0
2, 366240, Note_on_c, 0, 81, 105
2, 366576, Note_on_c, 0, 81, 0
2, 366720, Note_on_c, 0, 82, 105
2, 366912, Note_on_c, 0, 82, 0
2, 366960, Note_on_c, 0, 77, 105
2, 367152, Note_on_c, 0, 77, 0
2, 367200, Note_on_c, 0, 86, 105
2, 367392, Note_on_c, 0, 86, 0
2, 367440, Note_on_c, 0, 84, 105
2, 367632, Note_on_c, 0, 84, 0
2, 367680, Note_on_c, 0, 82, 105
2, 367872, Note_on_c, 0, 82, 0
2, 367920, Note_on_c, 0, 81, 105
2, 368112, Note_on_c, 0, 81, 0
2, 368160, Note_on_c, 0, 79, 105
2, 368352, Note_on_c, 0, 79, 0
2, 368400, Note_on_c, 0, 77, 105
2, 368592, Note_on_c, 0, 77, 0
2, 368640, Note_on_c, 0, 87, 105
2, 368832, Note_on_c, 0, 87, 0
2, 368880, Note_on_c, 0, 86, 105
2, 369072, Note_on_c, 0, 86, 0
2, 369120, Note_on_c, 0, 84, 105
2, 369312, Note_on_c, 0, 84, 0
2, 369360, Note_on_c, 0, 82, 105
2, 369552, Note_on_c, 0, 82, 0
2, 369600, Note_on_c, 0, 81, 105
2, 369792, Note_on_c, 0, 81, 0
2, 369840, Note_on_c, 0, 84, 105
2, 370032, Note_on_c, 0, 84, 0
2, 370080, Note_on_c, 0, 89, 105
2, 370272, Note_on_c, 0, 89, 0
2, 370320, Note_on_c, 0, 87, 105
2, 370512, Note_on_c, 0, 87, 0
2, 370560, Note_on_c, 0, 86, 105
2, 370896, Note_on_c, 0, 86, 0
2, 372000, Note_on_c, 0, 87, 105
2, 372336, Note_on_c, 0, 87, 0
2, 372480, Note_on_c, 0, 86, 105
2, 372816, Note_on_c, 0, 86, 0
2, 372960, Note_on_c, 0, 91, 105
2, 373296, Note_on_c, 0, 91, 0
2, 373440, Note_on_c, 0, 89, 105
2, 373776, Note_on_c, 0, 89, 0
2, 373920, Note_on_c, 0, 81, 105
2, 374256, Note_on_c, 0, 81, 0
2, 374400, Note_on_c, 0, 82, 105
2, 374760, Note_on_c, 0, 82, 0
2, 374880, Note_on_c, 0, 82, 105
2, 375060, Note_on_c, 0, 82, 0
2, 375120, Note_on_c, 0, 82, 105
2, 375300, Note_on_c, 0, 82, 0
2, 375360, Note_on_c, 0, 81, 105
2, 375720, Note_on_c, 0, 81, 0
2, 375840, Note_on_c, 0, 81, 105
2, 376020, Note_on_c, 0, 81, 0
2, 376080, Note_on_c, 0, 81, 105
2, 376260, Note_on_c, 0, 81, 0
2, 376320, Note_on_c, 0, 82, 105
2, 376680, Note_on_c, 0, 82, 0
2, 376800, Note_on_c, 0, 82, 105
2, 376980, Note_on_c, 0, 82, 0
2, 377040, Note_on_c, 0, 82, 105
2, 377220, Note_on_c, 0, 82, 0
2, 377280, Note_on_c, 0, 81, 105
2, 377640, Note_on_c, 0, 81, 0
2, 377760, Note_on_c, 0, 81, 105
2, 377940, Note_on_c, 0, 81, 0
2, 378000, Note_on_c, 0, 81, 105
2, 378180, Note_on_c, 0, 81, 0
2, 378240, Note_on_c, 0, 82, 105
2, 378600, Note_on_c, 0, 82, 0
2, 378720, Note_on_c, 0, 82, 105
2, 378900, Note_on_c, 0, 82, 0
2, 378960, Note_on_c, 0, 82, 105
2, 379140, Note_on_c, 0, 82, 0
2, 379200, Note_on_c, 0, 81, 105
2, 379560, Note_on_c, 0, 81, 0
2, 379680, Note_on_c, 0, 81, 105
2, 379860, Note_on_c, 0, 81, 0
2, 379920, Note_on_c, 0, 81, 105
2, 380100, Note_on_c, 0, 81, 0
2, 380160, Note_on_c, 0, 82, 105
2, 380520, Note_on_c, 0, 82, 0
2, 380640, Note_on_c, 0, 81, 105
2, 381000, Note_on_c, 0, 81, 0
2, 381120, Note_on_c, 0, 82, 105
2, 381480, Note_on_c, 0, 82, 0
2, 381600, Note_on_c, 0, 81, 105
2, 381960, Note_on_c, 0, 81, 0
2, 382080, Note_on_c, 0, 82, 105
2, 382464, Note_on_c, 0, 82, 0
2, 384000, Note_on_c, 0, 78, 105
2, 384384, Note_on_c, 0, 78, 0
2, 385920, Note_on_c, 0, 79, 105
2, 386304, Note_on_c, 0, 79, 0
2, 386880, Note_on_c, 0, 80, 105
2, 387264, Note_on_c, 0, 80, 0
2, 387840, Note_on_c, 0, 86, 70
2, 389760, Note_on_c, 0, 86, 0
2, 389760, Note_on_c, 0, 85, 70
2, 390720, Note_on_c, 0, 85, 0
2, 390720, Note_on_c, 0, 83, 70
2, 391680, Note_on_c, 0, 83, 0
2, 391680, Note_on_c, 0, 81, 70
2, 392640, Note_on_c, 0, 81, 0
2, 392640, Note_on_c, 0, 80, 70
2, 393600, Note_on_c, 0, 80, 0
2, 393600, Note_on_c, 0, 78, 58
2, 393984, Note_on_c, 0, 78, 0
2, 412320, Note_on_c, 0, 90, 105
2, 413184, Note_on_c, 0, 90, 0
2, 413280, Note_on_c, 0, 88, 105
2, 414048, Note_on_c, 0, 88, 0
2, 414240, Note_on_c, 0, 87, 105
2, 414624, Note_on_c, 0, 87, 0
2, 414720, Note_on_c, 0, 88, 105
2, 415104, Note_on_c, 0, 88, 0
2, 420000, Note_on_c, 0, 88, 105
2, 420864, Note_on_c, 0, 88, 0
2, 420960, Note_on_c, 0, 86, 105
2, 421728, Note_on_c, 0, 86, 0
2, 421920, Note_on_c, 0, 85, 105
2, 422304, Note_on_c, 0, 85, 0
2, 422400, Note_on_c, 0, 86, 105
2, 422784, Note_on_c, 0, 86, 0
2, 427680, Note_on_c, 0, 86, 105
2, 428544, Note_on_c, 0, 86, 0
2, 428640, Note_on_c, 0, 84, 105
2, 429408, Note_on_c, 0, 84, 0
2, 429600, Note_on_c, 0, 83, 105
2, 429984, Note_on_c, 0, 83, 0
2, 430080, Note_on_c, 0, 84, 105
2, 430464, Note_on_c, 0, 84, 0
2, 433920, Note_on_c, 0, 77, 105
2, 435072, Note_on_c, 0, 77, 0
2, 435360, Note_on_c, 0, 84, 105
2, 435744, Note_on_c, 0, 84, 0
2, 435840, Note_on_c, 0, 89, 105
2, 436608, Note_on_c, 0, 89, 0
2, 436800, Note_on_c, 0, 87, 105
2, 437568, Note_on_c, 0, 87, 0
2, 437760, Note_on_c, 0, 86, 105
2, 441984, Note_on_c, 0, 86, 0
2, 442080, Note_on_c, 0, 84, 105
2, 442296, Note_on_c, 0, 84, 0
2, 442320, Note_on_c, 0, 82, 105
2, 442512, Note_on_c, 0, 82, 0
2, 442560, Note_on_c, 0, 84, 105
2, 445824, Note_on_c, 0, 84, 0
2, 445920, Note_on_c, 0, 82, 105
2, 446112, Note_on_c, 0, 82, 0
2, 446160, Note_on_c, 0, 81, 105
2, 446352, Note_on_c, 0, 81, 0
2, 446400, Note_on_c, 0, 82, 105
2, 446784, Note_on_c, 0, 82, 0
2, 447360, Note_on_c, 0, 91, 105
2, 447936, Note_on_c, 0, 91, 0
2, 448080, Note_on_c, 0, 89, 105
2, 448272, Note_on_c, 0, 89, 0
2, 448320, Note_on_c, 0, 88, 105
2, 448896, Note_on_c, 0, 88, 0
2, 449040, Note_on_c, 0, 86, 105
2, 449232, Note_on_c, 0, 86, 0
2, 449280, Note_on_c, 0, 85, 105
2, 449760, Note_on_c, 0, 85, 0
2, 449760, Note_on_c, 0, 88, 105
2, 450240, Note_on_c, 0, 88, 0
2, 450240, Note_on_c, 0, 89, 105
2, 450720, Note_on_c, 0, 89, 0
2, 450720, Note_on_c, 0, 86, 105
2, 451104, Note_on_c, 0, 86, 0
2, 451200, Note_on_c, 0, 85, 105
2, 451680, Note_on_c, 0, 85, 0
2, 451680, Note_on_c, 0, 88, 105
2, 452160, Note_on_c, 0, 88, 0
2, 452160, Note_on_c, 0, 89, 105
2, 452640, Note_on_c, 0, 89, 0
2, 452640, Note_on_c, 0, 86, 105
2, 453024, Note_on_c, 0, 86, 0
2, 453120, Note_on_c, 0, 85, 105
2, 453600, Note_on_c, 0, 85, 0
2, 453600, Note_on_c, 0, 88, 105
2, 454080, Note_on_c, 0, 88, 0
2, 454080, Note_on_c, 0, 89, 105
2, 454560, Note_on_c, 0, 89, 0
2, 454560, Note_on_c, 0, 86, 105
2, 454944, Note_on_c, 0, 86, 0
2, 455040, Note_on_c, 0, 85, 105
2, 455520, Note_on_c, 0, 85, 0
2, 455520, Note_on_c, 0, 88, 105
2, 456000, Note_on_c, 0, 88, 0
2, 456000, Note_on_c, 0, 89, 105
2, 456480, Note_on_c, 0, 89, 0
2, 456480, Note_on_c, 0, 86, 105
2, 456864, Note_on_c, 0, 86, 0
2, 456960, Note_on_c, 0, 85, 105
2, 457728, Note_on_c, 0, 85, 0
2, 460320, Note_on_c, 0, 77, 70
2, 460560, Note_on_c, 0, 77, 0
2, 460560, Note_on_c, 0, 75, 70
2, 460704, Note_on_c, 0, 75, 0
2, 460800, Note_on_c, 0, 75, 70
2, 461088, Note_on_c, 0, 75, 0
2, 461280, Note_on_c, 0, 77, 70
2, 461520, Note_on_c, 0, 77, 0
2, 461520, Note_on_c, 0, 75, 70
2, 461664, Note_on_c, 0, 75, 0
2, 461760, Note_on_c, 0, 75, 70
2, 462048, Note_on_c, 0, 75, 0
2, 462240, Note_on_c, 0, 75, 70
2, 462528, Note_on_c, 0, 75, 0
2, 464160, Note_on_c, 0, 78, 70
2, 464400, Note_on_c, 0, 78, 0
2, 464400, Note_on_c, 0, 77, 70
2, 464544, Note_on_c, 0, 77, 0
2, 464640, Note_on_c, 0, 77, 70
2, 464928, Note_on_c, 0, 77, 0
2, 465120, Note_on_c, 0, 78, 70
2, 465360, Note_on_c, 0, 78, 0
2, 465360, Note_on_c, 0, 77, 70
2, 465504, Note_on_c, 0, 77, 0
2, 465600, Note_on_c, 0, 77, 70
2, 465888, Note_on_c, 0, 77, 0
2, 466080, Note_on_c, 0, 77, 70
2, 466368, Note_on_c, 0, 77, 0
2, 468000, Note_on_c, 0, 79, 70
2, 468240, Note_on_c, 0, 79, 0
2, 468240, Note_on_c, 0, 77, 70
2, 468384, Note_on_c, 0, 77, 0
2, 468480, Note_on_c, 0, 77, 70
2, 468768, Note_on_c, 0, 77, 0
2, 468960, Note_on_c, 0, 79, 70
2, 469200, Note_on_c, 0, 79, 0
2, 469200, Note_on_c, 0, 77, 70
2, 469344, Note_on_c, 0, 77, 0
2, 469440, Note_on_c, 0, 77, 70
2, 469728, Note_on_c, 0, 77, 0
2, 469920, Note_on_c, 0, 77, 70
2, 470208, Note_on_c, 0, 77, 0
2, 471840, Note_on_c, 0, 80, 70
2, 472080, Note_on_c, 0, 80, 0
2, 472080, Note_on_c, 0, 79, 70
2, 472224, Note_on_c, 0, 79, 0
2, 472320, Note_on_c, 0, 79, 70
2, 472608, Note_on_c, 0, 79, 0
2, 472800, Note_on_c, 0, 80, 70
2, 473040, Note_on_c, 0, 80, 0
2, 473040, Note_on_c, 0, 79, 70
2, 473184, Note_on_c, 0, 79, 0
2, 473280, Note_on_c, 0, 79, 70
2, 473568, Note_on_c, 0, 79, 0
2, 473760, Note_on_c, 0, 79, 70
2, 474048, Note_on_c, 0, 79, 0
2, 476640, Note_on_c, 0, 83, 70
2, 476880, Note_on_c, 0, 83, 0
2, 476880, Note_on_c, 0, 84, 70
2, 477072, Note_on_c, 0, 84, 0
2, 477120, Note_on_c, 0, 84, 70
2, 477504, Note_on_c, 0, 84, 0
2, 480480, Note_on_c, 0, 87, 70
2, 480720, Note_on_c, 0, 87, 0
2, 480720, Note_on_c, 0, 86, 70
2, 480912, Note_on_c, 0, 86, 0
2, 480960, Note_on_c, 0, 86, 70
2, 481344, Note_on_c, 0, 86, 0
2, 484320, Note_on_c, 0, 91, 58
2, 484560, Note_on_c, 0, 91, 0
2, 484560, Note_on_c, 0, 90, 58
2, 484752, Note_on_c, 0, 90, 0
2, 484800, Note_on_c, 0, 90, 58
2, 485184, Note_on_c, 0, 90, 0
2, 485760, Note_on_c, 0, 81, 105
2, 486240, Note_on_c, 0, 81, 0
2, 486240, Note_on_c, 0, 84, 105
2, 486720, Note_on_c, 0, 84, 0
2, 486720, Note_on_c, 0, 87, 105
2, 487104, Note_on_c, 0, 87, 0
2, 487680, Note_on_c, 0, 79, 105
2, 488160, Note_on_c, 0, 79, 0
2, 488160, Note_on_c, 0, 82, 105
2, 488640, Note_on_c, 0, 82, 0
2, 488640, Note_on_c, 0, 86, 105
2, 489024, Note_on_c, 0, 86, 0
2, 489600, Note_on_c, 0, 91, 105
2, 490080, Note_on_c, 0, 91, 0
2, 490080, Note_on_c, 0, 88, 105
2, 490560, Note_on_c, 0, 88, 0
2, 490560, Note_on_c, 0, 85, 105
2, 490944, Note_on_c, 0, 85, 0
2, 491520, Note_on_c, 0, 86, 105
2, 492000, Note_on_c, 0, 86, 0
2, 492000, Note_on_c, 0, 81, 105
2, 492480, Note_on_c, 0, 81, 0
2, 492480, Note_on_c, 0, 78, 105
2, 492864, Note_on_c, 0, 78, 0
2, 493440, Note_on_c, 0, 81, 105
2, 493920, Note_on_c, 0, 81, 0
2, 493920, Note_on_c, 0, 84, 105
2, 494400, Note_on_c, 0, 84, 0
2, 494400, Note_on_c, 0, 90, 105
2, 494784, Note_on_c, 0, 90, 0
2, 495360, Note_on_c, 0, 82, 105
2, 495840, Note_on_c, 0, 82, 0
2, 495840, Note_on_c, 0, 86, 105
2, 496320, Note_on_c, 0, 86, 0
2, 496320, Note_on_c, 0, 91, 105
2, 496704, Note_on_c, 0, 91, 0
2, 499680, Note_on_c, 0, 87, 70
2, 499920, Note_on_c, 0, 87, 0
2, 499920, Note_on_c, 0, 86, 70
2, 500112, Note_on_c, 0, 86, 0
2, 500160, Note_on_c, 0, 86, 70
2, 501504, Note_on_c, 0, 86, 0
2, 501600, Note_on_c, 0, 86, 70
2, 501840, Note_on_c, 0, 86, 0
2, 501840, Note_on_c, 0, 85, 70
2, 502032, Note_on_c, 0, 85, 0
2, 502080, Note_on_c, 0, 84, 70
2, 503424, Note_on_c, 0, 84, 0
2, 503520, Note_on_c, 0, 84, 70
2, 503760, Note_on_c, 0, 84, 0
2, 503760, Note_on_c, 0, 83, 70
2, 504000, Note_on_c, 0, 83, 0
2, 504000, Note_on_c, 0, 82, 70
2, 505344, Note_on_c, 0, 82, 0
2, 505440, Note_on_c, 0, 82, 70
2, 505680, Note_on_c, 0, 82, 0
2, 505680, Note_on_c, 0, 81, 70
2, 505872, Note_on_c, 0, 81, 0
2, 505920, Note_on_c, 0, 81, 70
2, 507264, Note_on_c, 0, 81, 0
2, 507360, Note_on_c, 0, 81, 70
2, 507600, Note_on_c, 0, 81, 0
2, 507600, Note_on_c, 0, 80, 70
2, 507792, Note_on_c, 0, 80, 0
2, 507840, Note_on_c, 0, 79, 58
2, 509760, Note_on_c, 0, 79, 0
2, 509760, Note_on_c, 0, 78, 58
2, 510720, Note_on_c, 0, 78, 0
2, 510720, Note_on_c, 0, 79, 58
2, 511104, Note_on_c, 0, 79, 0
2, 532320, Note_on_c, 0, 78, 70
2, 532800, Note_on_c, 0, 78, 0
2, 532800, Note_on_c, 0, 79, 70
2, 533280, Note_on_c, 0, 79, 0
2, 533280, Note_on_c, 0, 81, 70
2, 533760, Note_on_c, 0, 81, 0
2, 533760, Note_on_c, 0, 82, 70
2, 534240, Note_on_c, 0, 82, 0
2, 534240, Note_on_c, 0, 84, 70
2, 534480, Note_on_c, 0, 84, 0
2, 534480, Note_on_c, 0, 82, 70
2, 534720, Note_on_c, 0, 82, 0
2, 534720, Note_on_c, 0, 81, 70
2, 535200, Note_on_c, 0, 81, 0
2, 535200, Note_on_c, 0, 79, 70
2, 535680, Note_on_c, 0, 79, 0
2, 535680, Note_on_c, 0, 78, 70
2, 536064, Note_on_c, 0, 78, 0
2, 536640, Note_on_c, 0, 85, 105
2, 537600, Note_on_c, 0, 85, 0
2, 537600, Note_on_c, 0, 86, 105
2, 537984, Note_on_c, 0, 86, 0
2, 538560, Note_on_c, 0, 85, 105
2, 539520, Note_on_c, 0, 85, 0
2, 539520, Note_on_c, 0, 86, 105
2, 539904, Note_on_c, 0, 86, 0
2, 540480, Note_on_c, 0, 85, 105
2, 541440, Note_on_c, 0, 85, 0
2, 541440, Note_on_c, 0, 86, 105
2, 541728, Note_on_c, 0, 86, 0
2, 541920, Note_on_c, 0, 85, 105
2, 542208, Note_on_c, 0, 85, 0
2, 542400, Note_on_c, 0, 86, 105
2, 542688, Note_on_c, 0, 86, 0
2, 542880, Note_on_c, 0, 85, 105
2, 543168, Note_on_c, 0, 85, 0
2, 543360, Note_on_c, 0, 86, 105
2, 544128, Note_on_c, 0, 86, 0
2, 551040, Note_on_c, 0, 82, 105
2, 552864, Note_on_c, 0, 82, 0
2, 552960, Note_on_c, 0, 83, 70
2, 554784, Note_on_c, 0, 83, 0
2, 554880, Note_on_c, 0, 82, 70
2, 555792, Note_on_c, 0, 82, 0
2, 555840, Note_on_c, 0, 86, 70
2, 557712, Note_on_c, 0, 86, 0
2, 557760, Note_on_c, 0, 80, 70
2, 558672, Note_on_c, 0, 80, 0
2, 558720, Note_on_c, 0, 79, 105
2, 559488, Note_on_c, 0, 79, 0
2, 559680, Note_on_c, 0, 75, 105
2, 560448, Note_on_c, 0, 75, 0
2, 560640, Note_on_c, 0, 82, 105
2, 562176, Note_on_c, 0, 82, 0
2, 562560, Note_on_c, 0, 80, 105
2, 564096, Note_on_c, 0, 80, 0
2, 564480, Note_on_c, 0, 79, 105
2, 565248, Note_on_c, 0, 79, 0
2, 565440, Note_on_c, 0, 91, 105
2, 566208, Note_on_c, 0, 91, 0
2, 566400, Note_on_c, 0, 89, 105
2, 567936, Note_on_c, 0, 89, 0
2, 568320, Note_on_c, 0, 88, 105
2, 569088, Note_on_c, 0, 88, 0
2, 569280, Note_on_c, 0, 85, 105
2, 570048, Note_on_c, 0, 85, 0
2, 570240, Note_on_c, 0, 84, 105
2, 571008, Note_on_c, 0, 84, 0
2, 571200, Note_on_c, 0, 82, 105
2, 571968, Note_on_c, 0, 82, 0
2, 572160, Note_on_c, 0, 80, 105
2, 572928, Note_on_c, 0, 80, 0
2, 573120, Note_on_c, 0, 77, 105
2, 573888, Note_on_c, 0, 77, 0
2, 574080, Note_on_c, 0, 84, 105
2, 575616, Note_on_c, 0, 84, 0
2, 576000, Note_on_c, 0, 85, 105
2, 577536, Note_on_c, 0, 85, 0
2, 577920, Note_on_c, 0, 84, 105
2, 579456, Note_on_c, 0, 84, 0
2, 579840, Note_on_c, 0, 82, 105
2, 581376, Note_on_c, 0, 82, 0
2, 581760, Note_on_c, 0, 80, 105
2, 582144, Note_on_c, 0, 80, 0
2, 582240, Note_on_c, 0, 89, 105
2, 582624, Note_on_c, 0, 89, 0
2, 582720, Note_on_c, 0, 89, 105
2, 583104, Note_on_c, 0, 89, 0
2, 583200, Note_on_c, 0, 89, 105
2, 583584, Note_on_c, 0, 89, 0
2, 584160, Note_on_c, 0, 89, 105
2, 584544, Note_on_c, 0, 89, 0
2, 584640, Note_on_c, 0, 89, 105
2, 585024, Note_on_c, 0, 89, 0
2, 585120, Note_on_c, 0, 89, 105
2, 585504, Note_on_c, 0, 89, 0
2, 586080, Note_on_c, 0, 89, 105
2, 586560, Note_on_c, 0, 89, 0
2, 586560, Note_on_c, 0, 87, 105
2, 586944, Note_on_c, 0, 87, 0
2, 587040, Note_on_c, 0, 87, 105
2, 587328, Note_on_c, 0, 87, 0
2, 588000, Note_on_c, 0, 87, 105
2, 588384, Note_on_c, 0, 87, 0
2, 588480, Note_on_c, 0, 87, 105
2, 588864, Note_on_c, 0, 87, 0
2, 588960, Note_on_c, 0, 87, 105
2, 589344, Note_on_c, 0, 87, 0
2, 589920, Note_on_c, 0, 87, 105
2, 590400, Note_on_c, 0, 87, 0
2, 590400, Note_on_c, 0, 86, 105
2, 590784, Note_on_c, 0, 86, 0
2, 590880, Note_on_c, 0, 86, 105
2, 591168, Note_on_c, 0, 86, 0
2, 591840, Note_on_c, 0, 86, 105
2, 592224, Note_on_c, 0, 86, 0
2, 592320, Note_on_c, 0, 86, 105
2, 592704, Note_on_c, 0, 86, 0
2, 592800, Note_on_c, 0, 86, 105
2, 593184, Note_on_c, 0, 86, 0
2, 593760, Note_on_c, 0, 86, 105
2, 594240, Note_on_c, 0, 86, 0
2, 594240, Note_on_c, 0, 84, 105
2, 594528, Note_on_c, 0, 84, 0
2, 594720, Note_on_c, 0, 84, 105
2, 595008, Note_on_c, 0, 84, 0
2, 595680, Note_on_c, 0, 84, 105
2, 595968, Note_on_c, 0, 84, 0
2, 596160, Note_on_c, 0, 84, 105
2, 596640, Note_on_c, 0, 84, 0
2, 596640, Note_on_c, 0, 78, 105
2, 596928, Note_on_c, 0, 78, 0
2, 597120, Note_on_c, 0, 79, 105
2, 598848, Note_on_c, 0, 79, 0
2, 599040, Note_on_c, 0, 86, 105
2, 600768, Note_on_c, 0, 86, 0
2, 600960, Note_on_c, 0, 84, 105
2, 602688, Note_on_c, 0, 84, 0
2, 602880, Note_on_c, 0, 82, 105
2, 604608, Note_on_c, 0, 82, 0
2, 604800, Note_on_c, 0, 81, 105
2, 606240, Note_on_c, 0, 81, 0
2, 606240, Note_on_c, 0, 78, 105
2, 606624, Note_on_c, 0, 78, 0
2, 606720, Note_on_c, 0, 79, 105
2, 608016, Note_on_c, 0, 79, 0
2, 608160, Note_on_c, 0, 86, 105
2, 608544, Note_on_c, 0, 86, 0
2, 608640, Note_on_c, 0, 85, 125
2, 610176, Note_on_c, 0, 85, 0
2, 610320, Note_on_c, 0, 86, 105
2, 610512, Note_on_c, 0, 86, 0
2, 610560, Note_on_c, 0, 85, 125
2, 612096, Note_on_c, 0, 85, 0
2, 612240, Note_on_c, 0, 86, 105
2, 612432, Note_on_c, 0, 86, 0
2, 612480, Note_on_c, 0, 85, 125
2, 614016, Note_on_c, 0, 85, 0
2, 614160, Note_on_c, 0, 86, 105
2, 614352, Note_on_c, 0, 86, 0
2, 614400, Note_on_c, 0, 85, 125
2, 615936, Note_on_c, 0, 85, 0
2, 616320, Note_on_c, 0, 86, 105
2, 617088, Note_on_c, 0, 86, 0
2, 617280, Note_on_c, 0, 84, 105
2, 618048, Note_on_c, 0, 84, 0
2, 618240, Note_on_c, 0, 82, 105
2, 619008, Note_on_c, 0, 82, 0
2, 619200, Note_on_c, 0, 85, 105
2, 619968, Note_on_c, 0, 85, 0
2, 620160, Note_on_c, 0, 86, 105
2, 620928, Note_on_c, 0, 86, 0
2, 621120, Note_on_c, 0, 90, 105
2, 621888, Note_on_c, 0, 90, 0
2, 622080, Note_on_c, 0, 91, 105
2, 622848, Note_on_c, 0, 91, 0
2, 623040, Note_on_c, 0, 85, 105
2, 623808, Note_on_c, 0, 85, 0
2, 624000, Note_on_c, 0, 86, 105
2, 624384, Note_on_c, 0, 86, 0
2, 624960, Note_on_c, 0, 74, 92
2, 625344, Note_on_c, 0, 74, 0
2, 629760, Note_on_c, 0, 84, 58
2, 631200, Note_on_c, 0, 84, 0
2, 631200, Note_on_c, 0, 86, 58
2, 631320, Note_on_c, 0, 86, 0
2, 631320, Note_on_c, 0, 84, 58
2, 631440, Note_on_c, 0, 84, 0
2, 631440, Note_on_c, 0, 82, 58
2, 631560, Note_on_c, 0, 82, 0
2, 631560, Note_on_c, 0, 81, 58
2, 631680, Note_on_c, 0, 81, 0
2, 631680, Note_on_c, 0, 79, 58
2, 632064, Note_on_c, 0, 79, 0
2, 641280, Note_on_c, 0, 79, 70
2, 641520, Note_on_c, 0, 79, 0
2, 641520, Note_on_c, 0, 78, 70
2, 641760, Note_on_c, 0, 78, 0
2, 641760, Note_on_c, 0, 81, 70
2, 642000, Note_on_c, 0, 81, 0
2, 642000, Note_on_c, 0, 79, 70
2, 642240, Note_on_c, 0, 79, 0
2, 642240, Note_on_c, 0, 82, 70
2, 642480, Note_on_c, 0, 82, 0
2, 642480, Note_on_c, 0, 81, 70
2, 642720, Note_on_c, 0, 81, 0
2, 642720, Note_on_c, 0, 84, 70
2, 642960, Note_on_c, 0, 84, 0
2, 642960, Note_on_c, 0, 82, 70
2, 643152, Note_on_c, 0, 82, 0
2, 643200, Note_on_c, 0, 86, 70
2, 644640, Note_on_c, 0, 86, 0
2, 644640, Note_on_c, 0, 85, 70
2, 645120, Note_on_c, 0, 85, 0
2, 645120, Note_on_c, 0, 84, 70
2, 645504, Note_on_c, 0, 84, 0
2, 647520, Note_on_c, 0, 79, 70
2, 647808, Note_on_c, 0, 79, 0
2, 648000, Note_on_c, 0, 79, 70
2, 648480, Note_on_c, 0, 79, 0
2, 648480, Note_on_c, 0, 81, 70
2, 648864, Note_on_c, 0, 81, 0
2, 648960, Note_on_c, 0, 82, 70
2, 649680, Note_on_c, 0, 82, 0
2, 649680, Note_on_c, 0, 84, 70
2, 649872, Note_on_c, 0, 84, 0
2, 649920, Note_on_c, 0, 81, 70
2, 650304, Note_on_c, 0, 81, 0
2, 650880, Note_on_c, 0, 87, 58
2, 652032, Note_on_c, 0, 87, 0
2, 652320, Note_on_c, 0, 86, 58
2, 652704, Note_on_c, 0, 86, 0
2, 652800, Note_on_c, 0, 85, 58
2, 653184, Note_on_c, 0, 85, 0
2, 653280, Note_on_c, 0, 84, 58
2, 653664, Note_on_c, 0, 84, 0
2, 653760, Note_on_c, 0, 83, 58
2, 654144, Note_on_c, 0, 83, 0
2, 654240, Note_on_c, 0, 82, 58
2, 654624, Note_on_c, 0, 82, 0
2, 655200, Note_on_c, 0, 86, 58
2, 656160, Note_on_c, 0, 86, 0
2, 656160, Note_on_c, 0, 87, 58
2, 656544, Note_on_c, 0, 87, 0
2, 657120, Note_on_c, 0, 86, 58
2, 658080, Note_on_c, 0, 86, 0
2, 658080, Note_on_c, 0, 87, 58
2, 658464, Note_on_c, 0, 87, 0
2, 659040, Note_on_c, 0, 86, 58
2, 660000, Note_on_c, 0, 86, 0
2, 660000, Note_on_c, 0, 87, 58
2, 660384, Note_on_c, 0, 87, 0
2, 660960, Note_on_c, 0, 86, 58
2, 661920, Note_on_c, 0, 86, 0
2, 661920, Note_on_c, 0, 87, 58
2, 662304, Note_on_c, 0, 87, 0
2, 662400, Note_on_c, 0, 86, 58
2, 665856, Note_on_c, 0, 86, 0
2, 666240, Note_on_c, 0, 87, 105
2, 667008, Note_on_c, 0, 87, 0
2, 667200, Note_on_c, 0, 84, 105
2, 667584, Note_on_c, 0, 84, 0
2, 667680, Note_on_c, 0, 81, 105
2, 668064, Note_on_c, 0, 81, 0
2, 668160, Note_on_c, 0, 82, 105
2, 668640, Note_on_c, 0, 82, 0
2, 668640, Note_on_c, 0, 85, 105
2, 669120, Note_on_c, 0, 85, 0
2, 669120, Note_on_c, 0, 89, 105
2, 671040, Note_on_c, 0, 89, 0
2, 671040, Note_on_c, 0, 86, 105
2, 671520, Note_on_c, 0, 86, 0
2, 671520, Note_on_c, 0, 83, 105
2, 671904, Note_on_c, 0, 83, 0
2, 672000, Note_on_c, 0, 84, 105
2, 672480, Note_on_c, 0, 84, 0
2, 672480, Note_on_c, 0, 87, 105
2, 672960, Note_on_c, 0, 87, 0
2, 672960, Note_on_c, 0, 91, 105
2, 674880, Note_on_c, 0, 91, 0
2, 674880, Note_on_c, 0, 88, 105
2, 675360, Note_on_c, 0, 88, 0
2, 675360, Note_on_c, 0, 85, 105
2, 675744, Note_on_c, 0, 85, 0
2, 675840, Note_on_c, 0, 86, 105
2, 677376, Note_on_c, 0, 86, 0
2, 677760, Note_on_c, 0, 82, 105
2, 677880, Note_on_c, 0, 82, 0
2, 677880, Note_on_c, 0, 81, 105
2, 678000, Note_on_c, 0, 81, 0
2, 678000, Note_on_c, 0, 82, 105
2, 678120, Note_on_c, 0, 82, 0
2, 678120, Note_on_c, 0, 81, 105
2, 678240, Note_on_c, 0, 81, 0
2, 678240, Note_on_c, 0, 82, 105
2, 678360, Note_on_c, 0, 82, 0
2, 678360, Note_on_c, 0, 81, 105
2, 678480, Note_on_c, 0, 81, 0
2, 678480, Note_on_c, 0, 82, 105
2, 678600, Note_on_c, 0, 82, 0
2, 678600, Note_on_c, 0, 81, 105
2, 678720, Note_on_c, 0, 81, 0
2, 678720, Note_on_c, 0, 82, 105
2, 678840, Note_on_c, 0, 82, 0
2, 678840, Note_on_c, 0, 81, 105
2, 678960, Note_on_c, 0, 81, 0
2, 678960, Note_on_c, 0, 82, 105
2, 679080, Note_on_c, 0, 82, 0
2, 679080, Note_on_c, 0, 81, 105
2, 679200, Note_on_c, 0, 81, 0
2, 679200, Note_on_c, 0, 82, 105
2, 679320, Note_on_c, 0, 82, 0
2, 679320, Note_on_c, 0, 81, 105
2, 679440, Note_on_c, 0, 81, 0
2, 679440, Note_on_c, 0, 79, 105
2, 679560, Note_on_c, 0, 79, 0
2, 679560, Note_on_c, 0, 81, 105
2, 679680, Note_on_c, 0, 81, 0
2, 679680, Note_on_c, 0, 79, 92
2, 680064, Note_on_c, 0, 79, 0
2, 685440, Note_on_c, 0, 81, 92
2, 685824, Note_on_c, 0, 81, 0
2, 686400, Note_on_c, 0, 82, 105
2, 686784, Note_on_c, 0, 82, 0
2, 687360, Note_on_c, 0, 87, 105
2, 688464, Note_on_c, 0, 87, 0
2, 688560, Note_on_c, 0, 86, 70
2, 688704, Note_on_c, 0, 86, 0
2, 688800, Note_on_c, 0, 84, 70
2, 688944, Note_on_c, 0, 84, 0
2, 689040, Note_on_c, 0, 82, 70
2, 689184, Note_on_c, 0, 82, 0
2, 689280, Note_on_c, 0, 81, 70
2, 689424, Note_on_c, 0, 81, 0
2, 689520, Note_on_c, 0, 79, 70
2, 689664, Note_on_c, 0, 79, 0
2, 689760, Note_on_c, 0, 78, 70
2, 689904, Note_on_c, 0, 78, 0
2, 690000, Note_on_c, 0, 75, 70
2, 690144, Note_on_c, 0, 75, 0
2, 690240, Note_on_c, 0, 74, 70
2, 690384, Note_on_c, 0, 74, 0
2, 690480, Note_on_c, 0, 72, 70
2, 690624, Note_on_c, 0, 72, 0
2, 690720, Note_on_c, 0, 70, 70
2, 690864, Note_on_c, 0, 70, 0
2, 690960, Note_on_c, 0, 69, 70
2, 691104, Note_on_c, 0, 69, 0
2, 691200, Note_on_c, 0, 67, 58
2, 691584, Note_on_c, 0, 67, 0
2, 696480, Note_on_c, 0, 87, 70
2, 696720, Note_on_c, 0, 87, 0
2, 696720, Note_on_c, 0, 86, 70
2, 696912, Note_on_c, 0, 86, 0
2, 696960, Note_on_c, 0, 86, 70
2, 697344, Note_on_c, 0, 86, 0
2, 697440, Note_on_c, 0, 87, 70
2, 697680, Note_on_c, 0, 87, 0
2, 697680, Note_on_c, 0, 86, 70
2, 697872, Note_on_c, 0, 86, 0
2, 697920, Note_on_c, 0, 86, 70
2, 698304, Note_on_c, 0, 86, 0
2, 700800, Note_on_c, 0, 89, 105
2, 702336, Note_on_c, 0, 89, 0
2, 702720, Note_on_c, 0, 87, 105
2, 704256, Note_on_c, 0, 87, 0
2, 704640, Note_on_c, 0, 86, 105
2, 705408, Note_on_c, 0, 86, 0
2, 705600, Note_on_c, 0, 81, 105
2, 706368, Note_on_c, 0, 81, 0
2, 706560, Note_on_c, 0, 79, 92
2, 706944, Note_on_c, 0, 79, 0
2, 713760, Note_on_c, 0, 87, 92
2, 714000, Note_on_c, 0, 87, 0
2, 714000, Note_on_c, 0, 86, 70
2, 714192, Note_on_c, 0, 86, 0
2, 714240, Note_on_c, 0, 86, 70
2, 714624, Note_on_c, 0, 86, 0
2, 714720, Note_on_c, 0, 87, 70
2, 714960, Note_on_c, 0, 87, 0
2, 714960, Note_on_c, 0, 86, 70
2, 715152, Note_on_c, 0, 86, 0
2, 715200, Note_on_c, 0, 86, 70
2, 715584, Note_on_c, 0, 86, 0
2, 716160, Note_on_c, 0, 89, 105
2, 717696, Note_on_c, 0, 89, 0
2, 718080, Note_on_c, 0, 87, 105
2, 719616, Note_on_c, 0, 87, 0
2, 720000, Note_on_c, 0, 86, 105
2, 720960, Note_on_c, 0, 86, 0
2, 720960, Note_on_c, 0, 81, 105
2, 721728, Note_on_c, 0, 81, 0
2, 721920, Note_on_c, 0, 79, 105
2, 722688, Note_on_c, 0, 79, 0
2, 723600, Note_on_c, 0, 86, 105
2, 723792, Note_on_c, 0, 86, 0
2, 723840, Note_on_c, 0, 84, 105
2, 724032, Note_on_c, 0, 84, 0
2, 724080, Note_on_c, 0, 82, 105
2, 724272, Note_on_c, 0, 82, 0
2, 724320, Note_on_c, 0, 81, 105
2, 724512, Note_on_c, 0, 81, 0
2, 724560, Note_on_c, 0, 79, 105
2, 724752, Note_on_c, 0, 79, 0
2, 724800, Note_on_c, 0, 78, 105
2, 724992, Note_on_c, 0, 78, 0
2, 725040, Note_on_c, 0, 75, 105
2, 725232, Note_on_c, 0, 75, 0
2, 725280, Note_on_c, 0, 74, 105
2, 725472, Note_on_c, 0, 74, 0
2, 725520, Note_on_c, 0, 72, 105
2, 725712, Note_on_c, 0, 72, 0
2, 725760, Note_on_c, 0, 70, 105
2, 726072, Note_on_c, 0, 70, 0
2, 726240, Note_on_c, 0, 86, 105
2, 726552, Note_on_c, 0, 86, 0
2, 726720, Note_on_c, 0, 87, 105
2, 727032, Note_on_c, 0, 87, 0
2, 727200, Note_on_c, 0, 78, 105
2, 727512, Note_on_c, 0, 78, 0
2, 727680, Note_on_c, 0, 79, 105
2, 728064, Note_on_c, 0, 79, 0
2, 730320, Note_on_c, 0, 91, 105
2, 730512, Note_on_c, 0, 91, 0
2, 730560, Note_on_c, 0, 90, 105
2, 730752, Note_on_c, 0, 90, 0
2, 730800, Note_on_c, 0, 87, 105
2, 730992, Note_on_c, 0, 87, 0
2, 731040, Note_on_c, 0, 86, 105
2, 731232, Note_on_c, 0, 86, 0
2, 731280, Note_on_c, 0, 84, 105
2, 731472, Note_on_c, 0, 84, 0
2, 731520, Note_on_c, 0, 82, 105
2, 731904, Note_on_c, 0, 82, 0
2, 732000, Note_on_c, 0, 79, 105
2, 732768, Note_on_c, 0, 79, 0
2, 732960, Note_on_c, 0, 80, 105
2, 733824, Note_on_c, 0, 80, 0
2, 733920, Note_on_c, 0, 81, 105
2, 734688, Note_on_c, 0, 81, 0
2, 734880, Note_on_c, 0, 82, 105
2, 735744, Note_on_c, 0, 82, 0
2, 735840, Note_on_c, 0, 83, 105
2, 736608, Note_on_c, 0, 83, 0
2, 736800, Note_on_c, 0, 84, 105
2, 737664, Note_on_c, 0, 84, 0
2, 737760, Note_on_c, 0, 85, 105
2, 738528, Note_on_c, 0, 85, 0
2, 739080, Note_on_c, 0, 86, 70
2, 739176, Note_on_c, 0, 86, 0
2, 739200, Note_on_c, 0, 86, 58
2, 741024, Note_on_c, 0, 86, 0
2, 741120, Note_on_c, 0, 78, 58
2, 742944, Note_on_c, 0, 78, 0
2, 743040, Note_on_c, 0, 79, 58
2, 743424, Note_on_c, 0, 79, 0
2, 752160, Note_on_c, 0, 87, 58
2, 752400, Note_on_c, 0, 87, 0
2, 752400, Note_on_c, 0, 86, 70
2, 752592, Note_on_c, 0, 86, 0
2, 752640, Note_on_c, 0, 86, 70
2, 753024, Note_on_c, 0, 86, 0
2, 753120, Note_on_c, 0, 87, 70
2, 753360, Note_on_c, 0, 87, 0
2, 753360, Note_on_c, 0, 86, 70
2, 753552, Note_on_c, 0, 86, 0
2, 753600, Note_on_c, 0, 86, 70
2, 753984, Note_on_c, 0, 86, 0
2, 754080, Note_on_c, 0, 87, 70
2, 754320, Note_on_c, 0, 87, 0
2, 754320, Note_on_c, 0, 86, 70
2, 754512, Note_on_c, 0, 86, 0
2, 754560, Note_on_c, 0, 86, 105
2, 754896, Note_on_c, 0, 86, 0
2, 755040, Note_on_c, 0, 86, 105
2, 755208, Note_on_c, 0, 86, 0
2, 755280, Note_on_c, 0, 86, 105
2, 755448, Note_on_c, 0, 86, 0
2, 755520, Note_on_c, 0, 86, 105
2, 755856, Note_on_c, 0, 86, 0
2, 756000, Note_on_c, 0, 86, 105
2, 756168, Note_on_c, 0, 86, 0
2, 756240, Note_on_c, 0, 86, 105
2, 756408, Note_on_c, 0, 86, 0
2, 756480, Note_on_c, 0, 86, 105
2, 756816, Note_on_c, 0, 86, 0
2, 756960, Note_on_c, 0, 86, 105
2, 757128, Note_on_c, 0, 86, 0
2, 757200, Note_on_c, 0, 86, 105
2, 757368, Note_on_c, 0, 86, 0
2, 757440, Note_on_c, 0, 86, 105
2, 757776, Note_on_c, 0, 86, 0
2, 757920, Note_on_c, 0, 86, 105
2, 758088, Note_on_c, 0, 86, 0
2, 758160, Note_on_c, 0, 86, 105
2, 758328, Note_on_c, 0, 86, 0
2, 758400, Note_on_c, 0, 86, 105
2, 758736, Note_on_c, 0, 86, 0
2, 758880, Note_on_c, 0, 86, 105
2, 759048, Note_on_c, 0, 86, 0
2, 759120, Note_on_c, 0, 86, 105
2, 759288, Note_on_c, 0, 86, 0
2, 759360, Note_on_c, 0, 86, 105
2, 759696, Note_on_c, 0, 86, 0
2, 759840, Note_on_c, 0, 86, 105
2, 760008, Note_on_c, 0, 86, 0
2, 760080, Note_on_c, 0, 86, 105
2, 760248, Note_on_c, 0, 86, 0
2, 760320, Note_on_c, 0, 86, 105
2, 760656, Note_on_c, 0, 86, 0
2, 760800, Note_on_c, 0, 90, 105
2, 761136, Note_on_c, 0, 90, 0
2, 761280, Note_on_c, 0, 91, 105
2, 761616, Note_on_c, 0, 91, 0
2, 761760, Note_on_c, 0, 90, 105
2, 762096, Note_on_c, 0, 90, 0
2, 762240, Note_on_c, 0, 91, 105
2, 762624, Note_on_c, 0, 91, 0
2, 764160, Note_on_c, 0, 91, 105
2, 764544, Note_on_c, 0, 91, 0
2, 765120, Note_on_c, 0, 91, 105
2, 765504, Note_on_c, 0, 91, 0
2, 766080, Note_on_c, 0, 91, 105
2, 767040, Note_on_c, 0, 91, 0
2, 767040, End_track
3, 0, Start_track
3, 0, Sequencer_specific, 04, 43, 00, 01, 00
3, 0, Program_c, 1, 68
3, 0, Control_c, 1, 7, 90
3, 0, Control_c, 1, 91, 80
3, 0, Control_c, 1, 10, 64
3, 27360, Note_on_c, 1, 66, 70
3, 27840, Note_on_c, 1, 66, 0
3, 27840, Note_on_c, 1, 67, 70
3, 28320, Note_on_c, 1, 67, 0
3, 28320, Note_on_c, 1, 69, 70
3, 28800, Note_on_c, 1, 69, 0
3, 28800, Note_on_c, 1, 70, 70
3, 29280, Note_on_c, 1, 70, 0
3, 29280, Note_on_c, 1, 72, 70
3, 29520, Note_on_c, 1, 72, 0
3, 29520, Note_on_c, 1, 70, 70
3, 29760, Note_on_c, 1, 70, 0
3, 29760, Note_on_c, 1, 69, 70
3, 30240, Note_on_c, 1, 69, 0
3, 30240, Note_on_c, 1, 67, 70
3, 30696, Note_on_c, 1, 67, 0
3, 30720, Note_on_c, 1, 66, 70
3, 31104, Note_on_c, 1, 66, 0
3, 31680, Note_on_c, 1, 82, 105
3, 31680, Note_on_c, 1, 79, 105
3, 32640, Note_on_c, 1, 79, 0
3, 32640, Note_on_c, 1, 82, 0
3, 32640, Note_on_c, 1, 78, 105
3, 32640, Note_on_c, 1, 81, 105
3, 33024, Note_on_c, 1, 81, 0
3, 33024, Note_on_c, 1, 78, 0
3, 33600, Note_on_c, 1, 82, 105
3, 33600, Note_on_c, 1, 79, 105
3, 34560, Note_on_c, 1, 79, 0
3, 34560, Note_on_c, 1, 82, 0
3, 34560, Note_on_c, 1, 81, 105
3, 34560, Note_on_c, 1, 78, 105
3, 34944, Note_on_c, 1, 78, 0
3, 34944, Note_on_c, 1, 81, 0
3, 35520, Note_on_c, 1, 79, 105
3, 35520, Note_on_c, 1, 82, 105
3, 36480, Note_on_c, 1, 82, 0
3, 36480, Note_on_c, 1, 79, 0
3, 36480, Note_on_c, 1, 81, 105
3, 36480, Note_on_c, 1, 78, 105
3, 36768, Note_on_c, 1, 78, 0
3, 36768, Note_on_c, 1, 81, 0
3, 36960, Note_on_c, 1, 82, 105
3, 36960, Note_on_c, 1, 79, 105
3, 37248, Note_on_c, 1, 79, 0
3, 37248, Note_on_c, 1, 82, 0
3, 37440, Note_on_c, 1, 81, 105
3, 37440, Note_on_c, 1, 78, 105
3, 37728, Note_on_c, 1, 78, 0
3, 37728, Note_on_c, 1, 81, 0
3, 37920, Note_on_c, 1, 79, 105
3, 37920, Note_on_c, 1, 82, 105
3, 38208, Note_on_c, 1, 82, 0
3, 38208, Note_on_c, 1, 79, 0
3, 38400, Note_on_c, 1, 81, 105
3, 38400, Note_on_c, 1, 78, 105
3, 39168, Note_on_c, 1, 78, 0
3, 39168, Note_on_c, 1, 81, 0
3, 42240, Note_on_c, 1, 74, 70
3, 42240, Note_on_c, 1, 82, 70
3, 45984, Note_on_c, 1, 74, 0
3, 46080, Note_on_c, 1, 72, 70
3, 49824, Note_on_c, 1, 82, 0
3, 49920, Note_on_c, 1, 81, 70
3, 53664, Note_on_c, 1, 81, 0
3, 53664, Note_on_c, 1, 72, 0
3, 53760, Note_on_c, 1, 82, 70
3, 53760, Note_on_c, 1, 74, 70
3, 55296, Note_on_c, 1, 74, 0
3, 55296, Note_on_c, 1, 82, 0
3, 55680, Note_on_c, 1, 77, 105
3, 57216, Note_on_c, 1, 77, 0
3, 57600, Note_on_c, 1, 75, 105
3, 59136, Note_on_c, 1, 75, 0
3, 59520, Note_on_c, 1, 74, 105
3, 61056, Note_on_c, 1, 74, 0
3, 61440, Note_on_c, 1, 72, 105
3, 62976, Note_on_c, 1, 72, 0
3, 63360, Note_on_c, 1, 70, 105
3, 64896, Note_on_c, 1, 70, 0
3, 65280, Note_on_c, 1, 82, 112
3, 65280, Note_on_c, 1, 79, 92
3, 66816, Note_on_c, 1, 79, 0
3, 66816, Note_on_c, 1, 82, 0
3, 67200, Note_on_c, 1, 79, 92
3, 67200, Note_on_c, 1, 82, 112
3, 68736, Note_on_c, 1, 82, 0
3, 68736, Note_on_c, 1, 79, 0
3, 69120, Note_on_c, 1, 79, 92
3, 69120, Note_on_c, 1, 82, 112
3, 70656, Note_on_c, 1, 82, 0
3, 70656, Note_on_c, 1, 79, 0
3, 71040, Note_on_c, 1, 82, 112
3, 71040, Note_on_c, 1, 79, 92
3, 72576, Note_on_c, 1, 79, 0
3, 72576, Note_on_c, 1, 82, 0
3, 72960, Note_on_c, 1, 81, 92
3, 72960, Note_on_c, 1, 77, 92
3, 74496, Note_on_c, 1, 81, 0
3, 74880, Note_on_c, 1, 82, 105
3, 75648, Note_on_c, 1, 82, 0
3, 75648, Note_on_c, 1, 77, 0
3, 75840, Note_on_c, 1, 79, 105
3, 75840, Note_on_c, 1, 76, 105
3, 76608, Note_on_c, 1, 76, 0
3, 76608, Note_on_c, 1, 79, 0
3, 76800, Note_on_c, 1, 81, 105
3, 76800, Note_on_c, 1, 77, 105
3, 78336, Note_on_c, 1, 81, 0
3, 78720, Note_on_c, 1, 82, 105
3, 79488, Note_on_c, 1, 82, 0
3, 79488, Note_on_c, 1, 77, 0
3, 79680, Note_on_c, 1, 76, 105
3, 79680, Note_on_c, 1, 79, 105
3, 80448, Note_on_c, 1, 79, 0
3, 80448, Note_on_c, 1, 76, 0
3, 80640, Note_on_c, 1, 77, 105
3, 80640, Note_on_c, 1, 81, 105
3, 81024, Note_on_c, 1, 81, 0
3, 81024, Note_on_c, 1, 77, 0
3, 81600, Note_on_c, 1, 72, 92
3, 81600, Note_on_c, 1, 69, 92
3, 81984, Note_on_c, 1, 69, 0
3, 81984, Note_on_c, 1, 72, 0
3, 86400, Note_on_c, 1, 75, 70
3, 87840, Note_on_c, 1, 75, 0
3, 87840, Note_on_c, 1, 77, 70
3, 87960, Note_on_c, 1, 77, 0
3, 87960, Note_on_c, 1, 75, 70
3, 88080, Note_on_c, 1, 75, 0
3, 88080, Note_on_c, 1, 74, 70
3, 88200, Note_on_c, 1, 74, 0
3, 88200, Note_on_c, 1, 72, 70
3, 88320, Note_on_c, 1, 72, 0
3, 88320, Note_on_c, 1, 70, 70
3, 88704, Note_on_c, 1, 70, 0
3, 97920, Note_on_c, 1, 70, 70
3, 98160, Note_on_c, 1, 70, 0
3, 98160, Note_on_c, 1, 69, 70
3, 98400, Note_on_c, 1, 69, 0
3, 98400, Note_on_c, 1, 72, 70
3, 98640, Note_on_c, 1, 72, 0
3, 98640, Note_on_c, 1, 70, 70
3, 98880, Note_on_c, 1, 70, 0
3, 98880, Note_on_c, 1, 74, 70
3, 99120, Note_on_c, 1, 74, 0
3, 99120, Note_on_c, 1, 72, 70
3, 99360, Note_on_c, 1, 72, 0
3, 99360, Note_on_c, 1, 75, 70
3, 99600, Note_on_c, 1, 75, 0
3, 99600, Note_on_c, 1, 74, 70
3, 99792, Note_on_c, 1, 74, 0
3, 99840, Note_on_c, 1, 77, 70
3, 101280, Note_on_c, 1, 77, 0
3, 101280, Note_on_c, 1, 76, 70
3, 101760, Note_on_c, 1, 76, 0
3, 101760, Note_on_c, 1, 75, 70
3, 102144, Note_on_c, 1, 75, 0
3, 104160, Note_on_c, 1, 70, 70
3, 104472, Note_on_c, 1, 70, 0
3, 104640, Note_on_c, 1, 70, 70
3, 105120, Note_on_c, 1, 72, 70
3, 105504, Note_on_c, 1, 72, 0
3, 105504, Note_on_c, 1, 70, 0
3, 105600, Note_on_c, 1, 70, 70
3, 105600, Note_on_c, 1, 74, 70
3, 106320, Note_on_c, 1, 74, 0
3, 106320, Note_on_c, 1, 70, 0
3, 106320, Note_on_c, 1, 72, 70
3, 106320, Note_on_c, 1, 75, 70
3, 106560, Note_on_c, 1, 75, 0
3, 106560, Note_on_c, 1, 72, 0
3, 106560, Note_on_c, 1, 72, 70
3, 106560, Note_on_c, 1, 69, 70
3, 106944, Note_on_c, 1, 69, 0
3, 106944, Note_on_c, 1, 72, 0
3, 107520, Note_on_c, 1, 79, 70
3, 108672, Note_on_c, 1, 79, 0
3, 108960, Note_on_c, 1, 78, 70
3, 109344, Note_on_c, 1, 78, 0
3, 109440, Note_on_c, 1, 77, 70
3, 109824, Note_on_c, 1, 77, 0
3, 109920, Note_on_c, 1, 76, 70
3, 110304, Note_on_c, 1, 76, 0
3, 110400, Note_on_c, 1, 75, 70
3, 110784, Note_on_c, 1, 75, 0
3, 110880, Note_on_c, 1, 74, 70
3, 111264, Note_on_c, 1, 74, 0
3, 111360, Note_on_c, 1, 70, 58
3, 111360, Note_on_c, 1, 73, 58
3, 112800, Note_on_c, 1, 73, 0
3, 112800, Note_on_c, 1, 70, 0
3, 112800, Note_on_c, 1, 72, 58
3, 112800, Note_on_c, 1, 68, 58
3, 113184, Note_on_c, 1, 68, 0
3, 113184, Note_on_c, 1, 72, 0
3, 113280, Note_on_c, 1, 70, 58
3, 113280, Note_on_c, 1, 73, 58
3, 114720, Note_on_c, 1, 73, 0
3, 114720, Note_on_c, 1, 70, 0
3, 114720, Note_on_c, 1, 68, 58
3, 114720, Note_on_c, 1, 72, 58
3, 115104, Note_on_c, 1, 72, 0
3, 115104, Note_on_c, 1, 68, 0
3, 115200, Note_on_c, 1, 70, 58
3, 115200, Note_on_c, 1, 73, 58
3, 116640, Note_on_c, 1, 73, 0
3, 116640, Note_on_c, 1, 70, 0
3, 116640, Note_on_c, 1, 68, 58
3, 116640, Note_on_c, 1, 72, 58
3, 117024, Note_on_c, 1, 72, 0
3, 117024, Note_on_c, 1, 68, 0
3, 117120, Note_on_c, 1, 70, 58
3, 117120, Note_on_c, 1, 73, 58
3, 118560, Note_on_c, 1, 73, 0
3, 118560, Note_on_c, 1, 70, 0
3, 118560, Note_on_c, 1, 68, 58
3, 118560, Note_on_c, 1, 72, 58
3, 118944, Note_on_c, 1, 72, 0
3, 118944, Note_on_c, 1, 68, 0
3, 119040, Note_on_c, 1, 79, 58
3, 119040, Note_on_c, 1, 73, 58
3, 120576, Note_on_c, 1, 79, 0
3, 120960, Note_on_c, 1, 82, 70
3, 122496, Note_on_c, 1, 82, 0
3, 122496, Note_on_c, 1, 73, 0
3, 122880, Note_on_c, 1, 82, 92
3, 122880, Note_on_c, 1, 74, 92
3, 124704, Note_on_c, 1, 74, 0
3, 124704, Note_on_c, 1, 82, 0
3, 124800, Note_on_c, 1, 75, 105
3, 124800, Note_on_c, 1, 82, 105
3, 124920, Note_on_c, 1, 82, 0
3, 124920, Note_on_c, 1, 81, 105
3, 125040, Note_on_c, 1, 81, 0
3, 125040, Note_on_c, 1, 82, 105
3, 125160, Note_on_c, 1, 82, 0
3, 125160, Note_on_c, 1, 81, 105
3, 125280, Note_on_c, 1, 81, 0
3, 125280, Note_on_c, 1, 82, 105
3, 125400, Note_on_c, 1, 82, 0
3, 125400, Note_on_c, 1, 81, 105
3, 125520, Note_on_c, 1, 81, 0
3, 125520, Note_on_c, 1, 82, 105
3, 125640, Note_on_c, 1, 82, 0
3, 125640, Note_on_c, 1, 81, 105
3, 125760, Note_on_c, 1, 81, 0
3, 125760, Note_on_c, 1, 82, 105
3, 125880, Note_on_c, 1, 82, 0
3, 125880, Note_on_c, 1, 81, 105
3, 126000, Note_on_c, 1, 81, 0
3, 126000, Note_on_c, 1, 82, 105
3, 126120, Note_on_c, 1, 82, 0
3, 126120, Note_on_c, 1, 81, 105
3, 126240, Note_on_c, 1, 81, 0
3, 126240, Note_on_c, 1, 82, 105
3, 126360, Note_on_c, 1, 82, 0
3, 126360, Note_on_c, 1, 81, 105
3, 126480, Note_on_c, 1, 81, 0
3, 126480, Note_on_c, 1, 79, 105
3, 126600, Note_on_c, 1, 79, 0
3, 126600, Note_on_c, 1, 81, 105
3, 126720, Note_on_c, 1, 81, 0
3, 126720, Note_on_c, 1, 75, 0
3, 126720, Note_on_c, 1, 82, 105
3, 126720, Note_on_c, 1, 74, 105
3, 127104, Note_on_c, 1, 74, 0
3, 127104, Note_on_c, 1, 82, 0
3, 130560, Note_on_c, 1, 77, 92
3, 130560, Note_on_c, 1, 74, 105
3, 130944, Note_on_c, 1, 74, 0
3, 130944, Note_on_c, 1, 77, 0
3, 131520, Note_on_c, 1, 75, 105
3, 131520, Note_on_c, 1, 79, 105
3, 131904, Note_on_c, 1, 79, 0
3, 131904, Note_on_c, 1, 75, 0
3, 132480, Note_on_c, 1, 77, 105
3, 132480, Note_on_c, 1, 81, 105
3, 132864, Note_on_c, 1, 81, 0
3, 132864, Note_on_c, 1, 77, 0
3, 133440, Note_on_c, 1, 82, 105
3, 133440, Note_on_c, 1, 77, 105
3, 133824, Note_on_c, 1, 77, 0
3, 133824, Note_on_c, 1, 82, 0
3, 139680, Note_on_c, 1, 79, 105
3, 139920, Note_on_c, 1, 79, 0
3, 139920, Note_on_c, 1, 77, 80
3, 140112, Note_on_c, 1, 77, 0
3, 140160, Note_on_c, 1, 77, 80
3, 140544, Note_on_c, 1, 77, 0
3, 140640, Note_on_c, 1, 79, 80
3, 140880, Note_on_c, 1, 79, 0
3, 140880, Note_on_c, 1, 77, 80
3, 141072, Note_on_c, 1, 77, 0
3, 141120, Note_on_c, 1, 77, 80
3, 141504, Note_on_c, 1, 77, 0
3, 143520, Note_on_c, 1, 79, 80
3, 143760, Note_on_c, 1, 79, 0
3, 143760, Note_on_c, 1, 77, 80
3, 143952, Note_on_c, 1, 77, 0
3, 144000, Note_on_c, 1, 77, 80
3, 144384, Note_on_c, 1, 77, 0
3, 144480, Note_on_c, 1, 79, 80
3, 144720, Note_on_c, 1, 79, 0
3, 144720, Note_on_c, 1, 77, 80
3, 144912, Note_on_c, 1, 77, 0
3, 144960, Note_on_c, 1, 77, 80
3, 145344, Note_on_c, 1, 77, 0
3, 147840, Note_on_c, 1, 84, 105
3, 147840, Note_on_c, 1, 81, 105
3, 149376, Note_on_c, 1, 81, 0
3, 149376, Note_on_c, 1, 84, 0
3, 149760, Note_on_c, 1, 82, 105
3, 149760, Note_on_c, 1, 79, 105
3, 150528, Note_on_c, 1, 82, 0
3, 150720, Note_on_c, 1, 84, 105
3, 151488, Note_on_c, 1, 84, 0
3, 151488, Note_on_c, 1, 79, 0
3, 151680, Note_on_c, 1, 77, 105
3, 151680, Note_on_c, 1, 82, 105
3, 152448, Note_on_c, 1, 82, 0
3, 152448, Note_on_c, 1, 77, 0
3, 152640, Note_on_c, 1, 81, 105
3, 152640, Note_on_c, 1, 75, 105
3, 153408, Note_on_c, 1, 75, 0
3, 153408, Note_on_c, 1, 81, 0
3, 153600, Note_on_c, 1, 82, 92
3, 153600, Note_on_c, 1, 74, 92
3, 153984, Note_on_c, 1, 74, 0
3, 153984, Note_on_c, 1, 82, 0
3, 156960, Note_on_c, 1, 79, 80
3, 157200, Note_on_c, 1, 79, 0
3, 157200, Note_on_c, 1, 77, 80
3, 157392, Note_on_c, 1, 77, 0
3, 157440, Note_on_c, 1, 77, 80
3, 157824, Note_on_c, 1, 77, 0
3, 157920, Note_on_c, 1, 79, 80
3, 158160, Note_on_c, 1, 79, 0
3, 158160, Note_on_c, 1, 77, 80
3, 158352, Note_on_c, 1, 77, 0
3, 158400, Note_on_c, 1, 77, 80
3, 158784, Note_on_c, 1, 77, 0
3, 160800, Note_on_c, 1, 79, 80
3, 161040, Note_on_c, 1, 79, 0
3, 161040, Note_on_c, 1, 77, 80
3, 161232, Note_on_c, 1, 77, 0
3, 161280, Note_on_c, 1, 77, 80
3, 161664, Note_on_c, 1, 77, 0
3, 161760, Note_on_c, 1, 79, 80
3, 162000, Note_on_c, 1, 79, 0
3, 162000, Note_on_c, 1, 77, 80
3, 162192, Note_on_c, 1, 77, 0
3, 162240, Note_on_c, 1, 77, 80
3, 162624, Note_on_c, 1, 77, 0
3, 163200, Note_on_c, 1, 81, 80
3, 163200, Note_on_c, 1, 84, 80
3, 164736, Note_on_c, 1, 84, 0
3, 164736, Note_on_c, 1, 81, 0
3, 165120, Note_on_c, 1, 79, 105
3, 165120, Note_on_c, 1, 82, 105
3, 165888, Note_on_c, 1, 82, 0
3, 166080, Note_on_c, 1, 84, 105
3, 166848, Note_on_c, 1, 84, 0
3, 166848, Note_on_c, 1, 79, 0
3, 167040, Note_on_c, 1, 82, 105
3, 167040, Note_on_c, 1, 77, 105
3, 167808, Note_on_c, 1, 77, 0
3, 167808, Note_on_c, 1, 82, 0
3, 168000, Note_on_c, 1, 81, 105
3, 168000, Note_on_c, 1, 75, 105
3, 168768, Note_on_c, 1, 75, 0
3, 168768, Note_on_c, 1, 81, 0
3, 168960, Note_on_c, 1, 82, 105
3, 168960, Note_on_c, 1, 74, 105
3, 169728, Note_on_c, 1, 74, 0
3, 169728, Note_on_c, 1, 82, 0
3, 170640, Note_on_c, 1, 77, 105
3, 170832, Note_on_c, 1, 77, 0
3, 170880, Note_on_c, 1, 75, 105
3, 171072, Note_on_c, 1, 75, 0
3, 171120, Note_on_c, 1, 74, 105
3, 171312, Note_on_c, 1, 74, 0
3, 171360, Note_on_c, 1, 72, 105
3, 171552, Note_on_c, 1, 72, 0
3, 171600, Note_on_c, 1, 70, 105
3, 171792, Note_on_c, 1, 70, 0
3, 171840, Note_on_c, 1, 69, 105
3, 172032, Note_on_c, 1, 69, 0
3, 172080, Note_on_c, 1, 67, 105
3, 172272, Note_on_c, 1, 67, 0
3, 172320, Note_on_c, 1, 65, 105
3, 172512, Note_on_c, 1, 65, 0
3, 172560, Note_on_c, 1, 63, 105
3, 172752, Note_on_c, 1, 63, 0
3, 172800, Note_on_c, 1, 62, 105
3, 173136, Note_on_c, 1, 62, 0
3, 173280, Note_on_c, 1, 70, 105
3, 173280, Note_on_c, 1, 77, 105
3, 173616, Note_on_c, 1, 77, 0
3, 173760, Note_on_c, 1, 79, 105
3, 174096, Note_on_c, 1, 79, 0
3, 174096, Note_on_c, 1, 70, 0
3, 174240, Note_on_c, 1, 75, 105
3, 174240, Note_on_c, 1, 81, 105
3, 174576, Note_on_c, 1, 81, 0
3, 174576, Note_on_c, 1, 75, 0
3, 174720, Note_on_c, 1, 82, 105
3, 174720, Note_on_c, 1, 74, 105
3, 174912, Note_on_c, 1, 82, 0
3, 174960, Note_on_c, 1, 77, 105
3, 175152, Note_on_c, 1, 77, 0
3, 175152, Note_on_c, 1, 74, 0
3, 175200, Note_on_c, 1, 86, 105
3, 175392, Note_on_c, 1, 86, 0
3, 175440, Note_on_c, 1, 84, 105
3, 175632, Note_on_c, 1, 84, 0
3, 175680, Note_on_c, 1, 82, 105
3, 175872, Note_on_c, 1, 82, 0
3, 175920, Note_on_c, 1, 81, 105
3, 176112, Note_on_c, 1, 81, 0
3, 176160, Note_on_c, 1, 79, 105
3, 176352, Note_on_c, 1, 79, 0
3, 176400, Note_on_c, 1, 77, 105
3, 176592, Note_on_c, 1, 77, 0
3, 176640, Note_on_c, 1, 75, 105
3, 176832, Note_on_c, 1, 75, 0
3, 176880, Note_on_c, 1, 74, 105
3, 177072, Note_on_c, 1, 74, 0
3, 177120, Note_on_c, 1, 72, 105
3, 177312, Note_on_c, 1, 72, 0
3, 177360, Note_on_c, 1, 70, 105
3, 177552, Note_on_c, 1, 70, 0
3, 177600, Note_on_c, 1, 69, 105
3, 177792, Note_on_c, 1, 69, 0
3, 177840, Note_on_c, 1, 72, 105
3, 178032, Note_on_c, 1, 72, 0
3, 178080, Note_on_c, 1, 77, 105
3, 178272, Note_on_c, 1, 77, 0
3, 178320, Note_on_c, 1, 75, 105
3, 178512, Note_on_c, 1, 75, 0
3, 178560, Note_on_c, 1, 74, 105
3, 178896, Note_on_c, 1, 74, 0
3, 179040, Note_on_c, 1, 70, 105
3, 179040, Note_on_c, 1, 77, 105
3, 179376, Note_on_c, 1, 77, 0
3, 179376, Note_on_c, 1, 70, 0
3, 179520, Note_on_c, 1, 75, 105
3, 179520, Note_on_c, 1, 79, 105
3, 179856, Note_on_c, 1, 79, 0
3, 179856, Note_on_c, 1, 75, 0
3, 180000, Note_on_c, 1, 84, 105
3, 180000, Note_on_c, 1, 81, 105
3, 180336, Note_on_c, 1, 81, 0
3, 180336, Note_on_c, 1, 84, 0
3, 180480, Note_on_c, 1, 82, 105
3, 180816, Note_on_c, 1, 82, 0
3, 180960, Note_on_c, 1, 75, 105
3, 180960, Note_on_c, 1, 82, 105
3, 181296, Note_on_c, 1, 82, 0
3, 181296, Note_on_c, 1, 75, 0
3, 181440, Note_on_c, 1, 82, 105
3, 181440, Note_on_c, 1, 74, 105
3, 181776, Note_on_c, 1, 74, 0
3, 181776, Note_on_c, 1, 82, 0
3, 181920, Note_on_c, 1, 75, 105
3, 181920, Note_on_c, 1, 77, 105
3, 182256, Note_on_c, 1, 77, 0
3, 182256, Note_on_c, 1, 75, 0
3, 182400, Note_on_c, 1, 74, 105
3, 182400, Note_on_c, 1, 77, 105
3, 182760, Note_on_c, 1, 77, 0
3, 182760, Note_on_c, 1, 74, 0
3, 182880, Note_on_c, 1, 74, 105
3, 182880, Note_on_c, 1, 70, 105
3, 183060, Note_on_c, 1, 70, 0
3, 183060, Note_on_c, 1, 74, 0
3, 183120, Note_on_c, 1, 70, 105
3, 183120, Note_on_c, 1, 74, 105
3, 183300, Note_on_c, 1, 74, 0
3, 183300, Note_on_c, 1, 70, 0
3, 183360, Note_on_c, 1, 72, 105
3, 183360, Note_on_c, 1, 75, 105
3, 183720, Note_on_c, 1, 75, 0
3, 183720, Note_on_c, 1, 72, 0
3, 183840, Note_on_c, 1, 75, 105
3, 183840, Note_on_c, 1, 72, 105
3, 184020, Note_on_c, 1, 72, 0
3, 184020, Note_on_c, 1, 75, 0
3, 184080, Note_on_c, 1, 72, 105
3, 184080, Note_on_c, 1, 75, 105
3, 184260, Note_on_c, 1, 75, 0
3, 184260, Note_on_c, 1, 72, 0
3, 184320, Note_on_c, 1, 74, 105
3, 184320, Note_on_c, 1, 77, 105
3, 184680, Note_on_c, 1, 77, 0
3, 184680, Note_on_c, 1, 74, 0
3, 184800, Note_on_c, 1, 70, 105
3, 184800, Note_on_c, 1, 74, 105
3, 184980, Note_on_c, 1, 74, 0
3, 184980, Note_on_c, 1, 70, 0
3, 185040, Note_on_c, 1, 74, 105
3, 185040, Note_on_c, 1, 70, 105
3, 185220, Note_on_c, 1, 70, 0
3, 185220, Note_on_c, 1, 74, 0
3, 185280, Note_on_c, 1, 75, 105
3, 185280, Note_on_c, 1, 72, 105
3, 185640, Note_on_c, 1, 72, 0
3, 185640, Note_on_c, 1, 75, 0
3, 185760, Note_on_c, 1, 72, 105
3, 185760, Note_on_c, 1, 75, 105
3, 185940, Note_on_c, 1, 75, 0
3, 185940, Note_on_c, 1, 72, 0
3, 186000, Note_on_c, 1, 72, 105
3, 186000, Note_on_c, 1, 75, 105
3, 186180, Note_on_c, 1, 75, 0
3, 186180, Note_on_c, 1, 72, 0
3, 186240, Note_on_c, 1, 74, 105
3, 186240, Note_on_c, 1, 77, 105
3, 186600, Note_on_c, 1, 77, 0
3, 186600, Note_on_c, 1, 74, 0
3, 186720, Note_on_c, 1, 70, 105
3, 186720, Note_on_c, 1, 74, 105
3, 186900, Note_on_c, 1, 74, 0
3, 186900, Note_on_c, 1, 70, 0
3, 186960, Note_on_c, 1, 74, 105
3, 186960, Note_on_c, 1, 70, 105
3, 187140, Note_on_c, 1, 70, 0
3, 187140, Note_on_c, 1, 74, 0
3, 187200, Note_on_c, 1, 75, 105
3, 187200, Note_on_c, 1, 72, 105
3, 187560, Note_on_c, 1, 72, 0
3, 187560, Note_on_c, 1, 75, 0
3, 187680, Note_on_c, 1, 75, 105
3, 187680, Note_on_c, 1, 72, 105
3, 187860, Note_on_c, 1, 72, 0
3, 187860, Note_on_c, 1, 75, 0
3, 187920, Note_on_c, 1, 72, 105
3, 187920, Note_on_c, 1, 75, 105
3, 188100, Note_on_c, 1, 75, 0
3, 188100, Note_on_c, 1, 72, 0
3, 188160, Note_on_c, 1, 74, 105
3, 188160, Note_on_c, 1, 70, 105
3, 188520, Note_on_c, 1, 70, 0
3, 188520, Note_on_c, 1, 74, 0
3, 188640, Note_on_c, 1, 75, 105
3, 188640, Note_on_c, 1, 72, 105
3, 189000, Note_on_c, 1, 72, 0
3, 189000, Note_on_c, 1, 75, 0
3, 189120, Note_on_c, 1, 70, 105
3, 189120, Note_on_c, 1, 74, 105
3, 189480, Note_on_c, 1, 74, 0
3, 189480, Note_on_c, 1, 70, 0
3, 189600, Note_on_c, 1, 75, 105
3, 189600, Note_on_c, 1, 72, 105
3, 189960, Note_on_c, 1, 72, 0
3, 189960, Note_on_c, 1, 75, 0
3, 190080, Note_on_c, 1, 74, 105
3, 190080, Note_on_c, 1, 70, 105
3, 190464, Note_on_c, 1, 70, 0
3, 190464, Note_on_c, 1, 74, 0
3, 192000, Note_on_c, 1, 78, 105
3, 192000, Note_on_c, 1, 72, 105
3, 192384, Note_on_c, 1, 72, 0
3, 192384, Note_on_c, 1, 78, 0
3, 219360, Note_on_c, 1, 66, 70
3, 219840, Note_on_c, 1, 66, 0
3, 219840, Note_on_c, 1, 67, 70
3, 220320, Note_on_c, 1, 67, 0
3, 220320, Note_on_c, 1, 69, 70
3, 220800, Note_on_c, 1, 69, 0
3, 220800, Note_on_c, 1, 70, 70
3, 221280, Note_on_c, 1, 70, 0
3, 221280, Note_on_c, 1, 72, 70
3, 221520, Note_on_c, 1, 72, 0
3, 221520, Note_on_c, 1, 70, 70
3, 221760, Note_on_c, 1, 70, 0
3, 221760, Note_on_c, 1, 69, 70
3, 222240, Note_on_c, 1, 69, 0
3, 222240, Note_on_c, 1, 67, 70
3, 222696, Note_on_c, 1, 67, 0
3, 222720, Note_on_c, 1, 66, 70
3, 223104, Note_on_c, 1, 66, 0
3, 223680, Note_on_c, 1, 82, 105
3, 223680, Note_on_c, 1, 79, 105
3, 224640, Note_on_c, 1, 79, 0
3, 224640, Note_on_c, 1, 82, 0
3, 224640, Note_on_c, 1, 78, 105
3, 224640, Note_on_c, 1, 81, 105
3, 225024, Note_on_c, 1, 81, 0
3, 225024, Note_on_c, 1, 78, 0
3, 225600, Note_on_c, 1, 82, 105
3, 225600, Note_on_c, 1, 79, 105
3, 226560, Note_on_c, 1, 79, 0
3, 226560, Note_on_c, 1, 82, 0
3, 226560, Note_on_c, 1, 81, 105
3, 226560, Note_on_c, 1, 78, 105
3, 226944, Note_on_c, 1, 78, 0
3, 226944, Note_on_c, 1, 81, 0
3, 227520, Note_on_c, 1, 79, 105
3, 227520, Note_on_c, 1, 82, 105
3, 228480, Note_on_c, 1, 82, 0
3, 228480, Note_on_c, 1, 79, 0
3, 228480, Note_on_c, 1, 81, 105
3, 228480, Note_on_c, 1, 78, 105
3, 228768, Note_on_c, 1, 78, 0
3, 228768, Note_on_c, 1, 81, 0
3, 228960, Note_on_c, 1, 82, 105
3, 228960, Note_on_c, 1, 79, 105
3, 229248, Note_on_c, 1, 79, 0
3, 229248, Note_on_c, 1, 82, 0
3, 229440, Note_on_c, 1, 81, 105
3, 229440, Note_on_c, 1, 78, 105
3, 229728, Note_on_c, 1, 78, 0
3, 229728, Note_on_c, 1, 81, 0
3, 229920, Note_on_c, 1, 79, 105
3, 229920, Note_on_c, 1, 82, 105
3, 230208, Note_on_c, 1, 82, 0
3, 230208, Note_on_c, 1, 79, 0
3, 230400, Note_on_c, 1, 81, 105
3, 230400, Note_on_c, 1, 78, 105
3, 231168, Note_on_c, 1, 78, 0
3, 231168, Note_on_c, 1, 81, 0
3, 234240, Note_on_c, 1, 74, 70
3, 234240, Note_on_c, 1, 82, 70
3, 237984, Note_on_c, 1, 74, 0
3, 238080, Note_on_c, 1, 72, 70
3, 241824, Note_on_c, 1, 82, 0
3, 241920, Note_on_c, 1, 81, 70
3, 245664, Note_on_c, 1, 81, 0
3, 245664, Note_on_c, 1, 72, 0
3, 245760, Note_on_c, 1, 82, 70
3, 245760, Note_on_c, 1, 74, 70
3, 247296, Note_on_c, 1, 74, 0
3, 247296, Note_on_c, 1, 82, 0
3, 247680, Note_on_c, 1, 77, 105
3, 249216, Note_on_c, 1, 77, 0
3, 249600, Note_on_c, 1, 75, 105
3, 251136, Note_on_c, 1, 75, 0
3, 251520, Note_on_c, 1, 74, 105
3, 253056, Note_on_c, 1, 74, 0
3, 253440, Note_on_c, 1, 72, 105
3, 254976, Note_on_c, 1, 72, 0
3, 255360, Note_on_c, 1, 70, 105
3, 256896, Note_on_c, 1, 70, 0
3, 257280, Note_on_c, 1, 82, 112
3, 257280, Note_on_c, 1, 79, 92
3, 258816, Note_on_c, 1, 79, 0
3, 258816, Note_on_c, 1, 82, 0
3, 259200, Note_on_c, 1, 79, 92
3, 259200, Note_on_c, 1, 82, 112
3, 260736, Note_on_c, 1, 82, 0
3, 260736, Note_on_c, 1, 79, 0
3, 261120, Note_on_c, 1, 79, 92
3, 261120, Note_on_c, 1, 82, 112
3, 262656, Note_on_c, 1, 82, 0
3, 262656, Note_on_c, 1, 79, 0
3, 263040, Note_on_c, 1, 82, 112
3, 263040, Note_on_c, 1, 79, 92
3, 264576, Note_on_c, 1, 79, 0
3, 264576, Note_on_c, 1, 82, 0
3, 264960, Note_on_c, 1, 81, 92
3, 264960, Note_on_c, 1, 77, 92
3, 266496, Note_on_c, 1, 81, 0
3, 266880, Note_on_c, 1, 82, 105
3, 267648, Note_on_c, 1, 82, 0
3, 267648, Note_on_c, 1, 77, 0
3, 267840, Note_on_c, 1, 79, 105
3, 267840, Note_on_c, 1, 76, 105
3, 268608, Note_on_c, 1, 76, 0
3, 268608, Note_on_c, 1, 79, 0
3, 268800, Note_on_c, 1, 81, 105
3, 268800, Note_on_c, 1, 77, 105
3, 270336, Note_on_c, 1, 81, 0
3, 270720, Note_on_c, 1, 82, 105
3, 271488, Note_on_c, 1, 82, 0
3, 271488, Note_on_c, 1, 77, 0
3, 271680, Note_on_c, 1, 76, 105
3, 271680, Note_on_c, 1, 79, 105
3, 272448, Note_on_c, 1, 79, 0
3, 272448, Note_on_c, 1, 76, 0
3, 272640, Note_on_c, 1, 77, 105
3, 272640, Note_on_c, 1, 81, 105
3, 273024, Note_on_c, 1, 81, 0
3, 273024, Note_on_c, 1, 77, 0
3, 273600, Note_on_c, 1, 72, 92
3, 273600, Note_on_c, 1, 69, 92
3, 273984, Note_on_c, 1, 69, 0
3, 273984, Note_on_c, 1, 72, 0
3, 278400, Note_on_c, 1, 75, 70
3, 279840, Note_on_c, 1, 75, 0
3, 279840, Note_on_c, 1, 77, 70
3, 279960, Note_on_c, 1, 77, 0
3, 279960, Note_on_c, 1, 75, 70
3, 280080, Note_on_c, 1, 75, 0
3, 280080, Note_on_c, 1, 74, 70
3, 280200, Note_on_c, 1, 74, 0
3, 280200, Note_on_c, 1, 72, 70
3, 280320, Note_on_c, 1, 72, 0
3, 280320, Note_on_c, 1, 70, 70
3, 280704, Note_on_c, 1, 70, 0
3, 289920, Note_on_c, 1, 70, 70
3, 290160, Note_on_c, 1, 70, 0
3, 290160, Note_on_c, 1, 69, 70
3, 290400, Note_on_c, 1, 69, 0
3, 290400, Note_on_c, 1, 72, 70
3, 290640, Note_on_c, 1, 72, 0
3, 290640, Note_on_c, 1, 70, 70
3, 290880, Note_on_c, 1, 70, 0
3, 290880, Note_on_c, 1, 74, 70
3, 291120, Note_on_c, 1, 74, 0
3, 291120, Note_on_c, 1, 72, 70
3, 291360, Note_on_c, 1, 72, 0
3, 291360, Note_on_c, 1, 75, 70
3, 291600, Note_on_c, 1, 75, 0
3, 291600, Note_on_c, 1, 74, 70
3, 291792, Note_on_c, 1, 74, 0
3, 291840, Note_on_c, 1, 77, 70
3, 293280, Note_on_c, 1, 77, 0
3, 293280, Note_on_c, 1, 76, 70
3, 293760, Note_on_c, 1, 76, 0
3, 293760, Note_on_c, 1, 75, 70
3, 294144, Note_on_c, 1, 75, 0
3, 296160, Note_on_c, 1, 70, 70
3, 296472, Note_on_c, 1, 70, 0
3, 296640, Note_on_c, 1, 70, 70
3, 297120, Note_on_c, 1, 72, 70
3, 297504, Note_on_c, 1, 72, 0
3, 297504, Note_on_c, 1, 70, 0
3, 297600, Note_on_c, 1, 70, 70
3, 297600, Note_on_c, 1, 74, 70
3, 298320, Note_on_c, 1, 74, 0
3, 298320, Note_on_c, 1, 70, 0
3, 298320, Note_on_c, 1, 72, 70
3, 298320, Note_on_c, 1, 75, 70
3, 298560, Note_on_c, 1, 75, 0
3, 298560, Note_on_c, 1, 72, 0
3, 298560, Note_on_c, 1, 72, 70
3, 298560, Note_on_c, 1, 69, 70
3, 298944, Note_on_c, 1, 69, 0
3, 298944, Note_on_c, 1, 72, 0
3, 299520, Note_on_c, 1, 79, 70
3, 300672, Note_on_c, 1, 79, 0
3, 300960, Note_on_c, 1, 78, 70
3, 301344, Note_on_c, 1, 78, 0
3, 301440, Note_on_c, 1, 77, 70
3, 301824, Note_on_c, 1, 77, 0
3, 301920, Note_on_c, 1, 76, 70
3, 302304, Note_on_c, 1, 76, 0
3, 302400, Note_on_c, 1, 75, 70
3, 302784, Note_on_c, 1, 75, 0
3, 302880, Note_on_c, 1, 74, 70
3, 303264, Note_on_c, 1, 74, 0
3, 303360, Note_on_c, 1, 70, 58
3, 303360, Note_on_c, 1, 73, 58
3, 304800, Note_on_c, 1, 73, 0
3, 304800, Note_on_c, 1, 70, 0
3, 304800, Note_on_c, 1, 72, 58
3, 304800, Note_on_c, 1, 68, 58
3, 305184, Note_on_c, 1, 68, 0
3, 305184, Note_on_c, 1, 72, 0
3, 305280, Note_on_c, 1, 70, 58
3, 305280, Note_on_c, 1, 73, 58
3, 306720, Note_on_c, 1, 73, 0
3, 306720, Note_on_c, 1, 70, 0
3, 306720, Note_on_c, 1, 68, 58
3, 306720, Note_on_c, 1, 72, 58
3, 307104, Note_on_c, 1, 72, 0
3, 307104, Note_on_c, 1, 68, 0
3, 307200, Note_on_c, 1, 70, 58
3, 307200, Note_on_c, 1, 73, 58
3, 308640, Note_on_c, 1, 73, 0
3, 308640, Note_on_c, 1, 70, 0
3, 308640, Note_on_c, 1, 68, 58
3, 308640, Note_on_c, 1, 72, 58
3, 309024, Note_on_c, 1, 72, 0
3, 309024, Note_on_c, 1, 68, 0
3, 309120, Note_on_c, 1, 70, 58
3, 309120, Note_on_c, 1, 73, 58
3, 310560, Note_on_c, 1, 73, 0
3, 310560, Note_on_c, 1, 70, 0
3, 310560, Note_on_c, 1, 68, 58
3, 310560, Note_on_c, 1, 72, 58
3, 310944, Note_on_c, 1, 72, 0
3, 310944, Note_on_c, 1, 68, 0
3, 311040, Note_on_c, 1, 79, 58
3, 311040, Note_on_c, 1, 73, 58
3, 312576, Note_on_c, 1, 79, 0
3, 312960, Note_on_c, 1, 82, 70
3, 314496, Note_on_c, 1, 82, 0
3, 314496, Note_on_c, 1, 73, 0
3, 314880, Note_on_c, 1, 82, 92
3, 314880, Note_on_c, 1, 74, 92
3, 316704, Note_on_c, 1, 74, 0
3, 316704, Note_on_c, 1, 82, 0
3, 316800, Note_on_c, 1, 75, 105
3, 316800, Note_on_c, 1, 82, 105
3, 316920, Note_on_c, 1, 82, 0
3, 316920, Note_on_c, 1, 81, 105
3, 317040, Note_on_c, 1, 81, 0
3, 317040, Note_on_c, 1, 82, 105
3, 317160, Note_on_c, 1, 82, 0
3, 317160, Note_on_c, 1, 81, 105
3, 317280, Note_on_c, 1, 81, 0
3, 317280, Note_on_c, 1, 82, 105
3, 317400, Note_on_c, 1, 82, 0
3, 317400, Note_on_c, 1, 81, 105
3, 317520, Note_on_c, 1, 81, 0
3, 317520, Note_on_c, 1, 82, 105
3, 317640, Note_on_c, 1, 82, 0
3, 317640, Note_on_c, 1, 81, 105
3, 317760, Note_on_c, 1, 81, 0
3, 317760, Note_on_c, 1, 82, 105
3, 317880, Note_on_c, 1, 82, 0
3, 317880, Note_on_c, 1, 81, 105
3, 318000, Note_on_c, 1, 81, 0
3, 318000, Note_on_c, 1, 82, 105
3, 318120, Note_on_c, 1, 82, 0
3, 318120, Note_on_c, 1, 81, 105
3, 318240, Note_on_c, 1, 81, 0
3, 318240, Note_on_c, 1, 82, 105
3, 318360, Note_on_c, 1, 82, 0
3, 318360, Note_on_c, 1, 81, 105
3, 318480, Note_on_c, 1, 81, 0
3, 318480, Note_on_c, 1, 79, 105
3, 318600, Note_on_c, 1, 79, 0
3, 318600, Note_on_c, 1, 81, 105
3, 318720, Note_on_c, 1, 81, 0
3, 318720, Note_on_c, 1, 75, 0
3, 318720, Note_on_c, 1, 82, 105
3, 318720, Note_on_c, 1, 74, 105
3, 319104, Note_on_c, 1, 74, 0
3, 319104, Note_on_c, 1, 82, 0
3, 322560, Note_on_c, 1, 77, 92
3, 322560, Note_on_c, 1, 74, 105
3, 322944, Note_on_c, 1, 74, 0
3, 322944, Note_on_c, 1, 77, 0
3, 323520, Note_on_c, 1, 75, 105
3, 323520, Note_on_c, 1, 79, 105
3, 323904, Note_on_c, 1, 79, 0
3, 323904, Note_on_c, 1, 75, 0
3, 324480, Note_on_c, 1, 77, 105
3, 324480, Note_on_c, 1, 81, 105
3, 324864, Note_on_c, 1, 81, 0
3, 324864, Note_on_c, 1, 77, 0
3, 325440, Note_on_c, 1, 82, 105
3, 325440, Note_on_c, 1, 77, 105
3, 325824, Note_on_c, 1, 77, 0
3, 325824, Note_on_c, 1, 82, 0
3, 331680, Note_on_c, 1, 79, 105
3, 331920, Note_on_c, 1, 79, 0
3, 331920, Note_on_c, 1, 77, 80
3, 332112, Note_on_c, 1, 77, 0
3, 332160, Note_on_c, 1, 77, 80
3, 332544, Note_on_c, 1, 77, 0
3, 332640, Note_on_c, 1, 79, 80
3, 332880, Note_on_c, 1, 79, 0
3, 332880, Note_on_c, 1, 77, 80
3, 333072, Note_on_c, 1, 77, 0
3, 333120, Note_on_c, 1, 77, 80
3, 333504, Note_on_c, 1, 77, 0
3, 335520, Note_on_c, 1, 79, 80
3, 335760, Note_on_c, 1, 79, 0
3, 335760, Note_on_c, 1, 77, 80
3, 335952, Note_on_c, 1, 77, 0
3, 336000, Note_on_c, 1, 77, 80
3, 336384, Note_on_c, 1, 77, 0
3, 336480, Note_on_c, 1, 79, 80
3, 336720, Note_on_c, 1, 79, 0
3, 336720, Note_on_c, 1, 77, 80
3, 336912, Note_on_c, 1, 77, 0
3, 336960, Note_on_c, 1, 77, 80
3, 337344, Note_on_c, 1, 77, 0
3, 339840, Note_on_c, 1, 84, 105
3, 339840, Note_on_c, 1, 81, 105
3, 341376, Note_on_c, 1, 81, 0
3, 341376, Note_on_c, 1, 84, 0
3, 341760, Note_on_c, 1, 82, 105
3, 341760, Note_on_c, 1, 79, 105
3, 342528, Note_on_c, 1, 82, 0
3, 342720, Note_on_c, 1, 84, 105
3, 343488, Note_on_c, 1, 84, 0
3, 343488, Note_on_c, 1, 79, 0
3, 343680, Note_on_c, 1, 77, 105
3, 343680, Note_on_c, 1, 82, 105
3, 344448, Note_on_c, 1, 82, 0
3, 344448, Note_on_c, 1, 77, 0
3, 344640, Note_on_c, 1, 81, 105
3, 344640, Note_on_c, 1, 75, 105
3, 345408, Note_on_c, 1, 75, 0
3, 345408, Note_on_c, 1, 81, 0
3, 345600, Note_on_c, 1, 82, 92
3, 345600, Note_on_c, 1, 74, 92
3, 345984, Note_on_c, 1, 74, 0
3, 345984, Note_on_c, 1, 82, 0
3, 348960, Note_on_c, 1, 79, 80
3, 349200, Note_on_c, 1, 79, 0
3, 349200, Note_on_c, 1, 77, 80
3, 349392, Note_on_c, 1, 77, 0
3, 349440, Note_on_c, 1, 77, 80
3, 349824, Note_on_c, 1, 77, 0
3, 349920, Note_on_c, 1, 79, 80
3, 350160, Note_on_c, 1, 79, 0
3, 350160, Note_on_c, 1, 77, 80
3, 350352, Note_on_c, 1, 77, 0
3, 350400, Note_on_c, 1, 77, 80
3, 350784, Note_on_c, 1, 77, 0
3, 352800, Note_on_c, 1, 79, 80
3, 353040, Note_on_c, 1, 79, 0
3, 353040, Note_on_c, 1, 77, 80
3, 353232, Note_on_c, 1, 77, 0
3, 353280, Note_on_c, 1, 77, 80
3, 353664, Note_on_c, 1, 77, 0
3, 353760, Note_on_c, 1, 79, 80
3, 354000, Note_on_c, 1, 79, 0
3, 354000, Note_on_c, 1, 77, 80
3, 354192, Note_on_c, 1, 77, 0
3, 354240, Note_on_c, 1, 77, 80
3, 354624, Note_on_c, 1, 77, 0
3, 355200, Note_on_c, 1, 81, 80
3, 355200, Note_on_c, 1, 84, 80
3, 356736, Note_on_c, 1, 84, 0
3, 356736, Note_on_c, 1, 81, 0
3, 357120, Note_on_c, 1, 79, 105
3, 357120, Note_on_c, 1, 82, 105
3, 357888, Note_on_c, 1, 82, 0
3, 358080, Note_on_c, 1, 84, 105
3, 358848, Note_on_c, 1, 84, 0
3, 358848, Note_on_c, 1, 79, 0
3, 359040, Note_on_c, 1, 82, 105
3, 359040, Note_on_c, 1, 77, 105
3, 359808, Note_on_c, 1, 77, 0
3, 359808, Note_on_c, 1, 82, 0
3, 360000, Note_on_c, 1, 81, 105
3, 360000, Note_on_c, 1, 75, 105
3, 360768, Note_on_c, 1, 75, 0
3, 360768, Note_on_c, 1, 81, 0
3, 360960, Note_on_c, 1, 82, 105
3, 360960, Note_on_c, 1, 74, 105
3, 361728, Note_on_c, 1, 74, 0
3, 361728, Note_on_c, 1, 82, 0
3, 362640, Note_on_c, 1, 77, 105
3, 362832, Note_on_c, 1, 77, 0
3, 362880, Note_on_c, 1, 75, 105
3, 363072, Note_on_c, 1, 75, 0
3, 363120, Note_on_c, 1, 74, 105
3, 363312, Note_on_c, 1, 74, 0
3, 363360, Note_on_c, 1, 72, 105
3, 363552, Note_on_c, 1, 72, 0
3, 363600, Note_on_c, 1, 70, 105
3, 363792, Note_on_c, 1, 70, 0
3, 363840, Note_on_c, 1, 69, 105
3, 364032, Note_on_c, 1, 69, 0
3, 364080, Note_on_c, 1, 67, 105
3, 364272, Note_on_c, 1, 67, 0
3, 364320, Note_on_c, 1, 65, 105
3, 364512, Note_on_c, 1, 65, 0
3, 364560, Note_on_c, 1, 63, 105
3, 364752, Note_on_c, 1, 63, 0
3, 364800, Note_on_c, 1, 62, 105
3, 365136, Note_on_c, 1, 62, 0
3, 365280, Note_on_c, 1, 70, 105
3, 365280, Note_on_c, 1, 77, 105
3, 365616, Note_on_c, 1, 77, 0
3, 365760, Note_on_c, 1, 79, 105
3, 366096, Note_on_c, 1, 79, 0
3, 366096, Note_on_c, 1, 70, 0
3, 366240, Note_on_c, 1, 75, 105
3, 366240, Note_on_c, 1, 81, 105
3, 366576, Note_on_c, 1, 81, 0
3, 366576, Note_on_c, 1, 75, 0
3, 366720, Note_on_c, 1, 82, 105
3, 366720, Note_on_c, 1, 74, 105
3, 366912, Note_on_c, 1, 82, 0
3, 366960, Note_on_c, 1, 77, 105
3, 367152, Note_on_c, 1, 77, 0
3, 367152, Note_on_c, 1, 74, 0
3, 367200, Note_on_c, 1, 86, 105
3, 367392, Note_on_c, 1, 86, 0
3, 367440, Note_on_c, 1, 84, 105
3, 367632, Note_on_c, 1, 84, 0
3, 367680, Note_on_c, 1, 82, 105
3, 367872, Note_on_c, 1, 82, 0
3, 367920, Note_on_c, 1, 81, 105
3, 368112, Note_on_c, 1, 81, 0
3, 368160, Note_on_c, 1, 79, 105
3, 368352, Note_on_c, 1, 79, 0
3, 368400, Note_on_c, 1, 77, 105
3, 368592, Note_on_c, 1, 77, 0
3, 368640, Note_on_c, 1, 75, 105
3, 368832, Note_on_c, 1, 75, 0
3, 368880, Note_on_c, 1, 74, 105
3, 369072, Note_on_c, 1, 74, 0
3, 369120, Note_on_c, 1, 72, 105
3, 369312, Note_on_c, 1, 72, 0
3, 369360, Note_on_c, 1, 70, 105
3, 369552, Note_on_c, 1, 70, 0
3, 369600, Note_on_c, 1, 69, 105
3, 369792, Note_on_c, 1, 69, 0
3, 369840, Note_on_c, 1, 72, 105
3, 370032, Note_on_c, 1, 72, 0
3, 370080, Note_on_c, 1, 77, 105
3, 370272, Note_on_c, 1, 77, 0
3, 370320, Note_on_c, 1, 75, 105
3, 370512, Note_on_c, 1, 75, 0
3, 370560, Note_on_c, 1, 74, 105
3, 370896, Note_on_c, 1, 74, 0
3, 371040, Note_on_c, 1, 70, 105
3, 371040, Note_on_c, 1, 77, 105
3, 371376, Note_on_c, 1, 77, 0
3, 371376, Note_on_c, 1, 70, 0
3, 371520, Note_on_c, 1, 75, 105
3, 371520, Note_on_c, 1, 79, 105
3, 371856, Note_on_c, 1, 79, 0
3, 371856, Note_on_c, 1, 75, 0
3, 372000, Note_on_c, 1, 84, 105
3, 372000, Note_on_c, 1, 81, 105
3, 372336, Note_on_c, 1, 81, 0
3, 372336, Note_on_c, 1, 84, 0
3, 372480, Note_on_c, 1, 82, 105
3, 372816, Note_on_c, 1, 82, 0
3, 372960, Note_on_c, 1, 75, 105
3, 372960, Note_on_c, 1, 82, 105
3, 373296, Note_on_c, 1, 82, 0
3, 373296, Note_on_c, 1, 75, 0
3, 373440, Note_on_c, 1, 82, 105
3, 373440, Note_on_c, 1, 74, 105
3, 373776, Note_on_c, 1, 74, 0
3, 373776, Note_on_c, 1, 82, 0
3, 373920, Note_on_c, 1, 75, 105
3, 373920, Note_on_c, 1, 77, 105
3, 374256, Note_on_c, 1, 77, 0
3, 374256, Note_on_c, 1, 75, 0
3, 374400, Note_on_c, 1, 74, 105
3, 374400, Note_on_c, 1, 77, 105
3, 374760, Note_on_c, 1, 77, 0
3, 374760, Note_on_c, 1, 74, 0
3, 374880, Note_on_c, 1, 74, 105
3, 374880, Note_on_c, 1, 70, 105
3, 375060, Note_on_c, 1, 70, 0
3, 375060, Note_on_c, 1, 74, 0
3, 375120, Note_on_c, 1, 70, 105
3, 375120, Note_on_c, 1, 74, 105
3, 375300, Note_on_c, 1, 74, 0
3, 375300, Note_on_c, 1, 70, 0
3, 375360, Note_on_c, 1, 72, 105
3, 375360, Note_on_c, 1, 75, 105
3, 375720, Note_on_c, 1, 75, 0
3, 375720, Note_on_c, 1, 72, 0
3, 375840, Note_on_c, 1, 75, 105
3, 375840, Note_on_c, 1, 72, 105
3, 376020, Note_on_c, 1, 72, 0
3, 376020, Note_on_c, 1, 75, 0
3, 376080, Note_on_c, 1, 72, 105
3, 376080, Note_on_c, 1, 75, 105
3, 376260, Note_on_c, 1, 75, 0
3, 376260, Note_on_c, 1, 72, 0
3, 376320, Note_on_c, 1, 74, 105
3, 376320, Note_on_c, 1, 77, 105
3, 376680, Note_on_c, 1, 77, 0
3, 376680, Note_on_c, 1, 74, 0
3, 376800, Note_on_c, 1, 70, 105
3, 376800, Note_on_c, 1, 74, 105
3, 376980, Note_on_c, 1, 74, 0
3, 376980, Note_on_c, 1, 70, 0
3, 377040, Note_on_c, 1, 74, 105
3, 377040, Note_on_c, 1, 70, 105
3, 377220, Note_on_c, 1, 70, 0
3, 377220, Note_on_c, 1, 74, 0
3, 377280, Note_on_c, 1, 75, 105
3, 377280, Note_on_c, 1, 72, 105
3, 377640, Note_on_c, 1, 72, 0
3, 377640, Note_on_c, 1, 75, 0
3, 377760, Note_on_c, 1, 72, 105
3, 377760, Note_on_c, 1, 75, 105
3, 377940, Note_on_c, 1, 75, 0
3, 377940, Note_on_c, 1, 72, 0
3, 378000, Note_on_c, 1, 72, 105
3, 378000, Note_on_c, 1, 75, 105
3, 378180, Note_on_c, 1, 75, 0
3, 378180, Note_on_c, 1, 72, 0
3, 378240, Note_on_c, 1, 74, 105
3, 378240, Note_on_c, 1, 77, 105
3, 378600, Note_on_c, 1, 77, 0
3, 378600, Note_on_c, 1, 74, 0
3, 378720, Note_on_c, 1, 70, 105
3, 378720, Note_on_c, 1, 74, 105
3, 378900, Note_on_c, 1, 74, 0
3, 378900, Note_on_c, 1, 70, 0
3, 378960, Note_on_c, 1, 74, 105
3, 378960, Note_on_c, 1, 70, 105
3, 379140, Note_on_c, 1, 70, 0
3, 379140, Note_on_c, 1, 74, 0
3, 379200, Note_on_c, 1, 75, 105
3, 379200, Note_on_c, 1, 72, 105
3, 379560, Note_on_c, 1, 72, 0
3, 379560, Note_on_c, 1, 75, 0
3, 379680, Note_on_c, 1, 75, 105
3, 379680, Note_on_c, 1, 72, 105
3, 379860, Note_on_c, 1, 72, 0
3, 379860, Note_on_c, 1, 75, 0
3, 379920, Note_on_c, 1, 72, 105
3, 379920, Note_on_c, 1, 75, 105
3, 380100, Note_on_c, 1, 75, 0
3, 380100, Note_on_c, 1, 72, 0
3, 380160, Note_on_c, 1, 74, 105
3, 380160, Note_on_c, 1, 70, 105
3, 380520, Note_on_c, 1, 70, 0
3, 380520, Note_on_c, 1, 74, 0
3, 380640, Note_on_c, 1, 75, 105
3, 380640, Note_on_c, 1, 72, 105
3, 381000, Note_on_c, 1, 72, 0
3, 381000, Note_on_c, 1, 75, 0
3, 381120, Note_on_c, 1, 70, 105
3, 381120, Note_on_c, 1, 74, 105
3, 381480, Note_on_c, 1, 74, 0
3, 381480, Note_on_c, 1, 70, 0
3, 381600, Note_on_c, 1, 75, 105
3, 381600, Note_on_c, 1, 72, 105
3, 381960, Note_on_c, 1, 72, 0
3, 381960, Note_on_c, 1, 75, 0
3, 382080, Note_on_c, 1, 74, 105
3, 382080, Note_on_c, 1, 70, 105
3, 382464, Note_on_c, 1, 70, 0
3, 382464, Note_on_c, 1, 74, 0
3, 384000, Note_on_c, 1, 78, 105
3, 384000, Note_on_c, 1, 72, 105
3, 384384, Note_on_c, 1, 72, 0
3, 384384, Note_on_c, 1, 78, 0
3, 385920, Note_on_c, 1, 79, 105
3, 386304, Note_on_c, 1, 79, 0
3, 386880, Note_on_c, 1, 80, 105
3, 387264, Note_on_c, 1, 80, 0
3, 387840, Note_on_c, 1, 83, 70
3, 389760, Note_on_c, 1, 83, 0
3, 389760, Note_on_c, 1, 81, 70
3, 390720, Note_on_c, 1, 81, 0
3, 390720, Note_on_c, 1, 80, 70
3, 391680, Note_on_c, 1, 80, 0
3, 391680, Note_on_c, 1, 78, 70
3, 392640, Note_on_c, 1, 78, 0
3, 392640, Note_on_c, 1, 77, 70
3, 393600, Note_on_c, 1, 77, 0
3, 393600, Note_on_c, 1, 78, 70
3, 393984, Note_on_c, 1, 78, 0
3, 412320, Note_on_c, 1, 78, 105
3, 412320, Note_on_c, 1, 81, 105
3, 412704, Note_on_c, 1, 81, 0
3, 412800, Note_on_c, 1, 79, 105
3, 413184, Note_on_c, 1, 78, 0
3, 413280, Note_on_c, 1, 76, 105
3, 413664, Note_on_c, 1, 79, 0
3, 413760, Note_on_c, 1, 78, 105
3, 414144, Note_on_c, 1, 76, 0
3, 414240, Note_on_c, 1, 75, 105
3, 414624, Note_on_c, 1, 75, 0
3, 414624, Note_on_c, 1, 78, 0
3, 414720, Note_on_c, 1, 76, 105
3, 414720, Note_on_c, 1, 79, 105
3, 415104, Note_on_c, 1, 79, 0
3, 415104, Note_on_c, 1, 76, 0
3, 420000, Note_on_c, 1, 76, 105
3, 420480, Note_on_c, 1, 81, 105
3, 420864, Note_on_c, 1, 76, 0
3, 420960, Note_on_c, 1, 74, 105
3, 421344, Note_on_c, 1, 81, 0
3, 421440, Note_on_c, 1, 79, 105
3, 421824, Note_on_c, 1, 74, 0
3, 421920, Note_on_c, 1, 73, 105
3, 422304, Note_on_c, 1, 73, 0
3, 422304, Note_on_c, 1, 79, 0
3, 422400, Note_on_c, 1, 77, 105
3, 422400, Note_on_c, 1, 74, 105
3, 422784, Note_on_c, 1, 74, 0
3, 422784, Note_on_c, 1, 77, 0
3, 426240, Note_on_c, 1, 67, 105
3, 427392, Note_on_c, 1, 67, 0
3, 427680, Note_on_c, 1, 77, 105
3, 427680, Note_on_c, 1, 74, 105
3, 428064, Note_on_c, 1, 77, 0
3, 428160, Note_on_c, 1, 76, 105
3, 428544, Note_on_c, 1, 74, 0
3, 428640, Note_on_c, 1, 72, 105
3, 429024, Note_on_c, 1, 76, 0
3, 429120, Note_on_c, 1, 74, 105
3, 429504, Note_on_c, 1, 72, 0
3, 429600, Note_on_c, 1, 71, 105
3, 429984, Note_on_c, 1, 71, 0
3, 429984, Note_on_c, 1, 74, 0
3, 430080, Note_on_c, 1, 76, 105
3, 430080, Note_on_c, 1, 72, 105
3, 430464, Note_on_c, 1, 72, 0
3, 430464, Note_on_c, 1, 76, 0
3, 433920, Note_on_c, 1, 77, 105
3, 433920, Note_on_c, 1, 65, 105
3, 435072, Note_on_c, 1, 65, 0
3, 435072, Note_on_c, 1, 77, 0
3, 435360, Note_on_c, 1, 84, 105
3, 435360, Note_on_c, 1, 72, 105
3, 435744, Note_on_c, 1, 72, 0
3, 435744, Note_on_c, 1, 84, 0
3, 435840, Note_on_c, 1, 84, 105
3, 435840, Note_on_c, 1, 72, 105
3, 436224, Note_on_c, 1, 72, 0
3, 436224, Note_on_c, 1, 84, 0
3, 436320, Note_on_c, 1, 82, 105
3, 436320, Note_on_c, 1, 70, 105
3, 437088, Note_on_c, 1, 70, 0
3, 437088, Note_on_c, 1, 82, 0
3, 437280, Note_on_c, 1, 72, 105
3, 437280, Note_on_c, 1, 81, 105
3, 437664, Note_on_c, 1, 81, 0
3, 437664, Note_on_c, 1, 72, 0
3, 437760, Note_on_c, 1, 82, 105
3, 437760, Note_on_c, 1, 70, 105
3, 438528, Note_on_c, 1, 82, 0
3, 438720, Note_on_c, 1, 77, 105
3, 439488, Note_on_c, 1, 77, 0
3, 439488, Note_on_c, 1, 70, 0
3, 439680, Note_on_c, 1, 86, 105
3, 439680, Note_on_c, 1, 74, 105
3, 441984, Note_on_c, 1, 74, 0
3, 441984, Note_on_c, 1, 86, 0
3, 442080, Note_on_c, 1, 84, 105
3, 442080, Note_on_c, 1, 72, 105
3, 442296, Note_on_c, 1, 72, 0
3, 442296, Note_on_c, 1, 84, 0
3, 442320, Note_on_c, 1, 70, 105
3, 442320, Note_on_c, 1, 82, 105
3, 442512, Note_on_c, 1, 82, 0
3, 442512, Note_on_c, 1, 70, 0
3, 442560, Note_on_c, 1, 84, 105
3, 442560, Note_on_c, 1, 72, 105
3, 445824, Note_on_c, 1, 72, 0
3, 445824, Note_on_c, 1, 84, 0
3, 445920, Note_on_c, 1, 70, 105
3, 445920, Note_on_c, 1, 82, 105
3, 446112, Note_on_c, 1, 82, 0
3, 446112, Note_on_c, 1, 70, 0
3, 446160, Note_on_c, 1, 81, 105
3, 446160, Note_on_c, 1, 69, 105
3, 446352, Note_on_c, 1, 69, 0
3, 446352, Note_on_c, 1, 81, 0
3, 446400, Note_on_c, 1, 70, 105
3, 446400, Note_on_c, 1, 82, 105
3, 446784, Note_on_c, 1, 82, 0
3, 446784, Note_on_c, 1, 70, 0
3, 447360, Note_on_c, 1, 79, 105
3, 447936, Note_on_c, 1, 79, 0
3, 448080, Note_on_c, 1, 77, 105
3, 448272, Note_on_c, 1, 77, 0
3, 448320, Note_on_c, 1, 76, 105
3, 448896, Note_on_c, 1, 76, 0
3, 449040, Note_on_c, 1, 74, 105
3, 449232, Note_on_c, 1, 74, 0
3, 449280, Note_on_c, 1, 73, 105
3, 450240, Note_on_c, 1, 73, 0
3, 450240, Note_on_c, 1, 77, 105
3, 450240, Note_on_c, 1, 74, 105
3, 451008, Note_on_c, 1, 74, 0
3, 451008, Note_on_c, 1, 77, 0
3, 451200, Note_on_c, 1, 73, 105
3, 452160, Note_on_c, 1, 73, 0
3, 452160, Note_on_c, 1, 77, 105
3, 452160, Note_on_c, 1, 74, 105
3, 452928, Note_on_c, 1, 74, 0
3, 452928, Note_on_c, 1, 77, 0
3, 453120, Note_on_c, 1, 73, 105
3, 454080, Note_on_c, 1, 73, 0
3, 454080, Note_on_c, 1, 77, 105
3, 454080, Note_on_c, 1, 74, 105
3, 454848, Note_on_c, 1, 74, 0
3, 454848, Note_on_c, 1, 77, 0
3, 455040, Note_on_c, 1, 73, 105
3, 456000, Note_on_c, 1, 73, 0
3, 456000, Note_on_c, 1, 77, 105
3, 456000, Note_on_c, 1, 74, 105
3, 456768, Note_on_c, 1, 74, 0
3, 456768, Note_on_c, 1, 77, 0
3, 456960, Note_on_c, 1, 73, 105
3, 456960, Note_on_c, 1, 76, 105
3, 457728, Note_on_c, 1, 76, 0
3, 457728, Note_on_c, 1, 73, 0
3, 460320, Note_on_c, 1, 73, 70
3, 460560, Note_on_c, 1, 73, 0
3, 460560, Note_on_c, 1, 72, 70
3, 460704, Note_on_c, 1, 72, 0
3, 460800, Note_on_c, 1, 65, 58
3, 460800, Note_on_c, 1, 72, 58
3, 461088, Note_on_c, 1, 72, 0
3, 461280, Note_on_c, 1, 73, 58
3, 461520, Note_on_c, 1, 73, 0
3, 461520, Note_on_c, 1, 72, 58
3, 461664, Note_on_c, 1, 72, 0
3, 461760, Note_on_c, 1, 72, 58
3, 462048, Note_on_c, 1, 72, 0
3, 462240, Note_on_c, 1, 72, 58
3, 462528, Note_on_c, 1, 72, 0
3, 464160, Note_on_c, 1, 75, 58
3, 464400, Note_on_c, 1, 75, 0
3, 464400, Note_on_c, 1, 73, 58
3, 464544, Note_on_c, 1, 73, 0
3, 464640, Note_on_c, 1, 73, 58
3, 464928, Note_on_c, 1, 73, 0
3, 465120, Note_on_c, 1, 75, 58
3, 465360, Note_on_c, 1, 75, 0
3, 465360, Note_on_c, 1, 73, 58
3, 465504, Note_on_c, 1, 73, 0
3, 465600, Note_on_c, 1, 73, 58
3, 465888, Note_on_c, 1, 73, 0
3, 466080, Note_on_c, 1, 73, 58
3, 466368, Note_on_c, 1, 73, 0
3, 466536, Note_on_c, 1, 65, 0
3, 466560, Note_on_c, 1, 67, 58
3, 468000, Note_on_c, 1, 75, 58
3, 468240, Note_on_c, 1, 75, 0
3, 468240, Note_on_c, 1, 74, 58
3, 468384, Note_on_c, 1, 74, 0
3, 468480, Note_on_c, 1, 72, 58
3, 468768, Note_on_c, 1, 72, 0
3, 468960, Note_on_c, 1, 75, 58
3, 469200, Note_on_c, 1, 75, 0
3, 469200, Note_on_c, 1, 74, 58
3, 469344, Note_on_c, 1, 74, 0
3, 469440, Note_on_c, 1, 74, 58
3, 469728, Note_on_c, 1, 74, 0
3, 469920, Note_on_c, 1, 74, 58
3, 470208, Note_on_c, 1, 74, 0
3, 471840, Note_on_c, 1, 77, 58
3, 472080, Note_on_c, 1, 77, 0
3, 472080, Note_on_c, 1, 75, 58
3, 472224, Note_on_c, 1, 75, 0
3, 472320, Note_on_c, 1, 75, 70
3, 472608, Note_on_c, 1, 75, 0
3, 472800, Note_on_c, 1, 77, 70
3, 473040, Note_on_c, 1, 77, 0
3, 473040, Note_on_c, 1, 75, 70
3, 473184, Note_on_c, 1, 75, 0
3, 473280, Note_on_c, 1, 75, 70
3, 473568, Note_on_c, 1, 75, 0
3, 473568, Note_on_c, 1, 67, 0
3, 473760, Note_on_c, 1, 75, 70
3, 474048, Note_on_c, 1, 75, 0
3, 476640, Note_on_c, 1, 74, 70
3, 476640, Note_on_c, 1, 80, 70
3, 476880, Note_on_c, 1, 80, 0
3, 476880, Note_on_c, 1, 74, 0
3, 476880, Note_on_c, 1, 75, 70
3, 476880, Note_on_c, 1, 81, 70
3, 477072, Note_on_c, 1, 81, 0
3, 477072, Note_on_c, 1, 75, 0
3, 477120, Note_on_c, 1, 75, 70
3, 477120, Note_on_c, 1, 81, 70
3, 477504, Note_on_c, 1, 81, 0
3, 477504, Note_on_c, 1, 75, 0
3, 480480, Note_on_c, 1, 71, 70
3, 480480, Note_on_c, 1, 80, 70
3, 480720, Note_on_c, 1, 80, 0
3, 480720, Note_on_c, 1, 71, 0
3, 480720, Note_on_c, 1, 72, 70
3, 480720, Note_on_c, 1, 81, 70
3, 480912, Note_on_c, 1, 81, 0
3, 480912, Note_on_c, 1, 72, 0
3, 480960, Note_on_c, 1, 81, 70
3, 480960, Note_on_c, 1, 72, 70
3, 481344, Note_on_c, 1, 72, 0
3, 481344, Note_on_c, 1, 81, 0
3, 484320, Note_on_c, 1, 80, 70
3, 484320, Note_on_c, 1, 83, 70
3, 484560, Note_on_c, 1, 83, 0
3, 484560, Note_on_c, 1, 80, 0
3, 484560, Note_on_c, 1, 84, 58
3, 484560, Note_on_c, 1, 81, 58
3, 484752, Note_on_c, 1, 81, 0
3, 484752, Note_on_c, 1, 84, 0
3, 484800, Note_on_c, 1, 81, 58
3, 484800, Note_on_c, 1, 84, 58
3, 485184, Note_on_c, 1, 84, 0
3, 485184, Note_on_c, 1, 81, 0
3, 485760, Note_on_c, 1, 72, 105
3, 485760, Note_on_c, 1, 78, 105
3, 486240, Note_on_c, 1, 78, 0
3, 486240, Note_on_c, 1, 72, 0
3, 486240, Note_on_c, 1, 78, 105
3, 486240, Note_on_c, 1, 81, 105
3, 486720, Note_on_c, 1, 81, 0
3, 486720, Note_on_c, 1, 78, 0
3, 486720, Note_on_c, 1, 84, 105
3, 486720, Note_on_c, 1, 81, 105
3, 487104, Note_on_c, 1, 81, 0
3, 487104, Note_on_c, 1, 84, 0
3, 487680, Note_on_c, 1, 74, 105
3, 487680, Note_on_c, 1, 70, 105
3, 488160, Note_on_c, 1, 70, 0
3, 488160, Note_on_c, 1, 74, 0
3, 488160, Note_on_c, 1, 79, 105
3, 488160, Note_on_c, 1, 74, 105
3, 488640, Note_on_c, 1, 74, 0
3, 488640, Note_on_c, 1, 79, 0
3, 488640, Note_on_c, 1, 79, 105
3, 488640, Note_on_c, 1, 82, 105
3, 489024, Note_on_c, 1, 82, 0
3, 489024, Note_on_c, 1, 79, 0
3, 489600, Note_on_c, 1, 85, 105
3, 489600, Note_on_c, 1, 82, 105
3, 490080, Note_on_c, 1, 82, 0
3, 490080, Note_on_c, 1, 85, 0
3, 490080, Note_on_c, 1, 82, 105
3, 490080, Note_on_c, 1, 79, 105
3, 490560, Note_on_c, 1, 79, 0
3, 490560, Note_on_c, 1, 82, 0
3, 490560, Note_on_c, 1, 76, 105
3, 490560, Note_on_c, 1, 79, 105
3, 490944, Note_on_c, 1, 79, 0
3, 490944, Note_on_c, 1, 76, 0
3, 491520, Note_on_c, 1, 81, 105
3, 491520, Note_on_c, 1, 78, 105
3, 492000, Note_on_c, 1, 78, 0
3, 492000, Note_on_c, 1, 81, 0
3, 492000, Note_on_c, 1, 74, 105
3, 492000, Note_on_c, 1, 78, 105
3, 492480, Note_on_c, 1, 78, 0
3, 492480, Note_on_c, 1, 74, 0
3, 492480, Note_on_c, 1, 69, 105
3, 492480, Note_on_c, 1, 74, 105
3, 492864, Note_on_c, 1, 74, 0
3, 492864, Note_on_c, 1, 69, 0
3, 493440, Note_on_c, 1, 78, 105
3, 493440, Note_on_c, 1, 72, 105
3, 493920, Note_on_c, 1, 72, 0
3, 493920, Note_on_c, 1, 78, 0
3, 493920, Note_on_c, 1, 81, 105
3, 493920, Note_on_c, 1, 78, 105
3, 494400, Note_on_c, 1, 78, 0
3, 494400, Note_on_c, 1, 81, 0
3, 494400, Note_on_c, 1, 81, 105
3, 494400, Note_on_c, 1, 84, 105
3, 494784, Note_on_c, 1, 84, 0
3, 494784, Note_on_c, 1, 81, 0
3, 495360, Note_on_c, 1, 74, 105
3, 495360, Note_on_c, 1, 79, 105
3, 495840, Note_on_c, 1, 79, 0
3, 495840, Note_on_c, 1, 74, 0
3, 495840, Note_on_c, 1, 82, 105
3, 495840, Note_on_c, 1, 79, 105
3, 496320, Note_on_c, 1, 79, 0
3, 496320, Note_on_c, 1, 82, 0
3, 496320, Note_on_c, 1, 86, 105
3, 496320, Note_on_c, 1, 82, 105
3, 496704, Note_on_c, 1, 82, 0
3, 496704, Note_on_c, 1, 86, 0
3, 500640, Note_on_c, 1, 81, 70
3, 500640, Note_on_c, 1, 78, 70
3, 500880, Note_on_c, 1, 78, 0
3, 500880, Note_on_c, 1, 81, 0
3, 500880, Note_on_c, 1, 80, 70
3, 500880, Note_on_c, 1, 77, 70
3, 501072, Note_on_c, 1, 77, 0
3, 501072, Note_on_c, 1, 80, 0
3, 501120, Note_on_c, 1, 79, 70
3, 501120, Note_on_c, 1, 76, 70
3, 502272, Note_on_c, 1, 76, 0
3, 502272, Note_on_c, 1, 79, 0
3, 502560, Note_on_c, 1, 79, 70
3, 502560, Note_on_c, 1, 76, 70
3, 502800, Note_on_c, 1, 76, 0
3, 502800, Note_on_c, 1, 79, 0
3, 502800, Note_on_c, 1, 78, 70
3, 502800, Note_on_c, 1, 75, 70
3, 502992, Note_on_c, 1, 75, 0
3, 502992, Note_on_c, 1, 78, 0
3, 503040, Note_on_c, 1, 74, 70
3, 503040, Note_on_c, 1, 77, 70
3, 504192, Note_on_c, 1, 77, 0
3, 504192, Note_on_c, 1, 74, 0
3, 504480, Note_on_c, 1, 77, 70
3, 504480, Note_on_c, 1, 74, 70
3, 504720, Note_on_c, 1, 74, 0
3, 504720, Note_on_c, 1, 77, 0
3, 504720, Note_on_c, 1, 76, 70
3, 504720, Note_on_c, 1, 73, 70
3, 504912, Note_on_c, 1, 73, 0
3, 504912, Note_on_c, 1, 76, 0
3, 504960, Note_on_c, 1, 73, 70
3, 504960, Note_on_c, 1, 76, 70
3, 506112, Note_on_c, 1, 76, 0
3, 506112, Note_on_c, 1, 73, 0
3, 506400, Note_on_c, 1, 72, 70
3, 506400, Note_on_c, 1, 75, 70
3, 506640, Note_on_c, 1, 75, 0
3, 506640, Note_on_c, 1, 72, 0
3, 506640, Note_on_c, 1, 74, 70
3, 506640, Note_on_c, 1, 71, 70
3, 506832, Note_on_c, 1, 71, 0
3, 506832, Note_on_c, 1, 74, 0
3, 506880, Note_on_c, 1, 71, 70
3, 506880, Note_on_c, 1, 74, 70
3, 507840, Note_on_c, 1, 74, 0
3, 507840, Note_on_c, 1, 71, 0
3, 507840, Note_on_c, 1, 70, 58
3, 507840, Note_on_c, 1, 73, 58
3, 508608, Note_on_c, 1, 73, 0
3, 508608, Note_on_c, 1, 70, 0
3, 508800, Note_on_c, 1, 69, 58
3, 508800, Note_on_c, 1, 72, 58
3, 510720, Note_on_c, 1, 72, 0
3, 510720, Note_on_c, 1, 69, 0
3, 510720, Note_on_c, 1, 67, 58
3, 510720, Note_on_c, 1, 70, 58
3, 511104, Note_on_c, 1, 70, 0
3, 511104, Note_on_c, 1, 67, 0
3, 532320, Note_on_c, 1, 66, 70
3, 532800, Note_on_c, 1, 66, 0
3, 532800, Note_on_c, 1, 67, 70
3, 533280, Note_on_c, 1, 67, 0
3, 533280, Note_on_c, 1, 69, 70
3, 533760, Note_on_c, 1, 69, 0
3, 533760, Note_on_c, 1, 70, 70
3, 534240, Note_on_c, 1, 70, 0
3, 534240, Note_on_c, 1, 72, 70
3, 534480, Note_on_c, 1, 72, 0
3, 534480, Note_on_c, 1, 70, 70
3, 534720, Note_on_c, 1, 70, 0
3, 534720, Note_on_c, 1, 69, 70
3, 535200, Note_on_c, 1, 69, 0
3, 535200, Note_on_c, 1, 67, 70
3, 535680, Note_on_c, 1, 67, 0
3, 535680, Note_on_c, 1, 66, 70
3, 536064, Note_on_c, 1, 66, 0
3, 536640, Note_on_c, 1, 79, 105
3, 536640, Note_on_c, 1, 82, 105
3, 537600, Note_on_c, 1, 82, 0
3, 537600, Note_on_c, 1, 79, 0
3, 537600, Note_on_c, 1, 78, 105
3, 537600, Note_on_c, 1, 81, 105
3, 537984, Note_on_c, 1, 81, 0
3, 537984, Note_on_c, 1, 78, 0
3, 538560, Note_on_c, 1, 79, 105
3, 538560, Note_on_c, 1, 82, 105
3, 539520, Note_on_c, 1, 82, 0
3, 539520, Note_on_c, 1, 79, 0
3, 539520, Note_on_c, 1, 78, 105
3, 539520, Note_on_c, 1, 81, 105
3, 539904, Note_on_c, 1, 81, 0
3, 539904, Note_on_c, 1, 78, 0
3, 540480, Note_on_c, 1, 79, 105
3, 540480, Note_on_c, 1, 82, 105
3, 541440, Note_on_c, 1, 82, 0
3, 541440, Note_on_c, 1, 79, 0
3, 541440, Note_on_c, 1, 81, 105
3, 541440, Note_on_c, 1, 78, 105
3, 541728, Note_on_c, 1, 78, 0
3, 541728, Note_on_c, 1, 81, 0
3, 541920, Note_on_c, 1, 79, 105
3, 541920, Note_on_c, 1, 82, 105
3, 542208, Note_on_c, 1, 82, 0
3, 542208, Note_on_c, 1, 79, 0
3, 542400, Note_on_c, 1, 81, 105
3, 542400, Note_on_c, 1, 78, 105
3, 542688, Note_on_c, 1, 78, 0
3, 542688, Note_on_c, 1, 81, 0
3, 542880, Note_on_c, 1, 79, 105
3, 542880, Note_on_c, 1, 82, 105
3, 543168, Note_on_c, 1, 82, 0
3, 543168, Note_on_c, 1, 79, 0
3, 543360, Note_on_c, 1, 78, 105
3, 543360, Note_on_c, 1, 81, 105
3, 544128, Note_on_c, 1, 81, 0
3, 544128, Note_on_c, 1, 78, 0
3, 551040, Note_on_c, 1, 80, 105
3, 557760, Note_on_c, 1, 80, 0
3, 557760, Note_on_c, 1, 77, 70
3, 558528, Note_on_c, 1, 77, 0
3, 558720, Note_on_c, 1, 75, 105
3, 560256, Note_on_c, 1, 75, 0
3, 560640, Note_on_c, 1, 70, 105
3, 560640, Note_on_c, 1, 82, 105
3, 562176, Note_on_c, 1, 82, 0
3, 562176, Note_on_c, 1, 70, 0
3, 562560, Note_on_c, 1, 80, 105
3, 562560, Note_on_c, 1, 68, 105
3, 564096, Note_on_c, 1, 68, 0
3, 564096, Note_on_c, 1, 80, 0
3, 564480, Note_on_c, 1, 79, 105
3, 564480, Note_on_c, 1, 67, 105
3, 566016, Note_on_c, 1, 67, 0
3, 566016, Note_on_c, 1, 79, 0
3, 566400, Note_on_c, 1, 77, 105
3, 566400, Note_on_c, 1, 65, 105
3, 567936, Note_on_c, 1, 65, 0
3, 567936, Note_on_c, 1, 77, 0
3, 568320, Note_on_c, 1, 64, 105
3, 568320, Note_on_c, 1, 76, 105
3, 569088, Note_on_c, 1, 76, 0
3, 569088, Note_on_c, 1, 64, 0
3, 569280, Note_on_c, 1, 61, 105
3, 569280, Note_on_c, 1, 73, 105
3, 570048, Note_on_c, 1, 73, 0
3, 570048, Note_on_c, 1, 61, 0
3, 570240, Note_on_c, 1, 60, 105
3, 570240, Note_on_c, 1, 72, 105
3, 571008, Note_on_c, 1, 72, 0
3, 571008, Note_on_c, 1, 60, 0
3, 571200, Note_on_c, 1, 76, 105
3, 571200, Note_on_c, 1, 79, 105
3, 571968, Note_on_c, 1, 79, 0
3, 571968, Note_on_c, 1, 76, 0
3, 572160, Note_on_c, 1, 77, 105
3, 573120, Note_on_c, 1, 65, 105
3, 573888, Note_on_c, 1, 65, 0
3, 573888, Note_on_c, 1, 77, 0
3, 574080, Note_on_c, 1, 72, 105
3, 574080, Note_on_c, 1, 84, 105
3, 575616, Note_on_c, 1, 72, 0
3, 576000, Note_on_c, 1, 73, 105
3, 576768, Note_on_c, 1, 84, 0
3, 576960, Note_on_c, 1, 82, 105
3, 577728, Note_on_c, 1, 73, 0
3, 577920, Note_on_c, 1, 72, 105
3, 578688, Note_on_c, 1, 82, 0
3, 578880, Note_on_c, 1, 80, 105
3, 579648, Note_on_c, 1, 72, 0
3, 579840, Note_on_c, 1, 70, 105
3, 580608, Note_on_c, 1, 80, 0
3, 580800, Note_on_c, 1, 79, 105
3, 581568, Note_on_c, 1, 79, 0
3, 581568, Note_on_c, 1, 70, 0
3, 581760, Note_on_c, 1, 68, 105
3, 581760, Note_on_c, 1, 77, 105
3, 582144, Note_on_c, 1, 77, 0
3, 582144, Note_on_c, 1, 68, 0
3, 582240, Note_on_c, 1, 80, 105
3, 582240, Note_on_c, 1, 77, 105
3, 582624, Note_on_c, 1, 77, 0
3, 582624, Note_on_c, 1, 80, 0
3, 582720, Note_on_c, 1, 80, 105
3, 582720, Note_on_c, 1, 77, 105
3, 583104, Note_on_c, 1, 77, 0
3, 583104, Note_on_c, 1, 80, 0
3, 583200, Note_on_c, 1, 80, 105
3, 583200, Note_on_c, 1, 77, 105
3, 583584, Note_on_c, 1, 77, 0
3, 583584, Note_on_c, 1, 80, 0
3, 584160, Note_on_c, 1, 74, 105
3, 584160, Note_on_c, 1, 80, 105
3, 584544, Note_on_c, 1, 80, 0
3, 584544, Note_on_c, 1, 74, 0
3, 584640, Note_on_c, 1, 74, 105
3, 584640, Note_on_c, 1, 80, 105
3, 585024, Note_on_c, 1, 80, 0
3, 585024, Note_on_c, 1, 74, 0
3, 585120, Note_on_c, 1, 74, 105
3, 585120, Note_on_c, 1, 80, 105
3, 585504, Note_on_c, 1, 80, 0
3, 585504, Note_on_c, 1, 74, 0
3, 586080, Note_on_c, 1, 74, 105
3, 586080, Note_on_c, 1, 79, 105
3, 586848, Note_on_c, 1, 79, 0
3, 586848, Note_on_c, 1, 74, 0
3, 587040, Note_on_c, 1, 74, 105
3, 587040, Note_on_c, 1, 79, 105
3, 587424, Note_on_c, 1, 79, 0
3, 587424, Note_on_c, 1, 74, 0
3, 588000, Note_on_c, 1, 79, 105
3, 588000, Note_on_c, 1, 72, 105
3, 588384, Note_on_c, 1, 72, 0
3, 588384, Note_on_c, 1, 79, 0
3, 588480, Note_on_c, 1, 72, 105
3, 588480, Note_on_c, 1, 79, 105
3, 588864, Note_on_c, 1, 79, 0
3, 588864, Note_on_c, 1, 72, 0
3, 588960, Note_on_c, 1, 79, 105
3, 588960, Note_on_c, 1, 72, 105
3, 589344, Note_on_c, 1, 72, 0
3, 589344, Note_on_c, 1, 79, 0
3, 589920, Note_on_c, 1, 77, 105
3, 589920, Note_on_c, 1, 72, 105
3, 590688, Note_on_c, 1, 72, 0
3, 590688, Note_on_c, 1, 77, 0
3, 590880, Note_on_c, 1, 77, 105
3, 590880, Note_on_c, 1, 72, 105
3, 591264, Note_on_c, 1, 72, 0
3, 591264, Note_on_c, 1, 77, 0
3, 591840, Note_on_c, 1, 77, 105
3, 591840, Note_on_c, 1, 71, 105
3, 592224, Note_on_c, 1, 71, 0
3, 592224, Note_on_c, 1, 77, 0
3, 592320, Note_on_c, 1, 77, 105
3, 592320, Note_on_c, 1, 71, 105
3, 592704, Note_on_c, 1, 71, 0
3, 592704, Note_on_c, 1, 77, 0
3, 592800, Note_on_c, 1, 71, 105
3, 592800, Note_on_c, 1, 77, 105
3, 593184, Note_on_c, 1, 77, 0
3, 593184, Note_on_c, 1, 71, 0
3, 593760, Note_on_c, 1, 72, 105
3, 593760, Note_on_c, 1, 75, 105
3, 594528, Note_on_c, 1, 75, 0
3, 594528, Note_on_c, 1, 72, 0
3, 594720, Note_on_c, 1, 72, 105
3, 594720, Note_on_c, 1, 75, 105
3, 595104, Note_on_c, 1, 75, 0
3, 595104, Note_on_c, 1, 72, 0
3, 595680, Note_on_c, 1, 78, 105
3, 595680, Note_on_c, 1, 69, 105
3, 596448, Note_on_c, 1, 69, 0
3, 596448, Note_on_c, 1, 78, 0
3, 596640, Note_on_c, 1, 72, 105
3, 596640, Note_on_c, 1, 74, 105
3, 597024, Note_on_c, 1, 74, 0
3, 597024, Note_on_c, 1, 72, 0
3, 597120, Note_on_c, 1, 74, 105
3, 597120, Note_on_c, 1, 70, 105
3, 598656, Note_on_c, 1, 70, 0
3, 598656, Note_on_c, 1, 74, 0
3, 599040, Note_on_c, 1, 74, 105
3, 600576, Note_on_c, 1, 74, 0
3, 600960, Note_on_c, 1, 72, 105
3, 600960, Note_on_c, 1, 84, 105
3, 602496, Note_on_c, 1, 84, 0
3, 602496, Note_on_c, 1, 72, 0
3, 602880, Note_on_c, 1, 70, 105
3, 602880, Note_on_c, 1, 82, 105
3, 604416, Note_on_c, 1, 82, 0
3, 604416, Note_on_c, 1, 70, 0
3, 604800, Note_on_c, 1, 81, 105
3, 604800, Note_on_c, 1, 69, 105
3, 606240, Note_on_c, 1, 69, 0
3, 606240, Note_on_c, 1, 81, 0
3, 606240, Note_on_c, 1, 66, 105
3, 606240, Note_on_c, 1, 78, 105
3, 606624, Note_on_c, 1, 78, 0
3, 606624, Note_on_c, 1, 66, 0
3, 606720, Note_on_c, 1, 79, 105
3, 606720, Note_on_c, 1, 67, 105
3, 608016, Note_on_c, 1, 67, 0
3, 608016, Note_on_c, 1, 79, 0
3, 608160, Note_on_c, 1, 74, 105
3, 608544, Note_on_c, 1, 74, 0
3, 608640, Note_on_c, 1, 79, 125
3, 608640, Note_on_c, 1, 76, 105
3, 610176, Note_on_c, 1, 76, 0
3, 610176, Note_on_c, 1, 79, 0
3, 610560, Note_on_c, 1, 79, 125
3, 610560, Note_on_c, 1, 76, 105
3, 612096, Note_on_c, 1, 76, 0
3, 612096, Note_on_c, 1, 79, 0
3, 612480, Note_on_c, 1, 79, 125
3, 612480, Note_on_c, 1, 76, 105
3, 614016, Note_on_c, 1, 76, 0
3, 614016, Note_on_c, 1, 79, 0
3, 614400, Note_on_c, 1, 76, 105
3, 614400, Note_on_c, 1, 79, 125
3, 615936, Note_on_c, 1, 79, 0
3, 615936, Note_on_c, 1, 76, 0
3, 616320, Note_on_c, 1, 78, 105
3, 616320, Note_on_c, 1, 74, 105
3, 617088, Note_on_c, 1, 74, 0
3, 617088, Note_on_c, 1, 78, 0
3, 617280, Note_on_c, 1, 78, 105
3, 617280, Note_on_c, 1, 81, 105
3, 618048, Note_on_c, 1, 81, 0
3, 618048, Note_on_c, 1, 78, 0
3, 618240, Note_on_c, 1, 82, 105
3, 618240, Note_on_c, 1, 79, 105
3, 619008, Note_on_c, 1, 79, 0
3, 619008, Note_on_c, 1, 82, 0
3, 619200, Note_on_c, 1, 76, 105
3, 619200, Note_on_c, 1, 79, 105
3, 619968, Note_on_c, 1, 79, 0
3, 619968, Note_on_c, 1, 76, 0
3, 620160, Note_on_c, 1, 78, 105
3, 620160, Note_on_c, 1, 74, 105
3, 620928, Note_on_c, 1, 74, 0
3, 620928, Note_on_c, 1, 78, 0
3, 621120, Note_on_c, 1, 81, 105
3, 621120, Note_on_c, 1, 85, 105
3, 621888, Note_on_c, 1, 85, 0
3, 621888, Note_on_c, 1, 81, 0
3, 622080, Note_on_c, 1, 82, 105
3, 622080, Note_on_c, 1, 79, 105
3, 622848, Note_on_c, 1, 79, 0
3, 622848, Note_on_c, 1, 82, 0
3, 623040, Note_on_c, 1, 76, 105
3, 623040, Note_on_c, 1, 79, 105
3, 623808, Note_on_c, 1, 79, 0
3, 623808, Note_on_c, 1, 76, 0
3, 624000, Note_on_c, 1, 78, 105
3, 624000, Note_on_c, 1, 74, 105
3, 624384, Note_on_c, 1, 74, 0
3, 624384, Note_on_c, 1, 78, 0
3, 624960, Note_on_c, 1, 66, 92
3, 624960, Note_on_c, 1, 69, 92
3, 625344, Note_on_c, 1, 69, 0
3, 625344, Note_on_c, 1, 66, 0
3, 629760, Note_on_c, 1, 72, 58
3, 631200, Note_on_c, 1, 72, 0
3, 631200, Note_on_c, 1, 74, 58
3, 631320, Note_on_c, 1, 74, 0
3, 631320, Note_on_c, 1, 72, 58
3, 631440, Note_on_c, 1, 72, 0
3, 631440, Note_on_c, 1, 70, 58
3, 631560, Note_on_c, 1, 70, 0
3, 631560, Note_on_c, 1, 69, 58
3, 631680, Note_on_c, 1, 69, 0
3, 631680, Note_on_c, 1, 67, 58
3, 632064, Note_on_c, 1, 67, 0
3, 641280, Note_on_c, 1, 67, 70
3, 641520, Note_on_c, 1, 67, 0
3, 641520, Note_on_c, 1, 66, 70
3, 641760, Note_on_c, 1, 66, 0
3, 641760, Note_on_c, 1, 69, 70
3, 642000, Note_on_c, 1, 69, 0
3, 642000, Note_on_c, 1, 67, 70
3, 642240, Note_on_c, 1, 67, 0
3, 642240, Note_on_c, 1, 70, 70
3, 642480, Note_on_c, 1, 70, 0
3, 642480, Note_on_c, 1, 69, 70
3, 642720, Note_on_c, 1, 69, 0
3, 642720, Note_on_c, 1, 72, 70
3, 642960, Note_on_c, 1, 72, 0
3, 642960, Note_on_c, 1, 70, 70
3, 643152, Note_on_c, 1, 70, 0
3, 643200, Note_on_c, 1, 74, 70
3, 644640, Note_on_c, 1, 74, 0
3, 644640, Note_on_c, 1, 73, 70
3, 645120, Note_on_c, 1, 73, 0
3, 645120, Note_on_c, 1, 72, 70
3, 645504, Note_on_c, 1, 72, 0
3, 647520, Note_on_c, 1, 71, 70
3, 648000, Note_on_c, 1, 71, 0
3, 648000, Note_on_c, 1, 72, 70
3, 648000, Note_on_c, 1, 79, 70
3, 648480, Note_on_c, 1, 72, 0
3, 648480, Note_on_c, 1, 73, 70
3, 648864, Note_on_c, 1, 73, 0
3, 648864, Note_on_c, 1, 79, 0
3, 648960, Note_on_c, 1, 74, 70
3, 648960, Note_on_c, 1, 79, 70
3, 649680, Note_on_c, 1, 79, 0
3, 649680, Note_on_c, 1, 81, 70
3, 649872, Note_on_c, 1, 81, 0
3, 649872, Note_on_c, 1, 74, 0
3, 649920, Note_on_c, 1, 78, 70
3, 650304, Note_on_c, 1, 78, 0
3, 654720, Note_on_c, 1, 77, 58
3, 654720, Note_on_c, 1, 80, 58
3, 656160, Note_on_c, 1, 80, 0
3, 656160, Note_on_c, 1, 77, 0
3, 656160, Note_on_c, 1, 75, 58
3, 656160, Note_on_c, 1, 79, 58
3, 656544, Note_on_c, 1, 79, 0
3, 656544, Note_on_c, 1, 75, 0
3, 656640, Note_on_c, 1, 80, 58
3, 656640, Note_on_c, 1, 77, 58
3, 658080, Note_on_c, 1, 77, 0
3, 658080, Note_on_c, 1, 80, 0
3, 658080, Note_on_c, 1, 75, 58
3, 658080, Note_on_c, 1, 79, 58
3, 658464, Note_on_c, 1, 79, 0
3, 658464, Note_on_c, 1, 75, 0
3, 658560, Note_on_c, 1, 80, 58
3, 658560, Note_on_c, 1, 77, 58
3, 660000, Note_on_c, 1, 77, 0
3, 660000, Note_on_c, 1, 80, 0
3, 660000, Note_on_c, 1, 75, 58
3, 660000, Note_on_c, 1, 79, 58
3, 660384, Note_on_c, 1, 79, 0
3, 660384, Note_on_c, 1, 75, 0
3, 660480, Note_on_c, 1, 80, 58
3, 660480, Note_on_c, 1, 77, 58
3, 661920, Note_on_c, 1, 77, 0
3, 661920, Note_on_c, 1, 80, 0
3, 661920, Note_on_c, 1, 75, 58
3, 661920, Note_on_c, 1, 79, 58
3, 662304, Note_on_c, 1, 79, 0
3, 662304, Note_on_c, 1, 75, 0
3, 662400, Note_on_c, 1, 80, 58
3, 662400, Note_on_c, 1, 77, 58
3, 665088, Note_on_c, 1, 77, 0
3, 665088, Note_on_c, 1, 80, 0
3, 665280, Note_on_c, 1, 68, 92
3, 665280, Note_on_c, 1, 74, 92
3, 666048, Note_on_c, 1, 74, 0
3, 666048, Note_on_c, 1, 68, 0
3, 666240, Note_on_c, 1, 75, 105
3, 666240, Note_on_c, 1, 66, 105
3, 667008, Note_on_c, 1, 75, 0
3, 667200, Note_on_c, 1, 72, 105
3, 667584, Note_on_c, 1, 72, 0
3, 667680, Note_on_c, 1, 69, 105
3, 668064, Note_on_c, 1, 69, 0
3, 668064, Note_on_c, 1, 66, 0
3, 668160, Note_on_c, 1, 70, 105
3, 668160, Note_on_c, 1, 65, 105
3, 668640, Note_on_c, 1, 70, 0
3, 668640, Note_on_c, 1, 73, 105
3, 669120, Note_on_c, 1, 73, 0
3, 669120, Note_on_c, 1, 77, 105
3, 670080, Note_on_c, 1, 65, 0
3, 670080, Note_on_c, 1, 68, 105
3, 671040, Note_on_c, 1, 77, 0
3, 671040, Note_on_c, 1, 74, 105
3, 671520, Note_on_c, 1, 74, 0
3, 671520, Note_on_c, 1, 71, 105
3, 671904, Note_on_c, 1, 71, 0
3, 671904, Note_on_c, 1, 68, 0
3, 672000, Note_on_c, 1, 72, 105
3, 672000, Note_on_c, 1, 67, 105
3, 672480, Note_on_c, 1, 72, 0
3, 672480, Note_on_c, 1, 75, 105
3, 672960, Note_on_c, 1, 75, 0
3, 672960, Note_on_c, 1, 79, 105
3, 673920, Note_on_c, 1, 67, 0
3, 673920, Note_on_c, 1, 70, 105
3, 674880, Note_on_c, 1, 79, 0
3, 674880, Note_on_c, 1, 76, 105
3, 675360, Note_on_c, 1, 76, 0
3, 675360, Note_on_c, 1, 73, 105
3, 675744, Note_on_c, 1, 73, 0
3, 675744, Note_on_c, 1, 70, 0
3, 675840, Note_on_c, 1, 74, 105
3, 675840, Note_on_c, 1, 70, 105
3, 677376, Note_on_c, 1, 70, 0
3, 677376, Note_on_c, 1, 74, 0
3, 677760, Note_on_c, 1, 79, 105
3, 677760, Note_on_c, 1, 72, 105
3, 677880, Note_on_c, 1, 79, 0
3, 677880, Note_on_c, 1, 78, 105
3, 678000, Note_on_c, 1, 78, 0
3, 678000, Note_on_c, 1, 79, 105
3, 678120, Note_on_c, 1, 79, 0
3, 678120, Note_on_c, 1, 78, 105
3, 678240, Note_on_c, 1, 78, 0
3, 678240, Note_on_c, 1, 79, 105
3, 678360, Note_on_c, 1, 79, 0
3, 678360, Note_on_c, 1, 78, 105
3, 678480, Note_on_c, 1, 78, 0
3, 678480, Note_on_c, 1, 79, 105
3, 678600, Note_on_c, 1, 79, 0
3, 678600, Note_on_c, 1, 78, 105
3, 678720, Note_on_c, 1, 78, 0
3, 678720, Note_on_c, 1, 79, 105
3, 678840, Note_on_c, 1, 79, 0
3, 678840, Note_on_c, 1, 78, 105
3, 678960, Note_on_c, 1, 78, 0
3, 678960, Note_on_c, 1, 79, 105
3, 679080, Note_on_c, 1, 79, 0
3, 679080, Note_on_c, 1, 78, 105
3, 679200, Note_on_c, 1, 78, 0
3, 679200, Note_on_c, 1, 79, 105
3, 679320, Note_on_c, 1, 79, 0
3, 679320, Note_on_c, 1, 78, 105
3, 679440, Note_on_c, 1, 78, 0
3, 679440, Note_on_c, 1, 76, 105
3, 679560, Note_on_c, 1, 76, 0
3, 679560, Note_on_c, 1, 78, 105
3, 679680, Note_on_c, 1, 78, 0
3, 679680, Note_on_c, 1, 72, 0
3, 679680, Note_on_c, 1, 79, 105
3, 679680, Note_on_c, 1, 70, 92
3, 680064, Note_on_c, 1, 70, 0
3, 680064, Note_on_c, 1, 79, 0
3, 683520, Note_on_c, 1, 74, 92
3, 683520, Note_on_c, 1, 71, 92
3, 683904, Note_on_c, 1, 71, 0
3, 683904, Note_on_c, 1, 74, 0
3, 684480, Note_on_c, 1, 72, 105
3, 684480, Note_on_c, 1, 75, 105
3, 684864, Note_on_c, 1, 75, 0
3, 684864, Note_on_c, 1, 72, 0
3, 685440, Note_on_c, 1, 78, 105
3, 685440, Note_on_c, 1, 74, 105
3, 685824, Note_on_c, 1, 74, 0
3, 685824, Note_on_c, 1, 78, 0
3, 686400, Note_on_c, 1, 74, 105
3, 686400, Note_on_c, 1, 79, 105
3, 686784, Note_on_c, 1, 79, 0
3, 686784, Note_on_c, 1, 74, 0
3, 692640, Note_on_c, 1, 75, 80
3, 692880, Note_on_c, 1, 75, 0
3, 692880, Note_on_c, 1, 74, 80
3, 693072, Note_on_c, 1, 74, 0
3, 693120, Note_on_c, 1, 74, 80
3, 693504, Note_on_c, 1, 74, 0
3, 693600, Note_on_c, 1, 75, 80
3, 693840, Note_on_c, 1, 75, 0
3, 693840, Note_on_c, 1, 74, 80
3, 694032, Note_on_c, 1, 74, 0
3, 694080, Note_on_c, 1, 74, 80
3, 694464, Note_on_c, 1, 74, 0
3, 696480, Note_on_c, 1, 75, 80
3, 696720, Note_on_c, 1, 75, 0
3, 696720, Note_on_c, 1, 74, 70
3, 696912, Note_on_c, 1, 74, 0
3, 696960, Note_on_c, 1, 74, 70
3, 697344, Note_on_c, 1, 74, 0
3, 697440, Note_on_c, 1, 75, 70
3, 697680, Note_on_c, 1, 75, 0
3, 697680, Note_on_c, 1, 74, 70
3, 697872, Note_on_c, 1, 74, 0
3, 697920, Note_on_c, 1, 74, 70
3, 698304, Note_on_c, 1, 74, 0
3, 700800, Note_on_c, 1, 79, 105
3, 700800, Note_on_c, 1, 83, 105
3, 702336, Note_on_c, 1, 83, 0
3, 702336, Note_on_c, 1, 79, 0
3, 702720, Note_on_c, 1, 84, 105
3, 702720, Note_on_c, 1, 79, 105
3, 704256, Note_on_c, 1, 79, 0
3, 704256, Note_on_c, 1, 84, 0
3, 704640, Note_on_c, 1, 79, 105
3, 704640, Note_on_c, 1, 82, 105
3, 705408, Note_on_c, 1, 82, 0
3, 705408, Note_on_c, 1, 79, 0
3, 705600, Note_on_c, 1, 72, 105
3, 705600, Note_on_c, 1, 78, 105
3, 706368, Note_on_c, 1, 78, 0
3, 706368, Note_on_c, 1, 72, 0
3, 706560, Note_on_c, 1, 70, 92
3, 706560, Note_on_c, 1, 79, 92
3, 706944, Note_on_c, 1, 79, 0
3, 706944, Note_on_c, 1, 70, 0
3, 709920, Note_on_c, 1, 75, 92
3, 710160, Note_on_c, 1, 75, 0
3, 710160, Note_on_c, 1, 74, 80
3, 710352, Note_on_c, 1, 74, 0
3, 710400, Note_on_c, 1, 74, 80
3, 710784, Note_on_c, 1, 74, 0
3, 710880, Note_on_c, 1, 75, 80
3, 711120, Note_on_c, 1, 75, 0
3, 711120, Note_on_c, 1, 74, 80
3, 711312, Note_on_c, 1, 74, 0
3, 711360, Note_on_c, 1, 74, 80
3, 711744, Note_on_c, 1, 74, 0
3, 713760, Note_on_c, 1, 75, 70
3, 714000, Note_on_c, 1, 75, 0
3, 714000, Note_on_c, 1, 74, 70
3, 714192, Note_on_c, 1, 74, 0
3, 714240, Note_on_c, 1, 74, 70
3, 714624, Note_on_c, 1, 74, 0
3, 714720, Note_on_c, 1, 75, 70
3, 714960, Note_on_c, 1, 75, 0
3, 714960, Note_on_c, 1, 74, 70
3, 715152, Note_on_c, 1, 74, 0
3, 715200, Note_on_c, 1, 74, 70
3, 715584, Note_on_c, 1, 74, 0
3, 716160, Note_on_c, 1, 79, 105
3, 716160, Note_on_c, 1, 83, 105
3, 717696, Note_on_c, 1, 83, 0
3, 717696, Note_on_c, 1, 79, 0
3, 718080, Note_on_c, 1, 84, 105
3, 718080, Note_on_c, 1, 79, 105
3, 719616, Note_on_c, 1, 79, 0
3, 719616, Note_on_c, 1, 84, 0
3, 720000, Note_on_c, 1, 79, 105
3, 720000, Note_on_c, 1, 82, 105
3, 720960, Note_on_c, 1, 82, 0
3, 720960, Note_on_c, 1, 79, 0
3, 720960, Note_on_c, 1, 72, 105
3, 720960, Note_on_c, 1, 78, 105
3, 721728, Note_on_c, 1, 78, 0
3, 721728, Note_on_c, 1, 72, 0
3, 721920, Note_on_c, 1, 79, 105
3, 721920, Note_on_c, 1, 70, 105
3, 722688, Note_on_c, 1, 70, 0
3, 722688, Note_on_c, 1, 79, 0
3, 723600, Note_on_c, 1, 86, 105
3, 723600, Note_on_c, 1, 74, 105
3, 723792, Note_on_c, 1, 74, 0
3, 723792, Note_on_c, 1, 86, 0
3, 723840, Note_on_c, 1, 84, 105
3, 723840, Note_on_c, 1, 72, 105
3, 724032, Note_on_c, 1, 72, 0
3, 724032, Note_on_c, 1, 84, 0
3, 724080, Note_on_c, 1, 70, 105
3, 724080, Note_on_c, 1, 82, 105
3, 724272, Note_on_c, 1, 82, 0
3, 724272, Note_on_c, 1, 70, 0
3, 724320, Note_on_c, 1, 81, 105
3, 724320, Note_on_c, 1, 69, 105
3, 724512, Note_on_c, 1, 69, 0
3, 724512, Note_on_c, 1, 81, 0
3, 724560, Note_on_c, 1, 67, 105
3, 724560, Note_on_c, 1, 79, 105
3, 724752, Note_on_c, 1, 79, 0
3, 724752, Note_on_c, 1, 67, 0
3, 724800, Note_on_c, 1, 78, 105
3, 724800, Note_on_c, 1, 66, 105
3, 724992, Note_on_c, 1, 66, 0
3, 724992, Note_on_c, 1, 78, 0
3, 725040, Note_on_c, 1, 75, 105
3, 725040, Note_on_c, 1, 63, 105
3, 725232, Note_on_c, 1, 63, 0
3, 725232, Note_on_c, 1, 75, 0
3, 725280, Note_on_c, 1, 74, 105
3, 725280, Note_on_c, 1, 62, 105
3, 725472, Note_on_c, 1, 62, 0
3, 725472, Note_on_c, 1, 74, 0
3, 725520, Note_on_c, 1, 72, 105
3, 725520, Note_on_c, 1, 60, 105
3, 725712, Note_on_c, 1, 60, 0
3, 725712, Note_on_c, 1, 72, 0
3, 725760, Note_on_c, 1, 70, 105
3, 725760, Note_on_c, 1, 74, 105
3, 726072, Note_on_c, 1, 74, 0
3, 726072, Note_on_c, 1, 70, 0
3, 726240, Note_on_c, 1, 74, 105
3, 726240, Note_on_c, 1, 79, 105
3, 726552, Note_on_c, 1, 79, 0
3, 726552, Note_on_c, 1, 74, 0
3, 726720, Note_on_c, 1, 72, 105
3, 726720, Note_on_c, 1, 79, 105
3, 727032, Note_on_c, 1, 79, 0
3, 727032, Note_on_c, 1, 72, 0
3, 727200, Note_on_c, 1, 69, 105
3, 727200, Note_on_c, 1, 72, 105
3, 727512, Note_on_c, 1, 72, 0
3, 727512, Note_on_c, 1, 69, 0
3, 727680, Note_on_c, 1, 67, 105
3, 727680, Note_on_c, 1, 70, 105
3, 727872, Note_on_c, 1, 70, 0
3, 727872, Note_on_c, 1, 67, 0
3, 727920, Note_on_c, 1, 74, 105
3, 728112, Note_on_c, 1, 74, 0
3, 728160, Note_on_c, 1, 82, 105
3, 728352, Note_on_c, 1, 82, 0
3, 728400, Note_on_c, 1, 81, 105
3, 728592, Note_on_c, 1, 81, 0
3, 728640, Note_on_c, 1, 79, 105
3, 728832, Note_on_c, 1, 79, 0
3, 728880, Note_on_c, 1, 77, 105
3, 729072, Note_on_c, 1, 77, 0
3, 729120, Note_on_c, 1, 75, 105
3, 729312, Note_on_c, 1, 75, 0
3, 729360, Note_on_c, 1, 74, 105
3, 729552, Note_on_c, 1, 74, 0
3, 729600, Note_on_c, 1, 73, 105
3, 729792, Note_on_c, 1, 73, 0
3, 729840, Note_on_c, 1, 76, 105
3, 730032, Note_on_c, 1, 76, 0
3, 730080, Note_on_c, 1, 81, 105
3, 730272, Note_on_c, 1, 81, 0
3, 730320, Note_on_c, 1, 79, 105
3, 730512, Note_on_c, 1, 79, 0
3, 730560, Note_on_c, 1, 78, 105
3, 730752, Note_on_c, 1, 78, 0
3, 730800, Note_on_c, 1, 75, 105
3, 730992, Note_on_c, 1, 75, 0
3, 731040, Note_on_c, 1, 74, 105
3, 731232, Note_on_c, 1, 74, 0
3, 731280, Note_on_c, 1, 72, 105
3, 731472, Note_on_c, 1, 72, 0
3, 731520, Note_on_c, 1, 70, 105
3, 731904, Note_on_c, 1, 70, 0
3, 732000, Note_on_c, 1, 67, 92
3, 732000, Note_on_c, 1, 79, 92
3, 732768, Note_on_c, 1, 79, 0
3, 732768, Note_on_c, 1, 67, 0
3, 732960, Note_on_c, 1, 68, 92
3, 732960, Note_on_c, 1, 80, 92
3, 733824, Note_on_c, 1, 80, 0
3, 733824, Note_on_c, 1, 68, 0
3, 733920, Note_on_c, 1, 81, 92
3, 733920, Note_on_c, 1, 69, 92
3, 734688, Note_on_c, 1, 69, 0
3, 734688, Note_on_c, 1, 81, 0
3, 734880, Note_on_c, 1, 70, 92
3, 734880, Note_on_c, 1, 82, 92
3, 735744, Note_on_c, 1, 82, 0
3, 735744, Note_on_c, 1, 70, 0
3, 735840, Note_on_c, 1, 83, 92
3, 735840, Note_on_c, 1, 71, 92
3, 736608, Note_on_c, 1, 71, 0
3, 736608, Note_on_c, 1, 83, 0
3, 736800, Note_on_c, 1, 84, 92
3, 736800, Note_on_c, 1, 72, 92
3, 737664, Note_on_c, 1, 72, 0
3, 737664, Note_on_c, 1, 84, 0
3, 737760, Note_on_c, 1, 85, 92
3, 737760, Note_on_c, 1, 73, 92
3, 738528, Note_on_c, 1, 73, 0
3, 738528, Note_on_c, 1, 85, 0
3, 739080, Note_on_c, 1, 70, 70
3, 739080, Note_on_c, 1, 79, 70
3, 739176, Note_on_c, 1, 79, 0
3, 739176, Note_on_c, 1, 70, 0
3, 739200, Note_on_c, 1, 70, 58
3, 739200, Note_on_c, 1, 79, 58
3, 741024, Note_on_c, 1, 79, 0
3, 741024, Note_on_c, 1, 70, 0
3, 741120, Note_on_c, 1, 69, 58
3, 741120, Note_on_c, 1, 72, 58
3, 742944, Note_on_c, 1, 72, 0
3, 742944, Note_on_c, 1, 69, 0
3, 743040, Note_on_c, 1, 67, 58
3, 743040, Note_on_c, 1, 70, 58
3, 743424, Note_on_c, 1, 70, 0
3, 743424, Note_on_c, 1, 67, 0
3, 752160, Note_on_c, 1, 75, 70
3, 752400, Note_on_c, 1, 75, 0
3, 752400, Note_on_c, 1, 74, 70
3, 752592, Note_on_c, 1, 74, 0
3, 752640, Note_on_c, 1, 74, 70
3, 753024, Note_on_c, 1, 74, 0
3, 753120, Note_on_c, 1, 75, 70
3, 753360, Note_on_c, 1, 75, 0
3, 753360, Note_on_c, 1, 74, 70
3, 753552, Note_on_c, 1, 74, 0
3, 753600, Note_on_c, 1, 74, 70
3, 753984, Note_on_c, 1, 74, 0
3, 754080, Note_on_c, 1, 75, 70
3, 754320, Note_on_c, 1, 75, 0
3, 754320, Note_on_c, 1, 74, 70
3, 754512, Note_on_c, 1, 74, 0
3, 754560, Note_on_c, 1, 70, 105
3, 754560, Note_on_c, 1, 74, 105
3, 754896, Note_on_c, 1, 74, 0
3, 754896, Note_on_c, 1, 70, 0
3, 755040, Note_on_c, 1, 82, 105
3, 755040, Note_on_c, 1, 79, 105
3, 755208, Note_on_c, 1, 79, 0
3, 755208, Note_on_c, 1, 82, 0
3, 755280, Note_on_c, 1, 79, 105
3, 755280, Note_on_c, 1, 82, 105
3, 755448, Note_on_c, 1, 82, 0
3, 755448, Note_on_c, 1, 79, 0
3, 755520, Note_on_c, 1, 78, 105
3, 755520, Note_on_c, 1, 81, 105
3, 755856, Note_on_c, 1, 81, 0
3, 755856, Note_on_c, 1, 78, 0
3, 756000, Note_on_c, 1, 78, 105
3, 756000, Note_on_c, 1, 81, 105
3, 756168, Note_on_c, 1, 81, 0
3, 756168, Note_on_c, 1, 78, 0
3, 756240, Note_on_c, 1, 81, 105
3, 756240, Note_on_c, 1, 78, 105
3, 756408, Note_on_c, 1, 78, 0
3, 756408, Note_on_c, 1, 81, 0
3, 756480, Note_on_c, 1, 79, 105
3, 756480, Note_on_c, 1, 82, 105
3, 756816, Note_on_c, 1, 82, 0
3, 756816, Note_on_c, 1, 79, 0
3, 756960, Note_on_c, 1, 79, 105
3, 756960, Note_on_c, 1, 82, 105
3, 757128, Note_on_c, 1, 82, 0
3, 757128, Note_on_c, 1, 79, 0
3, 757200, Note_on_c, 1, 79, 105
3, 757200, Note_on_c, 1, 82, 105
3, 757368, Note_on_c, 1, 82, 0
3, 757368, Note_on_c, 1, 79, 0
3, 757440, Note_on_c, 1, 81, 105
3, 757440, Note_on_c, 1, 78, 105
3, 757776, Note_on_c, 1, 78, 0
3, 757776, Note_on_c, 1, 81, 0
3, 757920, Note_on_c, 1, 81, 105
3, 757920, Note_on_c, 1, 78, 105
3, 758088, Note_on_c, 1, 78, 0
3, 758088, Note_on_c, 1, 81, 0
3, 758160, Note_on_c, 1, 78, 105
3, 758160, Note_on_c, 1, 81, 105
3, 758328, Note_on_c, 1, 81, 0
3, 758328, Note_on_c, 1, 78, 0
3, 758400, Note_on_c, 1, 79, 105
3, 758400, Note_on_c, 1, 82, 105
3, 758736, Note_on_c, 1, 82, 0
3, 758736, Note_on_c, 1, 79, 0
3, 758880, Note_on_c, 1, 79, 105
3, 758880, Note_on_c, 1, 82, 105
3, 759048, Note_on_c, 1, 82, 0
3, 759048, Note_on_c, 1, 79, 0
3, 759120, Note_on_c, 1, 79, 105
3, 759120, Note_on_c, 1, 82, 105
3, 759288, Note_on_c, 1, 82, 0
3, 759288, Note_on_c, 1, 79, 0
3, 759360, Note_on_c, 1, 81, 105
3, 759360, Note_on_c, 1, 78, 105
3, 759696, Note_on_c, 1, 78, 0
3, 759696, Note_on_c, 1, 81, 0
3, 759840, Note_on_c, 1, 81, 105
3, 759840, Note_on_c, 1, 78, 105
3, 760008, Note_on_c, 1, 78, 0
3, 760008, Note_on_c, 1, 81, 0
3, 760080, Note_on_c, 1, 78, 105
3, 760080, Note_on_c, 1, 81, 105
3, 760248, Note_on_c, 1, 81, 0
3, 760248, Note_on_c, 1, 78, 0
3, 760320, Note_on_c, 1, 79, 105
3, 760320, Note_on_c, 1, 82, 105
3, 760656, Note_on_c, 1, 82, 0
3, 760656, Note_on_c, 1, 79, 0
3, 760800, Note_on_c, 1, 81, 105
3, 760800, Note_on_c, 1, 84, 105
3, 761136, Note_on_c, 1, 84, 0
3, 761136, Note_on_c, 1, 81, 0
3, 761280, Note_on_c, 1, 82, 105
3, 761280, Note_on_c, 1, 79, 105
3, 761616, Note_on_c, 1, 79, 0
3, 761616, Note_on_c, 1, 82, 0
3, 761760, Note_on_c, 1, 81, 105
3, 761760, Note_on_c, 1, 84, 105
3, 762096, Note_on_c, 1, 84, 0
3, 762096, Note_on_c, 1, 81, 0
3, 762240, Note_on_c, 1, 82, 105
3, 762240, Note_on_c, 1, 79, 105
3, 762624, Note_on_c, 1, 79, 0
3, 762624, Note_on_c, 1, 82, 0
3, 764160, Note_on_c, 1, 79, 105
3, 764160, Note_on_c, 1, 82, 105
3, 764544, Note_on_c, 1, 82, 0
3, 764544, Note_on_c, 1, 79, 0
3, 765120, Note_on_c, 1, 79, 105
3, 765120, Note_on_c, 1, 82, 105
3, 765504, Note_on_c, 1, 82, 0
3, 765504, Note_on_c, 1, 79, 0
3, 766080, Note_on_c, 1, 79, 105
3, 766080, Note_on_c, 1, 82, 105
3, 767040, Note_on_c, 1, 82, 0
3, 767040, Note_on_c, 1, 79, 0
3, 767040, End_track
4, 0, Start_track
4, 0, Sequencer_specific, 04, 43, 00, 01, 00
4, 0, Program_c, 2, 70
4, 0, Control_c, 2, 7, 90
4, 0, Control_c, 2, 10, 72
4, 0, Control_c, 2, 91, 80
4, 27360, Note_on_c, 2, 54, 80
4, 27840, Note_on_c, 2, 54, 0
4, 27840, Note_on_c, 2, 55, 70
4, 28320, Note_on_c, 2, 55, 0
4, 28320, Note_on_c, 2, 57, 70
4, 28800, Note_on_c, 2, 57, 0
4, 28800, Note_on_c, 2, 58, 70
4, 29280, Note_on_c, 2, 58, 0
4, 29280, Note_on_c, 2, 60, 70
4, 29520, Note_on_c, 2, 60, 0
4, 29520, Note_on_c, 2, 58, 70
4, 29760, Note_on_c, 2, 58, 0
4, 29760, Note_on_c, 2, 57, 70
4, 30240, Note_on_c, 2, 57, 0
4, 30240, Note_on_c, 2, 55, 70
4, 30696, Note_on_c, 2, 55, 0
4, 30720, Note_on_c, 2, 54, 70
4, 31104, Note_on_c, 2, 54, 0
4, 31680, Note_on_c, 2, 58, 105
4, 31680, Note_on_c, 2, 64, 105
4, 32640, Note_on_c, 2, 64, 0
4, 32640, Note_on_c, 2, 58, 0
4, 32640, Note_on_c, 2, 57, 105
4, 32640, Note_on_c, 2, 66, 105
4, 33024, Note_on_c, 2, 66, 0
4, 33024, Note_on_c, 2, 57, 0
4, 33600, Note_on_c, 2, 58, 105
4, 33600, Note_on_c, 2, 64, 105
4, 34560, Note_on_c, 2, 64, 0
4, 34560, Note_on_c, 2, 58, 0
4, 34560, Note_on_c, 2, 66, 105
4, 34560, Note_on_c, 2, 57, 105
4, 34944, Note_on_c, 2, 57, 0
4, 34944, Note_on_c, 2, 66, 0
4, 35520, Note_on_c, 2, 58, 105
4, 35520, Note_on_c, 2, 64, 105
4, 36480, Note_on_c, 2, 64, 0
4, 36480, Note_on_c, 2, 58, 0
4, 36480, Note_on_c, 2, 66, 105
4, 36480, Note_on_c, 2, 57, 105
4, 36768, Note_on_c, 2, 57, 0
4, 36768, Note_on_c, 2, 66, 0
4, 36960, Note_on_c, 2, 64, 105
4, 36960, Note_on_c, 2, 58, 105
4, 37248, Note_on_c, 2, 58, 0
4, 37248, Note_on_c, 2, 64, 0
4, 37440, Note_on_c, 2, 57, 105
4, 37440, Note_on_c, 2, 66, 105
4, 37728, Note_on_c, 2, 66, 0
4, 37728, Note_on_c, 2, 57, 0
4, 37920, Note_on_c, 2, 64, 105
4, 37920, Note_on_c, 2, 58, 105
4, 38208, Note_on_c, 2, 58, 0
4, 38208, Note_on_c, 2, 64, 0
4, 38400, Note_on_c, 2, 66, 105
4, 38400, Note_on_c, 2, 57, 105
4, 39360, Note_on_c, 2, 57, 0
4, 39360, Note_on_c, 2, 66, 0
4, 39360, Note_on_c, 2, 57, 70
4, 39360, Note_on_c, 2, 60, 70
4, 40320, Note_on_c, 2, 60, 0
4, 40320, Note_on_c, 2, 57, 0
4, 40320, Note_on_c, 2, 55, 70
4, 40320, Note_on_c, 2, 58, 70
4, 41280, Note_on_c, 2, 58, 0
4, 41280, Note_on_c, 2, 55, 0
4, 41280, Note_on_c, 2, 54, 70
4, 41280, Note_on_c, 2, 57, 70
4, 42240, Note_on_c, 2, 57, 0
4, 42240, Note_on_c, 2, 54, 0
4, 42240, Note_on_c, 2, 55, 70
4, 42240, Note_on_c, 2, 58, 70
4, 42624, Note_on_c, 2, 58, 0
4, 42624, Note_on_c, 2, 55, 0
4, 46080, Note_on_c, 2, 67, 58
4, 46080, Note_on_c, 2, 63, 58
4, 49824, Note_on_c, 2, 67, 0
4, 49920, Note_on_c, 2, 65, 70
4, 53664, Note_on_c, 2, 65, 0
4, 53664, Note_on_c, 2, 63, 0
4, 53760, Note_on_c, 2, 65, 70
4, 53760, Note_on_c, 2, 62, 70
4, 54144, Note_on_c, 2, 62, 0
4, 54144, Note_on_c, 2, 65, 0
4, 54240, Note_on_c, 2, 58, 105
4, 54432, Note_on_c, 2, 58, 0
4, 54480, Note_on_c, 2, 62, 105
4, 54672, Note_on_c, 2, 62, 0
4, 54720, Note_on_c, 2, 58, 105
4, 54912, Note_on_c, 2, 58, 0
4, 54960, Note_on_c, 2, 62, 105
4, 55152, Note_on_c, 2, 62, 0
4, 55200, Note_on_c, 2, 58, 105
4, 55392, Note_on_c, 2, 58, 0
4, 55440, Note_on_c, 2, 62, 105
4, 55632, Note_on_c, 2, 62, 0
4, 55680, Note_on_c, 2, 57, 105
4, 55872, Note_on_c, 2, 57, 0
4, 55920, Note_on_c, 2, 60, 105
4, 56112, Note_on_c, 2, 60, 0
4, 56160, Note_on_c, 2, 57, 105
4, 56352, Note_on_c, 2, 57, 0
4, 56400, Note_on_c, 2, 60, 105
4, 56592, Note_on_c, 2, 60, 0
4, 56640, Note_on_c, 2, 57, 105
4, 56832, Note_on_c, 2, 57, 0
4, 56880, Note_on_c, 2, 60, 105
4, 57072, Note_on_c, 2, 60, 0
4, 57120, Note_on_c, 2, 57, 105
4, 57312, Note_on_c, 2, 57, 0
4, 57360, Note_on_c, 2, 60, 105
4, 57552, Note_on_c, 2, 60, 0
4, 57600, Note_on_c, 2, 55, 105
4, 57792, Note_on_c, 2, 55, 0
4, 57840, Note_on_c, 2, 58, 105
4, 58032, Note_on_c, 2, 58, 0
4, 58080, Note_on_c, 2, 55, 105
4, 58272, Note_on_c, 2, 55, 0
4, 58320, Note_on_c, 2, 58, 105
4, 58512, Note_on_c, 2, 58, 0
4, 58560, Note_on_c, 2, 55, 105
4, 58752, Note_on_c, 2, 55, 0
4, 58800, Note_on_c, 2, 58, 105
4, 58992, Note_on_c, 2, 58, 0
4, 59040, Note_on_c, 2, 55, 105
4, 59232, Note_on_c, 2, 55, 0
4, 59280, Note_on_c, 2, 58, 105
4, 59472, Note_on_c, 2, 58, 0
4, 59520, Note_on_c, 2, 53, 105
4, 59712, Note_on_c, 2, 53, 0
4, 59760, Note_on_c, 2, 58, 105
4, 59952, Note_on_c, 2, 58, 0
4, 60000, Note_on_c, 2, 53, 105
4, 60192, Note_on_c, 2, 53, 0
4, 60240, Note_on_c, 2, 58, 105
4, 60432, Note_on_c, 2, 58, 0
4, 60480, Note_on_c, 2, 53, 105
4, 60672, Note_on_c, 2, 53, 0
4, 60720, Note_on_c, 2, 58, 105
4, 60912, Note_on_c, 2, 58, 0
4, 60960, Note_on_c, 2, 53, 105
4, 61152, Note_on_c, 2, 53, 0
4, 61200, Note_on_c, 2, 58, 105
4, 61392, Note_on_c, 2, 58, 0
4, 61440, Note_on_c, 2, 51, 105
4, 61632, Note_on_c, 2, 51, 0
4, 61680, Note_on_c, 2, 55, 105
4, 61872, Note_on_c, 2, 55, 0
4, 61920, Note_on_c, 2, 51, 105
4, 62112, Note_on_c, 2, 51, 0
4, 62160, Note_on_c, 2, 55, 105
4, 62352, Note_on_c, 2, 55, 0
4, 62400, Note_on_c, 2, 51, 105
4, 62592, Note_on_c, 2, 51, 0
4, 62640, Note_on_c, 2, 55, 105
4, 62832, Note_on_c, 2, 55, 0
4, 62880, Note_on_c, 2, 51, 105
4, 63072, Note_on_c, 2, 51, 0
4, 63120, Note_on_c, 2, 55, 105
4, 63312, Note_on_c, 2, 55, 0
4, 63360, Note_on_c, 2, 50, 105
4, 63552, Note_on_c, 2, 50, 0
4, 63600, Note_on_c, 2, 53, 105
4, 63792, Note_on_c, 2, 53, 0
4, 63840, Note_on_c, 2, 50, 105
4, 64032, Note_on_c, 2, 50, 0
4, 64080, Note_on_c, 2, 53, 105
4, 64272, Note_on_c, 2, 53, 0
4, 64320, Note_on_c, 2, 50, 105
4, 64512, Note_on_c, 2, 50, 0
4, 64560, Note_on_c, 2, 53, 105
4, 64752, Note_on_c, 2, 53, 0
4, 64800, Note_on_c, 2, 50, 105
4, 64992, Note_on_c, 2, 50, 0
4, 65040, Note_on_c, 2, 53, 105
4, 65232, Note_on_c, 2, 53, 0
4, 65280, Note_on_c, 2, 64, 112
4, 65280, Note_on_c, 2, 55, 92
4, 66816, Note_on_c, 2, 64, 0
4, 66960, Note_on_c, 2, 65, 92
4, 67152, Note_on_c, 2, 65, 0
4, 67152, Note_on_c, 2, 55, 0
4, 67200, Note_on_c, 2, 55, 92
4, 67200, Note_on_c, 2, 64, 112
4, 68736, Note_on_c, 2, 64, 0
4, 68880, Note_on_c, 2, 65, 92
4, 69072, Note_on_c, 2, 65, 0
4, 69072, Note_on_c, 2, 55, 0
4, 69120, Note_on_c, 2, 55, 92
4, 69120, Note_on_c, 2, 64, 112
4, 70656, Note_on_c, 2, 64, 0
4, 70800, Note_on_c, 2, 65, 92
4, 70992, Note_on_c, 2, 65, 0
4, 70992, Note_on_c, 2, 55, 0
4, 71040, Note_on_c, 2, 55, 92
4, 71040, Note_on_c, 2, 64, 112
4, 72576, Note_on_c, 2, 64, 0
4, 72576, Note_on_c, 2, 55, 0
4, 72960, Note_on_c, 2, 53, 92
4, 72960, Note_on_c, 2, 65, 92
4, 73140, Note_on_c, 2, 65, 0
4, 73140, Note_on_c, 2, 53, 0
4, 73200, Note_on_c, 2, 53, 105
4, 73380, Note_on_c, 2, 53, 0
4, 73440, Note_on_c, 2, 53, 105
4, 73620, Note_on_c, 2, 53, 0
4, 73680, Note_on_c, 2, 53, 105
4, 73860, Note_on_c, 2, 53, 0
4, 73920, Note_on_c, 2, 53, 105
4, 74100, Note_on_c, 2, 53, 0
4, 74160, Note_on_c, 2, 53, 105
4, 74340, Note_on_c, 2, 53, 0
4, 74400, Note_on_c, 2, 53, 105
4, 74580, Note_on_c, 2, 53, 0
4, 74640, Note_on_c, 2, 53, 105
4, 74820, Note_on_c, 2, 53, 0
4, 74880, Note_on_c, 2, 53, 105
4, 75060, Note_on_c, 2, 53, 0
4, 75120, Note_on_c, 2, 53, 105
4, 75300, Note_on_c, 2, 53, 0
4, 75360, Note_on_c, 2, 53, 105
4, 75540, Note_on_c, 2, 53, 0
4, 75600, Note_on_c, 2, 53, 105
4, 75780, Note_on_c, 2, 53, 0
4, 75840, Note_on_c, 2, 53, 105
4, 76020, Note_on_c, 2, 53, 0
4, 76080, Note_on_c, 2, 53, 105
4, 76260, Note_on_c, 2, 53, 0
4, 76320, Note_on_c, 2, 53, 105
4, 76500, Note_on_c, 2, 53, 0
4, 76560, Note_on_c, 2, 53, 105
4, 76740, Note_on_c, 2, 53, 0
4, 76800, Note_on_c, 2, 53, 105
4, 76980, Note_on_c, 2, 53, 0
4, 77040, Note_on_c, 2, 53, 105
4, 77220, Note_on_c, 2, 53, 0
4, 77280, Note_on_c, 2, 53, 105
4, 77460, Note_on_c, 2, 53, 0
4, 77520, Note_on_c, 2, 53, 105
4, 77700, Note_on_c, 2, 53, 0
4, 77760, Note_on_c, 2, 53, 105
4, 77940, Note_on_c, 2, 53, 0
4, 78000, Note_on_c, 2, 53, 105
4, 78180, Note_on_c, 2, 53, 0
4, 78240, Note_on_c, 2, 53, 105
4, 78420, Note_on_c, 2, 53, 0
4, 78480, Note_on_c, 2, 53, 105
4, 78660, Note_on_c, 2, 53, 0
4, 78720, Note_on_c, 2, 53, 105
4, 78900, Note_on_c, 2, 53, 0
4, 78960, Note_on_c, 2, 53, 105
4, 79140, Note_on_c, 2, 53, 0
4, 79200, Note_on_c, 2, 53, 105
4, 79380, Note_on_c, 2, 53, 0
4, 79440, Note_on_c, 2, 53, 105
4, 79620, Note_on_c, 2, 53, 0
4, 79680, Note_on_c, 2, 53, 105
4, 79860, Note_on_c, 2, 53, 0
4, 79920, Note_on_c, 2, 53, 105
4, 80100, Note_on_c, 2, 53, 0
4, 80160, Note_on_c, 2, 53, 105
4, 80340, Note_on_c, 2, 53, 0
4, 80400, Note_on_c, 2, 53, 105
4, 80580, Note_on_c, 2, 53, 0
4, 80640, Note_on_c, 2, 53, 105
4, 81024, Note_on_c, 2, 53, 0
4, 81600, Note_on_c, 2, 41, 92
4, 81984, Note_on_c, 2, 41, 0
4, 86400, Note_on_c, 2, 63, 70
4, 87840, Note_on_c, 2, 63, 0
4, 87840, Note_on_c, 2, 65, 70
4, 87960, Note_on_c, 2, 65, 0
4, 87960, Note_on_c, 2, 63, 70
4, 88080, Note_on_c, 2, 63, 0
4, 88080, Note_on_c, 2, 62, 70
4, 88200, Note_on_c, 2, 62, 0
4, 88200, Note_on_c, 2, 60, 70
4, 88320, Note_on_c, 2, 60, 0
4, 88320, Note_on_c, 2, 58, 70
4, 88704, Note_on_c, 2, 58, 0
4, 97920, Note_on_c, 2, 58, 70
4, 98160, Note_on_c, 2, 58, 0
4, 98160, Note_on_c, 2, 57, 70
4, 98400, Note_on_c, 2, 57, 0
4, 98400, Note_on_c, 2, 60, 70
4, 98640, Note_on_c, 2, 60, 0
4, 98640, Note_on_c, 2, 58, 70
4, 98880, Note_on_c, 2, 58, 0
4, 98880, Note_on_c, 2, 62, 70
4, 99120, Note_on_c, 2, 62, 0
4, 99120, Note_on_c, 2, 60, 70
4, 99360, Note_on_c, 2, 60, 0
4, 99360, Note_on_c, 2, 63, 70
4, 99600, Note_on_c, 2, 63, 0
4, 99600, Note_on_c, 2, 62, 70
4, 99792, Note_on_c, 2, 62, 0
4, 99840, Note_on_c, 2, 62, 70
4, 99840, Note_on_c, 2, 65, 70
4, 101280, Note_on_c, 2, 65, 0
4, 101280, Note_on_c, 2, 62, 0
4, 101280, Note_on_c, 2, 64, 70
4, 101280, Note_on_c, 2, 60, 70
4, 101760, Note_on_c, 2, 60, 0
4, 101760, Note_on_c, 2, 64, 0
4, 101760, Note_on_c, 2, 53, 70
4, 101760, Note_on_c, 2, 63, 70
4, 102144, Note_on_c, 2, 63, 0
4, 102144, Note_on_c, 2, 53, 0
4, 104160, Note_on_c, 2, 55, 70
4, 104160, Note_on_c, 2, 62, 70
4, 104472, Note_on_c, 2, 62, 0
4, 104472, Note_on_c, 2, 55, 0
4, 104640, Note_on_c, 2, 55, 70
4, 104640, Note_on_c, 2, 62, 70
4, 105120, Note_on_c, 2, 62, 0
4, 105120, Note_on_c, 2, 55, 0
4, 105120, Note_on_c, 2, 52, 70
4, 105120, Note_on_c, 2, 67, 70
4, 105504, Note_on_c, 2, 67, 0
4, 105504, Note_on_c, 2, 52, 0
4, 105600, Note_on_c, 2, 65, 70
4, 105600, Note_on_c, 2, 53, 70
4, 106560, Note_on_c, 2, 53, 0
4, 106560, Note_on_c, 2, 65, 0
4, 111840, Note_on_c, 2, 61, 58
4, 111840, Note_on_c, 2, 58, 58
4, 112800, Note_on_c, 2, 58, 0
4, 112800, Note_on_c, 2, 61, 0
4, 112800, Note_on_c, 2, 60, 58
4, 112800, Note_on_c, 2, 56, 58
4, 113184, Note_on_c, 2, 56, 0
4, 113184, Note_on_c, 2, 60, 0
4, 113760, Note_on_c, 2, 61, 58
4, 113760, Note_on_c, 2, 58, 58
4, 114720, Note_on_c, 2, 58, 0
4, 114720, Note_on_c, 2, 61, 0
4, 114720, Note_on_c, 2, 56, 58
4, 114720, Note_on_c, 2, 60, 58
4, 115104, Note_on_c, 2, 60, 0
4, 115104, Note_on_c, 2, 56, 0
4, 115680, Note_on_c, 2, 61, 58
4, 115680, Note_on_c, 2, 58, 58
4, 116640, Note_on_c, 2, 58, 0
4, 116640, Note_on_c, 2, 61, 0
4, 116640, Note_on_c, 2, 56, 58
4, 116640, Note_on_c, 2, 60, 58
4, 117024, Note_on_c, 2, 60, 0
4, 117024, Note_on_c, 2, 56, 0
4, 117600, Note_on_c, 2, 61, 58
4, 117600, Note_on_c, 2, 58, 58
4, 118560, Note_on_c, 2, 58, 0
4, 118560, Note_on_c, 2, 61, 0
4, 118560, Note_on_c, 2, 56, 58
4, 118560, Note_on_c, 2, 60, 58
4, 118944, Note_on_c, 2, 60, 0
4, 118944, Note_on_c, 2, 56, 0
4, 119040, Note_on_c, 2, 51, 58
4, 119232, Note_on_c, 2, 51, 0
4, 119280, Note_on_c, 2, 51, 73
4, 119472, Note_on_c, 2, 51, 0
4, 119520, Note_on_c, 2, 51, 76
4, 119712, Note_on_c, 2, 51, 0
4, 119760, Note_on_c, 2, 51, 79
4, 119952, Note_on_c, 2, 51, 0
4, 120000, Note_on_c, 2, 51, 82
4, 120192, Note_on_c, 2, 51, 0
4, 120240, Note_on_c, 2, 51, 85
4, 120432, Note_on_c, 2, 51, 0
4, 120480, Note_on_c, 2, 51, 88
4, 120672, Note_on_c, 2, 51, 0
4, 120720, Note_on_c, 2, 51, 92
4, 120912, Note_on_c, 2, 51, 0
4, 120960, Note_on_c, 2, 52, 95
4, 121152, Note_on_c, 2, 52, 0
4, 121200, Note_on_c, 2, 52, 98
4, 121392, Note_on_c, 2, 52, 0
4, 121440, Note_on_c, 2, 52, 101
4, 121632, Note_on_c, 2, 52, 0
4, 121680, Note_on_c, 2, 52, 104
4, 121872, Note_on_c, 2, 52, 0
4, 121920, Note_on_c, 2, 52, 107
4, 122112, Note_on_c, 2, 52, 0
4, 122160, Note_on_c, 2, 52, 109
4, 122352, Note_on_c, 2, 52, 0
4, 122400, Note_on_c, 2, 52, 109
4, 122592, Note_on_c, 2, 52, 0
4, 122640, Note_on_c, 2, 52, 109
4, 122832, Note_on_c, 2, 52, 0
4, 122880, Note_on_c, 2, 53, 109
4, 123072, Note_on_c, 2, 53, 0
4, 123120, Note_on_c, 2, 53, 105
4, 123312, Note_on_c, 2, 53, 0
4, 123360, Note_on_c, 2, 53, 105
4, 123552, Note_on_c, 2, 53, 0
4, 123600, Note_on_c, 2, 53, 105
4, 123792, Note_on_c, 2, 53, 0
4, 123840, Note_on_c, 2, 53, 105
4, 124032, Note_on_c, 2, 53, 0
4, 124080, Note_on_c, 2, 53, 105
4, 124272, Note_on_c, 2, 53, 0
4, 124320, Note_on_c, 2, 53, 105
4, 124512, Note_on_c, 2, 53, 0
4, 124560, Note_on_c, 2, 53, 105
4, 124752, Note_on_c, 2, 53, 0
4, 124800, Note_on_c, 2, 41, 105
4, 124992, Note_on_c, 2, 41, 0
4, 125040, Note_on_c, 2, 41, 105
4, 125232, Note_on_c, 2, 41, 0
4, 125280, Note_on_c, 2, 41, 105
4, 125472, Note_on_c, 2, 41, 0
4, 125520, Note_on_c, 2, 41, 105
4, 125712, Note_on_c, 2, 41, 0
4, 125760, Note_on_c, 2, 41, 105
4, 125952, Note_on_c, 2, 41, 0
4, 126000, Note_on_c, 2, 41, 105
4, 126192, Note_on_c, 2, 41, 0
4, 126240, Note_on_c, 2, 41, 105
4, 126432, Note_on_c, 2, 41, 0
4, 126480, Note_on_c, 2, 41, 105
4, 126672, Note_on_c, 2, 41, 0
4, 126720, Note_on_c, 2, 46, 92
4, 127104, Note_on_c, 2, 46, 0
4, 127200, Note_on_c, 2, 50, 125
4, 127968, Note_on_c, 2, 50, 0
4, 128160, Note_on_c, 2, 51, 105
4, 128448, Note_on_c, 2, 51, 0
4, 128640, Note_on_c, 2, 52, 105
4, 128928, Note_on_c, 2, 52, 0
4, 129120, Note_on_c, 2, 53, 105
4, 129408, Note_on_c, 2, 53, 0
4, 129600, Note_on_c, 2, 54, 105
4, 129888, Note_on_c, 2, 54, 0
4, 130080, Note_on_c, 2, 55, 105
4, 130368, Note_on_c, 2, 55, 0
4, 130560, Note_on_c, 2, 56, 105
4, 130944, Note_on_c, 2, 56, 0
4, 131520, Note_on_c, 2, 55, 105
4, 131904, Note_on_c, 2, 55, 0
4, 132480, Note_on_c, 2, 60, 105
4, 132480, Note_on_c, 2, 57, 105
4, 132864, Note_on_c, 2, 57, 0
4, 132864, Note_on_c, 2, 60, 0
4, 133440, Note_on_c, 2, 62, 105
4, 133440, Note_on_c, 2, 58, 105
4, 133824, Note_on_c, 2, 58, 0
4, 133824, Note_on_c, 2, 62, 0
4, 134400, Note_on_c, 2, 67, 105
4, 135504, Note_on_c, 2, 67, 0
4, 135600, Note_on_c, 2, 65, 70
4, 135744, Note_on_c, 2, 65, 0
4, 135840, Note_on_c, 2, 63, 70
4, 135984, Note_on_c, 2, 63, 0
4, 136080, Note_on_c, 2, 62, 70
4, 136224, Note_on_c, 2, 62, 0
4, 136320, Note_on_c, 2, 60, 70
4, 136464, Note_on_c, 2, 60, 0
4, 136560, Note_on_c, 2, 58, 70
4, 136704, Note_on_c, 2, 58, 0
4, 136800, Note_on_c, 2, 57, 70
4, 136944, Note_on_c, 2, 57, 0
4, 137040, Note_on_c, 2, 55, 70
4, 137184, Note_on_c, 2, 55, 0
4, 137280, Note_on_c, 2, 53, 70
4, 137424, Note_on_c, 2, 53, 0
4, 137520, Note_on_c, 2, 51, 70
4, 137664, Note_on_c, 2, 51, 0
4, 137760, Note_on_c, 2, 50, 70
4, 137904, Note_on_c, 2, 50, 0
4, 138000, Note_on_c, 2, 48, 70
4, 138144, Note_on_c, 2, 48, 0
4, 138240, Note_on_c, 2, 46, 70
4, 138624, Note_on_c, 2, 46, 0
4, 141600, Note_on_c, 2, 67, 70
4, 141840, Note_on_c, 2, 67, 0
4, 141840, Note_on_c, 2, 65, 80
4, 142032, Note_on_c, 2, 65, 0
4, 142080, Note_on_c, 2, 65, 80
4, 142464, Note_on_c, 2, 65, 0
4, 142560, Note_on_c, 2, 67, 80
4, 142800, Note_on_c, 2, 67, 0
4, 142800, Note_on_c, 2, 65, 80
4, 142992, Note_on_c, 2, 65, 0
4, 143040, Note_on_c, 2, 65, 80
4, 143424, Note_on_c, 2, 65, 0
4, 145440, Note_on_c, 2, 67, 80
4, 145680, Note_on_c, 2, 67, 0
4, 145680, Note_on_c, 2, 65, 80
4, 145872, Note_on_c, 2, 65, 0
4, 145920, Note_on_c, 2, 65, 80
4, 146304, Note_on_c, 2, 65, 0
4, 146400, Note_on_c, 2, 67, 80
4, 146640, Note_on_c, 2, 67, 0
4, 146640, Note_on_c, 2, 65, 80
4, 146832, Note_on_c, 2, 65, 0
4, 146880, Note_on_c, 2, 65, 80
4, 147264, Note_on_c, 2, 65, 0
4, 147840, Note_on_c, 2, 50, 105
4, 148032, Note_on_c, 2, 50, 0
4, 148080, Note_on_c, 2, 50, 105
4, 148272, Note_on_c, 2, 50, 0
4, 148320, Note_on_c, 2, 50, 105
4, 148512, Note_on_c, 2, 50, 0
4, 148560, Note_on_c, 2, 50, 105
4, 148752, Note_on_c, 2, 50, 0
4, 148800, Note_on_c, 2, 50, 105
4, 148992, Note_on_c, 2, 50, 0
4, 149040, Note_on_c, 2, 50, 105
4, 149232, Note_on_c, 2, 50, 0
4, 149280, Note_on_c, 2, 50, 105
4, 149472, Note_on_c, 2, 50, 0
4, 149520, Note_on_c, 2, 50, 105
4, 149712, Note_on_c, 2, 50, 0
4, 149760, Note_on_c, 2, 55, 105
4, 149952, Note_on_c, 2, 55, 0
4, 150000, Note_on_c, 2, 55, 105
4, 150192, Note_on_c, 2, 55, 0
4, 150240, Note_on_c, 2, 55, 105
4, 150432, Note_on_c, 2, 55, 0
4, 150480, Note_on_c, 2, 55, 105
4, 150672, Note_on_c, 2, 55, 0
4, 150720, Note_on_c, 2, 51, 105
4, 150912, Note_on_c, 2, 51, 0
4, 150960, Note_on_c, 2, 51, 105
4, 151152, Note_on_c, 2, 51, 0
4, 151200, Note_on_c, 2, 51, 105
4, 151392, Note_on_c, 2, 51, 0
4, 151440, Note_on_c, 2, 51, 105
4, 151632, Note_on_c, 2, 51, 0
4, 151680, Note_on_c, 2, 53, 105
4, 151872, Note_on_c, 2, 53, 0
4, 151920, Note_on_c, 2, 53, 105
4, 152112, Note_on_c, 2, 53, 0
4, 152160, Note_on_c, 2, 53, 105
4, 152352, Note_on_c, 2, 53, 0
4, 152400, Note_on_c, 2, 53, 105
4, 152592, Note_on_c, 2, 53, 0
4, 152640, Note_on_c, 2, 41, 105
4, 152832, Note_on_c, 2, 41, 0
4, 152880, Note_on_c, 2, 41, 105
4, 153072, Note_on_c, 2, 41, 0
4, 153120, Note_on_c, 2, 41, 105
4, 153312, Note_on_c, 2, 41, 0
4, 153360, Note_on_c, 2, 41, 105
4, 153552, Note_on_c, 2, 41, 0
4, 153600, Note_on_c, 2, 46, 92
4, 153984, Note_on_c, 2, 46, 0
4, 155040, Note_on_c, 2, 67, 80
4, 155280, Note_on_c, 2, 67, 0
4, 155280, Note_on_c, 2, 65, 80
4, 155472, Note_on_c, 2, 65, 0
4, 155520, Note_on_c, 2, 65, 80
4, 155904, Note_on_c, 2, 65, 0
4, 156000, Note_on_c, 2, 67, 80
4, 156240, Note_on_c, 2, 67, 0
4, 156240, Note_on_c, 2, 65, 80
4, 156432, Note_on_c, 2, 65, 0
4, 156480, Note_on_c, 2, 65, 80
4, 156864, Note_on_c, 2, 65, 0
4, 158880, Note_on_c, 2, 67, 80
4, 159120, Note_on_c, 2, 67, 0
4, 159120, Note_on_c, 2, 65, 80
4, 159312, Note_on_c, 2, 65, 0
4, 159360, Note_on_c, 2, 65, 80
4, 159744, Note_on_c, 2, 65, 0
4, 159840, Note_on_c, 2, 67, 80
4, 160080, Note_on_c, 2, 67, 0
4, 160080, Note_on_c, 2, 65, 80
4, 160272, Note_on_c, 2, 65, 0
4, 160320, Note_on_c, 2, 65, 80
4, 160704, Note_on_c, 2, 65, 0
4, 163200, Note_on_c, 2, 50, 80
4, 163392, Note_on_c, 2, 50, 0
4, 163440, Note_on_c, 2, 50, 105
4, 163632, Note_on_c, 2, 50, 0
4, 163680, Note_on_c, 2, 50, 105
4, 163872, Note_on_c, 2, 50, 0
4, 163920, Note_on_c, 2, 50, 105
4, 164112, Note_on_c, 2, 50, 0
4, 164160, Note_on_c, 2, 50, 105
4, 164352, Note_on_c, 2, 50, 0
4, 164400, Note_on_c, 2, 50, 105
4, 164592, Note_on_c, 2, 50, 0
4, 164640, Note_on_c, 2, 50, 105
4, 164832, Note_on_c, 2, 50, 0
4, 164880, Note_on_c, 2, 50, 105
4, 165072, Note_on_c, 2, 50, 0
4, 165120, Note_on_c, 2, 55, 105
4, 165312, Note_on_c, 2, 55, 0
4, 165360, Note_on_c, 2, 55, 105
4, 165552, Note_on_c, 2, 55, 0
4, 165600, Note_on_c, 2, 55, 105
4, 165792, Note_on_c, 2, 55, 0
4, 165840, Note_on_c, 2, 55, 105
4, 166032, Note_on_c, 2, 55, 0
4, 166080, Note_on_c, 2, 51, 105
4, 166272, Note_on_c, 2, 51, 0
4, 166320, Note_on_c, 2, 51, 105
4, 166512, Note_on_c, 2, 51, 0
4, 166560, Note_on_c, 2, 51, 105
4, 166752, Note_on_c, 2, 51, 0
4, 166800, Note_on_c, 2, 51, 105
4, 166992, Note_on_c, 2, 51, 0
4, 167040, Note_on_c, 2, 53, 105
4, 167232, Note_on_c, 2, 53, 0
4, 167280, Note_on_c, 2, 53, 105
4, 167472, Note_on_c, 2, 53, 0
4, 167520, Note_on_c, 2, 53, 105
4, 167712, Note_on_c, 2, 53, 0
4, 167760, Note_on_c, 2, 53, 105
4, 167952, Note_on_c, 2, 53, 0
4, 168000, Note_on_c, 2, 41, 105
4, 168192, Note_on_c, 2, 41, 0
4, 168240, Note_on_c, 2, 41, 105
4, 168432, Note_on_c, 2, 41, 0
4, 168480, Note_on_c, 2, 41, 105
4, 168672, Note_on_c, 2, 41, 0
4, 168720, Note_on_c, 2, 41, 105
4, 168912, Note_on_c, 2, 41, 0
4, 168960, Note_on_c, 2, 46, 105
4, 169728, Note_on_c, 2, 46, 0
4, 170640, Note_on_c, 2, 65, 105
4, 170832, Note_on_c, 2, 65, 0
4, 170880, Note_on_c, 2, 63, 105
4, 171072, Note_on_c, 2, 63, 0
4, 171120, Note_on_c, 2, 62, 105
4, 171312, Note_on_c, 2, 62, 0
4, 171360, Note_on_c, 2, 60, 105
4, 171552, Note_on_c, 2, 60, 0
4, 171600, Note_on_c, 2, 58, 105
4, 171792, Note_on_c, 2, 58, 0
4, 171840, Note_on_c, 2, 57, 105
4, 172032, Note_on_c, 2, 57, 0
4, 172080, Note_on_c, 2, 55, 105
4, 172272, Note_on_c, 2, 55, 0
4, 172320, Note_on_c, 2, 53, 105
4, 172512, Note_on_c, 2, 53, 0
4, 172560, Note_on_c, 2, 51, 105
4, 172752, Note_on_c, 2, 51, 0
4, 172800, Note_on_c, 2, 50, 105
4, 173136, Note_on_c, 2, 50, 0
4, 173280, Note_on_c, 2, 50, 105
4, 173616, Note_on_c, 2, 50, 0
4, 173760, Note_on_c, 2, 51, 105
4, 174096, Note_on_c, 2, 51, 0
4, 174240, Note_on_c, 2, 53, 105
4, 174576, Note_on_c, 2, 53, 0
4, 174720, Note_on_c, 2, 58, 105
4, 174912, Note_on_c, 2, 58, 0
4, 174960, Note_on_c, 2, 53, 105
4, 175152, Note_on_c, 2, 53, 0
4, 175200, Note_on_c, 2, 62, 105
4, 175392, Note_on_c, 2, 62, 0
4, 175440, Note_on_c, 2, 60, 105
4, 175632, Note_on_c, 2, 60, 0
4, 175680, Note_on_c, 2, 58, 105
4, 175872, Note_on_c, 2, 58, 0
4, 175920, Note_on_c, 2, 57, 105
4, 176112, Note_on_c, 2, 57, 0
4, 176160, Note_on_c, 2, 55, 105
4, 176352, Note_on_c, 2, 55, 0
4, 176400, Note_on_c, 2, 53, 105
4, 176592, Note_on_c, 2, 53, 0
4, 176640, Note_on_c, 2, 51, 105
4, 176832, Note_on_c, 2, 51, 0
4, 176880, Note_on_c, 2, 50, 105
4, 177072, Note_on_c, 2, 50, 0
4, 177120, Note_on_c, 2, 48, 105
4, 177312, Note_on_c, 2, 48, 0
4, 177360, Note_on_c, 2, 46, 105
4, 177552, Note_on_c, 2, 46, 0
4, 177600, Note_on_c, 2, 45, 105
4, 177792, Note_on_c, 2, 45, 0
4, 177840, Note_on_c, 2, 48, 105
4, 178032, Note_on_c, 2, 48, 0
4, 178080, Note_on_c, 2, 53, 105
4, 178272, Note_on_c, 2, 53, 0
4, 178320, Note_on_c, 2, 51, 105
4, 178512, Note_on_c, 2, 51, 0
4, 178560, Note_on_c, 2, 50, 105
4, 178896, Note_on_c, 2, 50, 0
4, 179040, Note_on_c, 2, 50, 105
4, 179376, Note_on_c, 2, 50, 0
4, 179520, Note_on_c, 2, 51, 105
4, 179856, Note_on_c, 2, 51, 0
4, 180000, Note_on_c, 2, 53, 105
4, 180336, Note_on_c, 2, 53, 0
4, 180480, Note_on_c, 2, 55, 105
4, 180816, Note_on_c, 2, 55, 0
4, 180960, Note_on_c, 2, 51, 105
4, 181296, Note_on_c, 2, 51, 0
4, 181440, Note_on_c, 2, 53, 105
4, 181776, Note_on_c, 2, 53, 0
4, 181920, Note_on_c, 2, 41, 105
4, 182256, Note_on_c, 2, 41, 0
4, 182400, Note_on_c, 2, 46, 105
4, 182760, Note_on_c, 2, 46, 0
4, 182880, Note_on_c, 2, 58, 105
4, 182880, Note_on_c, 2, 62, 105
4, 183060, Note_on_c, 2, 62, 0
4, 183060, Note_on_c, 2, 58, 0
4, 183120, Note_on_c, 2, 58, 105
4, 183120, Note_on_c, 2, 62, 105
4, 183300, Note_on_c, 2, 62, 0
4, 183300, Note_on_c, 2, 58, 0
4, 183360, Note_on_c, 2, 60, 105
4, 183360, Note_on_c, 2, 63, 105
4, 183720, Note_on_c, 2, 63, 0
4, 183720, Note_on_c, 2, 60, 0
4, 183840, Note_on_c, 2, 63, 105
4, 183840, Note_on_c, 2, 60, 105
4, 184020, Note_on_c, 2, 60, 0
4, 184020, Note_on_c, 2, 63, 0
4, 184080, Note_on_c, 2, 60, 105
4, 184080, Note_on_c, 2, 63, 105
4, 184260, Note_on_c, 2, 63, 0
4, 184260, Note_on_c, 2, 60, 0
4, 184320, Note_on_c, 2, 58, 105
4, 184320, Note_on_c, 2, 62, 105
4, 184680, Note_on_c, 2, 62, 0
4, 184680, Note_on_c, 2, 58, 0
4, 184800, Note_on_c, 2, 62, 105
4, 184800, Note_on_c, 2, 58, 105
4, 184980, Note_on_c, 2, 58, 0
4, 184980, Note_on_c, 2, 62, 0
4, 185040, Note_on_c, 2, 58, 105
4, 185040, Note_on_c, 2, 62, 105
4, 185220, Note_on_c, 2, 62, 0
4, 185220, Note_on_c, 2, 58, 0
4, 185280, Note_on_c, 2, 60, 105
4, 185280, Note_on_c, 2, 63, 105
4, 185640, Note_on_c, 2, 63, 0
4, 185640, Note_on_c, 2, 60, 0
4, 185760, Note_on_c, 2, 60, 105
4, 185760, Note_on_c, 2, 63, 105
4, 185940, Note_on_c, 2, 63, 0
4, 185940, Note_on_c, 2, 60, 0
4, 186000, Note_on_c, 2, 60, 105
4, 186000, Note_on_c, 2, 63, 105
4, 186180, Note_on_c, 2, 63, 0
4, 186180, Note_on_c, 2, 60, 0
4, 186240, Note_on_c, 2, 58, 105
4, 186240, Note_on_c, 2, 62, 105
4, 186600, Note_on_c, 2, 62, 0
4, 186600, Note_on_c, 2, 58, 0
4, 186720, Note_on_c, 2, 58, 105
4, 186720, Note_on_c, 2, 62, 105
4, 186900, Note_on_c, 2, 62, 0
4, 186900, Note_on_c, 2, 58, 0
4, 186960, Note_on_c, 2, 62, 105
4, 186960, Note_on_c, 2, 58, 105
4, 187140, Note_on_c, 2, 58, 0
4, 187140, Note_on_c, 2, 62, 0
4, 187200, Note_on_c, 2, 63, 105
4, 187200, Note_on_c, 2, 60, 105
4, 187560, Note_on_c, 2, 60, 0
4, 187560, Note_on_c, 2, 63, 0
4, 187680, Note_on_c, 2, 60, 105
4, 187680, Note_on_c, 2, 63, 105
4, 187860, Note_on_c, 2, 63, 0
4, 187860, Note_on_c, 2, 60, 0
4, 187920, Note_on_c, 2, 60, 105
4, 187920, Note_on_c, 2, 63, 105
4, 188100, Note_on_c, 2, 63, 0
4, 188100, Note_on_c, 2, 60, 0
4, 188160, Note_on_c, 2, 58, 105
4, 188160, Note_on_c, 2, 62, 105
4, 188520, Note_on_c, 2, 62, 0
4, 188520, Note_on_c, 2, 58, 0
4, 188640, Note_on_c, 2, 60, 105
4, 188640, Note_on_c, 2, 63, 105
4, 189000, Note_on_c, 2, 63, 0
4, 189000, Note_on_c, 2, 60, 0
4, 189120, Note_on_c, 2, 62, 105
4, 189120, Note_on_c, 2, 58, 105
4, 189480, Note_on_c, 2, 58, 0
4, 189480, Note_on_c, 2, 62, 0
4, 189600, Note_on_c, 2, 60, 105
4, 189600, Note_on_c, 2, 63, 105
4, 189960, Note_on_c, 2, 63, 0
4, 189960, Note_on_c, 2, 60, 0
4, 190080, Note_on_c, 2, 62, 105
4, 190080, Note_on_c, 2, 58, 105
4, 190464, Note_on_c, 2, 58, 0
4, 190464, Note_on_c, 2, 62, 0
4, 192000, Note_on_c, 2, 57, 105
4, 192384, Note_on_c, 2, 57, 0
4, 219360, Note_on_c, 2, 54, 105
4, 219840, Note_on_c, 2, 54, 0
4, 219840, Note_on_c, 2, 55, 70
4, 220320, Note_on_c, 2, 55, 0
4, 220320, Note_on_c, 2, 57, 70
4, 220800, Note_on_c, 2, 57, 0
4, 220800, Note_on_c, 2, 58, 70
4, 221280, Note_on_c, 2, 58, 0
4, 221280, Note_on_c, 2, 60, 70
4, 221520, Note_on_c, 2, 60, 0
4, 221520, Note_on_c, 2, 58, 70
4, 221760, Note_on_c, 2, 58, 0
4, 221760, Note_on_c, 2, 57, 70
4, 222240, Note_on_c, 2, 57, 0
4, 222240, Note_on_c, 2, 55, 70
4, 222696, Note_on_c, 2, 55, 0
4, 222720, Note_on_c, 2, 54, 70
4, 223104, Note_on_c, 2, 54, 0
4, 223680, Note_on_c, 2, 58, 105
4, 223680, Note_on_c, 2, 64, 105
4, 224640, Note_on_c, 2, 64, 0
4, 224640, Note_on_c, 2, 58, 0
4, 224640, Note_on_c, 2, 57, 105
4, 224640, Note_on_c, 2, 66, 105
4, 225024, Note_on_c, 2, 66, 0
4, 225024, Note_on_c, 2, 57, 0
4, 225600, Note_on_c, 2, 58, 105
4, 225600, Note_on_c, 2, 64, 105
4, 226560, Note_on_c, 2, 64, 0
4, 226560, Note_on_c, 2, 58, 0
4, 226560, Note_on_c, 2, 66, 105
4, 226560, Note_on_c, 2, 57, 105
4, 226944, Note_on_c, 2, 57, 0
4, 226944, Note_on_c, 2, 66, 0
4, 227520, Note_on_c, 2, 58, 105
4, 227520, Note_on_c, 2, 64, 105
4, 228480, Note_on_c, 2, 64, 0
4, 228480, Note_on_c, 2, 58, 0
4, 228480, Note_on_c, 2, 66, 105
4, 228480, Note_on_c, 2, 57, 105
4, 228768, Note_on_c, 2, 57, 0
4, 228768, Note_on_c, 2, 66, 0
4, 228960, Note_on_c, 2, 64, 105
4, 228960, Note_on_c, 2, 58, 105
4, 229248, Note_on_c, 2, 58, 0
4, 229248, Note_on_c, 2, 64, 0
4, 229440, Note_on_c, 2, 57, 105
4, 229440, Note_on_c, 2, 66, 105
4, 229728, Note_on_c, 2, 66, 0
4, 229728, Note_on_c, 2, 57, 0
4, 229920, Note_on_c, 2, 64, 105
4, 229920, Note_on_c, 2, 58, 105
4, 230208, Note_on_c, 2, 58, 0
4, 230208, Note_on_c, 2, 64, 0
4, 230400, Note_on_c, 2, 66, 105
4, 230400, Note_on_c, 2, 57, 105
4, 231360, Note_on_c, 2, 57, 0
4, 231360, Note_on_c, 2, 66, 0
4, 231360, Note_on_c, 2, 57, 70
4, 231360, Note_on_c, 2, 60, 70
4, 232320, Note_on_c, 2, 60, 0
4, 232320, Note_on_c, 2, 57, 0
4, 232320, Note_on_c, 2, 55, 70
4, 232320, Note_on_c, 2, 58, 70
4, 233280, Note_on_c, 2, 58, 0
4, 233280, Note_on_c, 2, 55, 0
4, 233280, Note_on_c, 2, 54, 70
4, 233280, Note_on_c, 2, 57, 70
4, 234240, Note_on_c, 2, 57, 0
4, 234240, Note_on_c, 2, 54, 0
4, 234240, Note_on_c, 2, 55, 70
4, 234240, Note_on_c, 2, 58, 70
4, 234624, Note_on_c, 2, 58, 0
4, 234624, Note_on_c, 2, 55, 0
4, 238080, Note_on_c, 2, 67, 58
4, 238080, Note_on_c, 2, 63, 58
4, 241824, Note_on_c, 2, 67, 0
4, 241920, Note_on_c, 2, 65, 70
4, 245664, Note_on_c, 2, 65, 0
4, 245664, Note_on_c, 2, 63, 0
4, 245760, Note_on_c, 2, 65, 70
4, 245760, Note_on_c, 2, 62, 70
4, 246144, Note_on_c, 2, 62, 0
4, 246144, Note_on_c, 2, 65, 0
4, 246240, Note_on_c, 2, 58, 105
4, 246432, Note_on_c, 2, 58, 0
4, 246480, Note_on_c, 2, 62, 105
4, 246672, Note_on_c, 2, 62, 0
4, 246720, Note_on_c, 2, 58, 105
4, 246912, Note_on_c, 2, 58, 0
4, 246960, Note_on_c, 2, 62, 105
4, 247152, Note_on_c, 2, 62, 0
4, 247200, Note_on_c, 2, 58, 105
4, 247392, Note_on_c, 2, 58, 0
4, 247440, Note_on_c, 2, 62, 105
4, 247632, Note_on_c, 2, 62, 0
4, 247680, Note_on_c, 2, 57, 105
4, 247872, Note_on_c, 2, 57, 0
4, 247920, Note_on_c, 2, 60, 105
4, 248112, Note_on_c, 2, 60, 0
4, 248160, Note_on_c, 2, 57, 105
4, 248352, Note_on_c, 2, 57, 0
4, 248400, Note_on_c, 2, 60, 105
4, 248592, Note_on_c, 2, 60, 0
4, 248640, Note_on_c, 2, 57, 105
4, 248832, Note_on_c, 2, 57, 0
4, 248880, Note_on_c, 2, 60, 105
4, 249072, Note_on_c, 2, 60, 0
4, 249120, Note_on_c, 2, 57, 105
4, 249312, Note_on_c, 2, 57, 0
4, 249360, Note_on_c, 2, 60, 105
4, 249552, Note_on_c, 2, 60, 0
4, 249600, Note_on_c, 2, 55, 105
4, 249792, Note_on_c, 2, 55, 0
4, 249840, Note_on_c, 2, 58, 105
4, 250032, Note_on_c, 2, 58, 0
4, 250080, Note_on_c, 2, 55, 105
4, 250272, Note_on_c, 2, 55, 0
4, 250320, Note_on_c, 2, 58, 105
4, 250512, Note_on_c, 2, 58, 0
4, 250560, Note_on_c, 2, 55, 105
4, 250752, Note_on_c, 2, 55, 0
4, 250800, Note_on_c, 2, 58, 105
4, 250992, Note_on_c, 2, 58, 0
4, 251040, Note_on_c, 2, 55, 105
4, 251232, Note_on_c, 2, 55, 0
4, 251280, Note_on_c, 2, 58, 105
4, 251472, Note_on_c, 2, 58, 0
4, 251520, Note_on_c, 2, 53, 105
4, 251712, Note_on_c, 2, 53, 0
4, 251760, Note_on_c, 2, 58, 105
4, 251952, Note_on_c, 2, 58, 0
4, 252000, Note_on_c, 2, 53, 105
4, 252192, Note_on_c, 2, 53, 0
4, 252240, Note_on_c, 2, 58, 105
4, 252432, Note_on_c, 2, 58, 0
4, 252480, Note_on_c, 2, 53, 105
4, 252672, Note_on_c, 2, 53, 0
4, 252720, Note_on_c, 2, 58, 105
4, 252912, Note_on_c, 2, 58, 0
4, 252960, Note_on_c, 2, 53, 105
4, 253152, Note_on_c, 2, 53, 0
4, 253200, Note_on_c, 2, 58, 105
4, 253392, Note_on_c, 2, 58, 0
4, 253440, Note_on_c, 2, 51, 105
4, 253632, Note_on_c, 2, 51, 0
4, 253680, Note_on_c, 2, 55, 105
4, 253872, Note_on_c, 2, 55, 0
4, 253920, Note_on_c, 2, 51, 105
4, 254112, Note_on_c, 2, 51, 0
4, 254160, Note_on_c, 2, 55, 105
4, 254352, Note_on_c, 2, 55, 0
4, 254400, Note_on_c, 2, 51, 105
4, 254592, Note_on_c, 2, 51, 0
4, 254640, Note_on_c, 2, 55, 105
4, 254832, Note_on_c, 2, 55, 0
4, 254880, Note_on_c, 2, 51, 105
4, 255072, Note_on_c, 2, 51, 0
4, 255120, Note_on_c, 2, 55, 105
4, 255312, Note_on_c, 2, 55, 0
4, 255360, Note_on_c, 2, 50, 105
4, 255552, Note_on_c, 2, 50, 0
4, 255600, Note_on_c, 2, 53, 105
4, 255792, Note_on_c, 2, 53, 0
4, 255840, Note_on_c, 2, 50, 105
4, 256032, Note_on_c, 2, 50, 0
4, 256080, Note_on_c, 2, 53, 105
4, 256272, Note_on_c, 2, 53, 0
4, 256320, Note_on_c, 2, 50, 105
4, 256512, Note_on_c, 2, 50, 0
4, 256560, Note_on_c, 2, 53, 105
4, 256752, Note_on_c, 2, 53, 0
4, 256800, Note_on_c, 2, 50, 105
4, 256992, Note_on_c, 2, 50, 0
4, 257040, Note_on_c, 2, 53, 105
4, 257232, Note_on_c, 2, 53, 0
4, 257280, Note_on_c, 2, 64, 112
4, 257280, Note_on_c, 2, 55, 92
4, 258816, Note_on_c, 2, 64, 0
4, 258960, Note_on_c, 2, 65, 92
4, 259152, Note_on_c, 2, 65, 0
4, 259152, Note_on_c, 2, 55, 0
4, 259200, Note_on_c, 2, 55, 92
4, 259200, Note_on_c, 2, 64, 112
4, 260736, Note_on_c, 2, 64, 0
4, 260880, Note_on_c, 2, 65, 92
4, 261072, Note_on_c, 2, 65, 0
4, 261072, Note_on_c, 2, 55, 0
4, 261120, Note_on_c, 2, 55, 92
4, 261120, Note_on_c, 2, 64, 112
4, 262656, Note_on_c, 2, 64, 0
4, 262800, Note_on_c, 2, 65, 92
4, 262992, Note_on_c, 2, 65, 0
4, 262992, Note_on_c, 2, 55, 0
4, 263040, Note_on_c, 2, 55, 92
4, 263040, Note_on_c, 2, 64, 112
4, 264576, Note_on_c, 2, 64, 0
4, 264576, Note_on_c, 2, 55, 0
4, 264960, Note_on_c, 2, 53, 92
4, 264960, Note_on_c, 2, 65, 92
4, 265140, Note_on_c, 2, 65, 0
4, 265140, Note_on_c, 2, 53, 0
4, 265200, Note_on_c, 2, 53, 105
4, 265380, Note_on_c, 2, 53, 0
4, 265440, Note_on_c, 2, 53, 105
4, 265620, Note_on_c, 2, 53, 0
4, 265680, Note_on_c, 2, 53, 105
4, 265860, Note_on_c, 2, 53, 0
4, 265920, Note_on_c, 2, 53, 105
4, 266100, Note_on_c, 2, 53, 0
4, 266160, Note_on_c, 2, 53, 105
4, 266340, Note_on_c, 2, 53, 0
4, 266400, Note_on_c, 2, 53, 105
4, 266580, Note_on_c, 2, 53, 0
4, 266640, Note_on_c, 2, 53, 105
4, 266820, Note_on_c, 2, 53, 0
4, 266880, Note_on_c, 2, 53, 105
4, 267060, Note_on_c, 2, 53, 0
4, 267120, Note_on_c, 2, 53, 105
4, 267300, Note_on_c, 2, 53, 0
4, 267360, Note_on_c, 2, 53, 105
4, 267540, Note_on_c, 2, 53, 0
4, 267600, Note_on_c, 2, 53, 105
4, 267780, Note_on_c, 2, 53, 0
4, 267840, Note_on_c, 2, 53, 105
4, 268020, Note_on_c, 2, 53, 0
4, 268080, Note_on_c, 2, 53, 105
4, 268260, Note_on_c, 2, 53, 0
4, 268320, Note_on_c, 2, 53, 105
4, 268500, Note_on_c, 2, 53, 0
4, 268560, Note_on_c, 2, 53, 105
4, 268740, Note_on_c, 2, 53, 0
4, 268800, Note_on_c, 2, 53, 105
4, 268980, Note_on_c, 2, 53, 0
4, 269040, Note_on_c, 2, 53, 105
4, 269220, Note_on_c, 2, 53, 0
4, 269280, Note_on_c, 2, 53, 105
4, 269460, Note_on_c, 2, 53, 0
4, 269520, Note_on_c, 2, 53, 105
4, 269700, Note_on_c, 2, 53, 0
4, 269760, Note_on_c, 2, 53, 105
4, 269940, Note_on_c, 2, 53, 0
4, 270000, Note_on_c, 2, 53, 105
4, 270180, Note_on_c, 2, 53, 0
4, 270240, Note_on_c, 2, 53, 105
4, 270420, Note_on_c, 2, 53, 0
4, 270480, Note_on_c, 2, 53, 105
4, 270660, Note_on_c, 2, 53, 0
4, 270720, Note_on_c, 2, 53, 105
4, 270900, Note_on_c, 2, 53, 0
4, 270960, Note_on_c, 2, 53, 105
4, 271140, Note_on_c, 2, 53, 0
4, 271200, Note_on_c, 2, 53, 105
4, 271380, Note_on_c, 2, 53, 0
4, 271440, Note_on_c, 2, 53, 105
4, 271620, Note_on_c, 2, 53, 0
4, 271680, Note_on_c, 2, 53, 105
4, 271860, Note_on_c, 2, 53, 0
4, 271920, Note_on_c, 2, 53, 105
4, 272100, Note_on_c, 2, 53, 0
4, 272160, Note_on_c, 2, 53, 105
4, 272340, Note_on_c, 2, 53, 0
4, 272400, Note_on_c, 2, 53, 105
4, 272580, Note_on_c, 2, 53, 0
4, 272640, Note_on_c, 2, 53, 105
4, 273024, Note_on_c, 2, 53, 0
4, 273600, Note_on_c, 2, 41, 92
4, 273984, Note_on_c, 2, 41, 0
4, 278400, Note_on_c, 2, 63, 70
4, 279840, Note_on_c, 2, 63, 0
4, 279840, Note_on_c, 2, 65, 70
4, 279960, Note_on_c, 2, 65, 0
4, 279960, Note_on_c, 2, 63, 70
4, 280080, Note_on_c, 2, 63, 0
4, 280080, Note_on_c, 2, 62, 70
4, 280200, Note_on_c, 2, 62, 0
4, 280200, Note_on_c, 2, 60, 70
4, 280320, Note_on_c, 2, 60, 0
4, 280320, Note_on_c, 2, 58, 70
4, 280704, Note_on_c, 2, 58, 0
4, 289920, Note_on_c, 2, 58, 70
4, 290160, Note_on_c, 2, 58, 0
4, 290160, Note_on_c, 2, 57, 70
4, 290400, Note_on_c, 2, 57, 0
4, 290400, Note_on_c, 2, 60, 70
4, 290640, Note_on_c, 2, 60, 0
4, 290640, Note_on_c, 2, 58, 70
4, 290880, Note_on_c, 2, 58, 0
4, 290880, Note_on_c, 2, 62, 70
4, 291120, Note_on_c, 2, 62, 0
4, 291120, Note_on_c, 2, 60, 70
4, 291360, Note_on_c, 2, 60, 0
4, 291360, Note_on_c, 2, 63, 70
4, 291600, Note_on_c, 2, 63, 0
4, 291600, Note_on_c, 2, 62, 70
4, 291792, Note_on_c, 2, 62, 0
4, 291840, Note_on_c, 2, 62, 70
4, 291840, Note_on_c, 2, 65, 70
4, 293280, Note_on_c, 2, 65, 0
4, 293280, Note_on_c, 2, 62, 0
4, 293280, Note_on_c, 2, 64, 70
4, 293280, Note_on_c, 2, 60, 70
4, 293760, Note_on_c, 2, 60, 0
4, 293760, Note_on_c, 2, 64, 0
4, 293760, Note_on_c, 2, 53, 70
4, 293760, Note_on_c, 2, 63, 70
4, 294144, Note_on_c, 2, 63, 0
4, 294144, Note_on_c, 2, 53, 0
4, 296160, Note_on_c, 2, 55, 70
4, 296160, Note_on_c, 2, 62, 70
4, 296472, Note_on_c, 2, 62, 0
4, 296472, Note_on_c, 2, 55, 0
4, 296640, Note_on_c, 2, 55, 70
4, 296640, Note_on_c, 2, 62, 70
4, 297120, Note_on_c, 2, 62, 0
4, 297120, Note_on_c, 2, 55, 0
4, 297120, Note_on_c, 2, 52, 70
4, 297120, Note_on_c, 2, 67, 70
4, 297504, Note_on_c, 2, 67, 0
4, 297504, Note_on_c, 2, 52, 0
4, 297600, Note_on_c, 2, 65, 70
4, 297600, Note_on_c, 2, 53, 70
4, 298560, Note_on_c, 2, 53, 0
4, 298560, Note_on_c, 2, 65, 0
4, 303840, Note_on_c, 2, 61, 58
4, 303840, Note_on_c, 2, 58, 58
4, 304800, Note_on_c, 2, 58, 0
4, 304800, Note_on_c, 2, 61, 0
4, 304800, Note_on_c, 2, 60, 58
4, 304800, Note_on_c, 2, 56, 58
4, 305184, Note_on_c, 2, 56, 0
4, 305184, Note_on_c, 2, 60, 0
4, 305760, Note_on_c, 2, 61, 58
4, 305760, Note_on_c, 2, 58, 58
4, 306720, Note_on_c, 2, 58, 0
4, 306720, Note_on_c, 2, 61, 0
4, 306720, Note_on_c, 2, 56, 58
4, 306720, Note_on_c, 2, 60, 58
4, 307104, Note_on_c, 2, 60, 0
4, 307104, Note_on_c, 2, 56, 0
4, 307680, Note_on_c, 2, 61, 58
4, 307680, Note_on_c, 2, 58, 58
4, 308640, Note_on_c, 2, 58, 0
4, 308640, Note_on_c, 2, 61, 0
4, 308640, Note_on_c, 2, 56, 58
4, 308640, Note_on_c, 2, 60, 58
4, 309024, Note_on_c, 2, 60, 0
4, 309024, Note_on_c, 2, 56, 0
4, 309600, Note_on_c, 2, 61, 58
4, 309600, Note_on_c, 2, 58, 58
4, 310560, Note_on_c, 2, 58, 0
4, 310560, Note_on_c, 2, 61, 0
4, 310560, Note_on_c, 2, 56, 58
4, 310560, Note_on_c, 2, 60, 58
4, 310944, Note_on_c, 2, 60, 0
4, 310944, Note_on_c, 2, 56, 0
4, 311040, Note_on_c, 2, 51, 58
4, 311232, Note_on_c, 2, 51, 0
4, 311280, Note_on_c, 2, 51, 73
4, 311472, Note_on_c, 2, 51, 0
4, 311520, Note_on_c, 2, 51, 76
4, 311712, Note_on_c, 2, 51, 0
4, 311760, Note_on_c, 2, 51, 79
4, 311952, Note_on_c, 2, 51, 0
4, 312000, Note_on_c, 2, 51, 82
4, 312192, Note_on_c, 2, 51, 0
4, 312240, Note_on_c, 2, 51, 85
4, 312432, Note_on_c, 2, 51, 0
4, 312480, Note_on_c, 2, 51, 88
4, 312672, Note_on_c, 2, 51, 0
4, 312720, Note_on_c, 2, 51, 92
4, 312912, Note_on_c, 2, 51, 0
4, 312960, Note_on_c, 2, 52, 95
4, 313152, Note_on_c, 2, 52, 0
4, 313200, Note_on_c, 2, 52, 98
4, 313392, Note_on_c, 2, 52, 0
4, 313440, Note_on_c, 2, 52, 101
4, 313632, Note_on_c, 2, 52, 0
4, 313680, Note_on_c, 2, 52, 104
4, 313872, Note_on_c, 2, 52, 0
4, 313920, Note_on_c, 2, 52, 107
4, 314112, Note_on_c, 2, 52, 0
4, 314160, Note_on_c, 2, 52, 109
4, 314352, Note_on_c, 2, 52, 0
4, 314400, Note_on_c, 2, 52, 109
4, 314592, Note_on_c, 2, 52, 0
4, 314640, Note_on_c, 2, 52, 109
4, 314832, Note_on_c, 2, 52, 0
4, 314880, Note_on_c, 2, 53, 109
4, 315072, Note_on_c, 2, 53, 0
4, 315120, Note_on_c, 2, 53, 105
4, 315312, Note_on_c, 2, 53, 0
4, 315360, Note_on_c, 2, 53, 105
4, 315552, Note_on_c, 2, 53, 0
4, 315600, Note_on_c, 2, 53, 105
4, 315792, Note_on_c, 2, 53, 0
4, 315840, Note_on_c, 2, 53, 105
4, 316032, Note_on_c, 2, 53, 0
4, 316080, Note_on_c, 2, 53, 105
4, 316272, Note_on_c, 2, 53, 0
4, 316320, Note_on_c, 2, 53, 105
4, 316512, Note_on_c, 2, 53, 0
4, 316560, Note_on_c, 2, 53, 105
4, 316752, Note_on_c, 2, 53, 0
4, 316800, Note_on_c, 2, 41, 105
4, 316992, Note_on_c, 2, 41, 0
4, 317040, Note_on_c, 2, 41, 105
4, 317232, Note_on_c, 2, 41, 0
4, 317280, Note_on_c, 2, 41, 105
4, 317472, Note_on_c, 2, 41, 0
4, 317520, Note_on_c, 2, 41, 105
4, 317712, Note_on_c, 2, 41, 0
4, 317760, Note_on_c, 2, 41, 105
4, 317952, Note_on_c, 2, 41, 0
4, 318000, Note_on_c, 2, 41, 105
4, 318192, Note_on_c, 2, 41, 0
4, 318240, Note_on_c, 2, 41, 105
4, 318432, Note_on_c, 2, 41, 0
4, 318480, Note_on_c, 2, 41, 105
4, 318672, Note_on_c, 2, 41, 0
4, 318720, Note_on_c, 2, 46, 92
4, 319104, Note_on_c, 2, 46, 0
4, 319200, Note_on_c, 2, 50, 125
4, 319968, Note_on_c, 2, 50, 0
4, 320160, Note_on_c, 2, 51, 105
4, 320448, Note_on_c, 2, 51, 0
4, 320640, Note_on_c, 2, 52, 105
4, 320928, Note_on_c, 2, 52, 0
4, 321120, Note_on_c, 2, 53, 105
4, 321408, Note_on_c, 2, 53, 0
4, 321600, Note_on_c, 2, 54, 105
4, 321888, Note_on_c, 2, 54, 0
4, 322080, Note_on_c, 2, 55, 105
4, 322368, Note_on_c, 2, 55, 0
4, 322560, Note_on_c, 2, 56, 105
4, 322944, Note_on_c, 2, 56, 0
4, 323520, Note_on_c, 2, 55, 105
4, 323904, Note_on_c, 2, 55, 0
4, 324480, Note_on_c, 2, 60, 105
4, 324480, Note_on_c, 2, 57, 105
4, 324864, Note_on_c, 2, 57, 0
4, 324864, Note_on_c, 2, 60, 0
4, 325440, Note_on_c, 2, 62, 105
4, 325440, Note_on_c, 2, 58, 105
4, 325824, Note_on_c, 2, 58, 0
4, 325824, Note_on_c, 2, 62, 0
4, 326400, Note_on_c, 2, 67, 105
4, 327504, Note_on_c, 2, 67, 0
4, 327600, Note_on_c, 2, 65, 70
4, 327744, Note_on_c, 2, 65, 0
4, 327840, Note_on_c, 2, 63, 70
4, 327984, Note_on_c, 2, 63, 0
4, 328080, Note_on_c, 2, 62, 70
4, 328224, Note_on_c, 2, 62, 0
4, 328320, Note_on_c, 2, 60, 70
4, 328464, Note_on_c, 2, 60, 0
4, 328560, Note_on_c, 2, 58, 70
4, 328704, Note_on_c, 2, 58, 0
4, 328800, Note_on_c, 2, 57, 70
4, 328944, Note_on_c, 2, 57, 0
4, 329040, Note_on_c, 2, 55, 70
4, 329184, Note_on_c, 2, 55, 0
4, 329280, Note_on_c, 2, 53, 70
4, 329424, Note_on_c, 2, 53, 0
4, 329520, Note_on_c, 2, 51, 70
4, 329664, Note_on_c, 2, 51, 0
4, 329760, Note_on_c, 2, 50, 70
4, 329904, Note_on_c, 2, 50, 0
4, 330000, Note_on_c, 2, 48, 70
4, 330144, Note_on_c, 2, 48, 0
4, 330240, Note_on_c, 2, 46, 70
4, 330624, Note_on_c, 2, 46, 0
4, 333600, Note_on_c, 2, 67, 70
4, 333840, Note_on_c, 2, 67, 0
4, 333840, Note_on_c, 2, 65, 80
4, 334032, Note_on_c, 2, 65, 0
4, 334080, Note_on_c, 2, 65, 80
4, 334464, Note_on_c, 2, 65, 0
4, 334560, Note_on_c, 2, 67, 80
4, 334800, Note_on_c, 2, 67, 0
4, 334800, Note_on_c, 2, 65, 80
4, 334992, Note_on_c, 2, 65, 0
4, 335040, Note_on_c, 2, 65, 80
4, 335424, Note_on_c, 2, 65, 0
4, 337440, Note_on_c, 2, 67, 80
4, 337680, Note_on_c, 2, 67, 0
4, 337680, Note_on_c, 2, 65, 80
4, 337872, Note_on_c, 2, 65, 0
4, 337920, Note_on_c, 2, 65, 80
4, 338304, Note_on_c, 2, 65, 0
4, 338400, Note_on_c, 2, 67, 80
4, 338640, Note_on_c, 2, 67, 0
4, 338640, Note_on_c, 2, 65, 80
4, 338832, Note_on_c, 2, 65, 0
4, 338880, Note_on_c, 2, 65, 80
4, 339264, Note_on_c, 2, 65, 0
4, 339840, Note_on_c, 2, 50, 105
4, 340032, Note_on_c, 2, 50, 0
4, 340080, Note_on_c, 2, 50, 105
4, 340272, Note_on_c, 2, 50, 0
4, 340320, Note_on_c, 2, 50, 105
4, 340512, Note_on_c, 2, 50, 0
4, 340560, Note_on_c, 2, 50, 105
4, 340752, Note_on_c, 2, 50, 0
4, 340800, Note_on_c, 2, 50, 105
4, 340992, Note_on_c, 2, 50, 0
4, 341040, Note_on_c, 2, 50, 105
4, 341232, Note_on_c, 2, 50, 0
4, 341280, Note_on_c, 2, 50, 105
4, 341472, Note_on_c, 2, 50, 0
4, 341520, Note_on_c, 2, 50, 105
4, 341712, Note_on_c, 2, 50, 0
4, 341760, Note_on_c, 2, 55, 105
4, 341952, Note_on_c, 2, 55, 0
4, 342000, Note_on_c, 2, 55, 105
4, 342192, Note_on_c, 2, 55, 0
4, 342240, Note_on_c, 2, 55, 105
4, 342432, Note_on_c, 2, 55, 0
4, 342480, Note_on_c, 2, 55, 105
4, 342672, Note_on_c, 2, 55, 0
4, 342720, Note_on_c, 2, 51, 105
4, 342912, Note_on_c, 2, 51, 0
4, 342960, Note_on_c, 2, 51, 105
4, 343152, Note_on_c, 2, 51, 0
4, 343200, Note_on_c, 2, 51, 105
4, 343392, Note_on_c, 2, 51, 0
4, 343440, Note_on_c, 2, 51, 105
4, 343632, Note_on_c, 2, 51, 0
4, 343680, Note_on_c, 2, 53, 105
4, 343872, Note_on_c, 2, 53, 0
4, 343920, Note_on_c, 2, 53, 105
4, 344112, Note_on_c, 2, 53, 0
4, 344160, Note_on_c, 2, 53, 105
4, 344352, Note_on_c, 2, 53, 0
4, 344400, Note_on_c, 2, 53, 105
4, 344592, Note_on_c, 2, 53, 0
4, 344640, Note_on_c, 2, 41, 105
4, 344832, Note_on_c, 2, 41, 0
4, 344880, Note_on_c, 2, 41, 105
4, 345072, Note_on_c, 2, 41, 0
4, 345120, Note_on_c, 2, 41, 105
4, 345312, Note_on_c, 2, 41, 0
4, 345360, Note_on_c, 2, 41, 105
4, 345552, Note_on_c, 2, 41, 0
4, 345600, Note_on_c, 2, 46, 92
4, 345984, Note_on_c, 2, 46, 0
4, 347040, Note_on_c, 2, 67, 80
4, 347280, Note_on_c, 2, 67, 0
4, 347280, Note_on_c, 2, 65, 80
4, 347472, Note_on_c, 2, 65, 0
4, 347520, Note_on_c, 2, 65, 80
4, 347904, Note_on_c, 2, 65, 0
4, 348000, Note_on_c, 2, 67, 80
4, 348240, Note_on_c, 2, 67, 0
4, 348240, Note_on_c, 2, 65, 80
4, 348432, Note_on_c, 2, 65, 0
4, 348480, Note_on_c, 2, 65, 80
4, 348864, Note_on_c, 2, 65, 0
4, 350880, Note_on_c, 2, 67, 80
4, 351120, Note_on_c, 2, 67, 0
4, 351120, Note_on_c, 2, 65, 80
4, 351312, Note_on_c, 2, 65, 0
4, 351360, Note_on_c, 2, 65, 80
4, 351744, Note_on_c, 2, 65, 0
4, 351840, Note_on_c, 2, 67, 80
4, 352080, Note_on_c, 2, 67, 0
4, 352080, Note_on_c, 2, 65, 80
4, 352272, Note_on_c, 2, 65, 0
4, 352320, Note_on_c, 2, 65, 80
4, 352704, Note_on_c, 2, 65, 0
4, 355200, Note_on_c, 2, 50, 80
4, 355392, Note_on_c, 2, 50, 0
4, 355440, Note_on_c, 2, 50, 105
4, 355632, Note_on_c, 2, 50, 0
4, 355680, Note_on_c, 2, 50, 105
4, 355872, Note_on_c, 2, 50, 0
4, 355920, Note_on_c, 2, 50, 105
4, 356112, Note_on_c, 2, 50, 0
4, 356160, Note_on_c, 2, 50, 105
4, 356352, Note_on_c, 2, 50, 0
4, 356400, Note_on_c, 2, 50, 105
4, 356592, Note_on_c, 2, 50, 0
4, 356640, Note_on_c, 2, 50, 105
4, 356832, Note_on_c, 2, 50, 0
4, 356880, Note_on_c, 2, 50, 105
4, 357072, Note_on_c, 2, 50, 0
4, 357120, Note_on_c, 2, 55, 105
4, 357312, Note_on_c, 2, 55, 0
4, 357360, Note_on_c, 2, 55, 105
4, 357552, Note_on_c, 2, 55, 0
4, 357600, Note_on_c, 2, 55, 105
4, 357792, Note_on_c, 2, 55, 0
4, 357840, Note_on_c, 2, 55, 105
4, 358032, Note_on_c, 2, 55, 0
4, 358080, Note_on_c, 2, 51, 105
4, 358272, Note_on_c, 2, 51, 0
4, 358320, Note_on_c, 2, 51, 105
4, 358512, Note_on_c, 2, 51, 0
4, 358560, Note_on_c, 2, 51, 105
4, 358752, Note_on_c, 2, 51, 0
4, 358800, Note_on_c, 2, 51, 105
4, 358992, Note_on_c, 2, 51, 0
4, 359040, Note_on_c, 2, 53, 105
4, 359232, Note_on_c, 2, 53, 0
4, 359280, Note_on_c, 2, 53, 105
4, 359472, Note_on_c, 2, 53, 0
4, 359520, Note_on_c, 2, 53, 105
4, 359712, Note_on_c, 2, 53, 0
4, 359760, Note_on_c, 2, 53, 105
4, 359952, Note_on_c, 2, 53, 0
4, 360000, Note_on_c, 2, 41, 105
4, 360192, Note_on_c, 2, 41, 0
4, 360240, Note_on_c, 2, 41, 105
4, 360432, Note_on_c, 2, 41, 0
4, 360480, Note_on_c, 2, 41, 105
4, 360672, Note_on_c, 2, 41, 0
4, 360720, Note_on_c, 2, 41, 105
4, 360912, Note_on_c, 2, 41, 0
4, 360960, Note_on_c, 2, 46, 105
4, 361728, Note_on_c, 2, 46, 0
4, 362640, Note_on_c, 2, 65, 105
4, 362832, Note_on_c, 2, 65, 0
4, 362880, Note_on_c, 2, 63, 105
4, 363072, Note_on_c, 2, 63, 0
4, 363120, Note_on_c, 2, 62, 105
4, 363312, Note_on_c, 2, 62, 0
4, 363360, Note_on_c, 2, 60, 105
4, 363552, Note_on_c, 2, 60, 0
4, 363600, Note_on_c, 2, 58, 105
4, 363792, Note_on_c, 2, 58, 0
4, 363840, Note_on_c, 2, 57, 105
4, 364032, Note_on_c, 2, 57, 0
4, 364080, Note_on_c, 2, 55, 105
4, 364272, Note_on_c, 2, 55, 0
4, 364320, Note_on_c, 2, 53, 105
4, 364512, Note_on_c, 2, 53, 0
4, 364560, Note_on_c, 2, 51, 105
4, 364752, Note_on_c, 2, 51, 0
4, 364800, Note_on_c, 2, 50, 105
4, 365136, Note_on_c, 2, 50, 0
4, 365280, Note_on_c, 2, 50, 105
4, 365616, Note_on_c, 2, 50, 0
4, 365760, Note_on_c, 2, 51, 105
4, 366096, Note_on_c, 2, 51, 0
4, 366240, Note_on_c, 2, 53, 105
4, 366576, Note_on_c, 2, 53, 0
4, 366720, Note_on_c, 2, 58, 105
4, 366912, Note_on_c, 2, 58, 0
4, 366960, Note_on_c, 2, 53, 105
4, 367152, Note_on_c, 2, 53, 0
4, 367200, Note_on_c, 2, 62, 105
4, 367392, Note_on_c, 2, 62, 0
4, 367440, Note_on_c, 2, 60, 105
4, 367632, Note_on_c, 2, 60, 0
4, 367680, Note_on_c, 2, 58, 105
4, 367872, Note_on_c, 2, 58, 0
4, 367920, Note_on_c, 2, 57, 105
4, 368112, Note_on_c, 2, 57, 0
4, 368160, Note_on_c, 2, 55, 105
4, 368352, Note_on_c, 2, 55, 0
4, 368400, Note_on_c, 2, 53, 105
4, 368592, Note_on_c, 2, 53, 0
4, 368640, Note_on_c, 2, 51, 105
4, 368832, Note_on_c, 2, 51, 0
4, 368880, Note_on_c, 2, 50, 105
4, 369072, Note_on_c, 2, 50, 0
4, 369120, Note_on_c, 2, 48, 105
4, 369312, Note_on_c, 2, 48, 0
4, 369360, Note_on_c, 2, 46, 105
4, 369552, Note_on_c, 2, 46, 0
4, 369600, Note_on_c, 2, 45, 105
4, 369792, Note_on_c, 2, 45, 0
4, 369840, Note_on_c, 2, 48, 105
4, 370032, Note_on_c, 2, 48, 0
4, 370080, Note_on_c, 2, 53, 105
4, 370272, Note_on_c, 2, 53, 0
4, 370320, Note_on_c, 2, 51, 105
4, 370512, Note_on_c, 2, 51, 0
4, 370560, Note_on_c, 2, 50, 105
4, 370896, Note_on_c, 2, 50, 0
4, 371040, Note_on_c, 2, 50, 105
4, 371376, Note_on_c, 2, 50, 0
4, 371520, Note_on_c, 2, 51, 105
4, 371856, Note_on_c, 2, 51, 0
4, 372000, Note_on_c, 2, 53, 105
4, 372336, Note_on_c, 2, 53, 0
4, 372480, Note_on_c, 2, 55, 105
4, 372816, Note_on_c, 2, 55, 0
4, 372960, Note_on_c, 2, 51, 105
4, 373296, Note_on_c, 2, 51, 0
4, 373440, Note_on_c, 2, 53, 105
4, 373776, Note_on_c, 2, 53, 0
4, 373920, Note_on_c, 2, 41, 105
4, 374256, Note_on_c, 2, 41, 0
4, 374400, Note_on_c, 2, 46, 105
4, 374760, Note_on_c, 2, 46, 0
4, 374880, Note_on_c, 2, 58, 105
4, 374880, Note_on_c, 2, 62, 105
4, 375060, Note_on_c, 2, 62, 0
4, 375060, Note_on_c, 2, 58, 0
4, 375120, Note_on_c, 2, 58, 105
4, 375120, Note_on_c, 2, 62, 105
4, 375300, Note_on_c, 2, 62, 0
4, 375300, Note_on_c, 2, 58, 0
4, 375360, Note_on_c, 2, 60, 105
4, 375360, Note_on_c, 2, 63, 105
4, 375720, Note_on_c, 2, 63, 0
4, 375720, Note_on_c, 2, 60, 0
4, 375840, Note_on_c, 2, 63, 105
4, 375840, Note_on_c, 2, 60, 105
4, 376020, Note_on_c, 2, 60, 0
4, 376020, Note_on_c, 2, 63, 0
4, 376080, Note_on_c, 2, 60, 105
4, 376080, Note_on_c, 2, 63, 105
4, 376260, Note_on_c, 2, 63, 0
4, 376260, Note_on_c, 2, 60, 0
4, 376320, Note_on_c, 2, 58, 105
4, 376320, Note_on_c, 2, 62, 105
4, 376680, Note_on_c, 2, 62, 0
4, 376680, Note_on_c, 2, 58, 0
4, 376800, Note_on_c, 2, 62, 105
4, 376800, Note_on_c, 2, 58, 105
4, 376980, Note_on_c, 2, 58, 0
4, 376980, Note_on_c, 2, 62, 0
4, 377040, Note_on_c, 2, 58, 105
4, 377040, Note_on_c, 2, 62, 105
4, 377220, Note_on_c, 2, 62, 0
4, 377220, Note_on_c, 2, 58, 0
4, 377280, Note_on_c, 2, 60, 105
4, 377280, Note_on_c, 2, 63, 105
4, 377640, Note_on_c, 2, 63, 0
4, 377640, Note_on_c, 2, 60, 0
4, 377760, Note_on_c, 2, 60, 105
4, 377760, Note_on_c, 2, 63, 105
4, 377940, Note_on_c, 2, 63, 0
4, 377940, Note_on_c, 2, 60, 0
4, 378000, Note_on_c, 2, 60, 105
4, 378000, Note_on_c, 2, 63, 105
4, 378180, Note_on_c, 2, 63, 0
4, 378180, Note_on_c, 2, 60, 0
4, 378240, Note_on_c, 2, 58, 105
4, 378240, Note_on_c, 2, 62, 105
4, 378600, Note_on_c, 2, 62, 0
4, 378600, Note_on_c, 2, 58, 0
4, 378720, Note_on_c, 2, 58, 105
4, 378720, Note_on_c, 2, 62, 105
4, 378900, Note_on_c, 2, 62, 0
4, 378900, Note_on_c, 2, 58, 0
4, 378960, Note_on_c, 2, 62, 105
4, 378960, Note_on_c, 2, 58, 105
4, 379140, Note_on_c, 2, 58, 0
4, 379140, Note_on_c, 2, 62, 0
4, 379200, Note_on_c, 2, 63, 105
4, 379200, Note_on_c, 2, 60, 105
4, 379560, Note_on_c, 2, 60, 0
4, 379560, Note_on_c, 2, 63, 0
4, 379680, Note_on_c, 2, 60, 105
4, 379680, Note_on_c, 2, 63, 105
4, 379860, Note_on_c, 2, 63, 0
4, 379860, Note_on_c, 2, 60, 0
4, 379920, Note_on_c, 2, 60, 105
4, 379920, Note_on_c, 2, 63, 105
4, 380100, Note_on_c, 2, 63, 0
4, 380100, Note_on_c, 2, 60, 0
4, 380160, Note_on_c, 2, 58, 105
4, 380160, Note_on_c, 2, 62, 105
4, 380520, Note_on_c, 2, 62, 0
4, 380520, Note_on_c, 2, 58, 0
4, 380640, Note_on_c, 2, 60, 105
4, 380640, Note_on_c, 2, 63, 105
4, 381000, Note_on_c, 2, 63, 0
4, 381000, Note_on_c, 2, 60, 0
4, 381120, Note_on_c, 2, 62, 105
4, 381120, Note_on_c, 2, 58, 105
4, 381480, Note_on_c, 2, 58, 0
4, 381480, Note_on_c, 2, 62, 0
4, 381600, Note_on_c, 2, 60, 105
4, 381600, Note_on_c, 2, 63, 105
4, 381960, Note_on_c, 2, 63, 0
4, 381960, Note_on_c, 2, 60, 0
4, 382080, Note_on_c, 2, 62, 105
4, 382080, Note_on_c, 2, 58, 105
4, 382464, Note_on_c, 2, 58, 0
4, 382464, Note_on_c, 2, 62, 0
4, 384000, Note_on_c, 2, 57, 105
4, 384384, Note_on_c, 2, 57, 0
4, 385920, Note_on_c, 2, 55, 105
4, 386304, Note_on_c, 2, 55, 0
4, 386880, Note_on_c, 2, 53, 105
4, 387264, Note_on_c, 2, 53, 0
4, 387840, Note_on_c, 2, 59, 70
4, 387840, Note_on_c, 2, 62, 70
4, 389760, Note_on_c, 2, 62, 0
4, 389760, Note_on_c, 2, 59, 0
4, 389760, Note_on_c, 2, 61, 70
4, 389760, Note_on_c, 2, 57, 70
4, 390720, Note_on_c, 2, 57, 0
4, 390720, Note_on_c, 2, 61, 0
4, 390720, Note_on_c, 2, 56, 70
4, 390720, Note_on_c, 2, 59, 70
4, 391680, Note_on_c, 2, 59, 0
4, 391680, Note_on_c, 2, 56, 0
4, 391680, Note_on_c, 2, 54, 70
4, 391680, Note_on_c, 2, 57, 70
4, 392640, Note_on_c, 2, 57, 0
4, 392640, Note_on_c, 2, 54, 0
4, 392640, Note_on_c, 2, 53, 70
4, 392640, Note_on_c, 2, 56, 70
4, 393600, Note_on_c, 2, 56, 0
4, 393600, Note_on_c, 2, 53, 0
4, 393600, Note_on_c, 2, 54, 70
4, 393984, Note_on_c, 2, 54, 0
4, 397440, Note_on_c, 2, 63, 58
4, 397440, Note_on_c, 2, 54, 58
4, 399360, Note_on_c, 2, 63, 0
4, 399360, Note_on_c, 2, 62, 70
4, 400896, Note_on_c, 2, 62, 0
4, 400896, Note_on_c, 2, 54, 0
4, 401280, Note_on_c, 2, 53, 70
4, 401280, Note_on_c, 2, 61, 70
4, 405120, Note_on_c, 2, 53, 0
4, 405120, Note_on_c, 2, 52, 70
4, 406944, Note_on_c, 2, 61, 0
4, 407040, Note_on_c, 2, 60, 70
4, 408864, Note_on_c, 2, 60, 0
4, 408864, Note_on_c, 2, 52, 0
4, 408960, Note_on_c, 2, 59, 70
4, 408960, Note_on_c, 2, 51, 70
4, 412248, Note_on_c, 2, 51, 0
4, 412248, Note_on_c, 2, 59, 0
4, 412320, Note_on_c, 2, 60, 70
4, 412560, Note_on_c, 2, 60, 0
4, 412560, Note_on_c, 2, 59, 105
4, 412752, Note_on_c, 2, 59, 0
4, 412800, Note_on_c, 2, 59, 105
4, 413184, Note_on_c, 2, 59, 0
4, 413280, Note_on_c, 2, 60, 105
4, 413520, Note_on_c, 2, 60, 0
4, 413520, Note_on_c, 2, 59, 105
4, 413712, Note_on_c, 2, 59, 0
4, 413760, Note_on_c, 2, 59, 105
4, 414144, Note_on_c, 2, 59, 0
4, 414240, Note_on_c, 2, 60, 105
4, 414480, Note_on_c, 2, 60, 0
4, 414480, Note_on_c, 2, 59, 105
4, 414672, Note_on_c, 2, 59, 0
4, 414720, Note_on_c, 2, 59, 105
4, 415200, Note_on_c, 2, 59, 0
4, 415200, Note_on_c, 2, 67, 105
4, 415584, Note_on_c, 2, 67, 0
4, 416160, Note_on_c, 2, 67, 105
4, 416400, Note_on_c, 2, 67, 0
4, 416400, Note_on_c, 2, 66, 105
4, 416592, Note_on_c, 2, 66, 0
4, 416640, Note_on_c, 2, 64, 105
4, 417024, Note_on_c, 2, 64, 0
4, 417120, Note_on_c, 2, 64, 105
4, 417360, Note_on_c, 2, 64, 0
4, 417360, Note_on_c, 2, 62, 105
4, 417552, Note_on_c, 2, 62, 0
4, 417600, Note_on_c, 2, 60, 105
4, 417984, Note_on_c, 2, 60, 0
4, 418080, Note_on_c, 2, 60, 105
4, 418320, Note_on_c, 2, 60, 0
4, 418320, Note_on_c, 2, 59, 105
4, 418512, Note_on_c, 2, 59, 0
4, 418560, Note_on_c, 2, 57, 105
4, 418704, Note_on_c, 2, 57, 0
4, 418800, Note_on_c, 2, 59, 105
4, 418944, Note_on_c, 2, 59, 0
4, 419040, Note_on_c, 2, 60, 105
4, 419184, Note_on_c, 2, 60, 0
4, 419280, Note_on_c, 2, 59, 105
4, 419424, Note_on_c, 2, 59, 0
4, 419520, Note_on_c, 2, 57, 105
4, 419664, Note_on_c, 2, 57, 0
4, 419760, Note_on_c, 2, 58, 105
4, 419904, Note_on_c, 2, 58, 0
4, 420000, Note_on_c, 2, 55, 105
4, 420144, Note_on_c, 2, 55, 0
4, 420240, Note_on_c, 2, 57, 105
4, 420384, Note_on_c, 2, 57, 0
4, 420480, Note_on_c, 2, 53, 105
4, 420624, Note_on_c, 2, 53, 0
4, 420720, Note_on_c, 2, 57, 105
4, 420864, Note_on_c, 2, 57, 0
4, 420960, Note_on_c, 2, 62, 105
4, 421104, Note_on_c, 2, 62, 0
4, 421200, Note_on_c, 2, 53, 105
4, 421344, Note_on_c, 2, 53, 0
4, 421440, Note_on_c, 2, 52, 105
4, 421584, Note_on_c, 2, 52, 0
4, 421680, Note_on_c, 2, 55, 105
4, 421824, Note_on_c, 2, 55, 0
4, 421920, Note_on_c, 2, 61, 105
4, 422064, Note_on_c, 2, 61, 0
4, 422160, Note_on_c, 2, 52, 105
4, 422304, Note_on_c, 2, 52, 0
4, 422400, Note_on_c, 2, 50, 105
4, 422544, Note_on_c, 2, 50, 0
4, 422640, Note_on_c, 2, 45, 105
4, 422784, Note_on_c, 2, 45, 0
4, 422880, Note_on_c, 2, 47, 105
4, 423024, Note_on_c, 2, 47, 0
4, 423120, Note_on_c, 2, 49, 105
4, 423264, Note_on_c, 2, 49, 0
4, 423360, Note_on_c, 2, 50, 105
4, 423504, Note_on_c, 2, 50, 0
4, 423600, Note_on_c, 2, 45, 105
4, 423744, Note_on_c, 2, 45, 0
4, 423840, Note_on_c, 2, 50, 105
4, 423984, Note_on_c, 2, 50, 0
4, 424080, Note_on_c, 2, 52, 105
4, 424224, Note_on_c, 2, 52, 0
4, 424320, Note_on_c, 2, 53, 105
4, 424464, Note_on_c, 2, 53, 0
4, 424560, Note_on_c, 2, 50, 105
4, 424704, Note_on_c, 2, 50, 0
4, 424800, Note_on_c, 2, 52, 105
4, 424944, Note_on_c, 2, 52, 0
4, 425040, Note_on_c, 2, 54, 105
4, 425184, Note_on_c, 2, 54, 0
4, 425280, Note_on_c, 2, 55, 105
4, 425424, Note_on_c, 2, 55, 0
4, 425520, Note_on_c, 2, 50, 105
4, 425664, Note_on_c, 2, 50, 0
4, 425760, Note_on_c, 2, 54, 105
4, 425904, Note_on_c, 2, 54, 0
4, 426000, Note_on_c, 2, 57, 105
4, 426144, Note_on_c, 2, 57, 0
4, 426240, Note_on_c, 2, 58, 105
4, 426624, Note_on_c, 2, 58, 0
4, 426720, Note_on_c, 2, 43, 105
4, 427104, Note_on_c, 2, 43, 0
4, 427680, Note_on_c, 2, 57, 105
4, 427920, Note_on_c, 2, 57, 0
4, 427920, Note_on_c, 2, 55, 105
4, 428112, Note_on_c, 2, 55, 0
4, 428160, Note_on_c, 2, 55, 105
4, 428544, Note_on_c, 2, 55, 0
4, 428640, Note_on_c, 2, 57, 105
4, 428880, Note_on_c, 2, 57, 0
4, 428880, Note_on_c, 2, 55, 105
4, 429072, Note_on_c, 2, 55, 0
4, 429120, Note_on_c, 2, 55, 105
4, 429504, Note_on_c, 2, 55, 0
4, 429600, Note_on_c, 2, 57, 105
4, 429840, Note_on_c, 2, 57, 0
4, 429840, Note_on_c, 2, 55, 105
4, 430032, Note_on_c, 2, 55, 0
4, 430080, Note_on_c, 2, 55, 105
4, 430560, Note_on_c, 2, 55, 0
4, 430560, Note_on_c, 2, 64, 105
4, 430944, Note_on_c, 2, 64, 0
4, 431520, Note_on_c, 2, 64, 105
4, 431760, Note_on_c, 2, 64, 0
4, 431760, Note_on_c, 2, 62, 105
4, 431952, Note_on_c, 2, 62, 0
4, 432000, Note_on_c, 2, 60, 105
4, 432384, Note_on_c, 2, 60, 0
4, 432480, Note_on_c, 2, 60, 105
4, 432720, Note_on_c, 2, 60, 0
4, 432720, Note_on_c, 2, 58, 105
4, 432912, Note_on_c, 2, 58, 0
4, 432960, Note_on_c, 2, 57, 105
4, 433344, Note_on_c, 2, 57, 0
4, 433440, Note_on_c, 2, 57, 105
4, 433680, Note_on_c, 2, 57, 0
4, 433680, Note_on_c, 2, 55, 105
4, 433872, Note_on_c, 2, 55, 0
4, 433920, Note_on_c, 2, 53, 105
4, 434064, Note_on_c, 2, 53, 0
4, 434160, Note_on_c, 2, 55, 105
4, 434304, Note_on_c, 2, 55, 0
4, 434400, Note_on_c, 2, 57, 105
4, 434544, Note_on_c, 2, 57, 0
4, 434640, Note_on_c, 2, 55, 105
4, 434784, Note_on_c, 2, 55, 0
4, 434880, Note_on_c, 2, 53, 105
4, 435024, Note_on_c, 2, 53, 0
4, 435120, Note_on_c, 2, 55, 105
4, 435264, Note_on_c, 2, 55, 0
4, 435360, Note_on_c, 2, 51, 105
4, 435504, Note_on_c, 2, 51, 0
4, 435600, Note_on_c, 2, 53, 105
4, 435744, Note_on_c, 2, 53, 0
4, 435840, Note_on_c, 2, 50, 105
4, 435984, Note_on_c, 2, 50, 0
4, 436080, Note_on_c, 2, 53, 105
4, 436224, Note_on_c, 2, 53, 0
4, 436320, Note_on_c, 2, 58, 105
4, 436464, Note_on_c, 2, 58, 0
4, 436560, Note_on_c, 2, 50, 105
4, 436704, Note_on_c, 2, 50, 0
4, 436800, Note_on_c, 2, 48, 105
4, 436944, Note_on_c, 2, 48, 0
4, 437040, Note_on_c, 2, 51, 105
4, 437184, Note_on_c, 2, 51, 0
4, 437280, Note_on_c, 2, 57, 105
4, 437424, Note_on_c, 2, 57, 0
4, 437520, Note_on_c, 2, 48, 105
4, 437664, Note_on_c, 2, 48, 0
4, 437760, Note_on_c, 2, 46, 105
4, 437904, Note_on_c, 2, 46, 0
4, 438000, Note_on_c, 2, 41, 105
4, 438144, Note_on_c, 2, 41, 0
4, 438240, Note_on_c, 2, 43, 105
4, 438384, Note_on_c, 2, 43, 0
4, 438480, Note_on_c, 2, 45, 105
4, 438624, Note_on_c, 2, 45, 0
4, 438720, Note_on_c, 2, 46, 105
4, 438864, Note_on_c, 2, 46, 0
4, 438960, Note_on_c, 2, 45, 105
4, 439104, Note_on_c, 2, 45, 0
4, 439200, Note_on_c, 2, 46, 105
4, 439344, Note_on_c, 2, 46, 0
4, 439440, Note_on_c, 2, 48, 105
4, 439584, Note_on_c, 2, 48, 0
4, 439680, Note_on_c, 2, 50, 105
4, 439824, Note_on_c, 2, 50, 0
4, 439920, Note_on_c, 2, 46, 105
4, 440064, Note_on_c, 2, 46, 0
4, 440160, Note_on_c, 2, 48, 105
4, 440304, Note_on_c, 2, 48, 0
4, 440400, Note_on_c, 2, 50, 105
4, 440544, Note_on_c, 2, 50, 0
4, 440640, Note_on_c, 2, 51, 105
4, 440784, Note_on_c, 2, 51, 0
4, 440880, Note_on_c, 2, 50, 105
4, 441024, Note_on_c, 2, 50, 0
4, 441120, Note_on_c, 2, 51, 105
4, 441264, Note_on_c, 2, 51, 0
4, 441360, Note_on_c, 2, 53, 105
4, 441504, Note_on_c, 2, 53, 0
4, 441600, Note_on_c, 2, 55, 105
4, 441744, Note_on_c, 2, 55, 0
4, 441840, Note_on_c, 2, 51, 105
4, 441984, Note_on_c, 2, 51, 0
4, 442080, Note_on_c, 2, 53, 105
4, 442224, Note_on_c, 2, 53, 0
4, 442320, Note_on_c, 2, 55, 105
4, 442464, Note_on_c, 2, 55, 0
4, 442560, Note_on_c, 2, 57, 105
4, 442704, Note_on_c, 2, 57, 0
4, 442800, Note_on_c, 2, 55, 105
4, 442944, Note_on_c, 2, 55, 0
4, 443040, Note_on_c, 2, 57, 105
4, 443184, Note_on_c, 2, 57, 0
4, 443280, Note_on_c, 2, 58, 105
4, 443424, Note_on_c, 2, 58, 0
4, 443520, Note_on_c, 2, 60, 105
4, 443664, Note_on_c, 2, 60, 0
4, 443760, Note_on_c, 2, 57, 105
4, 443904, Note_on_c, 2, 57, 0
4, 444000, Note_on_c, 2, 58, 105
4, 444144, Note_on_c, 2, 58, 0
4, 444240, Note_on_c, 2, 60, 105
4, 444384, Note_on_c, 2, 60, 0
4, 444480, Note_on_c, 2, 62, 105
4, 444624, Note_on_c, 2, 62, 0
4, 444720, Note_on_c, 2, 61, 105
4, 444864, Note_on_c, 2, 61, 0
4, 444960, Note_on_c, 2, 62, 105
4, 445104, Note_on_c, 2, 62, 0
4, 445200, Note_on_c, 2, 64, 105
4, 445344, Note_on_c, 2, 64, 0
4, 445440, Note_on_c, 2, 66, 105
4, 445584, Note_on_c, 2, 66, 0
4, 445680, Note_on_c, 2, 62, 105
4, 445824, Note_on_c, 2, 62, 0
4, 445920, Note_on_c, 2, 64, 105
4, 446064, Note_on_c, 2, 64, 0
4, 446160, Note_on_c, 2, 66, 105
4, 446304, Note_on_c, 2, 66, 0
4, 446400, Note_on_c, 2, 67, 105
4, 446544, Note_on_c, 2, 67, 0
4, 446640, Note_on_c, 2, 63, 105
4, 446784, Note_on_c, 2, 63, 0
4, 446880, Note_on_c, 2, 62, 105
4, 447024, Note_on_c, 2, 62, 0
4, 447120, Note_on_c, 2, 60, 105
4, 447264, Note_on_c, 2, 60, 0
4, 447360, Note_on_c, 2, 58, 92
4, 447504, Note_on_c, 2, 58, 0
4, 447600, Note_on_c, 2, 60, 92
4, 447744, Note_on_c, 2, 60, 0
4, 447840, Note_on_c, 2, 58, 92
4, 447984, Note_on_c, 2, 58, 0
4, 448080, Note_on_c, 2, 57, 92
4, 448224, Note_on_c, 2, 57, 0
4, 448320, Note_on_c, 2, 55, 92
4, 448464, Note_on_c, 2, 55, 0
4, 448560, Note_on_c, 2, 53, 92
4, 448704, Note_on_c, 2, 53, 0
4, 448800, Note_on_c, 2, 55, 92
4, 448944, Note_on_c, 2, 55, 0
4, 449040, Note_on_c, 2, 56, 92
4, 449184, Note_on_c, 2, 56, 0
4, 449280, Note_on_c, 2, 57, 92
4, 449472, Note_on_c, 2, 57, 0
4, 449520, Note_on_c, 2, 57, 92
4, 449712, Note_on_c, 2, 57, 0
4, 449760, Note_on_c, 2, 57, 92
4, 449952, Note_on_c, 2, 57, 0
4, 450000, Note_on_c, 2, 57, 92
4, 450192, Note_on_c, 2, 57, 0
4, 450240, Note_on_c, 2, 57, 92
4, 450432, Note_on_c, 2, 57, 0
4, 450480, Note_on_c, 2, 57, 92
4, 450672, Note_on_c, 2, 57, 0
4, 450720, Note_on_c, 2, 57, 92
4, 450912, Note_on_c, 2, 57, 0
4, 450960, Note_on_c, 2, 57, 92
4, 451152, Note_on_c, 2, 57, 0
4, 451200, Note_on_c, 2, 57, 92
4, 451392, Note_on_c, 2, 57, 0
4, 451440, Note_on_c, 2, 57, 92
4, 451632, Note_on_c, 2, 57, 0
4, 451680, Note_on_c, 2, 57, 92
4, 451872, Note_on_c, 2, 57, 0
4, 451920, Note_on_c, 2, 57, 92
4, 452112, Note_on_c, 2, 57, 0
4, 452160, Note_on_c, 2, 57, 92
4, 452352, Note_on_c, 2, 57, 0
4, 452400, Note_on_c, 2, 57, 92
4, 452592, Note_on_c, 2, 57, 0
4, 452640, Note_on_c, 2, 57, 92
4, 452832, Note_on_c, 2, 57, 0
4, 452880, Note_on_c, 2, 57, 92
4, 453072, Note_on_c, 2, 57, 0
4, 453120, Note_on_c, 2, 57, 92
4, 453312, Note_on_c, 2, 57, 0
4, 453360, Note_on_c, 2, 57, 92
4, 453552, Note_on_c, 2, 57, 0
4, 453600, Note_on_c, 2, 57, 92
4, 453792, Note_on_c, 2, 57, 0
4, 453840, Note_on_c, 2, 57, 92
4, 454032, Note_on_c, 2, 57, 0
4, 454080, Note_on_c, 2, 57, 92
4, 454272, Note_on_c, 2, 57, 0
4, 454320, Note_on_c, 2, 57, 92
4, 454512, Note_on_c, 2, 57, 0
4, 454560, Note_on_c, 2, 57, 92
4, 454752, Note_on_c, 2, 57, 0
4, 454800, Note_on_c, 2, 57, 92
4, 454992, Note_on_c, 2, 57, 0
4, 455040, Note_on_c, 2, 57, 92
4, 455232, Note_on_c, 2, 57, 0
4, 455280, Note_on_c, 2, 57, 92
4, 455472, Note_on_c, 2, 57, 0
4, 455520, Note_on_c, 2, 57, 92
4, 455712, Note_on_c, 2, 57, 0
4, 455760, Note_on_c, 2, 57, 92
4, 455952, Note_on_c, 2, 57, 0
4, 456000, Note_on_c, 2, 57, 92
4, 456192, Note_on_c, 2, 57, 0
4, 456240, Note_on_c, 2, 57, 92
4, 456432, Note_on_c, 2, 57, 0
4, 456480, Note_on_c, 2, 57, 92
4, 456672, Note_on_c, 2, 57, 0
4, 456720, Note_on_c, 2, 57, 92
4, 456912, Note_on_c, 2, 57, 0
4, 456960, Note_on_c, 2, 57, 92
4, 457728, Note_on_c, 2, 57, 0
4, 460800, Note_on_c, 2, 65, 58
4, 466464, Note_on_c, 2, 65, 0
4, 466560, Note_on_c, 2, 67, 58
4, 473472, Note_on_c, 2, 67, 0
4, 476640, Note_on_c, 2, 65, 70
4, 476880, Note_on_c, 2, 65, 0
4, 476880, Note_on_c, 2, 66, 70
4, 477072, Note_on_c, 2, 66, 0
4, 477120, Note_on_c, 2, 66, 70
4, 477504, Note_on_c, 2, 66, 0
4, 480480, Note_on_c, 2, 67, 70
4, 480720, Note_on_c, 2, 67, 0
4, 480720, Note_on_c, 2, 66, 70
4, 480912, Note_on_c, 2, 66, 0
4, 480960, Note_on_c, 2, 66, 70
4, 481344, Note_on_c, 2, 66, 0
4, 484320, Note_on_c, 2, 63, 70
4, 484560, Note_on_c, 2, 63, 0
4, 484560, Note_on_c, 2, 62, 58
4, 484752, Note_on_c, 2, 62, 0
4, 484800, Note_on_c, 2, 62, 58
4, 485184, Note_on_c, 2, 62, 0
4, 485760, Note_on_c, 2, 63, 58
4, 485760, Note_on_c, 2, 60, 58
4, 486240, Note_on_c, 2, 60, 0
4, 486240, Note_on_c, 2, 63, 0
4, 486240, Note_on_c, 2, 57, 105
4, 486240, Note_on_c, 2, 60, 105
4, 486720, Note_on_c, 2, 60, 0
4, 486720, Note_on_c, 2, 57, 0
4, 486720, Note_on_c, 2, 57, 105
4, 486720, Note_on_c, 2, 54, 105
4, 487104, Note_on_c, 2, 54, 0
4, 487104, Note_on_c, 2, 57, 0
4, 487680, Note_on_c, 2, 58, 105
4, 487680, Note_on_c, 2, 62, 105
4, 488160, Note_on_c, 2, 62, 0
4, 488160, Note_on_c, 2, 58, 0
4, 488160, Note_on_c, 2, 58, 105
4, 488160, Note_on_c, 2, 55, 105
4, 488640, Note_on_c, 2, 55, 0
4, 488640, Note_on_c, 2, 58, 0
4, 488640, Note_on_c, 2, 50, 105
4, 488640, Note_on_c, 2, 55, 105
4, 489024, Note_on_c, 2, 55, 0
4, 489024, Note_on_c, 2, 50, 0
4, 489600, Note_on_c, 2, 52, 105
4, 489600, Note_on_c, 2, 55, 105
4, 490080, Note_on_c, 2, 55, 0
4, 490080, Note_on_c, 2, 52, 0
4, 490080, Note_on_c, 2, 58, 105
4, 490080, Note_on_c, 2, 55, 105
4, 490560, Note_on_c, 2, 55, 0
4, 490560, Note_on_c, 2, 58, 0
4, 490560, Note_on_c, 2, 58, 105
4, 490560, Note_on_c, 2, 64, 105
4, 490944, Note_on_c, 2, 64, 0
4, 490944, Note_on_c, 2, 58, 0
4, 491520, Note_on_c, 2, 57, 105
4, 491520, Note_on_c, 2, 54, 105
4, 492000, Note_on_c, 2, 54, 0
4, 492000, Note_on_c, 2, 57, 0
4, 492000, Note_on_c, 2, 57, 105
4, 492000, Note_on_c, 2, 62, 105
4, 492480, Note_on_c, 2, 62, 0
4, 492480, Note_on_c, 2, 57, 0
4, 492480, Note_on_c, 2, 66, 105
4, 492480, Note_on_c, 2, 62, 105
4, 492864, Note_on_c, 2, 62, 0
4, 492864, Note_on_c, 2, 66, 0
4, 493440, Note_on_c, 2, 57, 105
4, 493440, Note_on_c, 2, 60, 105
4, 493920, Note_on_c, 2, 60, 0
4, 493920, Note_on_c, 2, 57, 0
4, 493920, Note_on_c, 2, 57, 105
4, 493920, Note_on_c, 2, 54, 105
4, 494400, Note_on_c, 2, 54, 0
4, 494400, Note_on_c, 2, 57, 0
4, 494400, Note_on_c, 2, 50, 105
4, 494400, Note_on_c, 2, 54, 105
4, 494784, Note_on_c, 2, 54, 0
4, 494784, Note_on_c, 2, 50, 0
4, 495360, Note_on_c, 2, 62, 105
4, 495360, Note_on_c, 2, 58, 105
4, 495840, Note_on_c, 2, 58, 0
4, 495840, Note_on_c, 2, 62, 0
4, 495840, Note_on_c, 2, 58, 105
4, 495840, Note_on_c, 2, 55, 105
4, 496320, Note_on_c, 2, 55, 0
4, 496320, Note_on_c, 2, 58, 0
4, 496320, Note_on_c, 2, 55, 105
4, 496320, Note_on_c, 2, 50, 105
4, 496704, Note_on_c, 2, 50, 0
4, 496704, Note_on_c, 2, 55, 0
4, 499200, Note_on_c, 2, 50, 70
4, 499200, Note_on_c, 2, 62, 70
4, 500986, Note_on_c, 2, 62, 0
4, 500986, Note_on_c, 2, 50, 0
4, 501120, Note_on_c, 2, 50, 70
4, 501120, Note_on_c, 2, 62, 70
4, 502906, Note_on_c, 2, 62, 0
4, 502906, Note_on_c, 2, 50, 0
4, 503040, Note_on_c, 2, 50, 70
4, 503040, Note_on_c, 2, 62, 70
4, 504826, Note_on_c, 2, 62, 0
4, 504826, Note_on_c, 2, 50, 0
4, 504960, Note_on_c, 2, 50, 70
4, 504960, Note_on_c, 2, 62, 70
4, 507648, Note_on_c, 2, 62, 0
4, 507648, Note_on_c, 2, 50, 0
4, 507840, Note_on_c, 2, 58, 70
4, 507840, Note_on_c, 2, 67, 70
4, 508800, Note_on_c, 2, 58, 0
4, 508800, Note_on_c, 2, 57, 58
4, 509760, Note_on_c, 2, 67, 0
4, 509760, Note_on_c, 2, 66, 58
4, 510720, Note_on_c, 2, 66, 0
4, 510720, Note_on_c, 2, 57, 0
4, 510720, Note_on_c, 2, 55, 58
4, 510720, Note_on_c, 2, 67, 58
4, 511104, Note_on_c, 2, 67, 0
4, 511104, Note_on_c, 2, 55, 0
4, 514560, Note_on_c, 2, 63, 58
4, 518304, Note_on_c, 2, 63, 0
4, 518400, Note_on_c, 2, 62, 70
4, 519312, Note_on_c, 2, 62, 0
4, 519360, Note_on_c, 2, 60, 70
4, 520272, Note_on_c, 2, 60, 0
4, 520320, Note_on_c, 2, 57, 70
4, 521232, Note_on_c, 2, 57, 0
4, 521280, Note_on_c, 2, 54, 70
4, 522192, Note_on_c, 2, 54, 0
4, 522240, Note_on_c, 2, 55, 70
4, 522624, Note_on_c, 2, 55, 0
4, 532320, Note_on_c, 2, 54, 70
4, 532800, Note_on_c, 2, 54, 0
4, 532800, Note_on_c, 2, 55, 70
4, 533280, Note_on_c, 2, 55, 0
4, 533280, Note_on_c, 2, 57, 70
4, 533760, Note_on_c, 2, 57, 0
4, 533760, Note_on_c, 2, 58, 70
4, 534240, Note_on_c, 2, 58, 0
4, 534240, Note_on_c, 2, 60, 70
4, 534480, Note_on_c, 2, 60, 0
4, 534480, Note_on_c, 2, 58, 70
4, 534720, Note_on_c, 2, 58, 0
4, 534720, Note_on_c, 2, 57, 70
4, 535200, Note_on_c, 2, 57, 0
4, 535200, Note_on_c, 2, 55, 70
4, 535680, Note_on_c, 2, 55, 0
4, 535680, Note_on_c, 2, 54, 70
4, 536064, Note_on_c, 2, 54, 0
4, 536640, Note_on_c, 2, 58, 105
4, 536640, Note_on_c, 2, 64, 105
4, 537600, Note_on_c, 2, 64, 0
4, 537600, Note_on_c, 2, 58, 0
4, 537600, Note_on_c, 2, 57, 105
4, 537600, Note_on_c, 2, 66, 105
4, 537984, Note_on_c, 2, 66, 0
4, 537984, Note_on_c, 2, 57, 0
4, 538560, Note_on_c, 2, 64, 105
4, 538560, Note_on_c, 2, 58, 105
4, 539520, Note_on_c, 2, 58, 0
4, 539520, Note_on_c, 2, 64, 0
4, 539520, Note_on_c, 2, 57, 105
4, 539520, Note_on_c, 2, 66, 105
4, 539904, Note_on_c, 2, 66, 0
4, 539904, Note_on_c, 2, 57, 0
4, 540480, Note_on_c, 2, 58, 105
4, 540480, Note_on_c, 2, 64, 105
4, 541440, Note_on_c, 2, 64, 0
4, 541440, Note_on_c, 2, 58, 0
4, 541440, Note_on_c, 2, 66, 105
4, 541440, Note_on_c, 2, 57, 105
4, 541728, Note_on_c, 2, 57, 0
4, 541728, Note_on_c, 2, 66, 0
4, 541920, Note_on_c, 2, 58, 105
4, 541920, Note_on_c, 2, 64, 105
4, 542208, Note_on_c, 2, 64, 0
4, 542208, Note_on_c, 2, 58, 0
4, 542400, Note_on_c, 2, 57, 105
4, 542400, Note_on_c, 2, 66, 105
4, 542688, Note_on_c, 2, 66, 0
4, 542688, Note_on_c, 2, 57, 0
4, 542880, Note_on_c, 2, 64, 105
4, 542880, Note_on_c, 2, 58, 105
4, 543168, Note_on_c, 2, 58, 0
4, 543168, Note_on_c, 2, 64, 0
4, 543360, Note_on_c, 2, 57, 70
4, 543360, Note_on_c, 2, 66, 70
4, 544320, Note_on_c, 2, 66, 0
4, 544320, Note_on_c, 2, 60, 70
4, 545280, Note_on_c, 2, 60, 0
4, 545280, Note_on_c, 2, 57, 0
4, 545280, Note_on_c, 2, 55, 70
4, 545280, Note_on_c, 2, 58, 70
4, 546240, Note_on_c, 2, 58, 0
4, 546240, Note_on_c, 2, 55, 0
4, 546240, Note_on_c, 2, 57, 70
4, 546240, Note_on_c, 2, 54, 70
4, 547200, Note_on_c, 2, 54, 0
4, 547200, Note_on_c, 2, 57, 0
4, 547200, Note_on_c, 2, 55, 70
4, 547200, Note_on_c, 2, 58, 70
4, 547584, Note_on_c, 2, 58, 0
4, 547584, Note_on_c, 2, 55, 0
4, 551040, Note_on_c, 2, 62, 70
4, 552960, Note_on_c, 2, 62, 0
4, 552960, Note_on_c, 2, 63, 70
4, 554784, Note_on_c, 2, 63, 0
4, 554880, Note_on_c, 2, 65, 70
4, 555840, Note_on_c, 2, 65, 0
4, 555840, Note_on_c, 2, 62, 70
4, 556800, Note_on_c, 2, 62, 0
4, 556800, Note_on_c, 2, 58, 70
4, 557760, Note_on_c, 2, 58, 0
4, 557760, Note_on_c, 2, 62, 70
4, 558528, Note_on_c, 2, 62, 0
4, 558720, Note_on_c, 2, 63, 105
4, 558720, Note_on_c, 2, 51, 105
4, 558864, Note_on_c, 2, 51, 0
4, 558960, Note_on_c, 2, 55, 105
4, 559104, Note_on_c, 2, 55, 0
4, 559104, Note_on_c, 2, 63, 0
4, 559200, Note_on_c, 2, 58, 105
4, 559344, Note_on_c, 2, 58, 0
4, 559440, Note_on_c, 2, 63, 105
4, 559584, Note_on_c, 2, 63, 0
4, 559680, Note_on_c, 2, 67, 105
4, 559824, Note_on_c, 2, 67, 0
4, 559920, Note_on_c, 2, 65, 105
4, 560064, Note_on_c, 2, 65, 0
4, 560160, Note_on_c, 2, 67, 105
4, 560304, Note_on_c, 2, 67, 0
4, 560400, Note_on_c, 2, 63, 105
4, 560544, Note_on_c, 2, 63, 0
4, 560640, Note_on_c, 2, 62, 105
4, 560832, Note_on_c, 2, 62, 0
4, 560880, Note_on_c, 2, 63, 105
4, 561072, Note_on_c, 2, 63, 0
4, 561120, Note_on_c, 2, 65, 105
4, 561312, Note_on_c, 2, 65, 0
4, 561360, Note_on_c, 2, 63, 105
4, 561552, Note_on_c, 2, 63, 0
4, 561600, Note_on_c, 2, 62, 105
4, 561792, Note_on_c, 2, 62, 0
4, 561840, Note_on_c, 2, 60, 105
4, 562032, Note_on_c, 2, 60, 0
4, 562080, Note_on_c, 2, 62, 105
4, 562272, Note_on_c, 2, 62, 0
4, 562320, Note_on_c, 2, 58, 105
4, 562512, Note_on_c, 2, 58, 0
4, 562560, Note_on_c, 2, 60, 105
4, 562752, Note_on_c, 2, 60, 0
4, 562800, Note_on_c, 2, 63, 105
4, 562992, Note_on_c, 2, 63, 0
4, 563040, Note_on_c, 2, 60, 105
4, 563232, Note_on_c, 2, 60, 0
4, 563280, Note_on_c, 2, 63, 105
4, 563472, Note_on_c, 2, 63, 0
4, 563520, Note_on_c, 2, 60, 105
4, 563712, Note_on_c, 2, 60, 0
4, 563760, Note_on_c, 2, 63, 105
4, 563952, Note_on_c, 2, 63, 0
4, 564000, Note_on_c, 2, 60, 105
4, 564192, Note_on_c, 2, 60, 0
4, 564240, Note_on_c, 2, 63, 105
4, 564432, Note_on_c, 2, 63, 0
4, 564480, Note_on_c, 2, 58, 105
4, 564672, Note_on_c, 2, 58, 0
4, 564720, Note_on_c, 2, 63, 105
4, 564912, Note_on_c, 2, 63, 0
4, 564960, Note_on_c, 2, 58, 105
4, 565152, Note_on_c, 2, 58, 0
4, 565200, Note_on_c, 2, 63, 105
4, 565392, Note_on_c, 2, 63, 0
4, 565440, Note_on_c, 2, 58, 105
4, 565632, Note_on_c, 2, 58, 0
4, 565680, Note_on_c, 2, 63, 105
4, 565872, Note_on_c, 2, 63, 0
4, 565920, Note_on_c, 2, 58, 105
4, 566112, Note_on_c, 2, 58, 0
4, 566160, Note_on_c, 2, 63, 105
4, 566352, Note_on_c, 2, 63, 0
4, 566400, Note_on_c, 2, 56, 105
4, 566592, Note_on_c, 2, 56, 0
4, 566640, Note_on_c, 2, 60, 105
4, 566832, Note_on_c, 2, 60, 0
4, 566880, Note_on_c, 2, 56, 105
4, 567072, Note_on_c, 2, 56, 0
4, 567120, Note_on_c, 2, 60, 105
4, 567312, Note_on_c, 2, 60, 0
4, 567360, Note_on_c, 2, 56, 105
4, 567552, Note_on_c, 2, 56, 0
4, 567600, Note_on_c, 2, 60, 105
4, 567792, Note_on_c, 2, 60, 0
4, 567840, Note_on_c, 2, 56, 105
4, 568032, Note_on_c, 2, 56, 0
4, 568080, Note_on_c, 2, 60, 105
4, 568272, Note_on_c, 2, 60, 0
4, 568320, Note_on_c, 2, 55, 105
4, 568512, Note_on_c, 2, 55, 0
4, 568560, Note_on_c, 2, 58, 105
4, 568752, Note_on_c, 2, 58, 0
4, 568800, Note_on_c, 2, 55, 105
4, 568992, Note_on_c, 2, 55, 0
4, 569040, Note_on_c, 2, 58, 105
4, 569232, Note_on_c, 2, 58, 0
4, 569280, Note_on_c, 2, 53, 105
4, 569472, Note_on_c, 2, 53, 0
4, 569520, Note_on_c, 2, 56, 105
4, 569712, Note_on_c, 2, 56, 0
4, 569760, Note_on_c, 2, 53, 105
4, 569952, Note_on_c, 2, 53, 0
4, 570000, Note_on_c, 2, 56, 105
4, 570192, Note_on_c, 2, 56, 0
4, 570240, Note_on_c, 2, 52, 105
4, 570432, Note_on_c, 2, 52, 0
4, 570480, Note_on_c, 2, 55, 105
4, 570672, Note_on_c, 2, 55, 0
4, 570720, Note_on_c, 2, 52, 105
4, 570912, Note_on_c, 2, 52, 0
4, 570960, Note_on_c, 2, 55, 105
4, 571152, Note_on_c, 2, 55, 0
4, 571200, Note_on_c, 2, 48, 105
4, 571392, Note_on_c, 2, 48, 0
4, 571440, Note_on_c, 2, 52, 105
4, 571632, Note_on_c, 2, 52, 0
4, 571680, Note_on_c, 2, 48, 105
4, 571872, Note_on_c, 2, 48, 0
4, 571920, Note_on_c, 2, 52, 105
4, 572112, Note_on_c, 2, 52, 0
4, 572160, Note_on_c, 2, 53, 105
4, 573696, Note_on_c, 2, 53, 0
4, 574080, Note_on_c, 2, 60, 105
4, 575232, Note_on_c, 2, 60, 0
4, 575760, Note_on_c, 2, 60, 105
4, 575904, Note_on_c, 2, 60, 0
4, 576000, Note_on_c, 2, 58, 105
4, 576288, Note_on_c, 2, 58, 0
4, 576480, Note_on_c, 2, 61, 105
4, 576768, Note_on_c, 2, 61, 0
4, 576960, Note_on_c, 2, 67, 105
4, 577248, Note_on_c, 2, 67, 0
4, 577920, Note_on_c, 2, 56, 105
4, 578208, Note_on_c, 2, 56, 0
4, 578400, Note_on_c, 2, 60, 105
4, 578688, Note_on_c, 2, 60, 0
4, 578880, Note_on_c, 2, 65, 105
4, 579168, Note_on_c, 2, 65, 0
4, 579600, Note_on_c, 2, 56, 105
4, 579744, Note_on_c, 2, 56, 0
4, 579840, Note_on_c, 2, 55, 105
4, 580128, Note_on_c, 2, 55, 0
4, 580320, Note_on_c, 2, 58, 105
4, 580608, Note_on_c, 2, 58, 0
4, 580800, Note_on_c, 2, 64, 105
4, 581088, Note_on_c, 2, 64, 0
4, 581520, Note_on_c, 2, 55, 105
4, 581664, Note_on_c, 2, 55, 0
4, 581760, Note_on_c, 2, 53, 105
4, 582048, Note_on_c, 2, 53, 0
4, 582240, Note_on_c, 2, 56, 105
4, 582528, Note_on_c, 2, 56, 0
4, 582720, Note_on_c, 2, 60, 105
4, 583008, Note_on_c, 2, 60, 0
4, 583440, Note_on_c, 2, 41, 105
4, 583584, Note_on_c, 2, 41, 0
4, 583680, Note_on_c, 2, 46, 105
4, 583968, Note_on_c, 2, 46, 0
4, 584160, Note_on_c, 2, 50, 105
4, 584448, Note_on_c, 2, 50, 0
4, 584640, Note_on_c, 2, 53, 105
4, 584928, Note_on_c, 2, 53, 0
4, 585360, Note_on_c, 2, 46, 105
4, 585504, Note_on_c, 2, 46, 0
4, 585600, Note_on_c, 2, 51, 105
4, 585888, Note_on_c, 2, 51, 0
4, 586080, Note_on_c, 2, 55, 105
4, 586368, Note_on_c, 2, 55, 0
4, 586560, Note_on_c, 2, 58, 105
4, 586848, Note_on_c, 2, 58, 0
4, 587280, Note_on_c, 2, 39, 105
4, 587424, Note_on_c, 2, 39, 0
4, 587520, Note_on_c, 2, 44, 105
4, 587808, Note_on_c, 2, 44, 0
4, 588000, Note_on_c, 2, 48, 105
4, 588288, Note_on_c, 2, 48, 0
4, 588480, Note_on_c, 2, 51, 105
4, 588768, Note_on_c, 2, 51, 0
4, 589200, Note_on_c, 2, 44, 105
4, 589344, Note_on_c, 2, 44, 0
4, 589440, Note_on_c, 2, 50, 105
4, 589728, Note_on_c, 2, 50, 0
4, 589920, Note_on_c, 2, 53, 105
4, 590208, Note_on_c, 2, 53, 0
4, 590400, Note_on_c, 2, 57, 105
4, 590688, Note_on_c, 2, 57, 0
4, 591120, Note_on_c, 2, 50, 105
4, 591264, Note_on_c, 2, 50, 0
4, 591360, Note_on_c, 2, 55, 105
4, 591648, Note_on_c, 2, 55, 0
4, 591840, Note_on_c, 2, 59, 105
4, 592128, Note_on_c, 2, 59, 0
4, 592320, Note_on_c, 2, 62, 105
4, 592608, Note_on_c, 2, 62, 0
4, 593040, Note_on_c, 2, 43, 105
4, 593184, Note_on_c, 2, 43, 0
4, 593280, Note_on_c, 2, 48, 105
4, 593568, Note_on_c, 2, 48, 0
4, 593760, Note_on_c, 2, 51, 105
4, 594048, Note_on_c, 2, 51, 0
4, 594240, Note_on_c, 2, 57, 105
4, 594528, Note_on_c, 2, 57, 0
4, 594960, Note_on_c, 2, 48, 105
4, 595104, Note_on_c, 2, 48, 0
4, 595200, Note_on_c, 2, 50, 105
4, 595488, Note_on_c, 2, 50, 0
4, 595680, Note_on_c, 2, 54, 105
4, 595968, Note_on_c, 2, 54, 0
4, 596160, Note_on_c, 2, 57, 105
4, 596448, Note_on_c, 2, 57, 0
4, 597120, Note_on_c, 2, 55, 105
4, 597312, Note_on_c, 2, 55, 0
4, 597360, Note_on_c, 2, 58, 105
4, 597552, Note_on_c, 2, 58, 0
4, 597600, Note_on_c, 2, 55, 105
4, 597792, Note_on_c, 2, 55, 0
4, 597840, Note_on_c, 2, 58, 105
4, 598032, Note_on_c, 2, 58, 0
4, 598080, Note_on_c, 2, 55, 105
4, 598272, Note_on_c, 2, 55, 0
4, 598320, Note_on_c, 2, 58, 105
4, 598512, Note_on_c, 2, 58, 0
4, 598560, Note_on_c, 2, 55, 105
4, 598752, Note_on_c, 2, 55, 0
4, 598800, Note_on_c, 2, 58, 105
4, 598992, Note_on_c, 2, 58, 0
4, 599040, Note_on_c, 2, 53, 105
4, 599232, Note_on_c, 2, 53, 0
4, 599280, Note_on_c, 2, 57, 105
4, 599472, Note_on_c, 2, 57, 0
4, 599520, Note_on_c, 2, 53, 105
4, 599712, Note_on_c, 2, 53, 0
4, 599760, Note_on_c, 2, 57, 105
4, 599952, Note_on_c, 2, 57, 0
4, 600000, Note_on_c, 2, 53, 105
4, 600192, Note_on_c, 2, 53, 0
4, 600240, Note_on_c, 2, 57, 105
4, 600432, Note_on_c, 2, 57, 0
4, 600480, Note_on_c, 2, 53, 105
4, 600672, Note_on_c, 2, 53, 0
4, 600720, Note_on_c, 2, 57, 105
4, 600912, Note_on_c, 2, 57, 0
4, 600960, Note_on_c, 2, 51, 105
4, 601152, Note_on_c, 2, 51, 0
4, 601200, Note_on_c, 2, 55, 105
4, 601392, Note_on_c, 2, 55, 0
4, 601440, Note_on_c, 2, 51, 105
4, 601632, Note_on_c, 2, 51, 0
4, 601680, Note_on_c, 2, 55, 105
4, 601872, Note_on_c, 2, 55, 0
4, 601920, Note_on_c, 2, 51, 105
4, 602112, Note_on_c, 2, 51, 0
4, 602160, Note_on_c, 2, 55, 105
4, 602352, Note_on_c, 2, 55, 0
4, 602400, Note_on_c, 2, 51, 105
4, 602592, Note_on_c, 2, 51, 0
4, 602640, Note_on_c, 2, 55, 105
4, 602832, Note_on_c, 2, 55, 0
4, 602880, Note_on_c, 2, 50, 105
4, 603072, Note_on_c, 2, 50, 0
4, 603120, Note_on_c, 2, 55, 105
4, 603312, Note_on_c, 2, 55, 0
4, 603360, Note_on_c, 2, 50, 105
4, 603552, Note_on_c, 2, 50, 0
4, 603600, Note_on_c, 2, 55, 105
4, 603792, Note_on_c, 2, 55, 0
4, 603840, Note_on_c, 2, 50, 105
4, 604032, Note_on_c, 2, 50, 0
4, 604080, Note_on_c, 2, 55, 105
4, 604272, Note_on_c, 2, 55, 0
4, 604320, Note_on_c, 2, 50, 105
4, 604512, Note_on_c, 2, 50, 0
4, 604560, Note_on_c, 2, 55, 105
4, 604752, Note_on_c, 2, 55, 0
4, 604800, Note_on_c, 2, 48, 105
4, 604992, Note_on_c, 2, 48, 0
4, 605040, Note_on_c, 2, 51, 105
4, 605232, Note_on_c, 2, 51, 0
4, 605280, Note_on_c, 2, 48, 105
4, 605472, Note_on_c, 2, 48, 0
4, 605520, Note_on_c, 2, 51, 105
4, 605712, Note_on_c, 2, 51, 0
4, 605760, Note_on_c, 2, 48, 105
4, 605952, Note_on_c, 2, 48, 0
4, 606000, Note_on_c, 2, 51, 105
4, 606192, Note_on_c, 2, 51, 0
4, 606240, Note_on_c, 2, 48, 105
4, 606432, Note_on_c, 2, 48, 0
4, 606480, Note_on_c, 2, 51, 105
4, 606672, Note_on_c, 2, 51, 0
4, 606720, Note_on_c, 2, 46, 105
4, 606912, Note_on_c, 2, 46, 0
4, 606960, Note_on_c, 2, 50, 105
4, 607152, Note_on_c, 2, 50, 0
4, 607200, Note_on_c, 2, 46, 105
4, 607392, Note_on_c, 2, 46, 0
4, 607440, Note_on_c, 2, 50, 105
4, 607632, Note_on_c, 2, 50, 0
4, 607680, Note_on_c, 2, 46, 105
4, 607872, Note_on_c, 2, 46, 0
4, 607920, Note_on_c, 2, 50, 105
4, 608112, Note_on_c, 2, 50, 0
4, 608160, Note_on_c, 2, 46, 105
4, 608352, Note_on_c, 2, 46, 0
4, 608400, Note_on_c, 2, 50, 105
4, 608592, Note_on_c, 2, 50, 0
4, 608640, Note_on_c, 2, 61, 125
4, 608640, Note_on_c, 2, 52, 105
4, 610176, Note_on_c, 2, 61, 0
4, 610320, Note_on_c, 2, 62, 105
4, 610512, Note_on_c, 2, 62, 0
4, 610512, Note_on_c, 2, 52, 0
4, 610560, Note_on_c, 2, 61, 125
4, 610560, Note_on_c, 2, 52, 105
4, 612096, Note_on_c, 2, 61, 0
4, 612240, Note_on_c, 2, 62, 105
4, 612432, Note_on_c, 2, 62, 0
4, 612432, Note_on_c, 2, 52, 0
4, 612480, Note_on_c, 2, 61, 125
4, 612480, Note_on_c, 2, 52, 105
4, 614016, Note_on_c, 2, 61, 0
4, 614160, Note_on_c, 2, 62, 105
4, 614352, Note_on_c, 2, 62, 0
4, 614352, Note_on_c, 2, 52, 0
4, 614400, Note_on_c, 2, 52, 105
4, 614400, Note_on_c, 2, 61, 125
4, 615936, Note_on_c, 2, 61, 0
4, 615936, Note_on_c, 2, 52, 0
4, 616320, Note_on_c, 2, 62, 105
4, 616320, Note_on_c, 2, 50, 105
4, 616512, Note_on_c, 2, 50, 0
4, 616512, Note_on_c, 2, 62, 0
4, 616560, Note_on_c, 2, 50, 105
4, 616752, Note_on_c, 2, 50, 0
4, 616800, Note_on_c, 2, 50, 105
4, 616992, Note_on_c, 2, 50, 0
4, 617040, Note_on_c, 2, 50, 105
4, 617232, Note_on_c, 2, 50, 0
4, 617280, Note_on_c, 2, 50, 105
4, 617472, Note_on_c, 2, 50, 0
4, 617520, Note_on_c, 2, 50, 105
4, 617712, Note_on_c, 2, 50, 0
4, 617760, Note_on_c, 2, 50, 105
4, 617952, Note_on_c, 2, 50, 0
4, 618000, Note_on_c, 2, 50, 105
4, 618192, Note_on_c, 2, 50, 0
4, 618240, Note_on_c, 2, 50, 105
4, 618432, Note_on_c, 2, 50, 0
4, 618480, Note_on_c, 2, 50, 105
4, 618672, Note_on_c, 2, 50, 0
4, 618720, Note_on_c, 2, 50, 105
4, 618912, Note_on_c, 2, 50, 0
4, 618960, Note_on_c, 2, 50, 105
4, 619152, Note_on_c, 2, 50, 0
4, 619200, Note_on_c, 2, 50, 105
4, 619392, Note_on_c, 2, 50, 0
4, 619440, Note_on_c, 2, 50, 105
4, 619632, Note_on_c, 2, 50, 0
4, 619680, Note_on_c, 2, 50, 105
4, 619872, Note_on_c, 2, 50, 0
4, 619920, Note_on_c, 2, 50, 105
4, 620112, Note_on_c, 2, 50, 0
4, 620160, Note_on_c, 2, 50, 105
4, 620352, Note_on_c, 2, 50, 0
4, 620400, Note_on_c, 2, 50, 105
4, 620592, Note_on_c, 2, 50, 0
4, 620640, Note_on_c, 2, 50, 105
4, 620832, Note_on_c, 2, 50, 0
4, 620880, Note_on_c, 2, 50, 105
4, 621072, Note_on_c, 2, 50, 0
4, 621120, Note_on_c, 2, 50, 105
4, 621312, Note_on_c, 2, 50, 0
4, 621360, Note_on_c, 2, 50, 105
4, 621552, Note_on_c, 2, 50, 0
4, 621600, Note_on_c, 2, 50, 105
4, 621792, Note_on_c, 2, 50, 0
4, 621840, Note_on_c, 2, 50, 105
4, 622032, Note_on_c, 2, 50, 0
4, 622080, Note_on_c, 2, 50, 105
4, 622272, Note_on_c, 2, 50, 0
4, 622320, Note_on_c, 2, 50, 105
4, 622512, Note_on_c, 2, 50, 0
4, 622560, Note_on_c, 2, 50, 105
4, 622752, Note_on_c, 2, 50, 0
4, 622800, Note_on_c, 2, 50, 105
4, 622992, Note_on_c, 2, 50, 0
4, 623040, Note_on_c, 2, 50, 105
4, 623232, Note_on_c, 2, 50, 0
4, 623280, Note_on_c, 2, 50, 105
4, 623472, Note_on_c, 2, 50, 0
4, 623520, Note_on_c, 2, 50, 105
4, 623712, Note_on_c, 2, 50, 0
4, 623760, Note_on_c, 2, 50, 105
4, 623952, Note_on_c, 2, 50, 0
4, 624000, Note_on_c, 2, 50, 105
4, 624384, Note_on_c, 2, 50, 0
4, 624960, Note_on_c, 2, 50, 92
4, 625344, Note_on_c, 2, 50, 0
4, 629760, Note_on_c, 2, 60, 58
4, 631200, Note_on_c, 2, 60, 0
4, 631200, Note_on_c, 2, 62, 58
4, 631320, Note_on_c, 2, 62, 0
4, 631320, Note_on_c, 2, 60, 58
4, 631440, Note_on_c, 2, 60, 0
4, 631440, Note_on_c, 2, 58, 58
4, 631560, Note_on_c, 2, 58, 0
4, 631560, Note_on_c, 2, 57, 58
4, 631680, Note_on_c, 2, 57, 0
4, 631680, Note_on_c, 2, 55, 58
4, 632064, Note_on_c, 2, 55, 0
4, 641280, Note_on_c, 2, 55, 70
4, 641520, Note_on_c, 2, 55, 0
4, 641520, Note_on_c, 2, 54, 70
4, 641760, Note_on_c, 2, 54, 0
4, 641760, Note_on_c, 2, 57, 70
4, 642000, Note_on_c, 2, 57, 0
4, 642000, Note_on_c, 2, 55, 70
4, 642240, Note_on_c, 2, 55, 0
4, 642240, Note_on_c, 2, 58, 70
4, 642480, Note_on_c, 2, 58, 0
4, 642480, Note_on_c, 2, 57, 70
4, 642720, Note_on_c, 2, 57, 0
4, 642720, Note_on_c, 2, 60, 70
4, 642960, Note_on_c, 2, 60, 0
4, 642960, Note_on_c, 2, 58, 70
4, 643152, Note_on_c, 2, 58, 0
4, 643200, Note_on_c, 2, 62, 70
4, 643200, Note_on_c, 2, 58, 70
4, 644640, Note_on_c, 2, 58, 0
4, 644640, Note_on_c, 2, 62, 0
4, 644640, Note_on_c, 2, 64, 70
4, 644640, Note_on_c, 2, 57, 70
4, 645120, Note_on_c, 2, 57, 0
4, 645120, Note_on_c, 2, 64, 0
4, 645120, Note_on_c, 2, 66, 70
4, 645120, Note_on_c, 2, 62, 70
4, 645504, Note_on_c, 2, 62, 0
4, 645504, Note_on_c, 2, 66, 0
4, 647520, Note_on_c, 2, 53, 70
4, 647520, Note_on_c, 2, 65, 70
4, 648000, Note_on_c, 2, 65, 0
4, 648000, Note_on_c, 2, 53, 0
4, 648000, Note_on_c, 2, 64, 70
4, 648000, Note_on_c, 2, 52, 70
4, 648480, Note_on_c, 2, 52, 0
4, 648480, Note_on_c, 2, 64, 0
4, 648480, Note_on_c, 2, 51, 70
4, 648480, Note_on_c, 2, 63, 70
4, 648864, Note_on_c, 2, 63, 0
4, 648864, Note_on_c, 2, 51, 0
4, 648960, Note_on_c, 2, 50, 70
4, 648960, Note_on_c, 2, 62, 70
4, 649728, Note_on_c, 2, 62, 0
4, 649728, Note_on_c, 2, 50, 0
4, 650880, Note_on_c, 2, 63, 58
4, 652032, Note_on_c, 2, 63, 0
4, 652320, Note_on_c, 2, 62, 58
4, 652704, Note_on_c, 2, 62, 0
4, 652800, Note_on_c, 2, 61, 58
4, 653184, Note_on_c, 2, 61, 0
4, 653280, Note_on_c, 2, 60, 58
4, 653664, Note_on_c, 2, 60, 0
4, 653760, Note_on_c, 2, 59, 58
4, 654144, Note_on_c, 2, 59, 0
4, 654240, Note_on_c, 2, 58, 58
4, 654624, Note_on_c, 2, 58, 0
4, 655200, Note_on_c, 2, 53, 58
4, 655200, Note_on_c, 2, 56, 58
4, 656160, Note_on_c, 2, 56, 0
4, 656160, Note_on_c, 2, 53, 0
4, 656160, Note_on_c, 2, 55, 58
4, 656160, Note_on_c, 2, 51, 58
4, 656544, Note_on_c, 2, 51, 0
4, 656544, Note_on_c, 2, 55, 0
4, 657120, Note_on_c, 2, 53, 58
4, 657120, Note_on_c, 2, 56, 58
4, 658080, Note_on_c, 2, 56, 0
4, 658080, Note_on_c, 2, 53, 0
4, 658080, Note_on_c, 2, 55, 58
4, 658080, Note_on_c, 2, 51, 58
4, 658464, Note_on_c, 2, 51, 0
4, 658464, Note_on_c, 2, 55, 0
4, 659040, Note_on_c, 2, 53, 58
4, 659040, Note_on_c, 2, 56, 58
4, 660000, Note_on_c, 2, 56, 0
4, 660000, Note_on_c, 2, 53, 0
4, 660000, Note_on_c, 2, 55, 58
4, 660000, Note_on_c, 2, 51, 58
4, 660384, Note_on_c, 2, 51, 0
4, 660384, Note_on_c, 2, 55, 0
4, 660960, Note_on_c, 2, 53, 58
4, 660960, Note_on_c, 2, 56, 58
4, 661920, Note_on_c, 2, 56, 0
4, 661920, Note_on_c, 2, 53, 0
4, 661920, Note_on_c, 2, 55, 58
4, 661920, Note_on_c, 2, 51, 58
4, 662304, Note_on_c, 2, 51, 0
4, 662304, Note_on_c, 2, 55, 0
4, 662400, Note_on_c, 2, 56, 58
4, 662400, Note_on_c, 2, 53, 58
4, 663936, Note_on_c, 2, 53, 0
4, 663936, Note_on_c, 2, 56, 0
4, 664320, Note_on_c, 2, 56, 70
4, 664320, Note_on_c, 2, 62, 70
4, 665856, Note_on_c, 2, 62, 0
4, 665856, Note_on_c, 2, 56, 0
4, 666240, Note_on_c, 2, 63, 105
4, 666240, Note_on_c, 2, 57, 105
4, 667008, Note_on_c, 2, 57, 0
4, 667008, Note_on_c, 2, 63, 0
4, 667200, Note_on_c, 2, 51, 105
4, 667200, Note_on_c, 2, 60, 105
4, 667584, Note_on_c, 2, 60, 0
4, 667680, Note_on_c, 2, 57, 105
4, 668064, Note_on_c, 2, 57, 0
4, 668064, Note_on_c, 2, 51, 0
4, 668160, Note_on_c, 2, 58, 105
4, 668160, Note_on_c, 2, 49, 105
4, 668640, Note_on_c, 2, 58, 0
4, 668640, Note_on_c, 2, 61, 105
4, 669120, Note_on_c, 2, 61, 0
4, 669120, Note_on_c, 2, 49, 0
4, 669120, Note_on_c, 2, 58, 105
4, 669120, Note_on_c, 2, 65, 105
4, 670080, Note_on_c, 2, 58, 0
4, 670080, Note_on_c, 2, 59, 105
4, 671040, Note_on_c, 2, 59, 0
4, 671040, Note_on_c, 2, 65, 0
4, 671040, Note_on_c, 2, 53, 105
4, 671040, Note_on_c, 2, 62, 105
4, 671520, Note_on_c, 2, 62, 0
4, 671520, Note_on_c, 2, 59, 105
4, 671904, Note_on_c, 2, 59, 0
4, 671904, Note_on_c, 2, 53, 0
4, 672000, Note_on_c, 2, 60, 105
4, 672000, Note_on_c, 2, 51, 105
4, 672480, Note_on_c, 2, 60, 0
4, 672480, Note_on_c, 2, 63, 105
4, 672960, Note_on_c, 2, 63, 0
4, 672960, Note_on_c, 2, 51, 0
4, 672960, Note_on_c, 2, 67, 105
4, 672960, Note_on_c, 2, 60, 105
4, 673920, Note_on_c, 2, 60, 0
4, 673920, Note_on_c, 2, 61, 105
4, 674880, Note_on_c, 2, 61, 0
4, 674880, Note_on_c, 2, 67, 0
4, 674880, Note_on_c, 2, 55, 105
4, 674880, Note_on_c, 2, 64, 105
4, 675360, Note_on_c, 2, 64, 0
4, 675360, Note_on_c, 2, 61, 105
4, 675744, Note_on_c, 2, 61, 0
4, 675744, Note_on_c, 2, 55, 0
4, 675840, Note_on_c, 2, 62, 105
4, 676032, Note_on_c, 2, 62, 0
4, 676080, Note_on_c, 2, 62, 105
4, 676272, Note_on_c, 2, 62, 0
4, 676320, Note_on_c, 2, 62, 105
4, 676512, Note_on_c, 2, 62, 0
4, 676560, Note_on_c, 2, 62, 105
4, 676752, Note_on_c, 2, 62, 0
4, 676800, Note_on_c, 2, 62, 105
4, 676992, Note_on_c, 2, 62, 0
4, 677040, Note_on_c, 2, 62, 105
4, 677232, Note_on_c, 2, 62, 0
4, 677280, Note_on_c, 2, 62, 105
4, 677472, Note_on_c, 2, 62, 0
4, 677520, Note_on_c, 2, 62, 105
4, 677712, Note_on_c, 2, 62, 0
4, 677760, Note_on_c, 2, 50, 105
4, 677952, Note_on_c, 2, 50, 0
4, 678000, Note_on_c, 2, 50, 105
4, 678192, Note_on_c, 2, 50, 0
4, 678240, Note_on_c, 2, 50, 105
4, 678432, Note_on_c, 2, 50, 0
4, 678480, Note_on_c, 2, 50, 105
4, 678672, Note_on_c, 2, 50, 0
4, 678720, Note_on_c, 2, 50, 105
4, 678912, Note_on_c, 2, 50, 0
4, 678960, Note_on_c, 2, 50, 105
4, 679152, Note_on_c, 2, 50, 0
4, 679200, Note_on_c, 2, 50, 105
4, 679392, Note_on_c, 2, 50, 0
4, 679440, Note_on_c, 2, 50, 105
4, 679632, Note_on_c, 2, 50, 0
4, 679680, Note_on_c, 2, 55, 92
4, 680064, Note_on_c, 2, 55, 0
4, 680160, Note_on_c, 2, 46, 125
4, 680928, Note_on_c, 2, 46, 0
4, 681120, Note_on_c, 2, 48, 105
4, 681408, Note_on_c, 2, 48, 0
4, 681600, Note_on_c, 2, 49, 105
4, 681888, Note_on_c, 2, 49, 0
4, 682080, Note_on_c, 2, 50, 105
4, 682368, Note_on_c, 2, 50, 0
4, 682560, Note_on_c, 2, 51, 105
4, 682848, Note_on_c, 2, 51, 0
4, 683040, Note_on_c, 2, 52, 105
4, 683328, Note_on_c, 2, 52, 0
4, 683520, Note_on_c, 2, 53, 105
4, 683904, Note_on_c, 2, 53, 0
4, 684480, Note_on_c, 2, 55, 105
4, 684864, Note_on_c, 2, 55, 0
4, 685440, Note_on_c, 2, 54, 105
4, 685440, Note_on_c, 2, 57, 105
4, 685824, Note_on_c, 2, 57, 0
4, 685824, Note_on_c, 2, 54, 0
4, 686400, Note_on_c, 2, 58, 105
4, 686400, Note_on_c, 2, 55, 105
4, 686784, Note_on_c, 2, 55, 0
4, 686784, Note_on_c, 2, 58, 0
4, 687360, Note_on_c, 2, 63, 105
4, 688464, Note_on_c, 2, 63, 0
4, 688560, Note_on_c, 2, 62, 105
4, 688704, Note_on_c, 2, 62, 0
4, 688800, Note_on_c, 2, 60, 70
4, 688944, Note_on_c, 2, 60, 0
4, 689040, Note_on_c, 2, 58, 70
4, 689184, Note_on_c, 2, 58, 0
4, 689280, Note_on_c, 2, 57, 70
4, 689424, Note_on_c, 2, 57, 0
4, 689520, Note_on_c, 2, 55, 70
4, 689664, Note_on_c, 2, 55, 0
4, 689760, Note_on_c, 2, 54, 70
4, 689904, Note_on_c, 2, 54, 0
4, 690000, Note_on_c, 2, 51, 70
4, 690144, Note_on_c, 2, 51, 0
4, 690240, Note_on_c, 2, 50, 70
4, 690384, Note_on_c, 2, 50, 0
4, 690480, Note_on_c, 2, 48, 70
4, 690624, Note_on_c, 2, 48, 0
4, 690720, Note_on_c, 2, 46, 70
4, 690864, Note_on_c, 2, 46, 0
4, 690960, Note_on_c, 2, 45, 70
4, 691104, Note_on_c, 2, 45, 0
4, 691200, Note_on_c, 2, 43, 58
4, 691584, Note_on_c, 2, 43, 0
4, 694560, Note_on_c, 2, 63, 58
4, 694800, Note_on_c, 2, 63, 0
4, 694800, Note_on_c, 2, 62, 80
4, 694992, Note_on_c, 2, 62, 0
4, 695040, Note_on_c, 2, 62, 80
4, 695424, Note_on_c, 2, 62, 0
4, 695520, Note_on_c, 2, 63, 80
4, 695760, Note_on_c, 2, 63, 0
4, 695760, Note_on_c, 2, 62, 80
4, 695952, Note_on_c, 2, 62, 0
4, 696000, Note_on_c, 2, 62, 80
4, 696384, Note_on_c, 2, 62, 0
4, 698400, Note_on_c, 2, 51, 80
4, 698400, Note_on_c, 2, 63, 70
4, 698640, Note_on_c, 2, 63, 0
4, 698640, Note_on_c, 2, 51, 0
4, 698640, Note_on_c, 2, 50, 70
4, 698640, Note_on_c, 2, 62, 70
4, 698832, Note_on_c, 2, 62, 0
4, 698832, Note_on_c, 2, 50, 0
4, 698880, Note_on_c, 2, 50, 70
4, 698880, Note_on_c, 2, 62, 70
4, 699264, Note_on_c, 2, 62, 0
4, 699264, Note_on_c, 2, 50, 0
4, 699360, Note_on_c, 2, 63, 70
4, 699360, Note_on_c, 2, 51, 70
4, 699600, Note_on_c, 2, 51, 0
4, 699600, Note_on_c, 2, 63, 0
4, 699600, Note_on_c, 2, 50, 70
4, 699600, Note_on_c, 2, 62, 70
4, 699792, Note_on_c, 2, 62, 0
4, 699792, Note_on_c, 2, 50, 0
4, 699840, Note_on_c, 2, 62, 70
4, 699840, Note_on_c, 2, 50, 70
4, 700224, Note_on_c, 2, 50, 0
4, 700224, Note_on_c, 2, 62, 0
4, 700800, Note_on_c, 2, 55, 105
4, 700992, Note_on_c, 2, 55, 0
4, 701040, Note_on_c, 2, 55, 105
4, 701232, Note_on_c, 2, 55, 0
4, 701280, Note_on_c, 2, 55, 105
4, 701472, Note_on_c, 2, 55, 0
4, 701520, Note_on_c, 2, 55, 105
4, 701712, Note_on_c, 2, 55, 0
4, 701760, Note_on_c, 2, 55, 105
4, 701952, Note_on_c, 2, 55, 0
4, 702000, Note_on_c, 2, 55, 105
4, 702192, Note_on_c, 2, 55, 0
4, 702240, Note_on_c, 2, 55, 105
4, 702432, Note_on_c, 2, 55, 0
4, 702480, Note_on_c, 2, 55, 105
4, 702672, Note_on_c, 2, 55, 0
4, 702720, Note_on_c, 2, 60, 105
4, 702912, Note_on_c, 2, 60, 0
4, 702960, Note_on_c, 2, 60, 105
4, 703152, Note_on_c, 2, 60, 0
4, 703200, Note_on_c, 2, 60, 105
4, 703392, Note_on_c, 2, 60, 0
4, 703440, Note_on_c, 2, 60, 105
4, 703632, Note_on_c, 2, 60, 0
4, 703680, Note_on_c, 2, 60, 105
4, 703872, Note_on_c, 2, 60, 0
4, 703920, Note_on_c, 2, 60, 105
4, 704112, Note_on_c, 2, 60, 0
4, 704160, Note_on_c, 2, 60, 105
4, 704352, Note_on_c, 2, 60, 0
4, 704400, Note_on_c, 2, 60, 105
4, 704592, Note_on_c, 2, 60, 0
4, 704640, Note_on_c, 2, 62, 105
4, 704832, Note_on_c, 2, 62, 0
4, 704880, Note_on_c, 2, 62, 105
4, 705072, Note_on_c, 2, 62, 0
4, 705120, Note_on_c, 2, 62, 105
4, 705312, Note_on_c, 2, 62, 0
4, 705360, Note_on_c, 2, 62, 105
4, 705552, Note_on_c, 2, 62, 0
4, 705600, Note_on_c, 2, 50, 105
4, 705792, Note_on_c, 2, 50, 0
4, 705840, Note_on_c, 2, 50, 105
4, 706032, Note_on_c, 2, 50, 0
4, 706080, Note_on_c, 2, 50, 105
4, 706272, Note_on_c, 2, 50, 0
4, 706320, Note_on_c, 2, 50, 105
4, 706512, Note_on_c, 2, 50, 0
4, 706560, Note_on_c, 2, 55, 92
4, 706944, Note_on_c, 2, 55, 0
4, 708000, Note_on_c, 2, 63, 80
4, 708240, Note_on_c, 2, 63, 0
4, 708240, Note_on_c, 2, 62, 80
4, 708432, Note_on_c, 2, 62, 0
4, 708480, Note_on_c, 2, 62, 80
4, 708864, Note_on_c, 2, 62, 0
4, 708960, Note_on_c, 2, 63, 80
4, 709200, Note_on_c, 2, 63, 0
4, 709200, Note_on_c, 2, 62, 80
4, 709392, Note_on_c, 2, 62, 0
4, 709440, Note_on_c, 2, 62, 80
4, 709824, Note_on_c, 2, 62, 0
4, 711840, Note_on_c, 2, 51, 80
4, 711840, Note_on_c, 2, 63, 80
4, 712080, Note_on_c, 2, 63, 0
4, 712080, Note_on_c, 2, 51, 0
4, 712080, Note_on_c, 2, 50, 80
4, 712080, Note_on_c, 2, 62, 80
4, 712272, Note_on_c, 2, 62, 0
4, 712272, Note_on_c, 2, 50, 0
4, 712320, Note_on_c, 2, 62, 80
4, 712320, Note_on_c, 2, 50, 80
4, 712704, Note_on_c, 2, 50, 0
4, 712704, Note_on_c, 2, 62, 0
4, 712800, Note_on_c, 2, 63, 80
4, 712800, Note_on_c, 2, 51, 80
4, 713040, Note_on_c, 2, 51, 0
4, 713040, Note_on_c, 2, 63, 0
4, 713040, Note_on_c, 2, 62, 80
4, 713040, Note_on_c, 2, 50, 80
4, 713232, Note_on_c, 2, 50, 0
4, 713232, Note_on_c, 2, 62, 0
4, 713280, Note_on_c, 2, 50, 80
4, 713280, Note_on_c, 2, 62, 80
4, 713664, Note_on_c, 2, 62, 0
4, 713664, Note_on_c, 2, 50, 0
4, 716160, Note_on_c, 2, 55, 105
4, 716352, Note_on_c, 2, 55, 0
4, 716400, Note_on_c, 2, 55, 105
4, 716592, Note_on_c, 2, 55, 0
4, 716640, Note_on_c, 2, 55, 105
4, 716832, Note_on_c, 2, 55, 0
4, 716880, Note_on_c, 2, 55, 105
4, 717072, Note_on_c, 2, 55, 0
4, 717120, Note_on_c, 2, 55, 105
4, 717312, Note_on_c, 2, 55, 0
4, 717360, Note_on_c, 2, 55, 105
4, 717552, Note_on_c, 2, 55, 0
4, 717600, Note_on_c, 2, 55, 105
4, 717792, Note_on_c, 2, 55, 0
4, 717840, Note_on_c, 2, 55, 105
4, 718032, Note_on_c, 2, 55, 0
4, 718080, Note_on_c, 2, 60, 105
4, 718272, Note_on_c, 2, 60, 0
4, 718320, Note_on_c, 2, 60, 105
4, 718512, Note_on_c, 2, 60, 0
4, 718560, Note_on_c, 2, 60, 105
4, 718752, Note_on_c, 2, 60, 0
4, 718800, Note_on_c, 2, 60, 105
4, 718992, Note_on_c, 2, 60, 0
4, 719040, Note_on_c, 2, 60, 105
4, 719232, Note_on_c, 2, 60, 0
4, 719280, Note_on_c, 2, 60, 105
4, 719472, Note_on_c, 2, 60, 0
4, 719520, Note_on_c, 2, 60, 105
4, 719712, Note_on_c, 2, 60, 0
4, 719760, Note_on_c, 2, 60, 105
4, 719952, Note_on_c, 2, 60, 0
4, 720000, Note_on_c, 2, 62, 105
4, 720192, Note_on_c, 2, 62, 0
4, 720240, Note_on_c, 2, 62, 105
4, 720432, Note_on_c, 2, 62, 0
4, 720480, Note_on_c, 2, 62, 105
4, 720672, Note_on_c, 2, 62, 0
4, 720720, Note_on_c, 2, 62, 105
4, 720912, Note_on_c, 2, 62, 0
4, 720960, Note_on_c, 2, 50, 105
4, 721152, Note_on_c, 2, 50, 0
4, 721200, Note_on_c, 2, 50, 105
4, 721392, Note_on_c, 2, 50, 0
4, 721440, Note_on_c, 2, 50, 105
4, 721632, Note_on_c, 2, 50, 0
4, 721680, Note_on_c, 2, 50, 105
4, 721872, Note_on_c, 2, 50, 0
4, 721920, Note_on_c, 2, 55, 105
4, 722688, Note_on_c, 2, 55, 0
4, 723600, Note_on_c, 2, 62, 105
4, 723792, Note_on_c, 2, 62, 0
4, 723840, Note_on_c, 2, 60, 105
4, 724032, Note_on_c, 2, 60, 0
4, 724080, Note_on_c, 2, 58, 105
4, 724272, Note_on_c, 2, 58, 0
4, 724320, Note_on_c, 2, 57, 105
4, 724512, Note_on_c, 2, 57, 0
4, 724560, Note_on_c, 2, 55, 105
4, 724752, Note_on_c, 2, 55, 0
4, 724800, Note_on_c, 2, 54, 105
4, 724992, Note_on_c, 2, 54, 0
4, 725040, Note_on_c, 2, 51, 105
4, 725232, Note_on_c, 2, 51, 0
4, 725280, Note_on_c, 2, 50, 105
4, 725472, Note_on_c, 2, 50, 0
4, 725520, Note_on_c, 2, 48, 105
4, 725712, Note_on_c, 2, 48, 0
4, 725760, Note_on_c, 2, 46, 105
4, 726072, Note_on_c, 2, 46, 0
4, 726240, Note_on_c, 2, 46, 105
4, 726552, Note_on_c, 2, 46, 0
4, 726720, Note_on_c, 2, 48, 105
4, 727032, Note_on_c, 2, 48, 0
4, 727200, Note_on_c, 2, 50, 105
4, 727512, Note_on_c, 2, 50, 0
4, 727680, Note_on_c, 2, 55, 105
4, 727872, Note_on_c, 2, 55, 0
4, 727920, Note_on_c, 2, 50, 105
4, 728112, Note_on_c, 2, 50, 0
4, 728160, Note_on_c, 2, 58, 105
4, 728352, Note_on_c, 2, 58, 0
4, 728400, Note_on_c, 2, 57, 105
4, 728592, Note_on_c, 2, 57, 0
4, 728640, Note_on_c, 2, 55, 105
4, 728832, Note_on_c, 2, 55, 0
4, 728880, Note_on_c, 2, 53, 105
4, 729072, Note_on_c, 2, 53, 0
4, 729120, Note_on_c, 2, 51, 105
4, 729312, Note_on_c, 2, 51, 0
4, 729360, Note_on_c, 2, 50, 105
4, 729552, Note_on_c, 2, 50, 0
4, 729600, Note_on_c, 2, 49, 105
4, 729792, Note_on_c, 2, 49, 0
4, 729840, Note_on_c, 2, 52, 105
4, 730032, Note_on_c, 2, 52, 0
4, 730080, Note_on_c, 2, 57, 105
4, 730272, Note_on_c, 2, 57, 0
4, 730320, Note_on_c, 2, 55, 105
4, 730512, Note_on_c, 2, 55, 0
4, 730560, Note_on_c, 2, 54, 105
4, 730752, Note_on_c, 2, 54, 0
4, 730800, Note_on_c, 2, 51, 105
4, 730992, Note_on_c, 2, 51, 0
4, 731040, Note_on_c, 2, 50, 105
4, 731232, Note_on_c, 2, 50, 0
4, 731280, Note_on_c, 2, 48, 105
4, 731472, Note_on_c, 2, 48, 0
4, 731520, Note_on_c, 2, 46, 105
4, 731904, Note_on_c, 2, 46, 0
4, 732000, Note_on_c, 2, 55, 105
4, 732768, Note_on_c, 2, 55, 0
4, 732960, Note_on_c, 2, 56, 105
4, 733824, Note_on_c, 2, 56, 0
4, 733920, Note_on_c, 2, 57, 105
4, 734688, Note_on_c, 2, 57, 0
4, 734880, Note_on_c, 2, 58, 105
4, 735744, Note_on_c, 2, 58, 0
4, 735840, Note_on_c, 2, 59, 105
4, 736608, Note_on_c, 2, 59, 0
4, 736800, Note_on_c, 2, 60, 105
4, 737664, Note_on_c, 2, 60, 0
4, 737760, Note_on_c, 2, 61, 105
4, 738528, Note_on_c, 2, 61, 0
4, 739080, Note_on_c, 2, 50, 70
4, 739080, Note_on_c, 2, 62, 70
4, 739176, Note_on_c, 2, 62, 0
4, 739176, Note_on_c, 2, 50, 0
4, 739200, Note_on_c, 2, 50, 58
4, 739200, Note_on_c, 2, 62, 58
4, 742944, Note_on_c, 2, 50, 0
4, 743040, Note_on_c, 2, 55, 58
4, 743424, Note_on_c, 2, 55, 0
4, 743424, Note_on_c, 2, 62, 0
4, 752160, Note_on_c, 2, 63, 58
4, 752400, Note_on_c, 2, 63, 0
4, 752400, Note_on_c, 2, 62, 70
4, 752592, Note_on_c, 2, 62, 0
4, 752640, Note_on_c, 2, 62, 70
4, 753024, Note_on_c, 2, 62, 0
4, 753120, Note_on_c, 2, 63, 70
4, 753360, Note_on_c, 2, 63, 0
4, 753360, Note_on_c, 2, 62, 70
4, 753552, Note_on_c, 2, 62, 0
4, 753600, Note_on_c, 2, 62, 70
4, 753984, Note_on_c, 2, 62, 0
4, 754080, Note_on_c, 2, 63, 70
4, 754320, Note_on_c, 2, 63, 0
4, 754320, Note_on_c, 2, 62, 70
4, 754512, Note_on_c, 2, 62, 0
4, 754560, Note_on_c, 2, 50, 105
4, 754560, Note_on_c, 2, 62, 105
4, 754896, Note_on_c, 2, 62, 0
4, 754896, Note_on_c, 2, 50, 0
4, 755040, Note_on_c, 2, 55, 105
4, 755040, Note_on_c, 2, 58, 105
4, 755208, Note_on_c, 2, 58, 0
4, 755208, Note_on_c, 2, 55, 0
4, 755280, Note_on_c, 2, 58, 105
4, 755280, Note_on_c, 2, 55, 105
4, 755448, Note_on_c, 2, 55, 0
4, 755448, Note_on_c, 2, 58, 0
4, 755520, Note_on_c, 2, 60, 105
4, 755520, Note_on_c, 2, 57, 105
4, 755856, Note_on_c, 2, 57, 0
4, 755856, Note_on_c, 2, 60, 0
4, 756000, Note_on_c, 2, 60, 105
4, 756000, Note_on_c, 2, 57, 105
4, 756168, Note_on_c, 2, 57, 0
4, 756168, Note_on_c, 2, 60, 0
4, 756240, Note_on_c, 2, 57, 105
4, 756240, Note_on_c, 2, 60, 105
4, 756408, Note_on_c, 2, 60, 0
4, 756408, Note_on_c, 2, 57, 0
4, 756480, Note_on_c, 2, 58, 105
4, 756480, Note_on_c, 2, 55, 105
4, 756816, Note_on_c, 2, 55, 0
4, 756816, Note_on_c, 2, 58, 0
4, 756960, Note_on_c, 2, 58, 105
4, 756960, Note_on_c, 2, 55, 105
4, 757128, Note_on_c, 2, 55, 0
4, 757128, Note_on_c, 2, 58, 0
4, 757200, Note_on_c, 2, 58, 105
4, 757200, Note_on_c, 2, 55, 105
4, 757368, Note_on_c, 2, 55, 0
4, 757368, Note_on_c, 2, 58, 0
4, 757440, Note_on_c, 2, 57, 105
4, 757440, Note_on_c, 2, 60, 105
4, 757776, Note_on_c, 2, 60, 0
4, 757776, Note_on_c, 2, 57, 0
4, 757920, Note_on_c, 2, 60, 105
4, 757920, Note_on_c, 2, 57, 105
4, 758088, Note_on_c, 2, 57, 0
4, 758088, Note_on_c, 2, 60, 0
4, 758160, Note_on_c, 2, 60, 105
4, 758160, Note_on_c, 2, 57, 105
4, 758328, Note_on_c, 2, 57, 0
4, 758328, Note_on_c, 2, 60, 0
4, 758400, Note_on_c, 2, 58, 105
4, 758400, Note_on_c, 2, 55, 105
4, 758736, Note_on_c, 2, 55, 0
4, 758736, Note_on_c, 2, 58, 0
4, 758880, Note_on_c, 2, 58, 105
4, 758880, Note_on_c, 2, 55, 105
4, 759048, Note_on_c, 2, 55, 0
4, 759048, Note_on_c, 2, 58, 0
4, 759120, Note_on_c, 2, 58, 105
4, 759120, Note_on_c, 2, 55, 105
4, 759288, Note_on_c, 2, 55, 0
4, 759288, Note_on_c, 2, 58, 0
4, 759360, Note_on_c, 2, 57, 105
4, 759360, Note_on_c, 2, 60, 105
4, 759696, Note_on_c, 2, 60, 0
4, 759696, Note_on_c, 2, 57, 0
4, 759840, Note_on_c, 2, 60, 105
4, 759840, Note_on_c, 2, 57, 105
4, 760008, Note_on_c, 2, 57, 0
4, 760008, Note_on_c, 2, 60, 0
4, 760080, Note_on_c, 2, 60, 105
4, 760080, Note_on_c, 2, 57, 105
4, 760248, Note_on_c, 2, 57, 0
4, 760248, Note_on_c, 2, 60, 0
4, 760320, Note_on_c, 2, 55, 105
4, 760320, Note_on_c, 2, 58, 105
4, 760656, Note_on_c, 2, 58, 0
4, 760656, Note_on_c, 2, 55, 0
4, 760800, Note_on_c, 2, 57, 105
4, 760800, Note_on_c, 2, 66, 105
4, 761136, Note_on_c, 2, 66, 0
4, 761136, Note_on_c, 2, 57, 0
4, 761280, Note_on_c, 2, 58, 105
4, 761280, Note_on_c, 2, 67, 105
4, 761616, Note_on_c, 2, 67, 0
4, 761616, Note_on_c, 2, 58, 0
4, 761760, Note_on_c, 2, 66, 105
4, 761760, Note_on_c, 2, 57, 105
4, 762096, Note_on_c, 2, 57, 0
4, 762096, Note_on_c, 2, 66, 0
4, 762240, Note_on_c, 2, 67, 105
4, 762240, Note_on_c, 2, 58, 105
4, 762624, Note_on_c, 2, 58, 0
4, 762624, Note_on_c, 2, 67, 0
4, 764160, Note_on_c, 2, 62, 105
4, 764160, Note_on_c, 2, 55, 105
4, 764544, Note_on_c, 2, 55, 0
4, 764544, Note_on_c, 2, 62, 0
4, 765120, Note_on_c, 2, 55, 105
4, 765120, Note_on_c, 2, 62, 105
4, 765504, Note_on_c, 2, 62, 0
4, 765504, Note_on_c, 2, 55, 0
4, 766080, Note_on_c, 2, 62, 105
4, 766080, Note_on_c, 2, 43, 105
4, 767040, Note_on_c, 2, 43, 0
4, 767040, Note_on_c, 2, 62, 0
4, 767040, End_track
5, 0, Start_track
5, 0, Sequencer_specific, 04, 43, 00, 01, 00
5, 0, Program_c, 3, 60
5, 0, Control_c, 3, 7, 119
5, 0, Control_c, 3, 91, 80
5, 0, Control_c, 3, 10, 36
5, 31680, Note_on_c, 3, 55, 105
5, 31680, Note_on_c, 3, 70, 105
5, 32640, Note_on_c, 3, 70, 0
5, 32640, Note_on_c, 3, 55, 0
5, 32640, Note_on_c, 3, 57, 105
5, 32640, Note_on_c, 3, 74, 105
5, 33024, Note_on_c, 3, 74, 0
5, 33024, Note_on_c, 3, 57, 0
5, 33600, Note_on_c, 3, 55, 105
5, 33600, Note_on_c, 3, 70, 105
5, 34560, Note_on_c, 3, 70, 0
5, 34560, Note_on_c, 3, 55, 0
5, 34560, Note_on_c, 3, 57, 105
5, 34560, Note_on_c, 3, 74, 105
5, 34944, Note_on_c, 3, 74, 0
5, 34944, Note_on_c, 3, 57, 0
5, 35520, Note_on_c, 3, 70, 105
5, 35520, Note_on_c, 3, 55, 105
5, 36480, Note_on_c, 3, 55, 0
5, 36480, Note_on_c, 3, 70, 0
5, 36480, Note_on_c, 3, 74, 105
5, 36480, Note_on_c, 3, 57, 105
5, 36768, Note_on_c, 3, 57, 0
5, 36768, Note_on_c, 3, 74, 0
5, 36960, Note_on_c, 3, 70, 105
5, 36960, Note_on_c, 3, 55, 105
5, 37248, Note_on_c, 3, 55, 0
5, 37248, Note_on_c, 3, 70, 0
5, 37440, Note_on_c, 3, 74, 105
5, 37440, Note_on_c, 3, 57, 105
5, 37728, Note_on_c, 3, 57, 0
5, 37728, Note_on_c, 3, 74, 0
5, 37920, Note_on_c, 3, 55, 105
5, 37920, Note_on_c, 3, 70, 105
5, 38208, Note_on_c, 3, 70, 0
5, 38208, Note_on_c, 3, 55, 0
5, 38400, Note_on_c, 3, 74, 105
5, 38400, Note_on_c, 3, 57, 105
5, 39168, Note_on_c, 3, 57, 0
5, 39168, Note_on_c, 3, 74, 0
5, 53760, Note_on_c, 3, 70, 105
5, 55296, Note_on_c, 3, 70, 0
5, 55680, Note_on_c, 3, 65, 105
5, 57216, Note_on_c, 3, 65, 0
5, 57600, Note_on_c, 3, 58, 105
5, 58368, Note_on_c, 3, 58, 0
5, 58560, Note_on_c, 3, 58, 105
5, 59136, Note_on_c, 3, 58, 0
5, 59280, Note_on_c, 3, 58, 105
5, 59472, Note_on_c, 3, 58, 0
5, 59520, Note_on_c, 3, 58, 105
5, 61056, Note_on_c, 3, 58, 0
5, 65280, Note_on_c, 3, 55, 112
5, 65280, Note_on_c, 3, 58, 92
5, 66816, Note_on_c, 3, 58, 0
5, 66816, Note_on_c, 3, 55, 0
5, 67200, Note_on_c, 3, 58, 92
5, 67200, Note_on_c, 3, 55, 112
5, 67968, Note_on_c, 3, 55, 0
5, 67968, Note_on_c, 3, 58, 0
5, 68160, Note_on_c, 3, 58, 92
5, 68160, Note_on_c, 3, 55, 112
5, 68928, Note_on_c, 3, 55, 0
5, 68928, Note_on_c, 3, 58, 0
5, 69120, Note_on_c, 3, 58, 92
5, 69120, Note_on_c, 3, 55, 112
5, 69888, Note_on_c, 3, 55, 0
5, 69888, Note_on_c, 3, 58, 0
5, 70080, Note_on_c, 3, 58, 92
5, 70080, Note_on_c, 3, 55, 112
5, 70848, Note_on_c, 3, 55, 0
5, 70848, Note_on_c, 3, 58, 0
5, 71040, Note_on_c, 3, 55, 112
5, 71040, Note_on_c, 3, 58, 92
5, 72576, Note_on_c, 3, 58, 0
5, 72576, Note_on_c, 3, 55, 0
5, 72960, Note_on_c, 3, 65, 92
5, 74496, Note_on_c, 3, 65, 0
5, 74880, Note_on_c, 3, 65, 105
5, 75648, Note_on_c, 3, 65, 0
5, 75840, Note_on_c, 3, 65, 105
5, 76608, Note_on_c, 3, 65, 0
5, 76800, Note_on_c, 3, 65, 105
5, 77568, Note_on_c, 3, 65, 0
5, 77760, Note_on_c, 3, 65, 105
5, 78144, Note_on_c, 3, 65, 0
5, 78240, Note_on_c, 3, 65, 105
5, 78624, Note_on_c, 3, 65, 0
5, 78720, Note_on_c, 3, 65, 105
5, 79104, Note_on_c, 3, 65, 0
5, 79200, Note_on_c, 3, 65, 105
5, 79584, Note_on_c, 3, 65, 0
5, 79680, Note_on_c, 3, 65, 105
5, 80064, Note_on_c, 3, 65, 0
5, 80640, Note_on_c, 3, 65, 105
5, 81024, Note_on_c, 3, 65, 0
5, 81600, Note_on_c, 3, 65, 92
5, 81984, Note_on_c, 3, 65, 0
5, 119040, Note_on_c, 3, 58, 70
5, 119040, Note_on_c, 3, 55, 70
5, 120576, Note_on_c, 3, 55, 0
5, 120576, Note_on_c, 3, 58, 0
5, 120960, Note_on_c, 3, 58, 92
5, 120960, Note_on_c, 3, 67, 92
5, 122496, Note_on_c, 3, 67, 0
5, 122496, Note_on_c, 3, 58, 0
5, 122880, Note_on_c, 3, 65, 92
5, 123648, Note_on_c, 3, 65, 0
5, 123840, Note_on_c, 3, 65, 105
5, 124488, Note_on_c, 3, 65, 0
5, 124560, Note_on_c, 3, 65, 105
5, 124704, Note_on_c, 3, 65, 0
5, 124800, Note_on_c, 3, 65, 105
5, 125568, Note_on_c, 3, 65, 0
5, 125760, Note_on_c, 3, 65, 105
5, 126528, Note_on_c, 3, 65, 0
5, 126720, Note_on_c, 3, 58, 105
5, 127104, Note_on_c, 3, 58, 0
5, 130560, Note_on_c, 3, 70, 105
5, 130944, Note_on_c, 3, 70, 0
5, 131520, Note_on_c, 3, 70, 105
5, 131904, Note_on_c, 3, 70, 0
5, 132480, Note_on_c, 3, 65, 105
5, 132864, Note_on_c, 3, 65, 0
5, 133440, Note_on_c, 3, 65, 105
5, 133824, Note_on_c, 3, 65, 0
5, 147840, Note_on_c, 3, 62, 105
5, 147840, Note_on_c, 3, 69, 105
5, 149376, Note_on_c, 3, 69, 0
5, 149376, Note_on_c, 3, 62, 0
5, 149760, Note_on_c, 3, 58, 105
5, 149760, Note_on_c, 3, 55, 105
5, 150528, Note_on_c, 3, 55, 0
5, 150528, Note_on_c, 3, 58, 0
5, 152640, Note_on_c, 3, 65, 105
5, 153024, Note_on_c, 3, 65, 0
5, 153600, Note_on_c, 3, 62, 105
5, 153600, Note_on_c, 3, 65, 105
5, 153984, Note_on_c, 3, 65, 0
5, 153984, Note_on_c, 3, 62, 0
5, 163200, Note_on_c, 3, 69, 92
5, 163200, Note_on_c, 3, 62, 92
5, 164736, Note_on_c, 3, 62, 0
5, 164736, Note_on_c, 3, 69, 0
5, 165120, Note_on_c, 3, 58, 105
5, 165120, Note_on_c, 3, 55, 105
5, 165888, Note_on_c, 3, 55, 0
5, 165888, Note_on_c, 3, 58, 0
5, 168000, Note_on_c, 3, 65, 105
5, 168384, Note_on_c, 3, 65, 0
5, 168960, Note_on_c, 3, 62, 105
5, 168960, Note_on_c, 3, 65, 105
5, 169344, Note_on_c, 3, 65, 0
5, 169344, Note_on_c, 3, 62, 0
5, 173280, Note_on_c, 3, 58, 105
5, 173616, Note_on_c, 3, 58, 0
5, 173760, Note_on_c, 3, 58, 105
5, 174096, Note_on_c, 3, 58, 0
5, 174240, Note_on_c, 3, 65, 105
5, 174576, Note_on_c, 3, 65, 0
5, 174720, Note_on_c, 3, 62, 105
5, 174720, Note_on_c, 3, 65, 105
5, 175104, Note_on_c, 3, 65, 0
5, 175104, Note_on_c, 3, 62, 0
5, 179040, Note_on_c, 3, 58, 105
5, 179376, Note_on_c, 3, 58, 0
5, 179520, Note_on_c, 3, 58, 105
5, 179856, Note_on_c, 3, 58, 0
5, 180000, Note_on_c, 3, 65, 105
5, 180336, Note_on_c, 3, 65, 0
5, 180480, Note_on_c, 3, 70, 105
5, 180816, Note_on_c, 3, 70, 0
5, 180960, Note_on_c, 3, 70, 105
5, 181296, Note_on_c, 3, 70, 0
5, 181440, Note_on_c, 3, 70, 105
5, 181776, Note_on_c, 3, 70, 0
5, 181920, Note_on_c, 3, 65, 105
5, 182256, Note_on_c, 3, 65, 0
5, 182400, Note_on_c, 3, 62, 105
5, 182400, Note_on_c, 3, 65, 105
5, 182760, Note_on_c, 3, 65, 0
5, 182760, Note_on_c, 3, 62, 0
5, 182880, Note_on_c, 3, 65, 105
5, 183060, Note_on_c, 3, 65, 0
5, 183120, Note_on_c, 3, 65, 105
5, 183300, Note_on_c, 3, 65, 0
5, 183360, Note_on_c, 3, 65, 105
5, 183720, Note_on_c, 3, 65, 0
5, 183840, Note_on_c, 3, 65, 105
5, 184020, Note_on_c, 3, 65, 0
5, 184080, Note_on_c, 3, 65, 105
5, 184260, Note_on_c, 3, 65, 0
5, 184320, Note_on_c, 3, 62, 105
5, 184320, Note_on_c, 3, 65, 105
5, 184680, Note_on_c, 3, 65, 0
5, 184680, Note_on_c, 3, 62, 0
5, 184800, Note_on_c, 3, 65, 105
5, 184980, Note_on_c, 3, 65, 0
5, 185040, Note_on_c, 3, 65, 105
5, 185220, Note_on_c, 3, 65, 0
5, 185280, Note_on_c, 3, 65, 105
5, 185640, Note_on_c, 3, 65, 0
5, 185760, Note_on_c, 3, 65, 105
5, 185940, Note_on_c, 3, 65, 0
5, 186000, Note_on_c, 3, 65, 105
5, 186180, Note_on_c, 3, 65, 0
5, 186240, Note_on_c, 3, 62, 105
5, 186240, Note_on_c, 3, 65, 105
5, 186600, Note_on_c, 3, 65, 0
5, 186600, Note_on_c, 3, 62, 0
5, 186720, Note_on_c, 3, 65, 105
5, 186900, Note_on_c, 3, 65, 0
5, 186960, Note_on_c, 3, 65, 105
5, 187140, Note_on_c, 3, 65, 0
5, 187200, Note_on_c, 3, 65, 105
5, 187560, Note_on_c, 3, 65, 0
5, 187680, Note_on_c, 3, 65, 105
5, 187860, Note_on_c, 3, 65, 0
5, 187920, Note_on_c, 3, 65, 105
5, 188100, Note_on_c, 3, 65, 0
5, 188160, Note_on_c, 3, 65, 105
5, 188520, Note_on_c, 3, 65, 0
5, 188640, Note_on_c, 3, 65, 105
5, 189000, Note_on_c, 3, 65, 0
5, 189120, Note_on_c, 3, 65, 105
5, 189480, Note_on_c, 3, 65, 0
5, 189600, Note_on_c, 3, 65, 105
5, 189960, Note_on_c, 3, 65, 0
5, 190080, Note_on_c, 3, 65, 105
5, 190464, Note_on_c, 3, 65, 0
5, 192000, Note_on_c, 3, 62, 105
5, 192384, Note_on_c, 3, 62, 0
5, 223680, Note_on_c, 3, 55, 105
5, 223680, Note_on_c, 3, 70, 105
5, 224640, Note_on_c, 3, 70, 0
5, 224640, Note_on_c, 3, 55, 0
5, 224640, Note_on_c, 3, 57, 105
5, 224640, Note_on_c, 3, 74, 105
5, 225024, Note_on_c, 3, 74, 0
5, 225024, Note_on_c, 3, 57, 0
5, 225600, Note_on_c, 3, 55, 105
5, 225600, Note_on_c, 3, 70, 105
5, 226560, Note_on_c, 3, 70, 0
5, 226560, Note_on_c, 3, 55, 0
5, 226560, Note_on_c, 3, 57, 105
5, 226560, Note_on_c, 3, 74, 105
5, 226944, Note_on_c, 3, 74, 0
5, 226944, Note_on_c, 3, 57, 0
5, 227520, Note_on_c, 3, 70, 105
5, 227520, Note_on_c, 3, 55, 105
5, 228480, Note_on_c, 3, 55, 0
5, 228480, Note_on_c, 3, 70, 0
5, 228480, Note_on_c, 3, 74, 105
5, 228480, Note_on_c, 3, 57, 105
5, 228768, Note_on_c, 3, 57, 0
5, 228768, Note_on_c, 3, 74, 0
5, 228960, Note_on_c, 3, 70, 105
5, 228960, Note_on_c, 3, 55, 105
5, 229248, Note_on_c, 3, 55, 0
5, 229248, Note_on_c, 3, 70, 0
5, 229440, Note_on_c, 3, 74, 105
5, 229440, Note_on_c, 3, 57, 105
5, 229728, Note_on_c, 3, 57, 0
5, 229728, Note_on_c, 3, 74, 0
5, 229920, Note_on_c, 3, 55, 105
5, 229920, Note_on_c, 3, 70, 105
5, 230208, Note_on_c, 3, 70, 0
5, 230208, Note_on_c, 3, 55, 0
5, 230400, Note_on_c, 3, 74, 105
5, 230400, Note_on_c, 3, 57, 105
5, 231168, Note_on_c, 3, 57, 0
5, 231168, Note_on_c, 3, 74, 0
5, 245760, Note_on_c, 3, 70, 105
5, 247296, Note_on_c, 3, 70, 0
5, 247680, Note_on_c, 3, 65, 105
5, 249216, Note_on_c, 3, 65, 0
5, 249600, Note_on_c, 3, 58, 105
5, 250368, Note_on_c, 3, 58, 0
5, 250560, Note_on_c, 3, 58, 105
5, 251136, Note_on_c, 3, 58, 0
5, 251280, Note_on_c, 3, 58, 105
5, 251472, Note_on_c, 3, 58, 0
5, 251520, Note_on_c, 3, 58, 105
5, 253056, Note_on_c, 3, 58, 0
5, 257280, Note_on_c, 3, 55, 112
5, 257280, Note_on_c, 3, 58, 92
5, 258816, Note_on_c, 3, 58, 0
5, 258816, Note_on_c, 3, 55, 0
5, 259200, Note_on_c, 3, 58, 92
5, 259200, Note_on_c, 3, 55, 112
5, 259968, Note_on_c, 3, 55, 0
5, 259968, Note_on_c, 3, 58, 0
5, 260160, Note_on_c, 3, 58, 92
5, 260160, Note_on_c, 3, 55, 112
5, 260928, Note_on_c, 3, 55, 0
5, 260928, Note_on_c, 3, 58, 0
5, 261120, Note_on_c, 3, 58, 92
5, 261120, Note_on_c, 3, 55, 112
5, 261888, Note_on_c, 3, 55, 0
5, 261888, Note_on_c, 3, 58, 0
5, 262080, Note_on_c, 3, 58, 92
5, 262080, Note_on_c, 3, 55, 112
5, 262848, Note_on_c, 3, 55, 0
5, 262848, Note_on_c, 3, 58, 0
5, 263040, Note_on_c, 3, 55, 112
5, 263040, Note_on_c, 3, 58, 92
5, 264576, Note_on_c, 3, 58, 0
5, 264576, Note_on_c, 3, 55, 0
5, 264960, Note_on_c, 3, 65, 92
5, 266496, Note_on_c, 3, 65, 0
5, 266880, Note_on_c, 3, 65, 105
5, 267648, Note_on_c, 3, 65, 0
5, 267840, Note_on_c, 3, 65, 105
5, 268608, Note_on_c, 3, 65, 0
5, 268800, Note_on_c, 3, 65, 105
5, 269568, Note_on_c, 3, 65, 0
5, 269760, Note_on_c, 3, 65, 105
5, 270144, Note_on_c, 3, 65, 0
5, 270240, Note_on_c, 3, 65, 105
5, 270624, Note_on_c, 3, 65, 0
5, 270720, Note_on_c, 3, 65, 105
5, 271104, Note_on_c, 3, 65, 0
5, 271200, Note_on_c, 3, 65, 105
5, 271584, Note_on_c, 3, 65, 0
5, 271680, Note_on_c, 3, 65, 105
5, 272064, Note_on_c, 3, 65, 0
5, 272640, Note_on_c, 3, 65, 105
5, 273024, Note_on_c, 3, 65, 0
5, 273600, Note_on_c, 3, 65, 92
5, 273984, Note_on_c, 3, 65, 0
5, 311040, Note_on_c, 3, 58, 70
5, 311040, Note_on_c, 3, 55, 70
5, 312576, Note_on_c, 3, 55, 0
5, 312576, Note_on_c, 3, 58, 0
5, 312960, Note_on_c, 3, 58, 92
5, 312960, Note_on_c, 3, 67, 92
5, 314496, Note_on_c, 3, 67, 0
5, 314496, Note_on_c, 3, 58, 0
5, 314880, Note_on_c, 3, 65, 92
5, 315648, Note_on_c, 3, 65, 0
5, 315840, Note_on_c, 3, 65, 105
5, 316488, Note_on_c, 3, 65, 0
5, 316560, Note_on_c, 3, 65, 105
5, 316704, Note_on_c, 3, 65, 0
5, 316800, Note_on_c, 3, 65, 105
5, 317568, Note_on_c, 3, 65, 0
5, 317760, Note_on_c, 3, 65, 105
5, 318528, Note_on_c, 3, 65, 0
5, 318720, Note_on_c, 3, 58, 105
5, 319104, Note_on_c, 3, 58, 0
5, 322560, Note_on_c, 3, 70, 105
5, 322944, Note_on_c, 3, 70, 0
5, 323520, Note_on_c, 3, 70, 105
5, 323904, Note_on_c, 3, 70, 0
5, 324480, Note_on_c, 3, 65, 105
5, 324864, Note_on_c, 3, 65, 0
5, 325440, Note_on_c, 3, 65, 105
5, 325824, Note_on_c, 3, 65, 0
5, 339840, Note_on_c, 3, 62, 105
5, 339840, Note_on_c, 3, 69, 105
5, 341376, Note_on_c, 3, 69, 0
5, 341376, Note_on_c, 3, 62, 0
5, 341760, Note_on_c, 3, 58, 105
5, 341760, Note_on_c, 3, 55, 105
5, 342528, Note_on_c, 3, 55, 0
5, 342528, Note_on_c, 3, 58, 0
5, 344640, Note_on_c, 3, 65, 105
5, 345024, Note_on_c, 3, 65, 0
5, 345600, Note_on_c, 3, 62, 105
5, 345600, Note_on_c, 3, 65, 105
5, 345984, Note_on_c, 3, 65, 0
5, 345984, Note_on_c, 3, 62, 0
5, 355200, Note_on_c, 3, 69, 92
5, 355200, Note_on_c, 3, 62, 92
5, 356736, Note_on_c, 3, 62, 0
5, 356736, Note_on_c, 3, 69, 0
5, 357120, Note_on_c, 3, 58, 105
5, 357120, Note_on_c, 3, 55, 105
5, 357888, Note_on_c, 3, 55, 0
5, 357888, Note_on_c, 3, 58, 0
5, 360000, Note_on_c, 3, 65, 105
5, 360384, Note_on_c, 3, 65, 0
5, 360960, Note_on_c, 3, 62, 105
5, 360960, Note_on_c, 3, 65, 105
5, 361344, Note_on_c, 3, 65, 0
5, 361344, Note_on_c, 3, 62, 0
5, 365280, Note_on_c, 3, 58, 105
5, 365616, Note_on_c, 3, 58, 0
5, 365760, Note_on_c, 3, 58, 105
5, 366096, Note_on_c, 3, 58, 0
5, 366240, Note_on_c, 3, 65, 105
5, 366576, Note_on_c, 3, 65, 0
5, 366720, Note_on_c, 3, 62, 105
5, 366720, Note_on_c, 3, 65, 105
5, 367104, Note_on_c, 3, 65, 0
5, 367104, Note_on_c, 3, 62, 0
5, 371040, Note_on_c, 3, 58, 105
5, 371376, Note_on_c, 3, 58, 0
5, 371520, Note_on_c, 3, 58, 105
5, 371856, Note_on_c, 3, 58, 0
5, 372000, Note_on_c, 3, 65, 105
5, 372336, Note_on_c, 3, 65, 0
5, 372480, Note_on_c, 3, 70, 105
5, 372816, Note_on_c, 3, 70, 0
5, 372960, Note_on_c, 3, 70, 105
5, 373296, Note_on_c, 3, 70, 0
5, 373440, Note_on_c, 3, 70, 105
5, 373776, Note_on_c, 3, 70, 0
5, 373920, Note_on_c, 3, 65, 105
5, 374256, Note_on_c, 3, 65, 0
5, 374400, Note_on_c, 3, 62, 105
5, 374400, Note_on_c, 3, 65, 105
5, 374760, Note_on_c, 3, 65, 0
5, 374760, Note_on_c, 3, 62, 0
5, 374880, Note_on_c, 3, 65, 105
5, 375060, Note_on_c, 3, 65, 0
5, 375120, Note_on_c, 3, 65, 105
5, 375300, Note_on_c, 3, 65, 0
5, 375360, Note_on_c, 3, 65, 105
5, 375720, Note_on_c, 3, 65, 0
5, 375840, Note_on_c, 3, 65, 105
5, 376020, Note_on_c, 3, 65, 0
5, 376080, Note_on_c, 3, 65, 105
5, 376260, Note_on_c, 3, 65, 0
5, 376320, Note_on_c, 3, 62, 105
5, 376320, Note_on_c, 3, 65, 105
5, 376680, Note_on_c, 3, 65, 0
5, 376680, Note_on_c, 3, 62, 0
5, 376800, Note_on_c, 3, 65, 105
5, 376980, Note_on_c, 3, 65, 0
5, 377040, Note_on_c, 3, 65, 105
5, 377220, Note_on_c, 3, 65, 0
5, 377280, Note_on_c, 3, 65, 105
5, 377640, Note_on_c, 3, 65, 0
5, 377760, Note_on_c, 3, 65, 105
5, 377940, Note_on_c, 3, 65, 0
5, 378000, Note_on_c, 3, 65, 105
5, 378180, Note_on_c, 3, 65, 0
5, 378240, Note_on_c, 3, 62, 105
5, 378240, Note_on_c, 3, 65, 105
5, 378600, Note_on_c, 3, 65, 0
5, 378600, Note_on_c, 3, 62, 0
5, 378720, Note_on_c, 3, 65, 105
5, 378900, Note_on_c, 3, 65, 0
5, 378960, Note_on_c, 3, 65, 105
5, 379140, Note_on_c, 3, 65, 0
5, 379200, Note_on_c, 3, 65, 105
5, 379560, Note_on_c, 3, 65, 0
5, 379680, Note_on_c, 3, 65, 105
5, 379860, Note_on_c, 3, 65, 0
5, 379920, Note_on_c, 3, 65, 105
5, 380100, Note_on_c, 3, 65, 0
5, 380160, Note_on_c, 3, 65, 105
5, 380520, Note_on_c, 3, 65, 0
5, 380640, Note_on_c, 3, 65, 105
5, 381000, Note_on_c, 3, 65, 0
5, 381120, Note_on_c, 3, 65, 105
5, 381480, Note_on_c, 3, 65, 0
5, 381600, Note_on_c, 3, 65, 105
5, 381960, Note_on_c, 3, 65, 0
5, 382080, Note_on_c, 3, 65, 105
5, 382464, Note_on_c, 3, 65, 0
5, 384000, Note_on_c, 3, 62, 105
5, 384384, Note_on_c, 3, 62, 0
5, 385920, Note_on_c, 3, 62, 105
5, 385920, Note_on_c, 3, 58, 105
5, 386304, Note_on_c, 3, 58, 0
5, 386304, Note_on_c, 3, 62, 0
5, 386880, Note_on_c, 3, 65, 105
5, 386880, Note_on_c, 3, 62, 105
5, 387264, Note_on_c, 3, 62, 0
5, 387264, Note_on_c, 3, 65, 0
5, 412800, Note_on_c, 3, 59, 105
5, 413568, Note_on_c, 3, 59, 0
5, 413760, Note_on_c, 3, 59, 105
5, 414336, Note_on_c, 3, 59, 0
5, 414480, Note_on_c, 3, 59, 105
5, 414672, Note_on_c, 3, 59, 0
5, 414720, Note_on_c, 3, 59, 105
5, 415104, Note_on_c, 3, 59, 0
5, 415200, Note_on_c, 3, 67, 105
5, 415584, Note_on_c, 3, 67, 0
5, 418560, Note_on_c, 3, 69, 105
5, 420096, Note_on_c, 3, 69, 0
5, 420480, Note_on_c, 3, 69, 105
5, 421248, Note_on_c, 3, 69, 0
5, 421440, Note_on_c, 3, 69, 105
5, 422208, Note_on_c, 3, 69, 0
5, 422400, Note_on_c, 3, 69, 105
5, 422400, Note_on_c, 3, 62, 105
5, 423936, Note_on_c, 3, 62, 0
5, 423936, Note_on_c, 3, 69, 0
5, 424320, Note_on_c, 3, 62, 105
5, 424320, Note_on_c, 3, 50, 105
5, 425088, Note_on_c, 3, 50, 0
5, 425088, Note_on_c, 3, 62, 0
5, 425280, Note_on_c, 3, 50, 105
5, 425280, Note_on_c, 3, 62, 105
5, 426048, Note_on_c, 3, 62, 0
5, 426048, Note_on_c, 3, 50, 0
5, 426240, Note_on_c, 3, 62, 105
5, 426240, Note_on_c, 3, 55, 105
5, 426624, Note_on_c, 3, 55, 0
5, 426624, Note_on_c, 3, 62, 0
5, 426720, Note_on_c, 3, 58, 105
5, 426720, Note_on_c, 3, 55, 105
5, 427104, Note_on_c, 3, 55, 0
5, 427104, Note_on_c, 3, 58, 0
5, 428160, Note_on_c, 3, 55, 105
5, 428928, Note_on_c, 3, 55, 0
5, 429120, Note_on_c, 3, 55, 105
5, 429696, Note_on_c, 3, 55, 0
5, 429840, Note_on_c, 3, 55, 105
5, 430032, Note_on_c, 3, 55, 0
5, 430080, Note_on_c, 3, 55, 105
5, 430080, Note_on_c, 3, 72, 105
5, 430848, Note_on_c, 3, 55, 0
5, 431808, Note_on_c, 3, 72, 0
5, 432000, Note_on_c, 3, 72, 105
5, 432768, Note_on_c, 3, 72, 0
5, 432960, Note_on_c, 3, 72, 105
5, 433728, Note_on_c, 3, 72, 0
5, 433920, Note_on_c, 3, 65, 105
5, 435456, Note_on_c, 3, 65, 0
5, 435840, Note_on_c, 3, 65, 105
5, 436608, Note_on_c, 3, 65, 0
5, 436800, Note_on_c, 3, 65, 105
5, 437376, Note_on_c, 3, 65, 0
5, 437520, Note_on_c, 3, 65, 105
5, 437712, Note_on_c, 3, 65, 0
5, 437760, Note_on_c, 3, 65, 105
5, 437760, Note_on_c, 3, 62, 105
5, 439296, Note_on_c, 3, 62, 0
5, 439296, Note_on_c, 3, 65, 0
5, 439680, Note_on_c, 3, 58, 105
5, 440064, Note_on_c, 3, 58, 0
5, 440640, Note_on_c, 3, 58, 105
5, 441024, Note_on_c, 3, 58, 0
5, 443520, Note_on_c, 3, 69, 105
5, 443904, Note_on_c, 3, 69, 0
5, 444480, Note_on_c, 3, 62, 105
5, 444480, Note_on_c, 3, 69, 105
5, 444864, Note_on_c, 3, 69, 0
5, 444864, Note_on_c, 3, 62, 0
5, 445440, Note_on_c, 3, 74, 105
5, 445440, Note_on_c, 3, 62, 105
5, 446400, Note_on_c, 3, 62, 0
5, 446400, Note_on_c, 3, 67, 105
5, 446784, Note_on_c, 3, 67, 0
5, 446784, Note_on_c, 3, 74, 0
5, 449280, Note_on_c, 3, 69, 105
5, 450816, Note_on_c, 3, 69, 0
5, 451200, Note_on_c, 3, 69, 105
5, 451968, Note_on_c, 3, 69, 0
5, 452160, Note_on_c, 3, 69, 105
5, 452928, Note_on_c, 3, 69, 0
5, 453120, Note_on_c, 3, 69, 105
5, 454656, Note_on_c, 3, 69, 0
5, 455040, Note_on_c, 3, 69, 105
5, 455808, Note_on_c, 3, 69, 0
5, 456000, Note_on_c, 3, 69, 105
5, 456768, Note_on_c, 3, 69, 0
5, 456960, Note_on_c, 3, 69, 105
5, 457728, Note_on_c, 3, 69, 0
5, 485760, Note_on_c, 3, 50, 105
5, 485760, Note_on_c, 3, 62, 105
5, 487564, Note_on_c, 3, 62, 0
5, 487564, Note_on_c, 3, 50, 0
5, 487680, Note_on_c, 3, 62, 105
5, 487680, Note_on_c, 3, 50, 105
5, 489484, Note_on_c, 3, 50, 0
5, 489484, Note_on_c, 3, 62, 0
5, 489600, Note_on_c, 3, 62, 105
5, 489600, Note_on_c, 3, 50, 105
5, 491404, Note_on_c, 3, 50, 0
5, 491404, Note_on_c, 3, 62, 0
5, 491520, Note_on_c, 3, 62, 105
5, 491520, Note_on_c, 3, 50, 105
5, 493324, Note_on_c, 3, 50, 0
5, 493324, Note_on_c, 3, 62, 0
5, 493440, Note_on_c, 3, 62, 105
5, 493440, Note_on_c, 3, 50, 105
5, 495244, Note_on_c, 3, 50, 0
5, 495244, Note_on_c, 3, 62, 0
5, 495360, Note_on_c, 3, 50, 105
5, 495360, Note_on_c, 3, 62, 105
5, 496512, Note_on_c, 3, 62, 0
5, 496512, Note_on_c, 3, 50, 0
5, 496800, Note_on_c, 3, 62, 105
5, 496800, Note_on_c, 3, 50, 105
5, 497184, Note_on_c, 3, 50, 0
5, 497184, Note_on_c, 3, 62, 0
5, 497280, Note_on_c, 3, 62, 105
5, 497280, Note_on_c, 3, 50, 105
5, 497616, Note_on_c, 3, 50, 0
5, 497616, Note_on_c, 3, 62, 0
5, 497760, Note_on_c, 3, 62, 105
5, 497760, Note_on_c, 3, 50, 105
5, 498096, Note_on_c, 3, 50, 0
5, 498096, Note_on_c, 3, 62, 0
5, 498240, Note_on_c, 3, 50, 105
5, 498240, Note_on_c, 3, 62, 105
5, 498576, Note_on_c, 3, 62, 0
5, 498576, Note_on_c, 3, 50, 0
5, 498720, Note_on_c, 3, 62, 105
5, 498720, Note_on_c, 3, 50, 105
5, 499056, Note_on_c, 3, 50, 0
5, 499056, Note_on_c, 3, 62, 0
5, 499200, Note_on_c, 3, 62, 92
5, 499200, Note_on_c, 3, 50, 92
5, 499584, Note_on_c, 3, 50, 0
5, 499584, Note_on_c, 3, 62, 0
5, 506880, Note_on_c, 3, 62, 58
5, 506880, Note_on_c, 3, 50, 58
5, 510720, Note_on_c, 3, 50, 0
5, 510720, Note_on_c, 3, 55, 58
5, 511104, Note_on_c, 3, 55, 0
5, 511104, Note_on_c, 3, 62, 0
5, 558720, Note_on_c, 3, 58, 105
5, 558720, Note_on_c, 3, 55, 105
5, 560256, Note_on_c, 3, 55, 0
5, 560256, Note_on_c, 3, 58, 0
5, 560640, Note_on_c, 3, 50, 105
5, 560640, Note_on_c, 3, 65, 105
5, 562176, Note_on_c, 3, 65, 0
5, 562176, Note_on_c, 3, 50, 0
5, 568320, Note_on_c, 3, 58, 105
5, 569856, Note_on_c, 3, 58, 0
5, 570240, Note_on_c, 3, 60, 105
5, 570240, Note_on_c, 3, 55, 105
5, 571008, Note_on_c, 3, 55, 0
5, 571008, Note_on_c, 3, 60, 0
5, 571200, Note_on_c, 3, 55, 105
5, 571200, Note_on_c, 3, 60, 105
5, 571968, Note_on_c, 3, 60, 0
5, 571968, Note_on_c, 3, 55, 0
5, 572160, Note_on_c, 3, 65, 116
5, 573696, Note_on_c, 3, 65, 0
5, 574080, Note_on_c, 3, 72, 116
5, 575616, Note_on_c, 3, 72, 0
5, 581760, Note_on_c, 3, 65, 105
5, 582528, Note_on_c, 3, 65, 0
5, 582720, Note_on_c, 3, 65, 105
5, 583104, Note_on_c, 3, 65, 0
5, 583200, Note_on_c, 3, 65, 105
5, 583584, Note_on_c, 3, 65, 0
5, 583680, Note_on_c, 3, 58, 105
5, 584448, Note_on_c, 3, 58, 0
5, 584640, Note_on_c, 3, 58, 105
5, 585024, Note_on_c, 3, 58, 0
5, 585120, Note_on_c, 3, 58, 105
5, 585504, Note_on_c, 3, 58, 0
5, 585600, Note_on_c, 3, 58, 105
5, 585600, Note_on_c, 3, 67, 105
5, 586368, Note_on_c, 3, 67, 0
5, 586368, Note_on_c, 3, 58, 0
5, 586560, Note_on_c, 3, 67, 92
5, 586560, Note_on_c, 3, 72, 92
5, 586944, Note_on_c, 3, 72, 0
5, 586944, Note_on_c, 3, 67, 0
5, 587040, Note_on_c, 3, 72, 92
5, 587040, Note_on_c, 3, 67, 92
5, 587424, Note_on_c, 3, 67, 0
5, 587424, Note_on_c, 3, 72, 0
5, 587520, Note_on_c, 3, 72, 92
5, 587520, Note_on_c, 3, 67, 92
5, 588288, Note_on_c, 3, 67, 0
5, 588288, Note_on_c, 3, 72, 0
5, 588480, Note_on_c, 3, 55, 92
5, 588480, Note_on_c, 3, 72, 92
5, 588864, Note_on_c, 3, 72, 0
5, 588960, Note_on_c, 3, 72, 92
5, 589344, Note_on_c, 3, 72, 0
5, 589344, Note_on_c, 3, 55, 0
5, 589440, Note_on_c, 3, 72, 92
5, 589920, Note_on_c, 3, 69, 92
5, 590304, Note_on_c, 3, 69, 0
5, 590304, Note_on_c, 3, 72, 0
5, 590400, Note_on_c, 3, 72, 92
5, 590400, Note_on_c, 3, 69, 92
5, 590784, Note_on_c, 3, 69, 0
5, 590880, Note_on_c, 3, 69, 92
5, 591264, Note_on_c, 3, 69, 0
5, 591264, Note_on_c, 3, 72, 0
5, 591360, Note_on_c, 3, 74, 92
5, 591360, Note_on_c, 3, 67, 92
5, 592128, Note_on_c, 3, 67, 0
5, 592128, Note_on_c, 3, 74, 0
5, 592320, Note_on_c, 3, 67, 92
5, 592320, Note_on_c, 3, 74, 92
5, 592704, Note_on_c, 3, 74, 0
5, 592704, Note_on_c, 3, 67, 0
5, 592800, Note_on_c, 3, 67, 92
5, 592800, Note_on_c, 3, 74, 92
5, 593184, Note_on_c, 3, 74, 0
5, 593184, Note_on_c, 3, 67, 0
5, 593280, Note_on_c, 3, 67, 92
5, 593280, Note_on_c, 3, 72, 92
5, 594048, Note_on_c, 3, 72, 0
5, 594048, Note_on_c, 3, 67, 0
5, 594240, Note_on_c, 3, 72, 92
5, 594240, Note_on_c, 3, 55, 92
5, 594624, Note_on_c, 3, 55, 0
5, 594720, Note_on_c, 3, 55, 92
5, 595104, Note_on_c, 3, 55, 0
5, 595104, Note_on_c, 3, 72, 0
5, 595200, Note_on_c, 3, 62, 92
5, 595200, Note_on_c, 3, 72, 92
5, 595968, Note_on_c, 3, 72, 0
5, 595968, Note_on_c, 3, 62, 0
5, 596160, Note_on_c, 3, 72, 92
5, 596160, Note_on_c, 3, 62, 92
5, 596544, Note_on_c, 3, 62, 0
5, 596544, Note_on_c, 3, 72, 0
5, 596640, Note_on_c, 3, 62, 92
5, 596640, Note_on_c, 3, 72, 92
5, 597024, Note_on_c, 3, 72, 0
5, 597024, Note_on_c, 3, 62, 0
5, 597120, Note_on_c, 3, 70, 92
5, 597120, Note_on_c, 3, 62, 105
5, 598944, Note_on_c, 3, 62, 0
5, 598944, Note_on_c, 3, 70, 0
5, 599040, Note_on_c, 3, 50, 105
5, 599040, Note_on_c, 3, 74, 105
5, 600864, Note_on_c, 3, 74, 0
5, 600864, Note_on_c, 3, 50, 0
5, 602880, Note_on_c, 3, 62, 105
5, 602880, Note_on_c, 3, 67, 105
5, 604416, Note_on_c, 3, 67, 0
5, 604416, Note_on_c, 3, 62, 0
5, 606720, Note_on_c, 3, 62, 105
5, 606720, Note_on_c, 3, 55, 105
5, 608256, Note_on_c, 3, 55, 0
5, 608256, Note_on_c, 3, 62, 0
5, 608640, Note_on_c, 3, 55, 125
5, 610176, Note_on_c, 3, 55, 0
5, 610560, Note_on_c, 3, 55, 125
5, 611328, Note_on_c, 3, 55, 0
5, 611520, Note_on_c, 3, 55, 125
5, 612288, Note_on_c, 3, 55, 0
5, 612480, Note_on_c, 3, 55, 125
5, 613248, Note_on_c, 3, 55, 0
5, 613440, Note_on_c, 3, 55, 125
5, 614208, Note_on_c, 3, 55, 0
5, 614400, Note_on_c, 3, 55, 125
5, 615168, Note_on_c, 3, 55, 0
5, 615360, Note_on_c, 3, 55, 125
5, 616128, Note_on_c, 3, 55, 0
5, 616320, Note_on_c, 3, 62, 105
5, 616320, Note_on_c, 3, 50, 105
5, 617856, Note_on_c, 3, 50, 0
5, 617856, Note_on_c, 3, 62, 0
5, 618240, Note_on_c, 3, 62, 105
5, 618240, Note_on_c, 3, 50, 105
5, 619008, Note_on_c, 3, 50, 0
5, 619008, Note_on_c, 3, 62, 0
5, 619200, Note_on_c, 3, 50, 105
5, 619200, Note_on_c, 3, 62, 105
5, 619968, Note_on_c, 3, 62, 0
5, 619968, Note_on_c, 3, 50, 0
5, 620160, Note_on_c, 3, 62, 105
5, 620160, Note_on_c, 3, 50, 105
5, 620928, Note_on_c, 3, 50, 0
5, 620928, Note_on_c, 3, 62, 0
5, 621120, Note_on_c, 3, 62, 105
5, 621120, Note_on_c, 3, 50, 105
5, 621504, Note_on_c, 3, 50, 0
5, 621504, Note_on_c, 3, 62, 0
5, 621600, Note_on_c, 3, 50, 105
5, 621600, Note_on_c, 3, 62, 105
5, 621984, Note_on_c, 3, 62, 0
5, 621984, Note_on_c, 3, 50, 0
5, 622080, Note_on_c, 3, 62, 105
5, 622080, Note_on_c, 3, 50, 105
5, 622464, Note_on_c, 3, 50, 0
5, 622464, Note_on_c, 3, 62, 0
5, 622560, Note_on_c, 3, 50, 105
5, 622560, Note_on_c, 3, 62, 105
5, 622944, Note_on_c, 3, 62, 0
5, 622944, Note_on_c, 3, 50, 0
5, 623040, Note_on_c, 3, 50, 105
5, 623040, Note_on_c, 3, 62, 105
5, 623424, Note_on_c, 3, 62, 0
5, 623424, Note_on_c, 3, 50, 0
5, 623520, Note_on_c, 3, 62, 105
5, 623520, Note_on_c, 3, 50, 105
5, 623904, Note_on_c, 3, 50, 0
5, 623904, Note_on_c, 3, 62, 0
5, 624000, Note_on_c, 3, 62, 105
5, 624000, Note_on_c, 3, 50, 105
5, 624384, Note_on_c, 3, 50, 0
5, 624384, Note_on_c, 3, 62, 0
5, 624960, Note_on_c, 3, 50, 92
5, 624960, Note_on_c, 3, 62, 92
5, 625344, Note_on_c, 3, 62, 0
5, 625344, Note_on_c, 3, 50, 0
5, 654720, Note_on_c, 3, 58, 58
5, 662304, Note_on_c, 3, 58, 0
5, 662400, Note_on_c, 3, 65, 58
5, 662400, Note_on_c, 3, 62, 58
5, 664320, Note_on_c, 3, 62, 0
5, 664320, Note_on_c, 3, 65, 0
5, 664320, Note_on_c, 3, 65, 70
5, 664320, Note_on_c, 3, 62, 70
5, 665856, Note_on_c, 3, 62, 0
5, 665856, Note_on_c, 3, 65, 0
5, 668160, Note_on_c, 3, 65, 105
5, 669696, Note_on_c, 3, 65, 0
5, 670080, Note_on_c, 3, 65, 105
5, 670080, Note_on_c, 3, 62, 105
5, 671616, Note_on_c, 3, 62, 0
5, 671616, Note_on_c, 3, 65, 0
5, 672000, Note_on_c, 3, 67, 105
5, 672000, Note_on_c, 3, 72, 105
5, 673536, Note_on_c, 3, 72, 0
5, 673536, Note_on_c, 3, 67, 0
5, 673920, Note_on_c, 3, 70, 105
5, 673920, Note_on_c, 3, 67, 105
5, 674688, Note_on_c, 3, 67, 0
5, 674688, Note_on_c, 3, 70, 0
5, 674880, Note_on_c, 3, 55, 105
5, 674880, Note_on_c, 3, 58, 105
5, 675264, Note_on_c, 3, 58, 0
5, 675264, Note_on_c, 3, 55, 0
5, 675360, Note_on_c, 3, 58, 105
5, 675360, Note_on_c, 3, 55, 105
5, 675744, Note_on_c, 3, 55, 0
5, 675744, Note_on_c, 3, 58, 0
5, 675840, Note_on_c, 3, 58, 105
5, 675840, Note_on_c, 3, 55, 105
5, 676608, Note_on_c, 3, 55, 0
5, 676608, Note_on_c, 3, 58, 0
5, 676800, Note_on_c, 3, 67, 105
5, 676800, Note_on_c, 3, 70, 105
5, 677568, Note_on_c, 3, 70, 0
5, 677568, Note_on_c, 3, 67, 0
5, 677760, Note_on_c, 3, 62, 105
5, 677760, Note_on_c, 3, 57, 105
5, 679296, Note_on_c, 3, 57, 0
5, 679296, Note_on_c, 3, 62, 0
5, 679680, Note_on_c, 3, 67, 105
5, 679680, Note_on_c, 3, 58, 105
5, 680064, Note_on_c, 3, 58, 0
5, 680064, Note_on_c, 3, 67, 0
5, 683520, Note_on_c, 3, 67, 92
5, 683904, Note_on_c, 3, 67, 0
5, 684480, Note_on_c, 3, 55, 105
5, 684864, Note_on_c, 3, 55, 0
5, 685440, Note_on_c, 3, 62, 105
5, 685440, Note_on_c, 3, 50, 105
5, 685824, Note_on_c, 3, 50, 0
5, 685824, Note_on_c, 3, 62, 0
5, 686400, Note_on_c, 3, 62, 105
5, 686400, Note_on_c, 3, 50, 105
5, 686784, Note_on_c, 3, 50, 0
5, 686784, Note_on_c, 3, 62, 0
5, 700800, Note_on_c, 3, 65, 105
5, 700800, Note_on_c, 3, 67, 105
5, 702336, Note_on_c, 3, 67, 0
5, 702336, Note_on_c, 3, 65, 0
5, 702720, Note_on_c, 3, 60, 105
5, 702720, Note_on_c, 3, 67, 105
5, 704256, Note_on_c, 3, 67, 0
5, 704256, Note_on_c, 3, 60, 0
5, 704640, Note_on_c, 3, 62, 105
5, 705408, Note_on_c, 3, 62, 0
5, 705600, Note_on_c, 3, 62, 105
5, 706368, Note_on_c, 3, 62, 0
5, 706560, Note_on_c, 3, 62, 92
5, 706560, Note_on_c, 3, 58, 92
5, 706944, Note_on_c, 3, 58, 0
5, 706944, Note_on_c, 3, 62, 0
5, 708480, Note_on_c, 3, 62, 58
5, 708480, Note_on_c, 3, 50, 58
5, 715776, Note_on_c, 3, 50, 0
5, 715776, Note_on_c, 3, 62, 0
5, 716160, Note_on_c, 3, 62, 58
5, 716160, Note_on_c, 3, 55, 58
5, 716928, Note_on_c, 3, 55, 0
5, 716928, Note_on_c, 3, 62, 0
5, 717120, Note_on_c, 3, 67, 105
5, 717120, Note_on_c, 3, 62, 105
5, 717888, Note_on_c, 3, 62, 0
5, 717888, Note_on_c, 3, 67, 0
5, 718080, Note_on_c, 3, 67, 105
5, 718080, Note_on_c, 3, 63, 105
5, 719616, Note_on_c, 3, 63, 0
5, 719616, Note_on_c, 3, 67, 0
5, 720000, Note_on_c, 3, 62, 105
5, 720768, Note_on_c, 3, 62, 0
5, 720960, Note_on_c, 3, 62, 105
5, 721728, Note_on_c, 3, 62, 0
5, 721920, Note_on_c, 3, 62, 105
5, 721920, Note_on_c, 3, 58, 105
5, 722304, Note_on_c, 3, 58, 0
5, 722304, Note_on_c, 3, 62, 0
5, 726240, Note_on_c, 3, 67, 105
5, 726552, Note_on_c, 3, 67, 0
5, 726720, Note_on_c, 3, 67, 105
5, 727032, Note_on_c, 3, 67, 0
5, 727200, Note_on_c, 3, 60, 105
5, 727200, Note_on_c, 3, 62, 105
5, 727512, Note_on_c, 3, 62, 0
5, 727512, Note_on_c, 3, 60, 0
5, 727680, Note_on_c, 3, 58, 105
5, 727680, Note_on_c, 3, 62, 105
5, 728064, Note_on_c, 3, 62, 0
5, 728064, Note_on_c, 3, 58, 0
5, 731520, Note_on_c, 3, 55, 125
5, 732288, Note_on_c, 3, 55, 0
5, 732480, Note_on_c, 3, 55, 125
5, 733248, Note_on_c, 3, 55, 0
5, 733440, Note_on_c, 3, 55, 125
5, 734208, Note_on_c, 3, 55, 0
5, 734400, Note_on_c, 3, 55, 125
5, 735168, Note_on_c, 3, 55, 0
5, 735360, Note_on_c, 3, 55, 125
5, 736128, Note_on_c, 3, 55, 0
5, 736320, Note_on_c, 3, 55, 125
5, 737088, Note_on_c, 3, 55, 0
5, 737280, Note_on_c, 3, 55, 125
5, 738048, Note_on_c, 3, 55, 0
5, 738240, Note_on_c, 3, 55, 105
5, 738624, Note_on_c, 3, 55, 0
5, 739200, Note_on_c, 3, 62, 58
5, 743040, Note_on_c, 3, 67, 58
5, 743424, Note_on_c, 3, 67, 0
5, 743424, Note_on_c, 3, 62, 0
5, 746880, Note_on_c, 3, 55, 58
5, 750624, Note_on_c, 3, 55, 0
5, 750720, Note_on_c, 3, 50, 58
5, 754464, Note_on_c, 3, 50, 0
5, 754560, Note_on_c, 3, 62, 105
5, 754560, Note_on_c, 3, 55, 105
5, 754896, Note_on_c, 3, 55, 0
5, 754896, Note_on_c, 3, 62, 0
5, 755040, Note_on_c, 3, 62, 105
5, 755208, Note_on_c, 3, 62, 0
5, 755280, Note_on_c, 3, 62, 105
5, 755448, Note_on_c, 3, 62, 0
5, 755520, Note_on_c, 3, 62, 105
5, 755520, Note_on_c, 3, 50, 105
5, 755856, Note_on_c, 3, 50, 0
5, 755856, Note_on_c, 3, 62, 0
5, 756000, Note_on_c, 3, 62, 105
5, 756168, Note_on_c, 3, 62, 0
5, 756240, Note_on_c, 3, 62, 105
5, 756408, Note_on_c, 3, 62, 0
5, 756480, Note_on_c, 3, 62, 105
5, 756480, Note_on_c, 3, 55, 105
5, 756816, Note_on_c, 3, 55, 0
5, 756816, Note_on_c, 3, 62, 0
5, 756960, Note_on_c, 3, 62, 105
5, 757128, Note_on_c, 3, 62, 0
5, 757200, Note_on_c, 3, 62, 105
5, 757368, Note_on_c, 3, 62, 0
5, 757440, Note_on_c, 3, 50, 105
5, 757440, Note_on_c, 3, 62, 105
5, 757776, Note_on_c, 3, 62, 0
5, 757776, Note_on_c, 3, 50, 0
5, 757920, Note_on_c, 3, 62, 105
5, 758088, Note_on_c, 3, 62, 0
5, 758160, Note_on_c, 3, 62, 105
5, 758328, Note_on_c, 3, 62, 0
5, 758400, Note_on_c, 3, 62, 105
5, 758400, Note_on_c, 3, 55, 105
5, 758736, Note_on_c, 3, 55, 0
5, 758736, Note_on_c, 3, 62, 0
5, 758880, Note_on_c, 3, 62, 105
5, 759048, Note_on_c, 3, 62, 0
5, 759120, Note_on_c, 3, 62, 105
5, 759288, Note_on_c, 3, 62, 0
5, 759360, Note_on_c, 3, 50, 105
5, 759360, Note_on_c, 3, 62, 105
5, 759696, Note_on_c, 3, 62, 0
5, 759696, Note_on_c, 3, 50, 0
5, 759840, Note_on_c, 3, 62, 105
5, 760008, Note_on_c, 3, 62, 0
5, 760080, Note_on_c, 3, 62, 105
5, 760248, Note_on_c, 3, 62, 0
5, 760320, Note_on_c, 3, 55, 105
5, 760320, Note_on_c, 3, 62, 105
5, 760656, Note_on_c, 3, 62, 0
5, 760656, Note_on_c, 3, 55, 0
5, 760800, Note_on_c, 3, 50, 105
5, 760800, Note_on_c, 3, 62, 105
5, 761136, Note_on_c, 3, 62, 0
5, 761136, Note_on_c, 3, 50, 0
5, 761280, Note_on_c, 3, 55, 105
5, 761280, Note_on_c, 3, 62, 105
5, 761616, Note_on_c, 3, 62, 0
5, 761616, Note_on_c, 3, 55, 0
5, 761760, Note_on_c, 3, 50, 105
5, 761760, Note_on_c, 3, 62, 105
5, 762096, Note_on_c, 3, 62, 0
5, 762096, Note_on_c, 3, 50, 0
5, 762240, Note_on_c, 3, 55, 105
5, 762240, Note_on_c, 3, 62, 105
5, 762624, Note_on_c, 3, 62, 0
5, 762624, Note_on_c, 3, 55, 0
5, 764160, Note_on_c, 3, 58, 105
5, 764160, Note_on_c, 3, 55, 105
5, 764544, Note_on_c, 3, 55, 0
5, 764544, Note_on_c, 3, 58, 0
5, 765120, Note_on_c, 3, 58, 105
5, 765120, Note_on_c, 3, 55, 105
5, 765504, Note_on_c, 3, 55, 0
5, 765504, Note_on_c, 3, 58, 0
5, 766080, Note_on_c, 3, 58, 105
5, 766080, Note_on_c, 3, 55, 105
5, 767040, Note_on_c, 3, 55, 0
5, 767040, Note_on_c, 3, 58, 0
5, 767040, End_track
6, 0, Start_track
6, 0, Sequencer_specific, 04, 43, 00, 01, 00
6, 0, Program_c, 4, 48
6, 0, Control_c, 4, 7, 126
6, 0, Control_c, 4, 91, 80
6, 0, Control_c, 4, 10, 28
6, 3360, Note_on_c, 4, 75, 70
6, 3600, Note_on_c, 4, 75, 0
6, 3600, Note_on_c, 4, 74, 70
6, 3792, Note_on_c, 4, 74, 0
6, 3840, Note_on_c, 4, 74, 70
6, 4224, Note_on_c, 4, 74, 0
6, 4320, Note_on_c, 4, 75, 70
6, 4560, Note_on_c, 4, 75, 0
6, 4560, Note_on_c, 4, 74, 70
6, 4752, Note_on_c, 4, 74, 0
6, 4800, Note_on_c, 4, 74, 70
6, 5184, Note_on_c, 4, 74, 0
6, 5280, Note_on_c, 4, 75, 70
6, 5520, Note_on_c, 4, 75, 0
6, 5520, Note_on_c, 4, 74, 70
6, 5712, Note_on_c, 4, 74, 0
6, 5760, Note_on_c, 4, 74, 70
6, 6240, Note_on_c, 4, 74, 0
6, 6240, Note_on_c, 4, 82, 70
6, 6624, Note_on_c, 4, 82, 0
6, 7200, Note_on_c, 4, 82, 70
6, 7440, Note_on_c, 4, 82, 0
6, 7440, Note_on_c, 4, 81, 70
6, 7632, Note_on_c, 4, 81, 0
6, 7680, Note_on_c, 4, 79, 70
6, 8064, Note_on_c, 4, 79, 0
6, 8160, Note_on_c, 4, 79, 70
6, 8400, Note_on_c, 4, 79, 0
6, 8400, Note_on_c, 4, 77, 70
6, 8592, Note_on_c, 4, 77, 0
6, 8640, Note_on_c, 4, 75, 70
6, 9024, Note_on_c, 4, 75, 0
6, 9120, Note_on_c, 4, 75, 70
6, 9360, Note_on_c, 4, 75, 0
6, 9360, Note_on_c, 4, 74, 70
6, 9552, Note_on_c, 4, 74, 0
6, 9600, Note_on_c, 4, 72, 70
6, 9984, Note_on_c, 4, 72, 0
6, 10080, Note_on_c, 4, 72, 70
6, 10464, Note_on_c, 4, 72, 0
6, 11040, Note_on_c, 4, 74, 70
6, 11280, Note_on_c, 4, 74, 0
6, 11280, Note_on_c, 4, 72, 70
6, 11472, Note_on_c, 4, 72, 0
6, 11520, Note_on_c, 4, 72, 70
6, 11904, Note_on_c, 4, 72, 0
6, 12000, Note_on_c, 4, 74, 70
6, 12240, Note_on_c, 4, 74, 0
6, 12240, Note_on_c, 4, 72, 70
6, 12432, Note_on_c, 4, 72, 0
6, 12480, Note_on_c, 4, 72, 70
6, 12864, Note_on_c, 4, 72, 0
6, 12960, Note_on_c, 4, 74, 70
6, 13200, Note_on_c, 4, 74, 0
6, 13200, Note_on_c, 4, 72, 70
6, 13392, Note_on_c, 4, 72, 0
6, 13440, Note_on_c, 4, 72, 70
6, 13920, Note_on_c, 4, 72, 0
6, 13920, Note_on_c, 4, 81, 70
6, 14304, Note_on_c, 4, 81, 0
6, 14880, Note_on_c, 4, 81, 70
6, 15120, Note_on_c, 4, 81, 0
6, 15120, Note_on_c, 4, 79, 70
6, 15312, Note_on_c, 4, 79, 0
6, 15360, Note_on_c, 4, 78, 70
6, 15744, Note_on_c, 4, 78, 0
6, 15840, Note_on_c, 4, 78, 70
6, 16080, Note_on_c, 4, 78, 0
6, 16080, Note_on_c, 4, 75, 70
6, 16272, Note_on_c, 4, 75, 0
6, 16320, Note_on_c, 4, 74, 70
6, 16704, Note_on_c, 4, 74, 0
6, 16800, Note_on_c, 4, 74, 70
6, 17040, Note_on_c, 4, 74, 0
6, 17040, Note_on_c, 4, 72, 70
6, 17232, Note_on_c, 4, 72, 0
6, 17280, Note_on_c, 4, 70, 70
6, 17664, Note_on_c, 4, 70, 0
6, 17760, Note_on_c, 4, 70, 70
6, 18144, Note_on_c, 4, 70, 0
6, 18720, Note_on_c, 4, 82, 70
6, 18960, Note_on_c, 4, 82, 0
6, 18960, Note_on_c, 4, 81, 70
6, 19152, Note_on_c, 4, 81, 0
6, 19200, Note_on_c, 4, 81, 70
6, 19680, Note_on_c, 4, 81, 0
6, 19680, Note_on_c, 4, 84, 70
6, 20160, Note_on_c, 4, 84, 0
6, 20160, Note_on_c, 4, 78, 70
6, 20640, Note_on_c, 4, 78, 0
6, 20640, Note_on_c, 4, 81, 70
6, 21024, Note_on_c, 4, 81, 0
6, 21120, Note_on_c, 4, 79, 70
6, 21600, Note_on_c, 4, 79, 0
6, 21600, Note_on_c, 4, 74, 70
6, 21984, Note_on_c, 4, 74, 0
6, 22560, Note_on_c, 4, 82, 70
6, 22800, Note_on_c, 4, 82, 0
6, 22800, Note_on_c, 4, 81, 70
6, 22992, Note_on_c, 4, 81, 0
6, 23040, Note_on_c, 4, 81, 70
6, 23520, Note_on_c, 4, 81, 0
6, 23520, Note_on_c, 4, 84, 70
6, 24000, Note_on_c, 4, 84, 0
6, 24000, Note_on_c, 4, 78, 70
6, 24480, Note_on_c, 4, 78, 0
6, 24480, Note_on_c, 4, 81, 70
6, 24864, Note_on_c, 4, 81, 0
6, 24960, Note_on_c, 4, 79, 70
6, 25440, Note_on_c, 4, 79, 0
6, 25440, Note_on_c, 4, 82, 70
6, 25824, Note_on_c, 4, 82, 0
6, 25920, Note_on_c, 4, 81, 70
6, 26160, Note_on_c, 4, 81, 0
6, 26160, Note_on_c, 4, 79, 70
6, 26400, Note_on_c, 4, 79, 0
6, 26400, Note_on_c, 4, 77, 70
6, 26640, Note_on_c, 4, 77, 0
6, 26640, Note_on_c, 4, 75, 70
6, 26832, Note_on_c, 4, 75, 0
6, 26880, Note_on_c, 4, 74, 70
6, 28800, Note_on_c, 4, 74, 0
6, 28800, Note_on_c, 4, 73, 70
6, 30624, Note_on_c, 4, 73, 0
6, 30720, Note_on_c, 4, 74, 70
6, 31488, Note_on_c, 4, 74, 0
6, 32160, Note_on_c, 4, 62, 105
6, 32340, Note_on_c, 4, 62, 0
6, 32400, Note_on_c, 4, 62, 105
6, 32580, Note_on_c, 4, 62, 0
6, 32640, Note_on_c, 4, 62, 105
6, 33408, Note_on_c, 4, 62, 0
6, 34080, Note_on_c, 4, 62, 105
6, 34260, Note_on_c, 4, 62, 0
6, 34320, Note_on_c, 4, 62, 105
6, 34500, Note_on_c, 4, 62, 0
6, 34560, Note_on_c, 4, 62, 105
6, 35328, Note_on_c, 4, 62, 0
6, 36000, Note_on_c, 4, 62, 105
6, 36180, Note_on_c, 4, 62, 0
6, 36240, Note_on_c, 4, 62, 105
6, 36420, Note_on_c, 4, 62, 0
6, 36480, Note_on_c, 4, 62, 105
6, 36840, Note_on_c, 4, 62, 0
6, 36960, Note_on_c, 4, 62, 105
6, 37140, Note_on_c, 4, 62, 0
6, 37200, Note_on_c, 4, 62, 105
6, 37380, Note_on_c, 4, 62, 0
6, 37440, Note_on_c, 4, 62, 105
6, 37800, Note_on_c, 4, 62, 0
6, 37920, Note_on_c, 4, 62, 105
6, 38100, Note_on_c, 4, 62, 0
6, 38160, Note_on_c, 4, 62, 105
6, 38340, Note_on_c, 4, 62, 0
6, 38400, Note_on_c, 4, 62, 105
6, 39168, Note_on_c, 4, 62, 0
6, 39840, Note_on_c, 4, 75, 70
6, 40080, Note_on_c, 4, 75, 0
6, 40080, Note_on_c, 4, 74, 70
6, 40272, Note_on_c, 4, 74, 0
6, 40320, Note_on_c, 4, 74, 70
6, 40704, Note_on_c, 4, 74, 0
6, 40800, Note_on_c, 4, 75, 70
6, 41040, Note_on_c, 4, 75, 0
6, 41040, Note_on_c, 4, 74, 70
6, 41232, Note_on_c, 4, 74, 0
6, 41280, Note_on_c, 4, 74, 70
6, 41664, Note_on_c, 4, 74, 0
6, 41760, Note_on_c, 4, 75, 70
6, 42000, Note_on_c, 4, 75, 0
6, 42000, Note_on_c, 4, 74, 70
6, 42192, Note_on_c, 4, 74, 0
6, 42240, Note_on_c, 4, 74, 70
6, 42720, Note_on_c, 4, 74, 0
6, 42720, Note_on_c, 4, 82, 70
6, 43104, Note_on_c, 4, 82, 0
6, 43680, Note_on_c, 4, 82, 70
6, 43920, Note_on_c, 4, 82, 0
6, 43920, Note_on_c, 4, 81, 70
6, 44112, Note_on_c, 4, 81, 0
6, 44160, Note_on_c, 4, 79, 70
6, 44544, Note_on_c, 4, 79, 0
6, 44640, Note_on_c, 4, 79, 70
6, 44880, Note_on_c, 4, 79, 0
6, 44880, Note_on_c, 4, 77, 70
6, 45072, Note_on_c, 4, 77, 0
6, 45120, Note_on_c, 4, 75, 70
6, 45504, Note_on_c, 4, 75, 0
6, 45600, Note_on_c, 4, 75, 70
6, 45840, Note_on_c, 4, 75, 0
6, 45840, Note_on_c, 4, 74, 70
6, 46032, Note_on_c, 4, 74, 0
6, 46080, Note_on_c, 4, 72, 70
6, 46464, Note_on_c, 4, 72, 0
6, 46560, Note_on_c, 4, 72, 70
6, 46944, Note_on_c, 4, 72, 0
6, 47520, Note_on_c, 4, 77, 70
6, 47760, Note_on_c, 4, 77, 0
6, 47760, Note_on_c, 4, 75, 70
6, 47952, Note_on_c, 4, 75, 0
6, 48000, Note_on_c, 4, 75, 70
6, 48384, Note_on_c, 4, 75, 0
6, 48480, Note_on_c, 4, 77, 70
6, 48720, Note_on_c, 4, 77, 0
6, 48720, Note_on_c, 4, 75, 70
6, 48912, Note_on_c, 4, 75, 0
6, 48960, Note_on_c, 4, 75, 70
6, 49344, Note_on_c, 4, 75, 0
6, 49440, Note_on_c, 4, 77, 70
6, 49680, Note_on_c, 4, 77, 0
6, 49680, Note_on_c, 4, 75, 70
6, 49872, Note_on_c, 4, 75, 0
6, 49920, Note_on_c, 4, 75, 70
6, 50400, Note_on_c, 4, 75, 0
6, 50400, Note_on_c, 4, 84, 70
6, 50784, Note_on_c, 4, 84, 0
6, 51360, Note_on_c, 4, 84, 70
6, 51600, Note_on_c, 4, 84, 0
6, 51600, Note_on_c, 4, 82, 70
6, 51792, Note_on_c, 4, 82, 0
6, 51840, Note_on_c, 4, 81, 70
6, 52224, Note_on_c, 4, 81, 0
6, 52320, Note_on_c, 4, 81, 70
6, 52560, Note_on_c, 4, 81, 0
6, 52560, Note_on_c, 4, 79, 70
6, 52752, Note_on_c, 4, 79, 0
6, 52800, Note_on_c, 4, 77, 70
6, 53184, Note_on_c, 4, 77, 0
6, 53280, Note_on_c, 4, 77, 70
6, 53520, Note_on_c, 4, 77, 0
6, 53520, Note_on_c, 4, 75, 70
6, 53712, Note_on_c, 4, 75, 0
6, 53760, Note_on_c, 4, 82, 105
6, 53760, Note_on_c, 4, 70, 105
6, 55296, Note_on_c, 4, 70, 0
6, 55296, Note_on_c, 4, 82, 0
6, 55680, Note_on_c, 4, 77, 105
6, 56832, Note_on_c, 4, 77, 0
6, 57360, Note_on_c, 4, 77, 105
6, 57492, Note_on_c, 4, 77, 0
6, 57600, Note_on_c, 4, 75, 105
6, 57864, Note_on_c, 4, 75, 0
6, 58080, Note_on_c, 4, 79, 105
6, 58344, Note_on_c, 4, 79, 0
6, 58560, Note_on_c, 4, 82, 105
6, 58824, Note_on_c, 4, 82, 0
6, 59520, Note_on_c, 4, 74, 105
6, 59784, Note_on_c, 4, 74, 0
6, 60000, Note_on_c, 4, 77, 105
6, 60264, Note_on_c, 4, 77, 0
6, 60480, Note_on_c, 4, 82, 105
6, 60744, Note_on_c, 4, 82, 0
6, 61200, Note_on_c, 4, 74, 105
6, 61332, Note_on_c, 4, 74, 0
6, 61440, Note_on_c, 4, 72, 105
6, 61704, Note_on_c, 4, 72, 0
6, 61920, Note_on_c, 4, 75, 105
6, 62184, Note_on_c, 4, 75, 0
6, 62400, Note_on_c, 4, 79, 105
6, 62664, Note_on_c, 4, 79, 0
6, 62880, Note_on_c, 4, 72, 105
6, 63144, Note_on_c, 4, 72, 0
6, 63360, Note_on_c, 4, 70, 105
6, 63624, Note_on_c, 4, 70, 0
6, 63840, Note_on_c, 4, 74, 105
6, 64104, Note_on_c, 4, 74, 0
6, 64320, Note_on_c, 4, 77, 105
6, 64584, Note_on_c, 4, 77, 0
6, 65040, Note_on_c, 4, 77, 105
6, 65172, Note_on_c, 4, 77, 0
6, 65280, Note_on_c, 4, 76, 125
6, 65472, Note_on_c, 4, 76, 0
6, 65520, Note_on_c, 4, 77, 105
6, 65712, Note_on_c, 4, 77, 0
6, 65760, Note_on_c, 4, 79, 105
6, 65952, Note_on_c, 4, 79, 0
6, 66000, Note_on_c, 4, 81, 105
6, 66192, Note_on_c, 4, 81, 0
6, 66240, Note_on_c, 4, 82, 105
6, 66432, Note_on_c, 4, 82, 0
6, 66480, Note_on_c, 4, 84, 105
6, 66672, Note_on_c, 4, 84, 0
6, 66720, Note_on_c, 4, 85, 105
6, 66912, Note_on_c, 4, 85, 0
6, 66960, Note_on_c, 4, 77, 105
6, 67152, Note_on_c, 4, 77, 0
6, 67200, Note_on_c, 4, 76, 125
6, 67392, Note_on_c, 4, 76, 0
6, 67440, Note_on_c, 4, 77, 105
6, 67632, Note_on_c, 4, 77, 0
6, 67680, Note_on_c, 4, 79, 105
6, 67872, Note_on_c, 4, 79, 0
6, 67920, Note_on_c, 4, 81, 105
6, 68112, Note_on_c, 4, 81, 0
6, 68160, Note_on_c, 4, 82, 105
6, 68352, Note_on_c, 4, 82, 0
6, 68400, Note_on_c, 4, 84, 105
6, 68592, Note_on_c, 4, 84, 0
6, 68640, Note_on_c, 4, 85, 105
6, 68832, Note_on_c, 4, 85, 0
6, 68880, Note_on_c, 4, 77, 105
6, 69072, Note_on_c, 4, 77, 0
6, 69120, Note_on_c, 4, 76, 125
6, 69312, Note_on_c, 4, 76, 0
6, 69360, Note_on_c, 4, 77, 105
6, 69552, Note_on_c, 4, 77, 0
6, 69600, Note_on_c, 4, 79, 105
6, 69792, Note_on_c, 4, 79, 0
6, 69840, Note_on_c, 4, 81, 105
6, 70032, Note_on_c, 4, 81, 0
6, 70080, Note_on_c, 4, 82, 105
6, 70272, Note_on_c, 4, 82, 0
6, 70320, Note_on_c, 4, 84, 105
6, 70512, Note_on_c, 4, 84, 0
6, 70560, Note_on_c, 4, 85, 105
6, 70752, Note_on_c, 4, 85, 0
6, 70800, Note_on_c, 4, 77, 105
6, 70992, Note_on_c, 4, 77, 0
6, 71040, Note_on_c, 4, 76, 125
6, 71232, Note_on_c, 4, 76, 0
6, 71280, Note_on_c, 4, 77, 105
6, 71472, Note_on_c, 4, 77, 0
6, 71520, Note_on_c, 4, 79, 105
6, 71712, Note_on_c, 4, 79, 0
6, 71760, Note_on_c, 4, 81, 105
6, 71952, Note_on_c, 4, 81, 0
6, 72000, Note_on_c, 4, 82, 105
6, 72192, Note_on_c, 4, 82, 0
6, 72240, Note_on_c, 4, 84, 105
6, 72432, Note_on_c, 4, 84, 0
6, 72480, Note_on_c, 4, 85, 105
6, 72672, Note_on_c, 4, 85, 0
6, 72720, Note_on_c, 4, 76, 105
6, 72912, Note_on_c, 4, 76, 0
6, 72960, Note_on_c, 4, 77, 116
6, 73728, Note_on_c, 4, 77, 0
6, 73920, Note_on_c, 4, 84, 116
6, 74208, Note_on_c, 4, 84, 0
6, 74400, Note_on_c, 4, 81, 116
6, 74688, Note_on_c, 4, 81, 0
6, 74880, Note_on_c, 4, 85, 116
6, 75648, Note_on_c, 4, 85, 0
6, 75840, Note_on_c, 4, 76, 116
6, 76128, Note_on_c, 4, 76, 0
6, 76320, Note_on_c, 4, 79, 116
6, 76608, Note_on_c, 4, 79, 0
6, 76800, Note_on_c, 4, 77, 116
6, 77568, Note_on_c, 4, 77, 0
6, 77760, Note_on_c, 4, 84, 116
6, 77952, Note_on_c, 4, 84, 0
6, 78000, Note_on_c, 4, 81, 116
6, 78192, Note_on_c, 4, 81, 0
6, 78240, Note_on_c, 4, 84, 116
6, 78432, Note_on_c, 4, 84, 0
6, 78480, Note_on_c, 4, 81, 116
6, 78672, Note_on_c, 4, 81, 0
6, 78720, Note_on_c, 4, 85, 116
6, 78912, Note_on_c, 4, 85, 0
6, 78960, Note_on_c, 4, 82, 116
6, 79152, Note_on_c, 4, 82, 0
6, 79200, Note_on_c, 4, 85, 116
6, 79392, Note_on_c, 4, 85, 0
6, 79440, Note_on_c, 4, 82, 116
6, 79632, Note_on_c, 4, 82, 0
6, 79680, Note_on_c, 4, 76, 116
6, 79872, Note_on_c, 4, 76, 0
6, 79920, Note_on_c, 4, 79, 116
6, 80112, Note_on_c, 4, 79, 0
6, 80160, Note_on_c, 4, 76, 116
6, 80352, Note_on_c, 4, 76, 0
6, 80400, Note_on_c, 4, 79, 116
6, 80592, Note_on_c, 4, 79, 0
6, 80640, Note_on_c, 4, 77, 116
6, 81024, Note_on_c, 4, 77, 0
6, 81600, Note_on_c, 4, 57, 92
6, 81600, Note_on_c, 4, 65, 92
6, 81984, Note_on_c, 4, 65, 0
6, 81984, Note_on_c, 4, 57, 0
6, 84480, Note_on_c, 4, 77, 70
6, 85920, Note_on_c, 4, 77, 0
6, 85920, Note_on_c, 4, 76, 70
6, 86400, Note_on_c, 4, 76, 0
6, 86400, Note_on_c, 4, 75, 70
6, 86784, Note_on_c, 4, 75, 0
6, 88800, Note_on_c, 4, 70, 70
6, 89112, Note_on_c, 4, 70, 0
6, 89280, Note_on_c, 4, 70, 70
6, 89760, Note_on_c, 4, 70, 0
6, 89760, Note_on_c, 4, 72, 70
6, 90144, Note_on_c, 4, 72, 0
6, 90240, Note_on_c, 4, 74, 70
6, 90960, Note_on_c, 4, 74, 0
6, 90960, Note_on_c, 4, 75, 70
6, 91200, Note_on_c, 4, 75, 0
6, 91200, Note_on_c, 4, 72, 70
6, 91584, Note_on_c, 4, 72, 0
6, 92160, Note_on_c, 4, 79, 70
6, 93600, Note_on_c, 4, 79, 0
6, 93600, Note_on_c, 4, 78, 70
6, 94080, Note_on_c, 4, 78, 0
6, 94080, Note_on_c, 4, 77, 70
6, 94560, Note_on_c, 4, 77, 0
6, 94560, Note_on_c, 4, 76, 70
6, 95040, Note_on_c, 4, 76, 0
6, 95040, Note_on_c, 4, 75, 70
6, 95520, Note_on_c, 4, 75, 0
6, 95520, Note_on_c, 4, 74, 70
6, 95904, Note_on_c, 4, 74, 0
6, 96000, Note_on_c, 4, 72, 70
6, 96480, Note_on_c, 4, 72, 0
6, 96480, Note_on_c, 4, 75, 70
6, 97248, Note_on_c, 4, 75, 0
6, 97440, Note_on_c, 4, 69, 70
6, 97824, Note_on_c, 4, 69, 0
6, 97920, Note_on_c, 4, 70, 70
6, 98304, Note_on_c, 4, 70, 0
6, 101760, Note_on_c, 4, 75, 58
6, 103200, Note_on_c, 4, 75, 0
6, 103200, Note_on_c, 4, 77, 58
6, 103320, Note_on_c, 4, 77, 0
6, 103320, Note_on_c, 4, 75, 58
6, 103440, Note_on_c, 4, 75, 0
6, 103440, Note_on_c, 4, 74, 58
6, 103560, Note_on_c, 4, 74, 0
6, 103560, Note_on_c, 4, 72, 58
6, 103680, Note_on_c, 4, 72, 0
6, 103680, Note_on_c, 4, 70, 58
6, 104064, Note_on_c, 4, 70, 0
6, 107520, Note_on_c, 4, 67, 70
6, 108960, Note_on_c, 4, 67, 0
6, 108960, Note_on_c, 4, 66, 70
6, 109440, Note_on_c, 4, 66, 0
6, 109440, Note_on_c, 4, 65, 70
6, 109920, Note_on_c, 4, 65, 0
6, 109920, Note_on_c, 4, 64, 70
6, 110400, Note_on_c, 4, 64, 0
6, 110400, Note_on_c, 4, 63, 70
6, 110880, Note_on_c, 4, 63, 0
6, 110880, Note_on_c, 4, 62, 70
6, 111264, Note_on_c, 4, 62, 0
6, 111360, Note_on_c, 4, 61, 58
6, 112800, Note_on_c, 4, 61, 0
6, 112800, Note_on_c, 4, 60, 58
6, 113184, Note_on_c, 4, 60, 0
6, 113280, Note_on_c, 4, 61, 58
6, 114720, Note_on_c, 4, 61, 0
6, 114720, Note_on_c, 4, 60, 58
6, 115104, Note_on_c, 4, 60, 0
6, 115200, Note_on_c, 4, 61, 58
6, 116640, Note_on_c, 4, 61, 0
6, 116640, Note_on_c, 4, 60, 58
6, 117024, Note_on_c, 4, 60, 0
6, 117120, Note_on_c, 4, 61, 58
6, 118560, Note_on_c, 4, 61, 0
6, 118560, Note_on_c, 4, 60, 58
6, 118944, Note_on_c, 4, 60, 0
6, 119040, Note_on_c, 4, 61, 58
6, 119256, Note_on_c, 4, 61, 0
6, 119280, Note_on_c, 4, 73, 70
6, 119496, Note_on_c, 4, 73, 0
6, 119520, Note_on_c, 4, 73, 72
6, 119736, Note_on_c, 4, 73, 0
6, 119760, Note_on_c, 4, 73, 75
6, 119976, Note_on_c, 4, 73, 0
6, 120000, Note_on_c, 4, 73, 78
6, 120216, Note_on_c, 4, 73, 0
6, 120240, Note_on_c, 4, 73, 80
6, 120456, Note_on_c, 4, 73, 0
6, 120480, Note_on_c, 4, 73, 83
6, 120696, Note_on_c, 4, 73, 0
6, 120720, Note_on_c, 4, 73, 86
6, 120936, Note_on_c, 4, 73, 0
6, 120960, Note_on_c, 4, 73, 88
6, 121176, Note_on_c, 4, 73, 0
6, 121200, Note_on_c, 4, 85, 91
6, 121416, Note_on_c, 4, 85, 0
6, 121440, Note_on_c, 4, 85, 94
6, 121656, Note_on_c, 4, 85, 0
6, 121680, Note_on_c, 4, 85, 96
6, 121896, Note_on_c, 4, 85, 0
6, 121920, Note_on_c, 4, 85, 99
6, 122136, Note_on_c, 4, 85, 0
6, 122160, Note_on_c, 4, 85, 102
6, 122376, Note_on_c, 4, 85, 0
6, 122400, Note_on_c, 4, 85, 105
6, 122616, Note_on_c, 4, 85, 0
6, 122640, Note_on_c, 4, 85, 107
6, 122856, Note_on_c, 4, 85, 0
6, 122880, Note_on_c, 4, 86, 105
6, 124704, Note_on_c, 4, 86, 0
6, 124800, Note_on_c, 4, 82, 105
6, 124920, Note_on_c, 4, 82, 0
6, 124920, Note_on_c, 4, 81, 105
6, 125040, Note_on_c, 4, 81, 0
6, 125040, Note_on_c, 4, 82, 105
6, 125160, Note_on_c, 4, 82, 0
6, 125160, Note_on_c, 4, 81, 105
6, 125280, Note_on_c, 4, 81, 0
6, 125280, Note_on_c, 4, 82, 105
6, 125400, Note_on_c, 4, 82, 0
6, 125400, Note_on_c, 4, 81, 105
6, 125520, Note_on_c, 4, 81, 0
6, 125520, Note_on_c, 4, 82, 105
6, 125640, Note_on_c, 4, 82, 0
6, 125640, Note_on_c, 4, 81, 105
6, 125760, Note_on_c, 4, 81, 0
6, 125760, Note_on_c, 4, 82, 105
6, 125880, Note_on_c, 4, 82, 0
6, 125880, Note_on_c, 4, 81, 105
6, 126000, Note_on_c, 4, 81, 0
6, 126000, Note_on_c, 4, 82, 105
6, 126120, Note_on_c, 4, 82, 0
6, 126120, Note_on_c, 4, 81, 105
6, 126240, Note_on_c, 4, 81, 0
6, 126240, Note_on_c, 4, 82, 105
6, 126360, Note_on_c, 4, 82, 0
6, 126360, Note_on_c, 4, 81, 105
6, 126480, Note_on_c, 4, 81, 0
6, 126480, Note_on_c, 4, 79, 105
6, 126600, Note_on_c, 4, 79, 0
6, 126600, Note_on_c, 4, 81, 105
6, 126720, Note_on_c, 4, 81, 0
6, 126720, Note_on_c, 4, 82, 92
6, 127104, Note_on_c, 4, 82, 0
6, 127200, Note_on_c, 4, 62, 125
6, 127392, Note_on_c, 4, 62, 0
6, 127440, Note_on_c, 4, 62, 105
6, 127632, Note_on_c, 4, 62, 0
6, 127680, Note_on_c, 4, 62, 105
6, 127872, Note_on_c, 4, 62, 0
6, 127920, Note_on_c, 4, 62, 105
6, 128112, Note_on_c, 4, 62, 0
6, 128160, Note_on_c, 4, 63, 105
6, 128352, Note_on_c, 4, 63, 0
6, 128400, Note_on_c, 4, 63, 105
6, 128592, Note_on_c, 4, 63, 0
6, 128640, Note_on_c, 4, 64, 105
6, 128832, Note_on_c, 4, 64, 0
6, 128880, Note_on_c, 4, 64, 105
6, 129072, Note_on_c, 4, 64, 0
6, 129120, Note_on_c, 4, 65, 105
6, 129312, Note_on_c, 4, 65, 0
6, 129360, Note_on_c, 4, 65, 105
6, 129552, Note_on_c, 4, 65, 0
6, 129600, Note_on_c, 4, 66, 105
6, 129792, Note_on_c, 4, 66, 0
6, 129840, Note_on_c, 4, 66, 105
6, 130032, Note_on_c, 4, 66, 0
6, 130080, Note_on_c, 4, 67, 105
6, 130272, Note_on_c, 4, 67, 0
6, 130320, Note_on_c, 4, 67, 105
6, 130512, Note_on_c, 4, 67, 0
6, 130560, Note_on_c, 4, 68, 105
6, 130944, Note_on_c, 4, 68, 0
6, 131400, Note_on_c, 4, 68, 105
6, 131496, Note_on_c, 4, 68, 0
6, 131520, Note_on_c, 4, 67, 105
6, 131904, Note_on_c, 4, 67, 0
6, 132360, Note_on_c, 4, 67, 105
6, 132456, Note_on_c, 4, 67, 0
6, 132480, Note_on_c, 4, 75, 105
6, 132864, Note_on_c, 4, 75, 0
6, 133320, Note_on_c, 4, 75, 105
6, 133416, Note_on_c, 4, 75, 0
6, 133440, Note_on_c, 4, 74, 105
6, 133824, Note_on_c, 4, 74, 0
6, 134280, Note_on_c, 4, 74, 105
6, 134376, Note_on_c, 4, 74, 0
6, 134400, Note_on_c, 4, 79, 105
6, 135504, Note_on_c, 4, 79, 0
6, 135600, Note_on_c, 4, 77, 70
6, 135744, Note_on_c, 4, 77, 0
6, 135840, Note_on_c, 4, 75, 70
6, 135984, Note_on_c, 4, 75, 0
6, 136080, Note_on_c, 4, 74, 70
6, 136224, Note_on_c, 4, 74, 0
6, 136320, Note_on_c, 4, 72, 70
6, 136464, Note_on_c, 4, 72, 0
6, 136560, Note_on_c, 4, 70, 70
6, 136704, Note_on_c, 4, 70, 0
6, 136800, Note_on_c, 4, 69, 70
6, 136944, Note_on_c, 4, 69, 0
6, 137040, Note_on_c, 4, 67, 70
6, 137184, Note_on_c, 4, 67, 0
6, 137280, Note_on_c, 4, 65, 70
6, 137424, Note_on_c, 4, 65, 0
6, 137520, Note_on_c, 4, 63, 70
6, 137664, Note_on_c, 4, 63, 0
6, 137760, Note_on_c, 4, 62, 70
6, 137904, Note_on_c, 4, 62, 0
6, 138000, Note_on_c, 4, 60, 70
6, 138144, Note_on_c, 4, 60, 0
6, 138240, Note_on_c, 4, 58, 70
6, 138624, Note_on_c, 4, 58, 0
6, 139200, Note_on_c, 4, 82, 70
6, 141120, Note_on_c, 4, 82, 0
6, 141120, Note_on_c, 4, 81, 70
6, 141888, Note_on_c, 4, 81, 0
6, 143040, Note_on_c, 4, 82, 70
6, 144960, Note_on_c, 4, 82, 0
6, 144960, Note_on_c, 4, 81, 70
6, 145728, Note_on_c, 4, 81, 0
6, 147360, Note_on_c, 4, 87, 116
6, 147600, Note_on_c, 4, 87, 0
6, 147600, Note_on_c, 4, 86, 116
6, 147792, Note_on_c, 4, 86, 0
6, 147840, Note_on_c, 4, 86, 116
6, 148224, Note_on_c, 4, 86, 0
6, 148320, Note_on_c, 4, 87, 116
6, 148560, Note_on_c, 4, 87, 0
6, 148560, Note_on_c, 4, 86, 116
6, 148752, Note_on_c, 4, 86, 0
6, 148800, Note_on_c, 4, 86, 116
6, 149184, Note_on_c, 4, 86, 0
6, 149280, Note_on_c, 4, 87, 116
6, 149520, Note_on_c, 4, 87, 0
6, 149520, Note_on_c, 4, 86, 116
6, 149712, Note_on_c, 4, 86, 0
6, 149760, Note_on_c, 4, 86, 116
6, 150528, Note_on_c, 4, 86, 0
6, 150720, Note_on_c, 4, 87, 116
6, 151440, Note_on_c, 4, 87, 0
6, 151440, Note_on_c, 4, 84, 116
6, 151632, Note_on_c, 4, 84, 0
6, 151680, Note_on_c, 4, 82, 116
6, 152400, Note_on_c, 4, 82, 0
6, 152400, Note_on_c, 4, 86, 116
6, 152592, Note_on_c, 4, 86, 0
6, 152640, Note_on_c, 4, 84, 116
6, 153360, Note_on_c, 4, 84, 0
6, 153360, Note_on_c, 4, 81, 116
6, 153552, Note_on_c, 4, 81, 0
6, 153600, Note_on_c, 4, 82, 92
6, 153984, Note_on_c, 4, 82, 0
6, 156480, Note_on_c, 4, 87, 70
6, 158400, Note_on_c, 4, 87, 0
6, 158400, Note_on_c, 4, 86, 70
6, 158784, Note_on_c, 4, 86, 0
6, 160320, Note_on_c, 4, 75, 70
6, 162240, Note_on_c, 4, 75, 0
6, 162240, Note_on_c, 4, 74, 58
6, 162624, Note_on_c, 4, 74, 0
6, 162720, Note_on_c, 4, 87, 116
6, 162960, Note_on_c, 4, 87, 0
6, 162960, Note_on_c, 4, 86, 116
6, 163152, Note_on_c, 4, 86, 0
6, 163200, Note_on_c, 4, 86, 116
6, 163584, Note_on_c, 4, 86, 0
6, 163680, Note_on_c, 4, 87, 116
6, 163920, Note_on_c, 4, 87, 0
6, 163920, Note_on_c, 4, 86, 116
6, 164112, Note_on_c, 4, 86, 0
6, 164160, Note_on_c, 4, 86, 116
6, 164544, Note_on_c, 4, 86, 0
6, 164640, Note_on_c, 4, 87, 116
6, 164880, Note_on_c, 4, 87, 0
6, 164880, Note_on_c, 4, 86, 116
6, 165072, Note_on_c, 4, 86, 0
6, 165120, Note_on_c, 4, 86, 116
6, 165888, Note_on_c, 4, 86, 0
6, 166080, Note_on_c, 4, 87, 116
6, 166800, Note_on_c, 4, 87, 0
6, 166800, Note_on_c, 4, 84, 116
6, 166992, Note_on_c, 4, 84, 0
6, 167040, Note_on_c, 4, 82, 116
6, 167760, Note_on_c, 4, 82, 0
6, 167760, Note_on_c, 4, 86, 116
6, 167952, Note_on_c, 4, 86, 0
6, 168000, Note_on_c, 4, 84, 116
6, 168720, Note_on_c, 4, 84, 0
6, 168720, Note_on_c, 4, 81, 116
6, 168912, Note_on_c, 4, 81, 0
6, 168960, Note_on_c, 4, 82, 116
6, 169152, Note_on_c, 4, 82, 0
6, 169200, Note_on_c, 4, 77, 116
6, 169392, Note_on_c, 4, 77, 0
6, 169440, Note_on_c, 4, 86, 105
6, 169632, Note_on_c, 4, 86, 0
6, 169680, Note_on_c, 4, 84, 105
6, 169872, Note_on_c, 4, 84, 0
6, 169920, Note_on_c, 4, 82, 105
6, 170112, Note_on_c, 4, 82, 0
6, 170160, Note_on_c, 4, 81, 105
6, 170352, Note_on_c, 4, 81, 0
6, 170400, Note_on_c, 4, 79, 105
6, 170592, Note_on_c, 4, 79, 0
6, 170640, Note_on_c, 4, 77, 105
6, 170832, Note_on_c, 4, 77, 0
6, 170880, Note_on_c, 4, 75, 105
6, 171072, Note_on_c, 4, 75, 0
6, 171120, Note_on_c, 4, 74, 105
6, 171312, Note_on_c, 4, 74, 0
6, 171360, Note_on_c, 4, 72, 105
6, 171552, Note_on_c, 4, 72, 0
6, 171600, Note_on_c, 4, 70, 105
6, 171792, Note_on_c, 4, 70, 0
6, 171840, Note_on_c, 4, 69, 105
6, 172032, Note_on_c, 4, 69, 0
6, 172080, Note_on_c, 4, 67, 105
6, 172272, Note_on_c, 4, 67, 0
6, 172320, Note_on_c, 4, 65, 105
6, 172512, Note_on_c, 4, 65, 0
6, 172560, Note_on_c, 4, 63, 105
6, 172752, Note_on_c, 4, 63, 0
6, 172800, Note_on_c, 4, 62, 105
6, 173136, Note_on_c, 4, 62, 0
6, 173280, Note_on_c, 4, 77, 125
6, 173616, Note_on_c, 4, 77, 0
6, 173760, Note_on_c, 4, 79, 125
6, 174096, Note_on_c, 4, 79, 0
6, 174240, Note_on_c, 4, 69, 125
6, 174576, Note_on_c, 4, 69, 0
6, 174720, Note_on_c, 4, 70, 105
6, 174912, Note_on_c, 4, 70, 0
6, 174960, Note_on_c, 4, 65, 105
6, 175152, Note_on_c, 4, 65, 0
6, 175200, Note_on_c, 4, 74, 105
6, 175392, Note_on_c, 4, 74, 0
6, 175440, Note_on_c, 4, 72, 105
6, 175632, Note_on_c, 4, 72, 0
6, 175680, Note_on_c, 4, 70, 105
6, 175872, Note_on_c, 4, 70, 0
6, 175920, Note_on_c, 4, 69, 105
6, 176112, Note_on_c, 4, 69, 0
6, 176160, Note_on_c, 4, 67, 105
6, 176352, Note_on_c, 4, 67, 0
6, 176400, Note_on_c, 4, 65, 105
6, 176592, Note_on_c, 4, 65, 0
6, 176640, Note_on_c, 4, 63, 105
6, 176832, Note_on_c, 4, 63, 0
6, 176880, Note_on_c, 4, 62, 105
6, 177072, Note_on_c, 4, 62, 0
6, 177120, Note_on_c, 4, 60, 105
6, 177312, Note_on_c, 4, 60, 0
6, 177360, Note_on_c, 4, 58, 105
6, 177552, Note_on_c, 4, 58, 0
6, 177600, Note_on_c, 4, 57, 105
6, 177792, Note_on_c, 4, 57, 0
6, 177840, Note_on_c, 4, 60, 105
6, 178032, Note_on_c, 4, 60, 0
6, 178080, Note_on_c, 4, 65, 105
6, 178272, Note_on_c, 4, 65, 0
6, 178320, Note_on_c, 4, 63, 105
6, 178512, Note_on_c, 4, 63, 0
6, 178560, Note_on_c, 4, 62, 105
6, 178896, Note_on_c, 4, 62, 0
6, 179040, Note_on_c, 4, 77, 125
6, 179376, Note_on_c, 4, 77, 0
6, 179520, Note_on_c, 4, 79, 125
6, 179856, Note_on_c, 4, 79, 0
6, 180000, Note_on_c, 4, 81, 125
6, 180336, Note_on_c, 4, 81, 0
6, 180480, Note_on_c, 4, 82, 125
6, 180816, Note_on_c, 4, 82, 0
6, 180960, Note_on_c, 4, 79, 125
6, 181296, Note_on_c, 4, 79, 0
6, 181440, Note_on_c, 4, 77, 125
6, 181776, Note_on_c, 4, 77, 0
6, 181920, Note_on_c, 4, 69, 125
6, 182256, Note_on_c, 4, 69, 0
6, 182400, Note_on_c, 4, 70, 105
6, 182640, Note_on_c, 4, 70, 0
6, 182640, Note_on_c, 4, 74, 105
6, 182784, Note_on_c, 4, 74, 0
6, 182880, Note_on_c, 4, 77, 105
6, 183024, Note_on_c, 4, 77, 0
6, 183120, Note_on_c, 4, 82, 105
6, 183264, Note_on_c, 4, 82, 0
6, 183360, Note_on_c, 4, 81, 105
6, 183600, Note_on_c, 4, 81, 0
6, 183600, Note_on_c, 4, 77, 105
6, 183744, Note_on_c, 4, 77, 0
6, 183840, Note_on_c, 4, 84, 105
6, 183984, Note_on_c, 4, 84, 0
6, 184080, Note_on_c, 4, 81, 105
6, 184224, Note_on_c, 4, 81, 0
6, 184320, Note_on_c, 4, 82, 105
6, 184560, Note_on_c, 4, 82, 0
6, 184560, Note_on_c, 4, 77, 105
6, 184704, Note_on_c, 4, 77, 0
6, 184800, Note_on_c, 4, 86, 105
6, 184944, Note_on_c, 4, 86, 0
6, 185040, Note_on_c, 4, 82, 105
6, 185184, Note_on_c, 4, 82, 0
6, 185280, Note_on_c, 4, 81, 105
6, 185520, Note_on_c, 4, 81, 0
6, 185520, Note_on_c, 4, 77, 105
6, 185664, Note_on_c, 4, 77, 0
6, 185760, Note_on_c, 4, 84, 105
6, 185904, Note_on_c, 4, 84, 0
6, 186000, Note_on_c, 4, 81, 105
6, 186144, Note_on_c, 4, 81, 0
6, 186240, Note_on_c, 4, 82, 105
6, 186480, Note_on_c, 4, 82, 0
6, 186480, Note_on_c, 4, 77, 105
6, 186624, Note_on_c, 4, 77, 0
6, 186720, Note_on_c, 4, 86, 105
6, 186864, Note_on_c, 4, 86, 0
6, 186960, Note_on_c, 4, 82, 105
6, 187104, Note_on_c, 4, 82, 0
6, 187200, Note_on_c, 4, 81, 105
6, 187440, Note_on_c, 4, 81, 0
6, 187440, Note_on_c, 4, 77, 105
6, 187584, Note_on_c, 4, 77, 0
6, 187680, Note_on_c, 4, 84, 105
6, 187824, Note_on_c, 4, 84, 0
6, 187920, Note_on_c, 4, 81, 105
6, 188064, Note_on_c, 4, 81, 0
6, 188160, Note_on_c, 4, 82, 105
6, 188400, Note_on_c, 4, 82, 0
6, 188400, Note_on_c, 4, 86, 105
6, 188544, Note_on_c, 4, 86, 0
6, 188640, Note_on_c, 4, 84, 105
6, 188784, Note_on_c, 4, 84, 0
6, 188880, Note_on_c, 4, 81, 105
6, 189024, Note_on_c, 4, 81, 0
6, 189120, Note_on_c, 4, 82, 105
6, 189360, Note_on_c, 4, 82, 0
6, 189360, Note_on_c, 4, 86, 105
6, 189504, Note_on_c, 4, 86, 0
6, 189600, Note_on_c, 4, 84, 105
6, 189744, Note_on_c, 4, 84, 0
6, 189840, Note_on_c, 4, 81, 105
6, 189984, Note_on_c, 4, 81, 0
6, 190080, Note_on_c, 4, 82, 105
6, 190464, Note_on_c, 4, 82, 0
6, 192000, Note_on_c, 4, 62, 105
6, 192000, Note_on_c, 4, 78, 105
6, 192000, Note_on_c, 4, 72, 105
6, 192384, Note_on_c, 4, 72, 0
6, 192384, Note_on_c, 4, 78, 0
6, 192384, Note_on_c, 4, 62, 0
6, 195360, Note_on_c, 4, 75, 70
6, 195600, Note_on_c, 4, 75, 0
6, 195600, Note_on_c, 4, 74, 70
6, 195792, Note_on_c, 4, 74, 0
6, 195840, Note_on_c, 4, 74, 70
6, 196224, Note_on_c, 4, 74, 0
6, 196320, Note_on_c, 4, 75, 70
6, 196560, Note_on_c, 4, 75, 0
6, 196560, Note_on_c, 4, 74, 70
6, 196752, Note_on_c, 4, 74, 0
6, 196800, Note_on_c, 4, 74, 70
6, 197184, Note_on_c, 4, 74, 0
6, 197280, Note_on_c, 4, 75, 70
6, 197520, Note_on_c, 4, 75, 0
6, 197520, Note_on_c, 4, 74, 70
6, 197712, Note_on_c, 4, 74, 0
6, 197760, Note_on_c, 4, 74, 70
6, 198240, Note_on_c, 4, 74, 0
6, 198240, Note_on_c, 4, 82, 70
6, 198624, Note_on_c, 4, 82, 0
6, 199200, Note_on_c, 4, 82, 70
6, 199440, Note_on_c, 4, 82, 0
6, 199440, Note_on_c, 4, 81, 70
6, 199632, Note_on_c, 4, 81, 0
6, 199680, Note_on_c, 4, 79, 70
6, 200064, Note_on_c, 4, 79, 0
6, 200160, Note_on_c, 4, 79, 70
6, 200400, Note_on_c, 4, 79, 0
6, 200400, Note_on_c, 4, 77, 70
6, 200592, Note_on_c, 4, 77, 0
6, 200640, Note_on_c, 4, 75, 70
6, 201024, Note_on_c, 4, 75, 0
6, 201120, Note_on_c, 4, 75, 70
6, 201360, Note_on_c, 4, 75, 0
6, 201360, Note_on_c, 4, 74, 70
6, 201552, Note_on_c, 4, 74, 0
6, 201600, Note_on_c, 4, 72, 70
6, 201984, Note_on_c, 4, 72, 0
6, 202080, Note_on_c, 4, 72, 70
6, 202464, Note_on_c, 4, 72, 0
6, 203040, Note_on_c, 4, 74, 70
6, 203280, Note_on_c, 4, 74, 0
6, 203280, Note_on_c, 4, 72, 70
6, 203472, Note_on_c, 4, 72, 0
6, 203520, Note_on_c, 4, 72, 70
6, 203904, Note_on_c, 4, 72, 0
6, 204000, Note_on_c, 4, 74, 70
6, 204240, Note_on_c, 4, 74, 0
6, 204240, Note_on_c, 4, 72, 70
6, 204432, Note_on_c, 4, 72, 0
6, 204480, Note_on_c, 4, 72, 70
6, 204864, Note_on_c, 4, 72, 0
6, 204960, Note_on_c, 4, 74, 70
6, 205200, Note_on_c, 4, 74, 0
6, 205200, Note_on_c, 4, 72, 70
6, 205392, Note_on_c, 4, 72, 0
6, 205440, Note_on_c, 4, 72, 70
6, 205920, Note_on_c, 4, 72, 0
6, 205920, Note_on_c, 4, 81, 70
6, 206304, Note_on_c, 4, 81, 0
6, 206880, Note_on_c, 4, 81, 70
6, 207120, Note_on_c, 4, 81, 0
6, 207120, Note_on_c, 4, 79, 70
6, 207312, Note_on_c, 4, 79, 0
6, 207360, Note_on_c, 4, 78, 70
6, 207744, Note_on_c, 4, 78, 0
6, 207840, Note_on_c, 4, 78, 70
6, 208080, Note_on_c, 4, 78, 0
6, 208080, Note_on_c, 4, 75, 70
6, 208272, Note_on_c, 4, 75, 0
6, 208320, Note_on_c, 4, 74, 70
6, 208704, Note_on_c, 4, 74, 0
6, 208800, Note_on_c, 4, 74, 70
6, 209040, Note_on_c, 4, 74, 0
6, 209040, Note_on_c, 4, 72, 70
6, 209232, Note_on_c, 4, 72, 0
6, 209280, Note_on_c, 4, 70, 70
6, 209664, Note_on_c, 4, 70, 0
6, 209760, Note_on_c, 4, 70, 70
6, 210144, Note_on_c, 4, 70, 0
6, 210720, Note_on_c, 4, 82, 70
6, 210960, Note_on_c, 4, 82, 0
6, 210960, Note_on_c, 4, 81, 70
6, 211152, Note_on_c, 4, 81, 0
6, 211200, Note_on_c, 4, 81, 70
6, 211680, Note_on_c, 4, 81, 0
6, 211680, Note_on_c, 4, 84, 70
6, 212160, Note_on_c, 4, 84, 0
6, 212160, Note_on_c, 4, 78, 70
6, 212640, Note_on_c, 4, 78, 0
6, 212640, Note_on_c, 4, 81, 70
6, 213024, Note_on_c, 4, 81, 0
6, 213120, Note_on_c, 4, 79, 70
6, 213600, Note_on_c, 4, 79, 0
6, 213600, Note_on_c, 4, 74, 70
6, 213984, Note_on_c, 4, 74, 0
6, 214560, Note_on_c, 4, 82, 70
6, 214800, Note_on_c, 4, 82, 0
6, 214800, Note_on_c, 4, 81, 70
6, 214992, Note_on_c, 4, 81, 0
6, 215040, Note_on_c, 4, 81, 70
6, 215520, Note_on_c, 4, 81, 0
6, 215520, Note_on_c, 4, 84, 70
6, 216000, Note_on_c, 4, 84, 0
6, 216000, Note_on_c, 4, 78, 70
6, 216480, Note_on_c, 4, 78, 0
6, 216480, Note_on_c, 4, 81, 70
6, 216864, Note_on_c, 4, 81, 0
6, 216960, Note_on_c, 4, 79, 70
6, 217440, Note_on_c, 4, 79, 0
6, 217440, Note_on_c, 4, 82, 70
6, 217824, Note_on_c, 4, 82, 0
6, 217920, Note_on_c, 4, 81, 70
6, 218160, Note_on_c, 4, 81, 0
6, 218160, Note_on_c, 4, 79, 70
6, 218400, Note_on_c, 4, 79, 0
6, 218400, Note_on_c, 4, 77, 70
6, 218640, Note_on_c, 4, 77, 0
6, 218640, Note_on_c, 4, 75, 70
6, 218832, Note_on_c, 4, 75, 0
6, 218880, Note_on_c, 4, 74, 70
6, 220800, Note_on_c, 4, 74, 0
6, 220800, Note_on_c, 4, 73, 70
6, 222624, Note_on_c, 4, 73, 0
6, 222720, Note_on_c, 4, 74, 70
6, 223488, Note_on_c, 4, 74, 0
6, 224160, Note_on_c, 4, 62, 105
6, 224340, Note_on_c, 4, 62, 0
6, 224400, Note_on_c, 4, 62, 105
6, 224580, Note_on_c, 4, 62, 0
6, 224640, Note_on_c, 4, 62, 105
6, 225408, Note_on_c, 4, 62, 0
6, 226080, Note_on_c, 4, 62, 105
6, 226260, Note_on_c, 4, 62, 0
6, 226320, Note_on_c, 4, 62, 105
6, 226500, Note_on_c, 4, 62, 0
6, 226560, Note_on_c, 4, 62, 105
6, 227328, Note_on_c, 4, 62, 0
6, 228000, Note_on_c, 4, 62, 105
6, 228180, Note_on_c, 4, 62, 0
6, 228240, Note_on_c, 4, 62, 105
6, 228420, Note_on_c, 4, 62, 0
6, 228480, Note_on_c, 4, 62, 105
6, 228840, Note_on_c, 4, 62, 0
6, 228960, Note_on_c, 4, 62, 105
6, 229140, Note_on_c, 4, 62, 0
6, 229200, Note_on_c, 4, 62, 105
6, 229380, Note_on_c, 4, 62, 0
6, 229440, Note_on_c, 4, 62, 105
6, 229800, Note_on_c, 4, 62, 0
6, 229920, Note_on_c, 4, 62, 105
6, 230100, Note_on_c, 4, 62, 0
6, 230160, Note_on_c, 4, 62, 105
6, 230340, Note_on_c, 4, 62, 0
6, 230400, Note_on_c, 4, 62, 105
6, 231168, Note_on_c, 4, 62, 0
6, 231840, Note_on_c, 4, 75, 70
6, 232080, Note_on_c, 4, 75, 0
6, 232080, Note_on_c, 4, 74, 70
6, 232272, Note_on_c, 4, 74, 0
6, 232320, Note_on_c, 4, 74, 70
6, 232704, Note_on_c, 4, 74, 0
6, 232800, Note_on_c, 4, 75, 70
6, 233040, Note_on_c, 4, 75, 0
6, 233040, Note_on_c, 4, 74, 70
6, 233232, Note_on_c, 4, 74, 0
6, 233280, Note_on_c, 4, 74, 70
6, 233664, Note_on_c, 4, 74, 0
6, 233760, Note_on_c, 4, 75, 70
6, 234000, Note_on_c, 4, 75, 0
6, 234000, Note_on_c, 4, 74, 70
6, 234192, Note_on_c, 4, 74, 0
6, 234240, Note_on_c, 4, 74, 70
6, 234720, Note_on_c, 4, 74, 0
6, 234720, Note_on_c, 4, 82, 70
6, 235104, Note_on_c, 4, 82, 0
6, 235680, Note_on_c, 4, 82, 70
6, 235920, Note_on_c, 4, 82, 0
6, 235920, Note_on_c, 4, 81, 70
6, 236112, Note_on_c, 4, 81, 0
6, 236160, Note_on_c, 4, 79, 70
6, 236544, Note_on_c, 4, 79, 0
6, 236640, Note_on_c, 4, 79, 70
6, 236880, Note_on_c, 4, 79, 0
6, 236880, Note_on_c, 4, 77, 70
6, 237072, Note_on_c, 4, 77, 0
6, 237120, Note_on_c, 4, 75, 70
6, 237504, Note_on_c, 4, 75, 0
6, 237600, Note_on_c, 4, 75, 70
6, 237840, Note_on_c, 4, 75, 0
6, 237840, Note_on_c, 4, 74, 70
6, 238032, Note_on_c, 4, 74, 0
6, 238080, Note_on_c, 4, 72, 70
6, 238464, Note_on_c, 4, 72, 0
6, 238560, Note_on_c, 4, 72, 70
6, 238944, Note_on_c, 4, 72, 0
6, 239520, Note_on_c, 4, 77, 70
6, 239760, Note_on_c, 4, 77, 0
6, 239760, Note_on_c, 4, 75, 70
6, 239952, Note_on_c, 4, 75, 0
6, 240000, Note_on_c, 4, 75, 70
6, 240384, Note_on_c, 4, 75, 0
6, 240480, Note_on_c, 4, 77, 70
6, 240720, Note_on_c, 4, 77, 0
6, 240720, Note_on_c, 4, 75, 70
6, 240912, Note_on_c, 4, 75, 0
6, 240960, Note_on_c, 4, 75, 70
6, 241344, Note_on_c, 4, 75, 0
6, 241440, Note_on_c, 4, 77, 70
6, 241680, Note_on_c, 4, 77, 0
6, 241680, Note_on_c, 4, 75, 70
6, 241872, Note_on_c, 4, 75, 0
6, 241920, Note_on_c, 4, 75, 70
6, 242400, Note_on_c, 4, 75, 0
6, 242400, Note_on_c, 4, 84, 70
6, 242784, Note_on_c, 4, 84, 0
6, 243360, Note_on_c, 4, 84, 70
6, 243600, Note_on_c, 4, 84, 0
6, 243600, Note_on_c, 4, 82, 70
6, 243792, Note_on_c, 4, 82, 0
6, 243840, Note_on_c, 4, 81, 70
6, 244224, Note_on_c, 4, 81, 0
6, 244320, Note_on_c, 4, 81, 70
6, 244560, Note_on_c, 4, 81, 0
6, 244560, Note_on_c, 4, 79, 70
6, 244752, Note_on_c, 4, 79, 0
6, 244800, Note_on_c, 4, 77, 70
6, 245184, Note_on_c, 4, 77, 0
6, 245280, Note_on_c, 4, 77, 70
6, 245520, Note_on_c, 4, 77, 0
6, 245520, Note_on_c, 4, 75, 70
6, 245712, Note_on_c, 4, 75, 0
6, 245760, Note_on_c, 4, 82, 105
6, 245760, Note_on_c, 4, 70, 105
6, 247296, Note_on_c, 4, 70, 0
6, 247296, Note_on_c, 4, 82, 0
6, 247680, Note_on_c, 4, 77, 105
6, 248832, Note_on_c, 4, 77, 0
6, 249360, Note_on_c, 4, 77, 105
6, 249492, Note_on_c, 4, 77, 0
6, 249600, Note_on_c, 4, 75, 105
6, 249864, Note_on_c, 4, 75, 0
6, 250080, Note_on_c, 4, 79, 105
6, 250344, Note_on_c, 4, 79, 0
6, 250560, Note_on_c, 4, 82, 105
6, 250824, Note_on_c, 4, 82, 0
6, 251520, Note_on_c, 4, 74, 105
6, 251784, Note_on_c, 4, 74, 0
6, 252000, Note_on_c, 4, 77, 105
6, 252264, Note_on_c, 4, 77, 0
6, 252480, Note_on_c, 4, 82, 105
6, 252744, Note_on_c, 4, 82, 0
6, 253200, Note_on_c, 4, 74, 105
6, 253332, Note_on_c, 4, 74, 0
6, 253440, Note_on_c, 4, 72, 105
6, 253704, Note_on_c, 4, 72, 0
6, 253920, Note_on_c, 4, 75, 105
6, 254184, Note_on_c, 4, 75, 0
6, 254400, Note_on_c, 4, 79, 105
6, 254664, Note_on_c, 4, 79, 0
6, 254880, Note_on_c, 4, 72, 105
6, 255144, Note_on_c, 4, 72, 0
6, 255360, Note_on_c, 4, 70, 105
6, 255624, Note_on_c, 4, 70, 0
6, 255840, Note_on_c, 4, 74, 105
6, 256104, Note_on_c, 4, 74, 0
6, 256320, Note_on_c, 4, 77, 105
6, 256584, Note_on_c, 4, 77, 0
6, 257040, Note_on_c, 4, 77, 105
6, 257172, Note_on_c, 4, 77, 0
6, 257280, Note_on_c, 4, 76, 125
6, 257472, Note_on_c, 4, 76, 0
6, 257520, Note_on_c, 4, 77, 105
6, 257712, Note_on_c, 4, 77, 0
6, 257760, Note_on_c, 4, 79, 105
6, 257952, Note_on_c, 4, 79, 0
6, 258000, Note_on_c, 4, 81, 105
6, 258192, Note_on_c, 4, 81, 0
6, 258240, Note_on_c, 4, 82, 105
6, 258432, Note_on_c, 4, 82, 0
6, 258480, Note_on_c, 4, 84, 105
6, 258672, Note_on_c, 4, 84, 0
6, 258720, Note_on_c, 4, 85, 105
6, 258912, Note_on_c, 4, 85, 0
6, 258960, Note_on_c, 4, 77, 105
6, 259152, Note_on_c, 4, 77, 0
6, 259200, Note_on_c, 4, 76, 125
6, 259392, Note_on_c, 4, 76, 0
6, 259440, Note_on_c, 4, 77, 105
6, 259632, Note_on_c, 4, 77, 0
6, 259680, Note_on_c, 4, 79, 105
6, 259872, Note_on_c, 4, 79, 0
6, 259920, Note_on_c, 4, 81, 105
6, 260112, Note_on_c, 4, 81, 0
6, 260160, Note_on_c, 4, 82, 105
6, 260352, Note_on_c, 4, 82, 0
6, 260400, Note_on_c, 4, 84, 105
6, 260592, Note_on_c, 4, 84, 0
6, 260640, Note_on_c, 4, 85, 105
6, 260832, Note_on_c, 4, 85, 0
6, 260880, Note_on_c, 4, 77, 105
6, 261072, Note_on_c, 4, 77, 0
6, 261120, Note_on_c, 4, 76, 125
6, 261312, Note_on_c, 4, 76, 0
6, 261360, Note_on_c, 4, 77, 105
6, 261552, Note_on_c, 4, 77, 0
6, 261600, Note_on_c, 4, 79, 105
6, 261792, Note_on_c, 4, 79, 0
6, 261840, Note_on_c, 4, 81, 105
6, 262032, Note_on_c, 4, 81, 0
6, 262080, Note_on_c, 4, 82, 105
6, 262272, Note_on_c, 4, 82, 0
6, 262320, Note_on_c, 4, 84, 105
6, 262512, Note_on_c, 4, 84, 0
6, 262560, Note_on_c, 4, 85, 105
6, 262752, Note_on_c, 4, 85, 0
6, 262800, Note_on_c, 4, 77, 105
6, 262992, Note_on_c, 4, 77, 0
6, 263040, Note_on_c, 4, 76, 125
6, 263232, Note_on_c, 4, 76, 0
6, 263280, Note_on_c, 4, 77, 105
6, 263472, Note_on_c, 4, 77, 0
6, 263520, Note_on_c, 4, 79, 105
6, 263712, Note_on_c, 4, 79, 0
6, 263760, Note_on_c, 4, 81, 105
6, 263952, Note_on_c, 4, 81, 0
6, 264000, Note_on_c, 4, 82, 105
6, 264192, Note_on_c, 4, 82, 0
6, 264240, Note_on_c, 4, 84, 105
6, 264432, Note_on_c, 4, 84, 0
6, 264480, Note_on_c, 4, 85, 105
6, 264672, Note_on_c, 4, 85, 0
6, 264720, Note_on_c, 4, 76, 105
6, 264912, Note_on_c, 4, 76, 0
6, 264960, Note_on_c, 4, 77, 116
6, 265728, Note_on_c, 4, 77, 0
6, 265920, Note_on_c, 4, 84, 116
6, 266208, Note_on_c, 4, 84, 0
6, 266400, Note_on_c, 4, 81, 116
6, 266688, Note_on_c, 4, 81, 0
6, 266880, Note_on_c, 4, 85, 116
6, 267648, Note_on_c, 4, 85, 0
6, 267840, Note_on_c, 4, 76, 116
6, 268128, Note_on_c, 4, 76, 0
6, 268320, Note_on_c, 4, 79, 116
6, 268608, Note_on_c, 4, 79, 0
6, 268800, Note_on_c, 4, 77, 116
6, 269568, Note_on_c, 4, 77, 0
6, 269760, Note_on_c, 4, 84, 116
6, 269952, Note_on_c, 4, 84, 0
6, 270000, Note_on_c, 4, 81, 116
6, 270192, Note_on_c, 4, 81, 0
6, 270240, Note_on_c, 4, 84, 116
6, 270432, Note_on_c, 4, 84, 0
6, 270480, Note_on_c, 4, 81, 116
6, 270672, Note_on_c, 4, 81, 0
6, 270720, Note_on_c, 4, 85, 116
6, 270912, Note_on_c, 4, 85, 0
6, 270960, Note_on_c, 4, 82, 116
6, 271152, Note_on_c, 4, 82, 0
6, 271200, Note_on_c, 4, 85, 116
6, 271392, Note_on_c, 4, 85, 0
6, 271440, Note_on_c, 4, 82, 116
6, 271632, Note_on_c, 4, 82, 0
6, 271680, Note_on_c, 4, 76, 116
6, 271872, Note_on_c, 4, 76, 0
6, 271920, Note_on_c, 4, 79, 116
6, 272112, Note_on_c, 4, 79, 0
6, 272160, Note_on_c, 4, 76, 116
6, 272352, Note_on_c, 4, 76, 0
6, 272400, Note_on_c, 4, 79, 116
6, 272592, Note_on_c, 4, 79, 0
6, 272640, Note_on_c, 4, 77, 116
6, 273024, Note_on_c, 4, 77, 0
6, 273600, Note_on_c, 4, 57, 92
6, 273600, Note_on_c, 4, 65, 92
6, 273984, Note_on_c, 4, 65, 0
6, 273984, Note_on_c, 4, 57, 0
6, 276480, Note_on_c, 4, 77, 70
6, 277920, Note_on_c, 4, 77, 0
6, 277920, Note_on_c, 4, 76, 70
6, 278400, Note_on_c, 4, 76, 0
6, 278400, Note_on_c, 4, 75, 70
6, 278784, Note_on_c, 4, 75, 0
6, 280800, Note_on_c, 4, 70, 70
6, 281112, Note_on_c, 4, 70, 0
6, 281280, Note_on_c, 4, 70, 70
6, 281760, Note_on_c, 4, 70, 0
6, 281760, Note_on_c, 4, 72, 70
6, 282144, Note_on_c, 4, 72, 0
6, 282240, Note_on_c, 4, 74, 70
6, 282960, Note_on_c, 4, 74, 0
6, 282960, Note_on_c, 4, 75, 70
6, 283200, Note_on_c, 4, 75, 0
6, 283200, Note_on_c, 4, 72, 70
6, 283584, Note_on_c, 4, 72, 0
6, 284160, Note_on_c, 4, 79, 70
6, 285600, Note_on_c, 4, 79, 0
6, 285600, Note_on_c, 4, 78, 70
6, 286080, Note_on_c, 4, 78, 0
6, 286080, Note_on_c, 4, 77, 70
6, 286560, Note_on_c, 4, 77, 0
6, 286560, Note_on_c, 4, 76, 70
6, 287040, Note_on_c, 4, 76, 0
6, 287040, Note_on_c, 4, 75, 70
6, 287520, Note_on_c, 4, 75, 0
6, 287520, Note_on_c, 4, 74, 70
6, 287904, Note_on_c, 4, 74, 0
6, 288000, Note_on_c, 4, 72, 70
6, 288480, Note_on_c, 4, 72, 0
6, 288480, Note_on_c, 4, 75, 70
6, 289248, Note_on_c, 4, 75, 0
6, 289440, Note_on_c, 4, 69, 70
6, 289824, Note_on_c, 4, 69, 0
6, 289920, Note_on_c, 4, 70, 70
6, 290304, Note_on_c, 4, 70, 0
6, 293760, Note_on_c, 4, 75, 58
6, 295200, Note_on_c, 4, 75, 0
6, 295200, Note_on_c, 4, 77, 58
6, 295320, Note_on_c, 4, 77, 0
6, 295320, Note_on_c, 4, 75, 58
6, 295440, Note_on_c, 4, 75, 0
6, 295440, Note_on_c, 4, 74, 58
6, 295560, Note_on_c, 4, 74, 0
6, 295560, Note_on_c, 4, 72, 58
6, 295680, Note_on_c, 4, 72, 0
6, 295680, Note_on_c, 4, 70, 58
6, 296064, Note_on_c, 4, 70, 0
6, 299520, Note_on_c, 4, 67, 70
6, 300960, Note_on_c, 4, 67, 0
6, 300960, Note_on_c, 4, 66, 70
6, 301440, Note_on_c, 4, 66, 0
6, 301440, Note_on_c, 4, 65, 70
6, 301920, Note_on_c, 4, 65, 0
6, 301920, Note_on_c, 4, 64, 70
6, 302400, Note_on_c, 4, 64, 0
6, 302400, Note_on_c, 4, 63, 70
6, 302880, Note_on_c, 4, 63, 0
6, 302880, Note_on_c, 4, 62, 70
6, 303264, Note_on_c, 4, 62, 0
6, 303360, Note_on_c, 4, 61, 58
6, 304800, Note_on_c, 4, 61, 0
6, 304800, Note_on_c, 4, 60, 58
6, 305184, Note_on_c, 4, 60, 0
6, 305280, Note_on_c, 4, 61, 58
6, 306720, Note_on_c, 4, 61, 0
6, 306720, Note_on_c, 4, 60, 58
6, 307104, Note_on_c, 4, 60, 0
6, 307200, Note_on_c, 4, 61, 58
6, 308640, Note_on_c, 4, 61, 0
6, 308640, Note_on_c, 4, 60, 58
6, 309024, Note_on_c, 4, 60, 0
6, 309120, Note_on_c, 4, 61, 58
6, 310560, Note_on_c, 4, 61, 0
6, 310560, Note_on_c, 4, 60, 58
6, 310944, Note_on_c, 4, 60, 0
6, 311040, Note_on_c, 4, 61, 58
6, 311256, Note_on_c, 4, 61, 0
6, 311280, Note_on_c, 4, 73, 70
6, 311496, Note_on_c, 4, 73, 0
6, 311520, Note_on_c, 4, 73, 72
6, 311736, Note_on_c, 4, 73, 0
6, 311760, Note_on_c, 4, 73, 75
6, 311976, Note_on_c, 4, 73, 0
6, 312000, Note_on_c, 4, 73, 78
6, 312216, Note_on_c, 4, 73, 0
6, 312240, Note_on_c, 4, 73, 80
6, 312456, Note_on_c, 4, 73, 0
6, 312480, Note_on_c, 4, 73, 83
6, 312696, Note_on_c, 4, 73, 0
6, 312720, Note_on_c, 4, 73, 86
6, 312936, Note_on_c, 4, 73, 0
6, 312960, Note_on_c, 4, 73, 88
6, 313176, Note_on_c, 4, 73, 0
6, 313200, Note_on_c, 4, 85, 91
6, 313416, Note_on_c, 4, 85, 0
6, 313440, Note_on_c, 4, 85, 94
6, 313656, Note_on_c, 4, 85, 0
6, 313680, Note_on_c, 4, 85, 96
6, 313896, Note_on_c, 4, 85, 0
6, 313920, Note_on_c, 4, 85, 99
6, 314136, Note_on_c, 4, 85, 0
6, 314160, Note_on_c, 4, 85, 102
6, 314376, Note_on_c, 4, 85, 0
6, 314400, Note_on_c, 4, 85, 105
6, 314616, Note_on_c, 4, 85, 0
6, 314640, Note_on_c, 4, 85, 107
6, 314856, Note_on_c, 4, 85, 0
6, 314880, Note_on_c, 4, 86, 105
6, 316704, Note_on_c, 4, 86, 0
6, 316800, Note_on_c, 4, 82, 105
6, 316920, Note_on_c, 4, 82, 0
6, 316920, Note_on_c, 4, 81, 105
6, 317040, Note_on_c, 4, 81, 0
6, 317040, Note_on_c, 4, 82, 105
6, 317160, Note_on_c, 4, 82, 0
6, 317160, Note_on_c, 4, 81, 105
6, 317280, Note_on_c, 4, 81, 0
6, 317280, Note_on_c, 4, 82, 105
6, 317400, Note_on_c, 4, 82, 0
6, 317400, Note_on_c, 4, 81, 105
6, 317520, Note_on_c, 4, 81, 0
6, 317520, Note_on_c, 4, 82, 105
6, 317640, Note_on_c, 4, 82, 0
6, 317640, Note_on_c, 4, 81, 105
6, 317760, Note_on_c, 4, 81, 0
6, 317760, Note_on_c, 4, 82, 105
6, 317880, Note_on_c, 4, 82, 0
6, 317880, Note_on_c, 4, 81, 105
6, 318000, Note_on_c, 4, 81, 0
6, 318000, Note_on_c, 4, 82, 105
6, 318120, Note_on_c, 4, 82, 0
6, 318120, Note_on_c, 4, 81, 105
6, 318240, Note_on_c, 4, 81, 0
6, 318240, Note_on_c, 4, 82, 105
6, 318360, Note_on_c, 4, 82, 0
6, 318360, Note_on_c, 4, 81, 105
6, 318480, Note_on_c, 4, 81, 0
6, 318480, Note_on_c, 4, 79, 105
6, 318600, Note_on_c, 4, 79, 0
6, 318600, Note_on_c, 4, 81, 105
6, 318720, Note_on_c, 4, 81, 0
6, 318720, Note_on_c, 4, 82, 92
6, 319104, Note_on_c, 4, 82, 0
6, 319200, Note_on_c, 4, 62, 125
6, 319392, Note_on_c, 4, 62, 0
6, 319440, Note_on_c, 4, 62, 105
6, 319632, Note_on_c, 4, 62, 0
6, 319680, Note_on_c, 4, 62, 105
6, 319872, Note_on_c, 4, 62, 0
6, 319920, Note_on_c, 4, 62, 105
6, 320112, Note_on_c, 4, 62, 0
6, 320160, Note_on_c, 4, 63, 105
6, 320352, Note_on_c, 4, 63, 0
6, 320400, Note_on_c, 4, 63, 105
6, 320592, Note_on_c, 4, 63, 0
6, 320640, Note_on_c, 4, 64, 105
6, 320832, Note_on_c, 4, 64, 0
6, 320880, Note_on_c, 4, 64, 105
6, 321072, Note_on_c, 4, 64, 0
6, 321120, Note_on_c, 4, 65, 105
6, 321312, Note_on_c, 4, 65, 0
6, 321360, Note_on_c, 4, 65, 105
6, 321552, Note_on_c, 4, 65, 0
6, 321600, Note_on_c, 4, 66, 105
6, 321792, Note_on_c, 4, 66, 0
6, 321840, Note_on_c, 4, 66, 105
6, 322032, Note_on_c, 4, 66, 0
6, 322080, Note_on_c, 4, 67, 105
6, 322272, Note_on_c, 4, 67, 0
6, 322320, Note_on_c, 4, 67, 105
6, 322512, Note_on_c, 4, 67, 0
6, 322560, Note_on_c, 4, 68, 105
6, 322944, Note_on_c, 4, 68, 0
6, 323400, Note_on_c, 4, 68, 105
6, 323496, Note_on_c, 4, 68, 0
6, 323520, Note_on_c, 4, 67, 105
6, 323904, Note_on_c, 4, 67, 0
6, 324360, Note_on_c, 4, 67, 105
6, 324456, Note_on_c, 4, 67, 0
6, 324480, Note_on_c, 4, 75, 105
6, 324864, Note_on_c, 4, 75, 0
6, 325320, Note_on_c, 4, 75, 105
6, 325416, Note_on_c, 4, 75, 0
6, 325440, Note_on_c, 4, 74, 105
6, 325824, Note_on_c, 4, 74, 0
6, 326280, Note_on_c, 4, 74, 105
6, 326376, Note_on_c, 4, 74, 0
6, 326400, Note_on_c, 4, 79, 105
6, 327504, Note_on_c, 4, 79, 0
6, 327600, Note_on_c, 4, 77, 70
6, 327744, Note_on_c, 4, 77, 0
6, 327840, Note_on_c, 4, 75, 70
6, 327984, Note_on_c, 4, 75, 0
6, 328080, Note_on_c, 4, 74, 70
6, 328224, Note_on_c, 4, 74, 0
6, 328320, Note_on_c, 4, 72, 70
6, 328464, Note_on_c, 4, 72, 0
6, 328560, Note_on_c, 4, 70, 70
6, 328704, Note_on_c, 4, 70, 0
6, 328800, Note_on_c, 4, 69, 70
6, 328944, Note_on_c, 4, 69, 0
6, 329040, Note_on_c, 4, 67, 70
6, 329184, Note_on_c, 4, 67, 0
6, 329280, Note_on_c, 4, 65, 70
6, 329424, Note_on_c, 4, 65, 0
6, 329520, Note_on_c, 4, 63, 70
6, 329664, Note_on_c, 4, 63, 0
6, 329760, Note_on_c, 4, 62, 70
6, 329904, Note_on_c, 4, 62, 0
6, 330000, Note_on_c, 4, 60, 70
6, 330144, Note_on_c, 4, 60, 0
6, 330240, Note_on_c, 4, 58, 70
6, 330624, Note_on_c, 4, 58, 0
6, 331200, Note_on_c, 4, 82, 70
6, 333120, Note_on_c, 4, 82, 0
6, 333120, Note_on_c, 4, 81, 70
6, 333888, Note_on_c, 4, 81, 0
6, 335040, Note_on_c, 4, 82, 70
6, 336960, Note_on_c, 4, 82, 0
6, 336960, Note_on_c, 4, 81, 70
6, 337728, Note_on_c, 4, 81, 0
6, 339360, Note_on_c, 4, 87, 116
6, 339600, Note_on_c, 4, 87, 0
6, 339600, Note_on_c, 4, 86, 116
6, 339792, Note_on_c, 4, 86, 0
6, 339840, Note_on_c, 4, 86, 116
6, 340224, Note_on_c, 4, 86, 0
6, 340320, Note_on_c, 4, 87, 116
6, 340560, Note_on_c, 4, 87, 0
6, 340560, Note_on_c, 4, 86, 116
6, 340752, Note_on_c, 4, 86, 0
6, 340800, Note_on_c, 4, 86, 116
6, 341184, Note_on_c, 4, 86, 0
6, 341280, Note_on_c, 4, 87, 116
6, 341520, Note_on_c, 4, 87, 0
6, 341520, Note_on_c, 4, 86, 116
6, 341712, Note_on_c, 4, 86, 0
6, 341760, Note_on_c, 4, 86, 116
6, 342528, Note_on_c, 4, 86, 0
6, 342720, Note_on_c, 4, 87, 116
6, 343440, Note_on_c, 4, 87, 0
6, 343440, Note_on_c, 4, 84, 116
6, 343632, Note_on_c, 4, 84, 0
6, 343680, Note_on_c, 4, 82, 116
6, 344400, Note_on_c, 4, 82, 0
6, 344400, Note_on_c, 4, 86, 116
6, 344592, Note_on_c, 4, 86, 0
6, 344640, Note_on_c, 4, 84, 116
6, 345360, Note_on_c, 4, 84, 0
6, 345360, Note_on_c, 4, 81, 116
6, 345552, Note_on_c, 4, 81, 0
6, 345600, Note_on_c, 4, 82, 92
6, 345984, Note_on_c, 4, 82, 0
6, 348480, Note_on_c, 4, 87, 70
6, 350400, Note_on_c, 4, 87, 0
6, 350400, Note_on_c, 4, 86, 70
6, 350784, Note_on_c, 4, 86, 0
6, 352320, Note_on_c, 4, 75, 70
6, 354240, Note_on_c, 4, 75, 0
6, 354240, Note_on_c, 4, 74, 58
6, 354624, Note_on_c, 4, 74, 0
6, 354720, Note_on_c, 4, 87, 116
6, 354960, Note_on_c, 4, 87, 0
6, 354960, Note_on_c, 4, 86, 116
6, 355152, Note_on_c, 4, 86, 0
6, 355200, Note_on_c, 4, 86, 116
6, 355584, Note_on_c, 4, 86, 0
6, 355680, Note_on_c, 4, 87, 116
6, 355920, Note_on_c, 4, 87, 0
6, 355920, Note_on_c, 4, 86, 116
6, 356112, Note_on_c, 4, 86, 0
6, 356160, Note_on_c, 4, 86, 116
6, 356544, Note_on_c, 4, 86, 0
6, 356640, Note_on_c, 4, 87, 116
6, 356880, Note_on_c, 4, 87, 0
6, 356880, Note_on_c, 4, 86, 116
6, 357072, Note_on_c, 4, 86, 0
6, 357120, Note_on_c, 4, 86, 116
6, 357888, Note_on_c, 4, 86, 0
6, 358080, Note_on_c, 4, 87, 116
6, 358800, Note_on_c, 4, 87, 0
6, 358800, Note_on_c, 4, 84, 116
6, 358992, Note_on_c, 4, 84, 0
6, 359040, Note_on_c, 4, 82, 116
6, 359760, Note_on_c, 4, 82, 0
6, 359760, Note_on_c, 4, 86, 116
6, 359952, Note_on_c, 4, 86, 0
6, 360000, Note_on_c, 4, 84, 116
6, 360720, Note_on_c, 4, 84, 0
6, 360720, Note_on_c, 4, 81, 116
6, 360912, Note_on_c, 4, 81, 0
6, 360960, Note_on_c, 4, 82, 116
6, 361152, Note_on_c, 4, 82, 0
6, 361200, Note_on_c, 4, 77, 116
6, 361392, Note_on_c, 4, 77, 0
6, 361440, Note_on_c, 4, 86, 105
6, 361632, Note_on_c, 4, 86, 0
6, 361680, Note_on_c, 4, 84, 105
6, 361872, Note_on_c, 4, 84, 0
6, 361920, Note_on_c, 4, 82, 105
6, 362112, Note_on_c, 4, 82, 0
6, 362160, Note_on_c, 4, 81, 105
6, 362352, Note_on_c, 4, 81, 0
6, 362400, Note_on_c, 4, 79, 105
6, 362592, Note_on_c, 4, 79, 0
6, 362640, Note_on_c, 4, 77, 105
6, 362832, Note_on_c, 4, 77, 0
6, 362880, Note_on_c, 4, 75, 105
6, 363072, Note_on_c, 4, 75, 0
6, 363120, Note_on_c, 4, 74, 105
6, 363312, Note_on_c, 4, 74, 0
6, 363360, Note_on_c, 4, 72, 105
6, 363552, Note_on_c, 4, 72, 0
6, 363600, Note_on_c, 4, 70, 105
6, 363792, Note_on_c, 4, 70, 0
6, 363840, Note_on_c, 4, 69, 105
6, 364032, Note_on_c, 4, 69, 0
6, 364080, Note_on_c, 4, 67, 105
6, 364272, Note_on_c, 4, 67, 0
6, 364320, Note_on_c, 4, 65, 105
6, 364512, Note_on_c, 4, 65, 0
6, 364560, Note_on_c, 4, 63, 105
6, 364752, Note_on_c, 4, 63, 0
6, 364800, Note_on_c, 4, 62, 105
6, 365136, Note_on_c, 4, 62, 0
6, 365280, Note_on_c, 4, 77, 125
6, 365616, Note_on_c, 4, 77, 0
6, 365760, Note_on_c, 4, 79, 125
6, 366096, Note_on_c, 4, 79, 0
6, 366240, Note_on_c, 4, 69, 125
6, 366576, Note_on_c, 4, 69, 0
6, 366720, Note_on_c, 4, 70, 105
6, 366912, Note_on_c, 4, 70, 0
6, 366960, Note_on_c, 4, 65, 105
6, 367152, Note_on_c, 4, 65, 0
6, 367200, Note_on_c, 4, 74, 105
6, 367392, Note_on_c, 4, 74, 0
6, 367440, Note_on_c, 4, 72, 105
6, 367632, Note_on_c, 4, 72, 0
6, 367680, Note_on_c, 4, 70, 105
6, 367872, Note_on_c, 4, 70, 0
6, 367920, Note_on_c, 4, 69, 105
6, 368112, Note_on_c, 4, 69, 0
6, 368160, Note_on_c, 4, 67, 105
6, 368352, Note_on_c, 4, 67, 0
6, 368400, Note_on_c, 4, 65, 105
6, 368592, Note_on_c, 4, 65, 0
6, 368640, Note_on_c, 4, 63, 105
6, 368832, Note_on_c, 4, 63, 0
6, 368880, Note_on_c, 4, 62, 105
6, 369072, Note_on_c, 4, 62, 0
6, 369120, Note_on_c, 4, 60, 105
6, 369312, Note_on_c, 4, 60, 0
6, 369360, Note_on_c, 4, 58, 105
6, 369552, Note_on_c, 4, 58, 0
6, 369600, Note_on_c, 4, 57, 105
6, 369792, Note_on_c, 4, 57, 0
6, 369840, Note_on_c, 4, 60, 105
6, 370032, Note_on_c, 4, 60, 0
6, 370080, Note_on_c, 4, 65, 105
6, 370272, Note_on_c, 4, 65, 0
6, 370320, Note_on_c, 4, 63, 105
6, 370512, Note_on_c, 4, 63, 0
6, 370560, Note_on_c, 4, 62, 105
6, 370896, Note_on_c, 4, 62, 0
6, 371040, Note_on_c, 4, 77, 125
6, 371376, Note_on_c, 4, 77, 0
6, 371520, Note_on_c, 4, 79, 125
6, 371856, Note_on_c, 4, 79, 0
6, 372000, Note_on_c, 4, 81, 125
6, 372336, Note_on_c, 4, 81, 0
6, 372480, Note_on_c, 4, 82, 125
6, 372816, Note_on_c, 4, 82, 0
6, 372960, Note_on_c, 4, 79, 125
6, 373296, Note_on_c, 4, 79, 0
6, 373440, Note_on_c, 4, 77, 125
6, 373776, Note_on_c, 4, 77, 0
6, 373920, Note_on_c, 4, 69, 125
6, 374256, Note_on_c, 4, 69, 0
6, 374400, Note_on_c, 4, 70, 105
6, 374640, Note_on_c, 4, 70, 0
6, 374640, Note_on_c, 4, 74, 105
6, 374784, Note_on_c, 4, 74, 0
6, 374880, Note_on_c, 4, 77, 105
6, 375024, Note_on_c, 4, 77, 0
6, 375120, Note_on_c, 4, 82, 105
6, 375264, Note_on_c, 4, 82, 0
6, 375360, Note_on_c, 4, 81, 105
6, 375600, Note_on_c, 4, 81, 0
6, 375600, Note_on_c, 4, 77, 105
6, 375744, Note_on_c, 4, 77, 0
6, 375840, Note_on_c, 4, 84, 105
6, 375984, Note_on_c, 4, 84, 0
6, 376080, Note_on_c, 4, 81, 105
6, 376224, Note_on_c, 4, 81, 0
6, 376320, Note_on_c, 4, 82, 105
6, 376560, Note_on_c, 4, 82, 0
6, 376560, Note_on_c, 4, 77, 105
6, 376704, Note_on_c, 4, 77, 0
6, 376800, Note_on_c, 4, 86, 105
6, 376944, Note_on_c, 4, 86, 0
6, 377040, Note_on_c, 4, 82, 105
6, 377184, Note_on_c, 4, 82, 0
6, 377280, Note_on_c, 4, 81, 105
6, 377520, Note_on_c, 4, 81, 0
6, 377520, Note_on_c, 4, 77, 105
6, 377664, Note_on_c, 4, 77, 0
6, 377760, Note_on_c, 4, 84, 105
6, 377904, Note_on_c, 4, 84, 0
6, 378000, Note_on_c, 4, 81, 105
6, 378144, Note_on_c, 4, 81, 0
6, 378240, Note_on_c, 4, 82, 105
6, 378480, Note_on_c, 4, 82, 0
6, 378480, Note_on_c, 4, 77, 105
6, 378624, Note_on_c, 4, 77, 0
6, 378720, Note_on_c, 4, 86, 105
6, 378864, Note_on_c, 4, 86, 0
6, 378960, Note_on_c, 4, 82, 105
6, 379104, Note_on_c, 4, 82, 0
6, 379200, Note_on_c, 4, 81, 105
6, 379440, Note_on_c, 4, 81, 0
6, 379440, Note_on_c, 4, 77, 105
6, 379584, Note_on_c, 4, 77, 0
6, 379680, Note_on_c, 4, 84, 105
6, 379824, Note_on_c, 4, 84, 0
6, 379920, Note_on_c, 4, 81, 105
6, 380064, Note_on_c, 4, 81, 0
6, 380160, Note_on_c, 4, 82, 105
6, 380400, Note_on_c, 4, 82, 0
6, 380400, Note_on_c, 4, 86, 105
6, 380544, Note_on_c, 4, 86, 0
6, 380640, Note_on_c, 4, 84, 105
6, 380784, Note_on_c, 4, 84, 0
6, 380880, Note_on_c, 4, 81, 105
6, 381024, Note_on_c, 4, 81, 0
6, 381120, Note_on_c, 4, 82, 105
6, 381360, Note_on_c, 4, 82, 0
6, 381360, Note_on_c, 4, 86, 105
6, 381504, Note_on_c, 4, 86, 0
6, 381600, Note_on_c, 4, 84, 105
6, 381744, Note_on_c, 4, 84, 0
6, 381840, Note_on_c, 4, 81, 105
6, 381984, Note_on_c, 4, 81, 0
6, 382080, Note_on_c, 4, 82, 105
6, 382464, Note_on_c, 4, 82, 0
6, 384000, Note_on_c, 4, 62, 105
6, 384000, Note_on_c, 4, 78, 105
6, 384000, Note_on_c, 4, 72, 105
6, 384384, Note_on_c, 4, 72, 0
6, 384384, Note_on_c, 4, 78, 0
6, 384384, Note_on_c, 4, 62, 0
6, 385920, Note_on_c, 4, 79, 105
6, 385920, Note_on_c, 4, 70, 105
6, 385920, Note_on_c, 4, 62, 105
6, 386304, Note_on_c, 4, 62, 0
6, 386304, Note_on_c, 4, 70, 0
6, 386304, Note_on_c, 4, 79, 0
6, 386880, Note_on_c, 4, 80, 105
6, 386880, Note_on_c, 4, 62, 105
6, 386880, Note_on_c, 4, 71, 105
6, 387264, Note_on_c, 4, 71, 0
6, 387264, Note_on_c, 4, 62, 0
6, 387264, Note_on_c, 4, 80, 0
6, 391200, Note_on_c, 4, 74, 70
6, 391440, Note_on_c, 4, 74, 0
6, 391440, Note_on_c, 4, 73, 70
6, 391632, Note_on_c, 4, 73, 0
6, 391680, Note_on_c, 4, 73, 70
6, 392064, Note_on_c, 4, 73, 0
6, 392160, Note_on_c, 4, 74, 70
6, 392400, Note_on_c, 4, 74, 0
6, 392400, Note_on_c, 4, 73, 70
6, 392592, Note_on_c, 4, 73, 0
6, 392640, Note_on_c, 4, 73, 70
6, 393024, Note_on_c, 4, 73, 0
6, 393120, Note_on_c, 4, 74, 70
6, 393360, Note_on_c, 4, 74, 0
6, 393360, Note_on_c, 4, 73, 70
6, 393552, Note_on_c, 4, 73, 0
6, 393600, Note_on_c, 4, 73, 70
6, 394080, Note_on_c, 4, 73, 0
6, 394080, Note_on_c, 4, 81, 70
6, 394464, Note_on_c, 4, 81, 0
6, 395040, Note_on_c, 4, 81, 70
6, 395280, Note_on_c, 4, 81, 0
6, 395280, Note_on_c, 4, 80, 70
6, 395472, Note_on_c, 4, 80, 0
6, 395520, Note_on_c, 4, 78, 70
6, 395904, Note_on_c, 4, 78, 0
6, 396000, Note_on_c, 4, 78, 70
6, 396240, Note_on_c, 4, 78, 0
6, 396240, Note_on_c, 4, 76, 70
6, 396432, Note_on_c, 4, 76, 0
6, 396480, Note_on_c, 4, 74, 70
6, 396864, Note_on_c, 4, 74, 0
6, 396960, Note_on_c, 4, 74, 70
6, 397200, Note_on_c, 4, 74, 0
6, 397200, Note_on_c, 4, 73, 70
6, 397392, Note_on_c, 4, 73, 0
6, 397440, Note_on_c, 4, 72, 70
6, 397824, Note_on_c, 4, 72, 0
6, 397920, Note_on_c, 4, 72, 70
6, 398304, Note_on_c, 4, 72, 0
6, 398880, Note_on_c, 4, 73, 70
6, 399120, Note_on_c, 4, 73, 0
6, 399120, Note_on_c, 4, 71, 70
6, 399312, Note_on_c, 4, 71, 0
6, 399360, Note_on_c, 4, 71, 70
6, 399744, Note_on_c, 4, 71, 0
6, 399840, Note_on_c, 4, 73, 70
6, 400080, Note_on_c, 4, 73, 0
6, 400080, Note_on_c, 4, 71, 70
6, 400272, Note_on_c, 4, 71, 0
6, 400320, Note_on_c, 4, 71, 70
6, 400704, Note_on_c, 4, 71, 0
6, 400800, Note_on_c, 4, 73, 70
6, 401040, Note_on_c, 4, 73, 0
6, 401040, Note_on_c, 4, 71, 70
6, 401232, Note_on_c, 4, 71, 0
6, 401280, Note_on_c, 4, 71, 70
6, 401760, Note_on_c, 4, 71, 0
6, 401760, Note_on_c, 4, 80, 70
6, 402144, Note_on_c, 4, 80, 0
6, 402720, Note_on_c, 4, 80, 70
6, 402960, Note_on_c, 4, 80, 0
6, 402960, Note_on_c, 4, 78, 70
6, 403152, Note_on_c, 4, 78, 0
6, 403200, Note_on_c, 4, 77, 70
6, 403584, Note_on_c, 4, 77, 0
6, 403680, Note_on_c, 4, 77, 70
6, 403920, Note_on_c, 4, 77, 0
6, 403920, Note_on_c, 4, 74, 70
6, 404112, Note_on_c, 4, 74, 0
6, 404160, Note_on_c, 4, 73, 70
6, 404544, Note_on_c, 4, 73, 0
6, 404640, Note_on_c, 4, 73, 70
6, 404880, Note_on_c, 4, 73, 0
6, 404880, Note_on_c, 4, 71, 70
6, 405072, Note_on_c, 4, 71, 0
6, 405120, Note_on_c, 4, 70, 70
6, 405504, Note_on_c, 4, 70, 0
6, 405600, Note_on_c, 4, 70, 70
6, 405984, Note_on_c, 4, 70, 0
6, 406560, Note_on_c, 4, 71, 70
6, 406800, Note_on_c, 4, 71, 0
6, 406800, Note_on_c, 4, 69, 70
6, 406992, Note_on_c, 4, 69, 0
6, 407040, Note_on_c, 4, 69, 70
6, 407424, Note_on_c, 4, 69, 0
6, 407520, Note_on_c, 4, 71, 70
6, 407760, Note_on_c, 4, 71, 0
6, 407760, Note_on_c, 4, 69, 70
6, 407952, Note_on_c, 4, 69, 0
6, 408000, Note_on_c, 4, 69, 70
6, 408384, Note_on_c, 4, 69, 0
6, 408480, Note_on_c, 4, 71, 70
6, 408720, Note_on_c, 4, 71, 0
6, 408720, Note_on_c, 4, 69, 70
6, 408912, Note_on_c, 4, 69, 0
6, 408960, Note_on_c, 4, 69, 70
6, 409440, Note_on_c, 4, 69, 0
6, 409440, Note_on_c, 4, 78, 70
6, 409824, Note_on_c, 4, 78, 0
6, 410400, Note_on_c, 4, 78, 70
6, 410640, Note_on_c, 4, 78, 0
6, 410640, Note_on_c, 4, 76, 70
6, 410832, Note_on_c, 4, 76, 0
6, 410880, Note_on_c, 4, 75, 70
6, 411264, Note_on_c, 4, 75, 0
6, 411360, Note_on_c, 4, 75, 70
6, 411600, Note_on_c, 4, 75, 0
6, 411600, Note_on_c, 4, 72, 70
6, 411792, Note_on_c, 4, 72, 0
6, 411840, Note_on_c, 4, 71, 70
6, 411984, Note_on_c, 4, 71, 0
6, 412080, Note_on_c, 4, 75, 92
6, 412224, Note_on_c, 4, 75, 0
6, 412320, Note_on_c, 4, 78, 92
6, 412464, Note_on_c, 4, 78, 0
6, 412560, Note_on_c, 4, 69, 92
6, 412704, Note_on_c, 4, 69, 0
6, 412800, Note_on_c, 4, 67, 92
6, 412944, Note_on_c, 4, 67, 0
6, 413040, Note_on_c, 4, 71, 92
6, 413184, Note_on_c, 4, 71, 0
6, 413280, Note_on_c, 4, 76, 92
6, 413424, Note_on_c, 4, 76, 0
6, 413520, Note_on_c, 4, 69, 92
6, 413664, Note_on_c, 4, 69, 0
6, 413760, Note_on_c, 4, 66, 92
6, 413904, Note_on_c, 4, 66, 0
6, 414000, Note_on_c, 4, 69, 92
6, 414144, Note_on_c, 4, 69, 0
6, 414240, Note_on_c, 4, 75, 92
6, 414384, Note_on_c, 4, 75, 0
6, 414480, Note_on_c, 4, 66, 92
6, 414624, Note_on_c, 4, 66, 0
6, 414720, Note_on_c, 4, 67, 92
6, 414864, Note_on_c, 4, 67, 0
6, 414960, Note_on_c, 4, 71, 92
6, 415104, Note_on_c, 4, 71, 0
6, 415200, Note_on_c, 4, 73, 92
6, 415344, Note_on_c, 4, 73, 0
6, 415440, Note_on_c, 4, 75, 92
6, 415584, Note_on_c, 4, 75, 0
6, 415680, Note_on_c, 4, 76, 92
6, 415824, Note_on_c, 4, 76, 0
6, 415920, Note_on_c, 4, 71, 92
6, 416064, Note_on_c, 4, 71, 0
6, 416160, Note_on_c, 4, 76, 92
6, 416304, Note_on_c, 4, 76, 0
6, 416400, Note_on_c, 4, 78, 92
6, 416544, Note_on_c, 4, 78, 0
6, 416640, Note_on_c, 4, 79, 92
6, 416784, Note_on_c, 4, 79, 0
6, 416880, Note_on_c, 4, 76, 92
6, 417024, Note_on_c, 4, 76, 0
6, 417120, Note_on_c, 4, 78, 92
6, 417264, Note_on_c, 4, 78, 0
6, 417360, Note_on_c, 4, 80, 92
6, 417504, Note_on_c, 4, 80, 0
6, 417600, Note_on_c, 4, 81, 92
6, 417744, Note_on_c, 4, 81, 0
6, 417840, Note_on_c, 4, 76, 92
6, 417984, Note_on_c, 4, 76, 0
6, 418080, Note_on_c, 4, 81, 92
6, 418224, Note_on_c, 4, 81, 0
6, 418320, Note_on_c, 4, 83, 92
6, 418464, Note_on_c, 4, 83, 0
6, 418560, Note_on_c, 4, 84, 105
6, 418896, Note_on_c, 4, 84, 0
6, 419040, Note_on_c, 4, 69, 105
6, 419376, Note_on_c, 4, 69, 0
6, 420000, Note_on_c, 4, 82, 116
6, 420240, Note_on_c, 4, 82, 0
6, 420240, Note_on_c, 4, 81, 116
6, 420432, Note_on_c, 4, 81, 0
6, 420480, Note_on_c, 4, 81, 116
6, 420864, Note_on_c, 4, 81, 0
6, 420960, Note_on_c, 4, 82, 116
6, 421200, Note_on_c, 4, 82, 0
6, 421200, Note_on_c, 4, 81, 116
6, 421392, Note_on_c, 4, 81, 0
6, 421440, Note_on_c, 4, 81, 116
6, 421824, Note_on_c, 4, 81, 0
6, 421920, Note_on_c, 4, 82, 116
6, 422160, Note_on_c, 4, 82, 0
6, 422160, Note_on_c, 4, 81, 116
6, 422352, Note_on_c, 4, 81, 0
6, 422400, Note_on_c, 4, 81, 116
6, 422880, Note_on_c, 4, 81, 0
6, 422880, Note_on_c, 4, 89, 116
6, 423264, Note_on_c, 4, 89, 0
6, 423840, Note_on_c, 4, 89, 116
6, 424080, Note_on_c, 4, 89, 0
6, 424080, Note_on_c, 4, 88, 116
6, 424272, Note_on_c, 4, 88, 0
6, 424320, Note_on_c, 4, 86, 116
6, 424704, Note_on_c, 4, 86, 0
6, 424800, Note_on_c, 4, 86, 116
6, 425040, Note_on_c, 4, 86, 0
6, 425040, Note_on_c, 4, 84, 116
6, 425232, Note_on_c, 4, 84, 0
6, 425280, Note_on_c, 4, 82, 116
6, 425664, Note_on_c, 4, 82, 0
6, 425760, Note_on_c, 4, 82, 116
6, 426000, Note_on_c, 4, 82, 0
6, 426000, Note_on_c, 4, 81, 116
6, 426192, Note_on_c, 4, 81, 0
6, 426240, Note_on_c, 4, 79, 92
6, 426384, Note_on_c, 4, 79, 0
6, 426480, Note_on_c, 4, 74, 92
6, 426624, Note_on_c, 4, 74, 0
6, 426720, Note_on_c, 4, 70, 92
6, 426864, Note_on_c, 4, 70, 0
6, 426960, Note_on_c, 4, 72, 92
6, 427104, Note_on_c, 4, 72, 0
6, 427200, Note_on_c, 4, 74, 92
6, 427344, Note_on_c, 4, 74, 0
6, 427440, Note_on_c, 4, 71, 92
6, 427584, Note_on_c, 4, 71, 0
6, 427680, Note_on_c, 4, 74, 92
6, 427824, Note_on_c, 4, 74, 0
6, 427920, Note_on_c, 4, 65, 92
6, 428064, Note_on_c, 4, 65, 0
6, 428160, Note_on_c, 4, 64, 92
6, 428304, Note_on_c, 4, 64, 0
6, 428400, Note_on_c, 4, 67, 92
6, 428544, Note_on_c, 4, 67, 0
6, 428640, Note_on_c, 4, 72, 92
6, 428784, Note_on_c, 4, 72, 0
6, 428880, Note_on_c, 4, 64, 92
6, 429024, Note_on_c, 4, 64, 0
6, 429120, Note_on_c, 4, 62, 92
6, 429264, Note_on_c, 4, 62, 0
6, 429360, Note_on_c, 4, 65, 92
6, 429504, Note_on_c, 4, 65, 0
6, 429600, Note_on_c, 4, 71, 92
6, 429744, Note_on_c, 4, 71, 0
6, 429840, Note_on_c, 4, 62, 92
6, 429984, Note_on_c, 4, 62, 0
6, 430080, Note_on_c, 4, 64, 92
6, 430224, Note_on_c, 4, 64, 0
6, 430320, Note_on_c, 4, 67, 92
6, 430464, Note_on_c, 4, 67, 0
6, 430560, Note_on_c, 4, 69, 92
6, 430704, Note_on_c, 4, 69, 0
6, 430800, Note_on_c, 4, 71, 92
6, 430944, Note_on_c, 4, 71, 0
6, 431040, Note_on_c, 4, 72, 92
6, 431184, Note_on_c, 4, 72, 0
6, 431280, Note_on_c, 4, 67, 92
6, 431424, Note_on_c, 4, 67, 0
6, 431520, Note_on_c, 4, 72, 92
6, 431664, Note_on_c, 4, 72, 0
6, 431760, Note_on_c, 4, 74, 92
6, 431904, Note_on_c, 4, 74, 0
6, 432000, Note_on_c, 4, 76, 92
6, 432144, Note_on_c, 4, 76, 0
6, 432240, Note_on_c, 4, 72, 92
6, 432384, Note_on_c, 4, 72, 0
6, 432480, Note_on_c, 4, 74, 92
6, 432624, Note_on_c, 4, 74, 0
6, 432720, Note_on_c, 4, 76, 92
6, 432864, Note_on_c, 4, 76, 0
6, 432960, Note_on_c, 4, 77, 92
6, 433104, Note_on_c, 4, 77, 0
6, 433200, Note_on_c, 4, 72, 92
6, 433344, Note_on_c, 4, 72, 0
6, 433440, Note_on_c, 4, 77, 92
6, 433584, Note_on_c, 4, 77, 0
6, 433680, Note_on_c, 4, 79, 92
6, 433824, Note_on_c, 4, 79, 0
6, 433920, Note_on_c, 4, 81, 92
6, 434256, Note_on_c, 4, 81, 0
6, 434400, Note_on_c, 4, 65, 105
6, 434736, Note_on_c, 4, 65, 0
6, 435360, Note_on_c, 4, 79, 116
6, 435600, Note_on_c, 4, 79, 0
6, 435600, Note_on_c, 4, 77, 116
6, 435792, Note_on_c, 4, 77, 0
6, 435840, Note_on_c, 4, 77, 116
6, 436224, Note_on_c, 4, 77, 0
6, 436320, Note_on_c, 4, 79, 116
6, 436560, Note_on_c, 4, 79, 0
6, 436560, Note_on_c, 4, 77, 116
6, 436752, Note_on_c, 4, 77, 0
6, 436800, Note_on_c, 4, 77, 116
6, 437184, Note_on_c, 4, 77, 0
6, 437280, Note_on_c, 4, 79, 116
6, 437520, Note_on_c, 4, 79, 0
6, 437520, Note_on_c, 4, 77, 116
6, 437712, Note_on_c, 4, 77, 0
6, 437760, Note_on_c, 4, 77, 116
6, 438240, Note_on_c, 4, 77, 0
6, 438240, Note_on_c, 4, 86, 116
6, 438624, Note_on_c, 4, 86, 0
6, 439200, Note_on_c, 4, 86, 116
6, 439440, Note_on_c, 4, 86, 0
6, 439440, Note_on_c, 4, 84, 116
6, 439632, Note_on_c, 4, 84, 0
6, 439680, Note_on_c, 4, 82, 116
6, 440064, Note_on_c, 4, 82, 0
6, 440160, Note_on_c, 4, 82, 116
6, 440400, Note_on_c, 4, 82, 0
6, 440400, Note_on_c, 4, 81, 116
6, 440592, Note_on_c, 4, 81, 0
6, 440640, Note_on_c, 4, 79, 116
6, 441024, Note_on_c, 4, 79, 0
6, 441120, Note_on_c, 4, 79, 116
6, 441360, Note_on_c, 4, 79, 0
6, 441360, Note_on_c, 4, 77, 116
6, 441552, Note_on_c, 4, 77, 0
6, 441600, Note_on_c, 4, 75, 116
6, 442080, Note_on_c, 4, 75, 0
6, 442080, Note_on_c, 4, 84, 116
6, 442464, Note_on_c, 4, 84, 0
6, 443040, Note_on_c, 4, 84, 116
6, 443280, Note_on_c, 4, 84, 0
6, 443280, Note_on_c, 4, 82, 116
6, 443472, Note_on_c, 4, 82, 0
6, 443520, Note_on_c, 4, 81, 116
6, 443904, Note_on_c, 4, 81, 0
6, 444000, Note_on_c, 4, 81, 116
6, 444240, Note_on_c, 4, 81, 0
6, 444240, Note_on_c, 4, 79, 116
6, 444432, Note_on_c, 4, 79, 0
6, 444480, Note_on_c, 4, 78, 116
6, 444864, Note_on_c, 4, 78, 0
6, 444960, Note_on_c, 4, 78, 116
6, 445200, Note_on_c, 4, 78, 0
6, 445200, Note_on_c, 4, 76, 116
6, 445392, Note_on_c, 4, 76, 0
6, 445440, Note_on_c, 4, 74, 116
6, 445920, Note_on_c, 4, 74, 0
6, 445920, Note_on_c, 4, 82, 116
6, 446304, Note_on_c, 4, 82, 0
6, 446880, Note_on_c, 4, 82, 116
6, 447120, Note_on_c, 4, 82, 0
6, 447120, Note_on_c, 4, 81, 116
6, 447312, Note_on_c, 4, 81, 0
6, 447360, Note_on_c, 4, 79, 116
6, 447744, Note_on_c, 4, 79, 0
6, 447840, Note_on_c, 4, 79, 105
6, 448080, Note_on_c, 4, 79, 0
6, 448080, Note_on_c, 4, 77, 105
6, 448272, Note_on_c, 4, 77, 0
6, 448320, Note_on_c, 4, 76, 105
6, 448704, Note_on_c, 4, 76, 0
6, 448800, Note_on_c, 4, 76, 105
6, 449040, Note_on_c, 4, 76, 0
6, 449040, Note_on_c, 4, 74, 105
6, 449232, Note_on_c, 4, 74, 0
6, 449280, Note_on_c, 4, 73, 105
6, 449760, Note_on_c, 4, 73, 0
6, 449760, Note_on_c, 4, 81, 105
6, 450144, Note_on_c, 4, 81, 0
6, 450720, Note_on_c, 4, 82, 105
6, 450960, Note_on_c, 4, 82, 0
6, 450960, Note_on_c, 4, 81, 116
6, 451152, Note_on_c, 4, 81, 0
6, 451200, Note_on_c, 4, 81, 116
6, 451584, Note_on_c, 4, 81, 0
6, 451680, Note_on_c, 4, 82, 116
6, 451920, Note_on_c, 4, 82, 0
6, 451920, Note_on_c, 4, 81, 116
6, 452112, Note_on_c, 4, 81, 0
6, 452160, Note_on_c, 4, 81, 116
6, 452544, Note_on_c, 4, 81, 0
6, 452640, Note_on_c, 4, 82, 116
6, 452880, Note_on_c, 4, 82, 0
6, 452880, Note_on_c, 4, 81, 116
6, 453072, Note_on_c, 4, 81, 0
6, 453120, Note_on_c, 4, 81, 116
6, 453504, Note_on_c, 4, 81, 0
6, 453600, Note_on_c, 4, 81, 116
6, 453984, Note_on_c, 4, 81, 0
6, 454560, Note_on_c, 4, 82, 116
6, 454800, Note_on_c, 4, 82, 0
6, 454800, Note_on_c, 4, 81, 116
6, 454992, Note_on_c, 4, 81, 0
6, 455040, Note_on_c, 4, 81, 116
6, 455424, Note_on_c, 4, 81, 0
6, 455520, Note_on_c, 4, 82, 116
6, 455760, Note_on_c, 4, 82, 0
6, 455760, Note_on_c, 4, 81, 116
6, 455952, Note_on_c, 4, 81, 0
6, 456000, Note_on_c, 4, 81, 116
6, 456384, Note_on_c, 4, 81, 0
6, 456480, Note_on_c, 4, 82, 116
6, 456720, Note_on_c, 4, 82, 0
6, 456720, Note_on_c, 4, 81, 116
6, 456912, Note_on_c, 4, 81, 0
6, 456960, Note_on_c, 4, 81, 116
6, 457368, Note_on_c, 4, 81, 0
6, 457440, Note_on_c, 4, 81, 116
6, 457848, Note_on_c, 4, 81, 0
6, 458400, Note_on_c, 4, 82, 70
6, 458640, Note_on_c, 4, 82, 0
6, 458640, Note_on_c, 4, 81, 70
6, 458784, Note_on_c, 4, 81, 0
6, 458880, Note_on_c, 4, 81, 70
6, 459168, Note_on_c, 4, 81, 0
6, 459360, Note_on_c, 4, 82, 70
6, 459600, Note_on_c, 4, 82, 0
6, 459600, Note_on_c, 4, 81, 70
6, 459744, Note_on_c, 4, 81, 0
6, 459840, Note_on_c, 4, 81, 70
6, 460128, Note_on_c, 4, 81, 0
6, 460320, Note_on_c, 4, 82, 70
6, 460560, Note_on_c, 4, 82, 0
6, 460560, Note_on_c, 4, 81, 70
6, 460704, Note_on_c, 4, 81, 0
6, 460800, Note_on_c, 4, 81, 70
6, 461088, Note_on_c, 4, 81, 0
6, 461280, Note_on_c, 4, 81, 70
6, 461568, Note_on_c, 4, 81, 0
6, 462240, Note_on_c, 4, 84, 70
6, 462480, Note_on_c, 4, 84, 0
6, 462480, Note_on_c, 4, 82, 70
6, 462624, Note_on_c, 4, 82, 0
6, 462720, Note_on_c, 4, 82, 70
6, 463008, Note_on_c, 4, 82, 0
6, 463200, Note_on_c, 4, 84, 70
6, 463440, Note_on_c, 4, 84, 0
6, 463440, Note_on_c, 4, 82, 70
6, 463584, Note_on_c, 4, 82, 0
6, 463680, Note_on_c, 4, 82, 70
6, 463968, Note_on_c, 4, 82, 0
6, 464160, Note_on_c, 4, 84, 70
6, 464400, Note_on_c, 4, 84, 0
6, 464400, Note_on_c, 4, 82, 70
6, 464544, Note_on_c, 4, 82, 0
6, 464640, Note_on_c, 4, 82, 70
6, 464928, Note_on_c, 4, 82, 0
6, 465120, Note_on_c, 4, 82, 70
6, 465408, Note_on_c, 4, 82, 0
6, 466080, Note_on_c, 4, 84, 70
6, 466320, Note_on_c, 4, 84, 0
6, 466320, Note_on_c, 4, 83, 70
6, 466464, Note_on_c, 4, 83, 0
6, 466560, Note_on_c, 4, 83, 70
6, 466848, Note_on_c, 4, 83, 0
6, 467040, Note_on_c, 4, 84, 70
6, 467280, Note_on_c, 4, 84, 0
6, 467280, Note_on_c, 4, 83, 70
6, 467424, Note_on_c, 4, 83, 0
6, 467520, Note_on_c, 4, 83, 70
6, 467808, Note_on_c, 4, 83, 0
6, 468000, Note_on_c, 4, 84, 70
6, 468240, Note_on_c, 4, 84, 0
6, 468240, Note_on_c, 4, 83, 70
6, 468384, Note_on_c, 4, 83, 0
6, 468480, Note_on_c, 4, 83, 70
6, 468768, Note_on_c, 4, 83, 0
6, 468960, Note_on_c, 4, 83, 70
6, 469248, Note_on_c, 4, 83, 0
6, 469920, Note_on_c, 4, 86, 70
6, 470160, Note_on_c, 4, 86, 0
6, 470160, Note_on_c, 4, 84, 70
6, 470304, Note_on_c, 4, 84, 0
6, 470400, Note_on_c, 4, 84, 70
6, 470688, Note_on_c, 4, 84, 0
6, 470880, Note_on_c, 4, 86, 70
6, 471120, Note_on_c, 4, 86, 0
6, 471120, Note_on_c, 4, 84, 70
6, 471264, Note_on_c, 4, 84, 0
6, 471360, Note_on_c, 4, 84, 70
6, 471648, Note_on_c, 4, 84, 0
6, 471840, Note_on_c, 4, 86, 70
6, 472080, Note_on_c, 4, 86, 0
6, 472080, Note_on_c, 4, 84, 70
6, 472224, Note_on_c, 4, 84, 0
6, 472320, Note_on_c, 4, 84, 70
6, 472608, Note_on_c, 4, 84, 0
6, 472800, Note_on_c, 4, 84, 70
6, 473088, Note_on_c, 4, 84, 0
6, 473760, Note_on_c, 4, 82, 70
6, 474000, Note_on_c, 4, 82, 0
6, 474000, Note_on_c, 4, 81, 70
6, 474144, Note_on_c, 4, 81, 0
6, 474240, Note_on_c, 4, 81, 70
6, 474528, Note_on_c, 4, 81, 0
6, 474720, Note_on_c, 4, 82, 70
6, 474960, Note_on_c, 4, 82, 0
6, 474960, Note_on_c, 4, 81, 70
6, 475104, Note_on_c, 4, 81, 0
6, 475200, Note_on_c, 4, 81, 70
6, 475488, Note_on_c, 4, 81, 0
6, 475680, Note_on_c, 4, 82, 70
6, 475920, Note_on_c, 4, 82, 0
6, 475920, Note_on_c, 4, 81, 70
6, 476064, Note_on_c, 4, 81, 0
6, 476160, Note_on_c, 4, 81, 70
6, 476448, Note_on_c, 4, 81, 0
6, 477600, Note_on_c, 4, 79, 70
6, 477840, Note_on_c, 4, 79, 0
6, 477840, Note_on_c, 4, 78, 70
6, 477984, Note_on_c, 4, 78, 0
6, 478080, Note_on_c, 4, 78, 70
6, 478368, Note_on_c, 4, 78, 0
6, 478560, Note_on_c, 4, 79, 70
6, 478800, Note_on_c, 4, 79, 0
6, 478800, Note_on_c, 4, 78, 70
6, 478944, Note_on_c, 4, 78, 0
6, 479040, Note_on_c, 4, 78, 70
6, 479328, Note_on_c, 4, 78, 0
6, 479520, Note_on_c, 4, 79, 70
6, 479760, Note_on_c, 4, 79, 0
6, 479760, Note_on_c, 4, 78, 70
6, 479904, Note_on_c, 4, 78, 0
6, 480000, Note_on_c, 4, 78, 70
6, 480288, Note_on_c, 4, 78, 0
6, 481440, Note_on_c, 4, 75, 58
6, 481680, Note_on_c, 4, 75, 0
6, 481680, Note_on_c, 4, 74, 58
6, 481824, Note_on_c, 4, 74, 0
6, 481920, Note_on_c, 4, 74, 58
6, 482304, Note_on_c, 4, 74, 0
6, 482400, Note_on_c, 4, 75, 58
6, 482592, Note_on_c, 4, 75, 0
6, 482640, Note_on_c, 4, 74, 58
6, 482832, Note_on_c, 4, 74, 0
6, 482880, Note_on_c, 4, 74, 58
6, 483264, Note_on_c, 4, 74, 0
6, 483360, Note_on_c, 4, 75, 58
6, 483552, Note_on_c, 4, 75, 0
6, 483600, Note_on_c, 4, 74, 58
6, 483792, Note_on_c, 4, 74, 0
6, 483840, Note_on_c, 4, 74, 58
6, 484224, Note_on_c, 4, 74, 0
6, 485280, Note_on_c, 4, 86, 116
6, 485520, Note_on_c, 4, 86, 0
6, 485520, Note_on_c, 4, 87, 116
6, 485712, Note_on_c, 4, 87, 0
6, 485760, Note_on_c, 4, 87, 116
6, 486144, Note_on_c, 4, 87, 0
6, 487200, Note_on_c, 4, 87, 116
6, 487440, Note_on_c, 4, 87, 0
6, 487440, Note_on_c, 4, 86, 116
6, 487632, Note_on_c, 4, 86, 0
6, 487680, Note_on_c, 4, 86, 116
6, 488064, Note_on_c, 4, 86, 0
6, 489120, Note_on_c, 4, 86, 116
6, 489360, Note_on_c, 4, 86, 0
6, 489360, Note_on_c, 4, 85, 116
6, 489552, Note_on_c, 4, 85, 0
6, 489600, Note_on_c, 4, 85, 116
6, 489984, Note_on_c, 4, 85, 0
6, 491040, Note_on_c, 4, 85, 116
6, 491280, Note_on_c, 4, 85, 0
6, 491280, Note_on_c, 4, 86, 116
6, 491472, Note_on_c, 4, 86, 0
6, 491520, Note_on_c, 4, 86, 116
6, 491904, Note_on_c, 4, 86, 0
6, 492960, Note_on_c, 4, 83, 116
6, 493200, Note_on_c, 4, 83, 0
6, 493200, Note_on_c, 4, 84, 116
6, 493392, Note_on_c, 4, 84, 0
6, 493440, Note_on_c, 4, 84, 116
6, 493824, Note_on_c, 4, 84, 0
6, 494880, Note_on_c, 4, 81, 116
6, 495120, Note_on_c, 4, 81, 0
6, 495120, Note_on_c, 4, 82, 116
6, 495312, Note_on_c, 4, 82, 0
6, 495360, Note_on_c, 4, 82, 116
6, 495744, Note_on_c, 4, 82, 0
6, 496800, Note_on_c, 4, 80, 116
6, 497040, Note_on_c, 4, 80, 0
6, 497040, Note_on_c, 4, 81, 116
6, 497232, Note_on_c, 4, 81, 0
6, 497280, Note_on_c, 4, 81, 116
6, 497664, Note_on_c, 4, 81, 0
6, 497760, Note_on_c, 4, 78, 116
6, 498000, Note_on_c, 4, 78, 0
6, 498000, Note_on_c, 4, 79, 116
6, 498192, Note_on_c, 4, 79, 0
6, 498240, Note_on_c, 4, 79, 116
6, 498624, Note_on_c, 4, 79, 0
6, 498720, Note_on_c, 4, 73, 116
6, 498960, Note_on_c, 4, 73, 0
6, 498960, Note_on_c, 4, 74, 116
6, 499152, Note_on_c, 4, 74, 0
6, 499200, Note_on_c, 4, 74, 105
6, 499584, Note_on_c, 4, 74, 0
6, 508320, Note_on_c, 4, 75, 70
6, 508560, Note_on_c, 4, 75, 0
6, 508560, Note_on_c, 4, 74, 70
6, 508752, Note_on_c, 4, 74, 0
6, 508800, Note_on_c, 4, 74, 70
6, 509184, Note_on_c, 4, 74, 0
6, 509280, Note_on_c, 4, 75, 70
6, 509520, Note_on_c, 4, 75, 0
6, 509520, Note_on_c, 4, 74, 70
6, 509712, Note_on_c, 4, 74, 0
6, 509760, Note_on_c, 4, 74, 70
6, 510144, Note_on_c, 4, 74, 0
6, 510240, Note_on_c, 4, 75, 70
6, 510480, Note_on_c, 4, 75, 0
6, 510480, Note_on_c, 4, 74, 70
6, 510672, Note_on_c, 4, 74, 0
6, 510720, Note_on_c, 4, 74, 70
6, 511200, Note_on_c, 4, 74, 0
6, 511200, Note_on_c, 4, 82, 70
6, 511584, Note_on_c, 4, 82, 0
6, 512160, Note_on_c, 4, 82, 70
6, 512400, Note_on_c, 4, 82, 0
6, 512400, Note_on_c, 4, 81, 70
6, 512592, Note_on_c, 4, 81, 0
6, 512640, Note_on_c, 4, 79, 70
6, 513024, Note_on_c, 4, 79, 0
6, 513120, Note_on_c, 4, 79, 70
6, 513360, Note_on_c, 4, 79, 0
6, 513360, Note_on_c, 4, 77, 70
6, 513552, Note_on_c, 4, 77, 0
6, 513600, Note_on_c, 4, 75, 70
6, 513984, Note_on_c, 4, 75, 0
6, 514080, Note_on_c, 4, 75, 70
6, 514320, Note_on_c, 4, 75, 0
6, 514320, Note_on_c, 4, 74, 70
6, 514512, Note_on_c, 4, 74, 0
6, 514560, Note_on_c, 4, 72, 70
6, 514944, Note_on_c, 4, 72, 0
6, 515040, Note_on_c, 4, 72, 70
6, 515424, Note_on_c, 4, 72, 0
6, 516000, Note_on_c, 4, 74, 70
6, 516240, Note_on_c, 4, 74, 0
6, 516240, Note_on_c, 4, 72, 70
6, 516432, Note_on_c, 4, 72, 0
6, 516480, Note_on_c, 4, 72, 70
6, 516864, Note_on_c, 4, 72, 0
6, 516960, Note_on_c, 4, 74, 70
6, 517200, Note_on_c, 4, 74, 0
6, 517200, Note_on_c, 4, 72, 70
6, 517392, Note_on_c, 4, 72, 0
6, 517440, Note_on_c, 4, 72, 70
6, 517824, Note_on_c, 4, 72, 0
6, 517920, Note_on_c, 4, 74, 70
6, 518160, Note_on_c, 4, 74, 0
6, 518160, Note_on_c, 4, 72, 70
6, 518352, Note_on_c, 4, 72, 0
6, 518400, Note_on_c, 4, 72, 70
6, 518880, Note_on_c, 4, 72, 0
6, 518880, Note_on_c, 4, 81, 70
6, 519264, Note_on_c, 4, 81, 0
6, 519840, Note_on_c, 4, 81, 70
6, 520080, Note_on_c, 4, 81, 0
6, 520080, Note_on_c, 4, 79, 70
6, 520272, Note_on_c, 4, 79, 0
6, 520320, Note_on_c, 4, 78, 70
6, 520704, Note_on_c, 4, 78, 0
6, 520800, Note_on_c, 4, 78, 70
6, 521040, Note_on_c, 4, 78, 0
6, 521040, Note_on_c, 4, 75, 70
6, 521232, Note_on_c, 4, 75, 0
6, 521280, Note_on_c, 4, 74, 70
6, 521664, Note_on_c, 4, 74, 0
6, 521760, Note_on_c, 4, 74, 70
6, 522000, Note_on_c, 4, 74, 0
6, 522000, Note_on_c, 4, 72, 70
6, 522192, Note_on_c, 4, 72, 0
6, 522240, Note_on_c, 4, 70, 70
6, 522624, Note_on_c, 4, 70, 0
6, 522720, Note_on_c, 4, 70, 70
6, 523104, Note_on_c, 4, 70, 0
6, 523680, Note_on_c, 4, 82, 70
6, 523920, Note_on_c, 4, 82, 0
6, 523920, Note_on_c, 4, 81, 70
6, 524112, Note_on_c, 4, 81, 0
6, 524160, Note_on_c, 4, 81, 70
6, 524640, Note_on_c, 4, 81, 0
6, 524640, Note_on_c, 4, 84, 70
6, 525120, Note_on_c, 4, 84, 0
6, 525120, Note_on_c, 4, 78, 70
6, 525600, Note_on_c, 4, 78, 0
6, 525600, Note_on_c, 4, 81, 70
6, 525984, Note_on_c, 4, 81, 0
6, 526080, Note_on_c, 4, 79, 70
6, 526560, Note_on_c, 4, 79, 0
6, 526560, Note_on_c, 4, 74, 70
6, 526944, Note_on_c, 4, 74, 0
6, 527520, Note_on_c, 4, 82, 70
6, 527760, Note_on_c, 4, 82, 0
6, 527760, Note_on_c, 4, 81, 70
6, 527952, Note_on_c, 4, 81, 0
6, 528000, Note_on_c, 4, 81, 70
6, 528480, Note_on_c, 4, 81, 0
6, 528480, Note_on_c, 4, 84, 70
6, 528960, Note_on_c, 4, 84, 0
6, 528960, Note_on_c, 4, 78, 70
6, 529440, Note_on_c, 4, 78, 0
6, 529440, Note_on_c, 4, 81, 70
6, 529824, Note_on_c, 4, 81, 0
6, 529920, Note_on_c, 4, 79, 70
6, 530400, Note_on_c, 4, 79, 0
6, 530400, Note_on_c, 4, 82, 70
6, 530784, Note_on_c, 4, 82, 0
6, 530880, Note_on_c, 4, 81, 70
6, 531120, Note_on_c, 4, 81, 0
6, 531120, Note_on_c, 4, 79, 70
6, 531360, Note_on_c, 4, 79, 0
6, 531360, Note_on_c, 4, 77, 70
6, 531600, Note_on_c, 4, 77, 0
6, 531600, Note_on_c, 4, 75, 70
6, 531828, Note_on_c, 4, 75, 0
6, 531840, Note_on_c, 4, 74, 70
6, 533760, Note_on_c, 4, 74, 0
6, 533760, Note_on_c, 4, 73, 70
6, 535584, Note_on_c, 4, 73, 0
6, 535680, Note_on_c, 4, 74, 58
6, 536448, Note_on_c, 4, 74, 0
6, 537120, Note_on_c, 4, 62, 105
6, 537312, Note_on_c, 4, 62, 0
6, 537360, Note_on_c, 4, 62, 105
6, 537552, Note_on_c, 4, 62, 0
6, 537600, Note_on_c, 4, 62, 105
6, 538368, Note_on_c, 4, 62, 0
6, 539040, Note_on_c, 4, 62, 105
6, 539232, Note_on_c, 4, 62, 0
6, 539280, Note_on_c, 4, 62, 105
6, 539472, Note_on_c, 4, 62, 0
6, 539520, Note_on_c, 4, 62, 105
6, 540288, Note_on_c, 4, 62, 0
6, 540960, Note_on_c, 4, 62, 105
6, 541128, Note_on_c, 4, 62, 0
6, 541200, Note_on_c, 4, 62, 105
6, 541368, Note_on_c, 4, 62, 0
6, 541440, Note_on_c, 4, 62, 105
6, 541776, Note_on_c, 4, 62, 0
6, 541920, Note_on_c, 4, 62, 105
6, 542088, Note_on_c, 4, 62, 0
6, 542160, Note_on_c, 4, 62, 105
6, 542328, Note_on_c, 4, 62, 0
6, 542400, Note_on_c, 4, 62, 105
6, 542736, Note_on_c, 4, 62, 0
6, 542880, Note_on_c, 4, 62, 105
6, 543048, Note_on_c, 4, 62, 0
6, 543120, Note_on_c, 4, 62, 105
6, 543288, Note_on_c, 4, 62, 0
6, 543360, Note_on_c, 4, 62, 105
6, 544128, Note_on_c, 4, 62, 0
6, 544800, Note_on_c, 4, 75, 70
6, 545040, Note_on_c, 4, 75, 0
6, 545040, Note_on_c, 4, 74, 70
6, 545232, Note_on_c, 4, 74, 0
6, 545280, Note_on_c, 4, 74, 70
6, 545664, Note_on_c, 4, 74, 0
6, 545760, Note_on_c, 4, 75, 70
6, 546000, Note_on_c, 4, 75, 0
6, 546000, Note_on_c, 4, 74, 70
6, 546192, Note_on_c, 4, 74, 0
6, 546240, Note_on_c, 4, 74, 70
6, 546624, Note_on_c, 4, 74, 0
6, 546720, Note_on_c, 4, 75, 70
6, 546960, Note_on_c, 4, 75, 0
6, 546960, Note_on_c, 4, 74, 70
6, 547152, Note_on_c, 4, 74, 0
6, 547200, Note_on_c, 4, 74, 70
6, 547680, Note_on_c, 4, 74, 0
6, 547680, Note_on_c, 4, 82, 70
6, 548064, Note_on_c, 4, 82, 0
6, 548640, Note_on_c, 4, 82, 70
6, 548880, Note_on_c, 4, 82, 0
6, 548880, Note_on_c, 4, 80, 70
6, 549072, Note_on_c, 4, 80, 0
6, 549120, Note_on_c, 4, 79, 70
6, 549504, Note_on_c, 4, 79, 0
6, 549600, Note_on_c, 4, 79, 70
6, 549840, Note_on_c, 4, 79, 0
6, 549840, Note_on_c, 4, 77, 70
6, 550032, Note_on_c, 4, 77, 0
6, 550080, Note_on_c, 4, 75, 70
6, 550464, Note_on_c, 4, 75, 0
6, 550560, Note_on_c, 4, 77, 70
6, 550800, Note_on_c, 4, 77, 0
6, 550800, Note_on_c, 4, 75, 70
6, 550992, Note_on_c, 4, 75, 0
6, 551040, Note_on_c, 4, 74, 70
6, 551424, Note_on_c, 4, 74, 0
6, 551520, Note_on_c, 4, 74, 70
6, 551904, Note_on_c, 4, 74, 0
6, 552480, Note_on_c, 4, 82, 70
6, 552720, Note_on_c, 4, 82, 0
6, 552720, Note_on_c, 4, 80, 70
6, 552912, Note_on_c, 4, 80, 0
6, 552960, Note_on_c, 4, 80, 70
6, 553344, Note_on_c, 4, 80, 0
6, 553440, Note_on_c, 4, 82, 70
6, 553680, Note_on_c, 4, 82, 0
6, 553680, Note_on_c, 4, 80, 70
6, 553872, Note_on_c, 4, 80, 0
6, 553920, Note_on_c, 4, 80, 70
6, 554304, Note_on_c, 4, 80, 0
6, 554400, Note_on_c, 4, 82, 70
6, 554640, Note_on_c, 4, 82, 0
6, 554640, Note_on_c, 4, 80, 70
6, 554832, Note_on_c, 4, 80, 0
6, 554880, Note_on_c, 4, 80, 70
6, 555360, Note_on_c, 4, 80, 0
6, 555360, Note_on_c, 4, 70, 70
6, 555744, Note_on_c, 4, 70, 0
6, 556320, Note_on_c, 4, 77, 70
6, 556560, Note_on_c, 4, 77, 0
6, 556560, Note_on_c, 4, 75, 70
6, 556752, Note_on_c, 4, 75, 0
6, 556800, Note_on_c, 4, 74, 70
6, 557184, Note_on_c, 4, 74, 0
6, 557280, Note_on_c, 4, 74, 70
6, 557520, Note_on_c, 4, 74, 0
6, 557520, Note_on_c, 4, 72, 70
6, 557712, Note_on_c, 4, 72, 0
6, 557760, Note_on_c, 4, 70, 70
6, 558144, Note_on_c, 4, 70, 0
6, 558240, Note_on_c, 4, 70, 70
6, 558480, Note_on_c, 4, 70, 0
6, 558480, Note_on_c, 4, 68, 70
6, 558672, Note_on_c, 4, 68, 0
6, 558720, Note_on_c, 4, 75, 116
6, 558720, Note_on_c, 4, 67, 116
6, 560256, Note_on_c, 4, 67, 0
6, 560256, Note_on_c, 4, 75, 0
6, 560640, Note_on_c, 4, 82, 116
6, 560640, Note_on_c, 4, 70, 116
6, 560640, Note_on_c, 4, 62, 116
6, 561024, Note_on_c, 4, 62, 0
6, 561024, Note_on_c, 4, 70, 0
6, 561888, Note_on_c, 4, 82, 0
6, 562320, Note_on_c, 4, 82, 116
6, 562452, Note_on_c, 4, 82, 0
6, 562560, Note_on_c, 4, 80, 116
6, 562824, Note_on_c, 4, 80, 0
6, 563040, Note_on_c, 4, 84, 116
6, 563304, Note_on_c, 4, 84, 0
6, 563520, Note_on_c, 4, 87, 116
6, 563784, Note_on_c, 4, 87, 0
6, 564480, Note_on_c, 4, 79, 116
6, 564744, Note_on_c, 4, 79, 0
6, 564960, Note_on_c, 4, 82, 116
6, 565224, Note_on_c, 4, 82, 0
6, 565440, Note_on_c, 4, 87, 116
6, 565704, Note_on_c, 4, 87, 0
6, 566160, Note_on_c, 4, 79, 116
6, 566292, Note_on_c, 4, 79, 0
6, 566400, Note_on_c, 4, 77, 116
6, 566664, Note_on_c, 4, 77, 0
6, 566880, Note_on_c, 4, 80, 116
6, 567144, Note_on_c, 4, 80, 0
6, 567360, Note_on_c, 4, 84, 116
6, 567624, Note_on_c, 4, 84, 0
6, 567840, Note_on_c, 4, 77, 116
6, 568104, Note_on_c, 4, 77, 0
6, 568320, Note_on_c, 4, 76, 116
6, 568584, Note_on_c, 4, 76, 0
6, 568800, Note_on_c, 4, 79, 116
6, 569064, Note_on_c, 4, 79, 0
6, 569280, Note_on_c, 4, 82, 116
6, 569544, Note_on_c, 4, 82, 0
6, 569760, Note_on_c, 4, 73, 116
6, 570024, Note_on_c, 4, 73, 0
6, 570240, Note_on_c, 4, 72, 116
6, 570504, Note_on_c, 4, 72, 0
6, 570720, Note_on_c, 4, 76, 116
6, 570984, Note_on_c, 4, 76, 0
6, 571200, Note_on_c, 4, 79, 116
6, 571464, Note_on_c, 4, 79, 0
6, 571680, Note_on_c, 4, 72, 116
6, 571944, Note_on_c, 4, 72, 0
6, 572160, Note_on_c, 4, 68, 92
6, 572352, Note_on_c, 4, 68, 0
6, 572400, Note_on_c, 4, 65, 92
6, 572592, Note_on_c, 4, 65, 0
6, 572640, Note_on_c, 4, 72, 92
6, 572832, Note_on_c, 4, 72, 0
6, 572880, Note_on_c, 4, 68, 92
6, 573072, Note_on_c, 4, 68, 0
6, 573120, Note_on_c, 4, 77, 92
6, 573312, Note_on_c, 4, 77, 0
6, 573360, Note_on_c, 4, 72, 92
6, 573552, Note_on_c, 4, 72, 0
6, 573600, Note_on_c, 4, 80, 92
6, 573792, Note_on_c, 4, 80, 0
6, 573840, Note_on_c, 4, 77, 92
6, 574032, Note_on_c, 4, 77, 0
6, 574080, Note_on_c, 4, 76, 92
6, 574272, Note_on_c, 4, 76, 0
6, 574320, Note_on_c, 4, 79, 92
6, 574512, Note_on_c, 4, 79, 0
6, 574560, Note_on_c, 4, 84, 92
6, 574752, Note_on_c, 4, 84, 0
6, 574800, Note_on_c, 4, 82, 92
6, 574992, Note_on_c, 4, 82, 0
6, 575040, Note_on_c, 4, 80, 92
6, 575232, Note_on_c, 4, 80, 0
6, 575280, Note_on_c, 4, 79, 92
6, 575472, Note_on_c, 4, 79, 0
6, 575520, Note_on_c, 4, 77, 92
6, 575712, Note_on_c, 4, 77, 0
6, 575760, Note_on_c, 4, 75, 92
6, 575952, Note_on_c, 4, 75, 0
6, 576000, Note_on_c, 4, 73, 92
6, 576192, Note_on_c, 4, 73, 0
6, 576240, Note_on_c, 4, 77, 92
6, 576432, Note_on_c, 4, 77, 0
6, 576480, Note_on_c, 4, 82, 92
6, 576672, Note_on_c, 4, 82, 0
6, 576720, Note_on_c, 4, 80, 92
6, 576912, Note_on_c, 4, 80, 0
6, 576960, Note_on_c, 4, 79, 92
6, 577152, Note_on_c, 4, 79, 0
6, 577200, Note_on_c, 4, 77, 92
6, 577392, Note_on_c, 4, 77, 0
6, 577440, Note_on_c, 4, 75, 92
6, 577632, Note_on_c, 4, 75, 0
6, 577680, Note_on_c, 4, 73, 92
6, 577872, Note_on_c, 4, 73, 0
6, 577920, Note_on_c, 4, 72, 92
6, 578112, Note_on_c, 4, 72, 0
6, 578160, Note_on_c, 4, 75, 92
6, 578352, Note_on_c, 4, 75, 0
6, 578400, Note_on_c, 4, 80, 92
6, 578592, Note_on_c, 4, 80, 0
6, 578640, Note_on_c, 4, 79, 92
6, 578832, Note_on_c, 4, 79, 0
6, 578880, Note_on_c, 4, 77, 92
6, 579072, Note_on_c, 4, 77, 0
6, 579120, Note_on_c, 4, 75, 92
6, 579312, Note_on_c, 4, 75, 0
6, 579360, Note_on_c, 4, 73, 92
6, 579552, Note_on_c, 4, 73, 0
6, 579600, Note_on_c, 4, 72, 92
6, 579792, Note_on_c, 4, 72, 0
6, 579840, Note_on_c, 4, 70, 92
6, 580032, Note_on_c, 4, 70, 0
6, 580080, Note_on_c, 4, 73, 92
6, 580272, Note_on_c, 4, 73, 0
6, 580320, Note_on_c, 4, 79, 92
6, 580512, Note_on_c, 4, 79, 0
6, 580560, Note_on_c, 4, 77, 92
6, 580752, Note_on_c, 4, 77, 0
6, 580800, Note_on_c, 4, 76, 92
6, 580992, Note_on_c, 4, 76, 0
6, 581040, Note_on_c, 4, 73, 92
6, 581232, Note_on_c, 4, 73, 0
6, 581280, Note_on_c, 4, 72, 92
6, 581472, Note_on_c, 4, 72, 0
6, 581520, Note_on_c, 4, 70, 92
6, 581712, Note_on_c, 4, 70, 0
6, 581760, Note_on_c, 4, 68, 105
6, 582144, Note_on_c, 4, 68, 0
6, 582480, Note_on_c, 4, 72, 116
6, 582624, Note_on_c, 4, 72, 0
6, 582720, Note_on_c, 4, 77, 116
6, 583008, Note_on_c, 4, 77, 0
6, 583200, Note_on_c, 4, 80, 116
6, 583488, Note_on_c, 4, 80, 0
6, 583680, Note_on_c, 4, 58, 116
6, 584064, Note_on_c, 4, 58, 0
6, 584400, Note_on_c, 4, 77, 116
6, 584544, Note_on_c, 4, 77, 0
6, 584640, Note_on_c, 4, 82, 116
6, 584928, Note_on_c, 4, 82, 0
6, 585120, Note_on_c, 4, 86, 116
6, 585408, Note_on_c, 4, 86, 0
6, 585600, Note_on_c, 4, 63, 116
6, 585984, Note_on_c, 4, 63, 0
6, 586320, Note_on_c, 4, 70, 116
6, 586464, Note_on_c, 4, 70, 0
6, 586560, Note_on_c, 4, 75, 116
6, 586848, Note_on_c, 4, 75, 0
6, 587040, Note_on_c, 4, 79, 116
6, 587328, Note_on_c, 4, 79, 0
6, 587520, Note_on_c, 4, 56, 116
6, 587904, Note_on_c, 4, 56, 0
6, 588240, Note_on_c, 4, 75, 116
6, 588384, Note_on_c, 4, 75, 0
6, 588480, Note_on_c, 4, 80, 116
6, 588768, Note_on_c, 4, 80, 0
6, 588960, Note_on_c, 4, 84, 116
6, 589248, Note_on_c, 4, 84, 0
6, 589440, Note_on_c, 4, 62, 116
6, 589824, Note_on_c, 4, 62, 0
6, 590160, Note_on_c, 4, 81, 116
6, 590304, Note_on_c, 4, 81, 0
6, 590400, Note_on_c, 4, 86, 116
6, 590688, Note_on_c, 4, 86, 0
6, 590880, Note_on_c, 4, 89, 116
6, 591168, Note_on_c, 4, 89, 0
6, 591360, Note_on_c, 4, 55, 116
6, 591744, Note_on_c, 4, 55, 0
6, 592080, Note_on_c, 4, 74, 116
6, 592224, Note_on_c, 4, 74, 0
6, 592320, Note_on_c, 4, 79, 116
6, 592608, Note_on_c, 4, 79, 0
6, 592800, Note_on_c, 4, 83, 116
6, 593088, Note_on_c, 4, 83, 0
6, 593280, Note_on_c, 4, 60, 116
6, 593664, Note_on_c, 4, 60, 0
6, 594000, Note_on_c, 4, 67, 116
6, 594144, Note_on_c, 4, 67, 0
6, 594240, Note_on_c, 4, 72, 116
6, 594528, Note_on_c, 4, 72, 0
6, 594720, Note_on_c, 4, 75, 116
6, 595008, Note_on_c, 4, 75, 0
6, 595200, Note_on_c, 4, 62, 116
6, 595584, Note_on_c, 4, 62, 0
6, 595920, Note_on_c, 4, 72, 116
6, 596064, Note_on_c, 4, 72, 0
6, 596160, Note_on_c, 4, 78, 116
6, 596448, Note_on_c, 4, 78, 0
6, 596640, Note_on_c, 4, 81, 116
6, 596928, Note_on_c, 4, 81, 0
6, 597120, Note_on_c, 4, 55, 116
6, 597120, Note_on_c, 4, 67, 116
6, 598656, Note_on_c, 4, 67, 0
6, 598656, Note_on_c, 4, 55, 0
6, 599040, Note_on_c, 4, 62, 105
6, 599040, Note_on_c, 4, 74, 105
6, 600192, Note_on_c, 4, 74, 0
6, 600192, Note_on_c, 4, 62, 0
6, 600720, Note_on_c, 4, 74, 105
6, 600852, Note_on_c, 4, 74, 0
6, 600960, Note_on_c, 4, 72, 105
6, 601224, Note_on_c, 4, 72, 0
6, 601440, Note_on_c, 4, 75, 105
6, 601704, Note_on_c, 4, 75, 0
6, 601920, Note_on_c, 4, 79, 105
6, 602184, Note_on_c, 4, 79, 0
6, 602880, Note_on_c, 4, 70, 105
6, 603144, Note_on_c, 4, 70, 0
6, 603360, Note_on_c, 4, 74, 105
6, 603624, Note_on_c, 4, 74, 0
6, 603840, Note_on_c, 4, 79, 105
6, 604104, Note_on_c, 4, 79, 0
6, 604560, Note_on_c, 4, 82, 105
6, 604692, Note_on_c, 4, 82, 0
6, 604800, Note_on_c, 4, 81, 105
6, 605064, Note_on_c, 4, 81, 0
6, 605280, Note_on_c, 4, 84, 105
6, 605544, Note_on_c, 4, 84, 0
6, 605760, Note_on_c, 4, 87, 105
6, 606024, Note_on_c, 4, 87, 0
6, 606480, Note_on_c, 4, 78, 105
6, 606612, Note_on_c, 4, 78, 0
6, 606720, Note_on_c, 4, 79, 105
6, 606984, Note_on_c, 4, 79, 0
6, 607200, Note_on_c, 4, 82, 105
6, 607464, Note_on_c, 4, 82, 0
6, 607680, Note_on_c, 4, 86, 105
6, 607944, Note_on_c, 4, 86, 0
6, 608400, Note_on_c, 4, 74, 105
6, 608532, Note_on_c, 4, 74, 0
6, 608640, Note_on_c, 4, 73, 125
6, 608832, Note_on_c, 4, 73, 0
6, 608880, Note_on_c, 4, 74, 105
6, 609072, Note_on_c, 4, 74, 0
6, 609120, Note_on_c, 4, 76, 105
6, 609312, Note_on_c, 4, 76, 0
6, 609360, Note_on_c, 4, 77, 105
6, 609552, Note_on_c, 4, 77, 0
6, 609600, Note_on_c, 4, 79, 105
6, 609792, Note_on_c, 4, 79, 0
6, 609840, Note_on_c, 4, 81, 105
6, 610032, Note_on_c, 4, 81, 0
6, 610080, Note_on_c, 4, 82, 105
6, 610272, Note_on_c, 4, 82, 0
6, 610320, Note_on_c, 4, 74, 105
6, 610512, Note_on_c, 4, 74, 0
6, 610560, Note_on_c, 4, 73, 125
6, 610752, Note_on_c, 4, 73, 0
6, 610800, Note_on_c, 4, 74, 105
6, 610992, Note_on_c, 4, 74, 0
6, 611040, Note_on_c, 4, 76, 105
6, 611232, Note_on_c, 4, 76, 0
6, 611280, Note_on_c, 4, 77, 105
6, 611472, Note_on_c, 4, 77, 0
6, 611520, Note_on_c, 4, 79, 105
6, 611712, Note_on_c, 4, 79, 0
6, 611760, Note_on_c, 4, 81, 105
6, 611952, Note_on_c, 4, 81, 0
6, 612000, Note_on_c, 4, 82, 105
6, 612192, Note_on_c, 4, 82, 0
6, 612240, Note_on_c, 4, 74, 105
6, 612432, Note_on_c, 4, 74, 0
6, 612480, Note_on_c, 4, 73, 125
6, 612672, Note_on_c, 4, 73, 0
6, 612720, Note_on_c, 4, 74, 105
6, 612912, Note_on_c, 4, 74, 0
6, 612960, Note_on_c, 4, 76, 105
6, 613152, Note_on_c, 4, 76, 0
6, 613200, Note_on_c, 4, 77, 105
6, 613392, Note_on_c, 4, 77, 0
6, 613440, Note_on_c, 4, 79, 105
6, 613632, Note_on_c, 4, 79, 0
6, 613680, Note_on_c, 4, 81, 105
6, 613872, Note_on_c, 4, 81, 0
6, 613920, Note_on_c, 4, 82, 105
6, 614112, Note_on_c, 4, 82, 0
6, 614160, Note_on_c, 4, 74, 105
6, 614352, Note_on_c, 4, 74, 0
6, 614400, Note_on_c, 4, 73, 125
6, 614592, Note_on_c, 4, 73, 0
6, 614640, Note_on_c, 4, 74, 105
6, 614832, Note_on_c, 4, 74, 0
6, 614880, Note_on_c, 4, 76, 105
6, 615072, Note_on_c, 4, 76, 0
6, 615120, Note_on_c, 4, 77, 105
6, 615312, Note_on_c, 4, 77, 0
6, 615360, Note_on_c, 4, 79, 105
6, 615552, Note_on_c, 4, 79, 0
6, 615600, Note_on_c, 4, 81, 105
6, 615792, Note_on_c, 4, 81, 0
6, 615840, Note_on_c, 4, 82, 105
6, 616032, Note_on_c, 4, 82, 0
6, 616080, Note_on_c, 4, 73, 105
6, 616272, Note_on_c, 4, 73, 0
6, 616320, Note_on_c, 4, 74, 105
6, 617088, Note_on_c, 4, 74, 0
6, 617280, Note_on_c, 4, 81, 105
6, 617568, Note_on_c, 4, 81, 0
6, 617760, Note_on_c, 4, 78, 105
6, 618048, Note_on_c, 4, 78, 0
6, 618240, Note_on_c, 4, 82, 105
6, 619008, Note_on_c, 4, 82, 0
6, 619200, Note_on_c, 4, 73, 105
6, 619488, Note_on_c, 4, 73, 0
6, 619680, Note_on_c, 4, 76, 105
6, 619968, Note_on_c, 4, 76, 0
6, 620160, Note_on_c, 4, 74, 105
6, 620928, Note_on_c, 4, 74, 0
6, 621120, Note_on_c, 4, 81, 105
6, 621288, Note_on_c, 4, 81, 0
6, 621360, Note_on_c, 4, 78, 105
6, 621528, Note_on_c, 4, 78, 0
6, 621600, Note_on_c, 4, 81, 105
6, 621768, Note_on_c, 4, 81, 0
6, 621840, Note_on_c, 4, 78, 105
6, 622008, Note_on_c, 4, 78, 0
6, 622080, Note_on_c, 4, 82, 105
6, 622272, Note_on_c, 4, 82, 0
6, 622320, Note_on_c, 4, 79, 105
6, 622512, Note_on_c, 4, 79, 0
6, 622560, Note_on_c, 4, 82, 105
6, 622752, Note_on_c, 4, 82, 0
6, 622800, Note_on_c, 4, 79, 105
6, 622992, Note_on_c, 4, 79, 0
6, 623040, Note_on_c, 4, 73, 105
6, 623232, Note_on_c, 4, 73, 0
6, 623280, Note_on_c, 4, 76, 105
6, 623472, Note_on_c, 4, 76, 0
6, 623520, Note_on_c, 4, 73, 105
6, 623712, Note_on_c, 4, 73, 0
6, 623760, Note_on_c, 4, 76, 105
6, 623952, Note_on_c, 4, 76, 0
6, 624000, Note_on_c, 4, 74, 105
6, 624384, Note_on_c, 4, 74, 0
6, 624960, Note_on_c, 4, 86, 92
6, 624960, Note_on_c, 4, 74, 92
6, 624960, Note_on_c, 4, 62, 92
6, 625344, Note_on_c, 4, 62, 0
6, 625344, Note_on_c, 4, 74, 0
6, 625344, Note_on_c, 4, 86, 0
6, 627840, Note_on_c, 4, 74, 70
6, 629280, Note_on_c, 4, 74, 0
6, 629280, Note_on_c, 4, 73, 70
6, 629760, Note_on_c, 4, 73, 0
6, 629760, Note_on_c, 4, 72, 70
6, 630144, Note_on_c, 4, 72, 0
6, 632160, Note_on_c, 4, 67, 70
6, 632592, Note_on_c, 4, 67, 0
6, 632640, Note_on_c, 4, 67, 70
6, 633120, Note_on_c, 4, 67, 0
6, 633120, Note_on_c, 4, 69, 70
6, 633552, Note_on_c, 4, 69, 0
6, 633600, Note_on_c, 4, 70, 70
6, 634320, Note_on_c, 4, 70, 0
6, 634320, Note_on_c, 4, 72, 70
6, 634560, Note_on_c, 4, 72, 0
6, 634560, Note_on_c, 4, 69, 70
6, 634944, Note_on_c, 4, 69, 0
6, 635520, Note_on_c, 4, 75, 70
6, 636960, Note_on_c, 4, 75, 0
6, 636960, Note_on_c, 4, 74, 70
6, 637440, Note_on_c, 4, 74, 0
6, 637440, Note_on_c, 4, 73, 70
6, 637920, Note_on_c, 4, 73, 0
6, 637920, Note_on_c, 4, 72, 70
6, 638400, Note_on_c, 4, 72, 0
6, 638400, Note_on_c, 4, 71, 70
6, 638880, Note_on_c, 4, 71, 0
6, 638880, Note_on_c, 4, 70, 70
6, 639264, Note_on_c, 4, 70, 0
6, 639360, Note_on_c, 4, 69, 70
6, 639840, Note_on_c, 4, 69, 0
6, 639840, Note_on_c, 4, 72, 70
6, 640608, Note_on_c, 4, 72, 0
6, 640800, Note_on_c, 4, 66, 70
6, 641184, Note_on_c, 4, 66, 0
6, 641280, Note_on_c, 4, 67, 70
6, 641664, Note_on_c, 4, 67, 0
6, 645120, Note_on_c, 4, 72, 58
6, 646560, Note_on_c, 4, 72, 0
6, 646560, Note_on_c, 4, 74, 58
6, 646680, Note_on_c, 4, 74, 0
6, 646680, Note_on_c, 4, 72, 58
6, 646800, Note_on_c, 4, 72, 0
6, 646800, Note_on_c, 4, 70, 58
6, 646920, Note_on_c, 4, 70, 0
6, 646920, Note_on_c, 4, 69, 58
6, 647040, Note_on_c, 4, 69, 0
6, 647040, Note_on_c, 4, 67, 58
6, 647424, Note_on_c, 4, 67, 0
6, 650880, Note_on_c, 4, 75, 58
6, 652320, Note_on_c, 4, 75, 0
6, 652320, Note_on_c, 4, 74, 58
6, 652800, Note_on_c, 4, 74, 0
6, 652800, Note_on_c, 4, 73, 58
6, 653280, Note_on_c, 4, 73, 0
6, 653280, Note_on_c, 4, 72, 58
6, 653760, Note_on_c, 4, 72, 0
6, 653760, Note_on_c, 4, 71, 58
6, 654240, Note_on_c, 4, 71, 0
6, 654240, Note_on_c, 4, 70, 58
6, 654624, Note_on_c, 4, 70, 0
6, 654720, Note_on_c, 4, 68, 58
6, 656160, Note_on_c, 4, 68, 0
6, 656160, Note_on_c, 4, 67, 58
6, 656544, Note_on_c, 4, 67, 0
6, 656640, Note_on_c, 4, 68, 58
6, 658080, Note_on_c, 4, 68, 0
6, 658080, Note_on_c, 4, 67, 58
6, 658464, Note_on_c, 4, 67, 0
6, 658560, Note_on_c, 4, 68, 58
6, 660000, Note_on_c, 4, 68, 0
6, 660000, Note_on_c, 4, 67, 58
6, 660384, Note_on_c, 4, 67, 0
6, 660480, Note_on_c, 4, 68, 58
6, 661920, Note_on_c, 4, 68, 0
6, 661920, Note_on_c, 4, 67, 58
6, 662304, Note_on_c, 4, 67, 0
6, 662400, Note_on_c, 4, 68, 58
6, 662592, Note_on_c, 4, 68, 0
6, 662640, Note_on_c, 4, 80, 72
6, 662832, Note_on_c, 4, 80, 0
6, 662880, Note_on_c, 4, 80, 74
6, 663072, Note_on_c, 4, 80, 0
6, 663120, Note_on_c, 4, 80, 77
6, 663312, Note_on_c, 4, 80, 0
6, 663360, Note_on_c, 4, 80, 79
6, 663552, Note_on_c, 4, 80, 0
6, 663600, Note_on_c, 4, 80, 82
6, 663792, Note_on_c, 4, 80, 0
6, 663840, Note_on_c, 4, 80, 84
6, 664032, Note_on_c, 4, 80, 0
6, 664080, Note_on_c, 4, 80, 87
6, 664272, Note_on_c, 4, 80, 0
6, 664320, Note_on_c, 4, 80, 89
6, 664512, Note_on_c, 4, 80, 0
6, 664560, Note_on_c, 4, 80, 92
6, 664752, Note_on_c, 4, 80, 0
6, 664800, Note_on_c, 4, 80, 94
6, 664992, Note_on_c, 4, 80, 0
6, 665040, Note_on_c, 4, 80, 97
6, 665232, Note_on_c, 4, 80, 0
6, 665280, Note_on_c, 4, 80, 99
6, 665472, Note_on_c, 4, 80, 0
6, 665520, Note_on_c, 4, 80, 101
6, 665712, Note_on_c, 4, 80, 0
6, 665760, Note_on_c, 4, 80, 104
6, 665952, Note_on_c, 4, 80, 0
6, 666000, Note_on_c, 4, 80, 106
6, 666192, Note_on_c, 4, 80, 0
6, 666240, Note_on_c, 4, 81, 116
6, 667392, Note_on_c, 4, 81, 0
6, 667680, Note_on_c, 4, 82, 116
6, 667740, Note_on_c, 4, 82, 0
6, 667740, Note_on_c, 4, 81, 116
6, 667800, Note_on_c, 4, 81, 0
6, 667800, Note_on_c, 4, 82, 116
6, 667860, Note_on_c, 4, 82, 0
6, 667860, Note_on_c, 4, 81, 116
6, 667920, Note_on_c, 4, 81, 0
6, 667920, Note_on_c, 4, 82, 116
6, 667980, Note_on_c, 4, 82, 0
6, 667980, Note_on_c, 4, 81, 116
6, 668040, Note_on_c, 4, 81, 0
6, 668040, Note_on_c, 4, 79, 116
6, 668100, Note_on_c, 4, 79, 0
6, 668100, Note_on_c, 4, 81, 116
6, 668148, Note_on_c, 4, 81, 0
6, 668160, Note_on_c, 4, 82, 116
6, 669312, Note_on_c, 4, 82, 0
6, 669600, Note_on_c, 4, 84, 116
6, 669660, Note_on_c, 4, 84, 0
6, 669660, Note_on_c, 4, 82, 116
6, 669720, Note_on_c, 4, 82, 0
6, 669720, Note_on_c, 4, 84, 116
6, 669780, Note_on_c, 4, 84, 0
6, 669780, Note_on_c, 4, 82, 116
6, 669840, Note_on_c, 4, 82, 0
6, 669840, Note_on_c, 4, 84, 116
6, 669900, Note_on_c, 4, 84, 0
6, 669900, Note_on_c, 4, 82, 116
6, 669960, Note_on_c, 4, 82, 0
6, 669960, Note_on_c, 4, 81, 116
6, 670020, Note_on_c, 4, 81, 0
6, 670020, Note_on_c, 4, 82, 116
6, 670068, Note_on_c, 4, 82, 0
6, 670080, Note_on_c, 4, 83, 116
6, 671232, Note_on_c, 4, 83, 0
6, 671520, Note_on_c, 4, 84, 116
6, 671580, Note_on_c, 4, 84, 0
6, 671580, Note_on_c, 4, 83, 116
6, 671640, Note_on_c, 4, 83, 0
6, 671640, Note_on_c, 4, 84, 116
6, 671700, Note_on_c, 4, 84, 0
6, 671700, Note_on_c, 4, 83, 116
6, 671760, Note_on_c, 4, 83, 0
6, 671760, Note_on_c, 4, 84, 116
6, 671820, Note_on_c, 4, 84, 0
6, 671820, Note_on_c, 4, 83, 116
6, 671880, Note_on_c, 4, 83, 0
6, 671880, Note_on_c, 4, 81, 116
6, 671940, Note_on_c, 4, 81, 0
6, 671940, Note_on_c, 4, 83, 116
6, 671988, Note_on_c, 4, 83, 0
6, 672000, Note_on_c, 4, 84, 116
6, 673152, Note_on_c, 4, 84, 0
6, 673440, Note_on_c, 4, 86, 116
6, 673500, Note_on_c, 4, 86, 0
6, 673500, Note_on_c, 4, 84, 116
6, 673560, Note_on_c, 4, 84, 0
6, 673560, Note_on_c, 4, 86, 116
6, 673620, Note_on_c, 4, 86, 0
6, 673620, Note_on_c, 4, 84, 116
6, 673680, Note_on_c, 4, 84, 0
6, 673680, Note_on_c, 4, 86, 116
6, 673740, Note_on_c, 4, 86, 0
6, 673740, Note_on_c, 4, 84, 116
6, 673800, Note_on_c, 4, 84, 0
6, 673800, Note_on_c, 4, 83, 116
6, 673860, Note_on_c, 4, 83, 0
6, 673860, Note_on_c, 4, 84, 116
6, 673908, Note_on_c, 4, 84, 0
6, 673920, Note_on_c, 4, 85, 116
6, 674256, Note_on_c, 4, 85, 0
6, 674400, Note_on_c, 4, 85, 116
6, 674736, Note_on_c, 4, 85, 0
6, 674880, Note_on_c, 4, 85, 116
6, 675216, Note_on_c, 4, 85, 0
6, 675360, Note_on_c, 4, 85, 116
6, 675696, Note_on_c, 4, 85, 0
6, 675840, Note_on_c, 4, 62, 116
6, 675960, Note_on_c, 4, 62, 0
6, 675960, Note_on_c, 4, 74, 116
6, 676080, Note_on_c, 4, 74, 0
6, 676080, Note_on_c, 4, 86, 116
6, 677472, Note_on_c, 4, 86, 0
6, 677760, Note_on_c, 4, 79, 116
6, 677880, Note_on_c, 4, 79, 0
6, 677880, Note_on_c, 4, 78, 116
6, 678000, Note_on_c, 4, 78, 0
6, 678000, Note_on_c, 4, 79, 116
6, 678120, Note_on_c, 4, 79, 0
6, 678120, Note_on_c, 4, 78, 116
6, 678240, Note_on_c, 4, 78, 0
6, 678240, Note_on_c, 4, 79, 116
6, 678360, Note_on_c, 4, 79, 0
6, 678360, Note_on_c, 4, 78, 116
6, 678480, Note_on_c, 4, 78, 0
6, 678480, Note_on_c, 4, 79, 116
6, 678600, Note_on_c, 4, 79, 0
6, 678600, Note_on_c, 4, 78, 116
6, 678720, Note_on_c, 4, 78, 0
6, 678720, Note_on_c, 4, 79, 116
6, 678840, Note_on_c, 4, 79, 0
6, 678840, Note_on_c, 4, 78, 116
6, 678960, Note_on_c, 4, 78, 0
6, 678960, Note_on_c, 4, 79, 116
6, 679080, Note_on_c, 4, 79, 0
6, 679080, Note_on_c, 4, 78, 116
6, 679200, Note_on_c, 4, 78, 0
6, 679200, Note_on_c, 4, 79, 116
6, 679320, Note_on_c, 4, 79, 0
6, 679320, Note_on_c, 4, 78, 116
6, 679440, Note_on_c, 4, 78, 0
6, 679440, Note_on_c, 4, 76, 116
6, 679560, Note_on_c, 4, 76, 0
6, 679560, Note_on_c, 4, 78, 116
6, 679680, Note_on_c, 4, 78, 0
6, 679680, Note_on_c, 4, 79, 105
6, 680064, Note_on_c, 4, 79, 0
6, 680160, Note_on_c, 4, 58, 125
6, 680352, Note_on_c, 4, 58, 0
6, 680400, Note_on_c, 4, 58, 105
6, 680592, Note_on_c, 4, 58, 0
6, 680640, Note_on_c, 4, 58, 105
6, 680832, Note_on_c, 4, 58, 0
6, 680880, Note_on_c, 4, 58, 105
6, 681072, Note_on_c, 4, 58, 0
6, 681120, Note_on_c, 4, 60, 105
6, 681312, Note_on_c, 4, 60, 0
6, 681360, Note_on_c, 4, 60, 105
6, 681552, Note_on_c, 4, 60, 0
6, 681600, Note_on_c, 4, 61, 105
6, 681792, Note_on_c, 4, 61, 0
6, 681840, Note_on_c, 4, 61, 105
6, 682032, Note_on_c, 4, 61, 0
6, 682080, Note_on_c, 4, 62, 105
6, 682272, Note_on_c, 4, 62, 0
6, 682320, Note_on_c, 4, 62, 105
6, 682512, Note_on_c, 4, 62, 0
6, 682560, Note_on_c, 4, 63, 105
6, 682752, Note_on_c, 4, 63, 0
6, 682800, Note_on_c, 4, 63, 105
6, 682992, Note_on_c, 4, 63, 0
6, 683040, Note_on_c, 4, 64, 105
6, 683232, Note_on_c, 4, 64, 0
6, 683280, Note_on_c, 4, 64, 105
6, 683472, Note_on_c, 4, 64, 0
6, 683520, Note_on_c, 4, 65, 105
6, 683904, Note_on_c, 4, 65, 0
6, 684360, Note_on_c, 4, 65, 105
6, 684456, Note_on_c, 4, 65, 0
6, 684480, Note_on_c, 4, 63, 105
6, 684864, Note_on_c, 4, 63, 0
6, 685320, Note_on_c, 4, 63, 105
6, 685416, Note_on_c, 4, 63, 0
6, 685440, Note_on_c, 4, 72, 105
6, 685824, Note_on_c, 4, 72, 0
6, 686280, Note_on_c, 4, 72, 105
6, 686376, Note_on_c, 4, 72, 0
6, 686400, Note_on_c, 4, 70, 105
6, 686784, Note_on_c, 4, 70, 0
6, 687240, Note_on_c, 4, 70, 105
6, 687336, Note_on_c, 4, 70, 0
6, 687360, Note_on_c, 4, 75, 105
6, 688464, Note_on_c, 4, 75, 0
6, 688560, Note_on_c, 4, 74, 70
6, 688704, Note_on_c, 4, 74, 0
6, 688800, Note_on_c, 4, 72, 70
6, 688944, Note_on_c, 4, 72, 0
6, 689040, Note_on_c, 4, 70, 70
6, 689184, Note_on_c, 4, 70, 0
6, 689280, Note_on_c, 4, 69, 70
6, 689424, Note_on_c, 4, 69, 0
6, 689520, Note_on_c, 4, 67, 70
6, 689664, Note_on_c, 4, 67, 0
6, 689760, Note_on_c, 4, 66, 70
6, 689904, Note_on_c, 4, 66, 0
6, 690000, Note_on_c, 4, 63, 70
6, 690144, Note_on_c, 4, 63, 0
6, 690240, Note_on_c, 4, 62, 70
6, 690384, Note_on_c, 4, 62, 0
6, 690480, Note_on_c, 4, 60, 70
6, 690624, Note_on_c, 4, 60, 0
6, 690720, Note_on_c, 4, 58, 70
6, 690864, Note_on_c, 4, 58, 0
6, 690960, Note_on_c, 4, 57, 70
6, 691104, Note_on_c, 4, 57, 0
6, 691200, Note_on_c, 4, 55, 58
6, 691584, Note_on_c, 4, 55, 0
6, 692160, Note_on_c, 4, 79, 70
6, 694080, Note_on_c, 4, 79, 0
6, 694080, Note_on_c, 4, 78, 70
6, 694464, Note_on_c, 4, 78, 0
6, 696000, Note_on_c, 4, 67, 70
6, 697920, Note_on_c, 4, 67, 0
6, 697920, Note_on_c, 4, 66, 70
6, 698304, Note_on_c, 4, 66, 0
6, 700320, Note_on_c, 4, 80, 116
6, 700560, Note_on_c, 4, 80, 0
6, 700560, Note_on_c, 4, 79, 116
6, 700752, Note_on_c, 4, 79, 0
6, 700800, Note_on_c, 4, 79, 116
6, 701184, Note_on_c, 4, 79, 0
6, 701280, Note_on_c, 4, 80, 116
6, 701520, Note_on_c, 4, 80, 0
6, 701520, Note_on_c, 4, 79, 116
6, 701712, Note_on_c, 4, 79, 0
6, 701760, Note_on_c, 4, 79, 116
6, 702144, Note_on_c, 4, 79, 0
6, 702240, Note_on_c, 4, 80, 116
6, 702480, Note_on_c, 4, 80, 0
6, 702480, Note_on_c, 4, 79, 116
6, 702672, Note_on_c, 4, 79, 0
6, 702720, Note_on_c, 4, 79, 116
6, 703488, Note_on_c, 4, 79, 0
6, 703680, Note_on_c, 4, 87, 116
6, 704400, Note_on_c, 4, 87, 0
6, 704400, Note_on_c, 4, 84, 116
6, 704592, Note_on_c, 4, 84, 0
6, 704640, Note_on_c, 4, 82, 116
6, 705360, Note_on_c, 4, 82, 0
6, 705360, Note_on_c, 4, 86, 116
6, 705552, Note_on_c, 4, 86, 0
6, 705600, Note_on_c, 4, 78, 116
6, 706320, Note_on_c, 4, 78, 0
6, 706320, Note_on_c, 4, 81, 116
6, 706512, Note_on_c, 4, 81, 0
6, 706560, Note_on_c, 4, 79, 92
6, 706944, Note_on_c, 4, 79, 0
6, 709440, Note_on_c, 4, 84, 70
6, 711360, Note_on_c, 4, 84, 0
6, 711360, Note_on_c, 4, 82, 70
6, 711744, Note_on_c, 4, 82, 0
6, 713280, Note_on_c, 4, 72, 58
6, 715200, Note_on_c, 4, 72, 0
6, 715200, Note_on_c, 4, 70, 58
6, 715584, Note_on_c, 4, 70, 0
6, 715680, Note_on_c, 4, 80, 116
6, 715920, Note_on_c, 4, 80, 0
6, 715920, Note_on_c, 4, 79, 116
6, 716112, Note_on_c, 4, 79, 0
6, 716160, Note_on_c, 4, 79, 116
6, 716544, Note_on_c, 4, 79, 0
6, 716640, Note_on_c, 4, 80, 116
6, 716880, Note_on_c, 4, 80, 0
6, 716880, Note_on_c, 4, 79, 116
6, 717072, Note_on_c, 4, 79, 0
6, 717120, Note_on_c, 4, 79, 116
6, 717504, Note_on_c, 4, 79, 0
6, 717600, Note_on_c, 4, 80, 116
6, 717840, Note_on_c, 4, 80, 0
6, 717840, Note_on_c, 4, 79, 116
6, 718032, Note_on_c, 4, 79, 0
6, 718080, Note_on_c, 4, 79, 116
6, 718848, Note_on_c, 4, 79, 0
6, 719040, Note_on_c, 4, 87, 116
6, 719760, Note_on_c, 4, 87, 0
6, 719760, Note_on_c, 4, 84, 116
6, 719952, Note_on_c, 4, 84, 0
6, 720000, Note_on_c, 4, 82, 116
6, 720720, Note_on_c, 4, 82, 0
6, 720720, Note_on_c, 4, 79, 116
6, 720912, Note_on_c, 4, 79, 0
6, 720960, Note_on_c, 4, 86, 116
6, 721680, Note_on_c, 4, 86, 0
6, 721680, Note_on_c, 4, 78, 116
6, 721872, Note_on_c, 4, 78, 0
6, 721920, Note_on_c, 4, 79, 116
6, 722112, Note_on_c, 4, 79, 0
6, 722160, Note_on_c, 4, 74, 116
6, 722352, Note_on_c, 4, 74, 0
6, 722400, Note_on_c, 4, 82, 116
6, 722592, Note_on_c, 4, 82, 0
6, 722640, Note_on_c, 4, 81, 116
6, 722832, Note_on_c, 4, 81, 0
6, 722880, Note_on_c, 4, 79, 116
6, 723072, Note_on_c, 4, 79, 0
6, 723120, Note_on_c, 4, 77, 116
6, 723312, Note_on_c, 4, 77, 0
6, 723360, Note_on_c, 4, 75, 116
6, 723552, Note_on_c, 4, 75, 0
6, 723600, Note_on_c, 4, 74, 116
6, 723792, Note_on_c, 4, 74, 0
6, 723840, Note_on_c, 4, 72, 116
6, 724032, Note_on_c, 4, 72, 0
6, 724080, Note_on_c, 4, 70, 116
6, 724272, Note_on_c, 4, 70, 0
6, 724320, Note_on_c, 4, 69, 116
6, 724512, Note_on_c, 4, 69, 0
6, 724560, Note_on_c, 4, 67, 116
6, 724752, Note_on_c, 4, 67, 0
6, 724800, Note_on_c, 4, 66, 116
6, 724992, Note_on_c, 4, 66, 0
6, 725040, Note_on_c, 4, 63, 116
6, 725232, Note_on_c, 4, 63, 0
6, 725280, Note_on_c, 4, 62, 116
6, 725472, Note_on_c, 4, 62, 0
6, 725520, Note_on_c, 4, 60, 116
6, 725712, Note_on_c, 4, 60, 0
6, 725760, Note_on_c, 4, 58, 116
6, 726072, Note_on_c, 4, 58, 0
6, 726240, Note_on_c, 4, 74, 127
6, 726552, Note_on_c, 4, 74, 0
6, 726720, Note_on_c, 4, 75, 127
6, 727032, Note_on_c, 4, 75, 0
6, 727200, Note_on_c, 4, 66, 127
6, 727512, Note_on_c, 4, 66, 0
6, 727680, Note_on_c, 4, 67, 116
6, 727872, Note_on_c, 4, 67, 0
6, 727920, Note_on_c, 4, 62, 116
6, 728112, Note_on_c, 4, 62, 0
6, 728160, Note_on_c, 4, 70, 116
6, 728352, Note_on_c, 4, 70, 0
6, 728400, Note_on_c, 4, 69, 116
6, 728592, Note_on_c, 4, 69, 0
6, 728640, Note_on_c, 4, 67, 116
6, 728832, Note_on_c, 4, 67, 0
6, 728880, Note_on_c, 4, 65, 116
6, 729072, Note_on_c, 4, 65, 0
6, 729120, Note_on_c, 4, 63, 116
6, 729312, Note_on_c, 4, 63, 0
6, 729360, Note_on_c, 4, 62, 116
6, 729552, Note_on_c, 4, 62, 0
6, 729600, Note_on_c, 4, 61, 116
6, 729792, Note_on_c, 4, 61, 0
6, 729840, Note_on_c, 4, 64, 116
6, 730032, Note_on_c, 4, 64, 0
6, 730080, Note_on_c, 4, 69, 116
6, 730272, Note_on_c, 4, 69, 0
6, 730320, Note_on_c, 4, 67, 116
6, 730512, Note_on_c, 4, 67, 0
6, 730560, Note_on_c, 4, 66, 116
6, 730752, Note_on_c, 4, 66, 0
6, 730800, Note_on_c, 4, 63, 116
6, 730992, Note_on_c, 4, 63, 0
6, 731040, Note_on_c, 4, 62, 116
6, 731232, Note_on_c, 4, 62, 0
6, 731280, Note_on_c, 4, 60, 116
6, 731472, Note_on_c, 4, 60, 0
6, 731520, Note_on_c, 4, 58, 105
6, 731904, Note_on_c, 4, 58, 0
6, 732360, Note_on_c, 4, 79, 116
6, 732456, Note_on_c, 4, 79, 0
6, 732480, Note_on_c, 4, 79, 116
6, 732864, Note_on_c, 4, 79, 0
6, 733320, Note_on_c, 4, 80, 116
6, 733416, Note_on_c, 4, 80, 0
6, 733440, Note_on_c, 4, 80, 116
6, 733824, Note_on_c, 4, 80, 0
6, 734280, Note_on_c, 4, 81, 116
6, 734376, Note_on_c, 4, 81, 0
6, 734400, Note_on_c, 4, 81, 116
6, 734784, Note_on_c, 4, 81, 0
6, 735240, Note_on_c, 4, 82, 116
6, 735336, Note_on_c, 4, 82, 0
6, 735360, Note_on_c, 4, 82, 116
6, 735744, Note_on_c, 4, 82, 0
6, 736200, Note_on_c, 4, 83, 116
6, 736296, Note_on_c, 4, 83, 0
6, 736320, Note_on_c, 4, 83, 116
6, 736704, Note_on_c, 4, 83, 0
6, 737160, Note_on_c, 4, 84, 116
6, 737256, Note_on_c, 4, 84, 0
6, 737280, Note_on_c, 4, 84, 116
6, 737664, Note_on_c, 4, 84, 0
6, 738120, Note_on_c, 4, 85, 116
6, 738216, Note_on_c, 4, 85, 0
6, 738240, Note_on_c, 4, 85, 116
6, 738624, Note_on_c, 4, 85, 0
6, 744480, Note_on_c, 4, 80, 70
6, 744720, Note_on_c, 4, 80, 0
6, 744720, Note_on_c, 4, 79, 70
6, 744912, Note_on_c, 4, 79, 0
6, 744960, Note_on_c, 4, 79, 70
6, 745344, Note_on_c, 4, 79, 0
6, 745440, Note_on_c, 4, 80, 70
6, 745680, Note_on_c, 4, 80, 0
6, 745680, Note_on_c, 4, 79, 70
6, 745872, Note_on_c, 4, 79, 0
6, 745920, Note_on_c, 4, 79, 70
6, 746304, Note_on_c, 4, 79, 0
6, 746400, Note_on_c, 4, 80, 70
6, 746640, Note_on_c, 4, 80, 0
6, 746640, Note_on_c, 4, 79, 70
6, 746832, Note_on_c, 4, 79, 0
6, 746880, Note_on_c, 4, 79, 70
6, 747360, Note_on_c, 4, 79, 0
6, 747360, Note_on_c, 4, 84, 70
6, 748320, Note_on_c, 4, 84, 0
6, 748320, Note_on_c, 4, 82, 70
6, 749280, Note_on_c, 4, 82, 0
6, 749280, Note_on_c, 4, 81, 58
6, 750240, Note_on_c, 4, 81, 0
6, 750240, Note_on_c, 4, 79, 58
6, 750624, Note_on_c, 4, 79, 0
6, 750720, Note_on_c, 4, 78, 58
6, 754464, Note_on_c, 4, 78, 0
6, 754560, Note_on_c, 4, 79, 116
6, 754728, Note_on_c, 4, 79, 0
6, 754800, Note_on_c, 4, 74, 116
6, 754968, Note_on_c, 4, 74, 0
6, 755040, Note_on_c, 4, 82, 116
6, 755208, Note_on_c, 4, 82, 0
6, 755280, Note_on_c, 4, 79, 116
6, 755448, Note_on_c, 4, 79, 0
6, 755520, Note_on_c, 4, 78, 116
6, 755688, Note_on_c, 4, 78, 0
6, 755760, Note_on_c, 4, 74, 116
6, 755928, Note_on_c, 4, 74, 0
6, 756000, Note_on_c, 4, 81, 116
6, 756168, Note_on_c, 4, 81, 0
6, 756240, Note_on_c, 4, 78, 116
6, 756408, Note_on_c, 4, 78, 0
6, 756480, Note_on_c, 4, 79, 116
6, 756648, Note_on_c, 4, 79, 0
6, 756720, Note_on_c, 4, 74, 116
6, 756888, Note_on_c, 4, 74, 0
6, 756960, Note_on_c, 4, 82, 116
6, 757128, Note_on_c, 4, 82, 0
6, 757200, Note_on_c, 4, 79, 116
6, 757368, Note_on_c, 4, 79, 0
6, 757440, Note_on_c, 4, 78, 116
6, 757608, Note_on_c, 4, 78, 0
6, 757680, Note_on_c, 4, 74, 116
6, 757848, Note_on_c, 4, 74, 0
6, 757920, Note_on_c, 4, 81, 116
6, 758088, Note_on_c, 4, 81, 0
6, 758160, Note_on_c, 4, 78, 116
6, 758328, Note_on_c, 4, 78, 0
6, 758400, Note_on_c, 4, 79, 116
6, 758568, Note_on_c, 4, 79, 0
6, 758640, Note_on_c, 4, 74, 116
6, 758808, Note_on_c, 4, 74, 0
6, 758880, Note_on_c, 4, 82, 116
6, 759048, Note_on_c, 4, 82, 0
6, 759120, Note_on_c, 4, 79, 116
6, 759288, Note_on_c, 4, 79, 0
6, 759360, Note_on_c, 4, 78, 116
6, 759528, Note_on_c, 4, 78, 0
6, 759600, Note_on_c, 4, 74, 116
6, 759768, Note_on_c, 4, 74, 0
6, 759840, Note_on_c, 4, 81, 116
6, 760008, Note_on_c, 4, 81, 0
6, 760080, Note_on_c, 4, 78, 116
6, 760248, Note_on_c, 4, 78, 0
6, 760320, Note_on_c, 4, 79, 116
6, 760488, Note_on_c, 4, 79, 0
6, 760560, Note_on_c, 4, 82, 116
6, 760728, Note_on_c, 4, 82, 0
6, 760800, Note_on_c, 4, 81, 116
6, 760968, Note_on_c, 4, 81, 0
6, 761040, Note_on_c, 4, 78, 116
6, 761208, Note_on_c, 4, 78, 0
6, 761280, Note_on_c, 4, 79, 116
6, 761448, Note_on_c, 4, 79, 0
6, 761520, Note_on_c, 4, 82, 116
6, 761688, Note_on_c, 4, 82, 0
6, 761760, Note_on_c, 4, 81, 116
6, 761928, Note_on_c, 4, 81, 0
6, 762000, Note_on_c, 4, 78, 116
6, 762168, Note_on_c, 4, 78, 0
6, 762240, Note_on_c, 4, 79, 116
6, 762624, Note_on_c, 4, 79, 0
6, 764160, Note_on_c, 4, 62, 116
6, 764160, Note_on_c, 4, 70, 116
6, 764160, Note_on_c, 4, 79, 116
6, 764544, Note_on_c, 4, 79, 0
6, 764544, Note_on_c, 4, 70, 0
6, 764544, Note_on_c, 4, 62, 0
6, 765120, Note_on_c, 4, 82, 116
6, 765120, Note_on_c, 4, 74, 116
6, 765120, Note_on_c, 4, 67, 116
6, 765504, Note_on_c, 4, 67, 0
6, 765504, Note_on_c, 4, 74, 0
6, 765504, Note_on_c, 4, 82, 0
6, 766080, Note_on_c, 4, 55, 116
6, 767040, Note_on_c, 4, 55, 0
6, 767040, End_track
7, 0, Start_track
7, 0, Sequencer_specific, 04, 43, 00, 01, 00
7, 0, Program_c, 5, 48
7, 0, Control_c, 5, 7, 123
7, 0, Control_c, 5, 10, 40
7, 0, Control_c, 5, 91, 85
7, 3360, Note_on_c, 5, 63, 70
7, 3600, Note_on_c, 5, 63, 0
7, 3600, Note_on_c, 5, 62, 70
7, 3792, Note_on_c, 5, 62, 0
7, 3840, Note_on_c, 5, 62, 70
7, 4224, Note_on_c, 5, 62, 0
7, 4320, Note_on_c, 5, 63, 70
7, 4560, Note_on_c, 5, 63, 0
7, 4560, Note_on_c, 5, 62, 70
7, 4752, Note_on_c, 5, 62, 0
7, 4800, Note_on_c, 5, 62, 70
7, 5184, Note_on_c, 5, 62, 0
7, 5280, Note_on_c, 5, 63, 70
7, 5520, Note_on_c, 5, 63, 0
7, 5520, Note_on_c, 5, 62, 70
7, 5712, Note_on_c, 5, 62, 0
7, 5760, Note_on_c, 5, 62, 70
7, 6240, Note_on_c, 5, 62, 0
7, 6240, Note_on_c, 5, 70, 70
7, 6624, Note_on_c, 5, 70, 0
7, 7200, Note_on_c, 5, 70, 70
7, 7440, Note_on_c, 5, 70, 0
7, 7440, Note_on_c, 5, 69, 70
7, 7632, Note_on_c, 5, 69, 0
7, 7680, Note_on_c, 5, 67, 70
7, 8064, Note_on_c, 5, 67, 0
7, 8160, Note_on_c, 5, 67, 70
7, 8400, Note_on_c, 5, 67, 0
7, 8400, Note_on_c, 5, 65, 70
7, 8592, Note_on_c, 5, 65, 0
7, 8640, Note_on_c, 5, 63, 70
7, 9024, Note_on_c, 5, 63, 0
7, 9120, Note_on_c, 5, 63, 70
7, 9360, Note_on_c, 5, 63, 0
7, 9360, Note_on_c, 5, 62, 70
7, 9552, Note_on_c, 5, 62, 0
7, 9600, Note_on_c, 5, 60, 70
7, 9984, Note_on_c, 5, 60, 0
7, 10080, Note_on_c, 5, 60, 70
7, 10464, Note_on_c, 5, 60, 0
7, 11040, Note_on_c, 5, 62, 70
7, 11280, Note_on_c, 5, 62, 0
7, 11280, Note_on_c, 5, 60, 70
7, 11472, Note_on_c, 5, 60, 0
7, 11520, Note_on_c, 5, 60, 70
7, 11904, Note_on_c, 5, 60, 0
7, 12000, Note_on_c, 5, 62, 70
7, 12240, Note_on_c, 5, 62, 0
7, 12240, Note_on_c, 5, 60, 70
7, 12432, Note_on_c, 5, 60, 0
7, 12480, Note_on_c, 5, 60, 70
7, 12864, Note_on_c, 5, 60, 0
7, 12960, Note_on_c, 5, 62, 70
7, 13200, Note_on_c, 5, 62, 0
7, 13200, Note_on_c, 5, 60, 70
7, 13392, Note_on_c, 5, 60, 0
7, 13440, Note_on_c, 5, 60, 70
7, 13920, Note_on_c, 5, 60, 0
7, 13920, Note_on_c, 5, 69, 70
7, 14304, Note_on_c, 5, 69, 0
7, 14880, Note_on_c, 5, 69, 70
7, 15120, Note_on_c, 5, 69, 0
7, 15120, Note_on_c, 5, 67, 70
7, 15312, Note_on_c, 5, 67, 0
7, 15360, Note_on_c, 5, 66, 70
7, 15744, Note_on_c, 5, 66, 0
7, 15840, Note_on_c, 5, 66, 70
7, 16080, Note_on_c, 5, 66, 0
7, 16080, Note_on_c, 5, 63, 70
7, 16272, Note_on_c, 5, 63, 0
7, 16320, Note_on_c, 5, 62, 70
7, 16704, Note_on_c, 5, 62, 0
7, 16800, Note_on_c, 5, 62, 70
7, 17040, Note_on_c, 5, 62, 0
7, 17040, Note_on_c, 5, 60, 70
7, 17232, Note_on_c, 5, 60, 0
7, 17280, Note_on_c, 5, 58, 70
7, 17664, Note_on_c, 5, 58, 0
7, 17760, Note_on_c, 5, 58, 70
7, 18144, Note_on_c, 5, 58, 0
7, 18720, Note_on_c, 5, 70, 70
7, 18960, Note_on_c, 5, 70, 0
7, 18960, Note_on_c, 5, 69, 70
7, 19152, Note_on_c, 5, 69, 0
7, 19200, Note_on_c, 5, 69, 70
7, 19680, Note_on_c, 5, 69, 0
7, 19680, Note_on_c, 5, 72, 70
7, 20160, Note_on_c, 5, 72, 0
7, 20160, Note_on_c, 5, 66, 70
7, 20640, Note_on_c, 5, 66, 0
7, 20640, Note_on_c, 5, 69, 70
7, 21024, Note_on_c, 5, 69, 0
7, 21120, Note_on_c, 5, 67, 70
7, 21600, Note_on_c, 5, 67, 0
7, 21600, Note_on_c, 5, 62, 70
7, 21984, Note_on_c, 5, 62, 0
7, 22560, Note_on_c, 5, 70, 70
7, 22800, Note_on_c, 5, 70, 0
7, 22800, Note_on_c, 5, 69, 70
7, 22992, Note_on_c, 5, 69, 0
7, 23040, Note_on_c, 5, 69, 70
7, 23520, Note_on_c, 5, 69, 0
7, 23520, Note_on_c, 5, 72, 70
7, 24000, Note_on_c, 5, 72, 0
7, 24000, Note_on_c, 5, 66, 70
7, 24480, Note_on_c, 5, 66, 0
7, 24480, Note_on_c, 5, 69, 70
7, 24864, Note_on_c, 5, 69, 0
7, 24960, Note_on_c, 5, 67, 70
7, 25440, Note_on_c, 5, 67, 0
7, 25440, Note_on_c, 5, 70, 70
7, 25824, Note_on_c, 5, 70, 0
7, 25920, Note_on_c, 5, 69, 70
7, 26160, Note_on_c, 5, 69, 0
7, 26160, Note_on_c, 5, 67, 70
7, 26400, Note_on_c, 5, 67, 0
7, 26400, Note_on_c, 5, 65, 70
7, 26640, Note_on_c, 5, 65, 0
7, 26640, Note_on_c, 5, 63, 70
7, 26832, Note_on_c, 5, 63, 0
7, 26880, Note_on_c, 5, 62, 58
7, 28800, Note_on_c, 5, 62, 0
7, 28800, Note_on_c, 5, 61, 58
7, 30624, Note_on_c, 5, 61, 0
7, 30720, Note_on_c, 5, 62, 58
7, 31488, Note_on_c, 5, 62, 0
7, 32160, Note_on_c, 5, 62, 105
7, 32340, Note_on_c, 5, 62, 0
7, 32400, Note_on_c, 5, 62, 105
7, 32580, Note_on_c, 5, 62, 0
7, 32640, Note_on_c, 5, 62, 105
7, 33408, Note_on_c, 5, 62, 0
7, 34080, Note_on_c, 5, 62, 105
7, 34260, Note_on_c, 5, 62, 0
7, 34320, Note_on_c, 5, 62, 105
7, 34500, Note_on_c, 5, 62, 0
7, 34560, Note_on_c, 5, 62, 105
7, 35328, Note_on_c, 5, 62, 0
7, 36000, Note_on_c, 5, 62, 105
7, 36180, Note_on_c, 5, 62, 0
7, 36240, Note_on_c, 5, 62, 105
7, 36420, Note_on_c, 5, 62, 0
7, 36480, Note_on_c, 5, 62, 105
7, 36840, Note_on_c, 5, 62, 0
7, 36960, Note_on_c, 5, 62, 105
7, 37140, Note_on_c, 5, 62, 0
7, 37200, Note_on_c, 5, 62, 105
7, 37380, Note_on_c, 5, 62, 0
7, 37440, Note_on_c, 5, 62, 105
7, 37800, Note_on_c, 5, 62, 0
7, 37920, Note_on_c, 5, 62, 105
7, 38100, Note_on_c, 5, 62, 0
7, 38160, Note_on_c, 5, 62, 105
7, 38340, Note_on_c, 5, 62, 0
7, 38400, Note_on_c, 5, 62, 105
7, 39168, Note_on_c, 5, 62, 0
7, 39840, Note_on_c, 5, 63, 70
7, 40080, Note_on_c, 5, 63, 0
7, 40080, Note_on_c, 5, 62, 70
7, 40272, Note_on_c, 5, 62, 0
7, 40320, Note_on_c, 5, 62, 70
7, 40704, Note_on_c, 5, 62, 0
7, 40800, Note_on_c, 5, 63, 70
7, 41040, Note_on_c, 5, 63, 0
7, 41040, Note_on_c, 5, 62, 70
7, 41232, Note_on_c, 5, 62, 0
7, 41280, Note_on_c, 5, 62, 70
7, 41664, Note_on_c, 5, 62, 0
7, 41760, Note_on_c, 5, 63, 70
7, 42000, Note_on_c, 5, 63, 0
7, 42000, Note_on_c, 5, 62, 70
7, 42192, Note_on_c, 5, 62, 0
7, 42240, Note_on_c, 5, 62, 70
7, 42720, Note_on_c, 5, 62, 0
7, 42720, Note_on_c, 5, 70, 70
7, 43104, Note_on_c, 5, 70, 0
7, 43680, Note_on_c, 5, 70, 70
7, 43920, Note_on_c, 5, 70, 0
7, 43920, Note_on_c, 5, 69, 70
7, 44112, Note_on_c, 5, 69, 0
7, 44160, Note_on_c, 5, 67, 70
7, 44544, Note_on_c, 5, 67, 0
7, 44640, Note_on_c, 5, 67, 70
7, 44880, Note_on_c, 5, 67, 0
7, 44880, Note_on_c, 5, 65, 70
7, 45072, Note_on_c, 5, 65, 0
7, 45120, Note_on_c, 5, 63, 70
7, 45504, Note_on_c, 5, 63, 0
7, 45600, Note_on_c, 5, 63, 70
7, 45840, Note_on_c, 5, 63, 0
7, 45840, Note_on_c, 5, 62, 70
7, 46032, Note_on_c, 5, 62, 0
7, 46080, Note_on_c, 5, 60, 70
7, 46464, Note_on_c, 5, 60, 0
7, 46560, Note_on_c, 5, 60, 70
7, 46944, Note_on_c, 5, 60, 0
7, 47520, Note_on_c, 5, 65, 70
7, 47760, Note_on_c, 5, 65, 0
7, 47760, Note_on_c, 5, 63, 70
7, 47952, Note_on_c, 5, 63, 0
7, 48000, Note_on_c, 5, 63, 70
7, 48384, Note_on_c, 5, 63, 0
7, 48480, Note_on_c, 5, 65, 70
7, 48720, Note_on_c, 5, 65, 0
7, 48720, Note_on_c, 5, 63, 70
7, 48912, Note_on_c, 5, 63, 0
7, 48960, Note_on_c, 5, 63, 70
7, 49344, Note_on_c, 5, 63, 0
7, 49440, Note_on_c, 5, 65, 70
7, 49680, Note_on_c, 5, 65, 0
7, 49680, Note_on_c, 5, 63, 70
7, 49872, Note_on_c, 5, 63, 0
7, 49920, Note_on_c, 5, 63, 70
7, 50400, Note_on_c, 5, 63, 0
7, 50400, Note_on_c, 5, 72, 70
7, 50784, Note_on_c, 5, 72, 0
7, 51360, Note_on_c, 5, 72, 70
7, 51600, Note_on_c, 5, 72, 0
7, 51600, Note_on_c, 5, 70, 70
7, 51792, Note_on_c, 5, 70, 0
7, 51840, Note_on_c, 5, 69, 70
7, 52224, Note_on_c, 5, 69, 0
7, 52320, Note_on_c, 5, 69, 70
7, 52560, Note_on_c, 5, 69, 0
7, 52560, Note_on_c, 5, 67, 70
7, 52752, Note_on_c, 5, 67, 0
7, 52800, Note_on_c, 5, 65, 70
7, 53184, Note_on_c, 5, 65, 0
7, 53280, Note_on_c, 5, 65, 70
7, 53520, Note_on_c, 5, 65, 0
7, 53520, Note_on_c, 5, 63, 70
7, 53712, Note_on_c, 5, 63, 0
7, 53760, Note_on_c, 5, 70, 105
7, 53760, Note_on_c, 5, 62, 105
7, 55296, Note_on_c, 5, 62, 0
7, 55296, Note_on_c, 5, 70, 0
7, 55680, Note_on_c, 5, 77, 105
7, 55680, Note_on_c, 5, 69, 105
7, 56832, Note_on_c, 5, 69, 0
7, 56832, Note_on_c, 5, 77, 0
7, 57360, Note_on_c, 5, 77, 105
7, 57492, Note_on_c, 5, 77, 0
7, 57600, Note_on_c, 5, 75, 105
7, 57864, Note_on_c, 5, 75, 0
7, 58080, Note_on_c, 5, 79, 105
7, 58344, Note_on_c, 5, 79, 0
7, 58560, Note_on_c, 5, 82, 105
7, 58824, Note_on_c, 5, 82, 0
7, 59520, Note_on_c, 5, 74, 105
7, 59784, Note_on_c, 5, 74, 0
7, 60000, Note_on_c, 5, 77, 105
7, 60264, Note_on_c, 5, 77, 0
7, 60480, Note_on_c, 5, 82, 105
7, 60744, Note_on_c, 5, 82, 0
7, 61200, Note_on_c, 5, 74, 105
7, 61332, Note_on_c, 5, 74, 0
7, 61440, Note_on_c, 5, 72, 105
7, 61704, Note_on_c, 5, 72, 0
7, 61920, Note_on_c, 5, 75, 105
7, 62184, Note_on_c, 5, 75, 0
7, 62400, Note_on_c, 5, 79, 105
7, 62664, Note_on_c, 5, 79, 0
7, 62880, Note_on_c, 5, 72, 105
7, 63144, Note_on_c, 5, 72, 0
7, 63360, Note_on_c, 5, 70, 105
7, 63624, Note_on_c, 5, 70, 0
7, 63840, Note_on_c, 5, 74, 105
7, 64104, Note_on_c, 5, 74, 0
7, 64320, Note_on_c, 5, 77, 105
7, 64584, Note_on_c, 5, 77, 0
7, 65040, Note_on_c, 5, 65, 105
7, 65172, Note_on_c, 5, 65, 0
7, 65280, Note_on_c, 5, 64, 125
7, 65472, Note_on_c, 5, 64, 0
7, 65520, Note_on_c, 5, 65, 105
7, 65712, Note_on_c, 5, 65, 0
7, 65760, Note_on_c, 5, 67, 105
7, 65952, Note_on_c, 5, 67, 0
7, 66000, Note_on_c, 5, 69, 105
7, 66192, Note_on_c, 5, 69, 0
7, 66240, Note_on_c, 5, 70, 105
7, 66432, Note_on_c, 5, 70, 0
7, 66480, Note_on_c, 5, 72, 105
7, 66672, Note_on_c, 5, 72, 0
7, 66720, Note_on_c, 5, 73, 105
7, 66912, Note_on_c, 5, 73, 0
7, 66960, Note_on_c, 5, 65, 105
7, 67152, Note_on_c, 5, 65, 0
7, 67200, Note_on_c, 5, 64, 125
7, 67392, Note_on_c, 5, 64, 0
7, 67440, Note_on_c, 5, 65, 105
7, 67632, Note_on_c, 5, 65, 0
7, 67680, Note_on_c, 5, 67, 105
7, 67872, Note_on_c, 5, 67, 0
7, 67920, Note_on_c, 5, 69, 105
7, 68112, Note_on_c, 5, 69, 0
7, 68160, Note_on_c, 5, 70, 105
7, 68352, Note_on_c, 5, 70, 0
7, 68400, Note_on_c, 5, 72, 105
7, 68592, Note_on_c, 5, 72, 0
7, 68640, Note_on_c, 5, 73, 105
7, 68832, Note_on_c, 5, 73, 0
7, 68880, Note_on_c, 5, 65, 105
7, 69072, Note_on_c, 5, 65, 0
7, 69120, Note_on_c, 5, 64, 125
7, 69312, Note_on_c, 5, 64, 0
7, 69360, Note_on_c, 5, 65, 105
7, 69552, Note_on_c, 5, 65, 0
7, 69600, Note_on_c, 5, 67, 105
7, 69792, Note_on_c, 5, 67, 0
7, 69840, Note_on_c, 5, 69, 105
7, 70032, Note_on_c, 5, 69, 0
7, 70080, Note_on_c, 5, 70, 105
7, 70272, Note_on_c, 5, 70, 0
7, 70320, Note_on_c, 5, 72, 105
7, 70512, Note_on_c, 5, 72, 0
7, 70560, Note_on_c, 5, 73, 105
7, 70752, Note_on_c, 5, 73, 0
7, 70800, Note_on_c, 5, 65, 105
7, 70992, Note_on_c, 5, 65, 0
7, 71040, Note_on_c, 5, 64, 125
7, 71232, Note_on_c, 5, 64, 0
7, 71280, Note_on_c, 5, 65, 105
7, 71472, Note_on_c, 5, 65, 0
7, 71520, Note_on_c, 5, 67, 105
7, 71712, Note_on_c, 5, 67, 0
7, 71760, Note_on_c, 5, 69, 105
7, 71952, Note_on_c, 5, 69, 0
7, 72000, Note_on_c, 5, 70, 105
7, 72192, Note_on_c, 5, 70, 0
7, 72240, Note_on_c, 5, 72, 105
7, 72432, Note_on_c, 5, 72, 0
7, 72480, Note_on_c, 5, 73, 105
7, 72672, Note_on_c, 5, 73, 0
7, 72720, Note_on_c, 5, 64, 105
7, 72912, Note_on_c, 5, 64, 0
7, 72960, Note_on_c, 5, 65, 105
7, 73140, Note_on_c, 5, 65, 0
7, 73200, Note_on_c, 5, 77, 105
7, 73380, Note_on_c, 5, 77, 0
7, 73440, Note_on_c, 5, 77, 105
7, 73620, Note_on_c, 5, 77, 0
7, 73680, Note_on_c, 5, 77, 105
7, 73860, Note_on_c, 5, 77, 0
7, 73920, Note_on_c, 5, 75, 105
7, 74100, Note_on_c, 5, 75, 0
7, 74160, Note_on_c, 5, 75, 105
7, 74340, Note_on_c, 5, 75, 0
7, 74400, Note_on_c, 5, 75, 105
7, 74580, Note_on_c, 5, 75, 0
7, 74640, Note_on_c, 5, 75, 105
7, 74820, Note_on_c, 5, 75, 0
7, 74880, Note_on_c, 5, 73, 105
7, 75060, Note_on_c, 5, 73, 0
7, 75120, Note_on_c, 5, 73, 105
7, 75300, Note_on_c, 5, 73, 0
7, 75360, Note_on_c, 5, 73, 105
7, 75540, Note_on_c, 5, 73, 0
7, 75600, Note_on_c, 5, 73, 105
7, 75780, Note_on_c, 5, 73, 0
7, 75840, Note_on_c, 5, 73, 105
7, 76020, Note_on_c, 5, 73, 0
7, 76080, Note_on_c, 5, 73, 105
7, 76260, Note_on_c, 5, 73, 0
7, 76320, Note_on_c, 5, 73, 105
7, 76500, Note_on_c, 5, 73, 0
7, 76560, Note_on_c, 5, 73, 105
7, 76740, Note_on_c, 5, 73, 0
7, 76800, Note_on_c, 5, 72, 105
7, 76980, Note_on_c, 5, 72, 0
7, 77040, Note_on_c, 5, 72, 105
7, 77220, Note_on_c, 5, 72, 0
7, 77280, Note_on_c, 5, 72, 105
7, 77460, Note_on_c, 5, 72, 0
7, 77520, Note_on_c, 5, 72, 105
7, 77700, Note_on_c, 5, 72, 0
7, 77760, Note_on_c, 5, 75, 105
7, 77940, Note_on_c, 5, 75, 0
7, 78000, Note_on_c, 5, 75, 105
7, 78180, Note_on_c, 5, 75, 0
7, 78240, Note_on_c, 5, 75, 105
7, 78420, Note_on_c, 5, 75, 0
7, 78480, Note_on_c, 5, 75, 105
7, 78660, Note_on_c, 5, 75, 0
7, 78720, Note_on_c, 5, 73, 105
7, 78900, Note_on_c, 5, 73, 0
7, 78960, Note_on_c, 5, 73, 105
7, 79140, Note_on_c, 5, 73, 0
7, 79200, Note_on_c, 5, 73, 105
7, 79380, Note_on_c, 5, 73, 0
7, 79440, Note_on_c, 5, 73, 105
7, 79620, Note_on_c, 5, 73, 0
7, 79680, Note_on_c, 5, 70, 105
7, 79860, Note_on_c, 5, 70, 0
7, 79920, Note_on_c, 5, 70, 105
7, 80100, Note_on_c, 5, 70, 0
7, 80160, Note_on_c, 5, 70, 105
7, 80340, Note_on_c, 5, 70, 0
7, 80400, Note_on_c, 5, 70, 105
7, 80580, Note_on_c, 5, 70, 0
7, 80640, Note_on_c, 5, 69, 105
7, 81024, Note_on_c, 5, 69, 0
7, 81600, Note_on_c, 5, 57, 92
7, 81600, Note_on_c, 5, 65, 92
7, 81984, Note_on_c, 5, 65, 0
7, 81984, Note_on_c, 5, 57, 0
7, 84480, Note_on_c, 5, 65, 58
7, 85920, Note_on_c, 5, 65, 0
7, 85920, Note_on_c, 5, 64, 58
7, 86400, Note_on_c, 5, 64, 0
7, 86400, Note_on_c, 5, 63, 58
7, 86784, Note_on_c, 5, 63, 0
7, 88800, Note_on_c, 5, 58, 58
7, 89112, Note_on_c, 5, 58, 0
7, 89280, Note_on_c, 5, 58, 58
7, 89760, Note_on_c, 5, 58, 0
7, 89760, Note_on_c, 5, 60, 58
7, 90144, Note_on_c, 5, 60, 0
7, 90240, Note_on_c, 5, 58, 58
7, 90960, Note_on_c, 5, 58, 0
7, 90960, Note_on_c, 5, 60, 58
7, 91200, Note_on_c, 5, 60, 0
7, 91200, Note_on_c, 5, 57, 58
7, 91584, Note_on_c, 5, 57, 0
7, 92160, Note_on_c, 5, 67, 58
7, 93600, Note_on_c, 5, 67, 0
7, 93600, Note_on_c, 5, 66, 58
7, 94080, Note_on_c, 5, 66, 0
7, 94080, Note_on_c, 5, 65, 58
7, 94560, Note_on_c, 5, 65, 0
7, 94560, Note_on_c, 5, 64, 58
7, 95040, Note_on_c, 5, 64, 0
7, 95040, Note_on_c, 5, 63, 58
7, 95520, Note_on_c, 5, 63, 0
7, 95520, Note_on_c, 5, 62, 58
7, 95904, Note_on_c, 5, 62, 0
7, 96000, Note_on_c, 5, 60, 58
7, 96480, Note_on_c, 5, 60, 0
7, 96480, Note_on_c, 5, 63, 58
7, 97248, Note_on_c, 5, 63, 0
7, 97440, Note_on_c, 5, 57, 58
7, 97824, Note_on_c, 5, 57, 0
7, 97920, Note_on_c, 5, 58, 58
7, 98304, Note_on_c, 5, 58, 0
7, 101760, Note_on_c, 5, 63, 58
7, 103200, Note_on_c, 5, 63, 0
7, 103200, Note_on_c, 5, 65, 58
7, 103320, Note_on_c, 5, 65, 0
7, 103320, Note_on_c, 5, 63, 58
7, 103440, Note_on_c, 5, 63, 0
7, 103440, Note_on_c, 5, 62, 58
7, 103560, Note_on_c, 5, 62, 0
7, 103560, Note_on_c, 5, 60, 58
7, 103680, Note_on_c, 5, 60, 0
7, 103680, Note_on_c, 5, 58, 58
7, 104064, Note_on_c, 5, 58, 0
7, 107520, Note_on_c, 5, 60, 70
7, 109440, Note_on_c, 5, 60, 0
7, 109440, Note_on_c, 5, 59, 70
7, 109920, Note_on_c, 5, 59, 0
7, 109920, Note_on_c, 5, 58, 70
7, 110400, Note_on_c, 5, 58, 0
7, 110400, Note_on_c, 5, 57, 70
7, 110880, Note_on_c, 5, 57, 0
7, 110880, Note_on_c, 5, 56, 70
7, 111264, Note_on_c, 5, 56, 0
7, 111360, Note_on_c, 5, 58, 58
7, 111600, Note_on_c, 5, 58, 0
7, 111600, Note_on_c, 5, 55, 58
7, 111840, Note_on_c, 5, 55, 0
7, 111840, Note_on_c, 5, 58, 58
7, 112080, Note_on_c, 5, 58, 0
7, 112080, Note_on_c, 5, 55, 58
7, 112320, Note_on_c, 5, 55, 0
7, 112320, Note_on_c, 5, 58, 58
7, 112560, Note_on_c, 5, 58, 0
7, 112560, Note_on_c, 5, 55, 58
7, 112800, Note_on_c, 5, 55, 0
7, 112800, Note_on_c, 5, 56, 58
7, 113040, Note_on_c, 5, 56, 0
7, 113040, Note_on_c, 5, 60, 58
7, 113232, Note_on_c, 5, 60, 0
7, 113280, Note_on_c, 5, 58, 58
7, 113520, Note_on_c, 5, 58, 0
7, 113520, Note_on_c, 5, 55, 58
7, 113760, Note_on_c, 5, 55, 0
7, 113760, Note_on_c, 5, 58, 58
7, 114000, Note_on_c, 5, 58, 0
7, 114000, Note_on_c, 5, 55, 58
7, 114240, Note_on_c, 5, 55, 0
7, 114240, Note_on_c, 5, 58, 58
7, 114480, Note_on_c, 5, 58, 0
7, 114480, Note_on_c, 5, 55, 58
7, 114720, Note_on_c, 5, 55, 0
7, 114720, Note_on_c, 5, 56, 58
7, 114960, Note_on_c, 5, 56, 0
7, 114960, Note_on_c, 5, 60, 58
7, 115152, Note_on_c, 5, 60, 0
7, 115200, Note_on_c, 5, 58, 58
7, 115440, Note_on_c, 5, 58, 0
7, 115440, Note_on_c, 5, 55, 58
7, 115680, Note_on_c, 5, 55, 0
7, 115680, Note_on_c, 5, 58, 58
7, 115920, Note_on_c, 5, 58, 0
7, 115920, Note_on_c, 5, 55, 58
7, 116160, Note_on_c, 5, 55, 0
7, 116160, Note_on_c, 5, 58, 58
7, 116400, Note_on_c, 5, 58, 0
7, 116400, Note_on_c, 5, 55, 58
7, 116640, Note_on_c, 5, 55, 0
7, 116640, Note_on_c, 5, 56, 58
7, 116880, Note_on_c, 5, 56, 0
7, 116880, Note_on_c, 5, 60, 58
7, 117072, Note_on_c, 5, 60, 0
7, 117120, Note_on_c, 5, 58, 58
7, 117360, Note_on_c, 5, 58, 0
7, 117360, Note_on_c, 5, 55, 58
7, 117600, Note_on_c, 5, 55, 0
7, 117600, Note_on_c, 5, 58, 58
7, 117840, Note_on_c, 5, 58, 0
7, 117840, Note_on_c, 5, 55, 58
7, 118080, Note_on_c, 5, 55, 0
7, 118080, Note_on_c, 5, 58, 58
7, 118320, Note_on_c, 5, 58, 0
7, 118320, Note_on_c, 5, 55, 58
7, 118560, Note_on_c, 5, 55, 0
7, 118560, Note_on_c, 5, 56, 58
7, 118800, Note_on_c, 5, 56, 0
7, 118800, Note_on_c, 5, 60, 58
7, 118992, Note_on_c, 5, 60, 0
7, 119040, Note_on_c, 5, 58, 58
7, 119256, Note_on_c, 5, 58, 0
7, 119280, Note_on_c, 5, 70, 70
7, 119496, Note_on_c, 5, 70, 0
7, 119520, Note_on_c, 5, 70, 73
7, 119736, Note_on_c, 5, 70, 0
7, 119760, Note_on_c, 5, 70, 77
7, 119976, Note_on_c, 5, 70, 0
7, 120000, Note_on_c, 5, 70, 80
7, 120216, Note_on_c, 5, 70, 0
7, 120240, Note_on_c, 5, 70, 84
7, 120456, Note_on_c, 5, 70, 0
7, 120480, Note_on_c, 5, 70, 87
7, 120696, Note_on_c, 5, 70, 0
7, 120720, Note_on_c, 5, 70, 91
7, 120936, Note_on_c, 5, 70, 0
7, 120960, Note_on_c, 5, 70, 94
7, 121176, Note_on_c, 5, 70, 0
7, 121200, Note_on_c, 5, 82, 98
7, 121416, Note_on_c, 5, 82, 0
7, 121440, Note_on_c, 5, 82, 101
7, 121656, Note_on_c, 5, 82, 0
7, 121680, Note_on_c, 5, 82, 105
7, 121896, Note_on_c, 5, 82, 0
7, 121920, Note_on_c, 5, 82, 108
7, 122136, Note_on_c, 5, 82, 0
7, 122160, Note_on_c, 5, 82, 109
7, 122376, Note_on_c, 5, 82, 0
7, 122400, Note_on_c, 5, 82, 109
7, 122616, Note_on_c, 5, 82, 0
7, 122640, Note_on_c, 5, 82, 109
7, 122856, Note_on_c, 5, 82, 0
7, 122880, Note_on_c, 5, 82, 105
7, 123264, Note_on_c, 5, 82, 0
7, 123360, Note_on_c, 5, 74, 105
7, 123360, Note_on_c, 5, 77, 105
7, 124128, Note_on_c, 5, 77, 0
7, 124128, Note_on_c, 5, 74, 0
7, 124320, Note_on_c, 5, 74, 105
7, 124320, Note_on_c, 5, 77, 105
7, 124800, Note_on_c, 5, 74, 0
7, 124800, Note_on_c, 5, 75, 105
7, 125184, Note_on_c, 5, 75, 0
7, 125184, Note_on_c, 5, 77, 0
7, 125280, Note_on_c, 5, 75, 105
7, 125280, Note_on_c, 5, 77, 105
7, 126048, Note_on_c, 5, 77, 0
7, 126048, Note_on_c, 5, 75, 0
7, 126240, Note_on_c, 5, 75, 105
7, 126240, Note_on_c, 5, 77, 105
7, 126624, Note_on_c, 5, 77, 0
7, 126624, Note_on_c, 5, 75, 0
7, 126720, Note_on_c, 5, 74, 92
7, 126720, Note_on_c, 5, 77, 92
7, 127104, Note_on_c, 5, 77, 0
7, 127104, Note_on_c, 5, 74, 0
7, 127200, Note_on_c, 5, 62, 125
7, 127392, Note_on_c, 5, 62, 0
7, 127440, Note_on_c, 5, 62, 105
7, 127632, Note_on_c, 5, 62, 0
7, 127680, Note_on_c, 5, 62, 105
7, 127872, Note_on_c, 5, 62, 0
7, 127920, Note_on_c, 5, 62, 105
7, 128112, Note_on_c, 5, 62, 0
7, 128160, Note_on_c, 5, 63, 105
7, 128352, Note_on_c, 5, 63, 0
7, 128400, Note_on_c, 5, 63, 105
7, 128592, Note_on_c, 5, 63, 0
7, 128640, Note_on_c, 5, 64, 105
7, 128832, Note_on_c, 5, 64, 0
7, 128880, Note_on_c, 5, 64, 105
7, 129072, Note_on_c, 5, 64, 0
7, 129120, Note_on_c, 5, 65, 105
7, 129312, Note_on_c, 5, 65, 0
7, 129360, Note_on_c, 5, 65, 105
7, 129552, Note_on_c, 5, 65, 0
7, 129600, Note_on_c, 5, 66, 105
7, 129792, Note_on_c, 5, 66, 0
7, 129840, Note_on_c, 5, 66, 105
7, 130032, Note_on_c, 5, 66, 0
7, 130080, Note_on_c, 5, 67, 105
7, 130272, Note_on_c, 5, 67, 0
7, 130320, Note_on_c, 5, 67, 105
7, 130512, Note_on_c, 5, 67, 0
7, 130560, Note_on_c, 5, 68, 105
7, 130944, Note_on_c, 5, 68, 0
7, 131400, Note_on_c, 5, 68, 105
7, 131496, Note_on_c, 5, 68, 0
7, 131520, Note_on_c, 5, 67, 105
7, 131904, Note_on_c, 5, 67, 0
7, 132360, Note_on_c, 5, 67, 105
7, 132456, Note_on_c, 5, 67, 0
7, 132480, Note_on_c, 5, 75, 105
7, 132864, Note_on_c, 5, 75, 0
7, 133320, Note_on_c, 5, 75, 105
7, 133416, Note_on_c, 5, 75, 0
7, 133440, Note_on_c, 5, 74, 105
7, 133824, Note_on_c, 5, 74, 0
7, 134280, Note_on_c, 5, 74, 105
7, 134376, Note_on_c, 5, 74, 0
7, 134400, Note_on_c, 5, 79, 105
7, 135504, Note_on_c, 5, 79, 0
7, 135600, Note_on_c, 5, 77, 58
7, 135744, Note_on_c, 5, 77, 0
7, 135840, Note_on_c, 5, 75, 58
7, 135984, Note_on_c, 5, 75, 0
7, 136080, Note_on_c, 5, 74, 58
7, 136224, Note_on_c, 5, 74, 0
7, 136320, Note_on_c, 5, 72, 58
7, 136464, Note_on_c, 5, 72, 0
7, 136560, Note_on_c, 5, 70, 58
7, 136704, Note_on_c, 5, 70, 0
7, 136800, Note_on_c, 5, 69, 58
7, 136944, Note_on_c, 5, 69, 0
7, 137040, Note_on_c, 5, 67, 58
7, 137184, Note_on_c, 5, 67, 0
7, 137280, Note_on_c, 5, 65, 58
7, 137424, Note_on_c, 5, 65, 0
7, 137520, Note_on_c, 5, 63, 58
7, 137664, Note_on_c, 5, 63, 0
7, 137760, Note_on_c, 5, 62, 58
7, 137904, Note_on_c, 5, 62, 0
7, 138000, Note_on_c, 5, 60, 58
7, 138144, Note_on_c, 5, 60, 0
7, 138240, Note_on_c, 5, 62, 58
7, 138480, Note_on_c, 5, 62, 0
7, 138480, Note_on_c, 5, 65, 58
7, 138720, Note_on_c, 5, 65, 0
7, 138720, Note_on_c, 5, 62, 58
7, 138960, Note_on_c, 5, 62, 0
7, 138960, Note_on_c, 5, 65, 58
7, 139200, Note_on_c, 5, 65, 0
7, 139200, Note_on_c, 5, 62, 58
7, 139440, Note_on_c, 5, 62, 0
7, 139440, Note_on_c, 5, 65, 58
7, 139680, Note_on_c, 5, 65, 0
7, 139680, Note_on_c, 5, 62, 58
7, 139920, Note_on_c, 5, 62, 0
7, 139920, Note_on_c, 5, 65, 58
7, 140112, Note_on_c, 5, 65, 0
7, 140160, Note_on_c, 5, 63, 58
7, 140400, Note_on_c, 5, 63, 0
7, 140400, Note_on_c, 5, 65, 58
7, 140640, Note_on_c, 5, 65, 0
7, 140640, Note_on_c, 5, 63, 58
7, 140880, Note_on_c, 5, 63, 0
7, 140880, Note_on_c, 5, 65, 58
7, 141120, Note_on_c, 5, 65, 0
7, 141120, Note_on_c, 5, 60, 58
7, 141360, Note_on_c, 5, 60, 0
7, 141360, Note_on_c, 5, 65, 58
7, 141600, Note_on_c, 5, 65, 0
7, 141600, Note_on_c, 5, 60, 58
7, 141840, Note_on_c, 5, 60, 0
7, 141840, Note_on_c, 5, 65, 58
7, 142032, Note_on_c, 5, 65, 0
7, 142080, Note_on_c, 5, 58, 58
7, 142320, Note_on_c, 5, 58, 0
7, 142320, Note_on_c, 5, 65, 58
7, 142560, Note_on_c, 5, 65, 0
7, 142560, Note_on_c, 5, 58, 58
7, 142800, Note_on_c, 5, 58, 0
7, 142800, Note_on_c, 5, 65, 58
7, 143040, Note_on_c, 5, 65, 0
7, 143040, Note_on_c, 5, 58, 58
7, 143280, Note_on_c, 5, 58, 0
7, 143280, Note_on_c, 5, 65, 58
7, 143520, Note_on_c, 5, 65, 0
7, 143520, Note_on_c, 5, 62, 58
7, 143760, Note_on_c, 5, 62, 0
7, 143760, Note_on_c, 5, 65, 58
7, 143952, Note_on_c, 5, 65, 0
7, 144000, Note_on_c, 5, 63, 58
7, 144240, Note_on_c, 5, 63, 0
7, 144240, Note_on_c, 5, 65, 58
7, 144480, Note_on_c, 5, 65, 0
7, 144480, Note_on_c, 5, 63, 58
7, 144720, Note_on_c, 5, 63, 0
7, 144720, Note_on_c, 5, 65, 58
7, 144960, Note_on_c, 5, 65, 0
7, 144960, Note_on_c, 5, 60, 58
7, 145200, Note_on_c, 5, 60, 0
7, 145200, Note_on_c, 5, 65, 58
7, 145440, Note_on_c, 5, 65, 0
7, 145440, Note_on_c, 5, 60, 58
7, 145680, Note_on_c, 5, 60, 0
7, 145680, Note_on_c, 5, 65, 58
7, 145872, Note_on_c, 5, 65, 0
7, 145920, Note_on_c, 5, 58, 58
7, 146160, Note_on_c, 5, 58, 0
7, 146160, Note_on_c, 5, 65, 58
7, 146400, Note_on_c, 5, 65, 0
7, 146400, Note_on_c, 5, 58, 58
7, 146640, Note_on_c, 5, 58, 0
7, 146640, Note_on_c, 5, 65, 58
7, 146880, Note_on_c, 5, 65, 0
7, 146880, Note_on_c, 5, 58, 58
7, 147120, Note_on_c, 5, 58, 0
7, 147120, Note_on_c, 5, 65, 58
7, 147360, Note_on_c, 5, 65, 0
7, 147360, Note_on_c, 5, 74, 58
7, 147600, Note_on_c, 5, 74, 0
7, 147600, Note_on_c, 5, 65, 58
7, 147792, Note_on_c, 5, 65, 0
7, 147840, Note_on_c, 5, 72, 105
7, 147840, Note_on_c, 5, 78, 105
7, 148032, Note_on_c, 5, 78, 0
7, 148032, Note_on_c, 5, 72, 0
7, 148080, Note_on_c, 5, 72, 105
7, 148080, Note_on_c, 5, 78, 105
7, 148272, Note_on_c, 5, 78, 0
7, 148272, Note_on_c, 5, 72, 0
7, 148320, Note_on_c, 5, 78, 105
7, 148320, Note_on_c, 5, 72, 105
7, 148512, Note_on_c, 5, 72, 0
7, 148512, Note_on_c, 5, 78, 0
7, 148560, Note_on_c, 5, 78, 105
7, 148560, Note_on_c, 5, 72, 105
7, 148752, Note_on_c, 5, 72, 0
7, 148752, Note_on_c, 5, 78, 0
7, 148800, Note_on_c, 5, 72, 105
7, 148800, Note_on_c, 5, 78, 105
7, 148992, Note_on_c, 5, 78, 0
7, 148992, Note_on_c, 5, 72, 0
7, 149040, Note_on_c, 5, 72, 105
7, 149040, Note_on_c, 5, 78, 105
7, 149232, Note_on_c, 5, 78, 0
7, 149232, Note_on_c, 5, 72, 0
7, 149280, Note_on_c, 5, 72, 105
7, 149280, Note_on_c, 5, 78, 105
7, 149472, Note_on_c, 5, 78, 0
7, 149472, Note_on_c, 5, 72, 0
7, 149520, Note_on_c, 5, 78, 105
7, 149520, Note_on_c, 5, 72, 105
7, 149712, Note_on_c, 5, 72, 0
7, 149712, Note_on_c, 5, 78, 0
7, 149760, Note_on_c, 5, 79, 105
7, 149760, Note_on_c, 5, 70, 105
7, 150528, Note_on_c, 5, 70, 0
7, 150528, Note_on_c, 5, 79, 0
7, 150720, Note_on_c, 5, 79, 105
7, 151440, Note_on_c, 5, 79, 0
7, 151440, Note_on_c, 5, 75, 105
7, 151632, Note_on_c, 5, 75, 0
7, 151680, Note_on_c, 5, 74, 105
7, 152400, Note_on_c, 5, 74, 0
7, 152400, Note_on_c, 5, 77, 105
7, 152592, Note_on_c, 5, 77, 0
7, 152640, Note_on_c, 5, 75, 105
7, 153360, Note_on_c, 5, 75, 0
7, 153360, Note_on_c, 5, 72, 105
7, 153552, Note_on_c, 5, 72, 0
7, 153600, Note_on_c, 5, 74, 92
7, 153792, Note_on_c, 5, 74, 0
7, 153840, Note_on_c, 5, 65, 70
7, 154080, Note_on_c, 5, 65, 0
7, 154080, Note_on_c, 5, 62, 70
7, 154320, Note_on_c, 5, 62, 0
7, 154320, Note_on_c, 5, 65, 70
7, 154560, Note_on_c, 5, 65, 0
7, 154560, Note_on_c, 5, 62, 58
7, 154800, Note_on_c, 5, 62, 0
7, 154800, Note_on_c, 5, 65, 58
7, 155040, Note_on_c, 5, 65, 0
7, 155040, Note_on_c, 5, 62, 58
7, 155280, Note_on_c, 5, 62, 0
7, 155280, Note_on_c, 5, 65, 58
7, 155472, Note_on_c, 5, 65, 0
7, 155520, Note_on_c, 5, 60, 58
7, 155760, Note_on_c, 5, 60, 0
7, 155760, Note_on_c, 5, 63, 58
7, 156000, Note_on_c, 5, 63, 0
7, 156000, Note_on_c, 5, 60, 58
7, 156240, Note_on_c, 5, 60, 0
7, 156240, Note_on_c, 5, 63, 58
7, 156480, Note_on_c, 5, 63, 0
7, 156480, Note_on_c, 5, 60, 58
7, 156720, Note_on_c, 5, 60, 0
7, 156720, Note_on_c, 5, 65, 58
7, 156960, Note_on_c, 5, 65, 0
7, 156960, Note_on_c, 5, 57, 58
7, 157200, Note_on_c, 5, 57, 0
7, 157200, Note_on_c, 5, 65, 58
7, 157392, Note_on_c, 5, 65, 0
7, 157440, Note_on_c, 5, 58, 58
7, 157680, Note_on_c, 5, 58, 0
7, 157680, Note_on_c, 5, 65, 58
7, 157920, Note_on_c, 5, 65, 0
7, 157920, Note_on_c, 5, 58, 58
7, 158160, Note_on_c, 5, 58, 0
7, 158160, Note_on_c, 5, 65, 58
7, 158400, Note_on_c, 5, 65, 0
7, 158400, Note_on_c, 5, 58, 58
7, 158640, Note_on_c, 5, 58, 0
7, 158640, Note_on_c, 5, 65, 58
7, 158880, Note_on_c, 5, 65, 0
7, 158880, Note_on_c, 5, 62, 58
7, 159120, Note_on_c, 5, 62, 0
7, 159120, Note_on_c, 5, 65, 58
7, 159312, Note_on_c, 5, 65, 0
7, 159360, Note_on_c, 5, 60, 58
7, 159600, Note_on_c, 5, 60, 0
7, 159600, Note_on_c, 5, 63, 58
7, 159840, Note_on_c, 5, 63, 0
7, 159840, Note_on_c, 5, 60, 58
7, 160080, Note_on_c, 5, 60, 0
7, 160080, Note_on_c, 5, 63, 58
7, 160320, Note_on_c, 5, 63, 0
7, 160320, Note_on_c, 5, 60, 58
7, 160560, Note_on_c, 5, 60, 0
7, 160560, Note_on_c, 5, 65, 58
7, 160800, Note_on_c, 5, 65, 0
7, 160800, Note_on_c, 5, 57, 58
7, 161040, Note_on_c, 5, 57, 0
7, 161040, Note_on_c, 5, 65, 58
7, 161232, Note_on_c, 5, 65, 0
7, 161280, Note_on_c, 5, 58, 58
7, 161520, Note_on_c, 5, 58, 0
7, 161520, Note_on_c, 5, 65, 58
7, 161760, Note_on_c, 5, 65, 0
7, 161760, Note_on_c, 5, 58, 58
7, 162000, Note_on_c, 5, 58, 0
7, 162000, Note_on_c, 5, 65, 58
7, 162240, Note_on_c, 5, 65, 0
7, 162240, Note_on_c, 5, 58, 58
7, 162480, Note_on_c, 5, 58, 0
7, 162480, Note_on_c, 5, 65, 58
7, 162720, Note_on_c, 5, 65, 0
7, 162720, Note_on_c, 5, 74, 58
7, 162960, Note_on_c, 5, 74, 0
7, 162960, Note_on_c, 5, 65, 58
7, 163152, Note_on_c, 5, 65, 0
7, 163200, Note_on_c, 5, 78, 58
7, 163200, Note_on_c, 5, 72, 105
7, 163392, Note_on_c, 5, 72, 0
7, 163392, Note_on_c, 5, 78, 0
7, 163440, Note_on_c, 5, 72, 105
7, 163440, Note_on_c, 5, 78, 105
7, 163632, Note_on_c, 5, 78, 0
7, 163632, Note_on_c, 5, 72, 0
7, 163680, Note_on_c, 5, 72, 105
7, 163680, Note_on_c, 5, 78, 105
7, 163872, Note_on_c, 5, 78, 0
7, 163872, Note_on_c, 5, 72, 0
7, 163920, Note_on_c, 5, 78, 105
7, 163920, Note_on_c, 5, 72, 105
7, 164112, Note_on_c, 5, 72, 0
7, 164112, Note_on_c, 5, 78, 0
7, 164160, Note_on_c, 5, 72, 105
7, 164160, Note_on_c, 5, 78, 105
7, 164352, Note_on_c, 5, 78, 0
7, 164352, Note_on_c, 5, 72, 0
7, 164400, Note_on_c, 5, 72, 105
7, 164400, Note_on_c, 5, 78, 105
7, 164592, Note_on_c, 5, 78, 0
7, 164592, Note_on_c, 5, 72, 0
7, 164640, Note_on_c, 5, 72, 105
7, 164640, Note_on_c, 5, 78, 105
7, 164832, Note_on_c, 5, 78, 0
7, 164832, Note_on_c, 5, 72, 0
7, 164880, Note_on_c, 5, 78, 105
7, 164880, Note_on_c, 5, 72, 105
7, 165072, Note_on_c, 5, 72, 0
7, 165072, Note_on_c, 5, 78, 0
7, 165120, Note_on_c, 5, 70, 105
7, 165120, Note_on_c, 5, 79, 105
7, 165888, Note_on_c, 5, 79, 0
7, 165888, Note_on_c, 5, 70, 0
7, 166080, Note_on_c, 5, 79, 105
7, 166800, Note_on_c, 5, 79, 0
7, 166800, Note_on_c, 5, 75, 105
7, 166992, Note_on_c, 5, 75, 0
7, 167040, Note_on_c, 5, 74, 105
7, 167760, Note_on_c, 5, 74, 0
7, 167760, Note_on_c, 5, 77, 105
7, 167952, Note_on_c, 5, 77, 0
7, 168000, Note_on_c, 5, 75, 105
7, 168720, Note_on_c, 5, 75, 0
7, 168720, Note_on_c, 5, 72, 105
7, 168912, Note_on_c, 5, 72, 0
7, 168960, Note_on_c, 5, 74, 105
7, 169344, Note_on_c, 5, 74, 0
7, 169440, Note_on_c, 5, 86, 105
7, 169632, Note_on_c, 5, 86, 0
7, 169680, Note_on_c, 5, 84, 105
7, 169872, Note_on_c, 5, 84, 0
7, 169920, Note_on_c, 5, 82, 105
7, 170112, Note_on_c, 5, 82, 0
7, 170160, Note_on_c, 5, 81, 105
7, 170352, Note_on_c, 5, 81, 0
7, 170400, Note_on_c, 5, 79, 105
7, 170592, Note_on_c, 5, 79, 0
7, 170640, Note_on_c, 5, 77, 105
7, 170832, Note_on_c, 5, 77, 0
7, 170880, Note_on_c, 5, 75, 105
7, 171072, Note_on_c, 5, 75, 0
7, 171120, Note_on_c, 5, 74, 105
7, 171312, Note_on_c, 5, 74, 0
7, 171360, Note_on_c, 5, 72, 105
7, 171552, Note_on_c, 5, 72, 0
7, 171600, Note_on_c, 5, 70, 105
7, 171792, Note_on_c, 5, 70, 0
7, 171840, Note_on_c, 5, 69, 105
7, 172032, Note_on_c, 5, 69, 0
7, 172080, Note_on_c, 5, 67, 105
7, 172272, Note_on_c, 5, 67, 0
7, 172320, Note_on_c, 5, 65, 105
7, 172512, Note_on_c, 5, 65, 0
7, 172560, Note_on_c, 5, 63, 105
7, 172752, Note_on_c, 5, 63, 0
7, 172800, Note_on_c, 5, 62, 105
7, 173136, Note_on_c, 5, 62, 0
7, 173280, Note_on_c, 5, 70, 125
7, 173616, Note_on_c, 5, 70, 0
7, 173760, Note_on_c, 5, 70, 125
7, 174096, Note_on_c, 5, 70, 0
7, 174240, Note_on_c, 5, 60, 105
7, 174240, Note_on_c, 5, 63, 105
7, 174576, Note_on_c, 5, 63, 0
7, 174576, Note_on_c, 5, 60, 0
7, 174720, Note_on_c, 5, 58, 105
7, 174720, Note_on_c, 5, 62, 105
7, 175104, Note_on_c, 5, 62, 0
7, 175104, Note_on_c, 5, 58, 0
7, 175200, Note_on_c, 5, 74, 105
7, 175392, Note_on_c, 5, 74, 0
7, 175440, Note_on_c, 5, 72, 105
7, 175632, Note_on_c, 5, 72, 0
7, 175680, Note_on_c, 5, 70, 105
7, 175872, Note_on_c, 5, 70, 0
7, 175920, Note_on_c, 5, 69, 105
7, 176112, Note_on_c, 5, 69, 0
7, 176160, Note_on_c, 5, 67, 105
7, 176352, Note_on_c, 5, 67, 0
7, 176400, Note_on_c, 5, 65, 105
7, 176592, Note_on_c, 5, 65, 0
7, 176640, Note_on_c, 5, 63, 105
7, 176832, Note_on_c, 5, 63, 0
7, 176880, Note_on_c, 5, 62, 105
7, 177072, Note_on_c, 5, 62, 0
7, 177120, Note_on_c, 5, 60, 105
7, 177312, Note_on_c, 5, 60, 0
7, 177360, Note_on_c, 5, 58, 105
7, 177552, Note_on_c, 5, 58, 0
7, 177600, Note_on_c, 5, 57, 105
7, 177792, Note_on_c, 5, 57, 0
7, 177840, Note_on_c, 5, 60, 105
7, 178032, Note_on_c, 5, 60, 0
7, 178080, Note_on_c, 5, 65, 105
7, 178272, Note_on_c, 5, 65, 0
7, 178320, Note_on_c, 5, 63, 105
7, 178512, Note_on_c, 5, 63, 0
7, 178560, Note_on_c, 5, 62, 105
7, 178896, Note_on_c, 5, 62, 0
7, 179040, Note_on_c, 5, 70, 125
7, 179376, Note_on_c, 5, 70, 0
7, 179520, Note_on_c, 5, 70, 125
7, 179856, Note_on_c, 5, 70, 0
7, 180000, Note_on_c, 5, 75, 125
7, 180336, Note_on_c, 5, 75, 0
7, 180480, Note_on_c, 5, 74, 125
7, 180816, Note_on_c, 5, 74, 0
7, 180960, Note_on_c, 5, 75, 125
7, 181296, Note_on_c, 5, 75, 0
7, 181440, Note_on_c, 5, 74, 125
7, 181776, Note_on_c, 5, 74, 0
7, 181920, Note_on_c, 5, 63, 105
7, 181920, Note_on_c, 5, 60, 105
7, 182256, Note_on_c, 5, 60, 0
7, 182256, Note_on_c, 5, 63, 0
7, 182400, Note_on_c, 5, 58, 105
7, 182400, Note_on_c, 5, 62, 105
7, 182760, Note_on_c, 5, 62, 0
7, 182760, Note_on_c, 5, 58, 0
7, 182880, Note_on_c, 5, 74, 105
7, 182880, Note_on_c, 5, 65, 105
7, 183060, Note_on_c, 5, 65, 0
7, 183060, Note_on_c, 5, 74, 0
7, 183120, Note_on_c, 5, 65, 105
7, 183120, Note_on_c, 5, 74, 105
7, 183300, Note_on_c, 5, 74, 0
7, 183300, Note_on_c, 5, 65, 0
7, 183360, Note_on_c, 5, 65, 105
7, 183360, Note_on_c, 5, 75, 105
7, 183720, Note_on_c, 5, 75, 0
7, 183720, Note_on_c, 5, 65, 0
7, 183840, Note_on_c, 5, 65, 105
7, 183840, Note_on_c, 5, 75, 105
7, 184020, Note_on_c, 5, 75, 0
7, 184020, Note_on_c, 5, 65, 0
7, 184080, Note_on_c, 5, 65, 105
7, 184080, Note_on_c, 5, 75, 105
7, 184260, Note_on_c, 5, 75, 0
7, 184260, Note_on_c, 5, 65, 0
7, 184320, Note_on_c, 5, 74, 105
7, 184320, Note_on_c, 5, 65, 105
7, 184680, Note_on_c, 5, 65, 0
7, 184680, Note_on_c, 5, 74, 0
7, 184800, Note_on_c, 5, 65, 105
7, 184800, Note_on_c, 5, 74, 105
7, 184980, Note_on_c, 5, 74, 0
7, 184980, Note_on_c, 5, 65, 0
7, 185040, Note_on_c, 5, 65, 105
7, 185040, Note_on_c, 5, 74, 105
7, 185220, Note_on_c, 5, 74, 0
7, 185220, Note_on_c, 5, 65, 0
7, 185280, Note_on_c, 5, 75, 105
7, 185280, Note_on_c, 5, 65, 105
7, 185640, Note_on_c, 5, 65, 0
7, 185640, Note_on_c, 5, 75, 0
7, 185760, Note_on_c, 5, 65, 105
7, 185760, Note_on_c, 5, 75, 105
7, 185940, Note_on_c, 5, 75, 0
7, 185940, Note_on_c, 5, 65, 0
7, 186000, Note_on_c, 5, 75, 105
7, 186000, Note_on_c, 5, 65, 105
7, 186180, Note_on_c, 5, 65, 0
7, 186180, Note_on_c, 5, 75, 0
7, 186240, Note_on_c, 5, 65, 105
7, 186240, Note_on_c, 5, 74, 105
7, 186600, Note_on_c, 5, 74, 0
7, 186600, Note_on_c, 5, 65, 0
7, 186720, Note_on_c, 5, 74, 105
7, 186720, Note_on_c, 5, 65, 105
7, 186900, Note_on_c, 5, 65, 0
7, 186900, Note_on_c, 5, 74, 0
7, 186960, Note_on_c, 5, 74, 105
7, 186960, Note_on_c, 5, 65, 105
7, 187140, Note_on_c, 5, 65, 0
7, 187140, Note_on_c, 5, 74, 0
7, 187200, Note_on_c, 5, 75, 105
7, 187200, Note_on_c, 5, 65, 105
7, 187560, Note_on_c, 5, 65, 0
7, 187560, Note_on_c, 5, 75, 0
7, 187680, Note_on_c, 5, 65, 105
7, 187680, Note_on_c, 5, 75, 105
7, 187860, Note_on_c, 5, 75, 0
7, 187860, Note_on_c, 5, 65, 0
7, 187920, Note_on_c, 5, 75, 105
7, 187920, Note_on_c, 5, 65, 105
7, 188100, Note_on_c, 5, 65, 0
7, 188100, Note_on_c, 5, 75, 0
7, 188160, Note_on_c, 5, 65, 105
7, 188160, Note_on_c, 5, 74, 105
7, 188520, Note_on_c, 5, 74, 0
7, 188520, Note_on_c, 5, 65, 0
7, 188640, Note_on_c, 5, 65, 105
7, 188640, Note_on_c, 5, 75, 105
7, 189000, Note_on_c, 5, 75, 0
7, 189000, Note_on_c, 5, 65, 0
7, 189120, Note_on_c, 5, 65, 105
7, 189120, Note_on_c, 5, 74, 105
7, 189480, Note_on_c, 5, 74, 0
7, 189480, Note_on_c, 5, 65, 0
7, 189600, Note_on_c, 5, 75, 105
7, 189600, Note_on_c, 5, 65, 105
7, 189960, Note_on_c, 5, 65, 0
7, 189960, Note_on_c, 5, 75, 0
7, 190080, Note_on_c, 5, 74, 105
7, 190080, Note_on_c, 5, 65, 105
7, 190464, Note_on_c, 5, 65, 0
7, 190464, Note_on_c, 5, 74, 0
7, 192000, Note_on_c, 5, 78, 105
7, 192000, Note_on_c, 5, 72, 105
7, 192000, Note_on_c, 5, 62, 105
7, 192384, Note_on_c, 5, 62, 0
7, 192384, Note_on_c, 5, 72, 0
7, 192384, Note_on_c, 5, 78, 0
7, 195360, Note_on_c, 5, 63, 70
7, 195600, Note_on_c, 5, 63, 0
7, 195600, Note_on_c, 5, 62, 70
7, 195792, Note_on_c, 5, 62, 0
7, 195840, Note_on_c, 5, 62, 70
7, 196224, Note_on_c, 5, 62, 0
7, 196320, Note_on_c, 5, 63, 70
7, 196560, Note_on_c, 5, 63, 0
7, 196560, Note_on_c, 5, 62, 70
7, 196752, Note_on_c, 5, 62, 0
7, 196800, Note_on_c, 5, 62, 70
7, 197184, Note_on_c, 5, 62, 0
7, 197280, Note_on_c, 5, 63, 70
7, 197520, Note_on_c, 5, 63, 0
7, 197520, Note_on_c, 5, 62, 70
7, 197712, Note_on_c, 5, 62, 0
7, 197760, Note_on_c, 5, 62, 70
7, 198240, Note_on_c, 5, 62, 0
7, 198240, Note_on_c, 5, 70, 70
7, 198624, Note_on_c, 5, 70, 0
7, 199200, Note_on_c, 5, 70, 70
7, 199440, Note_on_c, 5, 70, 0
7, 199440, Note_on_c, 5, 69, 70
7, 199632, Note_on_c, 5, 69, 0
7, 199680, Note_on_c, 5, 67, 70
7, 200064, Note_on_c, 5, 67, 0
7, 200160, Note_on_c, 5, 67, 70
7, 200400, Note_on_c, 5, 67, 0
7, 200400, Note_on_c, 5, 65, 70
7, 200592, Note_on_c, 5, 65, 0
7, 200640, Note_on_c, 5, 63, 70
7, 201024, Note_on_c, 5, 63, 0
7, 201120, Note_on_c, 5, 63, 70
7, 201360, Note_on_c, 5, 63, 0
7, 201360, Note_on_c, 5, 62, 70
7, 201552, Note_on_c, 5, 62, 0
7, 201600, Note_on_c, 5, 60, 70
7, 201984, Note_on_c, 5, 60, 0
7, 202080, Note_on_c, 5, 60, 70
7, 202464, Note_on_c, 5, 60, 0
7, 203040, Note_on_c, 5, 62, 70
7, 203280, Note_on_c, 5, 62, 0
7, 203280, Note_on_c, 5, 60, 70
7, 203472, Note_on_c, 5, 60, 0
7, 203520, Note_on_c, 5, 60, 70
7, 203904, Note_on_c, 5, 60, 0
7, 204000, Note_on_c, 5, 62, 70
7, 204240, Note_on_c, 5, 62, 0
7, 204240, Note_on_c, 5, 60, 70
7, 204432, Note_on_c, 5, 60, 0
7, 204480, Note_on_c, 5, 60, 70
7, 204864, Note_on_c, 5, 60, 0
7, 204960, Note_on_c, 5, 62, 70
7, 205200, Note_on_c, 5, 62, 0
7, 205200, Note_on_c, 5, 60, 70
7, 205392, Note_on_c, 5, 60, 0
7, 205440, Note_on_c, 5, 60, 70
7, 205920, Note_on_c, 5, 60, 0
7, 205920, Note_on_c, 5, 69, 70
7, 206304, Note_on_c, 5, 69, 0
7, 206880, Note_on_c, 5, 69, 70
7, 207120, Note_on_c, 5, 69, 0
7, 207120, Note_on_c, 5, 67, 70
7, 207312, Note_on_c, 5, 67, 0
7, 207360, Note_on_c, 5, 66, 70
7, 207744, Note_on_c, 5, 66, 0
7, 207840, Note_on_c, 5, 66, 70
7, 208080, Note_on_c, 5, 66, 0
7, 208080, Note_on_c, 5, 63, 70
7, 208272, Note_on_c, 5, 63, 0
7, 208320, Note_on_c, 5, 62, 70
7, 208704, Note_on_c, 5, 62, 0
7, 208800, Note_on_c, 5, 62, 70
7, 209040, Note_on_c, 5, 62, 0
7, 209040, Note_on_c, 5, 60, 70
7, 209232, Note_on_c, 5, 60, 0
7, 209280, Note_on_c, 5, 58, 70
7, 209664, Note_on_c, 5, 58, 0
7, 209760, Note_on_c, 5, 58, 70
7, 210144, Note_on_c, 5, 58, 0
7, 210720, Note_on_c, 5, 70, 70
7, 210960, Note_on_c, 5, 70, 0
7, 210960, Note_on_c, 5, 69, 70
7, 211152, Note_on_c, 5, 69, 0
7, 211200, Note_on_c, 5, 69, 70
7, 211680, Note_on_c, 5, 69, 0
7, 211680, Note_on_c, 5, 72, 70
7, 212160, Note_on_c, 5, 72, 0
7, 212160, Note_on_c, 5, 66, 70
7, 212640, Note_on_c, 5, 66, 0
7, 212640, Note_on_c, 5, 69, 70
7, 213024, Note_on_c, 5, 69, 0
7, 213120, Note_on_c, 5, 67, 70
7, 213600, Note_on_c, 5, 67, 0
7, 213600, Note_on_c, 5, 62, 70
7, 213984, Note_on_c, 5, 62, 0
7, 214560, Note_on_c, 5, 70, 70
7, 214800, Note_on_c, 5, 70, 0
7, 214800, Note_on_c, 5, 69, 70
7, 214992, Note_on_c, 5, 69, 0
7, 215040, Note_on_c, 5, 69, 70
7, 215520, Note_on_c, 5, 69, 0
7, 215520, Note_on_c, 5, 72, 70
7, 216000, Note_on_c, 5, 72, 0
7, 216000, Note_on_c, 5, 66, 70
7, 216480, Note_on_c, 5, 66, 0
7, 216480, Note_on_c, 5, 69, 70
7, 216864, Note_on_c, 5, 69, 0
7, 216960, Note_on_c, 5, 67, 70
7, 217440, Note_on_c, 5, 67, 0
7, 217440, Note_on_c, 5, 70, 70
7, 217824, Note_on_c, 5, 70, 0
7, 217920, Note_on_c, 5, 69, 70
7, 218160, Note_on_c, 5, 69, 0
7, 218160, Note_on_c, 5, 67, 70
7, 218400, Note_on_c, 5, 67, 0
7, 218400, Note_on_c, 5, 65, 70
7, 218640, Note_on_c, 5, 65, 0
7, 218640, Note_on_c, 5, 63, 70
7, 218832, Note_on_c, 5, 63, 0
7, 218880, Note_on_c, 5, 62, 58
7, 220800, Note_on_c, 5, 62, 0
7, 220800, Note_on_c, 5, 61, 58
7, 222624, Note_on_c, 5, 61, 0
7, 222720, Note_on_c, 5, 62, 58
7, 223488, Note_on_c, 5, 62, 0
7, 224160, Note_on_c, 5, 62, 105
7, 224340, Note_on_c, 5, 62, 0
7, 224400, Note_on_c, 5, 62, 105
7, 224580, Note_on_c, 5, 62, 0
7, 224640, Note_on_c, 5, 62, 105
7, 225408, Note_on_c, 5, 62, 0
7, 226080, Note_on_c, 5, 62, 105
7, 226260, Note_on_c, 5, 62, 0
7, 226320, Note_on_c, 5, 62, 105
7, 226500, Note_on_c, 5, 62, 0
7, 226560, Note_on_c, 5, 62, 105
7, 227328, Note_on_c, 5, 62, 0
7, 228000, Note_on_c, 5, 62, 105
7, 228180, Note_on_c, 5, 62, 0
7, 228240, Note_on_c, 5, 62, 105
7, 228420, Note_on_c, 5, 62, 0
7, 228480, Note_on_c, 5, 62, 105
7, 228840, Note_on_c, 5, 62, 0
7, 228960, Note_on_c, 5, 62, 105
7, 229140, Note_on_c, 5, 62, 0
7, 229200, Note_on_c, 5, 62, 105
7, 229380, Note_on_c, 5, 62, 0
7, 229440, Note_on_c, 5, 62, 105
7, 229800, Note_on_c, 5, 62, 0
7, 229920, Note_on_c, 5, 62, 105
7, 230100, Note_on_c, 5, 62, 0
7, 230160, Note_on_c, 5, 62, 105
7, 230340, Note_on_c, 5, 62, 0
7, 230400, Note_on_c, 5, 62, 105
7, 231168, Note_on_c, 5, 62, 0
7, 231840, Note_on_c, 5, 63, 70
7, 232080, Note_on_c, 5, 63, 0
7, 232080, Note_on_c, 5, 62, 70
7, 232272, Note_on_c, 5, 62, 0
7, 232320, Note_on_c, 5, 62, 70
7, 232704, Note_on_c, 5, 62, 0
7, 232800, Note_on_c, 5, 63, 70
7, 233040, Note_on_c, 5, 63, 0
7, 233040, Note_on_c, 5, 62, 70
7, 233232, Note_on_c, 5, 62, 0
7, 233280, Note_on_c, 5, 62, 70
7, 233664, Note_on_c, 5, 62, 0
7, 233760, Note_on_c, 5, 63, 70
7, 234000, Note_on_c, 5, 63, 0
7, 234000, Note_on_c, 5, 62, 70
7, 234192, Note_on_c, 5, 62, 0
7, 234240, Note_on_c, 5, 62, 70
7, 234720, Note_on_c, 5, 62, 0
7, 234720, Note_on_c, 5, 70, 70
7, 235104, Note_on_c, 5, 70, 0
7, 235680, Note_on_c, 5, 70, 70
7, 235920, Note_on_c, 5, 70, 0
7, 235920, Note_on_c, 5, 69, 70
7, 236112, Note_on_c, 5, 69, 0
7, 236160, Note_on_c, 5, 67, 70
7, 236544, Note_on_c, 5, 67, 0
7, 236640, Note_on_c, 5, 67, 70
7, 236880, Note_on_c, 5, 67, 0
7, 236880, Note_on_c, 5, 65, 70
7, 237072, Note_on_c, 5, 65, 0
7, 237120, Note_on_c, 5, 63, 70
7, 237504, Note_on_c, 5, 63, 0
7, 237600, Note_on_c, 5, 63, 70
7, 237840, Note_on_c, 5, 63, 0
7, 237840, Note_on_c, 5, 62, 70
7, 238032, Note_on_c, 5, 62, 0
7, 238080, Note_on_c, 5, 60, 70
7, 238464, Note_on_c, 5, 60, 0
7, 238560, Note_on_c, 5, 60, 70
7, 238944, Note_on_c, 5, 60, 0
7, 239520, Note_on_c, 5, 65, 70
7, 239760, Note_on_c, 5, 65, 0
7, 239760, Note_on_c, 5, 63, 70
7, 239952, Note_on_c, 5, 63, 0
7, 240000, Note_on_c, 5, 63, 70
7, 240384, Note_on_c, 5, 63, 0
7, 240480, Note_on_c, 5, 65, 70
7, 240720, Note_on_c, 5, 65, 0
7, 240720, Note_on_c, 5, 63, 70
7, 240912, Note_on_c, 5, 63, 0
7, 240960, Note_on_c, 5, 63, 70
7, 241344, Note_on_c, 5, 63, 0
7, 241440, Note_on_c, 5, 65, 70
7, 241680, Note_on_c, 5, 65, 0
7, 241680, Note_on_c, 5, 63, 70
7, 241872, Note_on_c, 5, 63, 0
7, 241920, Note_on_c, 5, 63, 70
7, 242400, Note_on_c, 5, 63, 0
7, 242400, Note_on_c, 5, 72, 70
7, 242784, Note_on_c, 5, 72, 0
7, 243360, Note_on_c, 5, 72, 70
7, 243600, Note_on_c, 5, 72, 0
7, 243600, Note_on_c, 5, 70, 70
7, 243792, Note_on_c, 5, 70, 0
7, 243840, Note_on_c, 5, 69, 70
7, 244224, Note_on_c, 5, 69, 0
7, 244320, Note_on_c, 5, 69, 70
7, 244560, Note_on_c, 5, 69, 0
7, 244560, Note_on_c, 5, 67, 70
7, 244752, Note_on_c, 5, 67, 0
7, 244800, Note_on_c, 5, 65, 70
7, 245184, Note_on_c, 5, 65, 0
7, 245280, Note_on_c, 5, 65, 70
7, 245520, Note_on_c, 5, 65, 0
7, 245520, Note_on_c, 5, 63, 70
7, 245712, Note_on_c, 5, 63, 0
7, 245760, Note_on_c, 5, 70, 105
7, 245760, Note_on_c, 5, 62, 105
7, 247296, Note_on_c, 5, 62, 0
7, 247296, Note_on_c, 5, 70, 0
7, 247680, Note_on_c, 5, 77, 105
7, 247680, Note_on_c, 5, 69, 105
7, 248832, Note_on_c, 5, 69, 0
7, 248832, Note_on_c, 5, 77, 0
7, 249360, Note_on_c, 5, 77, 105
7, 249492, Note_on_c, 5, 77, 0
7, 249600, Note_on_c, 5, 75, 105
7, 249864, Note_on_c, 5, 75, 0
7, 250080, Note_on_c, 5, 79, 105
7, 250344, Note_on_c, 5, 79, 0
7, 250560, Note_on_c, 5, 82, 105
7, 250824, Note_on_c, 5, 82, 0
7, 251520, Note_on_c, 5, 74, 105
7, 251784, Note_on_c, 5, 74, 0
7, 252000, Note_on_c, 5, 77, 105
7, 252264, Note_on_c, 5, 77, 0
7, 252480, Note_on_c, 5, 82, 105
7, 252744, Note_on_c, 5, 82, 0
7, 253200, Note_on_c, 5, 74, 105
7, 253332, Note_on_c, 5, 74, 0
7, 253440, Note_on_c, 5, 72, 105
7, 253704, Note_on_c, 5, 72, 0
7, 253920, Note_on_c, 5, 75, 105
7, 254184, Note_on_c, 5, 75, 0
7, 254400, Note_on_c, 5, 79, 105
7, 254664, Note_on_c, 5, 79, 0
7, 254880, Note_on_c, 5, 72, 105
7, 255144, Note_on_c, 5, 72, 0
7, 255360, Note_on_c, 5, 70, 105
7, 255624, Note_on_c, 5, 70, 0
7, 255840, Note_on_c, 5, 74, 105
7, 256104, Note_on_c, 5, 74, 0
7, 256320, Note_on_c, 5, 77, 105
7, 256584, Note_on_c, 5, 77, 0
7, 257040, Note_on_c, 5, 65, 105
7, 257172, Note_on_c, 5, 65, 0
7, 257280, Note_on_c, 5, 64, 125
7, 257472, Note_on_c, 5, 64, 0
7, 257520, Note_on_c, 5, 65, 105
7, 257712, Note_on_c, 5, 65, 0
7, 257760, Note_on_c, 5, 67, 105
7, 257952, Note_on_c, 5, 67, 0
7, 258000, Note_on_c, 5, 69, 105
7, 258192, Note_on_c, 5, 69, 0
7, 258240, Note_on_c, 5, 70, 105
7, 258432, Note_on_c, 5, 70, 0
7, 258480, Note_on_c, 5, 72, 105
7, 258672, Note_on_c, 5, 72, 0
7, 258720, Note_on_c, 5, 73, 105
7, 258912, Note_on_c, 5, 73, 0
7, 258960, Note_on_c, 5, 65, 105
7, 259152, Note_on_c, 5, 65, 0
7, 259200, Note_on_c, 5, 64, 125
7, 259392, Note_on_c, 5, 64, 0
7, 259440, Note_on_c, 5, 65, 105
7, 259632, Note_on_c, 5, 65, 0
7, 259680, Note_on_c, 5, 67, 105
7, 259872, Note_on_c, 5, 67, 0
7, 259920, Note_on_c, 5, 69, 105
7, 260112, Note_on_c, 5, 69, 0
7, 260160, Note_on_c, 5, 70, 105
7, 260352, Note_on_c, 5, 70, 0
7, 260400, Note_on_c, 5, 72, 105
7, 260592, Note_on_c, 5, 72, 0
7, 260640, Note_on_c, 5, 73, 105
7, 260832, Note_on_c, 5, 73, 0
7, 260880, Note_on_c, 5, 65, 105
7, 261072, Note_on_c, 5, 65, 0
7, 261120, Note_on_c, 5, 64, 125
7, 261312, Note_on_c, 5, 64, 0
7, 261360, Note_on_c, 5, 65, 105
7, 261552, Note_on_c, 5, 65, 0
7, 261600, Note_on_c, 5, 67, 105
7, 261792, Note_on_c, 5, 67, 0
7, 261840, Note_on_c, 5, 69, 105
7, 262032, Note_on_c, 5, 69, 0
7, 262080, Note_on_c, 5, 70, 105
7, 262272, Note_on_c, 5, 70, 0
7, 262320, Note_on_c, 5, 72, 105
7, 262512, Note_on_c, 5, 72, 0
7, 262560, Note_on_c, 5, 73, 105
7, 262752, Note_on_c, 5, 73, 0
7, 262800, Note_on_c, 5, 65, 105
7, 262992, Note_on_c, 5, 65, 0
7, 263040, Note_on_c, 5, 64, 125
7, 263232, Note_on_c, 5, 64, 0
7, 263280, Note_on_c, 5, 65, 105
7, 263472, Note_on_c, 5, 65, 0
7, 263520, Note_on_c, 5, 67, 105
7, 263712, Note_on_c, 5, 67, 0
7, 263760, Note_on_c, 5, 69, 105
7, 263952, Note_on_c, 5, 69, 0
7, 264000, Note_on_c, 5, 70, 105
7, 264192, Note_on_c, 5, 70, 0
7, 264240, Note_on_c, 5, 72, 105
7, 264432, Note_on_c, 5, 72, 0
7, 264480, Note_on_c, 5, 73, 105
7, 264672, Note_on_c, 5, 73, 0
7, 264720, Note_on_c, 5, 64, 105
7, 264912, Note_on_c, 5, 64, 0
7, 264960, Note_on_c, 5, 65, 105
7, 265140, Note_on_c, 5, 65, 0
7, 265200, Note_on_c, 5, 77, 105
7, 265380, Note_on_c, 5, 77, 0
7, 265440, Note_on_c, 5, 77, 105
7, 265620, Note_on_c, 5, 77, 0
7, 265680, Note_on_c, 5, 77, 105
7, 265860, Note_on_c, 5, 77, 0
7, 265920, Note_on_c, 5, 75, 105
7, 266100, Note_on_c, 5, 75, 0
7, 266160, Note_on_c, 5, 75, 105
7, 266340, Note_on_c, 5, 75, 0
7, 266400, Note_on_c, 5, 75, 105
7, 266580, Note_on_c, 5, 75, 0
7, 266640, Note_on_c, 5, 75, 105
7, 266820, Note_on_c, 5, 75, 0
7, 266880, Note_on_c, 5, 73, 105
7, 267060, Note_on_c, 5, 73, 0
7, 267120, Note_on_c, 5, 73, 105
7, 267300, Note_on_c, 5, 73, 0
7, 267360, Note_on_c, 5, 73, 105
7, 267540, Note_on_c, 5, 73, 0
7, 267600, Note_on_c, 5, 73, 105
7, 267780, Note_on_c, 5, 73, 0
7, 267840, Note_on_c, 5, 73, 105
7, 268020, Note_on_c, 5, 73, 0
7, 268080, Note_on_c, 5, 73, 105
7, 268260, Note_on_c, 5, 73, 0
7, 268320, Note_on_c, 5, 73, 105
7, 268500, Note_on_c, 5, 73, 0
7, 268560, Note_on_c, 5, 73, 105
7, 268740, Note_on_c, 5, 73, 0
7, 268800, Note_on_c, 5, 72, 105
7, 268980, Note_on_c, 5, 72, 0
7, 269040, Note_on_c, 5, 72, 105
7, 269220, Note_on_c, 5, 72, 0
7, 269280, Note_on_c, 5, 72, 105
7, 269460, Note_on_c, 5, 72, 0
7, 269520, Note_on_c, 5, 72, 105
7, 269700, Note_on_c, 5, 72, 0
7, 269760, Note_on_c, 5, 75, 105
7, 269940, Note_on_c, 5, 75, 0
7, 270000, Note_on_c, 5, 75, 105
7, 270180, Note_on_c, 5, 75, 0
7, 270240, Note_on_c, 5, 75, 105
7, 270420, Note_on_c, 5, 75, 0
7, 270480, Note_on_c, 5, 75, 105
7, 270660, Note_on_c, 5, 75, 0
7, 270720, Note_on_c, 5, 73, 105
7, 270900, Note_on_c, 5, 73, 0
7, 270960, Note_on_c, 5, 73, 105
7, 271140, Note_on_c, 5, 73, 0
7, 271200, Note_on_c, 5, 73, 105
7, 271380, Note_on_c, 5, 73, 0
7, 271440, Note_on_c, 5, 73, 105
7, 271620, Note_on_c, 5, 73, 0
7, 271680, Note_on_c, 5, 70, 105
7, 271860, Note_on_c, 5, 70, 0
7, 271920, Note_on_c, 5, 70, 105
7, 272100, Note_on_c, 5, 70, 0
7, 272160, Note_on_c, 5, 70, 105
7, 272340, Note_on_c, 5, 70, 0
7, 272400, Note_on_c, 5, 70, 105
7, 272580, Note_on_c, 5, 70, 0
7, 272640, Note_on_c, 5, 69, 105
7, 273024, Note_on_c, 5, 69, 0
7, 273600, Note_on_c, 5, 57, 92
7, 273600, Note_on_c, 5, 65, 92
7, 273984, Note_on_c, 5, 65, 0
7, 273984, Note_on_c, 5, 57, 0
7, 276480, Note_on_c, 5, 65, 58
7, 277920, Note_on_c, 5, 65, 0
7, 277920, Note_on_c, 5, 64, 58
7, 278400, Note_on_c, 5, 64, 0
7, 278400, Note_on_c, 5, 63, 58
7, 278784, Note_on_c, 5, 63, 0
7, 280800, Note_on_c, 5, 58, 58
7, 281112, Note_on_c, 5, 58, 0
7, 281280, Note_on_c, 5, 58, 58
7, 281760, Note_on_c, 5, 58, 0
7, 281760, Note_on_c, 5, 60, 58
7, 282144, Note_on_c, 5, 60, 0
7, 282240, Note_on_c, 5, 58, 58
7, 282960, Note_on_c, 5, 58, 0
7, 282960, Note_on_c, 5, 60, 58
7, 283200, Note_on_c, 5, 60, 0
7, 283200, Note_on_c, 5, 57, 58
7, 283584, Note_on_c, 5, 57, 0
7, 284160, Note_on_c, 5, 67, 58
7, 285600, Note_on_c, 5, 67, 0
7, 285600, Note_on_c, 5, 66, 58
7, 286080, Note_on_c, 5, 66, 0
7, 286080, Note_on_c, 5, 65, 58
7, 286560, Note_on_c, 5, 65, 0
7, 286560, Note_on_c, 5, 64, 58
7, 287040, Note_on_c, 5, 64, 0
7, 287040, Note_on_c, 5, 63, 58
7, 287520, Note_on_c, 5, 63, 0
7, 287520, Note_on_c, 5, 62, 58
7, 287904, Note_on_c, 5, 62, 0
7, 288000, Note_on_c, 5, 60, 58
7, 288480, Note_on_c, 5, 60, 0
7, 288480, Note_on_c, 5, 63, 58
7, 289248, Note_on_c, 5, 63, 0
7, 289440, Note_on_c, 5, 57, 58
7, 289824, Note_on_c, 5, 57, 0
7, 289920, Note_on_c, 5, 58, 58
7, 290304, Note_on_c, 5, 58, 0
7, 293760, Note_on_c, 5, 63, 58
7, 295200, Note_on_c, 5, 63, 0
7, 295200, Note_on_c, 5, 65, 58
7, 295320, Note_on_c, 5, 65, 0
7, 295320, Note_on_c, 5, 63, 58
7, 295440, Note_on_c, 5, 63, 0
7, 295440, Note_on_c, 5, 62, 58
7, 295560, Note_on_c, 5, 62, 0
7, 295560, Note_on_c, 5, 60, 58
7, 295680, Note_on_c, 5, 60, 0
7, 295680, Note_on_c, 5, 58, 58
7, 296064, Note_on_c, 5, 58, 0
7, 299520, Note_on_c, 5, 60, 70
7, 301440, Note_on_c, 5, 60, 0
7, 301440, Note_on_c, 5, 59, 70
7, 301920, Note_on_c, 5, 59, 0
7, 301920, Note_on_c, 5, 58, 70
7, 302400, Note_on_c, 5, 58, 0
7, 302400, Note_on_c, 5, 57, 70
7, 302880, Note_on_c, 5, 57, 0
7, 302880, Note_on_c, 5, 56, 70
7, 303264, Note_on_c, 5, 56, 0
7, 303360, Note_on_c, 5, 58, 58
7, 303600, Note_on_c, 5, 58, 0
7, 303600, Note_on_c, 5, 55, 58
7, 303840, Note_on_c, 5, 55, 0
7, 303840, Note_on_c, 5, 58, 58
7, 304080, Note_on_c, 5, 58, 0
7, 304080, Note_on_c, 5, 55, 58
7, 304320, Note_on_c, 5, 55, 0
7, 304320, Note_on_c, 5, 58, 58
7, 304560, Note_on_c, 5, 58, 0
7, 304560, Note_on_c, 5, 55, 58
7, 304800, Note_on_c, 5, 55, 0
7, 304800, Note_on_c, 5, 56, 58
7, 305040, Note_on_c, 5, 56, 0
7, 305040, Note_on_c, 5, 60, 58
7, 305232, Note_on_c, 5, 60, 0
7, 305280, Note_on_c, 5, 58, 58
7, 305520, Note_on_c, 5, 58, 0
7, 305520, Note_on_c, 5, 55, 58
7, 305760, Note_on_c, 5, 55, 0
7, 305760, Note_on_c, 5, 58, 58
7, 306000, Note_on_c, 5, 58, 0
7, 306000, Note_on_c, 5, 55, 58
7, 306240, Note_on_c, 5, 55, 0
7, 306240, Note_on_c, 5, 58, 58
7, 306480, Note_on_c, 5, 58, 0
7, 306480, Note_on_c, 5, 55, 58
7, 306720, Note_on_c, 5, 55, 0
7, 306720, Note_on_c, 5, 56, 58
7, 306960, Note_on_c, 5, 56, 0
7, 306960, Note_on_c, 5, 60, 58
7, 307152, Note_on_c, 5, 60, 0
7, 307200, Note_on_c, 5, 58, 58
7, 307440, Note_on_c, 5, 58, 0
7, 307440, Note_on_c, 5, 55, 58
7, 307680, Note_on_c, 5, 55, 0
7, 307680, Note_on_c, 5, 58, 58
7, 307920, Note_on_c, 5, 58, 0
7, 307920, Note_on_c, 5, 55, 58
7, 308160, Note_on_c, 5, 55, 0
7, 308160, Note_on_c, 5, 58, 58
7, 308400, Note_on_c, 5, 58, 0
7, 308400, Note_on_c, 5, 55, 58
7, 308640, Note_on_c, 5, 55, 0
7, 308640, Note_on_c, 5, 56, 58
7, 308880, Note_on_c, 5, 56, 0
7, 308880, Note_on_c, 5, 60, 58
7, 309072, Note_on_c, 5, 60, 0
7, 309120, Note_on_c, 5, 58, 58
7, 309360, Note_on_c, 5, 58, 0
7, 309360, Note_on_c, 5, 55, 58
7, 309600, Note_on_c, 5, 55, 0
7, 309600, Note_on_c, 5, 58, 58
7, 309840, Note_on_c, 5, 58, 0
7, 309840, Note_on_c, 5, 55, 58
7, 310080, Note_on_c, 5, 55, 0
7, 310080, Note_on_c, 5, 58, 58
7, 310320, Note_on_c, 5, 58, 0
7, 310320, Note_on_c, 5, 55, 58
7, 310560, Note_on_c, 5, 55, 0
7, 310560, Note_on_c, 5, 56, 58
7, 310800, Note_on_c, 5, 56, 0
7, 310800, Note_on_c, 5, 60, 58
7, 310992, Note_on_c, 5, 60, 0
7, 311040, Note_on_c, 5, 58, 58
7, 311256, Note_on_c, 5, 58, 0
7, 311280, Note_on_c, 5, 70, 70
7, 311496, Note_on_c, 5, 70, 0
7, 311520, Note_on_c, 5, 70, 73
7, 311736, Note_on_c, 5, 70, 0
7, 311760, Note_on_c, 5, 70, 77
7, 311976, Note_on_c, 5, 70, 0
7, 312000, Note_on_c, 5, 70, 80
7, 312216, Note_on_c, 5, 70, 0
7, 312240, Note_on_c, 5, 70, 84
7, 312456, Note_on_c, 5, 70, 0
7, 312480, Note_on_c, 5, 70, 87
7, 312696, Note_on_c, 5, 70, 0
7, 312720, Note_on_c, 5, 70, 91
7, 312936, Note_on_c, 5, 70, 0
7, 312960, Note_on_c, 5, 70, 94
7, 313176, Note_on_c, 5, 70, 0
7, 313200, Note_on_c, 5, 82, 98
7, 313416, Note_on_c, 5, 82, 0
7, 313440, Note_on_c, 5, 82, 101
7, 313656, Note_on_c, 5, 82, 0
7, 313680, Note_on_c, 5, 82, 105
7, 313896, Note_on_c, 5, 82, 0
7, 313920, Note_on_c, 5, 82, 108
7, 314136, Note_on_c, 5, 82, 0
7, 314160, Note_on_c, 5, 82, 109
7, 314376, Note_on_c, 5, 82, 0
7, 314400, Note_on_c, 5, 82, 109
7, 314616, Note_on_c, 5, 82, 0
7, 314640, Note_on_c, 5, 82, 109
7, 314856, Note_on_c, 5, 82, 0
7, 314880, Note_on_c, 5, 82, 105
7, 315264, Note_on_c, 5, 82, 0
7, 315360, Note_on_c, 5, 74, 105
7, 315360, Note_on_c, 5, 77, 105
7, 316128, Note_on_c, 5, 77, 0
7, 316128, Note_on_c, 5, 74, 0
7, 316320, Note_on_c, 5, 74, 105
7, 316320, Note_on_c, 5, 77, 105
7, 316800, Note_on_c, 5, 74, 0
7, 316800, Note_on_c, 5, 75, 105
7, 317184, Note_on_c, 5, 75, 0
7, 317184, Note_on_c, 5, 77, 0
7, 317280, Note_on_c, 5, 75, 105
7, 317280, Note_on_c, 5, 77, 105
7, 318048, Note_on_c, 5, 77, 0
7, 318048, Note_on_c, 5, 75, 0
7, 318240, Note_on_c, 5, 75, 105
7, 318240, Note_on_c, 5, 77, 105
7, 318624, Note_on_c, 5, 77, 0
7, 318624, Note_on_c, 5, 75, 0
7, 318720, Note_on_c, 5, 74, 92
7, 318720, Note_on_c, 5, 77, 92
7, 319104, Note_on_c, 5, 77, 0
7, 319104, Note_on_c, 5, 74, 0
7, 319200, Note_on_c, 5, 62, 125
7, 319392, Note_on_c, 5, 62, 0
7, 319440, Note_on_c, 5, 62, 105
7, 319632, Note_on_c, 5, 62, 0
7, 319680, Note_on_c, 5, 62, 105
7, 319872, Note_on_c, 5, 62, 0
7, 319920, Note_on_c, 5, 62, 105
7, 320112, Note_on_c, 5, 62, 0
7, 320160, Note_on_c, 5, 63, 105
7, 320352, Note_on_c, 5, 63, 0
7, 320400, Note_on_c, 5, 63, 105
7, 320592, Note_on_c, 5, 63, 0
7, 320640, Note_on_c, 5, 64, 105
7, 320832, Note_on_c, 5, 64, 0
7, 320880, Note_on_c, 5, 64, 105
7, 321072, Note_on_c, 5, 64, 0
7, 321120, Note_on_c, 5, 65, 105
7, 321312, Note_on_c, 5, 65, 0
7, 321360, Note_on_c, 5, 65, 105
7, 321552, Note_on_c, 5, 65, 0
7, 321600, Note_on_c, 5, 66, 105
7, 321792, Note_on_c, 5, 66, 0
7, 321840, Note_on_c, 5, 66, 105
7, 322032, Note_on_c, 5, 66, 0
7, 322080, Note_on_c, 5, 67, 105
7, 322272, Note_on_c, 5, 67, 0
7, 322320, Note_on_c, 5, 67, 105
7, 322512, Note_on_c, 5, 67, 0
7, 322560, Note_on_c, 5, 68, 105
7, 322944, Note_on_c, 5, 68, 0
7, 323400, Note_on_c, 5, 68, 105
7, 323496, Note_on_c, 5, 68, 0
7, 323520, Note_on_c, 5, 67, 105
7, 323904, Note_on_c, 5, 67, 0
7, 324360, Note_on_c, 5, 67, 105
7, 324456, Note_on_c, 5, 67, 0
7, 324480, Note_on_c, 5, 75, 105
7, 324864, Note_on_c, 5, 75, 0
7, 325320, Note_on_c, 5, 75, 105
7, 325416, Note_on_c, 5, 75, 0
7, 325440, Note_on_c, 5, 74, 105
7, 325824, Note_on_c, 5, 74, 0
7, 326280, Note_on_c, 5, 74, 105
7, 326376, Note_on_c, 5, 74, 0
7, 326400, Note_on_c, 5, 79, 105
7, 327504, Note_on_c, 5, 79, 0
7, 327600, Note_on_c, 5, 77, 58
7, 327744, Note_on_c, 5, 77, 0
7, 327840, Note_on_c, 5, 75, 58
7, 327984, Note_on_c, 5, 75, 0
7, 328080, Note_on_c, 5, 74, 58
7, 328224, Note_on_c, 5, 74, 0
7, 328320, Note_on_c, 5, 72, 58
7, 328464, Note_on_c, 5, 72, 0
7, 328560, Note_on_c, 5, 70, 58
7, 328704, Note_on_c, 5, 70, 0
7, 328800, Note_on_c, 5, 69, 58
7, 328944, Note_on_c, 5, 69, 0
7, 329040, Note_on_c, 5, 67, 58
7, 329184, Note_on_c, 5, 67, 0
7, 329280, Note_on_c, 5, 65, 58
7, 329424, Note_on_c, 5, 65, 0
7, 329520, Note_on_c, 5, 63, 58
7, 329664, Note_on_c, 5, 63, 0
7, 329760, Note_on_c, 5, 62, 58
7, 329904, Note_on_c, 5, 62, 0
7, 330000, Note_on_c, 5, 60, 58
7, 330144, Note_on_c, 5, 60, 0
7, 330240, Note_on_c, 5, 62, 58
7, 330480, Note_on_c, 5, 62, 0
7, 330480, Note_on_c, 5, 65, 58
7, 330720, Note_on_c, 5, 65, 0
7, 330720, Note_on_c, 5, 62, 58
7, 330960, Note_on_c, 5, 62, 0
7, 330960, Note_on_c, 5, 65, 58
7, 331200, Note_on_c, 5, 65, 0
7, 331200, Note_on_c, 5, 62, 58
7, 331440, Note_on_c, 5, 62, 0
7, 331440, Note_on_c, 5, 65, 58
7, 331680, Note_on_c, 5, 65, 0
7, 331680, Note_on_c, 5, 62, 58
7, 331920, Note_on_c, 5, 62, 0
7, 331920, Note_on_c, 5, 65, 58
7, 332112, Note_on_c, 5, 65, 0
7, 332160, Note_on_c, 5, 63, 58
7, 332400, Note_on_c, 5, 63, 0
7, 332400, Note_on_c, 5, 65, 58
7, 332640, Note_on_c, 5, 65, 0
7, 332640, Note_on_c, 5, 63, 58
7, 332880, Note_on_c, 5, 63, 0
7, 332880, Note_on_c, 5, 65, 58
7, 333120, Note_on_c, 5, 65, 0
7, 333120, Note_on_c, 5, 60, 58
7, 333360, Note_on_c, 5, 60, 0
7, 333360, Note_on_c, 5, 65, 58
7, 333600, Note_on_c, 5, 65, 0
7, 333600, Note_on_c, 5, 60, 58
7, 333840, Note_on_c, 5, 60, 0
7, 333840, Note_on_c, 5, 65, 58
7, 334032, Note_on_c, 5, 65, 0
7, 334080, Note_on_c, 5, 58, 58
7, 334320, Note_on_c, 5, 58, 0
7, 334320, Note_on_c, 5, 65, 58
7, 334560, Note_on_c, 5, 65, 0
7, 334560, Note_on_c, 5, 58, 58
7, 334800, Note_on_c, 5, 58, 0
7, 334800, Note_on_c, 5, 65, 58
7, 335040, Note_on_c, 5, 65, 0
7, 335040, Note_on_c, 5, 58, 58
7, 335280, Note_on_c, 5, 58, 0
7, 335280, Note_on_c, 5, 65, 58
7, 335520, Note_on_c, 5, 65, 0
7, 335520, Note_on_c, 5, 62, 58
7, 335760, Note_on_c, 5, 62, 0
7, 335760, Note_on_c, 5, 65, 58
7, 335952, Note_on_c, 5, 65, 0
7, 336000, Note_on_c, 5, 63, 58
7, 336240, Note_on_c, 5, 63, 0
7, 336240, Note_on_c, 5, 65, 58
7, 336480, Note_on_c, 5, 65, 0
7, 336480, Note_on_c, 5, 63, 58
7, 336720, Note_on_c, 5, 63, 0
7, 336720, Note_on_c, 5, 65, 58
7, 336960, Note_on_c, 5, 65, 0
7, 336960, Note_on_c, 5, 60, 58
7, 337200, Note_on_c, 5, 60, 0
7, 337200, Note_on_c, 5, 65, 58
7, 337440, Note_on_c, 5, 65, 0
7, 337440, Note_on_c, 5, 60, 58
7, 337680, Note_on_c, 5, 60, 0
7, 337680, Note_on_c, 5, 65, 58
7, 337872, Note_on_c, 5, 65, 0
7, 337920, Note_on_c, 5, 58, 58
7, 338160, Note_on_c, 5, 58, 0
7, 338160, Note_on_c, 5, 65, 58
7, 338400, Note_on_c, 5, 65, 0
7, 338400, Note_on_c, 5, 58, 58
7, 338640, Note_on_c, 5, 58, 0
7, 338640, Note_on_c, 5, 65, 58
7, 338880, Note_on_c, 5, 65, 0
7, 338880, Note_on_c, 5, 58, 58
7, 339120, Note_on_c, 5, 58, 0
7, 339120, Note_on_c, 5, 65, 58
7, 339360, Note_on_c, 5, 65, 0
7, 339360, Note_on_c, 5, 74, 58
7, 339600, Note_on_c, 5, 74, 0
7, 339600, Note_on_c, 5, 65, 58
7, 339792, Note_on_c, 5, 65, 0
7, 339840, Note_on_c, 5, 72, 105
7, 339840, Note_on_c, 5, 78, 105
7, 340032, Note_on_c, 5, 78, 0
7, 340032, Note_on_c, 5, 72, 0
7, 340080, Note_on_c, 5, 72, 105
7, 340080, Note_on_c, 5, 78, 105
7, 340272, Note_on_c, 5, 78, 0
7, 340272, Note_on_c, 5, 72, 0
7, 340320, Note_on_c, 5, 78, 105
7, 340320, Note_on_c, 5, 72, 105
7, 340512, Note_on_c, 5, 72, 0
7, 340512, Note_on_c, 5, 78, 0
7, 340560, Note_on_c, 5, 78, 105
7, 340560, Note_on_c, 5, 72, 105
7, 340752, Note_on_c, 5, 72, 0
7, 340752, Note_on_c, 5, 78, 0
7, 340800, Note_on_c, 5, 72, 105
7, 340800, Note_on_c, 5, 78, 105
7, 340992, Note_on_c, 5, 78, 0
7, 340992, Note_on_c, 5, 72, 0
7, 341040, Note_on_c, 5, 72, 105
7, 341040, Note_on_c, 5, 78, 105
7, 341232, Note_on_c, 5, 78, 0
7, 341232, Note_on_c, 5, 72, 0
7, 341280, Note_on_c, 5, 72, 105
7, 341280, Note_on_c, 5, 78, 105
7, 341472, Note_on_c, 5, 78, 0
7, 341472, Note_on_c, 5, 72, 0
7, 341520, Note_on_c, 5, 78, 105
7, 341520, Note_on_c, 5, 72, 105
7, 341712, Note_on_c, 5, 72, 0
7, 341712, Note_on_c, 5, 78, 0
7, 341760, Note_on_c, 5, 79, 105
7, 341760, Note_on_c, 5, 70, 105
7, 342528, Note_on_c, 5, 70, 0
7, 342528, Note_on_c, 5, 79, 0
7, 342720, Note_on_c, 5, 79, 105
7, 343440, Note_on_c, 5, 79, 0
7, 343440, Note_on_c, 5, 75, 105
7, 343632, Note_on_c, 5, 75, 0
7, 343680, Note_on_c, 5, 74, 105
7, 344400, Note_on_c, 5, 74, 0
7, 344400, Note_on_c, 5, 77, 105
7, 344592, Note_on_c, 5, 77, 0
7, 344640, Note_on_c, 5, 75, 105
7, 345360, Note_on_c, 5, 75, 0
7, 345360, Note_on_c, 5, 72, 105
7, 345552, Note_on_c, 5, 72, 0
7, 345600, Note_on_c, 5, 74, 92
7, 345792, Note_on_c, 5, 74, 0
7, 345840, Note_on_c, 5, 65, 70
7, 346080, Note_on_c, 5, 65, 0
7, 346080, Note_on_c, 5, 62, 70
7, 346320, Note_on_c, 5, 62, 0
7, 346320, Note_on_c, 5, 65, 70
7, 346560, Note_on_c, 5, 65, 0
7, 346560, Note_on_c, 5, 62, 58
7, 346800, Note_on_c, 5, 62, 0
7, 346800, Note_on_c, 5, 65, 58
7, 347040, Note_on_c, 5, 65, 0
7, 347040, Note_on_c, 5, 62, 58
7, 347280, Note_on_c, 5, 62, 0
7, 347280, Note_on_c, 5, 65, 58
7, 347472, Note_on_c, 5, 65, 0
7, 347520, Note_on_c, 5, 60, 58
7, 347760, Note_on_c, 5, 60, 0
7, 347760, Note_on_c, 5, 63, 58
7, 348000, Note_on_c, 5, 63, 0
7, 348000, Note_on_c, 5, 60, 58
7, 348240, Note_on_c, 5, 60, 0
7, 348240, Note_on_c, 5, 63, 58
7, 348480, Note_on_c, 5, 63, 0
7, 348480, Note_on_c, 5, 60, 58
7, 348720, Note_on_c, 5, 60, 0
7, 348720, Note_on_c, 5, 65, 58
7, 348960, Note_on_c, 5, 65, 0
7, 348960, Note_on_c, 5, 57, 58
7, 349200, Note_on_c, 5, 57, 0
7, 349200, Note_on_c, 5, 65, 58
7, 349392, Note_on_c, 5, 65, 0
7, 349440, Note_on_c, 5, 58, 58
7, 349680, Note_on_c, 5, 58, 0
7, 349680, Note_on_c, 5, 65, 58
7, 349920, Note_on_c, 5, 65, 0
7, 349920, Note_on_c, 5, 58, 58
7, 350160, Note_on_c, 5, 58, 0
7, 350160, Note_on_c, 5, 65, 58
7, 350400, Note_on_c, 5, 65, 0
7, 350400, Note_on_c, 5, 58, 58
7, 350640, Note_on_c, 5, 58, 0
7, 350640, Note_on_c, 5, 65, 58
7, 350880, Note_on_c, 5, 65, 0
7, 350880, Note_on_c, 5, 62, 58
7, 351120, Note_on_c, 5, 62, 0
7, 351120, Note_on_c, 5, 65, 58
7, 351312, Note_on_c, 5, 65, 0
7, 351360, Note_on_c, 5, 60, 58
7, 351600, Note_on_c, 5, 60, 0
7, 351600, Note_on_c, 5, 63, 58
7, 351840, Note_on_c, 5, 63, 0
7, 351840, Note_on_c, 5, 60, 58
7, 352080, Note_on_c, 5, 60, 0
7, 352080, Note_on_c, 5, 63, 58
7, 352320, Note_on_c, 5, 63, 0
7, 352320, Note_on_c, 5, 60, 58
7, 352560, Note_on_c, 5, 60, 0
7, 352560, Note_on_c, 5, 65, 58
7, 352800, Note_on_c, 5, 65, 0
7, 352800, Note_on_c, 5, 57, 58
7, 353040, Note_on_c, 5, 57, 0
7, 353040, Note_on_c, 5, 65, 58
7, 353232, Note_on_c, 5, 65, 0
7, 353280, Note_on_c, 5, 58, 58
7, 353520, Note_on_c, 5, 58, 0
7, 353520, Note_on_c, 5, 65, 58
7, 353760, Note_on_c, 5, 65, 0
7, 353760, Note_on_c, 5, 58, 58
7, 354000, Note_on_c, 5, 58, 0
7, 354000, Note_on_c, 5, 65, 58
7, 354240, Note_on_c, 5, 65, 0
7, 354240, Note_on_c, 5, 58, 58
7, 354480, Note_on_c, 5, 58, 0
7, 354480, Note_on_c, 5, 65, 58
7, 354720, Note_on_c, 5, 65, 0
7, 354720, Note_on_c, 5, 74, 58
7, 354960, Note_on_c, 5, 74, 0
7, 354960, Note_on_c, 5, 65, 58
7, 355152, Note_on_c, 5, 65, 0
7, 355200, Note_on_c, 5, 78, 58
7, 355200, Note_on_c, 5, 72, 105
7, 355392, Note_on_c, 5, 72, 0
7, 355392, Note_on_c, 5, 78, 0
7, 355440, Note_on_c, 5, 72, 105
7, 355440, Note_on_c, 5, 78, 105
7, 355632, Note_on_c, 5, 78, 0
7, 355632, Note_on_c, 5, 72, 0
7, 355680, Note_on_c, 5, 72, 105
7, 355680, Note_on_c, 5, 78, 105
7, 355872, Note_on_c, 5, 78, 0
7, 355872, Note_on_c, 5, 72, 0
7, 355920, Note_on_c, 5, 78, 105
7, 355920, Note_on_c, 5, 72, 105
7, 356112, Note_on_c, 5, 72, 0
7, 356112, Note_on_c, 5, 78, 0
7, 356160, Note_on_c, 5, 72, 105
7, 356160, Note_on_c, 5, 78, 105
7, 356352, Note_on_c, 5, 78, 0
7, 356352, Note_on_c, 5, 72, 0
7, 356400, Note_on_c, 5, 72, 105
7, 356400, Note_on_c, 5, 78, 105
7, 356592, Note_on_c, 5, 78, 0
7, 356592, Note_on_c, 5, 72, 0
7, 356640, Note_on_c, 5, 72, 105
7, 356640, Note_on_c, 5, 78, 105
7, 356832, Note_on_c, 5, 78, 0
7, 356832, Note_on_c, 5, 72, 0
7, 356880, Note_on_c, 5, 78, 105
7, 356880, Note_on_c, 5, 72, 105
7, 357072, Note_on_c, 5, 72, 0
7, 357072, Note_on_c, 5, 78, 0
7, 357120, Note_on_c, 5, 70, 105
7, 357120, Note_on_c, 5, 79, 105
7, 357888, Note_on_c, 5, 79, 0
7, 357888, Note_on_c, 5, 70, 0
7, 358080, Note_on_c, 5, 79, 105
7, 358800, Note_on_c, 5, 79, 0
7, 358800, Note_on_c, 5, 75, 105
7, 358992, Note_on_c, 5, 75, 0
7, 359040, Note_on_c, 5, 74, 105
7, 359760, Note_on_c, 5, 74, 0
7, 359760, Note_on_c, 5, 77, 105
7, 359952, Note_on_c, 5, 77, 0
7, 360000, Note_on_c, 5, 75, 105
7, 360720, Note_on_c, 5, 75, 0
7, 360720, Note_on_c, 5, 72, 105
7, 360912, Note_on_c, 5, 72, 0
7, 360960, Note_on_c, 5, 74, 105
7, 361344, Note_on_c, 5, 74, 0
7, 361440, Note_on_c, 5, 86, 105
7, 361632, Note_on_c, 5, 86, 0
7, 361680, Note_on_c, 5, 84, 105
7, 361872, Note_on_c, 5, 84, 0
7, 361920, Note_on_c, 5, 82, 105
7, 362112, Note_on_c, 5, 82, 0
7, 362160, Note_on_c, 5, 81, 105
7, 362352, Note_on_c, 5, 81, 0
7, 362400, Note_on_c, 5, 79, 105
7, 362592, Note_on_c, 5, 79, 0
7, 362640, Note_on_c, 5, 77, 105
7, 362832, Note_on_c, 5, 77, 0
7, 362880, Note_on_c, 5, 75, 105
7, 363072, Note_on_c, 5, 75, 0
7, 363120, Note_on_c, 5, 74, 105
7, 363312, Note_on_c, 5, 74, 0
7, 363360, Note_on_c, 5, 72, 105
7, 363552, Note_on_c, 5, 72, 0
7, 363600, Note_on_c, 5, 70, 105
7, 363792, Note_on_c, 5, 70, 0
7, 363840, Note_on_c, 5, 69, 105
7, 364032, Note_on_c, 5, 69, 0
7, 364080, Note_on_c, 5, 67, 105
7, 364272, Note_on_c, 5, 67, 0
7, 364320, Note_on_c, 5, 65, 105
7, 364512, Note_on_c, 5, 65, 0
7, 364560, Note_on_c, 5, 63, 105
7, 364752, Note_on_c, 5, 63, 0
7, 364800, Note_on_c, 5, 62, 105
7, 365136, Note_on_c, 5, 62, 0
7, 365280, Note_on_c, 5, 70, 125
7, 365616, Note_on_c, 5, 70, 0
7, 365760, Note_on_c, 5, 70, 125
7, 366096, Note_on_c, 5, 70, 0
7, 366240, Note_on_c, 5, 60, 105
7, 366240, Note_on_c, 5, 63, 105
7, 366576, Note_on_c, 5, 63, 0
7, 366576, Note_on_c, 5, 60, 0
7, 366720, Note_on_c, 5, 58, 105
7, 366720, Note_on_c, 5, 62, 105
7, 367104, Note_on_c, 5, 62, 0
7, 367104, Note_on_c, 5, 58, 0
7, 367200, Note_on_c, 5, 74, 105
7, 367392, Note_on_c, 5, 74, 0
7, 367440, Note_on_c, 5, 72, 105
7, 367632, Note_on_c, 5, 72, 0
7, 367680, Note_on_c, 5, 70, 105
7, 367872, Note_on_c, 5, 70, 0
7, 367920, Note_on_c, 5, 69, 105
7, 368112, Note_on_c, 5, 69, 0
7, 368160, Note_on_c, 5, 67, 105
7, 368352, Note_on_c, 5, 67, 0
7, 368400, Note_on_c, 5, 65, 105
7, 368592, Note_on_c, 5, 65, 0
7, 368640, Note_on_c, 5, 63, 105
7, 368832, Note_on_c, 5, 63, 0
7, 368880, Note_on_c, 5, 62, 105
7, 369072, Note_on_c, 5, 62, 0
7, 369120, Note_on_c, 5, 60, 105
7, 369312, Note_on_c, 5, 60, 0
7, 369360, Note_on_c, 5, 58, 105
7, 369552, Note_on_c, 5, 58, 0
7, 369600, Note_on_c, 5, 57, 105
7, 369792, Note_on_c, 5, 57, 0
7, 369840, Note_on_c, 5, 60, 105
7, 370032, Note_on_c, 5, 60, 0
7, 370080, Note_on_c, 5, 65, 105
7, 370272, Note_on_c, 5, 65, 0
7, 370320, Note_on_c, 5, 63, 105
7, 370512, Note_on_c, 5, 63, 0
7, 370560, Note_on_c, 5, 62, 105
7, 370896, Note_on_c, 5, 62, 0
7, 371040, Note_on_c, 5, 70, 125
7, 371376, Note_on_c, 5, 70, 0
7, 371520, Note_on_c, 5, 70, 125
7, 371856, Note_on_c, 5, 70, 0
7, 372000, Note_on_c, 5, 75, 125
7, 372336, Note_on_c, 5, 75, 0
7, 372480, Note_on_c, 5, 74, 125
7, 372816, Note_on_c, 5, 74, 0
7, 372960, Note_on_c, 5, 75, 125
7, 373296, Note_on_c, 5, 75, 0
7, 373440, Note_on_c, 5, 74, 125
7, 373776, Note_on_c, 5, 74, 0
7, 373920, Note_on_c, 5, 63, 105
7, 373920, Note_on_c, 5, 60, 105
7, 374256, Note_on_c, 5, 60, 0
7, 374256, Note_on_c, 5, 63, 0
7, 374400, Note_on_c, 5, 58, 105
7, 374400, Note_on_c, 5, 62, 105
7, 374760, Note_on_c, 5, 62, 0
7, 374760, Note_on_c, 5, 58, 0
7, 374880, Note_on_c, 5, 74, 105
7, 374880, Note_on_c, 5, 65, 105
7, 375060, Note_on_c, 5, 65, 0
7, 375060, Note_on_c, 5, 74, 0
7, 375120, Note_on_c, 5, 65, 105
7, 375120, Note_on_c, 5, 74, 105
7, 375300, Note_on_c, 5, 74, 0
7, 375300, Note_on_c, 5, 65, 0
7, 375360, Note_on_c, 5, 65, 105
7, 375360, Note_on_c, 5, 75, 105
7, 375720, Note_on_c, 5, 75, 0
7, 375720, Note_on_c, 5, 65, 0
7, 375840, Note_on_c, 5, 65, 105
7, 375840, Note_on_c, 5, 75, 105
7, 376020, Note_on_c, 5, 75, 0
7, 376020, Note_on_c, 5, 65, 0
7, 376080, Note_on_c, 5, 65, 105
7, 376080, Note_on_c, 5, 75, 105
7, 376260, Note_on_c, 5, 75, 0
7, 376260, Note_on_c, 5, 65, 0
7, 376320, Note_on_c, 5, 74, 105
7, 376320, Note_on_c, 5, 65, 105
7, 376680, Note_on_c, 5, 65, 0
7, 376680, Note_on_c, 5, 74, 0
7, 376800, Note_on_c, 5, 65, 105
7, 376800, Note_on_c, 5, 74, 105
7, 376980, Note_on_c, 5, 74, 0
7, 376980, Note_on_c, 5, 65, 0
7, 377040, Note_on_c, 5, 65, 105
7, 377040, Note_on_c, 5, 74, 105
7, 377220, Note_on_c, 5, 74, 0
7, 377220, Note_on_c, 5, 65, 0
7, 377280, Note_on_c, 5, 75, 105
7, 377280, Note_on_c, 5, 65, 105
7, 377640, Note_on_c, 5, 65, 0
7, 377640, Note_on_c, 5, 75, 0
7, 377760, Note_on_c, 5, 65, 105
7, 377760, Note_on_c, 5, 75, 105
7, 377940, Note_on_c, 5, 75, 0
7, 377940, Note_on_c, 5, 65, 0
7, 378000, Note_on_c, 5, 75, 105
7, 378000, Note_on_c, 5, 65, 105
7, 378180, Note_on_c, 5, 65, 0
7, 378180, Note_on_c, 5, 75, 0
7, 378240, Note_on_c, 5, 65, 105
7, 378240, Note_on_c, 5, 74, 105
7, 378600, Note_on_c, 5, 74, 0
7, 378600, Note_on_c, 5, 65, 0
7, 378720, Note_on_c, 5, 74, 105
7, 378720, Note_on_c, 5, 65, 105
7, 378900, Note_on_c, 5, 65, 0
7, 378900, Note_on_c, 5, 74, 0
7, 378960, Note_on_c, 5, 74, 105
7, 378960, Note_on_c, 5, 65, 105
7, 379140, Note_on_c, 5, 65, 0
7, 379140, Note_on_c, 5, 74, 0
7, 379200, Note_on_c, 5, 75, 105
7, 379200, Note_on_c, 5, 65, 105
7, 379560, Note_on_c, 5, 65, 0
7, 379560, Note_on_c, 5, 75, 0
7, 379680, Note_on_c, 5, 65, 105
7, 379680, Note_on_c, 5, 75, 105
7, 379860, Note_on_c, 5, 75, 0
7, 379860, Note_on_c, 5, 65, 0
7, 379920, Note_on_c, 5, 75, 105
7, 379920, Note_on_c, 5, 65, 105
7, 380100, Note_on_c, 5, 65, 0
7, 380100, Note_on_c, 5, 75, 0
7, 380160, Note_on_c, 5, 65, 105
7, 380160, Note_on_c, 5, 74, 105
7, 380520, Note_on_c, 5, 74, 0
7, 380520, Note_on_c, 5, 65, 0
7, 380640, Note_on_c, 5, 65, 105
7, 380640, Note_on_c, 5, 75, 105
7, 381000, Note_on_c, 5, 75, 0
7, 381000, Note_on_c, 5, 65, 0
7, 381120, Note_on_c, 5, 65, 105
7, 381120, Note_on_c, 5, 74, 105
7, 381480, Note_on_c, 5, 74, 0
7, 381480, Note_on_c, 5, 65, 0
7, 381600, Note_on_c, 5, 75, 105
7, 381600, Note_on_c, 5, 65, 105
7, 381960, Note_on_c, 5, 65, 0
7, 381960, Note_on_c, 5, 75, 0
7, 382080, Note_on_c, 5, 74, 105
7, 382080, Note_on_c, 5, 65, 105
7, 382464, Note_on_c, 5, 65, 0
7, 382464, Note_on_c, 5, 74, 0
7, 384000, Note_on_c, 5, 78, 105
7, 384000, Note_on_c, 5, 72, 105
7, 384000, Note_on_c, 5, 62, 105
7, 384384, Note_on_c, 5, 62, 0
7, 384384, Note_on_c, 5, 72, 0
7, 384384, Note_on_c, 5, 78, 0
7, 385920, Note_on_c, 5, 62, 105
7, 385920, Note_on_c, 5, 79, 105
7, 385920, Note_on_c, 5, 70, 105
7, 386304, Note_on_c, 5, 70, 0
7, 386304, Note_on_c, 5, 79, 0
7, 386304, Note_on_c, 5, 62, 0
7, 386880, Note_on_c, 5, 71, 105
7, 386880, Note_on_c, 5, 62, 105
7, 386880, Note_on_c, 5, 80, 105
7, 387264, Note_on_c, 5, 80, 0
7, 387264, Note_on_c, 5, 62, 0
7, 387264, Note_on_c, 5, 71, 0
7, 391200, Note_on_c, 5, 62, 70
7, 391440, Note_on_c, 5, 62, 0
7, 391440, Note_on_c, 5, 61, 70
7, 391632, Note_on_c, 5, 61, 0
7, 391680, Note_on_c, 5, 61, 70
7, 392064, Note_on_c, 5, 61, 0
7, 392160, Note_on_c, 5, 62, 70
7, 392400, Note_on_c, 5, 62, 0
7, 392400, Note_on_c, 5, 61, 70
7, 392592, Note_on_c, 5, 61, 0
7, 392640, Note_on_c, 5, 61, 70
7, 393024, Note_on_c, 5, 61, 0
7, 393120, Note_on_c, 5, 62, 70
7, 393360, Note_on_c, 5, 62, 0
7, 393360, Note_on_c, 5, 61, 70
7, 393552, Note_on_c, 5, 61, 0
7, 393600, Note_on_c, 5, 61, 70
7, 394080, Note_on_c, 5, 61, 0
7, 394080, Note_on_c, 5, 69, 70
7, 394464, Note_on_c, 5, 69, 0
7, 395040, Note_on_c, 5, 69, 70
7, 395280, Note_on_c, 5, 69, 0
7, 395280, Note_on_c, 5, 68, 70
7, 395472, Note_on_c, 5, 68, 0
7, 395520, Note_on_c, 5, 66, 70
7, 395904, Note_on_c, 5, 66, 0
7, 396000, Note_on_c, 5, 66, 70
7, 396240, Note_on_c, 5, 66, 0
7, 396240, Note_on_c, 5, 64, 70
7, 396432, Note_on_c, 5, 64, 0
7, 396480, Note_on_c, 5, 62, 70
7, 396864, Note_on_c, 5, 62, 0
7, 396960, Note_on_c, 5, 62, 70
7, 397200, Note_on_c, 5, 62, 0
7, 397200, Note_on_c, 5, 61, 70
7, 397392, Note_on_c, 5, 61, 0
7, 397440, Note_on_c, 5, 60, 70
7, 397824, Note_on_c, 5, 60, 0
7, 397920, Note_on_c, 5, 60, 70
7, 398304, Note_on_c, 5, 60, 0
7, 398880, Note_on_c, 5, 61, 70
7, 399120, Note_on_c, 5, 61, 0
7, 399120, Note_on_c, 5, 59, 70
7, 399312, Note_on_c, 5, 59, 0
7, 399360, Note_on_c, 5, 59, 70
7, 399744, Note_on_c, 5, 59, 0
7, 399840, Note_on_c, 5, 61, 70
7, 400080, Note_on_c, 5, 61, 0
7, 400080, Note_on_c, 5, 59, 70
7, 400272, Note_on_c, 5, 59, 0
7, 400320, Note_on_c, 5, 59, 70
7, 400704, Note_on_c, 5, 59, 0
7, 400800, Note_on_c, 5, 61, 70
7, 401040, Note_on_c, 5, 61, 0
7, 401040, Note_on_c, 5, 59, 70
7, 401232, Note_on_c, 5, 59, 0
7, 401280, Note_on_c, 5, 59, 70
7, 401760, Note_on_c, 5, 59, 0
7, 401760, Note_on_c, 5, 68, 70
7, 402144, Note_on_c, 5, 68, 0
7, 402720, Note_on_c, 5, 68, 70
7, 402960, Note_on_c, 5, 68, 0
7, 402960, Note_on_c, 5, 66, 70
7, 403152, Note_on_c, 5, 66, 0
7, 403200, Note_on_c, 5, 65, 70
7, 403584, Note_on_c, 5, 65, 0
7, 403680, Note_on_c, 5, 65, 70
7, 403920, Note_on_c, 5, 65, 0
7, 403920, Note_on_c, 5, 62, 70
7, 404112, Note_on_c, 5, 62, 0
7, 404160, Note_on_c, 5, 61, 70
7, 404544, Note_on_c, 5, 61, 0
7, 404640, Note_on_c, 5, 61, 70
7, 404880, Note_on_c, 5, 61, 0
7, 404880, Note_on_c, 5, 59, 70
7, 405072, Note_on_c, 5, 59, 0
7, 405120, Note_on_c, 5, 58, 70
7, 405504, Note_on_c, 5, 58, 0
7, 405600, Note_on_c, 5, 58, 70
7, 405984, Note_on_c, 5, 58, 0
7, 406560, Note_on_c, 5, 59, 70
7, 406800, Note_on_c, 5, 59, 0
7, 406800, Note_on_c, 5, 57, 70
7, 406992, Note_on_c, 5, 57, 0
7, 407040, Note_on_c, 5, 57, 70
7, 407424, Note_on_c, 5, 57, 0
7, 407520, Note_on_c, 5, 59, 70
7, 407760, Note_on_c, 5, 59, 0
7, 407760, Note_on_c, 5, 57, 70
7, 407952, Note_on_c, 5, 57, 0
7, 408000, Note_on_c, 5, 57, 70
7, 408384, Note_on_c, 5, 57, 0
7, 408480, Note_on_c, 5, 59, 70
7, 408720, Note_on_c, 5, 59, 0
7, 408720, Note_on_c, 5, 57, 70
7, 408912, Note_on_c, 5, 57, 0
7, 408960, Note_on_c, 5, 57, 70
7, 409440, Note_on_c, 5, 57, 0
7, 409440, Note_on_c, 5, 66, 70
7, 409824, Note_on_c, 5, 66, 0
7, 410400, Note_on_c, 5, 66, 70
7, 410640, Note_on_c, 5, 66, 0
7, 410640, Note_on_c, 5, 64, 70
7, 410832, Note_on_c, 5, 64, 0
7, 410880, Note_on_c, 5, 63, 70
7, 411264, Note_on_c, 5, 63, 0
7, 411360, Note_on_c, 5, 63, 70
7, 411600, Note_on_c, 5, 63, 0
7, 411600, Note_on_c, 5, 60, 70
7, 411792, Note_on_c, 5, 60, 0
7, 411840, Note_on_c, 5, 59, 70
7, 412224, Note_on_c, 5, 59, 0
7, 412320, Note_on_c, 5, 78, 92
7, 412464, Note_on_c, 5, 78, 0
7, 412560, Note_on_c, 5, 69, 92
7, 412704, Note_on_c, 5, 69, 0
7, 412800, Note_on_c, 5, 67, 92
7, 412944, Note_on_c, 5, 67, 0
7, 413040, Note_on_c, 5, 71, 92
7, 413184, Note_on_c, 5, 71, 0
7, 413280, Note_on_c, 5, 76, 92
7, 413424, Note_on_c, 5, 76, 0
7, 413520, Note_on_c, 5, 69, 92
7, 413664, Note_on_c, 5, 69, 0
7, 413760, Note_on_c, 5, 66, 92
7, 413904, Note_on_c, 5, 66, 0
7, 414000, Note_on_c, 5, 69, 92
7, 414144, Note_on_c, 5, 69, 0
7, 414240, Note_on_c, 5, 75, 92
7, 414384, Note_on_c, 5, 75, 0
7, 414480, Note_on_c, 5, 66, 92
7, 414624, Note_on_c, 5, 66, 0
7, 414720, Note_on_c, 5, 67, 92
7, 414864, Note_on_c, 5, 67, 0
7, 414960, Note_on_c, 5, 71, 92
7, 415104, Note_on_c, 5, 71, 0
7, 415200, Note_on_c, 5, 73, 92
7, 415344, Note_on_c, 5, 73, 0
7, 415440, Note_on_c, 5, 75, 92
7, 415584, Note_on_c, 5, 75, 0
7, 415680, Note_on_c, 5, 76, 92
7, 415824, Note_on_c, 5, 76, 0
7, 415920, Note_on_c, 5, 71, 92
7, 416064, Note_on_c, 5, 71, 0
7, 416160, Note_on_c, 5, 76, 92
7, 416304, Note_on_c, 5, 76, 0
7, 416400, Note_on_c, 5, 78, 92
7, 416544, Note_on_c, 5, 78, 0
7, 416640, Note_on_c, 5, 79, 92
7, 416784, Note_on_c, 5, 79, 0
7, 416880, Note_on_c, 5, 76, 92
7, 417024, Note_on_c, 5, 76, 0
7, 417120, Note_on_c, 5, 78, 92
7, 417264, Note_on_c, 5, 78, 0
7, 417360, Note_on_c, 5, 80, 92
7, 417504, Note_on_c, 5, 80, 0
7, 417600, Note_on_c, 5, 81, 92
7, 417744, Note_on_c, 5, 81, 0
7, 417840, Note_on_c, 5, 76, 92
7, 417984, Note_on_c, 5, 76, 0
7, 418080, Note_on_c, 5, 81, 92
7, 418224, Note_on_c, 5, 81, 0
7, 418320, Note_on_c, 5, 83, 92
7, 418464, Note_on_c, 5, 83, 0
7, 418560, Note_on_c, 5, 84, 105
7, 418896, Note_on_c, 5, 84, 0
7, 419040, Note_on_c, 5, 69, 105
7, 419376, Note_on_c, 5, 69, 0
7, 420000, Note_on_c, 5, 70, 105
7, 420240, Note_on_c, 5, 70, 0
7, 420240, Note_on_c, 5, 69, 105
7, 420432, Note_on_c, 5, 69, 0
7, 420480, Note_on_c, 5, 69, 105
7, 420864, Note_on_c, 5, 69, 0
7, 420960, Note_on_c, 5, 70, 105
7, 421200, Note_on_c, 5, 70, 0
7, 421200, Note_on_c, 5, 69, 105
7, 421392, Note_on_c, 5, 69, 0
7, 421440, Note_on_c, 5, 69, 105
7, 421824, Note_on_c, 5, 69, 0
7, 421920, Note_on_c, 5, 70, 105
7, 422160, Note_on_c, 5, 70, 0
7, 422160, Note_on_c, 5, 69, 105
7, 422352, Note_on_c, 5, 69, 0
7, 422400, Note_on_c, 5, 69, 105
7, 422880, Note_on_c, 5, 69, 0
7, 422880, Note_on_c, 5, 77, 105
7, 423264, Note_on_c, 5, 77, 0
7, 423840, Note_on_c, 5, 77, 105
7, 424080, Note_on_c, 5, 77, 0
7, 424080, Note_on_c, 5, 76, 105
7, 424272, Note_on_c, 5, 76, 0
7, 424320, Note_on_c, 5, 74, 105
7, 424704, Note_on_c, 5, 74, 0
7, 424800, Note_on_c, 5, 74, 105
7, 425040, Note_on_c, 5, 74, 0
7, 425040, Note_on_c, 5, 72, 105
7, 425232, Note_on_c, 5, 72, 0
7, 425280, Note_on_c, 5, 70, 105
7, 425664, Note_on_c, 5, 70, 0
7, 425760, Note_on_c, 5, 70, 105
7, 426000, Note_on_c, 5, 70, 0
7, 426000, Note_on_c, 5, 69, 105
7, 426192, Note_on_c, 5, 69, 0
7, 426240, Note_on_c, 5, 67, 92
7, 426624, Note_on_c, 5, 67, 0
7, 426720, Note_on_c, 5, 70, 92
7, 426864, Note_on_c, 5, 70, 0
7, 426960, Note_on_c, 5, 72, 92
7, 427104, Note_on_c, 5, 72, 0
7, 427200, Note_on_c, 5, 74, 92
7, 427344, Note_on_c, 5, 74, 0
7, 427440, Note_on_c, 5, 71, 92
7, 427584, Note_on_c, 5, 71, 0
7, 427680, Note_on_c, 5, 74, 92
7, 427824, Note_on_c, 5, 74, 0
7, 427920, Note_on_c, 5, 65, 92
7, 428064, Note_on_c, 5, 65, 0
7, 428160, Note_on_c, 5, 64, 92
7, 428304, Note_on_c, 5, 64, 0
7, 428400, Note_on_c, 5, 67, 92
7, 428544, Note_on_c, 5, 67, 0
7, 428640, Note_on_c, 5, 72, 92
7, 428784, Note_on_c, 5, 72, 0
7, 428880, Note_on_c, 5, 64, 92
7, 429024, Note_on_c, 5, 64, 0
7, 429120, Note_on_c, 5, 62, 92
7, 429264, Note_on_c, 5, 62, 0
7, 429360, Note_on_c, 5, 65, 92
7, 429504, Note_on_c, 5, 65, 0
7, 429600, Note_on_c, 5, 71, 92
7, 429744, Note_on_c, 5, 71, 0
7, 429840, Note_on_c, 5, 62, 92
7, 429984, Note_on_c, 5, 62, 0
7, 430080, Note_on_c, 5, 64, 92
7, 430224, Note_on_c, 5, 64, 0
7, 430320, Note_on_c, 5, 67, 92
7, 430464, Note_on_c, 5, 67, 0
7, 430560, Note_on_c, 5, 69, 92
7, 430704, Note_on_c, 5, 69, 0
7, 430800, Note_on_c, 5, 71, 92
7, 430944, Note_on_c, 5, 71, 0
7, 431040, Note_on_c, 5, 72, 92
7, 431184, Note_on_c, 5, 72, 0
7, 431280, Note_on_c, 5, 67, 92
7, 431424, Note_on_c, 5, 67, 0
7, 431520, Note_on_c, 5, 72, 92
7, 431664, Note_on_c, 5, 72, 0
7, 431760, Note_on_c, 5, 74, 92
7, 431904, Note_on_c, 5, 74, 0
7, 432000, Note_on_c, 5, 76, 92
7, 432144, Note_on_c, 5, 76, 0
7, 432240, Note_on_c, 5, 72, 92
7, 432384, Note_on_c, 5, 72, 0
7, 432480, Note_on_c, 5, 74, 92
7, 432624, Note_on_c, 5, 74, 0
7, 432720, Note_on_c, 5, 76, 92
7, 432864, Note_on_c, 5, 76, 0
7, 432960, Note_on_c, 5, 77, 92
7, 433104, Note_on_c, 5, 77, 0
7, 433200, Note_on_c, 5, 72, 92
7, 433344, Note_on_c, 5, 72, 0
7, 433440, Note_on_c, 5, 77, 92
7, 433584, Note_on_c, 5, 77, 0
7, 433680, Note_on_c, 5, 79, 92
7, 433824, Note_on_c, 5, 79, 0
7, 433920, Note_on_c, 5, 81, 92
7, 434256, Note_on_c, 5, 81, 0
7, 434400, Note_on_c, 5, 65, 105
7, 434736, Note_on_c, 5, 65, 0
7, 435360, Note_on_c, 5, 67, 105
7, 435600, Note_on_c, 5, 67, 0
7, 435600, Note_on_c, 5, 65, 105
7, 435792, Note_on_c, 5, 65, 0
7, 435840, Note_on_c, 5, 65, 105
7, 436224, Note_on_c, 5, 65, 0
7, 436320, Note_on_c, 5, 67, 105
7, 436560, Note_on_c, 5, 67, 0
7, 436560, Note_on_c, 5, 65, 105
7, 436752, Note_on_c, 5, 65, 0
7, 436800, Note_on_c, 5, 65, 105
7, 437184, Note_on_c, 5, 65, 0
7, 437280, Note_on_c, 5, 67, 105
7, 437520, Note_on_c, 5, 67, 0
7, 437520, Note_on_c, 5, 65, 105
7, 437712, Note_on_c, 5, 65, 0
7, 437760, Note_on_c, 5, 65, 105
7, 438240, Note_on_c, 5, 65, 0
7, 438240, Note_on_c, 5, 74, 105
7, 438624, Note_on_c, 5, 74, 0
7, 439200, Note_on_c, 5, 74, 105
7, 439440, Note_on_c, 5, 74, 0
7, 439440, Note_on_c, 5, 72, 105
7, 439632, Note_on_c, 5, 72, 0
7, 439680, Note_on_c, 5, 70, 105
7, 440064, Note_on_c, 5, 70, 0
7, 440160, Note_on_c, 5, 70, 105
7, 440400, Note_on_c, 5, 70, 0
7, 440400, Note_on_c, 5, 69, 105
7, 440592, Note_on_c, 5, 69, 0
7, 440640, Note_on_c, 5, 67, 105
7, 441024, Note_on_c, 5, 67, 0
7, 441120, Note_on_c, 5, 67, 105
7, 441360, Note_on_c, 5, 67, 0
7, 441360, Note_on_c, 5, 65, 105
7, 441552, Note_on_c, 5, 65, 0
7, 441600, Note_on_c, 5, 63, 105
7, 442080, Note_on_c, 5, 63, 0
7, 442080, Note_on_c, 5, 72, 105
7, 442464, Note_on_c, 5, 72, 0
7, 443040, Note_on_c, 5, 72, 105
7, 443280, Note_on_c, 5, 72, 0
7, 443280, Note_on_c, 5, 70, 105
7, 443472, Note_on_c, 5, 70, 0
7, 443520, Note_on_c, 5, 69, 105
7, 443904, Note_on_c, 5, 69, 0
7, 444000, Note_on_c, 5, 69, 105
7, 444240, Note_on_c, 5, 69, 0
7, 444240, Note_on_c, 5, 67, 105
7, 444432, Note_on_c, 5, 67, 0
7, 444480, Note_on_c, 5, 66, 105
7, 444864, Note_on_c, 5, 66, 0
7, 444960, Note_on_c, 5, 66, 105
7, 445200, Note_on_c, 5, 66, 0
7, 445200, Note_on_c, 5, 64, 105
7, 445392, Note_on_c, 5, 64, 0
7, 445440, Note_on_c, 5, 62, 105
7, 445920, Note_on_c, 5, 62, 0
7, 445920, Note_on_c, 5, 70, 105
7, 446304, Note_on_c, 5, 70, 0
7, 446880, Note_on_c, 5, 70, 105
7, 447120, Note_on_c, 5, 70, 0
7, 447120, Note_on_c, 5, 69, 105
7, 447312, Note_on_c, 5, 69, 0
7, 447360, Note_on_c, 5, 67, 105
7, 447744, Note_on_c, 5, 67, 0
7, 447840, Note_on_c, 5, 67, 105
7, 448080, Note_on_c, 5, 67, 0
7, 448080, Note_on_c, 5, 65, 105
7, 448272, Note_on_c, 5, 65, 0
7, 448320, Note_on_c, 5, 64, 105
7, 448704, Note_on_c, 5, 64, 0
7, 448800, Note_on_c, 5, 64, 105
7, 449040, Note_on_c, 5, 64, 0
7, 449040, Note_on_c, 5, 62, 105
7, 449232, Note_on_c, 5, 62, 0
7, 449280, Note_on_c, 5, 64, 105
7, 449280, Note_on_c, 5, 61, 92
7, 449472, Note_on_c, 5, 61, 0
7, 449472, Note_on_c, 5, 64, 0
7, 449520, Note_on_c, 5, 61, 92
7, 449520, Note_on_c, 5, 64, 92
7, 449712, Note_on_c, 5, 64, 0
7, 449712, Note_on_c, 5, 61, 0
7, 449760, Note_on_c, 5, 64, 92
7, 449760, Note_on_c, 5, 61, 92
7, 449952, Note_on_c, 5, 61, 0
7, 449952, Note_on_c, 5, 64, 0
7, 450000, Note_on_c, 5, 61, 92
7, 450000, Note_on_c, 5, 64, 92
7, 450192, Note_on_c, 5, 64, 0
7, 450192, Note_on_c, 5, 61, 0
7, 450240, Note_on_c, 5, 65, 92
7, 450240, Note_on_c, 5, 62, 92
7, 450432, Note_on_c, 5, 62, 0
7, 450432, Note_on_c, 5, 65, 0
7, 450480, Note_on_c, 5, 65, 92
7, 450480, Note_on_c, 5, 62, 92
7, 450672, Note_on_c, 5, 62, 0
7, 450672, Note_on_c, 5, 65, 0
7, 450720, Note_on_c, 5, 62, 92
7, 450720, Note_on_c, 5, 65, 92
7, 450912, Note_on_c, 5, 65, 0
7, 450912, Note_on_c, 5, 62, 0
7, 450960, Note_on_c, 5, 65, 92
7, 450960, Note_on_c, 5, 62, 92
7, 451152, Note_on_c, 5, 62, 0
7, 451152, Note_on_c, 5, 65, 0
7, 451200, Note_on_c, 5, 64, 92
7, 451200, Note_on_c, 5, 61, 92
7, 451392, Note_on_c, 5, 61, 0
7, 451392, Note_on_c, 5, 64, 0
7, 451440, Note_on_c, 5, 64, 92
7, 451440, Note_on_c, 5, 61, 92
7, 451632, Note_on_c, 5, 61, 0
7, 451632, Note_on_c, 5, 64, 0
7, 451680, Note_on_c, 5, 64, 92
7, 451680, Note_on_c, 5, 61, 92
7, 451872, Note_on_c, 5, 61, 0
7, 451872, Note_on_c, 5, 64, 0
7, 451920, Note_on_c, 5, 61, 92
7, 451920, Note_on_c, 5, 64, 92
7, 452112, Note_on_c, 5, 64, 0
7, 452112, Note_on_c, 5, 61, 0
7, 452160, Note_on_c, 5, 65, 92
7, 452160, Note_on_c, 5, 62, 92
7, 452352, Note_on_c, 5, 62, 0
7, 452352, Note_on_c, 5, 65, 0
7, 452400, Note_on_c, 5, 65, 92
7, 452400, Note_on_c, 5, 62, 92
7, 452592, Note_on_c, 5, 62, 0
7, 452592, Note_on_c, 5, 65, 0
7, 452640, Note_on_c, 5, 62, 92
7, 452640, Note_on_c, 5, 65, 92
7, 452832, Note_on_c, 5, 65, 0
7, 452832, Note_on_c, 5, 62, 0
7, 452880, Note_on_c, 5, 65, 92
7, 452880, Note_on_c, 5, 62, 92
7, 453072, Note_on_c, 5, 62, 0
7, 453072, Note_on_c, 5, 65, 0
7, 453120, Note_on_c, 5, 64, 92
7, 453120, Note_on_c, 5, 61, 92
7, 453312, Note_on_c, 5, 61, 0
7, 453312, Note_on_c, 5, 64, 0
7, 453360, Note_on_c, 5, 64, 92
7, 453360, Note_on_c, 5, 61, 92
7, 453552, Note_on_c, 5, 61, 0
7, 453552, Note_on_c, 5, 64, 0
7, 453600, Note_on_c, 5, 61, 92
7, 453600, Note_on_c, 5, 64, 92
7, 453792, Note_on_c, 5, 64, 0
7, 453792, Note_on_c, 5, 61, 0
7, 453840, Note_on_c, 5, 64, 92
7, 453840, Note_on_c, 5, 61, 92
7, 454032, Note_on_c, 5, 61, 0
7, 454032, Note_on_c, 5, 64, 0
7, 454080, Note_on_c, 5, 65, 92
7, 454080, Note_on_c, 5, 62, 92
7, 454272, Note_on_c, 5, 62, 0
7, 454272, Note_on_c, 5, 65, 0
7, 454320, Note_on_c, 5, 65, 92
7, 454320, Note_on_c, 5, 62, 92
7, 454512, Note_on_c, 5, 62, 0
7, 454512, Note_on_c, 5, 65, 0
7, 454560, Note_on_c, 5, 65, 92
7, 454560, Note_on_c, 5, 62, 92
7, 454752, Note_on_c, 5, 62, 0
7, 454752, Note_on_c, 5, 65, 0
7, 454800, Note_on_c, 5, 65, 92
7, 454800, Note_on_c, 5, 62, 92
7, 454992, Note_on_c, 5, 62, 0
7, 454992, Note_on_c, 5, 65, 0
7, 455040, Note_on_c, 5, 64, 92
7, 455040, Note_on_c, 5, 61, 92
7, 455232, Note_on_c, 5, 61, 0
7, 455232, Note_on_c, 5, 64, 0
7, 455280, Note_on_c, 5, 64, 92
7, 455280, Note_on_c, 5, 61, 92
7, 455472, Note_on_c, 5, 61, 0
7, 455472, Note_on_c, 5, 64, 0
7, 455520, Note_on_c, 5, 64, 92
7, 455520, Note_on_c, 5, 61, 92
7, 455712, Note_on_c, 5, 61, 0
7, 455712, Note_on_c, 5, 64, 0
7, 455760, Note_on_c, 5, 61, 92
7, 455760, Note_on_c, 5, 64, 92
7, 455952, Note_on_c, 5, 64, 0
7, 455952, Note_on_c, 5, 61, 0
7, 456000, Note_on_c, 5, 65, 92
7, 456000, Note_on_c, 5, 62, 92
7, 456192, Note_on_c, 5, 62, 0
7, 456192, Note_on_c, 5, 65, 0
7, 456240, Note_on_c, 5, 65, 92
7, 456240, Note_on_c, 5, 62, 92
7, 456432, Note_on_c, 5, 62, 0
7, 456432, Note_on_c, 5, 65, 0
7, 456480, Note_on_c, 5, 62, 92
7, 456480, Note_on_c, 5, 65, 92
7, 456672, Note_on_c, 5, 65, 0
7, 456672, Note_on_c, 5, 62, 0
7, 456720, Note_on_c, 5, 65, 92
7, 456720, Note_on_c, 5, 62, 92
7, 456912, Note_on_c, 5, 62, 0
7, 456912, Note_on_c, 5, 65, 0
7, 456960, Note_on_c, 5, 61, 92
7, 456960, Note_on_c, 5, 64, 92
7, 457728, Note_on_c, 5, 64, 0
7, 457728, Note_on_c, 5, 61, 0
7, 473760, Note_on_c, 5, 75, 58
7, 474624, Note_on_c, 5, 75, 0
7, 474720, Note_on_c, 5, 75, 58
7, 475488, Note_on_c, 5, 75, 0
7, 475680, Note_on_c, 5, 75, 58
7, 476544, Note_on_c, 5, 75, 0
7, 477600, Note_on_c, 5, 72, 58
7, 478464, Note_on_c, 5, 72, 0
7, 478560, Note_on_c, 5, 72, 58
7, 479328, Note_on_c, 5, 72, 0
7, 479520, Note_on_c, 5, 72, 58
7, 480384, Note_on_c, 5, 72, 0
7, 481440, Note_on_c, 5, 69, 58
7, 482304, Note_on_c, 5, 69, 0
7, 482400, Note_on_c, 5, 69, 58
7, 483168, Note_on_c, 5, 69, 0
7, 483360, Note_on_c, 5, 69, 58
7, 484224, Note_on_c, 5, 69, 0
7, 485280, Note_on_c, 5, 79, 116
7, 485520, Note_on_c, 5, 79, 0
7, 485520, Note_on_c, 5, 78, 116
7, 485712, Note_on_c, 5, 78, 0
7, 485760, Note_on_c, 5, 78, 116
7, 486144, Note_on_c, 5, 78, 0
7, 487200, Note_on_c, 5, 78, 116
7, 487440, Note_on_c, 5, 78, 0
7, 487440, Note_on_c, 5, 79, 116
7, 487632, Note_on_c, 5, 79, 0
7, 487680, Note_on_c, 5, 79, 116
7, 488064, Note_on_c, 5, 79, 0
7, 489120, Note_on_c, 5, 79, 116
7, 489360, Note_on_c, 5, 79, 0
7, 489360, Note_on_c, 5, 81, 116
7, 489552, Note_on_c, 5, 81, 0
7, 489600, Note_on_c, 5, 82, 116
7, 489984, Note_on_c, 5, 82, 0
7, 491040, Note_on_c, 5, 82, 116
7, 491280, Note_on_c, 5, 82, 0
7, 491280, Note_on_c, 5, 81, 116
7, 491472, Note_on_c, 5, 81, 0
7, 491520, Note_on_c, 5, 81, 116
7, 491904, Note_on_c, 5, 81, 0
7, 492960, Note_on_c, 5, 77, 116
7, 493200, Note_on_c, 5, 77, 0
7, 493200, Note_on_c, 5, 78, 116
7, 493392, Note_on_c, 5, 78, 0
7, 493440, Note_on_c, 5, 78, 116
7, 493824, Note_on_c, 5, 78, 0
7, 494880, Note_on_c, 5, 78, 116
7, 495120, Note_on_c, 5, 78, 0
7, 495120, Note_on_c, 5, 79, 116
7, 495312, Note_on_c, 5, 79, 0
7, 495360, Note_on_c, 5, 79, 116
7, 495744, Note_on_c, 5, 79, 0
7, 496800, Note_on_c, 5, 74, 116
7, 497040, Note_on_c, 5, 74, 0
7, 497040, Note_on_c, 5, 75, 116
7, 497232, Note_on_c, 5, 75, 0
7, 497280, Note_on_c, 5, 75, 116
7, 497664, Note_on_c, 5, 75, 0
7, 497760, Note_on_c, 5, 72, 116
7, 498000, Note_on_c, 5, 72, 0
7, 498000, Note_on_c, 5, 70, 116
7, 498192, Note_on_c, 5, 70, 0
7, 498240, Note_on_c, 5, 70, 116
7, 498624, Note_on_c, 5, 70, 0
7, 498720, Note_on_c, 5, 67, 116
7, 498960, Note_on_c, 5, 67, 0
7, 498960, Note_on_c, 5, 66, 116
7, 499152, Note_on_c, 5, 66, 0
7, 499200, Note_on_c, 5, 66, 105
7, 499584, Note_on_c, 5, 66, 0
7, 508320, Note_on_c, 5, 63, 70
7, 508560, Note_on_c, 5, 63, 0
7, 508560, Note_on_c, 5, 62, 70
7, 508752, Note_on_c, 5, 62, 0
7, 508800, Note_on_c, 5, 62, 70
7, 509184, Note_on_c, 5, 62, 0
7, 509280, Note_on_c, 5, 63, 70
7, 509520, Note_on_c, 5, 63, 0
7, 509520, Note_on_c, 5, 62, 70
7, 509712, Note_on_c, 5, 62, 0
7, 509760, Note_on_c, 5, 62, 70
7, 510144, Note_on_c, 5, 62, 0
7, 510240, Note_on_c, 5, 63, 70
7, 510480, Note_on_c, 5, 63, 0
7, 510480, Note_on_c, 5, 62, 70
7, 510672, Note_on_c, 5, 62, 0
7, 510720, Note_on_c, 5, 62, 70
7, 511200, Note_on_c, 5, 62, 0
7, 511200, Note_on_c, 5, 70, 70
7, 511584, Note_on_c, 5, 70, 0
7, 512160, Note_on_c, 5, 70, 70
7, 512400, Note_on_c, 5, 70, 0
7, 512400, Note_on_c, 5, 69, 70
7, 512592, Note_on_c, 5, 69, 0
7, 512640, Note_on_c, 5, 67, 70
7, 513024, Note_on_c, 5, 67, 0
7, 513120, Note_on_c, 5, 67, 70
7, 513360, Note_on_c, 5, 67, 0
7, 513360, Note_on_c, 5, 65, 70
7, 513552, Note_on_c, 5, 65, 0
7, 513600, Note_on_c, 5, 63, 70
7, 513984, Note_on_c, 5, 63, 0
7, 514080, Note_on_c, 5, 63, 70
7, 514320, Note_on_c, 5, 63, 0
7, 514320, Note_on_c, 5, 62, 70
7, 514512, Note_on_c, 5, 62, 0
7, 514560, Note_on_c, 5, 60, 70
7, 514944, Note_on_c, 5, 60, 0
7, 515040, Note_on_c, 5, 60, 70
7, 515424, Note_on_c, 5, 60, 0
7, 516000, Note_on_c, 5, 62, 70
7, 516240, Note_on_c, 5, 62, 0
7, 516240, Note_on_c, 5, 60, 70
7, 516432, Note_on_c, 5, 60, 0
7, 516480, Note_on_c, 5, 60, 70
7, 516864, Note_on_c, 5, 60, 0
7, 516960, Note_on_c, 5, 62, 70
7, 517200, Note_on_c, 5, 62, 0
7, 517200, Note_on_c, 5, 60, 70
7, 517392, Note_on_c, 5, 60, 0
7, 517440, Note_on_c, 5, 60, 70
7, 517824, Note_on_c, 5, 60, 0
7, 517920, Note_on_c, 5, 62, 70
7, 518160, Note_on_c, 5, 62, 0
7, 518160, Note_on_c, 5, 60, 70
7, 518352, Note_on_c, 5, 60, 0
7, 518400, Note_on_c, 5, 60, 70
7, 518880, Note_on_c, 5, 60, 0
7, 518880, Note_on_c, 5, 69, 70
7, 519264, Note_on_c, 5, 69, 0
7, 519840, Note_on_c, 5, 69, 70
7, 520080, Note_on_c, 5, 69, 0
7, 520080, Note_on_c, 5, 67, 70
7, 520272, Note_on_c, 5, 67, 0
7, 520320, Note_on_c, 5, 66, 70
7, 520704, Note_on_c, 5, 66, 0
7, 520800, Note_on_c, 5, 66, 70
7, 521040, Note_on_c, 5, 66, 0
7, 521040, Note_on_c, 5, 63, 70
7, 521232, Note_on_c, 5, 63, 0
7, 521280, Note_on_c, 5, 62, 70
7, 521664, Note_on_c, 5, 62, 0
7, 521760, Note_on_c, 5, 62, 70
7, 522000, Note_on_c, 5, 62, 0
7, 522000, Note_on_c, 5, 60, 70
7, 522192, Note_on_c, 5, 60, 0
7, 522240, Note_on_c, 5, 58, 70
7, 522624, Note_on_c, 5, 58, 0
7, 522720, Note_on_c, 5, 58, 70
7, 523104, Note_on_c, 5, 58, 0
7, 523680, Note_on_c, 5, 70, 70
7, 523920, Note_on_c, 5, 70, 0
7, 523920, Note_on_c, 5, 69, 70
7, 524112, Note_on_c, 5, 69, 0
7, 524160, Note_on_c, 5, 69, 70
7, 524640, Note_on_c, 5, 69, 0
7, 524640, Note_on_c, 5, 72, 70
7, 525120, Note_on_c, 5, 72, 0
7, 525120, Note_on_c, 5, 66, 70
7, 525600, Note_on_c, 5, 66, 0
7, 525600, Note_on_c, 5, 69, 70
7, 525984, Note_on_c, 5, 69, 0
7, 526080, Note_on_c, 5, 67, 70
7, 526560, Note_on_c, 5, 67, 0
7, 526560, Note_on_c, 5, 62, 70
7, 526944, Note_on_c, 5, 62, 0
7, 527520, Note_on_c, 5, 70, 70
7, 527760, Note_on_c, 5, 70, 0
7, 527760, Note_on_c, 5, 69, 70
7, 527952, Note_on_c, 5, 69, 0
7, 528000, Note_on_c, 5, 69, 70
7, 528480, Note_on_c, 5, 69, 0
7, 528480, Note_on_c, 5, 72, 70
7, 528960, Note_on_c, 5, 72, 0
7, 528960, Note_on_c, 5, 66, 70
7, 529440, Note_on_c, 5, 66, 0
7, 529440, Note_on_c, 5, 69, 70
7, 529824, Note_on_c, 5, 69, 0
7, 529920, Note_on_c, 5, 67, 70
7, 530400, Note_on_c, 5, 67, 0
7, 530400, Note_on_c, 5, 70, 70
7, 530784, Note_on_c, 5, 70, 0
7, 530880, Note_on_c, 5, 69, 70
7, 531120, Note_on_c, 5, 69, 0
7, 531120, Note_on_c, 5, 67, 70
7, 531360, Note_on_c, 5, 67, 0
7, 531360, Note_on_c, 5, 65, 70
7, 531600, Note_on_c, 5, 65, 0
7, 531600, Note_on_c, 5, 63, 70
7, 531828, Note_on_c, 5, 63, 0
7, 531840, Note_on_c, 5, 62, 58
7, 533760, Note_on_c, 5, 62, 0
7, 533760, Note_on_c, 5, 61, 58
7, 535584, Note_on_c, 5, 61, 0
7, 535680, Note_on_c, 5, 62, 58
7, 536448, Note_on_c, 5, 62, 0
7, 537120, Note_on_c, 5, 62, 105
7, 537312, Note_on_c, 5, 62, 0
7, 537360, Note_on_c, 5, 62, 105
7, 537552, Note_on_c, 5, 62, 0
7, 537600, Note_on_c, 5, 62, 105
7, 538368, Note_on_c, 5, 62, 0
7, 539040, Note_on_c, 5, 62, 105
7, 539232, Note_on_c, 5, 62, 0
7, 539280, Note_on_c, 5, 62, 105
7, 539472, Note_on_c, 5, 62, 0
7, 539520, Note_on_c, 5, 62, 105
7, 540288, Note_on_c, 5, 62, 0
7, 540960, Note_on_c, 5, 62, 105
7, 541128, Note_on_c, 5, 62, 0
7, 541200, Note_on_c, 5, 62, 105
7, 541368, Note_on_c, 5, 62, 0
7, 541440, Note_on_c, 5, 62, 105
7, 541776, Note_on_c, 5, 62, 0
7, 541920, Note_on_c, 5, 62, 105
7, 542088, Note_on_c, 5, 62, 0
7, 542160, Note_on_c, 5, 62, 105
7, 542328, Note_on_c, 5, 62, 0
7, 542400, Note_on_c, 5, 62, 105
7, 542736, Note_on_c, 5, 62, 0
7, 542880, Note_on_c, 5, 62, 105
7, 543048, Note_on_c, 5, 62, 0
7, 543120, Note_on_c, 5, 62, 105
7, 543288, Note_on_c, 5, 62, 0
7, 543360, Note_on_c, 5, 62, 105
7, 544128, Note_on_c, 5, 62, 0
7, 544800, Note_on_c, 5, 63, 70
7, 545040, Note_on_c, 5, 63, 0
7, 545040, Note_on_c, 5, 62, 70
7, 545232, Note_on_c, 5, 62, 0
7, 545280, Note_on_c, 5, 62, 70
7, 545664, Note_on_c, 5, 62, 0
7, 545760, Note_on_c, 5, 63, 70
7, 546000, Note_on_c, 5, 63, 0
7, 546000, Note_on_c, 5, 62, 70
7, 546192, Note_on_c, 5, 62, 0
7, 546240, Note_on_c, 5, 62, 70
7, 546624, Note_on_c, 5, 62, 0
7, 546720, Note_on_c, 5, 63, 70
7, 546960, Note_on_c, 5, 63, 0
7, 546960, Note_on_c, 5, 62, 70
7, 547152, Note_on_c, 5, 62, 0
7, 547200, Note_on_c, 5, 62, 70
7, 547680, Note_on_c, 5, 62, 0
7, 547680, Note_on_c, 5, 70, 70
7, 548064, Note_on_c, 5, 70, 0
7, 548640, Note_on_c, 5, 70, 70
7, 548880, Note_on_c, 5, 70, 0
7, 548880, Note_on_c, 5, 68, 70
7, 549072, Note_on_c, 5, 68, 0
7, 549120, Note_on_c, 5, 67, 70
7, 549504, Note_on_c, 5, 67, 0
7, 549600, Note_on_c, 5, 67, 70
7, 549840, Note_on_c, 5, 67, 0
7, 549840, Note_on_c, 5, 65, 70
7, 550032, Note_on_c, 5, 65, 0
7, 550080, Note_on_c, 5, 63, 70
7, 550464, Note_on_c, 5, 63, 0
7, 550560, Note_on_c, 5, 65, 70
7, 550800, Note_on_c, 5, 65, 0
7, 550800, Note_on_c, 5, 63, 70
7, 550992, Note_on_c, 5, 63, 0
7, 551040, Note_on_c, 5, 62, 70
7, 551424, Note_on_c, 5, 62, 0
7, 551520, Note_on_c, 5, 62, 70
7, 551904, Note_on_c, 5, 62, 0
7, 552480, Note_on_c, 5, 70, 70
7, 552720, Note_on_c, 5, 70, 0
7, 552720, Note_on_c, 5, 68, 70
7, 552912, Note_on_c, 5, 68, 0
7, 552960, Note_on_c, 5, 68, 70
7, 553344, Note_on_c, 5, 68, 0
7, 553440, Note_on_c, 5, 70, 70
7, 553680, Note_on_c, 5, 70, 0
7, 553680, Note_on_c, 5, 68, 70
7, 553872, Note_on_c, 5, 68, 0
7, 553920, Note_on_c, 5, 68, 70
7, 554304, Note_on_c, 5, 68, 0
7, 554400, Note_on_c, 5, 70, 70
7, 554640, Note_on_c, 5, 70, 0
7, 554640, Note_on_c, 5, 68, 70
7, 554832, Note_on_c, 5, 68, 0
7, 554880, Note_on_c, 5, 68, 70
7, 555360, Note_on_c, 5, 68, 0
7, 555360, Note_on_c, 5, 58, 70
7, 555744, Note_on_c, 5, 58, 0
7, 556320, Note_on_c, 5, 65, 70
7, 556560, Note_on_c, 5, 65, 0
7, 556560, Note_on_c, 5, 63, 70
7, 556752, Note_on_c, 5, 63, 0
7, 556800, Note_on_c, 5, 62, 70
7, 557184, Note_on_c, 5, 62, 0
7, 557280, Note_on_c, 5, 62, 70
7, 557520, Note_on_c, 5, 62, 0
7, 557520, Note_on_c, 5, 60, 70
7, 557712, Note_on_c, 5, 60, 0
7, 557760, Note_on_c, 5, 58, 70
7, 558144, Note_on_c, 5, 58, 0
7, 558240, Note_on_c, 5, 58, 70
7, 558480, Note_on_c, 5, 58, 0
7, 558480, Note_on_c, 5, 56, 70
7, 558672, Note_on_c, 5, 56, 0
7, 558720, Note_on_c, 5, 63, 105
7, 558720, Note_on_c, 5, 55, 105
7, 560256, Note_on_c, 5, 55, 0
7, 560256, Note_on_c, 5, 63, 0
7, 560640, Note_on_c, 5, 70, 105
7, 560640, Note_on_c, 5, 62, 105
7, 561792, Note_on_c, 5, 62, 0
7, 561792, Note_on_c, 5, 70, 0
7, 562320, Note_on_c, 5, 70, 105
7, 562452, Note_on_c, 5, 70, 0
7, 562560, Note_on_c, 5, 68, 105
7, 562824, Note_on_c, 5, 68, 0
7, 563040, Note_on_c, 5, 72, 105
7, 563304, Note_on_c, 5, 72, 0
7, 563520, Note_on_c, 5, 75, 105
7, 563784, Note_on_c, 5, 75, 0
7, 564480, Note_on_c, 5, 67, 105
7, 564744, Note_on_c, 5, 67, 0
7, 564960, Note_on_c, 5, 70, 105
7, 565224, Note_on_c, 5, 70, 0
7, 565440, Note_on_c, 5, 75, 105
7, 565704, Note_on_c, 5, 75, 0
7, 566160, Note_on_c, 5, 67, 105
7, 566292, Note_on_c, 5, 67, 0
7, 566400, Note_on_c, 5, 65, 105
7, 566664, Note_on_c, 5, 65, 0
7, 566880, Note_on_c, 5, 68, 105
7, 567144, Note_on_c, 5, 68, 0
7, 567360, Note_on_c, 5, 72, 105
7, 567624, Note_on_c, 5, 72, 0
7, 567840, Note_on_c, 5, 65, 105
7, 568104, Note_on_c, 5, 65, 0
7, 568320, Note_on_c, 5, 64, 105
7, 568584, Note_on_c, 5, 64, 0
7, 568800, Note_on_c, 5, 67, 105
7, 569064, Note_on_c, 5, 67, 0
7, 569280, Note_on_c, 5, 70, 105
7, 569544, Note_on_c, 5, 70, 0
7, 569760, Note_on_c, 5, 61, 105
7, 570024, Note_on_c, 5, 61, 0
7, 570240, Note_on_c, 5, 60, 105
7, 570504, Note_on_c, 5, 60, 0
7, 570720, Note_on_c, 5, 64, 105
7, 570984, Note_on_c, 5, 64, 0
7, 571200, Note_on_c, 5, 67, 105
7, 571464, Note_on_c, 5, 67, 0
7, 571680, Note_on_c, 5, 60, 105
7, 571944, Note_on_c, 5, 60, 0
7, 572160, Note_on_c, 5, 68, 92
7, 572352, Note_on_c, 5, 68, 0
7, 572400, Note_on_c, 5, 65, 92
7, 572592, Note_on_c, 5, 65, 0
7, 572640, Note_on_c, 5, 72, 92
7, 572832, Note_on_c, 5, 72, 0
7, 572880, Note_on_c, 5, 68, 92
7, 573072, Note_on_c, 5, 68, 0
7, 573120, Note_on_c, 5, 77, 92
7, 573312, Note_on_c, 5, 77, 0
7, 573360, Note_on_c, 5, 72, 92
7, 573552, Note_on_c, 5, 72, 0
7, 573600, Note_on_c, 5, 80, 92
7, 573792, Note_on_c, 5, 80, 0
7, 573840, Note_on_c, 5, 77, 92
7, 574032, Note_on_c, 5, 77, 0
7, 574080, Note_on_c, 5, 76, 92
7, 574272, Note_on_c, 5, 76, 0
7, 574320, Note_on_c, 5, 79, 92
7, 574512, Note_on_c, 5, 79, 0
7, 574560, Note_on_c, 5, 84, 92
7, 574752, Note_on_c, 5, 84, 0
7, 574800, Note_on_c, 5, 82, 92
7, 574992, Note_on_c, 5, 82, 0
7, 575040, Note_on_c, 5, 80, 92
7, 575232, Note_on_c, 5, 80, 0
7, 575280, Note_on_c, 5, 79, 92
7, 575472, Note_on_c, 5, 79, 0
7, 575520, Note_on_c, 5, 77, 92
7, 575712, Note_on_c, 5, 77, 0
7, 575760, Note_on_c, 5, 75, 92
7, 575952, Note_on_c, 5, 75, 0
7, 576000, Note_on_c, 5, 73, 92
7, 576192, Note_on_c, 5, 73, 0
7, 576240, Note_on_c, 5, 77, 92
7, 576432, Note_on_c, 5, 77, 0
7, 576480, Note_on_c, 5, 82, 92
7, 576672, Note_on_c, 5, 82, 0
7, 576720, Note_on_c, 5, 80, 92
7, 576912, Note_on_c, 5, 80, 0
7, 576960, Note_on_c, 5, 79, 92
7, 577152, Note_on_c, 5, 79, 0
7, 577200, Note_on_c, 5, 77, 92
7, 577392, Note_on_c, 5, 77, 0
7, 577440, Note_on_c, 5, 75, 92
7, 577632, Note_on_c, 5, 75, 0
7, 577680, Note_on_c, 5, 73, 92
7, 577872, Note_on_c, 5, 73, 0
7, 577920, Note_on_c, 5, 72, 92
7, 578112, Note_on_c, 5, 72, 0
7, 578160, Note_on_c, 5, 75, 92
7, 578352, Note_on_c, 5, 75, 0
7, 578400, Note_on_c, 5, 80, 92
7, 578592, Note_on_c, 5, 80, 0
7, 578640, Note_on_c, 5, 79, 92
7, 578832, Note_on_c, 5, 79, 0
7, 578880, Note_on_c, 5, 77, 92
7, 579072, Note_on_c, 5, 77, 0
7, 579120, Note_on_c, 5, 75, 92
7, 579312, Note_on_c, 5, 75, 0
7, 579360, Note_on_c, 5, 73, 92
7, 579552, Note_on_c, 5, 73, 0
7, 579600, Note_on_c, 5, 72, 92
7, 579792, Note_on_c, 5, 72, 0
7, 579840, Note_on_c, 5, 70, 92
7, 580032, Note_on_c, 5, 70, 0
7, 580080, Note_on_c, 5, 73, 92
7, 580272, Note_on_c, 5, 73, 0
7, 580320, Note_on_c, 5, 79, 92
7, 580512, Note_on_c, 5, 79, 0
7, 580560, Note_on_c, 5, 77, 92
7, 580752, Note_on_c, 5, 77, 0
7, 580800, Note_on_c, 5, 76, 92
7, 580992, Note_on_c, 5, 76, 0
7, 581040, Note_on_c, 5, 73, 92
7, 581232, Note_on_c, 5, 73, 0
7, 581280, Note_on_c, 5, 72, 92
7, 581472, Note_on_c, 5, 72, 0
7, 581520, Note_on_c, 5, 70, 92
7, 581712, Note_on_c, 5, 70, 0
7, 581760, Note_on_c, 5, 68, 105
7, 581952, Note_on_c, 5, 68, 0
7, 582000, Note_on_c, 5, 65, 105
7, 582192, Note_on_c, 5, 65, 0
7, 582240, Note_on_c, 5, 72, 105
7, 582432, Note_on_c, 5, 72, 0
7, 582480, Note_on_c, 5, 70, 105
7, 582672, Note_on_c, 5, 70, 0
7, 582720, Note_on_c, 5, 68, 105
7, 582912, Note_on_c, 5, 68, 0
7, 582960, Note_on_c, 5, 67, 105
7, 583152, Note_on_c, 5, 67, 0
7, 583200, Note_on_c, 5, 65, 105
7, 583392, Note_on_c, 5, 65, 0
7, 583440, Note_on_c, 5, 63, 105
7, 583632, Note_on_c, 5, 63, 0
7, 583680, Note_on_c, 5, 62, 105
7, 583872, Note_on_c, 5, 62, 0
7, 583920, Note_on_c, 5, 70, 105
7, 584112, Note_on_c, 5, 70, 0
7, 584160, Note_on_c, 5, 77, 105
7, 584352, Note_on_c, 5, 77, 0
7, 584400, Note_on_c, 5, 75, 105
7, 584592, Note_on_c, 5, 75, 0
7, 584640, Note_on_c, 5, 74, 105
7, 584832, Note_on_c, 5, 74, 0
7, 584880, Note_on_c, 5, 72, 105
7, 585072, Note_on_c, 5, 72, 0
7, 585120, Note_on_c, 5, 70, 105
7, 585312, Note_on_c, 5, 70, 0
7, 585360, Note_on_c, 5, 68, 105
7, 585552, Note_on_c, 5, 68, 0
7, 585600, Note_on_c, 5, 67, 105
7, 585792, Note_on_c, 5, 67, 0
7, 585840, Note_on_c, 5, 63, 105
7, 586032, Note_on_c, 5, 63, 0
7, 586080, Note_on_c, 5, 70, 105
7, 586272, Note_on_c, 5, 70, 0
7, 586320, Note_on_c, 5, 68, 105
7, 586512, Note_on_c, 5, 68, 0
7, 586560, Note_on_c, 5, 67, 105
7, 586752, Note_on_c, 5, 67, 0
7, 586800, Note_on_c, 5, 65, 105
7, 586992, Note_on_c, 5, 65, 0
7, 587040, Note_on_c, 5, 63, 105
7, 587232, Note_on_c, 5, 63, 0
7, 587280, Note_on_c, 5, 62, 105
7, 587472, Note_on_c, 5, 62, 0
7, 587520, Note_on_c, 5, 60, 105
7, 587712, Note_on_c, 5, 60, 0
7, 587760, Note_on_c, 5, 68, 105
7, 587952, Note_on_c, 5, 68, 0
7, 588000, Note_on_c, 5, 75, 105
7, 588192, Note_on_c, 5, 75, 0
7, 588240, Note_on_c, 5, 74, 105
7, 588432, Note_on_c, 5, 74, 0
7, 588480, Note_on_c, 5, 72, 105
7, 588672, Note_on_c, 5, 72, 0
7, 588720, Note_on_c, 5, 70, 105
7, 588912, Note_on_c, 5, 70, 0
7, 588960, Note_on_c, 5, 68, 105
7, 589152, Note_on_c, 5, 68, 0
7, 589200, Note_on_c, 5, 67, 105
7, 589392, Note_on_c, 5, 67, 0
7, 589440, Note_on_c, 5, 65, 105
7, 589632, Note_on_c, 5, 65, 0
7, 589680, Note_on_c, 5, 69, 105
7, 589872, Note_on_c, 5, 69, 0
7, 589920, Note_on_c, 5, 74, 105
7, 590112, Note_on_c, 5, 74, 0
7, 590160, Note_on_c, 5, 75, 105
7, 590352, Note_on_c, 5, 75, 0
7, 590400, Note_on_c, 5, 77, 105
7, 590592, Note_on_c, 5, 77, 0
7, 590640, Note_on_c, 5, 75, 105
7, 590832, Note_on_c, 5, 75, 0
7, 590880, Note_on_c, 5, 74, 105
7, 591072, Note_on_c, 5, 74, 0
7, 591120, Note_on_c, 5, 72, 105
7, 591312, Note_on_c, 5, 72, 0
7, 591360, Note_on_c, 5, 71, 105
7, 591552, Note_on_c, 5, 71, 0
7, 591600, Note_on_c, 5, 67, 105
7, 591792, Note_on_c, 5, 67, 0
7, 591840, Note_on_c, 5, 74, 105
7, 592032, Note_on_c, 5, 74, 0
7, 592080, Note_on_c, 5, 72, 105
7, 592272, Note_on_c, 5, 72, 0
7, 592320, Note_on_c, 5, 71, 105
7, 592512, Note_on_c, 5, 71, 0
7, 592560, Note_on_c, 5, 69, 105
7, 592752, Note_on_c, 5, 69, 0
7, 592800, Note_on_c, 5, 67, 105
7, 592992, Note_on_c, 5, 67, 0
7, 593040, Note_on_c, 5, 65, 105
7, 593232, Note_on_c, 5, 65, 0
7, 593280, Note_on_c, 5, 63, 105
7, 593472, Note_on_c, 5, 63, 0
7, 593520, Note_on_c, 5, 60, 105
7, 593712, Note_on_c, 5, 60, 0
7, 593760, Note_on_c, 5, 67, 105
7, 593952, Note_on_c, 5, 67, 0
7, 594000, Note_on_c, 5, 63, 105
7, 594192, Note_on_c, 5, 63, 0
7, 594240, Note_on_c, 5, 72, 105
7, 594432, Note_on_c, 5, 72, 0
7, 594480, Note_on_c, 5, 70, 105
7, 594672, Note_on_c, 5, 70, 0
7, 594720, Note_on_c, 5, 69, 105
7, 594912, Note_on_c, 5, 69, 0
7, 594960, Note_on_c, 5, 67, 105
7, 595152, Note_on_c, 5, 67, 0
7, 595200, Note_on_c, 5, 66, 105
7, 595392, Note_on_c, 5, 66, 0
7, 595440, Note_on_c, 5, 67, 105
7, 595632, Note_on_c, 5, 67, 0
7, 595680, Note_on_c, 5, 69, 105
7, 595872, Note_on_c, 5, 69, 0
7, 595920, Note_on_c, 5, 67, 105
7, 596112, Note_on_c, 5, 67, 0
7, 596160, Note_on_c, 5, 66, 105
7, 596352, Note_on_c, 5, 66, 0
7, 596400, Note_on_c, 5, 63, 105
7, 596592, Note_on_c, 5, 63, 0
7, 596640, Note_on_c, 5, 62, 105
7, 596832, Note_on_c, 5, 62, 0
7, 596880, Note_on_c, 5, 60, 105
7, 597072, Note_on_c, 5, 60, 0
7, 597120, Note_on_c, 5, 55, 105
7, 597120, Note_on_c, 5, 67, 105
7, 598656, Note_on_c, 5, 67, 0
7, 598656, Note_on_c, 5, 55, 0
7, 599040, Note_on_c, 5, 62, 105
7, 599040, Note_on_c, 5, 74, 105
7, 600192, Note_on_c, 5, 74, 0
7, 600192, Note_on_c, 5, 62, 0
7, 600720, Note_on_c, 5, 74, 105
7, 600852, Note_on_c, 5, 74, 0
7, 600960, Note_on_c, 5, 72, 105
7, 601224, Note_on_c, 5, 72, 0
7, 601440, Note_on_c, 5, 75, 105
7, 601704, Note_on_c, 5, 75, 0
7, 601920, Note_on_c, 5, 79, 105
7, 602184, Note_on_c, 5, 79, 0
7, 602880, Note_on_c, 5, 70, 105
7, 603144, Note_on_c, 5, 70, 0
7, 603360, Note_on_c, 5, 74, 105
7, 603624, Note_on_c, 5, 74, 0
7, 603840, Note_on_c, 5, 79, 105
7, 604104, Note_on_c, 5, 79, 0
7, 604560, Note_on_c, 5, 82, 105
7, 604692, Note_on_c, 5, 82, 0
7, 604800, Note_on_c, 5, 81, 105
7, 605064, Note_on_c, 5, 81, 0
7, 605280, Note_on_c, 5, 84, 105
7, 605544, Note_on_c, 5, 84, 0
7, 605760, Note_on_c, 5, 87, 105
7, 606024, Note_on_c, 5, 87, 0
7, 606480, Note_on_c, 5, 78, 105
7, 606612, Note_on_c, 5, 78, 0
7, 606720, Note_on_c, 5, 79, 105
7, 606984, Note_on_c, 5, 79, 0
7, 607200, Note_on_c, 5, 82, 105
7, 607464, Note_on_c, 5, 82, 0
7, 607680, Note_on_c, 5, 86, 105
7, 607944, Note_on_c, 5, 86, 0
7, 608400, Note_on_c, 5, 62, 105
7, 608532, Note_on_c, 5, 62, 0
7, 608640, Note_on_c, 5, 61, 125
7, 608832, Note_on_c, 5, 61, 0
7, 608880, Note_on_c, 5, 62, 105
7, 609072, Note_on_c, 5, 62, 0
7, 609120, Note_on_c, 5, 64, 105
7, 609312, Note_on_c, 5, 64, 0
7, 609360, Note_on_c, 5, 65, 105
7, 609552, Note_on_c, 5, 65, 0
7, 609600, Note_on_c, 5, 67, 105
7, 609792, Note_on_c, 5, 67, 0
7, 609840, Note_on_c, 5, 69, 105
7, 610032, Note_on_c, 5, 69, 0
7, 610080, Note_on_c, 5, 70, 105
7, 610272, Note_on_c, 5, 70, 0
7, 610320, Note_on_c, 5, 62, 105
7, 610512, Note_on_c, 5, 62, 0
7, 610560, Note_on_c, 5, 61, 125
7, 610752, Note_on_c, 5, 61, 0
7, 610800, Note_on_c, 5, 62, 105
7, 610992, Note_on_c, 5, 62, 0
7, 611040, Note_on_c, 5, 64, 105
7, 611232, Note_on_c, 5, 64, 0
7, 611280, Note_on_c, 5, 65, 105
7, 611472, Note_on_c, 5, 65, 0
7, 611520, Note_on_c, 5, 67, 105
7, 611712, Note_on_c, 5, 67, 0
7, 611760, Note_on_c, 5, 69, 105
7, 611952, Note_on_c, 5, 69, 0
7, 612000, Note_on_c, 5, 70, 105
7, 612192, Note_on_c, 5, 70, 0
7, 612240, Note_on_c, 5, 62, 105
7, 612432, Note_on_c, 5, 62, 0
7, 612480, Note_on_c, 5, 61, 125
7, 612672, Note_on_c, 5, 61, 0
7, 612720, Note_on_c, 5, 62, 105
7, 612912, Note_on_c, 5, 62, 0
7, 612960, Note_on_c, 5, 64, 105
7, 613152, Note_on_c, 5, 64, 0
7, 613200, Note_on_c, 5, 65, 105
7, 613392, Note_on_c, 5, 65, 0
7, 613440, Note_on_c, 5, 67, 105
7, 613632, Note_on_c, 5, 67, 0
7, 613680, Note_on_c, 5, 69, 105
7, 613872, Note_on_c, 5, 69, 0
7, 613920, Note_on_c, 5, 70, 105
7, 614112, Note_on_c, 5, 70, 0
7, 614160, Note_on_c, 5, 62, 105
7, 614352, Note_on_c, 5, 62, 0
7, 614400, Note_on_c, 5, 61, 125
7, 614592, Note_on_c, 5, 61, 0
7, 614640, Note_on_c, 5, 62, 105
7, 614832, Note_on_c, 5, 62, 0
7, 614880, Note_on_c, 5, 64, 105
7, 615072, Note_on_c, 5, 64, 0
7, 615120, Note_on_c, 5, 65, 105
7, 615312, Note_on_c, 5, 65, 0
7, 615360, Note_on_c, 5, 67, 105
7, 615552, Note_on_c, 5, 67, 0
7, 615600, Note_on_c, 5, 69, 105
7, 615792, Note_on_c, 5, 69, 0
7, 615840, Note_on_c, 5, 70, 105
7, 616032, Note_on_c, 5, 70, 0
7, 616080, Note_on_c, 5, 61, 105
7, 616272, Note_on_c, 5, 61, 0
7, 616320, Note_on_c, 5, 62, 105
7, 616512, Note_on_c, 5, 62, 0
7, 616560, Note_on_c, 5, 69, 105
7, 616752, Note_on_c, 5, 69, 0
7, 616800, Note_on_c, 5, 69, 105
7, 616992, Note_on_c, 5, 69, 0
7, 617040, Note_on_c, 5, 69, 105
7, 617232, Note_on_c, 5, 69, 0
7, 617280, Note_on_c, 5, 69, 105
7, 617472, Note_on_c, 5, 69, 0
7, 617520, Note_on_c, 5, 69, 105
7, 617712, Note_on_c, 5, 69, 0
7, 617760, Note_on_c, 5, 69, 105
7, 617952, Note_on_c, 5, 69, 0
7, 618000, Note_on_c, 5, 69, 105
7, 618192, Note_on_c, 5, 69, 0
7, 618240, Note_on_c, 5, 70, 105
7, 618432, Note_on_c, 5, 70, 0
7, 618480, Note_on_c, 5, 70, 105
7, 618672, Note_on_c, 5, 70, 0
7, 618720, Note_on_c, 5, 70, 105
7, 618912, Note_on_c, 5, 70, 0
7, 618960, Note_on_c, 5, 70, 105
7, 619152, Note_on_c, 5, 70, 0
7, 619200, Note_on_c, 5, 70, 105
7, 619392, Note_on_c, 5, 70, 0
7, 619440, Note_on_c, 5, 70, 105
7, 619632, Note_on_c, 5, 70, 0
7, 619680, Note_on_c, 5, 70, 105
7, 619872, Note_on_c, 5, 70, 0
7, 619920, Note_on_c, 5, 70, 105
7, 620112, Note_on_c, 5, 70, 0
7, 620160, Note_on_c, 5, 69, 105
7, 620352, Note_on_c, 5, 69, 0
7, 620400, Note_on_c, 5, 69, 105
7, 620592, Note_on_c, 5, 69, 0
7, 620640, Note_on_c, 5, 69, 105
7, 620832, Note_on_c, 5, 69, 0
7, 620880, Note_on_c, 5, 69, 105
7, 621072, Note_on_c, 5, 69, 0
7, 621120, Note_on_c, 5, 72, 105
7, 621312, Note_on_c, 5, 72, 0
7, 621360, Note_on_c, 5, 72, 105
7, 621552, Note_on_c, 5, 72, 0
7, 621600, Note_on_c, 5, 72, 105
7, 621792, Note_on_c, 5, 72, 0
7, 621840, Note_on_c, 5, 72, 105
7, 622032, Note_on_c, 5, 72, 0
7, 622080, Note_on_c, 5, 70, 105
7, 622272, Note_on_c, 5, 70, 0
7, 622320, Note_on_c, 5, 70, 105
7, 622512, Note_on_c, 5, 70, 0
7, 622560, Note_on_c, 5, 70, 105
7, 622752, Note_on_c, 5, 70, 0
7, 622800, Note_on_c, 5, 70, 105
7, 622992, Note_on_c, 5, 70, 0
7, 623040, Note_on_c, 5, 67, 105
7, 623232, Note_on_c, 5, 67, 0
7, 623280, Note_on_c, 5, 67, 105
7, 623472, Note_on_c, 5, 67, 0
7, 623520, Note_on_c, 5, 67, 105
7, 623712, Note_on_c, 5, 67, 0
7, 623760, Note_on_c, 5, 67, 105
7, 623952, Note_on_c, 5, 67, 0
7, 624000, Note_on_c, 5, 66, 105
7, 624384, Note_on_c, 5, 66, 0
7, 624960, Note_on_c, 5, 62, 92
7, 624960, Note_on_c, 5, 78, 92
7, 624960, Note_on_c, 5, 69, 92
7, 625344, Note_on_c, 5, 69, 0
7, 625344, Note_on_c, 5, 78, 0
7, 625344, Note_on_c, 5, 62, 0
7, 627840, Note_on_c, 5, 62, 92
7, 629280, Note_on_c, 5, 62, 0
7, 629280, Note_on_c, 5, 61, 58
7, 629760, Note_on_c, 5, 61, 0
7, 629760, Note_on_c, 5, 60, 58
7, 630144, Note_on_c, 5, 60, 0
7, 632160, Note_on_c, 5, 62, 58
7, 632640, Note_on_c, 5, 62, 0
7, 632640, Note_on_c, 5, 67, 58
7, 633072, Note_on_c, 5, 67, 0
7, 633120, Note_on_c, 5, 67, 58
7, 633552, Note_on_c, 5, 67, 0
7, 633600, Note_on_c, 5, 67, 58
7, 634320, Note_on_c, 5, 67, 0
7, 634320, Note_on_c, 5, 69, 58
7, 634560, Note_on_c, 5, 69, 0
7, 634560, Note_on_c, 5, 66, 58
7, 634944, Note_on_c, 5, 66, 0
7, 635520, Note_on_c, 5, 66, 58
7, 636960, Note_on_c, 5, 66, 0
7, 636960, Note_on_c, 5, 67, 58
7, 637920, Note_on_c, 5, 67, 0
7, 637920, Note_on_c, 5, 66, 58
7, 638400, Note_on_c, 5, 66, 0
7, 638400, Note_on_c, 5, 67, 58
7, 639168, Note_on_c, 5, 67, 0
7, 639360, Note_on_c, 5, 63, 58
7, 639744, Note_on_c, 5, 63, 0
7, 640320, Note_on_c, 5, 60, 58
7, 640704, Note_on_c, 5, 60, 0
7, 641280, Note_on_c, 5, 58, 58
7, 641664, Note_on_c, 5, 58, 0
7, 645120, Note_on_c, 5, 60, 58
7, 646560, Note_on_c, 5, 60, 0
7, 646560, Note_on_c, 5, 62, 58
7, 646680, Note_on_c, 5, 62, 0
7, 646680, Note_on_c, 5, 60, 58
7, 646800, Note_on_c, 5, 60, 0
7, 646800, Note_on_c, 5, 58, 58
7, 646920, Note_on_c, 5, 58, 0
7, 646920, Note_on_c, 5, 57, 58
7, 647040, Note_on_c, 5, 57, 0
7, 647040, Note_on_c, 5, 55, 58
7, 647424, Note_on_c, 5, 55, 0
7, 650880, Note_on_c, 5, 66, 58
7, 652320, Note_on_c, 5, 66, 0
7, 652320, Note_on_c, 5, 67, 58
7, 653280, Note_on_c, 5, 67, 0
7, 653280, Note_on_c, 5, 66, 58
7, 653760, Note_on_c, 5, 66, 0
7, 653760, Note_on_c, 5, 67, 58
7, 654528, Note_on_c, 5, 67, 0
7, 654720, Note_on_c, 5, 65, 58
7, 654960, Note_on_c, 5, 65, 0
7, 654960, Note_on_c, 5, 62, 58
7, 655200, Note_on_c, 5, 62, 0
7, 655200, Note_on_c, 5, 65, 58
7, 655440, Note_on_c, 5, 65, 0
7, 655440, Note_on_c, 5, 62, 58
7, 655680, Note_on_c, 5, 62, 0
7, 655680, Note_on_c, 5, 65, 58
7, 655920, Note_on_c, 5, 65, 0
7, 655920, Note_on_c, 5, 62, 58
7, 656160, Note_on_c, 5, 62, 0
7, 656160, Note_on_c, 5, 63, 58
7, 656400, Note_on_c, 5, 63, 0
7, 656400, Note_on_c, 5, 67, 58
7, 656592, Note_on_c, 5, 67, 0
7, 656640, Note_on_c, 5, 65, 58
7, 656880, Note_on_c, 5, 65, 0
7, 656880, Note_on_c, 5, 62, 58
7, 657120, Note_on_c, 5, 62, 0
7, 657120, Note_on_c, 5, 65, 58
7, 657360, Note_on_c, 5, 65, 0
7, 657360, Note_on_c, 5, 62, 58
7, 657600, Note_on_c, 5, 62, 0
7, 657600, Note_on_c, 5, 65, 58
7, 657840, Note_on_c, 5, 65, 0
7, 657840, Note_on_c, 5, 62, 58
7, 658080, Note_on_c, 5, 62, 0
7, 658080, Note_on_c, 5, 63, 58
7, 658320, Note_on_c, 5, 63, 0
7, 658320, Note_on_c, 5, 67, 58
7, 658512, Note_on_c, 5, 67, 0
7, 658560, Note_on_c, 5, 65, 58
7, 658800, Note_on_c, 5, 65, 0
7, 658800, Note_on_c, 5, 62, 58
7, 659040, Note_on_c, 5, 62, 0
7, 659040, Note_on_c, 5, 65, 58
7, 659280, Note_on_c, 5, 65, 0
7, 659280, Note_on_c, 5, 62, 58
7, 659520, Note_on_c, 5, 62, 0
7, 659520, Note_on_c, 5, 65, 58
7, 659760, Note_on_c, 5, 65, 0
7, 659760, Note_on_c, 5, 62, 58
7, 660000, Note_on_c, 5, 62, 0
7, 660000, Note_on_c, 5, 63, 58
7, 660240, Note_on_c, 5, 63, 0
7, 660240, Note_on_c, 5, 67, 58
7, 660432, Note_on_c, 5, 67, 0
7, 660480, Note_on_c, 5, 65, 58
7, 660720, Note_on_c, 5, 65, 0
7, 660720, Note_on_c, 5, 62, 58
7, 660960, Note_on_c, 5, 62, 0
7, 660960, Note_on_c, 5, 65, 58
7, 661200, Note_on_c, 5, 65, 0
7, 661200, Note_on_c, 5, 62, 58
7, 661440, Note_on_c, 5, 62, 0
7, 661440, Note_on_c, 5, 65, 58
7, 661680, Note_on_c, 5, 65, 0
7, 661680, Note_on_c, 5, 62, 58
7, 661920, Note_on_c, 5, 62, 0
7, 661920, Note_on_c, 5, 63, 58
7, 662160, Note_on_c, 5, 63, 0
7, 662160, Note_on_c, 5, 67, 58
7, 662352, Note_on_c, 5, 67, 0
7, 662400, Note_on_c, 5, 65, 70
7, 662592, Note_on_c, 5, 65, 0
7, 662640, Note_on_c, 5, 77, 72
7, 662832, Note_on_c, 5, 77, 0
7, 662880, Note_on_c, 5, 77, 74
7, 663072, Note_on_c, 5, 77, 0
7, 663120, Note_on_c, 5, 77, 77
7, 663312, Note_on_c, 5, 77, 0
7, 663360, Note_on_c, 5, 77, 79
7, 663552, Note_on_c, 5, 77, 0
7, 663600, Note_on_c, 5, 77, 82
7, 663792, Note_on_c, 5, 77, 0
7, 663840, Note_on_c, 5, 77, 84
7, 664032, Note_on_c, 5, 77, 0
7, 664080, Note_on_c, 5, 77, 87
7, 664272, Note_on_c, 5, 77, 0
7, 664320, Note_on_c, 5, 77, 89
7, 664512, Note_on_c, 5, 77, 0
7, 664560, Note_on_c, 5, 77, 92
7, 664752, Note_on_c, 5, 77, 0
7, 664800, Note_on_c, 5, 77, 94
7, 664992, Note_on_c, 5, 77, 0
7, 665040, Note_on_c, 5, 77, 97
7, 665232, Note_on_c, 5, 77, 0
7, 665280, Note_on_c, 5, 77, 99
7, 665472, Note_on_c, 5, 77, 0
7, 665520, Note_on_c, 5, 77, 101
7, 665712, Note_on_c, 5, 77, 0
7, 665760, Note_on_c, 5, 77, 104
7, 665952, Note_on_c, 5, 77, 0
7, 666000, Note_on_c, 5, 77, 106
7, 666192, Note_on_c, 5, 77, 0
7, 666240, Note_on_c, 5, 78, 105
7, 666432, Note_on_c, 5, 78, 0
7, 666480, Note_on_c, 5, 78, 105
7, 666672, Note_on_c, 5, 78, 0
7, 666720, Note_on_c, 5, 78, 105
7, 666912, Note_on_c, 5, 78, 0
7, 666960, Note_on_c, 5, 78, 105
7, 667152, Note_on_c, 5, 78, 0
7, 667200, Note_on_c, 5, 66, 105
7, 667392, Note_on_c, 5, 66, 0
7, 667440, Note_on_c, 5, 66, 105
7, 667632, Note_on_c, 5, 66, 0
7, 667680, Note_on_c, 5, 66, 105
7, 667872, Note_on_c, 5, 66, 0
7, 667920, Note_on_c, 5, 66, 105
7, 668112, Note_on_c, 5, 66, 0
7, 668160, Note_on_c, 5, 65, 105
7, 668352, Note_on_c, 5, 65, 0
7, 668400, Note_on_c, 5, 65, 105
7, 668592, Note_on_c, 5, 65, 0
7, 668640, Note_on_c, 5, 65, 105
7, 668832, Note_on_c, 5, 65, 0
7, 668880, Note_on_c, 5, 65, 105
7, 669072, Note_on_c, 5, 65, 0
7, 669120, Note_on_c, 5, 77, 105
7, 669312, Note_on_c, 5, 77, 0
7, 669360, Note_on_c, 5, 77, 105
7, 669552, Note_on_c, 5, 77, 0
7, 669600, Note_on_c, 5, 77, 105
7, 669792, Note_on_c, 5, 77, 0
7, 669840, Note_on_c, 5, 77, 105
7, 670032, Note_on_c, 5, 77, 0
7, 670080, Note_on_c, 5, 80, 105
7, 670272, Note_on_c, 5, 80, 0
7, 670320, Note_on_c, 5, 80, 105
7, 670512, Note_on_c, 5, 80, 0
7, 670560, Note_on_c, 5, 80, 105
7, 670752, Note_on_c, 5, 80, 0
7, 670800, Note_on_c, 5, 80, 105
7, 670992, Note_on_c, 5, 80, 0
7, 671040, Note_on_c, 5, 68, 105
7, 671232, Note_on_c, 5, 68, 0
7, 671280, Note_on_c, 5, 68, 105
7, 671472, Note_on_c, 5, 68, 0
7, 671520, Note_on_c, 5, 68, 105
7, 671712, Note_on_c, 5, 68, 0
7, 671760, Note_on_c, 5, 68, 105
7, 671952, Note_on_c, 5, 68, 0
7, 672000, Note_on_c, 5, 67, 105
7, 672192, Note_on_c, 5, 67, 0
7, 672240, Note_on_c, 5, 67, 105
7, 672432, Note_on_c, 5, 67, 0
7, 672480, Note_on_c, 5, 67, 105
7, 672672, Note_on_c, 5, 67, 0
7, 672720, Note_on_c, 5, 67, 105
7, 672912, Note_on_c, 5, 67, 0
7, 672960, Note_on_c, 5, 79, 105
7, 673152, Note_on_c, 5, 79, 0
7, 673200, Note_on_c, 5, 79, 105
7, 673392, Note_on_c, 5, 79, 0
7, 673440, Note_on_c, 5, 79, 105
7, 673632, Note_on_c, 5, 79, 0
7, 673680, Note_on_c, 5, 79, 105
7, 673872, Note_on_c, 5, 79, 0
7, 673920, Note_on_c, 5, 82, 105
7, 674112, Note_on_c, 5, 82, 0
7, 674160, Note_on_c, 5, 82, 105
7, 674352, Note_on_c, 5, 82, 0
7, 674400, Note_on_c, 5, 82, 105
7, 674592, Note_on_c, 5, 82, 0
7, 674640, Note_on_c, 5, 82, 105
7, 674832, Note_on_c, 5, 82, 0
7, 674880, Note_on_c, 5, 70, 105
7, 675072, Note_on_c, 5, 70, 0
7, 675120, Note_on_c, 5, 70, 105
7, 675312, Note_on_c, 5, 70, 0
7, 675360, Note_on_c, 5, 70, 105
7, 675552, Note_on_c, 5, 70, 0
7, 675600, Note_on_c, 5, 70, 105
7, 675792, Note_on_c, 5, 70, 0
7, 675840, Note_on_c, 5, 62, 105
7, 675840, Note_on_c, 5, 70, 105
7, 676224, Note_on_c, 5, 70, 0
7, 676224, Note_on_c, 5, 62, 0
7, 676320, Note_on_c, 5, 62, 105
7, 676320, Note_on_c, 5, 70, 105
7, 677088, Note_on_c, 5, 70, 0
7, 677088, Note_on_c, 5, 62, 0
7, 677280, Note_on_c, 5, 70, 105
7, 677280, Note_on_c, 5, 62, 105
7, 677760, Note_on_c, 5, 70, 0
7, 677760, Note_on_c, 5, 72, 105
7, 678144, Note_on_c, 5, 72, 0
7, 678144, Note_on_c, 5, 62, 0
7, 678240, Note_on_c, 5, 72, 105
7, 678240, Note_on_c, 5, 62, 105
7, 679008, Note_on_c, 5, 62, 0
7, 679008, Note_on_c, 5, 72, 0
7, 679200, Note_on_c, 5, 72, 105
7, 679200, Note_on_c, 5, 62, 105
7, 679584, Note_on_c, 5, 62, 0
7, 679584, Note_on_c, 5, 72, 0
7, 679680, Note_on_c, 5, 62, 92
7, 679680, Note_on_c, 5, 70, 92
7, 680064, Note_on_c, 5, 70, 0
7, 680064, Note_on_c, 5, 62, 0
7, 680160, Note_on_c, 5, 58, 125
7, 680352, Note_on_c, 5, 58, 0
7, 680400, Note_on_c, 5, 58, 105
7, 680592, Note_on_c, 5, 58, 0
7, 680640, Note_on_c, 5, 58, 105
7, 680832, Note_on_c, 5, 58, 0
7, 680880, Note_on_c, 5, 58, 105
7, 681072, Note_on_c, 5, 58, 0
7, 681120, Note_on_c, 5, 60, 105
7, 681312, Note_on_c, 5, 60, 0
7, 681360, Note_on_c, 5, 60, 105
7, 681552, Note_on_c, 5, 60, 0
7, 681600, Note_on_c, 5, 61, 105
7, 681792, Note_on_c, 5, 61, 0
7, 681840, Note_on_c, 5, 61, 105
7, 682032, Note_on_c, 5, 61, 0
7, 682080, Note_on_c, 5, 62, 105
7, 682272, Note_on_c, 5, 62, 0
7, 682320, Note_on_c, 5, 62, 105
7, 682512, Note_on_c, 5, 62, 0
7, 682560, Note_on_c, 5, 63, 105
7, 682752, Note_on_c, 5, 63, 0
7, 682800, Note_on_c, 5, 63, 105
7, 682992, Note_on_c, 5, 63, 0
7, 683040, Note_on_c, 5, 64, 105
7, 683232, Note_on_c, 5, 64, 0
7, 683280, Note_on_c, 5, 64, 105
7, 683472, Note_on_c, 5, 64, 0
7, 683520, Note_on_c, 5, 65, 105
7, 683904, Note_on_c, 5, 65, 0
7, 684360, Note_on_c, 5, 65, 105
7, 684456, Note_on_c, 5, 65, 0
7, 684480, Note_on_c, 5, 63, 105
7, 684864, Note_on_c, 5, 63, 0
7, 685320, Note_on_c, 5, 63, 105
7, 685416, Note_on_c, 5, 63, 0
7, 685440, Note_on_c, 5, 72, 105
7, 685824, Note_on_c, 5, 72, 0
7, 686280, Note_on_c, 5, 72, 105
7, 686376, Note_on_c, 5, 72, 0
7, 686400, Note_on_c, 5, 70, 105
7, 686784, Note_on_c, 5, 70, 0
7, 687240, Note_on_c, 5, 70, 105
7, 687336, Note_on_c, 5, 70, 0
7, 687360, Note_on_c, 5, 75, 105
7, 688464, Note_on_c, 5, 75, 0
7, 688560, Note_on_c, 5, 74, 70
7, 688704, Note_on_c, 5, 74, 0
7, 688800, Note_on_c, 5, 72, 70
7, 688944, Note_on_c, 5, 72, 0
7, 689040, Note_on_c, 5, 70, 70
7, 689184, Note_on_c, 5, 70, 0
7, 689280, Note_on_c, 5, 69, 70
7, 689424, Note_on_c, 5, 69, 0
7, 689520, Note_on_c, 5, 67, 70
7, 689664, Note_on_c, 5, 67, 0
7, 689760, Note_on_c, 5, 66, 70
7, 689904, Note_on_c, 5, 66, 0
7, 690000, Note_on_c, 5, 63, 70
7, 690144, Note_on_c, 5, 63, 0
7, 690240, Note_on_c, 5, 62, 70
7, 690384, Note_on_c, 5, 62, 0
7, 690480, Note_on_c, 5, 60, 70
7, 690624, Note_on_c, 5, 60, 0
7, 690720, Note_on_c, 5, 58, 70
7, 690864, Note_on_c, 5, 58, 0
7, 690960, Note_on_c, 5, 57, 70
7, 691104, Note_on_c, 5, 57, 0
7, 691200, Note_on_c, 5, 58, 58
7, 691440, Note_on_c, 5, 58, 0
7, 691440, Note_on_c, 5, 62, 58
7, 691680, Note_on_c, 5, 62, 0
7, 691680, Note_on_c, 5, 58, 58
7, 691920, Note_on_c, 5, 58, 0
7, 691920, Note_on_c, 5, 62, 58
7, 692160, Note_on_c, 5, 62, 0
7, 692160, Note_on_c, 5, 58, 58
7, 692400, Note_on_c, 5, 58, 0
7, 692400, Note_on_c, 5, 62, 58
7, 692640, Note_on_c, 5, 62, 0
7, 692640, Note_on_c, 5, 58, 58
7, 692880, Note_on_c, 5, 58, 0
7, 692880, Note_on_c, 5, 62, 58
7, 693072, Note_on_c, 5, 62, 0
7, 693120, Note_on_c, 5, 60, 58
7, 693360, Note_on_c, 5, 60, 0
7, 693360, Note_on_c, 5, 62, 58
7, 693600, Note_on_c, 5, 62, 0
7, 693600, Note_on_c, 5, 60, 58
7, 693840, Note_on_c, 5, 60, 0
7, 693840, Note_on_c, 5, 62, 58
7, 694080, Note_on_c, 5, 62, 0
7, 694080, Note_on_c, 5, 57, 58
7, 694320, Note_on_c, 5, 57, 0
7, 694320, Note_on_c, 5, 62, 58
7, 694560, Note_on_c, 5, 62, 0
7, 694560, Note_on_c, 5, 57, 58
7, 694800, Note_on_c, 5, 57, 0
7, 694800, Note_on_c, 5, 62, 58
7, 694992, Note_on_c, 5, 62, 0
7, 695040, Note_on_c, 5, 55, 58
7, 695280, Note_on_c, 5, 55, 0
7, 695280, Note_on_c, 5, 62, 58
7, 695520, Note_on_c, 5, 62, 0
7, 695520, Note_on_c, 5, 55, 58
7, 695760, Note_on_c, 5, 55, 0
7, 695760, Note_on_c, 5, 62, 58
7, 696000, Note_on_c, 5, 62, 0
7, 696000, Note_on_c, 5, 55, 58
7, 696240, Note_on_c, 5, 55, 0
7, 696240, Note_on_c, 5, 62, 58
7, 696480, Note_on_c, 5, 62, 0
7, 696480, Note_on_c, 5, 58, 58
7, 696720, Note_on_c, 5, 58, 0
7, 696720, Note_on_c, 5, 62, 58
7, 696912, Note_on_c, 5, 62, 0
7, 696960, Note_on_c, 5, 60, 58
7, 697200, Note_on_c, 5, 60, 0
7, 697200, Note_on_c, 5, 62, 58
7, 697440, Note_on_c, 5, 62, 0
7, 697440, Note_on_c, 5, 60, 58
7, 697680, Note_on_c, 5, 60, 0
7, 697680, Note_on_c, 5, 62, 58
7, 697920, Note_on_c, 5, 62, 0
7, 697920, Note_on_c, 5, 57, 58
7, 698160, Note_on_c, 5, 57, 0
7, 698160, Note_on_c, 5, 62, 58
7, 698400, Note_on_c, 5, 62, 0
7, 698400, Note_on_c, 5, 57, 58
7, 698640, Note_on_c, 5, 57, 0
7, 698640, Note_on_c, 5, 62, 58
7, 698832, Note_on_c, 5, 62, 0
7, 698880, Note_on_c, 5, 55, 58
7, 699120, Note_on_c, 5, 55, 0
7, 699120, Note_on_c, 5, 62, 58
7, 699360, Note_on_c, 5, 62, 0
7, 699360, Note_on_c, 5, 55, 58
7, 699600, Note_on_c, 5, 55, 0
7, 699600, Note_on_c, 5, 62, 58
7, 699840, Note_on_c, 5, 62, 0
7, 699840, Note_on_c, 5, 55, 58
7, 700080, Note_on_c, 5, 55, 0
7, 700080, Note_on_c, 5, 62, 58
7, 700320, Note_on_c, 5, 62, 0
7, 700320, Note_on_c, 5, 67, 58
7, 700560, Note_on_c, 5, 67, 0
7, 700560, Note_on_c, 5, 62, 58
7, 700752, Note_on_c, 5, 62, 0
7, 700800, Note_on_c, 5, 71, 58
7, 700800, Note_on_c, 5, 65, 105
7, 700992, Note_on_c, 5, 65, 0
7, 700992, Note_on_c, 5, 71, 0
7, 701040, Note_on_c, 5, 71, 105
7, 701040, Note_on_c, 5, 65, 105
7, 701232, Note_on_c, 5, 65, 0
7, 701232, Note_on_c, 5, 71, 0
7, 701280, Note_on_c, 5, 65, 105
7, 701280, Note_on_c, 5, 71, 105
7, 701472, Note_on_c, 5, 71, 0
7, 701472, Note_on_c, 5, 65, 0
7, 701520, Note_on_c, 5, 71, 105
7, 701520, Note_on_c, 5, 65, 105
7, 701712, Note_on_c, 5, 65, 0
7, 701712, Note_on_c, 5, 71, 0
7, 701760, Note_on_c, 5, 65, 105
7, 701760, Note_on_c, 5, 71, 105
7, 701952, Note_on_c, 5, 71, 0
7, 701952, Note_on_c, 5, 65, 0
7, 702000, Note_on_c, 5, 71, 105
7, 702000, Note_on_c, 5, 65, 105
7, 702192, Note_on_c, 5, 65, 0
7, 702192, Note_on_c, 5, 71, 0
7, 702240, Note_on_c, 5, 65, 105
7, 702240, Note_on_c, 5, 71, 105
7, 702432, Note_on_c, 5, 71, 0
7, 702432, Note_on_c, 5, 65, 0
7, 702480, Note_on_c, 5, 65, 105
7, 702480, Note_on_c, 5, 71, 105
7, 702672, Note_on_c, 5, 71, 0
7, 702672, Note_on_c, 5, 65, 0
7, 702720, Note_on_c, 5, 63, 105
7, 702720, Note_on_c, 5, 72, 105
7, 703488, Note_on_c, 5, 72, 0
7, 703488, Note_on_c, 5, 63, 0
7, 703680, Note_on_c, 5, 79, 105
7, 704400, Note_on_c, 5, 79, 0
7, 704400, Note_on_c, 5, 75, 105
7, 704592, Note_on_c, 5, 75, 0
7, 704640, Note_on_c, 5, 74, 105
7, 705360, Note_on_c, 5, 74, 0
7, 705360, Note_on_c, 5, 70, 105
7, 705552, Note_on_c, 5, 70, 0
7, 705600, Note_on_c, 5, 69, 105
7, 706320, Note_on_c, 5, 69, 0
7, 706320, Note_on_c, 5, 72, 105
7, 706512, Note_on_c, 5, 72, 0
7, 706560, Note_on_c, 5, 70, 92
7, 706704, Note_on_c, 5, 70, 0
7, 706800, Note_on_c, 5, 62, 70
7, 707040, Note_on_c, 5, 62, 0
7, 707040, Note_on_c, 5, 58, 70
7, 707280, Note_on_c, 5, 58, 0
7, 707280, Note_on_c, 5, 62, 70
7, 707520, Note_on_c, 5, 62, 0
7, 707520, Note_on_c, 5, 58, 70
7, 707760, Note_on_c, 5, 58, 0
7, 707760, Note_on_c, 5, 62, 70
7, 708000, Note_on_c, 5, 62, 0
7, 708000, Note_on_c, 5, 58, 70
7, 708240, Note_on_c, 5, 58, 0
7, 708240, Note_on_c, 5, 62, 70
7, 708432, Note_on_c, 5, 62, 0
7, 708480, Note_on_c, 5, 57, 70
7, 708720, Note_on_c, 5, 57, 0
7, 708720, Note_on_c, 5, 60, 70
7, 708960, Note_on_c, 5, 60, 0
7, 708960, Note_on_c, 5, 57, 70
7, 709200, Note_on_c, 5, 57, 0
7, 709200, Note_on_c, 5, 60, 70
7, 709440, Note_on_c, 5, 60, 0
7, 709440, Note_on_c, 5, 57, 70
7, 709680, Note_on_c, 5, 57, 0
7, 709680, Note_on_c, 5, 62, 70
7, 709920, Note_on_c, 5, 62, 0
7, 709920, Note_on_c, 5, 66, 70
7, 710160, Note_on_c, 5, 66, 0
7, 710160, Note_on_c, 5, 62, 70
7, 710352, Note_on_c, 5, 62, 0
7, 710400, Note_on_c, 5, 67, 70
7, 710640, Note_on_c, 5, 67, 0
7, 710640, Note_on_c, 5, 62, 70
7, 710880, Note_on_c, 5, 62, 0
7, 710880, Note_on_c, 5, 55, 70
7, 711120, Note_on_c, 5, 55, 0
7, 711120, Note_on_c, 5, 62, 70
7, 711360, Note_on_c, 5, 62, 0
7, 711360, Note_on_c, 5, 55, 70
7, 711600, Note_on_c, 5, 55, 0
7, 711600, Note_on_c, 5, 62, 70
7, 711840, Note_on_c, 5, 62, 0
7, 711840, Note_on_c, 5, 58, 70
7, 712080, Note_on_c, 5, 58, 0
7, 712080, Note_on_c, 5, 62, 70
7, 712272, Note_on_c, 5, 62, 0
7, 712320, Note_on_c, 5, 57, 70
7, 712560, Note_on_c, 5, 57, 0
7, 712560, Note_on_c, 5, 60, 70
7, 712800, Note_on_c, 5, 60, 0
7, 712800, Note_on_c, 5, 57, 70
7, 713040, Note_on_c, 5, 57, 0
7, 713040, Note_on_c, 5, 60, 70
7, 713280, Note_on_c, 5, 60, 0
7, 713280, Note_on_c, 5, 57, 70
7, 713520, Note_on_c, 5, 57, 0
7, 713520, Note_on_c, 5, 62, 70
7, 713760, Note_on_c, 5, 62, 0
7, 713760, Note_on_c, 5, 66, 70
7, 714000, Note_on_c, 5, 66, 0
7, 714000, Note_on_c, 5, 62, 70
7, 714192, Note_on_c, 5, 62, 0
7, 714240, Note_on_c, 5, 67, 70
7, 714480, Note_on_c, 5, 67, 0
7, 714480, Note_on_c, 5, 62, 70
7, 714720, Note_on_c, 5, 62, 0
7, 714720, Note_on_c, 5, 55, 70
7, 714960, Note_on_c, 5, 55, 0
7, 714960, Note_on_c, 5, 62, 70
7, 715200, Note_on_c, 5, 62, 0
7, 715200, Note_on_c, 5, 55, 70
7, 715440, Note_on_c, 5, 55, 0
7, 715440, Note_on_c, 5, 62, 70
7, 715680, Note_on_c, 5, 62, 0
7, 715680, Note_on_c, 5, 67, 70
7, 715920, Note_on_c, 5, 67, 0
7, 715920, Note_on_c, 5, 62, 70
7, 716112, Note_on_c, 5, 62, 0
7, 716160, Note_on_c, 5, 65, 105
7, 716160, Note_on_c, 5, 71, 105
7, 716352, Note_on_c, 5, 71, 0
7, 716352, Note_on_c, 5, 65, 0
7, 716400, Note_on_c, 5, 65, 105
7, 716400, Note_on_c, 5, 71, 105
7, 716592, Note_on_c, 5, 71, 0
7, 716592, Note_on_c, 5, 65, 0
7, 716640, Note_on_c, 5, 71, 105
7, 716640, Note_on_c, 5, 65, 105
7, 716832, Note_on_c, 5, 65, 0
7, 716832, Note_on_c, 5, 71, 0
7, 716880, Note_on_c, 5, 71, 105
7, 716880, Note_on_c, 5, 65, 105
7, 717072, Note_on_c, 5, 65, 0
7, 717072, Note_on_c, 5, 71, 0
7, 717120, Note_on_c, 5, 65, 105
7, 717120, Note_on_c, 5, 71, 105
7, 717312, Note_on_c, 5, 71, 0
7, 717312, Note_on_c, 5, 65, 0
7, 717360, Note_on_c, 5, 71, 105
7, 717360, Note_on_c, 5, 65, 105
7, 717552, Note_on_c, 5, 65, 0
7, 717552, Note_on_c, 5, 71, 0
7, 717600, Note_on_c, 5, 65, 105
7, 717600, Note_on_c, 5, 71, 105
7, 717792, Note_on_c, 5, 71, 0
7, 717792, Note_on_c, 5, 65, 0
7, 717840, Note_on_c, 5, 71, 105
7, 717840, Note_on_c, 5, 65, 105
7, 718032, Note_on_c, 5, 65, 0
7, 718032, Note_on_c, 5, 71, 0
7, 718080, Note_on_c, 5, 72, 105
7, 718080, Note_on_c, 5, 63, 105
7, 718848, Note_on_c, 5, 63, 0
7, 718848, Note_on_c, 5, 72, 0
7, 719040, Note_on_c, 5, 79, 105
7, 719760, Note_on_c, 5, 79, 0
7, 719760, Note_on_c, 5, 75, 105
7, 719952, Note_on_c, 5, 75, 0
7, 720000, Note_on_c, 5, 74, 105
7, 720720, Note_on_c, 5, 74, 0
7, 720720, Note_on_c, 5, 70, 105
7, 720912, Note_on_c, 5, 70, 0
7, 720960, Note_on_c, 5, 66, 105
7, 721680, Note_on_c, 5, 66, 0
7, 721680, Note_on_c, 5, 69, 105
7, 721872, Note_on_c, 5, 69, 0
7, 721920, Note_on_c, 5, 67, 105
7, 722112, Note_on_c, 5, 67, 0
7, 722160, Note_on_c, 5, 74, 105
7, 722352, Note_on_c, 5, 74, 0
7, 722400, Note_on_c, 5, 82, 105
7, 722592, Note_on_c, 5, 82, 0
7, 722640, Note_on_c, 5, 81, 105
7, 722832, Note_on_c, 5, 81, 0
7, 722880, Note_on_c, 5, 79, 105
7, 723072, Note_on_c, 5, 79, 0
7, 723120, Note_on_c, 5, 77, 105
7, 723312, Note_on_c, 5, 77, 0
7, 723360, Note_on_c, 5, 75, 105
7, 723552, Note_on_c, 5, 75, 0
7, 723600, Note_on_c, 5, 74, 105
7, 723792, Note_on_c, 5, 74, 0
7, 723840, Note_on_c, 5, 72, 105
7, 724032, Note_on_c, 5, 72, 0
7, 724080, Note_on_c, 5, 70, 105
7, 724272, Note_on_c, 5, 70, 0
7, 724320, Note_on_c, 5, 69, 105
7, 724512, Note_on_c, 5, 69, 0
7, 724560, Note_on_c, 5, 67, 105
7, 724752, Note_on_c, 5, 67, 0
7, 724800, Note_on_c, 5, 66, 105
7, 724992, Note_on_c, 5, 66, 0
7, 725040, Note_on_c, 5, 63, 105
7, 725232, Note_on_c, 5, 63, 0
7, 725280, Note_on_c, 5, 62, 105
7, 725472, Note_on_c, 5, 62, 0
7, 725520, Note_on_c, 5, 60, 105
7, 725712, Note_on_c, 5, 60, 0
7, 725760, Note_on_c, 5, 58, 105
7, 726072, Note_on_c, 5, 58, 0
7, 726240, Note_on_c, 5, 67, 125
7, 726552, Note_on_c, 5, 67, 0
7, 726720, Note_on_c, 5, 67, 125
7, 727032, Note_on_c, 5, 67, 0
7, 727200, Note_on_c, 5, 60, 125
7, 727512, Note_on_c, 5, 60, 0
7, 727680, Note_on_c, 5, 58, 105
7, 727872, Note_on_c, 5, 58, 0
7, 727920, Note_on_c, 5, 62, 105
7, 728112, Note_on_c, 5, 62, 0
7, 728160, Note_on_c, 5, 70, 105
7, 728352, Note_on_c, 5, 70, 0
7, 728400, Note_on_c, 5, 69, 105
7, 728592, Note_on_c, 5, 69, 0
7, 728640, Note_on_c, 5, 67, 105
7, 728832, Note_on_c, 5, 67, 0
7, 728880, Note_on_c, 5, 65, 105
7, 729072, Note_on_c, 5, 65, 0
7, 729120, Note_on_c, 5, 63, 105
7, 729312, Note_on_c, 5, 63, 0
7, 729360, Note_on_c, 5, 62, 105
7, 729552, Note_on_c, 5, 62, 0
7, 729600, Note_on_c, 5, 61, 105
7, 729792, Note_on_c, 5, 61, 0
7, 729840, Note_on_c, 5, 64, 105
7, 730032, Note_on_c, 5, 64, 0
7, 730080, Note_on_c, 5, 69, 105
7, 730272, Note_on_c, 5, 69, 0
7, 730320, Note_on_c, 5, 67, 105
7, 730512, Note_on_c, 5, 67, 0
7, 730560, Note_on_c, 5, 66, 105
7, 730752, Note_on_c, 5, 66, 0
7, 730800, Note_on_c, 5, 63, 105
7, 730992, Note_on_c, 5, 63, 0
7, 731040, Note_on_c, 5, 62, 105
7, 731232, Note_on_c, 5, 62, 0
7, 731280, Note_on_c, 5, 60, 105
7, 731472, Note_on_c, 5, 60, 0
7, 731520, Note_on_c, 5, 58, 105
7, 731904, Note_on_c, 5, 58, 0
7, 732360, Note_on_c, 5, 67, 105
7, 732456, Note_on_c, 5, 67, 0
7, 732480, Note_on_c, 5, 67, 105
7, 732864, Note_on_c, 5, 67, 0
7, 733320, Note_on_c, 5, 68, 105
7, 733416, Note_on_c, 5, 68, 0
7, 733440, Note_on_c, 5, 68, 105
7, 733824, Note_on_c, 5, 68, 0
7, 734280, Note_on_c, 5, 69, 105
7, 734376, Note_on_c, 5, 69, 0
7, 734400, Note_on_c, 5, 69, 105
7, 734784, Note_on_c, 5, 69, 0
7, 735360, Note_on_c, 5, 70, 105
7, 735744, Note_on_c, 5, 70, 0
7, 736200, Note_on_c, 5, 71, 105
7, 736296, Note_on_c, 5, 71, 0
7, 736320, Note_on_c, 5, 71, 105
7, 736704, Note_on_c, 5, 71, 0
7, 737160, Note_on_c, 5, 72, 105
7, 737256, Note_on_c, 5, 72, 0
7, 737280, Note_on_c, 5, 72, 105
7, 737664, Note_on_c, 5, 72, 0
7, 738120, Note_on_c, 5, 73, 105
7, 738216, Note_on_c, 5, 73, 0
7, 738240, Note_on_c, 5, 73, 105
7, 738624, Note_on_c, 5, 73, 0
7, 740640, Note_on_c, 5, 75, 70
7, 740880, Note_on_c, 5, 75, 0
7, 740880, Note_on_c, 5, 74, 70
7, 741072, Note_on_c, 5, 74, 0
7, 741120, Note_on_c, 5, 74, 70
7, 741504, Note_on_c, 5, 74, 0
7, 741600, Note_on_c, 5, 75, 70
7, 741840, Note_on_c, 5, 75, 0
7, 741840, Note_on_c, 5, 74, 70
7, 742032, Note_on_c, 5, 74, 0
7, 742080, Note_on_c, 5, 74, 70
7, 742464, Note_on_c, 5, 74, 0
7, 742560, Note_on_c, 5, 75, 70
7, 742800, Note_on_c, 5, 75, 0
7, 742800, Note_on_c, 5, 74, 70
7, 742992, Note_on_c, 5, 74, 0
7, 743040, Note_on_c, 5, 74, 70
7, 743520, Note_on_c, 5, 74, 0
7, 743520, Note_on_c, 5, 79, 70
7, 744480, Note_on_c, 5, 79, 0
7, 744480, Note_on_c, 5, 77, 70
7, 745440, Note_on_c, 5, 77, 0
7, 745440, Note_on_c, 5, 75, 58
7, 746400, Note_on_c, 5, 75, 0
7, 746400, Note_on_c, 5, 74, 58
7, 746784, Note_on_c, 5, 74, 0
7, 746880, Note_on_c, 5, 72, 58
7, 754464, Note_on_c, 5, 72, 0
7, 754560, Note_on_c, 5, 62, 105
7, 754560, Note_on_c, 5, 70, 105
7, 754896, Note_on_c, 5, 70, 0
7, 754896, Note_on_c, 5, 62, 0
7, 755040, Note_on_c, 5, 62, 105
7, 755040, Note_on_c, 5, 70, 105
7, 755208, Note_on_c, 5, 70, 0
7, 755208, Note_on_c, 5, 62, 0
7, 755280, Note_on_c, 5, 62, 105
7, 755280, Note_on_c, 5, 70, 105
7, 755448, Note_on_c, 5, 70, 0
7, 755448, Note_on_c, 5, 62, 0
7, 755520, Note_on_c, 5, 62, 105
7, 755520, Note_on_c, 5, 72, 105
7, 755856, Note_on_c, 5, 72, 0
7, 755856, Note_on_c, 5, 62, 0
7, 756000, Note_on_c, 5, 62, 105
7, 756000, Note_on_c, 5, 72, 105
7, 756168, Note_on_c, 5, 72, 0
7, 756168, Note_on_c, 5, 62, 0
7, 756240, Note_on_c, 5, 72, 105
7, 756240, Note_on_c, 5, 62, 105
7, 756408, Note_on_c, 5, 62, 0
7, 756408, Note_on_c, 5, 72, 0
7, 756480, Note_on_c, 5, 62, 105
7, 756480, Note_on_c, 5, 70, 105
7, 756816, Note_on_c, 5, 70, 0
7, 756816, Note_on_c, 5, 62, 0
7, 756960, Note_on_c, 5, 62, 105
7, 756960, Note_on_c, 5, 70, 105
7, 757128, Note_on_c, 5, 70, 0
7, 757128, Note_on_c, 5, 62, 0
7, 757200, Note_on_c, 5, 62, 105
7, 757200, Note_on_c, 5, 70, 105
7, 757368, Note_on_c, 5, 70, 0
7, 757368, Note_on_c, 5, 62, 0
7, 757440, Note_on_c, 5, 62, 105
7, 757440, Note_on_c, 5, 72, 105
7, 757776, Note_on_c, 5, 72, 0
7, 757776, Note_on_c, 5, 62, 0
7, 757920, Note_on_c, 5, 72, 105
7, 757920, Note_on_c, 5, 62, 105
7, 758088, Note_on_c, 5, 62, 0
7, 758088, Note_on_c, 5, 72, 0
7, 758160, Note_on_c, 5, 72, 105
7, 758160, Note_on_c, 5, 62, 105
7, 758328, Note_on_c, 5, 62, 0
7, 758328, Note_on_c, 5, 72, 0
7, 758400, Note_on_c, 5, 62, 105
7, 758400, Note_on_c, 5, 70, 105
7, 758736, Note_on_c, 5, 70, 0
7, 758736, Note_on_c, 5, 62, 0
7, 758880, Note_on_c, 5, 62, 105
7, 758880, Note_on_c, 5, 70, 105
7, 759048, Note_on_c, 5, 70, 0
7, 759048, Note_on_c, 5, 62, 0
7, 759120, Note_on_c, 5, 62, 105
7, 759120, Note_on_c, 5, 70, 105
7, 759288, Note_on_c, 5, 70, 0
7, 759288, Note_on_c, 5, 62, 0
7, 759360, Note_on_c, 5, 62, 105
7, 759360, Note_on_c, 5, 72, 105
7, 759696, Note_on_c, 5, 72, 0
7, 759696, Note_on_c, 5, 62, 0
7, 759840, Note_on_c, 5, 72, 105
7, 759840, Note_on_c, 5, 62, 105
7, 760008, Note_on_c, 5, 62, 0
7, 760008, Note_on_c, 5, 72, 0
7, 760080, Note_on_c, 5, 72, 105
7, 760080, Note_on_c, 5, 62, 105
7, 760248, Note_on_c, 5, 62, 0
7, 760248, Note_on_c, 5, 72, 0
7, 760320, Note_on_c, 5, 62, 105
7, 760320, Note_on_c, 5, 70, 105
7, 760656, Note_on_c, 5, 70, 0
7, 760656, Note_on_c, 5, 62, 0
7, 760800, Note_on_c, 5, 72, 105
7, 760800, Note_on_c, 5, 62, 105
7, 761136, Note_on_c, 5, 62, 0
7, 761136, Note_on_c, 5, 72, 0
7, 761280, Note_on_c, 5, 62, 105
7, 761280, Note_on_c, 5, 70, 105
7, 761616, Note_on_c, 5, 70, 0
7, 761616, Note_on_c, 5, 62, 0
7, 761760, Note_on_c, 5, 62, 105
7, 761760, Note_on_c, 5, 72, 105
7, 762096, Note_on_c, 5, 72, 0
7, 762096, Note_on_c, 5, 62, 0
7, 762240, Note_on_c, 5, 70, 105
7, 762240, Note_on_c, 5, 62, 105
7, 762624, Note_on_c, 5, 62, 0
7, 762624, Note_on_c, 5, 70, 0
7, 764160, Note_on_c, 5, 62, 105
7, 764160, Note_on_c, 5, 79, 105
7, 764160, Note_on_c, 5, 70, 105
7, 764544, Note_on_c, 5, 70, 0
7, 764544, Note_on_c, 5, 79, 0
7, 764544, Note_on_c, 5, 62, 0
7, 765120, Note_on_c, 5, 67, 105
7, 765120, Note_on_c, 5, 74, 105
7, 765120, Note_on_c, 5, 82, 105
7, 765504, Note_on_c, 5, 82, 0
7, 765504, Note_on_c, 5, 74, 0
7, 765504, Note_on_c, 5, 67, 0
7, 766080, Note_on_c, 5, 55, 105
7, 767040, Note_on_c, 5, 55, 0
7, 767040, End_track
8, 0, Start_track
8, 0, Sequencer_specific, 04, 43, 00, 01, 00
8, 0, Program_c, 6, 48
8, 0, Control_c, 6, 7, 123
8, 0, Control_c, 6, 91, 85
8, 0, Control_c, 6, 10, 98
8, 1920, Note_on_c, 6, 58, 58
8, 1920, Note_on_c, 6, 55, 58
8, 2100, Note_on_c, 6, 55, 0
8, 2100, Note_on_c, 6, 58, 0
8, 2160, Note_on_c, 6, 55, 58
8, 2160, Note_on_c, 6, 58, 58
8, 2340, Note_on_c, 6, 58, 0
8, 2340, Note_on_c, 6, 55, 0
8, 2400, Note_on_c, 6, 67, 58
8, 2400, Note_on_c, 6, 58, 58
8, 2580, Note_on_c, 6, 58, 0
8, 2580, Note_on_c, 6, 67, 0
8, 2640, Note_on_c, 6, 58, 58
8, 2640, Note_on_c, 6, 67, 58
8, 2820, Note_on_c, 6, 67, 0
8, 2820, Note_on_c, 6, 58, 0
8, 2880, Note_on_c, 6, 55, 58
8, 2880, Note_on_c, 6, 58, 58
8, 3060, Note_on_c, 6, 58, 0
8, 3060, Note_on_c, 6, 55, 0
8, 3120, Note_on_c, 6, 55, 58
8, 3120, Note_on_c, 6, 58, 58
8, 3300, Note_on_c, 6, 58, 0
8, 3300, Note_on_c, 6, 55, 0
8, 3360, Note_on_c, 6, 67, 58
8, 3360, Note_on_c, 6, 58, 58
8, 3540, Note_on_c, 6, 58, 0
8, 3540, Note_on_c, 6, 67, 0
8, 3600, Note_on_c, 6, 67, 58
8, 3600, Note_on_c, 6, 58, 58
8, 3780, Note_on_c, 6, 58, 0
8, 3780, Note_on_c, 6, 67, 0
8, 3840, Note_on_c, 6, 58, 58
8, 3840, Note_on_c, 6, 55, 58
8, 4020, Note_on_c, 6, 55, 0
8, 4020, Note_on_c, 6, 58, 0
8, 4080, Note_on_c, 6, 55, 58
8, 4080, Note_on_c, 6, 58, 58
8, 4260, Note_on_c, 6, 58, 0
8, 4260, Note_on_c, 6, 55, 0
8, 4320, Note_on_c, 6, 58, 58
8, 4320, Note_on_c, 6, 67, 58
8, 4500, Note_on_c, 6, 67, 0
8, 4500, Note_on_c, 6, 58, 0
8, 4560, Note_on_c, 6, 58, 58
8, 4560, Note_on_c, 6, 67, 58
8, 4740, Note_on_c, 6, 67, 0
8, 4740, Note_on_c, 6, 58, 0
8, 4800, Note_on_c, 6, 55, 58
8, 4800, Note_on_c, 6, 58, 58
8, 4980, Note_on_c, 6, 58, 0
8, 4980, Note_on_c, 6, 55, 0
8, 5040, Note_on_c, 6, 55, 58
8, 5040, Note_on_c, 6, 58, 58
8, 5220, Note_on_c, 6, 58, 0
8, 5220, Note_on_c, 6, 55, 0
8, 5280, Note_on_c, 6, 67, 58
8, 5280, Note_on_c, 6, 58, 58
8, 5460, Note_on_c, 6, 58, 0
8, 5460, Note_on_c, 6, 67, 0
8, 5520, Note_on_c, 6, 67, 58
8, 5520, Note_on_c, 6, 58, 58
8, 5700, Note_on_c, 6, 58, 0
8, 5700, Note_on_c, 6, 67, 0
8, 5760, Note_on_c, 6, 58, 58
8, 5760, Note_on_c, 6, 55, 58
8, 5940, Note_on_c, 6, 55, 0
8, 5940, Note_on_c, 6, 58, 0
8, 6000, Note_on_c, 6, 58, 58
8, 6000, Note_on_c, 6, 55, 58
8, 6180, Note_on_c, 6, 55, 0
8, 6180, Note_on_c, 6, 58, 0
8, 6240, Note_on_c, 6, 58, 58
8, 6240, Note_on_c, 6, 67, 58
8, 6420, Note_on_c, 6, 67, 0
8, 6420, Note_on_c, 6, 58, 0
8, 6480, Note_on_c, 6, 58, 58
8, 6480, Note_on_c, 6, 67, 58
8, 6660, Note_on_c, 6, 67, 0
8, 6660, Note_on_c, 6, 58, 0
8, 6720, Note_on_c, 6, 58, 58
8, 6720, Note_on_c, 6, 55, 58
8, 6900, Note_on_c, 6, 55, 0
8, 6900, Note_on_c, 6, 58, 0
8, 6960, Note_on_c, 6, 58, 58
8, 6960, Note_on_c, 6, 55, 58
8, 7140, Note_on_c, 6, 55, 0
8, 7140, Note_on_c, 6, 58, 0
8, 7200, Note_on_c, 6, 67, 58
8, 7200, Note_on_c, 6, 58, 58
8, 7380, Note_on_c, 6, 58, 0
8, 7380, Note_on_c, 6, 67, 0
8, 7440, Note_on_c, 6, 58, 58
8, 7440, Note_on_c, 6, 67, 58
8, 7620, Note_on_c, 6, 67, 0
8, 7620, Note_on_c, 6, 58, 0
8, 7680, Note_on_c, 6, 58, 58
8, 7680, Note_on_c, 6, 55, 58
8, 7860, Note_on_c, 6, 55, 0
8, 7860, Note_on_c, 6, 58, 0
8, 7920, Note_on_c, 6, 55, 58
8, 7920, Note_on_c, 6, 58, 58
8, 8100, Note_on_c, 6, 58, 0
8, 8100, Note_on_c, 6, 55, 0
8, 8160, Note_on_c, 6, 58, 58
8, 8160, Note_on_c, 6, 62, 58
8, 8340, Note_on_c, 6, 62, 0
8, 8340, Note_on_c, 6, 58, 0
8, 8400, Note_on_c, 6, 58, 58
8, 8400, Note_on_c, 6, 62, 58
8, 8580, Note_on_c, 6, 62, 0
8, 8580, Note_on_c, 6, 58, 0
8, 8640, Note_on_c, 6, 55, 58
8, 8640, Note_on_c, 6, 58, 58
8, 8820, Note_on_c, 6, 58, 0
8, 8820, Note_on_c, 6, 55, 0
8, 8880, Note_on_c, 6, 55, 58
8, 8880, Note_on_c, 6, 58, 58
8, 9060, Note_on_c, 6, 58, 0
8, 9060, Note_on_c, 6, 55, 0
8, 9120, Note_on_c, 6, 58, 58
8, 9120, Note_on_c, 6, 67, 58
8, 9300, Note_on_c, 6, 67, 0
8, 9300, Note_on_c, 6, 58, 0
8, 9360, Note_on_c, 6, 58, 58
8, 9360, Note_on_c, 6, 67, 58
8, 9540, Note_on_c, 6, 67, 0
8, 9540, Note_on_c, 6, 58, 0
8, 9600, Note_on_c, 6, 57, 58
8, 9600, Note_on_c, 6, 63, 58
8, 9780, Note_on_c, 6, 63, 0
8, 9780, Note_on_c, 6, 57, 0
8, 9840, Note_on_c, 6, 57, 58
8, 9840, Note_on_c, 6, 63, 58
8, 10020, Note_on_c, 6, 63, 0
8, 10020, Note_on_c, 6, 57, 0
8, 10080, Note_on_c, 6, 69, 58
8, 10080, Note_on_c, 6, 63, 58
8, 10260, Note_on_c, 6, 63, 0
8, 10260, Note_on_c, 6, 69, 0
8, 10320, Note_on_c, 6, 63, 58
8, 10320, Note_on_c, 6, 69, 58
8, 10500, Note_on_c, 6, 69, 0
8, 10500, Note_on_c, 6, 63, 0
8, 10560, Note_on_c, 6, 57, 58
8, 10560, Note_on_c, 6, 63, 58
8, 10740, Note_on_c, 6, 63, 0
8, 10740, Note_on_c, 6, 57, 0
8, 10800, Note_on_c, 6, 57, 58
8, 10800, Note_on_c, 6, 63, 58
8, 10980, Note_on_c, 6, 63, 0
8, 10980, Note_on_c, 6, 57, 0
8, 11040, Note_on_c, 6, 63, 58
8, 11040, Note_on_c, 6, 69, 58
8, 11220, Note_on_c, 6, 69, 0
8, 11220, Note_on_c, 6, 63, 0
8, 11280, Note_on_c, 6, 69, 58
8, 11280, Note_on_c, 6, 63, 58
8, 11460, Note_on_c, 6, 63, 0
8, 11460, Note_on_c, 6, 69, 0
8, 11520, Note_on_c, 6, 63, 58
8, 11520, Note_on_c, 6, 57, 58
8, 11700, Note_on_c, 6, 57, 0
8, 11700, Note_on_c, 6, 63, 0
8, 11760, Note_on_c, 6, 57, 58
8, 11760, Note_on_c, 6, 63, 58
8, 11940, Note_on_c, 6, 63, 0
8, 11940, Note_on_c, 6, 57, 0
8, 12000, Note_on_c, 6, 63, 58
8, 12000, Note_on_c, 6, 69, 58
8, 12180, Note_on_c, 6, 69, 0
8, 12180, Note_on_c, 6, 63, 0
8, 12240, Note_on_c, 6, 69, 58
8, 12240, Note_on_c, 6, 63, 58
8, 12420, Note_on_c, 6, 63, 0
8, 12420, Note_on_c, 6, 69, 0
8, 12480, Note_on_c, 6, 57, 58
8, 12480, Note_on_c, 6, 63, 58
8, 12660, Note_on_c, 6, 63, 0
8, 12660, Note_on_c, 6, 57, 0
8, 12720, Note_on_c, 6, 57, 58
8, 12720, Note_on_c, 6, 63, 58
8, 12900, Note_on_c, 6, 63, 0
8, 12900, Note_on_c, 6, 57, 0
8, 12960, Note_on_c, 6, 63, 58
8, 12960, Note_on_c, 6, 69, 58
8, 13140, Note_on_c, 6, 69, 0
8, 13140, Note_on_c, 6, 63, 0
8, 13200, Note_on_c, 6, 63, 58
8, 13200, Note_on_c, 6, 69, 58
8, 13380, Note_on_c, 6, 69, 0
8, 13380, Note_on_c, 6, 63, 0
8, 13440, Note_on_c, 6, 57, 58
8, 13440, Note_on_c, 6, 62, 58
8, 13620, Note_on_c, 6, 62, 0
8, 13620, Note_on_c, 6, 57, 0
8, 13680, Note_on_c, 6, 57, 58
8, 13680, Note_on_c, 6, 62, 58
8, 13860, Note_on_c, 6, 62, 0
8, 13860, Note_on_c, 6, 57, 0
8, 13920, Note_on_c, 6, 72, 58
8, 13920, Note_on_c, 6, 62, 58
8, 14100, Note_on_c, 6, 62, 0
8, 14100, Note_on_c, 6, 72, 0
8, 14160, Note_on_c, 6, 62, 58
8, 14160, Note_on_c, 6, 72, 58
8, 14340, Note_on_c, 6, 72, 0
8, 14340, Note_on_c, 6, 62, 0
8, 14400, Note_on_c, 6, 62, 58
8, 14400, Note_on_c, 6, 57, 58
8, 14580, Note_on_c, 6, 57, 0
8, 14580, Note_on_c, 6, 62, 0
8, 14640, Note_on_c, 6, 62, 58
8, 14640, Note_on_c, 6, 57, 58
8, 14820, Note_on_c, 6, 57, 0
8, 14820, Note_on_c, 6, 62, 0
8, 14880, Note_on_c, 6, 72, 58
8, 14880, Note_on_c, 6, 62, 58
8, 15060, Note_on_c, 6, 62, 0
8, 15060, Note_on_c, 6, 72, 0
8, 15120, Note_on_c, 6, 72, 58
8, 15120, Note_on_c, 6, 62, 58
8, 15300, Note_on_c, 6, 62, 0
8, 15300, Note_on_c, 6, 72, 0
8, 15360, Note_on_c, 6, 57, 58
8, 15360, Note_on_c, 6, 60, 58
8, 15540, Note_on_c, 6, 60, 0
8, 15540, Note_on_c, 6, 57, 0
8, 15600, Note_on_c, 6, 60, 58
8, 15600, Note_on_c, 6, 57, 58
8, 15780, Note_on_c, 6, 57, 0
8, 15780, Note_on_c, 6, 60, 0
8, 15840, Note_on_c, 6, 60, 58
8, 15840, Note_on_c, 6, 69, 58
8, 16020, Note_on_c, 6, 69, 0
8, 16020, Note_on_c, 6, 60, 0
8, 16080, Note_on_c, 6, 60, 58
8, 16080, Note_on_c, 6, 69, 58
8, 16260, Note_on_c, 6, 69, 0
8, 16260, Note_on_c, 6, 60, 0
8, 16320, Note_on_c, 6, 57, 58
8, 16320, Note_on_c, 6, 66, 58
8, 16500, Note_on_c, 6, 66, 0
8, 16500, Note_on_c, 6, 57, 0
8, 16560, Note_on_c, 6, 66, 58
8, 16560, Note_on_c, 6, 57, 58
8, 16740, Note_on_c, 6, 57, 0
8, 16740, Note_on_c, 6, 66, 0
8, 16800, Note_on_c, 6, 66, 58
8, 16800, Note_on_c, 6, 69, 58
8, 16980, Note_on_c, 6, 69, 0
8, 16980, Note_on_c, 6, 66, 0
8, 17040, Note_on_c, 6, 66, 58
8, 17040, Note_on_c, 6, 69, 58
8, 17220, Note_on_c, 6, 69, 0
8, 17220, Note_on_c, 6, 66, 0
8, 17280, Note_on_c, 6, 55, 58
8, 17280, Note_on_c, 6, 58, 58
8, 17460, Note_on_c, 6, 58, 0
8, 17460, Note_on_c, 6, 55, 0
8, 17520, Note_on_c, 6, 55, 58
8, 17520, Note_on_c, 6, 58, 58
8, 17700, Note_on_c, 6, 58, 0
8, 17700, Note_on_c, 6, 55, 0
8, 17760, Note_on_c, 6, 67, 58
8, 17760, Note_on_c, 6, 58, 58
8, 17940, Note_on_c, 6, 58, 0
8, 17940, Note_on_c, 6, 67, 0
8, 18000, Note_on_c, 6, 67, 58
8, 18000, Note_on_c, 6, 58, 58
8, 18180, Note_on_c, 6, 58, 0
8, 18180, Note_on_c, 6, 67, 0
8, 18240, Note_on_c, 6, 55, 58
8, 18240, Note_on_c, 6, 58, 58
8, 18420, Note_on_c, 6, 58, 0
8, 18420, Note_on_c, 6, 55, 0
8, 18480, Note_on_c, 6, 58, 58
8, 18480, Note_on_c, 6, 55, 58
8, 18660, Note_on_c, 6, 55, 0
8, 18660, Note_on_c, 6, 58, 0
8, 18720, Note_on_c, 6, 67, 58
8, 18720, Note_on_c, 6, 58, 58
8, 18900, Note_on_c, 6, 58, 0
8, 18900, Note_on_c, 6, 67, 0
8, 18960, Note_on_c, 6, 58, 58
8, 18960, Note_on_c, 6, 67, 58
8, 19140, Note_on_c, 6, 67, 0
8, 19140, Note_on_c, 6, 58, 0
8, 19200, Note_on_c, 6, 63, 58
8, 19200, Note_on_c, 6, 57, 58
8, 19380, Note_on_c, 6, 57, 0
8, 19380, Note_on_c, 6, 63, 0
8, 19440, Note_on_c, 6, 63, 58
8, 19440, Note_on_c, 6, 57, 58
8, 19620, Note_on_c, 6, 57, 0
8, 19620, Note_on_c, 6, 63, 0
8, 19680, Note_on_c, 6, 63, 58
8, 19680, Note_on_c, 6, 66, 58
8, 19860, Note_on_c, 6, 66, 0
8, 19860, Note_on_c, 6, 63, 0
8, 19920, Note_on_c, 6, 63, 58
8, 19920, Note_on_c, 6, 66, 58
8, 20100, Note_on_c, 6, 66, 0
8, 20100, Note_on_c, 6, 63, 0
8, 20160, Note_on_c, 6, 63, 58
8, 20160, Note_on_c, 6, 57, 58
8, 20340, Note_on_c, 6, 57, 0
8, 20340, Note_on_c, 6, 63, 0
8, 20400, Note_on_c, 6, 63, 58
8, 20400, Note_on_c, 6, 57, 58
8, 20580, Note_on_c, 6, 57, 0
8, 20580, Note_on_c, 6, 63, 0
8, 20640, Note_on_c, 6, 63, 58
8, 20640, Note_on_c, 6, 66, 58
8, 20820, Note_on_c, 6, 66, 0
8, 20820, Note_on_c, 6, 63, 0
8, 20880, Note_on_c, 6, 66, 58
8, 20880, Note_on_c, 6, 63, 58
8, 21060, Note_on_c, 6, 63, 0
8, 21060, Note_on_c, 6, 66, 0
8, 21120, Note_on_c, 6, 55, 58
8, 21120, Note_on_c, 6, 58, 58
8, 21300, Note_on_c, 6, 58, 0
8, 21300, Note_on_c, 6, 55, 0
8, 21360, Note_on_c, 6, 58, 58
8, 21360, Note_on_c, 6, 55, 58
8, 21540, Note_on_c, 6, 55, 0
8, 21540, Note_on_c, 6, 58, 0
8, 21600, Note_on_c, 6, 58, 58
8, 21600, Note_on_c, 6, 67, 58
8, 21780, Note_on_c, 6, 67, 0
8, 21780, Note_on_c, 6, 58, 0
8, 21840, Note_on_c, 6, 67, 58
8, 21840, Note_on_c, 6, 58, 58
8, 22020, Note_on_c, 6, 58, 0
8, 22020, Note_on_c, 6, 67, 0
8, 22080, Note_on_c, 6, 55, 58
8, 22080, Note_on_c, 6, 58, 58
8, 22260, Note_on_c, 6, 58, 0
8, 22260, Note_on_c, 6, 55, 0
8, 22320, Note_on_c, 6, 58, 58
8, 22320, Note_on_c, 6, 55, 58
8, 22500, Note_on_c, 6, 55, 0
8, 22500, Note_on_c, 6, 58, 0
8, 22560, Note_on_c, 6, 67, 58
8, 22560, Note_on_c, 6, 58, 58
8, 22740, Note_on_c, 6, 58, 0
8, 22740, Note_on_c, 6, 67, 0
8, 22800, Note_on_c, 6, 67, 58
8, 22800, Note_on_c, 6, 58, 58
8, 22980, Note_on_c, 6, 58, 0
8, 22980, Note_on_c, 6, 67, 0
8, 23040, Note_on_c, 6, 63, 58
8, 23040, Note_on_c, 6, 57, 58
8, 23220, Note_on_c, 6, 57, 0
8, 23220, Note_on_c, 6, 63, 0
8, 23280, Note_on_c, 6, 63, 58
8, 23280, Note_on_c, 6, 57, 58
8, 23460, Note_on_c, 6, 57, 0
8, 23460, Note_on_c, 6, 63, 0
8, 23520, Note_on_c, 6, 66, 58
8, 23520, Note_on_c, 6, 63, 58
8, 23700, Note_on_c, 6, 63, 0
8, 23700, Note_on_c, 6, 66, 0
8, 23760, Note_on_c, 6, 63, 58
8, 23760, Note_on_c, 6, 66, 58
8, 23940, Note_on_c, 6, 66, 0
8, 23940, Note_on_c, 6, 63, 0
8, 24000, Note_on_c, 6, 57, 58
8, 24000, Note_on_c, 6, 63, 58
8, 24180, Note_on_c, 6, 63, 0
8, 24180, Note_on_c, 6, 57, 0
8, 24240, Note_on_c, 6, 57, 58
8, 24240, Note_on_c, 6, 63, 58
8, 24420, Note_on_c, 6, 63, 0
8, 24420, Note_on_c, 6, 57, 0
8, 24480, Note_on_c, 6, 63, 58
8, 24480, Note_on_c, 6, 66, 58
8, 24660, Note_on_c, 6, 66, 0
8, 24660, Note_on_c, 6, 63, 0
8, 24720, Note_on_c, 6, 66, 58
8, 24720, Note_on_c, 6, 63, 58
8, 24900, Note_on_c, 6, 63, 0
8, 24900, Note_on_c, 6, 66, 0
8, 24960, Note_on_c, 6, 55, 58
8, 24960, Note_on_c, 6, 62, 58
8, 26784, Note_on_c, 6, 62, 0
8, 26784, Note_on_c, 6, 55, 0
8, 26880, Note_on_c, 6, 58, 58
8, 28320, Note_on_c, 6, 58, 0
8, 28320, Note_on_c, 6, 57, 58
8, 28800, Note_on_c, 6, 57, 0
8, 28800, Note_on_c, 6, 55, 58
8, 29760, Note_on_c, 6, 55, 0
8, 29760, Note_on_c, 6, 54, 58
8, 30240, Note_on_c, 6, 54, 0
8, 30240, Note_on_c, 6, 55, 58
8, 30624, Note_on_c, 6, 55, 0
8, 30720, Note_on_c, 6, 57, 58
8, 31488, Note_on_c, 6, 57, 0
8, 32160, Note_on_c, 6, 62, 105
8, 32340, Note_on_c, 6, 62, 0
8, 32400, Note_on_c, 6, 62, 105
8, 32580, Note_on_c, 6, 62, 0
8, 32640, Note_on_c, 6, 62, 105
8, 33408, Note_on_c, 6, 62, 0
8, 34080, Note_on_c, 6, 62, 105
8, 34260, Note_on_c, 6, 62, 0
8, 34320, Note_on_c, 6, 62, 105
8, 34500, Note_on_c, 6, 62, 0
8, 34560, Note_on_c, 6, 62, 105
8, 35328, Note_on_c, 6, 62, 0
8, 36000, Note_on_c, 6, 62, 105
8, 36180, Note_on_c, 6, 62, 0
8, 36240, Note_on_c, 6, 62, 105
8, 36420, Note_on_c, 6, 62, 0
8, 36480, Note_on_c, 6, 62, 105
8, 36840, Note_on_c, 6, 62, 0
8, 36960, Note_on_c, 6, 62, 105
8, 37140, Note_on_c, 6, 62, 0
8, 37200, Note_on_c, 6, 62, 105
8, 37380, Note_on_c, 6, 62, 0
8, 37440, Note_on_c, 6, 62, 105
8, 37800, Note_on_c, 6, 62, 0
8, 37920, Note_on_c, 6, 62, 105
8, 38100, Note_on_c, 6, 62, 0
8, 38160, Note_on_c, 6, 62, 105
8, 38340, Note_on_c, 6, 62, 0
8, 38400, Note_on_c, 6, 62, 105
8, 39168, Note_on_c, 6, 62, 0
8, 42240, Note_on_c, 6, 58, 58
8, 42240, Note_on_c, 6, 55, 58
8, 42420, Note_on_c, 6, 55, 0
8, 42420, Note_on_c, 6, 58, 0
8, 42480, Note_on_c, 6, 58, 58
8, 42480, Note_on_c, 6, 55, 58
8, 42660, Note_on_c, 6, 55, 0
8, 42660, Note_on_c, 6, 58, 0
8, 42720, Note_on_c, 6, 58, 58
8, 42720, Note_on_c, 6, 67, 58
8, 42900, Note_on_c, 6, 67, 0
8, 42900, Note_on_c, 6, 58, 0
8, 42960, Note_on_c, 6, 67, 58
8, 42960, Note_on_c, 6, 58, 58
8, 43140, Note_on_c, 6, 58, 0
8, 43140, Note_on_c, 6, 67, 0
8, 43200, Note_on_c, 6, 55, 58
8, 43200, Note_on_c, 6, 58, 58
8, 43380, Note_on_c, 6, 58, 0
8, 43380, Note_on_c, 6, 55, 0
8, 43440, Note_on_c, 6, 55, 58
8, 43440, Note_on_c, 6, 58, 58
8, 43620, Note_on_c, 6, 58, 0
8, 43620, Note_on_c, 6, 55, 0
8, 43680, Note_on_c, 6, 67, 58
8, 43680, Note_on_c, 6, 58, 58
8, 43860, Note_on_c, 6, 58, 0
8, 43860, Note_on_c, 6, 67, 0
8, 43920, Note_on_c, 6, 58, 58
8, 43920, Note_on_c, 6, 67, 58
8, 44100, Note_on_c, 6, 67, 0
8, 44100, Note_on_c, 6, 58, 0
8, 44160, Note_on_c, 6, 58, 58
8, 44160, Note_on_c, 6, 55, 58
8, 44340, Note_on_c, 6, 55, 0
8, 44340, Note_on_c, 6, 58, 0
8, 44400, Note_on_c, 6, 55, 58
8, 44400, Note_on_c, 6, 58, 58
8, 44580, Note_on_c, 6, 58, 0
8, 44580, Note_on_c, 6, 55, 0
8, 44640, Note_on_c, 6, 58, 58
8, 44640, Note_on_c, 6, 62, 58
8, 44820, Note_on_c, 6, 62, 0
8, 44820, Note_on_c, 6, 58, 0
8, 44880, Note_on_c, 6, 62, 58
8, 44880, Note_on_c, 6, 58, 58
8, 45060, Note_on_c, 6, 58, 0
8, 45060, Note_on_c, 6, 62, 0
8, 45120, Note_on_c, 6, 58, 58
8, 45120, Note_on_c, 6, 55, 58
8, 45300, Note_on_c, 6, 55, 0
8, 45300, Note_on_c, 6, 58, 0
8, 45360, Note_on_c, 6, 58, 58
8, 45360, Note_on_c, 6, 55, 58
8, 45540, Note_on_c, 6, 55, 0
8, 45540, Note_on_c, 6, 58, 0
8, 45600, Note_on_c, 6, 67, 58
8, 45600, Note_on_c, 6, 58, 58
8, 45780, Note_on_c, 6, 58, 0
8, 45780, Note_on_c, 6, 67, 0
8, 45840, Note_on_c, 6, 58, 58
8, 45840, Note_on_c, 6, 67, 58
8, 46020, Note_on_c, 6, 67, 0
8, 46020, Note_on_c, 6, 58, 0
8, 46080, Note_on_c, 6, 55, 58
8, 46080, Note_on_c, 6, 58, 58
8, 46260, Note_on_c, 6, 58, 0
8, 46260, Note_on_c, 6, 55, 0
8, 46320, Note_on_c, 6, 55, 58
8, 46320, Note_on_c, 6, 58, 58
8, 46500, Note_on_c, 6, 58, 0
8, 46500, Note_on_c, 6, 55, 0
8, 46560, Note_on_c, 6, 58, 58
8, 46560, Note_on_c, 6, 67, 58
8, 46740, Note_on_c, 6, 67, 0
8, 46740, Note_on_c, 6, 58, 0
8, 46800, Note_on_c, 6, 58, 58
8, 46800, Note_on_c, 6, 67, 58
8, 46980, Note_on_c, 6, 67, 0
8, 46980, Note_on_c, 6, 58, 0
8, 47040, Note_on_c, 6, 58, 58
8, 47040, Note_on_c, 6, 55, 58
8, 47220, Note_on_c, 6, 55, 0
8, 47220, Note_on_c, 6, 58, 0
8, 47280, Note_on_c, 6, 58, 58
8, 47280, Note_on_c, 6, 55, 58
8, 47460, Note_on_c, 6, 55, 0
8, 47460, Note_on_c, 6, 58, 0
8, 47520, Note_on_c, 6, 58, 58
8, 47520, Note_on_c, 6, 67, 58
8, 47700, Note_on_c, 6, 67, 0
8, 47700, Note_on_c, 6, 58, 0
8, 47760, Note_on_c, 6, 58, 58
8, 47760, Note_on_c, 6, 67, 58
8, 47940, Note_on_c, 6, 67, 0
8, 47940, Note_on_c, 6, 58, 0
8, 48000, Note_on_c, 6, 55, 58
8, 48000, Note_on_c, 6, 58, 58
8, 48180, Note_on_c, 6, 58, 0
8, 48180, Note_on_c, 6, 55, 0
8, 48240, Note_on_c, 6, 58, 58
8, 48240, Note_on_c, 6, 55, 58
8, 48420, Note_on_c, 6, 55, 0
8, 48420, Note_on_c, 6, 58, 0
8, 48480, Note_on_c, 6, 58, 58
8, 48480, Note_on_c, 6, 67, 58
8, 48660, Note_on_c, 6, 67, 0
8, 48660, Note_on_c, 6, 58, 0
8, 48720, Note_on_c, 6, 58, 58
8, 48720, Note_on_c, 6, 67, 58
8, 48900, Note_on_c, 6, 67, 0
8, 48900, Note_on_c, 6, 58, 0
8, 48960, Note_on_c, 6, 55, 58
8, 48960, Note_on_c, 6, 58, 58
8, 49140, Note_on_c, 6, 58, 0
8, 49140, Note_on_c, 6, 55, 0
8, 49200, Note_on_c, 6, 58, 58
8, 49200, Note_on_c, 6, 55, 58
8, 49380, Note_on_c, 6, 55, 0
8, 49380, Note_on_c, 6, 58, 0
8, 49440, Note_on_c, 6, 67, 58
8, 49440, Note_on_c, 6, 58, 58
8, 49620, Note_on_c, 6, 58, 0
8, 49620, Note_on_c, 6, 67, 0
8, 49680, Note_on_c, 6, 58, 58
8, 49680, Note_on_c, 6, 67, 58
8, 49860, Note_on_c, 6, 67, 0
8, 49860, Note_on_c, 6, 58, 0
8, 49920, Note_on_c, 6, 57, 58
8, 49920, Note_on_c, 6, 60, 58
8, 50100, Note_on_c, 6, 60, 0
8, 50100, Note_on_c, 6, 57, 0
8, 50160, Note_on_c, 6, 60, 58
8, 50160, Note_on_c, 6, 57, 58
8, 50340, Note_on_c, 6, 57, 0
8, 50340, Note_on_c, 6, 60, 0
8, 50400, Note_on_c, 6, 63, 58
8, 50400, Note_on_c, 6, 69, 58
8, 50580, Note_on_c, 6, 69, 0
8, 50580, Note_on_c, 6, 63, 0
8, 50640, Note_on_c, 6, 63, 58
8, 50640, Note_on_c, 6, 69, 58
8, 50820, Note_on_c, 6, 69, 0
8, 50820, Note_on_c, 6, 63, 0
8, 50880, Note_on_c, 6, 57, 58
8, 50880, Note_on_c, 6, 60, 58
8, 51060, Note_on_c, 6, 60, 0
8, 51060, Note_on_c, 6, 57, 0
8, 51120, Note_on_c, 6, 57, 58
8, 51120, Note_on_c, 6, 60, 58
8, 51300, Note_on_c, 6, 60, 0
8, 51300, Note_on_c, 6, 57, 0
8, 51360, Note_on_c, 6, 63, 58
8, 51360, Note_on_c, 6, 69, 58
8, 51540, Note_on_c, 6, 69, 0
8, 51540, Note_on_c, 6, 63, 0
8, 51600, Note_on_c, 6, 69, 58
8, 51600, Note_on_c, 6, 63, 58
8, 51780, Note_on_c, 6, 63, 0
8, 51780, Note_on_c, 6, 69, 0
8, 51840, Note_on_c, 6, 63, 58
8, 51840, Note_on_c, 6, 60, 58
8, 52020, Note_on_c, 6, 60, 0
8, 52020, Note_on_c, 6, 63, 0
8, 52080, Note_on_c, 6, 63, 58
8, 52080, Note_on_c, 6, 60, 58
8, 52260, Note_on_c, 6, 60, 0
8, 52260, Note_on_c, 6, 63, 0
8, 52320, Note_on_c, 6, 72, 58
8, 52320, Note_on_c, 6, 63, 58
8, 52500, Note_on_c, 6, 63, 0
8, 52500, Note_on_c, 6, 72, 0
8, 52560, Note_on_c, 6, 63, 58
8, 52560, Note_on_c, 6, 72, 58
8, 52740, Note_on_c, 6, 72, 0
8, 52740, Note_on_c, 6, 63, 0
8, 52800, Note_on_c, 6, 57, 58
8, 52800, Note_on_c, 6, 60, 58
8, 52980, Note_on_c, 6, 60, 0
8, 52980, Note_on_c, 6, 57, 0
8, 53040, Note_on_c, 6, 57, 58
8, 53040, Note_on_c, 6, 60, 58
8, 53220, Note_on_c, 6, 60, 0
8, 53220, Note_on_c, 6, 57, 0
8, 53280, Note_on_c, 6, 60, 58
8, 53280, Note_on_c, 6, 69, 58
8, 53460, Note_on_c, 6, 69, 0
8, 53460, Note_on_c, 6, 60, 0
8, 53520, Note_on_c, 6, 69, 58
8, 53520, Note_on_c, 6, 60, 58
8, 53700, Note_on_c, 6, 60, 0
8, 53700, Note_on_c, 6, 69, 0
8, 53760, Note_on_c, 6, 62, 105
8, 53760, Note_on_c, 6, 70, 105
8, 53952, Note_on_c, 6, 70, 0
8, 53952, Note_on_c, 6, 62, 0
8, 54000, Note_on_c, 6, 70, 105
8, 54192, Note_on_c, 6, 70, 0
8, 54240, Note_on_c, 6, 74, 105
8, 54432, Note_on_c, 6, 74, 0
8, 54480, Note_on_c, 6, 70, 105
8, 54672, Note_on_c, 6, 70, 0
8, 54720, Note_on_c, 6, 74, 105
8, 54912, Note_on_c, 6, 74, 0
8, 54960, Note_on_c, 6, 70, 105
8, 55152, Note_on_c, 6, 70, 0
8, 55200, Note_on_c, 6, 74, 105
8, 55392, Note_on_c, 6, 74, 0
8, 55440, Note_on_c, 6, 70, 105
8, 55632, Note_on_c, 6, 70, 0
8, 55680, Note_on_c, 6, 72, 105
8, 55872, Note_on_c, 6, 72, 0
8, 55920, Note_on_c, 6, 69, 105
8, 56112, Note_on_c, 6, 69, 0
8, 56160, Note_on_c, 6, 72, 105
8, 56352, Note_on_c, 6, 72, 0
8, 56400, Note_on_c, 6, 69, 105
8, 56592, Note_on_c, 6, 69, 0
8, 56640, Note_on_c, 6, 72, 105
8, 56832, Note_on_c, 6, 72, 0
8, 56880, Note_on_c, 6, 69, 105
8, 57072, Note_on_c, 6, 69, 0
8, 57120, Note_on_c, 6, 72, 105
8, 57312, Note_on_c, 6, 72, 0
8, 57360, Note_on_c, 6, 69, 105
8, 57552, Note_on_c, 6, 69, 0
8, 57600, Note_on_c, 6, 70, 105
8, 57792, Note_on_c, 6, 70, 0
8, 57840, Note_on_c, 6, 67, 105
8, 58032, Note_on_c, 6, 67, 0
8, 58080, Note_on_c, 6, 70, 105
8, 58272, Note_on_c, 6, 70, 0
8, 58320, Note_on_c, 6, 67, 105
8, 58512, Note_on_c, 6, 67, 0
8, 58560, Note_on_c, 6, 70, 105
8, 58752, Note_on_c, 6, 70, 0
8, 58800, Note_on_c, 6, 67, 105
8, 58992, Note_on_c, 6, 67, 0
8, 59040, Note_on_c, 6, 70, 105
8, 59232, Note_on_c, 6, 70, 0
8, 59280, Note_on_c, 6, 67, 105
8, 59472, Note_on_c, 6, 67, 0
8, 59520, Note_on_c, 6, 70, 105
8, 59712, Note_on_c, 6, 70, 0
8, 59760, Note_on_c, 6, 65, 105
8, 59952, Note_on_c, 6, 65, 0
8, 60000, Note_on_c, 6, 70, 105
8, 60192, Note_on_c, 6, 70, 0
8, 60240, Note_on_c, 6, 65, 105
8, 60432, Note_on_c, 6, 65, 0
8, 60480, Note_on_c, 6, 70, 105
8, 60672, Note_on_c, 6, 70, 0
8, 60720, Note_on_c, 6, 65, 105
8, 60912, Note_on_c, 6, 65, 0
8, 60960, Note_on_c, 6, 70, 105
8, 61152, Note_on_c, 6, 70, 0
8, 61200, Note_on_c, 6, 65, 105
8, 61392, Note_on_c, 6, 65, 0
8, 61440, Note_on_c, 6, 67, 105
8, 61632, Note_on_c, 6, 67, 0
8, 61680, Note_on_c, 6, 63, 105
8, 61872, Note_on_c, 6, 63, 0
8, 61920, Note_on_c, 6, 67, 105
8, 62112, Note_on_c, 6, 67, 0
8, 62160, Note_on_c, 6, 63, 105
8, 62352, Note_on_c, 6, 63, 0
8, 62400, Note_on_c, 6, 67, 105
8, 62592, Note_on_c, 6, 67, 0
8, 62640, Note_on_c, 6, 63, 105
8, 62832, Note_on_c, 6, 63, 0
8, 62880, Note_on_c, 6, 67, 105
8, 63072, Note_on_c, 6, 67, 0
8, 63120, Note_on_c, 6, 63, 105
8, 63312, Note_on_c, 6, 63, 0
8, 63360, Note_on_c, 6, 65, 105
8, 63552, Note_on_c, 6, 65, 0
8, 63600, Note_on_c, 6, 62, 105
8, 63792, Note_on_c, 6, 62, 0
8, 63840, Note_on_c, 6, 65, 105
8, 64032, Note_on_c, 6, 65, 0
8, 64080, Note_on_c, 6, 62, 105
8, 64272, Note_on_c, 6, 62, 0
8, 64320, Note_on_c, 6, 65, 105
8, 64512, Note_on_c, 6, 65, 0
8, 64560, Note_on_c, 6, 62, 105
8, 64752, Note_on_c, 6, 62, 0
8, 64800, Note_on_c, 6, 65, 105
8, 64992, Note_on_c, 6, 65, 0
8, 65040, Note_on_c, 6, 62, 105
8, 65232, Note_on_c, 6, 62, 0
8, 65280, Note_on_c, 6, 60, 112
8, 66816, Note_on_c, 6, 60, 0
8, 67200, Note_on_c, 6, 60, 112
8, 67968, Note_on_c, 6, 60, 0
8, 68160, Note_on_c, 6, 61, 112
8, 68928, Note_on_c, 6, 61, 0
8, 69120, Note_on_c, 6, 60, 112
8, 69888, Note_on_c, 6, 60, 0
8, 70080, Note_on_c, 6, 61, 112
8, 70848, Note_on_c, 6, 61, 0
8, 71040, Note_on_c, 6, 60, 112
8, 71808, Note_on_c, 6, 60, 0
8, 72720, Note_on_c, 6, 60, 105
8, 72912, Note_on_c, 6, 60, 0
8, 72960, Note_on_c, 6, 65, 105
8, 73140, Note_on_c, 6, 65, 0
8, 73200, Note_on_c, 6, 65, 105
8, 73380, Note_on_c, 6, 65, 0
8, 73440, Note_on_c, 6, 65, 105
8, 73620, Note_on_c, 6, 65, 0
8, 73680, Note_on_c, 6, 65, 105
8, 73860, Note_on_c, 6, 65, 0
8, 73920, Note_on_c, 6, 69, 105
8, 74100, Note_on_c, 6, 69, 0
8, 74160, Note_on_c, 6, 69, 105
8, 74340, Note_on_c, 6, 69, 0
8, 74400, Note_on_c, 6, 72, 105
8, 74580, Note_on_c, 6, 72, 0
8, 74640, Note_on_c, 6, 72, 105
8, 74820, Note_on_c, 6, 72, 0
8, 74880, Note_on_c, 6, 70, 105
8, 75060, Note_on_c, 6, 70, 0
8, 75120, Note_on_c, 6, 70, 105
8, 75300, Note_on_c, 6, 70, 0
8, 75360, Note_on_c, 6, 70, 105
8, 75540, Note_on_c, 6, 70, 0
8, 75600, Note_on_c, 6, 70, 105
8, 75780, Note_on_c, 6, 70, 0
8, 75840, Note_on_c, 6, 70, 105
8, 76020, Note_on_c, 6, 70, 0
8, 76080, Note_on_c, 6, 70, 105
8, 76260, Note_on_c, 6, 70, 0
8, 76320, Note_on_c, 6, 70, 105
8, 76500, Note_on_c, 6, 70, 0
8, 76560, Note_on_c, 6, 70, 105
8, 76740, Note_on_c, 6, 70, 0
8, 76800, Note_on_c, 6, 69, 105
8, 76980, Note_on_c, 6, 69, 0
8, 77040, Note_on_c, 6, 69, 105
8, 77220, Note_on_c, 6, 69, 0
8, 77280, Note_on_c, 6, 69, 105
8, 77460, Note_on_c, 6, 69, 0
8, 77520, Note_on_c, 6, 69, 105
8, 77700, Note_on_c, 6, 69, 0
8, 77760, Note_on_c, 6, 69, 105
8, 77940, Note_on_c, 6, 69, 0
8, 78000, Note_on_c, 6, 72, 105
8, 78180, Note_on_c, 6, 72, 0
8, 78240, Note_on_c, 6, 69, 105
8, 78420, Note_on_c, 6, 69, 0
8, 78480, Note_on_c, 6, 72, 105
8, 78660, Note_on_c, 6, 72, 0
8, 78720, Note_on_c, 6, 70, 105
8, 78900, Note_on_c, 6, 70, 0
8, 78960, Note_on_c, 6, 70, 105
8, 79140, Note_on_c, 6, 70, 0
8, 79200, Note_on_c, 6, 70, 105
8, 79380, Note_on_c, 6, 70, 0
8, 79440, Note_on_c, 6, 70, 105
8, 79620, Note_on_c, 6, 70, 0
8, 79680, Note_on_c, 6, 67, 105
8, 79860, Note_on_c, 6, 67, 0
8, 79920, Note_on_c, 6, 64, 105
8, 80100, Note_on_c, 6, 64, 0
8, 80160, Note_on_c, 6, 67, 105
8, 80340, Note_on_c, 6, 67, 0
8, 80400, Note_on_c, 6, 64, 105
8, 80580, Note_on_c, 6, 64, 0
8, 80640, Note_on_c, 6, 65, 105
8, 81024, Note_on_c, 6, 65, 0
8, 81600, Note_on_c, 6, 53, 92
8, 81984, Note_on_c, 6, 53, 0
8, 84480, Note_on_c, 6, 62, 58
8, 85920, Note_on_c, 6, 62, 0
8, 85920, Note_on_c, 6, 60, 58
8, 86400, Note_on_c, 6, 60, 0
8, 86400, Note_on_c, 6, 57, 58
8, 86784, Note_on_c, 6, 57, 0
8, 88800, Note_on_c, 6, 62, 58
8, 89112, Note_on_c, 6, 62, 0
8, 89280, Note_on_c, 6, 62, 58
8, 89760, Note_on_c, 6, 62, 0
8, 89760, Note_on_c, 6, 67, 58
8, 90144, Note_on_c, 6, 67, 0
8, 90240, Note_on_c, 6, 65, 58
8, 91008, Note_on_c, 6, 65, 0
8, 92160, Note_on_c, 6, 55, 58
8, 93600, Note_on_c, 6, 55, 0
8, 93600, Note_on_c, 6, 57, 58
8, 94080, Note_on_c, 6, 57, 0
8, 94080, Note_on_c, 6, 59, 58
8, 94560, Note_on_c, 6, 59, 0
8, 94560, Note_on_c, 6, 60, 58
8, 95040, Note_on_c, 6, 60, 0
8, 95040, Note_on_c, 6, 57, 58
8, 95520, Note_on_c, 6, 57, 0
8, 95520, Note_on_c, 6, 58, 58
8, 95904, Note_on_c, 6, 58, 0
8, 96000, Note_on_c, 6, 55, 58
8, 96384, Note_on_c, 6, 55, 0
8, 96960, Note_on_c, 6, 48, 58
8, 97344, Note_on_c, 6, 48, 0
8, 97920, Note_on_c, 6, 50, 58
8, 98304, Note_on_c, 6, 50, 0
8, 107520, Note_on_c, 6, 55, 70
8, 108960, Note_on_c, 6, 55, 0
8, 108960, Note_on_c, 6, 57, 70
8, 109440, Note_on_c, 6, 57, 0
8, 109440, Note_on_c, 6, 55, 58
8, 110400, Note_on_c, 6, 55, 0
8, 110400, Note_on_c, 6, 53, 58
8, 111360, Note_on_c, 6, 53, 0
8, 111360, Note_on_c, 6, 58, 58
8, 111600, Note_on_c, 6, 58, 0
8, 111600, Note_on_c, 6, 55, 58
8, 111840, Note_on_c, 6, 55, 0
8, 111840, Note_on_c, 6, 58, 58
8, 112080, Note_on_c, 6, 58, 0
8, 112080, Note_on_c, 6, 55, 58
8, 112320, Note_on_c, 6, 55, 0
8, 112320, Note_on_c, 6, 58, 58
8, 112560, Note_on_c, 6, 58, 0
8, 112560, Note_on_c, 6, 55, 58
8, 112800, Note_on_c, 6, 55, 0
8, 112800, Note_on_c, 6, 56, 58
8, 113040, Note_on_c, 6, 56, 0
8, 113040, Note_on_c, 6, 60, 58
8, 113232, Note_on_c, 6, 60, 0
8, 113280, Note_on_c, 6, 58, 58
8, 113520, Note_on_c, 6, 58, 0
8, 113520, Note_on_c, 6, 55, 58
8, 113760, Note_on_c, 6, 55, 0
8, 113760, Note_on_c, 6, 58, 58
8, 114000, Note_on_c, 6, 58, 0
8, 114000, Note_on_c, 6, 55, 58
8, 114240, Note_on_c, 6, 55, 0
8, 114240, Note_on_c, 6, 58, 58
8, 114480, Note_on_c, 6, 58, 0
8, 114480, Note_on_c, 6, 55, 58
8, 114720, Note_on_c, 6, 55, 0
8, 114720, Note_on_c, 6, 56, 58
8, 114960, Note_on_c, 6, 56, 0
8, 114960, Note_on_c, 6, 60, 58
8, 115152, Note_on_c, 6, 60, 0
8, 115200, Note_on_c, 6, 58, 58
8, 115440, Note_on_c, 6, 58, 0
8, 115440, Note_on_c, 6, 55, 58
8, 115680, Note_on_c, 6, 55, 0
8, 115680, Note_on_c, 6, 58, 58
8, 115920, Note_on_c, 6, 58, 0
8, 115920, Note_on_c, 6, 55, 58
8, 116160, Note_on_c, 6, 55, 0
8, 116160, Note_on_c, 6, 58, 58
8, 116400, Note_on_c, 6, 58, 0
8, 116400, Note_on_c, 6, 55, 58
8, 116640, Note_on_c, 6, 55, 0
8, 116640, Note_on_c, 6, 56, 58
8, 116880, Note_on_c, 6, 56, 0
8, 116880, Note_on_c, 6, 60, 58
8, 117072, Note_on_c, 6, 60, 0
8, 117120, Note_on_c, 6, 58, 58
8, 117360, Note_on_c, 6, 58, 0
8, 117360, Note_on_c, 6, 55, 58
8, 117600, Note_on_c, 6, 55, 0
8, 117600, Note_on_c, 6, 58, 58
8, 117840, Note_on_c, 6, 58, 0
8, 117840, Note_on_c, 6, 55, 58
8, 118080, Note_on_c, 6, 55, 0
8, 118080, Note_on_c, 6, 58, 58
8, 118320, Note_on_c, 6, 58, 0
8, 118320, Note_on_c, 6, 55, 58
8, 118560, Note_on_c, 6, 55, 0
8, 118560, Note_on_c, 6, 56, 58
8, 118800, Note_on_c, 6, 56, 0
8, 118800, Note_on_c, 6, 60, 58
8, 118992, Note_on_c, 6, 60, 0
8, 119040, Note_on_c, 6, 55, 58
8, 119256, Note_on_c, 6, 55, 0
8, 119280, Note_on_c, 6, 55, 70
8, 119496, Note_on_c, 6, 55, 0
8, 119520, Note_on_c, 6, 55, 72
8, 119736, Note_on_c, 6, 55, 0
8, 119760, Note_on_c, 6, 55, 75
8, 119976, Note_on_c, 6, 55, 0
8, 120000, Note_on_c, 6, 55, 78
8, 120216, Note_on_c, 6, 55, 0
8, 120240, Note_on_c, 6, 55, 80
8, 120456, Note_on_c, 6, 55, 0
8, 120480, Note_on_c, 6, 55, 83
8, 120696, Note_on_c, 6, 55, 0
8, 120720, Note_on_c, 6, 55, 86
8, 120936, Note_on_c, 6, 55, 0
8, 120960, Note_on_c, 6, 55, 88
8, 121176, Note_on_c, 6, 55, 0
8, 121200, Note_on_c, 6, 67, 91
8, 121416, Note_on_c, 6, 67, 0
8, 121440, Note_on_c, 6, 67, 94
8, 121656, Note_on_c, 6, 67, 0
8, 121680, Note_on_c, 6, 67, 96
8, 121896, Note_on_c, 6, 67, 0
8, 121920, Note_on_c, 6, 67, 99
8, 122136, Note_on_c, 6, 67, 0
8, 122160, Note_on_c, 6, 67, 102
8, 122376, Note_on_c, 6, 67, 0
8, 122400, Note_on_c, 6, 67, 105
8, 122616, Note_on_c, 6, 67, 0
8, 122640, Note_on_c, 6, 67, 107
8, 122856, Note_on_c, 6, 67, 0
8, 122880, Note_on_c, 6, 65, 108
8, 123072, Note_on_c, 6, 65, 0
8, 123120, Note_on_c, 6, 65, 105
8, 123312, Note_on_c, 6, 65, 0
8, 123360, Note_on_c, 6, 65, 105
8, 123552, Note_on_c, 6, 65, 0
8, 123600, Note_on_c, 6, 65, 105
8, 123792, Note_on_c, 6, 65, 0
8, 123840, Note_on_c, 6, 65, 105
8, 124032, Note_on_c, 6, 65, 0
8, 124080, Note_on_c, 6, 65, 105
8, 124272, Note_on_c, 6, 65, 0
8, 124320, Note_on_c, 6, 65, 105
8, 124512, Note_on_c, 6, 65, 0
8, 124560, Note_on_c, 6, 65, 105
8, 124752, Note_on_c, 6, 65, 0
8, 124800, Note_on_c, 6, 53, 105
8, 124992, Note_on_c, 6, 53, 0
8, 125040, Note_on_c, 6, 53, 105
8, 125232, Note_on_c, 6, 53, 0
8, 125280, Note_on_c, 6, 53, 105
8, 125472, Note_on_c, 6, 53, 0
8, 125520, Note_on_c, 6, 53, 105
8, 125712, Note_on_c, 6, 53, 0
8, 125760, Note_on_c, 6, 53, 105
8, 125952, Note_on_c, 6, 53, 0
8, 126000, Note_on_c, 6, 53, 105
8, 126192, Note_on_c, 6, 53, 0
8, 126240, Note_on_c, 6, 53, 105
8, 126432, Note_on_c, 6, 53, 0
8, 126480, Note_on_c, 6, 53, 105
8, 126672, Note_on_c, 6, 53, 0
8, 126720, Note_on_c, 6, 58, 92
8, 127104, Note_on_c, 6, 58, 0
8, 127200, Note_on_c, 6, 50, 125
8, 127968, Note_on_c, 6, 50, 0
8, 128160, Note_on_c, 6, 51, 105
8, 128448, Note_on_c, 6, 51, 0
8, 128640, Note_on_c, 6, 52, 105
8, 128928, Note_on_c, 6, 52, 0
8, 129120, Note_on_c, 6, 53, 105
8, 129408, Note_on_c, 6, 53, 0
8, 129600, Note_on_c, 6, 54, 105
8, 129888, Note_on_c, 6, 54, 0
8, 130080, Note_on_c, 6, 55, 105
8, 130368, Note_on_c, 6, 55, 0
8, 130560, Note_on_c, 6, 56, 105
8, 130944, Note_on_c, 6, 56, 0
8, 131400, Note_on_c, 6, 56, 105
8, 131496, Note_on_c, 6, 56, 0
8, 131520, Note_on_c, 6, 55, 105
8, 131904, Note_on_c, 6, 55, 0
8, 132360, Note_on_c, 6, 55, 105
8, 132456, Note_on_c, 6, 55, 0
8, 132480, Note_on_c, 6, 63, 105
8, 132864, Note_on_c, 6, 63, 0
8, 133320, Note_on_c, 6, 63, 105
8, 133416, Note_on_c, 6, 63, 0
8, 133440, Note_on_c, 6, 62, 105
8, 133824, Note_on_c, 6, 62, 0
8, 134280, Note_on_c, 6, 62, 105
8, 134376, Note_on_c, 6, 62, 0
8, 134400, Note_on_c, 6, 51, 105
8, 134784, Note_on_c, 6, 51, 0
8, 136320, Note_on_c, 6, 53, 58
8, 136704, Note_on_c, 6, 53, 0
8, 141120, Note_on_c, 6, 51, 58
8, 143040, Note_on_c, 6, 51, 0
8, 143040, Note_on_c, 6, 50, 58
8, 143424, Note_on_c, 6, 50, 0
8, 144960, Note_on_c, 6, 51, 58
8, 146880, Note_on_c, 6, 51, 0
8, 146880, Note_on_c, 6, 50, 58
8, 147264, Note_on_c, 6, 50, 0
8, 147840, Note_on_c, 6, 62, 105
8, 148032, Note_on_c, 6, 62, 0
8, 148080, Note_on_c, 6, 62, 105
8, 148272, Note_on_c, 6, 62, 0
8, 148320, Note_on_c, 6, 62, 105
8, 148512, Note_on_c, 6, 62, 0
8, 148560, Note_on_c, 6, 62, 105
8, 148752, Note_on_c, 6, 62, 0
8, 148800, Note_on_c, 6, 62, 105
8, 148992, Note_on_c, 6, 62, 0
8, 149040, Note_on_c, 6, 62, 105
8, 149232, Note_on_c, 6, 62, 0
8, 149280, Note_on_c, 6, 62, 105
8, 149472, Note_on_c, 6, 62, 0
8, 149520, Note_on_c, 6, 62, 105
8, 149712, Note_on_c, 6, 62, 0
8, 149760, Note_on_c, 6, 67, 105
8, 149952, Note_on_c, 6, 67, 0
8, 150000, Note_on_c, 6, 67, 105
8, 150192, Note_on_c, 6, 67, 0
8, 150240, Note_on_c, 6, 67, 105
8, 150432, Note_on_c, 6, 67, 0
8, 150480, Note_on_c, 6, 67, 105
8, 150672, Note_on_c, 6, 67, 0
8, 150720, Note_on_c, 6, 63, 105
8, 150912, Note_on_c, 6, 63, 0
8, 150960, Note_on_c, 6, 63, 105
8, 151152, Note_on_c, 6, 63, 0
8, 151200, Note_on_c, 6, 63, 105
8, 151392, Note_on_c, 6, 63, 0
8, 151440, Note_on_c, 6, 63, 105
8, 151632, Note_on_c, 6, 63, 0
8, 151680, Note_on_c, 6, 65, 105
8, 151872, Note_on_c, 6, 65, 0
8, 151920, Note_on_c, 6, 65, 105
8, 152112, Note_on_c, 6, 65, 0
8, 152160, Note_on_c, 6, 65, 105
8, 152352, Note_on_c, 6, 65, 0
8, 152400, Note_on_c, 6, 65, 105
8, 152592, Note_on_c, 6, 65, 0
8, 152640, Note_on_c, 6, 53, 105
8, 152832, Note_on_c, 6, 53, 0
8, 152880, Note_on_c, 6, 53, 105
8, 153072, Note_on_c, 6, 53, 0
8, 153120, Note_on_c, 6, 53, 105
8, 153312, Note_on_c, 6, 53, 0
8, 153360, Note_on_c, 6, 53, 105
8, 153552, Note_on_c, 6, 53, 0
8, 153600, Note_on_c, 6, 58, 92
8, 153984, Note_on_c, 6, 58, 0
8, 154560, Note_on_c, 6, 70, 58
8, 156480, Note_on_c, 6, 70, 0
8, 156480, Note_on_c, 6, 69, 58
8, 156864, Note_on_c, 6, 69, 0
8, 158400, Note_on_c, 6, 58, 58
8, 160320, Note_on_c, 6, 58, 0
8, 160320, Note_on_c, 6, 57, 58
8, 160704, Note_on_c, 6, 57, 0
8, 163200, Note_on_c, 6, 62, 105
8, 163392, Note_on_c, 6, 62, 0
8, 163440, Note_on_c, 6, 62, 105
8, 163632, Note_on_c, 6, 62, 0
8, 163680, Note_on_c, 6, 62, 105
8, 163872, Note_on_c, 6, 62, 0
8, 163920, Note_on_c, 6, 62, 105
8, 164112, Note_on_c, 6, 62, 0
8, 164160, Note_on_c, 6, 62, 105
8, 164352, Note_on_c, 6, 62, 0
8, 164400, Note_on_c, 6, 62, 105
8, 164592, Note_on_c, 6, 62, 0
8, 164640, Note_on_c, 6, 62, 105
8, 164832, Note_on_c, 6, 62, 0
8, 164880, Note_on_c, 6, 62, 105
8, 165072, Note_on_c, 6, 62, 0
8, 165120, Note_on_c, 6, 67, 105
8, 165312, Note_on_c, 6, 67, 0
8, 165360, Note_on_c, 6, 67, 105
8, 165552, Note_on_c, 6, 67, 0
8, 165600, Note_on_c, 6, 67, 105
8, 165792, Note_on_c, 6, 67, 0
8, 165840, Note_on_c, 6, 67, 105
8, 166032, Note_on_c, 6, 67, 0
8, 166080, Note_on_c, 6, 63, 105
8, 166272, Note_on_c, 6, 63, 0
8, 166320, Note_on_c, 6, 63, 105
8, 166512, Note_on_c, 6, 63, 0
8, 166560, Note_on_c, 6, 63, 105
8, 166752, Note_on_c, 6, 63, 0
8, 166800, Note_on_c, 6, 63, 105
8, 166992, Note_on_c, 6, 63, 0
8, 167040, Note_on_c, 6, 65, 105
8, 167232, Note_on_c, 6, 65, 0
8, 167280, Note_on_c, 6, 65, 105
8, 167472, Note_on_c, 6, 65, 0
8, 167520, Note_on_c, 6, 65, 105
8, 167712, Note_on_c, 6, 65, 0
8, 167760, Note_on_c, 6, 65, 105
8, 167952, Note_on_c, 6, 65, 0
8, 168000, Note_on_c, 6, 53, 105
8, 168192, Note_on_c, 6, 53, 0
8, 168240, Note_on_c, 6, 53, 105
8, 168432, Note_on_c, 6, 53, 0
8, 168480, Note_on_c, 6, 53, 105
8, 168672, Note_on_c, 6, 53, 0
8, 168720, Note_on_c, 6, 53, 105
8, 168912, Note_on_c, 6, 53, 0
8, 168960, Note_on_c, 6, 58, 105
8, 169728, Note_on_c, 6, 58, 0
8, 170640, Note_on_c, 6, 77, 105
8, 170832, Note_on_c, 6, 77, 0
8, 170880, Note_on_c, 6, 75, 105
8, 171072, Note_on_c, 6, 75, 0
8, 171120, Note_on_c, 6, 74, 105
8, 171312, Note_on_c, 6, 74, 0
8, 171360, Note_on_c, 6, 72, 105
8, 171552, Note_on_c, 6, 72, 0
8, 171600, Note_on_c, 6, 70, 105
8, 171792, Note_on_c, 6, 70, 0
8, 171840, Note_on_c, 6, 69, 105
8, 172032, Note_on_c, 6, 69, 0
8, 172080, Note_on_c, 6, 67, 105
8, 172272, Note_on_c, 6, 67, 0
8, 172320, Note_on_c, 6, 65, 105
8, 172512, Note_on_c, 6, 65, 0
8, 172560, Note_on_c, 6, 63, 105
8, 172752, Note_on_c, 6, 63, 0
8, 172800, Note_on_c, 6, 62, 105
8, 173136, Note_on_c, 6, 62, 0
8, 173280, Note_on_c, 6, 62, 105
8, 173616, Note_on_c, 6, 62, 0
8, 173760, Note_on_c, 6, 63, 105
8, 174096, Note_on_c, 6, 63, 0
8, 174240, Note_on_c, 6, 65, 105
8, 174576, Note_on_c, 6, 65, 0
8, 174720, Note_on_c, 6, 70, 105
8, 174912, Note_on_c, 6, 70, 0
8, 174960, Note_on_c, 6, 65, 105
8, 175152, Note_on_c, 6, 65, 0
8, 175200, Note_on_c, 6, 74, 105
8, 175392, Note_on_c, 6, 74, 0
8, 175440, Note_on_c, 6, 72, 105
8, 175632, Note_on_c, 6, 72, 0
8, 175680, Note_on_c, 6, 70, 105
8, 175872, Note_on_c, 6, 70, 0
8, 175920, Note_on_c, 6, 69, 105
8, 176112, Note_on_c, 6, 69, 0
8, 176160, Note_on_c, 6, 67, 105
8, 176352, Note_on_c, 6, 67, 0
8, 176400, Note_on_c, 6, 65, 105
8, 176592, Note_on_c, 6, 65, 0
8, 176640, Note_on_c, 6, 63, 105
8, 176832, Note_on_c, 6, 63, 0
8, 176880, Note_on_c, 6, 62, 105
8, 177072, Note_on_c, 6, 62, 0
8, 177120, Note_on_c, 6, 60, 105
8, 177312, Note_on_c, 6, 60, 0
8, 177360, Note_on_c, 6, 58, 105
8, 177552, Note_on_c, 6, 58, 0
8, 177600, Note_on_c, 6, 57, 105
8, 177792, Note_on_c, 6, 57, 0
8, 177840, Note_on_c, 6, 60, 105
8, 178032, Note_on_c, 6, 60, 0
8, 178080, Note_on_c, 6, 65, 105
8, 178272, Note_on_c, 6, 65, 0
8, 178320, Note_on_c, 6, 63, 105
8, 178512, Note_on_c, 6, 63, 0
8, 178560, Note_on_c, 6, 62, 105
8, 178896, Note_on_c, 6, 62, 0
8, 179040, Note_on_c, 6, 62, 105
8, 179376, Note_on_c, 6, 62, 0
8, 179520, Note_on_c, 6, 63, 105
8, 179856, Note_on_c, 6, 63, 0
8, 180000, Note_on_c, 6, 65, 105
8, 180336, Note_on_c, 6, 65, 0
8, 180480, Note_on_c, 6, 67, 105
8, 180816, Note_on_c, 6, 67, 0
8, 180960, Note_on_c, 6, 63, 105
8, 181296, Note_on_c, 6, 63, 0
8, 181440, Note_on_c, 6, 65, 105
8, 181776, Note_on_c, 6, 65, 0
8, 181920, Note_on_c, 6, 53, 105
8, 182256, Note_on_c, 6, 53, 0
8, 182400, Note_on_c, 6, 58, 105
8, 182784, Note_on_c, 6, 58, 0
8, 183360, Note_on_c, 6, 65, 105
8, 183744, Note_on_c, 6, 65, 0
8, 184320, Note_on_c, 6, 70, 105
8, 184704, Note_on_c, 6, 70, 0
8, 185280, Note_on_c, 6, 65, 105
8, 185664, Note_on_c, 6, 65, 0
8, 186240, Note_on_c, 6, 70, 105
8, 186624, Note_on_c, 6, 70, 0
8, 187200, Note_on_c, 6, 65, 105
8, 187584, Note_on_c, 6, 65, 0
8, 188160, Note_on_c, 6, 70, 105
8, 188520, Note_on_c, 6, 70, 0
8, 188640, Note_on_c, 6, 65, 105
8, 189000, Note_on_c, 6, 65, 0
8, 189120, Note_on_c, 6, 70, 105
8, 189480, Note_on_c, 6, 70, 0
8, 189600, Note_on_c, 6, 65, 105
8, 189960, Note_on_c, 6, 65, 0
8, 190080, Note_on_c, 6, 70, 105
8, 190464, Note_on_c, 6, 70, 0
8, 192000, Note_on_c, 6, 69, 105
8, 192384, Note_on_c, 6, 69, 0
8, 193920, Note_on_c, 6, 58, 58
8, 193920, Note_on_c, 6, 55, 58
8, 194100, Note_on_c, 6, 55, 0
8, 194100, Note_on_c, 6, 58, 0
8, 194160, Note_on_c, 6, 55, 58
8, 194160, Note_on_c, 6, 58, 58
8, 194340, Note_on_c, 6, 58, 0
8, 194340, Note_on_c, 6, 55, 0
8, 194400, Note_on_c, 6, 67, 58
8, 194400, Note_on_c, 6, 58, 58
8, 194580, Note_on_c, 6, 58, 0
8, 194580, Note_on_c, 6, 67, 0
8, 194640, Note_on_c, 6, 58, 58
8, 194640, Note_on_c, 6, 67, 58
8, 194820, Note_on_c, 6, 67, 0
8, 194820, Note_on_c, 6, 58, 0
8, 194880, Note_on_c, 6, 55, 58
8, 194880, Note_on_c, 6, 58, 58
8, 195060, Note_on_c, 6, 58, 0
8, 195060, Note_on_c, 6, 55, 0
8, 195120, Note_on_c, 6, 55, 58
8, 195120, Note_on_c, 6, 58, 58
8, 195300, Note_on_c, 6, 58, 0
8, 195300, Note_on_c, 6, 55, 0
8, 195360, Note_on_c, 6, 67, 58
8, 195360, Note_on_c, 6, 58, 58
8, 195540, Note_on_c, 6, 58, 0
8, 195540, Note_on_c, 6, 67, 0
8, 195600, Note_on_c, 6, 67, 58
8, 195600, Note_on_c, 6, 58, 58
8, 195780, Note_on_c, 6, 58, 0
8, 195780, Note_on_c, 6, 67, 0
8, 195840, Note_on_c, 6, 58, 58
8, 195840, Note_on_c, 6, 55, 58
8, 196020, Note_on_c, 6, 55, 0
8, 196020, Note_on_c, 6, 58, 0
8, 196080, Note_on_c, 6, 55, 58
8, 196080, Note_on_c, 6, 58, 58
8, 196260, Note_on_c, 6, 58, 0
8, 196260, Note_on_c, 6, 55, 0
8, 196320, Note_on_c, 6, 58, 58
8, 196320, Note_on_c, 6, 67, 58
8, 196500, Note_on_c, 6, 67, 0
8, 196500, Note_on_c, 6, 58, 0
8, 196560, Note_on_c, 6, 58, 58
8, 196560, Note_on_c, 6, 67, 58
8, 196740, Note_on_c, 6, 67, 0
8, 196740, Note_on_c, 6, 58, 0
8, 196800, Note_on_c, 6, 55, 58
8, 196800, Note_on_c, 6, 58, 58
8, 196980, Note_on_c, 6, 58, 0
8, 196980, Note_on_c, 6, 55, 0
8, 197040, Note_on_c, 6, 55, 58
8, 197040, Note_on_c, 6, 58, 58
8, 197220, Note_on_c, 6, 58, 0
8, 197220, Note_on_c, 6, 55, 0
8, 197280, Note_on_c, 6, 67, 58
8, 197280, Note_on_c, 6, 58, 58
8, 197460, Note_on_c, 6, 58, 0
8, 197460, Note_on_c, 6, 67, 0
8, 197520, Note_on_c, 6, 67, 58
8, 197520, Note_on_c, 6, 58, 58
8, 197700, Note_on_c, 6, 58, 0
8, 197700, Note_on_c, 6, 67, 0
8, 197760, Note_on_c, 6, 58, 58
8, 197760, Note_on_c, 6, 55, 58
8, 197940, Note_on_c, 6, 55, 0
8, 197940, Note_on_c, 6, 58, 0
8, 198000, Note_on_c, 6, 58, 58
8, 198000, Note_on_c, 6, 55, 58
8, 198180, Note_on_c, 6, 55, 0
8, 198180, Note_on_c, 6, 58, 0
8, 198240, Note_on_c, 6, 58, 58
8, 198240, Note_on_c, 6, 67, 58
8, 198420, Note_on_c, 6, 67, 0
8, 198420, Note_on_c, 6, 58, 0
8, 198480, Note_on_c, 6, 58, 58
8, 198480, Note_on_c, 6, 67, 58
8, 198660, Note_on_c, 6, 67, 0
8, 198660, Note_on_c, 6, 58, 0
8, 198720, Note_on_c, 6, 58, 58
8, 198720, Note_on_c, 6, 55, 58
8, 198900, Note_on_c, 6, 55, 0
8, 198900, Note_on_c, 6, 58, 0
8, 198960, Note_on_c, 6, 58, 58
8, 198960, Note_on_c, 6, 55, 58
8, 199140, Note_on_c, 6, 55, 0
8, 199140, Note_on_c, 6, 58, 0
8, 199200, Note_on_c, 6, 67, 58
8, 199200, Note_on_c, 6, 58, 58
8, 199380, Note_on_c, 6, 58, 0
8, 199380, Note_on_c, 6, 67, 0
8, 199440, Note_on_c, 6, 58, 58
8, 199440, Note_on_c, 6, 67, 58
8, 199620, Note_on_c, 6, 67, 0
8, 199620, Note_on_c, 6, 58, 0
8, 199680, Note_on_c, 6, 58, 58
8, 199680, Note_on_c, 6, 55, 58
8, 199860, Note_on_c, 6, 55, 0
8, 199860, Note_on_c, 6, 58, 0
8, 199920, Note_on_c, 6, 55, 58
8, 199920, Note_on_c, 6, 58, 58
8, 200100, Note_on_c, 6, 58, 0
8, 200100, Note_on_c, 6, 55, 0
8, 200160, Note_on_c, 6, 58, 58
8, 200160, Note_on_c, 6, 62, 58
8, 200340, Note_on_c, 6, 62, 0
8, 200340, Note_on_c, 6, 58, 0
8, 200400, Note_on_c, 6, 58, 58
8, 200400, Note_on_c, 6, 62, 58
8, 200580, Note_on_c, 6, 62, 0
8, 200580, Note_on_c, 6, 58, 0
8, 200640, Note_on_c, 6, 55, 58
8, 200640, Note_on_c, 6, 58, 58
8, 200820, Note_on_c, 6, 58, 0
8, 200820, Note_on_c, 6, 55, 0
8, 200880, Note_on_c, 6, 55, 58
8, 200880, Note_on_c, 6, 58, 58
8, 201060, Note_on_c, 6, 58, 0
8, 201060, Note_on_c, 6, 55, 0
8, 201120, Note_on_c, 6, 58, 58
8, 201120, Note_on_c, 6, 67, 58
8, 201300, Note_on_c, 6, 67, 0
8, 201300, Note_on_c, 6, 58, 0
8, 201360, Note_on_c, 6, 58, 58
8, 201360, Note_on_c, 6, 67, 58
8, 201540, Note_on_c, 6, 67, 0
8, 201540, Note_on_c, 6, 58, 0
8, 201600, Note_on_c, 6, 57, 58
8, 201600, Note_on_c, 6, 63, 58
8, 201780, Note_on_c, 6, 63, 0
8, 201780, Note_on_c, 6, 57, 0
8, 201840, Note_on_c, 6, 57, 58
8, 201840, Note_on_c, 6, 63, 58
8, 202020, Note_on_c, 6, 63, 0
8, 202020, Note_on_c, 6, 57, 0
8, 202080, Note_on_c, 6, 69, 58
8, 202080, Note_on_c, 6, 63, 58
8, 202260, Note_on_c, 6, 63, 0
8, 202260, Note_on_c, 6, 69, 0
8, 202320, Note_on_c, 6, 63, 58
8, 202320, Note_on_c, 6, 69, 58
8, 202500, Note_on_c, 6, 69, 0
8, 202500, Note_on_c, 6, 63, 0
8, 202560, Note_on_c, 6, 57, 58
8, 202560, Note_on_c, 6, 63, 58
8, 202740, Note_on_c, 6, 63, 0
8, 202740, Note_on_c, 6, 57, 0
8, 202800, Note_on_c, 6, 57, 58
8, 202800, Note_on_c, 6, 63, 58
8, 202980, Note_on_c, 6, 63, 0
8, 202980, Note_on_c, 6, 57, 0
8, 203040, Note_on_c, 6, 63, 58
8, 203040, Note_on_c, 6, 69, 58
8, 203220, Note_on_c, 6, 69, 0
8, 203220, Note_on_c, 6, 63, 0
8, 203280, Note_on_c, 6, 69, 58
8, 203280, Note_on_c, 6, 63, 58
8, 203460, Note_on_c, 6, 63, 0
8, 203460, Note_on_c, 6, 69, 0
8, 203520, Note_on_c, 6, 63, 58
8, 203520, Note_on_c, 6, 57, 58
8, 203700, Note_on_c, 6, 57, 0
8, 203700, Note_on_c, 6, 63, 0
8, 203760, Note_on_c, 6, 57, 58
8, 203760, Note_on_c, 6, 63, 58
8, 203940, Note_on_c, 6, 63, 0
8, 203940, Note_on_c, 6, 57, 0
8, 204000, Note_on_c, 6, 63, 58
8, 204000, Note_on_c, 6, 69, 58
8, 204180, Note_on_c, 6, 69, 0
8, 204180, Note_on_c, 6, 63, 0
8, 204240, Note_on_c, 6, 69, 58
8, 204240, Note_on_c, 6, 63, 58
8, 204420, Note_on_c, 6, 63, 0
8, 204420, Note_on_c, 6, 69, 0
8, 204480, Note_on_c, 6, 57, 58
8, 204480, Note_on_c, 6, 63, 58
8, 204660, Note_on_c, 6, 63, 0
8, 204660, Note_on_c, 6, 57, 0
8, 204720, Note_on_c, 6, 57, 58
8, 204720, Note_on_c, 6, 63, 58
8, 204900, Note_on_c, 6, 63, 0
8, 204900, Note_on_c, 6, 57, 0
8, 204960, Note_on_c, 6, 63, 58
8, 204960, Note_on_c, 6, 69, 58
8, 205140, Note_on_c, 6, 69, 0
8, 205140, Note_on_c, 6, 63, 0
8, 205200, Note_on_c, 6, 63, 58
8, 205200, Note_on_c, 6, 69, 58
8, 205380, Note_on_c, 6, 69, 0
8, 205380, Note_on_c, 6, 63, 0
8, 205440, Note_on_c, 6, 57, 58
8, 205440, Note_on_c, 6, 62, 58
8, 205620, Note_on_c, 6, 62, 0
8, 205620, Note_on_c, 6, 57, 0
8, 205680, Note_on_c, 6, 57, 58
8, 205680, Note_on_c, 6, 62, 58
8, 205860, Note_on_c, 6, 62, 0
8, 205860, Note_on_c, 6, 57, 0
8, 205920, Note_on_c, 6, 72, 58
8, 205920, Note_on_c, 6, 62, 58
8, 206100, Note_on_c, 6, 62, 0
8, 206100, Note_on_c, 6, 72, 0
8, 206160, Note_on_c, 6, 62, 58
8, 206160, Note_on_c, 6, 72, 58
8, 206340, Note_on_c, 6, 72, 0
8, 206340, Note_on_c, 6, 62, 0
8, 206400, Note_on_c, 6, 62, 58
8, 206400, Note_on_c, 6, 57, 58
8, 206580, Note_on_c, 6, 57, 0
8, 206580, Note_on_c, 6, 62, 0
8, 206640, Note_on_c, 6, 62, 58
8, 206640, Note_on_c, 6, 57, 58
8, 206820, Note_on_c, 6, 57, 0
8, 206820, Note_on_c, 6, 62, 0
8, 206880, Note_on_c, 6, 72, 58
8, 206880, Note_on_c, 6, 62, 58
8, 207060, Note_on_c, 6, 62, 0
8, 207060, Note_on_c, 6, 72, 0
8, 207120, Note_on_c, 6, 72, 58
8, 207120, Note_on_c, 6, 62, 58
8, 207300, Note_on_c, 6, 62, 0
8, 207300, Note_on_c, 6, 72, 0
8, 207360, Note_on_c, 6, 57, 58
8, 207360, Note_on_c, 6, 60, 58
8, 207540, Note_on_c, 6, 60, 0
8, 207540, Note_on_c, 6, 57, 0
8, 207600, Note_on_c, 6, 60, 58
8, 207600, Note_on_c, 6, 57, 58
8, 207780, Note_on_c, 6, 57, 0
8, 207780, Note_on_c, 6, 60, 0
8, 207840, Note_on_c, 6, 60, 58
8, 207840, Note_on_c, 6, 69, 58
8, 208020, Note_on_c, 6, 69, 0
8, 208020, Note_on_c, 6, 60, 0
8, 208080, Note_on_c, 6, 60, 58
8, 208080, Note_on_c, 6, 69, 58
8, 208260, Note_on_c, 6, 69, 0
8, 208260, Note_on_c, 6, 60, 0
8, 208320, Note_on_c, 6, 57, 58
8, 208320, Note_on_c, 6, 66, 58
8, 208500, Note_on_c, 6, 66, 0
8, 208500, Note_on_c, 6, 57, 0
8, 208560, Note_on_c, 6, 66, 58
8, 208560, Note_on_c, 6, 57, 58
8, 208740, Note_on_c, 6, 57, 0
8, 208740, Note_on_c, 6, 66, 0
8, 208800, Note_on_c, 6, 66, 58
8, 208800, Note_on_c, 6, 69, 58
8, 208980, Note_on_c, 6, 69, 0
8, 208980, Note_on_c, 6, 66, 0
8, 209040, Note_on_c, 6, 66, 58
8, 209040, Note_on_c, 6, 69, 58
8, 209220, Note_on_c, 6, 69, 0
8, 209220, Note_on_c, 6, 66, 0
8, 209280, Note_on_c, 6, 55, 58
8, 209280, Note_on_c, 6, 58, 58
8, 209460, Note_on_c, 6, 58, 0
8, 209460, Note_on_c, 6, 55, 0
8, 209520, Note_on_c, 6, 55, 58
8, 209520, Note_on_c, 6, 58, 58
8, 209700, Note_on_c, 6, 58, 0
8, 209700, Note_on_c, 6, 55, 0
8, 209760, Note_on_c, 6, 67, 58
8, 209760, Note_on_c, 6, 58, 58
8, 209940, Note_on_c, 6, 58, 0
8, 209940, Note_on_c, 6, 67, 0
8, 210000, Note_on_c, 6, 67, 58
8, 210000, Note_on_c, 6, 58, 58
8, 210180, Note_on_c, 6, 58, 0
8, 210180, Note_on_c, 6, 67, 0
8, 210240, Note_on_c, 6, 55, 58
8, 210240, Note_on_c, 6, 58, 58
8, 210420, Note_on_c, 6, 58, 0
8, 210420, Note_on_c, 6, 55, 0
8, 210480, Note_on_c, 6, 58, 58
8, 210480, Note_on_c, 6, 55, 58
8, 210660, Note_on_c, 6, 55, 0
8, 210660, Note_on_c, 6, 58, 0
8, 210720, Note_on_c, 6, 67, 58
8, 210720, Note_on_c, 6, 58, 58
8, 210900, Note_on_c, 6, 58, 0
8, 210900, Note_on_c, 6, 67, 0
8, 210960, Note_on_c, 6, 58, 58
8, 210960, Note_on_c, 6, 67, 58
8, 211140, Note_on_c, 6, 67, 0
8, 211140, Note_on_c, 6, 58, 0
8, 211200, Note_on_c, 6, 63, 58
8, 211200, Note_on_c, 6, 57, 58
8, 211380, Note_on_c, 6, 57, 0
8, 211380, Note_on_c, 6, 63, 0
8, 211440, Note_on_c, 6, 63, 58
8, 211440, Note_on_c, 6, 57, 58
8, 211620, Note_on_c, 6, 57, 0
8, 211620, Note_on_c, 6, 63, 0
8, 211680, Note_on_c, 6, 63, 58
8, 211680, Note_on_c, 6, 66, 58
8, 211860, Note_on_c, 6, 66, 0
8, 211860, Note_on_c, 6, 63, 0
8, 211920, Note_on_c, 6, 63, 58
8, 211920, Note_on_c, 6, 66, 58
8, 212100, Note_on_c, 6, 66, 0
8, 212100, Note_on_c, 6, 63, 0
8, 212160, Note_on_c, 6, 63, 58
8, 212160, Note_on_c, 6, 57, 58
8, 212340, Note_on_c, 6, 57, 0
8, 212340, Note_on_c, 6, 63, 0
8, 212400, Note_on_c, 6, 63, 58
8, 212400, Note_on_c, 6, 57, 58
8, 212580, Note_on_c, 6, 57, 0
8, 212580, Note_on_c, 6, 63, 0
8, 212640, Note_on_c, 6, 63, 58
8, 212640, Note_on_c, 6, 66, 58
8, 212820, Note_on_c, 6, 66, 0
8, 212820, Note_on_c, 6, 63, 0
8, 212880, Note_on_c, 6, 66, 58
8, 212880, Note_on_c, 6, 63, 58
8, 213060, Note_on_c, 6, 63, 0
8, 213060, Note_on_c, 6, 66, 0
8, 213120, Note_on_c, 6, 55, 58
8, 213120, Note_on_c, 6, 58, 58
8, 213300, Note_on_c, 6, 58, 0
8, 213300, Note_on_c, 6, 55, 0
8, 213360, Note_on_c, 6, 58, 58
8, 213360, Note_on_c, 6, 55, 58
8, 213540, Note_on_c, 6, 55, 0
8, 213540, Note_on_c, 6, 58, 0
8, 213600, Note_on_c, 6, 58, 58
8, 213600, Note_on_c, 6, 67, 58
8, 213780, Note_on_c, 6, 67, 0
8, 213780, Note_on_c, 6, 58, 0
8, 213840, Note_on_c, 6, 67, 58
8, 213840, Note_on_c, 6, 58, 58
8, 214020, Note_on_c, 6, 58, 0
8, 214020, Note_on_c, 6, 67, 0
8, 214080, Note_on_c, 6, 55, 58
8, 214080, Note_on_c, 6, 58, 58
8, 214260, Note_on_c, 6, 58, 0
8, 214260, Note_on_c, 6, 55, 0
8, 214320, Note_on_c, 6, 58, 58
8, 214320, Note_on_c, 6, 55, 58
8, 214500, Note_on_c, 6, 55, 0
8, 214500, Note_on_c, 6, 58, 0
8, 214560, Note_on_c, 6, 67, 58
8, 214560, Note_on_c, 6, 58, 58
8, 214740, Note_on_c, 6, 58, 0
8, 214740, Note_on_c, 6, 67, 0
8, 214800, Note_on_c, 6, 67, 58
8, 214800, Note_on_c, 6, 58, 58
8, 214980, Note_on_c, 6, 58, 0
8, 214980, Note_on_c, 6, 67, 0
8, 215040, Note_on_c, 6, 63, 58
8, 215040, Note_on_c, 6, 57, 58
8, 215220, Note_on_c, 6, 57, 0
8, 215220, Note_on_c, 6, 63, 0
8, 215280, Note_on_c, 6, 63, 58
8, 215280, Note_on_c, 6, 57, 58
8, 215460, Note_on_c, 6, 57, 0
8, 215460, Note_on_c, 6, 63, 0
8, 215520, Note_on_c, 6, 66, 58
8, 215520, Note_on_c, 6, 63, 58
8, 215700, Note_on_c, 6, 63, 0
8, 215700, Note_on_c, 6, 66, 0
8, 215760, Note_on_c, 6, 63, 58
8, 215760, Note_on_c, 6, 66, 58
8, 215940, Note_on_c, 6, 66, 0
8, 215940, Note_on_c, 6, 63, 0
8, 216000, Note_on_c, 6, 57, 58
8, 216000, Note_on_c, 6, 63, 58
8, 216180, Note_on_c, 6, 63, 0
8, 216180, Note_on_c, 6, 57, 0
8, 216240, Note_on_c, 6, 57, 58
8, 216240, Note_on_c, 6, 63, 58
8, 216420, Note_on_c, 6, 63, 0
8, 216420, Note_on_c, 6, 57, 0
8, 216480, Note_on_c, 6, 63, 58
8, 216480, Note_on_c, 6, 66, 58
8, 216660, Note_on_c, 6, 66, 0
8, 216660, Note_on_c, 6, 63, 0
8, 216720, Note_on_c, 6, 66, 58
8, 216720, Note_on_c, 6, 63, 58
8, 216900, Note_on_c, 6, 63, 0
8, 216900, Note_on_c, 6, 66, 0
8, 216960, Note_on_c, 6, 55, 58
8, 216960, Note_on_c, 6, 62, 58
8, 218784, Note_on_c, 6, 62, 0
8, 218784, Note_on_c, 6, 55, 0
8, 218880, Note_on_c, 6, 58, 58
8, 220320, Note_on_c, 6, 58, 0
8, 220320, Note_on_c, 6, 57, 58
8, 220800, Note_on_c, 6, 57, 0
8, 220800, Note_on_c, 6, 55, 58
8, 221760, Note_on_c, 6, 55, 0
8, 221760, Note_on_c, 6, 54, 58
8, 222240, Note_on_c, 6, 54, 0
8, 222240, Note_on_c, 6, 55, 58
8, 222624, Note_on_c, 6, 55, 0
8, 222720, Note_on_c, 6, 57, 58
8, 223488, Note_on_c, 6, 57, 0
8, 224160, Note_on_c, 6, 62, 105
8, 224340, Note_on_c, 6, 62, 0
8, 224400, Note_on_c, 6, 62, 105
8, 224580, Note_on_c, 6, 62, 0
8, 224640, Note_on_c, 6, 62, 105
8, 225408, Note_on_c, 6, 62, 0
8, 226080, Note_on_c, 6, 62, 105
8, 226260, Note_on_c, 6, 62, 0
8, 226320, Note_on_c, 6, 62, 105
8, 226500, Note_on_c, 6, 62, 0
8, 226560, Note_on_c, 6, 62, 105
8, 227328, Note_on_c, 6, 62, 0
8, 228000, Note_on_c, 6, 62, 105
8, 228180, Note_on_c, 6, 62, 0
8, 228240, Note_on_c, 6, 62, 105
8, 228420, Note_on_c, 6, 62, 0
8, 228480, Note_on_c, 6, 62, 105
8, 228840, Note_on_c, 6, 62, 0
8, 228960, Note_on_c, 6, 62, 105
8, 229140, Note_on_c, 6, 62, 0
8, 229200, Note_on_c, 6, 62, 105
8, 229380, Note_on_c, 6, 62, 0
8, 229440, Note_on_c, 6, 62, 105
8, 229800, Note_on_c, 6, 62, 0
8, 229920, Note_on_c, 6, 62, 105
8, 230100, Note_on_c, 6, 62, 0
8, 230160, Note_on_c, 6, 62, 105
8, 230340, Note_on_c, 6, 62, 0
8, 230400, Note_on_c, 6, 62, 105
8, 231168, Note_on_c, 6, 62, 0
8, 234240, Note_on_c, 6, 58, 58
8, 234240, Note_on_c, 6, 55, 58
8, 234420, Note_on_c, 6, 55, 0
8, 234420, Note_on_c, 6, 58, 0
8, 234480, Note_on_c, 6, 58, 58
8, 234480, Note_on_c, 6, 55, 58
8, 234660, Note_on_c, 6, 55, 0
8, 234660, Note_on_c, 6, 58, 0
8, 234720, Note_on_c, 6, 58, 58
8, 234720, Note_on_c, 6, 67, 58
8, 234900, Note_on_c, 6, 67, 0
8, 234900, Note_on_c, 6, 58, 0
8, 234960, Note_on_c, 6, 67, 58
8, 234960, Note_on_c, 6, 58, 58
8, 235140, Note_on_c, 6, 58, 0
8, 235140, Note_on_c, 6, 67, 0
8, 235200, Note_on_c, 6, 55, 58
8, 235200, Note_on_c, 6, 58, 58
8, 235380, Note_on_c, 6, 58, 0
8, 235380, Note_on_c, 6, 55, 0
8, 235440, Note_on_c, 6, 55, 58
8, 235440, Note_on_c, 6, 58, 58
8, 235620, Note_on_c, 6, 58, 0
8, 235620, Note_on_c, 6, 55, 0
8, 235680, Note_on_c, 6, 67, 58
8, 235680, Note_on_c, 6, 58, 58
8, 235860, Note_on_c, 6, 58, 0
8, 235860, Note_on_c, 6, 67, 0
8, 235920, Note_on_c, 6, 58, 58
8, 235920, Note_on_c, 6, 67, 58
8, 236100, Note_on_c, 6, 67, 0
8, 236100, Note_on_c, 6, 58, 0
8, 236160, Note_on_c, 6, 58, 58
8, 236160, Note_on_c, 6, 55, 58
8, 236340, Note_on_c, 6, 55, 0
8, 236340, Note_on_c, 6, 58, 0
8, 236400, Note_on_c, 6, 55, 58
8, 236400, Note_on_c, 6, 58, 58
8, 236580, Note_on_c, 6, 58, 0
8, 236580, Note_on_c, 6, 55, 0
8, 236640, Note_on_c, 6, 58, 58
8, 236640, Note_on_c, 6, 62, 58
8, 236820, Note_on_c, 6, 62, 0
8, 236820, Note_on_c, 6, 58, 0
8, 236880, Note_on_c, 6, 62, 58
8, 236880, Note_on_c, 6, 58, 58
8, 237060, Note_on_c, 6, 58, 0
8, 237060, Note_on_c, 6, 62, 0
8, 237120, Note_on_c, 6, 58, 58
8, 237120, Note_on_c, 6, 55, 58
8, 237300, Note_on_c, 6, 55, 0
8, 237300, Note_on_c, 6, 58, 0
8, 237360, Note_on_c, 6, 58, 58
8, 237360, Note_on_c, 6, 55, 58
8, 237540, Note_on_c, 6, 55, 0
8, 237540, Note_on_c, 6, 58, 0
8, 237600, Note_on_c, 6, 67, 58
8, 237600, Note_on_c, 6, 58, 58
8, 237780, Note_on_c, 6, 58, 0
8, 237780, Note_on_c, 6, 67, 0
8, 237840, Note_on_c, 6, 58, 58
8, 237840, Note_on_c, 6, 67, 58
8, 238020, Note_on_c, 6, 67, 0
8, 238020, Note_on_c, 6, 58, 0
8, 238080, Note_on_c, 6, 55, 58
8, 238080, Note_on_c, 6, 58, 58
8, 238260, Note_on_c, 6, 58, 0
8, 238260, Note_on_c, 6, 55, 0
8, 238320, Note_on_c, 6, 55, 58
8, 238320, Note_on_c, 6, 58, 58
8, 238500, Note_on_c, 6, 58, 0
8, 238500, Note_on_c, 6, 55, 0
8, 238560, Note_on_c, 6, 58, 58
8, 238560, Note_on_c, 6, 67, 58
8, 238740, Note_on_c, 6, 67, 0
8, 238740, Note_on_c, 6, 58, 0
8, 238800, Note_on_c, 6, 58, 58
8, 238800, Note_on_c, 6, 67, 58
8, 238980, Note_on_c, 6, 67, 0
8, 238980, Note_on_c, 6, 58, 0
8, 239040, Note_on_c, 6, 58, 58
8, 239040, Note_on_c, 6, 55, 58
8, 239220, Note_on_c, 6, 55, 0
8, 239220, Note_on_c, 6, 58, 0
8, 239280, Note_on_c, 6, 58, 58
8, 239280, Note_on_c, 6, 55, 58
8, 239460, Note_on_c, 6, 55, 0
8, 239460, Note_on_c, 6, 58, 0
8, 239520, Note_on_c, 6, 58, 58
8, 239520, Note_on_c, 6, 67, 58
8, 239700, Note_on_c, 6, 67, 0
8, 239700, Note_on_c, 6, 58, 0
8, 239760, Note_on_c, 6, 58, 58
8, 239760, Note_on_c, 6, 67, 58
8, 239940, Note_on_c, 6, 67, 0
8, 239940, Note_on_c, 6, 58, 0
8, 240000, Note_on_c, 6, 55, 58
8, 240000, Note_on_c, 6, 58, 58
8, 240180, Note_on_c, 6, 58, 0
8, 240180, Note_on_c, 6, 55, 0
8, 240240, Note_on_c, 6, 58, 58
8, 240240, Note_on_c, 6, 55, 58
8, 240420, Note_on_c, 6, 55, 0
8, 240420, Note_on_c, 6, 58, 0
8, 240480, Note_on_c, 6, 58, 58
8, 240480, Note_on_c, 6, 67, 58
8, 240660, Note_on_c, 6, 67, 0
8, 240660, Note_on_c, 6, 58, 0
8, 240720, Note_on_c, 6, 58, 58
8, 240720, Note_on_c, 6, 67, 58
8, 240900, Note_on_c, 6, 67, 0
8, 240900, Note_on_c, 6, 58, 0
8, 240960, Note_on_c, 6, 55, 58
8, 240960, Note_on_c, 6, 58, 58
8, 241140, Note_on_c, 6, 58, 0
8, 241140, Note_on_c, 6, 55, 0
8, 241200, Note_on_c, 6, 58, 58
8, 241200, Note_on_c, 6, 55, 58
8, 241380, Note_on_c, 6, 55, 0
8, 241380, Note_on_c, 6, 58, 0
8, 241440, Note_on_c, 6, 67, 58
8, 241440, Note_on_c, 6, 58, 58
8, 241620, Note_on_c, 6, 58, 0
8, 241620, Note_on_c, 6, 67, 0
8, 241680, Note_on_c, 6, 58, 58
8, 241680, Note_on_c, 6, 67, 58
8, 241860, Note_on_c, 6, 67, 0
8, 241860, Note_on_c, 6, 58, 0
8, 241920, Note_on_c, 6, 57, 58
8, 241920, Note_on_c, 6, 60, 58
8, 242100, Note_on_c, 6, 60, 0
8, 242100, Note_on_c, 6, 57, 0
8, 242160, Note_on_c, 6, 60, 58
8, 242160, Note_on_c, 6, 57, 58
8, 242340, Note_on_c, 6, 57, 0
8, 242340, Note_on_c, 6, 60, 0
8, 242400, Note_on_c, 6, 63, 58
8, 242400, Note_on_c, 6, 69, 58
8, 242580, Note_on_c, 6, 69, 0
8, 242580, Note_on_c, 6, 63, 0
8, 242640, Note_on_c, 6, 63, 58
8, 242640, Note_on_c, 6, 69, 58
8, 242820, Note_on_c, 6, 69, 0
8, 242820, Note_on_c, 6, 63, 0
8, 242880, Note_on_c, 6, 57, 58
8, 242880, Note_on_c, 6, 60, 58
8, 243060, Note_on_c, 6, 60, 0
8, 243060, Note_on_c, 6, 57, 0
8, 243120, Note_on_c, 6, 57, 58
8, 243120, Note_on_c, 6, 60, 58
8, 243300, Note_on_c, 6, 60, 0
8, 243300, Note_on_c, 6, 57, 0
8, 243360, Note_on_c, 6, 63, 58
8, 243360, Note_on_c, 6, 69, 58
8, 243540, Note_on_c, 6, 69, 0
8, 243540, Note_on_c, 6, 63, 0
8, 243600, Note_on_c, 6, 69, 58
8, 243600, Note_on_c, 6, 63, 58
8, 243780, Note_on_c, 6, 63, 0
8, 243780, Note_on_c, 6, 69, 0
8, 243840, Note_on_c, 6, 63, 58
8, 243840, Note_on_c, 6, 60, 58
8, 244020, Note_on_c, 6, 60, 0
8, 244020, Note_on_c, 6, 63, 0
8, 244080, Note_on_c, 6, 63, 58
8, 244080, Note_on_c, 6, 60, 58
8, 244260, Note_on_c, 6, 60, 0
8, 244260, Note_on_c, 6, 63, 0
8, 244320, Note_on_c, 6, 72, 58
8, 244320, Note_on_c, 6, 63, 58
8, 244500, Note_on_c, 6, 63, 0
8, 244500, Note_on_c, 6, 72, 0
8, 244560, Note_on_c, 6, 63, 58
8, 244560, Note_on_c, 6, 72, 58
8, 244740, Note_on_c, 6, 72, 0
8, 244740, Note_on_c, 6, 63, 0
8, 244800, Note_on_c, 6, 57, 58
8, 244800, Note_on_c, 6, 60, 58
8, 244980, Note_on_c, 6, 60, 0
8, 244980, Note_on_c, 6, 57, 0
8, 245040, Note_on_c, 6, 57, 58
8, 245040, Note_on_c, 6, 60, 58
8, 245220, Note_on_c, 6, 60, 0
8, 245220, Note_on_c, 6, 57, 0
8, 245280, Note_on_c, 6, 60, 58
8, 245280, Note_on_c, 6, 69, 58
8, 245460, Note_on_c, 6, 69, 0
8, 245460, Note_on_c, 6, 60, 0
8, 245520, Note_on_c, 6, 69, 58
8, 245520, Note_on_c, 6, 60, 58
8, 245700, Note_on_c, 6, 60, 0
8, 245700, Note_on_c, 6, 69, 0
8, 245760, Note_on_c, 6, 62, 105
8, 245760, Note_on_c, 6, 70, 105
8, 245952, Note_on_c, 6, 70, 0
8, 245952, Note_on_c, 6, 62, 0
8, 246000, Note_on_c, 6, 70, 105
8, 246192, Note_on_c, 6, 70, 0
8, 246240, Note_on_c, 6, 74, 105
8, 246432, Note_on_c, 6, 74, 0
8, 246480, Note_on_c, 6, 70, 105
8, 246672, Note_on_c, 6, 70, 0
8, 246720, Note_on_c, 6, 74, 105
8, 246912, Note_on_c, 6, 74, 0
8, 246960, Note_on_c, 6, 70, 105
8, 247152, Note_on_c, 6, 70, 0
8, 247200, Note_on_c, 6, 74, 105
8, 247392, Note_on_c, 6, 74, 0
8, 247440, Note_on_c, 6, 70, 105
8, 247632, Note_on_c, 6, 70, 0
8, 247680, Note_on_c, 6, 72, 105
8, 247872, Note_on_c, 6, 72, 0
8, 247920, Note_on_c, 6, 69, 105
8, 248112, Note_on_c, 6, 69, 0
8, 248160, Note_on_c, 6, 72, 105
8, 248352, Note_on_c, 6, 72, 0
8, 248400, Note_on_c, 6, 69, 105
8, 248592, Note_on_c, 6, 69, 0
8, 248640, Note_on_c, 6, 72, 105
8, 248832, Note_on_c, 6, 72, 0
8, 248880, Note_on_c, 6, 69, 105
8, 249072, Note_on_c, 6, 69, 0
8, 249120, Note_on_c, 6, 72, 105
8, 249312, Note_on_c, 6, 72, 0
8, 249360, Note_on_c, 6, 69, 105
8, 249552, Note_on_c, 6, 69, 0
8, 249600, Note_on_c, 6, 70, 105
8, 249792, Note_on_c, 6, 70, 0
8, 249840, Note_on_c, 6, 67, 105
8, 250032, Note_on_c, 6, 67, 0
8, 250080, Note_on_c, 6, 70, 105
8, 250272, Note_on_c, 6, 70, 0
8, 250320, Note_on_c, 6, 67, 105
8, 250512, Note_on_c, 6, 67, 0
8, 250560, Note_on_c, 6, 70, 105
8, 250752, Note_on_c, 6, 70, 0
8, 250800, Note_on_c, 6, 67, 105
8, 250992, Note_on_c, 6, 67, 0
8, 251040, Note_on_c, 6, 70, 105
8, 251232, Note_on_c, 6, 70, 0
8, 251280, Note_on_c, 6, 67, 105
8, 251472, Note_on_c, 6, 67, 0
8, 251520, Note_on_c, 6, 70, 105
8, 251712, Note_on_c, 6, 70, 0
8, 251760, Note_on_c, 6, 65, 105
8, 251952, Note_on_c, 6, 65, 0
8, 252000, Note_on_c, 6, 70, 105
8, 252192, Note_on_c, 6, 70, 0
8, 252240, Note_on_c, 6, 65, 105
8, 252432, Note_on_c, 6, 65, 0
8, 252480, Note_on_c, 6, 70, 105
8, 252672, Note_on_c, 6, 70, 0
8, 252720, Note_on_c, 6, 65, 105
8, 252912, Note_on_c, 6, 65, 0
8, 252960, Note_on_c, 6, 70, 105
8, 253152, Note_on_c, 6, 70, 0
8, 253200, Note_on_c, 6, 65, 105
8, 253392, Note_on_c, 6, 65, 0
8, 253440, Note_on_c, 6, 67, 105
8, 253632, Note_on_c, 6, 67, 0
8, 253680, Note_on_c, 6, 63, 105
8, 253872, Note_on_c, 6, 63, 0
8, 253920, Note_on_c, 6, 67, 105
8, 254112, Note_on_c, 6, 67, 0
8, 254160, Note_on_c, 6, 63, 105
8, 254352, Note_on_c, 6, 63, 0
8, 254400, Note_on_c, 6, 67, 105
8, 254592, Note_on_c, 6, 67, 0
8, 254640, Note_on_c, 6, 63, 105
8, 254832, Note_on_c, 6, 63, 0
8, 254880, Note_on_c, 6, 67, 105
8, 255072, Note_on_c, 6, 67, 0
8, 255120, Note_on_c, 6, 63, 105
8, 255312, Note_on_c, 6, 63, 0
8, 255360, Note_on_c, 6, 65, 105
8, 255552, Note_on_c, 6, 65, 0
8, 255600, Note_on_c, 6, 62, 105
8, 255792, Note_on_c, 6, 62, 0
8, 255840, Note_on_c, 6, 65, 105
8, 256032, Note_on_c, 6, 65, 0
8, 256080, Note_on_c, 6, 62, 105
8, 256272, Note_on_c, 6, 62, 0
8, 256320, Note_on_c, 6, 65, 105
8, 256512, Note_on_c, 6, 65, 0
8, 256560, Note_on_c, 6, 62, 105
8, 256752, Note_on_c, 6, 62, 0
8, 256800, Note_on_c, 6, 65, 105
8, 256992, Note_on_c, 6, 65, 0
8, 257040, Note_on_c, 6, 62, 105
8, 257232, Note_on_c, 6, 62, 0
8, 257280, Note_on_c, 6, 60, 112
8, 258816, Note_on_c, 6, 60, 0
8, 259200, Note_on_c, 6, 60, 112
8, 259968, Note_on_c, 6, 60, 0
8, 260160, Note_on_c, 6, 61, 112
8, 260928, Note_on_c, 6, 61, 0
8, 261120, Note_on_c, 6, 60, 112
8, 261888, Note_on_c, 6, 60, 0
8, 262080, Note_on_c, 6, 61, 112
8, 262848, Note_on_c, 6, 61, 0
8, 263040, Note_on_c, 6, 60, 112
8, 263808, Note_on_c, 6, 60, 0
8, 264720, Note_on_c, 6, 60, 105
8, 264912, Note_on_c, 6, 60, 0
8, 264960, Note_on_c, 6, 65, 105
8, 265140, Note_on_c, 6, 65, 0
8, 265200, Note_on_c, 6, 65, 105
8, 265380, Note_on_c, 6, 65, 0
8, 265440, Note_on_c, 6, 65, 105
8, 265620, Note_on_c, 6, 65, 0
8, 265680, Note_on_c, 6, 65, 105
8, 265860, Note_on_c, 6, 65, 0
8, 265920, Note_on_c, 6, 69, 105
8, 266100, Note_on_c, 6, 69, 0
8, 266160, Note_on_c, 6, 69, 105
8, 266340, Note_on_c, 6, 69, 0
8, 266400, Note_on_c, 6, 72, 105
8, 266580, Note_on_c, 6, 72, 0
8, 266640, Note_on_c, 6, 72, 105
8, 266820, Note_on_c, 6, 72, 0
8, 266880, Note_on_c, 6, 70, 105
8, 267060, Note_on_c, 6, 70, 0
8, 267120, Note_on_c, 6, 70, 105
8, 267300, Note_on_c, 6, 70, 0
8, 267360, Note_on_c, 6, 70, 105
8, 267540, Note_on_c, 6, 70, 0
8, 267600, Note_on_c, 6, 70, 105
8, 267780, Note_on_c, 6, 70, 0
8, 267840, Note_on_c, 6, 70, 105
8, 268020, Note_on_c, 6, 70, 0
8, 268080, Note_on_c, 6, 70, 105
8, 268260, Note_on_c, 6, 70, 0
8, 268320, Note_on_c, 6, 70, 105
8, 268500, Note_on_c, 6, 70, 0
8, 268560, Note_on_c, 6, 70, 105
8, 268740, Note_on_c, 6, 70, 0
8, 268800, Note_on_c, 6, 69, 105
8, 268980, Note_on_c, 6, 69, 0
8, 269040, Note_on_c, 6, 69, 105
8, 269220, Note_on_c, 6, 69, 0
8, 269280, Note_on_c, 6, 69, 105
8, 269460, Note_on_c, 6, 69, 0
8, 269520, Note_on_c, 6, 69, 105
8, 269700, Note_on_c, 6, 69, 0
8, 269760, Note_on_c, 6, 69, 105
8, 269940, Note_on_c, 6, 69, 0
8, 270000, Note_on_c, 6, 72, 105
8, 270180, Note_on_c, 6, 72, 0
8, 270240, Note_on_c, 6, 69, 105
8, 270420, Note_on_c, 6, 69, 0
8, 270480, Note_on_c, 6, 72, 105
8, 270660, Note_on_c, 6, 72, 0
8, 270720, Note_on_c, 6, 70, 105
8, 270900, Note_on_c, 6, 70, 0
8, 270960, Note_on_c, 6, 70, 105
8, 271140, Note_on_c, 6, 70, 0
8, 271200, Note_on_c, 6, 70, 105
8, 271380, Note_on_c, 6, 70, 0
8, 271440, Note_on_c, 6, 70, 105
8, 271620, Note_on_c, 6, 70, 0
8, 271680, Note_on_c, 6, 67, 105
8, 271860, Note_on_c, 6, 67, 0
8, 271920, Note_on_c, 6, 64, 105
8, 272100, Note_on_c, 6, 64, 0
8, 272160, Note_on_c, 6, 67, 105
8, 272340, Note_on_c, 6, 67, 0
8, 272400, Note_on_c, 6, 64, 105
8, 272580, Note_on_c, 6, 64, 0
8, 272640, Note_on_c, 6, 65, 105
8, 273024, Note_on_c, 6, 65, 0
8, 273600, Note_on_c, 6, 53, 92
8, 273984, Note_on_c, 6, 53, 0
8, 276480, Note_on_c, 6, 62, 58
8, 277920, Note_on_c, 6, 62, 0
8, 277920, Note_on_c, 6, 60, 58
8, 278400, Note_on_c, 6, 60, 0
8, 278400, Note_on_c, 6, 57, 58
8, 278784, Note_on_c, 6, 57, 0
8, 280800, Note_on_c, 6, 62, 58
8, 281112, Note_on_c, 6, 62, 0
8, 281280, Note_on_c, 6, 62, 58
8, 281760, Note_on_c, 6, 62, 0
8, 281760, Note_on_c, 6, 67, 58
8, 282144, Note_on_c, 6, 67, 0
8, 282240, Note_on_c, 6, 65, 58
8, 283008, Note_on_c, 6, 65, 0
8, 284160, Note_on_c, 6, 55, 58
8, 285600, Note_on_c, 6, 55, 0
8, 285600, Note_on_c, 6, 57, 58
8, 286080, Note_on_c, 6, 57, 0
8, 286080, Note_on_c, 6, 59, 58
8, 286560, Note_on_c, 6, 59, 0
8, 286560, Note_on_c, 6, 60, 58
8, 287040, Note_on_c, 6, 60, 0
8, 287040, Note_on_c, 6, 57, 58
8, 287520, Note_on_c, 6, 57, 0
8, 287520, Note_on_c, 6, 58, 58
8, 287904, Note_on_c, 6, 58, 0
8, 288000, Note_on_c, 6, 55, 58
8, 288384, Note_on_c, 6, 55, 0
8, 288960, Note_on_c, 6, 48, 58
8, 289344, Note_on_c, 6, 48, 0
8, 289920, Note_on_c, 6, 50, 58
8, 290304, Note_on_c, 6, 50, 0
8, 299520, Note_on_c, 6, 55, 70
8, 300960, Note_on_c, 6, 55, 0
8, 300960, Note_on_c, 6, 57, 70
8, 301440, Note_on_c, 6, 57, 0
8, 301440, Note_on_c, 6, 55, 58
8, 302400, Note_on_c, 6, 55, 0
8, 302400, Note_on_c, 6, 53, 58
8, 303360, Note_on_c, 6, 53, 0
8, 303360, Note_on_c, 6, 58, 58
8, 303600, Note_on_c, 6, 58, 0
8, 303600, Note_on_c, 6, 55, 58
8, 303840, Note_on_c, 6, 55, 0
8, 303840, Note_on_c, 6, 58, 58
8, 304080, Note_on_c, 6, 58, 0
8, 304080, Note_on_c, 6, 55, 58
8, 304320, Note_on_c, 6, 55, 0
8, 304320, Note_on_c, 6, 58, 58
8, 304560, Note_on_c, 6, 58, 0
8, 304560, Note_on_c, 6, 55, 58
8, 304800, Note_on_c, 6, 55, 0
8, 304800, Note_on_c, 6, 56, 58
8, 305040, Note_on_c, 6, 56, 0
8, 305040, Note_on_c, 6, 60, 58
8, 305232, Note_on_c, 6, 60, 0
8, 305280, Note_on_c, 6, 58, 58
8, 305520, Note_on_c, 6, 58, 0
8, 305520, Note_on_c, 6, 55, 58
8, 305760, Note_on_c, 6, 55, 0
8, 305760, Note_on_c, 6, 58, 58
8, 306000, Note_on_c, 6, 58, 0
8, 306000, Note_on_c, 6, 55, 58
8, 306240, Note_on_c, 6, 55, 0
8, 306240, Note_on_c, 6, 58, 58
8, 306480, Note_on_c, 6, 58, 0
8, 306480, Note_on_c, 6, 55, 58
8, 306720, Note_on_c, 6, 55, 0
8, 306720, Note_on_c, 6, 56, 58
8, 306960, Note_on_c, 6, 56, 0
8, 306960, Note_on_c, 6, 60, 58
8, 307152, Note_on_c, 6, 60, 0
8, 307200, Note_on_c, 6, 58, 58
8, 307440, Note_on_c, 6, 58, 0
8, 307440, Note_on_c, 6, 55, 58
8, 307680, Note_on_c, 6, 55, 0
8, 307680, Note_on_c, 6, 58, 58
8, 307920, Note_on_c, 6, 58, 0
8, 307920, Note_on_c, 6, 55, 58
8, 308160, Note_on_c, 6, 55, 0
8, 308160, Note_on_c, 6, 58, 58
8, 308400, Note_on_c, 6, 58, 0
8, 308400, Note_on_c, 6, 55, 58
8, 308640, Note_on_c, 6, 55, 0
8, 308640, Note_on_c, 6, 56, 58
8, 308880, Note_on_c, 6, 56, 0
8, 308880, Note_on_c, 6, 60, 58
8, 309072, Note_on_c, 6, 60, 0
8, 309120, Note_on_c, 6, 58, 58
8, 309360, Note_on_c, 6, 58, 0
8, 309360, Note_on_c, 6, 55, 58
8, 309600, Note_on_c, 6, 55, 0
8, 309600, Note_on_c, 6, 58, 58
8, 309840, Note_on_c, 6, 58, 0
8, 309840, Note_on_c, 6, 55, 58
8, 310080, Note_on_c, 6, 55, 0
8, 310080, Note_on_c, 6, 58, 58
8, 310320, Note_on_c, 6, 58, 0
8, 310320, Note_on_c, 6, 55, 58
8, 310560, Note_on_c, 6, 55, 0
8, 310560, Note_on_c, 6, 56, 58
8, 310800, Note_on_c, 6, 56, 0
8, 310800, Note_on_c, 6, 60, 58
8, 310992, Note_on_c, 6, 60, 0
8, 311040, Note_on_c, 6, 55, 58
8, 311256, Note_on_c, 6, 55, 0
8, 311280, Note_on_c, 6, 55, 70
8, 311496, Note_on_c, 6, 55, 0
8, 311520, Note_on_c, 6, 55, 72
8, 311736, Note_on_c, 6, 55, 0
8, 311760, Note_on_c, 6, 55, 75
8, 311976, Note_on_c, 6, 55, 0
8, 312000, Note_on_c, 6, 55, 78
8, 312216, Note_on_c, 6, 55, 0
8, 312240, Note_on_c, 6, 55, 80
8, 312456, Note_on_c, 6, 55, 0
8, 312480, Note_on_c, 6, 55, 83
8, 312696, Note_on_c, 6, 55, 0
8, 312720, Note_on_c, 6, 55, 86
8, 312936, Note_on_c, 6, 55, 0
8, 312960, Note_on_c, 6, 55, 88
8, 313176, Note_on_c, 6, 55, 0
8, 313200, Note_on_c, 6, 67, 91
8, 313416, Note_on_c, 6, 67, 0
8, 313440, Note_on_c, 6, 67, 94
8, 313656, Note_on_c, 6, 67, 0
8, 313680, Note_on_c, 6, 67, 96
8, 313896, Note_on_c, 6, 67, 0
8, 313920, Note_on_c, 6, 67, 99
8, 314136, Note_on_c, 6, 67, 0
8, 314160, Note_on_c, 6, 67, 102
8, 314376, Note_on_c, 6, 67, 0
8, 314400, Note_on_c, 6, 67, 105
8, 314616, Note_on_c, 6, 67, 0
8, 314640, Note_on_c, 6, 67, 107
8, 314856, Note_on_c, 6, 67, 0
8, 314880, Note_on_c, 6, 65, 108
8, 315072, Note_on_c, 6, 65, 0
8, 315120, Note_on_c, 6, 65, 105
8, 315312, Note_on_c, 6, 65, 0
8, 315360, Note_on_c, 6, 65, 105
8, 315552, Note_on_c, 6, 65, 0
8, 315600, Note_on_c, 6, 65, 105
8, 315792, Note_on_c, 6, 65, 0
8, 315840, Note_on_c, 6, 65, 105
8, 316032, Note_on_c, 6, 65, 0
8, 316080, Note_on_c, 6, 65, 105
8, 316272, Note_on_c, 6, 65, 0
8, 316320, Note_on_c, 6, 65, 105
8, 316512, Note_on_c, 6, 65, 0
8, 316560, Note_on_c, 6, 65, 105
8, 316752, Note_on_c, 6, 65, 0
8, 316800, Note_on_c, 6, 53, 105
8, 316992, Note_on_c, 6, 53, 0
8, 317040, Note_on_c, 6, 53, 105
8, 317232, Note_on_c, 6, 53, 0
8, 317280, Note_on_c, 6, 53, 105
8, 317472, Note_on_c, 6, 53, 0
8, 317520, Note_on_c, 6, 53, 105
8, 317712, Note_on_c, 6, 53, 0
8, 317760, Note_on_c, 6, 53, 105
8, 317952, Note_on_c, 6, 53, 0
8, 318000, Note_on_c, 6, 53, 105
8, 318192, Note_on_c, 6, 53, 0
8, 318240, Note_on_c, 6, 53, 105
8, 318432, Note_on_c, 6, 53, 0
8, 318480, Note_on_c, 6, 53, 105
8, 318672, Note_on_c, 6, 53, 0
8, 318720, Note_on_c, 6, 58, 92
8, 319104, Note_on_c, 6, 58, 0
8, 319200, Note_on_c, 6, 50, 125
8, 319968, Note_on_c, 6, 50, 0
8, 320160, Note_on_c, 6, 51, 105
8, 320448, Note_on_c, 6, 51, 0
8, 320640, Note_on_c, 6, 52, 105
8, 320928, Note_on_c, 6, 52, 0
8, 321120, Note_on_c, 6, 53, 105
8, 321408, Note_on_c, 6, 53, 0
8, 321600, Note_on_c, 6, 54, 105
8, 321888, Note_on_c, 6, 54, 0
8, 322080, Note_on_c, 6, 55, 105
8, 322368, Note_on_c, 6, 55, 0
8, 322560, Note_on_c, 6, 56, 105
8, 322944, Note_on_c, 6, 56, 0
8, 323400, Note_on_c, 6, 56, 105
8, 323496, Note_on_c, 6, 56, 0
8, 323520, Note_on_c, 6, 55, 105
8, 323904, Note_on_c, 6, 55, 0
8, 324360, Note_on_c, 6, 55, 105
8, 324456, Note_on_c, 6, 55, 0
8, 324480, Note_on_c, 6, 63, 105
8, 324864, Note_on_c, 6, 63, 0
8, 325320, Note_on_c, 6, 63, 105
8, 325416, Note_on_c, 6, 63, 0
8, 325440, Note_on_c, 6, 62, 105
8, 325824, Note_on_c, 6, 62, 0
8, 326280, Note_on_c, 6, 62, 105
8, 326376, Note_on_c, 6, 62, 0
8, 326400, Note_on_c, 6, 51, 105
8, 326784, Note_on_c, 6, 51, 0
8, 328320, Note_on_c, 6, 53, 58
8, 328704, Note_on_c, 6, 53, 0
8, 333120, Note_on_c, 6, 51, 58
8, 335040, Note_on_c, 6, 51, 0
8, 335040, Note_on_c, 6, 50, 58
8, 335424, Note_on_c, 6, 50, 0
8, 336960, Note_on_c, 6, 51, 58
8, 338880, Note_on_c, 6, 51, 0
8, 338880, Note_on_c, 6, 50, 58
8, 339264, Note_on_c, 6, 50, 0
8, 339840, Note_on_c, 6, 62, 105
8, 340032, Note_on_c, 6, 62, 0
8, 340080, Note_on_c, 6, 62, 105
8, 340272, Note_on_c, 6, 62, 0
8, 340320, Note_on_c, 6, 62, 105
8, 340512, Note_on_c, 6, 62, 0
8, 340560, Note_on_c, 6, 62, 105
8, 340752, Note_on_c, 6, 62, 0
8, 340800, Note_on_c, 6, 62, 105
8, 340992, Note_on_c, 6, 62, 0
8, 341040, Note_on_c, 6, 62, 105
8, 341232, Note_on_c, 6, 62, 0
8, 341280, Note_on_c, 6, 62, 105
8, 341472, Note_on_c, 6, 62, 0
8, 341520, Note_on_c, 6, 62, 105
8, 341712, Note_on_c, 6, 62, 0
8, 341760, Note_on_c, 6, 67, 105
8, 341952, Note_on_c, 6, 67, 0
8, 342000, Note_on_c, 6, 67, 105
8, 342192, Note_on_c, 6, 67, 0
8, 342240, Note_on_c, 6, 67, 105
8, 342432, Note_on_c, 6, 67, 0
8, 342480, Note_on_c, 6, 67, 105
8, 342672, Note_on_c, 6, 67, 0
8, 342720, Note_on_c, 6, 63, 105
8, 342912, Note_on_c, 6, 63, 0
8, 342960, Note_on_c, 6, 63, 105
8, 343152, Note_on_c, 6, 63, 0
8, 343200, Note_on_c, 6, 63, 105
8, 343392, Note_on_c, 6, 63, 0
8, 343440, Note_on_c, 6, 63, 105
8, 343632, Note_on_c, 6, 63, 0
8, 343680, Note_on_c, 6, 65, 105
8, 343872, Note_on_c, 6, 65, 0
8, 343920, Note_on_c, 6, 65, 105
8, 344112, Note_on_c, 6, 65, 0
8, 344160, Note_on_c, 6, 65, 105
8, 344352, Note_on_c, 6, 65, 0
8, 344400, Note_on_c, 6, 65, 105
8, 344592, Note_on_c, 6, 65, 0
8, 344640, Note_on_c, 6, 53, 105
8, 344832, Note_on_c, 6, 53, 0
8, 344880, Note_on_c, 6, 53, 105
8, 345072, Note_on_c, 6, 53, 0
8, 345120, Note_on_c, 6, 53, 105
8, 345312, Note_on_c, 6, 53, 0
8, 345360, Note_on_c, 6, 53, 105
8, 345552, Note_on_c, 6, 53, 0
8, 345600, Note_on_c, 6, 58, 92
8, 345984, Note_on_c, 6, 58, 0
8, 346560, Note_on_c, 6, 70, 58
8, 348480, Note_on_c, 6, 70, 0
8, 348480, Note_on_c, 6, 69, 58
8, 348864, Note_on_c, 6, 69, 0
8, 350400, Note_on_c, 6, 58, 58
8, 352320, Note_on_c, 6, 58, 0
8, 352320, Note_on_c, 6, 57, 58
8, 352704, Note_on_c, 6, 57, 0
8, 355200, Note_on_c, 6, 62, 105
8, 355392, Note_on_c, 6, 62, 0
8, 355440, Note_on_c, 6, 62, 105
8, 355632, Note_on_c, 6, 62, 0
8, 355680, Note_on_c, 6, 62, 105
8, 355872, Note_on_c, 6, 62, 0
8, 355920, Note_on_c, 6, 62, 105
8, 356112, Note_on_c, 6, 62, 0
8, 356160, Note_on_c, 6, 62, 105
8, 356352, Note_on_c, 6, 62, 0
8, 356400, Note_on_c, 6, 62, 105
8, 356592, Note_on_c, 6, 62, 0
8, 356640, Note_on_c, 6, 62, 105
8, 356832, Note_on_c, 6, 62, 0
8, 356880, Note_on_c, 6, 62, 105
8, 357072, Note_on_c, 6, 62, 0
8, 357120, Note_on_c, 6, 67, 105
8, 357312, Note_on_c, 6, 67, 0
8, 357360, Note_on_c, 6, 67, 105
8, 357552, Note_on_c, 6, 67, 0
8, 357600, Note_on_c, 6, 67, 105
8, 357792, Note_on_c, 6, 67, 0
8, 357840, Note_on_c, 6, 67, 105
8, 358032, Note_on_c, 6, 67, 0
8, 358080, Note_on_c, 6, 63, 105
8, 358272, Note_on_c, 6, 63, 0
8, 358320, Note_on_c, 6, 63, 105
8, 358512, Note_on_c, 6, 63, 0
8, 358560, Note_on_c, 6, 63, 105
8, 358752, Note_on_c, 6, 63, 0
8, 358800, Note_on_c, 6, 63, 105
8, 358992, Note_on_c, 6, 63, 0
8, 359040, Note_on_c, 6, 65, 105
8, 359232, Note_on_c, 6, 65, 0
8, 359280, Note_on_c, 6, 65, 105
8, 359472, Note_on_c, 6, 65, 0
8, 359520, Note_on_c, 6, 65, 105
8, 359712, Note_on_c, 6, 65, 0
8, 359760, Note_on_c, 6, 65, 105
8, 359952, Note_on_c, 6, 65, 0
8, 360000, Note_on_c, 6, 53, 105
8, 360192, Note_on_c, 6, 53, 0
8, 360240, Note_on_c, 6, 53, 105
8, 360432, Note_on_c, 6, 53, 0
8, 360480, Note_on_c, 6, 53, 105
8, 360672, Note_on_c, 6, 53, 0
8, 360720, Note_on_c, 6, 53, 105
8, 360912, Note_on_c, 6, 53, 0
8, 360960, Note_on_c, 6, 58, 105
8, 361728, Note_on_c, 6, 58, 0
8, 362640, Note_on_c, 6, 77, 105
8, 362832, Note_on_c, 6, 77, 0
8, 362880, Note_on_c, 6, 75, 105
8, 363072, Note_on_c, 6, 75, 0
8, 363120, Note_on_c, 6, 74, 105
8, 363312, Note_on_c, 6, 74, 0
8, 363360, Note_on_c, 6, 72, 105
8, 363552, Note_on_c, 6, 72, 0
8, 363600, Note_on_c, 6, 70, 105
8, 363792, Note_on_c, 6, 70, 0
8, 363840, Note_on_c, 6, 69, 105
8, 364032, Note_on_c, 6, 69, 0
8, 364080, Note_on_c, 6, 67, 105
8, 364272, Note_on_c, 6, 67, 0
8, 364320, Note_on_c, 6, 65, 105
8, 364512, Note_on_c, 6, 65, 0
8, 364560, Note_on_c, 6, 63, 105
8, 364752, Note_on_c, 6, 63, 0
8, 364800, Note_on_c, 6, 62, 105
8, 365136, Note_on_c, 6, 62, 0
8, 365280, Note_on_c, 6, 62, 105
8, 365616, Note_on_c, 6, 62, 0
8, 365760, Note_on_c, 6, 63, 105
8, 366096, Note_on_c, 6, 63, 0
8, 366240, Note_on_c, 6, 65, 105
8, 366576, Note_on_c, 6, 65, 0
8, 366720, Note_on_c, 6, 70, 105
8, 366912, Note_on_c, 6, 70, 0
8, 366960, Note_on_c, 6, 65, 105
8, 367152, Note_on_c, 6, 65, 0
8, 367200, Note_on_c, 6, 74, 105
8, 367392, Note_on_c, 6, 74, 0
8, 367440, Note_on_c, 6, 72, 105
8, 367632, Note_on_c, 6, 72, 0
8, 367680, Note_on_c, 6, 70, 105
8, 367872, Note_on_c, 6, 70, 0
8, 367920, Note_on_c, 6, 69, 105
8, 368112, Note_on_c, 6, 69, 0
8, 368160, Note_on_c, 6, 67, 105
8, 368352, Note_on_c, 6, 67, 0
8, 368400, Note_on_c, 6, 65, 105
8, 368592, Note_on_c, 6, 65, 0
8, 368640, Note_on_c, 6, 63, 105
8, 368832, Note_on_c, 6, 63, 0
8, 368880, Note_on_c, 6, 62, 105
8, 369072, Note_on_c, 6, 62, 0
8, 369120, Note_on_c, 6, 60, 105
8, 369312, Note_on_c, 6, 60, 0
8, 369360, Note_on_c, 6, 58, 105
8, 369552, Note_on_c, 6, 58, 0
8, 369600, Note_on_c, 6, 57, 105
8, 369792, Note_on_c, 6, 57, 0
8, 369840, Note_on_c, 6, 60, 105
8, 370032, Note_on_c, 6, 60, 0
8, 370080, Note_on_c, 6, 65, 105
8, 370272, Note_on_c, 6, 65, 0
8, 370320, Note_on_c, 6, 63, 105
8, 370512, Note_on_c, 6, 63, 0
8, 370560, Note_on_c, 6, 62, 105
8, 370896, Note_on_c, 6, 62, 0
8, 371040, Note_on_c, 6, 62, 105
8, 371376, Note_on_c, 6, 62, 0
8, 371520, Note_on_c, 6, 63, 105
8, 371856, Note_on_c, 6, 63, 0
8, 372000, Note_on_c, 6, 65, 105
8, 372336, Note_on_c, 6, 65, 0
8, 372480, Note_on_c, 6, 67, 105
8, 372816, Note_on_c, 6, 67, 0
8, 372960, Note_on_c, 6, 63, 105
8, 373296, Note_on_c, 6, 63, 0
8, 373440, Note_on_c, 6, 65, 105
8, 373776, Note_on_c, 6, 65, 0
8, 373920, Note_on_c, 6, 53, 105
8, 374256, Note_on_c, 6, 53, 0
8, 374400, Note_on_c, 6, 58, 105
8, 374784, Note_on_c, 6, 58, 0
8, 375360, Note_on_c, 6, 65, 105
8, 375744, Note_on_c, 6, 65, 0
8, 376320, Note_on_c, 6, 70, 105
8, 376704, Note_on_c, 6, 70, 0
8, 377280, Note_on_c, 6, 65, 105
8, 377664, Note_on_c, 6, 65, 0
8, 378240, Note_on_c, 6, 70, 105
8, 378624, Note_on_c, 6, 70, 0
8, 379200, Note_on_c, 6, 65, 105
8, 379584, Note_on_c, 6, 65, 0
8, 380160, Note_on_c, 6, 70, 105
8, 380520, Note_on_c, 6, 70, 0
8, 380640, Note_on_c, 6, 65, 105
8, 381000, Note_on_c, 6, 65, 0
8, 381120, Note_on_c, 6, 70, 105
8, 381480, Note_on_c, 6, 70, 0
8, 381600, Note_on_c, 6, 65, 105
8, 381960, Note_on_c, 6, 65, 0
8, 382080, Note_on_c, 6, 70, 105
8, 382464, Note_on_c, 6, 70, 0
8, 384000, Note_on_c, 6, 69, 105
8, 384384, Note_on_c, 6, 69, 0
8, 385920, Note_on_c, 6, 67, 105
8, 386304, Note_on_c, 6, 67, 0
8, 386880, Note_on_c, 6, 65, 105
8, 387264, Note_on_c, 6, 65, 0
8, 393600, Note_on_c, 6, 54, 58
8, 393600, Note_on_c, 6, 57, 58
8, 393792, Note_on_c, 6, 57, 0
8, 393792, Note_on_c, 6, 54, 0
8, 393840, Note_on_c, 6, 57, 58
8, 393840, Note_on_c, 6, 54, 58
8, 394032, Note_on_c, 6, 54, 0
8, 394032, Note_on_c, 6, 57, 0
8, 394080, Note_on_c, 6, 61, 58
8, 394080, Note_on_c, 6, 66, 58
8, 394272, Note_on_c, 6, 66, 0
8, 394272, Note_on_c, 6, 61, 0
8, 394320, Note_on_c, 6, 66, 58
8, 394320, Note_on_c, 6, 61, 58
8, 394512, Note_on_c, 6, 61, 0
8, 394512, Note_on_c, 6, 66, 0
8, 394560, Note_on_c, 6, 54, 58
8, 394560, Note_on_c, 6, 57, 58
8, 394752, Note_on_c, 6, 57, 0
8, 394752, Note_on_c, 6, 54, 0
8, 394800, Note_on_c, 6, 57, 58
8, 394800, Note_on_c, 6, 54, 58
8, 394992, Note_on_c, 6, 54, 0
8, 394992, Note_on_c, 6, 57, 0
8, 395040, Note_on_c, 6, 61, 58
8, 395040, Note_on_c, 6, 66, 58
8, 395232, Note_on_c, 6, 66, 0
8, 395232, Note_on_c, 6, 61, 0
8, 395280, Note_on_c, 6, 61, 58
8, 395280, Note_on_c, 6, 66, 58
8, 395472, Note_on_c, 6, 66, 0
8, 395472, Note_on_c, 6, 61, 0
8, 395520, Note_on_c, 6, 57, 58
8, 395520, Note_on_c, 6, 54, 58
8, 395712, Note_on_c, 6, 54, 0
8, 395712, Note_on_c, 6, 57, 0
8, 395760, Note_on_c, 6, 54, 58
8, 395760, Note_on_c, 6, 57, 58
8, 395952, Note_on_c, 6, 57, 0
8, 395952, Note_on_c, 6, 54, 0
8, 396000, Note_on_c, 6, 57, 58
8, 396000, Note_on_c, 6, 61, 58
8, 396192, Note_on_c, 6, 61, 0
8, 396192, Note_on_c, 6, 57, 0
8, 396240, Note_on_c, 6, 57, 58
8, 396240, Note_on_c, 6, 61, 58
8, 396432, Note_on_c, 6, 61, 0
8, 396432, Note_on_c, 6, 57, 0
8, 396480, Note_on_c, 6, 57, 58
8, 396480, Note_on_c, 6, 54, 58
8, 396672, Note_on_c, 6, 54, 0
8, 396672, Note_on_c, 6, 57, 0
8, 396720, Note_on_c, 6, 54, 58
8, 396720, Note_on_c, 6, 57, 58
8, 396912, Note_on_c, 6, 57, 0
8, 396912, Note_on_c, 6, 54, 0
8, 396960, Note_on_c, 6, 66, 58
8, 396960, Note_on_c, 6, 61, 58
8, 397152, Note_on_c, 6, 61, 0
8, 397152, Note_on_c, 6, 66, 0
8, 397200, Note_on_c, 6, 61, 58
8, 397200, Note_on_c, 6, 66, 58
8, 397392, Note_on_c, 6, 66, 0
8, 397392, Note_on_c, 6, 61, 0
8, 397440, Note_on_c, 6, 63, 58
8, 397440, Note_on_c, 6, 56, 58
8, 397632, Note_on_c, 6, 56, 0
8, 397632, Note_on_c, 6, 63, 0
8, 397680, Note_on_c, 6, 56, 58
8, 397680, Note_on_c, 6, 63, 58
8, 397872, Note_on_c, 6, 63, 0
8, 397872, Note_on_c, 6, 56, 0
8, 397920, Note_on_c, 6, 68, 58
8, 397920, Note_on_c, 6, 63, 58
8, 398112, Note_on_c, 6, 63, 0
8, 398112, Note_on_c, 6, 68, 0
8, 398160, Note_on_c, 6, 63, 58
8, 398160, Note_on_c, 6, 68, 58
8, 398352, Note_on_c, 6, 68, 0
8, 398352, Note_on_c, 6, 63, 0
8, 398400, Note_on_c, 6, 63, 58
8, 398400, Note_on_c, 6, 56, 58
8, 398592, Note_on_c, 6, 56, 0
8, 398592, Note_on_c, 6, 63, 0
8, 398640, Note_on_c, 6, 56, 58
8, 398640, Note_on_c, 6, 63, 58
8, 398832, Note_on_c, 6, 63, 0
8, 398832, Note_on_c, 6, 56, 0
8, 398880, Note_on_c, 6, 68, 58
8, 398880, Note_on_c, 6, 63, 58
8, 399072, Note_on_c, 6, 63, 0
8, 399072, Note_on_c, 6, 68, 0
8, 399120, Note_on_c, 6, 63, 58
8, 399120, Note_on_c, 6, 68, 58
8, 399312, Note_on_c, 6, 68, 0
8, 399312, Note_on_c, 6, 63, 0
8, 399360, Note_on_c, 6, 56, 58
8, 399360, Note_on_c, 6, 62, 58
8, 399552, Note_on_c, 6, 62, 0
8, 399552, Note_on_c, 6, 56, 0
8, 399600, Note_on_c, 6, 62, 58
8, 399600, Note_on_c, 6, 56, 58
8, 399792, Note_on_c, 6, 56, 0
8, 399792, Note_on_c, 6, 62, 0
8, 399840, Note_on_c, 6, 68, 58
8, 399840, Note_on_c, 6, 62, 58
8, 400032, Note_on_c, 6, 62, 0
8, 400032, Note_on_c, 6, 68, 0
8, 400080, Note_on_c, 6, 62, 58
8, 400080, Note_on_c, 6, 68, 58
8, 400272, Note_on_c, 6, 68, 0
8, 400272, Note_on_c, 6, 62, 0
8, 400320, Note_on_c, 6, 56, 58
8, 400320, Note_on_c, 6, 62, 58
8, 400512, Note_on_c, 6, 62, 0
8, 400512, Note_on_c, 6, 56, 0
8, 400560, Note_on_c, 6, 56, 58
8, 400560, Note_on_c, 6, 62, 58
8, 400752, Note_on_c, 6, 62, 0
8, 400752, Note_on_c, 6, 56, 0
8, 400800, Note_on_c, 6, 62, 58
8, 400800, Note_on_c, 6, 68, 58
8, 400992, Note_on_c, 6, 68, 0
8, 400992, Note_on_c, 6, 62, 0
8, 401040, Note_on_c, 6, 62, 58
8, 401040, Note_on_c, 6, 68, 58
8, 401232, Note_on_c, 6, 68, 0
8, 401232, Note_on_c, 6, 62, 0
8, 401280, Note_on_c, 6, 56, 58
8, 401280, Note_on_c, 6, 61, 58
8, 401472, Note_on_c, 6, 61, 0
8, 401472, Note_on_c, 6, 56, 0
8, 401520, Note_on_c, 6, 56, 58
8, 401520, Note_on_c, 6, 61, 58
8, 401712, Note_on_c, 6, 61, 0
8, 401712, Note_on_c, 6, 56, 0
8, 401760, Note_on_c, 6, 61, 58
8, 401760, Note_on_c, 6, 71, 58
8, 401952, Note_on_c, 6, 71, 0
8, 401952, Note_on_c, 6, 61, 0
8, 402000, Note_on_c, 6, 61, 58
8, 402000, Note_on_c, 6, 71, 58
8, 402192, Note_on_c, 6, 71, 0
8, 402192, Note_on_c, 6, 61, 0
8, 402240, Note_on_c, 6, 61, 58
8, 402240, Note_on_c, 6, 56, 58
8, 402432, Note_on_c, 6, 56, 0
8, 402432, Note_on_c, 6, 61, 0
8, 402480, Note_on_c, 6, 56, 58
8, 402480, Note_on_c, 6, 61, 58
8, 402672, Note_on_c, 6, 61, 0
8, 402672, Note_on_c, 6, 56, 0
8, 402720, Note_on_c, 6, 71, 58
8, 402720, Note_on_c, 6, 61, 58
8, 402912, Note_on_c, 6, 61, 0
8, 402912, Note_on_c, 6, 71, 0
8, 402960, Note_on_c, 6, 61, 58
8, 402960, Note_on_c, 6, 71, 58
8, 403152, Note_on_c, 6, 71, 0
8, 403152, Note_on_c, 6, 61, 0
8, 403200, Note_on_c, 6, 56, 58
8, 403200, Note_on_c, 6, 61, 58
8, 403392, Note_on_c, 6, 61, 0
8, 403392, Note_on_c, 6, 56, 0
8, 403440, Note_on_c, 6, 56, 58
8, 403440, Note_on_c, 6, 61, 58
8, 403632, Note_on_c, 6, 61, 0
8, 403632, Note_on_c, 6, 56, 0
8, 403680, Note_on_c, 6, 68, 58
8, 403680, Note_on_c, 6, 61, 58
8, 403872, Note_on_c, 6, 61, 0
8, 403872, Note_on_c, 6, 68, 0
8, 403920, Note_on_c, 6, 68, 58
8, 403920, Note_on_c, 6, 61, 58
8, 404112, Note_on_c, 6, 61, 0
8, 404112, Note_on_c, 6, 68, 0
8, 404160, Note_on_c, 6, 61, 58
8, 404160, Note_on_c, 6, 56, 58
8, 404352, Note_on_c, 6, 56, 0
8, 404352, Note_on_c, 6, 61, 0
8, 404400, Note_on_c, 6, 56, 58
8, 404400, Note_on_c, 6, 61, 58
8, 404592, Note_on_c, 6, 61, 0
8, 404592, Note_on_c, 6, 56, 0
8, 404640, Note_on_c, 6, 61, 58
8, 404640, Note_on_c, 6, 68, 58
8, 404832, Note_on_c, 6, 68, 0
8, 404832, Note_on_c, 6, 61, 0
8, 404880, Note_on_c, 6, 68, 58
8, 404880, Note_on_c, 6, 61, 58
8, 405072, Note_on_c, 6, 61, 0
8, 405072, Note_on_c, 6, 68, 0
8, 405120, Note_on_c, 6, 55, 58
8, 405120, Note_on_c, 6, 61, 58
8, 405312, Note_on_c, 6, 61, 0
8, 405312, Note_on_c, 6, 55, 0
8, 405360, Note_on_c, 6, 55, 58
8, 405360, Note_on_c, 6, 61, 58
8, 405552, Note_on_c, 6, 61, 0
8, 405552, Note_on_c, 6, 55, 0
8, 405600, Note_on_c, 6, 67, 58
8, 405600, Note_on_c, 6, 61, 58
8, 405792, Note_on_c, 6, 61, 0
8, 405792, Note_on_c, 6, 67, 0
8, 405840, Note_on_c, 6, 67, 58
8, 405840, Note_on_c, 6, 61, 58
8, 406032, Note_on_c, 6, 61, 0
8, 406032, Note_on_c, 6, 67, 0
8, 406080, Note_on_c, 6, 55, 58
8, 406080, Note_on_c, 6, 61, 58
8, 406272, Note_on_c, 6, 61, 0
8, 406272, Note_on_c, 6, 55, 0
8, 406320, Note_on_c, 6, 55, 58
8, 406320, Note_on_c, 6, 61, 58
8, 406512, Note_on_c, 6, 61, 0
8, 406512, Note_on_c, 6, 55, 0
8, 406560, Note_on_c, 6, 61, 58
8, 406560, Note_on_c, 6, 67, 58
8, 406752, Note_on_c, 6, 67, 0
8, 406752, Note_on_c, 6, 61, 0
8, 406800, Note_on_c, 6, 61, 58
8, 406800, Note_on_c, 6, 67, 58
8, 406992, Note_on_c, 6, 67, 0
8, 406992, Note_on_c, 6, 61, 0
8, 407040, Note_on_c, 6, 60, 58
8, 407040, Note_on_c, 6, 54, 58
8, 407232, Note_on_c, 6, 54, 0
8, 407232, Note_on_c, 6, 60, 0
8, 407280, Note_on_c, 6, 54, 58
8, 407280, Note_on_c, 6, 60, 58
8, 407472, Note_on_c, 6, 60, 0
8, 407472, Note_on_c, 6, 54, 0
8, 407520, Note_on_c, 6, 60, 58
8, 407520, Note_on_c, 6, 66, 58
8, 407712, Note_on_c, 6, 66, 0
8, 407712, Note_on_c, 6, 60, 0
8, 407760, Note_on_c, 6, 66, 58
8, 407760, Note_on_c, 6, 60, 58
8, 407952, Note_on_c, 6, 60, 0
8, 407952, Note_on_c, 6, 66, 0
8, 408000, Note_on_c, 6, 54, 58
8, 408000, Note_on_c, 6, 60, 58
8, 408192, Note_on_c, 6, 60, 0
8, 408192, Note_on_c, 6, 54, 0
8, 408240, Note_on_c, 6, 54, 58
8, 408240, Note_on_c, 6, 60, 58
8, 408432, Note_on_c, 6, 60, 0
8, 408432, Note_on_c, 6, 54, 0
8, 408480, Note_on_c, 6, 66, 58
8, 408480, Note_on_c, 6, 60, 58
8, 408672, Note_on_c, 6, 60, 0
8, 408672, Note_on_c, 6, 66, 0
8, 408720, Note_on_c, 6, 60, 58
8, 408720, Note_on_c, 6, 66, 58
8, 408912, Note_on_c, 6, 66, 0
8, 408912, Note_on_c, 6, 60, 0
8, 408960, Note_on_c, 6, 54, 58
8, 408960, Note_on_c, 6, 59, 58
8, 409152, Note_on_c, 6, 59, 0
8, 409152, Note_on_c, 6, 54, 0
8, 409200, Note_on_c, 6, 54, 58
8, 409200, Note_on_c, 6, 59, 58
8, 409392, Note_on_c, 6, 59, 0
8, 409392, Note_on_c, 6, 54, 0
8, 409440, Note_on_c, 6, 59, 58
8, 409440, Note_on_c, 6, 69, 58
8, 409632, Note_on_c, 6, 69, 0
8, 409632, Note_on_c, 6, 59, 0
8, 409680, Note_on_c, 6, 69, 58
8, 409680, Note_on_c, 6, 59, 58
8, 409872, Note_on_c, 6, 59, 0
8, 409872, Note_on_c, 6, 69, 0
8, 409920, Note_on_c, 6, 59, 58
8, 409920, Note_on_c, 6, 54, 58
8, 410112, Note_on_c, 6, 54, 0
8, 410112, Note_on_c, 6, 59, 0
8, 410160, Note_on_c, 6, 59, 58
8, 410160, Note_on_c, 6, 54, 58
8, 410352, Note_on_c, 6, 54, 0
8, 410352, Note_on_c, 6, 59, 0
8, 410400, Note_on_c, 6, 59, 58
8, 410400, Note_on_c, 6, 69, 58
8, 410592, Note_on_c, 6, 69, 0
8, 410592, Note_on_c, 6, 59, 0
8, 410640, Note_on_c, 6, 59, 58
8, 410640, Note_on_c, 6, 69, 58
8, 410832, Note_on_c, 6, 69, 0
8, 410832, Note_on_c, 6, 59, 0
8, 410880, Note_on_c, 6, 57, 58
8, 410880, Note_on_c, 6, 54, 58
8, 411072, Note_on_c, 6, 54, 0
8, 411072, Note_on_c, 6, 57, 0
8, 411120, Note_on_c, 6, 57, 58
8, 411120, Note_on_c, 6, 54, 58
8, 411312, Note_on_c, 6, 54, 0
8, 411312, Note_on_c, 6, 57, 0
8, 411360, Note_on_c, 6, 57, 58
8, 411360, Note_on_c, 6, 66, 58
8, 411552, Note_on_c, 6, 66, 0
8, 411552, Note_on_c, 6, 57, 0
8, 411600, Note_on_c, 6, 66, 58
8, 411600, Note_on_c, 6, 57, 58
8, 411792, Note_on_c, 6, 57, 0
8, 411792, Note_on_c, 6, 66, 0
8, 411840, Note_on_c, 6, 54, 58
8, 411840, Note_on_c, 6, 63, 58
8, 412224, Note_on_c, 6, 63, 0
8, 412224, Note_on_c, 6, 54, 0
8, 412320, Note_on_c, 6, 60, 105
8, 412560, Note_on_c, 6, 60, 0
8, 412560, Note_on_c, 6, 59, 105
8, 412752, Note_on_c, 6, 59, 0
8, 412800, Note_on_c, 6, 59, 105
8, 413184, Note_on_c, 6, 59, 0
8, 413280, Note_on_c, 6, 60, 105
8, 413520, Note_on_c, 6, 60, 0
8, 413520, Note_on_c, 6, 59, 105
8, 413712, Note_on_c, 6, 59, 0
8, 413760, Note_on_c, 6, 59, 105
8, 414144, Note_on_c, 6, 59, 0
8, 414240, Note_on_c, 6, 60, 105
8, 414480, Note_on_c, 6, 60, 0
8, 414480, Note_on_c, 6, 59, 105
8, 414672, Note_on_c, 6, 59, 0
8, 414720, Note_on_c, 6, 59, 105
8, 415200, Note_on_c, 6, 59, 0
8, 415200, Note_on_c, 6, 67, 105
8, 415584, Note_on_c, 6, 67, 0
8, 416160, Note_on_c, 6, 67, 105
8, 416400, Note_on_c, 6, 67, 0
8, 416400, Note_on_c, 6, 66, 105
8, 416592, Note_on_c, 6, 66, 0
8, 416640, Note_on_c, 6, 64, 105
8, 417024, Note_on_c, 6, 64, 0
8, 417120, Note_on_c, 6, 64, 105
8, 417360, Note_on_c, 6, 64, 0
8, 417360, Note_on_c, 6, 62, 105
8, 417552, Note_on_c, 6, 62, 0
8, 417600, Note_on_c, 6, 60, 105
8, 417984, Note_on_c, 6, 60, 0
8, 418080, Note_on_c, 6, 60, 105
8, 418320, Note_on_c, 6, 60, 0
8, 418320, Note_on_c, 6, 59, 105
8, 418512, Note_on_c, 6, 59, 0
8, 418560, Note_on_c, 6, 57, 105
8, 418704, Note_on_c, 6, 57, 0
8, 418800, Note_on_c, 6, 59, 92
8, 418944, Note_on_c, 6, 59, 0
8, 419040, Note_on_c, 6, 60, 92
8, 419184, Note_on_c, 6, 60, 0
8, 419280, Note_on_c, 6, 59, 92
8, 419424, Note_on_c, 6, 59, 0
8, 419520, Note_on_c, 6, 57, 92
8, 419664, Note_on_c, 6, 57, 0
8, 419760, Note_on_c, 6, 58, 92
8, 419904, Note_on_c, 6, 58, 0
8, 420000, Note_on_c, 6, 55, 92
8, 420144, Note_on_c, 6, 55, 0
8, 420240, Note_on_c, 6, 57, 92
8, 420384, Note_on_c, 6, 57, 0
8, 420480, Note_on_c, 6, 53, 92
8, 420624, Note_on_c, 6, 53, 0
8, 420720, Note_on_c, 6, 57, 92
8, 420864, Note_on_c, 6, 57, 0
8, 420960, Note_on_c, 6, 62, 92
8, 421104, Note_on_c, 6, 62, 0
8, 421200, Note_on_c, 6, 53, 92
8, 421344, Note_on_c, 6, 53, 0
8, 421440, Note_on_c, 6, 52, 92
8, 421584, Note_on_c, 6, 52, 0
8, 421680, Note_on_c, 6, 55, 92
8, 421824, Note_on_c, 6, 55, 0
8, 421920, Note_on_c, 6, 61, 92
8, 422064, Note_on_c, 6, 61, 0
8, 422160, Note_on_c, 6, 52, 92
8, 422304, Note_on_c, 6, 52, 0
8, 422400, Note_on_c, 6, 50, 92
8, 422544, Note_on_c, 6, 50, 0
8, 422640, Note_on_c, 6, 57, 92
8, 422784, Note_on_c, 6, 57, 0
8, 422880, Note_on_c, 6, 59, 92
8, 423024, Note_on_c, 6, 59, 0
8, 423120, Note_on_c, 6, 61, 92
8, 423264, Note_on_c, 6, 61, 0
8, 423360, Note_on_c, 6, 62, 92
8, 423504, Note_on_c, 6, 62, 0
8, 423600, Note_on_c, 6, 57, 92
8, 423744, Note_on_c, 6, 57, 0
8, 423840, Note_on_c, 6, 62, 92
8, 423984, Note_on_c, 6, 62, 0
8, 424080, Note_on_c, 6, 64, 92
8, 424224, Note_on_c, 6, 64, 0
8, 424320, Note_on_c, 6, 65, 92
8, 424464, Note_on_c, 6, 65, 0
8, 424560, Note_on_c, 6, 62, 92
8, 424704, Note_on_c, 6, 62, 0
8, 424800, Note_on_c, 6, 64, 92
8, 424944, Note_on_c, 6, 64, 0
8, 425040, Note_on_c, 6, 66, 92
8, 425184, Note_on_c, 6, 66, 0
8, 425280, Note_on_c, 6, 67, 92
8, 425424, Note_on_c, 6, 67, 0
8, 425520, Note_on_c, 6, 62, 92
8, 425664, Note_on_c, 6, 62, 0
8, 425760, Note_on_c, 6, 66, 92
8, 425904, Note_on_c, 6, 66, 0
8, 426000, Note_on_c, 6, 69, 92
8, 426144, Note_on_c, 6, 69, 0
8, 426240, Note_on_c, 6, 70, 105
8, 426576, Note_on_c, 6, 70, 0
8, 426720, Note_on_c, 6, 55, 105
8, 427056, Note_on_c, 6, 55, 0
8, 427680, Note_on_c, 6, 57, 105
8, 427920, Note_on_c, 6, 57, 0
8, 427920, Note_on_c, 6, 55, 105
8, 428112, Note_on_c, 6, 55, 0
8, 428160, Note_on_c, 6, 55, 105
8, 428544, Note_on_c, 6, 55, 0
8, 428640, Note_on_c, 6, 57, 105
8, 428880, Note_on_c, 6, 57, 0
8, 428880, Note_on_c, 6, 55, 105
8, 429072, Note_on_c, 6, 55, 0
8, 429120, Note_on_c, 6, 55, 105
8, 429504, Note_on_c, 6, 55, 0
8, 429600, Note_on_c, 6, 57, 105
8, 429840, Note_on_c, 6, 57, 0
8, 429840, Note_on_c, 6, 55, 105
8, 430032, Note_on_c, 6, 55, 0
8, 430080, Note_on_c, 6, 55, 105
8, 430560, Note_on_c, 6, 55, 0
8, 430560, Note_on_c, 6, 64, 105
8, 430944, Note_on_c, 6, 64, 0
8, 431520, Note_on_c, 6, 64, 105
8, 431760, Note_on_c, 6, 64, 0
8, 431760, Note_on_c, 6, 62, 105
8, 431952, Note_on_c, 6, 62, 0
8, 432000, Note_on_c, 6, 60, 105
8, 432384, Note_on_c, 6, 60, 0
8, 432480, Note_on_c, 6, 60, 105
8, 432720, Note_on_c, 6, 60, 0
8, 432720, Note_on_c, 6, 58, 105
8, 432912, Note_on_c, 6, 58, 0
8, 432960, Note_on_c, 6, 57, 105
8, 433344, Note_on_c, 6, 57, 0
8, 433440, Note_on_c, 6, 57, 105
8, 433680, Note_on_c, 6, 57, 0
8, 433680, Note_on_c, 6, 55, 105
8, 433872, Note_on_c, 6, 55, 0
8, 433920, Note_on_c, 6, 53, 105
8, 434064, Note_on_c, 6, 53, 0
8, 434160, Note_on_c, 6, 55, 105
8, 434304, Note_on_c, 6, 55, 0
8, 434400, Note_on_c, 6, 57, 105
8, 434544, Note_on_c, 6, 57, 0
8, 434640, Note_on_c, 6, 55, 105
8, 434784, Note_on_c, 6, 55, 0
8, 434880, Note_on_c, 6, 53, 105
8, 435024, Note_on_c, 6, 53, 0
8, 435120, Note_on_c, 6, 55, 105
8, 435264, Note_on_c, 6, 55, 0
8, 435360, Note_on_c, 6, 51, 105
8, 435504, Note_on_c, 6, 51, 0
8, 435600, Note_on_c, 6, 53, 105
8, 435744, Note_on_c, 6, 53, 0
8, 435840, Note_on_c, 6, 50, 105
8, 435984, Note_on_c, 6, 50, 0
8, 436080, Note_on_c, 6, 53, 105
8, 436224, Note_on_c, 6, 53, 0
8, 436320, Note_on_c, 6, 58, 105
8, 436464, Note_on_c, 6, 58, 0
8, 436560, Note_on_c, 6, 50, 105
8, 436704, Note_on_c, 6, 50, 0
8, 436800, Note_on_c, 6, 48, 105
8, 436944, Note_on_c, 6, 48, 0
8, 437040, Note_on_c, 6, 51, 105
8, 437184, Note_on_c, 6, 51, 0
8, 437280, Note_on_c, 6, 57, 105
8, 437424, Note_on_c, 6, 57, 0
8, 437520, Note_on_c, 6, 60, 105
8, 437664, Note_on_c, 6, 60, 0
8, 437760, Note_on_c, 6, 58, 105
8, 437904, Note_on_c, 6, 58, 0
8, 438000, Note_on_c, 6, 53, 105
8, 438144, Note_on_c, 6, 53, 0
8, 438240, Note_on_c, 6, 55, 105
8, 438384, Note_on_c, 6, 55, 0
8, 438480, Note_on_c, 6, 57, 105
8, 438624, Note_on_c, 6, 57, 0
8, 438720, Note_on_c, 6, 58, 105
8, 438864, Note_on_c, 6, 58, 0
8, 438960, Note_on_c, 6, 57, 105
8, 439104, Note_on_c, 6, 57, 0
8, 439200, Note_on_c, 6, 58, 105
8, 439344, Note_on_c, 6, 58, 0
8, 439440, Note_on_c, 6, 60, 105
8, 439584, Note_on_c, 6, 60, 0
8, 439680, Note_on_c, 6, 62, 105
8, 439824, Note_on_c, 6, 62, 0
8, 439920, Note_on_c, 6, 58, 105
8, 440064, Note_on_c, 6, 58, 0
8, 440160, Note_on_c, 6, 60, 105
8, 440304, Note_on_c, 6, 60, 0
8, 440400, Note_on_c, 6, 62, 105
8, 440544, Note_on_c, 6, 62, 0
8, 440640, Note_on_c, 6, 63, 105
8, 440784, Note_on_c, 6, 63, 0
8, 440880, Note_on_c, 6, 62, 105
8, 441024, Note_on_c, 6, 62, 0
8, 441120, Note_on_c, 6, 63, 105
8, 441264, Note_on_c, 6, 63, 0
8, 441360, Note_on_c, 6, 65, 105
8, 441504, Note_on_c, 6, 65, 0
8, 441600, Note_on_c, 6, 67, 105
8, 441744, Note_on_c, 6, 67, 0
8, 441840, Note_on_c, 6, 51, 105
8, 441984, Note_on_c, 6, 51, 0
8, 442080, Note_on_c, 6, 53, 105
8, 442224, Note_on_c, 6, 53, 0
8, 442320, Note_on_c, 6, 55, 105
8, 442464, Note_on_c, 6, 55, 0
8, 442560, Note_on_c, 6, 57, 105
8, 442704, Note_on_c, 6, 57, 0
8, 442800, Note_on_c, 6, 55, 105
8, 442944, Note_on_c, 6, 55, 0
8, 443040, Note_on_c, 6, 57, 105
8, 443184, Note_on_c, 6, 57, 0
8, 443280, Note_on_c, 6, 58, 105
8, 443424, Note_on_c, 6, 58, 0
8, 443520, Note_on_c, 6, 60, 105
8, 443664, Note_on_c, 6, 60, 0
8, 443760, Note_on_c, 6, 57, 105
8, 443904, Note_on_c, 6, 57, 0
8, 444000, Note_on_c, 6, 58, 105
8, 444144, Note_on_c, 6, 58, 0
8, 444240, Note_on_c, 6, 60, 105
8, 444384, Note_on_c, 6, 60, 0
8, 444480, Note_on_c, 6, 62, 105
8, 444624, Note_on_c, 6, 62, 0
8, 444720, Note_on_c, 6, 61, 105
8, 444864, Note_on_c, 6, 61, 0
8, 444960, Note_on_c, 6, 62, 105
8, 445104, Note_on_c, 6, 62, 0
8, 445200, Note_on_c, 6, 64, 105
8, 445344, Note_on_c, 6, 64, 0
8, 445440, Note_on_c, 6, 66, 105
8, 445584, Note_on_c, 6, 66, 0
8, 445680, Note_on_c, 6, 62, 105
8, 445824, Note_on_c, 6, 62, 0
8, 445920, Note_on_c, 6, 64, 105
8, 446064, Note_on_c, 6, 64, 0
8, 446160, Note_on_c, 6, 66, 105
8, 446304, Note_on_c, 6, 66, 0
8, 446400, Note_on_c, 6, 67, 105
8, 446544, Note_on_c, 6, 67, 0
8, 446640, Note_on_c, 6, 63, 105
8, 446784, Note_on_c, 6, 63, 0
8, 446880, Note_on_c, 6, 62, 105
8, 447024, Note_on_c, 6, 62, 0
8, 447120, Note_on_c, 6, 60, 105
8, 447264, Note_on_c, 6, 60, 0
8, 447360, Note_on_c, 6, 58, 105
8, 447504, Note_on_c, 6, 58, 0
8, 447600, Note_on_c, 6, 60, 105
8, 447744, Note_on_c, 6, 60, 0
8, 447840, Note_on_c, 6, 58, 105
8, 447984, Note_on_c, 6, 58, 0
8, 448080, Note_on_c, 6, 57, 105
8, 448224, Note_on_c, 6, 57, 0
8, 448320, Note_on_c, 6, 55, 105
8, 448464, Note_on_c, 6, 55, 0
8, 448560, Note_on_c, 6, 53, 105
8, 448704, Note_on_c, 6, 53, 0
8, 448800, Note_on_c, 6, 55, 105
8, 448944, Note_on_c, 6, 55, 0
8, 449040, Note_on_c, 6, 56, 105
8, 449184, Note_on_c, 6, 56, 0
8, 449280, Note_on_c, 6, 57, 105
8, 449472, Note_on_c, 6, 57, 0
8, 449520, Note_on_c, 6, 57, 105
8, 449712, Note_on_c, 6, 57, 0
8, 449760, Note_on_c, 6, 57, 105
8, 449952, Note_on_c, 6, 57, 0
8, 450000, Note_on_c, 6, 57, 105
8, 450192, Note_on_c, 6, 57, 0
8, 450240, Note_on_c, 6, 57, 105
8, 450432, Note_on_c, 6, 57, 0
8, 450480, Note_on_c, 6, 57, 105
8, 450672, Note_on_c, 6, 57, 0
8, 450720, Note_on_c, 6, 57, 105
8, 450912, Note_on_c, 6, 57, 0
8, 450960, Note_on_c, 6, 57, 105
8, 451152, Note_on_c, 6, 57, 0
8, 451200, Note_on_c, 6, 57, 105
8, 451392, Note_on_c, 6, 57, 0
8, 451440, Note_on_c, 6, 57, 105
8, 451632, Note_on_c, 6, 57, 0
8, 451680, Note_on_c, 6, 57, 105
8, 451872, Note_on_c, 6, 57, 0
8, 451920, Note_on_c, 6, 57, 105
8, 452112, Note_on_c, 6, 57, 0
8, 452160, Note_on_c, 6, 57, 105
8, 452352, Note_on_c, 6, 57, 0
8, 452400, Note_on_c, 6, 57, 105
8, 452592, Note_on_c, 6, 57, 0
8, 452640, Note_on_c, 6, 57, 105
8, 452832, Note_on_c, 6, 57, 0
8, 452880, Note_on_c, 6, 57, 105
8, 453072, Note_on_c, 6, 57, 0
8, 453120, Note_on_c, 6, 57, 105
8, 453312, Note_on_c, 6, 57, 0
8, 453360, Note_on_c, 6, 57, 105
8, 453552, Note_on_c, 6, 57, 0
8, 453600, Note_on_c, 6, 57, 105
8, 453792, Note_on_c, 6, 57, 0
8, 453840, Note_on_c, 6, 57, 105
8, 454032, Note_on_c, 6, 57, 0
8, 454080, Note_on_c, 6, 57, 105
8, 454272, Note_on_c, 6, 57, 0
8, 454320, Note_on_c, 6, 57, 105
8, 454512, Note_on_c, 6, 57, 0
8, 454560, Note_on_c, 6, 57, 105
8, 454752, Note_on_c, 6, 57, 0
8, 454800, Note_on_c, 6, 57, 105
8, 454992, Note_on_c, 6, 57, 0
8, 455040, Note_on_c, 6, 57, 105
8, 455232, Note_on_c, 6, 57, 0
8, 455280, Note_on_c, 6, 57, 105
8, 455472, Note_on_c, 6, 57, 0
8, 455520, Note_on_c, 6, 57, 105
8, 455712, Note_on_c, 6, 57, 0
8, 455760, Note_on_c, 6, 57, 105
8, 455952, Note_on_c, 6, 57, 0
8, 456000, Note_on_c, 6, 57, 105
8, 456192, Note_on_c, 6, 57, 0
8, 456240, Note_on_c, 6, 57, 105
8, 456432, Note_on_c, 6, 57, 0
8, 456480, Note_on_c, 6, 57, 105
8, 456672, Note_on_c, 6, 57, 0
8, 456720, Note_on_c, 6, 57, 105
8, 456912, Note_on_c, 6, 57, 0
8, 456960, Note_on_c, 6, 57, 105
8, 457728, Note_on_c, 6, 57, 0
8, 473760, Note_on_c, 6, 72, 58
8, 474624, Note_on_c, 6, 72, 0
8, 474720, Note_on_c, 6, 72, 58
8, 475488, Note_on_c, 6, 72, 0
8, 475680, Note_on_c, 6, 72, 58
8, 476544, Note_on_c, 6, 72, 0
8, 477600, Note_on_c, 6, 69, 58
8, 478464, Note_on_c, 6, 69, 0
8, 478560, Note_on_c, 6, 69, 58
8, 479328, Note_on_c, 6, 69, 0
8, 479520, Note_on_c, 6, 69, 58
8, 480384, Note_on_c, 6, 69, 0
8, 481440, Note_on_c, 6, 60, 58
8, 482304, Note_on_c, 6, 60, 0
8, 482400, Note_on_c, 6, 60, 58
8, 483168, Note_on_c, 6, 60, 0
8, 483360, Note_on_c, 6, 60, 58
8, 484224, Note_on_c, 6, 60, 0
8, 485280, Note_on_c, 6, 70, 116
8, 485520, Note_on_c, 6, 70, 0
8, 485520, Note_on_c, 6, 69, 116
8, 485712, Note_on_c, 6, 69, 0
8, 485760, Note_on_c, 6, 69, 116
8, 486144, Note_on_c, 6, 69, 0
8, 487200, Note_on_c, 6, 69, 116
8, 487440, Note_on_c, 6, 69, 0
8, 487440, Note_on_c, 6, 70, 116
8, 487632, Note_on_c, 6, 70, 0
8, 487680, Note_on_c, 6, 70, 116
8, 488064, Note_on_c, 6, 70, 0
8, 489120, Note_on_c, 6, 70, 116
8, 489360, Note_on_c, 6, 70, 0
8, 489360, Note_on_c, 6, 69, 116
8, 489552, Note_on_c, 6, 69, 0
8, 489600, Note_on_c, 6, 67, 116
8, 489984, Note_on_c, 6, 67, 0
8, 491040, Note_on_c, 6, 67, 116
8, 491280, Note_on_c, 6, 67, 0
8, 491280, Note_on_c, 6, 66, 116
8, 491472, Note_on_c, 6, 66, 0
8, 491520, Note_on_c, 6, 66, 116
8, 491904, Note_on_c, 6, 66, 0
8, 492960, Note_on_c, 6, 68, 116
8, 493200, Note_on_c, 6, 68, 0
8, 493200, Note_on_c, 6, 69, 116
8, 493392, Note_on_c, 6, 69, 0
8, 493440, Note_on_c, 6, 69, 116
8, 493824, Note_on_c, 6, 69, 0
8, 494880, Note_on_c, 6, 72, 116
8, 495120, Note_on_c, 6, 72, 0
8, 495120, Note_on_c, 6, 70, 116
8, 495312, Note_on_c, 6, 70, 0
8, 495360, Note_on_c, 6, 70, 116
8, 495744, Note_on_c, 6, 70, 0
8, 496800, Note_on_c, 6, 71, 116
8, 497040, Note_on_c, 6, 71, 0
8, 497040, Note_on_c, 6, 72, 116
8, 497232, Note_on_c, 6, 72, 0
8, 497280, Note_on_c, 6, 72, 116
8, 497664, Note_on_c, 6, 72, 0
8, 497760, Note_on_c, 6, 69, 116
8, 498000, Note_on_c, 6, 69, 0
8, 498000, Note_on_c, 6, 67, 116
8, 498192, Note_on_c, 6, 67, 0
8, 498240, Note_on_c, 6, 67, 116
8, 498624, Note_on_c, 6, 67, 0
8, 498720, Note_on_c, 6, 67, 116
8, 498960, Note_on_c, 6, 67, 0
8, 498960, Note_on_c, 6, 69, 116
8, 499152, Note_on_c, 6, 69, 0
8, 499200, Note_on_c, 6, 69, 105
8, 499584, Note_on_c, 6, 69, 0
8, 510720, Note_on_c, 6, 55, 58
8, 510720, Note_on_c, 6, 58, 58
8, 510912, Note_on_c, 6, 58, 0
8, 510912, Note_on_c, 6, 55, 0
8, 510960, Note_on_c, 6, 58, 58
8, 510960, Note_on_c, 6, 55, 58
8, 511152, Note_on_c, 6, 55, 0
8, 511152, Note_on_c, 6, 58, 0
8, 511200, Note_on_c, 6, 67, 58
8, 511200, Note_on_c, 6, 62, 58
8, 511392, Note_on_c, 6, 62, 0
8, 511392, Note_on_c, 6, 67, 0
8, 511440, Note_on_c, 6, 67, 58
8, 511440, Note_on_c, 6, 62, 58
8, 511632, Note_on_c, 6, 62, 0
8, 511632, Note_on_c, 6, 67, 0
8, 511680, Note_on_c, 6, 55, 58
8, 511680, Note_on_c, 6, 58, 58
8, 511872, Note_on_c, 6, 58, 0
8, 511872, Note_on_c, 6, 55, 0
8, 511920, Note_on_c, 6, 58, 58
8, 511920, Note_on_c, 6, 55, 58
8, 512112, Note_on_c, 6, 55, 0
8, 512112, Note_on_c, 6, 58, 0
8, 512160, Note_on_c, 6, 62, 58
8, 512160, Note_on_c, 6, 67, 58
8, 512352, Note_on_c, 6, 67, 0
8, 512352, Note_on_c, 6, 62, 0
8, 512400, Note_on_c, 6, 67, 58
8, 512400, Note_on_c, 6, 62, 58
8, 512592, Note_on_c, 6, 62, 0
8, 512592, Note_on_c, 6, 67, 0
8, 512640, Note_on_c, 6, 55, 58
8, 512640, Note_on_c, 6, 58, 58
8, 512832, Note_on_c, 6, 58, 0
8, 512832, Note_on_c, 6, 55, 0
8, 512880, Note_on_c, 6, 58, 58
8, 512880, Note_on_c, 6, 55, 58
8, 513072, Note_on_c, 6, 55, 0
8, 513072, Note_on_c, 6, 58, 0
8, 513120, Note_on_c, 6, 58, 58
8, 513120, Note_on_c, 6, 62, 58
8, 513312, Note_on_c, 6, 62, 0
8, 513312, Note_on_c, 6, 58, 0
8, 513360, Note_on_c, 6, 58, 58
8, 513360, Note_on_c, 6, 62, 58
8, 513552, Note_on_c, 6, 62, 0
8, 513552, Note_on_c, 6, 58, 0
8, 513600, Note_on_c, 6, 55, 58
8, 513600, Note_on_c, 6, 58, 58
8, 513792, Note_on_c, 6, 58, 0
8, 513792, Note_on_c, 6, 55, 0
8, 513840, Note_on_c, 6, 58, 58
8, 513840, Note_on_c, 6, 55, 58
8, 514032, Note_on_c, 6, 55, 0
8, 514032, Note_on_c, 6, 58, 0
8, 514080, Note_on_c, 6, 58, 58
8, 514080, Note_on_c, 6, 67, 58
8, 514272, Note_on_c, 6, 67, 0
8, 514272, Note_on_c, 6, 58, 0
8, 514320, Note_on_c, 6, 67, 58
8, 514320, Note_on_c, 6, 58, 58
8, 514512, Note_on_c, 6, 58, 0
8, 514512, Note_on_c, 6, 67, 0
8, 514560, Note_on_c, 6, 57, 58
8, 514560, Note_on_c, 6, 63, 58
8, 514752, Note_on_c, 6, 63, 0
8, 514752, Note_on_c, 6, 57, 0
8, 514800, Note_on_c, 6, 63, 58
8, 514800, Note_on_c, 6, 57, 58
8, 514992, Note_on_c, 6, 57, 0
8, 514992, Note_on_c, 6, 63, 0
8, 515040, Note_on_c, 6, 63, 58
8, 515040, Note_on_c, 6, 69, 58
8, 515232, Note_on_c, 6, 69, 0
8, 515232, Note_on_c, 6, 63, 0
8, 515280, Note_on_c, 6, 63, 58
8, 515280, Note_on_c, 6, 69, 58
8, 515472, Note_on_c, 6, 69, 0
8, 515472, Note_on_c, 6, 63, 0
8, 515520, Note_on_c, 6, 57, 58
8, 515520, Note_on_c, 6, 63, 58
8, 515712, Note_on_c, 6, 63, 0
8, 515712, Note_on_c, 6, 57, 0
8, 515760, Note_on_c, 6, 57, 58
8, 515760, Note_on_c, 6, 63, 58
8, 515952, Note_on_c, 6, 63, 0
8, 515952, Note_on_c, 6, 57, 0
8, 516000, Note_on_c, 6, 69, 58
8, 516000, Note_on_c, 6, 63, 58
8, 516192, Note_on_c, 6, 63, 0
8, 516192, Note_on_c, 6, 69, 0
8, 516240, Note_on_c, 6, 69, 58
8, 516240, Note_on_c, 6, 63, 58
8, 516432, Note_on_c, 6, 63, 0
8, 516432, Note_on_c, 6, 69, 0
8, 516480, Note_on_c, 6, 57, 58
8, 516480, Note_on_c, 6, 63, 58
8, 516672, Note_on_c, 6, 63, 0
8, 516672, Note_on_c, 6, 57, 0
8, 516720, Note_on_c, 6, 57, 58
8, 516720, Note_on_c, 6, 63, 58
8, 516912, Note_on_c, 6, 63, 0
8, 516912, Note_on_c, 6, 57, 0
8, 516960, Note_on_c, 6, 69, 58
8, 516960, Note_on_c, 6, 63, 58
8, 517152, Note_on_c, 6, 63, 0
8, 517152, Note_on_c, 6, 69, 0
8, 517200, Note_on_c, 6, 69, 58
8, 517200, Note_on_c, 6, 63, 58
8, 517392, Note_on_c, 6, 63, 0
8, 517392, Note_on_c, 6, 69, 0
8, 517440, Note_on_c, 6, 57, 58
8, 517440, Note_on_c, 6, 63, 58
8, 517632, Note_on_c, 6, 63, 0
8, 517632, Note_on_c, 6, 57, 0
8, 517680, Note_on_c, 6, 63, 58
8, 517680, Note_on_c, 6, 57, 58
8, 517872, Note_on_c, 6, 57, 0
8, 517872, Note_on_c, 6, 63, 0
8, 517920, Note_on_c, 6, 69, 58
8, 517920, Note_on_c, 6, 63, 58
8, 518112, Note_on_c, 6, 63, 0
8, 518112, Note_on_c, 6, 69, 0
8, 518160, Note_on_c, 6, 69, 58
8, 518160, Note_on_c, 6, 63, 58
8, 518352, Note_on_c, 6, 63, 0
8, 518352, Note_on_c, 6, 69, 0
8, 518400, Note_on_c, 6, 57, 58
8, 518400, Note_on_c, 6, 62, 58
8, 518592, Note_on_c, 6, 62, 0
8, 518592, Note_on_c, 6, 57, 0
8, 518640, Note_on_c, 6, 62, 58
8, 518640, Note_on_c, 6, 57, 58
8, 518832, Note_on_c, 6, 57, 0
8, 518832, Note_on_c, 6, 62, 0
8, 518880, Note_on_c, 6, 72, 58
8, 518880, Note_on_c, 6, 62, 58
8, 519072, Note_on_c, 6, 62, 0
8, 519072, Note_on_c, 6, 72, 0
8, 519120, Note_on_c, 6, 72, 58
8, 519120, Note_on_c, 6, 62, 58
8, 519312, Note_on_c, 6, 62, 0
8, 519312, Note_on_c, 6, 72, 0
8, 519360, Note_on_c, 6, 62, 58
8, 519360, Note_on_c, 6, 57, 58
8, 519552, Note_on_c, 6, 57, 0
8, 519552, Note_on_c, 6, 62, 0
8, 519600, Note_on_c, 6, 62, 58
8, 519600, Note_on_c, 6, 57, 58
8, 519792, Note_on_c, 6, 57, 0
8, 519792, Note_on_c, 6, 62, 0
8, 519840, Note_on_c, 6, 72, 58
8, 519840, Note_on_c, 6, 62, 58
8, 520032, Note_on_c, 6, 62, 0
8, 520032, Note_on_c, 6, 72, 0
8, 520080, Note_on_c, 6, 62, 58
8, 520080, Note_on_c, 6, 72, 58
8, 520272, Note_on_c, 6, 72, 0
8, 520272, Note_on_c, 6, 62, 0
8, 520320, Note_on_c, 6, 57, 58
8, 520320, Note_on_c, 6, 60, 58
8, 520512, Note_on_c, 6, 60, 0
8, 520512, Note_on_c, 6, 57, 0
8, 520560, Note_on_c, 6, 60, 58
8, 520560, Note_on_c, 6, 57, 58
8, 520752, Note_on_c, 6, 57, 0
8, 520752, Note_on_c, 6, 60, 0
8, 520800, Note_on_c, 6, 60, 58
8, 520800, Note_on_c, 6, 69, 58
8, 520992, Note_on_c, 6, 69, 0
8, 520992, Note_on_c, 6, 60, 0
8, 521040, Note_on_c, 6, 69, 58
8, 521040, Note_on_c, 6, 60, 58
8, 521232, Note_on_c, 6, 60, 0
8, 521232, Note_on_c, 6, 69, 0
8, 521280, Note_on_c, 6, 57, 58
8, 521280, Note_on_c, 6, 66, 58
8, 521472, Note_on_c, 6, 66, 0
8, 521472, Note_on_c, 6, 57, 0
8, 521520, Note_on_c, 6, 66, 58
8, 521520, Note_on_c, 6, 57, 58
8, 521712, Note_on_c, 6, 57, 0
8, 521712, Note_on_c, 6, 66, 0
8, 521760, Note_on_c, 6, 66, 58
8, 521760, Note_on_c, 6, 69, 58
8, 521952, Note_on_c, 6, 69, 0
8, 521952, Note_on_c, 6, 66, 0
8, 522000, Note_on_c, 6, 69, 58
8, 522000, Note_on_c, 6, 66, 58
8, 522192, Note_on_c, 6, 66, 0
8, 522192, Note_on_c, 6, 69, 0
8, 522240, Note_on_c, 6, 55, 58
8, 522240, Note_on_c, 6, 58, 58
8, 522432, Note_on_c, 6, 58, 0
8, 522432, Note_on_c, 6, 55, 0
8, 522480, Note_on_c, 6, 55, 58
8, 522480, Note_on_c, 6, 58, 58
8, 522672, Note_on_c, 6, 58, 0
8, 522672, Note_on_c, 6, 55, 0
8, 522720, Note_on_c, 6, 67, 58
8, 522720, Note_on_c, 6, 62, 58
8, 522912, Note_on_c, 6, 62, 0
8, 522912, Note_on_c, 6, 67, 0
8, 522960, Note_on_c, 6, 62, 58
8, 522960, Note_on_c, 6, 67, 58
8, 523152, Note_on_c, 6, 67, 0
8, 523152, Note_on_c, 6, 62, 0
8, 523200, Note_on_c, 6, 55, 58
8, 523200, Note_on_c, 6, 58, 58
8, 523392, Note_on_c, 6, 58, 0
8, 523392, Note_on_c, 6, 55, 0
8, 523440, Note_on_c, 6, 55, 58
8, 523440, Note_on_c, 6, 58, 58
8, 523632, Note_on_c, 6, 58, 0
8, 523632, Note_on_c, 6, 55, 0
8, 523680, Note_on_c, 6, 62, 58
8, 523680, Note_on_c, 6, 67, 58
8, 523872, Note_on_c, 6, 67, 0
8, 523872, Note_on_c, 6, 62, 0
8, 523920, Note_on_c, 6, 62, 58
8, 523920, Note_on_c, 6, 67, 58
8, 524112, Note_on_c, 6, 67, 0
8, 524112, Note_on_c, 6, 62, 0
8, 524160, Note_on_c, 6, 57, 58
8, 524160, Note_on_c, 6, 63, 58
8, 524352, Note_on_c, 6, 63, 0
8, 524352, Note_on_c, 6, 57, 0
8, 524400, Note_on_c, 6, 57, 58
8, 524400, Note_on_c, 6, 63, 58
8, 524592, Note_on_c, 6, 63, 0
8, 524592, Note_on_c, 6, 57, 0
8, 524640, Note_on_c, 6, 66, 58
8, 524640, Note_on_c, 6, 63, 58
8, 524832, Note_on_c, 6, 63, 0
8, 524832, Note_on_c, 6, 66, 0
8, 524880, Note_on_c, 6, 63, 58
8, 524880, Note_on_c, 6, 66, 58
8, 525072, Note_on_c, 6, 66, 0
8, 525072, Note_on_c, 6, 63, 0
8, 525120, Note_on_c, 6, 63, 58
8, 525120, Note_on_c, 6, 57, 58
8, 525312, Note_on_c, 6, 57, 0
8, 525312, Note_on_c, 6, 63, 0
8, 525360, Note_on_c, 6, 57, 58
8, 525360, Note_on_c, 6, 63, 58
8, 525552, Note_on_c, 6, 63, 0
8, 525552, Note_on_c, 6, 57, 0
8, 525600, Note_on_c, 6, 66, 58
8, 525600, Note_on_c, 6, 63, 58
8, 525792, Note_on_c, 6, 63, 0
8, 525792, Note_on_c, 6, 66, 0
8, 525840, Note_on_c, 6, 66, 58
8, 525840, Note_on_c, 6, 63, 58
8, 526032, Note_on_c, 6, 63, 0
8, 526032, Note_on_c, 6, 66, 0
8, 526080, Note_on_c, 6, 55, 58
8, 526080, Note_on_c, 6, 62, 58
8, 526272, Note_on_c, 6, 62, 0
8, 526272, Note_on_c, 6, 55, 0
8, 526320, Note_on_c, 6, 55, 58
8, 526320, Note_on_c, 6, 62, 58
8, 526512, Note_on_c, 6, 62, 0
8, 526512, Note_on_c, 6, 55, 0
8, 526560, Note_on_c, 6, 67, 58
8, 526560, Note_on_c, 6, 62, 58
8, 526752, Note_on_c, 6, 62, 0
8, 526752, Note_on_c, 6, 67, 0
8, 526800, Note_on_c, 6, 62, 58
8, 526800, Note_on_c, 6, 67, 58
8, 526992, Note_on_c, 6, 67, 0
8, 526992, Note_on_c, 6, 62, 0
8, 527040, Note_on_c, 6, 55, 58
8, 527040, Note_on_c, 6, 62, 58
8, 527232, Note_on_c, 6, 62, 0
8, 527232, Note_on_c, 6, 55, 0
8, 527280, Note_on_c, 6, 62, 58
8, 527280, Note_on_c, 6, 55, 58
8, 527472, Note_on_c, 6, 55, 0
8, 527472, Note_on_c, 6, 62, 0
8, 527520, Note_on_c, 6, 62, 58
8, 527520, Note_on_c, 6, 67, 58
8, 527712, Note_on_c, 6, 67, 0
8, 527712, Note_on_c, 6, 62, 0
8, 527760, Note_on_c, 6, 67, 58
8, 527760, Note_on_c, 6, 62, 58
8, 527952, Note_on_c, 6, 62, 0
8, 527952, Note_on_c, 6, 67, 0
8, 528000, Note_on_c, 6, 57, 58
8, 528000, Note_on_c, 6, 63, 58
8, 528192, Note_on_c, 6, 63, 0
8, 528192, Note_on_c, 6, 57, 0
8, 528240, Note_on_c, 6, 57, 58
8, 528240, Note_on_c, 6, 63, 58
8, 528432, Note_on_c, 6, 63, 0
8, 528432, Note_on_c, 6, 57, 0
8, 528480, Note_on_c, 6, 63, 58
8, 528480, Note_on_c, 6, 66, 58
8, 528672, Note_on_c, 6, 66, 0
8, 528672, Note_on_c, 6, 63, 0
8, 528720, Note_on_c, 6, 63, 58
8, 528720, Note_on_c, 6, 66, 58
8, 528912, Note_on_c, 6, 66, 0
8, 528912, Note_on_c, 6, 63, 0
8, 528960, Note_on_c, 6, 63, 58
8, 528960, Note_on_c, 6, 57, 58
8, 529152, Note_on_c, 6, 57, 0
8, 529152, Note_on_c, 6, 63, 0
8, 529200, Note_on_c, 6, 63, 58
8, 529200, Note_on_c, 6, 57, 58
8, 529392, Note_on_c, 6, 57, 0
8, 529392, Note_on_c, 6, 63, 0
8, 529440, Note_on_c, 6, 63, 58
8, 529440, Note_on_c, 6, 66, 58
8, 529632, Note_on_c, 6, 66, 0
8, 529632, Note_on_c, 6, 63, 0
8, 529680, Note_on_c, 6, 66, 58
8, 529680, Note_on_c, 6, 63, 58
8, 529872, Note_on_c, 6, 63, 0
8, 529872, Note_on_c, 6, 66, 0
8, 529920, Note_on_c, 6, 55, 58
8, 529920, Note_on_c, 6, 62, 58
8, 531744, Note_on_c, 6, 62, 0
8, 531744, Note_on_c, 6, 55, 0
8, 531840, Note_on_c, 6, 58, 58
8, 533280, Note_on_c, 6, 58, 0
8, 533280, Note_on_c, 6, 57, 58
8, 533760, Note_on_c, 6, 57, 0
8, 533760, Note_on_c, 6, 55, 58
8, 534720, Note_on_c, 6, 55, 0
8, 534720, Note_on_c, 6, 54, 58
8, 535200, Note_on_c, 6, 54, 0
8, 535200, Note_on_c, 6, 55, 58
8, 535584, Note_on_c, 6, 55, 0
8, 535680, Note_on_c, 6, 57, 58
8, 536448, Note_on_c, 6, 57, 0
8, 537120, Note_on_c, 6, 62, 105
8, 537312, Note_on_c, 6, 62, 0
8, 537360, Note_on_c, 6, 62, 105
8, 537552, Note_on_c, 6, 62, 0
8, 537600, Note_on_c, 6, 62, 105
8, 538368, Note_on_c, 6, 62, 0
8, 539040, Note_on_c, 6, 62, 105
8, 539232, Note_on_c, 6, 62, 0
8, 539280, Note_on_c, 6, 62, 105
8, 539472, Note_on_c, 6, 62, 0
8, 539520, Note_on_c, 6, 62, 105
8, 540288, Note_on_c, 6, 62, 0
8, 540960, Note_on_c, 6, 62, 105
8, 541128, Note_on_c, 6, 62, 0
8, 541200, Note_on_c, 6, 62, 105
8, 541368, Note_on_c, 6, 62, 0
8, 541440, Note_on_c, 6, 62, 105
8, 541776, Note_on_c, 6, 62, 0
8, 541920, Note_on_c, 6, 62, 105
8, 542088, Note_on_c, 6, 62, 0
8, 542160, Note_on_c, 6, 62, 105
8, 542328, Note_on_c, 6, 62, 0
8, 542400, Note_on_c, 6, 62, 105
8, 542736, Note_on_c, 6, 62, 0
8, 542880, Note_on_c, 6, 62, 105
8, 543048, Note_on_c, 6, 62, 0
8, 543120, Note_on_c, 6, 62, 105
8, 543288, Note_on_c, 6, 62, 0
8, 543360, Note_on_c, 6, 62, 105
8, 544128, Note_on_c, 6, 62, 0
8, 547200, Note_on_c, 6, 55, 58
8, 547200, Note_on_c, 6, 58, 58
8, 547392, Note_on_c, 6, 58, 0
8, 547392, Note_on_c, 6, 55, 0
8, 547440, Note_on_c, 6, 58, 58
8, 547440, Note_on_c, 6, 55, 58
8, 547632, Note_on_c, 6, 55, 0
8, 547632, Note_on_c, 6, 58, 0
8, 547680, Note_on_c, 6, 67, 58
8, 547680, Note_on_c, 6, 62, 58
8, 547872, Note_on_c, 6, 62, 0
8, 547872, Note_on_c, 6, 67, 0
8, 547920, Note_on_c, 6, 67, 58
8, 547920, Note_on_c, 6, 62, 58
8, 548112, Note_on_c, 6, 62, 0
8, 548112, Note_on_c, 6, 67, 0
8, 548160, Note_on_c, 6, 55, 58
8, 548160, Note_on_c, 6, 58, 58
8, 548352, Note_on_c, 6, 58, 0
8, 548352, Note_on_c, 6, 55, 0
8, 548400, Note_on_c, 6, 58, 58
8, 548400, Note_on_c, 6, 55, 58
8, 548592, Note_on_c, 6, 55, 0
8, 548592, Note_on_c, 6, 58, 0
8, 548640, Note_on_c, 6, 62, 58
8, 548640, Note_on_c, 6, 67, 58
8, 548832, Note_on_c, 6, 67, 0
8, 548832, Note_on_c, 6, 62, 0
8, 548880, Note_on_c, 6, 62, 58
8, 548880, Note_on_c, 6, 67, 58
8, 549072, Note_on_c, 6, 67, 0
8, 549072, Note_on_c, 6, 62, 0
8, 549120, Note_on_c, 6, 58, 58
8, 549120, Note_on_c, 6, 63, 58
8, 549312, Note_on_c, 6, 63, 0
8, 549312, Note_on_c, 6, 58, 0
8, 549360, Note_on_c, 6, 63, 58
8, 549360, Note_on_c, 6, 58, 58
8, 549552, Note_on_c, 6, 58, 0
8, 549552, Note_on_c, 6, 63, 0
8, 549600, Note_on_c, 6, 63, 58
8, 549600, Note_on_c, 6, 67, 58
8, 549792, Note_on_c, 6, 67, 0
8, 549792, Note_on_c, 6, 63, 0
8, 549840, Note_on_c, 6, 63, 58
8, 549840, Note_on_c, 6, 67, 58
8, 550032, Note_on_c, 6, 67, 0
8, 550032, Note_on_c, 6, 63, 0
8, 550080, Note_on_c, 6, 58, 58
8, 550080, Note_on_c, 6, 63, 58
8, 550272, Note_on_c, 6, 63, 0
8, 550272, Note_on_c, 6, 58, 0
8, 550320, Note_on_c, 6, 63, 58
8, 550320, Note_on_c, 6, 58, 58
8, 550512, Note_on_c, 6, 58, 0
8, 550512, Note_on_c, 6, 63, 0
8, 550560, Note_on_c, 6, 67, 58
8, 550560, Note_on_c, 6, 70, 58
8, 550752, Note_on_c, 6, 70, 0
8, 550752, Note_on_c, 6, 67, 0
8, 550800, Note_on_c, 6, 70, 58
8, 550800, Note_on_c, 6, 67, 58
8, 550992, Note_on_c, 6, 67, 0
8, 550992, Note_on_c, 6, 70, 0
8, 551040, Note_on_c, 6, 58, 58
8, 551040, Note_on_c, 6, 56, 58
8, 551232, Note_on_c, 6, 56, 0
8, 551232, Note_on_c, 6, 58, 0
8, 551280, Note_on_c, 6, 56, 58
8, 551280, Note_on_c, 6, 58, 58
8, 551472, Note_on_c, 6, 58, 0
8, 551472, Note_on_c, 6, 56, 0
8, 551520, Note_on_c, 6, 58, 58
8, 551520, Note_on_c, 6, 68, 58
8, 551712, Note_on_c, 6, 68, 0
8, 551712, Note_on_c, 6, 58, 0
8, 551760, Note_on_c, 6, 68, 58
8, 551760, Note_on_c, 6, 58, 58
8, 551952, Note_on_c, 6, 58, 0
8, 551952, Note_on_c, 6, 68, 0
8, 552000, Note_on_c, 6, 56, 58
8, 552000, Note_on_c, 6, 58, 58
8, 552192, Note_on_c, 6, 58, 0
8, 552192, Note_on_c, 6, 56, 0
8, 552240, Note_on_c, 6, 56, 58
8, 552240, Note_on_c, 6, 58, 58
8, 552432, Note_on_c, 6, 58, 0
8, 552432, Note_on_c, 6, 56, 0
8, 552480, Note_on_c, 6, 58, 58
8, 552480, Note_on_c, 6, 62, 58
8, 552672, Note_on_c, 6, 62, 0
8, 552672, Note_on_c, 6, 58, 0
8, 552720, Note_on_c, 6, 58, 58
8, 552720, Note_on_c, 6, 62, 58
8, 552912, Note_on_c, 6, 62, 0
8, 552912, Note_on_c, 6, 58, 0
8, 552960, Note_on_c, 6, 53, 58
8, 552960, Note_on_c, 6, 59, 58
8, 553152, Note_on_c, 6, 59, 0
8, 553152, Note_on_c, 6, 53, 0
8, 553200, Note_on_c, 6, 53, 58
8, 553200, Note_on_c, 6, 59, 58
8, 553392, Note_on_c, 6, 59, 0
8, 553392, Note_on_c, 6, 53, 0
8, 553440, Note_on_c, 6, 59, 58
8, 553440, Note_on_c, 6, 65, 58
8, 553632, Note_on_c, 6, 65, 0
8, 553632, Note_on_c, 6, 59, 0
8, 553680, Note_on_c, 6, 59, 58
8, 553680, Note_on_c, 6, 65, 58
8, 553872, Note_on_c, 6, 65, 0
8, 553872, Note_on_c, 6, 59, 0
8, 553920, Note_on_c, 6, 53, 58
8, 553920, Note_on_c, 6, 59, 58
8, 554112, Note_on_c, 6, 59, 0
8, 554112, Note_on_c, 6, 53, 0
8, 554160, Note_on_c, 6, 53, 58
8, 554160, Note_on_c, 6, 59, 58
8, 554352, Note_on_c, 6, 59, 0
8, 554352, Note_on_c, 6, 53, 0
8, 554400, Note_on_c, 6, 59, 58
8, 554400, Note_on_c, 6, 65, 58
8, 554592, Note_on_c, 6, 65, 0
8, 554592, Note_on_c, 6, 59, 0
8, 554640, Note_on_c, 6, 59, 58
8, 554640, Note_on_c, 6, 65, 58
8, 554832, Note_on_c, 6, 65, 0
8, 554832, Note_on_c, 6, 59, 0
8, 554880, Note_on_c, 6, 53, 58
8, 554880, Note_on_c, 6, 58, 58
8, 555072, Note_on_c, 6, 58, 0
8, 555072, Note_on_c, 6, 53, 0
8, 555120, Note_on_c, 6, 53, 58
8, 555120, Note_on_c, 6, 58, 58
8, 555312, Note_on_c, 6, 58, 0
8, 555312, Note_on_c, 6, 53, 0
8, 555360, Note_on_c, 6, 65, 58
8, 555360, Note_on_c, 6, 68, 58
8, 555552, Note_on_c, 6, 68, 0
8, 555552, Note_on_c, 6, 65, 0
8, 555600, Note_on_c, 6, 65, 58
8, 555600, Note_on_c, 6, 68, 58
8, 555792, Note_on_c, 6, 68, 0
8, 555792, Note_on_c, 6, 65, 0
8, 555840, Note_on_c, 6, 53, 58
8, 555840, Note_on_c, 6, 58, 58
8, 556032, Note_on_c, 6, 58, 0
8, 556032, Note_on_c, 6, 53, 0
8, 556080, Note_on_c, 6, 58, 58
8, 556080, Note_on_c, 6, 53, 58
8, 556272, Note_on_c, 6, 53, 0
8, 556272, Note_on_c, 6, 58, 0
8, 556320, Note_on_c, 6, 68, 58
8, 556320, Note_on_c, 6, 65, 58
8, 556512, Note_on_c, 6, 65, 0
8, 556512, Note_on_c, 6, 68, 0
8, 556560, Note_on_c, 6, 68, 58
8, 556560, Note_on_c, 6, 65, 58
8, 556752, Note_on_c, 6, 65, 0
8, 556752, Note_on_c, 6, 68, 0
8, 556800, Note_on_c, 6, 53, 58
8, 556800, Note_on_c, 6, 56, 58
8, 556992, Note_on_c, 6, 56, 0
8, 556992, Note_on_c, 6, 53, 0
8, 557040, Note_on_c, 6, 56, 58
8, 557040, Note_on_c, 6, 53, 58
8, 557232, Note_on_c, 6, 53, 0
8, 557232, Note_on_c, 6, 56, 0
8, 557280, Note_on_c, 6, 56, 58
8, 557280, Note_on_c, 6, 65, 58
8, 557472, Note_on_c, 6, 65, 0
8, 557472, Note_on_c, 6, 56, 0
8, 557520, Note_on_c, 6, 65, 58
8, 557520, Note_on_c, 6, 56, 58
8, 557712, Note_on_c, 6, 56, 0
8, 557712, Note_on_c, 6, 65, 0
8, 557760, Note_on_c, 6, 53, 58
8, 557760, Note_on_c, 6, 62, 58
8, 557952, Note_on_c, 6, 62, 0
8, 557952, Note_on_c, 6, 53, 0
8, 558000, Note_on_c, 6, 62, 58
8, 558000, Note_on_c, 6, 53, 58
8, 558192, Note_on_c, 6, 53, 0
8, 558192, Note_on_c, 6, 62, 0
8, 558240, Note_on_c, 6, 65, 58
8, 558240, Note_on_c, 6, 62, 58
8, 558432, Note_on_c, 6, 62, 0
8, 558432, Note_on_c, 6, 65, 0
8, 558480, Note_on_c, 6, 62, 58
8, 558480, Note_on_c, 6, 65, 58
8, 558672, Note_on_c, 6, 65, 0
8, 558672, Note_on_c, 6, 62, 0
8, 558720, Note_on_c, 6, 63, 105
8, 559104, Note_on_c, 6, 63, 0
8, 559200, Note_on_c, 6, 58, 105
8, 559344, Note_on_c, 6, 58, 0
8, 559440, Note_on_c, 6, 63, 105
8, 559584, Note_on_c, 6, 63, 0
8, 559680, Note_on_c, 6, 67, 105
8, 559824, Note_on_c, 6, 67, 0
8, 559920, Note_on_c, 6, 65, 105
8, 560064, Note_on_c, 6, 65, 0
8, 560160, Note_on_c, 6, 67, 105
8, 560304, Note_on_c, 6, 67, 0
8, 560400, Note_on_c, 6, 63, 105
8, 560544, Note_on_c, 6, 63, 0
8, 560640, Note_on_c, 6, 62, 105
8, 560832, Note_on_c, 6, 62, 0
8, 560880, Note_on_c, 6, 63, 105
8, 561072, Note_on_c, 6, 63, 0
8, 561120, Note_on_c, 6, 65, 105
8, 561312, Note_on_c, 6, 65, 0
8, 561360, Note_on_c, 6, 63, 105
8, 561552, Note_on_c, 6, 63, 0
8, 561600, Note_on_c, 6, 62, 105
8, 561792, Note_on_c, 6, 62, 0
8, 561840, Note_on_c, 6, 60, 105
8, 562032, Note_on_c, 6, 60, 0
8, 562080, Note_on_c, 6, 62, 105
8, 562272, Note_on_c, 6, 62, 0
8, 562320, Note_on_c, 6, 58, 105
8, 562512, Note_on_c, 6, 58, 0
8, 562560, Note_on_c, 6, 63, 105
8, 562752, Note_on_c, 6, 63, 0
8, 562800, Note_on_c, 6, 60, 105
8, 562992, Note_on_c, 6, 60, 0
8, 563040, Note_on_c, 6, 63, 105
8, 563232, Note_on_c, 6, 63, 0
8, 563280, Note_on_c, 6, 60, 105
8, 563472, Note_on_c, 6, 60, 0
8, 563520, Note_on_c, 6, 63, 105
8, 563712, Note_on_c, 6, 63, 0
8, 563760, Note_on_c, 6, 60, 105
8, 563952, Note_on_c, 6, 60, 0
8, 564000, Note_on_c, 6, 63, 105
8, 564192, Note_on_c, 6, 63, 0
8, 564240, Note_on_c, 6, 60, 105
8, 564432, Note_on_c, 6, 60, 0
8, 564480, Note_on_c, 6, 63, 105
8, 564672, Note_on_c, 6, 63, 0
8, 564720, Note_on_c, 6, 58, 105
8, 564912, Note_on_c, 6, 58, 0
8, 564960, Note_on_c, 6, 63, 105
8, 565152, Note_on_c, 6, 63, 0
8, 565200, Note_on_c, 6, 58, 105
8, 565392, Note_on_c, 6, 58, 0
8, 565440, Note_on_c, 6, 63, 105
8, 565632, Note_on_c, 6, 63, 0
8, 565680, Note_on_c, 6, 58, 105
8, 565872, Note_on_c, 6, 58, 0
8, 565920, Note_on_c, 6, 63, 105
8, 566112, Note_on_c, 6, 63, 0
8, 566160, Note_on_c, 6, 58, 105
8, 566352, Note_on_c, 6, 58, 0
8, 566400, Note_on_c, 6, 60, 105
8, 566592, Note_on_c, 6, 60, 0
8, 566640, Note_on_c, 6, 68, 105
8, 566832, Note_on_c, 6, 68, 0
8, 566880, Note_on_c, 6, 72, 105
8, 567072, Note_on_c, 6, 72, 0
8, 567120, Note_on_c, 6, 68, 105
8, 567312, Note_on_c, 6, 68, 0
8, 567360, Note_on_c, 6, 72, 105
8, 567552, Note_on_c, 6, 72, 0
8, 567600, Note_on_c, 6, 68, 105
8, 567792, Note_on_c, 6, 68, 0
8, 567840, Note_on_c, 6, 72, 105
8, 568032, Note_on_c, 6, 72, 0
8, 568080, Note_on_c, 6, 68, 105
8, 568272, Note_on_c, 6, 68, 0
8, 568320, Note_on_c, 6, 70, 105
8, 568512, Note_on_c, 6, 70, 0
8, 568560, Note_on_c, 6, 67, 105
8, 568752, Note_on_c, 6, 67, 0
8, 568800, Note_on_c, 6, 70, 105
8, 568992, Note_on_c, 6, 70, 0
8, 569040, Note_on_c, 6, 67, 105
8, 569232, Note_on_c, 6, 67, 0
8, 569280, Note_on_c, 6, 68, 105
8, 569472, Note_on_c, 6, 68, 0
8, 569520, Note_on_c, 6, 65, 105
8, 569712, Note_on_c, 6, 65, 0
8, 569760, Note_on_c, 6, 68, 105
8, 569952, Note_on_c, 6, 68, 0
8, 570000, Note_on_c, 6, 65, 105
8, 570192, Note_on_c, 6, 65, 0
8, 570240, Note_on_c, 6, 67, 105
8, 570432, Note_on_c, 6, 67, 0
8, 570480, Note_on_c, 6, 64, 105
8, 570672, Note_on_c, 6, 64, 0
8, 570720, Note_on_c, 6, 67, 105
8, 570912, Note_on_c, 6, 67, 0
8, 570960, Note_on_c, 6, 64, 105
8, 571152, Note_on_c, 6, 64, 0
8, 571200, Note_on_c, 6, 64, 105
8, 571392, Note_on_c, 6, 64, 0
8, 571440, Note_on_c, 6, 60, 105
8, 571632, Note_on_c, 6, 60, 0
8, 571680, Note_on_c, 6, 64, 105
8, 571872, Note_on_c, 6, 64, 0
8, 571920, Note_on_c, 6, 60, 105
8, 572112, Note_on_c, 6, 60, 0
8, 572160, Note_on_c, 6, 65, 105
8, 573696, Note_on_c, 6, 65, 0
8, 574080, Note_on_c, 6, 72, 105
8, 575232, Note_on_c, 6, 72, 0
8, 575760, Note_on_c, 6, 60, 105
8, 575904, Note_on_c, 6, 60, 0
8, 576000, Note_on_c, 6, 58, 105
8, 576288, Note_on_c, 6, 58, 0
8, 576480, Note_on_c, 6, 61, 105
8, 576768, Note_on_c, 6, 61, 0
8, 576960, Note_on_c, 6, 67, 105
8, 577248, Note_on_c, 6, 67, 0
8, 577920, Note_on_c, 6, 56, 105
8, 578208, Note_on_c, 6, 56, 0
8, 578400, Note_on_c, 6, 60, 105
8, 578688, Note_on_c, 6, 60, 0
8, 578880, Note_on_c, 6, 65, 105
8, 579168, Note_on_c, 6, 65, 0
8, 579600, Note_on_c, 6, 56, 105
8, 579744, Note_on_c, 6, 56, 0
8, 579840, Note_on_c, 6, 55, 105
8, 580128, Note_on_c, 6, 55, 0
8, 580320, Note_on_c, 6, 58, 105
8, 580608, Note_on_c, 6, 58, 0
8, 580800, Note_on_c, 6, 64, 105
8, 581088, Note_on_c, 6, 64, 0
8, 581520, Note_on_c, 6, 55, 105
8, 581664, Note_on_c, 6, 55, 0
8, 581760, Note_on_c, 6, 53, 105
8, 582048, Note_on_c, 6, 53, 0
8, 582240, Note_on_c, 6, 56, 105
8, 582528, Note_on_c, 6, 56, 0
8, 582720, Note_on_c, 6, 60, 105
8, 583008, Note_on_c, 6, 60, 0
8, 583440, Note_on_c, 6, 53, 105
8, 583584, Note_on_c, 6, 53, 0
8, 583680, Note_on_c, 6, 58, 105
8, 583968, Note_on_c, 6, 58, 0
8, 584160, Note_on_c, 6, 62, 105
8, 584448, Note_on_c, 6, 62, 0
8, 584640, Note_on_c, 6, 65, 105
8, 584928, Note_on_c, 6, 65, 0
8, 585360, Note_on_c, 6, 58, 105
8, 585504, Note_on_c, 6, 58, 0
8, 585600, Note_on_c, 6, 63, 105
8, 585888, Note_on_c, 6, 63, 0
8, 586080, Note_on_c, 6, 67, 105
8, 586368, Note_on_c, 6, 67, 0
8, 586560, Note_on_c, 6, 70, 105
8, 586848, Note_on_c, 6, 70, 0
8, 587280, Note_on_c, 6, 51, 105
8, 587424, Note_on_c, 6, 51, 0
8, 587520, Note_on_c, 6, 56, 105
8, 587808, Note_on_c, 6, 56, 0
8, 588000, Note_on_c, 6, 60, 105
8, 588288, Note_on_c, 6, 60, 0
8, 588480, Note_on_c, 6, 63, 105
8, 588768, Note_on_c, 6, 63, 0
8, 589200, Note_on_c, 6, 56, 105
8, 589344, Note_on_c, 6, 56, 0
8, 589440, Note_on_c, 6, 62, 105
8, 589728, Note_on_c, 6, 62, 0
8, 589920, Note_on_c, 6, 65, 105
8, 590208, Note_on_c, 6, 65, 0
8, 590400, Note_on_c, 6, 69, 105
8, 590688, Note_on_c, 6, 69, 0
8, 591120, Note_on_c, 6, 62, 105
8, 591264, Note_on_c, 6, 62, 0
8, 591360, Note_on_c, 6, 67, 105
8, 591648, Note_on_c, 6, 67, 0
8, 591840, Note_on_c, 6, 71, 105
8, 592128, Note_on_c, 6, 71, 0
8, 592320, Note_on_c, 6, 74, 105
8, 592608, Note_on_c, 6, 74, 0
8, 593040, Note_on_c, 6, 55, 105
8, 593184, Note_on_c, 6, 55, 0
8, 593280, Note_on_c, 6, 60, 105
8, 593568, Note_on_c, 6, 60, 0
8, 593760, Note_on_c, 6, 63, 105
8, 594048, Note_on_c, 6, 63, 0
8, 594240, Note_on_c, 6, 69, 105
8, 594528, Note_on_c, 6, 69, 0
8, 594960, Note_on_c, 6, 60, 105
8, 595104, Note_on_c, 6, 60, 0
8, 595200, Note_on_c, 6, 62, 105
8, 595488, Note_on_c, 6, 62, 0
8, 595680, Note_on_c, 6, 66, 105
8, 595968, Note_on_c, 6, 66, 0
8, 596160, Note_on_c, 6, 69, 105
8, 596448, Note_on_c, 6, 69, 0
8, 597120, Note_on_c, 6, 70, 105
8, 597312, Note_on_c, 6, 70, 0
8, 597360, Note_on_c, 6, 67, 105
8, 597552, Note_on_c, 6, 67, 0
8, 597600, Note_on_c, 6, 70, 105
8, 597792, Note_on_c, 6, 70, 0
8, 597840, Note_on_c, 6, 67, 105
8, 598032, Note_on_c, 6, 67, 0
8, 598080, Note_on_c, 6, 70, 105
8, 598272, Note_on_c, 6, 70, 0
8, 598320, Note_on_c, 6, 67, 105
8, 598512, Note_on_c, 6, 67, 0
8, 598560, Note_on_c, 6, 70, 105
8, 598752, Note_on_c, 6, 70, 0
8, 598800, Note_on_c, 6, 67, 105
8, 598992, Note_on_c, 6, 67, 0
8, 599040, Note_on_c, 6, 69, 105
8, 599232, Note_on_c, 6, 69, 0
8, 599280, Note_on_c, 6, 65, 105
8, 599472, Note_on_c, 6, 65, 0
8, 599520, Note_on_c, 6, 69, 105
8, 599712, Note_on_c, 6, 69, 0
8, 599760, Note_on_c, 6, 65, 105
8, 599952, Note_on_c, 6, 65, 0
8, 600000, Note_on_c, 6, 69, 105
8, 600192, Note_on_c, 6, 69, 0
8, 600240, Note_on_c, 6, 65, 105
8, 600432, Note_on_c, 6, 65, 0
8, 600480, Note_on_c, 6, 69, 105
8, 600672, Note_on_c, 6, 69, 0
8, 600720, Note_on_c, 6, 65, 105
8, 600912, Note_on_c, 6, 65, 0
8, 600960, Note_on_c, 6, 67, 105
8, 601152, Note_on_c, 6, 67, 0
8, 601200, Note_on_c, 6, 63, 105
8, 601392, Note_on_c, 6, 63, 0
8, 601440, Note_on_c, 6, 67, 105
8, 601632, Note_on_c, 6, 67, 0
8, 601680, Note_on_c, 6, 63, 105
8, 601872, Note_on_c, 6, 63, 0
8, 601920, Note_on_c, 6, 67, 105
8, 602112, Note_on_c, 6, 67, 0
8, 602160, Note_on_c, 6, 63, 105
8, 602352, Note_on_c, 6, 63, 0
8, 602400, Note_on_c, 6, 67, 105
8, 602592, Note_on_c, 6, 67, 0
8, 602640, Note_on_c, 6, 63, 105
8, 602832, Note_on_c, 6, 63, 0
8, 602880, Note_on_c, 6, 67, 105
8, 603072, Note_on_c, 6, 67, 0
8, 603120, Note_on_c, 6, 62, 105
8, 603312, Note_on_c, 6, 62, 0
8, 603360, Note_on_c, 6, 67, 105
8, 603552, Note_on_c, 6, 67, 0
8, 603600, Note_on_c, 6, 62, 105
8, 603792, Note_on_c, 6, 62, 0
8, 603840, Note_on_c, 6, 67, 105
8, 604032, Note_on_c, 6, 67, 0
8, 604080, Note_on_c, 6, 62, 105
8, 604272, Note_on_c, 6, 62, 0
8, 604320, Note_on_c, 6, 67, 105
8, 604512, Note_on_c, 6, 67, 0
8, 604560, Note_on_c, 6, 62, 105
8, 604752, Note_on_c, 6, 62, 0
8, 604800, Note_on_c, 6, 63, 105
8, 604992, Note_on_c, 6, 63, 0
8, 605040, Note_on_c, 6, 60, 105
8, 605232, Note_on_c, 6, 60, 0
8, 605280, Note_on_c, 6, 63, 105
8, 605472, Note_on_c, 6, 63, 0
8, 605520, Note_on_c, 6, 60, 105
8, 605712, Note_on_c, 6, 60, 0
8, 605760, Note_on_c, 6, 63, 105
8, 605952, Note_on_c, 6, 63, 0
8, 606000, Note_on_c, 6, 60, 105
8, 606192, Note_on_c, 6, 60, 0
8, 606240, Note_on_c, 6, 63, 105
8, 606432, Note_on_c, 6, 63, 0
8, 606480, Note_on_c, 6, 60, 105
8, 606672, Note_on_c, 6, 60, 0
8, 606720, Note_on_c, 6, 62, 105
8, 606912, Note_on_c, 6, 62, 0
8, 606960, Note_on_c, 6, 58, 105
8, 607152, Note_on_c, 6, 58, 0
8, 607200, Note_on_c, 6, 62, 105
8, 607392, Note_on_c, 6, 62, 0
8, 607440, Note_on_c, 6, 58, 105
8, 607632, Note_on_c, 6, 58, 0
8, 607680, Note_on_c, 6, 62, 105
8, 607872, Note_on_c, 6, 62, 0
8, 607920, Note_on_c, 6, 58, 105
8, 608112, Note_on_c, 6, 58, 0
8, 608160, Note_on_c, 6, 62, 105
8, 608352, Note_on_c, 6, 62, 0
8, 608400, Note_on_c, 6, 58, 105
8, 608592, Note_on_c, 6, 58, 0
8, 608640, Note_on_c, 6, 57, 125
8, 610176, Note_on_c, 6, 57, 0
8, 610560, Note_on_c, 6, 57, 125
8, 611328, Note_on_c, 6, 57, 0
8, 611520, Note_on_c, 6, 58, 125
8, 612288, Note_on_c, 6, 58, 0
8, 612480, Note_on_c, 6, 57, 125
8, 613248, Note_on_c, 6, 57, 0
8, 613440, Note_on_c, 6, 58, 125
8, 614208, Note_on_c, 6, 58, 0
8, 614400, Note_on_c, 6, 57, 125
8, 615168, Note_on_c, 6, 57, 0
8, 616080, Note_on_c, 6, 57, 105
8, 616272, Note_on_c, 6, 57, 0
8, 616320, Note_on_c, 6, 62, 105
8, 616512, Note_on_c, 6, 62, 0
8, 616560, Note_on_c, 6, 66, 105
8, 616752, Note_on_c, 6, 66, 0
8, 616800, Note_on_c, 6, 66, 105
8, 616992, Note_on_c, 6, 66, 0
8, 617040, Note_on_c, 6, 66, 105
8, 617232, Note_on_c, 6, 66, 0
8, 617280, Note_on_c, 6, 66, 105
8, 617472, Note_on_c, 6, 66, 0
8, 617520, Note_on_c, 6, 66, 105
8, 617712, Note_on_c, 6, 66, 0
8, 617760, Note_on_c, 6, 69, 105
8, 617952, Note_on_c, 6, 69, 0
8, 618000, Note_on_c, 6, 69, 105
8, 618192, Note_on_c, 6, 69, 0
8, 618240, Note_on_c, 6, 67, 105
8, 618432, Note_on_c, 6, 67, 0
8, 618480, Note_on_c, 6, 67, 105
8, 618672, Note_on_c, 6, 67, 0
8, 618720, Note_on_c, 6, 67, 105
8, 618912, Note_on_c, 6, 67, 0
8, 618960, Note_on_c, 6, 67, 105
8, 619152, Note_on_c, 6, 67, 0
8, 619200, Note_on_c, 6, 67, 105
8, 619392, Note_on_c, 6, 67, 0
8, 619440, Note_on_c, 6, 67, 105
8, 619632, Note_on_c, 6, 67, 0
8, 619680, Note_on_c, 6, 67, 105
8, 619872, Note_on_c, 6, 67, 0
8, 619920, Note_on_c, 6, 67, 105
8, 620112, Note_on_c, 6, 67, 0
8, 620160, Note_on_c, 6, 66, 105
8, 620352, Note_on_c, 6, 66, 0
8, 620400, Note_on_c, 6, 66, 105
8, 620592, Note_on_c, 6, 66, 0
8, 620640, Note_on_c, 6, 66, 105
8, 620832, Note_on_c, 6, 66, 0
8, 620880, Note_on_c, 6, 66, 105
8, 621072, Note_on_c, 6, 66, 0
8, 621120, Note_on_c, 6, 66, 105
8, 621312, Note_on_c, 6, 66, 0
8, 621360, Note_on_c, 6, 69, 105
8, 621552, Note_on_c, 6, 69, 0
8, 621600, Note_on_c, 6, 66, 105
8, 621792, Note_on_c, 6, 66, 0
8, 621840, Note_on_c, 6, 69, 105
8, 622032, Note_on_c, 6, 69, 0
8, 622080, Note_on_c, 6, 67, 105
8, 622272, Note_on_c, 6, 67, 0
8, 622320, Note_on_c, 6, 67, 105
8, 622512, Note_on_c, 6, 67, 0
8, 622560, Note_on_c, 6, 67, 105
8, 622752, Note_on_c, 6, 67, 0
8, 622800, Note_on_c, 6, 67, 105
8, 622992, Note_on_c, 6, 67, 0
8, 623040, Note_on_c, 6, 64, 105
8, 623232, Note_on_c, 6, 64, 0
8, 623280, Note_on_c, 6, 61, 105
8, 623472, Note_on_c, 6, 61, 0
8, 623520, Note_on_c, 6, 64, 105
8, 623712, Note_on_c, 6, 64, 0
8, 623760, Note_on_c, 6, 61, 105
8, 623952, Note_on_c, 6, 61, 0
8, 624000, Note_on_c, 6, 62, 105
8, 624384, Note_on_c, 6, 62, 0
8, 624960, Note_on_c, 6, 50, 92
8, 625344, Note_on_c, 6, 50, 0
8, 627840, Note_on_c, 6, 58, 58
8, 629280, Note_on_c, 6, 58, 0
8, 629280, Note_on_c, 6, 57, 58
8, 629760, Note_on_c, 6, 57, 0
8, 629760, Note_on_c, 6, 54, 58
8, 630144, Note_on_c, 6, 54, 0
8, 632160, Note_on_c, 6, 59, 58
8, 632640, Note_on_c, 6, 59, 0
8, 632640, Note_on_c, 6, 60, 58
8, 633120, Note_on_c, 6, 60, 0
8, 633120, Note_on_c, 6, 61, 58
8, 633600, Note_on_c, 6, 61, 0
8, 633600, Note_on_c, 6, 62, 58
8, 634368, Note_on_c, 6, 62, 0
8, 635520, Note_on_c, 6, 57, 58
8, 636960, Note_on_c, 6, 57, 0
8, 636960, Note_on_c, 6, 58, 58
8, 637344, Note_on_c, 6, 58, 0
8, 637440, Note_on_c, 6, 64, 58
8, 637920, Note_on_c, 6, 64, 0
8, 637920, Note_on_c, 6, 62, 58
8, 638880, Note_on_c, 6, 62, 0
8, 638880, Note_on_c, 6, 55, 58
8, 639264, Note_on_c, 6, 55, 0
8, 639360, Note_on_c, 6, 60, 58
8, 639744, Note_on_c, 6, 60, 0
8, 640320, Note_on_c, 6, 57, 58
8, 640704, Note_on_c, 6, 57, 0
8, 641280, Note_on_c, 6, 55, 58
8, 641664, Note_on_c, 6, 55, 0
8, 650880, Note_on_c, 6, 57, 58
8, 652320, Note_on_c, 6, 57, 0
8, 652320, Note_on_c, 6, 58, 58
8, 652704, Note_on_c, 6, 58, 0
8, 652800, Note_on_c, 6, 64, 58
8, 653280, Note_on_c, 6, 64, 0
8, 653280, Note_on_c, 6, 62, 58
8, 654240, Note_on_c, 6, 62, 0
8, 654240, Note_on_c, 6, 55, 58
8, 654624, Note_on_c, 6, 55, 0
8, 654720, Note_on_c, 6, 53, 58
8, 654960, Note_on_c, 6, 53, 0
8, 654960, Note_on_c, 6, 50, 58
8, 655200, Note_on_c, 6, 50, 0
8, 655200, Note_on_c, 6, 53, 58
8, 655440, Note_on_c, 6, 53, 0
8, 655440, Note_on_c, 6, 50, 58
8, 655680, Note_on_c, 6, 50, 0
8, 655680, Note_on_c, 6, 53, 58
8, 655920, Note_on_c, 6, 53, 0
8, 655920, Note_on_c, 6, 50, 58
8, 656160, Note_on_c, 6, 50, 0
8, 656160, Note_on_c, 6, 51, 58
8, 656400, Note_on_c, 6, 51, 0
8, 656400, Note_on_c, 6, 55, 58
8, 656592, Note_on_c, 6, 55, 0
8, 656640, Note_on_c, 6, 53, 58
8, 656880, Note_on_c, 6, 53, 0
8, 656880, Note_on_c, 6, 50, 58
8, 657120, Note_on_c, 6, 50, 0
8, 657120, Note_on_c, 6, 53, 58
8, 657360, Note_on_c, 6, 53, 0
8, 657360, Note_on_c, 6, 50, 58
8, 657600, Note_on_c, 6, 50, 0
8, 657600, Note_on_c, 6, 53, 58
8, 657840, Note_on_c, 6, 53, 0
8, 657840, Note_on_c, 6, 50, 58
8, 658080, Note_on_c, 6, 50, 0
8, 658080, Note_on_c, 6, 51, 58
8, 658320, Note_on_c, 6, 51, 0
8, 658320, Note_on_c, 6, 55, 58
8, 658512, Note_on_c, 6, 55, 0
8, 658560, Note_on_c, 6, 53, 58
8, 658800, Note_on_c, 6, 53, 0
8, 658800, Note_on_c, 6, 50, 58
8, 659040, Note_on_c, 6, 50, 0
8, 659040, Note_on_c, 6, 53, 58
8, 659280, Note_on_c, 6, 53, 0
8, 659280, Note_on_c, 6, 50, 58
8, 659520, Note_on_c, 6, 50, 0
8, 659520, Note_on_c, 6, 53, 58
8, 659760, Note_on_c, 6, 53, 0
8, 659760, Note_on_c, 6, 50, 58
8, 660000, Note_on_c, 6, 50, 0
8, 660000, Note_on_c, 6, 51, 58
8, 660240, Note_on_c, 6, 51, 0
8, 660240, Note_on_c, 6, 55, 58
8, 660432, Note_on_c, 6, 55, 0
8, 660480, Note_on_c, 6, 53, 58
8, 660720, Note_on_c, 6, 53, 0
8, 660720, Note_on_c, 6, 50, 58
8, 660960, Note_on_c, 6, 50, 0
8, 660960, Note_on_c, 6, 53, 58
8, 661200, Note_on_c, 6, 53, 0
8, 661200, Note_on_c, 6, 50, 58
8, 661440, Note_on_c, 6, 50, 0
8, 661440, Note_on_c, 6, 53, 58
8, 661680, Note_on_c, 6, 53, 0
8, 661680, Note_on_c, 6, 50, 58
8, 661920, Note_on_c, 6, 50, 0
8, 661920, Note_on_c, 6, 51, 58
8, 662160, Note_on_c, 6, 51, 0
8, 662160, Note_on_c, 6, 55, 58
8, 662352, Note_on_c, 6, 55, 0
8, 662400, Note_on_c, 6, 50, 70
8, 662592, Note_on_c, 6, 50, 0
8, 662640, Note_on_c, 6, 50, 70
8, 662832, Note_on_c, 6, 50, 0
8, 662880, Note_on_c, 6, 50, 72
8, 663072, Note_on_c, 6, 50, 0
8, 663120, Note_on_c, 6, 50, 75
8, 663312, Note_on_c, 6, 50, 0
8, 663360, Note_on_c, 6, 50, 78
8, 663552, Note_on_c, 6, 50, 0
8, 663600, Note_on_c, 6, 50, 80
8, 663792, Note_on_c, 6, 50, 0
8, 663840, Note_on_c, 6, 50, 83
8, 664032, Note_on_c, 6, 50, 0
8, 664080, Note_on_c, 6, 50, 86
8, 664272, Note_on_c, 6, 50, 0
8, 664320, Note_on_c, 6, 50, 88
8, 664512, Note_on_c, 6, 50, 0
8, 664560, Note_on_c, 6, 62, 91
8, 664752, Note_on_c, 6, 62, 0
8, 664800, Note_on_c, 6, 62, 94
8, 664992, Note_on_c, 6, 62, 0
8, 665040, Note_on_c, 6, 62, 96
8, 665232, Note_on_c, 6, 62, 0
8, 665280, Note_on_c, 6, 62, 99
8, 665472, Note_on_c, 6, 62, 0
8, 665520, Note_on_c, 6, 62, 102
8, 665712, Note_on_c, 6, 62, 0
8, 665760, Note_on_c, 6, 62, 105
8, 665952, Note_on_c, 6, 62, 0
8, 666000, Note_on_c, 6, 62, 107
8, 666192, Note_on_c, 6, 62, 0
8, 666240, Note_on_c, 6, 63, 105
8, 666432, Note_on_c, 6, 63, 0
8, 666480, Note_on_c, 6, 63, 105
8, 666672, Note_on_c, 6, 63, 0
8, 666720, Note_on_c, 6, 63, 105
8, 666912, Note_on_c, 6, 63, 0
8, 666960, Note_on_c, 6, 63, 105
8, 667152, Note_on_c, 6, 63, 0
8, 667200, Note_on_c, 6, 51, 105
8, 667392, Note_on_c, 6, 51, 0
8, 667440, Note_on_c, 6, 51, 105
8, 667632, Note_on_c, 6, 51, 0
8, 667680, Note_on_c, 6, 51, 105
8, 667872, Note_on_c, 6, 51, 0
8, 667920, Note_on_c, 6, 51, 105
8, 668112, Note_on_c, 6, 51, 0
8, 668160, Note_on_c, 6, 49, 105
8, 668352, Note_on_c, 6, 49, 0
8, 668400, Note_on_c, 6, 49, 105
8, 668592, Note_on_c, 6, 49, 0
8, 668640, Note_on_c, 6, 49, 105
8, 668832, Note_on_c, 6, 49, 0
8, 668880, Note_on_c, 6, 49, 105
8, 669072, Note_on_c, 6, 49, 0
8, 669120, Note_on_c, 6, 61, 105
8, 669312, Note_on_c, 6, 61, 0
8, 669360, Note_on_c, 6, 61, 105
8, 669552, Note_on_c, 6, 61, 0
8, 669600, Note_on_c, 6, 61, 105
8, 669792, Note_on_c, 6, 61, 0
8, 669840, Note_on_c, 6, 61, 105
8, 670032, Note_on_c, 6, 61, 0
8, 670080, Note_on_c, 6, 65, 105
8, 670272, Note_on_c, 6, 65, 0
8, 670320, Note_on_c, 6, 65, 105
8, 670512, Note_on_c, 6, 65, 0
8, 670560, Note_on_c, 6, 65, 105
8, 670752, Note_on_c, 6, 65, 0
8, 670800, Note_on_c, 6, 65, 105
8, 670992, Note_on_c, 6, 65, 0
8, 671040, Note_on_c, 6, 53, 105
8, 671232, Note_on_c, 6, 53, 0
8, 671280, Note_on_c, 6, 53, 105
8, 671472, Note_on_c, 6, 53, 0
8, 671520, Note_on_c, 6, 53, 105
8, 671712, Note_on_c, 6, 53, 0
8, 671760, Note_on_c, 6, 53, 105
8, 671952, Note_on_c, 6, 53, 0
8, 672000, Note_on_c, 6, 51, 105
8, 672192, Note_on_c, 6, 51, 0
8, 672240, Note_on_c, 6, 51, 105
8, 672432, Note_on_c, 6, 51, 0
8, 672480, Note_on_c, 6, 51, 105
8, 672672, Note_on_c, 6, 51, 0
8, 672720, Note_on_c, 6, 51, 105
8, 672912, Note_on_c, 6, 51, 0
8, 672960, Note_on_c, 6, 63, 105
8, 673152, Note_on_c, 6, 63, 0
8, 673200, Note_on_c, 6, 63, 105
8, 673392, Note_on_c, 6, 63, 0
8, 673440, Note_on_c, 6, 63, 105
8, 673632, Note_on_c, 6, 63, 0
8, 673680, Note_on_c, 6, 63, 105
8, 673872, Note_on_c, 6, 63, 0
8, 673920, Note_on_c, 6, 67, 105
8, 674112, Note_on_c, 6, 67, 0
8, 674160, Note_on_c, 6, 67, 105
8, 674352, Note_on_c, 6, 67, 0
8, 674400, Note_on_c, 6, 67, 105
8, 674592, Note_on_c, 6, 67, 0
8, 674640, Note_on_c, 6, 67, 105
8, 674832, Note_on_c, 6, 67, 0
8, 674880, Note_on_c, 6, 55, 105
8, 675072, Note_on_c, 6, 55, 0
8, 675120, Note_on_c, 6, 55, 105
8, 675312, Note_on_c, 6, 55, 0
8, 675360, Note_on_c, 6, 55, 105
8, 675552, Note_on_c, 6, 55, 0
8, 675600, Note_on_c, 6, 55, 105
8, 675792, Note_on_c, 6, 55, 0
8, 675840, Note_on_c, 6, 62, 105
8, 676032, Note_on_c, 6, 62, 0
8, 676080, Note_on_c, 6, 62, 105
8, 676272, Note_on_c, 6, 62, 0
8, 676320, Note_on_c, 6, 62, 105
8, 676512, Note_on_c, 6, 62, 0
8, 676560, Note_on_c, 6, 62, 105
8, 676752, Note_on_c, 6, 62, 0
8, 676800, Note_on_c, 6, 62, 105
8, 676992, Note_on_c, 6, 62, 0
8, 677040, Note_on_c, 6, 62, 105
8, 677232, Note_on_c, 6, 62, 0
8, 677280, Note_on_c, 6, 62, 105
8, 677472, Note_on_c, 6, 62, 0
8, 677520, Note_on_c, 6, 62, 105
8, 677712, Note_on_c, 6, 62, 0
8, 677760, Note_on_c, 6, 50, 105
8, 677952, Note_on_c, 6, 50, 0
8, 678000, Note_on_c, 6, 50, 105
8, 678192, Note_on_c, 6, 50, 0
8, 678240, Note_on_c, 6, 50, 105
8, 678432, Note_on_c, 6, 50, 0
8, 678480, Note_on_c, 6, 50, 105
8, 678672, Note_on_c, 6, 50, 0
8, 678720, Note_on_c, 6, 50, 105
8, 678912, Note_on_c, 6, 50, 0
8, 678960, Note_on_c, 6, 50, 105
8, 679152, Note_on_c, 6, 50, 0
8, 679200, Note_on_c, 6, 50, 105
8, 679392, Note_on_c, 6, 50, 0
8, 679440, Note_on_c, 6, 50, 105
8, 679632, Note_on_c, 6, 50, 0
8, 679680, Note_on_c, 6, 55, 92
8, 680064, Note_on_c, 6, 55, 0
8, 680160, Note_on_c, 6, 58, 125
8, 680928, Note_on_c, 6, 58, 0
8, 681120, Note_on_c, 6, 60, 105
8, 681408, Note_on_c, 6, 60, 0
8, 681600, Note_on_c, 6, 61, 105
8, 681888, Note_on_c, 6, 61, 0
8, 682080, Note_on_c, 6, 62, 105
8, 682368, Note_on_c, 6, 62, 0
8, 682560, Note_on_c, 6, 63, 105
8, 682848, Note_on_c, 6, 63, 0
8, 683040, Note_on_c, 6, 64, 105
8, 683328, Note_on_c, 6, 64, 0
8, 683520, Note_on_c, 6, 65, 105
8, 683904, Note_on_c, 6, 65, 0
8, 684360, Note_on_c, 6, 65, 105
8, 684456, Note_on_c, 6, 65, 0
8, 684480, Note_on_c, 6, 63, 105
8, 684864, Note_on_c, 6, 63, 0
8, 685320, Note_on_c, 6, 63, 105
8, 685416, Note_on_c, 6, 63, 0
8, 685440, Note_on_c, 6, 72, 105
8, 685824, Note_on_c, 6, 72, 0
8, 686280, Note_on_c, 6, 72, 105
8, 686376, Note_on_c, 6, 72, 0
8, 686400, Note_on_c, 6, 70, 105
8, 686784, Note_on_c, 6, 70, 0
8, 687240, Note_on_c, 6, 70, 105
8, 687336, Note_on_c, 6, 70, 0
8, 687360, Note_on_c, 6, 60, 105
8, 687744, Note_on_c, 6, 60, 0
8, 689280, Note_on_c, 6, 50, 70
8, 689664, Note_on_c, 6, 50, 0
8, 694080, Note_on_c, 6, 60, 58
8, 696000, Note_on_c, 6, 60, 0
8, 696000, Note_on_c, 6, 58, 58
8, 696384, Note_on_c, 6, 58, 0
8, 697920, Note_on_c, 6, 60, 58
8, 699840, Note_on_c, 6, 60, 0
8, 699840, Note_on_c, 6, 58, 58
8, 700224, Note_on_c, 6, 58, 0
8, 700800, Note_on_c, 6, 55, 105
8, 700992, Note_on_c, 6, 55, 0
8, 701040, Note_on_c, 6, 55, 105
8, 701232, Note_on_c, 6, 55, 0
8, 701280, Note_on_c, 6, 55, 105
8, 701472, Note_on_c, 6, 55, 0
8, 701520, Note_on_c, 6, 55, 105
8, 701712, Note_on_c, 6, 55, 0
8, 701760, Note_on_c, 6, 55, 105
8, 701952, Note_on_c, 6, 55, 0
8, 702000, Note_on_c, 6, 55, 105
8, 702192, Note_on_c, 6, 55, 0
8, 702240, Note_on_c, 6, 55, 105
8, 702432, Note_on_c, 6, 55, 0
8, 702480, Note_on_c, 6, 55, 105
8, 702672, Note_on_c, 6, 55, 0
8, 702720, Note_on_c, 6, 60, 105
8, 702912, Note_on_c, 6, 60, 0
8, 702960, Note_on_c, 6, 60, 105
8, 703152, Note_on_c, 6, 60, 0
8, 703200, Note_on_c, 6, 60, 105
8, 703392, Note_on_c, 6, 60, 0
8, 703440, Note_on_c, 6, 60, 105
8, 703632, Note_on_c, 6, 60, 0
8, 703680, Note_on_c, 6, 60, 105
8, 703872, Note_on_c, 6, 60, 0
8, 703920, Note_on_c, 6, 60, 105
8, 704112, Note_on_c, 6, 60, 0
8, 704160, Note_on_c, 6, 60, 105
8, 704352, Note_on_c, 6, 60, 0
8, 704400, Note_on_c, 6, 60, 105
8, 704592, Note_on_c, 6, 60, 0
8, 704640, Note_on_c, 6, 62, 105
8, 704832, Note_on_c, 6, 62, 0
8, 704880, Note_on_c, 6, 62, 105
8, 705072, Note_on_c, 6, 62, 0
8, 705120, Note_on_c, 6, 62, 105
8, 705312, Note_on_c, 6, 62, 0
8, 705360, Note_on_c, 6, 62, 105
8, 705552, Note_on_c, 6, 62, 0
8, 705600, Note_on_c, 6, 50, 105
8, 705792, Note_on_c, 6, 50, 0
8, 705840, Note_on_c, 6, 50, 105
8, 706032, Note_on_c, 6, 50, 0
8, 706080, Note_on_c, 6, 50, 105
8, 706272, Note_on_c, 6, 50, 0
8, 706320, Note_on_c, 6, 50, 105
8, 706512, Note_on_c, 6, 50, 0
8, 706560, Note_on_c, 6, 55, 105
8, 706944, Note_on_c, 6, 55, 0
8, 707520, Note_on_c, 6, 67, 58
8, 709440, Note_on_c, 6, 67, 0
8, 709440, Note_on_c, 6, 66, 58
8, 709824, Note_on_c, 6, 66, 0
8, 711360, Note_on_c, 6, 55, 58
8, 713280, Note_on_c, 6, 55, 0
8, 713280, Note_on_c, 6, 54, 58
8, 713664, Note_on_c, 6, 54, 0
8, 716160, Note_on_c, 6, 55, 105
8, 716352, Note_on_c, 6, 55, 0
8, 716400, Note_on_c, 6, 55, 105
8, 716592, Note_on_c, 6, 55, 0
8, 716640, Note_on_c, 6, 55, 105
8, 716832, Note_on_c, 6, 55, 0
8, 716880, Note_on_c, 6, 55, 105
8, 717072, Note_on_c, 6, 55, 0
8, 717120, Note_on_c, 6, 55, 105
8, 717312, Note_on_c, 6, 55, 0
8, 717360, Note_on_c, 6, 55, 105
8, 717552, Note_on_c, 6, 55, 0
8, 717600, Note_on_c, 6, 55, 105
8, 717792, Note_on_c, 6, 55, 0
8, 717840, Note_on_c, 6, 55, 105
8, 718032, Note_on_c, 6, 55, 0
8, 718080, Note_on_c, 6, 60, 105
8, 718272, Note_on_c, 6, 60, 0
8, 718320, Note_on_c, 6, 60, 105
8, 718512, Note_on_c, 6, 60, 0
8, 718560, Note_on_c, 6, 60, 105
8, 718752, Note_on_c, 6, 60, 0
8, 718800, Note_on_c, 6, 60, 105
8, 718992, Note_on_c, 6, 60, 0
8, 719040, Note_on_c, 6, 60, 105
8, 719232, Note_on_c, 6, 60, 0
8, 719280, Note_on_c, 6, 60, 105
8, 719472, Note_on_c, 6, 60, 0
8, 719520, Note_on_c, 6, 60, 105
8, 719712, Note_on_c, 6, 60, 0
8, 719760, Note_on_c, 6, 60, 105
8, 719952, Note_on_c, 6, 60, 0
8, 720000, Note_on_c, 6, 62, 105
8, 720192, Note_on_c, 6, 62, 0
8, 720240, Note_on_c, 6, 62, 105
8, 720432, Note_on_c, 6, 62, 0
8, 720480, Note_on_c, 6, 62, 105
8, 720672, Note_on_c, 6, 62, 0
8, 720720, Note_on_c, 6, 62, 105
8, 720912, Note_on_c, 6, 62, 0
8, 720960, Note_on_c, 6, 50, 105
8, 721152, Note_on_c, 6, 50, 0
8, 721200, Note_on_c, 6, 50, 105
8, 721392, Note_on_c, 6, 50, 0
8, 721440, Note_on_c, 6, 50, 105
8, 721632, Note_on_c, 6, 50, 0
8, 721680, Note_on_c, 6, 50, 105
8, 721872, Note_on_c, 6, 50, 0
8, 721920, Note_on_c, 6, 55, 105
8, 722688, Note_on_c, 6, 55, 0
8, 723600, Note_on_c, 6, 74, 105
8, 723792, Note_on_c, 6, 74, 0
8, 723840, Note_on_c, 6, 72, 105
8, 724032, Note_on_c, 6, 72, 0
8, 724080, Note_on_c, 6, 70, 105
8, 724272, Note_on_c, 6, 70, 0
8, 724320, Note_on_c, 6, 69, 105
8, 724512, Note_on_c, 6, 69, 0
8, 724560, Note_on_c, 6, 67, 105
8, 724752, Note_on_c, 6, 67, 0
8, 724800, Note_on_c, 6, 66, 105
8, 724992, Note_on_c, 6, 66, 0
8, 725040, Note_on_c, 6, 63, 105
8, 725232, Note_on_c, 6, 63, 0
8, 725280, Note_on_c, 6, 62, 105
8, 725472, Note_on_c, 6, 62, 0
8, 725520, Note_on_c, 6, 60, 105
8, 725712, Note_on_c, 6, 60, 0
8, 725760, Note_on_c, 6, 58, 105
8, 726072, Note_on_c, 6, 58, 0
8, 726240, Note_on_c, 6, 58, 125
8, 726552, Note_on_c, 6, 58, 0
8, 726720, Note_on_c, 6, 60, 125
8, 727032, Note_on_c, 6, 60, 0
8, 727200, Note_on_c, 6, 62, 125
8, 727512, Note_on_c, 6, 62, 0
8, 727680, Note_on_c, 6, 67, 105
8, 727872, Note_on_c, 6, 67, 0
8, 727920, Note_on_c, 6, 62, 105
8, 728112, Note_on_c, 6, 62, 0
8, 728160, Note_on_c, 6, 70, 105
8, 728352, Note_on_c, 6, 70, 0
8, 728400, Note_on_c, 6, 69, 105
8, 728592, Note_on_c, 6, 69, 0
8, 728640, Note_on_c, 6, 67, 105
8, 728832, Note_on_c, 6, 67, 0
8, 728880, Note_on_c, 6, 65, 105
8, 729072, Note_on_c, 6, 65, 0
8, 729120, Note_on_c, 6, 63, 105
8, 729312, Note_on_c, 6, 63, 0
8, 729360, Note_on_c, 6, 62, 105
8, 729552, Note_on_c, 6, 62, 0
8, 729600, Note_on_c, 6, 61, 105
8, 729792, Note_on_c, 6, 61, 0
8, 729840, Note_on_c, 6, 64, 105
8, 730032, Note_on_c, 6, 64, 0
8, 730080, Note_on_c, 6, 69, 105
8, 730272, Note_on_c, 6, 69, 0
8, 730320, Note_on_c, 6, 67, 105
8, 730512, Note_on_c, 6, 67, 0
8, 730560, Note_on_c, 6, 66, 105
8, 730752, Note_on_c, 6, 66, 0
8, 730800, Note_on_c, 6, 63, 105
8, 730992, Note_on_c, 6, 63, 0
8, 731040, Note_on_c, 6, 62, 105
8, 731232, Note_on_c, 6, 62, 0
8, 731280, Note_on_c, 6, 60, 105
8, 731472, Note_on_c, 6, 60, 0
8, 731520, Note_on_c, 6, 58, 105
8, 731904, Note_on_c, 6, 58, 0
8, 732000, Note_on_c, 6, 55, 105
8, 732000, Note_on_c, 6, 67, 105
8, 732768, Note_on_c, 6, 67, 0
8, 732768, Note_on_c, 6, 55, 0
8, 732960, Note_on_c, 6, 67, 105
8, 732960, Note_on_c, 6, 55, 105
8, 733824, Note_on_c, 6, 55, 0
8, 733824, Note_on_c, 6, 67, 0
8, 733920, Note_on_c, 6, 55, 105
8, 733920, Note_on_c, 6, 67, 105
8, 734688, Note_on_c, 6, 67, 0
8, 734688, Note_on_c, 6, 55, 0
8, 734880, Note_on_c, 6, 67, 105
8, 734880, Note_on_c, 6, 55, 105
8, 735744, Note_on_c, 6, 55, 0
8, 735744, Note_on_c, 6, 67, 0
8, 735840, Note_on_c, 6, 67, 105
8, 735840, Note_on_c, 6, 55, 105
8, 736608, Note_on_c, 6, 55, 0
8, 736608, Note_on_c, 6, 67, 0
8, 736800, Note_on_c, 6, 67, 105
8, 736800, Note_on_c, 6, 55, 105
8, 737664, Note_on_c, 6, 55, 0
8, 737664, Note_on_c, 6, 67, 0
8, 737760, Note_on_c, 6, 55, 105
8, 737760, Note_on_c, 6, 67, 105
8, 738528, Note_on_c, 6, 67, 0
8, 738528, Note_on_c, 6, 55, 0
8, 748320, Note_on_c, 6, 65, 70
8, 748560, Note_on_c, 6, 65, 0
8, 748560, Note_on_c, 6, 63, 70
8, 748752, Note_on_c, 6, 63, 0
8, 748800, Note_on_c, 6, 63, 70
8, 749184, Note_on_c, 6, 63, 0
8, 749280, Note_on_c, 6, 65, 70
8, 749520, Note_on_c, 6, 65, 0
8, 749520, Note_on_c, 6, 63, 70
8, 749712, Note_on_c, 6, 63, 0
8, 749760, Note_on_c, 6, 63, 70
8, 750144, Note_on_c, 6, 63, 0
8, 750240, Note_on_c, 6, 65, 70
8, 750480, Note_on_c, 6, 65, 0
8, 750480, Note_on_c, 6, 63, 70
8, 750672, Note_on_c, 6, 63, 0
8, 750720, Note_on_c, 6, 62, 80
8, 751200, Note_on_c, 6, 62, 0
8, 751200, Note_on_c, 6, 74, 80
8, 752160, Note_on_c, 6, 74, 0
8, 752160, Note_on_c, 6, 72, 80
8, 753120, Note_on_c, 6, 72, 0
8, 753120, Note_on_c, 6, 70, 80
8, 754080, Note_on_c, 6, 70, 0
8, 754080, Note_on_c, 6, 69, 80
8, 754464, Note_on_c, 6, 69, 0
8, 754560, Note_on_c, 6, 67, 105
8, 754944, Note_on_c, 6, 67, 0
8, 755520, Note_on_c, 6, 62, 105
8, 755904, Note_on_c, 6, 62, 0
8, 756480, Note_on_c, 6, 67, 105
8, 756864, Note_on_c, 6, 67, 0
8, 757440, Note_on_c, 6, 62, 105
8, 757824, Note_on_c, 6, 62, 0
8, 758400, Note_on_c, 6, 67, 105
8, 758784, Note_on_c, 6, 67, 0
8, 759360, Note_on_c, 6, 62, 105
8, 759744, Note_on_c, 6, 62, 0
8, 760320, Note_on_c, 6, 67, 105
8, 760656, Note_on_c, 6, 67, 0
8, 760800, Note_on_c, 6, 62, 105
8, 761136, Note_on_c, 6, 62, 0
8, 761280, Note_on_c, 6, 67, 105
8, 761616, Note_on_c, 6, 67, 0
8, 761760, Note_on_c, 6, 62, 105
8, 762096, Note_on_c, 6, 62, 0
8, 762240, Note_on_c, 6, 67, 105
8, 762624, Note_on_c, 6, 67, 0
8, 764160, Note_on_c, 6, 55, 105
8, 764544, Note_on_c, 6, 55, 0
8, 765120, Note_on_c, 6, 67, 105
8, 765504, Note_on_c, 6, 67, 0
8, 766080, Note_on_c, 6, 55, 105
8, 767040, Note_on_c, 6, 55, 0
8, 767040, End_track
9, 0, Start_track
9, 0, Sequencer_specific, 04, 43, 00, 01, 00
9, 0, Program_c, 7, 48
9, 0, Control_c, 7, 7, 124
9, 0, Control_c, 7, 10, 84
9, 0, Control_c, 7, 91, 87
9, 1920, Note_on_c, 7, 43, 58
9, 2304, Note_on_c, 7, 43, 0
9, 3840, Note_on_c, 7, 55, 58
9, 4224, Note_on_c, 7, 55, 0
9, 5760, Note_on_c, 7, 43, 58
9, 6144, Note_on_c, 7, 43, 0
9, 7680, Note_on_c, 7, 55, 58
9, 8064, Note_on_c, 7, 55, 0
9, 9600, Note_on_c, 7, 43, 58
9, 9984, Note_on_c, 7, 43, 0
9, 11520, Note_on_c, 7, 55, 58
9, 11904, Note_on_c, 7, 55, 0
9, 13440, Note_on_c, 7, 42, 58
9, 13824, Note_on_c, 7, 42, 0
9, 15360, Note_on_c, 7, 50, 58
9, 15744, Note_on_c, 7, 50, 0
9, 17280, Note_on_c, 7, 43, 58
9, 17664, Note_on_c, 7, 43, 0
9, 19200, Note_on_c, 7, 48, 58
9, 21120, Note_on_c, 7, 48, 0
9, 21120, Note_on_c, 7, 46, 58
9, 23040, Note_on_c, 7, 46, 0
9, 23040, Note_on_c, 7, 48, 58
9, 24960, Note_on_c, 7, 48, 0
9, 24960, Note_on_c, 7, 46, 58
9, 26784, Note_on_c, 7, 46, 0
9, 26880, Note_on_c, 7, 52, 58
9, 28800, Note_on_c, 7, 52, 0
9, 28800, Note_on_c, 7, 51, 58
9, 30624, Note_on_c, 7, 51, 0
9, 30720, Note_on_c, 7, 50, 58
9, 31488, Note_on_c, 7, 50, 0
9, 32160, Note_on_c, 7, 50, 105
9, 32340, Note_on_c, 7, 50, 0
9, 32400, Note_on_c, 7, 50, 105
9, 32580, Note_on_c, 7, 50, 0
9, 32640, Note_on_c, 7, 50, 105
9, 33408, Note_on_c, 7, 50, 0
9, 34080, Note_on_c, 7, 50, 105
9, 34260, Note_on_c, 7, 50, 0
9, 34320, Note_on_c, 7, 50, 105
9, 34500, Note_on_c, 7, 50, 0
9, 34560, Note_on_c, 7, 50, 105
9, 35328, Note_on_c, 7, 50, 0
9, 36000, Note_on_c, 7, 50, 105
9, 36180, Note_on_c, 7, 50, 0
9, 36240, Note_on_c, 7, 50, 105
9, 36420, Note_on_c, 7, 50, 0
9, 36480, Note_on_c, 7, 50, 105
9, 36840, Note_on_c, 7, 50, 0
9, 36960, Note_on_c, 7, 50, 105
9, 37140, Note_on_c, 7, 50, 0
9, 37200, Note_on_c, 7, 50, 105
9, 37380, Note_on_c, 7, 50, 0
9, 37440, Note_on_c, 7, 50, 105
9, 37800, Note_on_c, 7, 50, 0
9, 37920, Note_on_c, 7, 50, 105
9, 38100, Note_on_c, 7, 50, 0
9, 38160, Note_on_c, 7, 50, 105
9, 38340, Note_on_c, 7, 50, 0
9, 38400, Note_on_c, 7, 50, 105
9, 39168, Note_on_c, 7, 50, 0
9, 42240, Note_on_c, 7, 43, 58
9, 42624, Note_on_c, 7, 43, 0
9, 44160, Note_on_c, 7, 55, 58
9, 44544, Note_on_c, 7, 55, 0
9, 46080, Note_on_c, 7, 39, 58
9, 46464, Note_on_c, 7, 39, 0
9, 48000, Note_on_c, 7, 48, 58
9, 48384, Note_on_c, 7, 48, 0
9, 49920, Note_on_c, 7, 53, 58
9, 50304, Note_on_c, 7, 53, 0
9, 51840, Note_on_c, 7, 53, 58
9, 52224, Note_on_c, 7, 53, 0
9, 53760, Note_on_c, 7, 58, 105
9, 53952, Note_on_c, 7, 58, 0
9, 54000, Note_on_c, 7, 62, 105
9, 54192, Note_on_c, 7, 62, 0
9, 54240, Note_on_c, 7, 58, 105
9, 54432, Note_on_c, 7, 58, 0
9, 54480, Note_on_c, 7, 62, 105
9, 54672, Note_on_c, 7, 62, 0
9, 54720, Note_on_c, 7, 58, 105
9, 54912, Note_on_c, 7, 58, 0
9, 54960, Note_on_c, 7, 62, 105
9, 55152, Note_on_c, 7, 62, 0
9, 55200, Note_on_c, 7, 58, 105
9, 55392, Note_on_c, 7, 58, 0
9, 55440, Note_on_c, 7, 62, 105
9, 55632, Note_on_c, 7, 62, 0
9, 55680, Note_on_c, 7, 57, 105
9, 55872, Note_on_c, 7, 57, 0
9, 55920, Note_on_c, 7, 60, 105
9, 56112, Note_on_c, 7, 60, 0
9, 56160, Note_on_c, 7, 57, 105
9, 56352, Note_on_c, 7, 57, 0
9, 56400, Note_on_c, 7, 60, 105
9, 56592, Note_on_c, 7, 60, 0
9, 56640, Note_on_c, 7, 57, 105
9, 56832, Note_on_c, 7, 57, 0
9, 56880, Note_on_c, 7, 60, 105
9, 57072, Note_on_c, 7, 60, 0
9, 57120, Note_on_c, 7, 57, 105
9, 57312, Note_on_c, 7, 57, 0
9, 57360, Note_on_c, 7, 60, 105
9, 57552, Note_on_c, 7, 60, 0
9, 57600, Note_on_c, 7, 55, 105
9, 57792, Note_on_c, 7, 55, 0
9, 57840, Note_on_c, 7, 58, 105
9, 58032, Note_on_c, 7, 58, 0
9, 58080, Note_on_c, 7, 55, 105
9, 58272, Note_on_c, 7, 55, 0
9, 58320, Note_on_c, 7, 58, 105
9, 58512, Note_on_c, 7, 58, 0
9, 58560, Note_on_c, 7, 55, 105
9, 58752, Note_on_c, 7, 55, 0
9, 58800, Note_on_c, 7, 58, 105
9, 58992, Note_on_c, 7, 58, 0
9, 59040, Note_on_c, 7, 55, 105
9, 59232, Note_on_c, 7, 55, 0
9, 59280, Note_on_c, 7, 58, 105
9, 59472, Note_on_c, 7, 58, 0
9, 59520, Note_on_c, 7, 53, 105
9, 59712, Note_on_c, 7, 53, 0
9, 59760, Note_on_c, 7, 58, 105
9, 59952, Note_on_c, 7, 58, 0
9, 60000, Note_on_c, 7, 53, 105
9, 60192, Note_on_c, 7, 53, 0
9, 60240, Note_on_c, 7, 58, 105
9, 60432, Note_on_c, 7, 58, 0
9, 60480, Note_on_c, 7, 53, 105
9, 60672, Note_on_c, 7, 53, 0
9, 60720, Note_on_c, 7, 58, 105
9, 60912, Note_on_c, 7, 58, 0
9, 60960, Note_on_c, 7, 53, 105
9, 61152, Note_on_c, 7, 53, 0
9, 61200, Note_on_c, 7, 58, 105
9, 61392, Note_on_c, 7, 58, 0
9, 61440, Note_on_c, 7, 51, 105
9, 61632, Note_on_c, 7, 51, 0
9, 61680, Note_on_c, 7, 55, 105
9, 61872, Note_on_c, 7, 55, 0
9, 61920, Note_on_c, 7, 51, 105
9, 62112, Note_on_c, 7, 51, 0
9, 62160, Note_on_c, 7, 55, 105
9, 62352, Note_on_c, 7, 55, 0
9, 62400, Note_on_c, 7, 51, 105
9, 62592, Note_on_c, 7, 51, 0
9, 62640, Note_on_c, 7, 55, 105
9, 62832, Note_on_c, 7, 55, 0
9, 62880, Note_on_c, 7, 51, 105
9, 63072, Note_on_c, 7, 51, 0
9, 63120, Note_on_c, 7, 55, 105
9, 63312, Note_on_c, 7, 55, 0
9, 63360, Note_on_c, 7, 50, 105
9, 63552, Note_on_c, 7, 50, 0
9, 63600, Note_on_c, 7, 53, 105
9, 63792, Note_on_c, 7, 53, 0
9, 63840, Note_on_c, 7, 50, 105
9, 64032, Note_on_c, 7, 50, 0
9, 64080, Note_on_c, 7, 53, 105
9, 64272, Note_on_c, 7, 53, 0
9, 64320, Note_on_c, 7, 50, 105
9, 64512, Note_on_c, 7, 50, 0
9, 64560, Note_on_c, 7, 53, 105
9, 64752, Note_on_c, 7, 53, 0
9, 64800, Note_on_c, 7, 50, 105
9, 64992, Note_on_c, 7, 50, 0
9, 65040, Note_on_c, 7, 53, 105
9, 65232, Note_on_c, 7, 53, 0
9, 65280, Note_on_c, 7, 48, 112
9, 66816, Note_on_c, 7, 48, 0
9, 67200, Note_on_c, 7, 48, 112
9, 67968, Note_on_c, 7, 48, 0
9, 68160, Note_on_c, 7, 49, 112
9, 68928, Note_on_c, 7, 49, 0
9, 69120, Note_on_c, 7, 48, 112
9, 69888, Note_on_c, 7, 48, 0
9, 70080, Note_on_c, 7, 49, 112
9, 70848, Note_on_c, 7, 49, 0
9, 71040, Note_on_c, 7, 48, 112
9, 71808, Note_on_c, 7, 48, 0
9, 72720, Note_on_c, 7, 48, 92
9, 72912, Note_on_c, 7, 48, 0
9, 72960, Note_on_c, 7, 53, 105
9, 73140, Note_on_c, 7, 53, 0
9, 73200, Note_on_c, 7, 53, 105
9, 73380, Note_on_c, 7, 53, 0
9, 73440, Note_on_c, 7, 53, 105
9, 73620, Note_on_c, 7, 53, 0
9, 73680, Note_on_c, 7, 53, 105
9, 73860, Note_on_c, 7, 53, 0
9, 73920, Note_on_c, 7, 53, 105
9, 74100, Note_on_c, 7, 53, 0
9, 74160, Note_on_c, 7, 53, 105
9, 74340, Note_on_c, 7, 53, 0
9, 74400, Note_on_c, 7, 53, 105
9, 74580, Note_on_c, 7, 53, 0
9, 74640, Note_on_c, 7, 53, 105
9, 74820, Note_on_c, 7, 53, 0
9, 74880, Note_on_c, 7, 53, 105
9, 75060, Note_on_c, 7, 53, 0
9, 75120, Note_on_c, 7, 53, 105
9, 75300, Note_on_c, 7, 53, 0
9, 75360, Note_on_c, 7, 53, 105
9, 75540, Note_on_c, 7, 53, 0
9, 75600, Note_on_c, 7, 53, 105
9, 75780, Note_on_c, 7, 53, 0
9, 75840, Note_on_c, 7, 53, 105
9, 76020, Note_on_c, 7, 53, 0
9, 76080, Note_on_c, 7, 53, 105
9, 76260, Note_on_c, 7, 53, 0
9, 76320, Note_on_c, 7, 53, 105
9, 76500, Note_on_c, 7, 53, 0
9, 76560, Note_on_c, 7, 53, 105
9, 76740, Note_on_c, 7, 53, 0
9, 76800, Note_on_c, 7, 53, 105
9, 76980, Note_on_c, 7, 53, 0
9, 77040, Note_on_c, 7, 53, 105
9, 77220, Note_on_c, 7, 53, 0
9, 77280, Note_on_c, 7, 53, 105
9, 77460, Note_on_c, 7, 53, 0
9, 77520, Note_on_c, 7, 53, 105
9, 77700, Note_on_c, 7, 53, 0
9, 77760, Note_on_c, 7, 53, 105
9, 77940, Note_on_c, 7, 53, 0
9, 78000, Note_on_c, 7, 53, 105
9, 78180, Note_on_c, 7, 53, 0
9, 78240, Note_on_c, 7, 53, 105
9, 78420, Note_on_c, 7, 53, 0
9, 78480, Note_on_c, 7, 53, 105
9, 78660, Note_on_c, 7, 53, 0
9, 78720, Note_on_c, 7, 53, 105
9, 78900, Note_on_c, 7, 53, 0
9, 78960, Note_on_c, 7, 53, 105
9, 79140, Note_on_c, 7, 53, 0
9, 79200, Note_on_c, 7, 53, 105
9, 79380, Note_on_c, 7, 53, 0
9, 79440, Note_on_c, 7, 53, 105
9, 79620, Note_on_c, 7, 53, 0
9, 79680, Note_on_c, 7, 53, 105
9, 79860, Note_on_c, 7, 53, 0
9, 79920, Note_on_c, 7, 53, 105
9, 80100, Note_on_c, 7, 53, 0
9, 80160, Note_on_c, 7, 53, 105
9, 80340, Note_on_c, 7, 53, 0
9, 80400, Note_on_c, 7, 53, 105
9, 80580, Note_on_c, 7, 53, 0
9, 80640, Note_on_c, 7, 53, 105
9, 81024, Note_on_c, 7, 53, 0
9, 81600, Note_on_c, 7, 41, 92
9, 81984, Note_on_c, 7, 41, 0
9, 84480, Note_on_c, 7, 62, 58
9, 85920, Note_on_c, 7, 62, 0
9, 85920, Note_on_c, 7, 60, 58
9, 86400, Note_on_c, 7, 60, 0
9, 86400, Note_on_c, 7, 53, 58
9, 86784, Note_on_c, 7, 53, 0
9, 88800, Note_on_c, 7, 55, 58
9, 89112, Note_on_c, 7, 55, 0
9, 89280, Note_on_c, 7, 55, 58
9, 89760, Note_on_c, 7, 55, 0
9, 89760, Note_on_c, 7, 51, 58
9, 90144, Note_on_c, 7, 51, 0
9, 90240, Note_on_c, 7, 53, 58
9, 91008, Note_on_c, 7, 53, 0
9, 92160, Note_on_c, 7, 51, 58
9, 93600, Note_on_c, 7, 51, 0
9, 93600, Note_on_c, 7, 50, 58
9, 94080, Note_on_c, 7, 50, 0
9, 94080, Note_on_c, 7, 55, 58
9, 94560, Note_on_c, 7, 55, 0
9, 94560, Note_on_c, 7, 48, 58
9, 95040, Note_on_c, 7, 48, 0
9, 95040, Note_on_c, 7, 53, 58
9, 95520, Note_on_c, 7, 53, 0
9, 95520, Note_on_c, 7, 46, 58
9, 95904, Note_on_c, 7, 46, 0
9, 96000, Note_on_c, 7, 51, 58
9, 96384, Note_on_c, 7, 51, 0
9, 96960, Note_on_c, 7, 53, 58
9, 97344, Note_on_c, 7, 53, 0
9, 97920, Note_on_c, 7, 46, 58
9, 98304, Note_on_c, 7, 46, 0
9, 107520, Note_on_c, 7, 63, 70
9, 108960, Note_on_c, 7, 63, 0
9, 108960, Note_on_c, 7, 62, 70
9, 109440, Note_on_c, 7, 62, 0
9, 109440, Note_on_c, 7, 55, 70
9, 109920, Note_on_c, 7, 55, 0
9, 109920, Note_on_c, 7, 60, 70
9, 110400, Note_on_c, 7, 60, 0
9, 110400, Note_on_c, 7, 53, 70
9, 110880, Note_on_c, 7, 53, 0
9, 110880, Note_on_c, 7, 58, 70
9, 111264, Note_on_c, 7, 58, 0
9, 111360, Note_on_c, 7, 51, 58
9, 118656, Note_on_c, 7, 51, 0
9, 119040, Note_on_c, 7, 51, 58
9, 119256, Note_on_c, 7, 51, 0
9, 119280, Note_on_c, 7, 51, 73
9, 119496, Note_on_c, 7, 51, 0
9, 119520, Note_on_c, 7, 51, 76
9, 119736, Note_on_c, 7, 51, 0
9, 119760, Note_on_c, 7, 51, 79
9, 119976, Note_on_c, 7, 51, 0
9, 120000, Note_on_c, 7, 51, 83
9, 120216, Note_on_c, 7, 51, 0
9, 120240, Note_on_c, 7, 51, 86
9, 120456, Note_on_c, 7, 51, 0
9, 120480, Note_on_c, 7, 51, 89
9, 120696, Note_on_c, 7, 51, 0
9, 120720, Note_on_c, 7, 51, 92
9, 120936, Note_on_c, 7, 51, 0
9, 120960, Note_on_c, 7, 52, 96
9, 121176, Note_on_c, 7, 52, 0
9, 121200, Note_on_c, 7, 52, 99
9, 121416, Note_on_c, 7, 52, 0
9, 121440, Note_on_c, 7, 52, 102
9, 121656, Note_on_c, 7, 52, 0
9, 121680, Note_on_c, 7, 52, 106
9, 121896, Note_on_c, 7, 52, 0
9, 121920, Note_on_c, 7, 52, 109
9, 122136, Note_on_c, 7, 52, 0
9, 122160, Note_on_c, 7, 52, 109
9, 122376, Note_on_c, 7, 52, 0
9, 122400, Note_on_c, 7, 52, 109
9, 122616, Note_on_c, 7, 52, 0
9, 122640, Note_on_c, 7, 52, 109
9, 122856, Note_on_c, 7, 52, 0
9, 122880, Note_on_c, 7, 53, 109
9, 123072, Note_on_c, 7, 53, 0
9, 123120, Note_on_c, 7, 53, 105
9, 123312, Note_on_c, 7, 53, 0
9, 123360, Note_on_c, 7, 53, 105
9, 123552, Note_on_c, 7, 53, 0
9, 123600, Note_on_c, 7, 53, 105
9, 123792, Note_on_c, 7, 53, 0
9, 123840, Note_on_c, 7, 53, 105
9, 124032, Note_on_c, 7, 53, 0
9, 124080, Note_on_c, 7, 53, 105
9, 124272, Note_on_c, 7, 53, 0
9, 124320, Note_on_c, 7, 53, 105
9, 124512, Note_on_c, 7, 53, 0
9, 124560, Note_on_c, 7, 53, 105
9, 124752, Note_on_c, 7, 53, 0
9, 124800, Note_on_c, 7, 41, 105
9, 124992, Note_on_c, 7, 41, 0
9, 125040, Note_on_c, 7, 41, 105
9, 125232, Note_on_c, 7, 41, 0
9, 125280, Note_on_c, 7, 41, 105
9, 125472, Note_on_c, 7, 41, 0
9, 125520, Note_on_c, 7, 41, 105
9, 125712, Note_on_c, 7, 41, 0
9, 125760, Note_on_c, 7, 41, 105
9, 125952, Note_on_c, 7, 41, 0
9, 126000, Note_on_c, 7, 41, 105
9, 126192, Note_on_c, 7, 41, 0
9, 126240, Note_on_c, 7, 41, 105
9, 126432, Note_on_c, 7, 41, 0
9, 126480, Note_on_c, 7, 41, 105
9, 126672, Note_on_c, 7, 41, 0
9, 126720, Note_on_c, 7, 46, 92
9, 127104, Note_on_c, 7, 46, 0
9, 127200, Note_on_c, 7, 50, 125
9, 127968, Note_on_c, 7, 50, 0
9, 128160, Note_on_c, 7, 51, 105
9, 128448, Note_on_c, 7, 51, 0
9, 128640, Note_on_c, 7, 52, 105
9, 128928, Note_on_c, 7, 52, 0
9, 129120, Note_on_c, 7, 53, 105
9, 129408, Note_on_c, 7, 53, 0
9, 129600, Note_on_c, 7, 54, 105
9, 129888, Note_on_c, 7, 54, 0
9, 130080, Note_on_c, 7, 55, 105
9, 130368, Note_on_c, 7, 55, 0
9, 130560, Note_on_c, 7, 56, 105
9, 130944, Note_on_c, 7, 56, 0
9, 131400, Note_on_c, 7, 56, 105
9, 131496, Note_on_c, 7, 56, 0
9, 131520, Note_on_c, 7, 55, 105
9, 131904, Note_on_c, 7, 55, 0
9, 132360, Note_on_c, 7, 55, 105
9, 132456, Note_on_c, 7, 55, 0
9, 132480, Note_on_c, 7, 63, 105
9, 132864, Note_on_c, 7, 63, 0
9, 133320, Note_on_c, 7, 63, 105
9, 133416, Note_on_c, 7, 63, 0
9, 133440, Note_on_c, 7, 62, 105
9, 133824, Note_on_c, 7, 62, 0
9, 134280, Note_on_c, 7, 62, 105
9, 134376, Note_on_c, 7, 62, 0
9, 134400, Note_on_c, 7, 51, 105
9, 134784, Note_on_c, 7, 51, 0
9, 136320, Note_on_c, 7, 53, 58
9, 136704, Note_on_c, 7, 53, 0
9, 141120, Note_on_c, 7, 51, 58
9, 143040, Note_on_c, 7, 51, 0
9, 143040, Note_on_c, 7, 50, 58
9, 143424, Note_on_c, 7, 50, 0
9, 144960, Note_on_c, 7, 51, 58
9, 146880, Note_on_c, 7, 51, 0
9, 146880, Note_on_c, 7, 50, 58
9, 147264, Note_on_c, 7, 50, 0
9, 147840, Note_on_c, 7, 50, 105
9, 148032, Note_on_c, 7, 50, 0
9, 148080, Note_on_c, 7, 50, 105
9, 148272, Note_on_c, 7, 50, 0
9, 148320, Note_on_c, 7, 50, 105
9, 148512, Note_on_c, 7, 50, 0
9, 148560, Note_on_c, 7, 50, 105
9, 148752, Note_on_c, 7, 50, 0
9, 148800, Note_on_c, 7, 50, 105
9, 148992, Note_on_c, 7, 50, 0
9, 149040, Note_on_c, 7, 50, 105
9, 149232, Note_on_c, 7, 50, 0
9, 149280, Note_on_c, 7, 50, 105
9, 149472, Note_on_c, 7, 50, 0
9, 149520, Note_on_c, 7, 50, 105
9, 149712, Note_on_c, 7, 50, 0
9, 149760, Note_on_c, 7, 55, 105
9, 149952, Note_on_c, 7, 55, 0
9, 150000, Note_on_c, 7, 55, 105
9, 150192, Note_on_c, 7, 55, 0
9, 150240, Note_on_c, 7, 55, 105
9, 150432, Note_on_c, 7, 55, 0
9, 150480, Note_on_c, 7, 55, 105
9, 150672, Note_on_c, 7, 55, 0
9, 150720, Note_on_c, 7, 51, 105
9, 150912, Note_on_c, 7, 51, 0
9, 150960, Note_on_c, 7, 51, 105
9, 151152, Note_on_c, 7, 51, 0
9, 151200, Note_on_c, 7, 51, 105
9, 151392, Note_on_c, 7, 51, 0
9, 151440, Note_on_c, 7, 51, 105
9, 151632, Note_on_c, 7, 51, 0
9, 151680, Note_on_c, 7, 53, 105
9, 151872, Note_on_c, 7, 53, 0
9, 151920, Note_on_c, 7, 53, 105
9, 152112, Note_on_c, 7, 53, 0
9, 152160, Note_on_c, 7, 53, 105
9, 152352, Note_on_c, 7, 53, 0
9, 152400, Note_on_c, 7, 53, 105
9, 152592, Note_on_c, 7, 53, 0
9, 152640, Note_on_c, 7, 41, 105
9, 152832, Note_on_c, 7, 41, 0
9, 152880, Note_on_c, 7, 41, 105
9, 153072, Note_on_c, 7, 41, 0
9, 153120, Note_on_c, 7, 41, 105
9, 153312, Note_on_c, 7, 41, 0
9, 153360, Note_on_c, 7, 41, 105
9, 153552, Note_on_c, 7, 41, 0
9, 153600, Note_on_c, 7, 46, 105
9, 153984, Note_on_c, 7, 46, 0
9, 154560, Note_on_c, 7, 58, 58
9, 156480, Note_on_c, 7, 58, 0
9, 156480, Note_on_c, 7, 57, 58
9, 156864, Note_on_c, 7, 57, 0
9, 158400, Note_on_c, 7, 46, 58
9, 160320, Note_on_c, 7, 46, 0
9, 160320, Note_on_c, 7, 45, 58
9, 160704, Note_on_c, 7, 45, 0
9, 163200, Note_on_c, 7, 50, 105
9, 163392, Note_on_c, 7, 50, 0
9, 163440, Note_on_c, 7, 50, 105
9, 163632, Note_on_c, 7, 50, 0
9, 163680, Note_on_c, 7, 50, 105
9, 163872, Note_on_c, 7, 50, 0
9, 163920, Note_on_c, 7, 50, 105
9, 164112, Note_on_c, 7, 50, 0
9, 164160, Note_on_c, 7, 50, 105
9, 164352, Note_on_c, 7, 50, 0
9, 164400, Note_on_c, 7, 50, 105
9, 164592, Note_on_c, 7, 50, 0
9, 164640, Note_on_c, 7, 50, 105
9, 164832, Note_on_c, 7, 50, 0
9, 164880, Note_on_c, 7, 50, 105
9, 165072, Note_on_c, 7, 50, 0
9, 165120, Note_on_c, 7, 55, 105
9, 165312, Note_on_c, 7, 55, 0
9, 165360, Note_on_c, 7, 55, 105
9, 165552, Note_on_c, 7, 55, 0
9, 165600, Note_on_c, 7, 55, 105
9, 165792, Note_on_c, 7, 55, 0
9, 165840, Note_on_c, 7, 55, 105
9, 166032, Note_on_c, 7, 55, 0
9, 166080, Note_on_c, 7, 51, 105
9, 166272, Note_on_c, 7, 51, 0
9, 166320, Note_on_c, 7, 51, 105
9, 166512, Note_on_c, 7, 51, 0
9, 166560, Note_on_c, 7, 51, 105
9, 166752, Note_on_c, 7, 51, 0
9, 166800, Note_on_c, 7, 51, 105
9, 166992, Note_on_c, 7, 51, 0
9, 167040, Note_on_c, 7, 53, 105
9, 167232, Note_on_c, 7, 53, 0
9, 167280, Note_on_c, 7, 53, 105
9, 167472, Note_on_c, 7, 53, 0
9, 167520, Note_on_c, 7, 53, 105
9, 167712, Note_on_c, 7, 53, 0
9, 167760, Note_on_c, 7, 53, 105
9, 167952, Note_on_c, 7, 53, 0
9, 168000, Note_on_c, 7, 41, 105
9, 168192, Note_on_c, 7, 41, 0
9, 168240, Note_on_c, 7, 41, 105
9, 168432, Note_on_c, 7, 41, 0
9, 168480, Note_on_c, 7, 41, 105
9, 168672, Note_on_c, 7, 41, 0
9, 168720, Note_on_c, 7, 41, 105
9, 168912, Note_on_c, 7, 41, 0
9, 168960, Note_on_c, 7, 46, 105
9, 169728, Note_on_c, 7, 46, 0
9, 170640, Note_on_c, 7, 65, 105
9, 170832, Note_on_c, 7, 65, 0
9, 170880, Note_on_c, 7, 63, 105
9, 171072, Note_on_c, 7, 63, 0
9, 171120, Note_on_c, 7, 62, 105
9, 171312, Note_on_c, 7, 62, 0
9, 171360, Note_on_c, 7, 60, 105
9, 171552, Note_on_c, 7, 60, 0
9, 171600, Note_on_c, 7, 58, 105
9, 171792, Note_on_c, 7, 58, 0
9, 171840, Note_on_c, 7, 57, 105
9, 172032, Note_on_c, 7, 57, 0
9, 172080, Note_on_c, 7, 55, 105
9, 172272, Note_on_c, 7, 55, 0
9, 172320, Note_on_c, 7, 53, 105
9, 172512, Note_on_c, 7, 53, 0
9, 172560, Note_on_c, 7, 51, 105
9, 172752, Note_on_c, 7, 51, 0
9, 172800, Note_on_c, 7, 50, 105
9, 173136, Note_on_c, 7, 50, 0
9, 173280, Note_on_c, 7, 50, 105
9, 173616, Note_on_c, 7, 50, 0
9, 173760, Note_on_c, 7, 51, 105
9, 174096, Note_on_c, 7, 51, 0
9, 174240, Note_on_c, 7, 53, 105
9, 174576, Note_on_c, 7, 53, 0
9, 174720, Note_on_c, 7, 58, 105
9, 174912, Note_on_c, 7, 58, 0
9, 174960, Note_on_c, 7, 53, 105
9, 175152, Note_on_c, 7, 53, 0
9, 175200, Note_on_c, 7, 62, 105
9, 175392, Note_on_c, 7, 62, 0
9, 175440, Note_on_c, 7, 60, 105
9, 175632, Note_on_c, 7, 60, 0
9, 175680, Note_on_c, 7, 58, 105
9, 175872, Note_on_c, 7, 58, 0
9, 175920, Note_on_c, 7, 57, 105
9, 176112, Note_on_c, 7, 57, 0
9, 176160, Note_on_c, 7, 55, 105
9, 176352, Note_on_c, 7, 55, 0
9, 176400, Note_on_c, 7, 53, 105
9, 176592, Note_on_c, 7, 53, 0
9, 176640, Note_on_c, 7, 51, 105
9, 176832, Note_on_c, 7, 51, 0
9, 176880, Note_on_c, 7, 50, 105
9, 177072, Note_on_c, 7, 50, 0
9, 177120, Note_on_c, 7, 48, 105
9, 177312, Note_on_c, 7, 48, 0
9, 177360, Note_on_c, 7, 46, 105
9, 177552, Note_on_c, 7, 46, 0
9, 177600, Note_on_c, 7, 45, 105
9, 177792, Note_on_c, 7, 45, 0
9, 177840, Note_on_c, 7, 48, 105
9, 178032, Note_on_c, 7, 48, 0
9, 178080, Note_on_c, 7, 53, 105
9, 178272, Note_on_c, 7, 53, 0
9, 178320, Note_on_c, 7, 51, 105
9, 178512, Note_on_c, 7, 51, 0
9, 178560, Note_on_c, 7, 50, 105
9, 178896, Note_on_c, 7, 50, 0
9, 179040, Note_on_c, 7, 50, 105
9, 179376, Note_on_c, 7, 50, 0
9, 179520, Note_on_c, 7, 51, 105
9, 179856, Note_on_c, 7, 51, 0
9, 180000, Note_on_c, 7, 53, 105
9, 180336, Note_on_c, 7, 53, 0
9, 180480, Note_on_c, 7, 55, 105
9, 180816, Note_on_c, 7, 55, 0
9, 180960, Note_on_c, 7, 51, 105
9, 181296, Note_on_c, 7, 51, 0
9, 181440, Note_on_c, 7, 53, 105
9, 181776, Note_on_c, 7, 53, 0
9, 181920, Note_on_c, 7, 41, 105
9, 182256, Note_on_c, 7, 41, 0
9, 182400, Note_on_c, 7, 46, 105
9, 182784, Note_on_c, 7, 46, 0
9, 183360, Note_on_c, 7, 53, 105
9, 183744, Note_on_c, 7, 53, 0
9, 184320, Note_on_c, 7, 58, 105
9, 184704, Note_on_c, 7, 58, 0
9, 185280, Note_on_c, 7, 53, 105
9, 185664, Note_on_c, 7, 53, 0
9, 186240, Note_on_c, 7, 58, 105
9, 186624, Note_on_c, 7, 58, 0
9, 187200, Note_on_c, 7, 53, 105
9, 187584, Note_on_c, 7, 53, 0
9, 188160, Note_on_c, 7, 58, 105
9, 188520, Note_on_c, 7, 58, 0
9, 188640, Note_on_c, 7, 53, 105
9, 189000, Note_on_c, 7, 53, 0
9, 189120, Note_on_c, 7, 58, 105
9, 189480, Note_on_c, 7, 58, 0
9, 189600, Note_on_c, 7, 53, 105
9, 189960, Note_on_c, 7, 53, 0
9, 190080, Note_on_c, 7, 58, 105
9, 190464, Note_on_c, 7, 58, 0
9, 192000, Note_on_c, 7, 57, 105
9, 192384, Note_on_c, 7, 57, 0
9, 193920, Note_on_c, 7, 43, 58
9, 194304, Note_on_c, 7, 43, 0
9, 195840, Note_on_c, 7, 55, 58
9, 196224, Note_on_c, 7, 55, 0
9, 197760, Note_on_c, 7, 43, 58
9, 198144, Note_on_c, 7, 43, 0
9, 199680, Note_on_c, 7, 55, 58
9, 200064, Note_on_c, 7, 55, 0
9, 201600, Note_on_c, 7, 43, 58
9, 201984, Note_on_c, 7, 43, 0
9, 203520, Note_on_c, 7, 55, 58
9, 203904, Note_on_c, 7, 55, 0
9, 205440, Note_on_c, 7, 42, 58
9, 205824, Note_on_c, 7, 42, 0
9, 207360, Note_on_c, 7, 50, 58
9, 207744, Note_on_c, 7, 50, 0
9, 209280, Note_on_c, 7, 43, 58
9, 209664, Note_on_c, 7, 43, 0
9, 211200, Note_on_c, 7, 48, 58
9, 213120, Note_on_c, 7, 48, 0
9, 213120, Note_on_c, 7, 46, 58
9, 215040, Note_on_c, 7, 46, 0
9, 215040, Note_on_c, 7, 48, 58
9, 216960, Note_on_c, 7, 48, 0
9, 216960, Note_on_c, 7, 46, 58
9, 218784, Note_on_c, 7, 46, 0
9, 218880, Note_on_c, 7, 52, 58
9, 220800, Note_on_c, 7, 52, 0
9, 220800, Note_on_c, 7, 51, 58
9, 222624, Note_on_c, 7, 51, 0
9, 222720, Note_on_c, 7, 50, 58
9, 223488, Note_on_c, 7, 50, 0
9, 224160, Note_on_c, 7, 50, 105
9, 224340, Note_on_c, 7, 50, 0
9, 224400, Note_on_c, 7, 50, 105
9, 224580, Note_on_c, 7, 50, 0
9, 224640, Note_on_c, 7, 50, 105
9, 225408, Note_on_c, 7, 50, 0
9, 226080, Note_on_c, 7, 50, 105
9, 226260, Note_on_c, 7, 50, 0
9, 226320, Note_on_c, 7, 50, 105
9, 226500, Note_on_c, 7, 50, 0
9, 226560, Note_on_c, 7, 50, 105
9, 227328, Note_on_c, 7, 50, 0
9, 228000, Note_on_c, 7, 50, 105
9, 228180, Note_on_c, 7, 50, 0
9, 228240, Note_on_c, 7, 50, 105
9, 228420, Note_on_c, 7, 50, 0
9, 228480, Note_on_c, 7, 50, 105
9, 228840, Note_on_c, 7, 50, 0
9, 228960, Note_on_c, 7, 50, 105
9, 229140, Note_on_c, 7, 50, 0
9, 229200, Note_on_c, 7, 50, 105
9, 229380, Note_on_c, 7, 50, 0
9, 229440, Note_on_c, 7, 50, 105
9, 229800, Note_on_c, 7, 50, 0
9, 229920, Note_on_c, 7, 50, 105
9, 230100, Note_on_c, 7, 50, 0
9, 230160, Note_on_c, 7, 50, 105
9, 230340, Note_on_c, 7, 50, 0
9, 230400, Note_on_c, 7, 50, 105
9, 231168, Note_on_c, 7, 50, 0
9, 234240, Note_on_c, 7, 43, 58
9, 234624, Note_on_c, 7, 43, 0
9, 236160, Note_on_c, 7, 55, 58
9, 236544, Note_on_c, 7, 55, 0
9, 238080, Note_on_c, 7, 39, 58
9, 238464, Note_on_c, 7, 39, 0
9, 240000, Note_on_c, 7, 48, 58
9, 240384, Note_on_c, 7, 48, 0
9, 241920, Note_on_c, 7, 53, 58
9, 242304, Note_on_c, 7, 53, 0
9, 243840, Note_on_c, 7, 53, 58
9, 244224, Note_on_c, 7, 53, 0
9, 245760, Note_on_c, 7, 58, 105
9, 245952, Note_on_c, 7, 58, 0
9, 246000, Note_on_c, 7, 62, 105
9, 246192, Note_on_c, 7, 62, 0
9, 246240, Note_on_c, 7, 58, 105
9, 246432, Note_on_c, 7, 58, 0
9, 246480, Note_on_c, 7, 62, 105
9, 246672, Note_on_c, 7, 62, 0
9, 246720, Note_on_c, 7, 58, 105
9, 246912, Note_on_c, 7, 58, 0
9, 246960, Note_on_c, 7, 62, 105
9, 247152, Note_on_c, 7, 62, 0
9, 247200, Note_on_c, 7, 58, 105
9, 247392, Note_on_c, 7, 58, 0
9, 247440, Note_on_c, 7, 62, 105
9, 247632, Note_on_c, 7, 62, 0
9, 247680, Note_on_c, 7, 57, 105
9, 247872, Note_on_c, 7, 57, 0
9, 247920, Note_on_c, 7, 60, 105
9, 248112, Note_on_c, 7, 60, 0
9, 248160, Note_on_c, 7, 57, 105
9, 248352, Note_on_c, 7, 57, 0
9, 248400, Note_on_c, 7, 60, 105
9, 248592, Note_on_c, 7, 60, 0
9, 248640, Note_on_c, 7, 57, 105
9, 248832, Note_on_c, 7, 57, 0
9, 248880, Note_on_c, 7, 60, 105
9, 249072, Note_on_c, 7, 60, 0
9, 249120, Note_on_c, 7, 57, 105
9, 249312, Note_on_c, 7, 57, 0
9, 249360, Note_on_c, 7, 60, 105
9, 249552, Note_on_c, 7, 60, 0
9, 249600, Note_on_c, 7, 55, 105
9, 249792, Note_on_c, 7, 55, 0
9, 249840, Note_on_c, 7, 58, 105
9, 250032, Note_on_c, 7, 58, 0
9, 250080, Note_on_c, 7, 55, 105
9, 250272, Note_on_c, 7, 55, 0
9, 250320, Note_on_c, 7, 58, 105
9, 250512, Note_on_c, 7, 58, 0
9, 250560, Note_on_c, 7, 55, 105
9, 250752, Note_on_c, 7, 55, 0
9, 250800, Note_on_c, 7, 58, 105
9, 250992, Note_on_c, 7, 58, 0
9, 251040, Note_on_c, 7, 55, 105
9, 251232, Note_on_c, 7, 55, 0
9, 251280, Note_on_c, 7, 58, 105
9, 251472, Note_on_c, 7, 58, 0
9, 251520, Note_on_c, 7, 53, 105
9, 251712, Note_on_c, 7, 53, 0
9, 251760, Note_on_c, 7, 58, 105
9, 251952, Note_on_c, 7, 58, 0
9, 252000, Note_on_c, 7, 53, 105
9, 252192, Note_on_c, 7, 53, 0
9, 252240, Note_on_c, 7, 58, 105
9, 252432, Note_on_c, 7, 58, 0
9, 252480, Note_on_c, 7, 53, 105
9, 252672, Note_on_c, 7, 53, 0
9, 252720, Note_on_c, 7, 58, 105
9, 252912, Note_on_c, 7, 58, 0
9, 252960, Note_on_c, 7, 53, 105
9, 253152, Note_on_c, 7, 53, 0
9, 253200, Note_on_c, 7, 58, 105
9, 253392, Note_on_c, 7, 58, 0
9, 253440, Note_on_c, 7, 51, 105
9, 253632, Note_on_c, 7, 51, 0
9, 253680, Note_on_c, 7, 55, 105
9, 253872, Note_on_c, 7, 55, 0
9, 253920, Note_on_c, 7, 51, 105
9, 254112, Note_on_c, 7, 51, 0
9, 254160, Note_on_c, 7, 55, 105
9, 254352, Note_on_c, 7, 55, 0
9, 254400, Note_on_c, 7, 51, 105
9, 254592, Note_on_c, 7, 51, 0
9, 254640, Note_on_c, 7, 55, 105
9, 254832, Note_on_c, 7, 55, 0
9, 254880, Note_on_c, 7, 51, 105
9, 255072, Note_on_c, 7, 51, 0
9, 255120, Note_on_c, 7, 55, 105
9, 255312, Note_on_c, 7, 55, 0
9, 255360, Note_on_c, 7, 50, 105
9, 255552, Note_on_c, 7, 50, 0
9, 255600, Note_on_c, 7, 53, 105
9, 255792, Note_on_c, 7, 53, 0
9, 255840, Note_on_c, 7, 50, 105
9, 256032, Note_on_c, 7, 50, 0
9, 256080, Note_on_c, 7, 53, 105
9, 256272, Note_on_c, 7, 53, 0
9, 256320, Note_on_c, 7, 50, 105
9, 256512, Note_on_c, 7, 50, 0
9, 256560, Note_on_c, 7, 53, 105
9, 256752, Note_on_c, 7, 53, 0
9, 256800, Note_on_c, 7, 50, 105
9, 256992, Note_on_c, 7, 50, 0
9, 257040, Note_on_c, 7, 53, 105
9, 257232, Note_on_c, 7, 53, 0
9, 257280, Note_on_c, 7, 48, 112
9, 258816, Note_on_c, 7, 48, 0
9, 259200, Note_on_c, 7, 48, 112
9, 259968, Note_on_c, 7, 48, 0
9, 260160, Note_on_c, 7, 49, 112
9, 260928, Note_on_c, 7, 49, 0
9, 261120, Note_on_c, 7, 48, 112
9, 261888, Note_on_c, 7, 48, 0
9, 262080, Note_on_c, 7, 49, 112
9, 262848, Note_on_c, 7, 49, 0
9, 263040, Note_on_c, 7, 48, 112
9, 263808, Note_on_c, 7, 48, 0
9, 264720, Note_on_c, 7, 48, 92
9, 264912, Note_on_c, 7, 48, 0
9, 264960, Note_on_c, 7, 53, 105
9, 265140, Note_on_c, 7, 53, 0
9, 265200, Note_on_c, 7, 53, 105
9, 265380, Note_on_c, 7, 53, 0
9, 265440, Note_on_c, 7, 53, 105
9, 265620, Note_on_c, 7, 53, 0
9, 265680, Note_on_c, 7, 53, 105
9, 265860, Note_on_c, 7, 53, 0
9, 265920, Note_on_c, 7, 53, 105
9, 266100, Note_on_c, 7, 53, 0
9, 266160, Note_on_c, 7, 53, 105
9, 266340, Note_on_c, 7, 53, 0
9, 266400, Note_on_c, 7, 53, 105
9, 266580, Note_on_c, 7, 53, 0
9, 266640, Note_on_c, 7, 53, 105
9, 266820, Note_on_c, 7, 53, 0
9, 266880, Note_on_c, 7, 53, 105
9, 267060, Note_on_c, 7, 53, 0
9, 267120, Note_on_c, 7, 53, 105
9, 267300, Note_on_c, 7, 53, 0
9, 267360, Note_on_c, 7, 53, 105
9, 267540, Note_on_c, 7, 53, 0
9, 267600, Note_on_c, 7, 53, 105
9, 267780, Note_on_c, 7, 53, 0
9, 267840, Note_on_c, 7, 53, 105
9, 268020, Note_on_c, 7, 53, 0
9, 268080, Note_on_c, 7, 53, 105
9, 268260, Note_on_c, 7, 53, 0
9, 268320, Note_on_c, 7, 53, 105
9, 268500, Note_on_c, 7, 53, 0
9, 268560, Note_on_c, 7, 53, 105
9, 268740, Note_on_c, 7, 53, 0
9, 268800, Note_on_c, 7, 53, 105
9, 268980, Note_on_c, 7, 53, 0
9, 269040, Note_on_c, 7, 53, 105
9, 269220, Note_on_c, 7, 53, 0
9, 269280, Note_on_c, 7, 53, 105
9, 269460, Note_on_c, 7, 53, 0
9, 269520, Note_on_c, 7, 53, 105
9, 269700, Note_on_c, 7, 53, 0
9, 269760, Note_on_c, 7, 53, 105
9, 269940, Note_on_c, 7, 53, 0
9, 270000, Note_on_c, 7, 53, 105
9, 270180, Note_on_c, 7, 53, 0
9, 270240, Note_on_c, 7, 53, 105
9, 270420, Note_on_c, 7, 53, 0
9, 270480, Note_on_c, 7, 53, 105
9, 270660, Note_on_c, 7, 53, 0
9, 270720, Note_on_c, 7, 53, 105
9, 270900, Note_on_c, 7, 53, 0
9, 270960, Note_on_c, 7, 53, 105
9, 271140, Note_on_c, 7, 53, 0
9, 271200, Note_on_c, 7, 53, 105
9, 271380, Note_on_c, 7, 53, 0
9, 271440, Note_on_c, 7, 53, 105
9, 271620, Note_on_c, 7, 53, 0
9, 271680, Note_on_c, 7, 53, 105
9, 271860, Note_on_c, 7, 53, 0
9, 271920, Note_on_c, 7, 53, 105
9, 272100, Note_on_c, 7, 53, 0
9, 272160, Note_on_c, 7, 53, 105
9, 272340, Note_on_c, 7, 53, 0
9, 272400, Note_on_c, 7, 53, 105
9, 272580, Note_on_c, 7, 53, 0
9, 272640, Note_on_c, 7, 53, 105
9, 273024, Note_on_c, 7, 53, 0
9, 273600, Note_on_c, 7, 41, 92
9, 273984, Note_on_c, 7, 41, 0
9, 276480, Note_on_c, 7, 62, 58
9, 277920, Note_on_c, 7, 62, 0
9, 277920, Note_on_c, 7, 60, 58
9, 278400, Note_on_c, 7, 60, 0
9, 278400, Note_on_c, 7, 53, 58
9, 278784, Note_on_c, 7, 53, 0
9, 280800, Note_on_c, 7, 55, 58
9, 281112, Note_on_c, 7, 55, 0
9, 281280, Note_on_c, 7, 55, 58
9, 281760, Note_on_c, 7, 55, 0
9, 281760, Note_on_c, 7, 51, 58
9, 282144, Note_on_c, 7, 51, 0
9, 282240, Note_on_c, 7, 53, 58
9, 283008, Note_on_c, 7, 53, 0
9, 284160, Note_on_c, 7, 51, 58
9, 285600, Note_on_c, 7, 51, 0
9, 285600, Note_on_c, 7, 50, 58
9, 286080, Note_on_c, 7, 50, 0
9, 286080, Note_on_c, 7, 55, 58
9, 286560, Note_on_c, 7, 55, 0
9, 286560, Note_on_c, 7, 48, 58
9, 287040, Note_on_c, 7, 48, 0
9, 287040, Note_on_c, 7, 53, 58
9, 287520, Note_on_c, 7, 53, 0
9, 287520, Note_on_c, 7, 46, 58
9, 287904, Note_on_c, 7, 46, 0
9, 288000, Note_on_c, 7, 51, 58
9, 288384, Note_on_c, 7, 51, 0
9, 288960, Note_on_c, 7, 53, 58
9, 289344, Note_on_c, 7, 53, 0
9, 289920, Note_on_c, 7, 46, 58
9, 290304, Note_on_c, 7, 46, 0
9, 299520, Note_on_c, 7, 63, 70
9, 300960, Note_on_c, 7, 63, 0
9, 300960, Note_on_c, 7, 62, 70
9, 301440, Note_on_c, 7, 62, 0
9, 301440, Note_on_c, 7, 55, 70
9, 301920, Note_on_c, 7, 55, 0
9, 301920, Note_on_c, 7, 60, 70
9, 302400, Note_on_c, 7, 60, 0
9, 302400, Note_on_c, 7, 53, 70
9, 302880, Note_on_c, 7, 53, 0
9, 302880, Note_on_c, 7, 58, 70
9, 303264, Note_on_c, 7, 58, 0
9, 303360, Note_on_c, 7, 51, 58
9, 310656, Note_on_c, 7, 51, 0
9, 311040, Note_on_c, 7, 51, 58
9, 311256, Note_on_c, 7, 51, 0
9, 311280, Note_on_c, 7, 51, 73
9, 311496, Note_on_c, 7, 51, 0
9, 311520, Note_on_c, 7, 51, 76
9, 311736, Note_on_c, 7, 51, 0
9, 311760, Note_on_c, 7, 51, 79
9, 311976, Note_on_c, 7, 51, 0
9, 312000, Note_on_c, 7, 51, 83
9, 312216, Note_on_c, 7, 51, 0
9, 312240, Note_on_c, 7, 51, 86
9, 312456, Note_on_c, 7, 51, 0
9, 312480, Note_on_c, 7, 51, 89
9, 312696, Note_on_c, 7, 51, 0
9, 312720, Note_on_c, 7, 51, 92
9, 312936, Note_on_c, 7, 51, 0
9, 312960, Note_on_c, 7, 52, 96
9, 313176, Note_on_c, 7, 52, 0
9, 313200, Note_on_c, 7, 52, 99
9, 313416, Note_on_c, 7, 52, 0
9, 313440, Note_on_c, 7, 52, 102
9, 313656, Note_on_c, 7, 52, 0
9, 313680, Note_on_c, 7, 52, 106
9, 313896, Note_on_c, 7, 52, 0
9, 313920, Note_on_c, 7, 52, 109
9, 314136, Note_on_c, 7, 52, 0
9, 314160, Note_on_c, 7, 52, 109
9, 314376, Note_on_c, 7, 52, 0
9, 314400, Note_on_c, 7, 52, 109
9, 314616, Note_on_c, 7, 52, 0
9, 314640, Note_on_c, 7, 52, 109
9, 314856, Note_on_c, 7, 52, 0
9, 314880, Note_on_c, 7, 53, 109
9, 315072, Note_on_c, 7, 53, 0
9, 315120, Note_on_c, 7, 53, 105
9, 315312, Note_on_c, 7, 53, 0
9, 315360, Note_on_c, 7, 53, 105
9, 315552, Note_on_c, 7, 53, 0
9, 315600, Note_on_c, 7, 53, 105
9, 315792, Note_on_c, 7, 53, 0
9, 315840, Note_on_c, 7, 53, 105
9, 316032, Note_on_c, 7, 53, 0
9, 316080, Note_on_c, 7, 53, 105
9, 316272, Note_on_c, 7, 53, 0
9, 316320, Note_on_c, 7, 53, 105
9, 316512, Note_on_c, 7, 53, 0
9, 316560, Note_on_c, 7, 53, 105
9, 316752, Note_on_c, 7, 53, 0
9, 316800, Note_on_c, 7, 41, 105
9, 316992, Note_on_c, 7, 41, 0
9, 317040, Note_on_c, 7, 41, 105
9, 317232, Note_on_c, 7, 41, 0
9, 317280, Note_on_c, 7, 41, 105
9, 317472, Note_on_c, 7, 41, 0
9, 317520, Note_on_c, 7, 41, 105
9, 317712, Note_on_c, 7, 41, 0
9, 317760, Note_on_c, 7, 41, 105
9, 317952, Note_on_c, 7, 41, 0
9, 318000, Note_on_c, 7, 41, 105
9, 318192, Note_on_c, 7, 41, 0
9, 318240, Note_on_c, 7, 41, 105
9, 318432, Note_on_c, 7, 41, 0
9, 318480, Note_on_c, 7, 41, 105
9, 318672, Note_on_c, 7, 41, 0
9, 318720, Note_on_c, 7, 46, 92
9, 319104, Note_on_c, 7, 46, 0
9, 319200, Note_on_c, 7, 50, 125
9, 319968, Note_on_c, 7, 50, 0
9, 320160, Note_on_c, 7, 51, 105
9, 320448, Note_on_c, 7, 51, 0
9, 320640, Note_on_c, 7, 52, 105
9, 320928, Note_on_c, 7, 52, 0
9, 321120, Note_on_c, 7, 53, 105
9, 321408, Note_on_c, 7, 53, 0
9, 321600, Note_on_c, 7, 54, 105
9, 321888, Note_on_c, 7, 54, 0
9, 322080, Note_on_c, 7, 55, 105
9, 322368, Note_on_c, 7, 55, 0
9, 322560, Note_on_c, 7, 56, 105
9, 322944, Note_on_c, 7, 56, 0
9, 323400, Note_on_c, 7, 56, 105
9, 323496, Note_on_c, 7, 56, 0
9, 323520, Note_on_c, 7, 55, 105
9, 323904, Note_on_c, 7, 55, 0
9, 324360, Note_on_c, 7, 55, 105
9, 324456, Note_on_c, 7, 55, 0
9, 324480, Note_on_c, 7, 63, 105
9, 324864, Note_on_c, 7, 63, 0
9, 325320, Note_on_c, 7, 63, 105
9, 325416, Note_on_c, 7, 63, 0
9, 325440, Note_on_c, 7, 62, 105
9, 325824, Note_on_c, 7, 62, 0
9, 326280, Note_on_c, 7, 62, 105
9, 326376, Note_on_c, 7, 62, 0
9, 326400, Note_on_c, 7, 51, 105
9, 326784, Note_on_c, 7, 51, 0
9, 328320, Note_on_c, 7, 53, 58
9, 328704, Note_on_c, 7, 53, 0
9, 333120, Note_on_c, 7, 51, 58
9, 335040, Note_on_c, 7, 51, 0
9, 335040, Note_on_c, 7, 50, 58
9, 335424, Note_on_c, 7, 50, 0
9, 336960, Note_on_c, 7, 51, 58
9, 338880, Note_on_c, 7, 51, 0
9, 338880, Note_on_c, 7, 50, 58
9, 339264, Note_on_c, 7, 50, 0
9, 339840, Note_on_c, 7, 50, 105
9, 340032, Note_on_c, 7, 50, 0
9, 340080, Note_on_c, 7, 50, 105
9, 340272, Note_on_c, 7, 50, 0
9, 340320, Note_on_c, 7, 50, 105
9, 340512, Note_on_c, 7, 50, 0
9, 340560, Note_on_c, 7, 50, 105
9, 340752, Note_on_c, 7, 50, 0
9, 340800, Note_on_c, 7, 50, 105
9, 340992, Note_on_c, 7, 50, 0
9, 341040, Note_on_c, 7, 50, 105
9, 341232, Note_on_c, 7, 50, 0
9, 341280, Note_on_c, 7, 50, 105
9, 341472, Note_on_c, 7, 50, 0
9, 341520, Note_on_c, 7, 50, 105
9, 341712, Note_on_c, 7, 50, 0
9, 341760, Note_on_c, 7, 55, 105
9, 341952, Note_on_c, 7, 55, 0
9, 342000, Note_on_c, 7, 55, 105
9, 342192, Note_on_c, 7, 55, 0
9, 342240, Note_on_c, 7, 55, 105
9, 342432, Note_on_c, 7, 55, 0
9, 342480, Note_on_c, 7, 55, 105
9, 342672, Note_on_c, 7, 55, 0
9, 342720, Note_on_c, 7, 51, 105
9, 342912, Note_on_c, 7, 51, 0
9, 342960, Note_on_c, 7, 51, 105
9, 343152, Note_on_c, 7, 51, 0
9, 343200, Note_on_c, 7, 51, 105
9, 343392, Note_on_c, 7, 51, 0
9, 343440, Note_on_c, 7, 51, 105
9, 343632, Note_on_c, 7, 51, 0
9, 343680, Note_on_c, 7, 53, 105
9, 343872, Note_on_c, 7, 53, 0
9, 343920, Note_on_c, 7, 53, 105
9, 344112, Note_on_c, 7, 53, 0
9, 344160, Note_on_c, 7, 53, 105
9, 344352, Note_on_c, 7, 53, 0
9, 344400, Note_on_c, 7, 53, 105
9, 344592, Note_on_c, 7, 53, 0
9, 344640, Note_on_c, 7, 41, 105
9, 344832, Note_on_c, 7, 41, 0
9, 344880, Note_on_c, 7, 41, 105
9, 345072, Note_on_c, 7, 41, 0
9, 345120, Note_on_c, 7, 41, 105
9, 345312, Note_on_c, 7, 41, 0
9, 345360, Note_on_c, 7, 41, 105
9, 345552, Note_on_c, 7, 41, 0
9, 345600, Note_on_c, 7, 46, 105
9, 345984, Note_on_c, 7, 46, 0
9, 346560, Note_on_c, 7, 58, 58
9, 348480, Note_on_c, 7, 58, 0
9, 348480, Note_on_c, 7, 57, 58
9, 348864, Note_on_c, 7, 57, 0
9, 350400, Note_on_c, 7, 46, 58
9, 352320, Note_on_c, 7, 46, 0
9, 352320, Note_on_c, 7, 45, 58
9, 352704, Note_on_c, 7, 45, 0
9, 355200, Note_on_c, 7, 50, 105
9, 355392, Note_on_c, 7, 50, 0
9, 355440, Note_on_c, 7, 50, 105
9, 355632, Note_on_c, 7, 50, 0
9, 355680, Note_on_c, 7, 50, 105
9, 355872, Note_on_c, 7, 50, 0
9, 355920, Note_on_c, 7, 50, 105
9, 356112, Note_on_c, 7, 50, 0
9, 356160, Note_on_c, 7, 50, 105
9, 356352, Note_on_c, 7, 50, 0
9, 356400, Note_on_c, 7, 50, 105
9, 356592, Note_on_c, 7, 50, 0
9, 356640, Note_on_c, 7, 50, 105
9, 356832, Note_on_c, 7, 50, 0
9, 356880, Note_on_c, 7, 50, 105
9, 357072, Note_on_c, 7, 50, 0
9, 357120, Note_on_c, 7, 55, 105
9, 357312, Note_on_c, 7, 55, 0
9, 357360, Note_on_c, 7, 55, 105
9, 357552, Note_on_c, 7, 55, 0
9, 357600, Note_on_c, 7, 55, 105
9, 357792, Note_on_c, 7, 55, 0
9, 357840, Note_on_c, 7, 55, 105
9, 358032, Note_on_c, 7, 55, 0
9, 358080, Note_on_c, 7, 51, 105
9, 358272, Note_on_c, 7, 51, 0
9, 358320, Note_on_c, 7, 51, 105
9, 358512, Note_on_c, 7, 51, 0
9, 358560, Note_on_c, 7, 51, 105
9, 358752, Note_on_c, 7, 51, 0
9, 358800, Note_on_c, 7, 51, 105
9, 358992, Note_on_c, 7, 51, 0
9, 359040, Note_on_c, 7, 53, 105
9, 359232, Note_on_c, 7, 53, 0
9, 359280, Note_on_c, 7, 53, 105
9, 359472, Note_on_c, 7, 53, 0
9, 359520, Note_on_c, 7, 53, 105
9, 359712, Note_on_c, 7, 53, 0
9, 359760, Note_on_c, 7, 53, 105
9, 359952, Note_on_c, 7, 53, 0
9, 360000, Note_on_c, 7, 41, 105
9, 360192, Note_on_c, 7, 41, 0
9, 360240, Note_on_c, 7, 41, 105
9, 360432, Note_on_c, 7, 41, 0
9, 360480, Note_on_c, 7, 41, 105
9, 360672, Note_on_c, 7, 41, 0
9, 360720, Note_on_c, 7, 41, 105
9, 360912, Note_on_c, 7, 41, 0
9, 360960, Note_on_c, 7, 46, 105
9, 361728, Note_on_c, 7, 46, 0
9, 362640, Note_on_c, 7, 65, 105
9, 362832, Note_on_c, 7, 65, 0
9, 362880, Note_on_c, 7, 63, 105
9, 363072, Note_on_c, 7, 63, 0
9, 363120, Note_on_c, 7, 62, 105
9, 363312, Note_on_c, 7, 62, 0
9, 363360, Note_on_c, 7, 60, 105
9, 363552, Note_on_c, 7, 60, 0
9, 363600, Note_on_c, 7, 58, 105
9, 363792, Note_on_c, 7, 58, 0
9, 363840, Note_on_c, 7, 57, 105
9, 364032, Note_on_c, 7, 57, 0
9, 364080, Note_on_c, 7, 55, 105
9, 364272, Note_on_c, 7, 55, 0
9, 364320, Note_on_c, 7, 53, 105
9, 364512, Note_on_c, 7, 53, 0
9, 364560, Note_on_c, 7, 51, 105
9, 364752, Note_on_c, 7, 51, 0
9, 364800, Note_on_c, 7, 50, 105
9, 365136, Note_on_c, 7, 50, 0
9, 365280, Note_on_c, 7, 50, 105
9, 365616, Note_on_c, 7, 50, 0
9, 365760, Note_on_c, 7, 51, 105
9, 366096, Note_on_c, 7, 51, 0
9, 366240, Note_on_c, 7, 53, 105
9, 366576, Note_on_c, 7, 53, 0
9, 366720, Note_on_c, 7, 58, 105
9, 366912, Note_on_c, 7, 58, 0
9, 366960, Note_on_c, 7, 53, 105
9, 367152, Note_on_c, 7, 53, 0
9, 367200, Note_on_c, 7, 62, 105
9, 367392, Note_on_c, 7, 62, 0
9, 367440, Note_on_c, 7, 60, 105
9, 367632, Note_on_c, 7, 60, 0
9, 367680, Note_on_c, 7, 58, 105
9, 367872, Note_on_c, 7, 58, 0
9, 367920, Note_on_c, 7, 57, 105
9, 368112, Note_on_c, 7, 57, 0
9, 368160, Note_on_c, 7, 55, 105
9, 368352, Note_on_c, 7, 55, 0
9, 368400, Note_on_c, 7, 53, 105
9, 368592, Note_on_c, 7, 53, 0
9, 368640, Note_on_c, 7, 51, 105
9, 368832, Note_on_c, 7, 51, 0
9, 368880, Note_on_c, 7, 50, 105
9, 369072, Note_on_c, 7, 50, 0
9, 369120, Note_on_c, 7, 48, 105
9, 369312, Note_on_c, 7, 48, 0
9, 369360, Note_on_c, 7, 46, 105
9, 369552, Note_on_c, 7, 46, 0
9, 369600, Note_on_c, 7, 45, 105
9, 369792, Note_on_c, 7, 45, 0
9, 369840, Note_on_c, 7, 48, 105
9, 370032, Note_on_c, 7, 48, 0
9, 370080, Note_on_c, 7, 53, 105
9, 370272, Note_on_c, 7, 53, 0
9, 370320, Note_on_c, 7, 51, 105
9, 370512, Note_on_c, 7, 51, 0
9, 370560, Note_on_c, 7, 50, 105
9, 370896, Note_on_c, 7, 50, 0
9, 371040, Note_on_c, 7, 50, 105
9, 371376, Note_on_c, 7, 50, 0
9, 371520, Note_on_c, 7, 51, 105
9, 371856, Note_on_c, 7, 51, 0
9, 372000, Note_on_c, 7, 53, 105
9, 372336, Note_on_c, 7, 53, 0
9, 372480, Note_on_c, 7, 55, 105
9, 372816, Note_on_c, 7, 55, 0
9, 372960, Note_on_c, 7, 51, 105
9, 373296, Note_on_c, 7, 51, 0
9, 373440, Note_on_c, 7, 53, 105
9, 373776, Note_on_c, 7, 53, 0
9, 373920, Note_on_c, 7, 41, 105
9, 374256, Note_on_c, 7, 41, 0
9, 374400, Note_on_c, 7, 46, 105
9, 374784, Note_on_c, 7, 46, 0
9, 375360, Note_on_c, 7, 53, 105
9, 375744, Note_on_c, 7, 53, 0
9, 376320, Note_on_c, 7, 58, 105
9, 376704, Note_on_c, 7, 58, 0
9, 377280, Note_on_c, 7, 53, 105
9, 377664, Note_on_c, 7, 53, 0
9, 378240, Note_on_c, 7, 58, 105
9, 378624, Note_on_c, 7, 58, 0
9, 379200, Note_on_c, 7, 53, 105
9, 379584, Note_on_c, 7, 53, 0
9, 380160, Note_on_c, 7, 58, 105
9, 380520, Note_on_c, 7, 58, 0
9, 380640, Note_on_c, 7, 53, 105
9, 381000, Note_on_c, 7, 53, 0
9, 381120, Note_on_c, 7, 58, 105
9, 381480, Note_on_c, 7, 58, 0
9, 381600, Note_on_c, 7, 53, 105
9, 381960, Note_on_c, 7, 53, 0
9, 382080, Note_on_c, 7, 58, 105
9, 382464, Note_on_c, 7, 58, 0
9, 384000, Note_on_c, 7, 57, 105
9, 384384, Note_on_c, 7, 57, 0
9, 385920, Note_on_c, 7, 55, 105
9, 386304, Note_on_c, 7, 55, 0
9, 386880, Note_on_c, 7, 53, 105
9, 387264, Note_on_c, 7, 53, 0
9, 393600, Note_on_c, 7, 42, 58
9, 393984, Note_on_c, 7, 42, 0
9, 395520, Note_on_c, 7, 54, 58
9, 395904, Note_on_c, 7, 54, 0
9, 397440, Note_on_c, 7, 42, 58
9, 397824, Note_on_c, 7, 42, 0
9, 399360, Note_on_c, 7, 54, 58
9, 399744, Note_on_c, 7, 54, 0
9, 401280, Note_on_c, 7, 41, 58
9, 401664, Note_on_c, 7, 41, 0
9, 403200, Note_on_c, 7, 53, 58
9, 403584, Note_on_c, 7, 53, 0
9, 405120, Note_on_c, 7, 40, 58
9, 405504, Note_on_c, 7, 40, 0
9, 407040, Note_on_c, 7, 52, 58
9, 407424, Note_on_c, 7, 52, 0
9, 408960, Note_on_c, 7, 39, 58
9, 409344, Note_on_c, 7, 39, 0
9, 410880, Note_on_c, 7, 47, 58
9, 411264, Note_on_c, 7, 47, 0
9, 412320, Note_on_c, 7, 60, 105
9, 412560, Note_on_c, 7, 60, 0
9, 412560, Note_on_c, 7, 59, 105
9, 412752, Note_on_c, 7, 59, 0
9, 412800, Note_on_c, 7, 59, 105
9, 413184, Note_on_c, 7, 59, 0
9, 413280, Note_on_c, 7, 60, 105
9, 413520, Note_on_c, 7, 60, 0
9, 413520, Note_on_c, 7, 59, 105
9, 413712, Note_on_c, 7, 59, 0
9, 413760, Note_on_c, 7, 59, 105
9, 414144, Note_on_c, 7, 59, 0
9, 414240, Note_on_c, 7, 60, 105
9, 414480, Note_on_c, 7, 60, 0
9, 414480, Note_on_c, 7, 59, 105
9, 414672, Note_on_c, 7, 59, 0
9, 414720, Note_on_c, 7, 59, 105
9, 415200, Note_on_c, 7, 59, 0
9, 415200, Note_on_c, 7, 67, 105
9, 415584, Note_on_c, 7, 67, 0
9, 416160, Note_on_c, 7, 67, 105
9, 416400, Note_on_c, 7, 67, 0
9, 416400, Note_on_c, 7, 66, 105
9, 416592, Note_on_c, 7, 66, 0
9, 416640, Note_on_c, 7, 64, 105
9, 417024, Note_on_c, 7, 64, 0
9, 417120, Note_on_c, 7, 64, 105
9, 417360, Note_on_c, 7, 64, 0
9, 417360, Note_on_c, 7, 62, 105
9, 417552, Note_on_c, 7, 62, 0
9, 417600, Note_on_c, 7, 60, 105
9, 417984, Note_on_c, 7, 60, 0
9, 418080, Note_on_c, 7, 60, 105
9, 418320, Note_on_c, 7, 60, 0
9, 418320, Note_on_c, 7, 59, 105
9, 418512, Note_on_c, 7, 59, 0
9, 418560, Note_on_c, 7, 57, 105
9, 418704, Note_on_c, 7, 57, 0
9, 418800, Note_on_c, 7, 59, 92
9, 418944, Note_on_c, 7, 59, 0
9, 419040, Note_on_c, 7, 60, 92
9, 419184, Note_on_c, 7, 60, 0
9, 419280, Note_on_c, 7, 59, 92
9, 419424, Note_on_c, 7, 59, 0
9, 419520, Note_on_c, 7, 57, 92
9, 419664, Note_on_c, 7, 57, 0
9, 419760, Note_on_c, 7, 58, 92
9, 419904, Note_on_c, 7, 58, 0
9, 420000, Note_on_c, 7, 55, 92
9, 420144, Note_on_c, 7, 55, 0
9, 420240, Note_on_c, 7, 57, 92
9, 420384, Note_on_c, 7, 57, 0
9, 420480, Note_on_c, 7, 53, 92
9, 420624, Note_on_c, 7, 53, 0
9, 420720, Note_on_c, 7, 57, 92
9, 420864, Note_on_c, 7, 57, 0
9, 420960, Note_on_c, 7, 62, 92
9, 421104, Note_on_c, 7, 62, 0
9, 421200, Note_on_c, 7, 53, 92
9, 421344, Note_on_c, 7, 53, 0
9, 421440, Note_on_c, 7, 52, 92
9, 421584, Note_on_c, 7, 52, 0
9, 421680, Note_on_c, 7, 55, 92
9, 421824, Note_on_c, 7, 55, 0
9, 421920, Note_on_c, 7, 61, 92
9, 422064, Note_on_c, 7, 61, 0
9, 422160, Note_on_c, 7, 52, 92
9, 422304, Note_on_c, 7, 52, 0
9, 422400, Note_on_c, 7, 50, 92
9, 422544, Note_on_c, 7, 50, 0
9, 422640, Note_on_c, 7, 45, 92
9, 422784, Note_on_c, 7, 45, 0
9, 422880, Note_on_c, 7, 47, 92
9, 423024, Note_on_c, 7, 47, 0
9, 423120, Note_on_c, 7, 49, 92
9, 423264, Note_on_c, 7, 49, 0
9, 423360, Note_on_c, 7, 50, 92
9, 423504, Note_on_c, 7, 50, 0
9, 423600, Note_on_c, 7, 45, 92
9, 423744, Note_on_c, 7, 45, 0
9, 423840, Note_on_c, 7, 50, 92
9, 423984, Note_on_c, 7, 50, 0
9, 424080, Note_on_c, 7, 52, 92
9, 424224, Note_on_c, 7, 52, 0
9, 424320, Note_on_c, 7, 53, 92
9, 424464, Note_on_c, 7, 53, 0
9, 424560, Note_on_c, 7, 50, 92
9, 424704, Note_on_c, 7, 50, 0
9, 424800, Note_on_c, 7, 52, 92
9, 424944, Note_on_c, 7, 52, 0
9, 425040, Note_on_c, 7, 54, 92
9, 425184, Note_on_c, 7, 54, 0
9, 425280, Note_on_c, 7, 55, 92
9, 425424, Note_on_c, 7, 55, 0
9, 425520, Note_on_c, 7, 50, 92
9, 425664, Note_on_c, 7, 50, 0
9, 425760, Note_on_c, 7, 54, 92
9, 425904, Note_on_c, 7, 54, 0
9, 426000, Note_on_c, 7, 57, 92
9, 426144, Note_on_c, 7, 57, 0
9, 426240, Note_on_c, 7, 58, 105
9, 426576, Note_on_c, 7, 58, 0
9, 426720, Note_on_c, 7, 43, 105
9, 427056, Note_on_c, 7, 43, 0
9, 427680, Note_on_c, 7, 57, 105
9, 427920, Note_on_c, 7, 57, 0
9, 427920, Note_on_c, 7, 55, 105
9, 428112, Note_on_c, 7, 55, 0
9, 428160, Note_on_c, 7, 55, 105
9, 428544, Note_on_c, 7, 55, 0
9, 428640, Note_on_c, 7, 57, 105
9, 428880, Note_on_c, 7, 57, 0
9, 428880, Note_on_c, 7, 55, 105
9, 429072, Note_on_c, 7, 55, 0
9, 429120, Note_on_c, 7, 55, 105
9, 429504, Note_on_c, 7, 55, 0
9, 429600, Note_on_c, 7, 57, 105
9, 429840, Note_on_c, 7, 57, 0
9, 429840, Note_on_c, 7, 55, 105
9, 430032, Note_on_c, 7, 55, 0
9, 430080, Note_on_c, 7, 55, 105
9, 430560, Note_on_c, 7, 55, 0
9, 430560, Note_on_c, 7, 64, 105
9, 430944, Note_on_c, 7, 64, 0
9, 431520, Note_on_c, 7, 64, 105
9, 431760, Note_on_c, 7, 64, 0
9, 431760, Note_on_c, 7, 62, 105
9, 431952, Note_on_c, 7, 62, 0
9, 432000, Note_on_c, 7, 60, 105
9, 432384, Note_on_c, 7, 60, 0
9, 432480, Note_on_c, 7, 60, 105
9, 432720, Note_on_c, 7, 60, 0
9, 432720, Note_on_c, 7, 58, 105
9, 432912, Note_on_c, 7, 58, 0
9, 432960, Note_on_c, 7, 57, 105
9, 433344, Note_on_c, 7, 57, 0
9, 433440, Note_on_c, 7, 57, 105
9, 433680, Note_on_c, 7, 57, 0
9, 433680, Note_on_c, 7, 55, 105
9, 433872, Note_on_c, 7, 55, 0
9, 433920, Note_on_c, 7, 53, 105
9, 434064, Note_on_c, 7, 53, 0
9, 434160, Note_on_c, 7, 55, 105
9, 434304, Note_on_c, 7, 55, 0
9, 434400, Note_on_c, 7, 57, 105
9, 434544, Note_on_c, 7, 57, 0
9, 434640, Note_on_c, 7, 55, 105
9, 434784, Note_on_c, 7, 55, 0
9, 434880, Note_on_c, 7, 53, 105
9, 435024, Note_on_c, 7, 53, 0
9, 435120, Note_on_c, 7, 55, 105
9, 435264, Note_on_c, 7, 55, 0
9, 435360, Note_on_c, 7, 51, 105
9, 435504, Note_on_c, 7, 51, 0
9, 435600, Note_on_c, 7, 53, 105
9, 435744, Note_on_c, 7, 53, 0
9, 435840, Note_on_c, 7, 50, 105
9, 435984, Note_on_c, 7, 50, 0
9, 436080, Note_on_c, 7, 53, 105
9, 436224, Note_on_c, 7, 53, 0
9, 436320, Note_on_c, 7, 58, 105
9, 436464, Note_on_c, 7, 58, 0
9, 436560, Note_on_c, 7, 50, 105
9, 436704, Note_on_c, 7, 50, 0
9, 436800, Note_on_c, 7, 48, 105
9, 436944, Note_on_c, 7, 48, 0
9, 437040, Note_on_c, 7, 51, 105
9, 437184, Note_on_c, 7, 51, 0
9, 437280, Note_on_c, 7, 57, 105
9, 437424, Note_on_c, 7, 57, 0
9, 437520, Note_on_c, 7, 48, 105
9, 437664, Note_on_c, 7, 48, 0
9, 437760, Note_on_c, 7, 46, 105
9, 437904, Note_on_c, 7, 46, 0
9, 438000, Note_on_c, 7, 41, 105
9, 438144, Note_on_c, 7, 41, 0
9, 438240, Note_on_c, 7, 43, 105
9, 438384, Note_on_c, 7, 43, 0
9, 438480, Note_on_c, 7, 45, 105
9, 438624, Note_on_c, 7, 45, 0
9, 438720, Note_on_c, 7, 46, 105
9, 438864, Note_on_c, 7, 46, 0
9, 438960, Note_on_c, 7, 45, 105
9, 439104, Note_on_c, 7, 45, 0
9, 439200, Note_on_c, 7, 46, 105
9, 439344, Note_on_c, 7, 46, 0
9, 439440, Note_on_c, 7, 48, 105
9, 439584, Note_on_c, 7, 48, 0
9, 439680, Note_on_c, 7, 50, 105
9, 439824, Note_on_c, 7, 50, 0
9, 439920, Note_on_c, 7, 46, 105
9, 440064, Note_on_c, 7, 46, 0
9, 440160, Note_on_c, 7, 48, 105
9, 440304, Note_on_c, 7, 48, 0
9, 440400, Note_on_c, 7, 50, 105
9, 440544, Note_on_c, 7, 50, 0
9, 440640, Note_on_c, 7, 51, 105
9, 440784, Note_on_c, 7, 51, 0
9, 440880, Note_on_c, 7, 50, 105
9, 441024, Note_on_c, 7, 50, 0
9, 441120, Note_on_c, 7, 51, 105
9, 441264, Note_on_c, 7, 51, 0
9, 441360, Note_on_c, 7, 53, 105
9, 441504, Note_on_c, 7, 53, 0
9, 441600, Note_on_c, 7, 55, 105
9, 441744, Note_on_c, 7, 55, 0
9, 441840, Note_on_c, 7, 51, 105
9, 441984, Note_on_c, 7, 51, 0
9, 442080, Note_on_c, 7, 53, 105
9, 442224, Note_on_c, 7, 53, 0
9, 442320, Note_on_c, 7, 55, 105
9, 442464, Note_on_c, 7, 55, 0
9, 442560, Note_on_c, 7, 57, 105
9, 442704, Note_on_c, 7, 57, 0
9, 442800, Note_on_c, 7, 55, 105
9, 442944, Note_on_c, 7, 55, 0
9, 443040, Note_on_c, 7, 57, 105
9, 443184, Note_on_c, 7, 57, 0
9, 443280, Note_on_c, 7, 58, 105
9, 443424, Note_on_c, 7, 58, 0
9, 443520, Note_on_c, 7, 60, 105
9, 443664, Note_on_c, 7, 60, 0
9, 443760, Note_on_c, 7, 57, 105
9, 443904, Note_on_c, 7, 57, 0
9, 444000, Note_on_c, 7, 58, 105
9, 444144, Note_on_c, 7, 58, 0
9, 444240, Note_on_c, 7, 60, 105
9, 444384, Note_on_c, 7, 60, 0
9, 444480, Note_on_c, 7, 62, 105
9, 444624, Note_on_c, 7, 62, 0
9, 444720, Note_on_c, 7, 61, 105
9, 444864, Note_on_c, 7, 61, 0
9, 444960, Note_on_c, 7, 62, 105
9, 445104, Note_on_c, 7, 62, 0
9, 445200, Note_on_c, 7, 64, 105
9, 445344, Note_on_c, 7, 64, 0
9, 445440, Note_on_c, 7, 66, 105
9, 445584, Note_on_c, 7, 66, 0
9, 445680, Note_on_c, 7, 62, 105
9, 445824, Note_on_c, 7, 62, 0
9, 445920, Note_on_c, 7, 64, 105
9, 446064, Note_on_c, 7, 64, 0
9, 446160, Note_on_c, 7, 66, 105
9, 446304, Note_on_c, 7, 66, 0
9, 446400, Note_on_c, 7, 67, 105
9, 446544, Note_on_c, 7, 67, 0
9, 446640, Note_on_c, 7, 63, 105
9, 446784, Note_on_c, 7, 63, 0
9, 446880, Note_on_c, 7, 62, 105
9, 447024, Note_on_c, 7, 62, 0
9, 447120, Note_on_c, 7, 60, 105
9, 447264, Note_on_c, 7, 60, 0
9, 447360, Note_on_c, 7, 58, 105
9, 447504, Note_on_c, 7, 58, 0
9, 447600, Note_on_c, 7, 60, 105
9, 447744, Note_on_c, 7, 60, 0
9, 447840, Note_on_c, 7, 58, 105
9, 447984, Note_on_c, 7, 58, 0
9, 448080, Note_on_c, 7, 57, 105
9, 448224, Note_on_c, 7, 57, 0
9, 448320, Note_on_c, 7, 55, 105
9, 448464, Note_on_c, 7, 55, 0
9, 448560, Note_on_c, 7, 53, 105
9, 448704, Note_on_c, 7, 53, 0
9, 448800, Note_on_c, 7, 55, 105
9, 448944, Note_on_c, 7, 55, 0
9, 449040, Note_on_c, 7, 56, 105
9, 449184, Note_on_c, 7, 56, 0
9, 449280, Note_on_c, 7, 57, 105
9, 449472, Note_on_c, 7, 57, 0
9, 449520, Note_on_c, 7, 57, 105
9, 449712, Note_on_c, 7, 57, 0
9, 449760, Note_on_c, 7, 57, 105
9, 449952, Note_on_c, 7, 57, 0
9, 450000, Note_on_c, 7, 57, 105
9, 450192, Note_on_c, 7, 57, 0
9, 450240, Note_on_c, 7, 57, 105
9, 450432, Note_on_c, 7, 57, 0
9, 450480, Note_on_c, 7, 57, 105
9, 450672, Note_on_c, 7, 57, 0
9, 450720, Note_on_c, 7, 57, 105
9, 450912, Note_on_c, 7, 57, 0
9, 450960, Note_on_c, 7, 57, 105
9, 451152, Note_on_c, 7, 57, 0
9, 451200, Note_on_c, 7, 57, 105
9, 451392, Note_on_c, 7, 57, 0
9, 451440, Note_on_c, 7, 57, 105
9, 451632, Note_on_c, 7, 57, 0
9, 451680, Note_on_c, 7, 57, 105
9, 451872, Note_on_c, 7, 57, 0
9, 451920, Note_on_c, 7, 57, 105
9, 452112, Note_on_c, 7, 57, 0
9, 452160, Note_on_c, 7, 57, 105
9, 452352, Note_on_c, 7, 57, 0
9, 452400, Note_on_c, 7, 57, 105
9, 452592, Note_on_c, 7, 57, 0
9, 452640, Note_on_c, 7, 57, 105
9, 452832, Note_on_c, 7, 57, 0
9, 452880, Note_on_c, 7, 57, 105
9, 453072, Note_on_c, 7, 57, 0
9, 453120, Note_on_c, 7, 57, 105
9, 453312, Note_on_c, 7, 57, 0
9, 453360, Note_on_c, 7, 57, 105
9, 453552, Note_on_c, 7, 57, 0
9, 453600, Note_on_c, 7, 57, 105
9, 453792, Note_on_c, 7, 57, 0
9, 453840, Note_on_c, 7, 57, 105
9, 454032, Note_on_c, 7, 57, 0
9, 454080, Note_on_c, 7, 57, 105
9, 454272, Note_on_c, 7, 57, 0
9, 454320, Note_on_c, 7, 57, 105
9, 454512, Note_on_c, 7, 57, 0
9, 454560, Note_on_c, 7, 57, 105
9, 454752, Note_on_c, 7, 57, 0
9, 454800, Note_on_c, 7, 57, 105
9, 454992, Note_on_c, 7, 57, 0
9, 455040, Note_on_c, 7, 57, 105
9, 455232, Note_on_c, 7, 57, 0
9, 455280, Note_on_c, 7, 57, 105
9, 455472, Note_on_c, 7, 57, 0
9, 455520, Note_on_c, 7, 57, 105
9, 455712, Note_on_c, 7, 57, 0
9, 455760, Note_on_c, 7, 57, 105
9, 455952, Note_on_c, 7, 57, 0
9, 456000, Note_on_c, 7, 57, 105
9, 456192, Note_on_c, 7, 57, 0
9, 456240, Note_on_c, 7, 57, 105
9, 456432, Note_on_c, 7, 57, 0
9, 456480, Note_on_c, 7, 57, 105
9, 456672, Note_on_c, 7, 57, 0
9, 456720, Note_on_c, 7, 57, 105
9, 456912, Note_on_c, 7, 57, 0
9, 456960, Note_on_c, 7, 57, 105
9, 457728, Note_on_c, 7, 57, 0
9, 473760, Note_on_c, 7, 67, 70
9, 474000, Note_on_c, 7, 67, 0
9, 474000, Note_on_c, 7, 66, 70
9, 474144, Note_on_c, 7, 66, 0
9, 474240, Note_on_c, 7, 66, 70
9, 474528, Note_on_c, 7, 66, 0
9, 474720, Note_on_c, 7, 67, 70
9, 474960, Note_on_c, 7, 67, 0
9, 474960, Note_on_c, 7, 66, 70
9, 475104, Note_on_c, 7, 66, 0
9, 475200, Note_on_c, 7, 66, 70
9, 475488, Note_on_c, 7, 66, 0
9, 475680, Note_on_c, 7, 67, 70
9, 475920, Note_on_c, 7, 67, 0
9, 475920, Note_on_c, 7, 66, 70
9, 476064, Note_on_c, 7, 66, 0
9, 476160, Note_on_c, 7, 66, 70
9, 476448, Note_on_c, 7, 66, 0
9, 477600, Note_on_c, 7, 63, 70
9, 477840, Note_on_c, 7, 63, 0
9, 477840, Note_on_c, 7, 62, 70
9, 477984, Note_on_c, 7, 62, 0
9, 478080, Note_on_c, 7, 62, 70
9, 478368, Note_on_c, 7, 62, 0
9, 478560, Note_on_c, 7, 63, 70
9, 478800, Note_on_c, 7, 63, 0
9, 478800, Note_on_c, 7, 62, 70
9, 478944, Note_on_c, 7, 62, 0
9, 479040, Note_on_c, 7, 62, 70
9, 479328, Note_on_c, 7, 62, 0
9, 479520, Note_on_c, 7, 63, 70
9, 479760, Note_on_c, 7, 63, 0
9, 479760, Note_on_c, 7, 62, 70
9, 479904, Note_on_c, 7, 62, 0
9, 480000, Note_on_c, 7, 62, 70
9, 480288, Note_on_c, 7, 62, 0
9, 481440, Note_on_c, 7, 55, 58
9, 481680, Note_on_c, 7, 55, 0
9, 481680, Note_on_c, 7, 54, 58
9, 481824, Note_on_c, 7, 54, 0
9, 481920, Note_on_c, 7, 54, 58
9, 482208, Note_on_c, 7, 54, 0
9, 482400, Note_on_c, 7, 55, 58
9, 482640, Note_on_c, 7, 55, 0
9, 482640, Note_on_c, 7, 54, 58
9, 482784, Note_on_c, 7, 54, 0
9, 482880, Note_on_c, 7, 54, 58
9, 483168, Note_on_c, 7, 54, 0
9, 483360, Note_on_c, 7, 55, 58
9, 483600, Note_on_c, 7, 55, 0
9, 483600, Note_on_c, 7, 54, 58
9, 483744, Note_on_c, 7, 54, 0
9, 483840, Note_on_c, 7, 54, 58
9, 484128, Note_on_c, 7, 54, 0
9, 486240, Note_on_c, 7, 63, 116
9, 486480, Note_on_c, 7, 63, 0
9, 486480, Note_on_c, 7, 62, 116
9, 486672, Note_on_c, 7, 62, 0
9, 486720, Note_on_c, 7, 62, 116
9, 487104, Note_on_c, 7, 62, 0
9, 488160, Note_on_c, 7, 63, 116
9, 488400, Note_on_c, 7, 63, 0
9, 488400, Note_on_c, 7, 62, 116
9, 488592, Note_on_c, 7, 62, 0
9, 488640, Note_on_c, 7, 62, 116
9, 489024, Note_on_c, 7, 62, 0
9, 490080, Note_on_c, 7, 63, 116
9, 490320, Note_on_c, 7, 63, 0
9, 490320, Note_on_c, 7, 62, 116
9, 490512, Note_on_c, 7, 62, 0
9, 490560, Note_on_c, 7, 62, 116
9, 490944, Note_on_c, 7, 62, 0
9, 492000, Note_on_c, 7, 63, 116
9, 492240, Note_on_c, 7, 63, 0
9, 492240, Note_on_c, 7, 62, 116
9, 492432, Note_on_c, 7, 62, 0
9, 492480, Note_on_c, 7, 62, 116
9, 492864, Note_on_c, 7, 62, 0
9, 493920, Note_on_c, 7, 63, 116
9, 494160, Note_on_c, 7, 63, 0
9, 494160, Note_on_c, 7, 62, 116
9, 494352, Note_on_c, 7, 62, 0
9, 494400, Note_on_c, 7, 62, 116
9, 494784, Note_on_c, 7, 62, 0
9, 495840, Note_on_c, 7, 63, 116
9, 496080, Note_on_c, 7, 63, 0
9, 496080, Note_on_c, 7, 62, 116
9, 496272, Note_on_c, 7, 62, 0
9, 496320, Note_on_c, 7, 62, 116
9, 496704, Note_on_c, 7, 62, 0
9, 497760, Note_on_c, 7, 63, 116
9, 498000, Note_on_c, 7, 63, 0
9, 498000, Note_on_c, 7, 62, 116
9, 498192, Note_on_c, 7, 62, 0
9, 498240, Note_on_c, 7, 62, 116
9, 498624, Note_on_c, 7, 62, 0
9, 498720, Note_on_c, 7, 63, 116
9, 498960, Note_on_c, 7, 63, 0
9, 498960, Note_on_c, 7, 62, 116
9, 499152, Note_on_c, 7, 62, 0
9, 499200, Note_on_c, 7, 62, 105
9, 499584, Note_on_c, 7, 62, 0
9, 510720, Note_on_c, 7, 43, 58
9, 511104, Note_on_c, 7, 43, 0
9, 512640, Note_on_c, 7, 55, 58
9, 513024, Note_on_c, 7, 55, 0
9, 514560, Note_on_c, 7, 43, 58
9, 514944, Note_on_c, 7, 43, 0
9, 516480, Note_on_c, 7, 55, 58
9, 516864, Note_on_c, 7, 55, 0
9, 518400, Note_on_c, 7, 42, 58
9, 518784, Note_on_c, 7, 42, 0
9, 520320, Note_on_c, 7, 50, 58
9, 520704, Note_on_c, 7, 50, 0
9, 522240, Note_on_c, 7, 43, 58
9, 522624, Note_on_c, 7, 43, 0
9, 524160, Note_on_c, 7, 48, 58
9, 526080, Note_on_c, 7, 48, 0
9, 526080, Note_on_c, 7, 46, 58
9, 528000, Note_on_c, 7, 46, 0
9, 528000, Note_on_c, 7, 48, 58
9, 529920, Note_on_c, 7, 48, 0
9, 529920, Note_on_c, 7, 46, 58
9, 531744, Note_on_c, 7, 46, 0
9, 531840, Note_on_c, 7, 52, 58
9, 533760, Note_on_c, 7, 52, 0
9, 533760, Note_on_c, 7, 51, 58
9, 535680, Note_on_c, 7, 51, 0
9, 535680, Note_on_c, 7, 50, 58
9, 536448, Note_on_c, 7, 50, 0
9, 537120, Note_on_c, 7, 50, 105
9, 537312, Note_on_c, 7, 50, 0
9, 537360, Note_on_c, 7, 50, 105
9, 537552, Note_on_c, 7, 50, 0
9, 537600, Note_on_c, 7, 50, 105
9, 538368, Note_on_c, 7, 50, 0
9, 539040, Note_on_c, 7, 50, 105
9, 539232, Note_on_c, 7, 50, 0
9, 539280, Note_on_c, 7, 50, 105
9, 539472, Note_on_c, 7, 50, 0
9, 539520, Note_on_c, 7, 50, 105
9, 540288, Note_on_c, 7, 50, 0
9, 540960, Note_on_c, 7, 50, 105
9, 541128, Note_on_c, 7, 50, 0
9, 541200, Note_on_c, 7, 50, 105
9, 541368, Note_on_c, 7, 50, 0
9, 541440, Note_on_c, 7, 50, 105
9, 541776, Note_on_c, 7, 50, 0
9, 541920, Note_on_c, 7, 50, 105
9, 542088, Note_on_c, 7, 50, 0
9, 542160, Note_on_c, 7, 50, 105
9, 542328, Note_on_c, 7, 50, 0
9, 542400, Note_on_c, 7, 50, 105
9, 542736, Note_on_c, 7, 50, 0
9, 542880, Note_on_c, 7, 50, 105
9, 543048, Note_on_c, 7, 50, 0
9, 543120, Note_on_c, 7, 50, 105
9, 543288, Note_on_c, 7, 50, 0
9, 543360, Note_on_c, 7, 50, 105
9, 544128, Note_on_c, 7, 50, 0
9, 547200, Note_on_c, 7, 43, 58
9, 547584, Note_on_c, 7, 43, 0
9, 549120, Note_on_c, 7, 55, 58
9, 549504, Note_on_c, 7, 55, 0
9, 551040, Note_on_c, 7, 53, 58
9, 551424, Note_on_c, 7, 53, 0
9, 552960, Note_on_c, 7, 51, 58
9, 553344, Note_on_c, 7, 51, 0
9, 554880, Note_on_c, 7, 50, 58
9, 555264, Note_on_c, 7, 50, 0
9, 556800, Note_on_c, 7, 46, 58
9, 557184, Note_on_c, 7, 46, 0
9, 558720, Note_on_c, 7, 51, 105
9, 558864, Note_on_c, 7, 51, 0
9, 558960, Note_on_c, 7, 55, 105
9, 559104, Note_on_c, 7, 55, 0
9, 559200, Note_on_c, 7, 58, 105
9, 559344, Note_on_c, 7, 58, 0
9, 559440, Note_on_c, 7, 63, 105
9, 559584, Note_on_c, 7, 63, 0
9, 559680, Note_on_c, 7, 67, 105
9, 559824, Note_on_c, 7, 67, 0
9, 559920, Note_on_c, 7, 65, 105
9, 560064, Note_on_c, 7, 65, 0
9, 560160, Note_on_c, 7, 67, 105
9, 560304, Note_on_c, 7, 67, 0
9, 560400, Note_on_c, 7, 63, 105
9, 560544, Note_on_c, 7, 63, 0
9, 560640, Note_on_c, 7, 62, 105
9, 560832, Note_on_c, 7, 62, 0
9, 560880, Note_on_c, 7, 63, 105
9, 561072, Note_on_c, 7, 63, 0
9, 561120, Note_on_c, 7, 65, 105
9, 561312, Note_on_c, 7, 65, 0
9, 561360, Note_on_c, 7, 63, 105
9, 561552, Note_on_c, 7, 63, 0
9, 561600, Note_on_c, 7, 62, 105
9, 561792, Note_on_c, 7, 62, 0
9, 561840, Note_on_c, 7, 60, 105
9, 562032, Note_on_c, 7, 60, 0
9, 562080, Note_on_c, 7, 62, 105
9, 562272, Note_on_c, 7, 62, 0
9, 562320, Note_on_c, 7, 58, 105
9, 562512, Note_on_c, 7, 58, 0
9, 562560, Note_on_c, 7, 60, 105
9, 562752, Note_on_c, 7, 60, 0
9, 562800, Note_on_c, 7, 63, 105
9, 562992, Note_on_c, 7, 63, 0
9, 563040, Note_on_c, 7, 60, 105
9, 563232, Note_on_c, 7, 60, 0
9, 563280, Note_on_c, 7, 63, 105
9, 563472, Note_on_c, 7, 63, 0
9, 563520, Note_on_c, 7, 60, 105
9, 563712, Note_on_c, 7, 60, 0
9, 563760, Note_on_c, 7, 63, 105
9, 563952, Note_on_c, 7, 63, 0
9, 564000, Note_on_c, 7, 60, 105
9, 564192, Note_on_c, 7, 60, 0
9, 564240, Note_on_c, 7, 63, 105
9, 564432, Note_on_c, 7, 63, 0
9, 564480, Note_on_c, 7, 58, 105
9, 564672, Note_on_c, 7, 58, 0
9, 564720, Note_on_c, 7, 63, 105
9, 564912, Note_on_c, 7, 63, 0
9, 564960, Note_on_c, 7, 58, 105
9, 565152, Note_on_c, 7, 58, 0
9, 565200, Note_on_c, 7, 63, 105
9, 565392, Note_on_c, 7, 63, 0
9, 565440, Note_on_c, 7, 58, 105
9, 565632, Note_on_c, 7, 58, 0
9, 565680, Note_on_c, 7, 63, 105
9, 565872, Note_on_c, 7, 63, 0
9, 565920, Note_on_c, 7, 58, 105
9, 566112, Note_on_c, 7, 58, 0
9, 566160, Note_on_c, 7, 63, 105
9, 566352, Note_on_c, 7, 63, 0
9, 566400, Note_on_c, 7, 56, 105
9, 566592, Note_on_c, 7, 56, 0
9, 566640, Note_on_c, 7, 60, 105
9, 566832, Note_on_c, 7, 60, 0
9, 566880, Note_on_c, 7, 56, 105
9, 567072, Note_on_c, 7, 56, 0
9, 567120, Note_on_c, 7, 60, 105
9, 567312, Note_on_c, 7, 60, 0
9, 567360, Note_on_c, 7, 56, 105
9, 567552, Note_on_c, 7, 56, 0
9, 567600, Note_on_c, 7, 60, 105
9, 567792, Note_on_c, 7, 60, 0
9, 567840, Note_on_c, 7, 56, 105
9, 568032, Note_on_c, 7, 56, 0
9, 568080, Note_on_c, 7, 60, 105
9, 568272, Note_on_c, 7, 60, 0
9, 568320, Note_on_c, 7, 55, 105
9, 568512, Note_on_c, 7, 55, 0
9, 568560, Note_on_c, 7, 58, 105
9, 568752, Note_on_c, 7, 58, 0
9, 568800, Note_on_c, 7, 55, 105
9, 568992, Note_on_c, 7, 55, 0
9, 569040, Note_on_c, 7, 58, 105
9, 569232, Note_on_c, 7, 58, 0
9, 569280, Note_on_c, 7, 53, 105
9, 569472, Note_on_c, 7, 53, 0
9, 569520, Note_on_c, 7, 56, 105
9, 569712, Note_on_c, 7, 56, 0
9, 569760, Note_on_c, 7, 53, 105
9, 569952, Note_on_c, 7, 53, 0
9, 570000, Note_on_c, 7, 56, 105
9, 570192, Note_on_c, 7, 56, 0
9, 570240, Note_on_c, 7, 52, 105
9, 570432, Note_on_c, 7, 52, 0
9, 570480, Note_on_c, 7, 55, 105
9, 570672, Note_on_c, 7, 55, 0
9, 570720, Note_on_c, 7, 52, 105
9, 570912, Note_on_c, 7, 52, 0
9, 570960, Note_on_c, 7, 55, 105
9, 571152, Note_on_c, 7, 55, 0
9, 571200, Note_on_c, 7, 48, 105
9, 571392, Note_on_c, 7, 48, 0
9, 571440, Note_on_c, 7, 52, 105
9, 571632, Note_on_c, 7, 52, 0
9, 571680, Note_on_c, 7, 48, 105
9, 571872, Note_on_c, 7, 48, 0
9, 571920, Note_on_c, 7, 52, 105
9, 572112, Note_on_c, 7, 52, 0
9, 572160, Note_on_c, 7, 53, 105
9, 573696, Note_on_c, 7, 53, 0
9, 574080, Note_on_c, 7, 60, 105
9, 575232, Note_on_c, 7, 60, 0
9, 575760, Note_on_c, 7, 60, 105
9, 575904, Note_on_c, 7, 60, 0
9, 576000, Note_on_c, 7, 58, 105
9, 576288, Note_on_c, 7, 58, 0
9, 576480, Note_on_c, 7, 61, 105
9, 576768, Note_on_c, 7, 61, 0
9, 576960, Note_on_c, 7, 67, 105
9, 577248, Note_on_c, 7, 67, 0
9, 577920, Note_on_c, 7, 56, 105
9, 578208, Note_on_c, 7, 56, 0
9, 578400, Note_on_c, 7, 60, 105
9, 578688, Note_on_c, 7, 60, 0
9, 578880, Note_on_c, 7, 65, 105
9, 579168, Note_on_c, 7, 65, 0
9, 579600, Note_on_c, 7, 56, 105
9, 579744, Note_on_c, 7, 56, 0
9, 579840, Note_on_c, 7, 55, 105
9, 580128, Note_on_c, 7, 55, 0
9, 580320, Note_on_c, 7, 58, 105
9, 580608, Note_on_c, 7, 58, 0
9, 580800, Note_on_c, 7, 64, 105
9, 581088, Note_on_c, 7, 64, 0
9, 581520, Note_on_c, 7, 55, 105
9, 581664, Note_on_c, 7, 55, 0
9, 581760, Note_on_c, 7, 53, 105
9, 582048, Note_on_c, 7, 53, 0
9, 582240, Note_on_c, 7, 56, 105
9, 582528, Note_on_c, 7, 56, 0
9, 582720, Note_on_c, 7, 60, 105
9, 583008, Note_on_c, 7, 60, 0
9, 583440, Note_on_c, 7, 41, 105
9, 583584, Note_on_c, 7, 41, 0
9, 583680, Note_on_c, 7, 46, 105
9, 583968, Note_on_c, 7, 46, 0
9, 584160, Note_on_c, 7, 50, 105
9, 584448, Note_on_c, 7, 50, 0
9, 584640, Note_on_c, 7, 53, 105
9, 584928, Note_on_c, 7, 53, 0
9, 585360, Note_on_c, 7, 46, 105
9, 585504, Note_on_c, 7, 46, 0
9, 585600, Note_on_c, 7, 51, 105
9, 585888, Note_on_c, 7, 51, 0
9, 586080, Note_on_c, 7, 55, 105
9, 586368, Note_on_c, 7, 55, 0
9, 586560, Note_on_c, 7, 58, 105
9, 586848, Note_on_c, 7, 58, 0
9, 587280, Note_on_c, 7, 39, 105
9, 587424, Note_on_c, 7, 39, 0
9, 587520, Note_on_c, 7, 44, 105
9, 587808, Note_on_c, 7, 44, 0
9, 588000, Note_on_c, 7, 48, 105
9, 588288, Note_on_c, 7, 48, 0
9, 588480, Note_on_c, 7, 51, 105
9, 588768, Note_on_c, 7, 51, 0
9, 589200, Note_on_c, 7, 44, 105
9, 589344, Note_on_c, 7, 44, 0
9, 589440, Note_on_c, 7, 50, 105
9, 589728, Note_on_c, 7, 50, 0
9, 589920, Note_on_c, 7, 53, 105
9, 590208, Note_on_c, 7, 53, 0
9, 590400, Note_on_c, 7, 57, 105
9, 590688, Note_on_c, 7, 57, 0
9, 591120, Note_on_c, 7, 50, 105
9, 591264, Note_on_c, 7, 50, 0
9, 591360, Note_on_c, 7, 55, 105
9, 591648, Note_on_c, 7, 55, 0
9, 591840, Note_on_c, 7, 59, 105
9, 592128, Note_on_c, 7, 59, 0
9, 592320, Note_on_c, 7, 62, 105
9, 592608, Note_on_c, 7, 62, 0
9, 593040, Note_on_c, 7, 43, 105
9, 593184, Note_on_c, 7, 43, 0
9, 593280, Note_on_c, 7, 48, 105
9, 593568, Note_on_c, 7, 48, 0
9, 593760, Note_on_c, 7, 51, 105
9, 594048, Note_on_c, 7, 51, 0
9, 594240, Note_on_c, 7, 57, 105
9, 594528, Note_on_c, 7, 57, 0
9, 594960, Note_on_c, 7, 48, 105
9, 595104, Note_on_c, 7, 48, 0
9, 595200, Note_on_c, 7, 50, 105
9, 595488, Note_on_c, 7, 50, 0
9, 595680, Note_on_c, 7, 54, 105
9, 595968, Note_on_c, 7, 54, 0
9, 596160, Note_on_c, 7, 57, 105
9, 596448, Note_on_c, 7, 57, 0
9, 597120, Note_on_c, 7, 55, 105
9, 597312, Note_on_c, 7, 55, 0
9, 597360, Note_on_c, 7, 58, 105
9, 597552, Note_on_c, 7, 58, 0
9, 597600, Note_on_c, 7, 55, 105
9, 597792, Note_on_c, 7, 55, 0
9, 597840, Note_on_c, 7, 58, 105
9, 598032, Note_on_c, 7, 58, 0
9, 598080, Note_on_c, 7, 55, 105
9, 598272, Note_on_c, 7, 55, 0
9, 598320, Note_on_c, 7, 58, 105
9, 598512, Note_on_c, 7, 58, 0
9, 598560, Note_on_c, 7, 55, 105
9, 598752, Note_on_c, 7, 55, 0
9, 598800, Note_on_c, 7, 58, 105
9, 598992, Note_on_c, 7, 58, 0
9, 599040, Note_on_c, 7, 53, 105
9, 599232, Note_on_c, 7, 53, 0
9, 599280, Note_on_c, 7, 57, 105
9, 599472, Note_on_c, 7, 57, 0
9, 599520, Note_on_c, 7, 53, 105
9, 599712, Note_on_c, 7, 53, 0
9, 599760, Note_on_c, 7, 57, 105
9, 599952, Note_on_c, 7, 57, 0
9, 600000, Note_on_c, 7, 53, 105
9, 600192, Note_on_c, 7, 53, 0
9, 600240, Note_on_c, 7, 57, 105
9, 600432, Note_on_c, 7, 57, 0
9, 600480, Note_on_c, 7, 53, 105
9, 600672, Note_on_c, 7, 53, 0
9, 600720, Note_on_c, 7, 57, 105
9, 600912, Note_on_c, 7, 57, 0
9, 600960, Note_on_c, 7, 51, 105
9, 601152, Note_on_c, 7, 51, 0
9, 601200, Note_on_c, 7, 55, 105
9, 601392, Note_on_c, 7, 55, 0
9, 601440, Note_on_c, 7, 51, 105
9, 601632, Note_on_c, 7, 51, 0
9, 601680, Note_on_c, 7, 55, 105
9, 601872, Note_on_c, 7, 55, 0
9, 601920, Note_on_c, 7, 51, 105
9, 602112, Note_on_c, 7, 51, 0
9, 602160, Note_on_c, 7, 55, 105
9, 602352, Note_on_c, 7, 55, 0
9, 602400, Note_on_c, 7, 51, 105
9, 602592, Note_on_c, 7, 51, 0
9, 602640, Note_on_c, 7, 55, 105
9, 602832, Note_on_c, 7, 55, 0
9, 602880, Note_on_c, 7, 50, 105
9, 603072, Note_on_c, 7, 50, 0
9, 603120, Note_on_c, 7, 55, 105
9, 603312, Note_on_c, 7, 55, 0
9, 603360, Note_on_c, 7, 50, 105
9, 603552, Note_on_c, 7, 50, 0
9, 603600, Note_on_c, 7, 55, 105
9, 603792, Note_on_c, 7, 55, 0
9, 603840, Note_on_c, 7, 50, 105
9, 604032, Note_on_c, 7, 50, 0
9, 604080, Note_on_c, 7, 55, 105
9, 604272, Note_on_c, 7, 55, 0
9, 604320, Note_on_c, 7, 50, 105
9, 604512, Note_on_c, 7, 50, 0
9, 604560, Note_on_c, 7, 55, 105
9, 604752, Note_on_c, 7, 55, 0
9, 604800, Note_on_c, 7, 48, 105
9, 604992, Note_on_c, 7, 48, 0
9, 605040, Note_on_c, 7, 51, 105
9, 605232, Note_on_c, 7, 51, 0
9, 605280, Note_on_c, 7, 48, 105
9, 605472, Note_on_c, 7, 48, 0
9, 605520, Note_on_c, 7, 51, 105
9, 605712, Note_on_c, 7, 51, 0
9, 605760, Note_on_c, 7, 48, 105
9, 605952, Note_on_c, 7, 48, 0
9, 606000, Note_on_c, 7, 51, 105
9, 606192, Note_on_c, 7, 51, 0
9, 606240, Note_on_c, 7, 48, 105
9, 606432, Note_on_c, 7, 48, 0
9, 606480, Note_on_c, 7, 51, 105
9, 606672, Note_on_c, 7, 51, 0
9, 606720, Note_on_c, 7, 46, 105
9, 606912, Note_on_c, 7, 46, 0
9, 606960, Note_on_c, 7, 50, 105
9, 607152, Note_on_c, 7, 50, 0
9, 607200, Note_on_c, 7, 46, 105
9, 607392, Note_on_c, 7, 46, 0
9, 607440, Note_on_c, 7, 50, 105
9, 607632, Note_on_c, 7, 50, 0
9, 607680, Note_on_c, 7, 46, 105
9, 607872, Note_on_c, 7, 46, 0
9, 607920, Note_on_c, 7, 50, 105
9, 608112, Note_on_c, 7, 50, 0
9, 608160, Note_on_c, 7, 46, 105
9, 608352, Note_on_c, 7, 46, 0
9, 608400, Note_on_c, 7, 50, 105
9, 608592, Note_on_c, 7, 50, 0
9, 608640, Note_on_c, 7, 45, 125
9, 610176, Note_on_c, 7, 45, 0
9, 610560, Note_on_c, 7, 45, 125
9, 611328, Note_on_c, 7, 45, 0
9, 611520, Note_on_c, 7, 46, 125
9, 612288, Note_on_c, 7, 46, 0
9, 612480, Note_on_c, 7, 45, 125
9, 613248, Note_on_c, 7, 45, 0
9, 613440, Note_on_c, 7, 46, 125
9, 614208, Note_on_c, 7, 46, 0
9, 614400, Note_on_c, 7, 45, 125
9, 615168, Note_on_c, 7, 45, 0
9, 616080, Note_on_c, 7, 45, 105
9, 616272, Note_on_c, 7, 45, 0
9, 616320, Note_on_c, 7, 50, 105
9, 616512, Note_on_c, 7, 50, 0
9, 616560, Note_on_c, 7, 62, 105
9, 616752, Note_on_c, 7, 62, 0
9, 616800, Note_on_c, 7, 62, 105
9, 616992, Note_on_c, 7, 62, 0
9, 617040, Note_on_c, 7, 62, 105
9, 617232, Note_on_c, 7, 62, 0
9, 617280, Note_on_c, 7, 62, 105
9, 617472, Note_on_c, 7, 62, 0
9, 617520, Note_on_c, 7, 62, 105
9, 617712, Note_on_c, 7, 62, 0
9, 617760, Note_on_c, 7, 62, 105
9, 617952, Note_on_c, 7, 62, 0
9, 618000, Note_on_c, 7, 62, 105
9, 618192, Note_on_c, 7, 62, 0
9, 618240, Note_on_c, 7, 62, 105
9, 618432, Note_on_c, 7, 62, 0
9, 618480, Note_on_c, 7, 62, 105
9, 618672, Note_on_c, 7, 62, 0
9, 618720, Note_on_c, 7, 62, 105
9, 618912, Note_on_c, 7, 62, 0
9, 618960, Note_on_c, 7, 62, 105
9, 619152, Note_on_c, 7, 62, 0
9, 619200, Note_on_c, 7, 62, 105
9, 619392, Note_on_c, 7, 62, 0
9, 619440, Note_on_c, 7, 62, 105
9, 619632, Note_on_c, 7, 62, 0
9, 619680, Note_on_c, 7, 62, 105
9, 619872, Note_on_c, 7, 62, 0
9, 619920, Note_on_c, 7, 62, 105
9, 620112, Note_on_c, 7, 62, 0
9, 620160, Note_on_c, 7, 62, 105
9, 620352, Note_on_c, 7, 62, 0
9, 620400, Note_on_c, 7, 62, 105
9, 620592, Note_on_c, 7, 62, 0
9, 620640, Note_on_c, 7, 62, 105
9, 620832, Note_on_c, 7, 62, 0
9, 620880, Note_on_c, 7, 62, 105
9, 621072, Note_on_c, 7, 62, 0
9, 621120, Note_on_c, 7, 62, 105
9, 621312, Note_on_c, 7, 62, 0
9, 621360, Note_on_c, 7, 62, 105
9, 621552, Note_on_c, 7, 62, 0
9, 621600, Note_on_c, 7, 62, 105
9, 621792, Note_on_c, 7, 62, 0
9, 621840, Note_on_c, 7, 62, 105
9, 622032, Note_on_c, 7, 62, 0
9, 622080, Note_on_c, 7, 62, 105
9, 622272, Note_on_c, 7, 62, 0
9, 622320, Note_on_c, 7, 62, 105
9, 622512, Note_on_c, 7, 62, 0
9, 622560, Note_on_c, 7, 62, 105
9, 622752, Note_on_c, 7, 62, 0
9, 622800, Note_on_c, 7, 62, 105
9, 622992, Note_on_c, 7, 62, 0
9, 623040, Note_on_c, 7, 62, 105
9, 623232, Note_on_c, 7, 62, 0
9, 623280, Note_on_c, 7, 62, 105
9, 623472, Note_on_c, 7, 62, 0
9, 623520, Note_on_c, 7, 62, 105
9, 623712, Note_on_c, 7, 62, 0
9, 623760, Note_on_c, 7, 62, 105
9, 623952, Note_on_c, 7, 62, 0
9, 624000, Note_on_c, 7, 62, 105
9, 624384, Note_on_c, 7, 62, 0
9, 624960, Note_on_c, 7, 50, 92
9, 625344, Note_on_c, 7, 50, 0
9, 627840, Note_on_c, 7, 58, 58
9, 629280, Note_on_c, 7, 58, 0
9, 629280, Note_on_c, 7, 57, 58
9, 629760, Note_on_c, 7, 57, 0
9, 629760, Note_on_c, 7, 50, 58
9, 630144, Note_on_c, 7, 50, 0
9, 632160, Note_on_c, 7, 53, 58
9, 632640, Note_on_c, 7, 53, 0
9, 632640, Note_on_c, 7, 52, 58
9, 633120, Note_on_c, 7, 52, 0
9, 633120, Note_on_c, 7, 51, 58
9, 633600, Note_on_c, 7, 51, 0
9, 633600, Note_on_c, 7, 50, 58
9, 634368, Note_on_c, 7, 50, 0
9, 635520, Note_on_c, 7, 48, 58
9, 636960, Note_on_c, 7, 48, 0
9, 636960, Note_on_c, 7, 46, 58
9, 637344, Note_on_c, 7, 46, 0
9, 637440, Note_on_c, 7, 45, 58
9, 637920, Note_on_c, 7, 45, 0
9, 637920, Note_on_c, 7, 50, 58
9, 638400, Note_on_c, 7, 50, 0
9, 638400, Note_on_c, 7, 43, 58
9, 638880, Note_on_c, 7, 43, 0
9, 638880, Note_on_c, 7, 51, 58
9, 639264, Note_on_c, 7, 51, 0
9, 639360, Note_on_c, 7, 48, 58
9, 639744, Note_on_c, 7, 48, 0
9, 640320, Note_on_c, 7, 50, 58
9, 640704, Note_on_c, 7, 50, 0
9, 641280, Note_on_c, 7, 43, 58
9, 641664, Note_on_c, 7, 43, 0
9, 650880, Note_on_c, 7, 60, 58
9, 652320, Note_on_c, 7, 60, 0
9, 652320, Note_on_c, 7, 58, 58
9, 652704, Note_on_c, 7, 58, 0
9, 652800, Note_on_c, 7, 57, 58
9, 653280, Note_on_c, 7, 57, 0
9, 653280, Note_on_c, 7, 50, 58
9, 653760, Note_on_c, 7, 50, 0
9, 653760, Note_on_c, 7, 55, 58
9, 654240, Note_on_c, 7, 55, 0
9, 654240, Note_on_c, 7, 51, 58
9, 654624, Note_on_c, 7, 51, 0
9, 654720, Note_on_c, 7, 46, 58
9, 662304, Note_on_c, 7, 46, 0
9, 662400, Note_on_c, 7, 46, 70
9, 662592, Note_on_c, 7, 46, 0
9, 662640, Note_on_c, 7, 58, 70
9, 662832, Note_on_c, 7, 58, 0
9, 662880, Note_on_c, 7, 58, 72
9, 663072, Note_on_c, 7, 58, 0
9, 663120, Note_on_c, 7, 58, 75
9, 663312, Note_on_c, 7, 58, 0
9, 663360, Note_on_c, 7, 58, 78
9, 663552, Note_on_c, 7, 58, 0
9, 663600, Note_on_c, 7, 58, 80
9, 663792, Note_on_c, 7, 58, 0
9, 663840, Note_on_c, 7, 58, 83
9, 664032, Note_on_c, 7, 58, 0
9, 664080, Note_on_c, 7, 58, 86
9, 664272, Note_on_c, 7, 58, 0
9, 664320, Note_on_c, 7, 59, 88
9, 664512, Note_on_c, 7, 59, 0
9, 664560, Note_on_c, 7, 59, 91
9, 664752, Note_on_c, 7, 59, 0
9, 664800, Note_on_c, 7, 59, 94
9, 664992, Note_on_c, 7, 59, 0
9, 665040, Note_on_c, 7, 59, 96
9, 665232, Note_on_c, 7, 59, 0
9, 665280, Note_on_c, 7, 59, 99
9, 665472, Note_on_c, 7, 59, 0
9, 665520, Note_on_c, 7, 59, 102
9, 665712, Note_on_c, 7, 59, 0
9, 665760, Note_on_c, 7, 59, 105
9, 665952, Note_on_c, 7, 59, 0
9, 666000, Note_on_c, 7, 59, 107
9, 666192, Note_on_c, 7, 59, 0
9, 666240, Note_on_c, 7, 60, 105
9, 666432, Note_on_c, 7, 60, 0
9, 666480, Note_on_c, 7, 60, 105
9, 666672, Note_on_c, 7, 60, 0
9, 666720, Note_on_c, 7, 60, 105
9, 666912, Note_on_c, 7, 60, 0
9, 666960, Note_on_c, 7, 60, 105
9, 667152, Note_on_c, 7, 60, 0
9, 667200, Note_on_c, 7, 60, 105
9, 667392, Note_on_c, 7, 60, 0
9, 667440, Note_on_c, 7, 60, 105
9, 667632, Note_on_c, 7, 60, 0
9, 667680, Note_on_c, 7, 60, 105
9, 667872, Note_on_c, 7, 60, 0
9, 667920, Note_on_c, 7, 60, 105
9, 668112, Note_on_c, 7, 60, 0
9, 668160, Note_on_c, 7, 61, 105
9, 668352, Note_on_c, 7, 61, 0
9, 668400, Note_on_c, 7, 61, 105
9, 668592, Note_on_c, 7, 61, 0
9, 668640, Note_on_c, 7, 61, 105
9, 668832, Note_on_c, 7, 61, 0
9, 668880, Note_on_c, 7, 61, 105
9, 669072, Note_on_c, 7, 61, 0
9, 669120, Note_on_c, 7, 61, 105
9, 669312, Note_on_c, 7, 61, 0
9, 669360, Note_on_c, 7, 61, 105
9, 669552, Note_on_c, 7, 61, 0
9, 669600, Note_on_c, 7, 61, 105
9, 669792, Note_on_c, 7, 61, 0
9, 669840, Note_on_c, 7, 61, 105
9, 670032, Note_on_c, 7, 61, 0
9, 670080, Note_on_c, 7, 62, 105
9, 670272, Note_on_c, 7, 62, 0
9, 670320, Note_on_c, 7, 62, 105
9, 670512, Note_on_c, 7, 62, 0
9, 670560, Note_on_c, 7, 62, 105
9, 670752, Note_on_c, 7, 62, 0
9, 670800, Note_on_c, 7, 62, 105
9, 670992, Note_on_c, 7, 62, 0
9, 671040, Note_on_c, 7, 62, 105
9, 671232, Note_on_c, 7, 62, 0
9, 671280, Note_on_c, 7, 62, 105
9, 671472, Note_on_c, 7, 62, 0
9, 671520, Note_on_c, 7, 62, 105
9, 671712, Note_on_c, 7, 62, 0
9, 671760, Note_on_c, 7, 62, 105
9, 671952, Note_on_c, 7, 62, 0
9, 672000, Note_on_c, 7, 63, 105
9, 672192, Note_on_c, 7, 63, 0
9, 672240, Note_on_c, 7, 63, 105
9, 672432, Note_on_c, 7, 63, 0
9, 672480, Note_on_c, 7, 63, 105
9, 672672, Note_on_c, 7, 63, 0
9, 672720, Note_on_c, 7, 63, 105
9, 672912, Note_on_c, 7, 63, 0
9, 672960, Note_on_c, 7, 63, 105
9, 673152, Note_on_c, 7, 63, 0
9, 673200, Note_on_c, 7, 63, 105
9, 673392, Note_on_c, 7, 63, 0
9, 673440, Note_on_c, 7, 63, 105
9, 673632, Note_on_c, 7, 63, 0
9, 673680, Note_on_c, 7, 63, 105
9, 673872, Note_on_c, 7, 63, 0
9, 673920, Note_on_c, 7, 64, 105
9, 674112, Note_on_c, 7, 64, 0
9, 674160, Note_on_c, 7, 64, 105
9, 674352, Note_on_c, 7, 64, 0
9, 674400, Note_on_c, 7, 64, 105
9, 674592, Note_on_c, 7, 64, 0
9, 674640, Note_on_c, 7, 64, 105
9, 674832, Note_on_c, 7, 64, 0
9, 674880, Note_on_c, 7, 64, 105
9, 675072, Note_on_c, 7, 64, 0
9, 675120, Note_on_c, 7, 64, 105
9, 675312, Note_on_c, 7, 64, 0
9, 675360, Note_on_c, 7, 64, 105
9, 675552, Note_on_c, 7, 64, 0
9, 675600, Note_on_c, 7, 64, 105
9, 675792, Note_on_c, 7, 64, 0
9, 675840, Note_on_c, 7, 62, 105
9, 676032, Note_on_c, 7, 62, 0
9, 676080, Note_on_c, 7, 62, 105
9, 676272, Note_on_c, 7, 62, 0
9, 676320, Note_on_c, 7, 62, 105
9, 676512, Note_on_c, 7, 62, 0
9, 676560, Note_on_c, 7, 62, 105
9, 676752, Note_on_c, 7, 62, 0
9, 676800, Note_on_c, 7, 62, 105
9, 676992, Note_on_c, 7, 62, 0
9, 677040, Note_on_c, 7, 62, 105
9, 677232, Note_on_c, 7, 62, 0
9, 677280, Note_on_c, 7, 62, 105
9, 677472, Note_on_c, 7, 62, 0
9, 677520, Note_on_c, 7, 62, 105
9, 677712, Note_on_c, 7, 62, 0
9, 677760, Note_on_c, 7, 50, 105
9, 677952, Note_on_c, 7, 50, 0
9, 678000, Note_on_c, 7, 50, 105
9, 678192, Note_on_c, 7, 50, 0
9, 678240, Note_on_c, 7, 50, 105
9, 678432, Note_on_c, 7, 50, 0
9, 678480, Note_on_c, 7, 50, 105
9, 678672, Note_on_c, 7, 50, 0
9, 678720, Note_on_c, 7, 50, 105
9, 678912, Note_on_c, 7, 50, 0
9, 678960, Note_on_c, 7, 50, 105
9, 679152, Note_on_c, 7, 50, 0
9, 679200, Note_on_c, 7, 50, 105
9, 679392, Note_on_c, 7, 50, 0
9, 679440, Note_on_c, 7, 50, 105
9, 679632, Note_on_c, 7, 50, 0
9, 679680, Note_on_c, 7, 55, 92
9, 680064, Note_on_c, 7, 55, 0
9, 680160, Note_on_c, 7, 46, 125
9, 680928, Note_on_c, 7, 46, 0
9, 681120, Note_on_c, 7, 48, 105
9, 681408, Note_on_c, 7, 48, 0
9, 681600, Note_on_c, 7, 49, 105
9, 681888, Note_on_c, 7, 49, 0
9, 682080, Note_on_c, 7, 50, 105
9, 682368, Note_on_c, 7, 50, 0
9, 682560, Note_on_c, 7, 51, 105
9, 682848, Note_on_c, 7, 51, 0
9, 683040, Note_on_c, 7, 52, 105
9, 683328, Note_on_c, 7, 52, 0
9, 683520, Note_on_c, 7, 53, 105
9, 683904, Note_on_c, 7, 53, 0
9, 684360, Note_on_c, 7, 53, 105
9, 684456, Note_on_c, 7, 53, 0
9, 684480, Note_on_c, 7, 51, 105
9, 684864, Note_on_c, 7, 51, 0
9, 685320, Note_on_c, 7, 51, 105
9, 685416, Note_on_c, 7, 51, 0
9, 685440, Note_on_c, 7, 60, 105
9, 685824, Note_on_c, 7, 60, 0
9, 686280, Note_on_c, 7, 60, 105
9, 686376, Note_on_c, 7, 60, 0
9, 686400, Note_on_c, 7, 58, 105
9, 686784, Note_on_c, 7, 58, 0
9, 687240, Note_on_c, 7, 58, 105
9, 687336, Note_on_c, 7, 58, 0
9, 687360, Note_on_c, 7, 48, 105
9, 687744, Note_on_c, 7, 48, 0
9, 689280, Note_on_c, 7, 50, 70
9, 689664, Note_on_c, 7, 50, 0
9, 694080, Note_on_c, 7, 60, 58
9, 696000, Note_on_c, 7, 60, 0
9, 696000, Note_on_c, 7, 58, 58
9, 696384, Note_on_c, 7, 58, 0
9, 697920, Note_on_c, 7, 48, 58
9, 699840, Note_on_c, 7, 48, 0
9, 699840, Note_on_c, 7, 46, 58
9, 700224, Note_on_c, 7, 46, 0
9, 700800, Note_on_c, 7, 55, 105
9, 700992, Note_on_c, 7, 55, 0
9, 701040, Note_on_c, 7, 55, 105
9, 701232, Note_on_c, 7, 55, 0
9, 701280, Note_on_c, 7, 55, 105
9, 701472, Note_on_c, 7, 55, 0
9, 701520, Note_on_c, 7, 55, 105
9, 701712, Note_on_c, 7, 55, 0
9, 701760, Note_on_c, 7, 55, 105
9, 701952, Note_on_c, 7, 55, 0
9, 702000, Note_on_c, 7, 55, 105
9, 702192, Note_on_c, 7, 55, 0
9, 702240, Note_on_c, 7, 55, 105
9, 702432, Note_on_c, 7, 55, 0
9, 702480, Note_on_c, 7, 55, 105
9, 702672, Note_on_c, 7, 55, 0
9, 702720, Note_on_c, 7, 60, 105
9, 702912, Note_on_c, 7, 60, 0
9, 702960, Note_on_c, 7, 60, 105
9, 703152, Note_on_c, 7, 60, 0
9, 703200, Note_on_c, 7, 60, 105
9, 703392, Note_on_c, 7, 60, 0
9, 703440, Note_on_c, 7, 60, 105
9, 703632, Note_on_c, 7, 60, 0
9, 703680, Note_on_c, 7, 60, 105
9, 703872, Note_on_c, 7, 60, 0
9, 703920, Note_on_c, 7, 60, 105
9, 704112, Note_on_c, 7, 60, 0
9, 704160, Note_on_c, 7, 60, 105
9, 704352, Note_on_c, 7, 60, 0
9, 704400, Note_on_c, 7, 60, 105
9, 704592, Note_on_c, 7, 60, 0
9, 704640, Note_on_c, 7, 62, 105
9, 704832, Note_on_c, 7, 62, 0
9, 704880, Note_on_c, 7, 62, 105
9, 705072, Note_on_c, 7, 62, 0
9, 705120, Note_on_c, 7, 62, 105
9, 705312, Note_on_c, 7, 62, 0
9, 705360, Note_on_c, 7, 62, 105
9, 705552, Note_on_c, 7, 62, 0
9, 705600, Note_on_c, 7, 50, 105
9, 705792, Note_on_c, 7, 50, 0
9, 705840, Note_on_c, 7, 50, 105
9, 706032, Note_on_c, 7, 50, 0
9, 706080, Note_on_c, 7, 50, 105
9, 706272, Note_on_c, 7, 50, 0
9, 706320, Note_on_c, 7, 50, 105
9, 706512, Note_on_c, 7, 50, 0
9, 706560, Note_on_c, 7, 55, 105
9, 706944, Note_on_c, 7, 55, 0
9, 707520, Note_on_c, 7, 55, 58
9, 709440, Note_on_c, 7, 55, 0
9, 709440, Note_on_c, 7, 54, 58
9, 709824, Note_on_c, 7, 54, 0
9, 711360, Note_on_c, 7, 43, 58
9, 713280, Note_on_c, 7, 43, 0
9, 713280, Note_on_c, 7, 42, 58
9, 713664, Note_on_c, 7, 42, 0
9, 716160, Note_on_c, 7, 55, 105
9, 716352, Note_on_c, 7, 55, 0
9, 716400, Note_on_c, 7, 55, 105
9, 716592, Note_on_c, 7, 55, 0
9, 716640, Note_on_c, 7, 55, 105
9, 716832, Note_on_c, 7, 55, 0
9, 716880, Note_on_c, 7, 55, 105
9, 717072, Note_on_c, 7, 55, 0
9, 717120, Note_on_c, 7, 55, 105
9, 717312, Note_on_c, 7, 55, 0
9, 717360, Note_on_c, 7, 55, 105
9, 717552, Note_on_c, 7, 55, 0
9, 717600, Note_on_c, 7, 55, 105
9, 717792, Note_on_c, 7, 55, 0
9, 717840, Note_on_c, 7, 55, 105
9, 718032, Note_on_c, 7, 55, 0
9, 718080, Note_on_c, 7, 60, 105
9, 718272, Note_on_c, 7, 60, 0
9, 718320, Note_on_c, 7, 60, 105
9, 718512, Note_on_c, 7, 60, 0
9, 718560, Note_on_c, 7, 60, 105
9, 718752, Note_on_c, 7, 60, 0
9, 718800, Note_on_c, 7, 60, 105
9, 718992, Note_on_c, 7, 60, 0
9, 719040, Note_on_c, 7, 60, 105
9, 719232, Note_on_c, 7, 60, 0
9, 719280, Note_on_c, 7, 60, 105
9, 719472, Note_on_c, 7, 60, 0
9, 719520, Note_on_c, 7, 60, 105
9, 719712, Note_on_c, 7, 60, 0
9, 719760, Note_on_c, 7, 60, 105
9, 719952, Note_on_c, 7, 60, 0
9, 720000, Note_on_c, 7, 62, 105
9, 720192, Note_on_c, 7, 62, 0
9, 720240, Note_on_c, 7, 62, 105
9, 720432, Note_on_c, 7, 62, 0
9, 720480, Note_on_c, 7, 62, 105
9, 720672, Note_on_c, 7, 62, 0
9, 720720, Note_on_c, 7, 62, 105
9, 720912, Note_on_c, 7, 62, 0
9, 720960, Note_on_c, 7, 50, 105
9, 721152, Note_on_c, 7, 50, 0
9, 721200, Note_on_c, 7, 50, 105
9, 721392, Note_on_c, 7, 50, 0
9, 721440, Note_on_c, 7, 50, 105
9, 721632, Note_on_c, 7, 50, 0
9, 721680, Note_on_c, 7, 50, 105
9, 721872, Note_on_c, 7, 50, 0
9, 721920, Note_on_c, 7, 55, 105
9, 722688, Note_on_c, 7, 55, 0
9, 723600, Note_on_c, 7, 62, 105
9, 723792, Note_on_c, 7, 62, 0
9, 723840, Note_on_c, 7, 60, 105
9, 724032, Note_on_c, 7, 60, 0
9, 724080, Note_on_c, 7, 58, 105
9, 724272, Note_on_c, 7, 58, 0
9, 724320, Note_on_c, 7, 57, 105
9, 724512, Note_on_c, 7, 57, 0
9, 724560, Note_on_c, 7, 55, 105
9, 724752, Note_on_c, 7, 55, 0
9, 724800, Note_on_c, 7, 54, 105
9, 724992, Note_on_c, 7, 54, 0
9, 725040, Note_on_c, 7, 51, 105
9, 725232, Note_on_c, 7, 51, 0
9, 725280, Note_on_c, 7, 50, 105
9, 725472, Note_on_c, 7, 50, 0
9, 725520, Note_on_c, 7, 48, 105
9, 725712, Note_on_c, 7, 48, 0
9, 725760, Note_on_c, 7, 46, 105
9, 726072, Note_on_c, 7, 46, 0
9, 726240, Note_on_c, 7, 46, 105
9, 726552, Note_on_c, 7, 46, 0
9, 726720, Note_on_c, 7, 48, 105
9, 727032, Note_on_c, 7, 48, 0
9, 727200, Note_on_c, 7, 50, 105
9, 727512, Note_on_c, 7, 50, 0
9, 727680, Note_on_c, 7, 55, 105
9, 727872, Note_on_c, 7, 55, 0
9, 727920, Note_on_c, 7, 50, 105
9, 728112, Note_on_c, 7, 50, 0
9, 728160, Note_on_c, 7, 58, 105
9, 728352, Note_on_c, 7, 58, 0
9, 728400, Note_on_c, 7, 57, 105
9, 728592, Note_on_c, 7, 57, 0
9, 728640, Note_on_c, 7, 55, 105
9, 728832, Note_on_c, 7, 55, 0
9, 728880, Note_on_c, 7, 53, 105
9, 729072, Note_on_c, 7, 53, 0
9, 729120, Note_on_c, 7, 51, 105
9, 729312, Note_on_c, 7, 51, 0
9, 729360, Note_on_c, 7, 50, 105
9, 729552, Note_on_c, 7, 50, 0
9, 729600, Note_on_c, 7, 49, 105
9, 729792, Note_on_c, 7, 49, 0
9, 729840, Note_on_c, 7, 52, 105
9, 730032, Note_on_c, 7, 52, 0
9, 730080, Note_on_c, 7, 57, 105
9, 730272, Note_on_c, 7, 57, 0
9, 730320, Note_on_c, 7, 55, 105
9, 730512, Note_on_c, 7, 55, 0
9, 730560, Note_on_c, 7, 54, 105
9, 730752, Note_on_c, 7, 54, 0
9, 730800, Note_on_c, 7, 51, 105
9, 730992, Note_on_c, 7, 51, 0
9, 731040, Note_on_c, 7, 50, 105
9, 731232, Note_on_c, 7, 50, 0
9, 731280, Note_on_c, 7, 48, 105
9, 731472, Note_on_c, 7, 48, 0
9, 731520, Note_on_c, 7, 46, 105
9, 731904, Note_on_c, 7, 46, 0
9, 732360, Note_on_c, 7, 47, 105
9, 732456, Note_on_c, 7, 47, 0
9, 732480, Note_on_c, 7, 47, 105
9, 732864, Note_on_c, 7, 47, 0
9, 733320, Note_on_c, 7, 48, 105
9, 733416, Note_on_c, 7, 48, 0
9, 733440, Note_on_c, 7, 48, 105
9, 733824, Note_on_c, 7, 48, 0
9, 734280, Note_on_c, 7, 49, 105
9, 734376, Note_on_c, 7, 49, 0
9, 734400, Note_on_c, 7, 49, 105
9, 734784, Note_on_c, 7, 49, 0
9, 735240, Note_on_c, 7, 50, 105
9, 735336, Note_on_c, 7, 50, 0
9, 735360, Note_on_c, 7, 50, 105
9, 735744, Note_on_c, 7, 50, 0
9, 736200, Note_on_c, 7, 53, 105
9, 736296, Note_on_c, 7, 53, 0
9, 736320, Note_on_c, 7, 53, 105
9, 736704, Note_on_c, 7, 53, 0
9, 737160, Note_on_c, 7, 52, 105
9, 737256, Note_on_c, 7, 52, 0
9, 737280, Note_on_c, 7, 52, 105
9, 737664, Note_on_c, 7, 52, 0
9, 738120, Note_on_c, 7, 51, 105
9, 738216, Note_on_c, 7, 51, 0
9, 738240, Note_on_c, 7, 51, 105
9, 738624, Note_on_c, 7, 51, 0
9, 743040, Note_on_c, 7, 43, 58
9, 744000, Note_on_c, 7, 43, 0
9, 744000, Note_on_c, 7, 47, 58
9, 744960, Note_on_c, 7, 47, 0
9, 744960, Note_on_c, 7, 50, 58
9, 745920, Note_on_c, 7, 50, 0
9, 745920, Note_on_c, 7, 47, 58
9, 746688, Note_on_c, 7, 47, 0
9, 746880, Note_on_c, 7, 43, 58
9, 747840, Note_on_c, 7, 43, 0
9, 747840, Note_on_c, 7, 48, 58
9, 748800, Note_on_c, 7, 48, 0
9, 748800, Note_on_c, 7, 51, 58
9, 749760, Note_on_c, 7, 51, 0
9, 749760, Note_on_c, 7, 48, 58
9, 750528, Note_on_c, 7, 48, 0
9, 750720, Note_on_c, 7, 43, 58
9, 751680, Note_on_c, 7, 43, 0
9, 751680, Note_on_c, 7, 48, 58
9, 752640, Note_on_c, 7, 48, 0
9, 752640, Note_on_c, 7, 54, 58
9, 753600, Note_on_c, 7, 54, 0
9, 753600, Note_on_c, 7, 48, 58
9, 754368, Note_on_c, 7, 48, 0
9, 754560, Note_on_c, 7, 43, 105
9, 754944, Note_on_c, 7, 43, 0
9, 755520, Note_on_c, 7, 50, 105
9, 755904, Note_on_c, 7, 50, 0
9, 756480, Note_on_c, 7, 55, 105
9, 756864, Note_on_c, 7, 55, 0
9, 757440, Note_on_c, 7, 50, 105
9, 757824, Note_on_c, 7, 50, 0
9, 758400, Note_on_c, 7, 55, 105
9, 758784, Note_on_c, 7, 55, 0
9, 759360, Note_on_c, 7, 50, 105
9, 759744, Note_on_c, 7, 50, 0
9, 760320, Note_on_c, 7, 55, 105
9, 760656, Note_on_c, 7, 55, 0
9, 760800, Note_on_c, 7, 50, 105
9, 761136, Note_on_c, 7, 50, 0
9, 761280, Note_on_c, 7, 55, 105
9, 761616, Note_on_c, 7, 55, 0
9, 761760, Note_on_c, 7, 50, 105
9, 762096, Note_on_c, 7, 50, 0
9, 762240, Note_on_c, 7, 55, 105
9, 762624, Note_on_c, 7, 55, 0
9, 764160, Note_on_c, 7, 43, 105
9, 764544, Note_on_c, 7, 43, 0
9, 765120, Note_on_c, 7, 55, 105
9, 765504, Note_on_c, 7, 55, 0
9, 766080, Note_on_c, 7, 43, 105
9, 767040, Note_on_c, 7, 43, 0
9, 767040, End_track
10, 0, Start_track
10, 0, Sequencer_specific, 04, 43, 00, 01, 00
10, 0, Program_c, 8, 43
10, 0, Control_c, 8, 7, 99
10, 0, Control_c, 8, 10, 94
10, 0, Control_c, 8, 91, 98
10, 1920, Note_on_c, 8, 31, 58
10, 2304, Note_on_c, 8, 31, 0
10, 3840, Note_on_c, 8, 43, 58
10, 4224, Note_on_c, 8, 43, 0
10, 5760, Note_on_c, 8, 31, 58
10, 6144, Note_on_c, 8, 31, 0
10, 7680, Note_on_c, 8, 43, 58
10, 8064, Note_on_c, 8, 43, 0
10, 9600, Note_on_c, 8, 31, 58
10, 9984, Note_on_c, 8, 31, 0
10, 11520, Note_on_c, 8, 43, 58
10, 11904, Note_on_c, 8, 43, 0
10, 13440, Note_on_c, 8, 30, 58
10, 13824, Note_on_c, 8, 30, 0
10, 15360, Note_on_c, 8, 38, 58
10, 15744, Note_on_c, 8, 38, 0
10, 17280, Note_on_c, 8, 31, 58
10, 17664, Note_on_c, 8, 31, 0
10, 19200, Note_on_c, 8, 36, 58
10, 21120, Note_on_c, 8, 36, 0
10, 21120, Note_on_c, 8, 34, 58
10, 23040, Note_on_c, 8, 34, 0
10, 23040, Note_on_c, 8, 36, 58
10, 24960, Note_on_c, 8, 36, 0
10, 24960, Note_on_c, 8, 34, 58
10, 26784, Note_on_c, 8, 34, 0
10, 26880, Note_on_c, 8, 40, 58
10, 28800, Note_on_c, 8, 40, 0
10, 28800, Note_on_c, 8, 39, 58
10, 30624, Note_on_c, 8, 39, 0
10, 30720, Note_on_c, 8, 38, 58
10, 31488, Note_on_c, 8, 38, 0
10, 32160, Note_on_c, 8, 38, 58
10, 32340, Note_on_c, 8, 38, 0
10, 32400, Note_on_c, 8, 38, 105
10, 32580, Note_on_c, 8, 38, 0
10, 32640, Note_on_c, 8, 38, 105
10, 33408, Note_on_c, 8, 38, 0
10, 34080, Note_on_c, 8, 38, 105
10, 34260, Note_on_c, 8, 38, 0
10, 34320, Note_on_c, 8, 38, 105
10, 34500, Note_on_c, 8, 38, 0
10, 34560, Note_on_c, 8, 38, 105
10, 35328, Note_on_c, 8, 38, 0
10, 36000, Note_on_c, 8, 38, 105
10, 36180, Note_on_c, 8, 38, 0
10, 36240, Note_on_c, 8, 38, 105
10, 36420, Note_on_c, 8, 38, 0
10, 36480, Note_on_c, 8, 38, 105
10, 36840, Note_on_c, 8, 38, 0
10, 36960, Note_on_c, 8, 38, 105
10, 37140, Note_on_c, 8, 38, 0
10, 37200, Note_on_c, 8, 38, 105
10, 37380, Note_on_c, 8, 38, 0
10, 37440, Note_on_c, 8, 38, 105
10, 37800, Note_on_c, 8, 38, 0
10, 37920, Note_on_c, 8, 38, 105
10, 38100, Note_on_c, 8, 38, 0
10, 38160, Note_on_c, 8, 38, 105
10, 38340, Note_on_c, 8, 38, 0
10, 38400, Note_on_c, 8, 38, 105
10, 39168, Note_on_c, 8, 38, 0
10, 42240, Note_on_c, 8, 31, 58
10, 42624, Note_on_c, 8, 31, 0
10, 44160, Note_on_c, 8, 43, 58
10, 44544, Note_on_c, 8, 43, 0
10, 46080, Note_on_c, 8, 27, 58
10, 46464, Note_on_c, 8, 27, 0
10, 48000, Note_on_c, 8, 36, 58
10, 48384, Note_on_c, 8, 36, 0
10, 49920, Note_on_c, 8, 41, 58
10, 50304, Note_on_c, 8, 41, 0
10, 51840, Note_on_c, 8, 41, 58
10, 52224, Note_on_c, 8, 41, 0
10, 53760, Note_on_c, 8, 46, 58
10, 53952, Note_on_c, 8, 46, 0
10, 54000, Note_on_c, 8, 50, 105
10, 54192, Note_on_c, 8, 50, 0
10, 54240, Note_on_c, 8, 46, 105
10, 54432, Note_on_c, 8, 46, 0
10, 54480, Note_on_c, 8, 50, 105
10, 54672, Note_on_c, 8, 50, 0
10, 54720, Note_on_c, 8, 46, 105
10, 54912, Note_on_c, 8, 46, 0
10, 54960, Note_on_c, 8, 50, 105
10, 55152, Note_on_c, 8, 50, 0
10, 55200, Note_on_c, 8, 46, 105
10, 55392, Note_on_c, 8, 46, 0
10, 55440, Note_on_c, 8, 50, 105
10, 55632, Note_on_c, 8, 50, 0
10, 55680, Note_on_c, 8, 45, 105
10, 55872, Note_on_c, 8, 45, 0
10, 55920, Note_on_c, 8, 48, 105
10, 56112, Note_on_c, 8, 48, 0
10, 56160, Note_on_c, 8, 45, 105
10, 56352, Note_on_c, 8, 45, 0
10, 56400, Note_on_c, 8, 48, 105
10, 56592, Note_on_c, 8, 48, 0
10, 56640, Note_on_c, 8, 45, 105
10, 56832, Note_on_c, 8, 45, 0
10, 56880, Note_on_c, 8, 48, 105
10, 57072, Note_on_c, 8, 48, 0
10, 57120, Note_on_c, 8, 45, 105
10, 57312, Note_on_c, 8, 45, 0
10, 57360, Note_on_c, 8, 48, 105
10, 57552, Note_on_c, 8, 48, 0
10, 57600, Note_on_c, 8, 43, 105
10, 57792, Note_on_c, 8, 43, 0
10, 57840, Note_on_c, 8, 46, 105
10, 58032, Note_on_c, 8, 46, 0
10, 58080, Note_on_c, 8, 43, 105
10, 58272, Note_on_c, 8, 43, 0
10, 58320, Note_on_c, 8, 46, 105
10, 58512, Note_on_c, 8, 46, 0
10, 58560, Note_on_c, 8, 43, 105
10, 58752, Note_on_c, 8, 43, 0
10, 58800, Note_on_c, 8, 46, 105
10, 58992, Note_on_c, 8, 46, 0
10, 59040, Note_on_c, 8, 43, 105
10, 59232, Note_on_c, 8, 43, 0
10, 59280, Note_on_c, 8, 46, 105
10, 59472, Note_on_c, 8, 46, 0
10, 59520, Note_on_c, 8, 41, 105
10, 59712, Note_on_c, 8, 41, 0
10, 59760, Note_on_c, 8, 46, 105
10, 59952, Note_on_c, 8, 46, 0
10, 60000, Note_on_c, 8, 41, 105
10, 60192, Note_on_c, 8, 41, 0
10, 60240, Note_on_c, 8, 46, 105
10, 60432, Note_on_c, 8, 46, 0
10, 60480, Note_on_c, 8, 41, 105
10, 60672, Note_on_c, 8, 41, 0
10, 60720, Note_on_c, 8, 46, 105
10, 60912, Note_on_c, 8, 46, 0
10, 60960, Note_on_c, 8, 41, 105
10, 61152, Note_on_c, 8, 41, 0
10, 61200, Note_on_c, 8, 46, 105
10, 61392, Note_on_c, 8, 46, 0
10, 61440, Note_on_c, 8, 39, 105
10, 61632, Note_on_c, 8, 39, 0
10, 61680, Note_on_c, 8, 43, 105
10, 61872, Note_on_c, 8, 43, 0
10, 61920, Note_on_c, 8, 39, 105
10, 62112, Note_on_c, 8, 39, 0
10, 62160, Note_on_c, 8, 43, 105
10, 62352, Note_on_c, 8, 43, 0
10, 62400, Note_on_c, 8, 39, 105
10, 62592, Note_on_c, 8, 39, 0
10, 62640, Note_on_c, 8, 43, 105
10, 62832, Note_on_c, 8, 43, 0
10, 62880, Note_on_c, 8, 39, 105
10, 63072, Note_on_c, 8, 39, 0
10, 63120, Note_on_c, 8, 43, 105
10, 63312, Note_on_c, 8, 43, 0
10, 63360, Note_on_c, 8, 38, 105
10, 63552, Note_on_c, 8, 38, 0
10, 63600, Note_on_c, 8, 41, 105
10, 63792, Note_on_c, 8, 41, 0
10, 63840, Note_on_c, 8, 38, 105
10, 64032, Note_on_c, 8, 38, 0
10, 64080, Note_on_c, 8, 41, 105
10, 64272, Note_on_c, 8, 41, 0
10, 64320, Note_on_c, 8, 38, 105
10, 64512, Note_on_c, 8, 38, 0
10, 64560, Note_on_c, 8, 41, 105
10, 64752, Note_on_c, 8, 41, 0
10, 64800, Note_on_c, 8, 38, 105
10, 64992, Note_on_c, 8, 38, 0
10, 65040, Note_on_c, 8, 41, 105
10, 65232, Note_on_c, 8, 41, 0
10, 65280, Note_on_c, 8, 36, 112
10, 66816, Note_on_c, 8, 36, 0
10, 67200, Note_on_c, 8, 36, 112
10, 67968, Note_on_c, 8, 36, 0
10, 68160, Note_on_c, 8, 37, 112
10, 68928, Note_on_c, 8, 37, 0
10, 69120, Note_on_c, 8, 36, 112
10, 69888, Note_on_c, 8, 36, 0
10, 70080, Note_on_c, 8, 37, 112
10, 70848, Note_on_c, 8, 37, 0
10, 71040, Note_on_c, 8, 36, 112
10, 71808, Note_on_c, 8, 36, 0
10, 72720, Note_on_c, 8, 36, 92
10, 72912, Note_on_c, 8, 36, 0
10, 72960, Note_on_c, 8, 41, 105
10, 73140, Note_on_c, 8, 41, 0
10, 73200, Note_on_c, 8, 41, 105
10, 73380, Note_on_c, 8, 41, 0
10, 73440, Note_on_c, 8, 41, 105
10, 73620, Note_on_c, 8, 41, 0
10, 73680, Note_on_c, 8, 41, 105
10, 73860, Note_on_c, 8, 41, 0
10, 73920, Note_on_c, 8, 41, 105
10, 74100, Note_on_c, 8, 41, 0
10, 74160, Note_on_c, 8, 41, 105
10, 74340, Note_on_c, 8, 41, 0
10, 74400, Note_on_c, 8, 41, 105
10, 74580, Note_on_c, 8, 41, 0
10, 74640, Note_on_c, 8, 41, 105
10, 74820, Note_on_c, 8, 41, 0
10, 74880, Note_on_c, 8, 41, 105
10, 75060, Note_on_c, 8, 41, 0
10, 75120, Note_on_c, 8, 41, 105
10, 75300, Note_on_c, 8, 41, 0
10, 75360, Note_on_c, 8, 41, 105
10, 75540, Note_on_c, 8, 41, 0
10, 75600, Note_on_c, 8, 41, 105
10, 75780, Note_on_c, 8, 41, 0
10, 75840, Note_on_c, 8, 41, 105
10, 76020, Note_on_c, 8, 41, 0
10, 76080, Note_on_c, 8, 41, 105
10, 76260, Note_on_c, 8, 41, 0
10, 76320, Note_on_c, 8, 41, 105
10, 76500, Note_on_c, 8, 41, 0
10, 76560, Note_on_c, 8, 41, 105
10, 76740, Note_on_c, 8, 41, 0
10, 76800, Note_on_c, 8, 41, 105
10, 76980, Note_on_c, 8, 41, 0
10, 77040, Note_on_c, 8, 41, 105
10, 77220, Note_on_c, 8, 41, 0
10, 77280, Note_on_c, 8, 41, 105
10, 77460, Note_on_c, 8, 41, 0
10, 77520, Note_on_c, 8, 41, 105
10, 77700, Note_on_c, 8, 41, 0
10, 77760, Note_on_c, 8, 41, 105
10, 77940, Note_on_c, 8, 41, 0
10, 78000, Note_on_c, 8, 41, 105
10, 78180, Note_on_c, 8, 41, 0
10, 78240, Note_on_c, 8, 41, 105
10, 78420, Note_on_c, 8, 41, 0
10, 78480, Note_on_c, 8, 41, 105
10, 78660, Note_on_c, 8, 41, 0
10, 78720, Note_on_c, 8, 41, 105
10, 78900, Note_on_c, 8, 41, 0
10, 78960, Note_on_c, 8, 41, 105
10, 79140, Note_on_c, 8, 41, 0
10, 79200, Note_on_c, 8, 41, 105
10, 79380, Note_on_c, 8, 41, 0
10, 79440, Note_on_c, 8, 41, 105
10, 79620, Note_on_c, 8, 41, 0
10, 79680, Note_on_c, 8, 41, 105
10, 79860, Note_on_c, 8, 41, 0
10, 79920, Note_on_c, 8, 41, 105
10, 80100, Note_on_c, 8, 41, 0
10, 80160, Note_on_c, 8, 41, 105
10, 80340, Note_on_c, 8, 41, 0
10, 80400, Note_on_c, 8, 41, 105
10, 80580, Note_on_c, 8, 41, 0
10, 80640, Note_on_c, 8, 41, 105
10, 81024, Note_on_c, 8, 41, 0
10, 81600, Note_on_c, 8, 29, 92
10, 81984, Note_on_c, 8, 29, 0
10, 84480, Note_on_c, 8, 50, 58
10, 85920, Note_on_c, 8, 50, 0
10, 85920, Note_on_c, 8, 48, 58
10, 86400, Note_on_c, 8, 48, 0
10, 86400, Note_on_c, 8, 41, 58
10, 86784, Note_on_c, 8, 41, 0
10, 88800, Note_on_c, 8, 43, 58
10, 89112, Note_on_c, 8, 43, 0
10, 89280, Note_on_c, 8, 43, 58
10, 89760, Note_on_c, 8, 43, 0
10, 89760, Note_on_c, 8, 39, 58
10, 90144, Note_on_c, 8, 39, 0
10, 90240, Note_on_c, 8, 41, 58
10, 91008, Note_on_c, 8, 41, 0
10, 92160, Note_on_c, 8, 39, 58
10, 93600, Note_on_c, 8, 39, 0
10, 93600, Note_on_c, 8, 38, 58
10, 94080, Note_on_c, 8, 38, 0
10, 94080, Note_on_c, 8, 43, 58
10, 94560, Note_on_c, 8, 43, 0
10, 94560, Note_on_c, 8, 36, 58
10, 95040, Note_on_c, 8, 36, 0
10, 95040, Note_on_c, 8, 41, 58
10, 95520, Note_on_c, 8, 41, 0
10, 95520, Note_on_c, 8, 34, 58
10, 95904, Note_on_c, 8, 34, 0
10, 96000, Note_on_c, 8, 39, 58
10, 96384, Note_on_c, 8, 39, 0
10, 96960, Note_on_c, 8, 41, 58
10, 97344, Note_on_c, 8, 41, 0
10, 97920, Note_on_c, 8, 34, 58
10, 98304, Note_on_c, 8, 34, 0
10, 107520, Note_on_c, 8, 51, 58
10, 108960, Note_on_c, 8, 51, 0
10, 108960, Note_on_c, 8, 50, 70
10, 109440, Note_on_c, 8, 50, 0
10, 109440, Note_on_c, 8, 43, 70
10, 109920, Note_on_c, 8, 43, 0
10, 109920, Note_on_c, 8, 48, 70
10, 110400, Note_on_c, 8, 48, 0
10, 110400, Note_on_c, 8, 41, 70
10, 110880, Note_on_c, 8, 41, 0
10, 110880, Note_on_c, 8, 46, 70
10, 111264, Note_on_c, 8, 46, 0
10, 111360, Note_on_c, 8, 39, 58
10, 118656, Note_on_c, 8, 39, 0
10, 119040, Note_on_c, 8, 39, 58
10, 119256, Note_on_c, 8, 39, 0
10, 119280, Note_on_c, 8, 39, 72
10, 119496, Note_on_c, 8, 39, 0
10, 119520, Note_on_c, 8, 39, 75
10, 119736, Note_on_c, 8, 39, 0
10, 119760, Note_on_c, 8, 39, 77
10, 119976, Note_on_c, 8, 39, 0
10, 120000, Note_on_c, 8, 39, 80
10, 120216, Note_on_c, 8, 39, 0
10, 120240, Note_on_c, 8, 39, 82
10, 120456, Note_on_c, 8, 39, 0
10, 120480, Note_on_c, 8, 39, 85
10, 120696, Note_on_c, 8, 39, 0
10, 120720, Note_on_c, 8, 39, 88
10, 120936, Note_on_c, 8, 39, 0
10, 120960, Note_on_c, 8, 40, 90
10, 121176, Note_on_c, 8, 40, 0
10, 121200, Note_on_c, 8, 40, 93
10, 121416, Note_on_c, 8, 40, 0
10, 121440, Note_on_c, 8, 40, 95
10, 121656, Note_on_c, 8, 40, 0
10, 121680, Note_on_c, 8, 40, 98
10, 121896, Note_on_c, 8, 40, 0
10, 121920, Note_on_c, 8, 40, 100
10, 122136, Note_on_c, 8, 40, 0
10, 122160, Note_on_c, 8, 40, 103
10, 122376, Note_on_c, 8, 40, 0
10, 122400, Note_on_c, 8, 40, 106
10, 122616, Note_on_c, 8, 40, 0
10, 122640, Note_on_c, 8, 40, 108
10, 122856, Note_on_c, 8, 40, 0
10, 122880, Note_on_c, 8, 41, 109
10, 123072, Note_on_c, 8, 41, 0
10, 123120, Note_on_c, 8, 41, 105
10, 123312, Note_on_c, 8, 41, 0
10, 123360, Note_on_c, 8, 41, 105
10, 123552, Note_on_c, 8, 41, 0
10, 123600, Note_on_c, 8, 41, 105
10, 123792, Note_on_c, 8, 41, 0
10, 123840, Note_on_c, 8, 41, 105
10, 124032, Note_on_c, 8, 41, 0
10, 124080, Note_on_c, 8, 41, 105
10, 124272, Note_on_c, 8, 41, 0
10, 124320, Note_on_c, 8, 41, 105
10, 124512, Note_on_c, 8, 41, 0
10, 124560, Note_on_c, 8, 41, 105
10, 124752, Note_on_c, 8, 41, 0
10, 124800, Note_on_c, 8, 29, 105
10, 124992, Note_on_c, 8, 29, 0
10, 125040, Note_on_c, 8, 29, 105
10, 125232, Note_on_c, 8, 29, 0
10, 125280, Note_on_c, 8, 29, 105
10, 125472, Note_on_c, 8, 29, 0
10, 125520, Note_on_c, 8, 29, 105
10, 125712, Note_on_c, 8, 29, 0
10, 125760, Note_on_c, 8, 29, 105
10, 125952, Note_on_c, 8, 29, 0
10, 126000, Note_on_c, 8, 29, 105
10, 126192, Note_on_c, 8, 29, 0
10, 126240, Note_on_c, 8, 29, 105
10, 126432, Note_on_c, 8, 29, 0
10, 126480, Note_on_c, 8, 29, 105
10, 126672, Note_on_c, 8, 29, 0
10, 126720, Note_on_c, 8, 34, 105
10, 127104, Note_on_c, 8, 34, 0
10, 127200, Note_on_c, 8, 38, 112
10, 127968, Note_on_c, 8, 38, 0
10, 128160, Note_on_c, 8, 39, 105
10, 128448, Note_on_c, 8, 39, 0
10, 128640, Note_on_c, 8, 40, 105
10, 128928, Note_on_c, 8, 40, 0
10, 129120, Note_on_c, 8, 41, 105
10, 129408, Note_on_c, 8, 41, 0
10, 129600, Note_on_c, 8, 42, 105
10, 129888, Note_on_c, 8, 42, 0
10, 130080, Note_on_c, 8, 43, 105
10, 130368, Note_on_c, 8, 43, 0
10, 130560, Note_on_c, 8, 44, 105
10, 130944, Note_on_c, 8, 44, 0
10, 131400, Note_on_c, 8, 44, 105
10, 131496, Note_on_c, 8, 44, 0
10, 131520, Note_on_c, 8, 43, 105
10, 131904, Note_on_c, 8, 43, 0
10, 132360, Note_on_c, 8, 43, 105
10, 132456, Note_on_c, 8, 43, 0
10, 132480, Note_on_c, 8, 51, 105
10, 132864, Note_on_c, 8, 51, 0
10, 133320, Note_on_c, 8, 51, 105
10, 133416, Note_on_c, 8, 51, 0
10, 133440, Note_on_c, 8, 50, 105
10, 133824, Note_on_c, 8, 50, 0
10, 134280, Note_on_c, 8, 50, 105
10, 134376, Note_on_c, 8, 50, 0
10, 134400, Note_on_c, 8, 39, 105
10, 134784, Note_on_c, 8, 39, 0
10, 136320, Note_on_c, 8, 41, 58
10, 136704, Note_on_c, 8, 41, 0
10, 141120, Note_on_c, 8, 39, 58
10, 143040, Note_on_c, 8, 39, 0
10, 143040, Note_on_c, 8, 38, 58
10, 143424, Note_on_c, 8, 38, 0
10, 144960, Note_on_c, 8, 39, 58
10, 146880, Note_on_c, 8, 39, 0
10, 146880, Note_on_c, 8, 38, 58
10, 147264, Note_on_c, 8, 38, 0
10, 147840, Note_on_c, 8, 38, 105
10, 148032, Note_on_c, 8, 38, 0
10, 148080, Note_on_c, 8, 38, 105
10, 148272, Note_on_c, 8, 38, 0
10, 148320, Note_on_c, 8, 38, 105
10, 148512, Note_on_c, 8, 38, 0
10, 148560, Note_on_c, 8, 38, 105
10, 148752, Note_on_c, 8, 38, 0
10, 148800, Note_on_c, 8, 38, 105
10, 148992, Note_on_c, 8, 38, 0
10, 149040, Note_on_c, 8, 38, 105
10, 149232, Note_on_c, 8, 38, 0
10, 149280, Note_on_c, 8, 38, 105
10, 149472, Note_on_c, 8, 38, 0
10, 149520, Note_on_c, 8, 38, 105
10, 149712, Note_on_c, 8, 38, 0
10, 149760, Note_on_c, 8, 43, 105
10, 149952, Note_on_c, 8, 43, 0
10, 150000, Note_on_c, 8, 43, 105
10, 150192, Note_on_c, 8, 43, 0
10, 150240, Note_on_c, 8, 43, 105
10, 150432, Note_on_c, 8, 43, 0
10, 150480, Note_on_c, 8, 43, 105
10, 150672, Note_on_c, 8, 43, 0
10, 150720, Note_on_c, 8, 39, 105
10, 150912, Note_on_c, 8, 39, 0
10, 150960, Note_on_c, 8, 39, 105
10, 151152, Note_on_c, 8, 39, 0
10, 151200, Note_on_c, 8, 39, 105
10, 151392, Note_on_c, 8, 39, 0
10, 151440, Note_on_c, 8, 39, 105
10, 151632, Note_on_c, 8, 39, 0
10, 151680, Note_on_c, 8, 41, 105
10, 151872, Note_on_c, 8, 41, 0
10, 151920, Note_on_c, 8, 41, 105
10, 152112, Note_on_c, 8, 41, 0
10, 152160, Note_on_c, 8, 41, 105
10, 152352, Note_on_c, 8, 41, 0
10, 152400, Note_on_c, 8, 41, 105
10, 152592, Note_on_c, 8, 41, 0
10, 152640, Note_on_c, 8, 29, 105
10, 152832, Note_on_c, 8, 29, 0
10, 152880, Note_on_c, 8, 29, 105
10, 153072, Note_on_c, 8, 29, 0
10, 153120, Note_on_c, 8, 29, 105
10, 153312, Note_on_c, 8, 29, 0
10, 153360, Note_on_c, 8, 29, 105
10, 153552, Note_on_c, 8, 29, 0
10, 153600, Note_on_c, 8, 34, 105
10, 153984, Note_on_c, 8, 34, 0
10, 154560, Note_on_c, 8, 46, 58
10, 156480, Note_on_c, 8, 46, 0
10, 156480, Note_on_c, 8, 45, 58
10, 156864, Note_on_c, 8, 45, 0
10, 158400, Note_on_c, 8, 34, 58
10, 160320, Note_on_c, 8, 34, 0
10, 160320, Note_on_c, 8, 33, 58
10, 160704, Note_on_c, 8, 33, 0
10, 163200, Note_on_c, 8, 38, 105
10, 163392, Note_on_c, 8, 38, 0
10, 163440, Note_on_c, 8, 38, 105
10, 163632, Note_on_c, 8, 38, 0
10, 163680, Note_on_c, 8, 38, 105
10, 163872, Note_on_c, 8, 38, 0
10, 163920, Note_on_c, 8, 38, 105
10, 164112, Note_on_c, 8, 38, 0
10, 164160, Note_on_c, 8, 38, 105
10, 164352, Note_on_c, 8, 38, 0
10, 164400, Note_on_c, 8, 38, 105
10, 164592, Note_on_c, 8, 38, 0
10, 164640, Note_on_c, 8, 38, 105
10, 164832, Note_on_c, 8, 38, 0
10, 164880, Note_on_c, 8, 38, 105
10, 165072, Note_on_c, 8, 38, 0
10, 165120, Note_on_c, 8, 43, 105
10, 165312, Note_on_c, 8, 43, 0
10, 165360, Note_on_c, 8, 43, 105
10, 165552, Note_on_c, 8, 43, 0
10, 165600, Note_on_c, 8, 43, 105
10, 165792, Note_on_c, 8, 43, 0
10, 165840, Note_on_c, 8, 43, 105
10, 166032, Note_on_c, 8, 43, 0
10, 166080, Note_on_c, 8, 39, 105
10, 166272, Note_on_c, 8, 39, 0
10, 166320, Note_on_c, 8, 39, 105
10, 166512, Note_on_c, 8, 39, 0
10, 166560, Note_on_c, 8, 39, 105
10, 166752, Note_on_c, 8, 39, 0
10, 166800, Note_on_c, 8, 39, 105
10, 166992, Note_on_c, 8, 39, 0
10, 167040, Note_on_c, 8, 41, 105
10, 167232, Note_on_c, 8, 41, 0
10, 167280, Note_on_c, 8, 41, 105
10, 167472, Note_on_c, 8, 41, 0
10, 167520, Note_on_c, 8, 41, 105
10, 167712, Note_on_c, 8, 41, 0
10, 167760, Note_on_c, 8, 41, 105
10, 167952, Note_on_c, 8, 41, 0
10, 168000, Note_on_c, 8, 29, 105
10, 168192, Note_on_c, 8, 29, 0
10, 168240, Note_on_c, 8, 29, 105
10, 168432, Note_on_c, 8, 29, 0
10, 168480, Note_on_c, 8, 29, 105
10, 168672, Note_on_c, 8, 29, 0
10, 168720, Note_on_c, 8, 29, 105
10, 168912, Note_on_c, 8, 29, 0
10, 168960, Note_on_c, 8, 34, 105
10, 169728, Note_on_c, 8, 34, 0
10, 170640, Note_on_c, 8, 53, 105
10, 170832, Note_on_c, 8, 53, 0
10, 170880, Note_on_c, 8, 51, 105
10, 171072, Note_on_c, 8, 51, 0
10, 171120, Note_on_c, 8, 50, 105
10, 171312, Note_on_c, 8, 50, 0
10, 171360, Note_on_c, 8, 48, 105
10, 171552, Note_on_c, 8, 48, 0
10, 171600, Note_on_c, 8, 46, 105
10, 171792, Note_on_c, 8, 46, 0
10, 171840, Note_on_c, 8, 45, 105
10, 172032, Note_on_c, 8, 45, 0
10, 172080, Note_on_c, 8, 43, 105
10, 172272, Note_on_c, 8, 43, 0
10, 172320, Note_on_c, 8, 41, 105
10, 172512, Note_on_c, 8, 41, 0
10, 172560, Note_on_c, 8, 39, 105
10, 172752, Note_on_c, 8, 39, 0
10, 172800, Note_on_c, 8, 38, 105
10, 173136, Note_on_c, 8, 38, 0
10, 173280, Note_on_c, 8, 38, 105
10, 173616, Note_on_c, 8, 38, 0
10, 173760, Note_on_c, 8, 39, 105
10, 174096, Note_on_c, 8, 39, 0
10, 174240, Note_on_c, 8, 41, 105
10, 174576, Note_on_c, 8, 41, 0
10, 174720, Note_on_c, 8, 46, 105
10, 174912, Note_on_c, 8, 46, 0
10, 174960, Note_on_c, 8, 41, 105
10, 175152, Note_on_c, 8, 41, 0
10, 175200, Note_on_c, 8, 50, 105
10, 175392, Note_on_c, 8, 50, 0
10, 175440, Note_on_c, 8, 48, 105
10, 175632, Note_on_c, 8, 48, 0
10, 175680, Note_on_c, 8, 46, 105
10, 175872, Note_on_c, 8, 46, 0
10, 175920, Note_on_c, 8, 45, 105
10, 176112, Note_on_c, 8, 45, 0
10, 176160, Note_on_c, 8, 43, 105
10, 176352, Note_on_c, 8, 43, 0
10, 176400, Note_on_c, 8, 41, 105
10, 176592, Note_on_c, 8, 41, 0
10, 176640, Note_on_c, 8, 39, 105
10, 176832, Note_on_c, 8, 39, 0
10, 176880, Note_on_c, 8, 38, 105
10, 177072, Note_on_c, 8, 38, 0
10, 177120, Note_on_c, 8, 36, 105
10, 177312, Note_on_c, 8, 36, 0
10, 177360, Note_on_c, 8, 34, 105
10, 177552, Note_on_c, 8, 34, 0
10, 177600, Note_on_c, 8, 33, 105
10, 177792, Note_on_c, 8, 33, 0
10, 177840, Note_on_c, 8, 36, 105
10, 178032, Note_on_c, 8, 36, 0
10, 178080, Note_on_c, 8, 41, 105
10, 178272, Note_on_c, 8, 41, 0
10, 178320, Note_on_c, 8, 39, 105
10, 178512, Note_on_c, 8, 39, 0
10, 178560, Note_on_c, 8, 38, 105
10, 178896, Note_on_c, 8, 38, 0
10, 179040, Note_on_c, 8, 38, 105
10, 179376, Note_on_c, 8, 38, 0
10, 179520, Note_on_c, 8, 39, 105
10, 179856, Note_on_c, 8, 39, 0
10, 180000, Note_on_c, 8, 41, 105
10, 180336, Note_on_c, 8, 41, 0
10, 180480, Note_on_c, 8, 43, 105
10, 180816, Note_on_c, 8, 43, 0
10, 180960, Note_on_c, 8, 39, 105
10, 181296, Note_on_c, 8, 39, 0
10, 181440, Note_on_c, 8, 41, 105
10, 181776, Note_on_c, 8, 41, 0
10, 181920, Note_on_c, 8, 29, 105
10, 182256, Note_on_c, 8, 29, 0
10, 182400, Note_on_c, 8, 34, 105
10, 182784, Note_on_c, 8, 34, 0
10, 183360, Note_on_c, 8, 41, 105
10, 183744, Note_on_c, 8, 41, 0
10, 184320, Note_on_c, 8, 46, 105
10, 184704, Note_on_c, 8, 46, 0
10, 185280, Note_on_c, 8, 41, 105
10, 185664, Note_on_c, 8, 41, 0
10, 186240, Note_on_c, 8, 46, 105
10, 186624, Note_on_c, 8, 46, 0
10, 187200, Note_on_c, 8, 41, 105
10, 187584, Note_on_c, 8, 41, 0
10, 188160, Note_on_c, 8, 46, 105
10, 188520, Note_on_c, 8, 46, 0
10, 188640, Note_on_c, 8, 41, 105
10, 189000, Note_on_c, 8, 41, 0
10, 189120, Note_on_c, 8, 46, 105
10, 189480, Note_on_c, 8, 46, 0
10, 189600, Note_on_c, 8, 41, 105
10, 189960, Note_on_c, 8, 41, 0
10, 190080, Note_on_c, 8, 46, 105
10, 190464, Note_on_c, 8, 46, 0
10, 192000, Note_on_c, 8, 45, 105
10, 192384, Note_on_c, 8, 45, 0
10, 193920, Note_on_c, 8, 31, 58
10, 194304, Note_on_c, 8, 31, 0
10, 195840, Note_on_c, 8, 43, 58
10, 196224, Note_on_c, 8, 43, 0
10, 197760, Note_on_c, 8, 31, 58
10, 198144, Note_on_c, 8, 31, 0
10, 199680, Note_on_c, 8, 43, 58
10, 200064, Note_on_c, 8, 43, 0
10, 201600, Note_on_c, 8, 31, 58
10, 201984, Note_on_c, 8, 31, 0
10, 203520, Note_on_c, 8, 43, 58
10, 203904, Note_on_c, 8, 43, 0
10, 205440, Note_on_c, 8, 30, 58
10, 205824, Note_on_c, 8, 30, 0
10, 207360, Note_on_c, 8, 38, 58
10, 207744, Note_on_c, 8, 38, 0
10, 209280, Note_on_c, 8, 31, 58
10, 209664, Note_on_c, 8, 31, 0
10, 211200, Note_on_c, 8, 36, 58
10, 213120, Note_on_c, 8, 36, 0
10, 213120, Note_on_c, 8, 34, 58
10, 215040, Note_on_c, 8, 34, 0
10, 215040, Note_on_c, 8, 36, 58
10, 216960, Note_on_c, 8, 36, 0
10, 216960, Note_on_c, 8, 34, 58
10, 218784, Note_on_c, 8, 34, 0
10, 218880, Note_on_c, 8, 40, 58
10, 220800, Note_on_c, 8, 40, 0
10, 220800, Note_on_c, 8, 39, 58
10, 222624, Note_on_c, 8, 39, 0
10, 222720, Note_on_c, 8, 38, 58
10, 223488, Note_on_c, 8, 38, 0
10, 224160, Note_on_c, 8, 38, 58
10, 224340, Note_on_c, 8, 38, 0
10, 224400, Note_on_c, 8, 38, 105
10, 224580, Note_on_c, 8, 38, 0
10, 224640, Note_on_c, 8, 38, 105
10, 225408, Note_on_c, 8, 38, 0
10, 226080, Note_on_c, 8, 38, 105
10, 226260, Note_on_c, 8, 38, 0
10, 226320, Note_on_c, 8, 38, 105
10, 226500, Note_on_c, 8, 38, 0
10, 226560, Note_on_c, 8, 38, 105
10, 227328, Note_on_c, 8, 38, 0
10, 228000, Note_on_c, 8, 38, 105
10, 228180, Note_on_c, 8, 38, 0
10, 228240, Note_on_c, 8, 38, 105
10, 228420, Note_on_c, 8, 38, 0
10, 228480, Note_on_c, 8, 38, 105
10, 228840, Note_on_c, 8, 38, 0
10, 228960, Note_on_c, 8, 38, 105
10, 229140, Note_on_c, 8, 38, 0
10, 229200, Note_on_c, 8, 38, 105
10, 229380, Note_on_c, 8, 38, 0
10, 229440, Note_on_c, 8, 38, 105
10, 229800, Note_on_c, 8, 38, 0
10, 229920, Note_on_c, 8, 38, 105
10, 230100, Note_on_c, 8, 38, 0
10, 230160, Note_on_c, 8, 38, 105
10, 230340, Note_on_c, 8, 38, 0
10, 230400, Note_on_c, 8, 38, 105
10, 231168, Note_on_c, 8, 38, 0
10, 234240, Note_on_c, 8, 31, 58
10, 234624, Note_on_c, 8, 31, 0
10, 236160, Note_on_c, 8, 43, 58
10, 236544, Note_on_c, 8, 43, 0
10, 238080, Note_on_c, 8, 27, 58
10, 238464, Note_on_c, 8, 27, 0
10, 240000, Note_on_c, 8, 36, 58
10, 240384, Note_on_c, 8, 36, 0
10, 241920, Note_on_c, 8, 41, 58
10, 242304, Note_on_c, 8, 41, 0
10, 243840, Note_on_c, 8, 41, 58
10, 244224, Note_on_c, 8, 41, 0
10, 245760, Note_on_c, 8, 46, 58
10, 245952, Note_on_c, 8, 46, 0
10, 246000, Note_on_c, 8, 50, 105
10, 246192, Note_on_c, 8, 50, 0
10, 246240, Note_on_c, 8, 46, 105
10, 246432, Note_on_c, 8, 46, 0
10, 246480, Note_on_c, 8, 50, 105
10, 246672, Note_on_c, 8, 50, 0
10, 246720, Note_on_c, 8, 46, 105
10, 246912, Note_on_c, 8, 46, 0
10, 246960, Note_on_c, 8, 50, 105
10, 247152, Note_on_c, 8, 50, 0
10, 247200, Note_on_c, 8, 46, 105
10, 247392, Note_on_c, 8, 46, 0
10, 247440, Note_on_c, 8, 50, 105
10, 247632, Note_on_c, 8, 50, 0
10, 247680, Note_on_c, 8, 45, 105
10, 247872, Note_on_c, 8, 45, 0
10, 247920, Note_on_c, 8, 48, 105
10, 248112, Note_on_c, 8, 48, 0
10, 248160, Note_on_c, 8, 45, 105
10, 248352, Note_on_c, 8, 45, 0
10, 248400, Note_on_c, 8, 48, 105
10, 248592, Note_on_c, 8, 48, 0
10, 248640, Note_on_c, 8, 45, 105
10, 248832, Note_on_c, 8, 45, 0
10, 248880, Note_on_c, 8, 48, 105
10, 249072, Note_on_c, 8, 48, 0
10, 249120, Note_on_c, 8, 45, 105
10, 249312, Note_on_c, 8, 45, 0
10, 249360, Note_on_c, 8, 48, 105
10, 249552, Note_on_c, 8, 48, 0
10, 249600, Note_on_c, 8, 43, 105
10, 249792, Note_on_c, 8, 43, 0
10, 249840, Note_on_c, 8, 46, 105
10, 250032, Note_on_c, 8, 46, 0
10, 250080, Note_on_c, 8, 43, 105
10, 250272, Note_on_c, 8, 43, 0
10, 250320, Note_on_c, 8, 46, 105
10, 250512, Note_on_c, 8, 46, 0
10, 250560, Note_on_c, 8, 43, 105
10, 250752, Note_on_c, 8, 43, 0
10, 250800, Note_on_c, 8, 46, 105
10, 250992, Note_on_c, 8, 46, 0
10, 251040, Note_on_c, 8, 43, 105
10, 251232, Note_on_c, 8, 43, 0
10, 251280, Note_on_c, 8, 46, 105
10, 251472, Note_on_c, 8, 46, 0
10, 251520, Note_on_c, 8, 41, 105
10, 251712, Note_on_c, 8, 41, 0
10, 251760, Note_on_c, 8, 46, 105
10, 251952, Note_on_c, 8, 46, 0
10, 252000, Note_on_c, 8, 41, 105
10, 252192, Note_on_c, 8, 41, 0
10, 252240, Note_on_c, 8, 46, 105
10, 252432, Note_on_c, 8, 46, 0
10, 252480, Note_on_c, 8, 41, 105
10, 252672, Note_on_c, 8, 41, 0
10, 252720, Note_on_c, 8, 46, 105
10, 252912, Note_on_c, 8, 46, 0
10, 252960, Note_on_c, 8, 41, 105
10, 253152, Note_on_c, 8, 41, 0
10, 253200, Note_on_c, 8, 46, 105
10, 253392, Note_on_c, 8, 46, 0
10, 253440, Note_on_c, 8, 39, 105
10, 253632, Note_on_c, 8, 39, 0
10, 253680, Note_on_c, 8, 43, 105
10, 253872, Note_on_c, 8, 43, 0
10, 253920, Note_on_c, 8, 39, 105
10, 254112, Note_on_c, 8, 39, 0
10, 254160, Note_on_c, 8, 43, 105
10, 254352, Note_on_c, 8, 43, 0
10, 254400, Note_on_c, 8, 39, 105
10, 254592, Note_on_c, 8, 39, 0
10, 254640, Note_on_c, 8, 43, 105
10, 254832, Note_on_c, 8, 43, 0
10, 254880, Note_on_c, 8, 39, 105
10, 255072, Note_on_c, 8, 39, 0
10, 255120, Note_on_c, 8, 43, 105
10, 255312, Note_on_c, 8, 43, 0
10, 255360, Note_on_c, 8, 38, 105
10, 255552, Note_on_c, 8, 38, 0
10, 255600, Note_on_c, 8, 41, 105
10, 255792, Note_on_c, 8, 41, 0
10, 255840, Note_on_c, 8, 38, 105
10, 256032, Note_on_c, 8, 38, 0
10, 256080, Note_on_c, 8, 41, 105
10, 256272, Note_on_c, 8, 41, 0
10, 256320, Note_on_c, 8, 38, 105
10, 256512, Note_on_c, 8, 38, 0
10, 256560, Note_on_c, 8, 41, 105
10, 256752, Note_on_c, 8, 41, 0
10, 256800, Note_on_c, 8, 38, 105
10, 256992, Note_on_c, 8, 38, 0
10, 257040, Note_on_c, 8, 41, 105
10, 257232, Note_on_c, 8, 41, 0
10, 257280, Note_on_c, 8, 36, 112
10, 258816, Note_on_c, 8, 36, 0
10, 259200, Note_on_c, 8, 36, 112
10, 259968, Note_on_c, 8, 36, 0
10, 260160, Note_on_c, 8, 37, 112
10, 260928, Note_on_c, 8, 37, 0
10, 261120, Note_on_c, 8, 36, 112
10, 261888, Note_on_c, 8, 36, 0
10, 262080, Note_on_c, 8, 37, 112
10, 262848, Note_on_c, 8, 37, 0
10, 263040, Note_on_c, 8, 36, 112
10, 263808, Note_on_c, 8, 36, 0
10, 264720, Note_on_c, 8, 36, 92
10, 264912, Note_on_c, 8, 36, 0
10, 264960, Note_on_c, 8, 41, 105
10, 265140, Note_on_c, 8, 41, 0
10, 265200, Note_on_c, 8, 41, 105
10, 265380, Note_on_c, 8, 41, 0
10, 265440, Note_on_c, 8, 41, 105
10, 265620, Note_on_c, 8, 41, 0
10, 265680, Note_on_c, 8, 41, 105
10, 265860, Note_on_c, 8, 41, 0
10, 265920, Note_on_c, 8, 41, 105
10, 266100, Note_on_c, 8, 41, 0
10, 266160, Note_on_c, 8, 41, 105
10, 266340, Note_on_c, 8, 41, 0
10, 266400, Note_on_c, 8, 41, 105
10, 266580, Note_on_c, 8, 41, 0
10, 266640, Note_on_c, 8, 41, 105
10, 266820, Note_on_c, 8, 41, 0
10, 266880, Note_on_c, 8, 41, 105
10, 267060, Note_on_c, 8, 41, 0
10, 267120, Note_on_c, 8, 41, 105
10, 267300, Note_on_c, 8, 41, 0
10, 267360, Note_on_c, 8, 41, 105
10, 267540, Note_on_c, 8, 41, 0
10, 267600, Note_on_c, 8, 41, 105
10, 267780, Note_on_c, 8, 41, 0
10, 267840, Note_on_c, 8, 41, 105
10, 268020, Note_on_c, 8, 41, 0
10, 268080, Note_on_c, 8, 41, 105
10, 268260, Note_on_c, 8, 41, 0
10, 268320, Note_on_c, 8, 41, 105
10, 268500, Note_on_c, 8, 41, 0
10, 268560, Note_on_c, 8, 41, 105
10, 268740, Note_on_c, 8, 41, 0
10, 268800, Note_on_c, 8, 41, 105
10, 268980, Note_on_c, 8, 41, 0
10, 269040, Note_on_c, 8, 41, 105
10, 269220, Note_on_c, 8, 41, 0
10, 269280, Note_on_c, 8, 41, 105
10, 269460, Note_on_c, 8, 41, 0
10, 269520, Note_on_c, 8, 41, 105
10, 269700, Note_on_c, 8, 41, 0
10, 269760, Note_on_c, 8, 41, 105
10, 269940, Note_on_c, 8, 41, 0
10, 270000, Note_on_c, 8, 41, 105
10, 270180, Note_on_c, 8, 41, 0
10, 270240, Note_on_c, 8, 41, 105
10, 270420, Note_on_c, 8, 41, 0
10, 270480, Note_on_c, 8, 41, 105
10, 270660, Note_on_c, 8, 41, 0
10, 270720, Note_on_c, 8, 41, 105
10, 270900, Note_on_c, 8, 41, 0
10, 270960, Note_on_c, 8, 41, 105
10, 271140, Note_on_c, 8, 41, 0
10, 271200, Note_on_c, 8, 41, 105
10, 271380, Note_on_c, 8, 41, 0
10, 271440, Note_on_c, 8, 41, 105
10, 271620, Note_on_c, 8, 41, 0
10, 271680, Note_on_c, 8, 41, 105
10, 271860, Note_on_c, 8, 41, 0
10, 271920, Note_on_c, 8, 41, 105
10, 272100, Note_on_c, 8, 41, 0
10, 272160, Note_on_c, 8, 41, 105
10, 272340, Note_on_c, 8, 41, 0
10, 272400, Note_on_c, 8, 41, 105
10, 272580, Note_on_c, 8, 41, 0
10, 272640, Note_on_c, 8, 41, 105
10, 273024, Note_on_c, 8, 41, 0
10, 273600, Note_on_c, 8, 29, 92
10, 273984, Note_on_c, 8, 29, 0
10, 276480, Note_on_c, 8, 50, 58
10, 277920, Note_on_c, 8, 50, 0
10, 277920, Note_on_c, 8, 48, 58
10, 278400, Note_on_c, 8, 48, 0
10, 278400, Note_on_c, 8, 41, 58
10, 278784, Note_on_c, 8, 41, 0
10, 280800, Note_on_c, 8, 43, 58
10, 281112, Note_on_c, 8, 43, 0
10, 281280, Note_on_c, 8, 43, 58
10, 281760, Note_on_c, 8, 43, 0
10, 281760, Note_on_c, 8, 39, 58
10, 282144, Note_on_c, 8, 39, 0
10, 282240, Note_on_c, 8, 41, 58
10, 283008, Note_on_c, 8, 41, 0
10, 284160, Note_on_c, 8, 39, 58
10, 285600, Note_on_c, 8, 39, 0
10, 285600, Note_on_c, 8, 38, 58
10, 286080, Note_on_c, 8, 38, 0
10, 286080, Note_on_c, 8, 43, 58
10, 286560, Note_on_c, 8, 43, 0
10, 286560, Note_on_c, 8, 36, 58
10, 287040, Note_on_c, 8, 36, 0
10, 287040, Note_on_c, 8, 41, 58
10, 287520, Note_on_c, 8, 41, 0
10, 287520, Note_on_c, 8, 34, 58
10, 287904, Note_on_c, 8, 34, 0
10, 288000, Note_on_c, 8, 39, 58
10, 288384, Note_on_c, 8, 39, 0
10, 288960, Note_on_c, 8, 41, 58
10, 289344, Note_on_c, 8, 41, 0
10, 289920, Note_on_c, 8, 34, 58
10, 290304, Note_on_c, 8, 34, 0
10, 299520, Note_on_c, 8, 51, 58
10, 300960, Note_on_c, 8, 51, 0
10, 300960, Note_on_c, 8, 50, 70
10, 301440, Note_on_c, 8, 50, 0
10, 301440, Note_on_c, 8, 43, 70
10, 301920, Note_on_c, 8, 43, 0
10, 301920, Note_on_c, 8, 48, 70
10, 302400, Note_on_c, 8, 48, 0
10, 302400, Note_on_c, 8, 41, 70
10, 302880, Note_on_c, 8, 41, 0
10, 302880, Note_on_c, 8, 46, 70
10, 303264, Note_on_c, 8, 46, 0
10, 303360, Note_on_c, 8, 39, 58
10, 310656, Note_on_c, 8, 39, 0
10, 311040, Note_on_c, 8, 39, 58
10, 311256, Note_on_c, 8, 39, 0
10, 311280, Note_on_c, 8, 39, 72
10, 311496, Note_on_c, 8, 39, 0
10, 311520, Note_on_c, 8, 39, 75
10, 311736, Note_on_c, 8, 39, 0
10, 311760, Note_on_c, 8, 39, 77
10, 311976, Note_on_c, 8, 39, 0
10, 312000, Note_on_c, 8, 39, 80
10, 312216, Note_on_c, 8, 39, 0
10, 312240, Note_on_c, 8, 39, 82
10, 312456, Note_on_c, 8, 39, 0
10, 312480, Note_on_c, 8, 39, 85
10, 312696, Note_on_c, 8, 39, 0
10, 312720, Note_on_c, 8, 39, 88
10, 312936, Note_on_c, 8, 39, 0
10, 312960, Note_on_c, 8, 40, 90
10, 313176, Note_on_c, 8, 40, 0
10, 313200, Note_on_c, 8, 40, 93
10, 313416, Note_on_c, 8, 40, 0
10, 313440, Note_on_c, 8, 40, 95
10, 313656, Note_on_c, 8, 40, 0
10, 313680, Note_on_c, 8, 40, 98
10, 313896, Note_on_c, 8, 40, 0
10, 313920, Note_on_c, 8, 40, 100
10, 314136, Note_on_c, 8, 40, 0
10, 314160, Note_on_c, 8, 40, 103
10, 314376, Note_on_c, 8, 40, 0
10, 314400, Note_on_c, 8, 40, 106
10, 314616, Note_on_c, 8, 40, 0
10, 314640, Note_on_c, 8, 40, 108
10, 314856, Note_on_c, 8, 40, 0
10, 314880, Note_on_c, 8, 41, 109
10, 315072, Note_on_c, 8, 41, 0
10, 315120, Note_on_c, 8, 41, 105
10, 315312, Note_on_c, 8, 41, 0
10, 315360, Note_on_c, 8, 41, 105
10, 315552, Note_on_c, 8, 41, 0
10, 315600, Note_on_c, 8, 41, 105
10, 315792, Note_on_c, 8, 41, 0
10, 315840, Note_on_c, 8, 41, 105
10, 316032, Note_on_c, 8, 41, 0
10, 316080, Note_on_c, 8, 41, 105
10, 316272, Note_on_c, 8, 41, 0
10, 316320, Note_on_c, 8, 41, 105
10, 316512, Note_on_c, 8, 41, 0
10, 316560, Note_on_c, 8, 41, 105
10, 316752, Note_on_c, 8, 41, 0
10, 316800, Note_on_c, 8, 29, 105
10, 316992, Note_on_c, 8, 29, 0
10, 317040, Note_on_c, 8, 29, 105
10, 317232, Note_on_c, 8, 29, 0
10, 317280, Note_on_c, 8, 29, 105
10, 317472, Note_on_c, 8, 29, 0
10, 317520, Note_on_c, 8, 29, 105
10, 317712, Note_on_c, 8, 29, 0
10, 317760, Note_on_c, 8, 29, 105
10, 317952, Note_on_c, 8, 29, 0
10, 318000, Note_on_c, 8, 29, 105
10, 318192, Note_on_c, 8, 29, 0
10, 318240, Note_on_c, 8, 29, 105
10, 318432, Note_on_c, 8, 29, 0
10, 318480, Note_on_c, 8, 29, 105
10, 318672, Note_on_c, 8, 29, 0
10, 318720, Note_on_c, 8, 34, 105
10, 319104, Note_on_c, 8, 34, 0
10, 319200, Note_on_c, 8, 38, 112
10, 319968, Note_on_c, 8, 38, 0
10, 320160, Note_on_c, 8, 39, 105
10, 320448, Note_on_c, 8, 39, 0
10, 320640, Note_on_c, 8, 40, 105
10, 320928, Note_on_c, 8, 40, 0
10, 321120, Note_on_c, 8, 41, 105
10, 321408, Note_on_c, 8, 41, 0
10, 321600, Note_on_c, 8, 42, 105
10, 321888, Note_on_c, 8, 42, 0
10, 322080, Note_on_c, 8, 43, 105
10, 322368, Note_on_c, 8, 43, 0
10, 322560, Note_on_c, 8, 44, 105
10, 322944, Note_on_c, 8, 44, 0
10, 323400, Note_on_c, 8, 44, 105
10, 323496, Note_on_c, 8, 44, 0
10, 323520, Note_on_c, 8, 43, 105
10, 323904, Note_on_c, 8, 43, 0
10, 324360, Note_on_c, 8, 43, 105
10, 324456, Note_on_c, 8, 43, 0
10, 324480, Note_on_c, 8, 51, 105
10, 324864, Note_on_c, 8, 51, 0
10, 325320, Note_on_c, 8, 51, 105
10, 325416, Note_on_c, 8, 51, 0
10, 325440, Note_on_c, 8, 50, 105
10, 325824, Note_on_c, 8, 50, 0
10, 326280, Note_on_c, 8, 50, 105
10, 326376, Note_on_c, 8, 50, 0
10, 326400, Note_on_c, 8, 39, 105
10, 326784, Note_on_c, 8, 39, 0
10, 328320, Note_on_c, 8, 41, 58
10, 328704, Note_on_c, 8, 41, 0
10, 333120, Note_on_c, 8, 39, 58
10, 335040, Note_on_c, 8, 39, 0
10, 335040, Note_on_c, 8, 38, 58
10, 335424, Note_on_c, 8, 38, 0
10, 336960, Note_on_c, 8, 39, 58
10, 338880, Note_on_c, 8, 39, 0
10, 338880, Note_on_c, 8, 38, 58
10, 339264, Note_on_c, 8, 38, 0
10, 339840, Note_on_c, 8, 38, 105
10, 340032, Note_on_c, 8, 38, 0
10, 340080, Note_on_c, 8, 38, 105
10, 340272, Note_on_c, 8, 38, 0
10, 340320, Note_on_c, 8, 38, 105
10, 340512, Note_on_c, 8, 38, 0
10, 340560, Note_on_c, 8, 38, 105
10, 340752, Note_on_c, 8, 38, 0
10, 340800, Note_on_c, 8, 38, 105
10, 340992, Note_on_c, 8, 38, 0
10, 341040, Note_on_c, 8, 38, 105
10, 341232, Note_on_c, 8, 38, 0
10, 341280, Note_on_c, 8, 38, 105
10, 341472, Note_on_c, 8, 38, 0
10, 341520, Note_on_c, 8, 38, 105
10, 341712, Note_on_c, 8, 38, 0
10, 341760, Note_on_c, 8, 43, 105
10, 341952, Note_on_c, 8, 43, 0
10, 342000, Note_on_c, 8, 43, 105
10, 342192, Note_on_c, 8, 43, 0
10, 342240, Note_on_c, 8, 43, 105
10, 342432, Note_on_c, 8, 43, 0
10, 342480, Note_on_c, 8, 43, 105
10, 342672, Note_on_c, 8, 43, 0
10, 342720, Note_on_c, 8, 39, 105
10, 342912, Note_on_c, 8, 39, 0
10, 342960, Note_on_c, 8, 39, 105
10, 343152, Note_on_c, 8, 39, 0
10, 343200, Note_on_c, 8, 39, 105
10, 343392, Note_on_c, 8, 39, 0
10, 343440, Note_on_c, 8, 39, 105
10, 343632, Note_on_c, 8, 39, 0
10, 343680, Note_on_c, 8, 41, 105
10, 343872, Note_on_c, 8, 41, 0
10, 343920, Note_on_c, 8, 41, 105
10, 344112, Note_on_c, 8, 41, 0
10, 344160, Note_on_c, 8, 41, 105
10, 344352, Note_on_c, 8, 41, 0
10, 344400, Note_on_c, 8, 41, 105
10, 344592, Note_on_c, 8, 41, 0
10, 344640, Note_on_c, 8, 29, 105
10, 344832, Note_on_c, 8, 29, 0
10, 344880, Note_on_c, 8, 29, 105
10, 345072, Note_on_c, 8, 29, 0
10, 345120, Note_on_c, 8, 29, 105
10, 345312, Note_on_c, 8, 29, 0
10, 345360, Note_on_c, 8, 29, 105
10, 345552, Note_on_c, 8, 29, 0
10, 345600, Note_on_c, 8, 34, 105
10, 345984, Note_on_c, 8, 34, 0
10, 346560, Note_on_c, 8, 46, 58
10, 348480, Note_on_c, 8, 46, 0
10, 348480, Note_on_c, 8, 45, 58
10, 348864, Note_on_c, 8, 45, 0
10, 350400, Note_on_c, 8, 34, 58
10, 352320, Note_on_c, 8, 34, 0
10, 352320, Note_on_c, 8, 33, 58
10, 352704, Note_on_c, 8, 33, 0
10, 355200, Note_on_c, 8, 38, 105
10, 355392, Note_on_c, 8, 38, 0
10, 355440, Note_on_c, 8, 38, 105
10, 355632, Note_on_c, 8, 38, 0
10, 355680, Note_on_c, 8, 38, 105
10, 355872, Note_on_c, 8, 38, 0
10, 355920, Note_on_c, 8, 38, 105
10, 356112, Note_on_c, 8, 38, 0
10, 356160, Note_on_c, 8, 38, 105
10, 356352, Note_on_c, 8, 38, 0
10, 356400, Note_on_c, 8, 38, 105
10, 356592, Note_on_c, 8, 38, 0
10, 356640, Note_on_c, 8, 38, 105
10, 356832, Note_on_c, 8, 38, 0
10, 356880, Note_on_c, 8, 38, 105
10, 357072, Note_on_c, 8, 38, 0
10, 357120, Note_on_c, 8, 43, 105
10, 357312, Note_on_c, 8, 43, 0
10, 357360, Note_on_c, 8, 43, 105
10, 357552, Note_on_c, 8, 43, 0
10, 357600, Note_on_c, 8, 43, 105
10, 357792, Note_on_c, 8, 43, 0
10, 357840, Note_on_c, 8, 43, 105
10, 358032, Note_on_c, 8, 43, 0
10, 358080, Note_on_c, 8, 39, 105
10, 358272, Note_on_c, 8, 39, 0
10, 358320, Note_on_c, 8, 39, 105
10, 358512, Note_on_c, 8, 39, 0
10, 358560, Note_on_c, 8, 39, 105
10, 358752, Note_on_c, 8, 39, 0
10, 358800, Note_on_c, 8, 39, 105
10, 358992, Note_on_c, 8, 39, 0
10, 359040, Note_on_c, 8, 41, 105
10, 359232, Note_on_c, 8, 41, 0
10, 359280, Note_on_c, 8, 41, 105
10, 359472, Note_on_c, 8, 41, 0
10, 359520, Note_on_c, 8, 41, 105
10, 359712, Note_on_c, 8, 41, 0
10, 359760, Note_on_c, 8, 41, 105
10, 359952, Note_on_c, 8, 41, 0
10, 360000, Note_on_c, 8, 29, 105
10, 360192, Note_on_c, 8, 29, 0
10, 360240, Note_on_c, 8, 29, 105
10, 360432, Note_on_c, 8, 29, 0
10, 360480, Note_on_c, 8, 29, 105
10, 360672, Note_on_c, 8, 29, 0
10, 360720, Note_on_c, 8, 29, 105
10, 360912, Note_on_c, 8, 29, 0
10, 360960, Note_on_c, 8, 34, 105
10, 361728, Note_on_c, 8, 34, 0
10, 362640, Note_on_c, 8, 53, 105
10, 362832, Note_on_c, 8, 53, 0
10, 362880, Note_on_c, 8, 51, 105
10, 363072, Note_on_c, 8, 51, 0
10, 363120, Note_on_c, 8, 50, 105
10, 363312, Note_on_c, 8, 50, 0
10, 363360, Note_on_c, 8, 48, 105
10, 363552, Note_on_c, 8, 48, 0
10, 363600, Note_on_c, 8, 46, 105
10, 363792, Note_on_c, 8, 46, 0
10, 363840, Note_on_c, 8, 45, 105
10, 364032, Note_on_c, 8, 45, 0
10, 364080, Note_on_c, 8, 43, 105
10, 364272, Note_on_c, 8, 43, 0
10, 364320, Note_on_c, 8, 41, 105
10, 364512, Note_on_c, 8, 41, 0
10, 364560, Note_on_c, 8, 39, 105
10, 364752, Note_on_c, 8, 39, 0
10, 364800, Note_on_c, 8, 38, 105
10, 365136, Note_on_c, 8, 38, 0
10, 365280, Note_on_c, 8, 38, 105
10, 365616, Note_on_c, 8, 38, 0
10, 365760, Note_on_c, 8, 39, 105
10, 366096, Note_on_c, 8, 39, 0
10, 366240, Note_on_c, 8, 41, 105
10, 366576, Note_on_c, 8, 41, 0
10, 366720, Note_on_c, 8, 46, 105
10, 366912, Note_on_c, 8, 46, 0
10, 366960, Note_on_c, 8, 41, 105
10, 367152, Note_on_c, 8, 41, 0
10, 367200, Note_on_c, 8, 50, 105
10, 367392, Note_on_c, 8, 50, 0
10, 367440, Note_on_c, 8, 48, 105
10, 367632, Note_on_c, 8, 48, 0
10, 367680, Note_on_c, 8, 46, 105
10, 367872, Note_on_c, 8, 46, 0
10, 367920, Note_on_c, 8, 45, 105
10, 368112, Note_on_c, 8, 45, 0
10, 368160, Note_on_c, 8, 43, 105
10, 368352, Note_on_c, 8, 43, 0
10, 368400, Note_on_c, 8, 41, 105
10, 368592, Note_on_c, 8, 41, 0
10, 368640, Note_on_c, 8, 39, 105
10, 368832, Note_on_c, 8, 39, 0
10, 368880, Note_on_c, 8, 38, 105
10, 369072, Note_on_c, 8, 38, 0
10, 369120, Note_on_c, 8, 36, 105
10, 369312, Note_on_c, 8, 36, 0
10, 369360, Note_on_c, 8, 34, 105
10, 369552, Note_on_c, 8, 34, 0
10, 369600, Note_on_c, 8, 33, 105
10, 369792, Note_on_c, 8, 33, 0
10, 369840, Note_on_c, 8, 36, 105
10, 370032, Note_on_c, 8, 36, 0
10, 370080, Note_on_c, 8, 41, 105
10, 370272, Note_on_c, 8, 41, 0
10, 370320, Note_on_c, 8, 39, 105
10, 370512, Note_on_c, 8, 39, 0
10, 370560, Note_on_c, 8, 38, 105
10, 370896, Note_on_c, 8, 38, 0
10, 371040, Note_on_c, 8, 38, 105
10, 371376, Note_on_c, 8, 38, 0
10, 371520, Note_on_c, 8, 39, 105
10, 371856, Note_on_c, 8, 39, 0
10, 372000, Note_on_c, 8, 41, 105
10, 372336, Note_on_c, 8, 41, 0
10, 372480, Note_on_c, 8, 43, 105
10, 372816, Note_on_c, 8, 43, 0
10, 372960, Note_on_c, 8, 39, 105
10, 373296, Note_on_c, 8, 39, 0
10, 373440, Note_on_c, 8, 41, 105
10, 373776, Note_on_c, 8, 41, 0
10, 373920, Note_on_c, 8, 29, 105
10, 374256, Note_on_c, 8, 29, 0
10, 374400, Note_on_c, 8, 34, 105
10, 374784, Note_on_c, 8, 34, 0
10, 375360, Note_on_c, 8, 41, 105
10, 375744, Note_on_c, 8, 41, 0
10, 376320, Note_on_c, 8, 46, 105
10, 376704, Note_on_c, 8, 46, 0
10, 377280, Note_on_c, 8, 41, 105
10, 377664, Note_on_c, 8, 41, 0
10, 378240, Note_on_c, 8, 46, 105
10, 378624, Note_on_c, 8, 46, 0
10, 379200, Note_on_c, 8, 41, 105
10, 379584, Note_on_c, 8, 41, 0
10, 380160, Note_on_c, 8, 46, 105
10, 380520, Note_on_c, 8, 46, 0
10, 380640, Note_on_c, 8, 41, 105
10, 381000, Note_on_c, 8, 41, 0
10, 381120, Note_on_c, 8, 46, 105
10, 381480, Note_on_c, 8, 46, 0
10, 381600, Note_on_c, 8, 41, 105
10, 381960, Note_on_c, 8, 41, 0
10, 382080, Note_on_c, 8, 46, 105
10, 382464, Note_on_c, 8, 46, 0
10, 384000, Note_on_c, 8, 45, 105
10, 384384, Note_on_c, 8, 45, 0
10, 385920, Note_on_c, 8, 43, 105
10, 386304, Note_on_c, 8, 43, 0
10, 386880, Note_on_c, 8, 41, 105
10, 387264, Note_on_c, 8, 41, 0
10, 393600, Note_on_c, 8, 30, 58
10, 393984, Note_on_c, 8, 30, 0
10, 395520, Note_on_c, 8, 42, 58
10, 395904, Note_on_c, 8, 42, 0
10, 397440, Note_on_c, 8, 30, 58
10, 397824, Note_on_c, 8, 30, 0
10, 399360, Note_on_c, 8, 42, 58
10, 399744, Note_on_c, 8, 42, 0
10, 401280, Note_on_c, 8, 29, 58
10, 401664, Note_on_c, 8, 29, 0
10, 403200, Note_on_c, 8, 41, 58
10, 403584, Note_on_c, 8, 41, 0
10, 405120, Note_on_c, 8, 28, 58
10, 405504, Note_on_c, 8, 28, 0
10, 407040, Note_on_c, 8, 40, 58
10, 407424, Note_on_c, 8, 40, 0
10, 408960, Note_on_c, 8, 27, 58
10, 409344, Note_on_c, 8, 27, 0
10, 410880, Note_on_c, 8, 35, 58
10, 411264, Note_on_c, 8, 35, 0
10, 412320, Note_on_c, 8, 48, 58
10, 412560, Note_on_c, 8, 48, 0
10, 412560, Note_on_c, 8, 47, 105
10, 412752, Note_on_c, 8, 47, 0
10, 412800, Note_on_c, 8, 47, 105
10, 413184, Note_on_c, 8, 47, 0
10, 413280, Note_on_c, 8, 48, 105
10, 413520, Note_on_c, 8, 48, 0
10, 413520, Note_on_c, 8, 47, 105
10, 413712, Note_on_c, 8, 47, 0
10, 413760, Note_on_c, 8, 47, 105
10, 414144, Note_on_c, 8, 47, 0
10, 414240, Note_on_c, 8, 48, 105
10, 414480, Note_on_c, 8, 48, 0
10, 414480, Note_on_c, 8, 47, 105
10, 414672, Note_on_c, 8, 47, 0
10, 414720, Note_on_c, 8, 47, 105
10, 415200, Note_on_c, 8, 47, 0
10, 415200, Note_on_c, 8, 55, 105
10, 415584, Note_on_c, 8, 55, 0
10, 416160, Note_on_c, 8, 55, 105
10, 416400, Note_on_c, 8, 55, 0
10, 416400, Note_on_c, 8, 54, 105
10, 416592, Note_on_c, 8, 54, 0
10, 416640, Note_on_c, 8, 52, 105
10, 417024, Note_on_c, 8, 52, 0
10, 417120, Note_on_c, 8, 52, 105
10, 417360, Note_on_c, 8, 52, 0
10, 417360, Note_on_c, 8, 50, 105
10, 417552, Note_on_c, 8, 50, 0
10, 417600, Note_on_c, 8, 48, 105
10, 417984, Note_on_c, 8, 48, 0
10, 418080, Note_on_c, 8, 48, 105
10, 418320, Note_on_c, 8, 48, 0
10, 418320, Note_on_c, 8, 47, 105
10, 418512, Note_on_c, 8, 47, 0
10, 418560, Note_on_c, 8, 45, 92
10, 418704, Note_on_c, 8, 45, 0
10, 418800, Note_on_c, 8, 47, 92
10, 418944, Note_on_c, 8, 47, 0
10, 419040, Note_on_c, 8, 48, 92
10, 419184, Note_on_c, 8, 48, 0
10, 419280, Note_on_c, 8, 47, 92
10, 419424, Note_on_c, 8, 47, 0
10, 419520, Note_on_c, 8, 45, 92
10, 419664, Note_on_c, 8, 45, 0
10, 419760, Note_on_c, 8, 46, 92
10, 419904, Note_on_c, 8, 46, 0
10, 420000, Note_on_c, 8, 43, 92
10, 420144, Note_on_c, 8, 43, 0
10, 420240, Note_on_c, 8, 45, 92
10, 420384, Note_on_c, 8, 45, 0
10, 420480, Note_on_c, 8, 41, 92
10, 420624, Note_on_c, 8, 41, 0
10, 420720, Note_on_c, 8, 45, 92
10, 420864, Note_on_c, 8, 45, 0
10, 420960, Note_on_c, 8, 50, 92
10, 421104, Note_on_c, 8, 50, 0
10, 421200, Note_on_c, 8, 41, 92
10, 421344, Note_on_c, 8, 41, 0
10, 421440, Note_on_c, 8, 40, 92
10, 421584, Note_on_c, 8, 40, 0
10, 421680, Note_on_c, 8, 43, 92
10, 421824, Note_on_c, 8, 43, 0
10, 421920, Note_on_c, 8, 49, 92
10, 422064, Note_on_c, 8, 49, 0
10, 422160, Note_on_c, 8, 40, 92
10, 422304, Note_on_c, 8, 40, 0
10, 422400, Note_on_c, 8, 38, 92
10, 422544, Note_on_c, 8, 38, 0
10, 422640, Note_on_c, 8, 33, 92
10, 422784, Note_on_c, 8, 33, 0
10, 422880, Note_on_c, 8, 35, 92
10, 423024, Note_on_c, 8, 35, 0
10, 423120, Note_on_c, 8, 37, 92
10, 423264, Note_on_c, 8, 37, 0
10, 423360, Note_on_c, 8, 38, 92
10, 423504, Note_on_c, 8, 38, 0
10, 423600, Note_on_c, 8, 33, 92
10, 423744, Note_on_c, 8, 33, 0
10, 423840, Note_on_c, 8, 38, 92
10, 423984, Note_on_c, 8, 38, 0
10, 424080, Note_on_c, 8, 40, 92
10, 424224, Note_on_c, 8, 40, 0
10, 424320, Note_on_c, 8, 41, 92
10, 424464, Note_on_c, 8, 41, 0
10, 424560, Note_on_c, 8, 38, 92
10, 424704, Note_on_c, 8, 38, 0
10, 424800, Note_on_c, 8, 40, 92
10, 424944, Note_on_c, 8, 40, 0
10, 425040, Note_on_c, 8, 42, 92
10, 425184, Note_on_c, 8, 42, 0
10, 425280, Note_on_c, 8, 43, 92
10, 425424, Note_on_c, 8, 43, 0
10, 425520, Note_on_c, 8, 38, 92
10, 425664, Note_on_c, 8, 38, 0
10, 425760, Note_on_c, 8, 42, 92
10, 425904, Note_on_c, 8, 42, 0
10, 426000, Note_on_c, 8, 45, 92
10, 426144, Note_on_c, 8, 45, 0
10, 426240, Note_on_c, 8, 46, 105
10, 426576, Note_on_c, 8, 46, 0
10, 426720, Note_on_c, 8, 31, 105
10, 427056, Note_on_c, 8, 31, 0
10, 427680, Note_on_c, 8, 45, 105
10, 427920, Note_on_c, 8, 45, 0
10, 427920, Note_on_c, 8, 43, 105
10, 428112, Note_on_c, 8, 43, 0
10, 428160, Note_on_c, 8, 43, 105
10, 428544, Note_on_c, 8, 43, 0
10, 428640, Note_on_c, 8, 45, 105
10, 428880, Note_on_c, 8, 45, 0
10, 428880, Note_on_c, 8, 43, 105
10, 429072, Note_on_c, 8, 43, 0
10, 429120, Note_on_c, 8, 43, 105
10, 429504, Note_on_c, 8, 43, 0
10, 429600, Note_on_c, 8, 45, 105
10, 429840, Note_on_c, 8, 45, 0
10, 429840, Note_on_c, 8, 43, 105
10, 430032, Note_on_c, 8, 43, 0
10, 430080, Note_on_c, 8, 43, 105
10, 430560, Note_on_c, 8, 43, 0
10, 430560, Note_on_c, 8, 52, 105
10, 430944, Note_on_c, 8, 52, 0
10, 431520, Note_on_c, 8, 52, 105
10, 431760, Note_on_c, 8, 52, 0
10, 431760, Note_on_c, 8, 50, 105
10, 431952, Note_on_c, 8, 50, 0
10, 432000, Note_on_c, 8, 48, 105
10, 432384, Note_on_c, 8, 48, 0
10, 432480, Note_on_c, 8, 48, 105
10, 432720, Note_on_c, 8, 48, 0
10, 432720, Note_on_c, 8, 46, 105
10, 432912, Note_on_c, 8, 46, 0
10, 432960, Note_on_c, 8, 45, 105
10, 433344, Note_on_c, 8, 45, 0
10, 433440, Note_on_c, 8, 45, 105
10, 433680, Note_on_c, 8, 45, 0
10, 433680, Note_on_c, 8, 43, 105
10, 433872, Note_on_c, 8, 43, 0
10, 433920, Note_on_c, 8, 41, 105
10, 434064, Note_on_c, 8, 41, 0
10, 434160, Note_on_c, 8, 43, 105
10, 434304, Note_on_c, 8, 43, 0
10, 434400, Note_on_c, 8, 45, 105
10, 434544, Note_on_c, 8, 45, 0
10, 434640, Note_on_c, 8, 43, 105
10, 434784, Note_on_c, 8, 43, 0
10, 434880, Note_on_c, 8, 41, 105
10, 435024, Note_on_c, 8, 41, 0
10, 435120, Note_on_c, 8, 43, 105
10, 435264, Note_on_c, 8, 43, 0
10, 435360, Note_on_c, 8, 39, 105
10, 435504, Note_on_c, 8, 39, 0
10, 435600, Note_on_c, 8, 41, 105
10, 435744, Note_on_c, 8, 41, 0
10, 435840, Note_on_c, 8, 38, 105
10, 435984, Note_on_c, 8, 38, 0
10, 436080, Note_on_c, 8, 41, 105
10, 436224, Note_on_c, 8, 41, 0
10, 436320, Note_on_c, 8, 46, 105
10, 436464, Note_on_c, 8, 46, 0
10, 436560, Note_on_c, 8, 38, 105
10, 436704, Note_on_c, 8, 38, 0
10, 436800, Note_on_c, 8, 36, 105
10, 436944, Note_on_c, 8, 36, 0
10, 437040, Note_on_c, 8, 39, 105
10, 437184, Note_on_c, 8, 39, 0
10, 437280, Note_on_c, 8, 45, 105
10, 437424, Note_on_c, 8, 45, 0
10, 437520, Note_on_c, 8, 36, 105
10, 437664, Note_on_c, 8, 36, 0
10, 437760, Note_on_c, 8, 34, 105
10, 437904, Note_on_c, 8, 34, 0
10, 438000, Note_on_c, 8, 29, 105
10, 438144, Note_on_c, 8, 29, 0
10, 438240, Note_on_c, 8, 31, 105
10, 438384, Note_on_c, 8, 31, 0
10, 438480, Note_on_c, 8, 33, 105
10, 438624, Note_on_c, 8, 33, 0
10, 438720, Note_on_c, 8, 34, 105
10, 438864, Note_on_c, 8, 34, 0
10, 438960, Note_on_c, 8, 33, 105
10, 439104, Note_on_c, 8, 33, 0
10, 439200, Note_on_c, 8, 34, 105
10, 439344, Note_on_c, 8, 34, 0
10, 439440, Note_on_c, 8, 36, 105
10, 439584, Note_on_c, 8, 36, 0
10, 439680, Note_on_c, 8, 38, 105
10, 439824, Note_on_c, 8, 38, 0
10, 439920, Note_on_c, 8, 34, 105
10, 440064, Note_on_c, 8, 34, 0
10, 440160, Note_on_c, 8, 36, 105
10, 440304, Note_on_c, 8, 36, 0
10, 440400, Note_on_c, 8, 38, 105
10, 440544, Note_on_c, 8, 38, 0
10, 440640, Note_on_c, 8, 39, 105
10, 440784, Note_on_c, 8, 39, 0
10, 440880, Note_on_c, 8, 38, 105
10, 441024, Note_on_c, 8, 38, 0
10, 441120, Note_on_c, 8, 39, 105
10, 441264, Note_on_c, 8, 39, 0
10, 441360, Note_on_c, 8, 41, 105
10, 441504, Note_on_c, 8, 41, 0
10, 441600, Note_on_c, 8, 43, 105
10, 441744, Note_on_c, 8, 43, 0
10, 441840, Note_on_c, 8, 39, 105
10, 441984, Note_on_c, 8, 39, 0
10, 442080, Note_on_c, 8, 41, 105
10, 442224, Note_on_c, 8, 41, 0
10, 442320, Note_on_c, 8, 43, 105
10, 442464, Note_on_c, 8, 43, 0
10, 442560, Note_on_c, 8, 45, 105
10, 442704, Note_on_c, 8, 45, 0
10, 442800, Note_on_c, 8, 43, 105
10, 442944, Note_on_c, 8, 43, 0
10, 443040, Note_on_c, 8, 45, 105
10, 443184, Note_on_c, 8, 45, 0
10, 443280, Note_on_c, 8, 46, 105
10, 443424, Note_on_c, 8, 46, 0
10, 443520, Note_on_c, 8, 48, 105
10, 443664, Note_on_c, 8, 48, 0
10, 443760, Note_on_c, 8, 45, 105
10, 443904, Note_on_c, 8, 45, 0
10, 444000, Note_on_c, 8, 46, 105
10, 444144, Note_on_c, 8, 46, 0
10, 444240, Note_on_c, 8, 48, 105
10, 444384, Note_on_c, 8, 48, 0
10, 444480, Note_on_c, 8, 50, 105
10, 444624, Note_on_c, 8, 50, 0
10, 444720, Note_on_c, 8, 49, 105
10, 444864, Note_on_c, 8, 49, 0
10, 444960, Note_on_c, 8, 50, 105
10, 445104, Note_on_c, 8, 50, 0
10, 445200, Note_on_c, 8, 52, 105
10, 445344, Note_on_c, 8, 52, 0
10, 445440, Note_on_c, 8, 54, 105
10, 445584, Note_on_c, 8, 54, 0
10, 445680, Note_on_c, 8, 50, 105
10, 445824, Note_on_c, 8, 50, 0
10, 445920, Note_on_c, 8, 52, 105
10, 446064, Note_on_c, 8, 52, 0
10, 446160, Note_on_c, 8, 54, 105
10, 446304, Note_on_c, 8, 54, 0
10, 446400, Note_on_c, 8, 55, 105
10, 446544, Note_on_c, 8, 55, 0
10, 446640, Note_on_c, 8, 51, 105
10, 446784, Note_on_c, 8, 51, 0
10, 446880, Note_on_c, 8, 50, 105
10, 447024, Note_on_c, 8, 50, 0
10, 447120, Note_on_c, 8, 48, 105
10, 447264, Note_on_c, 8, 48, 0
10, 447360, Note_on_c, 8, 46, 105
10, 447504, Note_on_c, 8, 46, 0
10, 447600, Note_on_c, 8, 48, 105
10, 447744, Note_on_c, 8, 48, 0
10, 447840, Note_on_c, 8, 46, 105
10, 447984, Note_on_c, 8, 46, 0
10, 448080, Note_on_c, 8, 45, 105
10, 448224, Note_on_c, 8, 45, 0
10, 448320, Note_on_c, 8, 43, 105
10, 448464, Note_on_c, 8, 43, 0
10, 448560, Note_on_c, 8, 41, 105
10, 448704, Note_on_c, 8, 41, 0
10, 448800, Note_on_c, 8, 43, 105
10, 448944, Note_on_c, 8, 43, 0
10, 449040, Note_on_c, 8, 44, 105
10, 449184, Note_on_c, 8, 44, 0
10, 449280, Note_on_c, 8, 45, 105
10, 449472, Note_on_c, 8, 45, 0
10, 449520, Note_on_c, 8, 45, 105
10, 449712, Note_on_c, 8, 45, 0
10, 449760, Note_on_c, 8, 45, 105
10, 449952, Note_on_c, 8, 45, 0
10, 450000, Note_on_c, 8, 45, 105
10, 450192, Note_on_c, 8, 45, 0
10, 450240, Note_on_c, 8, 45, 105
10, 450432, Note_on_c, 8, 45, 0
10, 450480, Note_on_c, 8, 45, 105
10, 450672, Note_on_c, 8, 45, 0
10, 450720, Note_on_c, 8, 45, 105
10, 450912, Note_on_c, 8, 45, 0
10, 450960, Note_on_c, 8, 45, 105
10, 451152, Note_on_c, 8, 45, 0
10, 451200, Note_on_c, 8, 45, 105
10, 451392, Note_on_c, 8, 45, 0
10, 451440, Note_on_c, 8, 45, 105
10, 451632, Note_on_c, 8, 45, 0
10, 451680, Note_on_c, 8, 45, 105
10, 451872, Note_on_c, 8, 45, 0
10, 451920, Note_on_c, 8, 45, 105
10, 452112, Note_on_c, 8, 45, 0
10, 452160, Note_on_c, 8, 45, 105
10, 452352, Note_on_c, 8, 45, 0
10, 452400, Note_on_c, 8, 45, 105
10, 452592, Note_on_c, 8, 45, 0
10, 452640, Note_on_c, 8, 45, 105
10, 452832, Note_on_c, 8, 45, 0
10, 452880, Note_on_c, 8, 45, 105
10, 453072, Note_on_c, 8, 45, 0
10, 453120, Note_on_c, 8, 45, 105
10, 453312, Note_on_c, 8, 45, 0
10, 453360, Note_on_c, 8, 45, 105
10, 453552, Note_on_c, 8, 45, 0
10, 453600, Note_on_c, 8, 45, 105
10, 453792, Note_on_c, 8, 45, 0
10, 453840, Note_on_c, 8, 45, 105
10, 454032, Note_on_c, 8, 45, 0
10, 454080, Note_on_c, 8, 45, 105
10, 454272, Note_on_c, 8, 45, 0
10, 454320, Note_on_c, 8, 45, 105
10, 454512, Note_on_c, 8, 45, 0
10, 454560, Note_on_c, 8, 45, 105
10, 454752, Note_on_c, 8, 45, 0
10, 454800, Note_on_c, 8, 45, 105
10, 454992, Note_on_c, 8, 45, 0
10, 455040, Note_on_c, 8, 45, 105
10, 455232, Note_on_c, 8, 45, 0
10, 455280, Note_on_c, 8, 45, 105
10, 455472, Note_on_c, 8, 45, 0
10, 455520, Note_on_c, 8, 45, 105
10, 455712, Note_on_c, 8, 45, 0
10, 455760, Note_on_c, 8, 45, 105
10, 455952, Note_on_c, 8, 45, 0
10, 456000, Note_on_c, 8, 45, 105
10, 456192, Note_on_c, 8, 45, 0
10, 456240, Note_on_c, 8, 45, 105
10, 456432, Note_on_c, 8, 45, 0
10, 456480, Note_on_c, 8, 45, 105
10, 456672, Note_on_c, 8, 45, 0
10, 456720, Note_on_c, 8, 45, 105
10, 456912, Note_on_c, 8, 45, 0
10, 456960, Note_on_c, 8, 45, 105
10, 457728, Note_on_c, 8, 45, 0
10, 486240, Note_on_c, 8, 51, 116
10, 486480, Note_on_c, 8, 51, 0
10, 486480, Note_on_c, 8, 50, 116
10, 486672, Note_on_c, 8, 50, 0
10, 486720, Note_on_c, 8, 50, 116
10, 487104, Note_on_c, 8, 50, 0
10, 488160, Note_on_c, 8, 51, 116
10, 488400, Note_on_c, 8, 51, 0
10, 488400, Note_on_c, 8, 50, 116
10, 488592, Note_on_c, 8, 50, 0
10, 488640, Note_on_c, 8, 50, 116
10, 489024, Note_on_c, 8, 50, 0
10, 490080, Note_on_c, 8, 51, 116
10, 490320, Note_on_c, 8, 51, 0
10, 490320, Note_on_c, 8, 50, 116
10, 490512, Note_on_c, 8, 50, 0
10, 490560, Note_on_c, 8, 50, 116
10, 490944, Note_on_c, 8, 50, 0
10, 492000, Note_on_c, 8, 51, 116
10, 492240, Note_on_c, 8, 51, 0
10, 492240, Note_on_c, 8, 50, 116
10, 492432, Note_on_c, 8, 50, 0
10, 492480, Note_on_c, 8, 50, 116
10, 492864, Note_on_c, 8, 50, 0
10, 493920, Note_on_c, 8, 51, 116
10, 494160, Note_on_c, 8, 51, 0
10, 494160, Note_on_c, 8, 50, 116
10, 494352, Note_on_c, 8, 50, 0
10, 494400, Note_on_c, 8, 50, 116
10, 494784, Note_on_c, 8, 50, 0
10, 495840, Note_on_c, 8, 51, 116
10, 496080, Note_on_c, 8, 51, 0
10, 496080, Note_on_c, 8, 50, 116
10, 496272, Note_on_c, 8, 50, 0
10, 496320, Note_on_c, 8, 50, 116
10, 496704, Note_on_c, 8, 50, 0
10, 497760, Note_on_c, 8, 51, 116
10, 498000, Note_on_c, 8, 51, 0
10, 498000, Note_on_c, 8, 50, 116
10, 498192, Note_on_c, 8, 50, 0
10, 498240, Note_on_c, 8, 50, 116
10, 498624, Note_on_c, 8, 50, 0
10, 498720, Note_on_c, 8, 51, 116
10, 498960, Note_on_c, 8, 51, 0
10, 498960, Note_on_c, 8, 50, 116
10, 499152, Note_on_c, 8, 50, 0
10, 499200, Note_on_c, 8, 50, 105
10, 499584, Note_on_c, 8, 50, 0
10, 510720, Note_on_c, 8, 31, 58
10, 511104, Note_on_c, 8, 31, 0
10, 512640, Note_on_c, 8, 43, 58
10, 513024, Note_on_c, 8, 43, 0
10, 514560, Note_on_c, 8, 31, 58
10, 514944, Note_on_c, 8, 31, 0
10, 516480, Note_on_c, 8, 43, 58
10, 516864, Note_on_c, 8, 43, 0
10, 518400, Note_on_c, 8, 30, 58
10, 518784, Note_on_c, 8, 30, 0
10, 520320, Note_on_c, 8, 38, 58
10, 520704, Note_on_c, 8, 38, 0
10, 522240, Note_on_c, 8, 31, 58
10, 522624, Note_on_c, 8, 31, 0
10, 524160, Note_on_c, 8, 36, 58
10, 526080, Note_on_c, 8, 36, 0
10, 526080, Note_on_c, 8, 34, 58
10, 528000, Note_on_c, 8, 34, 0
10, 528000, Note_on_c, 8, 36, 58
10, 529920, Note_on_c, 8, 36, 0
10, 529920, Note_on_c, 8, 34, 58
10, 531744, Note_on_c, 8, 34, 0
10, 531840, Note_on_c, 8, 40, 58
10, 533760, Note_on_c, 8, 40, 0
10, 533760, Note_on_c, 8, 39, 58
10, 535680, Note_on_c, 8, 39, 0
10, 535680, Note_on_c, 8, 38, 58
10, 536448, Note_on_c, 8, 38, 0
10, 537120, Note_on_c, 8, 38, 105
10, 537312, Note_on_c, 8, 38, 0
10, 537360, Note_on_c, 8, 38, 105
10, 537552, Note_on_c, 8, 38, 0
10, 537600, Note_on_c, 8, 38, 105
10, 538368, Note_on_c, 8, 38, 0
10, 539040, Note_on_c, 8, 38, 105
10, 539232, Note_on_c, 8, 38, 0
10, 539280, Note_on_c, 8, 38, 105
10, 539472, Note_on_c, 8, 38, 0
10, 539520, Note_on_c, 8, 38, 105
10, 540288, Note_on_c, 8, 38, 0
10, 540960, Note_on_c, 8, 38, 105
10, 541128, Note_on_c, 8, 38, 0
10, 541200, Note_on_c, 8, 38, 105
10, 541368, Note_on_c, 8, 38, 0
10, 541440, Note_on_c, 8, 38, 105
10, 541776, Note_on_c, 8, 38, 0
10, 541920, Note_on_c, 8, 38, 105
10, 542088, Note_on_c, 8, 38, 0
10, 542160, Note_on_c, 8, 38, 105
10, 542328, Note_on_c, 8, 38, 0
10, 542400, Note_on_c, 8, 38, 105
10, 542736, Note_on_c, 8, 38, 0
10, 542880, Note_on_c, 8, 38, 105
10, 543048, Note_on_c, 8, 38, 0
10, 543120, Note_on_c, 8, 38, 105
10, 543288, Note_on_c, 8, 38, 0
10, 543360, Note_on_c, 8, 38, 105
10, 544128, Note_on_c, 8, 38, 0
10, 547200, Note_on_c, 8, 31, 58
10, 547584, Note_on_c, 8, 31, 0
10, 549120, Note_on_c, 8, 43, 58
10, 549504, Note_on_c, 8, 43, 0
10, 551040, Note_on_c, 8, 41, 58
10, 551424, Note_on_c, 8, 41, 0
10, 552960, Note_on_c, 8, 39, 58
10, 553344, Note_on_c, 8, 39, 0
10, 554880, Note_on_c, 8, 38, 58
10, 555264, Note_on_c, 8, 38, 0
10, 556800, Note_on_c, 8, 34, 58
10, 557184, Note_on_c, 8, 34, 0
10, 558720, Note_on_c, 8, 39, 105
10, 558912, Note_on_c, 8, 39, 0
10, 558960, Note_on_c, 8, 43, 105
10, 559152, Note_on_c, 8, 43, 0
10, 559200, Note_on_c, 8, 46, 105
10, 559392, Note_on_c, 8, 46, 0
10, 559440, Note_on_c, 8, 51, 105
10, 559632, Note_on_c, 8, 51, 0
10, 559680, Note_on_c, 8, 55, 105
10, 559872, Note_on_c, 8, 55, 0
10, 559920, Note_on_c, 8, 53, 105
10, 560112, Note_on_c, 8, 53, 0
10, 560160, Note_on_c, 8, 55, 105
10, 560352, Note_on_c, 8, 55, 0
10, 560400, Note_on_c, 8, 51, 105
10, 560592, Note_on_c, 8, 51, 0
10, 560640, Note_on_c, 8, 50, 105
10, 560832, Note_on_c, 8, 50, 0
10, 560880, Note_on_c, 8, 51, 105
10, 561072, Note_on_c, 8, 51, 0
10, 561120, Note_on_c, 8, 53, 105
10, 561312, Note_on_c, 8, 53, 0
10, 561360, Note_on_c, 8, 51, 105
10, 561552, Note_on_c, 8, 51, 0
10, 561600, Note_on_c, 8, 50, 105
10, 561792, Note_on_c, 8, 50, 0
10, 561840, Note_on_c, 8, 48, 105
10, 562032, Note_on_c, 8, 48, 0
10, 562080, Note_on_c, 8, 50, 105
10, 562272, Note_on_c, 8, 50, 0
10, 562320, Note_on_c, 8, 46, 105
10, 562512, Note_on_c, 8, 46, 0
10, 562560, Note_on_c, 8, 48, 105
10, 562752, Note_on_c, 8, 48, 0
10, 562800, Note_on_c, 8, 51, 105
10, 562992, Note_on_c, 8, 51, 0
10, 563040, Note_on_c, 8, 48, 105
10, 563232, Note_on_c, 8, 48, 0
10, 563280, Note_on_c, 8, 51, 105
10, 563472, Note_on_c, 8, 51, 0
10, 563520, Note_on_c, 8, 48, 105
10, 563712, Note_on_c, 8, 48, 0
10, 563760, Note_on_c, 8, 51, 105
10, 563952, Note_on_c, 8, 51, 0
10, 564000, Note_on_c, 8, 48, 105
10, 564192, Note_on_c, 8, 48, 0
10, 564240, Note_on_c, 8, 51, 105
10, 564432, Note_on_c, 8, 51, 0
10, 564480, Note_on_c, 8, 46, 105
10, 564672, Note_on_c, 8, 46, 0
10, 564720, Note_on_c, 8, 51, 105
10, 564912, Note_on_c, 8, 51, 0
10, 564960, Note_on_c, 8, 46, 105
10, 565152, Note_on_c, 8, 46, 0
10, 565200, Note_on_c, 8, 51, 105
10, 565392, Note_on_c, 8, 51, 0
10, 565440, Note_on_c, 8, 46, 105
10, 565632, Note_on_c, 8, 46, 0
10, 565680, Note_on_c, 8, 51, 105
10, 565872, Note_on_c, 8, 51, 0
10, 565920, Note_on_c, 8, 46, 105
10, 566112, Note_on_c, 8, 46, 0
10, 566160, Note_on_c, 8, 51, 105
10, 566352, Note_on_c, 8, 51, 0
10, 566400, Note_on_c, 8, 44, 105
10, 566592, Note_on_c, 8, 44, 0
10, 566640, Note_on_c, 8, 48, 105
10, 566832, Note_on_c, 8, 48, 0
10, 566880, Note_on_c, 8, 44, 105
10, 567072, Note_on_c, 8, 44, 0
10, 567120, Note_on_c, 8, 48, 105
10, 567312, Note_on_c, 8, 48, 0
10, 567360, Note_on_c, 8, 44, 105
10, 567552, Note_on_c, 8, 44, 0
10, 567600, Note_on_c, 8, 48, 105
10, 567792, Note_on_c, 8, 48, 0
10, 567840, Note_on_c, 8, 44, 105
10, 568032, Note_on_c, 8, 44, 0
10, 568080, Note_on_c, 8, 48, 105
10, 568272, Note_on_c, 8, 48, 0
10, 568320, Note_on_c, 8, 43, 105
10, 568512, Note_on_c, 8, 43, 0
10, 568560, Note_on_c, 8, 46, 105
10, 568752, Note_on_c, 8, 46, 0
10, 568800, Note_on_c, 8, 43, 105
10, 568992, Note_on_c, 8, 43, 0
10, 569040, Note_on_c, 8, 46, 105
10, 569232, Note_on_c, 8, 46, 0
10, 569280, Note_on_c, 8, 41, 105
10, 569472, Note_on_c, 8, 41, 0
10, 569520, Note_on_c, 8, 44, 105
10, 569712, Note_on_c, 8, 44, 0
10, 569760, Note_on_c, 8, 41, 105
10, 569952, Note_on_c, 8, 41, 0
10, 570000, Note_on_c, 8, 44, 105
10, 570192, Note_on_c, 8, 44, 0
10, 570240, Note_on_c, 8, 40, 105
10, 570432, Note_on_c, 8, 40, 0
10, 570480, Note_on_c, 8, 43, 105
10, 570672, Note_on_c, 8, 43, 0
10, 570720, Note_on_c, 8, 40, 105
10, 570912, Note_on_c, 8, 40, 0
10, 570960, Note_on_c, 8, 43, 105
10, 571152, Note_on_c, 8, 43, 0
10, 571200, Note_on_c, 8, 36, 105
10, 571392, Note_on_c, 8, 36, 0
10, 571440, Note_on_c, 8, 40, 105
10, 571632, Note_on_c, 8, 40, 0
10, 571680, Note_on_c, 8, 36, 105
10, 571872, Note_on_c, 8, 36, 0
10, 571920, Note_on_c, 8, 40, 105
10, 572112, Note_on_c, 8, 40, 0
10, 572160, Note_on_c, 8, 41, 105
10, 573696, Note_on_c, 8, 41, 0
10, 574080, Note_on_c, 8, 48, 105
10, 575232, Note_on_c, 8, 48, 0
10, 575760, Note_on_c, 8, 48, 105
10, 575904, Note_on_c, 8, 48, 0
10, 576000, Note_on_c, 8, 46, 105
10, 576288, Note_on_c, 8, 46, 0
10, 576480, Note_on_c, 8, 49, 105
10, 576768, Note_on_c, 8, 49, 0
10, 576960, Note_on_c, 8, 55, 105
10, 577248, Note_on_c, 8, 55, 0
10, 577920, Note_on_c, 8, 44, 105
10, 578208, Note_on_c, 8, 44, 0
10, 578400, Note_on_c, 8, 48, 105
10, 578688, Note_on_c, 8, 48, 0
10, 578880, Note_on_c, 8, 53, 105
10, 579168, Note_on_c, 8, 53, 0
10, 579600, Note_on_c, 8, 44, 105
10, 579744, Note_on_c, 8, 44, 0
10, 579840, Note_on_c, 8, 43, 105
10, 580128, Note_on_c, 8, 43, 0
10, 580320, Note_on_c, 8, 46, 105
10, 580608, Note_on_c, 8, 46, 0
10, 580800, Note_on_c, 8, 52, 105
10, 581088, Note_on_c, 8, 52, 0
10, 581520, Note_on_c, 8, 43, 105
10, 581664, Note_on_c, 8, 43, 0
10, 581760, Note_on_c, 8, 41, 105
10, 582048, Note_on_c, 8, 41, 0
10, 582240, Note_on_c, 8, 44, 105
10, 582528, Note_on_c, 8, 44, 0
10, 582720, Note_on_c, 8, 48, 105
10, 583008, Note_on_c, 8, 48, 0
10, 583440, Note_on_c, 8, 29, 105
10, 583584, Note_on_c, 8, 29, 0
10, 583680, Note_on_c, 8, 34, 105
10, 583968, Note_on_c, 8, 34, 0
10, 584160, Note_on_c, 8, 38, 105
10, 584448, Note_on_c, 8, 38, 0
10, 584640, Note_on_c, 8, 41, 105
10, 584928, Note_on_c, 8, 41, 0
10, 585360, Note_on_c, 8, 34, 105
10, 585504, Note_on_c, 8, 34, 0
10, 585600, Note_on_c, 8, 39, 105
10, 585888, Note_on_c, 8, 39, 0
10, 586080, Note_on_c, 8, 43, 105
10, 586368, Note_on_c, 8, 43, 0
10, 586560, Note_on_c, 8, 46, 105
10, 586848, Note_on_c, 8, 46, 0
10, 587280, Note_on_c, 8, 27, 105
10, 587424, Note_on_c, 8, 27, 0
10, 587520, Note_on_c, 8, 32, 105
10, 587808, Note_on_c, 8, 32, 0
10, 588000, Note_on_c, 8, 36, 105
10, 588288, Note_on_c, 8, 36, 0
10, 588480, Note_on_c, 8, 39, 105
10, 588768, Note_on_c, 8, 39, 0
10, 589200, Note_on_c, 8, 32, 105
10, 589344, Note_on_c, 8, 32, 0
10, 589440, Note_on_c, 8, 38, 105
10, 589728, Note_on_c, 8, 38, 0
10, 589920, Note_on_c, 8, 41, 105
10, 590208, Note_on_c, 8, 41, 0
10, 590400, Note_on_c, 8, 45, 105
10, 590688, Note_on_c, 8, 45, 0
10, 591120, Note_on_c, 8, 38, 105
10, 591264, Note_on_c, 8, 38, 0
10, 591360, Note_on_c, 8, 43, 105
10, 591648, Note_on_c, 8, 43, 0
10, 591840, Note_on_c, 8, 47, 105
10, 592128, Note_on_c, 8, 47, 0
10, 592320, Note_on_c, 8, 50, 105
10, 592608, Note_on_c, 8, 50, 0
10, 593040, Note_on_c, 8, 31, 105
10, 593184, Note_on_c, 8, 31, 0
10, 593280, Note_on_c, 8, 36, 105
10, 593568, Note_on_c, 8, 36, 0
10, 593760, Note_on_c, 8, 39, 105
10, 594048, Note_on_c, 8, 39, 0
10, 594240, Note_on_c, 8, 45, 105
10, 594528, Note_on_c, 8, 45, 0
10, 594960, Note_on_c, 8, 36, 105
10, 595104, Note_on_c, 8, 36, 0
10, 595200, Note_on_c, 8, 38, 105
10, 595488, Note_on_c, 8, 38, 0
10, 595680, Note_on_c, 8, 42, 105
10, 595968, Note_on_c, 8, 42, 0
10, 596160, Note_on_c, 8, 45, 105
10, 596448, Note_on_c, 8, 45, 0
10, 597120, Note_on_c, 8, 43, 105
10, 597312, Note_on_c, 8, 43, 0
10, 597360, Note_on_c, 8, 46, 105
10, 597552, Note_on_c, 8, 46, 0
10, 597600, Note_on_c, 8, 43, 105
10, 597792, Note_on_c, 8, 43, 0
10, 597840, Note_on_c, 8, 46, 105
10, 598032, Note_on_c, 8, 46, 0
10, 598080, Note_on_c, 8, 43, 105
10, 598272, Note_on_c, 8, 43, 0
10, 598320, Note_on_c, 8, 46, 105
10, 598512, Note_on_c, 8, 46, 0
10, 598560, Note_on_c, 8, 43, 105
10, 598752, Note_on_c, 8, 43, 0
10, 598800, Note_on_c, 8, 46, 105
10, 598992, Note_on_c, 8, 46, 0
10, 599040, Note_on_c, 8, 41, 105
10, 599232, Note_on_c, 8, 41, 0
10, 599280, Note_on_c, 8, 45, 105
10, 599472, Note_on_c, 8, 45, 0
10, 599520, Note_on_c, 8, 41, 105
10, 599712, Note_on_c, 8, 41, 0
10, 599760, Note_on_c, 8, 45, 105
10, 599952, Note_on_c, 8, 45, 0
10, 600000, Note_on_c, 8, 41, 105
10, 600192, Note_on_c, 8, 41, 0
10, 600240, Note_on_c, 8, 45, 105
10, 600432, Note_on_c, 8, 45, 0
10, 600480, Note_on_c, 8, 41, 105
10, 600672, Note_on_c, 8, 41, 0
10, 600720, Note_on_c, 8, 45, 105
10, 600912, Note_on_c, 8, 45, 0
10, 600960, Note_on_c, 8, 39, 105
10, 601152, Note_on_c, 8, 39, 0
10, 601200, Note_on_c, 8, 43, 105
10, 601392, Note_on_c, 8, 43, 0
10, 601440, Note_on_c, 8, 39, 105
10, 601632, Note_on_c, 8, 39, 0
10, 601680, Note_on_c, 8, 43, 105
10, 601872, Note_on_c, 8, 43, 0
10, 601920, Note_on_c, 8, 39, 105
10, 602112, Note_on_c, 8, 39, 0
10, 602160, Note_on_c, 8, 43, 105
10, 602352, Note_on_c, 8, 43, 0
10, 602400, Note_on_c, 8, 39, 105
10, 602592, Note_on_c, 8, 39, 0
10, 602640, Note_on_c, 8, 43, 105
10, 602832, Note_on_c, 8, 43, 0
10, 602880, Note_on_c, 8, 38, 105
10, 603072, Note_on_c, 8, 38, 0
10, 603120, Note_on_c, 8, 43, 105
10, 603312, Note_on_c, 8, 43, 0
10, 603360, Note_on_c, 8, 38, 105
10, 603552, Note_on_c, 8, 38, 0
10, 603600, Note_on_c, 8, 43, 105
10, 603792, Note_on_c, 8, 43, 0
10, 603840, Note_on_c, 8, 38, 105
10, 604032, Note_on_c, 8, 38, 0
10, 604080, Note_on_c, 8, 43, 105
10, 604272, Note_on_c, 8, 43, 0
10, 604320, Note_on_c, 8, 38, 105
10, 604512, Note_on_c, 8, 38, 0
10, 604560, Note_on_c, 8, 43, 105
10, 604752, Note_on_c, 8, 43, 0
10, 604800, Note_on_c, 8, 36, 105
10, 604992, Note_on_c, 8, 36, 0
10, 605040, Note_on_c, 8, 39, 105
10, 605232, Note_on_c, 8, 39, 0
10, 605280, Note_on_c, 8, 36, 105
10, 605472, Note_on_c, 8, 36, 0
10, 605520, Note_on_c, 8, 39, 105
10, 605712, Note_on_c, 8, 39, 0
10, 605760, Note_on_c, 8, 36, 105
10, 605952, Note_on_c, 8, 36, 0
10, 606000, Note_on_c, 8, 39, 105
10, 606192, Note_on_c, 8, 39, 0
10, 606240, Note_on_c, 8, 36, 105
10, 606432, Note_on_c, 8, 36, 0
10, 606480, Note_on_c, 8, 39, 105
10, 606672, Note_on_c, 8, 39, 0
10, 606720, Note_on_c, 8, 34, 105
10, 606912, Note_on_c, 8, 34, 0
10, 606960, Note_on_c, 8, 38, 105
10, 607152, Note_on_c, 8, 38, 0
10, 607200, Note_on_c, 8, 34, 105
10, 607392, Note_on_c, 8, 34, 0
10, 607440, Note_on_c, 8, 38, 105
10, 607632, Note_on_c, 8, 38, 0
10, 607680, Note_on_c, 8, 34, 105
10, 607872, Note_on_c, 8, 34, 0
10, 607920, Note_on_c, 8, 38, 105
10, 608112, Note_on_c, 8, 38, 0
10, 608160, Note_on_c, 8, 34, 105
10, 608352, Note_on_c, 8, 34, 0
10, 608400, Note_on_c, 8, 38, 105
10, 608592, Note_on_c, 8, 38, 0
10, 608640, Note_on_c, 8, 33, 125
10, 610176, Note_on_c, 8, 33, 0
10, 610560, Note_on_c, 8, 33, 125
10, 611328, Note_on_c, 8, 33, 0
10, 611520, Note_on_c, 8, 34, 125
10, 612288, Note_on_c, 8, 34, 0
10, 612480, Note_on_c, 8, 33, 125
10, 613248, Note_on_c, 8, 33, 0
10, 613440, Note_on_c, 8, 34, 125
10, 614208, Note_on_c, 8, 34, 0
10, 614400, Note_on_c, 8, 33, 125
10, 615168, Note_on_c, 8, 33, 0
10, 616080, Note_on_c, 8, 33, 105
10, 616272, Note_on_c, 8, 33, 0
10, 616320, Note_on_c, 8, 38, 105
10, 616512, Note_on_c, 8, 38, 0
10, 616560, Note_on_c, 8, 50, 105
10, 616752, Note_on_c, 8, 50, 0
10, 616800, Note_on_c, 8, 50, 105
10, 616992, Note_on_c, 8, 50, 0
10, 617040, Note_on_c, 8, 50, 105
10, 617232, Note_on_c, 8, 50, 0
10, 617280, Note_on_c, 8, 50, 105
10, 617472, Note_on_c, 8, 50, 0
10, 617520, Note_on_c, 8, 50, 105
10, 617712, Note_on_c, 8, 50, 0
10, 617760, Note_on_c, 8, 50, 105
10, 617952, Note_on_c, 8, 50, 0
10, 618000, Note_on_c, 8, 50, 105
10, 618192, Note_on_c, 8, 50, 0
10, 618240, Note_on_c, 8, 50, 105
10, 618432, Note_on_c, 8, 50, 0
10, 618480, Note_on_c, 8, 50, 105
10, 618672, Note_on_c, 8, 50, 0
10, 618720, Note_on_c, 8, 50, 105
10, 618912, Note_on_c, 8, 50, 0
10, 618960, Note_on_c, 8, 50, 105
10, 619152, Note_on_c, 8, 50, 0
10, 619200, Note_on_c, 8, 50, 105
10, 619392, Note_on_c, 8, 50, 0
10, 619440, Note_on_c, 8, 50, 105
10, 619632, Note_on_c, 8, 50, 0
10, 619680, Note_on_c, 8, 50, 105
10, 619872, Note_on_c, 8, 50, 0
10, 619920, Note_on_c, 8, 50, 105
10, 620112, Note_on_c, 8, 50, 0
10, 620160, Note_on_c, 8, 50, 105
10, 620352, Note_on_c, 8, 50, 0
10, 620400, Note_on_c, 8, 50, 105
10, 620592, Note_on_c, 8, 50, 0
10, 620640, Note_on_c, 8, 50, 105
10, 620832, Note_on_c, 8, 50, 0
10, 620880, Note_on_c, 8, 50, 105
10, 621072, Note_on_c, 8, 50, 0
10, 621120, Note_on_c, 8, 50, 105
10, 621312, Note_on_c, 8, 50, 0
10, 621360, Note_on_c, 8, 50, 105
10, 621552, Note_on_c, 8, 50, 0
10, 621600, Note_on_c, 8, 50, 105
10, 621792, Note_on_c, 8, 50, 0
10, 621840, Note_on_c, 8, 50, 105
10, 622032, Note_on_c, 8, 50, 0
10, 622080, Note_on_c, 8, 50, 105
10, 622272, Note_on_c, 8, 50, 0
10, 622320, Note_on_c, 8, 50, 105
10, 622512, Note_on_c, 8, 50, 0
10, 622560, Note_on_c, 8, 50, 105
10, 622752, Note_on_c, 8, 50, 0
10, 622800, Note_on_c, 8, 50, 105
10, 622992, Note_on_c, 8, 50, 0
10, 623040, Note_on_c, 8, 50, 105
10, 623232, Note_on_c, 8, 50, 0
10, 623280, Note_on_c, 8, 50, 105
10, 623472, Note_on_c, 8, 50, 0
10, 623520, Note_on_c, 8, 50, 105
10, 623712, Note_on_c, 8, 50, 0
10, 623760, Note_on_c, 8, 50, 105
10, 623952, Note_on_c, 8, 50, 0
10, 624000, Note_on_c, 8, 50, 105
10, 624384, Note_on_c, 8, 50, 0
10, 624960, Note_on_c, 8, 38, 92
10, 625344, Note_on_c, 8, 38, 0
10, 627840, Note_on_c, 8, 46, 58
10, 629280, Note_on_c, 8, 46, 0
10, 629280, Note_on_c, 8, 45, 58
10, 629760, Note_on_c, 8, 45, 0
10, 629760, Note_on_c, 8, 38, 58
10, 630144, Note_on_c, 8, 38, 0
10, 632160, Note_on_c, 8, 41, 58
10, 632640, Note_on_c, 8, 41, 0
10, 632640, Note_on_c, 8, 40, 58
10, 633120, Note_on_c, 8, 40, 0
10, 633120, Note_on_c, 8, 39, 58
10, 633600, Note_on_c, 8, 39, 0
10, 633600, Note_on_c, 8, 38, 58
10, 634368, Note_on_c, 8, 38, 0
10, 635520, Note_on_c, 8, 36, 58
10, 636960, Note_on_c, 8, 36, 0
10, 636960, Note_on_c, 8, 34, 58
10, 637344, Note_on_c, 8, 34, 0
10, 637440, Note_on_c, 8, 33, 58
10, 637920, Note_on_c, 8, 33, 0
10, 637920, Note_on_c, 8, 38, 58
10, 638400, Note_on_c, 8, 38, 0
10, 638400, Note_on_c, 8, 31, 58
10, 638880, Note_on_c, 8, 31, 0
10, 638880, Note_on_c, 8, 39, 58
10, 639264, Note_on_c, 8, 39, 0
10, 639360, Note_on_c, 8, 36, 58
10, 639744, Note_on_c, 8, 36, 0
10, 640320, Note_on_c, 8, 38, 58
10, 640704, Note_on_c, 8, 38, 0
10, 641280, Note_on_c, 8, 31, 58
10, 641664, Note_on_c, 8, 31, 0
10, 650880, Note_on_c, 8, 48, 58
10, 652320, Note_on_c, 8, 48, 0
10, 652320, Note_on_c, 8, 46, 58
10, 652704, Note_on_c, 8, 46, 0
10, 652800, Note_on_c, 8, 45, 58
10, 653280, Note_on_c, 8, 45, 0
10, 653280, Note_on_c, 8, 38, 58
10, 653760, Note_on_c, 8, 38, 0
10, 653760, Note_on_c, 8, 43, 58
10, 654240, Note_on_c, 8, 43, 0
10, 654240, Note_on_c, 8, 39, 58
10, 654624, Note_on_c, 8, 39, 0
10, 654720, Note_on_c, 8, 34, 58
10, 662304, Note_on_c, 8, 34, 0
10, 662400, Note_on_c, 8, 34, 58
10, 662592, Note_on_c, 8, 34, 0
10, 662640, Note_on_c, 8, 46, 70
10, 662832, Note_on_c, 8, 46, 0
10, 662880, Note_on_c, 8, 46, 72
10, 663072, Note_on_c, 8, 46, 0
10, 663120, Note_on_c, 8, 46, 75
10, 663312, Note_on_c, 8, 46, 0
10, 663360, Note_on_c, 8, 46, 78
10, 663552, Note_on_c, 8, 46, 0
10, 663600, Note_on_c, 8, 46, 80
10, 663792, Note_on_c, 8, 46, 0
10, 663840, Note_on_c, 8, 46, 83
10, 664032, Note_on_c, 8, 46, 0
10, 664080, Note_on_c, 8, 46, 86
10, 664272, Note_on_c, 8, 46, 0
10, 664320, Note_on_c, 8, 47, 88
10, 664512, Note_on_c, 8, 47, 0
10, 664560, Note_on_c, 8, 47, 91
10, 664752, Note_on_c, 8, 47, 0
10, 664800, Note_on_c, 8, 47, 94
10, 664992, Note_on_c, 8, 47, 0
10, 665040, Note_on_c, 8, 47, 96
10, 665232, Note_on_c, 8, 47, 0
10, 665280, Note_on_c, 8, 47, 99
10, 665472, Note_on_c, 8, 47, 0
10, 665520, Note_on_c, 8, 47, 102
10, 665712, Note_on_c, 8, 47, 0
10, 665760, Note_on_c, 8, 47, 105
10, 665952, Note_on_c, 8, 47, 0
10, 666000, Note_on_c, 8, 47, 107
10, 666192, Note_on_c, 8, 47, 0
10, 666240, Note_on_c, 8, 48, 105
10, 666432, Note_on_c, 8, 48, 0
10, 666480, Note_on_c, 8, 48, 105
10, 666672, Note_on_c, 8, 48, 0
10, 666720, Note_on_c, 8, 48, 105
10, 666912, Note_on_c, 8, 48, 0
10, 666960, Note_on_c, 8, 48, 105
10, 667152, Note_on_c, 8, 48, 0
10, 667200, Note_on_c, 8, 48, 105
10, 667392, Note_on_c, 8, 48, 0
10, 667440, Note_on_c, 8, 48, 105
10, 667632, Note_on_c, 8, 48, 0
10, 667680, Note_on_c, 8, 48, 105
10, 667872, Note_on_c, 8, 48, 0
10, 667920, Note_on_c, 8, 48, 105
10, 668112, Note_on_c, 8, 48, 0
10, 668160, Note_on_c, 8, 49, 105
10, 668352, Note_on_c, 8, 49, 0
10, 668400, Note_on_c, 8, 49, 105
10, 668592, Note_on_c, 8, 49, 0
10, 668640, Note_on_c, 8, 49, 105
10, 668832, Note_on_c, 8, 49, 0
10, 668880, Note_on_c, 8, 49, 105
10, 669072, Note_on_c, 8, 49, 0
10, 669120, Note_on_c, 8, 49, 105
10, 669312, Note_on_c, 8, 49, 0
10, 669360, Note_on_c, 8, 49, 105
10, 669552, Note_on_c, 8, 49, 0
10, 669600, Note_on_c, 8, 49, 105
10, 669792, Note_on_c, 8, 49, 0
10, 669840, Note_on_c, 8, 49, 105
10, 670032, Note_on_c, 8, 49, 0
10, 670080, Note_on_c, 8, 50, 105
10, 670272, Note_on_c, 8, 50, 0
10, 670320, Note_on_c, 8, 50, 105
10, 670512, Note_on_c, 8, 50, 0
10, 670560, Note_on_c, 8, 50, 105
10, 670752, Note_on_c, 8, 50, 0
10, 670800, Note_on_c, 8, 50, 105
10, 670992, Note_on_c, 8, 50, 0
10, 671040, Note_on_c, 8, 50, 105
10, 671232, Note_on_c, 8, 50, 0
10, 671280, Note_on_c, 8, 50, 105
10, 671472, Note_on_c, 8, 50, 0
10, 671520, Note_on_c, 8, 50, 105
10, 671712, Note_on_c, 8, 50, 0
10, 671760, Note_on_c, 8, 50, 105
10, 671952, Note_on_c, 8, 50, 0
10, 672000, Note_on_c, 8, 51, 105
10, 672192, Note_on_c, 8, 51, 0
10, 672240, Note_on_c, 8, 51, 105
10, 672432, Note_on_c, 8, 51, 0
10, 672480, Note_on_c, 8, 51, 105
10, 672672, Note_on_c, 8, 51, 0
10, 672720, Note_on_c, 8, 51, 105
10, 672912, Note_on_c, 8, 51, 0
10, 672960, Note_on_c, 8, 51, 105
10, 673152, Note_on_c, 8, 51, 0
10, 673200, Note_on_c, 8, 51, 105
10, 673392, Note_on_c, 8, 51, 0
10, 673440, Note_on_c, 8, 51, 105
10, 673632, Note_on_c, 8, 51, 0
10, 673680, Note_on_c, 8, 51, 105
10, 673872, Note_on_c, 8, 51, 0
10, 673920, Note_on_c, 8, 52, 105
10, 674112, Note_on_c, 8, 52, 0
10, 674160, Note_on_c, 8, 52, 105
10, 674352, Note_on_c, 8, 52, 0
10, 674400, Note_on_c, 8, 52, 105
10, 674592, Note_on_c, 8, 52, 0
10, 674640, Note_on_c, 8, 52, 105
10, 674832, Note_on_c, 8, 52, 0
10, 674880, Note_on_c, 8, 52, 105
10, 675072, Note_on_c, 8, 52, 0
10, 675120, Note_on_c, 8, 52, 105
10, 675312, Note_on_c, 8, 52, 0
10, 675360, Note_on_c, 8, 52, 105
10, 675552, Note_on_c, 8, 52, 0
10, 675600, Note_on_c, 8, 52, 105
10, 675792, Note_on_c, 8, 52, 0
10, 675840, Note_on_c, 8, 50, 105
10, 676032, Note_on_c, 8, 50, 0
10, 676080, Note_on_c, 8, 50, 105
10, 676272, Note_on_c, 8, 50, 0
10, 676320, Note_on_c, 8, 50, 105
10, 676512, Note_on_c, 8, 50, 0
10, 676560, Note_on_c, 8, 50, 105
10, 676752, Note_on_c, 8, 50, 0
10, 676800, Note_on_c, 8, 50, 105
10, 676992, Note_on_c, 8, 50, 0
10, 677040, Note_on_c, 8, 50, 105
10, 677232, Note_on_c, 8, 50, 0
10, 677280, Note_on_c, 8, 50, 105
10, 677472, Note_on_c, 8, 50, 0
10, 677520, Note_on_c, 8, 50, 105
10, 677712, Note_on_c, 8, 50, 0
10, 677760, Note_on_c, 8, 38, 105
10, 677952, Note_on_c, 8, 38, 0
10, 678000, Note_on_c, 8, 38, 105
10, 678192, Note_on_c, 8, 38, 0
10, 678240, Note_on_c, 8, 38, 105
10, 678432, Note_on_c, 8, 38, 0
10, 678480, Note_on_c, 8, 38, 105
10, 678672, Note_on_c, 8, 38, 0
10, 678720, Note_on_c, 8, 38, 105
10, 678912, Note_on_c, 8, 38, 0
10, 678960, Note_on_c, 8, 38, 105
10, 679152, Note_on_c, 8, 38, 0
10, 679200, Note_on_c, 8, 38, 105
10, 679392, Note_on_c, 8, 38, 0
10, 679440, Note_on_c, 8, 38, 105
10, 679632, Note_on_c, 8, 38, 0
10, 679680, Note_on_c, 8, 43, 92
10, 680064, Note_on_c, 8, 43, 0
10, 680160, Note_on_c, 8, 34, 125
10, 680928, Note_on_c, 8, 34, 0
10, 681120, Note_on_c, 8, 36, 105
10, 681408, Note_on_c, 8, 36, 0
10, 681600, Note_on_c, 8, 37, 105
10, 681888, Note_on_c, 8, 37, 0
10, 682080, Note_on_c, 8, 38, 105
10, 682368, Note_on_c, 8, 38, 0
10, 682560, Note_on_c, 8, 39, 105
10, 682848, Note_on_c, 8, 39, 0
10, 683040, Note_on_c, 8, 40, 105
10, 683328, Note_on_c, 8, 40, 0
10, 683520, Note_on_c, 8, 41, 105
10, 683904, Note_on_c, 8, 41, 0
10, 684360, Note_on_c, 8, 41, 105
10, 684456, Note_on_c, 8, 41, 0
10, 684480, Note_on_c, 8, 39, 105
10, 684864, Note_on_c, 8, 39, 0
10, 685320, Note_on_c, 8, 39, 105
10, 685416, Note_on_c, 8, 39, 0
10, 685440, Note_on_c, 8, 48, 105
10, 685824, Note_on_c, 8, 48, 0
10, 686280, Note_on_c, 8, 48, 105
10, 686376, Note_on_c, 8, 48, 0
10, 686400, Note_on_c, 8, 46, 105
10, 686784, Note_on_c, 8, 46, 0
10, 687240, Note_on_c, 8, 46, 105
10, 687336, Note_on_c, 8, 46, 0
10, 687360, Note_on_c, 8, 36, 105
10, 687744, Note_on_c, 8, 36, 0
10, 689280, Note_on_c, 8, 38, 70
10, 689664, Note_on_c, 8, 38, 0
10, 694080, Note_on_c, 8, 48, 58
10, 696000, Note_on_c, 8, 48, 0
10, 696000, Note_on_c, 8, 46, 58
10, 696384, Note_on_c, 8, 46, 0
10, 697920, Note_on_c, 8, 36, 58
10, 699840, Note_on_c, 8, 36, 0
10, 699840, Note_on_c, 8, 34, 58
10, 700224, Note_on_c, 8, 34, 0
10, 700800, Note_on_c, 8, 43, 105
10, 700992, Note_on_c, 8, 43, 0
10, 701040, Note_on_c, 8, 43, 105
10, 701232, Note_on_c, 8, 43, 0
10, 701280, Note_on_c, 8, 43, 105
10, 701472, Note_on_c, 8, 43, 0
10, 701520, Note_on_c, 8, 43, 105
10, 701712, Note_on_c, 8, 43, 0
10, 701760, Note_on_c, 8, 43, 105
10, 701952, Note_on_c, 8, 43, 0
10, 702000, Note_on_c, 8, 43, 105
10, 702192, Note_on_c, 8, 43, 0
10, 702240, Note_on_c, 8, 43, 105
10, 702432, Note_on_c, 8, 43, 0
10, 702480, Note_on_c, 8, 43, 105
10, 702672, Note_on_c, 8, 43, 0
10, 702720, Note_on_c, 8, 48, 105
10, 702936, Note_on_c, 8, 48, 0
10, 702960, Note_on_c, 8, 48, 105
10, 703176, Note_on_c, 8, 48, 0
10, 703200, Note_on_c, 8, 48, 105
10, 703416, Note_on_c, 8, 48, 0
10, 703440, Note_on_c, 8, 48, 105
10, 703656, Note_on_c, 8, 48, 0
10, 703680, Note_on_c, 8, 48, 105
10, 703896, Note_on_c, 8, 48, 0
10, 703920, Note_on_c, 8, 48, 105
10, 704136, Note_on_c, 8, 48, 0
10, 704160, Note_on_c, 8, 48, 105
10, 704376, Note_on_c, 8, 48, 0
10, 704400, Note_on_c, 8, 48, 105
10, 704616, Note_on_c, 8, 48, 0
10, 704640, Note_on_c, 8, 50, 105
10, 704832, Note_on_c, 8, 50, 0
10, 704880, Note_on_c, 8, 50, 105
10, 705072, Note_on_c, 8, 50, 0
10, 705120, Note_on_c, 8, 50, 105
10, 705312, Note_on_c, 8, 50, 0
10, 705360, Note_on_c, 8, 50, 105
10, 705552, Note_on_c, 8, 50, 0
10, 705600, Note_on_c, 8, 38, 105
10, 705792, Note_on_c, 8, 38, 0
10, 705840, Note_on_c, 8, 38, 105
10, 706032, Note_on_c, 8, 38, 0
10, 706080, Note_on_c, 8, 38, 105
10, 706272, Note_on_c, 8, 38, 0
10, 706320, Note_on_c, 8, 38, 105
10, 706512, Note_on_c, 8, 38, 0
10, 706560, Note_on_c, 8, 43, 105
10, 706944, Note_on_c, 8, 43, 0
10, 707520, Note_on_c, 8, 43, 58
10, 709440, Note_on_c, 8, 43, 0
10, 709440, Note_on_c, 8, 42, 58
10, 709824, Note_on_c, 8, 42, 0
10, 711360, Note_on_c, 8, 31, 58
10, 713280, Note_on_c, 8, 31, 0
10, 713280, Note_on_c, 8, 30, 58
10, 713664, Note_on_c, 8, 30, 0
10, 716160, Note_on_c, 8, 43, 105
10, 716352, Note_on_c, 8, 43, 0
10, 716400, Note_on_c, 8, 43, 105
10, 716592, Note_on_c, 8, 43, 0
10, 716640, Note_on_c, 8, 43, 105
10, 716832, Note_on_c, 8, 43, 0
10, 716880, Note_on_c, 8, 43, 105
10, 717072, Note_on_c, 8, 43, 0
10, 717120, Note_on_c, 8, 43, 105
10, 717312, Note_on_c, 8, 43, 0
10, 717360, Note_on_c, 8, 43, 105
10, 717552, Note_on_c, 8, 43, 0
10, 717600, Note_on_c, 8, 43, 105
10, 717792, Note_on_c, 8, 43, 0
10, 717840, Note_on_c, 8, 43, 105
10, 718032, Note_on_c, 8, 43, 0
10, 718080, Note_on_c, 8, 48, 105
10, 718296, Note_on_c, 8, 48, 0
10, 718320, Note_on_c, 8, 48, 105
10, 718536, Note_on_c, 8, 48, 0
10, 718560, Note_on_c, 8, 48, 105
10, 718776, Note_on_c, 8, 48, 0
10, 718800, Note_on_c, 8, 48, 105
10, 719016, Note_on_c, 8, 48, 0
10, 719040, Note_on_c, 8, 48, 105
10, 719256, Note_on_c, 8, 48, 0
10, 719280, Note_on_c, 8, 48, 105
10, 719496, Note_on_c, 8, 48, 0
10, 719520, Note_on_c, 8, 48, 105
10, 719736, Note_on_c, 8, 48, 0
10, 719760, Note_on_c, 8, 48, 105
10, 719976, Note_on_c, 8, 48, 0
10, 720000, Note_on_c, 8, 50, 105
10, 720192, Note_on_c, 8, 50, 0
10, 720240, Note_on_c, 8, 50, 105
10, 720432, Note_on_c, 8, 50, 0
10, 720480, Note_on_c, 8, 50, 105
10, 720672, Note_on_c, 8, 50, 0
10, 720720, Note_on_c, 8, 50, 105
10, 720912, Note_on_c, 8, 50, 0
10, 720960, Note_on_c, 8, 38, 105
10, 721152, Note_on_c, 8, 38, 0
10, 721200, Note_on_c, 8, 38, 105
10, 721392, Note_on_c, 8, 38, 0
10, 721440, Note_on_c, 8, 38, 105
10, 721632, Note_on_c, 8, 38, 0
10, 721680, Note_on_c, 8, 38, 105
10, 721872, Note_on_c, 8, 38, 0
10, 721920, Note_on_c, 8, 43, 105
10, 722688, Note_on_c, 8, 43, 0
10, 723600, Note_on_c, 8, 50, 105
10, 723792, Note_on_c, 8, 50, 0
10, 723840, Note_on_c, 8, 48, 105
10, 724032, Note_on_c, 8, 48, 0
10, 724080, Note_on_c, 8, 46, 105
10, 724272, Note_on_c, 8, 46, 0
10, 724320, Note_on_c, 8, 45, 105
10, 724512, Note_on_c, 8, 45, 0
10, 724560, Note_on_c, 8, 43, 105
10, 724752, Note_on_c, 8, 43, 0
10, 724800, Note_on_c, 8, 42, 105
10, 724992, Note_on_c, 8, 42, 0
10, 725040, Note_on_c, 8, 39, 105
10, 725232, Note_on_c, 8, 39, 0
10, 725280, Note_on_c, 8, 38, 105
10, 725472, Note_on_c, 8, 38, 0
10, 725520, Note_on_c, 8, 36, 105
10, 725712, Note_on_c, 8, 36, 0
10, 725760, Note_on_c, 8, 34, 105
10, 726072, Note_on_c, 8, 34, 0
10, 726240, Note_on_c, 8, 34, 105
10, 726552, Note_on_c, 8, 34, 0
10, 726720, Note_on_c, 8, 36, 105
10, 727032, Note_on_c, 8, 36, 0
10, 727200, Note_on_c, 8, 38, 105
10, 727512, Note_on_c, 8, 38, 0
10, 727680, Note_on_c, 8, 43, 105
10, 727872, Note_on_c, 8, 43, 0
10, 727920, Note_on_c, 8, 38, 105
10, 728112, Note_on_c, 8, 38, 0
10, 728160, Note_on_c, 8, 46, 105
10, 728352, Note_on_c, 8, 46, 0
10, 728400, Note_on_c, 8, 45, 105
10, 728592, Note_on_c, 8, 45, 0
10, 728640, Note_on_c, 8, 43, 105
10, 728832, Note_on_c, 8, 43, 0
10, 728880, Note_on_c, 8, 41, 105
10, 729072, Note_on_c, 8, 41, 0
10, 729120, Note_on_c, 8, 39, 105
10, 729312, Note_on_c, 8, 39, 0
10, 729360, Note_on_c, 8, 38, 105
10, 729552, Note_on_c, 8, 38, 0
10, 729600, Note_on_c, 8, 37, 105
10, 729792, Note_on_c, 8, 37, 0
10, 729840, Note_on_c, 8, 40, 105
10, 730032, Note_on_c, 8, 40, 0
10, 730080, Note_on_c, 8, 45, 105
10, 730272, Note_on_c, 8, 45, 0
10, 730320, Note_on_c, 8, 43, 105
10, 730512, Note_on_c, 8, 43, 0
10, 730560, Note_on_c, 8, 42, 105
10, 730752, Note_on_c, 8, 42, 0
10, 730800, Note_on_c, 8, 39, 105
10, 730992, Note_on_c, 8, 39, 0
10, 731040, Note_on_c, 8, 38, 105
10, 731232, Note_on_c, 8, 38, 0
10, 731280, Note_on_c, 8, 36, 105
10, 731472, Note_on_c, 8, 36, 0
10, 731520, Note_on_c, 8, 34, 105
10, 731904, Note_on_c, 8, 34, 0
10, 732360, Note_on_c, 8, 35, 105
10, 732456, Note_on_c, 8, 35, 0
10, 732480, Note_on_c, 8, 35, 105
10, 732864, Note_on_c, 8, 35, 0
10, 733320, Note_on_c, 8, 36, 105
10, 733416, Note_on_c, 8, 36, 0
10, 733440, Note_on_c, 8, 36, 105
10, 733824, Note_on_c, 8, 36, 0
10, 734280, Note_on_c, 8, 37, 105
10, 734376, Note_on_c, 8, 37, 0
10, 734400, Note_on_c, 8, 37, 105
10, 734784, Note_on_c, 8, 37, 0
10, 735240, Note_on_c, 8, 38, 105
10, 735336, Note_on_c, 8, 38, 0
10, 735360, Note_on_c, 8, 38, 105
10, 735744, Note_on_c, 8, 38, 0
10, 736200, Note_on_c, 8, 41, 105
10, 736296, Note_on_c, 8, 41, 0
10, 736320, Note_on_c, 8, 41, 105
10, 736704, Note_on_c, 8, 41, 0
10, 737160, Note_on_c, 8, 40, 105
10, 737256, Note_on_c, 8, 40, 0
10, 737280, Note_on_c, 8, 40, 105
10, 737664, Note_on_c, 8, 40, 0
10, 738120, Note_on_c, 8, 39, 105
10, 738216, Note_on_c, 8, 39, 0
10, 738240, Note_on_c, 8, 39, 105
10, 738624, Note_on_c, 8, 39, 0
10, 743040, Note_on_c, 8, 31, 58
10, 744000, Note_on_c, 8, 31, 0
10, 744000, Note_on_c, 8, 35, 58
10, 744768, Note_on_c, 8, 35, 0
10, 744960, Note_on_c, 8, 38, 58
10, 745920, Note_on_c, 8, 38, 0
10, 745920, Note_on_c, 8, 35, 58
10, 746688, Note_on_c, 8, 35, 0
10, 746880, Note_on_c, 8, 31, 58
10, 747840, Note_on_c, 8, 31, 0
10, 747840, Note_on_c, 8, 36, 58
10, 748800, Note_on_c, 8, 36, 0
10, 748800, Note_on_c, 8, 39, 58
10, 749760, Note_on_c, 8, 39, 0
10, 749760, Note_on_c, 8, 36, 58
10, 750528, Note_on_c, 8, 36, 0
10, 750720, Note_on_c, 8, 31, 58
10, 751680, Note_on_c, 8, 31, 0
10, 751680, Note_on_c, 8, 36, 58
10, 752640, Note_on_c, 8, 36, 0
10, 752640, Note_on_c, 8, 42, 58
10, 753600, Note_on_c, 8, 42, 0
10, 753600, Note_on_c, 8, 36, 58
10, 754368, Note_on_c, 8, 36, 0
10, 754560, Note_on_c, 8, 31, 105
10, 754944, Note_on_c, 8, 31, 0
10, 755520, Note_on_c, 8, 38, 105
10, 755904, Note_on_c, 8, 38, 0
10, 756480, Note_on_c, 8, 43, 105
10, 756864, Note_on_c, 8, 43, 0
10, 757440, Note_on_c, 8, 38, 105
10, 757824, Note_on_c, 8, 38, 0
10, 758400, Note_on_c, 8, 43, 105
10, 758784, Note_on_c, 8, 43, 0
10, 759360, Note_on_c, 8, 38, 105
10, 759744, Note_on_c, 8, 38, 0
10, 760320, Note_on_c, 8, 43, 105
10, 760656, Note_on_c, 8, 43, 0
10, 760800, Note_on_c, 8, 38, 105
10, 761136, Note_on_c, 8, 38, 0
10, 761280, Note_on_c, 8, 43, 105
10, 761616, Note_on_c, 8, 43, 0
10, 761760, Note_on_c, 8, 38, 105
10, 762096, Note_on_c, 8, 38, 0
10, 762240, Note_on_c, 8, 43, 105
10, 762624, Note_on_c, 8, 43, 0
10, 764160, Note_on_c, 8, 31, 105
10, 764544, Note_on_c, 8, 31, 0
10, 765120, Note_on_c, 8, 43, 105
10, 765504, Note_on_c, 8, 43, 0
10, 766080, Note_on_c, 8, 31, 105
10, 767040, Note_on_c, 8, 31, 0
10, 768960, Note_on_c, 8, 19, 1
10, 769728, Note_on_c, 8, 19, 0
10, 769728, End_track
0, 0, End_of_file