0, 0, Header, 1, 19, 240
1, 0, Start_track
1, 0, Sequencer_specific, 0A, 00, 00, 5B, 23, 01, 00, 05, 04, 23, 00
1, 0, Title_t, "W. A. Mozart - Requiem K. 626"
1, 0, Instrument_name_t, "Conductor Track"
1, 0, SMPTE_offset, 96, 0, 3, 0, 0
1, 0, MIDI_port, 0
1, 0, Key_signature, 2, "major"
1, 0, Tempo, 1200000
1, 0, Time_signature, 4, 2, 24, 8
1, 9600, Tempo, 500000
1, 9600, Time_signature, 3, 2, 24, 8
1, 30480, Tempo, 500000
1, 30480, End_track
2, 0, Start_track
2, 0, Title_t, "No. 10 - Sanctus"
2, 0, MIDI_port, 0
2, 0, End_track
3, 0, Start_track
3, 0, Title_t, "Sequenced by D. Viens 9 Nov 1997"
3, 0, MIDI_port, 0
3, 0, End_track
4, 0, Start_track
4, 0, Title_t, "dlviens@ix.netcom.com"
4, 0, MIDI_port, 0
4, 0, End_track
5, 0, Start_track
5, 0, MIDI_port, 0
5, 0, End_track
6, 0, Start_track
6, 0, Title_t, "Corni di Bassetto in F"
6, 0, MIDI_port, 0
6, 0, Control_c, 0, 7, 96
6, 0, Control_c, 0, 10, 75
6, 0, Control_c, 0, 11, 127
6, 0, Program_c, 0, 71
6, 0, Note_on_c, 0, 74, 72
6, 0, Note_on_c, 0, 69, 72
6, 479, Note_on_c, 0, 74, 0
6, 479, Note_on_c, 0, 69, 0
6, 480, Note_on_c, 0, 69, 72
6, 719, Note_on_c, 0, 69, 0
6, 960, Note_on_c, 0, 69, 72
6, 960, Note_on_c, 0, 67, 72
6, 1439, Note_on_c, 0, 69, 0
6, 1439, Note_on_c, 0, 67, 0
6, 1440, Note_on_c, 0, 69, 72
6, 1440, Note_on_c, 0, 67, 72
6, 1679, Note_on_c, 0, 69, 0
6, 1679, Note_on_c, 0, 67, 0
6, 1920, Note_on_c, 0, 74, 72
6, 1920, Note_on_c, 0, 69, 72
6, 2399, Note_on_c, 0, 74, 0
6, 2399, Note_on_c, 0, 69, 0
6, 2400, Note_on_c, 0, 74, 72
6, 2400, Note_on_c, 0, 69, 72
6, 2639, Note_on_c, 0, 74, 0
6, 2639, Note_on_c, 0, 69, 0
6, 2880, Note_on_c, 0, 74, 72
6, 2880, Note_on_c, 0, 67, 72
6, 3119, Note_on_c, 0, 74, 0
6, 3119, Note_on_c, 0, 67, 0
6, 3120, Note_on_c, 0, 73, 72
6, 3120, Note_on_c, 0, 69, 72
6, 3359, Note_on_c, 0, 73, 0
6, 3359, Note_on_c, 0, 69, 0
6, 3360, Note_on_c, 0, 71, 72
6, 3360, Note_on_c, 0, 64, 72
6, 3599, Note_on_c, 0, 71, 0
6, 3599, Note_on_c, 0, 64, 0
6, 3600, Note_on_c, 0, 69, 72
6, 3600, Note_on_c, 0, 66, 72
6, 3839, Note_on_c, 0, 69, 0
6, 3839, Note_on_c, 0, 66, 0
6, 3840, Note_on_c, 0, 76, 72
6, 3840, Note_on_c, 0, 67, 72
6, 4199, Note_on_c, 0, 76, 0
6, 4199, Note_on_c, 0, 67, 0
6, 4200, Note_on_c, 0, 74, 72
6, 4200, Note_on_c, 0, 66, 72
6, 4319, Note_on_c, 0, 74, 0
6, 4319, Note_on_c, 0, 66, 0
6, 4320, Note_on_c, 0, 73, 72
6, 4320, Note_on_c, 0, 64, 72
6, 4559, Note_on_c, 0, 73, 0
6, 4559, Note_on_c, 0, 64, 0
6, 5280, Note_on_c, 0, 69, 72
6, 5519, Note_on_c, 0, 69, 0
6, 5520, Note_on_c, 0, 71, 72
6, 5639, Note_on_c, 0, 71, 0
6, 5640, Note_on_c, 0, 72, 72
6, 5759, Note_on_c, 0, 72, 0
6, 5760, Note_on_c, 0, 71, 72
6, 6239, Note_on_c, 0, 71, 0
6, 6240, Note_on_c, 0, 69, 72
6, 6240, Note_on_c, 0, 69, 72
6, 6479, Note_on_c, 0, 69, 0
6, 6480, Note_on_c, 0, 66, 72
6, 6719, Note_on_c, 0, 69, 0
6, 6719, Note_on_c, 0, 66, 0
6, 6720, Note_on_c, 0, 74, 72
6, 6720, Note_on_c, 0, 71, 72
6, 6959, Note_on_c, 0, 74, 0
6, 6959, Note_on_c, 0, 71, 0
6, 6960, Note_on_c, 0, 73, 72
6, 6960, Note_on_c, 0, 69, 72
6, 7199, Note_on_c, 0, 73, 0
6, 7199, Note_on_c, 0, 69, 0
6, 7200, Note_on_c, 0, 76, 72
6, 7200, Note_on_c, 0, 67, 72
6, 7439, Note_on_c, 0, 76, 0
6, 7439, Note_on_c, 0, 67, 0
6, 7440, Note_on_c, 0, 74, 72
6, 7440, Note_on_c, 0, 66, 72
6, 7679, Note_on_c, 0, 74, 0
6, 7679, Note_on_c, 0, 66, 0
6, 7680, Note_on_c, 0, 73, 72
6, 7680, Note_on_c, 0, 64, 72
6, 7919, Note_on_c, 0, 73, 0
6, 7919, Note_on_c, 0, 64, 0
6, 7920, Note_on_c, 0, 74, 72
6, 7920, Note_on_c, 0, 62, 72
6, 8159, Note_on_c, 0, 62, 0
6, 8160, Note_on_c, 0, 71, 72
6, 8399, Note_on_c, 0, 74, 0
6, 8400, Note_on_c, 0, 76, 72
6, 8519, Note_on_c, 0, 76, 0
6, 8520, Note_on_c, 0, 74, 72
6, 8639, Note_on_c, 0, 71, 0
6, 8639, Note_on_c, 0, 74, 0
6, 8640, Note_on_c, 0, 73, 72
6, 8640, Note_on_c, 0, 69, 72
6, 8759, Note_on_c, 0, 69, 0
6, 8760, Note_on_c, 0, 67, 72
6, 8879, Note_on_c, 0, 73, 0
6, 8879, Note_on_c, 0, 67, 0
6, 8880, Note_on_c, 0, 74, 72
6, 8880, Note_on_c, 0, 66, 72
6, 9119, Note_on_c, 0, 66, 0
6, 9120, Note_on_c, 0, 64, 72
6, 9359, Note_on_c, 0, 74, 0
6, 9360, Note_on_c, 0, 73, 72
6, 9599, Note_on_c, 0, 64, 0
6, 9599, Note_on_c, 0, 73, 0
6, 9600, Note_on_c, 0, 74, 72
6, 9600, Note_on_c, 0, 62, 72
6, 9839, Note_on_c, 0, 74, 0
6, 9839, Note_on_c, 0, 62, 0
6, 9839, End_track
7, 0, Start_track
7, 0, Title_t, "Bassoon"
7, 0, MIDI_port, 0
7, 0, Program_c, 1, 70
7, 0, Control_c, 1, 7, 96
7, 0, Control_c, 1, 10, 65
7, 0, Control_c, 1, 11, 127
7, 0, Note_on_c, 1, 62, 72
7, 0, Note_on_c, 1, 66, 72
7, 479, Note_on_c, 1, 62, 0
7, 479, Note_on_c, 1, 66, 0
7, 480, Note_on_c, 1, 66, 72
7, 480, Note_on_c, 1, 62, 72
7, 719, Note_on_c, 1, 66, 0
7, 719, Note_on_c, 1, 62, 0
7, 960, Note_on_c, 1, 64, 72
7, 960, Note_on_c, 1, 61, 72
7, 1439, Note_on_c, 1, 64, 0
7, 1439, Note_on_c, 1, 61, 0
7, 1440, Note_on_c, 1, 64, 72
7, 1440, Note_on_c, 1, 61, 72
7, 1679, Note_on_c, 1, 64, 0
7, 1679, Note_on_c, 1, 61, 0
7, 1920, Note_on_c, 1, 66, 72
7, 1920, Note_on_c, 1, 60, 72
7, 2399, Note_on_c, 1, 66, 0
7, 2399, Note_on_c, 1, 60, 0
7, 2400, Note_on_c, 1, 66, 72
7, 2400, Note_on_c, 1, 60, 72
7, 2639, Note_on_c, 1, 66, 0
7, 2639, Note_on_c, 1, 60, 0
7, 2880, Note_on_c, 1, 62, 72
7, 2880, Note_on_c, 1, 59, 72
7, 3119, Note_on_c, 1, 62, 0
7, 3119, Note_on_c, 1, 59, 0
7, 3120, Note_on_c, 1, 66, 72
7, 3120, Note_on_c, 1, 57, 72
7, 3359, Note_on_c, 1, 66, 0
7, 3359, Note_on_c, 1, 57, 0
7, 3360, Note_on_c, 1, 59, 72
7, 3360, Note_on_c, 1, 55, 72
7, 3599, Note_on_c, 1, 59, 0
7, 3599, Note_on_c, 1, 55, 0
7, 3600, Note_on_c, 1, 62, 72
7, 3600, Note_on_c, 1, 54, 72
7, 3839, Note_on_c, 1, 62, 0
7, 3839, Note_on_c, 1, 54, 0
7, 3840, Note_on_c, 1, 64, 72
7, 3840, Note_on_c, 1, 52, 72
7, 3959, Note_on_c, 1, 64, 0
7, 3959, Note_on_c, 1, 52, 0
7, 3960, Note_on_c, 1, 49, 72
7, 3960, Note_on_c, 1, 57, 72
7, 4079, Note_on_c, 1, 49, 0
7, 4080, Note_on_c, 1, 50, 72
7, 4199, Note_on_c, 1, 57, 0
7, 4199, Note_on_c, 1, 50, 0
7, 4200, Note_on_c, 1, 62, 72
7, 4319, Note_on_c, 1, 62, 0
7, 4320, Note_on_c, 1, 57, 72
7, 4320, Note_on_c, 1, 64, 72
7, 4559, Note_on_c, 1, 57, 0
7, 4559, Note_on_c, 1, 64, 0
7, 4800, Note_on_c, 1, 60, 72
7, 5039, Note_on_c, 1, 60, 0
7, 5040, Note_on_c, 1, 60, 72
7, 5159, Note_on_c, 1, 60, 0
7, 5160, Note_on_c, 1, 60, 72
7, 5279, Note_on_c, 1, 60, 0
7, 5280, Note_on_c, 1, 63, 72
7, 5280, Note_on_c, 1, 60, 72
7, 5519, Note_on_c, 1, 63, 0
7, 5519, Note_on_c, 1, 60, 0
7, 5520, Note_on_c, 1, 63, 72
7, 5520, Note_on_c, 1, 59, 72
7, 5639, Note_on_c, 1, 63, 0
7, 5639, Note_on_c, 1, 59, 0
7, 5640, Note_on_c, 1, 63, 72
7, 5640, Note_on_c, 1, 57, 72
7, 5759, Note_on_c, 1, 63, 0
7, 5759, Note_on_c, 1, 57, 0
7, 5760, Note_on_c, 1, 64, 72
7, 5760, Note_on_c, 1, 55, 72
7, 5879, Note_on_c, 1, 55, 0
7, 5880, Note_on_c, 1, 54, 72
7, 5999, Note_on_c, 1, 54, 0
7, 6000, Note_on_c, 1, 55, 72
7, 6119, Note_on_c, 1, 55, 0
7, 6120, Note_on_c, 1, 52, 72
7, 6239, Note_on_c, 1, 64, 0
7, 6239, Note_on_c, 1, 52, 0
7, 6240, Note_on_c, 1, 54, 72
7, 6240, Note_on_c, 1, 60, 72
7, 6359, Note_on_c, 1, 54, 0
7, 6360, Note_on_c, 1, 57, 72
7, 6479, Note_on_c, 1, 60, 0
7, 6479, Note_on_c, 1, 57, 0
7, 6480, Note_on_c, 1, 59, 72
7, 6480, Note_on_c, 1, 59, 72
7, 6599, Note_on_c, 1, 59, 0
7, 6600, Note_on_c, 1, 57, 72
7, 6719, Note_on_c, 1, 59, 0
7, 6719, Note_on_c, 1, 57, 0
7, 6720, Note_on_c, 1, 64, 72
7, 6720, Note_on_c, 1, 56, 72
7, 6839, Note_on_c, 1, 56, 0
7, 6840, Note_on_c, 1, 52, 72
7, 6959, Note_on_c, 1, 52, 0
7, 6960, Note_on_c, 1, 57, 72
7, 7079, Note_on_c, 1, 57, 0
7, 7080, Note_on_c, 1, 45, 72
7, 7199, Note_on_c, 1, 64, 0
7, 7199, Note_on_c, 1, 45, 0
7, 7200, Note_on_c, 1, 64, 72
7, 7200, Note_on_c, 1, 61, 72
7, 7439, Note_on_c, 1, 64, 0
7, 7439, Note_on_c, 1, 61, 0
7, 7440, Note_on_c, 1, 66, 72
7, 7440, Note_on_c, 1, 62, 72
7, 7679, Note_on_c, 1, 66, 0
7, 7679, Note_on_c, 1, 62, 0
7, 7680, Note_on_c, 1, 67, 72
7, 7680, Note_on_c, 1, 58, 72
7, 7919, Note_on_c, 1, 67, 0
7, 7919, Note_on_c, 1, 58, 0
7, 7920, Note_on_c, 1, 66, 72
7, 7920, Note_on_c, 1, 59, 72
7, 8159, Note_on_c, 1, 59, 0
7, 8160, Note_on_c, 1, 55, 72
7, 8399, Note_on_c, 1, 66, 0
7, 8400, Note_on_c, 1, 67, 72
7, 8519, Note_on_c, 1, 67, 0
7, 8520, Note_on_c, 1, 66, 72
7, 8639, Note_on_c, 1, 55, 0
7, 8639, Note_on_c, 1, 66, 0
7, 8640, Note_on_c, 1, 64, 72
7, 8640, Note_on_c, 1, 57, 72
7, 8759, Note_on_c, 1, 57, 0
7, 8760, Note_on_c, 1, 45, 72
7, 8879, Note_on_c, 1, 64, 0
7, 8879, Note_on_c, 1, 45, 0
7, 8880, Note_on_c, 1, 62, 72
7, 8880, Note_on_c, 1, 57, 72
7, 8999, Note_on_c, 1, 57, 0
7, 9000, Note_on_c, 1, 57, 72
7, 9119, Note_on_c, 1, 62, 0
7, 9119, Note_on_c, 1, 57, 0
7, 9120, Note_on_c, 1, 64, 72
7, 9120, Note_on_c, 1, 57, 72
7, 9239, Note_on_c, 1, 57, 0
7, 9240, Note_on_c, 1, 45, 72
7, 9359, Note_on_c, 1, 45, 0
7, 9360, Note_on_c, 1, 57, 72
7, 9479, Note_on_c, 1, 57, 0
7, 9480, Note_on_c, 1, 57, 72
7, 9599, Note_on_c, 1, 64, 0
7, 9599, Note_on_c, 1, 57, 0
7, 9600, Note_on_c, 1, 50, 72
7, 9600, Note_on_c, 1, 66, 72
7, 9839, Note_on_c, 1, 50, 0
7, 9839, Note_on_c, 1, 66, 0
7, 9840, Note_on_c, 1, 50, 72
7, 10319, Note_on_c, 1, 50, 0
7, 10320, Note_on_c, 1, 49, 72
7, 10559, Note_on_c, 1, 49, 0
7, 10560, Note_on_c, 1, 55, 72
7, 11039, Note_on_c, 1, 55, 0
7, 11040, Note_on_c, 1, 54, 72
7, 11279, Note_on_c, 1, 54, 0
7, 11280, Note_on_c, 1, 50, 72
7, 11519, Note_on_c, 1, 50, 0
7, 11520, Note_on_c, 1, 57, 72
7, 11759, Note_on_c, 1, 57, 0
7, 11760, Note_on_c, 1, 59, 72
7, 12119, Note_on_c, 1, 59, 0
7, 12120, Note_on_c, 1, 57, 72
7, 12239, Note_on_c, 1, 57, 0
7, 12240, Note_on_c, 1, 55, 72
7, 12359, Note_on_c, 1, 55, 0
7, 12360, Note_on_c, 1, 54, 72
7, 12479, Note_on_c, 1, 54, 0
7, 12480, Note_on_c, 1, 52, 72
7, 12599, Note_on_c, 1, 52, 0
7, 12600, Note_on_c, 1, 50, 72
7, 12719, Note_on_c, 1, 50, 0
7, 12720, Note_on_c, 1, 49, 72
7, 12720, Note_on_c, 1, 57, 72
7, 12839, Note_on_c, 1, 49, 0
7, 12840, Note_on_c, 1, 50, 72
7, 12959, Note_on_c, 1, 50, 0
7, 12960, Note_on_c, 1, 47, 72
7, 13079, Note_on_c, 1, 47, 0
7, 13080, Note_on_c, 1, 49, 72
7, 13199, Note_on_c, 1, 57, 0
7, 13199, Note_on_c, 1, 49, 0
7, 13200, Note_on_c, 1, 54, 72
7, 13200, Note_on_c, 1, 50, 72
7, 13439, Note_on_c, 1, 54, 0
7, 13439, Note_on_c, 1, 50, 0
7, 13440, Note_on_c, 1, 47, 72
7, 13440, Note_on_c, 1, 62, 72
7, 13679, Note_on_c, 1, 47, 0
7, 13680, Note_on_c, 1, 52, 72
7, 13919, Note_on_c, 1, 62, 0
7, 13919, Note_on_c, 1, 52, 0
7, 13920, Note_on_c, 1, 61, 72
7, 13920, Note_on_c, 1, 45, 72
7, 14159, Note_on_c, 1, 61, 0
7, 14159, Note_on_c, 1, 45, 0
7, 14160, Note_on_c, 1, 57, 72
7, 14160, Note_on_c, 1, 47, 72
7, 14399, Note_on_c, 1, 57, 0
7, 14399, Note_on_c, 1, 47, 0
7, 14400, Note_on_c, 1, 64, 72
7, 14400, Note_on_c, 1, 49, 72
7, 14639, Note_on_c, 1, 64, 0
7, 14639, Note_on_c, 1, 49, 0
7, 14640, Note_on_c, 1, 66, 72
7, 14640, Note_on_c, 1, 50, 72
7, 14879, Note_on_c, 1, 50, 0
7, 14880, Note_on_c, 1, 52, 72
7, 14999, Note_on_c, 1, 66, 0
7, 15000, Note_on_c, 1, 64, 72
7, 15119, Note_on_c, 1, 52, 0
7, 15119, Note_on_c, 1, 64, 0
7, 15120, Note_on_c, 1, 54, 72
7, 15120, Note_on_c, 1, 62, 72
7, 15239, Note_on_c, 1, 62, 0
7, 15240, Note_on_c, 1, 61, 72
7, 15359, Note_on_c, 1, 54, 0
7, 15359, Note_on_c, 1, 61, 0
7, 15360, Note_on_c, 1, 59, 72
7, 15360, Note_on_c, 1, 50, 72
7, 15479, Note_on_c, 1, 59, 0
7, 15480, Note_on_c, 1, 57, 72
7, 15599, Note_on_c, 1, 57, 0
7, 15600, Note_on_c, 1, 56, 72
7, 15719, Note_on_c, 1, 56, 0
7, 15720, Note_on_c, 1, 57, 72
7, 15839, Note_on_c, 1, 50, 0
7, 15839, Note_on_c, 1, 57, 0
7, 15840, Note_on_c, 1, 54, 72
7, 15840, Note_on_c, 1, 52, 72
7, 15959, Note_on_c, 1, 54, 0
7, 15960, Note_on_c, 1, 56, 72
7, 16079, Note_on_c, 1, 56, 0
7, 16080, Note_on_c, 1, 57, 72
7, 16199, Note_on_c, 1, 52, 0
7, 16200, Note_on_c, 1, 50, 72
7, 16319, Note_on_c, 1, 57, 0
7, 16319, Note_on_c, 1, 50, 0
7, 16320, Note_on_c, 1, 49, 72
7, 16439, Note_on_c, 1, 49, 0
7, 16440, Note_on_c, 1, 50, 72
7, 16559, Note_on_c, 1, 50, 0
7, 16560, Note_on_c, 1, 47, 72
7, 16560, Note_on_c, 1, 57, 72
7, 16679, Note_on_c, 1, 47, 0
7, 16680, Note_on_c, 1, 49, 72
7, 16799, Note_on_c, 1, 49, 0
7, 16800, Note_on_c, 1, 50, 72
7, 16919, Note_on_c, 1, 57, 0
7, 16920, Note_on_c, 1, 55, 72
7, 17039, Note_on_c, 1, 50, 0
7, 17039, Note_on_c, 1, 55, 0
7, 17040, Note_on_c, 1, 54, 72
7, 17159, Note_on_c, 1, 54, 0
7, 17160, Note_on_c, 1, 55, 72
7, 17279, Note_on_c, 1, 55, 0
7, 17280, Note_on_c, 1, 52, 72
7, 17280, Note_on_c, 1, 50, 72
7, 17399, Note_on_c, 1, 52, 0
7, 17400, Note_on_c, 1, 54, 72
7, 17519, Note_on_c, 1, 54, 0
7, 17520, Note_on_c, 1, 55, 72
7, 17639, Note_on_c, 1, 50, 0
7, 17640, Note_on_c, 1, 49, 72
7, 17759, Note_on_c, 1, 55, 0
7, 17759, Note_on_c, 1, 49, 0
7, 17760, Note_on_c, 1, 47, 72
7, 17760, Note_on_c, 1, 67, 72
7, 17879, Note_on_c, 1, 47, 0
7, 17879, Note_on_c, 1, 67, 0
7, 17880, Note_on_c, 1, 49, 72
7, 17880, Note_on_c, 1, 66, 72
7, 17999, Note_on_c, 1, 49, 0
7, 17999, Note_on_c, 1, 66, 0
7, 18000, Note_on_c, 1, 45, 72
7, 18000, Note_on_c, 1, 64, 72
7, 18119, Note_on_c, 1, 45, 0
7, 18119, Note_on_c, 1, 64, 0
7, 18120, Note_on_c, 1, 47, 72
7, 18120, Note_on_c, 1, 62, 72
7, 18239, Note_on_c, 1, 47, 0
7, 18239, Note_on_c, 1, 62, 0
7, 18240, Note_on_c, 1, 61, 72
7, 18240, Note_on_c, 1, 43, 72
7, 18359, Note_on_c, 1, 61, 0
7, 18360, Note_on_c, 1, 59, 72
7, 18479, Note_on_c, 1, 59, 0
7, 18480, Note_on_c, 1, 57, 72
7, 18599, Note_on_c, 1, 57, 0
7, 18600, Note_on_c, 1, 55, 72
7, 18719, Note_on_c, 1, 43, 0
7, 18719, Note_on_c, 1, 55, 0
7, 18720, Note_on_c, 1, 54, 72
7, 18720, Note_on_c, 1, 45, 72
7, 18839, Note_on_c, 1, 54, 0
7, 18840, Note_on_c, 1, 52, 72
7, 18959, Note_on_c, 1, 45, 0
7, 18959, Note_on_c, 1, 52, 0
7, 18960, Note_on_c, 1, 47, 72
7, 18960, Note_on_c, 1, 50, 72
7, 19199, Note_on_c, 1, 50, 0
7, 19200, Note_on_c, 1, 62, 72
7, 19319, Note_on_c, 1, 62, 0
7, 19320, Note_on_c, 1, 61, 72
7, 19439, Note_on_c, 1, 47, 0
7, 19439, Note_on_c, 1, 61, 0
7, 19440, Note_on_c, 1, 59, 72
7, 19440, Note_on_c, 1, 52, 72
7, 19679, Note_on_c, 1, 59, 0
7, 19679, Note_on_c, 1, 52, 0
7, 19680, Note_on_c, 1, 57, 72
7, 19680, Note_on_c, 1, 45, 72
7, 19919, Note_on_c, 1, 57, 0
7, 19919, Note_on_c, 1, 45, 0
7, 19920, Note_on_c, 1, 59, 72
7, 20159, Note_on_c, 1, 59, 0
7, 20160, Note_on_c, 1, 61, 72
7, 20399, Note_on_c, 1, 61, 0
7, 20400, Note_on_c, 1, 62, 72
7, 20639, Note_on_c, 1, 62, 0
7, 20640, Note_on_c, 1, 64, 72
7, 20879, Note_on_c, 1, 64, 0
7, 20880, Note_on_c, 1, 66, 72
7, 20999, Note_on_c, 1, 66, 0
7, 21000, Note_on_c, 1, 64, 72
7, 21119, Note_on_c, 1, 64, 0
7, 21120, Note_on_c, 1, 62, 72
7, 21239, Note_on_c, 1, 62, 0
7, 21240, Note_on_c, 1, 61, 72
7, 21359, Note_on_c, 1, 61, 0
7, 21360, Note_on_c, 1, 59, 72
7, 21360, Note_on_c, 1, 52, 72
7, 21479, Note_on_c, 1, 59, 0
7, 21480, Note_on_c, 1, 61, 72
7, 21599, Note_on_c, 1, 61, 0
7, 21600, Note_on_c, 1, 57, 72
7, 21719, Note_on_c, 1, 57, 0
7, 21720, Note_on_c, 1, 59, 72
7, 21839, Note_on_c, 1, 52, 0
7, 21839, Note_on_c, 1, 59, 0
7, 21840, Note_on_c, 1, 49, 72
7, 21840, Note_on_c, 1, 61, 72
7, 21959, Note_on_c, 1, 61, 0
7, 21960, Note_on_c, 1, 62, 72
7, 22079, Note_on_c, 1, 49, 0
7, 22079, Note_on_c, 1, 62, 0
7, 22080, Note_on_c, 1, 57, 72
7, 22080, Note_on_c, 1, 64, 72
7, 22199, Note_on_c, 1, 64, 0
7, 22200, Note_on_c, 1, 66, 72
7, 22319, Note_on_c, 1, 66, 0
7, 22320, Note_on_c, 1, 62, 72
7, 22439, Note_on_c, 1, 62, 0
7, 22440, Note_on_c, 1, 64, 72
7, 22559, Note_on_c, 1, 57, 0
7, 22559, Note_on_c, 1, 64, 0
7, 22560, Note_on_c, 1, 66, 72
7, 22560, Note_on_c, 1, 54, 72
7, 22799, Note_on_c, 1, 66, 0
7, 22799, Note_on_c, 1, 54, 0
7, 22800, Note_on_c, 1, 50, 72
7, 23039, Note_on_c, 1, 50, 0
7, 23040, Note_on_c, 1, 57, 72
7, 23279, Note_on_c, 1, 57, 0
7, 23280, Note_on_c, 1, 59, 72
7, 23639, Note_on_c, 1, 59, 0
7, 23640, Note_on_c, 1, 57, 72
7, 23759, Note_on_c, 1, 57, 0
7, 23760, Note_on_c, 1, 55, 72
7, 23879, Note_on_c, 1, 55, 0
7, 23880, Note_on_c, 1, 54, 72
7, 23999, Note_on_c, 1, 54, 0
7, 24000, Note_on_c, 1, 52, 72
7, 24119, Note_on_c, 1, 52, 0
7, 24120, Note_on_c, 1, 50, 72
7, 24239, Note_on_c, 1, 50, 0
7, 24240, Note_on_c, 1, 49, 72
7, 24240, Note_on_c, 1, 57, 72
7, 24359, Note_on_c, 1, 49, 0
7, 24360, Note_on_c, 1, 50, 72
7, 24479, Note_on_c, 1, 50, 0
7, 24480, Note_on_c, 1, 47, 72
7, 24599, Note_on_c, 1, 47, 0
7, 24600, Note_on_c, 1, 49, 72
7, 24719, Note_on_c, 1, 57, 0
7, 24719, Note_on_c, 1, 49, 0
7, 24720, Note_on_c, 1, 54, 72
7, 24720, Note_on_c, 1, 50, 72
7, 24839, Note_on_c, 1, 50, 0
7, 24840, Note_on_c, 1, 52, 72
7, 24959, Note_on_c, 1, 54, 0
7, 24959, Note_on_c, 1, 52, 0
7, 24960, Note_on_c, 1, 62, 72
7, 24960, Note_on_c, 1, 54, 72
7, 25079, Note_on_c, 1, 54, 0
7, 25080, Note_on_c, 1, 52, 72
7, 25199, Note_on_c, 1, 52, 0
7, 25200, Note_on_c, 1, 54, 72
7, 25319, Note_on_c, 1, 54, 0
7, 25320, Note_on_c, 1, 56, 72
7, 25439, Note_on_c, 1, 62, 0
7, 25439, Note_on_c, 1, 56, 0
7, 25440, Note_on_c, 1, 61, 72
7, 25440, Note_on_c, 1, 57, 72
7, 25679, Note_on_c, 1, 61, 0
7, 25679, Note_on_c, 1, 57, 0
7, 25680, Note_on_c, 1, 57, 72
7, 25919, Note_on_c, 1, 57, 0
7, 25920, Note_on_c, 1, 64, 72
7, 25920, Note_on_c, 1, 57, 72
7, 26159, Note_on_c, 1, 64, 0
7, 26159, Note_on_c, 1, 57, 0
7, 26160, Note_on_c, 1, 62, 72
7, 26160, Note_on_c, 1, 50, 72
7, 26879, Note_on_c, 1, 50, 0
7, 26880, Note_on_c, 1, 55, 72
7, 27359, Note_on_c, 1, 62, 0
7, 27359, Note_on_c, 1, 55, 0
7, 27360, Note_on_c, 1, 67, 72
7, 27360, Note_on_c, 1, 55, 72
7, 27599, Note_on_c, 1, 67, 0
7, 27599, Note_on_c, 1, 55, 0
7, 27600, Note_on_c, 1, 57, 72
7, 27600, Note_on_c, 1, 64, 72
7, 28079, Note_on_c, 1, 57, 0
7, 28079, Note_on_c, 1, 64, 0
7, 28080, Note_on_c, 1, 64, 72
7, 28080, Note_on_c, 1, 57, 72
7, 28319, Note_on_c, 1, 64, 0
7, 28319, Note_on_c, 1, 57, 0
7, 28320, Note_on_c, 1, 62, 72
7, 28320, Note_on_c, 1, 59, 72
7, 28559, Note_on_c, 1, 59, 0
7, 28560, Note_on_c, 1, 55, 72
7, 28799, Note_on_c, 1, 62, 0
7, 28799, Note_on_c, 1, 55, 0
7, 28800, Note_on_c, 1, 57, 72
7, 28800, Note_on_c, 1, 61, 72
7, 29039, Note_on_c, 1, 57, 0
7, 29039, Note_on_c, 1, 61, 0
7, 29040, Note_on_c, 1, 62, 72
7, 29040, Note_on_c, 1, 50, 72
7, 29279, Note_on_c, 1, 62, 0
7, 29279, Note_on_c, 1, 50, 0
7, 29279, End_track
8, 0, Start_track
8, 0, Title_t, "Trumpet in D"
8, 0, MIDI_port, 0
8, 0, Program_c, 2, 56
8, 0, Control_c, 2, 7, 96
8, 0, Control_c, 2, 10, 60
8, 0, Control_c, 2, 11, 127
8, 0, Note_on_c, 2, 74, 72
8, 0, Note_on_c, 2, 62, 72
8, 479, Note_on_c, 2, 74, 0
8, 479, Note_on_c, 2, 62, 0
8, 480, Note_on_c, 2, 69, 72
8, 480, Note_on_c, 2, 66, 72
8, 719, Note_on_c, 2, 69, 0
8, 719, Note_on_c, 2, 66, 0
8, 960, Note_on_c, 2, 76, 72
8, 960, Note_on_c, 2, 71, 72
8, 1439, Note_on_c, 2, 76, 0
8, 1439, Note_on_c, 2, 71, 0
8, 1440, Note_on_c, 2, 69, 72
8, 1440, Note_on_c, 2, 57, 72
8, 1679, Note_on_c, 2, 69, 0
8, 1679, Note_on_c, 2, 57, 0
8, 1920, Note_on_c, 2, 78, 72
8, 1920, Note_on_c, 2, 69, 72
8, 2399, Note_on_c, 2, 78, 0
8, 2399, Note_on_c, 2, 69, 0
8, 2400, Note_on_c, 2, 74, 72
8, 2400, Note_on_c, 2, 66, 72
8, 2639, Note_on_c, 2, 74, 0
8, 2639, Note_on_c, 2, 66, 0
8, 2880, Note_on_c, 2, 74, 72
8, 2880, Note_on_c, 2, 62, 72
8, 2999, Note_on_c, 2, 74, 0
8, 2999, Note_on_c, 2, 62, 0
8, 3120, Note_on_c, 2, 78, 72
8, 3120, Note_on_c, 2, 66, 72
8, 3239, Note_on_c, 2, 78, 0
8, 3239, Note_on_c, 2, 66, 0
8, 3360, Note_on_c, 2, 76, 72
8, 3479, Note_on_c, 2, 76, 0
8, 3600, Note_on_c, 2, 74, 72
8, 3600, Note_on_c, 2, 69, 72
8, 3719, Note_on_c, 2, 74, 0
8, 3719, Note_on_c, 2, 69, 0
8, 3840, Note_on_c, 2, 69, 72
8, 3959, Note_on_c, 2, 69, 0
8, 4080, Note_on_c, 2, 69, 72
8, 4080, Note_on_c, 2, 62, 72
8, 4199, Note_on_c, 2, 69, 0
8, 4199, Note_on_c, 2, 62, 0
8, 4320, Note_on_c, 2, 69, 72
8, 4320, Note_on_c, 2, 57, 72
8, 4439, Note_on_c, 2, 69, 0
8, 4439, Note_on_c, 2, 57, 0
8, 4440, Note_on_c, 2, 69, 72
8, 4440, Note_on_c, 2, 57, 72
8, 4559, Note_on_c, 2, 69, 0
8, 4559, Note_on_c, 2, 57, 0
8, 4560, Note_on_c, 2, 69, 72
8, 4560, Note_on_c, 2, 57, 72
8, 4799, Note_on_c, 2, 69, 0
8, 4799, Note_on_c, 2, 57, 0
8, 5280, Note_on_c, 2, 69, 80
8, 5280, Note_on_c, 2, 57, 80
8, 5519, Note_on_c, 2, 69, 0
8, 5519, Note_on_c, 2, 57, 0
8, 7200, Note_on_c, 2, 76, 72
8, 7200, Note_on_c, 2, 69, 72
8, 7439, Note_on_c, 2, 76, 0
8, 7439, Note_on_c, 2, 69, 0
8, 7440, Note_on_c, 2, 78, 72
8, 7440, Note_on_c, 2, 74, 72
8, 7679, Note_on_c, 2, 78, 0
8, 7679, Note_on_c, 2, 74, 0
8, 7920, Note_on_c, 2, 74, 72
8, 7920, Note_on_c, 2, 62, 72
8, 8039, Note_on_c, 2, 74, 0
8, 8039, Note_on_c, 2, 62, 0
8, 8040, Note_on_c, 2, 74, 72
8, 8040, Note_on_c, 2, 62, 72
8, 8159, Note_on_c, 2, 74, 0
8, 8159, Note_on_c, 2, 62, 0
8, 8160, Note_on_c, 2, 74, 72
8, 8160, Note_on_c, 2, 62, 72
8, 8399, Note_on_c, 2, 74, 0
8, 8399, Note_on_c, 2, 62, 0
8, 8640, Note_on_c, 2, 69, 72
8, 8640, Note_on_c, 2, 57, 72
8, 8759, Note_on_c, 2, 69, 0
8, 8759, Note_on_c, 2, 57, 0
8, 8880, Note_on_c, 2, 57, 72
8, 8880, Note_on_c, 2, 69, 72
8, 8999, Note_on_c, 2, 57, 0
8, 8999, Note_on_c, 2, 69, 0
8, 9120, Note_on_c, 2, 69, 72
8, 9120, Note_on_c, 2, 57, 72
8, 9239, Note_on_c, 2, 69, 0
8, 9239, Note_on_c, 2, 57, 0
8, 9360, Note_on_c, 2, 69, 72
8, 9360, Note_on_c, 2, 57, 72
8, 9479, Note_on_c, 2, 69, 0
8, 9479, Note_on_c, 2, 57, 0
8, 9600, Note_on_c, 2, 66, 72
8, 9600, Note_on_c, 2, 62, 72
8, 9839, Note_on_c, 2, 66, 0
8, 9839, Note_on_c, 2, 62, 0
8, 22320, Note_on_c, 2, 69, 72
8, 22559, Note_on_c, 2, 69, 0
8, 22560, Note_on_c, 2, 74, 72
8, 22560, Note_on_c, 2, 62, 72
8, 22799, Note_on_c, 2, 74, 0
8, 22799, Note_on_c, 2, 62, 0
8, 26160, Note_on_c, 2, 69, 72
8, 26160, Note_on_c, 2, 62, 72
8, 26399, Note_on_c, 2, 69, 0
8, 26399, Note_on_c, 2, 62, 0
8, 26880, Note_on_c, 2, 62, 72
8, 27119, Note_on_c, 2, 62, 0
8, 27600, Note_on_c, 2, 76, 72
8, 27600, Note_on_c, 2, 69, 72
8, 28079, Note_on_c, 2, 76, 0
8, 28079, Note_on_c, 2, 69, 0
8, 28080, Note_on_c, 2, 76, 72
8, 28080, Note_on_c, 2, 69, 72
8, 28319, Note_on_c, 2, 76, 0
8, 28319, Note_on_c, 2, 69, 0
8, 28320, Note_on_c, 2, 78, 72
8, 28320, Note_on_c, 2, 74, 72
8, 28559, Note_on_c, 2, 78, 0
8, 28560, Note_on_c, 2, 76, 72
8, 28799, Note_on_c, 2, 74, 0
8, 28799, Note_on_c, 2, 76, 0
8, 28800, Note_on_c, 2, 76, 72
8, 28800, Note_on_c, 2, 69, 72
8, 29039, Note_on_c, 2, 76, 0
8, 29039, Note_on_c, 2, 69, 0
8, 29040, Note_on_c, 2, 74, 72
8, 29040, Note_on_c, 2, 66, 72
8, 29279, Note_on_c, 2, 74, 0
8, 29279, Note_on_c, 2, 66, 0
8, 29279, End_track
9, 0, Start_track
9, 0, Title_t, "Violin I"
9, 0, MIDI_port, 0
9, 0, Program_c, 4, 48
9, 0, Control_c, 4, 7, 96
9, 0, Control_c, 4, 10, 48
9, 0, Control_c, 4, 11, 127
9, 480, Note_on_c, 4, 62, 72
9, 539, Note_on_c, 4, 62, 0
9, 540, Note_on_c, 4, 81, 72
9, 599, Note_on_c, 4, 81, 0
9, 600, Note_on_c, 4, 81, 72
9, 659, Note_on_c, 4, 81, 0
9, 660, Note_on_c, 4, 81, 72
9, 719, Note_on_c, 4, 81, 0
9, 720, Note_on_c, 4, 81, 72
9, 720, Program_c, 4, 44
9, 959, Note_on_c, 4, 81, 0
9, 960, Program_c, 4, 48
9, 1440, Note_on_c, 4, 61, 72
9, 1499, Note_on_c, 4, 61, 0
9, 1500, Note_on_c, 4, 81, 72
9, 1559, Note_on_c, 4, 81, 0
9, 1560, Note_on_c, 4, 81, 72
9, 1619, Note_on_c, 4, 81, 0
9, 1620, Note_on_c, 4, 81, 72
9, 1679, Note_on_c, 4, 81, 0
9, 1680, Program_c, 4, 44
9, 1680, Note_on_c, 4, 81, 72
9, 1919, Note_on_c, 4, 81, 0
9, 1920, Program_c, 4, 48
9, 2400, Note_on_c, 4, 60, 72
9, 2459, Note_on_c, 4, 60, 0
9, 2460, Note_on_c, 4, 81, 72
9, 2519, Note_on_c, 4, 81, 0
9, 2520, Note_on_c, 4, 81, 72
9, 2579, Note_on_c, 4, 81, 0
9, 2580, Note_on_c, 4, 81, 72
9, 2639, Note_on_c, 4, 81, 0
9, 2640, Program_c, 4, 44
9, 2640, Note_on_c, 4, 81, 72
9, 2879, Note_on_c, 4, 81, 0
9, 2880, Program_c, 4, 48
9, 2880, Note_on_c, 4, 79, 72
9, 2939, Note_on_c, 4, 79, 0
9, 2940, Note_on_c, 4, 86, 72
9, 2999, Note_on_c, 4, 86, 0
9, 3000, Note_on_c, 4, 86, 72
9, 3059, Note_on_c, 4, 86, 0
9, 3060, Note_on_c, 4, 86, 72
9, 3119, Note_on_c, 4, 86, 0
9, 3120, Note_on_c, 4, 69, 72
9, 3179, Note_on_c, 4, 69, 0
9, 3180, Note_on_c, 4, 85, 72
9, 3239, Note_on_c, 4, 85, 0
9, 3240, Note_on_c, 4, 85, 72
9, 3299, Note_on_c, 4, 85, 0
9, 3300, Note_on_c, 4, 85, 72
9, 3359, Note_on_c, 4, 85, 0
9, 3360, Note_on_c, 4, 71, 72
9, 3419, Note_on_c, 4, 71, 0
9, 3420, Note_on_c, 4, 83, 72
9, 3479, Note_on_c, 4, 83, 0
9, 3480, Note_on_c, 4, 83, 72
9, 3539, Note_on_c, 4, 83, 0
9, 3540, Note_on_c, 4, 83, 72
9, 3599, Note_on_c, 4, 83, 0
9, 3600, Note_on_c, 4, 62, 72
9, 3659, Note_on_c, 4, 62, 0
9, 3660, Note_on_c, 4, 81, 72
9, 3719, Note_on_c, 4, 81, 0
9, 3720, Note_on_c, 4, 81, 72
9, 3779, Note_on_c, 4, 81, 0
9, 3780, Note_on_c, 4, 81, 72
9, 3839, Note_on_c, 4, 81, 0
9, 3840, Note_on_c, 4, 67, 72
9, 3899, Note_on_c, 4, 67, 0
9, 3900, Note_on_c, 4, 79, 72
9, 3959, Note_on_c, 4, 79, 0
9, 3960, Note_on_c, 4, 79, 72
9, 4019, Note_on_c, 4, 79, 0
9, 4020, Note_on_c, 4, 79, 72
9, 4079, Note_on_c, 4, 79, 0
9, 4080, Note_on_c, 4, 79, 72
9, 4139, Note_on_c, 4, 79, 0
9, 4140, Note_on_c, 4, 79, 72
9, 4199, Note_on_c, 4, 79, 0
9, 4200, Note_on_c, 4, 78, 72
9, 4259, Note_on_c, 4, 78, 0
9, 4260, Note_on_c, 4, 78, 72
9, 4319, Note_on_c, 4, 78, 0
9, 4320, Note_on_c, 4, 76, 72
9, 4439, Note_on_c, 4, 76, 0
9, 4440, Note_on_c, 4, 57, 72
9, 4559, Note_on_c, 4, 57, 0
9, 4560, Note_on_c, 4, 57, 72
9, 4799, Note_on_c, 4, 57, 0
9, 4800, Note_on_c, 4, 60, 72
9, 5039, Note_on_c, 4, 60, 0
9, 5040, Note_on_c, 4, 60, 72
9, 5159, Note_on_c, 4, 60, 0
9, 5160, Note_on_c, 4, 60, 72
9, 5279, Note_on_c, 4, 60, 0
9, 5280, Note_on_c, 4, 60, 72
9, 5339, Note_on_c, 4, 60, 0
9, 5340, Note_on_c, 4, 78, 72
9, 5399, Note_on_c, 4, 78, 0
9, 5400, Note_on_c, 4, 78, 72
9, 5459, Note_on_c, 4, 78, 0
9, 5460, Note_on_c, 4, 78, 72
9, 5519, Note_on_c, 4, 78, 0
9, 5520, Note_on_c, 4, 78, 72
9, 5579, Note_on_c, 4, 78, 0
9, 5580, Note_on_c, 4, 78, 72
9, 5639, Note_on_c, 4, 78, 0
9, 5640, Note_on_c, 4, 78, 72
9, 5699, Note_on_c, 4, 78, 0
9, 5700, Note_on_c, 4, 78, 72
9, 5759, Note_on_c, 4, 78, 0
9, 5760, Note_on_c, 4, 76, 72
9, 5819, Note_on_c, 4, 76, 0
9, 5820, Note_on_c, 4, 76, 72
9, 5879, Note_on_c, 4, 76, 0
9, 5880, Note_on_c, 4, 76, 72
9, 5939, Note_on_c, 4, 76, 0
9, 5940, Note_on_c, 4, 76, 72
9, 5999, Note_on_c, 4, 76, 0
9, 6000, Note_on_c, 4, 76, 72
9, 6059, Note_on_c, 4, 76, 0
9, 6060, Note_on_c, 4, 83, 72
9, 6119, Note_on_c, 4, 83, 0
9, 6120, Note_on_c, 4, 83, 72
9, 6179, Note_on_c, 4, 83, 0
9, 6180, Note_on_c, 4, 83, 72
9, 6239, Note_on_c, 4, 83, 0
9, 6240, Note_on_c, 4, 81, 72
9, 6299, Note_on_c, 4, 81, 0
9, 6300, Note_on_c, 4, 72, 72
9, 6359, Note_on_c, 4, 72, 0
9, 6360, Note_on_c, 4, 72, 72
9, 6419, Note_on_c, 4, 72, 0
9, 6420, Note_on_c, 4, 72, 72
9, 6479, Note_on_c, 4, 72, 0
9, 6480, Note_on_c, 4, 71, 72
9, 6539, Note_on_c, 4, 71, 0
9, 6540, Note_on_c, 4, 78, 72
9, 6599, Note_on_c, 4, 78, 0
9, 6600, Note_on_c, 4, 78, 72
9, 6659, Note_on_c, 4, 78, 0
9, 6660, Note_on_c, 4, 78, 72
9, 6719, Note_on_c, 4, 78, 0
9, 6720, Note_on_c, 4, 83, 72
9, 6779, Note_on_c, 4, 83, 0
9, 6780, Note_on_c, 4, 74, 72
9, 6839, Note_on_c, 4, 74, 0
9, 6840, Note_on_c, 4, 74, 72
9, 6899, Note_on_c, 4, 74, 0
9, 6900, Note_on_c, 4, 74, 72
9, 6959, Note_on_c, 4, 74, 0
9, 6960, Note_on_c, 4, 73, 72
9, 7019, Note_on_c, 4, 73, 0
9, 7020, Note_on_c, 4, 81, 72
9, 7079, Note_on_c, 4, 81, 0
9, 7080, Note_on_c, 4, 81, 72
9, 7139, Note_on_c, 4, 81, 0
9, 7140, Note_on_c, 4, 81, 72
9, 7199, Note_on_c, 4, 81, 0
9, 7200, Note_on_c, 4, 69, 72
9, 7259, Note_on_c, 4, 69, 0
9, 7260, Note_on_c, 4, 79, 72
9, 7319, Note_on_c, 4, 79, 0
9, 7320, Note_on_c, 4, 79, 72
9, 7379, Note_on_c, 4, 79, 0
9, 7380, Note_on_c, 4, 79, 72
9, 7439, Note_on_c, 4, 79, 0
9, 7440, Note_on_c, 4, 69, 72
9, 7499, Note_on_c, 4, 69, 0
9, 7500, Note_on_c, 4, 78, 72
9, 7559, Note_on_c, 4, 78, 0
9, 7560, Note_on_c, 4, 78, 72
9, 7619, Note_on_c, 4, 78, 0
9, 7620, Note_on_c, 4, 78, 72
9, 7679, Note_on_c, 4, 78, 0
9, 7680, Note_on_c, 4, 76, 72
9, 7739, Note_on_c, 4, 76, 0
9, 7740, Note_on_c, 4, 85, 72
9, 7799, Note_on_c, 4, 85, 0
9, 7800, Note_on_c, 4, 85, 72
9, 7859, Note_on_c, 4, 85, 0
9, 7860, Note_on_c, 4, 85, 72
9, 7919, Note_on_c, 4, 85, 0
9, 7920, Note_on_c, 4, 74, 72
9, 7979, Note_on_c, 4, 74, 0
9, 7980, Note_on_c, 4, 86, 72
9, 8039, Note_on_c, 4, 86, 0
9, 8040, Note_on_c, 4, 86, 72
9, 8099, Note_on_c, 4, 86, 0
9, 8100, Note_on_c, 4, 86, 72
9, 8159, Note_on_c, 4, 86, 0
9, 8160, Note_on_c, 4, 71, 72
9, 8219, Note_on_c, 4, 71, 0
9, 8220, Note_on_c, 4, 83, 72
9, 8279, Note_on_c, 4, 83, 0
9, 8280, Note_on_c, 4, 83, 72
9, 8339, Note_on_c, 4, 83, 0
9, 8340, Note_on_c, 4, 83, 72
9, 8399, Note_on_c, 4, 83, 0
9, 8400, Note_on_c, 4, 83, 72
9, 8459, Note_on_c, 4, 83, 0
9, 8460, Note_on_c, 4, 88, 72
9, 8519, Note_on_c, 4, 88, 0
9, 8520, Note_on_c, 4, 88, 72
9, 8579, Note_on_c, 4, 88, 0
9, 8580, Note_on_c, 4, 88, 72
9, 8639, Note_on_c, 4, 88, 0
9, 8640, Note_on_c, 4, 85, 72
9, 8699, Note_on_c, 4, 85, 0
9, 8700, Note_on_c, 4, 81, 72
9, 8759, Note_on_c, 4, 81, 0
9, 8760, Note_on_c, 4, 81, 72
9, 8819, Note_on_c, 4, 81, 0
9, 8820, Note_on_c, 4, 81, 72
9, 8879, Note_on_c, 4, 81, 0
9, 8880, Note_on_c, 4, 86, 72
9, 8939, Note_on_c, 4, 86, 0
9, 8940, Note_on_c, 4, 78, 72
9, 8999, Note_on_c, 4, 78, 0
9, 9000, Note_on_c, 4, 78, 72
9, 9059, Note_on_c, 4, 78, 0
9, 9060, Note_on_c, 4, 78, 72
9, 9119, Note_on_c, 4, 78, 0
9, 9120, Note_on_c, 4, 76, 72
9, 9179, Note_on_c, 4, 76, 0
9, 9180, Note_on_c, 4, 86, 72
9, 9239, Note_on_c, 4, 86, 0
9, 9240, Note_on_c, 4, 86, 72
9, 9299, Note_on_c, 4, 86, 0
9, 9300, Note_on_c, 4, 86, 72
9, 9359, Note_on_c, 4, 86, 0
9, 9360, Note_on_c, 4, 76, 72
9, 9419, Note_on_c, 4, 76, 0
9, 9420, Note_on_c, 4, 85, 72
9, 9479, Note_on_c, 4, 85, 0
9, 9480, Note_on_c, 4, 85, 72
9, 9539, Note_on_c, 4, 85, 0
9, 9540, Note_on_c, 4, 85, 72
9, 9599, Note_on_c, 4, 85, 0
9, 9600, Note_on_c, 4, 74, 72
9, 9839, Note_on_c, 4, 74, 0
9, 18480, Note_on_c, 4, 69, 72
9, 18959, Note_on_c, 4, 69, 0
9, 18960, Note_on_c, 4, 66, 72
9, 19199, Note_on_c, 4, 66, 0
9, 19200, Note_on_c, 4, 74, 72
9, 19679, Note_on_c, 4, 74, 0
9, 19680, Note_on_c, 4, 73, 72
9, 19919, Note_on_c, 4, 73, 0
9, 19920, Note_on_c, 4, 69, 72
9, 20159, Note_on_c, 4, 69, 0
9, 20160, Note_on_c, 4, 76, 72
9, 20399, Note_on_c, 4, 76, 0
9, 20400, Note_on_c, 4, 78, 72
9, 20759, Note_on_c, 4, 78, 0
9, 20760, Note_on_c, 4, 76, 72
9, 20879, Note_on_c, 4, 76, 0
9, 20880, Note_on_c, 4, 74, 72
9, 20999, Note_on_c, 4, 74, 0
9, 21000, Note_on_c, 4, 73, 72
9, 21119, Note_on_c, 4, 73, 0
9, 21120, Note_on_c, 4, 71, 72
9, 21239, Note_on_c, 4, 71, 0
9, 21240, Note_on_c, 4, 69, 72
9, 21359, Note_on_c, 4, 69, 0
9, 21360, Note_on_c, 4, 68, 72
9, 21479, Note_on_c, 4, 68, 0
9, 21480, Note_on_c, 4, 69, 72
9, 21599, Note_on_c, 4, 69, 0
9, 21600, Note_on_c, 4, 66, 72
9, 21719, Note_on_c, 4, 66, 0
9, 21720, Note_on_c, 4, 68, 72
9, 21839, Note_on_c, 4, 68, 0
9, 21840, Note_on_c, 4, 69, 72
9, 22079, Note_on_c, 4, 69, 0
9, 22320, Note_on_c, 4, 69, 72
9, 22679, Note_on_c, 4, 69, 0
9, 22680, Note_on_c, 4, 67, 72
9, 22799, Note_on_c, 4, 67, 0
9, 22800, Note_on_c, 4, 66, 72
9, 22919, Note_on_c, 4, 66, 0
9, 22920, Note_on_c, 4, 67, 72
9, 23039, Note_on_c, 4, 67, 0
9, 23040, Note_on_c, 4, 64, 72
9, 23159, Note_on_c, 4, 64, 0
9, 23160, Note_on_c, 4, 66, 72
9, 23279, Note_on_c, 4, 66, 0
9, 23280, Note_on_c, 4, 67, 72
9, 23519, Note_on_c, 4, 67, 0
9, 23520, Note_on_c, 4, 79, 72
9, 23639, Note_on_c, 4, 79, 0
9, 23640, Note_on_c, 4, 78, 72
9, 23759, Note_on_c, 4, 78, 0
9, 23760, Note_on_c, 4, 76, 72
9, 23879, Note_on_c, 4, 76, 0
9, 23880, Note_on_c, 4, 74, 72
9, 23999, Note_on_c, 4, 74, 0
9, 24000, Note_on_c, 4, 73, 72
9, 24119, Note_on_c, 4, 73, 0
9, 24120, Note_on_c, 4, 71, 72
9, 24239, Note_on_c, 4, 71, 0
9, 24240, Note_on_c, 4, 69, 72
9, 24359, Note_on_c, 4, 69, 0
9, 24360, Note_on_c, 4, 67, 72
9, 24479, Note_on_c, 4, 67, 0
9, 24480, Note_on_c, 4, 66, 72
9, 24599, Note_on_c, 4, 66, 0
9, 24600, Note_on_c, 4, 64, 72
9, 24719, Note_on_c, 4, 64, 0
9, 24720, Note_on_c, 4, 62, 72
9, 24959, Note_on_c, 4, 62, 0
9, 24960, Note_on_c, 4, 74, 72
9, 25079, Note_on_c, 4, 74, 0
9, 25080, Note_on_c, 4, 73, 72
9, 25199, Note_on_c, 4, 73, 0
9, 25200, Note_on_c, 4, 71, 72
9, 25439, Note_on_c, 4, 71, 0
9, 25440, Note_on_c, 4, 69, 72
9, 25559, Note_on_c, 4, 69, 0
9, 25560, Note_on_c, 4, 81, 72
9, 25679, Note_on_c, 4, 81, 0
9, 25680, Note_on_c, 4, 71, 72
9, 25799, Note_on_c, 4, 71, 0
9, 25800, Note_on_c, 4, 81, 72
9, 25919, Note_on_c, 4, 81, 0
9, 25920, Note_on_c, 4, 73, 72
9, 26039, Note_on_c, 4, 73, 0
9, 26040, Note_on_c, 4, 81, 72
9, 26159, Note_on_c, 4, 81, 0
9, 26160, Note_on_c, 4, 74, 72
9, 26219, Note_on_c, 4, 74, 0
9, 26280, Note_on_c, 4, 69, 72
9, 26339, Note_on_c, 4, 69, 0
9, 26400, Note_on_c, 4, 78, 72
9, 26519, Note_on_c, 4, 78, 0
9, 26520, Note_on_c, 4, 76, 72
9, 26639, Note_on_c, 4, 76, 0
9, 26640, Note_on_c, 4, 74, 72
9, 26759, Note_on_c, 4, 74, 0
9, 26760, Note_on_c, 4, 73, 72
9, 26879, Note_on_c, 4, 73, 0
9, 26880, Note_on_c, 4, 71, 72
9, 26939, Note_on_c, 4, 71, 0
9, 27000, Note_on_c, 4, 79, 72
9, 27059, Note_on_c, 4, 79, 0
9, 27120, Note_on_c, 4, 83, 72
9, 27239, Note_on_c, 4, 83, 0
9, 27240, Note_on_c, 4, 81, 72
9, 27359, Note_on_c, 4, 81, 0
9, 27360, Note_on_c, 4, 79, 72
9, 27479, Note_on_c, 4, 79, 0
9, 27480, Note_on_c, 4, 78, 72
9, 27599, Note_on_c, 4, 78, 0
9, 27600, Note_on_c, 4, 76, 72
9, 27659, Note_on_c, 4, 76, 0
9, 27720, Note_on_c, 4, 78, 72
9, 27779, Note_on_c, 4, 78, 0
9, 27840, Note_on_c, 4, 79, 72
9, 27899, Note_on_c, 4, 79, 0
9, 27960, Note_on_c, 4, 81, 72
9, 28019, Note_on_c, 4, 81, 0
9, 28080, Note_on_c, 4, 83, 72
9, 28139, Note_on_c, 4, 83, 0
9, 28200, Note_on_c, 4, 85, 72
9, 28259, Note_on_c, 4, 85, 0
9, 28440, Note_on_c, 4, 86, 72
9, 28499, Note_on_c, 4, 86, 0
9, 28680, Note_on_c, 4, 88, 72
9, 28739, Note_on_c, 4, 88, 0
9, 28920, Note_on_c, 4, 85, 72
9, 28979, Note_on_c, 4, 85, 0
9, 29040, Note_on_c, 4, 86, 72
9, 29279, Note_on_c, 4, 86, 0
9, 29279, End_track
10, 0, Start_track
10, 0, Title_t, "Violin II"
10, 0, MIDI_port, 0
10, 0, Program_c, 5, 48
10, 0, Control_c, 5, 7, 96
10, 0, Control_c, 5, 10, 24
10, 0, Control_c, 5, 11, 127
10, 480, Note_on_c, 5, 62, 72
10, 539, Note_on_c, 5, 62, 0
10, 540, Note_on_c, 5, 78, 72
10, 599, Note_on_c, 5, 78, 0
10, 600, Note_on_c, 5, 78, 72
10, 659, Note_on_c, 5, 78, 0
10, 660, Note_on_c, 5, 78, 72
10, 719, Note_on_c, 5, 78, 0
10, 720, Program_c, 5, 44
10, 720, Note_on_c, 5, 78, 72
10, 959, Note_on_c, 5, 78, 0
10, 960, Program_c, 5, 48
10, 1440, Note_on_c, 5, 61, 72
10, 1499, Note_on_c, 5, 61, 0
10, 1500, Note_on_c, 5, 79, 72
10, 1559, Note_on_c, 5, 79, 0
10, 1560, Note_on_c, 5, 79, 72
10, 1619, Note_on_c, 5, 79, 0
10, 1620, Note_on_c, 5, 79, 72
10, 1679, Note_on_c, 5, 79, 0
10, 1680, Program_c, 5, 44
10, 1680, Note_on_c, 5, 79, 72
10, 1919, Note_on_c, 5, 79, 0
10, 1920, Program_c, 5, 48
10, 2400, Note_on_c, 5, 60, 72
10, 2459, Note_on_c, 5, 60, 0
10, 2460, Note_on_c, 5, 78, 72
10, 2519, Note_on_c, 5, 78, 0
10, 2520, Note_on_c, 5, 78, 72
10, 2579, Note_on_c, 5, 78, 0
10, 2580, Note_on_c, 5, 78, 72
10, 2639, Note_on_c, 5, 78, 0
10, 2640, Program_c, 5, 44
10, 2640, Note_on_c, 5, 78, 72
10, 2879, Note_on_c, 5, 78, 0
10, 2880, Program_c, 5, 48
10, 2880, Note_on_c, 5, 79, 72
10, 2939, Note_on_c, 5, 79, 0
10, 2940, Note_on_c, 5, 79, 72
10, 2999, Note_on_c, 5, 79, 0
10, 3000, Note_on_c, 5, 79, 72
10, 3059, Note_on_c, 5, 79, 0
10, 3060, Note_on_c, 5, 79, 72
10, 3119, Note_on_c, 5, 79, 0
10, 3120, Note_on_c, 5, 78, 72
10, 3179, Note_on_c, 5, 78, 0
10, 3180, Note_on_c, 5, 66, 72
10, 3239, Note_on_c, 5, 66, 0
10, 3240, Note_on_c, 5, 66, 72
10, 3299, Note_on_c, 5, 66, 0
10, 3300, Note_on_c, 5, 66, 72
10, 3359, Note_on_c, 5, 66, 0
10, 3360, Note_on_c, 5, 64, 72
10, 3419, Note_on_c, 5, 64, 0
10, 3420, Note_on_c, 5, 76, 72
10, 3479, Note_on_c, 5, 76, 0
10, 3480, Note_on_c, 5, 76, 72
10, 3539, Note_on_c, 5, 76, 0
10, 3540, Note_on_c, 5, 76, 72
10, 3599, Note_on_c, 5, 76, 0
10, 3600, Note_on_c, 5, 78, 72
10, 3659, Note_on_c, 5, 78, 0
10, 3660, Note_on_c, 5, 74, 72
10, 3719, Note_on_c, 5, 74, 0
10, 3720, Note_on_c, 5, 74, 72
10, 3779, Note_on_c, 5, 74, 0
10, 3780, Note_on_c, 5, 74, 72
10, 3839, Note_on_c, 5, 74, 0
10, 3840, Note_on_c, 5, 73, 72
10, 3899, Note_on_c, 5, 73, 0
10, 3900, Note_on_c, 5, 76, 72
10, 3959, Note_on_c, 5, 76, 0
10, 3960, Note_on_c, 5, 76, 72
10, 4019, Note_on_c, 5, 76, 0
10, 4020, Note_on_c, 5, 76, 72
10, 4079, Note_on_c, 5, 76, 0
10, 4080, Note_on_c, 5, 76, 72
10, 4139, Note_on_c, 5, 76, 0
10, 4140, Note_on_c, 5, 76, 72
10, 4199, Note_on_c, 5, 76, 0
10, 4200, Note_on_c, 5, 74, 72
10, 4259, Note_on_c, 5, 74, 0
10, 4260, Note_on_c, 5, 74, 72
10, 4319, Note_on_c, 5, 74, 0
10, 4320, Note_on_c, 5, 73, 72
10, 4439, Note_on_c, 5, 73, 0
10, 4440, Note_on_c, 5, 57, 72
10, 4559, Note_on_c, 5, 57, 0
10, 4560, Note_on_c, 5, 57, 72
10, 4799, Note_on_c, 5, 57, 0
10, 4800, Note_on_c, 5, 60, 72
10, 5039, Note_on_c, 5, 60, 0
10, 5040, Note_on_c, 5, 60, 72
10, 5159, Note_on_c, 5, 60, 0
10, 5160, Note_on_c, 5, 60, 72
10, 5279, Note_on_c, 5, 60, 0
10, 5280, Note_on_c, 5, 60, 72
10, 5339, Note_on_c, 5, 60, 0
10, 5340, Note_on_c, 5, 75, 72
10, 5399, Note_on_c, 5, 75, 0
10, 5400, Note_on_c, 5, 75, 72
10, 5459, Note_on_c, 5, 75, 0
10, 5460, Note_on_c, 5, 75, 72
10, 5519, Note_on_c, 5, 75, 0
10, 5520, Note_on_c, 5, 75, 72
10, 5579, Note_on_c, 5, 75, 0
10, 5580, Note_on_c, 5, 75, 72
10, 5639, Note_on_c, 5, 75, 0
10, 5640, Note_on_c, 5, 75, 72
10, 5699, Note_on_c, 5, 75, 0
10, 5700, Note_on_c, 5, 75, 72
10, 5759, Note_on_c, 5, 75, 0
10, 5760, Note_on_c, 5, 76, 72
10, 5819, Note_on_c, 5, 76, 0
10, 5820, Note_on_c, 5, 71, 72
10, 5879, Note_on_c, 5, 71, 0
10, 5880, Note_on_c, 5, 71, 72
10, 5939, Note_on_c, 5, 71, 0
10, 5940, Note_on_c, 5, 71, 72
10, 5999, Note_on_c, 5, 71, 0
10, 6000, Note_on_c, 5, 71, 72
10, 6059, Note_on_c, 5, 71, 0
10, 6060, Note_on_c, 5, 79, 72
10, 6119, Note_on_c, 5, 79, 0
10, 6120, Note_on_c, 5, 79, 72
10, 6179, Note_on_c, 5, 79, 0
10, 6180, Note_on_c, 5, 79, 72
10, 6239, Note_on_c, 5, 79, 0
10, 6240, Note_on_c, 5, 78, 72
10, 6299, Note_on_c, 5, 78, 0
10, 6300, Note_on_c, 5, 69, 72
10, 6359, Note_on_c, 5, 69, 0
10, 6360, Note_on_c, 5, 69, 72
10, 6419, Note_on_c, 5, 69, 0
10, 6420, Note_on_c, 5, 69, 72
10, 6479, Note_on_c, 5, 69, 0
10, 6480, Note_on_c, 5, 63, 72
10, 6539, Note_on_c, 5, 63, 0
10, 6540, Note_on_c, 5, 75, 72
10, 6599, Note_on_c, 5, 75, 0
10, 6600, Note_on_c, 5, 75, 72
10, 6659, Note_on_c, 5, 75, 0
10, 6660, Note_on_c, 5, 75, 72
10, 6719, Note_on_c, 5, 75, 0
10, 6720, Note_on_c, 5, 74, 72
10, 6779, Note_on_c, 5, 74, 0
10, 6780, Note_on_c, 5, 71, 72
10, 6839, Note_on_c, 5, 71, 0
10, 6840, Note_on_c, 5, 71, 72
10, 6899, Note_on_c, 5, 71, 0
10, 6900, Note_on_c, 5, 71, 72
10, 6959, Note_on_c, 5, 71, 0
10, 6960, Note_on_c, 5, 69, 72
10, 7019, Note_on_c, 5, 69, 0
10, 7020, Note_on_c, 5, 73, 72
10, 7079, Note_on_c, 5, 73, 0
10, 7080, Note_on_c, 5, 73, 72
10, 7139, Note_on_c, 5, 73, 0
10, 7140, Note_on_c, 5, 73, 72
10, 7199, Note_on_c, 5, 73, 0
10, 7200, Note_on_c, 5, 67, 72
10, 7259, Note_on_c, 5, 67, 0
10, 7260, Note_on_c, 5, 76, 72
10, 7319, Note_on_c, 5, 76, 0
10, 7320, Note_on_c, 5, 76, 72
10, 7379, Note_on_c, 5, 76, 0
10, 7380, Note_on_c, 5, 76, 72
10, 7439, Note_on_c, 5, 76, 0
10, 7440, Note_on_c, 5, 66, 72
10, 7499, Note_on_c, 5, 66, 0
10, 7500, Note_on_c, 5, 74, 72
10, 7559, Note_on_c, 5, 74, 0
10, 7560, Note_on_c, 5, 74, 72
10, 7619, Note_on_c, 5, 74, 0
10, 7620, Note_on_c, 5, 74, 72
10, 7679, Note_on_c, 5, 74, 0
10, 7680, Note_on_c, 5, 73, 72
10, 7739, Note_on_c, 5, 73, 0
10, 7740, Note_on_c, 5, 79, 72
10, 7799, Note_on_c, 5, 79, 0
10, 7800, Note_on_c, 5, 79, 72
10, 7859, Note_on_c, 5, 79, 0
10, 7860, Note_on_c, 5, 79, 72
10, 7919, Note_on_c, 5, 79, 0
10, 7920, Note_on_c, 5, 66, 72
10, 7979, Note_on_c, 5, 66, 0
10, 7980, Note_on_c, 5, 78, 72
10, 8039, Note_on_c, 5, 78, 0
10, 8040, Note_on_c, 5, 78, 72
10, 8099, Note_on_c, 5, 78, 0
10, 8100, Note_on_c, 5, 78, 72
10, 8159, Note_on_c, 5, 78, 0
10, 8160, Note_on_c, 5, 62, 72
10, 8219, Note_on_c, 5, 62, 0
10, 8220, Note_on_c, 5, 78, 72
10, 8279, Note_on_c, 5, 78, 0
10, 8280, Note_on_c, 5, 78, 72
10, 8339, Note_on_c, 5, 78, 0
10, 8340, Note_on_c, 5, 78, 72
10, 8399, Note_on_c, 5, 78, 0
10, 8400, Note_on_c, 5, 76, 72
10, 8459, Note_on_c, 5, 76, 0
10, 8460, Note_on_c, 5, 83, 72
10, 8519, Note_on_c, 5, 83, 0
10, 8520, Note_on_c, 5, 83, 72
10, 8579, Note_on_c, 5, 83, 0
10, 8580, Note_on_c, 5, 83, 72
10, 8639, Note_on_c, 5, 83, 0
10, 8640, Note_on_c, 5, 69, 72
10, 8699, Note_on_c, 5, 69, 0
10, 8700, Note_on_c, 5, 79, 72
10, 8759, Note_on_c, 5, 79, 0
10, 8760, Note_on_c, 5, 79, 72
10, 8819, Note_on_c, 5, 79, 0
10, 8820, Note_on_c, 5, 79, 72
10, 8879, Note_on_c, 5, 79, 0
10, 8880, Note_on_c, 5, 78, 72
10, 8939, Note_on_c, 5, 78, 0
10, 8940, Note_on_c, 5, 74, 72
10, 8999, Note_on_c, 5, 74, 0
10, 9000, Note_on_c, 5, 74, 72
10, 9059, Note_on_c, 5, 74, 0
10, 9060, Note_on_c, 5, 74, 72
10, 9119, Note_on_c, 5, 74, 0
10, 9120, Note_on_c, 5, 74, 72
10, 9179, Note_on_c, 5, 74, 0
10, 9180, Note_on_c, 5, 76, 72
10, 9239, Note_on_c, 5, 76, 0
10, 9240, Note_on_c, 5, 76, 72
10, 9299, Note_on_c, 5, 76, 0
10, 9300, Note_on_c, 5, 76, 72
10, 9359, Note_on_c, 5, 76, 0
10, 9360, Note_on_c, 5, 73, 72
10, 9419, Note_on_c, 5, 73, 0
10, 9420, Note_on_c, 5, 76, 72
10, 9479, Note_on_c, 5, 76, 0
10, 9480, Note_on_c, 5, 76, 72
10, 9539, Note_on_c, 5, 76, 0
10, 9540, Note_on_c, 5, 76, 72
10, 9599, Note_on_c, 5, 76, 0
10, 9600, Note_on_c, 5, 74, 72
10, 9839, Note_on_c, 5, 74, 0
10, 15600, Note_on_c, 5, 62, 72
10, 16079, Note_on_c, 5, 62, 0
10, 16080, Note_on_c, 5, 61, 72
10, 16319, Note_on_c, 5, 61, 0
10, 16320, Note_on_c, 5, 67, 72
10, 16799, Note_on_c, 5, 67, 0
10, 16800, Note_on_c, 5, 66, 72
10, 17039, Note_on_c, 5, 66, 0
10, 17040, Note_on_c, 5, 62, 72
10, 17279, Note_on_c, 5, 62, 0
10, 17280, Note_on_c, 5, 69, 72
10, 17519, Note_on_c, 5, 69, 0
10, 17520, Note_on_c, 5, 71, 72
10, 17879, Note_on_c, 5, 71, 0
10, 17880, Note_on_c, 5, 69, 72
10, 17999, Note_on_c, 5, 69, 0
10, 18000, Note_on_c, 5, 67, 72
10, 18119, Note_on_c, 5, 67, 0
10, 18120, Note_on_c, 5, 66, 72
10, 18239, Note_on_c, 5, 66, 0
10, 18240, Note_on_c, 5, 64, 72
10, 18359, Note_on_c, 5, 64, 0
10, 18360, Note_on_c, 5, 62, 72
10, 18479, Note_on_c, 5, 62, 0
10, 18480, Note_on_c, 5, 61, 72
10, 18599, Note_on_c, 5, 61, 0
10, 18600, Note_on_c, 5, 62, 72
10, 18719, Note_on_c, 5, 62, 0
10, 18720, Note_on_c, 5, 59, 72
10, 18839, Note_on_c, 5, 59, 0
10, 18840, Note_on_c, 5, 61, 72
10, 18959, Note_on_c, 5, 61, 0
10, 18960, Note_on_c, 5, 62, 72
10, 19079, Note_on_c, 5, 62, 0
10, 19080, Note_on_c, 5, 64, 72
10, 19199, Note_on_c, 5, 64, 0
10, 19200, Note_on_c, 5, 66, 72
10, 19319, Note_on_c, 5, 66, 0
10, 19320, Note_on_c, 5, 64, 72
10, 19439, Note_on_c, 5, 64, 0
10, 19440, Note_on_c, 5, 66, 72
10, 19559, Note_on_c, 5, 66, 0
10, 19560, Note_on_c, 5, 68, 72
10, 19679, Note_on_c, 5, 68, 0
10, 19680, Note_on_c, 5, 69, 72
10, 19919, Note_on_c, 5, 69, 0
10, 20160, Note_on_c, 5, 69, 72
10, 20639, Note_on_c, 5, 69, 0
10, 20640, Note_on_c, 5, 68, 72
10, 20879, Note_on_c, 5, 68, 0
10, 20880, Note_on_c, 5, 69, 72
10, 20999, Note_on_c, 5, 69, 0
10, 21000, Note_on_c, 5, 68, 72
10, 21119, Note_on_c, 5, 68, 0
10, 21120, Note_on_c, 5, 66, 72
10, 21239, Note_on_c, 5, 66, 0
10, 21240, Note_on_c, 5, 64, 72
10, 21359, Note_on_c, 5, 64, 0
10, 21360, Note_on_c, 5, 62, 72
10, 21479, Note_on_c, 5, 62, 0
10, 21480, Note_on_c, 5, 61, 72
10, 21599, Note_on_c, 5, 61, 0
10, 21600, Note_on_c, 5, 62, 72
10, 21839, Note_on_c, 5, 62, 0
10, 21840, Note_on_c, 5, 64, 72
10, 21959, Note_on_c, 5, 64, 0
10, 21960, Note_on_c, 5, 62, 72
10, 22079, Note_on_c, 5, 62, 0
10, 22080, Note_on_c, 5, 61, 72
10, 22199, Note_on_c, 5, 61, 0
10, 22200, Note_on_c, 5, 62, 72
10, 22319, Note_on_c, 5, 62, 0
10, 22320, Note_on_c, 5, 59, 72
10, 22439, Note_on_c, 5, 59, 0
10, 22440, Note_on_c, 5, 61, 72
10, 22559, Note_on_c, 5, 61, 0
10, 22560, Note_on_c, 5, 62, 72
10, 22799, Note_on_c, 5, 62, 0
10, 22800, Note_on_c, 5, 57, 72
10, 23039, Note_on_c, 5, 57, 0
10, 23040, Note_on_c, 5, 62, 72
10, 23399, Note_on_c, 5, 62, 0
10, 23400, Note_on_c, 5, 61, 72
10, 23519, Note_on_c, 5, 61, 0
10, 23520, Note_on_c, 5, 59, 72
10, 23639, Note_on_c, 5, 59, 0
10, 23640, Note_on_c, 5, 61, 72
10, 23759, Note_on_c, 5, 61, 0
10, 23760, Note_on_c, 5, 57, 72
10, 23879, Note_on_c, 5, 57, 0
10, 23880, Note_on_c, 5, 59, 72
10, 23999, Note_on_c, 5, 59, 0
10, 24000, Note_on_c, 5, 55, 72
10, 24239, Note_on_c, 5, 55, 0
10, 26160, Note_on_c, 5, 69, 72
10, 26399, Note_on_c, 5, 69, 0
10, 26400, Note_on_c, 5, 74, 72
10, 26519, Note_on_c, 5, 74, 0
10, 26520, Note_on_c, 5, 73, 72
10, 26639, Note_on_c, 5, 73, 0
10, 26640, Note_on_c, 5, 71, 72
10, 26759, Note_on_c, 5, 71, 0
10, 26760, Note_on_c, 5, 69, 72
10, 26879, Note_on_c, 5, 69, 0
10, 26880, Note_on_c, 5, 67, 72
10, 26939, Note_on_c, 5, 67, 0
10, 27000, Note_on_c, 5, 71, 72
10, 27059, Note_on_c, 5, 71, 0
10, 27120, Note_on_c, 5, 79, 72
10, 27239, Note_on_c, 5, 79, 0
10, 27240, Note_on_c, 5, 78, 72
10, 27359, Note_on_c, 5, 78, 0
10, 27360, Note_on_c, 5, 76, 72
10, 27479, Note_on_c, 5, 76, 0
10, 27480, Note_on_c, 5, 74, 72
10, 27599, Note_on_c, 5, 74, 0
10, 27600, Note_on_c, 5, 73, 72
10, 27659, Note_on_c, 5, 73, 0
10, 27720, Note_on_c, 5, 74, 72
10, 27779, Note_on_c, 5, 74, 0
10, 27840, Note_on_c, 5, 76, 72
10, 27899, Note_on_c, 5, 76, 0
10, 27960, Note_on_c, 5, 78, 72
10, 28019, Note_on_c, 5, 78, 0
10, 28080, Note_on_c, 5, 79, 72
10, 28139, Note_on_c, 5, 79, 0
10, 28200, Note_on_c, 5, 76, 72
10, 28259, Note_on_c, 5, 76, 0
10, 28440, Note_on_c, 5, 74, 72
10, 28499, Note_on_c, 5, 74, 0
10, 28680, Note_on_c, 5, 79, 72
10, 28680, Note_on_c, 5, 71, 72
10, 28739, Note_on_c, 5, 79, 0
10, 28739, Note_on_c, 5, 71, 0
10, 28920, Note_on_c, 5, 79, 72
10, 28920, Note_on_c, 5, 69, 72
10, 28979, Note_on_c, 5, 79, 0
10, 28979, Note_on_c, 5, 69, 0
10, 29040, Note_on_c, 5, 78, 72
10, 29040, Note_on_c, 5, 69, 72
10, 29279, Note_on_c, 5, 78, 0
10, 29279, Note_on_c, 5, 69, 0
10, 29279, End_track
11, 0, Start_track
11, 0, Title_t, "Viola"
11, 0, MIDI_port, 0
11, 0, Program_c, 6, 48
11, 0, Control_c, 6, 7, 96
11, 0, Control_c, 6, 10, 80
11, 0, Control_c, 6, 11, 127
11, 480, Note_on_c, 6, 50, 72
11, 539, Note_on_c, 6, 50, 0
11, 540, Note_on_c, 6, 74, 72
11, 599, Note_on_c, 6, 74, 0
11, 600, Note_on_c, 6, 74, 72
11, 659, Note_on_c, 6, 74, 0
11, 660, Note_on_c, 6, 74, 72
11, 719, Note_on_c, 6, 74, 0
11, 720, Program_c, 6, 44
11, 720, Note_on_c, 6, 74, 72
11, 959, Note_on_c, 6, 74, 0
11, 960, Program_c, 6, 48
11, 1440, Note_on_c, 6, 49, 72
11, 1499, Note_on_c, 6, 49, 0
11, 1500, Note_on_c, 6, 76, 72
11, 1559, Note_on_c, 6, 76, 0
11, 1560, Note_on_c, 6, 76, 72
11, 1619, Note_on_c, 6, 76, 0
11, 1620, Note_on_c, 6, 76, 72
11, 1679, Note_on_c, 6, 76, 0
11, 1680, Program_c, 6, 44
11, 1680, Note_on_c, 6, 76, 72
11, 1919, Note_on_c, 6, 76, 0
11, 1920, Program_c, 6, 48
11, 2400, Note_on_c, 6, 48, 72
11, 2459, Note_on_c, 6, 48, 0
11, 2460, Note_on_c, 6, 74, 72
11, 2519, Note_on_c, 6, 74, 0
11, 2520, Note_on_c, 6, 74, 72
11, 2579, Note_on_c, 6, 74, 0
11, 2580, Note_on_c, 6, 74, 72
11, 2639, Note_on_c, 6, 74, 0
11, 2640, Program_c, 6, 44
11, 2640, Note_on_c, 6, 74, 72
11, 2879, Note_on_c, 6, 74, 0
11, 2880, Program_c, 6, 48
11, 2880, Note_on_c, 6, 71, 72
11, 2939, Note_on_c, 6, 71, 0
11, 2940, Note_on_c, 6, 71, 72
11, 2999, Note_on_c, 6, 71, 0
11, 3000, Note_on_c, 6, 71, 72
11, 3059, Note_on_c, 6, 71, 0
11, 3060, Note_on_c, 6, 71, 72
11, 3119, Note_on_c, 6, 71, 0
11, 3120, Note_on_c, 6, 69, 72
11, 3179, Note_on_c, 6, 69, 0
11, 3180, Note_on_c, 6, 69, 72
11, 3239, Note_on_c, 6, 69, 0
11, 3240, Note_on_c, 6, 69, 72
11, 3299, Note_on_c, 6, 69, 0
11, 3300, Note_on_c, 6, 69, 72
11, 3359, Note_on_c, 6, 69, 0
11, 3360, Note_on_c, 6, 67, 72
11, 3419, Note_on_c, 6, 67, 0
11, 3420, Note_on_c, 6, 67, 72
11, 3479, Note_on_c, 6, 67, 0
11, 3480, Note_on_c, 6, 67, 72
11, 3539, Note_on_c, 6, 67, 0
11, 3540, Note_on_c, 6, 67, 72
11, 3599, Note_on_c, 6, 67, 0
11, 3600, Note_on_c, 6, 66, 72
11, 3659, Note_on_c, 6, 66, 0
11, 3660, Note_on_c, 6, 66, 72
11, 3719, Note_on_c, 6, 66, 0
11, 3720, Note_on_c, 6, 66, 72
11, 3779, Note_on_c, 6, 66, 0
11, 3780, Note_on_c, 6, 66, 72
11, 3839, Note_on_c, 6, 66, 0
11, 3840, Note_on_c, 6, 64, 72
11, 3899, Note_on_c, 6, 64, 0
11, 3900, Note_on_c, 6, 69, 72
11, 3959, Note_on_c, 6, 69, 0
11, 3960, Note_on_c, 6, 69, 72
11, 4019, Note_on_c, 6, 69, 0
11, 4020, Note_on_c, 6, 69, 72
11, 4079, Note_on_c, 6, 69, 0
11, 4080, Note_on_c, 6, 69, 72
11, 4139, Note_on_c, 6, 69, 0
11, 4140, Note_on_c, 6, 69, 72
11, 4199, Note_on_c, 6, 69, 0
11, 4200, Note_on_c, 6, 69, 72
11, 4259, Note_on_c, 6, 69, 0
11, 4260, Note_on_c, 6, 69, 72
11, 4319, Note_on_c, 6, 69, 0
11, 4320, Note_on_c, 6, 69, 72
11, 4439, Note_on_c, 6, 69, 0
11, 4440, Note_on_c, 6, 57, 72
11, 4559, Note_on_c, 6, 57, 0
11, 4560, Note_on_c, 6, 57, 72
11, 4799, Note_on_c, 6, 57, 0
11, 4800, Note_on_c, 6, 60, 72
11, 5039, Note_on_c, 6, 60, 0
11, 5040, Note_on_c, 6, 60, 72
11, 5159, Note_on_c, 6, 60, 0
11, 5160, Note_on_c, 6, 60, 72
11, 5279, Note_on_c, 6, 60, 0
11, 5280, Note_on_c, 6, 60, 72
11, 5339, Note_on_c, 6, 60, 0
11, 5340, Note_on_c, 6, 69, 72
11, 5399, Note_on_c, 6, 69, 0
11, 5400, Note_on_c, 6, 69, 72
11, 5459, Note_on_c, 6, 69, 0
11, 5460, Note_on_c, 6, 69, 72
11, 5519, Note_on_c, 6, 69, 0
11, 5520, Note_on_c, 6, 71, 72
11, 5579, Note_on_c, 6, 71, 0
11, 5580, Note_on_c, 6, 71, 72
11, 5639, Note_on_c, 6, 71, 0
11, 5640, Note_on_c, 6, 72, 72
11, 5699, Note_on_c, 6, 72, 0
11, 5700, Note_on_c, 6, 72, 72
11, 5759, Note_on_c, 6, 72, 0
11, 5760, Note_on_c, 6, 71, 72
11, 5819, Note_on_c, 6, 71, 0
11, 5820, Note_on_c, 6, 71, 72
11, 5879, Note_on_c, 6, 71, 0
11, 5880, Note_on_c, 6, 69, 72
11, 5939, Note_on_c, 6, 69, 0
11, 5940, Note_on_c, 6, 69, 72
11, 5999, Note_on_c, 6, 69, 0
11, 6000, Note_on_c, 6, 67, 72
11, 6059, Note_on_c, 6, 67, 0
11, 6060, Note_on_c, 6, 64, 72
11, 6119, Note_on_c, 6, 64, 0
11, 6120, Note_on_c, 6, 64, 72
11, 6179, Note_on_c, 6, 64, 0
11, 6180, Note_on_c, 6, 64, 72
11, 6239, Note_on_c, 6, 64, 0
11, 6240, Note_on_c, 6, 60, 72
11, 6299, Note_on_c, 6, 60, 0
11, 6300, Note_on_c, 6, 66, 72
11, 6359, Note_on_c, 6, 66, 0
11, 6360, Note_on_c, 6, 66, 72
11, 6419, Note_on_c, 6, 66, 0
11, 6420, Note_on_c, 6, 66, 72
11, 6479, Note_on_c, 6, 66, 0
11, 6480, Note_on_c, 6, 66, 72
11, 6539, Note_on_c, 6, 66, 0
11, 6540, Note_on_c, 6, 63, 72
11, 6599, Note_on_c, 6, 63, 0
11, 6600, Note_on_c, 6, 63, 72
11, 6659, Note_on_c, 6, 63, 0
11, 6660, Note_on_c, 6, 63, 72
11, 6719, Note_on_c, 6, 63, 0
11, 6720, Note_on_c, 6, 64, 72
11, 6779, Note_on_c, 6, 64, 0
11, 6780, Note_on_c, 6, 68, 72
11, 6839, Note_on_c, 6, 68, 0
11, 6840, Note_on_c, 6, 68, 72
11, 6899, Note_on_c, 6, 68, 0
11, 6900, Note_on_c, 6, 68, 72
11, 6959, Note_on_c, 6, 68, 0
11, 6960, Note_on_c, 6, 64, 72
11, 7019, Note_on_c, 6, 64, 0
11, 7020, Note_on_c, 6, 76, 72
11, 7079, Note_on_c, 6, 76, 0
11, 7080, Note_on_c, 6, 76, 72
11, 7139, Note_on_c, 6, 76, 0
11, 7140, Note_on_c, 6, 76, 72
11, 7199, Note_on_c, 6, 76, 0
11, 7200, Note_on_c, 6, 64, 72
11, 7259, Note_on_c, 6, 64, 0
11, 7260, Note_on_c, 6, 69, 72
11, 7319, Note_on_c, 6, 69, 0
11, 7320, Note_on_c, 6, 69, 72
11, 7379, Note_on_c, 6, 69, 0
11, 7380, Note_on_c, 6, 69, 72
11, 7439, Note_on_c, 6, 69, 0
11, 7440, Note_on_c, 6, 74, 72
11, 7499, Note_on_c, 6, 74, 0
11, 7500, Note_on_c, 6, 69, 72
11, 7559, Note_on_c, 6, 69, 0
11, 7560, Note_on_c, 6, 69, 72
11, 7619, Note_on_c, 6, 69, 0
11, 7620, Note_on_c, 6, 69, 72
11, 7679, Note_on_c, 6, 69, 0
11, 7680, Note_on_c, 6, 67, 72
11, 7739, Note_on_c, 6, 67, 0
11, 7740, Note_on_c, 6, 76, 72
11, 7799, Note_on_c, 6, 76, 0
11, 7800, Note_on_c, 6, 76, 72
11, 7859, Note_on_c, 6, 76, 0
11, 7860, Note_on_c, 6, 76, 72
11, 7919, Note_on_c, 6, 76, 0
11, 7920, Note_on_c, 6, 66, 72
11, 7979, Note_on_c, 6, 66, 0
11, 7980, Note_on_c, 6, 71, 72
11, 8039, Note_on_c, 6, 71, 0
11, 8040, Note_on_c, 6, 71, 72
11, 8099, Note_on_c, 6, 71, 0
11, 8100, Note_on_c, 6, 71, 72
11, 8159, Note_on_c, 6, 71, 0
11, 8160, Note_on_c, 6, 67, 72
11, 8219, Note_on_c, 6, 67, 0
11, 8220, Note_on_c, 6, 74, 72
11, 8279, Note_on_c, 6, 74, 0
11, 8280, Note_on_c, 6, 74, 72
11, 8339, Note_on_c, 6, 74, 0
11, 8340, Note_on_c, 6, 74, 72
11, 8399, Note_on_c, 6, 74, 0
11, 8400, Note_on_c, 6, 67, 72
11, 8459, Note_on_c, 6, 67, 0
11, 8460, Note_on_c, 6, 71, 72
11, 8519, Note_on_c, 6, 71, 0
11, 8520, Note_on_c, 6, 71, 72
11, 8579, Note_on_c, 6, 71, 0
11, 8580, Note_on_c, 6, 71, 72
11, 8639, Note_on_c, 6, 71, 0
11, 8640, Note_on_c, 6, 64, 72
11, 8699, Note_on_c, 6, 64, 0
11, 8700, Note_on_c, 6, 73, 72
11, 8759, Note_on_c, 6, 73, 0
11, 8760, Note_on_c, 6, 73, 72
11, 8819, Note_on_c, 6, 73, 0
11, 8820, Note_on_c, 6, 73, 72
11, 8879, Note_on_c, 6, 73, 0
11, 8880, Note_on_c, 6, 74, 72
11, 8939, Note_on_c, 6, 74, 0
11, 8940, Note_on_c, 6, 69, 72
11, 8999, Note_on_c, 6, 69, 0
11, 9000, Note_on_c, 6, 69, 72
11, 9059, Note_on_c, 6, 69, 0
11, 9060, Note_on_c, 6, 69, 72
11, 9119, Note_on_c, 6, 69, 0
11, 9120, Note_on_c, 6, 69, 72
11, 9179, Note_on_c, 6, 69, 0
11, 9180, Note_on_c, 6, 69, 72
11, 9239, Note_on_c, 6, 69, 0
11, 9240, Note_on_c, 6, 69, 72
11, 9299, Note_on_c, 6, 69, 0
11, 9300, Note_on_c, 6, 69, 72
11, 9359, Note_on_c, 6, 69, 0
11, 9360, Note_on_c, 6, 69, 72
11, 9419, Note_on_c, 6, 69, 0
11, 9420, Note_on_c, 6, 69, 72
11, 9479, Note_on_c, 6, 69, 0
11, 9480, Note_on_c, 6, 69, 72
11, 9539, Note_on_c, 6, 69, 0
11, 9540, Note_on_c, 6, 69, 72
11, 9599, Note_on_c, 6, 69, 0
11, 9600, Note_on_c, 6, 66, 72
11, 9839, Note_on_c, 6, 66, 0
11, 12720, Note_on_c, 6, 57, 72
11, 13199, Note_on_c, 6, 57, 0
11, 13200, Note_on_c, 6, 54, 72
11, 13439, Note_on_c, 6, 54, 0
11, 13440, Note_on_c, 6, 62, 72
11, 13919, Note_on_c, 6, 62, 0
11, 13920, Note_on_c, 6, 61, 72
11, 14159, Note_on_c, 6, 61, 0
11, 14160, Note_on_c, 6, 57, 72
11, 14399, Note_on_c, 6, 57, 0
11, 14400, Note_on_c, 6, 64, 72
11, 14639, Note_on_c, 6, 64, 0
11, 14640, Note_on_c, 6, 66, 72
11, 14999, Note_on_c, 6, 66, 0
11, 15000, Note_on_c, 6, 64, 72
11, 15119, Note_on_c, 6, 64, 0
11, 15120, Note_on_c, 6, 62, 72
11, 15239, Note_on_c, 6, 62, 0
11, 15240, Note_on_c, 6, 61, 72
11, 15359, Note_on_c, 6, 61, 0
11, 15360, Note_on_c, 6, 59, 72
11, 15479, Note_on_c, 6, 59, 0
11, 15480, Note_on_c, 6, 57, 72
11, 15599, Note_on_c, 6, 57, 0
11, 15600, Note_on_c, 6, 56, 72
11, 15719, Note_on_c, 6, 56, 0
11, 15720, Note_on_c, 6, 57, 72
11, 15839, Note_on_c, 6, 57, 0
11, 15840, Note_on_c, 6, 54, 72
11, 15959, Note_on_c, 6, 54, 0
11, 15960, Note_on_c, 6, 56, 72
11, 16079, Note_on_c, 6, 56, 0
11, 16080, Note_on_c, 6, 57, 72
11, 16319, Note_on_c, 6, 57, 0
11, 16560, Note_on_c, 6, 57, 72
11, 16919, Note_on_c, 6, 57, 0
11, 16920, Note_on_c, 6, 55, 72
11, 17039, Note_on_c, 6, 55, 0
11, 17040, Note_on_c, 6, 54, 72
11, 17159, Note_on_c, 6, 54, 0
11, 17160, Note_on_c, 6, 55, 72
11, 17279, Note_on_c, 6, 55, 0
11, 17280, Note_on_c, 6, 52, 72
11, 17399, Note_on_c, 6, 52, 0
11, 17400, Note_on_c, 6, 54, 72
11, 17519, Note_on_c, 6, 54, 0
11, 17520, Note_on_c, 6, 55, 72
11, 17759, Note_on_c, 6, 55, 0
11, 17760, Note_on_c, 6, 67, 72
11, 17879, Note_on_c, 6, 67, 0
11, 17880, Note_on_c, 6, 66, 72
11, 17999, Note_on_c, 6, 66, 0
11, 18000, Note_on_c, 6, 64, 72
11, 18119, Note_on_c, 6, 64, 0
11, 18120, Note_on_c, 6, 62, 72
11, 18239, Note_on_c, 6, 62, 0
11, 18240, Note_on_c, 6, 61, 72
11, 18359, Note_on_c, 6, 61, 0
11, 18360, Note_on_c, 6, 59, 72
11, 18479, Note_on_c, 6, 59, 0
11, 18480, Note_on_c, 6, 57, 72
11, 18599, Note_on_c, 6, 57, 0
11, 18600, Note_on_c, 6, 55, 72
11, 18719, Note_on_c, 6, 55, 0
11, 18720, Note_on_c, 6, 54, 72
11, 18839, Note_on_c, 6, 54, 0
11, 18840, Note_on_c, 6, 52, 72
11, 18959, Note_on_c, 6, 52, 0
11, 18960, Note_on_c, 6, 50, 72
11, 19199, Note_on_c, 6, 50, 0
11, 19200, Note_on_c, 6, 62, 72
11, 19319, Note_on_c, 6, 62, 0
11, 19320, Note_on_c, 6, 61, 72
11, 19439, Note_on_c, 6, 61, 0
11, 19440, Note_on_c, 6, 59, 72
11, 19679, Note_on_c, 6, 59, 0
11, 19680, Note_on_c, 6, 57, 72
11, 19919, Note_on_c, 6, 57, 0
11, 19920, Note_on_c, 6, 59, 72
11, 20159, Note_on_c, 6, 59, 0
11, 20160, Note_on_c, 6, 61, 72
11, 20399, Note_on_c, 6, 61, 0
11, 20400, Note_on_c, 6, 62, 72
11, 20639, Note_on_c, 6, 62, 0
11, 20640, Note_on_c, 6, 64, 72
11, 20879, Note_on_c, 6, 64, 0
11, 20880, Note_on_c, 6, 66, 72
11, 20999, Note_on_c, 6, 66, 0
11, 21000, Note_on_c, 6, 64, 72
11, 21119, Note_on_c, 6, 64, 0
11, 21120, Note_on_c, 6, 62, 72
11, 21239, Note_on_c, 6, 62, 0
11, 21240, Note_on_c, 6, 61, 72
11, 21359, Note_on_c, 6, 61, 0
11, 21360, Note_on_c, 6, 59, 72
11, 21479, Note_on_c, 6, 59, 0
11, 21480, Note_on_c, 6, 61, 72
11, 21599, Note_on_c, 6, 61, 0
11, 21600, Note_on_c, 6, 57, 72
11, 21719, Note_on_c, 6, 57, 0
11, 21720, Note_on_c, 6, 59, 72
11, 21839, Note_on_c, 6, 59, 0
11, 21840, Note_on_c, 6, 61, 72
11, 21959, Note_on_c, 6, 61, 0
11, 21960, Note_on_c, 6, 62, 72
11, 22079, Note_on_c, 6, 62, 0
11, 22080, Note_on_c, 6, 64, 72
11, 22199, Note_on_c, 6, 64, 0
11, 22200, Note_on_c, 6, 66, 72
11, 22319, Note_on_c, 6, 66, 0
11, 22320, Note_on_c, 6, 62, 72
11, 22439, Note_on_c, 6, 62, 0
11, 22440, Note_on_c, 6, 64, 72
11, 22559, Note_on_c, 6, 64, 0
11, 22560, Note_on_c, 6, 66, 72
11, 22799, Note_on_c, 6, 66, 0
11, 24240, Note_on_c, 6, 57, 72
11, 24719, Note_on_c, 6, 57, 0
11, 24720, Note_on_c, 6, 54, 72
11, 24959, Note_on_c, 6, 54, 0
11, 24960, Note_on_c, 6, 62, 72
11, 25439, Note_on_c, 6, 62, 0
11, 25440, Note_on_c, 6, 61, 72
11, 25679, Note_on_c, 6, 61, 0
11, 25680, Note_on_c, 6, 57, 72
11, 25919, Note_on_c, 6, 57, 0
11, 25920, Note_on_c, 6, 64, 72
11, 26159, Note_on_c, 6, 64, 0
11, 26160, Note_on_c, 6, 66, 72
11, 26219, Note_on_c, 6, 66, 0
11, 26280, Note_on_c, 6, 61, 72
11, 26339, Note_on_c, 6, 61, 0
11, 26400, Note_on_c, 6, 62, 72
11, 26519, Note_on_c, 6, 62, 0
11, 26520, Note_on_c, 6, 64, 72
11, 26639, Note_on_c, 6, 64, 0
11, 26640, Note_on_c, 6, 66, 72
11, 26759, Note_on_c, 6, 66, 0
11, 26760, Note_on_c, 6, 69, 72
11, 26879, Note_on_c, 6, 69, 0
11, 26880, Note_on_c, 6, 62, 72
11, 27119, Note_on_c, 6, 62, 0
11, 27120, Note_on_c, 6, 64, 72
11, 27239, Note_on_c, 6, 64, 0
11, 27240, Note_on_c, 6, 66, 72
11, 27359, Note_on_c, 6, 66, 0
11, 27360, Note_on_c, 6, 67, 72
11, 27479, Note_on_c, 6, 67, 0
11, 27480, Note_on_c, 6, 71, 72
11, 27599, Note_on_c, 6, 71, 0
11, 27600, Note_on_c, 6, 67, 72
11, 27659, Note_on_c, 6, 67, 0
11, 27720, Note_on_c, 6, 66, 72
11, 27779, Note_on_c, 6, 66, 0
11, 27840, Note_on_c, 6, 64, 72
11, 27899, Note_on_c, 6, 64, 0
11, 27960, Note_on_c, 6, 62, 72
11, 28019, Note_on_c, 6, 62, 0
11, 28080, Note_on_c, 6, 61, 72
11, 28139, Note_on_c, 6, 61, 0
11, 28200, Note_on_c, 6, 67, 72
11, 28259, Note_on_c, 6, 67, 0
11, 28440, Note_on_c, 6, 66, 72
11, 28499, Note_on_c, 6, 66, 0
11, 28680, Note_on_c, 6, 67, 72
11, 28739, Note_on_c, 6, 67, 0
11, 28920, Note_on_c, 6, 64, 72
11, 28979, Note_on_c, 6, 64, 0
11, 29040, Note_on_c, 6, 62, 72
11, 29279, Note_on_c, 6, 62, 0
11, 29279, End_track
12, 0, Start_track
12, 0, Title_t, "Cello"
12, 0, MIDI_port, 0
12, 0, Program_c, 7, 48
12, 0, Control_c, 7, 7, 96
12, 0, Control_c, 7, 10, 96
12, 0, Control_c, 7, 11, 127
12, 0, Note_on_c, 7, 50, 72
12, 119, Note_on_c, 7, 50, 0
12, 120, Note_on_c, 7, 57, 72
12, 239, Note_on_c, 7, 57, 0
12, 240, Note_on_c, 7, 54, 72
12, 359, Note_on_c, 7, 54, 0
12, 360, Note_on_c, 7, 57, 72
12, 479, Note_on_c, 7, 57, 0
12, 480, Note_on_c, 7, 50, 72
12, 599, Note_on_c, 7, 50, 0
12, 600, Note_on_c, 7, 54, 72
12, 719, Note_on_c, 7, 54, 0
12, 720, Note_on_c, 7, 57, 72
12, 839, Note_on_c, 7, 57, 0
12, 840, Note_on_c, 7, 62, 72
12, 959, Note_on_c, 7, 62, 0
12, 960, Note_on_c, 7, 49, 72
12, 1079, Note_on_c, 7, 49, 0
12, 1080, Note_on_c, 7, 57, 72
12, 1199, Note_on_c, 7, 57, 0
12, 1200, Note_on_c, 7, 52, 72
12, 1319, Note_on_c, 7, 52, 0
12, 1320, Note_on_c, 7, 57, 72
12, 1439, Note_on_c, 7, 57, 0
12, 1440, Note_on_c, 7, 49, 72
12, 1559, Note_on_c, 7, 49, 0
12, 1560, Note_on_c, 7, 52, 72
12, 1679, Note_on_c, 7, 52, 0
12, 1680, Note_on_c, 7, 57, 72
12, 1799, Note_on_c, 7, 57, 0
12, 1800, Note_on_c, 7, 61, 72
12, 1919, Note_on_c, 7, 61, 0
12, 1920, Note_on_c, 7, 48, 72
12, 2039, Note_on_c, 7, 48, 0
12, 2040, Note_on_c, 7, 57, 72
12, 2159, Note_on_c, 7, 57, 0
12, 2160, Note_on_c, 7, 54, 72
12, 2279, Note_on_c, 7, 54, 0
12, 2280, Note_on_c, 7, 57, 72
12, 2399, Note_on_c, 7, 57, 0
12, 2400, Note_on_c, 7, 48, 72
12, 2519, Note_on_c, 7, 48, 0
12, 2520, Note_on_c, 7, 54, 72
12, 2639, Note_on_c, 7, 54, 0
12, 2640, Note_on_c, 7, 57, 72
12, 2759, Note_on_c, 7, 57, 0
12, 2760, Note_on_c, 7, 60, 72
12, 2879, Note_on_c, 7, 60, 0
12, 2880, Note_on_c, 7, 47, 72
12, 2999, Note_on_c, 7, 47, 0
12, 3000, Note_on_c, 7, 59, 72
12, 3119, Note_on_c, 7, 59, 0
12, 3120, Note_on_c, 7, 57, 72
12, 3239, Note_on_c, 7, 57, 0
12, 3240, Note_on_c, 7, 45, 72
12, 3359, Note_on_c, 7, 45, 0
12, 3360, Note_on_c, 7, 43, 72
12, 3479, Note_on_c, 7, 43, 0
12, 3480, Note_on_c, 7, 55, 72
12, 3599, Note_on_c, 7, 55, 0
12, 3600, Note_on_c, 7, 54, 72
12, 3719, Note_on_c, 7, 54, 0
12, 3720, Note_on_c, 7, 42, 72
12, 3839, Note_on_c, 7, 42, 0
12, 3840, Note_on_c, 7, 52, 72
12, 3959, Note_on_c, 7, 52, 0
12, 3960, Note_on_c, 7, 49, 72
12, 4079, Note_on_c, 7, 49, 0
12, 4080, Note_on_c, 7, 50, 72
12, 4199, Note_on_c, 7, 50, 0
12, 4200, Note_on_c, 7, 62, 72
12, 4319, Note_on_c, 7, 62, 0
12, 4320, Note_on_c, 7, 45, 72
12, 4439, Note_on_c, 7, 45, 0
12, 4440, Note_on_c, 7, 49, 72
12, 4559, Note_on_c, 7, 49, 0
12, 4560, Note_on_c, 7, 52, 72
12, 4679, Note_on_c, 7, 52, 0
12, 4680, Note_on_c, 7, 57, 72
12, 4799, Note_on_c, 7, 57, 0
12, 4800, Note_on_c, 7, 60, 72
12, 4919, Note_on_c, 7, 60, 0
12, 5040, Note_on_c, 7, 60, 72
12, 5099, Note_on_c, 7, 60, 0
12, 5160, Note_on_c, 7, 60, 72
12, 5219, Note_on_c, 7, 60, 0
12, 5280, Note_on_c, 7, 60, 72
12, 5399, Note_on_c, 7, 60, 0
12, 5400, Note_on_c, 7, 60, 72
12, 5519, Note_on_c, 7, 60, 0
12, 5520, Note_on_c, 7, 59, 72
12, 5639, Note_on_c, 7, 59, 0
12, 5640, Note_on_c, 7, 57, 72
12, 5759, Note_on_c, 7, 57, 0
12, 5760, Note_on_c, 7, 55, 72
12, 5879, Note_on_c, 7, 55, 0
12, 5880, Note_on_c, 7, 54, 72
12, 5999, Note_on_c, 7, 54, 0
12, 6000, Note_on_c, 7, 55, 72
12, 6119, Note_on_c, 7, 55, 0
12, 6120, Note_on_c, 7, 52, 72
12, 6239, Note_on_c, 7, 52, 0
12, 6240, Note_on_c, 7, 54, 72
12, 6359, Note_on_c, 7, 54, 0
12, 6360, Note_on_c, 7, 57, 72
12, 6479, Note_on_c, 7, 57, 0
12, 6480, Note_on_c, 7, 59, 72
12, 6599, Note_on_c, 7, 59, 0
12, 6600, Note_on_c, 7, 57, 72
12, 6719, Note_on_c, 7, 57, 0
12, 6720, Note_on_c, 7, 56, 72
12, 6839, Note_on_c, 7, 56, 0
12, 6840, Note_on_c, 7, 52, 72
12, 6959, Note_on_c, 7, 52, 0
12, 6960, Note_on_c, 7, 57, 72
12, 7079, Note_on_c, 7, 57, 0
12, 7080, Note_on_c, 7, 45, 72
12, 7199, Note_on_c, 7, 45, 0
12, 7200, Note_on_c, 7, 49, 72
12, 7319, Note_on_c, 7, 49, 0
12, 7320, Note_on_c, 7, 57, 72
12, 7439, Note_on_c, 7, 57, 0
12, 7440, Note_on_c, 7, 50, 72
12, 7559, Note_on_c, 7, 50, 0
12, 7560, Note_on_c, 7, 62, 72
12, 7679, Note_on_c, 7, 62, 0
12, 7680, Note_on_c, 7, 58, 72
12, 7799, Note_on_c, 7, 58, 0
12, 7800, Note_on_c, 7, 46, 72
12, 7919, Note_on_c, 7, 46, 0
12, 7920, Note_on_c, 7, 47, 72
12, 8039, Note_on_c, 7, 47, 0
12, 8040, Note_on_c, 7, 59, 72
12, 8159, Note_on_c, 7, 59, 0
12, 8160, Note_on_c, 7, 55, 72
12, 8279, Note_on_c, 7, 55, 0
12, 8280, Note_on_c, 7, 43, 72
12, 8399, Note_on_c, 7, 43, 0
12, 8400, Note_on_c, 7, 55, 72
12, 8519, Note_on_c, 7, 55, 0
12, 8520, Note_on_c, 7, 55, 72
12, 8639, Note_on_c, 7, 55, 0
12, 8640, Note_on_c, 7, 57, 72
12, 8759, Note_on_c, 7, 57, 0
12, 8760, Note_on_c, 7, 45, 72
12, 8879, Note_on_c, 7, 45, 0
12, 8880, Note_on_c, 7, 57, 72
12, 8999, Note_on_c, 7, 57, 0
12, 9000, Note_on_c, 7, 57, 72
12, 9119, Note_on_c, 7, 57, 0
12, 9120, Note_on_c, 7, 57, 72
12, 9239, Note_on_c, 7, 57, 0
12, 9240, Note_on_c, 7, 45, 72
12, 9359, Note_on_c, 7, 45, 0
12, 9360, Note_on_c, 7, 57, 72
12, 9479, Note_on_c, 7, 57, 0
12, 9480, Note_on_c, 7, 57, 72
12, 9599, Note_on_c, 7, 57, 0
12, 12720, Note_on_c, 7, 57, 72
12, 13199, Note_on_c, 7, 57, 0
12, 13200, Note_on_c, 7, 54, 72
12, 13439, Note_on_c, 7, 54, 0
12, 13440, Note_on_c, 7, 62, 72
12, 13919, Note_on_c, 7, 62, 0
12, 13920, Note_on_c, 7, 61, 72
12, 14159, Note_on_c, 7, 61, 0
12, 14160, Note_on_c, 7, 57, 72
12, 14399, Note_on_c, 7, 57, 0
12, 14400, Note_on_c, 7, 64, 72
12, 14639, Note_on_c, 7, 64, 0
12, 14640, Note_on_c, 7, 66, 72
12, 14999, Note_on_c, 7, 66, 0
12, 15000, Note_on_c, 7, 64, 72
12, 15119, Note_on_c, 7, 64, 0
12, 15120, Note_on_c, 7, 62, 72
12, 15239, Note_on_c, 7, 62, 0
12, 15240, Note_on_c, 7, 61, 72
12, 15359, Note_on_c, 7, 61, 0
12, 15360, Note_on_c, 7, 59, 72
12, 15479, Note_on_c, 7, 59, 0
12, 15480, Note_on_c, 7, 57, 72
12, 15599, Note_on_c, 7, 57, 0
12, 15600, Note_on_c, 7, 56, 72
12, 15719, Note_on_c, 7, 56, 0
12, 15720, Note_on_c, 7, 57, 72
12, 15839, Note_on_c, 7, 57, 0
12, 15840, Note_on_c, 7, 54, 72
12, 15959, Note_on_c, 7, 54, 0
12, 15960, Note_on_c, 7, 56, 72
12, 16079, Note_on_c, 7, 56, 0
12, 16080, Note_on_c, 7, 57, 72
12, 16319, Note_on_c, 7, 57, 0
12, 16320, Note_on_c, 7, 67, 72
12, 16560, Note_on_c, 7, 57, 72
12, 16799, Note_on_c, 7, 67, 0
12, 16799, Note_on_c, 7, 57, 0
12, 16800, Note_on_c, 7, 66, 72
12, 16800, Note_on_c, 7, 57, 72
12, 17039, Note_on_c, 7, 66, 0
12, 17039, Note_on_c, 7, 57, 0
12, 19920, Note_on_c, 7, 59, 72
12, 20159, Note_on_c, 7, 59, 0
12, 20160, Note_on_c, 7, 61, 72
12, 20399, Note_on_c, 7, 61, 0
12, 20400, Note_on_c, 7, 62, 72
12, 20639, Note_on_c, 7, 62, 0
12, 20640, Note_on_c, 7, 64, 72
12, 20879, Note_on_c, 7, 64, 0
12, 20880, Note_on_c, 7, 66, 72
12, 20999, Note_on_c, 7, 66, 0
12, 21000, Note_on_c, 7, 64, 72
12, 21119, Note_on_c, 7, 64, 0
12, 21120, Note_on_c, 7, 62, 72
12, 21239, Note_on_c, 7, 62, 0
12, 21240, Note_on_c, 7, 61, 72
12, 21359, Note_on_c, 7, 61, 0
12, 21359, End_track
13, 0, Start_track
13, 0, Title_t, "Contrabass"
13, 0, MIDI_port, 0
13, 0, Program_c, 8, 48
13, 0, Control_c, 8, 7, 104
13, 0, Control_c, 8, 10, 112
13, 0, Control_c, 8, 11, 127
13, 0, Note_on_c, 8, 38, 72
13, 119, Note_on_c, 8, 38, 0
13, 120, Note_on_c, 8, 45, 72
13, 239, Note_on_c, 8, 45, 0
13, 240, Note_on_c, 8, 42, 72
13, 359, Note_on_c, 8, 42, 0
13, 360, Note_on_c, 8, 45, 72
13, 479, Note_on_c, 8, 45, 0
13, 480, Note_on_c, 8, 38, 72
13, 599, Note_on_c, 8, 38, 0
13, 600, Note_on_c, 8, 42, 72
13, 719, Note_on_c, 8, 42, 0
13, 720, Note_on_c, 8, 45, 72
13, 839, Note_on_c, 8, 45, 0
13, 840, Note_on_c, 8, 50, 72
13, 959, Note_on_c, 8, 50, 0
13, 960, Note_on_c, 8, 37, 72
13, 1079, Note_on_c, 8, 37, 0
13, 1080, Note_on_c, 8, 45, 72
13, 1199, Note_on_c, 8, 45, 0
13, 1200, Note_on_c, 8, 40, 72
13, 1319, Note_on_c, 8, 40, 0
13, 1320, Note_on_c, 8, 45, 72
13, 1439, Note_on_c, 8, 45, 0
13, 1440, Note_on_c, 8, 37, 72
13, 1559, Note_on_c, 8, 37, 0
13, 1560, Note_on_c, 8, 40, 72
13, 1679, Note_on_c, 8, 40, 0
13, 1680, Note_on_c, 8, 45, 72
13, 1799, Note_on_c, 8, 45, 0
13, 1800, Note_on_c, 8, 49, 72
13, 1919, Note_on_c, 8, 49, 0
13, 1920, Note_on_c, 8, 36, 72
13, 2039, Note_on_c, 8, 36, 0
13, 2040, Note_on_c, 8, 45, 72
13, 2159, Note_on_c, 8, 45, 0
13, 2160, Note_on_c, 8, 42, 72
13, 2279, Note_on_c, 8, 42, 0
13, 2280, Note_on_c, 8, 45, 72
13, 2399, Note_on_c, 8, 45, 0
13, 2400, Note_on_c, 8, 36, 72
13, 2519, Note_on_c, 8, 36, 0
13, 2520, Note_on_c, 8, 42, 72
13, 2639, Note_on_c, 8, 42, 0
13, 2640, Note_on_c, 8, 45, 72
13, 2759, Note_on_c, 8, 45, 0
13, 2760, Note_on_c, 8, 48, 72
13, 2879, Note_on_c, 8, 48, 0
13, 2880, Note_on_c, 8, 35, 72
13, 2999, Note_on_c, 8, 35, 0
13, 3000, Note_on_c, 8, 47, 72
13, 3119, Note_on_c, 8, 47, 0
13, 3120, Note_on_c, 8, 45, 72
13, 3239, Note_on_c, 8, 45, 0
13, 3240, Note_on_c, 8, 33, 72
13, 3359, Note_on_c, 8, 33, 0
13, 3360, Note_on_c, 8, 31, 72
13, 3479, Note_on_c, 8, 31, 0
13, 3480, Note_on_c, 8, 43, 72
13, 3599, Note_on_c, 8, 43, 0
13, 3600, Note_on_c, 8, 42, 72
13, 3719, Note_on_c, 8, 42, 0
13, 3720, Note_on_c, 8, 30, 72
13, 3839, Note_on_c, 8, 30, 0
13, 3840, Note_on_c, 8, 40, 72
13, 3959, Note_on_c, 8, 40, 0
13, 3960, Note_on_c, 8, 37, 72
13, 4079, Note_on_c, 8, 37, 0
13, 4080, Note_on_c, 8, 38, 72
13, 4199, Note_on_c, 8, 38, 0
13, 4200, Note_on_c, 8, 50, 72
13, 4319, Note_on_c, 8, 50, 0
13, 4320, Note_on_c, 8, 33, 72
13, 4439, Note_on_c, 8, 33, 0
13, 4440, Note_on_c, 8, 37, 72
13, 4559, Note_on_c, 8, 37, 0
13, 4560, Note_on_c, 8, 40, 72
13, 4679, Note_on_c, 8, 40, 0
13, 4680, Note_on_c, 8, 45, 72
13, 4799, Note_on_c, 8, 45, 0
13, 4800, Note_on_c, 8, 48, 72
13, 4919, Note_on_c, 8, 48, 0
13, 5040, Note_on_c, 8, 48, 72
13, 5099, Note_on_c, 8, 48, 0
13, 5160, Note_on_c, 8, 48, 72
13, 5219, Note_on_c, 8, 48, 0
13, 5280, Note_on_c, 8, 48, 72
13, 5399, Note_on_c, 8, 48, 0
13, 5400, Note_on_c, 8, 48, 72
13, 5519, Note_on_c, 8, 48, 0
13, 5520, Note_on_c, 8, 47, 72
13, 5639, Note_on_c, 8, 47, 0
13, 5640, Note_on_c, 8, 45, 72
13, 5759, Note_on_c, 8, 45, 0
13, 5760, Note_on_c, 8, 43, 72
13, 5879, Note_on_c, 8, 43, 0
13, 5880, Note_on_c, 8, 42, 72
13, 5999, Note_on_c, 8, 42, 0
13, 6000, Note_on_c, 8, 43, 72
13, 6119, Note_on_c, 8, 43, 0
13, 6120, Note_on_c, 8, 40, 72
13, 6239, Note_on_c, 8, 40, 0
13, 6240, Note_on_c, 8, 42, 72
13, 6359, Note_on_c, 8, 42, 0
13, 6360, Note_on_c, 8, 45, 72
13, 6479, Note_on_c, 8, 45, 0
13, 6480, Note_on_c, 8, 47, 72
13, 6599, Note_on_c, 8, 47, 0
13, 6600, Note_on_c, 8, 45, 72
13, 6719, Note_on_c, 8, 45, 0
13, 6720, Note_on_c, 8, 44, 72
13, 6839, Note_on_c, 8, 44, 0
13, 6840, Note_on_c, 8, 40, 72
13, 6959, Note_on_c, 8, 40, 0
13, 6960, Note_on_c, 8, 45, 72
13, 7079, Note_on_c, 8, 45, 0
13, 7080, Note_on_c, 8, 33, 72
13, 7199, Note_on_c, 8, 33, 0
13, 7200, Note_on_c, 8, 37, 72
13, 7319, Note_on_c, 8, 37, 0
13, 7320, Note_on_c, 8, 45, 72
13, 7439, Note_on_c, 8, 45, 0
13, 7440, Note_on_c, 8, 38, 72
13, 7559, Note_on_c, 8, 38, 0
13, 7560, Note_on_c, 8, 50, 72
13, 7679, Note_on_c, 8, 50, 0
13, 7680, Note_on_c, 8, 46, 72
13, 7799, Note_on_c, 8, 46, 0
13, 7800, Note_on_c, 8, 34, 72
13, 7919, Note_on_c, 8, 34, 0
13, 7920, Note_on_c, 8, 35, 72
13, 8039, Note_on_c, 8, 35, 0
13, 8040, Note_on_c, 8, 47, 72
13, 8159, Note_on_c, 8, 47, 0
13, 8160, Note_on_c, 8, 43, 72
13, 8279, Note_on_c, 8, 43, 0
13, 8280, Note_on_c, 8, 31, 72
13, 8399, Note_on_c, 8, 31, 0
13, 8400, Note_on_c, 8, 43, 72
13, 8519, Note_on_c, 8, 43, 0
13, 8520, Note_on_c, 8, 43, 72
13, 8639, Note_on_c, 8, 43, 0
13, 8640, Note_on_c, 8, 45, 72
13, 8759, Note_on_c, 8, 45, 0
13, 8760, Note_on_c, 8, 33, 72
13, 8879, Note_on_c, 8, 33, 0
13, 8880, Note_on_c, 8, 45, 72
13, 8999, Note_on_c, 8, 45, 0
13, 9000, Note_on_c, 8, 45, 72
13, 9119, Note_on_c, 8, 45, 0
13, 9120, Note_on_c, 8, 45, 72
13, 9239, Note_on_c, 8, 45, 0
13, 9240, Note_on_c, 8, 33, 72
13, 9359, Note_on_c, 8, 33, 0
13, 9360, Note_on_c, 8, 45, 72
13, 9479, Note_on_c, 8, 45, 0
13, 9480, Note_on_c, 8, 45, 72
13, 9599, Note_on_c, 8, 45, 0
13, 9600, Note_on_c, 8, 38, 72
13, 9719, Note_on_c, 8, 38, 0
13, 9840, Note_on_c, 8, 38, 72
13, 10319, Note_on_c, 8, 38, 0
13, 10320, Note_on_c, 8, 37, 72
13, 10439, Note_on_c, 8, 37, 0
13, 10560, Note_on_c, 8, 43, 72
13, 11039, Note_on_c, 8, 43, 0
13, 11040, Note_on_c, 8, 42, 72
13, 11279, Note_on_c, 8, 42, 0
13, 11280, Note_on_c, 8, 38, 72
13, 11519, Note_on_c, 8, 38, 0
13, 11520, Note_on_c, 8, 45, 72
13, 11639, Note_on_c, 8, 45, 0
13, 11760, Note_on_c, 8, 47, 72
13, 12119, Note_on_c, 8, 47, 0
13, 12120, Note_on_c, 8, 45, 72
13, 12239, Note_on_c, 8, 45, 0
13, 12240, Note_on_c, 8, 43, 72
13, 12359, Note_on_c, 8, 43, 0
13, 12360, Note_on_c, 8, 42, 72
13, 12479, Note_on_c, 8, 42, 0
13, 12480, Note_on_c, 8, 40, 72
13, 12599, Note_on_c, 8, 40, 0
13, 12600, Note_on_c, 8, 38, 72
13, 12719, Note_on_c, 8, 38, 0
13, 12720, Note_on_c, 8, 37, 72
13, 12839, Note_on_c, 8, 37, 0
13, 12840, Note_on_c, 8, 38, 72
13, 12959, Note_on_c, 8, 38, 0
13, 12960, Note_on_c, 8, 35, 72
13, 13079, Note_on_c, 8, 35, 0
13, 13080, Note_on_c, 8, 37, 72
13, 13199, Note_on_c, 8, 37, 0
13, 13200, Note_on_c, 8, 38, 72
13, 13439, Note_on_c, 8, 38, 0
13, 13440, Note_on_c, 8, 35, 72
13, 13679, Note_on_c, 8, 35, 0
13, 13680, Note_on_c, 8, 40, 72
13, 13919, Note_on_c, 8, 40, 0
13, 13920, Note_on_c, 8, 33, 72
13, 14159, Note_on_c, 8, 33, 0
13, 14160, Note_on_c, 8, 35, 72
13, 14399, Note_on_c, 8, 35, 0
13, 14400, Note_on_c, 8, 37, 72
13, 14639, Note_on_c, 8, 37, 0
13, 14640, Note_on_c, 8, 38, 72
13, 14879, Note_on_c, 8, 38, 0
13, 14880, Note_on_c, 8, 40, 72
13, 15119, Note_on_c, 8, 40, 0
13, 15120, Note_on_c, 8, 42, 72
13, 15359, Note_on_c, 8, 42, 0
13, 15360, Note_on_c, 8, 38, 72
13, 15839, Note_on_c, 8, 38, 0
13, 15840, Note_on_c, 8, 40, 72
13, 16199, Note_on_c, 8, 40, 0
13, 16200, Note_on_c, 8, 38, 72
13, 16319, Note_on_c, 8, 38, 0
13, 16320, Note_on_c, 8, 37, 72
13, 16439, Note_on_c, 8, 37, 0
13, 16440, Note_on_c, 8, 38, 72
13, 16559, Note_on_c, 8, 38, 0
13, 16560, Note_on_c, 8, 35, 72
13, 16679, Note_on_c, 8, 35, 0
13, 16680, Note_on_c, 8, 37, 72
13, 16799, Note_on_c, 8, 37, 0
13, 16800, Note_on_c, 8, 38, 72
13, 17039, Note_on_c, 8, 38, 0
13, 17280, Note_on_c, 8, 38, 72
13, 17639, Note_on_c, 8, 38, 0
13, 17640, Note_on_c, 8, 37, 72
13, 17759, Note_on_c, 8, 37, 0
13, 17760, Note_on_c, 8, 35, 72
13, 17879, Note_on_c, 8, 35, 0
13, 17880, Note_on_c, 8, 37, 72
13, 17999, Note_on_c, 8, 37, 0
13, 18000, Note_on_c, 8, 33, 72
13, 18119, Note_on_c, 8, 33, 0
13, 18120, Note_on_c, 8, 35, 72
13, 18239, Note_on_c, 8, 35, 0
13, 18240, Note_on_c, 8, 31, 72
13, 18719, Note_on_c, 8, 31, 0
13, 18720, Note_on_c, 8, 33, 72
13, 18959, Note_on_c, 8, 33, 0
13, 18960, Note_on_c, 8, 35, 72
13, 19439, Note_on_c, 8, 35, 0
13, 19440, Note_on_c, 8, 40, 72
13, 19679, Note_on_c, 8, 40, 0
13, 19680, Note_on_c, 8, 33, 72
13, 19919, Note_on_c, 8, 33, 0
13, 21360, Note_on_c, 8, 40, 72
13, 21839, Note_on_c, 8, 40, 0
13, 21840, Note_on_c, 8, 37, 72
13, 22079, Note_on_c, 8, 37, 0
13, 22080, Note_on_c, 8, 45, 72
13, 22559, Note_on_c, 8, 45, 0
13, 22560, Note_on_c, 8, 42, 72
13, 22799, Note_on_c, 8, 42, 0
13, 22800, Note_on_c, 8, 38, 72
13, 23039, Note_on_c, 8, 38, 0
13, 23040, Note_on_c, 8, 45, 72
13, 23279, Note_on_c, 8, 45, 0
13, 23280, Note_on_c, 8, 47, 72
13, 23639, Note_on_c, 8, 47, 0
13, 23640, Note_on_c, 8, 45, 72
13, 23759, Note_on_c, 8, 45, 0
13, 23760, Note_on_c, 8, 43, 72
13, 23879, Note_on_c, 8, 43, 0
13, 23880, Note_on_c, 8, 42, 72
13, 23999, Note_on_c, 8, 42, 0
13, 24000, Note_on_c, 8, 40, 72
13, 24119, Note_on_c, 8, 40, 0
13, 24120, Note_on_c, 8, 38, 72
13, 24239, Note_on_c, 8, 38, 0
13, 24240, Note_on_c, 8, 37, 72
13, 24359, Note_on_c, 8, 37, 0
13, 24360, Note_on_c, 8, 38, 72
13, 24479, Note_on_c, 8, 38, 0
13, 24480, Note_on_c, 8, 35, 72
13, 24599, Note_on_c, 8, 35, 0
13, 24600, Note_on_c, 8, 37, 72
13, 24719, Note_on_c, 8, 37, 0
13, 24720, Note_on_c, 8, 38, 72
13, 24839, Note_on_c, 8, 38, 0
13, 24840, Note_on_c, 8, 40, 72
13, 24959, Note_on_c, 8, 40, 0
13, 24960, Note_on_c, 8, 42, 72
13, 25079, Note_on_c, 8, 42, 0
13, 25080, Note_on_c, 8, 40, 72
13, 25199, Note_on_c, 8, 40, 0
13, 25200, Note_on_c, 8, 42, 72
13, 25319, Note_on_c, 8, 42, 0
13, 25320, Note_on_c, 8, 44, 72
13, 25439, Note_on_c, 8, 44, 0
13, 25440, Note_on_c, 8, 45, 72
13, 25679, Note_on_c, 8, 45, 0
13, 25680, Note_on_c, 8, 33, 72
13, 25919, Note_on_c, 8, 33, 0
13, 25920, Note_on_c, 8, 45, 72
13, 26159, Note_on_c, 8, 45, 0
13, 26160, Note_on_c, 8, 38, 72
13, 26399, Note_on_c, 8, 38, 0
13, 26640, Note_on_c, 8, 38, 72
13, 26879, Note_on_c, 8, 38, 0
13, 26880, Note_on_c, 8, 43, 72
13, 27119, Note_on_c, 8, 43, 0
13, 27360, Note_on_c, 8, 43, 72
13, 27599, Note_on_c, 8, 43, 0
13, 27600, Note_on_c, 8, 45, 72
13, 27839, Note_on_c, 8, 45, 0
13, 28080, Note_on_c, 8, 45, 72
13, 28319, Note_on_c, 8, 45, 0
13, 28320, Note_on_c, 8, 47, 72
13, 28379, Note_on_c, 8, 47, 0
13, 28560, Note_on_c, 8, 43, 72
13, 28619, Note_on_c, 8, 43, 0
13, 28800, Note_on_c, 8, 45, 72
13, 28859, Note_on_c, 8, 45, 0
13, 29040, Note_on_c, 8, 38, 72
13, 29279, Note_on_c, 8, 38, 0
13, 29279, End_track
14, 0, Start_track
14, 0, Title_t, "Soprano "
14, 0, MIDI_port, 0
14, 0, Program_c, 10, 73
14, 0, Control_c, 10, 7, 96
14, 0, Control_c, 10, 10, 24
14, 0, Control_c, 10, 11, 127
14, 0, Note_on_c, 10, 74, 88
14, 479, Note_on_c, 10, 74, 0
14, 480, Note_on_c, 10, 69, 88
14, 719, Note_on_c, 10, 69, 0
14, 960, Note_on_c, 10, 76, 88
14, 1439, Note_on_c, 10, 76, 0
14, 1440, Note_on_c, 10, 69, 88
14, 1679, Note_on_c, 10, 69, 0
14, 1920, Note_on_c, 10, 78, 88
14, 2399, Note_on_c, 10, 78, 0
14, 2400, Note_on_c, 10, 74, 88
14, 2639, Note_on_c, 10, 74, 0
14, 2880, Note_on_c, 10, 79, 88
14, 3119, Note_on_c, 10, 79, 0
14, 3120, Note_on_c, 10, 78, 88
14, 3239, Note_on_c, 10, 78, 0
14, 3240, Note_on_c, 10, 78, 88
14, 3359, Note_on_c, 10, 78, 0
14, 3360, Note_on_c, 10, 76, 88
14, 3599, Note_on_c, 10, 76, 0
14, 3600, Note_on_c, 10, 74, 88
14, 3839, Note_on_c, 10, 74, 0
14, 3840, Note_on_c, 10, 73, 88
14, 3959, Note_on_c, 10, 73, 0
14, 3960, Note_on_c, 10, 79, 88
14, 4199, Note_on_c, 10, 79, 0
14, 4200, Note_on_c, 10, 78, 88
14, 4319, Note_on_c, 10, 78, 0
14, 4320, Note_on_c, 10, 76, 88
14, 4799, Note_on_c, 10, 76, 0
14, 5280, Note_on_c, 10, 78, 88
14, 5519, Note_on_c, 10, 78, 0
14, 5520, Note_on_c, 10, 78, 88
14, 5639, Note_on_c, 10, 78, 0
14, 5640, Note_on_c, 10, 78, 88
14, 5759, Note_on_c, 10, 78, 0
14, 5760, Note_on_c, 10, 76, 88
14, 5999, Note_on_c, 10, 76, 0
14, 6000, Note_on_c, 10, 76, 88
14, 6119, Note_on_c, 10, 76, 0
14, 6120, Note_on_c, 10, 76, 88
14, 6239, Note_on_c, 10, 76, 0
14, 6240, Note_on_c, 10, 76, 88
14, 6479, Note_on_c, 10, 76, 0
14, 6480, Note_on_c, 10, 75, 88
14, 6719, Note_on_c, 10, 75, 0
14, 6720, Note_on_c, 10, 74, 88
14, 6959, Note_on_c, 10, 74, 0
14, 6960, Note_on_c, 10, 73, 88
14, 7199, Note_on_c, 10, 73, 0
14, 7200, Note_on_c, 10, 76, 88
14, 7439, Note_on_c, 10, 76, 0
14, 7440, Note_on_c, 10, 74, 88
14, 7559, Note_on_c, 10, 74, 0
14, 7560, Note_on_c, 10, 74, 88
14, 7679, Note_on_c, 10, 74, 0
14, 7680, Note_on_c, 10, 79, 88
14, 7919, Note_on_c, 10, 79, 0
14, 7920, Note_on_c, 10, 78, 88
14, 8039, Note_on_c, 10, 78, 0
14, 8040, Note_on_c, 10, 78, 88
14, 8159, Note_on_c, 10, 78, 0
14, 8160, Note_on_c, 10, 78, 88
14, 8399, Note_on_c, 10, 78, 0
14, 8400, Note_on_c, 10, 76, 88
14, 8519, Note_on_c, 10, 76, 0
14, 8520, Note_on_c, 10, 74, 88
14, 8639, Note_on_c, 10, 74, 0
14, 8640, Note_on_c, 10, 73, 88
14, 8879, Note_on_c, 10, 73, 0
14, 8880, Note_on_c, 10, 74, 88
14, 9359, Note_on_c, 10, 74, 0
14, 9360, Note_on_c, 10, 73, 88
14, 9599, Note_on_c, 10, 73, 0
14, 9600, Note_on_c, 10, 74, 88
14, 9839, Note_on_c, 10, 74, 0
14, 18480, Note_on_c, 10, 69, 88
14, 18959, Note_on_c, 10, 69, 0
14, 18960, Note_on_c, 10, 66, 88
14, 19199, Note_on_c, 10, 66, 0
14, 19200, Note_on_c, 10, 74, 88
14, 19679, Note_on_c, 10, 74, 0
14, 19680, Note_on_c, 10, 73, 88
14, 19919, Note_on_c, 10, 73, 0
14, 19920, Note_on_c, 10, 69, 88
14, 20159, Note_on_c, 10, 69, 0
14, 20160, Note_on_c, 10, 76, 88
14, 20399, Note_on_c, 10, 76, 0
14, 20400, Note_on_c, 10, 78, 88
14, 20759, Note_on_c, 10, 78, 0
14, 20760, Note_on_c, 10, 76, 88
14, 20879, Note_on_c, 10, 76, 0
14, 20880, Note_on_c, 10, 74, 88
14, 20999, Note_on_c, 10, 74, 0
14, 21000, Note_on_c, 10, 73, 88
14, 21119, Note_on_c, 10, 73, 0
14, 21120, Note_on_c, 10, 71, 88
14, 21239, Note_on_c, 10, 71, 0
14, 21240, Note_on_c, 10, 69, 88
14, 21359, Note_on_c, 10, 69, 0
14, 21360, Note_on_c, 10, 68, 88
14, 21479, Note_on_c, 10, 68, 0
14, 21480, Note_on_c, 10, 69, 88
14, 21599, Note_on_c, 10, 69, 0
14, 21600, Note_on_c, 10, 66, 88
14, 21719, Note_on_c, 10, 66, 0
14, 21720, Note_on_c, 10, 68, 88
14, 21839, Note_on_c, 10, 68, 0
14, 21840, Note_on_c, 10, 69, 88
14, 22079, Note_on_c, 10, 69, 0
14, 22320, Note_on_c, 10, 69, 88
14, 22679, Note_on_c, 10, 69, 0
14, 22680, Note_on_c, 10, 67, 88
14, 22799, Note_on_c, 10, 67, 0
14, 22800, Note_on_c, 10, 66, 88
14, 22919, Note_on_c, 10, 66, 0
14, 22920, Note_on_c, 10, 67, 88
14, 23039, Note_on_c, 10, 67, 0
14, 23040, Note_on_c, 10, 64, 88
14, 23159, Note_on_c, 10, 64, 0
14, 23160, Note_on_c, 10, 66, 88
14, 23279, Note_on_c, 10, 66, 0
14, 23280, Note_on_c, 10, 67, 88
14, 23519, Note_on_c, 10, 67, 0
14, 23520, Note_on_c, 10, 79, 88
14, 23639, Note_on_c, 10, 79, 0
14, 23640, Note_on_c, 10, 78, 88
14, 23759, Note_on_c, 10, 78, 0
14, 23760, Note_on_c, 10, 76, 88
14, 23879, Note_on_c, 10, 76, 0
14, 23880, Note_on_c, 10, 74, 88
14, 23999, Note_on_c, 10, 74, 0
14, 24000, Note_on_c, 10, 73, 88
14, 24119, Note_on_c, 10, 73, 0
14, 24120, Note_on_c, 10, 71, 88
14, 24239, Note_on_c, 10, 71, 0
14, 24240, Note_on_c, 10, 69, 88
14, 24359, Note_on_c, 10, 69, 0
14, 24360, Note_on_c, 10, 67, 88
14, 24479, Note_on_c, 10, 67, 0
14, 24480, Note_on_c, 10, 66, 88
14, 24599, Note_on_c, 10, 66, 0
14, 24600, Note_on_c, 10, 64, 88
14, 24719, Note_on_c, 10, 64, 0
14, 24720, Note_on_c, 10, 62, 88
14, 24959, Note_on_c, 10, 62, 0
14, 24960, Note_on_c, 10, 74, 88
14, 25079, Note_on_c, 10, 74, 0
14, 25080, Note_on_c, 10, 73, 88
14, 25199, Note_on_c, 10, 73, 0
14, 25200, Note_on_c, 10, 71, 88
14, 25439, Note_on_c, 10, 71, 0
14, 25440, Note_on_c, 10, 69, 88
14, 25679, Note_on_c, 10, 69, 0
14, 25680, Note_on_c, 10, 71, 88
14, 25919, Note_on_c, 10, 71, 0
14, 25920, Note_on_c, 10, 73, 88
14, 26159, Note_on_c, 10, 73, 0
14, 26160, Note_on_c, 10, 74, 88
14, 26879, Note_on_c, 10, 74, 0
14, 26880, Note_on_c, 10, 71, 88
14, 27359, Note_on_c, 10, 71, 0
14, 27360, Note_on_c, 10, 76, 88
14, 27599, Note_on_c, 10, 76, 0
14, 27600, Note_on_c, 10, 73, 88
14, 28079, Note_on_c, 10, 73, 0
14, 28080, Note_on_c, 10, 79, 88
14, 28319, Note_on_c, 10, 79, 0
14, 28320, Note_on_c, 10, 78, 88
14, 28559, Note_on_c, 10, 78, 0
14, 28560, Note_on_c, 10, 76, 88
14, 29039, Note_on_c, 10, 76, 0
14, 29040, Note_on_c, 10, 74, 88
14, 29279, Note_on_c, 10, 74, 0
14, 29279, End_track
15, 0, Start_track
15, 0, Title_t, "Alto "
15, 0, MIDI_port, 0
15, 0, Program_c, 11, 73
15, 0, Control_c, 11, 7, 96
15, 0, Control_c, 11, 10, 96
15, 0, Control_c, 11, 11, 127
15, 0, Note_on_c, 11, 69, 88
15, 479, Note_on_c, 11, 69, 0
15, 480, Note_on_c, 11, 66, 88
15, 719, Note_on_c, 11, 66, 0
15, 960, Note_on_c, 11, 69, 88
15, 1439, Note_on_c, 11, 69, 0
15, 1440, Note_on_c, 11, 67, 88
15, 1679, Note_on_c, 11, 67, 0
15, 1920, Note_on_c, 11, 69, 88
15, 2399, Note_on_c, 11, 69, 0
15, 2400, Note_on_c, 11, 66, 88
15, 2639, Note_on_c, 11, 66, 0
15, 2880, Note_on_c, 11, 67, 88
15, 3119, Note_on_c, 11, 67, 0
15, 3120, Note_on_c, 11, 69, 88
15, 3239, Note_on_c, 11, 69, 0
15, 3240, Note_on_c, 11, 69, 88
15, 3359, Note_on_c, 11, 69, 0
15, 3360, Note_on_c, 11, 71, 88
15, 3599, Note_on_c, 11, 71, 0
15, 3600, Note_on_c, 11, 69, 88
15, 3839, Note_on_c, 11, 69, 0
15, 3840, Note_on_c, 11, 67, 88
15, 3959, Note_on_c, 11, 67, 0
15, 3960, Note_on_c, 11, 69, 88
15, 4199, Note_on_c, 11, 69, 0
15, 4200, Note_on_c, 11, 69, 88
15, 4319, Note_on_c, 11, 69, 0
15, 4320, Note_on_c, 11, 69, 88
15, 4799, Note_on_c, 11, 69, 0
15, 5280, Note_on_c, 11, 69, 88
15, 5519, Note_on_c, 11, 69, 0
15, 5520, Note_on_c, 11, 71, 88
15, 5639, Note_on_c, 11, 71, 0
15, 5640, Note_on_c, 11, 72, 88
15, 5759, Note_on_c, 11, 72, 0
15, 5760, Note_on_c, 11, 71, 88
15, 5999, Note_on_c, 11, 71, 0
15, 6000, Note_on_c, 11, 71, 88
15, 6119, Note_on_c, 11, 71, 0
15, 6120, Note_on_c, 11, 71, 88
15, 6239, Note_on_c, 11, 71, 0
15, 6240, Note_on_c, 11, 69, 88
15, 6479, Note_on_c, 11, 69, 0
15, 6480, Note_on_c, 11, 66, 88
15, 6719, Note_on_c, 11, 66, 0
15, 6720, Note_on_c, 11, 64, 88
15, 6959, Note_on_c, 11, 64, 0
15, 6960, Note_on_c, 11, 64, 88
15, 7199, Note_on_c, 11, 64, 0
15, 7200, Note_on_c, 11, 69, 88
15, 7439, Note_on_c, 11, 69, 0
15, 7440, Note_on_c, 11, 69, 88
15, 7559, Note_on_c, 11, 69, 0
15, 7560, Note_on_c, 11, 69, 88
15, 7679, Note_on_c, 11, 69, 0
15, 7680, Note_on_c, 11, 73, 88
15, 7919, Note_on_c, 11, 73, 0
15, 7920, Note_on_c, 11, 66, 88
15, 8039, Note_on_c, 11, 66, 0
15, 8040, Note_on_c, 11, 66, 88
15, 8159, Note_on_c, 11, 66, 0
15, 8160, Note_on_c, 11, 71, 88
15, 8399, Note_on_c, 11, 71, 0
15, 8400, Note_on_c, 11, 71, 88
15, 8519, Note_on_c, 11, 71, 0
15, 8520, Note_on_c, 11, 71, 88
15, 8639, Note_on_c, 11, 71, 0
15, 8640, Note_on_c, 11, 69, 88
15, 9599, Note_on_c, 11, 69, 0
15, 9600, Note_on_c, 11, 66, 88
15, 9839, Note_on_c, 11, 66, 0
15, 15600, Note_on_c, 11, 62, 88
15, 16079, Note_on_c, 11, 62, 0
15, 16080, Note_on_c, 11, 61, 88
15, 16319, Note_on_c, 11, 61, 0
15, 16320, Note_on_c, 11, 67, 88
15, 16799, Note_on_c, 11, 67, 0
15, 16800, Note_on_c, 11, 66, 88
15, 17039, Note_on_c, 11, 66, 0
15, 17040, Note_on_c, 11, 62, 88
15, 17279, Note_on_c, 11, 62, 0
15, 17280, Note_on_c, 11, 69, 88
15, 17519, Note_on_c, 11, 69, 0
15, 17520, Note_on_c, 11, 71, 88
15, 17879, Note_on_c, 11, 71, 0
15, 17880, Note_on_c, 11, 69, 88
15, 17999, Note_on_c, 11, 69, 0
15, 18000, Note_on_c, 11, 67, 88
15, 18119, Note_on_c, 11, 67, 0
15, 18120, Note_on_c, 11, 66, 88
15, 18239, Note_on_c, 11, 66, 0
15, 18240, Note_on_c, 11, 64, 88
15, 18359, Note_on_c, 11, 64, 0
15, 18360, Note_on_c, 11, 62, 88
15, 18479, Note_on_c, 11, 62, 0
15, 18480, Note_on_c, 11, 61, 88
15, 18599, Note_on_c, 11, 61, 0
15, 18600, Note_on_c, 11, 62, 88
15, 18719, Note_on_c, 11, 62, 0
15, 18720, Note_on_c, 11, 59, 88
15, 18839, Note_on_c, 11, 59, 0
15, 18840, Note_on_c, 11, 61, 88
15, 18959, Note_on_c, 11, 61, 0
15, 18960, Note_on_c, 11, 62, 88
15, 19079, Note_on_c, 11, 62, 0
15, 19080, Note_on_c, 11, 64, 88
15, 19199, Note_on_c, 11, 64, 0
15, 19200, Note_on_c, 11, 66, 88
15, 19319, Note_on_c, 11, 66, 0
15, 19320, Note_on_c, 11, 64, 88
15, 19439, Note_on_c, 11, 64, 0
15, 19440, Note_on_c, 11, 66, 88
15, 19559, Note_on_c, 11, 66, 0
15, 19560, Note_on_c, 11, 68, 88
15, 19679, Note_on_c, 11, 68, 0
15, 19680, Note_on_c, 11, 69, 88
15, 19919, Note_on_c, 11, 69, 0
15, 20160, Note_on_c, 11, 69, 88
15, 20639, Note_on_c, 11, 69, 0
15, 20640, Note_on_c, 11, 68, 88
15, 20879, Note_on_c, 11, 68, 0
15, 20880, Note_on_c, 11, 69, 88
15, 20999, Note_on_c, 11, 69, 0
15, 21000, Note_on_c, 11, 68, 88
15, 21119, Note_on_c, 11, 68, 0
15, 21120, Note_on_c, 11, 66, 88
15, 21239, Note_on_c, 11, 66, 0
15, 21240, Note_on_c, 11, 64, 88
15, 21359, Note_on_c, 11, 64, 0
15, 21360, Note_on_c, 11, 62, 88
15, 21479, Note_on_c, 11, 62, 0
15, 21480, Note_on_c, 11, 61, 88
15, 21599, Note_on_c, 11, 61, 0
15, 21600, Note_on_c, 11, 62, 88
15, 21839, Note_on_c, 11, 62, 0
15, 21840, Note_on_c, 11, 64, 88
15, 21959, Note_on_c, 11, 64, 0
15, 21960, Note_on_c, 11, 62, 88
15, 22079, Note_on_c, 11, 62, 0
15, 22080, Note_on_c, 11, 61, 88
15, 22199, Note_on_c, 11, 61, 0
15, 22200, Note_on_c, 11, 62, 88
15, 22319, Note_on_c, 11, 62, 0
15, 22320, Note_on_c, 11, 59, 88
15, 22439, Note_on_c, 11, 59, 0
15, 22440, Note_on_c, 11, 61, 88
15, 22559, Note_on_c, 11, 61, 0
15, 22560, Note_on_c, 11, 62, 88
15, 22799, Note_on_c, 11, 62, 0
15, 22800, Note_on_c, 11, 57, 88
15, 23039, Note_on_c, 11, 57, 0
15, 23040, Note_on_c, 11, 62, 88
15, 23399, Note_on_c, 11, 62, 0
15, 23400, Note_on_c, 11, 61, 88
15, 23519, Note_on_c, 11, 61, 0
15, 23520, Note_on_c, 11, 59, 88
15, 23639, Note_on_c, 11, 59, 0
15, 23640, Note_on_c, 11, 61, 88
15, 23759, Note_on_c, 11, 61, 0
15, 23760, Note_on_c, 11, 57, 88
15, 23879, Note_on_c, 11, 57, 0
15, 23880, Note_on_c, 11, 59, 88
15, 23999, Note_on_c, 11, 59, 0
15, 24000, Note_on_c, 11, 55, 88
15, 24239, Note_on_c, 11, 55, 0
15, 26160, Note_on_c, 11, 69, 88
15, 26879, Note_on_c, 11, 69, 0
15, 26880, Note_on_c, 11, 67, 88
15, 27359, Note_on_c, 11, 67, 0
15, 27360, Note_on_c, 11, 71, 88
15, 27599, Note_on_c, 11, 71, 0
15, 27600, Note_on_c, 11, 67, 88
15, 28079, Note_on_c, 11, 67, 0
15, 28080, Note_on_c, 11, 73, 88
15, 28319, Note_on_c, 11, 73, 0
15, 28320, Note_on_c, 11, 76, 88
15, 28559, Note_on_c, 11, 76, 0
15, 28560, Note_on_c, 11, 71, 88
15, 28799, Note_on_c, 11, 71, 0
15, 28800, Note_on_c, 11, 69, 88
15, 29039, Note_on_c, 11, 69, 0
15, 29040, Note_on_c, 11, 69, 88
15, 29279, Note_on_c, 11, 69, 0
15, 29279, End_track
16, 0, Start_track
16, 0, Title_t, "Tenor "
16, 0, MIDI_port, 0
16, 0, Program_c, 12, 70
16, 0, Control_c, 12, 7, 96
16, 0, Control_c, 12, 10, 48
16, 0, Control_c, 12, 11, 127
16, 0, Note_on_c, 12, 66, 88
16, 479, Note_on_c, 12, 66, 0
16, 480, Note_on_c, 12, 62, 88
16, 719, Note_on_c, 12, 62, 0
16, 960, Note_on_c, 12, 67, 88
16, 1439, Note_on_c, 12, 67, 0
16, 1440, Note_on_c, 12, 64, 88
16, 1679, Note_on_c, 12, 64, 0
16, 1920, Note_on_c, 12, 62, 88
16, 2399, Note_on_c, 12, 62, 0
16, 2400, Note_on_c, 12, 57, 88
16, 2639, Note_on_c, 12, 57, 0
16, 2880, Note_on_c, 12, 62, 88
16, 3119, Note_on_c, 12, 62, 0
16, 3120, Note_on_c, 12, 61, 88
16, 3239, Note_on_c, 12, 61, 0
16, 3240, Note_on_c, 12, 61, 88
16, 3359, Note_on_c, 12, 61, 0
16, 3360, Note_on_c, 12, 59, 88
16, 3599, Note_on_c, 12, 59, 0
16, 3600, Note_on_c, 12, 62, 88
16, 3839, Note_on_c, 12, 62, 0
16, 3840, Note_on_c, 12, 64, 88
16, 4199, Note_on_c, 12, 64, 0
16, 4200, Note_on_c, 12, 62, 88
16, 4319, Note_on_c, 12, 62, 0
16, 4320, Note_on_c, 12, 61, 88
16, 4799, Note_on_c, 12, 61, 0
16, 5280, Note_on_c, 12, 63, 88
16, 5519, Note_on_c, 12, 63, 0
16, 5520, Note_on_c, 12, 63, 88
16, 5639, Note_on_c, 12, 63, 0
16, 5640, Note_on_c, 12, 63, 88
16, 5759, Note_on_c, 12, 63, 0
16, 5760, Note_on_c, 12, 64, 88
16, 5999, Note_on_c, 12, 64, 0
16, 6000, Note_on_c, 12, 64, 88
16, 6119, Note_on_c, 12, 64, 0
16, 6120, Note_on_c, 12, 64, 88
16, 6239, Note_on_c, 12, 64, 0
16, 6240, Note_on_c, 12, 60, 88
16, 6479, Note_on_c, 12, 60, 0
16, 6480, Note_on_c, 12, 59, 88
16, 6959, Note_on_c, 12, 59, 0
16, 6960, Note_on_c, 12, 57, 88
16, 7199, Note_on_c, 12, 57, 0
16, 7200, Note_on_c, 12, 64, 88
16, 7439, Note_on_c, 12, 64, 0
16, 7440, Note_on_c, 12, 66, 88
16, 7559, Note_on_c, 12, 66, 0
16, 7560, Note_on_c, 12, 66, 88
16, 7679, Note_on_c, 12, 66, 0
16, 7680, Note_on_c, 12, 64, 88
16, 7919, Note_on_c, 12, 64, 0
16, 7920, Note_on_c, 12, 62, 88
16, 8039, Note_on_c, 12, 62, 0
16, 8040, Note_on_c, 12, 62, 88
16, 8159, Note_on_c, 12, 62, 0
16, 8160, Note_on_c, 12, 62, 88
16, 8399, Note_on_c, 12, 62, 0
16, 8400, Note_on_c, 12, 67, 88
16, 8879, Note_on_c, 12, 67, 0
16, 8880, Note_on_c, 12, 66, 88
16, 8999, Note_on_c, 12, 66, 0
16, 9000, Note_on_c, 12, 66, 88
16, 9119, Note_on_c, 12, 66, 0
16, 9120, Note_on_c, 12, 64, 88
16, 9599, Note_on_c, 12, 64, 0
16, 9600, Note_on_c, 12, 62, 88
16, 9839, Note_on_c, 12, 62, 0
16, 12720, Note_on_c, 12, 57, 88
16, 13199, Note_on_c, 12, 57, 0
16, 13200, Note_on_c, 12, 54, 88
16, 13439, Note_on_c, 12, 54, 0
16, 13440, Note_on_c, 12, 62, 88
16, 13919, Note_on_c, 12, 62, 0
16, 13920, Note_on_c, 12, 61, 88
16, 14159, Note_on_c, 12, 61, 0
16, 14160, Note_on_c, 12, 57, 88
16, 14399, Note_on_c, 12, 57, 0
16, 14400, Note_on_c, 12, 64, 88
16, 14639, Note_on_c, 12, 64, 0
16, 14640, Note_on_c, 12, 66, 88
16, 14999, Note_on_c, 12, 66, 0
16, 15000, Note_on_c, 12, 64, 88
16, 15119, Note_on_c, 12, 64, 0
16, 15120, Note_on_c, 12, 62, 88
16, 15239, Note_on_c, 12, 62, 0
16, 15240, Note_on_c, 12, 61, 88
16, 15359, Note_on_c, 12, 61, 0
16, 15360, Note_on_c, 12, 59, 88
16, 15479, Note_on_c, 12, 59, 0
16, 15480, Note_on_c, 12, 57, 88
16, 15599, Note_on_c, 12, 57, 0
16, 15600, Note_on_c, 12, 56, 88
16, 15719, Note_on_c, 12, 56, 0
16, 15720, Note_on_c, 12, 57, 88
16, 15839, Note_on_c, 12, 57, 0
16, 15840, Note_on_c, 12, 54, 88
16, 15959, Note_on_c, 12, 54, 0
16, 15960, Note_on_c, 12, 56, 88
16, 16079, Note_on_c, 12, 56, 0
16, 16080, Note_on_c, 12, 57, 88
16, 16319, Note_on_c, 12, 57, 0
16, 16560, Note_on_c, 12, 57, 88
16, 16919, Note_on_c, 12, 57, 0
16, 16920, Note_on_c, 12, 55, 88
16, 17039, Note_on_c, 12, 55, 0
16, 17040, Note_on_c, 12, 54, 88
16, 17159, Note_on_c, 12, 54, 0
16, 17160, Note_on_c, 12, 55, 88
16, 17279, Note_on_c, 12, 55, 0
16, 17280, Note_on_c, 12, 52, 88
16, 17399, Note_on_c, 12, 52, 0
16, 17400, Note_on_c, 12, 54, 88
16, 17519, Note_on_c, 12, 54, 0
16, 17520, Note_on_c, 12, 55, 88
16, 17759, Note_on_c, 12, 55, 0
16, 17760, Note_on_c, 12, 67, 88
16, 17879, Note_on_c, 12, 67, 0
16, 17880, Note_on_c, 12, 66, 88
16, 17999, Note_on_c, 12, 66, 0
16, 18000, Note_on_c, 12, 64, 88
16, 18119, Note_on_c, 12, 64, 0
16, 18120, Note_on_c, 12, 62, 88
16, 18239, Note_on_c, 12, 62, 0
16, 18240, Note_on_c, 12, 61, 88
16, 18359, Note_on_c, 12, 61, 0
16, 18360, Note_on_c, 12, 59, 88
16, 18479, Note_on_c, 12, 59, 0
16, 18480, Note_on_c, 12, 57, 88
16, 18599, Note_on_c, 12, 57, 0
16, 18600, Note_on_c, 12, 55, 88
16, 18719, Note_on_c, 12, 55, 0
16, 18720, Note_on_c, 12, 54, 88
16, 18839, Note_on_c, 12, 54, 0
16, 18840, Note_on_c, 12, 52, 88
16, 18959, Note_on_c, 12, 52, 0
16, 18960, Note_on_c, 12, 50, 88
16, 19199, Note_on_c, 12, 50, 0
16, 19200, Note_on_c, 12, 62, 88
16, 19319, Note_on_c, 12, 62, 0
16, 19320, Note_on_c, 12, 61, 88
16, 19439, Note_on_c, 12, 61, 0
16, 19440, Note_on_c, 12, 59, 88
16, 19679, Note_on_c, 12, 59, 0
16, 19680, Note_on_c, 12, 57, 88
16, 19919, Note_on_c, 12, 57, 0
16, 19920, Note_on_c, 12, 59, 88
16, 20159, Note_on_c, 12, 59, 0
16, 20160, Note_on_c, 12, 61, 88
16, 20399, Note_on_c, 12, 61, 0
16, 20400, Note_on_c, 12, 62, 88
16, 20639, Note_on_c, 12, 62, 0
16, 20640, Note_on_c, 12, 64, 88
16, 20879, Note_on_c, 12, 64, 0
16, 20880, Note_on_c, 12, 66, 88
16, 20999, Note_on_c, 12, 66, 0
16, 21000, Note_on_c, 12, 64, 88
16, 21119, Note_on_c, 12, 64, 0
16, 21120, Note_on_c, 12, 62, 88
16, 21239, Note_on_c, 12, 62, 0
16, 21240, Note_on_c, 12, 61, 88
16, 21359, Note_on_c, 12, 61, 0
16, 21360, Note_on_c, 12, 59, 88
16, 21479, Note_on_c, 12, 59, 0
16, 21480, Note_on_c, 12, 61, 88
16, 21599, Note_on_c, 12, 61, 0
16, 21600, Note_on_c, 12, 57, 88
16, 21719, Note_on_c, 12, 57, 0
16, 21720, Note_on_c, 12, 59, 88
16, 21839, Note_on_c, 12, 59, 0
16, 21840, Note_on_c, 12, 61, 88
16, 21959, Note_on_c, 12, 61, 0
16, 21960, Note_on_c, 12, 62, 88
16, 22079, Note_on_c, 12, 62, 0
16, 22080, Note_on_c, 12, 64, 88
16, 22199, Note_on_c, 12, 64, 0
16, 22200, Note_on_c, 12, 66, 88
16, 22319, Note_on_c, 12, 66, 0
16, 22320, Note_on_c, 12, 62, 88
16, 22439, Note_on_c, 12, 62, 0
16, 22440, Note_on_c, 12, 64, 88
16, 22559, Note_on_c, 12, 64, 0
16, 22560, Note_on_c, 12, 66, 88
16, 22799, Note_on_c, 12, 66, 0
16, 24240, Note_on_c, 12, 57, 88
16, 24719, Note_on_c, 12, 57, 0
16, 24720, Note_on_c, 12, 54, 88
16, 24959, Note_on_c, 12, 54, 0
16, 24960, Note_on_c, 12, 62, 88
16, 25439, Note_on_c, 12, 62, 0
16, 25440, Note_on_c, 12, 61, 88
16, 25679, Note_on_c, 12, 61, 0
16, 25680, Note_on_c, 12, 57, 88
16, 25919, Note_on_c, 12, 57, 0
16, 25920, Note_on_c, 12, 64, 88
16, 26159, Note_on_c, 12, 64, 0
16, 26160, Note_on_c, 12, 66, 88
16, 26879, Note_on_c, 12, 66, 0
16, 26880, Note_on_c, 12, 62, 88
16, 27359, Note_on_c, 12, 62, 0
16, 27360, Note_on_c, 12, 67, 88
16, 27599, Note_on_c, 12, 67, 0
16, 27600, Note_on_c, 12, 64, 88
16, 28079, Note_on_c, 12, 64, 0
16, 28080, Note_on_c, 12, 64, 88
16, 28319, Note_on_c, 12, 64, 0
16, 28320, Note_on_c, 12, 62, 88
16, 28799, Note_on_c, 12, 62, 0
16, 28800, Note_on_c, 12, 61, 88
16, 29039, Note_on_c, 12, 61, 0
16, 29040, Note_on_c, 12, 62, 88
16, 29279, Note_on_c, 12, 62, 0
16, 29279, End_track
17, 0, Start_track
17, 0, Title_t, "Bass "
17, 0, MIDI_port, 0
17, 0, Program_c, 13, 60
17, 0, Control_c, 13, 7, 96
17, 0, Control_c, 13, 10, 80
17, 0, Control_c, 13, 11, 127
17, 0, Note_on_c, 13, 62, 88
17, 479, Note_on_c, 13, 62, 0
17, 480, Note_on_c, 13, 50, 88
17, 719, Note_on_c, 13, 50, 0
17, 960, Note_on_c, 13, 61, 88
17, 1439, Note_on_c, 13, 61, 0
17, 1440, Note_on_c, 13, 49, 88
17, 1679, Note_on_c, 13, 49, 0
17, 1920, Note_on_c, 13, 60, 88
17, 2399, Note_on_c, 13, 60, 0
17, 2400, Note_on_c, 13, 48, 88
17, 2639, Note_on_c, 13, 48, 0
17, 2880, Note_on_c, 13, 59, 88
17, 3119, Note_on_c, 13, 59, 0
17, 3120, Note_on_c, 13, 57, 88
17, 3239, Note_on_c, 13, 57, 0
17, 3240, Note_on_c, 13, 57, 88
17, 3359, Note_on_c, 13, 57, 0
17, 3360, Note_on_c, 13, 55, 88
17, 3599, Note_on_c, 13, 55, 0
17, 3600, Note_on_c, 13, 54, 88
17, 3839, Note_on_c, 13, 54, 0
17, 3840, Note_on_c, 13, 52, 88
17, 3959, Note_on_c, 13, 52, 0
17, 3960, Note_on_c, 13, 49, 88
17, 4079, Note_on_c, 13, 49, 0
17, 4080, Note_on_c, 13, 50, 88
17, 4199, Note_on_c, 13, 50, 0
17, 4200, Note_on_c, 13, 50, 88
17, 4319, Note_on_c, 13, 50, 0
17, 4320, Note_on_c, 13, 57, 88
17, 4799, Note_on_c, 13, 57, 0
17, 4800, Note_on_c, 13, 60, 88
17, 5039, Note_on_c, 13, 60, 0
17, 5040, Note_on_c, 13, 60, 88
17, 5159, Note_on_c, 13, 60, 0
17, 5160, Note_on_c, 13, 60, 88
17, 5279, Note_on_c, 13, 60, 0
17, 5280, Note_on_c, 13, 60, 88
17, 5519, Note_on_c, 13, 60, 0
17, 5520, Note_on_c, 13, 59, 88
17, 5639, Note_on_c, 13, 59, 0
17, 5640, Note_on_c, 13, 57, 88
17, 5759, Note_on_c, 13, 57, 0
17, 5760, Note_on_c, 13, 55, 88
17, 5879, Note_on_c, 13, 55, 0
17, 5880, Note_on_c, 13, 54, 88
17, 5999, Note_on_c, 13, 54, 0
17, 6000, Note_on_c, 13, 55, 88
17, 6119, Note_on_c, 13, 55, 0
17, 6120, Note_on_c, 13, 52, 88
17, 6239, Note_on_c, 13, 52, 0
17, 6240, Note_on_c, 13, 54, 88
17, 6359, Note_on_c, 13, 54, 0
17, 6360, Note_on_c, 13, 57, 88
17, 6479, Note_on_c, 13, 57, 0
17, 6480, Note_on_c, 13, 59, 88
17, 6599, Note_on_c, 13, 59, 0
17, 6600, Note_on_c, 13, 57, 88
17, 6719, Note_on_c, 13, 57, 0
17, 6720, Note_on_c, 13, 56, 88
17, 6959, Note_on_c, 13, 56, 0
17, 6960, Note_on_c, 13, 57, 88
17, 7199, Note_on_c, 13, 57, 0
17, 7200, Note_on_c, 13, 61, 88
17, 7439, Note_on_c, 13, 61, 0
17, 7440, Note_on_c, 13, 62, 88
17, 7559, Note_on_c, 13, 62, 0
17, 7560, Note_on_c, 13, 62, 88
17, 7679, Note_on_c, 13, 62, 0
17, 7680, Note_on_c, 13, 58, 88
17, 7919, Note_on_c, 13, 58, 0
17, 7920, Note_on_c, 13, 59, 88
17, 8039, Note_on_c, 13, 59, 0
17, 8040, Note_on_c, 13, 59, 88
17, 8159, Note_on_c, 13, 59, 0
17, 8160, Note_on_c, 13, 55, 88
17, 8639, Note_on_c, 13, 55, 0
17, 8640, Note_on_c, 13, 57, 88
17, 8879, Note_on_c, 13, 57, 0
17, 8880, Note_on_c, 13, 57, 88
17, 8999, Note_on_c, 13, 57, 0
17, 9000, Note_on_c, 13, 57, 88
17, 9119, Note_on_c, 13, 57, 0
17, 9120, Note_on_c, 13, 57, 88
17, 9599, Note_on_c, 13, 57, 0
17, 9600, Note_on_c, 13, 50, 88
17, 9839, Note_on_c, 13, 50, 0
17, 9840, Note_on_c, 13, 50, 88
17, 10319, Note_on_c, 13, 50, 0
17, 10320, Note_on_c, 13, 49, 88
17, 10559, Note_on_c, 13, 49, 0
17, 10560, Note_on_c, 13, 55, 88
17, 11039, Note_on_c, 13, 55, 0
17, 11040, Note_on_c, 13, 54, 88
17, 11279, Note_on_c, 13, 54, 0
17, 11280, Note_on_c, 13, 50, 88
17, 11519, Note_on_c, 13, 50, 0
17, 11520, Note_on_c, 13, 57, 88
17, 11759, Note_on_c, 13, 57, 0
17, 11760, Note_on_c, 13, 59, 88
17, 12119, Note_on_c, 13, 59, 0
17, 12120, Note_on_c, 13, 57, 88
17, 12239, Note_on_c, 13, 57, 0
17, 12240, Note_on_c, 13, 55, 88
17, 12359, Note_on_c, 13, 55, 0
17, 12360, Note_on_c, 13, 54, 88
17, 12479, Note_on_c, 13, 54, 0
17, 12480, Note_on_c, 13, 52, 88
17, 12599, Note_on_c, 13, 52, 0
17, 12600, Note_on_c, 13, 50, 88
17, 12719, Note_on_c, 13, 50, 0
17, 12720, Note_on_c, 13, 49, 88
17, 12839, Note_on_c, 13, 49, 0
17, 12840, Note_on_c, 13, 50, 88
17, 12959, Note_on_c, 13, 50, 0
17, 12960, Note_on_c, 13, 47, 88
17, 13079, Note_on_c, 13, 47, 0
17, 13080, Note_on_c, 13, 49, 88
17, 13199, Note_on_c, 13, 49, 0
17, 13200, Note_on_c, 13, 50, 88
17, 13439, Note_on_c, 13, 50, 0
17, 13680, Note_on_c, 13, 52, 88
17, 13919, Note_on_c, 13, 52, 0
17, 13920, Note_on_c, 13, 45, 88
17, 14159, Note_on_c, 13, 45, 0
17, 14160, Note_on_c, 13, 47, 88
17, 14399, Note_on_c, 13, 47, 0
17, 14400, Note_on_c, 13, 49, 88
17, 14639, Note_on_c, 13, 49, 0
17, 14640, Note_on_c, 13, 50, 88
17, 14879, Note_on_c, 13, 50, 0
17, 14880, Note_on_c, 13, 52, 88
17, 15119, Note_on_c, 13, 52, 0
17, 15120, Note_on_c, 13, 54, 88
17, 15359, Note_on_c, 13, 54, 0
17, 15360, Note_on_c, 13, 50, 88
17, 15839, Note_on_c, 13, 50, 0
17, 15840, Note_on_c, 13, 52, 88
17, 16199, Note_on_c, 13, 52, 0
17, 16200, Note_on_c, 13, 50, 88
17, 16319, Note_on_c, 13, 50, 0
17, 16320, Note_on_c, 13, 49, 88
17, 16439, Note_on_c, 13, 49, 0
17, 16440, Note_on_c, 13, 50, 88
17, 16559, Note_on_c, 13, 50, 0
17, 16560, Note_on_c, 13, 47, 88
17, 16679, Note_on_c, 13, 47, 0
17, 16680, Note_on_c, 13, 49, 88
17, 16799, Note_on_c, 13, 49, 0
17, 16800, Note_on_c, 13, 50, 88
17, 17039, Note_on_c, 13, 50, 0
17, 17280, Note_on_c, 13, 50, 88
17, 17639, Note_on_c, 13, 50, 0
17, 17640, Note_on_c, 13, 49, 88
17, 17759, Note_on_c, 13, 49, 0
17, 17760, Note_on_c, 13, 47, 88
17, 17879, Note_on_c, 13, 47, 0
17, 17880, Note_on_c, 13, 49, 88
17, 17999, Note_on_c, 13, 49, 0
17, 18000, Note_on_c, 13, 45, 88
17, 18119, Note_on_c, 13, 45, 0
17, 18120, Note_on_c, 13, 47, 88
17, 18239, Note_on_c, 13, 47, 0
17, 18240, Note_on_c, 13, 43, 88
17, 18719, Note_on_c, 13, 43, 0
17, 18720, Note_on_c, 13, 45, 88
17, 18959, Note_on_c, 13, 45, 0
17, 18960, Note_on_c, 13, 47, 88
17, 19439, Note_on_c, 13, 47, 0
17, 19440, Note_on_c, 13, 52, 88
17, 19679, Note_on_c, 13, 52, 0
17, 19680, Note_on_c, 13, 45, 88
17, 19919, Note_on_c, 13, 45, 0
17, 21360, Note_on_c, 13, 52, 88
17, 21839, Note_on_c, 13, 52, 0
17, 21840, Note_on_c, 13, 49, 88
17, 22079, Note_on_c, 13, 49, 0
17, 22080, Note_on_c, 13, 57, 88
17, 22559, Note_on_c, 13, 57, 0
17, 22560, Note_on_c, 13, 54, 88
17, 22799, Note_on_c, 13, 54, 0
17, 22800, Note_on_c, 13, 50, 88
17, 23039, Note_on_c, 13, 50, 0
17, 23040, Note_on_c, 13, 57, 88
17, 23279, Note_on_c, 13, 57, 0
17, 23280, Note_on_c, 13, 59, 88
17, 23639, Note_on_c, 13, 59, 0
17, 23640, Note_on_c, 13, 57, 88
17, 23759, Note_on_c, 13, 57, 0
17, 23760, Note_on_c, 13, 55, 88
17, 23879, Note_on_c, 13, 55, 0
17, 23880, Note_on_c, 13, 54, 88
17, 23999, Note_on_c, 13, 54, 0
17, 24000, Note_on_c, 13, 52, 88
17, 24119, Note_on_c, 13, 52, 0
17, 24120, Note_on_c, 13, 50, 88
17, 24239, Note_on_c, 13, 50, 0
17, 24240, Note_on_c, 13, 49, 88
17, 24359, Note_on_c, 13, 49, 0
17, 24360, Note_on_c, 13, 50, 88
17, 24479, Note_on_c, 13, 50, 0
17, 24480, Note_on_c, 13, 47, 88
17, 24599, Note_on_c, 13, 47, 0
17, 24600, Note_on_c, 13, 49, 88
17, 24719, Note_on_c, 13, 49, 0
17, 24720, Note_on_c, 13, 50, 88
17, 24839, Note_on_c, 13, 50, 0
17, 24840, Note_on_c, 13, 52, 88
17, 24959, Note_on_c, 13, 52, 0
17, 24960, Note_on_c, 13, 54, 88
17, 25079, Note_on_c, 13, 54, 0
17, 25080, Note_on_c, 13, 52, 88
17, 25199, Note_on_c, 13, 52, 0
17, 25200, Note_on_c, 13, 54, 88
17, 25319, Note_on_c, 13, 54, 0
17, 25320, Note_on_c, 13, 56, 88
17, 25439, Note_on_c, 13, 56, 0
17, 25440, Note_on_c, 13, 57, 88
17, 25679, Note_on_c, 13, 57, 0
17, 25920, Note_on_c, 13, 57, 88
17, 26159, Note_on_c, 13, 57, 0
17, 26160, Note_on_c, 13, 62, 88
17, 26879, Note_on_c, 13, 62, 0
17, 26880, Note_on_c, 13, 55, 88
17, 27599, Note_on_c, 13, 55, 0
17, 27600, Note_on_c, 13, 57, 88
17, 28079, Note_on_c, 13, 57, 0
17, 28080, Note_on_c, 13, 57, 88
17, 28319, Note_on_c, 13, 57, 0
17, 28320, Note_on_c, 13, 59, 88
17, 28559, Note_on_c, 13, 59, 0
17, 28560, Note_on_c, 13, 55, 88
17, 28799, Note_on_c, 13, 55, 0
17, 28800, Note_on_c, 13, 57, 88
17, 29039, Note_on_c, 13, 57, 0
17, 29040, Note_on_c, 13, 50, 88
17, 29279, Note_on_c, 13, 50, 0
17, 29279, End_track
18, 0, Start_track
18, 0, Title_t, "Timpani"
18, 0, MIDI_port, 0
18, 0, Control_c, 14, 7, 96
18, 0, Control_c, 14, 10, 25
18, 0, Control_c, 14, 11, 127
18, 0, Program_c, 14, 47
18, 0, Note_on_c, 14, 50, 72
18, 119, Note_on_c, 14, 50, 0
18, 180, Note_on_c, 14, 50, 72
18, 194, Note_on_c, 14, 50, 0
18, 195, Note_on_c, 14, 50, 72
18, 209, Note_on_c, 14, 50, 0
18, 210, Note_on_c, 14, 50, 72
18, 224, Note_on_c, 14, 50, 0
18, 225, Note_on_c, 14, 50, 72
18, 239, Note_on_c, 14, 50, 0
18, 240, Note_on_c, 14, 50, 72
18, 359, Note_on_c, 14, 50, 0
18, 420, Note_on_c, 14, 50, 72
18, 434, Note_on_c, 14, 50, 0
18, 435, Note_on_c, 14, 50, 72
18, 449, Note_on_c, 14, 50, 0
18, 450, Note_on_c, 14, 50, 72
18, 464, Note_on_c, 14, 50, 0
18, 465, Note_on_c, 14, 50, 72
18, 479, Note_on_c, 14, 50, 0
18, 480, Note_on_c, 14, 50, 72
18, 719, Note_on_c, 14, 50, 0
18, 960, Note_on_c, 14, 45, 72
18, 1079, Note_on_c, 14, 45, 0
18, 1140, Note_on_c, 14, 45, 72
18, 1154, Note_on_c, 14, 45, 0
18, 1155, Note_on_c, 14, 45, 72
18, 1169, Note_on_c, 14, 45, 0
18, 1170, Note_on_c, 14, 45, 72
18, 1184, Note_on_c, 14, 45, 0
18, 1185, Note_on_c, 14, 45, 72
18, 1199, Note_on_c, 14, 45, 0
18, 1200, Note_on_c, 14, 45, 72
18, 1319, Note_on_c, 14, 45, 0
18, 1380, Note_on_c, 14, 45, 72
18, 1394, Note_on_c, 14, 45, 0
18, 1395, Note_on_c, 14, 45, 72
18, 1409, Note_on_c, 14, 45, 0
18, 1410, Note_on_c, 14, 45, 72
18, 1424, Note_on_c, 14, 45, 0
18, 1425, Note_on_c, 14, 45, 72
18, 1439, Note_on_c, 14, 45, 0
18, 1440, Note_on_c, 14, 45, 72
18, 1679, Note_on_c, 14, 45, 0
18, 1920, Note_on_c, 14, 50, 72
18, 2039, Note_on_c, 14, 50, 0
18, 2100, Note_on_c, 14, 50, 72
18, 2114, Note_on_c, 14, 50, 0
18, 2115, Note_on_c, 14, 50, 72
18, 2129, Note_on_c, 14, 50, 0
18, 2130, Note_on_c, 14, 50, 72
18, 2144, Note_on_c, 14, 50, 0
18, 2145, Note_on_c, 14, 50, 72
18, 2159, Note_on_c, 14, 50, 0
18, 2160, Note_on_c, 14, 50, 72
18, 2279, Note_on_c, 14, 50, 0
18, 2340, Note_on_c, 14, 50, 72
18, 2354, Note_on_c, 14, 50, 0
18, 2355, Note_on_c, 14, 50, 72
18, 2369, Note_on_c, 14, 50, 0
18, 2370, Note_on_c, 14, 50, 72
18, 2384, Note_on_c, 14, 50, 0
18, 2385, Note_on_c, 14, 50, 72
18, 2399, Note_on_c, 14, 50, 0
18, 2400, Note_on_c, 14, 50, 72
18, 2639, Note_on_c, 14, 50, 0
18, 2880, Note_on_c, 14, 50, 72
18, 3119, Note_on_c, 14, 50, 0
18, 3840, Note_on_c, 14, 45, 72
18, 3959, Note_on_c, 14, 45, 0
18, 4080, Note_on_c, 14, 50, 72
18, 4199, Note_on_c, 14, 50, 0
18, 4320, Note_on_c, 14, 45, 72
18, 4439, Note_on_c, 14, 45, 0
18, 4440, Note_on_c, 14, 45, 72
18, 4559, Note_on_c, 14, 45, 0
18, 4560, Note_on_c, 14, 45, 72
18, 4799, Note_on_c, 14, 45, 0
18, 5280, Note_on_c, 14, 45, 80
18, 5309, Note_on_c, 14, 45, 0
18, 5310, Note_on_c, 14, 45, 72
18, 5339, Note_on_c, 14, 45, 0
18, 5340, Note_on_c, 14, 45, 72
18, 5369, Note_on_c, 14, 45, 0
18, 5370, Note_on_c, 14, 45, 72
18, 5399, Note_on_c, 14, 45, 0
18, 5400, Note_on_c, 14, 45, 72
18, 5519, Note_on_c, 14, 45, 0
18, 7200, Note_on_c, 14, 45, 72
18, 7319, Note_on_c, 14, 45, 0
18, 7440, Note_on_c, 14, 50, 72
18, 7559, Note_on_c, 14, 50, 0
18, 7920, Note_on_c, 14, 50, 72
18, 8039, Note_on_c, 14, 50, 0
18, 8040, Note_on_c, 14, 50, 72
18, 8159, Note_on_c, 14, 50, 0
18, 8160, Note_on_c, 14, 50, 72
18, 8399, Note_on_c, 14, 50, 0
18, 8640, Note_on_c, 14, 45, 72
18, 8759, Note_on_c, 14, 45, 0
18, 8880, Note_on_c, 14, 45, 72
18, 8999, Note_on_c, 14, 45, 0
18, 9120, Note_on_c, 14, 45, 72
18, 9239, Note_on_c, 14, 45, 0
18, 9360, Note_on_c, 14, 45, 72
18, 9479, Note_on_c, 14, 45, 0
18, 22320, Note_on_c, 14, 45, 72
18, 22559, Note_on_c, 14, 45, 0
18, 22560, Note_on_c, 14, 50, 72
18, 22799, Note_on_c, 14, 50, 0
18, 26160, Note_on_c, 14, 50, 72
18, 26399, Note_on_c, 14, 50, 0
18, 26880, Note_on_c, 14, 50, 72
18, 27119, Note_on_c, 14, 50, 0
18, 27600, Note_on_c, 14, 45, 72
18, 27839, Note_on_c, 14, 45, 0
18, 28080, Note_on_c, 14, 45, 72
18, 28319, Note_on_c, 14, 45, 0
18, 28320, Note_on_c, 14, 50, 72
18, 28559, Note_on_c, 14, 50, 0
18, 28560, Note_on_c, 14, 50, 72
18, 28799, Note_on_c, 14, 50, 0
18, 28800, Note_on_c, 14, 45, 72
18, 29039, Note_on_c, 14, 45, 0
18, 29040, Note_on_c, 14, 50, 72
18, 29279, Note_on_c, 14, 50, 0
18, 29279, End_track
19, 0, Start_track
19, 0, Title_t, "Organ"
19, 0, MIDI_port, 0
19, 0, Control_c, 15, 7, 96
19, 0, Control_c, 15, 11, 127
19, 0, Control_c, 15, 10, 64
19, 0, Program_c, 15, 19
19, 0, Note_on_c, 15, 50, 72
19, 0, Note_on_c, 15, 66, 72
19, 0, Note_on_c, 15, 69, 72
19, 0, Note_on_c, 15, 74, 72
19, 119, Note_on_c, 15, 50, 0
19, 120, Note_on_c, 15, 57, 72
19, 239, Note_on_c, 15, 57, 0
19, 240, Note_on_c, 15, 54, 72
19, 359, Note_on_c, 15, 54, 0
19, 360, Note_on_c, 15, 57, 72
19, 479, Note_on_c, 15, 57, 0
19, 480, Note_on_c, 15, 50, 72
19, 599, Note_on_c, 15, 50, 0
19, 600, Note_on_c, 15, 54, 72
19, 719, Note_on_c, 15, 54, 0
19, 720, Note_on_c, 15, 57, 72
19, 839, Note_on_c, 15, 57, 0
19, 840, Note_on_c, 15, 62, 72
19, 959, Note_on_c, 15, 66, 0
19, 959, Note_on_c, 15, 69, 0
19, 959, Note_on_c, 15, 74, 0
19, 959, Note_on_c, 15, 62, 0
19, 960, Note_on_c, 15, 49, 72
19, 960, Note_on_c, 15, 76, 72
19, 960, Note_on_c, 15, 66, 72
19, 960, Note_on_c, 15, 67, 72
19, 1079, Note_on_c, 15, 49, 0
19, 1080, Note_on_c, 15, 57, 72
19, 1199, Note_on_c, 15, 57, 0
19, 1200, Note_on_c, 15, 52, 72
19, 1319, Note_on_c, 15, 52, 0
19, 1320, Note_on_c, 15, 57, 72
19, 1439, Note_on_c, 15, 57, 0
19, 1440, Note_on_c, 15, 49, 72
19, 1559, Note_on_c, 15, 49, 0
19, 1560, Note_on_c, 15, 52, 72
19, 1679, Note_on_c, 15, 52, 0
19, 1680, Note_on_c, 15, 57, 72
19, 1799, Note_on_c, 15, 57, 0
19, 1800, Note_on_c, 15, 61, 72
19, 1919, Note_on_c, 15, 76, 0
19, 1919, Note_on_c, 15, 66, 0
19, 1919, Note_on_c, 15, 67, 0
19, 1919, Note_on_c, 15, 61, 0
19, 1920, Note_on_c, 15, 48, 72
19, 1920, Note_on_c, 15, 62, 72
19, 1920, Note_on_c, 15, 78, 72
19, 1920, Note_on_c, 15, 69, 72
19, 1920, Note_on_c, 15, 60, 72
19, 2039, Note_on_c, 15, 48, 0
19, 2040, Note_on_c, 15, 57, 72
19, 2159, Note_on_c, 15, 57, 0
19, 2160, Note_on_c, 15, 54, 72
19, 2279, Note_on_c, 15, 54, 0
19, 2280, Note_on_c, 15, 57, 72
19, 2399, Note_on_c, 15, 57, 0
19, 2400, Note_on_c, 15, 48, 72
19, 2519, Note_on_c, 15, 48, 0
19, 2520, Note_on_c, 15, 54, 72
19, 2639, Note_on_c, 15, 54, 0
19, 2640, Note_on_c, 15, 57, 72
19, 2759, Note_on_c, 15, 57, 0
19, 2879, Note_on_c, 15, 62, 0
19, 2879, Note_on_c, 15, 78, 0
19, 2879, Note_on_c, 15, 69, 0
19, 2879, Note_on_c, 15, 60, 0
19, 2880, Note_on_c, 15, 47, 72
19, 2880, Note_on_c, 15, 62, 72
19, 2880, Note_on_c, 15, 67, 72
19, 2880, Note_on_c, 15, 79, 72
19, 2999, Note_on_c, 15, 47, 0
19, 3000, Note_on_c, 15, 59, 72
19, 3119, Note_on_c, 15, 62, 0
19, 3119, Note_on_c, 15, 67, 0
19, 3119, Note_on_c, 15, 79, 0
19, 3119, Note_on_c, 15, 59, 0
19, 3120, Note_on_c, 15, 78, 72
19, 3120, Note_on_c, 15, 57, 72
19, 3120, Note_on_c, 15, 61, 72
19, 3120, Note_on_c, 15, 69, 72
19, 3239, Note_on_c, 15, 57, 0
19, 3240, Note_on_c, 15, 45, 72
19, 3359, Note_on_c, 15, 78, 0
19, 3359, Note_on_c, 15, 61, 0
19, 3359, Note_on_c, 15, 69, 0
19, 3359, Note_on_c, 15, 45, 0
19, 3360, Note_on_c, 15, 43, 72
19, 3360, Note_on_c, 15, 71, 72
19, 3360, Note_on_c, 15, 76, 72
19, 3360, Note_on_c, 15, 59, 72
19, 3479, Note_on_c, 15, 43, 0
19, 3480, Note_on_c, 15, 55, 72
19, 3599, Note_on_c, 15, 71, 0
19, 3599, Note_on_c, 15, 76, 0
19, 3599, Note_on_c, 15, 59, 0
19, 3599, Note_on_c, 15, 55, 0
19, 3600, Note_on_c, 15, 54, 72
19, 3600, Note_on_c, 15, 69, 72
19, 3600, Note_on_c, 15, 74, 72
19, 3600, Note_on_c, 15, 62, 72
19, 3719, Note_on_c, 15, 54, 0
19, 3720, Note_on_c, 15, 42, 72
19, 3839, Note_on_c, 15, 69, 0
19, 3839, Note_on_c, 15, 74, 0
19, 3839, Note_on_c, 15, 62, 0
19, 3839, Note_on_c, 15, 42, 0
19, 3840, Note_on_c, 15, 52, 72
19, 3840, Note_on_c, 15, 67, 72
19, 3840, Note_on_c, 15, 73, 72
19, 3840, Note_on_c, 15, 64, 72
19, 3959, Note_on_c, 15, 52, 0
19, 3959, Note_on_c, 15, 67, 0
19, 3959, Note_on_c, 15, 73, 0
19, 3959, Note_on_c, 15, 64, 0
19, 3960, Note_on_c, 15, 49, 72
19, 3960, Note_on_c, 15, 64, 72
19, 3960, Note_on_c, 15, 67, 72
19, 3960, Note_on_c, 15, 69, 72
19, 4079, Note_on_c, 15, 49, 0
19, 4079, Note_on_c, 15, 64, 0
19, 4079, Note_on_c, 15, 67, 0
19, 4079, Note_on_c, 15, 69, 0
19, 4080, Note_on_c, 15, 50, 72
19, 4080, Note_on_c, 15, 79, 72
19, 4080, Note_on_c, 15, 64, 72
19, 4080, Note_on_c, 15, 69, 72
19, 4199, Note_on_c, 15, 50, 0
19, 4199, Note_on_c, 15, 79, 0
19, 4199, Note_on_c, 15, 64, 0
19, 4199, Note_on_c, 15, 69, 0
19, 4200, Note_on_c, 15, 62, 72
19, 4200, Note_on_c, 15, 78, 72
19, 4200, Note_on_c, 15, 69, 72
19, 4319, Note_on_c, 15, 62, 0
19, 4319, Note_on_c, 15, 78, 0
19, 4319, Note_on_c, 15, 69, 0
19, 4320, Note_on_c, 15, 45, 72
19, 4320, Note_on_c, 15, 61, 72
19, 4320, Note_on_c, 15, 76, 72
19, 4320, Note_on_c, 15, 69, 72
19, 4439, Note_on_c, 15, 45, 0
19, 4440, Note_on_c, 15, 49, 72
19, 4559, Note_on_c, 15, 49, 0
19, 4560, Note_on_c, 15, 52, 72
19, 4679, Note_on_c, 15, 52, 0
19, 4680, Note_on_c, 15, 57, 72
19, 4799, Note_on_c, 15, 61, 0
19, 4799, Note_on_c, 15, 76, 0
19, 4799, Note_on_c, 15, 69, 0
19, 4799, Note_on_c, 15, 57, 0
19, 4800, Note_on_c, 15, 60, 72
19, 4800, Note_on_c, 15, 72, 72
19, 4919, Note_on_c, 15, 60, 0
19, 4919, Note_on_c, 15, 72, 0
19, 5040, Note_on_c, 15, 60, 72
19, 5040, Note_on_c, 15, 72, 72
19, 5099, Note_on_c, 15, 60, 0
19, 5099, Note_on_c, 15, 72, 0
19, 5160, Note_on_c, 15, 60, 72
19, 5160, Note_on_c, 15, 72, 72
19, 5219, Note_on_c, 15, 60, 0
19, 5219, Note_on_c, 15, 72, 0
19, 5280, Note_on_c, 15, 60, 72
19, 5280, Note_on_c, 15, 63, 72
19, 5280, Note_on_c, 15, 78, 72
19, 5280, Note_on_c, 15, 69, 72
19, 5399, Note_on_c, 15, 60, 0
19, 5400, Note_on_c, 15, 60, 72
19, 5519, Note_on_c, 15, 63, 0
19, 5519, Note_on_c, 15, 78, 0
19, 5519, Note_on_c, 15, 69, 0
19, 5519, Note_on_c, 15, 60, 0
19, 5520, Note_on_c, 15, 59, 72
19, 5520, Note_on_c, 15, 63, 72
19, 5520, Note_on_c, 15, 78, 72
19, 5520, Note_on_c, 15, 71, 72
19, 5639, Note_on_c, 15, 59, 0
19, 5639, Note_on_c, 15, 63, 0
19, 5639, Note_on_c, 15, 78, 0
19, 5639, Note_on_c, 15, 71, 0
19, 5640, Note_on_c, 15, 57, 72
19, 5640, Note_on_c, 15, 73, 72
19, 5640, Note_on_c, 15, 63, 72
19, 5640, Note_on_c, 15, 78, 72
19, 5759, Note_on_c, 15, 57, 0
19, 5759, Note_on_c, 15, 73, 0
19, 5759, Note_on_c, 15, 63, 0
19, 5759, Note_on_c, 15, 78, 0
19, 5760, Note_on_c, 15, 55, 72
19, 5760, Note_on_c, 15, 71, 72
19, 5760, Note_on_c, 15, 76, 72
19, 5760, Note_on_c, 15, 64, 72
19, 5879, Note_on_c, 15, 55, 0
19, 5880, Note_on_c, 15, 54, 72
19, 5999, Note_on_c, 15, 54, 0
19, 6000, Note_on_c, 15, 55, 72
19, 6119, Note_on_c, 15, 55, 0
19, 6120, Note_on_c, 15, 52, 72
19, 6239, Note_on_c, 15, 71, 0
19, 6239, Note_on_c, 15, 76, 0
19, 6239, Note_on_c, 15, 64, 0
19, 6239, Note_on_c, 15, 52, 0
19, 6240, Note_on_c, 15, 54, 72
19, 6240, Note_on_c, 15, 69, 72
19, 6240, Note_on_c, 15, 60, 72
19, 6240, Note_on_c, 15, 76, 72
19, 6359, Note_on_c, 15, 54, 0
19, 6360, Note_on_c, 15, 57, 72
19, 6479, Note_on_c, 15, 69, 0
19, 6479, Note_on_c, 15, 60, 0
19, 6479, Note_on_c, 15, 76, 0
19, 6479, Note_on_c, 15, 57, 0
19, 6480, Note_on_c, 15, 59, 72
19, 6480, Note_on_c, 15, 75, 72
19, 6480, Note_on_c, 15, 66, 72
19, 6480, Note_on_c, 15, 63, 72
19, 6599, Note_on_c, 15, 59, 0
19, 6600, Note_on_c, 15, 57, 72
19, 6719, Note_on_c, 15, 75, 0
19, 6719, Note_on_c, 15, 66, 0
19, 6719, Note_on_c, 15, 63, 0
19, 6719, Note_on_c, 15, 57, 0
19, 6720, Note_on_c, 15, 56, 72
19, 6720, Note_on_c, 15, 59, 72
19, 6720, Note_on_c, 15, 74, 72
19, 6720, Note_on_c, 15, 64, 72
19, 6839, Note_on_c, 15, 56, 0
19, 6840, Note_on_c, 15, 52, 72
19, 6959, Note_on_c, 15, 52, 0
19, 6960, Note_on_c, 15, 57, 72
19, 7079, Note_on_c, 15, 57, 0
19, 7080, Note_on_c, 15, 45, 72
19, 7199, Note_on_c, 15, 59, 0
19, 7199, Note_on_c, 15, 74, 0
19, 7199, Note_on_c, 15, 64, 0
19, 7199, Note_on_c, 15, 45, 0
19, 7200, Note_on_c, 15, 49, 72
19, 7200, Note_on_c, 15, 64, 72
19, 7200, Note_on_c, 15, 67, 72
19, 7200, Note_on_c, 15, 76, 72
19, 7200, Note_on_c, 15, 69, 72
19, 7319, Note_on_c, 15, 49, 0
19, 7320, Note_on_c, 15, 57, 72
19, 7439, Note_on_c, 15, 64, 0
19, 7439, Note_on_c, 15, 67, 0
19, 7439, Note_on_c, 15, 76, 0
19, 7439, Note_on_c, 15, 69, 0
19, 7439, Note_on_c, 15, 57, 0
19, 7440, Note_on_c, 15, 50, 72
19, 7440, Note_on_c, 15, 67, 72
19, 7440, Note_on_c, 15, 69, 72
19, 7440, Note_on_c, 15, 74, 72
19, 7559, Note_on_c, 15, 50, 0
19, 7560, Note_on_c, 15, 62, 72
19, 7679, Note_on_c, 15, 67, 0
19, 7679, Note_on_c, 15, 69, 0
19, 7679, Note_on_c, 15, 74, 0
19, 7679, Note_on_c, 15, 62, 0
19, 7680, Note_on_c, 15, 58, 72
19, 7680, Note_on_c, 15, 73, 72
19, 7680, Note_on_c, 15, 64, 72
19, 7680, Note_on_c, 15, 79, 72
19, 7799, Note_on_c, 15, 58, 0
19, 7800, Note_on_c, 15, 46, 72
19, 7919, Note_on_c, 15, 73, 0
19, 7919, Note_on_c, 15, 64, 0
19, 7919, Note_on_c, 15, 79, 0
19, 7919, Note_on_c, 15, 46, 0
19, 7920, Note_on_c, 15, 47, 72
19, 7920, Note_on_c, 15, 62, 72
19, 7920, Note_on_c, 15, 78, 72
19, 7920, Note_on_c, 15, 66, 72
19, 8039, Note_on_c, 15, 47, 0
19, 8040, Note_on_c, 15, 59, 72
19, 8159, Note_on_c, 15, 62, 0
19, 8159, Note_on_c, 15, 78, 0
19, 8159, Note_on_c, 15, 66, 0
19, 8159, Note_on_c, 15, 59, 0
19, 8160, Note_on_c, 15, 55, 72
19, 8160, Note_on_c, 15, 71, 72
19, 8160, Note_on_c, 15, 62, 72
19, 8160, Note_on_c, 15, 78, 72
19, 8279, Note_on_c, 15, 55, 0
19, 8280, Note_on_c, 15, 43, 72
19, 8399, Note_on_c, 15, 71, 0
19, 8399, Note_on_c, 15, 62, 0
19, 8399, Note_on_c, 15, 78, 0
19, 8399, Note_on_c, 15, 43, 0
19, 8400, Note_on_c, 15, 55, 72
19, 8400, Note_on_c, 15, 71, 72
19, 8400, Note_on_c, 15, 76, 72
19, 8400, Note_on_c, 15, 67, 72
19, 8519, Note_on_c, 15, 55, 0
19, 8519, Note_on_c, 15, 76, 0
19, 8520, Note_on_c, 15, 55, 72
19, 8520, Note_on_c, 15, 74, 72
19, 8639, Note_on_c, 15, 71, 0
19, 8639, Note_on_c, 15, 67, 0
19, 8639, Note_on_c, 15, 55, 0
19, 8639, Note_on_c, 15, 74, 0
19, 8640, Note_on_c, 15, 57, 72
19, 8640, Note_on_c, 15, 73, 72
19, 8640, Note_on_c, 15, 64, 72
19, 8640, Note_on_c, 15, 67, 72
19, 8640, Note_on_c, 15, 69, 72
19, 8759, Note_on_c, 15, 57, 0
19, 8760, Note_on_c, 15, 45, 72
19, 8879, Note_on_c, 15, 73, 0
19, 8879, Note_on_c, 15, 64, 0
19, 8879, Note_on_c, 15, 67, 0
19, 8879, Note_on_c, 15, 69, 0
19, 8879, Note_on_c, 15, 45, 0
19, 8880, Note_on_c, 15, 57, 72
19, 8880, Note_on_c, 15, 62, 72
19, 8880, Note_on_c, 15, 66, 72
19, 8880, Note_on_c, 15, 69, 72
19, 8999, Note_on_c, 15, 57, 0
19, 9000, Note_on_c, 15, 57, 72
19, 9119, Note_on_c, 15, 62, 0
19, 9119, Note_on_c, 15, 66, 0
19, 9119, Note_on_c, 15, 69, 0
19, 9119, Note_on_c, 15, 57, 0
19, 9120, Note_on_c, 15, 57, 72
19, 9120, Note_on_c, 15, 74, 72
19, 9120, Note_on_c, 15, 64, 72
19, 9239, Note_on_c, 15, 57, 0
19, 9240, Note_on_c, 15, 45, 72
19, 9359, Note_on_c, 15, 74, 0
19, 9359, Note_on_c, 15, 45, 0
19, 9360, Note_on_c, 15, 57, 72
19, 9360, Note_on_c, 15, 73, 72
19, 9479, Note_on_c, 15, 57, 0
19, 9480, Note_on_c, 15, 57, 72
19, 9599, Note_on_c, 15, 64, 0
19, 9599, Note_on_c, 15, 73, 0
19, 9599, Note_on_c, 15, 57, 0
19, 9600, Note_on_c, 15, 50, 72
19, 9600, Note_on_c, 15, 66, 72
19, 9600, Note_on_c, 15, 62, 72
19, 9600, Note_on_c, 15, 74, 72
19, 9839, Note_on_c, 15, 50, 0
19, 9839, Note_on_c, 15, 66, 0
19, 9839, Note_on_c, 15, 62, 0
19, 9839, Note_on_c, 15, 74, 0
19, 9840, Note_on_c, 15, 50, 72
19, 10319, Note_on_c, 15, 50, 0
19, 10320, Note_on_c, 15, 49, 72
19, 10559, Note_on_c, 15, 49, 0
19, 10560, Note_on_c, 15, 55, 72
19, 11039, Note_on_c, 15, 55, 0
19, 11040, Note_on_c, 15, 54, 72
19, 11279, Note_on_c, 15, 54, 0
19, 11280, Note_on_c, 15, 50, 72
19, 11519, Note_on_c, 15, 50, 0
19, 11520, Note_on_c, 15, 57, 72
19, 11759, Note_on_c, 15, 57, 0
19, 11760, Note_on_c, 15, 59, 72
19, 12119, Note_on_c, 15, 59, 0
19, 12120, Note_on_c, 15, 57, 72
19, 12239, Note_on_c, 15, 57, 0
19, 12240, Note_on_c, 15, 55, 72
19, 12359, Note_on_c, 15, 55, 0
19, 12360, Note_on_c, 15, 54, 72
19, 12479, Note_on_c, 15, 54, 0
19, 12480, Note_on_c, 15, 52, 72
19, 12599, Note_on_c, 15, 52, 0
19, 12600, Note_on_c, 15, 50, 72
19, 12719, Note_on_c, 15, 50, 0
19, 12720, Note_on_c, 15, 49, 72
19, 12839, Note_on_c, 15, 49, 0
19, 12840, Note_on_c, 15, 50, 72
19, 12959, Note_on_c, 15, 50, 0
19, 12960, Note_on_c, 15, 47, 72
19, 13079, Note_on_c, 15, 47, 0
19, 13080, Note_on_c, 15, 49, 72
19, 13199, Note_on_c, 15, 49, 0
19, 13200, Note_on_c, 15, 50, 72
19, 13439, Note_on_c, 15, 50, 0
19, 13440, Note_on_c, 15, 47, 72
19, 13679, Note_on_c, 15, 47, 0
19, 13680, Note_on_c, 15, 52, 72
19, 13919, Note_on_c, 15, 52, 0
19, 13920, Note_on_c, 15, 45, 72
19, 14159, Note_on_c, 15, 45, 0
19, 14160, Note_on_c, 15, 47, 72
19, 14399, Note_on_c, 15, 47, 0
19, 14400, Note_on_c, 15, 49, 72
19, 14639, Note_on_c, 15, 49, 0
19, 14640, Note_on_c, 15, 50, 72
19, 14879, Note_on_c, 15, 50, 0
19, 14880, Note_on_c, 15, 52, 72
19, 15119, Note_on_c, 15, 52, 0
19, 15120, Note_on_c, 15, 54, 72
19, 15359, Note_on_c, 15, 54, 0
19, 15360, Note_on_c, 15, 54, 72
19, 15839, Note_on_c, 15, 54, 0
19, 15840, Note_on_c, 15, 55, 72
19, 16199, Note_on_c, 15, 55, 0
19, 16200, Note_on_c, 15, 54, 72
19, 16319, Note_on_c, 15, 54, 0
19, 16320, Note_on_c, 15, 52, 72
19, 16439, Note_on_c, 15, 52, 0
19, 16440, Note_on_c, 15, 54, 72
19, 16559, Note_on_c, 15, 54, 0
19, 16560, Note_on_c, 15, 47, 72
19, 16679, Note_on_c, 15, 47, 0
19, 16680, Note_on_c, 15, 49, 72
19, 16799, Note_on_c, 15, 49, 0
19, 16800, Note_on_c, 15, 50, 72
19, 17039, Note_on_c, 15, 50, 0
19, 17280, Note_on_c, 15, 50, 72
19, 17280, Note_on_c, 15, 66, 72
19, 17280, Note_on_c, 15, 69, 72
19, 17280, Note_on_c, 15, 62, 72
19, 17519, Note_on_c, 15, 66, 0
19, 17519, Note_on_c, 15, 69, 0
19, 17519, Note_on_c, 15, 62, 0
19, 17520, Note_on_c, 15, 55, 72
19, 17520, Note_on_c, 15, 71, 72
19, 17520, Note_on_c, 15, 62, 72
19, 17639, Note_on_c, 15, 50, 0
19, 17640, Note_on_c, 15, 49, 72
19, 17759, Note_on_c, 15, 49, 0
19, 17760, Note_on_c, 15, 47, 72
19, 17879, Note_on_c, 15, 55, 0
19, 17879, Note_on_c, 15, 71, 0
19, 17879, Note_on_c, 15, 62, 0
19, 17879, Note_on_c, 15, 47, 0
19, 17880, Note_on_c, 15, 49, 72
19, 17880, Note_on_c, 15, 66, 72
19, 17880, Note_on_c, 15, 69, 72
19, 17880, Note_on_c, 15, 61, 72
19, 17999, Note_on_c, 15, 49, 0
19, 17999, Note_on_c, 15, 66, 0
19, 17999, Note_on_c, 15, 69, 0
19, 17999, Note_on_c, 15, 61, 0
19, 18000, Note_on_c, 15, 45, 72
19, 18000, Note_on_c, 15, 61, 72
19, 18000, Note_on_c, 15, 64, 72
19, 18000, Note_on_c, 15, 67, 72
19, 18119, Note_on_c, 15, 45, 0
19, 18119, Note_on_c, 15, 61, 0
19, 18119, Note_on_c, 15, 64, 0
19, 18119, Note_on_c, 15, 67, 0
19, 18120, Note_on_c, 15, 47, 72
19, 18120, Note_on_c, 15, 62, 72
19, 18120, Note_on_c, 15, 66, 72
19, 18239, Note_on_c, 15, 47, 0
19, 18239, Note_on_c, 15, 62, 0
19, 18239, Note_on_c, 15, 66, 0
19, 18240, Note_on_c, 15, 43, 72
19, 18240, Note_on_c, 15, 59, 72
19, 18240, Note_on_c, 15, 64, 72
19, 18240, Note_on_c, 15, 67, 72
19, 18359, Note_on_c, 15, 59, 0
19, 18359, Note_on_c, 15, 64, 0
19, 18359, Note_on_c, 15, 67, 0
19, 18360, Note_on_c, 15, 69, 72
19, 18360, Note_on_c, 15, 61, 72
19, 18360, Note_on_c, 15, 64, 72
19, 18719, Note_on_c, 15, 43, 0
19, 18719, Note_on_c, 15, 69, 0
19, 18719, Note_on_c, 15, 61, 0
19, 18719, Note_on_c, 15, 64, 0
19, 18720, Note_on_c, 15, 45, 72
19, 18720, Note_on_c, 15, 61, 72
19, 18720, Note_on_c, 15, 64, 72
19, 18959, Note_on_c, 15, 45, 0
19, 18959, Note_on_c, 15, 61, 0
19, 18959, Note_on_c, 15, 64, 0
19, 18960, Note_on_c, 15, 47, 72
19, 18960, Note_on_c, 15, 62, 72
19, 18960, Note_on_c, 15, 66, 72
19, 19439, Note_on_c, 15, 47, 0
19, 19439, Note_on_c, 15, 62, 0
19, 19439, Note_on_c, 15, 66, 0
19, 19440, Note_on_c, 15, 52, 72
19, 19440, Note_on_c, 15, 68, 72
19, 19440, Note_on_c, 15, 59, 72
19, 19440, Note_on_c, 15, 74, 72
19, 19679, Note_on_c, 15, 52, 0
19, 19679, Note_on_c, 15, 68, 0
19, 19679, Note_on_c, 15, 59, 0
19, 19679, Note_on_c, 15, 74, 0
19, 19680, Note_on_c, 15, 45, 72
19, 19680, Note_on_c, 15, 73, 72
19, 19680, Note_on_c, 15, 64, 72
19, 19680, Note_on_c, 15, 69, 72
19, 19919, Note_on_c, 15, 45, 0
19, 19919, Note_on_c, 15, 73, 0
19, 19919, Note_on_c, 15, 64, 0
19, 19919, Note_on_c, 15, 69, 0
19, 19920, Note_on_c, 15, 59, 72
19, 19920, Note_on_c, 15, 62, 72
19, 19920, Note_on_c, 15, 66, 72
19, 19920, Note_on_c, 15, 69, 72
19, 20159, Note_on_c, 15, 59, 0
19, 20159, Note_on_c, 15, 62, 0
19, 20159, Note_on_c, 15, 66, 0
19, 20159, Note_on_c, 15, 69, 0
19, 20160, Note_on_c, 15, 61, 72
19, 20160, Note_on_c, 15, 76, 72
19, 20160, Note_on_c, 15, 69, 72
19, 20399, Note_on_c, 15, 61, 0
19, 20399, Note_on_c, 15, 76, 0
19, 20399, Note_on_c, 15, 69, 0
19, 20400, Note_on_c, 15, 62, 72
19, 20400, Note_on_c, 15, 78, 72
19, 20400, Note_on_c, 15, 69, 72
19, 20639, Note_on_c, 15, 62, 0
19, 20639, Note_on_c, 15, 78, 0
19, 20639, Note_on_c, 15, 69, 0
19, 20640, Note_on_c, 15, 64, 72
19, 20640, Note_on_c, 15, 68, 72
19, 20640, Note_on_c, 15, 71, 72
19, 20640, Note_on_c, 15, 78, 72
19, 20759, Note_on_c, 15, 78, 0
19, 20760, Note_on_c, 15, 76, 72
19, 20879, Note_on_c, 15, 64, 0
19, 20879, Note_on_c, 15, 68, 0
19, 20879, Note_on_c, 15, 71, 0
19, 20879, Note_on_c, 15, 76, 0
19, 20880, Note_on_c, 15, 66, 72
19, 20880, Note_on_c, 15, 69, 72
19, 20880, Note_on_c, 15, 74, 72
19, 20999, Note_on_c, 15, 66, 0
19, 20999, Note_on_c, 15, 69, 0
19, 20999, Note_on_c, 15, 74, 0
19, 21000, Note_on_c, 15, 64, 72
19, 21000, Note_on_c, 15, 67, 72
19, 21000, Note_on_c, 15, 73, 72
19, 21119, Note_on_c, 15, 64, 0
19, 21119, Note_on_c, 15, 67, 0
19, 21119, Note_on_c, 15, 73, 0
19, 21120, Note_on_c, 15, 62, 72
19, 21120, Note_on_c, 15, 66, 72
19, 21120, Note_on_c, 15, 69, 72
19, 21120, Note_on_c, 15, 74, 72
19, 21239, Note_on_c, 15, 62, 0
19, 21240, Note_on_c, 15, 61, 72
19, 21359, Note_on_c, 15, 66, 0
19, 21359, Note_on_c, 15, 69, 0
19, 21359, Note_on_c, 15, 74, 0
19, 21359, Note_on_c, 15, 61, 0
19, 21360, Note_on_c, 15, 52, 72
19, 21360, Note_on_c, 15, 67, 72
19, 21360, Note_on_c, 15, 71, 72
19, 21360, Note_on_c, 15, 62, 72
19, 21839, Note_on_c, 15, 52, 0
19, 21839, Note_on_c, 15, 67, 0
19, 21839, Note_on_c, 15, 71, 0
19, 21839, Note_on_c, 15, 62, 0
19, 21840, Note_on_c, 15, 49, 72
19, 21840, Note_on_c, 15, 64, 72
19, 21840, Note_on_c, 15, 69, 72
19, 22079, Note_on_c, 15, 49, 0
19, 22079, Note_on_c, 15, 64, 0
19, 22079, Note_on_c, 15, 69, 0
19, 22080, Note_on_c, 15, 57, 72
19, 22080, Note_on_c, 15, 61, 72
19, 22080, Note_on_c, 15, 66, 72
19, 22080, Note_on_c, 15, 69, 72
19, 22559, Note_on_c, 15, 57, 0
19, 22559, Note_on_c, 15, 61, 0
19, 22559, Note_on_c, 15, 66, 0
19, 22559, Note_on_c, 15, 69, 0
19, 22560, Note_on_c, 15, 54, 72
19, 22560, Note_on_c, 15, 69, 72
19, 22560, Note_on_c, 15, 62, 72
19, 22560, Note_on_c, 15, 66, 72
19, 22799, Note_on_c, 15, 54, 0
19, 22799, Note_on_c, 15, 69, 0
19, 22799, Note_on_c, 15, 62, 0
19, 22799, Note_on_c, 15, 66, 0
19, 22800, Note_on_c, 15, 50, 72
19, 22800, Note_on_c, 15, 66, 72
19, 22800, Note_on_c, 15, 57, 72
19, 23039, Note_on_c, 15, 50, 0
19, 23039, Note_on_c, 15, 66, 0
19, 23039, Note_on_c, 15, 57, 0
19, 23040, Note_on_c, 15, 57, 72
19, 23040, Note_on_c, 15, 62, 72
19, 23040, Note_on_c, 15, 64, 72
19, 23159, Note_on_c, 15, 64, 0
19, 23160, Note_on_c, 15, 66, 72
19, 23279, Note_on_c, 15, 57, 0
19, 23279, Note_on_c, 15, 62, 0
19, 23279, Note_on_c, 15, 66, 0
19, 23280, Note_on_c, 15, 59, 72
19, 23280, Note_on_c, 15, 62, 72
19, 23280, Note_on_c, 15, 67, 72
19, 23639, Note_on_c, 15, 59, 0
19, 23639, Note_on_c, 15, 62, 0
19, 23639, Note_on_c, 15, 67, 0
19, 23640, Note_on_c, 15, 57, 72
19, 23640, Note_on_c, 15, 61, 72
19, 23640, Note_on_c, 15, 78, 72
19, 23759, Note_on_c, 15, 57, 0
19, 23759, Note_on_c, 15, 61, 0
19, 23759, Note_on_c, 15, 78, 0
19, 23760, Note_on_c, 15, 55, 72
19, 23760, Note_on_c, 15, 57, 72
19, 23760, Note_on_c, 15, 76, 72
19, 23760, Note_on_c, 15, 67, 72
19, 23879, Note_on_c, 15, 55, 0
19, 23879, Note_on_c, 15, 57, 0
19, 23879, Note_on_c, 15, 76, 0
19, 23879, Note_on_c, 15, 67, 0
19, 23880, Note_on_c, 15, 54, 72
19, 23880, Note_on_c, 15, 59, 72
19, 23880, Note_on_c, 15, 74, 72
19, 23999, Note_on_c, 15, 54, 0
19, 23999, Note_on_c, 15, 59, 0
19, 23999, Note_on_c, 15, 74, 0
19, 24000, Note_on_c, 15, 52, 72
19, 24000, Note_on_c, 15, 55, 72
19, 24000, Note_on_c, 15, 73, 72
19, 24119, Note_on_c, 15, 52, 0
19, 24119, Note_on_c, 15, 55, 0
19, 24119, Note_on_c, 15, 73, 0
19, 24120, Note_on_c, 15, 50, 72
19, 24120, Note_on_c, 15, 55, 72
19, 24120, Note_on_c, 15, 71, 72
19, 24239, Note_on_c, 15, 50, 0
19, 24239, Note_on_c, 15, 55, 0
19, 24239, Note_on_c, 15, 71, 0
19, 24240, Note_on_c, 15, 64, 72
19, 24240, Note_on_c, 15, 49, 72
19, 24240, Note_on_c, 15, 57, 72
19, 24359, Note_on_c, 15, 49, 0
19, 24360, Note_on_c, 15, 50, 72
19, 24479, Note_on_c, 15, 64, 0
19, 24479, Note_on_c, 15, 57, 0
19, 24479, Note_on_c, 15, 50, 0
19, 24480, Note_on_c, 15, 47, 72
19, 24480, Note_on_c, 15, 62, 72
19, 24480, Note_on_c, 15, 55, 72
19, 24599, Note_on_c, 15, 47, 0
19, 24599, Note_on_c, 15, 62, 0
19, 24599, Note_on_c, 15, 55, 0
19, 24600, Note_on_c, 15, 49, 72
19, 24600, Note_on_c, 15, 67, 72
19, 24600, Note_on_c, 15, 69, 72
19, 24719, Note_on_c, 15, 49, 0
19, 24719, Note_on_c, 15, 67, 0
19, 24719, Note_on_c, 15, 69, 0
19, 24720, Note_on_c, 15, 50, 72
19, 24720, Note_on_c, 15, 54, 72
19, 24720, Note_on_c, 15, 62, 72
19, 24720, Note_on_c, 15, 57, 72
19, 24839, Note_on_c, 15, 50, 0
19, 24840, Note_on_c, 15, 52, 72
19, 24959, Note_on_c, 15, 54, 0
19, 24959, Note_on_c, 15, 62, 0
19, 24959, Note_on_c, 15, 57, 0
19, 24959, Note_on_c, 15, 52, 0
19, 24960, Note_on_c, 15, 54, 72
19, 24960, Note_on_c, 15, 57, 72
19, 24960, Note_on_c, 15, 62, 72
19, 25079, Note_on_c, 15, 54, 0
19, 25080, Note_on_c, 15, 52, 72
19, 25199, Note_on_c, 15, 57, 0
19, 25199, Note_on_c, 15, 62, 0
19, 25199, Note_on_c, 15, 52, 0
19, 25200, Note_on_c, 15, 54, 72
19, 25200, Note_on_c, 15, 71, 72
19, 25200, Note_on_c, 15, 62, 72
19, 25319, Note_on_c, 15, 54, 0
19, 25319, Note_on_c, 15, 71, 0
19, 25319, Note_on_c, 15, 62, 0
19, 25320, Note_on_c, 15, 56, 72
19, 25320, Note_on_c, 15, 71, 72
19, 25320, Note_on_c, 15, 62, 72
19, 25320, Note_on_c, 15, 64, 72
19, 25439, Note_on_c, 15, 56, 0
19, 25439, Note_on_c, 15, 71, 0
19, 25439, Note_on_c, 15, 62, 0
19, 25439, Note_on_c, 15, 64, 0
19, 25440, Note_on_c, 15, 57, 72
19, 25440, Note_on_c, 15, 61, 72
19, 25440, Note_on_c, 15, 64, 72
19, 25440, Note_on_c, 15, 69, 72
19, 25679, Note_on_c, 15, 57, 0
19, 25679, Note_on_c, 15, 61, 0
19, 25679, Note_on_c, 15, 64, 0
19, 25679, Note_on_c, 15, 69, 0
19, 25680, Note_on_c, 15, 45, 72
19, 25680, Note_on_c, 15, 71, 72
19, 25680, Note_on_c, 15, 64, 72
19, 25680, Note_on_c, 15, 57, 72
19, 25919, Note_on_c, 15, 45, 0
19, 25919, Note_on_c, 15, 71, 0
19, 25919, Note_on_c, 15, 64, 0
19, 25919, Note_on_c, 15, 57, 0
19, 25920, Note_on_c, 15, 57, 72
19, 25920, Note_on_c, 15, 73, 72
19, 25920, Note_on_c, 15, 64, 72
19, 26159, Note_on_c, 15, 57, 0
19, 26159, Note_on_c, 15, 73, 0
19, 26159, Note_on_c, 15, 64, 0
19, 26160, Note_on_c, 15, 50, 72
19, 26160, Note_on_c, 15, 66, 72
19, 26160, Note_on_c, 15, 69, 72
19, 26160, Note_on_c, 15, 74, 72
19, 26399, Note_on_c, 15, 50, 0
19, 26399, Note_on_c, 15, 66, 0
19, 26399, Note_on_c, 15, 69, 0
19, 26399, Note_on_c, 15, 74, 0
19, 26640, Note_on_c, 15, 50, 72
19, 26640, Note_on_c, 15, 74, 72
19, 26640, Note_on_c, 15, 69, 72
19, 26640, Note_on_c, 15, 66, 72
19, 26879, Note_on_c, 15, 50, 0
19, 26879, Note_on_c, 15, 74, 0
19, 26879, Note_on_c, 15, 69, 0
19, 26879, Note_on_c, 15, 66, 0
19, 26880, Note_on_c, 15, 55, 72
19, 26880, Note_on_c, 15, 71, 72
19, 26880, Note_on_c, 15, 62, 72
19, 26880, Note_on_c, 15, 67, 72
19, 27119, Note_on_c, 15, 55, 0
19, 27119, Note_on_c, 15, 71, 0
19, 27119, Note_on_c, 15, 62, 0
19, 27119, Note_on_c, 15, 67, 0
19, 27360, Note_on_c, 15, 55, 72
19, 27360, Note_on_c, 15, 71, 72
19, 27360, Note_on_c, 15, 76, 72
19, 27360, Note_on_c, 15, 59, 72
19, 27599, Note_on_c, 15, 55, 0
19, 27599, Note_on_c, 15, 71, 0
19, 27599, Note_on_c, 15, 76, 0
19, 27599, Note_on_c, 15, 59, 0
19, 27600, Note_on_c, 15, 57, 72
19, 27600, Note_on_c, 15, 73, 72
19, 27600, Note_on_c, 15, 64, 72
19, 27839, Note_on_c, 15, 57, 0
19, 27839, Note_on_c, 15, 73, 0
19, 27839, Note_on_c, 15, 64, 0
19, 28080, Note_on_c, 15, 57, 72
19, 28080, Note_on_c, 15, 73, 72
19, 28080, Note_on_c, 15, 64, 72
19, 28080, Note_on_c, 15, 79, 72
19, 28319, Note_on_c, 15, 57, 0
19, 28319, Note_on_c, 15, 73, 0
19, 28319, Note_on_c, 15, 64, 0
19, 28319, Note_on_c, 15, 79, 0
19, 28320, Note_on_c, 15, 59, 72
19, 28320, Note_on_c, 15, 74, 72
19, 28320, Note_on_c, 15, 78, 72
19, 28320, Note_on_c, 15, 62, 72
19, 28379, Note_on_c, 15, 59, 0
19, 28559, Note_on_c, 15, 74, 0
19, 28559, Note_on_c, 15, 78, 0
19, 28559, Note_on_c, 15, 62, 0
19, 28560, Note_on_c, 15, 55, 72
19, 28560, Note_on_c, 15, 61, 72
19, 28560, Note_on_c, 15, 62, 72
19, 28619, Note_on_c, 15, 55, 0
19, 28799, Note_on_c, 15, 61, 0
19, 28799, Note_on_c, 15, 62, 0
19, 28800, Note_on_c, 15, 57, 72
19, 28800, Note_on_c, 15, 62, 72
19, 28800, Note_on_c, 15, 61, 72
19, 28859, Note_on_c, 15, 57, 0
19, 29039, Note_on_c, 15, 62, 0
19, 29039, Note_on_c, 15, 61, 0
19, 29040, Note_on_c, 15, 50, 72
19, 29040, Note_on_c, 15, 66, 72
19, 29040, Note_on_c, 15, 69, 72
19, 29040, Note_on_c, 15, 74, 72
19, 29279, Note_on_c, 15, 50, 0
19, 29279, Note_on_c, 15, 66, 0
19, 29279, Note_on_c, 15, 69, 0
19, 29279, Note_on_c, 15, 74, 0
19, 29279, End_track
0, 0, End_of_file