0, 0, Header, 1, 19, 120
1, 0, Start_track
1, 0, Title_t, "W. A. Mozart - Requiem K. 626"
1, 0, Time_signature, 3, 2, 24, 8
1, 0, Key_signature, -1, "major"
1, 0, Tempo, 923077
1, 0, Marker_t, "Conductor Track"
1, 47040, Tempo, 857143
1, 47040, End_track
2, 0, Start_track
2, 0, Title_t, "No. 5 - Recordare"
2, 0, End_track
3, 0, Start_track
3, 0, Title_t, "Sequenced by D. Viens 9-27-97"
3, 0, End_track
4, 0, Start_track
4, 0, Title_t, "dlviens@ix.netcom.com"
4, 0, End_track
5, 0, Start_track
5, 0, End_track
6, 0, Start_track
6, 0, Title_t, "Corno di Bassetto I  in F"
6, 0, Program_c, 0, 71
6, 0, Control_c, 0, 7, 96
6, 0, Control_c, 0, 10, 70
6, 0, Control_c, 0, 11, 127
6, 360, Note_on_c, 0, 67, 48
6, 839, Note_on_c, 0, 67, 0
6, 840, Note_on_c, 0, 65, 48
6, 959, Note_on_c, 0, 65, 0
6, 960, Note_on_c, 0, 72, 48
6, 1079, Note_on_c, 0, 72, 0
6, 1080, Note_on_c, 0, 70, 48
6, 1559, Note_on_c, 0, 70, 0
6, 1560, Note_on_c, 0, 69, 48
6, 1679, Note_on_c, 0, 69, 0
6, 1680, Note_on_c, 0, 75, 48
6, 1799, Note_on_c, 0, 75, 0
6, 1800, Note_on_c, 0, 74, 48
6, 1979, Note_on_c, 0, 74, 0
6, 1980, Note_on_c, 0, 72, 48
6, 2039, Note_on_c, 0, 72, 0
6, 2040, Note_on_c, 0, 70, 48
6, 2099, Note_on_c, 0, 70, 0
6, 2100, Note_on_c, 0, 69, 48
6, 2159, Note_on_c, 0, 69, 0
6, 2160, Note_on_c, 0, 67, 48
6, 2279, Note_on_c, 0, 67, 0
6, 9480, Note_on_c, 0, 74, 48
6, 9599, Note_on_c, 0, 74, 0
6, 9600, Note_on_c, 0, 74, 48
6, 9719, Note_on_c, 0, 74, 0
6, 9720, Note_on_c, 0, 74, 48
6, 9899, Note_on_c, 0, 74, 0
6, 9900, Note_on_c, 0, 77, 48
6, 9929, Note_on_c, 0, 77, 0
6, 9930, Note_on_c, 0, 75, 48
6, 9959, Note_on_c, 0, 75, 0
6, 9960, Note_on_c, 0, 74, 48
6, 10079, Note_on_c, 0, 74, 0
6, 10200, Note_on_c, 0, 74, 48
6, 10319, Note_on_c, 0, 74, 0
6, 10320, Note_on_c, 0, 74, 48
6, 10439, Note_on_c, 0, 74, 0
6, 10440, Note_on_c, 0, 74, 48
6, 10619, Note_on_c, 0, 74, 0
6, 10620, Note_on_c, 0, 77, 48
6, 10649, Note_on_c, 0, 77, 0
6, 10650, Note_on_c, 0, 75, 48
6, 10679, Note_on_c, 0, 75, 0
6, 10680, Note_on_c, 0, 74, 48
6, 10799, Note_on_c, 0, 74, 0
6, 10800, Note_on_c, 0, 74, 48
6, 11159, Note_on_c, 0, 74, 0
6, 11160, Note_on_c, 0, 76, 48
6, 11279, Note_on_c, 0, 76, 0
6, 11280, Note_on_c, 0, 74, 48
6, 11399, Note_on_c, 0, 74, 0
6, 11400, Note_on_c, 0, 72, 48
6, 11579, Note_on_c, 0, 72, 0
6, 11580, Note_on_c, 0, 76, 48
6, 11609, Note_on_c, 0, 76, 0
6, 11610, Note_on_c, 0, 74, 48
6, 11639, Note_on_c, 0, 74, 0
6, 11640, Note_on_c, 0, 72, 48
6, 11759, Note_on_c, 0, 72, 0
6, 11760, Note_on_c, 0, 71, 48
6, 11879, Note_on_c, 0, 71, 0
6, 11880, Note_on_c, 0, 72, 48
6, 11999, Note_on_c, 0, 72, 0
6, 16200, Note_on_c, 0, 74, 48
6, 16439, Note_on_c, 0, 74, 0
6, 16440, Note_on_c, 0, 79, 48
6, 16559, Note_on_c, 0, 79, 0
6, 16560, Note_on_c, 0, 72, 48
6, 16799, Note_on_c, 0, 72, 0
6, 16800, Note_on_c, 0, 77, 48
6, 16919, Note_on_c, 0, 77, 0
6, 16920, Note_on_c, 0, 70, 48
6, 17159, Note_on_c, 0, 70, 0
6, 17160, Note_on_c, 0, 76, 48
6, 17279, Note_on_c, 0, 76, 0
6, 17280, Note_on_c, 0, 69, 48
6, 17519, Note_on_c, 0, 69, 0
6, 17520, Note_on_c, 0, 74, 48
6, 17639, Note_on_c, 0, 74, 0
6, 17640, Note_on_c, 0, 77, 48
6, 17819, Note_on_c, 0, 77, 0
6, 17820, Note_on_c, 0, 73, 48
6, 17879, Note_on_c, 0, 73, 0
6, 17880, Note_on_c, 0, 74, 48
6, 17939, Note_on_c, 0, 74, 0
6, 17940, Note_on_c, 0, 73, 48
6, 17999, Note_on_c, 0, 73, 0
6, 18000, Note_on_c, 0, 74, 48
6, 18059, Note_on_c, 0, 74, 0
6, 18060, Note_on_c, 0, 76, 48
6, 18119, Note_on_c, 0, 76, 0
6, 18120, Note_on_c, 0, 74, 48
6, 18239, Note_on_c, 0, 74, 0
6, 18240, Note_on_c, 0, 73, 48
6, 18359, Note_on_c, 0, 73, 0
6, 18360, Note_on_c, 0, 74, 66
6, 18719, Note_on_c, 0, 74, 0
6, 18720, Note_on_c, 0, 75, 66
6, 18959, Note_on_c, 0, 75, 0
6, 18960, Note_on_c, 0, 69, 66
6, 19079, Note_on_c, 0, 69, 0
6, 19080, Note_on_c, 0, 70, 66
6, 19139, Note_on_c, 0, 70, 0
6, 21720, Note_on_c, 0, 72, 48
6, 21839, Note_on_c, 0, 72, 0
6, 21840, Note_on_c, 0, 72, 48
6, 21959, Note_on_c, 0, 72, 0
6, 21960, Note_on_c, 0, 72, 48
6, 22139, Note_on_c, 0, 72, 0
6, 22140, Note_on_c, 0, 75, 48
6, 22169, Note_on_c, 0, 75, 0
6, 22170, Note_on_c, 0, 73, 48
6, 22199, Note_on_c, 0, 73, 0
6, 22200, Note_on_c, 0, 72, 48
6, 22319, Note_on_c, 0, 72, 0
6, 22440, Note_on_c, 0, 72, 48
6, 22559, Note_on_c, 0, 72, 0
6, 22560, Note_on_c, 0, 72, 48
6, 22679, Note_on_c, 0, 72, 0
6, 22680, Note_on_c, 0, 72, 48
6, 22859, Note_on_c, 0, 72, 0
6, 22860, Note_on_c, 0, 75, 48
6, 22889, Note_on_c, 0, 75, 0
6, 22890, Note_on_c, 0, 73, 48
6, 22919, Note_on_c, 0, 73, 0
6, 22920, Note_on_c, 0, 72, 48
6, 23039, Note_on_c, 0, 72, 0
6, 23160, Note_on_c, 0, 72, 48
6, 23279, Note_on_c, 0, 72, 0
6, 23280, Note_on_c, 0, 72, 48
6, 23399, Note_on_c, 0, 72, 0
6, 23400, Note_on_c, 0, 77, 48
6, 23519, Note_on_c, 0, 77, 0
6, 23520, Note_on_c, 0, 69, 48
6, 23639, Note_on_c, 0, 69, 0
6, 23640, Note_on_c, 0, 70, 48
6, 23819, Note_on_c, 0, 70, 0
6, 23820, Note_on_c, 0, 74, 48
6, 23849, Note_on_c, 0, 74, 0
6, 23850, Note_on_c, 0, 72, 48
6, 23879, Note_on_c, 0, 72, 0
6, 23880, Note_on_c, 0, 70, 48
6, 23999, Note_on_c, 0, 70, 0
6, 24000, Note_on_c, 0, 69, 48
6, 24119, Note_on_c, 0, 69, 0
6, 24120, Note_on_c, 0, 70, 48
6, 24239, Note_on_c, 0, 70, 0
6, 25680, Note_on_c, 0, 74, 48
6, 25799, Note_on_c, 0, 74, 0
6, 25800, Note_on_c, 0, 74, 48
6, 25919, Note_on_c, 0, 74, 0
6, 25920, Note_on_c, 0, 75, 48
6, 26159, Note_on_c, 0, 75, 0
6, 26880, Note_on_c, 0, 74, 75
6, 26999, Note_on_c, 0, 74, 0
6, 27000, Note_on_c, 0, 75, 72
6, 27059, Note_on_c, 0, 75, 0
6, 27120, Note_on_c, 0, 75, 48
6, 27239, Note_on_c, 0, 75, 0
6, 27240, Note_on_c, 0, 75, 48
6, 27359, Note_on_c, 0, 75, 0
6, 27360, Note_on_c, 0, 77, 48
6, 27719, Note_on_c, 0, 77, 0
6, 28320, Note_on_c, 0, 76, 75
6, 28439, Note_on_c, 0, 76, 0
6, 28440, Note_on_c, 0, 77, 72
6, 28499, Note_on_c, 0, 77, 0
6, 28560, Note_on_c, 0, 77, 48
6, 28679, Note_on_c, 0, 77, 0
6, 28680, Note_on_c, 0, 77, 48
6, 28799, Note_on_c, 0, 77, 0
6, 28800, Note_on_c, 0, 79, 48
6, 29159, Note_on_c, 0, 79, 0
6, 33120, Note_on_c, 0, 65, 48
6, 33599, Note_on_c, 0, 65, 0
6, 33600, Note_on_c, 0, 64, 48
6, 33719, Note_on_c, 0, 64, 0
6, 33720, Note_on_c, 0, 70, 48
6, 33839, Note_on_c, 0, 70, 0
6, 33840, Note_on_c, 0, 69, 48
6, 34319, Note_on_c, 0, 69, 0
6, 34320, Note_on_c, 0, 67, 48
6, 34439, Note_on_c, 0, 67, 0
6, 34440, Note_on_c, 0, 74, 48
6, 34559, Note_on_c, 0, 74, 0
6, 34560, Note_on_c, 0, 72, 48
6, 34799, Note_on_c, 0, 72, 0
6, 34800, Note_on_c, 0, 70, 48
6, 35039, Note_on_c, 0, 70, 0
6, 35040, Note_on_c, 0, 70, 48
6, 35189, Note_on_c, 0, 70, 0
6, 35190, Note_on_c, 0, 69, 48
6, 35219, Note_on_c, 0, 69, 0
6, 35220, Note_on_c, 0, 67, 48
6, 35249, Note_on_c, 0, 67, 0
6, 35250, Note_on_c, 0, 69, 48
6, 35279, Note_on_c, 0, 69, 0
6, 35280, Note_on_c, 0, 67, 48
6, 35399, Note_on_c, 0, 67, 0
6, 37920, Note_on_c, 0, 74, 75
6, 38159, Note_on_c, 0, 74, 0
6, 38160, Note_on_c, 0, 72, 72
6, 38279, Note_on_c, 0, 72, 0
6, 38280, Note_on_c, 0, 72, 72
6, 38399, Note_on_c, 0, 72, 0
6, 38640, Note_on_c, 0, 77, 75
6, 38879, Note_on_c, 0, 77, 0
6, 38880, Note_on_c, 0, 76, 72
6, 38999, Note_on_c, 0, 76, 0
6, 39000, Note_on_c, 0, 72, 72
6, 39119, Note_on_c, 0, 72, 0
6, 41160, Note_on_c, 0, 67, 48
6, 41279, Note_on_c, 0, 67, 0
6, 41280, Note_on_c, 0, 67, 48
6, 41399, Note_on_c, 0, 67, 0
6, 41400, Note_on_c, 0, 72, 48
6, 41519, Note_on_c, 0, 72, 0
6, 41520, Note_on_c, 0, 64, 48
6, 41639, Note_on_c, 0, 64, 0
6, 41640, Note_on_c, 0, 65, 48
6, 41819, Note_on_c, 0, 65, 0
6, 41820, Note_on_c, 0, 69, 48
6, 41849, Note_on_c, 0, 69, 0
6, 41850, Note_on_c, 0, 67, 48
6, 41879, Note_on_c, 0, 67, 0
6, 41880, Note_on_c, 0, 65, 48
6, 41999, Note_on_c, 0, 65, 0
6, 42000, Note_on_c, 0, 64, 48
6, 42119, Note_on_c, 0, 64, 0
6, 42120, Note_on_c, 0, 65, 48
6, 42239, Note_on_c, 0, 65, 0
6, 42360, Note_on_c, 0, 77, 48
6, 42539, Note_on_c, 0, 77, 0
6, 42540, Note_on_c, 0, 76, 48
6, 42599, Note_on_c, 0, 76, 0
6, 42600, Note_on_c, 0, 74, 48
6, 42659, Note_on_c, 0, 74, 0
6, 42660, Note_on_c, 0, 72, 48
6, 42719, Note_on_c, 0, 72, 0
6, 42720, Note_on_c, 0, 70, 48
6, 42779, Note_on_c, 0, 70, 0
6, 42780, Note_on_c, 0, 69, 48
6, 42839, Note_on_c, 0, 69, 0
6, 42840, Note_on_c, 0, 74, 48
6, 43079, Note_on_c, 0, 74, 0
6, 43080, Note_on_c, 0, 72, 48
6, 43259, Note_on_c, 0, 72, 0
6, 43260, Note_on_c, 0, 70, 48
6, 43319, Note_on_c, 0, 70, 0
6, 43320, Note_on_c, 0, 69, 48
6, 43439, Note_on_c, 0, 69, 0
6, 43440, Note_on_c, 0, 67, 48
6, 43559, Note_on_c, 0, 67, 0
6, 43560, Note_on_c, 0, 69, 48
6, 43679, Note_on_c, 0, 69, 0
6, 43800, Note_on_c, 0, 77, 48
6, 43979, Note_on_c, 0, 77, 0
6, 43980, Note_on_c, 0, 76, 48
6, 44039, Note_on_c, 0, 76, 0
6, 44040, Note_on_c, 0, 74, 48
6, 44099, Note_on_c, 0, 74, 0
6, 44100, Note_on_c, 0, 72, 48
6, 44159, Note_on_c, 0, 72, 0
6, 44160, Note_on_c, 0, 70, 48
6, 44219, Note_on_c, 0, 70, 0
6, 44220, Note_on_c, 0, 69, 48
6, 44279, Note_on_c, 0, 69, 0
6, 44280, Note_on_c, 0, 74, 48
6, 44519, Note_on_c, 0, 74, 0
6, 44520, Note_on_c, 0, 72, 48
6, 44699, Note_on_c, 0, 72, 0
6, 44700, Note_on_c, 0, 70, 48
6, 44759, Note_on_c, 0, 70, 0
6, 44760, Note_on_c, 0, 69, 48
6, 44879, Note_on_c, 0, 69, 0
6, 44880, Note_on_c, 0, 67, 48
6, 44999, Note_on_c, 0, 67, 0
6, 45000, Note_on_c, 0, 65, 48
6, 45119, Note_on_c, 0, 65, 0
6, 45119, End_track
7, 0, Start_track
7, 0, Title_t, "Corno di Bassetto II in F"
7, 0, Program_c, 0, 71
7, 0, Control_c, 0, 7, 96
7, 0, Control_c, 0, 10, 70
7, 0, Control_c, 0, 11, 127
7, 0, Note_on_c, 0, 65, 48
7, 479, Note_on_c, 0, 65, 0
7, 480, Note_on_c, 0, 64, 48
7, 599, Note_on_c, 0, 64, 0
7, 600, Note_on_c, 0, 70, 48
7, 719, Note_on_c, 0, 70, 0
7, 720, Note_on_c, 0, 69, 48
7, 1199, Note_on_c, 0, 69, 0
7, 1200, Note_on_c, 0, 67, 48
7, 1319, Note_on_c, 0, 67, 0
7, 1320, Note_on_c, 0, 74, 48
7, 1439, Note_on_c, 0, 74, 0
7, 1440, Note_on_c, 0, 72, 48
7, 1919, Note_on_c, 0, 72, 0
7, 1920, Note_on_c, 0, 70, 48
7, 1979, Note_on_c, 0, 70, 0
7, 1980, Note_on_c, 0, 69, 48
7, 2039, Note_on_c, 0, 69, 0
7, 2040, Note_on_c, 0, 67, 48
7, 2099, Note_on_c, 0, 67, 0
7, 2100, Note_on_c, 0, 65, 48
7, 2159, Note_on_c, 0, 65, 0
7, 2160, Note_on_c, 0, 64, 48
7, 2279, Note_on_c, 0, 64, 0
7, 9480, Note_on_c, 0, 71, 48
7, 9599, Note_on_c, 0, 71, 0
7, 9600, Note_on_c, 0, 71, 48
7, 9719, Note_on_c, 0, 71, 0
7, 9720, Note_on_c, 0, 71, 48
7, 9899, Note_on_c, 0, 71, 0
7, 9900, Note_on_c, 0, 74, 48
7, 9929, Note_on_c, 0, 74, 0
7, 9930, Note_on_c, 0, 72, 48
7, 9959, Note_on_c, 0, 72, 0
7, 9960, Note_on_c, 0, 71, 48
7, 10079, Note_on_c, 0, 71, 0
7, 10080, Note_on_c, 0, 71, 48
7, 10199, Note_on_c, 0, 71, 0
7, 10200, Note_on_c, 0, 72, 48
7, 10319, Note_on_c, 0, 72, 0
7, 10320, Note_on_c, 0, 67, 48
7, 10439, Note_on_c, 0, 67, 0
7, 10440, Note_on_c, 0, 69, 48
7, 10679, Note_on_c, 0, 69, 0
7, 10680, Note_on_c, 0, 62, 48
7, 10799, Note_on_c, 0, 62, 0
7, 10800, Note_on_c, 0, 65, 48
7, 10919, Note_on_c, 0, 65, 0
7, 10920, Note_on_c, 0, 67, 48
7, 11039, Note_on_c, 0, 67, 0
7, 11040, Note_on_c, 0, 68, 48
7, 11159, Note_on_c, 0, 68, 0
7, 11160, Note_on_c, 0, 67, 48
7, 11279, Note_on_c, 0, 67, 0
7, 11280, Note_on_c, 0, 59, 48
7, 11399, Note_on_c, 0, 59, 0
7, 11400, Note_on_c, 0, 60, 48
7, 11519, Note_on_c, 0, 60, 0
7, 11520, Note_on_c, 0, 69, 48
7, 11639, Note_on_c, 0, 69, 0
7, 11640, Note_on_c, 0, 67, 48
7, 11759, Note_on_c, 0, 67, 0
7, 11760, Note_on_c, 0, 65, 48
7, 11879, Note_on_c, 0, 65, 0
7, 11880, Note_on_c, 0, 64, 48
7, 11999, Note_on_c, 0, 64, 0
7, 16200, Note_on_c, 0, 69, 48
7, 16319, Note_on_c, 0, 69, 0
7, 16320, Note_on_c, 0, 70, 48
7, 16559, Note_on_c, 0, 70, 0
7, 16560, Note_on_c, 0, 67, 48
7, 16679, Note_on_c, 0, 67, 0
7, 16680, Note_on_c, 0, 69, 48
7, 16919, Note_on_c, 0, 69, 0
7, 16920, Note_on_c, 0, 65, 48
7, 17039, Note_on_c, 0, 65, 0
7, 17040, Note_on_c, 0, 67, 48
7, 17279, Note_on_c, 0, 67, 0
7, 17280, Note_on_c, 0, 64, 48
7, 17399, Note_on_c, 0, 64, 0
7, 17400, Note_on_c, 0, 65, 48
7, 17639, Note_on_c, 0, 65, 0
7, 17640, Note_on_c, 0, 65, 48
7, 17819, Note_on_c, 0, 65, 0
7, 17820, Note_on_c, 0, 67, 48
7, 17879, Note_on_c, 0, 67, 0
7, 17880, Note_on_c, 0, 68, 48
7, 17939, Note_on_c, 0, 68, 0
7, 17940, Note_on_c, 0, 69, 48
7, 17999, Note_on_c, 0, 69, 0
7, 18000, Note_on_c, 0, 70, 48
7, 18119, Note_on_c, 0, 70, 0
7, 18120, Note_on_c, 0, 69, 48
7, 18359, Note_on_c, 0, 69, 0
7, 18360, Note_on_c, 0, 69, 66
7, 18479, Note_on_c, 0, 69, 0
7, 18780, Note_on_c, 0, 72, 66
7, 18809, Note_on_c, 0, 72, 0
7, 18810, Note_on_c, 0, 70, 66
7, 18839, Note_on_c, 0, 70, 0
7, 18840, Note_on_c, 0, 69, 66
7, 18899, Note_on_c, 0, 69, 0
7, 18900, Note_on_c, 0, 67, 66
7, 18959, Note_on_c, 0, 67, 0
7, 18960, Note_on_c, 0, 65, 66
7, 19019, Note_on_c, 0, 65, 0
7, 19020, Note_on_c, 0, 63, 66
7, 19079, Note_on_c, 0, 63, 0
7, 19080, Note_on_c, 0, 62, 66
7, 19139, Note_on_c, 0, 62, 0
7, 21720, Note_on_c, 0, 69, 48
7, 21839, Note_on_c, 0, 69, 0
7, 21840, Note_on_c, 0, 69, 48
7, 21959, Note_on_c, 0, 69, 0
7, 21960, Note_on_c, 0, 69, 48
7, 22139, Note_on_c, 0, 69, 0
7, 22140, Note_on_c, 0, 72, 48
7, 22169, Note_on_c, 0, 72, 0
7, 22170, Note_on_c, 0, 70, 48
7, 22199, Note_on_c, 0, 70, 0
7, 22200, Note_on_c, 0, 69, 48
7, 22319, Note_on_c, 0, 69, 0
7, 22440, Note_on_c, 0, 63, 48
7, 22559, Note_on_c, 0, 63, 0
7, 22560, Note_on_c, 0, 65, 48
7, 22679, Note_on_c, 0, 65, 0
7, 22680, Note_on_c, 0, 67, 48
7, 22919, Note_on_c, 0, 67, 0
7, 22920, Note_on_c, 0, 60, 48
7, 23039, Note_on_c, 0, 60, 0
7, 23040, Note_on_c, 0, 63, 48
7, 23159, Note_on_c, 0, 63, 0
7, 23160, Note_on_c, 0, 65, 48
7, 23279, Note_on_c, 0, 65, 0
7, 23280, Note_on_c, 0, 66, 48
7, 23399, Note_on_c, 0, 66, 0
7, 23400, Note_on_c, 0, 65, 48
7, 23519, Note_on_c, 0, 65, 0
7, 23520, Note_on_c, 0, 63, 48
7, 23639, Note_on_c, 0, 63, 0
7, 23640, Note_on_c, 0, 62, 48
7, 23759, Note_on_c, 0, 62, 0
7, 23760, Note_on_c, 0, 67, 48
7, 23879, Note_on_c, 0, 67, 0
7, 23880, Note_on_c, 0, 65, 48
7, 23999, Note_on_c, 0, 65, 0
7, 24000, Note_on_c, 0, 63, 48
7, 24119, Note_on_c, 0, 63, 0
7, 24120, Note_on_c, 0, 62, 48
7, 24239, Note_on_c, 0, 62, 0
7, 25680, Note_on_c, 0, 65, 48
7, 25799, Note_on_c, 0, 65, 0
7, 25800, Note_on_c, 0, 65, 48
7, 25919, Note_on_c, 0, 65, 0
7, 25920, Note_on_c, 0, 66, 48
7, 26279, Note_on_c, 0, 66, 0
7, 26880, Note_on_c, 0, 71, 75
7, 26999, Note_on_c, 0, 71, 0
7, 27000, Note_on_c, 0, 72, 72
7, 27059, Note_on_c, 0, 72, 0
7, 27120, Note_on_c, 0, 67, 48
7, 27239, Note_on_c, 0, 67, 0
7, 27240, Note_on_c, 0, 67, 48
7, 27359, Note_on_c, 0, 67, 0
7, 27360, Note_on_c, 0, 68, 48
7, 27719, Note_on_c, 0, 68, 0
7, 28320, Note_on_c, 0, 73, 75
7, 28439, Note_on_c, 0, 73, 0
7, 28440, Note_on_c, 0, 74, 72
7, 28499, Note_on_c, 0, 74, 0
7, 28560, Note_on_c, 0, 69, 48
7, 28679, Note_on_c, 0, 69, 0
7, 28680, Note_on_c, 0, 69, 48
7, 28799, Note_on_c, 0, 69, 0
7, 28800, Note_on_c, 0, 70, 48
7, 29159, Note_on_c, 0, 70, 0
7, 33480, Note_on_c, 0, 67, 48
7, 33959, Note_on_c, 0, 67, 0
7, 33960, Note_on_c, 0, 65, 48
7, 34079, Note_on_c, 0, 65, 0
7, 34080, Note_on_c, 0, 72, 48
7, 34199, Note_on_c, 0, 72, 0
7, 34200, Note_on_c, 0, 70, 48
7, 34439, Note_on_c, 0, 70, 0
7, 34440, Note_on_c, 0, 70, 48
7, 34679, Note_on_c, 0, 70, 0
7, 34680, Note_on_c, 0, 69, 48
7, 34919, Note_on_c, 0, 69, 0
7, 34920, Note_on_c, 0, 67, 48
7, 35039, Note_on_c, 0, 67, 0
7, 35040, Note_on_c, 0, 67, 48
7, 35189, Note_on_c, 0, 67, 0
7, 35190, Note_on_c, 0, 65, 48
7, 35219, Note_on_c, 0, 65, 0
7, 35220, Note_on_c, 0, 64, 48
7, 35249, Note_on_c, 0, 64, 0
7, 35250, Note_on_c, 0, 65, 48
7, 35279, Note_on_c, 0, 65, 0
7, 35280, Note_on_c, 0, 64, 48
7, 35399, Note_on_c, 0, 64, 0
7, 37920, Note_on_c, 0, 68, 75
7, 38159, Note_on_c, 0, 68, 0
7, 38160, Note_on_c, 0, 67, 72
7, 38279, Note_on_c, 0, 67, 0
7, 38280, Note_on_c, 0, 67, 72
7, 38399, Note_on_c, 0, 67, 0
7, 38640, Note_on_c, 0, 71, 75
7, 38879, Note_on_c, 0, 71, 0
7, 38880, Note_on_c, 0, 72, 72
7, 38999, Note_on_c, 0, 72, 0
7, 39000, Note_on_c, 0, 67, 72
7, 39119, Note_on_c, 0, 67, 0
7, 41160, Note_on_c, 0, 64, 48
7, 41279, Note_on_c, 0, 64, 0
7, 41280, Note_on_c, 0, 64, 48
7, 41399, Note_on_c, 0, 64, 0
7, 41400, Note_on_c, 0, 65, 48
7, 41519, Note_on_c, 0, 65, 0
7, 41520, Note_on_c, 0, 58, 48
7, 41639, Note_on_c, 0, 58, 0
7, 41640, Note_on_c, 0, 57, 48
7, 41759, Note_on_c, 0, 57, 0
7, 41760, Note_on_c, 0, 62, 48
7, 41879, Note_on_c, 0, 62, 0
7, 41880, Note_on_c, 0, 60, 48
7, 41999, Note_on_c, 0, 60, 0
7, 42000, Note_on_c, 0, 58, 48
7, 42119, Note_on_c, 0, 58, 0
7, 42120, Note_on_c, 0, 57, 48
7, 42239, Note_on_c, 0, 57, 0
7, 42480, Note_on_c, 0, 69, 48
7, 42659, Note_on_c, 0, 69, 0
7, 42660, Note_on_c, 0, 67, 48
7, 42719, Note_on_c, 0, 67, 0
7, 42720, Note_on_c, 0, 65, 48
7, 42779, Note_on_c, 0, 65, 0
7, 42780, Note_on_c, 0, 64, 48
7, 42839, Note_on_c, 0, 64, 0
7, 42840, Note_on_c, 0, 62, 48
7, 42899, Note_on_c, 0, 62, 0
7, 42900, Note_on_c, 0, 64, 48
7, 42959, Note_on_c, 0, 64, 0
7, 42960, Note_on_c, 0, 65, 48
7, 43019, Note_on_c, 0, 65, 0
7, 43020, Note_on_c, 0, 67, 48
7, 43079, Note_on_c, 0, 67, 0
7, 43080, Note_on_c, 0, 69, 48
7, 43139, Note_on_c, 0, 69, 0
7, 43140, Note_on_c, 0, 64, 48
7, 43199, Note_on_c, 0, 64, 0
7, 43200, Note_on_c, 0, 65, 48
7, 43259, Note_on_c, 0, 65, 0
7, 43260, Note_on_c, 0, 67, 48
7, 43319, Note_on_c, 0, 67, 0
7, 43320, Note_on_c, 0, 65, 48
7, 43439, Note_on_c, 0, 65, 0
7, 43440, Note_on_c, 0, 64, 48
7, 43559, Note_on_c, 0, 64, 0
7, 43560, Note_on_c, 0, 65, 48
7, 43679, Note_on_c, 0, 65, 0
7, 43920, Note_on_c, 0, 69, 48
7, 44099, Note_on_c, 0, 69, 0
7, 44100, Note_on_c, 0, 67, 48
7, 44159, Note_on_c, 0, 67, 0
7, 44160, Note_on_c, 0, 65, 48
7, 44219, Note_on_c, 0, 65, 0
7, 44220, Note_on_c, 0, 64, 48
7, 44279, Note_on_c, 0, 64, 0
7, 44280, Note_on_c, 0, 70, 48
7, 44519, Note_on_c, 0, 70, 0
7, 44520, Note_on_c, 0, 69, 48
7, 44579, Note_on_c, 0, 69, 0
7, 44580, Note_on_c, 0, 64, 48
7, 44639, Note_on_c, 0, 64, 0
7, 44640, Note_on_c, 0, 65, 48
7, 44699, Note_on_c, 0, 65, 0
7, 44700, Note_on_c, 0, 67, 48
7, 44759, Note_on_c, 0, 67, 0
7, 44760, Note_on_c, 0, 65, 48
7, 44879, Note_on_c, 0, 65, 0
7, 44880, Note_on_c, 0, 64, 48
7, 44999, Note_on_c, 0, 64, 0
7, 45000, Note_on_c, 0, 65, 48
7, 45119, Note_on_c, 0, 65, 0
7, 45119, End_track
8, 0, Start_track
8, 0, Title_t, "Bassoon I"
8, 0, Program_c, 1, 70
8, 0, Control_c, 1, 7, 96
8, 0, Control_c, 1, 10, 65
8, 0, Control_c, 1, 11, 127
8, 9120, Note_on_c, 1, 55, 48
8, 9239, Note_on_c, 1, 55, 0
8, 9240, Note_on_c, 1, 55, 48
8, 9359, Note_on_c, 1, 55, 0
8, 9360, Note_on_c, 1, 56, 48
8, 9599, Note_on_c, 1, 56, 0
8, 9600, Note_on_c, 1, 55, 48
8, 9719, Note_on_c, 1, 55, 0
8, 9720, Note_on_c, 1, 53, 48
8, 9959, Note_on_c, 1, 53, 0
8, 9960, Note_on_c, 1, 55, 48
8, 10079, Note_on_c, 1, 55, 0
8, 10080, Note_on_c, 1, 56, 48
8, 10319, Note_on_c, 1, 56, 0
8, 10320, Note_on_c, 1, 60, 48
8, 10439, Note_on_c, 1, 60, 0
8, 10440, Note_on_c, 1, 60, 48
8, 10919, Note_on_c, 1, 60, 0
8, 10920, Note_on_c, 1, 59, 48
8, 11039, Note_on_c, 1, 59, 0
8, 11040, Note_on_c, 1, 59, 48
8, 11159, Note_on_c, 1, 59, 0
8, 11160, Note_on_c, 1, 60, 48
8, 11279, Note_on_c, 1, 60, 0
8, 11280, Note_on_c, 1, 65, 48
8, 11399, Note_on_c, 1, 65, 0
8, 11400, Note_on_c, 1, 64, 48
8, 11519, Note_on_c, 1, 64, 0
8, 11520, Note_on_c, 1, 65, 48
8, 11639, Note_on_c, 1, 65, 0
8, 11640, Note_on_c, 1, 64, 48
8, 11759, Note_on_c, 1, 64, 0
8, 11760, Note_on_c, 1, 62, 48
8, 11879, Note_on_c, 1, 62, 0
8, 11880, Note_on_c, 1, 60, 48
8, 11999, Note_on_c, 1, 60, 0
8, 16380, Note_on_c, 1, 67, 48
8, 16409, Note_on_c, 1, 67, 0
8, 16410, Note_on_c, 1, 65, 48
8, 16439, Note_on_c, 1, 65, 0
8, 16440, Note_on_c, 1, 64, 48
8, 16499, Note_on_c, 1, 64, 0
8, 16500, Note_on_c, 1, 62, 48
8, 16559, Note_on_c, 1, 62, 0
8, 16560, Note_on_c, 1, 60, 48
8, 16679, Note_on_c, 1, 60, 0
8, 16740, Note_on_c, 1, 65, 48
8, 16769, Note_on_c, 1, 65, 0
8, 16770, Note_on_c, 1, 64, 48
8, 16799, Note_on_c, 1, 64, 0
8, 16800, Note_on_c, 1, 62, 48
8, 16859, Note_on_c, 1, 62, 0
8, 16860, Note_on_c, 1, 60, 48
8, 16919, Note_on_c, 1, 60, 0
8, 16920, Note_on_c, 1, 58, 48
8, 17039, Note_on_c, 1, 58, 0
8, 17100, Note_on_c, 1, 64, 48
8, 17129, Note_on_c, 1, 64, 0
8, 17130, Note_on_c, 1, 62, 48
8, 17159, Note_on_c, 1, 62, 0
8, 17160, Note_on_c, 1, 61, 48
8, 17219, Note_on_c, 1, 61, 0
8, 17220, Note_on_c, 1, 59, 48
8, 17279, Note_on_c, 1, 59, 0
8, 17280, Note_on_c, 1, 57, 48
8, 17399, Note_on_c, 1, 57, 0
8, 17460, Note_on_c, 1, 62, 48
8, 17489, Note_on_c, 1, 62, 0
8, 17490, Note_on_c, 1, 60, 48
8, 17519, Note_on_c, 1, 60, 0
8, 17520, Note_on_c, 1, 58, 48
8, 17579, Note_on_c, 1, 58, 0
8, 17580, Note_on_c, 1, 57, 48
8, 17639, Note_on_c, 1, 57, 0
8, 17640, Note_on_c, 1, 62, 48
8, 17819, Note_on_c, 1, 62, 0
8, 17820, Note_on_c, 1, 64, 48
8, 17879, Note_on_c, 1, 64, 0
8, 17880, Note_on_c, 1, 65, 48
8, 17939, Note_on_c, 1, 65, 0
8, 17940, Note_on_c, 1, 65, 48
8, 17999, Note_on_c, 1, 65, 0
8, 18000, Note_on_c, 1, 65, 48
8, 18059, Note_on_c, 1, 65, 0
8, 18060, Note_on_c, 1, 67, 48
8, 18119, Note_on_c, 1, 67, 0
8, 18120, Note_on_c, 1, 65, 48
8, 18239, Note_on_c, 1, 65, 0
8, 18240, Note_on_c, 1, 64, 48
8, 18359, Note_on_c, 1, 64, 0
8, 18360, Note_on_c, 1, 62, 48
8, 18419, Note_on_c, 1, 62, 0
8, 18420, Note_on_c, 1, 53, 66
8, 18449, Note_on_c, 1, 53, 0
8, 18450, Note_on_c, 1, 55, 66
8, 18479, Note_on_c, 1, 55, 0
8, 18480, Note_on_c, 1, 57, 66
8, 18539, Note_on_c, 1, 57, 0
8, 18540, Note_on_c, 1, 59, 66
8, 18599, Note_on_c, 1, 59, 0
8, 18600, Note_on_c, 1, 61, 66
8, 18659, Note_on_c, 1, 61, 0
8, 18660, Note_on_c, 1, 62, 66
8, 18719, Note_on_c, 1, 62, 0
8, 18720, Note_on_c, 1, 60, 66
8, 18959, Note_on_c, 1, 60, 0
8, 18960, Note_on_c, 1, 53, 66
8, 19079, Note_on_c, 1, 53, 0
8, 19080, Note_on_c, 1, 53, 66
8, 19139, Note_on_c, 1, 53, 0
8, 21360, Note_on_c, 1, 53, 48
8, 21479, Note_on_c, 1, 53, 0
8, 21480, Note_on_c, 1, 53, 48
8, 21599, Note_on_c, 1, 53, 0
8, 21600, Note_on_c, 1, 54, 48
8, 21839, Note_on_c, 1, 54, 0
8, 21840, Note_on_c, 1, 53, 48
8, 21959, Note_on_c, 1, 53, 0
8, 21960, Note_on_c, 1, 51, 48
8, 22199, Note_on_c, 1, 51, 0
8, 22200, Note_on_c, 1, 53, 48
8, 22319, Note_on_c, 1, 53, 0
8, 22320, Note_on_c, 1, 57, 48
8, 22439, Note_on_c, 1, 57, 0
8, 22440, Note_on_c, 1, 58, 48
8, 22559, Note_on_c, 1, 58, 0
8, 22560, Note_on_c, 1, 58, 48
8, 22619, Note_on_c, 1, 58, 0
8, 22680, Note_on_c, 1, 58, 48
8, 22919, Note_on_c, 1, 58, 0
8, 22920, Note_on_c, 1, 58, 48
8, 23039, Note_on_c, 1, 58, 0
8, 23040, Note_on_c, 1, 58, 48
8, 23159, Note_on_c, 1, 58, 0
8, 23160, Note_on_c, 1, 57, 48
8, 23279, Note_on_c, 1, 57, 0
8, 23280, Note_on_c, 1, 57, 48
8, 23399, Note_on_c, 1, 57, 0
8, 23400, Note_on_c, 1, 58, 48
8, 23519, Note_on_c, 1, 58, 0
8, 23520, Note_on_c, 1, 60, 48
8, 23639, Note_on_c, 1, 60, 0
8, 23640, Note_on_c, 1, 58, 48
8, 23759, Note_on_c, 1, 58, 0
8, 23760, Note_on_c, 1, 63, 48
8, 23879, Note_on_c, 1, 63, 0
8, 23880, Note_on_c, 1, 62, 48
8, 23999, Note_on_c, 1, 62, 0
8, 24000, Note_on_c, 1, 60, 48
8, 24119, Note_on_c, 1, 60, 0
8, 24120, Note_on_c, 1, 58, 48
8, 24239, Note_on_c, 1, 58, 0
8, 25680, Note_on_c, 1, 58, 48
8, 25799, Note_on_c, 1, 58, 0
8, 25800, Note_on_c, 1, 58, 48
8, 25919, Note_on_c, 1, 58, 0
8, 25920, Note_on_c, 1, 60, 48
8, 26279, Note_on_c, 1, 60, 0
8, 26880, Note_on_c, 1, 65, 75
8, 26999, Note_on_c, 1, 65, 0
8, 27000, Note_on_c, 1, 63, 72
8, 27059, Note_on_c, 1, 63, 0
8, 27120, Note_on_c, 1, 63, 48
8, 27239, Note_on_c, 1, 63, 0
8, 27240, Note_on_c, 1, 63, 48
8, 27359, Note_on_c, 1, 63, 0
8, 27360, Note_on_c, 1, 62, 48
8, 27719, Note_on_c, 1, 62, 0
8, 28320, Note_on_c, 1, 67, 75
8, 28439, Note_on_c, 1, 67, 0
8, 28440, Note_on_c, 1, 65, 72
8, 28499, Note_on_c, 1, 65, 0
8, 28560, Note_on_c, 1, 65, 48
8, 28679, Note_on_c, 1, 65, 0
8, 28680, Note_on_c, 1, 65, 48
8, 28799, Note_on_c, 1, 65, 0
8, 28800, Note_on_c, 1, 64, 48
8, 29159, Note_on_c, 1, 64, 0
8, 37920, Note_on_c, 1, 65, 75
8, 38159, Note_on_c, 1, 65, 0
8, 38160, Note_on_c, 1, 65, 72
8, 38279, Note_on_c, 1, 65, 0
8, 38280, Note_on_c, 1, 64, 72
8, 38399, Note_on_c, 1, 64, 0
8, 38640, Note_on_c, 1, 65, 75
8, 38879, Note_on_c, 1, 65, 0
8, 38880, Note_on_c, 1, 67, 72
8, 38999, Note_on_c, 1, 67, 0
8, 39000, Note_on_c, 1, 64, 72
8, 39119, Note_on_c, 1, 64, 0
8, 41040, Note_on_c, 1, 58, 48
8, 41219, Note_on_c, 1, 58, 0
8, 41220, Note_on_c, 1, 60, 48
8, 41279, Note_on_c, 1, 60, 0
8, 41280, Note_on_c, 1, 61, 48
8, 41399, Note_on_c, 1, 61, 0
8, 41400, Note_on_c, 1, 60, 48
8, 41519, Note_on_c, 1, 60, 0
8, 41520, Note_on_c, 1, 55, 48
8, 41639, Note_on_c, 1, 55, 0
8, 41640, Note_on_c, 1, 53, 48
8, 41759, Note_on_c, 1, 53, 0
8, 41760, Note_on_c, 1, 58, 48
8, 41879, Note_on_c, 1, 58, 0
8, 41880, Note_on_c, 1, 57, 48
8, 41999, Note_on_c, 1, 57, 0
8, 42000, Note_on_c, 1, 55, 48
8, 42119, Note_on_c, 1, 55, 0
8, 42120, Note_on_c, 1, 53, 48
8, 42239, Note_on_c, 1, 53, 0
8, 42480, Note_on_c, 1, 65, 48
8, 42659, Note_on_c, 1, 65, 0
8, 42660, Note_on_c, 1, 64, 48
8, 42719, Note_on_c, 1, 64, 0
8, 42720, Note_on_c, 1, 62, 48
8, 42779, Note_on_c, 1, 62, 0
8, 42780, Note_on_c, 1, 60, 48
8, 42839, Note_on_c, 1, 60, 0
8, 42840, Note_on_c, 1, 58, 48
8, 43079, Note_on_c, 1, 58, 0
8, 43080, Note_on_c, 1, 57, 48
8, 43139, Note_on_c, 1, 57, 0
8, 43140, Note_on_c, 1, 58, 48
8, 43199, Note_on_c, 1, 58, 0
8, 43200, Note_on_c, 1, 60, 48
8, 43259, Note_on_c, 1, 60, 0
8, 43260, Note_on_c, 1, 62, 48
8, 43319, Note_on_c, 1, 62, 0
8, 43320, Note_on_c, 1, 60, 48
8, 43559, Note_on_c, 1, 60, 0
8, 43560, Note_on_c, 1, 60, 48
8, 43679, Note_on_c, 1, 60, 0
8, 43920, Note_on_c, 1, 65, 48
8, 44099, Note_on_c, 1, 65, 0
8, 44100, Note_on_c, 1, 64, 48
8, 44159, Note_on_c, 1, 64, 0
8, 44160, Note_on_c, 1, 62, 48
8, 44219, Note_on_c, 1, 62, 0
8, 44220, Note_on_c, 1, 60, 48
8, 44279, Note_on_c, 1, 60, 0
8, 44280, Note_on_c, 1, 62, 48
8, 44339, Note_on_c, 1, 62, 0
8, 44340, Note_on_c, 1, 64, 48
8, 44399, Note_on_c, 1, 64, 0
8, 44400, Note_on_c, 1, 65, 48
8, 44459, Note_on_c, 1, 65, 0
8, 44460, Note_on_c, 1, 67, 48
8, 44519, Note_on_c, 1, 67, 0
8, 44520, Note_on_c, 1, 60, 48
8, 44699, Note_on_c, 1, 60, 0
8, 44700, Note_on_c, 1, 62, 48
8, 44759, Note_on_c, 1, 62, 0
8, 44760, Note_on_c, 1, 60, 48
8, 44879, Note_on_c, 1, 60, 0
8, 44880, Note_on_c, 1, 58, 48
8, 44999, Note_on_c, 1, 58, 0
8, 45000, Note_on_c, 1, 57, 48
8, 45119, Note_on_c, 1, 57, 0
8, 45119, End_track
9, 0, Start_track
9, 0, Title_t, "Bassoon II"
9, 0, Program_c, 1, 70
9, 0, Control_c, 1, 7, 96
9, 0, Control_c, 1, 10, 65
9, 0, Control_c, 1, 11, 127
9, 9120, Note_on_c, 1, 55, 48
9, 9239, Note_on_c, 1, 55, 0
9, 9240, Note_on_c, 1, 55, 48
9, 9359, Note_on_c, 1, 55, 0
9, 9360, Note_on_c, 1, 56, 48
9, 9599, Note_on_c, 1, 56, 0
9, 9600, Note_on_c, 1, 55, 48
9, 9719, Note_on_c, 1, 55, 0
9, 9720, Note_on_c, 1, 53, 48
9, 9959, Note_on_c, 1, 53, 0
9, 9960, Note_on_c, 1, 55, 48
9, 10079, Note_on_c, 1, 55, 0
9, 10080, Note_on_c, 1, 56, 48
9, 10319, Note_on_c, 1, 56, 0
9, 10320, Note_on_c, 1, 55, 48
9, 10439, Note_on_c, 1, 55, 0
9, 10440, Note_on_c, 1, 54, 48
9, 10679, Note_on_c, 1, 54, 0
9, 10680, Note_on_c, 1, 55, 48
9, 10799, Note_on_c, 1, 55, 0
9, 10800, Note_on_c, 1, 56, 48
9, 10919, Note_on_c, 1, 56, 0
9, 10920, Note_on_c, 1, 55, 48
9, 11039, Note_on_c, 1, 55, 0
9, 11040, Note_on_c, 1, 53, 48
9, 11159, Note_on_c, 1, 53, 0
9, 11160, Note_on_c, 1, 52, 48
9, 11279, Note_on_c, 1, 52, 0
9, 11280, Note_on_c, 1, 56, 48
9, 11399, Note_on_c, 1, 56, 0
9, 11400, Note_on_c, 1, 57, 48
9, 11519, Note_on_c, 1, 57, 0
9, 11520, Note_on_c, 1, 53, 48
9, 11639, Note_on_c, 1, 53, 0
9, 11640, Note_on_c, 1, 55, 48
9, 11759, Note_on_c, 1, 55, 0
9, 11760, Note_on_c, 1, 43, 48
9, 11879, Note_on_c, 1, 43, 0
9, 11880, Note_on_c, 1, 48, 48
9, 11999, Note_on_c, 1, 48, 0
9, 16200, Note_on_c, 1, 50, 48
9, 16259, Note_on_c, 1, 50, 0
9, 16260, Note_on_c, 1, 62, 48
9, 16289, Note_on_c, 1, 62, 0
9, 16290, Note_on_c, 1, 60, 48
9, 16319, Note_on_c, 1, 60, 0
9, 16320, Note_on_c, 1, 58, 48
9, 16379, Note_on_c, 1, 58, 0
9, 16380, Note_on_c, 1, 57, 48
9, 16439, Note_on_c, 1, 57, 0
9, 16440, Note_on_c, 1, 55, 48
9, 16499, Note_on_c, 1, 55, 0
9, 16500, Note_on_c, 1, 53, 48
9, 16559, Note_on_c, 1, 53, 0
9, 16560, Note_on_c, 1, 52, 48
9, 16619, Note_on_c, 1, 52, 0
9, 16620, Note_on_c, 1, 60, 48
9, 16649, Note_on_c, 1, 60, 0
9, 16650, Note_on_c, 1, 58, 48
9, 16679, Note_on_c, 1, 58, 0
9, 16680, Note_on_c, 1, 57, 48
9, 16739, Note_on_c, 1, 57, 0
9, 16740, Note_on_c, 1, 55, 48
9, 16799, Note_on_c, 1, 55, 0
9, 16800, Note_on_c, 1, 53, 48
9, 16859, Note_on_c, 1, 53, 0
9, 16860, Note_on_c, 1, 52, 48
9, 16919, Note_on_c, 1, 52, 0
9, 16920, Note_on_c, 1, 50, 48
9, 16979, Note_on_c, 1, 50, 0
9, 16980, Note_on_c, 1, 58, 48
9, 17009, Note_on_c, 1, 58, 0
9, 17010, Note_on_c, 1, 57, 48
9, 17039, Note_on_c, 1, 57, 0
9, 17040, Note_on_c, 1, 55, 48
9, 17099, Note_on_c, 1, 55, 0
9, 17100, Note_on_c, 1, 53, 48
9, 17159, Note_on_c, 1, 53, 0
9, 17160, Note_on_c, 1, 52, 48
9, 17219, Note_on_c, 1, 52, 0
9, 17220, Note_on_c, 1, 50, 48
9, 17279, Note_on_c, 1, 50, 0
9, 17280, Note_on_c, 1, 49, 48
9, 17339, Note_on_c, 1, 49, 0
9, 17340, Note_on_c, 1, 57, 48
9, 17369, Note_on_c, 1, 57, 0
9, 17370, Note_on_c, 1, 55, 48
9, 17399, Note_on_c, 1, 55, 0
9, 17400, Note_on_c, 1, 53, 48
9, 17459, Note_on_c, 1, 53, 0
9, 17460, Note_on_c, 1, 52, 48
9, 17519, Note_on_c, 1, 52, 0
9, 17520, Note_on_c, 1, 50, 48
9, 17579, Note_on_c, 1, 50, 0
9, 17580, Note_on_c, 1, 48, 48
9, 17639, Note_on_c, 1, 48, 0
9, 17640, Note_on_c, 1, 46, 48
9, 17699, Note_on_c, 1, 46, 0
9, 17700, Note_on_c, 1, 58, 48
9, 17729, Note_on_c, 1, 58, 0
9, 17760, Note_on_c, 1, 58, 48
9, 17789, Note_on_c, 1, 58, 0
9, 17820, Note_on_c, 1, 58, 48
9, 17849, Note_on_c, 1, 58, 0
9, 17880, Note_on_c, 1, 58, 48
9, 17939, Note_on_c, 1, 58, 0
9, 17940, Note_on_c, 1, 57, 48
9, 17999, Note_on_c, 1, 57, 0
9, 18000, Note_on_c, 1, 55, 48
9, 18119, Note_on_c, 1, 55, 0
9, 18120, Note_on_c, 1, 57, 48
9, 18239, Note_on_c, 1, 57, 0
9, 18240, Note_on_c, 1, 45, 48
9, 18359, Note_on_c, 1, 45, 0
9, 18360, Note_on_c, 1, 50, 48
9, 18479, Note_on_c, 1, 50, 0
9, 18780, Note_on_c, 1, 57, 66
9, 18809, Note_on_c, 1, 57, 0
9, 18810, Note_on_c, 1, 55, 66
9, 18839, Note_on_c, 1, 55, 0
9, 18840, Note_on_c, 1, 53, 66
9, 18899, Note_on_c, 1, 53, 0
9, 18900, Note_on_c, 1, 51, 66
9, 18959, Note_on_c, 1, 51, 0
9, 18960, Note_on_c, 1, 50, 66
9, 19019, Note_on_c, 1, 50, 0
9, 19020, Note_on_c, 1, 48, 66
9, 19079, Note_on_c, 1, 48, 0
9, 19080, Note_on_c, 1, 46, 66
9, 19139, Note_on_c, 1, 46, 0
9, 21360, Note_on_c, 1, 53, 48
9, 21479, Note_on_c, 1, 53, 0
9, 21480, Note_on_c, 1, 53, 48
9, 21599, Note_on_c, 1, 53, 0
9, 21600, Note_on_c, 1, 54, 48
9, 21839, Note_on_c, 1, 54, 0
9, 21840, Note_on_c, 1, 53, 48
9, 21959, Note_on_c, 1, 53, 0
9, 21960, Note_on_c, 1, 51, 48
9, 22199, Note_on_c, 1, 51, 0
9, 22200, Note_on_c, 1, 53, 48
9, 22319, Note_on_c, 1, 53, 0
9, 22320, Note_on_c, 1, 54, 48
9, 22559, Note_on_c, 1, 54, 0
9, 22560, Note_on_c, 1, 53, 48
9, 22679, Note_on_c, 1, 53, 0
9, 22680, Note_on_c, 1, 52, 48
9, 22919, Note_on_c, 1, 52, 0
9, 22920, Note_on_c, 1, 53, 48
9, 23039, Note_on_c, 1, 53, 0
9, 23040, Note_on_c, 1, 54, 48
9, 23159, Note_on_c, 1, 54, 0
9, 23160, Note_on_c, 1, 53, 48
9, 23279, Note_on_c, 1, 53, 0
9, 23280, Note_on_c, 1, 51, 48
9, 23399, Note_on_c, 1, 51, 0
9, 23400, Note_on_c, 1, 50, 48
9, 23519, Note_on_c, 1, 50, 0
9, 23520, Note_on_c, 1, 54, 48
9, 23639, Note_on_c, 1, 54, 0
9, 23640, Note_on_c, 1, 55, 48
9, 23759, Note_on_c, 1, 55, 0
9, 23760, Note_on_c, 1, 51, 48
9, 23879, Note_on_c, 1, 51, 0
9, 23880, Note_on_c, 1, 53, 48
9, 23999, Note_on_c, 1, 53, 0
9, 24000, Note_on_c, 1, 41, 48
9, 24119, Note_on_c, 1, 41, 0
9, 24120, Note_on_c, 1, 46, 48
9, 24239, Note_on_c, 1, 46, 0
9, 25680, Note_on_c, 1, 58, 48
9, 25799, Note_on_c, 1, 58, 0
9, 25800, Note_on_c, 1, 58, 48
9, 25919, Note_on_c, 1, 58, 0
9, 25920, Note_on_c, 1, 58, 48
9, 26279, Note_on_c, 1, 58, 0
9, 26880, Note_on_c, 1, 55, 75
9, 26999, Note_on_c, 1, 55, 0
9, 27000, Note_on_c, 1, 60, 72
9, 27059, Note_on_c, 1, 60, 0
9, 27120, Note_on_c, 1, 60, 48
9, 27239, Note_on_c, 1, 60, 0
9, 27240, Note_on_c, 1, 60, 48
9, 27359, Note_on_c, 1, 60, 0
9, 27360, Note_on_c, 1, 60, 48
9, 27719, Note_on_c, 1, 60, 0
9, 28320, Note_on_c, 1, 57, 75
9, 28439, Note_on_c, 1, 57, 0
9, 28440, Note_on_c, 1, 62, 72
9, 28499, Note_on_c, 1, 62, 0
9, 28560, Note_on_c, 1, 62, 48
9, 28679, Note_on_c, 1, 62, 0
9, 28680, Note_on_c, 1, 62, 48
9, 28799, Note_on_c, 1, 62, 0
9, 28800, Note_on_c, 1, 62, 48
9, 29159, Note_on_c, 1, 62, 0
9, 37920, Note_on_c, 1, 59, 75
9, 38159, Note_on_c, 1, 59, 0
9, 38160, Note_on_c, 1, 60, 72
9, 38279, Note_on_c, 1, 60, 0
9, 38280, Note_on_c, 1, 48, 72
9, 38399, Note_on_c, 1, 48, 0
9, 38640, Note_on_c, 1, 61, 75
9, 38879, Note_on_c, 1, 61, 0
9, 38880, Note_on_c, 1, 60, 72
9, 38999, Note_on_c, 1, 60, 0
9, 39000, Note_on_c, 1, 48, 72
9, 39119, Note_on_c, 1, 48, 0
9, 41040, Note_on_c, 1, 49, 48
9, 41159, Note_on_c, 1, 49, 0
9, 41160, Note_on_c, 1, 48, 48
9, 41279, Note_on_c, 1, 48, 0
9, 41280, Note_on_c, 1, 46, 48
9, 41399, Note_on_c, 1, 46, 0
9, 41400, Note_on_c, 1, 45, 48
9, 41519, Note_on_c, 1, 45, 0
9, 41520, Note_on_c, 1, 49, 48
9, 41639, Note_on_c, 1, 49, 0
9, 41640, Note_on_c, 1, 50, 48
9, 41759, Note_on_c, 1, 50, 0
9, 41760, Note_on_c, 1, 46, 48
9, 41879, Note_on_c, 1, 46, 0
9, 41880, Note_on_c, 1, 48, 48
9, 41999, Note_on_c, 1, 48, 0
9, 42000, Note_on_c, 1, 36, 48
9, 42119, Note_on_c, 1, 36, 0
9, 42120, Note_on_c, 1, 41, 48
9, 42239, Note_on_c, 1, 41, 0
9, 42720, Note_on_c, 1, 46, 48
9, 42899, Note_on_c, 1, 46, 0
9, 42900, Note_on_c, 1, 48, 48
9, 42959, Note_on_c, 1, 48, 0
9, 42960, Note_on_c, 1, 50, 48
9, 43019, Note_on_c, 1, 50, 0
9, 43020, Note_on_c, 1, 52, 48
9, 43079, Note_on_c, 1, 52, 0
9, 43080, Note_on_c, 1, 53, 48
9, 43139, Note_on_c, 1, 53, 0
9, 43140, Note_on_c, 1, 55, 48
9, 43199, Note_on_c, 1, 55, 0
9, 43200, Note_on_c, 1, 57, 48
9, 43259, Note_on_c, 1, 57, 0
9, 43260, Note_on_c, 1, 58, 48
9, 43319, Note_on_c, 1, 58, 0
9, 43320, Note_on_c, 1, 60, 48
9, 43439, Note_on_c, 1, 60, 0
9, 43440, Note_on_c, 1, 48, 48
9, 43559, Note_on_c, 1, 48, 0
9, 43560, Note_on_c, 1, 53, 48
9, 43679, Note_on_c, 1, 53, 0
9, 44160, Note_on_c, 1, 46, 48
9, 44339, Note_on_c, 1, 46, 0
9, 44340, Note_on_c, 1, 48, 48
9, 44399, Note_on_c, 1, 48, 0
9, 44400, Note_on_c, 1, 50, 48
9, 44459, Note_on_c, 1, 50, 0
9, 44460, Note_on_c, 1, 52, 48
9, 44519, Note_on_c, 1, 52, 0
9, 44520, Note_on_c, 1, 53, 48
9, 44579, Note_on_c, 1, 53, 0
9, 44580, Note_on_c, 1, 55, 48
9, 44639, Note_on_c, 1, 55, 0
9, 44640, Note_on_c, 1, 57, 48
9, 44699, Note_on_c, 1, 57, 0
9, 44700, Note_on_c, 1, 58, 48
9, 44759, Note_on_c, 1, 58, 0
9, 44760, Note_on_c, 1, 60, 48
9, 44879, Note_on_c, 1, 60, 0
9, 44880, Note_on_c, 1, 48, 48
9, 44999, Note_on_c, 1, 48, 0
9, 45000, Note_on_c, 1, 53, 48
9, 45119, Note_on_c, 1, 53, 0
9, 45119, End_track
10, 0, Start_track
10, 0, Title_t, "Violin I"
10, 0, Program_c, 4, 48
10, 0, Control_c, 4, 7, 96
10, 0, Control_c, 4, 10, 48
10, 0, Control_c, 4, 11, 127
10, 2220, Note_on_c, 4, 79, 48
10, 2249, Note_on_c, 4, 79, 0
10, 2250, Note_on_c, 4, 77, 48
10, 2279, Note_on_c, 4, 77, 0
10, 2280, Note_on_c, 4, 76, 48
10, 2339, Note_on_c, 4, 76, 0
10, 2340, Note_on_c, 4, 74, 48
10, 2399, Note_on_c, 4, 74, 0
10, 2400, Note_on_c, 4, 72, 48
10, 2459, Note_on_c, 4, 72, 0
10, 2460, Note_on_c, 4, 70, 48
10, 2519, Note_on_c, 4, 70, 0
10, 2520, Note_on_c, 4, 69, 48
10, 2579, Note_on_c, 4, 69, 0
10, 2580, Note_on_c, 4, 81, 48
10, 2609, Note_on_c, 4, 81, 0
10, 2610, Note_on_c, 4, 79, 48
10, 2639, Note_on_c, 4, 79, 0
10, 2640, Note_on_c, 4, 77, 48
10, 2699, Note_on_c, 4, 77, 0
10, 2700, Note_on_c, 4, 76, 48
10, 2759, Note_on_c, 4, 76, 0
10, 2760, Note_on_c, 4, 74, 48
10, 2819, Note_on_c, 4, 74, 0
10, 2820, Note_on_c, 4, 72, 48
10, 2879, Note_on_c, 4, 72, 0
10, 2880, Note_on_c, 4, 70, 48
10, 2939, Note_on_c, 4, 70, 0
10, 2940, Note_on_c, 4, 82, 48
10, 2969, Note_on_c, 4, 82, 0
10, 2970, Note_on_c, 4, 81, 48
10, 2999, Note_on_c, 4, 81, 0
10, 3000, Note_on_c, 4, 79, 48
10, 3059, Note_on_c, 4, 79, 0
10, 3060, Note_on_c, 4, 77, 48
10, 3119, Note_on_c, 4, 77, 0
10, 3120, Note_on_c, 4, 76, 48
10, 3179, Note_on_c, 4, 76, 0
10, 3180, Note_on_c, 4, 74, 48
10, 3239, Note_on_c, 4, 74, 0
10, 3240, Note_on_c, 4, 72, 48
10, 3299, Note_on_c, 4, 72, 0
10, 3300, Note_on_c, 4, 84, 48
10, 3329, Note_on_c, 4, 84, 0
10, 3330, Note_on_c, 4, 82, 48
10, 3359, Note_on_c, 4, 82, 0
10, 3360, Note_on_c, 4, 81, 48
10, 3419, Note_on_c, 4, 81, 0
10, 3420, Note_on_c, 4, 79, 48
10, 3479, Note_on_c, 4, 79, 0
10, 3480, Note_on_c, 4, 77, 48
10, 3539, Note_on_c, 4, 77, 0
10, 3540, Note_on_c, 4, 76, 48
10, 3599, Note_on_c, 4, 76, 0
10, 3600, Note_on_c, 4, 74, 48
10, 3659, Note_on_c, 4, 74, 0
10, 3660, Note_on_c, 4, 86, 48
10, 3689, Note_on_c, 4, 86, 0
10, 3690, Note_on_c, 4, 84, 48
10, 3719, Note_on_c, 4, 84, 0
10, 3720, Note_on_c, 4, 82, 48
10, 3779, Note_on_c, 4, 82, 0
10, 3780, Note_on_c, 4, 81, 48
10, 3839, Note_on_c, 4, 81, 0
10, 3840, Note_on_c, 4, 79, 48
10, 3899, Note_on_c, 4, 79, 0
10, 3900, Note_on_c, 4, 77, 48
10, 3959, Note_on_c, 4, 77, 0
10, 3960, Note_on_c, 4, 76, 48
10, 4019, Note_on_c, 4, 76, 0
10, 4020, Note_on_c, 4, 74, 48
10, 4079, Note_on_c, 4, 74, 0
10, 4080, Note_on_c, 4, 72, 48
10, 4139, Note_on_c, 4, 72, 0
10, 4140, Note_on_c, 4, 70, 48
10, 4199, Note_on_c, 4, 70, 0
10, 4200, Note_on_c, 4, 69, 48
10, 4259, Note_on_c, 4, 69, 0
10, 4260, Note_on_c, 4, 67, 48
10, 4319, Note_on_c, 4, 67, 0
10, 4320, Note_on_c, 4, 65, 48
10, 4409, Note_on_c, 4, 65, 0
10, 4410, Note_on_c, 4, 67, 48
10, 4439, Note_on_c, 4, 67, 0
10, 4440, Note_on_c, 4, 67, 48
10, 4454, Note_on_c, 4, 67, 0
10, 4455, Note_on_c, 4, 69, 48
10, 4469, Note_on_c, 4, 69, 0
10, 4470, Note_on_c, 4, 67, 48
10, 4484, Note_on_c, 4, 67, 0
10, 4485, Note_on_c, 4, 69, 48
10, 4499, Note_on_c, 4, 69, 0
10, 4500, Note_on_c, 4, 67, 48
10, 4514, Note_on_c, 4, 67, 0
10, 4515, Note_on_c, 4, 69, 48
10, 4529, Note_on_c, 4, 69, 0
10, 4530, Note_on_c, 4, 67, 48
10, 4544, Note_on_c, 4, 67, 0
10, 4545, Note_on_c, 4, 69, 48
10, 4559, Note_on_c, 4, 69, 0
10, 4560, Note_on_c, 4, 67, 48
10, 4574, Note_on_c, 4, 67, 0
10, 4575, Note_on_c, 4, 69, 48
10, 4589, Note_on_c, 4, 69, 0
10, 4590, Note_on_c, 4, 67, 48
10, 4604, Note_on_c, 4, 67, 0
10, 4605, Note_on_c, 4, 69, 48
10, 4619, Note_on_c, 4, 69, 0
10, 4620, Note_on_c, 4, 67, 48
10, 4634, Note_on_c, 4, 67, 0
10, 4635, Note_on_c, 4, 69, 48
10, 4649, Note_on_c, 4, 69, 0
10, 4650, Note_on_c, 4, 65, 48
10, 4664, Note_on_c, 4, 65, 0
10, 4665, Note_on_c, 4, 67, 48
10, 4679, Note_on_c, 4, 67, 0
10, 4680, Note_on_c, 4, 65, 48
10, 4799, Note_on_c, 4, 65, 0
10, 6840, Note_on_c, 4, 72, 48
10, 7319, Note_on_c, 4, 72, 0
10, 7320, Note_on_c, 4, 71, 48
10, 7439, Note_on_c, 4, 71, 0
10, 7440, Note_on_c, 4, 77, 48
10, 7559, Note_on_c, 4, 77, 0
10, 7560, Note_on_c, 4, 76, 48
10, 8039, Note_on_c, 4, 76, 0
10, 8040, Note_on_c, 4, 74, 48
10, 8159, Note_on_c, 4, 74, 0
10, 8160, Note_on_c, 4, 81, 48
10, 8279, Note_on_c, 4, 81, 0
10, 8280, Note_on_c, 4, 79, 48
10, 8519, Note_on_c, 4, 79, 0
10, 8520, Note_on_c, 4, 77, 48
10, 8759, Note_on_c, 4, 77, 0
10, 8760, Note_on_c, 4, 77, 48
10, 8909, Note_on_c, 4, 77, 0
10, 8910, Note_on_c, 4, 76, 48
10, 8939, Note_on_c, 4, 76, 0
10, 8940, Note_on_c, 4, 74, 48
10, 8969, Note_on_c, 4, 74, 0
10, 8970, Note_on_c, 4, 76, 48
10, 8999, Note_on_c, 4, 76, 0
10, 9000, Note_on_c, 4, 74, 48
10, 9119, Note_on_c, 4, 74, 0
10, 9480, Note_on_c, 4, 74, 48
10, 9599, Note_on_c, 4, 74, 0
10, 9600, Note_on_c, 4, 74, 48
10, 9719, Note_on_c, 4, 74, 0
10, 9720, Note_on_c, 4, 74, 48
10, 9899, Note_on_c, 4, 74, 0
10, 9900, Note_on_c, 4, 77, 48
10, 9929, Note_on_c, 4, 77, 0
10, 9930, Note_on_c, 4, 75, 48
10, 9959, Note_on_c, 4, 75, 0
10, 9960, Note_on_c, 4, 74, 48
10, 10079, Note_on_c, 4, 74, 0
10, 10200, Note_on_c, 4, 74, 48
10, 10319, Note_on_c, 4, 74, 0
10, 10320, Note_on_c, 4, 74, 48
10, 10439, Note_on_c, 4, 74, 0
10, 10440, Note_on_c, 4, 74, 48
10, 10619, Note_on_c, 4, 74, 0
10, 10620, Note_on_c, 4, 77, 48
10, 10649, Note_on_c, 4, 77, 0
10, 10650, Note_on_c, 4, 75, 48
10, 10679, Note_on_c, 4, 75, 0
10, 10680, Note_on_c, 4, 74, 48
10, 10799, Note_on_c, 4, 74, 0
10, 10920, Note_on_c, 4, 74, 48
10, 11039, Note_on_c, 4, 74, 0
10, 11040, Note_on_c, 4, 74, 48
10, 11159, Note_on_c, 4, 74, 0
10, 11160, Note_on_c, 4, 79, 48
10, 11189, Note_on_c, 4, 79, 0
10, 11220, Note_on_c, 4, 79, 48
10, 11249, Note_on_c, 4, 79, 0
10, 11280, Note_on_c, 4, 71, 48
10, 11309, Note_on_c, 4, 71, 0
10, 11340, Note_on_c, 4, 71, 48
10, 11369, Note_on_c, 4, 71, 0
10, 11400, Note_on_c, 4, 72, 48
10, 11429, Note_on_c, 4, 72, 0
10, 11460, Note_on_c, 4, 72, 48
10, 11489, Note_on_c, 4, 72, 0
10, 11520, Note_on_c, 4, 72, 48
10, 11579, Note_on_c, 4, 72, 0
10, 11580, Note_on_c, 4, 76, 48
10, 11609, Note_on_c, 4, 76, 0
10, 11610, Note_on_c, 4, 74, 48
10, 11639, Note_on_c, 4, 74, 0
10, 11640, Note_on_c, 4, 72, 48
10, 11699, Note_on_c, 4, 72, 0
10, 11700, Note_on_c, 4, 72, 48
10, 11759, Note_on_c, 4, 72, 0
10, 11760, Note_on_c, 4, 71, 48
10, 11819, Note_on_c, 4, 71, 0
10, 11820, Note_on_c, 4, 71, 48
10, 11879, Note_on_c, 4, 71, 0
10, 11880, Note_on_c, 4, 72, 48
10, 11939, Note_on_c, 4, 72, 0
10, 11940, Note_on_c, 4, 79, 66
10, 11969, Note_on_c, 4, 79, 0
10, 11970, Note_on_c, 4, 77, 66
10, 11999, Note_on_c, 4, 77, 0
10, 12000, Note_on_c, 4, 76, 66
10, 12059, Note_on_c, 4, 76, 0
10, 12060, Note_on_c, 4, 74, 66
10, 12119, Note_on_c, 4, 74, 0
10, 12120, Note_on_c, 4, 72, 66
10, 12179, Note_on_c, 4, 72, 0
10, 12180, Note_on_c, 4, 71, 66
10, 12239, Note_on_c, 4, 71, 0
10, 12240, Note_on_c, 4, 69, 66
10, 12359, Note_on_c, 4, 69, 0
10, 12360, Note_on_c, 4, 81, 66
10, 12659, Note_on_c, 4, 81, 0
10, 12660, Note_on_c, 4, 79, 66
10, 12689, Note_on_c, 4, 79, 0
10, 12690, Note_on_c, 4, 77, 66
10, 12719, Note_on_c, 4, 77, 0
10, 12720, Note_on_c, 4, 76, 66
10, 12779, Note_on_c, 4, 76, 0
10, 12780, Note_on_c, 4, 74, 66
10, 12839, Note_on_c, 4, 74, 0
10, 12840, Note_on_c, 4, 72, 66
10, 12899, Note_on_c, 4, 72, 0
10, 12900, Note_on_c, 4, 71, 66
10, 12959, Note_on_c, 4, 71, 0
10, 12960, Note_on_c, 4, 72, 66
10, 13049, Note_on_c, 4, 72, 0
10, 13050, Note_on_c, 4, 74, 66
10, 13079, Note_on_c, 4, 74, 0
10, 13080, Note_on_c, 4, 74, 66
10, 13094, Note_on_c, 4, 74, 0
10, 13095, Note_on_c, 4, 76, 66
10, 13109, Note_on_c, 4, 76, 0
10, 13110, Note_on_c, 4, 74, 66
10, 13124, Note_on_c, 4, 74, 0
10, 13125, Note_on_c, 4, 76, 66
10, 13139, Note_on_c, 4, 76, 0
10, 13140, Note_on_c, 4, 74, 66
10, 13154, Note_on_c, 4, 74, 0
10, 13155, Note_on_c, 4, 76, 66
10, 13169, Note_on_c, 4, 76, 0
10, 13170, Note_on_c, 4, 74, 66
10, 13184, Note_on_c, 4, 74, 0
10, 13185, Note_on_c, 4, 76, 66
10, 13199, Note_on_c, 4, 76, 0
10, 13200, Note_on_c, 4, 74, 66
10, 13214, Note_on_c, 4, 74, 0
10, 13215, Note_on_c, 4, 76, 66
10, 13229, Note_on_c, 4, 76, 0
10, 13230, Note_on_c, 4, 74, 66
10, 13244, Note_on_c, 4, 74, 0
10, 13245, Note_on_c, 4, 76, 66
10, 13259, Note_on_c, 4, 76, 0
10, 13260, Note_on_c, 4, 72, 66
10, 13289, Note_on_c, 4, 72, 0
10, 13290, Note_on_c, 4, 74, 66
10, 13319, Note_on_c, 4, 74, 0
10, 13320, Note_on_c, 4, 72, 66
10, 13379, Note_on_c, 4, 72, 0
10, 13380, Note_on_c, 4, 72, 48
10, 13439, Note_on_c, 4, 72, 0
10, 13440, Note_on_c, 4, 72, 48
10, 13499, Note_on_c, 4, 72, 0
10, 13500, Note_on_c, 4, 72, 48
10, 13559, Note_on_c, 4, 72, 0
10, 13560, Note_on_c, 4, 72, 48
10, 13619, Note_on_c, 4, 72, 0
10, 13620, Note_on_c, 4, 72, 48
10, 13679, Note_on_c, 4, 72, 0
10, 13680, Note_on_c, 4, 71, 48
10, 13739, Note_on_c, 4, 71, 0
10, 13740, Note_on_c, 4, 74, 48
10, 13799, Note_on_c, 4, 74, 0
10, 13800, Note_on_c, 4, 74, 48
10, 13829, Note_on_c, 4, 74, 0
10, 13860, Note_on_c, 4, 74, 48
10, 13889, Note_on_c, 4, 74, 0
10, 13920, Note_on_c, 4, 74, 48
10, 13949, Note_on_c, 4, 74, 0
10, 13980, Note_on_c, 4, 74, 48
10, 14009, Note_on_c, 4, 74, 0
10, 14040, Note_on_c, 4, 72, 48
10, 14099, Note_on_c, 4, 72, 0
10, 14100, Note_on_c, 4, 75, 48
10, 14159, Note_on_c, 4, 75, 0
10, 14160, Note_on_c, 4, 75, 48
10, 14189, Note_on_c, 4, 75, 0
10, 14220, Note_on_c, 4, 75, 48
10, 14249, Note_on_c, 4, 75, 0
10, 14280, Note_on_c, 4, 74, 48
10, 14309, Note_on_c, 4, 74, 0
10, 14340, Note_on_c, 4, 72, 48
10, 14369, Note_on_c, 4, 72, 0
10, 14400, Note_on_c, 4, 72, 48
10, 14459, Note_on_c, 4, 72, 0
10, 14460, Note_on_c, 4, 72, 48
10, 14519, Note_on_c, 4, 72, 0
10, 14520, Note_on_c, 4, 71, 48
10, 14579, Note_on_c, 4, 71, 0
10, 14580, Note_on_c, 4, 71, 48
10, 14639, Note_on_c, 4, 71, 0
10, 14640, Note_on_c, 4, 73, 48
10, 14699, Note_on_c, 4, 73, 0
10, 14700, Note_on_c, 4, 73, 48
10, 14759, Note_on_c, 4, 73, 0
10, 14760, Note_on_c, 4, 74, 48
10, 14819, Note_on_c, 4, 74, 0
10, 14820, Note_on_c, 4, 74, 48
10, 14879, Note_on_c, 4, 74, 0
10, 14880, Note_on_c, 4, 74, 48
10, 14939, Note_on_c, 4, 74, 0
10, 14940, Note_on_c, 4, 74, 48
10, 14999, Note_on_c, 4, 74, 0
10, 15000, Note_on_c, 4, 74, 48
10, 15059, Note_on_c, 4, 74, 0
10, 15060, Note_on_c, 4, 74, 48
10, 15119, Note_on_c, 4, 74, 0
10, 15120, Note_on_c, 4, 73, 48
10, 15179, Note_on_c, 4, 73, 0
10, 15180, Note_on_c, 4, 76, 48
10, 15239, Note_on_c, 4, 76, 0
10, 15240, Note_on_c, 4, 76, 48
10, 15299, Note_on_c, 4, 76, 0
10, 15300, Note_on_c, 4, 76, 48
10, 15359, Note_on_c, 4, 76, 0
10, 15360, Note_on_c, 4, 76, 48
10, 15419, Note_on_c, 4, 76, 0
10, 15420, Note_on_c, 4, 76, 48
10, 15479, Note_on_c, 4, 76, 0
10, 15480, Note_on_c, 4, 74, 48
10, 15539, Note_on_c, 4, 74, 0
10, 15540, Note_on_c, 4, 77, 48
10, 15599, Note_on_c, 4, 77, 0
10, 15600, Note_on_c, 4, 77, 48
10, 15629, Note_on_c, 4, 77, 0
10, 15660, Note_on_c, 4, 77, 48
10, 15719, Note_on_c, 4, 77, 0
10, 15720, Note_on_c, 4, 76, 48
10, 15779, Note_on_c, 4, 76, 0
10, 15780, Note_on_c, 4, 74, 48
10, 15839, Note_on_c, 4, 74, 0
10, 15840, Note_on_c, 4, 74, 48
10, 15899, Note_on_c, 4, 74, 0
10, 15900, Note_on_c, 4, 76, 48
10, 15929, Note_on_c, 4, 76, 0
10, 15930, Note_on_c, 4, 74, 48
10, 15959, Note_on_c, 4, 74, 0
10, 15960, Note_on_c, 4, 73, 48
10, 16079, Note_on_c, 4, 73, 0
10, 16200, Note_on_c, 4, 74, 48
10, 16259, Note_on_c, 4, 74, 0
10, 16260, Note_on_c, 4, 78, 48
10, 16319, Note_on_c, 4, 78, 0
10, 16320, Note_on_c, 4, 79, 48
10, 16349, Note_on_c, 4, 79, 0
10, 16380, Note_on_c, 4, 70, 48
10, 16409, Note_on_c, 4, 70, 0
10, 16440, Note_on_c, 4, 70, 48
10, 16454, Note_on_c, 4, 70, 0
10, 16455, Note_on_c, 4, 72, 48
10, 16469, Note_on_c, 4, 72, 0
10, 16470, Note_on_c, 4, 70, 48
10, 16484, Note_on_c, 4, 70, 0
10, 16485, Note_on_c, 4, 72, 48
10, 16499, Note_on_c, 4, 72, 0
10, 16500, Note_on_c, 4, 70, 48
10, 16514, Note_on_c, 4, 70, 0
10, 16515, Note_on_c, 4, 72, 48
10, 16529, Note_on_c, 4, 72, 0
10, 16530, Note_on_c, 4, 69, 48
10, 16544, Note_on_c, 4, 69, 0
10, 16545, Note_on_c, 4, 70, 48
10, 16559, Note_on_c, 4, 70, 0
10, 16560, Note_on_c, 4, 72, 48
10, 16619, Note_on_c, 4, 72, 0
10, 16620, Note_on_c, 4, 76, 48
10, 16679, Note_on_c, 4, 76, 0
10, 16680, Note_on_c, 4, 77, 48
10, 16709, Note_on_c, 4, 77, 0
10, 16740, Note_on_c, 4, 69, 48
10, 16769, Note_on_c, 4, 69, 0
10, 16800, Note_on_c, 4, 69, 48
10, 16814, Note_on_c, 4, 69, 0
10, 16815, Note_on_c, 4, 70, 48
10, 16829, Note_on_c, 4, 70, 0
10, 16830, Note_on_c, 4, 69, 48
10, 16844, Note_on_c, 4, 69, 0
10, 16845, Note_on_c, 4, 70, 48
10, 16859, Note_on_c, 4, 70, 0
10, 16860, Note_on_c, 4, 69, 48
10, 16874, Note_on_c, 4, 69, 0
10, 16875, Note_on_c, 4, 70, 48
10, 16889, Note_on_c, 4, 70, 0
10, 16890, Note_on_c, 4, 67, 48
10, 16904, Note_on_c, 4, 67, 0
10, 16905, Note_on_c, 4, 69, 48
10, 16919, Note_on_c, 4, 69, 0
10, 16920, Note_on_c, 4, 70, 48
10, 16979, Note_on_c, 4, 70, 0
10, 16980, Note_on_c, 4, 74, 48
10, 17039, Note_on_c, 4, 74, 0
10, 17040, Note_on_c, 4, 76, 48
10, 17069, Note_on_c, 4, 76, 0
10, 17100, Note_on_c, 4, 67, 48
10, 17129, Note_on_c, 4, 67, 0
10, 17160, Note_on_c, 4, 67, 48
10, 17174, Note_on_c, 4, 67, 0
10, 17175, Note_on_c, 4, 69, 48
10, 17189, Note_on_c, 4, 69, 0
10, 17190, Note_on_c, 4, 67, 48
10, 17204, Note_on_c, 4, 67, 0
10, 17205, Note_on_c, 4, 69, 48
10, 17219, Note_on_c, 4, 69, 0
10, 17220, Note_on_c, 4, 67, 48
10, 17234, Note_on_c, 4, 67, 0
10, 17235, Note_on_c, 4, 69, 48
10, 17249, Note_on_c, 4, 69, 0
10, 17250, Note_on_c, 4, 65, 48
10, 17264, Note_on_c, 4, 65, 0
10, 17265, Note_on_c, 4, 67, 48
10, 17279, Note_on_c, 4, 67, 0
10, 17280, Note_on_c, 4, 69, 48
10, 17339, Note_on_c, 4, 69, 0
10, 17340, Note_on_c, 4, 73, 48
10, 17399, Note_on_c, 4, 73, 0
10, 17400, Note_on_c, 4, 74, 48
10, 17429, Note_on_c, 4, 74, 0
10, 17460, Note_on_c, 4, 65, 48
10, 17489, Note_on_c, 4, 65, 0
10, 17520, Note_on_c, 4, 65, 48
10, 17534, Note_on_c, 4, 65, 0
10, 17535, Note_on_c, 4, 67, 48
10, 17549, Note_on_c, 4, 67, 0
10, 17550, Note_on_c, 4, 65, 48
10, 17564, Note_on_c, 4, 65, 0
10, 17565, Note_on_c, 4, 67, 48
10, 17579, Note_on_c, 4, 67, 0
10, 17580, Note_on_c, 4, 65, 48
10, 17594, Note_on_c, 4, 65, 0
10, 17595, Note_on_c, 4, 67, 48
10, 17609, Note_on_c, 4, 67, 0
10, 17610, Note_on_c, 4, 64, 48
10, 17624, Note_on_c, 4, 64, 0
10, 17625, Note_on_c, 4, 65, 48
10, 17639, Note_on_c, 4, 65, 0
10, 17640, Note_on_c, 4, 77, 48
10, 17819, Note_on_c, 4, 77, 0
10, 17820, Note_on_c, 4, 73, 48
10, 17849, Note_on_c, 4, 73, 0
10, 17880, Note_on_c, 4, 74, 48
10, 17909, Note_on_c, 4, 74, 0
10, 17940, Note_on_c, 4, 73, 48
10, 17969, Note_on_c, 4, 73, 0
10, 18000, Note_on_c, 4, 74, 48
10, 18059, Note_on_c, 4, 74, 0
10, 18060, Note_on_c, 4, 76, 48
10, 18119, Note_on_c, 4, 76, 0
10, 18120, Note_on_c, 4, 74, 48
10, 18179, Note_on_c, 4, 74, 0
10, 18180, Note_on_c, 4, 74, 48
10, 18239, Note_on_c, 4, 74, 0
10, 18240, Note_on_c, 4, 73, 48
10, 18299, Note_on_c, 4, 73, 0
10, 18300, Note_on_c, 4, 73, 48
10, 18359, Note_on_c, 4, 73, 0
10, 18360, Note_on_c, 4, 74, 48
10, 18719, Note_on_c, 4, 74, 0
10, 18720, Note_on_c, 4, 75, 48
10, 18959, Note_on_c, 4, 75, 0
10, 18960, Note_on_c, 4, 69, 48
10, 19079, Note_on_c, 4, 69, 0
10, 19080, Note_on_c, 4, 70, 48
10, 19559, Note_on_c, 4, 70, 0
10, 19560, Note_on_c, 4, 69, 48
10, 19679, Note_on_c, 4, 69, 0
10, 19680, Note_on_c, 4, 75, 48
10, 19799, Note_on_c, 4, 75, 0
10, 19800, Note_on_c, 4, 74, 48
10, 20279, Note_on_c, 4, 74, 0
10, 20280, Note_on_c, 4, 72, 48
10, 20399, Note_on_c, 4, 72, 0
10, 20400, Note_on_c, 4, 79, 48
10, 20519, Note_on_c, 4, 79, 0
10, 20520, Note_on_c, 4, 77, 48
10, 20759, Note_on_c, 4, 77, 0
10, 20760, Note_on_c, 4, 75, 48
10, 20939, Note_on_c, 4, 75, 0
10, 20940, Note_on_c, 4, 77, 48
10, 20999, Note_on_c, 4, 77, 0
10, 21000, Note_on_c, 4, 75, 48
10, 21149, Note_on_c, 4, 75, 0
10, 21150, Note_on_c, 4, 74, 48
10, 21179, Note_on_c, 4, 74, 0
10, 21180, Note_on_c, 4, 72, 48
10, 21209, Note_on_c, 4, 72, 0
10, 21210, Note_on_c, 4, 74, 48
10, 21239, Note_on_c, 4, 74, 0
10, 21240, Note_on_c, 4, 72, 48
10, 21359, Note_on_c, 4, 72, 0
10, 21720, Note_on_c, 4, 72, 48
10, 21839, Note_on_c, 4, 72, 0
10, 21840, Note_on_c, 4, 72, 48
10, 21959, Note_on_c, 4, 72, 0
10, 21960, Note_on_c, 4, 72, 48
10, 22139, Note_on_c, 4, 72, 0
10, 22140, Note_on_c, 4, 75, 48
10, 22169, Note_on_c, 4, 75, 0
10, 22170, Note_on_c, 4, 73, 48
10, 22199, Note_on_c, 4, 73, 0
10, 22200, Note_on_c, 4, 72, 48
10, 22319, Note_on_c, 4, 72, 0
10, 22440, Note_on_c, 4, 72, 48
10, 22559, Note_on_c, 4, 72, 0
10, 22560, Note_on_c, 4, 72, 48
10, 22679, Note_on_c, 4, 72, 0
10, 22680, Note_on_c, 4, 72, 48
10, 22859, Note_on_c, 4, 72, 0
10, 22860, Note_on_c, 4, 75, 48
10, 22889, Note_on_c, 4, 75, 0
10, 22890, Note_on_c, 4, 73, 48
10, 22919, Note_on_c, 4, 73, 0
10, 22920, Note_on_c, 4, 72, 48
10, 23039, Note_on_c, 4, 72, 0
10, 23160, Note_on_c, 4, 72, 48
10, 23279, Note_on_c, 4, 72, 0
10, 23280, Note_on_c, 4, 72, 48
10, 23399, Note_on_c, 4, 72, 0
10, 23400, Note_on_c, 4, 77, 48
10, 23459, Note_on_c, 4, 77, 0
10, 23460, Note_on_c, 4, 77, 48
10, 23519, Note_on_c, 4, 77, 0
10, 23520, Note_on_c, 4, 69, 48
10, 23579, Note_on_c, 4, 69, 0
10, 23580, Note_on_c, 4, 69, 48
10, 23639, Note_on_c, 4, 69, 0
10, 23640, Note_on_c, 4, 70, 48
10, 23699, Note_on_c, 4, 70, 0
10, 23700, Note_on_c, 4, 70, 48
10, 23759, Note_on_c, 4, 70, 0
10, 23760, Note_on_c, 4, 70, 48
10, 23819, Note_on_c, 4, 70, 0
10, 23820, Note_on_c, 4, 74, 48
10, 23849, Note_on_c, 4, 74, 0
10, 23850, Note_on_c, 4, 72, 48
10, 23879, Note_on_c, 4, 72, 0
10, 23880, Note_on_c, 4, 70, 48
10, 23909, Note_on_c, 4, 70, 0
10, 23940, Note_on_c, 4, 70, 48
10, 23969, Note_on_c, 4, 70, 0
10, 24000, Note_on_c, 4, 69, 48
10, 24029, Note_on_c, 4, 69, 0
10, 24060, Note_on_c, 4, 69, 48
10, 24089, Note_on_c, 4, 69, 0
10, 24120, Note_on_c, 4, 70, 48
10, 24179, Note_on_c, 4, 70, 0
10, 24180, Note_on_c, 4, 77, 66
10, 24209, Note_on_c, 4, 77, 0
10, 24210, Note_on_c, 4, 75, 66
10, 24239, Note_on_c, 4, 75, 0
10, 24240, Note_on_c, 4, 74, 66
10, 24299, Note_on_c, 4, 74, 0
10, 24300, Note_on_c, 4, 72, 66
10, 24359, Note_on_c, 4, 72, 0
10, 24360, Note_on_c, 4, 70, 66
10, 24419, Note_on_c, 4, 70, 0
10, 24420, Note_on_c, 4, 69, 66
10, 24479, Note_on_c, 4, 69, 0
10, 24480, Note_on_c, 4, 67, 66
10, 24599, Note_on_c, 4, 67, 0
10, 24600, Note_on_c, 4, 79, 66
10, 24899, Note_on_c, 4, 79, 0
10, 24900, Note_on_c, 4, 77, 66
10, 24929, Note_on_c, 4, 77, 0
10, 24930, Note_on_c, 4, 75, 66
10, 24959, Note_on_c, 4, 75, 0
10, 24960, Note_on_c, 4, 74, 66
10, 25019, Note_on_c, 4, 74, 0
10, 25020, Note_on_c, 4, 72, 66
10, 25079, Note_on_c, 4, 72, 0
10, 25080, Note_on_c, 4, 70, 66
10, 25139, Note_on_c, 4, 70, 0
10, 25140, Note_on_c, 4, 69, 66
10, 25199, Note_on_c, 4, 69, 0
10, 25200, Note_on_c, 4, 70, 66
10, 25289, Note_on_c, 4, 70, 0
10, 25290, Note_on_c, 4, 72, 66
10, 25319, Note_on_c, 4, 72, 0
10, 25320, Note_on_c, 4, 72, 66
10, 25334, Note_on_c, 4, 72, 0
10, 25335, Note_on_c, 4, 74, 66
10, 25349, Note_on_c, 4, 74, 0
10, 25350, Note_on_c, 4, 72, 66
10, 25364, Note_on_c, 4, 72, 0
10, 25365, Note_on_c, 4, 74, 66
10, 25379, Note_on_c, 4, 74, 0
10, 25380, Note_on_c, 4, 72, 66
10, 25394, Note_on_c, 4, 72, 0
10, 25395, Note_on_c, 4, 74, 66
10, 25409, Note_on_c, 4, 74, 0
10, 25410, Note_on_c, 4, 72, 66
10, 25424, Note_on_c, 4, 72, 0
10, 25425, Note_on_c, 4, 74, 66
10, 25439, Note_on_c, 4, 74, 0
10, 25440, Note_on_c, 4, 72, 66
10, 25454, Note_on_c, 4, 72, 0
10, 25455, Note_on_c, 4, 74, 66
10, 25469, Note_on_c, 4, 74, 0
10, 25470, Note_on_c, 4, 72, 66
10, 25484, Note_on_c, 4, 72, 0
10, 25485, Note_on_c, 4, 74, 66
10, 25499, Note_on_c, 4, 74, 0
10, 25500, Note_on_c, 4, 70, 66
10, 25529, Note_on_c, 4, 70, 0
10, 25530, Note_on_c, 4, 72, 66
10, 25559, Note_on_c, 4, 72, 0
10, 25560, Note_on_c, 4, 70, 66
10, 25619, Note_on_c, 4, 70, 0
10, 25620, Note_on_c, 4, 74, 36
10, 25679, Note_on_c, 4, 74, 0
10, 25740, Note_on_c, 4, 74, 48
10, 25799, Note_on_c, 4, 74, 0
10, 25860, Note_on_c, 4, 74, 48
10, 25919, Note_on_c, 4, 74, 0
10, 25980, Note_on_c, 4, 75, 48
10, 26039, Note_on_c, 4, 75, 0
10, 26100, Note_on_c, 4, 75, 48
10, 26159, Note_on_c, 4, 75, 0
10, 26220, Note_on_c, 4, 75, 48
10, 26279, Note_on_c, 4, 75, 0
10, 26340, Note_on_c, 4, 63, 48
10, 26399, Note_on_c, 4, 63, 0
10, 26460, Note_on_c, 4, 63, 48
10, 26519, Note_on_c, 4, 63, 0
10, 26580, Note_on_c, 4, 63, 48
10, 26639, Note_on_c, 4, 63, 0
10, 26700, Note_on_c, 4, 63, 48
10, 26759, Note_on_c, 4, 63, 0
10, 26820, Note_on_c, 4, 62, 48
10, 26879, Note_on_c, 4, 62, 0
10, 26940, Note_on_c, 4, 62, 72
10, 26999, Note_on_c, 4, 62, 0
10, 27060, Note_on_c, 4, 63, 72
10, 27119, Note_on_c, 4, 63, 0
10, 27180, Note_on_c, 4, 75, 48
10, 27239, Note_on_c, 4, 75, 0
10, 27300, Note_on_c, 4, 75, 48
10, 27359, Note_on_c, 4, 75, 0
10, 27420, Note_on_c, 4, 77, 48
10, 27479, Note_on_c, 4, 77, 0
10, 27540, Note_on_c, 4, 77, 48
10, 27599, Note_on_c, 4, 77, 0
10, 27660, Note_on_c, 4, 77, 48
10, 27719, Note_on_c, 4, 77, 0
10, 27780, Note_on_c, 4, 65, 48
10, 27839, Note_on_c, 4, 65, 0
10, 27900, Note_on_c, 4, 65, 48
10, 27959, Note_on_c, 4, 65, 0
10, 28020, Note_on_c, 4, 65, 48
10, 28079, Note_on_c, 4, 65, 0
10, 28140, Note_on_c, 4, 65, 48
10, 28199, Note_on_c, 4, 65, 0
10, 28260, Note_on_c, 4, 63, 48
10, 28319, Note_on_c, 4, 63, 0
10, 28380, Note_on_c, 4, 64, 72
10, 28439, Note_on_c, 4, 64, 0
10, 28500, Note_on_c, 4, 65, 72
10, 28559, Note_on_c, 4, 65, 0
10, 28620, Note_on_c, 4, 77, 48
10, 28679, Note_on_c, 4, 77, 0
10, 28740, Note_on_c, 4, 77, 48
10, 28799, Note_on_c, 4, 77, 0
10, 28860, Note_on_c, 4, 79, 48
10, 28919, Note_on_c, 4, 79, 0
10, 28980, Note_on_c, 4, 79, 48
10, 29039, Note_on_c, 4, 79, 0
10, 29100, Note_on_c, 4, 79, 48
10, 29159, Note_on_c, 4, 79, 0
10, 29220, Note_on_c, 4, 67, 48
10, 29279, Note_on_c, 4, 67, 0
10, 29340, Note_on_c, 4, 67, 48
10, 29399, Note_on_c, 4, 67, 0
10, 29460, Note_on_c, 4, 67, 48
10, 29519, Note_on_c, 4, 67, 0
10, 29580, Note_on_c, 4, 67, 48
10, 29639, Note_on_c, 4, 67, 0
10, 29700, Note_on_c, 4, 65, 48
10, 29759, Note_on_c, 4, 65, 0
10, 29760, Note_on_c, 4, 77, 48
10, 29819, Note_on_c, 4, 77, 0
10, 29820, Note_on_c, 4, 76, 48
10, 29879, Note_on_c, 4, 76, 0
10, 29880, Note_on_c, 4, 74, 48
10, 30059, Note_on_c, 4, 74, 0
10, 30060, Note_on_c, 4, 72, 48
10, 30119, Note_on_c, 4, 72, 0
10, 30120, Note_on_c, 4, 70, 48
10, 30179, Note_on_c, 4, 70, 0
10, 30180, Note_on_c, 4, 69, 48
10, 30239, Note_on_c, 4, 69, 0
10, 30240, Note_on_c, 4, 68, 48
10, 30299, Note_on_c, 4, 68, 0
10, 30360, Note_on_c, 4, 69, 48
10, 30419, Note_on_c, 4, 69, 0
10, 30480, Note_on_c, 4, 76, 48
10, 30539, Note_on_c, 4, 76, 0
10, 30540, Note_on_c, 4, 74, 48
10, 30599, Note_on_c, 4, 74, 0
10, 30600, Note_on_c, 4, 72, 48
10, 30779, Note_on_c, 4, 72, 0
10, 30780, Note_on_c, 4, 70, 48
10, 30839, Note_on_c, 4, 70, 0
10, 30840, Note_on_c, 4, 69, 48
10, 30899, Note_on_c, 4, 69, 0
10, 30900, Note_on_c, 4, 67, 48
10, 30959, Note_on_c, 4, 67, 0
10, 30960, Note_on_c, 4, 66, 48
10, 31019, Note_on_c, 4, 66, 0
10, 31080, Note_on_c, 4, 67, 48
10, 31139, Note_on_c, 4, 67, 0
10, 31200, Note_on_c, 4, 74, 48
10, 31259, Note_on_c, 4, 74, 0
10, 31260, Note_on_c, 4, 72, 48
10, 31319, Note_on_c, 4, 72, 0
10, 31320, Note_on_c, 4, 70, 48
10, 31499, Note_on_c, 4, 70, 0
10, 31500, Note_on_c, 4, 69, 48
10, 31559, Note_on_c, 4, 69, 0
10, 31560, Note_on_c, 4, 70, 48
10, 31619, Note_on_c, 4, 70, 0
10, 31620, Note_on_c, 4, 70, 48
10, 31679, Note_on_c, 4, 70, 0
10, 31680, Note_on_c, 4, 72, 48
10, 31739, Note_on_c, 4, 72, 0
10, 31740, Note_on_c, 4, 70, 48
10, 31799, Note_on_c, 4, 70, 0
10, 31800, Note_on_c, 4, 70, 48
10, 31919, Note_on_c, 4, 70, 0
10, 31920, Note_on_c, 4, 70, 48
10, 31949, Note_on_c, 4, 70, 0
10, 31980, Note_on_c, 4, 70, 48
10, 32009, Note_on_c, 4, 70, 0
10, 32040, Note_on_c, 4, 70, 48
10, 32159, Note_on_c, 4, 70, 0
10, 32160, Note_on_c, 4, 76, 48
10, 32279, Note_on_c, 4, 76, 0
10, 32280, Note_on_c, 4, 77, 48
10, 32399, Note_on_c, 4, 77, 0
10, 32400, Note_on_c, 4, 77, 72
10, 32459, Note_on_c, 4, 77, 0
10, 32460, Note_on_c, 4, 77, 48
10, 32519, Note_on_c, 4, 77, 0
10, 32520, Note_on_c, 4, 77, 48
10, 32579, Note_on_c, 4, 77, 0
10, 32580, Note_on_c, 4, 77, 48
10, 32639, Note_on_c, 4, 77, 0
10, 32640, Note_on_c, 4, 71, 48
10, 32699, Note_on_c, 4, 71, 0
10, 32700, Note_on_c, 4, 71, 48
10, 32759, Note_on_c, 4, 71, 0
10, 32760, Note_on_c, 4, 72, 48
10, 32879, Note_on_c, 4, 72, 0
10, 35640, Note_on_c, 4, 74, 48
10, 36059, Note_on_c, 4, 74, 0
10, 36060, Note_on_c, 4, 76, 48
10, 36089, Note_on_c, 4, 76, 0
10, 36090, Note_on_c, 4, 74, 48
10, 36119, Note_on_c, 4, 74, 0
10, 36120, Note_on_c, 4, 72, 48
10, 36179, Note_on_c, 4, 72, 0
10, 36180, Note_on_c, 4, 71, 48
10, 36239, Note_on_c, 4, 71, 0
10, 36240, Note_on_c, 4, 69, 48
10, 36299, Note_on_c, 4, 69, 0
10, 36300, Note_on_c, 4, 67, 48
10, 36359, Note_on_c, 4, 67, 0
10, 36360, Note_on_c, 4, 65, 48
10, 36419, Note_on_c, 4, 65, 0
10, 36420, Note_on_c, 4, 77, 48
10, 36449, Note_on_c, 4, 77, 0
10, 36450, Note_on_c, 4, 76, 48
10, 36479, Note_on_c, 4, 76, 0
10, 36480, Note_on_c, 4, 74, 48
10, 36539, Note_on_c, 4, 74, 0
10, 36540, Note_on_c, 4, 72, 48
10, 36599, Note_on_c, 4, 72, 0
10, 36600, Note_on_c, 4, 71, 48
10, 36659, Note_on_c, 4, 71, 0
10, 36660, Note_on_c, 4, 69, 48
10, 36719, Note_on_c, 4, 69, 0
10, 36720, Note_on_c, 4, 67, 48
10, 36779, Note_on_c, 4, 67, 0
10, 36780, Note_on_c, 4, 79, 48
10, 36809, Note_on_c, 4, 79, 0
10, 36810, Note_on_c, 4, 77, 48
10, 36839, Note_on_c, 4, 77, 0
10, 36840, Note_on_c, 4, 76, 48
10, 36899, Note_on_c, 4, 76, 0
10, 36900, Note_on_c, 4, 74, 48
10, 36959, Note_on_c, 4, 74, 0
10, 36960, Note_on_c, 4, 72, 48
10, 37019, Note_on_c, 4, 72, 0
10, 37020, Note_on_c, 4, 74, 48
10, 37049, Note_on_c, 4, 74, 0
10, 37050, Note_on_c, 4, 76, 48
10, 37079, Note_on_c, 4, 76, 0
10, 37080, Note_on_c, 4, 79, 48
10, 37109, Note_on_c, 4, 79, 0
10, 37110, Note_on_c, 4, 77, 48
10, 37439, Note_on_c, 4, 77, 0
10, 37440, Note_on_c, 4, 76, 48
10, 37559, Note_on_c, 4, 76, 0
10, 37560, Note_on_c, 4, 60, 72
10, 37619, Note_on_c, 4, 60, 0
10, 37620, Note_on_c, 4, 64, 72
10, 37649, Note_on_c, 4, 64, 0
10, 37650, Note_on_c, 4, 67, 72
10, 37679, Note_on_c, 4, 67, 0
10, 37680, Note_on_c, 4, 72, 72
10, 37739, Note_on_c, 4, 72, 0
10, 37740, Note_on_c, 4, 72, 72
10, 37799, Note_on_c, 4, 72, 0
10, 37800, Note_on_c, 4, 59, 72
10, 37919, Note_on_c, 4, 59, 0
10, 38280, Note_on_c, 4, 60, 72
10, 38339, Note_on_c, 4, 60, 0
10, 38340, Note_on_c, 4, 64, 72
10, 38369, Note_on_c, 4, 64, 0
10, 38370, Note_on_c, 4, 67, 72
10, 38399, Note_on_c, 4, 67, 0
10, 38400, Note_on_c, 4, 72, 72
10, 38459, Note_on_c, 4, 72, 0
10, 38460, Note_on_c, 4, 72, 72
10, 38519, Note_on_c, 4, 72, 0
10, 38520, Note_on_c, 4, 61, 72
10, 38639, Note_on_c, 4, 61, 0
10, 39000, Note_on_c, 4, 72, 48
10, 39059, Note_on_c, 4, 72, 0
10, 39060, Note_on_c, 4, 76, 48
10, 39089, Note_on_c, 4, 76, 0
10, 39090, Note_on_c, 4, 79, 48
10, 39119, Note_on_c, 4, 79, 0
10, 39120, Note_on_c, 4, 84, 48
10, 39179, Note_on_c, 4, 84, 0
10, 39180, Note_on_c, 4, 84, 48
10, 39239, Note_on_c, 4, 84, 0
10, 39240, Note_on_c, 4, 84, 48
10, 39359, Note_on_c, 4, 84, 0
10, 39720, Note_on_c, 4, 67, 48
10, 39839, Note_on_c, 4, 67, 0
10, 39840, Note_on_c, 4, 67, 48
10, 39959, Note_on_c, 4, 67, 0
10, 39960, Note_on_c, 4, 67, 48
10, 40139, Note_on_c, 4, 67, 0
10, 40140, Note_on_c, 4, 70, 48
10, 40169, Note_on_c, 4, 70, 0
10, 40170, Note_on_c, 4, 68, 48
10, 40199, Note_on_c, 4, 68, 0
10, 40200, Note_on_c, 4, 67, 48
10, 40319, Note_on_c, 4, 67, 0
10, 40440, Note_on_c, 4, 67, 48
10, 40559, Note_on_c, 4, 67, 0
10, 40560, Note_on_c, 4, 67, 48
10, 40679, Note_on_c, 4, 67, 0
10, 40680, Note_on_c, 4, 67, 48
10, 40859, Note_on_c, 4, 67, 0
10, 40860, Note_on_c, 4, 70, 48
10, 40889, Note_on_c, 4, 70, 0
10, 40890, Note_on_c, 4, 68, 48
10, 40919, Note_on_c, 4, 68, 0
10, 40920, Note_on_c, 4, 67, 48
10, 41039, Note_on_c, 4, 67, 0
10, 41160, Note_on_c, 4, 67, 48
10, 41279, Note_on_c, 4, 67, 0
10, 41280, Note_on_c, 4, 67, 48
10, 41399, Note_on_c, 4, 67, 0
10, 41400, Note_on_c, 4, 72, 48
10, 41459, Note_on_c, 4, 72, 0
10, 41460, Note_on_c, 4, 72, 48
10, 41519, Note_on_c, 4, 72, 0
10, 41520, Note_on_c, 4, 64, 48
10, 41579, Note_on_c, 4, 64, 0
10, 41580, Note_on_c, 4, 64, 48
10, 41639, Note_on_c, 4, 64, 0
10, 41640, Note_on_c, 4, 65, 48
10, 41699, Note_on_c, 4, 65, 0
10, 41700, Note_on_c, 4, 65, 48
10, 41759, Note_on_c, 4, 65, 0
10, 41760, Note_on_c, 4, 65, 48
10, 41819, Note_on_c, 4, 65, 0
10, 41820, Note_on_c, 4, 69, 48
10, 41849, Note_on_c, 4, 69, 0
10, 41850, Note_on_c, 4, 67, 48
10, 41879, Note_on_c, 4, 67, 0
10, 41880, Note_on_c, 4, 65, 48
10, 41939, Note_on_c, 4, 65, 0
10, 41940, Note_on_c, 4, 65, 48
10, 41999, Note_on_c, 4, 65, 0
10, 42000, Note_on_c, 4, 64, 48
10, 42059, Note_on_c, 4, 64, 0
10, 42060, Note_on_c, 4, 64, 48
10, 42119, Note_on_c, 4, 64, 0
10, 42120, Note_on_c, 4, 65, 48
10, 42179, Note_on_c, 4, 65, 0
10, 42180, Note_on_c, 4, 69, 48
10, 42209, Note_on_c, 4, 69, 0
10, 42210, Note_on_c, 4, 72, 48
10, 42239, Note_on_c, 4, 72, 0
10, 42240, Note_on_c, 4, 77, 48
10, 42299, Note_on_c, 4, 77, 0
10, 42300, Note_on_c, 4, 77, 48
10, 42359, Note_on_c, 4, 77, 0
10, 42360, Note_on_c, 4, 77, 48
10, 42539, Note_on_c, 4, 77, 0
10, 42540, Note_on_c, 4, 76, 48
10, 42599, Note_on_c, 4, 76, 0
10, 42600, Note_on_c, 4, 74, 48
10, 42659, Note_on_c, 4, 74, 0
10, 42660, Note_on_c, 4, 72, 48
10, 42719, Note_on_c, 4, 72, 0
10, 42720, Note_on_c, 4, 70, 48
10, 42779, Note_on_c, 4, 70, 0
10, 42780, Note_on_c, 4, 69, 48
10, 42839, Note_on_c, 4, 69, 0
10, 42840, Note_on_c, 4, 74, 48
10, 43079, Note_on_c, 4, 74, 0
10, 43080, Note_on_c, 4, 72, 48
10, 43259, Note_on_c, 4, 72, 0
10, 43260, Note_on_c, 4, 70, 48
10, 43319, Note_on_c, 4, 70, 0
10, 43320, Note_on_c, 4, 69, 48
10, 43379, Note_on_c, 4, 69, 0
10, 43380, Note_on_c, 4, 69, 48
10, 43439, Note_on_c, 4, 69, 0
10, 43440, Note_on_c, 4, 67, 48
10, 43499, Note_on_c, 4, 67, 0
10, 43500, Note_on_c, 4, 67, 48
10, 43559, Note_on_c, 4, 67, 0
10, 43560, Note_on_c, 4, 65, 48
10, 43619, Note_on_c, 4, 65, 0
10, 43620, Note_on_c, 4, 69, 48
10, 43649, Note_on_c, 4, 69, 0
10, 43650, Note_on_c, 4, 72, 48
10, 43679, Note_on_c, 4, 72, 0
10, 43680, Note_on_c, 4, 77, 48
10, 43739, Note_on_c, 4, 77, 0
10, 43740, Note_on_c, 4, 77, 48
10, 43799, Note_on_c, 4, 77, 0
10, 43800, Note_on_c, 4, 77, 48
10, 43979, Note_on_c, 4, 77, 0
10, 43980, Note_on_c, 4, 76, 48
10, 44039, Note_on_c, 4, 76, 0
10, 44040, Note_on_c, 4, 74, 48
10, 44099, Note_on_c, 4, 74, 0
10, 44100, Note_on_c, 4, 72, 48
10, 44159, Note_on_c, 4, 72, 0
10, 44160, Note_on_c, 4, 70, 48
10, 44219, Note_on_c, 4, 70, 0
10, 44220, Note_on_c, 4, 69, 48
10, 44279, Note_on_c, 4, 69, 0
10, 44280, Note_on_c, 4, 74, 48
10, 44519, Note_on_c, 4, 74, 0
10, 44520, Note_on_c, 4, 72, 48
10, 44699, Note_on_c, 4, 72, 0
10, 44700, Note_on_c, 4, 70, 48
10, 44759, Note_on_c, 4, 70, 0
10, 44760, Note_on_c, 4, 69, 48
10, 44819, Note_on_c, 4, 69, 0
10, 44820, Note_on_c, 4, 69, 48
10, 44879, Note_on_c, 4, 69, 0
10, 44880, Note_on_c, 4, 67, 48
10, 44939, Note_on_c, 4, 67, 0
10, 44940, Note_on_c, 4, 67, 48
10, 44999, Note_on_c, 4, 67, 0
10, 45000, Note_on_c, 4, 65, 48
10, 45029, Note_on_c, 4, 65, 0
10, 45060, Note_on_c, 4, 84, 48
10, 45089, Note_on_c, 4, 84, 0
10, 45090, Note_on_c, 4, 82, 48
10, 45119, Note_on_c, 4, 82, 0
10, 45120, Note_on_c, 4, 81, 48
10, 45179, Note_on_c, 4, 81, 0
10, 45180, Note_on_c, 4, 79, 48
10, 45239, Note_on_c, 4, 79, 0
10, 45240, Note_on_c, 4, 77, 48
10, 45299, Note_on_c, 4, 77, 0
10, 45300, Note_on_c, 4, 76, 48
10, 45359, Note_on_c, 4, 76, 0
10, 45360, Note_on_c, 4, 74, 48
10, 45419, Note_on_c, 4, 74, 0
10, 45420, Note_on_c, 4, 86, 48
10, 45449, Note_on_c, 4, 86, 0
10, 45450, Note_on_c, 4, 84, 48
10, 45479, Note_on_c, 4, 84, 0
10, 45480, Note_on_c, 4, 82, 48
10, 45539, Note_on_c, 4, 82, 0
10, 45540, Note_on_c, 4, 81, 48
10, 45599, Note_on_c, 4, 81, 0
10, 45600, Note_on_c, 4, 79, 48
10, 45659, Note_on_c, 4, 79, 0
10, 45660, Note_on_c, 4, 77, 48
10, 45719, Note_on_c, 4, 77, 0
10, 45720, Note_on_c, 4, 76, 48
10, 45779, Note_on_c, 4, 76, 0
10, 45780, Note_on_c, 4, 74, 48
10, 45839, Note_on_c, 4, 74, 0
10, 45840, Note_on_c, 4, 72, 48
10, 45899, Note_on_c, 4, 72, 0
10, 45900, Note_on_c, 4, 70, 48
10, 45959, Note_on_c, 4, 70, 0
10, 45960, Note_on_c, 4, 69, 48
10, 46019, Note_on_c, 4, 69, 0
10, 46020, Note_on_c, 4, 67, 48
10, 46079, Note_on_c, 4, 67, 0
10, 46080, Note_on_c, 4, 65, 48
10, 46169, Note_on_c, 4, 65, 0
10, 46170, Note_on_c, 4, 67, 48
10, 46199, Note_on_c, 4, 67, 0
10, 46200, Note_on_c, 4, 67, 48
10, 46214, Note_on_c, 4, 67, 0
10, 46215, Note_on_c, 4, 69, 48
10, 46229, Note_on_c, 4, 69, 0
10, 46230, Note_on_c, 4, 67, 48
10, 46244, Note_on_c, 4, 67, 0
10, 46245, Note_on_c, 4, 69, 48
10, 46259, Note_on_c, 4, 69, 0
10, 46260, Note_on_c, 4, 67, 48
10, 46274, Note_on_c, 4, 67, 0
10, 46275, Note_on_c, 4, 69, 48
10, 46289, Note_on_c, 4, 69, 0
10, 46290, Note_on_c, 4, 67, 48
10, 46304, Note_on_c, 4, 67, 0
10, 46305, Note_on_c, 4, 69, 48
10, 46319, Note_on_c, 4, 69, 0
10, 46320, Note_on_c, 4, 67, 48
10, 46334, Note_on_c, 4, 67, 0
10, 46335, Note_on_c, 4, 69, 48
10, 46349, Note_on_c, 4, 69, 0
10, 46350, Note_on_c, 4, 67, 48
10, 46364, Note_on_c, 4, 67, 0
10, 46365, Note_on_c, 4, 69, 48
10, 46379, Note_on_c, 4, 69, 0
10, 46380, Note_on_c, 4, 65, 48
10, 46409, Note_on_c, 4, 65, 0
10, 46410, Note_on_c, 4, 67, 48
10, 46439, Note_on_c, 4, 67, 0
10, 46440, Note_on_c, 4, 65, 48
10, 46529, Note_on_c, 4, 65, 0
10, 46530, Note_on_c, 4, 60, 48
10, 46559, Note_on_c, 4, 60, 0
10, 46560, Note_on_c, 4, 65, 48
10, 46679, Note_on_c, 4, 65, 0
10, 46679, End_track
11, 0, Start_track
11, 0, Title_t, "Violin II"
11, 0, Program_c, 5, 48
11, 0, Control_c, 5, 7, 96
11, 0, Control_c, 5, 10, 24
11, 0, Control_c, 5, 11, 127
11, 2340, Note_on_c, 5, 79, 48
11, 2369, Note_on_c, 5, 79, 0
11, 2370, Note_on_c, 5, 77, 48
11, 2399, Note_on_c, 5, 77, 0
11, 2400, Note_on_c, 5, 76, 48
11, 2459, Note_on_c, 5, 76, 0
11, 2460, Note_on_c, 5, 74, 48
11, 2519, Note_on_c, 5, 74, 0
11, 2520, Note_on_c, 5, 72, 48
11, 2579, Note_on_c, 5, 72, 0
11, 2580, Note_on_c, 5, 70, 48
11, 2639, Note_on_c, 5, 70, 0
11, 2640, Note_on_c, 5, 69, 48
11, 2699, Note_on_c, 5, 69, 0
11, 2700, Note_on_c, 5, 81, 48
11, 2729, Note_on_c, 5, 81, 0
11, 2730, Note_on_c, 5, 79, 48
11, 2759, Note_on_c, 5, 79, 0
11, 2760, Note_on_c, 5, 77, 48
11, 2819, Note_on_c, 5, 77, 0
11, 2820, Note_on_c, 5, 76, 48
11, 2879, Note_on_c, 5, 76, 0
11, 2880, Note_on_c, 5, 74, 48
11, 2939, Note_on_c, 5, 74, 0
11, 2940, Note_on_c, 5, 72, 48
11, 2999, Note_on_c, 5, 72, 0
11, 3000, Note_on_c, 5, 70, 48
11, 3059, Note_on_c, 5, 70, 0
11, 3060, Note_on_c, 5, 82, 48
11, 3089, Note_on_c, 5, 82, 0
11, 3090, Note_on_c, 5, 81, 48
11, 3119, Note_on_c, 5, 81, 0
11, 3120, Note_on_c, 5, 79, 48
11, 3179, Note_on_c, 5, 79, 0
11, 3180, Note_on_c, 5, 77, 48
11, 3239, Note_on_c, 5, 77, 0
11, 3240, Note_on_c, 5, 76, 48
11, 3299, Note_on_c, 5, 76, 0
11, 3300, Note_on_c, 5, 74, 48
11, 3359, Note_on_c, 5, 74, 0
11, 3360, Note_on_c, 5, 72, 48
11, 3419, Note_on_c, 5, 72, 0
11, 3420, Note_on_c, 5, 84, 48
11, 3449, Note_on_c, 5, 84, 0
11, 3450, Note_on_c, 5, 82, 48
11, 3479, Note_on_c, 5, 82, 0
11, 3480, Note_on_c, 5, 81, 48
11, 3539, Note_on_c, 5, 81, 0
11, 3540, Note_on_c, 5, 79, 48
11, 3599, Note_on_c, 5, 79, 0
11, 3600, Note_on_c, 5, 77, 48
11, 3659, Note_on_c, 5, 77, 0
11, 3660, Note_on_c, 5, 76, 48
11, 3719, Note_on_c, 5, 76, 0
11, 3720, Note_on_c, 5, 74, 48
11, 3779, Note_on_c, 5, 74, 0
11, 3780, Note_on_c, 5, 74, 48
11, 3809, Note_on_c, 5, 74, 0
11, 3810, Note_on_c, 5, 72, 48
11, 3839, Note_on_c, 5, 72, 0
11, 3840, Note_on_c, 5, 70, 48
11, 3899, Note_on_c, 5, 70, 0
11, 3900, Note_on_c, 5, 69, 48
11, 3959, Note_on_c, 5, 69, 0
11, 3960, Note_on_c, 5, 67, 48
11, 4019, Note_on_c, 5, 67, 0
11, 4020, Note_on_c, 5, 65, 48
11, 4079, Note_on_c, 5, 65, 0
11, 4080, Note_on_c, 5, 64, 48
11, 4139, Note_on_c, 5, 64, 0
11, 4140, Note_on_c, 5, 62, 48
11, 4199, Note_on_c, 5, 62, 0
11, 4200, Note_on_c, 5, 60, 48
11, 4259, Note_on_c, 5, 60, 0
11, 4260, Note_on_c, 5, 58, 48
11, 4319, Note_on_c, 5, 58, 0
11, 4320, Note_on_c, 5, 57, 48
11, 4379, Note_on_c, 5, 57, 0
11, 4380, Note_on_c, 5, 65, 48
11, 4499, Note_on_c, 5, 65, 0
11, 4500, Note_on_c, 5, 64, 48
11, 4529, Note_on_c, 5, 64, 0
11, 4530, Note_on_c, 5, 62, 48
11, 4559, Note_on_c, 5, 62, 0
11, 4560, Note_on_c, 5, 64, 48
11, 4679, Note_on_c, 5, 64, 0
11, 4680, Note_on_c, 5, 65, 48
11, 5159, Note_on_c, 5, 65, 0
11, 5160, Note_on_c, 5, 64, 48
11, 5279, Note_on_c, 5, 64, 0
11, 5280, Note_on_c, 5, 70, 48
11, 5399, Note_on_c, 5, 70, 0
11, 5400, Note_on_c, 5, 69, 48
11, 5879, Note_on_c, 5, 69, 0
11, 5880, Note_on_c, 5, 67, 48
11, 5999, Note_on_c, 5, 67, 0
11, 6000, Note_on_c, 5, 74, 48
11, 6119, Note_on_c, 5, 74, 0
11, 6120, Note_on_c, 5, 72, 48
11, 6359, Note_on_c, 5, 72, 0
11, 6360, Note_on_c, 5, 70, 48
11, 6599, Note_on_c, 5, 70, 0
11, 6600, Note_on_c, 5, 70, 48
11, 6749, Note_on_c, 5, 70, 0
11, 6750, Note_on_c, 5, 69, 48
11, 6779, Note_on_c, 5, 69, 0
11, 6780, Note_on_c, 5, 67, 48
11, 6809, Note_on_c, 5, 67, 0
11, 6810, Note_on_c, 5, 69, 48
11, 6839, Note_on_c, 5, 69, 0
11, 6840, Note_on_c, 5, 67, 48
11, 6959, Note_on_c, 5, 67, 0
11, 7200, Note_on_c, 5, 62, 48
11, 7679, Note_on_c, 5, 62, 0
11, 7680, Note_on_c, 5, 60, 48
11, 7739, Note_on_c, 5, 60, 0
11, 7740, Note_on_c, 5, 76, 48
11, 7769, Note_on_c, 5, 76, 0
11, 7770, Note_on_c, 5, 74, 48
11, 7799, Note_on_c, 5, 74, 0
11, 7800, Note_on_c, 5, 72, 48
11, 7859, Note_on_c, 5, 72, 0
11, 7860, Note_on_c, 5, 71, 48
11, 7919, Note_on_c, 5, 71, 0
11, 7920, Note_on_c, 5, 69, 48
11, 7979, Note_on_c, 5, 69, 0
11, 7980, Note_on_c, 5, 67, 48
11, 8039, Note_on_c, 5, 67, 0
11, 8040, Note_on_c, 5, 65, 48
11, 8099, Note_on_c, 5, 65, 0
11, 8100, Note_on_c, 5, 77, 48
11, 8129, Note_on_c, 5, 77, 0
11, 8130, Note_on_c, 5, 76, 48
11, 8159, Note_on_c, 5, 76, 0
11, 8160, Note_on_c, 5, 74, 48
11, 8219, Note_on_c, 5, 74, 0
11, 8220, Note_on_c, 5, 72, 48
11, 8279, Note_on_c, 5, 72, 0
11, 8280, Note_on_c, 5, 71, 48
11, 8339, Note_on_c, 5, 71, 0
11, 8340, Note_on_c, 5, 69, 48
11, 8399, Note_on_c, 5, 69, 0
11, 8400, Note_on_c, 5, 67, 48
11, 8459, Note_on_c, 5, 67, 0
11, 8460, Note_on_c, 5, 76, 48
11, 8489, Note_on_c, 5, 76, 0
11, 8490, Note_on_c, 5, 74, 48
11, 8519, Note_on_c, 5, 74, 0
11, 8520, Note_on_c, 5, 72, 48
11, 8639, Note_on_c, 5, 72, 0
11, 8640, Note_on_c, 5, 74, 48
11, 8759, Note_on_c, 5, 74, 0
11, 8760, Note_on_c, 5, 74, 48
11, 8909, Note_on_c, 5, 74, 0
11, 8910, Note_on_c, 5, 72, 48
11, 8939, Note_on_c, 5, 72, 0
11, 8940, Note_on_c, 5, 71, 48
11, 8969, Note_on_c, 5, 71, 0
11, 8970, Note_on_c, 5, 72, 48
11, 8999, Note_on_c, 5, 72, 0
11, 9000, Note_on_c, 5, 71, 48
11, 9119, Note_on_c, 5, 71, 0
11, 9480, Note_on_c, 5, 59, 48
11, 9599, Note_on_c, 5, 59, 0
11, 9600, Note_on_c, 5, 59, 48
11, 9719, Note_on_c, 5, 59, 0
11, 9720, Note_on_c, 5, 59, 48
11, 9899, Note_on_c, 5, 59, 0
11, 9900, Note_on_c, 5, 62, 48
11, 9929, Note_on_c, 5, 62, 0
11, 9930, Note_on_c, 5, 60, 48
11, 9959, Note_on_c, 5, 60, 0
11, 9960, Note_on_c, 5, 59, 48
11, 10079, Note_on_c, 5, 59, 0
11, 10080, Note_on_c, 5, 59, 48
11, 10199, Note_on_c, 5, 59, 0
11, 10200, Note_on_c, 5, 60, 48
11, 10259, Note_on_c, 5, 60, 0
11, 10260, Note_on_c, 5, 72, 48
11, 10319, Note_on_c, 5, 72, 0
11, 10320, Note_on_c, 5, 72, 48
11, 10379, Note_on_c, 5, 72, 0
11, 10380, Note_on_c, 5, 72, 48
11, 10439, Note_on_c, 5, 72, 0
11, 10440, Note_on_c, 5, 72, 48
11, 10499, Note_on_c, 5, 72, 0
11, 10500, Note_on_c, 5, 72, 48
11, 10559, Note_on_c, 5, 72, 0
11, 10560, Note_on_c, 5, 72, 48
11, 10619, Note_on_c, 5, 72, 0
11, 10620, Note_on_c, 5, 72, 48
11, 10679, Note_on_c, 5, 72, 0
11, 10680, Note_on_c, 5, 72, 48
11, 10739, Note_on_c, 5, 72, 0
11, 10740, Note_on_c, 5, 72, 48
11, 10799, Note_on_c, 5, 72, 0
11, 10800, Note_on_c, 5, 72, 48
11, 10859, Note_on_c, 5, 72, 0
11, 10860, Note_on_c, 5, 72, 48
11, 10919, Note_on_c, 5, 72, 0
11, 10920, Note_on_c, 5, 71, 48
11, 10979, Note_on_c, 5, 71, 0
11, 10980, Note_on_c, 5, 71, 48
11, 11039, Note_on_c, 5, 71, 0
11, 11040, Note_on_c, 5, 71, 48
11, 11099, Note_on_c, 5, 71, 0
11, 11100, Note_on_c, 5, 71, 48
11, 11159, Note_on_c, 5, 71, 0
11, 11160, Note_on_c, 5, 72, 48
11, 11219, Note_on_c, 5, 72, 0
11, 11220, Note_on_c, 5, 72, 48
11, 11279, Note_on_c, 5, 72, 0
11, 11280, Note_on_c, 5, 65, 48
11, 11339, Note_on_c, 5, 65, 0
11, 11340, Note_on_c, 5, 65, 48
11, 11399, Note_on_c, 5, 65, 0
11, 11400, Note_on_c, 5, 64, 48
11, 11459, Note_on_c, 5, 64, 0
11, 11460, Note_on_c, 5, 64, 48
11, 11519, Note_on_c, 5, 64, 0
11, 11520, Note_on_c, 5, 69, 48
11, 11579, Note_on_c, 5, 69, 0
11, 11580, Note_on_c, 5, 69, 48
11, 11639, Note_on_c, 5, 69, 0
11, 11640, Note_on_c, 5, 67, 48
11, 11699, Note_on_c, 5, 67, 0
11, 11700, Note_on_c, 5, 67, 48
11, 11759, Note_on_c, 5, 67, 0
11, 11760, Note_on_c, 5, 65, 48
11, 11819, Note_on_c, 5, 65, 0
11, 11820, Note_on_c, 5, 65, 48
11, 11879, Note_on_c, 5, 65, 0
11, 11880, Note_on_c, 5, 67, 48
11, 11999, Note_on_c, 5, 67, 0
11, 12060, Note_on_c, 5, 79, 66
11, 12089, Note_on_c, 5, 79, 0
11, 12090, Note_on_c, 5, 77, 66
11, 12119, Note_on_c, 5, 77, 0
11, 12120, Note_on_c, 5, 76, 66
11, 12179, Note_on_c, 5, 76, 0
11, 12180, Note_on_c, 5, 74, 66
11, 12239, Note_on_c, 5, 74, 0
11, 12240, Note_on_c, 5, 72, 66
11, 12299, Note_on_c, 5, 72, 0
11, 12300, Note_on_c, 5, 81, 66
11, 12329, Note_on_c, 5, 81, 0
11, 12330, Note_on_c, 5, 79, 66
11, 12359, Note_on_c, 5, 79, 0
11, 12360, Note_on_c, 5, 77, 66
11, 12419, Note_on_c, 5, 77, 0
11, 12420, Note_on_c, 5, 76, 66
11, 12479, Note_on_c, 5, 76, 0
11, 12480, Note_on_c, 5, 74, 66
11, 12539, Note_on_c, 5, 74, 0
11, 12540, Note_on_c, 5, 72, 66
11, 12599, Note_on_c, 5, 72, 0
11, 12600, Note_on_c, 5, 71, 66
11, 12659, Note_on_c, 5, 71, 0
11, 12660, Note_on_c, 5, 59, 66
11, 12719, Note_on_c, 5, 59, 0
11, 12720, Note_on_c, 5, 59, 66
11, 12734, Note_on_c, 5, 59, 0
11, 12735, Note_on_c, 5, 60, 66
11, 12749, Note_on_c, 5, 60, 0
11, 12750, Note_on_c, 5, 59, 66
11, 12764, Note_on_c, 5, 59, 0
11, 12765, Note_on_c, 5, 60, 66
11, 12779, Note_on_c, 5, 60, 0
11, 12780, Note_on_c, 5, 59, 66
11, 12794, Note_on_c, 5, 59, 0
11, 12795, Note_on_c, 5, 60, 66
11, 12809, Note_on_c, 5, 60, 0
11, 12810, Note_on_c, 5, 57, 66
11, 12824, Note_on_c, 5, 57, 0
11, 12825, Note_on_c, 5, 59, 66
11, 12839, Note_on_c, 5, 59, 0
11, 12840, Note_on_c, 5, 60, 66
11, 12899, Note_on_c, 5, 60, 0
11, 12900, Note_on_c, 5, 65, 66
11, 12959, Note_on_c, 5, 65, 0
11, 12960, Note_on_c, 5, 64, 66
11, 13019, Note_on_c, 5, 64, 0
11, 13020, Note_on_c, 5, 72, 66
11, 13139, Note_on_c, 5, 72, 0
11, 13140, Note_on_c, 5, 71, 66
11, 13169, Note_on_c, 5, 71, 0
11, 13170, Note_on_c, 5, 69, 66
11, 13199, Note_on_c, 5, 69, 0
11, 13200, Note_on_c, 5, 71, 66
11, 13319, Note_on_c, 5, 71, 0
11, 13320, Note_on_c, 5, 72, 66
11, 13379, Note_on_c, 5, 72, 0
11, 13380, Note_on_c, 5, 67, 48
11, 13439, Note_on_c, 5, 67, 0
11, 13440, Note_on_c, 5, 67, 48
11, 13499, Note_on_c, 5, 67, 0
11, 13500, Note_on_c, 5, 67, 48
11, 13559, Note_on_c, 5, 67, 0
11, 13560, Note_on_c, 5, 67, 48
11, 13619, Note_on_c, 5, 67, 0
11, 13620, Note_on_c, 5, 67, 48
11, 13679, Note_on_c, 5, 67, 0
11, 13680, Note_on_c, 5, 67, 48
11, 13739, Note_on_c, 5, 67, 0
11, 13740, Note_on_c, 5, 67, 48
11, 13799, Note_on_c, 5, 67, 0
11, 13800, Note_on_c, 5, 67, 48
11, 13859, Note_on_c, 5, 67, 0
11, 13860, Note_on_c, 5, 67, 48
11, 13919, Note_on_c, 5, 67, 0
11, 13920, Note_on_c, 5, 67, 48
11, 13979, Note_on_c, 5, 67, 0
11, 13980, Note_on_c, 5, 67, 48
11, 14039, Note_on_c, 5, 67, 0
11, 14040, Note_on_c, 5, 67, 48
11, 14099, Note_on_c, 5, 67, 0
11, 14100, Note_on_c, 5, 67, 48
11, 14159, Note_on_c, 5, 67, 0
11, 14160, Note_on_c, 5, 67, 48
11, 14219, Note_on_c, 5, 67, 0
11, 14220, Note_on_c, 5, 67, 48
11, 14279, Note_on_c, 5, 67, 0
11, 14280, Note_on_c, 5, 65, 48
11, 14339, Note_on_c, 5, 65, 0
11, 14340, Note_on_c, 5, 63, 48
11, 14399, Note_on_c, 5, 63, 0
11, 14400, Note_on_c, 5, 63, 48
11, 14459, Note_on_c, 5, 63, 0
11, 14460, Note_on_c, 5, 63, 48
11, 14519, Note_on_c, 5, 63, 0
11, 14520, Note_on_c, 5, 62, 48
11, 14579, Note_on_c, 5, 62, 0
11, 14580, Note_on_c, 5, 62, 48
11, 14639, Note_on_c, 5, 62, 0
11, 14640, Note_on_c, 5, 64, 48
11, 14699, Note_on_c, 5, 64, 0
11, 14700, Note_on_c, 5, 64, 48
11, 14759, Note_on_c, 5, 64, 0
11, 14760, Note_on_c, 5, 65, 48
11, 14819, Note_on_c, 5, 65, 0
11, 14820, Note_on_c, 5, 69, 48
11, 14879, Note_on_c, 5, 69, 0
11, 14880, Note_on_c, 5, 69, 48
11, 14939, Note_on_c, 5, 69, 0
11, 14940, Note_on_c, 5, 69, 48
11, 14999, Note_on_c, 5, 69, 0
11, 15000, Note_on_c, 5, 69, 48
11, 15059, Note_on_c, 5, 69, 0
11, 15060, Note_on_c, 5, 69, 48
11, 15119, Note_on_c, 5, 69, 0
11, 15120, Note_on_c, 5, 69, 48
11, 15179, Note_on_c, 5, 69, 0
11, 15180, Note_on_c, 5, 69, 48
11, 15239, Note_on_c, 5, 69, 0
11, 15240, Note_on_c, 5, 69, 48
11, 15299, Note_on_c, 5, 69, 0
11, 15300, Note_on_c, 5, 69, 48
11, 15359, Note_on_c, 5, 69, 0
11, 15360, Note_on_c, 5, 69, 48
11, 15419, Note_on_c, 5, 69, 0
11, 15420, Note_on_c, 5, 69, 48
11, 15479, Note_on_c, 5, 69, 0
11, 15480, Note_on_c, 5, 65, 48
11, 15539, Note_on_c, 5, 65, 0
11, 15540, Note_on_c, 5, 69, 48
11, 15599, Note_on_c, 5, 69, 0
11, 15600, Note_on_c, 5, 69, 48
11, 15629, Note_on_c, 5, 69, 0
11, 15660, Note_on_c, 5, 69, 48
11, 15719, Note_on_c, 5, 69, 0
11, 15720, Note_on_c, 5, 67, 48
11, 15779, Note_on_c, 5, 67, 0
11, 15780, Note_on_c, 5, 65, 48
11, 15839, Note_on_c, 5, 65, 0
11, 15840, Note_on_c, 5, 65, 48
11, 15959, Note_on_c, 5, 65, 0
11, 15960, Note_on_c, 5, 64, 48
11, 16019, Note_on_c, 5, 64, 0
11, 16020, Note_on_c, 5, 61, 48
11, 16079, Note_on_c, 5, 61, 0
11, 16080, Note_on_c, 5, 62, 48
11, 16139, Note_on_c, 5, 62, 0
11, 16140, Note_on_c, 5, 67, 48
11, 16199, Note_on_c, 5, 67, 0
11, 16200, Note_on_c, 5, 65, 48
11, 16319, Note_on_c, 5, 65, 0
11, 16380, Note_on_c, 5, 67, 48
11, 16409, Note_on_c, 5, 67, 0
11, 16410, Note_on_c, 5, 65, 48
11, 16439, Note_on_c, 5, 65, 0
11, 16440, Note_on_c, 5, 64, 48
11, 16499, Note_on_c, 5, 64, 0
11, 16500, Note_on_c, 5, 62, 48
11, 16559, Note_on_c, 5, 62, 0
11, 16560, Note_on_c, 5, 60, 48
11, 16679, Note_on_c, 5, 60, 0
11, 16740, Note_on_c, 5, 65, 48
11, 16769, Note_on_c, 5, 65, 0
11, 16770, Note_on_c, 5, 64, 48
11, 16799, Note_on_c, 5, 64, 0
11, 16800, Note_on_c, 5, 62, 48
11, 16859, Note_on_c, 5, 62, 0
11, 16860, Note_on_c, 5, 60, 48
11, 16919, Note_on_c, 5, 60, 0
11, 16920, Note_on_c, 5, 58, 48
11, 17039, Note_on_c, 5, 58, 0
11, 17100, Note_on_c, 5, 64, 48
11, 17129, Note_on_c, 5, 64, 0
11, 17130, Note_on_c, 5, 62, 48
11, 17159, Note_on_c, 5, 62, 0
11, 17160, Note_on_c, 5, 61, 48
11, 17219, Note_on_c, 5, 61, 0
11, 17220, Note_on_c, 5, 59, 48
11, 17279, Note_on_c, 5, 59, 0
11, 17280, Note_on_c, 5, 57, 48
11, 17399, Note_on_c, 5, 57, 0
11, 17460, Note_on_c, 5, 62, 48
11, 17489, Note_on_c, 5, 62, 0
11, 17490, Note_on_c, 5, 60, 48
11, 17519, Note_on_c, 5, 60, 0
11, 17520, Note_on_c, 5, 58, 48
11, 17579, Note_on_c, 5, 58, 0
11, 17580, Note_on_c, 5, 57, 48
11, 17639, Note_on_c, 5, 57, 0
11, 17640, Note_on_c, 5, 55, 48
11, 17699, Note_on_c, 5, 55, 0
11, 17700, Note_on_c, 5, 62, 48
11, 17729, Note_on_c, 5, 62, 0
11, 17760, Note_on_c, 5, 62, 48
11, 17789, Note_on_c, 5, 62, 0
11, 17820, Note_on_c, 5, 64, 48
11, 17849, Note_on_c, 5, 64, 0
11, 17880, Note_on_c, 5, 65, 48
11, 17909, Note_on_c, 5, 65, 0
11, 17940, Note_on_c, 5, 65, 48
11, 17969, Note_on_c, 5, 65, 0
11, 18000, Note_on_c, 5, 65, 48
11, 18059, Note_on_c, 5, 65, 0
11, 18060, Note_on_c, 5, 67, 48
11, 18119, Note_on_c, 5, 67, 0
11, 18120, Note_on_c, 5, 65, 48
11, 18179, Note_on_c, 5, 65, 0
11, 18180, Note_on_c, 5, 65, 48
11, 18239, Note_on_c, 5, 65, 0
11, 18240, Note_on_c, 5, 64, 48
11, 18299, Note_on_c, 5, 64, 0
11, 18300, Note_on_c, 5, 64, 48
11, 18359, Note_on_c, 5, 64, 0
11, 18360, Note_on_c, 5, 62, 48
11, 18479, Note_on_c, 5, 62, 0
11, 18780, Note_on_c, 5, 72, 66
11, 18809, Note_on_c, 5, 72, 0
11, 18810, Note_on_c, 5, 70, 66
11, 18839, Note_on_c, 5, 70, 0
11, 18840, Note_on_c, 5, 69, 66
11, 18899, Note_on_c, 5, 69, 0
11, 18900, Note_on_c, 5, 67, 66
11, 18959, Note_on_c, 5, 67, 0
11, 18960, Note_on_c, 5, 65, 66
11, 19019, Note_on_c, 5, 65, 0
11, 19020, Note_on_c, 5, 63, 66
11, 19079, Note_on_c, 5, 63, 0
11, 19080, Note_on_c, 5, 62, 66
11, 19199, Note_on_c, 5, 62, 0
11, 19440, Note_on_c, 5, 72, 48
11, 19919, Note_on_c, 5, 72, 0
11, 19920, Note_on_c, 5, 70, 48
11, 20039, Note_on_c, 5, 70, 0
11, 20040, Note_on_c, 5, 77, 48
11, 20159, Note_on_c, 5, 77, 0
11, 20160, Note_on_c, 5, 75, 48
11, 20639, Note_on_c, 5, 75, 0
11, 20640, Note_on_c, 5, 74, 48
11, 20879, Note_on_c, 5, 74, 0
11, 20880, Note_on_c, 5, 72, 48
11, 21149, Note_on_c, 5, 72, 0
11, 21150, Note_on_c, 5, 70, 48
11, 21179, Note_on_c, 5, 70, 0
11, 21180, Note_on_c, 5, 69, 48
11, 21209, Note_on_c, 5, 69, 0
11, 21210, Note_on_c, 5, 70, 48
11, 21239, Note_on_c, 5, 70, 0
11, 21240, Note_on_c, 5, 69, 48
11, 21359, Note_on_c, 5, 69, 0
11, 21720, Note_on_c, 5, 57, 48
11, 21839, Note_on_c, 5, 57, 0
11, 21840, Note_on_c, 5, 57, 48
11, 21959, Note_on_c, 5, 57, 0
11, 21960, Note_on_c, 5, 57, 48
11, 22139, Note_on_c, 5, 57, 0
11, 22140, Note_on_c, 5, 60, 48
11, 22169, Note_on_c, 5, 60, 0
11, 22170, Note_on_c, 5, 58, 48
11, 22199, Note_on_c, 5, 58, 0
11, 22200, Note_on_c, 5, 57, 48
11, 22319, Note_on_c, 5, 57, 0
11, 22440, Note_on_c, 5, 63, 48
11, 22559, Note_on_c, 5, 63, 0
11, 22560, Note_on_c, 5, 65, 48
11, 22679, Note_on_c, 5, 65, 0
11, 22680, Note_on_c, 5, 67, 48
11, 22739, Note_on_c, 5, 67, 0
11, 22740, Note_on_c, 5, 67, 48
11, 22799, Note_on_c, 5, 67, 0
11, 22800, Note_on_c, 5, 67, 48
11, 22859, Note_on_c, 5, 67, 0
11, 22860, Note_on_c, 5, 67, 48
11, 22919, Note_on_c, 5, 67, 0
11, 22920, Note_on_c, 5, 60, 48
11, 22979, Note_on_c, 5, 60, 0
11, 22980, Note_on_c, 5, 60, 48
11, 23039, Note_on_c, 5, 60, 0
11, 23040, Note_on_c, 5, 63, 48
11, 23099, Note_on_c, 5, 63, 0
11, 23100, Note_on_c, 5, 63, 48
11, 23159, Note_on_c, 5, 63, 0
11, 23160, Note_on_c, 5, 65, 48
11, 23219, Note_on_c, 5, 65, 0
11, 23220, Note_on_c, 5, 65, 48
11, 23279, Note_on_c, 5, 65, 0
11, 23280, Note_on_c, 5, 66, 48
11, 23339, Note_on_c, 5, 66, 0
11, 23340, Note_on_c, 5, 66, 48
11, 23399, Note_on_c, 5, 66, 0
11, 23400, Note_on_c, 5, 65, 48
11, 23459, Note_on_c, 5, 65, 0
11, 23460, Note_on_c, 5, 65, 48
11, 23519, Note_on_c, 5, 65, 0
11, 23520, Note_on_c, 5, 63, 48
11, 23579, Note_on_c, 5, 63, 0
11, 23580, Note_on_c, 5, 63, 48
11, 23639, Note_on_c, 5, 63, 0
11, 23640, Note_on_c, 5, 62, 48
11, 23699, Note_on_c, 5, 62, 0
11, 23700, Note_on_c, 5, 62, 48
11, 23759, Note_on_c, 5, 62, 0
11, 23760, Note_on_c, 5, 67, 48
11, 23819, Note_on_c, 5, 67, 0
11, 23820, Note_on_c, 5, 67, 48
11, 23879, Note_on_c, 5, 67, 0
11, 23880, Note_on_c, 5, 65, 48
11, 23939, Note_on_c, 5, 65, 0
11, 23940, Note_on_c, 5, 65, 48
11, 23999, Note_on_c, 5, 65, 0
11, 24000, Note_on_c, 5, 63, 48
11, 24059, Note_on_c, 5, 63, 0
11, 24060, Note_on_c, 5, 63, 48
11, 24119, Note_on_c, 5, 63, 0
11, 24120, Note_on_c, 5, 62, 48
11, 24239, Note_on_c, 5, 62, 0
11, 24300, Note_on_c, 5, 77, 66
11, 24329, Note_on_c, 5, 77, 0
11, 24330, Note_on_c, 5, 75, 66
11, 24359, Note_on_c, 5, 75, 0
11, 24360, Note_on_c, 5, 74, 66
11, 24419, Note_on_c, 5, 74, 0
11, 24420, Note_on_c, 5, 72, 66
11, 24479, Note_on_c, 5, 72, 0
11, 24480, Note_on_c, 5, 70, 66
11, 24539, Note_on_c, 5, 70, 0
11, 24540, Note_on_c, 5, 79, 66
11, 24569, Note_on_c, 5, 79, 0
11, 24570, Note_on_c, 5, 77, 66
11, 24599, Note_on_c, 5, 77, 0
11, 24600, Note_on_c, 5, 75, 66
11, 24659, Note_on_c, 5, 75, 0
11, 24660, Note_on_c, 5, 74, 66
11, 24719, Note_on_c, 5, 74, 0
11, 24720, Note_on_c, 5, 72, 66
11, 24779, Note_on_c, 5, 72, 0
11, 24780, Note_on_c, 5, 70, 66
11, 24839, Note_on_c, 5, 70, 0
11, 24840, Note_on_c, 5, 69, 66
11, 24899, Note_on_c, 5, 69, 0
11, 24900, Note_on_c, 5, 57, 66
11, 24959, Note_on_c, 5, 57, 0
11, 24960, Note_on_c, 5, 57, 66
11, 24974, Note_on_c, 5, 57, 0
11, 24975, Note_on_c, 5, 58, 66
11, 24989, Note_on_c, 5, 58, 0
11, 24990, Note_on_c, 5, 57, 66
11, 25004, Note_on_c, 5, 57, 0
11, 25005, Note_on_c, 5, 58, 66
11, 25019, Note_on_c, 5, 58, 0
11, 25020, Note_on_c, 5, 57, 66
11, 25034, Note_on_c, 5, 57, 0
11, 25035, Note_on_c, 5, 58, 66
11, 25049, Note_on_c, 5, 58, 0
11, 25050, Note_on_c, 5, 55, 66
11, 25064, Note_on_c, 5, 55, 0
11, 25065, Note_on_c, 5, 57, 66
11, 25079, Note_on_c, 5, 57, 0
11, 25080, Note_on_c, 5, 58, 66
11, 25139, Note_on_c, 5, 58, 0
11, 25140, Note_on_c, 5, 63, 66
11, 25199, Note_on_c, 5, 63, 0
11, 25200, Note_on_c, 5, 62, 66
11, 25259, Note_on_c, 5, 62, 0
11, 25260, Note_on_c, 5, 70, 66
11, 25379, Note_on_c, 5, 70, 0
11, 25380, Note_on_c, 5, 69, 66
11, 25409, Note_on_c, 5, 69, 0
11, 25410, Note_on_c, 5, 67, 66
11, 25439, Note_on_c, 5, 67, 0
11, 25440, Note_on_c, 5, 69, 66
11, 25559, Note_on_c, 5, 69, 0
11, 25560, Note_on_c, 5, 70, 66
11, 25619, Note_on_c, 5, 70, 0
11, 25620, Note_on_c, 5, 70, 48
11, 25679, Note_on_c, 5, 70, 0
11, 25740, Note_on_c, 5, 70, 48
11, 25799, Note_on_c, 5, 70, 0
11, 25860, Note_on_c, 5, 70, 48
11, 25919, Note_on_c, 5, 70, 0
11, 25980, Note_on_c, 5, 72, 48
11, 26039, Note_on_c, 5, 72, 0
11, 26100, Note_on_c, 5, 72, 48
11, 26159, Note_on_c, 5, 72, 0
11, 26220, Note_on_c, 5, 72, 48
11, 26279, Note_on_c, 5, 72, 0
11, 26340, Note_on_c, 5, 60, 48
11, 26399, Note_on_c, 5, 60, 0
11, 26460, Note_on_c, 5, 60, 48
11, 26519, Note_on_c, 5, 60, 0
11, 26580, Note_on_c, 5, 60, 48
11, 26639, Note_on_c, 5, 60, 0
11, 26700, Note_on_c, 5, 60, 48
11, 26759, Note_on_c, 5, 60, 0
11, 26820, Note_on_c, 5, 58, 48
11, 26879, Note_on_c, 5, 58, 0
11, 26940, Note_on_c, 5, 59, 72
11, 26999, Note_on_c, 5, 59, 0
11, 27060, Note_on_c, 5, 60, 72
11, 27119, Note_on_c, 5, 60, 0
11, 27180, Note_on_c, 5, 72, 48
11, 27239, Note_on_c, 5, 72, 0
11, 27300, Note_on_c, 5, 72, 48
11, 27359, Note_on_c, 5, 72, 0
11, 27420, Note_on_c, 5, 74, 48
11, 27479, Note_on_c, 5, 74, 0
11, 27540, Note_on_c, 5, 74, 48
11, 27599, Note_on_c, 5, 74, 0
11, 27660, Note_on_c, 5, 74, 48
11, 27719, Note_on_c, 5, 74, 0
11, 27780, Note_on_c, 5, 62, 48
11, 27839, Note_on_c, 5, 62, 0
11, 27900, Note_on_c, 5, 62, 48
11, 27959, Note_on_c, 5, 62, 0
11, 28020, Note_on_c, 5, 62, 48
11, 28079, Note_on_c, 5, 62, 0
11, 28140, Note_on_c, 5, 62, 48
11, 28199, Note_on_c, 5, 62, 0
11, 28260, Note_on_c, 5, 60, 48
11, 28319, Note_on_c, 5, 60, 0
11, 28380, Note_on_c, 5, 61, 72
11, 28439, Note_on_c, 5, 61, 0
11, 28500, Note_on_c, 5, 62, 72
11, 28559, Note_on_c, 5, 62, 0
11, 28620, Note_on_c, 5, 74, 48
11, 28679, Note_on_c, 5, 74, 0
11, 28740, Note_on_c, 5, 74, 48
11, 28799, Note_on_c, 5, 74, 0
11, 28860, Note_on_c, 5, 76, 48
11, 28919, Note_on_c, 5, 76, 0
11, 28980, Note_on_c, 5, 76, 48
11, 29039, Note_on_c, 5, 76, 0
11, 29100, Note_on_c, 5, 76, 48
11, 29159, Note_on_c, 5, 76, 0
11, 29220, Note_on_c, 5, 64, 48
11, 29279, Note_on_c, 5, 64, 0
11, 29340, Note_on_c, 5, 64, 48
11, 29399, Note_on_c, 5, 64, 0
11, 29460, Note_on_c, 5, 64, 48
11, 29519, Note_on_c, 5, 64, 0
11, 29580, Note_on_c, 5, 64, 48
11, 29639, Note_on_c, 5, 64, 0
11, 29700, Note_on_c, 5, 62, 48
11, 29759, Note_on_c, 5, 62, 0
11, 29880, Note_on_c, 5, 69, 48
11, 30119, Note_on_c, 5, 69, 0
11, 30120, Note_on_c, 5, 65, 48
11, 30239, Note_on_c, 5, 65, 0
11, 30240, Note_on_c, 5, 65, 48
11, 30299, Note_on_c, 5, 65, 0
11, 30360, Note_on_c, 5, 64, 48
11, 30419, Note_on_c, 5, 64, 0
11, 30600, Note_on_c, 5, 67, 48
11, 30839, Note_on_c, 5, 67, 0
11, 30840, Note_on_c, 5, 63, 48
11, 30959, Note_on_c, 5, 63, 0
11, 30960, Note_on_c, 5, 63, 48
11, 31019, Note_on_c, 5, 63, 0
11, 31080, Note_on_c, 5, 62, 48
11, 31139, Note_on_c, 5, 62, 0
11, 31200, Note_on_c, 5, 70, 48
11, 31259, Note_on_c, 5, 70, 0
11, 31260, Note_on_c, 5, 69, 48
11, 31319, Note_on_c, 5, 69, 0
11, 31320, Note_on_c, 5, 67, 48
11, 31499, Note_on_c, 5, 67, 0
11, 31500, Note_on_c, 5, 66, 48
11, 31559, Note_on_c, 5, 66, 0
11, 31560, Note_on_c, 5, 67, 48
11, 31619, Note_on_c, 5, 67, 0
11, 31620, Note_on_c, 5, 65, 48
11, 31679, Note_on_c, 5, 65, 0
11, 31680, Note_on_c, 5, 64, 48
11, 31859, Note_on_c, 5, 64, 0
11, 31860, Note_on_c, 5, 65, 48
11, 31919, Note_on_c, 5, 65, 0
11, 31920, Note_on_c, 5, 64, 48
11, 31979, Note_on_c, 5, 64, 0
11, 31980, Note_on_c, 5, 65, 48
11, 32039, Note_on_c, 5, 65, 0
11, 32040, Note_on_c, 5, 67, 48
11, 32279, Note_on_c, 5, 67, 0
11, 32280, Note_on_c, 5, 65, 48
11, 32399, Note_on_c, 5, 65, 0
11, 32400, Note_on_c, 5, 62, 72
11, 32459, Note_on_c, 5, 62, 0
11, 32460, Note_on_c, 5, 62, 48
11, 32519, Note_on_c, 5, 62, 0
11, 32520, Note_on_c, 5, 59, 48
11, 32579, Note_on_c, 5, 59, 0
11, 32580, Note_on_c, 5, 59, 48
11, 32639, Note_on_c, 5, 59, 0
11, 32640, Note_on_c, 5, 65, 48
11, 32699, Note_on_c, 5, 65, 0
11, 32700, Note_on_c, 5, 65, 48
11, 32759, Note_on_c, 5, 65, 0
11, 32760, Note_on_c, 5, 65, 48
11, 32819, Note_on_c, 5, 65, 0
11, 32820, Note_on_c, 5, 67, 48
11, 32849, Note_on_c, 5, 67, 0
11, 32850, Note_on_c, 5, 65, 48
11, 32879, Note_on_c, 5, 65, 0
11, 32880, Note_on_c, 5, 64, 48
11, 32939, Note_on_c, 5, 64, 0
11, 32940, Note_on_c, 5, 62, 48
11, 32999, Note_on_c, 5, 62, 0
11, 33000, Note_on_c, 5, 60, 48
11, 33059, Note_on_c, 5, 60, 0
11, 33060, Note_on_c, 5, 58, 48
11, 33119, Note_on_c, 5, 58, 0
11, 33120, Note_on_c, 5, 57, 48
11, 33239, Note_on_c, 5, 57, 0
11, 35280, Note_on_c, 5, 72, 48
11, 35759, Note_on_c, 5, 72, 0
11, 35760, Note_on_c, 5, 71, 48
11, 35879, Note_on_c, 5, 71, 0
11, 35880, Note_on_c, 5, 77, 48
11, 35999, Note_on_c, 5, 77, 0
11, 36000, Note_on_c, 5, 76, 48
11, 36179, Note_on_c, 5, 76, 0
11, 36180, Note_on_c, 5, 76, 48
11, 36209, Note_on_c, 5, 76, 0
11, 36210, Note_on_c, 5, 74, 48
11, 36239, Note_on_c, 5, 74, 0
11, 36240, Note_on_c, 5, 72, 48
11, 36299, Note_on_c, 5, 72, 0
11, 36300, Note_on_c, 5, 71, 48
11, 36359, Note_on_c, 5, 71, 0
11, 36360, Note_on_c, 5, 69, 48
11, 36419, Note_on_c, 5, 69, 0
11, 36420, Note_on_c, 5, 67, 48
11, 36479, Note_on_c, 5, 67, 0
11, 36480, Note_on_c, 5, 65, 48
11, 36539, Note_on_c, 5, 65, 0
11, 36540, Note_on_c, 5, 77, 48
11, 36569, Note_on_c, 5, 77, 0
11, 36570, Note_on_c, 5, 76, 48
11, 36599, Note_on_c, 5, 76, 0
11, 36600, Note_on_c, 5, 74, 48
11, 36659, Note_on_c, 5, 74, 0
11, 36660, Note_on_c, 5, 72, 48
11, 36719, Note_on_c, 5, 72, 0
11, 36720, Note_on_c, 5, 71, 48
11, 36779, Note_on_c, 5, 71, 0
11, 36780, Note_on_c, 5, 69, 48
11, 36839, Note_on_c, 5, 69, 0
11, 36840, Note_on_c, 5, 67, 48
11, 36899, Note_on_c, 5, 67, 0
11, 36900, Note_on_c, 5, 65, 48
11, 36959, Note_on_c, 5, 65, 0
11, 36960, Note_on_c, 5, 64, 48
11, 37019, Note_on_c, 5, 64, 0
11, 37020, Note_on_c, 5, 62, 48
11, 37049, Note_on_c, 5, 62, 0
11, 37050, Note_on_c, 5, 60, 48
11, 37079, Note_on_c, 5, 60, 0
11, 37080, Note_on_c, 5, 62, 48
11, 37439, Note_on_c, 5, 62, 0
11, 37440, Note_on_c, 5, 60, 48
11, 37559, Note_on_c, 5, 60, 0
11, 37560, Note_on_c, 5, 60, 72
11, 37619, Note_on_c, 5, 60, 0
11, 37620, Note_on_c, 5, 64, 72
11, 37649, Note_on_c, 5, 64, 0
11, 37650, Note_on_c, 5, 67, 72
11, 37679, Note_on_c, 5, 67, 0
11, 37680, Note_on_c, 5, 72, 72
11, 37739, Note_on_c, 5, 72, 0
11, 37740, Note_on_c, 5, 72, 72
11, 37799, Note_on_c, 5, 72, 0
11, 37800, Note_on_c, 5, 59, 72
11, 37919, Note_on_c, 5, 59, 0
11, 38280, Note_on_c, 5, 60, 72
11, 38339, Note_on_c, 5, 60, 0
11, 38340, Note_on_c, 5, 64, 72
11, 38369, Note_on_c, 5, 64, 0
11, 38370, Note_on_c, 5, 67, 72
11, 38399, Note_on_c, 5, 67, 0
11, 38400, Note_on_c, 5, 72, 72
11, 38459, Note_on_c, 5, 72, 0
11, 38460, Note_on_c, 5, 72, 72
11, 38519, Note_on_c, 5, 72, 0
11, 38520, Note_on_c, 5, 61, 72
11, 38639, Note_on_c, 5, 61, 0
11, 39000, Note_on_c, 5, 60, 48
11, 39059, Note_on_c, 5, 60, 0
11, 39060, Note_on_c, 5, 64, 48
11, 39089, Note_on_c, 5, 64, 0
11, 39090, Note_on_c, 5, 67, 48
11, 39119, Note_on_c, 5, 67, 0
11, 39120, Note_on_c, 5, 72, 48
11, 39179, Note_on_c, 5, 72, 0
11, 39180, Note_on_c, 5, 72, 48
11, 39239, Note_on_c, 5, 72, 0
11, 39240, Note_on_c, 5, 72, 48
11, 39359, Note_on_c, 5, 72, 0
11, 39720, Note_on_c, 5, 64, 48
11, 39839, Note_on_c, 5, 64, 0
11, 39840, Note_on_c, 5, 64, 48
11, 39959, Note_on_c, 5, 64, 0
11, 39960, Note_on_c, 5, 64, 48
11, 40139, Note_on_c, 5, 64, 0
11, 40140, Note_on_c, 5, 67, 48
11, 40169, Note_on_c, 5, 67, 0
11, 40170, Note_on_c, 5, 65, 48
11, 40199, Note_on_c, 5, 65, 0
11, 40200, Note_on_c, 5, 64, 48
11, 40319, Note_on_c, 5, 64, 0
11, 40440, Note_on_c, 5, 64, 48
11, 40559, Note_on_c, 5, 64, 0
11, 40560, Note_on_c, 5, 64, 48
11, 40679, Note_on_c, 5, 64, 0
11, 40680, Note_on_c, 5, 65, 48
11, 40919, Note_on_c, 5, 65, 0
11, 40920, Note_on_c, 5, 65, 48
11, 41039, Note_on_c, 5, 65, 0
11, 41040, Note_on_c, 5, 65, 48
11, 41159, Note_on_c, 5, 65, 0
11, 41160, Note_on_c, 5, 64, 48
11, 41279, Note_on_c, 5, 64, 0
11, 41280, Note_on_c, 5, 64, 48
11, 41399, Note_on_c, 5, 64, 0
11, 41400, Note_on_c, 5, 65, 48
11, 41459, Note_on_c, 5, 65, 0
11, 41460, Note_on_c, 5, 65, 48
11, 41519, Note_on_c, 5, 65, 0
11, 41520, Note_on_c, 5, 58, 48
11, 41579, Note_on_c, 5, 58, 0
11, 41580, Note_on_c, 5, 58, 48
11, 41639, Note_on_c, 5, 58, 0
11, 41640, Note_on_c, 5, 57, 48
11, 41699, Note_on_c, 5, 57, 0
11, 41700, Note_on_c, 5, 57, 48
11, 41759, Note_on_c, 5, 57, 0
11, 41760, Note_on_c, 5, 62, 48
11, 41819, Note_on_c, 5, 62, 0
11, 41820, Note_on_c, 5, 62, 48
11, 41879, Note_on_c, 5, 62, 0
11, 41880, Note_on_c, 5, 60, 48
11, 41939, Note_on_c, 5, 60, 0
11, 41940, Note_on_c, 5, 60, 48
11, 41999, Note_on_c, 5, 60, 0
11, 42000, Note_on_c, 5, 58, 48
11, 42059, Note_on_c, 5, 58, 0
11, 42060, Note_on_c, 5, 58, 48
11, 42119, Note_on_c, 5, 58, 0
11, 42120, Note_on_c, 5, 57, 48
11, 42239, Note_on_c, 5, 57, 0
11, 42480, Note_on_c, 5, 69, 48
11, 42659, Note_on_c, 5, 69, 0
11, 42660, Note_on_c, 5, 67, 48
11, 42719, Note_on_c, 5, 67, 0
11, 42720, Note_on_c, 5, 65, 48
11, 42779, Note_on_c, 5, 65, 0
11, 42780, Note_on_c, 5, 64, 48
11, 42839, Note_on_c, 5, 64, 0
11, 42840, Note_on_c, 5, 62, 48
11, 42899, Note_on_c, 5, 62, 0
11, 42900, Note_on_c, 5, 64, 48
11, 42959, Note_on_c, 5, 64, 0
11, 42960, Note_on_c, 5, 65, 48
11, 43019, Note_on_c, 5, 65, 0
11, 43020, Note_on_c, 5, 67, 48
11, 43079, Note_on_c, 5, 67, 0
11, 43080, Note_on_c, 5, 69, 48
11, 43139, Note_on_c, 5, 69, 0
11, 43140, Note_on_c, 5, 64, 48
11, 43199, Note_on_c, 5, 64, 0
11, 43200, Note_on_c, 5, 65, 48
11, 43259, Note_on_c, 5, 65, 0
11, 43260, Note_on_c, 5, 67, 48
11, 43319, Note_on_c, 5, 67, 0
11, 43320, Note_on_c, 5, 65, 48
11, 43379, Note_on_c, 5, 65, 0
11, 43380, Note_on_c, 5, 65, 48
11, 43439, Note_on_c, 5, 65, 0
11, 43440, Note_on_c, 5, 64, 48
11, 43499, Note_on_c, 5, 64, 0
11, 43500, Note_on_c, 5, 64, 48
11, 43559, Note_on_c, 5, 64, 0
11, 43560, Note_on_c, 5, 65, 48
11, 43679, Note_on_c, 5, 65, 0
11, 43920, Note_on_c, 5, 69, 48
11, 44099, Note_on_c, 5, 69, 0
11, 44100, Note_on_c, 5, 67, 48
11, 44159, Note_on_c, 5, 67, 0
11, 44160, Note_on_c, 5, 65, 48
11, 44219, Note_on_c, 5, 65, 0
11, 44220, Note_on_c, 5, 64, 48
11, 44279, Note_on_c, 5, 64, 0
11, 44280, Note_on_c, 5, 70, 48
11, 44519, Note_on_c, 5, 70, 0
11, 44520, Note_on_c, 5, 69, 48
11, 44579, Note_on_c, 5, 69, 0
11, 44580, Note_on_c, 5, 64, 48
11, 44639, Note_on_c, 5, 64, 0
11, 44640, Note_on_c, 5, 65, 48
11, 44699, Note_on_c, 5, 65, 0
11, 44700, Note_on_c, 5, 67, 48
11, 44759, Note_on_c, 5, 67, 0
11, 44760, Note_on_c, 5, 65, 48
11, 44819, Note_on_c, 5, 65, 0
11, 44820, Note_on_c, 5, 65, 48
11, 44879, Note_on_c, 5, 65, 0
11, 44880, Note_on_c, 5, 64, 48
11, 44939, Note_on_c, 5, 64, 0
11, 44940, Note_on_c, 5, 64, 48
11, 44999, Note_on_c, 5, 64, 0
11, 45000, Note_on_c, 5, 65, 48
11, 45119, Note_on_c, 5, 65, 0
11, 45180, Note_on_c, 5, 72, 48
11, 45209, Note_on_c, 5, 72, 0
11, 45210, Note_on_c, 5, 70, 48
11, 45239, Note_on_c, 5, 70, 0
11, 45240, Note_on_c, 5, 69, 48
11, 45299, Note_on_c, 5, 69, 0
11, 45300, Note_on_c, 5, 67, 48
11, 45359, Note_on_c, 5, 67, 0
11, 45360, Note_on_c, 5, 65, 48
11, 45419, Note_on_c, 5, 65, 0
11, 45420, Note_on_c, 5, 64, 48
11, 45479, Note_on_c, 5, 64, 0
11, 45480, Note_on_c, 5, 62, 48
11, 45539, Note_on_c, 5, 62, 0
11, 45540, Note_on_c, 5, 74, 48
11, 45569, Note_on_c, 5, 74, 0
11, 45570, Note_on_c, 5, 72, 48
11, 45599, Note_on_c, 5, 72, 0
11, 45600, Note_on_c, 5, 70, 48
11, 45659, Note_on_c, 5, 70, 0
11, 45660, Note_on_c, 5, 69, 48
11, 45719, Note_on_c, 5, 69, 0
11, 45720, Note_on_c, 5, 67, 48
11, 45779, Note_on_c, 5, 67, 0
11, 45780, Note_on_c, 5, 65, 48
11, 45839, Note_on_c, 5, 65, 0
11, 45840, Note_on_c, 5, 64, 48
11, 45899, Note_on_c, 5, 64, 0
11, 45900, Note_on_c, 5, 64, 48
11, 45929, Note_on_c, 5, 64, 0
11, 45930, Note_on_c, 5, 62, 48
11, 45959, Note_on_c, 5, 62, 0
11, 45960, Note_on_c, 5, 60, 48
11, 46019, Note_on_c, 5, 60, 0
11, 46020, Note_on_c, 5, 58, 48
11, 46079, Note_on_c, 5, 58, 0
11, 46080, Note_on_c, 5, 57, 48
11, 46139, Note_on_c, 5, 57, 0
11, 46140, Note_on_c, 5, 65, 48
11, 46259, Note_on_c, 5, 65, 0
11, 46260, Note_on_c, 5, 64, 48
11, 46289, Note_on_c, 5, 64, 0
11, 46290, Note_on_c, 5, 62, 48
11, 46319, Note_on_c, 5, 62, 0
11, 46320, Note_on_c, 5, 64, 48
11, 46439, Note_on_c, 5, 64, 0
11, 46440, Note_on_c, 5, 65, 48
11, 46529, Note_on_c, 5, 65, 0
11, 46530, Note_on_c, 5, 60, 48
11, 46559, Note_on_c, 5, 60, 0
11, 46560, Note_on_c, 5, 57, 48
11, 46679, Note_on_c, 5, 57, 0
11, 46679, End_track
12, 0, Start_track
12, 0, Title_t, "Viola"
12, 0, Program_c, 6, 48
12, 0, Control_c, 6, 7, 96
12, 0, Control_c, 6, 10, 80
12, 0, Control_c, 6, 11, 127
12, 2340, Note_on_c, 6, 48, 48
12, 2399, Note_on_c, 6, 48, 0
12, 2400, Note_on_c, 6, 50, 48
12, 2459, Note_on_c, 6, 50, 0
12, 2460, Note_on_c, 6, 52, 48
12, 2519, Note_on_c, 6, 52, 0
12, 2520, Note_on_c, 6, 53, 48
12, 2534, Note_on_c, 6, 53, 0
12, 2535, Note_on_c, 6, 55, 48
12, 2549, Note_on_c, 6, 55, 0
12, 2550, Note_on_c, 6, 53, 48
12, 2564, Note_on_c, 6, 53, 0
12, 2565, Note_on_c, 6, 55, 48
12, 2579, Note_on_c, 6, 55, 0
12, 2580, Note_on_c, 6, 53, 48
12, 2594, Note_on_c, 6, 53, 0
12, 2595, Note_on_c, 6, 55, 48
12, 2609, Note_on_c, 6, 55, 0
12, 2610, Note_on_c, 6, 55, 48
12, 2639, Note_on_c, 6, 55, 0
12, 2640, Note_on_c, 6, 57, 48
12, 2699, Note_on_c, 6, 57, 0
12, 2700, Note_on_c, 6, 50, 48
12, 2759, Note_on_c, 6, 50, 0
12, 2760, Note_on_c, 6, 52, 48
12, 2819, Note_on_c, 6, 52, 0
12, 2820, Note_on_c, 6, 53, 48
12, 2879, Note_on_c, 6, 53, 0
12, 2880, Note_on_c, 6, 55, 48
12, 2894, Note_on_c, 6, 55, 0
12, 2895, Note_on_c, 6, 57, 48
12, 2909, Note_on_c, 6, 57, 0
12, 2910, Note_on_c, 6, 55, 48
12, 2924, Note_on_c, 6, 55, 0
12, 2925, Note_on_c, 6, 57, 48
12, 2939, Note_on_c, 6, 57, 0
12, 2940, Note_on_c, 6, 55, 48
12, 2954, Note_on_c, 6, 55, 0
12, 2955, Note_on_c, 6, 57, 48
12, 2969, Note_on_c, 6, 57, 0
12, 2970, Note_on_c, 6, 57, 48
12, 2999, Note_on_c, 6, 57, 0
12, 3000, Note_on_c, 6, 58, 48
12, 3059, Note_on_c, 6, 58, 0
12, 3060, Note_on_c, 6, 52, 48
12, 3119, Note_on_c, 6, 52, 0
12, 3120, Note_on_c, 6, 53, 48
12, 3179, Note_on_c, 6, 53, 0
12, 3180, Note_on_c, 6, 55, 48
12, 3239, Note_on_c, 6, 55, 0
12, 3240, Note_on_c, 6, 57, 48
12, 3254, Note_on_c, 6, 57, 0
12, 3255, Note_on_c, 6, 58, 48
12, 3269, Note_on_c, 6, 58, 0
12, 3270, Note_on_c, 6, 57, 48
12, 3284, Note_on_c, 6, 57, 0
12, 3285, Note_on_c, 6, 58, 48
12, 3299, Note_on_c, 6, 58, 0
12, 3300, Note_on_c, 6, 57, 48
12, 3314, Note_on_c, 6, 57, 0
12, 3315, Note_on_c, 6, 58, 48
12, 3329, Note_on_c, 6, 58, 0
12, 3330, Note_on_c, 6, 58, 48
12, 3359, Note_on_c, 6, 58, 0
12, 3360, Note_on_c, 6, 60, 48
12, 3419, Note_on_c, 6, 60, 0
12, 3420, Note_on_c, 6, 53, 48
12, 3479, Note_on_c, 6, 53, 0
12, 3480, Note_on_c, 6, 55, 48
12, 3539, Note_on_c, 6, 55, 0
12, 3540, Note_on_c, 6, 57, 48
12, 3599, Note_on_c, 6, 57, 0
12, 3600, Note_on_c, 6, 58, 48
12, 3614, Note_on_c, 6, 58, 0
12, 3615, Note_on_c, 6, 60, 48
12, 3629, Note_on_c, 6, 60, 0
12, 3630, Note_on_c, 6, 58, 48
12, 3644, Note_on_c, 6, 58, 0
12, 3645, Note_on_c, 6, 60, 48
12, 3659, Note_on_c, 6, 60, 0
12, 3660, Note_on_c, 6, 58, 48
12, 3674, Note_on_c, 6, 58, 0
12, 3675, Note_on_c, 6, 60, 48
12, 3689, Note_on_c, 6, 60, 0
12, 3690, Note_on_c, 6, 60, 48
12, 3719, Note_on_c, 6, 60, 0
12, 3720, Note_on_c, 6, 62, 48
12, 3779, Note_on_c, 6, 62, 0
12, 3780, Note_on_c, 6, 55, 48
12, 3839, Note_on_c, 6, 55, 0
12, 3840, Note_on_c, 6, 57, 48
12, 3899, Note_on_c, 6, 57, 0
12, 3900, Note_on_c, 6, 58, 48
12, 3959, Note_on_c, 6, 58, 0
12, 3960, Note_on_c, 6, 60, 48
12, 4139, Note_on_c, 6, 60, 0
12, 4140, Note_on_c, 6, 48, 48
12, 4199, Note_on_c, 6, 48, 0
12, 4200, Note_on_c, 6, 50, 48
12, 4259, Note_on_c, 6, 50, 0
12, 4260, Note_on_c, 6, 52, 48
12, 4319, Note_on_c, 6, 52, 0
12, 4320, Note_on_c, 6, 53, 48
12, 4379, Note_on_c, 6, 53, 0
12, 4380, Note_on_c, 6, 60, 48
12, 4439, Note_on_c, 6, 60, 0
12, 4440, Note_on_c, 6, 62, 48
12, 4499, Note_on_c, 6, 62, 0
12, 4500, Note_on_c, 6, 58, 48
12, 4559, Note_on_c, 6, 58, 0
12, 4560, Note_on_c, 6, 55, 48
12, 4619, Note_on_c, 6, 55, 0
12, 4620, Note_on_c, 6, 60, 48
12, 4679, Note_on_c, 6, 60, 0
12, 4680, Note_on_c, 6, 57, 48
12, 4739, Note_on_c, 6, 57, 0
12, 5040, Note_on_c, 6, 67, 48
12, 5519, Note_on_c, 6, 67, 0
12, 5520, Note_on_c, 6, 65, 48
12, 5639, Note_on_c, 6, 65, 0
12, 5640, Note_on_c, 6, 72, 48
12, 5759, Note_on_c, 6, 72, 0
12, 5760, Note_on_c, 6, 70, 48
12, 5999, Note_on_c, 6, 70, 0
12, 6000, Note_on_c, 6, 70, 48
12, 6239, Note_on_c, 6, 70, 0
12, 6240, Note_on_c, 6, 69, 48
12, 6479, Note_on_c, 6, 69, 0
12, 6480, Note_on_c, 6, 67, 48
12, 6599, Note_on_c, 6, 67, 0
12, 6600, Note_on_c, 6, 67, 48
12, 6749, Note_on_c, 6, 67, 0
12, 6750, Note_on_c, 6, 65, 48
12, 6779, Note_on_c, 6, 65, 0
12, 6780, Note_on_c, 6, 64, 48
12, 6809, Note_on_c, 6, 64, 0
12, 6810, Note_on_c, 6, 65, 48
12, 6839, Note_on_c, 6, 65, 0
12, 6840, Note_on_c, 6, 64, 48
12, 6899, Note_on_c, 6, 64, 0
12, 6900, Note_on_c, 6, 64, 48
12, 6929, Note_on_c, 6, 64, 0
12, 6930, Note_on_c, 6, 62, 48
12, 6959, Note_on_c, 6, 62, 0
12, 6960, Note_on_c, 6, 60, 48
12, 7019, Note_on_c, 6, 60, 0
12, 7020, Note_on_c, 6, 59, 48
12, 7079, Note_on_c, 6, 59, 0
12, 7080, Note_on_c, 6, 57, 48
12, 7139, Note_on_c, 6, 57, 0
12, 7140, Note_on_c, 6, 55, 48
12, 7199, Note_on_c, 6, 55, 0
12, 7200, Note_on_c, 6, 57, 48
12, 7259, Note_on_c, 6, 57, 0
12, 7260, Note_on_c, 6, 62, 48
12, 7289, Note_on_c, 6, 62, 0
12, 7290, Note_on_c, 6, 60, 48
12, 7319, Note_on_c, 6, 60, 0
12, 7320, Note_on_c, 6, 59, 48
12, 7379, Note_on_c, 6, 59, 0
12, 7380, Note_on_c, 6, 57, 48
12, 7439, Note_on_c, 6, 57, 0
12, 7440, Note_on_c, 6, 55, 48
12, 7499, Note_on_c, 6, 55, 0
12, 7500, Note_on_c, 6, 53, 48
12, 7559, Note_on_c, 6, 53, 0
12, 7560, Note_on_c, 6, 52, 48
12, 7619, Note_on_c, 6, 52, 0
12, 7620, Note_on_c, 6, 64, 48
12, 7649, Note_on_c, 6, 64, 0
12, 7650, Note_on_c, 6, 62, 48
12, 7679, Note_on_c, 6, 62, 0
12, 7680, Note_on_c, 6, 60, 48
12, 7739, Note_on_c, 6, 60, 0
12, 7740, Note_on_c, 6, 59, 48
12, 7799, Note_on_c, 6, 59, 0
12, 7800, Note_on_c, 6, 57, 48
12, 7859, Note_on_c, 6, 57, 0
12, 7860, Note_on_c, 6, 55, 48
12, 7919, Note_on_c, 6, 55, 0
12, 7920, Note_on_c, 6, 53, 48
12, 7979, Note_on_c, 6, 53, 0
12, 7980, Note_on_c, 6, 65, 48
12, 8009, Note_on_c, 6, 65, 0
12, 8010, Note_on_c, 6, 64, 48
12, 8039, Note_on_c, 6, 64, 0
12, 8040, Note_on_c, 6, 62, 48
12, 8099, Note_on_c, 6, 62, 0
12, 8100, Note_on_c, 6, 60, 48
12, 8159, Note_on_c, 6, 60, 0
12, 8160, Note_on_c, 6, 59, 48
12, 8219, Note_on_c, 6, 59, 0
12, 8220, Note_on_c, 6, 57, 48
12, 8279, Note_on_c, 6, 57, 0
12, 8280, Note_on_c, 6, 55, 48
12, 8339, Note_on_c, 6, 55, 0
12, 8340, Note_on_c, 6, 57, 48
12, 8399, Note_on_c, 6, 57, 0
12, 8400, Note_on_c, 6, 59, 48
12, 8459, Note_on_c, 6, 59, 0
12, 8460, Note_on_c, 6, 57, 48
12, 8489, Note_on_c, 6, 57, 0
12, 8490, Note_on_c, 6, 59, 48
12, 8519, Note_on_c, 6, 59, 0
12, 8520, Note_on_c, 6, 60, 48
12, 8579, Note_on_c, 6, 60, 0
12, 8580, Note_on_c, 6, 59, 48
12, 8609, Note_on_c, 6, 59, 0
12, 8610, Note_on_c, 6, 60, 48
12, 8639, Note_on_c, 6, 60, 0
12, 8640, Note_on_c, 6, 67, 48
12, 8819, Note_on_c, 6, 67, 0
12, 8820, Note_on_c, 6, 67, 48
12, 8879, Note_on_c, 6, 67, 0
12, 8880, Note_on_c, 6, 67, 48
12, 8939, Note_on_c, 6, 67, 0
12, 8940, Note_on_c, 6, 69, 48
12, 8999, Note_on_c, 6, 69, 0
12, 9000, Note_on_c, 6, 62, 48
12, 9059, Note_on_c, 6, 62, 0
12, 9060, Note_on_c, 6, 55, 48
12, 9119, Note_on_c, 6, 55, 0
12, 9120, Note_on_c, 6, 55, 48
12, 9179, Note_on_c, 6, 55, 0
12, 9180, Note_on_c, 6, 55, 48
12, 9239, Note_on_c, 6, 55, 0
12, 9240, Note_on_c, 6, 55, 48
12, 9299, Note_on_c, 6, 55, 0
12, 9300, Note_on_c, 6, 55, 48
12, 9359, Note_on_c, 6, 55, 0
12, 9360, Note_on_c, 6, 56, 48
12, 9419, Note_on_c, 6, 56, 0
12, 9420, Note_on_c, 6, 56, 48
12, 9479, Note_on_c, 6, 56, 0
12, 9480, Note_on_c, 6, 56, 48
12, 9539, Note_on_c, 6, 56, 0
12, 9540, Note_on_c, 6, 56, 48
12, 9599, Note_on_c, 6, 56, 0
12, 9600, Note_on_c, 6, 55, 48
12, 9659, Note_on_c, 6, 55, 0
12, 9660, Note_on_c, 6, 55, 48
12, 9719, Note_on_c, 6, 55, 0
12, 9720, Note_on_c, 6, 53, 48
12, 9779, Note_on_c, 6, 53, 0
12, 9780, Note_on_c, 6, 53, 48
12, 9839, Note_on_c, 6, 53, 0
12, 9840, Note_on_c, 6, 53, 48
12, 9899, Note_on_c, 6, 53, 0
12, 9900, Note_on_c, 6, 53, 48
12, 9959, Note_on_c, 6, 53, 0
12, 9960, Note_on_c, 6, 55, 48
12, 10019, Note_on_c, 6, 55, 0
12, 10020, Note_on_c, 6, 55, 48
12, 10079, Note_on_c, 6, 55, 0
12, 10080, Note_on_c, 6, 56, 48
12, 10139, Note_on_c, 6, 56, 0
12, 10140, Note_on_c, 6, 56, 48
12, 10199, Note_on_c, 6, 56, 0
12, 10200, Note_on_c, 6, 65, 48
12, 10259, Note_on_c, 6, 65, 0
12, 10260, Note_on_c, 6, 65, 48
12, 10319, Note_on_c, 6, 65, 0
12, 10320, Note_on_c, 6, 67, 48
12, 10379, Note_on_c, 6, 67, 0
12, 10380, Note_on_c, 6, 67, 48
12, 10439, Note_on_c, 6, 67, 0
12, 10440, Note_on_c, 6, 69, 48
12, 10499, Note_on_c, 6, 69, 0
12, 10500, Note_on_c, 6, 69, 48
12, 10559, Note_on_c, 6, 69, 0
12, 10560, Note_on_c, 6, 69, 48
12, 10619, Note_on_c, 6, 69, 0
12, 10620, Note_on_c, 6, 69, 48
12, 10679, Note_on_c, 6, 69, 0
12, 10680, Note_on_c, 6, 62, 48
12, 10739, Note_on_c, 6, 62, 0
12, 10740, Note_on_c, 6, 62, 48
12, 10799, Note_on_c, 6, 62, 0
12, 10800, Note_on_c, 6, 65, 48
12, 10859, Note_on_c, 6, 65, 0
12, 10860, Note_on_c, 6, 65, 48
12, 10919, Note_on_c, 6, 65, 0
12, 10920, Note_on_c, 6, 67, 48
12, 10979, Note_on_c, 6, 67, 0
12, 10980, Note_on_c, 6, 67, 48
12, 11039, Note_on_c, 6, 67, 0
12, 11040, Note_on_c, 6, 68, 48
12, 11099, Note_on_c, 6, 68, 0
12, 11100, Note_on_c, 6, 68, 48
12, 11159, Note_on_c, 6, 68, 0
12, 11160, Note_on_c, 6, 67, 48
12, 11219, Note_on_c, 6, 67, 0
12, 11220, Note_on_c, 6, 67, 48
12, 11279, Note_on_c, 6, 67, 0
12, 11280, Note_on_c, 6, 62, 48
12, 11339, Note_on_c, 6, 62, 0
12, 11340, Note_on_c, 6, 62, 48
12, 11399, Note_on_c, 6, 62, 0
12, 11400, Note_on_c, 6, 60, 48
12, 11459, Note_on_c, 6, 60, 0
12, 11460, Note_on_c, 6, 60, 48
12, 11519, Note_on_c, 6, 60, 0
12, 11520, Note_on_c, 6, 65, 48
12, 11579, Note_on_c, 6, 65, 0
12, 11580, Note_on_c, 6, 65, 48
12, 11639, Note_on_c, 6, 65, 0
12, 11640, Note_on_c, 6, 64, 48
12, 11699, Note_on_c, 6, 64, 0
12, 11700, Note_on_c, 6, 64, 48
12, 11759, Note_on_c, 6, 64, 0
12, 11760, Note_on_c, 6, 62, 48
12, 11819, Note_on_c, 6, 62, 0
12, 11820, Note_on_c, 6, 62, 48
12, 11879, Note_on_c, 6, 62, 0
12, 11880, Note_on_c, 6, 60, 48
12, 11999, Note_on_c, 6, 60, 0
12, 12780, Note_on_c, 6, 67, 66
12, 12809, Note_on_c, 6, 67, 0
12, 12810, Note_on_c, 6, 65, 66
12, 12839, Note_on_c, 6, 65, 0
12, 12840, Note_on_c, 6, 64, 66
12, 12899, Note_on_c, 6, 64, 0
12, 12900, Note_on_c, 6, 62, 66
12, 12959, Note_on_c, 6, 62, 0
12, 12960, Note_on_c, 6, 60, 66
12, 13019, Note_on_c, 6, 60, 0
12, 13020, Note_on_c, 6, 67, 66
12, 13079, Note_on_c, 6, 67, 0
12, 13080, Note_on_c, 6, 69, 66
12, 13139, Note_on_c, 6, 69, 0
12, 13140, Note_on_c, 6, 65, 66
12, 13199, Note_on_c, 6, 65, 0
12, 13200, Note_on_c, 6, 62, 66
12, 13259, Note_on_c, 6, 62, 0
12, 13260, Note_on_c, 6, 67, 66
12, 13319, Note_on_c, 6, 67, 0
12, 13320, Note_on_c, 6, 64, 66
12, 13379, Note_on_c, 6, 64, 0
12, 13380, Note_on_c, 6, 63, 48
12, 13439, Note_on_c, 6, 63, 0
12, 13440, Note_on_c, 6, 63, 48
12, 13499, Note_on_c, 6, 63, 0
12, 13500, Note_on_c, 6, 63, 48
12, 13559, Note_on_c, 6, 63, 0
12, 13560, Note_on_c, 6, 63, 48
12, 13619, Note_on_c, 6, 63, 0
12, 13620, Note_on_c, 6, 63, 48
12, 13679, Note_on_c, 6, 63, 0
12, 13680, Note_on_c, 6, 62, 48
12, 13739, Note_on_c, 6, 62, 0
12, 13740, Note_on_c, 6, 65, 48
12, 13799, Note_on_c, 6, 65, 0
12, 13800, Note_on_c, 6, 65, 48
12, 13829, Note_on_c, 6, 65, 0
12, 13860, Note_on_c, 6, 65, 48
12, 13889, Note_on_c, 6, 65, 0
12, 13920, Note_on_c, 6, 65, 48
12, 13949, Note_on_c, 6, 65, 0
12, 13980, Note_on_c, 6, 65, 48
12, 14009, Note_on_c, 6, 65, 0
12, 14040, Note_on_c, 6, 63, 48
12, 14099, Note_on_c, 6, 63, 0
12, 14100, Note_on_c, 6, 60, 48
12, 14159, Note_on_c, 6, 60, 0
12, 14160, Note_on_c, 6, 63, 48
12, 14189, Note_on_c, 6, 63, 0
12, 14220, Note_on_c, 6, 65, 48
12, 14249, Note_on_c, 6, 65, 0
12, 14280, Note_on_c, 6, 67, 48
12, 14309, Note_on_c, 6, 67, 0
12, 14340, Note_on_c, 6, 68, 48
12, 14369, Note_on_c, 6, 68, 0
12, 14400, Note_on_c, 6, 67, 48
12, 14519, Note_on_c, 6, 67, 0
12, 14580, Note_on_c, 6, 67, 48
12, 14639, Note_on_c, 6, 67, 0
12, 14640, Note_on_c, 6, 69, 48
12, 14699, Note_on_c, 6, 69, 0
12, 14700, Note_on_c, 6, 67, 48
12, 14759, Note_on_c, 6, 67, 0
12, 14760, Note_on_c, 6, 65, 48
12, 14819, Note_on_c, 6, 65, 0
12, 14820, Note_on_c, 6, 65, 48
12, 14879, Note_on_c, 6, 65, 0
12, 14880, Note_on_c, 6, 65, 48
12, 14939, Note_on_c, 6, 65, 0
12, 14940, Note_on_c, 6, 65, 48
12, 14999, Note_on_c, 6, 65, 0
12, 15000, Note_on_c, 6, 65, 48
12, 15059, Note_on_c, 6, 65, 0
12, 15060, Note_on_c, 6, 65, 48
12, 15119, Note_on_c, 6, 65, 0
12, 15120, Note_on_c, 6, 64, 48
12, 15179, Note_on_c, 6, 64, 0
12, 15180, Note_on_c, 6, 67, 48
12, 15239, Note_on_c, 6, 67, 0
12, 15240, Note_on_c, 6, 67, 48
12, 15299, Note_on_c, 6, 67, 0
12, 15300, Note_on_c, 6, 67, 48
12, 15359, Note_on_c, 6, 67, 0
12, 15360, Note_on_c, 6, 67, 48
12, 15419, Note_on_c, 6, 67, 0
12, 15420, Note_on_c, 6, 67, 48
12, 15479, Note_on_c, 6, 67, 0
12, 15480, Note_on_c, 6, 65, 48
12, 15539, Note_on_c, 6, 65, 0
12, 15540, Note_on_c, 6, 53, 48
12, 15569, Note_on_c, 6, 53, 0
12, 15570, Note_on_c, 6, 52, 48
12, 15599, Note_on_c, 6, 52, 0
12, 15600, Note_on_c, 6, 53, 48
12, 15659, Note_on_c, 6, 53, 0
12, 15660, Note_on_c, 6, 55, 48
12, 15719, Note_on_c, 6, 55, 0
12, 15720, Note_on_c, 6, 57, 48
12, 15779, Note_on_c, 6, 57, 0
12, 15780, Note_on_c, 6, 58, 48
12, 15839, Note_on_c, 6, 58, 0
12, 15840, Note_on_c, 6, 57, 48
12, 15899, Note_on_c, 6, 57, 0
12, 15900, Note_on_c, 6, 57, 48
12, 15959, Note_on_c, 6, 57, 0
12, 15960, Note_on_c, 6, 69, 48
12, 16019, Note_on_c, 6, 69, 0
12, 16020, Note_on_c, 6, 64, 48
12, 16079, Note_on_c, 6, 64, 0
12, 16080, Note_on_c, 6, 62, 48
12, 16139, Note_on_c, 6, 62, 0
12, 16140, Note_on_c, 6, 61, 48
12, 16199, Note_on_c, 6, 61, 0
12, 16200, Note_on_c, 6, 62, 48
12, 16259, Note_on_c, 6, 62, 0
12, 16260, Note_on_c, 6, 66, 48
12, 16289, Note_on_c, 6, 66, 0
12, 16290, Note_on_c, 6, 64, 48
12, 16319, Note_on_c, 6, 64, 0
12, 16320, Note_on_c, 6, 62, 48
12, 16379, Note_on_c, 6, 62, 0
12, 16380, Note_on_c, 6, 60, 48
12, 16439, Note_on_c, 6, 60, 0
12, 16440, Note_on_c, 6, 58, 48
12, 16499, Note_on_c, 6, 58, 0
12, 16500, Note_on_c, 6, 57, 48
12, 16559, Note_on_c, 6, 57, 0
12, 16560, Note_on_c, 6, 55, 48
12, 16619, Note_on_c, 6, 55, 0
12, 16620, Note_on_c, 6, 64, 48
12, 16649, Note_on_c, 6, 64, 0
12, 16650, Note_on_c, 6, 62, 48
12, 16679, Note_on_c, 6, 62, 0
12, 16680, Note_on_c, 6, 60, 48
12, 16739, Note_on_c, 6, 60, 0
12, 16740, Note_on_c, 6, 58, 48
12, 16799, Note_on_c, 6, 58, 0
12, 16800, Note_on_c, 6, 57, 48
12, 16859, Note_on_c, 6, 57, 0
12, 16860, Note_on_c, 6, 55, 48
12, 16919, Note_on_c, 6, 55, 0
12, 16920, Note_on_c, 6, 53, 48
12, 16979, Note_on_c, 6, 53, 0
12, 16980, Note_on_c, 6, 62, 48
12, 17009, Note_on_c, 6, 62, 0
12, 17010, Note_on_c, 6, 60, 48
12, 17039, Note_on_c, 6, 60, 0
12, 17040, Note_on_c, 6, 58, 48
12, 17099, Note_on_c, 6, 58, 0
12, 17100, Note_on_c, 6, 57, 48
12, 17159, Note_on_c, 6, 57, 0
12, 17160, Note_on_c, 6, 55, 48
12, 17219, Note_on_c, 6, 55, 0
12, 17220, Note_on_c, 6, 53, 48
12, 17279, Note_on_c, 6, 53, 0
12, 17280, Note_on_c, 6, 52, 48
12, 17339, Note_on_c, 6, 52, 0
12, 17340, Note_on_c, 6, 61, 48
12, 17369, Note_on_c, 6, 61, 0
12, 17370, Note_on_c, 6, 59, 48
12, 17399, Note_on_c, 6, 59, 0
12, 17400, Note_on_c, 6, 57, 48
12, 17459, Note_on_c, 6, 57, 0
12, 17460, Note_on_c, 6, 55, 48
12, 17519, Note_on_c, 6, 55, 0
12, 17520, Note_on_c, 6, 53, 48
12, 17579, Note_on_c, 6, 53, 0
12, 17580, Note_on_c, 6, 52, 48
12, 17639, Note_on_c, 6, 52, 0
12, 17640, Note_on_c, 6, 50, 48
12, 17699, Note_on_c, 6, 50, 0
12, 17700, Note_on_c, 6, 65, 48
12, 17729, Note_on_c, 6, 65, 0
12, 17760, Note_on_c, 6, 65, 48
12, 17789, Note_on_c, 6, 65, 0
12, 17820, Note_on_c, 6, 67, 48
12, 17849, Note_on_c, 6, 67, 0
12, 17880, Note_on_c, 6, 68, 48
12, 17909, Note_on_c, 6, 68, 0
12, 17940, Note_on_c, 6, 69, 48
12, 17969, Note_on_c, 6, 69, 0
12, 18000, Note_on_c, 6, 70, 48
12, 18059, Note_on_c, 6, 70, 0
12, 18060, Note_on_c, 6, 70, 48
12, 18119, Note_on_c, 6, 70, 0
12, 18120, Note_on_c, 6, 69, 48
12, 18179, Note_on_c, 6, 69, 0
12, 18180, Note_on_c, 6, 69, 48
12, 18239, Note_on_c, 6, 69, 0
12, 18240, Note_on_c, 6, 69, 48
12, 18299, Note_on_c, 6, 69, 0
12, 18300, Note_on_c, 6, 69, 48
12, 18359, Note_on_c, 6, 69, 0
12, 18360, Note_on_c, 6, 69, 48
12, 18419, Note_on_c, 6, 69, 0
12, 18420, Note_on_c, 6, 53, 66
12, 18449, Note_on_c, 6, 53, 0
12, 18450, Note_on_c, 6, 55, 66
12, 18479, Note_on_c, 6, 55, 0
12, 18480, Note_on_c, 6, 57, 66
12, 18539, Note_on_c, 6, 57, 0
12, 18540, Note_on_c, 6, 59, 66
12, 18599, Note_on_c, 6, 59, 0
12, 18600, Note_on_c, 6, 61, 66
12, 18659, Note_on_c, 6, 61, 0
12, 18660, Note_on_c, 6, 62, 66
12, 18719, Note_on_c, 6, 62, 0
12, 18720, Note_on_c, 6, 60, 66
12, 18959, Note_on_c, 6, 60, 0
12, 18960, Note_on_c, 6, 53, 66
12, 19079, Note_on_c, 6, 53, 0
12, 19080, Note_on_c, 6, 53, 66
12, 19139, Note_on_c, 6, 53, 0
12, 19140, Note_on_c, 6, 58, 48
12, 19169, Note_on_c, 6, 58, 0
12, 19170, Note_on_c, 6, 60, 48
12, 19199, Note_on_c, 6, 60, 0
12, 19200, Note_on_c, 6, 62, 48
12, 19259, Note_on_c, 6, 62, 0
12, 19260, Note_on_c, 6, 63, 48
12, 19319, Note_on_c, 6, 63, 0
12, 19320, Note_on_c, 6, 65, 48
12, 19379, Note_on_c, 6, 65, 0
12, 19380, Note_on_c, 6, 67, 48
12, 19439, Note_on_c, 6, 67, 0
12, 19440, Note_on_c, 6, 63, 48
12, 19499, Note_on_c, 6, 63, 0
12, 19500, Note_on_c, 6, 64, 48
12, 19559, Note_on_c, 6, 64, 0
12, 19560, Note_on_c, 6, 65, 48
12, 19619, Note_on_c, 6, 65, 0
12, 19620, Note_on_c, 6, 63, 48
12, 19679, Note_on_c, 6, 63, 0
12, 19680, Note_on_c, 6, 60, 48
12, 19739, Note_on_c, 6, 60, 0
12, 19740, Note_on_c, 6, 57, 48
12, 19799, Note_on_c, 6, 57, 0
12, 19800, Note_on_c, 6, 58, 48
12, 19859, Note_on_c, 6, 58, 0
12, 19860, Note_on_c, 6, 54, 48
12, 19919, Note_on_c, 6, 54, 0
12, 19920, Note_on_c, 6, 55, 48
12, 19979, Note_on_c, 6, 55, 0
12, 19980, Note_on_c, 6, 53, 48
12, 20039, Note_on_c, 6, 53, 0
12, 20040, Note_on_c, 6, 51, 48
12, 20099, Note_on_c, 6, 51, 0
12, 20100, Note_on_c, 6, 50, 48
12, 20159, Note_on_c, 6, 50, 0
12, 20160, Note_on_c, 6, 48, 48
12, 20219, Note_on_c, 6, 48, 0
12, 20220, Note_on_c, 6, 59, 48
12, 20279, Note_on_c, 6, 59, 0
12, 20280, Note_on_c, 6, 60, 48
12, 20339, Note_on_c, 6, 60, 0
12, 20340, Note_on_c, 6, 55, 48
12, 20399, Note_on_c, 6, 55, 0
12, 20400, Note_on_c, 6, 57, 48
12, 20459, Note_on_c, 6, 57, 0
12, 20460, Note_on_c, 6, 51, 48
12, 20519, Note_on_c, 6, 51, 0
12, 20520, Note_on_c, 6, 50, 48
12, 20579, Note_on_c, 6, 50, 0
12, 20580, Note_on_c, 6, 57, 48
12, 20639, Note_on_c, 6, 57, 0
12, 20640, Note_on_c, 6, 58, 48
12, 20699, Note_on_c, 6, 58, 0
12, 20700, Note_on_c, 6, 59, 48
12, 20759, Note_on_c, 6, 59, 0
12, 20760, Note_on_c, 6, 60, 48
12, 20819, Note_on_c, 6, 60, 0
12, 20820, Note_on_c, 6, 55, 48
12, 20879, Note_on_c, 6, 55, 0
12, 20880, Note_on_c, 6, 56, 48
12, 20939, Note_on_c, 6, 56, 0
12, 20940, Note_on_c, 6, 57, 48
12, 20999, Note_on_c, 6, 57, 0
12, 21000, Note_on_c, 6, 58, 48
12, 21059, Note_on_c, 6, 58, 0
12, 21060, Note_on_c, 6, 55, 48
12, 21119, Note_on_c, 6, 55, 0
12, 21120, Note_on_c, 6, 50, 48
12, 21179, Note_on_c, 6, 50, 0
12, 21180, Note_on_c, 6, 52, 48
12, 21239, Note_on_c, 6, 52, 0
12, 21240, Note_on_c, 6, 53, 48
12, 21299, Note_on_c, 6, 53, 0
12, 21300, Note_on_c, 6, 53, 48
12, 21359, Note_on_c, 6, 53, 0
12, 21360, Note_on_c, 6, 53, 48
12, 21419, Note_on_c, 6, 53, 0
12, 21420, Note_on_c, 6, 53, 48
12, 21479, Note_on_c, 6, 53, 0
12, 21480, Note_on_c, 6, 53, 48
12, 21539, Note_on_c, 6, 53, 0
12, 21540, Note_on_c, 6, 53, 48
12, 21599, Note_on_c, 6, 53, 0
12, 21600, Note_on_c, 6, 54, 48
12, 21659, Note_on_c, 6, 54, 0
12, 21660, Note_on_c, 6, 54, 48
12, 21719, Note_on_c, 6, 54, 0
12, 21720, Note_on_c, 6, 54, 48
12, 21779, Note_on_c, 6, 54, 0
12, 21780, Note_on_c, 6, 54, 48
12, 21839, Note_on_c, 6, 54, 0
12, 21840, Note_on_c, 6, 53, 48
12, 21899, Note_on_c, 6, 53, 0
12, 21900, Note_on_c, 6, 53, 48
12, 21959, Note_on_c, 6, 53, 0
12, 21960, Note_on_c, 6, 51, 48
12, 22019, Note_on_c, 6, 51, 0
12, 22020, Note_on_c, 6, 51, 48
12, 22079, Note_on_c, 6, 51, 0
12, 22080, Note_on_c, 6, 51, 48
12, 22139, Note_on_c, 6, 51, 0
12, 22140, Note_on_c, 6, 51, 48
12, 22199, Note_on_c, 6, 51, 0
12, 22200, Note_on_c, 6, 53, 48
12, 22259, Note_on_c, 6, 53, 0
12, 22260, Note_on_c, 6, 53, 48
12, 22319, Note_on_c, 6, 53, 0
12, 22320, Note_on_c, 6, 54, 48
12, 22379, Note_on_c, 6, 54, 0
12, 22380, Note_on_c, 6, 54, 48
12, 22439, Note_on_c, 6, 54, 0
12, 22440, Note_on_c, 6, 54, 48
12, 22499, Note_on_c, 6, 54, 0
12, 22500, Note_on_c, 6, 54, 48
12, 22559, Note_on_c, 6, 54, 0
12, 22560, Note_on_c, 6, 58, 48
12, 22619, Note_on_c, 6, 58, 0
12, 22620, Note_on_c, 6, 58, 48
12, 22679, Note_on_c, 6, 58, 0
12, 22680, Note_on_c, 6, 58, 48
12, 22739, Note_on_c, 6, 58, 0
12, 22740, Note_on_c, 6, 58, 48
12, 22799, Note_on_c, 6, 58, 0
12, 22800, Note_on_c, 6, 58, 48
12, 22859, Note_on_c, 6, 58, 0
12, 22860, Note_on_c, 6, 58, 48
12, 22919, Note_on_c, 6, 58, 0
12, 22920, Note_on_c, 6, 58, 48
12, 22979, Note_on_c, 6, 58, 0
12, 22980, Note_on_c, 6, 58, 48
12, 23039, Note_on_c, 6, 58, 0
12, 23040, Note_on_c, 6, 58, 48
12, 23099, Note_on_c, 6, 58, 0
12, 23100, Note_on_c, 6, 58, 48
12, 23159, Note_on_c, 6, 58, 0
12, 23160, Note_on_c, 6, 57, 48
12, 23219, Note_on_c, 6, 57, 0
12, 23220, Note_on_c, 6, 57, 48
12, 23279, Note_on_c, 6, 57, 0
12, 23280, Note_on_c, 6, 57, 48
12, 23339, Note_on_c, 6, 57, 0
12, 23340, Note_on_c, 6, 57, 48
12, 23399, Note_on_c, 6, 57, 0
12, 23400, Note_on_c, 6, 58, 48
12, 23459, Note_on_c, 6, 58, 0
12, 23460, Note_on_c, 6, 58, 48
12, 23519, Note_on_c, 6, 58, 0
12, 23520, Note_on_c, 6, 60, 48
12, 23579, Note_on_c, 6, 60, 0
12, 23580, Note_on_c, 6, 60, 48
12, 23639, Note_on_c, 6, 60, 0
12, 23640, Note_on_c, 6, 58, 48
12, 23699, Note_on_c, 6, 58, 0
12, 23700, Note_on_c, 6, 58, 48
12, 23759, Note_on_c, 6, 58, 0
12, 23760, Note_on_c, 6, 63, 48
12, 23819, Note_on_c, 6, 63, 0
12, 23820, Note_on_c, 6, 63, 48
12, 23879, Note_on_c, 6, 63, 0
12, 23880, Note_on_c, 6, 62, 48
12, 23939, Note_on_c, 6, 62, 0
12, 23940, Note_on_c, 6, 62, 48
12, 23999, Note_on_c, 6, 62, 0
12, 24000, Note_on_c, 6, 60, 48
12, 24059, Note_on_c, 6, 60, 0
12, 24060, Note_on_c, 6, 60, 48
12, 24119, Note_on_c, 6, 60, 0
12, 24120, Note_on_c, 6, 58, 48
12, 24239, Note_on_c, 6, 58, 0
12, 25020, Note_on_c, 6, 65, 66
12, 25049, Note_on_c, 6, 65, 0
12, 25050, Note_on_c, 6, 63, 66
12, 25079, Note_on_c, 6, 63, 0
12, 25080, Note_on_c, 6, 62, 66
12, 25139, Note_on_c, 6, 62, 0
12, 25140, Note_on_c, 6, 60, 66
12, 25199, Note_on_c, 6, 60, 0
12, 25200, Note_on_c, 6, 58, 66
12, 25259, Note_on_c, 6, 58, 0
12, 25260, Note_on_c, 6, 65, 66
12, 25319, Note_on_c, 6, 65, 0
12, 25320, Note_on_c, 6, 67, 66
12, 25379, Note_on_c, 6, 67, 0
12, 25380, Note_on_c, 6, 63, 66
12, 25439, Note_on_c, 6, 63, 0
12, 25440, Note_on_c, 6, 60, 66
12, 25499, Note_on_c, 6, 60, 0
12, 25500, Note_on_c, 6, 65, 66
12, 25559, Note_on_c, 6, 65, 0
12, 25560, Note_on_c, 6, 62, 66
12, 25619, Note_on_c, 6, 62, 0
12, 25620, Note_on_c, 6, 65, 48
12, 25679, Note_on_c, 6, 65, 0
12, 25740, Note_on_c, 6, 65, 48
12, 25799, Note_on_c, 6, 65, 0
12, 25860, Note_on_c, 6, 65, 48
12, 25919, Note_on_c, 6, 65, 0
12, 25980, Note_on_c, 6, 66, 48
12, 26039, Note_on_c, 6, 66, 0
12, 26100, Note_on_c, 6, 66, 48
12, 26159, Note_on_c, 6, 66, 0
12, 26220, Note_on_c, 6, 66, 48
12, 26279, Note_on_c, 6, 66, 0
12, 26340, Note_on_c, 6, 54, 48
12, 26399, Note_on_c, 6, 54, 0
12, 26460, Note_on_c, 6, 54, 48
12, 26519, Note_on_c, 6, 54, 0
12, 26580, Note_on_c, 6, 53, 48
12, 26639, Note_on_c, 6, 53, 0
12, 26700, Note_on_c, 6, 53, 48
12, 26759, Note_on_c, 6, 53, 0
12, 26820, Note_on_c, 6, 53, 48
12, 26879, Note_on_c, 6, 53, 0
12, 26940, Note_on_c, 6, 53, 72
12, 26999, Note_on_c, 6, 53, 0
12, 27060, Note_on_c, 6, 51, 72
12, 27119, Note_on_c, 6, 51, 0
12, 27180, Note_on_c, 6, 67, 48
12, 27239, Note_on_c, 6, 67, 0
12, 27300, Note_on_c, 6, 67, 48
12, 27359, Note_on_c, 6, 67, 0
12, 27420, Note_on_c, 6, 68, 48
12, 27479, Note_on_c, 6, 68, 0
12, 27540, Note_on_c, 6, 68, 48
12, 27599, Note_on_c, 6, 68, 0
12, 27660, Note_on_c, 6, 68, 48
12, 27719, Note_on_c, 6, 68, 0
12, 27780, Note_on_c, 6, 56, 48
12, 27839, Note_on_c, 6, 56, 0
12, 27900, Note_on_c, 6, 56, 48
12, 27959, Note_on_c, 6, 56, 0
12, 28020, Note_on_c, 6, 55, 48
12, 28079, Note_on_c, 6, 55, 0
12, 28140, Note_on_c, 6, 55, 48
12, 28199, Note_on_c, 6, 55, 0
12, 28260, Note_on_c, 6, 55, 48
12, 28319, Note_on_c, 6, 55, 0
12, 28380, Note_on_c, 6, 55, 72
12, 28439, Note_on_c, 6, 55, 0
12, 28500, Note_on_c, 6, 53, 72
12, 28559, Note_on_c, 6, 53, 0
12, 28620, Note_on_c, 6, 69, 48
12, 28679, Note_on_c, 6, 69, 0
12, 28740, Note_on_c, 6, 69, 48
12, 28799, Note_on_c, 6, 69, 0
12, 28860, Note_on_c, 6, 70, 48
12, 28919, Note_on_c, 6, 70, 0
12, 28980, Note_on_c, 6, 70, 48
12, 29039, Note_on_c, 6, 70, 0
12, 29100, Note_on_c, 6, 70, 48
12, 29159, Note_on_c, 6, 70, 0
12, 29220, Note_on_c, 6, 58, 48
12, 29279, Note_on_c, 6, 58, 0
12, 29340, Note_on_c, 6, 58, 48
12, 29399, Note_on_c, 6, 58, 0
12, 29460, Note_on_c, 6, 57, 48
12, 29519, Note_on_c, 6, 57, 0
12, 29580, Note_on_c, 6, 57, 48
12, 29639, Note_on_c, 6, 57, 0
12, 29700, Note_on_c, 6, 57, 48
12, 29759, Note_on_c, 6, 57, 0
12, 29880, Note_on_c, 6, 62, 48
12, 30239, Note_on_c, 6, 62, 0
12, 30240, Note_on_c, 6, 62, 48
12, 30299, Note_on_c, 6, 62, 0
12, 30360, Note_on_c, 6, 60, 48
12, 30419, Note_on_c, 6, 60, 0
12, 30600, Note_on_c, 6, 60, 48
12, 30959, Note_on_c, 6, 60, 0
12, 30960, Note_on_c, 6, 60, 48
12, 31019, Note_on_c, 6, 60, 0
12, 31080, Note_on_c, 6, 58, 48
12, 31139, Note_on_c, 6, 58, 0
12, 31560, Note_on_c, 6, 62, 48
12, 31619, Note_on_c, 6, 62, 0
12, 31620, Note_on_c, 6, 61, 48
12, 31679, Note_on_c, 6, 61, 0
12, 31680, Note_on_c, 6, 60, 48
12, 31859, Note_on_c, 6, 60, 0
12, 31860, Note_on_c, 6, 61, 48
12, 31919, Note_on_c, 6, 61, 0
12, 31920, Note_on_c, 6, 60, 48
12, 31979, Note_on_c, 6, 60, 0
12, 31980, Note_on_c, 6, 61, 48
12, 32039, Note_on_c, 6, 61, 0
12, 32040, Note_on_c, 6, 60, 48
12, 32159, Note_on_c, 6, 60, 0
12, 32160, Note_on_c, 6, 58, 48
12, 32279, Note_on_c, 6, 58, 0
12, 32280, Note_on_c, 6, 57, 48
12, 32399, Note_on_c, 6, 57, 0
12, 32400, Note_on_c, 6, 59, 72
12, 32459, Note_on_c, 6, 59, 0
12, 32460, Note_on_c, 6, 59, 48
12, 32519, Note_on_c, 6, 59, 0
12, 32520, Note_on_c, 6, 62, 48
12, 32579, Note_on_c, 6, 62, 0
12, 32580, Note_on_c, 6, 62, 48
12, 32639, Note_on_c, 6, 62, 0
12, 32640, Note_on_c, 6, 67, 48
12, 32699, Note_on_c, 6, 67, 0
12, 32700, Note_on_c, 6, 67, 48
12, 32759, Note_on_c, 6, 67, 0
12, 32760, Note_on_c, 6, 67, 48
12, 32819, Note_on_c, 6, 67, 0
12, 32820, Note_on_c, 6, 64, 48
12, 32849, Note_on_c, 6, 64, 0
12, 32850, Note_on_c, 6, 62, 48
12, 32879, Note_on_c, 6, 62, 0
12, 32880, Note_on_c, 6, 60, 48
12, 32939, Note_on_c, 6, 60, 0
12, 32940, Note_on_c, 6, 58, 48
12, 32999, Note_on_c, 6, 58, 0
12, 33000, Note_on_c, 6, 57, 48
12, 33059, Note_on_c, 6, 57, 0
12, 33060, Note_on_c, 6, 55, 48
12, 33119, Note_on_c, 6, 55, 0
12, 33120, Note_on_c, 6, 53, 48
12, 33239, Note_on_c, 6, 53, 0
12, 35340, Note_on_c, 6, 52, 48
12, 35369, Note_on_c, 6, 52, 0
12, 35370, Note_on_c, 6, 53, 48
12, 35399, Note_on_c, 6, 53, 0
12, 35400, Note_on_c, 6, 55, 48
12, 35459, Note_on_c, 6, 55, 0
12, 35460, Note_on_c, 6, 57, 48
12, 35519, Note_on_c, 6, 57, 0
12, 35520, Note_on_c, 6, 59, 48
12, 35579, Note_on_c, 6, 59, 0
12, 35580, Note_on_c, 6, 60, 48
12, 35639, Note_on_c, 6, 60, 0
12, 35640, Note_on_c, 6, 57, 48
12, 35759, Note_on_c, 6, 57, 0
12, 35760, Note_on_c, 6, 55, 48
12, 35879, Note_on_c, 6, 55, 0
12, 35880, Note_on_c, 6, 59, 48
12, 35999, Note_on_c, 6, 59, 0
12, 36000, Note_on_c, 6, 60, 48
12, 36119, Note_on_c, 6, 60, 0
12, 36720, Note_on_c, 6, 52, 48
12, 36779, Note_on_c, 6, 52, 0
12, 36780, Note_on_c, 6, 53, 48
12, 36839, Note_on_c, 6, 53, 0
12, 36840, Note_on_c, 6, 55, 48
12, 36899, Note_on_c, 6, 55, 0
12, 36900, Note_on_c, 6, 57, 48
12, 36929, Note_on_c, 6, 57, 0
12, 36930, Note_on_c, 6, 59, 48
12, 36959, Note_on_c, 6, 59, 0
12, 36960, Note_on_c, 6, 60, 48
12, 37139, Note_on_c, 6, 60, 0
12, 37140, Note_on_c, 6, 62, 48
12, 37169, Note_on_c, 6, 62, 0
12, 37170, Note_on_c, 6, 60, 48
12, 37199, Note_on_c, 6, 60, 0
12, 37200, Note_on_c, 6, 59, 48
12, 37259, Note_on_c, 6, 59, 0
12, 37260, Note_on_c, 6, 60, 48
12, 37289, Note_on_c, 6, 60, 0
12, 37290, Note_on_c, 6, 62, 48
12, 37319, Note_on_c, 6, 62, 0
12, 37320, Note_on_c, 6, 55, 48
12, 37379, Note_on_c, 6, 55, 0
12, 37380, Note_on_c, 6, 57, 48
12, 37409, Note_on_c, 6, 57, 0
12, 37410, Note_on_c, 6, 59, 48
12, 37439, Note_on_c, 6, 59, 0
12, 37440, Note_on_c, 6, 60, 48
12, 37559, Note_on_c, 6, 60, 0
12, 37560, Note_on_c, 6, 48, 72
12, 37619, Note_on_c, 6, 48, 0
12, 37620, Note_on_c, 6, 52, 72
12, 37649, Note_on_c, 6, 52, 0
12, 37650, Note_on_c, 6, 55, 72
12, 37679, Note_on_c, 6, 55, 0
12, 37680, Note_on_c, 6, 60, 72
12, 37739, Note_on_c, 6, 60, 0
12, 37740, Note_on_c, 6, 60, 72
12, 37799, Note_on_c, 6, 60, 0
12, 37800, Note_on_c, 6, 59, 72
12, 37919, Note_on_c, 6, 59, 0
12, 38280, Note_on_c, 6, 48, 72
12, 38339, Note_on_c, 6, 48, 0
12, 38340, Note_on_c, 6, 52, 72
12, 38369, Note_on_c, 6, 52, 0
12, 38370, Note_on_c, 6, 55, 72
12, 38399, Note_on_c, 6, 55, 0
12, 38400, Note_on_c, 6, 60, 72
12, 38459, Note_on_c, 6, 60, 0
12, 38460, Note_on_c, 6, 60, 72
12, 38519, Note_on_c, 6, 60, 0
12, 38520, Note_on_c, 6, 49, 72
12, 38639, Note_on_c, 6, 49, 0
12, 39720, Note_on_c, 6, 58, 48
12, 39839, Note_on_c, 6, 58, 0
12, 39840, Note_on_c, 6, 60, 48
12, 39959, Note_on_c, 6, 60, 0
12, 39960, Note_on_c, 6, 61, 48
12, 40199, Note_on_c, 6, 61, 0
12, 40200, Note_on_c, 6, 55, 48
12, 40319, Note_on_c, 6, 55, 0
12, 40440, Note_on_c, 6, 58, 48
12, 40559, Note_on_c, 6, 58, 0
12, 40560, Note_on_c, 6, 60, 48
12, 40679, Note_on_c, 6, 60, 0
12, 40680, Note_on_c, 6, 62, 48
12, 40919, Note_on_c, 6, 62, 0
12, 40920, Note_on_c, 6, 55, 48
12, 41039, Note_on_c, 6, 55, 0
12, 41040, Note_on_c, 6, 58, 48
12, 41219, Note_on_c, 6, 58, 0
12, 41220, Note_on_c, 6, 60, 48
12, 41279, Note_on_c, 6, 60, 0
12, 41280, Note_on_c, 6, 61, 48
12, 41399, Note_on_c, 6, 61, 0
12, 41400, Note_on_c, 6, 60, 48
12, 41459, Note_on_c, 6, 60, 0
12, 41460, Note_on_c, 6, 60, 48
12, 41519, Note_on_c, 6, 60, 0
12, 41520, Note_on_c, 6, 55, 48
12, 41579, Note_on_c, 6, 55, 0
12, 41580, Note_on_c, 6, 55, 48
12, 41639, Note_on_c, 6, 55, 0
12, 41640, Note_on_c, 6, 53, 48
12, 41699, Note_on_c, 6, 53, 0
12, 41700, Note_on_c, 6, 53, 48
12, 41759, Note_on_c, 6, 53, 0
12, 41760, Note_on_c, 6, 58, 48
12, 41819, Note_on_c, 6, 58, 0
12, 41820, Note_on_c, 6, 58, 48
12, 41879, Note_on_c, 6, 58, 0
12, 41880, Note_on_c, 6, 57, 48
12, 41939, Note_on_c, 6, 57, 0
12, 41940, Note_on_c, 6, 57, 48
12, 41999, Note_on_c, 6, 57, 0
12, 42000, Note_on_c, 6, 55, 48
12, 42059, Note_on_c, 6, 55, 0
12, 42060, Note_on_c, 6, 55, 48
12, 42119, Note_on_c, 6, 55, 0
12, 42120, Note_on_c, 6, 53, 48
12, 42239, Note_on_c, 6, 53, 0
12, 42480, Note_on_c, 6, 65, 48
12, 42659, Note_on_c, 6, 65, 0
12, 42660, Note_on_c, 6, 64, 48
12, 42719, Note_on_c, 6, 64, 0
12, 42720, Note_on_c, 6, 62, 48
12, 42779, Note_on_c, 6, 62, 0
12, 42780, Note_on_c, 6, 60, 48
12, 42839, Note_on_c, 6, 60, 0
12, 42840, Note_on_c, 6, 58, 48
12, 43079, Note_on_c, 6, 58, 0
12, 43080, Note_on_c, 6, 57, 48
12, 43139, Note_on_c, 6, 57, 0
12, 43140, Note_on_c, 6, 58, 48
12, 43199, Note_on_c, 6, 58, 0
12, 43200, Note_on_c, 6, 60, 48
12, 43259, Note_on_c, 6, 60, 0
12, 43260, Note_on_c, 6, 62, 48
12, 43319, Note_on_c, 6, 62, 0
12, 43320, Note_on_c, 6, 60, 48
12, 43379, Note_on_c, 6, 60, 0
12, 43380, Note_on_c, 6, 60, 48
12, 43439, Note_on_c, 6, 60, 0
12, 43440, Note_on_c, 6, 60, 48
12, 43499, Note_on_c, 6, 60, 0
12, 43500, Note_on_c, 6, 60, 48
12, 43559, Note_on_c, 6, 60, 0
12, 43560, Note_on_c, 6, 57, 48
12, 43679, Note_on_c, 6, 57, 0
12, 43920, Note_on_c, 6, 65, 48
12, 44099, Note_on_c, 6, 65, 0
12, 44100, Note_on_c, 6, 64, 48
12, 44159, Note_on_c, 6, 64, 0
12, 44160, Note_on_c, 6, 62, 48
12, 44219, Note_on_c, 6, 62, 0
12, 44220, Note_on_c, 6, 60, 48
12, 44279, Note_on_c, 6, 60, 0
12, 44280, Note_on_c, 6, 62, 48
12, 44339, Note_on_c, 6, 62, 0
12, 44340, Note_on_c, 6, 64, 48
12, 44399, Note_on_c, 6, 64, 0
12, 44400, Note_on_c, 6, 65, 48
12, 44459, Note_on_c, 6, 65, 0
12, 44460, Note_on_c, 6, 67, 48
12, 44519, Note_on_c, 6, 67, 0
12, 44520, Note_on_c, 6, 60, 48
12, 44699, Note_on_c, 6, 60, 0
12, 44700, Note_on_c, 6, 62, 48
12, 44759, Note_on_c, 6, 62, 0
12, 44760, Note_on_c, 6, 60, 48
12, 44819, Note_on_c, 6, 60, 0
12, 44820, Note_on_c, 6, 60, 48
12, 44879, Note_on_c, 6, 60, 0
12, 44880, Note_on_c, 6, 58, 48
12, 44939, Note_on_c, 6, 58, 0
12, 44940, Note_on_c, 6, 58, 48
12, 44999, Note_on_c, 6, 58, 0
12, 45000, Note_on_c, 6, 57, 48
12, 45119, Note_on_c, 6, 57, 0
12, 45180, Note_on_c, 6, 53, 48
12, 45239, Note_on_c, 6, 53, 0
12, 45240, Note_on_c, 6, 55, 48
12, 45299, Note_on_c, 6, 55, 0
12, 45300, Note_on_c, 6, 57, 48
12, 45359, Note_on_c, 6, 57, 0
12, 45360, Note_on_c, 6, 58, 48
12, 45479, Note_on_c, 6, 58, 0
12, 45540, Note_on_c, 6, 55, 48
12, 45599, Note_on_c, 6, 55, 0
12, 45600, Note_on_c, 6, 57, 48
12, 45659, Note_on_c, 6, 57, 0
12, 45660, Note_on_c, 6, 58, 48
12, 45719, Note_on_c, 6, 58, 0
12, 45720, Note_on_c, 6, 60, 48
12, 45839, Note_on_c, 6, 60, 0
12, 45900, Note_on_c, 6, 48, 48
12, 45959, Note_on_c, 6, 48, 0
12, 45960, Note_on_c, 6, 50, 48
12, 46019, Note_on_c, 6, 50, 0
12, 46020, Note_on_c, 6, 52, 48
12, 46079, Note_on_c, 6, 52, 0
12, 46080, Note_on_c, 6, 53, 48
12, 46139, Note_on_c, 6, 53, 0
12, 46140, Note_on_c, 6, 60, 48
12, 46199, Note_on_c, 6, 60, 0
12, 46200, Note_on_c, 6, 62, 48
12, 46259, Note_on_c, 6, 62, 0
12, 46260, Note_on_c, 6, 58, 48
12, 46319, Note_on_c, 6, 58, 0
12, 46320, Note_on_c, 6, 55, 48
12, 46379, Note_on_c, 6, 55, 0
12, 46380, Note_on_c, 6, 60, 48
12, 46439, Note_on_c, 6, 60, 0
12, 46440, Note_on_c, 6, 57, 48
12, 46559, Note_on_c, 6, 57, 0
12, 46560, Note_on_c, 6, 53, 48
12, 46679, Note_on_c, 6, 53, 0
12, 46679, End_track
13, 0, Start_track
13, 0, Title_t, "Cello"
13, 0, Program_c, 7, 48
13, 0, Control_c, 7, 7, 96
13, 0, Control_c, 7, 10, 96
13, 0, Control_c, 7, 11, 127
13, 60, Note_on_c, 7, 65, 48
13, 89, Note_on_c, 7, 65, 0
13, 90, Note_on_c, 7, 64, 48
13, 119, Note_on_c, 7, 64, 0
13, 120, Note_on_c, 7, 62, 48
13, 179, Note_on_c, 7, 62, 0
13, 180, Note_on_c, 7, 60, 48
13, 239, Note_on_c, 7, 60, 0
13, 240, Note_on_c, 7, 58, 48
13, 299, Note_on_c, 7, 58, 0
13, 300, Note_on_c, 7, 57, 48
13, 359, Note_on_c, 7, 57, 0
13, 360, Note_on_c, 7, 58, 48
13, 419, Note_on_c, 7, 58, 0
13, 420, Note_on_c, 7, 55, 48
13, 479, Note_on_c, 7, 55, 0
13, 480, Note_on_c, 7, 60, 48
13, 539, Note_on_c, 7, 60, 0
13, 540, Note_on_c, 7, 58, 48
13, 599, Note_on_c, 7, 58, 0
13, 600, Note_on_c, 7, 57, 48
13, 659, Note_on_c, 7, 57, 0
13, 660, Note_on_c, 7, 55, 48
13, 719, Note_on_c, 7, 55, 0
13, 720, Note_on_c, 7, 53, 48
13, 779, Note_on_c, 7, 53, 0
13, 780, Note_on_c, 7, 61, 48
13, 839, Note_on_c, 7, 61, 0
13, 840, Note_on_c, 7, 62, 48
13, 869, Note_on_c, 7, 62, 0
13, 900, Note_on_c, 7, 53, 48
13, 929, Note_on_c, 7, 53, 0
13, 960, Note_on_c, 7, 53, 48
13, 974, Note_on_c, 7, 53, 0
13, 975, Note_on_c, 7, 55, 48
13, 989, Note_on_c, 7, 55, 0
13, 990, Note_on_c, 7, 53, 48
13, 1004, Note_on_c, 7, 53, 0
13, 1005, Note_on_c, 7, 55, 48
13, 1019, Note_on_c, 7, 55, 0
13, 1020, Note_on_c, 7, 53, 48
13, 1034, Note_on_c, 7, 53, 0
13, 1035, Note_on_c, 7, 55, 48
13, 1049, Note_on_c, 7, 55, 0
13, 1050, Note_on_c, 7, 52, 48
13, 1064, Note_on_c, 7, 52, 0
13, 1065, Note_on_c, 7, 53, 48
13, 1079, Note_on_c, 7, 53, 0
13, 1080, Note_on_c, 7, 55, 48
13, 1139, Note_on_c, 7, 55, 0
13, 1140, Note_on_c, 7, 62, 48
13, 1199, Note_on_c, 7, 62, 0
13, 1200, Note_on_c, 7, 64, 48
13, 1229, Note_on_c, 7, 64, 0
13, 1260, Note_on_c, 7, 55, 48
13, 1289, Note_on_c, 7, 55, 0
13, 1320, Note_on_c, 7, 55, 48
13, 1334, Note_on_c, 7, 55, 0
13, 1335, Note_on_c, 7, 57, 48
13, 1349, Note_on_c, 7, 57, 0
13, 1350, Note_on_c, 7, 55, 48
13, 1364, Note_on_c, 7, 55, 0
13, 1365, Note_on_c, 7, 57, 48
13, 1379, Note_on_c, 7, 57, 0
13, 1380, Note_on_c, 7, 55, 48
13, 1394, Note_on_c, 7, 55, 0
13, 1395, Note_on_c, 7, 57, 48
13, 1409, Note_on_c, 7, 57, 0
13, 1410, Note_on_c, 7, 53, 48
13, 1424, Note_on_c, 7, 53, 0
13, 1425, Note_on_c, 7, 55, 48
13, 1439, Note_on_c, 7, 55, 0
13, 1440, Note_on_c, 7, 57, 48
13, 1499, Note_on_c, 7, 57, 0
13, 1500, Note_on_c, 7, 64, 48
13, 1559, Note_on_c, 7, 64, 0
13, 1560, Note_on_c, 7, 65, 48
13, 1589, Note_on_c, 7, 65, 0
13, 1620, Note_on_c, 7, 57, 48
13, 1649, Note_on_c, 7, 57, 0
13, 1680, Note_on_c, 7, 57, 48
13, 1694, Note_on_c, 7, 57, 0
13, 1695, Note_on_c, 7, 58, 48
13, 1709, Note_on_c, 7, 58, 0
13, 1710, Note_on_c, 7, 57, 48
13, 1724, Note_on_c, 7, 57, 0
13, 1725, Note_on_c, 7, 58, 48
13, 1739, Note_on_c, 7, 58, 0
13, 1740, Note_on_c, 7, 57, 48
13, 1754, Note_on_c, 7, 57, 0
13, 1755, Note_on_c, 7, 58, 48
13, 1769, Note_on_c, 7, 58, 0
13, 1770, Note_on_c, 7, 55, 48
13, 1784, Note_on_c, 7, 55, 0
13, 1785, Note_on_c, 7, 57, 48
13, 1799, Note_on_c, 7, 57, 0
13, 1800, Note_on_c, 7, 58, 48
13, 1859, Note_on_c, 7, 58, 0
13, 1860, Note_on_c, 7, 54, 48
13, 1919, Note_on_c, 7, 54, 0
13, 1920, Note_on_c, 7, 55, 48
13, 1979, Note_on_c, 7, 55, 0
13, 1980, Note_on_c, 7, 57, 48
13, 2039, Note_on_c, 7, 57, 0
13, 2040, Note_on_c, 7, 58, 48
13, 2099, Note_on_c, 7, 58, 0
13, 2100, Note_on_c, 7, 59, 48
13, 2159, Note_on_c, 7, 59, 0
13, 2160, Note_on_c, 7, 60, 48
13, 2279, Note_on_c, 7, 60, 0
13, 6900, Note_on_c, 7, 60, 48
13, 6929, Note_on_c, 7, 60, 0
13, 6930, Note_on_c, 7, 59, 48
13, 6959, Note_on_c, 7, 59, 0
13, 6960, Note_on_c, 7, 57, 48
13, 7019, Note_on_c, 7, 57, 0
13, 7020, Note_on_c, 7, 55, 48
13, 7079, Note_on_c, 7, 55, 0
13, 7080, Note_on_c, 7, 53, 48
13, 7139, Note_on_c, 7, 53, 0
13, 7140, Note_on_c, 7, 52, 48
13, 7199, Note_on_c, 7, 52, 0
13, 7200, Note_on_c, 7, 53, 48
13, 7259, Note_on_c, 7, 53, 0
13, 7260, Note_on_c, 7, 57, 48
13, 7319, Note_on_c, 7, 57, 0
13, 7320, Note_on_c, 7, 55, 48
13, 7379, Note_on_c, 7, 55, 0
13, 7380, Note_on_c, 7, 53, 48
13, 7439, Note_on_c, 7, 53, 0
13, 7440, Note_on_c, 7, 52, 48
13, 7499, Note_on_c, 7, 52, 0
13, 7500, Note_on_c, 7, 50, 48
13, 7559, Note_on_c, 7, 50, 0
13, 7560, Note_on_c, 7, 48, 48
13, 7619, Note_on_c, 7, 48, 0
13, 7620, Note_on_c, 7, 56, 48
13, 7679, Note_on_c, 7, 56, 0
13, 7680, Note_on_c, 7, 57, 48
13, 7709, Note_on_c, 7, 57, 0
13, 7740, Note_on_c, 7, 48, 48
13, 7769, Note_on_c, 7, 48, 0
13, 7800, Note_on_c, 7, 48, 48
13, 7814, Note_on_c, 7, 48, 0
13, 7815, Note_on_c, 7, 50, 48
13, 7829, Note_on_c, 7, 50, 0
13, 7830, Note_on_c, 7, 48, 48
13, 7844, Note_on_c, 7, 48, 0
13, 7845, Note_on_c, 7, 50, 48
13, 7859, Note_on_c, 7, 50, 0
13, 7860, Note_on_c, 7, 48, 48
13, 7874, Note_on_c, 7, 48, 0
13, 7875, Note_on_c, 7, 50, 48
13, 7889, Note_on_c, 7, 50, 0
13, 7890, Note_on_c, 7, 47, 48
13, 7904, Note_on_c, 7, 47, 0
13, 7905, Note_on_c, 7, 48, 48
13, 7919, Note_on_c, 7, 48, 0
13, 7920, Note_on_c, 7, 50, 48
13, 7979, Note_on_c, 7, 50, 0
13, 7980, Note_on_c, 7, 57, 48
13, 8039, Note_on_c, 7, 57, 0
13, 8040, Note_on_c, 7, 59, 48
13, 8069, Note_on_c, 7, 59, 0
13, 8100, Note_on_c, 7, 50, 48
13, 8129, Note_on_c, 7, 50, 0
13, 8160, Note_on_c, 7, 50, 48
13, 8174, Note_on_c, 7, 50, 0
13, 8175, Note_on_c, 7, 52, 48
13, 8189, Note_on_c, 7, 52, 0
13, 8190, Note_on_c, 7, 50, 48
13, 8204, Note_on_c, 7, 50, 0
13, 8205, Note_on_c, 7, 52, 48
13, 8219, Note_on_c, 7, 52, 0
13, 8220, Note_on_c, 7, 50, 48
13, 8234, Note_on_c, 7, 50, 0
13, 8235, Note_on_c, 7, 52, 48
13, 8249, Note_on_c, 7, 52, 0
13, 8250, Note_on_c, 7, 48, 48
13, 8264, Note_on_c, 7, 48, 0
13, 8265, Note_on_c, 7, 50, 48
13, 8279, Note_on_c, 7, 50, 0
13, 8280, Note_on_c, 7, 52, 48
13, 8339, Note_on_c, 7, 52, 0
13, 8340, Note_on_c, 7, 53, 48
13, 8399, Note_on_c, 7, 53, 0
13, 8400, Note_on_c, 7, 55, 48
13, 8459, Note_on_c, 7, 55, 0
13, 8460, Note_on_c, 7, 53, 48
13, 8489, Note_on_c, 7, 53, 0
13, 8490, Note_on_c, 7, 55, 48
13, 8519, Note_on_c, 7, 55, 0
13, 8520, Note_on_c, 7, 57, 48
13, 8579, Note_on_c, 7, 57, 0
13, 8580, Note_on_c, 7, 55, 48
13, 8609, Note_on_c, 7, 55, 0
13, 8610, Note_on_c, 7, 57, 48
13, 8639, Note_on_c, 7, 57, 0
13, 8640, Note_on_c, 7, 59, 48
13, 8699, Note_on_c, 7, 59, 0
13, 8700, Note_on_c, 7, 57, 48
13, 8729, Note_on_c, 7, 57, 0
13, 8730, Note_on_c, 7, 59, 48
13, 8759, Note_on_c, 7, 59, 0
13, 8760, Note_on_c, 7, 60, 48
13, 8819, Note_on_c, 7, 60, 0
13, 8820, Note_on_c, 7, 48, 48
13, 8849, Note_on_c, 7, 48, 0
13, 8850, Note_on_c, 7, 50, 48
13, 8879, Note_on_c, 7, 50, 0
13, 8880, Note_on_c, 7, 52, 48
13, 8939, Note_on_c, 7, 52, 0
13, 8940, Note_on_c, 7, 53, 48
13, 8999, Note_on_c, 7, 53, 0
13, 9000, Note_on_c, 7, 55, 48
13, 9059, Note_on_c, 7, 55, 0
13, 12300, Note_on_c, 7, 65, 66
13, 12329, Note_on_c, 7, 65, 0
13, 12330, Note_on_c, 7, 64, 66
13, 12359, Note_on_c, 7, 64, 0
13, 12360, Note_on_c, 7, 62, 66
13, 12419, Note_on_c, 7, 62, 0
13, 12420, Note_on_c, 7, 60, 66
13, 12479, Note_on_c, 7, 60, 0
13, 12480, Note_on_c, 7, 59, 66
13, 12539, Note_on_c, 7, 59, 0
13, 12540, Note_on_c, 7, 57, 66
13, 12599, Note_on_c, 7, 57, 0
13, 12600, Note_on_c, 7, 55, 66
13, 12899, Note_on_c, 7, 55, 0
13, 12900, Note_on_c, 7, 56, 66
13, 12959, Note_on_c, 7, 56, 0
13, 19140, Note_on_c, 7, 58, 48
13, 19169, Note_on_c, 7, 58, 0
13, 19170, Note_on_c, 7, 60, 48
13, 19199, Note_on_c, 7, 60, 0
13, 19200, Note_on_c, 7, 62, 48
13, 19259, Note_on_c, 7, 62, 0
13, 19260, Note_on_c, 7, 63, 48
13, 19319, Note_on_c, 7, 63, 0
13, 19320, Note_on_c, 7, 65, 48
13, 19379, Note_on_c, 7, 65, 0
13, 19380, Note_on_c, 7, 67, 48
13, 19439, Note_on_c, 7, 67, 0
13, 19440, Note_on_c, 7, 63, 48
13, 19499, Note_on_c, 7, 63, 0
13, 19500, Note_on_c, 7, 64, 48
13, 19559, Note_on_c, 7, 64, 0
13, 19560, Note_on_c, 7, 65, 48
13, 19619, Note_on_c, 7, 65, 0
13, 19620, Note_on_c, 7, 63, 48
13, 19679, Note_on_c, 7, 63, 0
13, 19680, Note_on_c, 7, 60, 48
13, 19739, Note_on_c, 7, 60, 0
13, 19740, Note_on_c, 7, 57, 48
13, 19799, Note_on_c, 7, 57, 0
13, 19800, Note_on_c, 7, 58, 48
13, 19859, Note_on_c, 7, 58, 0
13, 19860, Note_on_c, 7, 54, 48
13, 19919, Note_on_c, 7, 54, 0
13, 19920, Note_on_c, 7, 55, 48
13, 19979, Note_on_c, 7, 55, 0
13, 19980, Note_on_c, 7, 53, 48
13, 20039, Note_on_c, 7, 53, 0
13, 20040, Note_on_c, 7, 51, 48
13, 20099, Note_on_c, 7, 51, 0
13, 20100, Note_on_c, 7, 50, 48
13, 20159, Note_on_c, 7, 50, 0
13, 20160, Note_on_c, 7, 48, 48
13, 20219, Note_on_c, 7, 48, 0
13, 20220, Note_on_c, 7, 59, 48
13, 20279, Note_on_c, 7, 59, 0
13, 20280, Note_on_c, 7, 60, 48
13, 20339, Note_on_c, 7, 60, 0
13, 20340, Note_on_c, 7, 55, 48
13, 20399, Note_on_c, 7, 55, 0
13, 20400, Note_on_c, 7, 57, 48
13, 20459, Note_on_c, 7, 57, 0
13, 20460, Note_on_c, 7, 51, 48
13, 20519, Note_on_c, 7, 51, 0
13, 20520, Note_on_c, 7, 50, 48
13, 20579, Note_on_c, 7, 50, 0
13, 20580, Note_on_c, 7, 57, 48
13, 20639, Note_on_c, 7, 57, 0
13, 20640, Note_on_c, 7, 58, 48
13, 20699, Note_on_c, 7, 58, 0
13, 20700, Note_on_c, 7, 59, 48
13, 20759, Note_on_c, 7, 59, 0
13, 20760, Note_on_c, 7, 60, 48
13, 20819, Note_on_c, 7, 60, 0
13, 20820, Note_on_c, 7, 55, 48
13, 20879, Note_on_c, 7, 55, 0
13, 20880, Note_on_c, 7, 56, 48
13, 20939, Note_on_c, 7, 56, 0
13, 20940, Note_on_c, 7, 57, 48
13, 20999, Note_on_c, 7, 57, 0
13, 21000, Note_on_c, 7, 58, 48
13, 21059, Note_on_c, 7, 58, 0
13, 21060, Note_on_c, 7, 55, 48
13, 21119, Note_on_c, 7, 55, 0
13, 21120, Note_on_c, 7, 50, 48
13, 21179, Note_on_c, 7, 50, 0
13, 21180, Note_on_c, 7, 52, 48
13, 21239, Note_on_c, 7, 52, 0
13, 21240, Note_on_c, 7, 53, 48
13, 21299, Note_on_c, 7, 53, 0
13, 24540, Note_on_c, 7, 63, 66
13, 24569, Note_on_c, 7, 63, 0
13, 24570, Note_on_c, 7, 62, 66
13, 24599, Note_on_c, 7, 62, 0
13, 24600, Note_on_c, 7, 60, 66
13, 24659, Note_on_c, 7, 60, 0
13, 24660, Note_on_c, 7, 58, 66
13, 24719, Note_on_c, 7, 58, 0
13, 24720, Note_on_c, 7, 57, 66
13, 24779, Note_on_c, 7, 57, 0
13, 24780, Note_on_c, 7, 55, 66
13, 24839, Note_on_c, 7, 55, 0
13, 24840, Note_on_c, 7, 53, 66
13, 25139, Note_on_c, 7, 53, 0
13, 25140, Note_on_c, 7, 54, 66
13, 25199, Note_on_c, 7, 54, 0
13, 35340, Note_on_c, 7, 48, 48
13, 35369, Note_on_c, 7, 48, 0
13, 35370, Note_on_c, 7, 50, 48
13, 35399, Note_on_c, 7, 50, 0
13, 35400, Note_on_c, 7, 52, 48
13, 35459, Note_on_c, 7, 52, 0
13, 35460, Note_on_c, 7, 53, 48
13, 35519, Note_on_c, 7, 53, 0
13, 35520, Note_on_c, 7, 55, 48
13, 35579, Note_on_c, 7, 55, 0
13, 35580, Note_on_c, 7, 57, 48
13, 35639, Note_on_c, 7, 57, 0
13, 35640, Note_on_c, 7, 53, 48
13, 35699, Note_on_c, 7, 53, 0
13, 35700, Note_on_c, 7, 54, 48
13, 35759, Note_on_c, 7, 54, 0
13, 35760, Note_on_c, 7, 55, 48
13, 35819, Note_on_c, 7, 55, 0
13, 35820, Note_on_c, 7, 53, 48
13, 35879, Note_on_c, 7, 53, 0
13, 35880, Note_on_c, 7, 52, 48
13, 35939, Note_on_c, 7, 52, 0
13, 35940, Note_on_c, 7, 50, 48
13, 35999, Note_on_c, 7, 50, 0
13, 36000, Note_on_c, 7, 48, 48
13, 36059, Note_on_c, 7, 48, 0
13, 36060, Note_on_c, 7, 56, 48
13, 36119, Note_on_c, 7, 56, 0
13, 36120, Note_on_c, 7, 57, 48
13, 36149, Note_on_c, 7, 57, 0
13, 36180, Note_on_c, 7, 48, 48
13, 36209, Note_on_c, 7, 48, 0
13, 36240, Note_on_c, 7, 48, 48
13, 36254, Note_on_c, 7, 48, 0
13, 36255, Note_on_c, 7, 50, 48
13, 36269, Note_on_c, 7, 50, 0
13, 36270, Note_on_c, 7, 48, 48
13, 36284, Note_on_c, 7, 48, 0
13, 36285, Note_on_c, 7, 50, 48
13, 36299, Note_on_c, 7, 50, 0
13, 36300, Note_on_c, 7, 48, 48
13, 36314, Note_on_c, 7, 48, 0
13, 36315, Note_on_c, 7, 50, 48
13, 36329, Note_on_c, 7, 50, 0
13, 36330, Note_on_c, 7, 47, 48
13, 36344, Note_on_c, 7, 47, 0
13, 36345, Note_on_c, 7, 48, 48
13, 36359, Note_on_c, 7, 48, 0
13, 36360, Note_on_c, 7, 50, 48
13, 36419, Note_on_c, 7, 50, 0
13, 36420, Note_on_c, 7, 57, 48
13, 36479, Note_on_c, 7, 57, 0
13, 36480, Note_on_c, 7, 59, 48
13, 36509, Note_on_c, 7, 59, 0
13, 36540, Note_on_c, 7, 50, 48
13, 36569, Note_on_c, 7, 50, 0
13, 36600, Note_on_c, 7, 50, 48
13, 36614, Note_on_c, 7, 50, 0
13, 36615, Note_on_c, 7, 52, 48
13, 36629, Note_on_c, 7, 52, 0
13, 36630, Note_on_c, 7, 50, 48
13, 36644, Note_on_c, 7, 50, 0
13, 36645, Note_on_c, 7, 52, 48
13, 36659, Note_on_c, 7, 52, 0
13, 36660, Note_on_c, 7, 50, 48
13, 36674, Note_on_c, 7, 50, 0
13, 36675, Note_on_c, 7, 52, 48
13, 36689, Note_on_c, 7, 52, 0
13, 36690, Note_on_c, 7, 48, 48
13, 36704, Note_on_c, 7, 48, 0
13, 36705, Note_on_c, 7, 50, 48
13, 36719, Note_on_c, 7, 50, 0
13, 36720, Note_on_c, 7, 52, 48
13, 36779, Note_on_c, 7, 52, 0
13, 36780, Note_on_c, 7, 53, 48
13, 36839, Note_on_c, 7, 53, 0
13, 36840, Note_on_c, 7, 55, 48
13, 36899, Note_on_c, 7, 55, 0
13, 36900, Note_on_c, 7, 57, 48
13, 36929, Note_on_c, 7, 57, 0
13, 36930, Note_on_c, 7, 59, 48
13, 36959, Note_on_c, 7, 59, 0
13, 36960, Note_on_c, 7, 60, 48
13, 37139, Note_on_c, 7, 60, 0
13, 37140, Note_on_c, 7, 62, 48
13, 37169, Note_on_c, 7, 62, 0
13, 37170, Note_on_c, 7, 60, 48
13, 37199, Note_on_c, 7, 60, 0
13, 37200, Note_on_c, 7, 59, 48
13, 37259, Note_on_c, 7, 59, 0
13, 37260, Note_on_c, 7, 60, 48
13, 37289, Note_on_c, 7, 60, 0
13, 37290, Note_on_c, 7, 62, 48
13, 37319, Note_on_c, 7, 62, 0
13, 37320, Note_on_c, 7, 55, 48
13, 37379, Note_on_c, 7, 55, 0
13, 37380, Note_on_c, 7, 57, 48
13, 37409, Note_on_c, 7, 57, 0
13, 37410, Note_on_c, 7, 59, 48
13, 37439, Note_on_c, 7, 59, 0
13, 37440, Note_on_c, 7, 60, 48
13, 37559, Note_on_c, 7, 60, 0
13, 37559, End_track
14, 0, Start_track
14, 0, Title_t, "Contrabass"
14, 0, Program_c, 8, 48
14, 0, Control_c, 8, 7, 104
14, 0, Control_c, 8, 10, 112
14, 0, Control_c, 8, 11, 127
14, 2280, Note_on_c, 8, 36, 48
14, 2639, Note_on_c, 8, 36, 0
14, 2640, Note_on_c, 8, 36, 48
14, 2999, Note_on_c, 8, 36, 0
14, 3000, Note_on_c, 8, 36, 48
14, 3359, Note_on_c, 8, 36, 0
14, 3360, Note_on_c, 8, 36, 48
14, 3719, Note_on_c, 8, 36, 0
14, 3720, Note_on_c, 8, 36, 48
14, 4079, Note_on_c, 8, 36, 0
14, 4080, Note_on_c, 8, 36, 48
14, 4199, Note_on_c, 8, 36, 0
14, 4200, Note_on_c, 8, 36, 48
14, 4319, Note_on_c, 8, 36, 0
14, 4320, Note_on_c, 8, 38, 48
14, 4349, Note_on_c, 8, 38, 0
14, 4380, Note_on_c, 8, 45, 48
14, 4439, Note_on_c, 8, 45, 0
14, 4440, Note_on_c, 8, 46, 48
14, 4499, Note_on_c, 8, 46, 0
14, 4500, Note_on_c, 8, 43, 48
14, 4559, Note_on_c, 8, 43, 0
14, 4560, Note_on_c, 8, 48, 48
14, 4619, Note_on_c, 8, 48, 0
14, 4620, Note_on_c, 8, 36, 48
14, 4649, Note_on_c, 8, 36, 0
14, 4680, Note_on_c, 8, 41, 48
14, 4739, Note_on_c, 8, 41, 0
14, 4740, Note_on_c, 8, 29, 48
14, 4769, Note_on_c, 8, 29, 0
14, 4770, Note_on_c, 8, 31, 48
14, 4799, Note_on_c, 8, 31, 0
14, 4800, Note_on_c, 8, 33, 48
14, 4859, Note_on_c, 8, 33, 0
14, 4860, Note_on_c, 8, 34, 48
14, 4919, Note_on_c, 8, 34, 0
14, 4920, Note_on_c, 8, 36, 48
14, 4979, Note_on_c, 8, 36, 0
14, 4980, Note_on_c, 8, 38, 48
14, 5039, Note_on_c, 8, 38, 0
14, 5040, Note_on_c, 8, 34, 48
14, 5099, Note_on_c, 8, 34, 0
14, 5100, Note_on_c, 8, 31, 48
14, 5159, Note_on_c, 8, 31, 0
14, 5160, Note_on_c, 8, 36, 48
14, 5219, Note_on_c, 8, 36, 0
14, 5220, Note_on_c, 8, 34, 48
14, 5279, Note_on_c, 8, 34, 0
14, 5280, Note_on_c, 8, 33, 48
14, 5339, Note_on_c, 8, 33, 0
14, 5340, Note_on_c, 8, 31, 48
14, 5399, Note_on_c, 8, 31, 0
14, 5400, Note_on_c, 8, 29, 48
14, 5459, Note_on_c, 8, 29, 0
14, 5460, Note_on_c, 8, 41, 48
14, 5489, Note_on_c, 8, 41, 0
14, 5490, Note_on_c, 8, 40, 48
14, 5519, Note_on_c, 8, 40, 0
14, 5520, Note_on_c, 8, 38, 48
14, 5579, Note_on_c, 8, 38, 0
14, 5580, Note_on_c, 8, 36, 48
14, 5639, Note_on_c, 8, 36, 0
14, 5640, Note_on_c, 8, 34, 48
14, 5699, Note_on_c, 8, 34, 0
14, 5700, Note_on_c, 8, 33, 48
14, 5759, Note_on_c, 8, 33, 0
14, 5760, Note_on_c, 8, 31, 48
14, 5819, Note_on_c, 8, 31, 0
14, 5820, Note_on_c, 8, 50, 48
14, 5849, Note_on_c, 8, 50, 0
14, 5850, Note_on_c, 8, 48, 48
14, 5879, Note_on_c, 8, 48, 0
14, 5880, Note_on_c, 8, 46, 48
14, 5939, Note_on_c, 8, 46, 0
14, 5940, Note_on_c, 8, 45, 48
14, 5999, Note_on_c, 8, 45, 0
14, 6000, Note_on_c, 8, 43, 48
14, 6059, Note_on_c, 8, 43, 0
14, 6060, Note_on_c, 8, 41, 48
14, 6119, Note_on_c, 8, 41, 0
14, 6120, Note_on_c, 8, 40, 48
14, 6179, Note_on_c, 8, 40, 0
14, 6180, Note_on_c, 8, 36, 48
14, 6239, Note_on_c, 8, 36, 0
14, 6240, Note_on_c, 8, 41, 48
14, 6299, Note_on_c, 8, 41, 0
14, 6300, Note_on_c, 8, 40, 48
14, 6359, Note_on_c, 8, 40, 0
14, 6360, Note_on_c, 8, 38, 48
14, 6419, Note_on_c, 8, 38, 0
14, 6420, Note_on_c, 8, 36, 48
14, 6479, Note_on_c, 8, 36, 0
14, 6480, Note_on_c, 8, 38, 48
14, 6539, Note_on_c, 8, 38, 0
14, 6540, Note_on_c, 8, 40, 48
14, 6599, Note_on_c, 8, 40, 0
14, 6600, Note_on_c, 8, 41, 48
14, 6659, Note_on_c, 8, 41, 0
14, 6660, Note_on_c, 8, 38, 48
14, 6719, Note_on_c, 8, 38, 0
14, 6720, Note_on_c, 8, 33, 48
14, 6779, Note_on_c, 8, 33, 0
14, 6780, Note_on_c, 8, 35, 48
14, 6839, Note_on_c, 8, 35, 0
14, 6840, Note_on_c, 8, 36, 48
14, 6899, Note_on_c, 8, 36, 0
14, 9060, Note_on_c, 8, 43, 48
14, 9119, Note_on_c, 8, 43, 0
14, 9120, Note_on_c, 8, 43, 48
14, 9179, Note_on_c, 8, 43, 0
14, 9180, Note_on_c, 8, 43, 48
14, 9239, Note_on_c, 8, 43, 0
14, 9240, Note_on_c, 8, 43, 48
14, 9299, Note_on_c, 8, 43, 0
14, 9300, Note_on_c, 8, 43, 48
14, 9359, Note_on_c, 8, 43, 0
14, 9360, Note_on_c, 8, 44, 48
14, 9419, Note_on_c, 8, 44, 0
14, 9420, Note_on_c, 8, 44, 48
14, 9479, Note_on_c, 8, 44, 0
14, 9480, Note_on_c, 8, 44, 48
14, 9539, Note_on_c, 8, 44, 0
14, 9540, Note_on_c, 8, 44, 48
14, 9599, Note_on_c, 8, 44, 0
14, 9600, Note_on_c, 8, 43, 48
14, 9659, Note_on_c, 8, 43, 0
14, 9660, Note_on_c, 8, 43, 48
14, 9719, Note_on_c, 8, 43, 0
14, 9720, Note_on_c, 8, 41, 48
14, 9779, Note_on_c, 8, 41, 0
14, 9780, Note_on_c, 8, 41, 48
14, 9839, Note_on_c, 8, 41, 0
14, 9840, Note_on_c, 8, 41, 48
14, 9899, Note_on_c, 8, 41, 0
14, 9900, Note_on_c, 8, 41, 48
14, 9959, Note_on_c, 8, 41, 0
14, 9960, Note_on_c, 8, 43, 48
14, 10019, Note_on_c, 8, 43, 0
14, 10020, Note_on_c, 8, 43, 48
14, 10079, Note_on_c, 8, 43, 0
14, 10080, Note_on_c, 8, 44, 48
14, 10139, Note_on_c, 8, 44, 0
14, 10140, Note_on_c, 8, 44, 48
14, 10199, Note_on_c, 8, 44, 0
14, 10200, Note_on_c, 8, 44, 48
14, 10259, Note_on_c, 8, 44, 0
14, 10260, Note_on_c, 8, 44, 48
14, 10319, Note_on_c, 8, 44, 0
14, 10320, Note_on_c, 8, 43, 48
14, 10379, Note_on_c, 8, 43, 0
14, 10380, Note_on_c, 8, 43, 48
14, 10439, Note_on_c, 8, 43, 0
14, 10440, Note_on_c, 8, 42, 48
14, 10499, Note_on_c, 8, 42, 0
14, 10500, Note_on_c, 8, 42, 48
14, 10559, Note_on_c, 8, 42, 0
14, 10560, Note_on_c, 8, 42, 48
14, 10619, Note_on_c, 8, 42, 0
14, 10620, Note_on_c, 8, 42, 48
14, 10679, Note_on_c, 8, 42, 0
14, 10680, Note_on_c, 8, 43, 48
14, 10739, Note_on_c, 8, 43, 0
14, 10740, Note_on_c, 8, 43, 48
14, 10799, Note_on_c, 8, 43, 0
14, 10800, Note_on_c, 8, 44, 48
14, 10859, Note_on_c, 8, 44, 0
14, 10860, Note_on_c, 8, 44, 48
14, 10919, Note_on_c, 8, 44, 0
14, 10920, Note_on_c, 8, 43, 48
14, 10979, Note_on_c, 8, 43, 0
14, 10980, Note_on_c, 8, 43, 48
14, 11039, Note_on_c, 8, 43, 0
14, 11040, Note_on_c, 8, 41, 48
14, 11099, Note_on_c, 8, 41, 0
14, 11100, Note_on_c, 8, 41, 48
14, 11159, Note_on_c, 8, 41, 0
14, 11160, Note_on_c, 8, 40, 48
14, 11219, Note_on_c, 8, 40, 0
14, 11220, Note_on_c, 8, 40, 48
14, 11279, Note_on_c, 8, 40, 0
14, 11280, Note_on_c, 8, 44, 48
14, 11339, Note_on_c, 8, 44, 0
14, 11340, Note_on_c, 8, 44, 48
14, 11399, Note_on_c, 8, 44, 0
14, 11400, Note_on_c, 8, 45, 48
14, 11459, Note_on_c, 8, 45, 0
14, 11460, Note_on_c, 8, 45, 48
14, 11519, Note_on_c, 8, 45, 0
14, 11520, Note_on_c, 8, 41, 48
14, 11579, Note_on_c, 8, 41, 0
14, 11580, Note_on_c, 8, 41, 48
14, 11639, Note_on_c, 8, 41, 0
14, 11640, Note_on_c, 8, 43, 48
14, 11699, Note_on_c, 8, 43, 0
14, 11700, Note_on_c, 8, 43, 48
14, 11759, Note_on_c, 8, 43, 0
14, 11760, Note_on_c, 8, 31, 48
14, 11819, Note_on_c, 8, 31, 0
14, 11820, Note_on_c, 8, 31, 48
14, 11879, Note_on_c, 8, 31, 0
14, 11880, Note_on_c, 8, 36, 48
14, 11999, Note_on_c, 8, 36, 0
14, 12900, Note_on_c, 8, 44, 66
14, 12959, Note_on_c, 8, 44, 0
14, 12960, Note_on_c, 8, 45, 66
14, 13019, Note_on_c, 8, 45, 0
14, 13020, Note_on_c, 8, 40, 66
14, 13079, Note_on_c, 8, 40, 0
14, 13080, Note_on_c, 8, 41, 66
14, 13139, Note_on_c, 8, 41, 0
14, 13140, Note_on_c, 8, 38, 66
14, 13199, Note_on_c, 8, 38, 0
14, 13200, Note_on_c, 8, 43, 66
14, 13259, Note_on_c, 8, 43, 0
14, 13260, Note_on_c, 8, 31, 66
14, 13289, Note_on_c, 8, 31, 0
14, 13320, Note_on_c, 8, 36, 66
14, 13349, Note_on_c, 8, 36, 0
14, 13380, Note_on_c, 8, 36, 48
14, 13409, Note_on_c, 8, 36, 0
14, 13410, Note_on_c, 8, 38, 48
14, 13439, Note_on_c, 8, 38, 0
14, 13440, Note_on_c, 8, 39, 48
14, 13499, Note_on_c, 8, 39, 0
14, 13500, Note_on_c, 8, 43, 48
14, 13559, Note_on_c, 8, 43, 0
14, 13560, Note_on_c, 8, 39, 48
14, 13619, Note_on_c, 8, 39, 0
14, 13620, Note_on_c, 8, 36, 48
14, 13679, Note_on_c, 8, 36, 0
14, 13740, Note_on_c, 8, 31, 48
14, 13769, Note_on_c, 8, 31, 0
14, 13770, Note_on_c, 8, 33, 48
14, 13799, Note_on_c, 8, 33, 0
14, 13800, Note_on_c, 8, 35, 48
14, 13859, Note_on_c, 8, 35, 0
14, 13860, Note_on_c, 8, 38, 48
14, 13919, Note_on_c, 8, 38, 0
14, 13920, Note_on_c, 8, 35, 48
14, 13979, Note_on_c, 8, 35, 0
14, 13980, Note_on_c, 8, 31, 48
14, 14039, Note_on_c, 8, 31, 0
14, 14100, Note_on_c, 8, 39, 48
14, 14129, Note_on_c, 8, 39, 0
14, 14130, Note_on_c, 8, 38, 48
14, 14159, Note_on_c, 8, 38, 0
14, 14160, Note_on_c, 8, 36, 48
14, 14219, Note_on_c, 8, 36, 0
14, 14220, Note_on_c, 8, 38, 48
14, 14279, Note_on_c, 8, 38, 0
14, 14280, Note_on_c, 8, 39, 48
14, 14339, Note_on_c, 8, 39, 0
14, 14340, Note_on_c, 8, 41, 48
14, 14399, Note_on_c, 8, 41, 0
14, 14400, Note_on_c, 8, 43, 48
14, 14459, Note_on_c, 8, 43, 0
14, 14460, Note_on_c, 8, 31, 48
14, 14519, Note_on_c, 8, 31, 0
14, 14520, Note_on_c, 8, 43, 48
14, 14579, Note_on_c, 8, 43, 0
14, 14580, Note_on_c, 8, 41, 48
14, 14639, Note_on_c, 8, 41, 0
14, 14640, Note_on_c, 8, 40, 48
14, 14699, Note_on_c, 8, 40, 0
14, 14700, Note_on_c, 8, 45, 48
14, 14759, Note_on_c, 8, 45, 0
14, 14760, Note_on_c, 8, 38, 48
14, 14819, Note_on_c, 8, 38, 0
14, 14820, Note_on_c, 8, 38, 48
14, 14849, Note_on_c, 8, 38, 0
14, 14850, Note_on_c, 8, 40, 48
14, 14879, Note_on_c, 8, 40, 0
14, 14880, Note_on_c, 8, 41, 48
14, 14939, Note_on_c, 8, 41, 0
14, 14940, Note_on_c, 8, 45, 48
14, 14999, Note_on_c, 8, 45, 0
14, 15000, Note_on_c, 8, 41, 48
14, 15059, Note_on_c, 8, 41, 0
14, 15060, Note_on_c, 8, 38, 48
14, 15119, Note_on_c, 8, 38, 0
14, 15180, Note_on_c, 8, 33, 48
14, 15209, Note_on_c, 8, 33, 0
14, 15210, Note_on_c, 8, 35, 48
14, 15239, Note_on_c, 8, 35, 0
14, 15240, Note_on_c, 8, 37, 48
14, 15299, Note_on_c, 8, 37, 0
14, 15300, Note_on_c, 8, 40, 48
14, 15359, Note_on_c, 8, 40, 0
14, 15360, Note_on_c, 8, 37, 48
14, 15419, Note_on_c, 8, 37, 0
14, 15420, Note_on_c, 8, 33, 48
14, 15479, Note_on_c, 8, 33, 0
14, 15540, Note_on_c, 8, 38, 48
14, 15569, Note_on_c, 8, 38, 0
14, 15570, Note_on_c, 8, 37, 48
14, 15599, Note_on_c, 8, 37, 0
14, 15600, Note_on_c, 8, 38, 48
14, 15659, Note_on_c, 8, 38, 0
14, 15660, Note_on_c, 8, 40, 48
14, 15719, Note_on_c, 8, 40, 0
14, 15720, Note_on_c, 8, 41, 48
14, 15779, Note_on_c, 8, 41, 0
14, 15780, Note_on_c, 8, 43, 48
14, 15839, Note_on_c, 8, 43, 0
14, 15840, Note_on_c, 8, 45, 48
14, 15899, Note_on_c, 8, 45, 0
14, 15900, Note_on_c, 8, 33, 48
14, 15959, Note_on_c, 8, 33, 0
14, 15960, Note_on_c, 8, 45, 48
14, 16019, Note_on_c, 8, 45, 0
14, 16020, Note_on_c, 8, 43, 48
14, 16079, Note_on_c, 8, 43, 0
14, 16080, Note_on_c, 8, 41, 48
14, 16139, Note_on_c, 8, 41, 0
14, 16140, Note_on_c, 8, 40, 48
14, 16199, Note_on_c, 8, 40, 0
14, 16200, Note_on_c, 8, 38, 48
14, 16259, Note_on_c, 8, 38, 0
14, 16260, Note_on_c, 8, 50, 48
14, 16289, Note_on_c, 8, 50, 0
14, 16290, Note_on_c, 8, 48, 48
14, 16319, Note_on_c, 8, 48, 0
14, 16320, Note_on_c, 8, 46, 48
14, 16379, Note_on_c, 8, 46, 0
14, 16380, Note_on_c, 8, 45, 48
14, 16439, Note_on_c, 8, 45, 0
14, 16440, Note_on_c, 8, 43, 48
14, 16499, Note_on_c, 8, 43, 0
14, 16500, Note_on_c, 8, 41, 48
14, 16559, Note_on_c, 8, 41, 0
14, 16560, Note_on_c, 8, 40, 48
14, 16619, Note_on_c, 8, 40, 0
14, 16620, Note_on_c, 8, 48, 48
14, 16649, Note_on_c, 8, 48, 0
14, 16650, Note_on_c, 8, 46, 48
14, 16679, Note_on_c, 8, 46, 0
14, 16680, Note_on_c, 8, 45, 48
14, 16739, Note_on_c, 8, 45, 0
14, 16740, Note_on_c, 8, 43, 48
14, 16799, Note_on_c, 8, 43, 0
14, 16800, Note_on_c, 8, 41, 48
14, 16859, Note_on_c, 8, 41, 0
14, 16860, Note_on_c, 8, 40, 48
14, 16919, Note_on_c, 8, 40, 0
14, 16920, Note_on_c, 8, 38, 48
14, 16979, Note_on_c, 8, 38, 0
14, 16980, Note_on_c, 8, 46, 48
14, 17009, Note_on_c, 8, 46, 0
14, 17010, Note_on_c, 8, 45, 48
14, 17039, Note_on_c, 8, 45, 0
14, 17040, Note_on_c, 8, 43, 48
14, 17099, Note_on_c, 8, 43, 0
14, 17100, Note_on_c, 8, 41, 48
14, 17159, Note_on_c, 8, 41, 0
14, 17160, Note_on_c, 8, 40, 48
14, 17219, Note_on_c, 8, 40, 0
14, 17220, Note_on_c, 8, 38, 48
14, 17279, Note_on_c, 8, 38, 0
14, 17280, Note_on_c, 8, 37, 48
14, 17339, Note_on_c, 8, 37, 0
14, 17340, Note_on_c, 8, 45, 48
14, 17369, Note_on_c, 8, 45, 0
14, 17370, Note_on_c, 8, 43, 48
14, 17399, Note_on_c, 8, 43, 0
14, 17400, Note_on_c, 8, 41, 48
14, 17459, Note_on_c, 8, 41, 0
14, 17460, Note_on_c, 8, 40, 48
14, 17519, Note_on_c, 8, 40, 0
14, 17520, Note_on_c, 8, 38, 48
14, 17579, Note_on_c, 8, 38, 0
14, 17580, Note_on_c, 8, 36, 48
14, 17639, Note_on_c, 8, 36, 0
14, 17640, Note_on_c, 8, 34, 48
14, 17699, Note_on_c, 8, 34, 0
14, 17700, Note_on_c, 8, 46, 48
14, 17759, Note_on_c, 8, 46, 0
14, 17760, Note_on_c, 8, 46, 48
14, 17819, Note_on_c, 8, 46, 0
14, 17820, Note_on_c, 8, 46, 48
14, 17879, Note_on_c, 8, 46, 0
14, 17880, Note_on_c, 8, 46, 48
14, 17939, Note_on_c, 8, 46, 0
14, 17940, Note_on_c, 8, 45, 48
14, 17999, Note_on_c, 8, 45, 0
14, 18000, Note_on_c, 8, 43, 48
14, 18059, Note_on_c, 8, 43, 0
14, 18060, Note_on_c, 8, 43, 48
14, 18119, Note_on_c, 8, 43, 0
14, 18120, Note_on_c, 8, 45, 48
14, 18179, Note_on_c, 8, 45, 0
14, 18180, Note_on_c, 8, 45, 48
14, 18239, Note_on_c, 8, 45, 0
14, 18240, Note_on_c, 8, 33, 48
14, 18299, Note_on_c, 8, 33, 0
14, 18300, Note_on_c, 8, 33, 48
14, 18359, Note_on_c, 8, 33, 0
14, 18360, Note_on_c, 8, 38, 48
14, 18479, Note_on_c, 8, 38, 0
14, 18780, Note_on_c, 8, 45, 66
14, 18809, Note_on_c, 8, 45, 0
14, 18810, Note_on_c, 8, 43, 66
14, 18839, Note_on_c, 8, 43, 0
14, 18840, Note_on_c, 8, 41, 66
14, 18899, Note_on_c, 8, 41, 0
14, 18900, Note_on_c, 8, 39, 66
14, 18959, Note_on_c, 8, 39, 0
14, 18960, Note_on_c, 8, 38, 66
14, 19019, Note_on_c, 8, 38, 0
14, 19020, Note_on_c, 8, 36, 66
14, 19079, Note_on_c, 8, 36, 0
14, 19080, Note_on_c, 8, 34, 66
14, 19139, Note_on_c, 8, 34, 0
14, 21300, Note_on_c, 8, 41, 48
14, 21359, Note_on_c, 8, 41, 0
14, 21360, Note_on_c, 8, 41, 48
14, 21419, Note_on_c, 8, 41, 0
14, 21420, Note_on_c, 8, 41, 48
14, 21479, Note_on_c, 8, 41, 0
14, 21480, Note_on_c, 8, 41, 48
14, 21539, Note_on_c, 8, 41, 0
14, 21540, Note_on_c, 8, 41, 48
14, 21599, Note_on_c, 8, 41, 0
14, 21600, Note_on_c, 8, 42, 48
14, 21659, Note_on_c, 8, 42, 0
14, 21660, Note_on_c, 8, 42, 48
14, 21719, Note_on_c, 8, 42, 0
14, 21720, Note_on_c, 8, 42, 48
14, 21779, Note_on_c, 8, 42, 0
14, 21780, Note_on_c, 8, 42, 48
14, 21839, Note_on_c, 8, 42, 0
14, 21840, Note_on_c, 8, 41, 48
14, 21899, Note_on_c, 8, 41, 0
14, 21900, Note_on_c, 8, 41, 48
14, 21959, Note_on_c, 8, 41, 0
14, 21960, Note_on_c, 8, 39, 48
14, 22019, Note_on_c, 8, 39, 0
14, 22020, Note_on_c, 8, 39, 48
14, 22079, Note_on_c, 8, 39, 0
14, 22080, Note_on_c, 8, 39, 48
14, 22139, Note_on_c, 8, 39, 0
14, 22140, Note_on_c, 8, 39, 48
14, 22199, Note_on_c, 8, 39, 0
14, 22200, Note_on_c, 8, 41, 48
14, 22259, Note_on_c, 8, 41, 0
14, 22260, Note_on_c, 8, 41, 48
14, 22319, Note_on_c, 8, 41, 0
14, 22320, Note_on_c, 8, 42, 48
14, 22379, Note_on_c, 8, 42, 0
14, 22380, Note_on_c, 8, 42, 48
14, 22439, Note_on_c, 8, 42, 0
14, 22440, Note_on_c, 8, 42, 48
14, 22499, Note_on_c, 8, 42, 0
14, 22500, Note_on_c, 8, 42, 48
14, 22559, Note_on_c, 8, 42, 0
14, 22560, Note_on_c, 8, 41, 48
14, 22619, Note_on_c, 8, 41, 0
14, 22620, Note_on_c, 8, 41, 48
14, 22679, Note_on_c, 8, 41, 0
14, 22680, Note_on_c, 8, 40, 48
14, 22739, Note_on_c, 8, 40, 0
14, 22740, Note_on_c, 8, 40, 48
14, 22799, Note_on_c, 8, 40, 0
14, 22800, Note_on_c, 8, 40, 48
14, 22859, Note_on_c, 8, 40, 0
14, 22860, Note_on_c, 8, 40, 48
14, 22919, Note_on_c, 8, 40, 0
14, 22920, Note_on_c, 8, 41, 48
14, 22979, Note_on_c, 8, 41, 0
14, 22980, Note_on_c, 8, 41, 48
14, 23039, Note_on_c, 8, 41, 0
14, 23040, Note_on_c, 8, 42, 48
14, 23099, Note_on_c, 8, 42, 0
14, 23100, Note_on_c, 8, 42, 48
14, 23159, Note_on_c, 8, 42, 0
14, 23160, Note_on_c, 8, 41, 48
14, 23219, Note_on_c, 8, 41, 0
14, 23220, Note_on_c, 8, 41, 48
14, 23279, Note_on_c, 8, 41, 0
14, 23280, Note_on_c, 8, 39, 48
14, 23339, Note_on_c, 8, 39, 0
14, 23340, Note_on_c, 8, 39, 48
14, 23399, Note_on_c, 8, 39, 0
14, 23400, Note_on_c, 8, 38, 48
14, 23459, Note_on_c, 8, 38, 0
14, 23460, Note_on_c, 8, 38, 48
14, 23519, Note_on_c, 8, 38, 0
14, 23520, Note_on_c, 8, 42, 48
14, 23579, Note_on_c, 8, 42, 0
14, 23580, Note_on_c, 8, 42, 48
14, 23639, Note_on_c, 8, 42, 0
14, 23640, Note_on_c, 8, 43, 48
14, 23699, Note_on_c, 8, 43, 0
14, 23700, Note_on_c, 8, 43, 48
14, 23759, Note_on_c, 8, 43, 0
14, 23760, Note_on_c, 8, 39, 48
14, 23819, Note_on_c, 8, 39, 0
14, 23820, Note_on_c, 8, 39, 48
14, 23879, Note_on_c, 8, 39, 0
14, 23880, Note_on_c, 8, 41, 48
14, 23939, Note_on_c, 8, 41, 0
14, 23940, Note_on_c, 8, 41, 48
14, 23999, Note_on_c, 8, 41, 0
14, 24000, Note_on_c, 8, 29, 48
14, 24059, Note_on_c, 8, 29, 0
14, 24060, Note_on_c, 8, 29, 48
14, 24119, Note_on_c, 8, 29, 0
14, 24120, Note_on_c, 8, 34, 48
14, 24239, Note_on_c, 8, 34, 0
14, 25140, Note_on_c, 8, 42, 66
14, 25199, Note_on_c, 8, 42, 0
14, 25200, Note_on_c, 8, 43, 66
14, 25259, Note_on_c, 8, 43, 0
14, 25260, Note_on_c, 8, 38, 66
14, 25319, Note_on_c, 8, 38, 0
14, 25320, Note_on_c, 8, 39, 66
14, 25379, Note_on_c, 8, 39, 0
14, 25380, Note_on_c, 8, 36, 66
14, 25439, Note_on_c, 8, 36, 0
14, 25440, Note_on_c, 8, 41, 66
14, 25499, Note_on_c, 8, 41, 0
14, 25500, Note_on_c, 8, 29, 66
14, 25559, Note_on_c, 8, 29, 0
14, 25560, Note_on_c, 8, 34, 66
14, 25619, Note_on_c, 8, 34, 0
14, 25680, Note_on_c, 8, 46, 48
14, 25739, Note_on_c, 8, 46, 0
14, 25800, Note_on_c, 8, 46, 48
14, 25859, Note_on_c, 8, 46, 0
14, 25920, Note_on_c, 8, 46, 48
14, 25979, Note_on_c, 8, 46, 0
14, 26040, Note_on_c, 8, 46, 48
14, 26099, Note_on_c, 8, 46, 0
14, 26160, Note_on_c, 8, 46, 48
14, 26219, Note_on_c, 8, 46, 0
14, 26280, Note_on_c, 8, 33, 48
14, 26339, Note_on_c, 8, 33, 0
14, 26400, Note_on_c, 8, 33, 48
14, 26459, Note_on_c, 8, 33, 0
14, 26520, Note_on_c, 8, 33, 48
14, 26579, Note_on_c, 8, 33, 0
14, 26640, Note_on_c, 8, 34, 48
14, 26699, Note_on_c, 8, 34, 0
14, 26760, Note_on_c, 8, 34, 48
14, 26819, Note_on_c, 8, 34, 0
14, 26880, Note_on_c, 8, 31, 72
14, 26939, Note_on_c, 8, 31, 0
14, 27000, Note_on_c, 8, 36, 72
14, 27059, Note_on_c, 8, 36, 0
14, 27120, Note_on_c, 8, 48, 48
14, 27179, Note_on_c, 8, 48, 0
14, 27240, Note_on_c, 8, 48, 48
14, 27299, Note_on_c, 8, 48, 0
14, 27360, Note_on_c, 8, 48, 48
14, 27419, Note_on_c, 8, 48, 0
14, 27480, Note_on_c, 8, 48, 48
14, 27539, Note_on_c, 8, 48, 0
14, 27600, Note_on_c, 8, 48, 48
14, 27659, Note_on_c, 8, 48, 0
14, 27720, Note_on_c, 8, 35, 48
14, 27779, Note_on_c, 8, 35, 0
14, 27840, Note_on_c, 8, 35, 48
14, 27899, Note_on_c, 8, 35, 0
14, 27960, Note_on_c, 8, 35, 48
14, 28019, Note_on_c, 8, 35, 0
14, 28080, Note_on_c, 8, 36, 48
14, 28139, Note_on_c, 8, 36, 0
14, 28200, Note_on_c, 8, 36, 48
14, 28259, Note_on_c, 8, 36, 0
14, 28320, Note_on_c, 8, 33, 72
14, 28379, Note_on_c, 8, 33, 0
14, 28440, Note_on_c, 8, 38, 72
14, 28499, Note_on_c, 8, 38, 0
14, 28560, Note_on_c, 8, 50, 48
14, 28619, Note_on_c, 8, 50, 0
14, 28680, Note_on_c, 8, 50, 48
14, 28739, Note_on_c, 8, 50, 0
14, 28800, Note_on_c, 8, 50, 48
14, 28859, Note_on_c, 8, 50, 0
14, 28920, Note_on_c, 8, 50, 48
14, 28979, Note_on_c, 8, 50, 0
14, 29040, Note_on_c, 8, 50, 48
14, 29099, Note_on_c, 8, 50, 0
14, 29160, Note_on_c, 8, 37, 48
14, 29219, Note_on_c, 8, 37, 0
14, 29280, Note_on_c, 8, 37, 48
14, 29339, Note_on_c, 8, 37, 0
14, 29400, Note_on_c, 8, 37, 48
14, 29459, Note_on_c, 8, 37, 0
14, 29520, Note_on_c, 8, 38, 48
14, 29579, Note_on_c, 8, 38, 0
14, 29640, Note_on_c, 8, 38, 48
14, 29699, Note_on_c, 8, 38, 0
14, 29880, Note_on_c, 8, 41, 48
14, 30119, Note_on_c, 8, 41, 0
14, 30120, Note_on_c, 8, 38, 48
14, 30239, Note_on_c, 8, 38, 0
14, 30240, Note_on_c, 8, 40, 48
14, 30359, Note_on_c, 8, 40, 0
14, 30360, Note_on_c, 8, 33, 48
14, 30479, Note_on_c, 8, 33, 0
14, 30600, Note_on_c, 8, 39, 48
14, 30839, Note_on_c, 8, 39, 0
14, 30840, Note_on_c, 8, 36, 48
14, 30959, Note_on_c, 8, 36, 0
14, 30960, Note_on_c, 8, 38, 48
14, 31079, Note_on_c, 8, 38, 0
14, 31080, Note_on_c, 8, 31, 48
14, 31199, Note_on_c, 8, 31, 0
14, 31920, Note_on_c, 8, 43, 48
14, 31979, Note_on_c, 8, 43, 0
14, 31980, Note_on_c, 8, 41, 48
14, 32039, Note_on_c, 8, 41, 0
14, 32040, Note_on_c, 8, 40, 48
14, 32159, Note_on_c, 8, 40, 0
14, 32160, Note_on_c, 8, 36, 48
14, 32279, Note_on_c, 8, 36, 0
14, 32280, Note_on_c, 8, 38, 48
14, 32399, Note_on_c, 8, 38, 0
14, 32400, Note_on_c, 8, 31, 72
14, 32519, Note_on_c, 8, 31, 0
14, 32520, Note_on_c, 8, 43, 48
14, 32639, Note_on_c, 8, 43, 0
14, 32640, Note_on_c, 8, 43, 48
14, 32759, Note_on_c, 8, 43, 0
14, 32760, Note_on_c, 8, 36, 48
14, 32879, Note_on_c, 8, 36, 0
14, 33180, Note_on_c, 8, 41, 48
14, 33209, Note_on_c, 8, 41, 0
14, 33210, Note_on_c, 8, 40, 48
14, 33239, Note_on_c, 8, 40, 0
14, 33240, Note_on_c, 8, 38, 48
14, 33299, Note_on_c, 8, 38, 0
14, 33300, Note_on_c, 8, 36, 48
14, 33359, Note_on_c, 8, 36, 0
14, 33360, Note_on_c, 8, 34, 48
14, 33419, Note_on_c, 8, 34, 0
14, 33420, Note_on_c, 8, 33, 48
14, 33479, Note_on_c, 8, 33, 0
14, 33480, Note_on_c, 8, 34, 48
14, 33539, Note_on_c, 8, 34, 0
14, 33540, Note_on_c, 8, 38, 48
14, 33599, Note_on_c, 8, 38, 0
14, 33600, Note_on_c, 8, 36, 48
14, 33659, Note_on_c, 8, 36, 0
14, 33660, Note_on_c, 8, 34, 48
14, 33719, Note_on_c, 8, 34, 0
14, 33720, Note_on_c, 8, 33, 48
14, 33779, Note_on_c, 8, 33, 0
14, 33780, Note_on_c, 8, 31, 48
14, 33839, Note_on_c, 8, 31, 0
14, 33840, Note_on_c, 8, 29, 48
14, 33899, Note_on_c, 8, 29, 0
14, 33900, Note_on_c, 8, 41, 48
14, 33929, Note_on_c, 8, 41, 0
14, 33930, Note_on_c, 8, 40, 48
14, 33959, Note_on_c, 8, 40, 0
14, 33960, Note_on_c, 8, 38, 48
14, 34019, Note_on_c, 8, 38, 0
14, 34020, Note_on_c, 8, 36, 48
14, 34079, Note_on_c, 8, 36, 0
14, 34080, Note_on_c, 8, 34, 48
14, 34139, Note_on_c, 8, 34, 0
14, 34140, Note_on_c, 8, 33, 48
14, 34199, Note_on_c, 8, 33, 0
14, 34200, Note_on_c, 8, 31, 48
14, 34259, Note_on_c, 8, 31, 0
14, 34260, Note_on_c, 8, 50, 48
14, 34289, Note_on_c, 8, 50, 0
14, 34290, Note_on_c, 8, 48, 48
14, 34319, Note_on_c, 8, 48, 0
14, 34320, Note_on_c, 8, 46, 48
14, 34379, Note_on_c, 8, 46, 0
14, 34380, Note_on_c, 8, 45, 48
14, 34439, Note_on_c, 8, 45, 0
14, 34440, Note_on_c, 8, 43, 48
14, 34499, Note_on_c, 8, 43, 0
14, 34500, Note_on_c, 8, 41, 48
14, 34559, Note_on_c, 8, 41, 0
14, 34560, Note_on_c, 8, 40, 48
14, 34619, Note_on_c, 8, 40, 0
14, 34620, Note_on_c, 8, 41, 48
14, 34649, Note_on_c, 8, 41, 0
14, 34650, Note_on_c, 8, 43, 48
14, 34679, Note_on_c, 8, 43, 0
14, 34680, Note_on_c, 8, 45, 48
14, 34739, Note_on_c, 8, 45, 0
14, 34740, Note_on_c, 8, 41, 48
14, 34799, Note_on_c, 8, 41, 0
14, 34800, Note_on_c, 8, 38, 48
14, 34859, Note_on_c, 8, 38, 0
14, 34860, Note_on_c, 8, 40, 48
14, 34889, Note_on_c, 8, 40, 0
14, 34890, Note_on_c, 8, 41, 48
14, 34919, Note_on_c, 8, 41, 0
14, 34920, Note_on_c, 8, 43, 48
14, 34979, Note_on_c, 8, 43, 0
14, 34980, Note_on_c, 8, 40, 48
14, 35039, Note_on_c, 8, 40, 0
14, 35040, Note_on_c, 8, 41, 48
14, 35099, Note_on_c, 8, 41, 0
14, 35100, Note_on_c, 8, 38, 48
14, 35159, Note_on_c, 8, 38, 0
14, 35160, Note_on_c, 8, 33, 48
14, 35219, Note_on_c, 8, 33, 0
14, 35220, Note_on_c, 8, 35, 48
14, 35279, Note_on_c, 8, 35, 0
14, 35280, Note_on_c, 8, 33, 48
14, 35339, Note_on_c, 8, 33, 0
14, 37560, Note_on_c, 8, 36, 72
14, 37619, Note_on_c, 8, 36, 0
14, 37620, Note_on_c, 8, 40, 72
14, 37649, Note_on_c, 8, 40, 0
14, 37650, Note_on_c, 8, 43, 72
14, 37679, Note_on_c, 8, 43, 0
14, 37680, Note_on_c, 8, 48, 72
14, 37739, Note_on_c, 8, 48, 0
14, 37740, Note_on_c, 8, 48, 72
14, 37799, Note_on_c, 8, 48, 0
14, 37800, Note_on_c, 8, 35, 72
14, 37919, Note_on_c, 8, 35, 0
14, 38280, Note_on_c, 8, 36, 72
14, 38339, Note_on_c, 8, 36, 0
14, 38340, Note_on_c, 8, 40, 72
14, 38369, Note_on_c, 8, 40, 0
14, 38370, Note_on_c, 8, 43, 72
14, 38399, Note_on_c, 8, 43, 0
14, 38400, Note_on_c, 8, 48, 72
14, 38459, Note_on_c, 8, 48, 0
14, 38460, Note_on_c, 8, 48, 72
14, 38519, Note_on_c, 8, 48, 0
14, 38520, Note_on_c, 8, 37, 72
14, 38639, Note_on_c, 8, 37, 0
14, 39240, Note_on_c, 8, 36, 48
14, 39299, Note_on_c, 8, 36, 0
14, 39300, Note_on_c, 8, 36, 48
14, 39359, Note_on_c, 8, 36, 0
14, 39360, Note_on_c, 8, 36, 48
14, 39419, Note_on_c, 8, 36, 0
14, 39420, Note_on_c, 8, 36, 48
14, 39479, Note_on_c, 8, 36, 0
14, 39480, Note_on_c, 8, 36, 48
14, 39539, Note_on_c, 8, 36, 0
14, 39540, Note_on_c, 8, 36, 48
14, 39599, Note_on_c, 8, 36, 0
14, 39600, Note_on_c, 8, 37, 48
14, 39659, Note_on_c, 8, 37, 0
14, 39660, Note_on_c, 8, 37, 48
14, 39719, Note_on_c, 8, 37, 0
14, 39720, Note_on_c, 8, 37, 48
14, 39779, Note_on_c, 8, 37, 0
14, 39780, Note_on_c, 8, 37, 48
14, 39839, Note_on_c, 8, 37, 0
14, 39840, Note_on_c, 8, 36, 48
14, 39899, Note_on_c, 8, 36, 0
14, 39900, Note_on_c, 8, 36, 48
14, 39959, Note_on_c, 8, 36, 0
14, 39960, Note_on_c, 8, 34, 48
14, 40019, Note_on_c, 8, 34, 0
14, 40020, Note_on_c, 8, 34, 48
14, 40079, Note_on_c, 8, 34, 0
14, 40080, Note_on_c, 8, 34, 48
14, 40139, Note_on_c, 8, 34, 0
14, 40140, Note_on_c, 8, 34, 48
14, 40199, Note_on_c, 8, 34, 0
14, 40200, Note_on_c, 8, 36, 48
14, 40259, Note_on_c, 8, 36, 0
14, 40260, Note_on_c, 8, 36, 48
14, 40319, Note_on_c, 8, 36, 0
14, 40320, Note_on_c, 8, 37, 48
14, 40379, Note_on_c, 8, 37, 0
14, 40380, Note_on_c, 8, 37, 48
14, 40439, Note_on_c, 8, 37, 0
14, 40440, Note_on_c, 8, 37, 48
14, 40499, Note_on_c, 8, 37, 0
14, 40500, Note_on_c, 8, 37, 48
14, 40559, Note_on_c, 8, 37, 0
14, 40560, Note_on_c, 8, 36, 48
14, 40619, Note_on_c, 8, 36, 0
14, 40620, Note_on_c, 8, 36, 48
14, 40679, Note_on_c, 8, 36, 0
14, 40680, Note_on_c, 8, 35, 48
14, 40739, Note_on_c, 8, 35, 0
14, 40740, Note_on_c, 8, 35, 48
14, 40799, Note_on_c, 8, 35, 0
14, 40800, Note_on_c, 8, 35, 48
14, 40859, Note_on_c, 8, 35, 0
14, 40860, Note_on_c, 8, 35, 48
14, 40919, Note_on_c, 8, 35, 0
14, 40920, Note_on_c, 8, 36, 48
14, 40979, Note_on_c, 8, 36, 0
14, 40980, Note_on_c, 8, 36, 48
14, 41039, Note_on_c, 8, 36, 0
14, 41040, Note_on_c, 8, 37, 48
14, 41099, Note_on_c, 8, 37, 0
14, 41100, Note_on_c, 8, 37, 48
14, 41159, Note_on_c, 8, 37, 0
14, 41160, Note_on_c, 8, 36, 48
14, 41219, Note_on_c, 8, 36, 0
14, 41220, Note_on_c, 8, 36, 48
14, 41279, Note_on_c, 8, 36, 0
14, 41280, Note_on_c, 8, 34, 48
14, 41339, Note_on_c, 8, 34, 0
14, 41340, Note_on_c, 8, 34, 48
14, 41399, Note_on_c, 8, 34, 0
14, 41400, Note_on_c, 8, 33, 48
14, 41459, Note_on_c, 8, 33, 0
14, 41460, Note_on_c, 8, 33, 48
14, 41519, Note_on_c, 8, 33, 0
14, 41520, Note_on_c, 8, 37, 48
14, 41579, Note_on_c, 8, 37, 0
14, 41580, Note_on_c, 8, 37, 48
14, 41639, Note_on_c, 8, 37, 0
14, 41640, Note_on_c, 8, 38, 48
14, 41699, Note_on_c, 8, 38, 0
14, 41700, Note_on_c, 8, 38, 48
14, 41759, Note_on_c, 8, 38, 0
14, 41760, Note_on_c, 8, 34, 48
14, 41805, Note_on_c, 8, 34, 48
14, 41819, Note_on_c, 8, 34, 0
14, 41864, Note_on_c, 8, 34, 0
14, 41880, Note_on_c, 8, 36, 48
14, 41939, Note_on_c, 8, 36, 0
14, 41940, Note_on_c, 8, 36, 48
14, 41999, Note_on_c, 8, 36, 0
14, 42000, Note_on_c, 8, 36, 48
14, 42059, Note_on_c, 8, 36, 0
14, 42060, Note_on_c, 8, 36, 48
14, 42119, Note_on_c, 8, 36, 0
14, 42120, Note_on_c, 8, 29, 48
14, 42239, Note_on_c, 8, 29, 0
14, 42720, Note_on_c, 8, 34, 48
14, 42899, Note_on_c, 8, 34, 0
14, 42900, Note_on_c, 8, 36, 48
14, 42959, Note_on_c, 8, 36, 0
14, 42960, Note_on_c, 8, 38, 48
14, 43019, Note_on_c, 8, 38, 0
14, 43020, Note_on_c, 8, 40, 48
14, 43079, Note_on_c, 8, 40, 0
14, 43080, Note_on_c, 8, 41, 48
14, 43139, Note_on_c, 8, 41, 0
14, 43140, Note_on_c, 8, 43, 48
14, 43199, Note_on_c, 8, 43, 0
14, 43200, Note_on_c, 8, 45, 48
14, 43259, Note_on_c, 8, 45, 0
14, 43260, Note_on_c, 8, 46, 48
14, 43319, Note_on_c, 8, 46, 0
14, 43320, Note_on_c, 8, 48, 48
14, 43439, Note_on_c, 8, 48, 0
14, 43440, Note_on_c, 8, 36, 48
14, 43559, Note_on_c, 8, 36, 0
14, 43560, Note_on_c, 8, 41, 48
14, 43679, Note_on_c, 8, 41, 0
14, 44160, Note_on_c, 8, 34, 48
14, 44339, Note_on_c, 8, 34, 0
14, 44340, Note_on_c, 8, 36, 48
14, 44399, Note_on_c, 8, 36, 0
14, 44400, Note_on_c, 8, 38, 48
14, 44459, Note_on_c, 8, 38, 0
14, 44460, Note_on_c, 8, 40, 48
14, 44519, Note_on_c, 8, 40, 0
14, 44520, Note_on_c, 8, 41, 48
14, 44579, Note_on_c, 8, 41, 0
14, 44580, Note_on_c, 8, 43, 48
14, 44639, Note_on_c, 8, 43, 0
14, 44640, Note_on_c, 8, 45, 48
14, 44699, Note_on_c, 8, 45, 0
14, 44700, Note_on_c, 8, 46, 48
14, 44759, Note_on_c, 8, 46, 0
14, 44760, Note_on_c, 8, 48, 48
14, 44879, Note_on_c, 8, 48, 0
14, 44880, Note_on_c, 8, 36, 48
14, 44999, Note_on_c, 8, 36, 0
14, 45000, Note_on_c, 8, 41, 48
14, 45119, Note_on_c, 8, 41, 0
14, 45900, Note_on_c, 8, 33, 48
14, 45959, Note_on_c, 8, 33, 0
14, 45960, Note_on_c, 8, 34, 48
14, 46019, Note_on_c, 8, 34, 0
14, 46020, Note_on_c, 8, 36, 48
14, 46079, Note_on_c, 8, 36, 0
14, 46080, Note_on_c, 8, 38, 48
14, 46139, Note_on_c, 8, 38, 0
14, 46140, Note_on_c, 8, 33, 48
14, 46199, Note_on_c, 8, 33, 0
14, 46200, Note_on_c, 8, 34, 48
14, 46259, Note_on_c, 8, 34, 0
14, 46260, Note_on_c, 8, 31, 48
14, 46319, Note_on_c, 8, 31, 0
14, 46320, Note_on_c, 8, 36, 48
14, 46379, Note_on_c, 8, 36, 0
14, 46380, Note_on_c, 8, 36, 48
14, 46439, Note_on_c, 8, 36, 0
14, 46440, Note_on_c, 8, 29, 48
14, 46559, Note_on_c, 8, 29, 0
14, 46560, Note_on_c, 8, 29, 48
14, 46679, Note_on_c, 8, 29, 0
14, 46679, End_track
15, 0, Start_track
15, 0, Title_t, "Soprano Solo"
15, 0, Program_c, 10, 52
15, 0, Control_c, 10, 7, 101
15, 0, Control_c, 10, 10, 50
15, 0, Control_c, 10, 11, 127
15, 6840, Note_on_c, 10, 72, 60
15, 7319, Note_on_c, 10, 72, 0
15, 7320, Note_on_c, 10, 71, 60
15, 7439, Note_on_c, 10, 71, 0
15, 7440, Note_on_c, 10, 77, 60
15, 7559, Note_on_c, 10, 77, 0
15, 7560, Note_on_c, 10, 76, 60
15, 8039, Note_on_c, 10, 76, 0
15, 8040, Note_on_c, 10, 74, 60
15, 8159, Note_on_c, 10, 74, 0
15, 8160, Note_on_c, 10, 81, 60
15, 8279, Note_on_c, 10, 81, 0
15, 8280, Note_on_c, 10, 79, 60
15, 8519, Note_on_c, 10, 79, 0
15, 8520, Note_on_c, 10, 77, 60
15, 8759, Note_on_c, 10, 77, 0
15, 8760, Note_on_c, 10, 77, 60
15, 8909, Note_on_c, 10, 77, 0
15, 8910, Note_on_c, 10, 76, 60
15, 8939, Note_on_c, 10, 76, 0
15, 8940, Note_on_c, 10, 74, 60
15, 8969, Note_on_c, 10, 74, 0
15, 8970, Note_on_c, 10, 76, 60
15, 8999, Note_on_c, 10, 76, 0
15, 9000, Note_on_c, 10, 74, 60
15, 9119, Note_on_c, 10, 74, 0
15, 9480, Note_on_c, 10, 74, 60
15, 9599, Note_on_c, 10, 74, 0
15, 9600, Note_on_c, 10, 74, 60
15, 9719, Note_on_c, 10, 74, 0
15, 9720, Note_on_c, 10, 74, 60
15, 9899, Note_on_c, 10, 74, 0
15, 9900, Note_on_c, 10, 77, 60
15, 9929, Note_on_c, 10, 77, 0
15, 9930, Note_on_c, 10, 75, 60
15, 9959, Note_on_c, 10, 75, 0
15, 9960, Note_on_c, 10, 74, 60
15, 10079, Note_on_c, 10, 74, 0
15, 10200, Note_on_c, 10, 74, 60
15, 10319, Note_on_c, 10, 74, 0
15, 10320, Note_on_c, 10, 74, 60
15, 10439, Note_on_c, 10, 74, 0
15, 10440, Note_on_c, 10, 74, 60
15, 10619, Note_on_c, 10, 74, 0
15, 10620, Note_on_c, 10, 77, 60
15, 10649, Note_on_c, 10, 77, 0
15, 10650, Note_on_c, 10, 75, 60
15, 10679, Note_on_c, 10, 75, 0
15, 10680, Note_on_c, 10, 74, 60
15, 10799, Note_on_c, 10, 74, 0
15, 10920, Note_on_c, 10, 74, 60
15, 11039, Note_on_c, 10, 74, 0
15, 11040, Note_on_c, 10, 74, 60
15, 11159, Note_on_c, 10, 74, 0
15, 11160, Note_on_c, 10, 79, 60
15, 11279, Note_on_c, 10, 79, 0
15, 11280, Note_on_c, 10, 71, 60
15, 11399, Note_on_c, 10, 71, 0
15, 11400, Note_on_c, 10, 72, 60
15, 11579, Note_on_c, 10, 72, 0
15, 11580, Note_on_c, 10, 76, 60
15, 11609, Note_on_c, 10, 76, 0
15, 11610, Note_on_c, 10, 74, 60
15, 11639, Note_on_c, 10, 74, 0
15, 11640, Note_on_c, 10, 72, 60
15, 11759, Note_on_c, 10, 72, 0
15, 11760, Note_on_c, 10, 71, 60
15, 11879, Note_on_c, 10, 71, 0
15, 11880, Note_on_c, 10, 72, 60
15, 11999, Note_on_c, 10, 72, 0
15, 14100, Note_on_c, 10, 75, 60
15, 14159, Note_on_c, 10, 75, 0
15, 14160, Note_on_c, 10, 75, 60
15, 14279, Note_on_c, 10, 75, 0
15, 14280, Note_on_c, 10, 74, 60
15, 14339, Note_on_c, 10, 74, 0
15, 14340, Note_on_c, 10, 72, 60
15, 14399, Note_on_c, 10, 72, 0
15, 14400, Note_on_c, 10, 72, 60
15, 14519, Note_on_c, 10, 72, 0
15, 14520, Note_on_c, 10, 71, 60
15, 14639, Note_on_c, 10, 71, 0
15, 15600, Note_on_c, 10, 77, 60
15, 15719, Note_on_c, 10, 77, 0
15, 15720, Note_on_c, 10, 76, 60
15, 15779, Note_on_c, 10, 76, 0
15, 15780, Note_on_c, 10, 74, 60
15, 15839, Note_on_c, 10, 74, 0
15, 15840, Note_on_c, 10, 74, 60
15, 15959, Note_on_c, 10, 74, 0
15, 15960, Note_on_c, 10, 73, 60
15, 16079, Note_on_c, 10, 73, 0
15, 16320, Note_on_c, 10, 74, 60
15, 16439, Note_on_c, 10, 74, 0
15, 16440, Note_on_c, 10, 79, 60
15, 16559, Note_on_c, 10, 79, 0
15, 16680, Note_on_c, 10, 72, 60
15, 16799, Note_on_c, 10, 72, 0
15, 16800, Note_on_c, 10, 77, 60
15, 16919, Note_on_c, 10, 77, 0
15, 17040, Note_on_c, 10, 70, 60
15, 17159, Note_on_c, 10, 70, 0
15, 17160, Note_on_c, 10, 76, 60
15, 17279, Note_on_c, 10, 76, 0
15, 17400, Note_on_c, 10, 67, 60
15, 17519, Note_on_c, 10, 67, 0
15, 17520, Note_on_c, 10, 74, 60
15, 17639, Note_on_c, 10, 74, 0
15, 17640, Note_on_c, 10, 77, 60
15, 17819, Note_on_c, 10, 77, 0
15, 17820, Note_on_c, 10, 73, 60
15, 17879, Note_on_c, 10, 73, 0
15, 17880, Note_on_c, 10, 74, 60
15, 17939, Note_on_c, 10, 74, 0
15, 17940, Note_on_c, 10, 73, 60
15, 17999, Note_on_c, 10, 73, 0
15, 18000, Note_on_c, 10, 74, 60
15, 18059, Note_on_c, 10, 74, 0
15, 18060, Note_on_c, 10, 76, 60
15, 18119, Note_on_c, 10, 76, 0
15, 18120, Note_on_c, 10, 74, 60
15, 18239, Note_on_c, 10, 74, 0
15, 18240, Note_on_c, 10, 73, 60
15, 18359, Note_on_c, 10, 73, 0
15, 18360, Note_on_c, 10, 74, 60
15, 18479, Note_on_c, 10, 74, 0
15, 19080, Note_on_c, 10, 70, 60
15, 19319, Note_on_c, 10, 70, 0
15, 19320, Note_on_c, 10, 70, 60
15, 19439, Note_on_c, 10, 70, 0
15, 19440, Note_on_c, 10, 70, 60
15, 19559, Note_on_c, 10, 70, 0
15, 19560, Note_on_c, 10, 69, 60
15, 19679, Note_on_c, 10, 69, 0
15, 19680, Note_on_c, 10, 75, 60
15, 19799, Note_on_c, 10, 75, 0
15, 19800, Note_on_c, 10, 74, 60
15, 20039, Note_on_c, 10, 74, 0
15, 20040, Note_on_c, 10, 74, 60
15, 20159, Note_on_c, 10, 74, 0
15, 20160, Note_on_c, 10, 74, 60
15, 20279, Note_on_c, 10, 74, 0
15, 20280, Note_on_c, 10, 72, 60
15, 20399, Note_on_c, 10, 72, 0
15, 20400, Note_on_c, 10, 79, 60
15, 20519, Note_on_c, 10, 79, 0
15, 20520, Note_on_c, 10, 77, 60
15, 20699, Note_on_c, 10, 77, 0
15, 20700, Note_on_c, 10, 77, 60
15, 20759, Note_on_c, 10, 77, 0
15, 20760, Note_on_c, 10, 75, 60
15, 20819, Note_on_c, 10, 75, 0
15, 20820, Note_on_c, 10, 75, 60
15, 20879, Note_on_c, 10, 75, 0
15, 20880, Note_on_c, 10, 75, 60
15, 20939, Note_on_c, 10, 75, 0
15, 20940, Note_on_c, 10, 77, 60
15, 20999, Note_on_c, 10, 77, 0
15, 21000, Note_on_c, 10, 75, 60
15, 21149, Note_on_c, 10, 75, 0
15, 21150, Note_on_c, 10, 74, 60
15, 21179, Note_on_c, 10, 74, 0
15, 21180, Note_on_c, 10, 72, 60
15, 21209, Note_on_c, 10, 72, 0
15, 21210, Note_on_c, 10, 74, 60
15, 21239, Note_on_c, 10, 74, 0
15, 21240, Note_on_c, 10, 72, 60
15, 21359, Note_on_c, 10, 72, 0
15, 21720, Note_on_c, 10, 72, 60
15, 21839, Note_on_c, 10, 72, 0
15, 21840, Note_on_c, 10, 72, 60
15, 21959, Note_on_c, 10, 72, 0
15, 21960, Note_on_c, 10, 72, 60
15, 22139, Note_on_c, 10, 72, 0
15, 22140, Note_on_c, 10, 75, 60
15, 22169, Note_on_c, 10, 75, 0
15, 22170, Note_on_c, 10, 73, 60
15, 22199, Note_on_c, 10, 73, 0
15, 22200, Note_on_c, 10, 72, 60
15, 22319, Note_on_c, 10, 72, 0
15, 22440, Note_on_c, 10, 72, 60
15, 22559, Note_on_c, 10, 72, 0
15, 22560, Note_on_c, 10, 72, 60
15, 22679, Note_on_c, 10, 72, 0
15, 22680, Note_on_c, 10, 72, 60
15, 22859, Note_on_c, 10, 72, 0
15, 22860, Note_on_c, 10, 75, 60
15, 22889, Note_on_c, 10, 75, 0
15, 22890, Note_on_c, 10, 73, 60
15, 22919, Note_on_c, 10, 73, 0
15, 22920, Note_on_c, 10, 72, 60
15, 23039, Note_on_c, 10, 72, 0
15, 23160, Note_on_c, 10, 72, 60
15, 23279, Note_on_c, 10, 72, 0
15, 23280, Note_on_c, 10, 72, 60
15, 23399, Note_on_c, 10, 72, 0
15, 23400, Note_on_c, 10, 77, 60
15, 23519, Note_on_c, 10, 77, 0
15, 23520, Note_on_c, 10, 69, 60
15, 23639, Note_on_c, 10, 69, 0
15, 23640, Note_on_c, 10, 70, 60
15, 23819, Note_on_c, 10, 70, 0
15, 23820, Note_on_c, 10, 74, 60
15, 23849, Note_on_c, 10, 74, 0
15, 23850, Note_on_c, 10, 72, 60
15, 23879, Note_on_c, 10, 72, 0
15, 23880, Note_on_c, 10, 70, 60
15, 23999, Note_on_c, 10, 70, 0
15, 24000, Note_on_c, 10, 69, 60
15, 24119, Note_on_c, 10, 69, 0
15, 24120, Note_on_c, 10, 70, 60
15, 24239, Note_on_c, 10, 70, 0
15, 25680, Note_on_c, 10, 74, 60
15, 25799, Note_on_c, 10, 74, 0
15, 25800, Note_on_c, 10, 74, 60
15, 25919, Note_on_c, 10, 74, 0
15, 25920, Note_on_c, 10, 75, 60
15, 26159, Note_on_c, 10, 75, 0
15, 26160, Note_on_c, 10, 75, 60
15, 26279, Note_on_c, 10, 75, 0
15, 26400, Note_on_c, 10, 63, 60
15, 26519, Note_on_c, 10, 63, 0
15, 26520, Note_on_c, 10, 63, 60
15, 26639, Note_on_c, 10, 63, 0
15, 26640, Note_on_c, 10, 63, 60
15, 26759, Note_on_c, 10, 63, 0
15, 26760, Note_on_c, 10, 62, 60
15, 26879, Note_on_c, 10, 62, 0
15, 27120, Note_on_c, 10, 75, 60
15, 27239, Note_on_c, 10, 75, 0
15, 27240, Note_on_c, 10, 75, 60
15, 27359, Note_on_c, 10, 75, 0
15, 27360, Note_on_c, 10, 77, 60
15, 27599, Note_on_c, 10, 77, 0
15, 27600, Note_on_c, 10, 77, 60
15, 27719, Note_on_c, 10, 77, 0
15, 27840, Note_on_c, 10, 65, 60
15, 27959, Note_on_c, 10, 65, 0
15, 27960, Note_on_c, 10, 65, 60
15, 28079, Note_on_c, 10, 65, 0
15, 28080, Note_on_c, 10, 65, 60
15, 28199, Note_on_c, 10, 65, 0
15, 28200, Note_on_c, 10, 63, 60
15, 28319, Note_on_c, 10, 63, 0
15, 28560, Note_on_c, 10, 77, 60
15, 28679, Note_on_c, 10, 77, 0
15, 28680, Note_on_c, 10, 77, 60
15, 28799, Note_on_c, 10, 77, 0
15, 28800, Note_on_c, 10, 79, 60
15, 29039, Note_on_c, 10, 79, 0
15, 29040, Note_on_c, 10, 79, 60
15, 29159, Note_on_c, 10, 79, 0
15, 29280, Note_on_c, 10, 67, 60
15, 29399, Note_on_c, 10, 67, 0
15, 29400, Note_on_c, 10, 67, 60
15, 29519, Note_on_c, 10, 67, 0
15, 29520, Note_on_c, 10, 67, 60
15, 29639, Note_on_c, 10, 67, 0
15, 29640, Note_on_c, 10, 65, 60
15, 29759, Note_on_c, 10, 65, 0
15, 29760, Note_on_c, 10, 77, 60
15, 29819, Note_on_c, 10, 77, 0
15, 29820, Note_on_c, 10, 76, 60
15, 29879, Note_on_c, 10, 76, 0
15, 29880, Note_on_c, 10, 74, 60
15, 30059, Note_on_c, 10, 74, 0
15, 30060, Note_on_c, 10, 72, 60
15, 30119, Note_on_c, 10, 72, 0
15, 30120, Note_on_c, 10, 70, 60
15, 30179, Note_on_c, 10, 70, 0
15, 30180, Note_on_c, 10, 69, 60
15, 30239, Note_on_c, 10, 69, 0
15, 30240, Note_on_c, 10, 68, 60
15, 30359, Note_on_c, 10, 68, 0
15, 30360, Note_on_c, 10, 69, 60
15, 30479, Note_on_c, 10, 69, 0
15, 31200, Note_on_c, 10, 74, 60
15, 31259, Note_on_c, 10, 74, 0
15, 31260, Note_on_c, 10, 72, 60
15, 31319, Note_on_c, 10, 72, 0
15, 31320, Note_on_c, 10, 70, 60
15, 31499, Note_on_c, 10, 70, 0
15, 31500, Note_on_c, 10, 69, 60
15, 31559, Note_on_c, 10, 69, 0
15, 31560, Note_on_c, 10, 70, 60
15, 31619, Note_on_c, 10, 70, 0
15, 31620, Note_on_c, 10, 70, 60
15, 31679, Note_on_c, 10, 70, 0
15, 31680, Note_on_c, 10, 72, 60
15, 31739, Note_on_c, 10, 72, 0
15, 31740, Note_on_c, 10, 70, 60
15, 31799, Note_on_c, 10, 70, 0
15, 31800, Note_on_c, 10, 70, 60
15, 31919, Note_on_c, 10, 70, 0
15, 31920, Note_on_c, 10, 70, 60
15, 31979, Note_on_c, 10, 70, 0
15, 31980, Note_on_c, 10, 70, 60
15, 32039, Note_on_c, 10, 70, 0
15, 32040, Note_on_c, 10, 70, 60
15, 32159, Note_on_c, 10, 70, 0
15, 32160, Note_on_c, 10, 76, 60
15, 32279, Note_on_c, 10, 76, 0
15, 32280, Note_on_c, 10, 77, 60
15, 32399, Note_on_c, 10, 77, 0
15, 32400, Note_on_c, 10, 77, 60
15, 32639, Note_on_c, 10, 77, 0
15, 32640, Note_on_c, 10, 71, 60
15, 32759, Note_on_c, 10, 71, 0
15, 32760, Note_on_c, 10, 74, 60
15, 32879, Note_on_c, 10, 74, 0
15, 32880, Note_on_c, 10, 72, 60
15, 32999, Note_on_c, 10, 72, 0
15, 35280, Note_on_c, 10, 72, 60
15, 35759, Note_on_c, 10, 72, 0
15, 35760, Note_on_c, 10, 71, 60
15, 35879, Note_on_c, 10, 71, 0
15, 35880, Note_on_c, 10, 77, 60
15, 35999, Note_on_c, 10, 77, 0
15, 36000, Note_on_c, 10, 76, 60
15, 36479, Note_on_c, 10, 76, 0
15, 36480, Note_on_c, 10, 74, 60
15, 36599, Note_on_c, 10, 74, 0
15, 36600, Note_on_c, 10, 81, 60
15, 36719, Note_on_c, 10, 81, 0
15, 36720, Note_on_c, 10, 79, 60
15, 37019, Note_on_c, 10, 79, 0
15, 37020, Note_on_c, 10, 77, 60
15, 37049, Note_on_c, 10, 77, 0
15, 37050, Note_on_c, 10, 76, 60
15, 37079, Note_on_c, 10, 76, 0
15, 37080, Note_on_c, 10, 77, 60
15, 37439, Note_on_c, 10, 77, 0
15, 37440, Note_on_c, 10, 76, 60
15, 37559, Note_on_c, 10, 76, 0
15, 37920, Note_on_c, 10, 74, 60
15, 38099, Note_on_c, 10, 74, 0
15, 38100, Note_on_c, 10, 74, 60
15, 38159, Note_on_c, 10, 74, 0
15, 38160, Note_on_c, 10, 72, 60
15, 38279, Note_on_c, 10, 72, 0
15, 38280, Note_on_c, 10, 72, 60
15, 38399, Note_on_c, 10, 72, 0
15, 38640, Note_on_c, 10, 80, 60
15, 38819, Note_on_c, 10, 80, 0
15, 38820, Note_on_c, 10, 77, 60
15, 38879, Note_on_c, 10, 77, 0
15, 38880, Note_on_c, 10, 76, 60
15, 38999, Note_on_c, 10, 76, 0
15, 39000, Note_on_c, 10, 72, 60
15, 39119, Note_on_c, 10, 72, 0
15, 39720, Note_on_c, 10, 67, 60
15, 39839, Note_on_c, 10, 67, 0
15, 39840, Note_on_c, 10, 67, 60
15, 39959, Note_on_c, 10, 67, 0
15, 39960, Note_on_c, 10, 67, 60
15, 40139, Note_on_c, 10, 67, 0
15, 40140, Note_on_c, 10, 70, 60
15, 40169, Note_on_c, 10, 70, 0
15, 40170, Note_on_c, 10, 68, 60
15, 40199, Note_on_c, 10, 68, 0
15, 40200, Note_on_c, 10, 67, 60
15, 40319, Note_on_c, 10, 67, 0
15, 40440, Note_on_c, 10, 67, 60
15, 40559, Note_on_c, 10, 67, 0
15, 40560, Note_on_c, 10, 67, 60
15, 40679, Note_on_c, 10, 67, 0
15, 40680, Note_on_c, 10, 67, 60
15, 40859, Note_on_c, 10, 67, 0
15, 40860, Note_on_c, 10, 70, 60
15, 40889, Note_on_c, 10, 70, 0
15, 40890, Note_on_c, 10, 68, 60
15, 40919, Note_on_c, 10, 68, 0
15, 40920, Note_on_c, 10, 67, 60
15, 41039, Note_on_c, 10, 67, 0
15, 41160, Note_on_c, 10, 67, 60
15, 41279, Note_on_c, 10, 67, 0
15, 41280, Note_on_c, 10, 67, 60
15, 41399, Note_on_c, 10, 67, 0
15, 41400, Note_on_c, 10, 72, 60
15, 41519, Note_on_c, 10, 72, 0
15, 41520, Note_on_c, 10, 64, 60
15, 41639, Note_on_c, 10, 64, 0
15, 41640, Note_on_c, 10, 65, 60
15, 41819, Note_on_c, 10, 65, 0
15, 41820, Note_on_c, 10, 69, 60
15, 41849, Note_on_c, 10, 69, 0
15, 41850, Note_on_c, 10, 67, 60
15, 41879, Note_on_c, 10, 67, 0
15, 41880, Note_on_c, 10, 65, 60
15, 41999, Note_on_c, 10, 65, 0
15, 42000, Note_on_c, 10, 64, 60
15, 42119, Note_on_c, 10, 64, 0
15, 42120, Note_on_c, 10, 65, 60
15, 42239, Note_on_c, 10, 65, 0
15, 42360, Note_on_c, 10, 77, 60
15, 42539, Note_on_c, 10, 77, 0
15, 42540, Note_on_c, 10, 76, 60
15, 42599, Note_on_c, 10, 76, 0
15, 42600, Note_on_c, 10, 74, 60
15, 42659, Note_on_c, 10, 74, 0
15, 42660, Note_on_c, 10, 72, 60
15, 42719, Note_on_c, 10, 72, 0
15, 42720, Note_on_c, 10, 70, 60
15, 42779, Note_on_c, 10, 70, 0
15, 42780, Note_on_c, 10, 69, 60
15, 42839, Note_on_c, 10, 69, 0
15, 42840, Note_on_c, 10, 74, 60
15, 43079, Note_on_c, 10, 74, 0
15, 43080, Note_on_c, 10, 72, 60
15, 43259, Note_on_c, 10, 72, 0
15, 43260, Note_on_c, 10, 70, 60
15, 43319, Note_on_c, 10, 70, 0
15, 43320, Note_on_c, 10, 69, 60
15, 43439, Note_on_c, 10, 69, 0
15, 43440, Note_on_c, 10, 67, 60
15, 43559, Note_on_c, 10, 67, 0
15, 43560, Note_on_c, 10, 69, 60
15, 43679, Note_on_c, 10, 69, 0
15, 43800, Note_on_c, 10, 77, 60
15, 43979, Note_on_c, 10, 77, 0
15, 43980, Note_on_c, 10, 76, 60
15, 44039, Note_on_c, 10, 76, 0
15, 44040, Note_on_c, 10, 74, 60
15, 44099, Note_on_c, 10, 74, 0
15, 44100, Note_on_c, 10, 72, 60
15, 44159, Note_on_c, 10, 72, 0
15, 44160, Note_on_c, 10, 70, 60
15, 44219, Note_on_c, 10, 70, 0
15, 44220, Note_on_c, 10, 69, 60
15, 44279, Note_on_c, 10, 69, 0
15, 44280, Note_on_c, 10, 74, 60
15, 44519, Note_on_c, 10, 74, 0
15, 44520, Note_on_c, 10, 72, 60
15, 44699, Note_on_c, 10, 72, 0
15, 44700, Note_on_c, 10, 70, 60
15, 44759, Note_on_c, 10, 70, 0
15, 44760, Note_on_c, 10, 69, 60
15, 44879, Note_on_c, 10, 69, 0
15, 44880, Note_on_c, 10, 67, 60
15, 44999, Note_on_c, 10, 67, 0
15, 45000, Note_on_c, 10, 65, 60
15, 45119, Note_on_c, 10, 65, 0
15, 45119, End_track
16, 0, Start_track
16, 0, Title_t, "Alto Solo"
16, 0, Program_c, 11, 52
16, 0, Control_c, 11, 7, 100
16, 0, Control_c, 11, 10, 60
16, 0, Control_c, 11, 11, 127
16, 4680, Note_on_c, 11, 65, 60
16, 5159, Note_on_c, 11, 65, 0
16, 5160, Note_on_c, 11, 64, 60
16, 5279, Note_on_c, 11, 64, 0
16, 5280, Note_on_c, 11, 70, 60
16, 5399, Note_on_c, 11, 70, 0
16, 5400, Note_on_c, 11, 69, 60
16, 5879, Note_on_c, 11, 69, 0
16, 5880, Note_on_c, 11, 67, 60
16, 5999, Note_on_c, 11, 67, 0
16, 6000, Note_on_c, 11, 74, 60
16, 6119, Note_on_c, 11, 74, 0
16, 6120, Note_on_c, 11, 72, 60
16, 6359, Note_on_c, 11, 72, 0
16, 6360, Note_on_c, 11, 70, 60
16, 6599, Note_on_c, 11, 70, 0
16, 6600, Note_on_c, 11, 70, 60
16, 6749, Note_on_c, 11, 70, 0
16, 6750, Note_on_c, 11, 69, 60
16, 6779, Note_on_c, 11, 69, 0
16, 6780, Note_on_c, 11, 67, 60
16, 6809, Note_on_c, 11, 67, 0
16, 6810, Note_on_c, 11, 69, 60
16, 6839, Note_on_c, 11, 69, 0
16, 6840, Note_on_c, 11, 67, 60
16, 6959, Note_on_c, 11, 67, 0
16, 10200, Note_on_c, 11, 65, 60
16, 10319, Note_on_c, 11, 65, 0
16, 10320, Note_on_c, 11, 67, 60
16, 10439, Note_on_c, 11, 67, 0
16, 10440, Note_on_c, 11, 69, 60
16, 10679, Note_on_c, 11, 69, 0
16, 10680, Note_on_c, 11, 62, 60
16, 10799, Note_on_c, 11, 62, 0
16, 10800, Note_on_c, 11, 65, 60
16, 10919, Note_on_c, 11, 65, 0
16, 10920, Note_on_c, 11, 67, 60
16, 11039, Note_on_c, 11, 67, 0
16, 11040, Note_on_c, 11, 68, 60
16, 11159, Note_on_c, 11, 68, 0
16, 11160, Note_on_c, 11, 67, 60
16, 11279, Note_on_c, 11, 67, 0
16, 11280, Note_on_c, 11, 65, 60
16, 11399, Note_on_c, 11, 65, 0
16, 11400, Note_on_c, 11, 65, 60
16, 11519, Note_on_c, 11, 65, 0
16, 11520, Note_on_c, 11, 69, 60
16, 11639, Note_on_c, 11, 69, 0
16, 11640, Note_on_c, 11, 67, 60
16, 11759, Note_on_c, 11, 67, 0
16, 11760, Note_on_c, 11, 65, 60
16, 11879, Note_on_c, 11, 65, 0
16, 11880, Note_on_c, 11, 64, 60
16, 11999, Note_on_c, 11, 64, 0
16, 14100, Note_on_c, 11, 67, 60
16, 14159, Note_on_c, 11, 67, 0
16, 14160, Note_on_c, 11, 67, 60
16, 14279, Note_on_c, 11, 67, 0
16, 14280, Note_on_c, 11, 65, 60
16, 14339, Note_on_c, 11, 65, 0
16, 14340, Note_on_c, 11, 63, 60
16, 14399, Note_on_c, 11, 63, 0
16, 14400, Note_on_c, 11, 63, 60
16, 14519, Note_on_c, 11, 63, 0
16, 14520, Note_on_c, 11, 62, 60
16, 14639, Note_on_c, 11, 62, 0
16, 15600, Note_on_c, 11, 69, 60
16, 15719, Note_on_c, 11, 69, 0
16, 15720, Note_on_c, 11, 67, 60
16, 15779, Note_on_c, 11, 67, 0
16, 15780, Note_on_c, 11, 65, 60
16, 15839, Note_on_c, 11, 65, 0
16, 15840, Note_on_c, 11, 65, 60
16, 15959, Note_on_c, 11, 65, 0
16, 15960, Note_on_c, 11, 64, 60
16, 16079, Note_on_c, 11, 64, 0
16, 16200, Note_on_c, 11, 69, 60
16, 16319, Note_on_c, 11, 69, 0
16, 16320, Note_on_c, 11, 70, 60
16, 16439, Note_on_c, 11, 70, 0
16, 16560, Note_on_c, 11, 67, 60
16, 16679, Note_on_c, 11, 67, 0
16, 16680, Note_on_c, 11, 69, 60
16, 16799, Note_on_c, 11, 69, 0
16, 16920, Note_on_c, 11, 65, 60
16, 17039, Note_on_c, 11, 65, 0
16, 17040, Note_on_c, 11, 67, 60
16, 17159, Note_on_c, 11, 67, 0
16, 17280, Note_on_c, 11, 64, 60
16, 17399, Note_on_c, 11, 64, 0
16, 17400, Note_on_c, 11, 65, 60
16, 17519, Note_on_c, 11, 65, 0
16, 17640, Note_on_c, 11, 65, 60
16, 17819, Note_on_c, 11, 65, 0
16, 17820, Note_on_c, 11, 67, 60
16, 17879, Note_on_c, 11, 67, 0
16, 17880, Note_on_c, 11, 68, 60
16, 17939, Note_on_c, 11, 68, 0
16, 17940, Note_on_c, 11, 69, 60
16, 17999, Note_on_c, 11, 69, 0
16, 18000, Note_on_c, 11, 70, 60
16, 18059, Note_on_c, 11, 70, 0
16, 18060, Note_on_c, 11, 70, 60
16, 18119, Note_on_c, 11, 70, 0
16, 18120, Note_on_c, 11, 69, 60
16, 18359, Note_on_c, 11, 69, 0
16, 18360, Note_on_c, 11, 69, 60
16, 18479, Note_on_c, 11, 69, 0
16, 22440, Note_on_c, 11, 63, 60
16, 22559, Note_on_c, 11, 63, 0
16, 22560, Note_on_c, 11, 65, 60
16, 22679, Note_on_c, 11, 65, 0
16, 22680, Note_on_c, 11, 67, 60
16, 22919, Note_on_c, 11, 67, 0
16, 22920, Note_on_c, 11, 60, 60
16, 23039, Note_on_c, 11, 60, 0
16, 23040, Note_on_c, 11, 63, 60
16, 23159, Note_on_c, 11, 63, 0
16, 23160, Note_on_c, 11, 65, 60
16, 23279, Note_on_c, 11, 65, 0
16, 23280, Note_on_c, 11, 66, 60
16, 23399, Note_on_c, 11, 66, 0
16, 23400, Note_on_c, 11, 65, 60
16, 23519, Note_on_c, 11, 65, 0
16, 23520, Note_on_c, 11, 63, 60
16, 23639, Note_on_c, 11, 63, 0
16, 23640, Note_on_c, 11, 62, 60
16, 23759, Note_on_c, 11, 62, 0
16, 23760, Note_on_c, 11, 67, 60
16, 23879, Note_on_c, 11, 67, 0
16, 23880, Note_on_c, 11, 65, 60
16, 23999, Note_on_c, 11, 65, 0
16, 24000, Note_on_c, 11, 63, 60
16, 24119, Note_on_c, 11, 63, 0
16, 24120, Note_on_c, 11, 62, 60
16, 24239, Note_on_c, 11, 62, 0
16, 25680, Note_on_c, 11, 65, 60
16, 25799, Note_on_c, 11, 65, 0
16, 25800, Note_on_c, 11, 65, 60
16, 25919, Note_on_c, 11, 65, 0
16, 25920, Note_on_c, 11, 66, 60
16, 26159, Note_on_c, 11, 66, 0
16, 26160, Note_on_c, 11, 66, 60
16, 26279, Note_on_c, 11, 66, 0
16, 26400, Note_on_c, 11, 60, 60
16, 26519, Note_on_c, 11, 60, 0
16, 26520, Note_on_c, 11, 60, 60
16, 26639, Note_on_c, 11, 60, 0
16, 26640, Note_on_c, 11, 60, 60
16, 26759, Note_on_c, 11, 60, 0
16, 26760, Note_on_c, 11, 58, 60
16, 26879, Note_on_c, 11, 58, 0
16, 27120, Note_on_c, 11, 67, 60
16, 27239, Note_on_c, 11, 67, 0
16, 27240, Note_on_c, 11, 67, 60
16, 27359, Note_on_c, 11, 67, 0
16, 27360, Note_on_c, 11, 68, 60
16, 27599, Note_on_c, 11, 68, 0
16, 27600, Note_on_c, 11, 68, 60
16, 27719, Note_on_c, 11, 68, 0
16, 27840, Note_on_c, 11, 62, 60
16, 27959, Note_on_c, 11, 62, 0
16, 27960, Note_on_c, 11, 62, 60
16, 28079, Note_on_c, 11, 62, 0
16, 28080, Note_on_c, 11, 62, 60
16, 28199, Note_on_c, 11, 62, 0
16, 28200, Note_on_c, 11, 60, 60
16, 28319, Note_on_c, 11, 60, 0
16, 28560, Note_on_c, 11, 69, 60
16, 28679, Note_on_c, 11, 69, 0
16, 28680, Note_on_c, 11, 69, 60
16, 28799, Note_on_c, 11, 69, 0
16, 28800, Note_on_c, 11, 70, 60
16, 29039, Note_on_c, 11, 70, 0
16, 29040, Note_on_c, 11, 70, 60
16, 29159, Note_on_c, 11, 70, 0
16, 29280, Note_on_c, 11, 64, 60
16, 29399, Note_on_c, 11, 64, 0
16, 29400, Note_on_c, 11, 64, 60
16, 29519, Note_on_c, 11, 64, 0
16, 29520, Note_on_c, 11, 64, 60
16, 29639, Note_on_c, 11, 64, 0
16, 29640, Note_on_c, 11, 62, 60
16, 29759, Note_on_c, 11, 62, 0
16, 31200, Note_on_c, 11, 70, 60
16, 31259, Note_on_c, 11, 70, 0
16, 31260, Note_on_c, 11, 69, 60
16, 31319, Note_on_c, 11, 69, 0
16, 31320, Note_on_c, 11, 67, 60
16, 31499, Note_on_c, 11, 67, 0
16, 31500, Note_on_c, 11, 66, 60
16, 31559, Note_on_c, 11, 66, 0
16, 31560, Note_on_c, 11, 67, 60
16, 31619, Note_on_c, 11, 67, 0
16, 31620, Note_on_c, 11, 65, 60
16, 31679, Note_on_c, 11, 65, 0
16, 31680, Note_on_c, 11, 64, 60
16, 31859, Note_on_c, 11, 64, 0
16, 31860, Note_on_c, 11, 65, 60
16, 31919, Note_on_c, 11, 65, 0
16, 31920, Note_on_c, 11, 64, 60
16, 31979, Note_on_c, 11, 64, 0
16, 31980, Note_on_c, 11, 65, 60
16, 32039, Note_on_c, 11, 65, 0
16, 32040, Note_on_c, 11, 67, 60
16, 32279, Note_on_c, 11, 67, 0
16, 32280, Note_on_c, 11, 65, 60
16, 32399, Note_on_c, 11, 65, 0
16, 32400, Note_on_c, 11, 62, 60
16, 32519, Note_on_c, 11, 62, 0
16, 32520, Note_on_c, 11, 67, 60
16, 32639, Note_on_c, 11, 67, 0
16, 32640, Note_on_c, 11, 67, 60
16, 32759, Note_on_c, 11, 67, 0
16, 32760, Note_on_c, 11, 67, 60
16, 32879, Note_on_c, 11, 67, 0
16, 32880, Note_on_c, 11, 67, 60
16, 32999, Note_on_c, 11, 67, 0
16, 33120, Note_on_c, 11, 65, 60
16, 33599, Note_on_c, 11, 65, 0
16, 33600, Note_on_c, 11, 64, 60
16, 33719, Note_on_c, 11, 64, 0
16, 33720, Note_on_c, 11, 70, 60
16, 33839, Note_on_c, 11, 70, 0
16, 33840, Note_on_c, 11, 69, 60
16, 34319, Note_on_c, 11, 69, 0
16, 34320, Note_on_c, 11, 67, 60
16, 34439, Note_on_c, 11, 67, 0
16, 34440, Note_on_c, 11, 74, 60
16, 34559, Note_on_c, 11, 74, 0
16, 34560, Note_on_c, 11, 72, 60
16, 34799, Note_on_c, 11, 72, 0
16, 34800, Note_on_c, 11, 70, 60
16, 35039, Note_on_c, 11, 70, 0
16, 35040, Note_on_c, 11, 70, 60
16, 35189, Note_on_c, 11, 70, 0
16, 35190, Note_on_c, 11, 69, 60
16, 35219, Note_on_c, 11, 69, 0
16, 35220, Note_on_c, 11, 67, 60
16, 35249, Note_on_c, 11, 67, 0
16, 35250, Note_on_c, 11, 69, 60
16, 35279, Note_on_c, 11, 69, 0
16, 35280, Note_on_c, 11, 67, 60
16, 35399, Note_on_c, 11, 67, 0
16, 37920, Note_on_c, 11, 68, 60
16, 38099, Note_on_c, 11, 68, 0
16, 38100, Note_on_c, 11, 68, 60
16, 38159, Note_on_c, 11, 68, 0
16, 38160, Note_on_c, 11, 67, 60
16, 38279, Note_on_c, 11, 67, 0
16, 38280, Note_on_c, 11, 67, 60
16, 38399, Note_on_c, 11, 67, 0
16, 38640, Note_on_c, 11, 71, 60
16, 38819, Note_on_c, 11, 71, 0
16, 38820, Note_on_c, 11, 71, 60
16, 38879, Note_on_c, 11, 71, 0
16, 38880, Note_on_c, 11, 72, 60
16, 38999, Note_on_c, 11, 72, 0
16, 39000, Note_on_c, 11, 67, 60
16, 39119, Note_on_c, 11, 67, 0
16, 39720, Note_on_c, 11, 64, 60
16, 39839, Note_on_c, 11, 64, 0
16, 39840, Note_on_c, 11, 64, 60
16, 39959, Note_on_c, 11, 64, 0
16, 39960, Note_on_c, 11, 64, 60
16, 40139, Note_on_c, 11, 64, 0
16, 40140, Note_on_c, 11, 67, 60
16, 40169, Note_on_c, 11, 67, 0
16, 40170, Note_on_c, 11, 65, 60
16, 40199, Note_on_c, 11, 65, 0
16, 40200, Note_on_c, 11, 64, 60
16, 40319, Note_on_c, 11, 64, 0
16, 40440, Note_on_c, 11, 64, 60
16, 40559, Note_on_c, 11, 64, 0
16, 40560, Note_on_c, 11, 64, 60
16, 40679, Note_on_c, 11, 64, 0
16, 40680, Note_on_c, 11, 65, 60
16, 40919, Note_on_c, 11, 65, 0
16, 40920, Note_on_c, 11, 65, 60
16, 41039, Note_on_c, 11, 65, 0
16, 41040, Note_on_c, 11, 65, 60
16, 41159, Note_on_c, 11, 65, 0
16, 41160, Note_on_c, 11, 64, 60
16, 41279, Note_on_c, 11, 64, 0
16, 41280, Note_on_c, 11, 64, 60
16, 41399, Note_on_c, 11, 64, 0
16, 41400, Note_on_c, 11, 65, 60
16, 41519, Note_on_c, 11, 65, 0
16, 41520, Note_on_c, 11, 58, 60
16, 41639, Note_on_c, 11, 58, 0
16, 41640, Note_on_c, 11, 57, 60
16, 41759, Note_on_c, 11, 57, 0
16, 41760, Note_on_c, 11, 62, 60
16, 41879, Note_on_c, 11, 62, 0
16, 41880, Note_on_c, 11, 60, 60
16, 41999, Note_on_c, 11, 60, 0
16, 42000, Note_on_c, 11, 58, 60
16, 42119, Note_on_c, 11, 58, 0
16, 42120, Note_on_c, 11, 57, 60
16, 42239, Note_on_c, 11, 57, 0
16, 42480, Note_on_c, 11, 69, 60
16, 42659, Note_on_c, 11, 69, 0
16, 42660, Note_on_c, 11, 67, 60
16, 42719, Note_on_c, 11, 67, 0
16, 42720, Note_on_c, 11, 65, 60
16, 42779, Note_on_c, 11, 65, 0
16, 42780, Note_on_c, 11, 64, 60
16, 42839, Note_on_c, 11, 64, 0
16, 42840, Note_on_c, 11, 62, 60
16, 42899, Note_on_c, 11, 62, 0
16, 42900, Note_on_c, 11, 64, 60
16, 42959, Note_on_c, 11, 64, 0
16, 42960, Note_on_c, 11, 65, 60
16, 43019, Note_on_c, 11, 65, 0
16, 43020, Note_on_c, 11, 67, 60
16, 43079, Note_on_c, 11, 67, 0
16, 43080, Note_on_c, 11, 69, 60
16, 43139, Note_on_c, 11, 69, 0
16, 43140, Note_on_c, 11, 64, 60
16, 43199, Note_on_c, 11, 64, 0
16, 43200, Note_on_c, 11, 65, 60
16, 43259, Note_on_c, 11, 65, 0
16, 43260, Note_on_c, 11, 67, 60
16, 43319, Note_on_c, 11, 67, 0
16, 43320, Note_on_c, 11, 65, 60
16, 43439, Note_on_c, 11, 65, 0
16, 43440, Note_on_c, 11, 64, 60
16, 43559, Note_on_c, 11, 64, 0
16, 43560, Note_on_c, 11, 65, 60
16, 43679, Note_on_c, 11, 65, 0
16, 43920, Note_on_c, 11, 69, 60
16, 44099, Note_on_c, 11, 69, 0
16, 44100, Note_on_c, 11, 67, 60
16, 44159, Note_on_c, 11, 67, 0
16, 44160, Note_on_c, 11, 65, 60
16, 44219, Note_on_c, 11, 65, 0
16, 44220, Note_on_c, 11, 64, 60
16, 44279, Note_on_c, 11, 64, 0
16, 44280, Note_on_c, 11, 70, 60
16, 44519, Note_on_c, 11, 70, 0
16, 44520, Note_on_c, 11, 69, 60
16, 44579, Note_on_c, 11, 69, 0
16, 44580, Note_on_c, 11, 64, 60
16, 44639, Note_on_c, 11, 64, 0
16, 44640, Note_on_c, 11, 65, 60
16, 44699, Note_on_c, 11, 65, 0
16, 44700, Note_on_c, 11, 67, 60
16, 44759, Note_on_c, 11, 67, 0
16, 44760, Note_on_c, 11, 65, 60
16, 44879, Note_on_c, 11, 65, 0
16, 44880, Note_on_c, 11, 64, 60
16, 44999, Note_on_c, 11, 64, 0
16, 45000, Note_on_c, 11, 65, 60
16, 45119, Note_on_c, 11, 65, 0
16, 45119, End_track
17, 0, Start_track
17, 0, Title_t, "Tenor Solo"
17, 0, Program_c, 12, 52
17, 0, Control_c, 12, 7, 110
17, 0, Control_c, 12, 10, 70
17, 0, Control_c, 12, 11, 127
17, 7200, Note_on_c, 12, 62, 60
17, 7679, Note_on_c, 12, 62, 0
17, 7680, Note_on_c, 12, 60, 60
17, 7799, Note_on_c, 12, 60, 0
17, 7800, Note_on_c, 12, 67, 60
17, 7919, Note_on_c, 12, 67, 0
17, 7920, Note_on_c, 12, 65, 60
17, 8159, Note_on_c, 12, 65, 0
17, 8160, Note_on_c, 12, 65, 60
17, 8279, Note_on_c, 12, 65, 0
17, 8280, Note_on_c, 12, 65, 60
17, 8399, Note_on_c, 12, 65, 0
17, 8400, Note_on_c, 12, 64, 60
17, 8639, Note_on_c, 12, 64, 0
17, 8640, Note_on_c, 12, 62, 60
17, 8759, Note_on_c, 12, 62, 0
17, 8760, Note_on_c, 12, 62, 60
17, 8909, Note_on_c, 12, 62, 0
17, 8910, Note_on_c, 12, 60, 60
17, 8939, Note_on_c, 12, 60, 0
17, 8940, Note_on_c, 12, 59, 60
17, 8969, Note_on_c, 12, 59, 0
17, 8970, Note_on_c, 12, 60, 60
17, 8999, Note_on_c, 12, 60, 0
17, 9000, Note_on_c, 12, 59, 60
17, 9119, Note_on_c, 12, 59, 0
17, 9480, Note_on_c, 12, 59, 60
17, 9599, Note_on_c, 12, 59, 0
17, 9600, Note_on_c, 12, 59, 60
17, 9719, Note_on_c, 12, 59, 0
17, 9720, Note_on_c, 12, 59, 60
17, 9899, Note_on_c, 12, 59, 0
17, 9900, Note_on_c, 12, 62, 60
17, 9929, Note_on_c, 12, 62, 0
17, 9930, Note_on_c, 12, 60, 60
17, 9959, Note_on_c, 12, 60, 0
17, 9960, Note_on_c, 12, 59, 60
17, 10079, Note_on_c, 12, 59, 0
17, 10080, Note_on_c, 12, 59, 60
17, 10199, Note_on_c, 12, 59, 0
17, 10200, Note_on_c, 12, 60, 60
17, 10319, Note_on_c, 12, 60, 0
17, 10320, Note_on_c, 12, 60, 60
17, 10439, Note_on_c, 12, 60, 0
17, 10440, Note_on_c, 12, 60, 60
17, 10679, Note_on_c, 12, 60, 0
17, 10680, Note_on_c, 12, 60, 60
17, 10799, Note_on_c, 12, 60, 0
17, 10800, Note_on_c, 12, 60, 60
17, 10919, Note_on_c, 12, 60, 0
17, 10920, Note_on_c, 12, 59, 60
17, 11039, Note_on_c, 12, 59, 0
17, 11040, Note_on_c, 12, 59, 60
17, 11159, Note_on_c, 12, 59, 0
17, 11160, Note_on_c, 12, 60, 60
17, 11279, Note_on_c, 12, 60, 0
17, 11280, Note_on_c, 12, 62, 60
17, 11399, Note_on_c, 12, 62, 0
17, 11400, Note_on_c, 12, 60, 60
17, 11519, Note_on_c, 12, 60, 0
17, 11520, Note_on_c, 12, 65, 60
17, 11639, Note_on_c, 12, 65, 0
17, 11640, Note_on_c, 12, 64, 60
17, 11759, Note_on_c, 12, 64, 0
17, 11760, Note_on_c, 12, 62, 60
17, 11879, Note_on_c, 12, 62, 0
17, 11880, Note_on_c, 12, 60, 60
17, 11999, Note_on_c, 12, 60, 0
17, 13800, Note_on_c, 12, 67, 60
17, 13979, Note_on_c, 12, 67, 0
17, 13980, Note_on_c, 12, 67, 60
17, 14039, Note_on_c, 12, 67, 0
17, 14040, Note_on_c, 12, 60, 60
17, 14159, Note_on_c, 12, 60, 0
17, 14760, Note_on_c, 12, 62, 60
17, 14999, Note_on_c, 12, 62, 0
17, 15000, Note_on_c, 12, 62, 60
17, 15119, Note_on_c, 12, 62, 0
17, 15120, Note_on_c, 12, 61, 60
17, 15239, Note_on_c, 12, 61, 0
17, 15240, Note_on_c, 12, 57, 60
17, 15359, Note_on_c, 12, 57, 0
17, 16320, Note_on_c, 12, 67, 60
17, 16439, Note_on_c, 12, 67, 0
17, 16440, Note_on_c, 12, 58, 60
17, 16559, Note_on_c, 12, 58, 0
17, 16680, Note_on_c, 12, 65, 60
17, 16799, Note_on_c, 12, 65, 0
17, 16800, Note_on_c, 12, 57, 60
17, 16919, Note_on_c, 12, 57, 0
17, 17040, Note_on_c, 12, 64, 60
17, 17159, Note_on_c, 12, 64, 0
17, 17160, Note_on_c, 12, 55, 60
17, 17279, Note_on_c, 12, 55, 0
17, 17400, Note_on_c, 12, 62, 60
17, 17519, Note_on_c, 12, 62, 0
17, 17520, Note_on_c, 12, 53, 60
17, 17639, Note_on_c, 12, 53, 0
17, 17640, Note_on_c, 12, 62, 60
17, 17819, Note_on_c, 12, 62, 0
17, 17820, Note_on_c, 12, 64, 60
17, 17879, Note_on_c, 12, 64, 0
17, 17880, Note_on_c, 12, 65, 60
17, 17939, Note_on_c, 12, 65, 0
17, 17940, Note_on_c, 12, 65, 60
17, 17999, Note_on_c, 12, 65, 0
17, 18000, Note_on_c, 12, 65, 60
17, 18059, Note_on_c, 12, 65, 0
17, 18060, Note_on_c, 12, 67, 60
17, 18119, Note_on_c, 12, 67, 0
17, 18120, Note_on_c, 12, 65, 60
17, 18239, Note_on_c, 12, 65, 0
17, 18240, Note_on_c, 12, 64, 60
17, 18359, Note_on_c, 12, 64, 0
17, 18360, Note_on_c, 12, 62, 60
17, 18479, Note_on_c, 12, 62, 0
17, 19440, Note_on_c, 12, 60, 60
17, 19619, Note_on_c, 12, 60, 0
17, 19620, Note_on_c, 12, 60, 60
17, 19679, Note_on_c, 12, 60, 0
17, 19680, Note_on_c, 12, 60, 60
17, 19919, Note_on_c, 12, 60, 0
17, 19920, Note_on_c, 12, 58, 60
17, 20039, Note_on_c, 12, 58, 0
17, 20040, Note_on_c, 12, 65, 60
17, 20099, Note_on_c, 12, 65, 0
17, 20100, Note_on_c, 12, 65, 60
17, 20159, Note_on_c, 12, 65, 0
17, 20160, Note_on_c, 12, 63, 60
17, 20339, Note_on_c, 12, 63, 0
17, 20340, Note_on_c, 12, 63, 60
17, 20399, Note_on_c, 12, 63, 0
17, 20400, Note_on_c, 12, 63, 60
17, 20579, Note_on_c, 12, 63, 0
17, 20580, Note_on_c, 12, 63, 60
17, 20639, Note_on_c, 12, 63, 0
17, 20640, Note_on_c, 12, 62, 60
17, 20819, Note_on_c, 12, 62, 0
17, 20820, Note_on_c, 12, 62, 60
17, 20879, Note_on_c, 12, 62, 0
17, 20880, Note_on_c, 12, 60, 60
17, 20939, Note_on_c, 12, 60, 0
17, 20940, Note_on_c, 12, 60, 60
17, 20999, Note_on_c, 12, 60, 0
17, 21000, Note_on_c, 12, 60, 60
17, 21149, Note_on_c, 12, 60, 0
17, 21150, Note_on_c, 12, 58, 60
17, 21179, Note_on_c, 12, 58, 0
17, 21180, Note_on_c, 12, 57, 60
17, 21209, Note_on_c, 12, 57, 0
17, 21210, Note_on_c, 12, 58, 60
17, 21239, Note_on_c, 12, 58, 0
17, 21240, Note_on_c, 12, 57, 60
17, 21359, Note_on_c, 12, 57, 0
17, 21720, Note_on_c, 12, 57, 60
17, 21839, Note_on_c, 12, 57, 0
17, 21840, Note_on_c, 12, 57, 60
17, 21959, Note_on_c, 12, 57, 0
17, 21960, Note_on_c, 12, 57, 60
17, 22139, Note_on_c, 12, 57, 0
17, 22140, Note_on_c, 12, 60, 60
17, 22169, Note_on_c, 12, 60, 0
17, 22170, Note_on_c, 12, 58, 60
17, 22199, Note_on_c, 12, 58, 0
17, 22200, Note_on_c, 12, 57, 60
17, 22319, Note_on_c, 12, 57, 0
17, 22320, Note_on_c, 12, 57, 60
17, 22439, Note_on_c, 12, 57, 0
17, 22440, Note_on_c, 12, 58, 60
17, 22559, Note_on_c, 12, 58, 0
17, 22560, Note_on_c, 12, 58, 60
17, 22679, Note_on_c, 12, 58, 0
17, 22680, Note_on_c, 12, 58, 60
17, 22919, Note_on_c, 12, 58, 0
17, 22920, Note_on_c, 12, 58, 60
17, 23039, Note_on_c, 12, 58, 0
17, 23040, Note_on_c, 12, 58, 60
17, 23159, Note_on_c, 12, 58, 0
17, 23160, Note_on_c, 12, 57, 60
17, 23279, Note_on_c, 12, 57, 0
17, 23280, Note_on_c, 12, 57, 60
17, 23399, Note_on_c, 12, 57, 0
17, 23400, Note_on_c, 12, 58, 60
17, 23519, Note_on_c, 12, 58, 0
17, 23520, Note_on_c, 12, 60, 60
17, 23639, Note_on_c, 12, 60, 0
17, 23640, Note_on_c, 12, 58, 60
17, 23759, Note_on_c, 12, 58, 0
17, 23760, Note_on_c, 12, 63, 60
17, 23879, Note_on_c, 12, 63, 0
17, 23880, Note_on_c, 12, 62, 60
17, 23999, Note_on_c, 12, 62, 0
17, 24000, Note_on_c, 12, 60, 60
17, 24119, Note_on_c, 12, 60, 0
17, 24120, Note_on_c, 12, 58, 60
17, 24239, Note_on_c, 12, 58, 0
17, 25680, Note_on_c, 12, 62, 60
17, 25799, Note_on_c, 12, 62, 0
17, 25800, Note_on_c, 12, 62, 60
17, 25919, Note_on_c, 12, 62, 0
17, 25920, Note_on_c, 12, 60, 60
17, 26159, Note_on_c, 12, 60, 0
17, 26160, Note_on_c, 12, 60, 60
17, 26279, Note_on_c, 12, 60, 0
17, 26400, Note_on_c, 12, 54, 60
17, 26519, Note_on_c, 12, 54, 0
17, 26520, Note_on_c, 12, 53, 60
17, 26639, Note_on_c, 12, 53, 0
17, 26640, Note_on_c, 12, 53, 60
17, 26759, Note_on_c, 12, 53, 0
17, 26760, Note_on_c, 12, 53, 60
17, 26879, Note_on_c, 12, 53, 0
17, 27120, Note_on_c, 12, 63, 60
17, 27239, Note_on_c, 12, 63, 0
17, 27240, Note_on_c, 12, 63, 60
17, 27359, Note_on_c, 12, 63, 0
17, 27360, Note_on_c, 12, 62, 60
17, 27599, Note_on_c, 12, 62, 0
17, 27600, Note_on_c, 12, 62, 60
17, 27719, Note_on_c, 12, 62, 0
17, 27840, Note_on_c, 12, 56, 60
17, 27959, Note_on_c, 12, 56, 0
17, 27960, Note_on_c, 12, 53, 60
17, 28079, Note_on_c, 12, 53, 0
17, 28080, Note_on_c, 12, 53, 60
17, 28199, Note_on_c, 12, 53, 0
17, 28200, Note_on_c, 12, 53, 60
17, 28319, Note_on_c, 12, 53, 0
17, 28560, Note_on_c, 12, 65, 60
17, 28679, Note_on_c, 12, 65, 0
17, 28680, Note_on_c, 12, 65, 60
17, 28799, Note_on_c, 12, 65, 0
17, 28800, Note_on_c, 12, 64, 60
17, 29039, Note_on_c, 12, 64, 0
17, 29040, Note_on_c, 12, 64, 60
17, 29159, Note_on_c, 12, 64, 0
17, 29280, Note_on_c, 12, 58, 60
17, 29399, Note_on_c, 12, 58, 0
17, 29400, Note_on_c, 12, 57, 60
17, 29519, Note_on_c, 12, 57, 0
17, 29520, Note_on_c, 12, 57, 60
17, 29639, Note_on_c, 12, 57, 0
17, 29640, Note_on_c, 12, 57, 60
17, 29759, Note_on_c, 12, 57, 0
17, 30480, Note_on_c, 12, 64, 60
17, 30539, Note_on_c, 12, 64, 0
17, 30540, Note_on_c, 12, 62, 60
17, 30599, Note_on_c, 12, 62, 0
17, 30600, Note_on_c, 12, 60, 60
17, 30779, Note_on_c, 12, 60, 0
17, 30780, Note_on_c, 12, 58, 60
17, 30839, Note_on_c, 12, 58, 0
17, 30840, Note_on_c, 12, 57, 60
17, 30899, Note_on_c, 12, 57, 0
17, 30900, Note_on_c, 12, 55, 60
17, 30959, Note_on_c, 12, 55, 0
17, 30960, Note_on_c, 12, 54, 60
17, 31079, Note_on_c, 12, 54, 0
17, 31080, Note_on_c, 12, 55, 60
17, 31199, Note_on_c, 12, 55, 0
17, 31560, Note_on_c, 12, 62, 60
17, 31619, Note_on_c, 12, 62, 0
17, 31620, Note_on_c, 12, 61, 60
17, 31679, Note_on_c, 12, 61, 0
17, 31680, Note_on_c, 12, 60, 60
17, 31859, Note_on_c, 12, 60, 0
17, 31860, Note_on_c, 12, 61, 60
17, 31919, Note_on_c, 12, 61, 0
17, 31920, Note_on_c, 12, 60, 60
17, 31979, Note_on_c, 12, 60, 0
17, 31980, Note_on_c, 12, 61, 60
17, 32039, Note_on_c, 12, 61, 0
17, 32040, Note_on_c, 12, 60, 60
17, 32159, Note_on_c, 12, 60, 0
17, 32160, Note_on_c, 12, 58, 60
17, 32279, Note_on_c, 12, 58, 0
17, 32280, Note_on_c, 12, 57, 60
17, 32399, Note_on_c, 12, 57, 0
17, 32400, Note_on_c, 12, 59, 60
17, 32519, Note_on_c, 12, 59, 0
17, 32520, Note_on_c, 12, 62, 60
17, 32639, Note_on_c, 12, 62, 0
17, 32640, Note_on_c, 12, 65, 60
17, 32759, Note_on_c, 12, 65, 0
17, 32760, Note_on_c, 12, 65, 60
17, 32879, Note_on_c, 12, 65, 0
17, 32880, Note_on_c, 12, 64, 60
17, 32999, Note_on_c, 12, 64, 0
17, 35640, Note_on_c, 12, 62, 60
17, 36119, Note_on_c, 12, 62, 0
17, 36120, Note_on_c, 12, 60, 60
17, 36239, Note_on_c, 12, 60, 0
17, 36240, Note_on_c, 12, 67, 60
17, 36359, Note_on_c, 12, 67, 0
17, 36360, Note_on_c, 12, 65, 60
17, 36899, Note_on_c, 12, 65, 0
17, 36900, Note_on_c, 12, 64, 60
17, 36929, Note_on_c, 12, 64, 0
17, 36930, Note_on_c, 12, 62, 60
17, 36959, Note_on_c, 12, 62, 0
17, 36960, Note_on_c, 12, 64, 60
17, 37019, Note_on_c, 12, 64, 0
17, 37020, Note_on_c, 12, 62, 60
17, 37049, Note_on_c, 12, 62, 0
17, 37050, Note_on_c, 12, 60, 60
17, 37079, Note_on_c, 12, 60, 0
17, 37080, Note_on_c, 12, 62, 60
17, 37439, Note_on_c, 12, 62, 0
17, 37440, Note_on_c, 12, 60, 60
17, 37559, Note_on_c, 12, 60, 0
17, 37920, Note_on_c, 12, 65, 60
17, 38099, Note_on_c, 12, 65, 0
17, 38100, Note_on_c, 12, 65, 60
17, 38159, Note_on_c, 12, 65, 0
17, 38160, Note_on_c, 12, 65, 60
17, 38279, Note_on_c, 12, 65, 0
17, 38280, Note_on_c, 12, 64, 60
17, 38399, Note_on_c, 12, 64, 0
17, 38640, Note_on_c, 12, 65, 60
17, 38819, Note_on_c, 12, 65, 0
17, 38820, Note_on_c, 12, 65, 60
17, 38879, Note_on_c, 12, 65, 0
17, 38880, Note_on_c, 12, 67, 60
17, 38999, Note_on_c, 12, 67, 0
17, 39000, Note_on_c, 12, 64, 60
17, 39119, Note_on_c, 12, 64, 0
17, 39720, Note_on_c, 12, 58, 60
17, 39839, Note_on_c, 12, 58, 0
17, 39840, Note_on_c, 12, 60, 60
17, 39959, Note_on_c, 12, 60, 0
17, 39960, Note_on_c, 12, 61, 60
17, 40199, Note_on_c, 12, 61, 0
17, 40200, Note_on_c, 12, 55, 60
17, 40319, Note_on_c, 12, 55, 0
17, 40440, Note_on_c, 12, 58, 60
17, 40559, Note_on_c, 12, 58, 0
17, 40560, Note_on_c, 12, 60, 60
17, 40679, Note_on_c, 12, 60, 0
17, 40680, Note_on_c, 12, 62, 60
17, 40919, Note_on_c, 12, 62, 0
17, 40920, Note_on_c, 12, 55, 60
17, 41039, Note_on_c, 12, 55, 0
17, 41040, Note_on_c, 12, 58, 60
17, 41219, Note_on_c, 12, 58, 0
17, 41220, Note_on_c, 12, 60, 60
17, 41279, Note_on_c, 12, 60, 0
17, 41280, Note_on_c, 12, 61, 60
17, 41399, Note_on_c, 12, 61, 0
17, 41400, Note_on_c, 12, 60, 60
17, 41519, Note_on_c, 12, 60, 0
17, 41520, Note_on_c, 12, 55, 60
17, 41639, Note_on_c, 12, 55, 0
17, 41640, Note_on_c, 12, 53, 60
17, 41759, Note_on_c, 12, 53, 0
17, 41760, Note_on_c, 12, 58, 60
17, 41879, Note_on_c, 12, 58, 0
17, 41880, Note_on_c, 12, 57, 60
17, 41999, Note_on_c, 12, 57, 0
17, 42000, Note_on_c, 12, 55, 60
17, 42119, Note_on_c, 12, 55, 0
17, 42120, Note_on_c, 12, 53, 60
17, 42239, Note_on_c, 12, 53, 0
17, 42480, Note_on_c, 12, 65, 60
17, 42659, Note_on_c, 12, 65, 0
17, 42660, Note_on_c, 12, 64, 60
17, 42719, Note_on_c, 12, 64, 0
17, 42720, Note_on_c, 12, 62, 60
17, 42779, Note_on_c, 12, 62, 0
17, 42780, Note_on_c, 12, 60, 60
17, 42839, Note_on_c, 12, 60, 0
17, 42840, Note_on_c, 12, 58, 60
17, 43079, Note_on_c, 12, 58, 0
17, 43080, Note_on_c, 12, 57, 60
17, 43139, Note_on_c, 12, 57, 0
17, 43140, Note_on_c, 12, 58, 60
17, 43199, Note_on_c, 12, 58, 0
17, 43200, Note_on_c, 12, 60, 60
17, 43259, Note_on_c, 12, 60, 0
17, 43260, Note_on_c, 12, 62, 60
17, 43319, Note_on_c, 12, 62, 0
17, 43320, Note_on_c, 12, 60, 60
17, 43559, Note_on_c, 12, 60, 0
17, 43560, Note_on_c, 12, 60, 60
17, 43679, Note_on_c, 12, 60, 0
17, 43920, Note_on_c, 12, 65, 60
17, 44099, Note_on_c, 12, 65, 0
17, 44100, Note_on_c, 12, 64, 60
17, 44159, Note_on_c, 12, 64, 0
17, 44160, Note_on_c, 12, 62, 60
17, 44219, Note_on_c, 12, 62, 0
17, 44220, Note_on_c, 12, 60, 60
17, 44279, Note_on_c, 12, 60, 0
17, 44280, Note_on_c, 12, 62, 60
17, 44339, Note_on_c, 12, 62, 0
17, 44340, Note_on_c, 12, 64, 60
17, 44399, Note_on_c, 12, 64, 0
17, 44400, Note_on_c, 12, 65, 60
17, 44459, Note_on_c, 12, 65, 0
17, 44460, Note_on_c, 12, 67, 60
17, 44519, Note_on_c, 12, 67, 0
17, 44520, Note_on_c, 12, 60, 60
17, 44699, Note_on_c, 12, 60, 0
17, 44700, Note_on_c, 12, 62, 60
17, 44759, Note_on_c, 12, 62, 0
17, 44760, Note_on_c, 12, 60, 60
17, 44879, Note_on_c, 12, 60, 0
17, 44880, Note_on_c, 12, 58, 60
17, 44999, Note_on_c, 12, 58, 0
17, 45000, Note_on_c, 12, 57, 60
17, 45119, Note_on_c, 12, 57, 0
17, 45119, End_track
18, 0, Start_track
18, 0, Title_t, "Bass Solo"
18, 0, Program_c, 13, 52
18, 0, Control_c, 13, 7, 109
18, 0, Control_c, 13, 10, 80
18, 0, Control_c, 13, 11, 127
18, 5040, Note_on_c, 13, 55, 60
18, 5519, Note_on_c, 13, 55, 0
18, 5520, Note_on_c, 13, 53, 60
18, 5639, Note_on_c, 13, 53, 0
18, 5640, Note_on_c, 13, 60, 60
18, 5759, Note_on_c, 13, 60, 0
18, 5760, Note_on_c, 13, 58, 60
18, 5999, Note_on_c, 13, 58, 0
18, 6000, Note_on_c, 13, 58, 60
18, 6119, Note_on_c, 13, 58, 0
18, 6120, Note_on_c, 13, 58, 60
18, 6239, Note_on_c, 13, 58, 0
18, 6240, Note_on_c, 13, 57, 60
18, 6479, Note_on_c, 13, 57, 0
18, 6480, Note_on_c, 13, 55, 60
18, 6599, Note_on_c, 13, 55, 0
18, 6600, Note_on_c, 13, 55, 60
18, 6749, Note_on_c, 13, 55, 0
18, 6750, Note_on_c, 13, 53, 60
18, 6779, Note_on_c, 13, 53, 0
18, 6780, Note_on_c, 13, 52, 60
18, 6809, Note_on_c, 13, 52, 0
18, 6810, Note_on_c, 13, 53, 60
18, 6839, Note_on_c, 13, 53, 0
18, 6840, Note_on_c, 13, 52, 60
18, 6959, Note_on_c, 13, 52, 0
18, 9120, Note_on_c, 13, 55, 60
18, 9239, Note_on_c, 13, 55, 0
18, 9240, Note_on_c, 13, 55, 60
18, 9359, Note_on_c, 13, 55, 0
18, 9360, Note_on_c, 13, 56, 60
18, 9599, Note_on_c, 13, 56, 0
18, 9600, Note_on_c, 13, 55, 60
18, 9719, Note_on_c, 13, 55, 0
18, 9840, Note_on_c, 13, 53, 60
18, 9959, Note_on_c, 13, 53, 0
18, 9960, Note_on_c, 13, 55, 60
18, 10079, Note_on_c, 13, 55, 0
18, 10080, Note_on_c, 13, 56, 60
18, 10319, Note_on_c, 13, 56, 0
18, 10320, Note_on_c, 13, 55, 60
18, 10439, Note_on_c, 13, 55, 0
18, 10560, Note_on_c, 13, 54, 60
18, 10679, Note_on_c, 13, 54, 0
18, 10680, Note_on_c, 13, 55, 60
18, 10799, Note_on_c, 13, 55, 0
18, 10800, Note_on_c, 13, 56, 60
18, 10919, Note_on_c, 13, 56, 0
18, 10920, Note_on_c, 13, 55, 60
18, 11039, Note_on_c, 13, 55, 0
18, 11040, Note_on_c, 13, 53, 60
18, 11159, Note_on_c, 13, 53, 0
18, 11160, Note_on_c, 13, 52, 60
18, 11279, Note_on_c, 13, 52, 0
18, 11280, Note_on_c, 13, 56, 60
18, 11399, Note_on_c, 13, 56, 0
18, 11400, Note_on_c, 13, 57, 60
18, 11519, Note_on_c, 13, 57, 0
18, 11520, Note_on_c, 13, 53, 60
18, 11639, Note_on_c, 13, 53, 0
18, 11640, Note_on_c, 13, 55, 60
18, 11879, Note_on_c, 13, 55, 0
18, 11880, Note_on_c, 13, 48, 60
18, 11999, Note_on_c, 13, 48, 0
18, 13440, Note_on_c, 13, 60, 60
18, 13619, Note_on_c, 13, 60, 0
18, 13620, Note_on_c, 13, 60, 60
18, 13679, Note_on_c, 13, 60, 0
18, 13680, Note_on_c, 13, 55, 60
18, 13799, Note_on_c, 13, 55, 0
18, 15120, Note_on_c, 13, 57, 60
18, 15359, Note_on_c, 13, 57, 0
18, 15360, Note_on_c, 13, 57, 60
18, 15479, Note_on_c, 13, 57, 0
18, 15480, Note_on_c, 13, 53, 60
18, 15599, Note_on_c, 13, 53, 0
18, 15600, Note_on_c, 13, 50, 60
18, 15719, Note_on_c, 13, 50, 0
18, 16200, Note_on_c, 13, 62, 60
18, 16319, Note_on_c, 13, 62, 0
18, 16320, Note_on_c, 13, 55, 60
18, 16439, Note_on_c, 13, 55, 0
18, 16560, Note_on_c, 13, 60, 60
18, 16679, Note_on_c, 13, 60, 0
18, 16680, Note_on_c, 13, 53, 60
18, 16799, Note_on_c, 13, 53, 0
18, 16920, Note_on_c, 13, 58, 60
18, 17039, Note_on_c, 13, 58, 0
18, 17040, Note_on_c, 13, 52, 60
18, 17159, Note_on_c, 13, 52, 0
18, 17280, Note_on_c, 13, 57, 60
18, 17399, Note_on_c, 13, 57, 0
18, 17400, Note_on_c, 13, 50, 60
18, 17519, Note_on_c, 13, 50, 0
18, 17640, Note_on_c, 13, 58, 60
18, 17819, Note_on_c, 13, 58, 0
18, 17820, Note_on_c, 13, 58, 60
18, 17879, Note_on_c, 13, 58, 0
18, 17880, Note_on_c, 13, 58, 60
18, 17939, Note_on_c, 13, 58, 0
18, 17940, Note_on_c, 13, 57, 60
18, 17999, Note_on_c, 13, 57, 0
18, 18000, Note_on_c, 13, 55, 60
18, 18059, Note_on_c, 13, 55, 0
18, 18060, Note_on_c, 13, 55, 60
18, 18119, Note_on_c, 13, 55, 0
18, 18120, Note_on_c, 13, 57, 60
18, 18359, Note_on_c, 13, 57, 0
18, 18360, Note_on_c, 13, 50, 60
18, 18479, Note_on_c, 13, 50, 0
18, 21360, Note_on_c, 13, 53, 60
18, 21479, Note_on_c, 13, 53, 0
18, 21480, Note_on_c, 13, 53, 60
18, 21599, Note_on_c, 13, 53, 0
18, 21600, Note_on_c, 13, 54, 60
18, 21839, Note_on_c, 13, 54, 0
18, 21840, Note_on_c, 13, 53, 60
18, 21959, Note_on_c, 13, 53, 0
18, 22080, Note_on_c, 13, 51, 60
18, 22199, Note_on_c, 13, 51, 0
18, 22200, Note_on_c, 13, 53, 60
18, 22319, Note_on_c, 13, 53, 0
18, 22320, Note_on_c, 13, 54, 60
18, 22559, Note_on_c, 13, 54, 0
18, 22560, Note_on_c, 13, 53, 60
18, 22679, Note_on_c, 13, 53, 0
18, 22800, Note_on_c, 13, 52, 60
18, 22919, Note_on_c, 13, 52, 0
18, 22920, Note_on_c, 13, 53, 60
18, 23039, Note_on_c, 13, 53, 0
18, 23040, Note_on_c, 13, 54, 60
18, 23159, Note_on_c, 13, 54, 0
18, 23160, Note_on_c, 13, 53, 60
18, 23279, Note_on_c, 13, 53, 0
18, 23280, Note_on_c, 13, 51, 60
18, 23399, Note_on_c, 13, 51, 0
18, 23400, Note_on_c, 13, 50, 60
18, 23519, Note_on_c, 13, 50, 0
18, 23520, Note_on_c, 13, 54, 60
18, 23639, Note_on_c, 13, 54, 0
18, 23640, Note_on_c, 13, 55, 60
18, 23759, Note_on_c, 13, 55, 0
18, 23760, Note_on_c, 13, 51, 60
18, 23879, Note_on_c, 13, 51, 0
18, 23880, Note_on_c, 13, 53, 60
18, 24119, Note_on_c, 13, 53, 0
18, 24120, Note_on_c, 13, 46, 60
18, 24239, Note_on_c, 13, 46, 0
18, 25680, Note_on_c, 13, 58, 60
18, 25799, Note_on_c, 13, 58, 0
18, 25800, Note_on_c, 13, 58, 60
18, 25919, Note_on_c, 13, 58, 0
18, 25920, Note_on_c, 13, 58, 60
18, 26159, Note_on_c, 13, 58, 0
18, 26160, Note_on_c, 13, 58, 60
18, 26279, Note_on_c, 13, 58, 0
18, 26400, Note_on_c, 13, 45, 60
18, 26519, Note_on_c, 13, 45, 0
18, 26520, Note_on_c, 13, 45, 60
18, 26639, Note_on_c, 13, 45, 0
18, 26640, Note_on_c, 13, 46, 60
18, 26759, Note_on_c, 13, 46, 0
18, 26760, Note_on_c, 13, 46, 60
18, 26879, Note_on_c, 13, 46, 0
18, 27120, Note_on_c, 13, 60, 60
18, 27239, Note_on_c, 13, 60, 0
18, 27240, Note_on_c, 13, 60, 60
18, 27359, Note_on_c, 13, 60, 0
18, 27360, Note_on_c, 13, 60, 60
18, 27599, Note_on_c, 13, 60, 0
18, 27600, Note_on_c, 13, 60, 60
18, 27719, Note_on_c, 13, 60, 0
18, 27840, Note_on_c, 13, 47, 60
18, 27959, Note_on_c, 13, 47, 0
18, 27960, Note_on_c, 13, 47, 60
18, 28079, Note_on_c, 13, 47, 0
18, 28080, Note_on_c, 13, 48, 60
18, 28199, Note_on_c, 13, 48, 0
18, 28200, Note_on_c, 13, 48, 60
18, 28319, Note_on_c, 13, 48, 0
18, 28560, Note_on_c, 13, 62, 60
18, 28679, Note_on_c, 13, 62, 0
18, 28680, Note_on_c, 13, 62, 60
18, 28799, Note_on_c, 13, 62, 0
18, 28800, Note_on_c, 13, 62, 60
18, 29039, Note_on_c, 13, 62, 0
18, 29040, Note_on_c, 13, 62, 60
18, 29159, Note_on_c, 13, 62, 0
18, 29280, Note_on_c, 13, 49, 60
18, 29399, Note_on_c, 13, 49, 0
18, 29400, Note_on_c, 13, 49, 60
18, 29519, Note_on_c, 13, 49, 0
18, 29520, Note_on_c, 13, 50, 60
18, 29639, Note_on_c, 13, 50, 0
18, 29640, Note_on_c, 13, 50, 60
18, 29759, Note_on_c, 13, 50, 0
18, 31920, Note_on_c, 13, 55, 60
18, 31979, Note_on_c, 13, 55, 0
18, 31980, Note_on_c, 13, 53, 60
18, 32039, Note_on_c, 13, 53, 0
18, 32040, Note_on_c, 13, 52, 60
18, 32159, Note_on_c, 13, 52, 0
18, 32160, Note_on_c, 13, 48, 60
18, 32279, Note_on_c, 13, 48, 0
18, 32280, Note_on_c, 13, 50, 60
18, 32399, Note_on_c, 13, 50, 0
18, 32400, Note_on_c, 13, 55, 60
18, 32639, Note_on_c, 13, 55, 0
18, 32640, Note_on_c, 13, 55, 60
18, 32759, Note_on_c, 13, 55, 0
18, 32760, Note_on_c, 13, 60, 60
18, 32879, Note_on_c, 13, 60, 0
18, 32880, Note_on_c, 13, 48, 60
18, 32999, Note_on_c, 13, 48, 0
18, 33480, Note_on_c, 13, 55, 60
18, 33959, Note_on_c, 13, 55, 0
18, 33960, Note_on_c, 13, 53, 60
18, 34079, Note_on_c, 13, 53, 0
18, 34080, Note_on_c, 13, 60, 60
18, 34199, Note_on_c, 13, 60, 0
18, 34200, Note_on_c, 13, 58, 60
18, 34439, Note_on_c, 13, 58, 0
18, 34440, Note_on_c, 13, 58, 60
18, 34679, Note_on_c, 13, 58, 0
18, 34680, Note_on_c, 13, 57, 60
18, 34919, Note_on_c, 13, 57, 0
18, 34920, Note_on_c, 13, 55, 60
18, 35039, Note_on_c, 13, 55, 0
18, 35040, Note_on_c, 13, 55, 60
18, 35189, Note_on_c, 13, 55, 0
18, 35190, Note_on_c, 13, 53, 60
18, 35219, Note_on_c, 13, 53, 0
18, 35220, Note_on_c, 13, 52, 60
18, 35249, Note_on_c, 13, 52, 0
18, 35250, Note_on_c, 13, 53, 60
18, 35279, Note_on_c, 13, 53, 0
18, 35280, Note_on_c, 13, 52, 60
18, 35399, Note_on_c, 13, 52, 0
18, 37920, Note_on_c, 13, 59, 60
18, 38099, Note_on_c, 13, 59, 0
18, 38100, Note_on_c, 13, 59, 60
18, 38159, Note_on_c, 13, 59, 0
18, 38160, Note_on_c, 13, 60, 60
18, 38279, Note_on_c, 13, 60, 0
18, 38280, Note_on_c, 13, 48, 60
18, 38399, Note_on_c, 13, 48, 0
18, 38640, Note_on_c, 13, 61, 60
18, 38819, Note_on_c, 13, 61, 0
18, 38820, Note_on_c, 13, 61, 60
18, 38879, Note_on_c, 13, 61, 0
18, 38880, Note_on_c, 13, 60, 60
18, 38999, Note_on_c, 13, 60, 0
18, 39000, Note_on_c, 13, 48, 60
18, 39119, Note_on_c, 13, 48, 0
18, 39360, Note_on_c, 13, 48, 60
18, 39479, Note_on_c, 13, 48, 0
18, 39480, Note_on_c, 13, 48, 60
18, 39599, Note_on_c, 13, 48, 0
18, 39600, Note_on_c, 13, 49, 60
18, 39839, Note_on_c, 13, 49, 0
18, 39840, Note_on_c, 13, 48, 60
18, 39959, Note_on_c, 13, 48, 0
18, 40080, Note_on_c, 13, 46, 60
18, 40199, Note_on_c, 13, 46, 0
18, 40200, Note_on_c, 13, 48, 60
18, 40319, Note_on_c, 13, 48, 0
18, 40320, Note_on_c, 13, 49, 60
18, 40559, Note_on_c, 13, 49, 0
18, 40560, Note_on_c, 13, 48, 60
18, 40679, Note_on_c, 13, 48, 0
18, 40800, Note_on_c, 13, 47, 60
18, 40919, Note_on_c, 13, 47, 0
18, 40920, Note_on_c, 13, 48, 60
18, 41039, Note_on_c, 13, 48, 0
18, 41040, Note_on_c, 13, 49, 60
18, 41159, Note_on_c, 13, 49, 0
18, 41160, Note_on_c, 13, 48, 60
18, 41279, Note_on_c, 13, 48, 0
18, 41280, Note_on_c, 13, 46, 60
18, 41399, Note_on_c, 13, 46, 0
18, 41400, Note_on_c, 13, 45, 60
18, 41519, Note_on_c, 13, 45, 0
18, 41520, Note_on_c, 13, 49, 60
18, 41639, Note_on_c, 13, 49, 0
18, 41640, Note_on_c, 13, 50, 60
18, 41759, Note_on_c, 13, 50, 0
18, 41760, Note_on_c, 13, 46, 60
18, 41879, Note_on_c, 13, 46, 0
18, 41880, Note_on_c, 13, 48, 60
18, 42119, Note_on_c, 13, 48, 0
18, 42120, Note_on_c, 13, 41, 60
18, 42239, Note_on_c, 13, 41, 0
18, 42720, Note_on_c, 13, 46, 60
18, 42899, Note_on_c, 13, 46, 0
18, 42900, Note_on_c, 13, 48, 60
18, 42959, Note_on_c, 13, 48, 0
18, 42960, Note_on_c, 13, 50, 60
18, 43019, Note_on_c, 13, 50, 0
18, 43020, Note_on_c, 13, 52, 60
18, 43079, Note_on_c, 13, 52, 0
18, 43080, Note_on_c, 13, 53, 60
18, 43139, Note_on_c, 13, 53, 0
18, 43140, Note_on_c, 13, 55, 60
18, 43199, Note_on_c, 13, 55, 0
18, 43200, Note_on_c, 13, 57, 60
18, 43259, Note_on_c, 13, 57, 0
18, 43260, Note_on_c, 13, 58, 60
18, 43319, Note_on_c, 13, 58, 0
18, 43320, Note_on_c, 13, 60, 60
18, 43559, Note_on_c, 13, 60, 0
18, 43560, Note_on_c, 13, 53, 60
18, 43679, Note_on_c, 13, 53, 0
18, 44160, Note_on_c, 13, 46, 60
18, 44339, Note_on_c, 13, 46, 0
18, 44340, Note_on_c, 13, 48, 60
18, 44399, Note_on_c, 13, 48, 0
18, 44400, Note_on_c, 13, 50, 60
18, 44459, Note_on_c, 13, 50, 0
18, 44460, Note_on_c, 13, 52, 60
18, 44519, Note_on_c, 13, 52, 0
18, 44520, Note_on_c, 13, 53, 60
18, 44579, Note_on_c, 13, 53, 0
18, 44580, Note_on_c, 13, 55, 60
18, 44639, Note_on_c, 13, 55, 0
18, 44640, Note_on_c, 13, 57, 60
18, 44699, Note_on_c, 13, 57, 0
18, 44700, Note_on_c, 13, 58, 60
18, 44759, Note_on_c, 13, 58, 0
18, 44760, Note_on_c, 13, 60, 60
18, 44879, Note_on_c, 13, 60, 0
18, 44880, Note_on_c, 13, 48, 60
18, 44999, Note_on_c, 13, 48, 0
18, 45000, Note_on_c, 13, 53, 60
18, 45119, Note_on_c, 13, 53, 0
18, 45119, End_track
19, 0, Start_track
19, 0, End_track
0, 0, End_of_file