0, 0, Header, 1, 3, 192
1, 0, Start_track
1, 0, Title_t, "Rondo "
1, 0, Text_t, "By W.A.Mozart"
1, 0, Copyright_t, "Copyright \251January 2001 by Reginald Steven Ritchie"
1, 0, Copyright_t, "Reginald Steven Ritchie"
1, 0, Text_t, "Generated by NoteWorthy Composer"
1, 0, Tempo, 333333
1, 0, Tempo, 333333
1, 0, Time_signature, 4, 2, 24, 8
1, 0, Key_signature, 2, "major"
1, 45312, Tempo, 333333
1, 45312, Tempo, 333333
1, 45312, End_track
2, 0, Start_track
2, 0, MIDI_port, 0
2, 0, Title_t, "Copyright 2001 Reg"
2, 0, Program_c, 0, 0
2, 0, Control_c, 0, 7, 127
2, 0, Control_c, 0, 10, 112
2, 0, Program_c, 0, 0
2, 0, Control_c, 0, 7, 127
2, 0, Control_c, 0, 10, 112
2, 0, Control_c, 0, 91, 84
2, 0, Control_c, 0, 93, 84
2, 0, Note_on_c, 0, 81, 60
2, 336, Note_on_c, 0, 81, 0
2, 384, Note_on_c, 0, 79, 60
2, 430, Note_on_c, 0, 79, 0
2, 432, Note_on_c, 0, 78, 60
2, 574, Note_on_c, 0, 78, 0
2, 576, Note_on_c, 0, 76, 60
2, 622, Note_on_c, 0, 76, 0
2, 624, Note_on_c, 0, 74, 60
2, 766, Note_on_c, 0, 74, 0
2, 768, Note_on_c, 0, 79, 60
2, 1056, Note_on_c, 0, 79, 0
2, 1056, Note_on_c, 0, 76, 60
2, 1152, Note_on_c, 0, 76, 0
2, 1152, Note_on_c, 0, 73, 60
2, 1312, Note_on_c, 0, 73, 0
2, 1536, Note_on_c, 0, 79, 60
2, 1872, Note_on_c, 0, 79, 0
2, 1920, Note_on_c, 0, 78, 60
2, 1966, Note_on_c, 0, 78, 0
2, 1968, Note_on_c, 0, 76, 60
2, 2110, Note_on_c, 0, 76, 0
2, 2112, Note_on_c, 0, 74, 60
2, 2158, Note_on_c, 0, 74, 0
2, 2160, Note_on_c, 0, 73, 60
2, 2302, Note_on_c, 0, 73, 0
2, 2304, Note_on_c, 0, 81, 60
2, 2592, Note_on_c, 0, 81, 0
2, 2592, Note_on_c, 0, 78, 60
2, 2688, Note_on_c, 0, 78, 0
2, 2688, Note_on_c, 0, 74, 60
2, 2848, Note_on_c, 0, 74, 0
2, 3072, Note_on_c, 0, 83, 60
2, 3166, Note_on_c, 0, 83, 0
2, 3168, Note_on_c, 0, 85, 60
2, 3192, Note_on_c, 0, 85, 0
2, 3192, Note_on_c, 0, 83, 60
2, 3214, Note_on_c, 0, 83, 0
2, 3216, Note_on_c, 0, 81, 60
2, 3262, Note_on_c, 0, 81, 0
2, 3264, Note_on_c, 0, 83, 60
2, 3358, Note_on_c, 0, 83, 0
2, 3360, Note_on_c, 0, 85, 60
2, 3392, Note_on_c, 0, 85, 0
2, 3456, Note_on_c, 0, 86, 60
2, 3616, Note_on_c, 0, 86, 0
2, 3744, Note_on_c, 0, 81, 60
2, 3838, Note_on_c, 0, 81, 0
2, 3840, Note_on_c, 0, 83, 60
2, 3934, Note_on_c, 0, 83, 0
2, 3936, Note_on_c, 0, 85, 60
2, 3960, Note_on_c, 0, 85, 0
2, 3960, Note_on_c, 0, 83, 60
2, 3982, Note_on_c, 0, 83, 0
2, 3984, Note_on_c, 0, 81, 60
2, 4030, Note_on_c, 0, 81, 0
2, 4032, Note_on_c, 0, 83, 60
2, 4126, Note_on_c, 0, 83, 0
2, 4128, Note_on_c, 0, 85, 60
2, 4160, Note_on_c, 0, 85, 0
2, 4224, Note_on_c, 0, 86, 60
2, 4384, Note_on_c, 0, 86, 0
2, 4512, Note_on_c, 0, 81, 60
2, 4606, Note_on_c, 0, 81, 0
2, 4608, Note_on_c, 0, 81, 60
2, 4704, Note_on_c, 0, 81, 0
2, 4704, Note_on_c, 0, 80, 60
2, 4800, Note_on_c, 0, 80, 0
2, 4800, Note_on_c, 0, 79, 60
2, 4896, Note_on_c, 0, 79, 0
2, 4896, Note_on_c, 0, 76, 60
2, 4992, Note_on_c, 0, 76, 0
2, 4992, Note_on_c, 0, 79, 60
2, 5088, Note_on_c, 0, 79, 0
2, 5088, Note_on_c, 0, 77, 60
2, 5184, Note_on_c, 0, 77, 0
2, 5184, Note_on_c, 0, 78, 60
2, 5280, Note_on_c, 0, 78, 0
2, 5280, Note_on_c, 0, 74, 60
2, 5376, Note_on_c, 0, 74, 0
2, 5376, Note_on_c, 0, 78, 60
2, 5424, Note_on_c, 0, 78, 0
2, 5424, Note_on_c, 0, 76, 60
2, 5472, Note_on_c, 0, 76, 0
2, 5472, Note_on_c, 0, 74, 60
2, 5520, Note_on_c, 0, 74, 0
2, 5520, Note_on_c, 0, 73, 60
2, 5568, Note_on_c, 0, 73, 0
2, 5568, Note_on_c, 0, 71, 60
2, 5616, Note_on_c, 0, 71, 0
2, 5616, Note_on_c, 0, 69, 60
2, 5664, Note_on_c, 0, 69, 0
2, 5664, Note_on_c, 0, 68, 60
2, 5712, Note_on_c, 0, 68, 0
2, 5712, Note_on_c, 0, 69, 60
2, 5760, Note_on_c, 0, 69, 0
2, 5760, Note_on_c, 0, 71, 60
2, 5808, Note_on_c, 0, 71, 0
2, 5808, Note_on_c, 0, 73, 60
2, 5856, Note_on_c, 0, 73, 0
2, 5856, Note_on_c, 0, 74, 60
2, 5904, Note_on_c, 0, 74, 0
2, 5904, Note_on_c, 0, 76, 60
2, 5952, Note_on_c, 0, 76, 0
2, 5952, Note_on_c, 0, 77, 60
2, 6000, Note_on_c, 0, 77, 0
2, 6000, Note_on_c, 0, 78, 60
2, 6048, Note_on_c, 0, 78, 0
2, 6048, Note_on_c, 0, 79, 60
2, 6096, Note_on_c, 0, 79, 0
2, 6096, Note_on_c, 0, 80, 60
2, 6144, Note_on_c, 0, 80, 0
2, 6144, Note_on_c, 0, 81, 60
2, 6480, Note_on_c, 0, 81, 0
2, 6528, Note_on_c, 0, 79, 60
2, 6576, Note_on_c, 0, 79, 0
2, 6576, Note_on_c, 0, 78, 60
2, 6718, Note_on_c, 0, 78, 0
2, 6720, Note_on_c, 0, 76, 60
2, 6768, Note_on_c, 0, 76, 0
2, 6768, Note_on_c, 0, 74, 60
2, 6910, Note_on_c, 0, 74, 0
2, 6912, Note_on_c, 0, 79, 60
2, 7200, Note_on_c, 0, 79, 0
2, 7200, Note_on_c, 0, 76, 60
2, 7296, Note_on_c, 0, 76, 0
2, 7296, Note_on_c, 0, 73, 60
2, 7456, Note_on_c, 0, 73, 0
2, 7680, Note_on_c, 0, 79, 60
2, 8016, Note_on_c, 0, 79, 0
2, 8064, Note_on_c, 0, 78, 60
2, 8112, Note_on_c, 0, 78, 0
2, 8112, Note_on_c, 0, 76, 60
2, 8254, Note_on_c, 0, 76, 0
2, 8256, Note_on_c, 0, 74, 60
2, 8304, Note_on_c, 0, 74, 0
2, 8304, Note_on_c, 0, 73, 60
2, 8446, Note_on_c, 0, 73, 0
2, 8448, Note_on_c, 0, 81, 60
2, 8736, Note_on_c, 0, 81, 0
2, 8736, Note_on_c, 0, 78, 60
2, 8832, Note_on_c, 0, 78, 0
2, 8832, Note_on_c, 0, 74, 60
2, 8992, Note_on_c, 0, 74, 0
2, 9216, Note_on_c, 0, 83, 60
2, 9248, Note_on_c, 0, 83, 0
2, 9312, Note_on_c, 0, 85, 60
2, 9336, Note_on_c, 0, 85, 0
2, 9336, Note_on_c, 0, 83, 60
2, 9358, Note_on_c, 0, 83, 0
2, 9360, Note_on_c, 0, 81, 60
2, 9406, Note_on_c, 0, 81, 0
2, 9408, Note_on_c, 0, 83, 60
2, 9502, Note_on_c, 0, 83, 0
2, 9504, Note_on_c, 0, 85, 60
2, 9598, Note_on_c, 0, 85, 0
2, 9600, Note_on_c, 0, 86, 60
2, 9760, Note_on_c, 0, 86, 0
2, 9888, Note_on_c, 0, 81, 60
2, 9982, Note_on_c, 0, 81, 0
2, 9984, Note_on_c, 0, 83, 60
2, 10016, Note_on_c, 0, 83, 0
2, 10080, Note_on_c, 0, 85, 60
2, 10104, Note_on_c, 0, 85, 0
2, 10104, Note_on_c, 0, 83, 60
2, 10126, Note_on_c, 0, 83, 0
2, 10128, Note_on_c, 0, 81, 60
2, 10174, Note_on_c, 0, 81, 0
2, 10176, Note_on_c, 0, 83, 60
2, 10270, Note_on_c, 0, 83, 0
2, 10272, Note_on_c, 0, 85, 60
2, 10304, Note_on_c, 0, 85, 0
2, 10368, Note_on_c, 0, 86, 60
2, 10462, Note_on_c, 0, 86, 0
2, 10464, Note_on_c, 0, 81, 60
2, 10560, Note_on_c, 0, 81, 0
2, 10560, Note_on_c, 0, 79, 60
2, 10656, Note_on_c, 0, 79, 0
2, 10656, Note_on_c, 0, 78, 60
2, 10750, Note_on_c, 0, 78, 0
2, 10752, Note_on_c, 0, 78, 60
2, 10848, Note_on_c, 0, 78, 0
2, 10848, Note_on_c, 0, 76, 60
2, 10944, Note_on_c, 0, 76, 0
2, 10944, Note_on_c, 0, 79, 60
2, 11040, Note_on_c, 0, 79, 0
2, 11040, Note_on_c, 0, 83, 60
2, 11136, Note_on_c, 0, 83, 0
2, 11136, Note_on_c, 0, 74, 60
2, 11328, Note_on_c, 0, 74, 0
2, 11328, Note_on_c, 0, 73, 60
2, 11328, Note_on_c, 0, 78, 60
2, 11424, Note_on_c, 0, 78, 0
2, 11424, Note_on_c, 0, 76, 60
2, 11488, Note_on_c, 0, 73, 0
2, 11520, Note_on_c, 0, 76, 0
2, 11520, Note_on_c, 0, 74, 60
2, 11680, Note_on_c, 0, 74, 0
2, 11808, Note_on_c, 0, 69, 60
2, 11904, Note_on_c, 0, 69, 0
2, 11904, Note_on_c, 0, 74, 60
2, 12000, Note_on_c, 0, 74, 0
2, 12000, Note_on_c, 0, 73, 60
2, 12096, Note_on_c, 0, 73, 0
2, 12096, Note_on_c, 0, 71, 60
2, 12192, Note_on_c, 0, 71, 0
2, 12192, Note_on_c, 0, 69, 60
2, 12286, Note_on_c, 0, 69, 0
2, 12288, Note_on_c, 0, 67, 60
2, 12288, Note_on_c, 0, 69, 60
2, 12382, Note_on_c, 0, 67, 0
2, 12382, Note_on_c, 0, 69, 0
2, 12384, Note_on_c, 0, 67, 60
2, 12384, Note_on_c, 0, 69, 60
2, 12478, Note_on_c, 0, 67, 0
2, 12478, Note_on_c, 0, 69, 0
2, 12576, Note_on_c, 0, 67, 60
2, 12576, Note_on_c, 0, 69, 60
2, 12670, Note_on_c, 0, 67, 0
2, 12670, Note_on_c, 0, 69, 0
2, 12672, Note_on_c, 0, 67, 60
2, 12672, Note_on_c, 0, 69, 60
2, 12766, Note_on_c, 0, 67, 0
2, 12766, Note_on_c, 0, 69, 0
2, 12768, Note_on_c, 0, 67, 60
2, 12768, Note_on_c, 0, 69, 60
2, 12862, Note_on_c, 0, 67, 0
2, 12862, Note_on_c, 0, 69, 0
2, 12960, Note_on_c, 0, 67, 60
2, 12960, Note_on_c, 0, 69, 60
2, 13054, Note_on_c, 0, 67, 0
2, 13054, Note_on_c, 0, 69, 0
2, 13056, Note_on_c, 0, 66, 60
2, 13056, Note_on_c, 0, 71, 60
2, 13150, Note_on_c, 0, 71, 0
2, 13152, Note_on_c, 0, 69, 60
2, 13216, Note_on_c, 0, 66, 0
2, 13246, Note_on_c, 0, 69, 0
2, 13344, Note_on_c, 0, 69, 60
2, 13438, Note_on_c, 0, 69, 0
2, 13440, Note_on_c, 0, 74, 60
2, 13534, Note_on_c, 0, 74, 0
2, 13536, Note_on_c, 0, 73, 60
2, 13630, Note_on_c, 0, 73, 0
2, 13632, Note_on_c, 0, 71, 60
2, 13726, Note_on_c, 0, 71, 0
2, 13728, Note_on_c, 0, 69, 60
2, 13822, Note_on_c, 0, 69, 0
2, 13824, Note_on_c, 0, 67, 60
2, 13824, Note_on_c, 0, 69, 60
2, 13918, Note_on_c, 0, 67, 0
2, 13918, Note_on_c, 0, 69, 0
2, 13920, Note_on_c, 0, 67, 60
2, 13920, Note_on_c, 0, 69, 60
2, 14014, Note_on_c, 0, 67, 0
2, 14014, Note_on_c, 0, 69, 0
2, 14112, Note_on_c, 0, 67, 60
2, 14112, Note_on_c, 0, 69, 60
2, 14206, Note_on_c, 0, 67, 0
2, 14206, Note_on_c, 0, 69, 0
2, 14208, Note_on_c, 0, 67, 60
2, 14208, Note_on_c, 0, 69, 60
2, 14302, Note_on_c, 0, 67, 0
2, 14302, Note_on_c, 0, 69, 0
2, 14304, Note_on_c, 0, 67, 60
2, 14304, Note_on_c, 0, 69, 60
2, 14398, Note_on_c, 0, 67, 0
2, 14398, Note_on_c, 0, 69, 0
2, 14496, Note_on_c, 0, 67, 60
2, 14496, Note_on_c, 0, 69, 60
2, 14590, Note_on_c, 0, 67, 0
2, 14590, Note_on_c, 0, 69, 0
2, 14592, Note_on_c, 0, 66, 60
2, 14592, Note_on_c, 0, 71, 60
2, 14686, Note_on_c, 0, 71, 0
2, 14688, Note_on_c, 0, 69, 60
2, 14752, Note_on_c, 0, 66, 0
2, 14782, Note_on_c, 0, 69, 0
2, 14880, Note_on_c, 0, 69, 60
2, 14976, Note_on_c, 0, 69, 0
2, 14976, Note_on_c, 0, 71, 60
2, 15072, Note_on_c, 0, 71, 0
2, 15072, Note_on_c, 0, 73, 60
2, 15168, Note_on_c, 0, 73, 0
2, 15168, Note_on_c, 0, 74, 60
2, 15264, Note_on_c, 0, 74, 0
2, 15264, Note_on_c, 0, 76, 60
2, 15360, Note_on_c, 0, 76, 0
2, 15360, Note_on_c, 0, 78, 60
2, 15696, Note_on_c, 0, 78, 0
2, 15744, Note_on_c, 0, 76, 60
2, 15792, Note_on_c, 0, 76, 0
2, 15792, Note_on_c, 0, 74, 60
2, 15934, Note_on_c, 0, 74, 0
2, 15936, Note_on_c, 0, 73, 60
2, 15984, Note_on_c, 0, 73, 0
2, 15984, Note_on_c, 0, 71, 60
2, 16126, Note_on_c, 0, 71, 0
2, 16128, Note_on_c, 0, 79, 60
2, 16384, Note_on_c, 0, 79, 0
2, 16416, Note_on_c, 0, 70, 60
2, 16510, Note_on_c, 0, 70, 0
2, 16512, Note_on_c, 0, 71, 60
2, 16672, Note_on_c, 0, 71, 0
2, 16896, Note_on_c, 0, 76, 60
2, 17232, Note_on_c, 0, 76, 0
2, 17280, Note_on_c, 0, 74, 60
2, 17328, Note_on_c, 0, 74, 0
2, 17328, Note_on_c, 0, 73, 60
2, 17470, Note_on_c, 0, 73, 0
2, 17472, Note_on_c, 0, 71, 60
2, 17520, Note_on_c, 0, 71, 0
2, 17520, Note_on_c, 0, 69, 60
2, 17662, Note_on_c, 0, 69, 0
2, 17664, Note_on_c, 0, 77, 60
2, 17952, Note_on_c, 0, 77, 0
2, 17952, Note_on_c, 0, 68, 60
2, 18048, Note_on_c, 0, 68, 0
2, 18048, Note_on_c, 0, 69, 60
2, 18208, Note_on_c, 0, 69, 0
2, 18432, Note_on_c, 0, 76, 60
2, 18688, Note_on_c, 0, 76, 0
2, 18720, Note_on_c, 0, 75, 60
2, 18814, Note_on_c, 0, 75, 0
2, 18816, Note_on_c, 0, 81, 60
2, 18976, Note_on_c, 0, 81, 0
2, 19200, Note_on_c, 0, 80, 60
2, 19488, Note_on_c, 0, 80, 0
2, 19488, Note_on_c, 0, 83, 60
2, 19584, Note_on_c, 0, 83, 0
2, 19584, Note_on_c, 0, 74, 60
2, 19744, Note_on_c, 0, 74, 0
2, 19872, Note_on_c, 0, 71, 60
2, 19966, Note_on_c, 0, 71, 0
2, 19968, Note_on_c, 0, 74, 60
2, 20064, Note_on_c, 0, 74, 0
2, 20064, Note_on_c, 0, 72, 60
2, 20158, Note_on_c, 0, 72, 0
2, 20256, Note_on_c, 0, 72, 60
2, 20352, Note_on_c, 0, 72, 0
2, 20352, Note_on_c, 0, 74, 60
2, 20448, Note_on_c, 0, 74, 0
2, 20448, Note_on_c, 0, 72, 60
2, 20544, Note_on_c, 0, 72, 0
2, 20544, Note_on_c, 0, 71, 60
2, 20640, Note_on_c, 0, 71, 0
2, 20640, Note_on_c, 0, 69, 60
2, 20736, Note_on_c, 0, 69, 0
2, 20736, Note_on_c, 0, 68, 60
2, 20832, Note_on_c, 0, 68, 0
2, 20832, Note_on_c, 0, 76, 60
2, 20926, Note_on_c, 0, 76, 0
2, 20928, Note_on_c, 0, 76, 60
2, 21022, Note_on_c, 0, 76, 0
2, 21024, Note_on_c, 0, 76, 60
2, 21118, Note_on_c, 0, 76, 0
2, 21120, Note_on_c, 0, 77, 60
2, 21216, Note_on_c, 0, 77, 0
2, 21216, Note_on_c, 0, 76, 60
2, 21312, Note_on_c, 0, 76, 0
2, 21312, Note_on_c, 0, 75, 60
2, 21408, Note_on_c, 0, 75, 0
2, 21408, Note_on_c, 0, 74, 60
2, 21502, Note_on_c, 0, 74, 0
2, 21504, Note_on_c, 0, 74, 60
2, 21600, Note_on_c, 0, 74, 0
2, 21600, Note_on_c, 0, 72, 60
2, 21694, Note_on_c, 0, 72, 0
2, 21792, Note_on_c, 0, 72, 60
2, 21816, Note_on_c, 0, 74, 60
2, 21838, Note_on_c, 0, 74, 0
2, 21840, Note_on_c, 0, 76, 60
2, 21862, Note_on_c, 0, 76, 0
2, 21864, Note_on_c, 0, 74, 60
2, 21886, Note_on_c, 0, 72, 0
2, 21886, Note_on_c, 0, 74, 0
2, 21888, Note_on_c, 0, 74, 60
2, 21984, Note_on_c, 0, 74, 0
2, 21984, Note_on_c, 0, 72, 60
2, 22080, Note_on_c, 0, 72, 0
2, 22080, Note_on_c, 0, 71, 60
2, 22176, Note_on_c, 0, 71, 0
2, 22176, Note_on_c, 0, 69, 60
2, 22270, Note_on_c, 0, 69, 0
2, 22272, Note_on_c, 0, 68, 60
2, 22368, Note_on_c, 0, 68, 0
2, 22368, Note_on_c, 0, 76, 60
2, 22464, Note_on_c, 0, 76, 0
2, 22464, Note_on_c, 0, 76, 60
2, 22560, Note_on_c, 0, 76, 0
2, 22560, Note_on_c, 0, 76, 60
2, 22654, Note_on_c, 0, 76, 0
2, 22656, Note_on_c, 0, 77, 60
2, 22752, Note_on_c, 0, 77, 0
2, 22752, Note_on_c, 0, 76, 60
2, 22848, Note_on_c, 0, 76, 0
2, 22848, Note_on_c, 0, 75, 60
2, 22944, Note_on_c, 0, 75, 0
2, 22944, Note_on_c, 0, 74, 60
2, 23038, Note_on_c, 0, 74, 0
2, 23040, Note_on_c, 0, 74, 60
2, 23136, Note_on_c, 0, 74, 0
2, 23136, Note_on_c, 0, 72, 60
2, 23230, Note_on_c, 0, 72, 0
2, 23328, Note_on_c, 0, 72, 60
2, 23352, Note_on_c, 0, 74, 60
2, 23374, Note_on_c, 0, 74, 0
2, 23376, Note_on_c, 0, 76, 60
2, 23398, Note_on_c, 0, 76, 0
2, 23400, Note_on_c, 0, 74, 60
2, 23422, Note_on_c, 0, 72, 0
2, 23422, Note_on_c, 0, 74, 0
2, 23424, Note_on_c, 0, 74, 60
2, 23520, Note_on_c, 0, 74, 0
2, 23520, Note_on_c, 0, 72, 60
2, 23616, Note_on_c, 0, 72, 0
2, 23616, Note_on_c, 0, 71, 60
2, 23712, Note_on_c, 0, 71, 0
2, 23712, Note_on_c, 0, 69, 60
2, 23806, Note_on_c, 0, 69, 0
2, 23808, Note_on_c, 0, 76, 60
2, 23968, Note_on_c, 0, 76, 0
2, 24096, Note_on_c, 0, 71, 60
2, 24120, Note_on_c, 0, 74, 60
2, 24142, Note_on_c, 0, 74, 0
2, 24144, Note_on_c, 0, 76, 60
2, 24166, Note_on_c, 0, 76, 0
2, 24168, Note_on_c, 0, 74, 60
2, 24190, Note_on_c, 0, 71, 0
2, 24190, Note_on_c, 0, 74, 0
2, 24192, Note_on_c, 0, 72, 60
2, 24352, Note_on_c, 0, 72, 0
2, 24480, Note_on_c, 0, 69, 60
2, 24576, Note_on_c, 0, 69, 0
2, 24576, Note_on_c, 0, 76, 60
2, 24736, Note_on_c, 0, 76, 0
2, 24864, Note_on_c, 0, 71, 60
2, 24888, Note_on_c, 0, 74, 60
2, 24910, Note_on_c, 0, 74, 0
2, 24912, Note_on_c, 0, 76, 60
2, 24934, Note_on_c, 0, 76, 0
2, 24936, Note_on_c, 0, 74, 60
2, 24958, Note_on_c, 0, 71, 0
2, 24958, Note_on_c, 0, 74, 0
2, 24960, Note_on_c, 0, 72, 60
2, 25120, Note_on_c, 0, 72, 0
2, 25248, Note_on_c, 0, 69, 60
2, 25344, Note_on_c, 0, 69, 0
2, 25344, Note_on_c, 0, 76, 60
2, 25438, Note_on_c, 0, 76, 0
2, 25440, Note_on_c, 0, 64, 60
2, 25534, Note_on_c, 0, 64, 0
2, 25536, Note_on_c, 0, 64, 60
2, 25630, Note_on_c, 0, 64, 0
2, 25632, Note_on_c, 0, 64, 60
2, 25726, Note_on_c, 0, 64, 0
2, 25728, Note_on_c, 0, 64, 60
2, 25824, Note_on_c, 0, 64, 0
2, 25824, Note_on_c, 0, 65, 60
2, 25920, Note_on_c, 0, 65, 0
2, 25920, Note_on_c, 0, 66, 60
2, 26016, Note_on_c, 0, 66, 0
2, 26016, Note_on_c, 0, 67, 60
2, 26110, Note_on_c, 0, 67, 0
2, 26112, Note_on_c, 0, 68, 60
2, 26208, Note_on_c, 0, 68, 0
2, 26208, Note_on_c, 0, 69, 60
2, 26304, Note_on_c, 0, 69, 0
2, 26304, Note_on_c, 0, 70, 60
2, 26400, Note_on_c, 0, 70, 0
2, 26400, Note_on_c, 0, 71, 60
2, 26496, Note_on_c, 0, 71, 0
2, 26496, Note_on_c, 0, 72, 60
2, 26592, Note_on_c, 0, 72, 0
2, 26592, Note_on_c, 0, 73, 60
2, 26688, Note_on_c, 0, 73, 0
2, 26688, Note_on_c, 0, 74, 60
2, 26784, Note_on_c, 0, 74, 0
2, 26784, Note_on_c, 0, 75, 60
2, 26880, Note_on_c, 0, 75, 0
2, 26880, Note_on_c, 0, 76, 60
2, 27216, Note_on_c, 0, 76, 0
2, 27264, Note_on_c, 0, 74, 60
2, 27312, Note_on_c, 0, 74, 0
2, 27312, Note_on_c, 0, 73, 60
2, 27454, Note_on_c, 0, 73, 0
2, 27456, Note_on_c, 0, 71, 60
2, 27504, Note_on_c, 0, 71, 0
2, 27504, Note_on_c, 0, 69, 60
2, 27646, Note_on_c, 0, 69, 0
2, 27648, Note_on_c, 0, 74, 60
2, 27936, Note_on_c, 0, 74, 0
2, 27936, Note_on_c, 0, 71, 60
2, 28032, Note_on_c, 0, 71, 0
2, 28032, Note_on_c, 0, 68, 60
2, 28192, Note_on_c, 0, 68, 0
2, 28416, Note_on_c, 0, 86, 60
2, 28752, Note_on_c, 0, 86, 0
2, 28800, Note_on_c, 0, 85, 60
2, 28848, Note_on_c, 0, 85, 0
2, 28848, Note_on_c, 0, 83, 60
2, 28990, Note_on_c, 0, 83, 0
2, 28992, Note_on_c, 0, 81, 60
2, 29040, Note_on_c, 0, 81, 0
2, 29040, Note_on_c, 0, 80, 60
2, 29182, Note_on_c, 0, 80, 0
2, 29184, Note_on_c, 0, 88, 60
2, 29472, Note_on_c, 0, 88, 0
2, 29472, Note_on_c, 0, 85, 60
2, 29568, Note_on_c, 0, 85, 0
2, 29568, Note_on_c, 0, 82, 60
2, 29728, Note_on_c, 0, 82, 0
2, 29952, Note_on_c, 0, 83, 60
2, 29984, Note_on_c, 0, 83, 0
2, 30048, Note_on_c, 0, 85, 60
2, 30072, Note_on_c, 0, 85, 0
2, 30072, Note_on_c, 0, 83, 60
2, 30094, Note_on_c, 0, 83, 0
2, 30096, Note_on_c, 0, 82, 60
2, 30142, Note_on_c, 0, 82, 0
2, 30144, Note_on_c, 0, 83, 60
2, 30238, Note_on_c, 0, 83, 0
2, 30240, Note_on_c, 0, 85, 60
2, 30272, Note_on_c, 0, 85, 0
2, 30336, Note_on_c, 0, 86, 60
2, 30624, Note_on_c, 0, 86, 0
2, 30624, Note_on_c, 0, 80, 60
2, 30720, Note_on_c, 0, 80, 0
2, 30720, Note_on_c, 0, 81, 60
2, 30752, Note_on_c, 0, 81, 0
2, 30816, Note_on_c, 0, 83, 60
2, 30840, Note_on_c, 0, 83, 0
2, 30840, Note_on_c, 0, 81, 60
2, 30862, Note_on_c, 0, 81, 0
2, 30864, Note_on_c, 0, 80, 60
2, 30910, Note_on_c, 0, 80, 0
2, 30912, Note_on_c, 0, 81, 60
2, 31006, Note_on_c, 0, 81, 0
2, 31008, Note_on_c, 0, 83, 60
2, 31040, Note_on_c, 0, 83, 0
2, 31104, Note_on_c, 0, 84, 60
2, 31392, Note_on_c, 0, 84, 0
2, 31392, Note_on_c, 0, 75, 60
2, 31488, Note_on_c, 0, 75, 0
2, 31488, Note_on_c, 0, 76, 60
2, 31584, Note_on_c, 0, 76, 0
2, 31584, Note_on_c, 0, 81, 60
2, 31678, Note_on_c, 0, 81, 0
2, 31776, Note_on_c, 0, 73, 60
2, 31872, Note_on_c, 0, 73, 0
2, 31872, Note_on_c, 0, 76, 60
2, 31968, Note_on_c, 0, 76, 0
2, 31968, Note_on_c, 0, 74, 60
2, 32064, Note_on_c, 0, 74, 0
2, 32064, Note_on_c, 0, 71, 60
2, 32160, Note_on_c, 0, 71, 0
2, 32160, Note_on_c, 0, 68, 60
2, 32254, Note_on_c, 0, 68, 0
2, 32256, Note_on_c, 0, 69, 92
2, 32304, Note_on_c, 0, 69, 0
2, 32304, Note_on_c, 0, 76, 92
2, 32352, Note_on_c, 0, 76, 0
2, 32352, Note_on_c, 0, 73, 92
2, 32400, Note_on_c, 0, 73, 0
2, 32400, Note_on_c, 0, 76, 92
2, 32448, Note_on_c, 0, 76, 0
2, 32448, Note_on_c, 0, 69, 92
2, 32496, Note_on_c, 0, 69, 0
2, 32496, Note_on_c, 0, 76, 92
2, 32544, Note_on_c, 0, 76, 0
2, 32544, Note_on_c, 0, 73, 92
2, 32592, Note_on_c, 0, 73, 0
2, 32592, Note_on_c, 0, 76, 92
2, 32640, Note_on_c, 0, 76, 0
2, 32640, Note_on_c, 0, 69, 92
2, 32688, Note_on_c, 0, 69, 0
2, 32688, Note_on_c, 0, 76, 92
2, 32736, Note_on_c, 0, 76, 0
2, 32736, Note_on_c, 0, 73, 92
2, 32784, Note_on_c, 0, 73, 0
2, 32784, Note_on_c, 0, 76, 92
2, 32832, Note_on_c, 0, 76, 0
2, 32832, Note_on_c, 0, 69, 92
2, 32880, Note_on_c, 0, 69, 0
2, 32880, Note_on_c, 0, 76, 92
2, 32928, Note_on_c, 0, 76, 0
2, 32928, Note_on_c, 0, 73, 92
2, 32976, Note_on_c, 0, 73, 0
2, 32976, Note_on_c, 0, 76, 92
2, 33022, Note_on_c, 0, 76, 0
2, 33024, Note_on_c, 0, 71, 92
2, 33072, Note_on_c, 0, 71, 0
2, 33072, Note_on_c, 0, 76, 92
2, 33120, Note_on_c, 0, 76, 0
2, 33120, Note_on_c, 0, 74, 92
2, 33168, Note_on_c, 0, 74, 0
2, 33168, Note_on_c, 0, 76, 92
2, 33216, Note_on_c, 0, 76, 0
2, 33216, Note_on_c, 0, 71, 92
2, 33264, Note_on_c, 0, 71, 0
2, 33264, Note_on_c, 0, 76, 92
2, 33312, Note_on_c, 0, 76, 0
2, 33312, Note_on_c, 0, 74, 92
2, 33360, Note_on_c, 0, 74, 0
2, 33360, Note_on_c, 0, 76, 92
2, 33408, Note_on_c, 0, 76, 0
2, 33408, Note_on_c, 0, 71, 92
2, 33456, Note_on_c, 0, 71, 0
2, 33456, Note_on_c, 0, 76, 92
2, 33504, Note_on_c, 0, 76, 0
2, 33504, Note_on_c, 0, 74, 92
2, 33552, Note_on_c, 0, 74, 0
2, 33552, Note_on_c, 0, 76, 92
2, 33600, Note_on_c, 0, 76, 0
2, 33600, Note_on_c, 0, 71, 92
2, 33648, Note_on_c, 0, 71, 0
2, 33648, Note_on_c, 0, 76, 92
2, 33696, Note_on_c, 0, 76, 0
2, 33696, Note_on_c, 0, 74, 92
2, 33744, Note_on_c, 0, 74, 0
2, 33744, Note_on_c, 0, 76, 92
2, 33790, Note_on_c, 0, 76, 0
2, 33792, Note_on_c, 0, 69, 92
2, 33838, Note_on_c, 0, 69, 0
2, 33840, Note_on_c, 0, 76, 92
2, 33888, Note_on_c, 0, 76, 0
2, 33888, Note_on_c, 0, 73, 92
2, 33936, Note_on_c, 0, 73, 0
2, 33936, Note_on_c, 0, 76, 92
2, 33984, Note_on_c, 0, 76, 0
2, 33984, Note_on_c, 0, 69, 92
2, 34032, Note_on_c, 0, 69, 0
2, 34032, Note_on_c, 0, 76, 92
2, 34080, Note_on_c, 0, 76, 0
2, 34080, Note_on_c, 0, 73, 92
2, 34128, Note_on_c, 0, 73, 0
2, 34128, Note_on_c, 0, 76, 92
2, 34176, Note_on_c, 0, 76, 0
2, 34176, Note_on_c, 0, 69, 92
2, 34224, Note_on_c, 0, 69, 0
2, 34224, Note_on_c, 0, 76, 92
2, 34272, Note_on_c, 0, 76, 0
2, 34272, Note_on_c, 0, 73, 92
2, 34320, Note_on_c, 0, 73, 0
2, 34320, Note_on_c, 0, 76, 92
2, 34368, Note_on_c, 0, 76, 0
2, 34368, Note_on_c, 0, 69, 92
2, 34416, Note_on_c, 0, 69, 0
2, 34416, Note_on_c, 0, 76, 92
2, 34464, Note_on_c, 0, 76, 0
2, 34464, Note_on_c, 0, 73, 92
2, 34512, Note_on_c, 0, 73, 0
2, 34512, Note_on_c, 0, 76, 92
2, 34560, Note_on_c, 0, 76, 0
2, 34560, Note_on_c, 0, 71, 92
2, 34608, Note_on_c, 0, 71, 0
2, 34608, Note_on_c, 0, 76, 92
2, 34656, Note_on_c, 0, 76, 0
2, 34656, Note_on_c, 0, 74, 92
2, 34704, Note_on_c, 0, 74, 0
2, 34704, Note_on_c, 0, 76, 92
2, 34752, Note_on_c, 0, 76, 0
2, 34752, Note_on_c, 0, 71, 92
2, 34800, Note_on_c, 0, 71, 0
2, 34800, Note_on_c, 0, 76, 92
2, 34848, Note_on_c, 0, 76, 0
2, 34848, Note_on_c, 0, 74, 92
2, 34896, Note_on_c, 0, 74, 0
2, 34896, Note_on_c, 0, 76, 92
2, 34944, Note_on_c, 0, 76, 0
2, 34944, Note_on_c, 0, 71, 92
2, 34992, Note_on_c, 0, 71, 0
2, 34992, Note_on_c, 0, 76, 92
2, 35040, Note_on_c, 0, 76, 0
2, 35040, Note_on_c, 0, 74, 92
2, 35088, Note_on_c, 0, 74, 0
2, 35088, Note_on_c, 0, 76, 92
2, 35136, Note_on_c, 0, 76, 0
2, 35136, Note_on_c, 0, 71, 92
2, 35184, Note_on_c, 0, 71, 0
2, 35184, Note_on_c, 0, 76, 92
2, 35232, Note_on_c, 0, 76, 0
2, 35232, Note_on_c, 0, 74, 92
2, 35280, Note_on_c, 0, 74, 0
2, 35280, Note_on_c, 0, 76, 92
2, 35326, Note_on_c, 0, 76, 0
2, 35328, Note_on_c, 0, 73, 92
2, 35376, Note_on_c, 0, 73, 0
2, 35376, Note_on_c, 0, 69, 92
2, 35424, Note_on_c, 0, 69, 0
2, 35424, Note_on_c, 0, 71, 92
2, 35472, Note_on_c, 0, 71, 0
2, 35472, Note_on_c, 0, 73, 92
2, 35520, Note_on_c, 0, 73, 0
2, 35520, Note_on_c, 0, 74, 92
2, 35568, Note_on_c, 0, 74, 0
2, 35568, Note_on_c, 0, 76, 92
2, 35616, Note_on_c, 0, 76, 0
2, 35616, Note_on_c, 0, 78, 92
2, 35664, Note_on_c, 0, 78, 0
2, 35664, Note_on_c, 0, 80, 92
2, 35712, Note_on_c, 0, 80, 0
2, 35712, Note_on_c, 0, 81, 92
2, 35760, Note_on_c, 0, 81, 0
2, 35760, Note_on_c, 0, 83, 92
2, 35808, Note_on_c, 0, 83, 0
2, 35808, Note_on_c, 0, 85, 92
2, 35856, Note_on_c, 0, 85, 0
2, 35856, Note_on_c, 0, 86, 92
2, 35904, Note_on_c, 0, 86, 0
2, 35904, Note_on_c, 0, 88, 92
2, 35998, Note_on_c, 0, 88, 0
2, 36144, Note_on_c, 0, 62, 92
2, 36192, Note_on_c, 0, 62, 0
2, 36192, Note_on_c, 0, 64, 92
2, 36240, Note_on_c, 0, 64, 0
2, 36240, Note_on_c, 0, 66, 92
2, 36288, Note_on_c, 0, 66, 0
2, 36288, Note_on_c, 0, 67, 92
2, 36336, Note_on_c, 0, 67, 0
2, 36336, Note_on_c, 0, 69, 92
2, 36384, Note_on_c, 0, 69, 0
2, 36384, Note_on_c, 0, 71, 92
2, 36432, Note_on_c, 0, 71, 0
2, 36432, Note_on_c, 0, 73, 92
2, 36480, Note_on_c, 0, 73, 0
2, 36480, Note_on_c, 0, 74, 92
2, 36528, Note_on_c, 0, 74, 0
2, 36528, Note_on_c, 0, 76, 92
2, 36576, Note_on_c, 0, 76, 0
2, 36576, Note_on_c, 0, 78, 92
2, 36624, Note_on_c, 0, 78, 0
2, 36624, Note_on_c, 0, 79, 92
2, 36672, Note_on_c, 0, 79, 0
2, 36672, Note_on_c, 0, 81, 92
2, 36766, Note_on_c, 0, 81, 0
2, 36960, Note_on_c, 0, 63, 92
2, 36992, Note_on_c, 0, 63, 0
2, 37056, Note_on_c, 0, 66, 92
2, 37088, Note_on_c, 0, 66, 0
2, 37152, Note_on_c, 0, 69, 92
2, 37184, Note_on_c, 0, 69, 0
2, 37248, Note_on_c, 0, 72, 92
2, 37280, Note_on_c, 0, 72, 0
2, 37344, Note_on_c, 0, 75, 92
2, 37376, Note_on_c, 0, 75, 0
2, 37440, Note_on_c, 0, 78, 92
2, 37472, Note_on_c, 0, 78, 0
2, 37536, Note_on_c, 0, 81, 92
2, 37568, Note_on_c, 0, 81, 0
2, 37632, Note_on_c, 0, 84, 92
2, 37664, Note_on_c, 0, 84, 0
2, 37728, Note_on_c, 0, 81, 92
2, 37760, Note_on_c, 0, 81, 0
2, 37824, Note_on_c, 0, 78, 92
2, 37856, Note_on_c, 0, 78, 0
2, 37920, Note_on_c, 0, 75, 92
2, 37952, Note_on_c, 0, 75, 0
2, 38016, Note_on_c, 0, 72, 92
2, 38048, Note_on_c, 0, 72, 0
2, 38112, Note_on_c, 0, 69, 92
2, 38144, Note_on_c, 0, 69, 0
2, 38208, Note_on_c, 0, 66, 92
2, 38240, Note_on_c, 0, 66, 0
2, 38304, Note_on_c, 0, 63, 92
2, 38336, Note_on_c, 0, 63, 0
2, 38400, Note_on_c, 0, 64, 92
2, 38496, Note_on_c, 0, 64, 0
2, 38496, Note_on_c, 0, 66, 92
2, 38544, Note_on_c, 0, 66, 0
2, 38544, Note_on_c, 0, 68, 92
2, 38592, Note_on_c, 0, 68, 0
2, 38592, Note_on_c, 0, 69, 92
2, 38640, Note_on_c, 0, 69, 0
2, 38640, Note_on_c, 0, 71, 92
2, 38688, Note_on_c, 0, 71, 0
2, 38688, Note_on_c, 0, 73, 92
2, 38736, Note_on_c, 0, 73, 0
2, 38736, Note_on_c, 0, 74, 92
2, 38784, Note_on_c, 0, 74, 0
2, 38784, Note_on_c, 0, 76, 92
2, 38832, Note_on_c, 0, 76, 0
2, 38832, Note_on_c, 0, 78, 92
2, 38880, Note_on_c, 0, 78, 0
2, 38880, Note_on_c, 0, 80, 92
2, 38928, Note_on_c, 0, 80, 0
2, 38928, Note_on_c, 0, 81, 92
2, 38976, Note_on_c, 0, 81, 0
2, 38976, Note_on_c, 0, 83, 92
2, 39024, Note_on_c, 0, 83, 0
2, 39024, Note_on_c, 0, 85, 92
2, 39072, Note_on_c, 0, 85, 0
2, 39072, Note_on_c, 0, 86, 92
2, 39120, Note_on_c, 0, 86, 0
2, 39120, Note_on_c, 0, 88, 92
2, 39166, Note_on_c, 0, 88, 0
2, 39168, Note_on_c, 0, 69, 92
2, 39190, Note_on_c, 0, 69, 0
2, 39192, Note_on_c, 0, 71, 92
2, 39214, Note_on_c, 0, 71, 0
2, 39216, Note_on_c, 0, 73, 92
2, 39216, Note_on_c, 0, 73, 92
2, 39238, Note_on_c, 0, 73, 0
2, 39240, Note_on_c, 0, 71, 92
2, 39262, Note_on_c, 0, 73, 0
2, 39264, Note_on_c, 0, 74, 92
2, 39310, Note_on_c, 0, 74, 0
2, 39312, Note_on_c, 0, 73, 92
2, 39358, Note_on_c, 0, 73, 0
2, 39360, Note_on_c, 0, 74, 92
2, 39406, Note_on_c, 0, 74, 0
2, 39408, Note_on_c, 0, 73, 92
2, 39454, Note_on_c, 0, 73, 0
2, 39456, Note_on_c, 0, 74, 92
2, 39502, Note_on_c, 0, 74, 0
2, 39504, Note_on_c, 0, 73, 92
2, 39550, Note_on_c, 0, 73, 0
2, 39552, Note_on_c, 0, 74, 92
2, 39598, Note_on_c, 0, 74, 0
2, 39600, Note_on_c, 0, 73, 92
2, 39646, Note_on_c, 0, 73, 0
2, 39648, Note_on_c, 0, 74, 92
2, 39694, Note_on_c, 0, 74, 0
2, 39696, Note_on_c, 0, 73, 92
2, 39742, Note_on_c, 0, 73, 0
2, 39744, Note_on_c, 0, 74, 92
2, 39790, Note_on_c, 0, 74, 0
2, 39792, Note_on_c, 0, 73, 92
2, 39838, Note_on_c, 0, 73, 0
2, 39840, Note_on_c, 0, 74, 92
2, 39886, Note_on_c, 0, 74, 0
2, 39888, Note_on_c, 0, 71, 0
2, 39888, Note_on_c, 0, 73, 92
2, 39934, Note_on_c, 0, 73, 0
2, 39936, Note_on_c, 0, 69, 92
2, 39958, Note_on_c, 0, 69, 0
2, 39960, Note_on_c, 0, 71, 92
2, 39982, Note_on_c, 0, 71, 0
2, 39984, Note_on_c, 0, 69, 45
2, 40126, Note_on_c, 0, 69, 0
2, 40416, Note_on_c, 0, 81, 45
2, 40448, Note_on_c, 0, 81, 0
2, 40512, Note_on_c, 0, 83, 45
2, 40544, Note_on_c, 0, 83, 0
2, 40608, Note_on_c, 0, 85, 45
2, 40640, Note_on_c, 0, 85, 0
2, 40704, Note_on_c, 0, 86, 45
2, 41088, Note_on_c, 0, 86, 0
2, 41088, Note_on_c, 0, 85, 45
2, 41184, Note_on_c, 0, 85, 0
2, 41184, Note_on_c, 0, 83, 45
2, 41280, Note_on_c, 0, 83, 0
2, 41280, Note_on_c, 0, 81, 45
2, 41376, Note_on_c, 0, 81, 0
2, 41376, Note_on_c, 0, 80, 45
2, 41470, Note_on_c, 0, 80, 0
2, 41472, Note_on_c, 0, 88, 45
2, 41760, Note_on_c, 0, 88, 0
2, 41760, Note_on_c, 0, 85, 45
2, 41856, Note_on_c, 0, 85, 0
2, 41856, Note_on_c, 0, 81, 45
2, 41950, Note_on_c, 0, 81, 0
2, 41952, Note_on_c, 0, 81, 45
2, 41984, Note_on_c, 0, 81, 0
2, 42048, Note_on_c, 0, 83, 45
2, 42080, Note_on_c, 0, 83, 0
2, 42144, Note_on_c, 0, 85, 45
2, 42176, Note_on_c, 0, 85, 0
2, 42240, Note_on_c, 0, 88, 45
2, 42336, Note_on_c, 0, 88, 0
2, 42336, Note_on_c, 0, 86, 45
2, 42528, Note_on_c, 0, 86, 0
2, 42528, Note_on_c, 0, 88, 45
2, 42576, Note_on_c, 0, 88, 0
2, 42576, Note_on_c, 0, 86, 45
2, 42624, Note_on_c, 0, 86, 0
2, 42624, Note_on_c, 0, 85, 45
2, 42720, Note_on_c, 0, 85, 0
2, 42720, Note_on_c, 0, 83, 45
2, 42816, Note_on_c, 0, 83, 0
2, 42816, Note_on_c, 0, 81, 45
2, 42912, Note_on_c, 0, 81, 0
2, 42912, Note_on_c, 0, 80, 45
2, 43008, Note_on_c, 0, 80, 0
2, 43008, Note_on_c, 0, 88, 45
2, 43200, Note_on_c, 0, 88, 0
2, 43200, Note_on_c, 0, 88, 45
2, 43248, Note_on_c, 0, 88, 0
2, 43248, Note_on_c, 0, 85, 45
2, 43296, Note_on_c, 0, 85, 0
2, 43296, Note_on_c, 0, 88, 45
2, 43344, Note_on_c, 0, 88, 0
2, 43344, Note_on_c, 0, 85, 45
2, 43392, Note_on_c, 0, 85, 0
2, 43392, Note_on_c, 0, 81, 45
2, 43486, Note_on_c, 0, 81, 0
2, 43488, Note_on_c, 0, 69, 45
2, 43520, Note_on_c, 0, 69, 0
2, 43584, Note_on_c, 0, 71, 45
2, 43616, Note_on_c, 0, 71, 0
2, 43680, Note_on_c, 0, 73, 45
2, 43712, Note_on_c, 0, 73, 0
2, 43776, Note_on_c, 0, 74, 45
2, 43920, Note_on_c, 0, 74, 0
2, 43920, Note_on_c, 0, 76, 45
2, 43944, Note_on_c, 0, 76, 0
2, 43944, Note_on_c, 0, 78, 45
2, 43968, Note_on_c, 0, 78, 0
2, 43968, Note_on_c, 0, 76, 45
2, 44062, Note_on_c, 0, 76, 0
2, 44064, Note_on_c, 0, 74, 45
2, 44096, Note_on_c, 0, 74, 0
2, 44160, Note_on_c, 0, 73, 45
2, 44192, Note_on_c, 0, 73, 0
2, 44256, Note_on_c, 0, 71, 45
2, 44288, Note_on_c, 0, 71, 0
2, 44352, Note_on_c, 0, 69, 45
2, 44384, Note_on_c, 0, 69, 0
2, 44448, Note_on_c, 0, 68, 45
2, 44480, Note_on_c, 0, 68, 0
2, 44544, Note_on_c, 0, 68, 45
2, 44928, Note_on_c, 0, 68, 0
2, 44928, Note_on_c, 0, 69, 45
2, 45088, Note_on_c, 0, 69, 0
2, 45312, Control_c, 0, 91, 84
2, 45312, Control_c, 0, 93, 84
2, 45312, Note_on_c, 0, 81, 60
2, 45648, Note_on_c, 0, 81, 0
2, 45696, Note_on_c, 0, 79, 60
2, 45742, Note_on_c, 0, 79, 0
2, 45744, Note_on_c, 0, 78, 60
2, 45886, Note_on_c, 0, 78, 0
2, 45888, Note_on_c, 0, 76, 60
2, 45934, Note_on_c, 0, 76, 0
2, 45936, Note_on_c, 0, 74, 60
2, 46078, Note_on_c, 0, 74, 0
2, 46080, Note_on_c, 0, 79, 60
2, 46368, Note_on_c, 0, 79, 0
2, 46368, Note_on_c, 0, 76, 60
2, 46464, Note_on_c, 0, 76, 0
2, 46464, Note_on_c, 0, 73, 60
2, 46624, Note_on_c, 0, 73, 0
2, 46848, Note_on_c, 0, 79, 60
2, 47184, Note_on_c, 0, 79, 0
2, 47232, Note_on_c, 0, 78, 60
2, 47278, Note_on_c, 0, 78, 0
2, 47280, Note_on_c, 0, 76, 60
2, 47422, Note_on_c, 0, 76, 0
2, 47424, Note_on_c, 0, 74, 60
2, 47470, Note_on_c, 0, 74, 0
2, 47472, Note_on_c, 0, 73, 60
2, 47614, Note_on_c, 0, 73, 0
2, 47616, Note_on_c, 0, 81, 60
2, 47904, Note_on_c, 0, 81, 0
2, 47904, Note_on_c, 0, 78, 60
2, 48000, Note_on_c, 0, 78, 0
2, 48000, Note_on_c, 0, 74, 60
2, 48160, Note_on_c, 0, 74, 0
2, 48384, Note_on_c, 0, 83, 60
2, 48478, Note_on_c, 0, 83, 0
2, 48480, Note_on_c, 0, 85, 60
2, 48504, Note_on_c, 0, 85, 0
2, 48504, Note_on_c, 0, 83, 60
2, 48526, Note_on_c, 0, 83, 0
2, 48528, Note_on_c, 0, 81, 60
2, 48574, Note_on_c, 0, 81, 0
2, 48576, Note_on_c, 0, 83, 60
2, 48670, Note_on_c, 0, 83, 0
2, 48672, Note_on_c, 0, 85, 60
2, 48704, Note_on_c, 0, 85, 0
2, 48768, Note_on_c, 0, 86, 60
2, 48928, Note_on_c, 0, 86, 0
2, 49056, Note_on_c, 0, 81, 60
2, 49150, Note_on_c, 0, 81, 0
2, 49152, Note_on_c, 0, 83, 60
2, 49246, Note_on_c, 0, 83, 0
2, 49248, Note_on_c, 0, 85, 60
2, 49272, Note_on_c, 0, 85, 0
2, 49272, Note_on_c, 0, 83, 60
2, 49294, Note_on_c, 0, 83, 0
2, 49296, Note_on_c, 0, 81, 60
2, 49342, Note_on_c, 0, 81, 0
2, 49344, Note_on_c, 0, 83, 60
2, 49438, Note_on_c, 0, 83, 0
2, 49440, Note_on_c, 0, 85, 60
2, 49472, Note_on_c, 0, 85, 0
2, 49536, Note_on_c, 0, 86, 60
2, 49696, Note_on_c, 0, 86, 0
2, 49824, Note_on_c, 0, 81, 60
2, 49918, Note_on_c, 0, 81, 0
2, 49920, Note_on_c, 0, 81, 60
2, 50016, Note_on_c, 0, 81, 0
2, 50016, Note_on_c, 0, 80, 60
2, 50112, Note_on_c, 0, 80, 0
2, 50112, Note_on_c, 0, 79, 60
2, 50208, Note_on_c, 0, 79, 0
2, 50208, Note_on_c, 0, 76, 60
2, 50304, Note_on_c, 0, 76, 0
2, 50304, Note_on_c, 0, 79, 60
2, 50400, Note_on_c, 0, 79, 0
2, 50400, Note_on_c, 0, 77, 60
2, 50496, Note_on_c, 0, 77, 0
2, 50496, Note_on_c, 0, 78, 60
2, 50592, Note_on_c, 0, 78, 0
2, 50592, Note_on_c, 0, 74, 60
2, 50688, Note_on_c, 0, 74, 0
2, 50688, Note_on_c, 0, 78, 60
2, 50736, Note_on_c, 0, 78, 0
2, 50736, Note_on_c, 0, 76, 60
2, 50784, Note_on_c, 0, 76, 0
2, 50784, Note_on_c, 0, 74, 60
2, 50832, Note_on_c, 0, 74, 0
2, 50832, Note_on_c, 0, 73, 60
2, 50880, Note_on_c, 0, 73, 0
2, 50880, Note_on_c, 0, 71, 60
2, 50928, Note_on_c, 0, 71, 0
2, 50928, Note_on_c, 0, 69, 60
2, 50976, Note_on_c, 0, 69, 0
2, 50976, Note_on_c, 0, 68, 60
2, 51024, Note_on_c, 0, 68, 0
2, 51024, Note_on_c, 0, 69, 60
2, 51072, Note_on_c, 0, 69, 0
2, 51072, Note_on_c, 0, 71, 60
2, 51120, Note_on_c, 0, 71, 0
2, 51120, Note_on_c, 0, 73, 60
2, 51168, Note_on_c, 0, 73, 0
2, 51168, Note_on_c, 0, 74, 60
2, 51216, Note_on_c, 0, 74, 0
2, 51216, Note_on_c, 0, 76, 60
2, 51264, Note_on_c, 0, 76, 0
2, 51264, Note_on_c, 0, 77, 60
2, 51312, Note_on_c, 0, 77, 0
2, 51312, Note_on_c, 0, 78, 60
2, 51360, Note_on_c, 0, 78, 0
2, 51360, Note_on_c, 0, 79, 60
2, 51408, Note_on_c, 0, 79, 0
2, 51408, Note_on_c, 0, 80, 60
2, 51456, Note_on_c, 0, 80, 0
2, 51456, Note_on_c, 0, 81, 60
2, 51792, Note_on_c, 0, 81, 0
2, 51840, Note_on_c, 0, 79, 60
2, 51888, Note_on_c, 0, 79, 0
2, 51888, Note_on_c, 0, 78, 60
2, 52030, Note_on_c, 0, 78, 0
2, 52032, Note_on_c, 0, 76, 60
2, 52080, Note_on_c, 0, 76, 0
2, 52080, Note_on_c, 0, 74, 60
2, 52222, Note_on_c, 0, 74, 0
2, 52224, Note_on_c, 0, 79, 60
2, 52512, Note_on_c, 0, 79, 0
2, 52512, Note_on_c, 0, 76, 60
2, 52608, Note_on_c, 0, 76, 0
2, 52608, Note_on_c, 0, 73, 60
2, 52768, Note_on_c, 0, 73, 0
2, 52992, Note_on_c, 0, 79, 60
2, 53328, Note_on_c, 0, 79, 0
2, 53376, Note_on_c, 0, 78, 60
2, 53424, Note_on_c, 0, 78, 0
2, 53424, Note_on_c, 0, 76, 60
2, 53566, Note_on_c, 0, 76, 0
2, 53568, Note_on_c, 0, 74, 60
2, 53616, Note_on_c, 0, 74, 0
2, 53616, Note_on_c, 0, 73, 60
2, 53758, Note_on_c, 0, 73, 0
2, 53760, Note_on_c, 0, 81, 60
2, 54048, Note_on_c, 0, 81, 0
2, 54048, Note_on_c, 0, 78, 60
2, 54144, Note_on_c, 0, 78, 0
2, 54144, Note_on_c, 0, 74, 60
2, 54304, Note_on_c, 0, 74, 0
2, 54528, Note_on_c, 0, 83, 60
2, 54560, Note_on_c, 0, 83, 0
2, 54624, Note_on_c, 0, 85, 60
2, 54648, Note_on_c, 0, 85, 0
2, 54648, Note_on_c, 0, 83, 60
2, 54670, Note_on_c, 0, 83, 0
2, 54672, Note_on_c, 0, 81, 60
2, 54718, Note_on_c, 0, 81, 0
2, 54720, Note_on_c, 0, 83, 60
2, 54814, Note_on_c, 0, 83, 0
2, 54816, Note_on_c, 0, 85, 60
2, 54910, Note_on_c, 0, 85, 0
2, 54912, Note_on_c, 0, 86, 60
2, 55072, Note_on_c, 0, 86, 0
2, 55200, Note_on_c, 0, 81, 60
2, 55294, Note_on_c, 0, 81, 0
2, 55296, Note_on_c, 0, 83, 60
2, 55328, Note_on_c, 0, 83, 0
2, 55392, Note_on_c, 0, 85, 60
2, 55416, Note_on_c, 0, 85, 0
2, 55416, Note_on_c, 0, 83, 60
2, 55438, Note_on_c, 0, 83, 0
2, 55440, Note_on_c, 0, 81, 60
2, 55486, Note_on_c, 0, 81, 0
2, 55488, Note_on_c, 0, 83, 60
2, 55582, Note_on_c, 0, 83, 0
2, 55584, Note_on_c, 0, 85, 60
2, 55616, Note_on_c, 0, 85, 0
2, 55680, Note_on_c, 0, 86, 60
2, 55774, Note_on_c, 0, 86, 0
2, 55776, Note_on_c, 0, 81, 60
2, 55872, Note_on_c, 0, 81, 0
2, 55872, Note_on_c, 0, 79, 60
2, 55968, Note_on_c, 0, 79, 0
2, 55968, Note_on_c, 0, 78, 60
2, 56062, Note_on_c, 0, 78, 0
2, 56064, Note_on_c, 0, 78, 60
2, 56160, Note_on_c, 0, 78, 0
2, 56160, Note_on_c, 0, 76, 60
2, 56256, Note_on_c, 0, 76, 0
2, 56256, Note_on_c, 0, 79, 60
2, 56352, Note_on_c, 0, 79, 0
2, 56352, Note_on_c, 0, 83, 60
2, 56448, Note_on_c, 0, 83, 0
2, 56448, Note_on_c, 0, 74, 60
2, 56640, Note_on_c, 0, 74, 0
2, 56640, Note_on_c, 0, 73, 60
2, 56640, Note_on_c, 0, 78, 60
2, 56736, Note_on_c, 0, 78, 0
2, 56736, Note_on_c, 0, 76, 60
2, 56800, Note_on_c, 0, 73, 0
2, 56832, Note_on_c, 0, 76, 0
2, 56832, Note_on_c, 0, 74, 60
2, 56992, Note_on_c, 0, 74, 0
2, 57120, Note_on_c, 0, 69, 60
2, 57216, Note_on_c, 0, 69, 0
2, 57216, Note_on_c, 0, 74, 60
2, 57312, Note_on_c, 0, 74, 0
2, 57312, Note_on_c, 0, 73, 60
2, 57408, Note_on_c, 0, 73, 0
2, 57408, Note_on_c, 0, 71, 60
2, 57504, Note_on_c, 0, 71, 0
2, 57504, Note_on_c, 0, 69, 60
2, 57598, Note_on_c, 0, 69, 0
2, 57600, Note_on_c, 0, 67, 60
2, 57600, Note_on_c, 0, 69, 60
2, 57694, Note_on_c, 0, 67, 0
2, 57694, Note_on_c, 0, 69, 0
2, 57696, Note_on_c, 0, 67, 60
2, 57696, Note_on_c, 0, 69, 60
2, 57790, Note_on_c, 0, 67, 0
2, 57790, Note_on_c, 0, 69, 0
2, 57888, Note_on_c, 0, 67, 60
2, 57888, Note_on_c, 0, 69, 60
2, 57982, Note_on_c, 0, 67, 0
2, 57982, Note_on_c, 0, 69, 0
2, 57984, Note_on_c, 0, 67, 60
2, 57984, Note_on_c, 0, 69, 60
2, 58078, Note_on_c, 0, 67, 0
2, 58078, Note_on_c, 0, 69, 0
2, 58080, Note_on_c, 0, 67, 60
2, 58080, Note_on_c, 0, 69, 60
2, 58174, Note_on_c, 0, 67, 0
2, 58174, Note_on_c, 0, 69, 0
2, 58272, Note_on_c, 0, 67, 60
2, 58272, Note_on_c, 0, 69, 60
2, 58366, Note_on_c, 0, 67, 0
2, 58366, Note_on_c, 0, 69, 0
2, 58368, Note_on_c, 0, 66, 60
2, 58368, Note_on_c, 0, 71, 60
2, 58462, Note_on_c, 0, 71, 0
2, 58464, Note_on_c, 0, 69, 60
2, 58528, Note_on_c, 0, 66, 0
2, 58558, Note_on_c, 0, 69, 0
2, 58656, Note_on_c, 0, 69, 60
2, 58750, Note_on_c, 0, 69, 0
2, 58752, Note_on_c, 0, 74, 60
2, 58846, Note_on_c, 0, 74, 0
2, 58848, Note_on_c, 0, 73, 60
2, 58942, Note_on_c, 0, 73, 0
2, 58944, Note_on_c, 0, 71, 60
2, 59038, Note_on_c, 0, 71, 0
2, 59040, Note_on_c, 0, 69, 60
2, 59134, Note_on_c, 0, 69, 0
2, 59136, Note_on_c, 0, 67, 60
2, 59136, Note_on_c, 0, 69, 60
2, 59230, Note_on_c, 0, 67, 0
2, 59230, Note_on_c, 0, 69, 0
2, 59232, Note_on_c, 0, 67, 60
2, 59232, Note_on_c, 0, 69, 60
2, 59326, Note_on_c, 0, 67, 0
2, 59326, Note_on_c, 0, 69, 0
2, 59424, Note_on_c, 0, 67, 60
2, 59424, Note_on_c, 0, 69, 60
2, 59518, Note_on_c, 0, 67, 0
2, 59518, Note_on_c, 0, 69, 0
2, 59520, Note_on_c, 0, 67, 60
2, 59520, Note_on_c, 0, 69, 60
2, 59614, Note_on_c, 0, 67, 0
2, 59614, Note_on_c, 0, 69, 0
2, 59616, Note_on_c, 0, 67, 60
2, 59616, Note_on_c, 0, 69, 60
2, 59710, Note_on_c, 0, 67, 0
2, 59710, Note_on_c, 0, 69, 0
2, 59808, Note_on_c, 0, 67, 60
2, 59808, Note_on_c, 0, 69, 60
2, 59902, Note_on_c, 0, 67, 0
2, 59902, Note_on_c, 0, 69, 0
2, 59904, Note_on_c, 0, 66, 60
2, 59904, Note_on_c, 0, 71, 60
2, 59998, Note_on_c, 0, 71, 0
2, 60000, Note_on_c, 0, 69, 60
2, 60064, Note_on_c, 0, 66, 0
2, 60094, Note_on_c, 0, 69, 0
2, 60192, Note_on_c, 0, 69, 60
2, 60288, Note_on_c, 0, 69, 0
2, 60288, Note_on_c, 0, 71, 60
2, 60384, Note_on_c, 0, 71, 0
2, 60384, Note_on_c, 0, 73, 60
2, 60480, Note_on_c, 0, 73, 0
2, 60480, Note_on_c, 0, 74, 60
2, 60576, Note_on_c, 0, 74, 0
2, 60576, Note_on_c, 0, 76, 60
2, 60672, Note_on_c, 0, 76, 0
2, 60672, Note_on_c, 0, 78, 60
2, 61008, Note_on_c, 0, 78, 0
2, 61056, Note_on_c, 0, 76, 60
2, 61104, Note_on_c, 0, 76, 0
2, 61104, Note_on_c, 0, 74, 60
2, 61246, Note_on_c, 0, 74, 0
2, 61248, Note_on_c, 0, 73, 60
2, 61296, Note_on_c, 0, 73, 0
2, 61296, Note_on_c, 0, 71, 60
2, 61438, Note_on_c, 0, 71, 0
2, 61440, Note_on_c, 0, 79, 60
2, 61696, Note_on_c, 0, 79, 0
2, 61728, Note_on_c, 0, 70, 60
2, 61822, Note_on_c, 0, 70, 0
2, 61824, Note_on_c, 0, 71, 60
2, 61984, Note_on_c, 0, 71, 0
2, 62208, Note_on_c, 0, 76, 60
2, 62544, Note_on_c, 0, 76, 0
2, 62592, Note_on_c, 0, 74, 60
2, 62640, Note_on_c, 0, 74, 0
2, 62640, Note_on_c, 0, 73, 60
2, 62782, Note_on_c, 0, 73, 0
2, 62784, Note_on_c, 0, 71, 60
2, 62832, Note_on_c, 0, 71, 0
2, 62832, Note_on_c, 0, 69, 60
2, 62974, Note_on_c, 0, 69, 0
2, 62976, Note_on_c, 0, 77, 60
2, 63264, Note_on_c, 0, 77, 0
2, 63264, Note_on_c, 0, 68, 60
2, 63360, Note_on_c, 0, 68, 0
2, 63360, Note_on_c, 0, 69, 60
2, 63520, Note_on_c, 0, 69, 0
2, 63744, Note_on_c, 0, 76, 60
2, 64000, Note_on_c, 0, 76, 0
2, 64032, Note_on_c, 0, 75, 60
2, 64126, Note_on_c, 0, 75, 0
2, 64128, Note_on_c, 0, 81, 60
2, 64288, Note_on_c, 0, 81, 0
2, 64512, Note_on_c, 0, 80, 60
2, 64800, Note_on_c, 0, 80, 0
2, 64800, Note_on_c, 0, 83, 60
2, 64896, Note_on_c, 0, 83, 0
2, 64896, Note_on_c, 0, 74, 60
2, 65056, Note_on_c, 0, 74, 0
2, 65184, Note_on_c, 0, 71, 60
2, 65278, Note_on_c, 0, 71, 0
2, 65280, Note_on_c, 0, 74, 60
2, 65376, Note_on_c, 0, 74, 0
2, 65376, Note_on_c, 0, 72, 60
2, 65470, Note_on_c, 0, 72, 0
2, 65568, Note_on_c, 0, 72, 60
2, 65664, Note_on_c, 0, 72, 0
2, 65664, Note_on_c, 0, 74, 60
2, 65760, Note_on_c, 0, 74, 0
2, 65760, Note_on_c, 0, 72, 60
2, 65856, Note_on_c, 0, 72, 0
2, 65856, Note_on_c, 0, 71, 60
2, 65952, Note_on_c, 0, 71, 0
2, 65952, Note_on_c, 0, 69, 60
2, 66048, Note_on_c, 0, 69, 0
2, 66048, Note_on_c, 0, 68, 60
2, 66144, Note_on_c, 0, 68, 0
2, 66144, Note_on_c, 0, 76, 60
2, 66238, Note_on_c, 0, 76, 0
2, 66240, Note_on_c, 0, 76, 60
2, 66334, Note_on_c, 0, 76, 0
2, 66336, Note_on_c, 0, 76, 60
2, 66430, Note_on_c, 0, 76, 0
2, 66432, Note_on_c, 0, 77, 60
2, 66528, Note_on_c, 0, 77, 0
2, 66528, Note_on_c, 0, 76, 60
2, 66624, Note_on_c, 0, 76, 0
2, 66624, Note_on_c, 0, 75, 60
2, 66720, Note_on_c, 0, 75, 0
2, 66720, Note_on_c, 0, 74, 60
2, 66814, Note_on_c, 0, 74, 0
2, 66816, Note_on_c, 0, 74, 60
2, 66912, Note_on_c, 0, 74, 0
2, 66912, Note_on_c, 0, 72, 60
2, 67006, Note_on_c, 0, 72, 0
2, 67104, Note_on_c, 0, 72, 60
2, 67128, Note_on_c, 0, 74, 60
2, 67150, Note_on_c, 0, 74, 0
2, 67152, Note_on_c, 0, 76, 60
2, 67174, Note_on_c, 0, 76, 0
2, 67176, Note_on_c, 0, 74, 60
2, 67198, Note_on_c, 0, 72, 0
2, 67198, Note_on_c, 0, 74, 0
2, 67200, Note_on_c, 0, 74, 60
2, 67296, Note_on_c, 0, 74, 0
2, 67296, Note_on_c, 0, 72, 60
2, 67392, Note_on_c, 0, 72, 0
2, 67392, Note_on_c, 0, 71, 60
2, 67488, Note_on_c, 0, 71, 0
2, 67488, Note_on_c, 0, 69, 60
2, 67582, Note_on_c, 0, 69, 0
2, 67584, Note_on_c, 0, 68, 60
2, 67680, Note_on_c, 0, 68, 0
2, 67680, Note_on_c, 0, 76, 60
2, 67776, Note_on_c, 0, 76, 0
2, 67776, Note_on_c, 0, 76, 60
2, 67872, Note_on_c, 0, 76, 0
2, 67872, Note_on_c, 0, 76, 60
2, 67966, Note_on_c, 0, 76, 0
2, 67968, Note_on_c, 0, 77, 60
2, 68064, Note_on_c, 0, 77, 0
2, 68064, Note_on_c, 0, 76, 60
2, 68160, Note_on_c, 0, 76, 0
2, 68160, Note_on_c, 0, 75, 60
2, 68256, Note_on_c, 0, 75, 0
2, 68256, Note_on_c, 0, 74, 60
2, 68350, Note_on_c, 0, 74, 0
2, 68352, Note_on_c, 0, 74, 60
2, 68448, Note_on_c, 0, 74, 0
2, 68448, Note_on_c, 0, 72, 60
2, 68542, Note_on_c, 0, 72, 0
2, 68640, Note_on_c, 0, 72, 60
2, 68664, Note_on_c, 0, 74, 60
2, 68686, Note_on_c, 0, 74, 0
2, 68688, Note_on_c, 0, 76, 60
2, 68710, Note_on_c, 0, 76, 0
2, 68712, Note_on_c, 0, 74, 60
2, 68734, Note_on_c, 0, 72, 0
2, 68734, Note_on_c, 0, 74, 0
2, 68736, Note_on_c, 0, 74, 60
2, 68832, Note_on_c, 0, 74, 0
2, 68832, Note_on_c, 0, 72, 60
2, 68928, Note_on_c, 0, 72, 0
2, 68928, Note_on_c, 0, 71, 60
2, 69024, Note_on_c, 0, 71, 0
2, 69024, Note_on_c, 0, 69, 60
2, 69118, Note_on_c, 0, 69, 0
2, 69120, Note_on_c, 0, 76, 60
2, 69280, Note_on_c, 0, 76, 0
2, 69408, Note_on_c, 0, 71, 60
2, 69432, Note_on_c, 0, 74, 60
2, 69454, Note_on_c, 0, 74, 0
2, 69456, Note_on_c, 0, 76, 60
2, 69478, Note_on_c, 0, 76, 0
2, 69480, Note_on_c, 0, 74, 60
2, 69502, Note_on_c, 0, 71, 0
2, 69502, Note_on_c, 0, 74, 0
2, 69504, Note_on_c, 0, 72, 60
2, 69664, Note_on_c, 0, 72, 0
2, 69792, Note_on_c, 0, 69, 60
2, 69888, Note_on_c, 0, 69, 0
2, 69888, Note_on_c, 0, 76, 60
2, 70048, Note_on_c, 0, 76, 0
2, 70176, Note_on_c, 0, 71, 60
2, 70200, Note_on_c, 0, 74, 60
2, 70222, Note_on_c, 0, 74, 0
2, 70224, Note_on_c, 0, 76, 60
2, 70246, Note_on_c, 0, 76, 0
2, 70248, Note_on_c, 0, 74, 60
2, 70270, Note_on_c, 0, 71, 0
2, 70270, Note_on_c, 0, 74, 0
2, 70272, Note_on_c, 0, 72, 60
2, 70432, Note_on_c, 0, 72, 0
2, 70560, Note_on_c, 0, 69, 60
2, 70656, Note_on_c, 0, 69, 0
2, 70656, Note_on_c, 0, 76, 60
2, 70750, Note_on_c, 0, 76, 0
2, 70752, Note_on_c, 0, 64, 60
2, 70846, Note_on_c, 0, 64, 0
2, 70848, Note_on_c, 0, 64, 60
2, 70942, Note_on_c, 0, 64, 0
2, 70944, Note_on_c, 0, 64, 60
2, 71038, Note_on_c, 0, 64, 0
2, 71040, Note_on_c, 0, 64, 60
2, 71136, Note_on_c, 0, 64, 0
2, 71136, Note_on_c, 0, 65, 60
2, 71232, Note_on_c, 0, 65, 0
2, 71232, Note_on_c, 0, 66, 60
2, 71328, Note_on_c, 0, 66, 0
2, 71328, Note_on_c, 0, 67, 60
2, 71422, Note_on_c, 0, 67, 0
2, 71424, Note_on_c, 0, 68, 60
2, 71520, Note_on_c, 0, 68, 0
2, 71520, Note_on_c, 0, 69, 60
2, 71616, Note_on_c, 0, 69, 0
2, 71616, Note_on_c, 0, 70, 60
2, 71712, Note_on_c, 0, 70, 0
2, 71712, Note_on_c, 0, 71, 60
2, 71808, Note_on_c, 0, 71, 0
2, 71808, Note_on_c, 0, 72, 60
2, 71904, Note_on_c, 0, 72, 0
2, 71904, Note_on_c, 0, 73, 60
2, 72000, Note_on_c, 0, 73, 0
2, 72000, Note_on_c, 0, 74, 60
2, 72096, Note_on_c, 0, 74, 0
2, 72096, Note_on_c, 0, 75, 60
2, 72192, Note_on_c, 0, 75, 0
2, 72192, Note_on_c, 0, 76, 60
2, 72528, Note_on_c, 0, 76, 0
2, 72576, Note_on_c, 0, 74, 60
2, 72624, Note_on_c, 0, 74, 0
2, 72624, Note_on_c, 0, 73, 60
2, 72766, Note_on_c, 0, 73, 0
2, 72768, Note_on_c, 0, 71, 60
2, 72816, Note_on_c, 0, 71, 0
2, 72816, Note_on_c, 0, 69, 60
2, 72958, Note_on_c, 0, 69, 0
2, 72960, Note_on_c, 0, 74, 60
2, 73248, Note_on_c, 0, 74, 0
2, 73248, Note_on_c, 0, 71, 60
2, 73344, Note_on_c, 0, 71, 0
2, 73344, Note_on_c, 0, 68, 60
2, 73504, Note_on_c, 0, 68, 0
2, 73728, Note_on_c, 0, 86, 60
2, 74064, Note_on_c, 0, 86, 0
2, 74112, Note_on_c, 0, 85, 60
2, 74160, Note_on_c, 0, 85, 0
2, 74160, Note_on_c, 0, 83, 60
2, 74302, Note_on_c, 0, 83, 0
2, 74304, Note_on_c, 0, 81, 60
2, 74352, Note_on_c, 0, 81, 0
2, 74352, Note_on_c, 0, 80, 60
2, 74494, Note_on_c, 0, 80, 0
2, 74496, Note_on_c, 0, 88, 60
2, 74784, Note_on_c, 0, 88, 0
2, 74784, Note_on_c, 0, 85, 60
2, 74880, Note_on_c, 0, 85, 0
2, 74880, Note_on_c, 0, 82, 60
2, 75040, Note_on_c, 0, 82, 0
2, 75264, Note_on_c, 0, 83, 60
2, 75296, Note_on_c, 0, 83, 0
2, 75360, Note_on_c, 0, 85, 60
2, 75384, Note_on_c, 0, 85, 0
2, 75384, Note_on_c, 0, 83, 60
2, 75406, Note_on_c, 0, 83, 0
2, 75408, Note_on_c, 0, 82, 60
2, 75454, Note_on_c, 0, 82, 0
2, 75456, Note_on_c, 0, 83, 60
2, 75550, Note_on_c, 0, 83, 0
2, 75552, Note_on_c, 0, 85, 60
2, 75584, Note_on_c, 0, 85, 0
2, 75648, Note_on_c, 0, 86, 60
2, 75936, Note_on_c, 0, 86, 0
2, 75936, Note_on_c, 0, 80, 60
2, 76032, Note_on_c, 0, 80, 0
2, 76032, Note_on_c, 0, 81, 60
2, 76064, Note_on_c, 0, 81, 0
2, 76128, Note_on_c, 0, 83, 60
2, 76152, Note_on_c, 0, 83, 0
2, 76152, Note_on_c, 0, 81, 60
2, 76174, Note_on_c, 0, 81, 0
2, 76176, Note_on_c, 0, 80, 60
2, 76222, Note_on_c, 0, 80, 0
2, 76224, Note_on_c, 0, 81, 60
2, 76318, Note_on_c, 0, 81, 0
2, 76320, Note_on_c, 0, 83, 60
2, 76352, Note_on_c, 0, 83, 0
2, 76416, Note_on_c, 0, 84, 60
2, 76704, Note_on_c, 0, 84, 0
2, 76704, Note_on_c, 0, 75, 60
2, 76800, Note_on_c, 0, 75, 0
2, 76800, Note_on_c, 0, 76, 60
2, 76896, Note_on_c, 0, 76, 0
2, 76896, Note_on_c, 0, 81, 60
2, 76990, Note_on_c, 0, 81, 0
2, 77088, Note_on_c, 0, 73, 60
2, 77184, Note_on_c, 0, 73, 0
2, 77184, Note_on_c, 0, 76, 60
2, 77280, Note_on_c, 0, 76, 0
2, 77280, Note_on_c, 0, 74, 60
2, 77376, Note_on_c, 0, 74, 0
2, 77376, Note_on_c, 0, 71, 60
2, 77472, Note_on_c, 0, 71, 0
2, 77472, Note_on_c, 0, 68, 60
2, 77566, Note_on_c, 0, 68, 0
2, 77568, Note_on_c, 0, 69, 92
2, 77616, Note_on_c, 0, 69, 0
2, 77616, Note_on_c, 0, 76, 92
2, 77664, Note_on_c, 0, 76, 0
2, 77664, Note_on_c, 0, 73, 92
2, 77712, Note_on_c, 0, 73, 0
2, 77712, Note_on_c, 0, 76, 92
2, 77760, Note_on_c, 0, 76, 0
2, 77760, Note_on_c, 0, 69, 92
2, 77808, Note_on_c, 0, 69, 0
2, 77808, Note_on_c, 0, 76, 92
2, 77856, Note_on_c, 0, 76, 0
2, 77856, Note_on_c, 0, 73, 92
2, 77904, Note_on_c, 0, 73, 0
2, 77904, Note_on_c, 0, 76, 92
2, 77952, Note_on_c, 0, 76, 0
2, 77952, Note_on_c, 0, 69, 92
2, 78000, Note_on_c, 0, 69, 0
2, 78000, Note_on_c, 0, 76, 92
2, 78048, Note_on_c, 0, 76, 0
2, 78048, Note_on_c, 0, 73, 92
2, 78096, Note_on_c, 0, 73, 0
2, 78096, Note_on_c, 0, 76, 92
2, 78144, Note_on_c, 0, 76, 0
2, 78144, Note_on_c, 0, 69, 92
2, 78192, Note_on_c, 0, 69, 0
2, 78192, Note_on_c, 0, 76, 92
2, 78240, Note_on_c, 0, 76, 0
2, 78240, Note_on_c, 0, 73, 92
2, 78288, Note_on_c, 0, 73, 0
2, 78288, Note_on_c, 0, 76, 92
2, 78334, Note_on_c, 0, 76, 0
2, 78336, Note_on_c, 0, 71, 92
2, 78384, Note_on_c, 0, 71, 0
2, 78384, Note_on_c, 0, 76, 92
2, 78432, Note_on_c, 0, 76, 0
2, 78432, Note_on_c, 0, 74, 92
2, 78480, Note_on_c, 0, 74, 0
2, 78480, Note_on_c, 0, 76, 92
2, 78528, Note_on_c, 0, 76, 0
2, 78528, Note_on_c, 0, 71, 92
2, 78576, Note_on_c, 0, 71, 0
2, 78576, Note_on_c, 0, 76, 92
2, 78624, Note_on_c, 0, 76, 0
2, 78624, Note_on_c, 0, 74, 92
2, 78672, Note_on_c, 0, 74, 0
2, 78672, Note_on_c, 0, 76, 92
2, 78720, Note_on_c, 0, 76, 0
2, 78720, Note_on_c, 0, 71, 92
2, 78768, Note_on_c, 0, 71, 0
2, 78768, Note_on_c, 0, 76, 92
2, 78816, Note_on_c, 0, 76, 0
2, 78816, Note_on_c, 0, 74, 92
2, 78864, Note_on_c, 0, 74, 0
2, 78864, Note_on_c, 0, 76, 92
2, 78912, Note_on_c, 0, 76, 0
2, 78912, Note_on_c, 0, 71, 92
2, 78960, Note_on_c, 0, 71, 0
2, 78960, Note_on_c, 0, 76, 92
2, 79008, Note_on_c, 0, 76, 0
2, 79008, Note_on_c, 0, 74, 92
2, 79056, Note_on_c, 0, 74, 0
2, 79056, Note_on_c, 0, 76, 92
2, 79102, Note_on_c, 0, 76, 0
2, 79104, Note_on_c, 0, 69, 92
2, 79150, Note_on_c, 0, 69, 0
2, 79152, Note_on_c, 0, 76, 92
2, 79200, Note_on_c, 0, 76, 0
2, 79200, Note_on_c, 0, 73, 92
2, 79248, Note_on_c, 0, 73, 0
2, 79248, Note_on_c, 0, 76, 92
2, 79296, Note_on_c, 0, 76, 0
2, 79296, Note_on_c, 0, 69, 92
2, 79344, Note_on_c, 0, 69, 0
2, 79344, Note_on_c, 0, 76, 92
2, 79392, Note_on_c, 0, 76, 0
2, 79392, Note_on_c, 0, 73, 92
2, 79440, Note_on_c, 0, 73, 0
2, 79440, Note_on_c, 0, 76, 92
2, 79488, Note_on_c, 0, 76, 0
2, 79488, Note_on_c, 0, 69, 92
2, 79536, Note_on_c, 0, 69, 0
2, 79536, Note_on_c, 0, 76, 92
2, 79584, Note_on_c, 0, 76, 0
2, 79584, Note_on_c, 0, 73, 92
2, 79632, Note_on_c, 0, 73, 0
2, 79632, Note_on_c, 0, 76, 92
2, 79680, Note_on_c, 0, 76, 0
2, 79680, Note_on_c, 0, 69, 92
2, 79728, Note_on_c, 0, 69, 0
2, 79728, Note_on_c, 0, 76, 92
2, 79776, Note_on_c, 0, 76, 0
2, 79776, Note_on_c, 0, 73, 92
2, 79824, Note_on_c, 0, 73, 0
2, 79824, Note_on_c, 0, 76, 92
2, 79872, Note_on_c, 0, 76, 0
2, 79872, Note_on_c, 0, 71, 92
2, 79920, Note_on_c, 0, 71, 0
2, 79920, Note_on_c, 0, 76, 92
2, 79968, Note_on_c, 0, 76, 0
2, 79968, Note_on_c, 0, 74, 92
2, 80016, Note_on_c, 0, 74, 0
2, 80016, Note_on_c, 0, 76, 92
2, 80064, Note_on_c, 0, 76, 0
2, 80064, Note_on_c, 0, 71, 92
2, 80112, Note_on_c, 0, 71, 0
2, 80112, Note_on_c, 0, 76, 92
2, 80160, Note_on_c, 0, 76, 0
2, 80160, Note_on_c, 0, 74, 92
2, 80208, Note_on_c, 0, 74, 0
2, 80208, Note_on_c, 0, 76, 92
2, 80256, Note_on_c, 0, 76, 0
2, 80256, Note_on_c, 0, 71, 92
2, 80304, Note_on_c, 0, 71, 0
2, 80304, Note_on_c, 0, 76, 92
2, 80352, Note_on_c, 0, 76, 0
2, 80352, Note_on_c, 0, 74, 92
2, 80400, Note_on_c, 0, 74, 0
2, 80400, Note_on_c, 0, 76, 92
2, 80448, Note_on_c, 0, 76, 0
2, 80448, Note_on_c, 0, 71, 92
2, 80496, Note_on_c, 0, 71, 0
2, 80496, Note_on_c, 0, 76, 92
2, 80544, Note_on_c, 0, 76, 0
2, 80544, Note_on_c, 0, 74, 92
2, 80592, Note_on_c, 0, 74, 0
2, 80592, Note_on_c, 0, 76, 92
2, 80638, Note_on_c, 0, 76, 0
2, 80640, Note_on_c, 0, 73, 92
2, 80688, Note_on_c, 0, 73, 0
2, 80688, Note_on_c, 0, 69, 92
2, 80736, Note_on_c, 0, 69, 0
2, 80736, Note_on_c, 0, 71, 92
2, 80784, Note_on_c, 0, 71, 0
2, 80784, Note_on_c, 0, 73, 92
2, 80832, Note_on_c, 0, 73, 0
2, 80832, Note_on_c, 0, 74, 92
2, 80880, Note_on_c, 0, 74, 0
2, 80880, Note_on_c, 0, 76, 92
2, 80928, Note_on_c, 0, 76, 0
2, 80928, Note_on_c, 0, 78, 92
2, 80976, Note_on_c, 0, 78, 0
2, 80976, Note_on_c, 0, 80, 92
2, 81024, Note_on_c, 0, 80, 0
2, 81024, Note_on_c, 0, 81, 92
2, 81072, Note_on_c, 0, 81, 0
2, 81072, Note_on_c, 0, 83, 92
2, 81120, Note_on_c, 0, 83, 0
2, 81120, Note_on_c, 0, 85, 92
2, 81168, Note_on_c, 0, 85, 0
2, 81168, Note_on_c, 0, 86, 92
2, 81216, Note_on_c, 0, 86, 0
2, 81216, Note_on_c, 0, 88, 92
2, 81310, Note_on_c, 0, 88, 0
2, 81456, Note_on_c, 0, 62, 92
2, 81504, Note_on_c, 0, 62, 0
2, 81504, Note_on_c, 0, 64, 92
2, 81552, Note_on_c, 0, 64, 0
2, 81552, Note_on_c, 0, 66, 92
2, 81600, Note_on_c, 0, 66, 0
2, 81600, Note_on_c, 0, 67, 92
2, 81648, Note_on_c, 0, 67, 0
2, 81648, Note_on_c, 0, 69, 92
2, 81696, Note_on_c, 0, 69, 0
2, 81696, Note_on_c, 0, 71, 92
2, 81744, Note_on_c, 0, 71, 0
2, 81744, Note_on_c, 0, 73, 92
2, 81792, Note_on_c, 0, 73, 0
2, 81792, Note_on_c, 0, 74, 92
2, 81840, Note_on_c, 0, 74, 0
2, 81840, Note_on_c, 0, 76, 92
2, 81888, Note_on_c, 0, 76, 0
2, 81888, Note_on_c, 0, 78, 92
2, 81936, Note_on_c, 0, 78, 0
2, 81936, Note_on_c, 0, 79, 92
2, 81984, Note_on_c, 0, 79, 0
2, 81984, Note_on_c, 0, 81, 92
2, 82078, Note_on_c, 0, 81, 0
2, 82272, Note_on_c, 0, 63, 92
2, 82304, Note_on_c, 0, 63, 0
2, 82368, Note_on_c, 0, 66, 92
2, 82400, Note_on_c, 0, 66, 0
2, 82464, Note_on_c, 0, 69, 92
2, 82496, Note_on_c, 0, 69, 0
2, 82560, Note_on_c, 0, 72, 92
2, 82592, Note_on_c, 0, 72, 0
2, 82656, Note_on_c, 0, 75, 92
2, 82688, Note_on_c, 0, 75, 0
2, 82752, Note_on_c, 0, 78, 92
2, 82784, Note_on_c, 0, 78, 0
2, 82848, Note_on_c, 0, 81, 92
2, 82880, Note_on_c, 0, 81, 0
2, 82944, Note_on_c, 0, 84, 92
2, 82976, Note_on_c, 0, 84, 0
2, 83040, Note_on_c, 0, 81, 92
2, 83072, Note_on_c, 0, 81, 0
2, 83136, Note_on_c, 0, 78, 92
2, 83168, Note_on_c, 0, 78, 0
2, 83232, Note_on_c, 0, 75, 92
2, 83264, Note_on_c, 0, 75, 0
2, 83328, Note_on_c, 0, 72, 92
2, 83360, Note_on_c, 0, 72, 0
2, 83424, Note_on_c, 0, 69, 92
2, 83456, Note_on_c, 0, 69, 0
2, 83520, Note_on_c, 0, 66, 92
2, 83552, Note_on_c, 0, 66, 0
2, 83616, Note_on_c, 0, 63, 92
2, 83648, Note_on_c, 0, 63, 0
2, 83712, Note_on_c, 0, 64, 92
2, 83808, Note_on_c, 0, 64, 0
2, 83808, Note_on_c, 0, 66, 92
2, 83856, Note_on_c, 0, 66, 0
2, 83856, Note_on_c, 0, 68, 92
2, 83904, Note_on_c, 0, 68, 0
2, 83904, Note_on_c, 0, 69, 92
2, 83952, Note_on_c, 0, 69, 0
2, 83952, Note_on_c, 0, 71, 92
2, 84000, Note_on_c, 0, 71, 0
2, 84000, Note_on_c, 0, 73, 92
2, 84048, Note_on_c, 0, 73, 0
2, 84048, Note_on_c, 0, 74, 92
2, 84096, Note_on_c, 0, 74, 0
2, 84096, Note_on_c, 0, 76, 92
2, 84144, Note_on_c, 0, 76, 0
2, 84144, Note_on_c, 0, 78, 92
2, 84192, Note_on_c, 0, 78, 0
2, 84192, Note_on_c, 0, 80, 92
2, 84240, Note_on_c, 0, 80, 0
2, 84240, Note_on_c, 0, 81, 92
2, 84288, Note_on_c, 0, 81, 0
2, 84288, Note_on_c, 0, 83, 92
2, 84336, Note_on_c, 0, 83, 0
2, 84336, Note_on_c, 0, 85, 92
2, 84384, Note_on_c, 0, 85, 0
2, 84384, Note_on_c, 0, 86, 92
2, 84432, Note_on_c, 0, 86, 0
2, 84432, Note_on_c, 0, 88, 92
2, 84478, Note_on_c, 0, 88, 0
2, 84480, Note_on_c, 0, 69, 92
2, 84502, Note_on_c, 0, 69, 0
2, 84504, Note_on_c, 0, 71, 92
2, 84526, Note_on_c, 0, 71, 0
2, 84528, Note_on_c, 0, 73, 92
2, 84528, Note_on_c, 0, 73, 92
2, 84550, Note_on_c, 0, 73, 0
2, 84552, Note_on_c, 0, 71, 92
2, 84574, Note_on_c, 0, 73, 0
2, 84576, Note_on_c, 0, 74, 92
2, 84622, Note_on_c, 0, 74, 0
2, 84624, Note_on_c, 0, 73, 92
2, 84670, Note_on_c, 0, 73, 0
2, 84672, Note_on_c, 0, 74, 92
2, 84718, Note_on_c, 0, 74, 0
2, 84720, Note_on_c, 0, 73, 92
2, 84766, Note_on_c, 0, 73, 0
2, 84768, Note_on_c, 0, 74, 92
2, 84814, Note_on_c, 0, 74, 0
2, 84816, Note_on_c, 0, 73, 92
2, 84862, Note_on_c, 0, 73, 0
2, 84864, Note_on_c, 0, 74, 92
2, 84910, Note_on_c, 0, 74, 0
2, 84912, Note_on_c, 0, 73, 92
2, 84958, Note_on_c, 0, 73, 0
2, 84960, Note_on_c, 0, 74, 92
2, 85006, Note_on_c, 0, 74, 0
2, 85008, Note_on_c, 0, 73, 92
2, 85054, Note_on_c, 0, 73, 0
2, 85056, Note_on_c, 0, 74, 92
2, 85102, Note_on_c, 0, 74, 0
2, 85104, Note_on_c, 0, 73, 92
2, 85150, Note_on_c, 0, 73, 0
2, 85152, Note_on_c, 0, 74, 92
2, 85198, Note_on_c, 0, 74, 0
2, 85200, Note_on_c, 0, 71, 0
2, 85200, Note_on_c, 0, 73, 92
2, 85246, Note_on_c, 0, 73, 0
2, 85248, Note_on_c, 0, 69, 92
2, 85270, Note_on_c, 0, 69, 0
2, 85272, Note_on_c, 0, 71, 92
2, 85294, Note_on_c, 0, 71, 0
2, 85296, Note_on_c, 0, 69, 45
2, 85438, Note_on_c, 0, 69, 0
2, 85728, Note_on_c, 0, 81, 45
2, 85760, Note_on_c, 0, 81, 0
2, 85824, Note_on_c, 0, 83, 45
2, 85856, Note_on_c, 0, 83, 0
2, 85920, Note_on_c, 0, 85, 45
2, 85952, Note_on_c, 0, 85, 0
2, 86016, Note_on_c, 0, 86, 45
2, 86400, Note_on_c, 0, 86, 0
2, 86400, Note_on_c, 0, 85, 45
2, 86496, Note_on_c, 0, 85, 0
2, 86496, Note_on_c, 0, 83, 45
2, 86592, Note_on_c, 0, 83, 0
2, 86592, Note_on_c, 0, 81, 45
2, 86688, Note_on_c, 0, 81, 0
2, 86688, Note_on_c, 0, 80, 45
2, 86782, Note_on_c, 0, 80, 0
2, 86784, Note_on_c, 0, 88, 45
2, 87072, Note_on_c, 0, 88, 0
2, 87072, Note_on_c, 0, 85, 45
2, 87168, Note_on_c, 0, 85, 0
2, 87168, Note_on_c, 0, 81, 45
2, 87262, Note_on_c, 0, 81, 0
2, 87264, Note_on_c, 0, 81, 45
2, 87296, Note_on_c, 0, 81, 0
2, 87360, Note_on_c, 0, 83, 45
2, 87392, Note_on_c, 0, 83, 0
2, 87456, Note_on_c, 0, 85, 45
2, 87488, Note_on_c, 0, 85, 0
2, 87552, Note_on_c, 0, 88, 45
2, 87648, Note_on_c, 0, 88, 0
2, 87648, Note_on_c, 0, 86, 45
2, 87840, Note_on_c, 0, 86, 0
2, 87840, Note_on_c, 0, 88, 45
2, 87888, Note_on_c, 0, 88, 0
2, 87888, Note_on_c, 0, 86, 45
2, 87936, Note_on_c, 0, 86, 0
2, 87936, Note_on_c, 0, 85, 45
2, 88032, Note_on_c, 0, 85, 0
2, 88032, Note_on_c, 0, 83, 45
2, 88128, Note_on_c, 0, 83, 0
2, 88128, Note_on_c, 0, 81, 45
2, 88224, Note_on_c, 0, 81, 0
2, 88224, Note_on_c, 0, 80, 45
2, 88320, Note_on_c, 0, 80, 0
2, 88320, Note_on_c, 0, 88, 45
2, 88512, Note_on_c, 0, 88, 0
2, 88512, Note_on_c, 0, 88, 45
2, 88560, Note_on_c, 0, 88, 0
2, 88560, Note_on_c, 0, 85, 45
2, 88608, Note_on_c, 0, 85, 0
2, 88608, Note_on_c, 0, 88, 45
2, 88656, Note_on_c, 0, 88, 0
2, 88656, Note_on_c, 0, 85, 45
2, 88704, Note_on_c, 0, 85, 0
2, 88704, Note_on_c, 0, 81, 45
2, 88798, Note_on_c, 0, 81, 0
2, 88800, Note_on_c, 0, 69, 45
2, 88832, Note_on_c, 0, 69, 0
2, 88896, Note_on_c, 0, 71, 45
2, 88928, Note_on_c, 0, 71, 0
2, 88992, Note_on_c, 0, 73, 45
2, 89024, Note_on_c, 0, 73, 0
2, 89088, Note_on_c, 0, 74, 45
2, 89232, Note_on_c, 0, 74, 0
2, 89232, Note_on_c, 0, 76, 45
2, 89256, Note_on_c, 0, 76, 0
2, 89256, Note_on_c, 0, 78, 45
2, 89280, Note_on_c, 0, 78, 0
2, 89280, Note_on_c, 0, 76, 45
2, 89374, Note_on_c, 0, 76, 0
2, 89376, Note_on_c, 0, 74, 45
2, 89408, Note_on_c, 0, 74, 0
2, 89472, Note_on_c, 0, 73, 45
2, 89504, Note_on_c, 0, 73, 0
2, 89568, Note_on_c, 0, 71, 45
2, 89600, Note_on_c, 0, 71, 0
2, 89664, Note_on_c, 0, 69, 45
2, 89696, Note_on_c, 0, 69, 0
2, 89760, Note_on_c, 0, 68, 45
2, 89792, Note_on_c, 0, 68, 0
2, 89856, Note_on_c, 0, 68, 45
2, 90240, Note_on_c, 0, 68, 0
2, 90240, Note_on_c, 0, 69, 45
2, 90400, Note_on_c, 0, 69, 0
2, 90624, Note_on_c, 0, 64, 92
2, 90960, Note_on_c, 0, 64, 0
2, 91008, Note_on_c, 0, 62, 92
2, 91056, Note_on_c, 0, 62, 0
2, 91056, Note_on_c, 0, 61, 92
2, 91198, Note_on_c, 0, 61, 0
2, 91200, Note_on_c, 0, 59, 92
2, 91248, Note_on_c, 0, 59, 0
2, 91248, Note_on_c, 0, 57, 92
2, 91390, Note_on_c, 0, 57, 0
2, 91392, Note_on_c, 0, 62, 92
2, 91648, Note_on_c, 0, 62, 0
2, 91680, Note_on_c, 0, 59, 92
2, 91774, Note_on_c, 0, 59, 0
2, 91776, Note_on_c, 0, 56, 92
2, 91936, Note_on_c, 0, 56, 0
2, 92160, Note_on_c, 0, 76, 45
2, 92448, Note_on_c, 0, 76, 0
2, 92448, Note_on_c, 0, 73, 45
2, 92544, Note_on_c, 0, 73, 0
2, 92544, Note_on_c, 0, 67, 45
2, 92704, Note_on_c, 0, 67, 0
2, 92928, Note_on_c, 0, 85, 45
2, 93216, Note_on_c, 0, 85, 0
2, 93216, Note_on_c, 0, 82, 45
2, 93312, Note_on_c, 0, 82, 0
2, 93312, Note_on_c, 0, 76, 45
2, 93472, Note_on_c, 0, 76, 0
2, 93696, Note_on_c, 0, 66, 92
2, 94032, Note_on_c, 0, 66, 0
2, 94080, Note_on_c, 0, 64, 92
2, 94128, Note_on_c, 0, 64, 0
2, 94128, Note_on_c, 0, 62, 92
2, 94270, Note_on_c, 0, 62, 0
2, 94272, Note_on_c, 0, 61, 92
2, 94320, Note_on_c, 0, 61, 0
2, 94320, Note_on_c, 0, 59, 92
2, 94462, Note_on_c, 0, 59, 0
2, 94464, Note_on_c, 0, 64, 92
2, 94720, Note_on_c, 0, 64, 0
2, 94752, Note_on_c, 0, 61, 92
2, 94846, Note_on_c, 0, 61, 0
2, 94848, Note_on_c, 0, 58, 92
2, 95008, Note_on_c, 0, 58, 0
2, 95232, Note_on_c, 0, 78, 60
2, 95488, Note_on_c, 0, 78, 0
2, 95520, Note_on_c, 0, 74, 60
2, 95614, Note_on_c, 0, 74, 0
2, 95616, Note_on_c, 0, 71, 60
2, 95776, Note_on_c, 0, 71, 0
2, 96000, Note_on_c, 0, 72, 60
2, 96024, Note_on_c, 0, 72, 0
2, 96024, Note_on_c, 0, 84, 60
2, 96288, Note_on_c, 0, 84, 0
2, 96288, Note_on_c, 0, 81, 60
2, 96384, Note_on_c, 0, 81, 0
2, 96384, Note_on_c, 0, 78, 60
2, 96544, Note_on_c, 0, 78, 0
2, 96864, Note_on_c, 0, 74, 60
2, 96912, Note_on_c, 0, 74, 0
2, 96912, Note_on_c, 0, 76, 60
2, 96960, Note_on_c, 0, 76, 0
2, 96960, Note_on_c, 0, 78, 60
2, 97054, Note_on_c, 0, 78, 0
2, 97056, Note_on_c, 0, 78, 60
2, 97104, Note_on_c, 0, 78, 0
2, 97104, Note_on_c, 0, 79, 60
2, 97152, Note_on_c, 0, 79, 0
2, 97152, Note_on_c, 0, 81, 60
2, 97246, Note_on_c, 0, 81, 0
2, 97248, Note_on_c, 0, 78, 60
2, 97296, Note_on_c, 0, 78, 0
2, 97296, Note_on_c, 0, 79, 60
2, 97344, Note_on_c, 0, 79, 0
2, 97344, Note_on_c, 0, 81, 60
2, 97438, Note_on_c, 0, 81, 0
2, 97440, Note_on_c, 0, 81, 60
2, 97488, Note_on_c, 0, 81, 0
2, 97488, Note_on_c, 0, 83, 60
2, 97536, Note_on_c, 0, 83, 0
2, 97536, Note_on_c, 0, 84, 60
2, 97630, Note_on_c, 0, 84, 0
2, 97632, Note_on_c, 0, 88, 60
2, 97680, Note_on_c, 0, 88, 0
2, 97680, Note_on_c, 0, 86, 60
2, 97728, Note_on_c, 0, 86, 0
2, 97728, Note_on_c, 0, 84, 60
2, 97822, Note_on_c, 0, 84, 0
2, 97824, Note_on_c, 0, 84, 60
2, 97872, Note_on_c, 0, 84, 0
2, 97872, Note_on_c, 0, 83, 60
2, 97920, Note_on_c, 0, 83, 0
2, 97920, Note_on_c, 0, 81, 60
2, 98014, Note_on_c, 0, 81, 0
2, 98016, Note_on_c, 0, 84, 60
2, 98064, Note_on_c, 0, 84, 0
2, 98064, Note_on_c, 0, 83, 60
2, 98112, Note_on_c, 0, 83, 0
2, 98112, Note_on_c, 0, 81, 60
2, 98206, Note_on_c, 0, 81, 0
2, 98208, Note_on_c, 0, 81, 60
2, 98256, Note_on_c, 0, 81, 0
2, 98256, Note_on_c, 0, 79, 60
2, 98304, Note_on_c, 0, 79, 0
2, 98304, Note_on_c, 0, 78, 60
2, 98398, Note_on_c, 0, 78, 0
2, 98400, Note_on_c, 0, 81, 60
2, 98432, Note_on_c, 0, 81, 0
2, 98496, Note_on_c, 0, 80, 60
2, 98528, Note_on_c, 0, 80, 0
2, 98592, Note_on_c, 0, 79, 60
2, 98624, Note_on_c, 0, 79, 0
2, 98688, Note_on_c, 0, 78, 60
2, 98720, Note_on_c, 0, 78, 0
2, 98784, Note_on_c, 0, 77, 60
2, 98816, Note_on_c, 0, 77, 0
2, 98880, Note_on_c, 0, 76, 60
2, 98912, Note_on_c, 0, 76, 0
2, 98976, Note_on_c, 0, 75, 60
2, 99008, Note_on_c, 0, 75, 0
2, 99072, Note_on_c, 0, 74, 60
2, 99408, Note_on_c, 0, 74, 0
2, 99456, Note_on_c, 0, 72, 60
2, 99504, Note_on_c, 0, 72, 0
2, 99504, Note_on_c, 0, 71, 60
2, 99646, Note_on_c, 0, 71, 0
2, 99648, Note_on_c, 0, 69, 60
2, 99696, Note_on_c, 0, 69, 0
2, 99696, Note_on_c, 0, 67, 60
2, 99838, Note_on_c, 0, 67, 0
2, 99840, Note_on_c, 0, 72, 60
2, 100128, Note_on_c, 0, 72, 0
2, 100128, Note_on_c, 0, 69, 60
2, 100224, Note_on_c, 0, 69, 0
2, 100224, Note_on_c, 0, 66, 60
2, 100384, Note_on_c, 0, 66, 0
2, 100608, Note_on_c, 0, 84, 60
2, 100944, Note_on_c, 0, 84, 0
2, 100992, Note_on_c, 0, 83, 60
2, 101040, Note_on_c, 0, 83, 0
2, 101040, Note_on_c, 0, 81, 60
2, 101182, Note_on_c, 0, 81, 0
2, 101184, Note_on_c, 0, 79, 60
2, 101232, Note_on_c, 0, 79, 0
2, 101232, Note_on_c, 0, 78, 60
2, 101374, Note_on_c, 0, 78, 0
2, 101376, Note_on_c, 0, 86, 60
2, 101664, Note_on_c, 0, 86, 0
2, 101664, Note_on_c, 0, 83, 60
2, 101760, Note_on_c, 0, 83, 0
2, 101760, Note_on_c, 0, 79, 60
2, 101920, Note_on_c, 0, 79, 0
2, 102144, Note_on_c, 0, 76, 60
2, 102176, Note_on_c, 0, 76, 0
2, 102240, Note_on_c, 0, 78, 60
2, 102264, Note_on_c, 0, 78, 0
2, 102264, Note_on_c, 0, 76, 60
2, 102286, Note_on_c, 0, 76, 0
2, 102288, Note_on_c, 0, 74, 60
2, 102334, Note_on_c, 0, 74, 0
2, 102336, Note_on_c, 0, 76, 60
2, 102430, Note_on_c, 0, 76, 0
2, 102432, Note_on_c, 0, 78, 60
2, 102464, Note_on_c, 0, 78, 0
2, 102528, Note_on_c, 0, 79, 60
2, 102688, Note_on_c, 0, 79, 0
2, 102816, Note_on_c, 0, 74, 60
2, 102910, Note_on_c, 0, 74, 0
2, 102912, Note_on_c, 0, 76, 60
2, 102944, Note_on_c, 0, 76, 0
2, 103008, Note_on_c, 0, 78, 60
2, 103032, Note_on_c, 0, 78, 0
2, 103032, Note_on_c, 0, 76, 60
2, 103054, Note_on_c, 0, 76, 0
2, 103056, Note_on_c, 0, 74, 60
2, 103102, Note_on_c, 0, 74, 0
2, 103104, Note_on_c, 0, 76, 60
2, 103198, Note_on_c, 0, 76, 0
2, 103200, Note_on_c, 0, 78, 60
2, 103232, Note_on_c, 0, 78, 0
2, 103296, Note_on_c, 0, 79, 60
2, 103392, Note_on_c, 0, 79, 0
2, 103392, Note_on_c, 0, 74, 60
2, 103488, Note_on_c, 0, 74, 0
2, 103488, Note_on_c, 0, 72, 60
2, 103584, Note_on_c, 0, 72, 0
2, 103584, Note_on_c, 0, 71, 60
2, 103678, Note_on_c, 0, 71, 0
2, 103680, Note_on_c, 0, 71, 60
2, 103776, Note_on_c, 0, 71, 0
2, 103776, Note_on_c, 0, 69, 60
2, 103872, Note_on_c, 0, 69, 0
2, 103872, Note_on_c, 0, 72, 60
2, 103968, Note_on_c, 0, 72, 0
2, 103968, Note_on_c, 0, 76, 60
2, 104064, Note_on_c, 0, 76, 0
2, 104064, Note_on_c, 0, 67, 60
2, 104256, Note_on_c, 0, 67, 0
2, 104256, Note_on_c, 0, 66, 60
2, 104256, Note_on_c, 0, 71, 60
2, 104352, Note_on_c, 0, 71, 0
2, 104352, Note_on_c, 0, 69, 60
2, 104416, Note_on_c, 0, 66, 0
2, 104448, Note_on_c, 0, 69, 0
2, 104448, Note_on_c, 0, 67, 60
2, 104608, Note_on_c, 0, 67, 0
2, 104736, Note_on_c, 0, 62, 60
2, 104832, Note_on_c, 0, 62, 0
2, 104832, Note_on_c, 0, 67, 60
2, 104928, Note_on_c, 0, 67, 0
2, 104928, Note_on_c, 0, 66, 60
2, 105024, Note_on_c, 0, 66, 0
2, 105024, Note_on_c, 0, 64, 60
2, 105120, Note_on_c, 0, 64, 0
2, 105120, Note_on_c, 0, 62, 60
2, 105214, Note_on_c, 0, 62, 0
2, 105216, Note_on_c, 0, 60, 60
2, 105216, Note_on_c, 0, 62, 60
2, 105310, Note_on_c, 0, 60, 0
2, 105310, Note_on_c, 0, 62, 0
2, 105312, Note_on_c, 0, 60, 60
2, 105312, Note_on_c, 0, 62, 60
2, 105406, Note_on_c, 0, 60, 0
2, 105406, Note_on_c, 0, 62, 0
2, 105504, Note_on_c, 0, 60, 60
2, 105504, Note_on_c, 0, 62, 60
2, 105598, Note_on_c, 0, 60, 0
2, 105598, Note_on_c, 0, 62, 0
2, 105600, Note_on_c, 0, 60, 60
2, 105600, Note_on_c, 0, 62, 60
2, 105694, Note_on_c, 0, 60, 0
2, 105694, Note_on_c, 0, 62, 0
2, 105696, Note_on_c, 0, 60, 60
2, 105696, Note_on_c, 0, 62, 60
2, 105790, Note_on_c, 0, 60, 0
2, 105790, Note_on_c, 0, 62, 0
2, 105888, Note_on_c, 0, 60, 60
2, 105888, Note_on_c, 0, 62, 60
2, 105982, Note_on_c, 0, 60, 0
2, 105982, Note_on_c, 0, 62, 0
2, 105984, Note_on_c, 0, 59, 60
2, 105984, Note_on_c, 0, 64, 60
2, 106080, Note_on_c, 0, 64, 0
2, 106080, Note_on_c, 0, 62, 60
2, 106144, Note_on_c, 0, 59, 0
2, 106174, Note_on_c, 0, 62, 0
2, 106272, Note_on_c, 0, 62, 84
2, 106366, Note_on_c, 0, 62, 0
2, 106368, Note_on_c, 0, 67, 60
2, 106464, Note_on_c, 0, 67, 0
2, 106464, Note_on_c, 0, 66, 60
2, 106560, Note_on_c, 0, 66, 0
2, 106560, Note_on_c, 0, 64, 60
2, 106656, Note_on_c, 0, 64, 0
2, 106656, Note_on_c, 0, 63, 60
2, 106750, Note_on_c, 0, 63, 0
2, 106752, Note_on_c, 0, 62, 60
2, 106752, Note_on_c, 0, 64, 60
2, 106846, Note_on_c, 0, 62, 0
2, 106846, Note_on_c, 0, 64, 0
2, 106848, Note_on_c, 0, 62, 60
2, 106848, Note_on_c, 0, 64, 60
2, 106942, Note_on_c, 0, 62, 0
2, 106942, Note_on_c, 0, 64, 0
2, 107040, Note_on_c, 0, 62, 60
2, 107040, Note_on_c, 0, 64, 60
2, 107134, Note_on_c, 0, 62, 0
2, 107134, Note_on_c, 0, 64, 0
2, 107136, Note_on_c, 0, 62, 60
2, 107136, Note_on_c, 0, 64, 60
2, 107230, Note_on_c, 0, 62, 0
2, 107230, Note_on_c, 0, 64, 0
2, 107232, Note_on_c, 0, 62, 60
2, 107232, Note_on_c, 0, 64, 60
2, 107326, Note_on_c, 0, 62, 0
2, 107326, Note_on_c, 0, 64, 0
2, 107424, Note_on_c, 0, 62, 60
2, 107424, Note_on_c, 0, 64, 60
2, 107518, Note_on_c, 0, 62, 0
2, 107518, Note_on_c, 0, 64, 0
2, 107520, Note_on_c, 0, 61, 60
2, 107520, Note_on_c, 0, 66, 60
2, 107614, Note_on_c, 0, 66, 0
2, 107616, Note_on_c, 0, 64, 60
2, 107680, Note_on_c, 0, 61, 0
2, 107710, Note_on_c, 0, 64, 0
2, 107808, Note_on_c, 0, 64, 84
2, 107902, Note_on_c, 0, 64, 0
2, 107904, Note_on_c, 0, 69, 60
2, 108000, Note_on_c, 0, 69, 0
2, 108000, Note_on_c, 0, 67, 60
2, 108096, Note_on_c, 0, 67, 0
2, 108096, Note_on_c, 0, 66, 60
2, 108192, Note_on_c, 0, 66, 0
2, 108192, Note_on_c, 0, 65, 60
2, 108286, Note_on_c, 0, 65, 0
2, 108288, Note_on_c, 0, 64, 60
2, 108288, Note_on_c, 0, 66, 60
2, 108382, Note_on_c, 0, 64, 0
2, 108382, Note_on_c, 0, 66, 0
2, 108384, Note_on_c, 0, 64, 60
2, 108384, Note_on_c, 0, 66, 60
2, 108478, Note_on_c, 0, 64, 0
2, 108478, Note_on_c, 0, 66, 0
2, 108576, Note_on_c, 0, 64, 60
2, 108576, Note_on_c, 0, 66, 60
2, 108670, Note_on_c, 0, 64, 0
2, 108670, Note_on_c, 0, 66, 0
2, 108672, Note_on_c, 0, 64, 60
2, 108672, Note_on_c, 0, 66, 60
2, 108766, Note_on_c, 0, 64, 0
2, 108766, Note_on_c, 0, 66, 0
2, 108768, Note_on_c, 0, 64, 60
2, 108768, Note_on_c, 0, 66, 60
2, 108862, Note_on_c, 0, 64, 0
2, 108862, Note_on_c, 0, 66, 0
2, 108960, Note_on_c, 0, 64, 60
2, 108960, Note_on_c, 0, 66, 60
2, 109054, Note_on_c, 0, 64, 0
2, 109054, Note_on_c, 0, 66, 0
2, 109056, Note_on_c, 0, 62, 60
2, 109056, Note_on_c, 0, 67, 60
2, 109150, Note_on_c, 0, 67, 0
2, 109152, Note_on_c, 0, 66, 60
2, 109216, Note_on_c, 0, 62, 0
2, 109246, Note_on_c, 0, 66, 0
2, 109344, Note_on_c, 0, 66, 75
2, 109438, Note_on_c, 0, 66, 0
2, 109440, Note_on_c, 0, 69, 75
2, 109536, Note_on_c, 0, 69, 0
2, 109536, Note_on_c, 0, 67, 75
2, 109632, Note_on_c, 0, 67, 0
2, 109632, Note_on_c, 0, 71, 75
2, 109728, Note_on_c, 0, 71, 0
2, 109728, Note_on_c, 0, 67, 75
2, 109822, Note_on_c, 0, 67, 0
2, 109824, Note_on_c, 0, 65, 75
2, 109920, Note_on_c, 0, 65, 0
2, 109920, Note_on_c, 0, 66, 76
2, 110016, Note_on_c, 0, 66, 0
2, 110016, Note_on_c, 0, 69, 77
2, 110112, Note_on_c, 0, 69, 0
2, 110112, Note_on_c, 0, 66, 78
2, 110206, Note_on_c, 0, 66, 0
2, 110208, Note_on_c, 0, 63, 79
2, 110304, Note_on_c, 0, 63, 0
2, 110304, Note_on_c, 0, 64, 80
2, 110400, Note_on_c, 0, 64, 0
2, 110400, Note_on_c, 0, 67, 82
2, 110496, Note_on_c, 0, 67, 0
2, 110496, Note_on_c, 0, 64, 84
2, 110590, Note_on_c, 0, 64, 0
2, 110592, Note_on_c, 0, 61, 86
2, 110688, Note_on_c, 0, 61, 0
2, 110688, Note_on_c, 0, 62, 88
2, 110782, Note_on_c, 0, 62, 0
2, 110880, Note_on_c, 0, 74, 92
2, 110976, Note_on_c, 0, 74, 0
2, 110976, Note_on_c, 0, 79, 92
2, 111024, Note_on_c, 0, 79, 0
2, 111024, Note_on_c, 0, 81, 92
2, 111072, Note_on_c, 0, 81, 0
2, 111072, Note_on_c, 0, 79, 92
2, 111120, Note_on_c, 0, 79, 0
2, 111120, Note_on_c, 0, 78, 92
2, 111168, Note_on_c, 0, 78, 0
2, 111168, Note_on_c, 0, 79, 92
2, 111216, Note_on_c, 0, 79, 0
2, 111216, Note_on_c, 0, 81, 92
2, 111264, Note_on_c, 0, 81, 0
2, 111264, Note_on_c, 0, 83, 92
2, 111312, Note_on_c, 0, 83, 0
2, 111312, Note_on_c, 0, 79, 92
2, 111360, Note_on_c, 0, 79, 0
2, 111360, Note_on_c, 0, 78, 92
2, 111408, Note_on_c, 0, 78, 0
2, 111408, Note_on_c, 0, 79, 92
2, 111456, Note_on_c, 0, 79, 0
2, 111456, Note_on_c, 0, 78, 92
2, 111504, Note_on_c, 0, 78, 0
2, 111504, Note_on_c, 0, 77, 92
2, 111552, Note_on_c, 0, 77, 0
2, 111552, Note_on_c, 0, 78, 92
2, 111600, Note_on_c, 0, 78, 0
2, 111600, Note_on_c, 0, 79, 92
2, 111648, Note_on_c, 0, 79, 0
2, 111648, Note_on_c, 0, 81, 92
2, 111696, Note_on_c, 0, 81, 0
2, 111696, Note_on_c, 0, 78, 92
2, 111744, Note_on_c, 0, 78, 0
2, 111744, Note_on_c, 0, 76, 92
2, 111792, Note_on_c, 0, 76, 0
2, 111792, Note_on_c, 0, 78, 92
2, 111840, Note_on_c, 0, 78, 0
2, 111840, Note_on_c, 0, 76, 92
2, 111888, Note_on_c, 0, 76, 0
2, 111888, Note_on_c, 0, 75, 92
2, 111936, Note_on_c, 0, 75, 0
2, 111936, Note_on_c, 0, 76, 92
2, 111984, Note_on_c, 0, 76, 0
2, 111984, Note_on_c, 0, 78, 92
2, 112032, Note_on_c, 0, 78, 0
2, 112032, Note_on_c, 0, 79, 92
2, 112080, Note_on_c, 0, 79, 0
2, 112080, Note_on_c, 0, 76, 92
2, 112126, Note_on_c, 0, 76, 0
2, 112128, Note_on_c, 0, 74, 92
2, 112174, Note_on_c, 0, 74, 0
2, 112176, Note_on_c, 0, 76, 92
2, 112224, Note_on_c, 0, 76, 0
2, 112224, Note_on_c, 0, 74, 92
2, 112272, Note_on_c, 0, 74, 0
2, 112272, Note_on_c, 0, 73, 92
2, 112320, Note_on_c, 0, 73, 0
2, 112320, Note_on_c, 0, 74, 92
2, 112368, Note_on_c, 0, 74, 0
2, 112368, Note_on_c, 0, 69, 92
2, 112416, Note_on_c, 0, 69, 0
2, 112416, Note_on_c, 0, 71, 92
2, 112464, Note_on_c, 0, 71, 0
2, 112464, Note_on_c, 0, 73, 92
2, 112512, Note_on_c, 0, 73, 0
2, 112512, Note_on_c, 0, 74, 92
2, 112560, Note_on_c, 0, 74, 0
2, 112560, Note_on_c, 0, 76, 92
2, 112608, Note_on_c, 0, 76, 0
2, 112608, Note_on_c, 0, 78, 92
2, 112656, Note_on_c, 0, 78, 0
2, 112656, Note_on_c, 0, 79, 92
2, 112704, Note_on_c, 0, 79, 0
2, 112704, Note_on_c, 0, 81, 92
2, 112752, Note_on_c, 0, 81, 0
2, 112752, Note_on_c, 0, 83, 92
2, 112800, Note_on_c, 0, 83, 0
2, 112800, Note_on_c, 0, 85, 92
2, 112848, Note_on_c, 0, 85, 0
2, 112848, Note_on_c, 0, 86, 92
2, 112896, Note_on_c, 0, 86, 0
2, 112896, Note_on_c, 0, 85, 92
2, 112944, Note_on_c, 0, 85, 0
2, 112944, Note_on_c, 0, 83, 92
2, 112992, Note_on_c, 0, 83, 0
2, 112992, Note_on_c, 0, 86, 92
2, 113040, Note_on_c, 0, 86, 0
2, 113040, Note_on_c, 0, 85, 92
2, 113088, Note_on_c, 0, 85, 0
2, 113088, Note_on_c, 0, 83, 92
2, 113136, Note_on_c, 0, 83, 0
2, 113136, Note_on_c, 0, 81, 92
2, 113184, Note_on_c, 0, 81, 0
2, 113184, Note_on_c, 0, 79, 92
2, 113232, Note_on_c, 0, 79, 0
2, 113232, Note_on_c, 0, 78, 92
2, 113280, Note_on_c, 0, 78, 0
2, 113280, Note_on_c, 0, 81, 92
2, 113328, Note_on_c, 0, 81, 0
2, 113328, Note_on_c, 0, 79, 92
2, 113376, Note_on_c, 0, 79, 0
2, 113376, Note_on_c, 0, 83, 92
2, 113424, Note_on_c, 0, 83, 0
2, 113424, Note_on_c, 0, 81, 92
2, 113472, Note_on_c, 0, 81, 0
2, 113472, Note_on_c, 0, 79, 92
2, 113520, Note_on_c, 0, 79, 0
2, 113520, Note_on_c, 0, 78, 92
2, 113568, Note_on_c, 0, 78, 0
2, 113568, Note_on_c, 0, 76, 92
2, 113616, Note_on_c, 0, 76, 0
2, 113616, Note_on_c, 0, 74, 92
2, 113662, Note_on_c, 0, 74, 0
2, 113664, Note_on_c, 0, 74, 92
2, 113824, Note_on_c, 0, 74, 0
2, 113952, Note_on_c, 0, 69, 92
2, 114000, Note_on_c, 0, 69, 0
2, 114000, Note_on_c, 0, 71, 92
2, 114048, Note_on_c, 0, 71, 0
2, 114048, Note_on_c, 0, 73, 92
2, 114142, Note_on_c, 0, 73, 0
2, 114144, Note_on_c, 0, 73, 92
2, 114192, Note_on_c, 0, 73, 0
2, 114192, Note_on_c, 0, 74, 92
2, 114240, Note_on_c, 0, 74, 0
2, 114240, Note_on_c, 0, 76, 92
2, 114334, Note_on_c, 0, 76, 0
2, 114336, Note_on_c, 0, 76, 92
2, 114384, Note_on_c, 0, 76, 0
2, 114384, Note_on_c, 0, 78, 92
2, 114432, Note_on_c, 0, 78, 0
2, 114432, Note_on_c, 0, 79, 92
2, 114592, Note_on_c, 0, 79, 0
2, 114720, Note_on_c, 0, 83, 92
2, 114768, Note_on_c, 0, 83, 0
2, 114768, Note_on_c, 0, 81, 92
2, 114816, Note_on_c, 0, 81, 0
2, 114816, Note_on_c, 0, 79, 92
2, 114910, Note_on_c, 0, 79, 0
2, 114912, Note_on_c, 0, 79, 92
2, 114960, Note_on_c, 0, 79, 0
2, 114960, Note_on_c, 0, 78, 92
2, 115008, Note_on_c, 0, 78, 0
2, 115008, Note_on_c, 0, 76, 92
2, 115102, Note_on_c, 0, 76, 0
2, 115104, Note_on_c, 0, 76, 92
2, 115152, Note_on_c, 0, 76, 0
2, 115152, Note_on_c, 0, 74, 92
2, 115200, Note_on_c, 0, 74, 0
2, 115200, Note_on_c, 0, 73, 92
2, 115360, Note_on_c, 0, 73, 0
2, 115488, Note_on_c, 0, 76, 92
2, 115536, Note_on_c, 0, 76, 0
2, 115536, Note_on_c, 0, 74, 92
2, 115584, Note_on_c, 0, 74, 0
2, 115584, Note_on_c, 0, 73, 92
2, 115744, Note_on_c, 0, 73, 0
2, 115872, Note_on_c, 0, 76, 92
2, 115918, Note_on_c, 0, 76, 0
2, 115920, Note_on_c, 0, 74, 92
2, 115966, Note_on_c, 0, 74, 0
2, 115968, Note_on_c, 0, 73, 92
2, 116064, Note_on_c, 0, 73, 0
2, 116064, Note_on_c, 0, 79, 92
2, 116160, Note_on_c, 0, 79, 0
2, 116160, Note_on_c, 0, 76, 92
2, 116256, Note_on_c, 0, 76, 0
2, 116256, Note_on_c, 0, 85, 92
2, 116352, Note_on_c, 0, 85, 0
2, 116352, Note_on_c, 0, 79, 92
2, 116448, Note_on_c, 0, 79, 0
2, 116448, Note_on_c, 0, 88, 92
2, 116544, Note_on_c, 0, 88, 0
2, 116544, Note_on_c, 0, 86, 92
2, 116640, Note_on_c, 0, 86, 0
2, 116640, Note_on_c, 0, 85, 92
2, 116736, Note_on_c, 0, 85, 0
2, 116736, Note_on_c, 0, 83, 92
2, 116832, Note_on_c, 0, 83, 0
2, 116832, Note_on_c, 0, 81, 88
2, 116928, Note_on_c, 0, 81, 0
2, 116928, Note_on_c, 0, 80, 84
2, 117024, Note_on_c, 0, 80, 0
2, 117024, Note_on_c, 0, 81, 80
2, 117120, Note_on_c, 0, 81, 0
2, 117120, Note_on_c, 0, 80, 76
2, 117216, Note_on_c, 0, 80, 0
2, 117216, Note_on_c, 0, 81, 72
2, 117312, Note_on_c, 0, 81, 0
2, 117312, Note_on_c, 0, 83, 68
2, 117408, Note_on_c, 0, 83, 0
2, 117408, Note_on_c, 0, 81, 64
2, 117502, Note_on_c, 0, 81, 0
2, 117504, Note_on_c, 0, 81, 60
2, 117840, Note_on_c, 0, 81, 0
2, 117888, Note_on_c, 0, 79, 60
2, 117936, Note_on_c, 0, 79, 0
2, 117936, Note_on_c, 0, 78, 60
2, 118078, Note_on_c, 0, 78, 0
2, 118080, Note_on_c, 0, 76, 60
2, 118128, Note_on_c, 0, 76, 0
2, 118128, Note_on_c, 0, 74, 60
2, 118270, Note_on_c, 0, 74, 0
2, 118272, Note_on_c, 0, 79, 60
2, 118560, Note_on_c, 0, 79, 0
2, 118560, Note_on_c, 0, 76, 60
2, 118656, Note_on_c, 0, 76, 0
2, 118656, Note_on_c, 0, 73, 60
2, 118816, Note_on_c, 0, 73, 0
2, 119040, Note_on_c, 0, 79, 60
2, 119376, Note_on_c, 0, 79, 0
2, 119424, Note_on_c, 0, 78, 60
2, 119472, Note_on_c, 0, 78, 0
2, 119472, Note_on_c, 0, 76, 60
2, 119614, Note_on_c, 0, 76, 0
2, 119616, Note_on_c, 0, 74, 60
2, 119664, Note_on_c, 0, 74, 0
2, 119664, Note_on_c, 0, 73, 60
2, 119806, Note_on_c, 0, 73, 0
2, 119808, Note_on_c, 0, 81, 60
2, 120064, Note_on_c, 0, 81, 0
2, 120096, Note_on_c, 0, 78, 60
2, 120190, Note_on_c, 0, 78, 0
2, 120192, Note_on_c, 0, 74, 60
2, 120352, Note_on_c, 0, 74, 0
2, 120576, Note_on_c, 0, 83, 60
2, 120670, Note_on_c, 0, 83, 0
2, 120672, Note_on_c, 0, 85, 60
2, 120696, Note_on_c, 0, 85, 0
2, 120696, Note_on_c, 0, 83, 60
2, 120718, Note_on_c, 0, 83, 0
2, 120720, Note_on_c, 0, 81, 60
2, 120766, Note_on_c, 0, 81, 0
2, 120768, Note_on_c, 0, 83, 60
2, 120862, Note_on_c, 0, 83, 0
2, 120864, Note_on_c, 0, 85, 60
2, 120896, Note_on_c, 0, 85, 0
2, 120960, Note_on_c, 0, 86, 60
2, 121120, Note_on_c, 0, 86, 0
2, 121248, Note_on_c, 0, 81, 60
2, 121342, Note_on_c, 0, 81, 0
2, 121344, Note_on_c, 0, 83, 60
2, 121376, Note_on_c, 0, 83, 0
2, 121440, Note_on_c, 0, 85, 60
2, 121464, Note_on_c, 0, 85, 0
2, 121464, Note_on_c, 0, 83, 60
2, 121486, Note_on_c, 0, 83, 0
2, 121488, Note_on_c, 0, 81, 60
2, 121534, Note_on_c, 0, 81, 0
2, 121536, Note_on_c, 0, 83, 60
2, 121630, Note_on_c, 0, 83, 0
2, 121632, Note_on_c, 0, 85, 60
2, 121664, Note_on_c, 0, 85, 0
2, 121728, Note_on_c, 0, 86, 60
2, 121888, Note_on_c, 0, 86, 0
2, 122016, Note_on_c, 0, 81, 60
2, 122110, Note_on_c, 0, 81, 0
2, 122112, Note_on_c, 0, 81, 60
2, 122208, Note_on_c, 0, 81, 0
2, 122208, Note_on_c, 0, 80, 60
2, 122304, Note_on_c, 0, 80, 0
2, 122304, Note_on_c, 0, 79, 60
2, 122400, Note_on_c, 0, 79, 0
2, 122400, Note_on_c, 0, 76, 60
2, 122496, Note_on_c, 0, 76, 0
2, 122496, Note_on_c, 0, 79, 60
2, 122592, Note_on_c, 0, 79, 0
2, 122592, Note_on_c, 0, 77, 60
2, 122688, Note_on_c, 0, 77, 0
2, 122688, Note_on_c, 0, 78, 60
2, 122784, Note_on_c, 0, 78, 0
2, 122784, Note_on_c, 0, 74, 60
2, 122880, Note_on_c, 0, 74, 0
2, 122880, Note_on_c, 0, 78, 60
2, 122928, Note_on_c, 0, 78, 0
2, 122928, Note_on_c, 0, 76, 60
2, 122976, Note_on_c, 0, 76, 0
2, 122976, Note_on_c, 0, 74, 60
2, 123024, Note_on_c, 0, 74, 0
2, 123024, Note_on_c, 0, 73, 60
2, 123072, Note_on_c, 0, 73, 0
2, 123072, Note_on_c, 0, 71, 60
2, 123120, Note_on_c, 0, 71, 0
2, 123120, Note_on_c, 0, 69, 60
2, 123168, Note_on_c, 0, 69, 0
2, 123168, Note_on_c, 0, 68, 60
2, 123216, Note_on_c, 0, 68, 0
2, 123216, Note_on_c, 0, 69, 60
2, 123264, Note_on_c, 0, 69, 0
2, 123264, Note_on_c, 0, 71, 60
2, 123312, Note_on_c, 0, 71, 0
2, 123312, Note_on_c, 0, 73, 60
2, 123360, Note_on_c, 0, 73, 0
2, 123360, Note_on_c, 0, 74, 60
2, 123408, Note_on_c, 0, 74, 0
2, 123408, Note_on_c, 0, 76, 60
2, 123456, Note_on_c, 0, 76, 0
2, 123456, Note_on_c, 0, 77, 60
2, 123504, Note_on_c, 0, 77, 0
2, 123504, Note_on_c, 0, 78, 60
2, 123552, Note_on_c, 0, 78, 0
2, 123552, Note_on_c, 0, 79, 60
2, 123600, Note_on_c, 0, 79, 0
2, 123600, Note_on_c, 0, 80, 60
2, 123648, Note_on_c, 0, 80, 0
2, 123648, Note_on_c, 0, 81, 60
2, 123984, Note_on_c, 0, 81, 0
2, 124032, Note_on_c, 0, 79, 60
2, 124080, Note_on_c, 0, 79, 0
2, 124080, Note_on_c, 0, 77, 60
2, 124222, Note_on_c, 0, 77, 0
2, 124224, Note_on_c, 0, 76, 60
2, 124272, Note_on_c, 0, 76, 0
2, 124272, Note_on_c, 0, 74, 60
2, 124414, Note_on_c, 0, 74, 0
2, 124416, Note_on_c, 0, 79, 60
2, 124704, Note_on_c, 0, 79, 0
2, 124704, Note_on_c, 0, 76, 60
2, 124800, Note_on_c, 0, 76, 0
2, 124800, Note_on_c, 0, 73, 60
2, 124960, Note_on_c, 0, 73, 0
2, 125184, Note_on_c, 0, 79, 60
2, 125520, Note_on_c, 0, 79, 0
2, 125568, Note_on_c, 0, 77, 60
2, 125616, Note_on_c, 0, 77, 0
2, 125616, Note_on_c, 0, 76, 60
2, 125758, Note_on_c, 0, 76, 0
2, 125760, Note_on_c, 0, 74, 60
2, 125808, Note_on_c, 0, 74, 0
2, 125808, Note_on_c, 0, 73, 60
2, 125950, Note_on_c, 0, 73, 0
2, 125952, Note_on_c, 0, 81, 60
2, 126240, Note_on_c, 0, 81, 0
2, 126240, Note_on_c, 0, 77, 65
2, 126336, Note_on_c, 0, 77, 0
2, 126336, Note_on_c, 0, 74, 67
2, 126430, Note_on_c, 0, 74, 0
2, 126432, Note_on_c, 0, 77, 69
2, 126526, Note_on_c, 0, 77, 0
2, 126528, Note_on_c, 0, 79, 71
2, 126622, Note_on_c, 0, 79, 0
2, 126624, Note_on_c, 0, 81, 73
2, 126718, Note_on_c, 0, 81, 0
2, 126720, Note_on_c, 0, 82, 105
2, 127008, Note_on_c, 0, 82, 0
2, 127008, Note_on_c, 0, 79, 75
2, 127104, Note_on_c, 0, 79, 0
2, 127104, Note_on_c, 0, 76, 75
2, 127264, Note_on_c, 0, 76, 0
2, 127488, Note_on_c, 0, 82, 105
2, 127776, Note_on_c, 0, 82, 0
2, 127776, Note_on_c, 0, 79, 75
2, 127872, Note_on_c, 0, 79, 0
2, 127872, Note_on_c, 0, 76, 75
2, 128032, Note_on_c, 0, 76, 0
2, 128160, Note_on_c, 0, 79, 75
2, 128254, Note_on_c, 0, 79, 0
2, 128256, Note_on_c, 0, 82, 92
2, 128352, Note_on_c, 0, 82, 0
2, 128352, Note_on_c, 0, 79, 92
2, 128446, Note_on_c, 0, 79, 0
2, 128448, Note_on_c, 0, 82, 92
2, 128542, Note_on_c, 0, 82, 0
2, 128544, Note_on_c, 0, 82, 92
2, 128638, Note_on_c, 0, 82, 0
2, 128640, Note_on_c, 0, 82, 92
2, 128736, Note_on_c, 0, 82, 0
2, 128736, Note_on_c, 0, 79, 92
2, 128830, Note_on_c, 0, 79, 0
2, 128832, Note_on_c, 0, 82, 92
2, 128926, Note_on_c, 0, 82, 0
2, 128928, Note_on_c, 0, 82, 92
2, 129022, Note_on_c, 0, 82, 0
2, 129024, Note_on_c, 0, 82, 92
2, 129360, Note_on_c, 0, 82, 0
2, 129408, Note_on_c, 0, 82, 92
2, 129470, Note_on_c, 0, 82, 0
2, 129472, Note_on_c, 0, 83, 92
2, 129534, Note_on_c, 0, 83, 0
2, 129536, Note_on_c, 0, 84, 92
2, 129598, Note_on_c, 0, 84, 0
2, 129600, Note_on_c, 0, 85, 92
2, 129662, Note_on_c, 0, 85, 0
2, 129664, Note_on_c, 0, 86, 92
2, 129726, Note_on_c, 0, 86, 0
2, 129728, Note_on_c, 0, 85, 92
2, 129790, Note_on_c, 0, 85, 0
2, 129792, Note_on_c, 0, 84, 92
2, 129854, Note_on_c, 0, 84, 0
2, 129856, Note_on_c, 0, 83, 90
2, 129918, Note_on_c, 0, 83, 0
2, 129920, Note_on_c, 0, 82, 88
2, 129982, Note_on_c, 0, 82, 0
2, 129984, Note_on_c, 0, 81, 86
2, 130046, Note_on_c, 0, 81, 0
2, 130048, Note_on_c, 0, 80, 84
2, 130110, Note_on_c, 0, 80, 0
2, 130112, Note_on_c, 0, 79, 81
2, 130174, Note_on_c, 0, 79, 0
2, 130176, Note_on_c, 0, 78, 78
2, 130238, Note_on_c, 0, 78, 0
2, 130240, Note_on_c, 0, 77, 75
2, 130302, Note_on_c, 0, 77, 0
2, 130304, Note_on_c, 0, 76, 72
2, 130366, Note_on_c, 0, 76, 0
2, 130368, Note_on_c, 0, 75, 69
2, 130430, Note_on_c, 0, 75, 0
2, 130432, Note_on_c, 0, 74, 66
2, 130494, Note_on_c, 0, 74, 0
2, 130496, Note_on_c, 0, 73, 63
2, 130558, Note_on_c, 0, 73, 0
2, 130560, Note_on_c, 0, 72, 60
2, 130896, Note_on_c, 0, 72, 0
2, 130944, Note_on_c, 0, 70, 60
2, 130992, Note_on_c, 0, 70, 0
2, 130992, Note_on_c, 0, 69, 60
2, 131134, Note_on_c, 0, 69, 0
2, 131136, Note_on_c, 0, 67, 60
2, 131184, Note_on_c, 0, 67, 0
2, 131184, Note_on_c, 0, 65, 60
2, 131326, Note_on_c, 0, 65, 0
2, 131328, Note_on_c, 0, 70, 60
2, 131584, Note_on_c, 0, 70, 0
2, 131616, Note_on_c, 0, 67, 60
2, 131710, Note_on_c, 0, 67, 0
2, 131712, Note_on_c, 0, 64, 60
2, 131872, Note_on_c, 0, 64, 0
2, 132096, Note_on_c, 0, 72, 92
2, 132120, Note_on_c, 0, 72, 0
2, 132120, Note_on_c, 0, 84, 92
2, 132448, Note_on_c, 0, 84, 0
2, 132480, Note_on_c, 0, 82, 92
2, 132528, Note_on_c, 0, 82, 0
2, 132528, Note_on_c, 0, 81, 92
2, 132670, Note_on_c, 0, 81, 0
2, 132672, Note_on_c, 0, 79, 92
2, 132720, Note_on_c, 0, 79, 0
2, 132720, Note_on_c, 0, 77, 92
2, 132862, Note_on_c, 0, 77, 0
2, 132864, Note_on_c, 0, 82, 92
2, 133120, Note_on_c, 0, 82, 0
2, 133152, Note_on_c, 0, 79, 92
2, 133246, Note_on_c, 0, 79, 0
2, 133248, Note_on_c, 0, 76, 92
2, 133408, Note_on_c, 0, 76, 0
2, 133536, Note_on_c, 0, 76, 92
2, 133630, Note_on_c, 0, 76, 0
2, 133632, Note_on_c, 0, 81, 92
2, 133728, Note_on_c, 0, 81, 0
2, 133728, Note_on_c, 0, 77, 92
2, 133824, Note_on_c, 0, 77, 0
2, 133824, Note_on_c, 0, 74, 92
2, 133918, Note_on_c, 0, 74, 0
2, 133920, Note_on_c, 0, 74, 92
2, 133952, Note_on_c, 0, 74, 0
2, 134016, Note_on_c, 0, 79, 92
2, 134112, Note_on_c, 0, 79, 0
2, 134112, Note_on_c, 0, 76, 92
2, 134208, Note_on_c, 0, 76, 0
2, 134208, Note_on_c, 0, 72, 92
2, 134302, Note_on_c, 0, 72, 0
2, 134304, Note_on_c, 0, 72, 92
2, 134336, Note_on_c, 0, 72, 0
2, 134400, Note_on_c, 0, 77, 92
2, 134496, Note_on_c, 0, 77, 0
2, 134496, Note_on_c, 0, 74, 92
2, 134592, Note_on_c, 0, 74, 0
2, 134592, Note_on_c, 0, 70, 92
2, 134686, Note_on_c, 0, 70, 0
2, 134688, Note_on_c, 0, 70, 92
2, 134720, Note_on_c, 0, 70, 0
2, 134784, Note_on_c, 0, 76, 92
2, 134880, Note_on_c, 0, 76, 0
2, 134880, Note_on_c, 0, 72, 92
2, 134976, Note_on_c, 0, 72, 0
2, 134976, Note_on_c, 0, 69, 92
2, 135070, Note_on_c, 0, 69, 0
2, 135072, Note_on_c, 0, 69, 92
2, 135104, Note_on_c, 0, 69, 0
2, 135168, Note_on_c, 0, 69, 92
2, 135264, Note_on_c, 0, 69, 0
2, 135264, Note_on_c, 0, 68, 92
2, 135358, Note_on_c, 0, 68, 0
2, 135456, Note_on_c, 0, 68, 92
2, 135488, Note_on_c, 0, 68, 0
2, 135552, Note_on_c, 0, 76, 92
2, 135648, Note_on_c, 0, 76, 0
2, 135648, Note_on_c, 0, 74, 92
2, 135742, Note_on_c, 0, 74, 0
2, 135840, Note_on_c, 0, 74, 92
2, 135872, Note_on_c, 0, 74, 0
2, 135936, Note_on_c, 0, 81, 92
2, 136032, Note_on_c, 0, 81, 0
2, 136032, Note_on_c, 0, 80, 92
2, 136126, Note_on_c, 0, 80, 0
2, 136224, Note_on_c, 0, 80, 92
2, 136256, Note_on_c, 0, 80, 0
2, 136320, Note_on_c, 0, 89, 92
2, 136416, Note_on_c, 0, 89, 0
2, 136416, Note_on_c, 0, 86, 92
2, 136510, Note_on_c, 0, 86, 0
2, 136512, Note_on_c, 0, 89, 92
2, 136608, Note_on_c, 0, 89, 0
2, 136608, Note_on_c, 0, 86, 92
2, 136702, Note_on_c, 0, 86, 0
2, 136704, Note_on_c, 0, 85, 92
2, 136766, Note_on_c, 0, 85, 0
2, 136768, Note_on_c, 0, 88, 92
2, 136830, Note_on_c, 0, 88, 0
2, 136832, Note_on_c, 0, 85, 92
2, 136894, Note_on_c, 0, 85, 0
2, 136896, Note_on_c, 0, 82, 92
2, 136958, Note_on_c, 0, 82, 0
2, 136960, Note_on_c, 0, 81, 92
2, 137022, Note_on_c, 0, 81, 0
2, 137024, Note_on_c, 0, 79, 92
2, 137086, Note_on_c, 0, 79, 0
2, 137088, Note_on_c, 0, 77, 92
2, 137150, Note_on_c, 0, 77, 0
2, 137152, Note_on_c, 0, 81, 92
2, 137214, Note_on_c, 0, 81, 0
2, 137216, Note_on_c, 0, 79, 92
2, 137278, Note_on_c, 0, 79, 0
2, 137280, Note_on_c, 0, 77, 92
2, 137342, Note_on_c, 0, 77, 0
2, 137344, Note_on_c, 0, 76, 92
2, 137406, Note_on_c, 0, 76, 0
2, 137408, Note_on_c, 0, 74, 92
2, 137470, Note_on_c, 0, 74, 0
2, 137472, Note_on_c, 0, 73, 92
2, 137534, Note_on_c, 0, 73, 0
2, 137536, Note_on_c, 0, 76, 92
2, 137598, Note_on_c, 0, 76, 0
2, 137600, Note_on_c, 0, 73, 92
2, 137662, Note_on_c, 0, 73, 0
2, 137664, Note_on_c, 0, 70, 92
2, 137726, Note_on_c, 0, 70, 0
2, 137728, Note_on_c, 0, 69, 92
2, 137790, Note_on_c, 0, 69, 0
2, 137792, Note_on_c, 0, 67, 92
2, 137854, Note_on_c, 0, 67, 0
2, 137856, Note_on_c, 0, 65, 92
2, 137918, Note_on_c, 0, 65, 0
2, 137920, Note_on_c, 0, 69, 92
2, 137982, Note_on_c, 0, 69, 0
2, 137984, Note_on_c, 0, 67, 92
2, 138046, Note_on_c, 0, 67, 0
2, 138048, Note_on_c, 0, 67, 92
2, 138110, Note_on_c, 0, 67, 0
2, 138112, Note_on_c, 0, 64, 92
2, 138174, Note_on_c, 0, 64, 0
2, 138176, Note_on_c, 0, 62, 92
2, 138238, Note_on_c, 0, 62, 0
2, 138240, Note_on_c, 0, 61, 92
2, 138302, Note_on_c, 0, 61, 0
2, 138304, Note_on_c, 0, 64, 92
2, 138366, Note_on_c, 0, 64, 0
2, 138368, Note_on_c, 0, 61, 92
2, 138430, Note_on_c, 0, 61, 0
2, 140544, Note_on_c, 0, 74, 92
2, 140592, Note_on_c, 0, 74, 0
2, 140592, Note_on_c, 0, 81, 92
2, 140640, Note_on_c, 0, 81, 0
2, 140640, Note_on_c, 0, 78, 92
2, 140688, Note_on_c, 0, 78, 0
2, 140688, Note_on_c, 0, 81, 92
2, 140736, Note_on_c, 0, 81, 0
2, 140736, Note_on_c, 0, 74, 92
2, 140784, Note_on_c, 0, 74, 0
2, 140784, Note_on_c, 0, 81, 92
2, 140832, Note_on_c, 0, 81, 0
2, 140832, Note_on_c, 0, 78, 92
2, 140880, Note_on_c, 0, 78, 0
2, 140880, Note_on_c, 0, 81, 92
2, 140928, Note_on_c, 0, 81, 0
2, 140928, Note_on_c, 0, 74, 92
2, 140976, Note_on_c, 0, 74, 0
2, 140976, Note_on_c, 0, 81, 92
2, 141024, Note_on_c, 0, 81, 0
2, 141024, Note_on_c, 0, 78, 92
2, 141072, Note_on_c, 0, 78, 0
2, 141072, Note_on_c, 0, 81, 92
2, 141120, Note_on_c, 0, 81, 0
2, 141120, Note_on_c, 0, 74, 92
2, 141168, Note_on_c, 0, 74, 0
2, 141168, Note_on_c, 0, 81, 92
2, 141216, Note_on_c, 0, 81, 0
2, 141216, Note_on_c, 0, 78, 92
2, 141264, Note_on_c, 0, 78, 0
2, 141264, Note_on_c, 0, 81, 92
2, 141312, Note_on_c, 0, 81, 0
2, 141312, Note_on_c, 0, 76, 92
2, 141360, Note_on_c, 0, 76, 0
2, 141360, Note_on_c, 0, 81, 92
2, 141408, Note_on_c, 0, 81, 0
2, 141408, Note_on_c, 0, 79, 92
2, 141456, Note_on_c, 0, 79, 0
2, 141456, Note_on_c, 0, 81, 92
2, 141504, Note_on_c, 0, 81, 0
2, 141504, Note_on_c, 0, 76, 92
2, 141552, Note_on_c, 0, 76, 0
2, 141552, Note_on_c, 0, 81, 92
2, 141600, Note_on_c, 0, 81, 0
2, 141600, Note_on_c, 0, 79, 92
2, 141648, Note_on_c, 0, 79, 0
2, 141648, Note_on_c, 0, 81, 92
2, 141696, Note_on_c, 0, 81, 0
2, 141696, Note_on_c, 0, 76, 92
2, 141744, Note_on_c, 0, 76, 0
2, 141744, Note_on_c, 0, 81, 92
2, 141792, Note_on_c, 0, 81, 0
2, 141792, Note_on_c, 0, 79, 92
2, 141840, Note_on_c, 0, 79, 0
2, 141840, Note_on_c, 0, 81, 92
2, 141888, Note_on_c, 0, 81, 0
2, 141888, Note_on_c, 0, 76, 92
2, 141936, Note_on_c, 0, 76, 0
2, 141936, Note_on_c, 0, 81, 92
2, 141984, Note_on_c, 0, 81, 0
2, 141984, Note_on_c, 0, 79, 92
2, 142032, Note_on_c, 0, 79, 0
2, 142032, Note_on_c, 0, 81, 92
2, 142080, Note_on_c, 0, 81, 0
2, 142080, Note_on_c, 0, 74, 92
2, 142128, Note_on_c, 0, 74, 0
2, 142128, Note_on_c, 0, 81, 92
2, 142176, Note_on_c, 0, 81, 0
2, 142176, Note_on_c, 0, 78, 92
2, 142224, Note_on_c, 0, 78, 0
2, 142224, Note_on_c, 0, 81, 92
2, 142272, Note_on_c, 0, 81, 0
2, 142272, Note_on_c, 0, 74, 92
2, 142320, Note_on_c, 0, 74, 0
2, 142320, Note_on_c, 0, 81, 92
2, 142368, Note_on_c, 0, 81, 0
2, 142368, Note_on_c, 0, 78, 92
2, 142416, Note_on_c, 0, 78, 0
2, 142416, Note_on_c, 0, 81, 92
2, 142464, Note_on_c, 0, 81, 0
2, 142464, Note_on_c, 0, 74, 92
2, 142512, Note_on_c, 0, 74, 0
2, 142512, Note_on_c, 0, 81, 92
2, 142560, Note_on_c, 0, 81, 0
2, 142560, Note_on_c, 0, 78, 92
2, 142608, Note_on_c, 0, 78, 0
2, 142608, Note_on_c, 0, 81, 92
2, 142656, Note_on_c, 0, 81, 0
2, 142656, Note_on_c, 0, 74, 92
2, 142704, Note_on_c, 0, 74, 0
2, 142704, Note_on_c, 0, 81, 92
2, 142752, Note_on_c, 0, 81, 0
2, 142752, Note_on_c, 0, 78, 92
2, 142800, Note_on_c, 0, 78, 0
2, 142800, Note_on_c, 0, 81, 92
2, 142848, Note_on_c, 0, 81, 0
2, 142848, Note_on_c, 0, 76, 92
2, 142896, Note_on_c, 0, 76, 0
2, 142896, Note_on_c, 0, 82, 92
2, 142944, Note_on_c, 0, 82, 0
2, 142944, Note_on_c, 0, 79, 92
2, 142992, Note_on_c, 0, 79, 0
2, 142992, Note_on_c, 0, 82, 92
2, 143040, Note_on_c, 0, 82, 0
2, 143040, Note_on_c, 0, 76, 92
2, 143088, Note_on_c, 0, 76, 0
2, 143088, Note_on_c, 0, 82, 92
2, 143136, Note_on_c, 0, 82, 0
2, 143136, Note_on_c, 0, 79, 92
2, 143184, Note_on_c, 0, 79, 0
2, 143184, Note_on_c, 0, 82, 92
2, 143232, Note_on_c, 0, 82, 0
2, 143232, Note_on_c, 0, 76, 92
2, 143280, Note_on_c, 0, 76, 0
2, 143280, Note_on_c, 0, 82, 92
2, 143328, Note_on_c, 0, 82, 0
2, 143328, Note_on_c, 0, 79, 92
2, 143376, Note_on_c, 0, 79, 0
2, 143376, Note_on_c, 0, 82, 92
2, 143424, Note_on_c, 0, 82, 0
2, 143424, Note_on_c, 0, 76, 92
2, 143472, Note_on_c, 0, 76, 0
2, 143472, Note_on_c, 0, 82, 92
2, 143520, Note_on_c, 0, 82, 0
2, 143520, Note_on_c, 0, 79, 92
2, 143568, Note_on_c, 0, 79, 0
2, 143568, Note_on_c, 0, 82, 92
2, 143614, Note_on_c, 0, 82, 0
2, 143616, Note_on_c, 0, 74, 92
2, 143664, Note_on_c, 0, 74, 0
2, 143664, Note_on_c, 0, 83, 92
2, 143712, Note_on_c, 0, 83, 0
2, 143712, Note_on_c, 0, 78, 92
2, 143760, Note_on_c, 0, 78, 0
2, 143760, Note_on_c, 0, 83, 92
2, 143808, Note_on_c, 0, 83, 0
2, 143808, Note_on_c, 0, 74, 92
2, 143856, Note_on_c, 0, 74, 0
2, 143856, Note_on_c, 0, 83, 92
2, 143904, Note_on_c, 0, 83, 0
2, 143904, Note_on_c, 0, 78, 92
2, 143952, Note_on_c, 0, 78, 0
2, 143952, Note_on_c, 0, 83, 92
2, 144000, Note_on_c, 0, 83, 0
2, 144000, Note_on_c, 0, 74, 92
2, 144048, Note_on_c, 0, 74, 0
2, 144048, Note_on_c, 0, 83, 92
2, 144096, Note_on_c, 0, 83, 0
2, 144096, Note_on_c, 0, 78, 92
2, 144144, Note_on_c, 0, 78, 0
2, 144144, Note_on_c, 0, 83, 92
2, 144192, Note_on_c, 0, 83, 0
2, 144192, Note_on_c, 0, 74, 92
2, 144240, Note_on_c, 0, 74, 0
2, 144240, Note_on_c, 0, 83, 92
2, 144288, Note_on_c, 0, 83, 0
2, 144288, Note_on_c, 0, 78, 92
2, 144336, Note_on_c, 0, 78, 0
2, 144336, Note_on_c, 0, 83, 92
2, 144384, Note_on_c, 0, 83, 0
2, 144384, Note_on_c, 0, 75, 92
2, 144432, Note_on_c, 0, 75, 0
2, 144432, Note_on_c, 0, 84, 92
2, 144480, Note_on_c, 0, 84, 0
2, 144480, Note_on_c, 0, 78, 92
2, 144528, Note_on_c, 0, 78, 0
2, 144528, Note_on_c, 0, 84, 92
2, 144576, Note_on_c, 0, 84, 0
2, 144576, Note_on_c, 0, 75, 92
2, 144624, Note_on_c, 0, 75, 0
2, 144624, Note_on_c, 0, 84, 92
2, 144672, Note_on_c, 0, 84, 0
2, 144672, Note_on_c, 0, 78, 92
2, 144720, Note_on_c, 0, 78, 0
2, 144720, Note_on_c, 0, 84, 92
2, 144768, Note_on_c, 0, 84, 0
2, 144768, Note_on_c, 0, 75, 92
2, 144816, Note_on_c, 0, 75, 0
2, 144816, Note_on_c, 0, 84, 92
2, 144864, Note_on_c, 0, 84, 0
2, 144864, Note_on_c, 0, 78, 92
2, 144912, Note_on_c, 0, 78, 0
2, 144912, Note_on_c, 0, 84, 92
2, 144960, Note_on_c, 0, 84, 0
2, 144960, Note_on_c, 0, 75, 92
2, 145008, Note_on_c, 0, 75, 0
2, 145008, Note_on_c, 0, 84, 92
2, 145056, Note_on_c, 0, 84, 0
2, 145056, Note_on_c, 0, 78, 92
2, 145104, Note_on_c, 0, 78, 0
2, 145104, Note_on_c, 0, 84, 92
2, 145150, Note_on_c, 0, 84, 0
2, 145152, Note_on_c, 0, 76, 92
2, 145200, Note_on_c, 0, 76, 0
2, 145200, Note_on_c, 0, 83, 92
2, 145248, Note_on_c, 0, 83, 0
2, 145248, Note_on_c, 0, 79, 92
2, 145296, Note_on_c, 0, 79, 0
2, 145296, Note_on_c, 0, 83, 92
2, 145344, Note_on_c, 0, 83, 0
2, 145344, Note_on_c, 0, 76, 92
2, 145392, Note_on_c, 0, 76, 0
2, 145392, Note_on_c, 0, 83, 92
2, 145440, Note_on_c, 0, 83, 0
2, 145440, Note_on_c, 0, 79, 92
2, 145488, Note_on_c, 0, 79, 0
2, 145488, Note_on_c, 0, 83, 92
2, 145534, Note_on_c, 0, 83, 0
2, 145536, Note_on_c, 0, 75, 92
2, 145584, Note_on_c, 0, 75, 0
2, 145584, Note_on_c, 0, 84, 92
2, 145632, Note_on_c, 0, 84, 0
2, 145632, Note_on_c, 0, 78, 92
2, 145680, Note_on_c, 0, 78, 0
2, 145680, Note_on_c, 0, 84, 92
2, 145728, Note_on_c, 0, 84, 0
2, 145728, Note_on_c, 0, 75, 92
2, 145776, Note_on_c, 0, 75, 0
2, 145776, Note_on_c, 0, 84, 92
2, 145824, Note_on_c, 0, 84, 0
2, 145824, Note_on_c, 0, 78, 92
2, 145872, Note_on_c, 0, 78, 0
2, 145872, Note_on_c, 0, 84, 92
2, 145918, Note_on_c, 0, 84, 0
2, 145920, Note_on_c, 0, 76, 92
2, 145968, Note_on_c, 0, 76, 0
2, 145968, Note_on_c, 0, 83, 92
2, 146016, Note_on_c, 0, 83, 0
2, 146016, Note_on_c, 0, 79, 92
2, 146064, Note_on_c, 0, 79, 0
2, 146064, Note_on_c, 0, 83, 92
2, 146112, Note_on_c, 0, 83, 0
2, 146112, Note_on_c, 0, 76, 92
2, 146160, Note_on_c, 0, 76, 0
2, 146160, Note_on_c, 0, 83, 92
2, 146208, Note_on_c, 0, 83, 0
2, 146208, Note_on_c, 0, 79, 92
2, 146256, Note_on_c, 0, 79, 0
2, 146256, Note_on_c, 0, 83, 92
2, 146302, Note_on_c, 0, 83, 0
2, 146304, Note_on_c, 0, 75, 92
2, 146352, Note_on_c, 0, 75, 0
2, 146352, Note_on_c, 0, 84, 92
2, 146400, Note_on_c, 0, 84, 0
2, 146400, Note_on_c, 0, 78, 92
2, 146448, Note_on_c, 0, 78, 0
2, 146448, Note_on_c, 0, 84, 92
2, 146496, Note_on_c, 0, 84, 0
2, 146496, Note_on_c, 0, 75, 92
2, 146544, Note_on_c, 0, 75, 0
2, 146544, Note_on_c, 0, 84, 92
2, 146592, Note_on_c, 0, 84, 0
2, 146592, Note_on_c, 0, 78, 92
2, 146640, Note_on_c, 0, 78, 0
2, 146640, Note_on_c, 0, 84, 92
2, 146686, Note_on_c, 0, 84, 0
2, 146688, Note_on_c, 0, 83, 92
2, 146736, Note_on_c, 0, 83, 0
2, 146736, Note_on_c, 0, 85, 92
2, 146784, Note_on_c, 0, 85, 0
2, 146784, Note_on_c, 0, 86, 92
2, 146832, Note_on_c, 0, 86, 0
2, 146832, Note_on_c, 0, 85, 92
2, 146880, Note_on_c, 0, 85, 0
2, 146880, Note_on_c, 0, 83, 92
2, 146928, Note_on_c, 0, 83, 0
2, 146928, Note_on_c, 0, 81, 92
2, 146976, Note_on_c, 0, 81, 0
2, 146976, Note_on_c, 0, 79, 92
2, 147024, Note_on_c, 0, 79, 0
2, 147024, Note_on_c, 0, 78, 92
2, 147072, Note_on_c, 0, 78, 0
2, 147072, Note_on_c, 0, 76, 92
2, 147120, Note_on_c, 0, 76, 0
2, 147120, Note_on_c, 0, 78, 92
2, 147168, Note_on_c, 0, 78, 0
2, 147168, Note_on_c, 0, 79, 92
2, 147216, Note_on_c, 0, 79, 0
2, 147216, Note_on_c, 0, 78, 92
2, 147264, Note_on_c, 0, 78, 0
2, 147264, Note_on_c, 0, 76, 92
2, 147312, Note_on_c, 0, 76, 0
2, 147312, Note_on_c, 0, 74, 92
2, 147360, Note_on_c, 0, 74, 0
2, 147360, Note_on_c, 0, 73, 92
2, 147408, Note_on_c, 0, 73, 0
2, 147408, Note_on_c, 0, 71, 92
2, 147456, Note_on_c, 0, 71, 0
2, 147456, Note_on_c, 0, 69, 92
2, 147550, Note_on_c, 0, 69, 0
2, 147552, Note_on_c, 0, 71, 92
2, 147600, Note_on_c, 0, 71, 0
2, 147600, Note_on_c, 0, 73, 92
2, 147648, Note_on_c, 0, 73, 0
2, 147648, Note_on_c, 0, 74, 92
2, 147696, Note_on_c, 0, 74, 0
2, 147696, Note_on_c, 0, 76, 92
2, 147744, Note_on_c, 0, 76, 0
2, 147744, Note_on_c, 0, 78, 92
2, 147792, Note_on_c, 0, 78, 0
2, 147792, Note_on_c, 0, 79, 92
2, 147840, Note_on_c, 0, 79, 0
2, 147840, Note_on_c, 0, 81, 92
2, 147888, Note_on_c, 0, 81, 0
2, 147888, Note_on_c, 0, 79, 92
2, 147936, Note_on_c, 0, 79, 0
2, 147936, Note_on_c, 0, 78, 92
2, 147984, Note_on_c, 0, 78, 0
2, 147984, Note_on_c, 0, 79, 92
2, 148032, Note_on_c, 0, 79, 0
2, 148032, Note_on_c, 0, 81, 92
2, 148080, Note_on_c, 0, 81, 0
2, 148080, Note_on_c, 0, 83, 92
2, 148128, Note_on_c, 0, 83, 0
2, 148128, Note_on_c, 0, 85, 92
2, 148176, Note_on_c, 0, 85, 0
2, 148176, Note_on_c, 0, 86, 92
2, 148222, Note_on_c, 0, 86, 0
2, 148224, Note_on_c, 0, 74, 92
2, 148246, Note_on_c, 0, 74, 0
2, 148248, Note_on_c, 0, 76, 92
2, 148270, Note_on_c, 0, 76, 0
2, 148272, Note_on_c, 0, 78, 92
2, 148272, Note_on_c, 0, 78, 92
2, 148294, Note_on_c, 0, 78, 0
2, 148296, Note_on_c, 0, 76, 92
2, 148318, Note_on_c, 0, 78, 0
2, 148320, Note_on_c, 0, 79, 92
2, 148366, Note_on_c, 0, 79, 0
2, 148368, Note_on_c, 0, 78, 92
2, 148414, Note_on_c, 0, 78, 0
2, 148416, Note_on_c, 0, 79, 92
2, 148462, Note_on_c, 0, 79, 0
2, 148464, Note_on_c, 0, 78, 92
2, 148510, Note_on_c, 0, 78, 0
2, 148512, Note_on_c, 0, 79, 92
2, 148558, Note_on_c, 0, 79, 0
2, 148560, Note_on_c, 0, 78, 92
2, 148606, Note_on_c, 0, 78, 0
2, 148608, Note_on_c, 0, 79, 92
2, 148654, Note_on_c, 0, 79, 0
2, 148656, Note_on_c, 0, 78, 92
2, 148702, Note_on_c, 0, 78, 0
2, 148704, Note_on_c, 0, 79, 92
2, 148750, Note_on_c, 0, 79, 0
2, 148752, Note_on_c, 0, 78, 92
2, 148798, Note_on_c, 0, 78, 0
2, 148800, Note_on_c, 0, 79, 92
2, 148846, Note_on_c, 0, 79, 0
2, 148848, Note_on_c, 0, 78, 92
2, 148894, Note_on_c, 0, 78, 0
2, 148896, Note_on_c, 0, 79, 92
2, 148942, Note_on_c, 0, 79, 0
2, 148944, Note_on_c, 0, 76, 0
2, 148944, Note_on_c, 0, 78, 92
2, 148990, Note_on_c, 0, 78, 0
2, 148992, Note_on_c, 0, 74, 92
2, 149014, Note_on_c, 0, 74, 0
2, 149016, Note_on_c, 0, 76, 92
2, 149038, Note_on_c, 0, 76, 0
2, 149040, Note_on_c, 0, 74, 92
2, 149182, Note_on_c, 0, 74, 0
2, 149376, Note_on_c, 0, 74, 45
2, 149520, Note_on_c, 0, 74, 0
2, 149520, Note_on_c, 0, 70, 45
2, 149566, Note_on_c, 0, 70, 0
2, 149568, Note_on_c, 0, 74, 45
2, 149712, Note_on_c, 0, 74, 0
2, 149712, Note_on_c, 0, 70, 45
2, 149758, Note_on_c, 0, 70, 0
2, 149760, Note_on_c, 0, 75, 45
2, 149920, Note_on_c, 0, 75, 0
2, 150144, Note_on_c, 0, 75, 45
2, 150288, Note_on_c, 0, 75, 0
2, 150288, Note_on_c, 0, 72, 45
2, 150334, Note_on_c, 0, 72, 0
2, 150336, Note_on_c, 0, 75, 45
2, 150480, Note_on_c, 0, 75, 0
2, 150480, Note_on_c, 0, 72, 45
2, 150526, Note_on_c, 0, 72, 0
2, 150528, Note_on_c, 0, 77, 45
2, 150864, Note_on_c, 0, 77, 0
2, 150912, Note_on_c, 0, 75, 45
2, 150960, Note_on_c, 0, 75, 0
2, 150960, Note_on_c, 0, 74, 45
2, 151102, Note_on_c, 0, 74, 0
2, 151104, Note_on_c, 0, 72, 45
2, 151152, Note_on_c, 0, 72, 0
2, 151152, Note_on_c, 0, 70, 45
2, 151294, Note_on_c, 0, 70, 0
2, 151296, Note_on_c, 0, 75, 45
2, 151552, Note_on_c, 0, 75, 0
2, 151584, Note_on_c, 0, 72, 50
2, 151678, Note_on_c, 0, 72, 0
2, 151680, Note_on_c, 0, 69, 52
2, 151840, Note_on_c, 0, 69, 0
2, 152064, Note_on_c, 0, 77, 60
2, 152400, Note_on_c, 0, 77, 0
2, 152448, Note_on_c, 0, 75, 68
2, 152494, Note_on_c, 0, 75, 0
2, 152496, Note_on_c, 0, 74, 69
2, 152638, Note_on_c, 0, 74, 0
2, 152640, Note_on_c, 0, 72, 71
2, 152688, Note_on_c, 0, 72, 0
2, 152688, Note_on_c, 0, 70, 72
2, 152830, Note_on_c, 0, 70, 0
2, 152832, Note_on_c, 0, 75, 75
2, 153120, Note_on_c, 0, 75, 0
2, 153120, Note_on_c, 0, 72, 81
2, 153216, Note_on_c, 0, 72, 0
2, 153216, Note_on_c, 0, 69, 83
2, 153376, Note_on_c, 0, 69, 0
2, 153600, Note_on_c, 0, 74, 92
2, 153744, Note_on_c, 0, 74, 0
2, 153744, Note_on_c, 0, 70, 92
2, 153790, Note_on_c, 0, 70, 0
2, 153792, Note_on_c, 0, 77, 92
2, 153886, Note_on_c, 0, 77, 0
2, 153888, Note_on_c, 0, 77, 92
2, 153920, Note_on_c, 0, 77, 0
2, 153984, Note_on_c, 0, 74, 92
2, 154126, Note_on_c, 0, 74, 0
2, 154128, Note_on_c, 0, 70, 92
2, 154174, Note_on_c, 0, 70, 0
2, 154176, Note_on_c, 0, 77, 92
2, 154270, Note_on_c, 0, 77, 0
2, 154272, Note_on_c, 0, 77, 92
2, 154304, Note_on_c, 0, 77, 0
2, 154368, Note_on_c, 0, 74, 92
2, 154512, Note_on_c, 0, 74, 0
2, 154512, Note_on_c, 0, 69, 92
2, 154560, Note_on_c, 0, 69, 0
2, 154560, Note_on_c, 0, 77, 92
2, 154654, Note_on_c, 0, 77, 0
2, 154656, Note_on_c, 0, 77, 92
2, 154688, Note_on_c, 0, 77, 0
2, 154752, Note_on_c, 0, 74, 92
2, 154896, Note_on_c, 0, 74, 0
2, 154896, Note_on_c, 0, 68, 92
2, 154944, Note_on_c, 0, 68, 0
2, 154944, Note_on_c, 0, 77, 92
2, 155040, Note_on_c, 0, 77, 0
2, 155040, Note_on_c, 0, 77, 92
2, 155072, Note_on_c, 0, 77, 0
2, 155184, Note_on_c, 0, 57, 92
2, 155232, Note_on_c, 0, 57, 0
2, 155232, Note_on_c, 0, 59, 92
2, 155280, Note_on_c, 0, 59, 0
2, 155280, Note_on_c, 0, 61, 92
2, 155328, Note_on_c, 0, 61, 0
2, 155328, Note_on_c, 0, 62, 92
2, 155376, Note_on_c, 0, 62, 0
2, 155376, Note_on_c, 0, 64, 92
2, 155424, Note_on_c, 0, 64, 0
2, 155424, Note_on_c, 0, 66, 92
2, 155472, Note_on_c, 0, 66, 0
2, 155472, Note_on_c, 0, 67, 92
2, 155520, Note_on_c, 0, 67, 0
2, 155520, Note_on_c, 0, 69, 92
2, 155568, Note_on_c, 0, 69, 0
2, 155568, Note_on_c, 0, 62, 92
2, 155616, Note_on_c, 0, 62, 0
2, 155616, Note_on_c, 0, 64, 92
2, 155664, Note_on_c, 0, 64, 0
2, 155664, Note_on_c, 0, 66, 92
2, 155712, Note_on_c, 0, 66, 0
2, 155712, Note_on_c, 0, 67, 92
2, 155760, Note_on_c, 0, 67, 0
2, 155760, Note_on_c, 0, 69, 92
2, 155808, Note_on_c, 0, 69, 0
2, 155808, Note_on_c, 0, 71, 92
2, 155856, Note_on_c, 0, 71, 0
2, 155856, Note_on_c, 0, 73, 92
2, 155904, Note_on_c, 0, 73, 0
2, 155904, Note_on_c, 0, 74, 92
2, 155952, Note_on_c, 0, 74, 0
2, 155952, Note_on_c, 0, 69, 92
2, 156000, Note_on_c, 0, 69, 0
2, 156000, Note_on_c, 0, 71, 92
2, 156048, Note_on_c, 0, 71, 0
2, 156048, Note_on_c, 0, 73, 92
2, 156096, Note_on_c, 0, 73, 0
2, 156096, Note_on_c, 0, 74, 92
2, 156144, Note_on_c, 0, 74, 0
2, 156144, Note_on_c, 0, 76, 92
2, 156192, Note_on_c, 0, 76, 0
2, 156192, Note_on_c, 0, 78, 92
2, 156240, Note_on_c, 0, 78, 0
2, 156240, Note_on_c, 0, 79, 92
2, 156288, Note_on_c, 0, 79, 0
2, 156288, Note_on_c, 0, 81, 92
2, 156336, Note_on_c, 0, 81, 0
2, 156336, Note_on_c, 0, 74, 92
2, 156384, Note_on_c, 0, 74, 0
2, 156384, Note_on_c, 0, 76, 92
2, 156432, Note_on_c, 0, 76, 0
2, 156432, Note_on_c, 0, 78, 92
2, 156480, Note_on_c, 0, 78, 0
2, 156480, Note_on_c, 0, 79, 92
2, 156528, Note_on_c, 0, 79, 0
2, 156528, Note_on_c, 0, 81, 92
2, 156576, Note_on_c, 0, 81, 0
2, 156576, Note_on_c, 0, 83, 92
2, 156624, Note_on_c, 0, 83, 0
2, 156624, Note_on_c, 0, 85, 92
2, 156672, Note_on_c, 0, 85, 0
2, 156672, Note_on_c, 0, 86, 92
2, 156768, Note_on_c, 0, 86, 0
2, 156768, Note_on_c, 0, 85, 92
2, 156862, Note_on_c, 0, 85, 0
2, 156864, Note_on_c, 0, 83, 92
2, 156888, Note_on_c, 0, 85, 92
2, 156910, Note_on_c, 0, 85, 0
2, 156912, Note_on_c, 0, 86, 92
2, 156934, Note_on_c, 0, 86, 0
2, 156936, Note_on_c, 0, 85, 92
2, 156958, Note_on_c, 0, 83, 0
2, 156958, Note_on_c, 0, 85, 0
2, 156960, Note_on_c, 0, 81, 92
2, 157054, Note_on_c, 0, 81, 0
2, 157056, Note_on_c, 0, 79, 92
2, 157080, Note_on_c, 0, 81, 92
2, 157102, Note_on_c, 0, 81, 0
2, 157104, Note_on_c, 0, 83, 92
2, 157126, Note_on_c, 0, 83, 0
2, 157128, Note_on_c, 0, 81, 92
2, 157150, Note_on_c, 0, 79, 0
2, 157150, Note_on_c, 0, 81, 0
2, 157152, Note_on_c, 0, 78, 92
2, 157246, Note_on_c, 0, 78, 0
2, 157248, Note_on_c, 0, 76, 92
2, 157272, Note_on_c, 0, 78, 92
2, 157294, Note_on_c, 0, 78, 0
2, 157296, Note_on_c, 0, 79, 92
2, 157318, Note_on_c, 0, 79, 0
2, 157320, Note_on_c, 0, 78, 92
2, 157342, Note_on_c, 0, 76, 0
2, 157342, Note_on_c, 0, 78, 0
2, 157344, Note_on_c, 0, 74, 92
2, 157438, Note_on_c, 0, 74, 0
2, 157440, Note_on_c, 0, 76, 92
2, 157488, Note_on_c, 0, 78, 92
2, 157534, Note_on_c, 0, 78, 0
2, 157536, Note_on_c, 0, 79, 92
2, 157582, Note_on_c, 0, 79, 0
2, 157584, Note_on_c, 0, 78, 92
2, 157630, Note_on_c, 0, 78, 0
2, 157632, Note_on_c, 0, 79, 92
2, 157678, Note_on_c, 0, 79, 0
2, 157680, Note_on_c, 0, 78, 92
2, 157726, Note_on_c, 0, 78, 0
2, 157728, Note_on_c, 0, 79, 92
2, 157774, Note_on_c, 0, 79, 0
2, 157776, Note_on_c, 0, 78, 92
2, 157822, Note_on_c, 0, 78, 0
2, 157824, Note_on_c, 0, 79, 92
2, 157870, Note_on_c, 0, 79, 0
2, 157872, Note_on_c, 0, 78, 92
2, 157918, Note_on_c, 0, 78, 0
2, 157920, Note_on_c, 0, 79, 92
2, 157966, Note_on_c, 0, 79, 0
2, 157968, Note_on_c, 0, 78, 92
2, 158014, Note_on_c, 0, 78, 0
2, 158016, Note_on_c, 0, 79, 92
2, 158062, Note_on_c, 0, 79, 0
2, 158064, Note_on_c, 0, 78, 92
2, 158110, Note_on_c, 0, 78, 0
2, 158112, Note_on_c, 0, 79, 92
2, 158158, Note_on_c, 0, 79, 0
2, 158160, Note_on_c, 0, 76, 0
2, 158160, Note_on_c, 0, 78, 92
2, 158206, Note_on_c, 0, 78, 0
2, 158208, Note_on_c, 0, 74, 92
2, 158230, Note_on_c, 0, 74, 0
2, 158232, Note_on_c, 0, 76, 92
2, 158254, Note_on_c, 0, 76, 0
2, 158256, Note_on_c, 0, 74, 45
2, 158398, Note_on_c, 0, 74, 0
2, 158688, Note_on_c, 0, 74, 45
2, 158720, Note_on_c, 0, 74, 0
2, 158784, Note_on_c, 0, 76, 45
2, 158816, Note_on_c, 0, 76, 0
2, 158880, Note_on_c, 0, 78, 45
2, 158912, Note_on_c, 0, 78, 0
2, 158976, Note_on_c, 0, 79, 45
2, 159360, Note_on_c, 0, 79, 0
2, 159360, Note_on_c, 0, 78, 45
2, 159456, Note_on_c, 0, 78, 0
2, 159456, Note_on_c, 0, 76, 45
2, 159552, Note_on_c, 0, 76, 0
2, 159552, Note_on_c, 0, 74, 45
2, 159648, Note_on_c, 0, 74, 0
2, 159648, Note_on_c, 0, 73, 45
2, 159744, Note_on_c, 0, 73, 0
2, 159744, Note_on_c, 0, 81, 45
2, 160032, Note_on_c, 0, 81, 0
2, 160032, Note_on_c, 0, 78, 45
2, 160128, Note_on_c, 0, 78, 0
2, 160128, Note_on_c, 0, 74, 45
2, 160222, Note_on_c, 0, 74, 0
2, 160224, Note_on_c, 0, 74, 45
2, 160256, Note_on_c, 0, 74, 0
2, 160320, Note_on_c, 0, 76, 45
2, 160352, Note_on_c, 0, 76, 0
2, 160416, Note_on_c, 0, 78, 45
2, 160448, Note_on_c, 0, 78, 0
2, 160512, Note_on_c, 0, 81, 45
2, 160608, Note_on_c, 0, 81, 0
2, 160608, Note_on_c, 0, 79, 45
2, 160800, Note_on_c, 0, 79, 0
2, 160800, Note_on_c, 0, 81, 45
2, 160848, Note_on_c, 0, 81, 0
2, 160848, Note_on_c, 0, 79, 45
2, 160896, Note_on_c, 0, 79, 0
2, 160896, Note_on_c, 0, 78, 45
2, 160992, Note_on_c, 0, 78, 0
2, 160992, Note_on_c, 0, 76, 45
2, 161088, Note_on_c, 0, 76, 0
2, 161088, Note_on_c, 0, 74, 45
2, 161184, Note_on_c, 0, 74, 0
2, 161184, Note_on_c, 0, 73, 45
2, 161280, Note_on_c, 0, 73, 0
2, 161280, Note_on_c, 0, 81, 45
2, 161472, Note_on_c, 0, 81, 0
2, 161472, Note_on_c, 0, 81, 50
2, 161520, Note_on_c, 0, 81, 0
2, 161520, Note_on_c, 0, 78, 51
2, 161568, Note_on_c, 0, 78, 0
2, 161568, Note_on_c, 0, 81, 52
2, 161616, Note_on_c, 0, 81, 0
2, 161616, Note_on_c, 0, 78, 53
2, 161662, Note_on_c, 0, 78, 0
2, 161664, Note_on_c, 0, 74, 54
2, 161758, Note_on_c, 0, 74, 0
2, 161760, Note_on_c, 0, 74, 57
2, 161792, Note_on_c, 0, 74, 0
2, 161856, Note_on_c, 0, 76, 60
2, 161888, Note_on_c, 0, 76, 0
2, 161952, Note_on_c, 0, 78, 63
2, 161984, Note_on_c, 0, 78, 0
2, 162048, Note_on_c, 0, 79, 66
2, 162080, Note_on_c, 0, 79, 0
2, 162144, Note_on_c, 0, 81, 69
2, 162168, Note_on_c, 0, 81, 0
2, 162168, Note_on_c, 0, 79, 69
2, 162190, Note_on_c, 0, 79, 0
2, 162192, Note_on_c, 0, 78, 70
2, 162238, Note_on_c, 0, 78, 0
2, 162240, Note_on_c, 0, 79, 71
2, 162334, Note_on_c, 0, 79, 0
2, 162336, Note_on_c, 0, 80, 74
2, 162368, Note_on_c, 0, 80, 0
2, 162432, Note_on_c, 0, 81, 77
2, 162464, Note_on_c, 0, 81, 0
2, 162528, Note_on_c, 0, 83, 80
2, 162552, Note_on_c, 0, 83, 0
2, 162552, Note_on_c, 0, 81, 80
2, 162574, Note_on_c, 0, 81, 0
2, 162576, Note_on_c, 0, 80, 82
2, 162622, Note_on_c, 0, 80, 0
2, 162624, Note_on_c, 0, 81, 84
2, 162718, Note_on_c, 0, 81, 0
2, 162720, Note_on_c, 0, 82, 88
2, 162752, Note_on_c, 0, 82, 0
2, 162816, Note_on_c, 0, 83, 92
2, 162880, Note_on_c, 0, 83, 0
2, 162880, Note_on_c, 0, 85, 92
2, 162944, Note_on_c, 0, 85, 0
2, 162944, Note_on_c, 0, 86, 92
2, 163008, Note_on_c, 0, 86, 0
2, 163008, Note_on_c, 0, 85, 92
2, 163072, Note_on_c, 0, 85, 0
2, 163072, Note_on_c, 0, 83, 92
2, 163136, Note_on_c, 0, 83, 0
2, 163136, Note_on_c, 0, 81, 92
2, 163200, Note_on_c, 0, 81, 0
2, 163200, Note_on_c, 0, 79, 92
2, 163264, Note_on_c, 0, 79, 0
2, 163264, Note_on_c, 0, 81, 92
2, 163328, Note_on_c, 0, 81, 0
2, 163328, Note_on_c, 0, 79, 92
2, 163392, Note_on_c, 0, 79, 0
2, 163392, Note_on_c, 0, 78, 92
2, 163456, Note_on_c, 0, 78, 0
2, 163456, Note_on_c, 0, 76, 92
2, 163520, Note_on_c, 0, 76, 0
2, 163520, Note_on_c, 0, 74, 92
2, 163582, Note_on_c, 0, 74, 0
2, 163584, Note_on_c, 0, 74, 92
2, 163678, Note_on_c, 0, 74, 0
2, 163680, Note_on_c, 0, 73, 92
2, 163774, Note_on_c, 0, 73, 0
2, 163776, Note_on_c, 0, 73, 92
2, 163918, Note_on_c, 0, 73, 0
2, 163920, Note_on_c, 0, 73, 92
2, 163966, Note_on_c, 0, 73, 0
2, 163968, Note_on_c, 0, 73, 92
2, 164128, Note_on_c, 0, 73, 0
2, 164160, Note_on_c, 0, 73, 92
2, 164352, Note_on_c, 0, 73, 0
2, 164352, Note_on_c, 0, 74, 92
2, 164512, Note_on_c, 0, 74, 0
2, 165888, Note_on_c, 0, 69, 45
2, 166224, Note_on_c, 0, 69, 0
2, 166272, Note_on_c, 0, 67, 45
2, 166320, Note_on_c, 0, 67, 0
2, 166320, Note_on_c, 0, 66, 45
2, 166462, Note_on_c, 0, 66, 0
2, 166464, Note_on_c, 0, 64, 45
2, 166512, Note_on_c, 0, 64, 0
2, 166512, Note_on_c, 0, 62, 45
2, 166654, Note_on_c, 0, 62, 0
2, 166656, Note_on_c, 0, 62, 45
2, 166750, Note_on_c, 0, 62, 0
2, 166752, Note_on_c, 0, 61, 45
2, 166846, Note_on_c, 0, 61, 0
2, 166848, Note_on_c, 0, 61, 45
2, 166990, Note_on_c, 0, 61, 0
2, 166992, Note_on_c, 0, 61, 45
2, 167038, Note_on_c, 0, 61, 0
2, 167040, Note_on_c, 0, 61, 45
2, 167200, Note_on_c, 0, 61, 0
2, 167232, Note_on_c, 0, 61, 45
2, 167424, Note_on_c, 0, 61, 0
2, 167424, Note_on_c, 0, 62, 45
2, 167584, Note_on_c, 0, 62, 0
2, 168192, Note_on_c, 0, 67, 45
2, 168528, Note_on_c, 0, 67, 0
2, 168576, Note_on_c, 0, 66, 52
2, 168624, Note_on_c, 0, 66, 0
2, 168624, Note_on_c, 0, 64, 53
2, 168766, Note_on_c, 0, 64, 0
2, 168768, Note_on_c, 0, 62, 56
2, 168816, Note_on_c, 0, 62, 0
2, 168816, Note_on_c, 0, 61, 57
2, 168958, Note_on_c, 0, 61, 0
2, 168960, Note_on_c, 0, 81, 60
2, 169296, Note_on_c, 0, 81, 0
2, 169344, Note_on_c, 0, 79, 60
2, 169392, Note_on_c, 0, 79, 0
2, 169392, Note_on_c, 0, 78, 60
2, 169534, Note_on_c, 0, 78, 0
2, 169536, Note_on_c, 0, 76, 60
2, 169584, Note_on_c, 0, 76, 0
2, 169584, Note_on_c, 0, 74, 60
2, 169726, Note_on_c, 0, 74, 0
2, 169728, Note_on_c, 0, 74, 60
2, 169822, Note_on_c, 0, 74, 0
2, 169824, Note_on_c, 0, 73, 60
2, 169918, Note_on_c, 0, 73, 0
2, 169920, Note_on_c, 0, 73, 60
2, 170062, Note_on_c, 0, 73, 0
2, 170064, Note_on_c, 0, 73, 60
2, 170110, Note_on_c, 0, 73, 0
2, 170112, Note_on_c, 0, 73, 60
2, 170272, Note_on_c, 0, 73, 0
2, 170304, Note_on_c, 0, 73, 60
2, 170496, Note_on_c, 0, 73, 0
2, 170496, Note_on_c, 0, 74, 60
2, 170832, Note_on_c, 0, 74, 0
2, 170880, Note_on_c, 0, 67, 60
2, 170880, Note_on_c, 0, 74, 60
2, 170974, Note_on_c, 0, 74, 0
2, 170976, Note_on_c, 0, 73, 60
2, 171070, Note_on_c, 0, 73, 0
2, 171072, Note_on_c, 0, 71, 60
2, 171166, Note_on_c, 0, 71, 0
2, 171168, Note_on_c, 0, 73, 60
2, 171216, Note_on_c, 0, 67, 0
2, 171262, Note_on_c, 0, 73, 0
2, 171264, Note_on_c, 0, 66, 60
2, 171264, Note_on_c, 0, 74, 60
2, 171600, Note_on_c, 0, 66, 0
2, 171600, Note_on_c, 0, 74, 0
2, 171648, Note_on_c, 0, 67, 60
2, 171648, Note_on_c, 0, 74, 60
2, 171742, Note_on_c, 0, 74, 0
2, 171744, Note_on_c, 0, 73, 60
2, 171838, Note_on_c, 0, 73, 0
2, 171840, Note_on_c, 0, 71, 60
2, 171934, Note_on_c, 0, 71, 0
2, 171936, Note_on_c, 0, 73, 60
2, 171984, Note_on_c, 0, 67, 0
2, 172030, Note_on_c, 0, 73, 0
2, 172032, Note_on_c, 0, 66, 45
2, 172032, Note_on_c, 0, 74, 45
2, 172192, Note_on_c, 0, 66, 0
2, 172192, Note_on_c, 0, 74, 0
2, 172416, Note_on_c, 0, 66, 45
2, 172416, Note_on_c, 0, 74, 45
2, 172576, Note_on_c, 0, 66, 0
2, 172576, Note_on_c, 0, 74, 0
2, 172800, Note_on_c, 0, 66, 45
2, 172800, Note_on_c, 0, 74, 45
2, 173136, Note_on_c, 0, 66, 0
2, 173136, Note_on_c, 0, 74, 0
2, 173568, Note_on_c, 0, 64, 92
2, 173904, Note_on_c, 0, 64, 0
2, 173952, Note_on_c, 0, 62, 92
2, 174000, Note_on_c, 0, 62, 0
2, 174000, Note_on_c, 0, 61, 92
2, 174142, Note_on_c, 0, 61, 0
2, 174144, Note_on_c, 0, 59, 92
2, 174192, Note_on_c, 0, 59, 0
2, 174192, Note_on_c, 0, 57, 92
2, 174334, Note_on_c, 0, 57, 0
2, 174336, Note_on_c, 0, 62, 92
2, 174592, Note_on_c, 0, 62, 0
2, 174624, Note_on_c, 0, 59, 92
2, 174718, Note_on_c, 0, 59, 0
2, 174720, Note_on_c, 0, 56, 92
2, 174880, Note_on_c, 0, 56, 0
2, 175104, Note_on_c, 0, 76, 45
2, 175392, Note_on_c, 0, 76, 0
2, 175392, Note_on_c, 0, 73, 45
2, 175488, Note_on_c, 0, 73, 0
2, 175488, Note_on_c, 0, 67, 45
2, 175648, Note_on_c, 0, 67, 0
2, 175872, Note_on_c, 0, 85, 45
2, 176160, Note_on_c, 0, 85, 0
2, 176160, Note_on_c, 0, 82, 45
2, 176256, Note_on_c, 0, 82, 0
2, 176256, Note_on_c, 0, 76, 45
2, 176416, Note_on_c, 0, 76, 0
2, 176640, Note_on_c, 0, 66, 92
2, 176976, Note_on_c, 0, 66, 0
2, 177024, Note_on_c, 0, 64, 92
2, 177072, Note_on_c, 0, 64, 0
2, 177072, Note_on_c, 0, 62, 92
2, 177214, Note_on_c, 0, 62, 0
2, 177216, Note_on_c, 0, 61, 92
2, 177264, Note_on_c, 0, 61, 0
2, 177264, Note_on_c, 0, 59, 92
2, 177406, Note_on_c, 0, 59, 0
2, 177408, Note_on_c, 0, 64, 92
2, 177664, Note_on_c, 0, 64, 0
2, 177696, Note_on_c, 0, 61, 92
2, 177790, Note_on_c, 0, 61, 0
2, 177792, Note_on_c, 0, 58, 92
2, 177952, Note_on_c, 0, 58, 0
2, 178176, Note_on_c, 0, 78, 60
2, 178432, Note_on_c, 0, 78, 0
2, 178464, Note_on_c, 0, 74, 60
2, 178558, Note_on_c, 0, 74, 0
2, 178560, Note_on_c, 0, 71, 60
2, 178720, Note_on_c, 0, 71, 0
2, 178944, Note_on_c, 0, 72, 60
2, 178968, Note_on_c, 0, 72, 0
2, 178968, Note_on_c, 0, 84, 60
2, 179232, Note_on_c, 0, 84, 0
2, 179232, Note_on_c, 0, 81, 60
2, 179328, Note_on_c, 0, 81, 0
2, 179328, Note_on_c, 0, 78, 60
2, 179488, Note_on_c, 0, 78, 0
2, 179808, Note_on_c, 0, 74, 60
2, 179856, Note_on_c, 0, 74, 0
2, 179856, Note_on_c, 0, 76, 60
2, 179904, Note_on_c, 0, 76, 0
2, 179904, Note_on_c, 0, 78, 60
2, 179998, Note_on_c, 0, 78, 0
2, 180000, Note_on_c, 0, 78, 60
2, 180048, Note_on_c, 0, 78, 0
2, 180048, Note_on_c, 0, 79, 60
2, 180096, Note_on_c, 0, 79, 0
2, 180096, Note_on_c, 0, 81, 60
2, 180190, Note_on_c, 0, 81, 0
2, 180192, Note_on_c, 0, 78, 60
2, 180240, Note_on_c, 0, 78, 0
2, 180240, Note_on_c, 0, 79, 60
2, 180288, Note_on_c, 0, 79, 0
2, 180288, Note_on_c, 0, 81, 60
2, 180382, Note_on_c, 0, 81, 0
2, 180384, Note_on_c, 0, 81, 60
2, 180432, Note_on_c, 0, 81, 0
2, 180432, Note_on_c, 0, 83, 60
2, 180480, Note_on_c, 0, 83, 0
2, 180480, Note_on_c, 0, 84, 60
2, 180574, Note_on_c, 0, 84, 0
2, 180576, Note_on_c, 0, 88, 60
2, 180624, Note_on_c, 0, 88, 0
2, 180624, Note_on_c, 0, 86, 60
2, 180672, Note_on_c, 0, 86, 0
2, 180672, Note_on_c, 0, 84, 60
2, 180766, Note_on_c, 0, 84, 0
2, 180768, Note_on_c, 0, 84, 60
2, 180816, Note_on_c, 0, 84, 0
2, 180816, Note_on_c, 0, 83, 60
2, 180864, Note_on_c, 0, 83, 0
2, 180864, Note_on_c, 0, 81, 60
2, 180958, Note_on_c, 0, 81, 0
2, 180960, Note_on_c, 0, 84, 60
2, 181008, Note_on_c, 0, 84, 0
2, 181008, Note_on_c, 0, 83, 60
2, 181056, Note_on_c, 0, 83, 0
2, 181056, Note_on_c, 0, 81, 60
2, 181150, Note_on_c, 0, 81, 0
2, 181152, Note_on_c, 0, 81, 60
2, 181200, Note_on_c, 0, 81, 0
2, 181200, Note_on_c, 0, 79, 60
2, 181248, Note_on_c, 0, 79, 0
2, 181248, Note_on_c, 0, 78, 60
2, 181342, Note_on_c, 0, 78, 0
2, 181344, Note_on_c, 0, 81, 60
2, 181376, Note_on_c, 0, 81, 0
2, 181440, Note_on_c, 0, 80, 60
2, 181472, Note_on_c, 0, 80, 0
2, 181536, Note_on_c, 0, 79, 60
2, 181568, Note_on_c, 0, 79, 0
2, 181632, Note_on_c, 0, 78, 60
2, 181664, Note_on_c, 0, 78, 0
2, 181728, Note_on_c, 0, 77, 60
2, 181760, Note_on_c, 0, 77, 0
2, 181824, Note_on_c, 0, 76, 60
2, 181856, Note_on_c, 0, 76, 0
2, 181920, Note_on_c, 0, 75, 60
2, 181952, Note_on_c, 0, 75, 0
2, 182016, Note_on_c, 0, 74, 60
2, 182352, Note_on_c, 0, 74, 0
2, 182400, Note_on_c, 0, 72, 60
2, 182448, Note_on_c, 0, 72, 0
2, 182448, Note_on_c, 0, 71, 60
2, 182590, Note_on_c, 0, 71, 0
2, 182592, Note_on_c, 0, 69, 60
2, 182640, Note_on_c, 0, 69, 0
2, 182640, Note_on_c, 0, 67, 60
2, 182782, Note_on_c, 0, 67, 0
2, 182784, Note_on_c, 0, 72, 60
2, 183072, Note_on_c, 0, 72, 0
2, 183072, Note_on_c, 0, 69, 60
2, 183168, Note_on_c, 0, 69, 0
2, 183168, Note_on_c, 0, 66, 60
2, 183328, Note_on_c, 0, 66, 0
2, 183552, Note_on_c, 0, 84, 60
2, 183888, Note_on_c, 0, 84, 0
2, 183936, Note_on_c, 0, 83, 60
2, 183984, Note_on_c, 0, 83, 0
2, 183984, Note_on_c, 0, 81, 60
2, 184126, Note_on_c, 0, 81, 0
2, 184128, Note_on_c, 0, 79, 60
2, 184176, Note_on_c, 0, 79, 0
2, 184176, Note_on_c, 0, 78, 60
2, 184318, Note_on_c, 0, 78, 0
2, 184320, Note_on_c, 0, 86, 60
2, 184608, Note_on_c, 0, 86, 0
2, 184608, Note_on_c, 0, 83, 60
2, 184704, Note_on_c, 0, 83, 0
2, 184704, Note_on_c, 0, 79, 60
2, 184864, Note_on_c, 0, 79, 0
2, 185088, Note_on_c, 0, 76, 60
2, 185120, Note_on_c, 0, 76, 0
2, 185184, Note_on_c, 0, 78, 60
2, 185208, Note_on_c, 0, 78, 0
2, 185208, Note_on_c, 0, 76, 60
2, 185230, Note_on_c, 0, 76, 0
2, 185232, Note_on_c, 0, 74, 60
2, 185278, Note_on_c, 0, 74, 0
2, 185280, Note_on_c, 0, 76, 60
2, 185374, Note_on_c, 0, 76, 0
2, 185376, Note_on_c, 0, 78, 60
2, 185408, Note_on_c, 0, 78, 0
2, 185472, Note_on_c, 0, 79, 60
2, 185632, Note_on_c, 0, 79, 0
2, 185760, Note_on_c, 0, 74, 60
2, 185854, Note_on_c, 0, 74, 0
2, 185856, Note_on_c, 0, 76, 60
2, 185888, Note_on_c, 0, 76, 0
2, 185952, Note_on_c, 0, 78, 60
2, 185976, Note_on_c, 0, 78, 0
2, 185976, Note_on_c, 0, 76, 60
2, 185998, Note_on_c, 0, 76, 0
2, 186000, Note_on_c, 0, 74, 60
2, 186046, Note_on_c, 0, 74, 0
2, 186048, Note_on_c, 0, 76, 60
2, 186142, Note_on_c, 0, 76, 0
2, 186144, Note_on_c, 0, 78, 60
2, 186176, Note_on_c, 0, 78, 0
2, 186240, Note_on_c, 0, 79, 60
2, 186336, Note_on_c, 0, 79, 0
2, 186336, Note_on_c, 0, 74, 60
2, 186432, Note_on_c, 0, 74, 0
2, 186432, Note_on_c, 0, 72, 60
2, 186528, Note_on_c, 0, 72, 0
2, 186528, Note_on_c, 0, 71, 60
2, 186622, Note_on_c, 0, 71, 0
2, 186624, Note_on_c, 0, 71, 60
2, 186720, Note_on_c, 0, 71, 0
2, 186720, Note_on_c, 0, 69, 60
2, 186816, Note_on_c, 0, 69, 0
2, 186816, Note_on_c, 0, 72, 60
2, 186912, Note_on_c, 0, 72, 0
2, 186912, Note_on_c, 0, 76, 60
2, 187008, Note_on_c, 0, 76, 0
2, 187008, Note_on_c, 0, 67, 60
2, 187200, Note_on_c, 0, 67, 0
2, 187200, Note_on_c, 0, 66, 60
2, 187200, Note_on_c, 0, 71, 60
2, 187296, Note_on_c, 0, 71, 0
2, 187296, Note_on_c, 0, 69, 60
2, 187360, Note_on_c, 0, 66, 0
2, 187392, Note_on_c, 0, 69, 0
2, 187392, Note_on_c, 0, 67, 60
2, 187552, Note_on_c, 0, 67, 0
2, 187680, Note_on_c, 0, 62, 60
2, 187776, Note_on_c, 0, 62, 0
2, 187776, Note_on_c, 0, 67, 60
2, 187872, Note_on_c, 0, 67, 0
2, 187872, Note_on_c, 0, 66, 60
2, 187968, Note_on_c, 0, 66, 0
2, 187968, Note_on_c, 0, 64, 60
2, 188064, Note_on_c, 0, 64, 0
2, 188064, Note_on_c, 0, 62, 60
2, 188158, Note_on_c, 0, 62, 0
2, 188160, Note_on_c, 0, 60, 60
2, 188160, Note_on_c, 0, 62, 60
2, 188254, Note_on_c, 0, 60, 0
2, 188254, Note_on_c, 0, 62, 0
2, 188256, Note_on_c, 0, 60, 60
2, 188256, Note_on_c, 0, 62, 60
2, 188350, Note_on_c, 0, 60, 0
2, 188350, Note_on_c, 0, 62, 0
2, 188448, Note_on_c, 0, 60, 60
2, 188448, Note_on_c, 0, 62, 60
2, 188542, Note_on_c, 0, 60, 0
2, 188542, Note_on_c, 0, 62, 0
2, 188544, Note_on_c, 0, 60, 60
2, 188544, Note_on_c, 0, 62, 60
2, 188638, Note_on_c, 0, 60, 0
2, 188638, Note_on_c, 0, 62, 0
2, 188640, Note_on_c, 0, 60, 60
2, 188640, Note_on_c, 0, 62, 60
2, 188734, Note_on_c, 0, 60, 0
2, 188734, Note_on_c, 0, 62, 0
2, 188832, Note_on_c, 0, 60, 60
2, 188832, Note_on_c, 0, 62, 60
2, 188926, Note_on_c, 0, 60, 0
2, 188926, Note_on_c, 0, 62, 0
2, 188928, Note_on_c, 0, 59, 60
2, 188928, Note_on_c, 0, 64, 60
2, 189024, Note_on_c, 0, 64, 0
2, 189024, Note_on_c, 0, 62, 60
2, 189088, Note_on_c, 0, 59, 0
2, 189118, Note_on_c, 0, 62, 0
2, 189216, Note_on_c, 0, 62, 84
2, 189310, Note_on_c, 0, 62, 0
2, 189312, Note_on_c, 0, 67, 60
2, 189408, Note_on_c, 0, 67, 0
2, 189408, Note_on_c, 0, 66, 60
2, 189504, Note_on_c, 0, 66, 0
2, 189504, Note_on_c, 0, 64, 60
2, 189600, Note_on_c, 0, 64, 0
2, 189600, Note_on_c, 0, 63, 60
2, 189694, Note_on_c, 0, 63, 0
2, 189696, Note_on_c, 0, 62, 60
2, 189696, Note_on_c, 0, 64, 60
2, 189790, Note_on_c, 0, 62, 0
2, 189790, Note_on_c, 0, 64, 0
2, 189792, Note_on_c, 0, 62, 60
2, 189792, Note_on_c, 0, 64, 60
2, 189886, Note_on_c, 0, 62, 0
2, 189886, Note_on_c, 0, 64, 0
2, 189984, Note_on_c, 0, 62, 60
2, 189984, Note_on_c, 0, 64, 60
2, 190078, Note_on_c, 0, 62, 0
2, 190078, Note_on_c, 0, 64, 0
2, 190080, Note_on_c, 0, 62, 60
2, 190080, Note_on_c, 0, 64, 60
2, 190174, Note_on_c, 0, 62, 0
2, 190174, Note_on_c, 0, 64, 0
2, 190176, Note_on_c, 0, 62, 60
2, 190176, Note_on_c, 0, 64, 60
2, 190270, Note_on_c, 0, 62, 0
2, 190270, Note_on_c, 0, 64, 0
2, 190368, Note_on_c, 0, 62, 60
2, 190368, Note_on_c, 0, 64, 60
2, 190462, Note_on_c, 0, 62, 0
2, 190462, Note_on_c, 0, 64, 0
2, 190464, Note_on_c, 0, 61, 60
2, 190464, Note_on_c, 0, 66, 60
2, 190558, Note_on_c, 0, 66, 0
2, 190560, Note_on_c, 0, 64, 60
2, 190624, Note_on_c, 0, 61, 0
2, 190654, Note_on_c, 0, 64, 0
2, 190752, Note_on_c, 0, 64, 84
2, 190846, Note_on_c, 0, 64, 0
2, 190848, Note_on_c, 0, 69, 60
2, 190944, Note_on_c, 0, 69, 0
2, 190944, Note_on_c, 0, 67, 60
2, 191040, Note_on_c, 0, 67, 0
2, 191040, Note_on_c, 0, 66, 60
2, 191136, Note_on_c, 0, 66, 0
2, 191136, Note_on_c, 0, 65, 60
2, 191230, Note_on_c, 0, 65, 0
2, 191232, Note_on_c, 0, 64, 60
2, 191232, Note_on_c, 0, 66, 60
2, 191326, Note_on_c, 0, 64, 0
2, 191326, Note_on_c, 0, 66, 0
2, 191328, Note_on_c, 0, 64, 60
2, 191328, Note_on_c, 0, 66, 60
2, 191422, Note_on_c, 0, 64, 0
2, 191422, Note_on_c, 0, 66, 0
2, 191520, Note_on_c, 0, 64, 60
2, 191520, Note_on_c, 0, 66, 60
2, 191614, Note_on_c, 0, 64, 0
2, 191614, Note_on_c, 0, 66, 0
2, 191616, Note_on_c, 0, 64, 60
2, 191616, Note_on_c, 0, 66, 60
2, 191710, Note_on_c, 0, 64, 0
2, 191710, Note_on_c, 0, 66, 0
2, 191712, Note_on_c, 0, 64, 60
2, 191712, Note_on_c, 0, 66, 60
2, 191806, Note_on_c, 0, 64, 0
2, 191806, Note_on_c, 0, 66, 0
2, 191904, Note_on_c, 0, 64, 60
2, 191904, Note_on_c, 0, 66, 60
2, 191998, Note_on_c, 0, 64, 0
2, 191998, Note_on_c, 0, 66, 0
2, 192000, Note_on_c, 0, 62, 60
2, 192000, Note_on_c, 0, 67, 60
2, 192094, Note_on_c, 0, 67, 0
2, 192096, Note_on_c, 0, 66, 60
2, 192160, Note_on_c, 0, 62, 0
2, 192190, Note_on_c, 0, 66, 0
2, 192288, Note_on_c, 0, 66, 75
2, 192382, Note_on_c, 0, 66, 0
2, 192384, Note_on_c, 0, 69, 75
2, 192480, Note_on_c, 0, 69, 0
2, 192480, Note_on_c, 0, 67, 75
2, 192576, Note_on_c, 0, 67, 0
2, 192576, Note_on_c, 0, 71, 75
2, 192672, Note_on_c, 0, 71, 0
2, 192672, Note_on_c, 0, 67, 75
2, 192766, Note_on_c, 0, 67, 0
2, 192768, Note_on_c, 0, 65, 75
2, 192864, Note_on_c, 0, 65, 0
2, 192864, Note_on_c, 0, 66, 76
2, 192960, Note_on_c, 0, 66, 0
2, 192960, Note_on_c, 0, 69, 77
2, 193056, Note_on_c, 0, 69, 0
2, 193056, Note_on_c, 0, 66, 78
2, 193150, Note_on_c, 0, 66, 0
2, 193152, Note_on_c, 0, 63, 79
2, 193248, Note_on_c, 0, 63, 0
2, 193248, Note_on_c, 0, 64, 80
2, 193344, Note_on_c, 0, 64, 0
2, 193344, Note_on_c, 0, 67, 82
2, 193440, Note_on_c, 0, 67, 0
2, 193440, Note_on_c, 0, 64, 84
2, 193534, Note_on_c, 0, 64, 0
2, 193536, Note_on_c, 0, 61, 86
2, 193632, Note_on_c, 0, 61, 0
2, 193632, Note_on_c, 0, 62, 88
2, 193726, Note_on_c, 0, 62, 0
2, 193824, Note_on_c, 0, 74, 92
2, 193920, Note_on_c, 0, 74, 0
2, 193920, Note_on_c, 0, 79, 92
2, 193968, Note_on_c, 0, 79, 0
2, 193968, Note_on_c, 0, 81, 92
2, 194016, Note_on_c, 0, 81, 0
2, 194016, Note_on_c, 0, 79, 92
2, 194064, Note_on_c, 0, 79, 0
2, 194064, Note_on_c, 0, 78, 92
2, 194112, Note_on_c, 0, 78, 0
2, 194112, Note_on_c, 0, 79, 92
2, 194160, Note_on_c, 0, 79, 0
2, 194160, Note_on_c, 0, 81, 92
2, 194208, Note_on_c, 0, 81, 0
2, 194208, Note_on_c, 0, 83, 92
2, 194256, Note_on_c, 0, 83, 0
2, 194256, Note_on_c, 0, 79, 92
2, 194304, Note_on_c, 0, 79, 0
2, 194304, Note_on_c, 0, 78, 92
2, 194352, Note_on_c, 0, 78, 0
2, 194352, Note_on_c, 0, 79, 92
2, 194400, Note_on_c, 0, 79, 0
2, 194400, Note_on_c, 0, 78, 92
2, 194448, Note_on_c, 0, 78, 0
2, 194448, Note_on_c, 0, 77, 92
2, 194496, Note_on_c, 0, 77, 0
2, 194496, Note_on_c, 0, 78, 92
2, 194544, Note_on_c, 0, 78, 0
2, 194544, Note_on_c, 0, 79, 92
2, 194592, Note_on_c, 0, 79, 0
2, 194592, Note_on_c, 0, 81, 92
2, 194640, Note_on_c, 0, 81, 0
2, 194640, Note_on_c, 0, 78, 92
2, 194688, Note_on_c, 0, 78, 0
2, 194688, Note_on_c, 0, 76, 92
2, 194736, Note_on_c, 0, 76, 0
2, 194736, Note_on_c, 0, 78, 92
2, 194784, Note_on_c, 0, 78, 0
2, 194784, Note_on_c, 0, 76, 92
2, 194832, Note_on_c, 0, 76, 0
2, 194832, Note_on_c, 0, 75, 92
2, 194880, Note_on_c, 0, 75, 0
2, 194880, Note_on_c, 0, 76, 92
2, 194928, Note_on_c, 0, 76, 0
2, 194928, Note_on_c, 0, 78, 92
2, 194976, Note_on_c, 0, 78, 0
2, 194976, Note_on_c, 0, 79, 92
2, 195024, Note_on_c, 0, 79, 0
2, 195024, Note_on_c, 0, 76, 92
2, 195070, Note_on_c, 0, 76, 0
2, 195072, Note_on_c, 0, 74, 92
2, 195118, Note_on_c, 0, 74, 0
2, 195120, Note_on_c, 0, 76, 92
2, 195168, Note_on_c, 0, 76, 0
2, 195168, Note_on_c, 0, 74, 92
2, 195216, Note_on_c, 0, 74, 0
2, 195216, Note_on_c, 0, 73, 92
2, 195264, Note_on_c, 0, 73, 0
2, 195264, Note_on_c, 0, 74, 92
2, 195312, Note_on_c, 0, 74, 0
2, 195312, Note_on_c, 0, 69, 92
2, 195360, Note_on_c, 0, 69, 0
2, 195360, Note_on_c, 0, 71, 92
2, 195408, Note_on_c, 0, 71, 0
2, 195408, Note_on_c, 0, 73, 92
2, 195456, Note_on_c, 0, 73, 0
2, 195456, Note_on_c, 0, 74, 92
2, 195504, Note_on_c, 0, 74, 0
2, 195504, Note_on_c, 0, 76, 92
2, 195552, Note_on_c, 0, 76, 0
2, 195552, Note_on_c, 0, 78, 92
2, 195600, Note_on_c, 0, 78, 0
2, 195600, Note_on_c, 0, 79, 92
2, 195648, Note_on_c, 0, 79, 0
2, 195648, Note_on_c, 0, 81, 92
2, 195696, Note_on_c, 0, 81, 0
2, 195696, Note_on_c, 0, 83, 92
2, 195744, Note_on_c, 0, 83, 0
2, 195744, Note_on_c, 0, 85, 92
2, 195792, Note_on_c, 0, 85, 0
2, 195792, Note_on_c, 0, 86, 92
2, 195840, Note_on_c, 0, 86, 0
2, 195840, Note_on_c, 0, 85, 92
2, 195888, Note_on_c, 0, 85, 0
2, 195888, Note_on_c, 0, 83, 92
2, 195936, Note_on_c, 0, 83, 0
2, 195936, Note_on_c, 0, 86, 92
2, 195984, Note_on_c, 0, 86, 0
2, 195984, Note_on_c, 0, 85, 92
2, 196032, Note_on_c, 0, 85, 0
2, 196032, Note_on_c, 0, 83, 92
2, 196080, Note_on_c, 0, 83, 0
2, 196080, Note_on_c, 0, 81, 92
2, 196128, Note_on_c, 0, 81, 0
2, 196128, Note_on_c, 0, 79, 92
2, 196176, Note_on_c, 0, 79, 0
2, 196176, Note_on_c, 0, 78, 92
2, 196224, Note_on_c, 0, 78, 0
2, 196224, Note_on_c, 0, 81, 92
2, 196272, Note_on_c, 0, 81, 0
2, 196272, Note_on_c, 0, 79, 92
2, 196320, Note_on_c, 0, 79, 0
2, 196320, Note_on_c, 0, 83, 92
2, 196368, Note_on_c, 0, 83, 0
2, 196368, Note_on_c, 0, 81, 92
2, 196416, Note_on_c, 0, 81, 0
2, 196416, Note_on_c, 0, 79, 92
2, 196464, Note_on_c, 0, 79, 0
2, 196464, Note_on_c, 0, 78, 92
2, 196512, Note_on_c, 0, 78, 0
2, 196512, Note_on_c, 0, 76, 92
2, 196560, Note_on_c, 0, 76, 0
2, 196560, Note_on_c, 0, 74, 92
2, 196606, Note_on_c, 0, 74, 0
2, 196608, Note_on_c, 0, 74, 92
2, 196768, Note_on_c, 0, 74, 0
2, 196896, Note_on_c, 0, 69, 92
2, 196944, Note_on_c, 0, 69, 0
2, 196944, Note_on_c, 0, 71, 92
2, 196992, Note_on_c, 0, 71, 0
2, 196992, Note_on_c, 0, 73, 92
2, 197086, Note_on_c, 0, 73, 0
2, 197088, Note_on_c, 0, 73, 92
2, 197136, Note_on_c, 0, 73, 0
2, 197136, Note_on_c, 0, 74, 92
2, 197184, Note_on_c, 0, 74, 0
2, 197184, Note_on_c, 0, 76, 92
2, 197278, Note_on_c, 0, 76, 0
2, 197280, Note_on_c, 0, 76, 92
2, 197328, Note_on_c, 0, 76, 0
2, 197328, Note_on_c, 0, 78, 92
2, 197376, Note_on_c, 0, 78, 0
2, 197376, Note_on_c, 0, 79, 92
2, 197536, Note_on_c, 0, 79, 0
2, 197664, Note_on_c, 0, 83, 92
2, 197712, Note_on_c, 0, 83, 0
2, 197712, Note_on_c, 0, 81, 92
2, 197760, Note_on_c, 0, 81, 0
2, 197760, Note_on_c, 0, 79, 92
2, 197854, Note_on_c, 0, 79, 0
2, 197856, Note_on_c, 0, 79, 92
2, 197904, Note_on_c, 0, 79, 0
2, 197904, Note_on_c, 0, 78, 92
2, 197952, Note_on_c, 0, 78, 0
2, 197952, Note_on_c, 0, 76, 92
2, 198046, Note_on_c, 0, 76, 0
2, 198048, Note_on_c, 0, 76, 92
2, 198096, Note_on_c, 0, 76, 0
2, 198096, Note_on_c, 0, 74, 92
2, 198144, Note_on_c, 0, 74, 0
2, 198144, Note_on_c, 0, 73, 92
2, 198304, Note_on_c, 0, 73, 0
2, 198432, Note_on_c, 0, 76, 92
2, 198480, Note_on_c, 0, 76, 0
2, 198480, Note_on_c, 0, 74, 92
2, 198528, Note_on_c, 0, 74, 0
2, 198528, Note_on_c, 0, 73, 92
2, 198688, Note_on_c, 0, 73, 0
2, 198816, Note_on_c, 0, 76, 92
2, 198862, Note_on_c, 0, 76, 0
2, 198864, Note_on_c, 0, 74, 92
2, 198910, Note_on_c, 0, 74, 0
2, 198912, Note_on_c, 0, 73, 92
2, 199008, Note_on_c, 0, 73, 0
2, 199008, Note_on_c, 0, 79, 92
2, 199104, Note_on_c, 0, 79, 0
2, 199104, Note_on_c, 0, 76, 92
2, 199200, Note_on_c, 0, 76, 0
2, 199200, Note_on_c, 0, 85, 92
2, 199296, Note_on_c, 0, 85, 0
2, 199296, Note_on_c, 0, 79, 92
2, 199392, Note_on_c, 0, 79, 0
2, 199392, Note_on_c, 0, 88, 92
2, 199488, Note_on_c, 0, 88, 0
2, 199488, Note_on_c, 0, 86, 92
2, 199584, Note_on_c, 0, 86, 0
2, 199584, Note_on_c, 0, 85, 92
2, 199680, Note_on_c, 0, 85, 0
2, 199680, Note_on_c, 0, 83, 92
2, 199776, Note_on_c, 0, 83, 0
2, 199776, Note_on_c, 0, 81, 88
2, 199872, Note_on_c, 0, 81, 0
2, 199872, Note_on_c, 0, 80, 84
2, 199968, Note_on_c, 0, 80, 0
2, 199968, Note_on_c, 0, 81, 80
2, 200064, Note_on_c, 0, 81, 0
2, 200064, Note_on_c, 0, 80, 76
2, 200160, Note_on_c, 0, 80, 0
2, 200160, Note_on_c, 0, 81, 72
2, 200256, Note_on_c, 0, 81, 0
2, 200256, Note_on_c, 0, 83, 68
2, 200352, Note_on_c, 0, 83, 0
2, 200352, Note_on_c, 0, 81, 64
2, 200446, Note_on_c, 0, 81, 0
2, 200448, Note_on_c, 0, 81, 60
2, 200784, Note_on_c, 0, 81, 0
2, 200832, Note_on_c, 0, 79, 60
2, 200880, Note_on_c, 0, 79, 0
2, 200880, Note_on_c, 0, 78, 60
2, 201022, Note_on_c, 0, 78, 0
2, 201024, Note_on_c, 0, 76, 60
2, 201072, Note_on_c, 0, 76, 0
2, 201072, Note_on_c, 0, 74, 60
2, 201214, Note_on_c, 0, 74, 0
2, 201216, Note_on_c, 0, 79, 60
2, 201504, Note_on_c, 0, 79, 0
2, 201504, Note_on_c, 0, 76, 60
2, 201600, Note_on_c, 0, 76, 0
2, 201600, Note_on_c, 0, 73, 60
2, 201760, Note_on_c, 0, 73, 0
2, 201984, Note_on_c, 0, 79, 60
2, 202320, Note_on_c, 0, 79, 0
2, 202368, Note_on_c, 0, 78, 60
2, 202416, Note_on_c, 0, 78, 0
2, 202416, Note_on_c, 0, 76, 60
2, 202558, Note_on_c, 0, 76, 0
2, 202560, Note_on_c, 0, 74, 60
2, 202608, Note_on_c, 0, 74, 0
2, 202608, Note_on_c, 0, 73, 60
2, 202750, Note_on_c, 0, 73, 0
2, 202752, Note_on_c, 0, 81, 60
2, 203008, Note_on_c, 0, 81, 0
2, 203040, Note_on_c, 0, 78, 60
2, 203134, Note_on_c, 0, 78, 0
2, 203136, Note_on_c, 0, 74, 60
2, 203296, Note_on_c, 0, 74, 0
2, 203520, Note_on_c, 0, 83, 60
2, 203614, Note_on_c, 0, 83, 0
2, 203616, Note_on_c, 0, 85, 60
2, 203640, Note_on_c, 0, 85, 0
2, 203640, Note_on_c, 0, 83, 60
2, 203662, Note_on_c, 0, 83, 0
2, 203664, Note_on_c, 0, 81, 60
2, 203710, Note_on_c, 0, 81, 0
2, 203712, Note_on_c, 0, 83, 60
2, 203806, Note_on_c, 0, 83, 0
2, 203808, Note_on_c, 0, 85, 60
2, 203840, Note_on_c, 0, 85, 0
2, 203904, Note_on_c, 0, 86, 60
2, 204064, Note_on_c, 0, 86, 0
2, 204192, Note_on_c, 0, 81, 60
2, 204286, Note_on_c, 0, 81, 0
2, 204288, Note_on_c, 0, 83, 60
2, 204320, Note_on_c, 0, 83, 0
2, 204384, Note_on_c, 0, 85, 60
2, 204408, Note_on_c, 0, 85, 0
2, 204408, Note_on_c, 0, 83, 60
2, 204430, Note_on_c, 0, 83, 0
2, 204432, Note_on_c, 0, 81, 60
2, 204478, Note_on_c, 0, 81, 0
2, 204480, Note_on_c, 0, 83, 60
2, 204574, Note_on_c, 0, 83, 0
2, 204576, Note_on_c, 0, 85, 60
2, 204608, Note_on_c, 0, 85, 0
2, 204672, Note_on_c, 0, 86, 60
2, 204832, Note_on_c, 0, 86, 0
2, 204960, Note_on_c, 0, 81, 60
2, 205054, Note_on_c, 0, 81, 0
2, 205056, Note_on_c, 0, 81, 60
2, 205152, Note_on_c, 0, 81, 0
2, 205152, Note_on_c, 0, 80, 60
2, 205248, Note_on_c, 0, 80, 0
2, 205248, Note_on_c, 0, 79, 60
2, 205344, Note_on_c, 0, 79, 0
2, 205344, Note_on_c, 0, 76, 60
2, 205440, Note_on_c, 0, 76, 0
2, 205440, Note_on_c, 0, 79, 60
2, 205536, Note_on_c, 0, 79, 0
2, 205536, Note_on_c, 0, 77, 60
2, 205632, Note_on_c, 0, 77, 0
2, 205632, Note_on_c, 0, 78, 60
2, 205728, Note_on_c, 0, 78, 0
2, 205728, Note_on_c, 0, 74, 60
2, 205824, Note_on_c, 0, 74, 0
2, 205824, Note_on_c, 0, 78, 60
2, 205872, Note_on_c, 0, 78, 0
2, 205872, Note_on_c, 0, 76, 60
2, 205920, Note_on_c, 0, 76, 0
2, 205920, Note_on_c, 0, 74, 60
2, 205968, Note_on_c, 0, 74, 0
2, 205968, Note_on_c, 0, 73, 60
2, 206016, Note_on_c, 0, 73, 0
2, 206016, Note_on_c, 0, 71, 60
2, 206064, Note_on_c, 0, 71, 0
2, 206064, Note_on_c, 0, 69, 60
2, 206112, Note_on_c, 0, 69, 0
2, 206112, Note_on_c, 0, 68, 60
2, 206160, Note_on_c, 0, 68, 0
2, 206160, Note_on_c, 0, 69, 60
2, 206208, Note_on_c, 0, 69, 0
2, 206208, Note_on_c, 0, 71, 60
2, 206256, Note_on_c, 0, 71, 0
2, 206256, Note_on_c, 0, 73, 60
2, 206304, Note_on_c, 0, 73, 0
2, 206304, Note_on_c, 0, 74, 60
2, 206352, Note_on_c, 0, 74, 0
2, 206352, Note_on_c, 0, 76, 60
2, 206400, Note_on_c, 0, 76, 0
2, 206400, Note_on_c, 0, 77, 60
2, 206448, Note_on_c, 0, 77, 0
2, 206448, Note_on_c, 0, 78, 60
2, 206496, Note_on_c, 0, 78, 0
2, 206496, Note_on_c, 0, 79, 60
2, 206544, Note_on_c, 0, 79, 0
2, 206544, Note_on_c, 0, 80, 60
2, 206592, Note_on_c, 0, 80, 0
2, 206592, Note_on_c, 0, 81, 60
2, 206928, Note_on_c, 0, 81, 0
2, 206976, Note_on_c, 0, 79, 60
2, 207024, Note_on_c, 0, 79, 0
2, 207024, Note_on_c, 0, 77, 60
2, 207166, Note_on_c, 0, 77, 0
2, 207168, Note_on_c, 0, 76, 60
2, 207216, Note_on_c, 0, 76, 0
2, 207216, Note_on_c, 0, 74, 60
2, 207358, Note_on_c, 0, 74, 0
2, 207360, Note_on_c, 0, 79, 60
2, 207648, Note_on_c, 0, 79, 0
2, 207648, Note_on_c, 0, 76, 60
2, 207744, Note_on_c, 0, 76, 0
2, 207744, Note_on_c, 0, 73, 60
2, 207904, Note_on_c, 0, 73, 0
2, 208128, Note_on_c, 0, 79, 60
2, 208464, Note_on_c, 0, 79, 0
2, 208512, Note_on_c, 0, 77, 60
2, 208560, Note_on_c, 0, 77, 0
2, 208560, Note_on_c, 0, 76, 60
2, 208702, Note_on_c, 0, 76, 0
2, 208704, Note_on_c, 0, 74, 60
2, 208752, Note_on_c, 0, 74, 0
2, 208752, Note_on_c, 0, 73, 60
2, 208894, Note_on_c, 0, 73, 0
2, 208896, Note_on_c, 0, 81, 60
2, 209184, Note_on_c, 0, 81, 0
2, 209184, Note_on_c, 0, 77, 65
2, 209280, Note_on_c, 0, 77, 0
2, 209280, Note_on_c, 0, 74, 67
2, 209374, Note_on_c, 0, 74, 0
2, 209376, Note_on_c, 0, 77, 69
2, 209470, Note_on_c, 0, 77, 0
2, 209472, Note_on_c, 0, 79, 71
2, 209566, Note_on_c, 0, 79, 0
2, 209568, Note_on_c, 0, 81, 73
2, 209662, Note_on_c, 0, 81, 0
2, 209664, Note_on_c, 0, 82, 105
2, 209952, Note_on_c, 0, 82, 0
2, 209952, Note_on_c, 0, 79, 75
2, 210048, Note_on_c, 0, 79, 0
2, 210048, Note_on_c, 0, 76, 75
2, 210208, Note_on_c, 0, 76, 0
2, 210432, Note_on_c, 0, 82, 105
2, 210720, Note_on_c, 0, 82, 0
2, 210720, Note_on_c, 0, 79, 75
2, 210816, Note_on_c, 0, 79, 0
2, 210816, Note_on_c, 0, 76, 75
2, 210976, Note_on_c, 0, 76, 0
2, 211104, Note_on_c, 0, 79, 75
2, 211198, Note_on_c, 0, 79, 0
2, 211200, Note_on_c, 0, 82, 92
2, 211296, Note_on_c, 0, 82, 0
2, 211296, Note_on_c, 0, 79, 92
2, 211390, Note_on_c, 0, 79, 0
2, 211392, Note_on_c, 0, 82, 92
2, 211486, Note_on_c, 0, 82, 0
2, 211488, Note_on_c, 0, 82, 92
2, 211582, Note_on_c, 0, 82, 0
2, 211584, Note_on_c, 0, 82, 92
2, 211680, Note_on_c, 0, 82, 0
2, 211680, Note_on_c, 0, 79, 92
2, 211774, Note_on_c, 0, 79, 0
2, 211776, Note_on_c, 0, 82, 92
2, 211870, Note_on_c, 0, 82, 0
2, 211872, Note_on_c, 0, 82, 92
2, 211966, Note_on_c, 0, 82, 0
2, 211968, Note_on_c, 0, 82, 92
2, 212304, Note_on_c, 0, 82, 0
2, 212352, Note_on_c, 0, 82, 92
2, 212414, Note_on_c, 0, 82, 0
2, 212416, Note_on_c, 0, 83, 92
2, 212478, Note_on_c, 0, 83, 0
2, 212480, Note_on_c, 0, 84, 92
2, 212542, Note_on_c, 0, 84, 0
2, 212544, Note_on_c, 0, 85, 92
2, 212606, Note_on_c, 0, 85, 0
2, 212608, Note_on_c, 0, 86, 92
2, 212670, Note_on_c, 0, 86, 0
2, 212672, Note_on_c, 0, 85, 92
2, 212734, Note_on_c, 0, 85, 0
2, 212736, Note_on_c, 0, 84, 92
2, 212798, Note_on_c, 0, 84, 0
2, 212800, Note_on_c, 0, 83, 90
2, 212862, Note_on_c, 0, 83, 0
2, 212864, Note_on_c, 0, 82, 88
2, 212926, Note_on_c, 0, 82, 0
2, 212928, Note_on_c, 0, 81, 86
2, 212990, Note_on_c, 0, 81, 0
2, 212992, Note_on_c, 0, 80, 84
2, 213054, Note_on_c, 0, 80, 0
2, 213056, Note_on_c, 0, 79, 81
2, 213118, Note_on_c, 0, 79, 0
2, 213120, Note_on_c, 0, 78, 78
2, 213182, Note_on_c, 0, 78, 0
2, 213184, Note_on_c, 0, 77, 75
2, 213246, Note_on_c, 0, 77, 0
2, 213248, Note_on_c, 0, 76, 72
2, 213310, Note_on_c, 0, 76, 0
2, 213312, Note_on_c, 0, 75, 69
2, 213374, Note_on_c, 0, 75, 0
2, 213376, Note_on_c, 0, 74, 66
2, 213438, Note_on_c, 0, 74, 0
2, 213440, Note_on_c, 0, 73, 63
2, 213502, Note_on_c, 0, 73, 0
2, 213504, Note_on_c, 0, 72, 60
2, 213840, Note_on_c, 0, 72, 0
2, 213888, Note_on_c, 0, 70, 60
2, 213936, Note_on_c, 0, 70, 0
2, 213936, Note_on_c, 0, 69, 60
2, 214078, Note_on_c, 0, 69, 0
2, 214080, Note_on_c, 0, 67, 60
2, 214128, Note_on_c, 0, 67, 0
2, 214128, Note_on_c, 0, 65, 60
2, 214270, Note_on_c, 0, 65, 0
2, 214272, Note_on_c, 0, 70, 60
2, 214528, Note_on_c, 0, 70, 0
2, 214560, Note_on_c, 0, 67, 60
2, 214654, Note_on_c, 0, 67, 0
2, 214656, Note_on_c, 0, 64, 60
2, 214816, Note_on_c, 0, 64, 0
2, 215040, Note_on_c, 0, 72, 92
2, 215064, Note_on_c, 0, 72, 0
2, 215064, Note_on_c, 0, 84, 92
2, 215392, Note_on_c, 0, 84, 0
2, 215424, Note_on_c, 0, 82, 92
2, 215472, Note_on_c, 0, 82, 0
2, 215472, Note_on_c, 0, 81, 92
2, 215614, Note_on_c, 0, 81, 0
2, 215616, Note_on_c, 0, 79, 92
2, 215664, Note_on_c, 0, 79, 0
2, 215664, Note_on_c, 0, 77, 92
2, 215806, Note_on_c, 0, 77, 0
2, 215808, Note_on_c, 0, 82, 92
2, 216064, Note_on_c, 0, 82, 0
2, 216096, Note_on_c, 0, 79, 92
2, 216190, Note_on_c, 0, 79, 0
2, 216192, Note_on_c, 0, 76, 92
2, 216352, Note_on_c, 0, 76, 0
2, 216480, Note_on_c, 0, 76, 92
2, 216574, Note_on_c, 0, 76, 0
2, 216576, Note_on_c, 0, 81, 92
2, 216672, Note_on_c, 0, 81, 0
2, 216672, Note_on_c, 0, 77, 92
2, 216768, Note_on_c, 0, 77, 0
2, 216768, Note_on_c, 0, 74, 92
2, 216862, Note_on_c, 0, 74, 0
2, 216864, Note_on_c, 0, 74, 92
2, 216896, Note_on_c, 0, 74, 0
2, 216960, Note_on_c, 0, 79, 92
2, 217056, Note_on_c, 0, 79, 0
2, 217056, Note_on_c, 0, 76, 92
2, 217152, Note_on_c, 0, 76, 0
2, 217152, Note_on_c, 0, 72, 92
2, 217246, Note_on_c, 0, 72, 0
2, 217248, Note_on_c, 0, 72, 92
2, 217280, Note_on_c, 0, 72, 0
2, 217344, Note_on_c, 0, 77, 92
2, 217440, Note_on_c, 0, 77, 0
2, 217440, Note_on_c, 0, 74, 92
2, 217536, Note_on_c, 0, 74, 0
2, 217536, Note_on_c, 0, 70, 92
2, 217630, Note_on_c, 0, 70, 0
2, 217632, Note_on_c, 0, 70, 92
2, 217664, Note_on_c, 0, 70, 0
2, 217728, Note_on_c, 0, 76, 92
2, 217824, Note_on_c, 0, 76, 0
2, 217824, Note_on_c, 0, 72, 92
2, 217920, Note_on_c, 0, 72, 0
2, 217920, Note_on_c, 0, 69, 92
2, 218014, Note_on_c, 0, 69, 0
2, 218016, Note_on_c, 0, 69, 92
2, 218048, Note_on_c, 0, 69, 0
2, 218112, Note_on_c, 0, 69, 92
2, 218208, Note_on_c, 0, 69, 0
2, 218208, Note_on_c, 0, 68, 92
2, 218302, Note_on_c, 0, 68, 0
2, 218400, Note_on_c, 0, 68, 92
2, 218432, Note_on_c, 0, 68, 0
2, 218496, Note_on_c, 0, 76, 92
2, 218592, Note_on_c, 0, 76, 0
2, 218592, Note_on_c, 0, 74, 92
2, 218686, Note_on_c, 0, 74, 0
2, 218784, Note_on_c, 0, 74, 92
2, 218816, Note_on_c, 0, 74, 0
2, 218880, Note_on_c, 0, 81, 92
2, 218976, Note_on_c, 0, 81, 0
2, 218976, Note_on_c, 0, 80, 92
2, 219070, Note_on_c, 0, 80, 0
2, 219168, Note_on_c, 0, 80, 92
2, 219200, Note_on_c, 0, 80, 0
2, 219264, Note_on_c, 0, 89, 92
2, 219360, Note_on_c, 0, 89, 0
2, 219360, Note_on_c, 0, 86, 92
2, 219454, Note_on_c, 0, 86, 0
2, 219456, Note_on_c, 0, 89, 92
2, 219552, Note_on_c, 0, 89, 0
2, 219552, Note_on_c, 0, 86, 92
2, 219646, Note_on_c, 0, 86, 0
2, 219648, Note_on_c, 0, 85, 92
2, 219710, Note_on_c, 0, 85, 0
2, 219712, Note_on_c, 0, 88, 92
2, 219774, Note_on_c, 0, 88, 0
2, 219776, Note_on_c, 0, 85, 92
2, 219838, Note_on_c, 0, 85, 0
2, 219840, Note_on_c, 0, 82, 92
2, 219902, Note_on_c, 0, 82, 0
2, 219904, Note_on_c, 0, 81, 92
2, 219966, Note_on_c, 0, 81, 0
2, 219968, Note_on_c, 0, 79, 92
2, 220030, Note_on_c, 0, 79, 0
2, 220032, Note_on_c, 0, 77, 92
2, 220094, Note_on_c, 0, 77, 0
2, 220096, Note_on_c, 0, 81, 92
2, 220158, Note_on_c, 0, 81, 0
2, 220160, Note_on_c, 0, 79, 92
2, 220222, Note_on_c, 0, 79, 0
2, 220224, Note_on_c, 0, 77, 92
2, 220286, Note_on_c, 0, 77, 0
2, 220288, Note_on_c, 0, 76, 92
2, 220350, Note_on_c, 0, 76, 0
2, 220352, Note_on_c, 0, 74, 92
2, 220414, Note_on_c, 0, 74, 0
2, 220416, Note_on_c, 0, 73, 92
2, 220478, Note_on_c, 0, 73, 0
2, 220480, Note_on_c, 0, 76, 92
2, 220542, Note_on_c, 0, 76, 0
2, 220544, Note_on_c, 0, 73, 92
2, 220606, Note_on_c, 0, 73, 0
2, 220608, Note_on_c, 0, 70, 92
2, 220670, Note_on_c, 0, 70, 0
2, 220672, Note_on_c, 0, 69, 92
2, 220734, Note_on_c, 0, 69, 0
2, 220736, Note_on_c, 0, 67, 92
2, 220798, Note_on_c, 0, 67, 0
2, 220800, Note_on_c, 0, 65, 92
2, 220862, Note_on_c, 0, 65, 0
2, 220864, Note_on_c, 0, 69, 92
2, 220926, Note_on_c, 0, 69, 0
2, 220928, Note_on_c, 0, 67, 92
2, 220990, Note_on_c, 0, 67, 0
2, 220992, Note_on_c, 0, 67, 92
2, 221054, Note_on_c, 0, 67, 0
2, 221056, Note_on_c, 0, 64, 92
2, 221118, Note_on_c, 0, 64, 0
2, 221120, Note_on_c, 0, 62, 92
2, 221182, Note_on_c, 0, 62, 0
2, 221184, Note_on_c, 0, 61, 92
2, 221246, Note_on_c, 0, 61, 0
2, 221248, Note_on_c, 0, 64, 92
2, 221310, Note_on_c, 0, 64, 0
2, 221312, Note_on_c, 0, 61, 92
2, 221374, Note_on_c, 0, 61, 0
2, 223488, Note_on_c, 0, 74, 92
2, 223536, Note_on_c, 0, 74, 0
2, 223536, Note_on_c, 0, 81, 92
2, 223584, Note_on_c, 0, 81, 0
2, 223584, Note_on_c, 0, 78, 92
2, 223632, Note_on_c, 0, 78, 0
2, 223632, Note_on_c, 0, 81, 92
2, 223680, Note_on_c, 0, 81, 0
2, 223680, Note_on_c, 0, 74, 92
2, 223728, Note_on_c, 0, 74, 0
2, 223728, Note_on_c, 0, 81, 92
2, 223776, Note_on_c, 0, 81, 0
2, 223776, Note_on_c, 0, 78, 92
2, 223824, Note_on_c, 0, 78, 0
2, 223824, Note_on_c, 0, 81, 92
2, 223872, Note_on_c, 0, 81, 0
2, 223872, Note_on_c, 0, 74, 92
2, 223920, Note_on_c, 0, 74, 0
2, 223920, Note_on_c, 0, 81, 92
2, 223968, Note_on_c, 0, 81, 0
2, 223968, Note_on_c, 0, 78, 92
2, 224016, Note_on_c, 0, 78, 0
2, 224016, Note_on_c, 0, 81, 92
2, 224064, Note_on_c, 0, 81, 0
2, 224064, Note_on_c, 0, 74, 92
2, 224112, Note_on_c, 0, 74, 0
2, 224112, Note_on_c, 0, 81, 92
2, 224160, Note_on_c, 0, 81, 0
2, 224160, Note_on_c, 0, 78, 92
2, 224208, Note_on_c, 0, 78, 0
2, 224208, Note_on_c, 0, 81, 92
2, 224256, Note_on_c, 0, 81, 0
2, 224256, Note_on_c, 0, 76, 92
2, 224304, Note_on_c, 0, 76, 0
2, 224304, Note_on_c, 0, 81, 92
2, 224352, Note_on_c, 0, 81, 0
2, 224352, Note_on_c, 0, 79, 92
2, 224400, Note_on_c, 0, 79, 0
2, 224400, Note_on_c, 0, 81, 92
2, 224448, Note_on_c, 0, 81, 0
2, 224448, Note_on_c, 0, 76, 92
2, 224496, Note_on_c, 0, 76, 0
2, 224496, Note_on_c, 0, 81, 92
2, 224544, Note_on_c, 0, 81, 0
2, 224544, Note_on_c, 0, 79, 92
2, 224592, Note_on_c, 0, 79, 0
2, 224592, Note_on_c, 0, 81, 92
2, 224640, Note_on_c, 0, 81, 0
2, 224640, Note_on_c, 0, 76, 92
2, 224688, Note_on_c, 0, 76, 0
2, 224688, Note_on_c, 0, 81, 92
2, 224736, Note_on_c, 0, 81, 0
2, 224736, Note_on_c, 0, 79, 92
2, 224784, Note_on_c, 0, 79, 0
2, 224784, Note_on_c, 0, 81, 92
2, 224832, Note_on_c, 0, 81, 0
2, 224832, Note_on_c, 0, 76, 92
2, 224880, Note_on_c, 0, 76, 0
2, 224880, Note_on_c, 0, 81, 92
2, 224928, Note_on_c, 0, 81, 0
2, 224928, Note_on_c, 0, 79, 92
2, 224976, Note_on_c, 0, 79, 0
2, 224976, Note_on_c, 0, 81, 92
2, 225024, Note_on_c, 0, 81, 0
2, 225024, Note_on_c, 0, 74, 92
2, 225072, Note_on_c, 0, 74, 0
2, 225072, Note_on_c, 0, 81, 92
2, 225120, Note_on_c, 0, 81, 0
2, 225120, Note_on_c, 0, 78, 92
2, 225168, Note_on_c, 0, 78, 0
2, 225168, Note_on_c, 0, 81, 92
2, 225216, Note_on_c, 0, 81, 0
2, 225216, Note_on_c, 0, 74, 92
2, 225264, Note_on_c, 0, 74, 0
2, 225264, Note_on_c, 0, 81, 92
2, 225312, Note_on_c, 0, 81, 0
2, 225312, Note_on_c, 0, 78, 92
2, 225360, Note_on_c, 0, 78, 0
2, 225360, Note_on_c, 0, 81, 92
2, 225408, Note_on_c, 0, 81, 0
2, 225408, Note_on_c, 0, 74, 92
2, 225456, Note_on_c, 0, 74, 0
2, 225456, Note_on_c, 0, 81, 92
2, 225504, Note_on_c, 0, 81, 0
2, 225504, Note_on_c, 0, 78, 92
2, 225552, Note_on_c, 0, 78, 0
2, 225552, Note_on_c, 0, 81, 92
2, 225600, Note_on_c, 0, 81, 0
2, 225600, Note_on_c, 0, 74, 92
2, 225648, Note_on_c, 0, 74, 0
2, 225648, Note_on_c, 0, 81, 92
2, 225696, Note_on_c, 0, 81, 0
2, 225696, Note_on_c, 0, 78, 92
2, 225744, Note_on_c, 0, 78, 0
2, 225744, Note_on_c, 0, 81, 92
2, 225792, Note_on_c, 0, 81, 0
2, 225792, Note_on_c, 0, 76, 92
2, 225840, Note_on_c, 0, 76, 0
2, 225840, Note_on_c, 0, 82, 92
2, 225888, Note_on_c, 0, 82, 0
2, 225888, Note_on_c, 0, 79, 92
2, 225936, Note_on_c, 0, 79, 0
2, 225936, Note_on_c, 0, 82, 92
2, 225984, Note_on_c, 0, 82, 0
2, 225984, Note_on_c, 0, 76, 92
2, 226032, Note_on_c, 0, 76, 0
2, 226032, Note_on_c, 0, 82, 92
2, 226080, Note_on_c, 0, 82, 0
2, 226080, Note_on_c, 0, 79, 92
2, 226128, Note_on_c, 0, 79, 0
2, 226128, Note_on_c, 0, 82, 92
2, 226176, Note_on_c, 0, 82, 0
2, 226176, Note_on_c, 0, 76, 92
2, 226224, Note_on_c, 0, 76, 0
2, 226224, Note_on_c, 0, 82, 92
2, 226272, Note_on_c, 0, 82, 0
2, 226272, Note_on_c, 0, 79, 92
2, 226320, Note_on_c, 0, 79, 0
2, 226320, Note_on_c, 0, 82, 92
2, 226368, Note_on_c, 0, 82, 0
2, 226368, Note_on_c, 0, 76, 92
2, 226416, Note_on_c, 0, 76, 0
2, 226416, Note_on_c, 0, 82, 92
2, 226464, Note_on_c, 0, 82, 0
2, 226464, Note_on_c, 0, 79, 92
2, 226512, Note_on_c, 0, 79, 0
2, 226512, Note_on_c, 0, 82, 92
2, 226558, Note_on_c, 0, 82, 0
2, 226560, Note_on_c, 0, 74, 92
2, 226608, Note_on_c, 0, 74, 0
2, 226608, Note_on_c, 0, 83, 92
2, 226656, Note_on_c, 0, 83, 0
2, 226656, Note_on_c, 0, 78, 92
2, 226704, Note_on_c, 0, 78, 0
2, 226704, Note_on_c, 0, 83, 92
2, 226752, Note_on_c, 0, 83, 0
2, 226752, Note_on_c, 0, 74, 92
2, 226800, Note_on_c, 0, 74, 0
2, 226800, Note_on_c, 0, 83, 92
2, 226848, Note_on_c, 0, 83, 0
2, 226848, Note_on_c, 0, 78, 92
2, 226896, Note_on_c, 0, 78, 0
2, 226896, Note_on_c, 0, 83, 92
2, 226944, Note_on_c, 0, 83, 0
2, 226944, Note_on_c, 0, 74, 92
2, 226992, Note_on_c, 0, 74, 0
2, 226992, Note_on_c, 0, 83, 92
2, 227040, Note_on_c, 0, 83, 0
2, 227040, Note_on_c, 0, 78, 92
2, 227088, Note_on_c, 0, 78, 0
2, 227088, Note_on_c, 0, 83, 92
2, 227136, Note_on_c, 0, 83, 0
2, 227136, Note_on_c, 0, 74, 92
2, 227184, Note_on_c, 0, 74, 0
2, 227184, Note_on_c, 0, 83, 92
2, 227232, Note_on_c, 0, 83, 0
2, 227232, Note_on_c, 0, 78, 92
2, 227280, Note_on_c, 0, 78, 0
2, 227280, Note_on_c, 0, 83, 92
2, 227328, Note_on_c, 0, 83, 0
2, 227328, Note_on_c, 0, 75, 92
2, 227376, Note_on_c, 0, 75, 0
2, 227376, Note_on_c, 0, 84, 92
2, 227424, Note_on_c, 0, 84, 0
2, 227424, Note_on_c, 0, 78, 92
2, 227472, Note_on_c, 0, 78, 0
2, 227472, Note_on_c, 0, 84, 92
2, 227520, Note_on_c, 0, 84, 0
2, 227520, Note_on_c, 0, 75, 92
2, 227568, Note_on_c, 0, 75, 0
2, 227568, Note_on_c, 0, 84, 92
2, 227616, Note_on_c, 0, 84, 0
2, 227616, Note_on_c, 0, 78, 92
2, 227664, Note_on_c, 0, 78, 0
2, 227664, Note_on_c, 0, 84, 92
2, 227712, Note_on_c, 0, 84, 0
2, 227712, Note_on_c, 0, 75, 92
2, 227760, Note_on_c, 0, 75, 0
2, 227760, Note_on_c, 0, 84, 92
2, 227808, Note_on_c, 0, 84, 0
2, 227808, Note_on_c, 0, 78, 92
2, 227856, Note_on_c, 0, 78, 0
2, 227856, Note_on_c, 0, 84, 92
2, 227904, Note_on_c, 0, 84, 0
2, 227904, Note_on_c, 0, 75, 92
2, 227952, Note_on_c, 0, 75, 0
2, 227952, Note_on_c, 0, 84, 92
2, 228000, Note_on_c, 0, 84, 0
2, 228000, Note_on_c, 0, 78, 92
2, 228048, Note_on_c, 0, 78, 0
2, 228048, Note_on_c, 0, 84, 92
2, 228094, Note_on_c, 0, 84, 0
2, 228096, Note_on_c, 0, 76, 92
2, 228144, Note_on_c, 0, 76, 0
2, 228144, Note_on_c, 0, 83, 92
2, 228192, Note_on_c, 0, 83, 0
2, 228192, Note_on_c, 0, 79, 92
2, 228240, Note_on_c, 0, 79, 0
2, 228240, Note_on_c, 0, 83, 92
2, 228288, Note_on_c, 0, 83, 0
2, 228288, Note_on_c, 0, 76, 92
2, 228336, Note_on_c, 0, 76, 0
2, 228336, Note_on_c, 0, 83, 92
2, 228384, Note_on_c, 0, 83, 0
2, 228384, Note_on_c, 0, 79, 92
2, 228432, Note_on_c, 0, 79, 0
2, 228432, Note_on_c, 0, 83, 92
2, 228478, Note_on_c, 0, 83, 0
2, 228480, Note_on_c, 0, 75, 92
2, 228528, Note_on_c, 0, 75, 0
2, 228528, Note_on_c, 0, 84, 92
2, 228576, Note_on_c, 0, 84, 0
2, 228576, Note_on_c, 0, 78, 92
2, 228624, Note_on_c, 0, 78, 0
2, 228624, Note_on_c, 0, 84, 92
2, 228672, Note_on_c, 0, 84, 0
2, 228672, Note_on_c, 0, 75, 92
2, 228720, Note_on_c, 0, 75, 0
2, 228720, Note_on_c, 0, 84, 92
2, 228768, Note_on_c, 0, 84, 0
2, 228768, Note_on_c, 0, 78, 92
2, 228816, Note_on_c, 0, 78, 0
2, 228816, Note_on_c, 0, 84, 92
2, 228862, Note_on_c, 0, 84, 0
2, 228864, Note_on_c, 0, 76, 92
2, 228912, Note_on_c, 0, 76, 0
2, 228912, Note_on_c, 0, 83, 92
2, 228960, Note_on_c, 0, 83, 0
2, 228960, Note_on_c, 0, 79, 92
2, 229008, Note_on_c, 0, 79, 0
2, 229008, Note_on_c, 0, 83, 92
2, 229056, Note_on_c, 0, 83, 0
2, 229056, Note_on_c, 0, 76, 92
2, 229104, Note_on_c, 0, 76, 0
2, 229104, Note_on_c, 0, 83, 92
2, 229152, Note_on_c, 0, 83, 0
2, 229152, Note_on_c, 0, 79, 92
2, 229200, Note_on_c, 0, 79, 0
2, 229200, Note_on_c, 0, 83, 92
2, 229246, Note_on_c, 0, 83, 0
2, 229248, Note_on_c, 0, 75, 92
2, 229296, Note_on_c, 0, 75, 0
2, 229296, Note_on_c, 0, 84, 92
2, 229344, Note_on_c, 0, 84, 0
2, 229344, Note_on_c, 0, 78, 92
2, 229392, Note_on_c, 0, 78, 0
2, 229392, Note_on_c, 0, 84, 92
2, 229440, Note_on_c, 0, 84, 0
2, 229440, Note_on_c, 0, 75, 92
2, 229488, Note_on_c, 0, 75, 0
2, 229488, Note_on_c, 0, 84, 92
2, 229536, Note_on_c, 0, 84, 0
2, 229536, Note_on_c, 0, 78, 92
2, 229584, Note_on_c, 0, 78, 0
2, 229584, Note_on_c, 0, 84, 92
2, 229630, Note_on_c, 0, 84, 0
2, 229632, Note_on_c, 0, 83, 92
2, 229680, Note_on_c, 0, 83, 0
2, 229680, Note_on_c, 0, 85, 92
2, 229728, Note_on_c, 0, 85, 0
2, 229728, Note_on_c, 0, 86, 92
2, 229776, Note_on_c, 0, 86, 0
2, 229776, Note_on_c, 0, 85, 92
2, 229824, Note_on_c, 0, 85, 0
2, 229824, Note_on_c, 0, 83, 92
2, 229872, Note_on_c, 0, 83, 0
2, 229872, Note_on_c, 0, 81, 92
2, 229920, Note_on_c, 0, 81, 0
2, 229920, Note_on_c, 0, 79, 92
2, 229968, Note_on_c, 0, 79, 0
2, 229968, Note_on_c, 0, 78, 92
2, 230016, Note_on_c, 0, 78, 0
2, 230016, Note_on_c, 0, 76, 92
2, 230064, Note_on_c, 0, 76, 0
2, 230064, Note_on_c, 0, 78, 92
2, 230112, Note_on_c, 0, 78, 0
2, 230112, Note_on_c, 0, 79, 92
2, 230160, Note_on_c, 0, 79, 0
2, 230160, Note_on_c, 0, 78, 92
2, 230208, Note_on_c, 0, 78, 0
2, 230208, Note_on_c, 0, 76, 92
2, 230256, Note_on_c, 0, 76, 0
2, 230256, Note_on_c, 0, 74, 92
2, 230304, Note_on_c, 0, 74, 0
2, 230304, Note_on_c, 0, 73, 92
2, 230352, Note_on_c, 0, 73, 0
2, 230352, Note_on_c, 0, 71, 92
2, 230400, Note_on_c, 0, 71, 0
2, 230400, Note_on_c, 0, 69, 92
2, 230494, Note_on_c, 0, 69, 0
2, 230496, Note_on_c, 0, 71, 92
2, 230544, Note_on_c, 0, 71, 0
2, 230544, Note_on_c, 0, 73, 92
2, 230592, Note_on_c, 0, 73, 0
2, 230592, Note_on_c, 0, 74, 92
2, 230640, Note_on_c, 0, 74, 0
2, 230640, Note_on_c, 0, 76, 92
2, 230688, Note_on_c, 0, 76, 0
2, 230688, Note_on_c, 0, 78, 92
2, 230736, Note_on_c, 0, 78, 0
2, 230736, Note_on_c, 0, 79, 92
2, 230784, Note_on_c, 0, 79, 0
2, 230784, Note_on_c, 0, 81, 92
2, 230832, Note_on_c, 0, 81, 0
2, 230832, Note_on_c, 0, 79, 92
2, 230880, Note_on_c, 0, 79, 0
2, 230880, Note_on_c, 0, 78, 92
2, 230928, Note_on_c, 0, 78, 0
2, 230928, Note_on_c, 0, 79, 92
2, 230976, Note_on_c, 0, 79, 0
2, 230976, Note_on_c, 0, 81, 92
2, 231024, Note_on_c, 0, 81, 0
2, 231024, Note_on_c, 0, 83, 92
2, 231072, Note_on_c, 0, 83, 0
2, 231072, Note_on_c, 0, 85, 92
2, 231120, Note_on_c, 0, 85, 0
2, 231120, Note_on_c, 0, 86, 92
2, 231166, Note_on_c, 0, 86, 0
2, 231168, Note_on_c, 0, 74, 92
2, 231190, Note_on_c, 0, 74, 0
2, 231192, Note_on_c, 0, 76, 92
2, 231214, Note_on_c, 0, 76, 0
2, 231216, Note_on_c, 0, 78, 92
2, 231216, Note_on_c, 0, 78, 92
2, 231238, Note_on_c, 0, 78, 0
2, 231240, Note_on_c, 0, 76, 92
2, 231262, Note_on_c, 0, 78, 0
2, 231264, Note_on_c, 0, 79, 92
2, 231310, Note_on_c, 0, 79, 0
2, 231312, Note_on_c, 0, 78, 92
2, 231358, Note_on_c, 0, 78, 0
2, 231360, Note_on_c, 0, 79, 92
2, 231406, Note_on_c, 0, 79, 0
2, 231408, Note_on_c, 0, 78, 92
2, 231454, Note_on_c, 0, 78, 0
2, 231456, Note_on_c, 0, 79, 92
2, 231502, Note_on_c, 0, 79, 0
2, 231504, Note_on_c, 0, 78, 92
2, 231550, Note_on_c, 0, 78, 0
2, 231552, Note_on_c, 0, 79, 92
2, 231598, Note_on_c, 0, 79, 0
2, 231600, Note_on_c, 0, 78, 92
2, 231646, Note_on_c, 0, 78, 0
2, 231648, Note_on_c, 0, 79, 92
2, 231694, Note_on_c, 0, 79, 0
2, 231696, Note_on_c, 0, 78, 92
2, 231742, Note_on_c, 0, 78, 0
2, 231744, Note_on_c, 0, 79, 92
2, 231790, Note_on_c, 0, 79, 0
2, 231792, Note_on_c, 0, 78, 92
2, 231838, Note_on_c, 0, 78, 0
2, 231840, Note_on_c, 0, 79, 92
2, 231886, Note_on_c, 0, 79, 0
2, 231888, Note_on_c, 0, 76, 0
2, 231888, Note_on_c, 0, 78, 92
2, 231934, Note_on_c, 0, 78, 0
2, 231936, Note_on_c, 0, 74, 92
2, 231958, Note_on_c, 0, 74, 0
2, 231960, Note_on_c, 0, 76, 92
2, 231982, Note_on_c, 0, 76, 0
2, 231984, Note_on_c, 0, 74, 92
2, 232126, Note_on_c, 0, 74, 0
2, 232320, Note_on_c, 0, 74, 45
2, 232464, Note_on_c, 0, 74, 0
2, 232464, Note_on_c, 0, 70, 45
2, 232510, Note_on_c, 0, 70, 0
2, 232512, Note_on_c, 0, 74, 45
2, 232656, Note_on_c, 0, 74, 0
2, 232656, Note_on_c, 0, 70, 45
2, 232702, Note_on_c, 0, 70, 0
2, 232704, Note_on_c, 0, 75, 45
2, 232864, Note_on_c, 0, 75, 0
2, 233088, Note_on_c, 0, 75, 45
2, 233232, Note_on_c, 0, 75, 0
2, 233232, Note_on_c, 0, 72, 45
2, 233278, Note_on_c, 0, 72, 0
2, 233280, Note_on_c, 0, 75, 45
2, 233424, Note_on_c, 0, 75, 0
2, 233424, Note_on_c, 0, 72, 45
2, 233470, Note_on_c, 0, 72, 0
2, 233472, Note_on_c, 0, 77, 45
2, 233808, Note_on_c, 0, 77, 0
2, 233856, Note_on_c, 0, 75, 45
2, 233904, Note_on_c, 0, 75, 0
2, 233904, Note_on_c, 0, 74, 45
2, 234046, Note_on_c, 0, 74, 0
2, 234048, Note_on_c, 0, 72, 45
2, 234096, Note_on_c, 0, 72, 0
2, 234096, Note_on_c, 0, 70, 45
2, 234238, Note_on_c, 0, 70, 0
2, 234240, Note_on_c, 0, 75, 45
2, 234496, Note_on_c, 0, 75, 0
2, 234528, Note_on_c, 0, 72, 50
2, 234622, Note_on_c, 0, 72, 0
2, 234624, Note_on_c, 0, 69, 52
2, 234784, Note_on_c, 0, 69, 0
2, 235008, Note_on_c, 0, 77, 60
2, 235344, Note_on_c, 0, 77, 0
2, 235392, Note_on_c, 0, 75, 68
2, 235438, Note_on_c, 0, 75, 0
2, 235440, Note_on_c, 0, 74, 69
2, 235582, Note_on_c, 0, 74, 0
2, 235584, Note_on_c, 0, 72, 71
2, 235632, Note_on_c, 0, 72, 0
2, 235632, Note_on_c, 0, 70, 72
2, 235774, Note_on_c, 0, 70, 0
2, 235776, Note_on_c, 0, 75, 75
2, 236064, Note_on_c, 0, 75, 0
2, 236064, Note_on_c, 0, 72, 81
2, 236160, Note_on_c, 0, 72, 0
2, 236160, Note_on_c, 0, 69, 83
2, 236320, Note_on_c, 0, 69, 0
2, 236544, Note_on_c, 0, 74, 92
2, 236688, Note_on_c, 0, 74, 0
2, 236688, Note_on_c, 0, 70, 92
2, 236734, Note_on_c, 0, 70, 0
2, 236736, Note_on_c, 0, 77, 92
2, 236830, Note_on_c, 0, 77, 0
2, 236832, Note_on_c, 0, 77, 92
2, 236864, Note_on_c, 0, 77, 0
2, 236928, Note_on_c, 0, 74, 92
2, 237070, Note_on_c, 0, 74, 0
2, 237072, Note_on_c, 0, 70, 92
2, 237118, Note_on_c, 0, 70, 0
2, 237120, Note_on_c, 0, 77, 92
2, 237214, Note_on_c, 0, 77, 0
2, 237216, Note_on_c, 0, 77, 92
2, 237248, Note_on_c, 0, 77, 0
2, 237312, Note_on_c, 0, 74, 92
2, 237456, Note_on_c, 0, 74, 0
2, 237456, Note_on_c, 0, 69, 92
2, 237504, Note_on_c, 0, 69, 0
2, 237504, Note_on_c, 0, 77, 92
2, 237598, Note_on_c, 0, 77, 0
2, 237600, Note_on_c, 0, 77, 92
2, 237632, Note_on_c, 0, 77, 0
2, 237696, Note_on_c, 0, 74, 92
2, 237840, Note_on_c, 0, 74, 0
2, 237840, Note_on_c, 0, 68, 92
2, 237888, Note_on_c, 0, 68, 0
2, 237888, Note_on_c, 0, 77, 92
2, 237984, Note_on_c, 0, 77, 0
2, 237984, Note_on_c, 0, 77, 92
2, 238016, Note_on_c, 0, 77, 0
2, 238128, Note_on_c, 0, 57, 92
2, 238176, Note_on_c, 0, 57, 0
2, 238176, Note_on_c, 0, 59, 92
2, 238224, Note_on_c, 0, 59, 0
2, 238224, Note_on_c, 0, 61, 92
2, 238272, Note_on_c, 0, 61, 0
2, 238272, Note_on_c, 0, 62, 92
2, 238320, Note_on_c, 0, 62, 0
2, 238320, Note_on_c, 0, 64, 92
2, 238368, Note_on_c, 0, 64, 0
2, 238368, Note_on_c, 0, 66, 92
2, 238416, Note_on_c, 0, 66, 0
2, 238416, Note_on_c, 0, 67, 92
2, 238464, Note_on_c, 0, 67, 0
2, 238464, Note_on_c, 0, 69, 92
2, 238512, Note_on_c, 0, 69, 0
2, 238512, Note_on_c, 0, 62, 92
2, 238560, Note_on_c, 0, 62, 0
2, 238560, Note_on_c, 0, 64, 92
2, 238608, Note_on_c, 0, 64, 0
2, 238608, Note_on_c, 0, 66, 92
2, 238656, Note_on_c, 0, 66, 0
2, 238656, Note_on_c, 0, 67, 92
2, 238704, Note_on_c, 0, 67, 0
2, 238704, Note_on_c, 0, 69, 92
2, 238752, Note_on_c, 0, 69, 0
2, 238752, Note_on_c, 0, 71, 92
2, 238800, Note_on_c, 0, 71, 0
2, 238800, Note_on_c, 0, 73, 92
2, 238848, Note_on_c, 0, 73, 0
2, 238848, Note_on_c, 0, 74, 92
2, 238896, Note_on_c, 0, 74, 0
2, 238896, Note_on_c, 0, 69, 92
2, 238944, Note_on_c, 0, 69, 0
2, 238944, Note_on_c, 0, 71, 92
2, 238992, Note_on_c, 0, 71, 0
2, 238992, Note_on_c, 0, 73, 92
2, 239040, Note_on_c, 0, 73, 0
2, 239040, Note_on_c, 0, 74, 92
2, 239088, Note_on_c, 0, 74, 0
2, 239088, Note_on_c, 0, 76, 92
2, 239136, Note_on_c, 0, 76, 0
2, 239136, Note_on_c, 0, 78, 92
2, 239184, Note_on_c, 0, 78, 0
2, 239184, Note_on_c, 0, 79, 92
2, 239232, Note_on_c, 0, 79, 0
2, 239232, Note_on_c, 0, 81, 92
2, 239280, Note_on_c, 0, 81, 0
2, 239280, Note_on_c, 0, 74, 92
2, 239328, Note_on_c, 0, 74, 0
2, 239328, Note_on_c, 0, 76, 92
2, 239376, Note_on_c, 0, 76, 0
2, 239376, Note_on_c, 0, 78, 92
2, 239424, Note_on_c, 0, 78, 0
2, 239424, Note_on_c, 0, 79, 92
2, 239472, Note_on_c, 0, 79, 0
2, 239472, Note_on_c, 0, 81, 92
2, 239520, Note_on_c, 0, 81, 0
2, 239520, Note_on_c, 0, 83, 92
2, 239568, Note_on_c, 0, 83, 0
2, 239568, Note_on_c, 0, 85, 92
2, 239616, Note_on_c, 0, 85, 0
2, 239616, Note_on_c, 0, 86, 92
2, 239712, Note_on_c, 0, 86, 0
2, 239712, Note_on_c, 0, 85, 92
2, 239806, Note_on_c, 0, 85, 0
2, 239808, Note_on_c, 0, 83, 92
2, 239832, Note_on_c, 0, 85, 92
2, 239854, Note_on_c, 0, 85, 0
2, 239856, Note_on_c, 0, 86, 92
2, 239878, Note_on_c, 0, 86, 0
2, 239880, Note_on_c, 0, 85, 92
2, 239902, Note_on_c, 0, 83, 0
2, 239902, Note_on_c, 0, 85, 0
2, 239904, Note_on_c, 0, 81, 92
2, 239998, Note_on_c, 0, 81, 0
2, 240000, Note_on_c, 0, 79, 92
2, 240024, Note_on_c, 0, 81, 92
2, 240046, Note_on_c, 0, 81, 0
2, 240048, Note_on_c, 0, 83, 92
2, 240070, Note_on_c, 0, 83, 0
2, 240072, Note_on_c, 0, 81, 92
2, 240094, Note_on_c, 0, 79, 0
2, 240094, Note_on_c, 0, 81, 0
2, 240096, Note_on_c, 0, 78, 92
2, 240190, Note_on_c, 0, 78, 0
2, 240192, Note_on_c, 0, 76, 92
2, 240216, Note_on_c, 0, 78, 92
2, 240238, Note_on_c, 0, 78, 0
2, 240240, Note_on_c, 0, 79, 92
2, 240262, Note_on_c, 0, 79, 0
2, 240264, Note_on_c, 0, 78, 92
2, 240286, Note_on_c, 0, 76, 0
2, 240286, Note_on_c, 0, 78, 0
2, 240288, Note_on_c, 0, 74, 92
2, 240382, Note_on_c, 0, 74, 0
2, 240384, Note_on_c, 0, 76, 92
2, 240432, Note_on_c, 0, 78, 92
2, 240478, Note_on_c, 0, 78, 0
2, 240480, Note_on_c, 0, 79, 92
2, 240526, Note_on_c, 0, 79, 0
2, 240528, Note_on_c, 0, 78, 92
2, 240574, Note_on_c, 0, 78, 0
2, 240576, Note_on_c, 0, 79, 92
2, 240622, Note_on_c, 0, 79, 0
2, 240624, Note_on_c, 0, 78, 92
2, 240670, Note_on_c, 0, 78, 0
2, 240672, Note_on_c, 0, 79, 92
2, 240718, Note_on_c, 0, 79, 0
2, 240720, Note_on_c, 0, 78, 92
2, 240766, Note_on_c, 0, 78, 0
2, 240768, Note_on_c, 0, 79, 92
2, 240814, Note_on_c, 0, 79, 0
2, 240816, Note_on_c, 0, 78, 92
2, 240862, Note_on_c, 0, 78, 0
2, 240864, Note_on_c, 0, 79, 92
2, 240910, Note_on_c, 0, 79, 0
2, 240912, Note_on_c, 0, 78, 92
2, 240958, Note_on_c, 0, 78, 0
2, 240960, Note_on_c, 0, 79, 92
2, 241006, Note_on_c, 0, 79, 0
2, 241008, Note_on_c, 0, 78, 92
2, 241054, Note_on_c, 0, 78, 0
2, 241056, Note_on_c, 0, 79, 92
2, 241102, Note_on_c, 0, 79, 0
2, 241104, Note_on_c, 0, 76, 0
2, 241104, Note_on_c, 0, 78, 92
2, 241150, Note_on_c, 0, 78, 0
2, 241152, Note_on_c, 0, 74, 92
2, 241174, Note_on_c, 0, 74, 0
2, 241176, Note_on_c, 0, 76, 92
2, 241198, Note_on_c, 0, 76, 0
2, 241200, Note_on_c, 0, 74, 45
2, 241342, Note_on_c, 0, 74, 0
2, 241632, Note_on_c, 0, 74, 45
2, 241664, Note_on_c, 0, 74, 0
2, 241728, Note_on_c, 0, 76, 45
2, 241760, Note_on_c, 0, 76, 0
2, 241824, Note_on_c, 0, 78, 45
2, 241856, Note_on_c, 0, 78, 0
2, 241920, Note_on_c, 0, 79, 45
2, 242304, Note_on_c, 0, 79, 0
2, 242304, Note_on_c, 0, 78, 45
2, 242400, Note_on_c, 0, 78, 0
2, 242400, Note_on_c, 0, 76, 45
2, 242496, Note_on_c, 0, 76, 0
2, 242496, Note_on_c, 0, 74, 45
2, 242592, Note_on_c, 0, 74, 0
2, 242592, Note_on_c, 0, 73, 45
2, 242688, Note_on_c, 0, 73, 0
2, 242688, Note_on_c, 0, 81, 45
2, 242976, Note_on_c, 0, 81, 0
2, 242976, Note_on_c, 0, 78, 45
2, 243072, Note_on_c, 0, 78, 0
2, 243072, Note_on_c, 0, 74, 45
2, 243166, Note_on_c, 0, 74, 0
2, 243168, Note_on_c, 0, 74, 45
2, 243200, Note_on_c, 0, 74, 0
2, 243264, Note_on_c, 0, 76, 45
2, 243296, Note_on_c, 0, 76, 0
2, 243360, Note_on_c, 0, 78, 45
2, 243392, Note_on_c, 0, 78, 0
2, 243456, Note_on_c, 0, 81, 45
2, 243552, Note_on_c, 0, 81, 0
2, 243552, Note_on_c, 0, 79, 45
2, 243744, Note_on_c, 0, 79, 0
2, 243744, Note_on_c, 0, 81, 45
2, 243792, Note_on_c, 0, 81, 0
2, 243792, Note_on_c, 0, 79, 45
2, 243840, Note_on_c, 0, 79, 0
2, 243840, Note_on_c, 0, 78, 45
2, 243936, Note_on_c, 0, 78, 0
2, 243936, Note_on_c, 0, 76, 45
2, 244032, Note_on_c, 0, 76, 0
2, 244032, Note_on_c, 0, 74, 45
2, 244128, Note_on_c, 0, 74, 0
2, 244128, Note_on_c, 0, 73, 45
2, 244224, Note_on_c, 0, 73, 0
2, 244224, Note_on_c, 0, 81, 45
2, 244416, Note_on_c, 0, 81, 0
2, 244416, Note_on_c, 0, 81, 50
2, 244464, Note_on_c, 0, 81, 0
2, 244464, Note_on_c, 0, 78, 51
2, 244512, Note_on_c, 0, 78, 0
2, 244512, Note_on_c, 0, 81, 52
2, 244560, Note_on_c, 0, 81, 0
2, 244560, Note_on_c, 0, 78, 53
2, 244606, Note_on_c, 0, 78, 0
2, 244608, Note_on_c, 0, 74, 54
2, 244702, Note_on_c, 0, 74, 0
2, 244704, Note_on_c, 0, 74, 57
2, 244736, Note_on_c, 0, 74, 0
2, 244800, Note_on_c, 0, 76, 60
2, 244832, Note_on_c, 0, 76, 0
2, 244896, Note_on_c, 0, 78, 63
2, 244928, Note_on_c, 0, 78, 0
2, 244992, Note_on_c, 0, 79, 66
2, 245024, Note_on_c, 0, 79, 0
2, 245088, Note_on_c, 0, 81, 69
2, 245112, Note_on_c, 0, 81, 0
2, 245112, Note_on_c, 0, 79, 69
2, 245134, Note_on_c, 0, 79, 0
2, 245136, Note_on_c, 0, 78, 70
2, 245182, Note_on_c, 0, 78, 0
2, 245184, Note_on_c, 0, 79, 71
2, 245278, Note_on_c, 0, 79, 0
2, 245280, Note_on_c, 0, 80, 74
2, 245312, Note_on_c, 0, 80, 0
2, 245376, Note_on_c, 0, 81, 77
2, 245408, Note_on_c, 0, 81, 0
2, 245472, Note_on_c, 0, 83, 80
2, 245496, Note_on_c, 0, 83, 0
2, 245496, Note_on_c, 0, 81, 80
2, 245518, Note_on_c, 0, 81, 0
2, 245520, Note_on_c, 0, 80, 82
2, 245566, Note_on_c, 0, 80, 0
2, 245568, Note_on_c, 0, 81, 84
2, 245662, Note_on_c, 0, 81, 0
2, 245664, Note_on_c, 0, 82, 88
2, 245696, Note_on_c, 0, 82, 0
2, 245760, Note_on_c, 0, 83, 92
2, 245824, Note_on_c, 0, 83, 0
2, 245824, Note_on_c, 0, 85, 92
2, 245888, Note_on_c, 0, 85, 0
2, 245888, Note_on_c, 0, 86, 92
2, 245952, Note_on_c, 0, 86, 0
2, 245952, Note_on_c, 0, 85, 92
2, 246016, Note_on_c, 0, 85, 0
2, 246016, Note_on_c, 0, 83, 92
2, 246080, Note_on_c, 0, 83, 0
2, 246080, Note_on_c, 0, 81, 92
2, 246144, Note_on_c, 0, 81, 0
2, 246144, Note_on_c, 0, 79, 92
2, 246208, Note_on_c, 0, 79, 0
2, 246208, Note_on_c, 0, 81, 92
2, 246272, Note_on_c, 0, 81, 0
2, 246272, Note_on_c, 0, 79, 92
2, 246336, Note_on_c, 0, 79, 0
2, 246336, Note_on_c, 0, 78, 92
2, 246400, Note_on_c, 0, 78, 0
2, 246400, Note_on_c, 0, 76, 92
2, 246464, Note_on_c, 0, 76, 0
2, 246464, Note_on_c, 0, 74, 92
2, 246526, Note_on_c, 0, 74, 0
2, 246528, Note_on_c, 0, 74, 92
2, 246622, Note_on_c, 0, 74, 0
2, 246624, Note_on_c, 0, 73, 92
2, 246718, Note_on_c, 0, 73, 0
2, 246720, Note_on_c, 0, 73, 92
2, 246862, Note_on_c, 0, 73, 0
2, 246864, Note_on_c, 0, 73, 92
2, 246910, Note_on_c, 0, 73, 0
2, 246912, Note_on_c, 0, 73, 92
2, 247072, Note_on_c, 0, 73, 0
2, 247104, Note_on_c, 0, 73, 92
2, 247296, Note_on_c, 0, 73, 0
2, 247296, Note_on_c, 0, 74, 92
2, 247456, Note_on_c, 0, 74, 0
2, 248832, Note_on_c, 0, 69, 45
2, 249168, Note_on_c, 0, 69, 0
2, 249216, Note_on_c, 0, 67, 45
2, 249264, Note_on_c, 0, 67, 0
2, 249264, Note_on_c, 0, 66, 45
2, 249406, Note_on_c, 0, 66, 0
2, 249408, Note_on_c, 0, 64, 45
2, 249456, Note_on_c, 0, 64, 0
2, 249456, Note_on_c, 0, 62, 45
2, 249598, Note_on_c, 0, 62, 0
2, 249600, Note_on_c, 0, 62, 45
2, 249694, Note_on_c, 0, 62, 0
2, 249696, Note_on_c, 0, 61, 45
2, 249790, Note_on_c, 0, 61, 0
2, 249792, Note_on_c, 0, 61, 45
2, 249934, Note_on_c, 0, 61, 0
2, 249936, Note_on_c, 0, 61, 45
2, 249982, Note_on_c, 0, 61, 0
2, 249984, Note_on_c, 0, 61, 45
2, 250144, Note_on_c, 0, 61, 0
2, 250176, Note_on_c, 0, 61, 45
2, 250368, Note_on_c, 0, 61, 0
2, 250368, Note_on_c, 0, 62, 45
2, 250528, Note_on_c, 0, 62, 0
2, 251136, Note_on_c, 0, 67, 45
2, 251472, Note_on_c, 0, 67, 0
2, 251520, Note_on_c, 0, 66, 52
2, 251568, Note_on_c, 0, 66, 0
2, 251568, Note_on_c, 0, 64, 53
2, 251710, Note_on_c, 0, 64, 0
2, 251712, Note_on_c, 0, 62, 56
2, 251760, Note_on_c, 0, 62, 0
2, 251760, Note_on_c, 0, 61, 57
2, 251902, Note_on_c, 0, 61, 0
2, 251904, Note_on_c, 0, 81, 60
2, 252240, Note_on_c, 0, 81, 0
2, 252288, Note_on_c, 0, 79, 60
2, 252336, Note_on_c, 0, 79, 0
2, 252336, Note_on_c, 0, 78, 60
2, 252478, Note_on_c, 0, 78, 0
2, 252480, Note_on_c, 0, 76, 60
2, 252528, Note_on_c, 0, 76, 0
2, 252528, Note_on_c, 0, 74, 60
2, 252670, Note_on_c, 0, 74, 0
2, 252672, Note_on_c, 0, 74, 60
2, 252766, Note_on_c, 0, 74, 0
2, 252768, Note_on_c, 0, 73, 60
2, 252862, Note_on_c, 0, 73, 0
2, 252864, Note_on_c, 0, 73, 60
2, 253006, Note_on_c, 0, 73, 0
2, 253008, Note_on_c, 0, 73, 60
2, 253054, Note_on_c, 0, 73, 0
2, 253056, Note_on_c, 0, 73, 60
2, 253216, Note_on_c, 0, 73, 0
2, 253248, Note_on_c, 0, 73, 60
2, 253440, Note_on_c, 0, 73, 0
2, 253440, Note_on_c, 0, 74, 60
2, 253776, Note_on_c, 0, 74, 0
2, 253824, Note_on_c, 0, 67, 60
2, 253824, Note_on_c, 0, 74, 60
2, 253918, Note_on_c, 0, 74, 0
2, 253920, Note_on_c, 0, 73, 60
2, 254014, Note_on_c, 0, 73, 0
2, 254016, Note_on_c, 0, 71, 60
2, 254110, Note_on_c, 0, 71, 0
2, 254112, Note_on_c, 0, 73, 60
2, 254160, Note_on_c, 0, 67, 0
2, 254206, Note_on_c, 0, 73, 0
2, 254208, Note_on_c, 0, 66, 60
2, 254208, Note_on_c, 0, 74, 60
2, 254544, Note_on_c, 0, 66, 0
2, 254544, Note_on_c, 0, 74, 0
2, 254592, Note_on_c, 0, 67, 60
2, 254592, Note_on_c, 0, 74, 60
2, 254686, Note_on_c, 0, 74, 0
2, 254688, Note_on_c, 0, 73, 60
2, 254782, Note_on_c, 0, 73, 0
2, 254784, Note_on_c, 0, 71, 60
2, 254878, Note_on_c, 0, 71, 0
2, 254880, Note_on_c, 0, 73, 60
2, 254928, Note_on_c, 0, 67, 0
2, 254974, Note_on_c, 0, 73, 0
2, 254976, Note_on_c, 0, 66, 45
2, 254976, Note_on_c, 0, 74, 45
2, 255136, Note_on_c, 0, 66, 0
2, 255136, Note_on_c, 0, 74, 0
2, 255360, Note_on_c, 0, 66, 45
2, 255360, Note_on_c, 0, 74, 45
2, 255520, Note_on_c, 0, 66, 0
2, 255520, Note_on_c, 0, 74, 0
2, 255744, Note_on_c, 0, 66, 45
2, 255744, Note_on_c, 0, 74, 45
2, 256080, Note_on_c, 0, 66, 0
2, 256080, Note_on_c, 0, 74, 0
2, 256080, End_track
3, 0, Start_track
3, 0, MIDI_port, 0
3, 0, Title_t, "Reginal Steven Ritchie"
3, 0, Program_c, 1, 0
3, 0, Control_c, 1, 7, 127
3, 0, Control_c, 1, 10, 10
3, 0, Program_c, 1, 0
3, 0, Control_c, 1, 7, 127
3, 0, Control_c, 1, 10, 10
3, 0, Control_c, 1, 91, 84
3, 0, Control_c, 1, 93, 84
3, 0, Note_on_c, 1, 62, 30
3, 0, Note_on_c, 1, 66, 30
3, 94, Note_on_c, 1, 66, 0
3, 96, Note_on_c, 1, 69, 30
3, 160, Note_on_c, 1, 62, 0
3, 190, Note_on_c, 1, 69, 0
3, 192, Note_on_c, 1, 62, 30
3, 192, Note_on_c, 1, 66, 30
3, 286, Note_on_c, 1, 66, 0
3, 288, Note_on_c, 1, 69, 30
3, 352, Note_on_c, 1, 62, 0
3, 382, Note_on_c, 1, 69, 0
3, 384, Note_on_c, 1, 62, 30
3, 384, Note_on_c, 1, 66, 30
3, 478, Note_on_c, 1, 66, 0
3, 480, Note_on_c, 1, 69, 30
3, 544, Note_on_c, 1, 62, 0
3, 574, Note_on_c, 1, 69, 0
3, 576, Note_on_c, 1, 62, 30
3, 576, Note_on_c, 1, 66, 30
3, 670, Note_on_c, 1, 66, 0
3, 672, Note_on_c, 1, 69, 30
3, 736, Note_on_c, 1, 62, 0
3, 766, Note_on_c, 1, 69, 0
3, 768, Note_on_c, 1, 64, 30
3, 768, Note_on_c, 1, 67, 30
3, 862, Note_on_c, 1, 67, 0
3, 864, Note_on_c, 1, 69, 30
3, 928, Note_on_c, 1, 64, 0
3, 958, Note_on_c, 1, 69, 0
3, 960, Note_on_c, 1, 64, 30
3, 960, Note_on_c, 1, 67, 30
3, 1054, Note_on_c, 1, 67, 0
3, 1056, Note_on_c, 1, 69, 30
3, 1120, Note_on_c, 1, 64, 0
3, 1150, Note_on_c, 1, 69, 0
3, 1152, Note_on_c, 1, 64, 30
3, 1152, Note_on_c, 1, 67, 30
3, 1246, Note_on_c, 1, 67, 0
3, 1248, Note_on_c, 1, 69, 30
3, 1312, Note_on_c, 1, 64, 0
3, 1342, Note_on_c, 1, 69, 0
3, 1344, Note_on_c, 1, 64, 30
3, 1344, Note_on_c, 1, 67, 30
3, 1438, Note_on_c, 1, 67, 0
3, 1440, Note_on_c, 1, 69, 30
3, 1504, Note_on_c, 1, 64, 0
3, 1534, Note_on_c, 1, 69, 0
3, 1536, Note_on_c, 1, 64, 30
3, 1536, Note_on_c, 1, 67, 30
3, 1630, Note_on_c, 1, 67, 0
3, 1632, Note_on_c, 1, 69, 30
3, 1696, Note_on_c, 1, 64, 0
3, 1726, Note_on_c, 1, 69, 0
3, 1728, Note_on_c, 1, 64, 30
3, 1728, Note_on_c, 1, 67, 30
3, 1822, Note_on_c, 1, 67, 0
3, 1824, Note_on_c, 1, 69, 30
3, 1888, Note_on_c, 1, 64, 0
3, 1918, Note_on_c, 1, 69, 0
3, 1920, Note_on_c, 1, 64, 30
3, 1920, Note_on_c, 1, 67, 30
3, 2014, Note_on_c, 1, 67, 0
3, 2016, Note_on_c, 1, 69, 30
3, 2080, Note_on_c, 1, 64, 0
3, 2110, Note_on_c, 1, 69, 0
3, 2112, Note_on_c, 1, 64, 30
3, 2112, Note_on_c, 1, 67, 30
3, 2206, Note_on_c, 1, 67, 0
3, 2208, Note_on_c, 1, 69, 30
3, 2272, Note_on_c, 1, 64, 0
3, 2302, Note_on_c, 1, 69, 0
3, 2304, Note_on_c, 1, 62, 30
3, 2304, Note_on_c, 1, 66, 30
3, 2398, Note_on_c, 1, 66, 0
3, 2400, Note_on_c, 1, 69, 30
3, 2464, Note_on_c, 1, 62, 0
3, 2494, Note_on_c, 1, 69, 0
3, 2496, Note_on_c, 1, 62, 30
3, 2496, Note_on_c, 1, 66, 30
3, 2590, Note_on_c, 1, 66, 0
3, 2592, Note_on_c, 1, 69, 30
3, 2656, Note_on_c, 1, 62, 0
3, 2686, Note_on_c, 1, 69, 0
3, 2688, Note_on_c, 1, 62, 30
3, 2688, Note_on_c, 1, 66, 30
3, 2782, Note_on_c, 1, 66, 0
3, 2784, Note_on_c, 1, 69, 30
3, 2848, Note_on_c, 1, 62, 0
3, 2878, Note_on_c, 1, 69, 0
3, 2880, Note_on_c, 1, 62, 30
3, 2880, Note_on_c, 1, 66, 30
3, 2974, Note_on_c, 1, 66, 0
3, 2976, Note_on_c, 1, 69, 30
3, 3040, Note_on_c, 1, 62, 0
3, 3070, Note_on_c, 1, 69, 0
3, 3072, Note_on_c, 1, 62, 30
3, 3072, Note_on_c, 1, 67, 30
3, 3166, Note_on_c, 1, 67, 0
3, 3168, Note_on_c, 1, 71, 30
3, 3232, Note_on_c, 1, 62, 0
3, 3262, Note_on_c, 1, 71, 0
3, 3264, Note_on_c, 1, 62, 30
3, 3264, Note_on_c, 1, 67, 30
3, 3358, Note_on_c, 1, 67, 0
3, 3360, Note_on_c, 1, 69, 30
3, 3424, Note_on_c, 1, 62, 0
3, 3454, Note_on_c, 1, 69, 0
3, 3456, Note_on_c, 1, 62, 30
3, 3456, Note_on_c, 1, 66, 30
3, 3550, Note_on_c, 1, 66, 0
3, 3552, Note_on_c, 1, 69, 30
3, 3616, Note_on_c, 1, 62, 0
3, 3646, Note_on_c, 1, 69, 0
3, 3648, Note_on_c, 1, 62, 30
3, 3648, Note_on_c, 1, 66, 30
3, 3742, Note_on_c, 1, 66, 0
3, 3744, Note_on_c, 1, 69, 30
3, 3808, Note_on_c, 1, 62, 0
3, 3838, Note_on_c, 1, 69, 0
3, 3840, Note_on_c, 1, 62, 30
3, 3840, Note_on_c, 1, 67, 30
3, 3934, Note_on_c, 1, 67, 0
3, 3936, Note_on_c, 1, 71, 30
3, 4000, Note_on_c, 1, 62, 0
3, 4030, Note_on_c, 1, 71, 0
3, 4032, Note_on_c, 1, 62, 30
3, 4032, Note_on_c, 1, 67, 30
3, 4126, Note_on_c, 1, 67, 0
3, 4128, Note_on_c, 1, 69, 30
3, 4192, Note_on_c, 1, 62, 0
3, 4222, Note_on_c, 1, 69, 0
3, 4224, Note_on_c, 1, 62, 30
3, 4224, Note_on_c, 1, 66, 30
3, 4318, Note_on_c, 1, 66, 0
3, 4320, Note_on_c, 1, 69, 30
3, 4384, Note_on_c, 1, 62, 0
3, 4414, Note_on_c, 1, 69, 0
3, 4416, Note_on_c, 1, 62, 30
3, 4416, Note_on_c, 1, 66, 30
3, 4510, Note_on_c, 1, 66, 0
3, 4512, Note_on_c, 1, 69, 30
3, 4576, Note_on_c, 1, 62, 0
3, 4606, Note_on_c, 1, 69, 0
3, 4800, Note_on_c, 1, 61, 30
3, 4800, Note_on_c, 1, 64, 30
3, 4800, Note_on_c, 1, 69, 30
3, 4960, Note_on_c, 1, 61, 0
3, 4960, Note_on_c, 1, 64, 0
3, 4960, Note_on_c, 1, 69, 0
3, 5184, Note_on_c, 1, 62, 30
3, 5184, Note_on_c, 1, 66, 30
3, 5184, Note_on_c, 1, 69, 30
3, 5344, Note_on_c, 1, 62, 0
3, 5344, Note_on_c, 1, 66, 0
3, 5344, Note_on_c, 1, 69, 0
3, 5376, Note_on_c, 1, 57, 30
3, 5376, Note_on_c, 1, 61, 30
3, 5536, Note_on_c, 1, 57, 0
3, 5536, Note_on_c, 1, 61, 0
3, 6144, Note_on_c, 1, 62, 30
3, 6144, Note_on_c, 1, 66, 30
3, 6240, Note_on_c, 1, 66, 0
3, 6240, Note_on_c, 1, 69, 30
3, 6304, Note_on_c, 1, 62, 0
3, 6336, Note_on_c, 1, 69, 0
3, 6336, Note_on_c, 1, 62, 30
3, 6336, Note_on_c, 1, 66, 30
3, 6432, Note_on_c, 1, 66, 0
3, 6432, Note_on_c, 1, 69, 30
3, 6496, Note_on_c, 1, 62, 0
3, 6528, Note_on_c, 1, 69, 0
3, 6528, Note_on_c, 1, 62, 30
3, 6528, Note_on_c, 1, 66, 30
3, 6624, Note_on_c, 1, 66, 0
3, 6624, Note_on_c, 1, 69, 30
3, 6688, Note_on_c, 1, 62, 0
3, 6720, Note_on_c, 1, 69, 0
3, 6720, Note_on_c, 1, 62, 30
3, 6720, Note_on_c, 1, 66, 30
3, 6816, Note_on_c, 1, 66, 0
3, 6816, Note_on_c, 1, 69, 30
3, 6880, Note_on_c, 1, 62, 0
3, 6912, Note_on_c, 1, 69, 0
3, 6912, Note_on_c, 1, 64, 30
3, 6912, Note_on_c, 1, 67, 30
3, 7008, Note_on_c, 1, 67, 0
3, 7008, Note_on_c, 1, 69, 30
3, 7072, Note_on_c, 1, 64, 0
3, 7104, Note_on_c, 1, 69, 0
3, 7104, Note_on_c, 1, 64, 30
3, 7104, Note_on_c, 1, 67, 30
3, 7200, Note_on_c, 1, 67, 0
3, 7200, Note_on_c, 1, 69, 30
3, 7264, Note_on_c, 1, 64, 0
3, 7296, Note_on_c, 1, 69, 0
3, 7296, Note_on_c, 1, 64, 30
3, 7296, Note_on_c, 1, 67, 30
3, 7392, Note_on_c, 1, 67, 0
3, 7392, Note_on_c, 1, 69, 30
3, 7456, Note_on_c, 1, 64, 0
3, 7488, Note_on_c, 1, 69, 0
3, 7488, Note_on_c, 1, 64, 30
3, 7488, Note_on_c, 1, 67, 30
3, 7584, Note_on_c, 1, 67, 0
3, 7584, Note_on_c, 1, 69, 30
3, 7648, Note_on_c, 1, 64, 0
3, 7680, Note_on_c, 1, 69, 0
3, 7680, Note_on_c, 1, 64, 30
3, 7680, Note_on_c, 1, 67, 30
3, 7776, Note_on_c, 1, 67, 0
3, 7776, Note_on_c, 1, 69, 30
3, 7840, Note_on_c, 1, 64, 0
3, 7872, Note_on_c, 1, 69, 0
3, 7872, Note_on_c, 1, 64, 30
3, 7872, Note_on_c, 1, 67, 30
3, 7968, Note_on_c, 1, 67, 0
3, 7968, Note_on_c, 1, 69, 30
3, 8032, Note_on_c, 1, 64, 0
3, 8064, Note_on_c, 1, 69, 0
3, 8064, Note_on_c, 1, 64, 30
3, 8064, Note_on_c, 1, 67, 30
3, 8160, Note_on_c, 1, 67, 0
3, 8160, Note_on_c, 1, 69, 30
3, 8224, Note_on_c, 1, 64, 0
3, 8256, Note_on_c, 1, 69, 0
3, 8256, Note_on_c, 1, 64, 30
3, 8256, Note_on_c, 1, 67, 30
3, 8352, Note_on_c, 1, 67, 0
3, 8352, Note_on_c, 1, 69, 30
3, 8416, Note_on_c, 1, 64, 0
3, 8448, Note_on_c, 1, 69, 0
3, 8448, Note_on_c, 1, 62, 30
3, 8448, Note_on_c, 1, 66, 30
3, 8544, Note_on_c, 1, 66, 0
3, 8544, Note_on_c, 1, 69, 30
3, 8608, Note_on_c, 1, 62, 0
3, 8640, Note_on_c, 1, 69, 0
3, 8640, Note_on_c, 1, 62, 30
3, 8640, Note_on_c, 1, 66, 30
3, 8736, Note_on_c, 1, 66, 0
3, 8736, Note_on_c, 1, 69, 30
3, 8800, Note_on_c, 1, 62, 0
3, 8832, Note_on_c, 1, 69, 0
3, 8832, Note_on_c, 1, 62, 30
3, 8832, Note_on_c, 1, 66, 30
3, 8928, Note_on_c, 1, 66, 0
3, 8928, Note_on_c, 1, 69, 30
3, 8992, Note_on_c, 1, 62, 0
3, 9024, Note_on_c, 1, 69, 0
3, 9024, Note_on_c, 1, 62, 30
3, 9024, Note_on_c, 1, 66, 30
3, 9120, Note_on_c, 1, 66, 0
3, 9120, Note_on_c, 1, 69, 30
3, 9184, Note_on_c, 1, 62, 0
3, 9216, Note_on_c, 1, 69, 0
3, 9216, Note_on_c, 1, 62, 30
3, 9216, Note_on_c, 1, 67, 30
3, 9312, Note_on_c, 1, 67, 0
3, 9312, Note_on_c, 1, 71, 30
3, 9376, Note_on_c, 1, 62, 0
3, 9408, Note_on_c, 1, 71, 0
3, 9408, Note_on_c, 1, 62, 30
3, 9408, Note_on_c, 1, 67, 30
3, 9504, Note_on_c, 1, 67, 0
3, 9504, Note_on_c, 1, 69, 30
3, 9568, Note_on_c, 1, 62, 0
3, 9600, Note_on_c, 1, 69, 0
3, 9600, Note_on_c, 1, 62, 30
3, 9600, Note_on_c, 1, 66, 30
3, 9696, Note_on_c, 1, 66, 0
3, 9696, Note_on_c, 1, 69, 30
3, 9760, Note_on_c, 1, 62, 0
3, 9792, Note_on_c, 1, 69, 0
3, 9792, Note_on_c, 1, 62, 30
3, 9792, Note_on_c, 1, 66, 30
3, 9888, Note_on_c, 1, 66, 0
3, 9888, Note_on_c, 1, 69, 30
3, 9952, Note_on_c, 1, 62, 0
3, 9984, Note_on_c, 1, 69, 0
3, 9984, Note_on_c, 1, 62, 30
3, 9984, Note_on_c, 1, 67, 30
3, 10080, Note_on_c, 1, 67, 0
3, 10080, Note_on_c, 1, 71, 30
3, 10144, Note_on_c, 1, 62, 0
3, 10176, Note_on_c, 1, 71, 0
3, 10176, Note_on_c, 1, 62, 30
3, 10176, Note_on_c, 1, 67, 30
3, 10272, Note_on_c, 1, 67, 0
3, 10272, Note_on_c, 1, 69, 30
3, 10336, Note_on_c, 1, 62, 0
3, 10368, Note_on_c, 1, 69, 0
3, 10368, Note_on_c, 1, 62, 30
3, 10368, Note_on_c, 1, 66, 30
3, 10528, Note_on_c, 1, 62, 0
3, 10528, Note_on_c, 1, 66, 0
3, 10944, Note_on_c, 1, 55, 60
3, 10944, Note_on_c, 1, 67, 60
3, 11136, Note_on_c, 1, 55, 0
3, 11136, Note_on_c, 1, 67, 0
3, 11136, Note_on_c, 1, 57, 60
3, 11136, Note_on_c, 1, 66, 60
3, 11328, Note_on_c, 1, 66, 0
3, 11328, Note_on_c, 1, 67, 60
3, 11472, Note_on_c, 1, 57, 0
3, 11520, Note_on_c, 1, 67, 0
3, 11520, Note_on_c, 1, 62, 60
3, 11520, Note_on_c, 1, 66, 60
3, 11680, Note_on_c, 1, 62, 0
3, 11680, Note_on_c, 1, 66, 0
3, 11712, Note_on_c, 1, 50, 60
3, 11872, Note_on_c, 1, 50, 0
3, 12096, Note_on_c, 1, 50, 60
3, 12256, Note_on_c, 1, 50, 0
3, 12288, Note_on_c, 1, 49, 60
3, 12480, Note_on_c, 1, 49, 0
3, 12480, Note_on_c, 1, 50, 60
3, 12672, Note_on_c, 1, 50, 0
3, 12672, Note_on_c, 1, 52, 60
3, 12864, Note_on_c, 1, 52, 0
3, 12864, Note_on_c, 1, 49, 60
3, 13056, Note_on_c, 1, 49, 0
3, 13056, Note_on_c, 1, 50, 60
3, 13216, Note_on_c, 1, 50, 0
3, 13248, Note_on_c, 1, 38, 60
3, 13408, Note_on_c, 1, 38, 0
3, 13632, Note_on_c, 1, 50, 60
3, 13792, Note_on_c, 1, 50, 0
3, 13824, Note_on_c, 1, 49, 60
3, 14016, Note_on_c, 1, 49, 0
3, 14016, Note_on_c, 1, 50, 60
3, 14208, Note_on_c, 1, 50, 0
3, 14208, Note_on_c, 1, 52, 60
3, 14400, Note_on_c, 1, 52, 0
3, 14400, Note_on_c, 1, 49, 60
3, 14592, Note_on_c, 1, 49, 0
3, 14592, Note_on_c, 1, 50, 60
3, 14752, Note_on_c, 1, 50, 0
3, 14784, Note_on_c, 1, 38, 60
3, 14944, Note_on_c, 1, 38, 0
3, 15360, Note_on_c, 1, 50, 30
3, 15456, Note_on_c, 1, 50, 0
3, 15456, Note_on_c, 1, 59, 30
3, 15552, Note_on_c, 1, 59, 0
3, 15552, Note_on_c, 1, 54, 30
3, 15648, Note_on_c, 1, 54, 0
3, 15648, Note_on_c, 1, 59, 30
3, 15744, Note_on_c, 1, 59, 0
3, 15744, Note_on_c, 1, 50, 30
3, 15840, Note_on_c, 1, 50, 0
3, 15840, Note_on_c, 1, 59, 30
3, 15936, Note_on_c, 1, 59, 0
3, 15936, Note_on_c, 1, 54, 30
3, 16032, Note_on_c, 1, 54, 0
3, 16032, Note_on_c, 1, 59, 30
3, 16128, Note_on_c, 1, 59, 0
3, 16128, Note_on_c, 1, 52, 30
3, 16224, Note_on_c, 1, 52, 0
3, 16224, Note_on_c, 1, 61, 30
3, 16320, Note_on_c, 1, 61, 0
3, 16320, Note_on_c, 1, 55, 30
3, 16416, Note_on_c, 1, 55, 0
3, 16416, Note_on_c, 1, 61, 30
3, 16512, Note_on_c, 1, 61, 0
3, 16512, Note_on_c, 1, 50, 30
3, 16608, Note_on_c, 1, 50, 0
3, 16608, Note_on_c, 1, 59, 30
3, 16704, Note_on_c, 1, 59, 0
3, 16704, Note_on_c, 1, 54, 30
3, 16800, Note_on_c, 1, 54, 0
3, 16800, Note_on_c, 1, 59, 30
3, 16896, Note_on_c, 1, 59, 0
3, 16896, Note_on_c, 1, 49, 30
3, 16992, Note_on_c, 1, 49, 0
3, 16992, Note_on_c, 1, 57, 30
3, 17088, Note_on_c, 1, 57, 0
3, 17088, Note_on_c, 1, 52, 30
3, 17184, Note_on_c, 1, 52, 0
3, 17184, Note_on_c, 1, 57, 30
3, 17280, Note_on_c, 1, 57, 0
3, 17280, Note_on_c, 1, 49, 30
3, 17376, Note_on_c, 1, 49, 0
3, 17376, Note_on_c, 1, 57, 30
3, 17472, Note_on_c, 1, 57, 0
3, 17472, Note_on_c, 1, 52, 30
3, 17568, Note_on_c, 1, 52, 0
3, 17568, Note_on_c, 1, 57, 30
3, 17664, Note_on_c, 1, 57, 0
3, 17664, Note_on_c, 1, 50, 30
3, 17760, Note_on_c, 1, 50, 0
3, 17760, Note_on_c, 1, 59, 30
3, 17856, Note_on_c, 1, 59, 0
3, 17856, Note_on_c, 1, 53, 30
3, 17952, Note_on_c, 1, 53, 0
3, 17952, Note_on_c, 1, 59, 30
3, 18048, Note_on_c, 1, 59, 0
3, 18048, Note_on_c, 1, 49, 30
3, 18144, Note_on_c, 1, 49, 0
3, 18144, Note_on_c, 1, 57, 30
3, 18240, Note_on_c, 1, 57, 0
3, 18240, Note_on_c, 1, 52, 30
3, 18336, Note_on_c, 1, 52, 0
3, 18336, Note_on_c, 1, 57, 30
3, 18430, Note_on_c, 1, 57, 0
3, 18624, Note_on_c, 1, 59, 30
3, 18624, Note_on_c, 1, 66, 30
3, 18624, Note_on_c, 1, 69, 30
3, 18784, Note_on_c, 1, 59, 0
3, 18784, Note_on_c, 1, 66, 0
3, 18784, Note_on_c, 1, 69, 0
3, 18816, Note_on_c, 1, 59, 30
3, 18816, Note_on_c, 1, 63, 30
3, 18816, Note_on_c, 1, 66, 30
3, 18976, Note_on_c, 1, 59, 0
3, 18976, Note_on_c, 1, 63, 0
3, 18976, Note_on_c, 1, 66, 0
3, 19008, Note_on_c, 1, 59, 30
3, 19008, Note_on_c, 1, 63, 30
3, 19008, Note_on_c, 1, 66, 30
3, 19168, Note_on_c, 1, 59, 0
3, 19168, Note_on_c, 1, 63, 0
3, 19168, Note_on_c, 1, 66, 0
3, 19392, Note_on_c, 1, 52, 30
3, 19392, Note_on_c, 1, 59, 30
3, 19392, Note_on_c, 1, 62, 30
3, 19552, Note_on_c, 1, 52, 0
3, 19552, Note_on_c, 1, 59, 0
3, 19552, Note_on_c, 1, 62, 0
3, 19584, Note_on_c, 1, 52, 30
3, 19584, Note_on_c, 1, 56, 30
3, 19584, Note_on_c, 1, 59, 30
3, 19744, Note_on_c, 1, 52, 0
3, 19744, Note_on_c, 1, 56, 0
3, 19744, Note_on_c, 1, 59, 0
3, 19776, Note_on_c, 1, 52, 30
3, 19776, Note_on_c, 1, 56, 30
3, 19776, Note_on_c, 1, 59, 30
3, 19936, Note_on_c, 1, 52, 0
3, 19936, Note_on_c, 1, 56, 0
3, 19936, Note_on_c, 1, 59, 0
3, 19968, Note_on_c, 1, 52, 30
3, 20064, Note_on_c, 1, 52, 0
3, 20064, Note_on_c, 1, 57, 30
3, 20160, Note_on_c, 1, 57, 0
3, 20160, Note_on_c, 1, 60, 30
3, 20256, Note_on_c, 1, 60, 0
3, 20256, Note_on_c, 1, 57, 30
3, 20352, Note_on_c, 1, 57, 0
3, 20352, Note_on_c, 1, 52, 30
3, 20448, Note_on_c, 1, 52, 0
3, 20448, Note_on_c, 1, 57, 30
3, 20544, Note_on_c, 1, 57, 0
3, 20544, Note_on_c, 1, 60, 30
3, 20640, Note_on_c, 1, 60, 0
3, 20640, Note_on_c, 1, 57, 30
3, 20736, Note_on_c, 1, 57, 0
3, 20736, Note_on_c, 1, 52, 30
3, 20832, Note_on_c, 1, 52, 0
3, 20832, Note_on_c, 1, 59, 30
3, 20928, Note_on_c, 1, 59, 0
3, 20928, Note_on_c, 1, 62, 30
3, 21024, Note_on_c, 1, 62, 0
3, 21024, Note_on_c, 1, 59, 30
3, 21120, Note_on_c, 1, 59, 0
3, 21120, Note_on_c, 1, 52, 30
3, 21216, Note_on_c, 1, 52, 0
3, 21216, Note_on_c, 1, 56, 30
3, 21312, Note_on_c, 1, 56, 0
3, 21312, Note_on_c, 1, 59, 30
3, 21408, Note_on_c, 1, 59, 0
3, 21408, Note_on_c, 1, 56, 30
3, 21504, Note_on_c, 1, 56, 0
3, 21504, Note_on_c, 1, 52, 30
3, 21600, Note_on_c, 1, 52, 0
3, 21600, Note_on_c, 1, 57, 30
3, 21696, Note_on_c, 1, 57, 0
3, 21696, Note_on_c, 1, 60, 30
3, 21792, Note_on_c, 1, 60, 0
3, 21792, Note_on_c, 1, 57, 30
3, 21888, Note_on_c, 1, 57, 0
3, 21888, Note_on_c, 1, 52, 30
3, 21984, Note_on_c, 1, 52, 0
3, 21984, Note_on_c, 1, 57, 30
3, 22080, Note_on_c, 1, 57, 0
3, 22080, Note_on_c, 1, 60, 30
3, 22176, Note_on_c, 1, 60, 0
3, 22176, Note_on_c, 1, 57, 30
3, 22272, Note_on_c, 1, 57, 0
3, 22272, Note_on_c, 1, 52, 30
3, 22368, Note_on_c, 1, 52, 0
3, 22368, Note_on_c, 1, 59, 30
3, 22464, Note_on_c, 1, 59, 0
3, 22464, Note_on_c, 1, 62, 30
3, 22560, Note_on_c, 1, 62, 0
3, 22560, Note_on_c, 1, 59, 30
3, 22656, Note_on_c, 1, 59, 0
3, 22656, Note_on_c, 1, 52, 30
3, 22752, Note_on_c, 1, 52, 0
3, 22752, Note_on_c, 1, 56, 30
3, 22848, Note_on_c, 1, 56, 0
3, 22848, Note_on_c, 1, 59, 30
3, 22944, Note_on_c, 1, 59, 0
3, 22944, Note_on_c, 1, 56, 30
3, 23040, Note_on_c, 1, 56, 0
3, 23040, Note_on_c, 1, 52, 30
3, 23136, Note_on_c, 1, 52, 0
3, 23136, Note_on_c, 1, 57, 30
3, 23232, Note_on_c, 1, 57, 0
3, 23232, Note_on_c, 1, 60, 30
3, 23328, Note_on_c, 1, 60, 0
3, 23328, Note_on_c, 1, 57, 30
3, 23424, Note_on_c, 1, 57, 0
3, 23424, Note_on_c, 1, 52, 30
3, 23520, Note_on_c, 1, 52, 0
3, 23520, Note_on_c, 1, 57, 30
3, 23616, Note_on_c, 1, 57, 0
3, 23616, Note_on_c, 1, 60, 30
3, 23712, Note_on_c, 1, 60, 0
3, 23712, Note_on_c, 1, 57, 30
3, 23808, Note_on_c, 1, 57, 0
3, 23808, Note_on_c, 1, 52, 30
3, 23904, Note_on_c, 1, 52, 0
3, 23904, Note_on_c, 1, 56, 30
3, 24000, Note_on_c, 1, 56, 0
3, 24000, Note_on_c, 1, 59, 30
3, 24096, Note_on_c, 1, 59, 0
3, 24096, Note_on_c, 1, 56, 30
3, 24192, Note_on_c, 1, 56, 0
3, 24192, Note_on_c, 1, 52, 30
3, 24288, Note_on_c, 1, 52, 0
3, 24288, Note_on_c, 1, 57, 30
3, 24384, Note_on_c, 1, 57, 0
3, 24384, Note_on_c, 1, 60, 30
3, 24480, Note_on_c, 1, 60, 0
3, 24480, Note_on_c, 1, 57, 30
3, 24576, Note_on_c, 1, 57, 0
3, 24576, Note_on_c, 1, 52, 30
3, 24672, Note_on_c, 1, 52, 0
3, 24672, Note_on_c, 1, 56, 30
3, 24768, Note_on_c, 1, 56, 0
3, 24768, Note_on_c, 1, 59, 30
3, 24864, Note_on_c, 1, 59, 0
3, 24864, Note_on_c, 1, 56, 30
3, 24960, Note_on_c, 1, 56, 0
3, 24960, Note_on_c, 1, 52, 30
3, 25056, Note_on_c, 1, 52, 0
3, 25056, Note_on_c, 1, 57, 30
3, 25152, Note_on_c, 1, 57, 0
3, 25152, Note_on_c, 1, 60, 30
3, 25248, Note_on_c, 1, 60, 0
3, 25248, Note_on_c, 1, 57, 30
3, 25344, Note_on_c, 1, 57, 0
3, 25344, Note_on_c, 1, 52, 30
3, 25344, Note_on_c, 1, 56, 30
3, 25504, Note_on_c, 1, 52, 0
3, 25504, Note_on_c, 1, 56, 0
3, 26880, Note_on_c, 1, 57, 30
3, 26880, Note_on_c, 1, 61, 30
3, 26974, Note_on_c, 1, 61, 0
3, 26976, Note_on_c, 1, 64, 30
3, 27040, Note_on_c, 1, 57, 0
3, 27070, Note_on_c, 1, 64, 0
3, 27072, Note_on_c, 1, 57, 30
3, 27072, Note_on_c, 1, 61, 30
3, 27166, Note_on_c, 1, 61, 0
3, 27168, Note_on_c, 1, 64, 30
3, 27232, Note_on_c, 1, 57, 0
3, 27262, Note_on_c, 1, 64, 0
3, 27264, Note_on_c, 1, 57, 30
3, 27264, Note_on_c, 1, 61, 30
3, 27358, Note_on_c, 1, 61, 0
3, 27360, Note_on_c, 1, 64, 30
3, 27424, Note_on_c, 1, 57, 0
3, 27454, Note_on_c, 1, 64, 0
3, 27456, Note_on_c, 1, 57, 30
3, 27456, Note_on_c, 1, 61, 30
3, 27550, Note_on_c, 1, 61, 0
3, 27552, Note_on_c, 1, 64, 30
3, 27616, Note_on_c, 1, 57, 0
3, 27646, Note_on_c, 1, 64, 0
3, 27648, Note_on_c, 1, 59, 30
3, 27648, Note_on_c, 1, 62, 30
3, 27742, Note_on_c, 1, 62, 0
3, 27744, Note_on_c, 1, 64, 30
3, 27808, Note_on_c, 1, 59, 0
3, 27838, Note_on_c, 1, 64, 0
3, 27840, Note_on_c, 1, 59, 30
3, 27840, Note_on_c, 1, 62, 30
3, 27934, Note_on_c, 1, 62, 0
3, 27936, Note_on_c, 1, 64, 30
3, 28000, Note_on_c, 1, 59, 0
3, 28030, Note_on_c, 1, 64, 0
3, 28032, Note_on_c, 1, 59, 30
3, 28032, Note_on_c, 1, 62, 30
3, 28126, Note_on_c, 1, 62, 0
3, 28128, Note_on_c, 1, 64, 30
3, 28192, Note_on_c, 1, 59, 0
3, 28222, Note_on_c, 1, 64, 0
3, 28224, Note_on_c, 1, 59, 30
3, 28224, Note_on_c, 1, 62, 30
3, 28318, Note_on_c, 1, 62, 0
3, 28320, Note_on_c, 1, 64, 30
3, 28384, Note_on_c, 1, 59, 0
3, 28414, Note_on_c, 1, 64, 0
3, 28416, Note_on_c, 1, 59, 30
3, 28416, Note_on_c, 1, 62, 30
3, 28510, Note_on_c, 1, 62, 0
3, 28512, Note_on_c, 1, 64, 30
3, 28576, Note_on_c, 1, 59, 0
3, 28606, Note_on_c, 1, 64, 0
3, 28608, Note_on_c, 1, 59, 30
3, 28608, Note_on_c, 1, 62, 30
3, 28702, Note_on_c, 1, 62, 0
3, 28704, Note_on_c, 1, 64, 30
3, 28768, Note_on_c, 1, 59, 0
3, 28798, Note_on_c, 1, 64, 0
3, 28800, Note_on_c, 1, 59, 30
3, 28800, Note_on_c, 1, 62, 30
3, 28894, Note_on_c, 1, 62, 0
3, 28896, Note_on_c, 1, 64, 30
3, 28960, Note_on_c, 1, 59, 0
3, 28990, Note_on_c, 1, 64, 0
3, 28992, Note_on_c, 1, 59, 30
3, 28992, Note_on_c, 1, 62, 30
3, 29086, Note_on_c, 1, 62, 0
3, 29088, Note_on_c, 1, 64, 30
3, 29152, Note_on_c, 1, 59, 0
3, 29182, Note_on_c, 1, 64, 0
3, 29184, Note_on_c, 1, 61, 30
3, 29184, Note_on_c, 1, 64, 30
3, 29278, Note_on_c, 1, 64, 0
3, 29280, Note_on_c, 1, 67, 30
3, 29344, Note_on_c, 1, 61, 0
3, 29374, Note_on_c, 1, 67, 0
3, 29376, Note_on_c, 1, 61, 30
3, 29376, Note_on_c, 1, 64, 30
3, 29470, Note_on_c, 1, 64, 0
3, 29472, Note_on_c, 1, 67, 30
3, 29536, Note_on_c, 1, 61, 0
3, 29566, Note_on_c, 1, 67, 0
3, 29568, Note_on_c, 1, 61, 30
3, 29568, Note_on_c, 1, 64, 30
3, 29662, Note_on_c, 1, 64, 0
3, 29664, Note_on_c, 1, 67, 30
3, 29728, Note_on_c, 1, 61, 0
3, 29758, Note_on_c, 1, 67, 0
3, 29760, Note_on_c, 1, 61, 30
3, 29760, Note_on_c, 1, 64, 30
3, 29854, Note_on_c, 1, 64, 0
3, 29856, Note_on_c, 1, 67, 30
3, 29920, Note_on_c, 1, 61, 0
3, 29950, Note_on_c, 1, 67, 0
3, 29952, Note_on_c, 1, 62, 30
3, 29952, Note_on_c, 1, 66, 30
3, 30112, Note_on_c, 1, 62, 0
3, 30112, Note_on_c, 1, 66, 0
3, 30528, Note_on_c, 1, 62, 30
3, 30528, Note_on_c, 1, 65, 30
3, 30688, Note_on_c, 1, 62, 0
3, 30688, Note_on_c, 1, 65, 0
3, 30720, Note_on_c, 1, 60, 30
3, 30720, Note_on_c, 1, 64, 30
3, 30880, Note_on_c, 1, 60, 0
3, 30880, Note_on_c, 1, 64, 0
3, 31296, Note_on_c, 1, 54, 30
3, 31296, Note_on_c, 1, 57, 30
3, 31488, Note_on_c, 1, 54, 0
3, 31488, Note_on_c, 1, 57, 0
3, 31488, Note_on_c, 1, 52, 30
3, 31582, Note_on_c, 1, 52, 0
3, 31584, Note_on_c, 1, 57, 30
3, 31678, Note_on_c, 1, 57, 0
3, 31680, Note_on_c, 1, 61, 30
3, 31776, Note_on_c, 1, 61, 0
3, 31776, Note_on_c, 1, 57, 30
3, 31872, Note_on_c, 1, 57, 0
3, 31872, Note_on_c, 1, 52, 30
3, 31968, Note_on_c, 1, 52, 0
3, 31968, Note_on_c, 1, 59, 30
3, 32064, Note_on_c, 1, 59, 0
3, 32064, Note_on_c, 1, 62, 30
3, 32158, Note_on_c, 1, 62, 0
3, 32160, Note_on_c, 1, 59, 30
3, 32254, Note_on_c, 1, 59, 0
3, 32256, Note_on_c, 1, 64, 92
3, 32592, Note_on_c, 1, 64, 0
3, 32640, Note_on_c, 1, 62, 92
3, 32688, Note_on_c, 1, 62, 0
3, 32688, Note_on_c, 1, 61, 92
3, 32830, Note_on_c, 1, 61, 0
3, 32832, Note_on_c, 1, 59, 92
3, 32880, Note_on_c, 1, 59, 0
3, 32880, Note_on_c, 1, 57, 92
3, 33022, Note_on_c, 1, 57, 0
3, 33024, Note_on_c, 1, 62, 92
3, 33312, Note_on_c, 1, 62, 0
3, 33312, Note_on_c, 1, 59, 92
3, 33408, Note_on_c, 1, 59, 0
3, 33408, Note_on_c, 1, 56, 92
3, 33568, Note_on_c, 1, 56, 0
3, 33792, Note_on_c, 1, 64, 92
3, 34128, Note_on_c, 1, 64, 0
3, 34176, Note_on_c, 1, 62, 92
3, 34224, Note_on_c, 1, 62, 0
3, 34224, Note_on_c, 1, 61, 92
3, 34366, Note_on_c, 1, 61, 0
3, 34368, Note_on_c, 1, 59, 92
3, 34416, Note_on_c, 1, 59, 0
3, 34416, Note_on_c, 1, 57, 92
3, 34558, Note_on_c, 1, 57, 0
3, 34560, Note_on_c, 1, 62, 92
3, 34848, Note_on_c, 1, 62, 0
3, 34848, Note_on_c, 1, 59, 92
3, 34944, Note_on_c, 1, 59, 0
3, 34944, Note_on_c, 1, 56, 92
3, 35104, Note_on_c, 1, 56, 0
3, 35328, Note_on_c, 1, 57, 92
3, 35488, Note_on_c, 1, 57, 0
3, 36000, Note_on_c, 1, 37, 92
3, 36000, Note_on_c, 1, 49, 92
3, 36094, Note_on_c, 1, 37, 0
3, 36094, Note_on_c, 1, 49, 0
3, 36096, Note_on_c, 1, 38, 92
3, 36096, Note_on_c, 1, 50, 92
3, 36256, Note_on_c, 1, 38, 0
3, 36256, Note_on_c, 1, 50, 0
3, 36768, Note_on_c, 1, 38, 92
3, 36768, Note_on_c, 1, 50, 92
3, 36862, Note_on_c, 1, 38, 0
3, 36862, Note_on_c, 1, 50, 0
3, 36864, Note_on_c, 1, 39, 92
3, 36864, Note_on_c, 1, 51, 92
3, 37024, Note_on_c, 1, 39, 0
3, 37024, Note_on_c, 1, 51, 0
3, 37920, Note_on_c, 1, 63, 92
3, 37952, Note_on_c, 1, 63, 0
3, 38016, Note_on_c, 1, 60, 92
3, 38048, Note_on_c, 1, 60, 0
3, 38112, Note_on_c, 1, 57, 92
3, 38144, Note_on_c, 1, 57, 0
3, 38208, Note_on_c, 1, 54, 92
3, 38240, Note_on_c, 1, 54, 0
3, 38304, Note_on_c, 1, 51, 92
3, 38336, Note_on_c, 1, 51, 0
3, 38400, Note_on_c, 1, 40, 92
3, 38400, Note_on_c, 1, 52, 92
3, 38560, Note_on_c, 1, 40, 0
3, 38560, Note_on_c, 1, 52, 0
3, 39168, Note_on_c, 1, 52, 92
3, 39262, Note_on_c, 1, 52, 0
3, 39264, Note_on_c, 1, 62, 92
3, 39358, Note_on_c, 1, 62, 0
3, 39360, Note_on_c, 1, 56, 92
3, 39454, Note_on_c, 1, 56, 0
3, 39456, Note_on_c, 1, 62, 92
3, 39550, Note_on_c, 1, 62, 0
3, 39552, Note_on_c, 1, 52, 92
3, 39646, Note_on_c, 1, 52, 0
3, 39648, Note_on_c, 1, 62, 92
3, 39742, Note_on_c, 1, 62, 0
3, 39744, Note_on_c, 1, 56, 92
3, 39838, Note_on_c, 1, 56, 0
3, 39840, Note_on_c, 1, 62, 92
3, 39934, Note_on_c, 1, 62, 0
3, 39936, Note_on_c, 1, 61, 30
3, 40032, Note_on_c, 1, 61, 0
3, 40032, Note_on_c, 1, 57, 30
3, 40128, Note_on_c, 1, 57, 0
3, 40128, Note_on_c, 1, 69, 30
3, 40224, Note_on_c, 1, 69, 0
3, 40224, Note_on_c, 1, 57, 30
3, 40320, Note_on_c, 1, 57, 0
3, 40320, Note_on_c, 1, 68, 30
3, 40416, Note_on_c, 1, 68, 0
3, 40416, Note_on_c, 1, 57, 30
3, 40512, Note_on_c, 1, 57, 0
3, 40512, Note_on_c, 1, 67, 30
3, 40608, Note_on_c, 1, 67, 0
3, 40608, Note_on_c, 1, 57, 30
3, 40704, Note_on_c, 1, 57, 0
3, 40704, Note_on_c, 1, 66, 30
3, 40800, Note_on_c, 1, 66, 0
3, 40800, Note_on_c, 1, 57, 30
3, 40896, Note_on_c, 1, 57, 0
3, 40896, Note_on_c, 1, 65, 30
3, 40992, Note_on_c, 1, 65, 0
3, 40992, Note_on_c, 1, 57, 30
3, 41088, Note_on_c, 1, 57, 0
3, 41088, Note_on_c, 1, 64, 30
3, 41184, Note_on_c, 1, 64, 0
3, 41184, Note_on_c, 1, 57, 30
3, 41280, Note_on_c, 1, 57, 0
3, 41280, Note_on_c, 1, 62, 30
3, 41376, Note_on_c, 1, 62, 0
3, 41376, Note_on_c, 1, 57, 30
3, 41472, Note_on_c, 1, 57, 0
3, 41472, Note_on_c, 1, 61, 30
3, 41568, Note_on_c, 1, 61, 0
3, 41568, Note_on_c, 1, 57, 30
3, 41664, Note_on_c, 1, 57, 0
3, 41664, Note_on_c, 1, 69, 30
3, 41760, Note_on_c, 1, 69, 0
3, 41760, Note_on_c, 1, 57, 30
3, 41856, Note_on_c, 1, 57, 0
3, 41856, Note_on_c, 1, 68, 30
3, 41952, Note_on_c, 1, 68, 0
3, 41952, Note_on_c, 1, 57, 30
3, 42048, Note_on_c, 1, 57, 0
3, 42048, Note_on_c, 1, 67, 30
3, 42144, Note_on_c, 1, 67, 0
3, 42144, Note_on_c, 1, 57, 30
3, 42240, Note_on_c, 1, 57, 0
3, 42240, Note_on_c, 1, 66, 30
3, 42336, Note_on_c, 1, 66, 0
3, 42336, Note_on_c, 1, 57, 30
3, 42432, Note_on_c, 1, 57, 0
3, 42432, Note_on_c, 1, 65, 30
3, 42528, Note_on_c, 1, 65, 0
3, 42528, Note_on_c, 1, 57, 30
3, 42624, Note_on_c, 1, 57, 0
3, 42624, Note_on_c, 1, 64, 30
3, 42720, Note_on_c, 1, 64, 0
3, 42720, Note_on_c, 1, 57, 30
3, 42816, Note_on_c, 1, 57, 0
3, 42816, Note_on_c, 1, 62, 30
3, 42912, Note_on_c, 1, 62, 0
3, 42912, Note_on_c, 1, 57, 30
3, 43008, Note_on_c, 1, 57, 0
3, 43008, Note_on_c, 1, 61, 30
3, 43104, Note_on_c, 1, 61, 0
3, 43104, Note_on_c, 1, 57, 30
3, 43200, Note_on_c, 1, 57, 0
3, 43200, Note_on_c, 1, 69, 30
3, 43296, Note_on_c, 1, 69, 0
3, 43296, Note_on_c, 1, 57, 30
3, 43392, Note_on_c, 1, 57, 0
3, 43392, Note_on_c, 1, 68, 30
3, 43488, Note_on_c, 1, 68, 0
3, 43488, Note_on_c, 1, 57, 30
3, 43584, Note_on_c, 1, 57, 0
3, 43584, Note_on_c, 1, 67, 30
3, 43680, Note_on_c, 1, 67, 0
3, 43680, Note_on_c, 1, 57, 30
3, 43774, Note_on_c, 1, 57, 0
3, 43776, Note_on_c, 1, 57, 30
3, 43776, Note_on_c, 1, 66, 30
3, 43936, Note_on_c, 1, 57, 0
3, 43936, Note_on_c, 1, 66, 0
3, 44352, Note_on_c, 1, 57, 30
3, 44352, Note_on_c, 1, 59, 30
3, 44352, Note_on_c, 1, 62, 30
3, 44512, Note_on_c, 1, 57, 0
3, 44512, Note_on_c, 1, 59, 0
3, 44512, Note_on_c, 1, 62, 0
3, 44544, Note_on_c, 1, 57, 30
3, 44544, Note_on_c, 1, 59, 30
3, 44544, Note_on_c, 1, 62, 30
3, 44928, Note_on_c, 1, 57, 0
3, 44928, Note_on_c, 1, 59, 0
3, 44928, Note_on_c, 1, 62, 0
3, 44928, Note_on_c, 1, 57, 30
3, 44928, Note_on_c, 1, 61, 30
3, 45088, Note_on_c, 1, 57, 0
3, 45088, Note_on_c, 1, 61, 0
3, 45312, Control_c, 1, 91, 84
3, 45312, Control_c, 1, 93, 84
3, 45312, Note_on_c, 1, 62, 30
3, 45312, Note_on_c, 1, 66, 30
3, 45406, Note_on_c, 1, 66, 0
3, 45408, Note_on_c, 1, 69, 30
3, 45472, Note_on_c, 1, 62, 0
3, 45502, Note_on_c, 1, 69, 0
3, 45504, Note_on_c, 1, 62, 30
3, 45504, Note_on_c, 1, 66, 30
3, 45598, Note_on_c, 1, 66, 0
3, 45600, Note_on_c, 1, 69, 30
3, 45664, Note_on_c, 1, 62, 0
3, 45694, Note_on_c, 1, 69, 0
3, 45696, Note_on_c, 1, 62, 30
3, 45696, Note_on_c, 1, 66, 30
3, 45790, Note_on_c, 1, 66, 0
3, 45792, Note_on_c, 1, 69, 30
3, 45856, Note_on_c, 1, 62, 0
3, 45886, Note_on_c, 1, 69, 0
3, 45888, Note_on_c, 1, 62, 30
3, 45888, Note_on_c, 1, 66, 30
3, 45982, Note_on_c, 1, 66, 0
3, 45984, Note_on_c, 1, 69, 30
3, 46048, Note_on_c, 1, 62, 0
3, 46078, Note_on_c, 1, 69, 0
3, 46080, Note_on_c, 1, 64, 30
3, 46080, Note_on_c, 1, 67, 30
3, 46174, Note_on_c, 1, 67, 0
3, 46176, Note_on_c, 1, 69, 30
3, 46240, Note_on_c, 1, 64, 0
3, 46270, Note_on_c, 1, 69, 0
3, 46272, Note_on_c, 1, 64, 30
3, 46272, Note_on_c, 1, 67, 30
3, 46366, Note_on_c, 1, 67, 0
3, 46368, Note_on_c, 1, 69, 30
3, 46432, Note_on_c, 1, 64, 0
3, 46462, Note_on_c, 1, 69, 0
3, 46464, Note_on_c, 1, 64, 30
3, 46464, Note_on_c, 1, 67, 30
3, 46558, Note_on_c, 1, 67, 0
3, 46560, Note_on_c, 1, 69, 30
3, 46624, Note_on_c, 1, 64, 0
3, 46654, Note_on_c, 1, 69, 0
3, 46656, Note_on_c, 1, 64, 30
3, 46656, Note_on_c, 1, 67, 30
3, 46750, Note_on_c, 1, 67, 0
3, 46752, Note_on_c, 1, 69, 30
3, 46816, Note_on_c, 1, 64, 0
3, 46846, Note_on_c, 1, 69, 0
3, 46848, Note_on_c, 1, 64, 30
3, 46848, Note_on_c, 1, 67, 30
3, 46942, Note_on_c, 1, 67, 0
3, 46944, Note_on_c, 1, 69, 30
3, 47008, Note_on_c, 1, 64, 0
3, 47038, Note_on_c, 1, 69, 0
3, 47040, Note_on_c, 1, 64, 30
3, 47040, Note_on_c, 1, 67, 30
3, 47134, Note_on_c, 1, 67, 0
3, 47136, Note_on_c, 1, 69, 30
3, 47200, Note_on_c, 1, 64, 0
3, 47230, Note_on_c, 1, 69, 0
3, 47232, Note_on_c, 1, 64, 30
3, 47232, Note_on_c, 1, 67, 30
3, 47326, Note_on_c, 1, 67, 0
3, 47328, Note_on_c, 1, 69, 30
3, 47392, Note_on_c, 1, 64, 0
3, 47422, Note_on_c, 1, 69, 0
3, 47424, Note_on_c, 1, 64, 30
3, 47424, Note_on_c, 1, 67, 30
3, 47518, Note_on_c, 1, 67, 0
3, 47520, Note_on_c, 1, 69, 30
3, 47584, Note_on_c, 1, 64, 0
3, 47614, Note_on_c, 1, 69, 0
3, 47616, Note_on_c, 1, 62, 30
3, 47616, Note_on_c, 1, 66, 30
3, 47710, Note_on_c, 1, 66, 0
3, 47712, Note_on_c, 1, 69, 30
3, 47776, Note_on_c, 1, 62, 0
3, 47806, Note_on_c, 1, 69, 0
3, 47808, Note_on_c, 1, 62, 30
3, 47808, Note_on_c, 1, 66, 30
3, 47902, Note_on_c, 1, 66, 0
3, 47904, Note_on_c, 1, 69, 30
3, 47968, Note_on_c, 1, 62, 0
3, 47998, Note_on_c, 1, 69, 0
3, 48000, Note_on_c, 1, 62, 30
3, 48000, Note_on_c, 1, 66, 30
3, 48094, Note_on_c, 1, 66, 0
3, 48096, Note_on_c, 1, 69, 30
3, 48160, Note_on_c, 1, 62, 0
3, 48190, Note_on_c, 1, 69, 0
3, 48192, Note_on_c, 1, 62, 30
3, 48192, Note_on_c, 1, 66, 30
3, 48286, Note_on_c, 1, 66, 0
3, 48288, Note_on_c, 1, 69, 30
3, 48352, Note_on_c, 1, 62, 0
3, 48382, Note_on_c, 1, 69, 0
3, 48384, Note_on_c, 1, 62, 30
3, 48384, Note_on_c, 1, 67, 30
3, 48478, Note_on_c, 1, 67, 0
3, 48480, Note_on_c, 1, 71, 30
3, 48544, Note_on_c, 1, 62, 0
3, 48574, Note_on_c, 1, 71, 0
3, 48576, Note_on_c, 1, 62, 30
3, 48576, Note_on_c, 1, 67, 30
3, 48670, Note_on_c, 1, 67, 0
3, 48672, Note_on_c, 1, 69, 30
3, 48736, Note_on_c, 1, 62, 0
3, 48766, Note_on_c, 1, 69, 0
3, 48768, Note_on_c, 1, 62, 30
3, 48768, Note_on_c, 1, 66, 30
3, 48862, Note_on_c, 1, 66, 0
3, 48864, Note_on_c, 1, 69, 30
3, 48928, Note_on_c, 1, 62, 0
3, 48958, Note_on_c, 1, 69, 0
3, 48960, Note_on_c, 1, 62, 30
3, 48960, Note_on_c, 1, 66, 30
3, 49054, Note_on_c, 1, 66, 0
3, 49056, Note_on_c, 1, 69, 30
3, 49120, Note_on_c, 1, 62, 0
3, 49150, Note_on_c, 1, 69, 0
3, 49152, Note_on_c, 1, 62, 30
3, 49152, Note_on_c, 1, 67, 30
3, 49246, Note_on_c, 1, 67, 0
3, 49248, Note_on_c, 1, 71, 30
3, 49312, Note_on_c, 1, 62, 0
3, 49342, Note_on_c, 1, 71, 0
3, 49344, Note_on_c, 1, 62, 30
3, 49344, Note_on_c, 1, 67, 30
3, 49438, Note_on_c, 1, 67, 0
3, 49440, Note_on_c, 1, 69, 30
3, 49504, Note_on_c, 1, 62, 0
3, 49534, Note_on_c, 1, 69, 0
3, 49536, Note_on_c, 1, 62, 30
3, 49536, Note_on_c, 1, 66, 30
3, 49630, Note_on_c, 1, 66, 0
3, 49632, Note_on_c, 1, 69, 30
3, 49696, Note_on_c, 1, 62, 0
3, 49726, Note_on_c, 1, 69, 0
3, 49728, Note_on_c, 1, 62, 30
3, 49728, Note_on_c, 1, 66, 30
3, 49822, Note_on_c, 1, 66, 0
3, 49824, Note_on_c, 1, 69, 30
3, 49888, Note_on_c, 1, 62, 0
3, 49918, Note_on_c, 1, 69, 0
3, 50112, Note_on_c, 1, 61, 30
3, 50112, Note_on_c, 1, 64, 30
3, 50112, Note_on_c, 1, 69, 30
3, 50272, Note_on_c, 1, 61, 0
3, 50272, Note_on_c, 1, 64, 0
3, 50272, Note_on_c, 1, 69, 0
3, 50496, Note_on_c, 1, 62, 30
3, 50496, Note_on_c, 1, 66, 30
3, 50496, Note_on_c, 1, 69, 30
3, 50656, Note_on_c, 1, 62, 0
3, 50656, Note_on_c, 1, 66, 0
3, 50656, Note_on_c, 1, 69, 0
3, 50688, Note_on_c, 1, 57, 30
3, 50688, Note_on_c, 1, 61, 30
3, 50848, Note_on_c, 1, 57, 0
3, 50848, Note_on_c, 1, 61, 0
3, 51456, Note_on_c, 1, 62, 30
3, 51456, Note_on_c, 1, 66, 30
3, 51552, Note_on_c, 1, 66, 0
3, 51552, Note_on_c, 1, 69, 30
3, 51616, Note_on_c, 1, 62, 0
3, 51648, Note_on_c, 1, 69, 0
3, 51648, Note_on_c, 1, 62, 30
3, 51648, Note_on_c, 1, 66, 30
3, 51744, Note_on_c, 1, 66, 0
3, 51744, Note_on_c, 1, 69, 30
3, 51808, Note_on_c, 1, 62, 0
3, 51840, Note_on_c, 1, 69, 0
3, 51840, Note_on_c, 1, 62, 30
3, 51840, Note_on_c, 1, 66, 30
3, 51936, Note_on_c, 1, 66, 0
3, 51936, Note_on_c, 1, 69, 30
3, 52000, Note_on_c, 1, 62, 0
3, 52032, Note_on_c, 1, 69, 0
3, 52032, Note_on_c, 1, 62, 30
3, 52032, Note_on_c, 1, 66, 30
3, 52128, Note_on_c, 1, 66, 0
3, 52128, Note_on_c, 1, 69, 30
3, 52192, Note_on_c, 1, 62, 0
3, 52224, Note_on_c, 1, 69, 0
3, 52224, Note_on_c, 1, 64, 30
3, 52224, Note_on_c, 1, 67, 30
3, 52320, Note_on_c, 1, 67, 0
3, 52320, Note_on_c, 1, 69, 30
3, 52384, Note_on_c, 1, 64, 0
3, 52416, Note_on_c, 1, 69, 0
3, 52416, Note_on_c, 1, 64, 30
3, 52416, Note_on_c, 1, 67, 30
3, 52512, Note_on_c, 1, 67, 0
3, 52512, Note_on_c, 1, 69, 30
3, 52576, Note_on_c, 1, 64, 0
3, 52608, Note_on_c, 1, 69, 0
3, 52608, Note_on_c, 1, 64, 30
3, 52608, Note_on_c, 1, 67, 30
3, 52704, Note_on_c, 1, 67, 0
3, 52704, Note_on_c, 1, 69, 30
3, 52768, Note_on_c, 1, 64, 0
3, 52800, Note_on_c, 1, 69, 0
3, 52800, Note_on_c, 1, 64, 30
3, 52800, Note_on_c, 1, 67, 30
3, 52896, Note_on_c, 1, 67, 0
3, 52896, Note_on_c, 1, 69, 30
3, 52960, Note_on_c, 1, 64, 0
3, 52992, Note_on_c, 1, 69, 0
3, 52992, Note_on_c, 1, 64, 30
3, 52992, Note_on_c, 1, 67, 30
3, 53088, Note_on_c, 1, 67, 0
3, 53088, Note_on_c, 1, 69, 30
3, 53152, Note_on_c, 1, 64, 0
3, 53184, Note_on_c, 1, 69, 0
3, 53184, Note_on_c, 1, 64, 30
3, 53184, Note_on_c, 1, 67, 30
3, 53280, Note_on_c, 1, 67, 0
3, 53280, Note_on_c, 1, 69, 30
3, 53344, Note_on_c, 1, 64, 0
3, 53376, Note_on_c, 1, 69, 0
3, 53376, Note_on_c, 1, 64, 30
3, 53376, Note_on_c, 1, 67, 30
3, 53472, Note_on_c, 1, 67, 0
3, 53472, Note_on_c, 1, 69, 30
3, 53536, Note_on_c, 1, 64, 0
3, 53568, Note_on_c, 1, 69, 0
3, 53568, Note_on_c, 1, 64, 30
3, 53568, Note_on_c, 1, 67, 30
3, 53664, Note_on_c, 1, 67, 0
3, 53664, Note_on_c, 1, 69, 30
3, 53728, Note_on_c, 1, 64, 0
3, 53760, Note_on_c, 1, 69, 0
3, 53760, Note_on_c, 1, 62, 30
3, 53760, Note_on_c, 1, 66, 30
3, 53856, Note_on_c, 1, 66, 0
3, 53856, Note_on_c, 1, 69, 30
3, 53920, Note_on_c, 1, 62, 0
3, 53952, Note_on_c, 1, 69, 0
3, 53952, Note_on_c, 1, 62, 30
3, 53952, Note_on_c, 1, 66, 30
3, 54048, Note_on_c, 1, 66, 0
3, 54048, Note_on_c, 1, 69, 30
3, 54112, Note_on_c, 1, 62, 0
3, 54144, Note_on_c, 1, 69, 0
3, 54144, Note_on_c, 1, 62, 30
3, 54144, Note_on_c, 1, 66, 30
3, 54240, Note_on_c, 1, 66, 0
3, 54240, Note_on_c, 1, 69, 30
3, 54304, Note_on_c, 1, 62, 0
3, 54336, Note_on_c, 1, 69, 0
3, 54336, Note_on_c, 1, 62, 30
3, 54336, Note_on_c, 1, 66, 30
3, 54432, Note_on_c, 1, 66, 0
3, 54432, Note_on_c, 1, 69, 30
3, 54496, Note_on_c, 1, 62, 0
3, 54528, Note_on_c, 1, 69, 0
3, 54528, Note_on_c, 1, 62, 30
3, 54528, Note_on_c, 1, 67, 30
3, 54624, Note_on_c, 1, 67, 0
3, 54624, Note_on_c, 1, 71, 30
3, 54688, Note_on_c, 1, 62, 0
3, 54720, Note_on_c, 1, 71, 0
3, 54720, Note_on_c, 1, 62, 30
3, 54720, Note_on_c, 1, 67, 30
3, 54816, Note_on_c, 1, 67, 0
3, 54816, Note_on_c, 1, 69, 30
3, 54880, Note_on_c, 1, 62, 0
3, 54912, Note_on_c, 1, 69, 0
3, 54912, Note_on_c, 1, 62, 30
3, 54912, Note_on_c, 1, 66, 30
3, 55008, Note_on_c, 1, 66, 0
3, 55008, Note_on_c, 1, 69, 30
3, 55072, Note_on_c, 1, 62, 0
3, 55104, Note_on_c, 1, 69, 0
3, 55104, Note_on_c, 1, 62, 30
3, 55104, Note_on_c, 1, 66, 30
3, 55200, Note_on_c, 1, 66, 0
3, 55200, Note_on_c, 1, 69, 30
3, 55264, Note_on_c, 1, 62, 0
3, 55296, Note_on_c, 1, 69, 0
3, 55296, Note_on_c, 1, 62, 30
3, 55296, Note_on_c, 1, 67, 30
3, 55392, Note_on_c, 1, 67, 0
3, 55392, Note_on_c, 1, 71, 30
3, 55456, Note_on_c, 1, 62, 0
3, 55488, Note_on_c, 1, 71, 0
3, 55488, Note_on_c, 1, 62, 30
3, 55488, Note_on_c, 1, 67, 30
3, 55584, Note_on_c, 1, 67, 0
3, 55584, Note_on_c, 1, 69, 30
3, 55648, Note_on_c, 1, 62, 0
3, 55680, Note_on_c, 1, 69, 0
3, 55680, Note_on_c, 1, 62, 30
3, 55680, Note_on_c, 1, 66, 30
3, 55840, Note_on_c, 1, 62, 0
3, 55840, Note_on_c, 1, 66, 0
3, 56256, Note_on_c, 1, 55, 60
3, 56256, Note_on_c, 1, 67, 60
3, 56448, Note_on_c, 1, 55, 0
3, 56448, Note_on_c, 1, 67, 0
3, 56448, Note_on_c, 1, 57, 60
3, 56448, Note_on_c, 1, 66, 60
3, 56640, Note_on_c, 1, 66, 0
3, 56640, Note_on_c, 1, 67, 60
3, 56784, Note_on_c, 1, 57, 0
3, 56832, Note_on_c, 1, 67, 0
3, 56832, Note_on_c, 1, 62, 60
3, 56832, Note_on_c, 1, 66, 60
3, 56992, Note_on_c, 1, 62, 0
3, 56992, Note_on_c, 1, 66, 0
3, 57024, Note_on_c, 1, 50, 60
3, 57184, Note_on_c, 1, 50, 0
3, 57408, Note_on_c, 1, 50, 60
3, 57568, Note_on_c, 1, 50, 0
3, 57600, Note_on_c, 1, 49, 60
3, 57792, Note_on_c, 1, 49, 0
3, 57792, Note_on_c, 1, 50, 60
3, 57984, Note_on_c, 1, 50, 0
3, 57984, Note_on_c, 1, 52, 60
3, 58176, Note_on_c, 1, 52, 0
3, 58176, Note_on_c, 1, 49, 60
3, 58368, Note_on_c, 1, 49, 0
3, 58368, Note_on_c, 1, 50, 60
3, 58528, Note_on_c, 1, 50, 0
3, 58560, Note_on_c, 1, 38, 60
3, 58720, Note_on_c, 1, 38, 0
3, 58944, Note_on_c, 1, 50, 60
3, 59104, Note_on_c, 1, 50, 0
3, 59136, Note_on_c, 1, 49, 60
3, 59328, Note_on_c, 1, 49, 0
3, 59328, Note_on_c, 1, 50, 60
3, 59520, Note_on_c, 1, 50, 0
3, 59520, Note_on_c, 1, 52, 60
3, 59712, Note_on_c, 1, 52, 0
3, 59712, Note_on_c, 1, 49, 60
3, 59904, Note_on_c, 1, 49, 0
3, 59904, Note_on_c, 1, 50, 60
3, 60064, Note_on_c, 1, 50, 0
3, 60096, Note_on_c, 1, 38, 60
3, 60256, Note_on_c, 1, 38, 0
3, 60672, Note_on_c, 1, 50, 30
3, 60768, Note_on_c, 1, 50, 0
3, 60768, Note_on_c, 1, 59, 30
3, 60864, Note_on_c, 1, 59, 0
3, 60864, Note_on_c, 1, 54, 30
3, 60960, Note_on_c, 1, 54, 0
3, 60960, Note_on_c, 1, 59, 30
3, 61056, Note_on_c, 1, 59, 0
3, 61056, Note_on_c, 1, 50, 30
3, 61152, Note_on_c, 1, 50, 0
3, 61152, Note_on_c, 1, 59, 30
3, 61248, Note_on_c, 1, 59, 0
3, 61248, Note_on_c, 1, 54, 30
3, 61344, Note_on_c, 1, 54, 0
3, 61344, Note_on_c, 1, 59, 30
3, 61440, Note_on_c, 1, 59, 0
3, 61440, Note_on_c, 1, 52, 30
3, 61536, Note_on_c, 1, 52, 0
3, 61536, Note_on_c, 1, 61, 30
3, 61632, Note_on_c, 1, 61, 0
3, 61632, Note_on_c, 1, 55, 30
3, 61728, Note_on_c, 1, 55, 0
3, 61728, Note_on_c, 1, 61, 30
3, 61824, Note_on_c, 1, 61, 0
3, 61824, Note_on_c, 1, 50, 30
3, 61920, Note_on_c, 1, 50, 0
3, 61920, Note_on_c, 1, 59, 30
3, 62016, Note_on_c, 1, 59, 0
3, 62016, Note_on_c, 1, 54, 30
3, 62112, Note_on_c, 1, 54, 0
3, 62112, Note_on_c, 1, 59, 30
3, 62208, Note_on_c, 1, 59, 0
3, 62208, Note_on_c, 1, 49, 30
3, 62304, Note_on_c, 1, 49, 0
3, 62304, Note_on_c, 1, 57, 30
3, 62400, Note_on_c, 1, 57, 0
3, 62400, Note_on_c, 1, 52, 30
3, 62496, Note_on_c, 1, 52, 0
3, 62496, Note_on_c, 1, 57, 30
3, 62592, Note_on_c, 1, 57, 0
3, 62592, Note_on_c, 1, 49, 30
3, 62688, Note_on_c, 1, 49, 0
3, 62688, Note_on_c, 1, 57, 30
3, 62784, Note_on_c, 1, 57, 0
3, 62784, Note_on_c, 1, 52, 30
3, 62880, Note_on_c, 1, 52, 0
3, 62880, Note_on_c, 1, 57, 30
3, 62976, Note_on_c, 1, 57, 0
3, 62976, Note_on_c, 1, 50, 30
3, 63072, Note_on_c, 1, 50, 0
3, 63072, Note_on_c, 1, 59, 30
3, 63168, Note_on_c, 1, 59, 0
3, 63168, Note_on_c, 1, 53, 30
3, 63264, Note_on_c, 1, 53, 0
3, 63264, Note_on_c, 1, 59, 30
3, 63360, Note_on_c, 1, 59, 0
3, 63360, Note_on_c, 1, 49, 30
3, 63456, Note_on_c, 1, 49, 0
3, 63456, Note_on_c, 1, 57, 30
3, 63552, Note_on_c, 1, 57, 0
3, 63552, Note_on_c, 1, 52, 30
3, 63648, Note_on_c, 1, 52, 0
3, 63648, Note_on_c, 1, 57, 30
3, 63742, Note_on_c, 1, 57, 0
3, 63936, Note_on_c, 1, 59, 30
3, 63936, Note_on_c, 1, 66, 30
3, 63936, Note_on_c, 1, 69, 30
3, 64096, Note_on_c, 1, 59, 0
3, 64096, Note_on_c, 1, 66, 0
3, 64096, Note_on_c, 1, 69, 0
3, 64128, Note_on_c, 1, 59, 30
3, 64128, Note_on_c, 1, 63, 30
3, 64128, Note_on_c, 1, 66, 30
3, 64288, Note_on_c, 1, 59, 0
3, 64288, Note_on_c, 1, 63, 0
3, 64288, Note_on_c, 1, 66, 0
3, 64320, Note_on_c, 1, 59, 30
3, 64320, Note_on_c, 1, 63, 30
3, 64320, Note_on_c, 1, 66, 30
3, 64480, Note_on_c, 1, 59, 0
3, 64480, Note_on_c, 1, 63, 0
3, 64480, Note_on_c, 1, 66, 0
3, 64704, Note_on_c, 1, 52, 30
3, 64704, Note_on_c, 1, 59, 30
3, 64704, Note_on_c, 1, 62, 30
3, 64864, Note_on_c, 1, 52, 0
3, 64864, Note_on_c, 1, 59, 0
3, 64864, Note_on_c, 1, 62, 0
3, 64896, Note_on_c, 1, 52, 30
3, 64896, Note_on_c, 1, 56, 30
3, 64896, Note_on_c, 1, 59, 30
3, 65056, Note_on_c, 1, 52, 0
3, 65056, Note_on_c, 1, 56, 0
3, 65056, Note_on_c, 1, 59, 0
3, 65088, Note_on_c, 1, 52, 30
3, 65088, Note_on_c, 1, 56, 30
3, 65088, Note_on_c, 1, 59, 30
3, 65248, Note_on_c, 1, 52, 0
3, 65248, Note_on_c, 1, 56, 0
3, 65248, Note_on_c, 1, 59, 0
3, 65280, Note_on_c, 1, 52, 30
3, 65376, Note_on_c, 1, 52, 0
3, 65376, Note_on_c, 1, 57, 30
3, 65472, Note_on_c, 1, 57, 0
3, 65472, Note_on_c, 1, 60, 30
3, 65568, Note_on_c, 1, 60, 0
3, 65568, Note_on_c, 1, 57, 30
3, 65664, Note_on_c, 1, 57, 0
3, 65664, Note_on_c, 1, 52, 30
3, 65760, Note_on_c, 1, 52, 0
3, 65760, Note_on_c, 1, 57, 30
3, 65856, Note_on_c, 1, 57, 0
3, 65856, Note_on_c, 1, 60, 30
3, 65952, Note_on_c, 1, 60, 0
3, 65952, Note_on_c, 1, 57, 30
3, 66048, Note_on_c, 1, 57, 0
3, 66048, Note_on_c, 1, 52, 30
3, 66144, Note_on_c, 1, 52, 0
3, 66144, Note_on_c, 1, 59, 30
3, 66240, Note_on_c, 1, 59, 0
3, 66240, Note_on_c, 1, 62, 30
3, 66336, Note_on_c, 1, 62, 0
3, 66336, Note_on_c, 1, 59, 30
3, 66432, Note_on_c, 1, 59, 0
3, 66432, Note_on_c, 1, 52, 30
3, 66528, Note_on_c, 1, 52, 0
3, 66528, Note_on_c, 1, 56, 30
3, 66624, Note_on_c, 1, 56, 0
3, 66624, Note_on_c, 1, 59, 30
3, 66720, Note_on_c, 1, 59, 0
3, 66720, Note_on_c, 1, 56, 30
3, 66816, Note_on_c, 1, 56, 0
3, 66816, Note_on_c, 1, 52, 30
3, 66912, Note_on_c, 1, 52, 0
3, 66912, Note_on_c, 1, 57, 30
3, 67008, Note_on_c, 1, 57, 0
3, 67008, Note_on_c, 1, 60, 30
3, 67104, Note_on_c, 1, 60, 0
3, 67104, Note_on_c, 1, 57, 30
3, 67200, Note_on_c, 1, 57, 0
3, 67200, Note_on_c, 1, 52, 30
3, 67296, Note_on_c, 1, 52, 0
3, 67296, Note_on_c, 1, 57, 30
3, 67392, Note_on_c, 1, 57, 0
3, 67392, Note_on_c, 1, 60, 30
3, 67488, Note_on_c, 1, 60, 0
3, 67488, Note_on_c, 1, 57, 30
3, 67584, Note_on_c, 1, 57, 0
3, 67584, Note_on_c, 1, 52, 30
3, 67680, Note_on_c, 1, 52, 0
3, 67680, Note_on_c, 1, 59, 30
3, 67776, Note_on_c, 1, 59, 0
3, 67776, Note_on_c, 1, 62, 30
3, 67872, Note_on_c, 1, 62, 0
3, 67872, Note_on_c, 1, 59, 30
3, 67968, Note_on_c, 1, 59, 0
3, 67968, Note_on_c, 1, 52, 30
3, 68064, Note_on_c, 1, 52, 0
3, 68064, Note_on_c, 1, 56, 30
3, 68160, Note_on_c, 1, 56, 0
3, 68160, Note_on_c, 1, 59, 30
3, 68256, Note_on_c, 1, 59, 0
3, 68256, Note_on_c, 1, 56, 30
3, 68352, Note_on_c, 1, 56, 0
3, 68352, Note_on_c, 1, 52, 30
3, 68448, Note_on_c, 1, 52, 0
3, 68448, Note_on_c, 1, 57, 30
3, 68544, Note_on_c, 1, 57, 0
3, 68544, Note_on_c, 1, 60, 30
3, 68640, Note_on_c, 1, 60, 0
3, 68640, Note_on_c, 1, 57, 30
3, 68736, Note_on_c, 1, 57, 0
3, 68736, Note_on_c, 1, 52, 30
3, 68832, Note_on_c, 1, 52, 0
3, 68832, Note_on_c, 1, 57, 30
3, 68928, Note_on_c, 1, 57, 0
3, 68928, Note_on_c, 1, 60, 30
3, 69024, Note_on_c, 1, 60, 0
3, 69024, Note_on_c, 1, 57, 30
3, 69120, Note_on_c, 1, 57, 0
3, 69120, Note_on_c, 1, 52, 30
3, 69216, Note_on_c, 1, 52, 0
3, 69216, Note_on_c, 1, 56, 30
3, 69312, Note_on_c, 1, 56, 0
3, 69312, Note_on_c, 1, 59, 30
3, 69408, Note_on_c, 1, 59, 0
3, 69408, Note_on_c, 1, 56, 30
3, 69504, Note_on_c, 1, 56, 0
3, 69504, Note_on_c, 1, 52, 30
3, 69600, Note_on_c, 1, 52, 0
3, 69600, Note_on_c, 1, 57, 30
3, 69696, Note_on_c, 1, 57, 0
3, 69696, Note_on_c, 1, 60, 30
3, 69792, Note_on_c, 1, 60, 0
3, 69792, Note_on_c, 1, 57, 30
3, 69888, Note_on_c, 1, 57, 0
3, 69888, Note_on_c, 1, 52, 30
3, 69984, Note_on_c, 1, 52, 0
3, 69984, Note_on_c, 1, 56, 30
3, 70080, Note_on_c, 1, 56, 0
3, 70080, Note_on_c, 1, 59, 30
3, 70176, Note_on_c, 1, 59, 0
3, 70176, Note_on_c, 1, 56, 30
3, 70272, Note_on_c, 1, 56, 0
3, 70272, Note_on_c, 1, 52, 30
3, 70368, Note_on_c, 1, 52, 0
3, 70368, Note_on_c, 1, 57, 30
3, 70464, Note_on_c, 1, 57, 0
3, 70464, Note_on_c, 1, 60, 30
3, 70560, Note_on_c, 1, 60, 0
3, 70560, Note_on_c, 1, 57, 30
3, 70656, Note_on_c, 1, 57, 0
3, 70656, Note_on_c, 1, 52, 30
3, 70656, Note_on_c, 1, 56, 30
3, 70816, Note_on_c, 1, 52, 0
3, 70816, Note_on_c, 1, 56, 0
3, 72192, Note_on_c, 1, 57, 30
3, 72192, Note_on_c, 1, 61, 30
3, 72286, Note_on_c, 1, 61, 0
3, 72288, Note_on_c, 1, 64, 30
3, 72352, Note_on_c, 1, 57, 0
3, 72382, Note_on_c, 1, 64, 0
3, 72384, Note_on_c, 1, 57, 30
3, 72384, Note_on_c, 1, 61, 30
3, 72478, Note_on_c, 1, 61, 0
3, 72480, Note_on_c, 1, 64, 30
3, 72544, Note_on_c, 1, 57, 0
3, 72574, Note_on_c, 1, 64, 0
3, 72576, Note_on_c, 1, 57, 30
3, 72576, Note_on_c, 1, 61, 30
3, 72670, Note_on_c, 1, 61, 0
3, 72672, Note_on_c, 1, 64, 30
3, 72736, Note_on_c, 1, 57, 0
3, 72766, Note_on_c, 1, 64, 0
3, 72768, Note_on_c, 1, 57, 30
3, 72768, Note_on_c, 1, 61, 30
3, 72862, Note_on_c, 1, 61, 0
3, 72864, Note_on_c, 1, 64, 30
3, 72928, Note_on_c, 1, 57, 0
3, 72958, Note_on_c, 1, 64, 0
3, 72960, Note_on_c, 1, 59, 30
3, 72960, Note_on_c, 1, 62, 30
3, 73054, Note_on_c, 1, 62, 0
3, 73056, Note_on_c, 1, 64, 30
3, 73120, Note_on_c, 1, 59, 0
3, 73150, Note_on_c, 1, 64, 0
3, 73152, Note_on_c, 1, 59, 30
3, 73152, Note_on_c, 1, 62, 30
3, 73246, Note_on_c, 1, 62, 0
3, 73248, Note_on_c, 1, 64, 30
3, 73312, Note_on_c, 1, 59, 0
3, 73342, Note_on_c, 1, 64, 0
3, 73344, Note_on_c, 1, 59, 30
3, 73344, Note_on_c, 1, 62, 30
3, 73438, Note_on_c, 1, 62, 0
3, 73440, Note_on_c, 1, 64, 30
3, 73504, Note_on_c, 1, 59, 0
3, 73534, Note_on_c, 1, 64, 0
3, 73536, Note_on_c, 1, 59, 30
3, 73536, Note_on_c, 1, 62, 30
3, 73630, Note_on_c, 1, 62, 0
3, 73632, Note_on_c, 1, 64, 30
3, 73696, Note_on_c, 1, 59, 0
3, 73726, Note_on_c, 1, 64, 0
3, 73728, Note_on_c, 1, 59, 30
3, 73728, Note_on_c, 1, 62, 30
3, 73822, Note_on_c, 1, 62, 0
3, 73824, Note_on_c, 1, 64, 30
3, 73888, Note_on_c, 1, 59, 0
3, 73918, Note_on_c, 1, 64, 0
3, 73920, Note_on_c, 1, 59, 30
3, 73920, Note_on_c, 1, 62, 30
3, 74014, Note_on_c, 1, 62, 0
3, 74016, Note_on_c, 1, 64, 30
3, 74080, Note_on_c, 1, 59, 0
3, 74110, Note_on_c, 1, 64, 0
3, 74112, Note_on_c, 1, 59, 30
3, 74112, Note_on_c, 1, 62, 30
3, 74206, Note_on_c, 1, 62, 0
3, 74208, Note_on_c, 1, 64, 30
3, 74272, Note_on_c, 1, 59, 0
3, 74302, Note_on_c, 1, 64, 0
3, 74304, Note_on_c, 1, 59, 30
3, 74304, Note_on_c, 1, 62, 30
3, 74398, Note_on_c, 1, 62, 0
3, 74400, Note_on_c, 1, 64, 30
3, 74464, Note_on_c, 1, 59, 0
3, 74494, Note_on_c, 1, 64, 0
3, 74496, Note_on_c, 1, 61, 30
3, 74496, Note_on_c, 1, 64, 30
3, 74590, Note_on_c, 1, 64, 0
3, 74592, Note_on_c, 1, 67, 30
3, 74656, Note_on_c, 1, 61, 0
3, 74686, Note_on_c, 1, 67, 0
3, 74688, Note_on_c, 1, 61, 30
3, 74688, Note_on_c, 1, 64, 30
3, 74782, Note_on_c, 1, 64, 0
3, 74784, Note_on_c, 1, 67, 30
3, 74848, Note_on_c, 1, 61, 0
3, 74878, Note_on_c, 1, 67, 0
3, 74880, Note_on_c, 1, 61, 30
3, 74880, Note_on_c, 1, 64, 30
3, 74974, Note_on_c, 1, 64, 0
3, 74976, Note_on_c, 1, 67, 30
3, 75040, Note_on_c, 1, 61, 0
3, 75070, Note_on_c, 1, 67, 0
3, 75072, Note_on_c, 1, 61, 30
3, 75072, Note_on_c, 1, 64, 30
3, 75166, Note_on_c, 1, 64, 0
3, 75168, Note_on_c, 1, 67, 30
3, 75232, Note_on_c, 1, 61, 0
3, 75262, Note_on_c, 1, 67, 0
3, 75264, Note_on_c, 1, 62, 30
3, 75264, Note_on_c, 1, 66, 30
3, 75424, Note_on_c, 1, 62, 0
3, 75424, Note_on_c, 1, 66, 0
3, 75840, Note_on_c, 1, 62, 30
3, 75840, Note_on_c, 1, 65, 30
3, 76000, Note_on_c, 1, 62, 0
3, 76000, Note_on_c, 1, 65, 0
3, 76032, Note_on_c, 1, 60, 30
3, 76032, Note_on_c, 1, 64, 30
3, 76192, Note_on_c, 1, 60, 0
3, 76192, Note_on_c, 1, 64, 0
3, 76608, Note_on_c, 1, 54, 30
3, 76608, Note_on_c, 1, 57, 30
3, 76800, Note_on_c, 1, 54, 0
3, 76800, Note_on_c, 1, 57, 0
3, 76800, Note_on_c, 1, 52, 30
3, 76894, Note_on_c, 1, 52, 0
3, 76896, Note_on_c, 1, 57, 30
3, 76990, Note_on_c, 1, 57, 0
3, 76992, Note_on_c, 1, 61, 30
3, 77088, Note_on_c, 1, 61, 0
3, 77088, Note_on_c, 1, 57, 30
3, 77184, Note_on_c, 1, 57, 0
3, 77184, Note_on_c, 1, 52, 30
3, 77280, Note_on_c, 1, 52, 0
3, 77280, Note_on_c, 1, 59, 30
3, 77376, Note_on_c, 1, 59, 0
3, 77376, Note_on_c, 1, 62, 30
3, 77470, Note_on_c, 1, 62, 0
3, 77472, Note_on_c, 1, 59, 30
3, 77566, Note_on_c, 1, 59, 0
3, 77568, Note_on_c, 1, 64, 92
3, 77904, Note_on_c, 1, 64, 0
3, 77952, Note_on_c, 1, 62, 92
3, 78000, Note_on_c, 1, 62, 0
3, 78000, Note_on_c, 1, 61, 92
3, 78142, Note_on_c, 1, 61, 0
3, 78144, Note_on_c, 1, 59, 92
3, 78192, Note_on_c, 1, 59, 0
3, 78192, Note_on_c, 1, 57, 92
3, 78334, Note_on_c, 1, 57, 0
3, 78336, Note_on_c, 1, 62, 92
3, 78624, Note_on_c, 1, 62, 0
3, 78624, Note_on_c, 1, 59, 92
3, 78720, Note_on_c, 1, 59, 0
3, 78720, Note_on_c, 1, 56, 92
3, 78880, Note_on_c, 1, 56, 0
3, 79104, Note_on_c, 1, 64, 92
3, 79440, Note_on_c, 1, 64, 0
3, 79488, Note_on_c, 1, 62, 92
3, 79536, Note_on_c, 1, 62, 0
3, 79536, Note_on_c, 1, 61, 92
3, 79678, Note_on_c, 1, 61, 0
3, 79680, Note_on_c, 1, 59, 92
3, 79728, Note_on_c, 1, 59, 0
3, 79728, Note_on_c, 1, 57, 92
3, 79870, Note_on_c, 1, 57, 0
3, 79872, Note_on_c, 1, 62, 92
3, 80160, Note_on_c, 1, 62, 0
3, 80160, Note_on_c, 1, 59, 92
3, 80256, Note_on_c, 1, 59, 0
3, 80256, Note_on_c, 1, 56, 92
3, 80416, Note_on_c, 1, 56, 0
3, 80640, Note_on_c, 1, 57, 92
3, 80800, Note_on_c, 1, 57, 0
3, 81312, Note_on_c, 1, 37, 92
3, 81312, Note_on_c, 1, 49, 92
3, 81406, Note_on_c, 1, 37, 0
3, 81406, Note_on_c, 1, 49, 0
3, 81408, Note_on_c, 1, 38, 92
3, 81408, Note_on_c, 1, 50, 92
3, 81568, Note_on_c, 1, 38, 0
3, 81568, Note_on_c, 1, 50, 0
3, 82080, Note_on_c, 1, 38, 92
3, 82080, Note_on_c, 1, 50, 92
3, 82174, Note_on_c, 1, 38, 0
3, 82174, Note_on_c, 1, 50, 0
3, 82176, Note_on_c, 1, 39, 92
3, 82176, Note_on_c, 1, 51, 92
3, 82336, Note_on_c, 1, 39, 0
3, 82336, Note_on_c, 1, 51, 0
3, 83232, Note_on_c, 1, 63, 92
3, 83264, Note_on_c, 1, 63, 0
3, 83328, Note_on_c, 1, 60, 92
3, 83360, Note_on_c, 1, 60, 0
3, 83424, Note_on_c, 1, 57, 92
3, 83456, Note_on_c, 1, 57, 0
3, 83520, Note_on_c, 1, 54, 92
3, 83552, Note_on_c, 1, 54, 0
3, 83616, Note_on_c, 1, 51, 92
3, 83648, Note_on_c, 1, 51, 0
3, 83712, Note_on_c, 1, 40, 92
3, 83712, Note_on_c, 1, 52, 92
3, 83872, Note_on_c, 1, 40, 0
3, 83872, Note_on_c, 1, 52, 0
3, 84480, Note_on_c, 1, 52, 92
3, 84574, Note_on_c, 1, 52, 0
3, 84576, Note_on_c, 1, 62, 92
3, 84670, Note_on_c, 1, 62, 0
3, 84672, Note_on_c, 1, 56, 92
3, 84766, Note_on_c, 1, 56, 0
3, 84768, Note_on_c, 1, 62, 92
3, 84862, Note_on_c, 1, 62, 0
3, 84864, Note_on_c, 1, 52, 92
3, 84958, Note_on_c, 1, 52, 0
3, 84960, Note_on_c, 1, 62, 92
3, 85054, Note_on_c, 1, 62, 0
3, 85056, Note_on_c, 1, 56, 92
3, 85150, Note_on_c, 1, 56, 0
3, 85152, Note_on_c, 1, 62, 92
3, 85246, Note_on_c, 1, 62, 0
3, 85248, Note_on_c, 1, 61, 30
3, 85344, Note_on_c, 1, 61, 0
3, 85344, Note_on_c, 1, 57, 30
3, 85440, Note_on_c, 1, 57, 0
3, 85440, Note_on_c, 1, 69, 30
3, 85536, Note_on_c, 1, 69, 0
3, 85536, Note_on_c, 1, 57, 30
3, 85632, Note_on_c, 1, 57, 0
3, 85632, Note_on_c, 1, 68, 30
3, 85728, Note_on_c, 1, 68, 0
3, 85728, Note_on_c, 1, 57, 30
3, 85824, Note_on_c, 1, 57, 0
3, 85824, Note_on_c, 1, 67, 30
3, 85920, Note_on_c, 1, 67, 0
3, 85920, Note_on_c, 1, 57, 30
3, 86016, Note_on_c, 1, 57, 0
3, 86016, Note_on_c, 1, 66, 30
3, 86112, Note_on_c, 1, 66, 0
3, 86112, Note_on_c, 1, 57, 30
3, 86208, Note_on_c, 1, 57, 0
3, 86208, Note_on_c, 1, 65, 30
3, 86304, Note_on_c, 1, 65, 0
3, 86304, Note_on_c, 1, 57, 30
3, 86400, Note_on_c, 1, 57, 0
3, 86400, Note_on_c, 1, 64, 30
3, 86496, Note_on_c, 1, 64, 0
3, 86496, Note_on_c, 1, 57, 30
3, 86592, Note_on_c, 1, 57, 0
3, 86592, Note_on_c, 1, 62, 30
3, 86688, Note_on_c, 1, 62, 0
3, 86688, Note_on_c, 1, 57, 30
3, 86784, Note_on_c, 1, 57, 0
3, 86784, Note_on_c, 1, 61, 30
3, 86880, Note_on_c, 1, 61, 0
3, 86880, Note_on_c, 1, 57, 30
3, 86976, Note_on_c, 1, 57, 0
3, 86976, Note_on_c, 1, 69, 30
3, 87072, Note_on_c, 1, 69, 0
3, 87072, Note_on_c, 1, 57, 30
3, 87168, Note_on_c, 1, 57, 0
3, 87168, Note_on_c, 1, 68, 30
3, 87264, Note_on_c, 1, 68, 0
3, 87264, Note_on_c, 1, 57, 30
3, 87360, Note_on_c, 1, 57, 0
3, 87360, Note_on_c, 1, 67, 30
3, 87456, Note_on_c, 1, 67, 0
3, 87456, Note_on_c, 1, 57, 30
3, 87552, Note_on_c, 1, 57, 0
3, 87552, Note_on_c, 1, 66, 30
3, 87648, Note_on_c, 1, 66, 0
3, 87648, Note_on_c, 1, 57, 30
3, 87744, Note_on_c, 1, 57, 0
3, 87744, Note_on_c, 1, 65, 30
3, 87840, Note_on_c, 1, 65, 0
3, 87840, Note_on_c, 1, 57, 30
3, 87936, Note_on_c, 1, 57, 0
3, 87936, Note_on_c, 1, 64, 30
3, 88032, Note_on_c, 1, 64, 0
3, 88032, Note_on_c, 1, 57, 30
3, 88128, Note_on_c, 1, 57, 0
3, 88128, Note_on_c, 1, 62, 30
3, 88224, Note_on_c, 1, 62, 0
3, 88224, Note_on_c, 1, 57, 30
3, 88320, Note_on_c, 1, 57, 0
3, 88320, Note_on_c, 1, 61, 30
3, 88416, Note_on_c, 1, 61, 0
3, 88416, Note_on_c, 1, 57, 30
3, 88512, Note_on_c, 1, 57, 0
3, 88512, Note_on_c, 1, 69, 30
3, 88608, Note_on_c, 1, 69, 0
3, 88608, Note_on_c, 1, 57, 30
3, 88704, Note_on_c, 1, 57, 0
3, 88704, Note_on_c, 1, 68, 30
3, 88800, Note_on_c, 1, 68, 0
3, 88800, Note_on_c, 1, 57, 30
3, 88896, Note_on_c, 1, 57, 0
3, 88896, Note_on_c, 1, 67, 30
3, 88992, Note_on_c, 1, 67, 0
3, 88992, Note_on_c, 1, 57, 30
3, 89086, Note_on_c, 1, 57, 0
3, 89088, Note_on_c, 1, 57, 30
3, 89088, Note_on_c, 1, 66, 30
3, 89248, Note_on_c, 1, 57, 0
3, 89248, Note_on_c, 1, 66, 0
3, 89664, Note_on_c, 1, 57, 30
3, 89664, Note_on_c, 1, 59, 30
3, 89664, Note_on_c, 1, 62, 30
3, 89824, Note_on_c, 1, 57, 0
3, 89824, Note_on_c, 1, 59, 0
3, 89824, Note_on_c, 1, 62, 0
3, 89856, Note_on_c, 1, 57, 30
3, 89856, Note_on_c, 1, 59, 30
3, 89856, Note_on_c, 1, 62, 30
3, 90240, Note_on_c, 1, 57, 0
3, 90240, Note_on_c, 1, 59, 0
3, 90240, Note_on_c, 1, 62, 0
3, 90240, Note_on_c, 1, 57, 30
3, 90240, Note_on_c, 1, 61, 30
3, 90400, Note_on_c, 1, 57, 0
3, 90400, Note_on_c, 1, 61, 0
3, 90624, Note_on_c, 1, 40, 92
3, 90624, Note_on_c, 1, 52, 92
3, 90960, Note_on_c, 1, 40, 0
3, 90960, Note_on_c, 1, 52, 0
3, 91008, Note_on_c, 1, 50, 92
3, 91056, Note_on_c, 1, 50, 0
3, 91056, Note_on_c, 1, 49, 92
3, 91198, Note_on_c, 1, 49, 0
3, 91200, Note_on_c, 1, 47, 92
3, 91248, Note_on_c, 1, 47, 0
3, 91248, Note_on_c, 1, 45, 92
3, 91390, Note_on_c, 1, 45, 0
3, 91392, Note_on_c, 1, 50, 92
3, 91680, Note_on_c, 1, 50, 0
3, 91680, Note_on_c, 1, 47, 92
3, 91776, Note_on_c, 1, 47, 0
3, 91776, Note_on_c, 1, 44, 92
3, 91936, Note_on_c, 1, 44, 0
3, 92160, Note_on_c, 1, 57, 45
3, 92160, Note_on_c, 1, 61, 45
3, 92688, Note_on_c, 1, 57, 0
3, 92688, Note_on_c, 1, 61, 0
3, 92928, Note_on_c, 1, 58, 45
3, 92928, Note_on_c, 1, 61, 45
3, 92928, Note_on_c, 1, 66, 45
3, 93456, Note_on_c, 1, 58, 0
3, 93456, Note_on_c, 1, 61, 0
3, 93456, Note_on_c, 1, 66, 0
3, 93696, Note_on_c, 1, 42, 92
3, 93696, Note_on_c, 1, 54, 92
3, 94032, Note_on_c, 1, 42, 0
3, 94032, Note_on_c, 1, 54, 0
3, 94080, Note_on_c, 1, 52, 92
3, 94128, Note_on_c, 1, 52, 0
3, 94128, Note_on_c, 1, 50, 92
3, 94270, Note_on_c, 1, 50, 0
3, 94272, Note_on_c, 1, 49, 92
3, 94320, Note_on_c, 1, 49, 0
3, 94320, Note_on_c, 1, 47, 92
3, 94462, Note_on_c, 1, 47, 0
3, 94464, Note_on_c, 1, 52, 92
3, 94720, Note_on_c, 1, 52, 0
3, 94752, Note_on_c, 1, 49, 92
3, 94846, Note_on_c, 1, 49, 0
3, 94848, Note_on_c, 1, 46, 92
3, 95008, Note_on_c, 1, 46, 0
3, 95232, Note_on_c, 1, 59, 60
3, 95232, Note_on_c, 1, 62, 60
3, 95760, Note_on_c, 1, 59, 0
3, 95760, Note_on_c, 1, 62, 0
3, 96000, Note_on_c, 1, 57, 60
3, 96000, Note_on_c, 1, 60, 60
3, 96000, Note_on_c, 1, 62, 60
3, 96528, Note_on_c, 1, 57, 0
3, 96528, Note_on_c, 1, 60, 0
3, 96528, Note_on_c, 1, 62, 0
3, 99072, Note_on_c, 1, 55, 30
3, 99072, Note_on_c, 1, 59, 30
3, 99168, Note_on_c, 1, 59, 0
3, 99168, Note_on_c, 1, 62, 30
3, 99232, Note_on_c, 1, 55, 0
3, 99264, Note_on_c, 1, 62, 0
3, 99264, Note_on_c, 1, 55, 30
3, 99264, Note_on_c, 1, 59, 30
3, 99360, Note_on_c, 1, 59, 0
3, 99360, Note_on_c, 1, 62, 30
3, 99424, Note_on_c, 1, 55, 0
3, 99456, Note_on_c, 1, 62, 0
3, 99456, Note_on_c, 1, 55, 30
3, 99456, Note_on_c, 1, 59, 30
3, 99552, Note_on_c, 1, 59, 0
3, 99552, Note_on_c, 1, 62, 30
3, 99616, Note_on_c, 1, 55, 0
3, 99648, Note_on_c, 1, 62, 0
3, 99648, Note_on_c, 1, 55, 30
3, 99648, Note_on_c, 1, 59, 30
3, 99744, Note_on_c, 1, 59, 0
3, 99744, Note_on_c, 1, 62, 30
3, 99808, Note_on_c, 1, 55, 0
3, 99840, Note_on_c, 1, 62, 0
3, 99840, Note_on_c, 1, 57, 30
3, 99840, Note_on_c, 1, 60, 30
3, 99936, Note_on_c, 1, 60, 0
3, 99936, Note_on_c, 1, 62, 30
3, 100000, Note_on_c, 1, 57, 0
3, 100032, Note_on_c, 1, 62, 0
3, 100032, Note_on_c, 1, 57, 30
3, 100032, Note_on_c, 1, 60, 30
3, 100128, Note_on_c, 1, 60, 0
3, 100128, Note_on_c, 1, 62, 30
3, 100192, Note_on_c, 1, 57, 0
3, 100224, Note_on_c, 1, 62, 0
3, 100224, Note_on_c, 1, 57, 30
3, 100224, Note_on_c, 1, 60, 30
3, 100320, Note_on_c, 1, 60, 0
3, 100320, Note_on_c, 1, 62, 30
3, 100384, Note_on_c, 1, 57, 0
3, 100416, Note_on_c, 1, 62, 0
3, 100416, Note_on_c, 1, 57, 30
3, 100416, Note_on_c, 1, 60, 30
3, 100512, Note_on_c, 1, 60, 0
3, 100512, Note_on_c, 1, 62, 30
3, 100576, Note_on_c, 1, 57, 0
3, 100608, Note_on_c, 1, 62, 0
3, 100608, Note_on_c, 1, 57, 30
3, 100608, Note_on_c, 1, 60, 30
3, 100704, Note_on_c, 1, 60, 0
3, 100704, Note_on_c, 1, 62, 30
3, 100768, Note_on_c, 1, 57, 0
3, 100800, Note_on_c, 1, 62, 0
3, 100800, Note_on_c, 1, 57, 30
3, 100800, Note_on_c, 1, 60, 30
3, 100896, Note_on_c, 1, 60, 0
3, 100896, Note_on_c, 1, 62, 30
3, 100960, Note_on_c, 1, 57, 0
3, 100992, Note_on_c, 1, 62, 0
3, 100992, Note_on_c, 1, 57, 30
3, 100992, Note_on_c, 1, 60, 30
3, 101088, Note_on_c, 1, 60, 0
3, 101088, Note_on_c, 1, 62, 30
3, 101152, Note_on_c, 1, 57, 0
3, 101184, Note_on_c, 1, 62, 0
3, 101184, Note_on_c, 1, 57, 30
3, 101184, Note_on_c, 1, 60, 30
3, 101280, Note_on_c, 1, 60, 0
3, 101280, Note_on_c, 1, 62, 30
3, 101344, Note_on_c, 1, 57, 0
3, 101376, Note_on_c, 1, 62, 0
3, 101376, Note_on_c, 1, 55, 30
3, 101376, Note_on_c, 1, 59, 30
3, 101472, Note_on_c, 1, 59, 0
3, 101472, Note_on_c, 1, 62, 30
3, 101536, Note_on_c, 1, 55, 0
3, 101568, Note_on_c, 1, 62, 0
3, 101568, Note_on_c, 1, 55, 30
3, 101568, Note_on_c, 1, 59, 30
3, 101664, Note_on_c, 1, 59, 0
3, 101664, Note_on_c, 1, 62, 30
3, 101728, Note_on_c, 1, 55, 0
3, 101760, Note_on_c, 1, 62, 0
3, 101760, Note_on_c, 1, 55, 30
3, 101760, Note_on_c, 1, 59, 30
3, 101856, Note_on_c, 1, 59, 0
3, 101856, Note_on_c, 1, 62, 30
3, 101920, Note_on_c, 1, 55, 0
3, 101952, Note_on_c, 1, 62, 0
3, 101952, Note_on_c, 1, 55, 30
3, 101952, Note_on_c, 1, 59, 30
3, 102048, Note_on_c, 1, 59, 0
3, 102048, Note_on_c, 1, 62, 30
3, 102112, Note_on_c, 1, 55, 0
3, 102144, Note_on_c, 1, 62, 0
3, 102144, Note_on_c, 1, 55, 30
3, 102144, Note_on_c, 1, 60, 30
3, 102240, Note_on_c, 1, 60, 0
3, 102240, Note_on_c, 1, 64, 30
3, 102304, Note_on_c, 1, 55, 0
3, 102336, Note_on_c, 1, 64, 0
3, 102336, Note_on_c, 1, 55, 30
3, 102336, Note_on_c, 1, 60, 30
3, 102432, Note_on_c, 1, 60, 0
3, 102432, Note_on_c, 1, 62, 30
3, 102496, Note_on_c, 1, 55, 0
3, 102528, Note_on_c, 1, 62, 0
3, 102528, Note_on_c, 1, 55, 30
3, 102528, Note_on_c, 1, 59, 30
3, 102624, Note_on_c, 1, 59, 0
3, 102624, Note_on_c, 1, 62, 30
3, 102688, Note_on_c, 1, 55, 0
3, 102720, Note_on_c, 1, 62, 0
3, 102720, Note_on_c, 1, 55, 30
3, 102720, Note_on_c, 1, 59, 30
3, 102816, Note_on_c, 1, 59, 0
3, 102816, Note_on_c, 1, 62, 30
3, 102880, Note_on_c, 1, 55, 0
3, 102912, Note_on_c, 1, 62, 0
3, 102912, Note_on_c, 1, 55, 30
3, 102912, Note_on_c, 1, 60, 30
3, 103008, Note_on_c, 1, 60, 0
3, 103008, Note_on_c, 1, 64, 30
3, 103072, Note_on_c, 1, 55, 0
3, 103104, Note_on_c, 1, 64, 0
3, 103104, Note_on_c, 1, 55, 30
3, 103104, Note_on_c, 1, 60, 30
3, 103200, Note_on_c, 1, 60, 0
3, 103200, Note_on_c, 1, 62, 30
3, 103264, Note_on_c, 1, 55, 0
3, 103296, Note_on_c, 1, 62, 0
3, 103296, Note_on_c, 1, 55, 30
3, 103296, Note_on_c, 1, 59, 30
3, 103456, Note_on_c, 1, 55, 0
3, 103456, Note_on_c, 1, 59, 0
3, 103872, Note_on_c, 1, 48, 45
3, 103872, Note_on_c, 1, 57, 45
3, 104064, Note_on_c, 1, 48, 0
3, 104064, Note_on_c, 1, 57, 0
3, 104064, Note_on_c, 1, 50, 45
3, 104064, Note_on_c, 1, 59, 45
3, 104256, Note_on_c, 1, 59, 0
3, 104256, Note_on_c, 1, 60, 45
3, 104400, Note_on_c, 1, 50, 0
3, 104448, Note_on_c, 1, 60, 0
3, 104448, Note_on_c, 1, 55, 45
3, 104448, Note_on_c, 1, 59, 45
3, 104608, Note_on_c, 1, 55, 0
3, 104608, Note_on_c, 1, 59, 0
3, 104640, Note_on_c, 1, 43, 45
3, 104800, Note_on_c, 1, 43, 0
3, 105024, Note_on_c, 1, 43, 45
3, 105184, Note_on_c, 1, 43, 0
3, 105216, Note_on_c, 1, 42, 45
3, 105408, Note_on_c, 1, 42, 0
3, 105408, Note_on_c, 1, 43, 45
3, 105600, Note_on_c, 1, 43, 0
3, 105600, Note_on_c, 1, 45, 45
3, 105792, Note_on_c, 1, 45, 0
3, 105792, Note_on_c, 1, 42, 45
3, 105984, Note_on_c, 1, 42, 0
3, 105984, Note_on_c, 1, 43, 45
3, 106144, Note_on_c, 1, 43, 0
3, 106176, Note_on_c, 1, 43, 45
3, 106336, Note_on_c, 1, 43, 0
3, 106560, Note_on_c, 1, 45, 45
3, 106720, Note_on_c, 1, 45, 0
3, 106752, Note_on_c, 1, 44, 45
3, 106944, Note_on_c, 1, 44, 0
3, 106944, Note_on_c, 1, 45, 45
3, 107136, Note_on_c, 1, 45, 0
3, 107136, Note_on_c, 1, 47, 45
3, 107328, Note_on_c, 1, 47, 0
3, 107328, Note_on_c, 1, 44, 45
3, 107520, Note_on_c, 1, 44, 0
3, 107520, Note_on_c, 1, 45, 45
3, 107680, Note_on_c, 1, 45, 0
3, 107712, Note_on_c, 1, 45, 45
3, 107872, Note_on_c, 1, 45, 0
3, 108096, Note_on_c, 1, 47, 45
3, 108256, Note_on_c, 1, 47, 0
3, 108288, Note_on_c, 1, 46, 45
3, 108480, Note_on_c, 1, 46, 0
3, 108480, Note_on_c, 1, 47, 45
3, 108672, Note_on_c, 1, 47, 0
3, 108672, Note_on_c, 1, 49, 45
3, 108864, Note_on_c, 1, 49, 0
3, 108864, Note_on_c, 1, 46, 45
3, 109056, Note_on_c, 1, 46, 0
3, 109056, Note_on_c, 1, 47, 45
3, 109216, Note_on_c, 1, 47, 0
3, 109248, Note_on_c, 1, 47, 45
3, 109408, Note_on_c, 1, 47, 0
3, 109632, Note_on_c, 1, 59, 75
3, 109632, Note_on_c, 1, 62, 75
3, 109792, Note_on_c, 1, 59, 0
3, 109792, Note_on_c, 1, 62, 0
3, 110016, Note_on_c, 1, 57, 77
3, 110016, Note_on_c, 1, 61, 77
3, 110176, Note_on_c, 1, 57, 0
3, 110176, Note_on_c, 1, 61, 0
3, 110400, Note_on_c, 1, 55, 83
3, 110400, Note_on_c, 1, 59, 83
3, 110560, Note_on_c, 1, 55, 0
3, 110560, Note_on_c, 1, 59, 0
3, 110784, Note_on_c, 1, 54, 89
3, 110784, Note_on_c, 1, 57, 89
3, 110944, Note_on_c, 1, 54, 0
3, 110944, Note_on_c, 1, 57, 0
3, 110976, Note_on_c, 1, 59, 92
3, 111072, Note_on_c, 1, 59, 0
3, 111072, Note_on_c, 1, 62, 92
3, 111168, Note_on_c, 1, 62, 0
3, 111168, Note_on_c, 1, 67, 92
3, 111264, Note_on_c, 1, 67, 0
3, 111264, Note_on_c, 1, 62, 92
3, 111360, Note_on_c, 1, 62, 0
3, 111360, Note_on_c, 1, 57, 92
3, 111456, Note_on_c, 1, 57, 0
3, 111456, Note_on_c, 1, 61, 92
3, 111552, Note_on_c, 1, 61, 0
3, 111552, Note_on_c, 1, 66, 92
3, 111648, Note_on_c, 1, 66, 0
3, 111648, Note_on_c, 1, 61, 92
3, 111744, Note_on_c, 1, 61, 0
3, 111744, Note_on_c, 1, 55, 92
3, 111840, Note_on_c, 1, 55, 0
3, 111840, Note_on_c, 1, 59, 92
3, 111936, Note_on_c, 1, 59, 0
3, 111936, Note_on_c, 1, 64, 92
3, 112032, Note_on_c, 1, 64, 0
3, 112032, Note_on_c, 1, 59, 92
3, 112126, Note_on_c, 1, 59, 0
3, 112128, Note_on_c, 1, 54, 92
3, 112128, Note_on_c, 1, 57, 92
3, 112704, Note_on_c, 1, 57, 0
3, 112704, Note_on_c, 1, 62, 92
3, 112848, Note_on_c, 1, 54, 0
3, 112864, Note_on_c, 1, 62, 0
3, 112896, Note_on_c, 1, 55, 92
3, 112896, Note_on_c, 1, 62, 92
3, 113184, Note_on_c, 1, 55, 0
3, 113184, Note_on_c, 1, 62, 0
3, 113184, Note_on_c, 1, 57, 92
3, 113280, Note_on_c, 1, 57, 0
3, 113280, Note_on_c, 1, 59, 92
3, 113568, Note_on_c, 1, 59, 0
3, 113568, Note_on_c, 1, 56, 92
3, 113664, Note_on_c, 1, 56, 0
3, 113664, Note_on_c, 1, 57, 92
3, 113824, Note_on_c, 1, 57, 0
3, 113856, Note_on_c, 1, 45, 92
3, 114016, Note_on_c, 1, 45, 0
3, 114624, Note_on_c, 1, 57, 92
3, 114624, Note_on_c, 1, 61, 92
3, 114624, Note_on_c, 1, 64, 92
3, 114624, Note_on_c, 1, 67, 92
3, 114784, Note_on_c, 1, 57, 0
3, 114784, Note_on_c, 1, 61, 0
3, 114784, Note_on_c, 1, 64, 0
3, 114784, Note_on_c, 1, 67, 0
3, 115296, Note_on_c, 1, 58, 127
3, 115296, Note_on_c, 1, 64, 127
3, 115296, Note_on_c, 1, 67, 127
3, 115390, Note_on_c, 1, 58, 0
3, 115390, Note_on_c, 1, 64, 0
3, 115390, Note_on_c, 1, 67, 0
3, 115392, Note_on_c, 1, 57, 92
3, 115392, Note_on_c, 1, 64, 92
3, 115392, Note_on_c, 1, 67, 92
3, 115552, Note_on_c, 1, 57, 0
3, 115552, Note_on_c, 1, 64, 0
3, 115552, Note_on_c, 1, 67, 0
3, 115680, Note_on_c, 1, 58, 127
3, 115680, Note_on_c, 1, 64, 127
3, 115680, Note_on_c, 1, 67, 127
3, 115776, Note_on_c, 1, 58, 0
3, 115776, Note_on_c, 1, 64, 0
3, 115776, Note_on_c, 1, 67, 0
3, 115776, Note_on_c, 1, 57, 92
3, 115776, Note_on_c, 1, 64, 92
3, 115776, Note_on_c, 1, 67, 92
3, 115936, Note_on_c, 1, 57, 0
3, 115936, Note_on_c, 1, 64, 0
3, 115936, Note_on_c, 1, 67, 0
3, 116736, Note_on_c, 1, 57, 92
3, 116736, Note_on_c, 1, 61, 92
3, 116736, Note_on_c, 1, 64, 92
3, 116736, Note_on_c, 1, 67, 92
3, 117456, Note_on_c, 1, 57, 0
3, 117456, Note_on_c, 1, 61, 0
3, 117456, Note_on_c, 1, 64, 0
3, 117456, Note_on_c, 1, 67, 0
3, 117504, Note_on_c, 1, 62, 30
3, 117504, Note_on_c, 1, 66, 30
3, 117598, Note_on_c, 1, 66, 0
3, 117600, Note_on_c, 1, 69, 30
3, 117664, Note_on_c, 1, 62, 0
3, 117694, Note_on_c, 1, 69, 0
3, 117696, Note_on_c, 1, 62, 30
3, 117696, Note_on_c, 1, 66, 30
3, 117790, Note_on_c, 1, 66, 0
3, 117792, Note_on_c, 1, 69, 30
3, 117856, Note_on_c, 1, 62, 0
3, 117886, Note_on_c, 1, 69, 0
3, 117888, Note_on_c, 1, 62, 30
3, 117888, Note_on_c, 1, 66, 30
3, 117982, Note_on_c, 1, 66, 0
3, 117984, Note_on_c, 1, 69, 30
3, 118048, Note_on_c, 1, 62, 0
3, 118078, Note_on_c, 1, 69, 0
3, 118080, Note_on_c, 1, 62, 30
3, 118080, Note_on_c, 1, 66, 30
3, 118174, Note_on_c, 1, 66, 0
3, 118176, Note_on_c, 1, 69, 30
3, 118240, Note_on_c, 1, 62, 0
3, 118270, Note_on_c, 1, 69, 0
3, 118272, Note_on_c, 1, 64, 30
3, 118272, Note_on_c, 1, 67, 30
3, 118366, Note_on_c, 1, 67, 0
3, 118368, Note_on_c, 1, 69, 30
3, 118432, Note_on_c, 1, 64, 0
3, 118462, Note_on_c, 1, 69, 0
3, 118464, Note_on_c, 1, 64, 30
3, 118464, Note_on_c, 1, 67, 30
3, 118558, Note_on_c, 1, 67, 0
3, 118560, Note_on_c, 1, 69, 30
3, 118624, Note_on_c, 1, 64, 0
3, 118654, Note_on_c, 1, 69, 0
3, 118656, Note_on_c, 1, 64, 30
3, 118656, Note_on_c, 1, 67, 30
3, 118750, Note_on_c, 1, 67, 0
3, 118752, Note_on_c, 1, 69, 30
3, 118816, Note_on_c, 1, 64, 0
3, 118846, Note_on_c, 1, 69, 0
3, 118848, Note_on_c, 1, 64, 30
3, 118848, Note_on_c, 1, 67, 30
3, 118942, Note_on_c, 1, 67, 0
3, 118944, Note_on_c, 1, 69, 30
3, 119008, Note_on_c, 1, 64, 0
3, 119038, Note_on_c, 1, 69, 0
3, 119040, Note_on_c, 1, 64, 30
3, 119040, Note_on_c, 1, 67, 30
3, 119134, Note_on_c, 1, 67, 0
3, 119136, Note_on_c, 1, 69, 30
3, 119200, Note_on_c, 1, 64, 0
3, 119230, Note_on_c, 1, 69, 0
3, 119232, Note_on_c, 1, 64, 30
3, 119232, Note_on_c, 1, 67, 30
3, 119326, Note_on_c, 1, 67, 0
3, 119328, Note_on_c, 1, 69, 30
3, 119392, Note_on_c, 1, 64, 0
3, 119422, Note_on_c, 1, 69, 0
3, 119424, Note_on_c, 1, 64, 30
3, 119424, Note_on_c, 1, 67, 30
3, 119518, Note_on_c, 1, 67, 0
3, 119520, Note_on_c, 1, 69, 30
3, 119584, Note_on_c, 1, 64, 0
3, 119614, Note_on_c, 1, 69, 0
3, 119616, Note_on_c, 1, 64, 30
3, 119616, Note_on_c, 1, 67, 30
3, 119710, Note_on_c, 1, 67, 0
3, 119712, Note_on_c, 1, 69, 30
3, 119776, Note_on_c, 1, 64, 0
3, 119806, Note_on_c, 1, 69, 0
3, 119808, Note_on_c, 1, 62, 30
3, 119808, Note_on_c, 1, 66, 30
3, 119902, Note_on_c, 1, 66, 0
3, 119904, Note_on_c, 1, 69, 30
3, 119968, Note_on_c, 1, 62, 0
3, 119998, Note_on_c, 1, 69, 0
3, 120000, Note_on_c, 1, 62, 30
3, 120000, Note_on_c, 1, 66, 30
3, 120094, Note_on_c, 1, 66, 0
3, 120096, Note_on_c, 1, 69, 30
3, 120160, Note_on_c, 1, 62, 0
3, 120190, Note_on_c, 1, 69, 0
3, 120192, Note_on_c, 1, 62, 30
3, 120192, Note_on_c, 1, 66, 30
3, 120286, Note_on_c, 1, 66, 0
3, 120288, Note_on_c, 1, 69, 30
3, 120352, Note_on_c, 1, 62, 0
3, 120382, Note_on_c, 1, 69, 0
3, 120384, Note_on_c, 1, 62, 30
3, 120384, Note_on_c, 1, 66, 30
3, 120478, Note_on_c, 1, 66, 0
3, 120480, Note_on_c, 1, 69, 30
3, 120544, Note_on_c, 1, 62, 0
3, 120574, Note_on_c, 1, 69, 0
3, 120576, Note_on_c, 1, 62, 30
3, 120576, Note_on_c, 1, 67, 30
3, 120670, Note_on_c, 1, 67, 0
3, 120672, Note_on_c, 1, 71, 30
3, 120736, Note_on_c, 1, 62, 0
3, 120766, Note_on_c, 1, 71, 0
3, 120768, Note_on_c, 1, 62, 30
3, 120768, Note_on_c, 1, 67, 30
3, 120862, Note_on_c, 1, 67, 0
3, 120864, Note_on_c, 1, 69, 30
3, 120928, Note_on_c, 1, 62, 0
3, 120958, Note_on_c, 1, 69, 0
3, 120960, Note_on_c, 1, 62, 30
3, 120960, Note_on_c, 1, 66, 30
3, 121054, Note_on_c, 1, 66, 0
3, 121056, Note_on_c, 1, 69, 30
3, 121120, Note_on_c, 1, 62, 0
3, 121150, Note_on_c, 1, 69, 0
3, 121152, Note_on_c, 1, 62, 30
3, 121152, Note_on_c, 1, 66, 30
3, 121246, Note_on_c, 1, 66, 0
3, 121248, Note_on_c, 1, 69, 30
3, 121312, Note_on_c, 1, 62, 0
3, 121342, Note_on_c, 1, 69, 0
3, 121344, Note_on_c, 1, 62, 30
3, 121344, Note_on_c, 1, 67, 30
3, 121438, Note_on_c, 1, 67, 0
3, 121440, Note_on_c, 1, 71, 30
3, 121504, Note_on_c, 1, 62, 0
3, 121534, Note_on_c, 1, 71, 0
3, 121536, Note_on_c, 1, 62, 30
3, 121536, Note_on_c, 1, 67, 30
3, 121630, Note_on_c, 1, 67, 0
3, 121632, Note_on_c, 1, 69, 30
3, 121696, Note_on_c, 1, 62, 0
3, 121726, Note_on_c, 1, 69, 0
3, 121728, Note_on_c, 1, 62, 30
3, 121728, Note_on_c, 1, 66, 30
3, 121822, Note_on_c, 1, 66, 0
3, 121824, Note_on_c, 1, 69, 30
3, 121888, Note_on_c, 1, 62, 0
3, 121918, Note_on_c, 1, 69, 0
3, 121920, Note_on_c, 1, 62, 30
3, 121920, Note_on_c, 1, 66, 30
3, 122014, Note_on_c, 1, 66, 0
3, 122016, Note_on_c, 1, 69, 30
3, 122080, Note_on_c, 1, 62, 0
3, 122110, Note_on_c, 1, 69, 0
3, 122304, Note_on_c, 1, 61, 30
3, 122304, Note_on_c, 1, 64, 30
3, 122304, Note_on_c, 1, 69, 30
3, 122464, Note_on_c, 1, 61, 0
3, 122464, Note_on_c, 1, 64, 0
3, 122464, Note_on_c, 1, 69, 0
3, 122688, Note_on_c, 1, 62, 30
3, 122688, Note_on_c, 1, 66, 30
3, 122688, Note_on_c, 1, 69, 30
3, 122848, Note_on_c, 1, 62, 0
3, 122848, Note_on_c, 1, 66, 0
3, 122848, Note_on_c, 1, 69, 0
3, 122880, Note_on_c, 1, 57, 30
3, 122880, Note_on_c, 1, 61, 30
3, 123040, Note_on_c, 1, 57, 0
3, 123040, Note_on_c, 1, 61, 0
3, 123648, Note_on_c, 1, 62, 30
3, 123648, Note_on_c, 1, 65, 30
3, 123742, Note_on_c, 1, 65, 0
3, 123744, Note_on_c, 1, 69, 30
3, 123808, Note_on_c, 1, 62, 0
3, 123838, Note_on_c, 1, 69, 0
3, 123840, Note_on_c, 1, 62, 30
3, 123840, Note_on_c, 1, 65, 30
3, 123934, Note_on_c, 1, 65, 0
3, 123936, Note_on_c, 1, 69, 30
3, 124000, Note_on_c, 1, 62, 0
3, 124030, Note_on_c, 1, 69, 0
3, 124032, Note_on_c, 1, 62, 30
3, 124032, Note_on_c, 1, 65, 30
3, 124126, Note_on_c, 1, 65, 0
3, 124128, Note_on_c, 1, 69, 30
3, 124192, Note_on_c, 1, 62, 0
3, 124222, Note_on_c, 1, 69, 0
3, 124224, Note_on_c, 1, 62, 30
3, 124224, Note_on_c, 1, 65, 30
3, 124318, Note_on_c, 1, 65, 0
3, 124320, Note_on_c, 1, 69, 30
3, 124384, Note_on_c, 1, 62, 0
3, 124414, Note_on_c, 1, 69, 0
3, 124416, Note_on_c, 1, 64, 30
3, 124416, Note_on_c, 1, 67, 30
3, 124510, Note_on_c, 1, 67, 0
3, 124512, Note_on_c, 1, 69, 30
3, 124576, Note_on_c, 1, 64, 0
3, 124606, Note_on_c, 1, 69, 0
3, 124608, Note_on_c, 1, 64, 30
3, 124608, Note_on_c, 1, 67, 30
3, 124702, Note_on_c, 1, 67, 0
3, 124704, Note_on_c, 1, 69, 30
3, 124768, Note_on_c, 1, 64, 0
3, 124798, Note_on_c, 1, 69, 0
3, 124800, Note_on_c, 1, 64, 30
3, 124800, Note_on_c, 1, 67, 30
3, 124894, Note_on_c, 1, 67, 0
3, 124896, Note_on_c, 1, 69, 30
3, 124960, Note_on_c, 1, 64, 0
3, 124990, Note_on_c, 1, 69, 0
3, 124992, Note_on_c, 1, 64, 30
3, 124992, Note_on_c, 1, 67, 30
3, 125086, Note_on_c, 1, 67, 0
3, 125088, Note_on_c, 1, 69, 30
3, 125152, Note_on_c, 1, 64, 0
3, 125182, Note_on_c, 1, 69, 0
3, 125184, Note_on_c, 1, 64, 30
3, 125184, Note_on_c, 1, 67, 30
3, 125278, Note_on_c, 1, 67, 0
3, 125280, Note_on_c, 1, 69, 30
3, 125344, Note_on_c, 1, 64, 0
3, 125374, Note_on_c, 1, 69, 0
3, 125376, Note_on_c, 1, 64, 30
3, 125376, Note_on_c, 1, 67, 30
3, 125470, Note_on_c, 1, 67, 0
3, 125472, Note_on_c, 1, 69, 30
3, 125536, Note_on_c, 1, 64, 0
3, 125566, Note_on_c, 1, 69, 0
3, 125568, Note_on_c, 1, 64, 30
3, 125568, Note_on_c, 1, 67, 30
3, 125662, Note_on_c, 1, 67, 0
3, 125664, Note_on_c, 1, 69, 30
3, 125728, Note_on_c, 1, 64, 0
3, 125758, Note_on_c, 1, 69, 0
3, 125760, Note_on_c, 1, 64, 30
3, 125760, Note_on_c, 1, 67, 30
3, 125854, Note_on_c, 1, 67, 0
3, 125856, Note_on_c, 1, 69, 30
3, 125920, Note_on_c, 1, 64, 0
3, 125950, Note_on_c, 1, 69, 0
3, 125952, Note_on_c, 1, 62, 30
3, 125952, Note_on_c, 1, 65, 30
3, 126046, Note_on_c, 1, 65, 0
3, 126048, Note_on_c, 1, 69, 35
3, 126112, Note_on_c, 1, 62, 0
3, 126142, Note_on_c, 1, 69, 0
3, 126144, Note_on_c, 1, 62, 40
3, 126144, Note_on_c, 1, 65, 40
3, 126238, Note_on_c, 1, 65, 0
3, 126240, Note_on_c, 1, 69, 45
3, 126304, Note_on_c, 1, 62, 0
3, 126334, Note_on_c, 1, 69, 0
3, 126336, Note_on_c, 1, 62, 51
3, 126336, Note_on_c, 1, 65, 51
3, 126496, Note_on_c, 1, 62, 0
3, 126496, Note_on_c, 1, 65, 0
3, 127104, Note_on_c, 1, 61, 75
3, 127104, Note_on_c, 1, 70, 105
3, 127360, Note_on_c, 1, 70, 0
3, 127392, Note_on_c, 1, 67, 75
3, 127440, Note_on_c, 1, 61, 0
3, 127486, Note_on_c, 1, 67, 0
3, 127488, Note_on_c, 1, 60, 75
3, 127488, Note_on_c, 1, 64, 75
3, 127648, Note_on_c, 1, 60, 0
3, 127648, Note_on_c, 1, 64, 0
3, 127872, Note_on_c, 1, 61, 75
3, 127872, Note_on_c, 1, 70, 105
3, 128128, Note_on_c, 1, 70, 0
3, 128160, Note_on_c, 1, 67, 75
3, 128208, Note_on_c, 1, 61, 0
3, 128254, Note_on_c, 1, 67, 0
3, 128256, Note_on_c, 1, 60, 75
3, 128256, Note_on_c, 1, 64, 75
3, 128416, Note_on_c, 1, 60, 0
3, 128416, Note_on_c, 1, 64, 0
3, 128448, Note_on_c, 1, 49, 92
3, 128448, Note_on_c, 1, 61, 92
3, 128640, Note_on_c, 1, 49, 0
3, 128640, Note_on_c, 1, 61, 0
3, 128640, Note_on_c, 1, 48, 92
3, 128640, Note_on_c, 1, 60, 92
3, 128832, Note_on_c, 1, 48, 0
3, 128832, Note_on_c, 1, 60, 0
3, 128832, Note_on_c, 1, 49, 92
3, 128832, Note_on_c, 1, 61, 92
3, 129024, Note_on_c, 1, 49, 0
3, 129024, Note_on_c, 1, 61, 0
3, 129024, Note_on_c, 1, 48, 92
3, 129024, Note_on_c, 1, 60, 92
3, 129360, Note_on_c, 1, 48, 0
3, 129360, Note_on_c, 1, 60, 0
3, 130560, Note_on_c, 1, 53, 30
3, 130560, Note_on_c, 1, 57, 30
3, 130656, Note_on_c, 1, 57, 0
3, 130656, Note_on_c, 1, 60, 30
3, 130720, Note_on_c, 1, 53, 0
3, 130752, Note_on_c, 1, 60, 0
3, 130752, Note_on_c, 1, 53, 30
3, 130752, Note_on_c, 1, 57, 30
3, 130848, Note_on_c, 1, 57, 0
3, 130848, Note_on_c, 1, 60, 30
3, 130912, Note_on_c, 1, 53, 0
3, 130944, Note_on_c, 1, 60, 0
3, 130944, Note_on_c, 1, 53, 30
3, 130944, Note_on_c, 1, 57, 30
3, 131040, Note_on_c, 1, 57, 0
3, 131040, Note_on_c, 1, 60, 30
3, 131104, Note_on_c, 1, 53, 0
3, 131136, Note_on_c, 1, 60, 0
3, 131136, Note_on_c, 1, 53, 30
3, 131136, Note_on_c, 1, 57, 30
3, 131232, Note_on_c, 1, 57, 0
3, 131232, Note_on_c, 1, 60, 30
3, 131296, Note_on_c, 1, 53, 0
3, 131328, Note_on_c, 1, 60, 0
3, 131328, Note_on_c, 1, 55, 30
3, 131328, Note_on_c, 1, 58, 30
3, 131424, Note_on_c, 1, 58, 0
3, 131424, Note_on_c, 1, 60, 30
3, 131488, Note_on_c, 1, 55, 0
3, 131520, Note_on_c, 1, 60, 0
3, 131520, Note_on_c, 1, 55, 30
3, 131520, Note_on_c, 1, 58, 30
3, 131616, Note_on_c, 1, 58, 0
3, 131616, Note_on_c, 1, 60, 30
3, 131680, Note_on_c, 1, 55, 0
3, 131712, Note_on_c, 1, 60, 0
3, 131712, Note_on_c, 1, 55, 30
3, 131712, Note_on_c, 1, 58, 30
3, 131808, Note_on_c, 1, 58, 0
3, 131808, Note_on_c, 1, 60, 30
3, 131872, Note_on_c, 1, 55, 0
3, 131904, Note_on_c, 1, 60, 0
3, 131904, Note_on_c, 1, 55, 30
3, 131904, Note_on_c, 1, 58, 30
3, 132000, Note_on_c, 1, 58, 0
3, 132000, Note_on_c, 1, 60, 30
3, 132064, Note_on_c, 1, 55, 0
3, 132096, Note_on_c, 1, 60, 0
3, 132096, Note_on_c, 1, 53, 75
3, 132096, Note_on_c, 1, 57, 75
3, 132192, Note_on_c, 1, 57, 0
3, 132192, Note_on_c, 1, 60, 75
3, 132256, Note_on_c, 1, 53, 0
3, 132288, Note_on_c, 1, 60, 0
3, 132288, Note_on_c, 1, 53, 75
3, 132288, Note_on_c, 1, 57, 75
3, 132384, Note_on_c, 1, 57, 0
3, 132384, Note_on_c, 1, 60, 75
3, 132448, Note_on_c, 1, 53, 0
3, 132480, Note_on_c, 1, 60, 0
3, 132480, Note_on_c, 1, 53, 75
3, 132480, Note_on_c, 1, 57, 75
3, 132576, Note_on_c, 1, 57, 0
3, 132576, Note_on_c, 1, 60, 75
3, 132640, Note_on_c, 1, 53, 0
3, 132672, Note_on_c, 1, 60, 0
3, 132672, Note_on_c, 1, 53, 75
3, 132672, Note_on_c, 1, 57, 75
3, 132768, Note_on_c, 1, 57, 0
3, 132768, Note_on_c, 1, 60, 75
3, 132832, Note_on_c, 1, 53, 0
3, 132864, Note_on_c, 1, 60, 0
3, 132864, Note_on_c, 1, 55, 75
3, 132864, Note_on_c, 1, 58, 75
3, 132960, Note_on_c, 1, 58, 0
3, 132960, Note_on_c, 1, 61, 75
3, 133024, Note_on_c, 1, 55, 0
3, 133056, Note_on_c, 1, 61, 0
3, 133056, Note_on_c, 1, 55, 75
3, 133056, Note_on_c, 1, 58, 75
3, 133152, Note_on_c, 1, 58, 0
3, 133152, Note_on_c, 1, 61, 75
3, 133216, Note_on_c, 1, 55, 0
3, 133248, Note_on_c, 1, 61, 0
3, 133248, Note_on_c, 1, 55, 75
3, 133248, Note_on_c, 1, 58, 75
3, 133344, Note_on_c, 1, 58, 0
3, 133344, Note_on_c, 1, 61, 75
3, 133408, Note_on_c, 1, 55, 0
3, 133440, Note_on_c, 1, 61, 0
3, 133440, Note_on_c, 1, 55, 75
3, 133440, Note_on_c, 1, 58, 75
3, 133536, Note_on_c, 1, 58, 0
3, 133536, Note_on_c, 1, 61, 75
3, 133600, Note_on_c, 1, 55, 0
3, 133630, Note_on_c, 1, 61, 0
3, 133632, Note_on_c, 1, 53, 75
3, 133728, Note_on_c, 1, 53, 0
3, 133728, Note_on_c, 1, 57, 75
3, 133824, Note_on_c, 1, 57, 0
3, 133824, Note_on_c, 1, 62, 75
3, 133920, Note_on_c, 1, 62, 0
3, 133920, Note_on_c, 1, 57, 75
3, 134016, Note_on_c, 1, 57, 0
3, 134016, Note_on_c, 1, 52, 75
3, 134112, Note_on_c, 1, 52, 0
3, 134112, Note_on_c, 1, 55, 75
3, 134208, Note_on_c, 1, 55, 0
3, 134208, Note_on_c, 1, 60, 75
3, 134304, Note_on_c, 1, 60, 0
3, 134304, Note_on_c, 1, 55, 75
3, 134400, Note_on_c, 1, 55, 0
3, 134400, Note_on_c, 1, 50, 75
3, 134496, Note_on_c, 1, 50, 0
3, 134496, Note_on_c, 1, 53, 75
3, 134592, Note_on_c, 1, 53, 0
3, 134592, Note_on_c, 1, 58, 75
3, 134688, Note_on_c, 1, 58, 0
3, 134688, Note_on_c, 1, 53, 75
3, 134784, Note_on_c, 1, 53, 0
3, 134784, Note_on_c, 1, 48, 75
3, 134880, Note_on_c, 1, 48, 0
3, 134880, Note_on_c, 1, 52, 75
3, 134976, Note_on_c, 1, 52, 0
3, 134976, Note_on_c, 1, 57, 75
3, 135072, Note_on_c, 1, 57, 0
3, 135072, Note_on_c, 1, 52, 75
3, 135166, Note_on_c, 1, 52, 0
3, 135360, Note_on_c, 1, 46, 75
3, 135360, Note_on_c, 1, 50, 75
3, 135520, Note_on_c, 1, 46, 0
3, 135520, Note_on_c, 1, 50, 0
3, 135744, Note_on_c, 1, 46, 75
3, 135744, Note_on_c, 1, 56, 75
3, 135904, Note_on_c, 1, 46, 0
3, 135904, Note_on_c, 1, 56, 0
3, 136128, Note_on_c, 1, 58, 75
3, 136128, Note_on_c, 1, 62, 75
3, 136288, Note_on_c, 1, 58, 0
3, 136288, Note_on_c, 1, 62, 0
3, 136512, Note_on_c, 1, 58, 75
3, 136512, Note_on_c, 1, 68, 75
3, 136672, Note_on_c, 1, 58, 0
3, 136672, Note_on_c, 1, 68, 0
3, 136704, Note_on_c, 1, 57, 75
3, 136704, Note_on_c, 1, 69, 75
3, 136864, Note_on_c, 1, 57, 0
3, 136864, Note_on_c, 1, 69, 0
3, 136896, Note_on_c, 1, 57, 75
3, 136896, Note_on_c, 1, 61, 75
3, 137088, Note_on_c, 1, 61, 0
3, 137088, Note_on_c, 1, 62, 75
3, 137280, Note_on_c, 1, 62, 0
3, 137280, Note_on_c, 1, 65, 75
3, 137424, Note_on_c, 1, 57, 0
3, 137472, Note_on_c, 1, 65, 0
3, 137472, Note_on_c, 1, 57, 75
3, 137472, Note_on_c, 1, 64, 75
3, 137632, Note_on_c, 1, 57, 0
3, 137632, Note_on_c, 1, 64, 0
3, 137664, Note_on_c, 1, 45, 75
3, 137664, Note_on_c, 1, 49, 75
3, 137856, Note_on_c, 1, 49, 0
3, 137856, Note_on_c, 1, 50, 75
3, 138048, Note_on_c, 1, 50, 0
3, 138048, Note_on_c, 1, 53, 75
3, 138192, Note_on_c, 1, 45, 0
3, 138240, Note_on_c, 1, 53, 0
3, 138240, Note_on_c, 1, 45, 75
3, 138240, Note_on_c, 1, 52, 75
3, 138400, Note_on_c, 1, 45, 0
3, 138400, Note_on_c, 1, 52, 0
3, 138432, Note_on_c, 1, 58, 75
3, 138494, Note_on_c, 1, 58, 0
3, 138496, Note_on_c, 1, 57, 72
3, 138558, Note_on_c, 1, 57, 0
3, 138560, Note_on_c, 1, 55, 69
3, 138622, Note_on_c, 1, 55, 0
3, 138624, Note_on_c, 1, 53, 66
3, 138686, Note_on_c, 1, 53, 0
3, 138688, Note_on_c, 1, 57, 63
3, 138750, Note_on_c, 1, 57, 0
3, 138752, Note_on_c, 1, 55, 60
3, 138814, Note_on_c, 1, 55, 0
3, 138816, Note_on_c, 1, 53, 57
3, 138878, Note_on_c, 1, 53, 0
3, 138880, Note_on_c, 1, 52, 53
3, 138942, Note_on_c, 1, 52, 0
3, 138944, Note_on_c, 1, 50, 49
3, 139006, Note_on_c, 1, 50, 0
3, 139008, Note_on_c, 1, 49, 45
3, 139070, Note_on_c, 1, 49, 0
3, 139072, Note_on_c, 1, 45, 46
3, 139134, Note_on_c, 1, 45, 0
3, 139136, Note_on_c, 1, 47, 48
3, 139198, Note_on_c, 1, 47, 0
3, 139200, Note_on_c, 1, 48, 50
3, 139262, Note_on_c, 1, 48, 0
3, 139264, Note_on_c, 1, 49, 52
3, 139326, Note_on_c, 1, 49, 0
3, 139328, Note_on_c, 1, 50, 54
3, 139390, Note_on_c, 1, 50, 0
3, 139392, Note_on_c, 1, 51, 56
3, 139454, Note_on_c, 1, 51, 0
3, 139456, Note_on_c, 1, 52, 58
3, 139518, Note_on_c, 1, 52, 0
3, 139520, Note_on_c, 1, 53, 60
3, 139582, Note_on_c, 1, 53, 0
3, 139584, Note_on_c, 1, 54, 62
3, 139646, Note_on_c, 1, 54, 0
3, 139648, Note_on_c, 1, 55, 64
3, 139710, Note_on_c, 1, 55, 0
3, 139712, Note_on_c, 1, 56, 66
3, 139774, Note_on_c, 1, 56, 0
3, 139776, Note_on_c, 1, 57, 68
3, 139838, Note_on_c, 1, 57, 0
3, 139840, Note_on_c, 1, 58, 70
3, 139902, Note_on_c, 1, 58, 0
3, 139904, Note_on_c, 1, 59, 72
3, 139966, Note_on_c, 1, 59, 0
3, 139968, Note_on_c, 1, 60, 74
3, 140030, Note_on_c, 1, 60, 0
3, 140032, Note_on_c, 1, 61, 76
3, 140094, Note_on_c, 1, 61, 0
3, 140096, Note_on_c, 1, 62, 78
3, 140158, Note_on_c, 1, 62, 0
3, 140160, Note_on_c, 1, 63, 80
3, 140222, Note_on_c, 1, 63, 0
3, 140224, Note_on_c, 1, 64, 82
3, 140286, Note_on_c, 1, 64, 0
3, 140288, Note_on_c, 1, 65, 84
3, 140350, Note_on_c, 1, 65, 0
3, 140352, Note_on_c, 1, 66, 86
3, 140414, Note_on_c, 1, 66, 0
3, 140416, Note_on_c, 1, 67, 88
3, 140478, Note_on_c, 1, 67, 0
3, 140480, Note_on_c, 1, 68, 90
3, 140542, Note_on_c, 1, 68, 0
3, 140544, Note_on_c, 1, 69, 92
3, 140880, Note_on_c, 1, 69, 0
3, 140928, Note_on_c, 1, 67, 92
3, 140976, Note_on_c, 1, 67, 0
3, 140976, Note_on_c, 1, 66, 92
3, 141118, Note_on_c, 1, 66, 0
3, 141120, Note_on_c, 1, 64, 92
3, 141166, Note_on_c, 1, 64, 0
3, 141168, Note_on_c, 1, 62, 92
3, 141310, Note_on_c, 1, 62, 0
3, 141312, Note_on_c, 1, 67, 92
3, 141600, Note_on_c, 1, 67, 0
3, 141600, Note_on_c, 1, 64, 92
3, 141696, Note_on_c, 1, 64, 0
3, 141696, Note_on_c, 1, 61, 92
3, 141856, Note_on_c, 1, 61, 0
3, 142080, Note_on_c, 1, 69, 92
3, 142416, Note_on_c, 1, 69, 0
3, 142464, Note_on_c, 1, 67, 92
3, 142512, Note_on_c, 1, 67, 0
3, 142512, Note_on_c, 1, 66, 92
3, 142654, Note_on_c, 1, 66, 0
3, 142656, Note_on_c, 1, 64, 92
3, 142704, Note_on_c, 1, 64, 0
3, 142704, Note_on_c, 1, 62, 92
3, 142846, Note_on_c, 1, 62, 0
3, 142848, Note_on_c, 1, 67, 92
3, 143104, Note_on_c, 1, 67, 0
3, 143136, Note_on_c, 1, 64, 92
3, 143230, Note_on_c, 1, 64, 0
3, 143232, Note_on_c, 1, 61, 92
3, 143392, Note_on_c, 1, 61, 0
3, 143616, Note_on_c, 1, 66, 92
3, 143904, Note_on_c, 1, 66, 0
3, 143904, Note_on_c, 1, 62, 92
3, 144000, Note_on_c, 1, 62, 0
3, 144000, Note_on_c, 1, 59, 92
3, 144160, Note_on_c, 1, 59, 0
3, 144384, Note_on_c, 1, 57, 92
3, 144672, Note_on_c, 1, 57, 0
3, 144672, Note_on_c, 1, 60, 92
3, 144768, Note_on_c, 1, 60, 0
3, 144768, Note_on_c, 1, 66, 92
3, 144928, Note_on_c, 1, 66, 0
3, 145152, Note_on_c, 1, 55, 92
3, 145296, Note_on_c, 1, 55, 0
3, 145296, Note_on_c, 1, 59, 92
3, 145344, Note_on_c, 1, 59, 0
3, 145344, Note_on_c, 1, 64, 92
3, 145504, Note_on_c, 1, 64, 0
3, 145536, Note_on_c, 1, 57, 92
3, 145680, Note_on_c, 1, 57, 0
3, 145680, Note_on_c, 1, 60, 92
3, 145728, Note_on_c, 1, 60, 0
3, 145728, Note_on_c, 1, 66, 92
3, 145888, Note_on_c, 1, 66, 0
3, 145920, Note_on_c, 1, 55, 92
3, 146064, Note_on_c, 1, 55, 0
3, 146064, Note_on_c, 1, 59, 92
3, 146112, Note_on_c, 1, 59, 0
3, 146112, Note_on_c, 1, 64, 92
3, 146272, Note_on_c, 1, 64, 0
3, 146304, Note_on_c, 1, 57, 92
3, 146448, Note_on_c, 1, 57, 0
3, 146448, Note_on_c, 1, 60, 92
3, 146496, Note_on_c, 1, 60, 0
3, 146496, Note_on_c, 1, 66, 92
3, 146656, Note_on_c, 1, 66, 0
3, 146688, Note_on_c, 1, 55, 92
3, 146688, Note_on_c, 1, 59, 92
3, 146688, Note_on_c, 1, 64, 92
3, 147408, Note_on_c, 1, 55, 0
3, 147408, Note_on_c, 1, 59, 0
3, 147408, Note_on_c, 1, 64, 0
3, 147456, Note_on_c, 1, 57, 92
3, 147456, Note_on_c, 1, 62, 92
3, 147456, Note_on_c, 1, 66, 92
3, 147616, Note_on_c, 1, 57, 0
3, 147616, Note_on_c, 1, 62, 0
3, 147616, Note_on_c, 1, 66, 0
3, 148224, Note_on_c, 1, 57, 92
3, 148318, Note_on_c, 1, 57, 0
3, 148320, Note_on_c, 1, 67, 92
3, 148414, Note_on_c, 1, 67, 0
3, 148416, Note_on_c, 1, 61, 92
3, 148510, Note_on_c, 1, 61, 0
3, 148512, Note_on_c, 1, 67, 92
3, 148606, Note_on_c, 1, 67, 0
3, 148608, Note_on_c, 1, 57, 92
3, 148702, Note_on_c, 1, 57, 0
3, 148704, Note_on_c, 1, 67, 92
3, 148798, Note_on_c, 1, 67, 0
3, 148800, Note_on_c, 1, 61, 92
3, 148894, Note_on_c, 1, 61, 0
3, 148896, Note_on_c, 1, 67, 92
3, 148990, Note_on_c, 1, 67, 0
3, 148992, Note_on_c, 1, 58, 92
3, 148992, Note_on_c, 1, 65, 92
3, 149152, Note_on_c, 1, 58, 0
3, 149152, Note_on_c, 1, 65, 0
3, 149760, Note_on_c, 1, 58, 45
3, 149760, Note_on_c, 1, 60, 45
3, 149760, Note_on_c, 1, 69, 45
3, 149920, Note_on_c, 1, 58, 0
3, 149920, Note_on_c, 1, 60, 0
3, 149920, Note_on_c, 1, 69, 0
3, 150528, Note_on_c, 1, 58, 30
3, 150528, Note_on_c, 1, 62, 30
3, 150624, Note_on_c, 1, 62, 0
3, 150624, Note_on_c, 1, 65, 30
3, 150688, Note_on_c, 1, 58, 0
3, 150720, Note_on_c, 1, 65, 0
3, 150720, Note_on_c, 1, 58, 30
3, 150720, Note_on_c, 1, 62, 30
3, 150816, Note_on_c, 1, 62, 0
3, 150816, Note_on_c, 1, 65, 30
3, 150880, Note_on_c, 1, 58, 0
3, 150912, Note_on_c, 1, 65, 0
3, 150912, Note_on_c, 1, 58, 30
3, 150912, Note_on_c, 1, 62, 30
3, 151008, Note_on_c, 1, 62, 0
3, 151008, Note_on_c, 1, 65, 30
3, 151072, Note_on_c, 1, 58, 0
3, 151104, Note_on_c, 1, 65, 0
3, 151104, Note_on_c, 1, 58, 30
3, 151104, Note_on_c, 1, 62, 30
3, 151200, Note_on_c, 1, 62, 0
3, 151200, Note_on_c, 1, 65, 30
3, 151264, Note_on_c, 1, 58, 0
3, 151294, Note_on_c, 1, 65, 0
3, 151296, Note_on_c, 1, 60, 30
3, 151296, Note_on_c, 1, 63, 30
3, 151392, Note_on_c, 1, 63, 0
3, 151392, Note_on_c, 1, 65, 32
3, 151456, Note_on_c, 1, 60, 0
3, 151488, Note_on_c, 1, 65, 0
3, 151488, Note_on_c, 1, 60, 34
3, 151488, Note_on_c, 1, 63, 34
3, 151584, Note_on_c, 1, 63, 0
3, 151584, Note_on_c, 1, 65, 36
3, 151648, Note_on_c, 1, 60, 0
3, 151680, Note_on_c, 1, 65, 0
3, 151680, Note_on_c, 1, 60, 38
3, 151680, Note_on_c, 1, 63, 38
3, 151776, Note_on_c, 1, 63, 0
3, 151776, Note_on_c, 1, 65, 40
3, 151840, Note_on_c, 1, 60, 0
3, 151872, Note_on_c, 1, 65, 0
3, 151872, Note_on_c, 1, 60, 42
3, 151872, Note_on_c, 1, 63, 42
3, 151968, Note_on_c, 1, 63, 0
3, 151968, Note_on_c, 1, 65, 44
3, 152032, Note_on_c, 1, 60, 0
3, 152064, Note_on_c, 1, 65, 0
3, 152064, Note_on_c, 1, 58, 46
3, 152064, Note_on_c, 1, 62, 46
3, 152160, Note_on_c, 1, 62, 0
3, 152160, Note_on_c, 1, 65, 48
3, 152224, Note_on_c, 1, 58, 0
3, 152256, Note_on_c, 1, 65, 0
3, 152256, Note_on_c, 1, 58, 50
3, 152256, Note_on_c, 1, 62, 50
3, 152352, Note_on_c, 1, 62, 0
3, 152352, Note_on_c, 1, 65, 53
3, 152416, Note_on_c, 1, 58, 0
3, 152448, Note_on_c, 1, 65, 0
3, 152448, Note_on_c, 1, 58, 56
3, 152448, Note_on_c, 1, 62, 56
3, 152544, Note_on_c, 1, 62, 0
3, 152544, Note_on_c, 1, 65, 59
3, 152608, Note_on_c, 1, 58, 0
3, 152640, Note_on_c, 1, 65, 0
3, 152640, Note_on_c, 1, 58, 62
3, 152640, Note_on_c, 1, 62, 62
3, 152736, Note_on_c, 1, 62, 0
3, 152736, Note_on_c, 1, 65, 65
3, 152800, Note_on_c, 1, 58, 0
3, 152830, Note_on_c, 1, 65, 0
3, 152832, Note_on_c, 1, 60, 68
3, 152832, Note_on_c, 1, 63, 68
3, 152926, Note_on_c, 1, 63, 0
3, 152928, Note_on_c, 1, 65, 71
3, 152992, Note_on_c, 1, 60, 0
3, 153022, Note_on_c, 1, 65, 0
3, 153024, Note_on_c, 1, 60, 74
3, 153024, Note_on_c, 1, 63, 74
3, 153118, Note_on_c, 1, 63, 0
3, 153120, Note_on_c, 1, 65, 77
3, 153184, Note_on_c, 1, 60, 0
3, 153214, Note_on_c, 1, 65, 0
3, 153216, Note_on_c, 1, 60, 80
3, 153216, Note_on_c, 1, 63, 80
3, 153310, Note_on_c, 1, 63, 0
3, 153312, Note_on_c, 1, 65, 83
3, 153376, Note_on_c, 1, 60, 0
3, 153406, Note_on_c, 1, 65, 0
3, 153408, Note_on_c, 1, 60, 86
3, 153408, Note_on_c, 1, 63, 86
3, 153502, Note_on_c, 1, 63, 0
3, 153504, Note_on_c, 1, 65, 89
3, 153568, Note_on_c, 1, 60, 0
3, 153598, Note_on_c, 1, 65, 0
3, 153600, Note_on_c, 1, 58, 92
3, 153600, Note_on_c, 1, 62, 92
3, 153600, Note_on_c, 1, 65, 92
3, 153760, Note_on_c, 1, 58, 0
3, 153760, Note_on_c, 1, 62, 0
3, 153760, Note_on_c, 1, 65, 0
3, 153984, Note_on_c, 1, 46, 92
3, 153984, Note_on_c, 1, 58, 92
3, 154320, Note_on_c, 1, 46, 0
3, 154320, Note_on_c, 1, 58, 0
3, 154368, Note_on_c, 1, 45, 92
3, 154368, Note_on_c, 1, 57, 92
3, 154704, Note_on_c, 1, 45, 0
3, 154704, Note_on_c, 1, 57, 0
3, 154752, Note_on_c, 1, 44, 92
3, 154752, Note_on_c, 1, 56, 92
3, 155088, Note_on_c, 1, 44, 0
3, 155088, Note_on_c, 1, 56, 0
3, 155136, Note_on_c, 1, 33, 92
3, 155136, Note_on_c, 1, 45, 92
3, 155296, Note_on_c, 1, 33, 0
3, 155296, Note_on_c, 1, 45, 0
3, 156672, Note_on_c, 1, 57, 75
3, 156720, Note_on_c, 1, 57, 0
3, 156720, Note_on_c, 1, 66, 75
3, 156768, Note_on_c, 1, 66, 0
3, 156768, Note_on_c, 1, 62, 75
3, 156816, Note_on_c, 1, 62, 0
3, 156816, Note_on_c, 1, 66, 75
3, 156864, Note_on_c, 1, 66, 0
3, 156864, Note_on_c, 1, 57, 75
3, 156912, Note_on_c, 1, 57, 0
3, 156912, Note_on_c, 1, 66, 75
3, 156960, Note_on_c, 1, 66, 0
3, 156960, Note_on_c, 1, 62, 75
3, 157008, Note_on_c, 1, 62, 0
3, 157008, Note_on_c, 1, 66, 75
3, 157056, Note_on_c, 1, 66, 0
3, 157056, Note_on_c, 1, 57, 75
3, 157104, Note_on_c, 1, 57, 0
3, 157104, Note_on_c, 1, 66, 75
3, 157152, Note_on_c, 1, 66, 0
3, 157152, Note_on_c, 1, 62, 75
3, 157200, Note_on_c, 1, 62, 0
3, 157200, Note_on_c, 1, 66, 75
3, 157248, Note_on_c, 1, 66, 0
3, 157248, Note_on_c, 1, 57, 75
3, 157296, Note_on_c, 1, 57, 0
3, 157296, Note_on_c, 1, 66, 75
3, 157344, Note_on_c, 1, 66, 0
3, 157344, Note_on_c, 1, 62, 75
3, 157392, Note_on_c, 1, 62, 0
3, 157392, Note_on_c, 1, 66, 75
3, 157440, Note_on_c, 1, 66, 0
3, 157440, Note_on_c, 1, 57, 75
3, 157488, Note_on_c, 1, 57, 0
3, 157488, Note_on_c, 1, 67, 75
3, 157536, Note_on_c, 1, 67, 0
3, 157536, Note_on_c, 1, 61, 75
3, 157584, Note_on_c, 1, 61, 0
3, 157584, Note_on_c, 1, 67, 75
3, 157632, Note_on_c, 1, 67, 0
3, 157632, Note_on_c, 1, 57, 75
3, 157680, Note_on_c, 1, 57, 0
3, 157680, Note_on_c, 1, 67, 75
3, 157728, Note_on_c, 1, 67, 0
3, 157728, Note_on_c, 1, 61, 75
3, 157776, Note_on_c, 1, 61, 0
3, 157776, Note_on_c, 1, 67, 75
3, 157824, Note_on_c, 1, 67, 0
3, 157824, Note_on_c, 1, 57, 75
3, 157872, Note_on_c, 1, 57, 0
3, 157872, Note_on_c, 1, 67, 75
3, 157920, Note_on_c, 1, 67, 0
3, 157920, Note_on_c, 1, 61, 75
3, 157968, Note_on_c, 1, 61, 0
3, 157968, Note_on_c, 1, 67, 75
3, 158016, Note_on_c, 1, 67, 0
3, 158016, Note_on_c, 1, 57, 75
3, 158064, Note_on_c, 1, 57, 0
3, 158064, Note_on_c, 1, 67, 75
3, 158112, Note_on_c, 1, 67, 0
3, 158112, Note_on_c, 1, 61, 75
3, 158160, Note_on_c, 1, 61, 0
3, 158160, Note_on_c, 1, 67, 75
3, 158206, Note_on_c, 1, 67, 0
3, 158304, Note_on_c, 1, 50, 30
3, 158400, Note_on_c, 1, 50, 0
3, 158400, Note_on_c, 1, 62, 30
3, 158496, Note_on_c, 1, 62, 0
3, 158496, Note_on_c, 1, 50, 30
3, 158592, Note_on_c, 1, 50, 0
3, 158592, Note_on_c, 1, 61, 30
3, 158688, Note_on_c, 1, 61, 0
3, 158688, Note_on_c, 1, 50, 30
3, 158784, Note_on_c, 1, 50, 0
3, 158784, Note_on_c, 1, 60, 30
3, 158880, Note_on_c, 1, 60, 0
3, 158880, Note_on_c, 1, 50, 30
3, 158976, Note_on_c, 1, 50, 0
3, 158976, Note_on_c, 1, 59, 30
3, 159072, Note_on_c, 1, 59, 0
3, 159072, Note_on_c, 1, 50, 30
3, 159168, Note_on_c, 1, 50, 0
3, 159168, Note_on_c, 1, 58, 30
3, 159264, Note_on_c, 1, 58, 0
3, 159264, Note_on_c, 1, 50, 30
3, 159360, Note_on_c, 1, 50, 0
3, 159360, Note_on_c, 1, 57, 30
3, 159456, Note_on_c, 1, 57, 0
3, 159456, Note_on_c, 1, 50, 30
3, 159552, Note_on_c, 1, 50, 0
3, 159552, Note_on_c, 1, 55, 30
3, 159648, Note_on_c, 1, 55, 0
3, 159648, Note_on_c, 1, 50, 30
3, 159744, Note_on_c, 1, 50, 0
3, 159744, Note_on_c, 1, 54, 30
3, 159840, Note_on_c, 1, 54, 0
3, 159840, Note_on_c, 1, 50, 30
3, 159936, Note_on_c, 1, 50, 0
3, 159936, Note_on_c, 1, 62, 30
3, 160032, Note_on_c, 1, 62, 0
3, 160032, Note_on_c, 1, 50, 30
3, 160128, Note_on_c, 1, 50, 0
3, 160128, Note_on_c, 1, 61, 30
3, 160224, Note_on_c, 1, 61, 0
3, 160224, Note_on_c, 1, 50, 30
3, 160320, Note_on_c, 1, 50, 0
3, 160320, Note_on_c, 1, 60, 30
3, 160416, Note_on_c, 1, 60, 0
3, 160416, Note_on_c, 1, 50, 30
3, 160512, Note_on_c, 1, 50, 0
3, 160512, Note_on_c, 1, 59, 30
3, 160608, Note_on_c, 1, 59, 0
3, 160608, Note_on_c, 1, 50, 30
3, 160704, Note_on_c, 1, 50, 0
3, 160704, Note_on_c, 1, 58, 30
3, 160800, Note_on_c, 1, 58, 0
3, 160800, Note_on_c, 1, 50, 30
3, 160896, Note_on_c, 1, 50, 0
3, 160896, Note_on_c, 1, 57, 30
3, 160992, Note_on_c, 1, 57, 0
3, 160992, Note_on_c, 1, 50, 30
3, 161088, Note_on_c, 1, 50, 0
3, 161088, Note_on_c, 1, 55, 30
3, 161184, Note_on_c, 1, 55, 0
3, 161184, Note_on_c, 1, 50, 30
3, 161280, Note_on_c, 1, 50, 0
3, 161280, Note_on_c, 1, 54, 30
3, 161376, Note_on_c, 1, 54, 0
3, 161376, Note_on_c, 1, 50, 33
3, 161472, Note_on_c, 1, 50, 0
3, 161472, Note_on_c, 1, 62, 36
3, 161568, Note_on_c, 1, 62, 0
3, 161568, Note_on_c, 1, 50, 40
3, 161664, Note_on_c, 1, 50, 0
3, 161664, Note_on_c, 1, 61, 44
3, 161760, Note_on_c, 1, 61, 0
3, 161760, Note_on_c, 1, 50, 48
3, 161856, Note_on_c, 1, 50, 0
3, 161856, Note_on_c, 1, 60, 52
3, 161952, Note_on_c, 1, 60, 0
3, 161952, Note_on_c, 1, 50, 56
3, 162046, Note_on_c, 1, 50, 0
3, 162048, Note_on_c, 1, 50, 60
3, 162048, Note_on_c, 1, 59, 60
3, 162384, Note_on_c, 1, 50, 0
3, 162384, Note_on_c, 1, 59, 0
3, 162432, Note_on_c, 1, 50, 76
3, 162432, Note_on_c, 1, 54, 76
3, 162768, Note_on_c, 1, 50, 0
3, 162768, Note_on_c, 1, 54, 0
3, 162816, Note_on_c, 1, 50, 92
3, 162816, Note_on_c, 1, 55, 92
3, 162976, Note_on_c, 1, 50, 0
3, 162976, Note_on_c, 1, 55, 0
3, 163584, Note_on_c, 1, 57, 92
3, 163584, Note_on_c, 1, 64, 92
3, 163584, Note_on_c, 1, 67, 92
3, 164304, Note_on_c, 1, 57, 0
3, 164304, Note_on_c, 1, 64, 0
3, 164304, Note_on_c, 1, 67, 0
3, 164352, Note_on_c, 1, 38, 45
3, 164448, Note_on_c, 1, 38, 0
3, 164448, Note_on_c, 1, 50, 45
3, 164544, Note_on_c, 1, 50, 0
3, 164544, Note_on_c, 1, 42, 45
3, 164640, Note_on_c, 1, 42, 0
3, 164640, Note_on_c, 1, 50, 45
3, 164736, Note_on_c, 1, 50, 0
3, 164736, Note_on_c, 1, 45, 45
3, 164832, Note_on_c, 1, 45, 0
3, 164832, Note_on_c, 1, 50, 45
3, 164928, Note_on_c, 1, 50, 0
3, 164928, Note_on_c, 1, 42, 45
3, 165024, Note_on_c, 1, 42, 0
3, 165024, Note_on_c, 1, 50, 45
3, 165120, Note_on_c, 1, 50, 0
3, 165120, Note_on_c, 1, 38, 45
3, 165216, Note_on_c, 1, 38, 0
3, 165216, Note_on_c, 1, 49, 44
3, 165312, Note_on_c, 1, 49, 0
3, 165312, Note_on_c, 1, 40, 42
3, 165408, Note_on_c, 1, 40, 0
3, 165408, Note_on_c, 1, 49, 40
3, 165504, Note_on_c, 1, 49, 0
3, 165504, Note_on_c, 1, 43, 38
3, 165600, Note_on_c, 1, 43, 0
3, 165600, Note_on_c, 1, 49, 36
3, 165696, Note_on_c, 1, 49, 0
3, 165696, Note_on_c, 1, 40, 34
3, 165792, Note_on_c, 1, 40, 0
3, 165792, Note_on_c, 1, 49, 32
3, 165888, Note_on_c, 1, 49, 0
3, 165888, Note_on_c, 1, 38, 30
3, 165984, Note_on_c, 1, 38, 0
3, 165984, Note_on_c, 1, 50, 30
3, 166080, Note_on_c, 1, 50, 0
3, 166080, Note_on_c, 1, 42, 30
3, 166176, Note_on_c, 1, 42, 0
3, 166176, Note_on_c, 1, 50, 30
3, 166272, Note_on_c, 1, 50, 0
3, 166272, Note_on_c, 1, 45, 30
3, 166368, Note_on_c, 1, 45, 0
3, 166368, Note_on_c, 1, 50, 30
3, 166464, Note_on_c, 1, 50, 0
3, 166464, Note_on_c, 1, 42, 30
3, 166560, Note_on_c, 1, 42, 0
3, 166560, Note_on_c, 1, 50, 30
3, 166656, Note_on_c, 1, 50, 0
3, 166656, Note_on_c, 1, 38, 30
3, 166752, Note_on_c, 1, 38, 0
3, 166752, Note_on_c, 1, 45, 30
3, 166848, Note_on_c, 1, 45, 0
3, 166848, Note_on_c, 1, 40, 30
3, 166944, Note_on_c, 1, 40, 0
3, 166944, Note_on_c, 1, 45, 30
3, 167040, Note_on_c, 1, 45, 0
3, 167040, Note_on_c, 1, 43, 30
3, 167136, Note_on_c, 1, 43, 0
3, 167136, Note_on_c, 1, 45, 30
3, 167232, Note_on_c, 1, 45, 0
3, 167232, Note_on_c, 1, 40, 30
3, 167328, Note_on_c, 1, 40, 0
3, 167328, Note_on_c, 1, 45, 30
3, 167424, Note_on_c, 1, 45, 0
3, 167424, Note_on_c, 1, 38, 30
3, 167520, Note_on_c, 1, 38, 0
3, 167520, Note_on_c, 1, 50, 30
3, 167616, Note_on_c, 1, 50, 0
3, 167616, Note_on_c, 1, 42, 30
3, 167712, Note_on_c, 1, 42, 0
3, 167712, Note_on_c, 1, 50, 30
3, 167808, Note_on_c, 1, 50, 0
3, 167808, Note_on_c, 1, 45, 30
3, 167904, Note_on_c, 1, 45, 0
3, 167904, Note_on_c, 1, 50, 30
3, 168000, Note_on_c, 1, 50, 0
3, 168000, Note_on_c, 1, 42, 30
3, 168096, Note_on_c, 1, 42, 0
3, 168096, Note_on_c, 1, 50, 30
3, 168192, Note_on_c, 1, 50, 0
3, 168192, Note_on_c, 1, 38, 30
3, 168288, Note_on_c, 1, 38, 0
3, 168288, Note_on_c, 1, 45, 31
3, 168384, Note_on_c, 1, 45, 0
3, 168384, Note_on_c, 1, 40, 33
3, 168480, Note_on_c, 1, 40, 0
3, 168480, Note_on_c, 1, 45, 35
3, 168576, Note_on_c, 1, 45, 0
3, 168576, Note_on_c, 1, 43, 37
3, 168672, Note_on_c, 1, 43, 0
3, 168672, Note_on_c, 1, 45, 39
3, 168768, Note_on_c, 1, 45, 0
3, 168768, Note_on_c, 1, 40, 41
3, 168864, Note_on_c, 1, 40, 0
3, 168864, Note_on_c, 1, 45, 43
3, 168958, Note_on_c, 1, 45, 0
3, 168960, Note_on_c, 1, 38, 45
3, 169056, Note_on_c, 1, 38, 0
3, 169056, Note_on_c, 1, 50, 45
3, 169152, Note_on_c, 1, 50, 0
3, 169152, Note_on_c, 1, 42, 45
3, 169248, Note_on_c, 1, 42, 0
3, 169248, Note_on_c, 1, 50, 45
3, 169344, Note_on_c, 1, 50, 0
3, 169344, Note_on_c, 1, 45, 45
3, 169440, Note_on_c, 1, 45, 0
3, 169440, Note_on_c, 1, 50, 45
3, 169536, Note_on_c, 1, 50, 0
3, 169536, Note_on_c, 1, 42, 45
3, 169632, Note_on_c, 1, 42, 0
3, 169632, Note_on_c, 1, 50, 45
3, 169728, Note_on_c, 1, 50, 0
3, 169728, Note_on_c, 1, 38, 45
3, 169824, Note_on_c, 1, 38, 0
3, 169824, Note_on_c, 1, 45, 45
3, 169920, Note_on_c, 1, 45, 0
3, 169920, Note_on_c, 1, 40, 45
3, 170016, Note_on_c, 1, 40, 0
3, 170016, Note_on_c, 1, 45, 45
3, 170112, Note_on_c, 1, 45, 0
3, 170112, Note_on_c, 1, 43, 45
3, 170208, Note_on_c, 1, 43, 0
3, 170208, Note_on_c, 1, 45, 45
3, 170304, Note_on_c, 1, 45, 0
3, 170304, Note_on_c, 1, 40, 45
3, 170400, Note_on_c, 1, 40, 0
3, 170400, Note_on_c, 1, 45, 45
3, 170496, Note_on_c, 1, 45, 0
3, 170496, Note_on_c, 1, 38, 45
3, 170592, Note_on_c, 1, 38, 0
3, 170592, Note_on_c, 1, 45, 45
3, 170688, Note_on_c, 1, 45, 0
3, 170688, Note_on_c, 1, 42, 45
3, 170784, Note_on_c, 1, 42, 0
3, 170784, Note_on_c, 1, 45, 45
3, 170880, Note_on_c, 1, 45, 0
3, 170880, Note_on_c, 1, 33, 45
3, 170976, Note_on_c, 1, 33, 0
3, 170976, Note_on_c, 1, 45, 45
3, 171072, Note_on_c, 1, 45, 0
3, 171072, Note_on_c, 1, 40, 45
3, 171168, Note_on_c, 1, 40, 0
3, 171168, Note_on_c, 1, 45, 45
3, 171264, Note_on_c, 1, 45, 0
3, 171264, Note_on_c, 1, 38, 45
3, 171360, Note_on_c, 1, 38, 0
3, 171360, Note_on_c, 1, 45, 45
3, 171456, Note_on_c, 1, 45, 0
3, 171456, Note_on_c, 1, 42, 45
3, 171552, Note_on_c, 1, 42, 0
3, 171552, Note_on_c, 1, 45, 45
3, 171648, Note_on_c, 1, 45, 0
3, 171648, Note_on_c, 1, 33, 45
3, 171744, Note_on_c, 1, 33, 0
3, 171744, Note_on_c, 1, 45, 45
3, 171840, Note_on_c, 1, 45, 0
3, 171840, Note_on_c, 1, 40, 45
3, 171936, Note_on_c, 1, 40, 0
3, 171936, Note_on_c, 1, 45, 45
3, 172032, Note_on_c, 1, 45, 0
3, 172032, Note_on_c, 1, 38, 45
3, 172192, Note_on_c, 1, 38, 0
3, 172416, Note_on_c, 1, 38, 45
3, 172416, Note_on_c, 1, 50, 45
3, 172576, Note_on_c, 1, 38, 0
3, 172576, Note_on_c, 1, 50, 0
3, 172800, Note_on_c, 1, 38, 45
3, 172800, Note_on_c, 1, 50, 45
3, 173136, Note_on_c, 1, 38, 0
3, 173136, Note_on_c, 1, 50, 0
3, 173568, Note_on_c, 1, 40, 92
3, 173568, Note_on_c, 1, 52, 92
3, 173904, Note_on_c, 1, 40, 0
3, 173904, Note_on_c, 1, 52, 0
3, 173952, Note_on_c, 1, 50, 92
3, 174000, Note_on_c, 1, 50, 0
3, 174000, Note_on_c, 1, 49, 92
3, 174142, Note_on_c, 1, 49, 0
3, 174144, Note_on_c, 1, 47, 92
3, 174192, Note_on_c, 1, 47, 0
3, 174192, Note_on_c, 1, 45, 92
3, 174334, Note_on_c, 1, 45, 0
3, 174336, Note_on_c, 1, 50, 92
3, 174624, Note_on_c, 1, 50, 0
3, 174624, Note_on_c, 1, 47, 92
3, 174720, Note_on_c, 1, 47, 0
3, 174720, Note_on_c, 1, 44, 92
3, 174880, Note_on_c, 1, 44, 0
3, 175104, Note_on_c, 1, 57, 45
3, 175104, Note_on_c, 1, 61, 45
3, 175632, Note_on_c, 1, 57, 0
3, 175632, Note_on_c, 1, 61, 0
3, 175872, Note_on_c, 1, 58, 45
3, 175872, Note_on_c, 1, 61, 45
3, 175872, Note_on_c, 1, 66, 45
3, 176400, Note_on_c, 1, 58, 0
3, 176400, Note_on_c, 1, 61, 0
3, 176400, Note_on_c, 1, 66, 0
3, 176640, Note_on_c, 1, 42, 92
3, 176640, Note_on_c, 1, 54, 92
3, 176976, Note_on_c, 1, 42, 0
3, 176976, Note_on_c, 1, 54, 0
3, 177024, Note_on_c, 1, 52, 92
3, 177072, Note_on_c, 1, 52, 0
3, 177072, Note_on_c, 1, 50, 92
3, 177214, Note_on_c, 1, 50, 0
3, 177216, Note_on_c, 1, 49, 92
3, 177264, Note_on_c, 1, 49, 0
3, 177264, Note_on_c, 1, 47, 92
3, 177406, Note_on_c, 1, 47, 0
3, 177408, Note_on_c, 1, 52, 92
3, 177664, Note_on_c, 1, 52, 0
3, 177696, Note_on_c, 1, 49, 92
3, 177790, Note_on_c, 1, 49, 0
3, 177792, Note_on_c, 1, 46, 92
3, 177952, Note_on_c, 1, 46, 0
3, 178176, Note_on_c, 1, 59, 60
3, 178176, Note_on_c, 1, 62, 60
3, 178704, Note_on_c, 1, 59, 0
3, 178704, Note_on_c, 1, 62, 0
3, 178944, Note_on_c, 1, 57, 60
3, 178944, Note_on_c, 1, 60, 60
3, 178944, Note_on_c, 1, 62, 60
3, 179472, Note_on_c, 1, 57, 0
3, 179472, Note_on_c, 1, 60, 0
3, 179472, Note_on_c, 1, 62, 0
3, 182016, Note_on_c, 1, 55, 30
3, 182016, Note_on_c, 1, 59, 30
3, 182112, Note_on_c, 1, 59, 0
3, 182112, Note_on_c, 1, 62, 30
3, 182176, Note_on_c, 1, 55, 0
3, 182208, Note_on_c, 1, 62, 0
3, 182208, Note_on_c, 1, 55, 30
3, 182208, Note_on_c, 1, 59, 30
3, 182304, Note_on_c, 1, 59, 0
3, 182304, Note_on_c, 1, 62, 30
3, 182368, Note_on_c, 1, 55, 0
3, 182400, Note_on_c, 1, 62, 0
3, 182400, Note_on_c, 1, 55, 30
3, 182400, Note_on_c, 1, 59, 30
3, 182496, Note_on_c, 1, 59, 0
3, 182496, Note_on_c, 1, 62, 30
3, 182560, Note_on_c, 1, 55, 0
3, 182592, Note_on_c, 1, 62, 0
3, 182592, Note_on_c, 1, 55, 30
3, 182592, Note_on_c, 1, 59, 30
3, 182688, Note_on_c, 1, 59, 0
3, 182688, Note_on_c, 1, 62, 30
3, 182752, Note_on_c, 1, 55, 0
3, 182784, Note_on_c, 1, 62, 0
3, 182784, Note_on_c, 1, 57, 30
3, 182784, Note_on_c, 1, 60, 30
3, 182880, Note_on_c, 1, 60, 0
3, 182880, Note_on_c, 1, 62, 30
3, 182944, Note_on_c, 1, 57, 0
3, 182976, Note_on_c, 1, 62, 0
3, 182976, Note_on_c, 1, 57, 30
3, 182976, Note_on_c, 1, 60, 30
3, 183072, Note_on_c, 1, 60, 0
3, 183072, Note_on_c, 1, 62, 30
3, 183136, Note_on_c, 1, 57, 0
3, 183168, Note_on_c, 1, 62, 0
3, 183168, Note_on_c, 1, 57, 30
3, 183168, Note_on_c, 1, 60, 30
3, 183264, Note_on_c, 1, 60, 0
3, 183264, Note_on_c, 1, 62, 30
3, 183328, Note_on_c, 1, 57, 0
3, 183360, Note_on_c, 1, 62, 0
3, 183360, Note_on_c, 1, 57, 30
3, 183360, Note_on_c, 1, 60, 30
3, 183456, Note_on_c, 1, 60, 0
3, 183456, Note_on_c, 1, 62, 30
3, 183520, Note_on_c, 1, 57, 0
3, 183552, Note_on_c, 1, 62, 0
3, 183552, Note_on_c, 1, 57, 30
3, 183552, Note_on_c, 1, 60, 30
3, 183648, Note_on_c, 1, 60, 0
3, 183648, Note_on_c, 1, 62, 30
3, 183712, Note_on_c, 1, 57, 0
3, 183744, Note_on_c, 1, 62, 0
3, 183744, Note_on_c, 1, 57, 30
3, 183744, Note_on_c, 1, 60, 30
3, 183840, Note_on_c, 1, 60, 0
3, 183840, Note_on_c, 1, 62, 30
3, 183904, Note_on_c, 1, 57, 0
3, 183936, Note_on_c, 1, 62, 0
3, 183936, Note_on_c, 1, 57, 30
3, 183936, Note_on_c, 1, 60, 30
3, 184032, Note_on_c, 1, 60, 0
3, 184032, Note_on_c, 1, 62, 30
3, 184096, Note_on_c, 1, 57, 0
3, 184128, Note_on_c, 1, 62, 0
3, 184128, Note_on_c, 1, 57, 30
3, 184128, Note_on_c, 1, 60, 30
3, 184224, Note_on_c, 1, 60, 0
3, 184224, Note_on_c, 1, 62, 30
3, 184288, Note_on_c, 1, 57, 0
3, 184320, Note_on_c, 1, 62, 0
3, 184320, Note_on_c, 1, 55, 30
3, 184320, Note_on_c, 1, 59, 30
3, 184416, Note_on_c, 1, 59, 0
3, 184416, Note_on_c, 1, 62, 30
3, 184480, Note_on_c, 1, 55, 0
3, 184512, Note_on_c, 1, 62, 0
3, 184512, Note_on_c, 1, 55, 30
3, 184512, Note_on_c, 1, 59, 30
3, 184608, Note_on_c, 1, 59, 0
3, 184608, Note_on_c, 1, 62, 30
3, 184672, Note_on_c, 1, 55, 0
3, 184704, Note_on_c, 1, 62, 0
3, 184704, Note_on_c, 1, 55, 30
3, 184704, Note_on_c, 1, 59, 30
3, 184800, Note_on_c, 1, 59, 0
3, 184800, Note_on_c, 1, 62, 30
3, 184864, Note_on_c, 1, 55, 0
3, 184896, Note_on_c, 1, 62, 0
3, 184896, Note_on_c, 1, 55, 30
3, 184896, Note_on_c, 1, 59, 30
3, 184992, Note_on_c, 1, 59, 0
3, 184992, Note_on_c, 1, 62, 30
3, 185056, Note_on_c, 1, 55, 0
3, 185088, Note_on_c, 1, 62, 0
3, 185088, Note_on_c, 1, 55, 30
3, 185088, Note_on_c, 1, 60, 30
3, 185184, Note_on_c, 1, 60, 0
3, 185184, Note_on_c, 1, 64, 30
3, 185248, Note_on_c, 1, 55, 0
3, 185280, Note_on_c, 1, 64, 0
3, 185280, Note_on_c, 1, 55, 30
3, 185280, Note_on_c, 1, 60, 30
3, 185376, Note_on_c, 1, 60, 0
3, 185376, Note_on_c, 1, 62, 30
3, 185440, Note_on_c, 1, 55, 0
3, 185472, Note_on_c, 1, 62, 0
3, 185472, Note_on_c, 1, 55, 30
3, 185472, Note_on_c, 1, 59, 30
3, 185568, Note_on_c, 1, 59, 0
3, 185568, Note_on_c, 1, 62, 30
3, 185632, Note_on_c, 1, 55, 0
3, 185664, Note_on_c, 1, 62, 0
3, 185664, Note_on_c, 1, 55, 30
3, 185664, Note_on_c, 1, 59, 30
3, 185760, Note_on_c, 1, 59, 0
3, 185760, Note_on_c, 1, 62, 30
3, 185824, Note_on_c, 1, 55, 0
3, 185856, Note_on_c, 1, 62, 0
3, 185856, Note_on_c, 1, 55, 30
3, 185856, Note_on_c, 1, 60, 30
3, 185952, Note_on_c, 1, 60, 0
3, 185952, Note_on_c, 1, 64, 30
3, 186016, Note_on_c, 1, 55, 0
3, 186048, Note_on_c, 1, 64, 0
3, 186048, Note_on_c, 1, 55, 30
3, 186048, Note_on_c, 1, 60, 30
3, 186144, Note_on_c, 1, 60, 0
3, 186144, Note_on_c, 1, 62, 30
3, 186208, Note_on_c, 1, 55, 0
3, 186240, Note_on_c, 1, 62, 0
3, 186240, Note_on_c, 1, 55, 30
3, 186240, Note_on_c, 1, 59, 30
3, 186400, Note_on_c, 1, 55, 0
3, 186400, Note_on_c, 1, 59, 0
3, 186816, Note_on_c, 1, 48, 45
3, 186816, Note_on_c, 1, 57, 45
3, 187008, Note_on_c, 1, 48, 0
3, 187008, Note_on_c, 1, 57, 0
3, 187008, Note_on_c, 1, 50, 45
3, 187008, Note_on_c, 1, 59, 45
3, 187200, Note_on_c, 1, 59, 0
3, 187200, Note_on_c, 1, 60, 45
3, 187344, Note_on_c, 1, 50, 0
3, 187392, Note_on_c, 1, 60, 0
3, 187392, Note_on_c, 1, 55, 45
3, 187392, Note_on_c, 1, 59, 45
3, 187552, Note_on_c, 1, 55, 0
3, 187552, Note_on_c, 1, 59, 0
3, 187584, Note_on_c, 1, 43, 45
3, 187744, Note_on_c, 1, 43, 0
3, 187968, Note_on_c, 1, 43, 45
3, 188128, Note_on_c, 1, 43, 0
3, 188160, Note_on_c, 1, 42, 45
3, 188352, Note_on_c, 1, 42, 0
3, 188352, Note_on_c, 1, 43, 45
3, 188544, Note_on_c, 1, 43, 0
3, 188544, Note_on_c, 1, 45, 45
3, 188736, Note_on_c, 1, 45, 0
3, 188736, Note_on_c, 1, 42, 45
3, 188928, Note_on_c, 1, 42, 0
3, 188928, Note_on_c, 1, 43, 45
3, 189088, Note_on_c, 1, 43, 0
3, 189120, Note_on_c, 1, 43, 45
3, 189280, Note_on_c, 1, 43, 0
3, 189504, Note_on_c, 1, 45, 45
3, 189664, Note_on_c, 1, 45, 0
3, 189696, Note_on_c, 1, 44, 45
3, 189888, Note_on_c, 1, 44, 0
3, 189888, Note_on_c, 1, 45, 45
3, 190080, Note_on_c, 1, 45, 0
3, 190080, Note_on_c, 1, 47, 45
3, 190272, Note_on_c, 1, 47, 0
3, 190272, Note_on_c, 1, 44, 45
3, 190464, Note_on_c, 1, 44, 0
3, 190464, Note_on_c, 1, 45, 45
3, 190624, Note_on_c, 1, 45, 0
3, 190656, Note_on_c, 1, 45, 45
3, 190816, Note_on_c, 1, 45, 0
3, 191040, Note_on_c, 1, 47, 45
3, 191200, Note_on_c, 1, 47, 0
3, 191232, Note_on_c, 1, 46, 45
3, 191424, Note_on_c, 1, 46, 0
3, 191424, Note_on_c, 1, 47, 45
3, 191616, Note_on_c, 1, 47, 0
3, 191616, Note_on_c, 1, 49, 45
3, 191808, Note_on_c, 1, 49, 0
3, 191808, Note_on_c, 1, 46, 45
3, 192000, Note_on_c, 1, 46, 0
3, 192000, Note_on_c, 1, 47, 45
3, 192160, Note_on_c, 1, 47, 0
3, 192192, Note_on_c, 1, 47, 45
3, 192352, Note_on_c, 1, 47, 0
3, 192576, Note_on_c, 1, 59, 75
3, 192576, Note_on_c, 1, 62, 75
3, 192736, Note_on_c, 1, 59, 0
3, 192736, Note_on_c, 1, 62, 0
3, 192960, Note_on_c, 1, 57, 77
3, 192960, Note_on_c, 1, 61, 77
3, 193120, Note_on_c, 1, 57, 0
3, 193120, Note_on_c, 1, 61, 0
3, 193344, Note_on_c, 1, 55, 83
3, 193344, Note_on_c, 1, 59, 83
3, 193504, Note_on_c, 1, 55, 0
3, 193504, Note_on_c, 1, 59, 0
3, 193728, Note_on_c, 1, 54, 89
3, 193728, Note_on_c, 1, 57, 89
3, 193888, Note_on_c, 1, 54, 0
3, 193888, Note_on_c, 1, 57, 0
3, 193920, Note_on_c, 1, 59, 92
3, 194016, Note_on_c, 1, 59, 0
3, 194016, Note_on_c, 1, 62, 92
3, 194112, Note_on_c, 1, 62, 0
3, 194112, Note_on_c, 1, 67, 92
3, 194208, Note_on_c, 1, 67, 0
3, 194208, Note_on_c, 1, 62, 92
3, 194304, Note_on_c, 1, 62, 0
3, 194304, Note_on_c, 1, 57, 92
3, 194400, Note_on_c, 1, 57, 0
3, 194400, Note_on_c, 1, 61, 92
3, 194496, Note_on_c, 1, 61, 0
3, 194496, Note_on_c, 1, 66, 92
3, 194592, Note_on_c, 1, 66, 0
3, 194592, Note_on_c, 1, 61, 92
3, 194688, Note_on_c, 1, 61, 0
3, 194688, Note_on_c, 1, 55, 92
3, 194784, Note_on_c, 1, 55, 0
3, 194784, Note_on_c, 1, 59, 92
3, 194880, Note_on_c, 1, 59, 0
3, 194880, Note_on_c, 1, 64, 92
3, 194976, Note_on_c, 1, 64, 0
3, 194976, Note_on_c, 1, 59, 92
3, 195070, Note_on_c, 1, 59, 0
3, 195072, Note_on_c, 1, 54, 92
3, 195072, Note_on_c, 1, 57, 92
3, 195648, Note_on_c, 1, 57, 0
3, 195648, Note_on_c, 1, 62, 92
3, 195792, Note_on_c, 1, 54, 0
3, 195808, Note_on_c, 1, 62, 0
3, 195840, Note_on_c, 1, 55, 92
3, 195840, Note_on_c, 1, 62, 92
3, 196128, Note_on_c, 1, 55, 0
3, 196128, Note_on_c, 1, 62, 0
3, 196128, Note_on_c, 1, 57, 92
3, 196224, Note_on_c, 1, 57, 0
3, 196224, Note_on_c, 1, 59, 92
3, 196512, Note_on_c, 1, 59, 0
3, 196512, Note_on_c, 1, 56, 92
3, 196608, Note_on_c, 1, 56, 0
3, 196608, Note_on_c, 1, 57, 92
3, 196768, Note_on_c, 1, 57, 0
3, 196800, Note_on_c, 1, 45, 92
3, 196960, Note_on_c, 1, 45, 0
3, 197568, Note_on_c, 1, 57, 92
3, 197568, Note_on_c, 1, 61, 92
3, 197568, Note_on_c, 1, 64, 92
3, 197568, Note_on_c, 1, 67, 92
3, 197728, Note_on_c, 1, 57, 0
3, 197728, Note_on_c, 1, 61, 0
3, 197728, Note_on_c, 1, 64, 0
3, 197728, Note_on_c, 1, 67, 0
3, 198240, Note_on_c, 1, 58, 127
3, 198240, Note_on_c, 1, 64, 127
3, 198240, Note_on_c, 1, 67, 127
3, 198334, Note_on_c, 1, 58, 0
3, 198334, Note_on_c, 1, 64, 0
3, 198334, Note_on_c, 1, 67, 0
3, 198336, Note_on_c, 1, 57, 92
3, 198336, Note_on_c, 1, 64, 92
3, 198336, Note_on_c, 1, 67, 92
3, 198496, Note_on_c, 1, 57, 0
3, 198496, Note_on_c, 1, 64, 0
3, 198496, Note_on_c, 1, 67, 0
3, 198624, Note_on_c, 1, 58, 127
3, 198624, Note_on_c, 1, 64, 127
3, 198624, Note_on_c, 1, 67, 127
3, 198720, Note_on_c, 1, 58, 0
3, 198720, Note_on_c, 1, 64, 0
3, 198720, Note_on_c, 1, 67, 0
3, 198720, Note_on_c, 1, 57, 92
3, 198720, Note_on_c, 1, 64, 92
3, 198720, Note_on_c, 1, 67, 92
3, 198880, Note_on_c, 1, 57, 0
3, 198880, Note_on_c, 1, 64, 0
3, 198880, Note_on_c, 1, 67, 0
3, 199680, Note_on_c, 1, 57, 92
3, 199680, Note_on_c, 1, 61, 92
3, 199680, Note_on_c, 1, 64, 92
3, 199680, Note_on_c, 1, 67, 92
3, 200400, Note_on_c, 1, 57, 0
3, 200400, Note_on_c, 1, 61, 0
3, 200400, Note_on_c, 1, 64, 0
3, 200400, Note_on_c, 1, 67, 0
3, 200448, Note_on_c, 1, 62, 30
3, 200448, Note_on_c, 1, 66, 30
3, 200542, Note_on_c, 1, 66, 0
3, 200544, Note_on_c, 1, 69, 30
3, 200608, Note_on_c, 1, 62, 0
3, 200638, Note_on_c, 1, 69, 0
3, 200640, Note_on_c, 1, 62, 30
3, 200640, Note_on_c, 1, 66, 30
3, 200734, Note_on_c, 1, 66, 0
3, 200736, Note_on_c, 1, 69, 30
3, 200800, Note_on_c, 1, 62, 0
3, 200830, Note_on_c, 1, 69, 0
3, 200832, Note_on_c, 1, 62, 30
3, 200832, Note_on_c, 1, 66, 30
3, 200926, Note_on_c, 1, 66, 0
3, 200928, Note_on_c, 1, 69, 30
3, 200992, Note_on_c, 1, 62, 0
3, 201022, Note_on_c, 1, 69, 0
3, 201024, Note_on_c, 1, 62, 30
3, 201024, Note_on_c, 1, 66, 30
3, 201118, Note_on_c, 1, 66, 0
3, 201120, Note_on_c, 1, 69, 30
3, 201184, Note_on_c, 1, 62, 0
3, 201214, Note_on_c, 1, 69, 0
3, 201216, Note_on_c, 1, 64, 30
3, 201216, Note_on_c, 1, 67, 30
3, 201310, Note_on_c, 1, 67, 0
3, 201312, Note_on_c, 1, 69, 30
3, 201376, Note_on_c, 1, 64, 0
3, 201406, Note_on_c, 1, 69, 0
3, 201408, Note_on_c, 1, 64, 30
3, 201408, Note_on_c, 1, 67, 30
3, 201502, Note_on_c, 1, 67, 0
3, 201504, Note_on_c, 1, 69, 30
3, 201568, Note_on_c, 1, 64, 0
3, 201598, Note_on_c, 1, 69, 0
3, 201600, Note_on_c, 1, 64, 30
3, 201600, Note_on_c, 1, 67, 30
3, 201694, Note_on_c, 1, 67, 0
3, 201696, Note_on_c, 1, 69, 30
3, 201760, Note_on_c, 1, 64, 0
3, 201790, Note_on_c, 1, 69, 0
3, 201792, Note_on_c, 1, 64, 30
3, 201792, Note_on_c, 1, 67, 30
3, 201886, Note_on_c, 1, 67, 0
3, 201888, Note_on_c, 1, 69, 30
3, 201952, Note_on_c, 1, 64, 0
3, 201982, Note_on_c, 1, 69, 0
3, 201984, Note_on_c, 1, 64, 30
3, 201984, Note_on_c, 1, 67, 30
3, 202078, Note_on_c, 1, 67, 0
3, 202080, Note_on_c, 1, 69, 30
3, 202144, Note_on_c, 1, 64, 0
3, 202174, Note_on_c, 1, 69, 0
3, 202176, Note_on_c, 1, 64, 30
3, 202176, Note_on_c, 1, 67, 30
3, 202270, Note_on_c, 1, 67, 0
3, 202272, Note_on_c, 1, 69, 30
3, 202336, Note_on_c, 1, 64, 0
3, 202366, Note_on_c, 1, 69, 0
3, 202368, Note_on_c, 1, 64, 30
3, 202368, Note_on_c, 1, 67, 30
3, 202462, Note_on_c, 1, 67, 0
3, 202464, Note_on_c, 1, 69, 30
3, 202528, Note_on_c, 1, 64, 0
3, 202558, Note_on_c, 1, 69, 0
3, 202560, Note_on_c, 1, 64, 30
3, 202560, Note_on_c, 1, 67, 30
3, 202654, Note_on_c, 1, 67, 0
3, 202656, Note_on_c, 1, 69, 30
3, 202720, Note_on_c, 1, 64, 0
3, 202750, Note_on_c, 1, 69, 0
3, 202752, Note_on_c, 1, 62, 30
3, 202752, Note_on_c, 1, 66, 30
3, 202846, Note_on_c, 1, 66, 0
3, 202848, Note_on_c, 1, 69, 30
3, 202912, Note_on_c, 1, 62, 0
3, 202942, Note_on_c, 1, 69, 0
3, 202944, Note_on_c, 1, 62, 30
3, 202944, Note_on_c, 1, 66, 30
3, 203038, Note_on_c, 1, 66, 0
3, 203040, Note_on_c, 1, 69, 30
3, 203104, Note_on_c, 1, 62, 0
3, 203134, Note_on_c, 1, 69, 0
3, 203136, Note_on_c, 1, 62, 30
3, 203136, Note_on_c, 1, 66, 30
3, 203230, Note_on_c, 1, 66, 0
3, 203232, Note_on_c, 1, 69, 30
3, 203296, Note_on_c, 1, 62, 0
3, 203326, Note_on_c, 1, 69, 0
3, 203328, Note_on_c, 1, 62, 30
3, 203328, Note_on_c, 1, 66, 30
3, 203422, Note_on_c, 1, 66, 0
3, 203424, Note_on_c, 1, 69, 30
3, 203488, Note_on_c, 1, 62, 0
3, 203518, Note_on_c, 1, 69, 0
3, 203520, Note_on_c, 1, 62, 30
3, 203520, Note_on_c, 1, 67, 30
3, 203614, Note_on_c, 1, 67, 0
3, 203616, Note_on_c, 1, 71, 30
3, 203680, Note_on_c, 1, 62, 0
3, 203710, Note_on_c, 1, 71, 0
3, 203712, Note_on_c, 1, 62, 30
3, 203712, Note_on_c, 1, 67, 30
3, 203806, Note_on_c, 1, 67, 0
3, 203808, Note_on_c, 1, 69, 30
3, 203872, Note_on_c, 1, 62, 0
3, 203902, Note_on_c, 1, 69, 0
3, 203904, Note_on_c, 1, 62, 30
3, 203904, Note_on_c, 1, 66, 30
3, 203998, Note_on_c, 1, 66, 0
3, 204000, Note_on_c, 1, 69, 30
3, 204064, Note_on_c, 1, 62, 0
3, 204094, Note_on_c, 1, 69, 0
3, 204096, Note_on_c, 1, 62, 30
3, 204096, Note_on_c, 1, 66, 30
3, 204190, Note_on_c, 1, 66, 0
3, 204192, Note_on_c, 1, 69, 30
3, 204256, Note_on_c, 1, 62, 0
3, 204286, Note_on_c, 1, 69, 0
3, 204288, Note_on_c, 1, 62, 30
3, 204288, Note_on_c, 1, 67, 30
3, 204382, Note_on_c, 1, 67, 0
3, 204384, Note_on_c, 1, 71, 30
3, 204448, Note_on_c, 1, 62, 0
3, 204478, Note_on_c, 1, 71, 0
3, 204480, Note_on_c, 1, 62, 30
3, 204480, Note_on_c, 1, 67, 30
3, 204574, Note_on_c, 1, 67, 0
3, 204576, Note_on_c, 1, 69, 30
3, 204640, Note_on_c, 1, 62, 0
3, 204670, Note_on_c, 1, 69, 0
3, 204672, Note_on_c, 1, 62, 30
3, 204672, Note_on_c, 1, 66, 30
3, 204766, Note_on_c, 1, 66, 0
3, 204768, Note_on_c, 1, 69, 30
3, 204832, Note_on_c, 1, 62, 0
3, 204862, Note_on_c, 1, 69, 0
3, 204864, Note_on_c, 1, 62, 30
3, 204864, Note_on_c, 1, 66, 30
3, 204958, Note_on_c, 1, 66, 0
3, 204960, Note_on_c, 1, 69, 30
3, 205024, Note_on_c, 1, 62, 0
3, 205054, Note_on_c, 1, 69, 0
3, 205248, Note_on_c, 1, 61, 30
3, 205248, Note_on_c, 1, 64, 30
3, 205248, Note_on_c, 1, 69, 30
3, 205408, Note_on_c, 1, 61, 0
3, 205408, Note_on_c, 1, 64, 0
3, 205408, Note_on_c, 1, 69, 0
3, 205632, Note_on_c, 1, 62, 30
3, 205632, Note_on_c, 1, 66, 30
3, 205632, Note_on_c, 1, 69, 30
3, 205792, Note_on_c, 1, 62, 0
3, 205792, Note_on_c, 1, 66, 0
3, 205792, Note_on_c, 1, 69, 0
3, 205824, Note_on_c, 1, 57, 30
3, 205824, Note_on_c, 1, 61, 30
3, 205984, Note_on_c, 1, 57, 0
3, 205984, Note_on_c, 1, 61, 0
3, 206592, Note_on_c, 1, 62, 30
3, 206592, Note_on_c, 1, 65, 30
3, 206686, Note_on_c, 1, 65, 0
3, 206688, Note_on_c, 1, 69, 30
3, 206752, Note_on_c, 1, 62, 0
3, 206782, Note_on_c, 1, 69, 0
3, 206784, Note_on_c, 1, 62, 30
3, 206784, Note_on_c, 1, 65, 30
3, 206878, Note_on_c, 1, 65, 0
3, 206880, Note_on_c, 1, 69, 30
3, 206944, Note_on_c, 1, 62, 0
3, 206974, Note_on_c, 1, 69, 0
3, 206976, Note_on_c, 1, 62, 30
3, 206976, Note_on_c, 1, 65, 30
3, 207070, Note_on_c, 1, 65, 0
3, 207072, Note_on_c, 1, 69, 30
3, 207136, Note_on_c, 1, 62, 0
3, 207166, Note_on_c, 1, 69, 0
3, 207168, Note_on_c, 1, 62, 30
3, 207168, Note_on_c, 1, 65, 30
3, 207262, Note_on_c, 1, 65, 0
3, 207264, Note_on_c, 1, 69, 30
3, 207328, Note_on_c, 1, 62, 0
3, 207358, Note_on_c, 1, 69, 0
3, 207360, Note_on_c, 1, 64, 30
3, 207360, Note_on_c, 1, 67, 30
3, 207454, Note_on_c, 1, 67, 0
3, 207456, Note_on_c, 1, 69, 30
3, 207520, Note_on_c, 1, 64, 0
3, 207550, Note_on_c, 1, 69, 0
3, 207552, Note_on_c, 1, 64, 30
3, 207552, Note_on_c, 1, 67, 30
3, 207646, Note_on_c, 1, 67, 0
3, 207648, Note_on_c, 1, 69, 30
3, 207712, Note_on_c, 1, 64, 0
3, 207742, Note_on_c, 1, 69, 0
3, 207744, Note_on_c, 1, 64, 30
3, 207744, Note_on_c, 1, 67, 30
3, 207838, Note_on_c, 1, 67, 0
3, 207840, Note_on_c, 1, 69, 30
3, 207904, Note_on_c, 1, 64, 0
3, 207934, Note_on_c, 1, 69, 0
3, 207936, Note_on_c, 1, 64, 30
3, 207936, Note_on_c, 1, 67, 30
3, 208030, Note_on_c, 1, 67, 0
3, 208032, Note_on_c, 1, 69, 30
3, 208096, Note_on_c, 1, 64, 0
3, 208126, Note_on_c, 1, 69, 0
3, 208128, Note_on_c, 1, 64, 30
3, 208128, Note_on_c, 1, 67, 30
3, 208222, Note_on_c, 1, 67, 0
3, 208224, Note_on_c, 1, 69, 30
3, 208288, Note_on_c, 1, 64, 0
3, 208318, Note_on_c, 1, 69, 0
3, 208320, Note_on_c, 1, 64, 30
3, 208320, Note_on_c, 1, 67, 30
3, 208414, Note_on_c, 1, 67, 0
3, 208416, Note_on_c, 1, 69, 30
3, 208480, Note_on_c, 1, 64, 0
3, 208510, Note_on_c, 1, 69, 0
3, 208512, Note_on_c, 1, 64, 30
3, 208512, Note_on_c, 1, 67, 30
3, 208606, Note_on_c, 1, 67, 0
3, 208608, Note_on_c, 1, 69, 30
3, 208672, Note_on_c, 1, 64, 0
3, 208702, Note_on_c, 1, 69, 0
3, 208704, Note_on_c, 1, 64, 30
3, 208704, Note_on_c, 1, 67, 30
3, 208798, Note_on_c, 1, 67, 0
3, 208800, Note_on_c, 1, 69, 30
3, 208864, Note_on_c, 1, 64, 0
3, 208894, Note_on_c, 1, 69, 0
3, 208896, Note_on_c, 1, 62, 30
3, 208896, Note_on_c, 1, 65, 30
3, 208990, Note_on_c, 1, 65, 0
3, 208992, Note_on_c, 1, 69, 35
3, 209056, Note_on_c, 1, 62, 0
3, 209086, Note_on_c, 1, 69, 0
3, 209088, Note_on_c, 1, 62, 40
3, 209088, Note_on_c, 1, 65, 40
3, 209182, Note_on_c, 1, 65, 0
3, 209184, Note_on_c, 1, 69, 45
3, 209248, Note_on_c, 1, 62, 0
3, 209278, Note_on_c, 1, 69, 0
3, 209280, Note_on_c, 1, 62, 51
3, 209280, Note_on_c, 1, 65, 51
3, 209440, Note_on_c, 1, 62, 0
3, 209440, Note_on_c, 1, 65, 0
3, 210048, Note_on_c, 1, 61, 75
3, 210048, Note_on_c, 1, 70, 105
3, 210304, Note_on_c, 1, 70, 0
3, 210336, Note_on_c, 1, 67, 75
3, 210384, Note_on_c, 1, 61, 0
3, 210430, Note_on_c, 1, 67, 0
3, 210432, Note_on_c, 1, 60, 75
3, 210432, Note_on_c, 1, 64, 75
3, 210592, Note_on_c, 1, 60, 0
3, 210592, Note_on_c, 1, 64, 0
3, 210816, Note_on_c, 1, 61, 75
3, 210816, Note_on_c, 1, 70, 105
3, 211072, Note_on_c, 1, 70, 0
3, 211104, Note_on_c, 1, 67, 75
3, 211152, Note_on_c, 1, 61, 0
3, 211198, Note_on_c, 1, 67, 0
3, 211200, Note_on_c, 1, 60, 75
3, 211200, Note_on_c, 1, 64, 75
3, 211360, Note_on_c, 1, 60, 0
3, 211360, Note_on_c, 1, 64, 0
3, 211392, Note_on_c, 1, 49, 92
3, 211392, Note_on_c, 1, 61, 92
3, 211584, Note_on_c, 1, 49, 0
3, 211584, Note_on_c, 1, 61, 0
3, 211584, Note_on_c, 1, 48, 92
3, 211584, Note_on_c, 1, 60, 92
3, 211776, Note_on_c, 1, 48, 0
3, 211776, Note_on_c, 1, 60, 0
3, 211776, Note_on_c, 1, 49, 92
3, 211776, Note_on_c, 1, 61, 92
3, 211968, Note_on_c, 1, 49, 0
3, 211968, Note_on_c, 1, 61, 0
3, 211968, Note_on_c, 1, 48, 92
3, 211968, Note_on_c, 1, 60, 92
3, 212304, Note_on_c, 1, 48, 0
3, 212304, Note_on_c, 1, 60, 0
3, 213504, Note_on_c, 1, 53, 30
3, 213504, Note_on_c, 1, 57, 30
3, 213600, Note_on_c, 1, 57, 0
3, 213600, Note_on_c, 1, 60, 30
3, 213664, Note_on_c, 1, 53, 0
3, 213696, Note_on_c, 1, 60, 0
3, 213696, Note_on_c, 1, 53, 30
3, 213696, Note_on_c, 1, 57, 30
3, 213792, Note_on_c, 1, 57, 0
3, 213792, Note_on_c, 1, 60, 30
3, 213856, Note_on_c, 1, 53, 0
3, 213888, Note_on_c, 1, 60, 0
3, 213888, Note_on_c, 1, 53, 30
3, 213888, Note_on_c, 1, 57, 30
3, 213984, Note_on_c, 1, 57, 0
3, 213984, Note_on_c, 1, 60, 30
3, 214048, Note_on_c, 1, 53, 0
3, 214080, Note_on_c, 1, 60, 0
3, 214080, Note_on_c, 1, 53, 30
3, 214080, Note_on_c, 1, 57, 30
3, 214176, Note_on_c, 1, 57, 0
3, 214176, Note_on_c, 1, 60, 30
3, 214240, Note_on_c, 1, 53, 0
3, 214272, Note_on_c, 1, 60, 0
3, 214272, Note_on_c, 1, 55, 30
3, 214272, Note_on_c, 1, 58, 30
3, 214368, Note_on_c, 1, 58, 0
3, 214368, Note_on_c, 1, 60, 30
3, 214432, Note_on_c, 1, 55, 0
3, 214464, Note_on_c, 1, 60, 0
3, 214464, Note_on_c, 1, 55, 30
3, 214464, Note_on_c, 1, 58, 30
3, 214560, Note_on_c, 1, 58, 0
3, 214560, Note_on_c, 1, 60, 30
3, 214624, Note_on_c, 1, 55, 0
3, 214656, Note_on_c, 1, 60, 0
3, 214656, Note_on_c, 1, 55, 30
3, 214656, Note_on_c, 1, 58, 30
3, 214752, Note_on_c, 1, 58, 0
3, 214752, Note_on_c, 1, 60, 30
3, 214816, Note_on_c, 1, 55, 0
3, 214848, Note_on_c, 1, 60, 0
3, 214848, Note_on_c, 1, 55, 30
3, 214848, Note_on_c, 1, 58, 30
3, 214944, Note_on_c, 1, 58, 0
3, 214944, Note_on_c, 1, 60, 30
3, 215008, Note_on_c, 1, 55, 0
3, 215040, Note_on_c, 1, 60, 0
3, 215040, Note_on_c, 1, 53, 75
3, 215040, Note_on_c, 1, 57, 75
3, 215136, Note_on_c, 1, 57, 0
3, 215136, Note_on_c, 1, 60, 75
3, 215200, Note_on_c, 1, 53, 0
3, 215232, Note_on_c, 1, 60, 0
3, 215232, Note_on_c, 1, 53, 75
3, 215232, Note_on_c, 1, 57, 75
3, 215328, Note_on_c, 1, 57, 0
3, 215328, Note_on_c, 1, 60, 75
3, 215392, Note_on_c, 1, 53, 0
3, 215424, Note_on_c, 1, 60, 0
3, 215424, Note_on_c, 1, 53, 75
3, 215424, Note_on_c, 1, 57, 75
3, 215520, Note_on_c, 1, 57, 0
3, 215520, Note_on_c, 1, 60, 75
3, 215584, Note_on_c, 1, 53, 0
3, 215616, Note_on_c, 1, 60, 0
3, 215616, Note_on_c, 1, 53, 75
3, 215616, Note_on_c, 1, 57, 75
3, 215712, Note_on_c, 1, 57, 0
3, 215712, Note_on_c, 1, 60, 75
3, 215776, Note_on_c, 1, 53, 0
3, 215808, Note_on_c, 1, 60, 0
3, 215808, Note_on_c, 1, 55, 75
3, 215808, Note_on_c, 1, 58, 75
3, 215904, Note_on_c, 1, 58, 0
3, 215904, Note_on_c, 1, 61, 75
3, 215968, Note_on_c, 1, 55, 0
3, 216000, Note_on_c, 1, 61, 0
3, 216000, Note_on_c, 1, 55, 75
3, 216000, Note_on_c, 1, 58, 75
3, 216096, Note_on_c, 1, 58, 0
3, 216096, Note_on_c, 1, 61, 75
3, 216160, Note_on_c, 1, 55, 0
3, 216192, Note_on_c, 1, 61, 0
3, 216192, Note_on_c, 1, 55, 75
3, 216192, Note_on_c, 1, 58, 75
3, 216288, Note_on_c, 1, 58, 0
3, 216288, Note_on_c, 1, 61, 75
3, 216352, Note_on_c, 1, 55, 0
3, 216384, Note_on_c, 1, 61, 0
3, 216384, Note_on_c, 1, 55, 75
3, 216384, Note_on_c, 1, 58, 75
3, 216480, Note_on_c, 1, 58, 0
3, 216480, Note_on_c, 1, 61, 75
3, 216544, Note_on_c, 1, 55, 0
3, 216574, Note_on_c, 1, 61, 0
3, 216576, Note_on_c, 1, 53, 75
3, 216672, Note_on_c, 1, 53, 0
3, 216672, Note_on_c, 1, 57, 75
3, 216768, Note_on_c, 1, 57, 0
3, 216768, Note_on_c, 1, 62, 75
3, 216864, Note_on_c, 1, 62, 0
3, 216864, Note_on_c, 1, 57, 75
3, 216960, Note_on_c, 1, 57, 0
3, 216960, Note_on_c, 1, 52, 75
3, 217056, Note_on_c, 1, 52, 0
3, 217056, Note_on_c, 1, 55, 75
3, 217152, Note_on_c, 1, 55, 0
3, 217152, Note_on_c, 1, 60, 75
3, 217248, Note_on_c, 1, 60, 0
3, 217248, Note_on_c, 1, 55, 75
3, 217344, Note_on_c, 1, 55, 0
3, 217344, Note_on_c, 1, 50, 75
3, 217440, Note_on_c, 1, 50, 0
3, 217440, Note_on_c, 1, 53, 75
3, 217536, Note_on_c, 1, 53, 0
3, 217536, Note_on_c, 1, 58, 75
3, 217632, Note_on_c, 1, 58, 0
3, 217632, Note_on_c, 1, 53, 75
3, 217728, Note_on_c, 1, 53, 0
3, 217728, Note_on_c, 1, 48, 75
3, 217824, Note_on_c, 1, 48, 0
3, 217824, Note_on_c, 1, 52, 75
3, 217920, Note_on_c, 1, 52, 0
3, 217920, Note_on_c, 1, 57, 75
3, 218016, Note_on_c, 1, 57, 0
3, 218016, Note_on_c, 1, 52, 75
3, 218110, Note_on_c, 1, 52, 0
3, 218304, Note_on_c, 1, 46, 75
3, 218304, Note_on_c, 1, 50, 75
3, 218464, Note_on_c, 1, 46, 0
3, 218464, Note_on_c, 1, 50, 0
3, 218688, Note_on_c, 1, 46, 75
3, 218688, Note_on_c, 1, 56, 75
3, 218848, Note_on_c, 1, 46, 0
3, 218848, Note_on_c, 1, 56, 0
3, 219072, Note_on_c, 1, 58, 75
3, 219072, Note_on_c, 1, 62, 75
3, 219232, Note_on_c, 1, 58, 0
3, 219232, Note_on_c, 1, 62, 0
3, 219456, Note_on_c, 1, 58, 75
3, 219456, Note_on_c, 1, 68, 75
3, 219616, Note_on_c, 1, 58, 0
3, 219616, Note_on_c, 1, 68, 0
3, 219648, Note_on_c, 1, 57, 75
3, 219648, Note_on_c, 1, 69, 75
3, 219808, Note_on_c, 1, 57, 0
3, 219808, Note_on_c, 1, 69, 0
3, 219840, Note_on_c, 1, 57, 75
3, 219840, Note_on_c, 1, 61, 75
3, 220032, Note_on_c, 1, 61, 0
3, 220032, Note_on_c, 1, 62, 75
3, 220224, Note_on_c, 1, 62, 0
3, 220224, Note_on_c, 1, 65, 75
3, 220368, Note_on_c, 1, 57, 0
3, 220416, Note_on_c, 1, 65, 0
3, 220416, Note_on_c, 1, 57, 75
3, 220416, Note_on_c, 1, 64, 75
3, 220576, Note_on_c, 1, 57, 0
3, 220576, Note_on_c, 1, 64, 0
3, 220608, Note_on_c, 1, 45, 75
3, 220608, Note_on_c, 1, 49, 75
3, 220800, Note_on_c, 1, 49, 0
3, 220800, Note_on_c, 1, 50, 75
3, 220992, Note_on_c, 1, 50, 0
3, 220992, Note_on_c, 1, 53, 75
3, 221136, Note_on_c, 1, 45, 0
3, 221184, Note_on_c, 1, 53, 0
3, 221184, Note_on_c, 1, 45, 75
3, 221184, Note_on_c, 1, 52, 75
3, 221344, Note_on_c, 1, 45, 0
3, 221344, Note_on_c, 1, 52, 0
3, 221376, Note_on_c, 1, 58, 75
3, 221438, Note_on_c, 1, 58, 0
3, 221440, Note_on_c, 1, 57, 72
3, 221502, Note_on_c, 1, 57, 0
3, 221504, Note_on_c, 1, 55, 69
3, 221566, Note_on_c, 1, 55, 0
3, 221568, Note_on_c, 1, 53, 66
3, 221630, Note_on_c, 1, 53, 0
3, 221632, Note_on_c, 1, 57, 63
3, 221694, Note_on_c, 1, 57, 0
3, 221696, Note_on_c, 1, 55, 60
3, 221758, Note_on_c, 1, 55, 0
3, 221760, Note_on_c, 1, 53, 57
3, 221822, Note_on_c, 1, 53, 0
3, 221824, Note_on_c, 1, 52, 53
3, 221886, Note_on_c, 1, 52, 0
3, 221888, Note_on_c, 1, 50, 49
3, 221950, Note_on_c, 1, 50, 0
3, 221952, Note_on_c, 1, 49, 45
3, 222014, Note_on_c, 1, 49, 0
3, 222016, Note_on_c, 1, 45, 46
3, 222078, Note_on_c, 1, 45, 0
3, 222080, Note_on_c, 1, 47, 48
3, 222142, Note_on_c, 1, 47, 0
3, 222144, Note_on_c, 1, 48, 50
3, 222206, Note_on_c, 1, 48, 0
3, 222208, Note_on_c, 1, 49, 52
3, 222270, Note_on_c, 1, 49, 0
3, 222272, Note_on_c, 1, 50, 54
3, 222334, Note_on_c, 1, 50, 0
3, 222336, Note_on_c, 1, 51, 56
3, 222398, Note_on_c, 1, 51, 0
3, 222400, Note_on_c, 1, 52, 58
3, 222462, Note_on_c, 1, 52, 0
3, 222464, Note_on_c, 1, 53, 60
3, 222526, Note_on_c, 1, 53, 0
3, 222528, Note_on_c, 1, 54, 62
3, 222590, Note_on_c, 1, 54, 0
3, 222592, Note_on_c, 1, 55, 64
3, 222654, Note_on_c, 1, 55, 0
3, 222656, Note_on_c, 1, 56, 66
3, 222718, Note_on_c, 1, 56, 0
3, 222720, Note_on_c, 1, 57, 68
3, 222782, Note_on_c, 1, 57, 0
3, 222784, Note_on_c, 1, 58, 70
3, 222846, Note_on_c, 1, 58, 0
3, 222848, Note_on_c, 1, 59, 72
3, 222910, Note_on_c, 1, 59, 0
3, 222912, Note_on_c, 1, 60, 74
3, 222974, Note_on_c, 1, 60, 0
3, 222976, Note_on_c, 1, 61, 76
3, 223038, Note_on_c, 1, 61, 0
3, 223040, Note_on_c, 1, 62, 78
3, 223102, Note_on_c, 1, 62, 0
3, 223104, Note_on_c, 1, 63, 80
3, 223166, Note_on_c, 1, 63, 0
3, 223168, Note_on_c, 1, 64, 82
3, 223230, Note_on_c, 1, 64, 0
3, 223232, Note_on_c, 1, 65, 84
3, 223294, Note_on_c, 1, 65, 0
3, 223296, Note_on_c, 1, 66, 86
3, 223358, Note_on_c, 1, 66, 0
3, 223360, Note_on_c, 1, 67, 88
3, 223422, Note_on_c, 1, 67, 0
3, 223424, Note_on_c, 1, 68, 90
3, 223486, Note_on_c, 1, 68, 0
3, 223488, Note_on_c, 1, 69, 92
3, 223824, Note_on_c, 1, 69, 0
3, 223872, Note_on_c, 1, 67, 92
3, 223920, Note_on_c, 1, 67, 0
3, 223920, Note_on_c, 1, 66, 92
3, 224062, Note_on_c, 1, 66, 0
3, 224064, Note_on_c, 1, 64, 92
3, 224110, Note_on_c, 1, 64, 0
3, 224112, Note_on_c, 1, 62, 92
3, 224254, Note_on_c, 1, 62, 0
3, 224256, Note_on_c, 1, 67, 92
3, 224544, Note_on_c, 1, 67, 0
3, 224544, Note_on_c, 1, 64, 92
3, 224640, Note_on_c, 1, 64, 0
3, 224640, Note_on_c, 1, 61, 92
3, 224800, Note_on_c, 1, 61, 0
3, 225024, Note_on_c, 1, 69, 92
3, 225360, Note_on_c, 1, 69, 0
3, 225408, Note_on_c, 1, 67, 92
3, 225456, Note_on_c, 1, 67, 0
3, 225456, Note_on_c, 1, 66, 92
3, 225598, Note_on_c, 1, 66, 0
3, 225600, Note_on_c, 1, 64, 92
3, 225648, Note_on_c, 1, 64, 0
3, 225648, Note_on_c, 1, 62, 92
3, 225790, Note_on_c, 1, 62, 0
3, 225792, Note_on_c, 1, 67, 92
3, 226048, Note_on_c, 1, 67, 0
3, 226080, Note_on_c, 1, 64, 92
3, 226174, Note_on_c, 1, 64, 0
3, 226176, Note_on_c, 1, 61, 92
3, 226336, Note_on_c, 1, 61, 0
3, 226560, Note_on_c, 1, 66, 92
3, 226848, Note_on_c, 1, 66, 0
3, 226848, Note_on_c, 1, 62, 92
3, 226944, Note_on_c, 1, 62, 0
3, 226944, Note_on_c, 1, 59, 92
3, 227104, Note_on_c, 1, 59, 0
3, 227328, Note_on_c, 1, 57, 92
3, 227616, Note_on_c, 1, 57, 0
3, 227616, Note_on_c, 1, 60, 92
3, 227712, Note_on_c, 1, 60, 0
3, 227712, Note_on_c, 1, 66, 92
3, 227872, Note_on_c, 1, 66, 0
3, 228096, Note_on_c, 1, 55, 92
3, 228240, Note_on_c, 1, 55, 0
3, 228240, Note_on_c, 1, 59, 92
3, 228288, Note_on_c, 1, 59, 0
3, 228288, Note_on_c, 1, 64, 92
3, 228448, Note_on_c, 1, 64, 0
3, 228480, Note_on_c, 1, 57, 92
3, 228624, Note_on_c, 1, 57, 0
3, 228624, Note_on_c, 1, 60, 92
3, 228672, Note_on_c, 1, 60, 0
3, 228672, Note_on_c, 1, 66, 92
3, 228832, Note_on_c, 1, 66, 0
3, 228864, Note_on_c, 1, 55, 92
3, 229008, Note_on_c, 1, 55, 0
3, 229008, Note_on_c, 1, 59, 92
3, 229056, Note_on_c, 1, 59, 0
3, 229056, Note_on_c, 1, 64, 92
3, 229216, Note_on_c, 1, 64, 0
3, 229248, Note_on_c, 1, 57, 92
3, 229392, Note_on_c, 1, 57, 0
3, 229392, Note_on_c, 1, 60, 92
3, 229440, Note_on_c, 1, 60, 0
3, 229440, Note_on_c, 1, 66, 92
3, 229600, Note_on_c, 1, 66, 0
3, 229632, Note_on_c, 1, 55, 92
3, 229632, Note_on_c, 1, 59, 92
3, 229632, Note_on_c, 1, 64, 92
3, 230352, Note_on_c, 1, 55, 0
3, 230352, Note_on_c, 1, 59, 0
3, 230352, Note_on_c, 1, 64, 0
3, 230400, Note_on_c, 1, 57, 92
3, 230400, Note_on_c, 1, 62, 92
3, 230400, Note_on_c, 1, 66, 92
3, 230560, Note_on_c, 1, 57, 0
3, 230560, Note_on_c, 1, 62, 0
3, 230560, Note_on_c, 1, 66, 0
3, 231168, Note_on_c, 1, 57, 92
3, 231262, Note_on_c, 1, 57, 0
3, 231264, Note_on_c, 1, 67, 92
3, 231358, Note_on_c, 1, 67, 0
3, 231360, Note_on_c, 1, 61, 92
3, 231454, Note_on_c, 1, 61, 0
3, 231456, Note_on_c, 1, 67, 92
3, 231550, Note_on_c, 1, 67, 0
3, 231552, Note_on_c, 1, 57, 92
3, 231646, Note_on_c, 1, 57, 0
3, 231648, Note_on_c, 1, 67, 92
3, 231742, Note_on_c, 1, 67, 0
3, 231744, Note_on_c, 1, 61, 92
3, 231838, Note_on_c, 1, 61, 0
3, 231840, Note_on_c, 1, 67, 92
3, 231934, Note_on_c, 1, 67, 0
3, 231936, Note_on_c, 1, 58, 92
3, 231936, Note_on_c, 1, 65, 92
3, 232096, Note_on_c, 1, 58, 0
3, 232096, Note_on_c, 1, 65, 0
3, 232704, Note_on_c, 1, 58, 45
3, 232704, Note_on_c, 1, 60, 45
3, 232704, Note_on_c, 1, 69, 45
3, 232864, Note_on_c, 1, 58, 0
3, 232864, Note_on_c, 1, 60, 0
3, 232864, Note_on_c, 1, 69, 0
3, 233472, Note_on_c, 1, 58, 30
3, 233472, Note_on_c, 1, 62, 30
3, 233568, Note_on_c, 1, 62, 0
3, 233568, Note_on_c, 1, 65, 30
3, 233632, Note_on_c, 1, 58, 0
3, 233664, Note_on_c, 1, 65, 0
3, 233664, Note_on_c, 1, 58, 30
3, 233664, Note_on_c, 1, 62, 30
3, 233760, Note_on_c, 1, 62, 0
3, 233760, Note_on_c, 1, 65, 30
3, 233824, Note_on_c, 1, 58, 0
3, 233856, Note_on_c, 1, 65, 0
3, 233856, Note_on_c, 1, 58, 30
3, 233856, Note_on_c, 1, 62, 30
3, 233952, Note_on_c, 1, 62, 0
3, 233952, Note_on_c, 1, 65, 30
3, 234016, Note_on_c, 1, 58, 0
3, 234048, Note_on_c, 1, 65, 0
3, 234048, Note_on_c, 1, 58, 30
3, 234048, Note_on_c, 1, 62, 30
3, 234144, Note_on_c, 1, 62, 0
3, 234144, Note_on_c, 1, 65, 30
3, 234208, Note_on_c, 1, 58, 0
3, 234238, Note_on_c, 1, 65, 0
3, 234240, Note_on_c, 1, 60, 30
3, 234240, Note_on_c, 1, 63, 30
3, 234336, Note_on_c, 1, 63, 0
3, 234336, Note_on_c, 1, 65, 32
3, 234400, Note_on_c, 1, 60, 0
3, 234432, Note_on_c, 1, 65, 0
3, 234432, Note_on_c, 1, 60, 34
3, 234432, Note_on_c, 1, 63, 34
3, 234528, Note_on_c, 1, 63, 0
3, 234528, Note_on_c, 1, 65, 36
3, 234592, Note_on_c, 1, 60, 0
3, 234624, Note_on_c, 1, 65, 0
3, 234624, Note_on_c, 1, 60, 38
3, 234624, Note_on_c, 1, 63, 38
3, 234720, Note_on_c, 1, 63, 0
3, 234720, Note_on_c, 1, 65, 40
3, 234784, Note_on_c, 1, 60, 0
3, 234816, Note_on_c, 1, 65, 0
3, 234816, Note_on_c, 1, 60, 42
3, 234816, Note_on_c, 1, 63, 42
3, 234912, Note_on_c, 1, 63, 0
3, 234912, Note_on_c, 1, 65, 44
3, 234976, Note_on_c, 1, 60, 0
3, 235008, Note_on_c, 1, 65, 0
3, 235008, Note_on_c, 1, 58, 46
3, 235008, Note_on_c, 1, 62, 46
3, 235104, Note_on_c, 1, 62, 0
3, 235104, Note_on_c, 1, 65, 48
3, 235168, Note_on_c, 1, 58, 0
3, 235200, Note_on_c, 1, 65, 0
3, 235200, Note_on_c, 1, 58, 50
3, 235200, Note_on_c, 1, 62, 50
3, 235296, Note_on_c, 1, 62, 0
3, 235296, Note_on_c, 1, 65, 53
3, 235360, Note_on_c, 1, 58, 0
3, 235392, Note_on_c, 1, 65, 0
3, 235392, Note_on_c, 1, 58, 56
3, 235392, Note_on_c, 1, 62, 56
3, 235488, Note_on_c, 1, 62, 0
3, 235488, Note_on_c, 1, 65, 59
3, 235552, Note_on_c, 1, 58, 0
3, 235584, Note_on_c, 1, 65, 0
3, 235584, Note_on_c, 1, 58, 62
3, 235584, Note_on_c, 1, 62, 62
3, 235680, Note_on_c, 1, 62, 0
3, 235680, Note_on_c, 1, 65, 65
3, 235744, Note_on_c, 1, 58, 0
3, 235774, Note_on_c, 1, 65, 0
3, 235776, Note_on_c, 1, 60, 68
3, 235776, Note_on_c, 1, 63, 68
3, 235870, Note_on_c, 1, 63, 0
3, 235872, Note_on_c, 1, 65, 71
3, 235936, Note_on_c, 1, 60, 0
3, 235966, Note_on_c, 1, 65, 0
3, 235968, Note_on_c, 1, 60, 74
3, 235968, Note_on_c, 1, 63, 74
3, 236062, Note_on_c, 1, 63, 0
3, 236064, Note_on_c, 1, 65, 77
3, 236128, Note_on_c, 1, 60, 0
3, 236158, Note_on_c, 1, 65, 0
3, 236160, Note_on_c, 1, 60, 80
3, 236160, Note_on_c, 1, 63, 80
3, 236254, Note_on_c, 1, 63, 0
3, 236256, Note_on_c, 1, 65, 83
3, 236320, Note_on_c, 1, 60, 0
3, 236350, Note_on_c, 1, 65, 0
3, 236352, Note_on_c, 1, 60, 86
3, 236352, Note_on_c, 1, 63, 86
3, 236446, Note_on_c, 1, 63, 0
3, 236448, Note_on_c, 1, 65, 89
3, 236512, Note_on_c, 1, 60, 0
3, 236542, Note_on_c, 1, 65, 0
3, 236544, Note_on_c, 1, 58, 92
3, 236544, Note_on_c, 1, 62, 92
3, 236544, Note_on_c, 1, 65, 92
3, 236704, Note_on_c, 1, 58, 0
3, 236704, Note_on_c, 1, 62, 0
3, 236704, Note_on_c, 1, 65, 0
3, 236928, Note_on_c, 1, 46, 92
3, 236928, Note_on_c, 1, 58, 92
3, 237264, Note_on_c, 1, 46, 0
3, 237264, Note_on_c, 1, 58, 0
3, 237312, Note_on_c, 1, 45, 92
3, 237312, Note_on_c, 1, 57, 92
3, 237648, Note_on_c, 1, 45, 0
3, 237648, Note_on_c, 1, 57, 0
3, 237696, Note_on_c, 1, 44, 92
3, 237696, Note_on_c, 1, 56, 92
3, 238032, Note_on_c, 1, 44, 0
3, 238032, Note_on_c, 1, 56, 0
3, 238080, Note_on_c, 1, 33, 92
3, 238080, Note_on_c, 1, 45, 92
3, 238240, Note_on_c, 1, 33, 0
3, 238240, Note_on_c, 1, 45, 0
3, 239616, Note_on_c, 1, 57, 75
3, 239664, Note_on_c, 1, 57, 0
3, 239664, Note_on_c, 1, 66, 75
3, 239712, Note_on_c, 1, 66, 0
3, 239712, Note_on_c, 1, 62, 75
3, 239760, Note_on_c, 1, 62, 0
3, 239760, Note_on_c, 1, 66, 75
3, 239808, Note_on_c, 1, 66, 0
3, 239808, Note_on_c, 1, 57, 75
3, 239856, Note_on_c, 1, 57, 0
3, 239856, Note_on_c, 1, 66, 75
3, 239904, Note_on_c, 1, 66, 0
3, 239904, Note_on_c, 1, 62, 75
3, 239952, Note_on_c, 1, 62, 0
3, 239952, Note_on_c, 1, 66, 75
3, 240000, Note_on_c, 1, 66, 0
3, 240000, Note_on_c, 1, 57, 75
3, 240048, Note_on_c, 1, 57, 0
3, 240048, Note_on_c, 1, 66, 75
3, 240096, Note_on_c, 1, 66, 0
3, 240096, Note_on_c, 1, 62, 75
3, 240144, Note_on_c, 1, 62, 0
3, 240144, Note_on_c, 1, 66, 75
3, 240192, Note_on_c, 1, 66, 0
3, 240192, Note_on_c, 1, 57, 75
3, 240240, Note_on_c, 1, 57, 0
3, 240240, Note_on_c, 1, 66, 75
3, 240288, Note_on_c, 1, 66, 0
3, 240288, Note_on_c, 1, 62, 75
3, 240336, Note_on_c, 1, 62, 0
3, 240336, Note_on_c, 1, 66, 75
3, 240384, Note_on_c, 1, 66, 0
3, 240384, Note_on_c, 1, 57, 75
3, 240432, Note_on_c, 1, 57, 0
3, 240432, Note_on_c, 1, 67, 75
3, 240480, Note_on_c, 1, 67, 0
3, 240480, Note_on_c, 1, 61, 75
3, 240528, Note_on_c, 1, 61, 0
3, 240528, Note_on_c, 1, 67, 75
3, 240576, Note_on_c, 1, 67, 0
3, 240576, Note_on_c, 1, 57, 75
3, 240624, Note_on_c, 1, 57, 0
3, 240624, Note_on_c, 1, 67, 75
3, 240672, Note_on_c, 1, 67, 0
3, 240672, Note_on_c, 1, 61, 75
3, 240720, Note_on_c, 1, 61, 0
3, 240720, Note_on_c, 1, 67, 75
3, 240768, Note_on_c, 1, 67, 0
3, 240768, Note_on_c, 1, 57, 75
3, 240816, Note_on_c, 1, 57, 0
3, 240816, Note_on_c, 1, 67, 75
3, 240864, Note_on_c, 1, 67, 0
3, 240864, Note_on_c, 1, 61, 75
3, 240912, Note_on_c, 1, 61, 0
3, 240912, Note_on_c, 1, 67, 75
3, 240960, Note_on_c, 1, 67, 0
3, 240960, Note_on_c, 1, 57, 75
3, 241008, Note_on_c, 1, 57, 0
3, 241008, Note_on_c, 1, 67, 75
3, 241056, Note_on_c, 1, 67, 0
3, 241056, Note_on_c, 1, 61, 75
3, 241104, Note_on_c, 1, 61, 0
3, 241104, Note_on_c, 1, 67, 75
3, 241150, Note_on_c, 1, 67, 0
3, 241248, Note_on_c, 1, 50, 30
3, 241344, Note_on_c, 1, 50, 0
3, 241344, Note_on_c, 1, 62, 30
3, 241440, Note_on_c, 1, 62, 0
3, 241440, Note_on_c, 1, 50, 30
3, 241536, Note_on_c, 1, 50, 0
3, 241536, Note_on_c, 1, 61, 30
3, 241632, Note_on_c, 1, 61, 0
3, 241632, Note_on_c, 1, 50, 30
3, 241728, Note_on_c, 1, 50, 0
3, 241728, Note_on_c, 1, 60, 30
3, 241824, Note_on_c, 1, 60, 0
3, 241824, Note_on_c, 1, 50, 30
3, 241920, Note_on_c, 1, 50, 0
3, 241920, Note_on_c, 1, 59, 30
3, 242016, Note_on_c, 1, 59, 0
3, 242016, Note_on_c, 1, 50, 30
3, 242112, Note_on_c, 1, 50, 0
3, 242112, Note_on_c, 1, 58, 30
3, 242208, Note_on_c, 1, 58, 0
3, 242208, Note_on_c, 1, 50, 30
3, 242304, Note_on_c, 1, 50, 0
3, 242304, Note_on_c, 1, 57, 30
3, 242400, Note_on_c, 1, 57, 0
3, 242400, Note_on_c, 1, 50, 30
3, 242496, Note_on_c, 1, 50, 0
3, 242496, Note_on_c, 1, 55, 30
3, 242592, Note_on_c, 1, 55, 0
3, 242592, Note_on_c, 1, 50, 30
3, 242688, Note_on_c, 1, 50, 0
3, 242688, Note_on_c, 1, 54, 30
3, 242784, Note_on_c, 1, 54, 0
3, 242784, Note_on_c, 1, 50, 30
3, 242880, Note_on_c, 1, 50, 0
3, 242880, Note_on_c, 1, 62, 30
3, 242976, Note_on_c, 1, 62, 0
3, 242976, Note_on_c, 1, 50, 30
3, 243072, Note_on_c, 1, 50, 0
3, 243072, Note_on_c, 1, 61, 30
3, 243168, Note_on_c, 1, 61, 0
3, 243168, Note_on_c, 1, 50, 30
3, 243264, Note_on_c, 1, 50, 0
3, 243264, Note_on_c, 1, 60, 30
3, 243360, Note_on_c, 1, 60, 0
3, 243360, Note_on_c, 1, 50, 30
3, 243456, Note_on_c, 1, 50, 0
3, 243456, Note_on_c, 1, 59, 30
3, 243552, Note_on_c, 1, 59, 0
3, 243552, Note_on_c, 1, 50, 30
3, 243648, Note_on_c, 1, 50, 0
3, 243648, Note_on_c, 1, 58, 30
3, 243744, Note_on_c, 1, 58, 0
3, 243744, Note_on_c, 1, 50, 30
3, 243840, Note_on_c, 1, 50, 0
3, 243840, Note_on_c, 1, 57, 30
3, 243936, Note_on_c, 1, 57, 0
3, 243936, Note_on_c, 1, 50, 30
3, 244032, Note_on_c, 1, 50, 0
3, 244032, Note_on_c, 1, 55, 30
3, 244128, Note_on_c, 1, 55, 0
3, 244128, Note_on_c, 1, 50, 30
3, 244224, Note_on_c, 1, 50, 0
3, 244224, Note_on_c, 1, 54, 30
3, 244320, Note_on_c, 1, 54, 0
3, 244320, Note_on_c, 1, 50, 33
3, 244416, Note_on_c, 1, 50, 0
3, 244416, Note_on_c, 1, 62, 36
3, 244512, Note_on_c, 1, 62, 0
3, 244512, Note_on_c, 1, 50, 40
3, 244608, Note_on_c, 1, 50, 0
3, 244608, Note_on_c, 1, 61, 44
3, 244704, Note_on_c, 1, 61, 0
3, 244704, Note_on_c, 1, 50, 48
3, 244800, Note_on_c, 1, 50, 0
3, 244800, Note_on_c, 1, 60, 52
3, 244896, Note_on_c, 1, 60, 0
3, 244896, Note_on_c, 1, 50, 56
3, 244990, Note_on_c, 1, 50, 0
3, 244992, Note_on_c, 1, 50, 60
3, 244992, Note_on_c, 1, 59, 60
3, 245328, Note_on_c, 1, 50, 0
3, 245328, Note_on_c, 1, 59, 0
3, 245376, Note_on_c, 1, 50, 76
3, 245376, Note_on_c, 1, 54, 76
3, 245712, Note_on_c, 1, 50, 0
3, 245712, Note_on_c, 1, 54, 0
3, 245760, Note_on_c, 1, 50, 92
3, 245760, Note_on_c, 1, 55, 92
3, 245920, Note_on_c, 1, 50, 0
3, 245920, Note_on_c, 1, 55, 0
3, 246528, Note_on_c, 1, 57, 92
3, 246528, Note_on_c, 1, 64, 92
3, 246528, Note_on_c, 1, 67, 92
3, 247248, Note_on_c, 1, 57, 0
3, 247248, Note_on_c, 1, 64, 0
3, 247248, Note_on_c, 1, 67, 0
3, 247296, Note_on_c, 1, 38, 45
3, 247392, Note_on_c, 1, 38, 0
3, 247392, Note_on_c, 1, 50, 45
3, 247488, Note_on_c, 1, 50, 0
3, 247488, Note_on_c, 1, 42, 45
3, 247584, Note_on_c, 1, 42, 0
3, 247584, Note_on_c, 1, 50, 45
3, 247680, Note_on_c, 1, 50, 0
3, 247680, Note_on_c, 1, 45, 45
3, 247776, Note_on_c, 1, 45, 0
3, 247776, Note_on_c, 1, 50, 45
3, 247872, Note_on_c, 1, 50, 0
3, 247872, Note_on_c, 1, 42, 45
3, 247968, Note_on_c, 1, 42, 0
3, 247968, Note_on_c, 1, 50, 45
3, 248064, Note_on_c, 1, 50, 0
3, 248064, Note_on_c, 1, 38, 45
3, 248160, Note_on_c, 1, 38, 0
3, 248160, Note_on_c, 1, 49, 44
3, 248256, Note_on_c, 1, 49, 0
3, 248256, Note_on_c, 1, 40, 42
3, 248352, Note_on_c, 1, 40, 0
3, 248352, Note_on_c, 1, 49, 40
3, 248448, Note_on_c, 1, 49, 0
3, 248448, Note_on_c, 1, 43, 38
3, 248544, Note_on_c, 1, 43, 0
3, 248544, Note_on_c, 1, 49, 36
3, 248640, Note_on_c, 1, 49, 0
3, 248640, Note_on_c, 1, 40, 34
3, 248736, Note_on_c, 1, 40, 0
3, 248736, Note_on_c, 1, 49, 32
3, 248832, Note_on_c, 1, 49, 0
3, 248832, Note_on_c, 1, 38, 30
3, 248928, Note_on_c, 1, 38, 0
3, 248928, Note_on_c, 1, 50, 30
3, 249024, Note_on_c, 1, 50, 0
3, 249024, Note_on_c, 1, 42, 30
3, 249120, Note_on_c, 1, 42, 0
3, 249120, Note_on_c, 1, 50, 30
3, 249216, Note_on_c, 1, 50, 0
3, 249216, Note_on_c, 1, 45, 30
3, 249312, Note_on_c, 1, 45, 0
3, 249312, Note_on_c, 1, 50, 30
3, 249408, Note_on_c, 1, 50, 0
3, 249408, Note_on_c, 1, 42, 30
3, 249504, Note_on_c, 1, 42, 0
3, 249504, Note_on_c, 1, 50, 30
3, 249600, Note_on_c, 1, 50, 0
3, 249600, Note_on_c, 1, 38, 30
3, 249696, Note_on_c, 1, 38, 0
3, 249696, Note_on_c, 1, 45, 30
3, 249792, Note_on_c, 1, 45, 0
3, 249792, Note_on_c, 1, 40, 30
3, 249888, Note_on_c, 1, 40, 0
3, 249888, Note_on_c, 1, 45, 30
3, 249984, Note_on_c, 1, 45, 0
3, 249984, Note_on_c, 1, 43, 30
3, 250080, Note_on_c, 1, 43, 0
3, 250080, Note_on_c, 1, 45, 30
3, 250176, Note_on_c, 1, 45, 0
3, 250176, Note_on_c, 1, 40, 30
3, 250272, Note_on_c, 1, 40, 0
3, 250272, Note_on_c, 1, 45, 30
3, 250368, Note_on_c, 1, 45, 0
3, 250368, Note_on_c, 1, 38, 30
3, 250464, Note_on_c, 1, 38, 0
3, 250464, Note_on_c, 1, 50, 30
3, 250560, Note_on_c, 1, 50, 0
3, 250560, Note_on_c, 1, 42, 30
3, 250656, Note_on_c, 1, 42, 0
3, 250656, Note_on_c, 1, 50, 30
3, 250752, Note_on_c, 1, 50, 0
3, 250752, Note_on_c, 1, 45, 30
3, 250848, Note_on_c, 1, 45, 0
3, 250848, Note_on_c, 1, 50, 30
3, 250944, Note_on_c, 1, 50, 0
3, 250944, Note_on_c, 1, 42, 30
3, 251040, Note_on_c, 1, 42, 0
3, 251040, Note_on_c, 1, 50, 30
3, 251136, Note_on_c, 1, 50, 0
3, 251136, Note_on_c, 1, 38, 30
3, 251232, Note_on_c, 1, 38, 0
3, 251232, Note_on_c, 1, 45, 31
3, 251328, Note_on_c, 1, 45, 0
3, 251328, Note_on_c, 1, 40, 33
3, 251424, Note_on_c, 1, 40, 0
3, 251424, Note_on_c, 1, 45, 35
3, 251520, Note_on_c, 1, 45, 0
3, 251520, Note_on_c, 1, 43, 37
3, 251616, Note_on_c, 1, 43, 0
3, 251616, Note_on_c, 1, 45, 39
3, 251712, Note_on_c, 1, 45, 0
3, 251712, Note_on_c, 1, 40, 41
3, 251808, Note_on_c, 1, 40, 0
3, 251808, Note_on_c, 1, 45, 43
3, 251902, Note_on_c, 1, 45, 0
3, 251904, Note_on_c, 1, 38, 45
3, 252000, Note_on_c, 1, 38, 0
3, 252000, Note_on_c, 1, 50, 45
3, 252096, Note_on_c, 1, 50, 0
3, 252096, Note_on_c, 1, 42, 45
3, 252192, Note_on_c, 1, 42, 0
3, 252192, Note_on_c, 1, 50, 45
3, 252288, Note_on_c, 1, 50, 0
3, 252288, Note_on_c, 1, 45, 45
3, 252384, Note_on_c, 1, 45, 0
3, 252384, Note_on_c, 1, 50, 45
3, 252480, Note_on_c, 1, 50, 0
3, 252480, Note_on_c, 1, 42, 45
3, 252576, Note_on_c, 1, 42, 0
3, 252576, Note_on_c, 1, 50, 45
3, 252672, Note_on_c, 1, 50, 0
3, 252672, Note_on_c, 1, 38, 45
3, 252768, Note_on_c, 1, 38, 0
3, 252768, Note_on_c, 1, 45, 45
3, 252864, Note_on_c, 1, 45, 0
3, 252864, Note_on_c, 1, 40, 45
3, 252960, Note_on_c, 1, 40, 0
3, 252960, Note_on_c, 1, 45, 45
3, 253056, Note_on_c, 1, 45, 0
3, 253056, Note_on_c, 1, 43, 45
3, 253152, Note_on_c, 1, 43, 0
3, 253152, Note_on_c, 1, 45, 45
3, 253248, Note_on_c, 1, 45, 0
3, 253248, Note_on_c, 1, 40, 45
3, 253344, Note_on_c, 1, 40, 0
3, 253344, Note_on_c, 1, 45, 45
3, 253440, Note_on_c, 1, 45, 0
3, 253440, Note_on_c, 1, 38, 45
3, 253536, Note_on_c, 1, 38, 0
3, 253536, Note_on_c, 1, 45, 45
3, 253632, Note_on_c, 1, 45, 0
3, 253632, Note_on_c, 1, 42, 45
3, 253728, Note_on_c, 1, 42, 0
3, 253728, Note_on_c, 1, 45, 45
3, 253824, Note_on_c, 1, 45, 0
3, 253824, Note_on_c, 1, 33, 45
3, 253920, Note_on_c, 1, 33, 0
3, 253920, Note_on_c, 1, 45, 45
3, 254016, Note_on_c, 1, 45, 0
3, 254016, Note_on_c, 1, 40, 45
3, 254112, Note_on_c, 1, 40, 0
3, 254112, Note_on_c, 1, 45, 45
3, 254208, Note_on_c, 1, 45, 0
3, 254208, Note_on_c, 1, 38, 45
3, 254304, Note_on_c, 1, 38, 0
3, 254304, Note_on_c, 1, 45, 45
3, 254400, Note_on_c, 1, 45, 0
3, 254400, Note_on_c, 1, 42, 45
3, 254496, Note_on_c, 1, 42, 0
3, 254496, Note_on_c, 1, 45, 45
3, 254592, Note_on_c, 1, 45, 0
3, 254592, Note_on_c, 1, 33, 45
3, 254688, Note_on_c, 1, 33, 0
3, 254688, Note_on_c, 1, 45, 45
3, 254784, Note_on_c, 1, 45, 0
3, 254784, Note_on_c, 1, 40, 45
3, 254880, Note_on_c, 1, 40, 0
3, 254880, Note_on_c, 1, 45, 45
3, 254976, Note_on_c, 1, 45, 0
3, 254976, Note_on_c, 1, 38, 45
3, 255136, Note_on_c, 1, 38, 0
3, 255360, Note_on_c, 1, 38, 45
3, 255360, Note_on_c, 1, 50, 45
3, 255520, Note_on_c, 1, 38, 0
3, 255520, Note_on_c, 1, 50, 0
3, 255744, Note_on_c, 1, 38, 45
3, 255744, Note_on_c, 1, 50, 45
3, 256080, Note_on_c, 1, 38, 0
3, 256080, Note_on_c, 1, 50, 0
3, 256080, End_track
0, 0, End_of_file