0, 0, Header, 1, 14, 240
1, 0, Start_track
1, 0, Sequencer_specific, 0A, 00, 00, 5B, 23, 01, 00, 05, 06, 2A, 00
1, 0, Title_t, "W. A. Mozart - Symphony No. 28 in C Major, K.200"
1, 0, Instrument_name_t, "Conductor Track"
1, 0, SMPTE_offset, 96, 0, 3, 0, 0
1, 0, MIDI_port, 0
1, 0, Key_signature, 0, "major"
1, 0, Tempo, 465116
1, 0, Time_signature, 3, 2, 24, 8
1, 59040, Tempo, 476190
1, 59080, Tempo, 480000
1, 59120, Tempo, 483870
1, 59160, Tempo, 487804
1, 59200, Tempo, 491803
1, 59240, Tempo, 495867
1, 59280, Tempo, 500000
1, 59320, Tempo, 504201
1, 59360, Tempo, 508474
1, 59400, Tempo, 512820
1, 59440, Tempo, 517241
1, 59480, Tempo, 521739
1, 59520, Tempo, 526315
1, 59560, Tempo, 530973
1, 59600, Tempo, 535714
1, 59640, Tempo, 540540
1, 59680, Tempo, 545454
1, 59720, Tempo, 550458
1, 59760, Tempo, 555555
1, 60240, Tempo, 465116
1, 60480, Key_signature, -1, "major"
1, 87840, Tempo, 476190
1, 87912, Tempo, 480000
1, 87984, Tempo, 483870
1, 88056, Tempo, 487804
1, 88128, Tempo, 491803
1, 88200, Tempo, 495867
1, 88272, Tempo, 500000
1, 88344, Tempo, 504201
1, 88416, Tempo, 508474
1, 88488, Tempo, 512820
1, 88560, Tempo, 517241
1, 89280, Tempo, 465116
1, 89280, Key_signature, 0, "major"
1, 118080, Tempo, 476190
1, 118120, Tempo, 480000
1, 118160, Tempo, 483870
1, 118200, Tempo, 487804
1, 118240, Tempo, 491803
1, 118280, Tempo, 495867
1, 118320, Tempo, 500000
1, 118360, Tempo, 504201
1, 118400, Tempo, 508474
1, 118440, Tempo, 512820
1, 118480, Tempo, 517241
1, 118520, Tempo, 521739
1, 118560, Tempo, 526315
1, 118600, Tempo, 530973
1, 118640, Tempo, 535714
1, 118680, Tempo, 540540
1, 118720, Tempo, 545454
1, 118760, Tempo, 550458
1, 118800, Tempo, 555555
1, 119280, Tempo, 3000000
1, 119760, Tempo, 2000000
1, 119760, End_track
2, 0, Start_track
2, 0, Title_t, "3rd Movement - Menuetto"
2, 0, MIDI_port, 0
2, 0, End_track
3, 0, Start_track
3, 0, Title_t, "Sequenced by D. L. Viens 15 May 2002"
3, 0, MIDI_port, 0
3, 0, End_track
4, 0, Start_track
4, 0, Title_t, "dlviens@empire.net"
4, 0, MIDI_port, 0
4, 0, End_track
5, 0, Start_track
5, 0, MIDI_port, 0
5, 0, End_track
6, 0, Start_track
6, 0, Title_t, "Oboe"
6, 0, MIDI_port, 0
6, 0, Control_c, 0, 121, 0
6, 0, Program_c, 0, 68
6, 0, Control_c, 0, 7, 96
6, 0, Control_c, 0, 10, 75
6, 0, Control_c, 0, 11, 127
6, 0, Note_on_c, 0, 79, 80
6, 479, Note_on_c, 0, 79, 0
6, 480, Note_on_c, 0, 76, 80
6, 704, Note_on_c, 0, 76, 0
6, 720, Note_on_c, 0, 77, 80
6, 959, Note_on_c, 0, 77, 0
6, 960, Note_on_c, 0, 74, 80
6, 1184, Note_on_c, 0, 74, 0
6, 1200, Note_on_c, 0, 74, 80
6, 1229, Note_on_c, 0, 74, 0
6, 1230, Note_on_c, 0, 76, 80
6, 1259, Note_on_c, 0, 76, 0
6, 1260, Note_on_c, 0, 74, 80
6, 1289, Note_on_c, 0, 74, 0
6, 1290, Note_on_c, 0, 76, 80
6, 1319, Note_on_c, 0, 76, 0
6, 1320, Note_on_c, 0, 74, 80
6, 1359, Note_on_c, 0, 74, 0
6, 1360, Note_on_c, 0, 72, 80
6, 1399, Note_on_c, 0, 72, 0
6, 1400, Note_on_c, 0, 74, 80
6, 1439, Note_on_c, 0, 74, 0
6, 1440, Note_on_c, 0, 76, 80
6, 1619, Note_on_c, 0, 76, 0
6, 1680, Note_on_c, 0, 72, 80
6, 1859, Note_on_c, 0, 72, 0
6, 1920, Note_on_c, 0, 74, 80
6, 2099, Note_on_c, 0, 74, 0
6, 2160, Note_on_c, 0, 67, 80
6, 2399, Note_on_c, 0, 67, 0
6, 10080, Note_on_c, 0, 79, 80
6, 10559, Note_on_c, 0, 79, 0
6, 10560, Note_on_c, 0, 76, 80
6, 10784, Note_on_c, 0, 76, 0
6, 10800, Note_on_c, 0, 77, 80
6, 11039, Note_on_c, 0, 77, 0
6, 11040, Note_on_c, 0, 74, 80
6, 11264, Note_on_c, 0, 74, 0
6, 11280, Note_on_c, 0, 74, 80
6, 11309, Note_on_c, 0, 74, 0
6, 11310, Note_on_c, 0, 76, 80
6, 11339, Note_on_c, 0, 76, 0
6, 11340, Note_on_c, 0, 74, 80
6, 11369, Note_on_c, 0, 74, 0
6, 11370, Note_on_c, 0, 76, 80
6, 11399, Note_on_c, 0, 76, 0
6, 11400, Note_on_c, 0, 74, 80
6, 11439, Note_on_c, 0, 74, 0
6, 11440, Note_on_c, 0, 72, 80
6, 11479, Note_on_c, 0, 72, 0
6, 11480, Note_on_c, 0, 74, 80
6, 11519, Note_on_c, 0, 74, 0
6, 11520, Note_on_c, 0, 76, 80
6, 11699, Note_on_c, 0, 76, 0
6, 11760, Note_on_c, 0, 72, 80
6, 11939, Note_on_c, 0, 72, 0
6, 12000, Note_on_c, 0, 74, 80
6, 12179, Note_on_c, 0, 74, 0
6, 12240, Note_on_c, 0, 67, 80
6, 12479, Note_on_c, 0, 67, 0
6, 20160, Note_on_c, 0, 79, 80
6, 20639, Note_on_c, 0, 79, 0
6, 20640, Note_on_c, 0, 76, 80
6, 20864, Note_on_c, 0, 76, 0
6, 20880, Note_on_c, 0, 77, 80
6, 21119, Note_on_c, 0, 77, 0
6, 21120, Note_on_c, 0, 81, 80
6, 21359, Note_on_c, 0, 81, 0
6, 23040, Note_on_c, 0, 77, 80
6, 23519, Note_on_c, 0, 77, 0
6, 23520, Note_on_c, 0, 74, 80
6, 23744, Note_on_c, 0, 74, 0
6, 23760, Note_on_c, 0, 76, 80
6, 23999, Note_on_c, 0, 76, 0
6, 24000, Note_on_c, 0, 79, 80
6, 24239, Note_on_c, 0, 79, 0
6, 27360, Note_on_c, 0, 79, 80
6, 27839, Note_on_c, 0, 79, 0
6, 27840, Note_on_c, 0, 76, 80
6, 28064, Note_on_c, 0, 76, 0
6, 28080, Note_on_c, 0, 77, 80
6, 28319, Note_on_c, 0, 77, 0
6, 28320, Note_on_c, 0, 74, 80
6, 28544, Note_on_c, 0, 74, 0
6, 28560, Note_on_c, 0, 76, 80
6, 28589, Note_on_c, 0, 76, 0
6, 28590, Note_on_c, 0, 77, 80
6, 28619, Note_on_c, 0, 77, 0
6, 28620, Note_on_c, 0, 76, 80
6, 28649, Note_on_c, 0, 76, 0
6, 28650, Note_on_c, 0, 77, 80
6, 28679, Note_on_c, 0, 77, 0
6, 28680, Note_on_c, 0, 76, 80
6, 28719, Note_on_c, 0, 76, 0
6, 28720, Note_on_c, 0, 74, 80
6, 28759, Note_on_c, 0, 74, 0
6, 28760, Note_on_c, 0, 76, 80
6, 28799, Note_on_c, 0, 76, 0
6, 28800, Note_on_c, 0, 77, 80
6, 28979, Note_on_c, 0, 77, 0
6, 29040, Note_on_c, 0, 74, 80
6, 29219, Note_on_c, 0, 74, 0
6, 29280, Note_on_c, 0, 76, 80
6, 29459, Note_on_c, 0, 76, 0
6, 29520, Note_on_c, 0, 72, 80
6, 29759, Note_on_c, 0, 72, 0
6, 36900, Note_on_c, 0, 67, 80
6, 36951, Note_on_c, 0, 67, 0
6, 36960, Note_on_c, 0, 72, 80
6, 37124, Note_on_c, 0, 72, 0
6, 37140, Note_on_c, 0, 74, 80
6, 37191, Note_on_c, 0, 74, 0
6, 37200, Note_on_c, 0, 76, 80
6, 37364, Note_on_c, 0, 76, 0
6, 37380, Note_on_c, 0, 77, 80
6, 37431, Note_on_c, 0, 77, 0
6, 37440, Note_on_c, 0, 81, 80
6, 37499, Note_on_c, 0, 81, 0
6, 37500, Note_on_c, 0, 79, 80
6, 37664, Note_on_c, 0, 79, 0
6, 37680, Note_on_c, 0, 79, 80
6, 37904, Note_on_c, 0, 79, 0
6, 37920, Note_on_c, 0, 77, 80
6, 38039, Note_on_c, 0, 77, 0
6, 38040, Note_on_c, 0, 76, 80
6, 38144, Note_on_c, 0, 76, 0
6, 38160, Note_on_c, 0, 76, 80
6, 38219, Note_on_c, 0, 76, 0
6, 38220, Note_on_c, 0, 74, 80
6, 38384, Note_on_c, 0, 74, 0
6, 38400, Note_on_c, 0, 74, 80
6, 38624, Note_on_c, 0, 74, 0
6, 38640, Note_on_c, 0, 76, 80
6, 38759, Note_on_c, 0, 76, 0
6, 38760, Note_on_c, 0, 77, 80
6, 38864, Note_on_c, 0, 77, 0
6, 38880, Note_on_c, 0, 79, 80
6, 38939, Note_on_c, 0, 79, 0
6, 38940, Note_on_c, 0, 77, 80
6, 39104, Note_on_c, 0, 77, 0
6, 39120, Note_on_c, 0, 77, 80
6, 39344, Note_on_c, 0, 77, 0
6, 39360, Note_on_c, 0, 76, 80
6, 39479, Note_on_c, 0, 76, 0
6, 39480, Note_on_c, 0, 74, 80
6, 39584, Note_on_c, 0, 74, 0
6, 39600, Note_on_c, 0, 72, 80
6, 40079, Note_on_c, 0, 72, 0
6, 40320, Note_on_c, 0, 79, 80
6, 40799, Note_on_c, 0, 79, 0
6, 40800, Note_on_c, 0, 76, 80
6, 41024, Note_on_c, 0, 76, 0
6, 41040, Note_on_c, 0, 77, 80
6, 41279, Note_on_c, 0, 77, 0
6, 41280, Note_on_c, 0, 81, 80
6, 41519, Note_on_c, 0, 81, 0
6, 43200, Note_on_c, 0, 77, 80
6, 43679, Note_on_c, 0, 77, 0
6, 43680, Note_on_c, 0, 74, 80
6, 43904, Note_on_c, 0, 74, 0
6, 43920, Note_on_c, 0, 76, 80
6, 44159, Note_on_c, 0, 76, 0
6, 44160, Note_on_c, 0, 79, 80
6, 44399, Note_on_c, 0, 79, 0
6, 47520, Note_on_c, 0, 79, 80
6, 47999, Note_on_c, 0, 79, 0
6, 48000, Note_on_c, 0, 76, 80
6, 48224, Note_on_c, 0, 76, 0
6, 48240, Note_on_c, 0, 77, 80
6, 48479, Note_on_c, 0, 77, 0
6, 48480, Note_on_c, 0, 74, 80
6, 48704, Note_on_c, 0, 74, 0
6, 48720, Note_on_c, 0, 76, 80
6, 48749, Note_on_c, 0, 76, 0
6, 48750, Note_on_c, 0, 77, 80
6, 48779, Note_on_c, 0, 77, 0
6, 48780, Note_on_c, 0, 76, 80
6, 48809, Note_on_c, 0, 76, 0
6, 48810, Note_on_c, 0, 77, 80
6, 48839, Note_on_c, 0, 77, 0
6, 48840, Note_on_c, 0, 76, 80
6, 48879, Note_on_c, 0, 76, 0
6, 48880, Note_on_c, 0, 74, 80
6, 48919, Note_on_c, 0, 74, 0
6, 48920, Note_on_c, 0, 76, 80
6, 48959, Note_on_c, 0, 76, 0
6, 48960, Note_on_c, 0, 77, 80
6, 49139, Note_on_c, 0, 77, 0
6, 49200, Note_on_c, 0, 74, 80
6, 49379, Note_on_c, 0, 74, 0
6, 49440, Note_on_c, 0, 76, 80
6, 49619, Note_on_c, 0, 76, 0
6, 49680, Note_on_c, 0, 72, 80
6, 49919, Note_on_c, 0, 72, 0
6, 57060, Note_on_c, 0, 67, 80
6, 57111, Note_on_c, 0, 67, 0
6, 57120, Note_on_c, 0, 72, 80
6, 57284, Note_on_c, 0, 72, 0
6, 57300, Note_on_c, 0, 74, 80
6, 57351, Note_on_c, 0, 74, 0
6, 57360, Note_on_c, 0, 76, 80
6, 57524, Note_on_c, 0, 76, 0
6, 57540, Note_on_c, 0, 77, 80
6, 57591, Note_on_c, 0, 77, 0
6, 57600, Note_on_c, 0, 81, 80
6, 57659, Note_on_c, 0, 81, 0
6, 57660, Note_on_c, 0, 79, 80
6, 57824, Note_on_c, 0, 79, 0
6, 57840, Note_on_c, 0, 79, 80
6, 58064, Note_on_c, 0, 79, 0
6, 58080, Note_on_c, 0, 77, 80
6, 58199, Note_on_c, 0, 77, 0
6, 58200, Note_on_c, 0, 76, 80
6, 58304, Note_on_c, 0, 76, 0
6, 58320, Note_on_c, 0, 76, 80
6, 58379, Note_on_c, 0, 76, 0
6, 58380, Note_on_c, 0, 74, 80
6, 58544, Note_on_c, 0, 74, 0
6, 58560, Note_on_c, 0, 74, 80
6, 58784, Note_on_c, 0, 74, 0
6, 58800, Note_on_c, 0, 76, 80
6, 58919, Note_on_c, 0, 76, 0
6, 58920, Note_on_c, 0, 77, 80
6, 59024, Note_on_c, 0, 77, 0
6, 59040, Note_on_c, 0, 79, 80
6, 59099, Note_on_c, 0, 79, 0
6, 59100, Note_on_c, 0, 77, 80
6, 59264, Note_on_c, 0, 77, 0
6, 59280, Note_on_c, 0, 77, 80
6, 59504, Note_on_c, 0, 77, 0
6, 59520, Note_on_c, 0, 76, 80
6, 59639, Note_on_c, 0, 76, 0
6, 59640, Note_on_c, 0, 74, 80
6, 59744, Note_on_c, 0, 74, 0
6, 59760, Note_on_c, 0, 72, 80
6, 60239, Note_on_c, 0, 72, 0
6, 89280, Note_on_c, 0, 79, 80
6, 89759, Note_on_c, 0, 79, 0
6, 89760, Note_on_c, 0, 76, 80
6, 89984, Note_on_c, 0, 76, 0
6, 90000, Note_on_c, 0, 77, 80
6, 90239, Note_on_c, 0, 77, 0
6, 90240, Note_on_c, 0, 74, 80
6, 90464, Note_on_c, 0, 74, 0
6, 90480, Note_on_c, 0, 74, 80
6, 90509, Note_on_c, 0, 74, 0
6, 90510, Note_on_c, 0, 76, 80
6, 90539, Note_on_c, 0, 76, 0
6, 90540, Note_on_c, 0, 74, 80
6, 90569, Note_on_c, 0, 74, 0
6, 90570, Note_on_c, 0, 76, 80
6, 90599, Note_on_c, 0, 76, 0
6, 90600, Note_on_c, 0, 74, 80
6, 90639, Note_on_c, 0, 74, 0
6, 90640, Note_on_c, 0, 72, 80
6, 90679, Note_on_c, 0, 72, 0
6, 90680, Note_on_c, 0, 74, 80
6, 90719, Note_on_c, 0, 74, 0
6, 90720, Note_on_c, 0, 76, 80
6, 90899, Note_on_c, 0, 76, 0
6, 90960, Note_on_c, 0, 72, 80
6, 91139, Note_on_c, 0, 72, 0
6, 91200, Note_on_c, 0, 74, 80
6, 91379, Note_on_c, 0, 74, 0
6, 91440, Note_on_c, 0, 67, 80
6, 91679, Note_on_c, 0, 67, 0
6, 99360, Note_on_c, 0, 79, 80
6, 99839, Note_on_c, 0, 79, 0
6, 99840, Note_on_c, 0, 76, 80
6, 100064, Note_on_c, 0, 76, 0
6, 100080, Note_on_c, 0, 77, 80
6, 100319, Note_on_c, 0, 77, 0
6, 100320, Note_on_c, 0, 81, 80
6, 100559, Note_on_c, 0, 81, 0
6, 102240, Note_on_c, 0, 77, 80
6, 102719, Note_on_c, 0, 77, 0
6, 102720, Note_on_c, 0, 74, 80
6, 102944, Note_on_c, 0, 74, 0
6, 102960, Note_on_c, 0, 76, 80
6, 103199, Note_on_c, 0, 76, 0
6, 103200, Note_on_c, 0, 79, 80
6, 103439, Note_on_c, 0, 79, 0
6, 106560, Note_on_c, 0, 79, 80
6, 107039, Note_on_c, 0, 79, 0
6, 107040, Note_on_c, 0, 76, 80
6, 107264, Note_on_c, 0, 76, 0
6, 107280, Note_on_c, 0, 77, 80
6, 107519, Note_on_c, 0, 77, 0
6, 107520, Note_on_c, 0, 74, 80
6, 107744, Note_on_c, 0, 74, 0
6, 107760, Note_on_c, 0, 76, 80
6, 107789, Note_on_c, 0, 76, 0
6, 107790, Note_on_c, 0, 77, 80
6, 107819, Note_on_c, 0, 77, 0
6, 107820, Note_on_c, 0, 76, 80
6, 107849, Note_on_c, 0, 76, 0
6, 107850, Note_on_c, 0, 77, 80
6, 107879, Note_on_c, 0, 77, 0
6, 107880, Note_on_c, 0, 76, 80
6, 107919, Note_on_c, 0, 76, 0
6, 107920, Note_on_c, 0, 74, 80
6, 107959, Note_on_c, 0, 74, 0
6, 107960, Note_on_c, 0, 76, 80
6, 107999, Note_on_c, 0, 76, 0
6, 108000, Note_on_c, 0, 77, 80
6, 108179, Note_on_c, 0, 77, 0
6, 108240, Note_on_c, 0, 74, 80
6, 108419, Note_on_c, 0, 74, 0
6, 108480, Note_on_c, 0, 76, 80
6, 108659, Note_on_c, 0, 76, 0
6, 108720, Note_on_c, 0, 72, 80
6, 108959, Note_on_c, 0, 72, 0
6, 116100, Note_on_c, 0, 67, 80
6, 116151, Note_on_c, 0, 67, 0
6, 116160, Note_on_c, 0, 72, 80
6, 116324, Note_on_c, 0, 72, 0
6, 116340, Note_on_c, 0, 74, 80
6, 116391, Note_on_c, 0, 74, 0
6, 116400, Note_on_c, 0, 76, 80
6, 116564, Note_on_c, 0, 76, 0
6, 116580, Note_on_c, 0, 77, 80
6, 116631, Note_on_c, 0, 77, 0
6, 116640, Note_on_c, 0, 81, 80
6, 116699, Note_on_c, 0, 81, 0
6, 116700, Note_on_c, 0, 79, 80
6, 116864, Note_on_c, 0, 79, 0
6, 116880, Note_on_c, 0, 79, 80
6, 117104, Note_on_c, 0, 79, 0
6, 117120, Note_on_c, 0, 77, 80
6, 117239, Note_on_c, 0, 77, 0
6, 117240, Note_on_c, 0, 76, 80
6, 117344, Note_on_c, 0, 76, 0
6, 117360, Note_on_c, 0, 76, 80
6, 117419, Note_on_c, 0, 76, 0
6, 117420, Note_on_c, 0, 74, 80
6, 117584, Note_on_c, 0, 74, 0
6, 117600, Note_on_c, 0, 74, 80
6, 117824, Note_on_c, 0, 74, 0
6, 117840, Note_on_c, 0, 76, 80
6, 117959, Note_on_c, 0, 76, 0
6, 117960, Note_on_c, 0, 77, 80
6, 118064, Note_on_c, 0, 77, 0
6, 118080, Note_on_c, 0, 79, 80
6, 118139, Note_on_c, 0, 79, 0
6, 118140, Note_on_c, 0, 77, 80
6, 118304, Note_on_c, 0, 77, 0
6, 118320, Note_on_c, 0, 77, 80
6, 118544, Note_on_c, 0, 77, 0
6, 118560, Note_on_c, 0, 76, 80
6, 118679, Note_on_c, 0, 76, 0
6, 118680, Note_on_c, 0, 74, 80
6, 118784, Note_on_c, 0, 74, 0
6, 118800, Note_on_c, 0, 72, 80
6, 119279, Note_on_c, 0, 72, 0
6, 119279, End_track
7, 0, Start_track
7, 0, Title_t, "French Horn in C"
7, 0, MIDI_port, 0
7, 0, Control_c, 1, 121, 0
7, 0, Program_c, 1, 60
7, 0, Control_c, 1, 7, 104
7, 0, Control_c, 1, 10, 45
7, 0, Control_c, 1, 11, 127
7, 0, Note_on_c, 1, 67, 80
7, 0, Note_on_c, 1, 64, 80
7, 704, Note_on_c, 1, 67, 0
7, 704, Note_on_c, 1, 64, 0
7, 720, Note_on_c, 1, 65, 80
7, 720, Note_on_c, 1, 62, 80
7, 944, Note_on_c, 1, 65, 0
7, 944, Note_on_c, 1, 62, 0
7, 960, Note_on_c, 1, 62, 80
7, 960, Note_on_c, 1, 55, 80
7, 1184, Note_on_c, 1, 62, 0
7, 1184, Note_on_c, 1, 55, 0
7, 1200, Note_on_c, 1, 55, 80
7, 1200, Note_on_c, 1, 62, 80
7, 1424, Note_on_c, 1, 55, 0
7, 1424, Note_on_c, 1, 62, 0
7, 1440, Note_on_c, 1, 60, 80
7, 1440, Note_on_c, 1, 64, 80
7, 1619, Note_on_c, 1, 60, 0
7, 1619, Note_on_c, 1, 64, 0
7, 1680, Note_on_c, 1, 60, 80
7, 1859, Note_on_c, 1, 60, 0
7, 1920, Note_on_c, 1, 62, 80
7, 2099, Note_on_c, 1, 62, 0
7, 2160, Note_on_c, 1, 55, 80
7, 2399, Note_on_c, 1, 55, 0
7, 2640, Note_on_c, 1, 62, 44
7, 2864, Note_on_c, 1, 62, 0
7, 2880, Note_on_c, 1, 64, 44
7, 3104, Note_on_c, 1, 64, 0
7, 3120, Note_on_c, 1, 60, 44
7, 3344, Note_on_c, 1, 60, 0
7, 3360, Note_on_c, 1, 62, 44
7, 3584, Note_on_c, 1, 62, 0
7, 3600, Note_on_c, 1, 55, 44
7, 4320, Note_on_c, 1, 43, 44
7, 7199, Note_on_c, 1, 55, 0
7, 7199, Note_on_c, 1, 43, 0
7, 10080, Note_on_c, 1, 64, 80
7, 10080, Note_on_c, 1, 67, 80
7, 10784, Note_on_c, 1, 64, 0
7, 10784, Note_on_c, 1, 67, 0
7, 10800, Note_on_c, 1, 62, 80
7, 10800, Note_on_c, 1, 65, 80
7, 11024, Note_on_c, 1, 62, 0
7, 11024, Note_on_c, 1, 65, 0
7, 11040, Note_on_c, 1, 62, 80
7, 11040, Note_on_c, 1, 55, 80
7, 11264, Note_on_c, 1, 62, 0
7, 11264, Note_on_c, 1, 55, 0
7, 11280, Note_on_c, 1, 62, 80
7, 11280, Note_on_c, 1, 55, 80
7, 11504, Note_on_c, 1, 62, 0
7, 11504, Note_on_c, 1, 55, 0
7, 11520, Note_on_c, 1, 64, 80
7, 11520, Note_on_c, 1, 60, 80
7, 11699, Note_on_c, 1, 64, 0
7, 11699, Note_on_c, 1, 60, 0
7, 11760, Note_on_c, 1, 60, 80
7, 11939, Note_on_c, 1, 60, 0
7, 12000, Note_on_c, 1, 62, 80
7, 12179, Note_on_c, 1, 62, 0
7, 12240, Note_on_c, 1, 55, 80
7, 12479, Note_on_c, 1, 55, 0
7, 12720, Note_on_c, 1, 62, 44
7, 12944, Note_on_c, 1, 62, 0
7, 12960, Note_on_c, 1, 64, 44
7, 13184, Note_on_c, 1, 64, 0
7, 13200, Note_on_c, 1, 60, 44
7, 13424, Note_on_c, 1, 60, 0
7, 13440, Note_on_c, 1, 62, 44
7, 13664, Note_on_c, 1, 62, 0
7, 13680, Note_on_c, 1, 55, 44
7, 14400, Note_on_c, 1, 43, 44
7, 17279, Note_on_c, 1, 55, 0
7, 17279, Note_on_c, 1, 43, 0
7, 20160, Note_on_c, 1, 64, 80
7, 20160, Note_on_c, 1, 67, 80
7, 20864, Note_on_c, 1, 64, 0
7, 20864, Note_on_c, 1, 67, 0
7, 20880, Note_on_c, 1, 62, 80
7, 20880, Note_on_c, 1, 65, 80
7, 21359, Note_on_c, 1, 62, 0
7, 21359, Note_on_c, 1, 65, 0
7, 23040, Note_on_c, 1, 62, 80
7, 23040, Note_on_c, 1, 65, 80
7, 23504, Note_on_c, 1, 62, 0
7, 23504, Note_on_c, 1, 65, 0
7, 23520, Note_on_c, 1, 55, 80
7, 23520, Note_on_c, 1, 62, 80
7, 23744, Note_on_c, 1, 55, 0
7, 23744, Note_on_c, 1, 62, 0
7, 23760, Note_on_c, 1, 64, 80
7, 23760, Note_on_c, 1, 60, 80
7, 23984, Note_on_c, 1, 64, 0
7, 23984, Note_on_c, 1, 60, 0
7, 24000, Note_on_c, 1, 67, 80
7, 24000, Note_on_c, 1, 64, 80
7, 24239, Note_on_c, 1, 67, 0
7, 24239, Note_on_c, 1, 64, 0
7, 27360, Note_on_c, 1, 67, 80
7, 27360, Note_on_c, 1, 64, 80
7, 28064, Note_on_c, 1, 67, 0
7, 28064, Note_on_c, 1, 64, 0
7, 28080, Note_on_c, 1, 62, 80
7, 28080, Note_on_c, 1, 65, 80
7, 28259, Note_on_c, 1, 62, 0
7, 28259, Note_on_c, 1, 65, 0
7, 28320, Note_on_c, 1, 55, 80
7, 28320, Note_on_c, 1, 62, 80
7, 28499, Note_on_c, 1, 55, 0
7, 28499, Note_on_c, 1, 62, 0
7, 28560, Note_on_c, 1, 64, 80
7, 28560, Note_on_c, 1, 60, 80
7, 28739, Note_on_c, 1, 64, 0
7, 28739, Note_on_c, 1, 60, 0
7, 28800, Note_on_c, 1, 60, 80
7, 28800, Note_on_c, 1, 65, 80
7, 28979, Note_on_c, 1, 60, 0
7, 28979, Note_on_c, 1, 65, 0
7, 29040, Note_on_c, 1, 62, 80
7, 29219, Note_on_c, 1, 62, 0
7, 29280, Note_on_c, 1, 64, 80
7, 29459, Note_on_c, 1, 64, 0
7, 29520, Note_on_c, 1, 60, 80
7, 29759, Note_on_c, 1, 60, 0
7, 30000, Note_on_c, 1, 64, 44
7, 30224, Note_on_c, 1, 64, 0
7, 30240, Note_on_c, 1, 65, 44
7, 30464, Note_on_c, 1, 65, 0
7, 30480, Note_on_c, 1, 62, 44
7, 30704, Note_on_c, 1, 62, 0
7, 30720, Note_on_c, 1, 64, 44
7, 30944, Note_on_c, 1, 64, 0
7, 30960, Note_on_c, 1, 60, 44
7, 31680, Note_on_c, 1, 48, 44
7, 34799, Note_on_c, 1, 60, 0
7, 34799, Note_on_c, 1, 48, 0
7, 37440, Note_on_c, 1, 48, 80
7, 37440, Note_on_c, 1, 60, 80
7, 38864, Note_on_c, 1, 48, 0
7, 38864, Note_on_c, 1, 60, 0
7, 38880, Note_on_c, 1, 62, 80
7, 38880, Note_on_c, 1, 55, 80
7, 39104, Note_on_c, 1, 62, 0
7, 39104, Note_on_c, 1, 55, 0
7, 39120, Note_on_c, 1, 55, 80
7, 39120, Note_on_c, 1, 62, 80
7, 39344, Note_on_c, 1, 55, 0
7, 39344, Note_on_c, 1, 62, 0
7, 39360, Note_on_c, 1, 62, 80
7, 39360, Note_on_c, 1, 55, 80
7, 39584, Note_on_c, 1, 62, 0
7, 39584, Note_on_c, 1, 55, 0
7, 39600, Note_on_c, 1, 52, 80
7, 39600, Note_on_c, 1, 60, 80
7, 40079, Note_on_c, 1, 52, 0
7, 40079, Note_on_c, 1, 60, 0
7, 40320, Note_on_c, 1, 67, 80
7, 40320, Note_on_c, 1, 64, 80
7, 41024, Note_on_c, 1, 67, 0
7, 41024, Note_on_c, 1, 64, 0
7, 41040, Note_on_c, 1, 65, 80
7, 41040, Note_on_c, 1, 62, 80
7, 41519, Note_on_c, 1, 65, 0
7, 41519, Note_on_c, 1, 62, 0
7, 43200, Note_on_c, 1, 62, 80
7, 43200, Note_on_c, 1, 65, 80
7, 43664, Note_on_c, 1, 62, 0
7, 43664, Note_on_c, 1, 65, 0
7, 43680, Note_on_c, 1, 62, 80
7, 43680, Note_on_c, 1, 55, 80
7, 43904, Note_on_c, 1, 62, 0
7, 43904, Note_on_c, 1, 55, 0
7, 43920, Note_on_c, 1, 60, 80
7, 43920, Note_on_c, 1, 64, 80
7, 44144, Note_on_c, 1, 60, 0
7, 44144, Note_on_c, 1, 64, 0
7, 44160, Note_on_c, 1, 67, 80
7, 44160, Note_on_c, 1, 64, 80
7, 44399, Note_on_c, 1, 67, 0
7, 44399, Note_on_c, 1, 64, 0
7, 47520, Note_on_c, 1, 67, 80
7, 47520, Note_on_c, 1, 64, 80
7, 48224, Note_on_c, 1, 67, 0
7, 48224, Note_on_c, 1, 64, 0
7, 48240, Note_on_c, 1, 65, 80
7, 48240, Note_on_c, 1, 62, 80
7, 48419, Note_on_c, 1, 65, 0
7, 48419, Note_on_c, 1, 62, 0
7, 48480, Note_on_c, 1, 55, 80
7, 48480, Note_on_c, 1, 62, 80
7, 48659, Note_on_c, 1, 55, 0
7, 48659, Note_on_c, 1, 62, 0
7, 48720, Note_on_c, 1, 60, 80
7, 48720, Note_on_c, 1, 64, 80
7, 48899, Note_on_c, 1, 60, 0
7, 48899, Note_on_c, 1, 64, 0
7, 48960, Note_on_c, 1, 60, 80
7, 48960, Note_on_c, 1, 65, 80
7, 49139, Note_on_c, 1, 60, 0
7, 49139, Note_on_c, 1, 65, 0
7, 49200, Note_on_c, 1, 62, 80
7, 49379, Note_on_c, 1, 62, 0
7, 49440, Note_on_c, 1, 64, 80
7, 49619, Note_on_c, 1, 64, 0
7, 49680, Note_on_c, 1, 60, 80
7, 49919, Note_on_c, 1, 60, 0
7, 50160, Note_on_c, 1, 64, 44
7, 50384, Note_on_c, 1, 64, 0
7, 50400, Note_on_c, 1, 65, 44
7, 50624, Note_on_c, 1, 65, 0
7, 50640, Note_on_c, 1, 62, 44
7, 50864, Note_on_c, 1, 62, 0
7, 50880, Note_on_c, 1, 64, 44
7, 51104, Note_on_c, 1, 64, 0
7, 51120, Note_on_c, 1, 60, 44
7, 51840, Note_on_c, 1, 48, 44
7, 54959, Note_on_c, 1, 60, 0
7, 54959, Note_on_c, 1, 48, 0
7, 57600, Note_on_c, 1, 48, 80
7, 57600, Note_on_c, 1, 60, 80
7, 59024, Note_on_c, 1, 48, 0
7, 59024, Note_on_c, 1, 60, 0
7, 59040, Note_on_c, 1, 55, 80
7, 59040, Note_on_c, 1, 62, 80
7, 59264, Note_on_c, 1, 55, 0
7, 59264, Note_on_c, 1, 62, 0
7, 59280, Note_on_c, 1, 62, 80
7, 59280, Note_on_c, 1, 55, 80
7, 59504, Note_on_c, 1, 62, 0
7, 59504, Note_on_c, 1, 55, 0
7, 59520, Note_on_c, 1, 55, 80
7, 59520, Note_on_c, 1, 62, 80
7, 59744, Note_on_c, 1, 55, 0
7, 59744, Note_on_c, 1, 62, 0
7, 59760, Note_on_c, 1, 52, 80
7, 59760, Note_on_c, 1, 60, 80
7, 60239, Note_on_c, 1, 52, 0
7, 60239, Note_on_c, 1, 60, 0
7, 89280, Note_on_c, 1, 64, 80
7, 89280, Note_on_c, 1, 67, 80
7, 89984, Note_on_c, 1, 64, 0
7, 89984, Note_on_c, 1, 67, 0
7, 90000, Note_on_c, 1, 65, 80
7, 90000, Note_on_c, 1, 62, 80
7, 90224, Note_on_c, 1, 65, 0
7, 90224, Note_on_c, 1, 62, 0
7, 90240, Note_on_c, 1, 55, 80
7, 90240, Note_on_c, 1, 62, 80
7, 90464, Note_on_c, 1, 55, 0
7, 90464, Note_on_c, 1, 62, 0
7, 90480, Note_on_c, 1, 55, 80
7, 90480, Note_on_c, 1, 62, 80
7, 90704, Note_on_c, 1, 55, 0
7, 90704, Note_on_c, 1, 62, 0
7, 90720, Note_on_c, 1, 60, 80
7, 90720, Note_on_c, 1, 64, 80
7, 90899, Note_on_c, 1, 60, 0
7, 90899, Note_on_c, 1, 64, 0
7, 90960, Note_on_c, 1, 60, 80
7, 91139, Note_on_c, 1, 60, 0
7, 91200, Note_on_c, 1, 62, 80
7, 91379, Note_on_c, 1, 62, 0
7, 91440, Note_on_c, 1, 55, 80
7, 91679, Note_on_c, 1, 55, 0
7, 91920, Note_on_c, 1, 62, 44
7, 92144, Note_on_c, 1, 62, 0
7, 92160, Note_on_c, 1, 64, 44
7, 92384, Note_on_c, 1, 64, 0
7, 92400, Note_on_c, 1, 60, 44
7, 92624, Note_on_c, 1, 60, 0
7, 92640, Note_on_c, 1, 62, 44
7, 92864, Note_on_c, 1, 62, 0
7, 92880, Note_on_c, 1, 55, 44
7, 93600, Note_on_c, 1, 43, 44
7, 96479, Note_on_c, 1, 55, 0
7, 96479, Note_on_c, 1, 43, 0
7, 99360, Note_on_c, 1, 64, 80
7, 99360, Note_on_c, 1, 67, 80
7, 100064, Note_on_c, 1, 64, 0
7, 100064, Note_on_c, 1, 67, 0
7, 100080, Note_on_c, 1, 62, 80
7, 100080, Note_on_c, 1, 65, 80
7, 100559, Note_on_c, 1, 62, 0
7, 100559, Note_on_c, 1, 65, 0
7, 102240, Note_on_c, 1, 65, 80
7, 102240, Note_on_c, 1, 62, 80
7, 102704, Note_on_c, 1, 65, 0
7, 102704, Note_on_c, 1, 62, 0
7, 102720, Note_on_c, 1, 62, 80
7, 102720, Note_on_c, 1, 55, 80
7, 102944, Note_on_c, 1, 62, 0
7, 102944, Note_on_c, 1, 55, 0
7, 102960, Note_on_c, 1, 64, 80
7, 102960, Note_on_c, 1, 60, 80
7, 103184, Note_on_c, 1, 64, 0
7, 103184, Note_on_c, 1, 60, 0
7, 103200, Note_on_c, 1, 67, 80
7, 103200, Note_on_c, 1, 64, 80
7, 103439, Note_on_c, 1, 67, 0
7, 103439, Note_on_c, 1, 64, 0
7, 106560, Note_on_c, 1, 67, 80
7, 106560, Note_on_c, 1, 64, 80
7, 107264, Note_on_c, 1, 67, 0
7, 107264, Note_on_c, 1, 64, 0
7, 107280, Note_on_c, 1, 62, 80
7, 107280, Note_on_c, 1, 65, 80
7, 107459, Note_on_c, 1, 62, 0
7, 107459, Note_on_c, 1, 65, 0
7, 107520, Note_on_c, 1, 55, 80
7, 107520, Note_on_c, 1, 62, 80
7, 107699, Note_on_c, 1, 55, 0
7, 107699, Note_on_c, 1, 62, 0
7, 107760, Note_on_c, 1, 64, 80
7, 107760, Note_on_c, 1, 60, 80
7, 107939, Note_on_c, 1, 64, 0
7, 107939, Note_on_c, 1, 60, 0
7, 108000, Note_on_c, 1, 65, 80
7, 108000, Note_on_c, 1, 60, 80
7, 108179, Note_on_c, 1, 65, 0
7, 108179, Note_on_c, 1, 60, 0
7, 108240, Note_on_c, 1, 62, 80
7, 108419, Note_on_c, 1, 62, 0
7, 108480, Note_on_c, 1, 64, 80
7, 108659, Note_on_c, 1, 64, 0
7, 108720, Note_on_c, 1, 60, 80
7, 108959, Note_on_c, 1, 60, 0
7, 109200, Note_on_c, 1, 64, 44
7, 109424, Note_on_c, 1, 64, 0
7, 109440, Note_on_c, 1, 65, 44
7, 109664, Note_on_c, 1, 65, 0
7, 109680, Note_on_c, 1, 62, 44
7, 109904, Note_on_c, 1, 62, 0
7, 109920, Note_on_c, 1, 64, 44
7, 110144, Note_on_c, 1, 64, 0
7, 110160, Note_on_c, 1, 60, 44
7, 110880, Note_on_c, 1, 48, 44
7, 113999, Note_on_c, 1, 60, 0
7, 113999, Note_on_c, 1, 48, 0
7, 116640, Note_on_c, 1, 60, 80
7, 116640, Note_on_c, 1, 48, 80
7, 118064, Note_on_c, 1, 60, 0
7, 118064, Note_on_c, 1, 48, 0
7, 118080, Note_on_c, 1, 62, 80
7, 118080, Note_on_c, 1, 55, 80
7, 118304, Note_on_c, 1, 62, 0
7, 118304, Note_on_c, 1, 55, 0
7, 118320, Note_on_c, 1, 62, 80
7, 118320, Note_on_c, 1, 55, 80
7, 118544, Note_on_c, 1, 62, 0
7, 118544, Note_on_c, 1, 55, 0
7, 118560, Note_on_c, 1, 62, 80
7, 118560, Note_on_c, 1, 55, 80
7, 118784, Note_on_c, 1, 62, 0
7, 118784, Note_on_c, 1, 55, 0
7, 118800, Note_on_c, 1, 60, 80
7, 118800, Note_on_c, 1, 52, 80
7, 119279, Note_on_c, 1, 60, 0
7, 119279, Note_on_c, 1, 52, 0
7, 119279, End_track
8, 0, Start_track
8, 0, Title_t, "Trumpet in C"
8, 0, MIDI_port, 0
8, 0, Control_c, 2, 121, 0
8, 0, Program_c, 2, 56
8, 0, Control_c, 2, 7, 112
8, 0, Control_c, 2, 10, 60
8, 0, Control_c, 2, 11, 127
8, 0, Note_on_c, 2, 67, 80
8, 0, Note_on_c, 2, 64, 80
8, 239, Note_on_c, 2, 67, 0
8, 239, Note_on_c, 2, 64, 0
8, 960, Note_on_c, 2, 67, 80
8, 960, Note_on_c, 2, 74, 80
8, 1184, Note_on_c, 2, 67, 0
8, 1184, Note_on_c, 2, 74, 0
8, 1200, Note_on_c, 2, 74, 80
8, 1200, Note_on_c, 2, 67, 80
8, 1424, Note_on_c, 2, 74, 0
8, 1424, Note_on_c, 2, 67, 0
8, 1440, Note_on_c, 2, 76, 80
8, 1440, Note_on_c, 2, 60, 80
8, 1619, Note_on_c, 2, 76, 0
8, 1619, Note_on_c, 2, 60, 0
8, 1680, Note_on_c, 2, 72, 80
8, 1859, Note_on_c, 2, 72, 0
8, 1920, Note_on_c, 2, 74, 80
8, 2099, Note_on_c, 2, 74, 0
8, 2160, Note_on_c, 2, 67, 80
8, 2399, Note_on_c, 2, 67, 0
8, 10080, Note_on_c, 2, 67, 80
8, 10080, Note_on_c, 2, 64, 80
8, 10319, Note_on_c, 2, 67, 0
8, 10319, Note_on_c, 2, 64, 0
8, 11040, Note_on_c, 2, 67, 80
8, 11040, Note_on_c, 2, 74, 80
8, 11264, Note_on_c, 2, 67, 0
8, 11264, Note_on_c, 2, 74, 0
8, 11280, Note_on_c, 2, 74, 80
8, 11280, Note_on_c, 2, 67, 80
8, 11504, Note_on_c, 2, 74, 0
8, 11504, Note_on_c, 2, 67, 0
8, 11520, Note_on_c, 2, 76, 80
8, 11520, Note_on_c, 2, 60, 80
8, 11699, Note_on_c, 2, 76, 0
8, 11699, Note_on_c, 2, 60, 0
8, 11760, Note_on_c, 2, 72, 80
8, 11939, Note_on_c, 2, 72, 0
8, 12000, Note_on_c, 2, 74, 80
8, 12179, Note_on_c, 2, 74, 0
8, 12240, Note_on_c, 2, 67, 80
8, 12479, Note_on_c, 2, 67, 0
8, 27360, Note_on_c, 2, 67, 80
8, 27360, Note_on_c, 2, 64, 80
8, 27599, Note_on_c, 2, 67, 0
8, 27599, Note_on_c, 2, 64, 0
8, 28320, Note_on_c, 2, 67, 80
8, 28320, Note_on_c, 2, 74, 80
8, 28544, Note_on_c, 2, 67, 0
8, 28544, Note_on_c, 2, 74, 0
8, 28560, Note_on_c, 2, 72, 80
8, 28560, Note_on_c, 2, 76, 80
8, 28784, Note_on_c, 2, 72, 0
8, 28784, Note_on_c, 2, 76, 0
8, 28800, Note_on_c, 2, 77, 80
8, 28800, Note_on_c, 2, 60, 80
8, 28979, Note_on_c, 2, 77, 0
8, 29039, Note_on_c, 2, 60, 0
8, 29040, Note_on_c, 2, 74, 80
8, 29219, Note_on_c, 2, 74, 0
8, 29280, Note_on_c, 2, 67, 80
8, 29280, Note_on_c, 2, 76, 80
8, 29459, Note_on_c, 2, 76, 0
8, 29504, Note_on_c, 2, 67, 0
8, 29520, Note_on_c, 2, 72, 80
8, 29520, Note_on_c, 2, 64, 80
8, 29744, Note_on_c, 2, 64, 0
8, 29759, Note_on_c, 2, 72, 0
8, 29760, Note_on_c, 2, 60, 80
8, 29999, Note_on_c, 2, 60, 0
8, 37440, Note_on_c, 2, 60, 80
8, 37440, Note_on_c, 2, 72, 80
8, 38864, Note_on_c, 2, 60, 0
8, 38864, Note_on_c, 2, 72, 0
8, 38880, Note_on_c, 2, 67, 80
8, 38880, Note_on_c, 2, 74, 80
8, 39104, Note_on_c, 2, 67, 0
8, 39104, Note_on_c, 2, 74, 0
8, 39120, Note_on_c, 2, 67, 80
8, 39120, Note_on_c, 2, 74, 80
8, 39344, Note_on_c, 2, 67, 0
8, 39344, Note_on_c, 2, 74, 0
8, 39360, Note_on_c, 2, 74, 80
8, 39360, Note_on_c, 2, 67, 80
8, 39584, Note_on_c, 2, 74, 0
8, 39584, Note_on_c, 2, 67, 0
8, 39600, Note_on_c, 2, 64, 80
8, 39600, Note_on_c, 2, 72, 80
8, 40079, Note_on_c, 2, 64, 0
8, 40079, Note_on_c, 2, 72, 0
8, 47520, Note_on_c, 2, 67, 80
8, 47520, Note_on_c, 2, 64, 80
8, 47759, Note_on_c, 2, 67, 0
8, 47759, Note_on_c, 2, 64, 0
8, 48480, Note_on_c, 2, 74, 80
8, 48480, Note_on_c, 2, 67, 80
8, 48704, Note_on_c, 2, 74, 0
8, 48704, Note_on_c, 2, 67, 0
8, 48720, Note_on_c, 2, 72, 80
8, 48720, Note_on_c, 2, 76, 80
8, 48944, Note_on_c, 2, 72, 0
8, 48944, Note_on_c, 2, 76, 0
8, 48960, Note_on_c, 2, 77, 80
8, 48960, Note_on_c, 2, 60, 80
8, 49139, Note_on_c, 2, 77, 0
8, 49199, Note_on_c, 2, 60, 0
8, 49200, Note_on_c, 2, 74, 80
8, 49379, Note_on_c, 2, 74, 0
8, 49440, Note_on_c, 2, 76, 80
8, 49440, Note_on_c, 2, 67, 80
8, 49619, Note_on_c, 2, 76, 0
8, 49664, Note_on_c, 2, 67, 0
8, 49680, Note_on_c, 2, 64, 80
8, 49680, Note_on_c, 2, 72, 80
8, 49904, Note_on_c, 2, 64, 0
8, 49919, Note_on_c, 2, 72, 0
8, 49920, Note_on_c, 2, 60, 80
8, 50159, Note_on_c, 2, 60, 0
8, 57600, Note_on_c, 2, 72, 80
8, 57600, Note_on_c, 2, 60, 80
8, 59024, Note_on_c, 2, 72, 0
8, 59024, Note_on_c, 2, 60, 0
8, 59040, Note_on_c, 2, 67, 80
8, 59040, Note_on_c, 2, 74, 80
8, 59264, Note_on_c, 2, 67, 0
8, 59264, Note_on_c, 2, 74, 0
8, 59280, Note_on_c, 2, 67, 80
8, 59280, Note_on_c, 2, 74, 80
8, 59504, Note_on_c, 2, 67, 0
8, 59504, Note_on_c, 2, 74, 0
8, 59520, Note_on_c, 2, 74, 80
8, 59520, Note_on_c, 2, 67, 80
8, 59744, Note_on_c, 2, 74, 0
8, 59744, Note_on_c, 2, 67, 0
8, 59760, Note_on_c, 2, 64, 80
8, 59760, Note_on_c, 2, 72, 80
8, 60239, Note_on_c, 2, 64, 0
8, 60239, Note_on_c, 2, 72, 0
8, 89280, Note_on_c, 2, 64, 80
8, 89280, Note_on_c, 2, 67, 80
8, 89519, Note_on_c, 2, 64, 0
8, 89519, Note_on_c, 2, 67, 0
8, 90240, Note_on_c, 2, 67, 80
8, 90240, Note_on_c, 2, 74, 80
8, 90464, Note_on_c, 2, 67, 0
8, 90464, Note_on_c, 2, 74, 0
8, 90480, Note_on_c, 2, 74, 80
8, 90480, Note_on_c, 2, 67, 80
8, 90704, Note_on_c, 2, 74, 0
8, 90704, Note_on_c, 2, 67, 0
8, 90720, Note_on_c, 2, 60, 80
8, 90720, Note_on_c, 2, 76, 80
8, 90899, Note_on_c, 2, 60, 0
8, 90899, Note_on_c, 2, 76, 0
8, 90960, Note_on_c, 2, 72, 80
8, 91139, Note_on_c, 2, 72, 0
8, 91200, Note_on_c, 2, 74, 80
8, 91379, Note_on_c, 2, 74, 0
8, 91440, Note_on_c, 2, 67, 80
8, 91679, Note_on_c, 2, 67, 0
8, 106560, Note_on_c, 2, 67, 80
8, 106560, Note_on_c, 2, 64, 80
8, 106799, Note_on_c, 2, 67, 0
8, 106799, Note_on_c, 2, 64, 0
8, 107520, Note_on_c, 2, 67, 80
8, 107520, Note_on_c, 2, 74, 80
8, 107744, Note_on_c, 2, 67, 0
8, 107744, Note_on_c, 2, 74, 0
8, 107760, Note_on_c, 2, 76, 80
8, 107760, Note_on_c, 2, 72, 80
8, 107984, Note_on_c, 2, 76, 0
8, 107984, Note_on_c, 2, 72, 0
8, 108000, Note_on_c, 2, 60, 80
8, 108000, Note_on_c, 2, 77, 80
8, 108179, Note_on_c, 2, 77, 0
8, 108239, Note_on_c, 2, 60, 0
8, 108240, Note_on_c, 2, 74, 80
8, 108419, Note_on_c, 2, 74, 0
8, 108480, Note_on_c, 2, 67, 80
8, 108480, Note_on_c, 2, 76, 80
8, 108659, Note_on_c, 2, 76, 0
8, 108704, Note_on_c, 2, 67, 0
8, 108720, Note_on_c, 2, 64, 80
8, 108720, Note_on_c, 2, 72, 80
8, 108944, Note_on_c, 2, 64, 0
8, 108959, Note_on_c, 2, 72, 0
8, 108960, Note_on_c, 2, 60, 80
8, 109199, Note_on_c, 2, 60, 0
8, 116640, Note_on_c, 2, 72, 80
8, 116640, Note_on_c, 2, 60, 80
8, 118064, Note_on_c, 2, 72, 0
8, 118064, Note_on_c, 2, 60, 0
8, 118080, Note_on_c, 2, 67, 80
8, 118080, Note_on_c, 2, 74, 80
8, 118304, Note_on_c, 2, 67, 0
8, 118304, Note_on_c, 2, 74, 0
8, 118320, Note_on_c, 2, 67, 80
8, 118320, Note_on_c, 2, 74, 80
8, 118544, Note_on_c, 2, 67, 0
8, 118544, Note_on_c, 2, 74, 0
8, 118560, Note_on_c, 2, 67, 80
8, 118560, Note_on_c, 2, 74, 80
8, 118784, Note_on_c, 2, 67, 0
8, 118784, Note_on_c, 2, 74, 0
8, 118800, Note_on_c, 2, 72, 80
8, 118800, Note_on_c, 2, 64, 80
8, 119279, Note_on_c, 2, 72, 0
8, 119279, Note_on_c, 2, 64, 0
8, 119279, End_track
9, 0, Start_track
9, 0, Title_t, "Violin I"
9, 0, MIDI_port, 0
9, 0, Control_c, 11, 121, 0
9, 0, Program_c, 11, 48
9, 0, Control_c, 11, 7, 96
9, 0, Control_c, 11, 10, 48
9, 0, Control_c, 11, 11, 127
9, 0, Note_on_c, 11, 79, 80
9, 479, Note_on_c, 11, 79, 0
9, 480, Note_on_c, 11, 76, 80
9, 704, Note_on_c, 11, 76, 0
9, 720, Note_on_c, 11, 77, 80
9, 959, Note_on_c, 11, 77, 0
9, 960, Note_on_c, 11, 74, 80
9, 1184, Note_on_c, 11, 74, 0
9, 1200, Note_on_c, 11, 74, 80
9, 1229, Note_on_c, 11, 74, 0
9, 1230, Note_on_c, 11, 76, 80
9, 1259, Note_on_c, 11, 76, 0
9, 1260, Note_on_c, 11, 74, 80
9, 1289, Note_on_c, 11, 74, 0
9, 1290, Note_on_c, 11, 76, 80
9, 1319, Note_on_c, 11, 76, 0
9, 1320, Note_on_c, 11, 74, 80
9, 1359, Note_on_c, 11, 74, 0
9, 1360, Note_on_c, 11, 72, 80
9, 1399, Note_on_c, 11, 72, 0
9, 1400, Note_on_c, 11, 74, 80
9, 1439, Note_on_c, 11, 74, 0
9, 1440, Note_on_c, 11, 76, 80
9, 1619, Note_on_c, 11, 76, 0
9, 1680, Note_on_c, 11, 72, 80
9, 1859, Note_on_c, 11, 72, 0
9, 1920, Note_on_c, 11, 74, 80
9, 2099, Note_on_c, 11, 74, 0
9, 2160, Note_on_c, 11, 67, 80
9, 2399, Note_on_c, 11, 67, 0
9, 4080, Note_on_c, 11, 64, 44
9, 4304, Note_on_c, 11, 64, 0
9, 4320, Note_on_c, 11, 65, 44
9, 4799, Note_on_c, 11, 65, 0
9, 4800, Note_on_c, 11, 69, 44
9, 5024, Note_on_c, 11, 69, 0
9, 5040, Note_on_c, 11, 67, 44
9, 5504, Note_on_c, 11, 67, 0
9, 5520, Note_on_c, 11, 72, 44
9, 5639, Note_on_c, 11, 72, 0
9, 5640, Note_on_c, 11, 67, 44
9, 5744, Note_on_c, 11, 67, 0
9, 5760, Note_on_c, 11, 65, 44
9, 6239, Note_on_c, 11, 65, 0
9, 6240, Note_on_c, 11, 69, 44
9, 6464, Note_on_c, 11, 69, 0
9, 6480, Note_on_c, 11, 67, 44
9, 6944, Note_on_c, 11, 67, 0
9, 6960, Note_on_c, 11, 72, 44
9, 7079, Note_on_c, 11, 72, 0
9, 7080, Note_on_c, 11, 76, 44
9, 7184, Note_on_c, 11, 76, 0
9, 7200, Note_on_c, 11, 76, 44
9, 7259, Note_on_c, 11, 76, 0
9, 7260, Note_on_c, 11, 74, 44
9, 7424, Note_on_c, 11, 74, 0
9, 7440, Note_on_c, 11, 74, 44
9, 7664, Note_on_c, 11, 74, 0
9, 7680, Note_on_c, 11, 72, 44
9, 7799, Note_on_c, 11, 72, 0
9, 7800, Note_on_c, 11, 71, 44
9, 7904, Note_on_c, 11, 71, 0
9, 7920, Note_on_c, 11, 71, 44
9, 7979, Note_on_c, 11, 71, 0
9, 7980, Note_on_c, 11, 69, 44
9, 8144, Note_on_c, 11, 69, 0
9, 8160, Note_on_c, 11, 69, 44
9, 8384, Note_on_c, 11, 69, 0
9, 8400, Note_on_c, 11, 71, 44
9, 8519, Note_on_c, 11, 71, 0
9, 8520, Note_on_c, 11, 72, 44
9, 8624, Note_on_c, 11, 72, 0
9, 8640, Note_on_c, 11, 74, 44
9, 8699, Note_on_c, 11, 74, 0
9, 8700, Note_on_c, 11, 72, 44
9, 8864, Note_on_c, 11, 72, 0
9, 8880, Note_on_c, 11, 72, 44
9, 9104, Note_on_c, 11, 72, 0
9, 9120, Note_on_c, 11, 71, 44
9, 9239, Note_on_c, 11, 71, 0
9, 9240, Note_on_c, 11, 69, 44
9, 9344, Note_on_c, 11, 69, 0
9, 9360, Note_on_c, 11, 67, 44
9, 9599, Note_on_c, 11, 67, 0
9, 10080, Note_on_c, 11, 79, 80
9, 10559, Note_on_c, 11, 79, 0
9, 10560, Note_on_c, 11, 76, 80
9, 10784, Note_on_c, 11, 76, 0
9, 10800, Note_on_c, 11, 77, 80
9, 11039, Note_on_c, 11, 77, 0
9, 11040, Note_on_c, 11, 74, 80
9, 11264, Note_on_c, 11, 74, 0
9, 11280, Note_on_c, 11, 74, 80
9, 11309, Note_on_c, 11, 74, 0
9, 11310, Note_on_c, 11, 76, 80
9, 11339, Note_on_c, 11, 76, 0
9, 11340, Note_on_c, 11, 74, 80
9, 11369, Note_on_c, 11, 74, 0
9, 11370, Note_on_c, 11, 76, 80
9, 11399, Note_on_c, 11, 76, 0
9, 11400, Note_on_c, 11, 74, 80
9, 11439, Note_on_c, 11, 74, 0
9, 11440, Note_on_c, 11, 72, 80
9, 11479, Note_on_c, 11, 72, 0
9, 11480, Note_on_c, 11, 74, 80
9, 11519, Note_on_c, 11, 74, 0
9, 11520, Note_on_c, 11, 76, 80
9, 11699, Note_on_c, 11, 76, 0
9, 11760, Note_on_c, 11, 72, 80
9, 11939, Note_on_c, 11, 72, 0
9, 12000, Note_on_c, 11, 74, 80
9, 12179, Note_on_c, 11, 74, 0
9, 12240, Note_on_c, 11, 67, 80
9, 12479, Note_on_c, 11, 67, 0
9, 14160, Note_on_c, 11, 64, 44
9, 14384, Note_on_c, 11, 64, 0
9, 14400, Note_on_c, 11, 65, 44
9, 14879, Note_on_c, 11, 65, 0
9, 14880, Note_on_c, 11, 69, 44
9, 15104, Note_on_c, 11, 69, 0
9, 15120, Note_on_c, 11, 67, 44
9, 15584, Note_on_c, 11, 67, 0
9, 15600, Note_on_c, 11, 72, 44
9, 15719, Note_on_c, 11, 72, 0
9, 15720, Note_on_c, 11, 67, 44
9, 15824, Note_on_c, 11, 67, 0
9, 15840, Note_on_c, 11, 65, 44
9, 16319, Note_on_c, 11, 65, 0
9, 16320, Note_on_c, 11, 69, 44
9, 16544, Note_on_c, 11, 69, 0
9, 16560, Note_on_c, 11, 67, 44
9, 17024, Note_on_c, 11, 67, 0
9, 17040, Note_on_c, 11, 72, 44
9, 17159, Note_on_c, 11, 72, 0
9, 17160, Note_on_c, 11, 76, 44
9, 17264, Note_on_c, 11, 76, 0
9, 17280, Note_on_c, 11, 76, 44
9, 17339, Note_on_c, 11, 76, 0
9, 17340, Note_on_c, 11, 74, 44
9, 17504, Note_on_c, 11, 74, 0
9, 17520, Note_on_c, 11, 74, 44
9, 17744, Note_on_c, 11, 74, 0
9, 17760, Note_on_c, 11, 72, 44
9, 17879, Note_on_c, 11, 72, 0
9, 17880, Note_on_c, 11, 71, 44
9, 17984, Note_on_c, 11, 71, 0
9, 18000, Note_on_c, 11, 71, 44
9, 18059, Note_on_c, 11, 71, 0
9, 18060, Note_on_c, 11, 69, 44
9, 18224, Note_on_c, 11, 69, 0
9, 18240, Note_on_c, 11, 69, 44
9, 18464, Note_on_c, 11, 69, 0
9, 18480, Note_on_c, 11, 71, 44
9, 18599, Note_on_c, 11, 71, 0
9, 18600, Note_on_c, 11, 72, 44
9, 18704, Note_on_c, 11, 72, 0
9, 18720, Note_on_c, 11, 74, 44
9, 18779, Note_on_c, 11, 74, 0
9, 18780, Note_on_c, 11, 72, 44
9, 18944, Note_on_c, 11, 72, 0
9, 18960, Note_on_c, 11, 72, 44
9, 19184, Note_on_c, 11, 72, 0
9, 19200, Note_on_c, 11, 71, 44
9, 19319, Note_on_c, 11, 71, 0
9, 19320, Note_on_c, 11, 69, 44
9, 19424, Note_on_c, 11, 69, 0
9, 19440, Note_on_c, 11, 67, 44
9, 19679, Note_on_c, 11, 67, 0
9, 20160, Note_on_c, 11, 79, 80
9, 20639, Note_on_c, 11, 79, 0
9, 20640, Note_on_c, 11, 76, 80
9, 20864, Note_on_c, 11, 76, 0
9, 20880, Note_on_c, 11, 77, 80
9, 21119, Note_on_c, 11, 77, 0
9, 21120, Note_on_c, 11, 81, 80
9, 21344, Note_on_c, 11, 81, 0
9, 21360, Note_on_c, 11, 74, 44
9, 21389, Note_on_c, 11, 74, 0
9, 21390, Note_on_c, 11, 76, 44
9, 21419, Note_on_c, 11, 76, 0
9, 21420, Note_on_c, 11, 74, 44
9, 21449, Note_on_c, 11, 74, 0
9, 21450, Note_on_c, 11, 76, 44
9, 21479, Note_on_c, 11, 76, 0
9, 21480, Note_on_c, 11, 74, 44
9, 21519, Note_on_c, 11, 74, 0
9, 21520, Note_on_c, 11, 72, 44
9, 21559, Note_on_c, 11, 72, 0
9, 21560, Note_on_c, 11, 74, 44
9, 21599, Note_on_c, 11, 74, 0
9, 21600, Note_on_c, 11, 69, 44
9, 21779, Note_on_c, 11, 69, 0
9, 21840, Note_on_c, 11, 69, 44
9, 22079, Note_on_c, 11, 69, 0
9, 22080, Note_on_c, 11, 77, 44
9, 22304, Note_on_c, 11, 77, 0
9, 22320, Note_on_c, 11, 76, 44
9, 22679, Note_on_c, 11, 76, 0
9, 22680, Note_on_c, 11, 73, 44
9, 22784, Note_on_c, 11, 73, 0
9, 22800, Note_on_c, 11, 74, 44
9, 22979, Note_on_c, 11, 74, 0
9, 23040, Note_on_c, 11, 77, 80
9, 23519, Note_on_c, 11, 77, 0
9, 23520, Note_on_c, 11, 74, 80
9, 23744, Note_on_c, 11, 74, 0
9, 23760, Note_on_c, 11, 76, 80
9, 23999, Note_on_c, 11, 76, 0
9, 24000, Note_on_c, 11, 79, 80
9, 24224, Note_on_c, 11, 79, 0
9, 24240, Note_on_c, 11, 72, 44
9, 24269, Note_on_c, 11, 72, 0
9, 24270, Note_on_c, 11, 74, 44
9, 24299, Note_on_c, 11, 74, 0
9, 24300, Note_on_c, 11, 72, 44
9, 24329, Note_on_c, 11, 72, 0
9, 24330, Note_on_c, 11, 74, 44
9, 24359, Note_on_c, 11, 74, 0
9, 24360, Note_on_c, 11, 72, 44
9, 24399, Note_on_c, 11, 72, 0
9, 24400, Note_on_c, 11, 71, 44
9, 24439, Note_on_c, 11, 71, 0
9, 24440, Note_on_c, 11, 72, 44
9, 24479, Note_on_c, 11, 72, 0
9, 24480, Note_on_c, 11, 69, 44
9, 24659, Note_on_c, 11, 69, 0
9, 24720, Note_on_c, 11, 69, 44
9, 24959, Note_on_c, 11, 69, 0
9, 24960, Note_on_c, 11, 74, 44
9, 25184, Note_on_c, 11, 74, 0
9, 25200, Note_on_c, 11, 72, 44
9, 25439, Note_on_c, 11, 72, 0
9, 25440, Note_on_c, 11, 71, 44
9, 25664, Note_on_c, 11, 71, 0
9, 25680, Note_on_c, 11, 76, 44
9, 25859, Note_on_c, 11, 76, 0
9, 25920, Note_on_c, 11, 74, 44
9, 25979, Note_on_c, 11, 74, 0
9, 25980, Note_on_c, 11, 72, 44
9, 26144, Note_on_c, 11, 72, 0
9, 26160, Note_on_c, 11, 71, 44
9, 26264, Note_on_c, 11, 71, 0
9, 26280, Note_on_c, 11, 69, 44
9, 26384, Note_on_c, 11, 69, 0
9, 26400, Note_on_c, 11, 77, 44
9, 26624, Note_on_c, 11, 77, 0
9, 26640, Note_on_c, 11, 76, 44
9, 27119, Note_on_c, 11, 76, 0
9, 27120, Note_on_c, 11, 74, 44
9, 27344, Note_on_c, 11, 74, 0
9, 27360, Note_on_c, 11, 79, 80
9, 27839, Note_on_c, 11, 79, 0
9, 27840, Note_on_c, 11, 76, 80
9, 28064, Note_on_c, 11, 76, 0
9, 28080, Note_on_c, 11, 77, 80
9, 28319, Note_on_c, 11, 77, 0
9, 28320, Note_on_c, 11, 74, 80
9, 28544, Note_on_c, 11, 74, 0
9, 28560, Note_on_c, 11, 76, 80
9, 28589, Note_on_c, 11, 76, 0
9, 28590, Note_on_c, 11, 77, 80
9, 28619, Note_on_c, 11, 77, 0
9, 28620, Note_on_c, 11, 76, 80
9, 28649, Note_on_c, 11, 76, 0
9, 28650, Note_on_c, 11, 77, 80
9, 28679, Note_on_c, 11, 77, 0
9, 28680, Note_on_c, 11, 76, 80
9, 28719, Note_on_c, 11, 76, 0
9, 28720, Note_on_c, 11, 74, 80
9, 28759, Note_on_c, 11, 74, 0
9, 28760, Note_on_c, 11, 76, 80
9, 28799, Note_on_c, 11, 76, 0
9, 28800, Note_on_c, 11, 77, 80
9, 28979, Note_on_c, 11, 77, 0
9, 29040, Note_on_c, 11, 74, 80
9, 29219, Note_on_c, 11, 74, 0
9, 29280, Note_on_c, 11, 76, 80
9, 29459, Note_on_c, 11, 76, 0
9, 29520, Note_on_c, 11, 72, 80
9, 29759, Note_on_c, 11, 72, 0
9, 31440, Note_on_c, 11, 69, 44
9, 31664, Note_on_c, 11, 69, 0
9, 31680, Note_on_c, 11, 70, 44
9, 31919, Note_on_c, 11, 70, 0
9, 31920, Note_on_c, 11, 69, 44
9, 32159, Note_on_c, 11, 69, 0
9, 32160, Note_on_c, 11, 68, 44
9, 32384, Note_on_c, 11, 68, 0
9, 32400, Note_on_c, 11, 69, 44
9, 32519, Note_on_c, 11, 69, 0
9, 32520, Note_on_c, 11, 72, 44
9, 32639, Note_on_c, 11, 72, 0
9, 32640, Note_on_c, 11, 77, 44
9, 32759, Note_on_c, 11, 77, 0
9, 32760, Note_on_c, 11, 72, 44
9, 32879, Note_on_c, 11, 72, 0
9, 32880, Note_on_c, 11, 69, 44
9, 32999, Note_on_c, 11, 69, 0
9, 33000, Note_on_c, 11, 72, 44
9, 33104, Note_on_c, 11, 72, 0
9, 33120, Note_on_c, 11, 70, 44
9, 33359, Note_on_c, 11, 70, 0
9, 33360, Note_on_c, 11, 69, 44
9, 33599, Note_on_c, 11, 69, 0
9, 33600, Note_on_c, 11, 68, 44
9, 33824, Note_on_c, 11, 68, 0
9, 33840, Note_on_c, 11, 69, 44
9, 33959, Note_on_c, 11, 69, 0
9, 33960, Note_on_c, 11, 72, 44
9, 34079, Note_on_c, 11, 72, 0
9, 34080, Note_on_c, 11, 71, 44
9, 34199, Note_on_c, 11, 71, 0
9, 34200, Note_on_c, 11, 72, 44
9, 34319, Note_on_c, 11, 72, 0
9, 34320, Note_on_c, 11, 71, 44
9, 34439, Note_on_c, 11, 71, 0
9, 34440, Note_on_c, 11, 69, 44
9, 34544, Note_on_c, 11, 69, 0
9, 34560, Note_on_c, 11, 69, 44
9, 34619, Note_on_c, 11, 69, 0
9, 34620, Note_on_c, 11, 67, 44
9, 34784, Note_on_c, 11, 67, 0
9, 34800, Note_on_c, 11, 67, 44
9, 35024, Note_on_c, 11, 67, 0
9, 35040, Note_on_c, 11, 65, 44
9, 35159, Note_on_c, 11, 65, 0
9, 35160, Note_on_c, 11, 64, 44
9, 35264, Note_on_c, 11, 64, 0
9, 35280, Note_on_c, 11, 64, 44
9, 35339, Note_on_c, 11, 64, 0
9, 35340, Note_on_c, 11, 62, 44
9, 35504, Note_on_c, 11, 62, 0
9, 35520, Note_on_c, 11, 62, 44
9, 35744, Note_on_c, 11, 62, 0
9, 35760, Note_on_c, 11, 64, 44
9, 35879, Note_on_c, 11, 64, 0
9, 35880, Note_on_c, 11, 65, 44
9, 35984, Note_on_c, 11, 65, 0
9, 36000, Note_on_c, 11, 67, 44
9, 36059, Note_on_c, 11, 67, 0
9, 36060, Note_on_c, 11, 65, 44
9, 36224, Note_on_c, 11, 65, 0
9, 36240, Note_on_c, 11, 65, 44
9, 36464, Note_on_c, 11, 65, 0
9, 36480, Note_on_c, 11, 64, 44
9, 36599, Note_on_c, 11, 64, 0
9, 36600, Note_on_c, 11, 62, 44
9, 36704, Note_on_c, 11, 62, 0
9, 36720, Note_on_c, 11, 60, 80
9, 36884, Note_on_c, 11, 60, 0
9, 36900, Note_on_c, 11, 67, 80
9, 36951, Note_on_c, 11, 67, 0
9, 36960, Note_on_c, 11, 72, 80
9, 37124, Note_on_c, 11, 72, 0
9, 37140, Note_on_c, 11, 74, 80
9, 37191, Note_on_c, 11, 74, 0
9, 37200, Note_on_c, 11, 76, 80
9, 37364, Note_on_c, 11, 76, 0
9, 37380, Note_on_c, 11, 77, 80
9, 37431, Note_on_c, 11, 77, 0
9, 37440, Note_on_c, 11, 81, 80
9, 37499, Note_on_c, 11, 81, 0
9, 37500, Note_on_c, 11, 79, 80
9, 37664, Note_on_c, 11, 79, 0
9, 37680, Note_on_c, 11, 79, 80
9, 37904, Note_on_c, 11, 79, 0
9, 37920, Note_on_c, 11, 77, 80
9, 38039, Note_on_c, 11, 77, 0
9, 38040, Note_on_c, 11, 76, 80
9, 38144, Note_on_c, 11, 76, 0
9, 38160, Note_on_c, 11, 76, 80
9, 38219, Note_on_c, 11, 76, 0
9, 38220, Note_on_c, 11, 74, 80
9, 38384, Note_on_c, 11, 74, 0
9, 38400, Note_on_c, 11, 74, 80
9, 38624, Note_on_c, 11, 74, 0
9, 38640, Note_on_c, 11, 76, 80
9, 38759, Note_on_c, 11, 76, 0
9, 38760, Note_on_c, 11, 77, 80
9, 38864, Note_on_c, 11, 77, 0
9, 38880, Note_on_c, 11, 79, 80
9, 38939, Note_on_c, 11, 79, 0
9, 38940, Note_on_c, 11, 77, 80
9, 39104, Note_on_c, 11, 77, 0
9, 39120, Note_on_c, 11, 77, 80
9, 39344, Note_on_c, 11, 77, 0
9, 39360, Note_on_c, 11, 76, 80
9, 39479, Note_on_c, 11, 76, 0
9, 39480, Note_on_c, 11, 74, 80
9, 39584, Note_on_c, 11, 74, 0
9, 39600, Note_on_c, 11, 55, 80
9, 39600, Note_on_c, 11, 64, 80
9, 39600, Note_on_c, 11, 72, 80
9, 40079, Note_on_c, 11, 55, 0
9, 40079, Note_on_c, 11, 64, 0
9, 40079, Note_on_c, 11, 72, 0
9, 40320, Note_on_c, 11, 79, 80
9, 40799, Note_on_c, 11, 79, 0
9, 40800, Note_on_c, 11, 76, 80
9, 41024, Note_on_c, 11, 76, 0
9, 41040, Note_on_c, 11, 77, 80
9, 41279, Note_on_c, 11, 77, 0
9, 41280, Note_on_c, 11, 81, 80
9, 41504, Note_on_c, 11, 81, 0
9, 41520, Note_on_c, 11, 74, 44
9, 41549, Note_on_c, 11, 74, 0
9, 41550, Note_on_c, 11, 76, 44
9, 41579, Note_on_c, 11, 76, 0
9, 41580, Note_on_c, 11, 74, 44
9, 41609, Note_on_c, 11, 74, 0
9, 41610, Note_on_c, 11, 76, 44
9, 41639, Note_on_c, 11, 76, 0
9, 41640, Note_on_c, 11, 74, 44
9, 41679, Note_on_c, 11, 74, 0
9, 41680, Note_on_c, 11, 72, 44
9, 41719, Note_on_c, 11, 72, 0
9, 41720, Note_on_c, 11, 74, 44
9, 41759, Note_on_c, 11, 74, 0
9, 41760, Note_on_c, 11, 69, 44
9, 41939, Note_on_c, 11, 69, 0
9, 42000, Note_on_c, 11, 69, 44
9, 42239, Note_on_c, 11, 69, 0
9, 42240, Note_on_c, 11, 77, 44
9, 42464, Note_on_c, 11, 77, 0
9, 42480, Note_on_c, 11, 76, 44
9, 42839, Note_on_c, 11, 76, 0
9, 42840, Note_on_c, 11, 73, 44
9, 42944, Note_on_c, 11, 73, 0
9, 42960, Note_on_c, 11, 74, 44
9, 43139, Note_on_c, 11, 74, 0
9, 43200, Note_on_c, 11, 77, 80
9, 43679, Note_on_c, 11, 77, 0
9, 43680, Note_on_c, 11, 74, 80
9, 43904, Note_on_c, 11, 74, 0
9, 43920, Note_on_c, 11, 76, 80
9, 44159, Note_on_c, 11, 76, 0
9, 44160, Note_on_c, 11, 79, 80
9, 44384, Note_on_c, 11, 79, 0
9, 44400, Note_on_c, 11, 72, 44
9, 44429, Note_on_c, 11, 72, 0
9, 44430, Note_on_c, 11, 74, 44
9, 44459, Note_on_c, 11, 74, 0
9, 44460, Note_on_c, 11, 72, 44
9, 44489, Note_on_c, 11, 72, 0
9, 44490, Note_on_c, 11, 74, 44
9, 44519, Note_on_c, 11, 74, 0
9, 44520, Note_on_c, 11, 72, 44
9, 44559, Note_on_c, 11, 72, 0
9, 44560, Note_on_c, 11, 71, 44
9, 44599, Note_on_c, 11, 71, 0
9, 44600, Note_on_c, 11, 72, 44
9, 44639, Note_on_c, 11, 72, 0
9, 44640, Note_on_c, 11, 69, 44
9, 44819, Note_on_c, 11, 69, 0
9, 44880, Note_on_c, 11, 69, 44
9, 45119, Note_on_c, 11, 69, 0
9, 45120, Note_on_c, 11, 74, 44
9, 45344, Note_on_c, 11, 74, 0
9, 45360, Note_on_c, 11, 72, 44
9, 45599, Note_on_c, 11, 72, 0
9, 45600, Note_on_c, 11, 71, 44
9, 45824, Note_on_c, 11, 71, 0
9, 45840, Note_on_c, 11, 76, 44
9, 46019, Note_on_c, 11, 76, 0
9, 46080, Note_on_c, 11, 74, 44
9, 46139, Note_on_c, 11, 74, 0
9, 46140, Note_on_c, 11, 72, 44
9, 46304, Note_on_c, 11, 72, 0
9, 46320, Note_on_c, 11, 71, 44
9, 46424, Note_on_c, 11, 71, 0
9, 46440, Note_on_c, 11, 69, 44
9, 46544, Note_on_c, 11, 69, 0
9, 46560, Note_on_c, 11, 77, 44
9, 46784, Note_on_c, 11, 77, 0
9, 46800, Note_on_c, 11, 76, 44
9, 47279, Note_on_c, 11, 76, 0
9, 47280, Note_on_c, 11, 74, 44
9, 47504, Note_on_c, 11, 74, 0
9, 47520, Note_on_c, 11, 79, 80
9, 47999, Note_on_c, 11, 79, 0
9, 48000, Note_on_c, 11, 76, 80
9, 48224, Note_on_c, 11, 76, 0
9, 48240, Note_on_c, 11, 77, 80
9, 48479, Note_on_c, 11, 77, 0
9, 48480, Note_on_c, 11, 74, 80
9, 48704, Note_on_c, 11, 74, 0
9, 48720, Note_on_c, 11, 76, 80
9, 48749, Note_on_c, 11, 76, 0
9, 48750, Note_on_c, 11, 77, 80
9, 48779, Note_on_c, 11, 77, 0
9, 48780, Note_on_c, 11, 76, 80
9, 48809, Note_on_c, 11, 76, 0
9, 48810, Note_on_c, 11, 77, 80
9, 48839, Note_on_c, 11, 77, 0
9, 48840, Note_on_c, 11, 76, 80
9, 48879, Note_on_c, 11, 76, 0
9, 48880, Note_on_c, 11, 74, 80
9, 48919, Note_on_c, 11, 74, 0
9, 48920, Note_on_c, 11, 76, 80
9, 48959, Note_on_c, 11, 76, 0
9, 48960, Note_on_c, 11, 77, 80
9, 49139, Note_on_c, 11, 77, 0
9, 49200, Note_on_c, 11, 74, 80
9, 49379, Note_on_c, 11, 74, 0
9, 49440, Note_on_c, 11, 76, 80
9, 49619, Note_on_c, 11, 76, 0
9, 49680, Note_on_c, 11, 72, 80
9, 49919, Note_on_c, 11, 72, 0
9, 51600, Note_on_c, 11, 69, 44
9, 51824, Note_on_c, 11, 69, 0
9, 51840, Note_on_c, 11, 70, 44
9, 52079, Note_on_c, 11, 70, 0
9, 52080, Note_on_c, 11, 69, 44
9, 52319, Note_on_c, 11, 69, 0
9, 52320, Note_on_c, 11, 68, 44
9, 52544, Note_on_c, 11, 68, 0
9, 52560, Note_on_c, 11, 69, 44
9, 52679, Note_on_c, 11, 69, 0
9, 52680, Note_on_c, 11, 72, 44
9, 52799, Note_on_c, 11, 72, 0
9, 52800, Note_on_c, 11, 77, 44
9, 52919, Note_on_c, 11, 77, 0
9, 52920, Note_on_c, 11, 72, 44
9, 53039, Note_on_c, 11, 72, 0
9, 53040, Note_on_c, 11, 69, 44
9, 53159, Note_on_c, 11, 69, 0
9, 53160, Note_on_c, 11, 72, 44
9, 53264, Note_on_c, 11, 72, 0
9, 53280, Note_on_c, 11, 70, 44
9, 53519, Note_on_c, 11, 70, 0
9, 53520, Note_on_c, 11, 69, 44
9, 53759, Note_on_c, 11, 69, 0
9, 53760, Note_on_c, 11, 68, 44
9, 53984, Note_on_c, 11, 68, 0
9, 54000, Note_on_c, 11, 69, 44
9, 54119, Note_on_c, 11, 69, 0
9, 54120, Note_on_c, 11, 72, 44
9, 54239, Note_on_c, 11, 72, 0
9, 54240, Note_on_c, 11, 71, 44
9, 54359, Note_on_c, 11, 71, 0
9, 54360, Note_on_c, 11, 72, 44
9, 54479, Note_on_c, 11, 72, 0
9, 54480, Note_on_c, 11, 71, 44
9, 54599, Note_on_c, 11, 71, 0
9, 54600, Note_on_c, 11, 69, 44
9, 54704, Note_on_c, 11, 69, 0
9, 54720, Note_on_c, 11, 69, 44
9, 54779, Note_on_c, 11, 69, 0
9, 54780, Note_on_c, 11, 67, 44
9, 54944, Note_on_c, 11, 67, 0
9, 54960, Note_on_c, 11, 67, 44
9, 55184, Note_on_c, 11, 67, 0
9, 55200, Note_on_c, 11, 65, 44
9, 55319, Note_on_c, 11, 65, 0
9, 55320, Note_on_c, 11, 64, 44
9, 55424, Note_on_c, 11, 64, 0
9, 55440, Note_on_c, 11, 64, 44
9, 55499, Note_on_c, 11, 64, 0
9, 55500, Note_on_c, 11, 62, 44
9, 55664, Note_on_c, 11, 62, 0
9, 55680, Note_on_c, 11, 62, 44
9, 55904, Note_on_c, 11, 62, 0
9, 55920, Note_on_c, 11, 64, 44
9, 56039, Note_on_c, 11, 64, 0
9, 56040, Note_on_c, 11, 65, 44
9, 56144, Note_on_c, 11, 65, 0
9, 56160, Note_on_c, 11, 67, 44
9, 56219, Note_on_c, 11, 67, 0
9, 56220, Note_on_c, 11, 65, 44
9, 56384, Note_on_c, 11, 65, 0
9, 56400, Note_on_c, 11, 65, 44
9, 56624, Note_on_c, 11, 65, 0
9, 56640, Note_on_c, 11, 64, 44
9, 56759, Note_on_c, 11, 64, 0
9, 56760, Note_on_c, 11, 62, 44
9, 56864, Note_on_c, 11, 62, 0
9, 56880, Note_on_c, 11, 60, 80
9, 57044, Note_on_c, 11, 60, 0
9, 57060, Note_on_c, 11, 67, 80
9, 57111, Note_on_c, 11, 67, 0
9, 57120, Note_on_c, 11, 72, 80
9, 57284, Note_on_c, 11, 72, 0
9, 57300, Note_on_c, 11, 74, 80
9, 57351, Note_on_c, 11, 74, 0
9, 57360, Note_on_c, 11, 76, 80
9, 57524, Note_on_c, 11, 76, 0
9, 57540, Note_on_c, 11, 77, 80
9, 57591, Note_on_c, 11, 77, 0
9, 57600, Note_on_c, 11, 81, 80
9, 57659, Note_on_c, 11, 81, 0
9, 57660, Note_on_c, 11, 79, 80
9, 57824, Note_on_c, 11, 79, 0
9, 57840, Note_on_c, 11, 79, 80
9, 58064, Note_on_c, 11, 79, 0
9, 58080, Note_on_c, 11, 77, 80
9, 58199, Note_on_c, 11, 77, 0
9, 58200, Note_on_c, 11, 76, 80
9, 58304, Note_on_c, 11, 76, 0
9, 58320, Note_on_c, 11, 76, 80
9, 58379, Note_on_c, 11, 76, 0
9, 58380, Note_on_c, 11, 74, 80
9, 58544, Note_on_c, 11, 74, 0
9, 58560, Note_on_c, 11, 74, 80
9, 58784, Note_on_c, 11, 74, 0
9, 58800, Note_on_c, 11, 76, 80
9, 58919, Note_on_c, 11, 76, 0
9, 58920, Note_on_c, 11, 77, 80
9, 59024, Note_on_c, 11, 77, 0
9, 59040, Note_on_c, 11, 79, 80
9, 59099, Note_on_c, 11, 79, 0
9, 59100, Note_on_c, 11, 77, 80
9, 59264, Note_on_c, 11, 77, 0
9, 59280, Note_on_c, 11, 77, 80
9, 59504, Note_on_c, 11, 77, 0
9, 59520, Note_on_c, 11, 76, 80
9, 59639, Note_on_c, 11, 76, 0
9, 59640, Note_on_c, 11, 74, 80
9, 59744, Note_on_c, 11, 74, 0
9, 59760, Note_on_c, 11, 72, 80
9, 59760, Note_on_c, 11, 55, 80
9, 59760, Note_on_c, 11, 64, 80
9, 60239, Note_on_c, 11, 72, 0
9, 60239, Note_on_c, 11, 55, 0
9, 60239, Note_on_c, 11, 64, 0
9, 60480, Note_on_c, 11, 84, 44
9, 60704, Note_on_c, 11, 84, 0
9, 60720, Note_on_c, 11, 81, 44
9, 60884, Note_on_c, 11, 81, 0
9, 60900, Note_on_c, 11, 82, 44
9, 60951, Note_on_c, 11, 82, 0
9, 60960, Note_on_c, 11, 84, 44
9, 61184, Note_on_c, 11, 84, 0
9, 61200, Note_on_c, 11, 86, 44
9, 61319, Note_on_c, 11, 86, 0
9, 61440, Note_on_c, 11, 82, 44
9, 61559, Note_on_c, 11, 82, 0
9, 61680, Note_on_c, 11, 79, 44
9, 61799, Note_on_c, 11, 79, 0
9, 61920, Note_on_c, 11, 81, 44
9, 62144, Note_on_c, 11, 81, 0
9, 62160, Note_on_c, 11, 77, 44
9, 62324, Note_on_c, 11, 77, 0
9, 62340, Note_on_c, 11, 79, 44
9, 62391, Note_on_c, 11, 79, 0
9, 62400, Note_on_c, 11, 81, 44
9, 62624, Note_on_c, 11, 81, 0
9, 62640, Note_on_c, 11, 82, 44
9, 62759, Note_on_c, 11, 82, 0
9, 62880, Note_on_c, 11, 79, 44
9, 62999, Note_on_c, 11, 79, 0
9, 63120, Note_on_c, 11, 76, 44
9, 63239, Note_on_c, 11, 76, 0
9, 63360, Note_on_c, 11, 77, 44
9, 63584, Note_on_c, 11, 77, 0
9, 63600, Note_on_c, 11, 79, 44
9, 63659, Note_on_c, 11, 79, 0
9, 63660, Note_on_c, 11, 77, 44
9, 63824, Note_on_c, 11, 77, 0
9, 63840, Note_on_c, 11, 76, 44
9, 63944, Note_on_c, 11, 76, 0
9, 63960, Note_on_c, 11, 74, 44
9, 64064, Note_on_c, 11, 74, 0
9, 64080, Note_on_c, 11, 72, 44
9, 64304, Note_on_c, 11, 72, 0
9, 64320, Note_on_c, 11, 74, 44
9, 64379, Note_on_c, 11, 74, 0
9, 64380, Note_on_c, 11, 72, 44
9, 64544, Note_on_c, 11, 72, 0
9, 64560, Note_on_c, 11, 70, 44
9, 64664, Note_on_c, 11, 70, 0
9, 64680, Note_on_c, 11, 69, 44
9, 64784, Note_on_c, 11, 69, 0
9, 64800, Note_on_c, 11, 67, 44
9, 64979, Note_on_c, 11, 67, 0
9, 64980, Note_on_c, 11, 69, 44
9, 65031, Note_on_c, 11, 69, 0
9, 65040, Note_on_c, 11, 70, 44
9, 65264, Note_on_c, 11, 70, 0
9, 65280, Note_on_c, 11, 69, 44
9, 65504, Note_on_c, 11, 69, 0
9, 65520, Note_on_c, 11, 69, 44
9, 65999, Note_on_c, 11, 69, 0
9, 66000, Note_on_c, 11, 67, 44
9, 66224, Note_on_c, 11, 67, 0
9, 66240, Note_on_c, 11, 84, 44
9, 66464, Note_on_c, 11, 84, 0
9, 66480, Note_on_c, 11, 81, 44
9, 66644, Note_on_c, 11, 81, 0
9, 66660, Note_on_c, 11, 82, 44
9, 66711, Note_on_c, 11, 82, 0
9, 66720, Note_on_c, 11, 84, 44
9, 66944, Note_on_c, 11, 84, 0
9, 66960, Note_on_c, 11, 86, 44
9, 67079, Note_on_c, 11, 86, 0
9, 67200, Note_on_c, 11, 82, 44
9, 67319, Note_on_c, 11, 82, 0
9, 67440, Note_on_c, 11, 79, 44
9, 67559, Note_on_c, 11, 79, 0
9, 67680, Note_on_c, 11, 81, 44
9, 67904, Note_on_c, 11, 81, 0
9, 67920, Note_on_c, 11, 77, 44
9, 68084, Note_on_c, 11, 77, 0
9, 68100, Note_on_c, 11, 79, 44
9, 68151, Note_on_c, 11, 79, 0
9, 68160, Note_on_c, 11, 81, 44
9, 68384, Note_on_c, 11, 81, 0
9, 68400, Note_on_c, 11, 82, 44
9, 68519, Note_on_c, 11, 82, 0
9, 68640, Note_on_c, 11, 79, 44
9, 68759, Note_on_c, 11, 79, 0
9, 68880, Note_on_c, 11, 76, 44
9, 68999, Note_on_c, 11, 76, 0
9, 69120, Note_on_c, 11, 77, 44
9, 69344, Note_on_c, 11, 77, 0
9, 69360, Note_on_c, 11, 79, 44
9, 69419, Note_on_c, 11, 79, 0
9, 69420, Note_on_c, 11, 77, 44
9, 69584, Note_on_c, 11, 77, 0
9, 69600, Note_on_c, 11, 76, 44
9, 69704, Note_on_c, 11, 76, 0
9, 69720, Note_on_c, 11, 74, 44
9, 69824, Note_on_c, 11, 74, 0
9, 69840, Note_on_c, 11, 72, 44
9, 70064, Note_on_c, 11, 72, 0
9, 70080, Note_on_c, 11, 74, 44
9, 70139, Note_on_c, 11, 74, 0
9, 70140, Note_on_c, 11, 72, 44
9, 70304, Note_on_c, 11, 72, 0
9, 70320, Note_on_c, 11, 70, 44
9, 70424, Note_on_c, 11, 70, 0
9, 70440, Note_on_c, 11, 69, 44
9, 70544, Note_on_c, 11, 69, 0
9, 70560, Note_on_c, 11, 67, 44
9, 70739, Note_on_c, 11, 67, 0
9, 70740, Note_on_c, 11, 69, 44
9, 70791, Note_on_c, 11, 69, 0
9, 70800, Note_on_c, 11, 70, 44
9, 71024, Note_on_c, 11, 70, 0
9, 71040, Note_on_c, 11, 69, 44
9, 71264, Note_on_c, 11, 69, 0
9, 71280, Note_on_c, 11, 69, 44
9, 71759, Note_on_c, 11, 69, 0
9, 71760, Note_on_c, 11, 67, 44
9, 71984, Note_on_c, 11, 67, 0
9, 72000, Note_on_c, 11, 75, 80
9, 72224, Note_on_c, 11, 75, 0
9, 72240, Note_on_c, 11, 72, 80
9, 72404, Note_on_c, 11, 72, 0
9, 72420, Note_on_c, 11, 74, 80
9, 72471, Note_on_c, 11, 74, 0
9, 72480, Note_on_c, 11, 75, 80
9, 72704, Note_on_c, 11, 75, 0
9, 72720, Note_on_c, 11, 66, 80
9, 72899, Note_on_c, 11, 66, 0
9, 72960, Note_on_c, 11, 67, 80
9, 73139, Note_on_c, 11, 67, 0
9, 73200, Note_on_c, 11, 68, 80
9, 73379, Note_on_c, 11, 68, 0
9, 73440, Note_on_c, 11, 69, 80
9, 73664, Note_on_c, 11, 69, 0
9, 73680, Note_on_c, 11, 65, 80
9, 73844, Note_on_c, 11, 65, 0
9, 73860, Note_on_c, 11, 67, 80
9, 73911, Note_on_c, 11, 67, 0
9, 73920, Note_on_c, 11, 69, 80
9, 74144, Note_on_c, 11, 69, 0
9, 74160, Note_on_c, 11, 59, 80
9, 74339, Note_on_c, 11, 59, 0
9, 74400, Note_on_c, 11, 60, 80
9, 74579, Note_on_c, 11, 60, 0
9, 74880, Note_on_c, 11, 77, 80
9, 75104, Note_on_c, 11, 77, 0
9, 75120, Note_on_c, 11, 79, 80
9, 75179, Note_on_c, 11, 79, 0
9, 75180, Note_on_c, 11, 77, 80
9, 75344, Note_on_c, 11, 77, 0
9, 75360, Note_on_c, 11, 76, 80
9, 75464, Note_on_c, 11, 76, 0
9, 75480, Note_on_c, 11, 74, 80
9, 75584, Note_on_c, 11, 74, 0
9, 75600, Note_on_c, 11, 74, 80
9, 75659, Note_on_c, 11, 74, 0
9, 75660, Note_on_c, 11, 72, 80
9, 75824, Note_on_c, 11, 72, 0
9, 75840, Note_on_c, 11, 74, 80
9, 75899, Note_on_c, 11, 74, 0
9, 75900, Note_on_c, 11, 72, 80
9, 76064, Note_on_c, 11, 72, 0
9, 76080, Note_on_c, 11, 70, 80
9, 76184, Note_on_c, 11, 70, 0
9, 76200, Note_on_c, 11, 69, 80
9, 76304, Note_on_c, 11, 69, 0
9, 76320, Note_on_c, 11, 67, 80
9, 76559, Note_on_c, 11, 67, 0
9, 76560, Note_on_c, 11, 69, 80
9, 76799, Note_on_c, 11, 69, 0
9, 76800, Note_on_c, 11, 70, 80
9, 77024, Note_on_c, 11, 70, 0
9, 77040, Note_on_c, 11, 70, 80
9, 77399, Note_on_c, 11, 70, 0
9, 77400, Note_on_c, 11, 72, 80
9, 77459, Note_on_c, 11, 72, 0
9, 77460, Note_on_c, 11, 70, 80
9, 77519, Note_on_c, 11, 70, 0
9, 77520, Note_on_c, 11, 69, 80
9, 77744, Note_on_c, 11, 69, 0
9, 77760, Note_on_c, 11, 77, 80
9, 77984, Note_on_c, 11, 77, 0
9, 78000, Note_on_c, 11, 79, 80
9, 78059, Note_on_c, 11, 79, 0
9, 78060, Note_on_c, 11, 77, 80
9, 78224, Note_on_c, 11, 77, 0
9, 78240, Note_on_c, 11, 76, 80
9, 78344, Note_on_c, 11, 76, 0
9, 78360, Note_on_c, 11, 74, 80
9, 78464, Note_on_c, 11, 74, 0
9, 78480, Note_on_c, 11, 74, 80
9, 78539, Note_on_c, 11, 74, 0
9, 78540, Note_on_c, 11, 72, 80
9, 78704, Note_on_c, 11, 72, 0
9, 78720, Note_on_c, 11, 74, 80
9, 78779, Note_on_c, 11, 74, 0
9, 78780, Note_on_c, 11, 72, 80
9, 78944, Note_on_c, 11, 72, 0
9, 78960, Note_on_c, 11, 70, 80
9, 79064, Note_on_c, 11, 70, 0
9, 79080, Note_on_c, 11, 69, 80
9, 79184, Note_on_c, 11, 69, 0
9, 79200, Note_on_c, 11, 67, 80
9, 79279, Note_on_c, 11, 67, 0
9, 79280, Note_on_c, 11, 70, 80
9, 79359, Note_on_c, 11, 70, 0
9, 79360, Note_on_c, 11, 74, 80
9, 79427, Note_on_c, 11, 74, 0
9, 79440, Note_on_c, 11, 65, 80
9, 79664, Note_on_c, 11, 65, 0
9, 79680, Note_on_c, 11, 64, 80
9, 79904, Note_on_c, 11, 64, 0
9, 79920, Note_on_c, 11, 64, 80
9, 80399, Note_on_c, 11, 64, 0
9, 80400, Note_on_c, 11, 65, 80
9, 80624, Note_on_c, 11, 65, 0
9, 80640, Note_on_c, 11, 75, 80
9, 80864, Note_on_c, 11, 75, 0
9, 80880, Note_on_c, 11, 72, 80
9, 81044, Note_on_c, 11, 72, 0
9, 81060, Note_on_c, 11, 74, 80
9, 81111, Note_on_c, 11, 74, 0
9, 81120, Note_on_c, 11, 75, 80
9, 81344, Note_on_c, 11, 75, 0
9, 81360, Note_on_c, 11, 66, 80
9, 81539, Note_on_c, 11, 66, 0
9, 81600, Note_on_c, 11, 67, 80
9, 81779, Note_on_c, 11, 67, 0
9, 81840, Note_on_c, 11, 68, 80
9, 82019, Note_on_c, 11, 68, 0
9, 82080, Note_on_c, 11, 69, 80
9, 82304, Note_on_c, 11, 69, 0
9, 82320, Note_on_c, 11, 65, 80
9, 82484, Note_on_c, 11, 65, 0
9, 82500, Note_on_c, 11, 67, 80
9, 82551, Note_on_c, 11, 67, 0
9, 82560, Note_on_c, 11, 69, 80
9, 82784, Note_on_c, 11, 69, 0
9, 82800, Note_on_c, 11, 59, 80
9, 82979, Note_on_c, 11, 59, 0
9, 83040, Note_on_c, 11, 60, 80
9, 83219, Note_on_c, 11, 60, 0
9, 83520, Note_on_c, 11, 77, 80
9, 83744, Note_on_c, 11, 77, 0
9, 83760, Note_on_c, 11, 79, 80
9, 83819, Note_on_c, 11, 79, 0
9, 83820, Note_on_c, 11, 77, 80
9, 83984, Note_on_c, 11, 77, 0
9, 84000, Note_on_c, 11, 76, 80
9, 84104, Note_on_c, 11, 76, 0
9, 84120, Note_on_c, 11, 74, 80
9, 84224, Note_on_c, 11, 74, 0
9, 84240, Note_on_c, 11, 74, 80
9, 84299, Note_on_c, 11, 74, 0
9, 84300, Note_on_c, 11, 72, 80
9, 84464, Note_on_c, 11, 72, 0
9, 84480, Note_on_c, 11, 74, 80
9, 84539, Note_on_c, 11, 74, 0
9, 84540, Note_on_c, 11, 72, 80
9, 84704, Note_on_c, 11, 72, 0
9, 84720, Note_on_c, 11, 70, 80
9, 84824, Note_on_c, 11, 70, 0
9, 84840, Note_on_c, 11, 69, 80
9, 84944, Note_on_c, 11, 69, 0
9, 84960, Note_on_c, 11, 67, 80
9, 85199, Note_on_c, 11, 67, 0
9, 85200, Note_on_c, 11, 69, 80
9, 85439, Note_on_c, 11, 69, 0
9, 85440, Note_on_c, 11, 70, 80
9, 85664, Note_on_c, 11, 70, 0
9, 85680, Note_on_c, 11, 70, 80
9, 86039, Note_on_c, 11, 70, 0
9, 86040, Note_on_c, 11, 72, 80
9, 86099, Note_on_c, 11, 72, 0
9, 86100, Note_on_c, 11, 70, 80
9, 86159, Note_on_c, 11, 70, 0
9, 86160, Note_on_c, 11, 69, 80
9, 86384, Note_on_c, 11, 69, 0
9, 86400, Note_on_c, 11, 77, 80
9, 86624, Note_on_c, 11, 77, 0
9, 86640, Note_on_c, 11, 79, 80
9, 86699, Note_on_c, 11, 79, 0
9, 86700, Note_on_c, 11, 77, 80
9, 86864, Note_on_c, 11, 77, 0
9, 86880, Note_on_c, 11, 76, 80
9, 86984, Note_on_c, 11, 76, 0
9, 87000, Note_on_c, 11, 74, 80
9, 87104, Note_on_c, 11, 74, 0
9, 87120, Note_on_c, 11, 74, 80
9, 87179, Note_on_c, 11, 74, 0
9, 87180, Note_on_c, 11, 72, 80
9, 87344, Note_on_c, 11, 72, 0
9, 87360, Note_on_c, 11, 74, 80
9, 87419, Note_on_c, 11, 74, 0
9, 87420, Note_on_c, 11, 72, 80
9, 87584, Note_on_c, 11, 72, 0
9, 87600, Note_on_c, 11, 70, 80
9, 87704, Note_on_c, 11, 70, 0
9, 87720, Note_on_c, 11, 69, 80
9, 87824, Note_on_c, 11, 69, 0
9, 87840, Note_on_c, 11, 67, 80
9, 87919, Note_on_c, 11, 67, 0
9, 87920, Note_on_c, 11, 70, 80
9, 87999, Note_on_c, 11, 70, 0
9, 88000, Note_on_c, 11, 74, 80
9, 88067, Note_on_c, 11, 74, 0
9, 88080, Note_on_c, 11, 65, 80
9, 88304, Note_on_c, 11, 65, 0
9, 88320, Note_on_c, 11, 64, 80
9, 88544, Note_on_c, 11, 64, 0
9, 88560, Note_on_c, 11, 64, 80
9, 89039, Note_on_c, 11, 64, 0
9, 89040, Note_on_c, 11, 65, 80
9, 89264, Note_on_c, 11, 65, 0
9, 89280, Note_on_c, 11, 79, 80
9, 89759, Note_on_c, 11, 79, 0
9, 89760, Note_on_c, 11, 76, 80
9, 89984, Note_on_c, 11, 76, 0
9, 90000, Note_on_c, 11, 77, 80
9, 90239, Note_on_c, 11, 77, 0
9, 90240, Note_on_c, 11, 74, 80
9, 90464, Note_on_c, 11, 74, 0
9, 90480, Note_on_c, 11, 74, 80
9, 90509, Note_on_c, 11, 74, 0
9, 90510, Note_on_c, 11, 76, 80
9, 90539, Note_on_c, 11, 76, 0
9, 90540, Note_on_c, 11, 74, 80
9, 90569, Note_on_c, 11, 74, 0
9, 90570, Note_on_c, 11, 76, 80
9, 90599, Note_on_c, 11, 76, 0
9, 90600, Note_on_c, 11, 74, 80
9, 90639, Note_on_c, 11, 74, 0
9, 90640, Note_on_c, 11, 72, 80
9, 90679, Note_on_c, 11, 72, 0
9, 90680, Note_on_c, 11, 74, 80
9, 90719, Note_on_c, 11, 74, 0
9, 90720, Note_on_c, 11, 76, 80
9, 90899, Note_on_c, 11, 76, 0
9, 90960, Note_on_c, 11, 72, 80
9, 91139, Note_on_c, 11, 72, 0
9, 91200, Note_on_c, 11, 74, 80
9, 91379, Note_on_c, 11, 74, 0
9, 91440, Note_on_c, 11, 67, 80
9, 91679, Note_on_c, 11, 67, 0
9, 93360, Note_on_c, 11, 64, 44
9, 93584, Note_on_c, 11, 64, 0
9, 93600, Note_on_c, 11, 65, 44
9, 94079, Note_on_c, 11, 65, 0
9, 94080, Note_on_c, 11, 69, 44
9, 94304, Note_on_c, 11, 69, 0
9, 94320, Note_on_c, 11, 67, 44
9, 94784, Note_on_c, 11, 67, 0
9, 94800, Note_on_c, 11, 72, 44
9, 94919, Note_on_c, 11, 72, 0
9, 94920, Note_on_c, 11, 67, 44
9, 95024, Note_on_c, 11, 67, 0
9, 95040, Note_on_c, 11, 65, 44
9, 95519, Note_on_c, 11, 65, 0
9, 95520, Note_on_c, 11, 69, 44
9, 95744, Note_on_c, 11, 69, 0
9, 95760, Note_on_c, 11, 67, 44
9, 96224, Note_on_c, 11, 67, 0
9, 96240, Note_on_c, 11, 72, 44
9, 96359, Note_on_c, 11, 72, 0
9, 96360, Note_on_c, 11, 76, 44
9, 96464, Note_on_c, 11, 76, 0
9, 96480, Note_on_c, 11, 76, 44
9, 96539, Note_on_c, 11, 76, 0
9, 96540, Note_on_c, 11, 74, 44
9, 96704, Note_on_c, 11, 74, 0
9, 96720, Note_on_c, 11, 74, 44
9, 96944, Note_on_c, 11, 74, 0
9, 96960, Note_on_c, 11, 72, 44
9, 97079, Note_on_c, 11, 72, 0
9, 97080, Note_on_c, 11, 71, 44
9, 97184, Note_on_c, 11, 71, 0
9, 97200, Note_on_c, 11, 71, 44
9, 97259, Note_on_c, 11, 71, 0
9, 97260, Note_on_c, 11, 69, 44
9, 97424, Note_on_c, 11, 69, 0
9, 97440, Note_on_c, 11, 69, 44
9, 97664, Note_on_c, 11, 69, 0
9, 97680, Note_on_c, 11, 71, 44
9, 97799, Note_on_c, 11, 71, 0
9, 97800, Note_on_c, 11, 72, 44
9, 97904, Note_on_c, 11, 72, 0
9, 97920, Note_on_c, 11, 74, 44
9, 97979, Note_on_c, 11, 74, 0
9, 97980, Note_on_c, 11, 72, 44
9, 98144, Note_on_c, 11, 72, 0
9, 98160, Note_on_c, 11, 72, 44
9, 98384, Note_on_c, 11, 72, 0
9, 98400, Note_on_c, 11, 71, 44
9, 98519, Note_on_c, 11, 71, 0
9, 98520, Note_on_c, 11, 69, 44
9, 98624, Note_on_c, 11, 69, 0
9, 98640, Note_on_c, 11, 67, 44
9, 98879, Note_on_c, 11, 67, 0
9, 99360, Note_on_c, 11, 79, 80
9, 99839, Note_on_c, 11, 79, 0
9, 99840, Note_on_c, 11, 76, 80
9, 100064, Note_on_c, 11, 76, 0
9, 100080, Note_on_c, 11, 77, 80
9, 100319, Note_on_c, 11, 77, 0
9, 100320, Note_on_c, 11, 81, 80
9, 100544, Note_on_c, 11, 81, 0
9, 100560, Note_on_c, 11, 74, 44
9, 100589, Note_on_c, 11, 74, 0
9, 100590, Note_on_c, 11, 76, 44
9, 100619, Note_on_c, 11, 76, 0
9, 100620, Note_on_c, 11, 74, 44
9, 100649, Note_on_c, 11, 74, 0
9, 100650, Note_on_c, 11, 76, 44
9, 100679, Note_on_c, 11, 76, 0
9, 100680, Note_on_c, 11, 74, 44
9, 100719, Note_on_c, 11, 74, 0
9, 100720, Note_on_c, 11, 72, 44
9, 100759, Note_on_c, 11, 72, 0
9, 100760, Note_on_c, 11, 74, 44
9, 100799, Note_on_c, 11, 74, 0
9, 100800, Note_on_c, 11, 69, 44
9, 100979, Note_on_c, 11, 69, 0
9, 101040, Note_on_c, 11, 69, 44
9, 101279, Note_on_c, 11, 69, 0
9, 101280, Note_on_c, 11, 77, 44
9, 101504, Note_on_c, 11, 77, 0
9, 101520, Note_on_c, 11, 76, 44
9, 101879, Note_on_c, 11, 76, 0
9, 101880, Note_on_c, 11, 73, 44
9, 101984, Note_on_c, 11, 73, 0
9, 102000, Note_on_c, 11, 74, 44
9, 102179, Note_on_c, 11, 74, 0
9, 102240, Note_on_c, 11, 77, 80
9, 102719, Note_on_c, 11, 77, 0
9, 102720, Note_on_c, 11, 74, 80
9, 102944, Note_on_c, 11, 74, 0
9, 102960, Note_on_c, 11, 76, 80
9, 103199, Note_on_c, 11, 76, 0
9, 103200, Note_on_c, 11, 79, 80
9, 103424, Note_on_c, 11, 79, 0
9, 103440, Note_on_c, 11, 72, 44
9, 103469, Note_on_c, 11, 72, 0
9, 103470, Note_on_c, 11, 74, 44
9, 103499, Note_on_c, 11, 74, 0
9, 103500, Note_on_c, 11, 72, 44
9, 103529, Note_on_c, 11, 72, 0
9, 103530, Note_on_c, 11, 74, 44
9, 103559, Note_on_c, 11, 74, 0
9, 103560, Note_on_c, 11, 72, 44
9, 103599, Note_on_c, 11, 72, 0
9, 103600, Note_on_c, 11, 71, 44
9, 103639, Note_on_c, 11, 71, 0
9, 103640, Note_on_c, 11, 72, 44
9, 103679, Note_on_c, 11, 72, 0
9, 103680, Note_on_c, 11, 69, 44
9, 103859, Note_on_c, 11, 69, 0
9, 103920, Note_on_c, 11, 69, 44
9, 104159, Note_on_c, 11, 69, 0
9, 104160, Note_on_c, 11, 74, 44
9, 104384, Note_on_c, 11, 74, 0
9, 104400, Note_on_c, 11, 72, 44
9, 104639, Note_on_c, 11, 72, 0
9, 104640, Note_on_c, 11, 71, 44
9, 104864, Note_on_c, 11, 71, 0
9, 104880, Note_on_c, 11, 76, 44
9, 105059, Note_on_c, 11, 76, 0
9, 105120, Note_on_c, 11, 74, 44
9, 105179, Note_on_c, 11, 74, 0
9, 105180, Note_on_c, 11, 72, 44
9, 105344, Note_on_c, 11, 72, 0
9, 105360, Note_on_c, 11, 71, 44
9, 105464, Note_on_c, 11, 71, 0
9, 105480, Note_on_c, 11, 69, 44
9, 105584, Note_on_c, 11, 69, 0
9, 105600, Note_on_c, 11, 77, 44
9, 105824, Note_on_c, 11, 77, 0
9, 105840, Note_on_c, 11, 76, 44
9, 106319, Note_on_c, 11, 76, 0
9, 106320, Note_on_c, 11, 74, 44
9, 106544, Note_on_c, 11, 74, 0
9, 106560, Note_on_c, 11, 79, 80
9, 107039, Note_on_c, 11, 79, 0
9, 107040, Note_on_c, 11, 76, 80
9, 107264, Note_on_c, 11, 76, 0
9, 107280, Note_on_c, 11, 77, 80
9, 107519, Note_on_c, 11, 77, 0
9, 107520, Note_on_c, 11, 74, 80
9, 107744, Note_on_c, 11, 74, 0
9, 107760, Note_on_c, 11, 76, 80
9, 107789, Note_on_c, 11, 76, 0
9, 107790, Note_on_c, 11, 77, 80
9, 107819, Note_on_c, 11, 77, 0
9, 107820, Note_on_c, 11, 76, 80
9, 107849, Note_on_c, 11, 76, 0
9, 107850, Note_on_c, 11, 77, 80
9, 107879, Note_on_c, 11, 77, 0
9, 107880, Note_on_c, 11, 76, 80
9, 107919, Note_on_c, 11, 76, 0
9, 107920, Note_on_c, 11, 74, 80
9, 107959, Note_on_c, 11, 74, 0
9, 107960, Note_on_c, 11, 76, 80
9, 107999, Note_on_c, 11, 76, 0
9, 108000, Note_on_c, 11, 77, 80
9, 108179, Note_on_c, 11, 77, 0
9, 108240, Note_on_c, 11, 74, 80
9, 108419, Note_on_c, 11, 74, 0
9, 108480, Note_on_c, 11, 76, 80
9, 108659, Note_on_c, 11, 76, 0
9, 108720, Note_on_c, 11, 72, 80
9, 108959, Note_on_c, 11, 72, 0
9, 110640, Note_on_c, 11, 69, 44
9, 110864, Note_on_c, 11, 69, 0
9, 110880, Note_on_c, 11, 70, 44
9, 111119, Note_on_c, 11, 70, 0
9, 111120, Note_on_c, 11, 69, 44
9, 111359, Note_on_c, 11, 69, 0
9, 111360, Note_on_c, 11, 68, 44
9, 111584, Note_on_c, 11, 68, 0
9, 111600, Note_on_c, 11, 69, 44
9, 111719, Note_on_c, 11, 69, 0
9, 111720, Note_on_c, 11, 72, 44
9, 111839, Note_on_c, 11, 72, 0
9, 111840, Note_on_c, 11, 77, 44
9, 111959, Note_on_c, 11, 77, 0
9, 111960, Note_on_c, 11, 72, 44
9, 112079, Note_on_c, 11, 72, 0
9, 112080, Note_on_c, 11, 69, 44
9, 112199, Note_on_c, 11, 69, 0
9, 112200, Note_on_c, 11, 72, 44
9, 112304, Note_on_c, 11, 72, 0
9, 112320, Note_on_c, 11, 70, 44
9, 112559, Note_on_c, 11, 70, 0
9, 112560, Note_on_c, 11, 69, 44
9, 112799, Note_on_c, 11, 69, 0
9, 112800, Note_on_c, 11, 68, 44
9, 113024, Note_on_c, 11, 68, 0
9, 113040, Note_on_c, 11, 69, 44
9, 113159, Note_on_c, 11, 69, 0
9, 113160, Note_on_c, 11, 72, 44
9, 113279, Note_on_c, 11, 72, 0
9, 113280, Note_on_c, 11, 71, 44
9, 113399, Note_on_c, 11, 71, 0
9, 113400, Note_on_c, 11, 72, 44
9, 113519, Note_on_c, 11, 72, 0
9, 113520, Note_on_c, 11, 71, 44
9, 113639, Note_on_c, 11, 71, 0
9, 113640, Note_on_c, 11, 69, 44
9, 113744, Note_on_c, 11, 69, 0
9, 113760, Note_on_c, 11, 69, 44
9, 113819, Note_on_c, 11, 69, 0
9, 113820, Note_on_c, 11, 67, 44
9, 113984, Note_on_c, 11, 67, 0
9, 114000, Note_on_c, 11, 67, 44
9, 114224, Note_on_c, 11, 67, 0
9, 114240, Note_on_c, 11, 65, 44
9, 114359, Note_on_c, 11, 65, 0
9, 114360, Note_on_c, 11, 64, 44
9, 114464, Note_on_c, 11, 64, 0
9, 114480, Note_on_c, 11, 64, 44
9, 114539, Note_on_c, 11, 64, 0
9, 114540, Note_on_c, 11, 62, 44
9, 114704, Note_on_c, 11, 62, 0
9, 114720, Note_on_c, 11, 62, 44
9, 114944, Note_on_c, 11, 62, 0
9, 114960, Note_on_c, 11, 64, 44
9, 115079, Note_on_c, 11, 64, 0
9, 115080, Note_on_c, 11, 65, 44
9, 115184, Note_on_c, 11, 65, 0
9, 115200, Note_on_c, 11, 67, 44
9, 115259, Note_on_c, 11, 67, 0
9, 115260, Note_on_c, 11, 65, 44
9, 115424, Note_on_c, 11, 65, 0
9, 115440, Note_on_c, 11, 65, 44
9, 115664, Note_on_c, 11, 65, 0
9, 115680, Note_on_c, 11, 64, 44
9, 115799, Note_on_c, 11, 64, 0
9, 115800, Note_on_c, 11, 62, 44
9, 115904, Note_on_c, 11, 62, 0
9, 115920, Note_on_c, 11, 60, 80
9, 116084, Note_on_c, 11, 60, 0
9, 116100, Note_on_c, 11, 67, 80
9, 116151, Note_on_c, 11, 67, 0
9, 116160, Note_on_c, 11, 72, 80
9, 116324, Note_on_c, 11, 72, 0
9, 116340, Note_on_c, 11, 74, 80
9, 116391, Note_on_c, 11, 74, 0
9, 116400, Note_on_c, 11, 76, 80
9, 116564, Note_on_c, 11, 76, 0
9, 116580, Note_on_c, 11, 77, 80
9, 116631, Note_on_c, 11, 77, 0
9, 116640, Note_on_c, 11, 81, 80
9, 116699, Note_on_c, 11, 81, 0
9, 116700, Note_on_c, 11, 79, 80
9, 116864, Note_on_c, 11, 79, 0
9, 116880, Note_on_c, 11, 79, 80
9, 117104, Note_on_c, 11, 79, 0
9, 117120, Note_on_c, 11, 77, 80
9, 117239, Note_on_c, 11, 77, 0
9, 117240, Note_on_c, 11, 76, 80
9, 117344, Note_on_c, 11, 76, 0
9, 117360, Note_on_c, 11, 76, 80
9, 117419, Note_on_c, 11, 76, 0
9, 117420, Note_on_c, 11, 74, 80
9, 117584, Note_on_c, 11, 74, 0
9, 117600, Note_on_c, 11, 74, 80
9, 117824, Note_on_c, 11, 74, 0
9, 117840, Note_on_c, 11, 76, 80
9, 117959, Note_on_c, 11, 76, 0
9, 117960, Note_on_c, 11, 77, 80
9, 118064, Note_on_c, 11, 77, 0
9, 118080, Note_on_c, 11, 79, 80
9, 118139, Note_on_c, 11, 79, 0
9, 118140, Note_on_c, 11, 77, 80
9, 118304, Note_on_c, 11, 77, 0
9, 118320, Note_on_c, 11, 77, 80
9, 118544, Note_on_c, 11, 77, 0
9, 118560, Note_on_c, 11, 76, 80
9, 118679, Note_on_c, 11, 76, 0
9, 118680, Note_on_c, 11, 74, 80
9, 118784, Note_on_c, 11, 74, 0
9, 118800, Note_on_c, 11, 55, 80
9, 118800, Note_on_c, 11, 72, 80
9, 118800, Note_on_c, 11, 64, 80
9, 119279, Note_on_c, 11, 55, 0
9, 119279, Note_on_c, 11, 72, 0
9, 119279, Note_on_c, 11, 64, 0
9, 119279, End_track
10, 0, Start_track
10, 0, Title_t, "Violin II"
10, 0, MIDI_port, 0
10, 0, Control_c, 12, 121, 0
10, 0, Program_c, 12, 48
10, 0, Control_c, 12, 7, 96
10, 0, Control_c, 12, 10, 24
10, 0, Control_c, 12, 11, 127
10, 0, Note_on_c, 12, 67, 80
10, 479, Note_on_c, 12, 67, 0
10, 480, Note_on_c, 12, 64, 80
10, 704, Note_on_c, 12, 64, 0
10, 720, Note_on_c, 12, 65, 80
10, 959, Note_on_c, 12, 65, 0
10, 960, Note_on_c, 12, 62, 80
10, 1184, Note_on_c, 12, 62, 0
10, 1200, Note_on_c, 12, 62, 80
10, 1229, Note_on_c, 12, 62, 0
10, 1230, Note_on_c, 12, 64, 80
10, 1259, Note_on_c, 12, 64, 0
10, 1260, Note_on_c, 12, 62, 80
10, 1289, Note_on_c, 12, 62, 0
10, 1290, Note_on_c, 12, 64, 80
10, 1319, Note_on_c, 12, 64, 0
10, 1320, Note_on_c, 12, 62, 80
10, 1359, Note_on_c, 12, 62, 0
10, 1360, Note_on_c, 12, 60, 80
10, 1399, Note_on_c, 12, 60, 0
10, 1400, Note_on_c, 12, 62, 80
10, 1439, Note_on_c, 12, 62, 0
10, 1440, Note_on_c, 12, 64, 80
10, 1619, Note_on_c, 12, 64, 0
10, 1680, Note_on_c, 12, 60, 80
10, 1859, Note_on_c, 12, 60, 0
10, 1920, Note_on_c, 12, 62, 80
10, 2099, Note_on_c, 12, 62, 0
10, 2160, Note_on_c, 12, 55, 80
10, 2399, Note_on_c, 12, 55, 0
10, 4560, Note_on_c, 12, 62, 44
10, 4799, Note_on_c, 12, 62, 0
10, 4800, Note_on_c, 12, 64, 44
10, 5039, Note_on_c, 12, 64, 0
10, 5280, Note_on_c, 12, 65, 44
10, 5519, Note_on_c, 12, 65, 0
10, 5520, Note_on_c, 12, 64, 44
10, 5759, Note_on_c, 12, 64, 0
10, 6000, Note_on_c, 12, 62, 44
10, 6239, Note_on_c, 12, 62, 0
10, 6240, Note_on_c, 12, 64, 44
10, 6479, Note_on_c, 12, 64, 0
10, 6720, Note_on_c, 12, 65, 44
10, 6959, Note_on_c, 12, 65, 0
10, 6960, Note_on_c, 12, 64, 44
10, 7184, Note_on_c, 12, 64, 0
10, 7200, Note_on_c, 12, 62, 44
10, 7679, Note_on_c, 12, 62, 0
10, 7680, Note_on_c, 12, 63, 44
10, 7904, Note_on_c, 12, 63, 0
10, 7920, Note_on_c, 12, 64, 44
10, 8144, Note_on_c, 12, 64, 0
10, 8160, Note_on_c, 12, 64, 44
10, 8399, Note_on_c, 12, 64, 0
10, 8640, Note_on_c, 12, 57, 44
10, 8864, Note_on_c, 12, 57, 0
10, 8880, Note_on_c, 12, 57, 44
10, 9104, Note_on_c, 12, 57, 0
10, 9120, Note_on_c, 12, 59, 44
10, 9239, Note_on_c, 12, 59, 0
10, 9240, Note_on_c, 12, 60, 44
10, 9344, Note_on_c, 12, 60, 0
10, 9360, Note_on_c, 12, 59, 44
10, 9599, Note_on_c, 12, 59, 0
10, 10080, Note_on_c, 12, 67, 80
10, 10559, Note_on_c, 12, 67, 0
10, 10560, Note_on_c, 12, 64, 80
10, 10784, Note_on_c, 12, 64, 0
10, 10800, Note_on_c, 12, 65, 80
10, 11039, Note_on_c, 12, 65, 0
10, 11040, Note_on_c, 12, 62, 80
10, 11264, Note_on_c, 12, 62, 0
10, 11280, Note_on_c, 12, 62, 80
10, 11309, Note_on_c, 12, 62, 0
10, 11310, Note_on_c, 12, 64, 80
10, 11339, Note_on_c, 12, 64, 0
10, 11340, Note_on_c, 12, 62, 80
10, 11369, Note_on_c, 12, 62, 0
10, 11370, Note_on_c, 12, 64, 80
10, 11399, Note_on_c, 12, 64, 0
10, 11400, Note_on_c, 12, 62, 80
10, 11439, Note_on_c, 12, 62, 0
10, 11440, Note_on_c, 12, 60, 80
10, 11479, Note_on_c, 12, 60, 0
10, 11480, Note_on_c, 12, 62, 80
10, 11519, Note_on_c, 12, 62, 0
10, 11520, Note_on_c, 12, 64, 80
10, 11699, Note_on_c, 12, 64, 0
10, 11760, Note_on_c, 12, 60, 80
10, 11939, Note_on_c, 12, 60, 0
10, 12000, Note_on_c, 12, 62, 80
10, 12179, Note_on_c, 12, 62, 0
10, 12240, Note_on_c, 12, 55, 80
10, 12479, Note_on_c, 12, 55, 0
10, 14640, Note_on_c, 12, 62, 44
10, 14879, Note_on_c, 12, 62, 0
10, 14880, Note_on_c, 12, 64, 44
10, 15119, Note_on_c, 12, 64, 0
10, 15360, Note_on_c, 12, 65, 44
10, 15599, Note_on_c, 12, 65, 0
10, 15600, Note_on_c, 12, 64, 44
10, 15839, Note_on_c, 12, 64, 0
10, 16080, Note_on_c, 12, 62, 44
10, 16319, Note_on_c, 12, 62, 0
10, 16320, Note_on_c, 12, 64, 44
10, 16559, Note_on_c, 12, 64, 0
10, 16800, Note_on_c, 12, 65, 44
10, 17039, Note_on_c, 12, 65, 0
10, 17040, Note_on_c, 12, 64, 44
10, 17264, Note_on_c, 12, 64, 0
10, 17280, Note_on_c, 12, 62, 44
10, 17759, Note_on_c, 12, 62, 0
10, 17760, Note_on_c, 12, 63, 44
10, 17984, Note_on_c, 12, 63, 0
10, 18000, Note_on_c, 12, 64, 44
10, 18224, Note_on_c, 12, 64, 0
10, 18240, Note_on_c, 12, 64, 44
10, 18479, Note_on_c, 12, 64, 0
10, 18720, Note_on_c, 12, 57, 44
10, 18944, Note_on_c, 12, 57, 0
10, 18960, Note_on_c, 12, 57, 44
10, 19184, Note_on_c, 12, 57, 0
10, 19200, Note_on_c, 12, 59, 44
10, 19319, Note_on_c, 12, 59, 0
10, 19320, Note_on_c, 12, 60, 44
10, 19424, Note_on_c, 12, 60, 0
10, 19440, Note_on_c, 12, 59, 44
10, 19679, Note_on_c, 12, 59, 0
10, 20160, Note_on_c, 12, 67, 80
10, 20639, Note_on_c, 12, 67, 0
10, 20640, Note_on_c, 12, 64, 80
10, 20864, Note_on_c, 12, 64, 0
10, 20880, Note_on_c, 12, 65, 80
10, 21119, Note_on_c, 12, 65, 0
10, 21120, Note_on_c, 12, 69, 80
10, 21344, Note_on_c, 12, 69, 0
10, 21360, Note_on_c, 12, 62, 44
10, 21389, Note_on_c, 12, 62, 0
10, 21390, Note_on_c, 12, 64, 44
10, 21419, Note_on_c, 12, 64, 0
10, 21420, Note_on_c, 12, 62, 44
10, 21449, Note_on_c, 12, 62, 0
10, 21450, Note_on_c, 12, 64, 44
10, 21479, Note_on_c, 12, 64, 0
10, 21480, Note_on_c, 12, 62, 44
10, 21519, Note_on_c, 12, 62, 0
10, 21520, Note_on_c, 12, 60, 44
10, 21559, Note_on_c, 12, 60, 0
10, 21560, Note_on_c, 12, 62, 44
10, 21599, Note_on_c, 12, 62, 0
10, 21600, Note_on_c, 12, 57, 44
10, 21779, Note_on_c, 12, 57, 0
10, 21840, Note_on_c, 12, 57, 44
10, 22079, Note_on_c, 12, 57, 0
10, 22080, Note_on_c, 12, 65, 44
10, 22304, Note_on_c, 12, 65, 0
10, 22320, Note_on_c, 12, 64, 44
10, 22679, Note_on_c, 12, 64, 0
10, 22680, Note_on_c, 12, 61, 44
10, 22784, Note_on_c, 12, 61, 0
10, 22800, Note_on_c, 12, 62, 44
10, 22979, Note_on_c, 12, 62, 0
10, 23040, Note_on_c, 12, 65, 80
10, 23519, Note_on_c, 12, 65, 0
10, 23520, Note_on_c, 12, 62, 80
10, 23744, Note_on_c, 12, 62, 0
10, 23760, Note_on_c, 12, 64, 80
10, 23999, Note_on_c, 12, 64, 0
10, 24000, Note_on_c, 12, 67, 80
10, 24224, Note_on_c, 12, 67, 0
10, 24240, Note_on_c, 12, 60, 44
10, 24269, Note_on_c, 12, 60, 0
10, 24270, Note_on_c, 12, 62, 44
10, 24299, Note_on_c, 12, 62, 0
10, 24300, Note_on_c, 12, 60, 44
10, 24329, Note_on_c, 12, 60, 0
10, 24330, Note_on_c, 12, 62, 44
10, 24359, Note_on_c, 12, 62, 0
10, 24360, Note_on_c, 12, 60, 44
10, 24399, Note_on_c, 12, 60, 0
10, 24400, Note_on_c, 12, 59, 44
10, 24439, Note_on_c, 12, 59, 0
10, 24440, Note_on_c, 12, 60, 44
10, 24479, Note_on_c, 12, 60, 0
10, 24480, Note_on_c, 12, 69, 44
10, 24659, Note_on_c, 12, 69, 0
10, 24720, Note_on_c, 12, 69, 44
10, 24959, Note_on_c, 12, 69, 0
10, 24960, Note_on_c, 12, 74, 44
10, 25184, Note_on_c, 12, 74, 0
10, 25200, Note_on_c, 12, 60, 44
10, 25439, Note_on_c, 12, 60, 0
10, 25440, Note_on_c, 12, 59, 44
10, 25664, Note_on_c, 12, 59, 0
10, 25680, Note_on_c, 12, 64, 44
10, 25859, Note_on_c, 12, 64, 0
10, 25920, Note_on_c, 12, 62, 44
10, 25979, Note_on_c, 12, 62, 0
10, 25980, Note_on_c, 12, 60, 44
10, 26144, Note_on_c, 12, 60, 0
10, 26160, Note_on_c, 12, 59, 44
10, 26264, Note_on_c, 12, 59, 0
10, 26280, Note_on_c, 12, 57, 44
10, 26384, Note_on_c, 12, 57, 0
10, 26400, Note_on_c, 12, 65, 44
10, 26624, Note_on_c, 12, 65, 0
10, 26640, Note_on_c, 12, 64, 44
10, 27119, Note_on_c, 12, 64, 0
10, 27120, Note_on_c, 12, 62, 44
10, 27344, Note_on_c, 12, 62, 0
10, 27360, Note_on_c, 12, 67, 80
10, 27839, Note_on_c, 12, 67, 0
10, 27840, Note_on_c, 12, 64, 80
10, 28064, Note_on_c, 12, 64, 0
10, 28080, Note_on_c, 12, 65, 80
10, 28319, Note_on_c, 12, 65, 0
10, 28320, Note_on_c, 12, 62, 80
10, 28544, Note_on_c, 12, 62, 0
10, 28560, Note_on_c, 12, 64, 80
10, 28589, Note_on_c, 12, 64, 0
10, 28590, Note_on_c, 12, 65, 80
10, 28619, Note_on_c, 12, 65, 0
10, 28620, Note_on_c, 12, 64, 80
10, 28649, Note_on_c, 12, 64, 0
10, 28650, Note_on_c, 12, 65, 80
10, 28679, Note_on_c, 12, 65, 0
10, 28680, Note_on_c, 12, 64, 80
10, 28719, Note_on_c, 12, 64, 0
10, 28720, Note_on_c, 12, 62, 80
10, 28759, Note_on_c, 12, 62, 0
10, 28760, Note_on_c, 12, 64, 80
10, 28799, Note_on_c, 12, 64, 0
10, 28800, Note_on_c, 12, 65, 80
10, 28979, Note_on_c, 12, 65, 0
10, 29040, Note_on_c, 12, 62, 80
10, 29219, Note_on_c, 12, 62, 0
10, 29280, Note_on_c, 12, 64, 80
10, 29459, Note_on_c, 12, 64, 0
10, 29520, Note_on_c, 12, 60, 80
10, 29759, Note_on_c, 12, 60, 0
10, 31440, Note_on_c, 12, 57, 44
10, 31664, Note_on_c, 12, 57, 0
10, 31680, Note_on_c, 12, 58, 44
10, 31919, Note_on_c, 12, 58, 0
10, 31920, Note_on_c, 12, 57, 44
10, 32159, Note_on_c, 12, 57, 0
10, 32160, Note_on_c, 12, 56, 44
10, 32384, Note_on_c, 12, 56, 0
10, 32400, Note_on_c, 12, 57, 44
10, 32519, Note_on_c, 12, 57, 0
10, 32520, Note_on_c, 12, 60, 44
10, 32639, Note_on_c, 12, 60, 0
10, 32640, Note_on_c, 12, 65, 44
10, 32759, Note_on_c, 12, 65, 0
10, 32760, Note_on_c, 12, 60, 44
10, 32879, Note_on_c, 12, 60, 0
10, 32880, Note_on_c, 12, 57, 44
10, 32999, Note_on_c, 12, 57, 0
10, 33000, Note_on_c, 12, 60, 44
10, 33104, Note_on_c, 12, 60, 0
10, 33120, Note_on_c, 12, 58, 44
10, 33359, Note_on_c, 12, 58, 0
10, 33360, Note_on_c, 12, 57, 44
10, 33599, Note_on_c, 12, 57, 0
10, 33600, Note_on_c, 12, 56, 44
10, 33824, Note_on_c, 12, 56, 0
10, 33840, Note_on_c, 12, 57, 44
10, 33959, Note_on_c, 12, 57, 0
10, 33960, Note_on_c, 12, 60, 44
10, 34079, Note_on_c, 12, 60, 0
10, 34080, Note_on_c, 12, 59, 44
10, 34199, Note_on_c, 12, 59, 0
10, 34200, Note_on_c, 12, 60, 44
10, 34319, Note_on_c, 12, 60, 0
10, 34320, Note_on_c, 12, 59, 44
10, 34439, Note_on_c, 12, 59, 0
10, 34440, Note_on_c, 12, 57, 44
10, 34544, Note_on_c, 12, 57, 0
10, 34560, Note_on_c, 12, 57, 44
10, 34619, Note_on_c, 12, 57, 0
10, 34620, Note_on_c, 12, 55, 44
10, 34784, Note_on_c, 12, 55, 0
10, 34800, Note_on_c, 12, 60, 44
10, 35039, Note_on_c, 12, 60, 0
10, 35280, Note_on_c, 12, 60, 44
10, 35504, Note_on_c, 12, 60, 0
10, 35520, Note_on_c, 12, 60, 44
10, 35759, Note_on_c, 12, 60, 0
10, 36000, Note_on_c, 12, 59, 44
10, 36224, Note_on_c, 12, 59, 0
10, 36240, Note_on_c, 12, 59, 44
10, 36464, Note_on_c, 12, 59, 0
10, 36480, Note_on_c, 12, 59, 44
10, 36704, Note_on_c, 12, 59, 0
10, 36720, Note_on_c, 12, 60, 80
10, 36884, Note_on_c, 12, 60, 0
10, 36900, Note_on_c, 12, 55, 80
10, 36951, Note_on_c, 12, 55, 0
10, 36960, Note_on_c, 12, 60, 80
10, 37124, Note_on_c, 12, 60, 0
10, 37140, Note_on_c, 12, 62, 80
10, 37191, Note_on_c, 12, 62, 0
10, 37200, Note_on_c, 12, 64, 80
10, 37364, Note_on_c, 12, 64, 0
10, 37380, Note_on_c, 12, 65, 80
10, 37431, Note_on_c, 12, 65, 0
10, 37440, Note_on_c, 12, 67, 80
10, 37544, Note_on_c, 12, 67, 0
10, 37560, Note_on_c, 12, 72, 80
10, 37784, Note_on_c, 12, 72, 0
10, 37800, Note_on_c, 12, 72, 80
10, 38024, Note_on_c, 12, 72, 0
10, 38040, Note_on_c, 12, 72, 80
10, 38264, Note_on_c, 12, 72, 0
10, 38280, Note_on_c, 12, 72, 80
10, 38504, Note_on_c, 12, 72, 0
10, 38520, Note_on_c, 12, 72, 80
10, 38744, Note_on_c, 12, 72, 0
10, 38760, Note_on_c, 12, 72, 80
10, 38864, Note_on_c, 12, 72, 0
10, 38880, Note_on_c, 12, 71, 80
10, 38984, Note_on_c, 12, 71, 0
10, 39000, Note_on_c, 12, 71, 80
10, 39224, Note_on_c, 12, 71, 0
10, 39240, Note_on_c, 12, 71, 80
10, 39464, Note_on_c, 12, 71, 0
10, 39480, Note_on_c, 12, 71, 80
10, 39584, Note_on_c, 12, 71, 0
10, 39600, Note_on_c, 12, 72, 80
10, 39600, Note_on_c, 12, 55, 80
10, 39600, Note_on_c, 12, 64, 80
10, 40079, Note_on_c, 12, 72, 0
10, 40079, Note_on_c, 12, 55, 0
10, 40079, Note_on_c, 12, 64, 0
10, 40320, Note_on_c, 12, 67, 80
10, 40799, Note_on_c, 12, 67, 0
10, 40800, Note_on_c, 12, 64, 80
10, 41024, Note_on_c, 12, 64, 0
10, 41040, Note_on_c, 12, 65, 80
10, 41279, Note_on_c, 12, 65, 0
10, 41280, Note_on_c, 12, 69, 80
10, 41504, Note_on_c, 12, 69, 0
10, 41520, Note_on_c, 12, 62, 44
10, 41549, Note_on_c, 12, 62, 0
10, 41550, Note_on_c, 12, 64, 44
10, 41579, Note_on_c, 12, 64, 0
10, 41580, Note_on_c, 12, 62, 44
10, 41609, Note_on_c, 12, 62, 0
10, 41610, Note_on_c, 12, 64, 44
10, 41639, Note_on_c, 12, 64, 0
10, 41640, Note_on_c, 12, 62, 44
10, 41679, Note_on_c, 12, 62, 0
10, 41680, Note_on_c, 12, 60, 44
10, 41719, Note_on_c, 12, 60, 0
10, 41720, Note_on_c, 12, 62, 44
10, 41759, Note_on_c, 12, 62, 0
10, 41760, Note_on_c, 12, 57, 44
10, 41939, Note_on_c, 12, 57, 0
10, 42000, Note_on_c, 12, 57, 44
10, 42239, Note_on_c, 12, 57, 0
10, 42240, Note_on_c, 12, 65, 44
10, 42464, Note_on_c, 12, 65, 0
10, 42480, Note_on_c, 12, 64, 44
10, 42839, Note_on_c, 12, 64, 0
10, 42840, Note_on_c, 12, 61, 44
10, 42944, Note_on_c, 12, 61, 0
10, 42960, Note_on_c, 12, 62, 44
10, 43139, Note_on_c, 12, 62, 0
10, 43200, Note_on_c, 12, 65, 80
10, 43679, Note_on_c, 12, 65, 0
10, 43680, Note_on_c, 12, 62, 80
10, 43904, Note_on_c, 12, 62, 0
10, 43920, Note_on_c, 12, 64, 80
10, 44159, Note_on_c, 12, 64, 0
10, 44160, Note_on_c, 12, 67, 80
10, 44384, Note_on_c, 12, 67, 0
10, 44400, Note_on_c, 12, 60, 44
10, 44429, Note_on_c, 12, 60, 0
10, 44430, Note_on_c, 12, 62, 44
10, 44459, Note_on_c, 12, 62, 0
10, 44460, Note_on_c, 12, 60, 44
10, 44489, Note_on_c, 12, 60, 0
10, 44490, Note_on_c, 12, 62, 44
10, 44519, Note_on_c, 12, 62, 0
10, 44520, Note_on_c, 12, 60, 44
10, 44559, Note_on_c, 12, 60, 0
10, 44560, Note_on_c, 12, 59, 44
10, 44599, Note_on_c, 12, 59, 0
10, 44600, Note_on_c, 12, 60, 44
10, 44639, Note_on_c, 12, 60, 0
10, 44640, Note_on_c, 12, 69, 44
10, 44819, Note_on_c, 12, 69, 0
10, 44880, Note_on_c, 12, 69, 44
10, 45119, Note_on_c, 12, 69, 0
10, 45120, Note_on_c, 12, 74, 44
10, 45344, Note_on_c, 12, 74, 0
10, 45360, Note_on_c, 12, 60, 44
10, 45599, Note_on_c, 12, 60, 0
10, 45600, Note_on_c, 12, 59, 44
10, 45824, Note_on_c, 12, 59, 0
10, 45840, Note_on_c, 12, 64, 44
10, 46019, Note_on_c, 12, 64, 0
10, 46080, Note_on_c, 12, 62, 44
10, 46139, Note_on_c, 12, 62, 0
10, 46140, Note_on_c, 12, 60, 44
10, 46304, Note_on_c, 12, 60, 0
10, 46320, Note_on_c, 12, 59, 44
10, 46424, Note_on_c, 12, 59, 0
10, 46440, Note_on_c, 12, 57, 44
10, 46544, Note_on_c, 12, 57, 0
10, 46560, Note_on_c, 12, 65, 44
10, 46784, Note_on_c, 12, 65, 0
10, 46800, Note_on_c, 12, 64, 44
10, 47279, Note_on_c, 12, 64, 0
10, 47280, Note_on_c, 12, 62, 44
10, 47504, Note_on_c, 12, 62, 0
10, 47520, Note_on_c, 12, 67, 80
10, 47999, Note_on_c, 12, 67, 0
10, 48000, Note_on_c, 12, 64, 80
10, 48224, Note_on_c, 12, 64, 0
10, 48240, Note_on_c, 12, 65, 80
10, 48479, Note_on_c, 12, 65, 0
10, 48480, Note_on_c, 12, 62, 80
10, 48704, Note_on_c, 12, 62, 0
10, 48720, Note_on_c, 12, 64, 80
10, 48749, Note_on_c, 12, 64, 0
10, 48750, Note_on_c, 12, 65, 80
10, 48779, Note_on_c, 12, 65, 0
10, 48780, Note_on_c, 12, 64, 80
10, 48809, Note_on_c, 12, 64, 0
10, 48810, Note_on_c, 12, 65, 80
10, 48839, Note_on_c, 12, 65, 0
10, 48840, Note_on_c, 12, 64, 80
10, 48879, Note_on_c, 12, 64, 0
10, 48880, Note_on_c, 12, 62, 80
10, 48919, Note_on_c, 12, 62, 0
10, 48920, Note_on_c, 12, 64, 80
10, 48959, Note_on_c, 12, 64, 0
10, 48960, Note_on_c, 12, 65, 80
10, 49139, Note_on_c, 12, 65, 0
10, 49200, Note_on_c, 12, 62, 80
10, 49379, Note_on_c, 12, 62, 0
10, 49440, Note_on_c, 12, 64, 80
10, 49619, Note_on_c, 12, 64, 0
10, 49680, Note_on_c, 12, 60, 80
10, 49919, Note_on_c, 12, 60, 0
10, 51600, Note_on_c, 12, 57, 44
10, 51824, Note_on_c, 12, 57, 0
10, 51840, Note_on_c, 12, 58, 44
10, 52079, Note_on_c, 12, 58, 0
10, 52080, Note_on_c, 12, 57, 44
10, 52319, Note_on_c, 12, 57, 0
10, 52320, Note_on_c, 12, 56, 44
10, 52544, Note_on_c, 12, 56, 0
10, 52560, Note_on_c, 12, 57, 44
10, 52679, Note_on_c, 12, 57, 0
10, 52680, Note_on_c, 12, 60, 44
10, 52799, Note_on_c, 12, 60, 0
10, 52800, Note_on_c, 12, 65, 44
10, 52919, Note_on_c, 12, 65, 0
10, 52920, Note_on_c, 12, 60, 44
10, 53039, Note_on_c, 12, 60, 0
10, 53040, Note_on_c, 12, 57, 44
10, 53159, Note_on_c, 12, 57, 0
10, 53160, Note_on_c, 12, 60, 44
10, 53264, Note_on_c, 12, 60, 0
10, 53280, Note_on_c, 12, 58, 44
10, 53519, Note_on_c, 12, 58, 0
10, 53520, Note_on_c, 12, 57, 44
10, 53759, Note_on_c, 12, 57, 0
10, 53760, Note_on_c, 12, 56, 44
10, 53984, Note_on_c, 12, 56, 0
10, 54000, Note_on_c, 12, 57, 44
10, 54119, Note_on_c, 12, 57, 0
10, 54120, Note_on_c, 12, 60, 44
10, 54239, Note_on_c, 12, 60, 0
10, 54240, Note_on_c, 12, 59, 44
10, 54359, Note_on_c, 12, 59, 0
10, 54360, Note_on_c, 12, 60, 44
10, 54479, Note_on_c, 12, 60, 0
10, 54480, Note_on_c, 12, 59, 44
10, 54599, Note_on_c, 12, 59, 0
10, 54600, Note_on_c, 12, 57, 44
10, 54704, Note_on_c, 12, 57, 0
10, 54720, Note_on_c, 12, 57, 44
10, 54779, Note_on_c, 12, 57, 0
10, 54780, Note_on_c, 12, 55, 44
10, 54944, Note_on_c, 12, 55, 0
10, 54960, Note_on_c, 12, 60, 44
10, 55199, Note_on_c, 12, 60, 0
10, 55440, Note_on_c, 12, 60, 44
10, 55664, Note_on_c, 12, 60, 0
10, 55680, Note_on_c, 12, 60, 44
10, 55919, Note_on_c, 12, 60, 0
10, 56160, Note_on_c, 12, 59, 44
10, 56384, Note_on_c, 12, 59, 0
10, 56400, Note_on_c, 12, 59, 44
10, 56624, Note_on_c, 12, 59, 0
10, 56640, Note_on_c, 12, 59, 44
10, 56864, Note_on_c, 12, 59, 0
10, 56880, Note_on_c, 12, 60, 80
10, 57044, Note_on_c, 12, 60, 0
10, 57060, Note_on_c, 12, 55, 80
10, 57111, Note_on_c, 12, 55, 0
10, 57120, Note_on_c, 12, 60, 80
10, 57284, Note_on_c, 12, 60, 0
10, 57300, Note_on_c, 12, 62, 80
10, 57351, Note_on_c, 12, 62, 0
10, 57360, Note_on_c, 12, 64, 80
10, 57524, Note_on_c, 12, 64, 0
10, 57540, Note_on_c, 12, 65, 80
10, 57591, Note_on_c, 12, 65, 0
10, 57600, Note_on_c, 12, 67, 80
10, 57704, Note_on_c, 12, 67, 0
10, 57720, Note_on_c, 12, 72, 80
10, 57944, Note_on_c, 12, 72, 0
10, 57960, Note_on_c, 12, 72, 80
10, 58184, Note_on_c, 12, 72, 0
10, 58200, Note_on_c, 12, 72, 80
10, 58424, Note_on_c, 12, 72, 0
10, 58440, Note_on_c, 12, 72, 80
10, 58664, Note_on_c, 12, 72, 0
10, 58680, Note_on_c, 12, 72, 80
10, 58904, Note_on_c, 12, 72, 0
10, 58920, Note_on_c, 12, 72, 80
10, 59024, Note_on_c, 12, 72, 0
10, 59040, Note_on_c, 12, 71, 80
10, 59144, Note_on_c, 12, 71, 0
10, 59160, Note_on_c, 12, 71, 80
10, 59384, Note_on_c, 12, 71, 0
10, 59400, Note_on_c, 12, 71, 80
10, 59624, Note_on_c, 12, 71, 0
10, 59640, Note_on_c, 12, 71, 80
10, 59744, Note_on_c, 12, 71, 0
10, 59760, Note_on_c, 12, 72, 80
10, 59760, Note_on_c, 12, 55, 80
10, 59760, Note_on_c, 12, 64, 80
10, 60239, Note_on_c, 12, 72, 0
10, 60239, Note_on_c, 12, 55, 0
10, 60239, Note_on_c, 12, 64, 0
10, 61920, Note_on_c, 12, 72, 44
10, 62144, Note_on_c, 12, 72, 0
10, 62160, Note_on_c, 12, 69, 44
10, 62324, Note_on_c, 12, 69, 0
10, 62340, Note_on_c, 12, 70, 44
10, 62391, Note_on_c, 12, 70, 0
10, 62400, Note_on_c, 12, 72, 44
10, 62624, Note_on_c, 12, 72, 0
10, 62640, Note_on_c, 12, 74, 44
10, 62759, Note_on_c, 12, 74, 0
10, 62880, Note_on_c, 12, 70, 44
10, 62999, Note_on_c, 12, 70, 0
10, 63120, Note_on_c, 12, 67, 44
10, 63239, Note_on_c, 12, 67, 0
10, 63360, Note_on_c, 12, 69, 44
10, 63464, Note_on_c, 12, 69, 0
10, 63480, Note_on_c, 12, 65, 44
10, 63584, Note_on_c, 12, 65, 0
10, 63600, Note_on_c, 12, 64, 44
10, 63659, Note_on_c, 12, 64, 0
10, 63660, Note_on_c, 12, 62, 44
10, 63824, Note_on_c, 12, 62, 0
10, 63840, Note_on_c, 12, 60, 44
10, 63944, Note_on_c, 12, 60, 0
10, 63960, Note_on_c, 12, 58, 44
10, 64064, Note_on_c, 12, 58, 0
10, 64080, Note_on_c, 12, 57, 44
10, 64304, Note_on_c, 12, 57, 0
10, 64320, Note_on_c, 12, 70, 44
10, 64379, Note_on_c, 12, 70, 0
10, 64380, Note_on_c, 12, 69, 44
10, 64544, Note_on_c, 12, 69, 0
10, 64560, Note_on_c, 12, 67, 44
10, 64664, Note_on_c, 12, 67, 0
10, 64680, Note_on_c, 12, 65, 44
10, 64784, Note_on_c, 12, 65, 0
10, 64800, Note_on_c, 12, 64, 44
10, 64979, Note_on_c, 12, 64, 0
10, 64980, Note_on_c, 12, 65, 44
10, 65031, Note_on_c, 12, 65, 0
10, 65040, Note_on_c, 12, 67, 44
10, 65264, Note_on_c, 12, 67, 0
10, 65280, Note_on_c, 12, 65, 44
10, 65504, Note_on_c, 12, 65, 0
10, 65520, Note_on_c, 12, 65, 44
10, 65999, Note_on_c, 12, 65, 0
10, 66000, Note_on_c, 12, 64, 44
10, 66224, Note_on_c, 12, 64, 0
10, 67680, Note_on_c, 12, 72, 44
10, 67904, Note_on_c, 12, 72, 0
10, 67920, Note_on_c, 12, 69, 44
10, 68084, Note_on_c, 12, 69, 0
10, 68100, Note_on_c, 12, 70, 44
10, 68151, Note_on_c, 12, 70, 0
10, 68160, Note_on_c, 12, 72, 44
10, 68384, Note_on_c, 12, 72, 0
10, 68400, Note_on_c, 12, 74, 44
10, 68519, Note_on_c, 12, 74, 0
10, 68640, Note_on_c, 12, 70, 44
10, 68759, Note_on_c, 12, 70, 0
10, 68880, Note_on_c, 12, 67, 44
10, 68999, Note_on_c, 12, 67, 0
10, 69120, Note_on_c, 12, 69, 44
10, 69224, Note_on_c, 12, 69, 0
10, 69240, Note_on_c, 12, 65, 44
10, 69344, Note_on_c, 12, 65, 0
10, 69360, Note_on_c, 12, 64, 44
10, 69419, Note_on_c, 12, 64, 0
10, 69420, Note_on_c, 12, 62, 44
10, 69584, Note_on_c, 12, 62, 0
10, 69600, Note_on_c, 12, 60, 44
10, 69704, Note_on_c, 12, 60, 0
10, 69720, Note_on_c, 12, 58, 44
10, 69824, Note_on_c, 12, 58, 0
10, 69840, Note_on_c, 12, 57, 44
10, 70064, Note_on_c, 12, 57, 0
10, 70080, Note_on_c, 12, 70, 44
10, 70139, Note_on_c, 12, 70, 0
10, 70140, Note_on_c, 12, 69, 44
10, 70304, Note_on_c, 12, 69, 0
10, 70320, Note_on_c, 12, 67, 44
10, 70424, Note_on_c, 12, 67, 0
10, 70440, Note_on_c, 12, 65, 44
10, 70544, Note_on_c, 12, 65, 0
10, 70560, Note_on_c, 12, 64, 44
10, 70739, Note_on_c, 12, 64, 0
10, 70740, Note_on_c, 12, 65, 44
10, 70791, Note_on_c, 12, 65, 0
10, 70800, Note_on_c, 12, 67, 44
10, 71024, Note_on_c, 12, 67, 0
10, 71040, Note_on_c, 12, 65, 44
10, 71264, Note_on_c, 12, 65, 0
10, 71280, Note_on_c, 12, 65, 44
10, 71759, Note_on_c, 12, 65, 0
10, 71760, Note_on_c, 12, 64, 44
10, 71984, Note_on_c, 12, 64, 0
10, 72000, Note_on_c, 12, 75, 80
10, 72224, Note_on_c, 12, 75, 0
10, 72240, Note_on_c, 12, 72, 80
10, 72404, Note_on_c, 12, 72, 0
10, 72420, Note_on_c, 12, 74, 80
10, 72471, Note_on_c, 12, 74, 0
10, 72480, Note_on_c, 12, 75, 80
10, 72704, Note_on_c, 12, 75, 0
10, 72720, Note_on_c, 12, 66, 80
10, 72899, Note_on_c, 12, 66, 0
10, 72960, Note_on_c, 12, 67, 80
10, 73139, Note_on_c, 12, 67, 0
10, 73200, Note_on_c, 12, 68, 80
10, 73379, Note_on_c, 12, 68, 0
10, 73440, Note_on_c, 12, 69, 80
10, 73664, Note_on_c, 12, 69, 0
10, 73680, Note_on_c, 12, 65, 80
10, 73844, Note_on_c, 12, 65, 0
10, 73860, Note_on_c, 12, 67, 80
10, 73911, Note_on_c, 12, 67, 0
10, 73920, Note_on_c, 12, 69, 80
10, 74144, Note_on_c, 12, 69, 0
10, 74160, Note_on_c, 12, 59, 80
10, 74339, Note_on_c, 12, 59, 0
10, 74400, Note_on_c, 12, 60, 80
10, 74579, Note_on_c, 12, 60, 0
10, 74880, Note_on_c, 12, 65, 80
10, 75104, Note_on_c, 12, 65, 0
10, 75120, Note_on_c, 12, 67, 80
10, 75179, Note_on_c, 12, 67, 0
10, 75180, Note_on_c, 12, 65, 80
10, 75344, Note_on_c, 12, 65, 0
10, 75360, Note_on_c, 12, 64, 80
10, 75464, Note_on_c, 12, 64, 0
10, 75480, Note_on_c, 12, 62, 80
10, 75584, Note_on_c, 12, 62, 0
10, 75600, Note_on_c, 12, 62, 80
10, 75659, Note_on_c, 12, 62, 0
10, 75660, Note_on_c, 12, 60, 80
10, 75824, Note_on_c, 12, 60, 0
10, 75840, Note_on_c, 12, 62, 80
10, 75899, Note_on_c, 12, 62, 0
10, 75900, Note_on_c, 12, 60, 80
10, 76064, Note_on_c, 12, 60, 0
10, 76080, Note_on_c, 12, 58, 80
10, 76184, Note_on_c, 12, 58, 0
10, 76200, Note_on_c, 12, 57, 80
10, 76304, Note_on_c, 12, 57, 0
10, 76320, Note_on_c, 12, 55, 80
10, 76559, Note_on_c, 12, 55, 0
10, 76560, Note_on_c, 12, 57, 80
10, 76799, Note_on_c, 12, 57, 0
10, 76800, Note_on_c, 12, 58, 80
10, 77024, Note_on_c, 12, 58, 0
10, 77040, Note_on_c, 12, 58, 80
10, 77399, Note_on_c, 12, 58, 0
10, 77400, Note_on_c, 12, 60, 80
10, 77459, Note_on_c, 12, 60, 0
10, 77460, Note_on_c, 12, 58, 80
10, 77519, Note_on_c, 12, 58, 0
10, 77520, Note_on_c, 12, 57, 80
10, 77744, Note_on_c, 12, 57, 0
10, 77760, Note_on_c, 12, 65, 80
10, 77984, Note_on_c, 12, 65, 0
10, 78000, Note_on_c, 12, 67, 80
10, 78059, Note_on_c, 12, 67, 0
10, 78060, Note_on_c, 12, 65, 80
10, 78224, Note_on_c, 12, 65, 0
10, 78240, Note_on_c, 12, 64, 80
10, 78344, Note_on_c, 12, 64, 0
10, 78360, Note_on_c, 12, 62, 80
10, 78464, Note_on_c, 12, 62, 0
10, 78480, Note_on_c, 12, 62, 80
10, 78539, Note_on_c, 12, 62, 0
10, 78540, Note_on_c, 12, 60, 80
10, 78704, Note_on_c, 12, 60, 0
10, 78720, Note_on_c, 12, 62, 80
10, 78779, Note_on_c, 12, 62, 0
10, 78780, Note_on_c, 12, 60, 80
10, 78944, Note_on_c, 12, 60, 0
10, 78960, Note_on_c, 12, 58, 80
10, 79064, Note_on_c, 12, 58, 0
10, 79080, Note_on_c, 12, 57, 80
10, 79184, Note_on_c, 12, 57, 0
10, 79200, Note_on_c, 12, 62, 80
10, 79424, Note_on_c, 12, 62, 0
10, 79440, Note_on_c, 12, 60, 80
10, 79664, Note_on_c, 12, 60, 0
10, 79680, Note_on_c, 12, 58, 80
10, 79904, Note_on_c, 12, 58, 0
10, 79920, Note_on_c, 12, 58, 80
10, 80399, Note_on_c, 12, 58, 0
10, 80400, Note_on_c, 12, 57, 80
10, 80624, Note_on_c, 12, 57, 0
10, 80640, Note_on_c, 12, 75, 80
10, 80864, Note_on_c, 12, 75, 0
10, 80880, Note_on_c, 12, 72, 80
10, 81044, Note_on_c, 12, 72, 0
10, 81060, Note_on_c, 12, 74, 80
10, 81111, Note_on_c, 12, 74, 0
10, 81120, Note_on_c, 12, 75, 80
10, 81344, Note_on_c, 12, 75, 0
10, 81360, Note_on_c, 12, 66, 80
10, 81539, Note_on_c, 12, 66, 0
10, 81600, Note_on_c, 12, 67, 80
10, 81779, Note_on_c, 12, 67, 0
10, 81840, Note_on_c, 12, 68, 80
10, 82019, Note_on_c, 12, 68, 0
10, 82080, Note_on_c, 12, 69, 80
10, 82304, Note_on_c, 12, 69, 0
10, 82320, Note_on_c, 12, 65, 80
10, 82484, Note_on_c, 12, 65, 0
10, 82500, Note_on_c, 12, 67, 80
10, 82551, Note_on_c, 12, 67, 0
10, 82560, Note_on_c, 12, 69, 80
10, 82784, Note_on_c, 12, 69, 0
10, 82800, Note_on_c, 12, 59, 80
10, 82979, Note_on_c, 12, 59, 0
10, 83040, Note_on_c, 12, 60, 80
10, 83219, Note_on_c, 12, 60, 0
10, 83520, Note_on_c, 12, 65, 80
10, 83744, Note_on_c, 12, 65, 0
10, 83760, Note_on_c, 12, 67, 80
10, 83819, Note_on_c, 12, 67, 0
10, 83820, Note_on_c, 12, 65, 80
10, 83984, Note_on_c, 12, 65, 0
10, 84000, Note_on_c, 12, 64, 80
10, 84104, Note_on_c, 12, 64, 0
10, 84120, Note_on_c, 12, 62, 80
10, 84224, Note_on_c, 12, 62, 0
10, 84240, Note_on_c, 12, 62, 80
10, 84299, Note_on_c, 12, 62, 0
10, 84300, Note_on_c, 12, 60, 80
10, 84464, Note_on_c, 12, 60, 0
10, 84480, Note_on_c, 12, 62, 80
10, 84539, Note_on_c, 12, 62, 0
10, 84540, Note_on_c, 12, 60, 80
10, 84704, Note_on_c, 12, 60, 0
10, 84720, Note_on_c, 12, 58, 80
10, 84824, Note_on_c, 12, 58, 0
10, 84840, Note_on_c, 12, 57, 80
10, 84944, Note_on_c, 12, 57, 0
10, 84960, Note_on_c, 12, 55, 80
10, 85199, Note_on_c, 12, 55, 0
10, 85200, Note_on_c, 12, 57, 80
10, 85439, Note_on_c, 12, 57, 0
10, 85440, Note_on_c, 12, 58, 80
10, 85664, Note_on_c, 12, 58, 0
10, 85680, Note_on_c, 12, 58, 80
10, 86039, Note_on_c, 12, 58, 0
10, 86040, Note_on_c, 12, 60, 80
10, 86099, Note_on_c, 12, 60, 0
10, 86100, Note_on_c, 12, 58, 80
10, 86159, Note_on_c, 12, 58, 0
10, 86160, Note_on_c, 12, 57, 80
10, 86384, Note_on_c, 12, 57, 0
10, 86400, Note_on_c, 12, 65, 80
10, 86624, Note_on_c, 12, 65, 0
10, 86640, Note_on_c, 12, 67, 80
10, 86699, Note_on_c, 12, 67, 0
10, 86700, Note_on_c, 12, 65, 80
10, 86864, Note_on_c, 12, 65, 0
10, 86880, Note_on_c, 12, 64, 80
10, 86984, Note_on_c, 12, 64, 0
10, 87000, Note_on_c, 12, 62, 80
10, 87104, Note_on_c, 12, 62, 0
10, 87120, Note_on_c, 12, 62, 80
10, 87179, Note_on_c, 12, 62, 0
10, 87180, Note_on_c, 12, 60, 80
10, 87344, Note_on_c, 12, 60, 0
10, 87360, Note_on_c, 12, 62, 80
10, 87419, Note_on_c, 12, 62, 0
10, 87420, Note_on_c, 12, 60, 80
10, 87584, Note_on_c, 12, 60, 0
10, 87600, Note_on_c, 12, 58, 80
10, 87704, Note_on_c, 12, 58, 0
10, 87720, Note_on_c, 12, 57, 80
10, 87824, Note_on_c, 12, 57, 0
10, 87840, Note_on_c, 12, 62, 80
10, 88064, Note_on_c, 12, 62, 0
10, 88080, Note_on_c, 12, 60, 80
10, 88304, Note_on_c, 12, 60, 0
10, 88320, Note_on_c, 12, 58, 80
10, 88544, Note_on_c, 12, 58, 0
10, 88560, Note_on_c, 12, 58, 80
10, 89039, Note_on_c, 12, 58, 0
10, 89040, Note_on_c, 12, 57, 80
10, 89264, Note_on_c, 12, 57, 0
10, 89280, Note_on_c, 12, 67, 80
10, 89759, Note_on_c, 12, 67, 0
10, 89760, Note_on_c, 12, 64, 80
10, 89984, Note_on_c, 12, 64, 0
10, 90000, Note_on_c, 12, 65, 80
10, 90239, Note_on_c, 12, 65, 0
10, 90240, Note_on_c, 12, 62, 80
10, 90464, Note_on_c, 12, 62, 0
10, 90480, Note_on_c, 12, 62, 80
10, 90509, Note_on_c, 12, 62, 0
10, 90510, Note_on_c, 12, 64, 80
10, 90539, Note_on_c, 12, 64, 0
10, 90540, Note_on_c, 12, 62, 80
10, 90569, Note_on_c, 12, 62, 0
10, 90570, Note_on_c, 12, 64, 80
10, 90599, Note_on_c, 12, 64, 0
10, 90600, Note_on_c, 12, 62, 80
10, 90639, Note_on_c, 12, 62, 0
10, 90640, Note_on_c, 12, 60, 80
10, 90679, Note_on_c, 12, 60, 0
10, 90680, Note_on_c, 12, 62, 80
10, 90719, Note_on_c, 12, 62, 0
10, 90720, Note_on_c, 12, 64, 80
10, 90899, Note_on_c, 12, 64, 0
10, 90960, Note_on_c, 12, 60, 80
10, 91139, Note_on_c, 12, 60, 0
10, 91200, Note_on_c, 12, 62, 80
10, 91379, Note_on_c, 12, 62, 0
10, 91440, Note_on_c, 12, 55, 80
10, 91679, Note_on_c, 12, 55, 0
10, 93840, Note_on_c, 12, 62, 44
10, 94079, Note_on_c, 12, 62, 0
10, 94080, Note_on_c, 12, 64, 44
10, 94319, Note_on_c, 12, 64, 0
10, 94560, Note_on_c, 12, 65, 44
10, 94799, Note_on_c, 12, 65, 0
10, 94800, Note_on_c, 12, 64, 44
10, 95039, Note_on_c, 12, 64, 0
10, 95280, Note_on_c, 12, 62, 44
10, 95519, Note_on_c, 12, 62, 0
10, 95520, Note_on_c, 12, 64, 44
10, 95759, Note_on_c, 12, 64, 0
10, 96000, Note_on_c, 12, 65, 44
10, 96239, Note_on_c, 12, 65, 0
10, 96240, Note_on_c, 12, 64, 44
10, 96464, Note_on_c, 12, 64, 0
10, 96480, Note_on_c, 12, 62, 44
10, 96959, Note_on_c, 12, 62, 0
10, 96960, Note_on_c, 12, 63, 44
10, 97184, Note_on_c, 12, 63, 0
10, 97200, Note_on_c, 12, 64, 44
10, 97424, Note_on_c, 12, 64, 0
10, 97440, Note_on_c, 12, 64, 44
10, 97679, Note_on_c, 12, 64, 0
10, 97920, Note_on_c, 12, 57, 44
10, 98144, Note_on_c, 12, 57, 0
10, 98160, Note_on_c, 12, 57, 44
10, 98384, Note_on_c, 12, 57, 0
10, 98400, Note_on_c, 12, 59, 44
10, 98519, Note_on_c, 12, 59, 0
10, 98520, Note_on_c, 12, 60, 44
10, 98624, Note_on_c, 12, 60, 0
10, 98640, Note_on_c, 12, 59, 44
10, 98879, Note_on_c, 12, 59, 0
10, 99360, Note_on_c, 12, 67, 80
10, 99839, Note_on_c, 12, 67, 0
10, 99840, Note_on_c, 12, 64, 80
10, 100064, Note_on_c, 12, 64, 0
10, 100080, Note_on_c, 12, 65, 80
10, 100319, Note_on_c, 12, 65, 0
10, 100320, Note_on_c, 12, 69, 80
10, 100544, Note_on_c, 12, 69, 0
10, 100560, Note_on_c, 12, 62, 44
10, 100589, Note_on_c, 12, 62, 0
10, 100590, Note_on_c, 12, 64, 44
10, 100619, Note_on_c, 12, 64, 0
10, 100620, Note_on_c, 12, 62, 44
10, 100649, Note_on_c, 12, 62, 0
10, 100650, Note_on_c, 12, 64, 44
10, 100679, Note_on_c, 12, 64, 0
10, 100680, Note_on_c, 12, 62, 44
10, 100719, Note_on_c, 12, 62, 0
10, 100720, Note_on_c, 12, 60, 44
10, 100759, Note_on_c, 12, 60, 0
10, 100760, Note_on_c, 12, 62, 44
10, 100799, Note_on_c, 12, 62, 0
10, 100800, Note_on_c, 12, 57, 44
10, 100979, Note_on_c, 12, 57, 0
10, 101040, Note_on_c, 12, 57, 44
10, 101279, Note_on_c, 12, 57, 0
10, 101280, Note_on_c, 12, 65, 44
10, 101504, Note_on_c, 12, 65, 0
10, 101520, Note_on_c, 12, 64, 44
10, 101879, Note_on_c, 12, 64, 0
10, 101880, Note_on_c, 12, 61, 44
10, 101984, Note_on_c, 12, 61, 0
10, 102000, Note_on_c, 12, 62, 44
10, 102179, Note_on_c, 12, 62, 0
10, 102240, Note_on_c, 12, 65, 80
10, 102719, Note_on_c, 12, 65, 0
10, 102720, Note_on_c, 12, 62, 80
10, 102944, Note_on_c, 12, 62, 0
10, 102960, Note_on_c, 12, 64, 80
10, 103199, Note_on_c, 12, 64, 0
10, 103200, Note_on_c, 12, 67, 80
10, 103424, Note_on_c, 12, 67, 0
10, 103440, Note_on_c, 12, 60, 44
10, 103469, Note_on_c, 12, 60, 0
10, 103470, Note_on_c, 12, 62, 44
10, 103499, Note_on_c, 12, 62, 0
10, 103500, Note_on_c, 12, 60, 44
10, 103529, Note_on_c, 12, 60, 0
10, 103530, Note_on_c, 12, 62, 44
10, 103559, Note_on_c, 12, 62, 0
10, 103560, Note_on_c, 12, 60, 44
10, 103599, Note_on_c, 12, 60, 0
10, 103600, Note_on_c, 12, 59, 44
10, 103639, Note_on_c, 12, 59, 0
10, 103640, Note_on_c, 12, 60, 44
10, 103679, Note_on_c, 12, 60, 0
10, 103680, Note_on_c, 12, 69, 44
10, 103859, Note_on_c, 12, 69, 0
10, 103920, Note_on_c, 12, 69, 44
10, 104159, Note_on_c, 12, 69, 0
10, 104160, Note_on_c, 12, 74, 44
10, 104384, Note_on_c, 12, 74, 0
10, 104400, Note_on_c, 12, 60, 44
10, 104639, Note_on_c, 12, 60, 0
10, 104640, Note_on_c, 12, 59, 44
10, 104864, Note_on_c, 12, 59, 0
10, 104880, Note_on_c, 12, 64, 44
10, 105059, Note_on_c, 12, 64, 0
10, 105120, Note_on_c, 12, 62, 44
10, 105179, Note_on_c, 12, 62, 0
10, 105180, Note_on_c, 12, 60, 44
10, 105344, Note_on_c, 12, 60, 0
10, 105360, Note_on_c, 12, 59, 44
10, 105464, Note_on_c, 12, 59, 0
10, 105480, Note_on_c, 12, 57, 44
10, 105584, Note_on_c, 12, 57, 0
10, 105600, Note_on_c, 12, 65, 44
10, 105824, Note_on_c, 12, 65, 0
10, 105840, Note_on_c, 12, 64, 44
10, 106319, Note_on_c, 12, 64, 0
10, 106320, Note_on_c, 12, 62, 44
10, 106544, Note_on_c, 12, 62, 0
10, 106560, Note_on_c, 12, 67, 80
10, 107039, Note_on_c, 12, 67, 0
10, 107040, Note_on_c, 12, 64, 80
10, 107264, Note_on_c, 12, 64, 0
10, 107280, Note_on_c, 12, 65, 80
10, 107519, Note_on_c, 12, 65, 0
10, 107520, Note_on_c, 12, 62, 80
10, 107744, Note_on_c, 12, 62, 0
10, 107760, Note_on_c, 12, 64, 80
10, 107789, Note_on_c, 12, 64, 0
10, 107790, Note_on_c, 12, 65, 80
10, 107819, Note_on_c, 12, 65, 0
10, 107820, Note_on_c, 12, 64, 80
10, 107849, Note_on_c, 12, 64, 0
10, 107850, Note_on_c, 12, 65, 80
10, 107879, Note_on_c, 12, 65, 0
10, 107880, Note_on_c, 12, 64, 80
10, 107919, Note_on_c, 12, 64, 0
10, 107920, Note_on_c, 12, 62, 80
10, 107959, Note_on_c, 12, 62, 0
10, 107960, Note_on_c, 12, 64, 80
10, 107999, Note_on_c, 12, 64, 0
10, 108000, Note_on_c, 12, 65, 80
10, 108179, Note_on_c, 12, 65, 0
10, 108240, Note_on_c, 12, 62, 80
10, 108419, Note_on_c, 12, 62, 0
10, 108480, Note_on_c, 12, 64, 80
10, 108659, Note_on_c, 12, 64, 0
10, 108720, Note_on_c, 12, 60, 80
10, 108959, Note_on_c, 12, 60, 0
10, 110640, Note_on_c, 12, 57, 44
10, 110864, Note_on_c, 12, 57, 0
10, 110880, Note_on_c, 12, 58, 44
10, 111119, Note_on_c, 12, 58, 0
10, 111120, Note_on_c, 12, 57, 44
10, 111359, Note_on_c, 12, 57, 0
10, 111360, Note_on_c, 12, 56, 44
10, 111584, Note_on_c, 12, 56, 0
10, 111600, Note_on_c, 12, 57, 44
10, 111719, Note_on_c, 12, 57, 0
10, 111720, Note_on_c, 12, 60, 44
10, 111839, Note_on_c, 12, 60, 0
10, 111840, Note_on_c, 12, 65, 44
10, 111959, Note_on_c, 12, 65, 0
10, 111960, Note_on_c, 12, 60, 44
10, 112079, Note_on_c, 12, 60, 0
10, 112080, Note_on_c, 12, 57, 44
10, 112199, Note_on_c, 12, 57, 0
10, 112200, Note_on_c, 12, 60, 44
10, 112304, Note_on_c, 12, 60, 0
10, 112320, Note_on_c, 12, 58, 44
10, 112559, Note_on_c, 12, 58, 0
10, 112560, Note_on_c, 12, 57, 44
10, 112799, Note_on_c, 12, 57, 0
10, 112800, Note_on_c, 12, 56, 44
10, 113024, Note_on_c, 12, 56, 0
10, 113040, Note_on_c, 12, 57, 44
10, 113159, Note_on_c, 12, 57, 0
10, 113160, Note_on_c, 12, 60, 44
10, 113279, Note_on_c, 12, 60, 0
10, 113280, Note_on_c, 12, 59, 44
10, 113399, Note_on_c, 12, 59, 0
10, 113400, Note_on_c, 12, 60, 44
10, 113519, Note_on_c, 12, 60, 0
10, 113520, Note_on_c, 12, 59, 44
10, 113639, Note_on_c, 12, 59, 0
10, 113640, Note_on_c, 12, 57, 44
10, 113744, Note_on_c, 12, 57, 0
10, 113760, Note_on_c, 12, 57, 44
10, 113819, Note_on_c, 12, 57, 0
10, 113820, Note_on_c, 12, 55, 44
10, 113984, Note_on_c, 12, 55, 0
10, 114000, Note_on_c, 12, 60, 44
10, 114239, Note_on_c, 12, 60, 0
10, 114480, Note_on_c, 12, 60, 44
10, 114704, Note_on_c, 12, 60, 0
10, 114720, Note_on_c, 12, 60, 44
10, 114959, Note_on_c, 12, 60, 0
10, 115200, Note_on_c, 12, 59, 44
10, 115424, Note_on_c, 12, 59, 0
10, 115440, Note_on_c, 12, 59, 44
10, 115664, Note_on_c, 12, 59, 0
10, 115680, Note_on_c, 12, 59, 44
10, 115904, Note_on_c, 12, 59, 0
10, 115920, Note_on_c, 12, 60, 80
10, 116084, Note_on_c, 12, 60, 0
10, 116100, Note_on_c, 12, 55, 80
10, 116151, Note_on_c, 12, 55, 0
10, 116160, Note_on_c, 12, 60, 80
10, 116324, Note_on_c, 12, 60, 0
10, 116340, Note_on_c, 12, 62, 80
10, 116391, Note_on_c, 12, 62, 0
10, 116400, Note_on_c, 12, 64, 80
10, 116564, Note_on_c, 12, 64, 0
10, 116580, Note_on_c, 12, 65, 80
10, 116631, Note_on_c, 12, 65, 0
10, 116640, Note_on_c, 12, 67, 80
10, 116744, Note_on_c, 12, 67, 0
10, 116760, Note_on_c, 12, 72, 80
10, 116984, Note_on_c, 12, 72, 0
10, 117000, Note_on_c, 12, 72, 80
10, 117224, Note_on_c, 12, 72, 0
10, 117240, Note_on_c, 12, 72, 80
10, 117464, Note_on_c, 12, 72, 0
10, 117480, Note_on_c, 12, 72, 80
10, 117704, Note_on_c, 12, 72, 0
10, 117720, Note_on_c, 12, 72, 80
10, 117944, Note_on_c, 12, 72, 0
10, 117960, Note_on_c, 12, 72, 80
10, 118064, Note_on_c, 12, 72, 0
10, 118080, Note_on_c, 12, 71, 80
10, 118184, Note_on_c, 12, 71, 0
10, 118200, Note_on_c, 12, 71, 80
10, 118424, Note_on_c, 12, 71, 0
10, 118440, Note_on_c, 12, 71, 80
10, 118664, Note_on_c, 12, 71, 0
10, 118680, Note_on_c, 12, 71, 80
10, 118784, Note_on_c, 12, 71, 0
10, 118800, Note_on_c, 12, 72, 80
10, 118800, Note_on_c, 12, 55, 80
10, 118800, Note_on_c, 12, 64, 80
10, 119279, Note_on_c, 12, 72, 0
10, 119279, Note_on_c, 12, 55, 0
10, 119279, Note_on_c, 12, 64, 0
10, 119279, End_track
11, 0, Start_track
11, 0, Title_t, "Viola "
11, 0, MIDI_port, 0
11, 0, Control_c, 13, 121, 0
11, 0, Program_c, 13, 48
11, 0, Control_c, 13, 11, 127
11, 0, Control_c, 13, 10, 70
11, 0, Control_c, 13, 7, 96
11, 240, Note_on_c, 13, 64, 80
11, 479, Note_on_c, 13, 64, 0
11, 480, Note_on_c, 13, 61, 80
11, 704, Note_on_c, 13, 61, 0
11, 720, Note_on_c, 13, 62, 80
11, 959, Note_on_c, 13, 62, 0
11, 960, Note_on_c, 13, 59, 80
11, 1184, Note_on_c, 13, 59, 0
11, 1200, Note_on_c, 13, 55, 80
11, 1379, Note_on_c, 13, 55, 0
11, 1440, Note_on_c, 13, 60, 80
11, 1619, Note_on_c, 13, 60, 0
11, 1680, Note_on_c, 13, 57, 80
11, 1859, Note_on_c, 13, 57, 0
11, 1920, Note_on_c, 13, 54, 80
11, 2099, Note_on_c, 13, 54, 0
11, 2160, Note_on_c, 13, 55, 80
11, 2399, Note_on_c, 13, 55, 0
11, 4560, Note_on_c, 13, 59, 44
11, 4799, Note_on_c, 13, 59, 0
11, 4800, Note_on_c, 13, 60, 44
11, 5039, Note_on_c, 13, 60, 0
11, 5280, Note_on_c, 13, 62, 44
11, 5519, Note_on_c, 13, 62, 0
11, 5520, Note_on_c, 13, 60, 44
11, 5759, Note_on_c, 13, 60, 0
11, 6000, Note_on_c, 13, 59, 44
11, 6239, Note_on_c, 13, 59, 0
11, 6240, Note_on_c, 13, 60, 44
11, 6479, Note_on_c, 13, 60, 0
11, 6720, Note_on_c, 13, 62, 44
11, 6959, Note_on_c, 13, 62, 0
11, 6960, Note_on_c, 13, 60, 44
11, 7184, Note_on_c, 13, 60, 0
11, 7200, Note_on_c, 13, 59, 44
11, 7679, Note_on_c, 13, 59, 0
11, 7680, Note_on_c, 13, 55, 44
11, 7904, Note_on_c, 13, 55, 0
11, 7920, Note_on_c, 13, 55, 44
11, 8144, Note_on_c, 13, 55, 0
11, 8160, Note_on_c, 13, 55, 44
11, 8399, Note_on_c, 13, 55, 0
11, 8640, Note_on_c, 13, 54, 44
11, 9344, Note_on_c, 13, 54, 0
11, 9360, Note_on_c, 13, 55, 44
11, 9599, Note_on_c, 13, 55, 0
11, 10320, Note_on_c, 13, 64, 80
11, 10559, Note_on_c, 13, 64, 0
11, 10560, Note_on_c, 13, 61, 80
11, 10784, Note_on_c, 13, 61, 0
11, 10800, Note_on_c, 13, 62, 80
11, 11039, Note_on_c, 13, 62, 0
11, 11040, Note_on_c, 13, 59, 80
11, 11264, Note_on_c, 13, 59, 0
11, 11280, Note_on_c, 13, 55, 80
11, 11459, Note_on_c, 13, 55, 0
11, 11520, Note_on_c, 13, 60, 80
11, 11699, Note_on_c, 13, 60, 0
11, 11760, Note_on_c, 13, 57, 80
11, 11939, Note_on_c, 13, 57, 0
11, 12000, Note_on_c, 13, 54, 80
11, 12179, Note_on_c, 13, 54, 0
11, 12240, Note_on_c, 13, 55, 80
11, 12479, Note_on_c, 13, 55, 0
11, 14640, Note_on_c, 13, 59, 44
11, 14879, Note_on_c, 13, 59, 0
11, 14880, Note_on_c, 13, 60, 44
11, 15119, Note_on_c, 13, 60, 0
11, 15360, Note_on_c, 13, 62, 44
11, 15599, Note_on_c, 13, 62, 0
11, 15600, Note_on_c, 13, 60, 44
11, 15839, Note_on_c, 13, 60, 0
11, 16080, Note_on_c, 13, 59, 44
11, 16319, Note_on_c, 13, 59, 0
11, 16320, Note_on_c, 13, 60, 44
11, 16559, Note_on_c, 13, 60, 0
11, 16800, Note_on_c, 13, 62, 44
11, 17039, Note_on_c, 13, 62, 0
11, 17040, Note_on_c, 13, 60, 44
11, 17264, Note_on_c, 13, 60, 0
11, 17280, Note_on_c, 13, 59, 44
11, 17759, Note_on_c, 13, 59, 0
11, 17760, Note_on_c, 13, 55, 44
11, 17984, Note_on_c, 13, 55, 0
11, 18000, Note_on_c, 13, 55, 44
11, 18224, Note_on_c, 13, 55, 0
11, 18240, Note_on_c, 13, 55, 44
11, 18479, Note_on_c, 13, 55, 0
11, 18720, Note_on_c, 13, 54, 44
11, 19424, Note_on_c, 13, 54, 0
11, 19440, Note_on_c, 13, 55, 44
11, 19679, Note_on_c, 13, 55, 0
11, 20400, Note_on_c, 13, 64, 80
11, 20639, Note_on_c, 13, 64, 0
11, 20640, Note_on_c, 13, 61, 80
11, 20864, Note_on_c, 13, 61, 0
11, 20880, Note_on_c, 13, 62, 80
11, 21119, Note_on_c, 13, 62, 0
11, 21120, Note_on_c, 13, 65, 80
11, 21359, Note_on_c, 13, 65, 0
11, 23280, Note_on_c, 13, 62, 80
11, 23519, Note_on_c, 13, 62, 0
11, 23520, Note_on_c, 13, 59, 80
11, 23744, Note_on_c, 13, 59, 0
11, 23760, Note_on_c, 13, 60, 80
11, 23999, Note_on_c, 13, 60, 0
11, 24000, Note_on_c, 13, 64, 80
11, 24224, Note_on_c, 13, 64, 0
11, 24240, Note_on_c, 13, 55, 44
11, 24464, Note_on_c, 13, 55, 0
11, 24480, Note_on_c, 13, 53, 44
11, 24659, Note_on_c, 13, 53, 0
11, 24720, Note_on_c, 13, 53, 44
11, 24959, Note_on_c, 13, 53, 0
11, 24960, Note_on_c, 13, 57, 44
11, 25184, Note_on_c, 13, 57, 0
11, 25200, Note_on_c, 13, 50, 44
11, 25679, Note_on_c, 13, 50, 0
11, 25680, Note_on_c, 13, 59, 44
11, 25904, Note_on_c, 13, 59, 0
11, 25920, Note_on_c, 13, 52, 44
11, 26159, Note_on_c, 13, 52, 0
11, 26400, Note_on_c, 13, 57, 44
11, 26519, Note_on_c, 13, 57, 0
11, 26520, Note_on_c, 13, 62, 44
11, 26624, Note_on_c, 13, 62, 0
11, 26640, Note_on_c, 13, 60, 44
11, 27119, Note_on_c, 13, 60, 0
11, 27120, Note_on_c, 13, 59, 44
11, 27359, Note_on_c, 13, 59, 0
11, 27600, Note_on_c, 13, 64, 80
11, 27839, Note_on_c, 13, 64, 0
11, 27840, Note_on_c, 13, 61, 80
11, 28064, Note_on_c, 13, 61, 0
11, 28080, Note_on_c, 13, 62, 80
11, 28319, Note_on_c, 13, 62, 0
11, 28320, Note_on_c, 13, 59, 80
11, 28544, Note_on_c, 13, 59, 0
11, 28560, Note_on_c, 13, 60, 80
11, 28589, Note_on_c, 13, 60, 0
11, 28590, Note_on_c, 13, 62, 80
11, 28619, Note_on_c, 13, 62, 0
11, 28620, Note_on_c, 13, 60, 80
11, 28649, Note_on_c, 13, 60, 0
11, 28650, Note_on_c, 13, 62, 80
11, 28679, Note_on_c, 13, 62, 0
11, 28680, Note_on_c, 13, 60, 80
11, 28719, Note_on_c, 13, 60, 0
11, 28720, Note_on_c, 13, 59, 80
11, 28759, Note_on_c, 13, 59, 0
11, 28760, Note_on_c, 13, 60, 80
11, 28799, Note_on_c, 13, 60, 0
11, 28800, Note_on_c, 13, 57, 80
11, 28979, Note_on_c, 13, 57, 0
11, 29040, Note_on_c, 13, 53, 80
11, 29219, Note_on_c, 13, 53, 0
11, 29280, Note_on_c, 13, 55, 80
11, 29459, Note_on_c, 13, 55, 0
11, 29520, Note_on_c, 13, 52, 80
11, 29699, Note_on_c, 13, 52, 0
11, 29760, Note_on_c, 13, 48, 80
11, 29939, Note_on_c, 13, 48, 0
11, 31440, Note_on_c, 13, 53, 44
11, 31664, Note_on_c, 13, 53, 0
11, 31680, Note_on_c, 13, 55, 44
11, 31919, Note_on_c, 13, 55, 0
11, 31920, Note_on_c, 13, 53, 44
11, 32159, Note_on_c, 13, 53, 0
11, 32160, Note_on_c, 13, 52, 44
11, 32384, Note_on_c, 13, 52, 0
11, 32400, Note_on_c, 13, 53, 44
11, 32639, Note_on_c, 13, 53, 0
11, 32880, Note_on_c, 13, 53, 44
11, 33104, Note_on_c, 13, 53, 0
11, 33120, Note_on_c, 13, 55, 44
11, 33359, Note_on_c, 13, 55, 0
11, 33360, Note_on_c, 13, 53, 44
11, 33599, Note_on_c, 13, 53, 0
11, 33600, Note_on_c, 13, 52, 44
11, 33824, Note_on_c, 13, 52, 0
11, 33840, Note_on_c, 13, 53, 44
11, 34079, Note_on_c, 13, 53, 0
11, 34320, Note_on_c, 13, 53, 44
11, 34544, Note_on_c, 13, 53, 0
11, 34560, Note_on_c, 13, 52, 44
11, 34784, Note_on_c, 13, 52, 0
11, 34800, Note_on_c, 13, 55, 44
11, 35039, Note_on_c, 13, 55, 0
11, 35280, Note_on_c, 13, 57, 44
11, 35504, Note_on_c, 13, 57, 0
11, 35520, Note_on_c, 13, 57, 44
11, 35759, Note_on_c, 13, 57, 0
11, 36000, Note_on_c, 13, 50, 44
11, 36224, Note_on_c, 13, 50, 0
11, 36240, Note_on_c, 13, 50, 44
11, 36464, Note_on_c, 13, 50, 0
11, 36480, Note_on_c, 13, 52, 44
11, 36599, Note_on_c, 13, 52, 0
11, 36600, Note_on_c, 13, 53, 44
11, 36704, Note_on_c, 13, 53, 0
11, 36720, Note_on_c, 13, 52, 44
11, 36959, Note_on_c, 13, 52, 0
11, 37440, Note_on_c, 13, 67, 80
11, 37544, Note_on_c, 13, 67, 0
11, 37560, Note_on_c, 13, 67, 80
11, 37784, Note_on_c, 13, 67, 0
11, 37800, Note_on_c, 13, 67, 80
11, 38024, Note_on_c, 13, 67, 0
11, 38040, Note_on_c, 13, 67, 80
11, 38144, Note_on_c, 13, 67, 0
11, 38160, Note_on_c, 13, 69, 80
11, 38264, Note_on_c, 13, 69, 0
11, 38280, Note_on_c, 13, 69, 80
11, 38504, Note_on_c, 13, 69, 0
11, 38520, Note_on_c, 13, 69, 80
11, 38744, Note_on_c, 13, 69, 0
11, 38760, Note_on_c, 13, 69, 80
11, 38864, Note_on_c, 13, 69, 0
11, 38880, Note_on_c, 13, 62, 80
11, 38984, Note_on_c, 13, 62, 0
11, 39000, Note_on_c, 13, 62, 80
11, 39224, Note_on_c, 13, 62, 0
11, 39240, Note_on_c, 13, 62, 80
11, 39344, Note_on_c, 13, 62, 0
11, 39360, Note_on_c, 13, 64, 80
11, 39464, Note_on_c, 13, 64, 0
11, 39480, Note_on_c, 13, 65, 80
11, 39584, Note_on_c, 13, 65, 0
11, 39600, Note_on_c, 13, 48, 80
11, 39600, Note_on_c, 13, 55, 80
11, 39600, Note_on_c, 13, 64, 80
11, 40079, Note_on_c, 13, 48, 0
11, 40079, Note_on_c, 13, 55, 0
11, 40079, Note_on_c, 13, 64, 0
11, 40560, Note_on_c, 13, 64, 80
11, 40799, Note_on_c, 13, 64, 0
11, 40800, Note_on_c, 13, 61, 80
11, 41024, Note_on_c, 13, 61, 0
11, 41040, Note_on_c, 13, 62, 80
11, 41279, Note_on_c, 13, 62, 0
11, 41280, Note_on_c, 13, 65, 80
11, 41519, Note_on_c, 13, 65, 0
11, 43440, Note_on_c, 13, 62, 80
11, 43679, Note_on_c, 13, 62, 0
11, 43680, Note_on_c, 13, 59, 80
11, 43904, Note_on_c, 13, 59, 0
11, 43920, Note_on_c, 13, 60, 80
11, 44159, Note_on_c, 13, 60, 0
11, 44160, Note_on_c, 13, 64, 80
11, 44384, Note_on_c, 13, 64, 0
11, 44400, Note_on_c, 13, 55, 44
11, 44624, Note_on_c, 13, 55, 0
11, 44640, Note_on_c, 13, 53, 44
11, 44819, Note_on_c, 13, 53, 0
11, 44880, Note_on_c, 13, 53, 44
11, 45119, Note_on_c, 13, 53, 0
11, 45120, Note_on_c, 13, 57, 44
11, 45344, Note_on_c, 13, 57, 0
11, 45360, Note_on_c, 13, 50, 44
11, 45839, Note_on_c, 13, 50, 0
11, 45840, Note_on_c, 13, 59, 44
11, 46064, Note_on_c, 13, 59, 0
11, 46080, Note_on_c, 13, 52, 44
11, 46319, Note_on_c, 13, 52, 0
11, 46560, Note_on_c, 13, 57, 44
11, 46679, Note_on_c, 13, 57, 0
11, 46680, Note_on_c, 13, 62, 44
11, 46784, Note_on_c, 13, 62, 0
11, 46800, Note_on_c, 13, 60, 44
11, 47279, Note_on_c, 13, 60, 0
11, 47280, Note_on_c, 13, 59, 44
11, 47519, Note_on_c, 13, 59, 0
11, 47760, Note_on_c, 13, 64, 80
11, 47999, Note_on_c, 13, 64, 0
11, 48000, Note_on_c, 13, 61, 80
11, 48224, Note_on_c, 13, 61, 0
11, 48240, Note_on_c, 13, 62, 80
11, 48479, Note_on_c, 13, 62, 0
11, 48480, Note_on_c, 13, 59, 80
11, 48704, Note_on_c, 13, 59, 0
11, 48720, Note_on_c, 13, 60, 80
11, 48749, Note_on_c, 13, 60, 0
11, 48750, Note_on_c, 13, 62, 80
11, 48779, Note_on_c, 13, 62, 0
11, 48780, Note_on_c, 13, 60, 80
11, 48809, Note_on_c, 13, 60, 0
11, 48810, Note_on_c, 13, 62, 80
11, 48839, Note_on_c, 13, 62, 0
11, 48840, Note_on_c, 13, 60, 80
11, 48879, Note_on_c, 13, 60, 0
11, 48880, Note_on_c, 13, 59, 80
11, 48919, Note_on_c, 13, 59, 0
11, 48920, Note_on_c, 13, 60, 80
11, 48959, Note_on_c, 13, 60, 0
11, 48960, Note_on_c, 13, 57, 80
11, 49139, Note_on_c, 13, 57, 0
11, 49200, Note_on_c, 13, 53, 80
11, 49379, Note_on_c, 13, 53, 0
11, 49440, Note_on_c, 13, 55, 80
11, 49619, Note_on_c, 13, 55, 0
11, 49680, Note_on_c, 13, 52, 80
11, 49859, Note_on_c, 13, 52, 0
11, 49920, Note_on_c, 13, 48, 80
11, 50099, Note_on_c, 13, 48, 0
11, 51600, Note_on_c, 13, 53, 44
11, 51824, Note_on_c, 13, 53, 0
11, 51840, Note_on_c, 13, 55, 44
11, 52079, Note_on_c, 13, 55, 0
11, 52080, Note_on_c, 13, 53, 44
11, 52319, Note_on_c, 13, 53, 0
11, 52320, Note_on_c, 13, 52, 44
11, 52544, Note_on_c, 13, 52, 0
11, 52560, Note_on_c, 13, 53, 44
11, 52799, Note_on_c, 13, 53, 0
11, 53040, Note_on_c, 13, 53, 44
11, 53264, Note_on_c, 13, 53, 0
11, 53280, Note_on_c, 13, 55, 44
11, 53519, Note_on_c, 13, 55, 0
11, 53520, Note_on_c, 13, 53, 44
11, 53759, Note_on_c, 13, 53, 0
11, 53760, Note_on_c, 13, 52, 44
11, 53984, Note_on_c, 13, 52, 0
11, 54000, Note_on_c, 13, 53, 44
11, 54239, Note_on_c, 13, 53, 0
11, 54480, Note_on_c, 13, 53, 44
11, 54704, Note_on_c, 13, 53, 0
11, 54720, Note_on_c, 13, 52, 44
11, 54944, Note_on_c, 13, 52, 0
11, 54960, Note_on_c, 13, 55, 44
11, 55199, Note_on_c, 13, 55, 0
11, 55440, Note_on_c, 13, 57, 44
11, 55664, Note_on_c, 13, 57, 0
11, 55680, Note_on_c, 13, 57, 44
11, 55919, Note_on_c, 13, 57, 0
11, 56160, Note_on_c, 13, 50, 44
11, 56384, Note_on_c, 13, 50, 0
11, 56400, Note_on_c, 13, 50, 44
11, 56624, Note_on_c, 13, 50, 0
11, 56640, Note_on_c, 13, 52, 44
11, 56759, Note_on_c, 13, 52, 0
11, 56760, Note_on_c, 13, 53, 44
11, 56864, Note_on_c, 13, 53, 0
11, 56880, Note_on_c, 13, 52, 44
11, 57119, Note_on_c, 13, 52, 0
11, 57600, Note_on_c, 13, 67, 80
11, 57704, Note_on_c, 13, 67, 0
11, 57720, Note_on_c, 13, 67, 80
11, 57944, Note_on_c, 13, 67, 0
11, 57960, Note_on_c, 13, 67, 80
11, 58184, Note_on_c, 13, 67, 0
11, 58200, Note_on_c, 13, 67, 80
11, 58304, Note_on_c, 13, 67, 0
11, 58320, Note_on_c, 13, 69, 80
11, 58424, Note_on_c, 13, 69, 0
11, 58440, Note_on_c, 13, 69, 80
11, 58664, Note_on_c, 13, 69, 0
11, 58680, Note_on_c, 13, 69, 80
11, 58904, Note_on_c, 13, 69, 0
11, 58920, Note_on_c, 13, 69, 80
11, 59024, Note_on_c, 13, 69, 0
11, 59040, Note_on_c, 13, 62, 80
11, 59144, Note_on_c, 13, 62, 0
11, 59160, Note_on_c, 13, 62, 80
11, 59384, Note_on_c, 13, 62, 0
11, 59400, Note_on_c, 13, 62, 80
11, 59504, Note_on_c, 13, 62, 0
11, 59520, Note_on_c, 13, 64, 80
11, 59624, Note_on_c, 13, 64, 0
11, 59640, Note_on_c, 13, 65, 80
11, 59744, Note_on_c, 13, 65, 0
11, 59760, Note_on_c, 13, 55, 80
11, 59760, Note_on_c, 13, 64, 80
11, 59760, Note_on_c, 13, 48, 80
11, 60239, Note_on_c, 13, 55, 0
11, 60239, Note_on_c, 13, 64, 0
11, 60239, Note_on_c, 13, 48, 0
11, 63360, Note_on_c, 13, 53, 44
11, 63599, Note_on_c, 13, 53, 0
11, 64080, Note_on_c, 13, 53, 44
11, 64319, Note_on_c, 13, 53, 0
11, 64800, Note_on_c, 13, 60, 44
11, 65024, Note_on_c, 13, 60, 0
11, 65040, Note_on_c, 13, 60, 44
11, 65264, Note_on_c, 13, 60, 0
11, 65280, Note_on_c, 13, 60, 44
11, 65504, Note_on_c, 13, 60, 0
11, 65520, Note_on_c, 13, 60, 44
11, 66239, Note_on_c, 13, 60, 0
11, 69120, Note_on_c, 13, 53, 44
11, 69359, Note_on_c, 13, 53, 0
11, 69840, Note_on_c, 13, 53, 44
11, 70079, Note_on_c, 13, 53, 0
11, 70560, Note_on_c, 13, 60, 44
11, 70784, Note_on_c, 13, 60, 0
11, 70800, Note_on_c, 13, 60, 44
11, 71024, Note_on_c, 13, 60, 0
11, 71040, Note_on_c, 13, 60, 44
11, 71264, Note_on_c, 13, 60, 0
11, 71280, Note_on_c, 13, 60, 44
11, 71999, Note_on_c, 13, 60, 0
11, 72000, Note_on_c, 13, 75, 80
11, 72224, Note_on_c, 13, 75, 0
11, 72240, Note_on_c, 13, 72, 80
11, 72404, Note_on_c, 13, 72, 0
11, 72420, Note_on_c, 13, 74, 80
11, 72471, Note_on_c, 13, 74, 0
11, 72480, Note_on_c, 13, 75, 80
11, 72704, Note_on_c, 13, 75, 0
11, 72720, Note_on_c, 13, 66, 80
11, 72899, Note_on_c, 13, 66, 0
11, 72960, Note_on_c, 13, 67, 80
11, 73139, Note_on_c, 13, 67, 0
11, 73200, Note_on_c, 13, 68, 80
11, 73379, Note_on_c, 13, 68, 0
11, 73440, Note_on_c, 13, 69, 80
11, 73664, Note_on_c, 13, 69, 0
11, 73680, Note_on_c, 13, 65, 80
11, 73844, Note_on_c, 13, 65, 0
11, 73860, Note_on_c, 13, 67, 80
11, 73911, Note_on_c, 13, 67, 0
11, 73920, Note_on_c, 13, 69, 80
11, 74144, Note_on_c, 13, 69, 0
11, 74160, Note_on_c, 13, 59, 80
11, 74339, Note_on_c, 13, 59, 0
11, 74400, Note_on_c, 13, 60, 80
11, 74579, Note_on_c, 13, 60, 0
11, 74640, Note_on_c, 13, 61, 80
11, 74819, Note_on_c, 13, 61, 0
11, 74880, Note_on_c, 13, 62, 80
11, 75104, Note_on_c, 13, 62, 0
11, 75120, Note_on_c, 13, 64, 80
11, 75179, Note_on_c, 13, 64, 0
11, 75180, Note_on_c, 13, 62, 80
11, 75344, Note_on_c, 13, 62, 0
11, 75360, Note_on_c, 13, 60, 80
11, 75464, Note_on_c, 13, 60, 0
11, 75480, Note_on_c, 13, 58, 80
11, 75584, Note_on_c, 13, 58, 0
11, 75600, Note_on_c, 13, 58, 80
11, 75659, Note_on_c, 13, 58, 0
11, 75660, Note_on_c, 13, 57, 80
11, 75824, Note_on_c, 13, 57, 0
11, 75840, Note_on_c, 13, 58, 80
11, 75899, Note_on_c, 13, 58, 0
11, 75900, Note_on_c, 13, 57, 80
11, 76064, Note_on_c, 13, 57, 0
11, 76080, Note_on_c, 13, 55, 80
11, 76184, Note_on_c, 13, 55, 0
11, 76200, Note_on_c, 13, 53, 80
11, 76304, Note_on_c, 13, 53, 0
11, 76320, Note_on_c, 13, 52, 80
11, 76559, Note_on_c, 13, 52, 0
11, 76800, Note_on_c, 13, 52, 80
11, 77024, Note_on_c, 13, 52, 0
11, 77040, Note_on_c, 13, 53, 80
11, 77279, Note_on_c, 13, 53, 0
11, 77280, Note_on_c, 13, 55, 80
11, 77504, Note_on_c, 13, 55, 0
11, 77520, Note_on_c, 13, 48, 80
11, 77744, Note_on_c, 13, 48, 0
11, 77760, Note_on_c, 13, 50, 80
11, 77984, Note_on_c, 13, 50, 0
11, 78000, Note_on_c, 13, 64, 80
11, 78059, Note_on_c, 13, 64, 0
11, 78060, Note_on_c, 13, 62, 80
11, 78224, Note_on_c, 13, 62, 0
11, 78240, Note_on_c, 13, 60, 80
11, 78344, Note_on_c, 13, 60, 0
11, 78360, Note_on_c, 13, 58, 80
11, 78464, Note_on_c, 13, 58, 0
11, 78480, Note_on_c, 13, 58, 80
11, 78539, Note_on_c, 13, 58, 0
11, 78540, Note_on_c, 13, 57, 80
11, 78704, Note_on_c, 13, 57, 0
11, 78720, Note_on_c, 13, 58, 80
11, 78779, Note_on_c, 13, 58, 0
11, 78780, Note_on_c, 13, 57, 80
11, 78944, Note_on_c, 13, 57, 0
11, 78960, Note_on_c, 13, 55, 80
11, 79064, Note_on_c, 13, 55, 0
11, 79080, Note_on_c, 13, 53, 80
11, 79184, Note_on_c, 13, 53, 0
11, 79200, Note_on_c, 13, 58, 80
11, 79424, Note_on_c, 13, 58, 0
11, 79440, Note_on_c, 13, 57, 80
11, 79664, Note_on_c, 13, 57, 0
11, 79680, Note_on_c, 13, 55, 80
11, 79904, Note_on_c, 13, 55, 0
11, 79920, Note_on_c, 13, 55, 80
11, 80399, Note_on_c, 13, 55, 0
11, 80400, Note_on_c, 13, 53, 80
11, 80624, Note_on_c, 13, 53, 0
11, 80640, Note_on_c, 13, 75, 80
11, 80864, Note_on_c, 13, 75, 0
11, 80880, Note_on_c, 13, 72, 80
11, 81044, Note_on_c, 13, 72, 0
11, 81060, Note_on_c, 13, 74, 80
11, 81111, Note_on_c, 13, 74, 0
11, 81120, Note_on_c, 13, 75, 80
11, 81344, Note_on_c, 13, 75, 0
11, 81360, Note_on_c, 13, 66, 80
11, 81539, Note_on_c, 13, 66, 0
11, 81600, Note_on_c, 13, 67, 80
11, 81779, Note_on_c, 13, 67, 0
11, 81840, Note_on_c, 13, 68, 80
11, 82019, Note_on_c, 13, 68, 0
11, 82080, Note_on_c, 13, 69, 80
11, 82304, Note_on_c, 13, 69, 0
11, 82320, Note_on_c, 13, 65, 80
11, 82484, Note_on_c, 13, 65, 0
11, 82500, Note_on_c, 13, 67, 80
11, 82551, Note_on_c, 13, 67, 0
11, 82560, Note_on_c, 13, 69, 80
11, 82784, Note_on_c, 13, 69, 0
11, 82800, Note_on_c, 13, 59, 80
11, 82979, Note_on_c, 13, 59, 0
11, 83040, Note_on_c, 13, 60, 80
11, 83219, Note_on_c, 13, 60, 0
11, 83280, Note_on_c, 13, 61, 80
11, 83459, Note_on_c, 13, 61, 0
11, 83520, Note_on_c, 13, 62, 80
11, 83744, Note_on_c, 13, 62, 0
11, 83760, Note_on_c, 13, 64, 80
11, 83819, Note_on_c, 13, 64, 0
11, 83820, Note_on_c, 13, 62, 80
11, 83984, Note_on_c, 13, 62, 0
11, 84000, Note_on_c, 13, 60, 80
11, 84104, Note_on_c, 13, 60, 0
11, 84120, Note_on_c, 13, 58, 80
11, 84224, Note_on_c, 13, 58, 0
11, 84240, Note_on_c, 13, 58, 80
11, 84299, Note_on_c, 13, 58, 0
11, 84300, Note_on_c, 13, 57, 80
11, 84464, Note_on_c, 13, 57, 0
11, 84480, Note_on_c, 13, 58, 80
11, 84539, Note_on_c, 13, 58, 0
11, 84540, Note_on_c, 13, 57, 80
11, 84704, Note_on_c, 13, 57, 0
11, 84720, Note_on_c, 13, 55, 80
11, 84824, Note_on_c, 13, 55, 0
11, 84840, Note_on_c, 13, 53, 80
11, 84944, Note_on_c, 13, 53, 0
11, 84960, Note_on_c, 13, 52, 80
11, 85199, Note_on_c, 13, 52, 0
11, 85440, Note_on_c, 13, 52, 80
11, 85664, Note_on_c, 13, 52, 0
11, 85680, Note_on_c, 13, 53, 80
11, 85919, Note_on_c, 13, 53, 0
11, 85920, Note_on_c, 13, 55, 80
11, 86144, Note_on_c, 13, 55, 0
11, 86160, Note_on_c, 13, 48, 80
11, 86384, Note_on_c, 13, 48, 0
11, 86400, Note_on_c, 13, 50, 80
11, 86624, Note_on_c, 13, 50, 0
11, 86640, Note_on_c, 13, 64, 80
11, 86699, Note_on_c, 13, 64, 0
11, 86700, Note_on_c, 13, 62, 80
11, 86864, Note_on_c, 13, 62, 0
11, 86880, Note_on_c, 13, 60, 80
11, 86984, Note_on_c, 13, 60, 0
11, 87000, Note_on_c, 13, 58, 80
11, 87104, Note_on_c, 13, 58, 0
11, 87120, Note_on_c, 13, 58, 80
11, 87179, Note_on_c, 13, 58, 0
11, 87180, Note_on_c, 13, 57, 80
11, 87344, Note_on_c, 13, 57, 0
11, 87360, Note_on_c, 13, 58, 80
11, 87419, Note_on_c, 13, 58, 0
11, 87420, Note_on_c, 13, 57, 80
11, 87584, Note_on_c, 13, 57, 0
11, 87600, Note_on_c, 13, 55, 80
11, 87704, Note_on_c, 13, 55, 0
11, 87720, Note_on_c, 13, 53, 80
11, 87824, Note_on_c, 13, 53, 0
11, 87840, Note_on_c, 13, 58, 80
11, 88064, Note_on_c, 13, 58, 0
11, 88080, Note_on_c, 13, 57, 80
11, 88304, Note_on_c, 13, 57, 0
11, 88320, Note_on_c, 13, 55, 80
11, 88544, Note_on_c, 13, 55, 0
11, 88560, Note_on_c, 13, 55, 80
11, 89039, Note_on_c, 13, 55, 0
11, 89040, Note_on_c, 13, 53, 80
11, 89264, Note_on_c, 13, 53, 0
11, 89520, Note_on_c, 13, 64, 80
11, 89759, Note_on_c, 13, 64, 0
11, 89760, Note_on_c, 13, 61, 80
11, 89984, Note_on_c, 13, 61, 0
11, 90000, Note_on_c, 13, 62, 80
11, 90239, Note_on_c, 13, 62, 0
11, 90240, Note_on_c, 13, 59, 80
11, 90464, Note_on_c, 13, 59, 0
11, 90480, Note_on_c, 13, 55, 80
11, 90659, Note_on_c, 13, 55, 0
11, 90720, Note_on_c, 13, 60, 80
11, 90899, Note_on_c, 13, 60, 0
11, 90960, Note_on_c, 13, 57, 80
11, 91139, Note_on_c, 13, 57, 0
11, 91200, Note_on_c, 13, 54, 80
11, 91379, Note_on_c, 13, 54, 0
11, 91440, Note_on_c, 13, 55, 80
11, 91679, Note_on_c, 13, 55, 0
11, 93840, Note_on_c, 13, 59, 44
11, 94079, Note_on_c, 13, 59, 0
11, 94080, Note_on_c, 13, 60, 44
11, 94319, Note_on_c, 13, 60, 0
11, 94560, Note_on_c, 13, 62, 44
11, 94799, Note_on_c, 13, 62, 0
11, 94800, Note_on_c, 13, 60, 44
11, 95039, Note_on_c, 13, 60, 0
11, 95280, Note_on_c, 13, 59, 44
11, 95519, Note_on_c, 13, 59, 0
11, 95520, Note_on_c, 13, 60, 44
11, 95759, Note_on_c, 13, 60, 0
11, 96000, Note_on_c, 13, 62, 44
11, 96239, Note_on_c, 13, 62, 0
11, 96240, Note_on_c, 13, 60, 44
11, 96464, Note_on_c, 13, 60, 0
11, 96480, Note_on_c, 13, 59, 44
11, 96959, Note_on_c, 13, 59, 0
11, 96960, Note_on_c, 13, 55, 44
11, 97184, Note_on_c, 13, 55, 0
11, 97200, Note_on_c, 13, 55, 44
11, 97424, Note_on_c, 13, 55, 0
11, 97440, Note_on_c, 13, 55, 44
11, 97679, Note_on_c, 13, 55, 0
11, 97920, Note_on_c, 13, 54, 44
11, 98624, Note_on_c, 13, 54, 0
11, 98640, Note_on_c, 13, 55, 44
11, 98879, Note_on_c, 13, 55, 0
11, 99600, Note_on_c, 13, 64, 80
11, 99839, Note_on_c, 13, 64, 0
11, 99840, Note_on_c, 13, 61, 80
11, 100064, Note_on_c, 13, 61, 0
11, 100080, Note_on_c, 13, 62, 80
11, 100319, Note_on_c, 13, 62, 0
11, 100320, Note_on_c, 13, 65, 80
11, 100559, Note_on_c, 13, 65, 0
11, 102480, Note_on_c, 13, 62, 80
11, 102719, Note_on_c, 13, 62, 0
11, 102720, Note_on_c, 13, 59, 80
11, 102944, Note_on_c, 13, 59, 0
11, 102960, Note_on_c, 13, 60, 80
11, 103199, Note_on_c, 13, 60, 0
11, 103200, Note_on_c, 13, 64, 80
11, 103424, Note_on_c, 13, 64, 0
11, 103440, Note_on_c, 13, 55, 44
11, 103664, Note_on_c, 13, 55, 0
11, 103680, Note_on_c, 13, 53, 44
11, 103859, Note_on_c, 13, 53, 0
11, 103920, Note_on_c, 13, 53, 44
11, 104159, Note_on_c, 13, 53, 0
11, 104160, Note_on_c, 13, 57, 44
11, 104384, Note_on_c, 13, 57, 0
11, 104400, Note_on_c, 13, 50, 44
11, 104879, Note_on_c, 13, 50, 0
11, 104880, Note_on_c, 13, 59, 44
11, 105104, Note_on_c, 13, 59, 0
11, 105120, Note_on_c, 13, 52, 44
11, 105359, Note_on_c, 13, 52, 0
11, 105600, Note_on_c, 13, 57, 44
11, 105719, Note_on_c, 13, 57, 0
11, 105720, Note_on_c, 13, 62, 44
11, 105824, Note_on_c, 13, 62, 0
11, 105840, Note_on_c, 13, 60, 44
11, 106319, Note_on_c, 13, 60, 0
11, 106320, Note_on_c, 13, 59, 44
11, 106559, Note_on_c, 13, 59, 0
11, 106800, Note_on_c, 13, 64, 80
11, 107039, Note_on_c, 13, 64, 0
11, 107040, Note_on_c, 13, 61, 80
11, 107264, Note_on_c, 13, 61, 0
11, 107280, Note_on_c, 13, 62, 80
11, 107519, Note_on_c, 13, 62, 0
11, 107520, Note_on_c, 13, 59, 80
11, 107744, Note_on_c, 13, 59, 0
11, 107760, Note_on_c, 13, 60, 80
11, 107789, Note_on_c, 13, 60, 0
11, 107790, Note_on_c, 13, 62, 80
11, 107819, Note_on_c, 13, 62, 0
11, 107820, Note_on_c, 13, 60, 80
11, 107849, Note_on_c, 13, 60, 0
11, 107850, Note_on_c, 13, 62, 80
11, 107879, Note_on_c, 13, 62, 0
11, 107880, Note_on_c, 13, 60, 80
11, 107919, Note_on_c, 13, 60, 0
11, 107920, Note_on_c, 13, 59, 80
11, 107959, Note_on_c, 13, 59, 0
11, 107960, Note_on_c, 13, 60, 80
11, 107999, Note_on_c, 13, 60, 0
11, 108000, Note_on_c, 13, 57, 80
11, 108179, Note_on_c, 13, 57, 0
11, 108240, Note_on_c, 13, 53, 80
11, 108419, Note_on_c, 13, 53, 0
11, 108480, Note_on_c, 13, 55, 80
11, 108659, Note_on_c, 13, 55, 0
11, 108720, Note_on_c, 13, 52, 80
11, 108899, Note_on_c, 13, 52, 0
11, 108960, Note_on_c, 13, 48, 80
11, 109139, Note_on_c, 13, 48, 0
11, 110640, Note_on_c, 13, 53, 44
11, 110864, Note_on_c, 13, 53, 0
11, 110880, Note_on_c, 13, 55, 44
11, 111119, Note_on_c, 13, 55, 0
11, 111120, Note_on_c, 13, 53, 44
11, 111359, Note_on_c, 13, 53, 0
11, 111360, Note_on_c, 13, 52, 44
11, 111584, Note_on_c, 13, 52, 0
11, 111600, Note_on_c, 13, 53, 44
11, 111839, Note_on_c, 13, 53, 0
11, 112080, Note_on_c, 13, 53, 44
11, 112304, Note_on_c, 13, 53, 0
11, 112320, Note_on_c, 13, 55, 44
11, 112559, Note_on_c, 13, 55, 0
11, 112560, Note_on_c, 13, 53, 44
11, 112799, Note_on_c, 13, 53, 0
11, 112800, Note_on_c, 13, 52, 44
11, 113024, Note_on_c, 13, 52, 0
11, 113040, Note_on_c, 13, 53, 44
11, 113279, Note_on_c, 13, 53, 0
11, 113520, Note_on_c, 13, 53, 44
11, 113744, Note_on_c, 13, 53, 0
11, 113760, Note_on_c, 13, 52, 44
11, 113984, Note_on_c, 13, 52, 0
11, 114000, Note_on_c, 13, 55, 44
11, 114239, Note_on_c, 13, 55, 0
11, 114480, Note_on_c, 13, 57, 44
11, 114704, Note_on_c, 13, 57, 0
11, 114720, Note_on_c, 13, 57, 44
11, 114959, Note_on_c, 13, 57, 0
11, 115200, Note_on_c, 13, 50, 44
11, 115424, Note_on_c, 13, 50, 0
11, 115440, Note_on_c, 13, 50, 44
11, 115664, Note_on_c, 13, 50, 0
11, 115680, Note_on_c, 13, 52, 44
11, 115799, Note_on_c, 13, 52, 0
11, 115800, Note_on_c, 13, 53, 44
11, 115904, Note_on_c, 13, 53, 0
11, 115920, Note_on_c, 13, 52, 44
11, 116159, Note_on_c, 13, 52, 0
11, 116640, Note_on_c, 13, 67, 80
11, 116744, Note_on_c, 13, 67, 0
11, 116760, Note_on_c, 13, 67, 80
11, 116984, Note_on_c, 13, 67, 0
11, 117000, Note_on_c, 13, 67, 80
11, 117224, Note_on_c, 13, 67, 0
11, 117240, Note_on_c, 13, 67, 80
11, 117344, Note_on_c, 13, 67, 0
11, 117360, Note_on_c, 13, 69, 80
11, 117464, Note_on_c, 13, 69, 0
11, 117480, Note_on_c, 13, 69, 80
11, 117704, Note_on_c, 13, 69, 0
11, 117720, Note_on_c, 13, 69, 80
11, 117944, Note_on_c, 13, 69, 0
11, 117960, Note_on_c, 13, 69, 80
11, 118064, Note_on_c, 13, 69, 0
11, 118080, Note_on_c, 13, 62, 80
11, 118184, Note_on_c, 13, 62, 0
11, 118200, Note_on_c, 13, 62, 80
11, 118424, Note_on_c, 13, 62, 0
11, 118440, Note_on_c, 13, 62, 80
11, 118544, Note_on_c, 13, 62, 0
11, 118560, Note_on_c, 13, 64, 80
11, 118664, Note_on_c, 13, 64, 0
11, 118680, Note_on_c, 13, 65, 80
11, 118784, Note_on_c, 13, 65, 0
11, 118800, Note_on_c, 13, 48, 80
11, 118800, Note_on_c, 13, 64, 80
11, 118800, Note_on_c, 13, 55, 80
11, 119279, Note_on_c, 13, 48, 0
11, 119279, Note_on_c, 13, 64, 0
11, 119279, Note_on_c, 13, 55, 0
11, 119279, End_track
12, 0, Start_track
12, 0, Title_t, "Cello"
12, 0, MIDI_port, 0
12, 0, Control_c, 14, 121, 0
12, 0, Program_c, 14, 48
12, 0, Control_c, 14, 7, 96
12, 0, Control_c, 14, 10, 90
12, 0, Control_c, 14, 11, 127
12, 240, Note_on_c, 14, 64, 80
12, 479, Note_on_c, 14, 64, 0
12, 480, Note_on_c, 14, 61, 80
12, 704, Note_on_c, 14, 61, 0
12, 720, Note_on_c, 14, 62, 80
12, 959, Note_on_c, 14, 62, 0
12, 960, Note_on_c, 14, 59, 80
12, 1184, Note_on_c, 14, 59, 0
12, 1200, Note_on_c, 14, 55, 80
12, 1379, Note_on_c, 14, 55, 0
12, 1440, Note_on_c, 14, 60, 80
12, 1619, Note_on_c, 14, 60, 0
12, 1680, Note_on_c, 14, 57, 80
12, 1859, Note_on_c, 14, 57, 0
12, 1920, Note_on_c, 14, 54, 80
12, 2099, Note_on_c, 14, 54, 0
12, 2160, Note_on_c, 14, 55, 80
12, 2399, Note_on_c, 14, 55, 0
12, 4320, Note_on_c, 14, 50, 44
12, 4799, Note_on_c, 14, 50, 0
12, 4800, Note_on_c, 14, 48, 44
12, 5024, Note_on_c, 14, 48, 0
12, 5040, Note_on_c, 14, 47, 44
12, 5519, Note_on_c, 14, 47, 0
12, 5520, Note_on_c, 14, 48, 44
12, 5744, Note_on_c, 14, 48, 0
12, 5760, Note_on_c, 14, 50, 44
12, 6239, Note_on_c, 14, 50, 0
12, 6240, Note_on_c, 14, 48, 44
12, 6464, Note_on_c, 14, 48, 0
12, 6480, Note_on_c, 14, 47, 44
12, 6959, Note_on_c, 14, 47, 0
12, 6960, Note_on_c, 14, 48, 44
12, 7184, Note_on_c, 14, 48, 0
12, 7200, Note_on_c, 14, 43, 44
12, 7904, Note_on_c, 14, 43, 0
12, 7920, Note_on_c, 14, 48, 44
12, 8144, Note_on_c, 14, 48, 0
12, 8160, Note_on_c, 14, 48, 44
12, 8399, Note_on_c, 14, 48, 0
12, 8640, Note_on_c, 14, 50, 44
12, 8864, Note_on_c, 14, 50, 0
12, 8880, Note_on_c, 14, 50, 44
12, 9104, Note_on_c, 14, 50, 0
12, 9120, Note_on_c, 14, 50, 44
12, 9344, Note_on_c, 14, 50, 0
12, 9360, Note_on_c, 14, 55, 44
12, 9584, Note_on_c, 14, 55, 0
12, 9600, Note_on_c, 14, 43, 44
12, 9839, Note_on_c, 14, 43, 0
12, 10320, Note_on_c, 14, 64, 80
12, 10559, Note_on_c, 14, 64, 0
12, 10560, Note_on_c, 14, 61, 80
12, 10784, Note_on_c, 14, 61, 0
12, 10800, Note_on_c, 14, 62, 80
12, 11039, Note_on_c, 14, 62, 0
12, 11040, Note_on_c, 14, 59, 80
12, 11264, Note_on_c, 14, 59, 0
12, 11280, Note_on_c, 14, 55, 80
12, 11459, Note_on_c, 14, 55, 0
12, 11520, Note_on_c, 14, 60, 80
12, 11699, Note_on_c, 14, 60, 0
12, 11760, Note_on_c, 14, 57, 80
12, 11939, Note_on_c, 14, 57, 0
12, 12000, Note_on_c, 14, 54, 80
12, 12179, Note_on_c, 14, 54, 0
12, 12240, Note_on_c, 14, 55, 80
12, 12479, Note_on_c, 14, 55, 0
12, 14400, Note_on_c, 14, 50, 44
12, 14879, Note_on_c, 14, 50, 0
12, 14880, Note_on_c, 14, 48, 44
12, 15104, Note_on_c, 14, 48, 0
12, 15120, Note_on_c, 14, 47, 44
12, 15599, Note_on_c, 14, 47, 0
12, 15600, Note_on_c, 14, 48, 44
12, 15824, Note_on_c, 14, 48, 0
12, 15840, Note_on_c, 14, 50, 44
12, 16319, Note_on_c, 14, 50, 0
12, 16320, Note_on_c, 14, 48, 44
12, 16544, Note_on_c, 14, 48, 0
12, 16560, Note_on_c, 14, 47, 44
12, 17039, Note_on_c, 14, 47, 0
12, 17040, Note_on_c, 14, 48, 44
12, 17264, Note_on_c, 14, 48, 0
12, 17280, Note_on_c, 14, 43, 44
12, 17984, Note_on_c, 14, 43, 0
12, 18000, Note_on_c, 14, 48, 44
12, 18224, Note_on_c, 14, 48, 0
12, 18240, Note_on_c, 14, 48, 44
12, 18479, Note_on_c, 14, 48, 0
12, 18720, Note_on_c, 14, 50, 44
12, 18944, Note_on_c, 14, 50, 0
12, 18960, Note_on_c, 14, 50, 44
12, 19184, Note_on_c, 14, 50, 0
12, 19200, Note_on_c, 14, 50, 44
12, 19424, Note_on_c, 14, 50, 0
12, 19440, Note_on_c, 14, 55, 44
12, 19664, Note_on_c, 14, 55, 0
12, 19680, Note_on_c, 14, 43, 44
12, 19919, Note_on_c, 14, 43, 0
12, 20400, Note_on_c, 14, 64, 80
12, 20639, Note_on_c, 14, 64, 0
12, 20640, Note_on_c, 14, 61, 80
12, 20864, Note_on_c, 14, 61, 0
12, 20880, Note_on_c, 14, 62, 80
12, 21119, Note_on_c, 14, 62, 0
12, 21120, Note_on_c, 14, 65, 80
12, 21359, Note_on_c, 14, 65, 0
12, 23280, Note_on_c, 14, 62, 80
12, 23519, Note_on_c, 14, 62, 0
12, 23520, Note_on_c, 14, 59, 80
12, 23744, Note_on_c, 14, 59, 0
12, 23760, Note_on_c, 14, 60, 80
12, 23999, Note_on_c, 14, 60, 0
12, 24000, Note_on_c, 14, 64, 80
12, 24224, Note_on_c, 14, 64, 0
12, 24240, Note_on_c, 14, 52, 44
12, 24464, Note_on_c, 14, 52, 0
12, 24480, Note_on_c, 14, 53, 44
12, 24959, Note_on_c, 14, 53, 0
12, 24960, Note_on_c, 14, 54, 44
12, 25184, Note_on_c, 14, 54, 0
12, 25200, Note_on_c, 14, 55, 44
12, 25679, Note_on_c, 14, 55, 0
12, 25680, Note_on_c, 14, 56, 44
12, 25904, Note_on_c, 14, 56, 0
12, 25920, Note_on_c, 14, 57, 44
12, 26399, Note_on_c, 14, 57, 0
12, 26400, Note_on_c, 14, 53, 44
12, 26624, Note_on_c, 14, 53, 0
12, 26640, Note_on_c, 14, 55, 44
12, 26864, Note_on_c, 14, 55, 0
12, 26880, Note_on_c, 14, 43, 44
12, 27104, Note_on_c, 14, 43, 0
12, 27120, Note_on_c, 14, 55, 44
12, 27359, Note_on_c, 14, 55, 0
12, 27600, Note_on_c, 14, 64, 80
12, 27839, Note_on_c, 14, 64, 0
12, 27840, Note_on_c, 14, 61, 80
12, 28064, Note_on_c, 14, 61, 0
12, 28080, Note_on_c, 14, 62, 80
12, 28319, Note_on_c, 14, 62, 0
12, 28320, Note_on_c, 14, 59, 80
12, 28544, Note_on_c, 14, 59, 0
12, 28560, Note_on_c, 14, 60, 80
12, 28589, Note_on_c, 14, 60, 0
12, 28590, Note_on_c, 14, 62, 80
12, 28619, Note_on_c, 14, 62, 0
12, 28620, Note_on_c, 14, 60, 80
12, 28649, Note_on_c, 14, 60, 0
12, 28650, Note_on_c, 14, 62, 80
12, 28679, Note_on_c, 14, 62, 0
12, 28680, Note_on_c, 14, 60, 80
12, 28719, Note_on_c, 14, 60, 0
12, 28720, Note_on_c, 14, 59, 80
12, 28759, Note_on_c, 14, 59, 0
12, 28760, Note_on_c, 14, 60, 80
12, 28799, Note_on_c, 14, 60, 0
12, 28800, Note_on_c, 14, 57, 80
12, 28979, Note_on_c, 14, 57, 0
12, 29040, Note_on_c, 14, 53, 80
12, 29219, Note_on_c, 14, 53, 0
12, 29280, Note_on_c, 14, 55, 80
12, 29459, Note_on_c, 14, 55, 0
12, 29520, Note_on_c, 14, 52, 80
12, 29699, Note_on_c, 14, 52, 0
12, 29760, Note_on_c, 14, 48, 80
12, 29939, Note_on_c, 14, 48, 0
12, 31440, Note_on_c, 14, 53, 44
12, 31664, Note_on_c, 14, 53, 0
12, 31680, Note_on_c, 14, 55, 44
12, 31919, Note_on_c, 14, 55, 0
12, 31920, Note_on_c, 14, 53, 44
12, 32159, Note_on_c, 14, 53, 0
12, 32160, Note_on_c, 14, 52, 44
12, 32384, Note_on_c, 14, 52, 0
12, 32400, Note_on_c, 14, 53, 44
12, 32639, Note_on_c, 14, 53, 0
12, 32880, Note_on_c, 14, 53, 44
12, 33104, Note_on_c, 14, 53, 0
12, 33120, Note_on_c, 14, 55, 44
12, 33359, Note_on_c, 14, 55, 0
12, 33360, Note_on_c, 14, 53, 44
12, 33599, Note_on_c, 14, 53, 0
12, 33600, Note_on_c, 14, 52, 44
12, 33824, Note_on_c, 14, 52, 0
12, 33840, Note_on_c, 14, 53, 44
12, 34079, Note_on_c, 14, 53, 0
12, 34320, Note_on_c, 14, 53, 44
12, 34544, Note_on_c, 14, 53, 0
12, 34560, Note_on_c, 14, 52, 44
12, 34784, Note_on_c, 14, 52, 0
12, 34800, Note_on_c, 14, 52, 44
12, 35039, Note_on_c, 14, 52, 0
12, 35280, Note_on_c, 14, 53, 44
12, 35504, Note_on_c, 14, 53, 0
12, 35520, Note_on_c, 14, 53, 44
12, 35759, Note_on_c, 14, 53, 0
12, 36000, Note_on_c, 14, 55, 44
12, 36224, Note_on_c, 14, 55, 0
12, 36240, Note_on_c, 14, 43, 44
12, 36464, Note_on_c, 14, 43, 0
12, 36480, Note_on_c, 14, 43, 44
12, 36704, Note_on_c, 14, 43, 0
12, 36720, Note_on_c, 14, 48, 44
12, 36959, Note_on_c, 14, 48, 0
12, 37440, Note_on_c, 14, 52, 80
12, 37664, Note_on_c, 14, 52, 0
12, 37680, Note_on_c, 14, 52, 80
12, 37904, Note_on_c, 14, 52, 0
12, 37920, Note_on_c, 14, 52, 80
12, 38144, Note_on_c, 14, 52, 0
12, 38160, Note_on_c, 14, 53, 80
12, 38384, Note_on_c, 14, 53, 0
12, 38400, Note_on_c, 14, 53, 80
12, 38624, Note_on_c, 14, 53, 0
12, 38640, Note_on_c, 14, 53, 80
12, 38864, Note_on_c, 14, 53, 0
12, 38880, Note_on_c, 14, 55, 80
12, 39104, Note_on_c, 14, 55, 0
12, 39120, Note_on_c, 14, 55, 80
12, 39344, Note_on_c, 14, 55, 0
12, 39360, Note_on_c, 14, 55, 80
12, 39584, Note_on_c, 14, 55, 0
12, 39600, Note_on_c, 14, 48, 80
12, 40079, Note_on_c, 14, 48, 0
12, 40560, Note_on_c, 14, 64, 80
12, 40799, Note_on_c, 14, 64, 0
12, 40800, Note_on_c, 14, 61, 80
12, 41024, Note_on_c, 14, 61, 0
12, 41040, Note_on_c, 14, 62, 80
12, 41279, Note_on_c, 14, 62, 0
12, 41280, Note_on_c, 14, 65, 80
12, 41519, Note_on_c, 14, 65, 0
12, 43440, Note_on_c, 14, 62, 80
12, 43679, Note_on_c, 14, 62, 0
12, 43680, Note_on_c, 14, 59, 80
12, 43904, Note_on_c, 14, 59, 0
12, 43920, Note_on_c, 14, 60, 80
12, 44159, Note_on_c, 14, 60, 0
12, 44160, Note_on_c, 14, 64, 80
12, 44384, Note_on_c, 14, 64, 0
12, 44400, Note_on_c, 14, 52, 44
12, 44624, Note_on_c, 14, 52, 0
12, 44640, Note_on_c, 14, 53, 44
12, 45119, Note_on_c, 14, 53, 0
12, 45120, Note_on_c, 14, 54, 44
12, 45344, Note_on_c, 14, 54, 0
12, 45360, Note_on_c, 14, 55, 44
12, 45839, Note_on_c, 14, 55, 0
12, 45840, Note_on_c, 14, 56, 44
12, 46064, Note_on_c, 14, 56, 0
12, 46080, Note_on_c, 14, 57, 44
12, 46559, Note_on_c, 14, 57, 0
12, 46560, Note_on_c, 14, 53, 44
12, 46784, Note_on_c, 14, 53, 0
12, 46800, Note_on_c, 14, 55, 44
12, 47024, Note_on_c, 14, 55, 0
12, 47040, Note_on_c, 14, 43, 44
12, 47264, Note_on_c, 14, 43, 0
12, 47280, Note_on_c, 14, 55, 44
12, 47519, Note_on_c, 14, 55, 0
12, 47760, Note_on_c, 14, 64, 80
12, 47999, Note_on_c, 14, 64, 0
12, 48000, Note_on_c, 14, 61, 80
12, 48224, Note_on_c, 14, 61, 0
12, 48240, Note_on_c, 14, 62, 80
12, 48479, Note_on_c, 14, 62, 0
12, 48480, Note_on_c, 14, 59, 80
12, 48704, Note_on_c, 14, 59, 0
12, 48720, Note_on_c, 14, 60, 80
12, 48749, Note_on_c, 14, 60, 0
12, 48750, Note_on_c, 14, 62, 80
12, 48779, Note_on_c, 14, 62, 0
12, 48780, Note_on_c, 14, 60, 80
12, 48809, Note_on_c, 14, 60, 0
12, 48810, Note_on_c, 14, 62, 80
12, 48839, Note_on_c, 14, 62, 0
12, 48840, Note_on_c, 14, 60, 80
12, 48879, Note_on_c, 14, 60, 0
12, 48880, Note_on_c, 14, 59, 80
12, 48919, Note_on_c, 14, 59, 0
12, 48920, Note_on_c, 14, 60, 80
12, 48959, Note_on_c, 14, 60, 0
12, 48960, Note_on_c, 14, 57, 80
12, 49139, Note_on_c, 14, 57, 0
12, 49200, Note_on_c, 14, 53, 80
12, 49379, Note_on_c, 14, 53, 0
12, 49440, Note_on_c, 14, 55, 80
12, 49619, Note_on_c, 14, 55, 0
12, 49680, Note_on_c, 14, 52, 80
12, 49859, Note_on_c, 14, 52, 0
12, 49920, Note_on_c, 14, 48, 80
12, 50099, Note_on_c, 14, 48, 0
12, 51600, Note_on_c, 14, 53, 44
12, 51824, Note_on_c, 14, 53, 0
12, 51840, Note_on_c, 14, 55, 44
12, 52079, Note_on_c, 14, 55, 0
12, 52080, Note_on_c, 14, 53, 44
12, 52319, Note_on_c, 14, 53, 0
12, 52320, Note_on_c, 14, 52, 44
12, 52544, Note_on_c, 14, 52, 0
12, 52560, Note_on_c, 14, 53, 44
12, 52799, Note_on_c, 14, 53, 0
12, 53040, Note_on_c, 14, 53, 44
12, 53264, Note_on_c, 14, 53, 0
12, 53280, Note_on_c, 14, 55, 44
12, 53519, Note_on_c, 14, 55, 0
12, 53520, Note_on_c, 14, 53, 44
12, 53759, Note_on_c, 14, 53, 0
12, 53760, Note_on_c, 14, 52, 44
12, 53984, Note_on_c, 14, 52, 0
12, 54000, Note_on_c, 14, 53, 44
12, 54239, Note_on_c, 14, 53, 0
12, 54480, Note_on_c, 14, 53, 44
12, 54704, Note_on_c, 14, 53, 0
12, 54720, Note_on_c, 14, 52, 44
12, 54944, Note_on_c, 14, 52, 0
12, 54960, Note_on_c, 14, 52, 44
12, 55199, Note_on_c, 14, 52, 0
12, 55440, Note_on_c, 14, 53, 44
12, 55664, Note_on_c, 14, 53, 0
12, 55680, Note_on_c, 14, 53, 44
12, 55919, Note_on_c, 14, 53, 0
12, 56160, Note_on_c, 14, 55, 44
12, 56384, Note_on_c, 14, 55, 0
12, 56400, Note_on_c, 14, 43, 44
12, 56624, Note_on_c, 14, 43, 0
12, 56640, Note_on_c, 14, 43, 44
12, 56864, Note_on_c, 14, 43, 0
12, 56880, Note_on_c, 14, 48, 44
12, 57119, Note_on_c, 14, 48, 0
12, 57600, Note_on_c, 14, 52, 80
12, 57824, Note_on_c, 14, 52, 0
12, 57840, Note_on_c, 14, 52, 80
12, 58064, Note_on_c, 14, 52, 0
12, 58080, Note_on_c, 14, 52, 80
12, 58304, Note_on_c, 14, 52, 0
12, 58320, Note_on_c, 14, 53, 80
12, 58544, Note_on_c, 14, 53, 0
12, 58560, Note_on_c, 14, 53, 80
12, 58784, Note_on_c, 14, 53, 0
12, 58800, Note_on_c, 14, 53, 80
12, 59024, Note_on_c, 14, 53, 0
12, 59040, Note_on_c, 14, 55, 80
12, 59264, Note_on_c, 14, 55, 0
12, 59280, Note_on_c, 14, 55, 80
12, 59504, Note_on_c, 14, 55, 0
12, 59520, Note_on_c, 14, 55, 80
12, 59744, Note_on_c, 14, 55, 0
12, 59760, Note_on_c, 14, 48, 80
12, 60239, Note_on_c, 14, 48, 0
12, 63360, Note_on_c, 14, 53, 44
12, 63599, Note_on_c, 14, 53, 0
12, 64080, Note_on_c, 14, 53, 44
12, 64319, Note_on_c, 14, 53, 0
12, 64800, Note_on_c, 14, 58, 44
12, 65024, Note_on_c, 14, 58, 0
12, 65040, Note_on_c, 14, 52, 44
12, 65264, Note_on_c, 14, 52, 0
12, 65280, Note_on_c, 14, 53, 44
12, 65504, Note_on_c, 14, 53, 0
12, 65520, Note_on_c, 14, 48, 44
12, 65744, Note_on_c, 14, 48, 0
12, 65760, Note_on_c, 14, 60, 44
12, 65984, Note_on_c, 14, 60, 0
12, 66000, Note_on_c, 14, 48, 44
12, 66239, Note_on_c, 14, 48, 0
12, 69120, Note_on_c, 14, 53, 44
12, 69359, Note_on_c, 14, 53, 0
12, 69840, Note_on_c, 14, 53, 44
12, 70079, Note_on_c, 14, 53, 0
12, 70560, Note_on_c, 14, 58, 44
12, 70784, Note_on_c, 14, 58, 0
12, 70800, Note_on_c, 14, 52, 44
12, 71024, Note_on_c, 14, 52, 0
12, 71040, Note_on_c, 14, 53, 44
12, 71264, Note_on_c, 14, 53, 0
12, 71280, Note_on_c, 14, 48, 44
12, 71504, Note_on_c, 14, 48, 0
12, 71520, Note_on_c, 14, 60, 44
12, 71744, Note_on_c, 14, 60, 0
12, 71760, Note_on_c, 14, 48, 44
12, 71999, Note_on_c, 14, 48, 0
12, 72000, Note_on_c, 14, 63, 80
12, 72224, Note_on_c, 14, 63, 0
12, 72240, Note_on_c, 14, 60, 80
12, 72404, Note_on_c, 14, 60, 0
12, 72420, Note_on_c, 14, 62, 80
12, 72471, Note_on_c, 14, 62, 0
12, 72480, Note_on_c, 14, 63, 80
12, 72704, Note_on_c, 14, 63, 0
12, 72720, Note_on_c, 14, 54, 80
12, 72899, Note_on_c, 14, 54, 0
12, 72960, Note_on_c, 14, 55, 80
12, 73139, Note_on_c, 14, 55, 0
12, 73200, Note_on_c, 14, 56, 80
12, 73379, Note_on_c, 14, 56, 0
12, 73440, Note_on_c, 14, 57, 80
12, 73664, Note_on_c, 14, 57, 0
12, 73680, Note_on_c, 14, 53, 80
12, 73844, Note_on_c, 14, 53, 0
12, 73860, Note_on_c, 14, 55, 80
12, 73911, Note_on_c, 14, 55, 0
12, 73920, Note_on_c, 14, 57, 80
12, 74144, Note_on_c, 14, 57, 0
12, 74160, Note_on_c, 14, 47, 80
12, 74339, Note_on_c, 14, 47, 0
12, 74400, Note_on_c, 14, 48, 80
12, 74579, Note_on_c, 14, 48, 0
12, 74640, Note_on_c, 14, 49, 80
12, 74819, Note_on_c, 14, 49, 0
12, 74880, Note_on_c, 14, 50, 80
12, 75104, Note_on_c, 14, 50, 0
12, 75120, Note_on_c, 14, 64, 80
12, 75179, Note_on_c, 14, 64, 0
12, 75180, Note_on_c, 14, 62, 80
12, 75344, Note_on_c, 14, 62, 0
12, 75360, Note_on_c, 14, 60, 80
12, 75464, Note_on_c, 14, 60, 0
12, 75480, Note_on_c, 14, 58, 80
12, 75584, Note_on_c, 14, 58, 0
12, 75600, Note_on_c, 14, 58, 80
12, 75659, Note_on_c, 14, 58, 0
12, 75660, Note_on_c, 14, 57, 80
12, 75824, Note_on_c, 14, 57, 0
12, 75840, Note_on_c, 14, 58, 80
12, 75899, Note_on_c, 14, 58, 0
12, 75900, Note_on_c, 14, 57, 80
12, 76064, Note_on_c, 14, 57, 0
12, 76080, Note_on_c, 14, 55, 80
12, 76184, Note_on_c, 14, 55, 0
12, 76200, Note_on_c, 14, 53, 80
12, 76304, Note_on_c, 14, 53, 0
12, 76320, Note_on_c, 14, 48, 80
12, 76559, Note_on_c, 14, 48, 0
12, 76800, Note_on_c, 14, 48, 80
12, 77024, Note_on_c, 14, 48, 0
12, 77040, Note_on_c, 14, 50, 80
12, 77279, Note_on_c, 14, 50, 0
12, 77280, Note_on_c, 14, 52, 80
12, 77519, Note_on_c, 14, 52, 0
12, 77520, Note_on_c, 14, 53, 80
12, 77744, Note_on_c, 14, 53, 0
12, 77760, Note_on_c, 14, 46, 80
12, 77984, Note_on_c, 14, 46, 0
12, 78240, Note_on_c, 14, 50, 80
12, 78464, Note_on_c, 14, 50, 0
12, 78480, Note_on_c, 14, 53, 80
12, 78719, Note_on_c, 14, 53, 0
12, 78960, Note_on_c, 14, 41, 80
12, 79184, Note_on_c, 14, 41, 0
12, 79200, Note_on_c, 14, 46, 80
12, 79424, Note_on_c, 14, 46, 0
12, 79440, Note_on_c, 14, 48, 80
12, 79664, Note_on_c, 14, 48, 0
12, 79680, Note_on_c, 14, 48, 80
12, 79904, Note_on_c, 14, 48, 0
12, 79920, Note_on_c, 14, 53, 80
12, 80144, Note_on_c, 14, 53, 0
12, 80160, Note_on_c, 14, 48, 80
12, 80384, Note_on_c, 14, 48, 0
12, 80400, Note_on_c, 14, 41, 80
12, 80624, Note_on_c, 14, 41, 0
12, 80640, Note_on_c, 14, 63, 80
12, 80864, Note_on_c, 14, 63, 0
12, 80880, Note_on_c, 14, 60, 80
12, 81044, Note_on_c, 14, 60, 0
12, 81060, Note_on_c, 14, 62, 80
12, 81111, Note_on_c, 14, 62, 0
12, 81120, Note_on_c, 14, 63, 80
12, 81344, Note_on_c, 14, 63, 0
12, 81360, Note_on_c, 14, 54, 80
12, 81539, Note_on_c, 14, 54, 0
12, 81600, Note_on_c, 14, 55, 80
12, 81779, Note_on_c, 14, 55, 0
12, 81840, Note_on_c, 14, 56, 80
12, 82019, Note_on_c, 14, 56, 0
12, 82080, Note_on_c, 14, 57, 80
12, 82304, Note_on_c, 14, 57, 0
12, 82320, Note_on_c, 14, 53, 80
12, 82484, Note_on_c, 14, 53, 0
12, 82500, Note_on_c, 14, 55, 80
12, 82551, Note_on_c, 14, 55, 0
12, 82560, Note_on_c, 14, 57, 80
12, 82784, Note_on_c, 14, 57, 0
12, 82800, Note_on_c, 14, 47, 80
12, 82979, Note_on_c, 14, 47, 0
12, 83040, Note_on_c, 14, 48, 80
12, 83219, Note_on_c, 14, 48, 0
12, 83280, Note_on_c, 14, 49, 80
12, 83459, Note_on_c, 14, 49, 0
12, 83520, Note_on_c, 14, 50, 80
12, 83744, Note_on_c, 14, 50, 0
12, 83760, Note_on_c, 14, 64, 80
12, 83819, Note_on_c, 14, 64, 0
12, 83820, Note_on_c, 14, 62, 80
12, 83984, Note_on_c, 14, 62, 0
12, 84000, Note_on_c, 14, 60, 80
12, 84104, Note_on_c, 14, 60, 0
12, 84120, Note_on_c, 14, 58, 80
12, 84224, Note_on_c, 14, 58, 0
12, 84240, Note_on_c, 14, 58, 80
12, 84299, Note_on_c, 14, 58, 0
12, 84300, Note_on_c, 14, 57, 80
12, 84464, Note_on_c, 14, 57, 0
12, 84480, Note_on_c, 14, 58, 80
12, 84539, Note_on_c, 14, 58, 0
12, 84540, Note_on_c, 14, 57, 80
12, 84704, Note_on_c, 14, 57, 0
12, 84720, Note_on_c, 14, 55, 80
12, 84824, Note_on_c, 14, 55, 0
12, 84840, Note_on_c, 14, 53, 80
12, 84944, Note_on_c, 14, 53, 0
12, 84960, Note_on_c, 14, 48, 80
12, 85199, Note_on_c, 14, 48, 0
12, 85440, Note_on_c, 14, 48, 80
12, 85664, Note_on_c, 14, 48, 0
12, 85680, Note_on_c, 14, 50, 80
12, 85919, Note_on_c, 14, 50, 0
12, 85920, Note_on_c, 14, 52, 80
12, 86159, Note_on_c, 14, 52, 0
12, 86160, Note_on_c, 14, 53, 80
12, 86384, Note_on_c, 14, 53, 0
12, 86400, Note_on_c, 14, 46, 80
12, 86624, Note_on_c, 14, 46, 0
12, 86880, Note_on_c, 14, 50, 80
12, 87104, Note_on_c, 14, 50, 0
12, 87120, Note_on_c, 14, 53, 80
12, 87359, Note_on_c, 14, 53, 0
12, 87600, Note_on_c, 14, 41, 80
12, 87824, Note_on_c, 14, 41, 0
12, 87840, Note_on_c, 14, 46, 80
12, 88064, Note_on_c, 14, 46, 0
12, 88080, Note_on_c, 14, 48, 80
12, 88304, Note_on_c, 14, 48, 0
12, 88320, Note_on_c, 14, 48, 80
12, 88544, Note_on_c, 14, 48, 0
12, 88560, Note_on_c, 14, 53, 80
12, 88784, Note_on_c, 14, 53, 0
12, 88800, Note_on_c, 14, 48, 80
12, 89024, Note_on_c, 14, 48, 0
12, 89040, Note_on_c, 14, 41, 80
12, 89264, Note_on_c, 14, 41, 0
12, 89520, Note_on_c, 14, 64, 80
12, 89759, Note_on_c, 14, 64, 0
12, 89760, Note_on_c, 14, 61, 80
12, 89984, Note_on_c, 14, 61, 0
12, 90000, Note_on_c, 14, 62, 80
12, 90239, Note_on_c, 14, 62, 0
12, 90240, Note_on_c, 14, 59, 80
12, 90464, Note_on_c, 14, 59, 0
12, 90480, Note_on_c, 14, 55, 80
12, 90659, Note_on_c, 14, 55, 0
12, 90720, Note_on_c, 14, 60, 80
12, 90899, Note_on_c, 14, 60, 0
12, 90960, Note_on_c, 14, 57, 80
12, 91139, Note_on_c, 14, 57, 0
12, 91200, Note_on_c, 14, 54, 80
12, 91379, Note_on_c, 14, 54, 0
12, 91440, Note_on_c, 14, 55, 80
12, 91679, Note_on_c, 14, 55, 0
12, 93600, Note_on_c, 14, 50, 44
12, 94079, Note_on_c, 14, 50, 0
12, 94080, Note_on_c, 14, 48, 44
12, 94304, Note_on_c, 14, 48, 0
12, 94320, Note_on_c, 14, 47, 44
12, 94799, Note_on_c, 14, 47, 0
12, 94800, Note_on_c, 14, 48, 44
12, 95024, Note_on_c, 14, 48, 0
12, 95040, Note_on_c, 14, 50, 44
12, 95519, Note_on_c, 14, 50, 0
12, 95520, Note_on_c, 14, 48, 44
12, 95744, Note_on_c, 14, 48, 0
12, 95760, Note_on_c, 14, 47, 44
12, 96239, Note_on_c, 14, 47, 0
12, 96240, Note_on_c, 14, 48, 44
12, 96464, Note_on_c, 14, 48, 0
12, 96480, Note_on_c, 14, 43, 44
12, 97184, Note_on_c, 14, 43, 0
12, 97200, Note_on_c, 14, 48, 44
12, 97424, Note_on_c, 14, 48, 0
12, 97440, Note_on_c, 14, 48, 44
12, 97679, Note_on_c, 14, 48, 0
12, 97920, Note_on_c, 14, 50, 44
12, 98144, Note_on_c, 14, 50, 0
12, 98160, Note_on_c, 14, 50, 44
12, 98384, Note_on_c, 14, 50, 0
12, 98400, Note_on_c, 14, 50, 44
12, 98624, Note_on_c, 14, 50, 0
12, 98640, Note_on_c, 14, 55, 44
12, 98864, Note_on_c, 14, 55, 0
12, 98880, Note_on_c, 14, 43, 44
12, 99119, Note_on_c, 14, 43, 0
12, 99600, Note_on_c, 14, 64, 80
12, 99839, Note_on_c, 14, 64, 0
12, 99840, Note_on_c, 14, 61, 80
12, 100064, Note_on_c, 14, 61, 0
12, 100080, Note_on_c, 14, 62, 80
12, 100319, Note_on_c, 14, 62, 0
12, 100320, Note_on_c, 14, 65, 80
12, 100559, Note_on_c, 14, 65, 0
12, 102480, Note_on_c, 14, 62, 80
12, 102719, Note_on_c, 14, 62, 0
12, 102720, Note_on_c, 14, 59, 80
12, 102944, Note_on_c, 14, 59, 0
12, 102960, Note_on_c, 14, 60, 80
12, 103199, Note_on_c, 14, 60, 0
12, 103200, Note_on_c, 14, 64, 80
12, 103424, Note_on_c, 14, 64, 0
12, 103440, Note_on_c, 14, 52, 44
12, 103664, Note_on_c, 14, 52, 0
12, 103680, Note_on_c, 14, 53, 44
12, 104159, Note_on_c, 14, 53, 0
12, 104160, Note_on_c, 14, 54, 44
12, 104384, Note_on_c, 14, 54, 0
12, 104400, Note_on_c, 14, 55, 44
12, 104879, Note_on_c, 14, 55, 0
12, 104880, Note_on_c, 14, 56, 44
12, 105104, Note_on_c, 14, 56, 0
12, 105120, Note_on_c, 14, 57, 44
12, 105599, Note_on_c, 14, 57, 0
12, 105600, Note_on_c, 14, 53, 44
12, 105824, Note_on_c, 14, 53, 0
12, 105840, Note_on_c, 14, 55, 44
12, 106064, Note_on_c, 14, 55, 0
12, 106080, Note_on_c, 14, 43, 44
12, 106304, Note_on_c, 14, 43, 0
12, 106320, Note_on_c, 14, 55, 44
12, 106559, Note_on_c, 14, 55, 0
12, 106800, Note_on_c, 14, 64, 80
12, 107039, Note_on_c, 14, 64, 0
12, 107040, Note_on_c, 14, 61, 80
12, 107264, Note_on_c, 14, 61, 0
12, 107280, Note_on_c, 14, 62, 80
12, 107519, Note_on_c, 14, 62, 0
12, 107520, Note_on_c, 14, 59, 80
12, 107744, Note_on_c, 14, 59, 0
12, 107760, Note_on_c, 14, 60, 80
12, 107789, Note_on_c, 14, 60, 0
12, 107790, Note_on_c, 14, 62, 80
12, 107819, Note_on_c, 14, 62, 0
12, 107820, Note_on_c, 14, 60, 80
12, 107849, Note_on_c, 14, 60, 0
12, 107850, Note_on_c, 14, 62, 80
12, 107879, Note_on_c, 14, 62, 0
12, 107880, Note_on_c, 14, 60, 80
12, 107919, Note_on_c, 14, 60, 0
12, 107920, Note_on_c, 14, 59, 80
12, 107959, Note_on_c, 14, 59, 0
12, 107960, Note_on_c, 14, 60, 80
12, 107999, Note_on_c, 14, 60, 0
12, 108000, Note_on_c, 14, 57, 80
12, 108179, Note_on_c, 14, 57, 0
12, 108240, Note_on_c, 14, 53, 80
12, 108419, Note_on_c, 14, 53, 0
12, 108480, Note_on_c, 14, 55, 80
12, 108659, Note_on_c, 14, 55, 0
12, 108720, Note_on_c, 14, 52, 80
12, 108899, Note_on_c, 14, 52, 0
12, 108960, Note_on_c, 14, 48, 80
12, 109139, Note_on_c, 14, 48, 0
12, 110640, Note_on_c, 14, 53, 44
12, 110864, Note_on_c, 14, 53, 0
12, 110880, Note_on_c, 14, 55, 44
12, 111119, Note_on_c, 14, 55, 0
12, 111120, Note_on_c, 14, 53, 44
12, 111359, Note_on_c, 14, 53, 0
12, 111360, Note_on_c, 14, 52, 44
12, 111584, Note_on_c, 14, 52, 0
12, 111600, Note_on_c, 14, 53, 44
12, 111839, Note_on_c, 14, 53, 0
12, 112080, Note_on_c, 14, 53, 44
12, 112304, Note_on_c, 14, 53, 0
12, 112320, Note_on_c, 14, 55, 44
12, 112559, Note_on_c, 14, 55, 0
12, 112560, Note_on_c, 14, 53, 44
12, 112799, Note_on_c, 14, 53, 0
12, 112800, Note_on_c, 14, 52, 44
12, 113024, Note_on_c, 14, 52, 0
12, 113040, Note_on_c, 14, 53, 44
12, 113279, Note_on_c, 14, 53, 0
12, 113520, Note_on_c, 14, 53, 44
12, 113744, Note_on_c, 14, 53, 0
12, 113760, Note_on_c, 14, 52, 44
12, 113984, Note_on_c, 14, 52, 0
12, 114000, Note_on_c, 14, 52, 44
12, 114239, Note_on_c, 14, 52, 0
12, 114480, Note_on_c, 14, 53, 44
12, 114704, Note_on_c, 14, 53, 0
12, 114720, Note_on_c, 14, 53, 44
12, 114959, Note_on_c, 14, 53, 0
12, 115200, Note_on_c, 14, 55, 44
12, 115424, Note_on_c, 14, 55, 0
12, 115440, Note_on_c, 14, 43, 44
12, 115664, Note_on_c, 14, 43, 0
12, 115680, Note_on_c, 14, 43, 44
12, 115904, Note_on_c, 14, 43, 0
12, 115920, Note_on_c, 14, 48, 44
12, 116159, Note_on_c, 14, 48, 0
12, 116640, Note_on_c, 14, 52, 80
12, 116864, Note_on_c, 14, 52, 0
12, 116880, Note_on_c, 14, 52, 80
12, 117104, Note_on_c, 14, 52, 0
12, 117120, Note_on_c, 14, 52, 80
12, 117344, Note_on_c, 14, 52, 0
12, 117360, Note_on_c, 14, 53, 80
12, 117584, Note_on_c, 14, 53, 0
12, 117600, Note_on_c, 14, 53, 80
12, 117824, Note_on_c, 14, 53, 0
12, 117840, Note_on_c, 14, 53, 80
12, 118064, Note_on_c, 14, 53, 0
12, 118080, Note_on_c, 14, 55, 80
12, 118304, Note_on_c, 14, 55, 0
12, 118320, Note_on_c, 14, 55, 80
12, 118544, Note_on_c, 14, 55, 0
12, 118560, Note_on_c, 14, 55, 80
12, 118784, Note_on_c, 14, 55, 0
12, 118800, Note_on_c, 14, 48, 80
12, 119279, Note_on_c, 14, 48, 0
12, 119279, End_track
13, 0, Start_track
13, 0, Title_t, "Contrabass"
13, 0, MIDI_port, 0
13, 0, Control_c, 15, 121, 0
13, 0, Program_c, 15, 48
13, 0, Control_c, 15, 7, 88
13, 0, Control_c, 15, 10, 100
13, 0, Control_c, 15, 11, 127
13, 240, Note_on_c, 15, 52, 80
13, 479, Note_on_c, 15, 52, 0
13, 480, Note_on_c, 15, 49, 80
13, 704, Note_on_c, 15, 49, 0
13, 720, Note_on_c, 15, 50, 80
13, 959, Note_on_c, 15, 50, 0
13, 960, Note_on_c, 15, 47, 80
13, 1184, Note_on_c, 15, 47, 0
13, 1200, Note_on_c, 15, 43, 80
13, 1379, Note_on_c, 15, 43, 0
13, 1440, Note_on_c, 15, 48, 80
13, 1619, Note_on_c, 15, 48, 0
13, 1680, Note_on_c, 15, 45, 80
13, 1859, Note_on_c, 15, 45, 0
13, 1920, Note_on_c, 15, 42, 80
13, 2099, Note_on_c, 15, 42, 0
13, 2160, Note_on_c, 15, 43, 80
13, 2399, Note_on_c, 15, 43, 0
13, 4320, Note_on_c, 15, 38, 44
13, 4799, Note_on_c, 15, 38, 0
13, 4800, Note_on_c, 15, 36, 44
13, 5024, Note_on_c, 15, 36, 0
13, 5040, Note_on_c, 15, 35, 44
13, 5519, Note_on_c, 15, 35, 0
13, 5520, Note_on_c, 15, 36, 44
13, 5744, Note_on_c, 15, 36, 0
13, 5760, Note_on_c, 15, 38, 44
13, 6239, Note_on_c, 15, 38, 0
13, 6240, Note_on_c, 15, 36, 44
13, 6464, Note_on_c, 15, 36, 0
13, 6480, Note_on_c, 15, 35, 44
13, 6959, Note_on_c, 15, 35, 0
13, 6960, Note_on_c, 15, 36, 44
13, 7184, Note_on_c, 15, 36, 0
13, 7200, Note_on_c, 15, 31, 44
13, 7904, Note_on_c, 15, 31, 0
13, 7920, Note_on_c, 15, 36, 44
13, 8144, Note_on_c, 15, 36, 0
13, 8160, Note_on_c, 15, 36, 44
13, 8399, Note_on_c, 15, 36, 0
13, 8640, Note_on_c, 15, 38, 44
13, 8864, Note_on_c, 15, 38, 0
13, 8880, Note_on_c, 15, 38, 44
13, 9104, Note_on_c, 15, 38, 0
13, 9120, Note_on_c, 15, 38, 44
13, 9344, Note_on_c, 15, 38, 0
13, 9360, Note_on_c, 15, 43, 44
13, 9584, Note_on_c, 15, 43, 0
13, 9600, Note_on_c, 15, 31, 44
13, 9839, Note_on_c, 15, 31, 0
13, 10320, Note_on_c, 15, 52, 80
13, 10559, Note_on_c, 15, 52, 0
13, 10560, Note_on_c, 15, 49, 80
13, 10784, Note_on_c, 15, 49, 0
13, 10800, Note_on_c, 15, 50, 80
13, 11039, Note_on_c, 15, 50, 0
13, 11040, Note_on_c, 15, 47, 80
13, 11264, Note_on_c, 15, 47, 0
13, 11280, Note_on_c, 15, 43, 80
13, 11459, Note_on_c, 15, 43, 0
13, 11520, Note_on_c, 15, 48, 80
13, 11699, Note_on_c, 15, 48, 0
13, 11760, Note_on_c, 15, 45, 80
13, 11939, Note_on_c, 15, 45, 0
13, 12000, Note_on_c, 15, 42, 80
13, 12179, Note_on_c, 15, 42, 0
13, 12240, Note_on_c, 15, 43, 80
13, 12479, Note_on_c, 15, 43, 0
13, 14400, Note_on_c, 15, 38, 44
13, 14879, Note_on_c, 15, 38, 0
13, 14880, Note_on_c, 15, 36, 44
13, 15104, Note_on_c, 15, 36, 0
13, 15120, Note_on_c, 15, 35, 44
13, 15599, Note_on_c, 15, 35, 0
13, 15600, Note_on_c, 15, 36, 44
13, 15824, Note_on_c, 15, 36, 0
13, 15840, Note_on_c, 15, 38, 44
13, 16319, Note_on_c, 15, 38, 0
13, 16320, Note_on_c, 15, 36, 44
13, 16544, Note_on_c, 15, 36, 0
13, 16560, Note_on_c, 15, 35, 44
13, 17039, Note_on_c, 15, 35, 0
13, 17040, Note_on_c, 15, 36, 44
13, 17264, Note_on_c, 15, 36, 0
13, 17280, Note_on_c, 15, 31, 44
13, 17984, Note_on_c, 15, 31, 0
13, 18000, Note_on_c, 15, 36, 44
13, 18224, Note_on_c, 15, 36, 0
13, 18240, Note_on_c, 15, 36, 44
13, 18479, Note_on_c, 15, 36, 0
13, 18720, Note_on_c, 15, 38, 44
13, 18944, Note_on_c, 15, 38, 0
13, 18960, Note_on_c, 15, 38, 44
13, 19184, Note_on_c, 15, 38, 0
13, 19200, Note_on_c, 15, 38, 44
13, 19424, Note_on_c, 15, 38, 0
13, 19440, Note_on_c, 15, 43, 44
13, 19664, Note_on_c, 15, 43, 0
13, 19680, Note_on_c, 15, 31, 44
13, 19919, Note_on_c, 15, 31, 0
13, 20400, Note_on_c, 15, 52, 80
13, 20639, Note_on_c, 15, 52, 0
13, 20640, Note_on_c, 15, 49, 80
13, 20864, Note_on_c, 15, 49, 0
13, 20880, Note_on_c, 15, 50, 80
13, 21119, Note_on_c, 15, 50, 0
13, 21120, Note_on_c, 15, 53, 80
13, 21359, Note_on_c, 15, 53, 0
13, 23280, Note_on_c, 15, 50, 80
13, 23519, Note_on_c, 15, 50, 0
13, 23520, Note_on_c, 15, 47, 80
13, 23744, Note_on_c, 15, 47, 0
13, 23760, Note_on_c, 15, 48, 80
13, 23999, Note_on_c, 15, 48, 0
13, 24000, Note_on_c, 15, 52, 80
13, 24224, Note_on_c, 15, 52, 0
13, 24240, Note_on_c, 15, 40, 44
13, 24464, Note_on_c, 15, 40, 0
13, 24480, Note_on_c, 15, 41, 44
13, 24959, Note_on_c, 15, 41, 0
13, 24960, Note_on_c, 15, 42, 44
13, 25184, Note_on_c, 15, 42, 0
13, 25200, Note_on_c, 15, 43, 44
13, 25679, Note_on_c, 15, 43, 0
13, 25680, Note_on_c, 15, 44, 44
13, 25904, Note_on_c, 15, 44, 0
13, 25920, Note_on_c, 15, 45, 44
13, 26399, Note_on_c, 15, 45, 0
13, 26400, Note_on_c, 15, 41, 44
13, 26624, Note_on_c, 15, 41, 0
13, 26640, Note_on_c, 15, 43, 44
13, 26864, Note_on_c, 15, 43, 0
13, 26880, Note_on_c, 15, 31, 44
13, 27104, Note_on_c, 15, 31, 0
13, 27120, Note_on_c, 15, 43, 44
13, 27359, Note_on_c, 15, 43, 0
13, 27600, Note_on_c, 15, 52, 80
13, 27839, Note_on_c, 15, 52, 0
13, 27840, Note_on_c, 15, 49, 80
13, 28064, Note_on_c, 15, 49, 0
13, 28080, Note_on_c, 15, 50, 80
13, 28319, Note_on_c, 15, 50, 0
13, 28320, Note_on_c, 15, 47, 80
13, 28544, Note_on_c, 15, 47, 0
13, 28560, Note_on_c, 15, 48, 80
13, 28589, Note_on_c, 15, 48, 0
13, 28590, Note_on_c, 15, 50, 80
13, 28619, Note_on_c, 15, 50, 0
13, 28620, Note_on_c, 15, 48, 80
13, 28649, Note_on_c, 15, 48, 0
13, 28650, Note_on_c, 15, 50, 80
13, 28679, Note_on_c, 15, 50, 0
13, 28680, Note_on_c, 15, 48, 80
13, 28719, Note_on_c, 15, 48, 0
13, 28720, Note_on_c, 15, 47, 80
13, 28759, Note_on_c, 15, 47, 0
13, 28760, Note_on_c, 15, 48, 80
13, 28799, Note_on_c, 15, 48, 0
13, 28800, Note_on_c, 15, 45, 80
13, 28979, Note_on_c, 15, 45, 0
13, 29040, Note_on_c, 15, 41, 80
13, 29219, Note_on_c, 15, 41, 0
13, 29280, Note_on_c, 15, 43, 80
13, 29459, Note_on_c, 15, 43, 0
13, 29520, Note_on_c, 15, 40, 80
13, 29699, Note_on_c, 15, 40, 0
13, 29760, Note_on_c, 15, 36, 80
13, 29939, Note_on_c, 15, 36, 0
13, 31440, Note_on_c, 15, 41, 44
13, 31664, Note_on_c, 15, 41, 0
13, 31680, Note_on_c, 15, 43, 44
13, 31919, Note_on_c, 15, 43, 0
13, 31920, Note_on_c, 15, 41, 44
13, 32159, Note_on_c, 15, 41, 0
13, 32160, Note_on_c, 15, 40, 44
13, 32384, Note_on_c, 15, 40, 0
13, 32400, Note_on_c, 15, 41, 44
13, 32639, Note_on_c, 15, 41, 0
13, 32880, Note_on_c, 15, 41, 44
13, 33104, Note_on_c, 15, 41, 0
13, 33120, Note_on_c, 15, 43, 44
13, 33359, Note_on_c, 15, 43, 0
13, 33360, Note_on_c, 15, 41, 44
13, 33599, Note_on_c, 15, 41, 0
13, 33600, Note_on_c, 15, 40, 44
13, 33824, Note_on_c, 15, 40, 0
13, 33840, Note_on_c, 15, 41, 44
13, 34079, Note_on_c, 15, 41, 0
13, 34320, Note_on_c, 15, 41, 44
13, 34544, Note_on_c, 15, 41, 0
13, 34560, Note_on_c, 15, 40, 44
13, 34784, Note_on_c, 15, 40, 0
13, 34800, Note_on_c, 15, 40, 44
13, 35039, Note_on_c, 15, 40, 0
13, 35280, Note_on_c, 15, 41, 44
13, 35504, Note_on_c, 15, 41, 0
13, 35520, Note_on_c, 15, 41, 44
13, 35759, Note_on_c, 15, 41, 0
13, 36000, Note_on_c, 15, 43, 44
13, 36224, Note_on_c, 15, 43, 0
13, 36240, Note_on_c, 15, 31, 44
13, 36464, Note_on_c, 15, 31, 0
13, 36480, Note_on_c, 15, 31, 44
13, 36704, Note_on_c, 15, 31, 0
13, 36720, Note_on_c, 15, 36, 44
13, 36959, Note_on_c, 15, 36, 0
13, 37440, Note_on_c, 15, 40, 80
13, 37664, Note_on_c, 15, 40, 0
13, 37680, Note_on_c, 15, 40, 80
13, 37904, Note_on_c, 15, 40, 0
13, 37920, Note_on_c, 15, 40, 80
13, 38144, Note_on_c, 15, 40, 0
13, 38160, Note_on_c, 15, 41, 80
13, 38384, Note_on_c, 15, 41, 0
13, 38400, Note_on_c, 15, 41, 80
13, 38624, Note_on_c, 15, 41, 0
13, 38640, Note_on_c, 15, 41, 80
13, 38864, Note_on_c, 15, 41, 0
13, 38880, Note_on_c, 15, 43, 80
13, 39104, Note_on_c, 15, 43, 0
13, 39120, Note_on_c, 15, 43, 80
13, 39344, Note_on_c, 15, 43, 0
13, 39360, Note_on_c, 15, 43, 80
13, 39584, Note_on_c, 15, 43, 0
13, 39600, Note_on_c, 15, 36, 80
13, 40079, Note_on_c, 15, 36, 0
13, 40560, Note_on_c, 15, 52, 80
13, 40799, Note_on_c, 15, 52, 0
13, 40800, Note_on_c, 15, 49, 80
13, 41024, Note_on_c, 15, 49, 0
13, 41040, Note_on_c, 15, 50, 80
13, 41279, Note_on_c, 15, 50, 0
13, 41280, Note_on_c, 15, 53, 80
13, 41519, Note_on_c, 15, 53, 0
13, 43440, Note_on_c, 15, 50, 80
13, 43679, Note_on_c, 15, 50, 0
13, 43680, Note_on_c, 15, 47, 80
13, 43904, Note_on_c, 15, 47, 0
13, 43920, Note_on_c, 15, 48, 80
13, 44159, Note_on_c, 15, 48, 0
13, 44160, Note_on_c, 15, 52, 80
13, 44384, Note_on_c, 15, 52, 0
13, 44400, Note_on_c, 15, 40, 44
13, 44624, Note_on_c, 15, 40, 0
13, 44640, Note_on_c, 15, 41, 44
13, 45119, Note_on_c, 15, 41, 0
13, 45120, Note_on_c, 15, 42, 44
13, 45344, Note_on_c, 15, 42, 0
13, 45360, Note_on_c, 15, 43, 44
13, 45839, Note_on_c, 15, 43, 0
13, 45840, Note_on_c, 15, 44, 44
13, 46064, Note_on_c, 15, 44, 0
13, 46080, Note_on_c, 15, 45, 44
13, 46559, Note_on_c, 15, 45, 0
13, 46560, Note_on_c, 15, 41, 44
13, 46784, Note_on_c, 15, 41, 0
13, 46800, Note_on_c, 15, 43, 44
13, 47024, Note_on_c, 15, 43, 0
13, 47040, Note_on_c, 15, 31, 44
13, 47264, Note_on_c, 15, 31, 0
13, 47280, Note_on_c, 15, 43, 44
13, 47519, Note_on_c, 15, 43, 0
13, 47760, Note_on_c, 15, 52, 80
13, 47999, Note_on_c, 15, 52, 0
13, 48000, Note_on_c, 15, 49, 80
13, 48224, Note_on_c, 15, 49, 0
13, 48240, Note_on_c, 15, 50, 80
13, 48479, Note_on_c, 15, 50, 0
13, 48480, Note_on_c, 15, 47, 80
13, 48704, Note_on_c, 15, 47, 0
13, 48720, Note_on_c, 15, 48, 80
13, 48749, Note_on_c, 15, 48, 0
13, 48750, Note_on_c, 15, 50, 80
13, 48779, Note_on_c, 15, 50, 0
13, 48780, Note_on_c, 15, 48, 80
13, 48809, Note_on_c, 15, 48, 0
13, 48810, Note_on_c, 15, 50, 80
13, 48839, Note_on_c, 15, 50, 0
13, 48840, Note_on_c, 15, 48, 80
13, 48879, Note_on_c, 15, 48, 0
13, 48880, Note_on_c, 15, 47, 80
13, 48919, Note_on_c, 15, 47, 0
13, 48920, Note_on_c, 15, 48, 80
13, 48959, Note_on_c, 15, 48, 0
13, 48960, Note_on_c, 15, 45, 80
13, 49139, Note_on_c, 15, 45, 0
13, 49200, Note_on_c, 15, 41, 80
13, 49379, Note_on_c, 15, 41, 0
13, 49440, Note_on_c, 15, 43, 80
13, 49619, Note_on_c, 15, 43, 0
13, 49680, Note_on_c, 15, 40, 80
13, 49859, Note_on_c, 15, 40, 0
13, 49920, Note_on_c, 15, 36, 80
13, 50099, Note_on_c, 15, 36, 0
13, 51600, Note_on_c, 15, 41, 44
13, 51824, Note_on_c, 15, 41, 0
13, 51840, Note_on_c, 15, 43, 44
13, 52079, Note_on_c, 15, 43, 0
13, 52080, Note_on_c, 15, 41, 44
13, 52319, Note_on_c, 15, 41, 0
13, 52320, Note_on_c, 15, 40, 44
13, 52544, Note_on_c, 15, 40, 0
13, 52560, Note_on_c, 15, 41, 44
13, 52799, Note_on_c, 15, 41, 0
13, 53040, Note_on_c, 15, 41, 44
13, 53264, Note_on_c, 15, 41, 0
13, 53280, Note_on_c, 15, 43, 44
13, 53519, Note_on_c, 15, 43, 0
13, 53520, Note_on_c, 15, 41, 44
13, 53759, Note_on_c, 15, 41, 0
13, 53760, Note_on_c, 15, 40, 44
13, 53984, Note_on_c, 15, 40, 0
13, 54000, Note_on_c, 15, 41, 44
13, 54239, Note_on_c, 15, 41, 0
13, 54480, Note_on_c, 15, 41, 44
13, 54704, Note_on_c, 15, 41, 0
13, 54720, Note_on_c, 15, 40, 44
13, 54944, Note_on_c, 15, 40, 0
13, 54960, Note_on_c, 15, 40, 44
13, 55199, Note_on_c, 15, 40, 0
13, 55440, Note_on_c, 15, 41, 44
13, 55664, Note_on_c, 15, 41, 0
13, 55680, Note_on_c, 15, 41, 44
13, 55919, Note_on_c, 15, 41, 0
13, 56160, Note_on_c, 15, 43, 44
13, 56384, Note_on_c, 15, 43, 0
13, 56400, Note_on_c, 15, 31, 44
13, 56624, Note_on_c, 15, 31, 0
13, 56640, Note_on_c, 15, 31, 44
13, 56864, Note_on_c, 15, 31, 0
13, 56880, Note_on_c, 15, 36, 44
13, 57119, Note_on_c, 15, 36, 0
13, 57600, Note_on_c, 15, 40, 80
13, 57824, Note_on_c, 15, 40, 0
13, 57840, Note_on_c, 15, 40, 80
13, 58064, Note_on_c, 15, 40, 0
13, 58080, Note_on_c, 15, 40, 80
13, 58304, Note_on_c, 15, 40, 0
13, 58320, Note_on_c, 15, 41, 80
13, 58544, Note_on_c, 15, 41, 0
13, 58560, Note_on_c, 15, 41, 80
13, 58784, Note_on_c, 15, 41, 0
13, 58800, Note_on_c, 15, 41, 80
13, 59024, Note_on_c, 15, 41, 0
13, 59040, Note_on_c, 15, 43, 80
13, 59264, Note_on_c, 15, 43, 0
13, 59280, Note_on_c, 15, 43, 80
13, 59504, Note_on_c, 15, 43, 0
13, 59520, Note_on_c, 15, 43, 80
13, 59744, Note_on_c, 15, 43, 0
13, 59760, Note_on_c, 15, 36, 80
13, 60239, Note_on_c, 15, 36, 0
13, 63360, Note_on_c, 15, 41, 44
13, 63599, Note_on_c, 15, 41, 0
13, 64080, Note_on_c, 15, 41, 44
13, 64319, Note_on_c, 15, 41, 0
13, 64800, Note_on_c, 15, 46, 44
13, 65024, Note_on_c, 15, 46, 0
13, 65040, Note_on_c, 15, 40, 44
13, 65264, Note_on_c, 15, 40, 0
13, 65280, Note_on_c, 15, 41, 44
13, 65504, Note_on_c, 15, 41, 0
13, 65520, Note_on_c, 15, 36, 44
13, 65744, Note_on_c, 15, 36, 0
13, 65760, Note_on_c, 15, 48, 44
13, 65984, Note_on_c, 15, 48, 0
13, 66000, Note_on_c, 15, 36, 44
13, 66239, Note_on_c, 15, 36, 0
13, 69120, Note_on_c, 15, 41, 44
13, 69359, Note_on_c, 15, 41, 0
13, 69840, Note_on_c, 15, 41, 44
13, 70079, Note_on_c, 15, 41, 0
13, 70560, Note_on_c, 15, 46, 44
13, 70784, Note_on_c, 15, 46, 0
13, 70800, Note_on_c, 15, 40, 44
13, 71024, Note_on_c, 15, 40, 0
13, 71040, Note_on_c, 15, 41, 44
13, 71264, Note_on_c, 15, 41, 0
13, 71280, Note_on_c, 15, 36, 44
13, 71504, Note_on_c, 15, 36, 0
13, 71520, Note_on_c, 15, 48, 44
13, 71744, Note_on_c, 15, 48, 0
13, 71760, Note_on_c, 15, 36, 44
13, 71999, Note_on_c, 15, 36, 0
13, 72000, Note_on_c, 15, 51, 80
13, 72224, Note_on_c, 15, 51, 0
13, 72240, Note_on_c, 15, 48, 80
13, 72404, Note_on_c, 15, 48, 0
13, 72420, Note_on_c, 15, 50, 80
13, 72471, Note_on_c, 15, 50, 0
13, 72480, Note_on_c, 15, 51, 80
13, 72704, Note_on_c, 15, 51, 0
13, 72720, Note_on_c, 15, 42, 80
13, 72899, Note_on_c, 15, 42, 0
13, 72960, Note_on_c, 15, 43, 80
13, 73139, Note_on_c, 15, 43, 0
13, 73200, Note_on_c, 15, 44, 80
13, 73379, Note_on_c, 15, 44, 0
13, 73440, Note_on_c, 15, 45, 80
13, 73664, Note_on_c, 15, 45, 0
13, 73680, Note_on_c, 15, 41, 80
13, 73844, Note_on_c, 15, 41, 0
13, 73860, Note_on_c, 15, 43, 80
13, 73911, Note_on_c, 15, 43, 0
13, 73920, Note_on_c, 15, 45, 80
13, 74144, Note_on_c, 15, 45, 0
13, 74160, Note_on_c, 15, 35, 80
13, 74339, Note_on_c, 15, 35, 0
13, 74400, Note_on_c, 15, 36, 80
13, 74579, Note_on_c, 15, 36, 0
13, 74640, Note_on_c, 15, 37, 80
13, 74819, Note_on_c, 15, 37, 0
13, 74880, Note_on_c, 15, 38, 80
13, 75104, Note_on_c, 15, 38, 0
13, 75120, Note_on_c, 15, 52, 80
13, 75179, Note_on_c, 15, 52, 0
13, 75180, Note_on_c, 15, 50, 80
13, 75344, Note_on_c, 15, 50, 0
13, 75360, Note_on_c, 15, 48, 80
13, 75464, Note_on_c, 15, 48, 0
13, 75480, Note_on_c, 15, 46, 80
13, 75584, Note_on_c, 15, 46, 0
13, 75600, Note_on_c, 15, 46, 80
13, 75659, Note_on_c, 15, 46, 0
13, 75660, Note_on_c, 15, 45, 80
13, 75824, Note_on_c, 15, 45, 0
13, 75840, Note_on_c, 15, 46, 80
13, 75899, Note_on_c, 15, 46, 0
13, 75900, Note_on_c, 15, 45, 80
13, 76064, Note_on_c, 15, 45, 0
13, 76080, Note_on_c, 15, 43, 80
13, 76184, Note_on_c, 15, 43, 0
13, 76200, Note_on_c, 15, 41, 80
13, 76304, Note_on_c, 15, 41, 0
13, 76320, Note_on_c, 15, 36, 80
13, 76559, Note_on_c, 15, 36, 0
13, 76800, Note_on_c, 15, 36, 80
13, 77024, Note_on_c, 15, 36, 0
13, 77040, Note_on_c, 15, 38, 80
13, 77279, Note_on_c, 15, 38, 0
13, 77280, Note_on_c, 15, 40, 80
13, 77519, Note_on_c, 15, 40, 0
13, 77520, Note_on_c, 15, 41, 80
13, 77744, Note_on_c, 15, 41, 0
13, 77760, Note_on_c, 15, 34, 80
13, 77984, Note_on_c, 15, 34, 0
13, 78240, Note_on_c, 15, 38, 80
13, 78464, Note_on_c, 15, 38, 0
13, 78480, Note_on_c, 15, 41, 80
13, 78719, Note_on_c, 15, 41, 0
13, 78960, Note_on_c, 15, 29, 80
13, 79184, Note_on_c, 15, 29, 0
13, 79200, Note_on_c, 15, 34, 80
13, 79424, Note_on_c, 15, 34, 0
13, 79440, Note_on_c, 15, 36, 80
13, 79664, Note_on_c, 15, 36, 0
13, 79680, Note_on_c, 15, 36, 80
13, 79904, Note_on_c, 15, 36, 0
13, 79920, Note_on_c, 15, 41, 80
13, 80144, Note_on_c, 15, 41, 0
13, 80160, Note_on_c, 15, 36, 80
13, 80384, Note_on_c, 15, 36, 0
13, 80400, Note_on_c, 15, 29, 80
13, 80624, Note_on_c, 15, 29, 0
13, 80640, Note_on_c, 15, 51, 80
13, 80864, Note_on_c, 15, 51, 0
13, 80880, Note_on_c, 15, 48, 80
13, 81044, Note_on_c, 15, 48, 0
13, 81060, Note_on_c, 15, 50, 80
13, 81111, Note_on_c, 15, 50, 0
13, 81120, Note_on_c, 15, 51, 80
13, 81344, Note_on_c, 15, 51, 0
13, 81360, Note_on_c, 15, 42, 80
13, 81539, Note_on_c, 15, 42, 0
13, 81600, Note_on_c, 15, 43, 80
13, 81779, Note_on_c, 15, 43, 0
13, 81840, Note_on_c, 15, 44, 80
13, 82019, Note_on_c, 15, 44, 0
13, 82080, Note_on_c, 15, 45, 80
13, 82304, Note_on_c, 15, 45, 0
13, 82320, Note_on_c, 15, 41, 80
13, 82484, Note_on_c, 15, 41, 0
13, 82500, Note_on_c, 15, 43, 80
13, 82551, Note_on_c, 15, 43, 0
13, 82560, Note_on_c, 15, 45, 80
13, 82784, Note_on_c, 15, 45, 0
13, 82800, Note_on_c, 15, 35, 80
13, 82979, Note_on_c, 15, 35, 0
13, 83040, Note_on_c, 15, 36, 80
13, 83219, Note_on_c, 15, 36, 0
13, 83280, Note_on_c, 15, 37, 80
13, 83459, Note_on_c, 15, 37, 0
13, 83520, Note_on_c, 15, 38, 80
13, 83744, Note_on_c, 15, 38, 0
13, 83760, Note_on_c, 15, 52, 80
13, 83819, Note_on_c, 15, 52, 0
13, 83820, Note_on_c, 15, 50, 80
13, 83984, Note_on_c, 15, 50, 0
13, 84000, Note_on_c, 15, 48, 80
13, 84104, Note_on_c, 15, 48, 0
13, 84120, Note_on_c, 15, 46, 80
13, 84224, Note_on_c, 15, 46, 0
13, 84240, Note_on_c, 15, 46, 80
13, 84299, Note_on_c, 15, 46, 0
13, 84300, Note_on_c, 15, 45, 80
13, 84464, Note_on_c, 15, 45, 0
13, 84480, Note_on_c, 15, 46, 80
13, 84539, Note_on_c, 15, 46, 0
13, 84540, Note_on_c, 15, 45, 80
13, 84704, Note_on_c, 15, 45, 0
13, 84720, Note_on_c, 15, 43, 80
13, 84824, Note_on_c, 15, 43, 0
13, 84840, Note_on_c, 15, 41, 80
13, 84944, Note_on_c, 15, 41, 0
13, 84960, Note_on_c, 15, 36, 80
13, 85199, Note_on_c, 15, 36, 0
13, 85440, Note_on_c, 15, 36, 80
13, 85664, Note_on_c, 15, 36, 0
13, 85680, Note_on_c, 15, 38, 80
13, 85919, Note_on_c, 15, 38, 0
13, 85920, Note_on_c, 15, 40, 80
13, 86159, Note_on_c, 15, 40, 0
13, 86160, Note_on_c, 15, 41, 80
13, 86384, Note_on_c, 15, 41, 0
13, 86400, Note_on_c, 15, 34, 80
13, 86624, Note_on_c, 15, 34, 0
13, 86880, Note_on_c, 15, 38, 80
13, 87104, Note_on_c, 15, 38, 0
13, 87120, Note_on_c, 15, 41, 80
13, 87359, Note_on_c, 15, 41, 0
13, 87600, Note_on_c, 15, 29, 80
13, 87824, Note_on_c, 15, 29, 0
13, 87840, Note_on_c, 15, 34, 80
13, 88064, Note_on_c, 15, 34, 0
13, 88080, Note_on_c, 15, 36, 80
13, 88304, Note_on_c, 15, 36, 0
13, 88320, Note_on_c, 15, 36, 80
13, 88544, Note_on_c, 15, 36, 0
13, 88560, Note_on_c, 15, 41, 80
13, 88784, Note_on_c, 15, 41, 0
13, 88800, Note_on_c, 15, 36, 80
13, 89024, Note_on_c, 15, 36, 0
13, 89040, Note_on_c, 15, 29, 80
13, 89264, Note_on_c, 15, 29, 0
13, 89520, Note_on_c, 15, 52, 80
13, 89759, Note_on_c, 15, 52, 0
13, 89760, Note_on_c, 15, 49, 80
13, 89984, Note_on_c, 15, 49, 0
13, 90000, Note_on_c, 15, 50, 80
13, 90239, Note_on_c, 15, 50, 0
13, 90240, Note_on_c, 15, 47, 80
13, 90464, Note_on_c, 15, 47, 0
13, 90480, Note_on_c, 15, 43, 80
13, 90659, Note_on_c, 15, 43, 0
13, 90720, Note_on_c, 15, 48, 80
13, 90899, Note_on_c, 15, 48, 0
13, 90960, Note_on_c, 15, 45, 80
13, 91139, Note_on_c, 15, 45, 0
13, 91200, Note_on_c, 15, 42, 80
13, 91379, Note_on_c, 15, 42, 0
13, 91440, Note_on_c, 15, 43, 80
13, 91679, Note_on_c, 15, 43, 0
13, 93600, Note_on_c, 15, 38, 44
13, 94079, Note_on_c, 15, 38, 0
13, 94080, Note_on_c, 15, 36, 44
13, 94304, Note_on_c, 15, 36, 0
13, 94320, Note_on_c, 15, 35, 44
13, 94799, Note_on_c, 15, 35, 0
13, 94800, Note_on_c, 15, 36, 44
13, 95024, Note_on_c, 15, 36, 0
13, 95040, Note_on_c, 15, 38, 44
13, 95519, Note_on_c, 15, 38, 0
13, 95520, Note_on_c, 15, 36, 44
13, 95744, Note_on_c, 15, 36, 0
13, 95760, Note_on_c, 15, 35, 44
13, 96239, Note_on_c, 15, 35, 0
13, 96240, Note_on_c, 15, 36, 44
13, 96464, Note_on_c, 15, 36, 0
13, 96480, Note_on_c, 15, 31, 44
13, 97184, Note_on_c, 15, 31, 0
13, 97200, Note_on_c, 15, 36, 44
13, 97424, Note_on_c, 15, 36, 0
13, 97440, Note_on_c, 15, 36, 44
13, 97679, Note_on_c, 15, 36, 0
13, 97920, Note_on_c, 15, 38, 44
13, 98144, Note_on_c, 15, 38, 0
13, 98160, Note_on_c, 15, 38, 44
13, 98384, Note_on_c, 15, 38, 0
13, 98400, Note_on_c, 15, 38, 44
13, 98624, Note_on_c, 15, 38, 0
13, 98640, Note_on_c, 15, 43, 44
13, 98864, Note_on_c, 15, 43, 0
13, 98880, Note_on_c, 15, 31, 44
13, 99119, Note_on_c, 15, 31, 0
13, 99600, Note_on_c, 15, 52, 80
13, 99839, Note_on_c, 15, 52, 0
13, 99840, Note_on_c, 15, 49, 80
13, 100064, Note_on_c, 15, 49, 0
13, 100080, Note_on_c, 15, 50, 80
13, 100319, Note_on_c, 15, 50, 0
13, 100320, Note_on_c, 15, 53, 80
13, 100559, Note_on_c, 15, 53, 0
13, 102480, Note_on_c, 15, 50, 80
13, 102719, Note_on_c, 15, 50, 0
13, 102720, Note_on_c, 15, 47, 80
13, 102944, Note_on_c, 15, 47, 0
13, 102960, Note_on_c, 15, 48, 80
13, 103199, Note_on_c, 15, 48, 0
13, 103200, Note_on_c, 15, 52, 80
13, 103424, Note_on_c, 15, 52, 0
13, 103440, Note_on_c, 15, 40, 44
13, 103664, Note_on_c, 15, 40, 0
13, 103680, Note_on_c, 15, 41, 44
13, 104159, Note_on_c, 15, 41, 0
13, 104160, Note_on_c, 15, 42, 44
13, 104384, Note_on_c, 15, 42, 0
13, 104400, Note_on_c, 15, 43, 44
13, 104879, Note_on_c, 15, 43, 0
13, 104880, Note_on_c, 15, 44, 44
13, 105104, Note_on_c, 15, 44, 0
13, 105120, Note_on_c, 15, 45, 44
13, 105599, Note_on_c, 15, 45, 0
13, 105600, Note_on_c, 15, 41, 44
13, 105824, Note_on_c, 15, 41, 0
13, 105840, Note_on_c, 15, 43, 44
13, 106064, Note_on_c, 15, 43, 0
13, 106080, Note_on_c, 15, 31, 44
13, 106304, Note_on_c, 15, 31, 0
13, 106320, Note_on_c, 15, 43, 44
13, 106559, Note_on_c, 15, 43, 0
13, 106800, Note_on_c, 15, 52, 80
13, 107039, Note_on_c, 15, 52, 0
13, 107040, Note_on_c, 15, 49, 80
13, 107264, Note_on_c, 15, 49, 0
13, 107280, Note_on_c, 15, 50, 80
13, 107519, Note_on_c, 15, 50, 0
13, 107520, Note_on_c, 15, 47, 80
13, 107744, Note_on_c, 15, 47, 0
13, 107760, Note_on_c, 15, 48, 80
13, 107789, Note_on_c, 15, 48, 0
13, 107790, Note_on_c, 15, 50, 80
13, 107819, Note_on_c, 15, 50, 0
13, 107820, Note_on_c, 15, 48, 80
13, 107849, Note_on_c, 15, 48, 0
13, 107850, Note_on_c, 15, 50, 80
13, 107879, Note_on_c, 15, 50, 0
13, 107880, Note_on_c, 15, 48, 80
13, 107919, Note_on_c, 15, 48, 0
13, 107920, Note_on_c, 15, 47, 80
13, 107959, Note_on_c, 15, 47, 0
13, 107960, Note_on_c, 15, 48, 80
13, 107999, Note_on_c, 15, 48, 0
13, 108000, Note_on_c, 15, 45, 80
13, 108179, Note_on_c, 15, 45, 0
13, 108240, Note_on_c, 15, 41, 80
13, 108419, Note_on_c, 15, 41, 0
13, 108480, Note_on_c, 15, 43, 80
13, 108659, Note_on_c, 15, 43, 0
13, 108720, Note_on_c, 15, 40, 80
13, 108899, Note_on_c, 15, 40, 0
13, 108960, Note_on_c, 15, 36, 80
13, 109139, Note_on_c, 15, 36, 0
13, 110640, Note_on_c, 15, 41, 44
13, 110864, Note_on_c, 15, 41, 0
13, 110880, Note_on_c, 15, 43, 44
13, 111119, Note_on_c, 15, 43, 0
13, 111120, Note_on_c, 15, 41, 44
13, 111359, Note_on_c, 15, 41, 0
13, 111360, Note_on_c, 15, 40, 44
13, 111584, Note_on_c, 15, 40, 0
13, 111600, Note_on_c, 15, 41, 44
13, 111839, Note_on_c, 15, 41, 0
13, 112080, Note_on_c, 15, 41, 44
13, 112304, Note_on_c, 15, 41, 0
13, 112320, Note_on_c, 15, 43, 44
13, 112559, Note_on_c, 15, 43, 0
13, 112560, Note_on_c, 15, 41, 44
13, 112799, Note_on_c, 15, 41, 0
13, 112800, Note_on_c, 15, 40, 44
13, 113024, Note_on_c, 15, 40, 0
13, 113040, Note_on_c, 15, 41, 44
13, 113279, Note_on_c, 15, 41, 0
13, 113520, Note_on_c, 15, 41, 44
13, 113744, Note_on_c, 15, 41, 0
13, 113760, Note_on_c, 15, 40, 44
13, 113984, Note_on_c, 15, 40, 0
13, 114000, Note_on_c, 15, 40, 44
13, 114239, Note_on_c, 15, 40, 0
13, 114480, Note_on_c, 15, 41, 44
13, 114704, Note_on_c, 15, 41, 0
13, 114720, Note_on_c, 15, 41, 44
13, 114959, Note_on_c, 15, 41, 0
13, 115200, Note_on_c, 15, 43, 44
13, 115424, Note_on_c, 15, 43, 0
13, 115440, Note_on_c, 15, 31, 44
13, 115664, Note_on_c, 15, 31, 0
13, 115680, Note_on_c, 15, 31, 44
13, 115904, Note_on_c, 15, 31, 0
13, 115920, Note_on_c, 15, 36, 44
13, 116159, Note_on_c, 15, 36, 0
13, 116640, Note_on_c, 15, 40, 80
13, 116864, Note_on_c, 15, 40, 0
13, 116880, Note_on_c, 15, 40, 80
13, 117104, Note_on_c, 15, 40, 0
13, 117120, Note_on_c, 15, 40, 80
13, 117344, Note_on_c, 15, 40, 0
13, 117360, Note_on_c, 15, 41, 80
13, 117584, Note_on_c, 15, 41, 0
13, 117600, Note_on_c, 15, 41, 80
13, 117824, Note_on_c, 15, 41, 0
13, 117840, Note_on_c, 15, 41, 80
13, 118064, Note_on_c, 15, 41, 0
13, 118080, Note_on_c, 15, 43, 80
13, 118304, Note_on_c, 15, 43, 0
13, 118320, Note_on_c, 15, 43, 80
13, 118544, Note_on_c, 15, 43, 0
13, 118560, Note_on_c, 15, 43, 80
13, 118784, Note_on_c, 15, 43, 0
13, 118800, Note_on_c, 15, 36, 80
13, 119279, Note_on_c, 15, 36, 0
13, 119279, End_track
14, 0, Start_track
14, 0, Title_t, "W. A. Mozart - Symphony No. 28 in C Major, K.200 - 3. Menuetto"
14, 0, MIDI_port, 0
14, 0, End_track
0, 0, End_of_file