0, 0, Header, 1, 3, 192
1, 0, Start_track
1, 0, Title_t, "Sonatina II  Rondo"
1, 0, Text_t, "By W. A. Mozart"
1, 0, Copyright_t, "Copyright \251 <Year> by <Name>"
1, 0, Copyright_t, "All Rights Reserved"
1, 0, Text_t, "Generated by NoteWorthy Composer"
1, 0, Tempo, 428571
1, 0, Key_signature, 3, "major"
1, 0, Time_signature, 2, 2, 24, 8
1, 3072, Tempo, 428571
1, 3072, End_track
2, 0, Start_track
2, 0, MIDI_port, 0
2, 0, Title_t, "Right Hand"
2, 0, Program_c, 0, 0
2, 0, Control_c, 0, 7, 127
2, 0, Control_c, 0, 10, 64
2, 0, Note_on_c, 0, 76, 45
2, 96, Note_on_c, 0, 76, 0
2, 96, Note_on_c, 0, 73, 45
2, 192, Note_on_c, 0, 73, 0
2, 192, Note_on_c, 0, 71, 45
2, 288, Note_on_c, 0, 71, 0
2, 288, Note_on_c, 0, 69, 45
2, 382, Note_on_c, 0, 69, 0
2, 384, Note_on_c, 0, 78, 45
2, 480, Note_on_c, 0, 78, 0
2, 480, Note_on_c, 0, 74, 45
2, 576, Note_on_c, 0, 74, 0
2, 576, Note_on_c, 0, 73, 45
2, 672, Note_on_c, 0, 73, 0
2, 672, Note_on_c, 0, 71, 45
2, 766, Note_on_c, 0, 71, 0
2, 768, Note_on_c, 0, 74, 45
2, 864, Note_on_c, 0, 74, 0
2, 864, Note_on_c, 0, 71, 45
2, 960, Note_on_c, 0, 71, 0
2, 960, Note_on_c, 0, 69, 45
2, 1056, Note_on_c, 0, 69, 0
2, 1056, Note_on_c, 0, 68, 45
2, 1150, Note_on_c, 0, 68, 0
2, 1152, Note_on_c, 0, 71, 45
2, 1248, Note_on_c, 0, 71, 0
2, 1248, Note_on_c, 0, 76, 45
2, 1342, Note_on_c, 0, 76, 0
2, 1344, Note_on_c, 0, 71, 45
2, 1344, Note_on_c, 0, 74, 45
2, 1440, Note_on_c, 0, 71, 0
2, 1440, Note_on_c, 0, 74, 0
2, 1440, Note_on_c, 0, 69, 45
2, 1440, Note_on_c, 0, 73, 45
2, 1534, Note_on_c, 0, 69, 0
2, 1534, Note_on_c, 0, 73, 0
2, 1536, Note_on_c, 0, 73, 45
2, 1632, Note_on_c, 0, 78, 52
2, 1696, Note_on_c, 0, 73, 0
2, 1728, Note_on_c, 0, 71, 60
2, 1822, Note_on_c, 0, 78, 0
2, 1824, Note_on_c, 0, 76, 68
2, 1918, Note_on_c, 0, 71, 0
2, 1920, Note_on_c, 0, 69, 76
2, 2014, Note_on_c, 0, 69, 0
2, 2014, Note_on_c, 0, 76, 0
2, 2016, Note_on_c, 0, 69, 84
2, 2016, Note_on_c, 0, 75, 84
2, 2110, Note_on_c, 0, 69, 0
2, 2110, Note_on_c, 0, 75, 0
2, 2112, Note_on_c, 0, 71, 92
2, 2112, Note_on_c, 0, 78, 92
2, 2112, Note_on_c, 0, 81, 92
2, 2272, Note_on_c, 0, 71, 0
2, 2272, Note_on_c, 0, 78, 0
2, 2272, Note_on_c, 0, 81, 0
2, 2400, Note_on_c, 0, 71, 92
2, 2400, Note_on_c, 0, 80, 92
2, 2432, Note_on_c, 0, 71, 0
2, 2432, Note_on_c, 0, 80, 0
2, 2496, Note_on_c, 0, 69, 92
2, 2496, Note_on_c, 0, 80, 92
2, 2544, Note_on_c, 0, 80, 0
2, 2544, Note_on_c, 0, 78, 92
2, 2590, Note_on_c, 0, 69, 0
2, 2590, Note_on_c, 0, 78, 0
2, 2592, Note_on_c, 0, 68, 92
2, 2592, Note_on_c, 0, 76, 92
2, 2784, Note_on_c, 0, 68, 0
2, 2784, Note_on_c, 0, 76, 0
2, 2784, Note_on_c, 0, 66, 92
2, 2784, Note_on_c, 0, 75, 92
2, 2878, Note_on_c, 0, 66, 0
2, 2878, Note_on_c, 0, 75, 0
2, 2880, Note_on_c, 0, 68, 92
2, 2880, Note_on_c, 0, 76, 92
2, 3040, Note_on_c, 0, 68, 0
2, 3040, Note_on_c, 0, 76, 0
2, 3072, Note_on_c, 0, 76, 45
2, 3168, Note_on_c, 0, 76, 0
2, 3168, Note_on_c, 0, 73, 45
2, 3264, Note_on_c, 0, 73, 0
2, 3264, Note_on_c, 0, 71, 45
2, 3360, Note_on_c, 0, 71, 0
2, 3360, Note_on_c, 0, 69, 45
2, 3454, Note_on_c, 0, 69, 0
2, 3456, Note_on_c, 0, 78, 45
2, 3552, Note_on_c, 0, 78, 0
2, 3552, Note_on_c, 0, 74, 45
2, 3648, Note_on_c, 0, 74, 0
2, 3648, Note_on_c, 0, 73, 45
2, 3744, Note_on_c, 0, 73, 0
2, 3744, Note_on_c, 0, 71, 45
2, 3838, Note_on_c, 0, 71, 0
2, 3840, Note_on_c, 0, 74, 45
2, 3936, Note_on_c, 0, 74, 0
2, 3936, Note_on_c, 0, 71, 45
2, 4032, Note_on_c, 0, 71, 0
2, 4032, Note_on_c, 0, 69, 45
2, 4128, Note_on_c, 0, 69, 0
2, 4128, Note_on_c, 0, 68, 45
2, 4222, Note_on_c, 0, 68, 0
2, 4224, Note_on_c, 0, 71, 45
2, 4320, Note_on_c, 0, 71, 0
2, 4320, Note_on_c, 0, 76, 45
2, 4414, Note_on_c, 0, 76, 0
2, 4416, Note_on_c, 0, 71, 45
2, 4416, Note_on_c, 0, 74, 45
2, 4512, Note_on_c, 0, 71, 0
2, 4512, Note_on_c, 0, 74, 0
2, 4512, Note_on_c, 0, 69, 45
2, 4512, Note_on_c, 0, 73, 45
2, 4606, Note_on_c, 0, 69, 0
2, 4606, Note_on_c, 0, 73, 0
2, 4608, Note_on_c, 0, 73, 45
2, 4704, Note_on_c, 0, 78, 52
2, 4768, Note_on_c, 0, 73, 0
2, 4800, Note_on_c, 0, 71, 60
2, 4894, Note_on_c, 0, 78, 0
2, 4896, Note_on_c, 0, 76, 68
2, 4990, Note_on_c, 0, 71, 0
2, 4992, Note_on_c, 0, 69, 76
2, 5086, Note_on_c, 0, 69, 0
2, 5086, Note_on_c, 0, 76, 0
2, 5088, Note_on_c, 0, 69, 84
2, 5088, Note_on_c, 0, 75, 84
2, 5182, Note_on_c, 0, 69, 0
2, 5182, Note_on_c, 0, 75, 0
2, 5184, Note_on_c, 0, 71, 92
2, 5184, Note_on_c, 0, 78, 92
2, 5184, Note_on_c, 0, 81, 92
2, 5344, Note_on_c, 0, 71, 0
2, 5344, Note_on_c, 0, 78, 0
2, 5344, Note_on_c, 0, 81, 0
2, 5472, Note_on_c, 0, 71, 92
2, 5472, Note_on_c, 0, 80, 92
2, 5504, Note_on_c, 0, 71, 0
2, 5504, Note_on_c, 0, 80, 0
2, 5568, Note_on_c, 0, 69, 92
2, 5568, Note_on_c, 0, 80, 92
2, 5616, Note_on_c, 0, 80, 0
2, 5616, Note_on_c, 0, 78, 92
2, 5662, Note_on_c, 0, 69, 0
2, 5662, Note_on_c, 0, 78, 0
2, 5664, Note_on_c, 0, 68, 92
2, 5664, Note_on_c, 0, 76, 92
2, 5856, Note_on_c, 0, 68, 0
2, 5856, Note_on_c, 0, 76, 0
2, 5856, Note_on_c, 0, 66, 92
2, 5856, Note_on_c, 0, 75, 92
2, 5950, Note_on_c, 0, 66, 0
2, 5950, Note_on_c, 0, 75, 0
2, 5952, Note_on_c, 0, 68, 92
2, 5952, Note_on_c, 0, 76, 92
2, 6112, Note_on_c, 0, 68, 0
2, 6112, Note_on_c, 0, 76, 0
2, 6144, Note_on_c, 0, 76, 92
2, 6240, Note_on_c, 0, 76, 0
2, 6240, Note_on_c, 0, 73, 92
2, 6336, Note_on_c, 0, 73, 0
2, 6336, Note_on_c, 0, 71, 92
2, 6432, Note_on_c, 0, 71, 0
2, 6432, Note_on_c, 0, 70, 92
2, 6526, Note_on_c, 0, 70, 0
2, 6528, Note_on_c, 0, 70, 92
2, 6528, Note_on_c, 0, 79, 92
2, 6560, Note_on_c, 0, 70, 0
2, 6560, Note_on_c, 0, 79, 0
2, 6624, Note_on_c, 0, 70, 92
2, 6624, Note_on_c, 0, 79, 92
2, 6656, Note_on_c, 0, 70, 0
2, 6656, Note_on_c, 0, 79, 0
2, 6720, Note_on_c, 0, 70, 92
2, 6720, Note_on_c, 0, 79, 92
2, 6816, Note_on_c, 0, 70, 0
2, 6816, Note_on_c, 0, 79, 0
2, 6816, Note_on_c, 0, 71, 92
2, 6816, Note_on_c, 0, 78, 92
2, 6910, Note_on_c, 0, 71, 0
2, 6910, Note_on_c, 0, 78, 0
2, 6912, Note_on_c, 0, 74, 92
2, 7008, Note_on_c, 0, 74, 0
2, 7008, Note_on_c, 0, 71, 92
2, 7104, Note_on_c, 0, 71, 0
2, 7104, Note_on_c, 0, 69, 92
2, 7200, Note_on_c, 0, 69, 0
2, 7200, Note_on_c, 0, 68, 92
2, 7294, Note_on_c, 0, 68, 0
2, 7296, Note_on_c, 0, 68, 92
2, 7296, Note_on_c, 0, 77, 92
2, 7328, Note_on_c, 0, 68, 0
2, 7328, Note_on_c, 0, 77, 0
2, 7392, Note_on_c, 0, 68, 92
2, 7392, Note_on_c, 0, 77, 92
2, 7424, Note_on_c, 0, 68, 0
2, 7424, Note_on_c, 0, 77, 0
2, 7488, Note_on_c, 0, 68, 92
2, 7488, Note_on_c, 0, 77, 92
2, 7584, Note_on_c, 0, 68, 0
2, 7584, Note_on_c, 0, 77, 0
2, 7584, Note_on_c, 0, 69, 92
2, 7584, Note_on_c, 0, 76, 92
2, 7678, Note_on_c, 0, 69, 0
2, 7678, Note_on_c, 0, 76, 0
2, 7776, Note_on_c, 0, 69, 92
2, 7808, Note_on_c, 0, 69, 0
2, 7872, Note_on_c, 0, 69, 92
2, 7872, Note_on_c, 0, 73, 92
2, 7968, Note_on_c, 0, 73, 0
2, 7968, Note_on_c, 0, 71, 92
2, 8128, Note_on_c, 0, 71, 0
2, 8160, Note_on_c, 0, 73, 92
2, 8192, Note_on_c, 0, 73, 0
2, 8256, Note_on_c, 0, 76, 92
2, 8352, Note_on_c, 0, 76, 0
2, 8352, Note_on_c, 0, 74, 92
2, 8512, Note_on_c, 0, 74, 0
2, 8544, Note_on_c, 0, 75, 92
2, 8576, Note_on_c, 0, 75, 0
2, 8592, Note_on_c, 0, 69, 0
2, 8640, Note_on_c, 0, 69, 92
2, 8640, Note_on_c, 0, 76, 92
2, 8736, Note_on_c, 0, 76, 0
2, 8736, Note_on_c, 0, 78, 92
2, 8832, Note_on_c, 0, 78, 0
2, 8832, Note_on_c, 0, 76, 92
2, 8896, Note_on_c, 0, 69, 0
2, 8928, Note_on_c, 0, 76, 0
2, 8928, Note_on_c, 0, 71, 92
2, 8928, Note_on_c, 0, 74, 92
2, 9022, Note_on_c, 0, 71, 0
2, 9022, Note_on_c, 0, 74, 0
2, 9024, Note_on_c, 0, 69, 92
2, 9024, Note_on_c, 0, 73, 92
2, 9120, Note_on_c, 0, 69, 0
2, 9120, Note_on_c, 0, 73, 0
2, 9120, Note_on_c, 0, 68, 92
2, 9120, Note_on_c, 0, 71, 92
2, 9214, Note_on_c, 0, 68, 0
2, 9214, Note_on_c, 0, 71, 0
2, 9312, Note_on_c, 0, 76, 92
2, 9344, Note_on_c, 0, 76, 0
2, 9408, Note_on_c, 0, 75, 92
2, 9456, Note_on_c, 0, 75, 0
2, 9456, Note_on_c, 0, 76, 92
2, 9504, Note_on_c, 0, 76, 0
2, 9504, Note_on_c, 0, 78, 92
2, 9552, Note_on_c, 0, 78, 0
2, 9552, Note_on_c, 0, 80, 92
2, 9598, Note_on_c, 0, 80, 0
2, 9600, Note_on_c, 0, 81, 92
2, 9632, Note_on_c, 0, 81, 0
2, 9696, Note_on_c, 0, 75, 92
2, 9728, Note_on_c, 0, 75, 0
2, 9792, Note_on_c, 0, 76, 92
2, 9952, Note_on_c, 0, 76, 0
2, 10080, Note_on_c, 0, 76, 92
2, 10112, Note_on_c, 0, 76, 0
2, 10176, Note_on_c, 0, 75, 92
2, 10224, Note_on_c, 0, 75, 0
2, 10224, Note_on_c, 0, 76, 92
2, 10272, Note_on_c, 0, 76, 0
2, 10272, Note_on_c, 0, 78, 92
2, 10320, Note_on_c, 0, 78, 0
2, 10320, Note_on_c, 0, 80, 92
2, 10366, Note_on_c, 0, 80, 0
2, 10368, Note_on_c, 0, 81, 92
2, 10400, Note_on_c, 0, 81, 0
2, 10464, Note_on_c, 0, 75, 92
2, 10496, Note_on_c, 0, 75, 0
2, 10560, Note_on_c, 0, 76, 92
2, 10720, Note_on_c, 0, 76, 0
2, 10848, Note_on_c, 0, 76, 92
2, 10880, Note_on_c, 0, 76, 0
2, 10944, Note_on_c, 0, 75, 92
2, 10992, Note_on_c, 0, 75, 0
2, 10992, Note_on_c, 0, 76, 92
2, 11040, Note_on_c, 0, 76, 0
2, 11040, Note_on_c, 0, 78, 92
2, 11088, Note_on_c, 0, 78, 0
2, 11088, Note_on_c, 0, 80, 92
2, 11134, Note_on_c, 0, 80, 0
2, 11136, Note_on_c, 0, 81, 92
2, 11168, Note_on_c, 0, 81, 0
2, 11232, Note_on_c, 0, 75, 92
2, 11264, Note_on_c, 0, 75, 0
2, 11328, Note_on_c, 0, 76, 92
2, 11616, Note_on_c, 0, 76, 0
2, 11616, Note_on_c, 0, 75, 81
2, 11710, Note_on_c, 0, 75, 0
2, 11712, Note_on_c, 0, 76, 77
2, 12000, Note_on_c, 0, 76, 0
2, 12000, Note_on_c, 0, 75, 65
2, 12094, Note_on_c, 0, 75, 0
2, 12096, Note_on_c, 0, 76, 61
2, 12192, Note_on_c, 0, 76, 0
2, 12192, Note_on_c, 0, 75, 57
2, 12286, Note_on_c, 0, 75, 0
2, 12288, Note_on_c, 0, 76, 53
2, 12384, Note_on_c, 0, 76, 0
2, 12384, Note_on_c, 0, 73, 49
2, 12480, Note_on_c, 0, 73, 0
2, 12480, Note_on_c, 0, 71, 45
2, 12576, Note_on_c, 0, 71, 0
2, 12576, Note_on_c, 0, 69, 45
2, 12670, Note_on_c, 0, 69, 0
2, 12672, Note_on_c, 0, 78, 45
2, 12768, Note_on_c, 0, 78, 0
2, 12768, Note_on_c, 0, 74, 45
2, 12864, Note_on_c, 0, 74, 0
2, 12864, Note_on_c, 0, 73, 45
2, 12960, Note_on_c, 0, 73, 0
2, 12960, Note_on_c, 0, 71, 45
2, 13054, Note_on_c, 0, 71, 0
2, 13056, Note_on_c, 0, 74, 45
2, 13152, Note_on_c, 0, 74, 0
2, 13152, Note_on_c, 0, 71, 45
2, 13248, Note_on_c, 0, 71, 0
2, 13248, Note_on_c, 0, 69, 45
2, 13344, Note_on_c, 0, 69, 0
2, 13344, Note_on_c, 0, 68, 45
2, 13438, Note_on_c, 0, 68, 0
2, 13440, Note_on_c, 0, 71, 45
2, 13536, Note_on_c, 0, 71, 0
2, 13536, Note_on_c, 0, 76, 45
2, 13630, Note_on_c, 0, 76, 0
2, 13632, Note_on_c, 0, 71, 45
2, 13632, Note_on_c, 0, 74, 45
2, 13728, Note_on_c, 0, 71, 0
2, 13728, Note_on_c, 0, 74, 0
2, 13728, Note_on_c, 0, 69, 45
2, 13728, Note_on_c, 0, 73, 45
2, 13822, Note_on_c, 0, 69, 0
2, 13822, Note_on_c, 0, 73, 0
2, 13920, Note_on_c, 0, 74, 52
2, 14110, Note_on_c, 0, 74, 0
2, 14112, Note_on_c, 0, 73, 68
2, 14304, Note_on_c, 0, 73, 0
2, 14304, Note_on_c, 0, 71, 84
2, 14398, Note_on_c, 0, 71, 0
2, 14400, Note_on_c, 0, 68, 92
2, 14400, Note_on_c, 0, 78, 92
2, 14560, Note_on_c, 0, 68, 0
2, 14560, Note_on_c, 0, 78, 0
2, 14688, Note_on_c, 0, 69, 92
2, 14688, Note_on_c, 0, 76, 92
2, 14720, Note_on_c, 0, 69, 0
2, 14720, Note_on_c, 0, 76, 0
2, 14784, Note_on_c, 0, 73, 92
2, 14784, Note_on_c, 0, 76, 92
2, 14832, Note_on_c, 0, 73, 0
2, 14832, Note_on_c, 0, 76, 0
2, 14832, Note_on_c, 0, 71, 92
2, 14832, Note_on_c, 0, 74, 92
2, 14878, Note_on_c, 0, 71, 0
2, 14878, Note_on_c, 0, 74, 0
2, 14880, Note_on_c, 0, 69, 92
2, 14880, Note_on_c, 0, 73, 92
2, 15072, Note_on_c, 0, 69, 0
2, 15072, Note_on_c, 0, 73, 0
2, 15072, Note_on_c, 0, 68, 92
2, 15072, Note_on_c, 0, 71, 92
2, 15166, Note_on_c, 0, 68, 0
2, 15166, Note_on_c, 0, 71, 0
2, 15168, Note_on_c, 0, 68, 92
2, 15168, Note_on_c, 0, 72, 92
2, 15264, Note_on_c, 0, 68, 0
2, 15264, Note_on_c, 0, 72, 0
2, 15264, Note_on_c, 0, 69, 92
2, 15264, Note_on_c, 0, 73, 92
2, 15358, Note_on_c, 0, 69, 0
2, 15358, Note_on_c, 0, 73, 0
2, 15360, Note_on_c, 0, 69, 92
2, 15456, Note_on_c, 0, 74, 92
2, 15520, Note_on_c, 0, 69, 0
2, 15552, Note_on_c, 0, 68, 92
2, 15648, Note_on_c, 0, 74, 0
2, 15648, Note_on_c, 0, 73, 92
2, 15712, Note_on_c, 0, 68, 0
2, 15744, Note_on_c, 0, 66, 92
2, 15840, Note_on_c, 0, 73, 0
2, 15840, Note_on_c, 0, 71, 92
2, 15904, Note_on_c, 0, 66, 0
2, 15934, Note_on_c, 0, 71, 0
2, 15936, Note_on_c, 0, 64, 92
2, 15936, Note_on_c, 0, 68, 92
2, 16032, Note_on_c, 0, 64, 0
2, 16032, Note_on_c, 0, 68, 0
2, 16032, Note_on_c, 0, 66, 92
2, 16080, Note_on_c, 0, 66, 0
2, 16080, Note_on_c, 0, 68, 92
2, 16128, Note_on_c, 0, 68, 0
2, 16128, Note_on_c, 0, 69, 92
2, 16176, Note_on_c, 0, 69, 0
2, 16176, Note_on_c, 0, 71, 92
2, 16224, Note_on_c, 0, 71, 0
2, 16224, Note_on_c, 0, 73, 92
2, 16272, Note_on_c, 0, 73, 0
2, 16272, Note_on_c, 0, 74, 92
2, 16320, Note_on_c, 0, 74, 0
2, 16320, Note_on_c, 0, 76, 92
2, 16320, Note_on_c, 0, 81, 92
2, 16414, Note_on_c, 0, 76, 0
2, 16414, Note_on_c, 0, 81, 0
2, 16416, Note_on_c, 0, 74, 92
2, 16416, Note_on_c, 0, 78, 92
2, 16464, Note_on_c, 0, 74, 0
2, 16464, Note_on_c, 0, 78, 0
2, 16464, Note_on_c, 0, 71, 92
2, 16464, Note_on_c, 0, 74, 92
2, 16510, Note_on_c, 0, 71, 0
2, 16510, Note_on_c, 0, 74, 0
2, 16512, Note_on_c, 0, 69, 92
2, 16512, Note_on_c, 0, 73, 92
2, 16608, Note_on_c, 0, 69, 0
2, 16608, Note_on_c, 0, 73, 0
2, 16608, Note_on_c, 0, 68, 92
2, 16608, Note_on_c, 0, 71, 92
2, 16702, Note_on_c, 0, 68, 0
2, 16702, Note_on_c, 0, 71, 0
2, 16704, Note_on_c, 0, 69, 92
2, 16798, Note_on_c, 0, 69, 0
2, 16896, Note_on_c, 0, 76, 45
2, 16992, Note_on_c, 0, 76, 0
2, 16992, Note_on_c, 0, 73, 45
2, 17088, Note_on_c, 0, 73, 0
2, 17088, Note_on_c, 0, 71, 45
2, 17184, Note_on_c, 0, 71, 0
2, 17184, Note_on_c, 0, 69, 45
2, 17278, Note_on_c, 0, 69, 0
2, 17280, Note_on_c, 0, 78, 45
2, 17376, Note_on_c, 0, 78, 0
2, 17376, Note_on_c, 0, 74, 45
2, 17472, Note_on_c, 0, 74, 0
2, 17472, Note_on_c, 0, 73, 45
2, 17568, Note_on_c, 0, 73, 0
2, 17568, Note_on_c, 0, 71, 45
2, 17662, Note_on_c, 0, 71, 0
2, 17664, Note_on_c, 0, 74, 45
2, 17760, Note_on_c, 0, 74, 0
2, 17760, Note_on_c, 0, 71, 45
2, 17856, Note_on_c, 0, 71, 0
2, 17856, Note_on_c, 0, 68, 45
2, 17950, Note_on_c, 0, 68, 0
2, 17952, Note_on_c, 0, 68, 45
2, 17984, Note_on_c, 0, 68, 0
2, 18048, Note_on_c, 0, 68, 45
2, 18080, Note_on_c, 0, 68, 0
2, 18144, Note_on_c, 0, 68, 45
2, 18176, Note_on_c, 0, 68, 0
2, 18240, Note_on_c, 0, 69, 45
2, 18400, Note_on_c, 0, 69, 0
2, 18432, Note_on_c, 0, 76, 92
2, 18528, Note_on_c, 0, 76, 0
2, 18528, Note_on_c, 0, 73, 92
2, 18624, Note_on_c, 0, 73, 0
2, 18624, Note_on_c, 0, 71, 92
2, 18720, Note_on_c, 0, 71, 0
2, 18720, Note_on_c, 0, 70, 92
2, 18814, Note_on_c, 0, 70, 0
2, 18816, Note_on_c, 0, 70, 92
2, 18816, Note_on_c, 0, 79, 92
2, 18848, Note_on_c, 0, 70, 0
2, 18848, Note_on_c, 0, 79, 0
2, 18912, Note_on_c, 0, 70, 92
2, 18912, Note_on_c, 0, 79, 92
2, 18944, Note_on_c, 0, 70, 0
2, 18944, Note_on_c, 0, 79, 0
2, 19008, Note_on_c, 0, 70, 92
2, 19008, Note_on_c, 0, 79, 92
2, 19104, Note_on_c, 0, 70, 0
2, 19104, Note_on_c, 0, 79, 0
2, 19104, Note_on_c, 0, 71, 92
2, 19104, Note_on_c, 0, 78, 92
2, 19198, Note_on_c, 0, 71, 0
2, 19198, Note_on_c, 0, 78, 0
2, 19200, Note_on_c, 0, 74, 92
2, 19296, Note_on_c, 0, 74, 0
2, 19296, Note_on_c, 0, 71, 92
2, 19392, Note_on_c, 0, 71, 0
2, 19392, Note_on_c, 0, 69, 92
2, 19488, Note_on_c, 0, 69, 0
2, 19488, Note_on_c, 0, 68, 92
2, 19582, Note_on_c, 0, 68, 0
2, 19584, Note_on_c, 0, 68, 92
2, 19584, Note_on_c, 0, 77, 92
2, 19616, Note_on_c, 0, 68, 0
2, 19616, Note_on_c, 0, 77, 0
2, 19680, Note_on_c, 0, 68, 92
2, 19680, Note_on_c, 0, 77, 92
2, 19712, Note_on_c, 0, 68, 0
2, 19712, Note_on_c, 0, 77, 0
2, 19776, Note_on_c, 0, 68, 92
2, 19776, Note_on_c, 0, 77, 92
2, 19872, Note_on_c, 0, 68, 0
2, 19872, Note_on_c, 0, 77, 0
2, 19872, Note_on_c, 0, 69, 92
2, 19872, Note_on_c, 0, 76, 92
2, 19966, Note_on_c, 0, 69, 0
2, 19966, Note_on_c, 0, 76, 0
2, 20064, Note_on_c, 0, 69, 92
2, 20096, Note_on_c, 0, 69, 0
2, 20160, Note_on_c, 0, 69, 92
2, 20160, Note_on_c, 0, 73, 92
2, 20256, Note_on_c, 0, 73, 0
2, 20256, Note_on_c, 0, 71, 92
2, 20416, Note_on_c, 0, 71, 0
2, 20448, Note_on_c, 0, 73, 92
2, 20480, Note_on_c, 0, 73, 0
2, 20544, Note_on_c, 0, 76, 92
2, 20640, Note_on_c, 0, 76, 0
2, 20640, Note_on_c, 0, 74, 92
2, 20800, Note_on_c, 0, 74, 0
2, 20832, Note_on_c, 0, 75, 92
2, 20864, Note_on_c, 0, 75, 0
2, 20880, Note_on_c, 0, 69, 0
2, 20928, Note_on_c, 0, 69, 92
2, 20928, Note_on_c, 0, 76, 92
2, 21024, Note_on_c, 0, 76, 0
2, 21024, Note_on_c, 0, 78, 92
2, 21120, Note_on_c, 0, 78, 0
2, 21120, Note_on_c, 0, 76, 92
2, 21184, Note_on_c, 0, 69, 0
2, 21216, Note_on_c, 0, 76, 0
2, 21216, Note_on_c, 0, 71, 92
2, 21216, Note_on_c, 0, 74, 92
2, 21310, Note_on_c, 0, 71, 0
2, 21310, Note_on_c, 0, 74, 0
2, 21312, Note_on_c, 0, 69, 92
2, 21312, Note_on_c, 0, 73, 92
2, 21408, Note_on_c, 0, 69, 0
2, 21408, Note_on_c, 0, 73, 0
2, 21408, Note_on_c, 0, 68, 92
2, 21408, Note_on_c, 0, 71, 92
2, 21502, Note_on_c, 0, 68, 0
2, 21502, Note_on_c, 0, 71, 0
2, 21600, Note_on_c, 0, 76, 92
2, 21632, Note_on_c, 0, 76, 0
2, 21696, Note_on_c, 0, 75, 92
2, 21744, Note_on_c, 0, 75, 0
2, 21744, Note_on_c, 0, 76, 92
2, 21792, Note_on_c, 0, 76, 0
2, 21792, Note_on_c, 0, 78, 92
2, 21840, Note_on_c, 0, 78, 0
2, 21840, Note_on_c, 0, 80, 92
2, 21886, Note_on_c, 0, 80, 0
2, 21888, Note_on_c, 0, 81, 92
2, 21920, Note_on_c, 0, 81, 0
2, 21984, Note_on_c, 0, 75, 92
2, 22016, Note_on_c, 0, 75, 0
2, 22080, Note_on_c, 0, 76, 92
2, 22240, Note_on_c, 0, 76, 0
2, 22368, Note_on_c, 0, 76, 92
2, 22400, Note_on_c, 0, 76, 0
2, 22464, Note_on_c, 0, 75, 92
2, 22512, Note_on_c, 0, 75, 0
2, 22512, Note_on_c, 0, 76, 92
2, 22560, Note_on_c, 0, 76, 0
2, 22560, Note_on_c, 0, 78, 92
2, 22608, Note_on_c, 0, 78, 0
2, 22608, Note_on_c, 0, 80, 92
2, 22654, Note_on_c, 0, 80, 0
2, 22656, Note_on_c, 0, 81, 92
2, 22688, Note_on_c, 0, 81, 0
2, 22752, Note_on_c, 0, 75, 92
2, 22784, Note_on_c, 0, 75, 0
2, 22848, Note_on_c, 0, 76, 92
2, 23008, Note_on_c, 0, 76, 0
2, 23136, Note_on_c, 0, 76, 92
2, 23168, Note_on_c, 0, 76, 0
2, 23232, Note_on_c, 0, 75, 92
2, 23280, Note_on_c, 0, 75, 0
2, 23280, Note_on_c, 0, 76, 92
2, 23328, Note_on_c, 0, 76, 0
2, 23328, Note_on_c, 0, 78, 92
2, 23376, Note_on_c, 0, 78, 0
2, 23376, Note_on_c, 0, 80, 92
2, 23422, Note_on_c, 0, 80, 0
2, 23424, Note_on_c, 0, 81, 92
2, 23456, Note_on_c, 0, 81, 0
2, 23520, Note_on_c, 0, 75, 92
2, 23552, Note_on_c, 0, 75, 0
2, 23616, Note_on_c, 0, 76, 92
2, 23904, Note_on_c, 0, 76, 0
2, 23904, Note_on_c, 0, 75, 81
2, 23998, Note_on_c, 0, 75, 0
2, 24000, Note_on_c, 0, 76, 77
2, 24288, Note_on_c, 0, 76, 0
2, 24288, Note_on_c, 0, 75, 65
2, 24382, Note_on_c, 0, 75, 0
2, 24384, Note_on_c, 0, 76, 61
2, 24480, Note_on_c, 0, 76, 0
2, 24480, Note_on_c, 0, 75, 57
2, 24574, Note_on_c, 0, 75, 0
2, 24576, Note_on_c, 0, 76, 53
2, 24672, Note_on_c, 0, 76, 0
2, 24672, Note_on_c, 0, 73, 49
2, 24768, Note_on_c, 0, 73, 0
2, 24768, Note_on_c, 0, 71, 45
2, 24864, Note_on_c, 0, 71, 0
2, 24864, Note_on_c, 0, 69, 45
2, 24958, Note_on_c, 0, 69, 0
2, 24960, Note_on_c, 0, 78, 45
2, 25056, Note_on_c, 0, 78, 0
2, 25056, Note_on_c, 0, 74, 45
2, 25152, Note_on_c, 0, 74, 0
2, 25152, Note_on_c, 0, 73, 45
2, 25248, Note_on_c, 0, 73, 0
2, 25248, Note_on_c, 0, 71, 45
2, 25342, Note_on_c, 0, 71, 0
2, 25344, Note_on_c, 0, 74, 45
2, 25440, Note_on_c, 0, 74, 0
2, 25440, Note_on_c, 0, 71, 45
2, 25536, Note_on_c, 0, 71, 0
2, 25536, Note_on_c, 0, 69, 45
2, 25632, Note_on_c, 0, 69, 0
2, 25632, Note_on_c, 0, 68, 45
2, 25726, Note_on_c, 0, 68, 0
2, 25728, Note_on_c, 0, 71, 45
2, 25824, Note_on_c, 0, 71, 0
2, 25824, Note_on_c, 0, 76, 45
2, 25918, Note_on_c, 0, 76, 0
2, 25920, Note_on_c, 0, 71, 45
2, 25920, Note_on_c, 0, 74, 45
2, 26016, Note_on_c, 0, 71, 0
2, 26016, Note_on_c, 0, 74, 0
2, 26016, Note_on_c, 0, 69, 45
2, 26016, Note_on_c, 0, 73, 45
2, 26110, Note_on_c, 0, 69, 0
2, 26110, Note_on_c, 0, 73, 0
2, 26208, Note_on_c, 0, 74, 52
2, 26398, Note_on_c, 0, 74, 0
2, 26400, Note_on_c, 0, 73, 68
2, 26592, Note_on_c, 0, 73, 0
2, 26592, Note_on_c, 0, 71, 84
2, 26686, Note_on_c, 0, 71, 0
2, 26688, Note_on_c, 0, 68, 92
2, 26688, Note_on_c, 0, 78, 92
2, 26848, Note_on_c, 0, 68, 0
2, 26848, Note_on_c, 0, 78, 0
2, 26976, Note_on_c, 0, 69, 92
2, 26976, Note_on_c, 0, 76, 92
2, 27008, Note_on_c, 0, 69, 0
2, 27008, Note_on_c, 0, 76, 0
2, 27072, Note_on_c, 0, 73, 92
2, 27072, Note_on_c, 0, 76, 92
2, 27120, Note_on_c, 0, 73, 0
2, 27120, Note_on_c, 0, 76, 0
2, 27120, Note_on_c, 0, 71, 92
2, 27120, Note_on_c, 0, 74, 92
2, 27166, Note_on_c, 0, 71, 0
2, 27166, Note_on_c, 0, 74, 0
2, 27168, Note_on_c, 0, 69, 92
2, 27168, Note_on_c, 0, 73, 92
2, 27360, Note_on_c, 0, 69, 0
2, 27360, Note_on_c, 0, 73, 0
2, 27360, Note_on_c, 0, 68, 92
2, 27360, Note_on_c, 0, 71, 92
2, 27454, Note_on_c, 0, 68, 0
2, 27454, Note_on_c, 0, 71, 0
2, 27456, Note_on_c, 0, 68, 92
2, 27456, Note_on_c, 0, 72, 92
2, 27552, Note_on_c, 0, 68, 0
2, 27552, Note_on_c, 0, 72, 0
2, 27552, Note_on_c, 0, 69, 92
2, 27552, Note_on_c, 0, 73, 92
2, 27646, Note_on_c, 0, 69, 0
2, 27646, Note_on_c, 0, 73, 0
2, 27648, Note_on_c, 0, 69, 92
2, 27744, Note_on_c, 0, 74, 92
2, 27808, Note_on_c, 0, 69, 0
2, 27840, Note_on_c, 0, 68, 92
2, 27936, Note_on_c, 0, 74, 0
2, 27936, Note_on_c, 0, 73, 92
2, 28000, Note_on_c, 0, 68, 0
2, 28032, Note_on_c, 0, 66, 92
2, 28128, Note_on_c, 0, 73, 0
2, 28128, Note_on_c, 0, 71, 92
2, 28192, Note_on_c, 0, 66, 0
2, 28222, Note_on_c, 0, 71, 0
2, 28224, Note_on_c, 0, 64, 92
2, 28224, Note_on_c, 0, 68, 92
2, 28320, Note_on_c, 0, 64, 0
2, 28320, Note_on_c, 0, 68, 0
2, 28320, Note_on_c, 0, 66, 92
2, 28368, Note_on_c, 0, 66, 0
2, 28368, Note_on_c, 0, 68, 92
2, 28416, Note_on_c, 0, 68, 0
2, 28416, Note_on_c, 0, 69, 92
2, 28464, Note_on_c, 0, 69, 0
2, 28464, Note_on_c, 0, 71, 92
2, 28512, Note_on_c, 0, 71, 0
2, 28512, Note_on_c, 0, 73, 92
2, 28560, Note_on_c, 0, 73, 0
2, 28560, Note_on_c, 0, 74, 92
2, 28608, Note_on_c, 0, 74, 0
2, 28608, Note_on_c, 0, 76, 92
2, 28608, Note_on_c, 0, 81, 92
2, 28702, Note_on_c, 0, 76, 0
2, 28702, Note_on_c, 0, 81, 0
2, 28704, Note_on_c, 0, 74, 92
2, 28704, Note_on_c, 0, 78, 92
2, 28752, Note_on_c, 0, 74, 0
2, 28752, Note_on_c, 0, 78, 0
2, 28752, Note_on_c, 0, 71, 92
2, 28752, Note_on_c, 0, 74, 92
2, 28798, Note_on_c, 0, 71, 0
2, 28798, Note_on_c, 0, 74, 0
2, 28800, Note_on_c, 0, 69, 92
2, 28800, Note_on_c, 0, 73, 92
2, 28896, Note_on_c, 0, 69, 0
2, 28896, Note_on_c, 0, 73, 0
2, 28896, Note_on_c, 0, 68, 92
2, 28896, Note_on_c, 0, 71, 92
2, 28990, Note_on_c, 0, 68, 0
2, 28990, Note_on_c, 0, 71, 0
2, 28992, Note_on_c, 0, 69, 92
2, 29086, Note_on_c, 0, 69, 0
2, 29184, Note_on_c, 0, 76, 45
2, 29280, Note_on_c, 0, 76, 0
2, 29280, Note_on_c, 0, 73, 45
2, 29376, Note_on_c, 0, 73, 0
2, 29376, Note_on_c, 0, 71, 45
2, 29472, Note_on_c, 0, 71, 0
2, 29472, Note_on_c, 0, 69, 45
2, 29566, Note_on_c, 0, 69, 0
2, 29568, Note_on_c, 0, 78, 45
2, 29664, Note_on_c, 0, 78, 0
2, 29664, Note_on_c, 0, 74, 45
2, 29760, Note_on_c, 0, 74, 0
2, 29760, Note_on_c, 0, 73, 45
2, 29856, Note_on_c, 0, 73, 0
2, 29856, Note_on_c, 0, 71, 45
2, 29950, Note_on_c, 0, 71, 0
2, 29952, Note_on_c, 0, 74, 45
2, 30048, Note_on_c, 0, 74, 0
2, 30048, Note_on_c, 0, 71, 45
2, 30144, Note_on_c, 0, 71, 0
2, 30144, Note_on_c, 0, 68, 45
2, 30238, Note_on_c, 0, 68, 0
2, 30240, Note_on_c, 0, 68, 45
2, 30272, Note_on_c, 0, 68, 0
2, 30336, Note_on_c, 0, 68, 45
2, 30368, Note_on_c, 0, 68, 0
2, 30432, Note_on_c, 0, 68, 45
2, 30464, Note_on_c, 0, 68, 0
2, 30528, Note_on_c, 0, 69, 45
2, 30688, Note_on_c, 0, 69, 0
2, 30720, Note_on_c, 0, 69, 45
2, 30816, Note_on_c, 0, 69, 0
2, 30816, Note_on_c, 0, 71, 45
2, 30912, Note_on_c, 0, 71, 0
2, 30912, Note_on_c, 0, 72, 45
2, 31006, Note_on_c, 0, 72, 0
2, 31104, Note_on_c, 0, 69, 45
2, 31200, Note_on_c, 0, 69, 0
2, 31200, Note_on_c, 0, 71, 45
2, 31296, Note_on_c, 0, 71, 0
2, 31296, Note_on_c, 0, 72, 45
2, 31390, Note_on_c, 0, 72, 0
2, 31488, Note_on_c, 0, 72, 45
2, 31584, Note_on_c, 0, 72, 0
2, 31584, Note_on_c, 0, 74, 45
2, 31680, Note_on_c, 0, 74, 0
2, 31680, Note_on_c, 0, 76, 45
2, 31774, Note_on_c, 0, 76, 0
2, 31776, Note_on_c, 0, 77, 45
2, 31872, Note_on_c, 0, 77, 0
2, 31872, Note_on_c, 0, 76, 45
2, 31968, Note_on_c, 0, 76, 0
2, 31968, Note_on_c, 0, 74, 45
2, 32062, Note_on_c, 0, 74, 0
2, 32064, Note_on_c, 0, 72, 45
2, 32160, Note_on_c, 0, 72, 0
2, 32160, Note_on_c, 0, 69, 45
2, 32254, Note_on_c, 0, 69, 0
2, 32448, Note_on_c, 0, 64, 45
2, 32448, Note_on_c, 0, 67, 45
2, 32480, Note_on_c, 0, 64, 0
2, 32480, Note_on_c, 0, 67, 0
2, 32544, Note_on_c, 0, 66, 45
2, 32544, Note_on_c, 0, 69, 45
2, 32576, Note_on_c, 0, 66, 0
2, 32576, Note_on_c, 0, 69, 0
2, 32640, Note_on_c, 0, 67, 45
2, 32640, Note_on_c, 0, 71, 45
2, 32672, Note_on_c, 0, 67, 0
2, 32672, Note_on_c, 0, 71, 0
2, 32832, Note_on_c, 0, 67, 45
2, 32832, Note_on_c, 0, 76, 45
2, 32864, Note_on_c, 0, 67, 0
2, 32864, Note_on_c, 0, 76, 0
2, 32928, Note_on_c, 0, 69, 45
2, 32928, Note_on_c, 0, 78, 45
2, 32960, Note_on_c, 0, 69, 0
2, 32960, Note_on_c, 0, 78, 0
2, 33024, Note_on_c, 0, 71, 45
2, 33024, Note_on_c, 0, 79, 45
2, 33056, Note_on_c, 0, 71, 0
2, 33056, Note_on_c, 0, 79, 0
2, 33216, Note_on_c, 0, 71, 45
2, 33216, Note_on_c, 0, 79, 45
2, 33248, Note_on_c, 0, 71, 0
2, 33248, Note_on_c, 0, 79, 0
2, 33312, Note_on_c, 0, 69, 45
2, 33312, Note_on_c, 0, 78, 45
2, 33344, Note_on_c, 0, 69, 0
2, 33344, Note_on_c, 0, 78, 0
2, 33408, Note_on_c, 0, 67, 45
2, 33408, Note_on_c, 0, 76, 45
2, 33440, Note_on_c, 0, 67, 0
2, 33440, Note_on_c, 0, 76, 0
2, 33504, Note_on_c, 0, 66, 45
2, 33504, Note_on_c, 0, 75, 45
2, 33536, Note_on_c, 0, 66, 0
2, 33536, Note_on_c, 0, 75, 0
2, 33600, Note_on_c, 0, 64, 45
2, 33600, Note_on_c, 0, 76, 45
2, 33760, Note_on_c, 0, 64, 0
2, 33760, Note_on_c, 0, 76, 0
2, 33792, Note_on_c, 0, 69, 45
2, 33888, Note_on_c, 0, 69, 0
2, 33888, Note_on_c, 0, 71, 45
2, 33984, Note_on_c, 0, 71, 0
2, 33984, Note_on_c, 0, 72, 45
2, 34078, Note_on_c, 0, 72, 0
2, 34176, Note_on_c, 0, 69, 45
2, 34272, Note_on_c, 0, 69, 0
2, 34272, Note_on_c, 0, 71, 45
2, 34368, Note_on_c, 0, 71, 0
2, 34368, Note_on_c, 0, 72, 45
2, 34462, Note_on_c, 0, 72, 0
2, 34560, Note_on_c, 0, 72, 45
2, 34656, Note_on_c, 0, 72, 0
2, 34656, Note_on_c, 0, 74, 45
2, 34752, Note_on_c, 0, 74, 0
2, 34752, Note_on_c, 0, 76, 45
2, 34846, Note_on_c, 0, 76, 0
2, 34848, Note_on_c, 0, 77, 45
2, 34944, Note_on_c, 0, 77, 0
2, 34944, Note_on_c, 0, 76, 45
2, 35040, Note_on_c, 0, 76, 0
2, 35040, Note_on_c, 0, 74, 45
2, 35134, Note_on_c, 0, 74, 0
2, 35136, Note_on_c, 0, 72, 45
2, 35232, Note_on_c, 0, 72, 0
2, 35232, Note_on_c, 0, 69, 45
2, 35326, Note_on_c, 0, 69, 0
2, 35520, Note_on_c, 0, 64, 45
2, 35520, Note_on_c, 0, 67, 45
2, 35552, Note_on_c, 0, 64, 0
2, 35552, Note_on_c, 0, 67, 0
2, 35616, Note_on_c, 0, 66, 45
2, 35616, Note_on_c, 0, 69, 45
2, 35648, Note_on_c, 0, 66, 0
2, 35648, Note_on_c, 0, 69, 0
2, 35712, Note_on_c, 0, 67, 45
2, 35712, Note_on_c, 0, 71, 45
2, 35744, Note_on_c, 0, 67, 0
2, 35744, Note_on_c, 0, 71, 0
2, 35904, Note_on_c, 0, 67, 45
2, 35904, Note_on_c, 0, 76, 45
2, 35936, Note_on_c, 0, 67, 0
2, 35936, Note_on_c, 0, 76, 0
2, 36000, Note_on_c, 0, 69, 45
2, 36000, Note_on_c, 0, 78, 45
2, 36032, Note_on_c, 0, 69, 0
2, 36032, Note_on_c, 0, 78, 0
2, 36096, Note_on_c, 0, 71, 45
2, 36096, Note_on_c, 0, 79, 45
2, 36128, Note_on_c, 0, 71, 0
2, 36128, Note_on_c, 0, 79, 0
2, 36288, Note_on_c, 0, 71, 45
2, 36288, Note_on_c, 0, 79, 45
2, 36320, Note_on_c, 0, 71, 0
2, 36320, Note_on_c, 0, 79, 0
2, 36384, Note_on_c, 0, 69, 45
2, 36384, Note_on_c, 0, 78, 45
2, 36416, Note_on_c, 0, 69, 0
2, 36416, Note_on_c, 0, 78, 0
2, 36480, Note_on_c, 0, 67, 45
2, 36480, Note_on_c, 0, 76, 45
2, 36512, Note_on_c, 0, 67, 0
2, 36512, Note_on_c, 0, 76, 0
2, 36576, Note_on_c, 0, 66, 45
2, 36576, Note_on_c, 0, 75, 45
2, 36608, Note_on_c, 0, 66, 0
2, 36608, Note_on_c, 0, 75, 0
2, 36672, Note_on_c, 0, 64, 45
2, 36672, Note_on_c, 0, 76, 45
2, 36832, Note_on_c, 0, 64, 0
2, 36832, Note_on_c, 0, 76, 0
2, 36864, Note_on_c, 0, 76, 92
2, 36958, Note_on_c, 0, 76, 0
2, 36960, Note_on_c, 0, 69, 92
2, 37054, Note_on_c, 0, 69, 0
2, 37056, Note_on_c, 0, 69, 92
2, 37152, Note_on_c, 0, 69, 0
2, 37152, Note_on_c, 0, 68, 92
2, 37246, Note_on_c, 0, 68, 0
2, 37248, Note_on_c, 0, 64, 92
2, 37248, Note_on_c, 0, 69, 92
2, 37344, Note_on_c, 0, 64, 0
2, 37344, Note_on_c, 0, 69, 0
2, 37344, Note_on_c, 0, 69, 92
2, 37344, Note_on_c, 0, 72, 92
2, 37438, Note_on_c, 0, 69, 0
2, 37438, Note_on_c, 0, 72, 0
2, 37440, Note_on_c, 0, 69, 92
2, 37440, Note_on_c, 0, 72, 92
2, 37536, Note_on_c, 0, 69, 0
2, 37536, Note_on_c, 0, 72, 0
2, 37536, Note_on_c, 0, 68, 92
2, 37536, Note_on_c, 0, 71, 92
2, 37630, Note_on_c, 0, 68, 0
2, 37630, Note_on_c, 0, 71, 0
2, 37632, Note_on_c, 0, 76, 92
2, 37728, Note_on_c, 0, 76, 0
2, 37728, Note_on_c, 0, 69, 92
2, 37822, Note_on_c, 0, 69, 0
2, 37824, Note_on_c, 0, 69, 92
2, 37920, Note_on_c, 0, 69, 0
2, 37920, Note_on_c, 0, 68, 92
2, 38014, Note_on_c, 0, 68, 0
2, 38016, Note_on_c, 0, 64, 92
2, 38016, Note_on_c, 0, 69, 92
2, 38112, Note_on_c, 0, 64, 0
2, 38112, Note_on_c, 0, 69, 0
2, 38112, Note_on_c, 0, 69, 92
2, 38112, Note_on_c, 0, 72, 92
2, 38206, Note_on_c, 0, 69, 0
2, 38206, Note_on_c, 0, 72, 0
2, 38208, Note_on_c, 0, 69, 92
2, 38208, Note_on_c, 0, 72, 92
2, 38304, Note_on_c, 0, 69, 0
2, 38304, Note_on_c, 0, 72, 0
2, 38304, Note_on_c, 0, 68, 92
2, 38304, Note_on_c, 0, 71, 92
2, 38398, Note_on_c, 0, 68, 0
2, 38398, Note_on_c, 0, 71, 0
2, 38400, Note_on_c, 0, 74, 45
2, 38496, Note_on_c, 0, 74, 0
2, 38496, Note_on_c, 0, 76, 45
2, 38592, Note_on_c, 0, 76, 0
2, 38592, Note_on_c, 0, 71, 45
2, 38592, Note_on_c, 0, 77, 45
2, 38688, Note_on_c, 0, 71, 0
2, 38688, Note_on_c, 0, 77, 0
2, 38688, Note_on_c, 0, 69, 45
2, 38784, Note_on_c, 0, 69, 0
2, 38784, Note_on_c, 0, 68, 45
2, 38784, Note_on_c, 0, 74, 45
2, 38880, Note_on_c, 0, 68, 0
2, 38880, Note_on_c, 0, 74, 0
2, 38880, Note_on_c, 0, 76, 45
2, 38976, Note_on_c, 0, 76, 0
2, 38976, Note_on_c, 0, 71, 45
2, 38976, Note_on_c, 0, 77, 45
2, 39072, Note_on_c, 0, 71, 0
2, 39072, Note_on_c, 0, 77, 0
2, 39072, Note_on_c, 0, 69, 45
2, 39168, Note_on_c, 0, 69, 0
2, 39168, Note_on_c, 0, 68, 92
2, 39168, Note_on_c, 0, 74, 92
2, 39264, Note_on_c, 0, 68, 0
2, 39264, Note_on_c, 0, 74, 0
2, 39264, Note_on_c, 0, 77, 92
2, 39358, Note_on_c, 0, 77, 0
2, 39360, Note_on_c, 0, 69, 92
2, 39360, Note_on_c, 0, 76, 92
2, 39456, Note_on_c, 0, 69, 0
2, 39456, Note_on_c, 0, 76, 0
2, 39456, Note_on_c, 0, 71, 92
2, 39456, Note_on_c, 0, 74, 92
2, 39552, Note_on_c, 0, 71, 0
2, 39552, Note_on_c, 0, 74, 0
2, 39552, Note_on_c, 0, 69, 92
2, 39552, Note_on_c, 0, 72, 92
2, 39648, Note_on_c, 0, 69, 0
2, 39648, Note_on_c, 0, 72, 0
2, 39648, Note_on_c, 0, 68, 92
2, 39648, Note_on_c, 0, 71, 92
2, 39742, Note_on_c, 0, 68, 0
2, 39742, Note_on_c, 0, 71, 0
2, 39744, Note_on_c, 0, 69, 92
2, 39904, Note_on_c, 0, 69, 0
2, 39936, Note_on_c, 0, 76, 92
2, 40030, Note_on_c, 0, 76, 0
2, 40032, Note_on_c, 0, 69, 92
2, 40126, Note_on_c, 0, 69, 0
2, 40128, Note_on_c, 0, 69, 92
2, 40224, Note_on_c, 0, 69, 0
2, 40224, Note_on_c, 0, 68, 92
2, 40318, Note_on_c, 0, 68, 0
2, 40320, Note_on_c, 0, 64, 92
2, 40320, Note_on_c, 0, 69, 92
2, 40416, Note_on_c, 0, 64, 0
2, 40416, Note_on_c, 0, 69, 0
2, 40416, Note_on_c, 0, 69, 92
2, 40416, Note_on_c, 0, 72, 92
2, 40510, Note_on_c, 0, 69, 0
2, 40510, Note_on_c, 0, 72, 0
2, 40512, Note_on_c, 0, 69, 92
2, 40512, Note_on_c, 0, 72, 92
2, 40608, Note_on_c, 0, 69, 0
2, 40608, Note_on_c, 0, 72, 0
2, 40608, Note_on_c, 0, 68, 92
2, 40608, Note_on_c, 0, 71, 92
2, 40702, Note_on_c, 0, 68, 0
2, 40702, Note_on_c, 0, 71, 0
2, 40704, Note_on_c, 0, 76, 92
2, 40800, Note_on_c, 0, 76, 0
2, 40800, Note_on_c, 0, 69, 92
2, 40894, Note_on_c, 0, 69, 0
2, 40896, Note_on_c, 0, 69, 92
2, 40992, Note_on_c, 0, 69, 0
2, 40992, Note_on_c, 0, 68, 92
2, 41086, Note_on_c, 0, 68, 0
2, 41088, Note_on_c, 0, 64, 92
2, 41088, Note_on_c, 0, 69, 92
2, 41184, Note_on_c, 0, 64, 0
2, 41184, Note_on_c, 0, 69, 0
2, 41184, Note_on_c, 0, 69, 92
2, 41184, Note_on_c, 0, 72, 92
2, 41278, Note_on_c, 0, 69, 0
2, 41278, Note_on_c, 0, 72, 0
2, 41280, Note_on_c, 0, 69, 92
2, 41280, Note_on_c, 0, 72, 92
2, 41376, Note_on_c, 0, 69, 0
2, 41376, Note_on_c, 0, 72, 0
2, 41376, Note_on_c, 0, 68, 92
2, 41376, Note_on_c, 0, 71, 92
2, 41470, Note_on_c, 0, 68, 0
2, 41470, Note_on_c, 0, 71, 0
2, 41472, Note_on_c, 0, 74, 45
2, 41568, Note_on_c, 0, 74, 0
2, 41568, Note_on_c, 0, 76, 45
2, 41664, Note_on_c, 0, 76, 0
2, 41664, Note_on_c, 0, 71, 45
2, 41664, Note_on_c, 0, 77, 45
2, 41760, Note_on_c, 0, 71, 0
2, 41760, Note_on_c, 0, 77, 0
2, 41760, Note_on_c, 0, 69, 45
2, 41856, Note_on_c, 0, 69, 0
2, 41856, Note_on_c, 0, 68, 45
2, 41856, Note_on_c, 0, 74, 45
2, 41952, Note_on_c, 0, 68, 0
2, 41952, Note_on_c, 0, 74, 0
2, 41952, Note_on_c, 0, 76, 45
2, 42048, Note_on_c, 0, 76, 0
2, 42048, Note_on_c, 0, 71, 45
2, 42048, Note_on_c, 0, 77, 45
2, 42144, Note_on_c, 0, 71, 0
2, 42144, Note_on_c, 0, 77, 0
2, 42144, Note_on_c, 0, 69, 45
2, 42240, Note_on_c, 0, 69, 0
2, 42240, Note_on_c, 0, 68, 92
2, 42240, Note_on_c, 0, 74, 92
2, 42336, Note_on_c, 0, 68, 0
2, 42336, Note_on_c, 0, 74, 0
2, 42336, Note_on_c, 0, 77, 92
2, 42430, Note_on_c, 0, 77, 0
2, 42432, Note_on_c, 0, 69, 92
2, 42432, Note_on_c, 0, 76, 92
2, 42528, Note_on_c, 0, 69, 0
2, 42528, Note_on_c, 0, 76, 0
2, 42528, Note_on_c, 0, 71, 92
2, 42528, Note_on_c, 0, 74, 92
2, 42624, Note_on_c, 0, 71, 0
2, 42624, Note_on_c, 0, 74, 0
2, 42624, Note_on_c, 0, 69, 92
2, 42624, Note_on_c, 0, 72, 92
2, 42720, Note_on_c, 0, 69, 0
2, 42720, Note_on_c, 0, 72, 0
2, 42720, Note_on_c, 0, 68, 92
2, 42720, Note_on_c, 0, 71, 92
2, 42814, Note_on_c, 0, 68, 0
2, 42814, Note_on_c, 0, 71, 0
2, 42816, Note_on_c, 0, 69, 92
2, 42976, Note_on_c, 0, 69, 0
2, 43008, Note_on_c, 0, 76, 45
2, 43104, Note_on_c, 0, 76, 0
2, 43104, Note_on_c, 0, 73, 45
2, 43200, Note_on_c, 0, 73, 0
2, 43200, Note_on_c, 0, 71, 45
2, 43296, Note_on_c, 0, 71, 0
2, 43296, Note_on_c, 0, 69, 45
2, 43390, Note_on_c, 0, 69, 0
2, 43392, Note_on_c, 0, 78, 45
2, 43488, Note_on_c, 0, 78, 0
2, 43488, Note_on_c, 0, 74, 45
2, 43584, Note_on_c, 0, 74, 0
2, 43584, Note_on_c, 0, 73, 45
2, 43680, Note_on_c, 0, 73, 0
2, 43680, Note_on_c, 0, 71, 45
2, 43774, Note_on_c, 0, 71, 0
2, 43776, Note_on_c, 0, 74, 45
2, 43872, Note_on_c, 0, 74, 0
2, 43872, Note_on_c, 0, 71, 45
2, 43968, Note_on_c, 0, 71, 0
2, 43968, Note_on_c, 0, 69, 45
2, 44064, Note_on_c, 0, 69, 0
2, 44064, Note_on_c, 0, 68, 45
2, 44158, Note_on_c, 0, 68, 0
2, 44160, Note_on_c, 0, 71, 45
2, 44256, Note_on_c, 0, 71, 0
2, 44256, Note_on_c, 0, 76, 45
2, 44350, Note_on_c, 0, 76, 0
2, 44352, Note_on_c, 0, 71, 45
2, 44352, Note_on_c, 0, 74, 45
2, 44448, Note_on_c, 0, 71, 0
2, 44448, Note_on_c, 0, 74, 0
2, 44448, Note_on_c, 0, 69, 45
2, 44448, Note_on_c, 0, 73, 45
2, 44542, Note_on_c, 0, 69, 0
2, 44542, Note_on_c, 0, 73, 0
2, 44640, Note_on_c, 0, 74, 45
2, 44830, Note_on_c, 0, 74, 0
2, 44832, Note_on_c, 0, 73, 63
2, 45024, Note_on_c, 0, 73, 0
2, 45024, Note_on_c, 0, 71, 82
2, 45118, Note_on_c, 0, 71, 0
2, 45120, Note_on_c, 0, 68, 92
2, 45120, Note_on_c, 0, 78, 92
2, 45280, Note_on_c, 0, 68, 0
2, 45280, Note_on_c, 0, 78, 0
2, 45408, Note_on_c, 0, 69, 92
2, 45408, Note_on_c, 0, 76, 92
2, 45440, Note_on_c, 0, 69, 0
2, 45440, Note_on_c, 0, 76, 0
2, 45504, Note_on_c, 0, 73, 92
2, 45504, Note_on_c, 0, 76, 92
2, 45552, Note_on_c, 0, 73, 0
2, 45552, Note_on_c, 0, 76, 0
2, 45552, Note_on_c, 0, 71, 92
2, 45552, Note_on_c, 0, 74, 92
2, 45598, Note_on_c, 0, 71, 0
2, 45598, Note_on_c, 0, 74, 0
2, 45600, Note_on_c, 0, 69, 92
2, 45600, Note_on_c, 0, 73, 92
2, 45792, Note_on_c, 0, 69, 0
2, 45792, Note_on_c, 0, 73, 0
2, 45792, Note_on_c, 0, 68, 92
2, 45792, Note_on_c, 0, 71, 92
2, 45886, Note_on_c, 0, 68, 0
2, 45886, Note_on_c, 0, 71, 0
2, 45888, Note_on_c, 0, 68, 92
2, 45888, Note_on_c, 0, 72, 92
2, 45984, Note_on_c, 0, 68, 0
2, 45984, Note_on_c, 0, 72, 0
2, 45984, Note_on_c, 0, 69, 92
2, 45984, Note_on_c, 0, 73, 92
2, 46078, Note_on_c, 0, 69, 0
2, 46078, Note_on_c, 0, 73, 0
2, 46080, Note_on_c, 0, 69, 92
2, 46176, Note_on_c, 0, 74, 92
2, 46240, Note_on_c, 0, 69, 0
2, 46272, Note_on_c, 0, 68, 92
2, 46368, Note_on_c, 0, 74, 0
2, 46368, Note_on_c, 0, 73, 92
2, 46432, Note_on_c, 0, 68, 0
2, 46464, Note_on_c, 0, 66, 92
2, 46560, Note_on_c, 0, 73, 0
2, 46560, Note_on_c, 0, 71, 92
2, 46624, Note_on_c, 0, 66, 0
2, 46654, Note_on_c, 0, 71, 0
2, 46656, Note_on_c, 0, 64, 92
2, 46656, Note_on_c, 0, 68, 92
2, 46752, Note_on_c, 0, 64, 0
2, 46752, Note_on_c, 0, 68, 0
2, 46752, Note_on_c, 0, 66, 92
2, 46800, Note_on_c, 0, 66, 0
2, 46800, Note_on_c, 0, 68, 92
2, 46848, Note_on_c, 0, 68, 0
2, 46848, Note_on_c, 0, 69, 92
2, 46896, Note_on_c, 0, 69, 0
2, 46896, Note_on_c, 0, 71, 92
2, 46944, Note_on_c, 0, 71, 0
2, 46944, Note_on_c, 0, 73, 92
2, 46992, Note_on_c, 0, 73, 0
2, 46992, Note_on_c, 0, 74, 92
2, 47040, Note_on_c, 0, 74, 0
2, 47040, Note_on_c, 0, 76, 92
2, 47040, Note_on_c, 0, 81, 92
2, 47134, Note_on_c, 0, 76, 0
2, 47134, Note_on_c, 0, 81, 0
2, 47136, Note_on_c, 0, 74, 92
2, 47136, Note_on_c, 0, 78, 92
2, 47184, Note_on_c, 0, 74, 0
2, 47184, Note_on_c, 0, 78, 0
2, 47184, Note_on_c, 0, 71, 92
2, 47184, Note_on_c, 0, 74, 92
2, 47230, Note_on_c, 0, 71, 0
2, 47230, Note_on_c, 0, 74, 0
2, 47232, Note_on_c, 0, 69, 92
2, 47232, Note_on_c, 0, 73, 92
2, 47328, Note_on_c, 0, 69, 0
2, 47328, Note_on_c, 0, 73, 0
2, 47328, Note_on_c, 0, 68, 92
2, 47328, Note_on_c, 0, 71, 92
2, 47422, Note_on_c, 0, 68, 0
2, 47422, Note_on_c, 0, 71, 0
2, 47424, Note_on_c, 0, 69, 92
2, 47518, Note_on_c, 0, 69, 0
2, 47616, Note_on_c, 0, 76, 45
2, 47712, Note_on_c, 0, 76, 0
2, 47712, Note_on_c, 0, 73, 45
2, 47808, Note_on_c, 0, 73, 0
2, 47808, Note_on_c, 0, 71, 45
2, 47904, Note_on_c, 0, 71, 0
2, 47904, Note_on_c, 0, 69, 45
2, 47998, Note_on_c, 0, 69, 0
2, 48000, Note_on_c, 0, 78, 45
2, 48096, Note_on_c, 0, 78, 0
2, 48096, Note_on_c, 0, 74, 45
2, 48192, Note_on_c, 0, 74, 0
2, 48192, Note_on_c, 0, 73, 45
2, 48288, Note_on_c, 0, 73, 0
2, 48288, Note_on_c, 0, 71, 45
2, 48382, Note_on_c, 0, 71, 0
2, 48384, Note_on_c, 0, 74, 45
2, 48480, Note_on_c, 0, 74, 0
2, 48480, Note_on_c, 0, 71, 45
2, 48576, Note_on_c, 0, 71, 0
2, 48576, Note_on_c, 0, 68, 45
2, 48670, Note_on_c, 0, 68, 0
2, 48672, Note_on_c, 0, 68, 45
2, 48704, Note_on_c, 0, 68, 0
2, 48768, Note_on_c, 0, 68, 45
2, 48800, Note_on_c, 0, 68, 0
2, 48864, Note_on_c, 0, 68, 45
2, 48896, Note_on_c, 0, 68, 0
2, 48960, Note_on_c, 0, 69, 45
2, 49120, Note_on_c, 0, 69, 0
2, 49536, Note_on_c, 0, 66, 45
2, 49536, Note_on_c, 0, 69, 45
2, 49568, Note_on_c, 0, 66, 0
2, 49568, Note_on_c, 0, 69, 0
2, 49632, Note_on_c, 0, 66, 45
2, 49632, Note_on_c, 0, 69, 45
2, 49664, Note_on_c, 0, 66, 0
2, 49664, Note_on_c, 0, 69, 0
2, 49728, Note_on_c, 0, 66, 45
2, 49728, Note_on_c, 0, 70, 45
2, 49824, Note_on_c, 0, 66, 0
2, 49824, Note_on_c, 0, 70, 0
2, 49824, Note_on_c, 0, 67, 45
2, 49824, Note_on_c, 0, 71, 45
2, 49918, Note_on_c, 0, 67, 0
2, 49918, Note_on_c, 0, 71, 0
2, 50304, Note_on_c, 0, 67, 45
2, 50304, Note_on_c, 0, 73, 45
2, 50336, Note_on_c, 0, 67, 0
2, 50336, Note_on_c, 0, 73, 0
2, 50400, Note_on_c, 0, 67, 45
2, 50400, Note_on_c, 0, 73, 45
2, 50432, Note_on_c, 0, 67, 0
2, 50432, Note_on_c, 0, 73, 0
2, 50496, Note_on_c, 0, 67, 45
2, 50496, Note_on_c, 0, 76, 45
2, 50592, Note_on_c, 0, 67, 0
2, 50592, Note_on_c, 0, 76, 0
2, 50592, Note_on_c, 0, 66, 45
2, 50592, Note_on_c, 0, 74, 45
2, 50686, Note_on_c, 0, 66, 0
2, 50686, Note_on_c, 0, 74, 0
2, 51072, Note_on_c, 0, 68, 92
2, 51072, Note_on_c, 0, 78, 92
2, 51104, Note_on_c, 0, 68, 0
2, 51104, Note_on_c, 0, 78, 0
2, 51168, Note_on_c, 0, 68, 92
2, 51168, Note_on_c, 0, 78, 92
2, 51200, Note_on_c, 0, 68, 0
2, 51200, Note_on_c, 0, 78, 0
2, 51264, Note_on_c, 0, 69, 92
2, 51264, Note_on_c, 0, 78, 92
2, 51360, Note_on_c, 0, 78, 0
2, 51360, Note_on_c, 0, 76, 92
2, 51424, Note_on_c, 0, 69, 0
2, 51454, Note_on_c, 0, 76, 0
2, 51552, Note_on_c, 0, 71, 92
2, 51552, Note_on_c, 0, 74, 92
2, 51584, Note_on_c, 0, 71, 0
2, 51584, Note_on_c, 0, 74, 0
2, 51744, Note_on_c, 0, 69, 92
2, 51744, Note_on_c, 0, 73, 92
2, 51776, Note_on_c, 0, 69, 0
2, 51776, Note_on_c, 0, 73, 0
2, 51936, Note_on_c, 0, 68, 92
2, 51936, Note_on_c, 0, 71, 92
2, 51968, Note_on_c, 0, 68, 0
2, 51968, Note_on_c, 0, 71, 0
2, 52032, Note_on_c, 0, 69, 92
2, 52192, Note_on_c, 0, 69, 0
2, 52416, Note_on_c, 0, 69, 45
2, 52416, Note_on_c, 0, 71, 45
2, 52752, Note_on_c, 0, 71, 0
2, 52800, Note_on_c, 0, 73, 45
2, 53088, Note_on_c, 0, 73, 0
2, 53088, Note_on_c, 0, 74, 45
2, 53136, Note_on_c, 0, 69, 0
2, 53182, Note_on_c, 0, 74, 0
2, 53184, Note_on_c, 0, 69, 45
2, 53184, Note_on_c, 0, 73, 45
2, 53232, Note_on_c, 0, 69, 0
2, 53232, Note_on_c, 0, 73, 0
2, 53376, Note_on_c, 0, 68, 45
2, 53376, Note_on_c, 0, 71, 45
2, 53424, Note_on_c, 0, 68, 0
2, 53424, Note_on_c, 0, 71, 0
2, 53568, Note_on_c, 0, 69, 45
2, 53728, Note_on_c, 0, 69, 0
2, 54144, Note_on_c, 0, 66, 45
2, 54144, Note_on_c, 0, 69, 45
2, 54176, Note_on_c, 0, 66, 0
2, 54176, Note_on_c, 0, 69, 0
2, 54240, Note_on_c, 0, 66, 45
2, 54240, Note_on_c, 0, 69, 45
2, 54272, Note_on_c, 0, 66, 0
2, 54272, Note_on_c, 0, 69, 0
2, 54336, Note_on_c, 0, 66, 45
2, 54336, Note_on_c, 0, 70, 45
2, 54432, Note_on_c, 0, 66, 0
2, 54432, Note_on_c, 0, 70, 0
2, 54432, Note_on_c, 0, 67, 45
2, 54432, Note_on_c, 0, 71, 45
2, 54526, Note_on_c, 0, 67, 0
2, 54526, Note_on_c, 0, 71, 0
2, 54912, Note_on_c, 0, 67, 45
2, 54912, Note_on_c, 0, 73, 45
2, 54944, Note_on_c, 0, 67, 0
2, 54944, Note_on_c, 0, 73, 0
2, 55008, Note_on_c, 0, 67, 45
2, 55008, Note_on_c, 0, 73, 45
2, 55040, Note_on_c, 0, 67, 0
2, 55040, Note_on_c, 0, 73, 0
2, 55104, Note_on_c, 0, 67, 45
2, 55104, Note_on_c, 0, 76, 45
2, 55200, Note_on_c, 0, 67, 0
2, 55200, Note_on_c, 0, 76, 0
2, 55200, Note_on_c, 0, 66, 45
2, 55200, Note_on_c, 0, 74, 45
2, 55294, Note_on_c, 0, 66, 0
2, 55294, Note_on_c, 0, 74, 0
2, 55680, Note_on_c, 0, 68, 92
2, 55680, Note_on_c, 0, 78, 92
2, 55712, Note_on_c, 0, 68, 0
2, 55712, Note_on_c, 0, 78, 0
2, 55776, Note_on_c, 0, 68, 92
2, 55776, Note_on_c, 0, 78, 92
2, 55808, Note_on_c, 0, 68, 0
2, 55808, Note_on_c, 0, 78, 0
2, 55872, Note_on_c, 0, 69, 92
2, 55872, Note_on_c, 0, 78, 92
2, 55968, Note_on_c, 0, 78, 0
2, 55968, Note_on_c, 0, 76, 92
2, 56032, Note_on_c, 0, 69, 0
2, 56062, Note_on_c, 0, 76, 0
2, 56160, Note_on_c, 0, 71, 92
2, 56160, Note_on_c, 0, 74, 92
2, 56192, Note_on_c, 0, 71, 0
2, 56192, Note_on_c, 0, 74, 0
2, 56352, Note_on_c, 0, 69, 92
2, 56352, Note_on_c, 0, 73, 92
2, 56384, Note_on_c, 0, 69, 0
2, 56384, Note_on_c, 0, 73, 0
2, 56544, Note_on_c, 0, 68, 92
2, 56544, Note_on_c, 0, 71, 92
2, 56576, Note_on_c, 0, 68, 0
2, 56576, Note_on_c, 0, 71, 0
2, 56640, Note_on_c, 0, 69, 92
2, 56800, Note_on_c, 0, 69, 0
2, 57024, Note_on_c, 0, 69, 45
2, 57024, Note_on_c, 0, 71, 45
2, 57360, Note_on_c, 0, 71, 0
2, 57408, Note_on_c, 0, 73, 45
2, 57696, Note_on_c, 0, 73, 0
2, 57696, Note_on_c, 0, 74, 45
2, 57744, Note_on_c, 0, 69, 0
2, 57790, Note_on_c, 0, 74, 0
2, 57792, Note_on_c, 0, 69, 45
2, 57792, Note_on_c, 0, 73, 45
2, 57840, Note_on_c, 0, 69, 0
2, 57840, Note_on_c, 0, 73, 0
2, 57984, Note_on_c, 0, 68, 45
2, 57984, Note_on_c, 0, 71, 45
2, 58032, Note_on_c, 0, 68, 0
2, 58032, Note_on_c, 0, 71, 0
2, 58176, Note_on_c, 0, 69, 45
2, 58336, Note_on_c, 0, 69, 0
2, 58752, Note_on_c, 0, 69, 92
2, 58784, Note_on_c, 0, 69, 0
2, 58848, Note_on_c, 0, 69, 92
2, 58880, Note_on_c, 0, 69, 0
2, 58944, Note_on_c, 0, 79, 92
2, 59136, Note_on_c, 0, 79, 0
2, 59136, Note_on_c, 0, 69, 92
2, 59136, Note_on_c, 0, 78, 92
2, 59168, Note_on_c, 0, 69, 0
2, 59232, Note_on_c, 0, 69, 92
2, 59264, Note_on_c, 0, 69, 0
2, 59296, Note_on_c, 0, 78, 0
2, 59328, Note_on_c, 0, 69, 92
2, 59328, Note_on_c, 0, 76, 92
2, 59520, Note_on_c, 0, 69, 0
2, 59520, Note_on_c, 0, 76, 0
2, 59520, Note_on_c, 0, 68, 92
2, 59520, Note_on_c, 0, 74, 92
2, 59680, Note_on_c, 0, 68, 0
2, 59680, Note_on_c, 0, 74, 0
2, 59712, Note_on_c, 0, 69, 92
2, 59712, Note_on_c, 0, 73, 92
2, 59808, Note_on_c, 0, 73, 0
2, 59808, Note_on_c, 0, 76, 92
2, 59872, Note_on_c, 0, 69, 0
2, 59902, Note_on_c, 0, 76, 0
2, 59904, Note_on_c, 0, 69, 92
2, 59936, Note_on_c, 0, 69, 0
2, 60000, Note_on_c, 0, 69, 92
2, 60032, Note_on_c, 0, 69, 0
2, 60096, Note_on_c, 0, 69, 92
2, 60256, Note_on_c, 0, 69, 0
2, 60288, Note_on_c, 0, 69, 92
2, 60320, Note_on_c, 0, 69, 0
2, 60384, Note_on_c, 0, 69, 92
2, 60416, Note_on_c, 0, 69, 0
2, 60480, Note_on_c, 0, 69, 92
2, 60480, Note_on_c, 0, 79, 92
2, 60672, Note_on_c, 0, 69, 0
2, 60672, Note_on_c, 0, 79, 0
2, 60672, Note_on_c, 0, 69, 92
2, 60672, Note_on_c, 0, 78, 92
2, 60740, Note_on_c, 0, 69, 0
2, 60768, Note_on_c, 0, 69, 92
2, 60832, Note_on_c, 0, 78, 0
2, 60836, Note_on_c, 0, 69, 0
2, 60864, Note_on_c, 0, 69, 92
2, 60864, Note_on_c, 0, 76, 92
2, 61056, Note_on_c, 0, 69, 0
2, 61056, Note_on_c, 0, 76, 0
2, 61056, Note_on_c, 0, 68, 92
2, 61056, Note_on_c, 0, 74, 92
2, 61152, Note_on_c, 0, 74, 0
2, 61152, Note_on_c, 0, 71, 92
2, 61216, Note_on_c, 0, 68, 0
2, 61248, Note_on_c, 0, 71, 0
2, 61248, Note_on_c, 0, 69, 92
2, 61408, Note_on_c, 0, 69, 0
2, 61824, Note_on_c, 0, 66, 45
2, 61824, Note_on_c, 0, 69, 45
2, 61856, Note_on_c, 0, 66, 0
2, 61856, Note_on_c, 0, 69, 0
2, 61920, Note_on_c, 0, 66, 45
2, 61920, Note_on_c, 0, 69, 45
2, 61952, Note_on_c, 0, 66, 0
2, 61952, Note_on_c, 0, 69, 0
2, 62016, Note_on_c, 0, 66, 45
2, 62016, Note_on_c, 0, 70, 45
2, 62110, Note_on_c, 0, 66, 0
2, 62110, Note_on_c, 0, 70, 0
2, 62112, Note_on_c, 0, 67, 45
2, 62112, Note_on_c, 0, 71, 45
2, 62206, Note_on_c, 0, 67, 0
2, 62206, Note_on_c, 0, 71, 0
2, 62592, Note_on_c, 0, 67, 45
2, 62592, Note_on_c, 0, 73, 45
2, 62624, Note_on_c, 0, 67, 0
2, 62624, Note_on_c, 0, 73, 0
2, 62688, Note_on_c, 0, 67, 45
2, 62688, Note_on_c, 0, 73, 45
2, 62720, Note_on_c, 0, 67, 0
2, 62720, Note_on_c, 0, 73, 0
2, 62784, Note_on_c, 0, 67, 45
2, 62784, Note_on_c, 0, 76, 45
2, 62880, Note_on_c, 0, 67, 0
2, 62880, Note_on_c, 0, 76, 0
2, 62880, Note_on_c, 0, 66, 45
2, 62880, Note_on_c, 0, 74, 45
2, 62974, Note_on_c, 0, 66, 0
2, 62974, Note_on_c, 0, 74, 0
2, 63360, Note_on_c, 0, 69, 92
2, 63360, Note_on_c, 0, 72, 92
2, 63392, Note_on_c, 0, 69, 0
2, 63392, Note_on_c, 0, 72, 0
2, 63456, Note_on_c, 0, 69, 92
2, 63456, Note_on_c, 0, 72, 92
2, 63488, Note_on_c, 0, 69, 0
2, 63488, Note_on_c, 0, 72, 0
2, 63552, Note_on_c, 0, 67, 92
2, 63552, Note_on_c, 0, 71, 92
2, 63646, Note_on_c, 0, 67, 0
2, 63646, Note_on_c, 0, 71, 0
2, 63648, Note_on_c, 0, 71, 92
2, 63648, Note_on_c, 0, 79, 92
2, 63744, Note_on_c, 0, 71, 0
2, 63744, Note_on_c, 0, 79, 0
2, 63744, Note_on_c, 0, 69, 92
2, 63744, Note_on_c, 0, 78, 92
2, 63840, Note_on_c, 0, 69, 0
2, 63840, Note_on_c, 0, 78, 0
2, 63840, Note_on_c, 0, 67, 92
2, 63840, Note_on_c, 0, 76, 92
2, 63934, Note_on_c, 0, 67, 0
2, 63934, Note_on_c, 0, 76, 0
2, 63936, Note_on_c, 0, 66, 92
2, 63936, Note_on_c, 0, 74, 92
2, 64128, Note_on_c, 0, 66, 0
2, 64128, Note_on_c, 0, 74, 0
2, 64128, Note_on_c, 0, 64, 92
2, 64128, Note_on_c, 0, 73, 92
2, 64288, Note_on_c, 0, 64, 0
2, 64288, Note_on_c, 0, 73, 0
2, 64320, Note_on_c, 0, 66, 92
2, 64320, Note_on_c, 0, 74, 92
2, 64480, Note_on_c, 0, 66, 0
2, 64480, Note_on_c, 0, 74, 0
2, 64704, Note_on_c, 0, 76, 45
2, 64992, Note_on_c, 0, 76, 0
2, 64992, Note_on_c, 0, 73, 45
2, 65086, Note_on_c, 0, 73, 0
2, 65088, Note_on_c, 0, 74, 45
2, 65184, Note_on_c, 0, 74, 0
2, 65184, Note_on_c, 0, 78, 45
2, 65280, Note_on_c, 0, 78, 0
2, 65280, Note_on_c, 0, 81, 45
2, 65376, Note_on_c, 0, 81, 0
2, 65376, Note_on_c, 0, 78, 45
2, 65470, Note_on_c, 0, 78, 0
2, 65472, Note_on_c, 0, 76, 45
2, 65760, Note_on_c, 0, 76, 0
2, 65760, Note_on_c, 0, 73, 45
2, 65854, Note_on_c, 0, 73, 0
2, 65856, Note_on_c, 0, 74, 45
2, 66016, Note_on_c, 0, 74, 0
2, 66432, Note_on_c, 0, 69, 92
2, 66464, Note_on_c, 0, 69, 0
2, 66528, Note_on_c, 0, 69, 92
2, 66560, Note_on_c, 0, 69, 0
2, 66624, Note_on_c, 0, 79, 92
2, 66816, Note_on_c, 0, 79, 0
2, 66816, Note_on_c, 0, 69, 92
2, 66816, Note_on_c, 0, 78, 92
2, 66848, Note_on_c, 0, 69, 0
2, 66912, Note_on_c, 0, 69, 92
2, 66944, Note_on_c, 0, 69, 0
2, 66976, Note_on_c, 0, 78, 0
2, 67008, Note_on_c, 0, 69, 92
2, 67008, Note_on_c, 0, 76, 92
2, 67200, Note_on_c, 0, 69, 0
2, 67200, Note_on_c, 0, 76, 0
2, 67200, Note_on_c, 0, 68, 92
2, 67200, Note_on_c, 0, 74, 92
2, 67360, Note_on_c, 0, 68, 0
2, 67360, Note_on_c, 0, 74, 0
2, 67392, Note_on_c, 0, 69, 92
2, 67392, Note_on_c, 0, 73, 92
2, 67488, Note_on_c, 0, 73, 0
2, 67488, Note_on_c, 0, 76, 92
2, 67552, Note_on_c, 0, 69, 0
2, 67582, Note_on_c, 0, 76, 0
2, 67584, Note_on_c, 0, 69, 92
2, 67616, Note_on_c, 0, 69, 0
2, 67680, Note_on_c, 0, 69, 92
2, 67712, Note_on_c, 0, 69, 0
2, 67776, Note_on_c, 0, 69, 92
2, 67936, Note_on_c, 0, 69, 0
2, 67968, Note_on_c, 0, 69, 92
2, 68000, Note_on_c, 0, 69, 0
2, 68064, Note_on_c, 0, 69, 92
2, 68096, Note_on_c, 0, 69, 0
2, 68160, Note_on_c, 0, 69, 92
2, 68160, Note_on_c, 0, 79, 92
2, 68352, Note_on_c, 0, 69, 0
2, 68352, Note_on_c, 0, 79, 0
2, 68352, Note_on_c, 0, 69, 92
2, 68352, Note_on_c, 0, 78, 92
2, 68420, Note_on_c, 0, 69, 0
2, 68448, Note_on_c, 0, 69, 92
2, 68512, Note_on_c, 0, 78, 0
2, 68516, Note_on_c, 0, 69, 0
2, 68544, Note_on_c, 0, 69, 92
2, 68544, Note_on_c, 0, 76, 92
2, 68736, Note_on_c, 0, 69, 0
2, 68736, Note_on_c, 0, 76, 0
2, 68736, Note_on_c, 0, 68, 92
2, 68736, Note_on_c, 0, 74, 92
2, 68832, Note_on_c, 0, 74, 0
2, 68832, Note_on_c, 0, 71, 92
2, 68896, Note_on_c, 0, 68, 0
2, 68928, Note_on_c, 0, 71, 0
2, 68928, Note_on_c, 0, 69, 92
2, 69088, Note_on_c, 0, 69, 0
2, 69504, Note_on_c, 0, 66, 45
2, 69504, Note_on_c, 0, 69, 45
2, 69536, Note_on_c, 0, 66, 0
2, 69536, Note_on_c, 0, 69, 0
2, 69600, Note_on_c, 0, 66, 45
2, 69600, Note_on_c, 0, 69, 45
2, 69632, Note_on_c, 0, 66, 0
2, 69632, Note_on_c, 0, 69, 0
2, 69696, Note_on_c, 0, 66, 45
2, 69696, Note_on_c, 0, 70, 45
2, 69790, Note_on_c, 0, 66, 0
2, 69790, Note_on_c, 0, 70, 0
2, 69792, Note_on_c, 0, 67, 45
2, 69792, Note_on_c, 0, 71, 45
2, 69886, Note_on_c, 0, 67, 0
2, 69886, Note_on_c, 0, 71, 0
2, 70272, Note_on_c, 0, 67, 45
2, 70272, Note_on_c, 0, 73, 45
2, 70304, Note_on_c, 0, 67, 0
2, 70304, Note_on_c, 0, 73, 0
2, 70368, Note_on_c, 0, 67, 45
2, 70368, Note_on_c, 0, 73, 45
2, 70400, Note_on_c, 0, 67, 0
2, 70400, Note_on_c, 0, 73, 0
2, 70464, Note_on_c, 0, 67, 45
2, 70464, Note_on_c, 0, 76, 45
2, 70560, Note_on_c, 0, 67, 0
2, 70560, Note_on_c, 0, 76, 0
2, 70560, Note_on_c, 0, 66, 45
2, 70560, Note_on_c, 0, 74, 45
2, 70654, Note_on_c, 0, 66, 0
2, 70654, Note_on_c, 0, 74, 0
2, 71040, Note_on_c, 0, 69, 92
2, 71040, Note_on_c, 0, 72, 92
2, 71072, Note_on_c, 0, 69, 0
2, 71072, Note_on_c, 0, 72, 0
2, 71136, Note_on_c, 0, 69, 92
2, 71136, Note_on_c, 0, 72, 92
2, 71168, Note_on_c, 0, 69, 0
2, 71168, Note_on_c, 0, 72, 0
2, 71232, Note_on_c, 0, 67, 92
2, 71232, Note_on_c, 0, 71, 92
2, 71326, Note_on_c, 0, 67, 0
2, 71326, Note_on_c, 0, 71, 0
2, 71328, Note_on_c, 0, 71, 92
2, 71328, Note_on_c, 0, 79, 92
2, 71424, Note_on_c, 0, 71, 0
2, 71424, Note_on_c, 0, 79, 0
2, 71424, Note_on_c, 0, 69, 92
2, 71424, Note_on_c, 0, 78, 92
2, 71520, Note_on_c, 0, 69, 0
2, 71520, Note_on_c, 0, 78, 0
2, 71520, Note_on_c, 0, 67, 92
2, 71520, Note_on_c, 0, 76, 92
2, 71614, Note_on_c, 0, 67, 0
2, 71614, Note_on_c, 0, 76, 0
2, 71616, Note_on_c, 0, 66, 92
2, 71616, Note_on_c, 0, 74, 92
2, 71808, Note_on_c, 0, 66, 0
2, 71808, Note_on_c, 0, 74, 0
2, 71808, Note_on_c, 0, 64, 92
2, 71808, Note_on_c, 0, 73, 92
2, 71968, Note_on_c, 0, 64, 0
2, 71968, Note_on_c, 0, 73, 0
2, 72000, Note_on_c, 0, 66, 92
2, 72000, Note_on_c, 0, 74, 92
2, 72160, Note_on_c, 0, 66, 0
2, 72160, Note_on_c, 0, 74, 0
2, 72384, Note_on_c, 0, 76, 45
2, 72672, Note_on_c, 0, 76, 0
2, 72672, Note_on_c, 0, 73, 45
2, 72766, Note_on_c, 0, 73, 0
2, 72768, Note_on_c, 0, 74, 45
2, 72864, Note_on_c, 0, 74, 0
2, 72864, Note_on_c, 0, 78, 45
2, 72960, Note_on_c, 0, 78, 0
2, 72960, Note_on_c, 0, 81, 45
2, 73056, Note_on_c, 0, 81, 0
2, 73056, Note_on_c, 0, 78, 45
2, 73150, Note_on_c, 0, 78, 0
2, 73152, Note_on_c, 0, 76, 45
2, 73440, Note_on_c, 0, 76, 0
2, 73440, Note_on_c, 0, 73, 45
2, 73534, Note_on_c, 0, 73, 0
2, 73536, Note_on_c, 0, 74, 45
2, 73696, Note_on_c, 0, 74, 0
2, 73920, Note_on_c, 0, 64, 45
2, 73920, Note_on_c, 0, 73, 45
2, 74016, Note_on_c, 0, 64, 0
2, 74016, Note_on_c, 0, 66, 45
2, 74112, Note_on_c, 0, 66, 0
2, 74112, Note_on_c, 0, 64, 45
2, 74176, Note_on_c, 0, 73, 0
2, 74208, Note_on_c, 0, 64, 0
2, 74208, Note_on_c, 0, 66, 45
2, 74208, Note_on_c, 0, 70, 45
2, 74302, Note_on_c, 0, 66, 0
2, 74302, Note_on_c, 0, 70, 0
2, 74304, Note_on_c, 0, 62, 45
2, 74304, Note_on_c, 0, 71, 45
2, 74464, Note_on_c, 0, 62, 0
2, 74464, Note_on_c, 0, 71, 0
2, 74688, Note_on_c, 0, 62, 45
2, 74688, Note_on_c, 0, 71, 45
2, 74784, Note_on_c, 0, 62, 0
2, 74784, Note_on_c, 0, 64, 45
2, 74880, Note_on_c, 0, 64, 0
2, 74880, Note_on_c, 0, 62, 45
2, 74944, Note_on_c, 0, 71, 0
2, 74976, Note_on_c, 0, 62, 0
2, 74976, Note_on_c, 0, 64, 45
2, 74976, Note_on_c, 0, 68, 45
2, 75070, Note_on_c, 0, 64, 0
2, 75070, Note_on_c, 0, 68, 0
2, 75072, Note_on_c, 0, 61, 45
2, 75072, Note_on_c, 0, 69, 45
2, 75232, Note_on_c, 0, 61, 0
2, 75232, Note_on_c, 0, 69, 0
2, 75456, Note_on_c, 0, 73, 92
2, 75456, Note_on_c, 0, 81, 92
2, 75616, Note_on_c, 0, 73, 0
2, 75616, Note_on_c, 0, 81, 0
2, 75840, Note_on_c, 0, 69, 92
2, 75840, Note_on_c, 0, 75, 92
2, 76000, Note_on_c, 0, 69, 0
2, 76000, Note_on_c, 0, 75, 0
2, 76224, Note_on_c, 0, 76, 45
2, 76320, Note_on_c, 0, 68, 45
2, 76416, Note_on_c, 0, 68, 0
2, 76416, Note_on_c, 0, 69, 45
2, 76512, Note_on_c, 0, 69, 0
2, 76512, Note_on_c, 0, 71, 45
2, 76606, Note_on_c, 0, 71, 0
2, 76608, Note_on_c, 0, 72, 45
2, 76702, Note_on_c, 0, 76, 0
2, 76704, Note_on_c, 0, 77, 45
2, 76798, Note_on_c, 0, 77, 0
2, 76800, Note_on_c, 0, 76, 45
2, 76894, Note_on_c, 0, 76, 0
2, 76896, Note_on_c, 0, 75, 45
2, 76990, Note_on_c, 0, 75, 0
2, 76992, Note_on_c, 0, 76, 45
2, 77086, Note_on_c, 0, 72, 0
2, 77088, Note_on_c, 0, 68, 45
2, 77184, Note_on_c, 0, 68, 0
2, 77184, Note_on_c, 0, 69, 45
2, 77280, Note_on_c, 0, 69, 0
2, 77280, Note_on_c, 0, 71, 45
2, 77374, Note_on_c, 0, 71, 0
2, 77376, Note_on_c, 0, 72, 45
2, 77470, Note_on_c, 0, 76, 0
2, 77472, Note_on_c, 0, 77, 45
2, 77566, Note_on_c, 0, 77, 0
2, 77568, Note_on_c, 0, 76, 45
2, 77662, Note_on_c, 0, 76, 0
2, 77664, Note_on_c, 0, 75, 45
2, 77758, Note_on_c, 0, 75, 0
2, 77760, Note_on_c, 0, 76, 45
2, 77854, Note_on_c, 0, 72, 0
2, 77856, Note_on_c, 0, 68, 45
2, 77950, Note_on_c, 0, 68, 0
2, 77952, Note_on_c, 0, 69, 45
2, 78046, Note_on_c, 0, 69, 0
2, 78048, Note_on_c, 0, 71, 45
2, 78142, Note_on_c, 0, 71, 0
2, 78144, Note_on_c, 0, 72, 45
2, 78238, Note_on_c, 0, 76, 0
2, 78240, Note_on_c, 0, 77, 63
2, 78334, Note_on_c, 0, 77, 0
2, 78336, Note_on_c, 0, 76, 45
2, 78430, Note_on_c, 0, 76, 0
2, 78432, Note_on_c, 0, 75, 45
2, 78480, Note_on_c, 0, 72, 0
2, 78526, Note_on_c, 0, 75, 0
2, 78528, Note_on_c, 0, 76, 45
2, 78624, Note_on_c, 0, 70, 45
2, 78720, Note_on_c, 0, 70, 0
2, 78720, Note_on_c, 0, 71, 45
2, 78816, Note_on_c, 0, 71, 0
2, 78816, Note_on_c, 0, 72, 45
2, 78910, Note_on_c, 0, 72, 0
2, 78912, Note_on_c, 0, 74, 45
2, 79008, Note_on_c, 0, 74, 0
2, 79008, Note_on_c, 0, 73, 45
2, 79104, Note_on_c, 0, 73, 0
2, 79104, Note_on_c, 0, 74, 45
2, 79200, Note_on_c, 0, 74, 0
2, 79200, Note_on_c, 0, 73, 45
2, 79294, Note_on_c, 0, 73, 0
2, 79296, Note_on_c, 0, 74, 45
2, 79390, Note_on_c, 0, 76, 0
2, 79392, Note_on_c, 0, 78, 50
2, 79456, Note_on_c, 0, 74, 0
2, 79486, Note_on_c, 0, 78, 0
2, 79488, Note_on_c, 0, 74, 56
2, 79488, Note_on_c, 0, 80, 56
2, 79582, Note_on_c, 0, 80, 0
2, 79584, Note_on_c, 0, 81, 62
2, 79648, Note_on_c, 0, 74, 0
2, 79678, Note_on_c, 0, 81, 0
2, 79680, Note_on_c, 0, 74, 68
2, 79680, Note_on_c, 0, 80, 68
2, 79776, Note_on_c, 0, 80, 0
2, 79776, Note_on_c, 0, 81, 74
2, 79840, Note_on_c, 0, 74, 0
2, 79872, Note_on_c, 0, 81, 0
2, 79872, Note_on_c, 0, 74, 80
2, 79872, Note_on_c, 0, 80, 80
2, 79968, Note_on_c, 0, 80, 0
2, 79968, Note_on_c, 0, 81, 86
2, 80032, Note_on_c, 0, 74, 0
2, 80062, Note_on_c, 0, 81, 0
2, 80064, Note_on_c, 0, 74, 92
2, 80064, Note_on_c, 0, 80, 92
2, 80976, Note_on_c, 0, 74, 0
2, 80976, Note_on_c, 0, 80, 0
2, 81024, Note_on_c, 0, 76, 45
2, 81120, Note_on_c, 0, 76, 0
2, 81120, Note_on_c, 0, 73, 45
2, 81216, Note_on_c, 0, 73, 0
2, 81216, Note_on_c, 0, 71, 45
2, 81312, Note_on_c, 0, 71, 0
2, 81312, Note_on_c, 0, 69, 45
2, 81406, Note_on_c, 0, 69, 0
2, 81408, Note_on_c, 0, 78, 45
2, 81504, Note_on_c, 0, 78, 0
2, 81504, Note_on_c, 0, 74, 45
2, 81600, Note_on_c, 0, 74, 0
2, 81600, Note_on_c, 0, 73, 45
2, 81696, Note_on_c, 0, 73, 0
2, 81696, Note_on_c, 0, 71, 45
2, 81790, Note_on_c, 0, 71, 0
2, 81792, Note_on_c, 0, 74, 45
2, 81888, Note_on_c, 0, 74, 0
2, 81888, Note_on_c, 0, 71, 45
2, 81984, Note_on_c, 0, 71, 0
2, 81984, Note_on_c, 0, 69, 45
2, 82080, Note_on_c, 0, 69, 0
2, 82080, Note_on_c, 0, 68, 45
2, 82174, Note_on_c, 0, 68, 0
2, 82176, Note_on_c, 0, 71, 45
2, 82272, Note_on_c, 0, 71, 0
2, 82272, Note_on_c, 0, 76, 45
2, 82366, Note_on_c, 0, 76, 0
2, 82368, Note_on_c, 0, 71, 45
2, 82368, Note_on_c, 0, 74, 45
2, 82464, Note_on_c, 0, 71, 0
2, 82464, Note_on_c, 0, 74, 0
2, 82464, Note_on_c, 0, 69, 45
2, 82464, Note_on_c, 0, 73, 45
2, 82558, Note_on_c, 0, 69, 0
2, 82558, Note_on_c, 0, 73, 0
2, 82656, Note_on_c, 0, 74, 45
2, 82846, Note_on_c, 0, 74, 0
2, 82848, Note_on_c, 0, 73, 63
2, 83040, Note_on_c, 0, 73, 0
2, 83040, Note_on_c, 0, 71, 82
2, 83134, Note_on_c, 0, 71, 0
2, 83136, Note_on_c, 0, 68, 92
2, 83136, Note_on_c, 0, 78, 92
2, 83296, Note_on_c, 0, 68, 0
2, 83296, Note_on_c, 0, 78, 0
2, 83424, Note_on_c, 0, 69, 92
2, 83424, Note_on_c, 0, 76, 92
2, 83456, Note_on_c, 0, 69, 0
2, 83456, Note_on_c, 0, 76, 0
2, 83520, Note_on_c, 0, 73, 92
2, 83520, Note_on_c, 0, 76, 92
2, 83568, Note_on_c, 0, 73, 0
2, 83568, Note_on_c, 0, 76, 0
2, 83568, Note_on_c, 0, 71, 92
2, 83568, Note_on_c, 0, 74, 92
2, 83614, Note_on_c, 0, 71, 0
2, 83614, Note_on_c, 0, 74, 0
2, 83616, Note_on_c, 0, 69, 92
2, 83616, Note_on_c, 0, 73, 92
2, 83808, Note_on_c, 0, 69, 0
2, 83808, Note_on_c, 0, 73, 0
2, 83808, Note_on_c, 0, 68, 92
2, 83808, Note_on_c, 0, 71, 92
2, 83902, Note_on_c, 0, 68, 0
2, 83902, Note_on_c, 0, 71, 0
2, 83904, Note_on_c, 0, 68, 92
2, 83904, Note_on_c, 0, 72, 92
2, 83998, Note_on_c, 0, 68, 0
2, 83998, Note_on_c, 0, 72, 0
2, 84000, Note_on_c, 0, 69, 92
2, 84000, Note_on_c, 0, 73, 92
2, 84094, Note_on_c, 0, 69, 0
2, 84094, Note_on_c, 0, 73, 0
2, 84096, Note_on_c, 0, 69, 92
2, 84192, Note_on_c, 0, 74, 92
2, 84256, Note_on_c, 0, 69, 0
2, 84288, Note_on_c, 0, 68, 92
2, 84384, Note_on_c, 0, 74, 0
2, 84384, Note_on_c, 0, 73, 92
2, 84480, Note_on_c, 0, 68, 0
2, 84480, Note_on_c, 0, 66, 92
2, 84574, Note_on_c, 0, 73, 0
2, 84576, Note_on_c, 0, 71, 92
2, 84670, Note_on_c, 0, 66, 0
2, 84670, Note_on_c, 0, 71, 0
2, 84672, Note_on_c, 0, 64, 92
2, 84672, Note_on_c, 0, 68, 92
2, 84768, Note_on_c, 0, 64, 0
2, 84768, Note_on_c, 0, 68, 0
2, 84768, Note_on_c, 0, 66, 92
2, 84816, Note_on_c, 0, 66, 0
2, 84816, Note_on_c, 0, 68, 92
2, 84864, Note_on_c, 0, 68, 0
2, 84864, Note_on_c, 0, 69, 92
2, 84912, Note_on_c, 0, 69, 0
2, 84912, Note_on_c, 0, 71, 92
2, 84960, Note_on_c, 0, 71, 0
2, 84960, Note_on_c, 0, 73, 92
2, 85008, Note_on_c, 0, 73, 0
2, 85008, Note_on_c, 0, 74, 92
2, 85056, Note_on_c, 0, 74, 0
2, 85056, Note_on_c, 0, 76, 92
2, 85056, Note_on_c, 0, 81, 92
2, 85088, Note_on_c, 0, 76, 0
2, 85088, Note_on_c, 0, 81, 0
2, 85152, Note_on_c, 0, 74, 92
2, 85152, Note_on_c, 0, 78, 92
2, 85200, Note_on_c, 0, 74, 0
2, 85200, Note_on_c, 0, 78, 0
2, 85200, Note_on_c, 0, 71, 92
2, 85200, Note_on_c, 0, 74, 92
2, 85246, Note_on_c, 0, 71, 0
2, 85246, Note_on_c, 0, 74, 0
2, 85248, Note_on_c, 0, 69, 92
2, 85248, Note_on_c, 0, 73, 92
2, 85344, Note_on_c, 0, 69, 0
2, 85344, Note_on_c, 0, 73, 0
2, 85344, Note_on_c, 0, 68, 92
2, 85344, Note_on_c, 0, 71, 92
2, 85438, Note_on_c, 0, 68, 0
2, 85438, Note_on_c, 0, 71, 0
2, 85440, Note_on_c, 0, 69, 92
2, 85534, Note_on_c, 0, 69, 0
2, 85632, Note_on_c, 0, 76, 45
2, 85728, Note_on_c, 0, 76, 0
2, 85728, Note_on_c, 0, 73, 45
2, 85824, Note_on_c, 0, 73, 0
2, 85824, Note_on_c, 0, 71, 45
2, 85920, Note_on_c, 0, 71, 0
2, 85920, Note_on_c, 0, 69, 45
2, 86014, Note_on_c, 0, 69, 0
2, 86016, Note_on_c, 0, 78, 45
2, 86112, Note_on_c, 0, 78, 0
2, 86112, Note_on_c, 0, 74, 45
2, 86208, Note_on_c, 0, 74, 0
2, 86208, Note_on_c, 0, 73, 45
2, 86304, Note_on_c, 0, 73, 0
2, 86304, Note_on_c, 0, 71, 45
2, 86398, Note_on_c, 0, 71, 0
2, 86400, Note_on_c, 0, 74, 45
2, 86496, Note_on_c, 0, 74, 0
2, 86496, Note_on_c, 0, 71, 45
2, 86592, Note_on_c, 0, 71, 0
2, 86592, Note_on_c, 0, 68, 45
2, 86686, Note_on_c, 0, 68, 0
2, 86688, Note_on_c, 0, 68, 45
2, 86720, Note_on_c, 0, 68, 0
2, 86784, Note_on_c, 0, 68, 45
2, 86816, Note_on_c, 0, 68, 0
2, 86880, Note_on_c, 0, 68, 45
2, 86912, Note_on_c, 0, 68, 0
2, 86976, Note_on_c, 0, 69, 45
2, 87136, Note_on_c, 0, 69, 0
2, 87168, Note_on_c, 0, 69, 92
2, 87200, Note_on_c, 0, 69, 0
2, 87264, Note_on_c, 0, 69, 92
2, 87296, Note_on_c, 0, 69, 0
2, 87360, Note_on_c, 0, 69, 92
2, 87552, Note_on_c, 0, 69, 0
2, 87552, Note_on_c, 0, 69, 92
2, 87552, Note_on_c, 0, 74, 92
2, 87620, Note_on_c, 0, 69, 0
2, 87648, Note_on_c, 0, 69, 92
2, 87712, Note_on_c, 0, 74, 0
2, 87716, Note_on_c, 0, 69, 0
2, 87744, Note_on_c, 0, 69, 92
2, 87744, Note_on_c, 0, 73, 92
2, 87936, Note_on_c, 0, 73, 0
2, 87936, Note_on_c, 0, 78, 92
2, 88128, Note_on_c, 0, 78, 0
2, 88128, Note_on_c, 0, 76, 92
2, 88320, Note_on_c, 0, 69, 0
2, 88320, Note_on_c, 0, 76, 0
2, 88320, Note_on_c, 0, 74, 92
2, 88320, Note_on_c, 0, 80, 92
2, 88480, Note_on_c, 0, 74, 0
2, 88480, Note_on_c, 0, 80, 0
2, 88512, Note_on_c, 0, 73, 92
2, 88512, Note_on_c, 0, 81, 92
2, 88608, Note_on_c, 0, 81, 0
2, 88608, Note_on_c, 0, 76, 92
2, 88672, Note_on_c, 0, 73, 0
2, 88702, Note_on_c, 0, 76, 0
2, 88704, Note_on_c, 0, 69, 92
2, 88736, Note_on_c, 0, 69, 0
2, 88800, Note_on_c, 0, 69, 92
2, 88832, Note_on_c, 0, 69, 0
2, 88896, Note_on_c, 0, 69, 92
2, 89088, Note_on_c, 0, 69, 0
2, 89088, Note_on_c, 0, 69, 92
2, 89088, Note_on_c, 0, 74, 92
2, 89156, Note_on_c, 0, 69, 0
2, 89184, Note_on_c, 0, 69, 92
2, 89248, Note_on_c, 0, 74, 0
2, 89252, Note_on_c, 0, 69, 0
2, 89280, Note_on_c, 0, 69, 92
2, 89280, Note_on_c, 0, 73, 92
2, 89472, Note_on_c, 0, 73, 0
2, 89472, Note_on_c, 0, 78, 92
2, 89664, Note_on_c, 0, 78, 0
2, 89664, Note_on_c, 0, 76, 92
2, 89856, Note_on_c, 0, 69, 0
2, 89856, Note_on_c, 0, 76, 0
2, 89856, Note_on_c, 0, 74, 92
2, 89856, Note_on_c, 0, 80, 92
2, 90016, Note_on_c, 0, 74, 0
2, 90016, Note_on_c, 0, 80, 0
2, 90048, Note_on_c, 0, 73, 92
2, 90048, Note_on_c, 0, 81, 92
2, 90208, Note_on_c, 0, 73, 0
2, 90208, Note_on_c, 0, 81, 0
2, 90240, Note_on_c, 0, 69, 45
2, 90272, Note_on_c, 0, 69, 0
2, 90336, Note_on_c, 0, 69, 45
2, 90368, Note_on_c, 0, 69, 0
2, 90432, Note_on_c, 0, 73, 45
2, 90432, Note_on_c, 0, 81, 45
2, 90816, Note_on_c, 0, 73, 0
2, 90816, Note_on_c, 0, 81, 0
2, 90816, Note_on_c, 0, 76, 45
2, 90816, Note_on_c, 0, 79, 45
2, 91200, Note_on_c, 0, 76, 0
2, 91200, Note_on_c, 0, 79, 0
2, 91200, Note_on_c, 0, 75, 45
2, 91200, Note_on_c, 0, 78, 45
2, 91584, Note_on_c, 0, 75, 0
2, 91584, Note_on_c, 0, 78, 0
2, 91584, Note_on_c, 0, 74, 45
2, 91584, Note_on_c, 0, 77, 45
2, 91968, Note_on_c, 0, 74, 0
2, 91968, Note_on_c, 0, 77, 0
2, 91968, Note_on_c, 0, 73, 45
2, 91968, Note_on_c, 0, 76, 45
2, 92352, Note_on_c, 0, 73, 0
2, 92352, Note_on_c, 0, 76, 0
2, 92352, Note_on_c, 0, 71, 45
2, 92352, Note_on_c, 0, 74, 45
2, 92736, Note_on_c, 0, 71, 0
2, 92736, Note_on_c, 0, 74, 0
2, 92736, Note_on_c, 0, 69, 45
2, 92736, Note_on_c, 0, 73, 45
2, 93120, Note_on_c, 0, 69, 0
2, 93120, Note_on_c, 0, 73, 0
2, 93120, Note_on_c, 0, 68, 45
2, 93120, Note_on_c, 0, 71, 45
2, 93504, Note_on_c, 0, 68, 0
2, 93504, Note_on_c, 0, 71, 0
2, 93504, Note_on_c, 0, 69, 45
2, 93664, Note_on_c, 0, 69, 0
2, 93696, Note_on_c, 0, 71, 92
2, 93696, Note_on_c, 0, 80, 92
2, 93744, Note_on_c, 0, 71, 0
2, 93744, Note_on_c, 0, 80, 0
2, 93888, Note_on_c, 0, 73, 92
2, 93888, Note_on_c, 0, 81, 92
2, 93936, Note_on_c, 0, 73, 0
2, 93936, Note_on_c, 0, 81, 0
2, 94080, Note_on_c, 0, 71, 92
2, 94080, Note_on_c, 0, 80, 92
2, 94128, Note_on_c, 0, 71, 0
2, 94128, Note_on_c, 0, 80, 0
2, 94272, Note_on_c, 0, 73, 92
2, 94272, Note_on_c, 0, 81, 92
2, 94432, Note_on_c, 0, 73, 0
2, 94432, Note_on_c, 0, 81, 0
2, 94464, Note_on_c, 0, 61, 92
2, 94464, Note_on_c, 0, 69, 92
2, 94606, Note_on_c, 0, 61, 0
2, 94606, Note_on_c, 0, 69, 0
2, 94608, Note_on_c, 0, 61, 92
2, 94608, Note_on_c, 0, 69, 92
2, 94654, Note_on_c, 0, 61, 0
2, 94654, Note_on_c, 0, 69, 0
2, 94656, Note_on_c, 0, 61, 92
2, 94656, Note_on_c, 0, 69, 92
2, 94816, Note_on_c, 0, 61, 0
2, 94816, Note_on_c, 0, 69, 0
2, 94816, End_track
3, 0, Start_track
3, 0, MIDI_port, 0
3, 0, Title_t, "Left Hand"
3, 0, Program_c, 1, 0
3, 0, Control_c, 1, 7, 127
3, 0, Control_c, 1, 10, 64
3, 192, Note_on_c, 1, 61, 45
3, 192, Note_on_c, 1, 64, 45
3, 352, Note_on_c, 1, 61, 0
3, 352, Note_on_c, 1, 64, 0
3, 576, Note_on_c, 1, 62, 45
3, 576, Note_on_c, 1, 66, 45
3, 736, Note_on_c, 1, 62, 0
3, 736, Note_on_c, 1, 66, 0
3, 960, Note_on_c, 1, 52, 45
3, 960, Note_on_c, 1, 59, 45
3, 1152, Note_on_c, 1, 52, 0
3, 1152, Note_on_c, 1, 59, 0
3, 1152, Note_on_c, 1, 56, 45
3, 1248, Note_on_c, 1, 56, 0
3, 1248, Note_on_c, 1, 52, 45
3, 1342, Note_on_c, 1, 52, 0
3, 1344, Note_on_c, 1, 57, 45
3, 1504, Note_on_c, 1, 57, 0
3, 1536, Note_on_c, 1, 57, 45
3, 1728, Note_on_c, 1, 57, 0
3, 1728, Note_on_c, 1, 56, 60
3, 1920, Note_on_c, 1, 56, 0
3, 1920, Note_on_c, 1, 54, 76
3, 2080, Note_on_c, 1, 54, 0
3, 2112, Note_on_c, 1, 51, 92
3, 2272, Note_on_c, 1, 51, 0
3, 2400, Note_on_c, 1, 52, 92
3, 2432, Note_on_c, 1, 52, 0
3, 2496, Note_on_c, 1, 57, 92
3, 2688, Note_on_c, 1, 57, 0
3, 2688, Note_on_c, 1, 59, 92
3, 2848, Note_on_c, 1, 59, 0
3, 2880, Note_on_c, 1, 52, 92
3, 3040, Note_on_c, 1, 52, 0
3, 3264, Note_on_c, 1, 61, 45
3, 3264, Note_on_c, 1, 64, 45
3, 3424, Note_on_c, 1, 61, 0
3, 3424, Note_on_c, 1, 64, 0
3, 3648, Note_on_c, 1, 62, 45
3, 3648, Note_on_c, 1, 66, 45
3, 3808, Note_on_c, 1, 62, 0
3, 3808, Note_on_c, 1, 66, 0
3, 4032, Note_on_c, 1, 52, 45
3, 4032, Note_on_c, 1, 59, 45
3, 4224, Note_on_c, 1, 52, 0
3, 4224, Note_on_c, 1, 59, 0
3, 4224, Note_on_c, 1, 56, 45
3, 4320, Note_on_c, 1, 56, 0
3, 4320, Note_on_c, 1, 52, 45
3, 4414, Note_on_c, 1, 52, 0
3, 4416, Note_on_c, 1, 57, 45
3, 4576, Note_on_c, 1, 57, 0
3, 4608, Note_on_c, 1, 57, 45
3, 4800, Note_on_c, 1, 57, 0
3, 4800, Note_on_c, 1, 56, 60
3, 4992, Note_on_c, 1, 56, 0
3, 4992, Note_on_c, 1, 54, 76
3, 5152, Note_on_c, 1, 54, 0
3, 5184, Note_on_c, 1, 51, 92
3, 5344, Note_on_c, 1, 51, 0
3, 5472, Note_on_c, 1, 52, 92
3, 5504, Note_on_c, 1, 52, 0
3, 5568, Note_on_c, 1, 57, 92
3, 5760, Note_on_c, 1, 57, 0
3, 5760, Note_on_c, 1, 59, 92
3, 5920, Note_on_c, 1, 59, 0
3, 5952, Note_on_c, 1, 52, 92
3, 6112, Note_on_c, 1, 52, 0
3, 6528, Note_on_c, 1, 64, 75
3, 6560, Note_on_c, 1, 64, 0
3, 6624, Note_on_c, 1, 64, 75
3, 6656, Note_on_c, 1, 64, 0
3, 6720, Note_on_c, 1, 64, 75
3, 6816, Note_on_c, 1, 64, 0
3, 6816, Note_on_c, 1, 62, 75
3, 6910, Note_on_c, 1, 62, 0
3, 7296, Note_on_c, 1, 62, 75
3, 7328, Note_on_c, 1, 62, 0
3, 7392, Note_on_c, 1, 62, 75
3, 7424, Note_on_c, 1, 62, 0
3, 7488, Note_on_c, 1, 62, 75
3, 7584, Note_on_c, 1, 62, 0
3, 7584, Note_on_c, 1, 61, 75
3, 7678, Note_on_c, 1, 61, 0
3, 7680, Note_on_c, 1, 49, 75
3, 7680, Note_on_c, 1, 57, 75
3, 7872, Note_on_c, 1, 49, 0
3, 7872, Note_on_c, 1, 57, 0
3, 7872, Note_on_c, 1, 50, 75
3, 8064, Note_on_c, 1, 50, 0
3, 8064, Note_on_c, 1, 52, 75
3, 8256, Note_on_c, 1, 52, 0
3, 8256, Note_on_c, 1, 54, 75
3, 8416, Note_on_c, 1, 54, 0
3, 8448, Note_on_c, 1, 47, 75
3, 8608, Note_on_c, 1, 47, 0
3, 8640, Note_on_c, 1, 49, 75
3, 8832, Note_on_c, 1, 49, 0
3, 8832, Note_on_c, 1, 50, 75
3, 8992, Note_on_c, 1, 50, 0
3, 9024, Note_on_c, 1, 52, 75
3, 9184, Note_on_c, 1, 52, 0
3, 9216, Note_on_c, 1, 52, 75
3, 9216, Note_on_c, 1, 56, 75
3, 9264, Note_on_c, 1, 52, 0
3, 9264, Note_on_c, 1, 56, 0
3, 9264, Note_on_c, 1, 59, 75
3, 9312, Note_on_c, 1, 59, 0
3, 9312, Note_on_c, 1, 52, 75
3, 9312, Note_on_c, 1, 56, 75
3, 9360, Note_on_c, 1, 52, 0
3, 9360, Note_on_c, 1, 56, 0
3, 9360, Note_on_c, 1, 59, 75
3, 9406, Note_on_c, 1, 59, 0
3, 9408, Note_on_c, 1, 52, 75
3, 9408, Note_on_c, 1, 57, 75
3, 9456, Note_on_c, 1, 52, 0
3, 9456, Note_on_c, 1, 57, 0
3, 9456, Note_on_c, 1, 59, 75
3, 9504, Note_on_c, 1, 59, 0
3, 9504, Note_on_c, 1, 52, 75
3, 9504, Note_on_c, 1, 57, 75
3, 9552, Note_on_c, 1, 52, 0
3, 9552, Note_on_c, 1, 57, 0
3, 9552, Note_on_c, 1, 59, 75
3, 9600, Note_on_c, 1, 59, 0
3, 9600, Note_on_c, 1, 52, 75
3, 9600, Note_on_c, 1, 57, 75
3, 9648, Note_on_c, 1, 52, 0
3, 9648, Note_on_c, 1, 57, 0
3, 9648, Note_on_c, 1, 59, 75
3, 9696, Note_on_c, 1, 59, 0
3, 9696, Note_on_c, 1, 52, 75
3, 9696, Note_on_c, 1, 57, 75
3, 9744, Note_on_c, 1, 52, 0
3, 9744, Note_on_c, 1, 57, 0
3, 9744, Note_on_c, 1, 59, 75
3, 9790, Note_on_c, 1, 59, 0
3, 9792, Note_on_c, 1, 52, 75
3, 9792, Note_on_c, 1, 56, 75
3, 9840, Note_on_c, 1, 52, 0
3, 9840, Note_on_c, 1, 56, 0
3, 9840, Note_on_c, 1, 59, 75
3, 9888, Note_on_c, 1, 59, 0
3, 9888, Note_on_c, 1, 52, 75
3, 9888, Note_on_c, 1, 56, 75
3, 9936, Note_on_c, 1, 52, 0
3, 9936, Note_on_c, 1, 56, 0
3, 9936, Note_on_c, 1, 59, 75
3, 9984, Note_on_c, 1, 59, 0
3, 9984, Note_on_c, 1, 52, 75
3, 9984, Note_on_c, 1, 56, 75
3, 10032, Note_on_c, 1, 52, 0
3, 10032, Note_on_c, 1, 56, 0
3, 10032, Note_on_c, 1, 59, 75
3, 10080, Note_on_c, 1, 59, 0
3, 10080, Note_on_c, 1, 52, 75
3, 10080, Note_on_c, 1, 56, 75
3, 10128, Note_on_c, 1, 52, 0
3, 10128, Note_on_c, 1, 56, 0
3, 10128, Note_on_c, 1, 59, 75
3, 10174, Note_on_c, 1, 59, 0
3, 10176, Note_on_c, 1, 52, 75
3, 10176, Note_on_c, 1, 57, 75
3, 10224, Note_on_c, 1, 52, 0
3, 10224, Note_on_c, 1, 57, 0
3, 10224, Note_on_c, 1, 59, 75
3, 10272, Note_on_c, 1, 59, 0
3, 10272, Note_on_c, 1, 52, 75
3, 10272, Note_on_c, 1, 57, 75
3, 10320, Note_on_c, 1, 52, 0
3, 10320, Note_on_c, 1, 57, 0
3, 10320, Note_on_c, 1, 59, 75
3, 10368, Note_on_c, 1, 59, 0
3, 10368, Note_on_c, 1, 52, 75
3, 10368, Note_on_c, 1, 57, 75
3, 10416, Note_on_c, 1, 52, 0
3, 10416, Note_on_c, 1, 57, 0
3, 10416, Note_on_c, 1, 59, 75
3, 10464, Note_on_c, 1, 59, 0
3, 10464, Note_on_c, 1, 52, 75
3, 10464, Note_on_c, 1, 57, 75
3, 10512, Note_on_c, 1, 52, 0
3, 10512, Note_on_c, 1, 57, 0
3, 10512, Note_on_c, 1, 59, 75
3, 10558, Note_on_c, 1, 59, 0
3, 10560, Note_on_c, 1, 52, 75
3, 10560, Note_on_c, 1, 56, 75
3, 10608, Note_on_c, 1, 52, 0
3, 10608, Note_on_c, 1, 56, 0
3, 10608, Note_on_c, 1, 59, 75
3, 10656, Note_on_c, 1, 59, 0
3, 10656, Note_on_c, 1, 52, 75
3, 10656, Note_on_c, 1, 56, 75
3, 10704, Note_on_c, 1, 52, 0
3, 10704, Note_on_c, 1, 56, 0
3, 10704, Note_on_c, 1, 59, 75
3, 10752, Note_on_c, 1, 59, 0
3, 10752, Note_on_c, 1, 52, 75
3, 10752, Note_on_c, 1, 56, 75
3, 10800, Note_on_c, 1, 52, 0
3, 10800, Note_on_c, 1, 56, 0
3, 10800, Note_on_c, 1, 59, 75
3, 10848, Note_on_c, 1, 59, 0
3, 10848, Note_on_c, 1, 52, 75
3, 10848, Note_on_c, 1, 56, 75
3, 10896, Note_on_c, 1, 52, 0
3, 10896, Note_on_c, 1, 56, 0
3, 10896, Note_on_c, 1, 59, 75
3, 10942, Note_on_c, 1, 59, 0
3, 10944, Note_on_c, 1, 52, 75
3, 10944, Note_on_c, 1, 57, 75
3, 10992, Note_on_c, 1, 52, 0
3, 10992, Note_on_c, 1, 57, 0
3, 10992, Note_on_c, 1, 59, 75
3, 11040, Note_on_c, 1, 59, 0
3, 11040, Note_on_c, 1, 52, 75
3, 11040, Note_on_c, 1, 57, 75
3, 11088, Note_on_c, 1, 52, 0
3, 11088, Note_on_c, 1, 57, 0
3, 11088, Note_on_c, 1, 59, 75
3, 11136, Note_on_c, 1, 59, 0
3, 11136, Note_on_c, 1, 52, 75
3, 11136, Note_on_c, 1, 57, 75
3, 11184, Note_on_c, 1, 52, 0
3, 11184, Note_on_c, 1, 57, 0
3, 11184, Note_on_c, 1, 59, 75
3, 11232, Note_on_c, 1, 59, 0
3, 11232, Note_on_c, 1, 52, 75
3, 11232, Note_on_c, 1, 57, 75
3, 11280, Note_on_c, 1, 52, 0
3, 11280, Note_on_c, 1, 57, 0
3, 11280, Note_on_c, 1, 59, 75
3, 11326, Note_on_c, 1, 59, 0
3, 11328, Note_on_c, 1, 52, 75
3, 11328, Note_on_c, 1, 56, 75
3, 11488, Note_on_c, 1, 52, 0
3, 11488, Note_on_c, 1, 56, 0
3, 12480, Note_on_c, 1, 61, 45
3, 12480, Note_on_c, 1, 64, 45
3, 12640, Note_on_c, 1, 61, 0
3, 12640, Note_on_c, 1, 64, 0
3, 12864, Note_on_c, 1, 62, 45
3, 12864, Note_on_c, 1, 66, 45
3, 13024, Note_on_c, 1, 62, 0
3, 13024, Note_on_c, 1, 66, 0
3, 13248, Note_on_c, 1, 52, 45
3, 13248, Note_on_c, 1, 59, 45
3, 13440, Note_on_c, 1, 52, 0
3, 13440, Note_on_c, 1, 59, 0
3, 13440, Note_on_c, 1, 56, 45
3, 13536, Note_on_c, 1, 56, 0
3, 13536, Note_on_c, 1, 52, 45
3, 13630, Note_on_c, 1, 52, 0
3, 13632, Note_on_c, 1, 57, 45
3, 13792, Note_on_c, 1, 57, 0
3, 13824, Note_on_c, 1, 66, 45
3, 13824, Note_on_c, 1, 69, 45
3, 14016, Note_on_c, 1, 66, 0
3, 14016, Note_on_c, 1, 69, 0
3, 14016, Note_on_c, 1, 64, 60
3, 14016, Note_on_c, 1, 68, 60
3, 14208, Note_on_c, 1, 64, 0
3, 14208, Note_on_c, 1, 68, 0
3, 14208, Note_on_c, 1, 63, 76
3, 14208, Note_on_c, 1, 66, 76
3, 14400, Note_on_c, 1, 63, 0
3, 14400, Note_on_c, 1, 66, 0
3, 14400, Note_on_c, 1, 62, 92
3, 14560, Note_on_c, 1, 62, 0
3, 14688, Note_on_c, 1, 49, 92
3, 14720, Note_on_c, 1, 49, 0
3, 14784, Note_on_c, 1, 50, 92
3, 14976, Note_on_c, 1, 50, 0
3, 14976, Note_on_c, 1, 52, 92
3, 15136, Note_on_c, 1, 52, 0
3, 15168, Note_on_c, 1, 57, 92
3, 15328, Note_on_c, 1, 57, 0
3, 15360, Note_on_c, 1, 54, 92
3, 15552, Note_on_c, 1, 54, 0
3, 15552, Note_on_c, 1, 52, 92
3, 15744, Note_on_c, 1, 52, 0
3, 15744, Note_on_c, 1, 51, 92
3, 15904, Note_on_c, 1, 51, 0
3, 15936, Note_on_c, 1, 50, 92
3, 16320, Note_on_c, 1, 50, 0
3, 16320, Note_on_c, 1, 49, 92
3, 16414, Note_on_c, 1, 49, 0
3, 16416, Note_on_c, 1, 50, 92
3, 16510, Note_on_c, 1, 50, 0
3, 16512, Note_on_c, 1, 52, 92
3, 16606, Note_on_c, 1, 52, 0
3, 16608, Note_on_c, 1, 52, 92
3, 16702, Note_on_c, 1, 52, 0
3, 16704, Note_on_c, 1, 45, 92
3, 16798, Note_on_c, 1, 45, 0
3, 17088, Note_on_c, 1, 49, 45
3, 17088, Note_on_c, 1, 52, 45
3, 17182, Note_on_c, 1, 49, 0
3, 17182, Note_on_c, 1, 52, 0
3, 17472, Note_on_c, 1, 50, 45
3, 17472, Note_on_c, 1, 54, 45
3, 17566, Note_on_c, 1, 50, 0
3, 17566, Note_on_c, 1, 54, 0
3, 17856, Note_on_c, 1, 52, 45
3, 17856, Note_on_c, 1, 59, 45
3, 17904, Note_on_c, 1, 52, 0
3, 17904, Note_on_c, 1, 59, 0
3, 17904, Note_on_c, 1, 62, 45
3, 17952, Note_on_c, 1, 62, 0
3, 17952, Note_on_c, 1, 52, 45
3, 17952, Note_on_c, 1, 59, 45
3, 18000, Note_on_c, 1, 52, 0
3, 18000, Note_on_c, 1, 59, 0
3, 18000, Note_on_c, 1, 62, 45
3, 18048, Note_on_c, 1, 62, 0
3, 18048, Note_on_c, 1, 52, 45
3, 18048, Note_on_c, 1, 59, 45
3, 18096, Note_on_c, 1, 52, 0
3, 18096, Note_on_c, 1, 59, 0
3, 18096, Note_on_c, 1, 62, 45
3, 18144, Note_on_c, 1, 62, 0
3, 18144, Note_on_c, 1, 52, 45
3, 18144, Note_on_c, 1, 59, 45
3, 18192, Note_on_c, 1, 52, 0
3, 18192, Note_on_c, 1, 59, 0
3, 18192, Note_on_c, 1, 62, 45
3, 18238, Note_on_c, 1, 62, 0
3, 18240, Note_on_c, 1, 57, 45
3, 18240, Note_on_c, 1, 61, 45
3, 18400, Note_on_c, 1, 57, 0
3, 18400, Note_on_c, 1, 61, 0
3, 18816, Note_on_c, 1, 64, 75
3, 18848, Note_on_c, 1, 64, 0
3, 18912, Note_on_c, 1, 64, 75
3, 18944, Note_on_c, 1, 64, 0
3, 19008, Note_on_c, 1, 64, 75
3, 19104, Note_on_c, 1, 64, 0
3, 19104, Note_on_c, 1, 62, 75
3, 19198, Note_on_c, 1, 62, 0
3, 19584, Note_on_c, 1, 62, 75
3, 19616, Note_on_c, 1, 62, 0
3, 19680, Note_on_c, 1, 62, 75
3, 19712, Note_on_c, 1, 62, 0
3, 19776, Note_on_c, 1, 62, 75
3, 19872, Note_on_c, 1, 62, 0
3, 19872, Note_on_c, 1, 61, 75
3, 19966, Note_on_c, 1, 61, 0
3, 19968, Note_on_c, 1, 49, 75
3, 19968, Note_on_c, 1, 57, 75
3, 20160, Note_on_c, 1, 49, 0
3, 20160, Note_on_c, 1, 57, 0
3, 20160, Note_on_c, 1, 50, 75
3, 20352, Note_on_c, 1, 50, 0
3, 20352, Note_on_c, 1, 52, 75
3, 20544, Note_on_c, 1, 52, 0
3, 20544, Note_on_c, 1, 54, 75
3, 20704, Note_on_c, 1, 54, 0
3, 20736, Note_on_c, 1, 47, 75
3, 20896, Note_on_c, 1, 47, 0
3, 20928, Note_on_c, 1, 49, 75
3, 21120, Note_on_c, 1, 49, 0
3, 21120, Note_on_c, 1, 50, 75
3, 21280, Note_on_c, 1, 50, 0
3, 21312, Note_on_c, 1, 52, 75
3, 21472, Note_on_c, 1, 52, 0
3, 21504, Note_on_c, 1, 52, 75
3, 21504, Note_on_c, 1, 56, 75
3, 21552, Note_on_c, 1, 52, 0
3, 21552, Note_on_c, 1, 56, 0
3, 21552, Note_on_c, 1, 59, 75
3, 21600, Note_on_c, 1, 59, 0
3, 21600, Note_on_c, 1, 52, 75
3, 21600, Note_on_c, 1, 56, 75
3, 21648, Note_on_c, 1, 52, 0
3, 21648, Note_on_c, 1, 56, 0
3, 21648, Note_on_c, 1, 59, 75
3, 21694, Note_on_c, 1, 59, 0
3, 21696, Note_on_c, 1, 52, 75
3, 21696, Note_on_c, 1, 57, 75
3, 21744, Note_on_c, 1, 52, 0
3, 21744, Note_on_c, 1, 57, 0
3, 21744, Note_on_c, 1, 59, 75
3, 21792, Note_on_c, 1, 59, 0
3, 21792, Note_on_c, 1, 52, 75
3, 21792, Note_on_c, 1, 57, 75
3, 21840, Note_on_c, 1, 52, 0
3, 21840, Note_on_c, 1, 57, 0
3, 21840, Note_on_c, 1, 59, 75
3, 21888, Note_on_c, 1, 59, 0
3, 21888, Note_on_c, 1, 52, 75
3, 21888, Note_on_c, 1, 57, 75
3, 21936, Note_on_c, 1, 52, 0
3, 21936, Note_on_c, 1, 57, 0
3, 21936, Note_on_c, 1, 59, 75
3, 21984, Note_on_c, 1, 59, 0
3, 21984, Note_on_c, 1, 52, 75
3, 21984, Note_on_c, 1, 57, 75
3, 22032, Note_on_c, 1, 52, 0
3, 22032, Note_on_c, 1, 57, 0
3, 22032, Note_on_c, 1, 59, 75
3, 22078, Note_on_c, 1, 59, 0
3, 22080, Note_on_c, 1, 52, 75
3, 22080, Note_on_c, 1, 56, 75
3, 22128, Note_on_c, 1, 52, 0
3, 22128, Note_on_c, 1, 56, 0
3, 22128, Note_on_c, 1, 59, 75
3, 22176, Note_on_c, 1, 59, 0
3, 22176, Note_on_c, 1, 52, 75
3, 22176, Note_on_c, 1, 56, 75
3, 22224, Note_on_c, 1, 52, 0
3, 22224, Note_on_c, 1, 56, 0
3, 22224, Note_on_c, 1, 59, 75
3, 22272, Note_on_c, 1, 59, 0
3, 22272, Note_on_c, 1, 52, 75
3, 22272, Note_on_c, 1, 56, 75
3, 22320, Note_on_c, 1, 52, 0
3, 22320, Note_on_c, 1, 56, 0
3, 22320, Note_on_c, 1, 59, 75
3, 22368, Note_on_c, 1, 59, 0
3, 22368, Note_on_c, 1, 52, 75
3, 22368, Note_on_c, 1, 56, 75
3, 22416, Note_on_c, 1, 52, 0
3, 22416, Note_on_c, 1, 56, 0
3, 22416, Note_on_c, 1, 59, 75
3, 22462, Note_on_c, 1, 59, 0
3, 22464, Note_on_c, 1, 52, 75
3, 22464, Note_on_c, 1, 57, 75
3, 22512, Note_on_c, 1, 52, 0
3, 22512, Note_on_c, 1, 57, 0
3, 22512, Note_on_c, 1, 59, 75
3, 22560, Note_on_c, 1, 59, 0
3, 22560, Note_on_c, 1, 52, 75
3, 22560, Note_on_c, 1, 57, 75
3, 22608, Note_on_c, 1, 52, 0
3, 22608, Note_on_c, 1, 57, 0
3, 22608, Note_on_c, 1, 59, 75
3, 22656, Note_on_c, 1, 59, 0
3, 22656, Note_on_c, 1, 52, 75
3, 22656, Note_on_c, 1, 57, 75
3, 22704, Note_on_c, 1, 52, 0
3, 22704, Note_on_c, 1, 57, 0
3, 22704, Note_on_c, 1, 59, 75
3, 22752, Note_on_c, 1, 59, 0
3, 22752, Note_on_c, 1, 52, 75
3, 22752, Note_on_c, 1, 57, 75
3, 22800, Note_on_c, 1, 52, 0
3, 22800, Note_on_c, 1, 57, 0
3, 22800, Note_on_c, 1, 59, 75
3, 22846, Note_on_c, 1, 59, 0
3, 22848, Note_on_c, 1, 52, 75
3, 22848, Note_on_c, 1, 56, 75
3, 22896, Note_on_c, 1, 52, 0
3, 22896, Note_on_c, 1, 56, 0
3, 22896, Note_on_c, 1, 59, 75
3, 22944, Note_on_c, 1, 59, 0
3, 22944, Note_on_c, 1, 52, 75
3, 22944, Note_on_c, 1, 56, 75
3, 22992, Note_on_c, 1, 52, 0
3, 22992, Note_on_c, 1, 56, 0
3, 22992, Note_on_c, 1, 59, 75
3, 23040, Note_on_c, 1, 59, 0
3, 23040, Note_on_c, 1, 52, 75
3, 23040, Note_on_c, 1, 56, 75
3, 23088, Note_on_c, 1, 52, 0
3, 23088, Note_on_c, 1, 56, 0
3, 23088, Note_on_c, 1, 59, 75
3, 23136, Note_on_c, 1, 59, 0
3, 23136, Note_on_c, 1, 52, 75
3, 23136, Note_on_c, 1, 56, 75
3, 23184, Note_on_c, 1, 52, 0
3, 23184, Note_on_c, 1, 56, 0
3, 23184, Note_on_c, 1, 59, 75
3, 23230, Note_on_c, 1, 59, 0
3, 23232, Note_on_c, 1, 52, 75
3, 23232, Note_on_c, 1, 57, 75
3, 23280, Note_on_c, 1, 52, 0
3, 23280, Note_on_c, 1, 57, 0
3, 23280, Note_on_c, 1, 59, 75
3, 23328, Note_on_c, 1, 59, 0
3, 23328, Note_on_c, 1, 52, 75
3, 23328, Note_on_c, 1, 57, 75
3, 23376, Note_on_c, 1, 52, 0
3, 23376, Note_on_c, 1, 57, 0
3, 23376, Note_on_c, 1, 59, 75
3, 23424, Note_on_c, 1, 59, 0
3, 23424, Note_on_c, 1, 52, 75
3, 23424, Note_on_c, 1, 57, 75
3, 23472, Note_on_c, 1, 52, 0
3, 23472, Note_on_c, 1, 57, 0
3, 23472, Note_on_c, 1, 59, 75
3, 23520, Note_on_c, 1, 59, 0
3, 23520, Note_on_c, 1, 52, 75
3, 23520, Note_on_c, 1, 57, 75
3, 23568, Note_on_c, 1, 52, 0
3, 23568, Note_on_c, 1, 57, 0
3, 23568, Note_on_c, 1, 59, 75
3, 23614, Note_on_c, 1, 59, 0
3, 23616, Note_on_c, 1, 52, 75
3, 23616, Note_on_c, 1, 56, 75
3, 23776, Note_on_c, 1, 52, 0
3, 23776, Note_on_c, 1, 56, 0
3, 24768, Note_on_c, 1, 61, 45
3, 24768, Note_on_c, 1, 64, 45
3, 24928, Note_on_c, 1, 61, 0
3, 24928, Note_on_c, 1, 64, 0
3, 25152, Note_on_c, 1, 62, 45
3, 25152, Note_on_c, 1, 66, 45
3, 25312, Note_on_c, 1, 62, 0
3, 25312, Note_on_c, 1, 66, 0
3, 25536, Note_on_c, 1, 52, 45
3, 25536, Note_on_c, 1, 59, 45
3, 25728, Note_on_c, 1, 52, 0
3, 25728, Note_on_c, 1, 59, 0
3, 25728, Note_on_c, 1, 56, 45
3, 25824, Note_on_c, 1, 56, 0
3, 25824, Note_on_c, 1, 52, 45
3, 25918, Note_on_c, 1, 52, 0
3, 25920, Note_on_c, 1, 57, 45
3, 26080, Note_on_c, 1, 57, 0
3, 26112, Note_on_c, 1, 66, 45
3, 26112, Note_on_c, 1, 69, 45
3, 26304, Note_on_c, 1, 66, 0
3, 26304, Note_on_c, 1, 69, 0
3, 26304, Note_on_c, 1, 64, 60
3, 26304, Note_on_c, 1, 68, 60
3, 26496, Note_on_c, 1, 64, 0
3, 26496, Note_on_c, 1, 68, 0
3, 26496, Note_on_c, 1, 63, 76
3, 26496, Note_on_c, 1, 66, 76
3, 26688, Note_on_c, 1, 63, 0
3, 26688, Note_on_c, 1, 66, 0
3, 26688, Note_on_c, 1, 62, 92
3, 26848, Note_on_c, 1, 62, 0
3, 26976, Note_on_c, 1, 49, 92
3, 27008, Note_on_c, 1, 49, 0
3, 27072, Note_on_c, 1, 50, 92
3, 27264, Note_on_c, 1, 50, 0
3, 27264, Note_on_c, 1, 52, 92
3, 27424, Note_on_c, 1, 52, 0
3, 27456, Note_on_c, 1, 57, 92
3, 27616, Note_on_c, 1, 57, 0
3, 27648, Note_on_c, 1, 54, 92
3, 27840, Note_on_c, 1, 54, 0
3, 27840, Note_on_c, 1, 52, 92
3, 28032, Note_on_c, 1, 52, 0
3, 28032, Note_on_c, 1, 51, 92
3, 28192, Note_on_c, 1, 51, 0
3, 28224, Note_on_c, 1, 50, 92
3, 28608, Note_on_c, 1, 50, 0
3, 28608, Note_on_c, 1, 49, 92
3, 28702, Note_on_c, 1, 49, 0
3, 28704, Note_on_c, 1, 50, 92
3, 28798, Note_on_c, 1, 50, 0
3, 28800, Note_on_c, 1, 52, 92
3, 28894, Note_on_c, 1, 52, 0
3, 28896, Note_on_c, 1, 52, 92
3, 28990, Note_on_c, 1, 52, 0
3, 28992, Note_on_c, 1, 45, 92
3, 29086, Note_on_c, 1, 45, 0
3, 29376, Note_on_c, 1, 49, 45
3, 29376, Note_on_c, 1, 52, 45
3, 29470, Note_on_c, 1, 49, 0
3, 29470, Note_on_c, 1, 52, 0
3, 29760, Note_on_c, 1, 50, 45
3, 29760, Note_on_c, 1, 54, 45
3, 29854, Note_on_c, 1, 50, 0
3, 29854, Note_on_c, 1, 54, 0
3, 30144, Note_on_c, 1, 52, 45
3, 30144, Note_on_c, 1, 59, 45
3, 30192, Note_on_c, 1, 52, 0
3, 30192, Note_on_c, 1, 59, 0
3, 30192, Note_on_c, 1, 62, 45
3, 30240, Note_on_c, 1, 62, 0
3, 30240, Note_on_c, 1, 52, 45
3, 30240, Note_on_c, 1, 59, 45
3, 30288, Note_on_c, 1, 52, 0
3, 30288, Note_on_c, 1, 59, 0
3, 30288, Note_on_c, 1, 62, 45
3, 30336, Note_on_c, 1, 62, 0
3, 30336, Note_on_c, 1, 52, 45
3, 30336, Note_on_c, 1, 59, 45
3, 30384, Note_on_c, 1, 52, 0
3, 30384, Note_on_c, 1, 59, 0
3, 30384, Note_on_c, 1, 62, 45
3, 30432, Note_on_c, 1, 62, 0
3, 30432, Note_on_c, 1, 52, 45
3, 30432, Note_on_c, 1, 59, 45
3, 30480, Note_on_c, 1, 52, 0
3, 30480, Note_on_c, 1, 59, 0
3, 30480, Note_on_c, 1, 62, 45
3, 30526, Note_on_c, 1, 62, 0
3, 30528, Note_on_c, 1, 57, 45
3, 30528, Note_on_c, 1, 61, 45
3, 30688, Note_on_c, 1, 57, 0
3, 30688, Note_on_c, 1, 61, 0
3, 30912, Note_on_c, 1, 57, 45
3, 30912, Note_on_c, 1, 64, 45
3, 30944, Note_on_c, 1, 57, 0
3, 30944, Note_on_c, 1, 64, 0
3, 31008, Note_on_c, 1, 57, 45
3, 31008, Note_on_c, 1, 64, 45
3, 31040, Note_on_c, 1, 57, 0
3, 31040, Note_on_c, 1, 64, 0
3, 31296, Note_on_c, 1, 57, 45
3, 31296, Note_on_c, 1, 64, 45
3, 31328, Note_on_c, 1, 57, 0
3, 31328, Note_on_c, 1, 64, 0
3, 31392, Note_on_c, 1, 57, 45
3, 31392, Note_on_c, 1, 64, 45
3, 31424, Note_on_c, 1, 57, 0
3, 31424, Note_on_c, 1, 64, 0
3, 31680, Note_on_c, 1, 56, 45
3, 31680, Note_on_c, 1, 64, 45
3, 31774, Note_on_c, 1, 56, 0
3, 31776, Note_on_c, 1, 56, 45
3, 31870, Note_on_c, 1, 56, 0
3, 31872, Note_on_c, 1, 56, 45
3, 31966, Note_on_c, 1, 56, 0
3, 31968, Note_on_c, 1, 56, 45
3, 32062, Note_on_c, 1, 56, 0
3, 32064, Note_on_c, 1, 57, 45
3, 32158, Note_on_c, 1, 57, 0
3, 32158, Note_on_c, 1, 64, 0
3, 32256, Note_on_c, 1, 52, 45
3, 32352, Note_on_c, 1, 52, 0
3, 32352, Note_on_c, 1, 54, 45
3, 32448, Note_on_c, 1, 54, 0
3, 32448, Note_on_c, 1, 55, 45
3, 32542, Note_on_c, 1, 55, 0
3, 32640, Note_on_c, 1, 52, 45
3, 32736, Note_on_c, 1, 52, 0
3, 32736, Note_on_c, 1, 54, 45
3, 32832, Note_on_c, 1, 54, 0
3, 32832, Note_on_c, 1, 55, 45
3, 32926, Note_on_c, 1, 55, 0
3, 33024, Note_on_c, 1, 52, 45
3, 33120, Note_on_c, 1, 52, 0
3, 33120, Note_on_c, 1, 54, 45
3, 33216, Note_on_c, 1, 54, 0
3, 33216, Note_on_c, 1, 55, 45
3, 33310, Note_on_c, 1, 55, 0
3, 33312, Note_on_c, 1, 57, 45
3, 33344, Note_on_c, 1, 57, 0
3, 33408, Note_on_c, 1, 59, 45
3, 33440, Note_on_c, 1, 59, 0
3, 33504, Note_on_c, 1, 47, 45
3, 33536, Note_on_c, 1, 47, 0
3, 33600, Note_on_c, 1, 52, 45
3, 33760, Note_on_c, 1, 52, 0
3, 33984, Note_on_c, 1, 57, 45
3, 33984, Note_on_c, 1, 64, 45
3, 34016, Note_on_c, 1, 57, 0
3, 34016, Note_on_c, 1, 64, 0
3, 34080, Note_on_c, 1, 57, 45
3, 34080, Note_on_c, 1, 64, 45
3, 34112, Note_on_c, 1, 57, 0
3, 34112, Note_on_c, 1, 64, 0
3, 34368, Note_on_c, 1, 57, 45
3, 34368, Note_on_c, 1, 64, 45
3, 34400, Note_on_c, 1, 57, 0
3, 34400, Note_on_c, 1, 64, 0
3, 34464, Note_on_c, 1, 57, 45
3, 34464, Note_on_c, 1, 64, 45
3, 34496, Note_on_c, 1, 57, 0
3, 34496, Note_on_c, 1, 64, 0
3, 34752, Note_on_c, 1, 56, 45
3, 34752, Note_on_c, 1, 64, 45
3, 34846, Note_on_c, 1, 56, 0
3, 34848, Note_on_c, 1, 56, 45
3, 34942, Note_on_c, 1, 56, 0
3, 34944, Note_on_c, 1, 56, 45
3, 35038, Note_on_c, 1, 56, 0
3, 35040, Note_on_c, 1, 56, 45
3, 35134, Note_on_c, 1, 56, 0
3, 35136, Note_on_c, 1, 57, 45
3, 35230, Note_on_c, 1, 57, 0
3, 35230, Note_on_c, 1, 64, 0
3, 35328, Note_on_c, 1, 52, 45
3, 35424, Note_on_c, 1, 52, 0
3, 35424, Note_on_c, 1, 54, 45
3, 35520, Note_on_c, 1, 54, 0
3, 35520, Note_on_c, 1, 55, 45
3, 35614, Note_on_c, 1, 55, 0
3, 35712, Note_on_c, 1, 52, 45
3, 35808, Note_on_c, 1, 52, 0
3, 35808, Note_on_c, 1, 54, 45
3, 35904, Note_on_c, 1, 54, 0
3, 35904, Note_on_c, 1, 55, 45
3, 35998, Note_on_c, 1, 55, 0
3, 36096, Note_on_c, 1, 52, 45
3, 36192, Note_on_c, 1, 52, 0
3, 36192, Note_on_c, 1, 54, 45
3, 36288, Note_on_c, 1, 54, 0
3, 36288, Note_on_c, 1, 55, 45
3, 36382, Note_on_c, 1, 55, 0
3, 36384, Note_on_c, 1, 57, 45
3, 36416, Note_on_c, 1, 57, 0
3, 36480, Note_on_c, 1, 59, 45
3, 36512, Note_on_c, 1, 59, 0
3, 36576, Note_on_c, 1, 47, 45
3, 36608, Note_on_c, 1, 47, 0
3, 36672, Note_on_c, 1, 52, 45
3, 36832, Note_on_c, 1, 52, 0
3, 36864, Note_on_c, 1, 60, 92
3, 36864, Note_on_c, 1, 64, 92
3, 37056, Note_on_c, 1, 60, 0
3, 37056, Note_on_c, 1, 64, 0
3, 37056, Note_on_c, 1, 62, 92
3, 37056, Note_on_c, 1, 65, 92
3, 37216, Note_on_c, 1, 62, 0
3, 37216, Note_on_c, 1, 65, 0
3, 37248, Note_on_c, 1, 60, 92
3, 37280, Note_on_c, 1, 60, 0
3, 37344, Note_on_c, 1, 57, 92
3, 37376, Note_on_c, 1, 57, 0
3, 37440, Note_on_c, 1, 64, 92
3, 37600, Note_on_c, 1, 64, 0
3, 37632, Note_on_c, 1, 60, 92
3, 37632, Note_on_c, 1, 64, 92
3, 37824, Note_on_c, 1, 60, 0
3, 37824, Note_on_c, 1, 64, 0
3, 37824, Note_on_c, 1, 62, 92
3, 37824, Note_on_c, 1, 65, 92
3, 37984, Note_on_c, 1, 62, 0
3, 37984, Note_on_c, 1, 65, 0
3, 38016, Note_on_c, 1, 60, 92
3, 38048, Note_on_c, 1, 60, 0
3, 38112, Note_on_c, 1, 57, 92
3, 38144, Note_on_c, 1, 57, 0
3, 38208, Note_on_c, 1, 52, 92
3, 38302, Note_on_c, 1, 52, 0
3, 38400, Note_on_c, 1, 53, 45
3, 38496, Note_on_c, 1, 53, 0
3, 38496, Note_on_c, 1, 52, 45
3, 38592, Note_on_c, 1, 52, 0
3, 38592, Note_on_c, 1, 50, 45
3, 38686, Note_on_c, 1, 50, 0
3, 38784, Note_on_c, 1, 53, 45
3, 38880, Note_on_c, 1, 53, 0
3, 38880, Note_on_c, 1, 52, 45
3, 38976, Note_on_c, 1, 52, 0
3, 38976, Note_on_c, 1, 50, 45
3, 39070, Note_on_c, 1, 50, 0
3, 39168, Note_on_c, 1, 53, 92
3, 39264, Note_on_c, 1, 53, 0
3, 39264, Note_on_c, 1, 50, 92
3, 39358, Note_on_c, 1, 50, 0
3, 39360, Note_on_c, 1, 48, 92
3, 39456, Note_on_c, 1, 48, 0
3, 39456, Note_on_c, 1, 50, 92
3, 39552, Note_on_c, 1, 50, 0
3, 39552, Note_on_c, 1, 52, 92
3, 39646, Note_on_c, 1, 52, 0
3, 39648, Note_on_c, 1, 40, 92
3, 39742, Note_on_c, 1, 40, 0
3, 39744, Note_on_c, 1, 45, 92
3, 39904, Note_on_c, 1, 45, 0
3, 39936, Note_on_c, 1, 60, 92
3, 39936, Note_on_c, 1, 64, 92
3, 40128, Note_on_c, 1, 60, 0
3, 40128, Note_on_c, 1, 64, 0
3, 40128, Note_on_c, 1, 62, 92
3, 40128, Note_on_c, 1, 65, 92
3, 40288, Note_on_c, 1, 62, 0
3, 40288, Note_on_c, 1, 65, 0
3, 40320, Note_on_c, 1, 60, 92
3, 40352, Note_on_c, 1, 60, 0
3, 40416, Note_on_c, 1, 57, 92
3, 40448, Note_on_c, 1, 57, 0
3, 40512, Note_on_c, 1, 64, 92
3, 40672, Note_on_c, 1, 64, 0
3, 40704, Note_on_c, 1, 60, 92
3, 40704, Note_on_c, 1, 64, 92
3, 40896, Note_on_c, 1, 60, 0
3, 40896, Note_on_c, 1, 64, 0
3, 40896, Note_on_c, 1, 62, 92
3, 40896, Note_on_c, 1, 65, 92
3, 41056, Note_on_c, 1, 62, 0
3, 41056, Note_on_c, 1, 65, 0
3, 41088, Note_on_c, 1, 60, 92
3, 41120, Note_on_c, 1, 60, 0
3, 41184, Note_on_c, 1, 57, 92
3, 41216, Note_on_c, 1, 57, 0
3, 41280, Note_on_c, 1, 52, 92
3, 41374, Note_on_c, 1, 52, 0
3, 41472, Note_on_c, 1, 53, 45
3, 41568, Note_on_c, 1, 53, 0
3, 41568, Note_on_c, 1, 52, 45
3, 41664, Note_on_c, 1, 52, 0
3, 41664, Note_on_c, 1, 50, 45
3, 41758, Note_on_c, 1, 50, 0
3, 41856, Note_on_c, 1, 53, 45
3, 41952, Note_on_c, 1, 53, 0
3, 41952, Note_on_c, 1, 52, 45
3, 42048, Note_on_c, 1, 52, 0
3, 42048, Note_on_c, 1, 50, 45
3, 42142, Note_on_c, 1, 50, 0
3, 42240, Note_on_c, 1, 53, 92
3, 42336, Note_on_c, 1, 53, 0
3, 42336, Note_on_c, 1, 50, 92
3, 42430, Note_on_c, 1, 50, 0
3, 42432, Note_on_c, 1, 48, 92
3, 42528, Note_on_c, 1, 48, 0
3, 42528, Note_on_c, 1, 50, 92
3, 42624, Note_on_c, 1, 50, 0
3, 42624, Note_on_c, 1, 52, 92
3, 42718, Note_on_c, 1, 52, 0
3, 42720, Note_on_c, 1, 40, 92
3, 42814, Note_on_c, 1, 40, 0
3, 42816, Note_on_c, 1, 45, 92
3, 42976, Note_on_c, 1, 45, 0
3, 43200, Note_on_c, 1, 61, 45
3, 43200, Note_on_c, 1, 64, 45
3, 43360, Note_on_c, 1, 61, 0
3, 43360, Note_on_c, 1, 64, 0
3, 43584, Note_on_c, 1, 62, 45
3, 43584, Note_on_c, 1, 66, 45
3, 43744, Note_on_c, 1, 62, 0
3, 43744, Note_on_c, 1, 66, 0
3, 43968, Note_on_c, 1, 52, 45
3, 43968, Note_on_c, 1, 59, 45
3, 44160, Note_on_c, 1, 52, 0
3, 44160, Note_on_c, 1, 59, 0
3, 44160, Note_on_c, 1, 56, 45
3, 44256, Note_on_c, 1, 56, 0
3, 44256, Note_on_c, 1, 52, 45
3, 44350, Note_on_c, 1, 52, 0
3, 44352, Note_on_c, 1, 57, 45
3, 44512, Note_on_c, 1, 57, 0
3, 44544, Note_on_c, 1, 66, 45
3, 44544, Note_on_c, 1, 69, 45
3, 44736, Note_on_c, 1, 66, 0
3, 44736, Note_on_c, 1, 69, 0
3, 44736, Note_on_c, 1, 64, 60
3, 44736, Note_on_c, 1, 68, 60
3, 44928, Note_on_c, 1, 64, 0
3, 44928, Note_on_c, 1, 68, 0
3, 44928, Note_on_c, 1, 63, 76
3, 44928, Note_on_c, 1, 66, 76
3, 45120, Note_on_c, 1, 63, 0
3, 45120, Note_on_c, 1, 66, 0
3, 45120, Note_on_c, 1, 62, 92
3, 45280, Note_on_c, 1, 62, 0
3, 45408, Note_on_c, 1, 49, 92
3, 45440, Note_on_c, 1, 49, 0
3, 45504, Note_on_c, 1, 50, 92
3, 45696, Note_on_c, 1, 50, 0
3, 45696, Note_on_c, 1, 52, 92
3, 45856, Note_on_c, 1, 52, 0
3, 45888, Note_on_c, 1, 57, 92
3, 46048, Note_on_c, 1, 57, 0
3, 46080, Note_on_c, 1, 54, 92
3, 46272, Note_on_c, 1, 54, 0
3, 46272, Note_on_c, 1, 52, 92
3, 46464, Note_on_c, 1, 52, 0
3, 46464, Note_on_c, 1, 51, 92
3, 46624, Note_on_c, 1, 51, 0
3, 46656, Note_on_c, 1, 50, 92
3, 47040, Note_on_c, 1, 50, 0
3, 47040, Note_on_c, 1, 49, 92
3, 47134, Note_on_c, 1, 49, 0
3, 47136, Note_on_c, 1, 50, 92
3, 47230, Note_on_c, 1, 50, 0
3, 47232, Note_on_c, 1, 52, 92
3, 47326, Note_on_c, 1, 52, 0
3, 47328, Note_on_c, 1, 52, 92
3, 47422, Note_on_c, 1, 52, 0
3, 47424, Note_on_c, 1, 45, 92
3, 47518, Note_on_c, 1, 45, 0
3, 47808, Note_on_c, 1, 49, 45
3, 47808, Note_on_c, 1, 52, 45
3, 47902, Note_on_c, 1, 49, 0
3, 47902, Note_on_c, 1, 52, 0
3, 48192, Note_on_c, 1, 50, 45
3, 48192, Note_on_c, 1, 54, 45
3, 48286, Note_on_c, 1, 50, 0
3, 48286, Note_on_c, 1, 54, 0
3, 48576, Note_on_c, 1, 52, 45
3, 48576, Note_on_c, 1, 59, 45
3, 48624, Note_on_c, 1, 52, 0
3, 48624, Note_on_c, 1, 59, 0
3, 48624, Note_on_c, 1, 62, 45
3, 48672, Note_on_c, 1, 62, 0
3, 48672, Note_on_c, 1, 52, 45
3, 48672, Note_on_c, 1, 59, 45
3, 48720, Note_on_c, 1, 52, 0
3, 48720, Note_on_c, 1, 59, 0
3, 48720, Note_on_c, 1, 62, 45
3, 48768, Note_on_c, 1, 62, 0
3, 48768, Note_on_c, 1, 52, 45
3, 48768, Note_on_c, 1, 59, 45
3, 48816, Note_on_c, 1, 52, 0
3, 48816, Note_on_c, 1, 59, 0
3, 48816, Note_on_c, 1, 62, 45
3, 48864, Note_on_c, 1, 62, 0
3, 48864, Note_on_c, 1, 52, 45
3, 48864, Note_on_c, 1, 59, 45
3, 48912, Note_on_c, 1, 52, 0
3, 48912, Note_on_c, 1, 59, 0
3, 48912, Note_on_c, 1, 62, 45
3, 48958, Note_on_c, 1, 62, 0
3, 48960, Note_on_c, 1, 57, 45
3, 48960, Note_on_c, 1, 61, 45
3, 49120, Note_on_c, 1, 57, 0
3, 49120, Note_on_c, 1, 61, 0
3, 49152, Note_on_c, 1, 50, 45
3, 49184, Note_on_c, 1, 50, 0
3, 49248, Note_on_c, 1, 50, 45
3, 49280, Note_on_c, 1, 50, 0
3, 49344, Note_on_c, 1, 50, 45
3, 49888, Note_on_c, 1, 50, 0
3, 49920, Note_on_c, 1, 50, 45
3, 49952, Note_on_c, 1, 50, 0
3, 50016, Note_on_c, 1, 50, 45
3, 50048, Note_on_c, 1, 50, 0
3, 50112, Note_on_c, 1, 50, 45
3, 50656, Note_on_c, 1, 50, 0
3, 50688, Note_on_c, 1, 50, 92
3, 50720, Note_on_c, 1, 50, 0
3, 50784, Note_on_c, 1, 50, 92
3, 50816, Note_on_c, 1, 50, 0
3, 50880, Note_on_c, 1, 50, 92
3, 51264, Note_on_c, 1, 50, 0
3, 51264, Note_on_c, 1, 49, 92
3, 51358, Note_on_c, 1, 49, 0
3, 51456, Note_on_c, 1, 50, 92
3, 51488, Note_on_c, 1, 50, 0
3, 51648, Note_on_c, 1, 52, 92
3, 51680, Note_on_c, 1, 52, 0
3, 51840, Note_on_c, 1, 52, 92
3, 51872, Note_on_c, 1, 52, 0
3, 52032, Note_on_c, 1, 45, 92
3, 52192, Note_on_c, 1, 45, 0
3, 52416, Note_on_c, 1, 51, 45
3, 52752, Note_on_c, 1, 51, 0
3, 52800, Note_on_c, 1, 52, 45
3, 53088, Note_on_c, 1, 52, 0
3, 53088, Note_on_c, 1, 54, 45
3, 53182, Note_on_c, 1, 54, 0
3, 53184, Note_on_c, 1, 52, 45
3, 53232, Note_on_c, 1, 52, 0
3, 53376, Note_on_c, 1, 40, 45
3, 53424, Note_on_c, 1, 40, 0
3, 53568, Note_on_c, 1, 45, 45
3, 53728, Note_on_c, 1, 45, 0
3, 53760, Note_on_c, 1, 50, 45
3, 53792, Note_on_c, 1, 50, 0
3, 53856, Note_on_c, 1, 50, 45
3, 53888, Note_on_c, 1, 50, 0
3, 53952, Note_on_c, 1, 50, 45
3, 54496, Note_on_c, 1, 50, 0
3, 54528, Note_on_c, 1, 50, 45
3, 54560, Note_on_c, 1, 50, 0
3, 54624, Note_on_c, 1, 50, 45
3, 54656, Note_on_c, 1, 50, 0
3, 54720, Note_on_c, 1, 50, 45
3, 55264, Note_on_c, 1, 50, 0
3, 55296, Note_on_c, 1, 50, 92
3, 55328, Note_on_c, 1, 50, 0
3, 55392, Note_on_c, 1, 50, 92
3, 55424, Note_on_c, 1, 50, 0
3, 55488, Note_on_c, 1, 50, 92
3, 55872, Note_on_c, 1, 50, 0
3, 55872, Note_on_c, 1, 49, 92
3, 55966, Note_on_c, 1, 49, 0
3, 56064, Note_on_c, 1, 50, 92
3, 56096, Note_on_c, 1, 50, 0
3, 56256, Note_on_c, 1, 52, 92
3, 56288, Note_on_c, 1, 52, 0
3, 56448, Note_on_c, 1, 52, 92
3, 56480, Note_on_c, 1, 52, 0
3, 56640, Note_on_c, 1, 45, 92
3, 56800, Note_on_c, 1, 45, 0
3, 57024, Note_on_c, 1, 51, 45
3, 57360, Note_on_c, 1, 51, 0
3, 57408, Note_on_c, 1, 52, 45
3, 57696, Note_on_c, 1, 52, 0
3, 57696, Note_on_c, 1, 54, 45
3, 57790, Note_on_c, 1, 54, 0
3, 57792, Note_on_c, 1, 52, 45
3, 57840, Note_on_c, 1, 52, 0
3, 57984, Note_on_c, 1, 40, 45
3, 58032, Note_on_c, 1, 40, 0
3, 58176, Note_on_c, 1, 45, 45
3, 58336, Note_on_c, 1, 45, 0
3, 58368, Note_on_c, 1, 57, 92
3, 58400, Note_on_c, 1, 57, 0
3, 58464, Note_on_c, 1, 57, 92
3, 58496, Note_on_c, 1, 57, 0
3, 58560, Note_on_c, 1, 55, 92
3, 58656, Note_on_c, 1, 55, 0
3, 58656, Note_on_c, 1, 57, 92
3, 58750, Note_on_c, 1, 57, 0
3, 58752, Note_on_c, 1, 54, 92
3, 58784, Note_on_c, 1, 54, 0
3, 58848, Note_on_c, 1, 57, 92
3, 58880, Note_on_c, 1, 57, 0
3, 58944, Note_on_c, 1, 52, 92
3, 58976, Note_on_c, 1, 52, 0
3, 59040, Note_on_c, 1, 57, 92
3, 59072, Note_on_c, 1, 57, 0
3, 59136, Note_on_c, 1, 50, 92
3, 59168, Note_on_c, 1, 50, 0
3, 59232, Note_on_c, 1, 57, 92
3, 59264, Note_on_c, 1, 57, 0
3, 59328, Note_on_c, 1, 49, 92
3, 59360, Note_on_c, 1, 49, 0
3, 59424, Note_on_c, 1, 57, 92
3, 59456, Note_on_c, 1, 57, 0
3, 59520, Note_on_c, 1, 47, 92
3, 59552, Note_on_c, 1, 47, 0
3, 59616, Note_on_c, 1, 57, 92
3, 59648, Note_on_c, 1, 57, 0
3, 59712, Note_on_c, 1, 45, 92
3, 59744, Note_on_c, 1, 45, 0
3, 59808, Note_on_c, 1, 57, 92
3, 59840, Note_on_c, 1, 57, 0
3, 59904, Note_on_c, 1, 57, 92
3, 59936, Note_on_c, 1, 57, 0
3, 60000, Note_on_c, 1, 57, 92
3, 60032, Note_on_c, 1, 57, 0
3, 60096, Note_on_c, 1, 55, 92
3, 60192, Note_on_c, 1, 55, 0
3, 60192, Note_on_c, 1, 57, 92
3, 60286, Note_on_c, 1, 57, 0
3, 60288, Note_on_c, 1, 54, 92
3, 60320, Note_on_c, 1, 54, 0
3, 60384, Note_on_c, 1, 57, 92
3, 60416, Note_on_c, 1, 57, 0
3, 60480, Note_on_c, 1, 52, 92
3, 60512, Note_on_c, 1, 52, 0
3, 60576, Note_on_c, 1, 57, 92
3, 60608, Note_on_c, 1, 57, 0
3, 60672, Note_on_c, 1, 50, 92
3, 60704, Note_on_c, 1, 50, 0
3, 60768, Note_on_c, 1, 57, 92
3, 60800, Note_on_c, 1, 57, 0
3, 60864, Note_on_c, 1, 49, 92
3, 60896, Note_on_c, 1, 49, 0
3, 60960, Note_on_c, 1, 57, 92
3, 60992, Note_on_c, 1, 57, 0
3, 61056, Note_on_c, 1, 47, 92
3, 61088, Note_on_c, 1, 47, 0
3, 61152, Note_on_c, 1, 57, 92
3, 61184, Note_on_c, 1, 57, 0
3, 61248, Note_on_c, 1, 45, 92
3, 61342, Note_on_c, 1, 45, 0
3, 61440, Note_on_c, 1, 50, 45
3, 61472, Note_on_c, 1, 50, 0
3, 61536, Note_on_c, 1, 50, 45
3, 61568, Note_on_c, 1, 50, 0
3, 61632, Note_on_c, 1, 50, 45
3, 62176, Note_on_c, 1, 50, 0
3, 62208, Note_on_c, 1, 50, 45
3, 62240, Note_on_c, 1, 50, 0
3, 62304, Note_on_c, 1, 50, 45
3, 62336, Note_on_c, 1, 50, 0
3, 62400, Note_on_c, 1, 50, 45
3, 62944, Note_on_c, 1, 50, 0
3, 62976, Note_on_c, 1, 50, 45
3, 63008, Note_on_c, 1, 50, 0
3, 63072, Note_on_c, 1, 50, 45
3, 63104, Note_on_c, 1, 50, 0
3, 63168, Note_on_c, 1, 51, 92
3, 63504, Note_on_c, 1, 51, 0
3, 63552, Note_on_c, 1, 52, 92
3, 63744, Note_on_c, 1, 52, 0
3, 63744, Note_on_c, 1, 54, 92
3, 63840, Note_on_c, 1, 54, 0
3, 63840, Note_on_c, 1, 55, 92
3, 63934, Note_on_c, 1, 55, 0
3, 63936, Note_on_c, 1, 57, 92
3, 64128, Note_on_c, 1, 57, 0
3, 64128, Note_on_c, 1, 45, 92
3, 64288, Note_on_c, 1, 45, 0
3, 64320, Note_on_c, 1, 50, 92
3, 64320, Note_on_c, 1, 50, 92
3, 64416, Note_on_c, 1, 50, 0
3, 64416, Note_on_c, 1, 57, 81
3, 64480, Note_on_c, 1, 50, 0
3, 64512, Note_on_c, 1, 57, 0
3, 64512, Note_on_c, 1, 54, 69
3, 64608, Note_on_c, 1, 54, 0
3, 64608, Note_on_c, 1, 57, 57
3, 64702, Note_on_c, 1, 57, 0
3, 64704, Note_on_c, 1, 45, 45
3, 64704, Note_on_c, 1, 45, 45
3, 64800, Note_on_c, 1, 45, 0
3, 64800, Note_on_c, 1, 57, 45
3, 64864, Note_on_c, 1, 45, 0
3, 64896, Note_on_c, 1, 57, 0
3, 64896, Note_on_c, 1, 55, 45
3, 64992, Note_on_c, 1, 55, 0
3, 64992, Note_on_c, 1, 57, 45
3, 65086, Note_on_c, 1, 57, 0
3, 65088, Note_on_c, 1, 50, 45
3, 65088, Note_on_c, 1, 50, 45
3, 65184, Note_on_c, 1, 50, 0
3, 65184, Note_on_c, 1, 57, 45
3, 65248, Note_on_c, 1, 50, 0
3, 65280, Note_on_c, 1, 57, 0
3, 65280, Note_on_c, 1, 54, 45
3, 65376, Note_on_c, 1, 54, 0
3, 65376, Note_on_c, 1, 57, 45
3, 65470, Note_on_c, 1, 57, 0
3, 65472, Note_on_c, 1, 45, 45
3, 65472, Note_on_c, 1, 45, 45
3, 65568, Note_on_c, 1, 45, 0
3, 65568, Note_on_c, 1, 57, 45
3, 65632, Note_on_c, 1, 45, 0
3, 65664, Note_on_c, 1, 57, 0
3, 65664, Note_on_c, 1, 55, 45
3, 65760, Note_on_c, 1, 55, 0
3, 65760, Note_on_c, 1, 57, 45
3, 65854, Note_on_c, 1, 57, 0
3, 65856, Note_on_c, 1, 50, 45
3, 65856, Note_on_c, 1, 54, 45
3, 66016, Note_on_c, 1, 50, 0
3, 66016, Note_on_c, 1, 54, 0
3, 66048, Note_on_c, 1, 57, 92
3, 66080, Note_on_c, 1, 57, 0
3, 66144, Note_on_c, 1, 57, 92
3, 66176, Note_on_c, 1, 57, 0
3, 66240, Note_on_c, 1, 55, 92
3, 66336, Note_on_c, 1, 55, 0
3, 66336, Note_on_c, 1, 57, 92
3, 66430, Note_on_c, 1, 57, 0
3, 66432, Note_on_c, 1, 54, 92
3, 66464, Note_on_c, 1, 54, 0
3, 66528, Note_on_c, 1, 57, 92
3, 66560, Note_on_c, 1, 57, 0
3, 66624, Note_on_c, 1, 52, 92
3, 66656, Note_on_c, 1, 52, 0
3, 66720, Note_on_c, 1, 57, 92
3, 66752, Note_on_c, 1, 57, 0
3, 66816, Note_on_c, 1, 50, 92
3, 66848, Note_on_c, 1, 50, 0
3, 66912, Note_on_c, 1, 57, 92
3, 66944, Note_on_c, 1, 57, 0
3, 67008, Note_on_c, 1, 49, 92
3, 67040, Note_on_c, 1, 49, 0
3, 67104, Note_on_c, 1, 57, 92
3, 67136, Note_on_c, 1, 57, 0
3, 67200, Note_on_c, 1, 47, 92
3, 67232, Note_on_c, 1, 47, 0
3, 67296, Note_on_c, 1, 57, 92
3, 67328, Note_on_c, 1, 57, 0
3, 67392, Note_on_c, 1, 45, 92
3, 67424, Note_on_c, 1, 45, 0
3, 67488, Note_on_c, 1, 57, 92
3, 67520, Note_on_c, 1, 57, 0
3, 67584, Note_on_c, 1, 57, 92
3, 67616, Note_on_c, 1, 57, 0
3, 67680, Note_on_c, 1, 57, 92
3, 67712, Note_on_c, 1, 57, 0
3, 67776, Note_on_c, 1, 55, 92
3, 67872, Note_on_c, 1, 55, 0
3, 67872, Note_on_c, 1, 57, 92
3, 67966, Note_on_c, 1, 57, 0
3, 67968, Note_on_c, 1, 54, 92
3, 68000, Note_on_c, 1, 54, 0
3, 68064, Note_on_c, 1, 57, 92
3, 68096, Note_on_c, 1, 57, 0
3, 68160, Note_on_c, 1, 52, 92
3, 68192, Note_on_c, 1, 52, 0
3, 68256, Note_on_c, 1, 57, 92
3, 68288, Note_on_c, 1, 57, 0
3, 68352, Note_on_c, 1, 50, 92
3, 68384, Note_on_c, 1, 50, 0
3, 68448, Note_on_c, 1, 57, 92
3, 68480, Note_on_c, 1, 57, 0
3, 68544, Note_on_c, 1, 49, 92
3, 68576, Note_on_c, 1, 49, 0
3, 68640, Note_on_c, 1, 57, 92
3, 68672, Note_on_c, 1, 57, 0
3, 68736, Note_on_c, 1, 47, 92
3, 68768, Note_on_c, 1, 47, 0
3, 68832, Note_on_c, 1, 57, 92
3, 68864, Note_on_c, 1, 57, 0
3, 68928, Note_on_c, 1, 45, 92
3, 69022, Note_on_c, 1, 45, 0
3, 69120, Note_on_c, 1, 50, 45
3, 69152, Note_on_c, 1, 50, 0
3, 69216, Note_on_c, 1, 50, 45
3, 69248, Note_on_c, 1, 50, 0
3, 69312, Note_on_c, 1, 50, 45
3, 69856, Note_on_c, 1, 50, 0
3, 69888, Note_on_c, 1, 50, 45
3, 69920, Note_on_c, 1, 50, 0
3, 69984, Note_on_c, 1, 50, 45
3, 70016, Note_on_c, 1, 50, 0
3, 70080, Note_on_c, 1, 50, 45
3, 70624, Note_on_c, 1, 50, 0
3, 70656, Note_on_c, 1, 50, 45
3, 70688, Note_on_c, 1, 50, 0
3, 70752, Note_on_c, 1, 50, 45
3, 70784, Note_on_c, 1, 50, 0
3, 70848, Note_on_c, 1, 51, 92
3, 71184, Note_on_c, 1, 51, 0
3, 71232, Note_on_c, 1, 52, 92
3, 71424, Note_on_c, 1, 52, 0
3, 71424, Note_on_c, 1, 54, 92
3, 71520, Note_on_c, 1, 54, 0
3, 71520, Note_on_c, 1, 55, 92
3, 71614, Note_on_c, 1, 55, 0
3, 71616, Note_on_c, 1, 57, 92
3, 71808, Note_on_c, 1, 57, 0
3, 71808, Note_on_c, 1, 45, 92
3, 71968, Note_on_c, 1, 45, 0
3, 72000, Note_on_c, 1, 50, 92
3, 72000, Note_on_c, 1, 50, 92
3, 72096, Note_on_c, 1, 50, 0
3, 72096, Note_on_c, 1, 57, 81
3, 72160, Note_on_c, 1, 50, 0
3, 72192, Note_on_c, 1, 57, 0
3, 72192, Note_on_c, 1, 54, 69
3, 72288, Note_on_c, 1, 54, 0
3, 72288, Note_on_c, 1, 57, 57
3, 72382, Note_on_c, 1, 57, 0
3, 72384, Note_on_c, 1, 45, 45
3, 72384, Note_on_c, 1, 45, 45
3, 72480, Note_on_c, 1, 45, 0
3, 72480, Note_on_c, 1, 57, 45
3, 72544, Note_on_c, 1, 45, 0
3, 72576, Note_on_c, 1, 57, 0
3, 72576, Note_on_c, 1, 55, 45
3, 72672, Note_on_c, 1, 55, 0
3, 72672, Note_on_c, 1, 57, 45
3, 72766, Note_on_c, 1, 57, 0
3, 72768, Note_on_c, 1, 50, 45
3, 72768, Note_on_c, 1, 50, 45
3, 72864, Note_on_c, 1, 50, 0
3, 72864, Note_on_c, 1, 57, 45
3, 72928, Note_on_c, 1, 50, 0
3, 72960, Note_on_c, 1, 57, 0
3, 72960, Note_on_c, 1, 54, 45
3, 73056, Note_on_c, 1, 54, 0
3, 73056, Note_on_c, 1, 57, 45
3, 73150, Note_on_c, 1, 57, 0
3, 73152, Note_on_c, 1, 45, 45
3, 73152, Note_on_c, 1, 45, 45
3, 73248, Note_on_c, 1, 45, 0
3, 73248, Note_on_c, 1, 57, 45
3, 73312, Note_on_c, 1, 45, 0
3, 73344, Note_on_c, 1, 57, 0
3, 73344, Note_on_c, 1, 55, 45
3, 73440, Note_on_c, 1, 55, 0
3, 73440, Note_on_c, 1, 57, 45
3, 73534, Note_on_c, 1, 57, 0
3, 73536, Note_on_c, 1, 50, 45
3, 73536, Note_on_c, 1, 54, 45
3, 73696, Note_on_c, 1, 50, 0
3, 73696, Note_on_c, 1, 54, 0
3, 73920, Note_on_c, 1, 54, 45
3, 74304, Note_on_c, 1, 54, 0
3, 74304, Note_on_c, 1, 47, 45
3, 74464, Note_on_c, 1, 47, 0
3, 74688, Note_on_c, 1, 52, 45
3, 75072, Note_on_c, 1, 52, 0
3, 75072, Note_on_c, 1, 45, 45
3, 75232, Note_on_c, 1, 45, 0
3, 75456, Note_on_c, 1, 42, 92
3, 75456, Note_on_c, 1, 54, 92
3, 75616, Note_on_c, 1, 42, 0
3, 75616, Note_on_c, 1, 54, 0
3, 75840, Note_on_c, 1, 47, 92
3, 75840, Note_on_c, 1, 59, 92
3, 76000, Note_on_c, 1, 47, 0
3, 76000, Note_on_c, 1, 59, 0
3, 76320, Note_on_c, 1, 52, 45
3, 76416, Note_on_c, 1, 52, 0
3, 76416, Note_on_c, 1, 54, 45
3, 76512, Note_on_c, 1, 54, 0
3, 76512, Note_on_c, 1, 56, 45
3, 76606, Note_on_c, 1, 56, 0
3, 76608, Note_on_c, 1, 57, 63
3, 77086, Note_on_c, 1, 57, 0
3, 77088, Note_on_c, 1, 52, 45
3, 77184, Note_on_c, 1, 52, 0
3, 77184, Note_on_c, 1, 54, 45
3, 77280, Note_on_c, 1, 54, 0
3, 77280, Note_on_c, 1, 56, 45
3, 77374, Note_on_c, 1, 56, 0
3, 77376, Note_on_c, 1, 57, 63
3, 77854, Note_on_c, 1, 57, 0
3, 77856, Note_on_c, 1, 52, 45
3, 77952, Note_on_c, 1, 52, 0
3, 77952, Note_on_c, 1, 54, 45
3, 78048, Note_on_c, 1, 54, 0
3, 78048, Note_on_c, 1, 56, 45
3, 78142, Note_on_c, 1, 56, 0
3, 78144, Note_on_c, 1, 57, 45
3, 78622, Note_on_c, 1, 57, 0
3, 78624, Note_on_c, 1, 55, 45
3, 78720, Note_on_c, 1, 55, 0
3, 78720, Note_on_c, 1, 56, 45
3, 78816, Note_on_c, 1, 56, 0
3, 78816, Note_on_c, 1, 58, 45
3, 78910, Note_on_c, 1, 58, 0
3, 78912, Note_on_c, 1, 59, 45
3, 79008, Note_on_c, 1, 59, 0
3, 79008, Note_on_c, 1, 58, 45
3, 79104, Note_on_c, 1, 58, 0
3, 79104, Note_on_c, 1, 59, 45
3, 79200, Note_on_c, 1, 59, 0
3, 79200, Note_on_c, 1, 58, 45
3, 79294, Note_on_c, 1, 58, 0
3, 79296, Note_on_c, 1, 59, 45
3, 79456, Note_on_c, 1, 59, 0
3, 79584, Note_on_c, 1, 53, 62
3, 79616, Note_on_c, 1, 53, 0
3, 79680, Note_on_c, 1, 52, 68
3, 79776, Note_on_c, 1, 52, 0
3, 79776, Note_on_c, 1, 53, 74
3, 79872, Note_on_c, 1, 53, 0
3, 79872, Note_on_c, 1, 52, 80
3, 79968, Note_on_c, 1, 52, 0
3, 79968, Note_on_c, 1, 53, 86
3, 80062, Note_on_c, 1, 53, 0
3, 80064, Note_on_c, 1, 52, 92
3, 80976, Note_on_c, 1, 52, 0
3, 81216, Note_on_c, 1, 61, 45
3, 81216, Note_on_c, 1, 64, 45
3, 81376, Note_on_c, 1, 61, 0
3, 81376, Note_on_c, 1, 64, 0
3, 81600, Note_on_c, 1, 62, 45
3, 81600, Note_on_c, 1, 66, 45
3, 81760, Note_on_c, 1, 62, 0
3, 81760, Note_on_c, 1, 66, 0
3, 81984, Note_on_c, 1, 52, 45
3, 81984, Note_on_c, 1, 59, 45
3, 82176, Note_on_c, 1, 52, 0
3, 82176, Note_on_c, 1, 59, 0
3, 82176, Note_on_c, 1, 56, 45
3, 82272, Note_on_c, 1, 56, 0
3, 82272, Note_on_c, 1, 52, 45
3, 82366, Note_on_c, 1, 52, 0
3, 82368, Note_on_c, 1, 57, 45
3, 82528, Note_on_c, 1, 57, 0
3, 82560, Note_on_c, 1, 66, 45
3, 82560, Note_on_c, 1, 69, 45
3, 82752, Note_on_c, 1, 66, 0
3, 82752, Note_on_c, 1, 69, 0
3, 82752, Note_on_c, 1, 64, 60
3, 82752, Note_on_c, 1, 68, 60
3, 82944, Note_on_c, 1, 64, 0
3, 82944, Note_on_c, 1, 68, 0
3, 82944, Note_on_c, 1, 63, 76
3, 82944, Note_on_c, 1, 66, 76
3, 83136, Note_on_c, 1, 63, 0
3, 83136, Note_on_c, 1, 66, 0
3, 83136, Note_on_c, 1, 62, 92
3, 83296, Note_on_c, 1, 62, 0
3, 83424, Note_on_c, 1, 49, 92
3, 83456, Note_on_c, 1, 49, 0
3, 83520, Note_on_c, 1, 50, 92
3, 83712, Note_on_c, 1, 50, 0
3, 83712, Note_on_c, 1, 52, 92
3, 83872, Note_on_c, 1, 52, 0
3, 83904, Note_on_c, 1, 57, 92
3, 84064, Note_on_c, 1, 57, 0
3, 84096, Note_on_c, 1, 54, 92
3, 84288, Note_on_c, 1, 54, 0
3, 84288, Note_on_c, 1, 52, 92
3, 84480, Note_on_c, 1, 52, 0
3, 84480, Note_on_c, 1, 51, 92
3, 84640, Note_on_c, 1, 51, 0
3, 84672, Note_on_c, 1, 50, 92
3, 85056, Note_on_c, 1, 50, 0
3, 85056, Note_on_c, 1, 49, 92
3, 85150, Note_on_c, 1, 49, 0
3, 85152, Note_on_c, 1, 50, 92
3, 85246, Note_on_c, 1, 50, 0
3, 85248, Note_on_c, 1, 52, 92
3, 85342, Note_on_c, 1, 52, 0
3, 85344, Note_on_c, 1, 52, 92
3, 85438, Note_on_c, 1, 52, 0
3, 85440, Note_on_c, 1, 45, 92
3, 85534, Note_on_c, 1, 45, 0
3, 85824, Note_on_c, 1, 49, 45
3, 85824, Note_on_c, 1, 52, 45
3, 85918, Note_on_c, 1, 49, 0
3, 85918, Note_on_c, 1, 52, 0
3, 86208, Note_on_c, 1, 50, 45
3, 86208, Note_on_c, 1, 54, 45
3, 86302, Note_on_c, 1, 50, 0
3, 86302, Note_on_c, 1, 54, 0
3, 86592, Note_on_c, 1, 52, 45
3, 86592, Note_on_c, 1, 59, 45
3, 86640, Note_on_c, 1, 52, 0
3, 86640, Note_on_c, 1, 59, 0
3, 86640, Note_on_c, 1, 62, 45
3, 86688, Note_on_c, 1, 62, 0
3, 86688, Note_on_c, 1, 52, 45
3, 86688, Note_on_c, 1, 59, 45
3, 86736, Note_on_c, 1, 52, 0
3, 86736, Note_on_c, 1, 59, 0
3, 86736, Note_on_c, 1, 62, 45
3, 86784, Note_on_c, 1, 62, 0
3, 86784, Note_on_c, 1, 52, 45
3, 86784, Note_on_c, 1, 59, 45
3, 86832, Note_on_c, 1, 52, 0
3, 86832, Note_on_c, 1, 59, 0
3, 86832, Note_on_c, 1, 62, 45
3, 86880, Note_on_c, 1, 62, 0
3, 86880, Note_on_c, 1, 52, 45
3, 86880, Note_on_c, 1, 59, 45
3, 86928, Note_on_c, 1, 52, 0
3, 86928, Note_on_c, 1, 59, 0
3, 86928, Note_on_c, 1, 62, 45
3, 86974, Note_on_c, 1, 62, 0
3, 86976, Note_on_c, 1, 57, 45
3, 86976, Note_on_c, 1, 61, 45
3, 87136, Note_on_c, 1, 57, 0
3, 87136, Note_on_c, 1, 61, 0
3, 87168, Note_on_c, 1, 57, 92
3, 87200, Note_on_c, 1, 57, 0
3, 87264, Note_on_c, 1, 57, 92
3, 87296, Note_on_c, 1, 57, 0
3, 87360, Note_on_c, 1, 55, 92
3, 87456, Note_on_c, 1, 55, 0
3, 87456, Note_on_c, 1, 57, 92
3, 87550, Note_on_c, 1, 57, 0
3, 87552, Note_on_c, 1, 54, 92
3, 87584, Note_on_c, 1, 54, 0
3, 87648, Note_on_c, 1, 57, 92
3, 87680, Note_on_c, 1, 57, 0
3, 87744, Note_on_c, 1, 52, 92
3, 87776, Note_on_c, 1, 52, 0
3, 87840, Note_on_c, 1, 57, 92
3, 87872, Note_on_c, 1, 57, 0
3, 87936, Note_on_c, 1, 50, 92
3, 87968, Note_on_c, 1, 50, 0
3, 88032, Note_on_c, 1, 57, 92
3, 88064, Note_on_c, 1, 57, 0
3, 88128, Note_on_c, 1, 49, 92
3, 88160, Note_on_c, 1, 49, 0
3, 88224, Note_on_c, 1, 57, 92
3, 88256, Note_on_c, 1, 57, 0
3, 88320, Note_on_c, 1, 47, 92
3, 88352, Note_on_c, 1, 47, 0
3, 88416, Note_on_c, 1, 57, 92
3, 88448, Note_on_c, 1, 57, 0
3, 88512, Note_on_c, 1, 45, 92
3, 88544, Note_on_c, 1, 45, 0
3, 88608, Note_on_c, 1, 57, 92
3, 88640, Note_on_c, 1, 57, 0
3, 88704, Note_on_c, 1, 57, 92
3, 88736, Note_on_c, 1, 57, 0
3, 88800, Note_on_c, 1, 57, 92
3, 88832, Note_on_c, 1, 57, 0
3, 88896, Note_on_c, 1, 55, 92
3, 88992, Note_on_c, 1, 55, 0
3, 88992, Note_on_c, 1, 57, 92
3, 89086, Note_on_c, 1, 57, 0
3, 89088, Note_on_c, 1, 54, 92
3, 89120, Note_on_c, 1, 54, 0
3, 89184, Note_on_c, 1, 57, 92
3, 89216, Note_on_c, 1, 57, 0
3, 89280, Note_on_c, 1, 52, 92
3, 89312, Note_on_c, 1, 52, 0
3, 89376, Note_on_c, 1, 57, 92
3, 89408, Note_on_c, 1, 57, 0
3, 89472, Note_on_c, 1, 50, 92
3, 89504, Note_on_c, 1, 50, 0
3, 89568, Note_on_c, 1, 57, 92
3, 89600, Note_on_c, 1, 57, 0
3, 89664, Note_on_c, 1, 49, 92
3, 89696, Note_on_c, 1, 49, 0
3, 89760, Note_on_c, 1, 57, 92
3, 89792, Note_on_c, 1, 57, 0
3, 89856, Note_on_c, 1, 47, 92
3, 89888, Note_on_c, 1, 47, 0
3, 89952, Note_on_c, 1, 57, 92
3, 89984, Note_on_c, 1, 57, 0
3, 90048, Note_on_c, 1, 45, 92
3, 90080, Note_on_c, 1, 45, 0
3, 90144, Note_on_c, 1, 57, 45
3, 90176, Note_on_c, 1, 57, 0
3, 90240, Note_on_c, 1, 57, 45
3, 90272, Note_on_c, 1, 57, 0
3, 90336, Note_on_c, 1, 57, 45
3, 90368, Note_on_c, 1, 57, 0
3, 90432, Note_on_c, 1, 45, 45
3, 90464, Note_on_c, 1, 45, 0
3, 90528, Note_on_c, 1, 57, 45
3, 90624, Note_on_c, 1, 57, 0
3, 90624, Note_on_c, 1, 56, 45
3, 90720, Note_on_c, 1, 56, 0
3, 90720, Note_on_c, 1, 57, 45
3, 90814, Note_on_c, 1, 57, 0
3, 90912, Note_on_c, 1, 58, 45
3, 91008, Note_on_c, 1, 58, 0
3, 91008, Note_on_c, 1, 59, 45
3, 91104, Note_on_c, 1, 59, 0
3, 91104, Note_on_c, 1, 58, 45
3, 91198, Note_on_c, 1, 58, 0
3, 91296, Note_on_c, 1, 59, 45
3, 91392, Note_on_c, 1, 59, 0
3, 91392, Note_on_c, 1, 58, 45
3, 91488, Note_on_c, 1, 58, 0
3, 91488, Note_on_c, 1, 59, 45
3, 91582, Note_on_c, 1, 59, 0
3, 91680, Note_on_c, 1, 56, 45
3, 91776, Note_on_c, 1, 56, 0
3, 91776, Note_on_c, 1, 57, 45
3, 91872, Note_on_c, 1, 57, 0
3, 91872, Note_on_c, 1, 56, 45
3, 91966, Note_on_c, 1, 56, 0
3, 92064, Note_on_c, 1, 57, 45
3, 92160, Note_on_c, 1, 57, 0
3, 92160, Note_on_c, 1, 56, 45
3, 92256, Note_on_c, 1, 56, 0
3, 92256, Note_on_c, 1, 57, 45
3, 92350, Note_on_c, 1, 57, 0
3, 92448, Note_on_c, 1, 50, 45
3, 92544, Note_on_c, 1, 50, 0
3, 92544, Note_on_c, 1, 49, 45
3, 92640, Note_on_c, 1, 49, 0
3, 92640, Note_on_c, 1, 50, 45
3, 92734, Note_on_c, 1, 50, 0
3, 92832, Note_on_c, 1, 52, 45
3, 92928, Note_on_c, 1, 52, 0
3, 92928, Note_on_c, 1, 51, 45
3, 93024, Note_on_c, 1, 51, 0
3, 93024, Note_on_c, 1, 52, 45
3, 93118, Note_on_c, 1, 52, 0
3, 93216, Note_on_c, 1, 52, 45
3, 93312, Note_on_c, 1, 52, 0
3, 93312, Note_on_c, 1, 51, 45
3, 93408, Note_on_c, 1, 51, 0
3, 93408, Note_on_c, 1, 52, 45
3, 93502, Note_on_c, 1, 52, 0
3, 93504, Note_on_c, 1, 45, 45
3, 93598, Note_on_c, 1, 45, 0
3, 93600, Note_on_c, 1, 57, 45
3, 93694, Note_on_c, 1, 57, 0
3, 93696, Note_on_c, 1, 52, 92
3, 93790, Note_on_c, 1, 52, 0
3, 93792, Note_on_c, 1, 64, 92
3, 93886, Note_on_c, 1, 64, 0
3, 93888, Note_on_c, 1, 45, 92
3, 93982, Note_on_c, 1, 45, 0
3, 93984, Note_on_c, 1, 57, 92
3, 94078, Note_on_c, 1, 57, 0
3, 94080, Note_on_c, 1, 52, 92
3, 94174, Note_on_c, 1, 52, 0
3, 94176, Note_on_c, 1, 64, 92
3, 94270, Note_on_c, 1, 64, 0
3, 94272, Note_on_c, 1, 57, 92
3, 94432, Note_on_c, 1, 57, 0
3, 94464, Note_on_c, 1, 45, 92
3, 94606, Note_on_c, 1, 45, 0
3, 94608, Note_on_c, 1, 45, 92
3, 94654, Note_on_c, 1, 45, 0
3, 94656, Note_on_c, 1, 45, 92
3, 94816, Note_on_c, 1, 45, 0
3, 94816, End_track
0, 0, End_of_file