0, 0, Header, 1, 12, 120
1, 0, Start_track
1, 0, Time_signature, 4, 2, 24, 8
1, 0, Key_signature, 0, "major"
1, 0, Tempo, 1000000
1, 0, Marker_t, "kyrie"
1, 38880, Key_signature, -4, "major"
1, 38880, End_track
2, 0, Start_track
2, 0, MIDI_port, 0
2, 0, Title_t, "accomp"
2, 0, Program_c, 0, 1
2, 0, Note_on_c, 0, 79, 88
2, 0, Note_on_c, 0, 67, 88
2, 0, Note_on_c, 0, 72, 88
2, 0, Note_on_c, 0, 76, 88
2, 91, Note_on_c, 0, 67, 0
2, 94, Note_on_c, 0, 72, 0
2, 95, Note_on_c, 0, 76, 0
2, 96, Note_on_c, 0, 79, 0
2, 120, Note_on_c, 0, 72, 88
2, 143, Note_on_c, 0, 72, 0
2, 180, Note_on_c, 0, 76, 88
2, 195, Note_on_c, 0, 76, 0
2, 240, Note_on_c, 0, 79, 78
2, 257, Note_on_c, 0, 79, 0
2, 300, Note_on_c, 0, 60, 88
2, 320, Note_on_c, 0, 60, 0
2, 345, Note_on_c, 0, 60, 78
2, 360, Note_on_c, 0, 64, 98
2, 362, Note_on_c, 0, 60, 0
2, 382, Note_on_c, 0, 64, 0
2, 405, Note_on_c, 0, 64, 88
2, 417, Note_on_c, 0, 64, 0
2, 420, Note_on_c, 0, 67, 98
2, 437, Note_on_c, 0, 67, 0
2, 465, Note_on_c, 0, 67, 55
2, 476, Note_on_c, 0, 67, 0
2, 480, Note_on_c, 0, 79, 98
2, 480, Note_on_c, 0, 67, 98
2, 480, Note_on_c, 0, 74, 110
2, 480, Note_on_c, 0, 77, 98
2, 568, Note_on_c, 0, 67, 0
2, 569, Note_on_c, 0, 74, 0
2, 571, Note_on_c, 0, 79, 0
2, 573, Note_on_c, 0, 77, 0
2, 600, Note_on_c, 0, 71, 88
2, 635, Note_on_c, 0, 71, 0
2, 660, Note_on_c, 0, 74, 88
2, 682, Note_on_c, 0, 74, 0
2, 720, Note_on_c, 0, 79, 78
2, 749, Note_on_c, 0, 79, 0
2, 780, Note_on_c, 0, 59, 88
2, 809, Note_on_c, 0, 59, 0
2, 825, Note_on_c, 0, 59, 62
2, 840, Note_on_c, 0, 62, 98
2, 841, Note_on_c, 0, 59, 0
2, 865, Note_on_c, 0, 62, 0
2, 885, Note_on_c, 0, 62, 62
2, 897, Note_on_c, 0, 62, 0
2, 900, Note_on_c, 0, 67, 98
2, 921, Note_on_c, 0, 67, 0
2, 945, Note_on_c, 0, 67, 62
2, 948, Note_on_c, 0, 67, 0
2, 960, Note_on_c, 0, 76, 98
2, 960, Note_on_c, 0, 84, 98
2, 960, Note_on_c, 0, 72, 98
2, 960, Note_on_c, 0, 79, 70
2, 1058, Note_on_c, 0, 72, 0
2, 1058, Note_on_c, 0, 76, 0
2, 1060, Note_on_c, 0, 79, 0
2, 1062, Note_on_c, 0, 84, 0
2, 1080, Note_on_c, 0, 76, 98
2, 1108, Note_on_c, 0, 76, 0
2, 1140, Note_on_c, 0, 79, 88
2, 1162, Note_on_c, 0, 79, 0
2, 1200, Note_on_c, 0, 84, 98
2, 1230, Note_on_c, 0, 84, 0
2, 1260, Note_on_c, 0, 58, 98
2, 1287, Note_on_c, 0, 58, 0
2, 1305, Note_on_c, 0, 58, 78
2, 1319, Note_on_c, 0, 58, 0
2, 1320, Note_on_c, 0, 64, 88
2, 1343, Note_on_c, 0, 64, 0
2, 1365, Note_on_c, 0, 64, 55
2, 1379, Note_on_c, 0, 64, 0
2, 1380, Note_on_c, 0, 67, 88
2, 1397, Note_on_c, 0, 67, 0
2, 1425, Note_on_c, 0, 67, 62
2, 1429, Note_on_c, 0, 67, 0
2, 1440, Note_on_c, 0, 72, 78
2, 1440, Note_on_c, 0, 84, 88
2, 1440, Note_on_c, 0, 77, 88
2, 1485, Note_on_c, 0, 77, 0
2, 1498, Note_on_c, 0, 72, 0
2, 1500, Note_on_c, 0, 77, 78
2, 1526, Note_on_c, 0, 77, 0
2, 1545, Note_on_c, 0, 77, 62
2, 1556, Note_on_c, 0, 77, 0
2, 1560, Note_on_c, 0, 80, 98
2, 1578, Note_on_c, 0, 80, 0
2, 1596, Note_on_c, 0, 84, 0
2, 1605, Note_on_c, 0, 80, 62
2, 1620, Note_on_c, 0, 84, 98
2, 1621, Note_on_c, 0, 80, 0
2, 1641, Note_on_c, 0, 84, 0
2, 1665, Note_on_c, 0, 84, 62
2, 1674, Note_on_c, 0, 84, 0
2, 1680, Note_on_c, 0, 84, 98
2, 1680, Note_on_c, 0, 75, 98
2, 1680, Note_on_c, 0, 72, 78
2, 1680, Note_on_c, 0, 79, 70
2, 1726, Note_on_c, 0, 75, 0
2, 1729, Note_on_c, 0, 84, 0
2, 1730, Note_on_c, 0, 72, 0
2, 1731, Note_on_c, 0, 79, 0
2, 1740, Note_on_c, 0, 75, 110
2, 1764, Note_on_c, 0, 75, 0
2, 1785, Note_on_c, 0, 75, 70
2, 1799, Note_on_c, 0, 75, 0
2, 1800, Note_on_c, 0, 79, 88
2, 1828, Note_on_c, 0, 79, 0
2, 1845, Note_on_c, 0, 79, 49
2, 1860, Note_on_c, 0, 84, 98
2, 1863, Note_on_c, 0, 79, 0
2, 1879, Note_on_c, 0, 84, 0
2, 1905, Note_on_c, 0, 84, 62
2, 1913, Note_on_c, 0, 84, 0
2, 1920, Note_on_c, 0, 84, 98
2, 1920, Note_on_c, 0, 81, 98
2, 1920, Note_on_c, 0, 74, 98
2, 1971, Note_on_c, 0, 74, 0
2, 1980, Note_on_c, 0, 74, 98
2, 1981, Note_on_c, 0, 81, 0
2, 1984, Note_on_c, 0, 84, 0
2, 2007, Note_on_c, 0, 74, 0
2, 2025, Note_on_c, 0, 74, 70
2, 2037, Note_on_c, 0, 74, 0
2, 2040, Note_on_c, 0, 81, 88
2, 2069, Note_on_c, 0, 81, 0
2, 2085, Note_on_c, 0, 81, 55
2, 2096, Note_on_c, 0, 81, 0
2, 2100, Note_on_c, 0, 84, 98
2, 2121, Note_on_c, 0, 84, 0
2, 2145, Note_on_c, 0, 84, 19
2, 2149, Note_on_c, 0, 84, 0
2, 2160, Note_on_c, 0, 83, 98
2, 2160, Note_on_c, 0, 79, 88
2, 2160, Note_on_c, 0, 74, 98
2, 2211, Note_on_c, 0, 79, 0
2, 2213, Note_on_c, 0, 83, 0
2, 2214, Note_on_c, 0, 74, 0
2, 2280, Note_on_c, 0, 71, 78
2, 2310, Note_on_c, 0, 72, 62
2, 2313, Note_on_c, 0, 71, 0
2, 2336, Note_on_c, 0, 72, 0
2, 2340, Note_on_c, 0, 73, 70
2, 2369, Note_on_c, 0, 73, 0
2, 2370, Note_on_c, 0, 74, 62
2, 2388, Note_on_c, 0, 74, 0
2, 2400, Note_on_c, 0, 74, 70
2, 2470, Note_on_c, 0, 74, 0
2, 2520, Note_on_c, 0, 74, 62
2, 2550, Note_on_c, 0, 76, 62
2, 2553, Note_on_c, 0, 74, 0
2, 2564, Note_on_c, 0, 76, 0
2, 2580, Note_on_c, 0, 76, 49
2, 2610, Note_on_c, 0, 76, 0
2, 2610, Note_on_c, 0, 77, 55
2, 2623, Note_on_c, 0, 77, 0
2, 2640, Note_on_c, 0, 77, 62
2, 2699, Note_on_c, 0, 77, 0
2, 2760, Note_on_c, 0, 77, 88
2, 2789, Note_on_c, 0, 77, 0
2, 2790, Note_on_c, 0, 79, 62
2, 2818, Note_on_c, 0, 79, 0
2, 2820, Note_on_c, 0, 81, 35
2, 2847, Note_on_c, 0, 81, 0
2, 2850, Note_on_c, 0, 77, 44
2, 2878, Note_on_c, 0, 77, 0
2, 2880, Note_on_c, 0, 74, 98
2, 2910, Note_on_c, 0, 76, 35
2, 2916, Note_on_c, 0, 74, 0
2, 2937, Note_on_c, 0, 76, 0
2, 2940, Note_on_c, 0, 77, 17
2, 2969, Note_on_c, 0, 77, 0
2, 2970, Note_on_c, 0, 74, 35
2, 2998, Note_on_c, 0, 74, 0
2, 3000, Note_on_c, 0, 71, 88
2, 3030, Note_on_c, 0, 72, 24
2, 3033, Note_on_c, 0, 71, 0
2, 3054, Note_on_c, 0, 72, 0
2, 3060, Note_on_c, 0, 74, 19
2, 3087, Note_on_c, 0, 74, 0
2, 3090, Note_on_c, 0, 71, 24
2, 3104, Note_on_c, 0, 71, 0
2, 3120, Note_on_c, 0, 76, 88
2, 3120, Note_on_c, 0, 72, 78
2, 3150, Note_on_c, 0, 72, 0
2, 3150, Note_on_c, 0, 64, 39
2, 3175, Note_on_c, 0, 64, 0
2, 3179, Note_on_c, 0, 76, 0
2, 3180, Note_on_c, 0, 67, 44
2, 3207, Note_on_c, 0, 67, 0
2, 3210, Note_on_c, 0, 64, 24
2, 3238, Note_on_c, 0, 64, 0
2, 3240, Note_on_c, 0, 67, 24
2, 3270, Note_on_c, 0, 67, 0
2, 3270, Note_on_c, 0, 64, 24
2, 3297, Note_on_c, 0, 64, 0
2, 3300, Note_on_c, 0, 65, 4
2, 3320, Note_on_c, 0, 65, 0
2, 3360, Note_on_c, 0, 76, 70
2, 3388, Note_on_c, 0, 76, 0
2, 3390, Note_on_c, 0, 64, 44
2, 3420, Note_on_c, 0, 67, 44
2, 3421, Note_on_c, 0, 64, 0
2, 3448, Note_on_c, 0, 67, 0
2, 3450, Note_on_c, 0, 64, 39
2, 3475, Note_on_c, 0, 64, 0
2, 3480, Note_on_c, 0, 67, 9
2, 3510, Note_on_c, 0, 64, 19
2, 3513, Note_on_c, 0, 67, 0
2, 3517, Note_on_c, 0, 64, 0
2, 3540, Note_on_c, 0, 77, 44
2, 3565, Note_on_c, 0, 77, 0
2, 3585, Note_on_c, 0, 74, 44
2, 3600, Note_on_c, 0, 72, 62
2, 3605, Note_on_c, 0, 74, 0
2, 3630, Note_on_c, 0, 64, 44
2, 3654, Note_on_c, 0, 64, 0
2, 3660, Note_on_c, 0, 67, 49
2, 3686, Note_on_c, 0, 67, 0
2, 3690, Note_on_c, 0, 64, 35
2, 3693, Note_on_c, 0, 72, 0
2, 3715, Note_on_c, 0, 64, 0
2, 3720, Note_on_c, 0, 67, 49
2, 3720, Note_on_c, 0, 72, 44
2, 3750, Note_on_c, 0, 64, 39
2, 3757, Note_on_c, 0, 67, 0
2, 3780, Note_on_c, 0, 74, 49
2, 3781, Note_on_c, 0, 72, 0
2, 3829, Note_on_c, 0, 74, 0
2, 3830, Note_on_c, 0, 64, 0
2, 3840, Note_on_c, 0, 76, 62
2, 3870, Note_on_c, 0, 64, 28
2, 3889, Note_on_c, 0, 64, 0
2, 3900, Note_on_c, 0, 67, 28
2, 3919, Note_on_c, 0, 67, 0
2, 3929, Note_on_c, 0, 76, 0
2, 3930, Note_on_c, 0, 64, 22
2, 3957, Note_on_c, 0, 64, 0
2, 3960, Note_on_c, 0, 67, 35
2, 3988, Note_on_c, 0, 67, 0
2, 3990, Note_on_c, 0, 64, 49
2, 3998, Note_on_c, 0, 64, 0
2, 4020, Note_on_c, 0, 77, 55
2, 4020, Note_on_c, 0, 71, 70
2, 4048, Note_on_c, 0, 77, 0
2, 4050, Note_on_c, 0, 67, 39
2, 4052, Note_on_c, 0, 71, 0
2, 4065, Note_on_c, 0, 67, 0
2, 4065, Note_on_c, 0, 74, 49
2, 4076, Note_on_c, 0, 74, 0
2, 4080, Note_on_c, 0, 72, 62
2, 4110, Note_on_c, 0, 64, 44
2, 4126, Note_on_c, 0, 64, 0
2, 4140, Note_on_c, 0, 67, 44
2, 4166, Note_on_c, 0, 67, 0
2, 4170, Note_on_c, 0, 72, 0
2, 4170, Note_on_c, 0, 64, 39
2, 4183, Note_on_c, 0, 64, 0
2, 4230, Note_on_c, 0, 62, 35
2, 4260, Note_on_c, 0, 62, 0
2, 4260, Note_on_c, 0, 64, 44
2, 4260, Note_on_c, 0, 68, 62
2, 4288, Note_on_c, 0, 68, 0
2, 4289, Note_on_c, 0, 64, 0
2, 4290, Note_on_c, 0, 62, 44
2, 4305, Note_on_c, 0, 62, 0
2, 4350, Note_on_c, 0, 60, 49
2, 4380, Note_on_c, 0, 60, 0
2, 4380, Note_on_c, 0, 64, 39
2, 4380, Note_on_c, 0, 69, 44
2, 4410, Note_on_c, 0, 69, 0
2, 4410, Note_on_c, 0, 64, 0
2, 4410, Note_on_c, 0, 60, 49
2, 4428, Note_on_c, 0, 60, 0
2, 4470, Note_on_c, 0, 59, 44
2, 4500, Note_on_c, 0, 59, 0
2, 4500, Note_on_c, 0, 62, 55
2, 4500, Note_on_c, 0, 65, 55
2, 4530, Note_on_c, 0, 65, 0
2, 4530, Note_on_c, 0, 59, 44
2, 4531, Note_on_c, 0, 62, 0
2, 4546, Note_on_c, 0, 59, 0
2, 4590, Note_on_c, 0, 57, 55
2, 4619, Note_on_c, 0, 57, 0
2, 4620, Note_on_c, 0, 60, 49
2, 4620, Note_on_c, 0, 64, 49
2, 4650, Note_on_c, 0, 64, 0
2, 4650, Note_on_c, 0, 60, 0
2, 4650, Note_on_c, 0, 57, 49
2, 4662, Note_on_c, 0, 57, 0
2, 4710, Note_on_c, 0, 59, 35
2, 4740, Note_on_c, 0, 68, 62
2, 4740, Note_on_c, 0, 64, 44
2, 4741, Note_on_c, 0, 59, 0
2, 4767, Note_on_c, 0, 64, 0
2, 4767, Note_on_c, 0, 68, 0
2, 4770, Note_on_c, 0, 62, 44
2, 4786, Note_on_c, 0, 62, 0
2, 4800, Note_on_c, 0, 69, 62
2, 4830, Note_on_c, 0, 68, 55
2, 4832, Note_on_c, 0, 69, 0
2, 4856, Note_on_c, 0, 68, 0
2, 4860, Note_on_c, 0, 69, 13
2, 4890, Note_on_c, 0, 69, 0
2, 4890, Note_on_c, 0, 71, 49
2, 4919, Note_on_c, 0, 71, 0
2, 4920, Note_on_c, 0, 72, 49
2, 4950, Note_on_c, 0, 71, 30
2, 4951, Note_on_c, 0, 72, 0
2, 4980, Note_on_c, 0, 72, 49
2, 4981, Note_on_c, 0, 71, 0
2, 5006, Note_on_c, 0, 72, 0
2, 5010, Note_on_c, 0, 73, 62
2, 5035, Note_on_c, 0, 73, 0
2, 5040, Note_on_c, 0, 74, 70
2, 5070, Note_on_c, 0, 62, 49
2, 5071, Note_on_c, 0, 74, 0
2, 5100, Note_on_c, 0, 66, 78
2, 5100, Note_on_c, 0, 69, 49
2, 5101, Note_on_c, 0, 62, 0
2, 5128, Note_on_c, 0, 69, 0
2, 5129, Note_on_c, 0, 66, 0
2, 5130, Note_on_c, 0, 62, 44
2, 5139, Note_on_c, 0, 62, 0
2, 5190, Note_on_c, 0, 57, 49
2, 5220, Note_on_c, 0, 57, 0
2, 5220, Note_on_c, 0, 66, 70
2, 5220, Note_on_c, 0, 69, 49
2, 5250, Note_on_c, 0, 66, 0
2, 5250, Note_on_c, 0, 57, 49
2, 5251, Note_on_c, 0, 69, 0
2, 5261, Note_on_c, 0, 57, 0
2, 5310, Note_on_c, 0, 59, 39
2, 5340, Note_on_c, 0, 59, 0
2, 5340, Note_on_c, 0, 67, 44
2, 5340, Note_on_c, 0, 71, 49
2, 5369, Note_on_c, 0, 71, 0
2, 5370, Note_on_c, 0, 67, 0
2, 5370, Note_on_c, 0, 62, 62
2, 5384, Note_on_c, 0, 62, 0
2, 5430, Note_on_c, 0, 60, 44
2, 5460, Note_on_c, 0, 69, 49
2, 5460, Note_on_c, 0, 64, 49
2, 5462, Note_on_c, 0, 60, 0
2, 5489, Note_on_c, 0, 64, 0
2, 5490, Note_on_c, 0, 60, 44
2, 5491, Note_on_c, 0, 69, 0
2, 5502, Note_on_c, 0, 60, 0
2, 5550, Note_on_c, 0, 59, 44
2, 5580, Note_on_c, 0, 67, 49
2, 5580, Note_on_c, 0, 62, 49
2, 5581, Note_on_c, 0, 59, 0
2, 5608, Note_on_c, 0, 62, 0
2, 5610, Note_on_c, 0, 67, 0
2, 5610, Note_on_c, 0, 59, 49
2, 5622, Note_on_c, 0, 59, 0
2, 5670, Note_on_c, 0, 60, 44
2, 5699, Note_on_c, 0, 60, 0
2, 5700, Note_on_c, 0, 66, 62
2, 5700, Note_on_c, 0, 62, 28
2, 5728, Note_on_c, 0, 62, 0
2, 5729, Note_on_c, 0, 66, 0
2, 5730, Note_on_c, 0, 60, 39
2, 5742, Note_on_c, 0, 60, 0
2, 5790, Note_on_c, 0, 67, 62
2, 5815, Note_on_c, 0, 67, 0
2, 5820, Note_on_c, 0, 66, 55
2, 5848, Note_on_c, 0, 66, 0
2, 5850, Note_on_c, 0, 67, 62
2, 5878, Note_on_c, 0, 67, 0
2, 5880, Note_on_c, 0, 71, 55
2, 5909, Note_on_c, 0, 71, 0
2, 5910, Note_on_c, 0, 74, 55
2, 5940, Note_on_c, 0, 78, 70
2, 5946, Note_on_c, 0, 74, 0
2, 5969, Note_on_c, 0, 78, 0
2, 5970, Note_on_c, 0, 79, 44
2, 5999, Note_on_c, 0, 79, 0
2, 6000, Note_on_c, 0, 81, 62
2, 6029, Note_on_c, 0, 81, 0
2, 6060, Note_on_c, 0, 73, 78
2, 6089, Note_on_c, 0, 73, 0
2, 6090, Note_on_c, 0, 64, 44
2, 6115, Note_on_c, 0, 64, 0
2, 6150, Note_on_c, 0, 62, 62
2, 6180, Note_on_c, 0, 62, 0
2, 6180, Note_on_c, 0, 74, 62
2, 6180, Note_on_c, 0, 65, 70
2, 6209, Note_on_c, 0, 65, 0
2, 6209, Note_on_c, 0, 74, 0
2, 6210, Note_on_c, 0, 62, 44
2, 6227, Note_on_c, 0, 62, 0
2, 6270, Note_on_c, 0, 59, 62
2, 6299, Note_on_c, 0, 59, 0
2, 6300, Note_on_c, 0, 67, 55
2, 6300, Note_on_c, 0, 62, 55
2, 6329, Note_on_c, 0, 67, 0
2, 6330, Note_on_c, 0, 62, 0
2, 6330, Note_on_c, 0, 59, 55
2, 6343, Note_on_c, 0, 59, 0
2, 6390, Note_on_c, 0, 60, 55
2, 6418, Note_on_c, 0, 60, 0
2, 6420, Note_on_c, 0, 67, 44
2, 6420, Note_on_c, 0, 64, 49
2, 6449, Note_on_c, 0, 64, 0
2, 6450, Note_on_c, 0, 67, 0
2, 6450, Note_on_c, 0, 60, 62
2, 6459, Note_on_c, 0, 60, 0
2, 6510, Note_on_c, 0, 55, 49
2, 6540, Note_on_c, 0, 62, 49
2, 6540, Note_on_c, 0, 65, 49
2, 6541, Note_on_c, 0, 55, 0
2, 6562, Note_on_c, 0, 65, 0
2, 6567, Note_on_c, 0, 62, 0
2, 6570, Note_on_c, 0, 55, 39
2, 6598, Note_on_c, 0, 55, 0
2, 6600, Note_on_c, 0, 62, 55
2, 6600, Note_on_c, 0, 65, 44
2, 6627, Note_on_c, 0, 62, 0
2, 6630, Note_on_c, 0, 65, 0
2, 6630, Note_on_c, 0, 55, 44
2, 6660, Note_on_c, 0, 55, 0
2, 6660, Note_on_c, 0, 64, 44
2, 6660, Note_on_c, 0, 60, 55
2, 6687, Note_on_c, 0, 64, 0
2, 6688, Note_on_c, 0, 60, 0
2, 6690, Note_on_c, 0, 55, 44
2, 6702, Note_on_c, 0, 55, 0
2, 6750, Note_on_c, 0, 67, 55
2, 6779, Note_on_c, 0, 67, 0
2, 6780, Note_on_c, 0, 66, 62
2, 6797, Note_on_c, 0, 66, 0
2, 6810, Note_on_c, 0, 67, 55
2, 6840, Note_on_c, 0, 69, 62
2, 6841, Note_on_c, 0, 67, 0
2, 6870, Note_on_c, 0, 71, 49
2, 6871, Note_on_c, 0, 69, 0
2, 6899, Note_on_c, 0, 71, 0
2, 6900, Note_on_c, 0, 72, 49
2, 6926, Note_on_c, 0, 72, 0
2, 6930, Note_on_c, 0, 74, 39
2, 6955, Note_on_c, 0, 74, 0
2, 6960, Note_on_c, 0, 75, 70
2, 6989, Note_on_c, 0, 75, 0
2, 6990, Note_on_c, 0, 63, 62
2, 7020, Note_on_c, 0, 63, 0
2, 7020, Note_on_c, 0, 67, 44
2, 7048, Note_on_c, 0, 67, 0
2, 7050, Note_on_c, 0, 63, 55
2, 7075, Note_on_c, 0, 63, 0
2, 7080, Note_on_c, 0, 67, 55
2, 7110, Note_on_c, 0, 63, 55
2, 7113, Note_on_c, 0, 67, 0
2, 7135, Note_on_c, 0, 63, 0
2, 7140, Note_on_c, 0, 62, 55
2, 7140, Note_on_c, 0, 65, 44
2, 7170, Note_on_c, 0, 65, 0
2, 7170, Note_on_c, 0, 59, 55
2, 7173, Note_on_c, 0, 62, 0
2, 7183, Note_on_c, 0, 59, 0
2, 7230, Note_on_c, 0, 60, 55
2, 7255, Note_on_c, 0, 60, 0
2, 7260, Note_on_c, 0, 63, 55
2, 7260, Note_on_c, 0, 67, 44
2, 7281, Note_on_c, 0, 67, 0
2, 7289, Note_on_c, 0, 63, 0
2, 7290, Note_on_c, 0, 60, 39
2, 7318, Note_on_c, 0, 60, 0
2, 7320, Note_on_c, 0, 67, 49
2, 7320, Note_on_c, 0, 63, 62
2, 7350, Note_on_c, 0, 60, 44
2, 7351, Note_on_c, 0, 63, 0
2, 7352, Note_on_c, 0, 67, 0
2, 7380, Note_on_c, 0, 65, 49
2, 7380, Note_on_c, 0, 62, 44
2, 7381, Note_on_c, 0, 60, 0
2, 7410, Note_on_c, 0, 59, 49
2, 7412, Note_on_c, 0, 65, 0
2, 7413, Note_on_c, 0, 62, 0
2, 7418, Note_on_c, 0, 59, 0
2, 7440, Note_on_c, 0, 79, 78
2, 7632, Note_on_c, 0, 79, 0
2, 7680, Note_on_c, 0, 72, 62
2, 7710, Note_on_c, 0, 60, 39
2, 7711, Note_on_c, 0, 72, 0
2, 7739, Note_on_c, 0, 60, 0
2, 7740, Note_on_c, 0, 67, 44
2, 7740, Note_on_c, 0, 64, 28
2, 7766, Note_on_c, 0, 64, 0
2, 7767, Note_on_c, 0, 67, 0
2, 7770, Note_on_c, 0, 60, 39
2, 7798, Note_on_c, 0, 60, 0
2, 7800, Note_on_c, 0, 64, 39
2, 7800, Note_on_c, 0, 67, 39
2, 7830, Note_on_c, 0, 60, 35
2, 7831, Note_on_c, 0, 67, 0
2, 7831, Note_on_c, 0, 64, 0
2, 7860, Note_on_c, 0, 62, 55
2, 7860, Note_on_c, 0, 65, 15
2, 7862, Note_on_c, 0, 60, 0
2, 7887, Note_on_c, 0, 62, 0
2, 7888, Note_on_c, 0, 65, 0
2, 7890, Note_on_c, 0, 59, 39
2, 7905, Note_on_c, 0, 59, 0
2, 7950, Note_on_c, 0, 64, 49
2, 7977, Note_on_c, 0, 64, 0
2, 7980, Note_on_c, 0, 67, 49
2, 8010, Note_on_c, 0, 67, 0
2, 8010, Note_on_c, 0, 64, 49
2, 8022, Note_on_c, 0, 64, 0
2, 8070, Note_on_c, 0, 62, 44
2, 8100, Note_on_c, 0, 68, 62
2, 8100, Note_on_c, 0, 64, 28
2, 8101, Note_on_c, 0, 62, 0
2, 8127, Note_on_c, 0, 64, 0
2, 8130, Note_on_c, 0, 68, 0
2, 8130, Note_on_c, 0, 62, 44
2, 8145, Note_on_c, 0, 62, 0
2, 8190, Note_on_c, 0, 60, 35
2, 8220, Note_on_c, 0, 60, 0
2, 8220, Note_on_c, 0, 64, 44
2, 8220, Note_on_c, 0, 69, 35
2, 8248, Note_on_c, 0, 64, 0
2, 8250, Note_on_c, 0, 60, 35
2, 8251, Note_on_c, 0, 69, 0
2, 8263, Note_on_c, 0, 60, 0
2, 8310, Note_on_c, 0, 62, 35
2, 8310, Note_on_c, 0, 65, 44
2, 8335, Note_on_c, 0, 65, 0
2, 8340, Note_on_c, 0, 64, 44
2, 8340, Note_on_c, 0, 67, 24
2, 8341, Note_on_c, 0, 62, 0
2, 8358, Note_on_c, 0, 67, 0
2, 8367, Note_on_c, 0, 64, 0
2, 8370, Note_on_c, 0, 65, 62
2, 8370, Note_on_c, 0, 69, 55
2, 8379, Note_on_c, 0, 65, 0
2, 8380, Note_on_c, 0, 69, 0
2, 8430, Note_on_c, 0, 55, 62
2, 8460, Note_on_c, 0, 60, 55
2, 8460, Note_on_c, 0, 64, 55
2, 8463, Note_on_c, 0, 55, 0
2, 8473, Note_on_c, 0, 60, 0
2, 8489, Note_on_c, 0, 64, 0
2, 8490, Note_on_c, 0, 60, 49
2, 8504, Note_on_c, 0, 60, 0
2, 8550, Note_on_c, 0, 65, 49
2, 8550, Note_on_c, 0, 62, 49
2, 8574, Note_on_c, 0, 65, 0
2, 8579, Note_on_c, 0, 62, 0
2, 8580, Note_on_c, 0, 59, 39
2, 8610, Note_on_c, 0, 65, 44
2, 8610, Note_on_c, 0, 62, 44
2, 8611, Note_on_c, 0, 59, 0
2, 8620, Note_on_c, 0, 62, 0
2, 8622, Note_on_c, 0, 65, 0
2, 8640, Note_on_c, 0, 84, 70
2, 8760, Note_on_c, 0, 76, 62
2, 8872, Note_on_c, 0, 84, 0
2, 8873, Note_on_c, 0, 76, 0
2, 8880, Note_on_c, 0, 77, 70
2, 9000, Note_on_c, 0, 82, 78
2, 9001, Note_on_c, 0, 77, 0
2, 9120, Note_on_c, 0, 81, 70
2, 9120, Note_on_c, 0, 84, 78
2, 9122, Note_on_c, 0, 82, 0
2, 9180, Note_on_c, 0, 83, 49
2, 9180, Note_on_c, 0, 79, 39
2, 9182, Note_on_c, 0, 84, 0
2, 9184, Note_on_c, 0, 81, 0
2, 9206, Note_on_c, 0, 83, 0
2, 9210, Note_on_c, 0, 79, 0
2, 9210, Note_on_c, 0, 77, 55
2, 9210, Note_on_c, 0, 81, 55
2, 9233, Note_on_c, 0, 77, 0
2, 9240, Note_on_c, 0, 81, 70
2, 9240, Note_on_c, 0, 77, 70
2, 9241, Note_on_c, 0, 81, 0
2, 9300, Note_on_c, 0, 79, 55
2, 9300, Note_on_c, 0, 76, 49
2, 9302, Note_on_c, 0, 81, 0
2, 9304, Note_on_c, 0, 77, 0
2, 9310, Note_on_c, 0, 79, 0
2, 9312, Note_on_c, 0, 76, 0
2, 9330, Note_on_c, 0, 77, 44
2, 9330, Note_on_c, 0, 74, 62
2, 9341, Note_on_c, 0, 77, 0
2, 9345, Note_on_c, 0, 74, 0
2, 9360, Note_on_c, 0, 72, 62
2, 9360, Note_on_c, 0, 76, 78
2, 9449, Note_on_c, 0, 72, 0
2, 9460, Note_on_c, 0, 76, 0
2, 9480, Note_on_c, 0, 74, 62
2, 9480, Note_on_c, 0, 71, 70
2, 9569, Note_on_c, 0, 71, 0
2, 9577, Note_on_c, 0, 74, 0
2, 9600, Note_on_c, 0, 72, 98
2, 9600, Note_on_c, 0, 60, 98
2, 9698, Note_on_c, 0, 72, 0
2, 9703, Note_on_c, 0, 60, 0
2, 9720, Note_on_c, 0, 72, 78
2, 9779, Note_on_c, 0, 72, 0
2, 9780, Note_on_c, 0, 76, 62
2, 9840, Note_on_c, 0, 79, 88
2, 9846, Note_on_c, 0, 76, 0
2, 9879, Note_on_c, 0, 79, 0
2, 9900, Note_on_c, 0, 60, 88
2, 9914, Note_on_c, 0, 60, 0
2, 9945, Note_on_c, 0, 60, 110
2, 9960, Note_on_c, 0, 60, 0
2, 9960, Note_on_c, 0, 64, 88
2, 9974, Note_on_c, 0, 64, 0
2, 10005, Note_on_c, 0, 64, 70
2, 10020, Note_on_c, 0, 67, 88
2, 10022, Note_on_c, 0, 64, 0
2, 10037, Note_on_c, 0, 67, 0
2, 10065, Note_on_c, 0, 67, 39
2, 10070, Note_on_c, 0, 67, 0
2, 10080, Note_on_c, 0, 79, 98
2, 10080, Note_on_c, 0, 67, 98
2, 10080, Note_on_c, 0, 74, 70
2, 10080, Note_on_c, 0, 77, 39
2, 10085, Note_on_c, 0, 77, 0
2, 10168, Note_on_c, 0, 74, 0
2, 10170, Note_on_c, 0, 79, 0
2, 10172, Note_on_c, 0, 67, 0
2, 10200, Note_on_c, 0, 71, 88
2, 10240, Note_on_c, 0, 71, 0
2, 10260, Note_on_c, 0, 74, 78
2, 10289, Note_on_c, 0, 74, 0
2, 10320, Note_on_c, 0, 79, 88
2, 10349, Note_on_c, 0, 79, 0
2, 10380, Note_on_c, 0, 59, 98
2, 10396, Note_on_c, 0, 59, 0
2, 10425, Note_on_c, 0, 59, 88
2, 10439, Note_on_c, 0, 59, 0
2, 10440, Note_on_c, 0, 62, 88
2, 10459, Note_on_c, 0, 62, 0
2, 10485, Note_on_c, 0, 62, 70
2, 10500, Note_on_c, 0, 67, 70
2, 10501, Note_on_c, 0, 62, 0
2, 10512, Note_on_c, 0, 67, 0
2, 10545, Note_on_c, 0, 67, 70
2, 10550, Note_on_c, 0, 67, 0
2, 10560, Note_on_c, 0, 72, 98
2, 10560, Note_on_c, 0, 84, 88
2, 10560, Note_on_c, 0, 76, 88
2, 10560, Note_on_c, 0, 79, 55
2, 10646, Note_on_c, 0, 72, 0
2, 10647, Note_on_c, 0, 79, 0
2, 10647, Note_on_c, 0, 76, 0
2, 10655, Note_on_c, 0, 84, 0
2, 10680, Note_on_c, 0, 76, 88
2, 10719, Note_on_c, 0, 76, 0
2, 10740, Note_on_c, 0, 79, 78
2, 10770, Note_on_c, 0, 79, 0
2, 10800, Note_on_c, 0, 84, 98
2, 10846, Note_on_c, 0, 84, 0
2, 10860, Note_on_c, 0, 58, 98
2, 10875, Note_on_c, 0, 58, 0
2, 10905, Note_on_c, 0, 58, 88
2, 10920, Note_on_c, 0, 64, 88
2, 10922, Note_on_c, 0, 58, 0
2, 10940, Note_on_c, 0, 64, 0
2, 10965, Note_on_c, 0, 64, 62
2, 10980, Note_on_c, 0, 67, 62
2, 10983, Note_on_c, 0, 64, 0
2, 10994, Note_on_c, 0, 67, 0
2, 11025, Note_on_c, 0, 67, 28
2, 11030, Note_on_c, 0, 67, 0
2, 11040, Note_on_c, 0, 72, 88
2, 11040, Note_on_c, 0, 77, 98
2, 11040, Note_on_c, 0, 84, 88
2, 11085, Note_on_c, 0, 77, 0
2, 11090, Note_on_c, 0, 72, 0
2, 11097, Note_on_c, 0, 84, 0
2, 11100, Note_on_c, 0, 77, 70
2, 11122, Note_on_c, 0, 77, 0
2, 11145, Note_on_c, 0, 77, 55
2, 11160, Note_on_c, 0, 80, 78
2, 11161, Note_on_c, 0, 77, 0
2, 11177, Note_on_c, 0, 80, 0
2, 11205, Note_on_c, 0, 80, 62
2, 11218, Note_on_c, 0, 80, 0
2, 11220, Note_on_c, 0, 84, 88
2, 11238, Note_on_c, 0, 84, 0
2, 11265, Note_on_c, 0, 84, 55
2, 11276, Note_on_c, 0, 84, 0
2, 11280, Note_on_c, 0, 79, 78
2, 11280, Note_on_c, 0, 74, 78
2, 11280, Note_on_c, 0, 83, 98
2, 11292, Note_on_c, 0, 74, 0
2, 11320, Note_on_c, 0, 79, 0
2, 11325, Note_on_c, 0, 74, 55
2, 11333, Note_on_c, 0, 74, 0
2, 11340, Note_on_c, 0, 74, 88
2, 11348, Note_on_c, 0, 83, 0
2, 11364, Note_on_c, 0, 74, 0
2, 11385, Note_on_c, 0, 83, 78
2, 11396, Note_on_c, 0, 83, 0
2, 11400, Note_on_c, 0, 84, 88
2, 11400, Note_on_c, 0, 72, 78
2, 11400, Note_on_c, 0, 75, 98
2, 11419, Note_on_c, 0, 75, 0
2, 11421, Note_on_c, 0, 72, 0
2, 11445, Note_on_c, 0, 75, 70
2, 11453, Note_on_c, 0, 75, 0
2, 11460, Note_on_c, 0, 75, 88
2, 11467, Note_on_c, 0, 84, 0
2, 11474, Note_on_c, 0, 75, 0
2, 11505, Note_on_c, 0, 84, 62
2, 11517, Note_on_c, 0, 84, 0
2, 11520, Note_on_c, 0, 74, 110
2, 11520, Note_on_c, 0, 84, 98
2, 11520, Note_on_c, 0, 79, 98
2, 11559, Note_on_c, 0, 74, 0
2, 11580, Note_on_c, 0, 74, 88
2, 11581, Note_on_c, 0, 79, 0
2, 11594, Note_on_c, 0, 74, 0
2, 11609, Note_on_c, 0, 84, 0
2, 11625, Note_on_c, 0, 74, 55
2, 11633, Note_on_c, 0, 74, 0
2, 11640, Note_on_c, 0, 74, 98
2, 11640, Note_on_c, 0, 79, 98
2, 11640, Note_on_c, 0, 83, 98
2, 11663, Note_on_c, 0, 79, 0
2, 11669, Note_on_c, 0, 83, 0
2, 11676, Note_on_c, 0, 74, 0
2, 11685, Note_on_c, 0, 79, 49
2, 11695, Note_on_c, 0, 79, 0
2, 11700, Note_on_c, 0, 81, 88
2, 11700, Note_on_c, 0, 72, 98
2, 11700, Note_on_c, 0, 79, 78
2, 11717, Note_on_c, 0, 72, 0
2, 11723, Note_on_c, 0, 81, 0
2, 11724, Note_on_c, 0, 79, 0
2, 11745, Note_on_c, 0, 72, 78
2, 11756, Note_on_c, 0, 72, 0
2, 11760, Note_on_c, 0, 74, 110
2, 11760, Note_on_c, 0, 79, 78
2, 11760, Note_on_c, 0, 83, 88
2, 11793, Note_on_c, 0, 74, 0
2, 11820, Note_on_c, 0, 74, 88
2, 11830, Note_on_c, 0, 79, 0
2, 11834, Note_on_c, 0, 74, 0
2, 11865, Note_on_c, 0, 74, 55
2, 11868, Note_on_c, 0, 83, 0
2, 11877, Note_on_c, 0, 74, 0
2, 11880, Note_on_c, 0, 79, 78
2, 11903, Note_on_c, 0, 79, 0
2, 11925, Note_on_c, 0, 79, 62
2, 11939, Note_on_c, 0, 79, 0
2, 11940, Note_on_c, 0, 83, 88
2, 11957, Note_on_c, 0, 83, 0
2, 11985, Note_on_c, 0, 83, 62
2, 12000, Note_on_c, 0, 83, 0
2, 12000, Note_on_c, 0, 84, 88
2, 12000, Note_on_c, 0, 76, 78
2, 12000, Note_on_c, 0, 72, 88
2, 12000, Note_on_c, 0, 79, 78
2, 12039, Note_on_c, 0, 72, 0
2, 12075, Note_on_c, 0, 76, 0
2, 12083, Note_on_c, 0, 79, 0
2, 12089, Note_on_c, 0, 84, 0
2, 12120, Note_on_c, 0, 72, 98
2, 12153, Note_on_c, 0, 72, 0
2, 12180, Note_on_c, 0, 76, 88
2, 12201, Note_on_c, 0, 76, 0
2, 12240, Note_on_c, 0, 79, 98
2, 12270, Note_on_c, 0, 79, 0
2, 12300, Note_on_c, 0, 76, 98
2, 12317, Note_on_c, 0, 76, 0
2, 12345, Note_on_c, 0, 76, 70
2, 12358, Note_on_c, 0, 76, 0
2, 12360, Note_on_c, 0, 79, 88
2, 12379, Note_on_c, 0, 79, 0
2, 12405, Note_on_c, 0, 79, 62
2, 12419, Note_on_c, 0, 79, 0
2, 12420, Note_on_c, 0, 84, 78
2, 12438, Note_on_c, 0, 84, 0
2, 12465, Note_on_c, 0, 84, 70
2, 12480, Note_on_c, 0, 81, 98
2, 12481, Note_on_c, 0, 84, 0
2, 12512, Note_on_c, 0, 81, 0
2, 12960, Note_on_c, 0, 60, 110
2, 12960, Note_on_c, 0, 72, 110
2, 13026, Note_on_c, 0, 72, 0
2, 13026, Note_on_c, 0, 60, 0
2, 13080, Note_on_c, 0, 72, 62
2, 13104, Note_on_c, 0, 72, 0
2, 13140, Note_on_c, 0, 76, 49
2, 13160, Note_on_c, 0, 76, 0
2, 13200, Note_on_c, 0, 79, 49
2, 13222, Note_on_c, 0, 79, 0
2, 13260, Note_on_c, 0, 76, 70
2, 13273, Note_on_c, 0, 76, 0
2, 13305, Note_on_c, 0, 76, 44
2, 13320, Note_on_c, 0, 79, 70
2, 13321, Note_on_c, 0, 76, 0
2, 13334, Note_on_c, 0, 79, 0
2, 13365, Note_on_c, 0, 79, 35
2, 13380, Note_on_c, 0, 79, 0
2, 13380, Note_on_c, 0, 84, 70
2, 13392, Note_on_c, 0, 84, 0
2, 13425, Note_on_c, 0, 84, 49
2, 13436, Note_on_c, 0, 84, 0
2, 13440, Note_on_c, 0, 81, 88
2, 13456, Note_on_c, 0, 81, 0
2, 13920, Note_on_c, 0, 76, 62
2, 13920, Note_on_c, 0, 72, 62
2, 14088, Note_on_c, 0, 76, 0
2, 14093, Note_on_c, 0, 72, 0
2, 14100, Note_on_c, 0, 74, 62
2, 14100, Note_on_c, 0, 77, 30
2, 14114, Note_on_c, 0, 74, 0
2, 14126, Note_on_c, 0, 77, 0
2, 14145, Note_on_c, 0, 74, 49
2, 14145, Note_on_c, 0, 71, 39
2, 14158, Note_on_c, 0, 71, 0
2, 14158, Note_on_c, 0, 74, 0
2, 14160, Note_on_c, 0, 72, 62
2, 14160, Note_on_c, 0, 64, 70
2, 14220, Note_on_c, 0, 67, 62
2, 14224, Note_on_c, 0, 72, 0
2, 14256, Note_on_c, 0, 64, 0
2, 14278, Note_on_c, 0, 67, 0
2, 14280, Note_on_c, 0, 72, 49
2, 14340, Note_on_c, 0, 71, 62
2, 14340, Note_on_c, 0, 74, 62
2, 14345, Note_on_c, 0, 72, 0
2, 14390, Note_on_c, 0, 71, 0
2, 14391, Note_on_c, 0, 74, 0
2, 14400, Note_on_c, 0, 76, 55
2, 14400, Note_on_c, 0, 72, 70
2, 14505, Note_on_c, 0, 60, 30
2, 14520, Note_on_c, 0, 64, 78
2, 14522, Note_on_c, 0, 60, 0
2, 14564, Note_on_c, 0, 64, 0
2, 14565, Note_on_c, 0, 64, 62
2, 14568, Note_on_c, 0, 72, 0
2, 14568, Note_on_c, 0, 76, 0
2, 14579, Note_on_c, 0, 64, 0
2, 14580, Note_on_c, 0, 67, 35
2, 14580, Note_on_c, 0, 74, 62
2, 14580, Note_on_c, 0, 77, 55
2, 14597, Note_on_c, 0, 74, 0
2, 14597, Note_on_c, 0, 67, 0
2, 14613, Note_on_c, 0, 77, 0
2, 14625, Note_on_c, 0, 74, 44
2, 14625, Note_on_c, 0, 67, 39
2, 14625, Note_on_c, 0, 71, 39
2, 14634, Note_on_c, 0, 71, 0
2, 14634, Note_on_c, 0, 67, 0
2, 14635, Note_on_c, 0, 74, 0
2, 14640, Note_on_c, 0, 64, 62
2, 14640, Note_on_c, 0, 72, 70
2, 14688, Note_on_c, 0, 72, 0
2, 14690, Note_on_c, 0, 64, 0
2, 14690, End_track
3, 0, Start_track
3, 0, MIDI_port, 0
3, 0, Title_t, "accomp"
3, 0, Note_on_c, 0, 36, 110
3, 0, Note_on_c, 0, 48, 110
3, 112, Note_on_c, 0, 36, 0
3, 113, Note_on_c, 0, 48, 0
3, 120, Note_on_c, 0, 60, 62
3, 131, Note_on_c, 0, 60, 0
3, 180, Note_on_c, 0, 64, 55
3, 192, Note_on_c, 0, 64, 0
3, 240, Note_on_c, 0, 67, 78
3, 250, Note_on_c, 0, 67, 0
3, 300, Note_on_c, 0, 36, 98
3, 300, Note_on_c, 0, 48, 98
3, 318, Note_on_c, 0, 48, 0
3, 323, Note_on_c, 0, 36, 0
3, 345, Note_on_c, 0, 36, 88
3, 345, Note_on_c, 0, 48, 78
3, 356, Note_on_c, 0, 48, 0
3, 356, Note_on_c, 0, 36, 0
3, 360, Note_on_c, 0, 40, 98
3, 360, Note_on_c, 0, 52, 98
3, 376, Note_on_c, 0, 52, 0
3, 381, Note_on_c, 0, 40, 0
3, 405, Note_on_c, 0, 40, 78
3, 405, Note_on_c, 0, 52, 88
3, 418, Note_on_c, 0, 52, 0
3, 420, Note_on_c, 0, 40, 0
3, 420, Note_on_c, 0, 43, 98
3, 420, Note_on_c, 0, 55, 98
3, 435, Note_on_c, 0, 55, 0
3, 443, Note_on_c, 0, 43, 0
3, 465, Note_on_c, 0, 55, 70
3, 465, Note_on_c, 0, 43, 70
3, 474, Note_on_c, 0, 43, 0
3, 479, Note_on_c, 0, 55, 0
3, 480, Note_on_c, 0, 47, 110
3, 480, Note_on_c, 0, 35, 124
3, 526, Note_on_c, 0, 47, 0
3, 529, Note_on_c, 0, 35, 0
3, 600, Note_on_c, 0, 59, 44
3, 623, Note_on_c, 0, 59, 0
3, 660, Note_on_c, 0, 62, 39
3, 681, Note_on_c, 0, 62, 0
3, 720, Note_on_c, 0, 67, 62
3, 737, Note_on_c, 0, 67, 0
3, 780, Note_on_c, 0, 35, 98
3, 780, Note_on_c, 0, 47, 88
3, 801, Note_on_c, 0, 35, 0
3, 802, Note_on_c, 0, 47, 0
3, 825, Note_on_c, 0, 35, 70
3, 825, Note_on_c, 0, 47, 70
3, 836, Note_on_c, 0, 47, 0
3, 839, Note_on_c, 0, 35, 0
3, 840, Note_on_c, 0, 38, 98
3, 840, Note_on_c, 0, 50, 98
3, 861, Note_on_c, 0, 50, 0
3, 863, Note_on_c, 0, 38, 0
3, 885, Note_on_c, 0, 38, 78
3, 885, Note_on_c, 0, 50, 70
3, 897, Note_on_c, 0, 50, 0
3, 900, Note_on_c, 0, 38, 0
3, 900, Note_on_c, 0, 43, 98
3, 900, Note_on_c, 0, 55, 98
3, 918, Note_on_c, 0, 55, 0
3, 924, Note_on_c, 0, 43, 0
3, 945, Note_on_c, 0, 55, 70
3, 945, Note_on_c, 0, 43, 39
3, 949, Note_on_c, 0, 43, 0
3, 956, Note_on_c, 0, 55, 0
3, 960, Note_on_c, 0, 34, 110
3, 960, Note_on_c, 0, 46, 110
3, 1007, Note_on_c, 0, 46, 0
3, 1007, Note_on_c, 0, 34, 0
3, 1080, Note_on_c, 0, 64, 78
3, 1115, Note_on_c, 0, 64, 0
3, 1140, Note_on_c, 0, 67, 70
3, 1159, Note_on_c, 0, 67, 0
3, 1200, Note_on_c, 0, 72, 88
3, 1235, Note_on_c, 0, 72, 0
3, 1260, Note_on_c, 0, 46, 110
3, 1260, Note_on_c, 0, 34, 110
3, 1283, Note_on_c, 0, 34, 0
3, 1287, Note_on_c, 0, 46, 0
3, 1305, Note_on_c, 0, 34, 88
3, 1305, Note_on_c, 0, 46, 78
3, 1315, Note_on_c, 0, 34, 0
3, 1320, Note_on_c, 0, 46, 0
3, 1320, Note_on_c, 0, 40, 98
3, 1320, Note_on_c, 0, 52, 78
3, 1335, Note_on_c, 0, 52, 0
3, 1341, Note_on_c, 0, 40, 0
3, 1365, Note_on_c, 0, 52, 70
3, 1365, Note_on_c, 0, 40, 70
3, 1380, Note_on_c, 0, 40, 0
3, 1380, Note_on_c, 0, 55, 98
3, 1380, Note_on_c, 0, 43, 88
3, 1383, Note_on_c, 0, 52, 0
3, 1395, Note_on_c, 0, 55, 0
3, 1403, Note_on_c, 0, 43, 0
3, 1425, Note_on_c, 0, 43, 39
3, 1425, Note_on_c, 0, 55, 55
3, 1429, Note_on_c, 0, 43, 0
3, 1440, Note_on_c, 0, 44, 110
3, 1440, Note_on_c, 0, 32, 110
3, 1443, Note_on_c, 0, 55, 0
3, 1470, Note_on_c, 0, 32, 0
3, 1477, Note_on_c, 0, 44, 0
3, 1500, Note_on_c, 0, 44, 110
3, 1500, Note_on_c, 0, 56, 110
3, 1536, Note_on_c, 0, 44, 0
3, 1538, Note_on_c, 0, 56, 0
3, 1560, Note_on_c, 0, 44, 110
3, 1560, Note_on_c, 0, 56, 110
3, 1595, Note_on_c, 0, 44, 0
3, 1598, Note_on_c, 0, 56, 0
3, 1620, Note_on_c, 0, 44, 88
3, 1620, Note_on_c, 0, 56, 110
3, 1657, Note_on_c, 0, 44, 0
3, 1671, Note_on_c, 0, 56, 0
3, 1680, Note_on_c, 0, 43, 98
3, 1680, Note_on_c, 0, 31, 98
3, 1726, Note_on_c, 0, 31, 0
3, 1729, Note_on_c, 0, 43, 0
3, 1740, Note_on_c, 0, 55, 88
3, 1740, Note_on_c, 0, 43, 88
3, 1783, Note_on_c, 0, 43, 0
3, 1784, Note_on_c, 0, 55, 0
3, 1800, Note_on_c, 0, 43, 78
3, 1800, Note_on_c, 0, 55, 88
3, 1844, Note_on_c, 0, 55, 0
3, 1844, Note_on_c, 0, 43, 0
3, 1860, Note_on_c, 0, 55, 78
3, 1860, Note_on_c, 0, 43, 70
3, 1900, Note_on_c, 0, 43, 0
3, 1909, Note_on_c, 0, 55, 0
3, 1920, Note_on_c, 0, 42, 110
3, 1920, Note_on_c, 0, 30, 124
3, 1966, Note_on_c, 0, 30, 0
3, 1969, Note_on_c, 0, 42, 0
3, 1980, Note_on_c, 0, 42, 110
3, 1980, Note_on_c, 0, 54, 110
3, 2025, Note_on_c, 0, 42, 0
3, 2026, Note_on_c, 0, 54, 0
3, 2040, Note_on_c, 0, 42, 88
3, 2040, Note_on_c, 0, 54, 98
3, 2085, Note_on_c, 0, 54, 0
3, 2087, Note_on_c, 0, 42, 0
3, 2100, Note_on_c, 0, 42, 98
3, 2100, Note_on_c, 0, 54, 110
3, 2142, Note_on_c, 0, 54, 0
3, 2143, Note_on_c, 0, 42, 0
3, 2160, Note_on_c, 0, 43, 78
3, 2160, Note_on_c, 0, 55, 88
3, 2258, Note_on_c, 0, 55, 0
3, 2280, Note_on_c, 0, 55, 55
3, 2308, Note_on_c, 0, 55, 0
3, 2310, Note_on_c, 0, 57, 49
3, 2340, Note_on_c, 0, 57, 0
3, 2340, Note_on_c, 0, 57, 62
3, 2367, Note_on_c, 0, 43, 0
3, 2370, Note_on_c, 0, 59, 62
3, 2371, Note_on_c, 0, 57, 0
3, 2399, Note_on_c, 0, 59, 0
3, 2400, Note_on_c, 0, 59, 78
3, 2400, Note_on_c, 0, 55, 62
3, 2459, Note_on_c, 0, 59, 0
3, 2519, Note_on_c, 0, 55, 0
3, 2520, Note_on_c, 0, 59, 62
3, 2550, Note_on_c, 0, 60, 39
3, 2553, Note_on_c, 0, 59, 0
3, 2580, Note_on_c, 0, 61, 62
3, 2582, Note_on_c, 0, 60, 0
3, 2610, Note_on_c, 0, 62, 62
3, 2611, Note_on_c, 0, 61, 0
3, 2624, Note_on_c, 0, 62, 0
3, 2640, Note_on_c, 0, 62, 62
3, 2640, Note_on_c, 0, 55, 55
3, 2704, Note_on_c, 0, 55, 0
3, 2708, Note_on_c, 0, 62, 0
3, 2760, Note_on_c, 0, 55, 44
3, 2760, Note_on_c, 0, 62, 62
3, 2788, Note_on_c, 0, 62, 0
3, 2790, Note_on_c, 0, 64, 44
3, 2820, Note_on_c, 0, 65, 55
3, 2821, Note_on_c, 0, 64, 0
3, 2850, Note_on_c, 0, 65, 0
3, 2850, Note_on_c, 0, 62, 44
3, 2863, Note_on_c, 0, 55, 0
3, 2879, Note_on_c, 0, 62, 0
3, 2880, Note_on_c, 0, 55, 35
3, 2880, Note_on_c, 0, 59, 62
3, 2910, Note_on_c, 0, 59, 0
3, 2910, Note_on_c, 0, 60, 44
3, 2940, Note_on_c, 0, 62, 49
3, 2942, Note_on_c, 0, 60, 0
3, 2965, Note_on_c, 0, 62, 0
3, 2970, Note_on_c, 0, 59, 44
3, 2982, Note_on_c, 0, 55, 0
3, 3000, Note_on_c, 0, 59, 0
3, 3000, Note_on_c, 0, 43, 44
3, 3000, Note_on_c, 0, 55, 70
3, 3030, Note_on_c, 0, 57, 55
3, 3032, Note_on_c, 0, 55, 0
3, 3060, Note_on_c, 0, 57, 0
3, 3060, Note_on_c, 0, 59, 44
3, 3087, Note_on_c, 0, 43, 0
3, 3090, Note_on_c, 0, 55, 39
3, 3091, Note_on_c, 0, 59, 0
3, 3117, Note_on_c, 0, 55, 0
3, 3120, Note_on_c, 0, 60, 62
3, 3120, Note_on_c, 0, 48, 35
3, 3154, Note_on_c, 0, 48, 0
3, 3155, Note_on_c, 0, 60, 0
3, 3240, Note_on_c, 0, 55, 44
3, 3270, Note_on_c, 0, 60, 49
3, 3298, Note_on_c, 0, 60, 0
3, 3300, Note_on_c, 0, 59, 39
3, 3327, Note_on_c, 0, 55, 0
3, 3328, Note_on_c, 0, 59, 0
3, 3330, Note_on_c, 0, 62, 49
3, 3348, Note_on_c, 0, 62, 0
3, 3360, Note_on_c, 0, 48, 49
3, 3417, Note_on_c, 0, 48, 0
3, 3540, Note_on_c, 0, 59, 55
3, 3540, Note_on_c, 0, 55, 44
3, 3567, Note_on_c, 0, 59, 0
3, 3569, Note_on_c, 0, 55, 0
3, 3570, Note_on_c, 0, 62, 44
3, 3599, Note_on_c, 0, 62, 0
3, 3600, Note_on_c, 0, 60, 49
3, 3648, Note_on_c, 0, 60, 0
3, 3720, Note_on_c, 0, 55, 35
3, 3750, Note_on_c, 0, 60, 39
3, 3752, Note_on_c, 0, 55, 0
3, 3778, Note_on_c, 0, 60, 0
3, 3780, Note_on_c, 0, 59, 55
3, 3810, Note_on_c, 0, 59, 0
3, 3810, Note_on_c, 0, 65, 62
3, 3838, Note_on_c, 0, 65, 0
3, 3840, Note_on_c, 0, 48, 55
3, 3895, Note_on_c, 0, 48, 0
3, 3900, Note_on_c, 0, 55, 55
3, 3946, Note_on_c, 0, 55, 0
3, 3960, Note_on_c, 0, 60, 44
3, 3960, Note_on_c, 0, 52, 4
3, 3990, Note_on_c, 0, 52, 0
3, 4015, Note_on_c, 0, 60, 0
3, 4020, Note_on_c, 0, 55, 44
3, 4020, Note_on_c, 0, 62, 55
3, 4075, Note_on_c, 0, 62, 0
3, 4075, Note_on_c, 0, 55, 0
3, 4080, Note_on_c, 0, 60, 55
3, 4146, Note_on_c, 0, 60, 0
3, 4200, Note_on_c, 0, 59, 55
3, 4268, Note_on_c, 0, 59, 0
3, 4320, Note_on_c, 0, 57, 62
3, 4411, Note_on_c, 0, 57, 0
3, 4440, Note_on_c, 0, 50, 55
3, 4504, Note_on_c, 0, 50, 0
3, 4560, Note_on_c, 0, 52, 55
3, 4626, Note_on_c, 0, 52, 0
3, 4680, Note_on_c, 0, 52, 49
3, 4750, Note_on_c, 0, 52, 0
3, 4800, Note_on_c, 0, 57, 49
3, 4830, Note_on_c, 0, 60, 28
3, 4831, Note_on_c, 0, 57, 0
3, 4856, Note_on_c, 0, 60, 0
3, 4860, Note_on_c, 0, 64, 44
3, 4890, Note_on_c, 0, 60, 44
3, 4893, Note_on_c, 0, 64, 0
3, 4920, Note_on_c, 0, 55, 49
3, 4921, Note_on_c, 0, 60, 0
3, 4950, Note_on_c, 0, 64, 49
3, 4978, Note_on_c, 0, 64, 0
3, 4979, Note_on_c, 0, 55, 0
3, 4980, Note_on_c, 0, 69, 70
3, 5009, Note_on_c, 0, 69, 0
3, 5010, Note_on_c, 0, 64, 44
3, 5040, Note_on_c, 0, 64, 0
3, 5040, Note_on_c, 0, 54, 70
3, 5092, Note_on_c, 0, 54, 0
3, 5160, Note_on_c, 0, 48, 44
3, 5218, Note_on_c, 0, 48, 0
3, 5280, Note_on_c, 0, 47, 62
3, 5342, Note_on_c, 0, 47, 0
3, 5400, Note_on_c, 0, 48, 44
3, 5457, Note_on_c, 0, 48, 0
3, 5520, Note_on_c, 0, 50, 49
3, 5578, Note_on_c, 0, 50, 0
3, 5640, Note_on_c, 0, 38, 49
3, 5640, Note_on_c, 0, 50, 44
3, 5700, Note_on_c, 0, 50, 0
3, 5700, Note_on_c, 0, 38, 0
3, 5760, Note_on_c, 0, 43, 35
3, 5790, Note_on_c, 0, 59, 49
3, 5798, Note_on_c, 0, 43, 0
3, 5815, Note_on_c, 0, 59, 0
3, 5820, Note_on_c, 0, 62, 30
3, 5848, Note_on_c, 0, 62, 0
3, 5850, Note_on_c, 0, 59, 39
3, 5879, Note_on_c, 0, 59, 0
3, 5880, Note_on_c, 0, 55, 49
3, 5910, Note_on_c, 0, 59, 55
3, 5914, Note_on_c, 0, 55, 0
3, 5937, Note_on_c, 0, 59, 0
3, 5940, Note_on_c, 0, 62, 39
3, 5969, Note_on_c, 0, 62, 0
3, 5970, Note_on_c, 0, 59, 44
3, 5995, Note_on_c, 0, 59, 0
3, 6000, Note_on_c, 0, 55, 35
3, 6030, Note_on_c, 0, 61, 70
3, 6030, Note_on_c, 0, 64, 39
3, 6036, Note_on_c, 0, 55, 0
3, 6050, Note_on_c, 0, 64, 0
3, 6051, Note_on_c, 0, 61, 0
3, 6120, Note_on_c, 0, 53, 55
3, 6166, Note_on_c, 0, 53, 0
3, 6240, Note_on_c, 0, 53, 49
3, 6299, Note_on_c, 0, 53, 0
3, 6360, Note_on_c, 0, 52, 62
3, 6420, Note_on_c, 0, 52, 0
3, 6480, Note_on_c, 0, 47, 62
3, 6527, Note_on_c, 0, 47, 0
3, 6600, Note_on_c, 0, 47, 55
3, 6660, Note_on_c, 0, 48, 39
3, 6663, Note_on_c, 0, 47, 0
3, 6695, Note_on_c, 0, 48, 0
3, 6720, Note_on_c, 0, 43, 62
3, 6750, Note_on_c, 0, 59, 88
3, 6755, Note_on_c, 0, 43, 0
3, 6769, Note_on_c, 0, 59, 0
3, 6780, Note_on_c, 0, 62, 70
3, 6802, Note_on_c, 0, 62, 0
3, 6810, Note_on_c, 0, 59, 44
3, 6832, Note_on_c, 0, 59, 0
3, 6840, Note_on_c, 0, 55, 70
3, 6868, Note_on_c, 0, 55, 0
3, 6870, Note_on_c, 0, 62, 62
3, 6889, Note_on_c, 0, 62, 0
3, 6900, Note_on_c, 0, 65, 70
3, 6929, Note_on_c, 0, 65, 0
3, 6930, Note_on_c, 0, 62, 49
3, 6940, Note_on_c, 0, 62, 0
3, 6960, Note_on_c, 0, 48, 78
3, 6960, Note_on_c, 0, 60, 78
3, 7017, Note_on_c, 0, 60, 0
3, 7017, Note_on_c, 0, 48, 0
3, 7080, Note_on_c, 0, 43, 70
3, 7080, Note_on_c, 0, 55, 78
3, 7132, Note_on_c, 0, 55, 0
3, 7132, Note_on_c, 0, 43, 0
3, 7200, Note_on_c, 0, 48, 70
3, 7200, Note_on_c, 0, 36, 78
3, 7297, Note_on_c, 0, 36, 0
3, 7297, Note_on_c, 0, 48, 0
3, 7440, Note_on_c, 0, 60, 62
3, 7470, Note_on_c, 0, 63, 78
3, 7488, Note_on_c, 0, 63, 0
3, 7492, Note_on_c, 0, 60, 0
3, 7500, Note_on_c, 0, 67, 55
3, 7524, Note_on_c, 0, 67, 0
3, 7530, Note_on_c, 0, 63, 44
3, 7553, Note_on_c, 0, 63, 0
3, 7560, Note_on_c, 0, 55, 55
3, 7590, Note_on_c, 0, 63, 55
3, 7592, Note_on_c, 0, 55, 0
3, 7616, Note_on_c, 0, 63, 0
3, 7620, Note_on_c, 0, 59, 55
3, 7620, Note_on_c, 0, 65, 62
3, 7648, Note_on_c, 0, 59, 0
3, 7649, Note_on_c, 0, 65, 0
3, 7650, Note_on_c, 0, 62, 55
3, 7676, Note_on_c, 0, 62, 0
3, 7680, Note_on_c, 0, 48, 70
3, 7753, Note_on_c, 0, 48, 0
3, 7800, Note_on_c, 0, 60, 22
3, 7806, Note_on_c, 0, 60, 0
3, 7920, Note_on_c, 0, 60, 62
3, 7980, Note_on_c, 0, 60, 0
3, 8040, Note_on_c, 0, 59, 70
3, 8109, Note_on_c, 0, 59, 0
3, 8160, Note_on_c, 0, 57, 70
3, 8226, Note_on_c, 0, 57, 0
3, 8280, Note_on_c, 0, 53, 70
3, 8349, Note_on_c, 0, 53, 0
3, 8400, Note_on_c, 0, 43, 44
3, 8487, Note_on_c, 0, 43, 0
3, 8520, Note_on_c, 0, 44, 55
3, 8614, Note_on_c, 0, 44, 0
3, 8640, Note_on_c, 0, 45, 49
3, 8670, Note_on_c, 0, 64, 49
3, 8677, Note_on_c, 0, 45, 0
3, 8697, Note_on_c, 0, 64, 0
3, 8700, Note_on_c, 0, 60, 44
3, 8727, Note_on_c, 0, 60, 0
3, 8730, Note_on_c, 0, 64, 49
3, 8746, Note_on_c, 0, 64, 0
3, 8760, Note_on_c, 0, 58, 49
3, 8790, Note_on_c, 0, 67, 55
3, 8815, Note_on_c, 0, 67, 0
3, 8820, Note_on_c, 0, 60, 28
3, 8846, Note_on_c, 0, 60, 0
3, 8850, Note_on_c, 0, 67, 55
3, 8851, Note_on_c, 0, 58, 0
3, 8866, Note_on_c, 0, 67, 0
3, 8880, Note_on_c, 0, 57, 49
3, 8910, Note_on_c, 0, 65, 55
3, 8936, Note_on_c, 0, 65, 0
3, 8940, Note_on_c, 0, 60, 39
3, 8964, Note_on_c, 0, 60, 0
3, 8970, Note_on_c, 0, 65, 55
3, 8983, Note_on_c, 0, 57, 0
3, 8985, Note_on_c, 0, 65, 0
3, 9000, Note_on_c, 0, 55, 35
3, 9030, Note_on_c, 0, 64, 62
3, 9055, Note_on_c, 0, 64, 0
3, 9060, Note_on_c, 0, 60, 30
3, 9086, Note_on_c, 0, 60, 0
3, 9090, Note_on_c, 0, 64, 44
3, 9098, Note_on_c, 0, 55, 0
3, 9120, Note_on_c, 0, 64, 0
3, 9120, Note_on_c, 0, 53, 4
3, 9150, Note_on_c, 0, 65, 88
3, 9180, Note_on_c, 0, 65, 0
3, 9180, Note_on_c, 0, 67, 49
3, 9200, Note_on_c, 0, 67, 0
3, 9210, Note_on_c, 0, 69, 49
3, 9214, Note_on_c, 0, 53, 0
3, 9231, Note_on_c, 0, 69, 0
3, 9240, Note_on_c, 0, 53, 62
3, 9270, Note_on_c, 0, 62, 35
3, 9299, Note_on_c, 0, 62, 0
3, 9300, Note_on_c, 0, 64, 49
3, 9321, Note_on_c, 0, 64, 0
3, 9330, Note_on_c, 0, 65, 55
3, 9332, Note_on_c, 0, 53, 0
3, 9346, Note_on_c, 0, 65, 0
3, 9360, Note_on_c, 0, 55, 44
3, 9390, Note_on_c, 0, 60, 35
3, 9416, Note_on_c, 0, 60, 0
3, 9420, Note_on_c, 0, 64, 39
3, 9449, Note_on_c, 0, 64, 0
3, 9450, Note_on_c, 0, 55, 0
3, 9450, Note_on_c, 0, 60, 49
3, 9475, Note_on_c, 0, 60, 0
3, 9480, Note_on_c, 0, 43, 55
3, 9510, Note_on_c, 0, 62, 30
3, 9536, Note_on_c, 0, 62, 0
3, 9540, Note_on_c, 0, 65, 49
3, 9540, Note_on_c, 0, 59, 30
3, 9563, Note_on_c, 0, 43, 0
3, 9568, Note_on_c, 0, 59, 0
3, 9570, Note_on_c, 0, 62, 44
3, 9571, Note_on_c, 0, 65, 0
3, 9590, Note_on_c, 0, 62, 0
3, 9600, Note_on_c, 0, 36, 110
3, 9600, Note_on_c, 0, 48, 110
3, 9670, Note_on_c, 0, 48, 0
3, 9674, Note_on_c, 0, 36, 0
3, 9720, Note_on_c, 0, 60, 88
3, 9737, Note_on_c, 0, 60, 0
3, 9780, Note_on_c, 0, 64, 88
3, 9799, Note_on_c, 0, 64, 0
3, 9840, Note_on_c, 0, 67, 98
3, 9848, Note_on_c, 0, 67, 0
3, 9900, Note_on_c, 0, 36, 55
3, 9900, Note_on_c, 0, 48, 55
3, 9913, Note_on_c, 0, 48, 0
3, 9914, Note_on_c, 0, 36, 0
3, 9945, Note_on_c, 0, 36, 44
3, 9945, Note_on_c, 0, 48, 55
3, 9960, Note_on_c, 0, 48, 0
3, 9960, Note_on_c, 0, 40, 62
3, 9960, Note_on_c, 0, 52, 55
3, 9964, Note_on_c, 0, 36, 0
3, 9971, Note_on_c, 0, 52, 0
3, 9971, Note_on_c, 0, 40, 0
3, 10005, Note_on_c, 0, 52, 62
3, 10005, Note_on_c, 0, 40, 49
3, 10018, Note_on_c, 0, 52, 0
3, 10019, Note_on_c, 0, 40, 0
3, 10020, Note_on_c, 0, 43, 62
3, 10020, Note_on_c, 0, 55, 70
3, 10032, Note_on_c, 0, 55, 0
3, 10037, Note_on_c, 0, 43, 0
3, 10065, Note_on_c, 0, 43, 30
3, 10065, Note_on_c, 0, 55, 44
3, 10074, Note_on_c, 0, 55, 0
3, 10077, Note_on_c, 0, 43, 0
3, 10080, Note_on_c, 0, 47, 98
3, 10080, Note_on_c, 0, 35, 110
3, 10148, Note_on_c, 0, 47, 0
3, 10149, Note_on_c, 0, 35, 0
3, 10200, Note_on_c, 0, 59, 62
3, 10213, Note_on_c, 0, 59, 0
3, 10260, Note_on_c, 0, 62, 70
3, 10269, Note_on_c, 0, 62, 0
3, 10320, Note_on_c, 0, 67, 98
3, 10328, Note_on_c, 0, 67, 0
3, 10380, Note_on_c, 0, 35, 78
3, 10380, Note_on_c, 0, 47, 98
3, 10395, Note_on_c, 0, 47, 0
3, 10397, Note_on_c, 0, 35, 0
3, 10425, Note_on_c, 0, 35, 62
3, 10425, Note_on_c, 0, 47, 70
3, 10437, Note_on_c, 0, 47, 0
3, 10440, Note_on_c, 0, 38, 55
3, 10440, Note_on_c, 0, 50, 98
3, 10442, Note_on_c, 0, 35, 0
3, 10455, Note_on_c, 0, 50, 0
3, 10459, Note_on_c, 0, 38, 0
3, 10485, Note_on_c, 0, 38, 78
3, 10485, Note_on_c, 0, 50, 70
3, 10496, Note_on_c, 0, 50, 0
3, 10500, Note_on_c, 0, 38, 0
3, 10500, Note_on_c, 0, 55, 88
3, 10500, Note_on_c, 0, 43, 78
3, 10517, Note_on_c, 0, 55, 0
3, 10518, Note_on_c, 0, 43, 0
3, 10545, Note_on_c, 0, 55, 78
3, 10545, Note_on_c, 0, 43, 78
3, 10554, Note_on_c, 0, 43, 0
3, 10554, Note_on_c, 0, 55, 0
3, 10560, Note_on_c, 0, 34, 124
3, 10560, Note_on_c, 0, 46, 110
3, 10661, Note_on_c, 0, 34, 0
3, 10663, Note_on_c, 0, 46, 0
3, 10680, Note_on_c, 0, 64, 78
3, 10690, Note_on_c, 0, 64, 0
3, 10740, Note_on_c, 0, 67, 62
3, 10757, Note_on_c, 0, 67, 0
3, 10800, Note_on_c, 0, 72, 98
3, 10824, Note_on_c, 0, 72, 0
3, 10860, Note_on_c, 0, 46, 98
3, 10860, Note_on_c, 0, 34, 110
3, 10872, Note_on_c, 0, 46, 0
3, 10875, Note_on_c, 0, 34, 0
3, 10905, Note_on_c, 0, 34, 88
3, 10905, Note_on_c, 0, 46, 88
3, 10914, Note_on_c, 0, 46, 0
3, 10920, Note_on_c, 0, 52, 98
3, 10920, Note_on_c, 0, 40, 88
3, 10922, Note_on_c, 0, 34, 0
3, 10935, Note_on_c, 0, 40, 0
3, 10936, Note_on_c, 0, 52, 0
3, 10965, Note_on_c, 0, 52, 49
3, 10965, Note_on_c, 0, 40, 70
3, 10978, Note_on_c, 0, 52, 0
3, 10980, Note_on_c, 0, 43, 78
3, 10980, Note_on_c, 0, 55, 88
3, 10984, Note_on_c, 0, 40, 0
3, 10995, Note_on_c, 0, 55, 0
3, 10997, Note_on_c, 0, 43, 0
3, 11025, Note_on_c, 0, 43, 78
3, 11025, Note_on_c, 0, 55, 70
3, 11034, Note_on_c, 0, 43, 0
3, 11040, Note_on_c, 0, 32, 124
3, 11040, Note_on_c, 0, 44, 124
3, 11043, Note_on_c, 0, 55, 0
3, 11075, Note_on_c, 0, 32, 0
3, 11079, Note_on_c, 0, 44, 0
3, 11100, Note_on_c, 0, 44, 98
3, 11100, Note_on_c, 0, 56, 98
3, 11127, Note_on_c, 0, 56, 0
3, 11130, Note_on_c, 0, 44, 0
3, 11160, Note_on_c, 0, 44, 98
3, 11160, Note_on_c, 0, 56, 110
3, 11191, Note_on_c, 0, 44, 0
3, 11192, Note_on_c, 0, 56, 0
3, 11220, Note_on_c, 0, 44, 98
3, 11220, Note_on_c, 0, 56, 98
3, 11256, Note_on_c, 0, 56, 0
3, 11257, Note_on_c, 0, 44, 0
3, 11280, Note_on_c, 0, 43, 78
3, 11280, Note_on_c, 0, 55, 88
3, 11311, Note_on_c, 0, 55, 0
3, 11317, Note_on_c, 0, 43, 0
3, 11340, Note_on_c, 0, 55, 78
3, 11340, Note_on_c, 0, 43, 62
3, 11378, Note_on_c, 0, 43, 0
3, 11380, Note_on_c, 0, 55, 0
3, 11400, Note_on_c, 0, 54, 98
3, 11400, Note_on_c, 0, 42, 98
3, 11441, Note_on_c, 0, 54, 0
3, 11442, Note_on_c, 0, 42, 0
3, 11460, Note_on_c, 0, 42, 110
3, 11460, Note_on_c, 0, 54, 110
3, 11495, Note_on_c, 0, 54, 0
3, 11496, Note_on_c, 0, 42, 0
3, 11520, Note_on_c, 0, 43, 88
3, 11520, Note_on_c, 0, 55, 78
3, 11557, Note_on_c, 0, 55, 0
3, 11558, Note_on_c, 0, 43, 0
3, 11580, Note_on_c, 0, 43, 78
3, 11580, Note_on_c, 0, 55, 88
3, 11619, Note_on_c, 0, 55, 0
3, 11619, Note_on_c, 0, 43, 0
3, 11640, Note_on_c, 0, 43, 78
3, 11640, Note_on_c, 0, 55, 88
3, 11674, Note_on_c, 0, 43, 0
3, 11677, Note_on_c, 0, 55, 0
3, 11700, Note_on_c, 0, 55, 88
3, 11700, Note_on_c, 0, 43, 78
3, 11737, Note_on_c, 0, 43, 0
3, 11739, Note_on_c, 0, 55, 0
3, 11760, Note_on_c, 0, 43, 88
3, 11760, Note_on_c, 0, 31, 98
3, 11799, Note_on_c, 0, 31, 0
3, 11799, Note_on_c, 0, 43, 0
3, 11820, Note_on_c, 0, 43, 88
3, 11820, Note_on_c, 0, 31, 98
3, 11854, Note_on_c, 0, 31, 0
3, 11857, Note_on_c, 0, 43, 0
3, 11880, Note_on_c, 0, 43, 88
3, 11880, Note_on_c, 0, 31, 88
3, 11912, Note_on_c, 0, 31, 0
3, 11914, Note_on_c, 0, 43, 0
3, 11940, Note_on_c, 0, 43, 78
3, 11940, Note_on_c, 0, 31, 78
3, 11974, Note_on_c, 0, 43, 0
3, 11981, Note_on_c, 0, 31, 0
3, 12000, Note_on_c, 0, 36, 98
3, 12000, Note_on_c, 0, 48, 88
3, 12080, Note_on_c, 0, 48, 0
3, 12084, Note_on_c, 0, 36, 0
3, 12120, Note_on_c, 0, 60, 88
3, 12148, Note_on_c, 0, 60, 0
3, 12180, Note_on_c, 0, 64, 70
3, 12202, Note_on_c, 0, 64, 0
3, 12240, Note_on_c, 0, 67, 70
3, 12264, Note_on_c, 0, 67, 0
3, 12300, Note_on_c, 0, 64, 62
3, 12313, Note_on_c, 0, 64, 0
3, 12345, Note_on_c, 0, 64, 49
3, 12360, Note_on_c, 0, 67, 70
3, 12365, Note_on_c, 0, 64, 0
3, 12374, Note_on_c, 0, 67, 0
3, 12405, Note_on_c, 0, 67, 35
3, 12420, Note_on_c, 0, 72, 62
3, 12421, Note_on_c, 0, 67, 0
3, 12435, Note_on_c, 0, 72, 0
3, 12465, Note_on_c, 0, 72, 55
3, 12478, Note_on_c, 0, 72, 0
3, 12480, Note_on_c, 0, 69, 70
3, 12517, Note_on_c, 0, 69, 0
3, 12960, Note_on_c, 0, 36, 110
3, 12960, Note_on_c, 0, 48, 110
3, 13035, Note_on_c, 0, 48, 0
3, 13035, Note_on_c, 0, 36, 0
3, 13080, Note_on_c, 0, 60, 39
3, 13113, Note_on_c, 0, 60, 0
3, 13140, Note_on_c, 0, 64, 55
3, 13161, Note_on_c, 0, 64, 0
3, 13200, Note_on_c, 0, 64, 49
3, 13200, Note_on_c, 0, 70, 70
3, 13431, Note_on_c, 0, 70, 0
3, 13436, Note_on_c, 0, 64, 0
3, 13440, Note_on_c, 0, 65, 62
3, 13440, Note_on_c, 0, 69, 70
3, 13472, Note_on_c, 0, 65, 0
3, 13476, Note_on_c, 0, 69, 0
3, 13920, Note_on_c, 0, 48, 44
3, 13920, Note_on_c, 0, 60, 55
3, 13954, Note_on_c, 0, 60, 0
3, 13955, Note_on_c, 0, 48, 0
3, 14040, Note_on_c, 0, 43, 30
3, 14040, Note_on_c, 0, 55, 49
3, 14072, Note_on_c, 0, 55, 0
3, 14078, Note_on_c, 0, 43, 0
3, 14160, Note_on_c, 0, 36, 49
3, 14160, Note_on_c, 0, 48, 55
3, 14234, Note_on_c, 0, 48, 0
3, 14248, Note_on_c, 0, 36, 0
3, 14280, Note_on_c, 0, 43, 49
3, 14340, Note_on_c, 0, 65, 62
3, 14342, Note_on_c, 0, 43, 0
3, 14375, Note_on_c, 0, 65, 0
3, 14385, Note_on_c, 0, 62, 28
3, 14400, Note_on_c, 0, 60, 49
3, 14400, Note_on_c, 0, 48, 30
3, 14401, Note_on_c, 0, 62, 0
3, 14460, Note_on_c, 0, 60, 100
3, 14503, Note_on_c, 0, 48, 0
3, 14505, Note_on_c, 0, 60, 0
3, 14520, Note_on_c, 0, 55, 55
3, 14568, Note_on_c, 0, 55, 0
3, 14580, Note_on_c, 0, 60, 0
3, 14640, Note_on_c, 0, 36, 62
3, 14640, Note_on_c, 0, 48, 55
3, 14711, Note_on_c, 0, 48, 0
3, 14711, Note_on_c, 0, 36, 0
3, 14711, End_track
4, 0, Start_track
4, 0, MIDI_port, 0
4, 0, Title_t, "soprano"
4, 0, Program_c, 1, 52
4, 0, Note_on_c, 1, 72, 90
4, 82, Note_on_c, 1, 72, 0
4, 90, Note_on_c, 1, 72, 68
4, 102, Note_on_c, 1, 72, 0
4, 120, Note_on_c, 1, 72, 90
4, 165, Note_on_c, 1, 72, 0
4, 480, Note_on_c, 1, 74, 104
4, 558, Note_on_c, 1, 74, 0
4, 570, Note_on_c, 1, 74, 42
4, 585, Note_on_c, 1, 74, 0
4, 600, Note_on_c, 1, 74, 35
4, 641, Note_on_c, 1, 74, 0
4, 960, Note_on_c, 1, 76, 90
4, 1040, Note_on_c, 1, 76, 0
4, 1050, Note_on_c, 1, 76, 42
4, 1064, Note_on_c, 1, 76, 0
4, 1080, Note_on_c, 1, 76, 42
4, 1125, Note_on_c, 1, 76, 0
4, 1440, Note_on_c, 1, 77, 90
4, 1601, Note_on_c, 1, 77, 0
4, 1620, Note_on_c, 1, 77, 78
4, 1679, Note_on_c, 1, 77, 0
4, 1680, Note_on_c, 1, 75, 90
4, 1839, Note_on_c, 1, 75, 0
4, 1860, Note_on_c, 1, 75, 90
4, 1920, Note_on_c, 1, 74, 78
4, 1921, Note_on_c, 1, 75, 0
4, 2085, Note_on_c, 1, 74, 0
4, 2100, Note_on_c, 1, 74, 68
4, 2146, Note_on_c, 1, 74, 0
4, 2160, Note_on_c, 1, 74, 90
4, 2272, Note_on_c, 1, 74, 0
4, 9600, Note_on_c, 1, 72, 78
4, 9673, Note_on_c, 1, 72, 0
4, 9690, Note_on_c, 1, 72, 35
4, 9705, Note_on_c, 1, 72, 0
4, 9720, Note_on_c, 1, 72, 42
4, 9772, Note_on_c, 1, 72, 0
4, 9900, Note_on_c, 1, 67, 90
4, 9923, Note_on_c, 1, 67, 0
4, 9946, Note_on_c, 1, 67, 78
4, 9958, Note_on_c, 1, 67, 0
4, 9960, Note_on_c, 1, 67, 90
4, 10001, Note_on_c, 1, 67, 0
4, 10020, Note_on_c, 1, 67, 90
4, 10074, Note_on_c, 1, 67, 0
4, 10080, Note_on_c, 1, 79, 90
4, 10140, Note_on_c, 1, 77, 42
4, 10151, Note_on_c, 1, 79, 0
4, 10176, Note_on_c, 1, 77, 0
4, 10200, Note_on_c, 1, 77, 68
4, 10250, Note_on_c, 1, 77, 0
4, 10380, Note_on_c, 1, 67, 90
4, 10400, Note_on_c, 1, 67, 0
4, 10423, Note_on_c, 1, 67, 90
4, 10434, Note_on_c, 1, 67, 0
4, 10440, Note_on_c, 1, 67, 78
4, 10478, Note_on_c, 1, 67, 0
4, 10500, Note_on_c, 1, 67, 90
4, 10551, Note_on_c, 1, 67, 0
4, 10560, Note_on_c, 1, 77, 90
4, 10620, Note_on_c, 1, 76, 58
4, 10626, Note_on_c, 1, 77, 0
4, 10655, Note_on_c, 1, 76, 0
4, 10680, Note_on_c, 1, 76, 50
4, 10731, Note_on_c, 1, 76, 0
4, 10860, Note_on_c, 1, 79, 78
4, 10880, Note_on_c, 1, 79, 0
4, 10905, Note_on_c, 1, 79, 78
4, 10920, Note_on_c, 1, 76, 78
4, 10925, Note_on_c, 1, 79, 0
4, 10973, Note_on_c, 1, 76, 0
4, 10980, Note_on_c, 1, 72, 78
4, 11035, Note_on_c, 1, 72, 0
4, 11040, Note_on_c, 1, 77, 68
4, 11202, Note_on_c, 1, 77, 0
4, 11220, Note_on_c, 1, 77, 78
4, 11275, Note_on_c, 1, 77, 0
4, 11280, Note_on_c, 1, 77, 90
4, 11392, Note_on_c, 1, 77, 0
4, 11400, Note_on_c, 1, 75, 90
4, 11484, Note_on_c, 1, 75, 0
4, 11490, Note_on_c, 1, 75, 90
4, 11511, Note_on_c, 1, 75, 0
4, 11520, Note_on_c, 1, 74, 78
4, 11688, Note_on_c, 1, 74, 0
4, 11700, Note_on_c, 1, 74, 90
4, 11746, Note_on_c, 1, 74, 0
4, 11760, Note_on_c, 1, 74, 90
4, 11926, Note_on_c, 1, 74, 0
4, 11940, Note_on_c, 1, 74, 68
4, 12000, Note_on_c, 1, 72, 78
4, 12005, Note_on_c, 1, 74, 0
4, 12109, Note_on_c, 1, 72, 0
4, 12600, Note_on_c, 1, 69, 68
4, 12678, Note_on_c, 1, 69, 0
4, 12690, Note_on_c, 1, 69, 42
4, 12716, Note_on_c, 1, 69, 0
4, 12720, Note_on_c, 1, 67, 50
4, 12796, Note_on_c, 1, 67, 0
4, 12810, Note_on_c, 1, 67, 42
4, 12822, Note_on_c, 1, 67, 0
4, 12840, Note_on_c, 1, 67, 42
4, 12900, Note_on_c, 1, 65, 58
4, 12901, Note_on_c, 1, 67, 0
4, 12959, Note_on_c, 1, 65, 0
4, 12960, Note_on_c, 1, 64, 50
4, 13024, Note_on_c, 1, 64, 0
4, 13560, Note_on_c, 1, 65, 58
4, 13636, Note_on_c, 1, 65, 0
4, 13650, Note_on_c, 1, 65, 50
4, 13673, Note_on_c, 1, 65, 0
4, 13680, Note_on_c, 1, 64, 50
4, 13760, Note_on_c, 1, 64, 0
4, 13770, Note_on_c, 1, 64, 35
4, 13782, Note_on_c, 1, 64, 0
4, 13800, Note_on_c, 1, 64, 50
4, 13860, Note_on_c, 1, 62, 35
4, 13865, Note_on_c, 1, 64, 0
4, 13920, Note_on_c, 1, 60, 50
4, 13922, Note_on_c, 1, 62, 0
4, 14005, Note_on_c, 1, 60, 0
4, 14005, End_track
5, 0, Start_track
5, 0, MIDI_port, 0
5, 0, Title_t, "alto"
5, 0, Note_on_c, 1, 64, 90
5, 81, Note_on_c, 1, 64, 0
5, 90, Note_on_c, 1, 64, 78
5, 103, Note_on_c, 1, 64, 0
5, 120, Note_on_c, 1, 64, 78
5, 161, Note_on_c, 1, 64, 0
5, 480, Note_on_c, 1, 65, 90
5, 562, Note_on_c, 1, 65, 0
5, 570, Note_on_c, 1, 65, 68
5, 584, Note_on_c, 1, 65, 0
5, 600, Note_on_c, 1, 65, 42
5, 644, Note_on_c, 1, 65, 0
5, 960, Note_on_c, 1, 67, 90
5, 1038, Note_on_c, 1, 67, 0
5, 1050, Note_on_c, 1, 67, 58
5, 1065, Note_on_c, 1, 67, 0
5, 1080, Note_on_c, 1, 67, 50
5, 1128, Note_on_c, 1, 67, 0
5, 1440, Note_on_c, 1, 65, 90
5, 1603, Note_on_c, 1, 65, 0
5, 1620, Note_on_c, 1, 65, 90
5, 1676, Note_on_c, 1, 65, 0
5, 1680, Note_on_c, 1, 67, 78
5, 1845, Note_on_c, 1, 67, 0
5, 1860, Note_on_c, 1, 67, 90
5, 1917, Note_on_c, 1, 67, 0
5, 1920, Note_on_c, 1, 69, 90
5, 2079, Note_on_c, 1, 69, 0
5, 2100, Note_on_c, 1, 69, 90
5, 2160, Note_on_c, 1, 67, 78
5, 2163, Note_on_c, 1, 69, 0
5, 2278, Note_on_c, 1, 67, 0
5, 9600, Note_on_c, 1, 64, 90
5, 9678, Note_on_c, 1, 64, 0
5, 9690, Note_on_c, 1, 64, 42
5, 9704, Note_on_c, 1, 64, 0
5, 9720, Note_on_c, 1, 64, 35
5, 9779, Note_on_c, 1, 64, 0
5, 9900, Note_on_c, 1, 64, 78
5, 9926, Note_on_c, 1, 64, 0
5, 9943, Note_on_c, 1, 64, 68
5, 9955, Note_on_c, 1, 64, 0
5, 9960, Note_on_c, 1, 64, 68
5, 10009, Note_on_c, 1, 64, 0
5, 10020, Note_on_c, 1, 64, 78
5, 10070, Note_on_c, 1, 64, 0
5, 10080, Note_on_c, 1, 67, 90
5, 10179, Note_on_c, 1, 67, 0
5, 10200, Note_on_c, 1, 67, 42
5, 10268, Note_on_c, 1, 67, 0
5, 10380, Note_on_c, 1, 65, 68
5, 10406, Note_on_c, 1, 65, 0
5, 10423, Note_on_c, 1, 65, 78
5, 10434, Note_on_c, 1, 65, 0
5, 10440, Note_on_c, 1, 65, 68
5, 10496, Note_on_c, 1, 65, 0
5, 10500, Note_on_c, 1, 62, 68
5, 10552, Note_on_c, 1, 62, 0
5, 10560, Note_on_c, 1, 67, 90
5, 10655, Note_on_c, 1, 67, 0
5, 10680, Note_on_c, 1, 67, 58
5, 10738, Note_on_c, 1, 67, 0
5, 10860, Note_on_c, 1, 64, 68
5, 10877, Note_on_c, 1, 64, 0
5, 10906, Note_on_c, 1, 64, 68
5, 10920, Note_on_c, 1, 67, 90
5, 10921, Note_on_c, 1, 64, 0
5, 10980, Note_on_c, 1, 67, 0
5, 10980, Note_on_c, 1, 64, 58
5, 11035, Note_on_c, 1, 64, 0
5, 11040, Note_on_c, 1, 65, 90
5, 11193, Note_on_c, 1, 65, 0
5, 11220, Note_on_c, 1, 65, 90
5, 11278, Note_on_c, 1, 65, 0
5, 11280, Note_on_c, 1, 67, 90
5, 11396, Note_on_c, 1, 67, 0
5, 11400, Note_on_c, 1, 69, 78
5, 11477, Note_on_c, 1, 69, 0
5, 11490, Note_on_c, 1, 69, 78
5, 11520, Note_on_c, 1, 69, 0
5, 11520, Note_on_c, 1, 62, 78
5, 11558, Note_on_c, 1, 62, 0
5, 11580, Note_on_c, 1, 62, 78
5, 11632, Note_on_c, 1, 62, 0
5, 11640, Note_on_c, 1, 67, 90
5, 11863, Note_on_c, 1, 67, 0
5, 11880, Note_on_c, 1, 67, 90
5, 11985, Note_on_c, 1, 67, 0
5, 12000, Note_on_c, 1, 67, 104
5, 12116, Note_on_c, 1, 67, 0
5, 12600, Note_on_c, 1, 65, 78
5, 12673, Note_on_c, 1, 65, 0
5, 12690, Note_on_c, 1, 65, 50
5, 12710, Note_on_c, 1, 65, 0
5, 12720, Note_on_c, 1, 64, 35
5, 12791, Note_on_c, 1, 64, 0
5, 12810, Note_on_c, 1, 64, 35
5, 12838, Note_on_c, 1, 62, 50
5, 12839, Note_on_c, 1, 64, 0
5, 12900, Note_on_c, 1, 62, 0
5, 12900, Note_on_c, 1, 59, 50
5, 12957, Note_on_c, 1, 59, 0
5, 12960, Note_on_c, 1, 60, 42
5, 13046, Note_on_c, 1, 60, 0
5, 13560, Note_on_c, 1, 62, 42
5, 13630, Note_on_c, 1, 62, 0
5, 13650, Note_on_c, 1, 62, 24
5, 13675, Note_on_c, 1, 62, 0
5, 13680, Note_on_c, 1, 60, 35
5, 13748, Note_on_c, 1, 60, 0
5, 13770, Note_on_c, 1, 60, 35
5, 13782, Note_on_c, 1, 60, 0
5, 13800, Note_on_c, 1, 60, 42
5, 13860, Note_on_c, 1, 59, 35
5, 13865, Note_on_c, 1, 60, 0
5, 13920, Note_on_c, 1, 60, 50
5, 13922, Note_on_c, 1, 59, 0
5, 14015, Note_on_c, 1, 60, 0
5, 14015, End_track
6, 0, Start_track
6, 0, MIDI_port, 0
6, 0, Title_t, "tenor"
6, 0, Note_on_c, 1, 55, 78
6, 81, Note_on_c, 1, 55, 0
6, 91, Note_on_c, 1, 55, 50
6, 105, Note_on_c, 1, 55, 0
6, 120, Note_on_c, 1, 55, 50
6, 156, Note_on_c, 1, 55, 0
6, 480, Note_on_c, 1, 55, 90
6, 561, Note_on_c, 1, 55, 0
6, 570, Note_on_c, 1, 55, 58
6, 585, Note_on_c, 1, 55, 0
6, 600, Note_on_c, 1, 55, 78
6, 638, Note_on_c, 1, 55, 0
6, 960, Note_on_c, 1, 60, 90
6, 1044, Note_on_c, 1, 60, 0
6, 1050, Note_on_c, 1, 60, 58
6, 1066, Note_on_c, 1, 60, 0
6, 1080, Note_on_c, 1, 60, 68
6, 1116, Note_on_c, 1, 60, 0
6, 1440, Note_on_c, 1, 60, 90
6, 1609, Note_on_c, 1, 60, 0
6, 1620, Note_on_c, 1, 60, 78
6, 1663, Note_on_c, 1, 60, 0
6, 1680, Note_on_c, 1, 60, 90
6, 1853, Note_on_c, 1, 60, 0
6, 1860, Note_on_c, 1, 60, 90
6, 1902, Note_on_c, 1, 60, 0
6, 1920, Note_on_c, 1, 60, 90
6, 2087, Note_on_c, 1, 60, 0
6, 2100, Note_on_c, 1, 60, 90
6, 2160, Note_on_c, 1, 60, 0
6, 2160, Note_on_c, 1, 59, 78
6, 2277, Note_on_c, 1, 59, 0
6, 9600, Note_on_c, 1, 55, 90
6, 9676, Note_on_c, 1, 55, 0
6, 9690, Note_on_c, 1, 55, 58
6, 9707, Note_on_c, 1, 55, 0
6, 9720, Note_on_c, 1, 55, 42
6, 9776, Note_on_c, 1, 55, 0
6, 9900, Note_on_c, 1, 55, 104
6, 9932, Note_on_c, 1, 55, 0
6, 9945, Note_on_c, 1, 55, 90
6, 9956, Note_on_c, 1, 55, 0
6, 9960, Note_on_c, 1, 55, 104
6, 10015, Note_on_c, 1, 55, 0
6, 10020, Note_on_c, 1, 60, 90
6, 10080, Note_on_c, 1, 60, 0
6, 10080, Note_on_c, 1, 62, 90
6, 10178, Note_on_c, 1, 62, 0
6, 10200, Note_on_c, 1, 62, 50
6, 10261, Note_on_c, 1, 62, 0
6, 10380, Note_on_c, 1, 62, 90
6, 10406, Note_on_c, 1, 62, 0
6, 10428, Note_on_c, 1, 62, 68
6, 10440, Note_on_c, 1, 62, 90
6, 10442, Note_on_c, 1, 62, 0
6, 10494, Note_on_c, 1, 62, 0
6, 10500, Note_on_c, 1, 65, 90
6, 10557, Note_on_c, 1, 65, 0
6, 10560, Note_on_c, 1, 60, 90
6, 10658, Note_on_c, 1, 60, 0
6, 10680, Note_on_c, 1, 60, 35
6, 10768, Note_on_c, 1, 60, 0
6, 10860, Note_on_c, 1, 60, 90
6, 10890, Note_on_c, 1, 60, 0
6, 10906, Note_on_c, 1, 60, 58
6, 10917, Note_on_c, 1, 60, 0
6, 10920, Note_on_c, 1, 60, 90
6, 10968, Note_on_c, 1, 60, 0
6, 10980, Note_on_c, 1, 60, 90
6, 11028, Note_on_c, 1, 60, 0
6, 11040, Note_on_c, 1, 60, 90
6, 11205, Note_on_c, 1, 60, 0
6, 11220, Note_on_c, 1, 60, 78
6, 11280, Note_on_c, 1, 60, 0
6, 11280, Note_on_c, 1, 59, 90
6, 11400, Note_on_c, 1, 60, 78
6, 11403, Note_on_c, 1, 59, 0
6, 11478, Note_on_c, 1, 60, 0
6, 11490, Note_on_c, 1, 60, 68
6, 11503, Note_on_c, 1, 60, 0
6, 11520, Note_on_c, 1, 60, 90
6, 11640, Note_on_c, 1, 59, 78
6, 11647, Note_on_c, 1, 60, 0
6, 11697, Note_on_c, 1, 59, 0
6, 11700, Note_on_c, 1, 57, 78
6, 11760, Note_on_c, 1, 57, 0
6, 11760, Note_on_c, 1, 59, 78
6, 11932, Note_on_c, 1, 59, 0
6, 11940, Note_on_c, 1, 59, 90
6, 11997, Note_on_c, 1, 59, 0
6, 12000, Note_on_c, 1, 60, 90
6, 12124, Note_on_c, 1, 60, 0
6, 12600, Note_on_c, 1, 60, 50
6, 12682, Note_on_c, 1, 60, 0
6, 12690, Note_on_c, 1, 60, 42
6, 12701, Note_on_c, 1, 60, 0
6, 12720, Note_on_c, 1, 60, 35
6, 12801, Note_on_c, 1, 60, 0
6, 12810, Note_on_c, 1, 60, 35
6, 12834, Note_on_c, 1, 60, 0
6, 12840, Note_on_c, 1, 59, 42
6, 12900, Note_on_c, 1, 55, 50
6, 12903, Note_on_c, 1, 59, 0
6, 12937, Note_on_c, 1, 55, 0
6, 12960, Note_on_c, 1, 55, 42
6, 13027, Note_on_c, 1, 55, 0
6, 13560, Note_on_c, 1, 57, 50
6, 13635, Note_on_c, 1, 57, 0
6, 13650, Note_on_c, 1, 57, 42
6, 13669, Note_on_c, 1, 57, 0
6, 13680, Note_on_c, 1, 55, 42
6, 13759, Note_on_c, 1, 55, 0
6, 13770, Note_on_c, 1, 55, 50
6, 13782, Note_on_c, 1, 55, 0
6, 13800, Note_on_c, 1, 55, 42
6, 13860, Note_on_c, 1, 53, 50
6, 13866, Note_on_c, 1, 55, 0
6, 13919, Note_on_c, 1, 53, 0
6, 13920, Note_on_c, 1, 52, 58
6, 13989, Note_on_c, 1, 52, 0
6, 13989, End_track
7, 0, Start_track
7, 0, MIDI_port, 0
7, 0, Title_t, "bass"
7, 0, Note_on_c, 1, 48, 90
7, 85, Note_on_c, 1, 48, 0
7, 90, Note_on_c, 1, 48, 68
7, 99, Note_on_c, 1, 48, 0
7, 120, Note_on_c, 1, 48, 58
7, 166, Note_on_c, 1, 48, 0
7, 480, Note_on_c, 1, 47, 90
7, 566, Note_on_c, 1, 47, 0
7, 570, Note_on_c, 1, 47, 50
7, 581, Note_on_c, 1, 47, 0
7, 600, Note_on_c, 1, 47, 58
7, 649, Note_on_c, 1, 47, 0
7, 960, Note_on_c, 1, 46, 90
7, 1049, Note_on_c, 1, 46, 0
7, 1050, Note_on_c, 1, 46, 42
7, 1060, Note_on_c, 1, 46, 0
7, 1080, Note_on_c, 1, 46, 68
7, 1120, Note_on_c, 1, 46, 0
7, 1440, Note_on_c, 1, 44, 104
7, 1617, Note_on_c, 1, 44, 0
7, 1620, Note_on_c, 1, 56, 90
7, 1672, Note_on_c, 1, 56, 0
7, 1680, Note_on_c, 1, 55, 90
7, 1842, Note_on_c, 1, 55, 0
7, 1860, Note_on_c, 1, 55, 90
7, 1920, Note_on_c, 1, 54, 90
7, 1923, Note_on_c, 1, 55, 0
7, 2088, Note_on_c, 1, 54, 0
7, 2100, Note_on_c, 1, 54, 90
7, 2152, Note_on_c, 1, 54, 0
7, 2160, Note_on_c, 1, 55, 78
7, 2273, Note_on_c, 1, 55, 0
7, 9600, Note_on_c, 1, 48, 90
7, 9679, Note_on_c, 1, 48, 0
7, 9690, Note_on_c, 1, 48, 42
7, 9702, Note_on_c, 1, 48, 0
7, 9720, Note_on_c, 1, 48, 42
7, 9773, Note_on_c, 1, 48, 0
7, 9900, Note_on_c, 1, 48, 104
7, 9926, Note_on_c, 1, 48, 0
7, 9946, Note_on_c, 1, 48, 78
7, 9955, Note_on_c, 1, 48, 0
7, 9960, Note_on_c, 1, 48, 90
7, 10002, Note_on_c, 1, 48, 0
7, 10020, Note_on_c, 1, 48, 90
7, 10078, Note_on_c, 1, 48, 0
7, 10080, Note_on_c, 1, 47, 90
7, 10185, Note_on_c, 1, 47, 0
7, 10200, Note_on_c, 1, 47, 78
7, 10269, Note_on_c, 1, 47, 0
7, 10380, Note_on_c, 1, 47, 90
7, 10410, Note_on_c, 1, 47, 0
7, 10425, Note_on_c, 1, 47, 78
7, 10435, Note_on_c, 1, 47, 0
7, 10440, Note_on_c, 1, 47, 90
7, 10488, Note_on_c, 1, 47, 0
7, 10500, Note_on_c, 1, 47, 90
7, 10557, Note_on_c, 1, 47, 0
7, 10560, Note_on_c, 1, 46, 90
7, 10668, Note_on_c, 1, 46, 0
7, 10680, Note_on_c, 1, 46, 50
7, 10737, Note_on_c, 1, 46, 0
7, 10860, Note_on_c, 1, 58, 90
7, 10888, Note_on_c, 1, 58, 0
7, 10903, Note_on_c, 1, 58, 90
7, 10914, Note_on_c, 1, 58, 0
7, 10920, Note_on_c, 1, 58, 90
7, 10966, Note_on_c, 1, 58, 0
7, 10980, Note_on_c, 1, 58, 90
7, 11037, Note_on_c, 1, 58, 0
7, 11040, Note_on_c, 1, 56, 90
7, 11203, Note_on_c, 1, 56, 0
7, 11220, Note_on_c, 1, 56, 90
7, 11274, Note_on_c, 1, 56, 0
7, 11280, Note_on_c, 1, 55, 78
7, 11400, Note_on_c, 1, 54, 90
7, 11401, Note_on_c, 1, 55, 0
7, 11487, Note_on_c, 1, 54, 0
7, 11490, Note_on_c, 1, 54, 90
7, 11506, Note_on_c, 1, 54, 0
7, 11520, Note_on_c, 1, 55, 90
7, 11687, Note_on_c, 1, 55, 0
7, 11700, Note_on_c, 1, 55, 90
7, 11743, Note_on_c, 1, 55, 0
7, 11760, Note_on_c, 1, 55, 90
7, 11926, Note_on_c, 1, 55, 0
7, 11940, Note_on_c, 1, 55, 90
7, 11995, Note_on_c, 1, 55, 0
7, 12000, Note_on_c, 1, 48, 90
7, 12119, Note_on_c, 1, 48, 0
7, 12600, Note_on_c, 1, 53, 50
7, 12677, Note_on_c, 1, 53, 0
7, 12690, Note_on_c, 1, 53, 35
7, 12705, Note_on_c, 1, 53, 0
7, 12720, Note_on_c, 1, 55, 42
7, 12780, Note_on_c, 1, 43, 35
7, 12781, Note_on_c, 1, 55, 0
7, 12821, Note_on_c, 1, 43, 0
7, 12840, Note_on_c, 1, 43, 19
7, 12960, Note_on_c, 1, 48, 29
7, 12962, Note_on_c, 1, 43, 0
7, 13033, Note_on_c, 1, 48, 0
7, 13560, Note_on_c, 1, 53, 42
7, 13633, Note_on_c, 1, 53, 0
7, 13650, Note_on_c, 1, 53, 42
7, 13667, Note_on_c, 1, 53, 0
7, 13680, Note_on_c, 1, 55, 35
7, 13740, Note_on_c, 1, 43, 42
7, 13743, Note_on_c, 1, 55, 0
7, 13774, Note_on_c, 1, 43, 0
7, 13800, Note_on_c, 1, 43, 35
7, 13920, Note_on_c, 1, 48, 35
7, 13923, Note_on_c, 1, 43, 0
7, 13974, Note_on_c, 1, 48, 0
7, 13974, End_track
8, 0, Start_track
8, 0, MIDI_port, 0
8, 0, Title_t, "sop solo"
8, 0, Program_c, 2, 53
8, 3117, Note_on_c, 2, 76, 98
8, 3299, Note_on_c, 2, 77, 88
8, 3301, Note_on_c, 2, 76, 0
8, 3341, Note_on_c, 2, 74, 78
8, 3343, Note_on_c, 2, 77, 0
8, 3355, Note_on_c, 2, 72, 98
8, 3356, Note_on_c, 2, 74, 0
8, 3416, Note_on_c, 2, 67, 88
8, 3417, Note_on_c, 2, 72, 0
8, 3476, Note_on_c, 2, 72, 78
8, 3477, Note_on_c, 2, 67, 0
8, 3535, Note_on_c, 2, 74, 78
8, 3536, Note_on_c, 2, 72, 0
8, 3596, Note_on_c, 2, 74, 0
8, 3596, Note_on_c, 2, 76, 70
8, 3777, Note_on_c, 2, 77, 78
8, 3779, Note_on_c, 2, 76, 0
8, 3822, Note_on_c, 2, 74, 78
8, 3824, Note_on_c, 2, 77, 0
8, 3837, Note_on_c, 2, 72, 88
8, 3838, Note_on_c, 2, 74, 0
8, 3891, Note_on_c, 2, 72, 0
8, 4077, Note_on_c, 2, 76, 88
8, 4238, Note_on_c, 2, 76, 0
8, 4253, Note_on_c, 2, 76, 78
8, 4303, Note_on_c, 2, 76, 0
8, 4315, Note_on_c, 2, 76, 98
8, 4466, Note_on_c, 2, 77, 98
8, 4467, Note_on_c, 2, 76, 0
8, 4497, Note_on_c, 2, 74, 88
8, 4501, Note_on_c, 2, 77, 0
8, 4523, Note_on_c, 2, 74, 0
8, 4523, Note_on_c, 2, 71, 78
8, 4551, Note_on_c, 2, 71, 0
8, 4555, Note_on_c, 2, 69, 88
8, 4726, Note_on_c, 2, 72, 78
8, 4727, Note_on_c, 2, 69, 0
8, 4732, Note_on_c, 2, 71, 98
8, 4736, Note_on_c, 2, 72, 0
8, 4792, Note_on_c, 2, 71, 0
8, 4794, Note_on_c, 2, 69, 98
8, 4915, Note_on_c, 2, 69, 0
8, 5995, Note_on_c, 2, 69, 88
8, 6179, Note_on_c, 2, 69, 0
8, 6179, Note_on_c, 2, 77, 88
8, 6207, Note_on_c, 2, 74, 62
8, 6210, Note_on_c, 2, 77, 0
8, 6227, Note_on_c, 2, 72, 78
8, 6230, Note_on_c, 2, 74, 0
8, 6237, Note_on_c, 2, 71, 88
8, 6241, Note_on_c, 2, 72, 0
8, 6350, Note_on_c, 2, 74, 70
8, 6352, Note_on_c, 2, 71, 0
8, 6356, Note_on_c, 2, 72, 78
8, 6361, Note_on_c, 2, 74, 0
8, 6418, Note_on_c, 2, 71, 88
8, 6421, Note_on_c, 2, 72, 0
8, 6445, Note_on_c, 2, 69, 78
8, 6448, Note_on_c, 2, 71, 0
8, 6475, Note_on_c, 2, 69, 0
8, 6475, Note_on_c, 2, 67, 88
8, 6535, Note_on_c, 2, 65, 98
8, 6537, Note_on_c, 2, 67, 0
8, 6659, Note_on_c, 2, 64, 88
8, 6662, Note_on_c, 2, 65, 0
8, 6705, Note_on_c, 2, 64, 0
8, 6719, Note_on_c, 2, 64, 88
8, 6776, Note_on_c, 2, 64, 0
8, 6776, Note_on_c, 2, 62, 88
8, 6827, Note_on_c, 2, 62, 0
8, 7198, Note_on_c, 2, 75, 98
8, 7375, Note_on_c, 2, 75, 0
8, 7376, Note_on_c, 2, 77, 88
8, 7422, Note_on_c, 2, 74, 70
8, 7425, Note_on_c, 2, 77, 0
8, 7435, Note_on_c, 2, 74, 0
8, 7435, Note_on_c, 2, 72, 78
8, 7495, Note_on_c, 2, 67, 88
8, 7496, Note_on_c, 2, 72, 0
8, 7556, Note_on_c, 2, 72, 88
8, 7558, Note_on_c, 2, 67, 0
8, 7615, Note_on_c, 2, 74, 88
8, 7617, Note_on_c, 2, 72, 0
8, 7676, Note_on_c, 2, 76, 88
8, 7677, Note_on_c, 2, 74, 0
8, 7859, Note_on_c, 2, 77, 88
8, 7861, Note_on_c, 2, 76, 0
8, 7901, Note_on_c, 2, 74, 78
8, 7902, Note_on_c, 2, 77, 0
8, 7913, Note_on_c, 2, 72, 88
8, 7915, Note_on_c, 2, 74, 0
8, 7976, Note_on_c, 2, 72, 0
8, 8878, Note_on_c, 2, 72, 98
8, 9027, Note_on_c, 2, 72, 0
8, 9055, Note_on_c, 2, 72, 70
8, 9096, Note_on_c, 2, 72, 0
8, 9102, Note_on_c, 2, 74, 70
8, 9109, Note_on_c, 2, 72, 70
8, 9114, Note_on_c, 2, 74, 0
8, 9179, Note_on_c, 2, 71, 88
8, 9182, Note_on_c, 2, 72, 0
8, 9205, Note_on_c, 2, 69, 62
8, 9206, Note_on_c, 2, 71, 0
8, 9224, Note_on_c, 2, 69, 0
8, 9234, Note_on_c, 2, 69, 88
8, 9303, Note_on_c, 2, 67, 98
8, 9306, Note_on_c, 2, 69, 0
8, 9327, Note_on_c, 2, 67, 0
8, 9327, Note_on_c, 2, 65, 78
8, 9349, Note_on_c, 2, 65, 0
8, 9358, Note_on_c, 2, 64, 98
8, 9479, Note_on_c, 2, 62, 88
8, 9483, Note_on_c, 2, 64, 0
8, 9598, Note_on_c, 2, 62, 0
8, 9598, Note_on_c, 2, 60, 98
8, 9694, Note_on_c, 2, 60, 0
8, 9694, End_track
9, 0, Start_track
9, 0, MIDI_port, 0
9, 0, Title_t, "alt solo"
9, 0, End_track
10, 0, Start_track
10, 0, MIDI_port, 0
10, 0, Title_t, "tenor solo"
10, 5036, Note_on_c, 2, 62, 88
10, 5201, Note_on_c, 2, 62, 0
10, 5218, Note_on_c, 2, 62, 70
10, 5262, Note_on_c, 2, 62, 0
10, 5280, Note_on_c, 2, 62, 98
10, 5427, Note_on_c, 2, 64, 88
10, 5428, Note_on_c, 2, 62, 0
10, 5456, Note_on_c, 2, 60, 70
10, 5461, Note_on_c, 2, 64, 0
10, 5486, Note_on_c, 2, 60, 0
10, 5486, Note_on_c, 2, 57, 78
10, 5513, Note_on_c, 2, 57, 0
10, 5517, Note_on_c, 2, 55, 88
10, 5691, Note_on_c, 2, 59, 78
10, 5692, Note_on_c, 2, 55, 0
10, 5698, Note_on_c, 2, 57, 88
10, 5702, Note_on_c, 2, 59, 0
10, 5757, Note_on_c, 2, 57, 0
10, 5758, Note_on_c, 2, 55, 98
10, 5878, Note_on_c, 2, 55, 0
10, 6955, Note_on_c, 2, 63, 98
10, 7139, Note_on_c, 2, 65, 98
10, 7141, Note_on_c, 2, 63, 0
10, 7189, Note_on_c, 2, 62, 88
10, 7190, Note_on_c, 2, 65, 0
10, 7201, Note_on_c, 2, 62, 0
10, 7201, Note_on_c, 2, 60, 88
10, 7259, Note_on_c, 2, 60, 0
10, 7259, Note_on_c, 2, 55, 88
10, 7319, Note_on_c, 2, 60, 78
10, 7322, Note_on_c, 2, 55, 0
10, 7378, Note_on_c, 2, 62, 78
10, 7382, Note_on_c, 2, 60, 0
10, 7436, Note_on_c, 2, 62, 0
10, 7436, Note_on_c, 2, 63, 98
10, 7618, Note_on_c, 2, 63, 0
10, 7618, Note_on_c, 2, 65, 98
10, 7662, Note_on_c, 2, 62, 78
10, 7664, Note_on_c, 2, 65, 0
10, 7677, Note_on_c, 2, 62, 0
10, 7677, Note_on_c, 2, 60, 78
10, 7744, Note_on_c, 2, 60, 0
10, 7915, Note_on_c, 2, 64, 98
10, 8083, Note_on_c, 2, 64, 0
10, 8098, Note_on_c, 2, 64, 88
10, 8143, Note_on_c, 2, 64, 0
10, 8157, Note_on_c, 2, 64, 78
10, 8266, Note_on_c, 2, 64, 0
10, 8276, Note_on_c, 2, 64, 88
10, 8303, Note_on_c, 2, 62, 70
10, 8304, Note_on_c, 2, 64, 0
10, 8336, Note_on_c, 2, 64, 88
10, 8340, Note_on_c, 2, 62, 0
10, 8364, Note_on_c, 2, 65, 88
10, 8366, Note_on_c, 2, 64, 0
10, 8393, Note_on_c, 2, 65, 0
10, 8395, Note_on_c, 2, 60, 78
10, 8568, Note_on_c, 2, 64, 78
10, 8570, Note_on_c, 2, 60, 0
10, 8575, Note_on_c, 2, 62, 88
10, 8580, Note_on_c, 2, 64, 0
10, 8637, Note_on_c, 2, 62, 0
10, 8638, Note_on_c, 2, 60, 88
10, 8758, Note_on_c, 2, 60, 0
10, 8758, End_track
11, 0, Start_track
11, 0, MIDI_port, 0
11, 0, Title_t, "bass solo"
11, 0, End_track
12, 0, Start_track
12, 0, MIDI_port, 0
12, 0, Title_t, "sequenced by Michael Petri"
12, 0, End_track
0, 0, End_of_file