0, 0, Header, 1, 23, 240
1, 0, Start_track
1, 0, Title_t, "W.A. Mozart - Requiem K. 626"
1, 0, Time_signature, 4, 2, 24, 8
1, 0, Key_signature, 0, "major"
1, 0, Tempo, 923077
1, 0, Marker_t, "Conductor Track"
1, 37680, Tempo, 2400000
1, 37920, Tempo, 1333333
1, 38160, Tempo, 2400000
1, 38400, Tempo, 923077
1, 38400, End_track
2, 0, Start_track
2, 0, Title_t, "No. 6 - Confutatis"
2, 0, End_track
3, 0, Start_track
3, 0, Title_t, "Sequenced by D. Viens 9-27-97"
3, 0, End_track
4, 0, Start_track
4, 0, Title_t, "dlviens@ix.netcom.com"
4, 0, End_track
5, 0, Start_track
5, 0, End_track
6, 0, Start_track
6, 0, Title_t, "Corni di Bassetto in F"
6, 0, Program_c, 0, 71
6, 0, Control_c, 0, 7, 96
6, 0, Control_c, 0, 10, 75
6, 0, Control_c, 0, 11, 127
6, 5040, Note_on_c, 0, 67, 48
6, 5279, Note_on_c, 0, 67, 0
6, 5280, Note_on_c, 0, 69, 48
6, 5280, Note_on_c, 0, 66, 48
6, 5519, Note_on_c, 0, 66, 0
6, 5519, Note_on_c, 0, 69, 0
6, 5520, Note_on_c, 0, 71, 48
6, 5520, Note_on_c, 0, 65, 48
6, 5759, Note_on_c, 0, 65, 0
6, 5759, Note_on_c, 0, 71, 0
6, 5760, Note_on_c, 0, 72, 48
6, 5760, Note_on_c, 0, 64, 48
6, 5999, Note_on_c, 0, 64, 0
6, 5999, Note_on_c, 0, 72, 0
6, 14640, Note_on_c, 0, 64, 48
6, 14879, Note_on_c, 0, 64, 0
6, 14880, Note_on_c, 0, 66, 48
6, 14880, Note_on_c, 0, 63, 48
6, 15119, Note_on_c, 0, 63, 0
6, 15119, Note_on_c, 0, 66, 0
6, 15120, Note_on_c, 0, 68, 48
6, 15120, Note_on_c, 0, 62, 48
6, 15359, Note_on_c, 0, 62, 0
6, 15359, Note_on_c, 0, 68, 0
6, 15360, Note_on_c, 0, 69, 48
6, 15360, Note_on_c, 0, 60, 48
6, 15599, Note_on_c, 0, 60, 0
6, 15599, Note_on_c, 0, 69, 0
6, 23040, Note_on_c, 0, 69, 48
6, 23040, Note_on_c, 0, 64, 48
6, 23999, Note_on_c, 0, 64, 0
6, 23999, Note_on_c, 0, 69, 0
6, 24000, Note_on_c, 0, 69, 48
6, 24000, Note_on_c, 0, 66, 48
6, 24959, Note_on_c, 0, 66, 0
6, 24959, Note_on_c, 0, 69, 0
6, 24960, Note_on_c, 0, 70, 48
6, 24960, Note_on_c, 0, 67, 48
6, 25919, Note_on_c, 0, 67, 0
6, 25920, Note_on_c, 0, 63, 48
6, 26159, Note_on_c, 0, 70, 0
6, 26160, Note_on_c, 0, 68, 48
6, 26399, Note_on_c, 0, 63, 0
6, 26400, Note_on_c, 0, 61, 48
6, 26639, Note_on_c, 0, 68, 0
6, 26640, Note_on_c, 0, 67, 48
6, 26879, Note_on_c, 0, 67, 0
6, 26879, Note_on_c, 0, 61, 0
6, 26880, Note_on_c, 0, 68, 48
6, 26880, Note_on_c, 0, 63, 48
6, 27839, Note_on_c, 0, 63, 0
6, 27839, Note_on_c, 0, 68, 0
6, 27840, Note_on_c, 0, 68, 48
6, 27840, Note_on_c, 0, 65, 48
6, 28799, Note_on_c, 0, 65, 0
6, 28799, Note_on_c, 0, 68, 0
6, 28800, Note_on_c, 0, 69, 48
6, 28800, Note_on_c, 0, 66, 48
6, 29759, Note_on_c, 0, 66, 0
6, 29760, Note_on_c, 0, 62, 48
6, 29999, Note_on_c, 0, 69, 0
6, 30000, Note_on_c, 0, 67, 48
6, 30479, Note_on_c, 0, 67, 0
6, 30480, Note_on_c, 0, 66, 48
6, 30719, Note_on_c, 0, 66, 0
6, 30719, Note_on_c, 0, 62, 0
6, 30720, Note_on_c, 0, 67, 48
6, 30720, Note_on_c, 0, 62, 48
6, 31679, Note_on_c, 0, 62, 0
6, 31679, Note_on_c, 0, 67, 0
6, 31680, Note_on_c, 0, 67, 48
6, 31680, Note_on_c, 0, 64, 48
6, 32639, Note_on_c, 0, 64, 0
6, 32639, Note_on_c, 0, 67, 0
6, 32640, Note_on_c, 0, 65, 48
6, 32640, Note_on_c, 0, 68, 48
6, 33119, Note_on_c, 0, 68, 0
6, 33119, Note_on_c, 0, 65, 0
6, 33120, Note_on_c, 0, 66, 48
6, 33120, Note_on_c, 0, 61, 48
6, 33599, Note_on_c, 0, 61, 0
6, 33599, Note_on_c, 0, 66, 0
6, 33600, Note_on_c, 0, 66, 48
6, 33600, Note_on_c, 0, 63, 48
6, 34559, Note_on_c, 0, 63, 0
6, 34559, Note_on_c, 0, 66, 0
6, 34560, Note_on_c, 0, 67, 48
6, 34560, Note_on_c, 0, 64, 48
6, 35039, Note_on_c, 0, 64, 0
6, 35039, Note_on_c, 0, 67, 0
6, 35040, Note_on_c, 0, 65, 48
6, 35040, Note_on_c, 0, 65, 48
6, 35279, Note_on_c, 0, 65, 0
6, 35280, Note_on_c, 0, 60, 48
6, 35519, Note_on_c, 0, 60, 0
6, 35520, Note_on_c, 0, 60, 48
6, 35999, Note_on_c, 0, 65, 0
6, 36000, Note_on_c, 0, 64, 48
6, 36479, Note_on_c, 0, 64, 0
6, 36479, Note_on_c, 0, 60, 0
6, 36480, Note_on_c, 0, 65, 48
6, 36480, Note_on_c, 0, 60, 48
6, 37679, Note_on_c, 0, 60, 0
6, 37679, Note_on_c, 0, 65, 0
6, 37679, End_track
7, 0, Start_track
7, 0, Title_t, "Bassoon"
7, 0, Program_c, 1, 70
7, 0, Control_c, 1, 7, 96
7, 0, Control_c, 1, 10, 65
7, 0, Control_c, 1, 11, 127
7, 240, Note_on_c, 1, 57, 72
7, 419, Note_on_c, 1, 57, 0
7, 420, Note_on_c, 1, 52, 72
7, 479, Note_on_c, 1, 52, 0
7, 480, Note_on_c, 1, 60, 72
7, 719, Note_on_c, 1, 60, 0
7, 720, Note_on_c, 1, 57, 72
7, 720, Note_on_c, 1, 60, 72
7, 899, Note_on_c, 1, 60, 0
7, 900, Note_on_c, 1, 57, 72
7, 959, Note_on_c, 1, 57, 0
7, 959, Note_on_c, 1, 57, 0
7, 960, Note_on_c, 1, 62, 72
7, 1199, Note_on_c, 1, 62, 0
7, 1200, Note_on_c, 1, 56, 72
7, 1200, Note_on_c, 1, 59, 72
7, 1379, Note_on_c, 1, 59, 0
7, 1380, Note_on_c, 1, 52, 72
7, 1439, Note_on_c, 1, 52, 0
7, 1439, Note_on_c, 1, 56, 0
7, 1440, Note_on_c, 1, 62, 72
7, 1679, Note_on_c, 1, 62, 0
7, 1680, Note_on_c, 1, 56, 72
7, 1680, Note_on_c, 1, 62, 72
7, 1859, Note_on_c, 1, 62, 0
7, 1860, Note_on_c, 1, 59, 72
7, 1919, Note_on_c, 1, 59, 0
7, 1919, Note_on_c, 1, 56, 0
7, 1920, Note_on_c, 1, 64, 72
7, 2159, Note_on_c, 1, 64, 0
7, 2160, Note_on_c, 1, 57, 72
7, 2160, Note_on_c, 1, 64, 72
7, 2339, Note_on_c, 1, 64, 0
7, 2340, Note_on_c, 1, 62, 72
7, 2399, Note_on_c, 1, 62, 0
7, 2399, Note_on_c, 1, 57, 0
7, 2400, Note_on_c, 1, 60, 72
7, 2579, Note_on_c, 1, 60, 0
7, 2580, Note_on_c, 1, 59, 72
7, 2639, Note_on_c, 1, 59, 0
7, 2640, Note_on_c, 1, 57, 72
7, 2819, Note_on_c, 1, 57, 0
7, 2820, Note_on_c, 1, 55, 72
7, 2879, Note_on_c, 1, 55, 0
7, 2880, Note_on_c, 1, 53, 72
7, 3119, Note_on_c, 1, 53, 0
7, 3120, Note_on_c, 1, 50, 72
7, 3120, Note_on_c, 1, 65, 72
7, 3299, Note_on_c, 1, 65, 0
7, 3300, Note_on_c, 1, 64, 72
7, 3359, Note_on_c, 1, 64, 0
7, 3359, Note_on_c, 1, 50, 0
7, 3360, Note_on_c, 1, 62, 72
7, 3539, Note_on_c, 1, 62, 0
7, 3540, Note_on_c, 1, 60, 72
7, 3599, Note_on_c, 1, 60, 0
7, 3600, Note_on_c, 1, 62, 72
7, 3600, Note_on_c, 1, 59, 72
7, 3779, Note_on_c, 1, 59, 0
7, 3779, Note_on_c, 1, 62, 0
7, 3780, Note_on_c, 1, 62, 72
7, 3780, Note_on_c, 1, 57, 72
7, 3839, Note_on_c, 1, 57, 0
7, 3839, Note_on_c, 1, 62, 0
7, 3840, Note_on_c, 1, 62, 72
7, 3840, Note_on_c, 1, 56, 72
7, 4019, Note_on_c, 1, 56, 0
7, 4019, Note_on_c, 1, 62, 0
7, 4020, Note_on_c, 1, 52, 72
7, 4079, Note_on_c, 1, 52, 0
7, 4080, Note_on_c, 1, 62, 72
7, 4080, Note_on_c, 1, 56, 72
7, 4259, Note_on_c, 1, 56, 0
7, 4259, Note_on_c, 1, 62, 0
7, 4260, Note_on_c, 1, 62, 72
7, 4260, Note_on_c, 1, 52, 72
7, 4319, Note_on_c, 1, 52, 0
7, 4319, Note_on_c, 1, 62, 0
7, 4320, Note_on_c, 1, 63, 72
7, 4320, Note_on_c, 1, 60, 72
7, 4499, Note_on_c, 1, 60, 0
7, 4499, Note_on_c, 1, 63, 0
7, 4500, Note_on_c, 1, 63, 72
7, 4500, Note_on_c, 1, 57, 72
7, 4559, Note_on_c, 1, 57, 0
7, 4559, Note_on_c, 1, 63, 0
7, 4560, Note_on_c, 1, 63, 72
7, 4560, Note_on_c, 1, 60, 72
7, 4739, Note_on_c, 1, 60, 0
7, 4739, Note_on_c, 1, 63, 0
7, 4740, Note_on_c, 1, 63, 72
7, 4740, Note_on_c, 1, 57, 72
7, 4799, Note_on_c, 1, 57, 0
7, 4799, Note_on_c, 1, 63, 0
7, 4800, Note_on_c, 1, 64, 72
7, 4800, Note_on_c, 1, 56, 72
7, 5039, Note_on_c, 1, 56, 0
7, 5039, Note_on_c, 1, 64, 0
7, 5040, Note_on_c, 1, 67, 48
7, 5040, Note_on_c, 1, 64, 48
7, 5279, Note_on_c, 1, 64, 0
7, 5279, Note_on_c, 1, 67, 0
7, 5280, Note_on_c, 1, 66, 48
7, 5280, Note_on_c, 1, 63, 48
7, 5519, Note_on_c, 1, 63, 0
7, 5519, Note_on_c, 1, 66, 0
7, 5520, Note_on_c, 1, 65, 48
7, 5520, Note_on_c, 1, 62, 48
7, 5759, Note_on_c, 1, 62, 0
7, 5759, Note_on_c, 1, 65, 0
7, 5760, Note_on_c, 1, 64, 48
7, 5760, Note_on_c, 1, 60, 48
7, 5999, Note_on_c, 1, 60, 0
7, 5999, Note_on_c, 1, 64, 0
7, 9360, Note_on_c, 1, 55, 72
7, 9539, Note_on_c, 1, 55, 0
7, 9540, Note_on_c, 1, 60, 72
7, 9599, Note_on_c, 1, 60, 0
7, 9600, Note_on_c, 1, 59, 72
7, 9839, Note_on_c, 1, 59, 0
7, 9840, Note_on_c, 1, 55, 72
7, 9840, Note_on_c, 1, 62, 72
7, 10019, Note_on_c, 1, 62, 0
7, 10020, Note_on_c, 1, 67, 72
7, 10079, Note_on_c, 1, 67, 0
7, 10079, Note_on_c, 1, 55, 0
7, 10080, Note_on_c, 1, 66, 72
7, 10319, Note_on_c, 1, 66, 0
7, 10320, Note_on_c, 1, 62, 72
7, 10320, Note_on_c, 1, 57, 72
7, 10499, Note_on_c, 1, 57, 0
7, 10500, Note_on_c, 1, 62, 72
7, 10559, Note_on_c, 1, 62, 0
7, 10559, Note_on_c, 1, 62, 0
7, 10560, Note_on_c, 1, 61, 72
7, 10799, Note_on_c, 1, 61, 0
7, 10800, Note_on_c, 1, 57, 72
7, 10800, Note_on_c, 1, 64, 72
7, 10979, Note_on_c, 1, 64, 0
7, 10980, Note_on_c, 1, 69, 72
7, 11039, Note_on_c, 1, 69, 0
7, 11039, Note_on_c, 1, 57, 0
7, 11040, Note_on_c, 1, 68, 72
7, 11279, Note_on_c, 1, 68, 0
7, 11280, Note_on_c, 1, 64, 72
7, 11280, Note_on_c, 1, 59, 72
7, 11459, Note_on_c, 1, 59, 0
7, 11460, Note_on_c, 1, 64, 72
7, 11519, Note_on_c, 1, 64, 0
7, 11519, Note_on_c, 1, 64, 0
7, 11520, Note_on_c, 1, 65, 72
7, 11520, Note_on_c, 1, 64, 72
7, 11699, Note_on_c, 1, 64, 0
7, 11700, Note_on_c, 1, 57, 72
7, 11759, Note_on_c, 1, 57, 0
7, 11759, Note_on_c, 1, 65, 0
7, 11760, Note_on_c, 1, 62, 72
7, 11880, Note_on_c, 1, 67, 72
7, 11939, Note_on_c, 1, 62, 0
7, 11940, Note_on_c, 1, 62, 72
7, 11999, Note_on_c, 1, 62, 0
7, 11999, Note_on_c, 1, 67, 0
7, 12000, Note_on_c, 1, 62, 72
7, 12000, Note_on_c, 1, 64, 72
7, 12179, Note_on_c, 1, 64, 0
7, 12179, Note_on_c, 1, 62, 0
7, 12180, Note_on_c, 1, 55, 72
7, 12180, Note_on_c, 1, 64, 72
7, 12239, Note_on_c, 1, 64, 0
7, 12239, Note_on_c, 1, 55, 0
7, 12240, Note_on_c, 1, 60, 72
7, 12240, Note_on_c, 1, 64, 72
7, 12419, Note_on_c, 1, 64, 0
7, 12419, Note_on_c, 1, 60, 0
7, 12420, Note_on_c, 1, 60, 72
7, 12420, Note_on_c, 1, 65, 72
7, 12479, Note_on_c, 1, 65, 0
7, 12479, Note_on_c, 1, 60, 0
7, 12480, Note_on_c, 1, 62, 72
7, 12480, Note_on_c, 1, 60, 72
7, 12659, Note_on_c, 1, 60, 0
7, 12659, Note_on_c, 1, 62, 0
7, 12660, Note_on_c, 1, 62, 72
7, 12660, Note_on_c, 1, 54, 72
7, 12719, Note_on_c, 1, 54, 0
7, 12719, Note_on_c, 1, 62, 0
7, 12720, Note_on_c, 1, 62, 72
7, 12720, Note_on_c, 1, 59, 72
7, 12899, Note_on_c, 1, 59, 0
7, 12899, Note_on_c, 1, 62, 0
7, 12900, Note_on_c, 1, 64, 72
7, 12900, Note_on_c, 1, 59, 72
7, 12959, Note_on_c, 1, 59, 0
7, 12959, Note_on_c, 1, 64, 0
7, 12960, Note_on_c, 1, 60, 72
7, 12960, Note_on_c, 1, 57, 72
7, 13139, Note_on_c, 1, 57, 0
7, 13139, Note_on_c, 1, 60, 0
7, 13140, Note_on_c, 1, 60, 72
7, 13140, Note_on_c, 1, 57, 72
7, 13199, Note_on_c, 1, 57, 0
7, 13199, Note_on_c, 1, 60, 0
7, 13200, Note_on_c, 1, 60, 72
7, 13200, Note_on_c, 1, 58, 72
7, 13379, Note_on_c, 1, 58, 0
7, 13379, Note_on_c, 1, 60, 0
7, 13380, Note_on_c, 1, 60, 72
7, 13380, Note_on_c, 1, 58, 72
7, 13439, Note_on_c, 1, 58, 0
7, 13439, Note_on_c, 1, 60, 0
7, 13440, Note_on_c, 1, 62, 72
7, 13440, Note_on_c, 1, 57, 72
7, 13619, Note_on_c, 1, 57, 0
7, 13619, Note_on_c, 1, 62, 0
7, 13620, Note_on_c, 1, 62, 72
7, 13620, Note_on_c, 1, 57, 72
7, 13679, Note_on_c, 1, 57, 0
7, 13679, Note_on_c, 1, 62, 0
7, 13680, Note_on_c, 1, 62, 72
7, 13680, Note_on_c, 1, 57, 72
7, 13859, Note_on_c, 1, 57, 0
7, 13859, Note_on_c, 1, 62, 0
7, 13860, Note_on_c, 1, 62, 72
7, 13860, Note_on_c, 1, 57, 72
7, 13919, Note_on_c, 1, 57, 0
7, 13919, Note_on_c, 1, 62, 0
7, 13920, Note_on_c, 1, 63, 72
7, 13920, Note_on_c, 1, 60, 72
7, 14099, Note_on_c, 1, 60, 0
7, 14099, Note_on_c, 1, 63, 0
7, 14100, Note_on_c, 1, 60, 72
7, 14100, Note_on_c, 1, 63, 72
7, 14159, Note_on_c, 1, 63, 0
7, 14159, Note_on_c, 1, 60, 0
7, 14160, Note_on_c, 1, 63, 72
7, 14160, Note_on_c, 1, 59, 72
7, 14339, Note_on_c, 1, 59, 0
7, 14339, Note_on_c, 1, 63, 0
7, 14340, Note_on_c, 1, 63, 72
7, 14340, Note_on_c, 1, 57, 72
7, 14399, Note_on_c, 1, 57, 0
7, 14399, Note_on_c, 1, 63, 0
7, 14400, Note_on_c, 1, 64, 72
7, 14400, Note_on_c, 1, 56, 72
7, 14639, Note_on_c, 1, 56, 0
7, 14639, Note_on_c, 1, 64, 0
7, 14640, Note_on_c, 1, 59, 48
7, 14640, Note_on_c, 1, 56, 48
7, 14879, Note_on_c, 1, 56, 0
7, 14879, Note_on_c, 1, 59, 0
7, 14880, Note_on_c, 1, 60, 48
7, 14880, Note_on_c, 1, 57, 48
7, 15119, Note_on_c, 1, 57, 0
7, 15119, Note_on_c, 1, 60, 0
7, 15120, Note_on_c, 1, 62, 48
7, 15120, Note_on_c, 1, 59, 48
7, 15359, Note_on_c, 1, 59, 0
7, 15359, Note_on_c, 1, 62, 0
7, 15360, Note_on_c, 1, 64, 48
7, 15360, Note_on_c, 1, 57, 48
7, 15599, Note_on_c, 1, 57, 0
7, 15599, Note_on_c, 1, 64, 0
7, 23040, Note_on_c, 1, 60, 48
7, 23040, Note_on_c, 1, 57, 48
7, 23999, Note_on_c, 1, 57, 0
7, 23999, Note_on_c, 1, 60, 0
7, 24000, Note_on_c, 1, 60, 48
7, 24000, Note_on_c, 1, 51, 48
7, 24959, Note_on_c, 1, 60, 0
7, 24960, Note_on_c, 1, 61, 48
7, 25919, Note_on_c, 1, 61, 0
7, 25919, Note_on_c, 1, 51, 0
7, 25920, Note_on_c, 1, 59, 48
7, 25920, Note_on_c, 1, 51, 48
7, 26399, Note_on_c, 1, 59, 0
7, 26400, Note_on_c, 1, 58, 48
7, 26879, Note_on_c, 1, 58, 0
7, 26879, Note_on_c, 1, 51, 0
7, 26880, Note_on_c, 1, 59, 48
7, 26880, Note_on_c, 1, 56, 48
7, 27839, Note_on_c, 1, 56, 0
7, 27839, Note_on_c, 1, 59, 0
7, 27840, Note_on_c, 1, 59, 48
7, 27840, Note_on_c, 1, 50, 48
7, 28799, Note_on_c, 1, 50, 0
7, 28799, Note_on_c, 1, 59, 0
7, 28800, Note_on_c, 1, 60, 48
7, 28800, Note_on_c, 1, 50, 48
7, 29759, Note_on_c, 1, 50, 0
7, 29759, Note_on_c, 1, 60, 0
7, 29760, Note_on_c, 1, 58, 48
7, 29760, Note_on_c, 1, 50, 48
7, 30239, Note_on_c, 1, 58, 0
7, 30240, Note_on_c, 1, 57, 48
7, 30719, Note_on_c, 1, 57, 0
7, 30719, Note_on_c, 1, 50, 0
7, 30720, Note_on_c, 1, 58, 48
7, 30720, Note_on_c, 1, 55, 48
7, 31679, Note_on_c, 1, 55, 0
7, 31679, Note_on_c, 1, 58, 0
7, 31680, Note_on_c, 1, 58, 48
7, 31680, Note_on_c, 1, 49, 48
7, 32639, Note_on_c, 1, 49, 0
7, 32639, Note_on_c, 1, 58, 0
7, 32640, Note_on_c, 1, 59, 48
7, 32640, Note_on_c, 1, 49, 48
7, 33119, Note_on_c, 1, 59, 0
7, 33120, Note_on_c, 1, 57, 48
7, 33599, Note_on_c, 1, 57, 0
7, 33599, Note_on_c, 1, 49, 0
7, 33600, Note_on_c, 1, 57, 48
7, 33600, Note_on_c, 1, 48, 48
7, 34559, Note_on_c, 1, 48, 0
7, 34559, Note_on_c, 1, 57, 0
7, 34560, Note_on_c, 1, 58, 48
7, 34560, Note_on_c, 1, 48, 48
7, 35039, Note_on_c, 1, 48, 0
7, 35039, Note_on_c, 1, 58, 0
7, 35040, Note_on_c, 1, 56, 48
7, 35040, Note_on_c, 1, 48, 48
7, 35519, Note_on_c, 1, 48, 0
7, 35519, Note_on_c, 1, 56, 0
7, 35520, Note_on_c, 1, 55, 48
7, 35520, Note_on_c, 1, 48, 48
7, 36479, Note_on_c, 1, 48, 0
7, 36479, Note_on_c, 1, 55, 0
7, 36480, Note_on_c, 1, 57, 48
7, 36480, Note_on_c, 1, 53, 48
7, 37679, Note_on_c, 1, 53, 0
7, 37679, Note_on_c, 1, 57, 0
7, 37679, End_track
8, 0, Start_track
8, 0, Title_t, "Trumpet in D"
8, 0, Program_c, 2, 56
8, 0, Control_c, 2, 7, 96
8, 0, Control_c, 2, 10, 60
8, 0, Control_c, 2, 11, 127
8, 0, Note_on_c, 2, 69, 72
8, 0, Note_on_c, 2, 57, 72
8, 239, Note_on_c, 2, 57, 0
8, 239, Note_on_c, 2, 69, 0
8, 480, Note_on_c, 2, 69, 72
8, 480, Note_on_c, 2, 57, 72
8, 719, Note_on_c, 2, 57, 0
8, 719, Note_on_c, 2, 69, 0
8, 960, Note_on_c, 2, 74, 72
8, 960, Note_on_c, 2, 62, 72
8, 1199, Note_on_c, 2, 62, 0
8, 1199, Note_on_c, 2, 74, 0
8, 1440, Note_on_c, 2, 74, 72
8, 1440, Note_on_c, 2, 62, 72
8, 1679, Note_on_c, 2, 62, 0
8, 1679, Note_on_c, 2, 74, 0
8, 1920, Note_on_c, 2, 76, 72
8, 1920, Note_on_c, 2, 69, 72
8, 2159, Note_on_c, 2, 69, 0
8, 2159, Note_on_c, 2, 76, 0
8, 2400, Note_on_c, 2, 76, 72
8, 2400, Note_on_c, 2, 69, 72
8, 2639, Note_on_c, 2, 69, 0
8, 2639, Note_on_c, 2, 76, 0
8, 2880, Note_on_c, 2, 74, 72
8, 2880, Note_on_c, 2, 62, 72
8, 3119, Note_on_c, 2, 62, 0
8, 3119, Note_on_c, 2, 74, 0
8, 3360, Note_on_c, 2, 69, 72
8, 3360, Note_on_c, 2, 62, 72
8, 3599, Note_on_c, 2, 62, 0
8, 3599, Note_on_c, 2, 69, 0
8, 3840, Note_on_c, 2, 76, 72
8, 4079, Note_on_c, 2, 76, 0
8, 4320, Note_on_c, 2, 69, 72
8, 4559, Note_on_c, 2, 69, 0
8, 4800, Note_on_c, 2, 76, 72
8, 5039, Note_on_c, 2, 76, 0
8, 10080, Note_on_c, 2, 74, 72
8, 10080, Note_on_c, 2, 62, 72
8, 10319, Note_on_c, 2, 62, 0
8, 10319, Note_on_c, 2, 74, 0
8, 10560, Note_on_c, 2, 69, 72
8, 10560, Note_on_c, 2, 57, 72
8, 10799, Note_on_c, 2, 57, 0
8, 10799, Note_on_c, 2, 69, 0
8, 11040, Note_on_c, 2, 76, 72
8, 11279, Note_on_c, 2, 76, 0
8, 11490, Note_on_c, 2, 57, 72
8, 11520, Note_on_c, 2, 69, 72
8, 11729, Note_on_c, 2, 57, 0
8, 11759, Note_on_c, 2, 69, 0
8, 12480, Note_on_c, 2, 74, 72
8, 12480, Note_on_c, 2, 62, 72
8, 12719, Note_on_c, 2, 62, 0
8, 12719, Note_on_c, 2, 74, 0
8, 12960, Note_on_c, 2, 69, 72
8, 12960, Note_on_c, 2, 57, 72
8, 13199, Note_on_c, 2, 57, 0
8, 13199, Note_on_c, 2, 69, 0
8, 13440, Note_on_c, 2, 74, 72
8, 13440, Note_on_c, 2, 62, 72
8, 13679, Note_on_c, 2, 62, 0
8, 13679, Note_on_c, 2, 74, 0
8, 13920, Note_on_c, 2, 69, 72
8, 13920, Note_on_c, 2, 57, 72
8, 14159, Note_on_c, 2, 57, 0
8, 14159, Note_on_c, 2, 69, 0
8, 14159, End_track
9, 0, Start_track
9, 0, Title_t, "Alto Trombone"
9, 0, Program_c, 3, 57
9, 0, Control_c, 3, 7, 96
9, 0, Control_c, 3, 10, 96
9, 0, Control_c, 3, 11, 127
9, 9120, Note_on_c, 3, 60, 72
9, 9359, Note_on_c, 3, 60, 0
9, 9360, Note_on_c, 3, 63, 72
9, 9599, Note_on_c, 3, 63, 0
9, 9600, Note_on_c, 3, 62, 72
9, 9959, Note_on_c, 3, 62, 0
9, 9960, Note_on_c, 3, 67, 72
9, 10079, Note_on_c, 3, 67, 0
9, 10080, Note_on_c, 3, 66, 72
9, 10319, Note_on_c, 3, 66, 0
9, 10320, Note_on_c, 3, 62, 72
9, 10559, Note_on_c, 3, 62, 0
9, 10560, Note_on_c, 3, 65, 72
9, 10919, Note_on_c, 3, 65, 0
9, 10920, Note_on_c, 3, 69, 72
9, 11039, Note_on_c, 3, 69, 0
9, 11040, Note_on_c, 3, 68, 72
9, 11279, Note_on_c, 3, 68, 0
9, 11280, Note_on_c, 3, 64, 72
9, 11519, Note_on_c, 3, 64, 0
9, 11520, Note_on_c, 3, 65, 72
9, 11879, Note_on_c, 3, 65, 0
9, 11880, Note_on_c, 3, 67, 72
9, 11999, Note_on_c, 3, 67, 0
9, 12000, Note_on_c, 3, 64, 72
9, 12359, Note_on_c, 3, 64, 0
9, 12360, Note_on_c, 3, 65, 72
9, 12479, Note_on_c, 3, 65, 0
9, 12480, Note_on_c, 3, 62, 72
9, 12839, Note_on_c, 3, 62, 0
9, 12840, Note_on_c, 3, 64, 72
9, 12959, Note_on_c, 3, 64, 0
9, 12960, Note_on_c, 3, 60, 72
9, 13199, Note_on_c, 3, 60, 0
9, 13200, Note_on_c, 3, 58, 72
9, 13439, Note_on_c, 3, 58, 0
9, 13440, Note_on_c, 3, 57, 72
9, 13679, Note_on_c, 3, 57, 0
9, 13680, Note_on_c, 3, 62, 72
9, 13919, Note_on_c, 3, 62, 0
9, 13920, Note_on_c, 3, 63, 72
9, 14399, Note_on_c, 3, 63, 0
9, 14400, Note_on_c, 3, 64, 72
9, 14639, Note_on_c, 3, 64, 0
9, 23040, Note_on_c, 3, 64, 48
9, 23999, Note_on_c, 3, 64, 0
9, 24000, Note_on_c, 3, 66, 48
9, 24959, Note_on_c, 3, 66, 0
9, 24960, Note_on_c, 3, 67, 48
9, 26159, Note_on_c, 3, 67, 0
9, 26160, Note_on_c, 3, 68, 48
9, 26639, Note_on_c, 3, 68, 0
9, 26640, Note_on_c, 3, 67, 48
9, 26879, Note_on_c, 3, 67, 0
9, 26880, Note_on_c, 3, 68, 48
9, 27839, Note_on_c, 3, 68, 0
9, 27840, Note_on_c, 3, 65, 48
9, 28799, Note_on_c, 3, 65, 0
9, 28800, Note_on_c, 3, 66, 48
9, 29999, Note_on_c, 3, 66, 0
9, 30000, Note_on_c, 3, 67, 48
9, 30479, Note_on_c, 3, 67, 0
9, 30480, Note_on_c, 3, 66, 48
9, 30719, Note_on_c, 3, 66, 0
9, 30720, Note_on_c, 3, 67, 48
9, 31679, Note_on_c, 3, 67, 0
9, 31680, Note_on_c, 3, 64, 48
9, 32639, Note_on_c, 3, 64, 0
9, 32640, Note_on_c, 3, 65, 48
9, 33119, Note_on_c, 3, 65, 0
9, 33120, Note_on_c, 3, 66, 48
9, 33599, Note_on_c, 3, 66, 0
9, 33600, Note_on_c, 3, 63, 48
9, 34559, Note_on_c, 3, 63, 0
9, 34560, Note_on_c, 3, 64, 48
9, 35039, Note_on_c, 3, 64, 0
9, 35040, Note_on_c, 3, 65, 48
9, 35999, Note_on_c, 3, 65, 0
9, 36000, Note_on_c, 3, 64, 48
9, 36479, Note_on_c, 3, 64, 0
9, 36480, Note_on_c, 3, 65, 48
9, 37679, Note_on_c, 3, 65, 0
9, 37679, End_track
10, 0, Start_track
10, 0, Title_t, "Tenor Trombone"
10, 0, Program_c, 3, 57
10, 0, Control_c, 3, 7, 96
10, 0, Control_c, 3, 10, 96
10, 0, Control_c, 3, 11, 127
10, 720, Note_on_c, 3, 60, 72
10, 899, Note_on_c, 3, 60, 0
10, 900, Note_on_c, 3, 57, 72
10, 959, Note_on_c, 3, 57, 0
10, 960, Note_on_c, 3, 62, 72
10, 1199, Note_on_c, 3, 62, 0
10, 1200, Note_on_c, 3, 56, 72
10, 1439, Note_on_c, 3, 56, 0
10, 1680, Note_on_c, 3, 62, 72
10, 1859, Note_on_c, 3, 62, 0
10, 1860, Note_on_c, 3, 59, 72
10, 1919, Note_on_c, 3, 59, 0
10, 1920, Note_on_c, 3, 64, 72
10, 2159, Note_on_c, 3, 64, 0
10, 2160, Note_on_c, 3, 57, 72
10, 2399, Note_on_c, 3, 57, 0
10, 3120, Note_on_c, 3, 65, 72
10, 3299, Note_on_c, 3, 65, 0
10, 3300, Note_on_c, 3, 64, 72
10, 3359, Note_on_c, 3, 64, 0
10, 3360, Note_on_c, 3, 62, 72
10, 3539, Note_on_c, 3, 62, 0
10, 3540, Note_on_c, 3, 60, 72
10, 3599, Note_on_c, 3, 60, 0
10, 3600, Note_on_c, 3, 59, 72
10, 3779, Note_on_c, 3, 59, 0
10, 3780, Note_on_c, 3, 57, 72
10, 3839, Note_on_c, 3, 57, 0
10, 3840, Note_on_c, 3, 56, 72
10, 4019, Note_on_c, 3, 56, 0
10, 4020, Note_on_c, 3, 52, 72
10, 4079, Note_on_c, 3, 52, 0
10, 4080, Note_on_c, 3, 62, 72
10, 4259, Note_on_c, 3, 62, 0
10, 4260, Note_on_c, 3, 62, 72
10, 4319, Note_on_c, 3, 62, 0
10, 4320, Note_on_c, 3, 63, 72
10, 4499, Note_on_c, 3, 63, 0
10, 4500, Note_on_c, 3, 63, 72
10, 4559, Note_on_c, 3, 63, 0
10, 4560, Note_on_c, 3, 63, 72
10, 4739, Note_on_c, 3, 63, 0
10, 4740, Note_on_c, 3, 63, 72
10, 4799, Note_on_c, 3, 63, 0
10, 4800, Note_on_c, 3, 64, 72
10, 5039, Note_on_c, 3, 64, 0
10, 9120, Note_on_c, 3, 55, 72
10, 9479, Note_on_c, 3, 55, 0
10, 9480, Note_on_c, 3, 60, 72
10, 9599, Note_on_c, 3, 60, 0
10, 9600, Note_on_c, 3, 59, 72
10, 9839, Note_on_c, 3, 59, 0
10, 9840, Note_on_c, 3, 58, 72
10, 10079, Note_on_c, 3, 58, 0
10, 10080, Note_on_c, 3, 57, 72
10, 10439, Note_on_c, 3, 57, 0
10, 10440, Note_on_c, 3, 62, 72
10, 10559, Note_on_c, 3, 62, 0
10, 10560, Note_on_c, 3, 61, 72
10, 10799, Note_on_c, 3, 61, 0
10, 10800, Note_on_c, 3, 60, 72
10, 11039, Note_on_c, 3, 60, 0
10, 11040, Note_on_c, 3, 59, 72
10, 11399, Note_on_c, 3, 59, 0
10, 11400, Note_on_c, 3, 64, 72
10, 11519, Note_on_c, 3, 64, 0
10, 11520, Note_on_c, 3, 64, 72
10, 11759, Note_on_c, 3, 64, 0
10, 11760, Note_on_c, 3, 62, 72
10, 12239, Note_on_c, 3, 62, 0
10, 12240, Note_on_c, 3, 60, 72
10, 12719, Note_on_c, 3, 60, 0
10, 12720, Note_on_c, 3, 59, 72
10, 12959, Note_on_c, 3, 59, 0
10, 12960, Note_on_c, 3, 57, 72
10, 13199, Note_on_c, 3, 57, 0
10, 13200, Note_on_c, 3, 61, 72
10, 13439, Note_on_c, 3, 61, 0
10, 13440, Note_on_c, 3, 62, 72
10, 13679, Note_on_c, 3, 62, 0
10, 13680, Note_on_c, 3, 57, 72
10, 13859, Note_on_c, 3, 57, 0
10, 13860, Note_on_c, 3, 59, 72
10, 13919, Note_on_c, 3, 59, 0
10, 13920, Note_on_c, 3, 60, 72
10, 14159, Note_on_c, 3, 60, 0
10, 14160, Note_on_c, 3, 59, 72
10, 14339, Note_on_c, 3, 59, 0
10, 14340, Note_on_c, 3, 57, 72
10, 14399, Note_on_c, 3, 57, 0
10, 14400, Note_on_c, 3, 56, 72
10, 14639, Note_on_c, 3, 56, 0
10, 23040, Note_on_c, 3, 60, 48
10, 23999, Note_on_c, 3, 60, 0
10, 24000, Note_on_c, 3, 60, 48
10, 24959, Note_on_c, 3, 60, 0
10, 24960, Note_on_c, 3, 58, 48
10, 25919, Note_on_c, 3, 58, 0
10, 25920, Note_on_c, 3, 59, 48
10, 26399, Note_on_c, 3, 59, 0
10, 26400, Note_on_c, 3, 58, 48
10, 26879, Note_on_c, 3, 58, 0
10, 26880, Note_on_c, 3, 56, 48
10, 27839, Note_on_c, 3, 56, 0
10, 27840, Note_on_c, 3, 59, 48
10, 28799, Note_on_c, 3, 59, 0
10, 28800, Note_on_c, 3, 60, 48
10, 29759, Note_on_c, 3, 60, 0
10, 29760, Note_on_c, 3, 58, 48
10, 30239, Note_on_c, 3, 58, 0
10, 30240, Note_on_c, 3, 57, 48
10, 30719, Note_on_c, 3, 57, 0
10, 30720, Note_on_c, 3, 58, 48
10, 31679, Note_on_c, 3, 58, 0
10, 31680, Note_on_c, 3, 58, 48
10, 32639, Note_on_c, 3, 58, 0
10, 32640, Note_on_c, 3, 59, 48
10, 33119, Note_on_c, 3, 59, 0
10, 33120, Note_on_c, 3, 57, 48
10, 33599, Note_on_c, 3, 57, 0
10, 33600, Note_on_c, 3, 57, 48
10, 34559, Note_on_c, 3, 57, 0
10, 34560, Note_on_c, 3, 58, 48
10, 35039, Note_on_c, 3, 58, 0
10, 35040, Note_on_c, 3, 56, 48
10, 35519, Note_on_c, 3, 56, 0
10, 35520, Note_on_c, 3, 55, 48
10, 36479, Note_on_c, 3, 55, 0
10, 36480, Note_on_c, 3, 57, 48
10, 37679, Note_on_c, 3, 57, 0
10, 37679, End_track
11, 0, Start_track
11, 0, Title_t, "Baritone Trombone"
11, 0, Program_c, 3, 57
11, 0, Control_c, 3, 7, 96
11, 0, Control_c, 3, 10, 96
11, 0, Control_c, 3, 11, 127
11, 240, Note_on_c, 3, 57, 72
11, 419, Note_on_c, 3, 57, 0
11, 420, Note_on_c, 3, 52, 72
11, 479, Note_on_c, 3, 52, 0
11, 480, Note_on_c, 3, 60, 72
11, 719, Note_on_c, 3, 60, 0
11, 720, Note_on_c, 3, 57, 72
11, 959, Note_on_c, 3, 57, 0
11, 1200, Note_on_c, 3, 59, 72
11, 1379, Note_on_c, 3, 59, 0
11, 1380, Note_on_c, 3, 52, 72
11, 1439, Note_on_c, 3, 52, 0
11, 1440, Note_on_c, 3, 62, 72
11, 1679, Note_on_c, 3, 62, 0
11, 1680, Note_on_c, 3, 56, 72
11, 1919, Note_on_c, 3, 56, 0
11, 2160, Note_on_c, 3, 64, 72
11, 2339, Note_on_c, 3, 64, 0
11, 2340, Note_on_c, 3, 62, 72
11, 2399, Note_on_c, 3, 62, 0
11, 2400, Note_on_c, 3, 60, 72
11, 2579, Note_on_c, 3, 60, 0
11, 2580, Note_on_c, 3, 59, 72
11, 2639, Note_on_c, 3, 59, 0
11, 2640, Note_on_c, 3, 57, 72
11, 2819, Note_on_c, 3, 57, 0
11, 2820, Note_on_c, 3, 55, 72
11, 2879, Note_on_c, 3, 55, 0
11, 2880, Note_on_c, 3, 53, 72
11, 3119, Note_on_c, 3, 53, 0
11, 3120, Note_on_c, 3, 50, 72
11, 3359, Note_on_c, 3, 50, 0
11, 3600, Note_on_c, 3, 62, 72
11, 3779, Note_on_c, 3, 62, 0
11, 3780, Note_on_c, 3, 62, 72
11, 3839, Note_on_c, 3, 62, 0
11, 3840, Note_on_c, 3, 62, 72
11, 4019, Note_on_c, 3, 62, 0
11, 4020, Note_on_c, 3, 52, 72
11, 4079, Note_on_c, 3, 52, 0
11, 4080, Note_on_c, 3, 56, 72
11, 4259, Note_on_c, 3, 56, 0
11, 4260, Note_on_c, 3, 52, 72
11, 4319, Note_on_c, 3, 52, 0
11, 4320, Note_on_c, 3, 60, 72
11, 4499, Note_on_c, 3, 60, 0
11, 4500, Note_on_c, 3, 57, 72
11, 4559, Note_on_c, 3, 57, 0
11, 4560, Note_on_c, 3, 60, 72
11, 4739, Note_on_c, 3, 60, 0
11, 4740, Note_on_c, 3, 57, 72
11, 4799, Note_on_c, 3, 57, 0
11, 4800, Note_on_c, 3, 56, 72
11, 5039, Note_on_c, 3, 56, 0
11, 9120, Note_on_c, 3, 48, 72
11, 9599, Note_on_c, 3, 48, 0
11, 9600, Note_on_c, 3, 55, 72
11, 10079, Note_on_c, 3, 55, 0
11, 10080, Note_on_c, 3, 50, 72
11, 10559, Note_on_c, 3, 50, 0
11, 10560, Note_on_c, 3, 57, 72
11, 11039, Note_on_c, 3, 57, 0
11, 11040, Note_on_c, 3, 52, 72
11, 11519, Note_on_c, 3, 52, 0
11, 11520, Note_on_c, 3, 57, 72
11, 11759, Note_on_c, 3, 57, 0
11, 11760, Note_on_c, 3, 59, 72
11, 11999, Note_on_c, 3, 59, 0
11, 12000, Note_on_c, 3, 60, 72
11, 12239, Note_on_c, 3, 60, 0
11, 12240, Note_on_c, 3, 52, 72
11, 12479, Note_on_c, 3, 52, 0
11, 12480, Note_on_c, 3, 54, 72
11, 12719, Note_on_c, 3, 54, 0
11, 12720, Note_on_c, 3, 56, 72
11, 12959, Note_on_c, 3, 56, 0
11, 12960, Note_on_c, 3, 57, 72
11, 13199, Note_on_c, 3, 57, 0
11, 13200, Note_on_c, 3, 55, 72
11, 13439, Note_on_c, 3, 55, 0
11, 13440, Note_on_c, 3, 54, 72
11, 13919, Note_on_c, 3, 54, 0
11, 13920, Note_on_c, 3, 53, 72
11, 14399, Note_on_c, 3, 53, 0
11, 14400, Note_on_c, 3, 52, 72
11, 14639, Note_on_c, 3, 52, 0
11, 23040, Note_on_c, 3, 57, 48
11, 23999, Note_on_c, 3, 57, 0
11, 24000, Note_on_c, 3, 51, 48
11, 24959, Note_on_c, 3, 51, 0
11, 24960, Note_on_c, 3, 51, 48
11, 25919, Note_on_c, 3, 51, 0
11, 25920, Note_on_c, 3, 51, 48
11, 26879, Note_on_c, 3, 51, 0
11, 26880, Note_on_c, 3, 44, 48
11, 27839, Note_on_c, 3, 44, 0
11, 27840, Note_on_c, 3, 50, 48
11, 28799, Note_on_c, 3, 50, 0
11, 28800, Note_on_c, 3, 50, 48
11, 29759, Note_on_c, 3, 50, 0
11, 29760, Note_on_c, 3, 50, 48
11, 30719, Note_on_c, 3, 50, 0
11, 30720, Note_on_c, 3, 43, 48
11, 31679, Note_on_c, 3, 43, 0
11, 31680, Note_on_c, 3, 49, 48
11, 32639, Note_on_c, 3, 49, 0
11, 32640, Note_on_c, 3, 49, 48
11, 33599, Note_on_c, 3, 49, 0
11, 33600, Note_on_c, 3, 48, 48
11, 34559, Note_on_c, 3, 48, 0
11, 34560, Note_on_c, 3, 48, 48
11, 35519, Note_on_c, 3, 48, 0
11, 35520, Note_on_c, 3, 48, 48
11, 36479, Note_on_c, 3, 48, 0
11, 36480, Note_on_c, 3, 41, 48
11, 37679, Note_on_c, 3, 41, 0
11, 37679, End_track
12, 0, Start_track
12, 0, Title_t, "Violin I"
12, 0, Program_c, 4, 48
12, 0, Control_c, 4, 7, 96
12, 0, Control_c, 4, 10, 48
12, 0, Control_c, 4, 11, 127
12, 0, Note_on_c, 4, 57, 72
12, 29, Note_on_c, 4, 57, 0
12, 30, Note_on_c, 4, 58, 72
12, 59, Note_on_c, 4, 58, 0
12, 60, Note_on_c, 4, 60, 72
12, 119, Note_on_c, 4, 60, 0
12, 120, Note_on_c, 4, 60, 72
12, 149, Note_on_c, 4, 60, 0
12, 180, Note_on_c, 4, 60, 72
12, 209, Note_on_c, 4, 60, 0
12, 240, Note_on_c, 4, 60, 72
12, 269, Note_on_c, 4, 60, 0
12, 270, Note_on_c, 4, 58, 72
12, 299, Note_on_c, 4, 58, 0
12, 300, Note_on_c, 4, 57, 72
12, 359, Note_on_c, 4, 57, 0
12, 360, Note_on_c, 4, 57, 72
12, 389, Note_on_c, 4, 57, 0
12, 420, Note_on_c, 4, 57, 72
12, 449, Note_on_c, 4, 57, 0
12, 480, Note_on_c, 4, 57, 72
12, 509, Note_on_c, 4, 57, 0
12, 510, Note_on_c, 4, 58, 72
12, 539, Note_on_c, 4, 58, 0
12, 540, Note_on_c, 4, 60, 72
12, 599, Note_on_c, 4, 60, 0
12, 600, Note_on_c, 4, 60, 72
12, 629, Note_on_c, 4, 60, 0
12, 660, Note_on_c, 4, 60, 72
12, 689, Note_on_c, 4, 60, 0
12, 720, Note_on_c, 4, 60, 72
12, 749, Note_on_c, 4, 60, 0
12, 750, Note_on_c, 4, 58, 72
12, 779, Note_on_c, 4, 58, 0
12, 780, Note_on_c, 4, 57, 72
12, 839, Note_on_c, 4, 57, 0
12, 840, Note_on_c, 4, 57, 72
12, 869, Note_on_c, 4, 57, 0
12, 900, Note_on_c, 4, 57, 72
12, 929, Note_on_c, 4, 57, 0
12, 960, Note_on_c, 4, 59, 72
12, 989, Note_on_c, 4, 59, 0
12, 990, Note_on_c, 4, 60, 72
12, 1019, Note_on_c, 4, 60, 0
12, 1020, Note_on_c, 4, 62, 72
12, 1079, Note_on_c, 4, 62, 0
12, 1080, Note_on_c, 4, 62, 72
12, 1109, Note_on_c, 4, 62, 0
12, 1140, Note_on_c, 4, 62, 72
12, 1169, Note_on_c, 4, 62, 0
12, 1200, Note_on_c, 4, 62, 72
12, 1229, Note_on_c, 4, 62, 0
12, 1230, Note_on_c, 4, 60, 72
12, 1259, Note_on_c, 4, 60, 0
12, 1260, Note_on_c, 4, 59, 72
12, 1319, Note_on_c, 4, 59, 0
12, 1320, Note_on_c, 4, 59, 72
12, 1349, Note_on_c, 4, 59, 0
12, 1380, Note_on_c, 4, 59, 72
12, 1409, Note_on_c, 4, 59, 0
12, 1440, Note_on_c, 4, 59, 72
12, 1469, Note_on_c, 4, 59, 0
12, 1470, Note_on_c, 4, 60, 72
12, 1499, Note_on_c, 4, 60, 0
12, 1500, Note_on_c, 4, 62, 72
12, 1559, Note_on_c, 4, 62, 0
12, 1560, Note_on_c, 4, 62, 72
12, 1589, Note_on_c, 4, 62, 0
12, 1620, Note_on_c, 4, 62, 72
12, 1649, Note_on_c, 4, 62, 0
12, 1680, Note_on_c, 4, 62, 72
12, 1709, Note_on_c, 4, 62, 0
12, 1710, Note_on_c, 4, 60, 72
12, 1739, Note_on_c, 4, 60, 0
12, 1740, Note_on_c, 4, 59, 72
12, 1799, Note_on_c, 4, 59, 0
12, 1800, Note_on_c, 4, 59, 72
12, 1829, Note_on_c, 4, 59, 0
12, 1860, Note_on_c, 4, 59, 72
12, 1889, Note_on_c, 4, 59, 0
12, 1920, Note_on_c, 4, 60, 72
12, 1949, Note_on_c, 4, 60, 0
12, 1950, Note_on_c, 4, 61, 72
12, 1979, Note_on_c, 4, 61, 0
12, 1980, Note_on_c, 4, 64, 72
12, 2039, Note_on_c, 4, 64, 0
12, 2040, Note_on_c, 4, 64, 72
12, 2069, Note_on_c, 4, 64, 0
12, 2100, Note_on_c, 4, 64, 72
12, 2129, Note_on_c, 4, 64, 0
12, 2160, Note_on_c, 4, 64, 72
12, 2189, Note_on_c, 4, 64, 0
12, 2190, Note_on_c, 4, 61, 72
12, 2219, Note_on_c, 4, 61, 0
12, 2220, Note_on_c, 4, 60, 72
12, 2279, Note_on_c, 4, 60, 0
12, 2280, Note_on_c, 4, 60, 72
12, 2309, Note_on_c, 4, 60, 0
12, 2340, Note_on_c, 4, 60, 72
12, 2369, Note_on_c, 4, 60, 0
12, 2400, Note_on_c, 4, 60, 72
12, 2429, Note_on_c, 4, 60, 0
12, 2430, Note_on_c, 4, 61, 72
12, 2459, Note_on_c, 4, 61, 0
12, 2460, Note_on_c, 4, 64, 72
12, 2519, Note_on_c, 4, 64, 0
12, 2520, Note_on_c, 4, 64, 72
12, 2549, Note_on_c, 4, 64, 0
12, 2580, Note_on_c, 4, 64, 72
12, 2609, Note_on_c, 4, 64, 0
12, 2640, Note_on_c, 4, 64, 72
12, 2669, Note_on_c, 4, 64, 0
12, 2670, Note_on_c, 4, 61, 72
12, 2699, Note_on_c, 4, 61, 0
12, 2700, Note_on_c, 4, 60, 72
12, 2759, Note_on_c, 4, 60, 0
12, 2760, Note_on_c, 4, 60, 72
12, 2789, Note_on_c, 4, 60, 0
12, 2820, Note_on_c, 4, 60, 72
12, 2849, Note_on_c, 4, 60, 0
12, 2880, Note_on_c, 4, 62, 72
12, 2909, Note_on_c, 4, 62, 0
12, 2910, Note_on_c, 4, 63, 72
12, 2939, Note_on_c, 4, 63, 0
12, 2940, Note_on_c, 4, 65, 72
12, 2999, Note_on_c, 4, 65, 0
12, 3000, Note_on_c, 4, 65, 72
12, 3029, Note_on_c, 4, 65, 0
12, 3060, Note_on_c, 4, 65, 72
12, 3089, Note_on_c, 4, 65, 0
12, 3120, Note_on_c, 4, 65, 72
12, 3149, Note_on_c, 4, 65, 0
12, 3150, Note_on_c, 4, 63, 72
12, 3179, Note_on_c, 4, 63, 0
12, 3180, Note_on_c, 4, 62, 72
12, 3239, Note_on_c, 4, 62, 0
12, 3240, Note_on_c, 4, 62, 72
12, 3269, Note_on_c, 4, 62, 0
12, 3300, Note_on_c, 4, 62, 72
12, 3329, Note_on_c, 4, 62, 0
12, 3360, Note_on_c, 4, 62, 72
12, 3389, Note_on_c, 4, 62, 0
12, 3390, Note_on_c, 4, 63, 72
12, 3419, Note_on_c, 4, 63, 0
12, 3420, Note_on_c, 4, 65, 72
12, 3479, Note_on_c, 4, 65, 0
12, 3480, Note_on_c, 4, 65, 72
12, 3509, Note_on_c, 4, 65, 0
12, 3540, Note_on_c, 4, 65, 72
12, 3569, Note_on_c, 4, 65, 0
12, 3600, Note_on_c, 4, 65, 72
12, 3629, Note_on_c, 4, 65, 0
12, 3630, Note_on_c, 4, 63, 72
12, 3659, Note_on_c, 4, 63, 0
12, 3660, Note_on_c, 4, 62, 72
12, 3719, Note_on_c, 4, 62, 0
12, 3720, Note_on_c, 4, 62, 72
12, 3749, Note_on_c, 4, 62, 0
12, 3780, Note_on_c, 4, 62, 72
12, 3809, Note_on_c, 4, 62, 0
12, 3840, Note_on_c, 4, 64, 72
12, 3869, Note_on_c, 4, 64, 0
12, 3870, Note_on_c, 4, 68, 72
12, 3899, Note_on_c, 4, 68, 0
12, 3900, Note_on_c, 4, 71, 72
12, 3959, Note_on_c, 4, 71, 0
12, 3960, Note_on_c, 4, 71, 72
12, 3989, Note_on_c, 4, 71, 0
12, 4020, Note_on_c, 4, 71, 72
12, 4049, Note_on_c, 4, 71, 0
12, 4080, Note_on_c, 4, 71, 72
12, 4109, Note_on_c, 4, 71, 0
12, 4110, Note_on_c, 4, 68, 72
12, 4139, Note_on_c, 4, 68, 0
12, 4140, Note_on_c, 4, 64, 72
12, 4199, Note_on_c, 4, 64, 0
12, 4200, Note_on_c, 4, 64, 72
12, 4229, Note_on_c, 4, 64, 0
12, 4260, Note_on_c, 4, 64, 72
12, 4289, Note_on_c, 4, 64, 0
12, 4320, Note_on_c, 4, 64, 72
12, 4349, Note_on_c, 4, 64, 0
12, 4350, Note_on_c, 4, 69, 72
12, 4379, Note_on_c, 4, 69, 0
12, 4380, Note_on_c, 4, 72, 72
12, 4439, Note_on_c, 4, 72, 0
12, 4440, Note_on_c, 4, 72, 72
12, 4469, Note_on_c, 4, 72, 0
12, 4500, Note_on_c, 4, 72, 72
12, 4529, Note_on_c, 4, 72, 0
12, 4560, Note_on_c, 4, 72, 72
12, 4589, Note_on_c, 4, 72, 0
12, 4590, Note_on_c, 4, 69, 72
12, 4619, Note_on_c, 4, 69, 0
12, 4620, Note_on_c, 4, 64, 72
12, 4679, Note_on_c, 4, 64, 0
12, 4680, Note_on_c, 4, 64, 72
12, 4709, Note_on_c, 4, 64, 0
12, 4740, Note_on_c, 4, 64, 72
12, 4769, Note_on_c, 4, 64, 0
12, 4800, Note_on_c, 4, 76, 72
12, 4800, Note_on_c, 4, 71, 72
12, 4800, Note_on_c, 4, 64, 72
12, 4919, Note_on_c, 4, 64, 0
12, 4919, Note_on_c, 4, 71, 0
12, 4919, Note_on_c, 4, 76, 0
12, 4920, Note_on_c, 4, 64, 72
12, 5039, Note_on_c, 4, 64, 0
12, 5160, Note_on_c, 4, 64, 48
12, 5279, Note_on_c, 4, 64, 0
12, 5400, Note_on_c, 4, 63, 48
12, 5519, Note_on_c, 4, 63, 0
12, 5640, Note_on_c, 4, 62, 48
12, 5759, Note_on_c, 4, 62, 0
12, 5760, Note_on_c, 4, 60, 48
12, 5879, Note_on_c, 4, 60, 0
12, 5880, Note_on_c, 4, 64, 48
12, 5939, Note_on_c, 4, 64, 0
12, 5940, Note_on_c, 4, 67, 48
12, 5999, Note_on_c, 4, 67, 0
12, 6000, Note_on_c, 4, 72, 48
12, 6119, Note_on_c, 4, 72, 0
12, 6120, Note_on_c, 4, 71, 48
12, 6239, Note_on_c, 4, 71, 0
12, 6240, Note_on_c, 4, 69, 48
12, 6359, Note_on_c, 4, 69, 0
12, 6360, Note_on_c, 4, 67, 48
12, 6479, Note_on_c, 4, 67, 0
12, 6480, Note_on_c, 4, 65, 48
12, 6599, Note_on_c, 4, 65, 0
12, 6600, Note_on_c, 4, 64, 48
12, 6719, Note_on_c, 4, 64, 0
12, 6720, Note_on_c, 4, 62, 48
12, 6839, Note_on_c, 4, 62, 0
12, 6840, Note_on_c, 4, 64, 48
12, 6899, Note_on_c, 4, 64, 0
12, 6900, Note_on_c, 4, 65, 48
12, 6959, Note_on_c, 4, 65, 0
12, 6960, Note_on_c, 4, 67, 48
12, 7079, Note_on_c, 4, 67, 0
12, 7080, Note_on_c, 4, 55, 48
12, 7199, Note_on_c, 4, 55, 0
12, 7200, Note_on_c, 4, 60, 48
12, 7319, Note_on_c, 4, 60, 0
12, 7320, Note_on_c, 4, 64, 48
12, 7379, Note_on_c, 4, 64, 0
12, 7380, Note_on_c, 4, 67, 48
12, 7439, Note_on_c, 4, 67, 0
12, 7440, Note_on_c, 4, 72, 48
12, 7559, Note_on_c, 4, 72, 0
12, 7560, Note_on_c, 4, 67, 48
12, 7619, Note_on_c, 4, 67, 0
12, 7620, Note_on_c, 4, 64, 48
12, 7679, Note_on_c, 4, 64, 0
12, 7680, Note_on_c, 4, 60, 48
12, 7799, Note_on_c, 4, 60, 0
12, 7800, Note_on_c, 4, 64, 48
12, 7859, Note_on_c, 4, 64, 0
12, 7860, Note_on_c, 4, 67, 48
12, 7919, Note_on_c, 4, 67, 0
12, 7920, Note_on_c, 4, 72, 48
12, 8039, Note_on_c, 4, 72, 0
12, 8040, Note_on_c, 4, 71, 48
12, 8159, Note_on_c, 4, 71, 0
12, 8160, Note_on_c, 4, 69, 48
12, 8279, Note_on_c, 4, 69, 0
12, 8280, Note_on_c, 4, 67, 48
12, 8399, Note_on_c, 4, 67, 0
12, 8400, Note_on_c, 4, 65, 48
12, 8519, Note_on_c, 4, 65, 0
12, 8520, Note_on_c, 4, 64, 48
12, 8639, Note_on_c, 4, 64, 0
12, 8640, Note_on_c, 4, 62, 48
12, 8759, Note_on_c, 4, 62, 0
12, 8760, Note_on_c, 4, 64, 48
12, 8819, Note_on_c, 4, 64, 0
12, 8820, Note_on_c, 4, 65, 48
12, 8879, Note_on_c, 4, 65, 0
12, 8880, Note_on_c, 4, 67, 48
12, 8999, Note_on_c, 4, 67, 0
12, 9000, Note_on_c, 4, 55, 48
12, 9119, Note_on_c, 4, 55, 0
12, 9120, Note_on_c, 4, 60, 72
12, 9149, Note_on_c, 4, 60, 0
12, 9150, Note_on_c, 4, 62, 72
12, 9179, Note_on_c, 4, 62, 0
12, 9180, Note_on_c, 4, 64, 72
12, 9239, Note_on_c, 4, 64, 0
12, 9240, Note_on_c, 4, 64, 72
12, 9269, Note_on_c, 4, 64, 0
12, 9300, Note_on_c, 4, 64, 72
12, 9329, Note_on_c, 4, 64, 0
12, 9360, Note_on_c, 4, 63, 72
12, 9389, Note_on_c, 4, 63, 0
12, 9390, Note_on_c, 4, 62, 72
12, 9419, Note_on_c, 4, 62, 0
12, 9420, Note_on_c, 4, 60, 72
12, 9479, Note_on_c, 4, 60, 0
12, 9480, Note_on_c, 4, 60, 72
12, 9509, Note_on_c, 4, 60, 0
12, 9540, Note_on_c, 4, 60, 72
12, 9569, Note_on_c, 4, 60, 0
12, 9600, Note_on_c, 4, 55, 72
12, 9629, Note_on_c, 4, 55, 0
12, 9630, Note_on_c, 4, 57, 72
12, 9659, Note_on_c, 4, 57, 0
12, 9660, Note_on_c, 4, 59, 72
12, 9719, Note_on_c, 4, 59, 0
12, 9720, Note_on_c, 4, 59, 72
12, 9749, Note_on_c, 4, 59, 0
12, 9780, Note_on_c, 4, 59, 72
12, 9809, Note_on_c, 4, 59, 0
12, 9840, Note_on_c, 4, 58, 72
12, 9869, Note_on_c, 4, 58, 0
12, 9870, Note_on_c, 4, 57, 72
12, 9899, Note_on_c, 4, 57, 0
12, 9900, Note_on_c, 4, 55, 72
12, 9959, Note_on_c, 4, 55, 0
12, 9960, Note_on_c, 4, 55, 72
12, 9989, Note_on_c, 4, 55, 0
12, 10020, Note_on_c, 4, 55, 72
12, 10049, Note_on_c, 4, 55, 0
12, 10080, Note_on_c, 4, 62, 72
12, 10109, Note_on_c, 4, 62, 0
12, 10110, Note_on_c, 4, 64, 72
12, 10139, Note_on_c, 4, 64, 0
12, 10140, Note_on_c, 4, 66, 72
12, 10199, Note_on_c, 4, 66, 0
12, 10200, Note_on_c, 4, 66, 72
12, 10229, Note_on_c, 4, 66, 0
12, 10260, Note_on_c, 4, 66, 72
12, 10289, Note_on_c, 4, 66, 0
12, 10320, Note_on_c, 4, 65, 72
12, 10349, Note_on_c, 4, 65, 0
12, 10350, Note_on_c, 4, 64, 72
12, 10379, Note_on_c, 4, 64, 0
12, 10380, Note_on_c, 4, 62, 72
12, 10439, Note_on_c, 4, 62, 0
12, 10440, Note_on_c, 4, 62, 72
12, 10469, Note_on_c, 4, 62, 0
12, 10500, Note_on_c, 4, 62, 72
12, 10529, Note_on_c, 4, 62, 0
12, 10560, Note_on_c, 4, 57, 72
12, 10589, Note_on_c, 4, 57, 0
12, 10590, Note_on_c, 4, 59, 72
12, 10619, Note_on_c, 4, 59, 0
12, 10620, Note_on_c, 4, 61, 72
12, 10679, Note_on_c, 4, 61, 0
12, 10680, Note_on_c, 4, 61, 72
12, 10709, Note_on_c, 4, 61, 0
12, 10740, Note_on_c, 4, 61, 72
12, 10769, Note_on_c, 4, 61, 0
12, 10800, Note_on_c, 4, 60, 72
12, 10829, Note_on_c, 4, 60, 0
12, 10830, Note_on_c, 4, 59, 72
12, 10859, Note_on_c, 4, 59, 0
12, 10860, Note_on_c, 4, 57, 72
12, 10919, Note_on_c, 4, 57, 0
12, 10920, Note_on_c, 4, 57, 72
12, 10949, Note_on_c, 4, 57, 0
12, 10980, Note_on_c, 4, 57, 72
12, 11009, Note_on_c, 4, 57, 0
12, 11040, Note_on_c, 4, 64, 72
12, 11069, Note_on_c, 4, 64, 0
12, 11070, Note_on_c, 4, 66, 72
12, 11099, Note_on_c, 4, 66, 0
12, 11100, Note_on_c, 4, 68, 72
12, 11159, Note_on_c, 4, 68, 0
12, 11160, Note_on_c, 4, 68, 72
12, 11189, Note_on_c, 4, 68, 0
12, 11220, Note_on_c, 4, 68, 72
12, 11249, Note_on_c, 4, 68, 0
12, 11280, Note_on_c, 4, 67, 72
12, 11309, Note_on_c, 4, 67, 0
12, 11310, Note_on_c, 4, 66, 72
12, 11339, Note_on_c, 4, 66, 0
12, 11340, Note_on_c, 4, 64, 72
12, 11399, Note_on_c, 4, 64, 0
12, 11400, Note_on_c, 4, 64, 72
12, 11429, Note_on_c, 4, 64, 0
12, 11460, Note_on_c, 4, 64, 72
12, 11489, Note_on_c, 4, 64, 0
12, 11520, Note_on_c, 4, 57, 72
12, 11549, Note_on_c, 4, 57, 0
12, 11550, Note_on_c, 4, 59, 72
12, 11579, Note_on_c, 4, 59, 0
12, 11580, Note_on_c, 4, 60, 72
12, 11639, Note_on_c, 4, 60, 0
12, 11640, Note_on_c, 4, 60, 72
12, 11669, Note_on_c, 4, 60, 0
12, 11700, Note_on_c, 4, 60, 72
12, 11729, Note_on_c, 4, 60, 0
12, 11760, Note_on_c, 4, 59, 72
12, 11789, Note_on_c, 4, 59, 0
12, 11790, Note_on_c, 4, 60, 72
12, 11819, Note_on_c, 4, 60, 0
12, 11820, Note_on_c, 4, 62, 72
12, 11879, Note_on_c, 4, 62, 0
12, 11880, Note_on_c, 4, 62, 72
12, 11909, Note_on_c, 4, 62, 0
12, 11940, Note_on_c, 4, 62, 72
12, 11969, Note_on_c, 4, 62, 0
12, 12000, Note_on_c, 4, 60, 72
12, 12029, Note_on_c, 4, 60, 0
12, 12030, Note_on_c, 4, 62, 72
12, 12059, Note_on_c, 4, 62, 0
12, 12060, Note_on_c, 4, 64, 72
12, 12119, Note_on_c, 4, 64, 0
12, 12120, Note_on_c, 4, 64, 72
12, 12149, Note_on_c, 4, 64, 0
12, 12180, Note_on_c, 4, 64, 72
12, 12209, Note_on_c, 4, 64, 0
12, 12240, Note_on_c, 4, 64, 72
12, 12269, Note_on_c, 4, 64, 0
12, 12270, Note_on_c, 4, 65, 72
12, 12299, Note_on_c, 4, 65, 0
12, 12300, Note_on_c, 4, 67, 72
12, 12359, Note_on_c, 4, 67, 0
12, 12360, Note_on_c, 4, 67, 72
12, 12389, Note_on_c, 4, 67, 0
12, 12420, Note_on_c, 4, 67, 72
12, 12449, Note_on_c, 4, 67, 0
12, 12480, Note_on_c, 4, 66, 72
12, 12509, Note_on_c, 4, 66, 0
12, 12510, Note_on_c, 4, 67, 72
12, 12539, Note_on_c, 4, 67, 0
12, 12540, Note_on_c, 4, 69, 72
12, 12599, Note_on_c, 4, 69, 0
12, 12600, Note_on_c, 4, 69, 72
12, 12629, Note_on_c, 4, 69, 0
12, 12660, Note_on_c, 4, 69, 72
12, 12689, Note_on_c, 4, 69, 0
12, 12720, Note_on_c, 4, 68, 72
12, 12749, Note_on_c, 4, 68, 0
12, 12750, Note_on_c, 4, 69, 72
12, 12779, Note_on_c, 4, 69, 0
12, 12780, Note_on_c, 4, 71, 72
12, 12839, Note_on_c, 4, 71, 0
12, 12840, Note_on_c, 4, 71, 72
12, 12869, Note_on_c, 4, 71, 0
12, 12900, Note_on_c, 4, 71, 72
12, 12929, Note_on_c, 4, 71, 0
12, 12960, Note_on_c, 4, 69, 72
12, 12989, Note_on_c, 4, 69, 0
12, 12990, Note_on_c, 4, 71, 72
12, 13019, Note_on_c, 4, 71, 0
12, 13020, Note_on_c, 4, 72, 72
12, 13079, Note_on_c, 4, 72, 0
12, 13080, Note_on_c, 4, 72, 72
12, 13109, Note_on_c, 4, 72, 0
12, 13140, Note_on_c, 4, 72, 72
12, 13169, Note_on_c, 4, 72, 0
12, 13200, Note_on_c, 4, 67, 72
12, 13229, Note_on_c, 4, 67, 0
12, 13230, Note_on_c, 4, 69, 72
12, 13259, Note_on_c, 4, 69, 0
12, 13260, Note_on_c, 4, 70, 72
12, 13319, Note_on_c, 4, 70, 0
12, 13320, Note_on_c, 4, 70, 72
12, 13349, Note_on_c, 4, 70, 0
12, 13380, Note_on_c, 4, 70, 72
12, 13409, Note_on_c, 4, 70, 0
12, 13440, Note_on_c, 4, 66, 72
12, 13469, Note_on_c, 4, 66, 0
12, 13470, Note_on_c, 4, 67, 72
12, 13499, Note_on_c, 4, 67, 0
12, 13500, Note_on_c, 4, 69, 72
12, 13559, Note_on_c, 4, 69, 0
12, 13560, Note_on_c, 4, 69, 72
12, 13589, Note_on_c, 4, 69, 0
12, 13620, Note_on_c, 4, 69, 72
12, 13649, Note_on_c, 4, 69, 0
12, 13680, Note_on_c, 4, 69, 72
12, 13709, Note_on_c, 4, 69, 0
12, 13710, Note_on_c, 4, 67, 72
12, 13739, Note_on_c, 4, 67, 0
12, 13740, Note_on_c, 4, 66, 72
12, 13799, Note_on_c, 4, 66, 0
12, 13800, Note_on_c, 4, 66, 72
12, 13829, Note_on_c, 4, 66, 0
12, 13860, Note_on_c, 4, 66, 72
12, 13889, Note_on_c, 4, 66, 0
12, 13920, Note_on_c, 4, 65, 72
12, 13949, Note_on_c, 4, 65, 0
12, 13950, Note_on_c, 4, 67, 72
12, 13979, Note_on_c, 4, 67, 0
12, 13980, Note_on_c, 4, 69, 72
12, 14039, Note_on_c, 4, 69, 0
12, 14040, Note_on_c, 4, 69, 72
12, 14069, Note_on_c, 4, 69, 0
12, 14100, Note_on_c, 4, 69, 72
12, 14129, Note_on_c, 4, 69, 0
12, 14160, Note_on_c, 4, 69, 72
12, 14189, Note_on_c, 4, 69, 0
12, 14190, Note_on_c, 4, 67, 72
12, 14219, Note_on_c, 4, 67, 0
12, 14220, Note_on_c, 4, 65, 72
12, 14279, Note_on_c, 4, 65, 0
12, 14280, Note_on_c, 4, 65, 72
12, 14309, Note_on_c, 4, 65, 0
12, 14340, Note_on_c, 4, 65, 72
12, 14369, Note_on_c, 4, 65, 0
12, 14400, Note_on_c, 4, 76, 72
12, 14400, Note_on_c, 4, 71, 72
12, 14400, Note_on_c, 4, 64, 72
12, 14490, Note_on_c, 4, 64, 72
12, 14519, Note_on_c, 4, 64, 0
12, 14519, Note_on_c, 4, 76, 0
12, 14519, Note_on_c, 4, 71, 0
12, 14609, Note_on_c, 4, 64, 0
12, 14760, Note_on_c, 4, 62, 48
12, 14879, Note_on_c, 4, 62, 0
12, 15000, Note_on_c, 4, 60, 48
12, 15119, Note_on_c, 4, 60, 0
12, 15240, Note_on_c, 4, 59, 48
12, 15359, Note_on_c, 4, 59, 0
12, 15360, Note_on_c, 4, 57, 48
12, 15479, Note_on_c, 4, 57, 0
12, 15480, Note_on_c, 4, 60, 48
12, 15539, Note_on_c, 4, 60, 0
12, 15540, Note_on_c, 4, 64, 48
12, 15599, Note_on_c, 4, 64, 0
12, 15600, Note_on_c, 4, 69, 48
12, 15719, Note_on_c, 4, 69, 0
12, 15720, Note_on_c, 4, 67, 48
12, 15839, Note_on_c, 4, 67, 0
12, 15840, Note_on_c, 4, 65, 48
12, 15959, Note_on_c, 4, 65, 0
12, 15960, Note_on_c, 4, 64, 48
12, 16079, Note_on_c, 4, 64, 0
12, 16080, Note_on_c, 4, 62, 48
12, 16199, Note_on_c, 4, 62, 0
12, 16200, Note_on_c, 4, 60, 48
12, 16319, Note_on_c, 4, 60, 0
12, 16320, Note_on_c, 4, 59, 48
12, 16439, Note_on_c, 4, 59, 0
12, 16440, Note_on_c, 4, 60, 48
12, 16499, Note_on_c, 4, 60, 0
12, 16500, Note_on_c, 4, 62, 48
12, 16559, Note_on_c, 4, 62, 0
12, 16560, Note_on_c, 4, 64, 48
12, 16619, Note_on_c, 4, 64, 0
12, 16620, Note_on_c, 4, 62, 48
12, 16679, Note_on_c, 4, 62, 0
12, 16680, Note_on_c, 4, 64, 48
12, 16799, Note_on_c, 4, 64, 0
12, 16800, Note_on_c, 4, 57, 48
12, 16919, Note_on_c, 4, 57, 0
12, 16920, Note_on_c, 4, 67, 48
12, 17039, Note_on_c, 4, 67, 0
12, 17040, Note_on_c, 4, 65, 48
12, 17159, Note_on_c, 4, 65, 0
12, 17160, Note_on_c, 4, 64, 48
12, 17279, Note_on_c, 4, 64, 0
12, 17280, Note_on_c, 4, 62, 48
12, 17399, Note_on_c, 4, 62, 0
12, 17400, Note_on_c, 4, 65, 48
12, 17459, Note_on_c, 4, 65, 0
12, 17460, Note_on_c, 4, 69, 48
12, 17519, Note_on_c, 4, 69, 0
12, 17520, Note_on_c, 4, 74, 48
12, 17639, Note_on_c, 4, 74, 0
12, 17640, Note_on_c, 4, 72, 48
12, 17759, Note_on_c, 4, 72, 0
12, 17760, Note_on_c, 4, 70, 48
12, 17879, Note_on_c, 4, 70, 0
12, 17880, Note_on_c, 4, 69, 48
12, 17999, Note_on_c, 4, 69, 0
12, 18000, Note_on_c, 4, 67, 48
12, 18119, Note_on_c, 4, 67, 0
12, 18120, Note_on_c, 4, 65, 48
12, 18239, Note_on_c, 4, 65, 0
12, 18240, Note_on_c, 4, 64, 48
12, 18359, Note_on_c, 4, 64, 0
12, 18360, Note_on_c, 4, 65, 48
12, 18419, Note_on_c, 4, 65, 0
12, 18420, Note_on_c, 4, 67, 48
12, 18479, Note_on_c, 4, 67, 0
12, 18480, Note_on_c, 4, 69, 48
12, 18599, Note_on_c, 4, 69, 0
12, 18600, Note_on_c, 4, 57, 48
12, 18719, Note_on_c, 4, 57, 0
12, 18720, Note_on_c, 4, 62, 48
12, 18839, Note_on_c, 4, 62, 0
12, 18840, Note_on_c, 4, 65, 48
12, 18899, Note_on_c, 4, 65, 0
12, 18900, Note_on_c, 4, 64, 48
12, 18959, Note_on_c, 4, 64, 0
12, 18960, Note_on_c, 4, 62, 48
12, 19079, Note_on_c, 4, 62, 0
12, 19080, Note_on_c, 4, 64, 48
12, 19139, Note_on_c, 4, 64, 0
12, 19140, Note_on_c, 4, 65, 48
12, 19199, Note_on_c, 4, 65, 0
12, 19200, Note_on_c, 4, 67, 48
12, 19319, Note_on_c, 4, 67, 0
12, 19320, Note_on_c, 4, 65, 48
12, 19379, Note_on_c, 4, 65, 0
12, 19380, Note_on_c, 4, 67, 48
12, 19439, Note_on_c, 4, 67, 0
12, 19440, Note_on_c, 4, 55, 48
12, 19559, Note_on_c, 4, 55, 0
12, 19560, Note_on_c, 4, 67, 48
12, 19679, Note_on_c, 4, 67, 0
12, 19680, Note_on_c, 4, 60, 48
12, 19799, Note_on_c, 4, 60, 0
12, 19800, Note_on_c, 4, 64, 48
12, 19859, Note_on_c, 4, 64, 0
12, 19860, Note_on_c, 4, 62, 48
12, 19919, Note_on_c, 4, 62, 0
12, 19920, Note_on_c, 4, 60, 48
12, 20039, Note_on_c, 4, 60, 0
12, 20040, Note_on_c, 4, 62, 48
12, 20099, Note_on_c, 4, 62, 0
12, 20100, Note_on_c, 4, 64, 48
12, 20159, Note_on_c, 4, 64, 0
12, 20160, Note_on_c, 4, 65, 48
12, 20279, Note_on_c, 4, 65, 0
12, 20280, Note_on_c, 4, 60, 48
12, 20339, Note_on_c, 4, 60, 0
12, 20340, Note_on_c, 4, 57, 48
12, 20399, Note_on_c, 4, 57, 0
12, 20400, Note_on_c, 4, 65, 48
12, 20459, Note_on_c, 4, 65, 0
12, 20520, Note_on_c, 4, 65, 48
12, 20579, Note_on_c, 4, 65, 0
12, 20640, Note_on_c, 4, 59, 48
12, 20759, Note_on_c, 4, 59, 0
12, 20760, Note_on_c, 4, 62, 48
12, 20819, Note_on_c, 4, 62, 0
12, 20820, Note_on_c, 4, 60, 48
12, 20879, Note_on_c, 4, 60, 0
12, 20880, Note_on_c, 4, 59, 48
12, 20999, Note_on_c, 4, 59, 0
12, 21000, Note_on_c, 4, 60, 48
12, 21059, Note_on_c, 4, 60, 0
12, 21060, Note_on_c, 4, 62, 48
12, 21119, Note_on_c, 4, 62, 0
12, 21120, Note_on_c, 4, 64, 48
12, 21239, Note_on_c, 4, 64, 0
12, 21240, Note_on_c, 4, 62, 48
12, 21359, Note_on_c, 4, 62, 0
12, 21360, Note_on_c, 4, 60, 48
12, 21479, Note_on_c, 4, 60, 0
12, 21480, Note_on_c, 4, 59, 48
12, 21599, Note_on_c, 4, 59, 0
12, 21600, Note_on_c, 4, 57, 48
12, 21719, Note_on_c, 4, 57, 0
12, 21720, Note_on_c, 4, 67, 48
12, 21839, Note_on_c, 4, 67, 0
12, 21840, Note_on_c, 4, 66, 48
12, 21959, Note_on_c, 4, 66, 0
12, 21960, Note_on_c, 4, 65, 48
12, 22079, Note_on_c, 4, 65, 0
12, 22080, Note_on_c, 4, 64, 48
12, 22199, Note_on_c, 4, 64, 0
12, 22200, Note_on_c, 4, 62, 48
12, 22259, Note_on_c, 4, 62, 0
12, 22260, Note_on_c, 4, 64, 48
12, 22319, Note_on_c, 4, 64, 0
12, 22320, Note_on_c, 4, 65, 48
12, 22439, Note_on_c, 4, 65, 0
12, 22440, Note_on_c, 4, 64, 48
12, 22499, Note_on_c, 4, 64, 0
12, 22500, Note_on_c, 4, 65, 48
12, 22559, Note_on_c, 4, 65, 0
12, 22560, Note_on_c, 4, 62, 48
12, 22679, Note_on_c, 4, 62, 0
12, 22680, Note_on_c, 4, 60, 48
12, 22739, Note_on_c, 4, 60, 0
12, 22740, Note_on_c, 4, 62, 48
12, 22799, Note_on_c, 4, 62, 0
12, 22800, Note_on_c, 4, 64, 48
12, 22919, Note_on_c, 4, 64, 0
12, 22920, Note_on_c, 4, 62, 48
12, 22979, Note_on_c, 4, 62, 0
12, 22980, Note_on_c, 4, 64, 48
12, 23039, Note_on_c, 4, 64, 0
12, 23040, Note_on_c, 4, 57, 48
12, 23099, Note_on_c, 4, 57, 0
12, 23100, Note_on_c, 4, 69, 48
12, 23159, Note_on_c, 4, 69, 0
12, 23160, Note_on_c, 4, 69, 48
12, 23219, Note_on_c, 4, 69, 0
12, 23220, Note_on_c, 4, 69, 48
12, 23279, Note_on_c, 4, 69, 0
12, 23340, Note_on_c, 4, 72, 48
12, 23399, Note_on_c, 4, 72, 0
12, 23400, Note_on_c, 4, 72, 48
12, 23459, Note_on_c, 4, 72, 0
12, 23460, Note_on_c, 4, 72, 48
12, 23519, Note_on_c, 4, 72, 0
12, 23580, Note_on_c, 4, 76, 48
12, 23639, Note_on_c, 4, 76, 0
12, 23640, Note_on_c, 4, 76, 48
12, 23699, Note_on_c, 4, 76, 0
12, 23700, Note_on_c, 4, 76, 48
12, 23759, Note_on_c, 4, 76, 0
12, 23820, Note_on_c, 4, 81, 48
12, 23879, Note_on_c, 4, 81, 0
12, 23880, Note_on_c, 4, 81, 48
12, 23939, Note_on_c, 4, 81, 0
12, 23940, Note_on_c, 4, 81, 48
12, 23999, Note_on_c, 4, 81, 0
12, 24060, Note_on_c, 4, 84, 48
12, 24119, Note_on_c, 4, 84, 0
12, 24120, Note_on_c, 4, 84, 48
12, 24179, Note_on_c, 4, 84, 0
12, 24180, Note_on_c, 4, 84, 48
12, 24239, Note_on_c, 4, 84, 0
12, 24300, Note_on_c, 4, 81, 48
12, 24359, Note_on_c, 4, 81, 0
12, 24360, Note_on_c, 4, 81, 48
12, 24419, Note_on_c, 4, 81, 0
12, 24420, Note_on_c, 4, 81, 48
12, 24479, Note_on_c, 4, 81, 0
12, 24540, Note_on_c, 4, 78, 48
12, 24599, Note_on_c, 4, 78, 0
12, 24600, Note_on_c, 4, 78, 48
12, 24659, Note_on_c, 4, 78, 0
12, 24660, Note_on_c, 4, 78, 48
12, 24719, Note_on_c, 4, 78, 0
12, 24780, Note_on_c, 4, 72, 48
12, 24839, Note_on_c, 4, 72, 0
12, 24840, Note_on_c, 4, 72, 48
12, 24899, Note_on_c, 4, 72, 0
12, 24900, Note_on_c, 4, 72, 48
12, 24959, Note_on_c, 4, 72, 0
12, 25020, Note_on_c, 4, 73, 48
12, 25079, Note_on_c, 4, 73, 0
12, 25080, Note_on_c, 4, 73, 48
12, 25139, Note_on_c, 4, 73, 0
12, 25140, Note_on_c, 4, 73, 48
12, 25199, Note_on_c, 4, 73, 0
12, 25260, Note_on_c, 4, 70, 48
12, 25319, Note_on_c, 4, 70, 0
12, 25320, Note_on_c, 4, 70, 48
12, 25379, Note_on_c, 4, 70, 0
12, 25380, Note_on_c, 4, 70, 48
12, 25439, Note_on_c, 4, 70, 0
12, 25500, Note_on_c, 4, 67, 48
12, 25559, Note_on_c, 4, 67, 0
12, 25560, Note_on_c, 4, 67, 48
12, 25619, Note_on_c, 4, 67, 0
12, 25620, Note_on_c, 4, 67, 48
12, 25679, Note_on_c, 4, 67, 0
12, 25740, Note_on_c, 4, 61, 48
12, 25799, Note_on_c, 4, 61, 0
12, 25800, Note_on_c, 4, 61, 48
12, 25859, Note_on_c, 4, 61, 0
12, 25860, Note_on_c, 4, 61, 48
12, 25919, Note_on_c, 4, 61, 0
12, 25980, Note_on_c, 4, 59, 48
12, 26039, Note_on_c, 4, 59, 0
12, 26040, Note_on_c, 4, 59, 48
12, 26099, Note_on_c, 4, 59, 0
12, 26100, Note_on_c, 4, 59, 48
12, 26159, Note_on_c, 4, 59, 0
12, 26220, Note_on_c, 4, 59, 48
12, 26279, Note_on_c, 4, 59, 0
12, 26280, Note_on_c, 4, 59, 48
12, 26339, Note_on_c, 4, 59, 0
12, 26340, Note_on_c, 4, 59, 48
12, 26399, Note_on_c, 4, 59, 0
12, 26460, Note_on_c, 4, 58, 48
12, 26519, Note_on_c, 4, 58, 0
12, 26520, Note_on_c, 4, 58, 48
12, 26579, Note_on_c, 4, 58, 0
12, 26580, Note_on_c, 4, 58, 48
12, 26639, Note_on_c, 4, 58, 0
12, 26700, Note_on_c, 4, 58, 48
12, 26759, Note_on_c, 4, 58, 0
12, 26760, Note_on_c, 4, 58, 48
12, 26819, Note_on_c, 4, 58, 0
12, 26820, Note_on_c, 4, 58, 48
12, 26879, Note_on_c, 4, 58, 0
12, 26880, Note_on_c, 4, 56, 48
12, 26939, Note_on_c, 4, 56, 0
12, 26940, Note_on_c, 4, 68, 48
12, 26999, Note_on_c, 4, 68, 0
12, 27000, Note_on_c, 4, 68, 48
12, 27059, Note_on_c, 4, 68, 0
12, 27060, Note_on_c, 4, 68, 48
12, 27119, Note_on_c, 4, 68, 0
12, 27180, Note_on_c, 4, 71, 48
12, 27239, Note_on_c, 4, 71, 0
12, 27240, Note_on_c, 4, 71, 48
12, 27299, Note_on_c, 4, 71, 0
12, 27300, Note_on_c, 4, 71, 48
12, 27359, Note_on_c, 4, 71, 0
12, 27420, Note_on_c, 4, 75, 48
12, 27479, Note_on_c, 4, 75, 0
12, 27480, Note_on_c, 4, 75, 48
12, 27539, Note_on_c, 4, 75, 0
12, 27540, Note_on_c, 4, 75, 48
12, 27599, Note_on_c, 4, 75, 0
12, 27660, Note_on_c, 4, 80, 48
12, 27719, Note_on_c, 4, 80, 0
12, 27720, Note_on_c, 4, 80, 48
12, 27779, Note_on_c, 4, 80, 0
12, 27780, Note_on_c, 4, 80, 48
12, 27839, Note_on_c, 4, 80, 0
12, 27900, Note_on_c, 4, 83, 48
12, 27959, Note_on_c, 4, 83, 0
12, 27960, Note_on_c, 4, 83, 48
12, 28019, Note_on_c, 4, 83, 0
12, 28020, Note_on_c, 4, 83, 48
12, 28079, Note_on_c, 4, 83, 0
12, 28140, Note_on_c, 4, 80, 48
12, 28199, Note_on_c, 4, 80, 0
12, 28200, Note_on_c, 4, 80, 48
12, 28259, Note_on_c, 4, 80, 0
12, 28260, Note_on_c, 4, 80, 48
12, 28319, Note_on_c, 4, 80, 0
12, 28380, Note_on_c, 4, 77, 48
12, 28439, Note_on_c, 4, 77, 0
12, 28440, Note_on_c, 4, 77, 48
12, 28499, Note_on_c, 4, 77, 0
12, 28500, Note_on_c, 4, 77, 48
12, 28559, Note_on_c, 4, 77, 0
12, 28620, Note_on_c, 4, 71, 48
12, 28679, Note_on_c, 4, 71, 0
12, 28680, Note_on_c, 4, 71, 48
12, 28739, Note_on_c, 4, 71, 0
12, 28740, Note_on_c, 4, 71, 48
12, 28799, Note_on_c, 4, 71, 0
12, 28860, Note_on_c, 4, 72, 48
12, 28919, Note_on_c, 4, 72, 0
12, 28920, Note_on_c, 4, 72, 48
12, 28979, Note_on_c, 4, 72, 0
12, 28980, Note_on_c, 4, 72, 48
12, 29039, Note_on_c, 4, 72, 0
12, 29100, Note_on_c, 4, 69, 48
12, 29159, Note_on_c, 4, 69, 0
12, 29160, Note_on_c, 4, 69, 48
12, 29219, Note_on_c, 4, 69, 0
12, 29220, Note_on_c, 4, 69, 48
12, 29279, Note_on_c, 4, 69, 0
12, 29340, Note_on_c, 4, 66, 48
12, 29399, Note_on_c, 4, 66, 0
12, 29400, Note_on_c, 4, 66, 48
12, 29459, Note_on_c, 4, 66, 0
12, 29460, Note_on_c, 4, 66, 48
12, 29519, Note_on_c, 4, 66, 0
12, 29580, Note_on_c, 4, 60, 48
12, 29639, Note_on_c, 4, 60, 0
12, 29640, Note_on_c, 4, 60, 48
12, 29699, Note_on_c, 4, 60, 0
12, 29700, Note_on_c, 4, 60, 48
12, 29759, Note_on_c, 4, 60, 0
12, 29820, Note_on_c, 4, 58, 48
12, 29879, Note_on_c, 4, 58, 0
12, 29880, Note_on_c, 4, 58, 48
12, 29939, Note_on_c, 4, 58, 0
12, 29940, Note_on_c, 4, 58, 48
12, 29999, Note_on_c, 4, 58, 0
12, 30060, Note_on_c, 4, 58, 48
12, 30119, Note_on_c, 4, 58, 0
12, 30120, Note_on_c, 4, 58, 48
12, 30179, Note_on_c, 4, 58, 0
12, 30180, Note_on_c, 4, 58, 48
12, 30239, Note_on_c, 4, 58, 0
12, 30300, Note_on_c, 4, 60, 48
12, 30359, Note_on_c, 4, 60, 0
12, 30360, Note_on_c, 4, 60, 48
12, 30419, Note_on_c, 4, 60, 0
12, 30420, Note_on_c, 4, 60, 48
12, 30479, Note_on_c, 4, 60, 0
12, 30540, Note_on_c, 4, 66, 48
12, 30599, Note_on_c, 4, 66, 0
12, 30600, Note_on_c, 4, 66, 48
12, 30659, Note_on_c, 4, 66, 0
12, 30660, Note_on_c, 4, 66, 48
12, 30719, Note_on_c, 4, 66, 0
12, 30780, Note_on_c, 4, 67, 48
12, 30839, Note_on_c, 4, 67, 0
12, 30840, Note_on_c, 4, 67, 48
12, 30899, Note_on_c, 4, 67, 0
12, 30900, Note_on_c, 4, 67, 48
12, 30959, Note_on_c, 4, 67, 0
12, 31020, Note_on_c, 4, 70, 48
12, 31079, Note_on_c, 4, 70, 0
12, 31080, Note_on_c, 4, 70, 48
12, 31139, Note_on_c, 4, 70, 0
12, 31140, Note_on_c, 4, 70, 48
12, 31199, Note_on_c, 4, 70, 0
12, 31260, Note_on_c, 4, 74, 48
12, 31319, Note_on_c, 4, 74, 0
12, 31320, Note_on_c, 4, 74, 48
12, 31379, Note_on_c, 4, 74, 0
12, 31380, Note_on_c, 4, 74, 48
12, 31439, Note_on_c, 4, 74, 0
12, 31500, Note_on_c, 4, 79, 48
12, 31559, Note_on_c, 4, 79, 0
12, 31560, Note_on_c, 4, 79, 48
12, 31619, Note_on_c, 4, 79, 0
12, 31620, Note_on_c, 4, 79, 48
12, 31679, Note_on_c, 4, 79, 0
12, 31740, Note_on_c, 4, 82, 48
12, 31799, Note_on_c, 4, 82, 0
12, 31800, Note_on_c, 4, 82, 48
12, 31859, Note_on_c, 4, 82, 0
12, 31860, Note_on_c, 4, 82, 48
12, 31919, Note_on_c, 4, 82, 0
12, 31980, Note_on_c, 4, 79, 48
12, 32039, Note_on_c, 4, 79, 0
12, 32040, Note_on_c, 4, 79, 48
12, 32099, Note_on_c, 4, 79, 0
12, 32100, Note_on_c, 4, 79, 48
12, 32159, Note_on_c, 4, 79, 0
12, 32220, Note_on_c, 4, 76, 48
12, 32279, Note_on_c, 4, 76, 0
12, 32280, Note_on_c, 4, 76, 48
12, 32339, Note_on_c, 4, 76, 0
12, 32340, Note_on_c, 4, 76, 48
12, 32399, Note_on_c, 4, 76, 0
12, 32460, Note_on_c, 4, 70, 48
12, 32519, Note_on_c, 4, 70, 0
12, 32520, Note_on_c, 4, 70, 48
12, 32579, Note_on_c, 4, 70, 0
12, 32580, Note_on_c, 4, 70, 48
12, 32639, Note_on_c, 4, 70, 0
12, 32700, Note_on_c, 4, 71, 48
12, 32759, Note_on_c, 4, 71, 0
12, 32760, Note_on_c, 4, 71, 48
12, 32819, Note_on_c, 4, 71, 0
12, 32820, Note_on_c, 4, 71, 48
12, 32879, Note_on_c, 4, 71, 0
12, 32940, Note_on_c, 4, 65, 48
12, 32999, Note_on_c, 4, 65, 0
12, 33000, Note_on_c, 4, 65, 48
12, 33059, Note_on_c, 4, 65, 0
12, 33060, Note_on_c, 4, 65, 48
12, 33119, Note_on_c, 4, 65, 0
12, 33180, Note_on_c, 4, 66, 48
12, 33239, Note_on_c, 4, 66, 0
12, 33240, Note_on_c, 4, 66, 48
12, 33299, Note_on_c, 4, 66, 0
12, 33300, Note_on_c, 4, 66, 48
12, 33359, Note_on_c, 4, 66, 0
12, 33420, Note_on_c, 4, 78, 48
12, 33479, Note_on_c, 4, 78, 0
12, 33480, Note_on_c, 4, 78, 48
12, 33539, Note_on_c, 4, 78, 0
12, 33540, Note_on_c, 4, 78, 48
12, 33599, Note_on_c, 4, 78, 0
12, 33660, Note_on_c, 4, 81, 48
12, 33719, Note_on_c, 4, 81, 0
12, 33720, Note_on_c, 4, 81, 48
12, 33779, Note_on_c, 4, 81, 0
12, 33780, Note_on_c, 4, 81, 48
12, 33839, Note_on_c, 4, 81, 0
12, 33900, Note_on_c, 4, 78, 48
12, 33959, Note_on_c, 4, 78, 0
12, 33960, Note_on_c, 4, 78, 48
12, 34019, Note_on_c, 4, 78, 0
12, 34020, Note_on_c, 4, 78, 48
12, 34079, Note_on_c, 4, 78, 0
12, 34140, Note_on_c, 4, 75, 48
12, 34199, Note_on_c, 4, 75, 0
12, 34200, Note_on_c, 4, 75, 48
12, 34259, Note_on_c, 4, 75, 0
12, 34260, Note_on_c, 4, 75, 48
12, 34319, Note_on_c, 4, 75, 0
12, 34380, Note_on_c, 4, 69, 48
12, 34439, Note_on_c, 4, 69, 0
12, 34440, Note_on_c, 4, 69, 48
12, 34499, Note_on_c, 4, 69, 0
12, 34500, Note_on_c, 4, 69, 48
12, 34559, Note_on_c, 4, 69, 0
12, 34620, Note_on_c, 4, 70, 48
12, 34679, Note_on_c, 4, 70, 0
12, 34680, Note_on_c, 4, 70, 48
12, 34739, Note_on_c, 4, 70, 0
12, 34740, Note_on_c, 4, 70, 48
12, 34799, Note_on_c, 4, 70, 0
12, 34860, Note_on_c, 4, 64, 48
12, 34919, Note_on_c, 4, 64, 0
12, 34920, Note_on_c, 4, 64, 48
12, 34979, Note_on_c, 4, 64, 0
12, 34980, Note_on_c, 4, 64, 48
12, 35039, Note_on_c, 4, 64, 0
12, 35100, Note_on_c, 4, 65, 48
12, 35159, Note_on_c, 4, 65, 0
12, 35160, Note_on_c, 4, 65, 48
12, 35219, Note_on_c, 4, 65, 0
12, 35220, Note_on_c, 4, 65, 48
12, 35279, Note_on_c, 4, 65, 0
12, 35340, Note_on_c, 4, 68, 48
12, 35399, Note_on_c, 4, 68, 0
12, 35400, Note_on_c, 4, 68, 48
12, 35459, Note_on_c, 4, 68, 0
12, 35460, Note_on_c, 4, 68, 48
12, 35519, Note_on_c, 4, 68, 0
12, 35580, Note_on_c, 4, 65, 48
12, 35639, Note_on_c, 4, 65, 0
12, 35640, Note_on_c, 4, 65, 48
12, 35699, Note_on_c, 4, 65, 0
12, 35700, Note_on_c, 4, 65, 48
12, 35759, Note_on_c, 4, 65, 0
12, 35820, Note_on_c, 4, 67, 48
12, 35879, Note_on_c, 4, 67, 0
12, 35880, Note_on_c, 4, 67, 48
12, 35939, Note_on_c, 4, 67, 0
12, 35940, Note_on_c, 4, 67, 48
12, 35999, Note_on_c, 4, 67, 0
12, 36060, Note_on_c, 4, 64, 48
12, 36119, Note_on_c, 4, 64, 0
12, 36120, Note_on_c, 4, 64, 48
12, 36179, Note_on_c, 4, 64, 0
12, 36180, Note_on_c, 4, 64, 48
12, 36239, Note_on_c, 4, 64, 0
12, 36300, Note_on_c, 4, 67, 48
12, 36359, Note_on_c, 4, 67, 0
12, 36360, Note_on_c, 4, 67, 48
12, 36419, Note_on_c, 4, 67, 0
12, 36420, Note_on_c, 4, 67, 48
12, 36479, Note_on_c, 4, 67, 0
12, 36540, Note_on_c, 4, 65, 48
12, 36599, Note_on_c, 4, 65, 0
12, 36600, Note_on_c, 4, 65, 48
12, 36659, Note_on_c, 4, 65, 0
12, 36660, Note_on_c, 4, 65, 48
12, 36719, Note_on_c, 4, 65, 0
12, 36780, Note_on_c, 4, 60, 48
12, 36839, Note_on_c, 4, 60, 0
12, 36840, Note_on_c, 4, 60, 48
12, 36899, Note_on_c, 4, 60, 0
12, 36900, Note_on_c, 4, 60, 48
12, 36959, Note_on_c, 4, 60, 0
12, 37020, Note_on_c, 4, 65, 48
12, 37079, Note_on_c, 4, 65, 0
12, 37080, Note_on_c, 4, 65, 48
12, 37139, Note_on_c, 4, 65, 0
12, 37140, Note_on_c, 4, 65, 48
12, 37199, Note_on_c, 4, 65, 0
12, 37260, Note_on_c, 4, 60, 48
12, 37319, Note_on_c, 4, 60, 0
12, 37320, Note_on_c, 4, 60, 48
12, 37379, Note_on_c, 4, 60, 0
12, 37380, Note_on_c, 4, 60, 48
12, 37439, Note_on_c, 4, 60, 0
12, 37440, Note_on_c, 4, 65, 48
12, 37679, Note_on_c, 4, 65, 0
12, 37920, Note_on_c, 4, 61, 48
12, 38159, Note_on_c, 4, 61, 0
12, 38159, End_track
13, 0, Start_track
13, 0, Title_t, "Violin II"
13, 0, Program_c, 5, 48
13, 0, Control_c, 5, 7, 96
13, 0, Control_c, 5, 10, 24
13, 0, Control_c, 5, 11, 127
13, 0, Note_on_c, 5, 57, 72
13, 29, Note_on_c, 5, 57, 0
13, 30, Note_on_c, 5, 58, 72
13, 59, Note_on_c, 5, 58, 0
13, 60, Note_on_c, 5, 60, 72
13, 119, Note_on_c, 5, 60, 0
13, 120, Note_on_c, 5, 60, 72
13, 149, Note_on_c, 5, 60, 0
13, 180, Note_on_c, 5, 60, 72
13, 209, Note_on_c, 5, 60, 0
13, 240, Note_on_c, 5, 60, 72
13, 269, Note_on_c, 5, 60, 0
13, 270, Note_on_c, 5, 58, 72
13, 299, Note_on_c, 5, 58, 0
13, 300, Note_on_c, 5, 57, 72
13, 359, Note_on_c, 5, 57, 0
13, 360, Note_on_c, 5, 57, 72
13, 389, Note_on_c, 5, 57, 0
13, 420, Note_on_c, 5, 57, 72
13, 449, Note_on_c, 5, 57, 0
13, 480, Note_on_c, 5, 57, 72
13, 509, Note_on_c, 5, 57, 0
13, 510, Note_on_c, 5, 58, 72
13, 539, Note_on_c, 5, 58, 0
13, 540, Note_on_c, 5, 60, 72
13, 599, Note_on_c, 5, 60, 0
13, 600, Note_on_c, 5, 60, 72
13, 629, Note_on_c, 5, 60, 0
13, 660, Note_on_c, 5, 60, 72
13, 689, Note_on_c, 5, 60, 0
13, 720, Note_on_c, 5, 60, 72
13, 749, Note_on_c, 5, 60, 0
13, 750, Note_on_c, 5, 58, 72
13, 779, Note_on_c, 5, 58, 0
13, 780, Note_on_c, 5, 57, 72
13, 839, Note_on_c, 5, 57, 0
13, 840, Note_on_c, 5, 57, 72
13, 869, Note_on_c, 5, 57, 0
13, 900, Note_on_c, 5, 57, 72
13, 929, Note_on_c, 5, 57, 0
13, 960, Note_on_c, 5, 59, 72
13, 989, Note_on_c, 5, 59, 0
13, 990, Note_on_c, 5, 60, 72
13, 1019, Note_on_c, 5, 60, 0
13, 1020, Note_on_c, 5, 62, 72
13, 1079, Note_on_c, 5, 62, 0
13, 1080, Note_on_c, 5, 62, 72
13, 1109, Note_on_c, 5, 62, 0
13, 1140, Note_on_c, 5, 62, 72
13, 1169, Note_on_c, 5, 62, 0
13, 1200, Note_on_c, 5, 62, 72
13, 1229, Note_on_c, 5, 62, 0
13, 1230, Note_on_c, 5, 60, 72
13, 1259, Note_on_c, 5, 60, 0
13, 1260, Note_on_c, 5, 59, 72
13, 1319, Note_on_c, 5, 59, 0
13, 1320, Note_on_c, 5, 59, 72
13, 1349, Note_on_c, 5, 59, 0
13, 1380, Note_on_c, 5, 59, 72
13, 1409, Note_on_c, 5, 59, 0
13, 1440, Note_on_c, 5, 59, 72
13, 1469, Note_on_c, 5, 59, 0
13, 1470, Note_on_c, 5, 60, 72
13, 1499, Note_on_c, 5, 60, 0
13, 1500, Note_on_c, 5, 62, 72
13, 1559, Note_on_c, 5, 62, 0
13, 1560, Note_on_c, 5, 62, 72
13, 1589, Note_on_c, 5, 62, 0
13, 1620, Note_on_c, 5, 62, 72
13, 1649, Note_on_c, 5, 62, 0
13, 1680, Note_on_c, 5, 62, 72
13, 1709, Note_on_c, 5, 62, 0
13, 1710, Note_on_c, 5, 60, 72
13, 1739, Note_on_c, 5, 60, 0
13, 1740, Note_on_c, 5, 59, 72
13, 1799, Note_on_c, 5, 59, 0
13, 1800, Note_on_c, 5, 59, 72
13, 1829, Note_on_c, 5, 59, 0
13, 1860, Note_on_c, 5, 59, 72
13, 1889, Note_on_c, 5, 59, 0
13, 1920, Note_on_c, 5, 60, 72
13, 1949, Note_on_c, 5, 60, 0
13, 1950, Note_on_c, 5, 61, 72
13, 1979, Note_on_c, 5, 61, 0
13, 1980, Note_on_c, 5, 64, 72
13, 2039, Note_on_c, 5, 64, 0
13, 2040, Note_on_c, 5, 64, 72
13, 2069, Note_on_c, 5, 64, 0
13, 2100, Note_on_c, 5, 64, 72
13, 2129, Note_on_c, 5, 64, 0
13, 2160, Note_on_c, 5, 64, 72
13, 2189, Note_on_c, 5, 64, 0
13, 2190, Note_on_c, 5, 61, 72
13, 2219, Note_on_c, 5, 61, 0
13, 2220, Note_on_c, 5, 60, 72
13, 2279, Note_on_c, 5, 60, 0
13, 2280, Note_on_c, 5, 60, 72
13, 2309, Note_on_c, 5, 60, 0
13, 2340, Note_on_c, 5, 60, 72
13, 2369, Note_on_c, 5, 60, 0
13, 2400, Note_on_c, 5, 60, 72
13, 2429, Note_on_c, 5, 60, 0
13, 2430, Note_on_c, 5, 61, 72
13, 2459, Note_on_c, 5, 61, 0
13, 2460, Note_on_c, 5, 64, 72
13, 2519, Note_on_c, 5, 64, 0
13, 2520, Note_on_c, 5, 64, 72
13, 2549, Note_on_c, 5, 64, 0
13, 2580, Note_on_c, 5, 64, 72
13, 2609, Note_on_c, 5, 64, 0
13, 2640, Note_on_c, 5, 64, 72
13, 2669, Note_on_c, 5, 64, 0
13, 2670, Note_on_c, 5, 61, 72
13, 2699, Note_on_c, 5, 61, 0
13, 2700, Note_on_c, 5, 60, 72
13, 2759, Note_on_c, 5, 60, 0
13, 2760, Note_on_c, 5, 60, 72
13, 2789, Note_on_c, 5, 60, 0
13, 2820, Note_on_c, 5, 60, 72
13, 2849, Note_on_c, 5, 60, 0
13, 2880, Note_on_c, 5, 62, 72
13, 2909, Note_on_c, 5, 62, 0
13, 2910, Note_on_c, 5, 63, 72
13, 2939, Note_on_c, 5, 63, 0
13, 2940, Note_on_c, 5, 65, 72
13, 2999, Note_on_c, 5, 65, 0
13, 3000, Note_on_c, 5, 65, 72
13, 3029, Note_on_c, 5, 65, 0
13, 3060, Note_on_c, 5, 65, 72
13, 3089, Note_on_c, 5, 65, 0
13, 3120, Note_on_c, 5, 65, 72
13, 3149, Note_on_c, 5, 65, 0
13, 3150, Note_on_c, 5, 63, 72
13, 3179, Note_on_c, 5, 63, 0
13, 3180, Note_on_c, 5, 62, 72
13, 3239, Note_on_c, 5, 62, 0
13, 3240, Note_on_c, 5, 62, 72
13, 3269, Note_on_c, 5, 62, 0
13, 3300, Note_on_c, 5, 62, 72
13, 3329, Note_on_c, 5, 62, 0
13, 3360, Note_on_c, 5, 62, 72
13, 3389, Note_on_c, 5, 62, 0
13, 3390, Note_on_c, 5, 63, 72
13, 3419, Note_on_c, 5, 63, 0
13, 3420, Note_on_c, 5, 65, 72
13, 3479, Note_on_c, 5, 65, 0
13, 3480, Note_on_c, 5, 65, 72
13, 3509, Note_on_c, 5, 65, 0
13, 3540, Note_on_c, 5, 65, 72
13, 3569, Note_on_c, 5, 65, 0
13, 3600, Note_on_c, 5, 65, 72
13, 3629, Note_on_c, 5, 65, 0
13, 3630, Note_on_c, 5, 63, 72
13, 3659, Note_on_c, 5, 63, 0
13, 3660, Note_on_c, 5, 62, 72
13, 3719, Note_on_c, 5, 62, 0
13, 3720, Note_on_c, 5, 62, 72
13, 3749, Note_on_c, 5, 62, 0
13, 3780, Note_on_c, 5, 62, 72
13, 3809, Note_on_c, 5, 62, 0
13, 3840, Note_on_c, 5, 64, 72
13, 3869, Note_on_c, 5, 64, 0
13, 3870, Note_on_c, 5, 68, 72
13, 3899, Note_on_c, 5, 68, 0
13, 3900, Note_on_c, 5, 71, 72
13, 3959, Note_on_c, 5, 71, 0
13, 3960, Note_on_c, 5, 71, 72
13, 3989, Note_on_c, 5, 71, 0
13, 4020, Note_on_c, 5, 71, 72
13, 4049, Note_on_c, 5, 71, 0
13, 4080, Note_on_c, 5, 71, 72
13, 4109, Note_on_c, 5, 71, 0
13, 4110, Note_on_c, 5, 68, 72
13, 4139, Note_on_c, 5, 68, 0
13, 4140, Note_on_c, 5, 64, 72
13, 4199, Note_on_c, 5, 64, 0
13, 4200, Note_on_c, 5, 64, 72
13, 4229, Note_on_c, 5, 64, 0
13, 4260, Note_on_c, 5, 64, 72
13, 4289, Note_on_c, 5, 64, 0
13, 4320, Note_on_c, 5, 64, 72
13, 4349, Note_on_c, 5, 64, 0
13, 4350, Note_on_c, 5, 69, 72
13, 4379, Note_on_c, 5, 69, 0
13, 4380, Note_on_c, 5, 72, 72
13, 4439, Note_on_c, 5, 72, 0
13, 4440, Note_on_c, 5, 72, 72
13, 4469, Note_on_c, 5, 72, 0
13, 4500, Note_on_c, 5, 72, 72
13, 4529, Note_on_c, 5, 72, 0
13, 4560, Note_on_c, 5, 72, 72
13, 4589, Note_on_c, 5, 72, 0
13, 4590, Note_on_c, 5, 69, 72
13, 4619, Note_on_c, 5, 69, 0
13, 4620, Note_on_c, 5, 64, 72
13, 4679, Note_on_c, 5, 64, 0
13, 4680, Note_on_c, 5, 64, 72
13, 4709, Note_on_c, 5, 64, 0
13, 4740, Note_on_c, 5, 64, 72
13, 4769, Note_on_c, 5, 64, 0
13, 4800, Note_on_c, 5, 71, 72
13, 4800, Note_on_c, 5, 64, 72
13, 4800, Note_on_c, 5, 76, 72
13, 4919, Note_on_c, 5, 76, 0
13, 4919, Note_on_c, 5, 64, 0
13, 4919, Note_on_c, 5, 71, 0
13, 4920, Note_on_c, 5, 64, 72
13, 5039, Note_on_c, 5, 64, 0
13, 5160, Note_on_c, 5, 64, 48
13, 5279, Note_on_c, 5, 64, 0
13, 5400, Note_on_c, 5, 63, 48
13, 5519, Note_on_c, 5, 63, 0
13, 5640, Note_on_c, 5, 62, 48
13, 5759, Note_on_c, 5, 62, 0
13, 5760, Note_on_c, 5, 60, 48
13, 5879, Note_on_c, 5, 60, 0
13, 5880, Note_on_c, 5, 64, 48
13, 5939, Note_on_c, 5, 64, 0
13, 5940, Note_on_c, 5, 67, 48
13, 5999, Note_on_c, 5, 67, 0
13, 6000, Note_on_c, 5, 72, 48
13, 6119, Note_on_c, 5, 72, 0
13, 6120, Note_on_c, 5, 71, 48
13, 6239, Note_on_c, 5, 71, 0
13, 6240, Note_on_c, 5, 69, 48
13, 6359, Note_on_c, 5, 69, 0
13, 6360, Note_on_c, 5, 67, 48
13, 6479, Note_on_c, 5, 67, 0
13, 6480, Note_on_c, 5, 65, 48
13, 6599, Note_on_c, 5, 65, 0
13, 6600, Note_on_c, 5, 64, 48
13, 6719, Note_on_c, 5, 64, 0
13, 6720, Note_on_c, 5, 62, 48
13, 6839, Note_on_c, 5, 62, 0
13, 6840, Note_on_c, 5, 64, 48
13, 6899, Note_on_c, 5, 64, 0
13, 6900, Note_on_c, 5, 65, 48
13, 6959, Note_on_c, 5, 65, 0
13, 6960, Note_on_c, 5, 67, 48
13, 7079, Note_on_c, 5, 67, 0
13, 7080, Note_on_c, 5, 55, 48
13, 7199, Note_on_c, 5, 55, 0
13, 7200, Note_on_c, 5, 60, 48
13, 7319, Note_on_c, 5, 60, 0
13, 7320, Note_on_c, 5, 64, 48
13, 7379, Note_on_c, 5, 64, 0
13, 7380, Note_on_c, 5, 67, 48
13, 7439, Note_on_c, 5, 67, 0
13, 7440, Note_on_c, 5, 72, 48
13, 7559, Note_on_c, 5, 72, 0
13, 7560, Note_on_c, 5, 67, 48
13, 7619, Note_on_c, 5, 67, 0
13, 7620, Note_on_c, 5, 64, 48
13, 7679, Note_on_c, 5, 64, 0
13, 7680, Note_on_c, 5, 60, 48
13, 7799, Note_on_c, 5, 60, 0
13, 7800, Note_on_c, 5, 64, 48
13, 7859, Note_on_c, 5, 64, 0
13, 7860, Note_on_c, 5, 67, 48
13, 7919, Note_on_c, 5, 67, 0
13, 7920, Note_on_c, 5, 72, 48
13, 8039, Note_on_c, 5, 72, 0
13, 8040, Note_on_c, 5, 71, 48
13, 8159, Note_on_c, 5, 71, 0
13, 8160, Note_on_c, 5, 69, 48
13, 8279, Note_on_c, 5, 69, 0
13, 8280, Note_on_c, 5, 67, 48
13, 8399, Note_on_c, 5, 67, 0
13, 8400, Note_on_c, 5, 65, 48
13, 8519, Note_on_c, 5, 65, 0
13, 8520, Note_on_c, 5, 64, 48
13, 8639, Note_on_c, 5, 64, 0
13, 8640, Note_on_c, 5, 62, 48
13, 8759, Note_on_c, 5, 62, 0
13, 8760, Note_on_c, 5, 64, 48
13, 8819, Note_on_c, 5, 64, 0
13, 8820, Note_on_c, 5, 65, 48
13, 8879, Note_on_c, 5, 65, 0
13, 8880, Note_on_c, 5, 67, 48
13, 8999, Note_on_c, 5, 67, 0
13, 9000, Note_on_c, 5, 55, 48
13, 9119, Note_on_c, 5, 55, 0
13, 9120, Note_on_c, 5, 60, 72
13, 9149, Note_on_c, 5, 60, 0
13, 9150, Note_on_c, 5, 62, 72
13, 9179, Note_on_c, 5, 62, 0
13, 9180, Note_on_c, 5, 64, 72
13, 9239, Note_on_c, 5, 64, 0
13, 9240, Note_on_c, 5, 64, 72
13, 9269, Note_on_c, 5, 64, 0
13, 9300, Note_on_c, 5, 64, 72
13, 9329, Note_on_c, 5, 64, 0
13, 9360, Note_on_c, 5, 63, 72
13, 9389, Note_on_c, 5, 63, 0
13, 9390, Note_on_c, 5, 62, 72
13, 9419, Note_on_c, 5, 62, 0
13, 9420, Note_on_c, 5, 60, 72
13, 9479, Note_on_c, 5, 60, 0
13, 9480, Note_on_c, 5, 60, 72
13, 9509, Note_on_c, 5, 60, 0
13, 9540, Note_on_c, 5, 60, 72
13, 9569, Note_on_c, 5, 60, 0
13, 9600, Note_on_c, 5, 55, 72
13, 9629, Note_on_c, 5, 55, 0
13, 9630, Note_on_c, 5, 57, 72
13, 9659, Note_on_c, 5, 57, 0
13, 9660, Note_on_c, 5, 59, 72
13, 9719, Note_on_c, 5, 59, 0
13, 9720, Note_on_c, 5, 59, 72
13, 9749, Note_on_c, 5, 59, 0
13, 9780, Note_on_c, 5, 59, 72
13, 9809, Note_on_c, 5, 59, 0
13, 9840, Note_on_c, 5, 58, 72
13, 9869, Note_on_c, 5, 58, 0
13, 9870, Note_on_c, 5, 57, 72
13, 9899, Note_on_c, 5, 57, 0
13, 9900, Note_on_c, 5, 55, 72
13, 9959, Note_on_c, 5, 55, 0
13, 9960, Note_on_c, 5, 55, 72
13, 9989, Note_on_c, 5, 55, 0
13, 10020, Note_on_c, 5, 55, 72
13, 10049, Note_on_c, 5, 55, 0
13, 10080, Note_on_c, 5, 62, 72
13, 10109, Note_on_c, 5, 62, 0
13, 10110, Note_on_c, 5, 64, 72
13, 10139, Note_on_c, 5, 64, 0
13, 10140, Note_on_c, 5, 66, 72
13, 10199, Note_on_c, 5, 66, 0
13, 10200, Note_on_c, 5, 66, 72
13, 10229, Note_on_c, 5, 66, 0
13, 10260, Note_on_c, 5, 66, 72
13, 10289, Note_on_c, 5, 66, 0
13, 10320, Note_on_c, 5, 65, 72
13, 10349, Note_on_c, 5, 65, 0
13, 10350, Note_on_c, 5, 64, 72
13, 10379, Note_on_c, 5, 64, 0
13, 10380, Note_on_c, 5, 62, 72
13, 10439, Note_on_c, 5, 62, 0
13, 10440, Note_on_c, 5, 62, 72
13, 10469, Note_on_c, 5, 62, 0
13, 10500, Note_on_c, 5, 62, 72
13, 10529, Note_on_c, 5, 62, 0
13, 10560, Note_on_c, 5, 57, 72
13, 10589, Note_on_c, 5, 57, 0
13, 10590, Note_on_c, 5, 59, 72
13, 10619, Note_on_c, 5, 59, 0
13, 10620, Note_on_c, 5, 61, 72
13, 10679, Note_on_c, 5, 61, 0
13, 10680, Note_on_c, 5, 61, 72
13, 10709, Note_on_c, 5, 61, 0
13, 10740, Note_on_c, 5, 61, 72
13, 10769, Note_on_c, 5, 61, 0
13, 10800, Note_on_c, 5, 60, 72
13, 10829, Note_on_c, 5, 60, 0
13, 10830, Note_on_c, 5, 59, 72
13, 10859, Note_on_c, 5, 59, 0
13, 10860, Note_on_c, 5, 57, 72
13, 10919, Note_on_c, 5, 57, 0
13, 10920, Note_on_c, 5, 57, 72
13, 10949, Note_on_c, 5, 57, 0
13, 10980, Note_on_c, 5, 57, 72
13, 11009, Note_on_c, 5, 57, 0
13, 11040, Note_on_c, 5, 64, 72
13, 11069, Note_on_c, 5, 64, 0
13, 11070, Note_on_c, 5, 66, 72
13, 11099, Note_on_c, 5, 66, 0
13, 11100, Note_on_c, 5, 68, 72
13, 11159, Note_on_c, 5, 68, 0
13, 11160, Note_on_c, 5, 68, 72
13, 11189, Note_on_c, 5, 68, 0
13, 11220, Note_on_c, 5, 68, 72
13, 11249, Note_on_c, 5, 68, 0
13, 11280, Note_on_c, 5, 67, 72
13, 11309, Note_on_c, 5, 67, 0
13, 11310, Note_on_c, 5, 66, 72
13, 11339, Note_on_c, 5, 66, 0
13, 11340, Note_on_c, 5, 64, 72
13, 11399, Note_on_c, 5, 64, 0
13, 11400, Note_on_c, 5, 64, 72
13, 11429, Note_on_c, 5, 64, 0
13, 11460, Note_on_c, 5, 64, 72
13, 11489, Note_on_c, 5, 64, 0
13, 11520, Note_on_c, 5, 57, 72
13, 11549, Note_on_c, 5, 57, 0
13, 11550, Note_on_c, 5, 59, 72
13, 11579, Note_on_c, 5, 59, 0
13, 11580, Note_on_c, 5, 60, 72
13, 11639, Note_on_c, 5, 60, 0
13, 11640, Note_on_c, 5, 60, 72
13, 11669, Note_on_c, 5, 60, 0
13, 11700, Note_on_c, 5, 60, 72
13, 11729, Note_on_c, 5, 60, 0
13, 11760, Note_on_c, 5, 59, 72
13, 11789, Note_on_c, 5, 59, 0
13, 11790, Note_on_c, 5, 60, 72
13, 11819, Note_on_c, 5, 60, 0
13, 11820, Note_on_c, 5, 62, 72
13, 11879, Note_on_c, 5, 62, 0
13, 11880, Note_on_c, 5, 62, 72
13, 11909, Note_on_c, 5, 62, 0
13, 11940, Note_on_c, 5, 62, 72
13, 11969, Note_on_c, 5, 62, 0
13, 12000, Note_on_c, 5, 60, 72
13, 12029, Note_on_c, 5, 60, 0
13, 12030, Note_on_c, 5, 62, 72
13, 12059, Note_on_c, 5, 62, 0
13, 12060, Note_on_c, 5, 64, 72
13, 12119, Note_on_c, 5, 64, 0
13, 12120, Note_on_c, 5, 64, 72
13, 12149, Note_on_c, 5, 64, 0
13, 12180, Note_on_c, 5, 64, 72
13, 12209, Note_on_c, 5, 64, 0
13, 12240, Note_on_c, 5, 64, 72
13, 12269, Note_on_c, 5, 64, 0
13, 12270, Note_on_c, 5, 65, 72
13, 12299, Note_on_c, 5, 65, 0
13, 12300, Note_on_c, 5, 67, 72
13, 12359, Note_on_c, 5, 67, 0
13, 12360, Note_on_c, 5, 67, 72
13, 12389, Note_on_c, 5, 67, 0
13, 12420, Note_on_c, 5, 67, 72
13, 12449, Note_on_c, 5, 67, 0
13, 12480, Note_on_c, 5, 66, 72
13, 12509, Note_on_c, 5, 66, 0
13, 12510, Note_on_c, 5, 67, 72
13, 12539, Note_on_c, 5, 67, 0
13, 12540, Note_on_c, 5, 69, 72
13, 12599, Note_on_c, 5, 69, 0
13, 12600, Note_on_c, 5, 69, 72
13, 12629, Note_on_c, 5, 69, 0
13, 12660, Note_on_c, 5, 69, 72
13, 12689, Note_on_c, 5, 69, 0
13, 12720, Note_on_c, 5, 68, 72
13, 12749, Note_on_c, 5, 68, 0
13, 12750, Note_on_c, 5, 69, 72
13, 12779, Note_on_c, 5, 69, 0
13, 12780, Note_on_c, 5, 71, 72
13, 12839, Note_on_c, 5, 71, 0
13, 12840, Note_on_c, 5, 71, 72
13, 12869, Note_on_c, 5, 71, 0
13, 12900, Note_on_c, 5, 71, 72
13, 12929, Note_on_c, 5, 71, 0
13, 12960, Note_on_c, 5, 69, 72
13, 12989, Note_on_c, 5, 69, 0
13, 12990, Note_on_c, 5, 71, 72
13, 13019, Note_on_c, 5, 71, 0
13, 13020, Note_on_c, 5, 72, 72
13, 13079, Note_on_c, 5, 72, 0
13, 13080, Note_on_c, 5, 72, 72
13, 13109, Note_on_c, 5, 72, 0
13, 13140, Note_on_c, 5, 72, 72
13, 13169, Note_on_c, 5, 72, 0
13, 13200, Note_on_c, 5, 67, 72
13, 13229, Note_on_c, 5, 67, 0
13, 13230, Note_on_c, 5, 69, 72
13, 13259, Note_on_c, 5, 69, 0
13, 13260, Note_on_c, 5, 70, 72
13, 13319, Note_on_c, 5, 70, 0
13, 13320, Note_on_c, 5, 70, 72
13, 13349, Note_on_c, 5, 70, 0
13, 13380, Note_on_c, 5, 70, 72
13, 13409, Note_on_c, 5, 70, 0
13, 13440, Note_on_c, 5, 66, 72
13, 13469, Note_on_c, 5, 66, 0
13, 13470, Note_on_c, 5, 67, 72
13, 13499, Note_on_c, 5, 67, 0
13, 13500, Note_on_c, 5, 69, 72
13, 13559, Note_on_c, 5, 69, 0
13, 13560, Note_on_c, 5, 69, 72
13, 13589, Note_on_c, 5, 69, 0
13, 13620, Note_on_c, 5, 69, 72
13, 13649, Note_on_c, 5, 69, 0
13, 13680, Note_on_c, 5, 69, 72
13, 13709, Note_on_c, 5, 69, 0
13, 13710, Note_on_c, 5, 67, 72
13, 13739, Note_on_c, 5, 67, 0
13, 13740, Note_on_c, 5, 66, 72
13, 13799, Note_on_c, 5, 66, 0
13, 13800, Note_on_c, 5, 66, 72
13, 13829, Note_on_c, 5, 66, 0
13, 13860, Note_on_c, 5, 66, 72
13, 13889, Note_on_c, 5, 66, 0
13, 13920, Note_on_c, 5, 65, 72
13, 13949, Note_on_c, 5, 65, 0
13, 13950, Note_on_c, 5, 67, 72
13, 13979, Note_on_c, 5, 67, 0
13, 13980, Note_on_c, 5, 69, 72
13, 14039, Note_on_c, 5, 69, 0
13, 14040, Note_on_c, 5, 69, 72
13, 14069, Note_on_c, 5, 69, 0
13, 14100, Note_on_c, 5, 69, 72
13, 14129, Note_on_c, 5, 69, 0
13, 14160, Note_on_c, 5, 69, 72
13, 14189, Note_on_c, 5, 69, 0
13, 14190, Note_on_c, 5, 67, 72
13, 14219, Note_on_c, 5, 67, 0
13, 14220, Note_on_c, 5, 65, 72
13, 14279, Note_on_c, 5, 65, 0
13, 14280, Note_on_c, 5, 65, 72
13, 14309, Note_on_c, 5, 65, 0
13, 14340, Note_on_c, 5, 65, 72
13, 14369, Note_on_c, 5, 65, 0
13, 14400, Note_on_c, 5, 64, 72
13, 14400, Note_on_c, 5, 71, 72
13, 14400, Note_on_c, 5, 76, 72
13, 14490, Note_on_c, 5, 64, 72
13, 14519, Note_on_c, 5, 76, 0
13, 14519, Note_on_c, 5, 64, 0
13, 14519, Note_on_c, 5, 71, 0
13, 14609, Note_on_c, 5, 64, 0
13, 14760, Note_on_c, 5, 62, 48
13, 14879, Note_on_c, 5, 62, 0
13, 15000, Note_on_c, 5, 60, 48
13, 15119, Note_on_c, 5, 60, 0
13, 15240, Note_on_c, 5, 59, 48
13, 15359, Note_on_c, 5, 59, 0
13, 15360, Note_on_c, 5, 57, 48
13, 15479, Note_on_c, 5, 57, 0
13, 15480, Note_on_c, 5, 60, 48
13, 15539, Note_on_c, 5, 60, 0
13, 15540, Note_on_c, 5, 64, 48
13, 15599, Note_on_c, 5, 64, 0
13, 15600, Note_on_c, 5, 69, 48
13, 15719, Note_on_c, 5, 69, 0
13, 15720, Note_on_c, 5, 67, 48
13, 15839, Note_on_c, 5, 67, 0
13, 15840, Note_on_c, 5, 65, 48
13, 15959, Note_on_c, 5, 65, 0
13, 15960, Note_on_c, 5, 64, 48
13, 16079, Note_on_c, 5, 64, 0
13, 16080, Note_on_c, 5, 62, 48
13, 16199, Note_on_c, 5, 62, 0
13, 16200, Note_on_c, 5, 60, 48
13, 16319, Note_on_c, 5, 60, 0
13, 16320, Note_on_c, 5, 59, 48
13, 16439, Note_on_c, 5, 59, 0
13, 16440, Note_on_c, 5, 60, 48
13, 16499, Note_on_c, 5, 60, 0
13, 16500, Note_on_c, 5, 62, 48
13, 16559, Note_on_c, 5, 62, 0
13, 16560, Note_on_c, 5, 64, 48
13, 16619, Note_on_c, 5, 64, 0
13, 16620, Note_on_c, 5, 62, 48
13, 16679, Note_on_c, 5, 62, 0
13, 16680, Note_on_c, 5, 64, 48
13, 16799, Note_on_c, 5, 64, 0
13, 16800, Note_on_c, 5, 57, 48
13, 16919, Note_on_c, 5, 57, 0
13, 16920, Note_on_c, 5, 67, 48
13, 17039, Note_on_c, 5, 67, 0
13, 17040, Note_on_c, 5, 65, 48
13, 17159, Note_on_c, 5, 65, 0
13, 17160, Note_on_c, 5, 64, 48
13, 17279, Note_on_c, 5, 64, 0
13, 17280, Note_on_c, 5, 62, 48
13, 17399, Note_on_c, 5, 62, 0
13, 17400, Note_on_c, 5, 65, 48
13, 17459, Note_on_c, 5, 65, 0
13, 17460, Note_on_c, 5, 69, 48
13, 17519, Note_on_c, 5, 69, 0
13, 17520, Note_on_c, 5, 74, 48
13, 17639, Note_on_c, 5, 74, 0
13, 17640, Note_on_c, 5, 72, 48
13, 17759, Note_on_c, 5, 72, 0
13, 17760, Note_on_c, 5, 70, 48
13, 17879, Note_on_c, 5, 70, 0
13, 17880, Note_on_c, 5, 69, 48
13, 17999, Note_on_c, 5, 69, 0
13, 18000, Note_on_c, 5, 67, 48
13, 18119, Note_on_c, 5, 67, 0
13, 18120, Note_on_c, 5, 65, 48
13, 18239, Note_on_c, 5, 65, 0
13, 18240, Note_on_c, 5, 64, 48
13, 18359, Note_on_c, 5, 64, 0
13, 18360, Note_on_c, 5, 65, 48
13, 18419, Note_on_c, 5, 65, 0
13, 18420, Note_on_c, 5, 67, 48
13, 18479, Note_on_c, 5, 67, 0
13, 18480, Note_on_c, 5, 69, 48
13, 18599, Note_on_c, 5, 69, 0
13, 18600, Note_on_c, 5, 57, 48
13, 18719, Note_on_c, 5, 57, 0
13, 18720, Note_on_c, 5, 62, 48
13, 18839, Note_on_c, 5, 62, 0
13, 18840, Note_on_c, 5, 65, 48
13, 18899, Note_on_c, 5, 65, 0
13, 18900, Note_on_c, 5, 64, 48
13, 18959, Note_on_c, 5, 64, 0
13, 18960, Note_on_c, 5, 62, 48
13, 19079, Note_on_c, 5, 62, 0
13, 19080, Note_on_c, 5, 64, 48
13, 19139, Note_on_c, 5, 64, 0
13, 19140, Note_on_c, 5, 65, 48
13, 19199, Note_on_c, 5, 65, 0
13, 19200, Note_on_c, 5, 67, 48
13, 19319, Note_on_c, 5, 67, 0
13, 19320, Note_on_c, 5, 65, 48
13, 19379, Note_on_c, 5, 65, 0
13, 19380, Note_on_c, 5, 67, 48
13, 19439, Note_on_c, 5, 67, 0
13, 19440, Note_on_c, 5, 55, 48
13, 19559, Note_on_c, 5, 55, 0
13, 19560, Note_on_c, 5, 67, 48
13, 19679, Note_on_c, 5, 67, 0
13, 19680, Note_on_c, 5, 60, 48
13, 19799, Note_on_c, 5, 60, 0
13, 19800, Note_on_c, 5, 64, 48
13, 19859, Note_on_c, 5, 64, 0
13, 19860, Note_on_c, 5, 62, 48
13, 19919, Note_on_c, 5, 62, 0
13, 19920, Note_on_c, 5, 60, 48
13, 20039, Note_on_c, 5, 60, 0
13, 20040, Note_on_c, 5, 62, 48
13, 20099, Note_on_c, 5, 62, 0
13, 20100, Note_on_c, 5, 64, 48
13, 20159, Note_on_c, 5, 64, 0
13, 20160, Note_on_c, 5, 65, 48
13, 20279, Note_on_c, 5, 65, 0
13, 20280, Note_on_c, 5, 60, 48
13, 20339, Note_on_c, 5, 60, 0
13, 20340, Note_on_c, 5, 57, 48
13, 20399, Note_on_c, 5, 57, 0
13, 20400, Note_on_c, 5, 65, 48
13, 20459, Note_on_c, 5, 65, 0
13, 20520, Note_on_c, 5, 65, 48
13, 20579, Note_on_c, 5, 65, 0
13, 20640, Note_on_c, 5, 59, 48
13, 20759, Note_on_c, 5, 59, 0
13, 20760, Note_on_c, 5, 62, 48
13, 20819, Note_on_c, 5, 62, 0
13, 20820, Note_on_c, 5, 60, 48
13, 20879, Note_on_c, 5, 60, 0
13, 20880, Note_on_c, 5, 59, 48
13, 20999, Note_on_c, 5, 59, 0
13, 21000, Note_on_c, 5, 60, 48
13, 21059, Note_on_c, 5, 60, 0
13, 21060, Note_on_c, 5, 62, 48
13, 21119, Note_on_c, 5, 62, 0
13, 21120, Note_on_c, 5, 64, 48
13, 21239, Note_on_c, 5, 64, 0
13, 21240, Note_on_c, 5, 62, 48
13, 21359, Note_on_c, 5, 62, 0
13, 21360, Note_on_c, 5, 60, 48
13, 21479, Note_on_c, 5, 60, 0
13, 21480, Note_on_c, 5, 59, 48
13, 21599, Note_on_c, 5, 59, 0
13, 21600, Note_on_c, 5, 57, 48
13, 21719, Note_on_c, 5, 57, 0
13, 21720, Note_on_c, 5, 67, 48
13, 21839, Note_on_c, 5, 67, 0
13, 21840, Note_on_c, 5, 66, 48
13, 21959, Note_on_c, 5, 66, 0
13, 21960, Note_on_c, 5, 65, 48
13, 22079, Note_on_c, 5, 65, 0
13, 22080, Note_on_c, 5, 64, 48
13, 22199, Note_on_c, 5, 64, 0
13, 22200, Note_on_c, 5, 62, 48
13, 22259, Note_on_c, 5, 62, 0
13, 22260, Note_on_c, 5, 64, 48
13, 22319, Note_on_c, 5, 64, 0
13, 22320, Note_on_c, 5, 65, 48
13, 22439, Note_on_c, 5, 65, 0
13, 22440, Note_on_c, 5, 64, 48
13, 22499, Note_on_c, 5, 64, 0
13, 22500, Note_on_c, 5, 65, 48
13, 22559, Note_on_c, 5, 65, 0
13, 22560, Note_on_c, 5, 62, 48
13, 22679, Note_on_c, 5, 62, 0
13, 22680, Note_on_c, 5, 60, 48
13, 22739, Note_on_c, 5, 60, 0
13, 22740, Note_on_c, 5, 62, 48
13, 22799, Note_on_c, 5, 62, 0
13, 22800, Note_on_c, 5, 64, 48
13, 22919, Note_on_c, 5, 64, 0
13, 22920, Note_on_c, 5, 62, 48
13, 22979, Note_on_c, 5, 62, 0
13, 22980, Note_on_c, 5, 64, 48
13, 23039, Note_on_c, 5, 64, 0
13, 23040, Note_on_c, 5, 57, 48
13, 23099, Note_on_c, 5, 57, 0
13, 23100, Note_on_c, 5, 64, 48
13, 23159, Note_on_c, 5, 64, 0
13, 23160, Note_on_c, 5, 64, 48
13, 23219, Note_on_c, 5, 64, 0
13, 23220, Note_on_c, 5, 64, 48
13, 23279, Note_on_c, 5, 64, 0
13, 23340, Note_on_c, 5, 69, 48
13, 23399, Note_on_c, 5, 69, 0
13, 23400, Note_on_c, 5, 69, 48
13, 23459, Note_on_c, 5, 69, 0
13, 23460, Note_on_c, 5, 69, 48
13, 23519, Note_on_c, 5, 69, 0
13, 23580, Note_on_c, 5, 72, 48
13, 23639, Note_on_c, 5, 72, 0
13, 23640, Note_on_c, 5, 72, 48
13, 23699, Note_on_c, 5, 72, 0
13, 23700, Note_on_c, 5, 72, 48
13, 23759, Note_on_c, 5, 72, 0
13, 23820, Note_on_c, 5, 76, 48
13, 23879, Note_on_c, 5, 76, 0
13, 23880, Note_on_c, 5, 76, 48
13, 23939, Note_on_c, 5, 76, 0
13, 23940, Note_on_c, 5, 76, 48
13, 23999, Note_on_c, 5, 76, 0
13, 24060, Note_on_c, 5, 78, 48
13, 24119, Note_on_c, 5, 78, 0
13, 24120, Note_on_c, 5, 78, 48
13, 24179, Note_on_c, 5, 78, 0
13, 24180, Note_on_c, 5, 78, 48
13, 24239, Note_on_c, 5, 78, 0
13, 24300, Note_on_c, 5, 78, 48
13, 24359, Note_on_c, 5, 78, 0
13, 24360, Note_on_c, 5, 78, 48
13, 24419, Note_on_c, 5, 78, 0
13, 24420, Note_on_c, 5, 78, 48
13, 24479, Note_on_c, 5, 78, 0
13, 24540, Note_on_c, 5, 72, 48
13, 24599, Note_on_c, 5, 72, 0
13, 24600, Note_on_c, 5, 72, 48
13, 24659, Note_on_c, 5, 72, 0
13, 24660, Note_on_c, 5, 72, 48
13, 24719, Note_on_c, 5, 72, 0
13, 24780, Note_on_c, 5, 69, 48
13, 24839, Note_on_c, 5, 69, 0
13, 24840, Note_on_c, 5, 69, 48
13, 24899, Note_on_c, 5, 69, 0
13, 24900, Note_on_c, 5, 69, 48
13, 24959, Note_on_c, 5, 69, 0
13, 25020, Note_on_c, 5, 67, 48
13, 25079, Note_on_c, 5, 67, 0
13, 25080, Note_on_c, 5, 67, 48
13, 25139, Note_on_c, 5, 67, 0
13, 25140, Note_on_c, 5, 67, 48
13, 25199, Note_on_c, 5, 67, 0
13, 25260, Note_on_c, 5, 67, 48
13, 25319, Note_on_c, 5, 67, 0
13, 25320, Note_on_c, 5, 67, 48
13, 25379, Note_on_c, 5, 67, 0
13, 25380, Note_on_c, 5, 67, 48
13, 25439, Note_on_c, 5, 67, 0
13, 25500, Note_on_c, 5, 61, 48
13, 25559, Note_on_c, 5, 61, 0
13, 25560, Note_on_c, 5, 61, 48
13, 25619, Note_on_c, 5, 61, 0
13, 25620, Note_on_c, 5, 61, 48
13, 25679, Note_on_c, 5, 61, 0
13, 25740, Note_on_c, 5, 58, 48
13, 25799, Note_on_c, 5, 58, 0
13, 25800, Note_on_c, 5, 58, 48
13, 25859, Note_on_c, 5, 58, 0
13, 25860, Note_on_c, 5, 58, 48
13, 25919, Note_on_c, 5, 58, 0
13, 25980, Note_on_c, 5, 58, 48
13, 26039, Note_on_c, 5, 58, 0
13, 26040, Note_on_c, 5, 58, 48
13, 26099, Note_on_c, 5, 58, 0
13, 26100, Note_on_c, 5, 58, 48
13, 26159, Note_on_c, 5, 58, 0
13, 26220, Note_on_c, 5, 56, 48
13, 26279, Note_on_c, 5, 56, 0
13, 26280, Note_on_c, 5, 56, 48
13, 26339, Note_on_c, 5, 56, 0
13, 26340, Note_on_c, 5, 56, 48
13, 26399, Note_on_c, 5, 56, 0
13, 26460, Note_on_c, 5, 56, 48
13, 26519, Note_on_c, 5, 56, 0
13, 26520, Note_on_c, 5, 56, 48
13, 26579, Note_on_c, 5, 56, 0
13, 26580, Note_on_c, 5, 56, 48
13, 26639, Note_on_c, 5, 56, 0
13, 26700, Note_on_c, 5, 55, 48
13, 26759, Note_on_c, 5, 55, 0
13, 26760, Note_on_c, 5, 55, 48
13, 26819, Note_on_c, 5, 55, 0
13, 26820, Note_on_c, 5, 55, 48
13, 26879, Note_on_c, 5, 55, 0
13, 26880, Note_on_c, 5, 56, 48
13, 26939, Note_on_c, 5, 56, 0
13, 26940, Note_on_c, 5, 63, 48
13, 26999, Note_on_c, 5, 63, 0
13, 27000, Note_on_c, 5, 63, 48
13, 27059, Note_on_c, 5, 63, 0
13, 27060, Note_on_c, 5, 63, 48
13, 27119, Note_on_c, 5, 63, 0
13, 27180, Note_on_c, 5, 68, 48
13, 27239, Note_on_c, 5, 68, 0
13, 27240, Note_on_c, 5, 68, 48
13, 27299, Note_on_c, 5, 68, 0
13, 27300, Note_on_c, 5, 68, 48
13, 27359, Note_on_c, 5, 68, 0
13, 27420, Note_on_c, 5, 71, 48
13, 27479, Note_on_c, 5, 71, 0
13, 27480, Note_on_c, 5, 71, 48
13, 27539, Note_on_c, 5, 71, 0
13, 27540, Note_on_c, 5, 71, 48
13, 27599, Note_on_c, 5, 71, 0
13, 27660, Note_on_c, 5, 75, 48
13, 27719, Note_on_c, 5, 75, 0
13, 27720, Note_on_c, 5, 75, 48
13, 27779, Note_on_c, 5, 75, 0
13, 27780, Note_on_c, 5, 75, 48
13, 27839, Note_on_c, 5, 75, 0
13, 27900, Note_on_c, 5, 77, 48
13, 27959, Note_on_c, 5, 77, 0
13, 27960, Note_on_c, 5, 77, 48
13, 28019, Note_on_c, 5, 77, 0
13, 28020, Note_on_c, 5, 77, 48
13, 28079, Note_on_c, 5, 77, 0
13, 28140, Note_on_c, 5, 77, 48
13, 28199, Note_on_c, 5, 77, 0
13, 28200, Note_on_c, 5, 77, 48
13, 28259, Note_on_c, 5, 77, 0
13, 28260, Note_on_c, 5, 77, 48
13, 28319, Note_on_c, 5, 77, 0
13, 28380, Note_on_c, 5, 71, 48
13, 28439, Note_on_c, 5, 71, 0
13, 28440, Note_on_c, 5, 71, 48
13, 28499, Note_on_c, 5, 71, 0
13, 28500, Note_on_c, 5, 71, 48
13, 28559, Note_on_c, 5, 71, 0
13, 28620, Note_on_c, 5, 68, 48
13, 28679, Note_on_c, 5, 68, 0
13, 28680, Note_on_c, 5, 68, 48
13, 28739, Note_on_c, 5, 68, 0
13, 28740, Note_on_c, 5, 68, 48
13, 28799, Note_on_c, 5, 68, 0
13, 28860, Note_on_c, 5, 69, 48
13, 28919, Note_on_c, 5, 69, 0
13, 28920, Note_on_c, 5, 69, 48
13, 28979, Note_on_c, 5, 69, 0
13, 28980, Note_on_c, 5, 69, 48
13, 29039, Note_on_c, 5, 69, 0
13, 29100, Note_on_c, 5, 66, 48
13, 29159, Note_on_c, 5, 66, 0
13, 29160, Note_on_c, 5, 66, 48
13, 29219, Note_on_c, 5, 66, 0
13, 29220, Note_on_c, 5, 66, 48
13, 29279, Note_on_c, 5, 66, 0
13, 29340, Note_on_c, 5, 60, 48
13, 29399, Note_on_c, 5, 60, 0
13, 29400, Note_on_c, 5, 60, 48
13, 29459, Note_on_c, 5, 60, 0
13, 29460, Note_on_c, 5, 60, 48
13, 29519, Note_on_c, 5, 60, 0
13, 29580, Note_on_c, 5, 57, 48
13, 29639, Note_on_c, 5, 57, 0
13, 29640, Note_on_c, 5, 57, 48
13, 29699, Note_on_c, 5, 57, 0
13, 29700, Note_on_c, 5, 57, 48
13, 29759, Note_on_c, 5, 57, 0
13, 29820, Note_on_c, 5, 57, 48
13, 29879, Note_on_c, 5, 57, 0
13, 29880, Note_on_c, 5, 57, 48
13, 29939, Note_on_c, 5, 57, 0
13, 29940, Note_on_c, 5, 57, 48
13, 29999, Note_on_c, 5, 57, 0
13, 30060, Note_on_c, 5, 55, 48
13, 30119, Note_on_c, 5, 55, 0
13, 30120, Note_on_c, 5, 55, 48
13, 30179, Note_on_c, 5, 55, 0
13, 30180, Note_on_c, 5, 55, 48
13, 30239, Note_on_c, 5, 55, 0
13, 30300, Note_on_c, 5, 62, 48
13, 30359, Note_on_c, 5, 62, 0
13, 30360, Note_on_c, 5, 62, 48
13, 30419, Note_on_c, 5, 62, 0
13, 30420, Note_on_c, 5, 62, 48
13, 30479, Note_on_c, 5, 62, 0
13, 30540, Note_on_c, 5, 60, 48
13, 30599, Note_on_c, 5, 60, 0
13, 30600, Note_on_c, 5, 60, 48
13, 30659, Note_on_c, 5, 60, 0
13, 30660, Note_on_c, 5, 60, 48
13, 30719, Note_on_c, 5, 60, 0
13, 30780, Note_on_c, 5, 58, 48
13, 30839, Note_on_c, 5, 58, 0
13, 30840, Note_on_c, 5, 58, 48
13, 30899, Note_on_c, 5, 58, 0
13, 30900, Note_on_c, 5, 58, 48
13, 30959, Note_on_c, 5, 58, 0
13, 31020, Note_on_c, 5, 67, 48
13, 31079, Note_on_c, 5, 67, 0
13, 31080, Note_on_c, 5, 67, 48
13, 31139, Note_on_c, 5, 67, 0
13, 31140, Note_on_c, 5, 67, 48
13, 31199, Note_on_c, 5, 67, 0
13, 31260, Note_on_c, 5, 70, 48
13, 31319, Note_on_c, 5, 70, 0
13, 31320, Note_on_c, 5, 70, 48
13, 31379, Note_on_c, 5, 70, 0
13, 31380, Note_on_c, 5, 70, 48
13, 31439, Note_on_c, 5, 70, 0
13, 31500, Note_on_c, 5, 74, 48
13, 31559, Note_on_c, 5, 74, 0
13, 31560, Note_on_c, 5, 74, 48
13, 31619, Note_on_c, 5, 74, 0
13, 31620, Note_on_c, 5, 74, 48
13, 31679, Note_on_c, 5, 74, 0
13, 31740, Note_on_c, 5, 79, 48
13, 31799, Note_on_c, 5, 79, 0
13, 31800, Note_on_c, 5, 79, 48
13, 31859, Note_on_c, 5, 79, 0
13, 31860, Note_on_c, 5, 79, 48
13, 31919, Note_on_c, 5, 79, 0
13, 31980, Note_on_c, 5, 76, 48
13, 32039, Note_on_c, 5, 76, 0
13, 32040, Note_on_c, 5, 76, 48
13, 32099, Note_on_c, 5, 76, 0
13, 32100, Note_on_c, 5, 76, 48
13, 32159, Note_on_c, 5, 76, 0
13, 32220, Note_on_c, 5, 70, 48
13, 32279, Note_on_c, 5, 70, 0
13, 32280, Note_on_c, 5, 70, 48
13, 32339, Note_on_c, 5, 70, 0
13, 32340, Note_on_c, 5, 70, 48
13, 32399, Note_on_c, 5, 70, 0
13, 32460, Note_on_c, 5, 67, 48
13, 32519, Note_on_c, 5, 67, 0
13, 32520, Note_on_c, 5, 67, 48
13, 32579, Note_on_c, 5, 67, 0
13, 32580, Note_on_c, 5, 67, 48
13, 32639, Note_on_c, 5, 67, 0
13, 32700, Note_on_c, 5, 65, 48
13, 32759, Note_on_c, 5, 65, 0
13, 32760, Note_on_c, 5, 65, 48
13, 32819, Note_on_c, 5, 65, 0
13, 32820, Note_on_c, 5, 65, 48
13, 32879, Note_on_c, 5, 65, 0
13, 32940, Note_on_c, 5, 59, 48
13, 32999, Note_on_c, 5, 59, 0
13, 33000, Note_on_c, 5, 59, 48
13, 33059, Note_on_c, 5, 59, 0
13, 33060, Note_on_c, 5, 59, 48
13, 33119, Note_on_c, 5, 59, 0
13, 33180, Note_on_c, 5, 57, 48
13, 33239, Note_on_c, 5, 57, 0
13, 33240, Note_on_c, 5, 57, 48
13, 33299, Note_on_c, 5, 57, 0
13, 33300, Note_on_c, 5, 57, 48
13, 33359, Note_on_c, 5, 57, 0
13, 33420, Note_on_c, 5, 73, 48
13, 33479, Note_on_c, 5, 73, 0
13, 33480, Note_on_c, 5, 73, 48
13, 33539, Note_on_c, 5, 73, 0
13, 33540, Note_on_c, 5, 73, 48
13, 33599, Note_on_c, 5, 73, 0
13, 33660, Note_on_c, 5, 78, 48
13, 33719, Note_on_c, 5, 78, 0
13, 33720, Note_on_c, 5, 78, 48
13, 33779, Note_on_c, 5, 78, 0
13, 33780, Note_on_c, 5, 78, 48
13, 33839, Note_on_c, 5, 78, 0
13, 33900, Note_on_c, 5, 75, 48
13, 33959, Note_on_c, 5, 75, 0
13, 33960, Note_on_c, 5, 75, 48
13, 34019, Note_on_c, 5, 75, 0
13, 34020, Note_on_c, 5, 75, 48
13, 34079, Note_on_c, 5, 75, 0
13, 34140, Note_on_c, 5, 69, 48
13, 34199, Note_on_c, 5, 69, 0
13, 34200, Note_on_c, 5, 69, 48
13, 34259, Note_on_c, 5, 69, 0
13, 34260, Note_on_c, 5, 69, 48
13, 34319, Note_on_c, 5, 69, 0
13, 34380, Note_on_c, 5, 66, 48
13, 34439, Note_on_c, 5, 66, 0
13, 34440, Note_on_c, 5, 66, 48
13, 34499, Note_on_c, 5, 66, 0
13, 34500, Note_on_c, 5, 66, 48
13, 34559, Note_on_c, 5, 66, 0
13, 34620, Note_on_c, 5, 67, 48
13, 34679, Note_on_c, 5, 67, 0
13, 34680, Note_on_c, 5, 67, 48
13, 34739, Note_on_c, 5, 67, 0
13, 34740, Note_on_c, 5, 67, 48
13, 34799, Note_on_c, 5, 67, 0
13, 34860, Note_on_c, 5, 58, 48
13, 34919, Note_on_c, 5, 58, 0
13, 34920, Note_on_c, 5, 58, 48
13, 34979, Note_on_c, 5, 58, 0
13, 34980, Note_on_c, 5, 58, 48
13, 35039, Note_on_c, 5, 58, 0
13, 35100, Note_on_c, 5, 56, 48
13, 35159, Note_on_c, 5, 56, 0
13, 35160, Note_on_c, 5, 56, 48
13, 35219, Note_on_c, 5, 56, 0
13, 35220, Note_on_c, 5, 56, 48
13, 35279, Note_on_c, 5, 56, 0
13, 35340, Note_on_c, 5, 60, 48
13, 35399, Note_on_c, 5, 60, 0
13, 35400, Note_on_c, 5, 60, 48
13, 35459, Note_on_c, 5, 60, 0
13, 35460, Note_on_c, 5, 60, 48
13, 35519, Note_on_c, 5, 60, 0
13, 35580, Note_on_c, 5, 60, 48
13, 35639, Note_on_c, 5, 60, 0
13, 35640, Note_on_c, 5, 60, 48
13, 35699, Note_on_c, 5, 60, 0
13, 35700, Note_on_c, 5, 60, 48
13, 35759, Note_on_c, 5, 60, 0
13, 35820, Note_on_c, 5, 60, 48
13, 35879, Note_on_c, 5, 60, 0
13, 35880, Note_on_c, 5, 60, 48
13, 35939, Note_on_c, 5, 60, 0
13, 35940, Note_on_c, 5, 60, 48
13, 35999, Note_on_c, 5, 60, 0
13, 36060, Note_on_c, 5, 60, 48
13, 36119, Note_on_c, 5, 60, 0
13, 36120, Note_on_c, 5, 60, 48
13, 36179, Note_on_c, 5, 60, 0
13, 36180, Note_on_c, 5, 60, 48
13, 36239, Note_on_c, 5, 60, 0
13, 36300, Note_on_c, 5, 58, 48
13, 36359, Note_on_c, 5, 58, 0
13, 36360, Note_on_c, 5, 58, 48
13, 36419, Note_on_c, 5, 58, 0
13, 36420, Note_on_c, 5, 58, 48
13, 36479, Note_on_c, 5, 58, 0
13, 36540, Note_on_c, 5, 57, 48
13, 36599, Note_on_c, 5, 57, 0
13, 36600, Note_on_c, 5, 57, 48
13, 36659, Note_on_c, 5, 57, 0
13, 36660, Note_on_c, 5, 57, 48
13, 36719, Note_on_c, 5, 57, 0
13, 36780, Note_on_c, 5, 57, 48
13, 36839, Note_on_c, 5, 57, 0
13, 36840, Note_on_c, 5, 57, 48
13, 36899, Note_on_c, 5, 57, 0
13, 36900, Note_on_c, 5, 57, 48
13, 36959, Note_on_c, 5, 57, 0
13, 37020, Note_on_c, 5, 57, 48
13, 37079, Note_on_c, 5, 57, 0
13, 37080, Note_on_c, 5, 57, 48
13, 37139, Note_on_c, 5, 57, 0
13, 37140, Note_on_c, 5, 57, 48
13, 37199, Note_on_c, 5, 57, 0
13, 37260, Note_on_c, 5, 57, 48
13, 37319, Note_on_c, 5, 57, 0
13, 37320, Note_on_c, 5, 57, 48
13, 37379, Note_on_c, 5, 57, 0
13, 37380, Note_on_c, 5, 57, 48
13, 37439, Note_on_c, 5, 57, 0
13, 37440, Note_on_c, 5, 57, 48
13, 37679, Note_on_c, 5, 57, 0
13, 37920, Note_on_c, 5, 55, 48
13, 38159, Note_on_c, 5, 55, 0
13, 38159, End_track
14, 0, Start_track
14, 0, Title_t, "Viola"
14, 0, Program_c, 6, 48
14, 0, Control_c, 6, 7, 96
14, 0, Control_c, 6, 10, 80
14, 0, Control_c, 6, 11, 127
14, 0, Note_on_c, 6, 57, 72
14, 29, Note_on_c, 6, 57, 0
14, 30, Note_on_c, 6, 58, 72
14, 59, Note_on_c, 6, 58, 0
14, 60, Note_on_c, 6, 60, 72
14, 119, Note_on_c, 6, 60, 0
14, 120, Note_on_c, 6, 60, 72
14, 149, Note_on_c, 6, 60, 0
14, 180, Note_on_c, 6, 60, 72
14, 209, Note_on_c, 6, 60, 0
14, 240, Note_on_c, 6, 60, 72
14, 269, Note_on_c, 6, 60, 0
14, 270, Note_on_c, 6, 58, 72
14, 299, Note_on_c, 6, 58, 0
14, 300, Note_on_c, 6, 57, 72
14, 359, Note_on_c, 6, 57, 0
14, 360, Note_on_c, 6, 57, 72
14, 389, Note_on_c, 6, 57, 0
14, 420, Note_on_c, 6, 57, 72
14, 449, Note_on_c, 6, 57, 0
14, 480, Note_on_c, 6, 57, 72
14, 509, Note_on_c, 6, 57, 0
14, 510, Note_on_c, 6, 58, 72
14, 539, Note_on_c, 6, 58, 0
14, 540, Note_on_c, 6, 60, 72
14, 599, Note_on_c, 6, 60, 0
14, 600, Note_on_c, 6, 60, 72
14, 629, Note_on_c, 6, 60, 0
14, 660, Note_on_c, 6, 60, 72
14, 689, Note_on_c, 6, 60, 0
14, 720, Note_on_c, 6, 60, 72
14, 749, Note_on_c, 6, 60, 0
14, 750, Note_on_c, 6, 58, 72
14, 779, Note_on_c, 6, 58, 0
14, 780, Note_on_c, 6, 57, 72
14, 839, Note_on_c, 6, 57, 0
14, 840, Note_on_c, 6, 57, 72
14, 869, Note_on_c, 6, 57, 0
14, 900, Note_on_c, 6, 57, 72
14, 929, Note_on_c, 6, 57, 0
14, 960, Note_on_c, 6, 59, 72
14, 989, Note_on_c, 6, 59, 0
14, 990, Note_on_c, 6, 60, 72
14, 1019, Note_on_c, 6, 60, 0
14, 1020, Note_on_c, 6, 62, 72
14, 1079, Note_on_c, 6, 62, 0
14, 1080, Note_on_c, 6, 62, 72
14, 1109, Note_on_c, 6, 62, 0
14, 1140, Note_on_c, 6, 62, 72
14, 1169, Note_on_c, 6, 62, 0
14, 1200, Note_on_c, 6, 62, 72
14, 1229, Note_on_c, 6, 62, 0
14, 1230, Note_on_c, 6, 60, 72
14, 1259, Note_on_c, 6, 60, 0
14, 1260, Note_on_c, 6, 59, 72
14, 1319, Note_on_c, 6, 59, 0
14, 1320, Note_on_c, 6, 59, 72
14, 1349, Note_on_c, 6, 59, 0
14, 1380, Note_on_c, 6, 59, 72
14, 1409, Note_on_c, 6, 59, 0
14, 1440, Note_on_c, 6, 59, 72
14, 1469, Note_on_c, 6, 59, 0
14, 1470, Note_on_c, 6, 60, 72
14, 1499, Note_on_c, 6, 60, 0
14, 1500, Note_on_c, 6, 62, 72
14, 1559, Note_on_c, 6, 62, 0
14, 1560, Note_on_c, 6, 62, 72
14, 1589, Note_on_c, 6, 62, 0
14, 1620, Note_on_c, 6, 62, 72
14, 1649, Note_on_c, 6, 62, 0
14, 1680, Note_on_c, 6, 62, 72
14, 1709, Note_on_c, 6, 62, 0
14, 1710, Note_on_c, 6, 60, 72
14, 1739, Note_on_c, 6, 60, 0
14, 1740, Note_on_c, 6, 59, 72
14, 1799, Note_on_c, 6, 59, 0
14, 1800, Note_on_c, 6, 59, 72
14, 1829, Note_on_c, 6, 59, 0
14, 1860, Note_on_c, 6, 59, 72
14, 1889, Note_on_c, 6, 59, 0
14, 1920, Note_on_c, 6, 60, 72
14, 1949, Note_on_c, 6, 60, 0
14, 1950, Note_on_c, 6, 61, 72
14, 1979, Note_on_c, 6, 61, 0
14, 1980, Note_on_c, 6, 64, 72
14, 2039, Note_on_c, 6, 64, 0
14, 2040, Note_on_c, 6, 64, 72
14, 2069, Note_on_c, 6, 64, 0
14, 2100, Note_on_c, 6, 64, 72
14, 2129, Note_on_c, 6, 64, 0
14, 2160, Note_on_c, 6, 64, 72
14, 2189, Note_on_c, 6, 64, 0
14, 2190, Note_on_c, 6, 61, 72
14, 2219, Note_on_c, 6, 61, 0
14, 2220, Note_on_c, 6, 60, 72
14, 2279, Note_on_c, 6, 60, 0
14, 2280, Note_on_c, 6, 60, 72
14, 2309, Note_on_c, 6, 60, 0
14, 2340, Note_on_c, 6, 60, 72
14, 2369, Note_on_c, 6, 60, 0
14, 2400, Note_on_c, 6, 60, 72
14, 2429, Note_on_c, 6, 60, 0
14, 2430, Note_on_c, 6, 61, 72
14, 2459, Note_on_c, 6, 61, 0
14, 2460, Note_on_c, 6, 64, 72
14, 2519, Note_on_c, 6, 64, 0
14, 2520, Note_on_c, 6, 64, 72
14, 2549, Note_on_c, 6, 64, 0
14, 2580, Note_on_c, 6, 64, 72
14, 2609, Note_on_c, 6, 64, 0
14, 2640, Note_on_c, 6, 64, 72
14, 2669, Note_on_c, 6, 64, 0
14, 2670, Note_on_c, 6, 61, 72
14, 2699, Note_on_c, 6, 61, 0
14, 2700, Note_on_c, 6, 60, 72
14, 2759, Note_on_c, 6, 60, 0
14, 2760, Note_on_c, 6, 60, 72
14, 2789, Note_on_c, 6, 60, 0
14, 2820, Note_on_c, 6, 60, 72
14, 2849, Note_on_c, 6, 60, 0
14, 2880, Note_on_c, 6, 50, 72
14, 2909, Note_on_c, 6, 50, 0
14, 2910, Note_on_c, 6, 51, 72
14, 2939, Note_on_c, 6, 51, 0
14, 2940, Note_on_c, 6, 53, 72
14, 2999, Note_on_c, 6, 53, 0
14, 3000, Note_on_c, 6, 53, 72
14, 3029, Note_on_c, 6, 53, 0
14, 3060, Note_on_c, 6, 53, 72
14, 3089, Note_on_c, 6, 53, 0
14, 3120, Note_on_c, 6, 53, 72
14, 3149, Note_on_c, 6, 53, 0
14, 3150, Note_on_c, 6, 51, 72
14, 3179, Note_on_c, 6, 51, 0
14, 3180, Note_on_c, 6, 50, 72
14, 3239, Note_on_c, 6, 50, 0
14, 3240, Note_on_c, 6, 50, 72
14, 3269, Note_on_c, 6, 50, 0
14, 3300, Note_on_c, 6, 50, 72
14, 3329, Note_on_c, 6, 50, 0
14, 3360, Note_on_c, 6, 50, 72
14, 3389, Note_on_c, 6, 50, 0
14, 3390, Note_on_c, 6, 51, 72
14, 3419, Note_on_c, 6, 51, 0
14, 3420, Note_on_c, 6, 53, 72
14, 3479, Note_on_c, 6, 53, 0
14, 3480, Note_on_c, 6, 53, 72
14, 3509, Note_on_c, 6, 53, 0
14, 3540, Note_on_c, 6, 53, 72
14, 3569, Note_on_c, 6, 53, 0
14, 3600, Note_on_c, 6, 53, 72
14, 3629, Note_on_c, 6, 53, 0
14, 3630, Note_on_c, 6, 51, 72
14, 3659, Note_on_c, 6, 51, 0
14, 3660, Note_on_c, 6, 50, 72
14, 3719, Note_on_c, 6, 50, 0
14, 3720, Note_on_c, 6, 50, 72
14, 3749, Note_on_c, 6, 50, 0
14, 3780, Note_on_c, 6, 50, 72
14, 3809, Note_on_c, 6, 50, 0
14, 3840, Note_on_c, 6, 52, 72
14, 3869, Note_on_c, 6, 52, 0
14, 3870, Note_on_c, 6, 56, 72
14, 3899, Note_on_c, 6, 56, 0
14, 3900, Note_on_c, 6, 59, 72
14, 3959, Note_on_c, 6, 59, 0
14, 3960, Note_on_c, 6, 59, 72
14, 3989, Note_on_c, 6, 59, 0
14, 4020, Note_on_c, 6, 59, 72
14, 4049, Note_on_c, 6, 59, 0
14, 4080, Note_on_c, 6, 59, 72
14, 4109, Note_on_c, 6, 59, 0
14, 4110, Note_on_c, 6, 56, 72
14, 4139, Note_on_c, 6, 56, 0
14, 4140, Note_on_c, 6, 52, 72
14, 4199, Note_on_c, 6, 52, 0
14, 4200, Note_on_c, 6, 52, 72
14, 4229, Note_on_c, 6, 52, 0
14, 4260, Note_on_c, 6, 52, 72
14, 4289, Note_on_c, 6, 52, 0
14, 4320, Note_on_c, 6, 52, 72
14, 4349, Note_on_c, 6, 52, 0
14, 4350, Note_on_c, 6, 57, 72
14, 4379, Note_on_c, 6, 57, 0
14, 4380, Note_on_c, 6, 60, 72
14, 4439, Note_on_c, 6, 60, 0
14, 4440, Note_on_c, 6, 60, 72
14, 4469, Note_on_c, 6, 60, 0
14, 4500, Note_on_c, 6, 60, 72
14, 4529, Note_on_c, 6, 60, 0
14, 4560, Note_on_c, 6, 60, 72
14, 4589, Note_on_c, 6, 60, 0
14, 4590, Note_on_c, 6, 57, 72
14, 4619, Note_on_c, 6, 57, 0
14, 4620, Note_on_c, 6, 52, 72
14, 4679, Note_on_c, 6, 52, 0
14, 4680, Note_on_c, 6, 52, 72
14, 4709, Note_on_c, 6, 52, 0
14, 4740, Note_on_c, 6, 52, 72
14, 4769, Note_on_c, 6, 52, 0
14, 4800, Note_on_c, 6, 56, 72
14, 4919, Note_on_c, 6, 56, 0
14, 4920, Note_on_c, 6, 64, 72
14, 5039, Note_on_c, 6, 64, 0
14, 5160, Note_on_c, 6, 52, 48
14, 5279, Note_on_c, 6, 52, 0
14, 5400, Note_on_c, 6, 51, 48
14, 5519, Note_on_c, 6, 51, 0
14, 5640, Note_on_c, 6, 50, 48
14, 5759, Note_on_c, 6, 50, 0
14, 5760, Note_on_c, 6, 48, 48
14, 5999, Note_on_c, 6, 48, 0
14, 9120, Note_on_c, 6, 48, 72
14, 9149, Note_on_c, 6, 48, 0
14, 9150, Note_on_c, 6, 50, 72
14, 9179, Note_on_c, 6, 50, 0
14, 9180, Note_on_c, 6, 52, 72
14, 9239, Note_on_c, 6, 52, 0
14, 9240, Note_on_c, 6, 52, 72
14, 9269, Note_on_c, 6, 52, 0
14, 9300, Note_on_c, 6, 52, 72
14, 9329, Note_on_c, 6, 52, 0
14, 9360, Note_on_c, 6, 51, 72
14, 9389, Note_on_c, 6, 51, 0
14, 9390, Note_on_c, 6, 50, 72
14, 9419, Note_on_c, 6, 50, 0
14, 9420, Note_on_c, 6, 48, 72
14, 9479, Note_on_c, 6, 48, 0
14, 9480, Note_on_c, 6, 48, 72
14, 9509, Note_on_c, 6, 48, 0
14, 9540, Note_on_c, 6, 48, 72
14, 9569, Note_on_c, 6, 48, 0
14, 9600, Note_on_c, 6, 55, 72
14, 9629, Note_on_c, 6, 55, 0
14, 9630, Note_on_c, 6, 57, 72
14, 9659, Note_on_c, 6, 57, 0
14, 9660, Note_on_c, 6, 59, 72
14, 9719, Note_on_c, 6, 59, 0
14, 9720, Note_on_c, 6, 59, 72
14, 9749, Note_on_c, 6, 59, 0
14, 9780, Note_on_c, 6, 59, 72
14, 9809, Note_on_c, 6, 59, 0
14, 9840, Note_on_c, 6, 58, 72
14, 9869, Note_on_c, 6, 58, 0
14, 9870, Note_on_c, 6, 57, 72
14, 9899, Note_on_c, 6, 57, 0
14, 9900, Note_on_c, 6, 55, 72
14, 9959, Note_on_c, 6, 55, 0
14, 9960, Note_on_c, 6, 55, 72
14, 9989, Note_on_c, 6, 55, 0
14, 10020, Note_on_c, 6, 55, 72
14, 10049, Note_on_c, 6, 55, 0
14, 10080, Note_on_c, 6, 62, 72
14, 10109, Note_on_c, 6, 62, 0
14, 10110, Note_on_c, 6, 64, 72
14, 10139, Note_on_c, 6, 64, 0
14, 10140, Note_on_c, 6, 66, 72
14, 10199, Note_on_c, 6, 66, 0
14, 10200, Note_on_c, 6, 66, 72
14, 10229, Note_on_c, 6, 66, 0
14, 10260, Note_on_c, 6, 66, 72
14, 10289, Note_on_c, 6, 66, 0
14, 10320, Note_on_c, 6, 65, 72
14, 10349, Note_on_c, 6, 65, 0
14, 10350, Note_on_c, 6, 64, 72
14, 10379, Note_on_c, 6, 64, 0
14, 10380, Note_on_c, 6, 62, 72
14, 10439, Note_on_c, 6, 62, 0
14, 10440, Note_on_c, 6, 62, 72
14, 10469, Note_on_c, 6, 62, 0
14, 10500, Note_on_c, 6, 62, 72
14, 10529, Note_on_c, 6, 62, 0
14, 10560, Note_on_c, 6, 57, 72
14, 10589, Note_on_c, 6, 57, 0
14, 10590, Note_on_c, 6, 59, 72
14, 10619, Note_on_c, 6, 59, 0
14, 10620, Note_on_c, 6, 61, 72
14, 10679, Note_on_c, 6, 61, 0
14, 10680, Note_on_c, 6, 61, 72
14, 10709, Note_on_c, 6, 61, 0
14, 10740, Note_on_c, 6, 61, 72
14, 10769, Note_on_c, 6, 61, 0
14, 10800, Note_on_c, 6, 60, 72
14, 10829, Note_on_c, 6, 60, 0
14, 10830, Note_on_c, 6, 59, 72
14, 10859, Note_on_c, 6, 59, 0
14, 10860, Note_on_c, 6, 57, 72
14, 10919, Note_on_c, 6, 57, 0
14, 10920, Note_on_c, 6, 57, 72
14, 10949, Note_on_c, 6, 57, 0
14, 10980, Note_on_c, 6, 57, 72
14, 11009, Note_on_c, 6, 57, 0
14, 11040, Note_on_c, 6, 64, 72
14, 11069, Note_on_c, 6, 64, 0
14, 11070, Note_on_c, 6, 66, 72
14, 11099, Note_on_c, 6, 66, 0
14, 11100, Note_on_c, 6, 68, 72
14, 11159, Note_on_c, 6, 68, 0
14, 11160, Note_on_c, 6, 68, 72
14, 11189, Note_on_c, 6, 68, 0
14, 11220, Note_on_c, 6, 68, 72
14, 11249, Note_on_c, 6, 68, 0
14, 11280, Note_on_c, 6, 67, 72
14, 11309, Note_on_c, 6, 67, 0
14, 11310, Note_on_c, 6, 66, 72
14, 11339, Note_on_c, 6, 66, 0
14, 11340, Note_on_c, 6, 64, 72
14, 11399, Note_on_c, 6, 64, 0
14, 11400, Note_on_c, 6, 64, 72
14, 11429, Note_on_c, 6, 64, 0
14, 11460, Note_on_c, 6, 64, 72
14, 11489, Note_on_c, 6, 64, 0
14, 11520, Note_on_c, 6, 57, 72
14, 11549, Note_on_c, 6, 57, 0
14, 11550, Note_on_c, 6, 59, 72
14, 11579, Note_on_c, 6, 59, 0
14, 11580, Note_on_c, 6, 60, 72
14, 11639, Note_on_c, 6, 60, 0
14, 11640, Note_on_c, 6, 60, 72
14, 11669, Note_on_c, 6, 60, 0
14, 11700, Note_on_c, 6, 60, 72
14, 11729, Note_on_c, 6, 60, 0
14, 11760, Note_on_c, 6, 59, 72
14, 11789, Note_on_c, 6, 59, 0
14, 11790, Note_on_c, 6, 60, 72
14, 11819, Note_on_c, 6, 60, 0
14, 11820, Note_on_c, 6, 62, 72
14, 11879, Note_on_c, 6, 62, 0
14, 11880, Note_on_c, 6, 62, 72
14, 11909, Note_on_c, 6, 62, 0
14, 11940, Note_on_c, 6, 62, 72
14, 11969, Note_on_c, 6, 62, 0
14, 12000, Note_on_c, 6, 60, 72
14, 12029, Note_on_c, 6, 60, 0
14, 12030, Note_on_c, 6, 62, 72
14, 12059, Note_on_c, 6, 62, 0
14, 12060, Note_on_c, 6, 64, 72
14, 12119, Note_on_c, 6, 64, 0
14, 12120, Note_on_c, 6, 64, 72
14, 12149, Note_on_c, 6, 64, 0
14, 12180, Note_on_c, 6, 64, 72
14, 12209, Note_on_c, 6, 64, 0
14, 12240, Note_on_c, 6, 64, 72
14, 12269, Note_on_c, 6, 64, 0
14, 12270, Note_on_c, 6, 65, 72
14, 12299, Note_on_c, 6, 65, 0
14, 12300, Note_on_c, 6, 67, 72
14, 12359, Note_on_c, 6, 67, 0
14, 12360, Note_on_c, 6, 67, 72
14, 12389, Note_on_c, 6, 67, 0
14, 12420, Note_on_c, 6, 67, 72
14, 12449, Note_on_c, 6, 67, 0
14, 12480, Note_on_c, 6, 54, 72
14, 12509, Note_on_c, 6, 54, 0
14, 12510, Note_on_c, 6, 55, 72
14, 12539, Note_on_c, 6, 55, 0
14, 12540, Note_on_c, 6, 57, 72
14, 12599, Note_on_c, 6, 57, 0
14, 12600, Note_on_c, 6, 57, 72
14, 12629, Note_on_c, 6, 57, 0
14, 12660, Note_on_c, 6, 57, 72
14, 12689, Note_on_c, 6, 57, 0
14, 12720, Note_on_c, 6, 56, 72
14, 12749, Note_on_c, 6, 56, 0
14, 12750, Note_on_c, 6, 57, 72
14, 12779, Note_on_c, 6, 57, 0
14, 12780, Note_on_c, 6, 59, 72
14, 12839, Note_on_c, 6, 59, 0
14, 12840, Note_on_c, 6, 59, 72
14, 12869, Note_on_c, 6, 59, 0
14, 12900, Note_on_c, 6, 59, 72
14, 12929, Note_on_c, 6, 59, 0
14, 12960, Note_on_c, 6, 57, 72
14, 12989, Note_on_c, 6, 57, 0
14, 12990, Note_on_c, 6, 59, 72
14, 13019, Note_on_c, 6, 59, 0
14, 13020, Note_on_c, 6, 60, 72
14, 13079, Note_on_c, 6, 60, 0
14, 13080, Note_on_c, 6, 60, 72
14, 13109, Note_on_c, 6, 60, 0
14, 13140, Note_on_c, 6, 60, 72
14, 13169, Note_on_c, 6, 60, 0
14, 13200, Note_on_c, 6, 55, 72
14, 13229, Note_on_c, 6, 55, 0
14, 13230, Note_on_c, 6, 57, 72
14, 13259, Note_on_c, 6, 57, 0
14, 13260, Note_on_c, 6, 58, 72
14, 13319, Note_on_c, 6, 58, 0
14, 13320, Note_on_c, 6, 58, 72
14, 13349, Note_on_c, 6, 58, 0
14, 13380, Note_on_c, 6, 58, 72
14, 13409, Note_on_c, 6, 58, 0
14, 13440, Note_on_c, 6, 54, 72
14, 13469, Note_on_c, 6, 54, 0
14, 13470, Note_on_c, 6, 55, 72
14, 13499, Note_on_c, 6, 55, 0
14, 13500, Note_on_c, 6, 57, 72
14, 13559, Note_on_c, 6, 57, 0
14, 13560, Note_on_c, 6, 57, 72
14, 13589, Note_on_c, 6, 57, 0
14, 13620, Note_on_c, 6, 57, 72
14, 13649, Note_on_c, 6, 57, 0
14, 13680, Note_on_c, 6, 57, 72
14, 13709, Note_on_c, 6, 57, 0
14, 13710, Note_on_c, 6, 55, 72
14, 13739, Note_on_c, 6, 55, 0
14, 13740, Note_on_c, 6, 54, 72
14, 13799, Note_on_c, 6, 54, 0
14, 13800, Note_on_c, 6, 54, 72
14, 13829, Note_on_c, 6, 54, 0
14, 13860, Note_on_c, 6, 54, 72
14, 13889, Note_on_c, 6, 54, 0
14, 13920, Note_on_c, 6, 53, 72
14, 13949, Note_on_c, 6, 53, 0
14, 13950, Note_on_c, 6, 55, 72
14, 13979, Note_on_c, 6, 55, 0
14, 13980, Note_on_c, 6, 57, 72
14, 14039, Note_on_c, 6, 57, 0
14, 14040, Note_on_c, 6, 57, 72
14, 14069, Note_on_c, 6, 57, 0
14, 14100, Note_on_c, 6, 57, 72
14, 14129, Note_on_c, 6, 57, 0
14, 14160, Note_on_c, 6, 57, 72
14, 14189, Note_on_c, 6, 57, 0
14, 14190, Note_on_c, 6, 55, 72
14, 14219, Note_on_c, 6, 55, 0
14, 14220, Note_on_c, 6, 53, 72
14, 14279, Note_on_c, 6, 53, 0
14, 14280, Note_on_c, 6, 53, 72
14, 14309, Note_on_c, 6, 53, 0
14, 14340, Note_on_c, 6, 53, 72
14, 14369, Note_on_c, 6, 53, 0
14, 14400, Note_on_c, 6, 52, 72
14, 14519, Note_on_c, 6, 52, 0
14, 14520, Note_on_c, 6, 64, 72
14, 14639, Note_on_c, 6, 64, 0
14, 14760, Note_on_c, 6, 62, 48
14, 14879, Note_on_c, 6, 62, 0
14, 15000, Note_on_c, 6, 60, 48
14, 15119, Note_on_c, 6, 60, 0
14, 15240, Note_on_c, 6, 59, 48
14, 15359, Note_on_c, 6, 59, 0
14, 15360, Note_on_c, 6, 57, 48
14, 15599, Note_on_c, 6, 57, 0
14, 23100, Note_on_c, 6, 60, 48
14, 23159, Note_on_c, 6, 60, 0
14, 23160, Note_on_c, 6, 60, 48
14, 23219, Note_on_c, 6, 60, 0
14, 23220, Note_on_c, 6, 60, 48
14, 23279, Note_on_c, 6, 60, 0
14, 23340, Note_on_c, 6, 64, 48
14, 23399, Note_on_c, 6, 64, 0
14, 23400, Note_on_c, 6, 64, 48
14, 23459, Note_on_c, 6, 64, 0
14, 23460, Note_on_c, 6, 64, 48
14, 23519, Note_on_c, 6, 64, 0
14, 23580, Note_on_c, 6, 69, 48
14, 23639, Note_on_c, 6, 69, 0
14, 23640, Note_on_c, 6, 69, 48
14, 23699, Note_on_c, 6, 69, 0
14, 23700, Note_on_c, 6, 69, 48
14, 23759, Note_on_c, 6, 69, 0
14, 23820, Note_on_c, 6, 72, 48
14, 23879, Note_on_c, 6, 72, 0
14, 23880, Note_on_c, 6, 72, 48
14, 23939, Note_on_c, 6, 72, 0
14, 23940, Note_on_c, 6, 72, 48
14, 23999, Note_on_c, 6, 72, 0
14, 24060, Note_on_c, 6, 69, 48
14, 24119, Note_on_c, 6, 69, 0
14, 24120, Note_on_c, 6, 69, 48
14, 24179, Note_on_c, 6, 69, 0
14, 24180, Note_on_c, 6, 69, 48
14, 24239, Note_on_c, 6, 69, 0
14, 24300, Note_on_c, 6, 72, 48
14, 24359, Note_on_c, 6, 72, 0
14, 24360, Note_on_c, 6, 72, 48
14, 24419, Note_on_c, 6, 72, 0
14, 24420, Note_on_c, 6, 72, 48
14, 24479, Note_on_c, 6, 72, 0
14, 24540, Note_on_c, 6, 69, 48
14, 24599, Note_on_c, 6, 69, 0
14, 24600, Note_on_c, 6, 69, 48
14, 24659, Note_on_c, 6, 69, 0
14, 24660, Note_on_c, 6, 69, 48
14, 24719, Note_on_c, 6, 69, 0
14, 24780, Note_on_c, 6, 66, 48
14, 24839, Note_on_c, 6, 66, 0
14, 24840, Note_on_c, 6, 66, 48
14, 24899, Note_on_c, 6, 66, 0
14, 24900, Note_on_c, 6, 66, 48
14, 24959, Note_on_c, 6, 66, 0
14, 25020, Note_on_c, 6, 63, 48
14, 25079, Note_on_c, 6, 63, 0
14, 25080, Note_on_c, 6, 63, 48
14, 25139, Note_on_c, 6, 63, 0
14, 25140, Note_on_c, 6, 63, 48
14, 25199, Note_on_c, 6, 63, 0
14, 25260, Note_on_c, 6, 61, 48
14, 25319, Note_on_c, 6, 61, 0
14, 25320, Note_on_c, 6, 61, 48
14, 25379, Note_on_c, 6, 61, 0
14, 25380, Note_on_c, 6, 61, 48
14, 25439, Note_on_c, 6, 61, 0
14, 25500, Note_on_c, 6, 58, 48
14, 25559, Note_on_c, 6, 58, 0
14, 25560, Note_on_c, 6, 58, 48
14, 25619, Note_on_c, 6, 58, 0
14, 25620, Note_on_c, 6, 58, 48
14, 25679, Note_on_c, 6, 58, 0
14, 25740, Note_on_c, 6, 55, 48
14, 25799, Note_on_c, 6, 55, 0
14, 25800, Note_on_c, 6, 55, 48
14, 25859, Note_on_c, 6, 55, 0
14, 25860, Note_on_c, 6, 55, 48
14, 25919, Note_on_c, 6, 55, 0
14, 25980, Note_on_c, 6, 51, 48
14, 26039, Note_on_c, 6, 51, 0
14, 26040, Note_on_c, 6, 51, 48
14, 26099, Note_on_c, 6, 51, 0
14, 26100, Note_on_c, 6, 51, 48
14, 26159, Note_on_c, 6, 51, 0
14, 26220, Note_on_c, 6, 51, 48
14, 26279, Note_on_c, 6, 51, 0
14, 26280, Note_on_c, 6, 51, 48
14, 26339, Note_on_c, 6, 51, 0
14, 26340, Note_on_c, 6, 51, 48
14, 26399, Note_on_c, 6, 51, 0
14, 26460, Note_on_c, 6, 51, 48
14, 26519, Note_on_c, 6, 51, 0
14, 26520, Note_on_c, 6, 51, 48
14, 26579, Note_on_c, 6, 51, 0
14, 26580, Note_on_c, 6, 51, 48
14, 26639, Note_on_c, 6, 51, 0
14, 26700, Note_on_c, 6, 51, 48
14, 26759, Note_on_c, 6, 51, 0
14, 26760, Note_on_c, 6, 51, 48
14, 26819, Note_on_c, 6, 51, 0
14, 26820, Note_on_c, 6, 51, 48
14, 26879, Note_on_c, 6, 51, 0
14, 26880, Note_on_c, 6, 51, 48
14, 26939, Note_on_c, 6, 51, 0
14, 26940, Note_on_c, 6, 59, 48
14, 26999, Note_on_c, 6, 59, 0
14, 27000, Note_on_c, 6, 59, 48
14, 27059, Note_on_c, 6, 59, 0
14, 27060, Note_on_c, 6, 59, 48
14, 27119, Note_on_c, 6, 59, 0
14, 27180, Note_on_c, 6, 63, 48
14, 27239, Note_on_c, 6, 63, 0
14, 27240, Note_on_c, 6, 63, 48
14, 27299, Note_on_c, 6, 63, 0
14, 27300, Note_on_c, 6, 63, 48
14, 27359, Note_on_c, 6, 63, 0
14, 27420, Note_on_c, 6, 68, 48
14, 27479, Note_on_c, 6, 68, 0
14, 27480, Note_on_c, 6, 68, 48
14, 27539, Note_on_c, 6, 68, 0
14, 27540, Note_on_c, 6, 68, 48
14, 27599, Note_on_c, 6, 68, 0
14, 27660, Note_on_c, 6, 71, 48
14, 27719, Note_on_c, 6, 71, 0
14, 27720, Note_on_c, 6, 71, 48
14, 27779, Note_on_c, 6, 71, 0
14, 27780, Note_on_c, 6, 71, 48
14, 27839, Note_on_c, 6, 71, 0
14, 27900, Note_on_c, 6, 68, 48
14, 27959, Note_on_c, 6, 68, 0
14, 27960, Note_on_c, 6, 68, 48
14, 28019, Note_on_c, 6, 68, 0
14, 28020, Note_on_c, 6, 68, 48
14, 28079, Note_on_c, 6, 68, 0
14, 28140, Note_on_c, 6, 71, 48
14, 28199, Note_on_c, 6, 71, 0
14, 28200, Note_on_c, 6, 71, 48
14, 28259, Note_on_c, 6, 71, 0
14, 28260, Note_on_c, 6, 71, 48
14, 28319, Note_on_c, 6, 71, 0
14, 28380, Note_on_c, 6, 67, 48
14, 28439, Note_on_c, 6, 67, 0
14, 28440, Note_on_c, 6, 67, 48
14, 28499, Note_on_c, 6, 67, 0
14, 28500, Note_on_c, 6, 67, 48
14, 28559, Note_on_c, 6, 67, 0
14, 28620, Note_on_c, 6, 65, 48
14, 28679, Note_on_c, 6, 65, 0
14, 28680, Note_on_c, 6, 65, 48
14, 28739, Note_on_c, 6, 65, 0
14, 28740, Note_on_c, 6, 65, 48
14, 28799, Note_on_c, 6, 65, 0
14, 28860, Note_on_c, 6, 66, 48
14, 28919, Note_on_c, 6, 66, 0
14, 28920, Note_on_c, 6, 66, 48
14, 28979, Note_on_c, 6, 66, 0
14, 28980, Note_on_c, 6, 66, 48
14, 29039, Note_on_c, 6, 66, 0
14, 29100, Note_on_c, 6, 60, 48
14, 29159, Note_on_c, 6, 60, 0
14, 29160, Note_on_c, 6, 60, 48
14, 29219, Note_on_c, 6, 60, 0
14, 29220, Note_on_c, 6, 60, 48
14, 29279, Note_on_c, 6, 60, 0
14, 29340, Note_on_c, 6, 57, 48
14, 29399, Note_on_c, 6, 57, 0
14, 29400, Note_on_c, 6, 57, 48
14, 29459, Note_on_c, 6, 57, 0
14, 29460, Note_on_c, 6, 57, 48
14, 29519, Note_on_c, 6, 57, 0
14, 29580, Note_on_c, 6, 54, 48
14, 29639, Note_on_c, 6, 54, 0
14, 29640, Note_on_c, 6, 54, 48
14, 29699, Note_on_c, 6, 54, 0
14, 29700, Note_on_c, 6, 54, 48
14, 29759, Note_on_c, 6, 54, 0
14, 29820, Note_on_c, 6, 50, 48
14, 29879, Note_on_c, 6, 50, 0
14, 29880, Note_on_c, 6, 50, 48
14, 29939, Note_on_c, 6, 50, 0
14, 29940, Note_on_c, 6, 50, 48
14, 29999, Note_on_c, 6, 50, 0
14, 30060, Note_on_c, 6, 50, 48
14, 30119, Note_on_c, 6, 50, 0
14, 30120, Note_on_c, 6, 50, 48
14, 30179, Note_on_c, 6, 50, 0
14, 30180, Note_on_c, 6, 50, 48
14, 30239, Note_on_c, 6, 50, 0
14, 30300, Note_on_c, 6, 57, 48
14, 30359, Note_on_c, 6, 57, 0
14, 30360, Note_on_c, 6, 57, 48
14, 30419, Note_on_c, 6, 57, 0
14, 30420, Note_on_c, 6, 57, 48
14, 30479, Note_on_c, 6, 57, 0
14, 30540, Note_on_c, 6, 57, 48
14, 30599, Note_on_c, 6, 57, 0
14, 30600, Note_on_c, 6, 57, 48
14, 30659, Note_on_c, 6, 57, 0
14, 30660, Note_on_c, 6, 57, 48
14, 30719, Note_on_c, 6, 57, 0
14, 30780, Note_on_c, 6, 55, 48
14, 30839, Note_on_c, 6, 55, 0
14, 30840, Note_on_c, 6, 55, 48
14, 30899, Note_on_c, 6, 55, 0
14, 30900, Note_on_c, 6, 55, 48
14, 30959, Note_on_c, 6, 55, 0
14, 31020, Note_on_c, 6, 62, 48
14, 31079, Note_on_c, 6, 62, 0
14, 31080, Note_on_c, 6, 62, 48
14, 31139, Note_on_c, 6, 62, 0
14, 31140, Note_on_c, 6, 62, 48
14, 31199, Note_on_c, 6, 62, 0
14, 31260, Note_on_c, 6, 67, 48
14, 31319, Note_on_c, 6, 67, 0
14, 31320, Note_on_c, 6, 67, 48
14, 31379, Note_on_c, 6, 67, 0
14, 31380, Note_on_c, 6, 67, 48
14, 31439, Note_on_c, 6, 67, 0
14, 31500, Note_on_c, 6, 70, 48
14, 31559, Note_on_c, 6, 70, 0
14, 31560, Note_on_c, 6, 70, 48
14, 31619, Note_on_c, 6, 70, 0
14, 31620, Note_on_c, 6, 70, 48
14, 31679, Note_on_c, 6, 70, 0
14, 31740, Note_on_c, 6, 64, 48
14, 31799, Note_on_c, 6, 64, 0
14, 31800, Note_on_c, 6, 64, 48
14, 31859, Note_on_c, 6, 64, 0
14, 31860, Note_on_c, 6, 64, 48
14, 31919, Note_on_c, 6, 64, 0
14, 31980, Note_on_c, 6, 70, 48
14, 32039, Note_on_c, 6, 70, 0
14, 32040, Note_on_c, 6, 70, 48
14, 32099, Note_on_c, 6, 70, 0
14, 32100, Note_on_c, 6, 70, 48
14, 32159, Note_on_c, 6, 70, 0
14, 32220, Note_on_c, 6, 67, 48
14, 32279, Note_on_c, 6, 67, 0
14, 32280, Note_on_c, 6, 67, 48
14, 32339, Note_on_c, 6, 67, 0
14, 32340, Note_on_c, 6, 67, 48
14, 32399, Note_on_c, 6, 67, 0
14, 32460, Note_on_c, 6, 64, 48
14, 32519, Note_on_c, 6, 64, 0
14, 32520, Note_on_c, 6, 64, 48
14, 32579, Note_on_c, 6, 64, 0
14, 32580, Note_on_c, 6, 64, 48
14, 32639, Note_on_c, 6, 64, 0
14, 32700, Note_on_c, 6, 56, 48
14, 32759, Note_on_c, 6, 56, 0
14, 32760, Note_on_c, 6, 56, 48
14, 32819, Note_on_c, 6, 56, 0
14, 32820, Note_on_c, 6, 56, 48
14, 32879, Note_on_c, 6, 56, 0
14, 32940, Note_on_c, 6, 56, 48
14, 32999, Note_on_c, 6, 56, 0
14, 33000, Note_on_c, 6, 56, 48
14, 33059, Note_on_c, 6, 56, 0
14, 33060, Note_on_c, 6, 56, 48
14, 33119, Note_on_c, 6, 56, 0
14, 33180, Note_on_c, 6, 54, 48
14, 33239, Note_on_c, 6, 54, 0
14, 33240, Note_on_c, 6, 54, 48
14, 33299, Note_on_c, 6, 54, 0
14, 33300, Note_on_c, 6, 54, 48
14, 33359, Note_on_c, 6, 54, 0
14, 33420, Note_on_c, 6, 69, 48
14, 33479, Note_on_c, 6, 69, 0
14, 33480, Note_on_c, 6, 69, 48
14, 33539, Note_on_c, 6, 69, 0
14, 33540, Note_on_c, 6, 69, 48
14, 33599, Note_on_c, 6, 69, 0
14, 33660, Note_on_c, 6, 75, 48
14, 33719, Note_on_c, 6, 75, 0
14, 33720, Note_on_c, 6, 75, 48
14, 33779, Note_on_c, 6, 75, 0
14, 33780, Note_on_c, 6, 75, 48
14, 33839, Note_on_c, 6, 75, 0
14, 33900, Note_on_c, 6, 69, 48
14, 33959, Note_on_c, 6, 69, 0
14, 33960, Note_on_c, 6, 69, 48
14, 34019, Note_on_c, 6, 69, 0
14, 34020, Note_on_c, 6, 69, 48
14, 34079, Note_on_c, 6, 69, 0
14, 34140, Note_on_c, 6, 66, 48
14, 34199, Note_on_c, 6, 66, 0
14, 34200, Note_on_c, 6, 66, 48
14, 34259, Note_on_c, 6, 66, 0
14, 34260, Note_on_c, 6, 66, 48
14, 34319, Note_on_c, 6, 66, 0
14, 34380, Note_on_c, 6, 63, 48
14, 34439, Note_on_c, 6, 63, 0
14, 34440, Note_on_c, 6, 63, 48
14, 34499, Note_on_c, 6, 63, 0
14, 34500, Note_on_c, 6, 63, 48
14, 34559, Note_on_c, 6, 63, 0
14, 34620, Note_on_c, 6, 64, 48
14, 34679, Note_on_c, 6, 64, 0
14, 34680, Note_on_c, 6, 64, 48
14, 34739, Note_on_c, 6, 64, 0
14, 34740, Note_on_c, 6, 64, 48
14, 34799, Note_on_c, 6, 64, 0
14, 34860, Note_on_c, 6, 55, 48
14, 34919, Note_on_c, 6, 55, 0
14, 34920, Note_on_c, 6, 55, 48
14, 34979, Note_on_c, 6, 55, 0
14, 34980, Note_on_c, 6, 55, 48
14, 35039, Note_on_c, 6, 55, 0
14, 35100, Note_on_c, 6, 60, 48
14, 35159, Note_on_c, 6, 60, 0
14, 35160, Note_on_c, 6, 60, 48
14, 35219, Note_on_c, 6, 60, 0
14, 35220, Note_on_c, 6, 60, 48
14, 35279, Note_on_c, 6, 60, 0
14, 35340, Note_on_c, 6, 53, 48
14, 35399, Note_on_c, 6, 53, 0
14, 35400, Note_on_c, 6, 53, 48
14, 35459, Note_on_c, 6, 53, 0
14, 35460, Note_on_c, 6, 53, 48
14, 35519, Note_on_c, 6, 53, 0
14, 35580, Note_on_c, 6, 55, 48
14, 35639, Note_on_c, 6, 55, 0
14, 35640, Note_on_c, 6, 55, 48
14, 35699, Note_on_c, 6, 55, 0
14, 35700, Note_on_c, 6, 55, 48
14, 35759, Note_on_c, 6, 55, 0
14, 35820, Note_on_c, 6, 58, 48
14, 35879, Note_on_c, 6, 58, 0
14, 35880, Note_on_c, 6, 58, 48
14, 35939, Note_on_c, 6, 58, 0
14, 35940, Note_on_c, 6, 58, 48
14, 35999, Note_on_c, 6, 58, 0
14, 36060, Note_on_c, 6, 55, 48
14, 36119, Note_on_c, 6, 55, 0
14, 36120, Note_on_c, 6, 55, 48
14, 36179, Note_on_c, 6, 55, 0
14, 36180, Note_on_c, 6, 55, 48
14, 36239, Note_on_c, 6, 55, 0
14, 36300, Note_on_c, 6, 52, 48
14, 36359, Note_on_c, 6, 52, 0
14, 36360, Note_on_c, 6, 52, 48
14, 36419, Note_on_c, 6, 52, 0
14, 36420, Note_on_c, 6, 52, 48
14, 36479, Note_on_c, 6, 52, 0
14, 36540, Note_on_c, 6, 53, 48
14, 36599, Note_on_c, 6, 53, 0
14, 36600, Note_on_c, 6, 53, 48
14, 36659, Note_on_c, 6, 53, 0
14, 36660, Note_on_c, 6, 53, 48
14, 36719, Note_on_c, 6, 53, 0
14, 36780, Note_on_c, 6, 53, 48
14, 36839, Note_on_c, 6, 53, 0
14, 36840, Note_on_c, 6, 53, 48
14, 36899, Note_on_c, 6, 53, 0
14, 36900, Note_on_c, 6, 53, 48
14, 36959, Note_on_c, 6, 53, 0
14, 37020, Note_on_c, 6, 53, 48
14, 37079, Note_on_c, 6, 53, 0
14, 37080, Note_on_c, 6, 53, 48
14, 37139, Note_on_c, 6, 53, 0
14, 37140, Note_on_c, 6, 53, 48
14, 37199, Note_on_c, 6, 53, 0
14, 37260, Note_on_c, 6, 53, 48
14, 37319, Note_on_c, 6, 53, 0
14, 37320, Note_on_c, 6, 53, 48
14, 37379, Note_on_c, 6, 53, 0
14, 37380, Note_on_c, 6, 53, 48
14, 37439, Note_on_c, 6, 53, 0
14, 37440, Note_on_c, 6, 53, 48
14, 37679, Note_on_c, 6, 53, 0
14, 37920, Note_on_c, 6, 57, 48
14, 38159, Note_on_c, 6, 57, 0
14, 38159, End_track
15, 0, Start_track
15, 0, Title_t, "Cello"
15, 0, Program_c, 7, 48
15, 0, Control_c, 7, 7, 96
15, 0, Control_c, 7, 10, 96
15, 0, Control_c, 7, 11, 127
15, 0, Note_on_c, 7, 45, 72
15, 29, Note_on_c, 7, 45, 0
15, 30, Note_on_c, 7, 46, 72
15, 59, Note_on_c, 7, 46, 0
15, 60, Note_on_c, 7, 48, 72
15, 119, Note_on_c, 7, 48, 0
15, 120, Note_on_c, 7, 48, 72
15, 149, Note_on_c, 7, 48, 0
15, 180, Note_on_c, 7, 48, 72
15, 209, Note_on_c, 7, 48, 0
15, 240, Note_on_c, 7, 48, 72
15, 269, Note_on_c, 7, 48, 0
15, 270, Note_on_c, 7, 46, 72
15, 299, Note_on_c, 7, 46, 0
15, 300, Note_on_c, 7, 45, 72
15, 359, Note_on_c, 7, 45, 0
15, 360, Note_on_c, 7, 45, 72
15, 389, Note_on_c, 7, 45, 0
15, 420, Note_on_c, 7, 45, 72
15, 449, Note_on_c, 7, 45, 0
15, 480, Note_on_c, 7, 45, 72
15, 509, Note_on_c, 7, 45, 0
15, 510, Note_on_c, 7, 46, 72
15, 539, Note_on_c, 7, 46, 0
15, 540, Note_on_c, 7, 48, 72
15, 599, Note_on_c, 7, 48, 0
15, 600, Note_on_c, 7, 48, 72
15, 629, Note_on_c, 7, 48, 0
15, 660, Note_on_c, 7, 48, 72
15, 689, Note_on_c, 7, 48, 0
15, 720, Note_on_c, 7, 48, 72
15, 749, Note_on_c, 7, 48, 0
15, 750, Note_on_c, 7, 46, 72
15, 779, Note_on_c, 7, 46, 0
15, 780, Note_on_c, 7, 45, 72
15, 839, Note_on_c, 7, 45, 0
15, 840, Note_on_c, 7, 45, 72
15, 869, Note_on_c, 7, 45, 0
15, 900, Note_on_c, 7, 45, 72
15, 929, Note_on_c, 7, 45, 0
15, 960, Note_on_c, 7, 47, 72
15, 989, Note_on_c, 7, 47, 0
15, 990, Note_on_c, 7, 48, 72
15, 1019, Note_on_c, 7, 48, 0
15, 1020, Note_on_c, 7, 50, 72
15, 1079, Note_on_c, 7, 50, 0
15, 1080, Note_on_c, 7, 50, 72
15, 1109, Note_on_c, 7, 50, 0
15, 1140, Note_on_c, 7, 50, 72
15, 1169, Note_on_c, 7, 50, 0
15, 1200, Note_on_c, 7, 50, 72
15, 1229, Note_on_c, 7, 50, 0
15, 1230, Note_on_c, 7, 48, 72
15, 1259, Note_on_c, 7, 48, 0
15, 1260, Note_on_c, 7, 47, 72
15, 1319, Note_on_c, 7, 47, 0
15, 1320, Note_on_c, 7, 47, 72
15, 1349, Note_on_c, 7, 47, 0
15, 1380, Note_on_c, 7, 47, 72
15, 1409, Note_on_c, 7, 47, 0
15, 1440, Note_on_c, 7, 47, 72
15, 1469, Note_on_c, 7, 47, 0
15, 1470, Note_on_c, 7, 48, 72
15, 1499, Note_on_c, 7, 48, 0
15, 1500, Note_on_c, 7, 50, 72
15, 1559, Note_on_c, 7, 50, 0
15, 1560, Note_on_c, 7, 50, 72
15, 1589, Note_on_c, 7, 50, 0
15, 1620, Note_on_c, 7, 50, 72
15, 1649, Note_on_c, 7, 50, 0
15, 1680, Note_on_c, 7, 50, 72
15, 1709, Note_on_c, 7, 50, 0
15, 1710, Note_on_c, 7, 48, 72
15, 1739, Note_on_c, 7, 48, 0
15, 1740, Note_on_c, 7, 47, 72
15, 1799, Note_on_c, 7, 47, 0
15, 1800, Note_on_c, 7, 47, 72
15, 1829, Note_on_c, 7, 47, 0
15, 1860, Note_on_c, 7, 47, 72
15, 1889, Note_on_c, 7, 47, 0
15, 1920, Note_on_c, 7, 48, 72
15, 1949, Note_on_c, 7, 48, 0
15, 1950, Note_on_c, 7, 49, 72
15, 1979, Note_on_c, 7, 49, 0
15, 1980, Note_on_c, 7, 52, 72
15, 2039, Note_on_c, 7, 52, 0
15, 2040, Note_on_c, 7, 52, 72
15, 2069, Note_on_c, 7, 52, 0
15, 2100, Note_on_c, 7, 52, 72
15, 2129, Note_on_c, 7, 52, 0
15, 2160, Note_on_c, 7, 52, 72
15, 2189, Note_on_c, 7, 52, 0
15, 2190, Note_on_c, 7, 49, 72
15, 2219, Note_on_c, 7, 49, 0
15, 2220, Note_on_c, 7, 48, 72
15, 2279, Note_on_c, 7, 48, 0
15, 2280, Note_on_c, 7, 48, 72
15, 2309, Note_on_c, 7, 48, 0
15, 2340, Note_on_c, 7, 48, 72
15, 2369, Note_on_c, 7, 48, 0
15, 2400, Note_on_c, 7, 48, 72
15, 2429, Note_on_c, 7, 48, 0
15, 2430, Note_on_c, 7, 49, 72
15, 2459, Note_on_c, 7, 49, 0
15, 2460, Note_on_c, 7, 52, 72
15, 2519, Note_on_c, 7, 52, 0
15, 2520, Note_on_c, 7, 52, 72
15, 2549, Note_on_c, 7, 52, 0
15, 2580, Note_on_c, 7, 52, 72
15, 2609, Note_on_c, 7, 52, 0
15, 2640, Note_on_c, 7, 52, 72
15, 2669, Note_on_c, 7, 52, 0
15, 2670, Note_on_c, 7, 49, 72
15, 2699, Note_on_c, 7, 49, 0
15, 2700, Note_on_c, 7, 48, 72
15, 2759, Note_on_c, 7, 48, 0
15, 2760, Note_on_c, 7, 48, 72
15, 2789, Note_on_c, 7, 48, 0
15, 2820, Note_on_c, 7, 48, 72
15, 2849, Note_on_c, 7, 48, 0
15, 2880, Note_on_c, 7, 50, 72
15, 2909, Note_on_c, 7, 50, 0
15, 2910, Note_on_c, 7, 51, 72
15, 2939, Note_on_c, 7, 51, 0
15, 2940, Note_on_c, 7, 53, 72
15, 2999, Note_on_c, 7, 53, 0
15, 3000, Note_on_c, 7, 53, 72
15, 3029, Note_on_c, 7, 53, 0
15, 3060, Note_on_c, 7, 53, 72
15, 3089, Note_on_c, 7, 53, 0
15, 3120, Note_on_c, 7, 53, 72
15, 3149, Note_on_c, 7, 53, 0
15, 3150, Note_on_c, 7, 51, 72
15, 3179, Note_on_c, 7, 51, 0
15, 3180, Note_on_c, 7, 50, 72
15, 3239, Note_on_c, 7, 50, 0
15, 3240, Note_on_c, 7, 50, 72
15, 3269, Note_on_c, 7, 50, 0
15, 3300, Note_on_c, 7, 50, 72
15, 3329, Note_on_c, 7, 50, 0
15, 3360, Note_on_c, 7, 50, 72
15, 3389, Note_on_c, 7, 50, 0
15, 3390, Note_on_c, 7, 51, 72
15, 3419, Note_on_c, 7, 51, 0
15, 3420, Note_on_c, 7, 53, 72
15, 3479, Note_on_c, 7, 53, 0
15, 3480, Note_on_c, 7, 53, 72
15, 3509, Note_on_c, 7, 53, 0
15, 3540, Note_on_c, 7, 53, 72
15, 3569, Note_on_c, 7, 53, 0
15, 3600, Note_on_c, 7, 53, 72
15, 3629, Note_on_c, 7, 53, 0
15, 3630, Note_on_c, 7, 51, 72
15, 3659, Note_on_c, 7, 51, 0
15, 3660, Note_on_c, 7, 50, 72
15, 3719, Note_on_c, 7, 50, 0
15, 3720, Note_on_c, 7, 50, 72
15, 3749, Note_on_c, 7, 50, 0
15, 3780, Note_on_c, 7, 50, 72
15, 3809, Note_on_c, 7, 50, 0
15, 3840, Note_on_c, 7, 52, 72
15, 3869, Note_on_c, 7, 52, 0
15, 3870, Note_on_c, 7, 56, 72
15, 3899, Note_on_c, 7, 56, 0
15, 3900, Note_on_c, 7, 59, 72
15, 3959, Note_on_c, 7, 59, 0
15, 3960, Note_on_c, 7, 59, 72
15, 3989, Note_on_c, 7, 59, 0
15, 4020, Note_on_c, 7, 59, 72
15, 4049, Note_on_c, 7, 59, 0
15, 4080, Note_on_c, 7, 59, 72
15, 4109, Note_on_c, 7, 59, 0
15, 4110, Note_on_c, 7, 56, 72
15, 4139, Note_on_c, 7, 56, 0
15, 4140, Note_on_c, 7, 52, 72
15, 4199, Note_on_c, 7, 52, 0
15, 4200, Note_on_c, 7, 52, 72
15, 4229, Note_on_c, 7, 52, 0
15, 4260, Note_on_c, 7, 52, 72
15, 4289, Note_on_c, 7, 52, 0
15, 4320, Note_on_c, 7, 52, 72
15, 4349, Note_on_c, 7, 52, 0
15, 4350, Note_on_c, 7, 57, 72
15, 4379, Note_on_c, 7, 57, 0
15, 4380, Note_on_c, 7, 60, 72
15, 4439, Note_on_c, 7, 60, 0
15, 4440, Note_on_c, 7, 60, 72
15, 4469, Note_on_c, 7, 60, 0
15, 4500, Note_on_c, 7, 60, 72
15, 4529, Note_on_c, 7, 60, 0
15, 4560, Note_on_c, 7, 60, 72
15, 4589, Note_on_c, 7, 60, 0
15, 4590, Note_on_c, 7, 57, 72
15, 4619, Note_on_c, 7, 57, 0
15, 4620, Note_on_c, 7, 52, 72
15, 4679, Note_on_c, 7, 52, 0
15, 4680, Note_on_c, 7, 52, 72
15, 4709, Note_on_c, 7, 52, 0
15, 4740, Note_on_c, 7, 52, 72
15, 4769, Note_on_c, 7, 52, 0
15, 4800, Note_on_c, 7, 52, 72
15, 4919, Note_on_c, 7, 52, 0
15, 5040, Note_on_c, 7, 52, 48
15, 5159, Note_on_c, 7, 52, 0
15, 5280, Note_on_c, 7, 51, 48
15, 5399, Note_on_c, 7, 51, 0
15, 5520, Note_on_c, 7, 50, 48
15, 5639, Note_on_c, 7, 50, 0
15, 5760, Note_on_c, 7, 48, 48
15, 5999, Note_on_c, 7, 48, 0
15, 9120, Note_on_c, 7, 48, 72
15, 9149, Note_on_c, 7, 48, 0
15, 9150, Note_on_c, 7, 50, 72
15, 9179, Note_on_c, 7, 50, 0
15, 9180, Note_on_c, 7, 52, 72
15, 9239, Note_on_c, 7, 52, 0
15, 9240, Note_on_c, 7, 52, 72
15, 9269, Note_on_c, 7, 52, 0
15, 9300, Note_on_c, 7, 52, 72
15, 9329, Note_on_c, 7, 52, 0
15, 9360, Note_on_c, 7, 51, 72
15, 9389, Note_on_c, 7, 51, 0
15, 9390, Note_on_c, 7, 50, 72
15, 9419, Note_on_c, 7, 50, 0
15, 9420, Note_on_c, 7, 48, 72
15, 9479, Note_on_c, 7, 48, 0
15, 9480, Note_on_c, 7, 48, 72
15, 9509, Note_on_c, 7, 48, 0
15, 9540, Note_on_c, 7, 48, 72
15, 9569, Note_on_c, 7, 48, 0
15, 9600, Note_on_c, 7, 55, 72
15, 9629, Note_on_c, 7, 55, 0
15, 9630, Note_on_c, 7, 57, 72
15, 9659, Note_on_c, 7, 57, 0
15, 9660, Note_on_c, 7, 59, 72
15, 9719, Note_on_c, 7, 59, 0
15, 9720, Note_on_c, 7, 59, 72
15, 9749, Note_on_c, 7, 59, 0
15, 9780, Note_on_c, 7, 59, 72
15, 9809, Note_on_c, 7, 59, 0
15, 9840, Note_on_c, 7, 58, 72
15, 9869, Note_on_c, 7, 58, 0
15, 9870, Note_on_c, 7, 57, 72
15, 9899, Note_on_c, 7, 57, 0
15, 9900, Note_on_c, 7, 55, 72
15, 9959, Note_on_c, 7, 55, 0
15, 9960, Note_on_c, 7, 55, 72
15, 9989, Note_on_c, 7, 55, 0
15, 10020, Note_on_c, 7, 55, 72
15, 10049, Note_on_c, 7, 55, 0
15, 10080, Note_on_c, 7, 62, 72
15, 10109, Note_on_c, 7, 62, 0
15, 10110, Note_on_c, 7, 64, 72
15, 10139, Note_on_c, 7, 64, 0
15, 10140, Note_on_c, 7, 66, 72
15, 10199, Note_on_c, 7, 66, 0
15, 10200, Note_on_c, 7, 66, 72
15, 10229, Note_on_c, 7, 66, 0
15, 10260, Note_on_c, 7, 66, 72
15, 10289, Note_on_c, 7, 66, 0
15, 10320, Note_on_c, 7, 65, 72
15, 10349, Note_on_c, 7, 65, 0
15, 10350, Note_on_c, 7, 64, 72
15, 10379, Note_on_c, 7, 64, 0
15, 10380, Note_on_c, 7, 62, 72
15, 10439, Note_on_c, 7, 62, 0
15, 10440, Note_on_c, 7, 62, 72
15, 10469, Note_on_c, 7, 62, 0
15, 10500, Note_on_c, 7, 62, 72
15, 10529, Note_on_c, 7, 62, 0
15, 10560, Note_on_c, 7, 57, 72
15, 10589, Note_on_c, 7, 57, 0
15, 10590, Note_on_c, 7, 59, 72
15, 10619, Note_on_c, 7, 59, 0
15, 10620, Note_on_c, 7, 61, 72
15, 10679, Note_on_c, 7, 61, 0
15, 10680, Note_on_c, 7, 61, 72
15, 10709, Note_on_c, 7, 61, 0
15, 10740, Note_on_c, 7, 61, 72
15, 10769, Note_on_c, 7, 61, 0
15, 10800, Note_on_c, 7, 60, 72
15, 10829, Note_on_c, 7, 60, 0
15, 10830, Note_on_c, 7, 59, 72
15, 10859, Note_on_c, 7, 59, 0
15, 10860, Note_on_c, 7, 57, 72
15, 10919, Note_on_c, 7, 57, 0
15, 10920, Note_on_c, 7, 57, 72
15, 10949, Note_on_c, 7, 57, 0
15, 10980, Note_on_c, 7, 57, 72
15, 11009, Note_on_c, 7, 57, 0
15, 11040, Note_on_c, 7, 64, 72
15, 11069, Note_on_c, 7, 64, 0
15, 11070, Note_on_c, 7, 66, 72
15, 11099, Note_on_c, 7, 66, 0
15, 11100, Note_on_c, 7, 68, 72
15, 11159, Note_on_c, 7, 68, 0
15, 11160, Note_on_c, 7, 68, 72
15, 11189, Note_on_c, 7, 68, 0
15, 11220, Note_on_c, 7, 68, 72
15, 11249, Note_on_c, 7, 68, 0
15, 11280, Note_on_c, 7, 67, 72
15, 11309, Note_on_c, 7, 67, 0
15, 11310, Note_on_c, 7, 66, 72
15, 11339, Note_on_c, 7, 66, 0
15, 11340, Note_on_c, 7, 64, 72
15, 11399, Note_on_c, 7, 64, 0
15, 11400, Note_on_c, 7, 64, 72
15, 11429, Note_on_c, 7, 64, 0
15, 11460, Note_on_c, 7, 64, 72
15, 11489, Note_on_c, 7, 64, 0
15, 11520, Note_on_c, 7, 57, 72
15, 11549, Note_on_c, 7, 57, 0
15, 11550, Note_on_c, 7, 59, 72
15, 11579, Note_on_c, 7, 59, 0
15, 11580, Note_on_c, 7, 60, 72
15, 11639, Note_on_c, 7, 60, 0
15, 11640, Note_on_c, 7, 60, 72
15, 11669, Note_on_c, 7, 60, 0
15, 11700, Note_on_c, 7, 60, 72
15, 11729, Note_on_c, 7, 60, 0
15, 11760, Note_on_c, 7, 59, 72
15, 11789, Note_on_c, 7, 59, 0
15, 11790, Note_on_c, 7, 60, 72
15, 11819, Note_on_c, 7, 60, 0
15, 11820, Note_on_c, 7, 62, 72
15, 11879, Note_on_c, 7, 62, 0
15, 11880, Note_on_c, 7, 62, 72
15, 11909, Note_on_c, 7, 62, 0
15, 11940, Note_on_c, 7, 62, 72
15, 11969, Note_on_c, 7, 62, 0
15, 12000, Note_on_c, 7, 60, 72
15, 12029, Note_on_c, 7, 60, 0
15, 12030, Note_on_c, 7, 62, 72
15, 12059, Note_on_c, 7, 62, 0
15, 12060, Note_on_c, 7, 64, 72
15, 12119, Note_on_c, 7, 64, 0
15, 12120, Note_on_c, 7, 64, 72
15, 12149, Note_on_c, 7, 64, 0
15, 12180, Note_on_c, 7, 64, 72
15, 12209, Note_on_c, 7, 64, 0
15, 12240, Note_on_c, 7, 64, 72
15, 12269, Note_on_c, 7, 64, 0
15, 12270, Note_on_c, 7, 65, 72
15, 12299, Note_on_c, 7, 65, 0
15, 12300, Note_on_c, 7, 67, 72
15, 12359, Note_on_c, 7, 67, 0
15, 12360, Note_on_c, 7, 67, 72
15, 12389, Note_on_c, 7, 67, 0
15, 12420, Note_on_c, 7, 67, 72
15, 12449, Note_on_c, 7, 67, 0
15, 12480, Note_on_c, 7, 54, 72
15, 12509, Note_on_c, 7, 54, 0
15, 12510, Note_on_c, 7, 55, 72
15, 12539, Note_on_c, 7, 55, 0
15, 12540, Note_on_c, 7, 57, 72
15, 12599, Note_on_c, 7, 57, 0
15, 12600, Note_on_c, 7, 57, 72
15, 12629, Note_on_c, 7, 57, 0
15, 12660, Note_on_c, 7, 57, 72
15, 12689, Note_on_c, 7, 57, 0
15, 12720, Note_on_c, 7, 56, 72
15, 12749, Note_on_c, 7, 56, 0
15, 12750, Note_on_c, 7, 57, 72
15, 12779, Note_on_c, 7, 57, 0
15, 12780, Note_on_c, 7, 59, 72
15, 12839, Note_on_c, 7, 59, 0
15, 12840, Note_on_c, 7, 59, 72
15, 12869, Note_on_c, 7, 59, 0
15, 12900, Note_on_c, 7, 59, 72
15, 12929, Note_on_c, 7, 59, 0
15, 12960, Note_on_c, 7, 57, 72
15, 12989, Note_on_c, 7, 57, 0
15, 12990, Note_on_c, 7, 59, 72
15, 13019, Note_on_c, 7, 59, 0
15, 13020, Note_on_c, 7, 60, 72
15, 13079, Note_on_c, 7, 60, 0
15, 13080, Note_on_c, 7, 60, 72
15, 13109, Note_on_c, 7, 60, 0
15, 13140, Note_on_c, 7, 60, 72
15, 13169, Note_on_c, 7, 60, 0
15, 13200, Note_on_c, 7, 55, 72
15, 13229, Note_on_c, 7, 55, 0
15, 13230, Note_on_c, 7, 57, 72
15, 13259, Note_on_c, 7, 57, 0
15, 13260, Note_on_c, 7, 58, 72
15, 13319, Note_on_c, 7, 58, 0
15, 13320, Note_on_c, 7, 58, 72
15, 13349, Note_on_c, 7, 58, 0
15, 13380, Note_on_c, 7, 58, 72
15, 13409, Note_on_c, 7, 58, 0
15, 13440, Note_on_c, 7, 54, 72
15, 13469, Note_on_c, 7, 54, 0
15, 13470, Note_on_c, 7, 55, 72
15, 13499, Note_on_c, 7, 55, 0
15, 13500, Note_on_c, 7, 57, 72
15, 13559, Note_on_c, 7, 57, 0
15, 13560, Note_on_c, 7, 57, 72
15, 13589, Note_on_c, 7, 57, 0
15, 13620, Note_on_c, 7, 57, 72
15, 13649, Note_on_c, 7, 57, 0
15, 13680, Note_on_c, 7, 57, 72
15, 13709, Note_on_c, 7, 57, 0
15, 13710, Note_on_c, 7, 55, 72
15, 13739, Note_on_c, 7, 55, 0
15, 13740, Note_on_c, 7, 54, 72
15, 13799, Note_on_c, 7, 54, 0
15, 13800, Note_on_c, 7, 54, 72
15, 13829, Note_on_c, 7, 54, 0
15, 13860, Note_on_c, 7, 54, 72
15, 13889, Note_on_c, 7, 54, 0
15, 13920, Note_on_c, 7, 53, 72
15, 13949, Note_on_c, 7, 53, 0
15, 13950, Note_on_c, 7, 55, 72
15, 13979, Note_on_c, 7, 55, 0
15, 13980, Note_on_c, 7, 57, 72
15, 14039, Note_on_c, 7, 57, 0
15, 14040, Note_on_c, 7, 57, 72
15, 14069, Note_on_c, 7, 57, 0
15, 14100, Note_on_c, 7, 57, 72
15, 14129, Note_on_c, 7, 57, 0
15, 14160, Note_on_c, 7, 57, 72
15, 14189, Note_on_c, 7, 57, 0
15, 14190, Note_on_c, 7, 55, 72
15, 14219, Note_on_c, 7, 55, 0
15, 14220, Note_on_c, 7, 53, 72
15, 14279, Note_on_c, 7, 53, 0
15, 14280, Note_on_c, 7, 53, 72
15, 14309, Note_on_c, 7, 53, 0
15, 14340, Note_on_c, 7, 53, 72
15, 14369, Note_on_c, 7, 53, 0
15, 14400, Note_on_c, 7, 52, 72
15, 14519, Note_on_c, 7, 52, 0
15, 14640, Note_on_c, 7, 50, 48
15, 14759, Note_on_c, 7, 50, 0
15, 14880, Note_on_c, 7, 48, 48
15, 14999, Note_on_c, 7, 48, 0
15, 15120, Note_on_c, 7, 47, 48
15, 15239, Note_on_c, 7, 47, 0
15, 15360, Note_on_c, 7, 45, 48
15, 15599, Note_on_c, 7, 45, 0
15, 23040, Note_on_c, 7, 57, 48
15, 23159, Note_on_c, 7, 57, 0
15, 23280, Note_on_c, 7, 57, 48
15, 23399, Note_on_c, 7, 57, 0
15, 23520, Note_on_c, 7, 57, 48
15, 23639, Note_on_c, 7, 57, 0
15, 23760, Note_on_c, 7, 57, 48
15, 23879, Note_on_c, 7, 57, 0
15, 24000, Note_on_c, 7, 51, 48
15, 24119, Note_on_c, 7, 51, 0
15, 24240, Note_on_c, 7, 51, 48
15, 24359, Note_on_c, 7, 51, 0
15, 24480, Note_on_c, 7, 51, 48
15, 24599, Note_on_c, 7, 51, 0
15, 24720, Note_on_c, 7, 51, 48
15, 24839, Note_on_c, 7, 51, 0
15, 24960, Note_on_c, 7, 51, 48
15, 25079, Note_on_c, 7, 51, 0
15, 25200, Note_on_c, 7, 51, 48
15, 25319, Note_on_c, 7, 51, 0
15, 25440, Note_on_c, 7, 51, 48
15, 25559, Note_on_c, 7, 51, 0
15, 25680, Note_on_c, 7, 51, 48
15, 25799, Note_on_c, 7, 51, 0
15, 25920, Note_on_c, 7, 51, 48
15, 26039, Note_on_c, 7, 51, 0
15, 26160, Note_on_c, 7, 51, 48
15, 26279, Note_on_c, 7, 51, 0
15, 26400, Note_on_c, 7, 51, 48
15, 26519, Note_on_c, 7, 51, 0
15, 26640, Note_on_c, 7, 51, 48
15, 26759, Note_on_c, 7, 51, 0
15, 26880, Note_on_c, 7, 44, 48
15, 26999, Note_on_c, 7, 44, 0
15, 27120, Note_on_c, 7, 56, 48
15, 27239, Note_on_c, 7, 56, 0
15, 27360, Note_on_c, 7, 56, 48
15, 27479, Note_on_c, 7, 56, 0
15, 27600, Note_on_c, 7, 56, 48
15, 27719, Note_on_c, 7, 56, 0
15, 27840, Note_on_c, 7, 50, 48
15, 27959, Note_on_c, 7, 50, 0
15, 28080, Note_on_c, 7, 50, 48
15, 28199, Note_on_c, 7, 50, 0
15, 28320, Note_on_c, 7, 50, 48
15, 28439, Note_on_c, 7, 50, 0
15, 28560, Note_on_c, 7, 50, 48
15, 28679, Note_on_c, 7, 50, 0
15, 28800, Note_on_c, 7, 50, 48
15, 28919, Note_on_c, 7, 50, 0
15, 29040, Note_on_c, 7, 50, 48
15, 29159, Note_on_c, 7, 50, 0
15, 29280, Note_on_c, 7, 50, 48
15, 29399, Note_on_c, 7, 50, 0
15, 29520, Note_on_c, 7, 50, 48
15, 29639, Note_on_c, 7, 50, 0
15, 29760, Note_on_c, 7, 50, 48
15, 29879, Note_on_c, 7, 50, 0
15, 30000, Note_on_c, 7, 50, 48
15, 30119, Note_on_c, 7, 50, 0
15, 30240, Note_on_c, 7, 50, 48
15, 30359, Note_on_c, 7, 50, 0
15, 30480, Note_on_c, 7, 50, 48
15, 30599, Note_on_c, 7, 50, 0
15, 30720, Note_on_c, 7, 43, 48
15, 30839, Note_on_c, 7, 43, 0
15, 30960, Note_on_c, 7, 55, 48
15, 31079, Note_on_c, 7, 55, 0
15, 31200, Note_on_c, 7, 55, 48
15, 31319, Note_on_c, 7, 55, 0
15, 31440, Note_on_c, 7, 55, 48
15, 31559, Note_on_c, 7, 55, 0
15, 31680, Note_on_c, 7, 49, 48
15, 31799, Note_on_c, 7, 49, 0
15, 31920, Note_on_c, 7, 49, 48
15, 32039, Note_on_c, 7, 49, 0
15, 32160, Note_on_c, 7, 49, 48
15, 32279, Note_on_c, 7, 49, 0
15, 32400, Note_on_c, 7, 49, 48
15, 32519, Note_on_c, 7, 49, 0
15, 32640, Note_on_c, 7, 49, 48
15, 32759, Note_on_c, 7, 49, 0
15, 32880, Note_on_c, 7, 49, 48
15, 32999, Note_on_c, 7, 49, 0
15, 33120, Note_on_c, 7, 49, 48
15, 33239, Note_on_c, 7, 49, 0
15, 33360, Note_on_c, 7, 49, 48
15, 33479, Note_on_c, 7, 49, 0
15, 33600, Note_on_c, 7, 48, 48
15, 33719, Note_on_c, 7, 48, 0
15, 33840, Note_on_c, 7, 48, 48
15, 33959, Note_on_c, 7, 48, 0
15, 34080, Note_on_c, 7, 48, 48
15, 34199, Note_on_c, 7, 48, 0
15, 34320, Note_on_c, 7, 48, 48
15, 34439, Note_on_c, 7, 48, 0
15, 34560, Note_on_c, 7, 48, 48
15, 34679, Note_on_c, 7, 48, 0
15, 34800, Note_on_c, 7, 48, 48
15, 34919, Note_on_c, 7, 48, 0
15, 35040, Note_on_c, 7, 48, 48
15, 35159, Note_on_c, 7, 48, 0
15, 35280, Note_on_c, 7, 48, 48
15, 35399, Note_on_c, 7, 48, 0
15, 35520, Note_on_c, 7, 48, 48
15, 35639, Note_on_c, 7, 48, 0
15, 35760, Note_on_c, 7, 48, 48
15, 35879, Note_on_c, 7, 48, 0
15, 36000, Note_on_c, 7, 48, 48
15, 36119, Note_on_c, 7, 48, 0
15, 36240, Note_on_c, 7, 48, 48
15, 36359, Note_on_c, 7, 48, 0
15, 36480, Note_on_c, 7, 41, 48
15, 36599, Note_on_c, 7, 41, 0
15, 36720, Note_on_c, 7, 41, 48
15, 36839, Note_on_c, 7, 41, 0
15, 36960, Note_on_c, 7, 41, 48
15, 37079, Note_on_c, 7, 41, 0
15, 37200, Note_on_c, 7, 41, 48
15, 37319, Note_on_c, 7, 41, 0
15, 37440, Note_on_c, 7, 41, 48
15, 37679, Note_on_c, 7, 41, 0
15, 37920, Note_on_c, 7, 52, 48
15, 38159, Note_on_c, 7, 52, 0
15, 38159, End_track
16, 0, Start_track
16, 0, Title_t, "Contrabass"
16, 0, Program_c, 8, 48
16, 0, Control_c, 8, 7, 104
16, 0, Control_c, 8, 10, 112
16, 0, Control_c, 8, 11, 127
16, 0, Note_on_c, 8, 33, 72
16, 29, Note_on_c, 8, 33, 0
16, 30, Note_on_c, 8, 34, 72
16, 59, Note_on_c, 8, 34, 0
16, 60, Note_on_c, 8, 36, 72
16, 119, Note_on_c, 8, 36, 0
16, 120, Note_on_c, 8, 36, 72
16, 149, Note_on_c, 8, 36, 0
16, 180, Note_on_c, 8, 36, 72
16, 209, Note_on_c, 8, 36, 0
16, 240, Note_on_c, 8, 36, 72
16, 269, Note_on_c, 8, 36, 0
16, 270, Note_on_c, 8, 34, 72
16, 299, Note_on_c, 8, 34, 0
16, 300, Note_on_c, 8, 33, 72
16, 359, Note_on_c, 8, 33, 0
16, 360, Note_on_c, 8, 33, 72
16, 389, Note_on_c, 8, 33, 0
16, 420, Note_on_c, 8, 33, 72
16, 449, Note_on_c, 8, 33, 0
16, 480, Note_on_c, 8, 33, 72
16, 509, Note_on_c, 8, 33, 0
16, 510, Note_on_c, 8, 34, 72
16, 539, Note_on_c, 8, 34, 0
16, 540, Note_on_c, 8, 36, 72
16, 599, Note_on_c, 8, 36, 0
16, 600, Note_on_c, 8, 36, 72
16, 629, Note_on_c, 8, 36, 0
16, 660, Note_on_c, 8, 36, 72
16, 689, Note_on_c, 8, 36, 0
16, 720, Note_on_c, 8, 36, 72
16, 749, Note_on_c, 8, 36, 0
16, 750, Note_on_c, 8, 34, 72
16, 779, Note_on_c, 8, 34, 0
16, 780, Note_on_c, 8, 33, 72
16, 839, Note_on_c, 8, 33, 0
16, 840, Note_on_c, 8, 33, 72
16, 869, Note_on_c, 8, 33, 0
16, 900, Note_on_c, 8, 33, 72
16, 929, Note_on_c, 8, 33, 0
16, 960, Note_on_c, 8, 35, 72
16, 989, Note_on_c, 8, 35, 0
16, 990, Note_on_c, 8, 36, 72
16, 1019, Note_on_c, 8, 36, 0
16, 1020, Note_on_c, 8, 38, 72
16, 1079, Note_on_c, 8, 38, 0
16, 1080, Note_on_c, 8, 38, 72
16, 1109, Note_on_c, 8, 38, 0
16, 1140, Note_on_c, 8, 38, 72
16, 1169, Note_on_c, 8, 38, 0
16, 1200, Note_on_c, 8, 38, 72
16, 1229, Note_on_c, 8, 38, 0
16, 1230, Note_on_c, 8, 36, 72
16, 1259, Note_on_c, 8, 36, 0
16, 1260, Note_on_c, 8, 35, 72
16, 1319, Note_on_c, 8, 35, 0
16, 1320, Note_on_c, 8, 35, 72
16, 1349, Note_on_c, 8, 35, 0
16, 1380, Note_on_c, 8, 35, 72
16, 1409, Note_on_c, 8, 35, 0
16, 1440, Note_on_c, 8, 35, 72
16, 1469, Note_on_c, 8, 35, 0
16, 1470, Note_on_c, 8, 36, 72
16, 1499, Note_on_c, 8, 36, 0
16, 1500, Note_on_c, 8, 38, 72
16, 1559, Note_on_c, 8, 38, 0
16, 1560, Note_on_c, 8, 38, 72
16, 1589, Note_on_c, 8, 38, 0
16, 1620, Note_on_c, 8, 38, 72
16, 1649, Note_on_c, 8, 38, 0
16, 1680, Note_on_c, 8, 38, 72
16, 1709, Note_on_c, 8, 38, 0
16, 1710, Note_on_c, 8, 36, 72
16, 1739, Note_on_c, 8, 36, 0
16, 1740, Note_on_c, 8, 35, 72
16, 1799, Note_on_c, 8, 35, 0
16, 1800, Note_on_c, 8, 35, 72
16, 1829, Note_on_c, 8, 35, 0
16, 1860, Note_on_c, 8, 35, 72
16, 1889, Note_on_c, 8, 35, 0
16, 1920, Note_on_c, 8, 36, 72
16, 1949, Note_on_c, 8, 36, 0
16, 1950, Note_on_c, 8, 37, 72
16, 1979, Note_on_c, 8, 37, 0
16, 1980, Note_on_c, 8, 40, 72
16, 2039, Note_on_c, 8, 40, 0
16, 2040, Note_on_c, 8, 40, 72
16, 2069, Note_on_c, 8, 40, 0
16, 2100, Note_on_c, 8, 40, 72
16, 2129, Note_on_c, 8, 40, 0
16, 2160, Note_on_c, 8, 40, 72
16, 2189, Note_on_c, 8, 40, 0
16, 2190, Note_on_c, 8, 37, 72
16, 2219, Note_on_c, 8, 37, 0
16, 2220, Note_on_c, 8, 36, 72
16, 2279, Note_on_c, 8, 36, 0
16, 2280, Note_on_c, 8, 36, 72
16, 2309, Note_on_c, 8, 36, 0
16, 2340, Note_on_c, 8, 36, 72
16, 2369, Note_on_c, 8, 36, 0
16, 2400, Note_on_c, 8, 36, 72
16, 2429, Note_on_c, 8, 36, 0
16, 2430, Note_on_c, 8, 37, 72
16, 2459, Note_on_c, 8, 37, 0
16, 2460, Note_on_c, 8, 40, 72
16, 2519, Note_on_c, 8, 40, 0
16, 2520, Note_on_c, 8, 40, 72
16, 2549, Note_on_c, 8, 40, 0
16, 2580, Note_on_c, 8, 40, 72
16, 2609, Note_on_c, 8, 40, 0
16, 2640, Note_on_c, 8, 40, 72
16, 2669, Note_on_c, 8, 40, 0
16, 2670, Note_on_c, 8, 37, 72
16, 2699, Note_on_c, 8, 37, 0
16, 2700, Note_on_c, 8, 36, 72
16, 2759, Note_on_c, 8, 36, 0
16, 2760, Note_on_c, 8, 36, 72
16, 2789, Note_on_c, 8, 36, 0
16, 2820, Note_on_c, 8, 36, 72
16, 2849, Note_on_c, 8, 36, 0
16, 2880, Note_on_c, 8, 38, 72
16, 2909, Note_on_c, 8, 38, 0
16, 2910, Note_on_c, 8, 39, 72
16, 2939, Note_on_c, 8, 39, 0
16, 2940, Note_on_c, 8, 41, 72
16, 2999, Note_on_c, 8, 41, 0
16, 3000, Note_on_c, 8, 41, 72
16, 3029, Note_on_c, 8, 41, 0
16, 3060, Note_on_c, 8, 41, 72
16, 3089, Note_on_c, 8, 41, 0
16, 3120, Note_on_c, 8, 41, 72
16, 3149, Note_on_c, 8, 41, 0
16, 3150, Note_on_c, 8, 39, 72
16, 3179, Note_on_c, 8, 39, 0
16, 3180, Note_on_c, 8, 38, 72
16, 3239, Note_on_c, 8, 38, 0
16, 3240, Note_on_c, 8, 38, 72
16, 3269, Note_on_c, 8, 38, 0
16, 3300, Note_on_c, 8, 38, 72
16, 3329, Note_on_c, 8, 38, 0
16, 3360, Note_on_c, 8, 38, 72
16, 3389, Note_on_c, 8, 38, 0
16, 3390, Note_on_c, 8, 39, 72
16, 3419, Note_on_c, 8, 39, 0
16, 3420, Note_on_c, 8, 41, 72
16, 3479, Note_on_c, 8, 41, 0
16, 3480, Note_on_c, 8, 41, 72
16, 3509, Note_on_c, 8, 41, 0
16, 3540, Note_on_c, 8, 41, 72
16, 3569, Note_on_c, 8, 41, 0
16, 3600, Note_on_c, 8, 41, 72
16, 3629, Note_on_c, 8, 41, 0
16, 3630, Note_on_c, 8, 39, 72
16, 3659, Note_on_c, 8, 39, 0
16, 3660, Note_on_c, 8, 38, 72
16, 3719, Note_on_c, 8, 38, 0
16, 3720, Note_on_c, 8, 38, 72
16, 3749, Note_on_c, 8, 38, 0
16, 3780, Note_on_c, 8, 38, 72
16, 3809, Note_on_c, 8, 38, 0
16, 3840, Note_on_c, 8, 40, 72
16, 3869, Note_on_c, 8, 40, 0
16, 3870, Note_on_c, 8, 44, 72
16, 3899, Note_on_c, 8, 44, 0
16, 3900, Note_on_c, 8, 47, 72
16, 3959, Note_on_c, 8, 47, 0
16, 3960, Note_on_c, 8, 47, 72
16, 3989, Note_on_c, 8, 47, 0
16, 4020, Note_on_c, 8, 47, 72
16, 4049, Note_on_c, 8, 47, 0
16, 4080, Note_on_c, 8, 47, 72
16, 4109, Note_on_c, 8, 47, 0
16, 4110, Note_on_c, 8, 44, 72
16, 4139, Note_on_c, 8, 44, 0
16, 4140, Note_on_c, 8, 40, 72
16, 4199, Note_on_c, 8, 40, 0
16, 4200, Note_on_c, 8, 40, 72
16, 4229, Note_on_c, 8, 40, 0
16, 4260, Note_on_c, 8, 40, 72
16, 4289, Note_on_c, 8, 40, 0
16, 4320, Note_on_c, 8, 40, 72
16, 4349, Note_on_c, 8, 40, 0
16, 4350, Note_on_c, 8, 45, 72
16, 4379, Note_on_c, 8, 45, 0
16, 4380, Note_on_c, 8, 48, 72
16, 4439, Note_on_c, 8, 48, 0
16, 4440, Note_on_c, 8, 48, 72
16, 4469, Note_on_c, 8, 48, 0
16, 4500, Note_on_c, 8, 48, 72
16, 4529, Note_on_c, 8, 48, 0
16, 4560, Note_on_c, 8, 48, 72
16, 4589, Note_on_c, 8, 48, 0
16, 4590, Note_on_c, 8, 45, 72
16, 4619, Note_on_c, 8, 45, 0
16, 4620, Note_on_c, 8, 40, 72
16, 4679, Note_on_c, 8, 40, 0
16, 4680, Note_on_c, 8, 40, 72
16, 4709, Note_on_c, 8, 40, 0
16, 4740, Note_on_c, 8, 40, 72
16, 4769, Note_on_c, 8, 40, 0
16, 4800, Note_on_c, 8, 40, 72
16, 4919, Note_on_c, 8, 40, 0
16, 5040, Note_on_c, 8, 40, 48
16, 5159, Note_on_c, 8, 40, 0
16, 5280, Note_on_c, 8, 39, 48
16, 5399, Note_on_c, 8, 39, 0
16, 5520, Note_on_c, 8, 38, 48
16, 5639, Note_on_c, 8, 38, 0
16, 5760, Note_on_c, 8, 36, 48
16, 5999, Note_on_c, 8, 36, 0
16, 9120, Note_on_c, 8, 36, 72
16, 9149, Note_on_c, 8, 36, 0
16, 9150, Note_on_c, 8, 38, 72
16, 9179, Note_on_c, 8, 38, 0
16, 9180, Note_on_c, 8, 40, 72
16, 9239, Note_on_c, 8, 40, 0
16, 9240, Note_on_c, 8, 40, 72
16, 9269, Note_on_c, 8, 40, 0
16, 9300, Note_on_c, 8, 40, 72
16, 9329, Note_on_c, 8, 40, 0
16, 9360, Note_on_c, 8, 39, 72
16, 9389, Note_on_c, 8, 39, 0
16, 9390, Note_on_c, 8, 38, 72
16, 9419, Note_on_c, 8, 38, 0
16, 9420, Note_on_c, 8, 36, 72
16, 9479, Note_on_c, 8, 36, 0
16, 9480, Note_on_c, 8, 36, 72
16, 9509, Note_on_c, 8, 36, 0
16, 9540, Note_on_c, 8, 36, 72
16, 9569, Note_on_c, 8, 36, 0
16, 9600, Note_on_c, 8, 43, 72
16, 9629, Note_on_c, 8, 43, 0
16, 9630, Note_on_c, 8, 45, 72
16, 9659, Note_on_c, 8, 45, 0
16, 9660, Note_on_c, 8, 47, 72
16, 9719, Note_on_c, 8, 47, 0
16, 9720, Note_on_c, 8, 47, 72
16, 9749, Note_on_c, 8, 47, 0
16, 9780, Note_on_c, 8, 47, 72
16, 9809, Note_on_c, 8, 47, 0
16, 9840, Note_on_c, 8, 46, 72
16, 9869, Note_on_c, 8, 46, 0
16, 9870, Note_on_c, 8, 45, 72
16, 9899, Note_on_c, 8, 45, 0
16, 9900, Note_on_c, 8, 43, 72
16, 9959, Note_on_c, 8, 43, 0
16, 9960, Note_on_c, 8, 43, 72
16, 9989, Note_on_c, 8, 43, 0
16, 10020, Note_on_c, 8, 43, 72
16, 10049, Note_on_c, 8, 43, 0
16, 10080, Note_on_c, 8, 50, 72
16, 10109, Note_on_c, 8, 50, 0
16, 10110, Note_on_c, 8, 52, 72
16, 10139, Note_on_c, 8, 52, 0
16, 10140, Note_on_c, 8, 54, 72
16, 10199, Note_on_c, 8, 54, 0
16, 10200, Note_on_c, 8, 54, 72
16, 10229, Note_on_c, 8, 54, 0
16, 10260, Note_on_c, 8, 54, 72
16, 10289, Note_on_c, 8, 54, 0
16, 10320, Note_on_c, 8, 53, 72
16, 10349, Note_on_c, 8, 53, 0
16, 10350, Note_on_c, 8, 52, 72
16, 10379, Note_on_c, 8, 52, 0
16, 10380, Note_on_c, 8, 50, 72
16, 10439, Note_on_c, 8, 50, 0
16, 10440, Note_on_c, 8, 50, 72
16, 10469, Note_on_c, 8, 50, 0
16, 10500, Note_on_c, 8, 50, 72
16, 10529, Note_on_c, 8, 50, 0
16, 10560, Note_on_c, 8, 45, 72
16, 10589, Note_on_c, 8, 45, 0
16, 10590, Note_on_c, 8, 47, 72
16, 10619, Note_on_c, 8, 47, 0
16, 10620, Note_on_c, 8, 49, 72
16, 10679, Note_on_c, 8, 49, 0
16, 10680, Note_on_c, 8, 49, 72
16, 10709, Note_on_c, 8, 49, 0
16, 10740, Note_on_c, 8, 49, 72
16, 10769, Note_on_c, 8, 49, 0
16, 10800, Note_on_c, 8, 48, 72
16, 10829, Note_on_c, 8, 48, 0
16, 10830, Note_on_c, 8, 47, 72
16, 10859, Note_on_c, 8, 47, 0
16, 10860, Note_on_c, 8, 45, 72
16, 10919, Note_on_c, 8, 45, 0
16, 10920, Note_on_c, 8, 45, 72
16, 10949, Note_on_c, 8, 45, 0
16, 10980, Note_on_c, 8, 45, 72
16, 11009, Note_on_c, 8, 45, 0
16, 11040, Note_on_c, 8, 52, 72
16, 11069, Note_on_c, 8, 52, 0
16, 11070, Note_on_c, 8, 54, 72
16, 11099, Note_on_c, 8, 54, 0
16, 11100, Note_on_c, 8, 56, 72
16, 11159, Note_on_c, 8, 56, 0
16, 11160, Note_on_c, 8, 56, 72
16, 11189, Note_on_c, 8, 56, 0
16, 11220, Note_on_c, 8, 56, 72
16, 11249, Note_on_c, 8, 56, 0
16, 11280, Note_on_c, 8, 55, 72
16, 11309, Note_on_c, 8, 55, 0
16, 11310, Note_on_c, 8, 54, 72
16, 11339, Note_on_c, 8, 54, 0
16, 11340, Note_on_c, 8, 52, 72
16, 11399, Note_on_c, 8, 52, 0
16, 11400, Note_on_c, 8, 52, 72
16, 11429, Note_on_c, 8, 52, 0
16, 11460, Note_on_c, 8, 52, 72
16, 11489, Note_on_c, 8, 52, 0
16, 11520, Note_on_c, 8, 45, 72
16, 11549, Note_on_c, 8, 45, 0
16, 11550, Note_on_c, 8, 47, 72
16, 11579, Note_on_c, 8, 47, 0
16, 11580, Note_on_c, 8, 48, 72
16, 11639, Note_on_c, 8, 48, 0
16, 11640, Note_on_c, 8, 48, 72
16, 11669, Note_on_c, 8, 48, 0
16, 11700, Note_on_c, 8, 48, 72
16, 11729, Note_on_c, 8, 48, 0
16, 11760, Note_on_c, 8, 47, 72
16, 11789, Note_on_c, 8, 47, 0
16, 11790, Note_on_c, 8, 48, 72
16, 11819, Note_on_c, 8, 48, 0
16, 11820, Note_on_c, 8, 50, 72
16, 11879, Note_on_c, 8, 50, 0
16, 11880, Note_on_c, 8, 50, 72
16, 11909, Note_on_c, 8, 50, 0
16, 11940, Note_on_c, 8, 50, 72
16, 11969, Note_on_c, 8, 50, 0
16, 12000, Note_on_c, 8, 48, 72
16, 12029, Note_on_c, 8, 48, 0
16, 12030, Note_on_c, 8, 50, 72
16, 12059, Note_on_c, 8, 50, 0
16, 12060, Note_on_c, 8, 52, 72
16, 12119, Note_on_c, 8, 52, 0
16, 12120, Note_on_c, 8, 52, 72
16, 12149, Note_on_c, 8, 52, 0
16, 12180, Note_on_c, 8, 52, 72
16, 12209, Note_on_c, 8, 52, 0
16, 12240, Note_on_c, 8, 52, 72
16, 12269, Note_on_c, 8, 52, 0
16, 12270, Note_on_c, 8, 53, 72
16, 12299, Note_on_c, 8, 53, 0
16, 12300, Note_on_c, 8, 55, 72
16, 12359, Note_on_c, 8, 55, 0
16, 12360, Note_on_c, 8, 55, 72
16, 12389, Note_on_c, 8, 55, 0
16, 12420, Note_on_c, 8, 55, 72
16, 12449, Note_on_c, 8, 55, 0
16, 12480, Note_on_c, 8, 42, 72
16, 12509, Note_on_c, 8, 42, 0
16, 12510, Note_on_c, 8, 43, 72
16, 12539, Note_on_c, 8, 43, 0
16, 12540, Note_on_c, 8, 45, 72
16, 12599, Note_on_c, 8, 45, 0
16, 12600, Note_on_c, 8, 45, 72
16, 12629, Note_on_c, 8, 45, 0
16, 12660, Note_on_c, 8, 45, 72
16, 12689, Note_on_c, 8, 45, 0
16, 12720, Note_on_c, 8, 44, 72
16, 12749, Note_on_c, 8, 44, 0
16, 12750, Note_on_c, 8, 45, 72
16, 12779, Note_on_c, 8, 45, 0
16, 12780, Note_on_c, 8, 47, 72
16, 12839, Note_on_c, 8, 47, 0
16, 12840, Note_on_c, 8, 47, 72
16, 12869, Note_on_c, 8, 47, 0
16, 12900, Note_on_c, 8, 47, 72
16, 12929, Note_on_c, 8, 47, 0
16, 12960, Note_on_c, 8, 45, 72
16, 12989, Note_on_c, 8, 45, 0
16, 12990, Note_on_c, 8, 47, 72
16, 13019, Note_on_c, 8, 47, 0
16, 13020, Note_on_c, 8, 48, 72
16, 13079, Note_on_c, 8, 48, 0
16, 13080, Note_on_c, 8, 48, 72
16, 13109, Note_on_c, 8, 48, 0
16, 13140, Note_on_c, 8, 48, 72
16, 13169, Note_on_c, 8, 48, 0
16, 13200, Note_on_c, 8, 43, 72
16, 13229, Note_on_c, 8, 43, 0
16, 13230, Note_on_c, 8, 45, 72
16, 13259, Note_on_c, 8, 45, 0
16, 13260, Note_on_c, 8, 46, 72
16, 13319, Note_on_c, 8, 46, 0
16, 13320, Note_on_c, 8, 46, 72
16, 13349, Note_on_c, 8, 46, 0
16, 13380, Note_on_c, 8, 46, 72
16, 13409, Note_on_c, 8, 46, 0
16, 13440, Note_on_c, 8, 42, 72
16, 13469, Note_on_c, 8, 42, 0
16, 13470, Note_on_c, 8, 43, 72
16, 13499, Note_on_c, 8, 43, 0
16, 13500, Note_on_c, 8, 45, 72
16, 13559, Note_on_c, 8, 45, 0
16, 13560, Note_on_c, 8, 45, 72
16, 13589, Note_on_c, 8, 45, 0
16, 13620, Note_on_c, 8, 45, 72
16, 13649, Note_on_c, 8, 45, 0
16, 13680, Note_on_c, 8, 45, 72
16, 13709, Note_on_c, 8, 45, 0
16, 13710, Note_on_c, 8, 43, 72
16, 13739, Note_on_c, 8, 43, 0
16, 13740, Note_on_c, 8, 42, 72
16, 13799, Note_on_c, 8, 42, 0
16, 13800, Note_on_c, 8, 42, 72
16, 13829, Note_on_c, 8, 42, 0
16, 13860, Note_on_c, 8, 42, 72
16, 13889, Note_on_c, 8, 42, 0
16, 13920, Note_on_c, 8, 41, 72
16, 13949, Note_on_c, 8, 41, 0
16, 13950, Note_on_c, 8, 43, 72
16, 13979, Note_on_c, 8, 43, 0
16, 13980, Note_on_c, 8, 45, 72
16, 14039, Note_on_c, 8, 45, 0
16, 14040, Note_on_c, 8, 45, 72
16, 14069, Note_on_c, 8, 45, 0
16, 14100, Note_on_c, 8, 45, 72
16, 14129, Note_on_c, 8, 45, 0
16, 14160, Note_on_c, 8, 45, 72
16, 14189, Note_on_c, 8, 45, 0
16, 14190, Note_on_c, 8, 43, 72
16, 14219, Note_on_c, 8, 43, 0
16, 14220, Note_on_c, 8, 41, 72
16, 14279, Note_on_c, 8, 41, 0
16, 14280, Note_on_c, 8, 41, 72
16, 14309, Note_on_c, 8, 41, 0
16, 14340, Note_on_c, 8, 41, 72
16, 14369, Note_on_c, 8, 41, 0
16, 14400, Note_on_c, 8, 40, 72
16, 14519, Note_on_c, 8, 40, 0
16, 14640, Note_on_c, 8, 38, 48
16, 14759, Note_on_c, 8, 38, 0
16, 14880, Note_on_c, 8, 36, 48
16, 14999, Note_on_c, 8, 36, 0
16, 15120, Note_on_c, 8, 35, 48
16, 15239, Note_on_c, 8, 35, 0
16, 15360, Note_on_c, 8, 33, 48
16, 15599, Note_on_c, 8, 33, 0
16, 23040, Note_on_c, 8, 45, 48
16, 23159, Note_on_c, 8, 45, 0
16, 23280, Note_on_c, 8, 45, 48
16, 23399, Note_on_c, 8, 45, 0
16, 23520, Note_on_c, 8, 45, 48
16, 23639, Note_on_c, 8, 45, 0
16, 23760, Note_on_c, 8, 45, 48
16, 23879, Note_on_c, 8, 45, 0
16, 24000, Note_on_c, 8, 39, 48
16, 24119, Note_on_c, 8, 39, 0
16, 24240, Note_on_c, 8, 39, 48
16, 24359, Note_on_c, 8, 39, 0
16, 24480, Note_on_c, 8, 39, 48
16, 24599, Note_on_c, 8, 39, 0
16, 24720, Note_on_c, 8, 39, 48
16, 24839, Note_on_c, 8, 39, 0
16, 24960, Note_on_c, 8, 39, 48
16, 25079, Note_on_c, 8, 39, 0
16, 25200, Note_on_c, 8, 39, 48
16, 25319, Note_on_c, 8, 39, 0
16, 25440, Note_on_c, 8, 39, 48
16, 25559, Note_on_c, 8, 39, 0
16, 25680, Note_on_c, 8, 39, 48
16, 25799, Note_on_c, 8, 39, 0
16, 25920, Note_on_c, 8, 39, 48
16, 26039, Note_on_c, 8, 39, 0
16, 26160, Note_on_c, 8, 39, 48
16, 26279, Note_on_c, 8, 39, 0
16, 26400, Note_on_c, 8, 39, 48
16, 26519, Note_on_c, 8, 39, 0
16, 26640, Note_on_c, 8, 39, 48
16, 26759, Note_on_c, 8, 39, 0
16, 26880, Note_on_c, 8, 32, 48
16, 26999, Note_on_c, 8, 32, 0
16, 27120, Note_on_c, 8, 44, 48
16, 27239, Note_on_c, 8, 44, 0
16, 27360, Note_on_c, 8, 44, 48
16, 27479, Note_on_c, 8, 44, 0
16, 27600, Note_on_c, 8, 44, 48
16, 27719, Note_on_c, 8, 44, 0
16, 27840, Note_on_c, 8, 38, 48
16, 27959, Note_on_c, 8, 38, 0
16, 28080, Note_on_c, 8, 38, 48
16, 28199, Note_on_c, 8, 38, 0
16, 28320, Note_on_c, 8, 38, 48
16, 28439, Note_on_c, 8, 38, 0
16, 28560, Note_on_c, 8, 38, 48
16, 28679, Note_on_c, 8, 38, 0
16, 28800, Note_on_c, 8, 38, 48
16, 28919, Note_on_c, 8, 38, 0
16, 29040, Note_on_c, 8, 38, 48
16, 29159, Note_on_c, 8, 38, 0
16, 29280, Note_on_c, 8, 38, 48
16, 29399, Note_on_c, 8, 38, 0
16, 29520, Note_on_c, 8, 38, 48
16, 29639, Note_on_c, 8, 38, 0
16, 29760, Note_on_c, 8, 38, 48
16, 29879, Note_on_c, 8, 38, 0
16, 30000, Note_on_c, 8, 38, 48
16, 30119, Note_on_c, 8, 38, 0
16, 30240, Note_on_c, 8, 38, 48
16, 30359, Note_on_c, 8, 38, 0
16, 30480, Note_on_c, 8, 38, 48
16, 30599, Note_on_c, 8, 38, 0
16, 30720, Note_on_c, 8, 31, 48
16, 30839, Note_on_c, 8, 31, 0
16, 30960, Note_on_c, 8, 43, 48
16, 31079, Note_on_c, 8, 43, 0
16, 31200, Note_on_c, 8, 43, 48
16, 31319, Note_on_c, 8, 43, 0
16, 31440, Note_on_c, 8, 43, 48
16, 31559, Note_on_c, 8, 43, 0
16, 31680, Note_on_c, 8, 37, 48
16, 31799, Note_on_c, 8, 37, 0
16, 31920, Note_on_c, 8, 37, 48
16, 32039, Note_on_c, 8, 37, 0
16, 32160, Note_on_c, 8, 37, 48
16, 32279, Note_on_c, 8, 37, 0
16, 32400, Note_on_c, 8, 37, 48
16, 32519, Note_on_c, 8, 37, 0
16, 32640, Note_on_c, 8, 37, 48
16, 32759, Note_on_c, 8, 37, 0
16, 32880, Note_on_c, 8, 37, 48
16, 32999, Note_on_c, 8, 37, 0
16, 33120, Note_on_c, 8, 37, 48
16, 33239, Note_on_c, 8, 37, 0
16, 33360, Note_on_c, 8, 37, 48
16, 33479, Note_on_c, 8, 37, 0
16, 33600, Note_on_c, 8, 36, 48
16, 33719, Note_on_c, 8, 36, 0
16, 33840, Note_on_c, 8, 36, 48
16, 33959, Note_on_c, 8, 36, 0
16, 34080, Note_on_c, 8, 36, 48
16, 34199, Note_on_c, 8, 36, 0
16, 34320, Note_on_c, 8, 36, 48
16, 34439, Note_on_c, 8, 36, 0
16, 34560, Note_on_c, 8, 36, 48
16, 34679, Note_on_c, 8, 36, 0
16, 34800, Note_on_c, 8, 36, 48
16, 34919, Note_on_c, 8, 36, 0
16, 35040, Note_on_c, 8, 36, 48
16, 35159, Note_on_c, 8, 36, 0
16, 35280, Note_on_c, 8, 36, 48
16, 35399, Note_on_c, 8, 36, 0
16, 35520, Note_on_c, 8, 36, 48
16, 35639, Note_on_c, 8, 36, 0
16, 35760, Note_on_c, 8, 36, 48
16, 35879, Note_on_c, 8, 36, 0
16, 36000, Note_on_c, 8, 36, 48
16, 36119, Note_on_c, 8, 36, 0
16, 36240, Note_on_c, 8, 36, 48
16, 36359, Note_on_c, 8, 36, 0
16, 36480, Note_on_c, 8, 29, 48
16, 36599, Note_on_c, 8, 29, 0
16, 36720, Note_on_c, 8, 29, 48
16, 36839, Note_on_c, 8, 29, 0
16, 36960, Note_on_c, 8, 29, 48
16, 37079, Note_on_c, 8, 29, 0
16, 37200, Note_on_c, 8, 29, 48
16, 37319, Note_on_c, 8, 29, 0
16, 37440, Note_on_c, 8, 29, 48
16, 37679, Note_on_c, 8, 29, 0
16, 37920, Note_on_c, 8, 40, 48
16, 38159, Note_on_c, 8, 40, 0
16, 38159, End_track
17, 0, Start_track
17, 0, Title_t, "Soprano "
17, 0, Program_c, 10, 52
17, 0, Control_c, 10, 7, 96
17, 0, Control_c, 10, 10, 24
17, 0, Control_c, 10, 11, 127
17, 5760, Note_on_c, 10, 76, 52
17, 6599, Note_on_c, 10, 76, 0
17, 6600, Note_on_c, 10, 76, 52
17, 6719, Note_on_c, 10, 76, 0
17, 6720, Note_on_c, 10, 77, 52
17, 7079, Note_on_c, 10, 77, 0
17, 7080, Note_on_c, 10, 77, 52
17, 7199, Note_on_c, 10, 77, 0
17, 7200, Note_on_c, 10, 76, 52
17, 7439, Note_on_c, 10, 76, 0
17, 7680, Note_on_c, 10, 76, 52
17, 8039, Note_on_c, 10, 76, 0
17, 8040, Note_on_c, 10, 76, 52
17, 8159, Note_on_c, 10, 76, 0
17, 8160, Note_on_c, 10, 76, 52
17, 8279, Note_on_c, 10, 76, 0
17, 8280, Note_on_c, 10, 76, 52
17, 8399, Note_on_c, 10, 76, 0
17, 8400, Note_on_c, 10, 76, 52
17, 8519, Note_on_c, 10, 76, 0
17, 8520, Note_on_c, 10, 76, 52
17, 8639, Note_on_c, 10, 76, 0
17, 8640, Note_on_c, 10, 77, 52
17, 9119, Note_on_c, 10, 77, 0
17, 9120, Note_on_c, 10, 76, 52
17, 9359, Note_on_c, 10, 76, 0
17, 15360, Note_on_c, 10, 72, 52
17, 16199, Note_on_c, 10, 72, 0
17, 16200, Note_on_c, 10, 72, 52
17, 16319, Note_on_c, 10, 72, 0
17, 16320, Note_on_c, 10, 74, 52
17, 16679, Note_on_c, 10, 74, 0
17, 16680, Note_on_c, 10, 74, 52
17, 16799, Note_on_c, 10, 74, 0
17, 16800, Note_on_c, 10, 72, 52
17, 16919, Note_on_c, 10, 72, 0
17, 16920, Note_on_c, 10, 73, 52
17, 17039, Note_on_c, 10, 73, 0
17, 17040, Note_on_c, 10, 74, 52
17, 17159, Note_on_c, 10, 74, 0
17, 17160, Note_on_c, 10, 76, 52
17, 17279, Note_on_c, 10, 76, 0
17, 17280, Note_on_c, 10, 77, 52
17, 17519, Note_on_c, 10, 77, 0
17, 17520, Note_on_c, 10, 77, 52
17, 17639, Note_on_c, 10, 77, 0
17, 17640, Note_on_c, 10, 77, 52
17, 17759, Note_on_c, 10, 77, 0
17, 17760, Note_on_c, 10, 77, 52
17, 17999, Note_on_c, 10, 77, 0
17, 18000, Note_on_c, 10, 77, 52
17, 18239, Note_on_c, 10, 77, 0
17, 18240, Note_on_c, 10, 79, 52
17, 18719, Note_on_c, 10, 79, 0
17, 18720, Note_on_c, 10, 77, 52
17, 18959, Note_on_c, 10, 77, 0
17, 18960, Note_on_c, 10, 77, 52
17, 19559, Note_on_c, 10, 77, 0
17, 19560, Note_on_c, 10, 77, 52
17, 19679, Note_on_c, 10, 77, 0
17, 19680, Note_on_c, 10, 76, 52
17, 19919, Note_on_c, 10, 76, 0
17, 20160, Note_on_c, 10, 76, 52
17, 20519, Note_on_c, 10, 76, 0
17, 20520, Note_on_c, 10, 76, 52
17, 20639, Note_on_c, 10, 76, 0
17, 20640, Note_on_c, 10, 74, 52
17, 20879, Note_on_c, 10, 74, 0
17, 21120, Note_on_c, 10, 74, 52
17, 21479, Note_on_c, 10, 74, 0
17, 21480, Note_on_c, 10, 74, 52
17, 21599, Note_on_c, 10, 74, 0
17, 21600, Note_on_c, 10, 72, 52
17, 21719, Note_on_c, 10, 72, 0
17, 21720, Note_on_c, 10, 72, 52
17, 21839, Note_on_c, 10, 72, 0
17, 21840, Note_on_c, 10, 74, 52
17, 21959, Note_on_c, 10, 74, 0
17, 21960, Note_on_c, 10, 74, 52
17, 22079, Note_on_c, 10, 74, 0
17, 22080, Note_on_c, 10, 74, 52
17, 22319, Note_on_c, 10, 74, 0
17, 22320, Note_on_c, 10, 72, 52
17, 22559, Note_on_c, 10, 72, 0
17, 22560, Note_on_c, 10, 71, 52
17, 23039, Note_on_c, 10, 71, 0
17, 23040, Note_on_c, 10, 72, 52
17, 23279, Note_on_c, 10, 72, 0
17, 24480, Note_on_c, 10, 69, 52
17, 24719, Note_on_c, 10, 69, 0
17, 24720, Note_on_c, 10, 69, 52
17, 24959, Note_on_c, 10, 69, 0
17, 24960, Note_on_c, 10, 70, 52
17, 25199, Note_on_c, 10, 70, 0
17, 25200, Note_on_c, 10, 70, 52
17, 25439, Note_on_c, 10, 70, 0
17, 25440, Note_on_c, 10, 70, 52
17, 25679, Note_on_c, 10, 70, 0
17, 25680, Note_on_c, 10, 70, 52
17, 25919, Note_on_c, 10, 70, 0
17, 25920, Note_on_c, 10, 70, 52
17, 26159, Note_on_c, 10, 70, 0
17, 26160, Note_on_c, 10, 68, 52
17, 26639, Note_on_c, 10, 68, 0
17, 26640, Note_on_c, 10, 67, 52
17, 26879, Note_on_c, 10, 67, 0
17, 26880, Note_on_c, 10, 68, 52
17, 27119, Note_on_c, 10, 68, 0
17, 28320, Note_on_c, 10, 68, 52
17, 28559, Note_on_c, 10, 68, 0
17, 28560, Note_on_c, 10, 68, 52
17, 28799, Note_on_c, 10, 68, 0
17, 28800, Note_on_c, 10, 69, 52
17, 29039, Note_on_c, 10, 69, 0
17, 29040, Note_on_c, 10, 69, 52
17, 29279, Note_on_c, 10, 69, 0
17, 29280, Note_on_c, 10, 69, 52
17, 29519, Note_on_c, 10, 69, 0
17, 29520, Note_on_c, 10, 69, 52
17, 29759, Note_on_c, 10, 69, 0
17, 29760, Note_on_c, 10, 69, 52
17, 29999, Note_on_c, 10, 69, 0
17, 30000, Note_on_c, 10, 67, 52
17, 30479, Note_on_c, 10, 67, 0
17, 30480, Note_on_c, 10, 66, 52
17, 30719, Note_on_c, 10, 66, 0
17, 32160, Note_on_c, 10, 67, 52
17, 32399, Note_on_c, 10, 67, 0
17, 32400, Note_on_c, 10, 67, 52
17, 32639, Note_on_c, 10, 67, 0
17, 32640, Note_on_c, 10, 68, 52
17, 33119, Note_on_c, 10, 68, 0
17, 33120, Note_on_c, 10, 66, 52
17, 33359, Note_on_c, 10, 66, 0
17, 34080, Note_on_c, 10, 66, 52
17, 34319, Note_on_c, 10, 66, 0
17, 34320, Note_on_c, 10, 66, 52
17, 34559, Note_on_c, 10, 66, 0
17, 34560, Note_on_c, 10, 67, 52
17, 34799, Note_on_c, 10, 67, 0
17, 34800, Note_on_c, 10, 67, 52
17, 35039, Note_on_c, 10, 67, 0
17, 35040, Note_on_c, 10, 65, 52
17, 35279, Note_on_c, 10, 65, 0
17, 35280, Note_on_c, 10, 65, 52
17, 35519, Note_on_c, 10, 65, 0
17, 35520, Note_on_c, 10, 65, 52
17, 35999, Note_on_c, 10, 65, 0
17, 36000, Note_on_c, 10, 64, 52
17, 36479, Note_on_c, 10, 64, 0
17, 36480, Note_on_c, 10, 65, 52
17, 36719, Note_on_c, 10, 65, 0
17, 36719, End_track
18, 0, Start_track
18, 0, Title_t, "Alto "
18, 0, Program_c, 11, 52
18, 0, Control_c, 11, 7, 96
18, 0, Control_c, 11, 10, 96
18, 0, Control_c, 11, 11, 127
18, 5760, Note_on_c, 11, 72, 48
18, 6599, Note_on_c, 11, 72, 0
18, 6600, Note_on_c, 11, 72, 48
18, 6719, Note_on_c, 11, 72, 0
18, 6720, Note_on_c, 11, 72, 48
18, 6959, Note_on_c, 11, 72, 0
18, 6960, Note_on_c, 11, 71, 48
18, 7079, Note_on_c, 11, 71, 0
18, 7080, Note_on_c, 11, 71, 48
18, 7199, Note_on_c, 11, 71, 0
18, 7200, Note_on_c, 11, 72, 48
18, 7439, Note_on_c, 11, 72, 0
18, 7680, Note_on_c, 11, 72, 48
18, 8039, Note_on_c, 11, 72, 0
18, 8040, Note_on_c, 11, 72, 48
18, 8159, Note_on_c, 11, 72, 0
18, 8160, Note_on_c, 11, 72, 48
18, 8279, Note_on_c, 11, 72, 0
18, 8280, Note_on_c, 11, 72, 48
18, 8399, Note_on_c, 11, 72, 0
18, 8400, Note_on_c, 11, 72, 48
18, 8519, Note_on_c, 11, 72, 0
18, 8520, Note_on_c, 11, 72, 48
18, 8639, Note_on_c, 11, 72, 0
18, 8640, Note_on_c, 11, 72, 48
18, 8879, Note_on_c, 11, 72, 0
18, 8880, Note_on_c, 11, 71, 48
18, 9119, Note_on_c, 11, 71, 0
18, 9120, Note_on_c, 11, 72, 48
18, 9359, Note_on_c, 11, 72, 0
18, 15360, Note_on_c, 11, 69, 52
18, 16199, Note_on_c, 11, 69, 0
18, 16200, Note_on_c, 11, 69, 52
18, 16319, Note_on_c, 11, 69, 0
18, 16320, Note_on_c, 11, 69, 52
18, 16559, Note_on_c, 11, 69, 0
18, 16560, Note_on_c, 11, 68, 52
18, 16679, Note_on_c, 11, 68, 0
18, 16680, Note_on_c, 11, 68, 52
18, 16799, Note_on_c, 11, 68, 0
18, 16800, Note_on_c, 11, 69, 52
18, 17039, Note_on_c, 11, 69, 0
18, 17280, Note_on_c, 11, 69, 52
18, 17639, Note_on_c, 11, 69, 0
18, 17640, Note_on_c, 11, 69, 52
18, 17759, Note_on_c, 11, 69, 0
18, 17760, Note_on_c, 11, 74, 52
18, 17879, Note_on_c, 11, 74, 0
18, 17880, Note_on_c, 11, 74, 52
18, 17999, Note_on_c, 11, 74, 0
18, 18000, Note_on_c, 11, 74, 52
18, 18119, Note_on_c, 11, 74, 0
18, 18120, Note_on_c, 11, 74, 52
18, 18239, Note_on_c, 11, 74, 0
18, 18240, Note_on_c, 11, 74, 52
18, 18479, Note_on_c, 11, 74, 0
18, 18480, Note_on_c, 11, 73, 52
18, 18719, Note_on_c, 11, 73, 0
18, 18720, Note_on_c, 11, 74, 52
18, 18959, Note_on_c, 11, 74, 0
18, 19440, Note_on_c, 11, 71, 52
18, 20039, Note_on_c, 11, 71, 0
18, 20040, Note_on_c, 11, 71, 52
18, 20159, Note_on_c, 11, 71, 0
18, 20160, Note_on_c, 11, 69, 52
18, 20399, Note_on_c, 11, 69, 0
18, 20640, Note_on_c, 11, 69, 52
18, 20999, Note_on_c, 11, 69, 0
18, 21000, Note_on_c, 11, 69, 52
18, 21119, Note_on_c, 11, 69, 0
18, 21120, Note_on_c, 11, 68, 52
18, 21359, Note_on_c, 11, 68, 0
18, 21360, Note_on_c, 11, 68, 52
18, 21599, Note_on_c, 11, 68, 0
18, 21600, Note_on_c, 11, 69, 52
18, 21839, Note_on_c, 11, 69, 0
18, 21840, Note_on_c, 11, 69, 52
18, 22079, Note_on_c, 11, 69, 0
18, 22080, Note_on_c, 11, 68, 52
18, 22319, Note_on_c, 11, 68, 0
18, 22320, Note_on_c, 11, 69, 52
18, 22799, Note_on_c, 11, 69, 0
18, 22800, Note_on_c, 11, 68, 52
18, 23039, Note_on_c, 11, 68, 0
18, 23040, Note_on_c, 11, 69, 52
18, 23279, Note_on_c, 11, 69, 0
18, 24480, Note_on_c, 11, 66, 52
18, 24719, Note_on_c, 11, 66, 0
18, 24720, Note_on_c, 11, 66, 52
18, 24959, Note_on_c, 11, 66, 0
18, 24960, Note_on_c, 11, 67, 52
18, 25199, Note_on_c, 11, 67, 0
18, 25200, Note_on_c, 11, 67, 52
18, 25439, Note_on_c, 11, 67, 0
18, 25440, Note_on_c, 11, 67, 52
18, 25679, Note_on_c, 11, 67, 0
18, 25680, Note_on_c, 11, 67, 52
18, 25919, Note_on_c, 11, 67, 0
18, 25920, Note_on_c, 11, 63, 52
18, 26879, Note_on_c, 11, 63, 0
18, 26880, Note_on_c, 11, 63, 52
18, 27119, Note_on_c, 11, 63, 0
18, 28320, Note_on_c, 11, 65, 52
18, 28559, Note_on_c, 11, 65, 0
18, 28560, Note_on_c, 11, 65, 52
18, 28799, Note_on_c, 11, 65, 0
18, 28800, Note_on_c, 11, 66, 52
18, 29039, Note_on_c, 11, 66, 0
18, 29040, Note_on_c, 11, 66, 52
18, 29279, Note_on_c, 11, 66, 0
18, 29280, Note_on_c, 11, 66, 52
18, 29519, Note_on_c, 11, 66, 0
18, 29520, Note_on_c, 11, 66, 52
18, 29759, Note_on_c, 11, 66, 0
18, 29760, Note_on_c, 11, 62, 52
18, 30719, Note_on_c, 11, 62, 0
18, 30720, Note_on_c, 11, 62, 52
18, 30959, Note_on_c, 11, 62, 0
18, 32160, Note_on_c, 11, 64, 52
18, 32399, Note_on_c, 11, 64, 0
18, 32400, Note_on_c, 11, 64, 52
18, 32639, Note_on_c, 11, 64, 0
18, 32640, Note_on_c, 11, 65, 52
18, 33119, Note_on_c, 11, 65, 0
18, 33120, Note_on_c, 11, 66, 52
18, 33359, Note_on_c, 11, 66, 0
18, 34080, Note_on_c, 11, 63, 52
18, 34319, Note_on_c, 11, 63, 0
18, 34320, Note_on_c, 11, 63, 52
18, 34559, Note_on_c, 11, 63, 0
18, 34560, Note_on_c, 11, 64, 52
18, 34799, Note_on_c, 11, 64, 0
18, 34800, Note_on_c, 11, 64, 52
18, 35039, Note_on_c, 11, 64, 0
18, 35040, Note_on_c, 11, 65, 52
18, 35279, Note_on_c, 11, 65, 0
18, 35280, Note_on_c, 11, 60, 52
18, 35519, Note_on_c, 11, 60, 0
18, 35520, Note_on_c, 11, 60, 52
18, 36479, Note_on_c, 11, 60, 0
18, 36480, Note_on_c, 11, 60, 52
18, 36719, Note_on_c, 11, 60, 0
18, 36719, End_track
19, 0, Start_track
19, 0, Title_t, "Tenor "
19, 0, Program_c, 12, 52
19, 0, Control_c, 12, 7, 104
19, 0, Control_c, 12, 10, 48
19, 0, Control_c, 12, 11, 127
19, 720, Note_on_c, 12, 60, 88
19, 899, Note_on_c, 12, 60, 0
19, 900, Note_on_c, 12, 57, 88
19, 959, Note_on_c, 12, 57, 0
19, 960, Note_on_c, 12, 62, 88
19, 1199, Note_on_c, 12, 62, 0
19, 1200, Note_on_c, 12, 56, 88
19, 1439, Note_on_c, 12, 56, 0
19, 1680, Note_on_c, 12, 62, 88
19, 1859, Note_on_c, 12, 62, 0
19, 1860, Note_on_c, 12, 59, 88
19, 1919, Note_on_c, 12, 59, 0
19, 1920, Note_on_c, 12, 64, 88
19, 2159, Note_on_c, 12, 64, 0
19, 2160, Note_on_c, 12, 57, 88
19, 2399, Note_on_c, 12, 57, 0
19, 3120, Note_on_c, 12, 65, 88
19, 3299, Note_on_c, 12, 65, 0
19, 3300, Note_on_c, 12, 64, 88
19, 3359, Note_on_c, 12, 64, 0
19, 3360, Note_on_c, 12, 62, 88
19, 3539, Note_on_c, 12, 62, 0
19, 3540, Note_on_c, 12, 60, 88
19, 3599, Note_on_c, 12, 60, 0
19, 3600, Note_on_c, 12, 59, 88
19, 3779, Note_on_c, 12, 59, 0
19, 3780, Note_on_c, 12, 57, 88
19, 3839, Note_on_c, 12, 57, 0
19, 3840, Note_on_c, 12, 56, 88
19, 4019, Note_on_c, 12, 56, 0
19, 4020, Note_on_c, 12, 52, 88
19, 4079, Note_on_c, 12, 52, 0
19, 4080, Note_on_c, 12, 62, 88
19, 4259, Note_on_c, 12, 62, 0
19, 4260, Note_on_c, 12, 62, 88
19, 4319, Note_on_c, 12, 62, 0
19, 4320, Note_on_c, 12, 63, 88
19, 4499, Note_on_c, 12, 63, 0
19, 4500, Note_on_c, 12, 63, 88
19, 4559, Note_on_c, 12, 63, 0
19, 4560, Note_on_c, 12, 63, 88
19, 4739, Note_on_c, 12, 63, 0
19, 4740, Note_on_c, 12, 63, 88
19, 4799, Note_on_c, 12, 63, 0
19, 4800, Note_on_c, 12, 64, 88
19, 5039, Note_on_c, 12, 64, 0
19, 5040, Note_on_c, 12, 52, 88
19, 5279, Note_on_c, 12, 52, 0
19, 9840, Note_on_c, 12, 62, 88
19, 10019, Note_on_c, 12, 62, 0
19, 10020, Note_on_c, 12, 67, 88
19, 10079, Note_on_c, 12, 67, 0
19, 10080, Note_on_c, 12, 66, 88
19, 10319, Note_on_c, 12, 66, 0
19, 10320, Note_on_c, 12, 62, 88
19, 10559, Note_on_c, 12, 62, 0
19, 10800, Note_on_c, 12, 64, 88
19, 10979, Note_on_c, 12, 64, 0
19, 10980, Note_on_c, 12, 69, 88
19, 11039, Note_on_c, 12, 69, 0
19, 11040, Note_on_c, 12, 68, 88
19, 11279, Note_on_c, 12, 68, 0
19, 11280, Note_on_c, 12, 64, 88
19, 11519, Note_on_c, 12, 64, 0
19, 11520, Note_on_c, 12, 65, 88
19, 11879, Note_on_c, 12, 65, 0
19, 11880, Note_on_c, 12, 67, 88
19, 11999, Note_on_c, 12, 67, 0
19, 12000, Note_on_c, 12, 64, 88
19, 12179, Note_on_c, 12, 64, 0
19, 12180, Note_on_c, 12, 64, 88
19, 12239, Note_on_c, 12, 64, 0
19, 12240, Note_on_c, 12, 64, 88
19, 12419, Note_on_c, 12, 64, 0
19, 12420, Note_on_c, 12, 65, 88
19, 12479, Note_on_c, 12, 65, 0
19, 12480, Note_on_c, 12, 62, 88
19, 12659, Note_on_c, 12, 62, 0
19, 12660, Note_on_c, 12, 62, 88
19, 12719, Note_on_c, 12, 62, 0
19, 12720, Note_on_c, 12, 62, 88
19, 12899, Note_on_c, 12, 62, 0
19, 12900, Note_on_c, 12, 64, 88
19, 12959, Note_on_c, 12, 64, 0
19, 12960, Note_on_c, 12, 60, 88
19, 13139, Note_on_c, 12, 60, 0
19, 13140, Note_on_c, 12, 60, 88
19, 13199, Note_on_c, 12, 60, 0
19, 13200, Note_on_c, 12, 58, 88
19, 13379, Note_on_c, 12, 58, 0
19, 13380, Note_on_c, 12, 58, 88
19, 13439, Note_on_c, 12, 58, 0
19, 13440, Note_on_c, 12, 57, 88
19, 13619, Note_on_c, 12, 57, 0
19, 13620, Note_on_c, 12, 57, 88
19, 13679, Note_on_c, 12, 57, 0
19, 13680, Note_on_c, 12, 62, 88
19, 13859, Note_on_c, 12, 62, 0
19, 13860, Note_on_c, 12, 62, 88
19, 13919, Note_on_c, 12, 62, 0
19, 13920, Note_on_c, 12, 63, 88
19, 14099, Note_on_c, 12, 63, 0
19, 14100, Note_on_c, 12, 63, 88
19, 14159, Note_on_c, 12, 63, 0
19, 14160, Note_on_c, 12, 63, 88
19, 14339, Note_on_c, 12, 63, 0
19, 14340, Note_on_c, 12, 63, 88
19, 14399, Note_on_c, 12, 63, 0
19, 14400, Note_on_c, 12, 64, 88
19, 14639, Note_on_c, 12, 64, 0
19, 14640, Note_on_c, 12, 52, 88
19, 14879, Note_on_c, 12, 52, 0
19, 24480, Note_on_c, 12, 60, 52
19, 24719, Note_on_c, 12, 60, 0
19, 24720, Note_on_c, 12, 60, 52
19, 24959, Note_on_c, 12, 60, 0
19, 24960, Note_on_c, 12, 61, 52
19, 25199, Note_on_c, 12, 61, 0
19, 25200, Note_on_c, 12, 61, 52
19, 25439, Note_on_c, 12, 61, 0
19, 25440, Note_on_c, 12, 61, 52
19, 25679, Note_on_c, 12, 61, 0
19, 25680, Note_on_c, 12, 61, 52
19, 25919, Note_on_c, 12, 61, 0
19, 25920, Note_on_c, 12, 59, 52
19, 26399, Note_on_c, 12, 59, 0
19, 26400, Note_on_c, 12, 58, 52
19, 26879, Note_on_c, 12, 58, 0
19, 26880, Note_on_c, 12, 56, 52
19, 27119, Note_on_c, 12, 56, 0
19, 28320, Note_on_c, 12, 59, 52
19, 28559, Note_on_c, 12, 59, 0
19, 28560, Note_on_c, 12, 59, 52
19, 28799, Note_on_c, 12, 59, 0
19, 28800, Note_on_c, 12, 60, 52
19, 29039, Note_on_c, 12, 60, 0
19, 29040, Note_on_c, 12, 60, 52
19, 29279, Note_on_c, 12, 60, 0
19, 29280, Note_on_c, 12, 60, 52
19, 29519, Note_on_c, 12, 60, 0
19, 29520, Note_on_c, 12, 60, 52
19, 29759, Note_on_c, 12, 60, 0
19, 29760, Note_on_c, 12, 58, 52
19, 30239, Note_on_c, 12, 58, 0
19, 30240, Note_on_c, 12, 57, 52
19, 30719, Note_on_c, 12, 57, 0
19, 30720, Note_on_c, 12, 55, 52
19, 30959, Note_on_c, 12, 55, 0
19, 32160, Note_on_c, 12, 58, 52
19, 32399, Note_on_c, 12, 58, 0
19, 32400, Note_on_c, 12, 58, 52
19, 32639, Note_on_c, 12, 58, 0
19, 32640, Note_on_c, 12, 59, 52
19, 33119, Note_on_c, 12, 59, 0
19, 33120, Note_on_c, 12, 57, 52
19, 33359, Note_on_c, 12, 57, 0
19, 34080, Note_on_c, 12, 57, 52
19, 34319, Note_on_c, 12, 57, 0
19, 34320, Note_on_c, 12, 57, 52
19, 34559, Note_on_c, 12, 57, 0
19, 34560, Note_on_c, 12, 58, 52
19, 34799, Note_on_c, 12, 58, 0
19, 34800, Note_on_c, 12, 58, 52
19, 35039, Note_on_c, 12, 58, 0
19, 35040, Note_on_c, 12, 56, 52
19, 35279, Note_on_c, 12, 56, 0
19, 35280, Note_on_c, 12, 56, 52
19, 35519, Note_on_c, 12, 56, 0
19, 35520, Note_on_c, 12, 55, 52
19, 36479, Note_on_c, 12, 55, 0
19, 36480, Note_on_c, 12, 53, 52
19, 36719, Note_on_c, 12, 53, 0
19, 36719, End_track
20, 0, Start_track
20, 0, Title_t, "Bass "
20, 0, Program_c, 13, 52
20, 0, Control_c, 13, 7, 104
20, 0, Control_c, 13, 10, 80
20, 0, Control_c, 13, 11, 127
20, 240, Note_on_c, 13, 57, 88
20, 419, Note_on_c, 13, 57, 0
20, 420, Note_on_c, 13, 52, 88
20, 479, Note_on_c, 13, 52, 0
20, 480, Note_on_c, 13, 60, 88
20, 719, Note_on_c, 13, 60, 0
20, 720, Note_on_c, 13, 57, 88
20, 959, Note_on_c, 13, 57, 0
20, 1200, Note_on_c, 13, 59, 88
20, 1379, Note_on_c, 13, 59, 0
20, 1380, Note_on_c, 13, 52, 88
20, 1439, Note_on_c, 13, 52, 0
20, 1440, Note_on_c, 13, 62, 88
20, 1679, Note_on_c, 13, 62, 0
20, 1680, Note_on_c, 13, 56, 88
20, 1919, Note_on_c, 13, 56, 0
20, 2160, Note_on_c, 13, 64, 88
20, 2339, Note_on_c, 13, 64, 0
20, 2340, Note_on_c, 13, 62, 88
20, 2399, Note_on_c, 13, 62, 0
20, 2400, Note_on_c, 13, 60, 88
20, 2579, Note_on_c, 13, 60, 0
20, 2580, Note_on_c, 13, 59, 88
20, 2639, Note_on_c, 13, 59, 0
20, 2640, Note_on_c, 13, 57, 88
20, 2819, Note_on_c, 13, 57, 0
20, 2820, Note_on_c, 13, 55, 88
20, 2879, Note_on_c, 13, 55, 0
20, 2880, Note_on_c, 13, 53, 88
20, 3119, Note_on_c, 13, 53, 0
20, 3120, Note_on_c, 13, 50, 88
20, 3359, Note_on_c, 13, 50, 0
20, 3600, Note_on_c, 13, 62, 88
20, 3779, Note_on_c, 13, 62, 0
20, 3780, Note_on_c, 13, 62, 88
20, 3839, Note_on_c, 13, 62, 0
20, 3840, Note_on_c, 13, 62, 88
20, 4019, Note_on_c, 13, 62, 0
20, 4020, Note_on_c, 13, 52, 88
20, 4079, Note_on_c, 13, 52, 0
20, 4080, Note_on_c, 13, 56, 88
20, 4259, Note_on_c, 13, 56, 0
20, 4260, Note_on_c, 13, 52, 88
20, 4319, Note_on_c, 13, 52, 0
20, 4320, Note_on_c, 13, 60, 88
20, 4499, Note_on_c, 13, 60, 0
20, 4500, Note_on_c, 13, 57, 88
20, 4559, Note_on_c, 13, 57, 0
20, 4560, Note_on_c, 13, 60, 88
20, 4739, Note_on_c, 13, 60, 0
20, 4740, Note_on_c, 13, 57, 88
20, 4799, Note_on_c, 13, 57, 0
20, 4800, Note_on_c, 13, 56, 88
20, 5039, Note_on_c, 13, 56, 0
20, 5040, Note_on_c, 13, 52, 88
20, 5279, Note_on_c, 13, 52, 0
20, 9360, Note_on_c, 13, 55, 88
20, 9539, Note_on_c, 13, 55, 0
20, 9540, Note_on_c, 13, 60, 88
20, 9599, Note_on_c, 13, 60, 0
20, 9600, Note_on_c, 13, 59, 88
20, 9839, Note_on_c, 13, 59, 0
20, 9840, Note_on_c, 13, 55, 88
20, 10079, Note_on_c, 13, 55, 0
20, 10320, Note_on_c, 13, 57, 88
20, 10499, Note_on_c, 13, 57, 0
20, 10500, Note_on_c, 13, 62, 88
20, 10559, Note_on_c, 13, 62, 0
20, 10560, Note_on_c, 13, 61, 88
20, 10799, Note_on_c, 13, 61, 0
20, 10800, Note_on_c, 13, 57, 88
20, 11039, Note_on_c, 13, 57, 0
20, 11280, Note_on_c, 13, 59, 88
20, 11459, Note_on_c, 13, 59, 0
20, 11460, Note_on_c, 13, 64, 88
20, 11519, Note_on_c, 13, 64, 0
20, 11520, Note_on_c, 13, 64, 88
20, 11699, Note_on_c, 13, 64, 0
20, 11700, Note_on_c, 13, 57, 88
20, 11759, Note_on_c, 13, 57, 0
20, 11760, Note_on_c, 13, 62, 88
20, 11939, Note_on_c, 13, 62, 0
20, 11940, Note_on_c, 13, 62, 88
20, 11999, Note_on_c, 13, 62, 0
20, 12000, Note_on_c, 13, 62, 88
20, 12179, Note_on_c, 13, 62, 0
20, 12180, Note_on_c, 13, 55, 88
20, 12239, Note_on_c, 13, 55, 0
20, 12240, Note_on_c, 13, 60, 88
20, 12419, Note_on_c, 13, 60, 0
20, 12420, Note_on_c, 13, 60, 88
20, 12479, Note_on_c, 13, 60, 0
20, 12480, Note_on_c, 13, 60, 88
20, 12659, Note_on_c, 13, 60, 0
20, 12660, Note_on_c, 13, 54, 88
20, 12719, Note_on_c, 13, 54, 0
20, 12720, Note_on_c, 13, 59, 88
20, 12899, Note_on_c, 13, 59, 0
20, 12900, Note_on_c, 13, 59, 88
20, 12959, Note_on_c, 13, 59, 0
20, 12960, Note_on_c, 13, 57, 88
20, 13139, Note_on_c, 13, 57, 0
20, 13140, Note_on_c, 13, 57, 88
20, 13199, Note_on_c, 13, 57, 0
20, 13200, Note_on_c, 13, 61, 88
20, 13379, Note_on_c, 13, 61, 0
20, 13380, Note_on_c, 13, 61, 88
20, 13439, Note_on_c, 13, 61, 0
20, 13440, Note_on_c, 13, 62, 88
20, 13619, Note_on_c, 13, 62, 0
20, 13620, Note_on_c, 13, 62, 88
20, 13679, Note_on_c, 13, 62, 0
20, 13680, Note_on_c, 13, 57, 88
20, 13859, Note_on_c, 13, 57, 0
20, 13860, Note_on_c, 13, 59, 88
20, 13919, Note_on_c, 13, 59, 0
20, 13920, Note_on_c, 13, 60, 88
20, 14099, Note_on_c, 13, 60, 0
20, 14100, Note_on_c, 13, 60, 88
20, 14159, Note_on_c, 13, 60, 0
20, 14160, Note_on_c, 13, 59, 88
20, 14339, Note_on_c, 13, 59, 0
20, 14340, Note_on_c, 13, 57, 88
20, 14399, Note_on_c, 13, 57, 0
20, 14400, Note_on_c, 13, 56, 88
20, 14639, Note_on_c, 13, 56, 0
20, 14640, Note_on_c, 13, 52, 88
20, 14879, Note_on_c, 13, 52, 0
20, 24000, Note_on_c, 13, 51, 52
20, 24719, Note_on_c, 13, 51, 0
20, 24720, Note_on_c, 13, 51, 52
20, 24959, Note_on_c, 13, 51, 0
20, 24960, Note_on_c, 13, 51, 52
20, 25199, Note_on_c, 13, 51, 0
20, 25200, Note_on_c, 13, 51, 52
20, 25439, Note_on_c, 13, 51, 0
20, 25440, Note_on_c, 13, 51, 52
20, 25679, Note_on_c, 13, 51, 0
20, 25680, Note_on_c, 13, 51, 52
20, 25919, Note_on_c, 13, 51, 0
20, 25920, Note_on_c, 13, 51, 52
20, 26879, Note_on_c, 13, 51, 0
20, 26880, Note_on_c, 13, 44, 52
20, 27119, Note_on_c, 13, 44, 0
20, 27840, Note_on_c, 13, 50, 52
20, 28559, Note_on_c, 13, 50, 0
20, 28560, Note_on_c, 13, 50, 52
20, 28799, Note_on_c, 13, 50, 0
20, 28800, Note_on_c, 13, 50, 52
20, 29039, Note_on_c, 13, 50, 0
20, 29040, Note_on_c, 13, 50, 52
20, 29279, Note_on_c, 13, 50, 0
20, 29280, Note_on_c, 13, 50, 52
20, 29519, Note_on_c, 13, 50, 0
20, 29520, Note_on_c, 13, 50, 52
20, 29759, Note_on_c, 13, 50, 0
20, 29760, Note_on_c, 13, 50, 52
20, 30719, Note_on_c, 13, 50, 0
20, 30720, Note_on_c, 13, 43, 52
20, 30959, Note_on_c, 13, 43, 0
20, 31680, Note_on_c, 13, 49, 52
20, 32399, Note_on_c, 13, 49, 0
20, 32400, Note_on_c, 13, 49, 52
20, 32639, Note_on_c, 13, 49, 0
20, 32640, Note_on_c, 13, 49, 52
20, 33359, Note_on_c, 13, 49, 0
20, 33360, Note_on_c, 13, 49, 52
20, 33599, Note_on_c, 13, 49, 0
20, 33600, Note_on_c, 13, 48, 52
20, 34319, Note_on_c, 13, 48, 0
20, 34320, Note_on_c, 13, 48, 52
20, 34559, Note_on_c, 13, 48, 0
20, 34560, Note_on_c, 13, 48, 52
20, 35039, Note_on_c, 13, 48, 0
20, 35040, Note_on_c, 13, 48, 52
20, 35519, Note_on_c, 13, 48, 0
20, 35520, Note_on_c, 13, 48, 52
20, 36479, Note_on_c, 13, 48, 0
20, 36480, Note_on_c, 13, 41, 52
20, 36719, Note_on_c, 13, 41, 0
20, 36719, End_track
21, 0, Start_track
21, 0, Title_t, "Organ"
21, 0, Program_c, 15, 19
21, 0, Control_c, 15, 7, 96
21, 0, Control_c, 15, 10, 64
21, 0, Control_c, 15, 11, 127
21, 0, Note_on_c, 15, 45, 72
21, 29, Note_on_c, 15, 45, 0
21, 30, Note_on_c, 15, 46, 72
21, 59, Note_on_c, 15, 46, 0
21, 60, Note_on_c, 15, 48, 72
21, 119, Note_on_c, 15, 48, 0
21, 120, Note_on_c, 15, 48, 72
21, 149, Note_on_c, 15, 48, 0
21, 180, Note_on_c, 15, 48, 72
21, 209, Note_on_c, 15, 48, 0
21, 240, Note_on_c, 15, 48, 72
21, 269, Note_on_c, 15, 48, 0
21, 270, Note_on_c, 15, 46, 72
21, 299, Note_on_c, 15, 46, 0
21, 300, Note_on_c, 15, 45, 72
21, 359, Note_on_c, 15, 45, 0
21, 360, Note_on_c, 15, 45, 72
21, 389, Note_on_c, 15, 45, 0
21, 420, Note_on_c, 15, 45, 72
21, 449, Note_on_c, 15, 45, 0
21, 480, Note_on_c, 15, 45, 72
21, 509, Note_on_c, 15, 45, 0
21, 510, Note_on_c, 15, 46, 72
21, 539, Note_on_c, 15, 46, 0
21, 540, Note_on_c, 15, 48, 72
21, 599, Note_on_c, 15, 48, 0
21, 600, Note_on_c, 15, 48, 72
21, 629, Note_on_c, 15, 48, 0
21, 660, Note_on_c, 15, 48, 72
21, 689, Note_on_c, 15, 48, 0
21, 720, Note_on_c, 15, 48, 72
21, 749, Note_on_c, 15, 48, 0
21, 750, Note_on_c, 15, 46, 72
21, 779, Note_on_c, 15, 46, 0
21, 780, Note_on_c, 15, 45, 72
21, 839, Note_on_c, 15, 45, 0
21, 840, Note_on_c, 15, 45, 72
21, 869, Note_on_c, 15, 45, 0
21, 900, Note_on_c, 15, 45, 72
21, 929, Note_on_c, 15, 45, 0
21, 960, Note_on_c, 15, 47, 72
21, 989, Note_on_c, 15, 47, 0
21, 990, Note_on_c, 15, 48, 72
21, 1019, Note_on_c, 15, 48, 0
21, 1020, Note_on_c, 15, 50, 72
21, 1079, Note_on_c, 15, 50, 0
21, 1080, Note_on_c, 15, 50, 72
21, 1109, Note_on_c, 15, 50, 0
21, 1140, Note_on_c, 15, 50, 72
21, 1169, Note_on_c, 15, 50, 0
21, 1200, Note_on_c, 15, 50, 72
21, 1229, Note_on_c, 15, 50, 0
21, 1230, Note_on_c, 15, 48, 72
21, 1259, Note_on_c, 15, 48, 0
21, 1260, Note_on_c, 15, 47, 72
21, 1319, Note_on_c, 15, 47, 0
21, 1320, Note_on_c, 15, 47, 72
21, 1349, Note_on_c, 15, 47, 0
21, 1380, Note_on_c, 15, 47, 72
21, 1409, Note_on_c, 15, 47, 0
21, 1440, Note_on_c, 15, 47, 72
21, 1469, Note_on_c, 15, 47, 0
21, 1470, Note_on_c, 15, 48, 72
21, 1499, Note_on_c, 15, 48, 0
21, 1500, Note_on_c, 15, 50, 72
21, 1559, Note_on_c, 15, 50, 0
21, 1560, Note_on_c, 15, 50, 72
21, 1589, Note_on_c, 15, 50, 0
21, 1620, Note_on_c, 15, 50, 72
21, 1649, Note_on_c, 15, 50, 0
21, 1680, Note_on_c, 15, 50, 72
21, 1709, Note_on_c, 15, 50, 0
21, 1710, Note_on_c, 15, 48, 72
21, 1739, Note_on_c, 15, 48, 0
21, 1740, Note_on_c, 15, 47, 72
21, 1799, Note_on_c, 15, 47, 0
21, 1800, Note_on_c, 15, 47, 72
21, 1829, Note_on_c, 15, 47, 0
21, 1860, Note_on_c, 15, 47, 72
21, 1889, Note_on_c, 15, 47, 0
21, 1920, Note_on_c, 15, 48, 72
21, 1949, Note_on_c, 15, 48, 0
21, 1950, Note_on_c, 15, 49, 72
21, 1979, Note_on_c, 15, 49, 0
21, 1980, Note_on_c, 15, 52, 72
21, 2039, Note_on_c, 15, 52, 0
21, 2040, Note_on_c, 15, 52, 72
21, 2069, Note_on_c, 15, 52, 0
21, 2100, Note_on_c, 15, 52, 72
21, 2129, Note_on_c, 15, 52, 0
21, 2160, Note_on_c, 15, 52, 72
21, 2189, Note_on_c, 15, 52, 0
21, 2190, Note_on_c, 15, 49, 72
21, 2219, Note_on_c, 15, 49, 0
21, 2220, Note_on_c, 15, 48, 72
21, 2279, Note_on_c, 15, 48, 0
21, 2280, Note_on_c, 15, 48, 72
21, 2309, Note_on_c, 15, 48, 0
21, 2340, Note_on_c, 15, 48, 72
21, 2369, Note_on_c, 15, 48, 0
21, 2400, Note_on_c, 15, 48, 72
21, 2429, Note_on_c, 15, 48, 0
21, 2430, Note_on_c, 15, 49, 72
21, 2459, Note_on_c, 15, 49, 0
21, 2460, Note_on_c, 15, 52, 72
21, 2519, Note_on_c, 15, 52, 0
21, 2520, Note_on_c, 15, 52, 72
21, 2549, Note_on_c, 15, 52, 0
21, 2580, Note_on_c, 15, 52, 72
21, 2609, Note_on_c, 15, 52, 0
21, 2640, Note_on_c, 15, 52, 72
21, 2669, Note_on_c, 15, 52, 0
21, 2670, Note_on_c, 15, 49, 72
21, 2699, Note_on_c, 15, 49, 0
21, 2700, Note_on_c, 15, 48, 72
21, 2759, Note_on_c, 15, 48, 0
21, 2760, Note_on_c, 15, 48, 72
21, 2789, Note_on_c, 15, 48, 0
21, 2820, Note_on_c, 15, 48, 72
21, 2849, Note_on_c, 15, 48, 0
21, 2880, Note_on_c, 15, 50, 72
21, 2909, Note_on_c, 15, 50, 0
21, 2910, Note_on_c, 15, 51, 72
21, 2939, Note_on_c, 15, 51, 0
21, 2940, Note_on_c, 15, 53, 72
21, 2999, Note_on_c, 15, 53, 0
21, 3000, Note_on_c, 15, 53, 72
21, 3029, Note_on_c, 15, 53, 0
21, 3060, Note_on_c, 15, 53, 72
21, 3089, Note_on_c, 15, 53, 0
21, 3120, Note_on_c, 15, 53, 72
21, 3149, Note_on_c, 15, 53, 0
21, 3150, Note_on_c, 15, 51, 72
21, 3179, Note_on_c, 15, 51, 0
21, 3180, Note_on_c, 15, 50, 72
21, 3239, Note_on_c, 15, 50, 0
21, 3240, Note_on_c, 15, 50, 72
21, 3269, Note_on_c, 15, 50, 0
21, 3300, Note_on_c, 15, 50, 72
21, 3329, Note_on_c, 15, 50, 0
21, 3360, Note_on_c, 15, 50, 72
21, 3389, Note_on_c, 15, 50, 0
21, 3390, Note_on_c, 15, 51, 72
21, 3419, Note_on_c, 15, 51, 0
21, 3420, Note_on_c, 15, 53, 72
21, 3479, Note_on_c, 15, 53, 0
21, 3480, Note_on_c, 15, 53, 72
21, 3509, Note_on_c, 15, 53, 0
21, 3540, Note_on_c, 15, 53, 72
21, 3569, Note_on_c, 15, 53, 0
21, 3600, Note_on_c, 15, 53, 72
21, 3629, Note_on_c, 15, 53, 0
21, 3630, Note_on_c, 15, 51, 72
21, 3659, Note_on_c, 15, 51, 0
21, 3660, Note_on_c, 15, 50, 72
21, 3719, Note_on_c, 15, 50, 0
21, 3720, Note_on_c, 15, 50, 72
21, 3749, Note_on_c, 15, 50, 0
21, 3780, Note_on_c, 15, 50, 72
21, 3809, Note_on_c, 15, 50, 0
21, 3840, Note_on_c, 15, 52, 72
21, 3869, Note_on_c, 15, 52, 0
21, 3870, Note_on_c, 15, 56, 72
21, 3899, Note_on_c, 15, 56, 0
21, 3900, Note_on_c, 15, 59, 72
21, 3959, Note_on_c, 15, 59, 0
21, 3960, Note_on_c, 15, 59, 72
21, 3989, Note_on_c, 15, 59, 0
21, 4020, Note_on_c, 15, 59, 72
21, 4049, Note_on_c, 15, 59, 0
21, 4080, Note_on_c, 15, 59, 72
21, 4109, Note_on_c, 15, 59, 0
21, 4110, Note_on_c, 15, 56, 72
21, 4139, Note_on_c, 15, 56, 0
21, 4140, Note_on_c, 15, 52, 72
21, 4199, Note_on_c, 15, 52, 0
21, 4200, Note_on_c, 15, 52, 72
21, 4229, Note_on_c, 15, 52, 0
21, 4260, Note_on_c, 15, 52, 72
21, 4289, Note_on_c, 15, 52, 0
21, 4320, Note_on_c, 15, 52, 72
21, 4349, Note_on_c, 15, 52, 0
21, 4350, Note_on_c, 15, 57, 72
21, 4379, Note_on_c, 15, 57, 0
21, 4380, Note_on_c, 15, 60, 72
21, 4439, Note_on_c, 15, 60, 0
21, 4440, Note_on_c, 15, 60, 72
21, 4469, Note_on_c, 15, 60, 0
21, 4500, Note_on_c, 15, 60, 72
21, 4529, Note_on_c, 15, 60, 0
21, 4560, Note_on_c, 15, 60, 72
21, 4589, Note_on_c, 15, 60, 0
21, 4590, Note_on_c, 15, 57, 72
21, 4619, Note_on_c, 15, 57, 0
21, 4620, Note_on_c, 15, 52, 72
21, 4679, Note_on_c, 15, 52, 0
21, 4680, Note_on_c, 15, 52, 72
21, 4709, Note_on_c, 15, 52, 0
21, 4740, Note_on_c, 15, 52, 72
21, 4769, Note_on_c, 15, 52, 0
21, 4800, Note_on_c, 15, 52, 72
21, 4919, Note_on_c, 15, 52, 0
21, 5040, Note_on_c, 15, 52, 48
21, 5159, Note_on_c, 15, 52, 0
21, 5280, Note_on_c, 15, 51, 48
21, 5399, Note_on_c, 15, 51, 0
21, 5520, Note_on_c, 15, 50, 48
21, 5639, Note_on_c, 15, 50, 0
21, 5760, Note_on_c, 15, 48, 48
21, 5999, Note_on_c, 15, 48, 0
21, 9120, Note_on_c, 15, 48, 72
21, 9149, Note_on_c, 15, 48, 0
21, 9150, Note_on_c, 15, 50, 72
21, 9179, Note_on_c, 15, 50, 0
21, 9180, Note_on_c, 15, 52, 72
21, 9239, Note_on_c, 15, 52, 0
21, 9240, Note_on_c, 15, 52, 72
21, 9269, Note_on_c, 15, 52, 0
21, 9300, Note_on_c, 15, 52, 72
21, 9329, Note_on_c, 15, 52, 0
21, 9360, Note_on_c, 15, 51, 72
21, 9389, Note_on_c, 15, 51, 0
21, 9390, Note_on_c, 15, 50, 72
21, 9419, Note_on_c, 15, 50, 0
21, 9420, Note_on_c, 15, 48, 72
21, 9479, Note_on_c, 15, 48, 0
21, 9480, Note_on_c, 15, 48, 72
21, 9509, Note_on_c, 15, 48, 0
21, 9540, Note_on_c, 15, 48, 72
21, 9569, Note_on_c, 15, 48, 0
21, 9600, Note_on_c, 15, 55, 72
21, 9629, Note_on_c, 15, 55, 0
21, 9630, Note_on_c, 15, 57, 72
21, 9659, Note_on_c, 15, 57, 0
21, 9660, Note_on_c, 15, 59, 72
21, 9719, Note_on_c, 15, 59, 0
21, 9720, Note_on_c, 15, 59, 72
21, 9749, Note_on_c, 15, 59, 0
21, 9780, Note_on_c, 15, 59, 72
21, 9809, Note_on_c, 15, 59, 0
21, 9840, Note_on_c, 15, 58, 72
21, 9869, Note_on_c, 15, 58, 0
21, 9870, Note_on_c, 15, 57, 72
21, 9899, Note_on_c, 15, 57, 0
21, 9900, Note_on_c, 15, 55, 72
21, 9959, Note_on_c, 15, 55, 0
21, 9960, Note_on_c, 15, 55, 72
21, 9989, Note_on_c, 15, 55, 0
21, 10020, Note_on_c, 15, 55, 72
21, 10049, Note_on_c, 15, 55, 0
21, 10080, Note_on_c, 15, 62, 72
21, 10109, Note_on_c, 15, 62, 0
21, 10110, Note_on_c, 15, 64, 72
21, 10139, Note_on_c, 15, 64, 0
21, 10140, Note_on_c, 15, 66, 72
21, 10199, Note_on_c, 15, 66, 0
21, 10200, Note_on_c, 15, 66, 72
21, 10229, Note_on_c, 15, 66, 0
21, 10260, Note_on_c, 15, 66, 72
21, 10289, Note_on_c, 15, 66, 0
21, 10320, Note_on_c, 15, 65, 72
21, 10349, Note_on_c, 15, 65, 0
21, 10350, Note_on_c, 15, 64, 72
21, 10379, Note_on_c, 15, 64, 0
21, 10380, Note_on_c, 15, 62, 72
21, 10439, Note_on_c, 15, 62, 0
21, 10440, Note_on_c, 15, 62, 72
21, 10469, Note_on_c, 15, 62, 0
21, 10500, Note_on_c, 15, 62, 72
21, 10529, Note_on_c, 15, 62, 0
21, 10560, Note_on_c, 15, 57, 72
21, 10589, Note_on_c, 15, 57, 0
21, 10590, Note_on_c, 15, 59, 72
21, 10619, Note_on_c, 15, 59, 0
21, 10620, Note_on_c, 15, 61, 72
21, 10679, Note_on_c, 15, 61, 0
21, 10680, Note_on_c, 15, 61, 72
21, 10709, Note_on_c, 15, 61, 0
21, 10740, Note_on_c, 15, 61, 72
21, 10769, Note_on_c, 15, 61, 0
21, 10800, Note_on_c, 15, 60, 72
21, 10829, Note_on_c, 15, 60, 0
21, 10830, Note_on_c, 15, 59, 72
21, 10859, Note_on_c, 15, 59, 0
21, 10860, Note_on_c, 15, 57, 72
21, 10919, Note_on_c, 15, 57, 0
21, 10920, Note_on_c, 15, 57, 72
21, 10949, Note_on_c, 15, 57, 0
21, 10980, Note_on_c, 15, 57, 72
21, 11009, Note_on_c, 15, 57, 0
21, 11040, Note_on_c, 15, 64, 72
21, 11069, Note_on_c, 15, 64, 0
21, 11070, Note_on_c, 15, 66, 72
21, 11099, Note_on_c, 15, 66, 0
21, 11100, Note_on_c, 15, 68, 72
21, 11159, Note_on_c, 15, 68, 0
21, 11160, Note_on_c, 15, 68, 72
21, 11189, Note_on_c, 15, 68, 0
21, 11220, Note_on_c, 15, 68, 72
21, 11249, Note_on_c, 15, 68, 0
21, 11280, Note_on_c, 15, 67, 72
21, 11309, Note_on_c, 15, 67, 0
21, 11310, Note_on_c, 15, 66, 72
21, 11339, Note_on_c, 15, 66, 0
21, 11340, Note_on_c, 15, 64, 72
21, 11399, Note_on_c, 15, 64, 0
21, 11400, Note_on_c, 15, 64, 72
21, 11429, Note_on_c, 15, 64, 0
21, 11460, Note_on_c, 15, 64, 72
21, 11489, Note_on_c, 15, 64, 0
21, 11520, Note_on_c, 15, 57, 72
21, 11549, Note_on_c, 15, 57, 0
21, 11550, Note_on_c, 15, 59, 72
21, 11579, Note_on_c, 15, 59, 0
21, 11580, Note_on_c, 15, 60, 72
21, 11639, Note_on_c, 15, 60, 0
21, 11640, Note_on_c, 15, 60, 72
21, 11669, Note_on_c, 15, 60, 0
21, 11700, Note_on_c, 15, 60, 72
21, 11729, Note_on_c, 15, 60, 0
21, 11760, Note_on_c, 15, 59, 72
21, 11789, Note_on_c, 15, 59, 0
21, 11790, Note_on_c, 15, 60, 72
21, 11819, Note_on_c, 15, 60, 0
21, 11820, Note_on_c, 15, 62, 72
21, 11879, Note_on_c, 15, 62, 0
21, 11880, Note_on_c, 15, 62, 72
21, 11909, Note_on_c, 15, 62, 0
21, 11940, Note_on_c, 15, 62, 72
21, 11969, Note_on_c, 15, 62, 0
21, 12000, Note_on_c, 15, 60, 72
21, 12029, Note_on_c, 15, 60, 0
21, 12030, Note_on_c, 15, 62, 72
21, 12059, Note_on_c, 15, 62, 0
21, 12060, Note_on_c, 15, 64, 72
21, 12119, Note_on_c, 15, 64, 0
21, 12120, Note_on_c, 15, 64, 72
21, 12149, Note_on_c, 15, 64, 0
21, 12180, Note_on_c, 15, 64, 72
21, 12209, Note_on_c, 15, 64, 0
21, 12240, Note_on_c, 15, 64, 72
21, 12269, Note_on_c, 15, 64, 0
21, 12270, Note_on_c, 15, 65, 72
21, 12299, Note_on_c, 15, 65, 0
21, 12300, Note_on_c, 15, 67, 72
21, 12359, Note_on_c, 15, 67, 0
21, 12360, Note_on_c, 15, 67, 72
21, 12389, Note_on_c, 15, 67, 0
21, 12420, Note_on_c, 15, 67, 72
21, 12449, Note_on_c, 15, 67, 0
21, 12480, Note_on_c, 15, 54, 72
21, 12509, Note_on_c, 15, 54, 0
21, 12510, Note_on_c, 15, 55, 72
21, 12539, Note_on_c, 15, 55, 0
21, 12540, Note_on_c, 15, 57, 72
21, 12599, Note_on_c, 15, 57, 0
21, 12600, Note_on_c, 15, 57, 72
21, 12629, Note_on_c, 15, 57, 0
21, 12660, Note_on_c, 15, 57, 72
21, 12689, Note_on_c, 15, 57, 0
21, 12720, Note_on_c, 15, 56, 72
21, 12749, Note_on_c, 15, 56, 0
21, 12750, Note_on_c, 15, 57, 72
21, 12779, Note_on_c, 15, 57, 0
21, 12780, Note_on_c, 15, 59, 72
21, 12839, Note_on_c, 15, 59, 0
21, 12840, Note_on_c, 15, 59, 72
21, 12869, Note_on_c, 15, 59, 0
21, 12900, Note_on_c, 15, 59, 72
21, 12929, Note_on_c, 15, 59, 0
21, 12960, Note_on_c, 15, 57, 72
21, 12989, Note_on_c, 15, 57, 0
21, 12990, Note_on_c, 15, 59, 72
21, 13019, Note_on_c, 15, 59, 0
21, 13020, Note_on_c, 15, 60, 72
21, 13079, Note_on_c, 15, 60, 0
21, 13080, Note_on_c, 15, 60, 72
21, 13109, Note_on_c, 15, 60, 0
21, 13140, Note_on_c, 15, 60, 72
21, 13169, Note_on_c, 15, 60, 0
21, 13200, Note_on_c, 15, 55, 72
21, 13229, Note_on_c, 15, 55, 0
21, 13230, Note_on_c, 15, 57, 72
21, 13259, Note_on_c, 15, 57, 0
21, 13260, Note_on_c, 15, 58, 72
21, 13319, Note_on_c, 15, 58, 0
21, 13320, Note_on_c, 15, 58, 72
21, 13349, Note_on_c, 15, 58, 0
21, 13380, Note_on_c, 15, 58, 72
21, 13409, Note_on_c, 15, 58, 0
21, 13440, Note_on_c, 15, 54, 72
21, 13469, Note_on_c, 15, 54, 0
21, 13470, Note_on_c, 15, 55, 72
21, 13499, Note_on_c, 15, 55, 0
21, 13500, Note_on_c, 15, 57, 72
21, 13559, Note_on_c, 15, 57, 0
21, 13560, Note_on_c, 15, 57, 72
21, 13589, Note_on_c, 15, 57, 0
21, 13620, Note_on_c, 15, 57, 72
21, 13649, Note_on_c, 15, 57, 0
21, 13680, Note_on_c, 15, 57, 72
21, 13709, Note_on_c, 15, 57, 0
21, 13710, Note_on_c, 15, 55, 72
21, 13739, Note_on_c, 15, 55, 0
21, 13740, Note_on_c, 15, 54, 72
21, 13799, Note_on_c, 15, 54, 0
21, 13800, Note_on_c, 15, 54, 72
21, 13829, Note_on_c, 15, 54, 0
21, 13860, Note_on_c, 15, 54, 72
21, 13889, Note_on_c, 15, 54, 0
21, 13920, Note_on_c, 15, 53, 72
21, 13949, Note_on_c, 15, 53, 0
21, 13950, Note_on_c, 15, 55, 72
21, 13979, Note_on_c, 15, 55, 0
21, 13980, Note_on_c, 15, 57, 72
21, 14039, Note_on_c, 15, 57, 0
21, 14040, Note_on_c, 15, 57, 72
21, 14069, Note_on_c, 15, 57, 0
21, 14100, Note_on_c, 15, 57, 72
21, 14129, Note_on_c, 15, 57, 0
21, 14160, Note_on_c, 15, 57, 72
21, 14189, Note_on_c, 15, 57, 0
21, 14190, Note_on_c, 15, 55, 72
21, 14219, Note_on_c, 15, 55, 0
21, 14220, Note_on_c, 15, 53, 72
21, 14279, Note_on_c, 15, 53, 0
21, 14280, Note_on_c, 15, 53, 72
21, 14309, Note_on_c, 15, 53, 0
21, 14340, Note_on_c, 15, 53, 72
21, 14369, Note_on_c, 15, 53, 0
21, 14400, Note_on_c, 15, 52, 72
21, 14519, Note_on_c, 15, 52, 0
21, 14640, Note_on_c, 15, 50, 48
21, 14759, Note_on_c, 15, 50, 0
21, 14880, Note_on_c, 15, 48, 48
21, 14999, Note_on_c, 15, 48, 0
21, 15120, Note_on_c, 15, 47, 48
21, 15239, Note_on_c, 15, 47, 0
21, 15360, Note_on_c, 15, 45, 48
21, 15599, Note_on_c, 15, 45, 0
21, 23040, Note_on_c, 15, 57, 48
21, 23159, Note_on_c, 15, 57, 0
21, 23280, Note_on_c, 15, 57, 48
21, 23399, Note_on_c, 15, 57, 0
21, 23520, Note_on_c, 15, 57, 48
21, 23639, Note_on_c, 15, 57, 0
21, 23760, Note_on_c, 15, 57, 48
21, 23879, Note_on_c, 15, 57, 0
21, 24000, Note_on_c, 15, 51, 48
21, 24000, Note_on_c, 15, 66, 48
21, 24000, Note_on_c, 15, 69, 48
21, 24000, Note_on_c, 15, 60, 48
21, 24000, Note_on_c, 15, 75, 48
21, 24119, Note_on_c, 15, 51, 0
21, 24240, Note_on_c, 15, 51, 48
21, 24359, Note_on_c, 15, 51, 0
21, 24480, Note_on_c, 15, 51, 48
21, 24599, Note_on_c, 15, 51, 0
21, 24720, Note_on_c, 15, 51, 48
21, 24839, Note_on_c, 15, 51, 0
21, 24959, Note_on_c, 15, 75, 0
21, 24959, Note_on_c, 15, 66, 0
21, 24959, Note_on_c, 15, 69, 0
21, 24959, Note_on_c, 15, 60, 0
21, 24960, Note_on_c, 15, 51, 48
21, 24960, Note_on_c, 15, 67, 48
21, 24960, Note_on_c, 15, 70, 48
21, 24960, Note_on_c, 15, 73, 48
21, 25079, Note_on_c, 15, 51, 0
21, 25200, Note_on_c, 15, 51, 48
21, 25319, Note_on_c, 15, 51, 0
21, 25440, Note_on_c, 15, 51, 48
21, 25559, Note_on_c, 15, 51, 0
21, 25680, Note_on_c, 15, 51, 48
21, 25799, Note_on_c, 15, 51, 0
21, 25919, Note_on_c, 15, 73, 0
21, 25919, Note_on_c, 15, 70, 0
21, 25919, Note_on_c, 15, 67, 0
21, 25920, Note_on_c, 15, 51, 48
21, 25920, Note_on_c, 15, 67, 48
21, 25920, Note_on_c, 15, 70, 48
21, 25920, Note_on_c, 15, 59, 48
21, 25920, Note_on_c, 15, 63, 48
21, 26039, Note_on_c, 15, 51, 0
21, 26159, Note_on_c, 15, 59, 0
21, 26159, Note_on_c, 15, 67, 0
21, 26160, Note_on_c, 15, 51, 48
21, 26160, Note_on_c, 15, 68, 48
21, 26279, Note_on_c, 15, 51, 0
21, 26399, Note_on_c, 15, 68, 0
21, 26399, Note_on_c, 15, 70, 0
21, 26400, Note_on_c, 15, 51, 48
21, 26400, Note_on_c, 15, 68, 48
21, 26400, Note_on_c, 15, 70, 48
21, 26519, Note_on_c, 15, 51, 0
21, 26640, Note_on_c, 15, 51, 48
21, 26640, Note_on_c, 15, 73, 48
21, 26759, Note_on_c, 15, 51, 0
21, 26879, Note_on_c, 15, 63, 0
21, 26879, Note_on_c, 15, 70, 0
21, 26879, Note_on_c, 15, 68, 0
21, 26879, Note_on_c, 15, 73, 0
21, 26880, Note_on_c, 15, 63, 48
21, 26880, Note_on_c, 15, 44, 48
21, 26880, Note_on_c, 15, 71, 48
21, 26880, Note_on_c, 15, 68, 48
21, 26999, Note_on_c, 15, 44, 0
21, 27120, Note_on_c, 15, 56, 48
21, 27239, Note_on_c, 15, 56, 0
21, 27360, Note_on_c, 15, 56, 48
21, 27479, Note_on_c, 15, 56, 0
21, 27600, Note_on_c, 15, 56, 48
21, 27719, Note_on_c, 15, 56, 0
21, 27839, Note_on_c, 15, 68, 0
21, 27839, Note_on_c, 15, 71, 0
21, 27839, Note_on_c, 15, 63, 0
21, 27840, Note_on_c, 15, 50, 48
21, 27840, Note_on_c, 15, 65, 48
21, 27840, Note_on_c, 15, 68, 48
21, 27840, Note_on_c, 15, 71, 48
21, 27840, Note_on_c, 15, 62, 48
21, 27959, Note_on_c, 15, 50, 0
21, 28080, Note_on_c, 15, 50, 48
21, 28199, Note_on_c, 15, 50, 0
21, 28320, Note_on_c, 15, 50, 48
21, 28439, Note_on_c, 15, 50, 0
21, 28560, Note_on_c, 15, 50, 48
21, 28679, Note_on_c, 15, 50, 0
21, 28799, Note_on_c, 15, 62, 0
21, 28799, Note_on_c, 15, 65, 0
21, 28799, Note_on_c, 15, 68, 0
21, 28799, Note_on_c, 15, 71, 0
21, 28800, Note_on_c, 15, 50, 48
21, 28800, Note_on_c, 15, 66, 48
21, 28800, Note_on_c, 15, 69, 48
21, 28800, Note_on_c, 15, 60, 48
21, 28919, Note_on_c, 15, 50, 0
21, 29040, Note_on_c, 15, 50, 48
21, 29159, Note_on_c, 15, 50, 0
21, 29280, Note_on_c, 15, 50, 48
21, 29399, Note_on_c, 15, 50, 0
21, 29520, Note_on_c, 15, 50, 48
21, 29639, Note_on_c, 15, 50, 0
21, 29759, Note_on_c, 15, 60, 0
21, 29759, Note_on_c, 15, 69, 0
21, 29759, Note_on_c, 15, 66, 0
21, 29760, Note_on_c, 15, 50, 48
21, 29760, Note_on_c, 15, 65, 48
21, 29760, Note_on_c, 15, 69, 48
21, 29760, Note_on_c, 15, 58, 48
21, 29760, Note_on_c, 15, 62, 48
21, 29879, Note_on_c, 15, 50, 0
21, 29999, Note_on_c, 15, 65, 0
21, 29999, Note_on_c, 15, 69, 0
21, 30000, Note_on_c, 15, 50, 48
21, 30000, Note_on_c, 15, 67, 48
21, 30119, Note_on_c, 15, 50, 0
21, 30239, Note_on_c, 15, 58, 0
21, 30240, Note_on_c, 15, 50, 48
21, 30359, Note_on_c, 15, 50, 0
21, 30480, Note_on_c, 15, 50, 48
21, 30480, Note_on_c, 15, 72, 48
21, 30480, Note_on_c, 15, 66, 48
21, 30599, Note_on_c, 15, 50, 0
21, 30719, Note_on_c, 15, 72, 0
21, 30719, Note_on_c, 15, 67, 0
21, 30719, Note_on_c, 15, 62, 0
21, 30719, Note_on_c, 15, 66, 0
21, 30720, Note_on_c, 15, 43, 48
21, 30720, Note_on_c, 15, 59, 48
21, 30720, Note_on_c, 15, 64, 48
21, 30720, Note_on_c, 15, 67, 48
21, 30839, Note_on_c, 15, 43, 0
21, 30960, Note_on_c, 15, 55, 48
21, 31079, Note_on_c, 15, 55, 0
21, 31200, Note_on_c, 15, 55, 48
21, 31319, Note_on_c, 15, 55, 0
21, 31440, Note_on_c, 15, 55, 48
21, 31559, Note_on_c, 15, 55, 0
21, 31679, Note_on_c, 15, 67, 0
21, 31679, Note_on_c, 15, 64, 0
21, 31679, Note_on_c, 15, 59, 0
21, 31680, Note_on_c, 15, 49, 48
21, 31680, Note_on_c, 15, 64, 48
21, 31680, Note_on_c, 15, 67, 48
21, 31680, Note_on_c, 15, 58, 48
21, 31680, Note_on_c, 15, 61, 48
21, 31799, Note_on_c, 15, 49, 0
21, 31920, Note_on_c, 15, 49, 48
21, 32039, Note_on_c, 15, 49, 0
21, 32160, Note_on_c, 15, 49, 48
21, 32279, Note_on_c, 15, 49, 0
21, 32400, Note_on_c, 15, 49, 48
21, 32519, Note_on_c, 15, 49, 0
21, 32639, Note_on_c, 15, 61, 0
21, 32639, Note_on_c, 15, 64, 0
21, 32639, Note_on_c, 15, 67, 0
21, 32639, Note_on_c, 15, 58, 0
21, 32640, Note_on_c, 15, 49, 48
21, 32640, Note_on_c, 15, 65, 48
21, 32640, Note_on_c, 15, 68, 48
21, 32640, Note_on_c, 15, 59, 48
21, 32640, Note_on_c, 15, 61, 48
21, 32759, Note_on_c, 15, 49, 0
21, 32880, Note_on_c, 15, 49, 48
21, 32999, Note_on_c, 15, 49, 0
21, 33119, Note_on_c, 15, 65, 0
21, 33119, Note_on_c, 15, 59, 0
21, 33119, Note_on_c, 15, 68, 0
21, 33120, Note_on_c, 15, 49, 48
21, 33120, Note_on_c, 15, 66, 48
21, 33120, Note_on_c, 15, 57, 48
21, 33239, Note_on_c, 15, 49, 0
21, 33360, Note_on_c, 15, 49, 48
21, 33479, Note_on_c, 15, 49, 0
21, 33599, Note_on_c, 15, 57, 0
21, 33599, Note_on_c, 15, 66, 0
21, 33599, Note_on_c, 15, 61, 0
21, 33600, Note_on_c, 15, 48, 48
21, 33600, Note_on_c, 15, 63, 48
21, 33600, Note_on_c, 15, 66, 48
21, 33600, Note_on_c, 15, 57, 48
21, 33600, Note_on_c, 15, 60, 48
21, 33719, Note_on_c, 15, 48, 0
21, 33840, Note_on_c, 15, 48, 48
21, 33959, Note_on_c, 15, 48, 0
21, 34080, Note_on_c, 15, 48, 48
21, 34199, Note_on_c, 15, 48, 0
21, 34320, Note_on_c, 15, 48, 48
21, 34439, Note_on_c, 15, 48, 0
21, 34559, Note_on_c, 15, 60, 0
21, 34559, Note_on_c, 15, 63, 0
21, 34559, Note_on_c, 15, 66, 0
21, 34559, Note_on_c, 15, 57, 0
21, 34560, Note_on_c, 15, 48, 48
21, 34560, Note_on_c, 15, 64, 48
21, 34560, Note_on_c, 15, 67, 48
21, 34560, Note_on_c, 15, 58, 48
21, 34560, Note_on_c, 15, 60, 48
21, 34679, Note_on_c, 15, 48, 0
21, 34800, Note_on_c, 15, 48, 48
21, 34919, Note_on_c, 15, 48, 0
21, 35039, Note_on_c, 15, 60, 0
21, 35039, Note_on_c, 15, 64, 0
21, 35039, Note_on_c, 15, 67, 0
21, 35039, Note_on_c, 15, 58, 0
21, 35040, Note_on_c, 15, 48, 48
21, 35040, Note_on_c, 15, 65, 48
21, 35040, Note_on_c, 15, 56, 48
21, 35040, Note_on_c, 15, 60, 48
21, 35159, Note_on_c, 15, 48, 0
21, 35280, Note_on_c, 15, 48, 48
21, 35399, Note_on_c, 15, 48, 0
21, 35519, Note_on_c, 15, 60, 0
21, 35519, Note_on_c, 15, 56, 0
21, 35519, Note_on_c, 15, 65, 0
21, 35520, Note_on_c, 15, 48, 48
21, 35520, Note_on_c, 15, 65, 48
21, 35520, Note_on_c, 15, 55, 48
21, 35520, Note_on_c, 15, 62, 48
21, 35639, Note_on_c, 15, 48, 0
21, 35760, Note_on_c, 15, 48, 48
21, 35879, Note_on_c, 15, 48, 0
21, 35999, Note_on_c, 15, 65, 0
21, 36000, Note_on_c, 15, 48, 48
21, 36000, Note_on_c, 15, 64, 48
21, 36119, Note_on_c, 15, 48, 0
21, 36240, Note_on_c, 15, 48, 48
21, 36240, Note_on_c, 15, 58, 48
21, 36359, Note_on_c, 15, 48, 0
21, 36479, Note_on_c, 15, 62, 0
21, 36479, Note_on_c, 15, 64, 0
21, 36479, Note_on_c, 15, 55, 0
21, 36479, Note_on_c, 15, 58, 0
21, 36480, Note_on_c, 15, 41, 48
21, 36480, Note_on_c, 15, 60, 48
21, 36480, Note_on_c, 15, 57, 48
21, 36480, Note_on_c, 15, 65, 48
21, 36599, Note_on_c, 15, 41, 0
21, 36719, Note_on_c, 15, 60, 0
21, 36719, Note_on_c, 15, 57, 0
21, 36719, Note_on_c, 15, 65, 0
21, 36720, Note_on_c, 15, 41, 48
21, 36839, Note_on_c, 15, 41, 0
21, 36960, Note_on_c, 15, 41, 48
21, 37079, Note_on_c, 15, 41, 0
21, 37200, Note_on_c, 15, 41, 48
21, 37319, Note_on_c, 15, 41, 0
21, 37440, Note_on_c, 15, 41, 48
21, 37679, Note_on_c, 15, 41, 0
21, 37920, Note_on_c, 15, 52, 48
21, 38159, Note_on_c, 15, 52, 0
21, 38159, End_track
22, 0, Start_track
22, 0, Title_t, "Timpani"
22, 0, Program_c, 14, 47
22, 0, Control_c, 14, 7, 127
22, 0, Control_c, 14, 10, 25
22, 0, Control_c, 14, 11, 127
22, 0, Note_on_c, 14, 45, 72
22, 239, Note_on_c, 14, 45, 0
22, 480, Note_on_c, 14, 45, 72
22, 719, Note_on_c, 14, 45, 0
22, 960, Note_on_c, 14, 50, 72
22, 1199, Note_on_c, 14, 50, 0
22, 1440, Note_on_c, 14, 50, 72
22, 1679, Note_on_c, 14, 50, 0
22, 1920, Note_on_c, 14, 45, 72
22, 2159, Note_on_c, 14, 45, 0
22, 2400, Note_on_c, 14, 45, 72
22, 2639, Note_on_c, 14, 45, 0
22, 2880, Note_on_c, 14, 50, 72
22, 3119, Note_on_c, 14, 50, 0
22, 3360, Note_on_c, 14, 50, 72
22, 3599, Note_on_c, 14, 50, 0
22, 4320, Note_on_c, 14, 45, 72
22, 4559, Note_on_c, 14, 45, 0
22, 10080, Note_on_c, 14, 50, 72
22, 10319, Note_on_c, 14, 50, 0
22, 10560, Note_on_c, 14, 45, 72
22, 10799, Note_on_c, 14, 45, 0
22, 11520, Note_on_c, 14, 45, 72
22, 11759, Note_on_c, 14, 45, 0
22, 12480, Note_on_c, 14, 50, 72
22, 12719, Note_on_c, 14, 50, 0
22, 12960, Note_on_c, 14, 45, 72
22, 13199, Note_on_c, 14, 45, 0
22, 13440, Note_on_c, 14, 50, 72
22, 13679, Note_on_c, 14, 50, 0
22, 13920, Note_on_c, 14, 45, 72
22, 14159, Note_on_c, 14, 45, 0
22, 14159, End_track
23, 0, Start_track
23, 0, End_track
0, 0, End_of_file