0, 0, Header, 1, 17, 480
1, 0, Start_track
1, 0, Time_signature, 6, 3, 12, 8
1, 0, Tempo, 750000
1, 1440, Tempo, 1500000
1, 48960, Tempo, 1500000
1, 49680, Tempo, 1538461
1, 49920, Tempo, 1621621
1, 50176, Tempo, 1666666
1, 50400, Tempo, 1428571
1, 73440, Tempo, 1463414
1, 75120, Tempo, 1463415
1, 75360, Tempo, 1538461
1, 75600, Tempo, 1578947
1, 75840, Tempo, 1621621
1, 76080, Tempo, 1714285
1, 76320, Tempo, 1500000
1, 120960, Tempo, 1428571
1, 132480, Tempo, 1463414
1, 139680, Tempo, 1500000
1, 140416, Tempo, 1538461
1, 140656, Tempo, 1578947
1, 140896, Tempo, 1666666
1, 141136, Tempo, 1621621
1, 142288, Tempo, 1714285
1, 142560, Tempo, 1818181
1, 142560, End_track
2, 0, Start_track
2, 0, Sequencer_specific, 04, 43, 00, 01, 00
2, 0, Program_c, 0, 73
2, 0, Control_c, 0, 7, 76
2, 0, Control_c, 0, 10, 56
2, 0, Control_c, 0, 91, 95
2, 20880, Note_on_c, 0, 85, 80
2, 21840, Note_on_c, 0, 85, 0
2, 21840, Note_on_c, 0, 83, 80
2, 22080, Note_on_c, 0, 83, 0
2, 22080, Note_on_c, 0, 81, 80
2, 22320, Note_on_c, 0, 81, 0
2, 22320, Note_on_c, 0, 80, 80
2, 22560, Note_on_c, 0, 80, 0
2, 22560, Note_on_c, 0, 81, 80
2, 22800, Note_on_c, 0, 81, 0
2, 22800, Note_on_c, 0, 83, 80
2, 23040, Note_on_c, 0, 83, 0
2, 23040, Note_on_c, 0, 77, 60
2, 23616, Note_on_c, 0, 77, 0
2, 23760, Note_on_c, 0, 85, 60
2, 24444, Note_on_c, 0, 85, 0
2, 24480, Note_on_c, 0, 87, 80
2, 25200, Note_on_c, 0, 87, 0
2, 25200, Note_on_c, 0, 86, 80
2, 25884, Note_on_c, 0, 86, 0
2, 25920, Note_on_c, 0, 85, 80
2, 26880, Note_on_c, 0, 85, 0
2, 26880, Note_on_c, 0, 83, 80
2, 27600, Note_on_c, 0, 83, 0
2, 27600, Note_on_c, 0, 85, 80
2, 27840, Note_on_c, 0, 85, 0
2, 27840, Note_on_c, 0, 81, 80
2, 28320, Note_on_c, 0, 81, 0
2, 28320, Note_on_c, 0, 83, 80
2, 28464, Note_on_c, 0, 83, 0
2, 28560, Note_on_c, 0, 80, 80
2, 28680, Note_on_c, 0, 80, 0
2, 28800, Note_on_c, 0, 78, 70
2, 29256, Note_on_c, 0, 78, 0
2, 50400, Note_on_c, 0, 76, 70
2, 51120, Note_on_c, 0, 76, 0
2, 51120, Note_on_c, 0, 73, 70
2, 51600, Note_on_c, 0, 73, 0
2, 51600, Note_on_c, 0, 74, 70
2, 51660, Note_on_c, 0, 74, 0
2, 51660, Note_on_c, 0, 73, 70
2, 51720, Note_on_c, 0, 73, 0
2, 51720, Note_on_c, 0, 71, 70
2, 51780, Note_on_c, 0, 71, 0
2, 51780, Note_on_c, 0, 73, 70
2, 51840, Note_on_c, 0, 73, 0
2, 51840, Note_on_c, 0, 74, 70
2, 51984, Note_on_c, 0, 74, 0
2, 52080, Note_on_c, 0, 74, 70
2, 52224, Note_on_c, 0, 74, 0
2, 52320, Note_on_c, 0, 74, 70
2, 52464, Note_on_c, 0, 74, 0
2, 52560, Note_on_c, 0, 74, 70
2, 52752, Note_on_c, 0, 74, 0
2, 54360, Note_on_c, 0, 85, 70
2, 54480, Note_on_c, 0, 85, 0
2, 54480, Note_on_c, 0, 86, 70
2, 54600, Note_on_c, 0, 86, 0
2, 54600, Note_on_c, 0, 87, 70
2, 54720, Note_on_c, 0, 87, 0
2, 54720, Note_on_c, 0, 88, 70
2, 54840, Note_on_c, 0, 88, 0
2, 54840, Note_on_c, 0, 87, 70
2, 54960, Note_on_c, 0, 87, 0
2, 54960, Note_on_c, 0, 88, 70
2, 55080, Note_on_c, 0, 88, 0
2, 55080, Note_on_c, 0, 87, 70
2, 55200, Note_on_c, 0, 87, 0
2, 55200, Note_on_c, 0, 88, 70
2, 55320, Note_on_c, 0, 88, 0
2, 55320, Note_on_c, 0, 85, 70
2, 55440, Note_on_c, 0, 85, 0
2, 55440, Note_on_c, 0, 83, 70
2, 55632, Note_on_c, 0, 83, 0
2, 56160, Note_on_c, 0, 88, 70
2, 56880, Note_on_c, 0, 88, 0
2, 56880, Note_on_c, 0, 85, 70
2, 57360, Note_on_c, 0, 85, 0
2, 57360, Note_on_c, 0, 86, 70
2, 57420, Note_on_c, 0, 86, 0
2, 57420, Note_on_c, 0, 85, 70
2, 57480, Note_on_c, 0, 85, 0
2, 57480, Note_on_c, 0, 83, 70
2, 57540, Note_on_c, 0, 83, 0
2, 57540, Note_on_c, 0, 85, 70
2, 57600, Note_on_c, 0, 85, 0
2, 57600, Note_on_c, 0, 86, 70
2, 57744, Note_on_c, 0, 86, 0
2, 57840, Note_on_c, 0, 86, 70
2, 57984, Note_on_c, 0, 86, 0
2, 58080, Note_on_c, 0, 86, 70
2, 58224, Note_on_c, 0, 86, 0
2, 58320, Note_on_c, 0, 86, 70
2, 58512, Note_on_c, 0, 86, 0
2, 67040, Note_on_c, 0, 86, 80
2, 67092, Note_on_c, 0, 86, 0
2, 67120, Note_on_c, 0, 85, 80
2, 67172, Note_on_c, 0, 85, 0
2, 67200, Note_on_c, 0, 83, 80
2, 67252, Note_on_c, 0, 83, 0
2, 67280, Note_on_c, 0, 81, 80
2, 67332, Note_on_c, 0, 81, 0
2, 67360, Note_on_c, 0, 80, 80
2, 67412, Note_on_c, 0, 80, 0
2, 67440, Note_on_c, 0, 78, 80
2, 67492, Note_on_c, 0, 78, 0
2, 67520, Note_on_c, 0, 76, 80
2, 67572, Note_on_c, 0, 76, 0
2, 67600, Note_on_c, 0, 74, 80
2, 67652, Note_on_c, 0, 74, 0
2, 68480, Note_on_c, 0, 88, 80
2, 68532, Note_on_c, 0, 88, 0
2, 68560, Note_on_c, 0, 86, 80
2, 68612, Note_on_c, 0, 86, 0
2, 68640, Note_on_c, 0, 85, 80
2, 68692, Note_on_c, 0, 85, 0
2, 68720, Note_on_c, 0, 83, 80
2, 68772, Note_on_c, 0, 83, 0
2, 68800, Note_on_c, 0, 81, 80
2, 68852, Note_on_c, 0, 81, 0
2, 68880, Note_on_c, 0, 80, 80
2, 68932, Note_on_c, 0, 80, 0
2, 68960, Note_on_c, 0, 78, 80
2, 69012, Note_on_c, 0, 78, 0
2, 69040, Note_on_c, 0, 76, 80
2, 69092, Note_on_c, 0, 76, 0
2, 73680, Note_on_c, 0, 73, 60
2, 73920, Note_on_c, 0, 73, 0
2, 73920, Note_on_c, 0, 85, 60
2, 74160, Note_on_c, 0, 85, 0
2, 74400, Note_on_c, 0, 74, 60
2, 74640, Note_on_c, 0, 74, 0
2, 74640, Note_on_c, 0, 86, 60
2, 74880, Note_on_c, 0, 86, 0
2, 75060, Note_on_c, 0, 73, 60
2, 75120, Note_on_c, 0, 73, 0
2, 75120, Note_on_c, 0, 85, 60
2, 75360, Note_on_c, 0, 85, 0
2, 75360, Note_on_c, 0, 78, 60
2, 75600, Note_on_c, 0, 78, 0
2, 75780, Note_on_c, 0, 71, 60
2, 75840, Note_on_c, 0, 71, 0
2, 75840, Note_on_c, 0, 83, 60
2, 76080, Note_on_c, 0, 83, 0
2, 76080, Note_on_c, 0, 77, 54
2, 76320, Note_on_c, 0, 77, 0
2, 76320, Note_on_c, 0, 78, 49
2, 76704, Note_on_c, 0, 78, 0
2, 92160, Note_on_c, 0, 78, 60
2, 93600, Note_on_c, 0, 78, 0
2, 93600, Note_on_c, 0, 79, 60
2, 93792, Note_on_c, 0, 79, 0
2, 101520, Note_on_c, 0, 85, 80
2, 102480, Note_on_c, 0, 85, 0
2, 102480, Note_on_c, 0, 83, 80
2, 102720, Note_on_c, 0, 83, 0
2, 102720, Note_on_c, 0, 81, 80
2, 102960, Note_on_c, 0, 81, 0
2, 102960, Note_on_c, 0, 80, 80
2, 103200, Note_on_c, 0, 80, 0
2, 103200, Note_on_c, 0, 81, 80
2, 103440, Note_on_c, 0, 81, 0
2, 103440, Note_on_c, 0, 83, 80
2, 103680, Note_on_c, 0, 83, 0
2, 103680, Note_on_c, 0, 77, 80
2, 104400, Note_on_c, 0, 77, 0
2, 104400, Note_on_c, 0, 85, 80
2, 105120, Note_on_c, 0, 85, 0
2, 105120, Note_on_c, 0, 87, 80
2, 105840, Note_on_c, 0, 87, 0
2, 105840, Note_on_c, 0, 86, 80
2, 106560, Note_on_c, 0, 86, 0
2, 106560, Note_on_c, 0, 85, 80
2, 107520, Note_on_c, 0, 85, 0
2, 107520, Note_on_c, 0, 83, 80
2, 108240, Note_on_c, 0, 83, 0
2, 108240, Note_on_c, 0, 85, 80
2, 108468, Note_on_c, 0, 85, 0
2, 108480, Note_on_c, 0, 81, 80
2, 108960, Note_on_c, 0, 81, 0
2, 108960, Note_on_c, 0, 83, 80
2, 109104, Note_on_c, 0, 83, 0
2, 109200, Note_on_c, 0, 80, 80
2, 109344, Note_on_c, 0, 80, 0
2, 109440, Note_on_c, 0, 78, 70
2, 109896, Note_on_c, 0, 78, 0
2, 115920, Note_on_c, 0, 78, 60
2, 117360, Note_on_c, 0, 78, 0
2, 117360, Note_on_c, 0, 77, 60
2, 117840, Note_on_c, 0, 77, 0
2, 117840, Note_on_c, 0, 74, 60
2, 118080, Note_on_c, 0, 74, 0
2, 118080, Note_on_c, 0, 73, 60
2, 119520, Note_on_c, 0, 73, 0
2, 119520, Note_on_c, 0, 71, 60
2, 119760, Note_on_c, 0, 71, 0
2, 119760, Note_on_c, 0, 73, 60
2, 120000, Note_on_c, 0, 73, 0
2, 120000, Note_on_c, 0, 74, 60
2, 120480, Note_on_c, 0, 74, 0
2, 120480, Note_on_c, 0, 73, 60
2, 120720, Note_on_c, 0, 73, 0
2, 120720, Note_on_c, 0, 71, 60
2, 120960, Note_on_c, 0, 71, 0
2, 120960, Note_on_c, 0, 69, 60
2, 121344, Note_on_c, 0, 69, 0
2, 126720, Note_on_c, 0, 81, 60
2, 129600, Note_on_c, 0, 81, 0
2, 129600, Note_on_c, 0, 86, 60
2, 130320, Note_on_c, 0, 86, 0
2, 130320, Note_on_c, 0, 83, 60
2, 131040, Note_on_c, 0, 83, 0
2, 131040, Note_on_c, 0, 81, 60
2, 131760, Note_on_c, 0, 81, 0
2, 131760, Note_on_c, 0, 80, 60
2, 132480, Note_on_c, 0, 80, 0
2, 132480, Note_on_c, 0, 78, 60
2, 132672, Note_on_c, 0, 78, 0
2, 133200, Note_on_c, 0, 81, 70
2, 134160, Note_on_c, 0, 81, 0
2, 134160, Note_on_c, 0, 80, 70
2, 134400, Note_on_c, 0, 80, 0
2, 134400, Note_on_c, 0, 78, 70
2, 134640, Note_on_c, 0, 78, 0
2, 134640, Note_on_c, 0, 77, 70
2, 134880, Note_on_c, 0, 77, 0
2, 134880, Note_on_c, 0, 78, 70
2, 135120, Note_on_c, 0, 78, 0
2, 135120, Note_on_c, 0, 80, 70
2, 135360, Note_on_c, 0, 80, 0
2, 135360, Note_on_c, 0, 73, 70
2, 136044, Note_on_c, 0, 73, 0
2, 136080, Note_on_c, 0, 81, 70
2, 137040, Note_on_c, 0, 81, 0
2, 137040, Note_on_c, 0, 80, 70
2, 137280, Note_on_c, 0, 80, 0
2, 137280, Note_on_c, 0, 78, 70
2, 137520, Note_on_c, 0, 78, 0
2, 137520, Note_on_c, 0, 77, 70
2, 137760, Note_on_c, 0, 77, 0
2, 137760, Note_on_c, 0, 78, 70
2, 138000, Note_on_c, 0, 78, 0
2, 138000, Note_on_c, 0, 80, 70
2, 138240, Note_on_c, 0, 80, 0
2, 138240, Note_on_c, 0, 73, 70
2, 138924, Note_on_c, 0, 73, 0
2, 138960, Note_on_c, 0, 81, 70
2, 139920, Note_on_c, 0, 81, 0
2, 139920, Note_on_c, 0, 80, 70
2, 140160, Note_on_c, 0, 80, 0
2, 140160, Note_on_c, 0, 78, 70
2, 140400, Note_on_c, 0, 78, 0
2, 140400, Note_on_c, 0, 77, 70
2, 140640, Note_on_c, 0, 77, 0
2, 140640, Note_on_c, 0, 78, 70
2, 140880, Note_on_c, 0, 78, 0
2, 140880, Note_on_c, 0, 80, 70
2, 141120, Note_on_c, 0, 80, 0
2, 141120, Note_on_c, 0, 78, 56
2, 141264, Note_on_c, 0, 78, 0
2, 141360, Note_on_c, 0, 78, 56
2, 141504, Note_on_c, 0, 78, 0
2, 141840, Note_on_c, 0, 85, 56
2, 141984, Note_on_c, 0, 85, 0
2, 142080, Note_on_c, 0, 85, 56
2, 142224, Note_on_c, 0, 85, 0
2, 142560, Note_on_c, 0, 90, 56
2, 142692, Note_on_c, 0, 90, 0
2, 142800, Note_on_c, 0, 90, 56
2, 142932, Note_on_c, 0, 90, 0
2, 142932, End_track
3, 0, Start_track
3, 0, Sequencer_specific, 04, 43, 00, 01, 00
3, 0, Program_c, 1, 71
3, 0, Control_c, 1, 7, 76
3, 0, Control_c, 1, 10, 64
3, 0, Control_c, 1, 91, 95
3, 18000, Note_on_c, 1, 81, 80
3, 18960, Note_on_c, 1, 81, 0
3, 18960, Note_on_c, 1, 80, 80
3, 19200, Note_on_c, 1, 80, 0
3, 19200, Note_on_c, 1, 78, 80
3, 19440, Note_on_c, 1, 78, 0
3, 19440, Note_on_c, 1, 77, 80
3, 19680, Note_on_c, 1, 77, 0
3, 19680, Note_on_c, 1, 78, 80
3, 19920, Note_on_c, 1, 78, 0
3, 19920, Note_on_c, 1, 80, 80
3, 20160, Note_on_c, 1, 80, 0
3, 20160, Note_on_c, 1, 73, 60
3, 20844, Note_on_c, 1, 73, 0
3, 23760, Note_on_c, 1, 81, 80
3, 24720, Note_on_c, 1, 81, 0
3, 24720, Note_on_c, 1, 80, 80
3, 24960, Note_on_c, 1, 80, 0
3, 24960, Note_on_c, 1, 78, 80
3, 25200, Note_on_c, 1, 78, 0
3, 25200, Note_on_c, 1, 77, 80
3, 25440, Note_on_c, 1, 77, 0
3, 25440, Note_on_c, 1, 78, 80
3, 25680, Note_on_c, 1, 78, 0
3, 25680, Note_on_c, 1, 80, 80
3, 25920, Note_on_c, 1, 80, 0
3, 25920, Note_on_c, 1, 79, 80
3, 26160, Note_on_c, 1, 79, 0
3, 26160, Note_on_c, 1, 78, 80
3, 26400, Note_on_c, 1, 78, 0
3, 26400, Note_on_c, 1, 76, 80
3, 26640, Note_on_c, 1, 76, 0
3, 26640, Note_on_c, 1, 74, 80
3, 27360, Note_on_c, 1, 74, 0
3, 27360, Note_on_c, 1, 73, 80
3, 27600, Note_on_c, 1, 73, 0
3, 27600, Note_on_c, 1, 71, 80
3, 27840, Note_on_c, 1, 71, 0
3, 27840, Note_on_c, 1, 69, 80
3, 28320, Note_on_c, 1, 69, 0
3, 28320, Note_on_c, 1, 71, 80
3, 28464, Note_on_c, 1, 71, 0
3, 28560, Note_on_c, 1, 68, 80
3, 28680, Note_on_c, 1, 68, 0
3, 28800, Note_on_c, 1, 66, 70
3, 29256, Note_on_c, 1, 66, 0
3, 46080, Note_on_c, 1, 71, 60
3, 46800, Note_on_c, 1, 71, 0
3, 46800, Note_on_c, 1, 72, 60
3, 47520, Note_on_c, 1, 72, 0
3, 47520, Note_on_c, 1, 71, 60
3, 47712, Note_on_c, 1, 71, 0
3, 50400, Note_on_c, 1, 73, 60
3, 51120, Note_on_c, 1, 73, 0
3, 51120, Note_on_c, 1, 69, 60
3, 51600, Note_on_c, 1, 69, 0
3, 51600, Note_on_c, 1, 71, 60
3, 51660, Note_on_c, 1, 71, 0
3, 51660, Note_on_c, 1, 69, 60
3, 51720, Note_on_c, 1, 69, 0
3, 51720, Note_on_c, 1, 68, 60
3, 51780, Note_on_c, 1, 68, 0
3, 51780, Note_on_c, 1, 69, 60
3, 51840, Note_on_c, 1, 69, 0
3, 51840, Note_on_c, 1, 71, 60
3, 51984, Note_on_c, 1, 71, 0
3, 52080, Note_on_c, 1, 71, 60
3, 52224, Note_on_c, 1, 71, 0
3, 52320, Note_on_c, 1, 71, 60
3, 52464, Note_on_c, 1, 71, 0
3, 52560, Note_on_c, 1, 71, 60
3, 52752, Note_on_c, 1, 71, 0
3, 53400, Note_on_c, 1, 73, 70
3, 53520, Note_on_c, 1, 73, 0
3, 53520, Note_on_c, 1, 74, 70
3, 53640, Note_on_c, 1, 74, 0
3, 53640, Note_on_c, 1, 76, 70
3, 53760, Note_on_c, 1, 76, 0
3, 53760, Note_on_c, 1, 78, 70
3, 53880, Note_on_c, 1, 78, 0
3, 53880, Note_on_c, 1, 80, 70
3, 54000, Note_on_c, 1, 80, 0
3, 54000, Note_on_c, 1, 81, 70
3, 54120, Note_on_c, 1, 81, 0
3, 54120, Note_on_c, 1, 83, 70
3, 54240, Note_on_c, 1, 83, 0
3, 54240, Note_on_c, 1, 85, 70
3, 54360, Note_on_c, 1, 85, 0
3, 54360, Note_on_c, 1, 73, 70
3, 54480, Note_on_c, 1, 73, 0
3, 54480, Note_on_c, 1, 74, 70
3, 54600, Note_on_c, 1, 74, 0
3, 54600, Note_on_c, 1, 75, 70
3, 54720, Note_on_c, 1, 75, 0
3, 54720, Note_on_c, 1, 76, 70
3, 54840, Note_on_c, 1, 76, 0
3, 54840, Note_on_c, 1, 75, 70
3, 54960, Note_on_c, 1, 75, 0
3, 54960, Note_on_c, 1, 76, 70
3, 55080, Note_on_c, 1, 76, 0
3, 55080, Note_on_c, 1, 75, 70
3, 55200, Note_on_c, 1, 75, 0
3, 55200, Note_on_c, 1, 76, 70
3, 55320, Note_on_c, 1, 76, 0
3, 55320, Note_on_c, 1, 73, 70
3, 55440, Note_on_c, 1, 73, 0
3, 55440, Note_on_c, 1, 71, 70
3, 55632, Note_on_c, 1, 71, 0
3, 56160, Note_on_c, 1, 76, 60
3, 56880, Note_on_c, 1, 76, 0
3, 56880, Note_on_c, 1, 73, 60
3, 57360, Note_on_c, 1, 73, 0
3, 57360, Note_on_c, 1, 74, 60
3, 57420, Note_on_c, 1, 74, 0
3, 57420, Note_on_c, 1, 73, 60
3, 57480, Note_on_c, 1, 73, 0
3, 57480, Note_on_c, 1, 71, 60
3, 57540, Note_on_c, 1, 71, 0
3, 57540, Note_on_c, 1, 73, 60
3, 57600, Note_on_c, 1, 73, 0
3, 57600, Note_on_c, 1, 74, 60
3, 57744, Note_on_c, 1, 74, 0
3, 57840, Note_on_c, 1, 74, 60
3, 57984, Note_on_c, 1, 74, 0
3, 58080, Note_on_c, 1, 74, 60
3, 58224, Note_on_c, 1, 74, 0
3, 58320, Note_on_c, 1, 74, 60
3, 58512, Note_on_c, 1, 74, 0
3, 61920, Note_on_c, 1, 74, 70
3, 62400, Note_on_c, 1, 74, 0
3, 62400, Note_on_c, 1, 73, 66
3, 62640, Note_on_c, 1, 73, 0
3, 62640, Note_on_c, 1, 71, 65
3, 62832, Note_on_c, 1, 71, 0
3, 63360, Note_on_c, 1, 76, 73
3, 63840, Note_on_c, 1, 76, 0
3, 63840, Note_on_c, 1, 74, 68
3, 64080, Note_on_c, 1, 74, 0
3, 64080, Note_on_c, 1, 73, 67
3, 64272, Note_on_c, 1, 73, 0
3, 73440, Note_on_c, 1, 73, 60
3, 74160, Note_on_c, 1, 73, 0
3, 74160, Note_on_c, 1, 71, 60
3, 74880, Note_on_c, 1, 71, 0
3, 74880, Note_on_c, 1, 69, 60
3, 75600, Note_on_c, 1, 69, 0
3, 75600, Note_on_c, 1, 68, 59
3, 76080, Note_on_c, 1, 68, 0
3, 76080, Note_on_c, 1, 71, 56
3, 76320, Note_on_c, 1, 71, 0
3, 76320, Note_on_c, 1, 69, 55
3, 76704, Note_on_c, 1, 69, 0
3, 92160, Note_on_c, 1, 66, 60
3, 92160, Note_on_c, 1, 74, 60
3, 93600, Note_on_c, 1, 66, 0
3, 93600, Note_on_c, 1, 67, 60
3, 93792, Note_on_c, 1, 67, 0
3, 93792, Note_on_c, 1, 74, 0
3, 98640, Note_on_c, 1, 81, 80
3, 99600, Note_on_c, 1, 81, 0
3, 99600, Note_on_c, 1, 80, 80
3, 99840, Note_on_c, 1, 80, 0
3, 99840, Note_on_c, 1, 78, 80
3, 100080, Note_on_c, 1, 78, 0
3, 100080, Note_on_c, 1, 77, 80
3, 100320, Note_on_c, 1, 77, 0
3, 100320, Note_on_c, 1, 78, 80
3, 100560, Note_on_c, 1, 78, 0
3, 100560, Note_on_c, 1, 80, 80
3, 100800, Note_on_c, 1, 80, 0
3, 100800, Note_on_c, 1, 73, 60
3, 101520, Note_on_c, 1, 73, 0
3, 104400, Note_on_c, 1, 81, 80
3, 105360, Note_on_c, 1, 81, 0
3, 105360, Note_on_c, 1, 80, 80
3, 105600, Note_on_c, 1, 80, 0
3, 105600, Note_on_c, 1, 78, 80
3, 105840, Note_on_c, 1, 78, 0
3, 105840, Note_on_c, 1, 77, 80
3, 106080, Note_on_c, 1, 77, 0
3, 106080, Note_on_c, 1, 78, 80
3, 106320, Note_on_c, 1, 78, 0
3, 106320, Note_on_c, 1, 80, 80
3, 106560, Note_on_c, 1, 80, 0
3, 106560, Note_on_c, 1, 79, 80
3, 106800, Note_on_c, 1, 79, 0
3, 106800, Note_on_c, 1, 78, 80
3, 107040, Note_on_c, 1, 78, 0
3, 107040, Note_on_c, 1, 76, 80
3, 107280, Note_on_c, 1, 76, 0
3, 107280, Note_on_c, 1, 74, 80
3, 108000, Note_on_c, 1, 74, 0
3, 108000, Note_on_c, 1, 73, 80
3, 108240, Note_on_c, 1, 73, 0
3, 108240, Note_on_c, 1, 71, 80
3, 108468, Note_on_c, 1, 71, 0
3, 108480, Note_on_c, 1, 69, 80
3, 108960, Note_on_c, 1, 69, 0
3, 108960, Note_on_c, 1, 71, 80
3, 109104, Note_on_c, 1, 71, 0
3, 109200, Note_on_c, 1, 68, 80
3, 109344, Note_on_c, 1, 68, 0
3, 109440, Note_on_c, 1, 66, 70
3, 109896, Note_on_c, 1, 66, 0
3, 115920, Note_on_c, 1, 81, 60
3, 117360, Note_on_c, 1, 81, 0
3, 117360, Note_on_c, 1, 80, 60
3, 118800, Note_on_c, 1, 80, 0
3, 118800, Note_on_c, 1, 78, 60
3, 120240, Note_on_c, 1, 78, 0
3, 120240, Note_on_c, 1, 77, 60
3, 120960, Note_on_c, 1, 77, 0
3, 120960, Note_on_c, 1, 78, 60
3, 121344, Note_on_c, 1, 78, 0
3, 126720, Note_on_c, 1, 78, 60
3, 129600, Note_on_c, 1, 78, 0
3, 129600, Note_on_c, 1, 79, 60
3, 131040, Note_on_c, 1, 79, 0
3, 131040, Note_on_c, 1, 78, 60
3, 131760, Note_on_c, 1, 78, 0
3, 131760, Note_on_c, 1, 77, 60
3, 132480, Note_on_c, 1, 77, 0
3, 132480, Note_on_c, 1, 78, 60
3, 132672, Note_on_c, 1, 78, 0
3, 136080, Note_on_c, 1, 69, 60
3, 137040, Note_on_c, 1, 69, 0
3, 137040, Note_on_c, 1, 68, 60
3, 137280, Note_on_c, 1, 68, 0
3, 137280, Note_on_c, 1, 66, 60
3, 137520, Note_on_c, 1, 66, 0
3, 137520, Note_on_c, 1, 65, 60
3, 137760, Note_on_c, 1, 65, 0
3, 137760, Note_on_c, 1, 66, 60
3, 138000, Note_on_c, 1, 66, 0
3, 138000, Note_on_c, 1, 68, 60
3, 138240, Note_on_c, 1, 68, 0
3, 138240, Note_on_c, 1, 61, 60
3, 138924, Note_on_c, 1, 61, 0
3, 138960, Note_on_c, 1, 69, 60
3, 139920, Note_on_c, 1, 69, 0
3, 139920, Note_on_c, 1, 68, 60
3, 140160, Note_on_c, 1, 68, 0
3, 140160, Note_on_c, 1, 66, 60
3, 140400, Note_on_c, 1, 66, 0
3, 140400, Note_on_c, 1, 65, 60
3, 140640, Note_on_c, 1, 65, 0
3, 140640, Note_on_c, 1, 66, 60
3, 140880, Note_on_c, 1, 66, 0
3, 140880, Note_on_c, 1, 68, 60
3, 141120, Note_on_c, 1, 68, 0
3, 141120, Note_on_c, 1, 66, 55
3, 141264, Note_on_c, 1, 66, 0
3, 141360, Note_on_c, 1, 73, 55
3, 141504, Note_on_c, 1, 73, 0
3, 141840, Note_on_c, 1, 78, 55
3, 141984, Note_on_c, 1, 78, 0
3, 142080, Note_on_c, 1, 78, 55
3, 142224, Note_on_c, 1, 78, 0
3, 142560, Note_on_c, 1, 81, 55
3, 142692, Note_on_c, 1, 81, 0
3, 142800, Note_on_c, 1, 81, 55
3, 142932, Note_on_c, 1, 81, 0
3, 142932, End_track
4, 0, Start_track
4, 0, Sequencer_specific, 04, 43, 00, 01, 00
4, 0, Program_c, 2, 71
4, 0, Control_c, 2, 7, 75
4, 0, Control_c, 2, 10, 64
4, 0, Control_c, 2, 91, 95
4, 23760, Note_on_c, 2, 73, 80
4, 24480, Note_on_c, 2, 73, 0
4, 24480, Note_on_c, 2, 75, 80
4, 25200, Note_on_c, 2, 75, 0
4, 25200, Note_on_c, 2, 74, 80
4, 25920, Note_on_c, 2, 74, 0
4, 25920, Note_on_c, 2, 73, 80
4, 26880, Note_on_c, 2, 73, 0
4, 26880, Note_on_c, 2, 71, 80
4, 27120, Note_on_c, 2, 71, 0
4, 27120, Note_on_c, 2, 69, 80
4, 27360, Note_on_c, 2, 69, 0
4, 27360, Note_on_c, 2, 68, 80
4, 27600, Note_on_c, 2, 68, 0
4, 27600, Note_on_c, 2, 65, 80
4, 27840, Note_on_c, 2, 65, 0
4, 27840, Note_on_c, 2, 66, 80
4, 28320, Note_on_c, 2, 66, 0
4, 28320, Note_on_c, 2, 68, 80
4, 28464, Note_on_c, 2, 68, 0
4, 28560, Note_on_c, 2, 65, 80
4, 28680, Note_on_c, 2, 65, 0
4, 46080, Note_on_c, 2, 68, 60
4, 46800, Note_on_c, 2, 68, 0
4, 46800, Note_on_c, 2, 69, 60
4, 47520, Note_on_c, 2, 69, 0
4, 47520, Note_on_c, 2, 68, 60
4, 47712, Note_on_c, 2, 68, 0
4, 50400, Note_on_c, 2, 52, 70
4, 50448, Note_on_c, 2, 52, 0
4, 50480, Note_on_c, 2, 57, 70
4, 50528, Note_on_c, 2, 57, 0
4, 50560, Note_on_c, 2, 61, 70
4, 50608, Note_on_c, 2, 61, 0
4, 50640, Note_on_c, 2, 64, 70
4, 50688, Note_on_c, 2, 64, 0
4, 50720, Note_on_c, 2, 61, 70
4, 50768, Note_on_c, 2, 61, 0
4, 50800, Note_on_c, 2, 57, 70
4, 50848, Note_on_c, 2, 57, 0
4, 50880, Note_on_c, 2, 52, 70
4, 50928, Note_on_c, 2, 52, 0
4, 50960, Note_on_c, 2, 57, 70
4, 51008, Note_on_c, 2, 57, 0
4, 51040, Note_on_c, 2, 61, 70
4, 51088, Note_on_c, 2, 61, 0
4, 51120, Note_on_c, 2, 52, 70
4, 51168, Note_on_c, 2, 52, 0
4, 51200, Note_on_c, 2, 57, 70
4, 51248, Note_on_c, 2, 57, 0
4, 51280, Note_on_c, 2, 61, 70
4, 51328, Note_on_c, 2, 61, 0
4, 51360, Note_on_c, 2, 64, 70
4, 51408, Note_on_c, 2, 64, 0
4, 51440, Note_on_c, 2, 61, 70
4, 51488, Note_on_c, 2, 61, 0
4, 51520, Note_on_c, 2, 57, 70
4, 51568, Note_on_c, 2, 57, 0
4, 51600, Note_on_c, 2, 52, 70
4, 51648, Note_on_c, 2, 52, 0
4, 51680, Note_on_c, 2, 57, 70
4, 51728, Note_on_c, 2, 57, 0
4, 51760, Note_on_c, 2, 61, 70
4, 51808, Note_on_c, 2, 61, 0
4, 51840, Note_on_c, 2, 52, 70
4, 51888, Note_on_c, 2, 52, 0
4, 51920, Note_on_c, 2, 56, 70
4, 51968, Note_on_c, 2, 56, 0
4, 52000, Note_on_c, 2, 59, 70
4, 52048, Note_on_c, 2, 59, 0
4, 52080, Note_on_c, 2, 64, 70
4, 52128, Note_on_c, 2, 64, 0
4, 52160, Note_on_c, 2, 59, 70
4, 52208, Note_on_c, 2, 59, 0
4, 52240, Note_on_c, 2, 56, 70
4, 52288, Note_on_c, 2, 56, 0
4, 52320, Note_on_c, 2, 52, 70
4, 52368, Note_on_c, 2, 52, 0
4, 52400, Note_on_c, 2, 56, 70
4, 52448, Note_on_c, 2, 56, 0
4, 52480, Note_on_c, 2, 59, 70
4, 52528, Note_on_c, 2, 59, 0
4, 52560, Note_on_c, 2, 52, 70
4, 52608, Note_on_c, 2, 52, 0
4, 52640, Note_on_c, 2, 56, 70
4, 52688, Note_on_c, 2, 56, 0
4, 52720, Note_on_c, 2, 59, 70
4, 52768, Note_on_c, 2, 59, 0
4, 52800, Note_on_c, 2, 64, 70
4, 52848, Note_on_c, 2, 64, 0
4, 52880, Note_on_c, 2, 59, 70
4, 52928, Note_on_c, 2, 59, 0
4, 52960, Note_on_c, 2, 56, 70
4, 53008, Note_on_c, 2, 56, 0
4, 53040, Note_on_c, 2, 52, 70
4, 53088, Note_on_c, 2, 52, 0
4, 53120, Note_on_c, 2, 56, 70
4, 53168, Note_on_c, 2, 56, 0
4, 53200, Note_on_c, 2, 59, 70
4, 53248, Note_on_c, 2, 59, 0
4, 53280, Note_on_c, 2, 57, 60
4, 53472, Note_on_c, 2, 57, 0
4, 54360, Note_on_c, 2, 69, 60
4, 54480, Note_on_c, 2, 69, 0
4, 54480, Note_on_c, 2, 71, 60
4, 54600, Note_on_c, 2, 71, 0
4, 54600, Note_on_c, 2, 72, 60
4, 54720, Note_on_c, 2, 72, 0
4, 54720, Note_on_c, 2, 73, 60
4, 54840, Note_on_c, 2, 73, 0
4, 54840, Note_on_c, 2, 72, 60
4, 54960, Note_on_c, 2, 72, 0
4, 54960, Note_on_c, 2, 73, 60
4, 55080, Note_on_c, 2, 73, 0
4, 55080, Note_on_c, 2, 72, 60
4, 55200, Note_on_c, 2, 72, 0
4, 55200, Note_on_c, 2, 73, 60
4, 55320, Note_on_c, 2, 73, 0
4, 55320, Note_on_c, 2, 69, 60
4, 55440, Note_on_c, 2, 69, 0
4, 55440, Note_on_c, 2, 68, 60
4, 55632, Note_on_c, 2, 68, 0
4, 56160, Note_on_c, 2, 73, 60
4, 56880, Note_on_c, 2, 73, 0
4, 56880, Note_on_c, 2, 69, 60
4, 57360, Note_on_c, 2, 69, 0
4, 57360, Note_on_c, 2, 71, 60
4, 57420, Note_on_c, 2, 71, 0
4, 57420, Note_on_c, 2, 69, 60
4, 57480, Note_on_c, 2, 69, 0
4, 57480, Note_on_c, 2, 68, 60
4, 57540, Note_on_c, 2, 68, 0
4, 57540, Note_on_c, 2, 69, 60
4, 57600, Note_on_c, 2, 69, 0
4, 57600, Note_on_c, 2, 71, 60
4, 57744, Note_on_c, 2, 71, 0
4, 57840, Note_on_c, 2, 71, 60
4, 57984, Note_on_c, 2, 71, 0
4, 58080, Note_on_c, 2, 71, 60
4, 58224, Note_on_c, 2, 71, 0
4, 58320, Note_on_c, 2, 71, 60
4, 58512, Note_on_c, 2, 71, 0
4, 61920, Note_on_c, 2, 71, 66
4, 62400, Note_on_c, 2, 71, 0
4, 62400, Note_on_c, 2, 69, 60
4, 62640, Note_on_c, 2, 69, 0
4, 62640, Note_on_c, 2, 68, 59
4, 62832, Note_on_c, 2, 68, 0
4, 63360, Note_on_c, 2, 73, 65
4, 63840, Note_on_c, 2, 73, 0
4, 63840, Note_on_c, 2, 71, 59
4, 64080, Note_on_c, 2, 71, 0
4, 64080, Note_on_c, 2, 69, 58
4, 64272, Note_on_c, 2, 69, 0
4, 73440, Note_on_c, 2, 69, 60
4, 74400, Note_on_c, 2, 69, 0
4, 74400, Note_on_c, 2, 68, 60
4, 75120, Note_on_c, 2, 68, 0
4, 75120, Note_on_c, 2, 66, 60
4, 75840, Note_on_c, 2, 66, 0
4, 75840, Note_on_c, 2, 65, 57
4, 76080, Note_on_c, 2, 65, 0
4, 76080, Note_on_c, 2, 68, 54
4, 76320, Note_on_c, 2, 68, 0
4, 76320, Note_on_c, 2, 66, 50
4, 76704, Note_on_c, 2, 66, 0
4, 104400, Note_on_c, 2, 73, 80
4, 105120, Note_on_c, 2, 73, 0
4, 105120, Note_on_c, 2, 75, 80
4, 105840, Note_on_c, 2, 75, 0
4, 105840, Note_on_c, 2, 74, 80
4, 106560, Note_on_c, 2, 74, 0
4, 106560, Note_on_c, 2, 73, 80
4, 107520, Note_on_c, 2, 73, 0
4, 107520, Note_on_c, 2, 71, 80
4, 107760, Note_on_c, 2, 71, 0
4, 107760, Note_on_c, 2, 69, 80
4, 108000, Note_on_c, 2, 69, 0
4, 108000, Note_on_c, 2, 68, 80
4, 108240, Note_on_c, 2, 68, 0
4, 108240, Note_on_c, 2, 65, 80
4, 108468, Note_on_c, 2, 65, 0
4, 108480, Note_on_c, 2, 66, 80
4, 108960, Note_on_c, 2, 66, 0
4, 108960, Note_on_c, 2, 68, 80
4, 109104, Note_on_c, 2, 68, 0
4, 109200, Note_on_c, 2, 65, 80
4, 109344, Note_on_c, 2, 65, 0
4, 115200, Note_on_c, 2, 73, 60
4, 116640, Note_on_c, 2, 73, 0
4, 116640, Note_on_c, 2, 72, 60
4, 117360, Note_on_c, 2, 72, 0
4, 117360, Note_on_c, 2, 71, 60
4, 118080, Note_on_c, 2, 71, 0
4, 118080, Note_on_c, 2, 70, 60
4, 118800, Note_on_c, 2, 70, 0
4, 118800, Note_on_c, 2, 69, 60
4, 119520, Note_on_c, 2, 69, 0
4, 119520, Note_on_c, 2, 68, 60
4, 120960, Note_on_c, 2, 68, 0
4, 120960, Note_on_c, 2, 66, 60
4, 121344, Note_on_c, 2, 66, 0
4, 126720, Note_on_c, 2, 73, 60
4, 128160, Note_on_c, 2, 73, 0
4, 128160, Note_on_c, 2, 74, 60
4, 129600, Note_on_c, 2, 74, 0
4, 129600, Note_on_c, 2, 67, 60
4, 131040, Note_on_c, 2, 67, 0
4, 131040, Note_on_c, 2, 69, 60
4, 131760, Note_on_c, 2, 69, 0
4, 131760, Note_on_c, 2, 68, 60
4, 132480, Note_on_c, 2, 68, 0
4, 132480, Note_on_c, 2, 66, 60
4, 132672, Note_on_c, 2, 66, 0
4, 141360, Note_on_c, 2, 69, 54
4, 141504, Note_on_c, 2, 69, 0
4, 141840, Note_on_c, 2, 69, 54
4, 141984, Note_on_c, 2, 69, 0
4, 142080, Note_on_c, 2, 69, 54
4, 142224, Note_on_c, 2, 69, 0
4, 142560, Note_on_c, 2, 73, 54
4, 142692, Note_on_c, 2, 73, 0
4, 142800, Note_on_c, 2, 73, 54
4, 142932, Note_on_c, 2, 73, 0
4, 142932, End_track
5, 0, Start_track
5, 0, Sequencer_specific, 04, 43, 00, 01, 00
5, 0, Program_c, 3, 70
5, 0, Control_c, 3, 7, 76
5, 0, Control_c, 3, 10, 80
5, 0, Control_c, 3, 91, 95
5, 19440, Note_on_c, 3, 59, 60
5, 20400, Note_on_c, 3, 59, 0
5, 20400, Note_on_c, 3, 57, 60
5, 20640, Note_on_c, 3, 57, 0
5, 20640, Note_on_c, 3, 56, 60
5, 20880, Note_on_c, 3, 56, 0
5, 20880, Note_on_c, 3, 54, 60
5, 21120, Note_on_c, 3, 54, 0
5, 21120, Note_on_c, 3, 56, 60
5, 21360, Note_on_c, 3, 56, 0
5, 21360, Note_on_c, 3, 57, 60
5, 21600, Note_on_c, 3, 57, 0
5, 21600, Note_on_c, 3, 50, 60
5, 22284, Note_on_c, 3, 50, 0
5, 22320, Note_on_c, 3, 62, 60
5, 23280, Note_on_c, 3, 62, 0
5, 23280, Note_on_c, 3, 61, 60
5, 23520, Note_on_c, 3, 61, 0
5, 23520, Note_on_c, 3, 59, 60
5, 23760, Note_on_c, 3, 59, 0
5, 23760, Note_on_c, 3, 57, 60
5, 24000, Note_on_c, 3, 57, 0
5, 24000, Note_on_c, 3, 56, 80
5, 24240, Note_on_c, 3, 56, 0
5, 24240, Note_on_c, 3, 54, 80
5, 24480, Note_on_c, 3, 54, 0
5, 24480, Note_on_c, 3, 63, 80
5, 25200, Note_on_c, 3, 63, 0
5, 25200, Note_on_c, 3, 62, 80
5, 25920, Note_on_c, 3, 62, 0
5, 25920, Note_on_c, 3, 67, 80
5, 26160, Note_on_c, 3, 67, 0
5, 26160, Note_on_c, 3, 66, 80
5, 26400, Note_on_c, 3, 66, 0
5, 26400, Note_on_c, 3, 64, 80
5, 26640, Note_on_c, 3, 64, 0
5, 26640, Note_on_c, 3, 62, 80
5, 27360, Note_on_c, 3, 62, 0
5, 27360, Note_on_c, 3, 61, 80
5, 27600, Note_on_c, 3, 61, 0
5, 27600, Note_on_c, 3, 59, 80
5, 27840, Note_on_c, 3, 59, 0
5, 27840, Note_on_c, 3, 57, 80
5, 28320, Note_on_c, 3, 57, 0
5, 28320, Note_on_c, 3, 59, 80
5, 28464, Note_on_c, 3, 59, 0
5, 28560, Note_on_c, 3, 56, 80
5, 28680, Note_on_c, 3, 56, 0
5, 28800, Note_on_c, 3, 54, 70
5, 29256, Note_on_c, 3, 54, 0
5, 47520, Note_on_c, 3, 56, 60
5, 47520, Note_on_c, 3, 59, 60
5, 48240, Note_on_c, 3, 59, 0
5, 48240, Note_on_c, 3, 56, 0
5, 48240, Note_on_c, 3, 57, 60
5, 48240, Note_on_c, 3, 60, 60
5, 48960, Note_on_c, 3, 60, 0
5, 48960, Note_on_c, 3, 57, 0
5, 48960, Note_on_c, 3, 56, 60
5, 48960, Note_on_c, 3, 59, 60
5, 49344, Note_on_c, 3, 59, 0
5, 49344, Note_on_c, 3, 56, 0
5, 53400, Note_on_c, 3, 57, 60
5, 53520, Note_on_c, 3, 57, 0
5, 53520, Note_on_c, 3, 59, 60
5, 53640, Note_on_c, 3, 59, 0
5, 53640, Note_on_c, 3, 61, 60
5, 53760, Note_on_c, 3, 61, 0
5, 53760, Note_on_c, 3, 62, 60
5, 53880, Note_on_c, 3, 62, 0
5, 53880, Note_on_c, 3, 59, 60
5, 54000, Note_on_c, 3, 59, 0
5, 54000, Note_on_c, 3, 61, 60
5, 54120, Note_on_c, 3, 61, 0
5, 54120, Note_on_c, 3, 56, 60
5, 54240, Note_on_c, 3, 56, 0
5, 54240, Note_on_c, 3, 57, 60
5, 54360, Note_on_c, 3, 57, 0
5, 54360, Note_on_c, 3, 61, 60
5, 54480, Note_on_c, 3, 61, 0
5, 54480, Note_on_c, 3, 62, 60
5, 54600, Note_on_c, 3, 62, 0
5, 54600, Note_on_c, 3, 63, 60
5, 54720, Note_on_c, 3, 63, 0
5, 54720, Note_on_c, 3, 64, 60
5, 54840, Note_on_c, 3, 64, 0
5, 54840, Note_on_c, 3, 63, 60
5, 54960, Note_on_c, 3, 63, 0
5, 54960, Note_on_c, 3, 64, 60
5, 55080, Note_on_c, 3, 64, 0
5, 55080, Note_on_c, 3, 63, 60
5, 55200, Note_on_c, 3, 63, 0
5, 55200, Note_on_c, 3, 64, 60
5, 55320, Note_on_c, 3, 64, 0
5, 55320, Note_on_c, 3, 61, 60
5, 55440, Note_on_c, 3, 61, 0
5, 55440, Note_on_c, 3, 59, 60
5, 55632, Note_on_c, 3, 59, 0
5, 56160, Note_on_c, 3, 57, 60
5, 56160, Note_on_c, 3, 45, 60
5, 56616, Note_on_c, 3, 45, 0
5, 56616, Note_on_c, 3, 57, 0
5, 56640, Note_on_c, 3, 57, 60
5, 56640, Note_on_c, 3, 45, 60
5, 56868, Note_on_c, 3, 45, 0
5, 56868, Note_on_c, 3, 57, 0
5, 56880, Note_on_c, 3, 57, 60
5, 56880, Note_on_c, 3, 45, 60
5, 57336, Note_on_c, 3, 45, 0
5, 57336, Note_on_c, 3, 57, 0
5, 57360, Note_on_c, 3, 45, 60
5, 57360, Note_on_c, 3, 57, 60
5, 57588, Note_on_c, 3, 57, 0
5, 57588, Note_on_c, 3, 45, 0
5, 57600, Note_on_c, 3, 44, 60
5, 57600, Note_on_c, 3, 56, 60
5, 57744, Note_on_c, 3, 56, 0
5, 57744, Note_on_c, 3, 44, 0
5, 57840, Note_on_c, 3, 44, 60
5, 57840, Note_on_c, 3, 56, 60
5, 57984, Note_on_c, 3, 56, 0
5, 57984, Note_on_c, 3, 44, 0
5, 58080, Note_on_c, 3, 44, 60
5, 58080, Note_on_c, 3, 56, 60
5, 58224, Note_on_c, 3, 56, 0
5, 58224, Note_on_c, 3, 44, 0
5, 58320, Note_on_c, 3, 56, 60
5, 58320, Note_on_c, 3, 44, 60
5, 58512, Note_on_c, 3, 44, 0
5, 58512, Note_on_c, 3, 56, 0
5, 62160, Note_on_c, 3, 56, 71
5, 62160, Note_on_c, 3, 44, 71
5, 62400, Note_on_c, 3, 44, 0
5, 62400, Note_on_c, 3, 56, 0
5, 62400, Note_on_c, 3, 57, 68
5, 62400, Note_on_c, 3, 45, 68
5, 62640, Note_on_c, 3, 45, 0
5, 62640, Note_on_c, 3, 57, 0
5, 62640, Note_on_c, 3, 52, 66
5, 62640, Note_on_c, 3, 40, 66
5, 62832, Note_on_c, 3, 40, 0
5, 62832, Note_on_c, 3, 52, 0
5, 63360, Note_on_c, 3, 45, 72
5, 63360, Note_on_c, 3, 57, 72
5, 63600, Note_on_c, 3, 57, 0
5, 63600, Note_on_c, 3, 45, 0
5, 63600, Note_on_c, 3, 49, 69
5, 63600, Note_on_c, 3, 61, 69
5, 63840, Note_on_c, 3, 61, 0
5, 63840, Note_on_c, 3, 49, 0
5, 63840, Note_on_c, 3, 52, 68
5, 63840, Note_on_c, 3, 56, 68
5, 64080, Note_on_c, 3, 56, 0
5, 64080, Note_on_c, 3, 52, 0
5, 64080, Note_on_c, 3, 57, 67
5, 64272, Note_on_c, 3, 57, 0
5, 67040, Note_on_c, 3, 59, 80
5, 67092, Note_on_c, 3, 59, 0
5, 67120, Note_on_c, 3, 57, 80
5, 67172, Note_on_c, 3, 57, 0
5, 67200, Note_on_c, 3, 56, 80
5, 67252, Note_on_c, 3, 56, 0
5, 67280, Note_on_c, 3, 54, 80
5, 67332, Note_on_c, 3, 54, 0
5, 67360, Note_on_c, 3, 52, 80
5, 67412, Note_on_c, 3, 52, 0
5, 67440, Note_on_c, 3, 50, 80
5, 67492, Note_on_c, 3, 50, 0
5, 67520, Note_on_c, 3, 49, 80
5, 67572, Note_on_c, 3, 49, 0
5, 67600, Note_on_c, 3, 47, 80
5, 67652, Note_on_c, 3, 47, 0
5, 68480, Note_on_c, 3, 61, 80
5, 68532, Note_on_c, 3, 61, 0
5, 68560, Note_on_c, 3, 59, 80
5, 68612, Note_on_c, 3, 59, 0
5, 68640, Note_on_c, 3, 57, 80
5, 68692, Note_on_c, 3, 57, 0
5, 68720, Note_on_c, 3, 56, 80
5, 68772, Note_on_c, 3, 56, 0
5, 68800, Note_on_c, 3, 54, 80
5, 68852, Note_on_c, 3, 54, 0
5, 68880, Note_on_c, 3, 52, 80
5, 68932, Note_on_c, 3, 52, 0
5, 68960, Note_on_c, 3, 50, 80
5, 69012, Note_on_c, 3, 50, 0
5, 69040, Note_on_c, 3, 49, 80
5, 69092, Note_on_c, 3, 49, 0
5, 70560, Note_on_c, 3, 61, 60
5, 72000, Note_on_c, 3, 61, 0
5, 72000, Note_on_c, 3, 59, 60
5, 73440, Note_on_c, 3, 59, 0
5, 73440, Note_on_c, 3, 57, 70
5, 73632, Note_on_c, 3, 57, 0
5, 73920, Note_on_c, 3, 57, 70
5, 74160, Note_on_c, 3, 57, 0
5, 74160, Note_on_c, 3, 59, 70
5, 74352, Note_on_c, 3, 59, 0
5, 74640, Note_on_c, 3, 59, 70
5, 74880, Note_on_c, 3, 59, 0
5, 74880, Note_on_c, 3, 61, 70
5, 75072, Note_on_c, 3, 61, 0
5, 75360, Note_on_c, 3, 61, 70
5, 75600, Note_on_c, 3, 61, 0
5, 75600, Note_on_c, 3, 49, 69
5, 75792, Note_on_c, 3, 49, 0
5, 76080, Note_on_c, 3, 49, 60
5, 76320, Note_on_c, 3, 49, 0
5, 76320, Note_on_c, 3, 54, 56
5, 76704, Note_on_c, 3, 54, 0
5, 92160, Note_on_c, 3, 50, 60
5, 92160, Note_on_c, 3, 62, 60
5, 93600, Note_on_c, 3, 50, 0
5, 93600, Note_on_c, 3, 47, 60
5, 93792, Note_on_c, 3, 47, 0
5, 93792, Note_on_c, 3, 62, 0
5, 100080, Note_on_c, 3, 59, 60
5, 101040, Note_on_c, 3, 59, 0
5, 101040, Note_on_c, 3, 57, 60
5, 101280, Note_on_c, 3, 57, 0
5, 101280, Note_on_c, 3, 56, 60
5, 101520, Note_on_c, 3, 56, 0
5, 101520, Note_on_c, 3, 54, 60
5, 101760, Note_on_c, 3, 54, 0
5, 101760, Note_on_c, 3, 56, 60
5, 102000, Note_on_c, 3, 56, 0
5, 102000, Note_on_c, 3, 57, 60
5, 102240, Note_on_c, 3, 57, 0
5, 102240, Note_on_c, 3, 50, 60
5, 102960, Note_on_c, 3, 50, 0
5, 102960, Note_on_c, 3, 62, 60
5, 103920, Note_on_c, 3, 62, 0
5, 103920, Note_on_c, 3, 61, 60
5, 104160, Note_on_c, 3, 61, 0
5, 104160, Note_on_c, 3, 59, 60
5, 104400, Note_on_c, 3, 59, 0
5, 104400, Note_on_c, 3, 57, 80
5, 104640, Note_on_c, 3, 57, 0
5, 104640, Note_on_c, 3, 56, 80
5, 104880, Note_on_c, 3, 56, 0
5, 104880, Note_on_c, 3, 54, 80
5, 105120, Note_on_c, 3, 54, 0
5, 105120, Note_on_c, 3, 63, 80
5, 105840, Note_on_c, 3, 63, 0
5, 105840, Note_on_c, 3, 62, 80
5, 106560, Note_on_c, 3, 62, 0
5, 106560, Note_on_c, 3, 67, 80
5, 106800, Note_on_c, 3, 67, 0
5, 106800, Note_on_c, 3, 66, 80
5, 107040, Note_on_c, 3, 66, 0
5, 107040, Note_on_c, 3, 64, 80
5, 107280, Note_on_c, 3, 64, 0
5, 107280, Note_on_c, 3, 62, 80
5, 108000, Note_on_c, 3, 62, 0
5, 108000, Note_on_c, 3, 61, 80
5, 108240, Note_on_c, 3, 61, 0
5, 108240, Note_on_c, 3, 59, 80
5, 108468, Note_on_c, 3, 59, 0
5, 108480, Note_on_c, 3, 57, 80
5, 108960, Note_on_c, 3, 57, 0
5, 108960, Note_on_c, 3, 59, 80
5, 109104, Note_on_c, 3, 59, 0
5, 109200, Note_on_c, 3, 56, 80
5, 109344, Note_on_c, 3, 56, 0
5, 109440, Note_on_c, 3, 54, 70
5, 109896, Note_on_c, 3, 54, 0
5, 116040, Note_on_c, 3, 49, 70
5, 116118, Note_on_c, 3, 49, 0
5, 116160, Note_on_c, 3, 54, 70
5, 116238, Note_on_c, 3, 54, 0
5, 116280, Note_on_c, 3, 57, 70
5, 116358, Note_on_c, 3, 57, 0
5, 116400, Note_on_c, 3, 61, 70
5, 116478, Note_on_c, 3, 61, 0
5, 116520, Note_on_c, 3, 49, 70
5, 116598, Note_on_c, 3, 49, 0
5, 117480, Note_on_c, 3, 49, 70
5, 117558, Note_on_c, 3, 49, 0
5, 117600, Note_on_c, 3, 53, 70
5, 117678, Note_on_c, 3, 53, 0
5, 117720, Note_on_c, 3, 56, 70
5, 117798, Note_on_c, 3, 56, 0
5, 117840, Note_on_c, 3, 61, 70
5, 117918, Note_on_c, 3, 61, 0
5, 117960, Note_on_c, 3, 49, 70
5, 118038, Note_on_c, 3, 49, 0
5, 118920, Note_on_c, 3, 49, 70
5, 118998, Note_on_c, 3, 49, 0
5, 119040, Note_on_c, 3, 54, 70
5, 119118, Note_on_c, 3, 54, 0
5, 119160, Note_on_c, 3, 57, 70
5, 119238, Note_on_c, 3, 57, 0
5, 119280, Note_on_c, 3, 61, 70
5, 119358, Note_on_c, 3, 61, 0
5, 119400, Note_on_c, 3, 49, 70
5, 119478, Note_on_c, 3, 49, 0
5, 120360, Note_on_c, 3, 49, 70
5, 120438, Note_on_c, 3, 49, 0
5, 120480, Note_on_c, 3, 53, 70
5, 120558, Note_on_c, 3, 53, 0
5, 120600, Note_on_c, 3, 56, 70
5, 120678, Note_on_c, 3, 56, 0
5, 120720, Note_on_c, 3, 61, 70
5, 120798, Note_on_c, 3, 61, 0
5, 120840, Note_on_c, 3, 49, 70
5, 120918, Note_on_c, 3, 49, 0
5, 120960, Note_on_c, 3, 54, 70
5, 121344, Note_on_c, 3, 54, 0
5, 126720, Note_on_c, 3, 61, 60
5, 126720, Note_on_c, 3, 66, 60
5, 128160, Note_on_c, 3, 61, 0
5, 128160, Note_on_c, 3, 62, 60
5, 129600, Note_on_c, 3, 62, 0
5, 129600, Note_on_c, 3, 66, 0
5, 129600, Note_on_c, 3, 62, 60
5, 129600, Note_on_c, 3, 59, 60
5, 131040, Note_on_c, 3, 59, 0
5, 131040, Note_on_c, 3, 62, 0
5, 131040, Note_on_c, 3, 66, 60
5, 131760, Note_on_c, 3, 66, 0
5, 131760, Note_on_c, 3, 65, 60
5, 132480, Note_on_c, 3, 65, 0
5, 132480, Note_on_c, 3, 66, 60
5, 132672, Note_on_c, 3, 66, 0
5, 138960, Note_on_c, 3, 57, 60
5, 139920, Note_on_c, 3, 57, 0
5, 139920, Note_on_c, 3, 56, 60
5, 140160, Note_on_c, 3, 56, 0
5, 140160, Note_on_c, 3, 54, 60
5, 140400, Note_on_c, 3, 54, 0
5, 140400, Note_on_c, 3, 53, 60
5, 140640, Note_on_c, 3, 53, 0
5, 140640, Note_on_c, 3, 54, 60
5, 140880, Note_on_c, 3, 54, 0
5, 140880, Note_on_c, 3, 56, 60
5, 141120, Note_on_c, 3, 56, 0
5, 141120, Note_on_c, 3, 54, 55
5, 141264, Note_on_c, 3, 54, 0
5, 141360, Note_on_c, 3, 54, 55
5, 141360, Note_on_c, 3, 57, 55
5, 141504, Note_on_c, 3, 57, 0
5, 141504, Note_on_c, 3, 54, 0
5, 141840, Note_on_c, 3, 66, 55
5, 141840, Note_on_c, 3, 54, 55
5, 141984, Note_on_c, 3, 54, 0
5, 141984, Note_on_c, 3, 66, 0
5, 142080, Note_on_c, 3, 66, 55
5, 142080, Note_on_c, 3, 54, 55
5, 142224, Note_on_c, 3, 54, 0
5, 142224, Note_on_c, 3, 66, 0
5, 142560, Note_on_c, 3, 66, 55
5, 142560, Note_on_c, 3, 54, 55
5, 142692, Note_on_c, 3, 54, 0
5, 142692, Note_on_c, 3, 66, 0
5, 142800, Note_on_c, 3, 66, 55
5, 142800, Note_on_c, 3, 54, 55
5, 142932, Note_on_c, 3, 54, 0
5, 142932, Note_on_c, 3, 66, 0
5, 142932, End_track
6, 0, Start_track
6, 0, Sequencer_specific, 04, 43, 00, 01, 00
6, 0, Program_c, 3, 70
6, 0, Control_c, 3, 7, 75
6, 0, Control_c, 3, 10, 80
6, 0, Control_c, 3, 91, 95
6, 17280, Note_on_c, 3, 42, 60
6, 19440, Note_on_c, 3, 42, 0
6, 19440, Note_on_c, 3, 44, 60
6, 20160, Note_on_c, 3, 44, 0
6, 20160, Note_on_c, 3, 45, 60
6, 21600, Note_on_c, 3, 45, 0
6, 21600, Note_on_c, 3, 47, 60
6, 22752, Note_on_c, 3, 47, 0
6, 23040, Note_on_c, 3, 49, 60
6, 23616, Note_on_c, 3, 49, 0
6, 23760, Note_on_c, 3, 42, 80
6, 24336, Note_on_c, 3, 42, 0
6, 24480, Note_on_c, 3, 48, 80
6, 25200, Note_on_c, 3, 48, 0
6, 25200, Note_on_c, 3, 47, 80
6, 25920, Note_on_c, 3, 47, 0
6, 25920, Note_on_c, 3, 46, 80
6, 26640, Note_on_c, 3, 46, 0
6, 26640, Note_on_c, 3, 47, 80
6, 26880, Note_on_c, 3, 47, 0
6, 26880, Note_on_c, 3, 59, 80
6, 27120, Note_on_c, 3, 59, 0
6, 27120, Note_on_c, 3, 57, 80
6, 27360, Note_on_c, 3, 57, 0
6, 27360, Note_on_c, 3, 56, 80
6, 27600, Note_on_c, 3, 56, 0
6, 27600, Note_on_c, 3, 53, 80
6, 27840, Note_on_c, 3, 53, 0
6, 27840, Note_on_c, 3, 54, 80
6, 28320, Note_on_c, 3, 54, 0
6, 28320, Note_on_c, 3, 56, 80
6, 28464, Note_on_c, 3, 56, 0
6, 28560, Note_on_c, 3, 53, 80
6, 28680, Note_on_c, 3, 53, 0
6, 54360, Note_on_c, 3, 57, 60
6, 54480, Note_on_c, 3, 57, 0
6, 54480, Note_on_c, 3, 59, 60
6, 54600, Note_on_c, 3, 59, 0
6, 54600, Note_on_c, 3, 60, 60
6, 54720, Note_on_c, 3, 60, 0
6, 54720, Note_on_c, 3, 61, 60
6, 54840, Note_on_c, 3, 61, 0
6, 54840, Note_on_c, 3, 60, 60
6, 54960, Note_on_c, 3, 60, 0
6, 54960, Note_on_c, 3, 61, 60
6, 55080, Note_on_c, 3, 61, 0
6, 55080, Note_on_c, 3, 60, 60
6, 55200, Note_on_c, 3, 60, 0
6, 55200, Note_on_c, 3, 61, 60
6, 55320, Note_on_c, 3, 61, 0
6, 55320, Note_on_c, 3, 57, 60
6, 55440, Note_on_c, 3, 57, 0
6, 55440, Note_on_c, 3, 56, 60
6, 55632, Note_on_c, 3, 56, 0
6, 70560, Note_on_c, 3, 57, 60
6, 72720, Note_on_c, 3, 57, 0
6, 72720, Note_on_c, 3, 56, 60
6, 73440, Note_on_c, 3, 56, 0
6, 97920, Note_on_c, 3, 42, 60
6, 100080, Note_on_c, 3, 42, 0
6, 100080, Note_on_c, 3, 44, 60
6, 100800, Note_on_c, 3, 44, 0
6, 100800, Note_on_c, 3, 45, 60
6, 102240, Note_on_c, 3, 45, 0
6, 102240, Note_on_c, 3, 47, 60
6, 103680, Note_on_c, 3, 47, 0
6, 103680, Note_on_c, 3, 49, 60
6, 104400, Note_on_c, 3, 49, 0
6, 104400, Note_on_c, 3, 42, 60
6, 105120, Note_on_c, 3, 42, 0
6, 105120, Note_on_c, 3, 48, 80
6, 105840, Note_on_c, 3, 48, 0
6, 105840, Note_on_c, 3, 47, 80
6, 106560, Note_on_c, 3, 47, 0
6, 106560, Note_on_c, 3, 46, 80
6, 107280, Note_on_c, 3, 46, 0
6, 107280, Note_on_c, 3, 47, 80
6, 107520, Note_on_c, 3, 47, 0
6, 107520, Note_on_c, 3, 59, 80
6, 107760, Note_on_c, 3, 59, 0
6, 107760, Note_on_c, 3, 57, 80
6, 108000, Note_on_c, 3, 57, 0
6, 108000, Note_on_c, 3, 56, 80
6, 108240, Note_on_c, 3, 56, 0
6, 108240, Note_on_c, 3, 53, 80
6, 108468, Note_on_c, 3, 53, 0
6, 108480, Note_on_c, 3, 54, 80
6, 108960, Note_on_c, 3, 54, 0
6, 108960, Note_on_c, 3, 56, 80
6, 109104, Note_on_c, 3, 56, 0
6, 109200, Note_on_c, 3, 53, 80
6, 109344, Note_on_c, 3, 53, 0
6, 131040, Note_on_c, 3, 61, 80
6, 132480, Note_on_c, 3, 61, 0
6, 132480, Note_on_c, 3, 57, 60
6, 132672, Note_on_c, 3, 57, 0
6, 132672, End_track
7, 0, Start_track
7, 0, Sequencer_specific, 04, 43, 00, 01, 00
7, 0, Program_c, 4, 60
7, 0, Control_c, 4, 7, 97
7, 0, Control_c, 4, 10, 36
7, 0, Control_c, 4, 91, 80
7, 27360, Note_on_c, 4, 61, 80
7, 27936, Note_on_c, 4, 61, 0
7, 28560, Note_on_c, 4, 61, 80
7, 28752, Note_on_c, 4, 61, 0
7, 28800, Note_on_c, 4, 61, 70
7, 29256, Note_on_c, 4, 61, 0
7, 40320, Note_on_c, 4, 52, 60
7, 40320, Note_on_c, 4, 64, 60
7, 44612, Note_on_c, 4, 64, 0
7, 44612, Note_on_c, 4, 52, 0
7, 46080, Note_on_c, 4, 52, 60
7, 46080, Note_on_c, 4, 64, 60
7, 49344, Note_on_c, 4, 64, 0
7, 49344, Note_on_c, 4, 52, 0
7, 56160, Note_on_c, 4, 52, 60
7, 56160, Note_on_c, 4, 64, 60
7, 57744, Note_on_c, 4, 64, 0
7, 57744, Note_on_c, 4, 52, 0
7, 57840, Note_on_c, 4, 64, 60
7, 57840, Note_on_c, 4, 52, 60
7, 57984, Note_on_c, 4, 52, 0
7, 57984, Note_on_c, 4, 64, 0
7, 58080, Note_on_c, 4, 64, 60
7, 58080, Note_on_c, 4, 52, 60
7, 58224, Note_on_c, 4, 52, 0
7, 58224, Note_on_c, 4, 64, 0
7, 58320, Note_on_c, 4, 64, 60
7, 58320, Note_on_c, 4, 52, 60
7, 58512, Note_on_c, 4, 52, 0
7, 58512, Note_on_c, 4, 64, 0
7, 60480, Note_on_c, 4, 64, 60
7, 61200, Note_on_c, 4, 64, 0
7, 61200, Note_on_c, 4, 57, 70
7, 61200, Note_on_c, 4, 69, 70
7, 61440, Note_on_c, 4, 69, 0
7, 61440, Note_on_c, 4, 57, 0
7, 61440, Note_on_c, 4, 61, 70
7, 61440, Note_on_c, 4, 73, 70
7, 61680, Note_on_c, 4, 73, 0
7, 61680, Note_on_c, 4, 61, 0
7, 61680, Note_on_c, 4, 69, 70
7, 61680, Note_on_c, 4, 57, 70
7, 61920, Note_on_c, 4, 57, 0
7, 61920, Note_on_c, 4, 69, 0
7, 61920, Note_on_c, 4, 64, 60
7, 61920, Note_on_c, 4, 52, 60
7, 64080, Note_on_c, 4, 52, 0
7, 64080, Note_on_c, 4, 64, 0
7, 64080, Note_on_c, 4, 57, 55
7, 64080, Note_on_c, 4, 69, 55
7, 64272, Note_on_c, 4, 69, 0
7, 64272, Note_on_c, 4, 57, 0
7, 70560, Note_on_c, 4, 52, 60
7, 70560, Note_on_c, 4, 64, 60
7, 73440, Note_on_c, 4, 64, 0
7, 73440, Note_on_c, 4, 52, 0
7, 73440, Note_on_c, 4, 57, 60
7, 73824, Note_on_c, 4, 57, 0
7, 74880, Note_on_c, 4, 61, 60
7, 76292, Note_on_c, 4, 61, 0
7, 76320, Note_on_c, 4, 61, 54
7, 76704, Note_on_c, 4, 61, 0
7, 92160, Note_on_c, 4, 57, 60
7, 92160, Note_on_c, 4, 69, 60
7, 93600, Note_on_c, 4, 69, 0
7, 93600, Note_on_c, 4, 57, 0
7, 93600, Note_on_c, 4, 71, 60
7, 93792, Note_on_c, 4, 71, 0
7, 108000, Note_on_c, 4, 61, 80
7, 108706, Note_on_c, 4, 61, 0
7, 109200, Note_on_c, 4, 61, 80
7, 109344, Note_on_c, 4, 61, 0
7, 109440, Note_on_c, 4, 61, 60
7, 113732, Note_on_c, 4, 61, 0
7, 115200, Note_on_c, 4, 61, 60
7, 121344, Note_on_c, 4, 61, 0
7, 126720, Note_on_c, 4, 61, 60
7, 126720, Note_on_c, 4, 69, 60
7, 128160, Note_on_c, 4, 61, 0
7, 128160, Note_on_c, 4, 57, 60
7, 129600, Note_on_c, 4, 57, 0
7, 129600, Note_on_c, 4, 69, 0
7, 129600, Note_on_c, 4, 71, 60
7, 131040, Note_on_c, 4, 71, 0
7, 131040, Note_on_c, 4, 61, 60
7, 131040, Note_on_c, 4, 73, 60
7, 132672, Note_on_c, 4, 73, 0
7, 132672, Note_on_c, 4, 61, 0
7, 139680, Note_on_c, 4, 61, 60
7, 141092, Note_on_c, 4, 61, 0
7, 141120, Note_on_c, 4, 61, 60
7, 141264, Note_on_c, 4, 61, 0
7, 141360, Note_on_c, 4, 61, 60
7, 141504, Note_on_c, 4, 61, 0
7, 141840, Note_on_c, 4, 61, 60
7, 141840, Note_on_c, 4, 57, 60
7, 141984, Note_on_c, 4, 57, 0
7, 141984, Note_on_c, 4, 61, 0
7, 142080, Note_on_c, 4, 57, 60
7, 142080, Note_on_c, 4, 61, 60
7, 142224, Note_on_c, 4, 61, 0
7, 142224, Note_on_c, 4, 57, 0
7, 142560, Note_on_c, 4, 61, 60
7, 142560, Note_on_c, 4, 69, 60
7, 142692, Note_on_c, 4, 69, 0
7, 142692, Note_on_c, 4, 61, 0
7, 142800, Note_on_c, 4, 69, 60
7, 142800, Note_on_c, 4, 61, 60
7, 142932, Note_on_c, 4, 61, 0
7, 142932, Note_on_c, 4, 69, 0
7, 142932, End_track
8, 0, Start_track
8, 0, Sequencer_specific, 04, 43, 00, 01, 00
8, 0, Program_c, 5, 0
8, 0, Control_c, 5, 7, 126
8, 0, Control_c, 5, 91, 100
8, 1440, Note_on_c, 5, 73, 80
8, 1782, Note_on_c, 5, 73, 0
8, 1800, Note_on_c, 5, 74, 80
8, 1914, Note_on_c, 5, 74, 0
8, 1920, Note_on_c, 5, 73, 80
8, 2148, Note_on_c, 5, 73, 0
8, 2160, Note_on_c, 5, 73, 80
8, 2400, Note_on_c, 5, 73, 0
8, 2400, Note_on_c, 5, 78, 80
8, 2640, Note_on_c, 5, 78, 0
8, 2640, Note_on_c, 5, 81, 80
8, 2876, Note_on_c, 5, 81, 0
8, 2880, Note_on_c, 5, 81, 80
8, 3120, Note_on_c, 5, 81, 0
8, 3120, Note_on_c, 5, 71, 80
8, 3264, Note_on_c, 5, 71, 0
8, 3360, Note_on_c, 5, 80, 80
8, 3504, Note_on_c, 5, 80, 0
8, 3840, Note_on_c, 5, 71, 80
8, 4438, Note_on_c, 5, 71, 0
8, 4440, Note_on_c, 5, 69, 80
8, 4558, Note_on_c, 5, 69, 0
8, 4560, Note_on_c, 5, 78, 80
8, 5276, Note_on_c, 5, 78, 0
8, 5280, Note_on_c, 5, 68, 80
8, 5520, Note_on_c, 5, 68, 0
8, 5520, Note_on_c, 5, 74, 80
8, 5760, Note_on_c, 5, 74, 0
8, 5760, Note_on_c, 5, 66, 72
8, 6230, Note_on_c, 5, 66, 0
8, 6240, Note_on_c, 5, 65, 67
8, 6300, Note_on_c, 5, 65, 0
8, 6300, Note_on_c, 5, 66, 66
8, 6360, Note_on_c, 5, 66, 0
8, 6360, Note_on_c, 5, 68, 66
8, 6420, Note_on_c, 5, 68, 0
8, 6420, Note_on_c, 5, 66, 65
8, 6480, Note_on_c, 5, 66, 0
8, 6480, Note_on_c, 5, 65, 64
8, 6716, Note_on_c, 5, 65, 0
8, 7200, Note_on_c, 5, 74, 80
8, 7552, Note_on_c, 5, 74, 0
8, 7560, Note_on_c, 5, 76, 80
8, 7678, Note_on_c, 5, 76, 0
8, 7680, Note_on_c, 5, 74, 80
8, 7916, Note_on_c, 5, 74, 0
8, 7920, Note_on_c, 5, 74, 80
8, 7950, Note_on_c, 5, 74, 0
8, 7950, Note_on_c, 5, 76, 80
8, 7980, Note_on_c, 5, 76, 0
8, 7980, Note_on_c, 5, 78, 80
8, 8280, Note_on_c, 5, 78, 0
8, 8280, Note_on_c, 5, 76, 80
8, 8398, Note_on_c, 5, 76, 0
8, 8400, Note_on_c, 5, 74, 80
8, 8636, Note_on_c, 5, 74, 0
8, 8640, Note_on_c, 5, 72, 80
8, 9360, Note_on_c, 5, 72, 0
8, 9360, Note_on_c, 5, 73, 75
8, 9588, Note_on_c, 5, 73, 0
8, 10080, Note_on_c, 5, 73, 80
8, 10200, Note_on_c, 5, 73, 0
8, 10200, Note_on_c, 5, 71, 81
8, 10296, Note_on_c, 5, 71, 0
8, 10320, Note_on_c, 5, 70, 82
8, 10440, Note_on_c, 5, 70, 0
8, 10440, Note_on_c, 5, 71, 83
8, 10536, Note_on_c, 5, 71, 0
8, 10560, Note_on_c, 5, 70, 84
8, 10680, Note_on_c, 5, 70, 0
8, 10680, Note_on_c, 5, 71, 85
8, 10776, Note_on_c, 5, 71, 0
8, 10800, Note_on_c, 5, 81, 86
8, 10920, Note_on_c, 5, 81, 0
8, 10920, Note_on_c, 5, 80, 85
8, 11016, Note_on_c, 5, 80, 0
8, 11040, Note_on_c, 5, 78, 83
8, 11160, Note_on_c, 5, 78, 0
8, 11160, Note_on_c, 5, 77, 82
8, 11256, Note_on_c, 5, 77, 0
8, 11280, Note_on_c, 5, 74, 80
8, 11400, Note_on_c, 5, 74, 0
8, 11400, Note_on_c, 5, 73, 79
8, 11496, Note_on_c, 5, 73, 0
8, 11520, Note_on_c, 5, 71, 77
8, 12000, Note_on_c, 5, 71, 0
8, 12000, Note_on_c, 5, 70, 71
8, 12228, Note_on_c, 5, 70, 0
8, 12240, Note_on_c, 5, 69, 68
8, 12468, Note_on_c, 5, 69, 0
8, 12960, Note_on_c, 5, 67, 70
8, 13312, Note_on_c, 5, 67, 0
8, 13320, Note_on_c, 5, 69, 70
8, 13438, Note_on_c, 5, 69, 0
8, 13440, Note_on_c, 5, 67, 70
8, 13676, Note_on_c, 5, 67, 0
8, 13680, Note_on_c, 5, 67, 70
8, 14150, Note_on_c, 5, 67, 0
8, 14160, Note_on_c, 5, 67, 70
8, 14396, Note_on_c, 5, 67, 0
8, 14400, Note_on_c, 5, 67, 70
8, 14544, Note_on_c, 5, 67, 0
8, 14640, Note_on_c, 5, 71, 73
8, 14784, Note_on_c, 5, 71, 0
8, 14880, Note_on_c, 5, 74, 75
8, 15024, Note_on_c, 5, 74, 0
8, 15120, Note_on_c, 5, 79, 78
8, 15264, Note_on_c, 5, 79, 0
8, 15360, Note_on_c, 5, 83, 80
8, 15504, Note_on_c, 5, 83, 0
8, 15600, Note_on_c, 5, 86, 82
8, 15744, Note_on_c, 5, 86, 0
8, 15840, Note_on_c, 5, 66, 80
8, 16192, Note_on_c, 5, 66, 0
8, 16200, Note_on_c, 5, 68, 80
8, 16318, Note_on_c, 5, 68, 0
8, 16320, Note_on_c, 5, 66, 80
8, 16556, Note_on_c, 5, 66, 0
8, 16560, Note_on_c, 5, 69, 80
8, 17040, Note_on_c, 5, 69, 0
8, 17040, Note_on_c, 5, 68, 69
8, 17280, Note_on_c, 5, 68, 0
8, 17280, Note_on_c, 5, 66, 64
8, 17750, Note_on_c, 5, 66, 0
8, 29220, Note_on_c, 5, 73, 80
8, 29280, Note_on_c, 5, 73, 0
8, 29280, Note_on_c, 5, 74, 80
8, 29340, Note_on_c, 5, 74, 0
8, 29340, Note_on_c, 5, 73, 80
8, 29400, Note_on_c, 5, 73, 0
8, 29400, Note_on_c, 5, 72, 80
8, 29460, Note_on_c, 5, 72, 0
8, 29460, Note_on_c, 5, 73, 80
8, 29520, Note_on_c, 5, 73, 0
8, 29520, Note_on_c, 5, 81, 80
8, 29808, Note_on_c, 5, 81, 0
8, 29880, Note_on_c, 5, 80, 80
8, 29976, Note_on_c, 5, 80, 0
8, 30000, Note_on_c, 5, 78, 80
8, 30192, Note_on_c, 5, 78, 0
8, 30240, Note_on_c, 5, 77, 80
8, 30384, Note_on_c, 5, 77, 0
8, 30480, Note_on_c, 5, 76, 80
8, 30624, Note_on_c, 5, 76, 0
8, 30720, Note_on_c, 5, 75, 80
8, 30864, Note_on_c, 5, 75, 0
8, 30960, Note_on_c, 5, 74, 80
8, 31104, Note_on_c, 5, 74, 0
8, 31200, Note_on_c, 5, 73, 80
8, 31344, Note_on_c, 5, 73, 0
8, 31440, Note_on_c, 5, 73, 80
8, 31584, Note_on_c, 5, 73, 0
8, 31680, Note_on_c, 5, 73, 80
8, 31872, Note_on_c, 5, 73, 0
8, 32100, Note_on_c, 5, 73, 80
8, 32160, Note_on_c, 5, 73, 0
8, 32160, Note_on_c, 5, 74, 80
8, 32220, Note_on_c, 5, 74, 0
8, 32220, Note_on_c, 5, 73, 80
8, 32280, Note_on_c, 5, 73, 0
8, 32280, Note_on_c, 5, 72, 80
8, 32340, Note_on_c, 5, 72, 0
8, 32340, Note_on_c, 5, 73, 80
8, 32400, Note_on_c, 5, 73, 0
8, 32400, Note_on_c, 5, 81, 80
8, 32688, Note_on_c, 5, 81, 0
8, 32760, Note_on_c, 5, 80, 80
8, 32856, Note_on_c, 5, 80, 0
8, 32880, Note_on_c, 5, 78, 80
8, 33072, Note_on_c, 5, 78, 0
8, 33120, Note_on_c, 5, 78, 80
8, 33240, Note_on_c, 5, 78, 0
8, 33240, Note_on_c, 5, 77, 80
8, 33312, Note_on_c, 5, 77, 0
8, 33360, Note_on_c, 5, 77, 80
8, 33432, Note_on_c, 5, 77, 0
8, 33480, Note_on_c, 5, 76, 80
8, 33552, Note_on_c, 5, 76, 0
8, 33600, Note_on_c, 5, 75, 80
8, 33672, Note_on_c, 5, 75, 0
8, 33720, Note_on_c, 5, 74, 80
8, 33792, Note_on_c, 5, 74, 0
8, 33840, Note_on_c, 5, 74, 80
8, 33960, Note_on_c, 5, 74, 0
8, 33960, Note_on_c, 5, 73, 80
8, 34032, Note_on_c, 5, 73, 0
8, 34080, Note_on_c, 5, 73, 80
8, 34152, Note_on_c, 5, 73, 0
8, 34200, Note_on_c, 5, 73, 80
8, 34272, Note_on_c, 5, 73, 0
8, 34320, Note_on_c, 5, 73, 80
8, 34392, Note_on_c, 5, 73, 0
8, 34440, Note_on_c, 5, 73, 80
8, 34512, Note_on_c, 5, 73, 0
8, 34560, Note_on_c, 5, 73, 80
8, 34752, Note_on_c, 5, 73, 0
8, 34980, Note_on_c, 5, 73, 80
8, 35040, Note_on_c, 5, 73, 0
8, 35040, Note_on_c, 5, 74, 80
8, 35100, Note_on_c, 5, 74, 0
8, 35100, Note_on_c, 5, 73, 80
8, 35160, Note_on_c, 5, 73, 0
8, 35160, Note_on_c, 5, 72, 80
8, 35220, Note_on_c, 5, 72, 0
8, 35220, Note_on_c, 5, 73, 80
8, 35280, Note_on_c, 5, 73, 0
8, 35280, Note_on_c, 5, 81, 80
8, 35568, Note_on_c, 5, 81, 0
8, 35640, Note_on_c, 5, 80, 80
8, 35736, Note_on_c, 5, 80, 0
8, 35760, Note_on_c, 5, 78, 80
8, 35952, Note_on_c, 5, 78, 0
8, 36000, Note_on_c, 5, 78, 80
8, 36120, Note_on_c, 5, 78, 0
8, 36120, Note_on_c, 5, 76, 80
8, 36216, Note_on_c, 5, 76, 0
8, 36240, Note_on_c, 5, 76, 80
8, 36432, Note_on_c, 5, 76, 0
8, 36480, Note_on_c, 5, 76, 80
8, 36672, Note_on_c, 5, 76, 0
8, 36720, Note_on_c, 5, 76, 80
8, 36960, Note_on_c, 5, 76, 0
8, 36960, Note_on_c, 5, 78, 80
8, 37200, Note_on_c, 5, 78, 0
8, 37200, Note_on_c, 5, 74, 80
8, 37440, Note_on_c, 5, 74, 0
8, 37440, Note_on_c, 5, 73, 80
8, 37668, Note_on_c, 5, 73, 0
8, 37920, Note_on_c, 5, 76, 80
8, 38148, Note_on_c, 5, 76, 0
8, 38160, Note_on_c, 5, 76, 80
8, 38502, Note_on_c, 5, 76, 0
8, 38520, Note_on_c, 5, 74, 80
8, 38634, Note_on_c, 5, 74, 0
8, 38640, Note_on_c, 5, 73, 80
8, 38868, Note_on_c, 5, 73, 0
8, 38880, Note_on_c, 5, 71, 80
8, 39120, Note_on_c, 5, 71, 0
8, 39120, Note_on_c, 5, 74, 80
8, 39360, Note_on_c, 5, 74, 0
8, 39360, Note_on_c, 5, 78, 80
8, 39600, Note_on_c, 5, 78, 0
8, 39600, Note_on_c, 5, 81, 80
8, 39792, Note_on_c, 5, 81, 0
8, 40080, Note_on_c, 5, 73, 80
8, 40272, Note_on_c, 5, 73, 0
8, 40320, Note_on_c, 5, 76, 80
8, 40680, Note_on_c, 5, 76, 0
8, 40680, Note_on_c, 5, 73, 80
8, 40776, Note_on_c, 5, 73, 0
8, 40800, Note_on_c, 5, 71, 80
8, 40992, Note_on_c, 5, 71, 0
8, 41160, Note_on_c, 5, 64, 78
8, 41256, Note_on_c, 5, 64, 0
8, 41280, Note_on_c, 5, 68, 79
8, 41376, Note_on_c, 5, 68, 0
8, 41400, Note_on_c, 5, 71, 80
8, 41496, Note_on_c, 5, 71, 0
8, 41520, Note_on_c, 5, 76, 81
8, 41616, Note_on_c, 5, 76, 0
8, 41640, Note_on_c, 5, 71, 82
8, 41736, Note_on_c, 5, 71, 0
8, 41760, Note_on_c, 5, 74, 81
8, 42000, Note_on_c, 5, 74, 0
8, 42000, Note_on_c, 5, 72, 78
8, 42192, Note_on_c, 5, 72, 0
8, 42600, Note_on_c, 5, 64, 79
8, 42696, Note_on_c, 5, 64, 0
8, 42720, Note_on_c, 5, 69, 80
8, 42816, Note_on_c, 5, 69, 0
8, 42840, Note_on_c, 5, 72, 82
8, 42936, Note_on_c, 5, 72, 0
8, 42960, Note_on_c, 5, 76, 83
8, 43056, Note_on_c, 5, 76, 0
8, 43080, Note_on_c, 5, 72, 85
8, 43176, Note_on_c, 5, 72, 0
8, 43200, Note_on_c, 5, 70, 83
8, 43440, Note_on_c, 5, 70, 0
8, 43440, Note_on_c, 5, 71, 81
8, 43632, Note_on_c, 5, 71, 0
8, 44160, Note_on_c, 5, 64, 84
8, 44352, Note_on_c, 5, 64, 0
8, 44400, Note_on_c, 5, 88, 98
8, 44592, Note_on_c, 5, 88, 0
8, 44640, Note_on_c, 5, 88, 101
8, 45120, Note_on_c, 5, 88, 0
8, 45120, Note_on_c, 5, 87, 95
8, 45312, Note_on_c, 5, 87, 0
8, 45720, Note_on_c, 5, 69, 90
8, 45840, Note_on_c, 5, 69, 0
8, 45840, Note_on_c, 5, 72, 90
8, 45960, Note_on_c, 5, 72, 0
8, 45960, Note_on_c, 5, 69, 90
8, 46080, Note_on_c, 5, 69, 0
8, 46080, Note_on_c, 5, 76, 90
8, 46464, Note_on_c, 5, 76, 0
8, 47160, Note_on_c, 5, 81, 90
8, 47280, Note_on_c, 5, 81, 0
8, 47280, Note_on_c, 5, 84, 90
8, 47400, Note_on_c, 5, 84, 0
8, 47400, Note_on_c, 5, 81, 90
8, 47520, Note_on_c, 5, 81, 0
8, 47520, Note_on_c, 5, 88, 90
8, 47904, Note_on_c, 5, 88, 0
8, 48600, Note_on_c, 5, 69, 90
8, 48720, Note_on_c, 5, 69, 0
8, 48720, Note_on_c, 5, 72, 90
8, 48840, Note_on_c, 5, 72, 0
8, 48840, Note_on_c, 5, 69, 90
8, 48960, Note_on_c, 5, 69, 0
8, 48960, Note_on_c, 5, 76, 90
8, 49104, Note_on_c, 5, 76, 0
8, 49200, Note_on_c, 5, 76, 90
8, 49344, Note_on_c, 5, 76, 0
8, 49440, Note_on_c, 5, 76, 90
8, 49584, Note_on_c, 5, 76, 0
8, 49680, Note_on_c, 5, 75, 90
8, 49800, Note_on_c, 5, 75, 0
8, 49800, Note_on_c, 5, 76, 90
8, 49920, Note_on_c, 5, 76, 0
8, 49920, Note_on_c, 5, 78, 90
8, 50040, Note_on_c, 5, 78, 0
8, 50040, Note_on_c, 5, 76, 90
8, 50160, Note_on_c, 5, 76, 0
8, 50160, Note_on_c, 5, 74, 89
8, 50280, Note_on_c, 5, 74, 0
8, 50280, Note_on_c, 5, 71, 87
8, 50400, Note_on_c, 5, 71, 0
8, 50400, Note_on_c, 5, 69, 79
8, 50784, Note_on_c, 5, 69, 0
8, 55560, Note_on_c, 5, 70, 80
8, 55680, Note_on_c, 5, 70, 0
8, 55680, Note_on_c, 5, 71, 80
8, 55800, Note_on_c, 5, 71, 0
8, 55800, Note_on_c, 5, 73, 80
8, 55920, Note_on_c, 5, 73, 0
8, 55920, Note_on_c, 5, 74, 80
8, 56040, Note_on_c, 5, 74, 0
8, 56040, Note_on_c, 5, 75, 80
8, 56160, Note_on_c, 5, 75, 0
8, 56160, Note_on_c, 5, 76, 80
8, 56880, Note_on_c, 5, 76, 0
8, 56880, Note_on_c, 5, 73, 80
8, 57360, Note_on_c, 5, 73, 0
8, 57360, Note_on_c, 5, 74, 80
8, 57420, Note_on_c, 5, 74, 0
8, 57420, Note_on_c, 5, 73, 80
8, 57480, Note_on_c, 5, 73, 0
8, 57480, Note_on_c, 5, 71, 80
8, 57540, Note_on_c, 5, 71, 0
8, 57540, Note_on_c, 5, 73, 80
8, 57600, Note_on_c, 5, 73, 0
8, 57600, Note_on_c, 5, 74, 80
8, 57744, Note_on_c, 5, 74, 0
8, 57840, Note_on_c, 5, 74, 80
8, 57984, Note_on_c, 5, 74, 0
8, 58080, Note_on_c, 5, 74, 80
8, 58224, Note_on_c, 5, 74, 0
8, 58320, Note_on_c, 5, 74, 80
8, 58512, Note_on_c, 5, 74, 0
8, 59280, Note_on_c, 5, 73, 80
8, 59520, Note_on_c, 5, 73, 0
8, 59520, Note_on_c, 5, 81, 80
8, 59760, Note_on_c, 5, 81, 0
8, 59880, Note_on_c, 5, 71, 80
8, 60000, Note_on_c, 5, 71, 0
8, 60000, Note_on_c, 5, 73, 80
8, 60120, Note_on_c, 5, 73, 0
8, 60120, Note_on_c, 5, 74, 80
8, 60240, Note_on_c, 5, 74, 0
8, 60240, Note_on_c, 5, 76, 80
8, 60360, Note_on_c, 5, 76, 0
8, 60360, Note_on_c, 5, 78, 80
8, 60480, Note_on_c, 5, 78, 0
8, 60480, Note_on_c, 5, 69, 80
8, 60960, Note_on_c, 5, 69, 0
8, 60960, Note_on_c, 5, 73, 80
8, 61080, Note_on_c, 5, 73, 0
8, 61080, Note_on_c, 5, 71, 78
8, 61200, Note_on_c, 5, 71, 0
8, 61200, Note_on_c, 5, 69, 77
8, 61584, Note_on_c, 5, 69, 0
8, 62700, Note_on_c, 5, 83, 80
8, 62760, Note_on_c, 5, 83, 0
8, 62760, Note_on_c, 5, 86, 80
8, 62820, Note_on_c, 5, 86, 0
8, 62820, Note_on_c, 5, 85, 80
8, 62880, Note_on_c, 5, 85, 0
8, 62880, Note_on_c, 5, 83, 80
8, 62940, Note_on_c, 5, 83, 0
8, 62940, Note_on_c, 5, 81, 80
8, 63000, Note_on_c, 5, 81, 0
8, 63000, Note_on_c, 5, 80, 80
8, 63060, Note_on_c, 5, 80, 0
8, 63060, Note_on_c, 5, 78, 80
8, 63120, Note_on_c, 5, 78, 0
8, 63120, Note_on_c, 5, 76, 80
8, 63180, Note_on_c, 5, 76, 0
8, 63180, Note_on_c, 5, 74, 80
8, 63240, Note_on_c, 5, 74, 0
8, 63240, Note_on_c, 5, 73, 80
8, 63300, Note_on_c, 5, 73, 0
8, 63300, Note_on_c, 5, 71, 80
8, 63360, Note_on_c, 5, 71, 0
8, 64140, Note_on_c, 5, 85, 80
8, 64200, Note_on_c, 5, 85, 0
8, 64200, Note_on_c, 5, 88, 80
8, 64260, Note_on_c, 5, 88, 0
8, 64260, Note_on_c, 5, 86, 80
8, 64320, Note_on_c, 5, 86, 0
8, 64320, Note_on_c, 5, 85, 80
8, 64380, Note_on_c, 5, 85, 0
8, 64380, Note_on_c, 5, 83, 80
8, 64440, Note_on_c, 5, 83, 0
8, 64440, Note_on_c, 5, 81, 80
8, 64500, Note_on_c, 5, 81, 0
8, 64500, Note_on_c, 5, 80, 80
8, 64560, Note_on_c, 5, 80, 0
8, 64560, Note_on_c, 5, 78, 80
8, 64620, Note_on_c, 5, 78, 0
8, 64620, Note_on_c, 5, 76, 80
8, 64680, Note_on_c, 5, 76, 0
8, 64680, Note_on_c, 5, 74, 80
8, 64740, Note_on_c, 5, 74, 0
8, 64740, Note_on_c, 5, 73, 80
8, 64800, Note_on_c, 5, 73, 0
8, 64800, Note_on_c, 5, 71, 80
8, 65040, Note_on_c, 5, 71, 0
8, 65040, Note_on_c, 5, 74, 80
8, 65280, Note_on_c, 5, 74, 0
8, 65280, Note_on_c, 5, 68, 80
8, 65520, Note_on_c, 5, 68, 0
8, 65520, Note_on_c, 5, 69, 80
8, 65592, Note_on_c, 5, 69, 0
8, 65640, Note_on_c, 5, 69, 80
8, 65760, Note_on_c, 5, 69, 0
8, 65760, Note_on_c, 5, 68, 80
8, 65880, Note_on_c, 5, 68, 0
8, 65880, Note_on_c, 5, 69, 80
8, 66000, Note_on_c, 5, 69, 0
8, 66000, Note_on_c, 5, 71, 80
8, 66120, Note_on_c, 5, 71, 0
8, 66120, Note_on_c, 5, 73, 80
8, 66240, Note_on_c, 5, 73, 0
8, 66240, Note_on_c, 5, 76, 84
8, 66360, Note_on_c, 5, 76, 0
8, 66360, Note_on_c, 5, 75, 82
8, 66480, Note_on_c, 5, 75, 0
8, 66480, Note_on_c, 5, 74, 81
8, 66720, Note_on_c, 5, 74, 0
8, 66720, Note_on_c, 5, 73, 78
8, 66960, Note_on_c, 5, 73, 0
8, 66960, Note_on_c, 5, 71, 75
8, 67152, Note_on_c, 5, 71, 0
8, 67680, Note_on_c, 5, 76, 84
8, 68040, Note_on_c, 5, 76, 0
8, 68040, Note_on_c, 5, 78, 81
8, 68070, Note_on_c, 5, 78, 0
8, 68070, Note_on_c, 5, 76, 81
8, 68100, Note_on_c, 5, 76, 0
8, 68100, Note_on_c, 5, 74, 81
8, 68130, Note_on_c, 5, 74, 0
8, 68130, Note_on_c, 5, 76, 80
8, 68160, Note_on_c, 5, 76, 0
8, 68160, Note_on_c, 5, 78, 80
8, 68280, Note_on_c, 5, 78, 0
8, 68280, Note_on_c, 5, 74, 79
8, 68400, Note_on_c, 5, 74, 0
8, 68400, Note_on_c, 5, 73, 79
8, 68592, Note_on_c, 5, 73, 0
8, 69120, Note_on_c, 5, 71, 86
8, 69600, Note_on_c, 5, 71, 0
8, 69600, Note_on_c, 5, 78, 91
8, 69792, Note_on_c, 5, 78, 0
8, 69840, Note_on_c, 5, 78, 93
8, 70200, Note_on_c, 5, 78, 0
8, 70200, Note_on_c, 5, 80, 97
8, 70260, Note_on_c, 5, 80, 0
8, 70260, Note_on_c, 5, 81, 97
8, 70320, Note_on_c, 5, 81, 0
8, 70320, Note_on_c, 5, 80, 98
8, 70392, Note_on_c, 5, 80, 0
8, 70440, Note_on_c, 5, 78, 99
8, 70500, Note_on_c, 5, 78, 0
8, 70560, Note_on_c, 5, 76, 102
8, 70752, Note_on_c, 5, 76, 0
8, 70800, Note_on_c, 5, 88, 107
8, 71376, Note_on_c, 5, 88, 0
8, 71400, Note_on_c, 5, 85, 100
8, 71496, Note_on_c, 5, 85, 0
8, 71520, Note_on_c, 5, 81, 98
8, 71616, Note_on_c, 5, 81, 0
8, 71640, Note_on_c, 5, 76, 95
8, 71736, Note_on_c, 5, 76, 0
8, 71760, Note_on_c, 5, 73, 93
8, 71856, Note_on_c, 5, 73, 0
8, 71880, Note_on_c, 5, 69, 91
8, 71976, Note_on_c, 5, 69, 0
8, 72000, Note_on_c, 5, 73, 88
8, 72030, Note_on_c, 5, 73, 0
8, 72030, Note_on_c, 5, 71, 88
8, 72060, Note_on_c, 5, 71, 0
8, 72060, Note_on_c, 5, 73, 87
8, 72090, Note_on_c, 5, 73, 0
8, 72090, Note_on_c, 5, 71, 86
8, 72120, Note_on_c, 5, 71, 0
8, 72120, Note_on_c, 5, 73, 86
8, 72150, Note_on_c, 5, 73, 0
8, 72150, Note_on_c, 5, 71, 85
8, 72180, Note_on_c, 5, 71, 0
8, 72180, Note_on_c, 5, 73, 85
8, 72210, Note_on_c, 5, 73, 0
8, 72210, Note_on_c, 5, 71, 84
8, 72240, Note_on_c, 5, 71, 0
8, 72240, Note_on_c, 5, 73, 83
8, 72270, Note_on_c, 5, 73, 0
8, 72270, Note_on_c, 5, 71, 83
8, 72300, Note_on_c, 5, 71, 0
8, 72300, Note_on_c, 5, 73, 82
8, 72330, Note_on_c, 5, 73, 0
8, 72330, Note_on_c, 5, 71, 82
8, 72360, Note_on_c, 5, 71, 0
8, 72360, Note_on_c, 5, 73, 81
8, 72390, Note_on_c, 5, 73, 0
8, 72390, Note_on_c, 5, 71, 80
8, 72420, Note_on_c, 5, 71, 0
8, 72420, Note_on_c, 5, 73, 80
8, 72450, Note_on_c, 5, 73, 0
8, 72450, Note_on_c, 5, 71, 80
8, 72480, Note_on_c, 5, 71, 0
8, 72480, Note_on_c, 5, 73, 80
8, 72510, Note_on_c, 5, 73, 0
8, 72510, Note_on_c, 5, 71, 80
8, 72540, Note_on_c, 5, 71, 0
8, 72540, Note_on_c, 5, 73, 80
8, 72570, Note_on_c, 5, 73, 0
8, 72570, Note_on_c, 5, 71, 80
8, 72600, Note_on_c, 5, 71, 0
8, 72600, Note_on_c, 5, 73, 80
8, 72630, Note_on_c, 5, 73, 0
8, 72630, Note_on_c, 5, 71, 80
8, 72660, Note_on_c, 5, 71, 0
8, 72660, Note_on_c, 5, 73, 80
8, 72690, Note_on_c, 5, 73, 0
8, 72690, Note_on_c, 5, 71, 80
8, 72720, Note_on_c, 5, 71, 0
8, 72720, Note_on_c, 5, 73, 80
8, 72750, Note_on_c, 5, 73, 0
8, 72750, Note_on_c, 5, 71, 80
8, 72780, Note_on_c, 5, 71, 0
8, 72780, Note_on_c, 5, 73, 80
8, 72810, Note_on_c, 5, 73, 0
8, 72810, Note_on_c, 5, 71, 80
8, 72840, Note_on_c, 5, 71, 0
8, 72840, Note_on_c, 5, 73, 80
8, 72870, Note_on_c, 5, 73, 0
8, 72870, Note_on_c, 5, 71, 80
8, 72900, Note_on_c, 5, 71, 0
8, 72900, Note_on_c, 5, 73, 80
8, 72930, Note_on_c, 5, 73, 0
8, 72930, Note_on_c, 5, 71, 80
8, 72960, Note_on_c, 5, 71, 0
8, 72960, Note_on_c, 5, 73, 80
8, 72990, Note_on_c, 5, 73, 0
8, 72990, Note_on_c, 5, 71, 80
8, 73020, Note_on_c, 5, 71, 0
8, 73020, Note_on_c, 5, 73, 80
8, 73050, Note_on_c, 5, 73, 0
8, 73050, Note_on_c, 5, 71, 80
8, 73080, Note_on_c, 5, 71, 0
8, 73080, Note_on_c, 5, 73, 80
8, 73110, Note_on_c, 5, 73, 0
8, 73110, Note_on_c, 5, 71, 80
8, 73140, Note_on_c, 5, 71, 0
8, 73140, Note_on_c, 5, 73, 80
8, 73170, Note_on_c, 5, 73, 0
8, 73170, Note_on_c, 5, 71, 80
8, 73200, Note_on_c, 5, 71, 0
8, 73200, Note_on_c, 5, 73, 80
8, 73230, Note_on_c, 5, 73, 0
8, 73230, Note_on_c, 5, 71, 80
8, 73260, Note_on_c, 5, 71, 0
8, 73260, Note_on_c, 5, 73, 80
8, 73290, Note_on_c, 5, 73, 0
8, 73290, Note_on_c, 5, 71, 78
8, 73320, Note_on_c, 5, 71, 0
8, 73320, Note_on_c, 5, 69, 77
8, 73380, Note_on_c, 5, 69, 0
8, 73380, Note_on_c, 5, 71, 75
8, 73440, Note_on_c, 5, 71, 0
8, 73440, Note_on_c, 5, 69, 73
8, 73824, Note_on_c, 5, 69, 0
8, 76320, Note_on_c, 5, 73, 80
8, 76662, Note_on_c, 5, 73, 0
8, 76680, Note_on_c, 5, 74, 80
8, 76794, Note_on_c, 5, 74, 0
8, 76800, Note_on_c, 5, 73, 80
8, 77028, Note_on_c, 5, 73, 0
8, 77040, Note_on_c, 5, 73, 80
8, 77280, Note_on_c, 5, 73, 0
8, 77280, Note_on_c, 5, 78, 80
8, 77520, Note_on_c, 5, 78, 0
8, 77520, Note_on_c, 5, 81, 80
8, 77760, Note_on_c, 5, 81, 0
8, 77760, Note_on_c, 5, 81, 80
8, 78000, Note_on_c, 5, 81, 0
8, 78000, Note_on_c, 5, 71, 80
8, 78144, Note_on_c, 5, 71, 0
8, 78240, Note_on_c, 5, 80, 80
8, 78360, Note_on_c, 5, 80, 0
8, 78720, Note_on_c, 5, 71, 80
8, 79320, Note_on_c, 5, 71, 0
8, 79320, Note_on_c, 5, 69, 80
8, 79434, Note_on_c, 5, 69, 0
8, 79440, Note_on_c, 5, 78, 80
8, 80148, Note_on_c, 5, 78, 0
8, 80160, Note_on_c, 5, 68, 80
8, 80400, Note_on_c, 5, 68, 0
8, 80400, Note_on_c, 5, 74, 77
8, 80628, Note_on_c, 5, 74, 0
8, 80640, Note_on_c, 5, 66, 71
8, 81120, Note_on_c, 5, 66, 0
8, 81120, Note_on_c, 5, 65, 64
8, 81180, Note_on_c, 5, 65, 0
8, 81180, Note_on_c, 5, 66, 64
8, 81240, Note_on_c, 5, 66, 0
8, 81240, Note_on_c, 5, 68, 63
8, 81300, Note_on_c, 5, 68, 0
8, 81300, Note_on_c, 5, 66, 63
8, 81360, Note_on_c, 5, 66, 0
8, 81360, Note_on_c, 5, 65, 63
8, 81552, Note_on_c, 5, 65, 0
8, 82080, Note_on_c, 5, 74, 80
8, 82432, Note_on_c, 5, 74, 0
8, 82440, Note_on_c, 5, 76, 80
8, 82558, Note_on_c, 5, 76, 0
8, 82560, Note_on_c, 5, 74, 80
8, 82796, Note_on_c, 5, 74, 0
8, 82800, Note_on_c, 5, 74, 80
8, 82830, Note_on_c, 5, 74, 0
8, 82830, Note_on_c, 5, 76, 80
8, 82860, Note_on_c, 5, 76, 0
8, 82860, Note_on_c, 5, 78, 80
8, 83160, Note_on_c, 5, 78, 0
8, 83160, Note_on_c, 5, 76, 80
8, 83278, Note_on_c, 5, 76, 0
8, 83280, Note_on_c, 5, 74, 80
8, 83516, Note_on_c, 5, 74, 0
8, 83520, Note_on_c, 5, 72, 79
8, 84240, Note_on_c, 5, 72, 0
8, 84240, Note_on_c, 5, 73, 75
8, 84468, Note_on_c, 5, 73, 0
8, 84960, Note_on_c, 5, 73, 79
8, 85080, Note_on_c, 5, 73, 0
8, 85080, Note_on_c, 5, 71, 79
8, 85176, Note_on_c, 5, 71, 0
8, 85200, Note_on_c, 5, 70, 80
8, 85320, Note_on_c, 5, 70, 0
8, 85320, Note_on_c, 5, 71, 80
8, 85416, Note_on_c, 5, 71, 0
8, 85440, Note_on_c, 5, 70, 81
8, 85560, Note_on_c, 5, 70, 0
8, 85560, Note_on_c, 5, 71, 81
8, 85656, Note_on_c, 5, 71, 0
8, 85680, Note_on_c, 5, 81, 82
8, 85800, Note_on_c, 5, 81, 0
8, 85800, Note_on_c, 5, 80, 83
8, 85896, Note_on_c, 5, 80, 0
8, 85920, Note_on_c, 5, 78, 81
8, 86040, Note_on_c, 5, 78, 0
8, 86040, Note_on_c, 5, 77, 79
8, 86136, Note_on_c, 5, 77, 0
8, 86160, Note_on_c, 5, 74, 78
8, 86280, Note_on_c, 5, 74, 0
8, 86280, Note_on_c, 5, 73, 76
8, 86376, Note_on_c, 5, 73, 0
8, 86400, Note_on_c, 5, 71, 75
8, 86880, Note_on_c, 5, 71, 0
8, 86880, Note_on_c, 5, 70, 65
8, 87108, Note_on_c, 5, 70, 0
8, 87120, Note_on_c, 5, 69, 60
8, 87348, Note_on_c, 5, 69, 0
8, 87840, Note_on_c, 5, 67, 70
8, 88192, Note_on_c, 5, 67, 0
8, 88200, Note_on_c, 5, 69, 70
8, 88318, Note_on_c, 5, 69, 0
8, 88320, Note_on_c, 5, 67, 70
8, 88556, Note_on_c, 5, 67, 0
8, 88560, Note_on_c, 5, 67, 70
8, 89030, Note_on_c, 5, 67, 0
8, 89040, Note_on_c, 5, 67, 70
8, 89276, Note_on_c, 5, 67, 0
8, 89280, Note_on_c, 5, 67, 71
8, 89424, Note_on_c, 5, 67, 0
8, 89520, Note_on_c, 5, 71, 73
8, 89664, Note_on_c, 5, 71, 0
8, 89760, Note_on_c, 5, 74, 75
8, 89904, Note_on_c, 5, 74, 0
8, 90000, Note_on_c, 5, 79, 78
8, 90144, Note_on_c, 5, 79, 0
8, 90240, Note_on_c, 5, 83, 80
8, 90384, Note_on_c, 5, 83, 0
8, 90480, Note_on_c, 5, 86, 83
8, 90624, Note_on_c, 5, 86, 0
8, 90720, Note_on_c, 5, 66, 80
8, 91062, Note_on_c, 5, 66, 0
8, 91080, Note_on_c, 5, 68, 80
8, 91194, Note_on_c, 5, 68, 0
8, 91200, Note_on_c, 5, 66, 80
8, 91428, Note_on_c, 5, 66, 0
8, 91440, Note_on_c, 5, 69, 80
8, 91920, Note_on_c, 5, 69, 0
8, 91920, Note_on_c, 5, 68, 77
8, 92160, Note_on_c, 5, 68, 0
8, 92160, Note_on_c, 5, 66, 75
8, 93528, Note_on_c, 5, 66, 0
8, 93600, Note_on_c, 5, 67, 80
8, 93942, Note_on_c, 5, 67, 0
8, 93960, Note_on_c, 5, 69, 80
8, 94074, Note_on_c, 5, 69, 0
8, 94080, Note_on_c, 5, 67, 80
8, 94308, Note_on_c, 5, 67, 0
8, 94320, Note_on_c, 5, 67, 81
8, 94548, Note_on_c, 5, 67, 0
8, 94560, Note_on_c, 5, 55, 81
8, 94788, Note_on_c, 5, 55, 0
8, 94800, Note_on_c, 5, 55, 82
8, 95028, Note_on_c, 5, 55, 0
8, 95040, Note_on_c, 5, 55, 83
8, 95724, Note_on_c, 5, 55, 0
8, 95760, Note_on_c, 5, 86, 91
8, 96216, Note_on_c, 5, 86, 0
8, 96240, Note_on_c, 5, 67, 80
8, 96468, Note_on_c, 5, 67, 0
8, 96480, Note_on_c, 5, 66, 80
8, 96822, Note_on_c, 5, 66, 0
8, 96840, Note_on_c, 5, 68, 80
8, 96954, Note_on_c, 5, 68, 0
8, 96960, Note_on_c, 5, 66, 80
8, 97188, Note_on_c, 5, 66, 0
8, 97200, Note_on_c, 5, 69, 79
8, 97680, Note_on_c, 5, 69, 0
8, 97680, Note_on_c, 5, 68, 69
8, 97920, Note_on_c, 5, 68, 0
8, 97920, Note_on_c, 5, 66, 64
8, 98304, Note_on_c, 5, 66, 0
8, 110160, Note_on_c, 5, 69, 99
8, 110220, Note_on_c, 5, 69, 0
8, 110220, Note_on_c, 5, 81, 99
8, 110876, Note_on_c, 5, 81, 0
8, 110880, Note_on_c, 5, 83, 91
8, 111000, Note_on_c, 5, 83, 0
8, 111000, Note_on_c, 5, 81, 90
8, 111096, Note_on_c, 5, 81, 0
8, 111120, Note_on_c, 5, 81, 90
8, 111240, Note_on_c, 5, 81, 0
8, 111240, Note_on_c, 5, 80, 90
8, 111336, Note_on_c, 5, 80, 0
8, 111360, Note_on_c, 5, 80, 90
8, 111480, Note_on_c, 5, 80, 0
8, 111480, Note_on_c, 5, 78, 89
8, 111576, Note_on_c, 5, 78, 0
8, 111600, Note_on_c, 5, 78, 89
8, 111720, Note_on_c, 5, 78, 0
8, 111720, Note_on_c, 5, 77, 89
8, 111816, Note_on_c, 5, 77, 0
8, 111840, Note_on_c, 5, 77, 89
8, 111960, Note_on_c, 5, 77, 0
8, 111960, Note_on_c, 5, 78, 88
8, 112056, Note_on_c, 5, 78, 0
8, 112080, Note_on_c, 5, 78, 88
8, 112200, Note_on_c, 5, 78, 0
8, 112200, Note_on_c, 5, 80, 88
8, 112296, Note_on_c, 5, 80, 0
8, 112320, Note_on_c, 5, 73, 88
8, 112896, Note_on_c, 5, 73, 0
8, 113040, Note_on_c, 5, 85, 100
8, 113880, Note_on_c, 5, 85, 0
8, 113880, Note_on_c, 5, 86, 89
8, 113940, Note_on_c, 5, 86, 0
8, 113940, Note_on_c, 5, 85, 89
8, 114000, Note_on_c, 5, 85, 0
8, 114000, Note_on_c, 5, 83, 89
8, 114240, Note_on_c, 5, 83, 0
8, 114240, Note_on_c, 5, 81, 89
8, 114480, Note_on_c, 5, 81, 0
8, 114480, Note_on_c, 5, 80, 89
8, 114600, Note_on_c, 5, 80, 0
8, 114600, Note_on_c, 5, 81, 89
8, 114630, Note_on_c, 5, 81, 0
8, 114630, Note_on_c, 5, 80, 89
8, 114660, Note_on_c, 5, 80, 0
8, 114660, Note_on_c, 5, 78, 89
8, 114690, Note_on_c, 5, 78, 0
8, 114690, Note_on_c, 5, 80, 89
8, 114720, Note_on_c, 5, 80, 0
8, 114720, Note_on_c, 5, 81, 89
8, 114960, Note_on_c, 5, 81, 0
8, 114960, Note_on_c, 5, 83, 89
8, 115200, Note_on_c, 5, 83, 0
8, 115200, Note_on_c, 5, 77, 89
8, 115670, Note_on_c, 5, 77, 0
8, 115680, Note_on_c, 5, 73, 89
8, 115916, Note_on_c, 5, 73, 0
8, 115920, Note_on_c, 5, 81, 90
8, 116626, Note_on_c, 5, 81, 0
8, 116640, Note_on_c, 5, 87, 90
8, 117346, Note_on_c, 5, 87, 0
8, 117360, Note_on_c, 5, 80, 90
8, 118066, Note_on_c, 5, 80, 0
8, 118080, Note_on_c, 5, 85, 90
8, 118786, Note_on_c, 5, 85, 0
8, 118800, Note_on_c, 5, 78, 90
8, 119506, Note_on_c, 5, 78, 0
8, 119520, Note_on_c, 5, 83, 90
8, 119872, Note_on_c, 5, 83, 0
8, 119880, Note_on_c, 5, 85, 90
8, 119938, Note_on_c, 5, 85, 0
8, 119940, Note_on_c, 5, 86, 90
8, 119998, Note_on_c, 5, 86, 0
8, 120000, Note_on_c, 5, 85, 90
8, 120058, Note_on_c, 5, 85, 0
8, 120060, Note_on_c, 5, 83, 90
8, 120118, Note_on_c, 5, 83, 0
8, 120120, Note_on_c, 5, 81, 90
8, 120178, Note_on_c, 5, 81, 0
8, 120180, Note_on_c, 5, 80, 90
8, 120238, Note_on_c, 5, 80, 0
8, 120240, Note_on_c, 5, 78, 90
8, 120358, Note_on_c, 5, 78, 0
8, 120360, Note_on_c, 5, 77, 90
8, 120478, Note_on_c, 5, 77, 0
8, 120480, Note_on_c, 5, 83, 90
8, 120716, Note_on_c, 5, 83, 0
8, 120720, Note_on_c, 5, 77, 81
8, 120956, Note_on_c, 5, 77, 0
8, 120960, Note_on_c, 5, 78, 75
8, 121344, Note_on_c, 5, 78, 0
8, 122400, Note_on_c, 5, 78, 80
8, 123106, Note_on_c, 5, 78, 0
8, 123120, Note_on_c, 5, 69, 80
8, 123826, Note_on_c, 5, 69, 0
8, 123840, Note_on_c, 5, 68, 79
8, 125030, Note_on_c, 5, 68, 0
8, 125040, Note_on_c, 5, 86, 86
8, 125184, Note_on_c, 5, 86, 0
8, 125280, Note_on_c, 5, 85, 87
8, 125986, Note_on_c, 5, 85, 0
8, 126000, Note_on_c, 5, 77, 81
8, 126706, Note_on_c, 5, 77, 0
8, 126720, Note_on_c, 5, 78, 75
8, 127104, Note_on_c, 5, 78, 0
8, 128160, Note_on_c, 5, 78, 88
8, 128866, Note_on_c, 5, 78, 0
8, 128880, Note_on_c, 5, 57, 88
8, 129586, Note_on_c, 5, 57, 0
8, 129600, Note_on_c, 5, 55, 88
8, 130790, Note_on_c, 5, 55, 0
8, 130800, Note_on_c, 5, 86, 91
8, 130944, Note_on_c, 5, 86, 0
8, 131040, Note_on_c, 5, 85, 93
8, 131616, Note_on_c, 5, 85, 0
8, 131760, Note_on_c, 5, 77, 87
8, 132336, Note_on_c, 5, 77, 0
8, 132480, Note_on_c, 5, 78, 80
8, 132864, Note_on_c, 5, 78, 0
8, 134760, Note_on_c, 5, 73, 80
8, 134880, Note_on_c, 5, 73, 0
8, 134880, Note_on_c, 5, 85, 81
8, 134952, Note_on_c, 5, 85, 0
8, 135000, Note_on_c, 5, 85, 82
8, 135072, Note_on_c, 5, 85, 0
8, 135120, Note_on_c, 5, 85, 83
8, 135192, Note_on_c, 5, 85, 0
8, 135240, Note_on_c, 5, 85, 84
8, 135312, Note_on_c, 5, 85, 0
8, 135360, Note_on_c, 5, 85, 85
8, 135720, Note_on_c, 5, 85, 0
8, 135720, Note_on_c, 5, 81, 80
8, 135840, Note_on_c, 5, 81, 0
8, 135840, Note_on_c, 5, 78, 78
8, 136032, Note_on_c, 5, 78, 0
8, 137640, Note_on_c, 5, 73, 79
8, 137760, Note_on_c, 5, 73, 0
8, 137760, Note_on_c, 5, 85, 81
8, 137832, Note_on_c, 5, 85, 0
8, 137880, Note_on_c, 5, 85, 82
8, 137952, Note_on_c, 5, 85, 0
8, 138000, Note_on_c, 5, 85, 83
8, 138072, Note_on_c, 5, 85, 0
8, 138120, Note_on_c, 5, 85, 84
8, 138192, Note_on_c, 5, 85, 0
8, 138240, Note_on_c, 5, 85, 84
8, 138600, Note_on_c, 5, 85, 0
8, 138600, Note_on_c, 5, 81, 79
8, 138720, Note_on_c, 5, 81, 0
8, 138720, Note_on_c, 5, 78, 78
8, 138912, Note_on_c, 5, 78, 0
8, 139800, Note_on_c, 5, 73, 79
8, 139920, Note_on_c, 5, 73, 0
8, 139920, Note_on_c, 5, 85, 79
8, 139992, Note_on_c, 5, 85, 0
8, 140040, Note_on_c, 5, 85, 80
8, 140112, Note_on_c, 5, 85, 0
8, 140160, Note_on_c, 5, 85, 81
8, 140232, Note_on_c, 5, 85, 0
8, 140280, Note_on_c, 5, 85, 81
8, 140352, Note_on_c, 5, 85, 0
8, 140400, Note_on_c, 5, 85, 82
8, 140472, Note_on_c, 5, 85, 0
8, 140520, Note_on_c, 5, 85, 83
8, 140592, Note_on_c, 5, 85, 0
8, 140640, Note_on_c, 5, 85, 80
8, 140712, Note_on_c, 5, 85, 0
8, 140760, Note_on_c, 5, 85, 77
8, 140832, Note_on_c, 5, 85, 0
8, 140880, Note_on_c, 5, 85, 75
8, 140952, Note_on_c, 5, 85, 0
8, 141000, Note_on_c, 5, 85, 72
8, 141072, Note_on_c, 5, 85, 0
8, 141120, Note_on_c, 5, 78, 70
8, 141312, Note_on_c, 5, 78, 0
8, 141600, Note_on_c, 5, 81, 69
8, 141840, Note_on_c, 5, 81, 0
8, 141840, Note_on_c, 5, 78, 63
8, 142032, Note_on_c, 5, 78, 0
8, 142320, Note_on_c, 5, 81, 67
8, 142560, Note_on_c, 5, 81, 0
8, 142560, Note_on_c, 5, 78, 60
8, 142740, Note_on_c, 5, 78, 0
8, 142740, End_track
9, 0, Start_track
9, 0, Sequencer_specific, 04, 43, 00, 01, 00
9, 0, Program_c, 6, 0
9, 0, Control_c, 6, 7, 122
9, 0, Control_c, 6, 91, 100
9, 0, Control_c, 6, 91, 100
9, 1440, Note_on_c, 6, 54, 60
9, 1440, Note_on_c, 6, 57, 60
9, 1910, Note_on_c, 6, 57, 0
9, 1910, Note_on_c, 6, 54, 0
9, 1920, Note_on_c, 6, 57, 60
9, 1920, Note_on_c, 6, 54, 60
9, 2156, Note_on_c, 6, 54, 0
9, 2156, Note_on_c, 6, 57, 0
9, 2160, Note_on_c, 6, 54, 60
9, 2160, Note_on_c, 6, 57, 60
9, 2630, Note_on_c, 6, 57, 0
9, 2630, Note_on_c, 6, 54, 0
9, 2640, Note_on_c, 6, 54, 60
9, 2640, Note_on_c, 6, 61, 60
9, 2876, Note_on_c, 6, 61, 0
9, 2876, Note_on_c, 6, 54, 0
9, 2880, Note_on_c, 6, 54, 60
9, 2880, Note_on_c, 6, 62, 60
9, 3586, Note_on_c, 6, 62, 0
9, 3586, Note_on_c, 6, 54, 0
9, 3600, Note_on_c, 6, 41, 60
9, 3836, Note_on_c, 6, 41, 0
9, 4080, Note_on_c, 6, 53, 60
9, 4080, Note_on_c, 6, 61, 60
9, 4316, Note_on_c, 6, 61, 0
9, 4316, Note_on_c, 6, 53, 0
9, 4320, Note_on_c, 6, 54, 60
9, 4320, Note_on_c, 6, 61, 60
9, 4790, Note_on_c, 6, 61, 0
9, 4790, Note_on_c, 6, 54, 0
9, 4800, Note_on_c, 6, 49, 60
9, 4800, Note_on_c, 6, 45, 60
9, 5036, Note_on_c, 6, 45, 0
9, 5036, Note_on_c, 6, 49, 0
9, 5040, Note_on_c, 6, 47, 60
9, 5040, Note_on_c, 6, 50, 60
9, 5510, Note_on_c, 6, 50, 0
9, 5520, Note_on_c, 6, 59, 60
9, 5756, Note_on_c, 6, 59, 0
9, 5756, Note_on_c, 6, 47, 0
9, 5760, Note_on_c, 6, 49, 58
9, 5760, Note_on_c, 6, 57, 58
9, 6466, Note_on_c, 6, 57, 0
9, 6480, Note_on_c, 6, 56, 54
9, 6716, Note_on_c, 6, 56, 0
9, 6716, Note_on_c, 6, 49, 0
9, 7200, Note_on_c, 6, 54, 60
9, 7200, Note_on_c, 6, 57, 60
9, 7670, Note_on_c, 6, 57, 0
9, 7670, Note_on_c, 6, 54, 0
9, 7680, Note_on_c, 6, 54, 60
9, 7680, Note_on_c, 6, 57, 60
9, 7916, Note_on_c, 6, 57, 0
9, 7916, Note_on_c, 6, 54, 0
9, 7920, Note_on_c, 6, 56, 60
9, 7920, Note_on_c, 6, 59, 60
9, 8390, Note_on_c, 6, 59, 0
9, 8390, Note_on_c, 6, 56, 0
9, 8400, Note_on_c, 6, 56, 60
9, 8400, Note_on_c, 6, 59, 60
9, 8636, Note_on_c, 6, 59, 0
9, 8636, Note_on_c, 6, 56, 0
9, 8640, Note_on_c, 6, 57, 60
9, 8640, Note_on_c, 6, 64, 60
9, 9110, Note_on_c, 6, 64, 0
9, 9110, Note_on_c, 6, 57, 0
9, 9120, Note_on_c, 6, 57, 60
9, 9120, Note_on_c, 6, 64, 60
9, 9356, Note_on_c, 6, 64, 0
9, 9356, Note_on_c, 6, 57, 0
9, 9360, Note_on_c, 6, 57, 60
9, 9360, Note_on_c, 6, 54, 60
9, 9830, Note_on_c, 6, 54, 0
9, 9830, Note_on_c, 6, 57, 0
9, 9840, Note_on_c, 6, 57, 60
9, 9840, Note_on_c, 6, 54, 60
9, 10076, Note_on_c, 6, 54, 0
9, 10076, Note_on_c, 6, 57, 0
9, 10080, Note_on_c, 6, 51, 60
9, 10080, Note_on_c, 6, 57, 60
9, 10550, Note_on_c, 6, 57, 0
9, 10550, Note_on_c, 6, 51, 0
9, 10560, Note_on_c, 6, 57, 61
9, 10560, Note_on_c, 6, 51, 61
9, 10796, Note_on_c, 6, 51, 0
9, 10796, Note_on_c, 6, 57, 0
9, 10800, Note_on_c, 6, 56, 62
9, 10800, Note_on_c, 6, 53, 62
9, 11270, Note_on_c, 6, 53, 0
9, 11270, Note_on_c, 6, 56, 0
9, 11280, Note_on_c, 6, 56, 60
9, 11280, Note_on_c, 6, 53, 60
9, 11516, Note_on_c, 6, 53, 0
9, 11516, Note_on_c, 6, 56, 0
9, 11520, Note_on_c, 6, 54, 59
9, 11520, Note_on_c, 6, 61, 59
9, 11990, Note_on_c, 6, 61, 0
9, 11990, Note_on_c, 6, 54, 0
9, 12000, Note_on_c, 6, 54, 59
9, 12000, Note_on_c, 6, 61, 59
9, 12236, Note_on_c, 6, 61, 0
9, 12236, Note_on_c, 6, 54, 0
9, 12240, Note_on_c, 6, 50, 59
9, 12240, Note_on_c, 6, 54, 59
9, 12710, Note_on_c, 6, 54, 0
9, 12710, Note_on_c, 6, 50, 0
9, 12720, Note_on_c, 6, 50, 57
9, 12720, Note_on_c, 6, 54, 57
9, 12956, Note_on_c, 6, 54, 0
9, 12956, Note_on_c, 6, 50, 0
9, 12960, Note_on_c, 6, 47, 57
9, 12960, Note_on_c, 6, 50, 57
9, 12960, Note_on_c, 6, 55, 57
9, 13430, Note_on_c, 6, 55, 0
9, 13430, Note_on_c, 6, 50, 0
9, 13430, Note_on_c, 6, 47, 0
9, 13440, Note_on_c, 6, 55, 55
9, 13440, Note_on_c, 6, 50, 55
9, 13440, Note_on_c, 6, 47, 55
9, 13676, Note_on_c, 6, 47, 0
9, 13676, Note_on_c, 6, 50, 0
9, 13676, Note_on_c, 6, 55, 0
9, 13680, Note_on_c, 6, 55, 55
9, 13680, Note_on_c, 6, 47, 55
9, 13680, Note_on_c, 6, 50, 55
9, 14150, Note_on_c, 6, 50, 0
9, 14150, Note_on_c, 6, 47, 0
9, 14150, Note_on_c, 6, 55, 0
9, 14160, Note_on_c, 6, 55, 53
9, 14160, Note_on_c, 6, 47, 53
9, 14160, Note_on_c, 6, 50, 53
9, 14396, Note_on_c, 6, 50, 0
9, 14396, Note_on_c, 6, 47, 0
9, 14396, Note_on_c, 6, 55, 0
9, 14400, Note_on_c, 6, 47, 54
9, 14400, Note_on_c, 6, 50, 54
9, 14400, Note_on_c, 6, 55, 54
9, 14870, Note_on_c, 6, 55, 0
9, 14870, Note_on_c, 6, 50, 0
9, 14870, Note_on_c, 6, 47, 0
9, 15840, Note_on_c, 6, 49, 60
9, 15840, Note_on_c, 6, 57, 60
9, 16310, Note_on_c, 6, 57, 0
9, 16310, Note_on_c, 6, 49, 0
9, 16320, Note_on_c, 6, 57, 60
9, 16320, Note_on_c, 6, 49, 60
9, 16556, Note_on_c, 6, 49, 0
9, 16556, Note_on_c, 6, 57, 0
9, 16560, Note_on_c, 6, 61, 60
9, 16560, Note_on_c, 6, 66, 60
9, 16560, Note_on_c, 6, 49, 60
9, 17030, Note_on_c, 6, 49, 0
9, 17040, Note_on_c, 6, 66, 0
9, 17040, Note_on_c, 6, 61, 0
9, 17040, Note_on_c, 6, 49, 60
9, 17040, Note_on_c, 6, 59, 60
9, 17040, Note_on_c, 6, 65, 60
9, 17276, Note_on_c, 6, 49, 0
9, 17280, Note_on_c, 6, 65, 0
9, 17280, Note_on_c, 6, 59, 0
9, 17280, Note_on_c, 6, 57, 60
9, 17280, Note_on_c, 6, 54, 60
9, 17516, Note_on_c, 6, 54, 0
9, 17516, Note_on_c, 6, 57, 0
9, 29280, Note_on_c, 6, 54, 60
9, 29280, Note_on_c, 6, 57, 60
9, 29508, Note_on_c, 6, 57, 0
9, 29508, Note_on_c, 6, 54, 0
9, 29520, Note_on_c, 6, 57, 60
9, 29520, Note_on_c, 6, 54, 60
9, 29976, Note_on_c, 6, 54, 0
9, 29976, Note_on_c, 6, 57, 0
9, 30000, Note_on_c, 6, 54, 60
9, 30000, Note_on_c, 6, 57, 60
9, 30228, Note_on_c, 6, 57, 0
9, 30228, Note_on_c, 6, 54, 0
9, 30240, Note_on_c, 6, 56, 60
9, 30240, Note_on_c, 6, 59, 60
9, 30696, Note_on_c, 6, 59, 0
9, 30696, Note_on_c, 6, 56, 0
9, 30720, Note_on_c, 6, 57, 60
9, 30720, Note_on_c, 6, 54, 60
9, 30948, Note_on_c, 6, 54, 0
9, 30948, Note_on_c, 6, 57, 0
9, 30960, Note_on_c, 6, 56, 60
9, 30960, Note_on_c, 6, 53, 60
9, 31416, Note_on_c, 6, 53, 0
9, 31416, Note_on_c, 6, 56, 0
9, 31440, Note_on_c, 6, 53, 60
9, 31440, Note_on_c, 6, 56, 60
9, 31668, Note_on_c, 6, 56, 0
9, 31668, Note_on_c, 6, 53, 0
9, 31680, Note_on_c, 6, 54, 60
9, 31680, Note_on_c, 6, 57, 60
9, 32136, Note_on_c, 6, 57, 0
9, 32136, Note_on_c, 6, 54, 0
9, 32160, Note_on_c, 6, 54, 60
9, 32160, Note_on_c, 6, 57, 60
9, 32388, Note_on_c, 6, 57, 0
9, 32388, Note_on_c, 6, 54, 0
9, 32400, Note_on_c, 6, 57, 60
9, 32400, Note_on_c, 6, 54, 60
9, 32856, Note_on_c, 6, 54, 0
9, 32856, Note_on_c, 6, 57, 0
9, 32880, Note_on_c, 6, 54, 60
9, 32880, Note_on_c, 6, 57, 60
9, 33108, Note_on_c, 6, 57, 0
9, 33108, Note_on_c, 6, 54, 0
9, 33120, Note_on_c, 6, 56, 60
9, 33120, Note_on_c, 6, 59, 60
9, 33576, Note_on_c, 6, 59, 0
9, 33576, Note_on_c, 6, 56, 0
9, 33600, Note_on_c, 6, 54, 60
9, 33600, Note_on_c, 6, 57, 60
9, 33828, Note_on_c, 6, 57, 0
9, 33828, Note_on_c, 6, 54, 0
9, 33840, Note_on_c, 6, 53, 60
9, 33840, Note_on_c, 6, 56, 60
9, 34296, Note_on_c, 6, 56, 0
9, 34296, Note_on_c, 6, 53, 0
9, 34320, Note_on_c, 6, 56, 60
9, 34320, Note_on_c, 6, 53, 60
9, 34548, Note_on_c, 6, 53, 0
9, 34548, Note_on_c, 6, 56, 0
9, 34560, Note_on_c, 6, 54, 60
9, 34560, Note_on_c, 6, 57, 60
9, 35016, Note_on_c, 6, 57, 0
9, 35016, Note_on_c, 6, 54, 0
9, 35040, Note_on_c, 6, 57, 60
9, 35040, Note_on_c, 6, 54, 60
9, 35268, Note_on_c, 6, 54, 0
9, 35268, Note_on_c, 6, 57, 0
9, 35280, Note_on_c, 6, 54, 60
9, 35280, Note_on_c, 6, 57, 60
9, 35736, Note_on_c, 6, 57, 0
9, 35736, Note_on_c, 6, 54, 0
9, 35760, Note_on_c, 6, 54, 60
9, 35760, Note_on_c, 6, 57, 60
9, 35988, Note_on_c, 6, 57, 0
9, 35988, Note_on_c, 6, 54, 0
9, 36000, Note_on_c, 6, 56, 60
9, 36000, Note_on_c, 6, 59, 60
9, 36456, Note_on_c, 6, 59, 0
9, 36456, Note_on_c, 6, 56, 0
9, 36480, Note_on_c, 6, 56, 60
9, 36480, Note_on_c, 6, 59, 60
9, 36708, Note_on_c, 6, 59, 0
9, 36708, Note_on_c, 6, 56, 0
9, 36720, Note_on_c, 6, 59, 60
9, 36720, Note_on_c, 6, 56, 60
9, 37176, Note_on_c, 6, 56, 0
9, 37176, Note_on_c, 6, 59, 0
9, 37200, Note_on_c, 6, 59, 60
9, 37200, Note_on_c, 6, 56, 60
9, 37428, Note_on_c, 6, 56, 0
9, 37428, Note_on_c, 6, 59, 0
9, 37440, Note_on_c, 6, 57, 60
9, 37896, Note_on_c, 6, 57, 0
9, 37920, Note_on_c, 6, 57, 60
9, 38148, Note_on_c, 6, 57, 0
9, 38160, Note_on_c, 6, 49, 60
9, 38160, Note_on_c, 6, 57, 60
9, 38616, Note_on_c, 6, 57, 0
9, 38616, Note_on_c, 6, 49, 0
9, 38640, Note_on_c, 6, 49, 60
9, 38640, Note_on_c, 6, 57, 60
9, 38868, Note_on_c, 6, 57, 0
9, 38868, Note_on_c, 6, 49, 0
9, 38880, Note_on_c, 6, 50, 60
9, 38880, Note_on_c, 6, 54, 60
9, 39336, Note_on_c, 6, 54, 0
9, 39336, Note_on_c, 6, 50, 0
9, 39360, Note_on_c, 6, 50, 60
9, 39360, Note_on_c, 6, 54, 60
9, 39588, Note_on_c, 6, 54, 0
9, 39588, Note_on_c, 6, 50, 0
9, 39600, Note_on_c, 6, 54, 60
9, 39600, Note_on_c, 6, 51, 60
9, 40056, Note_on_c, 6, 51, 0
9, 40056, Note_on_c, 6, 54, 0
9, 40080, Note_on_c, 6, 54, 60
9, 40080, Note_on_c, 6, 51, 60
9, 40308, Note_on_c, 6, 51, 0
9, 40308, Note_on_c, 6, 54, 0
9, 40320, Note_on_c, 6, 52, 60
9, 40320, Note_on_c, 6, 57, 60
9, 40776, Note_on_c, 6, 57, 0
9, 40776, Note_on_c, 6, 52, 0
9, 40800, Note_on_c, 6, 52, 60
9, 40800, Note_on_c, 6, 56, 60
9, 41028, Note_on_c, 6, 56, 0
9, 41028, Note_on_c, 6, 52, 0
9, 41040, Note_on_c, 6, 56, 60
9, 41040, Note_on_c, 6, 52, 60
9, 41496, Note_on_c, 6, 52, 0
9, 41496, Note_on_c, 6, 56, 0
9, 41520, Note_on_c, 6, 56, 60
9, 41520, Note_on_c, 6, 52, 60
9, 41748, Note_on_c, 6, 52, 0
9, 41748, Note_on_c, 6, 56, 0
9, 41760, Note_on_c, 6, 57, 60
9, 41760, Note_on_c, 6, 52, 60
9, 42216, Note_on_c, 6, 52, 0
9, 42216, Note_on_c, 6, 57, 0
9, 42240, Note_on_c, 6, 57, 60
9, 42240, Note_on_c, 6, 52, 60
9, 42468, Note_on_c, 6, 52, 0
9, 42468, Note_on_c, 6, 57, 0
9, 42480, Note_on_c, 6, 52, 60
9, 42480, Note_on_c, 6, 57, 60
9, 42936, Note_on_c, 6, 57, 0
9, 42936, Note_on_c, 6, 52, 0
9, 42960, Note_on_c, 6, 57, 60
9, 42960, Note_on_c, 6, 52, 60
9, 43188, Note_on_c, 6, 52, 0
9, 43188, Note_on_c, 6, 57, 0
9, 43200, Note_on_c, 6, 52, 60
9, 43200, Note_on_c, 6, 56, 60
9, 43656, Note_on_c, 6, 56, 0
9, 43656, Note_on_c, 6, 52, 0
9, 43680, Note_on_c, 6, 56, 60
9, 43680, Note_on_c, 6, 52, 60
9, 43908, Note_on_c, 6, 52, 0
9, 43908, Note_on_c, 6, 56, 0
9, 43920, Note_on_c, 6, 56, 60
9, 43920, Note_on_c, 6, 52, 60
9, 44376, Note_on_c, 6, 52, 0
9, 44376, Note_on_c, 6, 56, 0
9, 44400, Note_on_c, 6, 56, 68
9, 44400, Note_on_c, 6, 52, 68
9, 44628, Note_on_c, 6, 52, 0
9, 44628, Note_on_c, 6, 56, 0
9, 44640, Note_on_c, 6, 53, 72
9, 44640, Note_on_c, 6, 57, 72
9, 45096, Note_on_c, 6, 57, 0
9, 45096, Note_on_c, 6, 53, 0
9, 45120, Note_on_c, 6, 57, 70
9, 45120, Note_on_c, 6, 53, 70
9, 45348, Note_on_c, 6, 53, 0
9, 45348, Note_on_c, 6, 57, 0
9, 45360, Note_on_c, 6, 53, 68
9, 45360, Note_on_c, 6, 57, 68
9, 45816, Note_on_c, 6, 57, 0
9, 45816, Note_on_c, 6, 53, 0
9, 45840, Note_on_c, 6, 53, 64
9, 45840, Note_on_c, 6, 57, 64
9, 46068, Note_on_c, 6, 57, 0
9, 46068, Note_on_c, 6, 53, 0
9, 46080, Note_on_c, 6, 52, 70
9, 46320, Note_on_c, 6, 52, 0
9, 46320, Note_on_c, 6, 56, 70
9, 46560, Note_on_c, 6, 56, 0
9, 46560, Note_on_c, 6, 59, 70
9, 46800, Note_on_c, 6, 59, 0
9, 46800, Note_on_c, 6, 52, 70
9, 47040, Note_on_c, 6, 52, 0
9, 47040, Note_on_c, 6, 57, 70
9, 47280, Note_on_c, 6, 57, 0
9, 47280, Note_on_c, 6, 60, 70
9, 47520, Note_on_c, 6, 60, 0
9, 47520, Note_on_c, 6, 52, 70
9, 47760, Note_on_c, 6, 52, 0
9, 47760, Note_on_c, 6, 56, 70
9, 48000, Note_on_c, 6, 56, 0
9, 48000, Note_on_c, 6, 59, 70
9, 48240, Note_on_c, 6, 59, 0
9, 48240, Note_on_c, 6, 52, 70
9, 48480, Note_on_c, 6, 52, 0
9, 48480, Note_on_c, 6, 57, 70
9, 48720, Note_on_c, 6, 57, 0
9, 48720, Note_on_c, 6, 60, 70
9, 48960, Note_on_c, 6, 60, 0
9, 48960, Note_on_c, 6, 52, 70
9, 49344, Note_on_c, 6, 52, 0
9, 56160, Note_on_c, 6, 52, 70
9, 56208, Note_on_c, 6, 52, 0
9, 56240, Note_on_c, 6, 57, 70
9, 56288, Note_on_c, 6, 57, 0
9, 56320, Note_on_c, 6, 61, 70
9, 56368, Note_on_c, 6, 61, 0
9, 56400, Note_on_c, 6, 64, 70
9, 56448, Note_on_c, 6, 64, 0
9, 56480, Note_on_c, 6, 61, 70
9, 56528, Note_on_c, 6, 61, 0
9, 56560, Note_on_c, 6, 57, 70
9, 56608, Note_on_c, 6, 57, 0
9, 56640, Note_on_c, 6, 52, 70
9, 56688, Note_on_c, 6, 52, 0
9, 56720, Note_on_c, 6, 57, 70
9, 56768, Note_on_c, 6, 57, 0
9, 56800, Note_on_c, 6, 61, 70
9, 56848, Note_on_c, 6, 61, 0
9, 56880, Note_on_c, 6, 52, 70
9, 56928, Note_on_c, 6, 52, 0
9, 56960, Note_on_c, 6, 57, 70
9, 57008, Note_on_c, 6, 57, 0
9, 57040, Note_on_c, 6, 61, 70
9, 57088, Note_on_c, 6, 61, 0
9, 57120, Note_on_c, 6, 64, 70
9, 57168, Note_on_c, 6, 64, 0
9, 57200, Note_on_c, 6, 61, 70
9, 57248, Note_on_c, 6, 61, 0
9, 57280, Note_on_c, 6, 57, 70
9, 57328, Note_on_c, 6, 57, 0
9, 57360, Note_on_c, 6, 52, 70
9, 57408, Note_on_c, 6, 52, 0
9, 57440, Note_on_c, 6, 57, 70
9, 57488, Note_on_c, 6, 57, 0
9, 57520, Note_on_c, 6, 61, 70
9, 57568, Note_on_c, 6, 61, 0
9, 57600, Note_on_c, 6, 52, 70
9, 57648, Note_on_c, 6, 52, 0
9, 57680, Note_on_c, 6, 56, 70
9, 57728, Note_on_c, 6, 56, 0
9, 57760, Note_on_c, 6, 59, 70
9, 57808, Note_on_c, 6, 59, 0
9, 57840, Note_on_c, 6, 64, 70
9, 57888, Note_on_c, 6, 64, 0
9, 57920, Note_on_c, 6, 59, 70
9, 57968, Note_on_c, 6, 59, 0
9, 58000, Note_on_c, 6, 56, 70
9, 58048, Note_on_c, 6, 56, 0
9, 58080, Note_on_c, 6, 52, 70
9, 58128, Note_on_c, 6, 52, 0
9, 58160, Note_on_c, 6, 56, 70
9, 58208, Note_on_c, 6, 56, 0
9, 58240, Note_on_c, 6, 59, 70
9, 58288, Note_on_c, 6, 59, 0
9, 58320, Note_on_c, 6, 52, 70
9, 58368, Note_on_c, 6, 52, 0
9, 58400, Note_on_c, 6, 56, 70
9, 58448, Note_on_c, 6, 56, 0
9, 58480, Note_on_c, 6, 59, 70
9, 58528, Note_on_c, 6, 59, 0
9, 58560, Note_on_c, 6, 64, 70
9, 58608, Note_on_c, 6, 64, 0
9, 58640, Note_on_c, 6, 59, 70
9, 58688, Note_on_c, 6, 59, 0
9, 58720, Note_on_c, 6, 56, 70
9, 58768, Note_on_c, 6, 56, 0
9, 58800, Note_on_c, 6, 52, 70
9, 58848, Note_on_c, 6, 52, 0
9, 58880, Note_on_c, 6, 56, 70
9, 58928, Note_on_c, 6, 56, 0
9, 58960, Note_on_c, 6, 59, 70
9, 59008, Note_on_c, 6, 59, 0
9, 59040, Note_on_c, 6, 54, 60
9, 59040, Note_on_c, 6, 57, 60
9, 59424, Note_on_c, 6, 57, 0
9, 59424, Note_on_c, 6, 54, 0
9, 59760, Note_on_c, 6, 50, 60
9, 59760, Note_on_c, 6, 59, 60
9, 59760, Note_on_c, 6, 54, 60
9, 60144, Note_on_c, 6, 54, 0
9, 60144, Note_on_c, 6, 59, 0
9, 60144, Note_on_c, 6, 50, 0
9, 60480, Note_on_c, 6, 52, 60
9, 60480, Note_on_c, 6, 61, 60
9, 60960, Note_on_c, 6, 61, 0
9, 60960, Note_on_c, 6, 62, 60
9, 61200, Note_on_c, 6, 62, 0
9, 61200, Note_on_c, 6, 52, 0
9, 61200, Note_on_c, 6, 57, 60
9, 61200, Note_on_c, 6, 61, 60
9, 61584, Note_on_c, 6, 61, 0
9, 61584, Note_on_c, 6, 57, 0
9, 64560, Note_on_c, 6, 54, 60
9, 64560, Note_on_c, 6, 57, 60
9, 64788, Note_on_c, 6, 57, 0
9, 64788, Note_on_c, 6, 54, 0
9, 64800, Note_on_c, 6, 50, 60
9, 64800, Note_on_c, 6, 54, 60
9, 65256, Note_on_c, 6, 54, 0
9, 65256, Note_on_c, 6, 50, 0
9, 65280, Note_on_c, 6, 52, 60
9, 65280, Note_on_c, 6, 62, 60
9, 65508, Note_on_c, 6, 62, 0
9, 65508, Note_on_c, 6, 52, 0
9, 65520, Note_on_c, 6, 57, 60
9, 65520, Note_on_c, 6, 61, 60
9, 65904, Note_on_c, 6, 61, 0
9, 65904, Note_on_c, 6, 57, 0
9, 66480, Note_on_c, 6, 64, 59
9, 66480, Note_on_c, 6, 56, 59
9, 66720, Note_on_c, 6, 56, 0
9, 66720, Note_on_c, 6, 57, 56
9, 66960, Note_on_c, 6, 57, 0
9, 66960, Note_on_c, 6, 64, 0
9, 66960, Note_on_c, 6, 56, 53
9, 66960, Note_on_c, 6, 52, 53
9, 67152, Note_on_c, 6, 52, 0
9, 67152, Note_on_c, 6, 56, 0
9, 67680, Note_on_c, 6, 49, 57
9, 67680, Note_on_c, 6, 45, 57
9, 67680, Note_on_c, 6, 73, 57
9, 67920, Note_on_c, 6, 45, 0
9, 67920, Note_on_c, 6, 49, 0
9, 67920, Note_on_c, 6, 52, 55
9, 67920, Note_on_c, 6, 49, 55
9, 68160, Note_on_c, 6, 49, 0
9, 68160, Note_on_c, 6, 52, 0
9, 68160, Note_on_c, 6, 73, 0
9, 68160, Note_on_c, 6, 52, 54
9, 68160, Note_on_c, 6, 71, 54
9, 68160, Note_on_c, 6, 56, 54
9, 68400, Note_on_c, 6, 56, 0
9, 68400, Note_on_c, 6, 71, 0
9, 68400, Note_on_c, 6, 52, 0
9, 68400, Note_on_c, 6, 54, 53
9, 68400, Note_on_c, 6, 69, 53
9, 68400, Note_on_c, 6, 57, 53
9, 68592, Note_on_c, 6, 57, 0
9, 68592, Note_on_c, 6, 69, 0
9, 68592, Note_on_c, 6, 54, 0
9, 69120, Note_on_c, 6, 50, 60
9, 69504, Note_on_c, 6, 50, 0
9, 69840, Note_on_c, 6, 51, 65
9, 70224, Note_on_c, 6, 51, 0
9, 70560, Note_on_c, 6, 52, 71
9, 70944, Note_on_c, 6, 52, 0
9, 71280, Note_on_c, 6, 52, 70
9, 71664, Note_on_c, 6, 52, 0
9, 72000, Note_on_c, 6, 52, 70
9, 72384, Note_on_c, 6, 52, 0
9, 72720, Note_on_c, 6, 52, 70
9, 73104, Note_on_c, 6, 52, 0
9, 73440, Note_on_c, 6, 45, 60
9, 73632, Note_on_c, 6, 45, 0
9, 76320, Note_on_c, 6, 54, 57
9, 76320, Note_on_c, 6, 57, 57
9, 76776, Note_on_c, 6, 57, 0
9, 76776, Note_on_c, 6, 54, 0
9, 76800, Note_on_c, 6, 57, 57
9, 76800, Note_on_c, 6, 54, 57
9, 77028, Note_on_c, 6, 54, 0
9, 77028, Note_on_c, 6, 57, 0
9, 77040, Note_on_c, 6, 54, 57
9, 77040, Note_on_c, 6, 57, 57
9, 77496, Note_on_c, 6, 57, 0
9, 77496, Note_on_c, 6, 54, 0
9, 77520, Note_on_c, 6, 54, 57
9, 77520, Note_on_c, 6, 61, 57
9, 77748, Note_on_c, 6, 61, 0
9, 77748, Note_on_c, 6, 54, 0
9, 77760, Note_on_c, 6, 54, 57
9, 77760, Note_on_c, 6, 62, 57
9, 78444, Note_on_c, 6, 62, 0
9, 78444, Note_on_c, 6, 54, 0
9, 78480, Note_on_c, 6, 41, 57
9, 78708, Note_on_c, 6, 41, 0
9, 78960, Note_on_c, 6, 61, 57
9, 78960, Note_on_c, 6, 53, 57
9, 79188, Note_on_c, 6, 53, 0
9, 79188, Note_on_c, 6, 61, 0
9, 79200, Note_on_c, 6, 54, 57
9, 79200, Note_on_c, 6, 61, 57
9, 79656, Note_on_c, 6, 61, 0
9, 79656, Note_on_c, 6, 54, 0
9, 79680, Note_on_c, 6, 49, 57
9, 79680, Note_on_c, 6, 45, 57
9, 79908, Note_on_c, 6, 45, 0
9, 79908, Note_on_c, 6, 49, 0
9, 79920, Note_on_c, 6, 47, 56
9, 79920, Note_on_c, 6, 50, 56
9, 80376, Note_on_c, 6, 50, 0
9, 80400, Note_on_c, 6, 59, 55
9, 80628, Note_on_c, 6, 59, 0
9, 80628, Note_on_c, 6, 47, 0
9, 80640, Note_on_c, 6, 49, 54
9, 80640, Note_on_c, 6, 57, 54
9, 81360, Note_on_c, 6, 57, 0
9, 81360, Note_on_c, 6, 56, 49
9, 81552, Note_on_c, 6, 56, 0
9, 81552, Note_on_c, 6, 49, 0
9, 82080, Note_on_c, 6, 54, 60
9, 82080, Note_on_c, 6, 57, 60
9, 82550, Note_on_c, 6, 57, 0
9, 82550, Note_on_c, 6, 54, 0
9, 82560, Note_on_c, 6, 54, 60
9, 82560, Note_on_c, 6, 57, 60
9, 82796, Note_on_c, 6, 57, 0
9, 82796, Note_on_c, 6, 54, 0
9, 82800, Note_on_c, 6, 56, 60
9, 82800, Note_on_c, 6, 59, 60
9, 83270, Note_on_c, 6, 59, 0
9, 83270, Note_on_c, 6, 56, 0
9, 83280, Note_on_c, 6, 56, 60
9, 83280, Note_on_c, 6, 59, 60
9, 83516, Note_on_c, 6, 59, 0
9, 83516, Note_on_c, 6, 56, 0
9, 83520, Note_on_c, 6, 64, 62
9, 83520, Note_on_c, 6, 57, 62
9, 83990, Note_on_c, 6, 57, 0
9, 83990, Note_on_c, 6, 64, 0
9, 84000, Note_on_c, 6, 64, 59
9, 84000, Note_on_c, 6, 57, 59
9, 84236, Note_on_c, 6, 57, 0
9, 84236, Note_on_c, 6, 64, 0
9, 84240, Note_on_c, 6, 57, 57
9, 84240, Note_on_c, 6, 54, 57
9, 84710, Note_on_c, 6, 54, 0
9, 84710, Note_on_c, 6, 57, 0
9, 84720, Note_on_c, 6, 54, 54
9, 84720, Note_on_c, 6, 57, 54
9, 84956, Note_on_c, 6, 57, 0
9, 84956, Note_on_c, 6, 54, 0
9, 84960, Note_on_c, 6, 51, 60
9, 84960, Note_on_c, 6, 57, 60
9, 85430, Note_on_c, 6, 57, 0
9, 85430, Note_on_c, 6, 51, 0
9, 85440, Note_on_c, 6, 51, 61
9, 85440, Note_on_c, 6, 57, 61
9, 85676, Note_on_c, 6, 57, 0
9, 85676, Note_on_c, 6, 51, 0
9, 85680, Note_on_c, 6, 53, 61
9, 85680, Note_on_c, 6, 56, 61
9, 86150, Note_on_c, 6, 56, 0
9, 86150, Note_on_c, 6, 53, 0
9, 86160, Note_on_c, 6, 53, 63
9, 86160, Note_on_c, 6, 56, 63
9, 86396, Note_on_c, 6, 56, 0
9, 86396, Note_on_c, 6, 53, 0
9, 86400, Note_on_c, 6, 54, 63
9, 86400, Note_on_c, 6, 61, 63
9, 86870, Note_on_c, 6, 61, 0
9, 86870, Note_on_c, 6, 54, 0
9, 86880, Note_on_c, 6, 61, 61
9, 86880, Note_on_c, 6, 54, 61
9, 87116, Note_on_c, 6, 54, 0
9, 87116, Note_on_c, 6, 61, 0
9, 87120, Note_on_c, 6, 50, 59
9, 87120, Note_on_c, 6, 54, 59
9, 87590, Note_on_c, 6, 54, 0
9, 87590, Note_on_c, 6, 50, 0
9, 87600, Note_on_c, 6, 50, 56
9, 87600, Note_on_c, 6, 54, 56
9, 87836, Note_on_c, 6, 54, 0
9, 87836, Note_on_c, 6, 50, 0
9, 87840, Note_on_c, 6, 47, 55
9, 87840, Note_on_c, 6, 55, 55
9, 87840, Note_on_c, 6, 50, 55
9, 88310, Note_on_c, 6, 50, 0
9, 88310, Note_on_c, 6, 55, 0
9, 88310, Note_on_c, 6, 47, 0
9, 88320, Note_on_c, 6, 55, 54
9, 88320, Note_on_c, 6, 50, 54
9, 88320, Note_on_c, 6, 47, 54
9, 88556, Note_on_c, 6, 47, 0
9, 88556, Note_on_c, 6, 50, 0
9, 88556, Note_on_c, 6, 55, 0
9, 88560, Note_on_c, 6, 47, 54
9, 88560, Note_on_c, 6, 55, 54
9, 88560, Note_on_c, 6, 50, 54
9, 89030, Note_on_c, 6, 50, 0
9, 89030, Note_on_c, 6, 55, 0
9, 89030, Note_on_c, 6, 47, 0
9, 89040, Note_on_c, 6, 55, 53
9, 89040, Note_on_c, 6, 50, 53
9, 89040, Note_on_c, 6, 47, 53
9, 89276, Note_on_c, 6, 47, 0
9, 89276, Note_on_c, 6, 50, 0
9, 89276, Note_on_c, 6, 55, 0
9, 89280, Note_on_c, 6, 47, 53
9, 89280, Note_on_c, 6, 50, 53
9, 89280, Note_on_c, 6, 55, 53
9, 89750, Note_on_c, 6, 55, 0
9, 89750, Note_on_c, 6, 50, 0
9, 89750, Note_on_c, 6, 47, 0
9, 90720, Note_on_c, 6, 49, 60
9, 90720, Note_on_c, 6, 57, 60
9, 91176, Note_on_c, 6, 57, 0
9, 91176, Note_on_c, 6, 49, 0
9, 91200, Note_on_c, 6, 57, 57
9, 91200, Note_on_c, 6, 49, 57
9, 91428, Note_on_c, 6, 49, 0
9, 91428, Note_on_c, 6, 57, 0
9, 91440, Note_on_c, 6, 61, 56
9, 91440, Note_on_c, 6, 66, 56
9, 91440, Note_on_c, 6, 49, 56
9, 91896, Note_on_c, 6, 49, 0
9, 91896, Note_on_c, 6, 61, 0
9, 91920, Note_on_c, 6, 66, 0
9, 91920, Note_on_c, 6, 59, 55
9, 91920, Note_on_c, 6, 65, 55
9, 91920, Note_on_c, 6, 49, 55
9, 92148, Note_on_c, 6, 49, 0
9, 92148, Note_on_c, 6, 59, 0
9, 92160, Note_on_c, 6, 65, 0
9, 92160, Note_on_c, 6, 50, 54
9, 92160, Note_on_c, 6, 57, 54
9, 93528, Note_on_c, 6, 57, 0
9, 93528, Note_on_c, 6, 50, 0
9, 93600, Note_on_c, 6, 47, 60
9, 93600, Note_on_c, 6, 50, 60
9, 93984, Note_on_c, 6, 50, 0
9, 93984, Note_on_c, 6, 47, 0
9, 94080, Note_on_c, 6, 50, 60
9, 94080, Note_on_c, 6, 47, 60
9, 94272, Note_on_c, 6, 47, 0
9, 94272, Note_on_c, 6, 50, 0
9, 94320, Note_on_c, 6, 47, 60
9, 94320, Note_on_c, 6, 50, 60
9, 94704, Note_on_c, 6, 50, 0
9, 94704, Note_on_c, 6, 47, 0
9, 94800, Note_on_c, 6, 47, 60
9, 94800, Note_on_c, 6, 50, 60
9, 94992, Note_on_c, 6, 50, 0
9, 94992, Note_on_c, 6, 47, 0
9, 95040, Note_on_c, 6, 47, 60
9, 95040, Note_on_c, 6, 50, 60
9, 95424, Note_on_c, 6, 50, 0
9, 95424, Note_on_c, 6, 47, 0
9, 96480, Note_on_c, 6, 49, 60
9, 96480, Note_on_c, 6, 57, 60
9, 96936, Note_on_c, 6, 57, 0
9, 96936, Note_on_c, 6, 49, 0
9, 96960, Note_on_c, 6, 57, 60
9, 96960, Note_on_c, 6, 49, 60
9, 97188, Note_on_c, 6, 49, 0
9, 97188, Note_on_c, 6, 57, 0
9, 97200, Note_on_c, 6, 61, 60
9, 97200, Note_on_c, 6, 66, 60
9, 97200, Note_on_c, 6, 49, 60
9, 97656, Note_on_c, 6, 49, 0
9, 97656, Note_on_c, 6, 61, 0
9, 97680, Note_on_c, 6, 66, 0
9, 97680, Note_on_c, 6, 59, 57
9, 97680, Note_on_c, 6, 65, 57
9, 97680, Note_on_c, 6, 49, 57
9, 97908, Note_on_c, 6, 49, 0
9, 97908, Note_on_c, 6, 59, 0
9, 97920, Note_on_c, 6, 65, 0
9, 97920, Note_on_c, 6, 54, 55
9, 97920, Note_on_c, 6, 57, 55
9, 98112, Note_on_c, 6, 57, 0
9, 98112, Note_on_c, 6, 54, 0
9, 109440, Note_on_c, 6, 54, 60
9, 109558, Note_on_c, 6, 54, 0
9, 109560, Note_on_c, 6, 57, 60
9, 109678, Note_on_c, 6, 57, 0
9, 109680, Note_on_c, 6, 61, 60
9, 109798, Note_on_c, 6, 61, 0
9, 109800, Note_on_c, 6, 57, 60
9, 109918, Note_on_c, 6, 57, 0
9, 109920, Note_on_c, 6, 61, 60
9, 110038, Note_on_c, 6, 61, 0
9, 110040, Note_on_c, 6, 57, 60
9, 110158, Note_on_c, 6, 57, 0
9, 110160, Note_on_c, 6, 54, 60
9, 110278, Note_on_c, 6, 54, 0
9, 110280, Note_on_c, 6, 57, 60
9, 110398, Note_on_c, 6, 57, 0
9, 110400, Note_on_c, 6, 61, 60
9, 110518, Note_on_c, 6, 61, 0
9, 110520, Note_on_c, 6, 57, 60
9, 110638, Note_on_c, 6, 57, 0
9, 110640, Note_on_c, 6, 61, 60
9, 110758, Note_on_c, 6, 61, 0
9, 110760, Note_on_c, 6, 57, 60
9, 110878, Note_on_c, 6, 57, 0
9, 110880, Note_on_c, 6, 54, 60
9, 110998, Note_on_c, 6, 54, 0
9, 111000, Note_on_c, 6, 57, 60
9, 111118, Note_on_c, 6, 57, 0
9, 111120, Note_on_c, 6, 61, 60
9, 111238, Note_on_c, 6, 61, 0
9, 111240, Note_on_c, 6, 57, 60
9, 111358, Note_on_c, 6, 57, 0
9, 111360, Note_on_c, 6, 61, 60
9, 111478, Note_on_c, 6, 61, 0
9, 111480, Note_on_c, 6, 57, 60
9, 111598, Note_on_c, 6, 57, 0
9, 111600, Note_on_c, 6, 56, 60
9, 111718, Note_on_c, 6, 56, 0
9, 111720, Note_on_c, 6, 59, 60
9, 111838, Note_on_c, 6, 59, 0
9, 111840, Note_on_c, 6, 61, 60
9, 111958, Note_on_c, 6, 61, 0
9, 111960, Note_on_c, 6, 59, 60
9, 112078, Note_on_c, 6, 59, 0
9, 112080, Note_on_c, 6, 61, 60
9, 112198, Note_on_c, 6, 61, 0
9, 112200, Note_on_c, 6, 59, 60
9, 112318, Note_on_c, 6, 59, 0
9, 112320, Note_on_c, 6, 57, 60
9, 112438, Note_on_c, 6, 57, 0
9, 112440, Note_on_c, 6, 59, 60
9, 112558, Note_on_c, 6, 59, 0
9, 112560, Note_on_c, 6, 65, 60
9, 112678, Note_on_c, 6, 65, 0
9, 112680, Note_on_c, 6, 59, 60
9, 112798, Note_on_c, 6, 59, 0
9, 112800, Note_on_c, 6, 65, 60
9, 112918, Note_on_c, 6, 65, 0
9, 112920, Note_on_c, 6, 59, 60
9, 113038, Note_on_c, 6, 59, 0
9, 113040, Note_on_c, 6, 57, 60
9, 113158, Note_on_c, 6, 57, 0
9, 113160, Note_on_c, 6, 61, 60
9, 113278, Note_on_c, 6, 61, 0
9, 113280, Note_on_c, 6, 66, 60
9, 113398, Note_on_c, 6, 66, 0
9, 113400, Note_on_c, 6, 61, 60
9, 113518, Note_on_c, 6, 61, 0
9, 113520, Note_on_c, 6, 66, 60
9, 113638, Note_on_c, 6, 66, 0
9, 113640, Note_on_c, 6, 61, 60
9, 113758, Note_on_c, 6, 61, 0
9, 113760, Note_on_c, 6, 59, 60
9, 113878, Note_on_c, 6, 59, 0
9, 113880, Note_on_c, 6, 62, 60
9, 113998, Note_on_c, 6, 62, 0
9, 114000, Note_on_c, 6, 66, 60
9, 114118, Note_on_c, 6, 66, 0
9, 114120, Note_on_c, 6, 62, 60
9, 114238, Note_on_c, 6, 62, 0
9, 114240, Note_on_c, 6, 66, 60
9, 114358, Note_on_c, 6, 66, 0
9, 114360, Note_on_c, 6, 62, 60
9, 114478, Note_on_c, 6, 62, 0
9, 114480, Note_on_c, 6, 59, 60
9, 114598, Note_on_c, 6, 59, 0
9, 114600, Note_on_c, 6, 62, 60
9, 114718, Note_on_c, 6, 62, 0
9, 114720, Note_on_c, 6, 68, 60
9, 114838, Note_on_c, 6, 68, 0
9, 114840, Note_on_c, 6, 62, 60
9, 114958, Note_on_c, 6, 62, 0
9, 114960, Note_on_c, 6, 68, 60
9, 115078, Note_on_c, 6, 68, 0
9, 115080, Note_on_c, 6, 62, 60
9, 115198, Note_on_c, 6, 62, 0
9, 115320, Note_on_c, 6, 49, 60
9, 115398, Note_on_c, 6, 49, 0
9, 115440, Note_on_c, 6, 53, 60
9, 115518, Note_on_c, 6, 53, 0
9, 115560, Note_on_c, 6, 56, 60
9, 115638, Note_on_c, 6, 56, 0
9, 115680, Note_on_c, 6, 61, 60
9, 115758, Note_on_c, 6, 61, 0
9, 115800, Note_on_c, 6, 49, 60
9, 115878, Note_on_c, 6, 49, 0
9, 115920, Note_on_c, 6, 61, 60
9, 116232, Note_on_c, 6, 61, 0
9, 116760, Note_on_c, 6, 37, 60
9, 116838, Note_on_c, 6, 37, 0
9, 116880, Note_on_c, 6, 39, 60
9, 116958, Note_on_c, 6, 39, 0
9, 117000, Note_on_c, 6, 42, 60
9, 117078, Note_on_c, 6, 42, 0
9, 117120, Note_on_c, 6, 49, 60
9, 117198, Note_on_c, 6, 49, 0
9, 117240, Note_on_c, 6, 37, 60
9, 117318, Note_on_c, 6, 37, 0
9, 117360, Note_on_c, 6, 49, 60
9, 117672, Note_on_c, 6, 49, 0
9, 118200, Note_on_c, 6, 49, 60
9, 118278, Note_on_c, 6, 49, 0
9, 118320, Note_on_c, 6, 54, 60
9, 118398, Note_on_c, 6, 54, 0
9, 118440, Note_on_c, 6, 58, 60
9, 118518, Note_on_c, 6, 58, 0
9, 118560, Note_on_c, 6, 61, 60
9, 118638, Note_on_c, 6, 61, 0
9, 118680, Note_on_c, 6, 49, 60
9, 118758, Note_on_c, 6, 49, 0
9, 118800, Note_on_c, 6, 61, 60
9, 119112, Note_on_c, 6, 61, 0
9, 119640, Note_on_c, 6, 37, 60
9, 119718, Note_on_c, 6, 37, 0
9, 119760, Note_on_c, 6, 42, 60
9, 119838, Note_on_c, 6, 42, 0
9, 119880, Note_on_c, 6, 44, 60
9, 119958, Note_on_c, 6, 44, 0
9, 120000, Note_on_c, 6, 49, 60
9, 120078, Note_on_c, 6, 49, 0
9, 120120, Note_on_c, 6, 37, 60
9, 120198, Note_on_c, 6, 37, 0
9, 120240, Note_on_c, 6, 49, 60
9, 120552, Note_on_c, 6, 49, 0
9, 120960, Note_on_c, 6, 54, 57
9, 121344, Note_on_c, 6, 54, 0
9, 122400, Note_on_c, 6, 50, 60
9, 122784, Note_on_c, 6, 50, 0
9, 123840, Note_on_c, 6, 47, 60
9, 124224, Note_on_c, 6, 47, 0
9, 125280, Note_on_c, 6, 49, 60
9, 125664, Note_on_c, 6, 49, 0
9, 126720, Note_on_c, 6, 54, 60
9, 127104, Note_on_c, 6, 54, 0
9, 128160, Note_on_c, 6, 50, 70
9, 128544, Note_on_c, 6, 50, 0
9, 129600, Note_on_c, 6, 47, 70
9, 129984, Note_on_c, 6, 47, 0
9, 131040, Note_on_c, 6, 49, 70
9, 131424, Note_on_c, 6, 49, 0
9, 132480, Note_on_c, 6, 54, 60
9, 132864, Note_on_c, 6, 54, 0
9, 133200, Note_on_c, 6, 45, 60
9, 133584, Note_on_c, 6, 45, 0
9, 133920, Note_on_c, 6, 47, 60
9, 134304, Note_on_c, 6, 47, 0
9, 134640, Note_on_c, 6, 49, 60
9, 135024, Note_on_c, 6, 49, 0
9, 135360, Note_on_c, 6, 45, 60
9, 135744, Note_on_c, 6, 45, 0
9, 136080, Note_on_c, 6, 50, 60
9, 136464, Note_on_c, 6, 50, 0
9, 136800, Note_on_c, 6, 47, 60
9, 137184, Note_on_c, 6, 47, 0
9, 137520, Note_on_c, 6, 49, 60
9, 137904, Note_on_c, 6, 49, 0
9, 138240, Note_on_c, 6, 45, 60
9, 138624, Note_on_c, 6, 45, 0
9, 138960, Note_on_c, 6, 48, 60
9, 139344, Note_on_c, 6, 48, 0
9, 139680, Note_on_c, 6, 49, 60
9, 140064, Note_on_c, 6, 49, 0
9, 141120, Note_on_c, 6, 54, 55
9, 141300, Note_on_c, 6, 54, 0
9, 141600, Note_on_c, 6, 73, 58
9, 141840, Note_on_c, 6, 73, 0
9, 141840, Note_on_c, 6, 54, 54
9, 141840, Note_on_c, 6, 69, 54
9, 142020, Note_on_c, 6, 54, 0
9, 142032, Note_on_c, 6, 69, 0
9, 142320, Note_on_c, 6, 73, 57
9, 142560, Note_on_c, 6, 73, 0
9, 142560, Note_on_c, 6, 54, 51
9, 142560, Note_on_c, 6, 69, 51
9, 142740, Note_on_c, 6, 69, 0
9, 142740, Note_on_c, 6, 54, 0
9, 142740, End_track
10, 0, Start_track
10, 0, Sequencer_specific, 04, 43, 00, 01, 00
10, 0, Program_c, 7, 0
10, 0, Control_c, 7, 7, 123
10, 0, Control_c, 7, 91, 100
10, 0, End_track
11, 0, Start_track
11, 0, Sequencer_specific, 04, 43, 00, 01, 00
11, 0, Program_c, 10, 48
11, 0, Control_c, 10, 7, 114
11, 0, Control_c, 10, 10, 28
11, 0, Control_c, 10, 91, 80
11, 18000, Note_on_c, 10, 69, 60
11, 18960, Note_on_c, 10, 69, 0
11, 18960, Note_on_c, 10, 68, 60
11, 19200, Note_on_c, 10, 68, 0
11, 19200, Note_on_c, 10, 66, 60
11, 19440, Note_on_c, 10, 66, 0
11, 19440, Note_on_c, 10, 65, 60
11, 19680, Note_on_c, 10, 65, 0
11, 19680, Note_on_c, 10, 66, 60
11, 19920, Note_on_c, 10, 66, 0
11, 19920, Note_on_c, 10, 68, 60
11, 20160, Note_on_c, 10, 68, 0
11, 20160, Note_on_c, 10, 61, 60
11, 20844, Note_on_c, 10, 61, 0
11, 20880, Note_on_c, 10, 73, 60
11, 21840, Note_on_c, 10, 73, 0
11, 21840, Note_on_c, 10, 71, 60
11, 22080, Note_on_c, 10, 71, 0
11, 22080, Note_on_c, 10, 69, 60
11, 22320, Note_on_c, 10, 69, 0
11, 22320, Note_on_c, 10, 68, 60
11, 22560, Note_on_c, 10, 68, 0
11, 22560, Note_on_c, 10, 69, 60
11, 22800, Note_on_c, 10, 69, 0
11, 22800, Note_on_c, 10, 71, 60
11, 23040, Note_on_c, 10, 71, 0
11, 23040, Note_on_c, 10, 65, 60
11, 23724, Note_on_c, 10, 65, 0
11, 23760, Note_on_c, 10, 81, 90
11, 24720, Note_on_c, 10, 81, 0
11, 24720, Note_on_c, 10, 80, 90
11, 24960, Note_on_c, 10, 80, 0
11, 24960, Note_on_c, 10, 78, 90
11, 25200, Note_on_c, 10, 78, 0
11, 25200, Note_on_c, 10, 77, 90
11, 25440, Note_on_c, 10, 77, 0
11, 25440, Note_on_c, 10, 78, 90
11, 25680, Note_on_c, 10, 78, 0
11, 25680, Note_on_c, 10, 80, 90
11, 25920, Note_on_c, 10, 80, 0
11, 25920, Note_on_c, 10, 73, 90
11, 26880, Note_on_c, 10, 73, 0
11, 26880, Note_on_c, 10, 71, 90
11, 27600, Note_on_c, 10, 71, 0
11, 27600, Note_on_c, 10, 73, 90
11, 27840, Note_on_c, 10, 73, 0
11, 27840, Note_on_c, 10, 69, 90
11, 28320, Note_on_c, 10, 69, 0
11, 28320, Note_on_c, 10, 71, 80
11, 28464, Note_on_c, 10, 71, 0
11, 28560, Note_on_c, 10, 68, 80
11, 28680, Note_on_c, 10, 68, 0
11, 28800, Note_on_c, 10, 66, 70
11, 29256, Note_on_c, 10, 66, 0
11, 36000, Note_on_c, 10, 74, 60
11, 37440, Note_on_c, 10, 74, 0
11, 37440, Note_on_c, 10, 73, 60
11, 38880, Note_on_c, 10, 73, 0
11, 38880, Note_on_c, 10, 71, 60
11, 39600, Note_on_c, 10, 71, 0
11, 39600, Note_on_c, 10, 73, 60
11, 40320, Note_on_c, 10, 73, 0
11, 40320, Note_on_c, 10, 73, 60
11, 40800, Note_on_c, 10, 73, 0
11, 40800, Note_on_c, 10, 71, 60
11, 40992, Note_on_c, 10, 71, 0
11, 42000, Note_on_c, 10, 69, 60
11, 42240, Note_on_c, 10, 69, 0
11, 42240, Note_on_c, 10, 72, 60
11, 42480, Note_on_c, 10, 72, 0
11, 42480, Note_on_c, 10, 76, 60
11, 42672, Note_on_c, 10, 76, 0
11, 43440, Note_on_c, 10, 68, 60
11, 43680, Note_on_c, 10, 68, 0
11, 43680, Note_on_c, 10, 71, 60
11, 43920, Note_on_c, 10, 71, 0
11, 43920, Note_on_c, 10, 76, 60
11, 44112, Note_on_c, 10, 76, 0
11, 44640, Note_on_c, 10, 76, 69
11, 45120, Note_on_c, 10, 76, 0
11, 45120, Note_on_c, 10, 75, 63
11, 45360, Note_on_c, 10, 75, 0
11, 45360, Note_on_c, 10, 72, 60
11, 45840, Note_on_c, 10, 72, 0
11, 45840, Note_on_c, 10, 69, 54
11, 46080, Note_on_c, 10, 69, 0
11, 46080, Note_on_c, 10, 68, 51
11, 46464, Note_on_c, 10, 68, 0
11, 58800, Note_on_c, 10, 74, 60
11, 59040, Note_on_c, 10, 74, 0
11, 59040, Note_on_c, 10, 73, 60
11, 59232, Note_on_c, 10, 73, 0
11, 59760, Note_on_c, 10, 71, 60
11, 59952, Note_on_c, 10, 71, 0
11, 60720, Note_on_c, 10, 76, 60
11, 60960, Note_on_c, 10, 76, 0
11, 60960, Note_on_c, 10, 68, 60
11, 61200, Note_on_c, 10, 68, 0
11, 61200, Note_on_c, 10, 69, 60
11, 61392, Note_on_c, 10, 69, 0
11, 65040, Note_on_c, 10, 78, 72
11, 65160, Note_on_c, 10, 78, 0
11, 65160, Note_on_c, 10, 74, 71
11, 65256, Note_on_c, 10, 74, 0
11, 65280, Note_on_c, 10, 74, 70
11, 65400, Note_on_c, 10, 74, 0
11, 65400, Note_on_c, 10, 71, 69
11, 65496, Note_on_c, 10, 71, 0
11, 65520, Note_on_c, 10, 69, 54
11, 65712, Note_on_c, 10, 69, 0
11, 66240, Note_on_c, 10, 62, 62
11, 66720, Note_on_c, 10, 62, 0
11, 66720, Note_on_c, 10, 61, 60
11, 66960, Note_on_c, 10, 61, 0
11, 66960, Note_on_c, 10, 59, 58
11, 67152, Note_on_c, 10, 59, 0
11, 67680, Note_on_c, 10, 64, 62
11, 68160, Note_on_c, 10, 64, 0
11, 68160, Note_on_c, 10, 62, 60
11, 68400, Note_on_c, 10, 62, 0
11, 68400, Note_on_c, 10, 61, 56
11, 68592, Note_on_c, 10, 61, 0
11, 69240, Note_on_c, 10, 66, 60
11, 69360, Note_on_c, 10, 66, 0
11, 69360, Note_on_c, 10, 69, 60
11, 69480, Note_on_c, 10, 69, 0
11, 69480, Note_on_c, 10, 66, 60
11, 69600, Note_on_c, 10, 66, 0
11, 69600, Note_on_c, 10, 69, 60
11, 69720, Note_on_c, 10, 69, 0
11, 69720, Note_on_c, 10, 66, 60
11, 69840, Note_on_c, 10, 66, 0
11, 69960, Note_on_c, 10, 66, 60
11, 70080, Note_on_c, 10, 66, 0
11, 70080, Note_on_c, 10, 69, 60
11, 70200, Note_on_c, 10, 69, 0
11, 70200, Note_on_c, 10, 66, 60
11, 70320, Note_on_c, 10, 66, 0
11, 70320, Note_on_c, 10, 69, 60
11, 70440, Note_on_c, 10, 69, 0
11, 70440, Note_on_c, 10, 66, 60
11, 70560, Note_on_c, 10, 66, 0
11, 70560, Note_on_c, 10, 64, 60
11, 70752, Note_on_c, 10, 64, 0
11, 70800, Note_on_c, 10, 73, 60
11, 70992, Note_on_c, 10, 73, 0
11, 71040, Note_on_c, 10, 73, 60
11, 71232, Note_on_c, 10, 73, 0
11, 71280, Note_on_c, 10, 73, 60
11, 71472, Note_on_c, 10, 73, 0
11, 71520, Note_on_c, 10, 73, 60
11, 71712, Note_on_c, 10, 73, 0
11, 71760, Note_on_c, 10, 73, 60
11, 71952, Note_on_c, 10, 73, 0
11, 72000, Note_on_c, 10, 71, 60
11, 72192, Note_on_c, 10, 71, 0
11, 72240, Note_on_c, 10, 71, 60
11, 72432, Note_on_c, 10, 71, 0
11, 72480, Note_on_c, 10, 71, 60
11, 72672, Note_on_c, 10, 71, 0
11, 72720, Note_on_c, 10, 71, 60
11, 72912, Note_on_c, 10, 71, 0
11, 72960, Note_on_c, 10, 71, 60
11, 73152, Note_on_c, 10, 71, 0
11, 73200, Note_on_c, 10, 71, 60
11, 73392, Note_on_c, 10, 71, 0
11, 73440, Note_on_c, 10, 69, 60
11, 73824, Note_on_c, 10, 69, 0
11, 98640, Note_on_c, 10, 69, 60
11, 99600, Note_on_c, 10, 69, 0
11, 99600, Note_on_c, 10, 68, 60
11, 99840, Note_on_c, 10, 68, 0
11, 99840, Note_on_c, 10, 66, 60
11, 100080, Note_on_c, 10, 66, 0
11, 100080, Note_on_c, 10, 65, 60
11, 100320, Note_on_c, 10, 65, 0
11, 100320, Note_on_c, 10, 66, 60
11, 100560, Note_on_c, 10, 66, 0
11, 100560, Note_on_c, 10, 68, 60
11, 100800, Note_on_c, 10, 68, 0
11, 100800, Note_on_c, 10, 61, 60
11, 101520, Note_on_c, 10, 61, 0
11, 101520, Note_on_c, 10, 73, 60
11, 102480, Note_on_c, 10, 73, 0
11, 102480, Note_on_c, 10, 71, 60
11, 102720, Note_on_c, 10, 71, 0
11, 102720, Note_on_c, 10, 69, 60
11, 102960, Note_on_c, 10, 69, 0
11, 102960, Note_on_c, 10, 68, 60
11, 103200, Note_on_c, 10, 68, 0
11, 103200, Note_on_c, 10, 69, 60
11, 103440, Note_on_c, 10, 69, 0
11, 103440, Note_on_c, 10, 71, 60
11, 103680, Note_on_c, 10, 71, 0
11, 103680, Note_on_c, 10, 65, 60
11, 104256, Note_on_c, 10, 65, 0
11, 104400, Note_on_c, 10, 81, 90
11, 105360, Note_on_c, 10, 81, 0
11, 105360, Note_on_c, 10, 80, 90
11, 105600, Note_on_c, 10, 80, 0
11, 105600, Note_on_c, 10, 78, 90
11, 105840, Note_on_c, 10, 78, 0
11, 105840, Note_on_c, 10, 77, 90
11, 106080, Note_on_c, 10, 77, 0
11, 106080, Note_on_c, 10, 78, 90
11, 106320, Note_on_c, 10, 78, 0
11, 106320, Note_on_c, 10, 80, 90
11, 106560, Note_on_c, 10, 80, 0
11, 106560, Note_on_c, 10, 73, 90
11, 107520, Note_on_c, 10, 73, 0
11, 107520, Note_on_c, 10, 71, 90
11, 108240, Note_on_c, 10, 71, 0
11, 108240, Note_on_c, 10, 73, 90
11, 108432, Note_on_c, 10, 73, 0
11, 108480, Note_on_c, 10, 69, 90
11, 108960, Note_on_c, 10, 69, 0
11, 108960, Note_on_c, 10, 71, 90
11, 109104, Note_on_c, 10, 71, 0
11, 109200, Note_on_c, 10, 68, 80
11, 109320, Note_on_c, 10, 68, 0
11, 109440, Note_on_c, 10, 66, 70
11, 109896, Note_on_c, 10, 66, 0
11, 110880, Note_on_c, 10, 73, 60
11, 111600, Note_on_c, 10, 73, 0
11, 111600, Note_on_c, 10, 71, 60
11, 112560, Note_on_c, 10, 71, 0
11, 112560, Note_on_c, 10, 69, 60
11, 112800, Note_on_c, 10, 69, 0
11, 112800, Note_on_c, 10, 68, 60
11, 113040, Note_on_c, 10, 68, 0
11, 113040, Note_on_c, 10, 66, 60
11, 113280, Note_on_c, 10, 66, 0
11, 113280, Note_on_c, 10, 68, 60
11, 113520, Note_on_c, 10, 68, 0
11, 113520, Note_on_c, 10, 69, 60
11, 113760, Note_on_c, 10, 69, 0
11, 113760, Note_on_c, 10, 62, 60
11, 114480, Note_on_c, 10, 62, 0
11, 114480, Note_on_c, 10, 74, 60
11, 115200, Note_on_c, 10, 74, 0
11, 115200, Note_on_c, 10, 68, 60
11, 115584, Note_on_c, 10, 68, 0
11, 121080, Note_on_c, 10, 66, 60
11, 121158, Note_on_c, 10, 66, 0
11, 121320, Note_on_c, 10, 69, 60
11, 121398, Note_on_c, 10, 69, 0
11, 121560, Note_on_c, 10, 73, 60
11, 121638, Note_on_c, 10, 73, 0
11, 121800, Note_on_c, 10, 69, 60
11, 121878, Note_on_c, 10, 69, 0
11, 122040, Note_on_c, 10, 66, 60
11, 122118, Note_on_c, 10, 66, 0
11, 122280, Note_on_c, 10, 61, 60
11, 122358, Note_on_c, 10, 61, 0
11, 122520, Note_on_c, 10, 62, 60
11, 122598, Note_on_c, 10, 62, 0
11, 122760, Note_on_c, 10, 66, 60
11, 122838, Note_on_c, 10, 66, 0
11, 123000, Note_on_c, 10, 69, 60
11, 123078, Note_on_c, 10, 69, 0
11, 123240, Note_on_c, 10, 66, 60
11, 123318, Note_on_c, 10, 66, 0
11, 123480, Note_on_c, 10, 62, 60
11, 123558, Note_on_c, 10, 62, 0
11, 123720, Note_on_c, 10, 57, 60
11, 123798, Note_on_c, 10, 57, 0
11, 123960, Note_on_c, 10, 59, 60
11, 124038, Note_on_c, 10, 59, 0
11, 124200, Note_on_c, 10, 62, 60
11, 124278, Note_on_c, 10, 62, 0
11, 124440, Note_on_c, 10, 61, 60
11, 124518, Note_on_c, 10, 61, 0
11, 124680, Note_on_c, 10, 59, 60
11, 124758, Note_on_c, 10, 59, 0
11, 124920, Note_on_c, 10, 57, 60
11, 124998, Note_on_c, 10, 57, 0
11, 125160, Note_on_c, 10, 56, 60
11, 125238, Note_on_c, 10, 56, 0
11, 125400, Note_on_c, 10, 61, 60
11, 125478, Note_on_c, 10, 61, 0
11, 125640, Note_on_c, 10, 66, 60
11, 125718, Note_on_c, 10, 66, 0
11, 125880, Note_on_c, 10, 69, 60
11, 125958, Note_on_c, 10, 69, 0
11, 126120, Note_on_c, 10, 61, 60
11, 126198, Note_on_c, 10, 61, 0
11, 126360, Note_on_c, 10, 65, 60
11, 126438, Note_on_c, 10, 65, 0
11, 126600, Note_on_c, 10, 68, 60
11, 126678, Note_on_c, 10, 68, 0
11, 126840, Note_on_c, 10, 66, 60
11, 126918, Note_on_c, 10, 66, 0
11, 127080, Note_on_c, 10, 69, 60
11, 127158, Note_on_c, 10, 69, 0
11, 127320, Note_on_c, 10, 73, 60
11, 127398, Note_on_c, 10, 73, 0
11, 127560, Note_on_c, 10, 69, 60
11, 127638, Note_on_c, 10, 69, 0
11, 127800, Note_on_c, 10, 66, 60
11, 127878, Note_on_c, 10, 66, 0
11, 128040, Note_on_c, 10, 61, 60
11, 128118, Note_on_c, 10, 61, 0
11, 128280, Note_on_c, 10, 62, 60
11, 128358, Note_on_c, 10, 62, 0
11, 128520, Note_on_c, 10, 66, 60
11, 128598, Note_on_c, 10, 66, 0
11, 128760, Note_on_c, 10, 69, 60
11, 128838, Note_on_c, 10, 69, 0
11, 129000, Note_on_c, 10, 66, 60
11, 129078, Note_on_c, 10, 66, 0
11, 129240, Note_on_c, 10, 62, 60
11, 129318, Note_on_c, 10, 62, 0
11, 129480, Note_on_c, 10, 57, 60
11, 129558, Note_on_c, 10, 57, 0
11, 129720, Note_on_c, 10, 59, 60
11, 129798, Note_on_c, 10, 59, 0
11, 129960, Note_on_c, 10, 62, 60
11, 130038, Note_on_c, 10, 62, 0
11, 130200, Note_on_c, 10, 67, 60
11, 130278, Note_on_c, 10, 67, 0
11, 130440, Note_on_c, 10, 71, 60
11, 130518, Note_on_c, 10, 71, 0
11, 130680, Note_on_c, 10, 67, 60
11, 130758, Note_on_c, 10, 67, 0
11, 130920, Note_on_c, 10, 59, 60
11, 130998, Note_on_c, 10, 59, 0
11, 131160, Note_on_c, 10, 61, 60
11, 131238, Note_on_c, 10, 61, 0
11, 131400, Note_on_c, 10, 66, 60
11, 131478, Note_on_c, 10, 66, 0
11, 131640, Note_on_c, 10, 69, 60
11, 131718, Note_on_c, 10, 69, 0
11, 131880, Note_on_c, 10, 61, 60
11, 131958, Note_on_c, 10, 61, 0
11, 132120, Note_on_c, 10, 65, 60
11, 132198, Note_on_c, 10, 65, 0
11, 132360, Note_on_c, 10, 68, 60
11, 132438, Note_on_c, 10, 68, 0
11, 132600, Note_on_c, 10, 57, 60
11, 132720, Note_on_c, 10, 57, 0
11, 132720, Note_on_c, 10, 61, 60
11, 132840, Note_on_c, 10, 61, 0
11, 132840, Note_on_c, 10, 66, 60
11, 132960, Note_on_c, 10, 66, 0
11, 132960, Note_on_c, 10, 61, 60
11, 133080, Note_on_c, 10, 61, 0
11, 133080, Note_on_c, 10, 57, 60
11, 133200, Note_on_c, 10, 57, 0
11, 133320, Note_on_c, 10, 61, 60
11, 133440, Note_on_c, 10, 61, 0
11, 133440, Note_on_c, 10, 66, 60
11, 133560, Note_on_c, 10, 66, 0
11, 133560, Note_on_c, 10, 69, 60
11, 133680, Note_on_c, 10, 69, 0
11, 133680, Note_on_c, 10, 66, 60
11, 133800, Note_on_c, 10, 66, 0
11, 133800, Note_on_c, 10, 61, 60
11, 133920, Note_on_c, 10, 61, 0
11, 134040, Note_on_c, 10, 62, 60
11, 134160, Note_on_c, 10, 62, 0
11, 134160, Note_on_c, 10, 66, 60
11, 134280, Note_on_c, 10, 66, 0
11, 134280, Note_on_c, 10, 68, 60
11, 134400, Note_on_c, 10, 68, 0
11, 134400, Note_on_c, 10, 66, 60
11, 134520, Note_on_c, 10, 66, 0
11, 134520, Note_on_c, 10, 62, 60
11, 134640, Note_on_c, 10, 62, 0
11, 134760, Note_on_c, 10, 61, 60
11, 134880, Note_on_c, 10, 61, 0
11, 134880, Note_on_c, 10, 65, 60
11, 135000, Note_on_c, 10, 65, 0
11, 135000, Note_on_c, 10, 68, 60
11, 135120, Note_on_c, 10, 68, 0
11, 135120, Note_on_c, 10, 65, 60
11, 135240, Note_on_c, 10, 65, 0
11, 135240, Note_on_c, 10, 61, 60
11, 135360, Note_on_c, 10, 61, 0
11, 135480, Note_on_c, 10, 61, 60
11, 135600, Note_on_c, 10, 61, 0
11, 135600, Note_on_c, 10, 66, 60
11, 135720, Note_on_c, 10, 66, 0
11, 135720, Note_on_c, 10, 69, 60
11, 135840, Note_on_c, 10, 69, 0
11, 135840, Note_on_c, 10, 66, 60
11, 135960, Note_on_c, 10, 66, 0
11, 135960, Note_on_c, 10, 61, 60
11, 136080, Note_on_c, 10, 61, 0
11, 136200, Note_on_c, 10, 62, 60
11, 136320, Note_on_c, 10, 62, 0
11, 136320, Note_on_c, 10, 66, 60
11, 136440, Note_on_c, 10, 66, 0
11, 136440, Note_on_c, 10, 69, 60
11, 136560, Note_on_c, 10, 69, 0
11, 136560, Note_on_c, 10, 66, 60
11, 136680, Note_on_c, 10, 66, 0
11, 136680, Note_on_c, 10, 62, 60
11, 136800, Note_on_c, 10, 62, 0
11, 136920, Note_on_c, 10, 62, 60
11, 137040, Note_on_c, 10, 62, 0
11, 137040, Note_on_c, 10, 66, 60
11, 137160, Note_on_c, 10, 66, 0
11, 137160, Note_on_c, 10, 68, 60
11, 137280, Note_on_c, 10, 68, 0
11, 137280, Note_on_c, 10, 66, 60
11, 137400, Note_on_c, 10, 66, 0
11, 137400, Note_on_c, 10, 62, 60
11, 137520, Note_on_c, 10, 62, 0
11, 137640, Note_on_c, 10, 61, 60
11, 137760, Note_on_c, 10, 61, 0
11, 137760, Note_on_c, 10, 65, 60
11, 137880, Note_on_c, 10, 65, 0
11, 137880, Note_on_c, 10, 68, 60
11, 138000, Note_on_c, 10, 68, 0
11, 138000, Note_on_c, 10, 65, 60
11, 138120, Note_on_c, 10, 65, 0
11, 138120, Note_on_c, 10, 61, 60
11, 138240, Note_on_c, 10, 61, 0
11, 138360, Note_on_c, 10, 61, 60
11, 138480, Note_on_c, 10, 61, 0
11, 138480, Note_on_c, 10, 66, 60
11, 138600, Note_on_c, 10, 66, 0
11, 138600, Note_on_c, 10, 69, 60
11, 138720, Note_on_c, 10, 69, 0
11, 138720, Note_on_c, 10, 66, 60
11, 138840, Note_on_c, 10, 66, 0
11, 138840, Note_on_c, 10, 61, 60
11, 138960, Note_on_c, 10, 61, 0
11, 139080, Note_on_c, 10, 63, 60
11, 139200, Note_on_c, 10, 63, 0
11, 139200, Note_on_c, 10, 66, 60
11, 139320, Note_on_c, 10, 66, 0
11, 139320, Note_on_c, 10, 69, 60
11, 139440, Note_on_c, 10, 69, 0
11, 139440, Note_on_c, 10, 66, 60
11, 139560, Note_on_c, 10, 66, 0
11, 139560, Note_on_c, 10, 63, 60
11, 139680, Note_on_c, 10, 63, 0
11, 139800, Note_on_c, 10, 61, 60
11, 139920, Note_on_c, 10, 61, 0
11, 139920, Note_on_c, 10, 66, 60
11, 140040, Note_on_c, 10, 66, 0
11, 140040, Note_on_c, 10, 69, 60
11, 140160, Note_on_c, 10, 69, 0
11, 140160, Note_on_c, 10, 66, 60
11, 140280, Note_on_c, 10, 66, 0
11, 140280, Note_on_c, 10, 61, 60
11, 140400, Note_on_c, 10, 61, 0
11, 140520, Note_on_c, 10, 61, 60
11, 140640, Note_on_c, 10, 61, 0
11, 140640, Note_on_c, 10, 65, 60
11, 140760, Note_on_c, 10, 65, 0
11, 140760, Note_on_c, 10, 68, 60
11, 140880, Note_on_c, 10, 68, 0
11, 140880, Note_on_c, 10, 65, 60
11, 141000, Note_on_c, 10, 65, 0
11, 141000, Note_on_c, 10, 61, 60
11, 141120, Note_on_c, 10, 61, 0
11, 141120, Note_on_c, 10, 61, 52
11, 141300, Note_on_c, 10, 61, 0
11, 141840, Note_on_c, 10, 73, 49
11, 142020, Note_on_c, 10, 73, 0
11, 142560, Note_on_c, 10, 78, 47
11, 142740, Note_on_c, 10, 78, 0
11, 142740, End_track
12, 0, Start_track
12, 0, Sequencer_specific, 04, 43, 00, 01, 00
12, 0, Program_c, 11, 48
12, 0, Control_c, 11, 7, 101
12, 0, Control_c, 11, 10, 40
12, 0, Control_c, 11, 91, 80
12, 17400, Note_on_c, 11, 57, 60
12, 17520, Note_on_c, 11, 57, 0
12, 17520, Note_on_c, 11, 61, 60
12, 17640, Note_on_c, 11, 61, 0
12, 17640, Note_on_c, 11, 66, 60
12, 17760, Note_on_c, 11, 66, 0
12, 17760, Note_on_c, 11, 61, 60
12, 17880, Note_on_c, 11, 61, 0
12, 17880, Note_on_c, 11, 57, 60
12, 18000, Note_on_c, 11, 57, 0
12, 18120, Note_on_c, 11, 57, 60
12, 18240, Note_on_c, 11, 57, 0
12, 18240, Note_on_c, 11, 61, 60
12, 18360, Note_on_c, 11, 61, 0
12, 18360, Note_on_c, 11, 66, 60
12, 18480, Note_on_c, 11, 66, 0
12, 18480, Note_on_c, 11, 61, 60
12, 18600, Note_on_c, 11, 61, 0
12, 18600, Note_on_c, 11, 57, 60
12, 18720, Note_on_c, 11, 57, 0
12, 18840, Note_on_c, 11, 57, 60
12, 18960, Note_on_c, 11, 57, 0
12, 18960, Note_on_c, 11, 61, 60
12, 19080, Note_on_c, 11, 61, 0
12, 19080, Note_on_c, 11, 66, 60
12, 19200, Note_on_c, 11, 66, 0
12, 19200, Note_on_c, 11, 61, 60
12, 19320, Note_on_c, 11, 61, 0
12, 19320, Note_on_c, 11, 57, 60
12, 19440, Note_on_c, 11, 57, 0
12, 19560, Note_on_c, 11, 59, 60
12, 19680, Note_on_c, 11, 59, 0
12, 19680, Note_on_c, 11, 61, 60
12, 19800, Note_on_c, 11, 61, 0
12, 19800, Note_on_c, 11, 65, 60
12, 19920, Note_on_c, 11, 65, 0
12, 19920, Note_on_c, 11, 61, 60
12, 20040, Note_on_c, 11, 61, 0
12, 20040, Note_on_c, 11, 59, 60
12, 20160, Note_on_c, 11, 59, 0
12, 20280, Note_on_c, 11, 59, 60
12, 20400, Note_on_c, 11, 59, 0
12, 20400, Note_on_c, 11, 61, 60
12, 20520, Note_on_c, 11, 61, 0
12, 20520, Note_on_c, 11, 65, 60
12, 20640, Note_on_c, 11, 65, 0
12, 20640, Note_on_c, 11, 61, 60
12, 20760, Note_on_c, 11, 61, 0
12, 20760, Note_on_c, 11, 59, 60
12, 20880, Note_on_c, 11, 59, 0
12, 21000, Note_on_c, 11, 57, 60
12, 21120, Note_on_c, 11, 57, 0
12, 21120, Note_on_c, 11, 61, 60
12, 21240, Note_on_c, 11, 61, 0
12, 21240, Note_on_c, 11, 66, 60
12, 21360, Note_on_c, 11, 66, 0
12, 21360, Note_on_c, 11, 61, 60
12, 21480, Note_on_c, 11, 61, 0
12, 21480, Note_on_c, 11, 57, 60
12, 21600, Note_on_c, 11, 57, 0
12, 21720, Note_on_c, 11, 62, 60
12, 21840, Note_on_c, 11, 62, 0
12, 21840, Note_on_c, 11, 66, 60
12, 21960, Note_on_c, 11, 66, 0
12, 21960, Note_on_c, 11, 71, 60
12, 22080, Note_on_c, 11, 71, 0
12, 22080, Note_on_c, 11, 66, 60
12, 22200, Note_on_c, 11, 66, 0
12, 22200, Note_on_c, 11, 62, 60
12, 22320, Note_on_c, 11, 62, 0
12, 22440, Note_on_c, 11, 59, 60
12, 22560, Note_on_c, 11, 59, 0
12, 22560, Note_on_c, 11, 62, 60
12, 22680, Note_on_c, 11, 62, 0
12, 22680, Note_on_c, 11, 66, 60
12, 22800, Note_on_c, 11, 66, 0
12, 22800, Note_on_c, 11, 62, 60
12, 22920, Note_on_c, 11, 62, 0
12, 22920, Note_on_c, 11, 59, 60
12, 23040, Note_on_c, 11, 59, 0
12, 23160, Note_on_c, 11, 59, 60
12, 23280, Note_on_c, 11, 59, 0
12, 23280, Note_on_c, 11, 61, 60
12, 23400, Note_on_c, 11, 61, 0
12, 23400, Note_on_c, 11, 68, 60
12, 23520, Note_on_c, 11, 68, 0
12, 23520, Note_on_c, 11, 61, 60
12, 23640, Note_on_c, 11, 61, 0
12, 23640, Note_on_c, 11, 59, 60
12, 23760, Note_on_c, 11, 59, 0
12, 23880, Note_on_c, 11, 57, 80
12, 23976, Note_on_c, 11, 57, 0
12, 24000, Note_on_c, 11, 61, 80
12, 24096, Note_on_c, 11, 61, 0
12, 24120, Note_on_c, 11, 66, 80
12, 24216, Note_on_c, 11, 66, 0
12, 24240, Note_on_c, 11, 61, 80
12, 24336, Note_on_c, 11, 61, 0
12, 24360, Note_on_c, 11, 57, 80
12, 24456, Note_on_c, 11, 57, 0
12, 24600, Note_on_c, 11, 63, 80
12, 24720, Note_on_c, 11, 63, 0
12, 24720, Note_on_c, 11, 66, 80
12, 24840, Note_on_c, 11, 66, 0
12, 24840, Note_on_c, 11, 68, 80
12, 24960, Note_on_c, 11, 68, 0
12, 24960, Note_on_c, 11, 66, 80
12, 25080, Note_on_c, 11, 66, 0
12, 25080, Note_on_c, 11, 63, 80
12, 25200, Note_on_c, 11, 63, 0
12, 25320, Note_on_c, 11, 68, 80
12, 25440, Note_on_c, 11, 68, 0
12, 25440, Note_on_c, 11, 71, 80
12, 25560, Note_on_c, 11, 71, 0
12, 25560, Note_on_c, 11, 74, 80
12, 25680, Note_on_c, 11, 74, 0
12, 25680, Note_on_c, 11, 71, 80
12, 25800, Note_on_c, 11, 71, 0
12, 25800, Note_on_c, 11, 68, 80
12, 25920, Note_on_c, 11, 68, 0
12, 26040, Note_on_c, 11, 61, 80
12, 26160, Note_on_c, 11, 61, 0
12, 26160, Note_on_c, 11, 64, 80
12, 26280, Note_on_c, 11, 64, 0
12, 26280, Note_on_c, 11, 66, 80
12, 26400, Note_on_c, 11, 66, 0
12, 26400, Note_on_c, 11, 64, 80
12, 26520, Note_on_c, 11, 64, 0
12, 26520, Note_on_c, 11, 61, 80
12, 26640, Note_on_c, 11, 61, 0
12, 26760, Note_on_c, 11, 59, 80
12, 26880, Note_on_c, 11, 59, 0
12, 26880, Note_on_c, 11, 62, 80
12, 27000, Note_on_c, 11, 62, 0
12, 27000, Note_on_c, 11, 67, 80
12, 27120, Note_on_c, 11, 67, 0
12, 27120, Note_on_c, 11, 62, 80
12, 27240, Note_on_c, 11, 62, 0
12, 27240, Note_on_c, 11, 59, 80
12, 27360, Note_on_c, 11, 59, 0
12, 27480, Note_on_c, 11, 61, 80
12, 27600, Note_on_c, 11, 61, 0
12, 27600, Note_on_c, 11, 65, 80
12, 27720, Note_on_c, 11, 65, 0
12, 27720, Note_on_c, 11, 68, 80
12, 27840, Note_on_c, 11, 68, 0
12, 27840, Note_on_c, 11, 66, 80
12, 27960, Note_on_c, 11, 66, 0
12, 27960, Note_on_c, 11, 61, 80
12, 28080, Note_on_c, 11, 61, 0
12, 28200, Note_on_c, 11, 66, 80
12, 28320, Note_on_c, 11, 66, 0
12, 28320, Note_on_c, 11, 62, 80
12, 28440, Note_on_c, 11, 62, 0
12, 28440, Note_on_c, 11, 66, 80
12, 28560, Note_on_c, 11, 66, 0
12, 28560, Note_on_c, 11, 65, 80
12, 28680, Note_on_c, 11, 65, 0
12, 28680, Note_on_c, 11, 59, 80
12, 28800, Note_on_c, 11, 59, 0
12, 28800, Note_on_c, 11, 57, 70
12, 29256, Note_on_c, 11, 57, 0
12, 36000, Note_on_c, 11, 71, 60
12, 37440, Note_on_c, 11, 71, 0
12, 37440, Note_on_c, 11, 69, 60
12, 40320, Note_on_c, 11, 69, 0
12, 40320, Note_on_c, 11, 69, 60
12, 40800, Note_on_c, 11, 69, 0
12, 40800, Note_on_c, 11, 68, 60
12, 40992, Note_on_c, 11, 68, 0
12, 42000, Note_on_c, 11, 60, 60
12, 42240, Note_on_c, 11, 60, 0
12, 42240, Note_on_c, 11, 69, 60
12, 42480, Note_on_c, 11, 69, 0
12, 42480, Note_on_c, 11, 72, 60
12, 42672, Note_on_c, 11, 72, 0
12, 43440, Note_on_c, 11, 59, 60
12, 43680, Note_on_c, 11, 59, 0
12, 43680, Note_on_c, 11, 68, 60
12, 43920, Note_on_c, 11, 68, 0
12, 43920, Note_on_c, 11, 68, 60
12, 44112, Note_on_c, 11, 68, 0
12, 44640, Note_on_c, 11, 69, 74
12, 45360, Note_on_c, 11, 69, 0
12, 45360, Note_on_c, 11, 63, 64
12, 46080, Note_on_c, 11, 63, 0
12, 46080, Note_on_c, 11, 64, 55
12, 46464, Note_on_c, 11, 64, 0
12, 58800, Note_on_c, 11, 68, 60
12, 59040, Note_on_c, 11, 68, 0
12, 59040, Note_on_c, 11, 69, 60
12, 59232, Note_on_c, 11, 69, 0
12, 59760, Note_on_c, 11, 66, 60
12, 59952, Note_on_c, 11, 66, 0
12, 60720, Note_on_c, 11, 64, 60
12, 60960, Note_on_c, 11, 64, 0
12, 60960, Note_on_c, 11, 62, 60
12, 61200, Note_on_c, 11, 62, 0
12, 61200, Note_on_c, 11, 61, 60
12, 61392, Note_on_c, 11, 61, 0
12, 65040, Note_on_c, 11, 74, 62
12, 65160, Note_on_c, 11, 74, 0
12, 65160, Note_on_c, 11, 71, 62
12, 65256, Note_on_c, 11, 71, 0
12, 65280, Note_on_c, 11, 71, 61
12, 65400, Note_on_c, 11, 71, 0
12, 65400, Note_on_c, 11, 68, 60
12, 65496, Note_on_c, 11, 68, 0
12, 65520, Note_on_c, 11, 69, 43
12, 65712, Note_on_c, 11, 69, 0
12, 66240, Note_on_c, 11, 59, 59
12, 66720, Note_on_c, 11, 59, 0
12, 66720, Note_on_c, 11, 57, 58
12, 66960, Note_on_c, 11, 57, 0
12, 66960, Note_on_c, 11, 56, 57
12, 67152, Note_on_c, 11, 56, 0
12, 67680, Note_on_c, 11, 61, 60
12, 68160, Note_on_c, 11, 61, 0
12, 68160, Note_on_c, 11, 59, 58
12, 68400, Note_on_c, 11, 59, 0
12, 68400, Note_on_c, 11, 57, 56
12, 68592, Note_on_c, 11, 57, 0
12, 69240, Note_on_c, 11, 57, 60
12, 69360, Note_on_c, 11, 57, 0
12, 69360, Note_on_c, 11, 66, 60
12, 69480, Note_on_c, 11, 66, 0
12, 69480, Note_on_c, 11, 57, 60
12, 69600, Note_on_c, 11, 57, 0
12, 69600, Note_on_c, 11, 66, 60
12, 69720, Note_on_c, 11, 66, 0
12, 69720, Note_on_c, 11, 57, 60
12, 69840, Note_on_c, 11, 57, 0
12, 69960, Note_on_c, 11, 57, 60
12, 70080, Note_on_c, 11, 57, 0
12, 70080, Note_on_c, 11, 66, 60
12, 70200, Note_on_c, 11, 66, 0
12, 70200, Note_on_c, 11, 57, 60
12, 70320, Note_on_c, 11, 57, 0
12, 70320, Note_on_c, 11, 66, 60
12, 70440, Note_on_c, 11, 66, 0
12, 70440, Note_on_c, 11, 57, 60
12, 70560, Note_on_c, 11, 57, 0
12, 70560, Note_on_c, 11, 57, 60
12, 70752, Note_on_c, 11, 57, 0
12, 70800, Note_on_c, 11, 69, 60
12, 70992, Note_on_c, 11, 69, 0
12, 71040, Note_on_c, 11, 69, 60
12, 71232, Note_on_c, 11, 69, 0
12, 71280, Note_on_c, 11, 69, 60
12, 71472, Note_on_c, 11, 69, 0
12, 71520, Note_on_c, 11, 69, 60
12, 71712, Note_on_c, 11, 69, 0
12, 71760, Note_on_c, 11, 69, 60
12, 71952, Note_on_c, 11, 69, 0
12, 72000, Note_on_c, 11, 69, 60
12, 72192, Note_on_c, 11, 69, 0
12, 72240, Note_on_c, 11, 69, 60
12, 72432, Note_on_c, 11, 69, 0
12, 72480, Note_on_c, 11, 69, 60
12, 72672, Note_on_c, 11, 69, 0
12, 72720, Note_on_c, 11, 68, 60
12, 72912, Note_on_c, 11, 68, 0
12, 72960, Note_on_c, 11, 68, 60
12, 73152, Note_on_c, 11, 68, 0
12, 73200, Note_on_c, 11, 68, 60
12, 73392, Note_on_c, 11, 68, 0
12, 73440, Note_on_c, 11, 69, 34
12, 73824, Note_on_c, 11, 69, 0
12, 98040, Note_on_c, 11, 57, 60
12, 98160, Note_on_c, 11, 57, 0
12, 98160, Note_on_c, 11, 61, 60
12, 98280, Note_on_c, 11, 61, 0
12, 98280, Note_on_c, 11, 66, 60
12, 98400, Note_on_c, 11, 66, 0
12, 98400, Note_on_c, 11, 61, 60
12, 98520, Note_on_c, 11, 61, 0
12, 98520, Note_on_c, 11, 57, 60
12, 98640, Note_on_c, 11, 57, 0
12, 98760, Note_on_c, 11, 57, 60
12, 98880, Note_on_c, 11, 57, 0
12, 98880, Note_on_c, 11, 61, 60
12, 99000, Note_on_c, 11, 61, 0
12, 99000, Note_on_c, 11, 66, 60
12, 99120, Note_on_c, 11, 66, 0
12, 99120, Note_on_c, 11, 61, 60
12, 99240, Note_on_c, 11, 61, 0
12, 99240, Note_on_c, 11, 57, 60
12, 99360, Note_on_c, 11, 57, 0
12, 99480, Note_on_c, 11, 57, 60
12, 99600, Note_on_c, 11, 57, 0
12, 99600, Note_on_c, 11, 61, 60
12, 99720, Note_on_c, 11, 61, 0
12, 99720, Note_on_c, 11, 66, 60
12, 99840, Note_on_c, 11, 66, 0
12, 99840, Note_on_c, 11, 61, 60
12, 99960, Note_on_c, 11, 61, 0
12, 99960, Note_on_c, 11, 57, 60
12, 100080, Note_on_c, 11, 57, 0
12, 100200, Note_on_c, 11, 59, 60
12, 100320, Note_on_c, 11, 59, 0
12, 100320, Note_on_c, 11, 61, 60
12, 100440, Note_on_c, 11, 61, 0
12, 100440, Note_on_c, 11, 65, 60
12, 100560, Note_on_c, 11, 65, 0
12, 100560, Note_on_c, 11, 61, 60
12, 100680, Note_on_c, 11, 61, 0
12, 100680, Note_on_c, 11, 59, 60
12, 100800, Note_on_c, 11, 59, 0
12, 100920, Note_on_c, 11, 59, 60
12, 101040, Note_on_c, 11, 59, 0
12, 101040, Note_on_c, 11, 61, 60
12, 101160, Note_on_c, 11, 61, 0
12, 101160, Note_on_c, 11, 65, 60
12, 101280, Note_on_c, 11, 65, 0
12, 101280, Note_on_c, 11, 61, 60
12, 101400, Note_on_c, 11, 61, 0
12, 101400, Note_on_c, 11, 59, 60
12, 101520, Note_on_c, 11, 59, 0
12, 101640, Note_on_c, 11, 57, 60
12, 101760, Note_on_c, 11, 57, 0
12, 101760, Note_on_c, 11, 61, 60
12, 101880, Note_on_c, 11, 61, 0
12, 101880, Note_on_c, 11, 66, 60
12, 102000, Note_on_c, 11, 66, 0
12, 102000, Note_on_c, 11, 61, 60
12, 102120, Note_on_c, 11, 61, 0
12, 102120, Note_on_c, 11, 57, 60
12, 102240, Note_on_c, 11, 57, 0
12, 102360, Note_on_c, 11, 62, 60
12, 102480, Note_on_c, 11, 62, 0
12, 102480, Note_on_c, 11, 66, 60
12, 102600, Note_on_c, 11, 66, 0
12, 102600, Note_on_c, 11, 69, 60
12, 102720, Note_on_c, 11, 69, 0
12, 102720, Note_on_c, 11, 66, 60
12, 102840, Note_on_c, 11, 66, 0
12, 102840, Note_on_c, 11, 62, 60
12, 102960, Note_on_c, 11, 62, 0
12, 103080, Note_on_c, 11, 59, 60
12, 103200, Note_on_c, 11, 59, 0
12, 103200, Note_on_c, 11, 62, 60
12, 103320, Note_on_c, 11, 62, 0
12, 103320, Note_on_c, 11, 66, 60
12, 103440, Note_on_c, 11, 66, 0
12, 103440, Note_on_c, 11, 62, 60
12, 103560, Note_on_c, 11, 62, 0
12, 103560, Note_on_c, 11, 59, 60
12, 103680, Note_on_c, 11, 59, 0
12, 103800, Note_on_c, 11, 59, 60
12, 103920, Note_on_c, 11, 59, 0
12, 103920, Note_on_c, 11, 61, 60
12, 104040, Note_on_c, 11, 61, 0
12, 104040, Note_on_c, 11, 68, 60
12, 104160, Note_on_c, 11, 68, 0
12, 104160, Note_on_c, 11, 61, 60
12, 104280, Note_on_c, 11, 61, 0
12, 104280, Note_on_c, 11, 59, 60
12, 104400, Note_on_c, 11, 59, 0
12, 104520, Note_on_c, 11, 57, 80
12, 104640, Note_on_c, 11, 57, 0
12, 104640, Note_on_c, 11, 61, 80
12, 104760, Note_on_c, 11, 61, 0
12, 104760, Note_on_c, 11, 66, 80
12, 104880, Note_on_c, 11, 66, 0
12, 104880, Note_on_c, 11, 61, 80
12, 105000, Note_on_c, 11, 61, 0
12, 105000, Note_on_c, 11, 57, 80
12, 105120, Note_on_c, 11, 57, 0
12, 105240, Note_on_c, 11, 63, 80
12, 105360, Note_on_c, 11, 63, 0
12, 105360, Note_on_c, 11, 66, 80
12, 105480, Note_on_c, 11, 66, 0
12, 105480, Note_on_c, 11, 68, 80
12, 105600, Note_on_c, 11, 68, 0
12, 105600, Note_on_c, 11, 66, 80
12, 105720, Note_on_c, 11, 66, 0
12, 105720, Note_on_c, 11, 63, 80
12, 105840, Note_on_c, 11, 63, 0
12, 105960, Note_on_c, 11, 68, 80
12, 106080, Note_on_c, 11, 68, 0
12, 106080, Note_on_c, 11, 71, 80
12, 106200, Note_on_c, 11, 71, 0
12, 106200, Note_on_c, 11, 74, 80
12, 106320, Note_on_c, 11, 74, 0
12, 106320, Note_on_c, 11, 71, 80
12, 106440, Note_on_c, 11, 71, 0
12, 106440, Note_on_c, 11, 68, 80
12, 106560, Note_on_c, 11, 68, 0
12, 106680, Note_on_c, 11, 61, 80
12, 106800, Note_on_c, 11, 61, 0
12, 106800, Note_on_c, 11, 64, 80
12, 106920, Note_on_c, 11, 64, 0
12, 106920, Note_on_c, 11, 66, 80
12, 107040, Note_on_c, 11, 66, 0
12, 107040, Note_on_c, 11, 64, 80
12, 107160, Note_on_c, 11, 64, 0
12, 107160, Note_on_c, 11, 61, 80
12, 107280, Note_on_c, 11, 61, 0
12, 107400, Note_on_c, 11, 59, 80
12, 107520, Note_on_c, 11, 59, 0
12, 107520, Note_on_c, 11, 62, 80
12, 107640, Note_on_c, 11, 62, 0
12, 107640, Note_on_c, 11, 67, 80
12, 107760, Note_on_c, 11, 67, 0
12, 107760, Note_on_c, 11, 62, 80
12, 107880, Note_on_c, 11, 62, 0
12, 107880, Note_on_c, 11, 59, 80
12, 108000, Note_on_c, 11, 59, 0
12, 108120, Note_on_c, 11, 61, 80
12, 108240, Note_on_c, 11, 61, 0
12, 108240, Note_on_c, 11, 65, 80
12, 108360, Note_on_c, 11, 65, 0
12, 108360, Note_on_c, 11, 68, 80
12, 108480, Note_on_c, 11, 68, 0
12, 108480, Note_on_c, 11, 66, 80
12, 108600, Note_on_c, 11, 66, 0
12, 108600, Note_on_c, 11, 61, 80
12, 108720, Note_on_c, 11, 61, 0
12, 108840, Note_on_c, 11, 66, 80
12, 108960, Note_on_c, 11, 66, 0
12, 108960, Note_on_c, 11, 62, 80
12, 109080, Note_on_c, 11, 62, 0
12, 109080, Note_on_c, 11, 66, 80
12, 109200, Note_on_c, 11, 66, 0
12, 109200, Note_on_c, 11, 65, 80
12, 109320, Note_on_c, 11, 65, 0
12, 109320, Note_on_c, 11, 59, 80
12, 109440, Note_on_c, 11, 59, 0
12, 109440, Note_on_c, 11, 57, 70
12, 109896, Note_on_c, 11, 57, 0
12, 110880, Note_on_c, 11, 69, 60
12, 111600, Note_on_c, 11, 69, 0
12, 111600, Note_on_c, 11, 68, 60
12, 112560, Note_on_c, 11, 68, 0
12, 112560, Note_on_c, 11, 61, 60
12, 112800, Note_on_c, 11, 61, 0
12, 112800, Note_on_c, 11, 59, 60
12, 113040, Note_on_c, 11, 59, 0
12, 113040, Note_on_c, 11, 57, 60
12, 113280, Note_on_c, 11, 57, 0
12, 113280, Note_on_c, 11, 59, 60
12, 113520, Note_on_c, 11, 59, 0
12, 113520, Note_on_c, 11, 61, 60
12, 113760, Note_on_c, 11, 61, 0
12, 113760, Note_on_c, 11, 59, 60
12, 114480, Note_on_c, 11, 59, 0
12, 114480, Note_on_c, 11, 68, 60
12, 115200, Note_on_c, 11, 68, 0
12, 115200, Note_on_c, 11, 65, 60
12, 115584, Note_on_c, 11, 65, 0
12, 121080, Note_on_c, 11, 66, 34
12, 121158, Note_on_c, 11, 66, 0
12, 121320, Note_on_c, 11, 69, 34
12, 121398, Note_on_c, 11, 69, 0
12, 121560, Note_on_c, 11, 73, 34
12, 121638, Note_on_c, 11, 73, 0
12, 121800, Note_on_c, 11, 69, 34
12, 121878, Note_on_c, 11, 69, 0
12, 122040, Note_on_c, 11, 66, 34
12, 122118, Note_on_c, 11, 66, 0
12, 122280, Note_on_c, 11, 61, 34
12, 122358, Note_on_c, 11, 61, 0
12, 122520, Note_on_c, 11, 62, 34
12, 122598, Note_on_c, 11, 62, 0
12, 122760, Note_on_c, 11, 66, 34
12, 122838, Note_on_c, 11, 66, 0
12, 123000, Note_on_c, 11, 69, 34
12, 123078, Note_on_c, 11, 69, 0
12, 123240, Note_on_c, 11, 66, 34
12, 123318, Note_on_c, 11, 66, 0
12, 123480, Note_on_c, 11, 62, 34
12, 123558, Note_on_c, 11, 62, 0
12, 123720, Note_on_c, 11, 57, 34
12, 123798, Note_on_c, 11, 57, 0
12, 123960, Note_on_c, 11, 59, 34
12, 124038, Note_on_c, 11, 59, 0
12, 124200, Note_on_c, 11, 62, 34
12, 124278, Note_on_c, 11, 62, 0
12, 124440, Note_on_c, 11, 61, 34
12, 124518, Note_on_c, 11, 61, 0
12, 124680, Note_on_c, 11, 59, 34
12, 124758, Note_on_c, 11, 59, 0
12, 124920, Note_on_c, 11, 57, 34
12, 124998, Note_on_c, 11, 57, 0
12, 125160, Note_on_c, 11, 56, 34
12, 125238, Note_on_c, 11, 56, 0
12, 125400, Note_on_c, 11, 61, 34
12, 125478, Note_on_c, 11, 61, 0
12, 125640, Note_on_c, 11, 66, 34
12, 125718, Note_on_c, 11, 66, 0
12, 125880, Note_on_c, 11, 69, 34
12, 125958, Note_on_c, 11, 69, 0
12, 126120, Note_on_c, 11, 61, 34
12, 126198, Note_on_c, 11, 61, 0
12, 126360, Note_on_c, 11, 65, 34
12, 126438, Note_on_c, 11, 65, 0
12, 126600, Note_on_c, 11, 68, 34
12, 126678, Note_on_c, 11, 68, 0
12, 126840, Note_on_c, 11, 66, 34
12, 126918, Note_on_c, 11, 66, 0
12, 127080, Note_on_c, 11, 69, 34
12, 127158, Note_on_c, 11, 69, 0
12, 127320, Note_on_c, 11, 73, 34
12, 127398, Note_on_c, 11, 73, 0
12, 127560, Note_on_c, 11, 69, 34
12, 127638, Note_on_c, 11, 69, 0
12, 127800, Note_on_c, 11, 66, 34
12, 127878, Note_on_c, 11, 66, 0
12, 128040, Note_on_c, 11, 61, 34
12, 128118, Note_on_c, 11, 61, 0
12, 128280, Note_on_c, 11, 62, 34
12, 128358, Note_on_c, 11, 62, 0
12, 128520, Note_on_c, 11, 66, 34
12, 128598, Note_on_c, 11, 66, 0
12, 128760, Note_on_c, 11, 69, 34
12, 128838, Note_on_c, 11, 69, 0
12, 129000, Note_on_c, 11, 66, 34
12, 129078, Note_on_c, 11, 66, 0
12, 129240, Note_on_c, 11, 62, 34
12, 129318, Note_on_c, 11, 62, 0
12, 129480, Note_on_c, 11, 57, 34
12, 129558, Note_on_c, 11, 57, 0
12, 129720, Note_on_c, 11, 59, 34
12, 129798, Note_on_c, 11, 59, 0
12, 129960, Note_on_c, 11, 62, 34
12, 130038, Note_on_c, 11, 62, 0
12, 130200, Note_on_c, 11, 67, 34
12, 130278, Note_on_c, 11, 67, 0
12, 130440, Note_on_c, 11, 71, 34
12, 130518, Note_on_c, 11, 71, 0
12, 130680, Note_on_c, 11, 67, 34
12, 130758, Note_on_c, 11, 67, 0
12, 130920, Note_on_c, 11, 59, 34
12, 130998, Note_on_c, 11, 59, 0
12, 131160, Note_on_c, 11, 61, 34
12, 131238, Note_on_c, 11, 61, 0
12, 131400, Note_on_c, 11, 66, 34
12, 131478, Note_on_c, 11, 66, 0
12, 131640, Note_on_c, 11, 69, 34
12, 131718, Note_on_c, 11, 69, 0
12, 131880, Note_on_c, 11, 61, 34
12, 131958, Note_on_c, 11, 61, 0
12, 132120, Note_on_c, 11, 65, 34
12, 132198, Note_on_c, 11, 65, 0
12, 132360, Note_on_c, 11, 68, 34
12, 132438, Note_on_c, 11, 68, 0
12, 132480, Note_on_c, 11, 66, 60
12, 132864, Note_on_c, 11, 66, 0
12, 133920, Note_on_c, 11, 74, 60
12, 134640, Note_on_c, 11, 74, 0
12, 134640, Note_on_c, 11, 59, 60
12, 135600, Note_on_c, 11, 59, 0
12, 135600, Note_on_c, 11, 57, 60
12, 135744, Note_on_c, 11, 57, 0
12, 135840, Note_on_c, 11, 57, 60
12, 135984, Note_on_c, 11, 57, 0
12, 136800, Note_on_c, 11, 74, 60
12, 137520, Note_on_c, 11, 74, 0
12, 137520, Note_on_c, 11, 59, 60
12, 138480, Note_on_c, 11, 59, 0
12, 138480, Note_on_c, 11, 57, 60
12, 138624, Note_on_c, 11, 57, 0
12, 138720, Note_on_c, 11, 57, 60
12, 138864, Note_on_c, 11, 57, 0
12, 139680, Note_on_c, 11, 69, 60
12, 140400, Note_on_c, 11, 69, 0
12, 140400, Note_on_c, 11, 68, 60
12, 141120, Note_on_c, 11, 68, 0
12, 141120, Note_on_c, 11, 66, 54
12, 141300, Note_on_c, 11, 66, 0
12, 141840, Note_on_c, 11, 69, 52
12, 142020, Note_on_c, 11, 69, 0
12, 142560, Note_on_c, 11, 73, 50
12, 142740, Note_on_c, 11, 73, 0
12, 142740, End_track
13, 0, Start_track
13, 0, Sequencer_specific, 04, 43, 00, 01, 00
13, 0, Program_c, 12, 48
13, 0, Control_c, 12, 7, 97
13, 0, Control_c, 12, 10, 98
13, 0, Control_c, 12, 91, 80
13, 17280, Note_on_c, 12, 49, 60
13, 21600, Note_on_c, 12, 49, 0
13, 21600, Note_on_c, 12, 54, 60
13, 22320, Note_on_c, 12, 54, 0
13, 22320, Note_on_c, 12, 56, 60
13, 23760, Note_on_c, 12, 56, 0
13, 23760, Note_on_c, 12, 54, 80
13, 24480, Note_on_c, 12, 54, 0
13, 24480, Note_on_c, 12, 60, 80
13, 25200, Note_on_c, 12, 60, 0
13, 25200, Note_on_c, 12, 59, 80
13, 25920, Note_on_c, 12, 59, 0
13, 25920, Note_on_c, 12, 58, 80
13, 26640, Note_on_c, 12, 58, 0
13, 26640, Note_on_c, 12, 59, 80
13, 26880, Note_on_c, 12, 59, 0
13, 26880, Note_on_c, 12, 55, 80
13, 27120, Note_on_c, 12, 55, 0
13, 27120, Note_on_c, 12, 54, 80
13, 27360, Note_on_c, 12, 54, 0
13, 27360, Note_on_c, 12, 53, 80
13, 27600, Note_on_c, 12, 53, 0
13, 27600, Note_on_c, 12, 49, 80
13, 27840, Note_on_c, 12, 49, 0
13, 27840, Note_on_c, 12, 54, 80
13, 28080, Note_on_c, 12, 54, 0
13, 28080, Note_on_c, 12, 62, 80
13, 28320, Note_on_c, 12, 62, 0
13, 28320, Note_on_c, 12, 59, 80
13, 28560, Note_on_c, 12, 59, 0
13, 28560, Note_on_c, 12, 61, 80
13, 28800, Note_on_c, 12, 61, 0
13, 28800, Note_on_c, 12, 54, 70
13, 29256, Note_on_c, 12, 54, 0
13, 36000, Note_on_c, 12, 64, 60
13, 38880, Note_on_c, 12, 64, 0
13, 38880, Note_on_c, 12, 66, 60
13, 40320, Note_on_c, 12, 66, 0
13, 40320, Note_on_c, 12, 64, 60
13, 40512, Note_on_c, 12, 64, 0
13, 41040, Note_on_c, 12, 64, 60
13, 41232, Note_on_c, 12, 64, 0
13, 41760, Note_on_c, 12, 64, 60
13, 41952, Note_on_c, 12, 64, 0
13, 42480, Note_on_c, 12, 64, 60
13, 42672, Note_on_c, 12, 64, 0
13, 43200, Note_on_c, 12, 64, 60
13, 43392, Note_on_c, 12, 64, 0
13, 43920, Note_on_c, 12, 64, 60
13, 44112, Note_on_c, 12, 64, 0
13, 44640, Note_on_c, 12, 60, 73
13, 45360, Note_on_c, 12, 60, 0
13, 45360, Note_on_c, 12, 57, 65
13, 46080, Note_on_c, 12, 57, 0
13, 46080, Note_on_c, 12, 59, 58
13, 46464, Note_on_c, 12, 59, 0
13, 58800, Note_on_c, 12, 59, 60
13, 59040, Note_on_c, 12, 59, 0
13, 59040, Note_on_c, 12, 57, 60
13, 59232, Note_on_c, 12, 57, 0
13, 59760, Note_on_c, 12, 62, 60
13, 59952, Note_on_c, 12, 62, 0
13, 60720, Note_on_c, 12, 61, 60
13, 60960, Note_on_c, 12, 61, 0
13, 60960, Note_on_c, 12, 59, 60
13, 61200, Note_on_c, 12, 59, 0
13, 61200, Note_on_c, 12, 57, 60
13, 61392, Note_on_c, 12, 57, 0
13, 65040, Note_on_c, 12, 66, 60
13, 65280, Note_on_c, 12, 66, 0
13, 65280, Note_on_c, 12, 64, 60
13, 65520, Note_on_c, 12, 64, 0
13, 65520, Note_on_c, 12, 64, 60
13, 65712, Note_on_c, 12, 64, 0
13, 66240, Note_on_c, 12, 52, 60
13, 68160, Note_on_c, 12, 52, 0
13, 68160, Note_on_c, 12, 56, 60
13, 68400, Note_on_c, 12, 56, 0
13, 68400, Note_on_c, 12, 57, 60
13, 68592, Note_on_c, 12, 57, 0
13, 69120, Note_on_c, 12, 59, 60
13, 69840, Note_on_c, 12, 59, 0
13, 69840, Note_on_c, 12, 60, 60
13, 70560, Note_on_c, 12, 60, 0
13, 70560, Note_on_c, 12, 61, 60
13, 70752, Note_on_c, 12, 61, 0
13, 70800, Note_on_c, 12, 64, 60
13, 70992, Note_on_c, 12, 64, 0
13, 71040, Note_on_c, 12, 64, 60
13, 71232, Note_on_c, 12, 64, 0
13, 71280, Note_on_c, 12, 64, 60
13, 71472, Note_on_c, 12, 64, 0
13, 71520, Note_on_c, 12, 64, 60
13, 71712, Note_on_c, 12, 64, 0
13, 71760, Note_on_c, 12, 64, 60
13, 71952, Note_on_c, 12, 64, 0
13, 72000, Note_on_c, 12, 64, 60
13, 72192, Note_on_c, 12, 64, 0
13, 72240, Note_on_c, 12, 64, 60
13, 72432, Note_on_c, 12, 64, 0
13, 72480, Note_on_c, 12, 64, 60
13, 72672, Note_on_c, 12, 64, 0
13, 72720, Note_on_c, 12, 62, 60
13, 72720, Note_on_c, 12, 64, 60
13, 72912, Note_on_c, 12, 64, 0
13, 72912, Note_on_c, 12, 62, 0
13, 72960, Note_on_c, 12, 62, 60
13, 72960, Note_on_c, 12, 64, 60
13, 73152, Note_on_c, 12, 64, 0
13, 73152, Note_on_c, 12, 62, 0
13, 73200, Note_on_c, 12, 62, 60
13, 73200, Note_on_c, 12, 64, 60
13, 73392, Note_on_c, 12, 64, 0
13, 73392, Note_on_c, 12, 62, 0
13, 73440, Note_on_c, 12, 61, 60
13, 73440, Note_on_c, 12, 64, 60
13, 73824, Note_on_c, 12, 64, 0
13, 73824, Note_on_c, 12, 61, 0
13, 97920, Note_on_c, 12, 49, 60
13, 102240, Note_on_c, 12, 49, 0
13, 102240, Note_on_c, 12, 54, 60
13, 102960, Note_on_c, 12, 54, 0
13, 102960, Note_on_c, 12, 56, 60
13, 104400, Note_on_c, 12, 56, 0
13, 104400, Note_on_c, 12, 54, 80
13, 105120, Note_on_c, 12, 54, 0
13, 105120, Note_on_c, 12, 60, 80
13, 105840, Note_on_c, 12, 60, 0
13, 105840, Note_on_c, 12, 59, 80
13, 106560, Note_on_c, 12, 59, 0
13, 106560, Note_on_c, 12, 58, 80
13, 107280, Note_on_c, 12, 58, 0
13, 107280, Note_on_c, 12, 59, 80
13, 107520, Note_on_c, 12, 59, 0
13, 107520, Note_on_c, 12, 55, 80
13, 107760, Note_on_c, 12, 55, 0
13, 107760, Note_on_c, 12, 54, 80
13, 108000, Note_on_c, 12, 54, 0
13, 108000, Note_on_c, 12, 53, 80
13, 108240, Note_on_c, 12, 53, 0
13, 108240, Note_on_c, 12, 49, 80
13, 108480, Note_on_c, 12, 49, 0
13, 108480, Note_on_c, 12, 54, 80
13, 108720, Note_on_c, 12, 54, 0
13, 108720, Note_on_c, 12, 62, 80
13, 108960, Note_on_c, 12, 62, 0
13, 108960, Note_on_c, 12, 59, 80
13, 109200, Note_on_c, 12, 59, 0
13, 109200, Note_on_c, 12, 61, 80
13, 109440, Note_on_c, 12, 61, 0
13, 109440, Note_on_c, 12, 54, 70
13, 109896, Note_on_c, 12, 54, 0
13, 110880, Note_on_c, 12, 61, 60
13, 111600, Note_on_c, 12, 61, 0
13, 111600, Note_on_c, 12, 65, 60
13, 113040, Note_on_c, 12, 65, 0
13, 113040, Note_on_c, 12, 66, 60
13, 113760, Note_on_c, 12, 66, 0
13, 113760, Note_on_c, 12, 54, 60
13, 114480, Note_on_c, 12, 54, 0
13, 114480, Note_on_c, 12, 59, 60
13, 115200, Note_on_c, 12, 59, 0
13, 115200, Note_on_c, 12, 61, 60
13, 115584, Note_on_c, 12, 61, 0
13, 133920, Note_on_c, 12, 71, 60
13, 134640, Note_on_c, 12, 71, 0
13, 134640, Note_on_c, 12, 56, 60
13, 135600, Note_on_c, 12, 56, 0
13, 135600, Note_on_c, 12, 54, 60
13, 135744, Note_on_c, 12, 54, 0
13, 135840, Note_on_c, 12, 54, 60
13, 135984, Note_on_c, 12, 54, 0
13, 136800, Note_on_c, 12, 71, 60
13, 137520, Note_on_c, 12, 71, 0
13, 137520, Note_on_c, 12, 56, 60
13, 138480, Note_on_c, 12, 56, 0
13, 138480, Note_on_c, 12, 54, 60
13, 138624, Note_on_c, 12, 54, 0
13, 138720, Note_on_c, 12, 54, 60
13, 138864, Note_on_c, 12, 54, 0
13, 139680, Note_on_c, 12, 61, 60
13, 140400, Note_on_c, 12, 61, 0
13, 140400, Note_on_c, 12, 59, 60
13, 141120, Note_on_c, 12, 59, 0
13, 141120, Note_on_c, 12, 57, 54
13, 141300, Note_on_c, 12, 57, 0
13, 141840, Note_on_c, 12, 66, 52
13, 142020, Note_on_c, 12, 66, 0
13, 142560, Note_on_c, 12, 69, 51
13, 142740, Note_on_c, 12, 69, 0
13, 142740, End_track
14, 0, Start_track
14, 0, Sequencer_specific, 04, 43, 00, 01, 00
14, 0, Program_c, 13, 48
14, 0, Control_c, 13, 7, 101
14, 0, Control_c, 13, 10, 84
14, 0, Control_c, 13, 91, 80
14, 17280, Note_on_c, 13, 54, 60
14, 17472, Note_on_c, 13, 54, 0
14, 18000, Note_on_c, 13, 54, 60
14, 18192, Note_on_c, 13, 54, 0
14, 18720, Note_on_c, 13, 54, 60
14, 18912, Note_on_c, 13, 54, 0
14, 19440, Note_on_c, 13, 56, 60
14, 19632, Note_on_c, 13, 56, 0
14, 20160, Note_on_c, 13, 57, 60
14, 20352, Note_on_c, 13, 57, 0
14, 20880, Note_on_c, 13, 45, 60
14, 21072, Note_on_c, 13, 45, 0
14, 21600, Note_on_c, 13, 47, 60
14, 21792, Note_on_c, 13, 47, 0
14, 22320, Note_on_c, 13, 59, 60
14, 22512, Note_on_c, 13, 59, 0
14, 23040, Note_on_c, 13, 61, 60
14, 23232, Note_on_c, 13, 61, 0
14, 23760, Note_on_c, 13, 54, 90
14, 23952, Note_on_c, 13, 54, 0
14, 24480, Note_on_c, 13, 48, 90
14, 24672, Note_on_c, 13, 48, 0
14, 25200, Note_on_c, 13, 47, 90
14, 25392, Note_on_c, 13, 47, 0
14, 25920, Note_on_c, 13, 46, 90
14, 26640, Note_on_c, 13, 46, 0
14, 26640, Note_on_c, 13, 47, 90
14, 26880, Note_on_c, 13, 47, 0
14, 26880, Note_on_c, 13, 55, 90
14, 27120, Note_on_c, 13, 55, 0
14, 27120, Note_on_c, 13, 54, 90
14, 27360, Note_on_c, 13, 54, 0
14, 27360, Note_on_c, 13, 53, 90
14, 27600, Note_on_c, 13, 53, 0
14, 27600, Note_on_c, 13, 49, 90
14, 27840, Note_on_c, 13, 49, 0
14, 27840, Note_on_c, 13, 54, 90
14, 28080, Note_on_c, 13, 54, 0
14, 28080, Note_on_c, 13, 50, 90
14, 28320, Note_on_c, 13, 50, 0
14, 28320, Note_on_c, 13, 47, 90
14, 28560, Note_on_c, 13, 47, 0
14, 28560, Note_on_c, 13, 49, 90
14, 28800, Note_on_c, 13, 49, 0
14, 28800, Note_on_c, 13, 42, 80
14, 29256, Note_on_c, 13, 42, 0
14, 36000, Note_on_c, 13, 56, 60
14, 37440, Note_on_c, 13, 56, 0
14, 37440, Note_on_c, 13, 57, 60
14, 38160, Note_on_c, 13, 57, 0
14, 38160, Note_on_c, 13, 49, 60
14, 38880, Note_on_c, 13, 49, 0
14, 38880, Note_on_c, 13, 50, 60
14, 39600, Note_on_c, 13, 50, 0
14, 39600, Note_on_c, 13, 51, 60
14, 40320, Note_on_c, 13, 51, 0
14, 40320, Note_on_c, 13, 52, 60
14, 40512, Note_on_c, 13, 52, 0
14, 41040, Note_on_c, 13, 52, 60
14, 41232, Note_on_c, 13, 52, 0
14, 41760, Note_on_c, 13, 52, 60
14, 41952, Note_on_c, 13, 52, 0
14, 42480, Note_on_c, 13, 52, 60
14, 42672, Note_on_c, 13, 52, 0
14, 43200, Note_on_c, 13, 52, 60
14, 43392, Note_on_c, 13, 52, 0
14, 43920, Note_on_c, 13, 52, 60
14, 44112, Note_on_c, 13, 52, 0
14, 44640, Note_on_c, 13, 53, 71
14, 44832, Note_on_c, 13, 53, 0
14, 45360, Note_on_c, 13, 53, 63
14, 45552, Note_on_c, 13, 53, 0
14, 46080, Note_on_c, 13, 52, 56
14, 49344, Note_on_c, 13, 52, 0
14, 50400, Note_on_c, 13, 57, 60
14, 50856, Note_on_c, 13, 57, 0
14, 50880, Note_on_c, 13, 57, 60
14, 51108, Note_on_c, 13, 57, 0
14, 51120, Note_on_c, 13, 57, 60
14, 51576, Note_on_c, 13, 57, 0
14, 51600, Note_on_c, 13, 57, 60
14, 51828, Note_on_c, 13, 57, 0
14, 51840, Note_on_c, 13, 56, 60
14, 52296, Note_on_c, 13, 56, 0
14, 52320, Note_on_c, 13, 56, 60
14, 52548, Note_on_c, 13, 56, 0
14, 52560, Note_on_c, 13, 56, 60
14, 53016, Note_on_c, 13, 56, 0
14, 53040, Note_on_c, 13, 56, 60
14, 53268, Note_on_c, 13, 56, 0
14, 53280, Note_on_c, 13, 57, 60
14, 53664, Note_on_c, 13, 57, 0
14, 54720, Note_on_c, 13, 52, 60
14, 54912, Note_on_c, 13, 52, 0
14, 54960, Note_on_c, 13, 52, 60
14, 55152, Note_on_c, 13, 52, 0
14, 55200, Note_on_c, 13, 52, 60
14, 55392, Note_on_c, 13, 52, 0
14, 55440, Note_on_c, 13, 52, 60
14, 55632, Note_on_c, 13, 52, 0
14, 58800, Note_on_c, 13, 52, 60
14, 59040, Note_on_c, 13, 52, 0
14, 59040, Note_on_c, 13, 54, 60
14, 59232, Note_on_c, 13, 54, 0
14, 59760, Note_on_c, 13, 50, 60
14, 59952, Note_on_c, 13, 50, 0
14, 60480, Note_on_c, 13, 52, 60
14, 61200, Note_on_c, 13, 52, 0
14, 61200, Note_on_c, 13, 45, 60
14, 61392, Note_on_c, 13, 45, 0
14, 65040, Note_on_c, 13, 50, 60
14, 65280, Note_on_c, 13, 50, 0
14, 65280, Note_on_c, 13, 52, 60
14, 65520, Note_on_c, 13, 52, 0
14, 65520, Note_on_c, 13, 45, 60
14, 65712, Note_on_c, 13, 45, 0
14, 66480, Note_on_c, 13, 44, 60
14, 66720, Note_on_c, 13, 44, 0
14, 66720, Note_on_c, 13, 45, 60
14, 66960, Note_on_c, 13, 45, 0
14, 66960, Note_on_c, 13, 52, 60
14, 67152, Note_on_c, 13, 52, 0
14, 67680, Note_on_c, 13, 45, 60
14, 67920, Note_on_c, 13, 45, 0
14, 67920, Note_on_c, 13, 49, 60
14, 68160, Note_on_c, 13, 49, 0
14, 68160, Note_on_c, 13, 52, 60
14, 68400, Note_on_c, 13, 52, 0
14, 68400, Note_on_c, 13, 54, 60
14, 68592, Note_on_c, 13, 54, 0
14, 69120, Note_on_c, 13, 50, 60
14, 69840, Note_on_c, 13, 50, 0
14, 69840, Note_on_c, 13, 51, 60
14, 70560, Note_on_c, 13, 51, 0
14, 70560, Note_on_c, 13, 52, 60
14, 70944, Note_on_c, 13, 52, 0
14, 71280, Note_on_c, 13, 52, 60
14, 71664, Note_on_c, 13, 52, 0
14, 72000, Note_on_c, 13, 52, 60
14, 72384, Note_on_c, 13, 52, 0
14, 72720, Note_on_c, 13, 52, 60
14, 73104, Note_on_c, 13, 52, 0
14, 73440, Note_on_c, 13, 45, 60
14, 73632, Note_on_c, 13, 45, 0
14, 74160, Note_on_c, 13, 47, 60
14, 74352, Note_on_c, 13, 47, 0
14, 74880, Note_on_c, 13, 49, 60
14, 75072, Note_on_c, 13, 49, 0
14, 75600, Note_on_c, 13, 49, 60
14, 75792, Note_on_c, 13, 49, 0
14, 76320, Note_on_c, 13, 54, 60
14, 76704, Note_on_c, 13, 54, 0
14, 97920, Note_on_c, 13, 54, 60
14, 98112, Note_on_c, 13, 54, 0
14, 98640, Note_on_c, 13, 54, 60
14, 98832, Note_on_c, 13, 54, 0
14, 99360, Note_on_c, 13, 54, 60
14, 99552, Note_on_c, 13, 54, 0
14, 100080, Note_on_c, 13, 56, 60
14, 100272, Note_on_c, 13, 56, 0
14, 100800, Note_on_c, 13, 57, 60
14, 100992, Note_on_c, 13, 57, 0
14, 101520, Note_on_c, 13, 45, 60
14, 101712, Note_on_c, 13, 45, 0
14, 102240, Note_on_c, 13, 47, 60
14, 102432, Note_on_c, 13, 47, 0
14, 102960, Note_on_c, 13, 59, 60
14, 103152, Note_on_c, 13, 59, 0
14, 103680, Note_on_c, 13, 61, 60
14, 103872, Note_on_c, 13, 61, 0
14, 104400, Note_on_c, 13, 54, 90
14, 104592, Note_on_c, 13, 54, 0
14, 105120, Note_on_c, 13, 48, 90
14, 105360, Note_on_c, 13, 48, 0
14, 105840, Note_on_c, 13, 47, 90
14, 106080, Note_on_c, 13, 47, 0
14, 106560, Note_on_c, 13, 46, 90
14, 107280, Note_on_c, 13, 46, 0
14, 107280, Note_on_c, 13, 47, 90
14, 107520, Note_on_c, 13, 47, 0
14, 107520, Note_on_c, 13, 55, 90
14, 107760, Note_on_c, 13, 55, 0
14, 107760, Note_on_c, 13, 54, 90
14, 108000, Note_on_c, 13, 54, 0
14, 108000, Note_on_c, 13, 53, 90
14, 108240, Note_on_c, 13, 53, 0
14, 108240, Note_on_c, 13, 49, 90
14, 108480, Note_on_c, 13, 49, 0
14, 108480, Note_on_c, 13, 54, 90
14, 108720, Note_on_c, 13, 54, 0
14, 108720, Note_on_c, 13, 50, 90
14, 108960, Note_on_c, 13, 50, 0
14, 108960, Note_on_c, 13, 47, 90
14, 109200, Note_on_c, 13, 47, 0
14, 109200, Note_on_c, 13, 49, 90
14, 109440, Note_on_c, 13, 49, 0
14, 109440, Note_on_c, 13, 42, 80
14, 109632, Note_on_c, 13, 42, 0
14, 110160, Note_on_c, 13, 54, 60
14, 110352, Note_on_c, 13, 54, 0
14, 110880, Note_on_c, 13, 54, 60
14, 111072, Note_on_c, 13, 54, 0
14, 111600, Note_on_c, 13, 56, 60
14, 111792, Note_on_c, 13, 56, 0
14, 112320, Note_on_c, 13, 57, 60
14, 112512, Note_on_c, 13, 57, 0
14, 113040, Note_on_c, 13, 57, 60
14, 113232, Note_on_c, 13, 57, 0
14, 113760, Note_on_c, 13, 59, 60
14, 113952, Note_on_c, 13, 59, 0
14, 114480, Note_on_c, 13, 47, 60
14, 114672, Note_on_c, 13, 47, 0
14, 115200, Note_on_c, 13, 49, 60
14, 120932, Note_on_c, 13, 49, 0
14, 133200, Note_on_c, 13, 45, 60
14, 133392, Note_on_c, 13, 45, 0
14, 133920, Note_on_c, 13, 47, 60
14, 134112, Note_on_c, 13, 47, 0
14, 134640, Note_on_c, 13, 49, 60
14, 134832, Note_on_c, 13, 49, 0
14, 135360, Note_on_c, 13, 45, 60
14, 135552, Note_on_c, 13, 45, 0
14, 136080, Note_on_c, 13, 50, 60
14, 136272, Note_on_c, 13, 50, 0
14, 136800, Note_on_c, 13, 47, 60
14, 136992, Note_on_c, 13, 47, 0
14, 137520, Note_on_c, 13, 49, 60
14, 137712, Note_on_c, 13, 49, 0
14, 138240, Note_on_c, 13, 45, 60
14, 138432, Note_on_c, 13, 45, 0
14, 138960, Note_on_c, 13, 48, 60
14, 139152, Note_on_c, 13, 48, 0
14, 139680, Note_on_c, 13, 49, 60
14, 139872, Note_on_c, 13, 49, 0
14, 140400, Note_on_c, 13, 49, 60
14, 140592, Note_on_c, 13, 49, 0
14, 141120, Note_on_c, 13, 54, 55
14, 141300, Note_on_c, 13, 54, 0
14, 141840, Note_on_c, 13, 54, 53
14, 142020, Note_on_c, 13, 54, 0
14, 142560, Note_on_c, 13, 54, 52
14, 142740, Note_on_c, 13, 54, 0
14, 142740, End_track
15, 0, Start_track
15, 0, Sequencer_specific, 04, 43, 00, 01, 00
15, 0, Program_c, 14, 43
15, 0, Control_c, 14, 7, 79
15, 0, Control_c, 14, 10, 96
15, 0, Control_c, 14, 91, 100
15, 17280, Note_on_c, 14, 42, 60
15, 17472, Note_on_c, 14, 42, 0
15, 18000, Note_on_c, 14, 42, 60
15, 18192, Note_on_c, 14, 42, 0
15, 18720, Note_on_c, 14, 42, 60
15, 18912, Note_on_c, 14, 42, 0
15, 19440, Note_on_c, 14, 44, 60
15, 19632, Note_on_c, 14, 44, 0
15, 20160, Note_on_c, 14, 45, 60
15, 20352, Note_on_c, 14, 45, 0
15, 20880, Note_on_c, 14, 33, 60
15, 21072, Note_on_c, 14, 33, 0
15, 21600, Note_on_c, 14, 35, 60
15, 21792, Note_on_c, 14, 35, 0
15, 22320, Note_on_c, 14, 47, 60
15, 22512, Note_on_c, 14, 47, 0
15, 23040, Note_on_c, 14, 49, 60
15, 23232, Note_on_c, 14, 49, 0
15, 23760, Note_on_c, 14, 42, 90
15, 23952, Note_on_c, 14, 42, 0
15, 24480, Note_on_c, 14, 36, 90
15, 24672, Note_on_c, 14, 36, 0
15, 25200, Note_on_c, 14, 35, 90
15, 25392, Note_on_c, 14, 35, 0
15, 25920, Note_on_c, 14, 34, 90
15, 26640, Note_on_c, 14, 34, 0
15, 26640, Note_on_c, 14, 35, 90
15, 26880, Note_on_c, 14, 35, 0
15, 26880, Note_on_c, 14, 43, 90
15, 27120, Note_on_c, 14, 43, 0
15, 27120, Note_on_c, 14, 42, 90
15, 27360, Note_on_c, 14, 42, 0
15, 27360, Note_on_c, 14, 41, 90
15, 27600, Note_on_c, 14, 41, 0
15, 27600, Note_on_c, 14, 37, 90
15, 27840, Note_on_c, 14, 37, 0
15, 27840, Note_on_c, 14, 42, 90
15, 28080, Note_on_c, 14, 42, 0
15, 28080, Note_on_c, 14, 38, 90
15, 28320, Note_on_c, 14, 38, 0
15, 28320, Note_on_c, 14, 35, 90
15, 28560, Note_on_c, 14, 35, 0
15, 28560, Note_on_c, 14, 37, 90
15, 28800, Note_on_c, 14, 37, 0
15, 28800, Note_on_c, 14, 30, 80
15, 29256, Note_on_c, 14, 30, 0
15, 36000, Note_on_c, 14, 44, 60
15, 37440, Note_on_c, 14, 44, 0
15, 37440, Note_on_c, 14, 45, 60
15, 38160, Note_on_c, 14, 45, 0
15, 38160, Note_on_c, 14, 37, 60
15, 38880, Note_on_c, 14, 37, 0
15, 38880, Note_on_c, 14, 38, 60
15, 39600, Note_on_c, 14, 38, 0
15, 39600, Note_on_c, 14, 39, 60
15, 40320, Note_on_c, 14, 39, 0
15, 40320, Note_on_c, 14, 40, 60
15, 40512, Note_on_c, 14, 40, 0
15, 41040, Note_on_c, 14, 40, 60
15, 41232, Note_on_c, 14, 40, 0
15, 41760, Note_on_c, 14, 40, 60
15, 41952, Note_on_c, 14, 40, 0
15, 42480, Note_on_c, 14, 40, 60
15, 42672, Note_on_c, 14, 40, 0
15, 43200, Note_on_c, 14, 40, 60
15, 43392, Note_on_c, 14, 40, 0
15, 43920, Note_on_c, 14, 40, 60
15, 44112, Note_on_c, 14, 40, 0
15, 44640, Note_on_c, 14, 41, 71
15, 44832, Note_on_c, 14, 41, 0
15, 45360, Note_on_c, 14, 41, 64
15, 45552, Note_on_c, 14, 41, 0
15, 46080, Note_on_c, 14, 40, 57
15, 49344, Note_on_c, 14, 40, 0
15, 50400, Note_on_c, 14, 45, 60
15, 50856, Note_on_c, 14, 45, 0
15, 50880, Note_on_c, 14, 45, 60
15, 51108, Note_on_c, 14, 45, 0
15, 51120, Note_on_c, 14, 45, 60
15, 51576, Note_on_c, 14, 45, 0
15, 51600, Note_on_c, 14, 45, 60
15, 51828, Note_on_c, 14, 45, 0
15, 51840, Note_on_c, 14, 44, 60
15, 52296, Note_on_c, 14, 44, 0
15, 52320, Note_on_c, 14, 44, 60
15, 52548, Note_on_c, 14, 44, 0
15, 52560, Note_on_c, 14, 44, 60
15, 53016, Note_on_c, 14, 44, 0
15, 53040, Note_on_c, 14, 44, 60
15, 53268, Note_on_c, 14, 44, 0
15, 53280, Note_on_c, 14, 45, 60
15, 53664, Note_on_c, 14, 45, 0
15, 54720, Note_on_c, 14, 40, 60
15, 54912, Note_on_c, 14, 40, 0
15, 54960, Note_on_c, 14, 40, 60
15, 55152, Note_on_c, 14, 40, 0
15, 55200, Note_on_c, 14, 40, 60
15, 55392, Note_on_c, 14, 40, 0
15, 55440, Note_on_c, 14, 40, 60
15, 55632, Note_on_c, 14, 40, 0
15, 58800, Note_on_c, 14, 40, 60
15, 59040, Note_on_c, 14, 40, 0
15, 59040, Note_on_c, 14, 42, 60
15, 59232, Note_on_c, 14, 42, 0
15, 59760, Note_on_c, 14, 38, 60
15, 59952, Note_on_c, 14, 38, 0
15, 60480, Note_on_c, 14, 40, 60
15, 61200, Note_on_c, 14, 40, 0
15, 61200, Note_on_c, 14, 33, 60
15, 61392, Note_on_c, 14, 33, 0
15, 65040, Note_on_c, 14, 38, 60
15, 65280, Note_on_c, 14, 38, 0
15, 65280, Note_on_c, 14, 40, 60
15, 65520, Note_on_c, 14, 40, 0
15, 65520, Note_on_c, 14, 33, 60
15, 65712, Note_on_c, 14, 33, 0
15, 66480, Note_on_c, 14, 32, 60
15, 66720, Note_on_c, 14, 32, 0
15, 66720, Note_on_c, 14, 33, 60
15, 66960, Note_on_c, 14, 33, 0
15, 66960, Note_on_c, 14, 40, 60
15, 67152, Note_on_c, 14, 40, 0
15, 67680, Note_on_c, 14, 33, 60
15, 67920, Note_on_c, 14, 33, 0
15, 67920, Note_on_c, 14, 37, 60
15, 68160, Note_on_c, 14, 37, 0
15, 68160, Note_on_c, 14, 40, 60
15, 68400, Note_on_c, 14, 40, 0
15, 68400, Note_on_c, 14, 42, 60
15, 68592, Note_on_c, 14, 42, 0
15, 69120, Note_on_c, 14, 38, 60
15, 69840, Note_on_c, 14, 38, 0
15, 69840, Note_on_c, 14, 39, 60
15, 70560, Note_on_c, 14, 39, 0
15, 70560, Note_on_c, 14, 40, 60
15, 70944, Note_on_c, 14, 40, 0
15, 71280, Note_on_c, 14, 40, 60
15, 71664, Note_on_c, 14, 40, 0
15, 72000, Note_on_c, 14, 40, 60
15, 72384, Note_on_c, 14, 40, 0
15, 72720, Note_on_c, 14, 40, 60
15, 73104, Note_on_c, 14, 40, 0
15, 73440, Note_on_c, 14, 33, 60
15, 73632, Note_on_c, 14, 33, 0
15, 74160, Note_on_c, 14, 35, 60
15, 74352, Note_on_c, 14, 35, 0
15, 74880, Note_on_c, 14, 37, 60
15, 75072, Note_on_c, 14, 37, 0
15, 75600, Note_on_c, 14, 37, 60
15, 75792, Note_on_c, 14, 37, 0
15, 76320, Note_on_c, 14, 42, 60
15, 76704, Note_on_c, 14, 42, 0
15, 97920, Note_on_c, 14, 42, 60
15, 98112, Note_on_c, 14, 42, 0
15, 98640, Note_on_c, 14, 42, 60
15, 98832, Note_on_c, 14, 42, 0
15, 99360, Note_on_c, 14, 42, 60
15, 99552, Note_on_c, 14, 42, 0
15, 100080, Note_on_c, 14, 44, 60
15, 100272, Note_on_c, 14, 44, 0
15, 100800, Note_on_c, 14, 45, 60
15, 100992, Note_on_c, 14, 45, 0
15, 101520, Note_on_c, 14, 33, 60
15, 101712, Note_on_c, 14, 33, 0
15, 102240, Note_on_c, 14, 35, 60
15, 102432, Note_on_c, 14, 35, 0
15, 102960, Note_on_c, 14, 47, 60
15, 103152, Note_on_c, 14, 47, 0
15, 103680, Note_on_c, 14, 49, 60
15, 103872, Note_on_c, 14, 49, 0
15, 104400, Note_on_c, 14, 42, 90
15, 104592, Note_on_c, 14, 42, 0
15, 105120, Note_on_c, 14, 36, 90
15, 105360, Note_on_c, 14, 36, 0
15, 105840, Note_on_c, 14, 35, 90
15, 106080, Note_on_c, 14, 35, 0
15, 106560, Note_on_c, 14, 34, 90
15, 107280, Note_on_c, 14, 34, 0
15, 107280, Note_on_c, 14, 35, 90
15, 107520, Note_on_c, 14, 35, 0
15, 107520, Note_on_c, 14, 43, 90
15, 107760, Note_on_c, 14, 43, 0
15, 107760, Note_on_c, 14, 42, 90
15, 108000, Note_on_c, 14, 42, 0
15, 108000, Note_on_c, 14, 41, 90
15, 108240, Note_on_c, 14, 41, 0
15, 108240, Note_on_c, 14, 37, 90
15, 108480, Note_on_c, 14, 37, 0
15, 108480, Note_on_c, 14, 42, 90
15, 108720, Note_on_c, 14, 42, 0
15, 108720, Note_on_c, 14, 38, 90
15, 108960, Note_on_c, 14, 38, 0
15, 108960, Note_on_c, 14, 35, 90
15, 109200, Note_on_c, 14, 35, 0
15, 109200, Note_on_c, 14, 37, 90
15, 109440, Note_on_c, 14, 37, 0
15, 109440, Note_on_c, 14, 30, 80
15, 109632, Note_on_c, 14, 30, 0
15, 110160, Note_on_c, 14, 42, 60
15, 110352, Note_on_c, 14, 42, 0
15, 110880, Note_on_c, 14, 42, 60
15, 111072, Note_on_c, 14, 42, 0
15, 111600, Note_on_c, 14, 44, 60
15, 111792, Note_on_c, 14, 44, 0
15, 112320, Note_on_c, 14, 45, 60
15, 112512, Note_on_c, 14, 45, 0
15, 113040, Note_on_c, 14, 45, 60
15, 113232, Note_on_c, 14, 45, 0
15, 113760, Note_on_c, 14, 47, 60
15, 113952, Note_on_c, 14, 47, 0
15, 114480, Note_on_c, 14, 35, 60
15, 114672, Note_on_c, 14, 35, 0
15, 115200, Note_on_c, 14, 37, 60
15, 120932, Note_on_c, 14, 37, 0
15, 133200, Note_on_c, 14, 33, 60
15, 133392, Note_on_c, 14, 33, 0
15, 133920, Note_on_c, 14, 35, 60
15, 134112, Note_on_c, 14, 35, 0
15, 134640, Note_on_c, 14, 37, 60
15, 134832, Note_on_c, 14, 37, 0
15, 135360, Note_on_c, 14, 33, 60
15, 135552, Note_on_c, 14, 33, 0
15, 136080, Note_on_c, 14, 38, 60
15, 136272, Note_on_c, 14, 38, 0
15, 136800, Note_on_c, 14, 35, 60
15, 136992, Note_on_c, 14, 35, 0
15, 137520, Note_on_c, 14, 37, 60
15, 137712, Note_on_c, 14, 37, 0
15, 138240, Note_on_c, 14, 33, 60
15, 138432, Note_on_c, 14, 33, 0
15, 138960, Note_on_c, 14, 35, 60
15, 139152, Note_on_c, 14, 35, 0
15, 139680, Note_on_c, 14, 37, 60
15, 139872, Note_on_c, 14, 37, 0
15, 140400, Note_on_c, 14, 37, 60
15, 140592, Note_on_c, 14, 37, 0
15, 141120, Note_on_c, 14, 42, 55
15, 141300, Note_on_c, 14, 42, 0
15, 141840, Note_on_c, 14, 42, 55
15, 142020, Note_on_c, 14, 42, 0
15, 142560, Note_on_c, 14, 42, 55
15, 142740, Note_on_c, 14, 42, 0
15, 144000, Note_on_c, 14, 30, 1
15, 144576, Note_on_c, 14, 30, 0
15, 144576, End_track
16, 0, Start_track
16, 0, Sequencer_specific, 04, 43, 00, 01, 00
16, 0, Program_c, 8, 45
16, 0, Control_c, 8, 7, 79
16, 0, Control_c, 8, 10, 98
16, 0, Control_c, 8, 91, 100
16, 120960, Note_on_c, 8, 66, 80
16, 121152, Note_on_c, 8, 66, 0
16, 121200, Note_on_c, 8, 69, 60
16, 121392, Note_on_c, 8, 69, 0
16, 121440, Note_on_c, 8, 73, 60
16, 121632, Note_on_c, 8, 73, 0
16, 121680, Note_on_c, 8, 69, 60
16, 121872, Note_on_c, 8, 69, 0
16, 121920, Note_on_c, 8, 66, 60
16, 122112, Note_on_c, 8, 66, 0
16, 122160, Note_on_c, 8, 61, 60
16, 122352, Note_on_c, 8, 61, 0
16, 122400, Note_on_c, 8, 62, 60
16, 122592, Note_on_c, 8, 62, 0
16, 122640, Note_on_c, 8, 66, 60
16, 122832, Note_on_c, 8, 66, 0
16, 122880, Note_on_c, 8, 69, 60
16, 123072, Note_on_c, 8, 69, 0
16, 123120, Note_on_c, 8, 66, 60
16, 123312, Note_on_c, 8, 66, 0
16, 123360, Note_on_c, 8, 62, 60
16, 123552, Note_on_c, 8, 62, 0
16, 123600, Note_on_c, 8, 57, 60
16, 123792, Note_on_c, 8, 57, 0
16, 123840, Note_on_c, 8, 59, 60
16, 124032, Note_on_c, 8, 59, 0
16, 124080, Note_on_c, 8, 62, 60
16, 124272, Note_on_c, 8, 62, 0
16, 124320, Note_on_c, 8, 61, 60
16, 124512, Note_on_c, 8, 61, 0
16, 124560, Note_on_c, 8, 59, 60
16, 124752, Note_on_c, 8, 59, 0
16, 124800, Note_on_c, 8, 57, 60
16, 124992, Note_on_c, 8, 57, 0
16, 125040, Note_on_c, 8, 56, 60
16, 125232, Note_on_c, 8, 56, 0
16, 125280, Note_on_c, 8, 61, 60
16, 125472, Note_on_c, 8, 61, 0
16, 125520, Note_on_c, 8, 66, 60
16, 125712, Note_on_c, 8, 66, 0
16, 125760, Note_on_c, 8, 69, 60
16, 125952, Note_on_c, 8, 69, 0
16, 126000, Note_on_c, 8, 61, 60
16, 126192, Note_on_c, 8, 61, 0
16, 126240, Note_on_c, 8, 65, 60
16, 126432, Note_on_c, 8, 65, 0
16, 126480, Note_on_c, 8, 68, 60
16, 126672, Note_on_c, 8, 68, 0
16, 126720, Note_on_c, 8, 66, 60
16, 126912, Note_on_c, 8, 66, 0
16, 126960, Note_on_c, 8, 69, 60
16, 127152, Note_on_c, 8, 69, 0
16, 127200, Note_on_c, 8, 73, 60
16, 127392, Note_on_c, 8, 73, 0
16, 127440, Note_on_c, 8, 69, 60
16, 127632, Note_on_c, 8, 69, 0
16, 127680, Note_on_c, 8, 66, 60
16, 127872, Note_on_c, 8, 66, 0
16, 127920, Note_on_c, 8, 61, 60
16, 128112, Note_on_c, 8, 61, 0
16, 128160, Note_on_c, 8, 62, 60
16, 128352, Note_on_c, 8, 62, 0
16, 128400, Note_on_c, 8, 66, 60
16, 128592, Note_on_c, 8, 66, 0
16, 128640, Note_on_c, 8, 69, 60
16, 128832, Note_on_c, 8, 69, 0
16, 128880, Note_on_c, 8, 66, 60
16, 129072, Note_on_c, 8, 66, 0
16, 129120, Note_on_c, 8, 62, 60
16, 129312, Note_on_c, 8, 62, 0
16, 129360, Note_on_c, 8, 57, 60
16, 129552, Note_on_c, 8, 57, 0
16, 129600, Note_on_c, 8, 59, 60
16, 129792, Note_on_c, 8, 59, 0
16, 129840, Note_on_c, 8, 62, 60
16, 130032, Note_on_c, 8, 62, 0
16, 130080, Note_on_c, 8, 67, 60
16, 130272, Note_on_c, 8, 67, 0
16, 130320, Note_on_c, 8, 71, 60
16, 130512, Note_on_c, 8, 71, 0
16, 130560, Note_on_c, 8, 67, 60
16, 130752, Note_on_c, 8, 67, 0
16, 130800, Note_on_c, 8, 59, 60
16, 130992, Note_on_c, 8, 59, 0
16, 131040, Note_on_c, 8, 61, 60
16, 131232, Note_on_c, 8, 61, 0
16, 131280, Note_on_c, 8, 66, 60
16, 131472, Note_on_c, 8, 66, 0
16, 131520, Note_on_c, 8, 69, 60
16, 131712, Note_on_c, 8, 69, 0
16, 131760, Note_on_c, 8, 61, 60
16, 131952, Note_on_c, 8, 61, 0
16, 132000, Note_on_c, 8, 65, 60
16, 132192, Note_on_c, 8, 65, 0
16, 132240, Note_on_c, 8, 68, 60
16, 132432, Note_on_c, 8, 68, 0
16, 132480, Note_on_c, 8, 66, 60
16, 132864, Note_on_c, 8, 66, 0
16, 132864, End_track
17, 0, Start_track
17, 0, Sequencer_specific, 04, 43, 00, 01, 00
17, 0, Program_c, 15, 45
17, 0, Control_c, 15, 7, 79
17, 0, Control_c, 15, 10, 93
17, 0, Control_c, 15, 91, 100
17, 120960, Note_on_c, 15, 42, 80
17, 120960, Note_on_c, 15, 54, 80
17, 121152, Note_on_c, 15, 54, 0
17, 121152, Note_on_c, 15, 42, 0
17, 121200, Note_on_c, 15, 45, 60
17, 121200, Note_on_c, 15, 57, 60
17, 121392, Note_on_c, 15, 57, 0
17, 121392, Note_on_c, 15, 45, 0
17, 121440, Note_on_c, 15, 61, 60
17, 121440, Note_on_c, 15, 49, 60
17, 121632, Note_on_c, 15, 49, 0
17, 121632, Note_on_c, 15, 61, 0
17, 121680, Note_on_c, 15, 57, 60
17, 121680, Note_on_c, 15, 45, 60
17, 121872, Note_on_c, 15, 45, 0
17, 121872, Note_on_c, 15, 57, 0
17, 121920, Note_on_c, 15, 42, 60
17, 121920, Note_on_c, 15, 54, 60
17, 122112, Note_on_c, 15, 54, 0
17, 122112, Note_on_c, 15, 42, 0
17, 122160, Note_on_c, 15, 37, 60
17, 122160, Note_on_c, 15, 49, 60
17, 122352, Note_on_c, 15, 49, 0
17, 122352, Note_on_c, 15, 37, 0
17, 122400, Note_on_c, 15, 38, 60
17, 122400, Note_on_c, 15, 50, 60
17, 122592, Note_on_c, 15, 50, 0
17, 122592, Note_on_c, 15, 38, 0
17, 122640, Note_on_c, 15, 54, 60
17, 122640, Note_on_c, 15, 42, 60
17, 122832, Note_on_c, 15, 42, 0
17, 122832, Note_on_c, 15, 54, 0
17, 122880, Note_on_c, 15, 57, 60
17, 122880, Note_on_c, 15, 45, 60
17, 123072, Note_on_c, 15, 45, 0
17, 123072, Note_on_c, 15, 57, 0
17, 123120, Note_on_c, 15, 42, 60
17, 123120, Note_on_c, 15, 54, 60
17, 123312, Note_on_c, 15, 54, 0
17, 123312, Note_on_c, 15, 42, 0
17, 123360, Note_on_c, 15, 38, 60
17, 123360, Note_on_c, 15, 50, 60
17, 123552, Note_on_c, 15, 50, 0
17, 123552, Note_on_c, 15, 38, 0
17, 123600, Note_on_c, 15, 45, 60
17, 123600, Note_on_c, 15, 33, 60
17, 123792, Note_on_c, 15, 33, 0
17, 123792, Note_on_c, 15, 45, 0
17, 123840, Note_on_c, 15, 35, 60
17, 123840, Note_on_c, 15, 47, 60
17, 124032, Note_on_c, 15, 47, 0
17, 124032, Note_on_c, 15, 35, 0
17, 124080, Note_on_c, 15, 50, 60
17, 124080, Note_on_c, 15, 38, 60
17, 124272, Note_on_c, 15, 38, 0
17, 124272, Note_on_c, 15, 50, 0
17, 124320, Note_on_c, 15, 49, 60
17, 124320, Note_on_c, 15, 37, 60
17, 124512, Note_on_c, 15, 37, 0
17, 124512, Note_on_c, 15, 49, 0
17, 124560, Note_on_c, 15, 47, 60
17, 124560, Note_on_c, 15, 35, 60
17, 124752, Note_on_c, 15, 35, 0
17, 124752, Note_on_c, 15, 47, 0
17, 124800, Note_on_c, 15, 45, 60
17, 124800, Note_on_c, 15, 33, 60
17, 124992, Note_on_c, 15, 33, 0
17, 124992, Note_on_c, 15, 45, 0
17, 125040, Note_on_c, 15, 32, 60
17, 125040, Note_on_c, 15, 44, 60
17, 125232, Note_on_c, 15, 44, 0
17, 125232, Note_on_c, 15, 32, 0
17, 125280, Note_on_c, 15, 37, 60
17, 125280, Note_on_c, 15, 49, 60
17, 125472, Note_on_c, 15, 49, 0
17, 125472, Note_on_c, 15, 37, 0
17, 125520, Note_on_c, 15, 54, 60
17, 125520, Note_on_c, 15, 42, 60
17, 125712, Note_on_c, 15, 42, 0
17, 125712, Note_on_c, 15, 54, 0
17, 125760, Note_on_c, 15, 57, 60
17, 125760, Note_on_c, 15, 45, 60
17, 125952, Note_on_c, 15, 45, 0
17, 125952, Note_on_c, 15, 57, 0
17, 126000, Note_on_c, 15, 49, 60
17, 126000, Note_on_c, 15, 37, 60
17, 126192, Note_on_c, 15, 37, 0
17, 126192, Note_on_c, 15, 49, 0
17, 126240, Note_on_c, 15, 41, 60
17, 126240, Note_on_c, 15, 53, 60
17, 126432, Note_on_c, 15, 53, 0
17, 126432, Note_on_c, 15, 41, 0
17, 126480, Note_on_c, 15, 44, 60
17, 126480, Note_on_c, 15, 56, 60
17, 126672, Note_on_c, 15, 56, 0
17, 126672, Note_on_c, 15, 44, 0
17, 126720, Note_on_c, 15, 54, 60
17, 126720, Note_on_c, 15, 42, 60
17, 126912, Note_on_c, 15, 42, 0
17, 126912, Note_on_c, 15, 54, 0
17, 126960, Note_on_c, 15, 45, 60
17, 126960, Note_on_c, 15, 57, 60
17, 127152, Note_on_c, 15, 57, 0
17, 127152, Note_on_c, 15, 45, 0
17, 127200, Note_on_c, 15, 61, 60
17, 127200, Note_on_c, 15, 49, 60
17, 127392, Note_on_c, 15, 49, 0
17, 127392, Note_on_c, 15, 61, 0
17, 127440, Note_on_c, 15, 45, 60
17, 127440, Note_on_c, 15, 57, 60
17, 127632, Note_on_c, 15, 57, 0
17, 127632, Note_on_c, 15, 45, 0
17, 127680, Note_on_c, 15, 42, 60
17, 127680, Note_on_c, 15, 54, 60
17, 127872, Note_on_c, 15, 54, 0
17, 127872, Note_on_c, 15, 42, 0
17, 127920, Note_on_c, 15, 37, 60
17, 127920, Note_on_c, 15, 49, 60
17, 128112, Note_on_c, 15, 49, 0
17, 128112, Note_on_c, 15, 37, 0
17, 128160, Note_on_c, 15, 38, 60
17, 128160, Note_on_c, 15, 50, 60
17, 128352, Note_on_c, 15, 50, 0
17, 128352, Note_on_c, 15, 38, 0
17, 128400, Note_on_c, 15, 42, 60
17, 128400, Note_on_c, 15, 54, 60
17, 128592, Note_on_c, 15, 54, 0
17, 128592, Note_on_c, 15, 42, 0
17, 128640, Note_on_c, 15, 57, 60
17, 128640, Note_on_c, 15, 45, 60
17, 128832, Note_on_c, 15, 45, 0
17, 128832, Note_on_c, 15, 57, 0
17, 128880, Note_on_c, 15, 42, 60
17, 128880, Note_on_c, 15, 54, 60
17, 129072, Note_on_c, 15, 54, 0
17, 129072, Note_on_c, 15, 42, 0
17, 129120, Note_on_c, 15, 38, 60
17, 129120, Note_on_c, 15, 50, 60
17, 129312, Note_on_c, 15, 50, 0
17, 129312, Note_on_c, 15, 38, 0
17, 129360, Note_on_c, 15, 33, 60
17, 129360, Note_on_c, 15, 45, 60
17, 129552, Note_on_c, 15, 45, 0
17, 129552, Note_on_c, 15, 33, 0
17, 129600, Note_on_c, 15, 47, 60
17, 129600, Note_on_c, 15, 35, 60
17, 129792, Note_on_c, 15, 35, 0
17, 129792, Note_on_c, 15, 47, 0
17, 129840, Note_on_c, 15, 38, 60
17, 129840, Note_on_c, 15, 50, 60
17, 130032, Note_on_c, 15, 50, 0
17, 130032, Note_on_c, 15, 38, 0
17, 130080, Note_on_c, 15, 43, 60
17, 130080, Note_on_c, 15, 55, 60
17, 130272, Note_on_c, 15, 55, 0
17, 130272, Note_on_c, 15, 43, 0
17, 130320, Note_on_c, 15, 59, 60
17, 130320, Note_on_c, 15, 47, 60
17, 130512, Note_on_c, 15, 47, 0
17, 130512, Note_on_c, 15, 59, 0
17, 130560, Note_on_c, 15, 43, 60
17, 130560, Note_on_c, 15, 55, 60
17, 130752, Note_on_c, 15, 55, 0
17, 130752, Note_on_c, 15, 43, 0
17, 130800, Note_on_c, 15, 35, 60
17, 130800, Note_on_c, 15, 47, 60
17, 130992, Note_on_c, 15, 47, 0
17, 130992, Note_on_c, 15, 35, 0
17, 131040, Note_on_c, 15, 37, 60
17, 131040, Note_on_c, 15, 49, 60
17, 131232, Note_on_c, 15, 49, 0
17, 131232, Note_on_c, 15, 37, 0
17, 131280, Note_on_c, 15, 54, 60
17, 131280, Note_on_c, 15, 42, 60
17, 131472, Note_on_c, 15, 42, 0
17, 131472, Note_on_c, 15, 54, 0
17, 131520, Note_on_c, 15, 57, 60
17, 131520, Note_on_c, 15, 45, 60
17, 131712, Note_on_c, 15, 45, 0
17, 131712, Note_on_c, 15, 57, 0
17, 131760, Note_on_c, 15, 49, 60
17, 131760, Note_on_c, 15, 37, 60
17, 131952, Note_on_c, 15, 37, 0
17, 131952, Note_on_c, 15, 49, 0
17, 132000, Note_on_c, 15, 41, 60
17, 132000, Note_on_c, 15, 53, 60
17, 132192, Note_on_c, 15, 53, 0
17, 132192, Note_on_c, 15, 41, 0
17, 132240, Note_on_c, 15, 44, 60
17, 132240, Note_on_c, 15, 56, 60
17, 132432, Note_on_c, 15, 56, 0
17, 132432, Note_on_c, 15, 44, 0
17, 132480, Note_on_c, 15, 54, 60
17, 132480, Note_on_c, 15, 42, 60
17, 132672, Note_on_c, 15, 42, 0
17, 132672, Note_on_c, 15, 54, 0
17, 132672, End_track
0, 0, End_of_file