0, 0, Header, 1, 3, 240
1, 0, Start_track
1, 0, Time_signature, 3, 2, 24, 8
1, 0, Tempo, 571429
1, 33360, Tempo, 600000
1, 33600, Tempo, 638298
1, 33840, Tempo, 674157
1, 34080, Tempo, 722892
1, 34320, Tempo, 769231
1, 34320, End_track
2, 0, Start_track
2, 0, Note_on_c, 0, 65, 64
2, 54, Note_off_c, 0, 65, 64
2, 120, Note_on_c, 0, 65, 64
2, 174, Note_off_c, 0, 65, 64
2, 240, Note_on_c, 0, 67, 64
2, 264, Note_off_c, 0, 67, 64
2, 270, Note_on_c, 0, 65, 64
2, 294, Note_off_c, 0, 65, 64
2, 300, Note_on_c, 0, 67, 64
2, 324, Note_off_c, 0, 67, 64
2, 330, Note_on_c, 0, 65, 64
2, 354, Note_off_c, 0, 65, 64
2, 360, Note_on_c, 0, 67, 64
2, 384, Note_off_c, 0, 67, 64
2, 390, Note_on_c, 0, 65, 64
2, 414, Note_off_c, 0, 65, 64
2, 420, Note_on_c, 0, 67, 64
2, 444, Note_off_c, 0, 67, 64
2, 450, Note_on_c, 0, 65, 64
2, 474, Note_off_c, 0, 65, 64
2, 480, Note_on_c, 0, 67, 64
2, 504, Note_off_c, 0, 67, 64
2, 510, Note_on_c, 0, 65, 64
2, 534, Note_off_c, 0, 65, 64
2, 540, Note_on_c, 0, 67, 64
2, 564, Note_off_c, 0, 67, 64
2, 570, Note_on_c, 0, 65, 64
2, 594, Note_off_c, 0, 65, 64
2, 600, Note_on_c, 0, 64, 64
2, 648, Note_off_c, 0, 64, 64
2, 660, Note_on_c, 0, 65, 64
2, 708, Note_off_c, 0, 65, 64
2, 720, Note_on_c, 0, 67, 64
2, 1008, Note_off_c, 0, 67, 64
2, 1080, Note_on_c, 0, 69, 64
2, 1128, Note_off_c, 0, 69, 64
2, 1140, Note_on_c, 0, 70, 64
2, 1188, Note_off_c, 0, 70, 64
2, 1200, Note_on_c, 0, 69, 64
2, 1392, Note_off_c, 0, 69, 64
2, 1440, Note_on_c, 0, 74, 64
2, 1504, Note_off_c, 0, 74, 64
2, 1520, Note_on_c, 0, 72, 64
2, 1584, Note_off_c, 0, 72, 64
2, 1600, Note_on_c, 0, 70, 64
2, 1664, Note_off_c, 0, 70, 64
2, 1680, Note_on_c, 0, 69, 64
2, 1872, Note_off_c, 0, 69, 64
2, 1920, Note_on_c, 0, 69, 64
2, 1944, Note_off_c, 0, 69, 64
2, 1950, Note_on_c, 0, 67, 64
2, 1974, Note_off_c, 0, 67, 64
2, 1980, Note_on_c, 0, 69, 64
2, 2004, Note_off_c, 0, 69, 64
2, 2010, Note_on_c, 0, 67, 64
2, 2034, Note_off_c, 0, 67, 64
2, 2040, Note_on_c, 0, 65, 64
2, 2088, Note_off_c, 0, 65, 64
2, 2100, Note_on_c, 0, 64, 64
2, 2148, Note_off_c, 0, 64, 64
2, 2160, Note_on_c, 0, 65, 64
2, 2352, Note_off_c, 0, 65, 64
2, 2880, Note_on_c, 0, 67, 64
2, 2976, Note_off_c, 0, 67, 64
2, 3000, Note_on_c, 0, 77, 64
2, 3054, Note_off_c, 0, 77, 64
2, 3120, Note_on_c, 0, 77, 64
2, 3216, Note_off_c, 0, 77, 64
2, 3240, Note_on_c, 0, 74, 64
2, 3294, Note_off_c, 0, 74, 64
2, 3360, Note_on_c, 0, 74, 64
2, 3456, Note_off_c, 0, 74, 64
2, 3480, Note_on_c, 0, 71, 64
2, 3534, Note_off_c, 0, 71, 64
2, 3600, Note_on_c, 0, 72, 64
2, 3888, Note_off_c, 0, 72, 64
2, 3960, Note_on_c, 0, 76, 64
2, 4056, Note_off_c, 0, 76, 64
2, 4080, Note_on_c, 0, 79, 64
2, 4188, Note_off_c, 0, 79, 64
2, 4320, Note_on_c, 0, 67, 64
2, 4416, Note_off_c, 0, 67, 64
2, 4440, Note_on_c, 0, 77, 64
2, 4494, Note_off_c, 0, 77, 64
2, 4560, Note_on_c, 0, 77, 64
2, 4656, Note_off_c, 0, 77, 64
2, 4680, Note_on_c, 0, 74, 64
2, 4734, Note_off_c, 0, 74, 64
2, 4800, Note_on_c, 0, 74, 64
2, 4896, Note_off_c, 0, 74, 64
2, 4920, Note_on_c, 0, 71, 64
2, 4974, Note_off_c, 0, 71, 64
2, 5040, Note_on_c, 0, 72, 64
2, 5328, Note_off_c, 0, 72, 64
2, 5400, Note_on_c, 0, 76, 64
2, 5496, Note_off_c, 0, 76, 64
2, 5520, Note_on_c, 0, 79, 64
2, 5628, Note_off_c, 0, 79, 64
2, 5760, Note_on_c, 0, 81, 64
2, 5824, Note_off_c, 0, 81, 64
2, 5840, Note_on_c, 0, 77, 64
2, 5904, Note_off_c, 0, 77, 64
2, 5920, Note_on_c, 0, 74, 64
2, 5956, Note_off_c, 0, 74, 64
2, 6000, Note_on_c, 0, 79, 64
2, 6064, Note_off_c, 0, 79, 64
2, 6080, Note_on_c, 0, 76, 64
2, 6144, Note_off_c, 0, 76, 64
2, 6160, Note_on_c, 0, 72, 64
2, 6196, Note_off_c, 0, 72, 64
2, 6240, Note_on_c, 0, 77, 64
2, 6304, Note_off_c, 0, 77, 64
2, 6320, Note_on_c, 0, 74, 64
2, 6384, Note_off_c, 0, 74, 64
2, 6400, Note_on_c, 0, 71, 64
2, 6436, Note_off_c, 0, 71, 64
2, 6480, Note_on_c, 0, 71, 64
2, 6576, Note_off_c, 0, 71, 64
2, 6600, Note_on_c, 0, 72, 64
2, 7104, Note_off_c, 0, 72, 64
2, 7200, Note_on_c, 0, 65, 64
2, 7254, Note_off_c, 0, 65, 64
2, 7320, Note_on_c, 0, 65, 64
2, 7374, Note_off_c, 0, 65, 64
2, 7440, Note_on_c, 0, 67, 64
2, 7464, Note_off_c, 0, 67, 64
2, 7470, Note_on_c, 0, 65, 64
2, 7494, Note_off_c, 0, 65, 64
2, 7500, Note_on_c, 0, 67, 64
2, 7524, Note_off_c, 0, 67, 64
2, 7530, Note_on_c, 0, 65, 64
2, 7554, Note_off_c, 0, 65, 64
2, 7560, Note_on_c, 0, 67, 64
2, 7584, Note_off_c, 0, 67, 64
2, 7590, Note_on_c, 0, 65, 64
2, 7614, Note_off_c, 0, 65, 64
2, 7620, Note_on_c, 0, 67, 64
2, 7644, Note_off_c, 0, 67, 64
2, 7650, Note_on_c, 0, 65, 64
2, 7674, Note_off_c, 0, 65, 64
2, 7680, Note_on_c, 0, 67, 64
2, 7704, Note_off_c, 0, 67, 64
2, 7710, Note_on_c, 0, 65, 64
2, 7734, Note_off_c, 0, 65, 64
2, 7740, Note_on_c, 0, 67, 64
2, 7764, Note_off_c, 0, 67, 64
2, 7770, Note_on_c, 0, 65, 64
2, 7794, Note_off_c, 0, 65, 64
2, 7800, Note_on_c, 0, 64, 64
2, 7848, Note_off_c, 0, 64, 64
2, 7860, Note_on_c, 0, 65, 64
2, 7908, Note_off_c, 0, 65, 64
2, 7920, Note_on_c, 0, 67, 64
2, 8208, Note_off_c, 0, 67, 64
2, 8280, Note_on_c, 0, 69, 64
2, 8328, Note_off_c, 0, 69, 64
2, 8340, Note_on_c, 0, 70, 64
2, 8388, Note_off_c, 0, 70, 64
2, 8400, Note_on_c, 0, 69, 64
2, 8592, Note_off_c, 0, 69, 64
2, 8640, Note_on_c, 0, 74, 64
2, 8704, Note_off_c, 0, 74, 64
2, 8720, Note_on_c, 0, 72, 64
2, 8784, Note_off_c, 0, 72, 64
2, 8800, Note_on_c, 0, 70, 64
2, 8864, Note_off_c, 0, 70, 64
2, 8880, Note_on_c, 0, 69, 64
2, 9072, Note_off_c, 0, 69, 64
2, 9120, Note_on_c, 0, 69, 64
2, 9144, Note_off_c, 0, 69, 64
2, 9150, Note_on_c, 0, 67, 64
2, 9174, Note_off_c, 0, 67, 64
2, 9180, Note_on_c, 0, 69, 64
2, 9204, Note_off_c, 0, 69, 64
2, 9210, Note_on_c, 0, 67, 64
2, 9234, Note_off_c, 0, 67, 64
2, 9240, Note_on_c, 0, 65, 64
2, 9288, Note_off_c, 0, 65, 64
2, 9300, Note_on_c, 0, 64, 64
2, 9348, Note_off_c, 0, 64, 64
2, 9360, Note_on_c, 0, 65, 64
2, 9552, Note_off_c, 0, 65, 64
2, 10080, Note_on_c, 0, 67, 64
2, 10176, Note_off_c, 0, 67, 64
2, 10200, Note_on_c, 0, 77, 64
2, 10254, Note_off_c, 0, 77, 64
2, 10320, Note_on_c, 0, 77, 64
2, 10416, Note_off_c, 0, 77, 64
2, 10440, Note_on_c, 0, 74, 64
2, 10494, Note_off_c, 0, 74, 64
2, 10560, Note_on_c, 0, 74, 64
2, 10656, Note_off_c, 0, 74, 64
2, 10680, Note_on_c, 0, 71, 64
2, 10734, Note_off_c, 0, 71, 64
2, 10800, Note_on_c, 0, 72, 64
2, 11088, Note_off_c, 0, 72, 64
2, 11160, Note_on_c, 0, 76, 64
2, 11256, Note_off_c, 0, 76, 64
2, 11280, Note_on_c, 0, 79, 64
2, 11472, Note_off_c, 0, 79, 64
2, 11520, Note_on_c, 0, 67, 64
2, 11616, Note_off_c, 0, 67, 64
2, 11640, Note_on_c, 0, 77, 64
2, 11694, Note_off_c, 0, 77, 64
2, 11760, Note_on_c, 0, 77, 64
2, 11856, Note_off_c, 0, 77, 64
2, 11880, Note_on_c, 0, 74, 64
2, 11934, Note_off_c, 0, 74, 64
2, 12000, Note_on_c, 0, 74, 64
2, 12096, Note_off_c, 0, 74, 64
2, 12120, Note_on_c, 0, 71, 64
2, 12174, Note_off_c, 0, 71, 64
2, 12240, Note_on_c, 0, 72, 64
2, 12528, Note_off_c, 0, 72, 64
2, 12600, Note_on_c, 0, 76, 64
2, 12696, Note_off_c, 0, 76, 64
2, 12720, Note_on_c, 0, 79, 64
2, 12912, Note_off_c, 0, 79, 64
2, 12960, Note_on_c, 0, 81, 64
2, 13024, Note_off_c, 0, 81, 64
2, 13040, Note_on_c, 0, 77, 64
2, 13104, Note_off_c, 0, 77, 64
2, 13120, Note_on_c, 0, 74, 64
2, 13156, Note_off_c, 0, 74, 64
2, 13200, Note_on_c, 0, 79, 64
2, 13264, Note_off_c, 0, 79, 64
2, 13280, Note_on_c, 0, 76, 64
2, 13344, Note_off_c, 0, 76, 64
2, 13360, Note_on_c, 0, 72, 64
2, 13396, Note_off_c, 0, 72, 64
2, 13440, Note_on_c, 0, 77, 64
2, 13504, Note_off_c, 0, 77, 64
2, 13520, Note_on_c, 0, 74, 64
2, 13584, Note_off_c, 0, 74, 64
2, 13600, Note_on_c, 0, 71, 64
2, 13636, Note_off_c, 0, 71, 64
2, 13680, Note_on_c, 0, 71, 64
2, 13776, Note_off_c, 0, 71, 64
2, 13800, Note_on_c, 0, 72, 64
2, 14304, Note_off_c, 0, 72, 64
2, 14400, Note_on_c, 0, 65, 64
2, 14496, Note_off_c, 0, 65, 64
2, 14520, Note_on_c, 0, 65, 64
2, 14616, Note_off_c, 0, 65, 64
2, 14640, Note_on_c, 0, 67, 64
2, 14664, Note_off_c, 0, 67, 64
2, 14670, Note_on_c, 0, 65, 64
2, 14694, Note_off_c, 0, 65, 64
2, 14700, Note_on_c, 0, 67, 64
2, 14724, Note_off_c, 0, 67, 64
2, 14730, Note_on_c, 0, 65, 64
2, 14754, Note_off_c, 0, 65, 64
2, 14760, Note_on_c, 0, 67, 64
2, 14784, Note_off_c, 0, 67, 64
2, 14790, Note_on_c, 0, 65, 64
2, 14814, Note_off_c, 0, 65, 64
2, 14820, Note_on_c, 0, 64, 64
2, 14844, Note_off_c, 0, 64, 64
2, 14850, Note_on_c, 0, 65, 64
2, 14874, Note_off_c, 0, 65, 64
2, 14880, Note_on_c, 0, 72, 64
2, 14976, Note_off_c, 0, 72, 64
2, 15000, Note_on_c, 0, 75, 64
2, 15054, Note_off_c, 0, 75, 64
2, 15120, Note_on_c, 0, 74, 64
2, 15216, Note_off_c, 0, 74, 64
2, 15240, Note_on_c, 0, 70, 64
2, 15294, Note_off_c, 0, 70, 64
2, 15360, Note_on_c, 0, 69, 64
2, 15456, Note_off_c, 0, 69, 64
2, 15480, Note_on_c, 0, 72, 64
2, 15534, Note_off_c, 0, 72, 64
2, 15600, Note_on_c, 0, 70, 64
2, 15792, Note_off_c, 0, 70, 64
2, 15840, Note_on_c, 0, 67, 64
2, 15894, Note_off_c, 0, 67, 64
2, 15960, Note_on_c, 0, 67, 64
2, 16014, Note_off_c, 0, 67, 64
2, 16080, Note_on_c, 0, 69, 64
2, 16104, Note_off_c, 0, 69, 64
2, 16110, Note_on_c, 0, 67, 64
2, 16134, Note_off_c, 0, 67, 64
2, 16140, Note_on_c, 0, 69, 64
2, 16164, Note_off_c, 0, 69, 64
2, 16170, Note_on_c, 0, 67, 64
2, 16194, Note_off_c, 0, 67, 64
2, 16200, Note_on_c, 0, 69, 64
2, 16224, Note_off_c, 0, 69, 64
2, 16230, Note_on_c, 0, 67, 64
2, 16254, Note_off_c, 0, 67, 64
2, 16260, Note_on_c, 0, 65, 64
2, 16284, Note_off_c, 0, 65, 64
2, 16290, Note_on_c, 0, 67, 64
2, 16314, Note_off_c, 0, 67, 64
2, 16320, Note_on_c, 0, 74, 64
2, 16416, Note_off_c, 0, 74, 64
2, 16440, Note_on_c, 0, 77, 64
2, 16536, Note_off_c, 0, 77, 64
2, 16560, Note_on_c, 0, 76, 64
2, 16656, Note_off_c, 0, 76, 64
2, 16680, Note_on_c, 0, 72, 64
2, 16734, Note_off_c, 0, 72, 64
2, 16800, Note_on_c, 0, 71, 64
2, 16896, Note_off_c, 0, 71, 64
2, 16920, Note_on_c, 0, 74, 64
2, 16974, Note_off_c, 0, 74, 64
2, 17040, Note_on_c, 0, 72, 64
2, 17148, Note_off_c, 0, 72, 64
2, 17280, Note_on_c, 0, 65, 64
2, 17376, Note_off_c, 0, 65, 64
2, 17400, Note_on_c, 0, 65, 64
2, 17496, Note_off_c, 0, 65, 64
2, 17520, Note_on_c, 0, 67, 64
2, 17544, Note_off_c, 0, 67, 64
2, 17550, Note_on_c, 0, 65, 64
2, 17574, Note_off_c, 0, 65, 64
2, 17580, Note_on_c, 0, 67, 64
2, 17604, Note_off_c, 0, 67, 64
2, 17610, Note_on_c, 0, 65, 64
2, 17634, Note_off_c, 0, 65, 64
2, 17640, Note_on_c, 0, 67, 64
2, 17664, Note_off_c, 0, 67, 64
2, 17670, Note_on_c, 0, 65, 64
2, 17694, Note_off_c, 0, 65, 64
2, 17700, Note_on_c, 0, 67, 64
2, 17724, Note_off_c, 0, 67, 64
2, 17730, Note_on_c, 0, 65, 64
2, 17754, Note_off_c, 0, 65, 64
2, 17760, Note_on_c, 0, 67, 64
2, 17784, Note_off_c, 0, 67, 64
2, 17790, Note_on_c, 0, 65, 64
2, 17814, Note_off_c, 0, 65, 64
2, 17820, Note_on_c, 0, 67, 64
2, 17844, Note_off_c, 0, 67, 64
2, 17850, Note_on_c, 0, 65, 64
2, 17874, Note_off_c, 0, 65, 64
2, 17880, Note_on_c, 0, 64, 64
2, 17928, Note_off_c, 0, 64, 64
2, 17940, Note_on_c, 0, 65, 64
2, 17988, Note_off_c, 0, 65, 64
2, 18000, Note_on_c, 0, 67, 64
2, 18288, Note_off_c, 0, 67, 64
2, 18360, Note_on_c, 0, 69, 64
2, 18408, Note_off_c, 0, 69, 64
2, 18420, Note_on_c, 0, 70, 64
2, 18468, Note_off_c, 0, 70, 64
2, 18480, Note_on_c, 0, 69, 64
2, 18588, Note_off_c, 0, 69, 64
2, 18720, Note_on_c, 0, 53, 64
2, 18774, Note_off_c, 0, 53, 64
2, 18840, Note_on_c, 0, 53, 64
2, 18894, Note_off_c, 0, 53, 64
2, 18960, Note_on_c, 0, 55, 64
2, 18984, Note_off_c, 0, 55, 64
2, 18990, Note_on_c, 0, 53, 64
2, 19014, Note_off_c, 0, 53, 64
2, 19020, Note_on_c, 0, 55, 64
2, 19044, Note_off_c, 0, 55, 64
2, 19050, Note_on_c, 0, 53, 64
2, 19074, Note_off_c, 0, 53, 64
2, 19080, Note_on_c, 0, 55, 64
2, 19104, Note_off_c, 0, 55, 64
2, 19110, Note_on_c, 0, 53, 64
2, 19134, Note_off_c, 0, 53, 64
2, 19140, Note_on_c, 0, 55, 64
2, 19164, Note_off_c, 0, 55, 64
2, 19170, Note_on_c, 0, 53, 64
2, 19194, Note_off_c, 0, 53, 64
2, 19200, Note_on_c, 0, 55, 64
2, 19224, Note_off_c, 0, 55, 64
2, 19230, Note_on_c, 0, 53, 64
2, 19254, Note_off_c, 0, 53, 64
2, 19260, Note_on_c, 0, 55, 64
2, 19284, Note_off_c, 0, 55, 64
2, 19290, Note_on_c, 0, 53, 64
2, 19314, Note_off_c, 0, 53, 64
2, 19320, Note_on_c, 0, 52, 64
2, 19368, Note_off_c, 0, 52, 64
2, 19380, Note_on_c, 0, 53, 64
2, 19428, Note_off_c, 0, 53, 64
2, 19440, Note_on_c, 0, 55, 64
2, 19728, Note_off_c, 0, 55, 64
2, 19800, Note_on_c, 0, 57, 64
2, 19848, Note_off_c, 0, 57, 64
2, 19860, Note_on_c, 0, 58, 64
2, 19908, Note_off_c, 0, 58, 64
2, 19920, Note_on_c, 0, 57, 64
2, 20028, Note_off_c, 0, 57, 64
2, 20160, Note_on_c, 0, 60, 64
2, 20256, Note_off_c, 0, 60, 64
2, 20280, Note_on_c, 0, 70, 64
2, 20334, Note_off_c, 0, 70, 64
2, 20400, Note_on_c, 0, 70, 64
2, 20496, Note_off_c, 0, 70, 64
2, 20520, Note_on_c, 0, 67, 64
2, 20574, Note_off_c, 0, 67, 64
2, 20640, Note_on_c, 0, 67, 64
2, 20736, Note_off_c, 0, 67, 64
2, 20760, Note_on_c, 0, 64, 64
2, 20814, Note_off_c, 0, 64, 64
2, 20880, Note_on_c, 0, 65, 64
2, 21168, Note_off_c, 0, 65, 64
2, 21240, Note_on_c, 0, 69, 64
2, 21336, Note_off_c, 0, 69, 64
2, 21360, Note_on_c, 0, 72, 64
2, 21468, Note_off_c, 0, 72, 64
2, 21600, Note_on_c, 0, 72, 64
2, 21696, Note_off_c, 0, 72, 64
2, 21720, Note_on_c, 0, 82, 64
2, 21774, Note_off_c, 0, 82, 64
2, 21840, Note_on_c, 0, 82, 64
2, 21936, Note_off_c, 0, 82, 64
2, 21960, Note_on_c, 0, 79, 64
2, 22014, Note_off_c, 0, 79, 64
2, 22080, Note_on_c, 0, 79, 64
2, 22176, Note_off_c, 0, 79, 64
2, 22200, Note_on_c, 0, 76, 64
2, 22254, Note_off_c, 0, 76, 64
2, 22320, Note_on_c, 0, 77, 64
2, 22608, Note_off_c, 0, 77, 64
2, 22680, Note_on_c, 0, 81, 64
2, 22776, Note_off_c, 0, 81, 64
2, 22800, Note_on_c, 0, 84, 64
2, 22908, Note_off_c, 0, 84, 64
2, 23040, Note_on_c, 0, 74, 64
2, 23104, Note_off_c, 0, 74, 64
2, 23120, Note_on_c, 0, 70, 64
2, 23184, Note_off_c, 0, 70, 64
2, 23200, Note_on_c, 0, 67, 64
2, 23236, Note_off_c, 0, 67, 64
2, 23280, Note_on_c, 0, 72, 64
2, 23344, Note_off_c, 0, 72, 64
2, 23360, Note_on_c, 0, 69, 64
2, 23424, Note_off_c, 0, 69, 64
2, 23440, Note_on_c, 0, 65, 64
2, 23476, Note_off_c, 0, 65, 64
2, 23520, Note_on_c, 0, 70, 64
2, 23584, Note_off_c, 0, 70, 64
2, 23600, Note_on_c, 0, 67, 64
2, 23664, Note_off_c, 0, 67, 64
2, 23680, Note_on_c, 0, 64, 64
2, 23716, Note_off_c, 0, 64, 64
2, 23760, Note_on_c, 0, 64, 64
2, 23856, Note_off_c, 0, 64, 64
2, 23880, Note_on_c, 0, 65, 64
2, 24384, Note_off_c, 0, 65, 64
2, 24480, Note_on_c, 0, 65, 64
2, 24534, Note_off_c, 0, 65, 64
2, 24600, Note_on_c, 0, 65, 64
2, 24654, Note_off_c, 0, 65, 64
2, 24720, Note_on_c, 0, 67, 64
2, 24744, Note_off_c, 0, 67, 64
2, 24750, Note_on_c, 0, 65, 64
2, 24774, Note_off_c, 0, 65, 64
2, 24780, Note_on_c, 0, 67, 64
2, 24804, Note_off_c, 0, 67, 64
2, 24810, Note_on_c, 0, 65, 64
2, 24834, Note_off_c, 0, 65, 64
2, 24840, Note_on_c, 0, 67, 64
2, 24864, Note_off_c, 0, 67, 64
2, 24870, Note_on_c, 0, 65, 64
2, 24894, Note_off_c, 0, 65, 64
2, 24900, Note_on_c, 0, 64, 64
2, 24924, Note_off_c, 0, 64, 64
2, 24930, Note_on_c, 0, 65, 64
2, 24954, Note_off_c, 0, 65, 64
2, 24960, Note_on_c, 0, 72, 64
2, 25056, Note_off_c, 0, 72, 64
2, 25080, Note_on_c, 0, 75, 64
2, 25134, Note_off_c, 0, 75, 64
2, 25200, Note_on_c, 0, 74, 64
2, 25296, Note_off_c, 0, 74, 64
2, 25320, Note_on_c, 0, 70, 64
2, 25374, Note_off_c, 0, 70, 64
2, 25440, Note_on_c, 0, 69, 64
2, 25536, Note_off_c, 0, 69, 64
2, 25560, Note_on_c, 0, 72, 64
2, 25614, Note_off_c, 0, 72, 64
2, 25680, Note_on_c, 0, 70, 64
2, 25788, Note_off_c, 0, 70, 64
2, 25920, Note_on_c, 0, 67, 64
2, 25974, Note_off_c, 0, 67, 64
2, 26040, Note_on_c, 0, 67, 64
2, 26094, Note_off_c, 0, 67, 64
2, 26160, Note_on_c, 0, 69, 64
2, 26184, Note_off_c, 0, 69, 64
2, 26190, Note_on_c, 0, 67, 64
2, 26214, Note_off_c, 0, 67, 64
2, 26220, Note_on_c, 0, 69, 64
2, 26244, Note_off_c, 0, 69, 64
2, 26250, Note_on_c, 0, 67, 64
2, 26274, Note_off_c, 0, 67, 64
2, 26280, Note_on_c, 0, 69, 64
2, 26304, Note_off_c, 0, 69, 64
2, 26310, Note_on_c, 0, 67, 64
2, 26334, Note_off_c, 0, 67, 64
2, 26340, Note_on_c, 0, 65, 64
2, 26364, Note_off_c, 0, 65, 64
2, 26370, Note_on_c, 0, 67, 64
2, 26394, Note_off_c, 0, 67, 64
2, 26400, Note_on_c, 0, 74, 64
2, 26454, Note_off_c, 0, 74, 64
2, 26520, Note_on_c, 0, 77, 64
2, 26574, Note_off_c, 0, 77, 64
2, 26640, Note_on_c, 0, 76, 64
2, 26736, Note_off_c, 0, 76, 64
2, 26760, Note_on_c, 0, 72, 64
2, 26814, Note_off_c, 0, 72, 64
2, 26880, Note_on_c, 0, 71, 64
2, 26976, Note_off_c, 0, 71, 64
2, 27000, Note_on_c, 0, 74, 64
2, 27054, Note_off_c, 0, 74, 64
2, 27120, Note_on_c, 0, 72, 64
2, 27228, Note_off_c, 0, 72, 64
2, 27360, Note_on_c, 0, 65, 64
2, 27414, Note_off_c, 0, 65, 64
2, 27480, Note_on_c, 0, 65, 64
2, 27534, Note_off_c, 0, 65, 64
2, 27600, Note_on_c, 0, 67, 64
2, 27624, Note_off_c, 0, 67, 64
2, 27630, Note_on_c, 0, 65, 64
2, 27654, Note_off_c, 0, 65, 64
2, 27660, Note_on_c, 0, 67, 64
2, 27684, Note_off_c, 0, 67, 64
2, 27690, Note_on_c, 0, 65, 64
2, 27714, Note_off_c, 0, 65, 64
2, 27720, Note_on_c, 0, 67, 64
2, 27744, Note_off_c, 0, 67, 64
2, 27750, Note_on_c, 0, 65, 64
2, 27774, Note_off_c, 0, 65, 64
2, 27780, Note_on_c, 0, 67, 64
2, 27804, Note_off_c, 0, 67, 64
2, 27810, Note_on_c, 0, 65, 64
2, 27834, Note_off_c, 0, 65, 64
2, 27840, Note_on_c, 0, 67, 64
2, 27864, Note_off_c, 0, 67, 64
2, 27870, Note_on_c, 0, 65, 64
2, 27894, Note_off_c, 0, 65, 64
2, 27900, Note_on_c, 0, 67, 64
2, 27924, Note_off_c, 0, 67, 64
2, 27930, Note_on_c, 0, 65, 64
2, 27954, Note_off_c, 0, 65, 64
2, 27960, Note_on_c, 0, 64, 64
2, 28008, Note_off_c, 0, 64, 64
2, 28020, Note_on_c, 0, 65, 64
2, 28068, Note_off_c, 0, 65, 64
2, 28080, Note_on_c, 0, 67, 64
2, 28368, Note_off_c, 0, 67, 64
2, 28440, Note_on_c, 0, 69, 64
2, 28488, Note_off_c, 0, 69, 64
2, 28500, Note_on_c, 0, 70, 64
2, 28548, Note_off_c, 0, 70, 64
2, 28560, Note_on_c, 0, 69, 64
2, 28752, Note_off_c, 0, 69, 64
2, 28800, Note_on_c, 0, 53, 64
2, 28896, Note_off_c, 0, 53, 64
2, 28920, Note_on_c, 0, 53, 64
2, 29016, Note_off_c, 0, 53, 64
2, 29040, Note_on_c, 0, 55, 64
2, 29064, Note_off_c, 0, 55, 64
2, 29070, Note_on_c, 0, 53, 64
2, 29094, Note_off_c, 0, 53, 64
2, 29100, Note_on_c, 0, 55, 64
2, 29124, Note_off_c, 0, 55, 64
2, 29130, Note_on_c, 0, 53, 64
2, 29154, Note_off_c, 0, 53, 64
2, 29160, Note_on_c, 0, 55, 64
2, 29184, Note_off_c, 0, 55, 64
2, 29190, Note_on_c, 0, 53, 64
2, 29214, Note_off_c, 0, 53, 64
2, 29220, Note_on_c, 0, 55, 64
2, 29244, Note_off_c, 0, 55, 64
2, 29250, Note_on_c, 0, 53, 64
2, 29274, Note_off_c, 0, 53, 64
2, 29280, Note_on_c, 0, 55, 64
2, 29304, Note_off_c, 0, 55, 64
2, 29310, Note_on_c, 0, 53, 64
2, 29334, Note_off_c, 0, 53, 64
2, 29340, Note_on_c, 0, 55, 64
2, 29364, Note_off_c, 0, 55, 64
2, 29370, Note_on_c, 0, 53, 64
2, 29394, Note_off_c, 0, 53, 64
2, 29400, Note_on_c, 0, 52, 64
2, 29448, Note_off_c, 0, 52, 64
2, 29460, Note_on_c, 0, 53, 64
2, 29508, Note_off_c, 0, 53, 64
2, 29520, Note_on_c, 0, 55, 64
2, 29808, Note_off_c, 0, 55, 64
2, 29880, Note_on_c, 0, 57, 64
2, 29928, Note_off_c, 0, 57, 64
2, 29940, Note_on_c, 0, 58, 64
2, 29988, Note_off_c, 0, 58, 64
2, 30000, Note_on_c, 0, 57, 64
2, 30108, Note_off_c, 0, 57, 64
2, 30240, Note_on_c, 0, 60, 64
2, 30336, Note_off_c, 0, 60, 64
2, 30360, Note_on_c, 0, 70, 64
2, 30414, Note_off_c, 0, 70, 64
2, 30480, Note_on_c, 0, 70, 64
2, 30576, Note_off_c, 0, 70, 64
2, 30600, Note_on_c, 0, 67, 64
2, 30654, Note_off_c, 0, 67, 64
2, 30720, Note_on_c, 0, 67, 64
2, 30816, Note_off_c, 0, 67, 64
2, 30840, Note_on_c, 0, 64, 64
2, 30894, Note_off_c, 0, 64, 64
2, 30960, Note_on_c, 0, 65, 64
2, 31248, Note_off_c, 0, 65, 64
2, 31320, Note_on_c, 0, 69, 64
2, 31416, Note_off_c, 0, 69, 64
2, 31440, Note_on_c, 0, 72, 64
2, 31548, Note_off_c, 0, 72, 64
2, 31680, Note_on_c, 0, 72, 64
2, 31776, Note_off_c, 0, 72, 64
2, 31800, Note_on_c, 0, 82, 64
2, 31854, Note_off_c, 0, 82, 64
2, 31920, Note_on_c, 0, 82, 64
2, 32016, Note_off_c, 0, 82, 64
2, 32040, Note_on_c, 0, 79, 64
2, 32094, Note_off_c, 0, 79, 64
2, 32160, Note_on_c, 0, 79, 64
2, 32256, Note_off_c, 0, 79, 64
2, 32280, Note_on_c, 0, 76, 64
2, 32334, Note_off_c, 0, 76, 64
2, 32400, Note_on_c, 0, 77, 64
2, 32688, Note_off_c, 0, 77, 64
2, 32760, Note_on_c, 0, 81, 64
2, 32856, Note_off_c, 0, 81, 64
2, 32880, Note_on_c, 0, 84, 64
2, 32988, Note_off_c, 0, 84, 64
2, 33120, Note_on_c, 0, 74, 64
2, 33184, Note_off_c, 0, 74, 64
2, 33200, Note_on_c, 0, 70, 64
2, 33264, Note_off_c, 0, 70, 64
2, 33280, Note_on_c, 0, 67, 64
2, 33316, Note_off_c, 0, 67, 64
2, 33360, Note_on_c, 0, 72, 64
2, 33424, Note_off_c, 0, 72, 64
2, 33440, Note_on_c, 0, 69, 64
2, 33504, Note_off_c, 0, 69, 64
2, 33520, Note_on_c, 0, 65, 64
2, 33556, Note_off_c, 0, 65, 64
2, 33600, Note_on_c, 0, 70, 64
2, 33664, Note_off_c, 0, 70, 64
2, 33680, Note_on_c, 0, 67, 64
2, 33744, Note_off_c, 0, 67, 64
2, 33760, Note_on_c, 0, 64, 64
2, 33796, Note_off_c, 0, 64, 64
2, 33840, Note_on_c, 0, 64, 64
2, 33936, Note_off_c, 0, 64, 64
2, 33960, Note_on_c, 0, 65, 64
2, 34464, Note_off_c, 0, 65, 64
2, 34464, End_track
3, 0, Start_track
3, 0, Note_on_c, 0, 53, 64
3, 192, Note_off_c, 0, 53, 64
3, 240, Note_on_c, 0, 57, 64
3, 348, Note_off_c, 0, 57, 64
3, 480, Note_on_c, 0, 53, 64
3, 588, Note_off_c, 0, 53, 64
3, 720, Note_on_c, 0, 52, 64
3, 912, Note_off_c, 0, 52, 64
3, 960, Note_on_c, 0, 48, 64
3, 1068, Note_off_c, 0, 48, 64
3, 1200, Note_on_c, 0, 53, 64
3, 1308, Note_off_c, 0, 53, 64
3, 1440, Note_on_c, 0, 58, 64
3, 1632, Note_off_c, 0, 58, 64
3, 1680, Note_on_c, 0, 60, 64
3, 1788, Note_off_c, 0, 60, 64
3, 1920, Note_on_c, 0, 48, 64
3, 2028, Note_off_c, 0, 48, 64
3, 2160, Note_on_c, 0, 53, 64
3, 2268, Note_off_c, 0, 53, 64
3, 2400, Note_on_c, 0, 48, 64
3, 2508, Note_off_c, 0, 48, 64
3, 2640, Note_on_c, 0, 41, 64
3, 2748, Note_off_c, 0, 41, 64
3, 2880, Note_on_c, 0, 55, 64
3, 3264, Note_off_c, 0, 55, 64
3, 3360, Note_on_c, 0, 53, 80
3, 3552, Note_off_c, 0, 53, 64
3, 3600, Note_on_c, 0, 52, 64
3, 3924, Note_off_c, 0, 52, 64
3, 4320, Note_on_c, 0, 55, 64
3, 4704, Note_off_c, 0, 55, 64
3, 4800, Note_on_c, 0, 53, 64
3, 4992, Note_off_c, 0, 53, 64
3, 5040, Note_on_c, 0, 52, 64
3, 5364, Note_off_c, 0, 52, 64
3, 5760, Note_on_c, 0, 53, 64
3, 5952, Note_off_c, 0, 53, 64
3, 6000, Note_on_c, 0, 55, 64
3, 6108, Note_off_c, 0, 55, 64
3, 6240, Note_on_c, 0, 43, 64
3, 6348, Note_off_c, 0, 43, 64
3, 6480, Note_on_c, 0, 48, 64
3, 6672, Note_off_c, 0, 48, 64
3, 6720, Note_on_c, 0, 43, 64
3, 6828, Note_off_c, 0, 43, 64
3, 6960, Note_on_c, 0, 36, 64
3, 7068, Note_off_c, 0, 36, 64
3, 7200, Note_on_c, 0, 53, 64
3, 7392, Note_off_c, 0, 53, 64
3, 7440, Note_on_c, 0, 57, 64
3, 7548, Note_off_c, 0, 57, 64
3, 7680, Note_on_c, 0, 53, 64
3, 7788, Note_off_c, 0, 53, 64
3, 7920, Note_on_c, 0, 52, 64
3, 8112, Note_off_c, 0, 52, 64
3, 8160, Note_on_c, 0, 48, 64
3, 8268, Note_off_c, 0, 48, 64
3, 8400, Note_on_c, 0, 53, 64
3, 8508, Note_off_c, 0, 53, 64
3, 8640, Note_on_c, 0, 58, 64
3, 8832, Note_off_c, 0, 58, 64
3, 8880, Note_on_c, 0, 60, 64
3, 8988, Note_off_c, 0, 60, 64
3, 9120, Note_on_c, 0, 48, 64
3, 9228, Note_off_c, 0, 48, 64
3, 9360, Note_on_c, 0, 53, 64
3, 9552, Note_off_c, 0, 53, 64
3, 9600, Note_on_c, 0, 48, 64
3, 9708, Note_off_c, 0, 48, 64
3, 9840, Note_on_c, 0, 41, 64
3, 9948, Note_off_c, 0, 41, 64
3, 10080, Note_on_c, 0, 55, 64
3, 10464, Note_off_c, 0, 55, 64
3, 10560, Note_on_c, 0, 53, 80
3, 10752, Note_off_c, 0, 53, 64
3, 10800, Note_on_c, 0, 52, 64
3, 11124, Note_off_c, 0, 52, 64
3, 11520, Note_on_c, 0, 55, 64
3, 11904, Note_off_c, 0, 55, 64
3, 12000, Note_on_c, 0, 53, 64
3, 12192, Note_off_c, 0, 53, 64
3, 12240, Note_on_c, 0, 52, 64
3, 12564, Note_off_c, 0, 52, 64
3, 12960, Note_on_c, 0, 53, 64
3, 13152, Note_off_c, 0, 53, 64
3, 13200, Note_on_c, 0, 55, 64
3, 13308, Note_off_c, 0, 55, 64
3, 13440, Note_on_c, 0, 43, 64
3, 13548, Note_off_c, 0, 43, 64
3, 13680, Note_on_c, 0, 48, 64
3, 13872, Note_off_c, 0, 48, 64
3, 13920, Note_on_c, 0, 43, 64
3, 14028, Note_off_c, 0, 43, 64
3, 14160, Note_on_c, 0, 36, 64
3, 14268, Note_off_c, 0, 36, 64
3, 14400, Note_on_c, 0, 53, 64
3, 14592, Note_off_c, 0, 53, 64
3, 14640, Note_on_c, 0, 57, 64
3, 14748, Note_off_c, 0, 57, 64
3, 14880, Note_on_c, 0, 53, 64
3, 14988, Note_off_c, 0, 53, 64
3, 15120, Note_on_c, 0, 58, 64
3, 15312, Note_off_c, 0, 58, 64
3, 15360, Note_on_c, 0, 60, 64
3, 15468, Note_off_c, 0, 60, 64
3, 15600, Note_on_c, 0, 62, 64
3, 15708, Note_off_c, 0, 62, 64
3, 15840, Note_on_c, 0, 55, 64
3, 16032, Note_off_c, 0, 55, 64
3, 16080, Note_on_c, 0, 59, 64
3, 16188, Note_off_c, 0, 59, 64
3, 16320, Note_on_c, 0, 55, 64
3, 16428, Note_off_c, 0, 55, 64
3, 16560, Note_on_c, 0, 60, 64
3, 16752, Note_off_c, 0, 60, 64
3, 16800, Note_on_c, 0, 62, 64
3, 16908, Note_off_c, 0, 62, 64
3, 17040, Note_on_c, 0, 64, 64
3, 17148, Note_off_c, 0, 64, 64
3, 17280, Note_on_c, 0, 53, 64
3, 17280, Note_on_c, 0, 53, 64
3, 17472, Note_off_c, 0, 53, 64
3, 17472, Note_off_c, 0, 53, 64
3, 17520, Note_on_c, 0, 57, 64
3, 17520, Note_on_c, 0, 57, 64
3, 17628, Note_off_c, 0, 57, 64
3, 17712, Note_off_c, 0, 57, 64
3, 17760, Note_on_c, 0, 53, 64
3, 17868, Note_off_c, 0, 53, 64
3, 18000, Note_on_c, 0, 52, 64
3, 18192, Note_off_c, 0, 52, 64
3, 18240, Note_on_c, 0, 48, 64
3, 18348, Note_off_c, 0, 48, 64
3, 18480, Note_on_c, 0, 53, 64
3, 18588, Note_off_c, 0, 53, 64
3, 18720, Note_on_c, 0, 41, 64
3, 18912, Note_off_c, 0, 41, 64
3, 18960, Note_on_c, 0, 45, 64
3, 19068, Note_off_c, 0, 45, 64
3, 19200, Note_on_c, 0, 41, 64
3, 19308, Note_off_c, 0, 41, 64
3, 19440, Note_on_c, 0, 40, 64
3, 19632, Note_off_c, 0, 40, 64
3, 19680, Note_on_c, 0, 36, 64
3, 19788, Note_off_c, 0, 36, 64
3, 19920, Note_on_c, 0, 41, 64
3, 20028, Note_off_c, 0, 41, 64
3, 20160, Note_on_c, 0, 48, 64
3, 20544, Note_off_c, 0, 48, 64
3, 20640, Note_on_c, 0, 46, 64
3, 20832, Note_off_c, 0, 46, 64
3, 20880, Note_on_c, 0, 45, 64
3, 21204, Note_off_c, 0, 45, 64
3, 21600, Note_on_c, 0, 60, 64
3, 21984, Note_off_c, 0, 60, 64
3, 22080, Note_on_c, 0, 58, 64
3, 22272, Note_off_c, 0, 58, 64
3, 22320, Note_on_c, 0, 57, 64
3, 22896, Note_off_c, 0, 57, 64
3, 23040, Note_on_c, 0, 58, 64
3, 23232, Note_off_c, 0, 58, 64
3, 23280, Note_on_c, 0, 60, 64
3, 23388, Note_off_c, 0, 60, 64
3, 23520, Note_on_c, 0, 48, 64
3, 23628, Note_off_c, 0, 48, 64
3, 23760, Note_on_c, 0, 53, 64
3, 23952, Note_off_c, 0, 53, 64
3, 24000, Note_on_c, 0, 48, 64
3, 24108, Note_off_c, 0, 48, 64
3, 24240, Note_on_c, 0, 41, 64
3, 24348, Note_off_c, 0, 41, 64
3, 24480, Note_on_c, 0, 53, 64
3, 24672, Note_off_c, 0, 53, 64
3, 24720, Note_on_c, 0, 57, 64
3, 24828, Note_off_c, 0, 57, 64
3, 24960, Note_on_c, 0, 53, 64
3, 25068, Note_off_c, 0, 53, 64
3, 25200, Note_on_c, 0, 58, 64
3, 25392, Note_off_c, 0, 58, 64
3, 25440, Note_on_c, 0, 60, 64
3, 25548, Note_off_c, 0, 60, 64
3, 25680, Note_on_c, 0, 62, 64
3, 25788, Note_off_c, 0, 62, 64
3, 25920, Note_on_c, 0, 55, 64
3, 26112, Note_off_c, 0, 55, 64
3, 26160, Note_on_c, 0, 59, 64
3, 26268, Note_off_c, 0, 59, 64
3, 26400, Note_on_c, 0, 55, 64
3, 26508, Note_off_c, 0, 55, 64
3, 26640, Note_on_c, 0, 60, 64
3, 26832, Note_off_c, 0, 60, 64
3, 26880, Note_on_c, 0, 62, 64
3, 26988, Note_off_c, 0, 62, 64
3, 27120, Note_on_c, 0, 64, 64
3, 27228, Note_off_c, 0, 64, 64
3, 27360, Note_on_c, 0, 53, 64
3, 27360, Note_on_c, 0, 53, 64
3, 27552, Note_off_c, 0, 53, 64
3, 27552, Note_off_c, 0, 53, 64
3, 27600, Note_on_c, 0, 57, 64
3, 27600, Note_on_c, 0, 57, 64
3, 27708, Note_off_c, 0, 57, 64
3, 27792, Note_off_c, 0, 57, 64
3, 27840, Note_on_c, 0, 53, 64
3, 27948, Note_off_c, 0, 53, 64
3, 28080, Note_on_c, 0, 52, 64
3, 28272, Note_off_c, 0, 52, 64
3, 28320, Note_on_c, 0, 48, 64
3, 28428, Note_off_c, 0, 48, 64
3, 28560, Note_on_c, 0, 53, 64
3, 28668, Note_off_c, 0, 53, 64
3, 28800, Note_on_c, 0, 41, 64
3, 28992, Note_off_c, 0, 41, 64
3, 29040, Note_on_c, 0, 45, 64
3, 29148, Note_off_c, 0, 45, 64
3, 29280, Note_on_c, 0, 41, 64
3, 29388, Note_off_c, 0, 41, 64
3, 29520, Note_on_c, 0, 40, 64
3, 29712, Note_off_c, 0, 40, 64
3, 29760, Note_on_c, 0, 36, 64
3, 29868, Note_off_c, 0, 36, 64
3, 30000, Note_on_c, 0, 41, 64
3, 30108, Note_off_c, 0, 41, 64
3, 30240, Note_on_c, 0, 48, 64
3, 30624, Note_off_c, 0, 48, 64
3, 30720, Note_on_c, 0, 46, 64
3, 30912, Note_off_c, 0, 46, 64
3, 30960, Note_on_c, 0, 45, 64
3, 31536, Note_off_c, 0, 45, 64
3, 31680, Note_on_c, 0, 60, 64
3, 32064, Note_off_c, 0, 60, 64
3, 32160, Note_on_c, 0, 58, 64
3, 32352, Note_off_c, 0, 58, 64
3, 32400, Note_on_c, 0, 57, 64
3, 32976, Note_off_c, 0, 57, 64
3, 33120, Note_on_c, 0, 58, 64
3, 33312, Note_off_c, 0, 58, 64
3, 33360, Note_on_c, 0, 60, 64
3, 33468, Note_off_c, 0, 60, 64
3, 33600, Note_on_c, 0, 48, 64
3, 33708, Note_off_c, 0, 48, 64
3, 33840, Note_on_c, 0, 53, 64
3, 34032, Note_off_c, 0, 53, 64
3, 34080, Note_on_c, 0, 48, 64
3, 34188, Note_off_c, 0, 48, 64
3, 34320, Note_on_c, 0, 41, 64
3, 34428, Note_off_c, 0, 41, 64
3, 34428, End_track
0, 0, End_of_file