0, 0, Header, 1, 6, 480
1, 0, Start_track
1, 0, Title_t, "Untitled"
1, 0, SMPTE_offset, 96, 0, 0, 0, 0
1, 0, Tempo, 500000
1, 0, Time_signature, 3, 2, 24, 8
1, 0, Key_signature, -1, "major"
1, 0, Marker_t, "Mozart"
1, 1440, Tempo, 352941
1, 1440, Marker_t, "Piano Sonata No.2"
1, 1560, Tempo, 465116
1, 1920, Tempo, 447761
1, 2880, Marker_t, "Bunji Hisamori"
1, 4320, Tempo, 441176
1, 4320, Marker_t, "Feb. 2000,  Rev.1"
1, 5720, Tempo, 444444
1, 7090, Tempo, 465116
1, 7200, Tempo, 444444
1, 8640, Tempo, 441176
1, 9840, Tempo, 500000
1, 9960, Tempo, 271493
1, 10080, Tempo, 441176
1, 12910, Tempo, 444444
1, 14160, Tempo, 540540
1, 14280, Tempo, 271493
1, 14400, Tempo, 441176
1, 17230, Tempo, 444444
1, 18490, Tempo, 500000
1, 18720, Tempo, 441176
1, 21480, Tempo, 444444
1, 21600, Tempo, 441176
1, 22980, Tempo, 444444
1, 24360, Tempo, 454545
1, 24480, Tempo, 441176
1, 25860, Tempo, 444444
1, 25920, Tempo, 441176
1, 27300, Tempo, 444444
1, 27360, Tempo, 441176
1, 28740, Tempo, 444444
1, 28800, Tempo, 441176
1, 30180, Tempo, 444444
1, 30240, Tempo, 441176
1, 31620, Tempo, 444444
1, 33000, Tempo, 465116
1, 33120, Tempo, 447761
1, 35410, Tempo, 454545
1, 37330, Tempo, 461538
1, 37440, Tempo, 480000
1, 38400, Tempo, 500000
1, 38880, Tempo, 441176
1, 40280, Tempo, 454545
1, 40320, Tempo, 441176
1, 43150, Tempo, 444444
1, 44150, Tempo, 454545
1, 44640, Tempo, 441176
1, 46040, Tempo, 447761
1, 46080, Tempo, 441176
1, 48920, Tempo, 444444
1, 49920, Tempo, 454545
1, 50400, Tempo, 441176
1, 51780, Tempo, 444444
1, 53220, Tempo, 454545
1, 53280, Tempo, 441176
1, 54660, Tempo, 444444
1, 56100, Tempo, 454545
1, 56160, Tempo, 441176
1, 57560, Tempo, 447761
1, 57600, Tempo, 441176
1, 58980, Tempo, 444444
1, 59040, Tempo, 441176
1, 60440, Tempo, 454545
1, 60480, Tempo, 444444
1, 61440, Tempo, 447761
1, 61860, Tempo, 454545
1, 61920, Tempo, 441176
1, 63300, Tempo, 444444
1, 63360, Tempo, 441176
1, 64740, Tempo, 444444
1, 64800, Tempo, 441176
1, 66180, Tempo, 444444
1, 66240, Tempo, 441176
1, 67620, Tempo, 454545
1, 67680, Tempo, 444444
1, 68170, Tempo, 447761
1, 69060, Tempo, 454545
1, 69120, Tempo, 441176
1, 70500, Tempo, 444444
1, 70560, Tempo, 441176
1, 71940, Tempo, 444444
1, 72000, Tempo, 441176
1, 73380, Tempo, 444444
1, 73440, Tempo, 441176
1, 75840, Tempo, 600000
1, 75960, Tempo, 447761
1, 76680, Tempo, 461538
1, 76800, Tempo, 447761
1, 77700, Tempo, 454545
1, 77760, Tempo, 447761
1, 79140, Tempo, 454545
1, 79200, Tempo, 447761
1, 80580, Tempo, 454545
1, 80640, Tempo, 461538
1, 81600, Tempo, 600000
1, 82080, Tempo, 441176
1, 83460, Tempo, 447761
1, 83520, Tempo, 454545
1, 84885, Tempo, 454545
1, 84960, Tempo, 441176
1, 86340, Tempo, 447761
1, 86400, Tempo, 454545
1, 87780, Tempo, 465116
1, 87840, Tempo, 352941
1, 87960, Tempo, 472440
1, 88260, Tempo, 461538
1, 89220, Tempo, 465116
1, 89280, Tempo, 461538
1, 90660, Tempo, 465116
1, 90720, Tempo, 461538
1, 92130, Tempo, 465116
1, 92160, Tempo, 472440
1, 92640, Tempo, 465116
1, 93560, Tempo, 472440
1, 93600, Tempo, 480000
1, 94080, Tempo, 472440
1, 94920, Tempo, 480000
1, 95040, Tempo, 500000
1, 96000, Tempo, 535714
1, 96480, Tempo, 441176
1, 97880, Tempo, 454545
1, 97920, Tempo, 441176
1, 99300, Tempo, 447761
1, 99360, Tempo, 331491
1, 99480, Tempo, 454545
1, 99840, Tempo, 441176
1, 100760, Tempo, 447761
1, 100800, Tempo, 441176
1, 102180, Tempo, 447761
1, 102240, Tempo, 331491
1, 102360, Tempo, 454545
1, 102720, Tempo, 441176
1, 103640, Tempo, 447761
1, 103680, Tempo, 441176
1, 105060, Tempo, 447761
1, 105120, Tempo, 331491
1, 105240, Tempo, 454545
1, 105600, Tempo, 441176
1, 106520, Tempo, 447761
1, 106560, Tempo, 441176
1, 107940, Tempo, 461538
1, 108000, Tempo, 298507
1, 108120, Tempo, 461538
1, 108480, Tempo, 441176
1, 109380, Tempo, 461538
1, 109440, Tempo, 298507
1, 109560, Tempo, 461538
1, 109920, Tempo, 441176
1, 110820, Tempo, 461538
1, 110880, Tempo, 298507
1, 111000, Tempo, 508474
1, 111360, Tempo, 447761
1, 111825, Tempo, 487804
1, 112320, Tempo, 441176
1, 115065, Tempo, 461538
1, 115200, Tempo, 444444
1, 116100, Tempo, 447761
1, 117060, Tempo, 454545
1, 117540, Tempo, 461538
1, 118080, Tempo, 472440
1, 118560, Tempo, 526315
1, 118860, Tempo, 560747
1, 119100, Tempo, 1071428
1, 119520, Tempo, 352941
1, 119640, Tempo, 461538
1, 120000, Tempo, 447761
1, 122340, Tempo, 447761
1, 122400, Tempo, 441176
1, 123790, Tempo, 444444
1, 125170, Tempo, 461538
1, 125280, Tempo, 444444
1, 126720, Tempo, 441176
1, 127910, Tempo, 500000
1, 128040, Tempo, 271493
1, 128160, Tempo, 441176
1, 130990, Tempo, 444444
1, 132190, Tempo, 540540
1, 132360, Tempo, 271493
1, 132480, Tempo, 441176
1, 135320, Tempo, 444444
1, 136665, Tempo, 500000
1, 136800, Tempo, 441176
1, 139620, Tempo, 444444
1, 139680, Tempo, 441176
1, 141060, Tempo, 444444
1, 142500, Tempo, 454545
1, 142560, Tempo, 447761
1, 143940, Tempo, 451127
1, 144060, Tempo, 447761
1, 145380, Tempo, 451127
1, 145500, Tempo, 447761
1, 146820, Tempo, 451127
1, 146940, Tempo, 447761
1, 148260, Tempo, 451127
1, 148380, Tempo, 447761
1, 149700, Tempo, 451127
1, 151080, Tempo, 465116
1, 151200, Tempo, 447761
1, 153480, Tempo, 454545
1, 155400, Tempo, 461538
1, 155520, Tempo, 480000
1, 156480, Tempo, 500000
1, 156900, Tempo, 447761
1, 156960, Tempo, 441176
1, 158360, Tempo, 454545
1, 158400, Tempo, 441176
1, 161230, Tempo, 444444
1, 162600, Tempo, 461538
1, 162720, Tempo, 441176
1, 163680, Tempo, 447761
1, 164160, Tempo, 441176
1, 166990, Tempo, 444444
1, 168010, Tempo, 454545
1, 168480, Tempo, 441176
1, 169860, Tempo, 447761
1, 169920, Tempo, 441176
1, 171300, Tempo, 447761
1, 171360, Tempo, 441176
1, 172740, Tempo, 447761
1, 172800, Tempo, 441176
1, 174180, Tempo, 447761
1, 174240, Tempo, 441176
1, 177060, Tempo, 447761
1, 177120, Tempo, 441176
1, 178500, Tempo, 447761
1, 178560, Tempo, 444444
1, 179940, Tempo, 454545
1, 180000, Tempo, 441176
1, 181380, Tempo, 447761
1, 181440, Tempo, 444444
1, 182820, Tempo, 454545
1, 182880, Tempo, 441176
1, 184280, Tempo, 447761
1, 184320, Tempo, 441176
1, 185720, Tempo, 447761
1, 185760, Tempo, 441176
1, 187160, Tempo, 454545
1, 187200, Tempo, 447761
1, 188580, Tempo, 454545
1, 188640, Tempo, 441176
1, 190020, Tempo, 444444
1, 190080, Tempo, 441176
1, 191460, Tempo, 444444
1, 191520, Tempo, 441176
1, 192900, Tempo, 444444
1, 192960, Tempo, 441176
1, 194340, Tempo, 444444
1, 194870, Tempo, 447761
1, 195780, Tempo, 454545
1, 195840, Tempo, 441176
1, 197220, Tempo, 444444
1, 197280, Tempo, 441176
1, 198660, Tempo, 444444
1, 198720, Tempo, 441176
1, 200100, Tempo, 444444
1, 200160, Tempo, 441176
1, 202560, Tempo, 600000
1, 202680, Tempo, 447761
1, 204420, Tempo, 454545
1, 204480, Tempo, 447761
1, 205860, Tempo, 454545
1, 205920, Tempo, 447761
1, 207300, Tempo, 454545
1, 207360, Tempo, 526315
1, 207840, Tempo, 750000
1, 208800, Tempo, 500000
1, 210240, Tempo, 480000
1, 210240, Time_signature, 6, 3, 24, 8
1, 210240, Marker_t, "2"
1, 211680, Tempo, 1714285
1, 213080, Tempo, 1764705
1, 213120, Tempo, 1714285
1, 214510, Tempo, 1764705
1, 214560, Tempo, 1714285
1, 215890, Tempo, 1764705
1, 216000, Tempo, 1714285
1, 217400, Tempo, 1764705
1, 217440, Tempo, 1764705
1, 218760, Tempo, 1818181
1, 218880, Tempo, 1714285
1, 220280, Tempo, 1764705
1, 220320, Tempo, 1714285
1, 220980, Tempo, 1764705
1, 221460, Tempo, 2142857
1, 221700, Tempo, 2222222
1, 221760, Tempo, 2142857
1, 222465, Tempo, 2608695
1, 223200, Tempo, 1764705
1, 224580, Tempo, 1818181
1, 224640, Tempo, 1764705
1, 226020, Tempo, 1818181
1, 226080, Tempo, 1764705
1, 227460, Tempo, 1818181
1, 227520, Tempo, 1764705
1, 228900, Tempo, 1818181
1, 228960, Tempo, 1764705
1, 230340, Tempo, 1818181
1, 230400, Tempo, 1764705
1, 231720, Tempo, 1935483
1, 231840, Tempo, 1764705
1, 233220, Tempo, 1875000
1, 233280, Tempo, 1764705
1, 234600, Tempo, 1875000
1, 234720, Tempo, 1764705
1, 236100, Tempo, 1818181
1, 236160, Tempo, 1764705
1, 237560, Tempo, 1875000
1, 237600, Tempo, 1764705
1, 238980, Tempo, 1818181
1, 239040, Tempo, 1764705
1, 239720, Tempo, 2000000
1, 239760, Tempo, 1764705
1, 240360, Tempo, 1875000
1, 240440, Tempo, 2307692
1, 240480, Tempo, 2000000
1, 240960, Tempo, 1764705
1, 241140, Tempo, 1875000
1, 241180, Tempo, 1764705
1, 241810, Tempo, 1875000
1, 241920, Tempo, 1764705
1, 242580, Tempo, 1875000
1, 242620, Tempo, 2000000
1, 243120, Tempo, 1764705
1, 243300, Tempo, 1875000
1, 243340, Tempo, 1764705
1, 243960, Tempo, 1875000
1, 244080, Tempo, 1818181
1, 244560, Tempo, 1935483
1, 244800, Tempo, 2000000
1, 245520, Tempo, 2608695
1, 246240, Tempo, 1714285
1, 247640, Tempo, 1764705
1, 247680, Tempo, 1714285
1, 248990, Tempo, 1764705
1, 249120, Tempo, 1714285
1, 250440, Tempo, 1764705
1, 250560, Tempo, 1714285
1, 251960, Tempo, 1764705
1, 252000, Tempo, 1764705
1, 253310, Tempo, 1764705
1, 253440, Tempo, 1714285
1, 254840, Tempo, 1764705
1, 254880, Tempo, 1714285
1, 255540, Tempo, 1764705
1, 256030, Tempo, 2142857
1, 256280, Tempo, 2222222
1, 256320, Tempo, 2142857
1, 257040, Tempo, 2608695
1, 257760, Tempo, 1764705
1, 259140, Tempo, 1818181
1, 259200, Tempo, 1764705
1, 260580, Tempo, 1818181
1, 260640, Tempo, 1764705
1, 262020, Tempo, 1875000
1, 262080, Tempo, 1764705
1, 263400, Tempo, 1875000
1, 263520, Tempo, 1764705
1, 264900, Tempo, 1875000
1, 264960, Tempo, 1764705
1, 266280, Tempo, 1935483
1, 266400, Tempo, 1764705
1, 267780, Tempo, 1875000
1, 267840, Tempo, 1764705
1, 269160, Tempo, 1875000
1, 269280, Tempo, 1764705
1, 270660, Tempo, 1818181
1, 270720, Tempo, 1764705
1, 272120, Tempo, 1875000
1, 272160, Tempo, 1764705
1, 273540, Tempo, 1875000
1, 273600, Tempo, 1764705
1, 274280, Tempo, 2000000
1, 274320, Tempo, 1764705
1, 274930, Tempo, 1875000
1, 275000, Tempo, 2000000
1, 275040, Tempo, 2000000
1, 275520, Tempo, 1764705
1, 275700, Tempo, 1875000
1, 275740, Tempo, 1764705
1, 276370, Tempo, 1875000
1, 276480, Tempo, 1764705
1, 277140, Tempo, 1875000
1, 277180, Tempo, 2000000
1, 277680, Tempo, 1764705
1, 277860, Tempo, 1875000
1, 277900, Tempo, 1764705
1, 278520, Tempo, 1875000
1, 278640, Tempo, 1818181
1, 279120, Tempo, 1935483
1, 279240, Tempo, 2068965
1, 279360, Tempo, 2000000
1, 280080, Tempo, 2400000
1, 280800, Tempo, 1621621
1, 282120, Tempo, 1818181
1, 282240, Tempo, 1621621
1, 283620, Tempo, 1714285
1, 283680, Tempo, 1666666
1, 285040, Tempo, 1764705
1, 285120, Tempo, 1621621
1, 285840, Tempo, 1034482
1, 285920, Tempo, 1071428
1, 285960, Tempo, 2307692
1, 286510, Tempo, 1714285
1, 286560, Tempo, 1714285
1, 286680, Tempo, 1621621
1, 287220, Tempo, 1714285
1, 287400, Tempo, 1621621
1, 287940, Tempo, 1714285
1, 288120, Tempo, 1621621
1, 288665, Tempo, 1714285
1, 288840, Tempo, 1621621
1, 289380, Tempo, 1714285
1, 289500, Tempo, 1714285
1, 290220, Tempo, 1764705
1, 290610, Tempo, 1875000
1, 290840, Tempo, 2000000
1, 291540, Tempo, 2307692
1, 291950, Tempo, 2727272
1, 292320, Tempo, 1714285
1, 293720, Tempo, 1764705
1, 293760, Tempo, 1714285
1, 295150, Tempo, 1764705
1, 295200, Tempo, 1714285
1, 296530, Tempo, 1764705
1, 296640, Tempo, 1714285
1, 297440, Tempo, 1764705
1, 297930, Tempo, 2400000
1, 298080, Tempo, 1764705
1, 299400, Tempo, 1764705
1, 299520, Tempo, 1714285
1, 300920, Tempo, 1764705
1, 300960, Tempo, 1714285
1, 301620, Tempo, 1764705
1, 302100, Tempo, 1875000
1, 302400, Tempo, 1875000
1, 304500, Tempo, 2000000
1, 304980, Tempo, 2307692
1, 305220, Tempo, 2500000
1, 305280, Tempo, 2222222
1, 306000, Tempo, 2500000
1, 306720, Tempo, 1764705
1, 308040, Tempo, 1875000
1, 308160, Tempo, 1764705
1, 309540, Tempo, 1875000
1, 309600, Tempo, 1764705
1, 310980, Tempo, 1875000
1, 311040, Tempo, 1764705
1, 312375, Tempo, 1875000
1, 312480, Tempo, 1764705
1, 313860, Tempo, 1875000
1, 313920, Tempo, 1764705
1, 315210, Tempo, 2000000
1, 315360, Tempo, 1764705
1, 316740, Tempo, 1875000
1, 316800, Tempo, 1764705
1, 318135, Tempo, 2000000
1, 318240, Tempo, 1764705
1, 321015, Tempo, 1875000
1, 321120, Tempo, 1764705
1, 322500, Tempo, 1875000
1, 322560, Tempo, 1764705
1, 323220, Tempo, 1875000
1, 323280, Tempo, 1764705
1, 323940, Tempo, 1875000
1, 324000, Tempo, 1764705
1, 324660, Tempo, 1875000
1, 324720, Tempo, 1764705
1, 325380, Tempo, 2000000
1, 325440, Tempo, 1875000
1, 325880, Tempo, 2000000
1, 326000, Tempo, 2500000
1, 326160, Tempo, 1875000
1, 326760, Tempo, 2142857
1, 326840, Tempo, 2608695
1, 326880, Tempo, 2000000
1, 327360, Tempo, 1764705
1, 327540, Tempo, 1875000
1, 327580, Tempo, 2000000
1, 328080, Tempo, 1875000
1, 328320, Tempo, 2000000
1, 328980, Tempo, 1875000
1, 329020, Tempo, 2000000
1, 329520, Tempo, 1764705
1, 329700, Tempo, 1875000
1, 329740, Tempo, 1764705
1, 329760, Tempo, 2000000
1, 330230, Tempo, 2307692
1, 331005, Tempo, 2727272
1, 332640, Tempo, 500000
1, 332640, Marker_t, "3"
1, 334080, Tempo, 400000
1, 334080, Time_signature, 3, 3, 24, 8
1, 334560, Tempo, 400000
1, 337620, Tempo, 402684
1, 337680, Tempo, 400000
1, 343380, Tempo, 402684
1, 343440, Tempo, 400000
1, 345060, Tempo, 402684
1, 345120, Tempo, 400000
1, 345474, Tempo, 402684
1, 346260, Tempo, 408163
1, 349140, Tempo, 413793
1, 349200, Tempo, 408163
1, 352020, Tempo, 413793
1, 352080, Tempo, 400000
1, 354930, Tempo, 402684
1, 355020, Tempo, 400000
1, 356400, Tempo, 402684
1, 357120, Tempo, 394736
1, 357770, Tempo, 400000
1, 357840, Tempo, 394736
1, 358520, Tempo, 400000
1, 358560, Tempo, 394736
1, 359260, Tempo, 400000
1, 359280, Tempo, 394736
1, 359960, Tempo, 400000
1, 360000, Tempo, 394736
1, 360480, Tempo, 419580
1, 360930, Tempo, 895522
1, 361440, Tempo, 400000
1, 362280, Tempo, 487804
1, 362520, Tempo, 400000
1, 362820, Tempo, 402684
1, 362880, Tempo, 400000
1, 363720, Tempo, 487804
1, 363960, Tempo, 400000
1, 364260, Tempo, 413793
1, 364320, Tempo, 400000
1, 369300, Tempo, 402684
1, 369954, Tempo, 408163
1, 370080, Tempo, 400000
1, 370920, Tempo, 487804
1, 371160, Tempo, 400000
1, 371460, Tempo, 402684
1, 371520, Tempo, 400000
1, 372360, Tempo, 487804
1, 372600, Tempo, 400000
1, 372906, Tempo, 413793
1, 372960, Tempo, 400000
1, 375780, Tempo, 402684
1, 375840, Tempo, 400000
1, 378660, Tempo, 402684
1, 378720, Tempo, 400000
1, 381540, Tempo, 402684
1, 381600, Tempo, 400000
1, 385875, Tempo, 402684
1, 385980, Tempo, 400000
1, 388740, Tempo, 402684
1, 389280, Tempo, 413793
1, 389520, Tempo, 461538
1, 389760, Tempo, 659340
1, 390000, Tempo, 400000
1, 393060, Tempo, 402684
1, 393120, Tempo, 400000
1, 398820, Tempo, 402684
1, 398880, Tempo, 400000
1, 400500, Tempo, 402684
1, 400560, Tempo, 400000
1, 400914, Tempo, 402684
1, 401700, Tempo, 408163
1, 404580, Tempo, 413793
1, 404640, Tempo, 408163
1, 407460, Tempo, 413793
1, 407520, Tempo, 400000
1, 410370, Tempo, 402684
1, 410460, Tempo, 400000
1, 411840, Tempo, 402684
1, 412560, Tempo, 394736
1, 413210, Tempo, 400000
1, 413280, Tempo, 394736
1, 413960, Tempo, 400000
1, 414000, Tempo, 394736
1, 414700, Tempo, 400000
1, 414720, Tempo, 394736
1, 415400, Tempo, 400000
1, 415440, Tempo, 394736
1, 415920, Tempo, 419580
1, 416370, Tempo, 895522
1, 416880, Tempo, 400000
1, 417720, Tempo, 487804
1, 417960, Tempo, 400000
1, 418260, Tempo, 402684
1, 418320, Tempo, 400000
1, 419160, Tempo, 487804
1, 419400, Tempo, 400000
1, 419700, Tempo, 413793
1, 419760, Tempo, 400000
1, 424740, Tempo, 402684
1, 425394, Tempo, 408163
1, 425520, Tempo, 400000
1, 426360, Tempo, 487804
1, 426600, Tempo, 400000
1, 426900, Tempo, 402684
1, 426960, Tempo, 400000
1, 427800, Tempo, 487804
1, 428040, Tempo, 400000
1, 428346, Tempo, 413793
1, 428400, Tempo, 400000
1, 431220, Tempo, 402684
1, 431280, Tempo, 400000
1, 434100, Tempo, 402684
1, 434160, Tempo, 400000
1, 436980, Tempo, 402684
1, 437040, Tempo, 400000
1, 441315, Tempo, 402684
1, 441420, Tempo, 400000
1, 444180, Tempo, 402684
1, 444720, Tempo, 413793
1, 444960, Tempo, 461538
1, 445200, Tempo, 600000
1, 445680, Tempo, 400000
1, 446520, Tempo, 487804
1, 446760, Tempo, 400000
1, 447060, Tempo, 413793
1, 447120, Tempo, 400000
1, 447960, Tempo, 487804
1, 448200, Tempo, 400000
1, 448500, Tempo, 428571
1, 448560, Tempo, 413793
1, 451200, Tempo, 413793
1, 451440, Tempo, 400000
1, 452280, Tempo, 487804
1, 452520, Tempo, 400000
1, 452820, Tempo, 413793
1, 452880, Tempo, 400000
1, 453720, Tempo, 487804
1, 453960, Tempo, 400000
1, 454260, Tempo, 428571
1, 454320, Tempo, 413793
1, 457140, Tempo, 419580
1, 457200, Tempo, 413793
1, 460020, Tempo, 413793
1, 460080, Tempo, 400000
1, 462900, Tempo, 428571
1, 462960, Tempo, 402684
1, 463620, Tempo, 408163
1, 463680, Tempo, 402684
1, 464340, Tempo, 408163
1, 464400, Tempo, 402684
1, 465060, Tempo, 434782
1, 465120, Tempo, 402684
1, 465800, Tempo, 408163
1, 465840, Tempo, 500000
1, 466005, Tempo, 1935483
1, 466320, Tempo, 400000
1, 469380, Tempo, 402684
1, 469440, Tempo, 400000
1, 475140, Tempo, 402684
1, 475200, Tempo, 400000
1, 476820, Tempo, 402684
1, 476880, Tempo, 400000
1, 477300, Tempo, 402684
1, 480900, Tempo, 408163
1, 480960, Tempo, 402684
1, 483780, Tempo, 402684
1, 483840, Tempo, 400000
1, 486660, Tempo, 402684
1, 486720, Tempo, 400000
1, 489570, Tempo, 402684
1, 489660, Tempo, 400000
1, 491040, Tempo, 402684
1, 491715, Tempo, 400000
1, 491760, Tempo, 394736
1, 492460, Tempo, 400000
1, 492480, Tempo, 394736
1, 493160, Tempo, 400000
1, 493200, Tempo, 394736
1, 493880, Tempo, 400000
1, 493920, Tempo, 394736
1, 494600, Tempo, 400000
1, 494640, Tempo, 394736
1, 495100, Tempo, 428571
1, 495630, Tempo, 923076
1, 496080, Tempo, 400000
1, 496920, Tempo, 487804
1, 497160, Tempo, 400000
1, 497460, Tempo, 413793
1, 497520, Tempo, 400000
1, 498360, Tempo, 487804
1, 498600, Tempo, 400000
1, 498900, Tempo, 413793
1, 498960, Tempo, 400000
1, 503940, Tempo, 402684
1, 504615, Tempo, 408163
1, 504720, Tempo, 400000
1, 505560, Tempo, 487804
1, 505800, Tempo, 400000
1, 506100, Tempo, 413793
1, 506160, Tempo, 400000
1, 507000, Tempo, 487804
1, 507240, Tempo, 400000
1, 507540, Tempo, 413793
1, 507600, Tempo, 400000
1, 510420, Tempo, 402684
1, 510480, Tempo, 400000
1, 513300, Tempo, 402684
1, 513360, Tempo, 400000
1, 516180, Tempo, 402684
1, 516240, Tempo, 400000
1, 520515, Tempo, 402684
1, 520620, Tempo, 400000
1, 523380, Tempo, 402684
1, 524820, Tempo, 419580
1, 524880, Tempo, 461538
1, 525120, Tempo, 434782
1, 525360, Tempo, 638297
1, 525600, Tempo, 869565
1, 526320, End_track
2, 0, Start_track
2, 0, Instrument_name_t, "Roland Serial MIDI Out Port A"
2, 0, Title_t, "Unnamed Track"
2, 0, Control_c, 1, 64, 0
2, 0, Control_c, 1, 7, 127
2, 0, Control_c, 1, 10, 73
2, 0, Control_c, 1, 0, 0
2, 0, Control_c, 1, 32, 0
2, 0, Program_c, 1, 0
2, 0, Control_c, 1, 1, 0
2, 0, Pitch_bend_c, 1, 8192
2, 0, Pitch_bend_c, 1, 8192
2, 0, Control_c, 1, 93, 28
2, 0, Control_c, 1, 91, 100
2, 1560, Note_on_c, 1, 72, 64
2, 1745, Note_off_c, 1, 72, 0
2, 1920, Note_on_c, 1, 72, 66
2, 2220, Note_off_c, 1, 72, 0
2, 2400, Note_on_c, 1, 72, 68
2, 2705, Note_off_c, 1, 72, 0
2, 2880, Note_on_c, 1, 72, 71
2, 3600, Note_on_c, 1, 74, 68
2, 3605, Note_off_c, 1, 72, 0
2, 3695, Note_off_c, 1, 74, 0
2, 3720, Note_on_c, 1, 72, 68
2, 3815, Note_off_c, 1, 72, 0
2, 3840, Note_on_c, 1, 69, 67
2, 3880, Note_on_c, 1, 72, 67
2, 3900, Note_off_c, 1, 69, 0
2, 3920, Note_on_c, 1, 70, 67
2, 3933, Note_off_c, 1, 72, 0
2, 3960, Note_on_c, 1, 69, 67
2, 3978, Note_off_c, 1, 70, 0
2, 4055, Note_off_c, 1, 69, 0
2, 4080, Note_on_c, 1, 67, 66
2, 4175, Note_off_c, 1, 67, 0
2, 4200, Note_on_c, 1, 65, 66
2, 4295, Note_off_c, 1, 65, 0
2, 4320, Note_on_c, 1, 77, 65
2, 4800, Note_off_c, 1, 77, 0
2, 4800, Note_on_c, 1, 76, 63
2, 5280, Note_off_c, 1, 76, 0
2, 5280, Note_on_c, 1, 75, 61
2, 5760, Note_off_c, 1, 75, 0
2, 5760, Note_on_c, 1, 74, 58
2, 6240, Note_off_c, 1, 74, 0
2, 7200, Note_on_c, 1, 72, 41
2, 7440, Note_off_c, 1, 72, 0
2, 7440, Note_on_c, 1, 70, 44
2, 7630, Note_off_c, 1, 70, 0
2, 7680, Note_on_c, 1, 70, 47
2, 7990, Note_off_c, 1, 70, 0
2, 8640, Note_on_c, 1, 74, 60
2, 8880, Note_off_c, 1, 74, 0
2, 8880, Note_on_c, 1, 72, 63
2, 9070, Note_off_c, 1, 72, 0
2, 9120, Note_on_c, 1, 72, 66
2, 9430, Note_off_c, 1, 72, 0
2, 10080, Note_on_c, 1, 82, 86
2, 10200, Note_off_c, 1, 82, 0
2, 10200, Note_on_c, 1, 81, 85
2, 10320, Note_off_c, 1, 81, 0
2, 10320, Note_on_c, 1, 79, 85
2, 10440, Note_off_c, 1, 79, 0
2, 10440, Note_on_c, 1, 81, 84
2, 10560, Note_off_c, 1, 81, 0
2, 10560, Note_on_c, 1, 79, 84
2, 10680, Note_off_c, 1, 79, 0
2, 10680, Note_on_c, 1, 77, 83
2, 10800, Note_off_c, 1, 77, 0
2, 10800, Note_on_c, 1, 76, 83
2, 10920, Note_off_c, 1, 76, 0
2, 10920, Note_on_c, 1, 77, 82
2, 11040, Note_off_c, 1, 77, 0
2, 11040, Note_on_c, 1, 76, 81
2, 11160, Note_off_c, 1, 76, 0
2, 11160, Note_on_c, 1, 74, 81
2, 11280, Note_off_c, 1, 74, 0
2, 11280, Note_on_c, 1, 72, 80
2, 11400, Note_off_c, 1, 72, 0
2, 11400, Note_on_c, 1, 70, 80
2, 11520, Note_off_c, 1, 70, 0
2, 11520, Note_on_c, 1, 69, 79
2, 11760, Note_off_c, 1, 69, 0
2, 11760, Note_on_c, 1, 77, 78
2, 12240, Note_off_c, 1, 77, 0
2, 12240, Note_on_c, 1, 76, 76
2, 12720, Note_off_c, 1, 76, 0
2, 12720, Note_on_c, 1, 77, 74
2, 12960, Note_off_c, 1, 77, 0
2, 13200, Note_on_c, 1, 74, 72
2, 13392, Note_off_c, 1, 74, 0
2, 13680, Note_on_c, 1, 67, 70
2, 13872, Note_off_c, 1, 67, 0
2, 14160, Note_on_c, 1, 64, 68
2, 14317, Note_off_c, 1, 64, 0
2, 14400, Note_on_c, 1, 82, 74
2, 14520, Note_off_c, 1, 82, 0
2, 14520, Note_on_c, 1, 81, 75
2, 14640, Note_off_c, 1, 81, 0
2, 14640, Note_on_c, 1, 79, 75
2, 14760, Note_off_c, 1, 79, 0
2, 14760, Note_on_c, 1, 81, 74
2, 14880, Note_off_c, 1, 81, 0
2, 14880, Note_on_c, 1, 79, 74
2, 15000, Note_off_c, 1, 79, 0
2, 15000, Note_on_c, 1, 77, 73
2, 15120, Note_off_c, 1, 77, 0
2, 15120, Note_on_c, 1, 76, 73
2, 15240, Note_off_c, 1, 76, 0
2, 15240, Note_on_c, 1, 77, 72
2, 15360, Note_off_c, 1, 77, 0
2, 15360, Note_on_c, 1, 76, 71
2, 15480, Note_off_c, 1, 76, 0
2, 15480, Note_on_c, 1, 74, 71
2, 15600, Note_off_c, 1, 74, 0
2, 15600, Note_on_c, 1, 72, 70
2, 15720, Note_off_c, 1, 72, 0
2, 15720, Note_on_c, 1, 70, 70
2, 15840, Note_off_c, 1, 70, 0
2, 15840, Note_on_c, 1, 69, 69
2, 16080, Note_off_c, 1, 69, 0
2, 16080, Note_on_c, 1, 81, 68
2, 16560, Note_off_c, 1, 81, 0
2, 16560, Note_on_c, 1, 79, 66
2, 17040, Note_off_c, 1, 79, 0
2, 17040, Note_on_c, 1, 77, 64
2, 17280, Note_off_c, 1, 77, 0
2, 17520, Note_on_c, 1, 74, 63
2, 17712, Note_off_c, 1, 74, 0
2, 18000, Note_on_c, 1, 67, 60
2, 18192, Note_off_c, 1, 67, 0
2, 18480, Note_on_c, 1, 64, 56
2, 18672, Note_off_c, 1, 64, 0
2, 18720, Note_on_c, 1, 57, 56
2, 18864, Note_off_c, 1, 57, 0
2, 18880, Note_on_c, 1, 65, 57
2, 19024, Note_off_c, 1, 65, 0
2, 19040, Note_on_c, 1, 60, 57
2, 19184, Note_off_c, 1, 60, 0
2, 19200, Note_on_c, 1, 69, 58
2, 19344, Note_off_c, 1, 69, 0
2, 19360, Note_on_c, 1, 65, 58
2, 19504, Note_off_c, 1, 65, 0
2, 19520, Note_on_c, 1, 60, 59
2, 19664, Note_off_c, 1, 60, 0
2, 19680, Note_on_c, 1, 58, 59
2, 19822, Note_off_c, 1, 58, 0
2, 19840, Note_on_c, 1, 67, 60
2, 19982, Note_off_c, 1, 67, 0
2, 20000, Note_on_c, 1, 64, 60
2, 20140, Note_off_c, 1, 64, 0
2, 20160, Note_on_c, 1, 65, 61
2, 20302, Note_off_c, 1, 65, 0
2, 20320, Note_on_c, 1, 57, 61
2, 20462, Note_off_c, 1, 57, 0
2, 20480, Note_on_c, 1, 60, 62
2, 20622, Note_off_c, 1, 60, 0
2, 20640, Note_on_c, 1, 67, 62
2, 20782, Note_off_c, 1, 67, 0
2, 20800, Note_on_c, 1, 60, 63
2, 20942, Note_off_c, 1, 60, 0
2, 20960, Note_on_c, 1, 64, 63
2, 21102, Note_off_c, 1, 64, 0
2, 21120, Note_on_c, 1, 69, 64
2, 21262, Note_off_c, 1, 69, 0
2, 21280, Note_on_c, 1, 60, 64
2, 21422, Note_off_c, 1, 60, 0
2, 21440, Note_on_c, 1, 65, 65
2, 21585, Note_off_c, 1, 65, 0
2, 21600, Note_on_c, 1, 60, 65
2, 21744, Note_off_c, 1, 60, 0
2, 21760, Note_on_c, 1, 67, 66
2, 21904, Note_off_c, 1, 67, 0
2, 21920, Note_on_c, 1, 64, 67
2, 22064, Note_off_c, 1, 64, 0
2, 22080, Note_on_c, 1, 70, 67
2, 22224, Note_off_c, 1, 70, 0
2, 22240, Note_on_c, 1, 67, 68
2, 22384, Note_off_c, 1, 67, 0
2, 22400, Note_on_c, 1, 64, 68
2, 22544, Note_off_c, 1, 64, 0
2, 22560, Note_on_c, 1, 60, 69
2, 22704, Note_off_c, 1, 60, 0
2, 22720, Note_on_c, 1, 69, 69
2, 22864, Note_off_c, 1, 69, 0
2, 22880, Note_on_c, 1, 65, 70
2, 23035, Note_off_c, 1, 65, 0
2, 23040, Note_on_c, 1, 67, 70
2, 23184, Note_off_c, 1, 67, 0
2, 23200, Note_on_c, 1, 60, 71
2, 23344, Note_off_c, 1, 60, 0
2, 23360, Note_on_c, 1, 64, 71
2, 23504, Note_off_c, 1, 64, 0
2, 23520, Note_on_c, 1, 69, 72
2, 23664, Note_off_c, 1, 69, 0
2, 23680, Note_on_c, 1, 60, 72
2, 23824, Note_off_c, 1, 60, 0
2, 23840, Note_on_c, 1, 65, 73
2, 23984, Note_off_c, 1, 65, 0
2, 24000, Note_on_c, 1, 70, 73
2, 24144, Note_off_c, 1, 70, 0
2, 24160, Note_on_c, 1, 60, 74
2, 24304, Note_off_c, 1, 60, 0
2, 24320, Note_on_c, 1, 67, 74
2, 24465, Note_off_c, 1, 67, 0
2, 24480, Note_on_c, 1, 69, 75
2, 24624, Note_off_c, 1, 69, 0
2, 24640, Note_on_c, 1, 72, 75
2, 24784, Note_off_c, 1, 72, 0
2, 24800, Note_on_c, 1, 77, 76
2, 24944, Note_off_c, 1, 77, 0
2, 24960, Note_on_c, 1, 81, 77
2, 25104, Note_off_c, 1, 81, 0
2, 25120, Note_on_c, 1, 77, 77
2, 25264, Note_off_c, 1, 77, 0
2, 25280, Note_on_c, 1, 74, 78
2, 25424, Note_off_c, 1, 74, 0
2, 25440, Note_on_c, 1, 72, 78
2, 25584, Note_off_c, 1, 72, 0
2, 25600, Note_on_c, 1, 77, 79
2, 25744, Note_off_c, 1, 77, 0
2, 25760, Note_on_c, 1, 81, 79
2, 25910, Note_off_c, 1, 81, 0
2, 25920, Note_on_c, 1, 80, 81
2, 26064, Note_off_c, 1, 80, 0
2, 26080, Note_on_c, 1, 74, 80
2, 26224, Note_off_c, 1, 74, 0
2, 26240, Note_on_c, 1, 71, 79
2, 26384, Note_off_c, 1, 71, 0
2, 26400, Note_on_c, 1, 72, 79
2, 26544, Note_off_c, 1, 72, 0
2, 26560, Note_on_c, 1, 76, 78
2, 26704, Note_off_c, 1, 76, 0
2, 26720, Note_on_c, 1, 79, 77
2, 26864, Note_off_c, 1, 79, 0
2, 26880, Note_on_c, 1, 75, 76
2, 27024, Note_off_c, 1, 75, 0
2, 27040, Note_on_c, 1, 72, 76
2, 27184, Note_off_c, 1, 72, 0
2, 27200, Note_on_c, 1, 70, 75
2, 27345, Note_off_c, 1, 70, 0
2, 27360, Note_on_c, 1, 69, 74
2, 27504, Note_off_c, 1, 69, 0
2, 27520, Note_on_c, 1, 72, 73
2, 27664, Note_off_c, 1, 72, 0
2, 27680, Note_on_c, 1, 78, 73
2, 27824, Note_off_c, 1, 78, 0
2, 27840, Note_on_c, 1, 77, 72
2, 27984, Note_off_c, 1, 77, 0
2, 28000, Note_on_c, 1, 74, 71
2, 28144, Note_off_c, 1, 74, 0
2, 28160, Note_on_c, 1, 70, 70
2, 28304, Note_off_c, 1, 70, 0
2, 28320, Note_on_c, 1, 69, 70
2, 28464, Note_off_c, 1, 69, 0
2, 28480, Note_on_c, 1, 74, 69
2, 28624, Note_off_c, 1, 74, 0
2, 28640, Note_on_c, 1, 77, 68
2, 28785, Note_off_c, 1, 77, 0
2, 28800, Note_on_c, 1, 77, 67
2, 28944, Note_off_c, 1, 77, 0
2, 28960, Note_on_c, 1, 71, 67
2, 29104, Note_off_c, 1, 71, 0
2, 29120, Note_on_c, 1, 68, 66
2, 29264, Note_off_c, 1, 68, 0
2, 29280, Note_on_c, 1, 69, 65
2, 29424, Note_off_c, 1, 69, 0
2, 29440, Note_on_c, 1, 73, 64
2, 29584, Note_off_c, 1, 73, 0
2, 29600, Note_on_c, 1, 76, 64
2, 29744, Note_off_c, 1, 76, 0
2, 29760, Note_on_c, 1, 72, 63
2, 29904, Note_off_c, 1, 72, 0
2, 29920, Note_on_c, 1, 69, 62
2, 30064, Note_off_c, 1, 69, 0
2, 30080, Note_on_c, 1, 67, 61
2, 30225, Note_off_c, 1, 67, 0
2, 30240, Note_on_c, 1, 66, 61
2, 30384, Note_off_c, 1, 66, 0
2, 30400, Note_on_c, 1, 69, 60
2, 30544, Note_off_c, 1, 69, 0
2, 30560, Note_on_c, 1, 75, 59
2, 30704, Note_off_c, 1, 75, 0
2, 30720, Note_on_c, 1, 74, 58
2, 30864, Note_off_c, 1, 74, 0
2, 30880, Note_on_c, 1, 71, 58
2, 31024, Note_off_c, 1, 71, 0
2, 31040, Note_on_c, 1, 67, 57
2, 31184, Note_off_c, 1, 67, 0
2, 31200, Note_on_c, 1, 65, 56
2, 31344, Note_off_c, 1, 65, 0
2, 31360, Note_on_c, 1, 70, 55
2, 31504, Note_off_c, 1, 70, 0
2, 31520, Note_on_c, 1, 74, 55
2, 31670, Note_off_c, 1, 74, 0
2, 31680, Note_on_c, 1, 73, 54
2, 31824, Note_off_c, 1, 73, 0
2, 31840, Note_on_c, 1, 67, 53
2, 31984, Note_off_c, 1, 67, 0
2, 32000, Note_on_c, 1, 64, 52
2, 32144, Note_off_c, 1, 64, 0
2, 32160, Note_on_c, 1, 65, 52
2, 32304, Note_off_c, 1, 65, 0
2, 32320, Note_on_c, 1, 69, 51
2, 32464, Note_off_c, 1, 69, 0
2, 32480, Note_on_c, 1, 72, 50
2, 32624, Note_off_c, 1, 72, 0
2, 32640, Note_on_c, 1, 77, 49
2, 32784, Note_off_c, 1, 77, 0
2, 32800, Note_on_c, 1, 72, 49
2, 32944, Note_off_c, 1, 72, 0
2, 32960, Note_on_c, 1, 69, 48
2, 33100, Note_off_c, 1, 69, 0
2, 33120, Note_on_c, 1, 67, 49
2, 33280, Note_off_c, 1, 67, 0
2, 33280, Note_on_c, 1, 70, 50
2, 33440, Note_off_c, 1, 70, 0
2, 33440, Note_on_c, 1, 69, 51
2, 33600, Note_off_c, 1, 69, 0
2, 33600, Note_on_c, 1, 70, 53
2, 33760, Note_off_c, 1, 70, 0
2, 33760, Note_on_c, 1, 74, 54
2, 33920, Note_off_c, 1, 74, 0
2, 33920, Note_on_c, 1, 73, 56
2, 34080, Note_off_c, 1, 73, 0
2, 34080, Note_on_c, 1, 74, 57
2, 34240, Note_off_c, 1, 74, 0
2, 34240, Note_on_c, 1, 79, 59
2, 34400, Note_off_c, 1, 79, 0
2, 34400, Note_on_c, 1, 78, 60
2, 34560, Note_off_c, 1, 78, 0
2, 34560, Note_on_c, 1, 79, 62
2, 34720, Note_off_c, 1, 79, 0
2, 34720, Note_on_c, 1, 82, 63
2, 34880, Note_off_c, 1, 82, 0
2, 34880, Note_on_c, 1, 81, 64
2, 35040, Note_off_c, 1, 81, 0
2, 35040, Note_on_c, 1, 82, 66
2, 35200, Note_off_c, 1, 82, 0
2, 35200, Note_on_c, 1, 86, 67
2, 35360, Note_off_c, 1, 86, 0
2, 35360, Note_on_c, 1, 85, 69
2, 35520, Note_off_c, 1, 85, 0
2, 35520, Note_on_c, 1, 86, 70
2, 35680, Note_off_c, 1, 86, 0
2, 35680, Note_on_c, 1, 82, 72
2, 35840, Note_off_c, 1, 82, 0
2, 35840, Note_on_c, 1, 81, 73
2, 36000, Note_off_c, 1, 81, 0
2, 36000, Note_on_c, 1, 82, 70
2, 36160, Note_off_c, 1, 82, 0
2, 36160, Note_on_c, 1, 79, 68
2, 36320, Note_off_c, 1, 79, 0
2, 36320, Note_on_c, 1, 78, 65
2, 36480, Note_off_c, 1, 78, 0
2, 36480, Note_on_c, 1, 79, 63
2, 36640, Note_off_c, 1, 79, 0
2, 36640, Note_on_c, 1, 74, 60
2, 36800, Note_off_c, 1, 74, 0
2, 36800, Note_on_c, 1, 73, 58
2, 36960, Note_off_c, 1, 73, 0
2, 36960, Note_on_c, 1, 74, 56
2, 37120, Note_off_c, 1, 74, 0
2, 37120, Note_on_c, 1, 70, 53
2, 37280, Note_off_c, 1, 70, 0
2, 37280, Note_on_c, 1, 67, 51
2, 37440, Note_off_c, 1, 67, 0
2, 37440, Note_on_c, 1, 65, 48
2, 37920, Note_off_c, 1, 65, 0
2, 37920, Note_on_c, 1, 64, 41
2, 38230, Note_off_c, 1, 64, 0
2, 40320, Note_on_c, 1, 79, 55
2, 40440, Note_off_c, 1, 79, 0
2, 40440, Note_on_c, 1, 81, 55
2, 40560, Note_off_c, 1, 81, 0
2, 40560, Note_on_c, 1, 79, 54
2, 40680, Note_off_c, 1, 79, 0
2, 40680, Note_on_c, 1, 76, 54
2, 40800, Note_off_c, 1, 76, 0
2, 40800, Note_on_c, 1, 79, 53
2, 40920, Note_off_c, 1, 79, 0
2, 40920, Note_on_c, 1, 81, 53
2, 41040, Note_off_c, 1, 81, 0
2, 41040, Note_on_c, 1, 79, 53
2, 41160, Note_off_c, 1, 79, 0
2, 41160, Note_on_c, 1, 76, 52
2, 41280, Note_off_c, 1, 76, 0
2, 41280, Note_on_c, 1, 77, 52
2, 41400, Note_off_c, 1, 77, 0
2, 41400, Note_on_c, 1, 79, 51
2, 41520, Note_off_c, 1, 79, 0
2, 41520, Note_on_c, 1, 77, 51
2, 41640, Note_off_c, 1, 77, 0
2, 41640, Note_on_c, 1, 74, 51
2, 41760, Note_off_c, 1, 74, 0
2, 41760, Note_on_c, 1, 76, 50
2, 41880, Note_off_c, 1, 76, 0
2, 41880, Note_on_c, 1, 77, 50
2, 42000, Note_off_c, 1, 77, 0
2, 42000, Note_on_c, 1, 76, 49
2, 42120, Note_off_c, 1, 76, 0
2, 42120, Note_on_c, 1, 72, 49
2, 42240, Note_off_c, 1, 72, 0
2, 42240, Note_on_c, 1, 76, 49
2, 42360, Note_off_c, 1, 76, 0
2, 42360, Note_on_c, 1, 77, 48
2, 42480, Note_off_c, 1, 77, 0
2, 42480, Note_on_c, 1, 76, 48
2, 42600, Note_off_c, 1, 76, 0
2, 42600, Note_on_c, 1, 72, 47
2, 42720, Note_off_c, 1, 72, 0
2, 42720, Note_on_c, 1, 74, 47
2, 42840, Note_off_c, 1, 74, 0
2, 42840, Note_on_c, 1, 76, 47
2, 42960, Note_off_c, 1, 76, 0
2, 42960, Note_on_c, 1, 74, 46
2, 43080, Note_off_c, 1, 74, 0
2, 43080, Note_on_c, 1, 71, 46
2, 43200, Note_off_c, 1, 71, 0
2, 43200, Note_on_c, 1, 72, 45
2, 43920, Note_off_c, 1, 72, 0
2, 43920, Note_on_c, 1, 74, 41
2, 44040, Note_off_c, 1, 74, 0
2, 44040, Note_on_c, 1, 76, 40
2, 44160, Note_off_c, 1, 76, 0
2, 44160, Note_on_c, 1, 74, 39
2, 44587, Note_off_c, 1, 74, 0
2, 46080, Note_on_c, 1, 77, 49
2, 46200, Note_off_c, 1, 77, 0
2, 46200, Note_on_c, 1, 79, 48
2, 46320, Note_off_c, 1, 79, 0
2, 46320, Note_on_c, 1, 77, 48
2, 46440, Note_off_c, 1, 77, 0
2, 46440, Note_on_c, 1, 74, 47
2, 46560, Note_off_c, 1, 74, 0
2, 46560, Note_on_c, 1, 77, 47
2, 46680, Note_off_c, 1, 77, 0
2, 46680, Note_on_c, 1, 79, 46
2, 46800, Note_off_c, 1, 79, 0
2, 46800, Note_on_c, 1, 77, 46
2, 46920, Note_off_c, 1, 77, 0
2, 46920, Note_on_c, 1, 74, 45
2, 47040, Note_off_c, 1, 74, 0
2, 47040, Note_on_c, 1, 76, 45
2, 47160, Note_off_c, 1, 76, 0
2, 47160, Note_on_c, 1, 77, 44
2, 47280, Note_off_c, 1, 77, 0
2, 47280, Note_on_c, 1, 76, 44
2, 47400, Note_off_c, 1, 76, 0
2, 47400, Note_on_c, 1, 72, 43
2, 47520, Note_off_c, 1, 72, 0
2, 47520, Note_on_c, 1, 74, 43
2, 47640, Note_off_c, 1, 74, 0
2, 47640, Note_on_c, 1, 76, 42
2, 47760, Note_off_c, 1, 76, 0
2, 47760, Note_on_c, 1, 74, 42
2, 47880, Note_off_c, 1, 74, 0
2, 47880, Note_on_c, 1, 71, 41
2, 48000, Note_off_c, 1, 71, 0
2, 48000, Note_on_c, 1, 74, 41
2, 48120, Note_off_c, 1, 74, 0
2, 48120, Note_on_c, 1, 76, 40
2, 48240, Note_off_c, 1, 76, 0
2, 48240, Note_on_c, 1, 74, 40
2, 48360, Note_off_c, 1, 74, 0
2, 48360, Note_on_c, 1, 71, 39
2, 48480, Note_off_c, 1, 71, 0
2, 48480, Note_on_c, 1, 72, 39
2, 48600, Note_off_c, 1, 72, 0
2, 48600, Note_on_c, 1, 71, 38
2, 48720, Note_off_c, 1, 71, 0
2, 48720, Note_on_c, 1, 72, 38
2, 48840, Note_off_c, 1, 72, 0
2, 48840, Note_on_c, 1, 76, 37
2, 48960, Note_off_c, 1, 76, 0
2, 48960, Note_on_c, 1, 74, 37
2, 49680, Note_off_c, 1, 74, 0
2, 49680, Note_on_c, 1, 76, 31
2, 49800, Note_off_c, 1, 76, 0
2, 49800, Note_on_c, 1, 77, 30
2, 49920, Note_off_c, 1, 77, 0
2, 49920, Note_on_c, 1, 76, 29
2, 50340, Note_off_c, 1, 76, 0
2, 50560, Note_on_c, 1, 79, 50
2, 50665, Note_off_c, 1, 79, 0
2, 50720, Note_on_c, 1, 77, 50
2, 50825, Note_off_c, 1, 77, 0
2, 50880, Note_on_c, 1, 76, 51
2, 50985, Note_off_c, 1, 76, 0
2, 51040, Note_on_c, 1, 79, 51
2, 51145, Note_off_c, 1, 79, 0
2, 51200, Note_on_c, 1, 74, 51
2, 51305, Note_off_c, 1, 74, 0
2, 51360, Note_on_c, 1, 72, 51
2, 51465, Note_off_c, 1, 72, 0
2, 51520, Note_on_c, 1, 79, 52
2, 51625, Note_off_c, 1, 79, 0
2, 51680, Note_on_c, 1, 70, 52
2, 51785, Note_off_c, 1, 70, 0
2, 52000, Note_on_c, 1, 70, 42
2, 52160, Note_off_c, 1, 70, 0
2, 52160, Note_on_c, 1, 68, 43
2, 52320, Note_off_c, 1, 68, 0
2, 52320, Note_on_c, 1, 69, 43
2, 52480, Note_off_c, 1, 69, 0
2, 52480, Note_on_c, 1, 74, 43
2, 52640, Note_off_c, 1, 74, 0
2, 52640, Note_on_c, 1, 73, 44
2, 52800, Note_off_c, 1, 73, 0
2, 52800, Note_on_c, 1, 76, 44
2, 52960, Note_off_c, 1, 76, 0
2, 52960, Note_on_c, 1, 74, 45
2, 53120, Note_off_c, 1, 74, 0
2, 53120, Note_on_c, 1, 77, 45
2, 53280, Note_off_c, 1, 77, 0
2, 53440, Note_on_c, 1, 81, 55
2, 53545, Note_off_c, 1, 81, 0
2, 53600, Note_on_c, 1, 79, 55
2, 53705, Note_off_c, 1, 79, 0
2, 53760, Note_on_c, 1, 78, 56
2, 53865, Note_off_c, 1, 78, 0
2, 53920, Note_on_c, 1, 81, 56
2, 54025, Note_off_c, 1, 81, 0
2, 54080, Note_on_c, 1, 76, 56
2, 54185, Note_off_c, 1, 76, 0
2, 54240, Note_on_c, 1, 74, 56
2, 54345, Note_off_c, 1, 74, 0
2, 54400, Note_on_c, 1, 81, 57
2, 54505, Note_off_c, 1, 81, 0
2, 54560, Note_on_c, 1, 72, 57
2, 54665, Note_off_c, 1, 72, 0
2, 54880, Note_on_c, 1, 72, 47
2, 55040, Note_off_c, 1, 72, 0
2, 55040, Note_on_c, 1, 70, 47
2, 55200, Note_off_c, 1, 70, 0
2, 55200, Note_on_c, 1, 71, 48
2, 55360, Note_off_c, 1, 71, 0
2, 55360, Note_on_c, 1, 76, 48
2, 55520, Note_off_c, 1, 76, 0
2, 55520, Note_on_c, 1, 75, 49
2, 55680, Note_off_c, 1, 75, 0
2, 55680, Note_on_c, 1, 78, 50
2, 55840, Note_off_c, 1, 78, 0
2, 55840, Note_on_c, 1, 76, 50
2, 56000, Note_off_c, 1, 76, 0
2, 56000, Note_on_c, 1, 79, 51
2, 56160, Note_off_c, 1, 79, 0
2, 56320, Note_on_c, 1, 83, 60
2, 56425, Note_off_c, 1, 83, 0
2, 56480, Note_on_c, 1, 81, 60
2, 56585, Note_off_c, 1, 81, 0
2, 56640, Note_on_c, 1, 80, 61
2, 56745, Note_off_c, 1, 80, 0
2, 56800, Note_on_c, 1, 83, 61
2, 56905, Note_off_c, 1, 83, 0
2, 56960, Note_on_c, 1, 77, 61
2, 57065, Note_off_c, 1, 77, 0
2, 57120, Note_on_c, 1, 76, 61
2, 57225, Note_off_c, 1, 76, 0
2, 57280, Note_on_c, 1, 83, 62
2, 57385, Note_off_c, 1, 83, 0
2, 57440, Note_on_c, 1, 74, 62
2, 57545, Note_off_c, 1, 74, 0
2, 57760, Note_on_c, 1, 71, 64
2, 57920, Note_off_c, 1, 71, 0
2, 57920, Note_on_c, 1, 72, 65
2, 58080, Note_off_c, 1, 72, 0
2, 58080, Note_on_c, 1, 77, 65
2, 58240, Note_on_c, 1, 68, 65
2, 58370, Note_off_c, 1, 77, 0
2, 58400, Note_off_c, 1, 68, 0
2, 58400, Note_on_c, 1, 69, 66
2, 58530, Note_off_c, 1, 69, 0
2, 58560, Note_on_c, 1, 76, 66
2, 58720, Note_on_c, 1, 66, 67
2, 58850, Note_off_c, 1, 76, 0
2, 58880, Note_off_c, 1, 66, 0
2, 58880, Note_on_c, 1, 67, 67
2, 59015, Note_off_c, 1, 67, 0
2, 59200, Note_on_c, 1, 73, 68
2, 59360, Note_off_c, 1, 73, 0
2, 59360, Note_on_c, 1, 74, 68
2, 59520, Note_off_c, 1, 74, 0
2, 59520, Note_on_c, 1, 81, 69
2, 59795, Note_off_c, 1, 81, 0
2, 60000, Note_on_c, 1, 79, 70
2, 60275, Note_off_c, 1, 79, 0
2, 60480, Note_on_c, 1, 79, 70
2, 60600, Note_off_c, 1, 79, 0
2, 60600, Note_on_c, 1, 77, 69
2, 60720, Note_off_c, 1, 77, 0
2, 60720, Note_on_c, 1, 76, 67
2, 60840, Note_off_c, 1, 76, 0
2, 60840, Note_on_c, 1, 74, 66
2, 60960, Note_off_c, 1, 74, 0
2, 60960, Note_on_c, 1, 72, 64
2, 61440, Note_off_c, 1, 72, 0
2, 61440, Note_on_c, 1, 71, 58
2, 61520, Note_on_c, 1, 72, 57
2, 61536, Note_off_c, 1, 71, 0
2, 61600, Note_on_c, 1, 71, 56
2, 61616, Note_off_c, 1, 72, 0
2, 61680, Note_on_c, 1, 72, 55
2, 61696, Note_off_c, 1, 71, 0
2, 61740, Note_on_c, 1, 71, 54
2, 61776, Note_off_c, 1, 72, 0
2, 61800, Note_on_c, 1, 69, 53
2, 61818, Note_off_c, 1, 71, 0
2, 61860, Note_on_c, 1, 71, 53
2, 61886, Note_off_c, 1, 69, 0
2, 61920, Control_c, 1, 64, 127
2, 61920, Note_on_c, 1, 72, 52
2, 61927, Note_off_c, 1, 71, 0
2, 62400, Note_off_c, 1, 72, 0
2, 62520, Note_on_c, 1, 71, 55
2, 62640, Control_c, 1, 64, 0
2, 62640, Note_off_c, 1, 71, 0
2, 62640, Note_on_c, 1, 72, 56
2, 62760, Note_off_c, 1, 72, 0
2, 62760, Note_on_c, 1, 74, 56
2, 62880, Note_off_c, 1, 74, 0
2, 62880, Note_on_c, 1, 77, 57
2, 63000, Note_off_c, 1, 77, 0
2, 63000, Note_on_c, 1, 76, 57
2, 63120, Note_off_c, 1, 76, 0
2, 63120, Note_on_c, 1, 74, 57
2, 63240, Note_off_c, 1, 74, 0
2, 63240, Note_on_c, 1, 72, 58
2, 63360, Control_c, 1, 64, 127
2, 63360, Note_off_c, 1, 72, 0
2, 63360, Note_on_c, 1, 71, 58
2, 63840, Note_off_c, 1, 71, 0
2, 63960, Note_on_c, 1, 73, 60
2, 64080, Control_c, 1, 64, 0
2, 64080, Note_off_c, 1, 73, 0
2, 64080, Note_on_c, 1, 74, 60
2, 64200, Note_off_c, 1, 74, 0
2, 64200, Note_on_c, 1, 76, 61
2, 64320, Note_off_c, 1, 76, 0
2, 64320, Note_on_c, 1, 79, 61
2, 64440, Note_off_c, 1, 79, 0
2, 64440, Note_on_c, 1, 77, 61
2, 64560, Note_off_c, 1, 77, 0
2, 64560, Note_on_c, 1, 76, 62
2, 64680, Note_off_c, 1, 76, 0
2, 64680, Note_on_c, 1, 74, 62
2, 64800, Control_c, 1, 64, 127
2, 64800, Note_off_c, 1, 74, 0
2, 64800, Note_on_c, 1, 72, 62
2, 65280, Note_off_c, 1, 72, 0
2, 65400, Note_on_c, 1, 75, 64
2, 65520, Control_c, 1, 64, 0
2, 65520, Note_off_c, 1, 75, 0
2, 65520, Note_on_c, 1, 76, 65
2, 65640, Note_off_c, 1, 76, 0
2, 65640, Note_on_c, 1, 77, 65
2, 65760, Note_off_c, 1, 77, 0
2, 65760, Note_on_c, 1, 81, 65
2, 65880, Note_off_c, 1, 81, 0
2, 65880, Note_on_c, 1, 79, 66
2, 66000, Note_off_c, 1, 79, 0
2, 66000, Note_on_c, 1, 77, 66
2, 66120, Note_off_c, 1, 77, 0
2, 66120, Note_on_c, 1, 76, 66
2, 66240, Note_off_c, 1, 76, 0
2, 66240, Note_on_c, 1, 73, 66
2, 66360, Note_off_c, 1, 73, 0
2, 66360, Note_on_c, 1, 74, 67
2, 66480, Note_off_c, 1, 74, 0
2, 66480, Note_on_c, 1, 77, 67
2, 66600, Note_off_c, 1, 77, 0
2, 66600, Note_on_c, 1, 76, 68
2, 66720, Note_off_c, 1, 76, 0
2, 66720, Note_on_c, 1, 73, 69
2, 66840, Note_off_c, 1, 73, 0
2, 66840, Note_on_c, 1, 74, 70
2, 66960, Note_off_c, 1, 74, 0
2, 66960, Note_on_c, 1, 77, 70
2, 67080, Note_off_c, 1, 77, 0
2, 67080, Note_on_c, 1, 76, 71
2, 67200, Note_off_c, 1, 76, 0
2, 67200, Note_on_c, 1, 79, 72
2, 67320, Note_off_c, 1, 79, 0
2, 67320, Note_on_c, 1, 77, 73
2, 67440, Note_off_c, 1, 77, 0
2, 67440, Note_on_c, 1, 76, 74
2, 67560, Note_off_c, 1, 76, 0
2, 67560, Note_on_c, 1, 74, 74
2, 67680, Note_off_c, 1, 74, 0
2, 67680, Note_on_c, 1, 81, 75
2, 67800, Note_off_c, 1, 81, 0
2, 67800, Note_on_c, 1, 77, 74
2, 67920, Note_off_c, 1, 77, 0
2, 67920, Note_on_c, 1, 76, 72
2, 68040, Note_off_c, 1, 76, 0
2, 68040, Note_on_c, 1, 74, 71
2, 68160, Note_off_c, 1, 74, 0
2, 68240, Note_on_c, 1, 74, 68
2, 68320, Note_on_c, 1, 76, 67
2, 68336, Note_off_c, 1, 74, 0
2, 68400, Note_on_c, 1, 74, 66
2, 68416, Note_off_c, 1, 76, 0
2, 68480, Note_on_c, 1, 76, 65
2, 68496, Note_off_c, 1, 74, 0
2, 68560, Note_on_c, 1, 74, 64
2, 68576, Note_off_c, 1, 76, 0
2, 68640, Note_on_c, 1, 76, 63
2, 68656, Note_off_c, 1, 74, 0
2, 68760, Note_off_c, 1, 76, 0
2, 68760, Note_on_c, 1, 74, 61
2, 68880, Note_off_c, 1, 74, 0
2, 68880, Note_on_c, 1, 72, 60
2, 69000, Note_off_c, 1, 72, 0
2, 69000, Note_on_c, 1, 74, 58
2, 69112, Note_off_c, 1, 74, 0
2, 69120, Control_c, 1, 64, 127
2, 69240, Note_on_c, 1, 72, 58
2, 69525, Note_off_c, 1, 72, 0
2, 69720, Note_on_c, 1, 59, 60
2, 69840, Control_c, 1, 64, 0
2, 69840, Note_off_c, 1, 59, 0
2, 69840, Note_on_c, 1, 60, 60
2, 69960, Note_off_c, 1, 60, 0
2, 69960, Note_on_c, 1, 62, 61
2, 70080, Note_off_c, 1, 62, 0
2, 70080, Note_on_c, 1, 65, 61
2, 70200, Note_off_c, 1, 65, 0
2, 70200, Note_on_c, 1, 64, 62
2, 70320, Note_off_c, 1, 64, 0
2, 70320, Note_on_c, 1, 62, 62
2, 70440, Note_off_c, 1, 62, 0
2, 70440, Note_on_c, 1, 60, 63
2, 70560, Control_c, 1, 64, 127
2, 70560, Note_off_c, 1, 60, 0
2, 70560, Note_on_c, 1, 59, 63
2, 71040, Note_off_c, 1, 59, 0
2, 71160, Note_on_c, 1, 61, 65
2, 71280, Control_c, 1, 64, 0
2, 71280, Note_off_c, 1, 61, 0
2, 71280, Note_on_c, 1, 62, 65
2, 71400, Note_off_c, 1, 62, 0
2, 71400, Note_on_c, 1, 64, 66
2, 71520, Note_off_c, 1, 64, 0
2, 71520, Note_on_c, 1, 67, 66
2, 71640, Note_off_c, 1, 67, 0
2, 71640, Note_on_c, 1, 65, 67
2, 71760, Note_off_c, 1, 65, 0
2, 71760, Note_on_c, 1, 64, 67
2, 71880, Note_off_c, 1, 64, 0
2, 71880, Note_on_c, 1, 62, 68
2, 72000, Control_c, 1, 64, 127
2, 72000, Note_off_c, 1, 62, 0
2, 72000, Note_on_c, 1, 60, 68
2, 72480, Note_off_c, 1, 60, 0
2, 72600, Note_on_c, 1, 63, 70
2, 72720, Control_c, 1, 64, 0
2, 72720, Note_off_c, 1, 63, 0
2, 72720, Note_on_c, 1, 64, 71
2, 72840, Note_off_c, 1, 64, 0
2, 72840, Note_on_c, 1, 65, 71
2, 72960, Note_off_c, 1, 65, 0
2, 72960, Note_on_c, 1, 69, 71
2, 73080, Note_off_c, 1, 69, 0
2, 73080, Note_on_c, 1, 67, 72
2, 73200, Note_off_c, 1, 67, 0
2, 73200, Note_on_c, 1, 65, 72
2, 73320, Note_off_c, 1, 65, 0
2, 73320, Note_on_c, 1, 64, 73
2, 73440, Control_c, 1, 64, 127
2, 73440, Note_off_c, 1, 64, 0
2, 73440, Note_on_c, 1, 62, 73
2, 73920, Control_c, 1, 64, 127
2, 73920, Note_off_c, 1, 62, 0
2, 74040, Note_on_c, 1, 62, 74
2, 74160, Control_c, 1, 64, 0
2, 74160, Note_off_c, 1, 62, 0
2, 74160, Note_on_c, 1, 65, 75
2, 74280, Note_off_c, 1, 65, 0
2, 74280, Note_on_c, 1, 69, 76
2, 74400, Control_c, 1, 64, 127
2, 74400, Note_off_c, 1, 69, 0
2, 74400, Note_on_c, 1, 74, 76
2, 74640, Control_c, 1, 64, 0
2, 74640, Note_off_c, 1, 74, 0
2, 74880, Control_c, 1, 64, 127
2, 75000, Note_on_c, 1, 69, 79
2, 75120, Control_c, 1, 64, 0
2, 75120, Note_off_c, 1, 69, 0
2, 75120, Note_on_c, 1, 74, 80
2, 75240, Note_off_c, 1, 74, 0
2, 75240, Note_on_c, 1, 77, 80
2, 75360, Control_c, 1, 64, 127
2, 75360, Note_off_c, 1, 77, 0
2, 75360, Note_on_c, 1, 81, 81
2, 75600, Control_c, 1, 64, 0
2, 75600, Note_off_c, 1, 81, 0
2, 75960, Note_on_c, 1, 83, 84
2, 76080, Control_c, 1, 64, 0
2, 76080, Note_off_c, 1, 83, 0
2, 76080, Note_on_c, 1, 84, 85
2, 76200, Note_off_c, 1, 84, 0
2, 76200, Note_on_c, 1, 80, 85
2, 76320, Note_off_c, 1, 80, 0
2, 76320, Note_on_c, 1, 81, 85
2, 76440, Note_off_c, 1, 81, 0
2, 76440, Note_on_c, 1, 76, 84
2, 76560, Note_off_c, 1, 76, 0
2, 76560, Note_on_c, 1, 77, 83
2, 76680, Note_off_c, 1, 77, 0
2, 76680, Note_on_c, 1, 74, 82
2, 76800, Note_off_c, 1, 74, 0
2, 76800, Note_on_c, 1, 72, 81
2, 76880, Note_on_c, 1, 74, 80
2, 76896, Note_off_c, 1, 72, 0
2, 76960, Note_on_c, 1, 76, 79
2, 76976, Note_off_c, 1, 74, 0
2, 77040, Note_on_c, 1, 74, 79
2, 77056, Note_off_c, 1, 76, 0
2, 77120, Note_on_c, 1, 76, 78
2, 77136, Note_off_c, 1, 74, 0
2, 77200, Note_on_c, 1, 74, 77
2, 77216, Note_off_c, 1, 76, 0
2, 77280, Note_on_c, 1, 76, 77
2, 77296, Note_off_c, 1, 74, 0
2, 77400, Note_off_c, 1, 76, 0
2, 77400, Note_on_c, 1, 74, 75
2, 77520, Note_off_c, 1, 74, 0
2, 77520, Note_on_c, 1, 72, 74
2, 77640, Note_off_c, 1, 72, 0
2, 77640, Note_on_c, 1, 74, 73
2, 77760, Note_off_c, 1, 74, 0
2, 77760, Note_on_c, 1, 72, 70
2, 77915, Note_off_c, 1, 72, 0
2, 78000, Note_on_c, 1, 76, 72
2, 78155, Note_off_c, 1, 76, 0
2, 78240, Note_on_c, 1, 79, 73
2, 78625, Note_off_c, 1, 79, 0
2, 78720, Note_on_c, 1, 83, 76
2, 78800, Note_on_c, 1, 84, 77
2, 78816, Note_off_c, 1, 83, 0
2, 78880, Note_on_c, 1, 83, 77
2, 78896, Note_off_c, 1, 84, 0
2, 78960, Note_on_c, 1, 81, 78
2, 78976, Note_off_c, 1, 83, 0
2, 79080, Note_off_c, 1, 81, 0
2, 79080, Note_on_c, 1, 83, 78
2, 79200, Note_off_c, 1, 83, 0
2, 79200, Note_on_c, 1, 84, 79
2, 79355, Note_off_c, 1, 84, 0
2, 79440, Note_on_c, 1, 76, 81
2, 79595, Note_off_c, 1, 76, 0
2, 79680, Note_on_c, 1, 79, 82
2, 80065, Note_off_c, 1, 79, 0
2, 80160, Note_on_c, 1, 83, 85
2, 80240, Note_on_c, 1, 84, 86
2, 80256, Note_off_c, 1, 83, 0
2, 80320, Note_on_c, 1, 83, 86
2, 80336, Note_off_c, 1, 84, 0
2, 80400, Note_on_c, 1, 81, 87
2, 80416, Note_off_c, 1, 83, 0
2, 80520, Note_off_c, 1, 81, 0
2, 80520, Note_on_c, 1, 83, 87
2, 80640, Note_off_c, 1, 83, 0
2, 80640, Note_on_c, 1, 84, 88
2, 81025, Note_off_c, 1, 84, 0
2, 81120, Note_on_c, 1, 72, 84
2, 81505, Note_off_c, 1, 72, 0
2, 82080, Note_on_c, 1, 79, 63
2, 82840, Note_off_c, 1, 79, 0
2, 84000, Note_on_c, 1, 79, 58
2, 84360, Note_off_c, 1, 79, 0
2, 84360, Note_on_c, 1, 76, 58
2, 84455, Note_off_c, 1, 76, 0
2, 84480, Note_on_c, 1, 79, 57
2, 84840, Note_off_c, 1, 79, 0
2, 84840, Note_on_c, 1, 76, 56
2, 84935, Note_off_c, 1, 76, 0
2, 84960, Note_on_c, 1, 77, 56
2, 85905, Note_off_c, 1, 77, 0
2, 86880, Note_on_c, 1, 74, 52
2, 87240, Note_off_c, 1, 74, 0
2, 87240, Note_on_c, 1, 71, 51
2, 87335, Note_off_c, 1, 71, 0
2, 87360, Note_on_c, 1, 74, 50
2, 87720, Note_off_c, 1, 74, 0
2, 87720, Note_on_c, 1, 71, 50
2, 87815, Note_off_c, 1, 71, 0
2, 87920, Note_on_c, 1, 72, 49
2, 89660, Note_off_c, 1, 72, 0
2, 89760, Note_on_c, 1, 74, 45
2, 90120, Note_off_c, 1, 74, 0
2, 90120, Note_on_c, 1, 69, 44
2, 90215, Note_off_c, 1, 69, 0
2, 90240, Note_on_c, 1, 71, 44
2, 90600, Note_off_c, 1, 71, 0
2, 90600, Note_on_c, 1, 67, 43
2, 90695, Note_off_c, 1, 67, 0
2, 90720, Note_on_c, 1, 79, 42
2, 92640, Note_off_c, 1, 79, 0
2, 92640, Note_on_c, 1, 79, 38
2, 93000, Note_off_c, 1, 79, 0
2, 93000, Note_on_c, 1, 76, 37
2, 93095, Note_off_c, 1, 76, 0
2, 93120, Note_on_c, 1, 79, 37
2, 93480, Note_off_c, 1, 79, 0
2, 93480, Note_on_c, 1, 76, 36
2, 93575, Note_off_c, 1, 76, 0
2, 93600, Note_on_c, 1, 79, 36
2, 95945, Note_off_c, 1, 79, 0
2, 96480, Note_on_c, 1, 38, 68
2, 96480, Note_on_c, 1, 50, 68
2, 96672, Note_off_c, 1, 38, 0
2, 96672, Note_off_c, 1, 50, 0
2, 96960, Note_on_c, 1, 41, 69
2, 96960, Note_on_c, 1, 53, 69
2, 97152, Note_off_c, 1, 41, 0
2, 97152, Note_off_c, 1, 53, 0
2, 97440, Note_on_c, 1, 57, 70
2, 97440, Note_on_c, 1, 45, 70
2, 97632, Note_off_c, 1, 57, 0
2, 97632, Note_off_c, 1, 45, 0
2, 97920, Note_on_c, 1, 81, 70
2, 98040, Note_off_c, 1, 81, 0
2, 98040, Note_on_c, 1, 82, 71
2, 98160, Note_off_c, 1, 82, 0
2, 98160, Note_on_c, 1, 81, 71
2, 98280, Note_off_c, 1, 81, 0
2, 98280, Note_on_c, 1, 77, 71
2, 98400, Note_off_c, 1, 77, 0
2, 98400, Note_on_c, 1, 79, 71
2, 98520, Note_off_c, 1, 79, 0
2, 98520, Note_on_c, 1, 81, 71
2, 98640, Note_off_c, 1, 81, 0
2, 98640, Note_on_c, 1, 79, 72
2, 98760, Note_off_c, 1, 79, 0
2, 98760, Note_on_c, 1, 76, 72
2, 98880, Note_off_c, 1, 76, 0
2, 98880, Note_on_c, 1, 77, 72
2, 99000, Note_off_c, 1, 77, 0
2, 99000, Note_on_c, 1, 79, 72
2, 99120, Note_off_c, 1, 79, 0
2, 99120, Note_on_c, 1, 77, 72
2, 99240, Note_off_c, 1, 77, 0
2, 99240, Note_on_c, 1, 74, 73
2, 99360, Note_off_c, 1, 74, 0
2, 99480, Note_on_c, 1, 82, 73
2, 99815, Note_off_c, 1, 82, 0
2, 100800, Note_on_c, 1, 74, 75
2, 100920, Note_off_c, 1, 74, 0
2, 100920, Note_on_c, 1, 75, 75
2, 101040, Note_off_c, 1, 75, 0
2, 101040, Note_on_c, 1, 74, 76
2, 101160, Note_off_c, 1, 74, 0
2, 101160, Note_on_c, 1, 70, 76
2, 101280, Note_off_c, 1, 70, 0
2, 101280, Note_on_c, 1, 72, 76
2, 101400, Note_off_c, 1, 72, 0
2, 101400, Note_on_c, 1, 74, 76
2, 101520, Note_off_c, 1, 74, 0
2, 101520, Note_on_c, 1, 72, 76
2, 101640, Note_off_c, 1, 72, 0
2, 101640, Note_on_c, 1, 69, 77
2, 101760, Note_off_c, 1, 69, 0
2, 101760, Note_on_c, 1, 70, 77
2, 101880, Note_off_c, 1, 70, 0
2, 101880, Note_on_c, 1, 72, 77
2, 102000, Note_off_c, 1, 72, 0
2, 102000, Note_on_c, 1, 70, 77
2, 102120, Note_off_c, 1, 70, 0
2, 102120, Note_on_c, 1, 67, 77
2, 102240, Note_off_c, 1, 67, 0
2, 102360, Note_on_c, 1, 76, 78
2, 102690, Note_off_c, 1, 76, 0
2, 103680, Note_on_c, 1, 79, 80
2, 103800, Note_off_c, 1, 79, 0
2, 103800, Note_on_c, 1, 81, 80
2, 103920, Note_off_c, 1, 81, 0
2, 103920, Note_on_c, 1, 79, 80
2, 104040, Note_off_c, 1, 79, 0
2, 104040, Note_on_c, 1, 76, 81
2, 104160, Note_off_c, 1, 76, 0
2, 104160, Note_on_c, 1, 77, 81
2, 104280, Note_off_c, 1, 77, 0
2, 104280, Note_on_c, 1, 79, 81
2, 104400, Note_off_c, 1, 79, 0
2, 104400, Note_on_c, 1, 77, 81
2, 104520, Note_off_c, 1, 77, 0
2, 104520, Note_on_c, 1, 74, 81
2, 104640, Note_off_c, 1, 74, 0
2, 104640, Note_on_c, 1, 76, 82
2, 104760, Note_off_c, 1, 76, 0
2, 104760, Note_on_c, 1, 77, 82
2, 104880, Note_off_c, 1, 77, 0
2, 104880, Note_on_c, 1, 76, 82
2, 105000, Note_off_c, 1, 76, 0
2, 105000, Note_on_c, 1, 72, 82
2, 105120, Note_off_c, 1, 72, 0
2, 105240, Note_on_c, 1, 81, 83
2, 105575, Note_off_c, 1, 81, 0
2, 106560, Note_on_c, 1, 72, 85
2, 106680, Note_off_c, 1, 72, 0
2, 106680, Note_on_c, 1, 74, 85
2, 106800, Note_off_c, 1, 74, 0
2, 106800, Note_on_c, 1, 72, 85
2, 106920, Note_off_c, 1, 72, 0
2, 106920, Note_on_c, 1, 69, 85
2, 107040, Note_off_c, 1, 69, 0
2, 107040, Note_on_c, 1, 70, 86
2, 107160, Note_off_c, 1, 70, 0
2, 107160, Note_on_c, 1, 72, 86
2, 107280, Note_off_c, 1, 72, 0
2, 107280, Note_on_c, 1, 70, 86
2, 107400, Note_off_c, 1, 70, 0
2, 107400, Note_on_c, 1, 67, 86
2, 107520, Note_off_c, 1, 67, 0
2, 107520, Note_on_c, 1, 69, 86
2, 107640, Note_off_c, 1, 69, 0
2, 107640, Note_on_c, 1, 70, 87
2, 107760, Note_off_c, 1, 70, 0
2, 107760, Note_on_c, 1, 69, 87
2, 107880, Note_off_c, 1, 69, 0
2, 107880, Note_on_c, 1, 65, 87
2, 108000, Note_off_c, 1, 65, 0
2, 108120, Note_on_c, 1, 86, 87
2, 108425, Note_off_c, 1, 86, 0
2, 109560, Note_on_c, 1, 86, 91
2, 109865, Note_off_c, 1, 86, 0
2, 111000, Note_on_c, 1, 86, 93
2, 111300, Note_off_c, 1, 86, 0
2, 112320, Note_on_c, 1, 61, 93
2, 112480, Note_off_c, 1, 61, 0
2, 112480, Note_on_c, 1, 69, 92
2, 112640, Note_off_c, 1, 69, 0
2, 112640, Note_on_c, 1, 64, 92
2, 112800, Note_off_c, 1, 64, 0
2, 112800, Note_on_c, 1, 62, 91
2, 112960, Note_off_c, 1, 62, 0
2, 112960, Note_on_c, 1, 70, 90
2, 113120, Note_off_c, 1, 70, 0
2, 113120, Note_on_c, 1, 65, 90
2, 113280, Note_off_c, 1, 65, 0
2, 113280, Note_on_c, 1, 62, 89
2, 113440, Note_off_c, 1, 62, 0
2, 113440, Note_on_c, 1, 68, 88
2, 113600, Note_off_c, 1, 68, 0
2, 113600, Note_on_c, 1, 65, 87
2, 113760, Note_off_c, 1, 65, 0
2, 113760, Note_on_c, 1, 61, 87
2, 113920, Note_off_c, 1, 61, 0
2, 113920, Note_on_c, 1, 69, 86
2, 114080, Note_off_c, 1, 69, 0
2, 114080, Note_on_c, 1, 64, 85
2, 114240, Note_off_c, 1, 64, 0
2, 114240, Note_on_c, 1, 62, 84
2, 114400, Note_off_c, 1, 62, 0
2, 114400, Note_on_c, 1, 70, 84
2, 114560, Note_off_c, 1, 70, 0
2, 114560, Note_on_c, 1, 65, 83
2, 114720, Note_off_c, 1, 65, 0
2, 114720, Note_on_c, 1, 62, 82
2, 114880, Note_off_c, 1, 62, 0
2, 114880, Note_on_c, 1, 68, 82
2, 115040, Note_off_c, 1, 68, 0
2, 115040, Note_on_c, 1, 65, 81
2, 115200, Note_off_c, 1, 65, 0
2, 115680, Note_on_c, 1, 70, 75
2, 115920, Note_off_c, 1, 70, 0
2, 115920, Note_on_c, 1, 69, 73
2, 116105, Note_off_c, 1, 69, 0
2, 116160, Note_on_c, 1, 69, 70
2, 116545, Note_off_c, 1, 69, 0
2, 117120, Note_on_c, 1, 72, 60
2, 117360, Note_off_c, 1, 72, 0
2, 117360, Note_on_c, 1, 71, 58
2, 117545, Note_off_c, 1, 71, 0
2, 117600, Note_on_c, 1, 71, 55
2, 117985, Note_off_c, 1, 71, 0
2, 118560, Note_on_c, 1, 72, 45
2, 118800, Note_off_c, 1, 72, 0
2, 118800, Note_on_c, 1, 70, 42
2, 119025, Note_off_c, 1, 70, 0
2, 119040, Note_on_c, 1, 70, 40
2, 119425, Note_off_c, 1, 70, 0
2, 119640, Note_on_c, 1, 72, 65
2, 119895, Note_off_c, 1, 72, 0
2, 120000, Note_on_c, 1, 72, 67
2, 120385, Note_off_c, 1, 72, 0
2, 120480, Note_on_c, 1, 72, 69
2, 120865, Note_off_c, 1, 72, 0
2, 120960, Note_on_c, 1, 72, 73
2, 121680, Note_on_c, 1, 74, 70
2, 121695, Note_off_c, 1, 72, 0
2, 121775, Note_off_c, 1, 74, 0
2, 121800, Note_on_c, 1, 72, 69
2, 121895, Note_off_c, 1, 72, 0
2, 121920, Note_on_c, 1, 70, 69
2, 121960, Note_on_c, 1, 72, 69
2, 121970, Note_off_c, 1, 70, 0
2, 122000, Note_on_c, 1, 70, 69
2, 122015, Note_off_c, 1, 72, 0
2, 122040, Note_on_c, 1, 69, 68
2, 122050, Note_off_c, 1, 70, 0
2, 122135, Note_off_c, 1, 69, 0
2, 122160, Note_on_c, 1, 67, 68
2, 122255, Note_off_c, 1, 67, 0
2, 122280, Note_on_c, 1, 65, 67
2, 122375, Note_off_c, 1, 65, 0
2, 122400, Note_on_c, 1, 77, 67
2, 122880, Note_off_c, 1, 77, 0
2, 122880, Note_on_c, 1, 76, 64
2, 123360, Note_off_c, 1, 76, 0
2, 123360, Note_on_c, 1, 75, 62
2, 123840, Note_off_c, 1, 75, 0
2, 123840, Note_on_c, 1, 74, 60
2, 124320, Note_off_c, 1, 74, 0
2, 125280, Note_on_c, 1, 72, 45
2, 125520, Note_off_c, 1, 72, 0
2, 125520, Note_on_c, 1, 70, 47
2, 125710, Note_off_c, 1, 70, 0
2, 125760, Note_on_c, 1, 70, 50
2, 126070, Note_off_c, 1, 70, 0
2, 126720, Note_on_c, 1, 74, 61
2, 126960, Note_off_c, 1, 74, 0
2, 126960, Note_on_c, 1, 72, 64
2, 127150, Note_off_c, 1, 72, 0
2, 127200, Note_on_c, 1, 72, 67
2, 127510, Note_off_c, 1, 72, 0
2, 128160, Note_on_c, 1, 82, 85
2, 128280, Note_off_c, 1, 82, 0
2, 128280, Note_on_c, 1, 81, 85
2, 128400, Note_off_c, 1, 81, 0
2, 128400, Note_on_c, 1, 79, 85
2, 128520, Note_off_c, 1, 79, 0
2, 128520, Note_on_c, 1, 81, 84
2, 128640, Note_off_c, 1, 81, 0
2, 128640, Note_on_c, 1, 79, 84
2, 128760, Note_off_c, 1, 79, 0
2, 128760, Note_on_c, 1, 77, 83
2, 128880, Note_off_c, 1, 77, 0
2, 128880, Note_on_c, 1, 76, 83
2, 129000, Note_off_c, 1, 76, 0
2, 129000, Note_on_c, 1, 77, 82
2, 129120, Note_off_c, 1, 77, 0
2, 129120, Note_on_c, 1, 76, 82
2, 129240, Note_off_c, 1, 76, 0
2, 129240, Note_on_c, 1, 74, 81
2, 129360, Note_off_c, 1, 74, 0
2, 129360, Note_on_c, 1, 72, 81
2, 129480, Note_off_c, 1, 72, 0
2, 129480, Note_on_c, 1, 70, 80
2, 129600, Note_off_c, 1, 70, 0
2, 129600, Note_on_c, 1, 69, 80
2, 129840, Note_off_c, 1, 69, 0
2, 129840, Note_on_c, 1, 77, 79
2, 130320, Note_off_c, 1, 77, 0
2, 130320, Note_on_c, 1, 76, 77
2, 130800, Note_off_c, 1, 76, 0
2, 130800, Note_on_c, 1, 77, 75
2, 131040, Note_off_c, 1, 77, 0
2, 131280, Note_on_c, 1, 74, 74
2, 131472, Note_off_c, 1, 74, 0
2, 131760, Note_on_c, 1, 67, 72
2, 131952, Note_off_c, 1, 67, 0
2, 132240, Note_on_c, 1, 64, 70
2, 132395, Note_off_c, 1, 64, 0
2, 132480, Note_on_c, 1, 82, 77
2, 132600, Note_off_c, 1, 82, 0
2, 132600, Note_on_c, 1, 81, 77
2, 132720, Note_off_c, 1, 81, 0
2, 132720, Note_on_c, 1, 79, 76
2, 132840, Note_off_c, 1, 79, 0
2, 132840, Note_on_c, 1, 81, 76
2, 132960, Note_off_c, 1, 81, 0
2, 132960, Note_on_c, 1, 79, 75
2, 133080, Note_off_c, 1, 79, 0
2, 133080, Note_on_c, 1, 77, 75
2, 133200, Note_off_c, 1, 77, 0
2, 133200, Note_on_c, 1, 76, 74
2, 133320, Note_off_c, 1, 76, 0
2, 133320, Note_on_c, 1, 77, 74
2, 133440, Note_off_c, 1, 77, 0
2, 133440, Note_on_c, 1, 76, 73
2, 133560, Note_off_c, 1, 76, 0
2, 133560, Note_on_c, 1, 74, 73
2, 133680, Note_off_c, 1, 74, 0
2, 133680, Note_on_c, 1, 72, 72
2, 133800, Note_off_c, 1, 72, 0
2, 133800, Note_on_c, 1, 70, 72
2, 133920, Note_off_c, 1, 70, 0
2, 133920, Note_on_c, 1, 69, 71
2, 134160, Note_off_c, 1, 69, 0
2, 134160, Note_on_c, 1, 81, 70
2, 134640, Note_off_c, 1, 81, 0
2, 134640, Note_on_c, 1, 79, 68
2, 135120, Note_off_c, 1, 79, 0
2, 135120, Note_on_c, 1, 77, 66
2, 135360, Note_off_c, 1, 77, 0
2, 135600, Note_on_c, 1, 74, 64
2, 135792, Note_off_c, 1, 74, 0
2, 136080, Note_on_c, 1, 67, 62
2, 136272, Note_off_c, 1, 67, 0
2, 136560, Note_on_c, 1, 55, 60
2, 136560, Note_on_c, 1, 64, 60
2, 136752, Note_off_c, 1, 55, 0
2, 136752, Note_off_c, 1, 64, 0
2, 136800, Note_on_c, 1, 57, 60
2, 136942, Note_off_c, 1, 57, 0
2, 136960, Note_on_c, 1, 65, 60
2, 137102, Note_off_c, 1, 65, 0
2, 137120, Note_on_c, 1, 60, 61
2, 137262, Note_off_c, 1, 60, 0
2, 137280, Note_on_c, 1, 69, 61
2, 137422, Note_off_c, 1, 69, 0
2, 137440, Note_on_c, 1, 65, 62
2, 137582, Note_off_c, 1, 65, 0
2, 137600, Note_on_c, 1, 60, 62
2, 137742, Note_off_c, 1, 60, 0
2, 137760, Note_on_c, 1, 58, 63
2, 137902, Note_off_c, 1, 58, 0
2, 137920, Note_on_c, 1, 67, 63
2, 138062, Note_off_c, 1, 67, 0
2, 138080, Note_on_c, 1, 64, 64
2, 138217, Note_off_c, 1, 64, 0
2, 138240, Note_on_c, 1, 65, 64
2, 138382, Note_off_c, 1, 65, 0
2, 138400, Note_on_c, 1, 57, 64
2, 138542, Note_off_c, 1, 57, 0
2, 138560, Note_on_c, 1, 60, 65
2, 138702, Note_off_c, 1, 60, 0
2, 138720, Note_on_c, 1, 67, 65
2, 138862, Note_off_c, 1, 67, 0
2, 138880, Note_on_c, 1, 60, 66
2, 139022, Note_off_c, 1, 60, 0
2, 139040, Note_on_c, 1, 64, 66
2, 139182, Note_off_c, 1, 64, 0
2, 139200, Note_on_c, 1, 69, 67
2, 139342, Note_off_c, 1, 69, 0
2, 139360, Note_on_c, 1, 60, 67
2, 139502, Note_off_c, 1, 60, 0
2, 139520, Note_on_c, 1, 65, 67
2, 139672, Note_off_c, 1, 65, 0
2, 139680, Note_on_c, 1, 60, 68
2, 139822, Note_off_c, 1, 60, 0
2, 139840, Note_on_c, 1, 67, 68
2, 139982, Note_off_c, 1, 67, 0
2, 140000, Note_on_c, 1, 64, 69
2, 140142, Note_off_c, 1, 64, 0
2, 140160, Note_on_c, 1, 70, 69
2, 140302, Note_off_c, 1, 70, 0
2, 140320, Note_on_c, 1, 67, 70
2, 140462, Note_off_c, 1, 67, 0
2, 140480, Note_on_c, 1, 64, 70
2, 140622, Note_off_c, 1, 64, 0
2, 140640, Note_on_c, 1, 60, 71
2, 140782, Note_off_c, 1, 60, 0
2, 140800, Note_on_c, 1, 69, 71
2, 140942, Note_off_c, 1, 69, 0
2, 140960, Note_on_c, 1, 65, 71
2, 141097, Note_off_c, 1, 65, 0
2, 141120, Note_on_c, 1, 67, 72
2, 141264, Note_off_c, 1, 67, 0
2, 141280, Note_on_c, 1, 60, 72
2, 141424, Note_off_c, 1, 60, 0
2, 141440, Note_on_c, 1, 64, 73
2, 141584, Note_off_c, 1, 64, 0
2, 141600, Note_on_c, 1, 69, 73
2, 141744, Note_off_c, 1, 69, 0
2, 141760, Note_on_c, 1, 60, 74
2, 141904, Note_off_c, 1, 60, 0
2, 141920, Note_on_c, 1, 65, 74
2, 142064, Note_off_c, 1, 65, 0
2, 142080, Note_on_c, 1, 70, 75
2, 142224, Note_off_c, 1, 70, 0
2, 142240, Note_on_c, 1, 60, 75
2, 142384, Note_off_c, 1, 60, 0
2, 142400, Note_on_c, 1, 67, 75
2, 142552, Note_off_c, 1, 67, 0
2, 142560, Note_on_c, 1, 69, 76
2, 142704, Note_off_c, 1, 69, 0
2, 142720, Note_on_c, 1, 72, 76
2, 142864, Note_off_c, 1, 72, 0
2, 142880, Note_on_c, 1, 77, 77
2, 143024, Note_off_c, 1, 77, 0
2, 143040, Note_on_c, 1, 81, 77
2, 143184, Note_off_c, 1, 81, 0
2, 143200, Note_on_c, 1, 77, 78
2, 143344, Note_off_c, 1, 77, 0
2, 143360, Note_on_c, 1, 74, 78
2, 143504, Note_off_c, 1, 74, 0
2, 143520, Note_on_c, 1, 72, 78
2, 143664, Note_off_c, 1, 72, 0
2, 143680, Note_on_c, 1, 77, 79
2, 143824, Note_off_c, 1, 77, 0
2, 143840, Note_on_c, 1, 81, 79
2, 143977, Note_off_c, 1, 81, 0
2, 144000, Note_on_c, 1, 80, 83
2, 144144, Note_off_c, 1, 80, 0
2, 144160, Note_on_c, 1, 74, 82
2, 144304, Note_off_c, 1, 74, 0
2, 144320, Note_on_c, 1, 71, 82
2, 144464, Note_off_c, 1, 71, 0
2, 144480, Note_on_c, 1, 72, 81
2, 144624, Note_off_c, 1, 72, 0
2, 144640, Note_on_c, 1, 76, 80
2, 144784, Note_off_c, 1, 76, 0
2, 144800, Note_on_c, 1, 79, 79
2, 144944, Note_off_c, 1, 79, 0
2, 144960, Note_on_c, 1, 76, 78
2, 145104, Note_off_c, 1, 76, 0
2, 145120, Note_on_c, 1, 72, 77
2, 145264, Note_off_c, 1, 72, 0
2, 145280, Note_on_c, 1, 67, 77
2, 145425, Note_off_c, 1, 67, 0
2, 145440, Note_on_c, 1, 70, 76
2, 145584, Note_off_c, 1, 70, 0
2, 145600, Note_on_c, 1, 69, 75
2, 145744, Note_off_c, 1, 69, 0
2, 145760, Note_on_c, 1, 67, 74
2, 145904, Note_off_c, 1, 67, 0
2, 145920, Note_on_c, 1, 66, 73
2, 146064, Note_off_c, 1, 66, 0
2, 146080, Note_on_c, 1, 69, 73
2, 146224, Note_off_c, 1, 69, 0
2, 146240, Note_on_c, 1, 74, 72
2, 146384, Note_off_c, 1, 74, 0
2, 146400, Note_on_c, 1, 69, 71
2, 146544, Note_off_c, 1, 69, 0
2, 146560, Note_on_c, 1, 74, 70
2, 146704, Note_off_c, 1, 74, 0
2, 146720, Note_on_c, 1, 78, 69
2, 146865, Note_off_c, 1, 78, 0
2, 146880, Note_on_c, 1, 77, 69
2, 147024, Note_off_c, 1, 77, 0
2, 147040, Note_on_c, 1, 71, 68
2, 147184, Note_off_c, 1, 71, 0
2, 147200, Note_on_c, 1, 68, 67
2, 147344, Note_off_c, 1, 68, 0
2, 147360, Note_on_c, 1, 69, 66
2, 147504, Note_off_c, 1, 69, 0
2, 147520, Note_on_c, 1, 72, 65
2, 147664, Note_off_c, 1, 72, 0
2, 147680, Note_on_c, 1, 76, 65
2, 147824, Note_off_c, 1, 76, 0
2, 147840, Note_on_c, 1, 72, 64
2, 147984, Note_off_c, 1, 72, 0
2, 148000, Note_on_c, 1, 69, 63
2, 148144, Note_off_c, 1, 69, 0
2, 148160, Note_on_c, 1, 64, 62
2, 148312, Note_off_c, 1, 64, 0
2, 148320, Note_on_c, 1, 66, 61
2, 148464, Note_off_c, 1, 66, 0
2, 148480, Note_on_c, 1, 65, 61
2, 148624, Note_off_c, 1, 65, 0
2, 148640, Note_on_c, 1, 63, 60
2, 148784, Note_off_c, 1, 63, 0
2, 148800, Note_on_c, 1, 62, 59
2, 148944, Note_off_c, 1, 62, 0
2, 148960, Note_on_c, 1, 65, 58
2, 149104, Note_off_c, 1, 65, 0
2, 149120, Note_on_c, 1, 70, 57
2, 149264, Note_off_c, 1, 70, 0
2, 149280, Note_on_c, 1, 65, 57
2, 149424, Note_off_c, 1, 65, 0
2, 149440, Note_on_c, 1, 70, 56
2, 149584, Note_off_c, 1, 70, 0
2, 149600, Note_on_c, 1, 74, 55
2, 149752, Note_off_c, 1, 74, 0
2, 149760, Note_on_c, 1, 73, 54
2, 149904, Note_off_c, 1, 73, 0
2, 149920, Note_on_c, 1, 67, 53
2, 150064, Note_off_c, 1, 67, 0
2, 150080, Note_on_c, 1, 64, 53
2, 150224, Note_off_c, 1, 64, 0
2, 150240, Note_on_c, 1, 65, 52
2, 150384, Note_off_c, 1, 65, 0
2, 150400, Note_on_c, 1, 69, 51
2, 150544, Note_off_c, 1, 69, 0
2, 150560, Note_on_c, 1, 72, 50
2, 150704, Note_off_c, 1, 72, 0
2, 150720, Note_on_c, 1, 77, 49
2, 150864, Note_off_c, 1, 77, 0
2, 150880, Note_on_c, 1, 72, 48
2, 151024, Note_off_c, 1, 72, 0
2, 151040, Note_on_c, 1, 69, 48
2, 151192, Note_off_c, 1, 69, 0
2, 151200, Note_on_c, 1, 67, 48
2, 151360, Note_off_c, 1, 67, 0
2, 151360, Note_on_c, 1, 70, 48
2, 151520, Note_off_c, 1, 70, 0
2, 151520, Note_on_c, 1, 69, 50
2, 151680, Note_off_c, 1, 69, 0
2, 151680, Note_on_c, 1, 70, 51
2, 151840, Note_off_c, 1, 70, 0
2, 151840, Note_on_c, 1, 74, 52
2, 152000, Note_off_c, 1, 74, 0
2, 152000, Note_on_c, 1, 73, 53
2, 152160, Note_off_c, 1, 73, 0
2, 152160, Note_on_c, 1, 74, 54
2, 152320, Note_off_c, 1, 74, 0
2, 152320, Note_on_c, 1, 79, 56
2, 152480, Note_off_c, 1, 79, 0
2, 152480, Note_on_c, 1, 78, 57
2, 152640, Note_off_c, 1, 78, 0
2, 152640, Note_on_c, 1, 79, 58
2, 152800, Note_off_c, 1, 79, 0
2, 152800, Note_on_c, 1, 82, 59
2, 152960, Note_off_c, 1, 82, 0
2, 152960, Note_on_c, 1, 81, 60
2, 153120, Note_off_c, 1, 81, 0
2, 153120, Note_on_c, 1, 82, 62
2, 153280, Note_off_c, 1, 82, 0
2, 153280, Note_on_c, 1, 86, 63
2, 153440, Note_off_c, 1, 86, 0
2, 153440, Note_on_c, 1, 85, 64
2, 153600, Note_off_c, 1, 85, 0
2, 153600, Note_on_c, 1, 86, 65
2, 153760, Note_off_c, 1, 86, 0
2, 153760, Note_on_c, 1, 82, 66
2, 153920, Note_off_c, 1, 82, 0
2, 153920, Note_on_c, 1, 81, 68
2, 154080, Note_off_c, 1, 81, 0
2, 154080, Note_on_c, 1, 82, 69
2, 154240, Note_off_c, 1, 82, 0
2, 154240, Note_on_c, 1, 79, 70
2, 154400, Note_off_c, 1, 79, 0
2, 154400, Note_on_c, 1, 78, 69
2, 154560, Note_off_c, 1, 78, 0
2, 154560, Note_on_c, 1, 79, 67
2, 154720, Note_off_c, 1, 79, 0
2, 154720, Note_on_c, 1, 74, 66
2, 154880, Note_off_c, 1, 74, 0
2, 154880, Note_on_c, 1, 73, 65
2, 155040, Note_off_c, 1, 73, 0
2, 155040, Note_on_c, 1, 74, 64
2, 155200, Note_off_c, 1, 74, 0
2, 155200, Note_on_c, 1, 70, 63
2, 155360, Note_off_c, 1, 70, 0
2, 155360, Note_on_c, 1, 67, 61
2, 155520, Note_off_c, 1, 67, 0
2, 155520, Note_on_c, 1, 65, 60
2, 156000, Note_off_c, 1, 65, 0
2, 156000, Note_on_c, 1, 64, 53
2, 156360, Note_off_c, 1, 64, 0
2, 158400, Note_on_c, 1, 84, 59
2, 158520, Note_off_c, 1, 84, 0
2, 158520, Note_on_c, 1, 86, 58
2, 158640, Note_off_c, 1, 86, 0
2, 158640, Note_on_c, 1, 84, 58
2, 158760, Note_off_c, 1, 84, 0
2, 158760, Note_on_c, 1, 81, 58
2, 158880, Note_off_c, 1, 81, 0
2, 158880, Note_on_c, 1, 84, 58
2, 159000, Note_off_c, 1, 84, 0
2, 159000, Note_on_c, 1, 86, 57
2, 159120, Note_off_c, 1, 86, 0
2, 159120, Note_on_c, 1, 84, 57
2, 159240, Note_off_c, 1, 84, 0
2, 159240, Note_on_c, 1, 81, 57
2, 159360, Note_off_c, 1, 81, 0
2, 159360, Note_on_c, 1, 82, 57
2, 159480, Note_off_c, 1, 82, 0
2, 159480, Note_on_c, 1, 84, 56
2, 159600, Note_off_c, 1, 84, 0
2, 159600, Note_on_c, 1, 82, 56
2, 159720, Note_off_c, 1, 82, 0
2, 159720, Note_on_c, 1, 79, 56
2, 159840, Note_off_c, 1, 79, 0
2, 159840, Note_on_c, 1, 84, 55
2, 159960, Note_off_c, 1, 84, 0
2, 159960, Note_on_c, 1, 86, 55
2, 160080, Note_off_c, 1, 86, 0
2, 160080, Note_on_c, 1, 84, 55
2, 160200, Note_off_c, 1, 84, 0
2, 160200, Note_on_c, 1, 81, 55
2, 160320, Note_off_c, 1, 81, 0
2, 160320, Note_on_c, 1, 84, 54
2, 160440, Note_off_c, 1, 84, 0
2, 160440, Note_on_c, 1, 86, 54
2, 160560, Note_off_c, 1, 86, 0
2, 160560, Note_on_c, 1, 84, 54
2, 160680, Note_off_c, 1, 84, 0
2, 160680, Note_on_c, 1, 81, 54
2, 160800, Note_off_c, 1, 81, 0
2, 160800, Note_on_c, 1, 82, 53
2, 160920, Note_off_c, 1, 82, 0
2, 160920, Note_on_c, 1, 84, 53
2, 161040, Note_off_c, 1, 84, 0
2, 161040, Note_on_c, 1, 82, 53
2, 161160, Note_off_c, 1, 82, 0
2, 161160, Note_on_c, 1, 79, 52
2, 161280, Note_off_c, 1, 79, 0
2, 161280, Note_on_c, 1, 77, 53
2, 162000, Note_off_c, 1, 77, 0
2, 162000, Note_on_c, 1, 79, 47
2, 162120, Note_off_c, 1, 79, 0
2, 162120, Note_on_c, 1, 81, 46
2, 162240, Note_off_c, 1, 81, 0
2, 162240, Note_on_c, 1, 79, 45
2, 162720, Note_off_c, 1, 79, 0
2, 164160, Note_on_c, 1, 82, 61
2, 164280, Note_off_c, 1, 82, 0
2, 164280, Note_on_c, 1, 84, 61
2, 164400, Note_off_c, 1, 84, 0
2, 164400, Note_on_c, 1, 82, 60
2, 164520, Note_off_c, 1, 82, 0
2, 164520, Note_on_c, 1, 79, 60
2, 164640, Note_off_c, 1, 79, 0
2, 164640, Note_on_c, 1, 82, 60
2, 164760, Note_off_c, 1, 82, 0
2, 164760, Note_on_c, 1, 84, 60
2, 164880, Note_off_c, 1, 84, 0
2, 164880, Note_on_c, 1, 82, 59
2, 165000, Note_off_c, 1, 82, 0
2, 165000, Note_on_c, 1, 79, 59
2, 165120, Note_off_c, 1, 79, 0
2, 165120, Note_on_c, 1, 81, 59
2, 165240, Note_off_c, 1, 81, 0
2, 165240, Note_on_c, 1, 82, 58
2, 165360, Note_off_c, 1, 82, 0
2, 165360, Note_on_c, 1, 81, 58
2, 165480, Note_off_c, 1, 81, 0
2, 165480, Note_on_c, 1, 77, 58
2, 165600, Note_off_c, 1, 77, 0
2, 165600, Note_on_c, 1, 79, 58
2, 165720, Note_off_c, 1, 79, 0
2, 165720, Note_on_c, 1, 81, 57
2, 165840, Note_off_c, 1, 81, 0
2, 165840, Note_on_c, 1, 79, 57
2, 165960, Note_off_c, 1, 79, 0
2, 165960, Note_on_c, 1, 76, 57
2, 166080, Note_off_c, 1, 76, 0
2, 166080, Note_on_c, 1, 79, 56
2, 166200, Note_off_c, 1, 79, 0
2, 166200, Note_on_c, 1, 81, 56
2, 166320, Note_off_c, 1, 81, 0
2, 166320, Note_on_c, 1, 79, 56
2, 166440, Note_off_c, 1, 79, 0
2, 166440, Note_on_c, 1, 76, 56
2, 166560, Note_off_c, 1, 76, 0
2, 166560, Note_on_c, 1, 77, 55
2, 166680, Note_off_c, 1, 77, 0
2, 166680, Note_on_c, 1, 76, 55
2, 166800, Note_off_c, 1, 76, 0
2, 166800, Note_on_c, 1, 77, 55
2, 166920, Note_off_c, 1, 77, 0
2, 166920, Note_on_c, 1, 81, 55
2, 167040, Note_off_c, 1, 81, 0
2, 167040, Note_on_c, 1, 79, 55
2, 167760, Note_off_c, 1, 79, 0
2, 167760, Note_on_c, 1, 81, 46
2, 167880, Note_off_c, 1, 81, 0
2, 167880, Note_on_c, 1, 82, 44
2, 168000, Note_off_c, 1, 82, 0
2, 168000, Note_on_c, 1, 81, 43
2, 168427, Note_off_c, 1, 81, 0
2, 168600, Note_on_c, 1, 84, 58
2, 168720, Note_off_c, 1, 84, 0
2, 168720, Note_on_c, 1, 82, 59
2, 168840, Note_off_c, 1, 82, 0
2, 168840, Note_on_c, 1, 84, 59
2, 168960, Note_off_c, 1, 84, 0
2, 168960, Note_on_c, 1, 81, 59
2, 169080, Note_off_c, 1, 81, 0
2, 169080, Note_on_c, 1, 82, 60
2, 169200, Note_off_c, 1, 82, 0
2, 169200, Note_on_c, 1, 79, 60
2, 169320, Note_off_c, 1, 79, 0
2, 169320, Note_on_c, 1, 81, 60
2, 169440, Note_off_c, 1, 81, 0
2, 169440, Note_on_c, 1, 77, 61
2, 169560, Note_off_c, 1, 77, 0
2, 169560, Note_on_c, 1, 79, 61
2, 169680, Note_off_c, 1, 79, 0
2, 169680, Note_on_c, 1, 76, 61
2, 169800, Note_off_c, 1, 76, 0
2, 169800, Note_on_c, 1, 77, 62
2, 169920, Note_off_c, 1, 77, 0
2, 169920, Note_on_c, 1, 74, 62
2, 170154, Note_off_c, 1, 74, 0
2, 170400, Note_on_c, 1, 77, 63
2, 170634, Note_off_c, 1, 77, 0
2, 170880, Note_on_c, 1, 82, 64
2, 171114, Note_off_c, 1, 82, 0
2, 171480, Note_on_c, 1, 82, 66
2, 171600, Note_off_c, 1, 82, 0
2, 171600, Note_on_c, 1, 81, 66
2, 171720, Note_off_c, 1, 81, 0
2, 171720, Note_on_c, 1, 82, 67
2, 171840, Note_off_c, 1, 82, 0
2, 171840, Note_on_c, 1, 79, 67
2, 171960, Note_off_c, 1, 79, 0
2, 171960, Note_on_c, 1, 81, 67
2, 172080, Note_off_c, 1, 81, 0
2, 172080, Note_on_c, 1, 77, 68
2, 172200, Note_off_c, 1, 77, 0
2, 172200, Note_on_c, 1, 79, 68
2, 172320, Note_off_c, 1, 79, 0
2, 172320, Note_on_c, 1, 76, 68
2, 172440, Note_off_c, 1, 76, 0
2, 172440, Note_on_c, 1, 77, 69
2, 172560, Note_off_c, 1, 77, 0
2, 172560, Note_on_c, 1, 74, 69
2, 172680, Note_off_c, 1, 74, 0
2, 172680, Note_on_c, 1, 76, 69
2, 172800, Note_off_c, 1, 76, 0
2, 172800, Note_on_c, 1, 72, 70
2, 173034, Note_off_c, 1, 72, 0
2, 173280, Note_on_c, 1, 76, 71
2, 173514, Note_off_c, 1, 76, 0
2, 173760, Note_on_c, 1, 81, 72
2, 173994, Note_off_c, 1, 81, 0
2, 174360, Note_on_c, 1, 81, 75
2, 174480, Note_off_c, 1, 81, 0
2, 174480, Note_on_c, 1, 79, 74
2, 174600, Note_off_c, 1, 79, 0
2, 174600, Note_on_c, 1, 81, 73
2, 174720, Note_off_c, 1, 81, 0
2, 174720, Note_on_c, 1, 77, 72
2, 174840, Note_off_c, 1, 77, 0
2, 174840, Note_on_c, 1, 79, 71
2, 174960, Note_off_c, 1, 79, 0
2, 174960, Note_on_c, 1, 76, 70
2, 175080, Note_off_c, 1, 76, 0
2, 175080, Note_on_c, 1, 77, 69
2, 175200, Note_off_c, 1, 77, 0
2, 175200, Note_on_c, 1, 74, 68
2, 175320, Note_off_c, 1, 74, 0
2, 175320, Note_on_c, 1, 76, 67
2, 175440, Note_off_c, 1, 76, 0
2, 175440, Note_on_c, 1, 72, 66
2, 175560, Note_off_c, 1, 72, 0
2, 175560, Note_on_c, 1, 74, 65
2, 175680, Note_off_c, 1, 74, 0
2, 175680, Note_on_c, 1, 70, 64
2, 175800, Note_off_c, 1, 70, 0
2, 175800, Note_on_c, 1, 72, 63
2, 175920, Note_off_c, 1, 72, 0
2, 175920, Note_on_c, 1, 69, 62
2, 176040, Note_off_c, 1, 69, 0
2, 176040, Note_on_c, 1, 70, 61
2, 176160, Note_off_c, 1, 70, 0
2, 176160, Note_on_c, 1, 67, 60
2, 176280, Note_off_c, 1, 67, 0
2, 176280, Note_on_c, 1, 69, 60
2, 176400, Note_off_c, 1, 69, 0
2, 176400, Note_on_c, 1, 65, 59
2, 176520, Note_off_c, 1, 65, 0
2, 176520, Note_on_c, 1, 67, 58
2, 176640, Note_off_c, 1, 67, 0
2, 176640, Note_on_c, 1, 64, 57
2, 176760, Note_off_c, 1, 64, 0
2, 176760, Note_on_c, 1, 65, 56
2, 176880, Note_off_c, 1, 65, 0
2, 176880, Note_on_c, 1, 62, 55
2, 177000, Note_off_c, 1, 62, 0
2, 177000, Note_on_c, 1, 64, 54
2, 177120, Note_off_c, 1, 64, 0
2, 177120, Note_on_c, 1, 60, 48
2, 177225, Note_off_c, 1, 60, 0
2, 177280, Note_on_c, 1, 72, 48
2, 177385, Note_off_c, 1, 72, 0
2, 177440, Note_on_c, 1, 70, 49
2, 177545, Note_off_c, 1, 70, 0
2, 177600, Note_on_c, 1, 69, 49
2, 177705, Note_off_c, 1, 69, 0
2, 177760, Note_on_c, 1, 72, 49
2, 177865, Note_off_c, 1, 72, 0
2, 177920, Note_on_c, 1, 67, 50
2, 178025, Note_off_c, 1, 67, 0
2, 178080, Note_on_c, 1, 65, 50
2, 178185, Note_off_c, 1, 65, 0
2, 178240, Note_on_c, 1, 72, 51
2, 178345, Note_off_c, 1, 72, 0
2, 178400, Note_on_c, 1, 63, 51
2, 178505, Note_off_c, 1, 63, 0
2, 178720, Note_on_c, 1, 63, 39
2, 178880, Note_off_c, 1, 63, 0
2, 178880, Note_on_c, 1, 61, 39
2, 179040, Note_off_c, 1, 61, 0
2, 179040, Note_on_c, 1, 62, 40
2, 179200, Note_off_c, 1, 62, 0
2, 179200, Note_on_c, 1, 67, 40
2, 179360, Note_off_c, 1, 67, 0
2, 179360, Note_on_c, 1, 66, 41
2, 179520, Note_off_c, 1, 66, 0
2, 179520, Note_on_c, 1, 69, 42
2, 179680, Note_off_c, 1, 69, 0
2, 179680, Note_on_c, 1, 67, 42
2, 179840, Note_off_c, 1, 67, 0
2, 179840, Note_on_c, 1, 70, 43
2, 180000, Note_off_c, 1, 70, 0
2, 180160, Note_on_c, 1, 74, 52
2, 180265, Note_off_c, 1, 74, 0
2, 180320, Note_on_c, 1, 72, 52
2, 180425, Note_off_c, 1, 72, 0
2, 180480, Note_on_c, 1, 71, 53
2, 180585, Note_off_c, 1, 71, 0
2, 180640, Note_on_c, 1, 74, 53
2, 180745, Note_off_c, 1, 74, 0
2, 180800, Note_on_c, 1, 69, 53
2, 180905, Note_off_c, 1, 69, 0
2, 180960, Note_on_c, 1, 67, 53
2, 181065, Note_off_c, 1, 67, 0
2, 181120, Note_on_c, 1, 74, 54
2, 181225, Note_off_c, 1, 74, 0
2, 181280, Note_on_c, 1, 65, 54
2, 181385, Note_off_c, 1, 65, 0
2, 181600, Note_on_c, 1, 65, 42
2, 181760, Note_off_c, 1, 65, 0
2, 181760, Note_on_c, 1, 63, 42
2, 181920, Note_off_c, 1, 63, 0
2, 181920, Note_on_c, 1, 64, 43
2, 182080, Note_off_c, 1, 64, 0
2, 182080, Note_on_c, 1, 69, 44
2, 182240, Note_off_c, 1, 69, 0
2, 182240, Note_on_c, 1, 68, 45
2, 182400, Note_off_c, 1, 68, 0
2, 182400, Note_on_c, 1, 71, 46
2, 182560, Note_off_c, 1, 71, 0
2, 182560, Note_on_c, 1, 69, 46
2, 182720, Note_off_c, 1, 69, 0
2, 182720, Note_on_c, 1, 72, 47
2, 182880, Note_off_c, 1, 72, 0
2, 183040, Note_on_c, 1, 76, 57
2, 183145, Note_off_c, 1, 76, 0
2, 183200, Note_on_c, 1, 74, 57
2, 183305, Note_off_c, 1, 74, 0
2, 183360, Note_on_c, 1, 73, 57
2, 183465, Note_off_c, 1, 73, 0
2, 183520, Note_on_c, 1, 76, 57
2, 183625, Note_off_c, 1, 76, 0
2, 183680, Note_on_c, 1, 70, 58
2, 183785, Note_off_c, 1, 70, 0
2, 183840, Note_on_c, 1, 69, 58
2, 183945, Note_off_c, 1, 69, 0
2, 184000, Note_on_c, 1, 76, 58
2, 184105, Note_off_c, 1, 76, 0
2, 184160, Note_on_c, 1, 67, 58
2, 184265, Note_off_c, 1, 67, 0
2, 184480, Note_on_c, 1, 64, 59
2, 184640, Note_off_c, 1, 64, 0
2, 184640, Note_on_c, 1, 65, 59
2, 184800, Note_off_c, 1, 65, 0
2, 184800, Note_on_c, 1, 70, 59
2, 185110, Note_off_c, 1, 70, 0
2, 185280, Note_on_c, 1, 69, 60
2, 185590, Note_off_c, 1, 69, 0
2, 185920, Note_on_c, 1, 66, 61
2, 186080, Note_off_c, 1, 66, 0
2, 186080, Note_on_c, 1, 67, 62
2, 186240, Note_off_c, 1, 67, 0
2, 186240, Note_on_c, 1, 74, 63
2, 186550, Note_off_c, 1, 74, 0
2, 186720, Note_on_c, 1, 72, 67
2, 187030, Note_off_c, 1, 72, 0
2, 187200, Note_on_c, 1, 72, 68
2, 187320, Note_off_c, 1, 72, 0
2, 187320, Note_on_c, 1, 70, 66
2, 187440, Note_off_c, 1, 70, 0
2, 187440, Note_on_c, 1, 69, 65
2, 187560, Note_off_c, 1, 69, 0
2, 187560, Note_on_c, 1, 67, 64
2, 187680, Note_off_c, 1, 67, 0
2, 187680, Note_on_c, 1, 65, 62
2, 188160, Note_off_c, 1, 65, 0
2, 188160, Note_on_c, 1, 64, 57
2, 188240, Note_on_c, 1, 65, 56
2, 188250, Note_off_c, 1, 64, 0
2, 188320, Note_on_c, 1, 64, 55
2, 188330, Note_off_c, 1, 65, 0
2, 188400, Note_on_c, 1, 65, 54
2, 188410, Note_off_c, 1, 64, 0
2, 188460, Note_off_c, 1, 65, 0
2, 188460, Note_on_c, 1, 64, 54
2, 188520, Note_off_c, 1, 64, 0
2, 188520, Note_on_c, 1, 62, 53
2, 188580, Note_off_c, 1, 62, 0
2, 188580, Note_on_c, 1, 64, 52
2, 188640, Control_c, 1, 64, 127
2, 188640, Note_off_c, 1, 64, 0
2, 188640, Note_on_c, 1, 65, 52
2, 188985, Note_off_c, 1, 65, 0
2, 189240, Note_on_c, 1, 76, 56
2, 189360, Control_c, 1, 64, 0
2, 189360, Note_off_c, 1, 76, 0
2, 189360, Note_on_c, 1, 77, 56
2, 189480, Note_off_c, 1, 77, 0
2, 189480, Note_on_c, 1, 79, 57
2, 189600, Note_off_c, 1, 79, 0
2, 189600, Note_on_c, 1, 82, 57
2, 189720, Note_off_c, 1, 82, 0
2, 189720, Note_on_c, 1, 81, 58
2, 189840, Note_off_c, 1, 81, 0
2, 189840, Note_on_c, 1, 79, 58
2, 189960, Note_off_c, 1, 79, 0
2, 189960, Note_on_c, 1, 77, 59
2, 190080, Control_c, 1, 64, 127
2, 190080, Note_off_c, 1, 77, 0
2, 190080, Note_on_c, 1, 76, 59
2, 190560, Note_off_c, 1, 76, 0
2, 190680, Note_on_c, 1, 78, 61
2, 190800, Control_c, 1, 64, 0
2, 190800, Note_off_c, 1, 78, 0
2, 190800, Note_on_c, 1, 79, 62
2, 190920, Note_off_c, 1, 79, 0
2, 190920, Note_on_c, 1, 81, 62
2, 191040, Note_off_c, 1, 81, 0
2, 191040, Note_on_c, 1, 84, 63
2, 191160, Note_off_c, 1, 84, 0
2, 191160, Note_on_c, 1, 82, 63
2, 191280, Note_off_c, 1, 82, 0
2, 191280, Note_on_c, 1, 81, 64
2, 191400, Note_off_c, 1, 81, 0
2, 191400, Note_on_c, 1, 79, 64
2, 191520, Control_c, 1, 64, 127
2, 191520, Note_off_c, 1, 79, 0
2, 191520, Note_on_c, 1, 77, 64
2, 192000, Note_off_c, 1, 77, 0
2, 192120, Note_on_c, 1, 80, 67
2, 192240, Control_c, 1, 64, 0
2, 192240, Note_off_c, 1, 80, 0
2, 192240, Note_on_c, 1, 81, 67
2, 192360, Note_off_c, 1, 81, 0
2, 192360, Note_on_c, 1, 82, 68
2, 192480, Note_off_c, 1, 82, 0
2, 192480, Note_on_c, 1, 86, 68
2, 192600, Note_off_c, 1, 86, 0
2, 192600, Note_on_c, 1, 84, 69
2, 192720, Note_off_c, 1, 84, 0
2, 192720, Note_on_c, 1, 82, 69
2, 192840, Note_off_c, 1, 82, 0
2, 192840, Note_on_c, 1, 81, 69
2, 192960, Note_off_c, 1, 81, 0
2, 192960, Note_on_c, 1, 78, 68
2, 193080, Note_off_c, 1, 78, 0
2, 193080, Note_on_c, 1, 79, 69
2, 193200, Note_off_c, 1, 79, 0
2, 193200, Note_on_c, 1, 82, 70
2, 193320, Note_off_c, 1, 82, 0
2, 193320, Note_on_c, 1, 81, 71
2, 193440, Note_off_c, 1, 81, 0
2, 193440, Note_on_c, 1, 78, 72
2, 193560, Note_off_c, 1, 78, 0
2, 193560, Note_on_c, 1, 79, 73
2, 193680, Note_off_c, 1, 79, 0
2, 193680, Note_on_c, 1, 82, 74
2, 193800, Note_off_c, 1, 82, 0
2, 193800, Note_on_c, 1, 81, 74
2, 193920, Note_off_c, 1, 81, 0
2, 193920, Note_on_c, 1, 84, 75
2, 194040, Note_off_c, 1, 84, 0
2, 194040, Note_on_c, 1, 82, 76
2, 194160, Note_off_c, 1, 82, 0
2, 194160, Note_on_c, 1, 81, 77
2, 194280, Note_off_c, 1, 81, 0
2, 194280, Note_on_c, 1, 79, 78
2, 194400, Note_off_c, 1, 79, 0
2, 194400, Note_on_c, 1, 86, 79
2, 194520, Note_off_c, 1, 86, 0
2, 194520, Note_on_c, 1, 82, 78
2, 194640, Note_off_c, 1, 82, 0
2, 194640, Note_on_c, 1, 81, 77
2, 194760, Note_off_c, 1, 81, 0
2, 194760, Note_on_c, 1, 79, 75
2, 194880, Note_off_c, 1, 79, 0
2, 194960, Note_on_c, 1, 79, 73
2, 195040, Note_off_c, 1, 79, 0
2, 195040, Note_on_c, 1, 81, 72
2, 195120, Note_off_c, 1, 81, 0
2, 195120, Note_on_c, 1, 79, 71
2, 195200, Note_off_c, 1, 79, 0
2, 195200, Note_on_c, 1, 81, 71
2, 195280, Note_off_c, 1, 81, 0
2, 195280, Note_on_c, 1, 79, 70
2, 195360, Note_off_c, 1, 79, 0
2, 195360, Note_on_c, 1, 81, 69
2, 195480, Note_off_c, 1, 81, 0
2, 195480, Note_on_c, 1, 79, 68
2, 195600, Note_off_c, 1, 79, 0
2, 195600, Note_on_c, 1, 77, 66
2, 195720, Note_off_c, 1, 77, 0
2, 195720, Note_on_c, 1, 79, 65
2, 195840, Control_c, 1, 64, 127
2, 195840, Note_off_c, 1, 79, 0
2, 195960, Note_on_c, 1, 77, 62
2, 196275, Note_off_c, 1, 77, 0
2, 196440, Note_on_c, 1, 64, 64
2, 196560, Control_c, 1, 64, 0
2, 196560, Note_off_c, 1, 64, 0
2, 196560, Note_on_c, 1, 65, 64
2, 196680, Note_off_c, 1, 65, 0
2, 196680, Note_on_c, 1, 67, 64
2, 196800, Note_off_c, 1, 67, 0
2, 196800, Note_on_c, 1, 70, 65
2, 196920, Note_off_c, 1, 70, 0
2, 196920, Note_on_c, 1, 69, 65
2, 197040, Note_off_c, 1, 69, 0
2, 197040, Note_on_c, 1, 67, 66
2, 197160, Note_off_c, 1, 67, 0
2, 197160, Note_on_c, 1, 65, 66
2, 197280, Control_c, 1, 64, 127
2, 197280, Note_off_c, 1, 65, 0
2, 197280, Note_on_c, 1, 64, 66
2, 197760, Note_off_c, 1, 64, 0
2, 197880, Note_on_c, 1, 66, 68
2, 198000, Control_c, 1, 64, 0
2, 198000, Note_off_c, 1, 66, 0
2, 198000, Note_on_c, 1, 67, 69
2, 198120, Note_off_c, 1, 67, 0
2, 198120, Note_on_c, 1, 69, 69
2, 198240, Note_off_c, 1, 69, 0
2, 198240, Note_on_c, 1, 72, 69
2, 198360, Note_off_c, 1, 72, 0
2, 198360, Note_on_c, 1, 70, 70
2, 198480, Note_off_c, 1, 70, 0
2, 198480, Note_on_c, 1, 69, 70
2, 198600, Note_off_c, 1, 69, 0
2, 198600, Note_on_c, 1, 67, 71
2, 198720, Control_c, 1, 64, 127
2, 198720, Note_off_c, 1, 67, 0
2, 198720, Note_on_c, 1, 65, 71
2, 199200, Note_off_c, 1, 65, 0
2, 199320, Note_on_c, 1, 68, 73
2, 199440, Control_c, 1, 64, 0
2, 199440, Note_off_c, 1, 68, 0
2, 199440, Note_on_c, 1, 69, 73
2, 199560, Note_off_c, 1, 69, 0
2, 199560, Note_on_c, 1, 70, 74
2, 199680, Note_off_c, 1, 70, 0
2, 199680, Note_on_c, 1, 74, 74
2, 199800, Note_off_c, 1, 74, 0
2, 199800, Note_on_c, 1, 72, 75
2, 199920, Note_off_c, 1, 72, 0
2, 199920, Note_on_c, 1, 70, 75
2, 200040, Note_off_c, 1, 70, 0
2, 200040, Note_on_c, 1, 69, 75
2, 200160, Control_c, 1, 64, 127
2, 200160, Note_off_c, 1, 69, 0
2, 200160, Note_on_c, 1, 67, 76
2, 200640, Control_c, 1, 64, 127
2, 200640, Note_off_c, 1, 67, 0
2, 200760, Note_on_c, 1, 55, 78
2, 200880, Control_c, 1, 64, 0
2, 200880, Note_off_c, 1, 55, 0
2, 200880, Note_on_c, 1, 58, 78
2, 201000, Note_off_c, 1, 58, 0
2, 201000, Note_on_c, 1, 62, 79
2, 201120, Control_c, 1, 64, 127
2, 201120, Note_off_c, 1, 62, 0
2, 201120, Note_on_c, 1, 67, 79
2, 201360, Control_c, 1, 64, 0
2, 201360, Note_off_c, 1, 67, 0
2, 201600, Control_c, 1, 64, 127
2, 201720, Note_on_c, 1, 62, 82
2, 201840, Control_c, 1, 64, 0
2, 201840, Note_off_c, 1, 62, 0
2, 201840, Note_on_c, 1, 67, 82
2, 201960, Note_off_c, 1, 67, 0
2, 201960, Note_on_c, 1, 70, 83
2, 202080, Control_c, 1, 64, 127
2, 202080, Note_off_c, 1, 70, 0
2, 202080, Note_on_c, 1, 74, 83
2, 202320, Control_c, 1, 64, 0
2, 202320, Note_off_c, 1, 74, 0
2, 202680, Note_on_c, 1, 76, 86
2, 202800, Control_c, 1, 64, 0
2, 202800, Note_off_c, 1, 76, 0
2, 202800, Note_on_c, 1, 77, 86
2, 202920, Note_off_c, 1, 77, 0
2, 202920, Note_on_c, 1, 73, 86
2, 203040, Note_off_c, 1, 73, 0
2, 203040, Note_on_c, 1, 74, 87
2, 203160, Note_off_c, 1, 74, 0
2, 203160, Note_on_c, 1, 69, 85
2, 203280, Note_off_c, 1, 69, 0
2, 203280, Note_on_c, 1, 70, 85
2, 203400, Note_off_c, 1, 70, 0
2, 203400, Note_on_c, 1, 67, 84
2, 203520, Note_off_c, 1, 67, 0
2, 203520, Note_on_c, 1, 65, 83
2, 203600, Note_on_c, 1, 67, 83
2, 203616, Note_off_c, 1, 65, 0
2, 203680, Note_on_c, 1, 69, 83
2, 203696, Note_off_c, 1, 67, 0
2, 203760, Note_on_c, 1, 67, 82
2, 203776, Note_off_c, 1, 69, 0
2, 203840, Note_on_c, 1, 69, 82
2, 203856, Note_off_c, 1, 67, 0
2, 203920, Note_on_c, 1, 67, 82
2, 203945, Note_off_c, 1, 69, 0
2, 204000, Note_on_c, 1, 69, 81
2, 204010, Note_off_c, 1, 67, 0
2, 204120, Note_off_c, 1, 69, 0
2, 204120, Note_on_c, 1, 67, 81
2, 204240, Note_off_c, 1, 67, 0
2, 204240, Note_on_c, 1, 65, 80
2, 204360, Note_off_c, 1, 65, 0
2, 204360, Note_on_c, 1, 67, 80
2, 204480, Note_off_c, 1, 67, 0
2, 204480, Note_on_c, 1, 65, 80
2, 204635, Note_off_c, 1, 65, 0
2, 204720, Note_on_c, 1, 69, 81
2, 204875, Note_off_c, 1, 69, 0
2, 204960, Note_on_c, 1, 72, 82
2, 205270, Note_off_c, 1, 72, 0
2, 205440, Note_on_c, 1, 76, 84
2, 205520, Note_on_c, 1, 77, 84
2, 205536, Note_off_c, 1, 76, 0
2, 205600, Note_on_c, 1, 76, 84
2, 205616, Note_off_c, 1, 77, 0
2, 205680, Note_on_c, 1, 77, 85
2, 205696, Note_off_c, 1, 76, 0
2, 205740, Note_on_c, 1, 76, 85
2, 205776, Note_off_c, 1, 77, 0
2, 205800, Note_on_c, 1, 74, 85
2, 205820, Note_off_c, 1, 76, 0
2, 205860, Note_on_c, 1, 76, 85
2, 205890, Note_off_c, 1, 74, 0
2, 205920, Note_on_c, 1, 77, 86
2, 205935, Note_off_c, 1, 76, 0
2, 206075, Note_off_c, 1, 77, 0
2, 206160, Note_on_c, 1, 69, 86
2, 206315, Note_off_c, 1, 69, 0
2, 206400, Note_on_c, 1, 72, 87
2, 206710, Note_off_c, 1, 72, 0
2, 206880, Note_on_c, 1, 76, 89
2, 206960, Note_on_c, 1, 77, 90
2, 206985, Note_off_c, 1, 76, 0
2, 207040, Note_on_c, 1, 76, 90
2, 207055, Note_off_c, 1, 77, 0
2, 207120, Note_on_c, 1, 77, 90
2, 207140, Note_off_c, 1, 76, 0
2, 207180, Note_on_c, 1, 76, 90
2, 207195, Note_off_c, 1, 77, 0
2, 207240, Note_on_c, 1, 74, 91
2, 207255, Note_off_c, 1, 76, 0
2, 207300, Note_on_c, 1, 76, 91
2, 207320, Note_off_c, 1, 74, 0
2, 207360, Note_on_c, 1, 77, 91
2, 207367, Note_off_c, 1, 76, 0
2, 207745, Note_off_c, 1, 77, 0
2, 207840, Note_on_c, 1, 65, 91
2, 208225, Note_off_c, 1, 65, 0
2, 211680, Control_c, 1, 64, 0
2, 211680, Note_on_c, 1, 72, 60
2, 212040, Note_off_c, 1, 72, 0
2, 212040, Note_on_c, 1, 73, 58
2, 212160, Note_off_c, 1, 73, 0
2, 212160, Note_on_c, 1, 72, 58
2, 212400, Note_off_c, 1, 72, 0
2, 212400, Note_on_c, 1, 72, 57
2, 212880, Note_off_c, 1, 72, 0
2, 212880, Note_on_c, 1, 77, 53
2, 213120, Note_off_c, 1, 77, 0
2, 213120, Note_on_c, 1, 77, 54
2, 214080, Note_off_c, 1, 77, 0
2, 214080, Note_on_c, 1, 75, 50
2, 214320, Note_off_c, 1, 75, 0
2, 214320, Note_on_c, 1, 73, 49
2, 214560, Note_off_c, 1, 73, 0
2, 214560, Note_on_c, 1, 72, 48
2, 215520, Note_on_c, 1, 68, 43
2, 215760, Note_off_c, 1, 68, 0
2, 215760, Note_on_c, 1, 70, 44
2, 215990, Note_off_c, 1, 72, 0
2, 216000, Note_off_c, 1, 70, 0
2, 216000, Note_on_c, 1, 70, 57
2, 216355, Note_off_c, 1, 70, 0
2, 216360, Note_on_c, 1, 68, 54
2, 216480, Note_off_c, 1, 68, 0
2, 216480, Note_on_c, 1, 67, 54
2, 216720, Note_off_c, 1, 67, 0
2, 216720, Note_on_c, 1, 68, 52
2, 217785, Note_off_c, 1, 68, 0
2, 217800, Note_on_c, 1, 70, 45
2, 217920, Note_off_c, 1, 70, 0
2, 217920, Note_on_c, 1, 68, 45
2, 218160, Note_off_c, 1, 68, 0
2, 218160, Note_on_c, 1, 67, 43
2, 218400, Note_off_c, 1, 67, 0
2, 218400, Note_on_c, 1, 68, 42
2, 218640, Note_off_c, 1, 68, 0
2, 218640, Note_on_c, 1, 70, 44
2, 218880, Note_off_c, 1, 70, 0
2, 218880, Note_on_c, 1, 70, 51
2, 219235, Note_off_c, 1, 70, 0
2, 219240, Note_on_c, 1, 68, 48
2, 219360, Note_off_c, 1, 68, 0
2, 219360, Note_on_c, 1, 67, 48
2, 219600, Note_off_c, 1, 67, 0
2, 219600, Note_on_c, 1, 68, 46
2, 220680, Note_off_c, 1, 68, 0
2, 220680, Note_on_c, 1, 67, 41
2, 220800, Note_off_c, 1, 67, 0
2, 220800, Note_on_c, 1, 68, 40
2, 221040, Note_off_c, 1, 68, 0
2, 221040, Note_on_c, 1, 70, 39
2, 221280, Note_off_c, 1, 70, 0
2, 221280, Note_on_c, 1, 68, 40
2, 221520, Note_off_c, 1, 68, 0
2, 221520, Note_on_c, 1, 67, 43
2, 221750, Note_off_c, 1, 67, 0
2, 221760, Note_on_c, 1, 67, 40
2, 222465, Note_off_c, 1, 67, 0
2, 222480, Note_on_c, 1, 65, 27
2, 222840, Note_off_c, 1, 65, 0
2, 223200, Control_c, 1, 64, 0
2, 223200, Note_on_c, 1, 68, 36
2, 223440, Note_off_c, 1, 68, 0
2, 223680, Note_on_c, 1, 68, 38
2, 223920, Note_off_c, 1, 68, 0
2, 223920, Note_on_c, 1, 70, 39
2, 224160, Note_off_c, 1, 70, 0
2, 224400, Note_on_c, 1, 70, 42
2, 224640, Note_off_c, 1, 70, 0
2, 224640, Note_on_c, 1, 70, 47
2, 225360, Note_off_c, 1, 70, 0
2, 225360, Note_on_c, 1, 72, 37
2, 225600, Note_off_c, 1, 72, 0
2, 225840, Note_on_c, 1, 68, 37
2, 226080, Note_off_c, 1, 68, 0
2, 226080, Note_on_c, 1, 73, 41
2, 226320, Note_off_c, 1, 73, 0
2, 226560, Note_on_c, 1, 72, 34
2, 226800, Note_off_c, 1, 72, 0
2, 226800, Note_on_c, 1, 77, 36
2, 227040, Note_off_c, 1, 77, 0
2, 227280, Note_on_c, 1, 65, 32
2, 227520, Note_off_c, 1, 65, 0
2, 227520, Note_on_c, 1, 68, 37
2, 228240, Note_off_c, 1, 68, 0
2, 228240, Note_on_c, 1, 67, 29
2, 228480, Note_off_c, 1, 67, 0
2, 228720, Note_on_c, 1, 75, 40
2, 228960, Note_off_c, 1, 75, 0
2, 228960, Note_on_c, 1, 74, 48
2, 229680, Note_off_c, 1, 74, 0
2, 229680, Note_on_c, 1, 80, 36
2, 229920, Note_off_c, 1, 80, 0
2, 230400, Note_on_c, 1, 79, 42
2, 231120, Note_off_c, 1, 79, 0
2, 231120, Note_on_c, 1, 82, 30
2, 231360, Note_off_c, 1, 82, 0
2, 231840, Note_on_c, 1, 83, 56
2, 232560, Note_off_c, 1, 83, 0
2, 232560, Note_on_c, 1, 80, 40
2, 232800, Note_off_c, 1, 80, 0
2, 233280, Note_on_c, 1, 87, 53
2, 234000, Note_off_c, 1, 87, 0
2, 234000, Note_on_c, 1, 79, 36
2, 234240, Note_off_c, 1, 79, 0
2, 234960, Note_on_c, 1, 80, 38
2, 235150, Note_off_c, 1, 80, 0
2, 235200, Note_on_c, 1, 80, 35
2, 235390, Note_off_c, 1, 80, 0
2, 235680, Note_on_c, 1, 77, 34
2, 235870, Note_off_c, 1, 77, 0
2, 235920, Note_on_c, 1, 77, 31
2, 236110, Note_off_c, 1, 77, 0
2, 236400, Note_on_c, 1, 75, 31
2, 236590, Note_off_c, 1, 75, 0
2, 236640, Note_on_c, 1, 75, 28
2, 236830, Note_off_c, 1, 75, 0
2, 237120, Note_on_c, 1, 79, 34
2, 237310, Note_off_c, 1, 79, 0
2, 237360, Note_on_c, 1, 79, 38
2, 237550, Note_off_c, 1, 79, 0
2, 237600, Control_c, 1, 64, 0
2, 237600, Note_on_c, 1, 80, 55
2, 237640, Control_c, 1, 64, 127
2, 238080, Note_off_c, 1, 80, 0
2, 238080, Note_on_c, 1, 84, 48
2, 238200, Note_off_c, 1, 84, 0
2, 238200, Note_on_c, 1, 80, 46
2, 238320, Control_c, 1, 64, 0
2, 238320, Note_off_c, 1, 80, 0
2, 238320, Note_on_c, 1, 77, 44
2, 238360, Control_c, 1, 64, 127
2, 238680, Note_off_c, 1, 77, 0
2, 238680, Note_on_c, 1, 80, 38
2, 238800, Note_off_c, 1, 80, 0
2, 238800, Note_on_c, 1, 79, 36
2, 238920, Note_off_c, 1, 79, 0
2, 238920, Note_on_c, 1, 77, 34
2, 239040, Control_c, 1, 64, 0
2, 239040, Note_off_c, 1, 77, 0
2, 239040, Note_on_c, 1, 75, 36
2, 239080, Control_c, 1, 64, 127
2, 239400, Note_off_c, 1, 75, 0
2, 239400, Note_on_c, 1, 77, 35
2, 239460, Note_off_c, 1, 77, 0
2, 239460, Note_on_c, 1, 75, 35
2, 239520, Note_off_c, 1, 75, 0
2, 239520, Note_on_c, 1, 73, 34
2, 239580, Note_on_c, 1, 72, 34
2, 239595, Note_off_c, 1, 73, 0
2, 239640, Note_on_c, 1, 70, 33
2, 239660, Note_off_c, 1, 72, 0
2, 239700, Note_off_c, 1, 70, 0
2, 239700, Note_on_c, 1, 68, 33
2, 239760, Control_c, 1, 64, 0
2, 239760, Note_on_c, 1, 70, 33
2, 239785, Note_off_c, 1, 68, 0
2, 239800, Control_c, 1, 64, 127
2, 239800, Note_on_c, 1, 72, 33
2, 239820, Note_off_c, 1, 70, 0
2, 239840, Note_on_c, 1, 70, 33
2, 239860, Note_off_c, 1, 72, 0
2, 239880, Note_on_c, 1, 72, 32
2, 239900, Note_off_c, 1, 70, 0
2, 239920, Note_on_c, 1, 70, 32
2, 239940, Note_off_c, 1, 72, 0
2, 239960, Note_on_c, 1, 72, 31
2, 239980, Note_off_c, 1, 70, 0
2, 240000, Note_on_c, 1, 70, 31
2, 240020, Note_off_c, 1, 72, 0
2, 240040, Note_on_c, 1, 72, 30
2, 240060, Note_off_c, 1, 70, 0
2, 240080, Note_on_c, 1, 70, 30
2, 240100, Note_off_c, 1, 72, 0
2, 240120, Note_on_c, 1, 72, 30
2, 240140, Note_off_c, 1, 70, 0
2, 240160, Note_on_c, 1, 70, 29
2, 240180, Note_off_c, 1, 72, 0
2, 240200, Note_on_c, 1, 72, 29
2, 240220, Note_off_c, 1, 70, 0
2, 240240, Note_on_c, 1, 70, 28
2, 240260, Note_off_c, 1, 72, 0
2, 240280, Note_on_c, 1, 72, 28
2, 240300, Note_off_c, 1, 70, 0
2, 240320, Note_on_c, 1, 70, 28
2, 240340, Note_off_c, 1, 72, 0
2, 240360, Note_on_c, 1, 68, 27
2, 240380, Note_off_c, 1, 70, 0
2, 240420, Note_off_c, 1, 68, 0
2, 240420, Note_on_c, 1, 70, 26
2, 240480, Control_c, 1, 64, 0
2, 240480, Note_off_c, 1, 70, 0
2, 240480, Note_on_c, 1, 68, 26
2, 240720, Note_off_c, 1, 68, 0
2, 240960, Note_on_c, 1, 72, 36
2, 241195, Note_off_c, 1, 72, 0
2, 241200, Note_on_c, 1, 72, 33
2, 241435, Note_off_c, 1, 72, 0
2, 241680, Note_on_c, 1, 73, 43
2, 241915, Note_off_c, 1, 73, 0
2, 241920, Note_on_c, 1, 72, 45
2, 242155, Note_off_c, 1, 72, 0
2, 242280, Note_on_c, 1, 73, 41
2, 242400, Note_off_c, 1, 73, 0
2, 242400, Note_on_c, 1, 70, 40
2, 242635, Note_off_c, 1, 70, 0
2, 242640, Note_on_c, 1, 68, 38
2, 242875, Note_off_c, 1, 68, 0
2, 243120, Note_on_c, 1, 60, 33
2, 243355, Note_off_c, 1, 60, 0
2, 243360, Note_on_c, 1, 60, 31
2, 243595, Note_off_c, 1, 60, 0
2, 243840, Note_on_c, 1, 61, 37
2, 244075, Note_off_c, 1, 61, 0
2, 244080, Note_on_c, 1, 60, 40
2, 244315, Note_off_c, 1, 60, 0
2, 244440, Note_on_c, 1, 61, 35
2, 244560, Note_off_c, 1, 61, 0
2, 244560, Note_on_c, 1, 58, 34
2, 244795, Note_off_c, 1, 58, 0
2, 244800, Note_on_c, 1, 58, 32
2, 245501, Note_off_c, 1, 58, 0
2, 245520, Note_on_c, 1, 56, 24
2, 245760, Note_off_c, 1, 56, 0
2, 246240, Note_on_c, 1, 72, 60
2, 246600, Note_off_c, 1, 72, 0
2, 246600, Note_on_c, 1, 73, 59
2, 246715, Note_off_c, 1, 73, 0
2, 246720, Note_on_c, 1, 72, 59
2, 246950, Note_off_c, 1, 72, 0
2, 246960, Note_on_c, 1, 72, 57
2, 247440, Note_off_c, 1, 72, 0
2, 247440, Note_on_c, 1, 77, 52
2, 247680, Note_off_c, 1, 77, 0
2, 247680, Note_on_c, 1, 77, 54
2, 248640, Note_off_c, 1, 77, 0
2, 248640, Note_on_c, 1, 75, 50
2, 248880, Note_off_c, 1, 75, 0
2, 248880, Note_on_c, 1, 73, 49
2, 249120, Note_off_c, 1, 73, 0
2, 249120, Note_on_c, 1, 72, 48
2, 250080, Note_on_c, 1, 68, 43
2, 250320, Note_off_c, 1, 68, 0
2, 250320, Note_on_c, 1, 70, 46
2, 250545, Note_off_c, 1, 70, 0
2, 250550, Note_off_c, 1, 72, 0
2, 250560, Note_on_c, 1, 70, 57
2, 250915, Note_off_c, 1, 70, 0
2, 250920, Note_on_c, 1, 68, 53
2, 251040, Note_off_c, 1, 68, 0
2, 251040, Note_on_c, 1, 67, 52
2, 251280, Note_off_c, 1, 67, 0
2, 251280, Note_on_c, 1, 68, 49
2, 252345, Note_off_c, 1, 68, 0
2, 252360, Note_on_c, 1, 70, 43
2, 252480, Note_off_c, 1, 70, 0
2, 252480, Note_on_c, 1, 68, 42
2, 252720, Note_off_c, 1, 68, 0
2, 252720, Note_on_c, 1, 67, 40
2, 252960, Note_off_c, 1, 67, 0
2, 252960, Note_on_c, 1, 68, 38
2, 253200, Note_off_c, 1, 68, 0
2, 253200, Note_on_c, 1, 70, 41
2, 253440, Note_off_c, 1, 70, 0
2, 253440, Note_on_c, 1, 70, 49
2, 253795, Note_off_c, 1, 70, 0
2, 253800, Note_on_c, 1, 68, 47
2, 253920, Note_off_c, 1, 68, 0
2, 253920, Note_on_c, 1, 67, 46
2, 254160, Note_off_c, 1, 67, 0
2, 254160, Note_on_c, 1, 68, 45
2, 255240, Note_off_c, 1, 68, 0
2, 255240, Note_on_c, 1, 67, 39
2, 255360, Note_off_c, 1, 67, 0
2, 255360, Note_on_c, 1, 68, 38
2, 255600, Note_off_c, 1, 68, 0
2, 255600, Note_on_c, 1, 70, 37
2, 255825, Note_off_c, 1, 70, 0
2, 255840, Note_on_c, 1, 68, 36
2, 256080, Note_off_c, 1, 68, 0
2, 256080, Note_on_c, 1, 67, 42
2, 256310, Note_off_c, 1, 67, 0
2, 256320, Note_on_c, 1, 67, 41
2, 257040, Note_off_c, 1, 67, 0
2, 257040, Note_on_c, 1, 65, 28
2, 257274, Note_off_c, 1, 65, 0
2, 257760, Note_on_c, 1, 68, 40
2, 258000, Note_off_c, 1, 68, 0
2, 258240, Note_on_c, 1, 68, 42
2, 258480, Note_off_c, 1, 68, 0
2, 258480, Note_on_c, 1, 70, 43
2, 258720, Note_off_c, 1, 70, 0
2, 258960, Note_on_c, 1, 63, 46
2, 259200, Note_off_c, 1, 63, 0
2, 259200, Note_on_c, 1, 70, 50
2, 259840, Note_off_c, 1, 70, 0
2, 259860, Note_on_c, 1, 72, 38
2, 259915, Note_off_c, 1, 72, 0
2, 259920, Note_on_c, 1, 72, 36
2, 260160, Note_off_c, 1, 72, 0
2, 260400, Note_on_c, 1, 68, 33
2, 260440, Note_on_c, 1, 70, 35
2, 260450, Note_off_c, 1, 68, 0
2, 260480, Note_on_c, 1, 68, 36
2, 260490, Note_off_c, 1, 70, 0
2, 260520, Note_on_c, 1, 67, 38
2, 260530, Note_off_c, 1, 68, 0
2, 260560, Note_on_c, 1, 68, 39
2, 260570, Note_off_c, 1, 67, 0
2, 260600, Note_on_c, 1, 73, 41
2, 260610, Note_off_c, 1, 68, 0
2, 260635, Note_off_c, 1, 73, 0
2, 260640, Note_on_c, 1, 73, 43
2, 260880, Note_off_c, 1, 73, 0
2, 261120, Note_on_c, 1, 72, 35
2, 261300, Note_on_c, 1, 77, 35
2, 261305, Note_off_c, 1, 72, 0
2, 261355, Note_off_c, 1, 77, 0
2, 261360, Note_on_c, 1, 77, 38
2, 261600, Note_off_c, 1, 77, 0
2, 261840, Note_on_c, 1, 65, 33
2, 262080, Note_off_c, 1, 65, 0
2, 262080, Note_on_c, 1, 68, 41
2, 262680, Note_off_c, 1, 68, 0
2, 262680, Note_on_c, 1, 70, 29
2, 262740, Note_off_c, 1, 70, 0
2, 262740, Note_on_c, 1, 68, 28
2, 262800, Note_off_c, 1, 68, 0
2, 262800, Note_on_c, 1, 67, 27
2, 263040, Note_off_c, 1, 67, 0
2, 263280, Note_on_c, 1, 75, 40
2, 263445, Note_off_c, 1, 75, 0
2, 263460, Note_on_c, 1, 74, 45
2, 263515, Note_off_c, 1, 74, 0
2, 263520, Note_on_c, 1, 74, 53
2, 264225, Note_off_c, 1, 74, 0
2, 264240, Note_on_c, 1, 80, 37
2, 264480, Note_off_c, 1, 80, 0
2, 264960, Note_on_c, 1, 79, 48
2, 265620, Note_off_c, 1, 79, 0
2, 265620, Note_on_c, 1, 80, 35
2, 265680, Note_off_c, 1, 80, 0
2, 265680, Note_on_c, 1, 82, 33
2, 265920, Note_off_c, 1, 82, 0
2, 266400, Note_on_c, 1, 83, 56
2, 267000, Note_on_c, 1, 85, 45
2, 267005, Note_off_c, 1, 83, 0
2, 267060, Note_off_c, 1, 85, 0
2, 267060, Note_on_c, 1, 83, 43
2, 267110, Note_off_c, 1, 83, 0
2, 267120, Note_on_c, 1, 82, 42
2, 267360, Note_off_c, 1, 82, 0
2, 267600, Note_on_c, 1, 80, 44
2, 267780, Note_on_c, 1, 87, 46
2, 267785, Note_off_c, 1, 80, 0
2, 267830, Note_off_c, 1, 87, 0
2, 267840, Note_on_c, 1, 87, 51
2, 268320, Note_on_c, 1, 85, 42
2, 268325, Note_off_c, 1, 87, 0
2, 268380, Note_off_c, 1, 85, 0
2, 268380, Note_on_c, 1, 84, 40
2, 268440, Note_off_c, 1, 84, 0
2, 268440, Note_on_c, 1, 82, 38
2, 268500, Note_off_c, 1, 82, 0
2, 268500, Note_on_c, 1, 80, 36
2, 268560, Note_off_c, 1, 80, 0
2, 268560, Note_on_c, 1, 79, 35
2, 268800, Note_off_c, 1, 79, 0
2, 269040, Note_on_c, 1, 75, 39
2, 269255, Note_off_c, 1, 75, 0
2, 269520, Note_on_c, 1, 80, 41
2, 269710, Note_off_c, 1, 80, 0
2, 269760, Note_on_c, 1, 80, 36
2, 269950, Note_off_c, 1, 80, 0
2, 270240, Note_on_c, 1, 77, 36
2, 270430, Note_off_c, 1, 77, 0
2, 270480, Note_on_c, 1, 77, 33
2, 270670, Note_off_c, 1, 77, 0
2, 270960, Note_on_c, 1, 75, 32
2, 271150, Note_off_c, 1, 75, 0
2, 271200, Note_on_c, 1, 75, 28
2, 271390, Note_off_c, 1, 75, 0
2, 271680, Note_on_c, 1, 79, 32
2, 271870, Note_off_c, 1, 79, 0
2, 271920, Note_on_c, 1, 79, 38
2, 272100, Note_off_c, 1, 79, 0
2, 272100, Note_on_c, 1, 80, 47
2, 272145, Note_off_c, 1, 80, 0
2, 272160, Control_c, 1, 64, 0
2, 272160, Note_on_c, 1, 80, 58
2, 272200, Control_c, 1, 64, 127
2, 272515, Note_off_c, 1, 80, 0
2, 272520, Note_on_c, 1, 80, 50
2, 272640, Note_off_c, 1, 80, 0
2, 272640, Note_on_c, 1, 84, 47
2, 272760, Note_off_c, 1, 84, 0
2, 272760, Note_on_c, 1, 80, 45
2, 272865, Note_off_c, 1, 80, 0
2, 272880, Control_c, 1, 64, 0
2, 272880, Note_on_c, 1, 79, 42
2, 272920, Control_c, 1, 64, 127
2, 273000, Note_off_c, 1, 79, 0
2, 273000, Note_on_c, 1, 77, 44
2, 273225, Note_off_c, 1, 77, 0
2, 273240, Note_on_c, 1, 80, 41
2, 273360, Note_off_c, 1, 80, 0
2, 273360, Note_on_c, 1, 79, 40
2, 273480, Note_off_c, 1, 79, 0
2, 273480, Note_on_c, 1, 77, 39
2, 273585, Note_off_c, 1, 77, 0
2, 273600, Control_c, 1, 64, 0
2, 273600, Note_on_c, 1, 77, 37
2, 273640, Control_c, 1, 64, 127
2, 273720, Note_off_c, 1, 77, 0
2, 273720, Note_on_c, 1, 75, 39
2, 273960, Note_off_c, 1, 75, 0
2, 273960, Note_on_c, 1, 77, 37
2, 274020, Note_off_c, 1, 77, 0
2, 274020, Note_on_c, 1, 75, 36
2, 274080, Note_on_c, 1, 73, 36
2, 274095, Note_off_c, 1, 75, 0
2, 274140, Note_on_c, 1, 72, 36
2, 274155, Note_off_c, 1, 73, 0
2, 274200, Note_on_c, 1, 70, 35
2, 274230, Note_off_c, 1, 72, 0
2, 274260, Note_off_c, 1, 70, 0
2, 274260, Note_on_c, 1, 68, 36
2, 274320, Control_c, 1, 64, 0
2, 274320, Note_on_c, 1, 70, 35
2, 274340, Note_off_c, 1, 68, 0
2, 274360, Control_c, 1, 64, 127
2, 274360, Note_on_c, 1, 72, 34
2, 274380, Note_off_c, 1, 70, 0
2, 274400, Note_on_c, 1, 70, 34
2, 274420, Note_off_c, 1, 72, 0
2, 274440, Note_on_c, 1, 72, 34
2, 274460, Note_off_c, 1, 70, 0
2, 274480, Note_on_c, 1, 70, 33
2, 274500, Note_off_c, 1, 72, 0
2, 274520, Note_on_c, 1, 72, 33
2, 274540, Note_off_c, 1, 70, 0
2, 274560, Note_on_c, 1, 70, 32
2, 274580, Note_off_c, 1, 72, 0
2, 274600, Note_on_c, 1, 72, 32
2, 274620, Note_off_c, 1, 70, 0
2, 274640, Note_on_c, 1, 70, 31
2, 274660, Note_off_c, 1, 72, 0
2, 274680, Note_on_c, 1, 72, 31
2, 274700, Note_off_c, 1, 70, 0
2, 274720, Note_on_c, 1, 70, 30
2, 274740, Note_off_c, 1, 72, 0
2, 274760, Note_on_c, 1, 72, 30
2, 274780, Note_off_c, 1, 70, 0
2, 274800, Note_on_c, 1, 70, 30
2, 274820, Note_off_c, 1, 72, 0
2, 274840, Note_on_c, 1, 72, 29
2, 274860, Note_off_c, 1, 70, 0
2, 274880, Note_on_c, 1, 70, 29
2, 274900, Note_off_c, 1, 72, 0
2, 274920, Note_on_c, 1, 68, 28
2, 274940, Note_off_c, 1, 70, 0
2, 274980, Note_on_c, 1, 70, 28
2, 274995, Note_off_c, 1, 68, 0
2, 275040, Control_c, 1, 64, 0
2, 275040, Note_off_c, 1, 70, 0
2, 275040, Note_on_c, 1, 68, 27
2, 275275, Note_off_c, 1, 68, 0
2, 275520, Note_on_c, 1, 72, 29
2, 275755, Note_off_c, 1, 72, 0
2, 275760, Note_on_c, 1, 72, 27
2, 275995, Note_off_c, 1, 72, 0
2, 276240, Note_on_c, 1, 73, 43
2, 276475, Note_off_c, 1, 73, 0
2, 276480, Note_on_c, 1, 72, 45
2, 276840, Note_off_c, 1, 72, 0
2, 276840, Note_on_c, 1, 73, 42
2, 276960, Note_off_c, 1, 73, 0
2, 276960, Note_on_c, 1, 70, 41
2, 277195, Note_off_c, 1, 70, 0
2, 277200, Note_on_c, 1, 68, 39
2, 277435, Note_off_c, 1, 68, 0
2, 277680, Note_on_c, 1, 60, 35
2, 277915, Note_off_c, 1, 60, 0
2, 277920, Note_on_c, 1, 60, 33
2, 278155, Note_off_c, 1, 60, 0
2, 278400, Note_on_c, 1, 61, 39
2, 278635, Note_off_c, 1, 61, 0
2, 278640, Note_on_c, 1, 60, 41
2, 279000, Note_off_c, 1, 60, 0
2, 279000, Note_on_c, 1, 61, 37
2, 279120, Note_off_c, 1, 61, 0
2, 279120, Note_on_c, 1, 58, 36
2, 279345, Note_off_c, 1, 58, 0
2, 279360, Note_on_c, 1, 58, 33
2, 280080, Note_off_c, 1, 58, 0
2, 280080, Note_on_c, 1, 56, 25
2, 280320, Note_off_c, 1, 56, 0
2, 280800, Note_on_c, 1, 75, 40
2, 281150, Note_off_c, 1, 75, 0
2, 281160, Note_on_c, 1, 77, 43
2, 281275, Note_off_c, 1, 77, 0
2, 281280, Note_on_c, 1, 75, 44
2, 281505, Note_off_c, 1, 75, 0
2, 281520, Note_on_c, 1, 75, 44
2, 281990, Note_off_c, 1, 75, 0
2, 282000, Note_on_c, 1, 75, 40
2, 282240, Note_off_c, 1, 75, 0
2, 282240, Note_on_c, 1, 75, 60
2, 282720, Note_off_c, 1, 75, 0
2, 282720, Note_on_c, 1, 77, 54
2, 282960, Note_off_c, 1, 77, 0
2, 282960, Note_on_c, 1, 78, 51
2, 283190, Note_off_c, 1, 78, 0
2, 283680, Note_on_c, 1, 63, 46
2, 284160, Note_off_c, 1, 63, 0
2, 284160, Note_on_c, 1, 65, 37
2, 284400, Note_off_c, 1, 65, 0
2, 284400, Note_on_c, 1, 66, 34
2, 284635, Note_off_c, 1, 66, 0
2, 285120, Note_on_c, 1, 70, 71
2, 285275, Note_off_c, 1, 70, 0
2, 285360, Note_on_c, 1, 69, 75
2, 285515, Note_off_c, 1, 69, 0
2, 285600, Note_on_c, 1, 70, 79
2, 285765, Note_off_c, 1, 70, 0
2, 285920, Note_on_c, 1, 75, 72
2, 286080, Note_off_c, 1, 75, 0
2, 286680, Note_on_c, 1, 73, 36
2, 286800, Note_off_c, 1, 73, 0
2, 286800, Note_on_c, 1, 72, 37
2, 286920, Note_off_c, 1, 72, 0
2, 286920, Note_on_c, 1, 73, 38
2, 287040, Note_off_c, 1, 73, 0
2, 287040, Note_on_c, 1, 75, 39
2, 287160, Note_off_c, 1, 75, 0
2, 287160, Note_on_c, 1, 73, 39
2, 287280, Note_off_c, 1, 73, 0
2, 287280, Note_on_c, 1, 78, 40
2, 288110, Note_off_c, 1, 78, 0
2, 288120, Note_on_c, 1, 78, 46
2, 288240, Note_off_c, 1, 78, 0
2, 288240, Note_on_c, 1, 77, 47
2, 288360, Note_off_c, 1, 77, 0
2, 288360, Note_on_c, 1, 78, 48
2, 288480, Note_off_c, 1, 78, 0
2, 288480, Note_on_c, 1, 80, 49
2, 288600, Note_off_c, 1, 80, 0
2, 288600, Note_on_c, 1, 78, 49
2, 288720, Note_off_c, 1, 78, 0
2, 288720, Note_on_c, 1, 77, 50
2, 289440, Note_off_c, 1, 77, 0
2, 289560, Note_on_c, 1, 77, 56
2, 289680, Note_off_c, 1, 77, 0
2, 289680, Note_on_c, 1, 76, 57
2, 289800, Note_off_c, 1, 76, 0
2, 289800, Note_on_c, 1, 77, 58
2, 289920, Note_off_c, 1, 77, 0
2, 289920, Note_on_c, 1, 79, 58
2, 290040, Note_off_c, 1, 79, 0
2, 290040, Note_on_c, 1, 77, 59
2, 290160, Note_off_c, 1, 77, 0
2, 290280, Note_on_c, 1, 75, 61
2, 290400, Note_off_c, 1, 75, 0
2, 290400, Note_on_c, 1, 74, 62
2, 290520, Note_off_c, 1, 74, 0
2, 290520, Note_on_c, 1, 75, 63
2, 290640, Note_off_c, 1, 75, 0
2, 290640, Note_on_c, 1, 77, 63
2, 290760, Note_off_c, 1, 77, 0
2, 290760, Note_on_c, 1, 75, 64
2, 290880, Note_off_c, 1, 75, 0
2, 290880, Note_on_c, 1, 74, 65
2, 291120, Note_off_c, 1, 74, 0
2, 292320, Note_on_c, 1, 67, 59
2, 292670, Note_off_c, 1, 67, 0
2, 292680, Note_on_c, 1, 68, 57
2, 292800, Note_off_c, 1, 68, 0
2, 292800, Note_on_c, 1, 67, 56
2, 293025, Note_off_c, 1, 67, 0
2, 293040, Note_on_c, 1, 67, 55
2, 293505, Note_off_c, 1, 67, 0
2, 293520, Note_on_c, 1, 72, 52
2, 294720, Note_off_c, 1, 72, 0
2, 294720, Note_on_c, 1, 70, 47
2, 294960, Note_off_c, 1, 70, 0
2, 294960, Note_on_c, 1, 68, 46
2, 295200, Note_off_c, 1, 68, 0
2, 295200, Note_on_c, 1, 67, 45
2, 297585, Note_off_c, 1, 67, 0
2, 297600, Note_on_c, 1, 68, 42
2, 297840, Note_off_c, 1, 68, 0
2, 297840, Note_on_c, 1, 70, 46
2, 298080, Note_off_c, 1, 70, 0
2, 298080, Note_on_c, 1, 72, 53
2, 298430, Note_off_c, 1, 72, 0
2, 298440, Note_on_c, 1, 73, 51
2, 298560, Note_off_c, 1, 73, 0
2, 298560, Note_on_c, 1, 72, 51
2, 298785, Note_off_c, 1, 72, 0
2, 298800, Note_on_c, 1, 72, 46
2, 299265, Note_off_c, 1, 72, 0
2, 299280, Note_on_c, 1, 77, 47
2, 299505, Note_off_c, 1, 77, 0
2, 299520, Note_on_c, 1, 77, 46
2, 300480, Note_off_c, 1, 77, 0
2, 300480, Note_on_c, 1, 75, 42
2, 300720, Note_off_c, 1, 75, 0
2, 300720, Note_on_c, 1, 73, 41
2, 300960, Note_off_c, 1, 73, 0
2, 300960, Note_on_c, 1, 72, 40
2, 301920, Note_on_c, 1, 68, 35
2, 302160, Note_off_c, 1, 68, 0
2, 302160, Note_on_c, 1, 70, 36
2, 302375, Note_off_c, 1, 72, 0
2, 302400, Note_off_c, 1, 70, 0
2, 302400, Note_on_c, 1, 70, 45
2, 302760, Note_off_c, 1, 70, 0
2, 302760, Note_on_c, 1, 68, 43
2, 302880, Note_off_c, 1, 68, 0
2, 302880, Note_on_c, 1, 67, 42
2, 303120, Note_off_c, 1, 67, 0
2, 303120, Note_on_c, 1, 68, 41
2, 304200, Note_on_c, 1, 67, 34
2, 304205, Note_off_c, 1, 68, 0
2, 304320, Note_off_c, 1, 67, 0
2, 304320, Note_on_c, 1, 68, 33
2, 304560, Note_off_c, 1, 68, 0
2, 304560, Note_on_c, 1, 70, 32
2, 304790, Note_off_c, 1, 70, 0
2, 304800, Note_on_c, 1, 68, 34
2, 305040, Note_off_c, 1, 68, 0
2, 305040, Note_on_c, 1, 67, 38
2, 305270, Note_off_c, 1, 67, 0
2, 305280, Note_on_c, 1, 67, 37
2, 306000, Note_on_c, 1, 65, 27
2, 306005, Note_off_c, 1, 67, 0
2, 306360, Note_off_c, 1, 65, 0
2, 306720, Note_on_c, 1, 72, 38
2, 306960, Note_off_c, 1, 72, 0
2, 307200, Note_on_c, 1, 72, 41
2, 307440, Note_off_c, 1, 72, 0
2, 307440, Note_on_c, 1, 72, 42
2, 307680, Note_off_c, 1, 72, 0
2, 307920, Note_on_c, 1, 72, 45
2, 308160, Note_off_c, 1, 72, 0
2, 308160, Note_on_c, 1, 72, 51
2, 308880, Note_off_c, 1, 72, 0
2, 308880, Note_on_c, 1, 70, 36
2, 309120, Note_off_c, 1, 70, 0
2, 309360, Note_on_c, 1, 68, 39
2, 309600, Note_off_c, 1, 68, 0
2, 309600, Note_on_c, 1, 66, 43
2, 309840, Note_off_c, 1, 66, 0
2, 310080, Note_on_c, 1, 70, 38
2, 310320, Note_off_c, 1, 70, 0
2, 310320, Note_on_c, 1, 68, 35
2, 310440, Note_off_c, 1, 68, 0
2, 310440, Note_on_c, 1, 66, 34
2, 310680, Note_off_c, 1, 66, 0
2, 310800, Note_on_c, 1, 65, 32
2, 311025, Note_off_c, 1, 65, 0
2, 311040, Note_on_c, 1, 65, 39
2, 311635, Note_off_c, 1, 65, 0
2, 311640, Note_on_c, 1, 67, 28
2, 311700, Note_off_c, 1, 67, 0
2, 311700, Note_on_c, 1, 65, 27
2, 311760, Note_off_c, 1, 65, 0
2, 311760, Note_on_c, 1, 64, 26
2, 312000, Note_off_c, 1, 64, 0
2, 312240, Note_on_c, 1, 72, 41
2, 312420, Note_off_c, 1, 72, 0
2, 312420, Note_on_c, 1, 71, 50
2, 312470, Note_off_c, 1, 71, 0
2, 312480, Note_on_c, 1, 71, 55
2, 313200, Note_off_c, 1, 71, 0
2, 313200, Note_on_c, 1, 77, 37
2, 313440, Note_off_c, 1, 77, 0
2, 313920, Note_on_c, 1, 76, 44
2, 314550, Note_off_c, 1, 76, 0
2, 314560, Note_on_c, 1, 77, 32
2, 314640, Note_off_c, 1, 77, 0
2, 314640, Note_on_c, 1, 79, 28
2, 314880, Note_off_c, 1, 79, 0
2, 315360, Note_on_c, 1, 80, 60
2, 316015, Note_off_c, 1, 80, 0
2, 316020, Note_on_c, 1, 79, 45
2, 316080, Note_off_c, 1, 79, 0
2, 316080, Note_on_c, 1, 77, 43
2, 316310, Note_off_c, 1, 77, 0
2, 316800, Note_on_c, 1, 85, 54
2, 317460, Note_on_c, 1, 76, 35
2, 317465, Note_off_c, 1, 85, 0
2, 317515, Note_off_c, 1, 76, 0
2, 317520, Note_on_c, 1, 76, 33
2, 317760, Note_off_c, 1, 76, 0
2, 318480, Note_on_c, 1, 77, 42
2, 318635, Note_off_c, 1, 77, 0
2, 318720, Note_on_c, 1, 77, 38
2, 318875, Note_off_c, 1, 77, 0
2, 319200, Note_on_c, 1, 73, 37
2, 319355, Note_off_c, 1, 73, 0
2, 319440, Note_on_c, 1, 73, 34
2, 319595, Note_off_c, 1, 73, 0
2, 319920, Note_on_c, 1, 72, 32
2, 320075, Note_off_c, 1, 72, 0
2, 320160, Note_on_c, 1, 72, 29
2, 320315, Note_off_c, 1, 72, 0
2, 320640, Note_on_c, 1, 76, 39
2, 320795, Note_off_c, 1, 76, 0
2, 320880, Note_on_c, 1, 76, 44
2, 321035, Note_off_c, 1, 76, 0
2, 321120, Control_c, 1, 64, 0
2, 321120, Note_on_c, 1, 77, 60
2, 321160, Control_c, 1, 64, 127
2, 321600, Note_off_c, 1, 77, 0
2, 321600, Note_on_c, 1, 84, 53
2, 321720, Note_off_c, 1, 84, 0
2, 321720, Note_on_c, 1, 80, 52
2, 321810, Note_off_c, 1, 80, 0
2, 321840, Control_c, 1, 64, 0
2, 321840, Note_on_c, 1, 80, 50
2, 321880, Control_c, 1, 64, 127
2, 321960, Note_off_c, 1, 80, 0
2, 321960, Note_on_c, 1, 79, 48
2, 322050, Note_off_c, 1, 79, 0
2, 322080, Note_on_c, 1, 85, 47
2, 322200, Note_off_c, 1, 85, 0
2, 322200, Note_on_c, 1, 82, 45
2, 322290, Note_off_c, 1, 82, 0
2, 322320, Note_on_c, 1, 82, 44
2, 322440, Note_off_c, 1, 82, 0
2, 322440, Note_on_c, 1, 79, 42
2, 322530, Note_off_c, 1, 79, 0
2, 322560, Control_c, 1, 64, 0
2, 322560, Note_on_c, 1, 79, 40
2, 322560, Control_c, 1, 64, 0
2, 322600, Control_c, 1, 64, 127
2, 322600, Control_c, 1, 64, 127
2, 322800, Note_on_c, 1, 77, 39
2, 322805, Note_off_c, 1, 79, 0
2, 323265, Note_off_c, 1, 77, 0
2, 323280, Control_c, 1, 64, 0
2, 323280, Note_on_c, 1, 78, 43
2, 323320, Control_c, 1, 64, 127
2, 323320, Note_on_c, 1, 80, 42
2, 323340, Note_off_c, 1, 78, 0
2, 323360, Note_on_c, 1, 78, 42
2, 323380, Note_off_c, 1, 80, 0
2, 323400, Note_on_c, 1, 80, 42
2, 323420, Note_off_c, 1, 78, 0
2, 323440, Note_on_c, 1, 78, 41
2, 323460, Note_off_c, 1, 80, 0
2, 323480, Note_on_c, 1, 80, 41
2, 323500, Note_off_c, 1, 78, 0
2, 323520, Note_on_c, 1, 78, 40
2, 323540, Note_off_c, 1, 80, 0
2, 323560, Note_on_c, 1, 80, 40
2, 323580, Note_off_c, 1, 78, 0
2, 323600, Note_on_c, 1, 78, 39
2, 323620, Note_off_c, 1, 80, 0
2, 323640, Note_on_c, 1, 80, 39
2, 323660, Note_off_c, 1, 78, 0
2, 323680, Note_on_c, 1, 78, 38
2, 323700, Note_off_c, 1, 80, 0
2, 323720, Note_on_c, 1, 80, 38
2, 323740, Note_off_c, 1, 78, 0
2, 323760, Note_on_c, 1, 78, 37
2, 323780, Note_off_c, 1, 80, 0
2, 323800, Note_on_c, 1, 80, 37
2, 323820, Note_off_c, 1, 78, 0
2, 323840, Note_on_c, 1, 78, 36
2, 323860, Note_off_c, 1, 80, 0
2, 323880, Note_on_c, 1, 77, 36
2, 323900, Note_off_c, 1, 78, 0
2, 323940, Note_off_c, 1, 77, 0
2, 323940, Note_on_c, 1, 78, 35
2, 324000, Control_c, 1, 64, 0
2, 324000, Note_off_c, 1, 78, 0
2, 324000, Note_on_c, 1, 77, 34
2, 324040, Control_c, 1, 64, 127
2, 324240, Note_off_c, 1, 77, 0
2, 324240, Note_on_c, 1, 79, 34
2, 324480, Note_off_c, 1, 79, 0
2, 324480, Note_on_c, 1, 80, 32
2, 324720, Control_c, 1, 64, 0
2, 324720, Note_off_c, 1, 80, 0
2, 324720, Note_on_c, 1, 68, 30
2, 324760, Control_c, 1, 64, 127
2, 324960, Note_off_c, 1, 68, 0
2, 324960, Note_on_c, 1, 70, 28
2, 325200, Control_c, 1, 64, 0
2, 325200, Note_off_c, 1, 70, 0
2, 325200, Note_on_c, 1, 71, 26
2, 325240, Control_c, 1, 64, 127
2, 325440, Note_off_c, 1, 71, 0
2, 325440, Note_on_c, 1, 72, 27
2, 325440, Control_c, 1, 64, 0
2, 325560, Note_off_c, 1, 72, 0
2, 325560, Note_on_c, 1, 73, 29
2, 325680, Note_off_c, 1, 73, 0
2, 325680, Note_on_c, 1, 74, 31
2, 325800, Note_off_c, 1, 74, 0
2, 325800, Note_on_c, 1, 75, 33
2, 325920, Note_off_c, 1, 75, 0
2, 325920, Note_on_c, 1, 76, 35
2, 326040, Note_off_c, 1, 76, 0
2, 326040, Note_on_c, 1, 77, 37
2, 326156, Note_off_c, 1, 77, 0
2, 326160, Control_c, 1, 64, 0
2, 326160, Note_on_c, 1, 65, 34
2, 326200, Control_c, 1, 64, 127
2, 326200, Note_on_c, 1, 68, 34
2, 326220, Note_off_c, 1, 65, 0
2, 326240, Note_on_c, 1, 67, 34
2, 326260, Note_off_c, 1, 68, 0
2, 326280, Note_on_c, 1, 68, 33
2, 326300, Note_off_c, 1, 67, 0
2, 326320, Note_on_c, 1, 67, 33
2, 326340, Note_off_c, 1, 68, 0
2, 326360, Note_on_c, 1, 68, 32
2, 326380, Note_off_c, 1, 67, 0
2, 326400, Note_on_c, 1, 67, 32
2, 326420, Note_off_c, 1, 68, 0
2, 326440, Note_on_c, 1, 68, 31
2, 326460, Note_off_c, 1, 67, 0
2, 326480, Note_on_c, 1, 67, 31
2, 326500, Note_off_c, 1, 68, 0
2, 326520, Note_on_c, 1, 68, 31
2, 326540, Note_off_c, 1, 67, 0
2, 326560, Note_on_c, 1, 67, 30
2, 326580, Note_off_c, 1, 68, 0
2, 326600, Note_on_c, 1, 68, 30
2, 326620, Note_off_c, 1, 67, 0
2, 326640, Note_on_c, 1, 67, 29
2, 326660, Note_off_c, 1, 68, 0
2, 326680, Note_on_c, 1, 68, 29
2, 326700, Note_off_c, 1, 67, 0
2, 326720, Note_on_c, 1, 67, 28
2, 326740, Note_off_c, 1, 68, 0
2, 326760, Note_on_c, 1, 65, 28
2, 326780, Note_off_c, 1, 67, 0
2, 326820, Note_off_c, 1, 65, 0
2, 326820, Note_on_c, 1, 67, 27
2, 326880, Control_c, 1, 64, 0
2, 326880, Note_off_c, 1, 67, 0
2, 326880, Note_on_c, 1, 65, 27
2, 327120, Note_off_c, 1, 65, 0
2, 327360, Note_on_c, 1, 65, 23
2, 327595, Note_off_c, 1, 65, 0
2, 327600, Note_on_c, 1, 65, 21
2, 327835, Note_off_c, 1, 65, 0
2, 328080, Note_on_c, 1, 73, 55
2, 328315, Note_off_c, 1, 73, 0
2, 328320, Note_on_c, 1, 68, 53
2, 328680, Note_on_c, 1, 70, 49
2, 328690, Note_off_c, 1, 68, 0
2, 328790, Note_off_c, 1, 70, 0
2, 328800, Note_on_c, 1, 67, 48
2, 329035, Note_off_c, 1, 67, 0
2, 329040, Note_on_c, 1, 65, 46
2, 329275, Note_off_c, 1, 65, 0
2, 329520, Note_on_c, 1, 75, 42
2, 329755, Note_off_c, 1, 75, 0
2, 329760, Note_on_c, 1, 74, 40
2, 329995, Note_off_c, 1, 74, 0
2, 330240, Note_on_c, 1, 77, 51
2, 330475, Note_off_c, 1, 77, 0
2, 330480, Note_on_c, 1, 68, 46
2, 330840, Note_off_c, 1, 68, 0
2, 330840, Note_on_c, 1, 70, 41
2, 330950, Note_off_c, 1, 70, 0
2, 330960, Note_on_c, 1, 67, 39
2, 331160, Note_off_c, 1, 67, 0
2, 331200, Note_on_c, 1, 67, 36
2, 331920, Note_off_c, 1, 67, 0
2, 331920, Note_on_c, 1, 65, 25
2, 332400, Note_off_c, 1, 65, 0
2, 334560, Control_c, 1, 64, 0
2, 334560, Note_on_c, 1, 84, 83
2, 334680, Note_off_c, 1, 84, 0
2, 334680, Note_on_c, 1, 81, 82
2, 334800, Note_off_c, 1, 81, 0
2, 334800, Note_on_c, 1, 77, 81
2, 334900, Note_off_c, 1, 77, 0
2, 335040, Note_on_c, 1, 77, 79
2, 335140, Note_off_c, 1, 77, 0
2, 335280, Note_on_c, 1, 77, 77
2, 335380, Note_off_c, 1, 77, 0
2, 335520, Note_on_c, 1, 76, 75
2, 335580, Note_on_c, 1, 82, 74
2, 335640, Note_off_c, 1, 76, 0
2, 335725, Note_off_c, 1, 82, 0
2, 336240, Note_on_c, 1, 77, 67
2, 336300, Note_on_c, 1, 81, 66
2, 336360, Note_off_c, 1, 77, 0
2, 336440, Note_off_c, 1, 81, 0
2, 336960, Note_on_c, 1, 76, 58
2, 337020, Note_on_c, 1, 79, 57
2, 337075, Note_off_c, 1, 76, 0
2, 337155, Note_off_c, 1, 79, 0
2, 337680, Note_on_c, 1, 77, 77
2, 337800, Note_off_c, 1, 77, 0
2, 337800, Note_on_c, 1, 79, 76
2, 337920, Note_off_c, 1, 79, 0
2, 337920, Note_on_c, 1, 81, 75
2, 338040, Note_off_c, 1, 81, 0
2, 338040, Note_on_c, 1, 77, 75
2, 338160, Note_off_c, 1, 77, 0
2, 338160, Note_on_c, 1, 72, 74
2, 338280, Note_off_c, 1, 72, 0
2, 338280, Note_on_c, 1, 73, 73
2, 338380, Note_off_c, 1, 73, 0
2, 338400, Note_on_c, 1, 74, 73
2, 338520, Note_off_c, 1, 74, 0
2, 338520, Note_on_c, 1, 76, 72
2, 338640, Note_off_c, 1, 76, 0
2, 338640, Note_on_c, 1, 77, 71
2, 338760, Note_off_c, 1, 77, 0
2, 338760, Note_on_c, 1, 74, 70
2, 338880, Note_off_c, 1, 74, 0
2, 338880, Note_on_c, 1, 67, 70
2, 339000, Note_off_c, 1, 67, 0
2, 339000, Note_on_c, 1, 69, 69
2, 339100, Note_off_c, 1, 69, 0
2, 339120, Note_on_c, 1, 70, 68
2, 339240, Note_off_c, 1, 70, 0
2, 339240, Note_on_c, 1, 72, 68
2, 339360, Note_off_c, 1, 72, 0
2, 339360, Note_on_c, 1, 74, 67
2, 339480, Note_off_c, 1, 74, 0
2, 339480, Note_on_c, 1, 70, 66
2, 339600, Note_off_c, 1, 70, 0
2, 339600, Note_on_c, 1, 62, 65
2, 339720, Note_off_c, 1, 62, 0
2, 339720, Note_on_c, 1, 65, 65
2, 339820, Note_off_c, 1, 65, 0
2, 339840, Note_on_c, 1, 64, 64
2, 339960, Note_off_c, 1, 64, 0
2, 339960, Note_on_c, 1, 65, 63
2, 340080, Note_off_c, 1, 65, 0
2, 340080, Note_on_c, 1, 67, 63
2, 340200, Note_off_c, 1, 67, 0
2, 340200, Note_on_c, 1, 64, 62
2, 340300, Note_off_c, 1, 64, 0
2, 340320, Note_on_c, 1, 72, 61
2, 340440, Note_on_c, 1, 69, 60
2, 340445, Note_off_c, 1, 72, 0
2, 340560, Note_off_c, 1, 69, 0
2, 340560, Note_on_c, 1, 65, 60
2, 340660, Note_off_c, 1, 65, 0
2, 340800, Note_on_c, 1, 65, 58
2, 340900, Note_off_c, 1, 65, 0
2, 341040, Note_on_c, 1, 65, 57
2, 341140, Note_off_c, 1, 65, 0
2, 341280, Note_on_c, 1, 64, 57
2, 341340, Note_on_c, 1, 70, 56
2, 341400, Note_off_c, 1, 64, 0
2, 341480, Note_off_c, 1, 70, 0
2, 342000, Note_on_c, 1, 65, 49
2, 342060, Note_on_c, 1, 69, 48
2, 342120, Note_off_c, 1, 65, 0
2, 342200, Note_off_c, 1, 69, 0
2, 342720, Note_on_c, 1, 64, 41
2, 342780, Note_on_c, 1, 67, 40
2, 342840, Note_off_c, 1, 64, 0
2, 342915, Note_off_c, 1, 67, 0
2, 343440, Note_on_c, 1, 65, 64
2, 343560, Note_off_c, 1, 65, 0
2, 343560, Note_on_c, 1, 67, 63
2, 343680, Note_off_c, 1, 67, 0
2, 343680, Note_on_c, 1, 69, 62
2, 343800, Note_off_c, 1, 69, 0
2, 343800, Note_on_c, 1, 70, 61
2, 343920, Note_off_c, 1, 70, 0
2, 343920, Note_on_c, 1, 72, 60
2, 344040, Note_off_c, 1, 72, 0
2, 344040, Note_on_c, 1, 73, 59
2, 344160, Note_off_c, 1, 73, 0
2, 344160, Note_on_c, 1, 74, 58
2, 344280, Note_off_c, 1, 74, 0
2, 344280, Note_on_c, 1, 76, 57
2, 344400, Note_off_c, 1, 76, 0
2, 344400, Note_on_c, 1, 77, 56
2, 344520, Note_off_c, 1, 77, 0
2, 344520, Note_on_c, 1, 79, 55
2, 344640, Note_off_c, 1, 79, 0
2, 344640, Note_on_c, 1, 81, 54
2, 344760, Note_off_c, 1, 81, 0
2, 344760, Note_on_c, 1, 82, 53
2, 344860, Note_off_c, 1, 82, 0
2, 344880, Note_on_c, 1, 84, 52
2, 344980, Note_off_c, 1, 84, 0
2, 345120, Note_on_c, 1, 77, 50
2, 345360, Note_off_c, 1, 77, 0
2, 345360, Note_on_c, 1, 76, 48
2, 345480, Note_off_c, 1, 76, 0
2, 345600, Note_on_c, 1, 77, 46
2, 346010, Note_off_c, 1, 77, 0
2, 346320, Note_on_c, 1, 70, 45
2, 346560, Note_off_c, 1, 70, 0
2, 346560, Note_on_c, 1, 69, 46
2, 346800, Note_off_c, 1, 69, 0
2, 346800, Note_on_c, 1, 67, 47
2, 346920, Note_off_c, 1, 67, 0
2, 347040, Note_on_c, 1, 67, 48
2, 347280, Note_on_c, 1, 65, 48
2, 347290, Note_off_c, 1, 67, 0
2, 347400, Note_off_c, 1, 65, 0
2, 347520, Note_on_c, 1, 65, 49
2, 347640, Note_off_c, 1, 65, 0
2, 347760, Note_on_c, 1, 65, 50
2, 347880, Note_off_c, 1, 65, 0
2, 348000, Note_on_c, 1, 67, 51
2, 348120, Note_off_c, 1, 67, 0
2, 348240, Note_on_c, 1, 64, 51
2, 348360, Note_off_c, 1, 64, 0
2, 348480, Note_on_c, 1, 65, 52
2, 348720, Note_off_c, 1, 65, 0
2, 349200, Note_on_c, 1, 74, 54
2, 349440, Note_off_c, 1, 74, 0
2, 349440, Note_on_c, 1, 72, 55
2, 349680, Note_off_c, 1, 72, 0
2, 349680, Note_on_c, 1, 70, 56
2, 349800, Note_off_c, 1, 70, 0
2, 349920, Note_on_c, 1, 70, 57
2, 350160, Note_on_c, 1, 69, 57
2, 350165, Note_off_c, 1, 70, 0
2, 350280, Note_off_c, 1, 69, 0
2, 350400, Note_on_c, 1, 69, 58
2, 350520, Note_off_c, 1, 69, 0
2, 350640, Note_on_c, 1, 69, 59
2, 350760, Note_off_c, 1, 69, 0
2, 350880, Note_on_c, 1, 70, 60
2, 351000, Note_off_c, 1, 70, 0
2, 351120, Note_on_c, 1, 67, 60
2, 351240, Note_off_c, 1, 67, 0
2, 351360, Note_on_c, 1, 69, 61
2, 351515, Note_off_c, 1, 69, 0
2, 352200, Note_on_c, 1, 69, 72
2, 352320, Note_off_c, 1, 69, 0
2, 352320, Note_on_c, 1, 74, 73
2, 352440, Note_off_c, 1, 74, 0
2, 352440, Note_on_c, 1, 77, 73
2, 352560, Note_off_c, 1, 77, 0
2, 352560, Note_on_c, 1, 81, 73
2, 352680, Note_off_c, 1, 81, 0
2, 352920, Note_on_c, 1, 67, 74
2, 353040, Note_off_c, 1, 67, 0
2, 353040, Note_on_c, 1, 72, 75
2, 353160, Note_off_c, 1, 72, 0
2, 353160, Note_on_c, 1, 76, 75
2, 353280, Note_off_c, 1, 76, 0
2, 353280, Note_on_c, 1, 79, 76
2, 353400, Note_off_c, 1, 79, 0
2, 353640, Note_on_c, 1, 65, 77
2, 353760, Note_off_c, 1, 65, 0
2, 353760, Note_on_c, 1, 71, 77
2, 353880, Note_off_c, 1, 71, 0
2, 353880, Note_on_c, 1, 74, 77
2, 354000, Note_off_c, 1, 74, 0
2, 354000, Note_on_c, 1, 77, 78
2, 354120, Note_off_c, 1, 77, 0
2, 354360, Note_on_c, 1, 64, 79
2, 354480, Note_off_c, 1, 64, 0
2, 354480, Note_on_c, 1, 67, 79
2, 354600, Note_off_c, 1, 67, 0
2, 354600, Note_on_c, 1, 72, 80
2, 354720, Note_off_c, 1, 72, 0
2, 354720, Note_on_c, 1, 76, 80
2, 354840, Note_off_c, 1, 76, 0
2, 355080, Note_on_c, 1, 69, 81
2, 355200, Note_off_c, 1, 69, 0
2, 355200, Note_on_c, 1, 74, 81
2, 355320, Note_off_c, 1, 74, 0
2, 355320, Note_on_c, 1, 73, 82
2, 355440, Note_off_c, 1, 73, 0
2, 355440, Note_on_c, 1, 76, 82
2, 355560, Note_off_c, 1, 76, 0
2, 355560, Note_on_c, 1, 74, 83
2, 355680, Note_off_c, 1, 74, 0
2, 355680, Note_on_c, 1, 77, 83
2, 355800, Note_off_c, 1, 77, 0
2, 355800, Note_on_c, 1, 76, 83
2, 355920, Note_off_c, 1, 76, 0
2, 355920, Note_on_c, 1, 79, 84
2, 356040, Note_off_c, 1, 79, 0
2, 356040, Note_on_c, 1, 77, 84
2, 356160, Note_off_c, 1, 77, 0
2, 356160, Note_on_c, 1, 81, 84
2, 356280, Note_off_c, 1, 81, 0
2, 356280, Note_on_c, 1, 80, 85
2, 356400, Note_off_c, 1, 80, 0
2, 356400, Note_on_c, 1, 81, 85
2, 356592, Note_off_c, 1, 81, 0
2, 356880, Note_on_c, 1, 72, 68
2, 357120, Note_off_c, 1, 72, 0
2, 357120, Note_on_c, 1, 71, 62
2, 357300, Note_off_c, 1, 71, 0
2, 358320, Note_on_c, 1, 84, 66
2, 358560, Note_off_c, 1, 84, 0
2, 358560, Note_on_c, 1, 83, 60
2, 358745, Note_off_c, 1, 83, 0
2, 359760, Note_on_c, 1, 72, 60
2, 360000, Note_off_c, 1, 72, 0
2, 360000, Note_on_c, 1, 71, 55
2, 360185, Note_off_c, 1, 71, 0
2, 361440, Note_on_c, 1, 77, 56
2, 361775, Note_off_c, 1, 77, 0
2, 361800, Note_on_c, 1, 77, 58
2, 361910, Note_off_c, 1, 77, 0
2, 361920, Note_on_c, 1, 77, 59
2, 362135, Note_off_c, 1, 77, 0
2, 362160, Note_on_c, 1, 77, 61
2, 362220, Note_off_c, 1, 77, 0
2, 362220, Note_on_c, 1, 79, 63
2, 362280, Note_on_c, 1, 81, 67
2, 362285, Note_off_c, 1, 79, 0
2, 362520, Note_off_c, 1, 81, 0
2, 362520, Note_on_c, 1, 79, 61
2, 362625, Note_off_c, 1, 79, 0
2, 362640, Note_on_c, 1, 77, 58
2, 362850, Note_off_c, 1, 77, 0
2, 362880, Note_on_c, 1, 77, 57
2, 363215, Note_off_c, 1, 77, 0
2, 363240, Note_on_c, 1, 77, 58
2, 363350, Note_off_c, 1, 77, 0
2, 363360, Note_on_c, 1, 77, 58
2, 363575, Note_off_c, 1, 77, 0
2, 363600, Note_on_c, 1, 77, 60
2, 363660, Note_off_c, 1, 77, 0
2, 363660, Note_on_c, 1, 79, 63
2, 363720, Note_on_c, 1, 81, 67
2, 363725, Note_off_c, 1, 79, 0
2, 363960, Note_off_c, 1, 81, 0
2, 363960, Note_on_c, 1, 79, 61
2, 364065, Note_off_c, 1, 79, 0
2, 364080, Note_on_c, 1, 77, 59
2, 364290, Note_off_c, 1, 77, 0
2, 364320, Note_on_c, 1, 76, 56
2, 364560, Note_off_c, 1, 76, 0
2, 364800, Note_on_c, 1, 76, 59
2, 365040, Note_off_c, 1, 76, 0
2, 365040, Note_on_c, 1, 79, 67
2, 365520, Note_off_c, 1, 79, 0
2, 365520, Note_on_c, 1, 77, 57
2, 365760, Note_off_c, 1, 77, 0
2, 365760, Note_on_c, 1, 76, 55
2, 366000, Note_off_c, 1, 76, 0
2, 366240, Note_on_c, 1, 76, 57
2, 366480, Note_off_c, 1, 76, 0
2, 366480, Note_on_c, 1, 79, 63
2, 366960, Note_off_c, 1, 79, 0
2, 366960, Note_on_c, 1, 77, 56
2, 367200, Note_off_c, 1, 77, 0
2, 367200, Note_on_c, 1, 76, 54
2, 367440, Note_off_c, 1, 76, 0
2, 367680, Note_on_c, 1, 76, 57
2, 367920, Note_off_c, 1, 76, 0
2, 367920, Note_on_c, 1, 79, 67
2, 368160, Note_off_c, 1, 79, 0
2, 368160, Note_on_c, 1, 77, 63
2, 368280, Note_off_c, 1, 77, 0
2, 368400, Note_on_c, 1, 76, 59
2, 368520, Note_off_c, 1, 76, 0
2, 368640, Note_on_c, 1, 76, 63
2, 368880, Note_off_c, 1, 76, 0
2, 368880, Note_on_c, 1, 74, 60
2, 369000, Note_off_c, 1, 74, 0
2, 369120, Note_on_c, 1, 72, 56
2, 369240, Note_off_c, 1, 72, 0
2, 369360, Note_on_c, 1, 72, 58
2, 369420, Note_off_c, 1, 72, 0
2, 369420, Note_on_c, 1, 74, 56
2, 369480, Note_off_c, 1, 74, 0
2, 369480, Note_on_c, 1, 72, 55
2, 369540, Note_off_c, 1, 72, 0
2, 369540, Note_on_c, 1, 74, 53
2, 369600, Note_off_c, 1, 74, 0
2, 369600, Note_on_c, 1, 72, 51
2, 369720, Note_off_c, 1, 72, 0
2, 369720, Note_on_c, 1, 74, 48
2, 369840, Note_off_c, 1, 74, 0
2, 369840, Note_on_c, 1, 71, 45
2, 370080, Note_off_c, 1, 71, 0
2, 370080, Note_on_c, 1, 77, 53
2, 370415, Note_off_c, 1, 77, 0
2, 370440, Note_on_c, 1, 77, 53
2, 370550, Note_off_c, 1, 77, 0
2, 370560, Note_on_c, 1, 77, 55
2, 370775, Note_off_c, 1, 77, 0
2, 370800, Note_on_c, 1, 77, 57
2, 370860, Note_off_c, 1, 77, 0
2, 370860, Note_on_c, 1, 79, 58
2, 370920, Note_on_c, 1, 81, 61
2, 370925, Note_off_c, 1, 79, 0
2, 371160, Note_off_c, 1, 81, 0
2, 371160, Note_on_c, 1, 79, 54
2, 371265, Note_off_c, 1, 79, 0
2, 371280, Note_on_c, 1, 77, 52
2, 371490, Note_off_c, 1, 77, 0
2, 371520, Note_on_c, 1, 77, 52
2, 371855, Note_off_c, 1, 77, 0
2, 371880, Note_on_c, 1, 77, 53
2, 371990, Note_off_c, 1, 77, 0
2, 372000, Note_on_c, 1, 77, 55
2, 372215, Note_off_c, 1, 77, 0
2, 372240, Note_on_c, 1, 77, 57
2, 372300, Note_off_c, 1, 77, 0
2, 372300, Note_on_c, 1, 79, 58
2, 372360, Note_on_c, 1, 81, 60
2, 372365, Note_off_c, 1, 79, 0
2, 372600, Note_off_c, 1, 81, 0
2, 372600, Note_on_c, 1, 79, 56
2, 372705, Note_off_c, 1, 79, 0
2, 372720, Note_on_c, 1, 77, 54
2, 372930, Note_off_c, 1, 77, 0
2, 372960, Note_on_c, 1, 76, 52
2, 373140, Note_off_c, 1, 76, 0
2, 373440, Note_on_c, 1, 76, 56
2, 373560, Note_off_c, 1, 76, 0
2, 373680, Note_on_c, 1, 79, 62
2, 373800, Note_off_c, 1, 79, 0
2, 373920, Note_on_c, 1, 78, 56
2, 374040, Note_off_c, 1, 78, 0
2, 374160, Note_on_c, 1, 77, 53
2, 374280, Note_off_c, 1, 77, 0
2, 374400, Note_on_c, 1, 76, 51
2, 374580, Note_off_c, 1, 76, 0
2, 374880, Note_on_c, 1, 76, 54
2, 375000, Note_off_c, 1, 76, 0
2, 375120, Note_on_c, 1, 79, 60
2, 375240, Note_off_c, 1, 79, 0
2, 375360, Note_on_c, 1, 78, 53
2, 375480, Note_off_c, 1, 78, 0
2, 375600, Note_on_c, 1, 77, 50
2, 375720, Note_off_c, 1, 77, 0
2, 375840, Note_on_c, 1, 76, 48
2, 375960, Note_off_c, 1, 76, 0
2, 375960, Note_on_c, 1, 79, 49
2, 376080, Note_off_c, 1, 79, 0
2, 376080, Note_on_c, 1, 84, 51
2, 376200, Note_off_c, 1, 84, 0
2, 376200, Note_on_c, 1, 83, 53
2, 376320, Note_off_c, 1, 83, 0
2, 376320, Note_on_c, 1, 81, 55
2, 376440, Note_off_c, 1, 81, 0
2, 376440, Note_on_c, 1, 79, 56
2, 376560, Note_off_c, 1, 79, 0
2, 376560, Note_on_c, 1, 77, 63
2, 376680, Note_off_c, 1, 77, 0
2, 376680, Note_on_c, 1, 79, 61
2, 376800, Note_off_c, 1, 79, 0
2, 376800, Note_on_c, 1, 81, 60
2, 376920, Note_off_c, 1, 81, 0
2, 376920, Note_on_c, 1, 77, 58
2, 377040, Note_off_c, 1, 77, 0
2, 377040, Note_on_c, 1, 75, 56
2, 377160, Note_off_c, 1, 75, 0
2, 377160, Note_on_c, 1, 76, 54
2, 377280, Note_off_c, 1, 76, 0
2, 377280, Note_on_c, 1, 74, 61
2, 377400, Note_off_c, 1, 74, 0
2, 377400, Note_on_c, 1, 76, 59
2, 377520, Note_off_c, 1, 76, 0
2, 377520, Note_on_c, 1, 77, 57
2, 377640, Note_off_c, 1, 77, 0
2, 377640, Note_on_c, 1, 74, 56
2, 377760, Note_off_c, 1, 74, 0
2, 377760, Note_on_c, 1, 71, 55
2, 377880, Note_off_c, 1, 71, 0
2, 377880, Note_on_c, 1, 72, 53
2, 378000, Note_off_c, 1, 72, 0
2, 378000, Note_on_c, 1, 74, 52
2, 378120, Note_off_c, 1, 74, 0
2, 378120, Note_on_c, 1, 77, 51
2, 378240, Note_off_c, 1, 77, 0
2, 378240, Note_on_c, 1, 76, 50
2, 378360, Note_off_c, 1, 76, 0
2, 378360, Note_on_c, 1, 72, 48
2, 378480, Note_off_c, 1, 72, 0
2, 378480, Note_on_c, 1, 71, 47
2, 378600, Note_off_c, 1, 71, 0
2, 378600, Note_on_c, 1, 74, 46
2, 378720, Note_off_c, 1, 74, 0
2, 378720, Note_on_c, 1, 72, 49
2, 378840, Note_off_c, 1, 72, 0
2, 378840, Note_on_c, 1, 74, 47
2, 378960, Note_off_c, 1, 74, 0
2, 378960, Note_on_c, 1, 76, 49
2, 379080, Note_off_c, 1, 76, 0
2, 379080, Note_on_c, 1, 72, 51
2, 379200, Note_off_c, 1, 72, 0
2, 379200, Note_on_c, 1, 69, 52
2, 379320, Note_off_c, 1, 69, 0
2, 379320, Note_on_c, 1, 67, 54
2, 379440, Note_off_c, 1, 67, 0
2, 379440, Note_on_c, 1, 65, 59
2, 379560, Note_off_c, 1, 65, 0
2, 379560, Note_on_c, 1, 67, 57
2, 379680, Note_off_c, 1, 67, 0
2, 379680, Note_on_c, 1, 69, 55
2, 379800, Note_off_c, 1, 69, 0
2, 379800, Note_on_c, 1, 65, 54
2, 379920, Note_off_c, 1, 65, 0
2, 379920, Note_on_c, 1, 63, 52
2, 380040, Note_off_c, 1, 63, 0
2, 380040, Note_on_c, 1, 64, 50
2, 380160, Note_off_c, 1, 64, 0
2, 380160, Note_on_c, 1, 62, 61
2, 380280, Note_off_c, 1, 62, 0
2, 380280, Note_on_c, 1, 64, 58
2, 380400, Note_off_c, 1, 64, 0
2, 380400, Note_on_c, 1, 65, 56
2, 380520, Note_off_c, 1, 65, 0
2, 380520, Note_on_c, 1, 62, 54
2, 380640, Note_off_c, 1, 62, 0
2, 380640, Note_on_c, 1, 59, 52
2, 380760, Note_off_c, 1, 59, 0
2, 380760, Note_on_c, 1, 60, 51
2, 380880, Note_off_c, 1, 60, 0
2, 380880, Note_on_c, 1, 62, 53
2, 381000, Note_off_c, 1, 62, 0
2, 381000, Note_on_c, 1, 65, 50
2, 381120, Note_off_c, 1, 65, 0
2, 381120, Note_on_c, 1, 64, 48
2, 381240, Note_off_c, 1, 64, 0
2, 381240, Note_on_c, 1, 60, 46
2, 381360, Note_off_c, 1, 60, 0
2, 381360, Note_on_c, 1, 59, 43
2, 381480, Note_off_c, 1, 59, 0
2, 381480, Note_on_c, 1, 62, 41
2, 381600, Note_off_c, 1, 62, 0
2, 381600, Note_on_c, 1, 60, 38
2, 381720, Note_off_c, 1, 60, 0
2, 381840, Note_on_c, 1, 67, 45
2, 381960, Note_off_c, 1, 67, 0
2, 382080, Note_on_c, 1, 64, 46
2, 382200, Note_off_c, 1, 64, 0
2, 382320, Note_on_c, 1, 60, 48
2, 382440, Note_off_c, 1, 60, 0
2, 383280, Note_on_c, 1, 72, 53
2, 383400, Note_off_c, 1, 72, 0
2, 383520, Note_on_c, 1, 69, 55
2, 383640, Note_off_c, 1, 69, 0
2, 383760, Note_on_c, 1, 65, 56
2, 383880, Note_off_c, 1, 65, 0
2, 384720, Note_on_c, 1, 77, 62
2, 384840, Note_off_c, 1, 77, 0
2, 384960, Note_on_c, 1, 74, 63
2, 385080, Note_off_c, 1, 74, 0
2, 385200, Note_on_c, 1, 71, 65
2, 385320, Note_off_c, 1, 71, 0
2, 386040, Note_on_c, 1, 72, 70
2, 386160, Note_off_c, 1, 72, 0
2, 386160, Note_on_c, 1, 71, 70
2, 386280, Note_off_c, 1, 71, 0
2, 386280, Note_on_c, 1, 72, 71
2, 386400, Note_off_c, 1, 72, 0
2, 386400, Note_on_c, 1, 76, 72
2, 386520, Note_off_c, 1, 76, 0
2, 386520, Note_on_c, 1, 79, 72
2, 386640, Note_off_c, 1, 79, 0
2, 386760, Note_on_c, 1, 77, 74
2, 386880, Note_off_c, 1, 77, 0
2, 386880, Note_on_c, 1, 76, 75
2, 387000, Note_off_c, 1, 76, 0
2, 387000, Note_on_c, 1, 77, 75
2, 387120, Note_off_c, 1, 77, 0
2, 387120, Note_on_c, 1, 74, 76
2, 387240, Note_off_c, 1, 74, 0
2, 387240, Note_on_c, 1, 71, 77
2, 387360, Note_off_c, 1, 71, 0
2, 387480, Note_on_c, 1, 72, 78
2, 387600, Note_off_c, 1, 72, 0
2, 387600, Note_on_c, 1, 71, 79
2, 387720, Note_off_c, 1, 71, 0
2, 387720, Note_on_c, 1, 72, 80
2, 387840, Note_off_c, 1, 72, 0
2, 387840, Note_on_c, 1, 76, 80
2, 387960, Note_off_c, 1, 76, 0
2, 387960, Note_on_c, 1, 79, 81
2, 388080, Note_off_c, 1, 79, 0
2, 388200, Note_on_c, 1, 77, 82
2, 388320, Note_off_c, 1, 77, 0
2, 388320, Note_on_c, 1, 76, 83
2, 388440, Note_off_c, 1, 76, 0
2, 388440, Note_on_c, 1, 77, 84
2, 388560, Note_off_c, 1, 77, 0
2, 388560, Note_on_c, 1, 74, 85
2, 388680, Note_off_c, 1, 74, 0
2, 388680, Note_on_c, 1, 71, 85
2, 388800, Note_off_c, 1, 71, 0
2, 388800, Note_on_c, 1, 72, 86
2, 388955, Note_off_c, 1, 72, 0
2, 389040, Note_on_c, 1, 84, 87
2, 389195, Note_off_c, 1, 84, 0
2, 389280, Note_on_c, 1, 84, 90
2, 389435, Note_off_c, 1, 84, 0
2, 389520, Note_on_c, 1, 84, 92
2, 389760, Note_off_c, 1, 84, 0
2, 390000, Control_c, 1, 64, 0
2, 390000, Note_on_c, 1, 84, 83
2, 390120, Note_off_c, 1, 84, 0
2, 390120, Note_on_c, 1, 81, 82
2, 390240, Note_off_c, 1, 81, 0
2, 390240, Note_on_c, 1, 77, 81
2, 390340, Note_off_c, 1, 77, 0
2, 390480, Note_on_c, 1, 77, 79
2, 390580, Note_off_c, 1, 77, 0
2, 390720, Note_on_c, 1, 77, 77
2, 390820, Note_off_c, 1, 77, 0
2, 390960, Note_on_c, 1, 76, 75
2, 391020, Note_on_c, 1, 82, 74
2, 391080, Note_off_c, 1, 76, 0
2, 391165, Note_off_c, 1, 82, 0
2, 391680, Note_on_c, 1, 77, 67
2, 391740, Note_on_c, 1, 81, 66
2, 391800, Note_off_c, 1, 77, 0
2, 391880, Note_off_c, 1, 81, 0
2, 392400, Note_on_c, 1, 76, 58
2, 392460, Note_on_c, 1, 79, 57
2, 392515, Note_off_c, 1, 76, 0
2, 392595, Note_off_c, 1, 79, 0
2, 393120, Note_on_c, 1, 77, 77
2, 393240, Note_off_c, 1, 77, 0
2, 393240, Note_on_c, 1, 79, 76
2, 393360, Note_off_c, 1, 79, 0
2, 393360, Note_on_c, 1, 81, 75
2, 393480, Note_off_c, 1, 81, 0
2, 393480, Note_on_c, 1, 77, 75
2, 393600, Note_off_c, 1, 77, 0
2, 393600, Note_on_c, 1, 72, 74
2, 393720, Note_off_c, 1, 72, 0
2, 393720, Note_on_c, 1, 73, 73
2, 393820, Note_off_c, 1, 73, 0
2, 393840, Note_on_c, 1, 74, 73
2, 393960, Note_off_c, 1, 74, 0
2, 393960, Note_on_c, 1, 76, 72
2, 394080, Note_off_c, 1, 76, 0
2, 394080, Note_on_c, 1, 77, 71
2, 394200, Note_off_c, 1, 77, 0
2, 394200, Note_on_c, 1, 74, 70
2, 394320, Note_off_c, 1, 74, 0
2, 394320, Note_on_c, 1, 67, 70
2, 394440, Note_off_c, 1, 67, 0
2, 394440, Note_on_c, 1, 69, 69
2, 394540, Note_off_c, 1, 69, 0
2, 394560, Note_on_c, 1, 70, 68
2, 394680, Note_off_c, 1, 70, 0
2, 394680, Note_on_c, 1, 72, 68
2, 394800, Note_off_c, 1, 72, 0
2, 394800, Note_on_c, 1, 74, 67
2, 394920, Note_off_c, 1, 74, 0
2, 394920, Note_on_c, 1, 70, 66
2, 395040, Note_off_c, 1, 70, 0
2, 395040, Note_on_c, 1, 62, 65
2, 395160, Note_off_c, 1, 62, 0
2, 395160, Note_on_c, 1, 65, 65
2, 395260, Note_off_c, 1, 65, 0
2, 395280, Note_on_c, 1, 64, 64
2, 395400, Note_off_c, 1, 64, 0
2, 395400, Note_on_c, 1, 65, 63
2, 395520, Note_off_c, 1, 65, 0
2, 395520, Note_on_c, 1, 67, 63
2, 395640, Note_off_c, 1, 67, 0
2, 395640, Note_on_c, 1, 64, 62
2, 395740, Note_off_c, 1, 64, 0
2, 395760, Note_on_c, 1, 72, 61
2, 395880, Note_on_c, 1, 69, 60
2, 395885, Note_off_c, 1, 72, 0
2, 396000, Note_off_c, 1, 69, 0
2, 396000, Note_on_c, 1, 65, 60
2, 396100, Note_off_c, 1, 65, 0
2, 396240, Note_on_c, 1, 65, 58
2, 396340, Note_off_c, 1, 65, 0
2, 396480, Note_on_c, 1, 65, 57
2, 396580, Note_off_c, 1, 65, 0
2, 396720, Note_on_c, 1, 64, 57
2, 396780, Note_on_c, 1, 70, 56
2, 396840, Note_off_c, 1, 64, 0
2, 396920, Note_off_c, 1, 70, 0
2, 397440, Note_on_c, 1, 65, 49
2, 397500, Note_on_c, 1, 69, 48
2, 397560, Note_off_c, 1, 65, 0
2, 397640, Note_off_c, 1, 69, 0
2, 398160, Note_on_c, 1, 64, 41
2, 398220, Note_on_c, 1, 67, 40
2, 398280, Note_off_c, 1, 64, 0
2, 398355, Note_off_c, 1, 67, 0
2, 398880, Note_on_c, 1, 65, 64
2, 399000, Note_off_c, 1, 65, 0
2, 399000, Note_on_c, 1, 67, 63
2, 399120, Note_off_c, 1, 67, 0
2, 399120, Note_on_c, 1, 69, 62
2, 399240, Note_off_c, 1, 69, 0
2, 399240, Note_on_c, 1, 70, 61
2, 399360, Note_off_c, 1, 70, 0
2, 399360, Note_on_c, 1, 72, 60
2, 399480, Note_off_c, 1, 72, 0
2, 399480, Note_on_c, 1, 73, 59
2, 399600, Note_off_c, 1, 73, 0
2, 399600, Note_on_c, 1, 74, 58
2, 399720, Note_off_c, 1, 74, 0
2, 399720, Note_on_c, 1, 76, 57
2, 399840, Note_off_c, 1, 76, 0
2, 399840, Note_on_c, 1, 77, 56
2, 399960, Note_off_c, 1, 77, 0
2, 399960, Note_on_c, 1, 79, 55
2, 400080, Note_off_c, 1, 79, 0
2, 400080, Note_on_c, 1, 81, 54
2, 400200, Note_off_c, 1, 81, 0
2, 400200, Note_on_c, 1, 82, 53
2, 400300, Note_off_c, 1, 82, 0
2, 400320, Note_on_c, 1, 84, 52
2, 400420, Note_off_c, 1, 84, 0
2, 400560, Note_on_c, 1, 77, 50
2, 400800, Note_off_c, 1, 77, 0
2, 400800, Note_on_c, 1, 76, 48
2, 400920, Note_off_c, 1, 76, 0
2, 401040, Note_on_c, 1, 77, 46
2, 401450, Note_off_c, 1, 77, 0
2, 401760, Note_on_c, 1, 70, 45
2, 402000, Note_off_c, 1, 70, 0
2, 402000, Note_on_c, 1, 69, 46
2, 402240, Note_off_c, 1, 69, 0
2, 402240, Note_on_c, 1, 67, 47
2, 402360, Note_off_c, 1, 67, 0
2, 402480, Note_on_c, 1, 67, 48
2, 402720, Note_on_c, 1, 65, 48
2, 402730, Note_off_c, 1, 67, 0
2, 402840, Note_off_c, 1, 65, 0
2, 402960, Note_on_c, 1, 65, 49
2, 403080, Note_off_c, 1, 65, 0
2, 403200, Note_on_c, 1, 65, 50
2, 403320, Note_off_c, 1, 65, 0
2, 403440, Note_on_c, 1, 67, 51
2, 403560, Note_off_c, 1, 67, 0
2, 403680, Note_on_c, 1, 64, 51
2, 403800, Note_off_c, 1, 64, 0
2, 403920, Note_on_c, 1, 65, 52
2, 404160, Note_off_c, 1, 65, 0
2, 404640, Note_on_c, 1, 74, 54
2, 404880, Note_off_c, 1, 74, 0
2, 404880, Note_on_c, 1, 72, 55
2, 405120, Note_off_c, 1, 72, 0
2, 405120, Note_on_c, 1, 70, 56
2, 405240, Note_off_c, 1, 70, 0
2, 405360, Note_on_c, 1, 70, 57
2, 405600, Note_on_c, 1, 69, 57
2, 405605, Note_off_c, 1, 70, 0
2, 405720, Note_off_c, 1, 69, 0
2, 405840, Note_on_c, 1, 69, 58
2, 405960, Note_off_c, 1, 69, 0
2, 406080, Note_on_c, 1, 69, 59
2, 406200, Note_off_c, 1, 69, 0
2, 406320, Note_on_c, 1, 70, 60
2, 406440, Note_off_c, 1, 70, 0
2, 406560, Note_on_c, 1, 67, 60
2, 406680, Note_off_c, 1, 67, 0
2, 406800, Note_on_c, 1, 69, 61
2, 406955, Note_off_c, 1, 69, 0
2, 407640, Note_on_c, 1, 69, 72
2, 407760, Note_off_c, 1, 69, 0
2, 407760, Note_on_c, 1, 74, 73
2, 407880, Note_off_c, 1, 74, 0
2, 407880, Note_on_c, 1, 77, 73
2, 408000, Note_off_c, 1, 77, 0
2, 408000, Note_on_c, 1, 81, 73
2, 408120, Note_off_c, 1, 81, 0
2, 408360, Note_on_c, 1, 67, 74
2, 408480, Note_off_c, 1, 67, 0
2, 408480, Note_on_c, 1, 72, 75
2, 408600, Note_off_c, 1, 72, 0
2, 408600, Note_on_c, 1, 76, 75
2, 408720, Note_off_c, 1, 76, 0
2, 408720, Note_on_c, 1, 79, 76
2, 408840, Note_off_c, 1, 79, 0
2, 409080, Note_on_c, 1, 65, 77
2, 409200, Note_off_c, 1, 65, 0
2, 409200, Note_on_c, 1, 71, 77
2, 409320, Note_off_c, 1, 71, 0
2, 409320, Note_on_c, 1, 74, 77
2, 409440, Note_off_c, 1, 74, 0
2, 409440, Note_on_c, 1, 77, 78
2, 409560, Note_off_c, 1, 77, 0
2, 409800, Note_on_c, 1, 64, 79
2, 409920, Note_off_c, 1, 64, 0
2, 409920, Note_on_c, 1, 67, 79
2, 410040, Note_off_c, 1, 67, 0
2, 410040, Note_on_c, 1, 72, 80
2, 410160, Note_off_c, 1, 72, 0
2, 410160, Note_on_c, 1, 76, 80
2, 410280, Note_off_c, 1, 76, 0
2, 410520, Note_on_c, 1, 69, 81
2, 410640, Note_off_c, 1, 69, 0
2, 410640, Note_on_c, 1, 74, 81
2, 410760, Note_off_c, 1, 74, 0
2, 410760, Note_on_c, 1, 73, 82
2, 410880, Note_off_c, 1, 73, 0
2, 410880, Note_on_c, 1, 76, 82
2, 411000, Note_off_c, 1, 76, 0
2, 411000, Note_on_c, 1, 74, 83
2, 411120, Note_off_c, 1, 74, 0
2, 411120, Note_on_c, 1, 77, 83
2, 411240, Note_off_c, 1, 77, 0
2, 411240, Note_on_c, 1, 76, 83
2, 411360, Note_off_c, 1, 76, 0
2, 411360, Note_on_c, 1, 79, 84
2, 411480, Note_off_c, 1, 79, 0
2, 411480, Note_on_c, 1, 77, 84
2, 411600, Note_off_c, 1, 77, 0
2, 411600, Note_on_c, 1, 81, 84
2, 411720, Note_off_c, 1, 81, 0
2, 411720, Note_on_c, 1, 80, 85
2, 411840, Note_off_c, 1, 80, 0
2, 411840, Note_on_c, 1, 81, 85
2, 412032, Note_off_c, 1, 81, 0
2, 412320, Note_on_c, 1, 72, 68
2, 412560, Note_off_c, 1, 72, 0
2, 412560, Note_on_c, 1, 71, 62
2, 412740, Note_off_c, 1, 71, 0
2, 413760, Note_on_c, 1, 84, 66
2, 414000, Note_off_c, 1, 84, 0
2, 414000, Note_on_c, 1, 83, 60
2, 414185, Note_off_c, 1, 83, 0
2, 415200, Note_on_c, 1, 72, 60
2, 415440, Note_off_c, 1, 72, 0
2, 415440, Note_on_c, 1, 71, 55
2, 415625, Note_off_c, 1, 71, 0
2, 416880, Note_on_c, 1, 77, 56
2, 417215, Note_off_c, 1, 77, 0
2, 417240, Note_on_c, 1, 77, 58
2, 417350, Note_off_c, 1, 77, 0
2, 417360, Note_on_c, 1, 77, 59
2, 417575, Note_off_c, 1, 77, 0
2, 417600, Note_on_c, 1, 77, 61
2, 417660, Note_off_c, 1, 77, 0
2, 417660, Note_on_c, 1, 79, 63
2, 417720, Note_on_c, 1, 81, 67
2, 417725, Note_off_c, 1, 79, 0
2, 417960, Note_off_c, 1, 81, 0
2, 417960, Note_on_c, 1, 79, 61
2, 418065, Note_off_c, 1, 79, 0
2, 418080, Note_on_c, 1, 77, 58
2, 418290, Note_off_c, 1, 77, 0
2, 418320, Note_on_c, 1, 77, 57
2, 418655, Note_off_c, 1, 77, 0
2, 418680, Note_on_c, 1, 77, 58
2, 418790, Note_off_c, 1, 77, 0
2, 418800, Note_on_c, 1, 77, 58
2, 419015, Note_off_c, 1, 77, 0
2, 419040, Note_on_c, 1, 77, 60
2, 419100, Note_off_c, 1, 77, 0
2, 419100, Note_on_c, 1, 79, 63
2, 419160, Note_on_c, 1, 81, 67
2, 419165, Note_off_c, 1, 79, 0
2, 419400, Note_off_c, 1, 81, 0
2, 419400, Note_on_c, 1, 79, 61
2, 419505, Note_off_c, 1, 79, 0
2, 419520, Note_on_c, 1, 77, 59
2, 419730, Note_off_c, 1, 77, 0
2, 419760, Note_on_c, 1, 76, 56
2, 420000, Note_off_c, 1, 76, 0
2, 420240, Note_on_c, 1, 76, 59
2, 420480, Note_off_c, 1, 76, 0
2, 420480, Note_on_c, 1, 79, 67
2, 420960, Note_off_c, 1, 79, 0
2, 420960, Note_on_c, 1, 77, 57
2, 421200, Note_off_c, 1, 77, 0
2, 421200, Note_on_c, 1, 76, 55
2, 421440, Note_off_c, 1, 76, 0
2, 421680, Note_on_c, 1, 76, 57
2, 421920, Note_off_c, 1, 76, 0
2, 421920, Note_on_c, 1, 79, 63
2, 422400, Note_off_c, 1, 79, 0
2, 422400, Note_on_c, 1, 77, 56
2, 422640, Note_off_c, 1, 77, 0
2, 422640, Note_on_c, 1, 76, 54
2, 422880, Note_off_c, 1, 76, 0
2, 423120, Note_on_c, 1, 76, 57
2, 423360, Note_off_c, 1, 76, 0
2, 423360, Note_on_c, 1, 79, 67
2, 423600, Note_off_c, 1, 79, 0
2, 423600, Note_on_c, 1, 77, 63
2, 423720, Note_off_c, 1, 77, 0
2, 423840, Note_on_c, 1, 76, 59
2, 423960, Note_off_c, 1, 76, 0
2, 424080, Note_on_c, 1, 76, 63
2, 424320, Note_off_c, 1, 76, 0
2, 424320, Note_on_c, 1, 74, 60
2, 424440, Note_off_c, 1, 74, 0
2, 424560, Note_on_c, 1, 72, 56
2, 424680, Note_off_c, 1, 72, 0
2, 424800, Note_on_c, 1, 72, 58
2, 424860, Note_off_c, 1, 72, 0
2, 424860, Note_on_c, 1, 74, 56
2, 424920, Note_off_c, 1, 74, 0
2, 424920, Note_on_c, 1, 72, 55
2, 424980, Note_off_c, 1, 72, 0
2, 424980, Note_on_c, 1, 74, 53
2, 425040, Note_off_c, 1, 74, 0
2, 425040, Note_on_c, 1, 72, 51
2, 425160, Note_off_c, 1, 72, 0
2, 425160, Note_on_c, 1, 74, 48
2, 425280, Note_off_c, 1, 74, 0
2, 425280, Note_on_c, 1, 71, 45
2, 425520, Note_off_c, 1, 71, 0
2, 425520, Note_on_c, 1, 77, 53
2, 425855, Note_off_c, 1, 77, 0
2, 425880, Note_on_c, 1, 77, 53
2, 425990, Note_off_c, 1, 77, 0
2, 426000, Note_on_c, 1, 77, 55
2, 426215, Note_off_c, 1, 77, 0
2, 426240, Note_on_c, 1, 77, 57
2, 426300, Note_off_c, 1, 77, 0
2, 426300, Note_on_c, 1, 79, 58
2, 426360, Note_on_c, 1, 81, 61
2, 426365, Note_off_c, 1, 79, 0
2, 426600, Note_off_c, 1, 81, 0
2, 426600, Note_on_c, 1, 79, 54
2, 426705, Note_off_c, 1, 79, 0
2, 426720, Note_on_c, 1, 77, 52
2, 426930, Note_off_c, 1, 77, 0
2, 426960, Note_on_c, 1, 77, 52
2, 427295, Note_off_c, 1, 77, 0
2, 427320, Note_on_c, 1, 77, 53
2, 427430, Note_off_c, 1, 77, 0
2, 427440, Note_on_c, 1, 77, 55
2, 427655, Note_off_c, 1, 77, 0
2, 427680, Note_on_c, 1, 77, 57
2, 427740, Note_off_c, 1, 77, 0
2, 427740, Note_on_c, 1, 79, 58
2, 427800, Note_on_c, 1, 81, 60
2, 427805, Note_off_c, 1, 79, 0
2, 428040, Note_off_c, 1, 81, 0
2, 428040, Note_on_c, 1, 79, 56
2, 428145, Note_off_c, 1, 79, 0
2, 428160, Note_on_c, 1, 77, 54
2, 428370, Note_off_c, 1, 77, 0
2, 428400, Note_on_c, 1, 76, 52
2, 428580, Note_off_c, 1, 76, 0
2, 428880, Note_on_c, 1, 76, 56
2, 429000, Note_off_c, 1, 76, 0
2, 429120, Note_on_c, 1, 79, 62
2, 429240, Note_off_c, 1, 79, 0
2, 429360, Note_on_c, 1, 78, 56
2, 429480, Note_off_c, 1, 78, 0
2, 429600, Note_on_c, 1, 77, 53
2, 429720, Note_off_c, 1, 77, 0
2, 429840, Note_on_c, 1, 76, 51
2, 430020, Note_off_c, 1, 76, 0
2, 430320, Note_on_c, 1, 76, 54
2, 430440, Note_off_c, 1, 76, 0
2, 430560, Note_on_c, 1, 79, 60
2, 430680, Note_off_c, 1, 79, 0
2, 430800, Note_on_c, 1, 78, 53
2, 430920, Note_off_c, 1, 78, 0
2, 431040, Note_on_c, 1, 77, 50
2, 431160, Note_off_c, 1, 77, 0
2, 431280, Note_on_c, 1, 76, 48
2, 431400, Note_off_c, 1, 76, 0
2, 431400, Note_on_c, 1, 79, 49
2, 431520, Note_off_c, 1, 79, 0
2, 431520, Note_on_c, 1, 84, 51
2, 431640, Note_off_c, 1, 84, 0
2, 431640, Note_on_c, 1, 83, 53
2, 431760, Note_off_c, 1, 83, 0
2, 431760, Note_on_c, 1, 81, 55
2, 431880, Note_off_c, 1, 81, 0
2, 431880, Note_on_c, 1, 79, 56
2, 432000, Note_off_c, 1, 79, 0
2, 432000, Note_on_c, 1, 77, 63
2, 432120, Note_off_c, 1, 77, 0
2, 432120, Note_on_c, 1, 79, 61
2, 432240, Note_off_c, 1, 79, 0
2, 432240, Note_on_c, 1, 81, 60
2, 432360, Note_off_c, 1, 81, 0
2, 432360, Note_on_c, 1, 77, 58
2, 432480, Note_off_c, 1, 77, 0
2, 432480, Note_on_c, 1, 75, 56
2, 432600, Note_off_c, 1, 75, 0
2, 432600, Note_on_c, 1, 76, 54
2, 432720, Note_off_c, 1, 76, 0
2, 432720, Note_on_c, 1, 74, 61
2, 432840, Note_off_c, 1, 74, 0
2, 432840, Note_on_c, 1, 76, 59
2, 432960, Note_off_c, 1, 76, 0
2, 432960, Note_on_c, 1, 77, 57
2, 433080, Note_off_c, 1, 77, 0
2, 433080, Note_on_c, 1, 74, 56
2, 433200, Note_off_c, 1, 74, 0
2, 433200, Note_on_c, 1, 71, 55
2, 433320, Note_off_c, 1, 71, 0
2, 433320, Note_on_c, 1, 72, 53
2, 433440, Note_off_c, 1, 72, 0
2, 433440, Note_on_c, 1, 74, 52
2, 433560, Note_off_c, 1, 74, 0
2, 433560, Note_on_c, 1, 77, 51
2, 433680, Note_off_c, 1, 77, 0
2, 433680, Note_on_c, 1, 76, 50
2, 433800, Note_off_c, 1, 76, 0
2, 433800, Note_on_c, 1, 72, 48
2, 433920, Note_off_c, 1, 72, 0
2, 433920, Note_on_c, 1, 71, 47
2, 434040, Note_off_c, 1, 71, 0
2, 434040, Note_on_c, 1, 74, 46
2, 434160, Note_off_c, 1, 74, 0
2, 434160, Note_on_c, 1, 72, 49
2, 434280, Note_off_c, 1, 72, 0
2, 434280, Note_on_c, 1, 74, 47
2, 434400, Note_off_c, 1, 74, 0
2, 434400, Note_on_c, 1, 76, 49
2, 434520, Note_off_c, 1, 76, 0
2, 434520, Note_on_c, 1, 72, 51
2, 434640, Note_off_c, 1, 72, 0
2, 434640, Note_on_c, 1, 69, 52
2, 434760, Note_off_c, 1, 69, 0
2, 434760, Note_on_c, 1, 67, 54
2, 434880, Note_off_c, 1, 67, 0
2, 434880, Note_on_c, 1, 65, 59
2, 435000, Note_off_c, 1, 65, 0
2, 435000, Note_on_c, 1, 67, 57
2, 435120, Note_off_c, 1, 67, 0
2, 435120, Note_on_c, 1, 69, 55
2, 435240, Note_off_c, 1, 69, 0
2, 435240, Note_on_c, 1, 65, 54
2, 435360, Note_off_c, 1, 65, 0
2, 435360, Note_on_c, 1, 63, 52
2, 435480, Note_off_c, 1, 63, 0
2, 435480, Note_on_c, 1, 64, 50
2, 435600, Note_off_c, 1, 64, 0
2, 435600, Note_on_c, 1, 62, 61
2, 435720, Note_off_c, 1, 62, 0
2, 435720, Note_on_c, 1, 64, 58
2, 435840, Note_off_c, 1, 64, 0
2, 435840, Note_on_c, 1, 65, 56
2, 435960, Note_off_c, 1, 65, 0
2, 435960, Note_on_c, 1, 62, 54
2, 436080, Note_off_c, 1, 62, 0
2, 436080, Note_on_c, 1, 59, 52
2, 436200, Note_off_c, 1, 59, 0
2, 436200, Note_on_c, 1, 60, 51
2, 436320, Note_off_c, 1, 60, 0
2, 436320, Note_on_c, 1, 62, 53
2, 436440, Note_off_c, 1, 62, 0
2, 436440, Note_on_c, 1, 65, 50
2, 436560, Note_off_c, 1, 65, 0
2, 436560, Note_on_c, 1, 64, 48
2, 436680, Note_off_c, 1, 64, 0
2, 436680, Note_on_c, 1, 60, 46
2, 436800, Note_off_c, 1, 60, 0
2, 436800, Note_on_c, 1, 59, 43
2, 436920, Note_off_c, 1, 59, 0
2, 436920, Note_on_c, 1, 62, 41
2, 437040, Note_off_c, 1, 62, 0
2, 437040, Note_on_c, 1, 60, 38
2, 437160, Note_off_c, 1, 60, 0
2, 437280, Note_on_c, 1, 67, 45
2, 437400, Note_off_c, 1, 67, 0
2, 437520, Note_on_c, 1, 64, 46
2, 437640, Note_off_c, 1, 64, 0
2, 437760, Note_on_c, 1, 60, 48
2, 437880, Note_off_c, 1, 60, 0
2, 438720, Note_on_c, 1, 72, 53
2, 438840, Note_off_c, 1, 72, 0
2, 438960, Note_on_c, 1, 69, 55
2, 439080, Note_off_c, 1, 69, 0
2, 439200, Note_on_c, 1, 65, 56
2, 439320, Note_off_c, 1, 65, 0
2, 440160, Note_on_c, 1, 77, 62
2, 440280, Note_off_c, 1, 77, 0
2, 440400, Note_on_c, 1, 74, 63
2, 440520, Note_off_c, 1, 74, 0
2, 440640, Note_on_c, 1, 71, 65
2, 440760, Note_off_c, 1, 71, 0
2, 441480, Note_on_c, 1, 72, 70
2, 441600, Note_off_c, 1, 72, 0
2, 441600, Note_on_c, 1, 71, 70
2, 441720, Note_off_c, 1, 71, 0
2, 441720, Note_on_c, 1, 72, 71
2, 441840, Note_off_c, 1, 72, 0
2, 441840, Note_on_c, 1, 76, 72
2, 441960, Note_off_c, 1, 76, 0
2, 441960, Note_on_c, 1, 79, 72
2, 442080, Note_off_c, 1, 79, 0
2, 442200, Note_on_c, 1, 77, 74
2, 442320, Note_off_c, 1, 77, 0
2, 442320, Note_on_c, 1, 76, 75
2, 442440, Note_off_c, 1, 76, 0
2, 442440, Note_on_c, 1, 77, 75
2, 442560, Note_off_c, 1, 77, 0
2, 442560, Note_on_c, 1, 74, 76
2, 442680, Note_off_c, 1, 74, 0
2, 442680, Note_on_c, 1, 71, 77
2, 442800, Note_off_c, 1, 71, 0
2, 442920, Note_on_c, 1, 72, 78
2, 443040, Note_off_c, 1, 72, 0
2, 443040, Note_on_c, 1, 71, 79
2, 443160, Note_off_c, 1, 71, 0
2, 443160, Note_on_c, 1, 72, 80
2, 443280, Note_off_c, 1, 72, 0
2, 443280, Note_on_c, 1, 76, 80
2, 443400, Note_off_c, 1, 76, 0
2, 443400, Note_on_c, 1, 79, 81
2, 443520, Note_off_c, 1, 79, 0
2, 443640, Note_on_c, 1, 77, 82
2, 443760, Note_off_c, 1, 77, 0
2, 443760, Note_on_c, 1, 76, 83
2, 443880, Note_off_c, 1, 76, 0
2, 443880, Note_on_c, 1, 77, 84
2, 444000, Note_off_c, 1, 77, 0
2, 444000, Note_on_c, 1, 74, 85
2, 444120, Note_off_c, 1, 74, 0
2, 444120, Note_on_c, 1, 71, 85
2, 444240, Note_off_c, 1, 71, 0
2, 444240, Note_on_c, 1, 72, 86
2, 444395, Note_off_c, 1, 72, 0
2, 444480, Note_on_c, 1, 84, 87
2, 444635, Note_off_c, 1, 84, 0
2, 444720, Note_on_c, 1, 84, 90
2, 444875, Note_off_c, 1, 84, 0
2, 444960, Note_on_c, 1, 84, 92
2, 445200, Note_off_c, 1, 84, 0
2, 445440, Control_c, 1, 64, 0
2, 445680, Note_on_c, 1, 72, 46
2, 446015, Note_off_c, 1, 72, 0
2, 446040, Note_on_c, 1, 72, 48
2, 446150, Note_off_c, 1, 72, 0
2, 446160, Note_on_c, 1, 72, 50
2, 446375, Note_off_c, 1, 72, 0
2, 446400, Note_on_c, 1, 72, 53
2, 446460, Note_off_c, 1, 72, 0
2, 446460, Note_on_c, 1, 74, 54
2, 446520, Note_on_c, 1, 75, 57
2, 446525, Note_off_c, 1, 74, 0
2, 446760, Note_off_c, 1, 75, 0
2, 446760, Note_on_c, 1, 74, 52
2, 446865, Note_off_c, 1, 74, 0
2, 446880, Note_on_c, 1, 72, 49
2, 447090, Note_off_c, 1, 72, 0
2, 447120, Note_on_c, 1, 72, 48
2, 447455, Note_off_c, 1, 72, 0
2, 447480, Note_on_c, 1, 72, 51
2, 447590, Note_off_c, 1, 72, 0
2, 447600, Note_on_c, 1, 72, 53
2, 447815, Note_off_c, 1, 72, 0
2, 447840, Note_on_c, 1, 72, 55
2, 447900, Note_off_c, 1, 72, 0
2, 447900, Note_on_c, 1, 74, 56
2, 447960, Note_on_c, 1, 75, 59
2, 447965, Note_off_c, 1, 74, 0
2, 448200, Note_off_c, 1, 75, 0
2, 448200, Note_on_c, 1, 74, 53
2, 448305, Note_off_c, 1, 74, 0
2, 448320, Note_on_c, 1, 72, 50
2, 448530, Note_off_c, 1, 72, 0
2, 448560, Note_on_c, 1, 84, 60
2, 449280, Note_off_c, 1, 84, 0
2, 449280, Note_on_c, 1, 82, 64
2, 450000, Note_off_c, 1, 82, 0
2, 450000, Note_on_c, 1, 81, 67
2, 450720, Note_off_c, 1, 81, 0
2, 450720, Note_on_c, 1, 79, 71
2, 451200, Note_off_c, 1, 79, 0
2, 451440, Note_on_c, 1, 70, 55
2, 451775, Note_off_c, 1, 70, 0
2, 451800, Note_on_c, 1, 70, 58
2, 451905, Note_off_c, 1, 70, 0
2, 451920, Note_on_c, 1, 70, 60
2, 452135, Note_off_c, 1, 70, 0
2, 452160, Note_on_c, 1, 70, 63
2, 452220, Note_off_c, 1, 70, 0
2, 452220, Note_on_c, 1, 72, 64
2, 452280, Note_on_c, 1, 73, 67
2, 452285, Note_off_c, 1, 72, 0
2, 452520, Note_off_c, 1, 73, 0
2, 452520, Note_on_c, 1, 72, 63
2, 452625, Note_off_c, 1, 72, 0
2, 452640, Note_on_c, 1, 70, 60
2, 452850, Note_off_c, 1, 70, 0
2, 452880, Note_on_c, 1, 70, 57
2, 453215, Note_off_c, 1, 70, 0
2, 453240, Note_on_c, 1, 70, 59
2, 453345, Note_off_c, 1, 70, 0
2, 453360, Note_on_c, 1, 70, 60
2, 453575, Note_off_c, 1, 70, 0
2, 453600, Note_on_c, 1, 70, 63
2, 453660, Note_off_c, 1, 70, 0
2, 453660, Note_on_c, 1, 72, 64
2, 453720, Note_on_c, 1, 73, 67
2, 453725, Note_off_c, 1, 72, 0
2, 453960, Note_off_c, 1, 73, 0
2, 453960, Note_on_c, 1, 72, 62
2, 454065, Note_off_c, 1, 72, 0
2, 454080, Note_on_c, 1, 70, 60
2, 454290, Note_off_c, 1, 70, 0
2, 454440, Note_on_c, 1, 72, 72
2, 454540, Note_off_c, 1, 72, 0
2, 454680, Note_on_c, 1, 74, 72
2, 454780, Note_off_c, 1, 74, 0
2, 454920, Note_on_c, 1, 76, 72
2, 455020, Note_off_c, 1, 76, 0
2, 455160, Note_on_c, 1, 77, 73
2, 455260, Note_off_c, 1, 77, 0
2, 455400, Note_on_c, 1, 79, 73
2, 455500, Note_off_c, 1, 79, 0
2, 455640, Note_on_c, 1, 81, 73
2, 455740, Note_off_c, 1, 81, 0
2, 455760, Note_on_c, 1, 82, 74
2, 456360, Note_off_c, 1, 82, 0
2, 456480, Note_on_c, 1, 81, 75
2, 457080, Note_off_c, 1, 81, 0
2, 457320, Note_on_c, 1, 69, 76
2, 457420, Note_off_c, 1, 69, 0
2, 457560, Note_on_c, 1, 71, 76
2, 457660, Note_off_c, 1, 71, 0
2, 457800, Note_on_c, 1, 73, 76
2, 457900, Note_off_c, 1, 73, 0
2, 458040, Note_on_c, 1, 74, 77
2, 458140, Note_off_c, 1, 74, 0
2, 458280, Note_on_c, 1, 76, 77
2, 458380, Note_off_c, 1, 76, 0
2, 458520, Note_on_c, 1, 77, 77
2, 458620, Note_off_c, 1, 77, 0
2, 458640, Note_on_c, 1, 79, 77
2, 459240, Note_off_c, 1, 79, 0
2, 459360, Note_on_c, 1, 77, 78
2, 459960, Note_off_c, 1, 77, 0
2, 460200, Note_on_c, 1, 75, 68
2, 460300, Note_off_c, 1, 75, 0
2, 460320, Note_on_c, 1, 74, 68
2, 460420, Note_off_c, 1, 74, 0
2, 460440, Note_on_c, 1, 75, 68
2, 460540, Note_off_c, 1, 75, 0
2, 460560, Note_on_c, 1, 79, 69
2, 460660, Note_off_c, 1, 79, 0
2, 460680, Note_on_c, 1, 75, 69
2, 460780, Note_off_c, 1, 75, 0
2, 460920, Note_on_c, 1, 74, 69
2, 461020, Note_off_c, 1, 74, 0
2, 461040, Note_on_c, 1, 73, 69
2, 461140, Note_off_c, 1, 73, 0
2, 461160, Note_on_c, 1, 74, 70
2, 461260, Note_off_c, 1, 74, 0
2, 461280, Note_on_c, 1, 77, 70
2, 461380, Note_off_c, 1, 77, 0
2, 461400, Note_on_c, 1, 74, 70
2, 461500, Note_off_c, 1, 74, 0
2, 461640, Note_on_c, 1, 73, 70
2, 461740, Note_off_c, 1, 73, 0
2, 461760, Note_on_c, 1, 71, 70
2, 461860, Note_off_c, 1, 71, 0
2, 461880, Note_on_c, 1, 73, 71
2, 461980, Note_off_c, 1, 73, 0
2, 462000, Note_on_c, 1, 76, 71
2, 462100, Note_off_c, 1, 76, 0
2, 462120, Note_on_c, 1, 73, 71
2, 462220, Note_off_c, 1, 73, 0
2, 462360, Note_on_c, 1, 74, 71
2, 462460, Note_off_c, 1, 74, 0
2, 462480, Note_on_c, 1, 73, 72
2, 462580, Note_off_c, 1, 73, 0
2, 462600, Note_on_c, 1, 74, 72
2, 462700, Note_off_c, 1, 74, 0
2, 462720, Note_on_c, 1, 77, 72
2, 462820, Note_off_c, 1, 77, 0
2, 462840, Note_on_c, 1, 74, 72
2, 462940, Note_off_c, 1, 74, 0
2, 462960, Note_on_c, 1, 86, 80
2, 463160, Note_off_c, 1, 86, 0
2, 463680, Note_on_c, 1, 85, 82
2, 463880, Note_off_c, 1, 85, 0
2, 464400, Note_on_c, 1, 86, 83
2, 464600, Note_off_c, 1, 86, 0
2, 465120, Note_on_c, 1, 85, 85
2, 465320, Note_off_c, 1, 85, 0
2, 466320, Note_on_c, 1, 84, 74
2, 466440, Note_off_c, 1, 84, 0
2, 466440, Note_on_c, 1, 81, 73
2, 466560, Note_off_c, 1, 81, 0
2, 466560, Note_on_c, 1, 77, 72
2, 466660, Note_off_c, 1, 77, 0
2, 466800, Note_on_c, 1, 77, 70
2, 466900, Note_off_c, 1, 77, 0
2, 467040, Note_on_c, 1, 77, 68
2, 467140, Note_off_c, 1, 77, 0
2, 467280, Note_on_c, 1, 76, 67
2, 467340, Note_on_c, 1, 82, 65
2, 467405, Note_off_c, 1, 76, 0
2, 467510, Note_off_c, 1, 82, 0
2, 468000, Note_on_c, 1, 77, 58
2, 468060, Note_on_c, 1, 81, 58
2, 468125, Note_off_c, 1, 77, 0
2, 468225, Note_off_c, 1, 81, 0
2, 468720, Note_on_c, 1, 76, 51
2, 468780, Note_on_c, 1, 79, 51
2, 468845, Note_off_c, 1, 76, 0
2, 468945, Note_off_c, 1, 79, 0
2, 469440, Note_on_c, 1, 77, 67
2, 469540, Note_off_c, 1, 77, 0
2, 469560, Note_on_c, 1, 79, 66
2, 469660, Note_off_c, 1, 79, 0
2, 469680, Note_on_c, 1, 81, 66
2, 469780, Note_off_c, 1, 81, 0
2, 469800, Note_on_c, 1, 77, 65
2, 469900, Note_off_c, 1, 77, 0
2, 469920, Note_on_c, 1, 72, 64
2, 470020, Note_off_c, 1, 72, 0
2, 470040, Note_on_c, 1, 73, 64
2, 470140, Note_off_c, 1, 73, 0
2, 470160, Note_on_c, 1, 74, 63
2, 470260, Note_off_c, 1, 74, 0
2, 470280, Note_on_c, 1, 76, 63
2, 470380, Note_off_c, 1, 76, 0
2, 470400, Note_on_c, 1, 77, 62
2, 470500, Note_off_c, 1, 77, 0
2, 470520, Note_on_c, 1, 74, 61
2, 470620, Note_off_c, 1, 74, 0
2, 470640, Note_on_c, 1, 67, 61
2, 470740, Note_off_c, 1, 67, 0
2, 470760, Note_on_c, 1, 69, 60
2, 470860, Note_off_c, 1, 69, 0
2, 470880, Note_on_c, 1, 70, 60
2, 470980, Note_off_c, 1, 70, 0
2, 471000, Note_on_c, 1, 72, 59
2, 471100, Note_off_c, 1, 72, 0
2, 471120, Note_on_c, 1, 74, 58
2, 471220, Note_off_c, 1, 74, 0
2, 471240, Note_on_c, 1, 70, 58
2, 471340, Note_off_c, 1, 70, 0
2, 471360, Note_on_c, 1, 62, 57
2, 471460, Note_off_c, 1, 62, 0
2, 471480, Note_on_c, 1, 65, 56
2, 471580, Note_off_c, 1, 65, 0
2, 471600, Note_on_c, 1, 64, 56
2, 471700, Note_off_c, 1, 64, 0
2, 471720, Note_on_c, 1, 65, 55
2, 471820, Note_off_c, 1, 65, 0
2, 471840, Note_on_c, 1, 67, 55
2, 471940, Note_off_c, 1, 67, 0
2, 471960, Note_on_c, 1, 64, 54
2, 472060, Note_off_c, 1, 64, 0
2, 472080, Note_on_c, 1, 72, 53
2, 472200, Note_on_c, 1, 69, 53
2, 472205, Note_off_c, 1, 72, 0
2, 472320, Note_off_c, 1, 69, 0
2, 472320, Note_on_c, 1, 65, 52
2, 472420, Note_off_c, 1, 65, 0
2, 472560, Note_on_c, 1, 65, 51
2, 472660, Note_off_c, 1, 65, 0
2, 472800, Note_on_c, 1, 65, 50
2, 472900, Note_off_c, 1, 65, 0
2, 473040, Note_on_c, 1, 64, 48
2, 473100, Note_on_c, 1, 70, 48
2, 473160, Note_off_c, 1, 64, 0
2, 473265, Note_off_c, 1, 70, 0
2, 473760, Note_on_c, 1, 65, 45
2, 473820, Note_on_c, 1, 69, 44
2, 473885, Note_off_c, 1, 65, 0
2, 473985, Note_off_c, 1, 69, 0
2, 474480, Note_on_c, 1, 64, 41
2, 474540, Note_on_c, 1, 67, 41
2, 474605, Note_off_c, 1, 64, 0
2, 474705, Note_off_c, 1, 67, 0
2, 475200, Note_on_c, 1, 65, 57
2, 475300, Note_off_c, 1, 65, 0
2, 475320, Note_on_c, 1, 67, 57
2, 475420, Note_off_c, 1, 67, 0
2, 475440, Note_on_c, 1, 69, 56
2, 475540, Note_off_c, 1, 69, 0
2, 475560, Note_on_c, 1, 70, 55
2, 475660, Note_off_c, 1, 70, 0
2, 475680, Note_on_c, 1, 72, 54
2, 475780, Note_off_c, 1, 72, 0
2, 475800, Note_on_c, 1, 73, 53
2, 475900, Note_off_c, 1, 73, 0
2, 475920, Note_on_c, 1, 74, 52
2, 476020, Note_off_c, 1, 74, 0
2, 476040, Note_on_c, 1, 76, 51
2, 476140, Note_off_c, 1, 76, 0
2, 476160, Note_on_c, 1, 77, 51
2, 476260, Note_off_c, 1, 77, 0
2, 476280, Note_on_c, 1, 79, 50
2, 476380, Note_off_c, 1, 79, 0
2, 476400, Note_on_c, 1, 81, 49
2, 476500, Note_off_c, 1, 81, 0
2, 476520, Note_on_c, 1, 82, 48
2, 476620, Note_off_c, 1, 82, 0
2, 476640, Note_on_c, 1, 84, 47
2, 476740, Note_off_c, 1, 84, 0
2, 476880, Note_on_c, 1, 77, 46
2, 477000, Note_off_c, 1, 77, 0
2, 477120, Note_on_c, 1, 76, 44
2, 477240, Note_off_c, 1, 76, 0
2, 477360, Note_on_c, 1, 77, 42
2, 477770, Note_off_c, 1, 77, 0
2, 478080, Note_on_c, 1, 70, 46
2, 478320, Note_off_c, 1, 70, 0
2, 478320, Note_on_c, 1, 69, 46
2, 478440, Note_off_c, 1, 69, 0
2, 478560, Note_on_c, 1, 67, 47
2, 478680, Note_off_c, 1, 67, 0
2, 478800, Note_on_c, 1, 67, 48
2, 479040, Note_on_c, 1, 65, 49
2, 479045, Note_off_c, 1, 67, 0
2, 479160, Note_off_c, 1, 65, 0
2, 479280, Note_on_c, 1, 65, 49
2, 479400, Note_off_c, 1, 65, 0
2, 479520, Note_on_c, 1, 65, 50
2, 479640, Note_off_c, 1, 65, 0
2, 479760, Note_on_c, 1, 67, 51
2, 479880, Note_off_c, 1, 67, 0
2, 480000, Note_on_c, 1, 64, 52
2, 480120, Note_off_c, 1, 64, 0
2, 480240, Note_on_c, 1, 65, 53
2, 480480, Note_off_c, 1, 65, 0
2, 480960, Note_on_c, 1, 74, 55
2, 481200, Note_off_c, 1, 74, 0
2, 481200, Note_on_c, 1, 72, 56
2, 481320, Note_off_c, 1, 72, 0
2, 481440, Note_on_c, 1, 70, 56
2, 481560, Note_off_c, 1, 70, 0
2, 481680, Note_on_c, 1, 70, 57
2, 481920, Note_off_c, 1, 70, 0
2, 481920, Note_on_c, 1, 69, 58
2, 482040, Note_off_c, 1, 69, 0
2, 482160, Note_on_c, 1, 69, 59
2, 482280, Note_off_c, 1, 69, 0
2, 482400, Note_on_c, 1, 69, 59
2, 482520, Note_off_c, 1, 69, 0
2, 482640, Note_on_c, 1, 70, 60
2, 482760, Note_off_c, 1, 70, 0
2, 482880, Note_on_c, 1, 67, 61
2, 483000, Note_off_c, 1, 67, 0
2, 483120, Note_on_c, 1, 69, 62
2, 483275, Note_off_c, 1, 69, 0
2, 483960, Note_on_c, 1, 69, 64
2, 484080, Note_off_c, 1, 69, 0
2, 484080, Note_on_c, 1, 74, 65
2, 484200, Note_off_c, 1, 74, 0
2, 484200, Note_on_c, 1, 77, 65
2, 484320, Note_off_c, 1, 77, 0
2, 484320, Note_on_c, 1, 81, 65
2, 484440, Note_off_c, 1, 81, 0
2, 484680, Note_on_c, 1, 67, 67
2, 484800, Note_off_c, 1, 67, 0
2, 484800, Note_on_c, 1, 72, 67
2, 484920, Note_off_c, 1, 72, 0
2, 484920, Note_on_c, 1, 76, 67
2, 485040, Note_off_c, 1, 76, 0
2, 485040, Note_on_c, 1, 79, 68
2, 485160, Note_off_c, 1, 79, 0
2, 485400, Note_on_c, 1, 65, 69
2, 485520, Note_off_c, 1, 65, 0
2, 485520, Note_on_c, 1, 71, 69
2, 485640, Note_off_c, 1, 71, 0
2, 485640, Note_on_c, 1, 74, 70
2, 485760, Note_off_c, 1, 74, 0
2, 485760, Note_on_c, 1, 77, 70
2, 485880, Note_off_c, 1, 77, 0
2, 486120, Note_on_c, 1, 64, 71
2, 486240, Note_off_c, 1, 64, 0
2, 486240, Note_on_c, 1, 67, 72
2, 486360, Note_off_c, 1, 67, 0
2, 486360, Note_on_c, 1, 72, 72
2, 486480, Note_off_c, 1, 72, 0
2, 486480, Note_on_c, 1, 76, 72
2, 486600, Note_off_c, 1, 76, 0
2, 486600, Note_on_c, 1, 72, 73
2, 486720, Note_off_c, 1, 72, 0
2, 486840, Note_on_c, 1, 74, 73
2, 486960, Note_off_c, 1, 74, 0
2, 486960, Note_on_c, 1, 79, 74
2, 487080, Note_off_c, 1, 79, 0
2, 487080, Note_on_c, 1, 82, 74
2, 487200, Note_off_c, 1, 82, 0
2, 487200, Note_on_c, 1, 86, 75
2, 487320, Note_off_c, 1, 86, 0
2, 487560, Note_on_c, 1, 72, 76
2, 487680, Note_off_c, 1, 72, 0
2, 487680, Note_on_c, 1, 77, 76
2, 487800, Note_off_c, 1, 77, 0
2, 487800, Note_on_c, 1, 81, 76
2, 487920, Note_off_c, 1, 81, 0
2, 487920, Note_on_c, 1, 84, 77
2, 488040, Note_off_c, 1, 84, 0
2, 488280, Note_on_c, 1, 70, 78
2, 488400, Note_off_c, 1, 70, 0
2, 488400, Note_on_c, 1, 76, 78
2, 488520, Note_off_c, 1, 76, 0
2, 488520, Note_on_c, 1, 79, 79
2, 488640, Note_off_c, 1, 79, 0
2, 488640, Note_on_c, 1, 82, 79
2, 488760, Note_off_c, 1, 82, 0
2, 489000, Note_on_c, 1, 69, 80
2, 489120, Note_off_c, 1, 69, 0
2, 489120, Note_on_c, 1, 72, 81
2, 489240, Note_off_c, 1, 72, 0
2, 489240, Note_on_c, 1, 77, 81
2, 489360, Note_off_c, 1, 77, 0
2, 489360, Note_on_c, 1, 81, 81
2, 489480, Note_off_c, 1, 81, 0
2, 489720, Note_on_c, 1, 74, 83
2, 489840, Note_off_c, 1, 74, 0
2, 489840, Note_on_c, 1, 79, 83
2, 489960, Note_off_c, 1, 79, 0
2, 489960, Note_on_c, 1, 78, 83
2, 490080, Note_off_c, 1, 78, 0
2, 490080, Note_on_c, 1, 81, 84
2, 490200, Note_off_c, 1, 81, 0
2, 490200, Note_on_c, 1, 79, 84
2, 490320, Note_off_c, 1, 79, 0
2, 490320, Note_on_c, 1, 82, 84
2, 490440, Note_off_c, 1, 82, 0
2, 490440, Note_on_c, 1, 81, 85
2, 490560, Note_off_c, 1, 81, 0
2, 490560, Note_on_c, 1, 84, 85
2, 490680, Note_off_c, 1, 84, 0
2, 490680, Note_on_c, 1, 82, 86
2, 490800, Note_off_c, 1, 82, 0
2, 490800, Note_on_c, 1, 86, 86
2, 490920, Note_off_c, 1, 86, 0
2, 490920, Note_on_c, 1, 85, 86
2, 491040, Note_off_c, 1, 85, 0
2, 491040, Note_on_c, 1, 86, 87
2, 491280, Note_off_c, 1, 86, 0
2, 491520, Note_on_c, 1, 77, 75
2, 491760, Note_off_c, 1, 77, 0
2, 491760, Note_on_c, 1, 76, 70
2, 491950, Note_off_c, 1, 76, 0
2, 492960, Note_on_c, 1, 89, 66
2, 493200, Note_off_c, 1, 89, 0
2, 493200, Note_on_c, 1, 88, 62
2, 493390, Note_off_c, 1, 88, 0
2, 494400, Note_on_c, 1, 77, 60
2, 494640, Note_off_c, 1, 77, 0
2, 494640, Note_on_c, 1, 76, 57
2, 494830, Note_off_c, 1, 76, 0
2, 496080, Note_on_c, 1, 82, 59
2, 496415, Note_off_c, 1, 82, 0
2, 496440, Note_on_c, 1, 82, 61
2, 496550, Note_off_c, 1, 82, 0
2, 496560, Note_on_c, 1, 82, 63
2, 496775, Note_off_c, 1, 82, 0
2, 496800, Note_on_c, 1, 82, 63
2, 496860, Note_off_c, 1, 82, 0
2, 496860, Note_on_c, 1, 84, 65
2, 496920, Note_on_c, 1, 86, 68
2, 496925, Note_off_c, 1, 84, 0
2, 497160, Note_off_c, 1, 86, 0
2, 497160, Note_on_c, 1, 84, 64
2, 497265, Note_off_c, 1, 84, 0
2, 497280, Note_on_c, 1, 82, 62
2, 497490, Note_off_c, 1, 82, 0
2, 497520, Note_on_c, 1, 82, 59
2, 497855, Note_off_c, 1, 82, 0
2, 497880, Note_on_c, 1, 82, 62
2, 497990, Note_off_c, 1, 82, 0
2, 498000, Note_on_c, 1, 82, 64
2, 498215, Note_off_c, 1, 82, 0
2, 498240, Note_on_c, 1, 82, 67
2, 498300, Note_off_c, 1, 82, 0
2, 498300, Note_on_c, 1, 84, 68
2, 498360, Note_on_c, 1, 86, 69
2, 498365, Note_off_c, 1, 84, 0
2, 498600, Note_off_c, 1, 86, 0
2, 498600, Note_on_c, 1, 84, 64
2, 498705, Note_off_c, 1, 84, 0
2, 498720, Note_on_c, 1, 82, 61
2, 498930, Note_off_c, 1, 82, 0
2, 498960, Note_on_c, 1, 81, 58
2, 499200, Note_off_c, 1, 81, 0
2, 499440, Note_on_c, 1, 81, 63
2, 499680, Note_off_c, 1, 81, 0
2, 499680, Note_on_c, 1, 84, 68
2, 500160, Note_off_c, 1, 84, 0
2, 500160, Note_on_c, 1, 82, 59
2, 500400, Note_off_c, 1, 82, 0
2, 500400, Note_on_c, 1, 81, 58
2, 500640, Note_off_c, 1, 81, 0
2, 500880, Note_on_c, 1, 81, 63
2, 501120, Note_off_c, 1, 81, 0
2, 501120, Note_on_c, 1, 84, 68
2, 501600, Note_off_c, 1, 84, 0
2, 501600, Note_on_c, 1, 82, 60
2, 501840, Note_off_c, 1, 82, 0
2, 501840, Note_on_c, 1, 81, 57
2, 502080, Note_off_c, 1, 81, 0
2, 502320, Note_on_c, 1, 81, 61
2, 502560, Note_off_c, 1, 81, 0
2, 502560, Note_on_c, 1, 84, 69
2, 502800, Note_off_c, 1, 84, 0
2, 502800, Note_on_c, 1, 82, 64
2, 502925, Note_off_c, 1, 82, 0
2, 503040, Note_on_c, 1, 81, 59
2, 503160, Note_off_c, 1, 81, 0
2, 503280, Note_on_c, 1, 81, 67
2, 503520, Note_off_c, 1, 81, 0
2, 503520, Note_on_c, 1, 79, 61
2, 503640, Note_off_c, 1, 79, 0
2, 503760, Note_on_c, 1, 77, 55
2, 503885, Note_off_c, 1, 77, 0
2, 504000, Note_on_c, 1, 77, 60
2, 504060, Note_off_c, 1, 77, 0
2, 504060, Note_on_c, 1, 79, 59
2, 504120, Note_off_c, 1, 79, 0
2, 504120, Note_on_c, 1, 77, 57
2, 504180, Note_off_c, 1, 77, 0
2, 504180, Note_on_c, 1, 79, 56
2, 504240, Note_off_c, 1, 79, 0
2, 504240, Note_on_c, 1, 77, 54
2, 504360, Note_off_c, 1, 77, 0
2, 504360, Note_on_c, 1, 79, 51
2, 504480, Note_off_c, 1, 79, 0
2, 504480, Note_on_c, 1, 76, 48
2, 504720, Note_off_c, 1, 76, 0
2, 504720, Note_on_c, 1, 70, 56
2, 505055, Note_off_c, 1, 70, 0
2, 505080, Note_on_c, 1, 70, 58
2, 505190, Note_off_c, 1, 70, 0
2, 505200, Note_on_c, 1, 70, 60
2, 505415, Note_off_c, 1, 70, 0
2, 505440, Note_on_c, 1, 70, 63
2, 505500, Note_off_c, 1, 70, 0
2, 505500, Note_on_c, 1, 72, 64
2, 505560, Note_on_c, 1, 74, 67
2, 505565, Note_off_c, 1, 72, 0
2, 505800, Note_off_c, 1, 74, 0
2, 505800, Note_on_c, 1, 72, 60
2, 505905, Note_off_c, 1, 72, 0
2, 505920, Note_on_c, 1, 70, 56
2, 506130, Note_off_c, 1, 70, 0
2, 506160, Note_on_c, 1, 70, 55
2, 506495, Note_off_c, 1, 70, 0
2, 506520, Note_on_c, 1, 70, 56
2, 506630, Note_off_c, 1, 70, 0
2, 506640, Note_on_c, 1, 70, 57
2, 506855, Note_off_c, 1, 70, 0
2, 506880, Note_on_c, 1, 70, 60
2, 506940, Note_off_c, 1, 70, 0
2, 506940, Note_on_c, 1, 72, 61
2, 507000, Note_on_c, 1, 74, 65
2, 507005, Note_off_c, 1, 72, 0
2, 507240, Note_off_c, 1, 74, 0
2, 507240, Note_on_c, 1, 72, 60
2, 507345, Note_off_c, 1, 72, 0
2, 507360, Note_on_c, 1, 70, 58
2, 507570, Note_off_c, 1, 70, 0
2, 507600, Note_on_c, 1, 69, 55
2, 507780, Note_off_c, 1, 69, 0
2, 508080, Note_on_c, 1, 69, 58
2, 508200, Note_off_c, 1, 69, 0
2, 508320, Note_on_c, 1, 72, 65
2, 508440, Note_off_c, 1, 72, 0
2, 508560, Note_on_c, 1, 71, 61
2, 508680, Note_off_c, 1, 71, 0
2, 508800, Note_on_c, 1, 70, 57
2, 508920, Note_off_c, 1, 70, 0
2, 509040, Note_on_c, 1, 69, 54
2, 509220, Note_off_c, 1, 69, 0
2, 509520, Note_on_c, 1, 69, 59
2, 509640, Note_off_c, 1, 69, 0
2, 509760, Note_on_c, 1, 72, 67
2, 509880, Note_off_c, 1, 72, 0
2, 510000, Note_on_c, 1, 71, 62
2, 510120, Note_off_c, 1, 71, 0
2, 510240, Note_on_c, 1, 70, 58
2, 510360, Note_off_c, 1, 70, 0
2, 510480, Note_on_c, 1, 69, 54
2, 510600, Note_off_c, 1, 69, 0
2, 510600, Note_on_c, 1, 72, 55
2, 510720, Note_off_c, 1, 72, 0
2, 510720, Note_on_c, 1, 77, 56
2, 510840, Note_off_c, 1, 77, 0
2, 510840, Note_on_c, 1, 76, 58
2, 510960, Note_off_c, 1, 76, 0
2, 510960, Note_on_c, 1, 74, 59
2, 511080, Note_off_c, 1, 74, 0
2, 511080, Note_on_c, 1, 72, 60
2, 511200, Note_off_c, 1, 72, 0
2, 511200, Note_on_c, 1, 70, 69
2, 511320, Note_off_c, 1, 70, 0
2, 511320, Note_on_c, 1, 72, 67
2, 511440, Note_off_c, 1, 72, 0
2, 511440, Note_on_c, 1, 74, 65
2, 511560, Note_off_c, 1, 74, 0
2, 511560, Note_on_c, 1, 70, 64
2, 511680, Note_off_c, 1, 70, 0
2, 511680, Note_on_c, 1, 68, 62
2, 511800, Note_off_c, 1, 68, 0
2, 511800, Note_on_c, 1, 69, 60
2, 511920, Note_off_c, 1, 69, 0
2, 511920, Note_on_c, 1, 67, 69
2, 512040, Note_off_c, 1, 67, 0
2, 512040, Note_on_c, 1, 69, 66
2, 512160, Note_off_c, 1, 69, 0
2, 512160, Note_on_c, 1, 70, 64
2, 512280, Note_off_c, 1, 70, 0
2, 512280, Note_on_c, 1, 67, 62
2, 512400, Note_off_c, 1, 67, 0
2, 512400, Note_on_c, 1, 64, 59
2, 512520, Note_off_c, 1, 64, 0
2, 512520, Note_on_c, 1, 65, 57
2, 512640, Note_off_c, 1, 65, 0
2, 512640, Note_on_c, 1, 67, 61
2, 512760, Note_off_c, 1, 67, 0
2, 512760, Note_on_c, 1, 70, 61
2, 512880, Note_off_c, 1, 70, 0
2, 512880, Note_on_c, 1, 69, 60
2, 513000, Note_off_c, 1, 69, 0
2, 513000, Note_on_c, 1, 65, 60
2, 513120, Note_off_c, 1, 65, 0
2, 513120, Note_on_c, 1, 64, 59
2, 513240, Note_off_c, 1, 64, 0
2, 513240, Note_on_c, 1, 67, 59
2, 513360, Note_off_c, 1, 67, 0
2, 513360, Note_on_c, 1, 65, 56
2, 513480, Note_off_c, 1, 65, 0
2, 513480, Note_on_c, 1, 67, 57
2, 513600, Note_off_c, 1, 67, 0
2, 513600, Note_on_c, 1, 69, 59
2, 513720, Note_off_c, 1, 69, 0
2, 513720, Note_on_c, 1, 65, 60
2, 513840, Note_off_c, 1, 65, 0
2, 513840, Note_on_c, 1, 62, 61
2, 513960, Note_off_c, 1, 62, 0
2, 513960, Note_on_c, 1, 60, 62
2, 514080, Note_off_c, 1, 60, 0
2, 514080, Note_on_c, 1, 58, 69
2, 514200, Note_off_c, 1, 58, 0
2, 514200, Note_on_c, 1, 60, 67
2, 514320, Note_off_c, 1, 60, 0
2, 514320, Note_on_c, 1, 62, 65
2, 514440, Note_off_c, 1, 62, 0
2, 514440, Note_on_c, 1, 58, 63
2, 514560, Note_off_c, 1, 58, 0
2, 514560, Note_on_c, 1, 56, 61
2, 514680, Note_off_c, 1, 56, 0
2, 514680, Note_on_c, 1, 57, 59
2, 514800, Note_off_c, 1, 57, 0
2, 514800, Note_on_c, 1, 55, 65
2, 514920, Note_off_c, 1, 55, 0
2, 514920, Note_on_c, 1, 57, 64
2, 515040, Note_off_c, 1, 57, 0
2, 515040, Note_on_c, 1, 58, 62
2, 515160, Note_off_c, 1, 58, 0
2, 515160, Note_on_c, 1, 55, 61
2, 515280, Note_off_c, 1, 55, 0
2, 515280, Note_on_c, 1, 52, 60
2, 515400, Note_off_c, 1, 52, 0
2, 515400, Note_on_c, 1, 53, 58
2, 515520, Note_off_c, 1, 53, 0
2, 515520, Note_on_c, 1, 55, 60
2, 515640, Note_off_c, 1, 55, 0
2, 515640, Note_on_c, 1, 58, 58
2, 515760, Note_off_c, 1, 58, 0
2, 515760, Note_on_c, 1, 57, 56
2, 515880, Note_off_c, 1, 57, 0
2, 515880, Note_on_c, 1, 53, 54
2, 516000, Note_off_c, 1, 53, 0
2, 516000, Note_on_c, 1, 52, 52
2, 516120, Note_off_c, 1, 52, 0
2, 516120, Note_on_c, 1, 55, 50
2, 516240, Note_off_c, 1, 55, 0
2, 516240, Note_on_c, 1, 53, 48
2, 516480, Note_off_c, 1, 53, 0
2, 516480, Note_on_c, 1, 72, 50
2, 516600, Note_off_c, 1, 72, 0
2, 516720, Note_on_c, 1, 69, 51
2, 516840, Note_off_c, 1, 69, 0
2, 516960, Note_on_c, 1, 65, 52
2, 517080, Note_off_c, 1, 65, 0
2, 517920, Note_on_c, 1, 77, 56
2, 518040, Note_off_c, 1, 77, 0
2, 518160, Note_on_c, 1, 74, 58
2, 518280, Note_off_c, 1, 74, 0
2, 518400, Note_on_c, 1, 70, 59
2, 518520, Note_off_c, 1, 70, 0
2, 519360, Note_on_c, 1, 82, 63
2, 519480, Note_off_c, 1, 82, 0
2, 519600, Note_on_c, 1, 79, 64
2, 519720, Note_off_c, 1, 79, 0
2, 519840, Note_on_c, 1, 76, 65
2, 519960, Note_off_c, 1, 76, 0
2, 520680, Note_on_c, 1, 77, 69
2, 520800, Note_off_c, 1, 77, 0
2, 520800, Note_on_c, 1, 76, 69
2, 520920, Note_off_c, 1, 76, 0
2, 520920, Note_on_c, 1, 77, 70
2, 521040, Note_off_c, 1, 77, 0
2, 521040, Note_on_c, 1, 81, 70
2, 521160, Note_off_c, 1, 81, 0
2, 521160, Note_on_c, 1, 84, 71
2, 521280, Note_off_c, 1, 84, 0
2, 521400, Note_on_c, 1, 82, 72
2, 521520, Note_off_c, 1, 82, 0
2, 521520, Note_on_c, 1, 81, 72
2, 521640, Note_off_c, 1, 81, 0
2, 521640, Note_on_c, 1, 82, 73
2, 521760, Note_off_c, 1, 82, 0
2, 521760, Note_on_c, 1, 79, 74
2, 521880, Note_off_c, 1, 79, 0
2, 521880, Note_on_c, 1, 76, 74
2, 522000, Note_off_c, 1, 76, 0
2, 522120, Note_on_c, 1, 77, 75
2, 522240, Note_off_c, 1, 77, 0
2, 522240, Note_on_c, 1, 76, 76
2, 522360, Note_off_c, 1, 76, 0
2, 522360, Note_on_c, 1, 77, 76
2, 522480, Note_off_c, 1, 77, 0
2, 522480, Note_on_c, 1, 72, 77
2, 522600, Note_off_c, 1, 72, 0
2, 522600, Note_on_c, 1, 69, 77
2, 522720, Note_off_c, 1, 69, 0
2, 522840, Note_on_c, 1, 70, 78
2, 522960, Note_off_c, 1, 70, 0
2, 522960, Note_on_c, 1, 69, 79
2, 523080, Note_off_c, 1, 69, 0
2, 523080, Note_on_c, 1, 70, 79
2, 523200, Note_off_c, 1, 70, 0
2, 523200, Note_on_c, 1, 67, 80
2, 523320, Note_off_c, 1, 67, 0
2, 523320, Note_on_c, 1, 64, 81
2, 523440, Note_off_c, 1, 64, 0
2, 523440, Note_on_c, 1, 65, 81
2, 523920, Note_off_c, 1, 65, 0
2, 524160, Note_on_c, 1, 72, 84
2, 524640, Note_off_c, 1, 72, 0
2, 524880, Note_on_c, 1, 77, 87
2, 525070, Note_off_c, 1, 77, 0
2, 525120, Note_on_c, 1, 77, 89
2, 525310, Note_off_c, 1, 77, 0
2, 525360, Note_on_c, 1, 77, 90
2, 525550, Note_off_c, 1, 77, 0
2, 525600, Note_on_c, 1, 77, 91
2, 525790, Note_off_c, 1, 77, 0
2, 526320, End_track
3, 0, Start_track
3, 0, Instrument_name_t, "Roland Serial MIDI Out Port A"
3, 0, Title_t, "Unnamed Track"
3, 0, Control_c, 2, 91, 100
3, 0, Control_c, 2, 93, 28
3, 0, Pitch_bend_c, 2, 8192
3, 0, Pitch_bend_c, 2, 8192
3, 0, Control_c, 2, 1, 0
3, 0, Control_c, 2, 93, 10
3, 0, Control_c, 2, 0, 0
3, 0, Control_c, 2, 32, 0
3, 0, Program_c, 2, 0
3, 0, Control_c, 2, 10, 73
3, 0, Control_c, 2, 7, 122
3, 0, Control_c, 2, 64, 0
3, 1440, Note_on_c, 2, 60, 63
3, 1480, Note_on_c, 2, 65, 64
3, 1520, Note_on_c, 2, 69, 64
3, 1740, Note_off_c, 2, 60, 0
3, 1740, Note_off_c, 2, 65, 0
3, 1740, Note_off_c, 2, 69, 0
3, 1920, Note_on_c, 2, 69, 66
3, 2220, Note_off_c, 2, 69, 0
3, 2400, Note_on_c, 2, 69, 68
3, 2700, Note_off_c, 2, 69, 0
3, 2880, Note_on_c, 2, 69, 71
3, 3610, Note_off_c, 2, 69, 0
3, 13200, Note_on_c, 2, 65, 72
3, 13392, Note_off_c, 2, 65, 0
3, 13680, Note_on_c, 2, 58, 70
3, 13872, Note_off_c, 2, 58, 0
3, 14160, Note_on_c, 2, 55, 68
3, 14317, Note_off_c, 2, 55, 0
3, 17520, Note_on_c, 2, 65, 63
3, 17712, Note_off_c, 2, 65, 0
3, 18000, Note_on_c, 2, 58, 60
3, 18192, Note_off_c, 2, 58, 0
3, 18480, Note_on_c, 2, 55, 56
3, 18672, Note_off_c, 2, 55, 0
3, 69120, Control_c, 2, 64, 127
3, 69120, Note_on_c, 2, 64, 58
3, 69180, Note_on_c, 2, 67, 58
3, 69515, Note_off_c, 2, 64, 0
3, 69525, Note_off_c, 2, 67, 0
3, 69840, Control_c, 2, 64, 0
3, 81120, Note_on_c, 2, 64, 84
3, 81120, Note_on_c, 2, 67, 84
3, 81505, Note_off_c, 2, 64, 0
3, 81505, Note_off_c, 2, 67, 0
3, 82080, Note_on_c, 2, 76, 63
3, 82840, Note_off_c, 2, 76, 0
3, 84000, Note_on_c, 2, 76, 58
3, 84360, Note_off_c, 2, 76, 0
3, 84360, Note_on_c, 2, 73, 58
3, 84455, Note_off_c, 2, 73, 0
3, 84480, Note_on_c, 2, 76, 57
3, 84840, Note_off_c, 2, 76, 0
3, 84840, Note_on_c, 2, 73, 56
3, 84935, Note_off_c, 2, 73, 0
3, 84960, Note_on_c, 2, 74, 56
3, 85890, Note_off_c, 2, 74, 0
3, 86880, Note_on_c, 2, 65, 52
3, 87240, Note_off_c, 2, 65, 0
3, 87240, Note_on_c, 2, 62, 51
3, 87335, Note_off_c, 2, 62, 0
3, 87360, Note_on_c, 2, 65, 50
3, 87720, Note_off_c, 2, 65, 0
3, 87720, Note_on_c, 2, 62, 50
3, 87815, Note_off_c, 2, 62, 0
3, 87840, Note_on_c, 2, 64, 49
3, 87880, Note_on_c, 2, 67, 49
3, 88325, Note_off_c, 2, 67, 0
3, 88340, Note_off_c, 2, 64, 0
3, 91200, Note_on_c, 2, 72, 41
3, 91560, Note_off_c, 2, 72, 0
3, 91560, Note_on_c, 2, 74, 41
3, 91655, Note_off_c, 2, 74, 0
3, 91680, Note_on_c, 2, 71, 40
3, 92040, Note_off_c, 2, 71, 0
3, 92040, Note_on_c, 2, 72, 39
3, 92135, Note_off_c, 2, 72, 0
3, 92160, Note_on_c, 2, 70, 39
3, 92640, Note_off_c, 2, 70, 0
3, 92640, Note_on_c, 2, 69, 38
3, 93015, Note_off_c, 2, 69, 0
3, 94080, Note_on_c, 2, 72, 35
3, 94440, Note_off_c, 2, 72, 0
3, 94440, Note_on_c, 2, 74, 34
3, 94535, Note_off_c, 2, 74, 0
3, 94560, Note_on_c, 2, 71, 33
3, 94920, Note_off_c, 2, 71, 0
3, 94920, Note_on_c, 2, 72, 31
3, 95015, Note_off_c, 2, 72, 0
3, 95040, Note_on_c, 2, 70, 31
3, 95520, Note_off_c, 2, 70, 0
3, 95520, Note_on_c, 2, 69, 28
3, 95945, Note_off_c, 2, 69, 0
3, 99360, Note_on_c, 2, 70, 73
3, 99400, Note_on_c, 2, 74, 73
3, 99440, Note_on_c, 2, 79, 73
3, 99810, Note_off_c, 2, 74, 0
3, 99825, Note_off_c, 2, 79, 0
3, 99830, Note_off_c, 2, 70, 0
3, 102240, Note_on_c, 2, 64, 78
3, 102280, Note_on_c, 2, 67, 78
3, 102320, Note_on_c, 2, 72, 78
3, 102690, Note_off_c, 2, 72, 0
3, 102695, Note_off_c, 2, 67, 0
3, 102705, Note_off_c, 2, 64, 0
3, 105120, Note_on_c, 2, 69, 82
3, 105160, Note_on_c, 2, 72, 82
3, 105200, Note_on_c, 2, 77, 82
3, 105575, Note_off_c, 2, 72, 0
3, 105575, Note_off_c, 2, 77, 0
3, 105585, Note_off_c, 2, 69, 0
3, 108000, Note_on_c, 2, 74, 87
3, 108040, Note_on_c, 2, 77, 87
3, 108080, Note_on_c, 2, 80, 87
3, 108425, Note_off_c, 2, 77, 0
3, 108435, Note_off_c, 2, 80, 0
3, 108440, Note_off_c, 2, 74, 0
3, 109440, Note_on_c, 2, 74, 90
3, 109480, Note_on_c, 2, 77, 90
3, 109520, Note_on_c, 2, 81, 91
3, 109860, Note_off_c, 2, 77, 0
3, 109865, Note_off_c, 2, 74, 0
3, 109865, Note_off_c, 2, 81, 0
3, 110880, Note_on_c, 2, 74, 92
3, 110920, Note_on_c, 2, 77, 93
3, 110960, Note_on_c, 2, 83, 93
3, 111305, Note_off_c, 2, 74, 0
3, 111305, Note_off_c, 2, 77, 0
3, 111305, Note_off_c, 2, 83, 0
3, 119520, Note_on_c, 2, 60, 64
3, 119560, Note_on_c, 2, 65, 64
3, 119600, Note_on_c, 2, 69, 64
3, 119885, Note_off_c, 2, 69, 0
3, 119890, Note_off_c, 2, 60, 0
3, 119900, Note_off_c, 2, 65, 0
3, 120000, Note_on_c, 2, 69, 67
3, 120385, Note_off_c, 2, 69, 0
3, 120480, Note_on_c, 2, 69, 69
3, 120865, Note_off_c, 2, 69, 0
3, 120960, Note_on_c, 2, 69, 73
3, 121687, Note_off_c, 2, 69, 0
3, 131280, Note_on_c, 2, 65, 74
3, 131472, Note_off_c, 2, 65, 0
3, 131760, Note_on_c, 2, 58, 72
3, 131952, Note_off_c, 2, 58, 0
3, 132240, Note_on_c, 2, 55, 70
3, 132395, Note_off_c, 2, 55, 0
3, 135600, Note_on_c, 2, 65, 64
3, 135792, Note_off_c, 2, 65, 0
3, 136080, Note_on_c, 2, 58, 62
3, 136272, Note_off_c, 2, 58, 0
3, 169920, Note_on_c, 2, 62, 62
3, 170154, Note_off_c, 2, 62, 0
3, 170400, Note_on_c, 2, 65, 63
3, 170634, Note_off_c, 2, 65, 0
3, 170880, Note_on_c, 2, 70, 64
3, 171114, Note_off_c, 2, 70, 0
3, 172800, Note_on_c, 2, 60, 70
3, 173034, Note_off_c, 2, 60, 0
3, 173280, Note_on_c, 2, 64, 71
3, 173514, Note_off_c, 2, 64, 0
3, 173760, Note_on_c, 2, 69, 72
3, 173994, Note_off_c, 2, 69, 0
3, 195840, Control_c, 2, 64, 127
3, 195840, Note_on_c, 2, 69, 64
3, 195900, Note_on_c, 2, 72, 62
3, 196260, Note_off_c, 2, 69, 0
3, 196265, Note_off_c, 2, 72, 0
3, 196560, Control_c, 2, 64, 0
3, 207840, Note_on_c, 2, 60, 91
3, 207840, Note_on_c, 2, 57, 91
3, 208225, Note_off_c, 2, 60, 0
3, 208225, Note_off_c, 2, 57, 0
3, 213120, Note_on_c, 2, 67, 54
3, 213480, Note_off_c, 2, 67, 0
3, 213480, Note_on_c, 2, 68, 52
3, 213600, Note_off_c, 2, 68, 0
3, 213600, Note_on_c, 2, 67, 52
3, 213840, Note_off_c, 2, 67, 0
3, 213840, Note_on_c, 2, 67, 50
3, 214080, Note_off_c, 2, 67, 0
3, 214560, Note_on_c, 2, 67, 48
3, 214560, Note_on_c, 2, 64, 48
3, 215510, Note_off_c, 2, 67, 0
3, 215510, Note_off_c, 2, 64, 0
3, 215520, Note_on_c, 2, 65, 43
3, 215760, Note_off_c, 2, 65, 0
3, 215760, Note_on_c, 2, 67, 44
3, 216000, Note_off_c, 2, 67, 0
3, 216000, Note_on_c, 2, 67, 57
3, 216355, Note_off_c, 2, 67, 0
3, 216360, Note_on_c, 2, 65, 54
3, 216480, Note_off_c, 2, 65, 0
3, 216480, Note_on_c, 2, 64, 54
3, 216720, Note_off_c, 2, 64, 0
3, 216720, Note_on_c, 2, 65, 52
3, 217785, Note_off_c, 2, 65, 0
3, 217800, Note_on_c, 2, 67, 45
3, 217920, Note_off_c, 2, 67, 0
3, 217920, Note_on_c, 2, 65, 45
3, 218160, Note_off_c, 2, 65, 0
3, 218160, Note_on_c, 2, 64, 43
3, 218400, Note_off_c, 2, 64, 0
3, 218400, Note_on_c, 2, 65, 42
3, 218640, Note_off_c, 2, 65, 0
3, 218640, Note_on_c, 2, 67, 44
3, 218880, Note_off_c, 2, 67, 0
3, 218880, Note_on_c, 2, 67, 51
3, 219235, Note_off_c, 2, 67, 0
3, 219240, Note_on_c, 2, 65, 48
3, 219360, Note_off_c, 2, 65, 0
3, 219360, Note_on_c, 2, 64, 48
3, 219600, Note_off_c, 2, 64, 0
3, 219600, Note_on_c, 2, 65, 46
3, 220670, Note_off_c, 2, 65, 0
3, 220680, Note_on_c, 2, 64, 41
3, 220800, Note_off_c, 2, 64, 0
3, 220800, Note_on_c, 2, 65, 40
3, 221040, Note_off_c, 2, 65, 0
3, 221040, Note_on_c, 2, 67, 39
3, 221280, Note_off_c, 2, 67, 0
3, 221280, Note_on_c, 2, 65, 40
3, 221520, Note_off_c, 2, 65, 0
3, 221520, Note_on_c, 2, 64, 43
3, 221745, Note_off_c, 2, 64, 0
3, 221760, Note_on_c, 2, 64, 40
3, 222480, Note_off_c, 2, 64, 0
3, 240960, Note_on_c, 2, 67, 36
3, 240960, Note_on_c, 2, 70, 36
3, 241195, Note_off_c, 2, 67, 0
3, 241195, Note_off_c, 2, 70, 0
3, 241200, Note_on_c, 2, 65, 33
3, 241200, Note_on_c, 2, 68, 33
3, 241435, Note_off_c, 2, 65, 0
3, 241435, Note_off_c, 2, 68, 0
3, 241680, Note_on_c, 2, 70, 43
3, 241680, Note_on_c, 2, 65, 43
3, 241915, Note_off_c, 2, 70, 0
3, 241915, Note_off_c, 2, 65, 0
3, 241920, Note_on_c, 2, 63, 45
3, 241920, Note_on_c, 2, 68, 45
3, 242155, Note_off_c, 2, 68, 0
3, 242280, Note_on_c, 2, 70, 41
3, 242390, Note_off_c, 2, 63, 0
3, 242400, Note_off_c, 2, 70, 0
3, 242400, Note_on_c, 2, 61, 40
3, 242400, Note_on_c, 2, 67, 40
3, 242635, Note_off_c, 2, 61, 0
3, 242635, Note_off_c, 2, 67, 0
3, 242640, Note_on_c, 2, 60, 38
3, 242640, Note_on_c, 2, 63, 38
3, 242875, Note_off_c, 2, 60, 0
3, 242875, Note_off_c, 2, 63, 0
3, 243120, Note_on_c, 2, 58, 33
3, 243120, Note_on_c, 2, 55, 33
3, 243355, Note_off_c, 2, 58, 0
3, 243355, Note_off_c, 2, 55, 0
3, 243360, Note_on_c, 2, 56, 31
3, 243360, Note_on_c, 2, 53, 31
3, 243595, Note_off_c, 2, 56, 0
3, 243595, Note_off_c, 2, 53, 0
3, 243840, Note_on_c, 2, 58, 37
3, 243840, Note_on_c, 2, 53, 37
3, 244075, Note_off_c, 2, 58, 0
3, 244075, Note_off_c, 2, 53, 0
3, 244080, Note_on_c, 2, 56, 40
3, 244315, Note_off_c, 2, 56, 0
3, 244440, Note_on_c, 2, 58, 35
3, 244560, Note_off_c, 2, 58, 0
3, 244560, Note_on_c, 2, 55, 34
3, 244795, Note_off_c, 2, 55, 0
3, 244800, Note_on_c, 2, 55, 32
3, 245497, Note_off_c, 2, 55, 0
3, 247680, Note_on_c, 2, 67, 54
3, 248035, Note_off_c, 2, 67, 0
3, 248040, Note_on_c, 2, 68, 53
3, 248160, Note_off_c, 2, 68, 0
3, 248160, Note_on_c, 2, 67, 52
3, 248390, Note_off_c, 2, 67, 0
3, 248400, Note_on_c, 2, 67, 49
3, 248640, Note_off_c, 2, 67, 0
3, 249120, Note_on_c, 2, 64, 48
3, 249120, Note_on_c, 2, 67, 48
3, 250070, Note_off_c, 2, 64, 0
3, 250070, Note_off_c, 2, 67, 0
3, 250080, Note_on_c, 2, 65, 43
3, 250320, Note_off_c, 2, 65, 0
3, 250320, Note_on_c, 2, 67, 46
3, 250545, Note_off_c, 2, 67, 0
3, 250560, Note_on_c, 2, 67, 57
3, 250915, Note_off_c, 2, 67, 0
3, 250920, Note_on_c, 2, 65, 53
3, 251040, Note_off_c, 2, 65, 0
3, 251040, Note_on_c, 2, 64, 52
3, 251280, Note_off_c, 2, 64, 0
3, 251280, Note_on_c, 2, 65, 49
3, 252345, Note_off_c, 2, 65, 0
3, 252360, Note_on_c, 2, 67, 43
3, 252480, Note_off_c, 2, 67, 0
3, 252480, Note_on_c, 2, 65, 42
3, 252720, Note_off_c, 2, 65, 0
3, 252720, Note_on_c, 2, 64, 40
3, 252960, Note_off_c, 2, 64, 0
3, 252960, Note_on_c, 2, 65, 38
3, 253200, Note_off_c, 2, 65, 0
3, 253200, Note_on_c, 2, 67, 41
3, 253440, Note_off_c, 2, 67, 0
3, 253440, Note_on_c, 2, 67, 49
3, 253795, Note_off_c, 2, 67, 0
3, 253800, Note_on_c, 2, 65, 47
3, 253920, Note_off_c, 2, 65, 0
3, 253920, Note_on_c, 2, 64, 46
3, 254160, Note_off_c, 2, 64, 0
3, 254160, Note_on_c, 2, 65, 45
3, 255230, Note_off_c, 2, 65, 0
3, 255240, Note_on_c, 2, 64, 39
3, 255360, Note_off_c, 2, 64, 0
3, 255360, Note_on_c, 2, 65, 38
3, 255600, Note_off_c, 2, 65, 0
3, 255600, Note_on_c, 2, 67, 37
3, 255825, Note_off_c, 2, 67, 0
3, 255840, Note_on_c, 2, 65, 36
3, 256080, Note_off_c, 2, 65, 0
3, 256080, Note_on_c, 2, 64, 42
3, 256305, Note_off_c, 2, 64, 0
3, 256320, Note_on_c, 2, 64, 41
3, 257040, Note_off_c, 2, 64, 0
3, 275520, Note_on_c, 2, 70, 29
3, 275520, Note_on_c, 2, 67, 29
3, 275755, Note_off_c, 2, 70, 0
3, 275755, Note_off_c, 2, 67, 0
3, 275760, Note_on_c, 2, 68, 27
3, 275760, Note_on_c, 2, 65, 27
3, 275995, Note_off_c, 2, 68, 0
3, 275995, Note_off_c, 2, 65, 0
3, 276240, Note_on_c, 2, 65, 43
3, 276240, Note_on_c, 2, 70, 43
3, 276475, Note_off_c, 2, 65, 0
3, 276475, Note_off_c, 2, 70, 0
3, 276480, Note_on_c, 2, 68, 45
3, 276480, Note_on_c, 2, 63, 45
3, 276840, Note_off_c, 2, 68, 0
3, 276840, Note_on_c, 2, 70, 42
3, 276950, Note_off_c, 2, 63, 0
3, 276960, Note_off_c, 2, 70, 0
3, 276960, Note_on_c, 2, 67, 41
3, 276960, Note_on_c, 2, 61, 41
3, 277195, Note_off_c, 2, 67, 0
3, 277195, Note_off_c, 2, 61, 0
3, 277200, Note_on_c, 2, 63, 39
3, 277200, Note_on_c, 2, 60, 39
3, 277435, Note_off_c, 2, 63, 0
3, 277435, Note_off_c, 2, 60, 0
3, 277680, Note_on_c, 2, 55, 35
3, 277680, Note_on_c, 2, 58, 35
3, 277915, Note_off_c, 2, 55, 0
3, 277915, Note_off_c, 2, 58, 0
3, 277920, Note_on_c, 2, 53, 33
3, 277920, Note_on_c, 2, 56, 33
3, 278155, Note_off_c, 2, 53, 0
3, 278155, Note_off_c, 2, 56, 0
3, 278400, Note_on_c, 2, 53, 39
3, 278400, Note_on_c, 2, 58, 39
3, 278635, Note_off_c, 2, 53, 0
3, 278635, Note_off_c, 2, 58, 0
3, 278640, Note_on_c, 2, 56, 41
3, 279000, Note_off_c, 2, 56, 0
3, 279000, Note_on_c, 2, 58, 37
3, 279120, Note_off_c, 2, 58, 0
3, 279120, Note_on_c, 2, 55, 36
3, 279345, Note_off_c, 2, 55, 0
3, 279360, Note_on_c, 2, 55, 33
3, 280080, Note_off_c, 2, 55, 0
3, 282240, Note_on_c, 2, 69, 60
3, 282240, Note_on_c, 2, 72, 60
3, 283200, Note_off_c, 2, 69, 0
3, 283200, Note_off_c, 2, 72, 0
3, 283680, Note_on_c, 2, 60, 46
3, 283680, Note_on_c, 2, 57, 46
3, 284640, Note_off_c, 2, 60, 0
3, 284640, Note_off_c, 2, 57, 0
3, 285120, Note_on_c, 2, 65, 71
3, 285120, Note_on_c, 2, 61, 71
3, 285275, Note_off_c, 2, 65, 0
3, 285275, Note_off_c, 2, 61, 0
3, 285360, Note_on_c, 2, 63, 75
3, 285360, Note_on_c, 2, 60, 75
3, 285515, Note_off_c, 2, 63, 0
3, 285515, Note_off_c, 2, 60, 0
3, 285600, Note_on_c, 2, 61, 79
3, 285600, Note_on_c, 2, 58, 79
3, 285755, Note_off_c, 2, 58, 0
3, 285760, Note_off_c, 2, 61, 0
3, 285840, Note_on_c, 2, 65, 74
3, 285840, Note_on_c, 2, 57, 74
3, 285880, Note_on_c, 2, 72, 73
3, 286080, Note_off_c, 2, 65, 0
3, 286080, Note_off_c, 2, 57, 0
3, 286080, Note_off_c, 2, 72, 0
3, 287400, Note_on_c, 2, 73, 41
3, 287520, Note_off_c, 2, 73, 0
3, 287520, Note_on_c, 2, 72, 42
3, 287640, Note_off_c, 2, 72, 0
3, 287640, Note_on_c, 2, 73, 43
3, 287760, Note_off_c, 2, 73, 0
3, 287760, Note_on_c, 2, 75, 44
3, 287880, Note_off_c, 2, 75, 0
3, 287880, Note_on_c, 2, 73, 44
3, 288000, Note_off_c, 2, 73, 0
3, 288000, Note_on_c, 2, 72, 45
3, 288815, Note_off_c, 2, 72, 0
3, 288840, Note_on_c, 2, 72, 51
3, 288960, Note_off_c, 2, 72, 0
3, 288960, Note_on_c, 2, 71, 52
3, 289080, Note_off_c, 2, 71, 0
3, 289080, Note_on_c, 2, 72, 53
3, 289200, Note_off_c, 2, 72, 0
3, 289200, Note_on_c, 2, 73, 53
3, 289320, Note_off_c, 2, 73, 0
3, 289320, Note_on_c, 2, 72, 54
3, 289440, Note_off_c, 2, 72, 0
3, 289440, Note_on_c, 2, 71, 55
3, 289685, Note_off_c, 2, 71, 0
3, 290880, Note_on_c, 2, 71, 65
3, 291120, Note_off_c, 2, 71, 0
3, 295200, Note_on_c, 2, 62, 45
3, 295200, Note_on_c, 2, 59, 45
3, 296145, Note_off_c, 2, 59, 0
3, 296160, Note_off_c, 2, 62, 0
3, 296160, Note_on_c, 2, 60, 43
3, 296160, Note_on_c, 2, 63, 43
3, 296400, Note_off_c, 2, 60, 0
3, 296400, Note_off_c, 2, 63, 0
3, 296400, Note_on_c, 2, 62, 42
3, 296400, Note_on_c, 2, 65, 42
3, 296625, Note_off_c, 2, 62, 0
3, 296625, Note_off_c, 2, 65, 0
3, 296640, Note_on_c, 2, 60, 41
3, 296640, Note_on_c, 2, 65, 41
3, 297360, Note_off_c, 2, 65, 0
3, 297360, Note_on_c, 2, 64, 41
3, 297590, Note_off_c, 2, 60, 0
3, 297600, Note_off_c, 2, 64, 0
3, 297600, Note_on_c, 2, 65, 42
3, 297840, Note_off_c, 2, 65, 0
3, 297840, Note_on_c, 2, 67, 46
3, 298080, Note_off_c, 2, 67, 0
3, 298080, Note_on_c, 2, 68, 53
3, 298560, Note_off_c, 2, 68, 0
3, 299520, Note_on_c, 2, 67, 46
3, 299880, Note_off_c, 2, 67, 0
3, 299880, Note_on_c, 2, 68, 45
3, 300000, Note_off_c, 2, 68, 0
3, 300000, Note_on_c, 2, 67, 44
3, 300240, Note_off_c, 2, 67, 0
3, 300240, Note_on_c, 2, 67, 42
3, 300480, Note_off_c, 2, 67, 0
3, 300960, Note_on_c, 2, 67, 40
3, 300960, Note_on_c, 2, 64, 40
3, 301920, Note_off_c, 2, 67, 0
3, 301920, Note_off_c, 2, 64, 0
3, 301920, Note_on_c, 2, 65, 35
3, 302160, Note_off_c, 2, 65, 0
3, 302160, Note_on_c, 2, 67, 36
3, 302400, Note_off_c, 2, 67, 0
3, 302400, Note_on_c, 2, 67, 45
3, 302760, Note_off_c, 2, 67, 0
3, 302760, Note_on_c, 2, 65, 43
3, 302880, Note_off_c, 2, 65, 0
3, 302880, Note_on_c, 2, 64, 42
3, 303120, Note_off_c, 2, 64, 0
3, 303120, Note_on_c, 2, 65, 41
3, 304185, Note_off_c, 2, 65, 0
3, 304200, Note_on_c, 2, 64, 34
3, 304320, Note_off_c, 2, 64, 0
3, 304320, Note_on_c, 2, 65, 33
3, 304560, Note_off_c, 2, 65, 0
3, 304560, Note_on_c, 2, 67, 32
3, 304800, Note_off_c, 2, 67, 0
3, 304800, Note_on_c, 2, 65, 34
3, 305040, Note_off_c, 2, 65, 0
3, 305040, Note_on_c, 2, 64, 38
3, 305265, Note_off_c, 2, 64, 0
3, 305280, Note_on_c, 2, 64, 37
3, 306005, Note_off_c, 2, 64, 0
3, 327360, Note_on_c, 2, 60, 23
3, 327360, Note_on_c, 2, 63, 23
3, 327595, Note_off_c, 2, 60, 0
3, 327595, Note_off_c, 2, 63, 0
3, 327600, Note_on_c, 2, 58, 21
3, 327600, Note_on_c, 2, 61, 21
3, 327835, Note_off_c, 2, 58, 0
3, 327835, Note_off_c, 2, 61, 0
3, 328080, Note_on_c, 2, 65, 55
3, 328315, Note_off_c, 2, 65, 0
3, 328320, Note_on_c, 2, 60, 53
3, 328320, Note_on_c, 2, 65, 53
3, 328680, Note_off_c, 2, 60, 0
3, 328680, Note_on_c, 2, 67, 49
3, 328685, Note_off_c, 2, 65, 0
3, 328790, Note_off_c, 2, 67, 0
3, 328800, Note_on_c, 2, 64, 48
3, 328800, Note_on_c, 2, 58, 48
3, 329035, Note_off_c, 2, 64, 0
3, 329035, Note_off_c, 2, 58, 0
3, 329040, Note_on_c, 2, 56, 46
3, 329275, Note_off_c, 2, 56, 0
3, 329520, Note_on_c, 2, 66, 42
3, 329755, Note_off_c, 2, 66, 0
3, 329760, Note_on_c, 2, 65, 40
3, 329995, Note_off_c, 2, 65, 0
3, 330240, Note_on_c, 2, 68, 51
3, 330475, Note_off_c, 2, 68, 0
3, 330480, Note_on_c, 2, 65, 46
3, 330840, Note_off_c, 2, 65, 0
3, 330840, Note_on_c, 2, 67, 41
3, 330950, Note_off_c, 2, 67, 0
3, 330960, Note_on_c, 2, 64, 39
3, 331160, Note_off_c, 2, 64, 0
3, 331200, Note_on_c, 2, 64, 36
3, 331920, Note_off_c, 2, 64, 0
3, 334560, Control_c, 2, 64, 0
3, 345120, Note_on_c, 2, 69, 50
3, 345360, Note_off_c, 2, 69, 0
3, 345360, Note_on_c, 2, 67, 48
3, 345480, Note_off_c, 2, 67, 0
3, 345600, Note_on_c, 2, 69, 46
3, 346010, Note_off_c, 2, 69, 0
3, 346320, Note_on_c, 2, 62, 45
3, 346560, Note_off_c, 2, 62, 0
3, 346560, Note_on_c, 2, 60, 46
3, 346800, Note_off_c, 2, 60, 0
3, 346800, Note_on_c, 2, 58, 47
3, 346920, Note_off_c, 2, 58, 0
3, 347040, Note_on_c, 2, 58, 48
3, 347280, Note_on_c, 2, 57, 48
3, 347290, Note_off_c, 2, 58, 0
3, 347400, Note_off_c, 2, 57, 0
3, 347520, Note_on_c, 2, 57, 49
3, 347640, Note_off_c, 2, 57, 0
3, 347760, Note_on_c, 2, 57, 50
3, 347880, Note_off_c, 2, 57, 0
3, 348000, Note_on_c, 2, 58, 51
3, 348120, Note_off_c, 2, 58, 0
3, 348240, Note_on_c, 2, 55, 51
3, 348360, Note_off_c, 2, 55, 0
3, 348480, Note_on_c, 2, 57, 52
3, 348720, Note_off_c, 2, 57, 0
3, 349200, Note_on_c, 2, 70, 54
3, 349440, Note_off_c, 2, 70, 0
3, 349440, Note_on_c, 2, 69, 55
3, 349680, Note_off_c, 2, 69, 0
3, 349680, Note_on_c, 2, 67, 56
3, 349800, Note_off_c, 2, 67, 0
3, 349920, Note_on_c, 2, 67, 57
3, 350160, Note_off_c, 2, 67, 0
3, 350160, Note_on_c, 2, 65, 57
3, 350280, Note_off_c, 2, 65, 0
3, 350400, Note_on_c, 2, 65, 58
3, 350520, Note_off_c, 2, 65, 0
3, 350640, Note_on_c, 2, 65, 59
3, 350760, Note_off_c, 2, 65, 0
3, 350880, Note_on_c, 2, 67, 60
3, 351000, Note_off_c, 2, 67, 0
3, 351120, Note_on_c, 2, 64, 60
3, 351240, Note_off_c, 2, 64, 0
3, 351360, Note_on_c, 2, 65, 61
3, 351515, Note_off_c, 2, 65, 0
3, 356880, Note_on_c, 2, 64, 68
3, 357120, Note_off_c, 2, 64, 0
3, 357120, Note_on_c, 2, 62, 62
3, 357305, Note_off_c, 2, 62, 0
3, 358320, Note_on_c, 2, 76, 66
3, 358560, Note_off_c, 2, 76, 0
3, 358560, Note_on_c, 2, 74, 60
3, 358745, Note_off_c, 2, 74, 0
3, 359760, Note_on_c, 2, 64, 60
3, 360000, Note_off_c, 2, 64, 0
3, 360000, Note_on_c, 2, 62, 55
3, 360180, Note_off_c, 2, 62, 0
3, 373080, Note_on_c, 2, 72, 52
3, 373200, Note_off_c, 2, 72, 0
3, 373200, Note_on_c, 2, 67, 54
3, 373320, Note_off_c, 2, 67, 0
3, 373320, Note_on_c, 2, 72, 55
3, 373440, Note_off_c, 2, 72, 0
3, 373560, Note_on_c, 2, 72, 58
3, 373680, Note_off_c, 2, 72, 0
3, 373800, Note_on_c, 2, 67, 58
3, 373920, Note_off_c, 2, 67, 0
3, 374040, Note_on_c, 2, 67, 55
3, 374160, Note_off_c, 2, 67, 0
3, 374280, Note_on_c, 2, 67, 51
3, 374400, Note_off_c, 2, 67, 0
3, 374520, Note_on_c, 2, 72, 50
3, 374640, Note_off_c, 2, 72, 0
3, 374640, Note_on_c, 2, 67, 51
3, 374760, Note_off_c, 2, 67, 0
3, 374760, Note_on_c, 2, 72, 53
3, 374880, Note_off_c, 2, 72, 0
3, 375000, Note_on_c, 2, 72, 55
3, 375120, Note_off_c, 2, 72, 0
3, 375240, Note_on_c, 2, 67, 55
3, 375360, Note_off_c, 2, 67, 0
3, 375480, Note_on_c, 2, 67, 52
3, 375600, Note_off_c, 2, 67, 0
3, 375720, Note_on_c, 2, 67, 49
3, 375840, Note_off_c, 2, 67, 0
3, 389040, Note_on_c, 2, 76, 87
3, 389195, Note_off_c, 2, 76, 0
3, 389280, Note_on_c, 2, 76, 90
3, 389435, Note_off_c, 2, 76, 0
3, 389520, Note_on_c, 2, 76, 92
3, 389760, Note_off_c, 2, 76, 0
3, 390000, Control_c, 2, 64, 0
3, 400560, Note_on_c, 2, 69, 50
3, 400800, Note_off_c, 2, 69, 0
3, 400800, Note_on_c, 2, 67, 48
3, 400920, Note_off_c, 2, 67, 0
3, 401040, Note_on_c, 2, 69, 46
3, 401450, Note_off_c, 2, 69, 0
3, 401760, Note_on_c, 2, 62, 45
3, 402000, Note_off_c, 2, 62, 0
3, 402000, Note_on_c, 2, 60, 46
3, 402240, Note_off_c, 2, 60, 0
3, 402240, Note_on_c, 2, 58, 47
3, 402360, Note_off_c, 2, 58, 0
3, 402480, Note_on_c, 2, 58, 48
3, 402720, Note_on_c, 2, 57, 48
3, 402730, Note_off_c, 2, 58, 0
3, 402840, Note_off_c, 2, 57, 0
3, 402960, Note_on_c, 2, 57, 49
3, 403080, Note_off_c, 2, 57, 0
3, 403200, Note_on_c, 2, 57, 50
3, 403320, Note_off_c, 2, 57, 0
3, 403440, Note_on_c, 2, 58, 51
3, 403560, Note_off_c, 2, 58, 0
3, 403680, Note_on_c, 2, 55, 51
3, 403800, Note_off_c, 2, 55, 0
3, 403920, Note_on_c, 2, 57, 52
3, 404160, Note_off_c, 2, 57, 0
3, 404640, Note_on_c, 2, 70, 54
3, 404880, Note_off_c, 2, 70, 0
3, 404880, Note_on_c, 2, 69, 55
3, 405120, Note_off_c, 2, 69, 0
3, 405120, Note_on_c, 2, 67, 56
3, 405240, Note_off_c, 2, 67, 0
3, 405360, Note_on_c, 2, 67, 57
3, 405600, Note_off_c, 2, 67, 0
3, 405600, Note_on_c, 2, 65, 57
3, 405720, Note_off_c, 2, 65, 0
3, 405840, Note_on_c, 2, 65, 58
3, 405960, Note_off_c, 2, 65, 0
3, 406080, Note_on_c, 2, 65, 59
3, 406200, Note_off_c, 2, 65, 0
3, 406320, Note_on_c, 2, 67, 60
3, 406440, Note_off_c, 2, 67, 0
3, 406560, Note_on_c, 2, 64, 60
3, 406680, Note_off_c, 2, 64, 0
3, 406800, Note_on_c, 2, 65, 61
3, 406955, Note_off_c, 2, 65, 0
3, 412320, Note_on_c, 2, 64, 68
3, 412560, Note_off_c, 2, 64, 0
3, 412560, Note_on_c, 2, 62, 62
3, 412745, Note_off_c, 2, 62, 0
3, 413760, Note_on_c, 2, 76, 66
3, 414000, Note_off_c, 2, 76, 0
3, 414000, Note_on_c, 2, 74, 60
3, 414185, Note_off_c, 2, 74, 0
3, 415200, Note_on_c, 2, 64, 60
3, 415440, Note_off_c, 2, 64, 0
3, 415440, Note_on_c, 2, 62, 55
3, 415620, Note_off_c, 2, 62, 0
3, 428520, Note_on_c, 2, 72, 52
3, 428640, Note_off_c, 2, 72, 0
3, 428640, Note_on_c, 2, 67, 54
3, 428760, Note_off_c, 2, 67, 0
3, 428760, Note_on_c, 2, 72, 55
3, 428880, Note_off_c, 2, 72, 0
3, 429000, Note_on_c, 2, 72, 58
3, 429120, Note_off_c, 2, 72, 0
3, 429240, Note_on_c, 2, 67, 58
3, 429360, Note_off_c, 2, 67, 0
3, 429480, Note_on_c, 2, 67, 55
3, 429600, Note_off_c, 2, 67, 0
3, 429720, Note_on_c, 2, 67, 51
3, 429840, Note_off_c, 2, 67, 0
3, 429960, Note_on_c, 2, 72, 50
3, 430080, Note_off_c, 2, 72, 0
3, 430080, Note_on_c, 2, 67, 51
3, 430200, Note_off_c, 2, 67, 0
3, 430200, Note_on_c, 2, 72, 53
3, 430320, Note_off_c, 2, 72, 0
3, 430440, Note_on_c, 2, 72, 55
3, 430560, Note_off_c, 2, 72, 0
3, 430680, Note_on_c, 2, 67, 55
3, 430800, Note_off_c, 2, 67, 0
3, 430920, Note_on_c, 2, 67, 52
3, 431040, Note_off_c, 2, 67, 0
3, 431160, Note_on_c, 2, 67, 49
3, 431280, Note_off_c, 2, 67, 0
3, 444480, Note_on_c, 2, 76, 87
3, 444635, Note_off_c, 2, 76, 0
3, 444720, Note_on_c, 2, 76, 90
3, 444875, Note_off_c, 2, 76, 0
3, 444960, Note_on_c, 2, 76, 92
3, 445200, Note_off_c, 2, 76, 0
3, 445440, Control_c, 2, 64, 0
3, 448560, Note_on_c, 2, 81, 60
3, 449280, Note_off_c, 2, 81, 0
3, 449280, Note_on_c, 2, 79, 64
3, 450465, Note_off_c, 2, 79, 0
3, 450480, Note_on_c, 2, 78, 70
3, 450720, Note_off_c, 2, 78, 0
3, 454320, Note_on_c, 2, 60, 72
3, 454560, Note_off_c, 2, 60, 0
3, 454560, Note_on_c, 2, 62, 72
3, 454800, Note_off_c, 2, 62, 0
3, 454800, Note_on_c, 2, 64, 72
3, 455040, Note_off_c, 2, 64, 0
3, 455040, Note_on_c, 2, 65, 73
3, 455280, Note_off_c, 2, 65, 0
3, 455280, Note_on_c, 2, 67, 73
3, 455520, Note_off_c, 2, 67, 0
3, 455520, Note_on_c, 2, 69, 73
3, 455760, Note_off_c, 2, 69, 0
3, 455760, Note_on_c, 2, 79, 74
3, 456360, Note_off_c, 2, 79, 0
3, 456480, Note_on_c, 2, 77, 75
3, 457080, Note_off_c, 2, 77, 0
3, 457200, Note_on_c, 2, 57, 75
3, 457399, Note_off_c, 2, 57, 0
3, 457440, Note_on_c, 2, 59, 76
3, 457680, Note_off_c, 2, 59, 0
3, 457680, Note_on_c, 2, 61, 76
3, 457920, Note_off_c, 2, 61, 0
3, 457920, Note_on_c, 2, 62, 76
3, 458160, Note_off_c, 2, 62, 0
3, 458160, Note_on_c, 2, 64, 77
3, 458400, Note_off_c, 2, 64, 0
3, 458400, Note_on_c, 2, 65, 77
3, 458640, Note_off_c, 2, 65, 0
3, 458640, Note_on_c, 2, 76, 77
3, 459240, Note_off_c, 2, 76, 0
3, 459360, Note_on_c, 2, 74, 78
3, 459960, Note_off_c, 2, 74, 0
3, 462960, Note_on_c, 2, 74, 80
3, 462960, Note_on_c, 2, 80, 80
3, 463160, Note_off_c, 2, 74, 0
3, 463160, Note_off_c, 2, 80, 0
3, 463680, Note_on_c, 2, 81, 82
3, 463680, Note_on_c, 2, 76, 82
3, 463880, Note_off_c, 2, 81, 0
3, 463880, Note_off_c, 2, 76, 0
3, 464400, Note_on_c, 2, 74, 83
3, 464400, Note_on_c, 2, 80, 83
3, 464600, Note_off_c, 2, 74, 0
3, 464600, Note_off_c, 2, 80, 0
3, 465120, Note_on_c, 2, 81, 85
3, 465120, Note_on_c, 2, 76, 85
3, 465320, Note_off_c, 2, 81, 0
3, 465320, Note_off_c, 2, 76, 0
3, 476880, Note_on_c, 2, 69, 46
3, 477000, Note_off_c, 2, 69, 0
3, 477120, Note_on_c, 2, 67, 44
3, 477240, Note_off_c, 2, 67, 0
3, 477360, Note_on_c, 2, 69, 42
3, 477770, Note_off_c, 2, 69, 0
3, 478080, Note_on_c, 2, 62, 46
3, 478320, Note_off_c, 2, 62, 0
3, 478320, Note_on_c, 2, 60, 46
3, 478440, Note_off_c, 2, 60, 0
3, 478560, Note_on_c, 2, 58, 47
3, 478680, Note_off_c, 2, 58, 0
3, 478800, Note_on_c, 2, 58, 48
3, 479040, Note_off_c, 2, 58, 0
3, 479040, Note_on_c, 2, 57, 49
3, 479160, Note_off_c, 2, 57, 0
3, 479280, Note_on_c, 2, 57, 49
3, 479400, Note_off_c, 2, 57, 0
3, 479520, Note_on_c, 2, 57, 50
3, 479640, Note_off_c, 2, 57, 0
3, 479760, Note_on_c, 2, 58, 51
3, 479880, Note_off_c, 2, 58, 0
3, 480000, Note_on_c, 2, 55, 52
3, 480120, Note_off_c, 2, 55, 0
3, 480240, Note_on_c, 2, 57, 53
3, 480480, Note_off_c, 2, 57, 0
3, 480960, Note_on_c, 2, 70, 55
3, 481200, Note_off_c, 2, 70, 0
3, 481200, Note_on_c, 2, 69, 56
3, 481320, Note_off_c, 2, 69, 0
3, 481440, Note_on_c, 2, 67, 56
3, 481560, Note_off_c, 2, 67, 0
3, 481680, Note_on_c, 2, 67, 57
3, 481920, Note_off_c, 2, 67, 0
3, 481920, Note_on_c, 2, 65, 58
3, 482040, Note_off_c, 2, 65, 0
3, 482160, Note_on_c, 2, 65, 59
3, 482280, Note_off_c, 2, 65, 0
3, 482400, Note_on_c, 2, 65, 59
3, 482520, Note_off_c, 2, 65, 0
3, 482640, Note_on_c, 2, 67, 60
3, 482760, Note_off_c, 2, 67, 0
3, 482880, Note_on_c, 2, 64, 61
3, 483000, Note_off_c, 2, 64, 0
3, 483120, Note_on_c, 2, 65, 62
3, 483275, Note_off_c, 2, 65, 0
3, 491520, Note_on_c, 2, 69, 75
3, 491760, Note_off_c, 2, 69, 0
3, 491760, Note_on_c, 2, 67, 70
3, 491950, Note_off_c, 2, 67, 0
3, 492960, Note_on_c, 2, 81, 66
3, 493200, Note_off_c, 2, 81, 0
3, 493200, Note_on_c, 2, 79, 62
3, 493390, Note_off_c, 2, 79, 0
3, 494400, Note_on_c, 2, 69, 60
3, 494640, Note_off_c, 2, 69, 0
3, 494640, Note_on_c, 2, 67, 57
3, 494830, Note_off_c, 2, 67, 0
3, 507720, Note_on_c, 2, 65, 55
3, 507840, Note_off_c, 2, 65, 0
3, 507840, Note_on_c, 2, 60, 56
3, 507960, Note_off_c, 2, 60, 0
3, 507960, Note_on_c, 2, 65, 57
3, 508080, Note_off_c, 2, 65, 0
3, 508200, Note_on_c, 2, 65, 60
3, 508320, Note_off_c, 2, 65, 0
3, 508440, Note_on_c, 2, 60, 63
3, 508560, Note_off_c, 2, 60, 0
3, 508680, Note_on_c, 2, 60, 59
3, 508800, Note_off_c, 2, 60, 0
3, 508920, Note_on_c, 2, 60, 54
3, 509040, Note_off_c, 2, 60, 0
3, 509160, Note_on_c, 2, 65, 55
3, 509280, Note_off_c, 2, 65, 0
3, 509280, Note_on_c, 2, 60, 56
3, 509400, Note_off_c, 2, 60, 0
3, 509400, Note_on_c, 2, 65, 57
3, 509520, Note_off_c, 2, 65, 0
3, 509640, Note_on_c, 2, 65, 60
3, 509760, Note_off_c, 2, 65, 0
3, 509880, Note_on_c, 2, 60, 64
3, 510000, Note_off_c, 2, 60, 0
3, 510120, Note_on_c, 2, 60, 60
3, 510240, Note_off_c, 2, 60, 0
3, 510360, Note_on_c, 2, 60, 55
3, 510480, Note_off_c, 2, 60, 0
3, 524160, Note_on_c, 2, 69, 84
3, 524160, Note_on_c, 2, 65, 84
3, 524640, Note_off_c, 2, 69, 0
3, 524640, Note_off_c, 2, 65, 0
3, 524880, Note_on_c, 2, 72, 87
3, 524880, Note_on_c, 2, 69, 87
3, 525070, Note_off_c, 2, 72, 0
3, 525070, Note_off_c, 2, 69, 0
3, 525120, Note_on_c, 2, 69, 89
3, 525120, Note_on_c, 2, 72, 89
3, 525310, Note_off_c, 2, 69, 0
3, 525310, Note_off_c, 2, 72, 0
3, 525360, Note_on_c, 2, 72, 90
3, 525360, Note_on_c, 2, 69, 90
3, 525550, Note_off_c, 2, 72, 0
3, 525550, Note_off_c, 2, 69, 0
3, 525600, Note_on_c, 2, 72, 91
3, 525600, Note_on_c, 2, 69, 91
3, 525790, Note_off_c, 2, 72, 0
3, 525790, Note_off_c, 2, 69, 0
3, 526320, End_track
4, 0, Start_track
4, 0, Instrument_name_t, "Roland Serial MIDI Out Port A"
4, 0, Title_t, "Unnamed Track"
4, 0, Control_c, 3, 91, 100
4, 0, Control_c, 3, 93, 28
4, 0, Pitch_bend_c, 3, 8192
4, 0, Pitch_bend_c, 3, 8192
4, 0, Control_c, 3, 1, 0
4, 0, Control_c, 3, 0, 0
4, 0, Control_c, 3, 32, 0
4, 0, Program_c, 3, 0
4, 0, Control_c, 3, 10, 64
4, 0, Control_c, 3, 7, 112
4, 0, Control_c, 3, 64, 0
4, 4320, Note_on_c, 3, 57, 65
4, 4510, Note_off_c, 3, 57, 0
4, 4560, Note_on_c, 3, 57, 64
4, 4750, Note_off_c, 3, 57, 0
4, 4800, Note_on_c, 3, 55, 63
4, 4800, Note_on_c, 3, 58, 63
4, 4990, Note_off_c, 3, 55, 0
4, 4990, Note_off_c, 3, 58, 0
4, 5040, Note_on_c, 3, 55, 62
4, 5040, Note_on_c, 3, 58, 62
4, 5230, Note_off_c, 3, 55, 0
4, 5230, Note_off_c, 3, 58, 0
4, 5280, Note_on_c, 3, 60, 61
4, 5280, Note_on_c, 3, 57, 61
4, 5470, Note_off_c, 3, 60, 0
4, 5470, Note_off_c, 3, 57, 0
4, 5520, Note_on_c, 3, 60, 60
4, 5520, Note_on_c, 3, 57, 60
4, 5710, Note_off_c, 3, 60, 0
4, 5710, Note_off_c, 3, 57, 0
4, 5760, Note_on_c, 3, 62, 58
4, 5760, Note_on_c, 3, 58, 58
4, 5950, Note_off_c, 3, 62, 0
4, 5950, Note_off_c, 3, 58, 0
4, 6000, Note_on_c, 3, 62, 55
4, 6000, Note_on_c, 3, 58, 55
4, 6190, Note_off_c, 3, 62, 0
4, 6190, Note_off_c, 3, 58, 0
4, 6240, Note_on_c, 3, 62, 51
4, 6240, Note_on_c, 3, 58, 51
4, 6430, Note_off_c, 3, 62, 0
4, 6430, Note_off_c, 3, 58, 0
4, 6480, Note_on_c, 3, 62, 47
4, 6480, Note_on_c, 3, 58, 47
4, 6670, Note_off_c, 3, 62, 0
4, 6670, Note_off_c, 3, 58, 0
4, 6720, Note_on_c, 3, 62, 44
4, 6720, Note_on_c, 3, 58, 44
4, 6910, Note_off_c, 3, 62, 0
4, 6910, Note_off_c, 3, 58, 0
4, 6960, Note_on_c, 3, 62, 40
4, 6960, Note_on_c, 3, 58, 40
4, 7150, Note_off_c, 3, 62, 0
4, 7150, Note_off_c, 3, 58, 0
4, 7200, Note_on_c, 3, 64, 41
4, 7200, Note_on_c, 3, 55, 41
4, 7390, Note_off_c, 3, 64, 0
4, 7390, Note_off_c, 3, 55, 0
4, 7440, Note_on_c, 3, 64, 44
4, 7440, Note_on_c, 3, 55, 44
4, 7630, Note_off_c, 3, 64, 0
4, 7630, Note_off_c, 3, 55, 0
4, 7680, Note_on_c, 3, 64, 47
4, 7680, Note_on_c, 3, 55, 47
4, 7870, Note_off_c, 3, 64, 0
4, 7870, Note_off_c, 3, 55, 0
4, 7920, Note_on_c, 3, 64, 50
4, 7920, Note_on_c, 3, 55, 50
4, 8110, Note_off_c, 3, 64, 0
4, 8110, Note_off_c, 3, 55, 0
4, 8160, Note_on_c, 3, 64, 53
4, 8160, Note_on_c, 3, 55, 53
4, 8350, Note_off_c, 3, 64, 0
4, 8350, Note_off_c, 3, 55, 0
4, 8400, Note_on_c, 3, 64, 57
4, 8400, Note_on_c, 3, 55, 57
4, 8590, Note_off_c, 3, 64, 0
4, 8590, Note_off_c, 3, 55, 0
4, 8640, Note_on_c, 3, 65, 60
4, 8640, Note_on_c, 3, 57, 60
4, 8830, Note_off_c, 3, 65, 0
4, 8830, Note_off_c, 3, 57, 0
4, 8880, Note_on_c, 3, 65, 63
4, 8880, Note_on_c, 3, 57, 63
4, 9070, Note_off_c, 3, 65, 0
4, 9070, Note_off_c, 3, 57, 0
4, 9120, Note_on_c, 3, 65, 66
4, 9120, Note_on_c, 3, 57, 66
4, 9310, Note_off_c, 3, 65, 0
4, 9310, Note_off_c, 3, 57, 0
4, 9360, Note_on_c, 3, 65, 69
4, 9360, Note_on_c, 3, 57, 69
4, 9550, Note_off_c, 3, 65, 0
4, 9550, Note_off_c, 3, 57, 0
4, 9600, Note_on_c, 3, 57, 72
4, 9600, Note_on_c, 3, 65, 72
4, 9755, Note_off_c, 3, 57, 0
4, 9770, Note_off_c, 3, 65, 0
4, 9840, Note_on_c, 3, 65, 75
4, 9840, Note_on_c, 3, 57, 75
4, 9975, Note_off_c, 3, 65, 0
4, 9975, Note_off_c, 3, 57, 0
4, 10020, Note_on_c, 3, 55, 83
4, 10040, Note_on_c, 3, 60, 84
4, 10560, Note_off_c, 3, 55, 0
4, 10560, Note_off_c, 3, 60, 0
4, 11640, Note_on_c, 3, 60, 79
4, 11760, Note_off_c, 3, 60, 0
4, 11760, Note_on_c, 3, 57, 78
4, 11880, Note_off_c, 3, 57, 0
4, 11880, Note_on_c, 3, 60, 78
4, 12000, Note_off_c, 3, 60, 0
4, 12120, Note_on_c, 3, 60, 77
4, 12240, Note_off_c, 3, 60, 0
4, 12240, Note_on_c, 3, 58, 76
4, 12360, Note_off_c, 3, 58, 0
4, 12360, Note_on_c, 3, 60, 76
4, 12480, Note_off_c, 3, 60, 0
4, 12600, Note_on_c, 3, 60, 75
4, 12720, Note_off_c, 3, 60, 0
4, 12720, Note_on_c, 3, 57, 74
4, 12840, Note_off_c, 3, 57, 0
4, 12840, Note_on_c, 3, 60, 74
4, 12960, Note_off_c, 3, 60, 0
4, 15960, Note_on_c, 3, 60, 69
4, 16080, Note_off_c, 3, 60, 0
4, 16080, Note_on_c, 3, 57, 68
4, 16200, Note_off_c, 3, 57, 0
4, 16200, Note_on_c, 3, 60, 68
4, 16320, Note_off_c, 3, 60, 0
4, 16440, Note_on_c, 3, 60, 67
4, 16560, Note_off_c, 3, 60, 0
4, 16560, Note_on_c, 3, 58, 66
4, 16680, Note_off_c, 3, 58, 0
4, 16680, Note_on_c, 3, 60, 66
4, 16800, Note_off_c, 3, 60, 0
4, 16920, Note_on_c, 3, 60, 65
4, 17040, Note_off_c, 3, 60, 0
4, 17040, Note_on_c, 3, 57, 64
4, 17160, Note_off_c, 3, 57, 0
4, 17160, Note_on_c, 3, 60, 64
4, 17280, Note_off_c, 3, 60, 0
4, 77880, Note_on_c, 3, 67, 71
4, 78000, Note_off_c, 3, 67, 0
4, 78000, Note_on_c, 3, 64, 72
4, 78120, Note_off_c, 3, 64, 0
4, 78120, Note_on_c, 3, 67, 72
4, 78240, Note_off_c, 3, 67, 0
4, 78360, Note_on_c, 3, 67, 74
4, 78480, Note_off_c, 3, 67, 0
4, 78480, Note_on_c, 3, 64, 75
4, 78600, Note_off_c, 3, 64, 0
4, 78600, Note_on_c, 3, 67, 75
4, 78720, Note_off_c, 3, 67, 0
4, 78840, Note_on_c, 3, 65, 77
4, 78960, Note_off_c, 3, 65, 0
4, 78960, Note_on_c, 3, 62, 78
4, 79080, Note_off_c, 3, 62, 0
4, 79080, Note_on_c, 3, 65, 78
4, 79200, Note_off_c, 3, 65, 0
4, 79320, Note_on_c, 3, 67, 80
4, 79440, Note_off_c, 3, 67, 0
4, 79440, Note_on_c, 3, 64, 81
4, 79560, Note_off_c, 3, 64, 0
4, 79560, Note_on_c, 3, 67, 81
4, 79680, Note_off_c, 3, 67, 0
4, 79800, Note_on_c, 3, 67, 83
4, 79920, Note_off_c, 3, 67, 0
4, 79920, Note_on_c, 3, 64, 84
4, 80040, Note_off_c, 3, 64, 0
4, 80040, Note_on_c, 3, 67, 84
4, 80160, Note_off_c, 3, 67, 0
4, 80280, Note_on_c, 3, 65, 86
4, 80400, Note_off_c, 3, 65, 0
4, 80400, Note_on_c, 3, 62, 87
4, 80520, Note_off_c, 3, 62, 0
4, 80520, Note_on_c, 3, 65, 87
4, 80640, Note_off_c, 3, 65, 0
4, 129720, Note_on_c, 3, 60, 80
4, 129840, Note_off_c, 3, 60, 0
4, 129840, Note_on_c, 3, 57, 79
4, 129960, Note_off_c, 3, 57, 0
4, 129960, Note_on_c, 3, 60, 79
4, 130080, Note_off_c, 3, 60, 0
4, 130200, Note_on_c, 3, 60, 78
4, 130320, Note_off_c, 3, 60, 0
4, 130320, Note_on_c, 3, 58, 77
4, 130440, Note_off_c, 3, 58, 0
4, 130440, Note_on_c, 3, 60, 77
4, 130560, Note_off_c, 3, 60, 0
4, 130680, Note_on_c, 3, 60, 76
4, 130800, Note_off_c, 3, 60, 0
4, 130800, Note_on_c, 3, 57, 75
4, 130920, Note_off_c, 3, 57, 0
4, 130920, Note_on_c, 3, 60, 75
4, 131040, Note_off_c, 3, 60, 0
4, 134040, Note_on_c, 3, 60, 71
4, 134160, Note_off_c, 3, 60, 0
4, 134160, Note_on_c, 3, 57, 70
4, 134280, Note_off_c, 3, 57, 0
4, 134280, Note_on_c, 3, 60, 70
4, 134400, Note_off_c, 3, 60, 0
4, 134520, Note_on_c, 3, 60, 69
4, 134640, Note_off_c, 3, 60, 0
4, 134640, Note_on_c, 3, 58, 68
4, 134760, Note_off_c, 3, 58, 0
4, 134760, Note_on_c, 3, 60, 68
4, 134880, Note_off_c, 3, 60, 0
4, 135000, Note_on_c, 3, 60, 67
4, 135120, Note_off_c, 3, 60, 0
4, 135120, Note_on_c, 3, 57, 66
4, 135240, Note_off_c, 3, 57, 0
4, 135240, Note_on_c, 3, 60, 66
4, 135360, Note_off_c, 3, 60, 0
4, 204600, Note_on_c, 3, 60, 80
4, 204720, Note_off_c, 3, 60, 0
4, 204720, Note_on_c, 3, 57, 81
4, 204840, Note_off_c, 3, 57, 0
4, 204840, Note_on_c, 3, 60, 81
4, 204960, Note_off_c, 3, 60, 0
4, 205080, Note_on_c, 3, 60, 82
4, 205200, Note_off_c, 3, 60, 0
4, 205200, Note_on_c, 3, 57, 83
4, 205320, Note_off_c, 3, 57, 0
4, 205320, Note_on_c, 3, 60, 83
4, 205440, Note_off_c, 3, 60, 0
4, 205560, Note_on_c, 3, 58, 84
4, 205680, Note_off_c, 3, 58, 0
4, 205680, Note_on_c, 3, 55, 85
4, 205800, Note_off_c, 3, 55, 0
4, 205800, Note_on_c, 3, 58, 85
4, 205920, Note_off_c, 3, 58, 0
4, 206040, Note_on_c, 3, 60, 86
4, 206160, Note_off_c, 3, 60, 0
4, 206160, Note_on_c, 3, 57, 86
4, 206280, Note_off_c, 3, 57, 0
4, 206280, Note_on_c, 3, 60, 87
4, 206400, Note_off_c, 3, 60, 0
4, 206520, Note_on_c, 3, 60, 88
4, 206640, Note_off_c, 3, 60, 0
4, 206640, Note_on_c, 3, 57, 88
4, 206760, Note_off_c, 3, 57, 0
4, 206760, Note_on_c, 3, 60, 89
4, 206880, Note_off_c, 3, 60, 0
4, 207000, Note_on_c, 3, 58, 90
4, 207120, Note_off_c, 3, 58, 0
4, 207120, Note_on_c, 3, 55, 90
4, 207240, Note_off_c, 3, 55, 0
4, 207240, Note_on_c, 3, 58, 91
4, 207360, Note_off_c, 3, 58, 0
4, 211680, Control_c, 3, 64, 0
4, 211680, Control_c, 3, 7, 92
4, 223200, Control_c, 3, 64, 0
4, 223240, Control_c, 3, 64, 127
4, 223320, Note_on_c, 3, 56, 31
4, 223440, Note_off_c, 3, 56, 0
4, 223440, Note_on_c, 3, 60, 32
4, 223560, Note_off_c, 3, 60, 0
4, 223560, Note_on_c, 3, 56, 33
4, 223680, Note_off_c, 3, 56, 0
4, 223680, Note_on_c, 3, 51, 33
4, 223800, Note_off_c, 3, 51, 0
4, 223800, Note_on_c, 3, 56, 34
4, 223920, Control_c, 3, 64, 0
4, 223920, Note_off_c, 3, 56, 0
4, 223960, Control_c, 3, 64, 127
4, 224040, Note_on_c, 3, 55, 36
4, 224160, Note_off_c, 3, 55, 0
4, 224160, Note_on_c, 3, 58, 36
4, 224280, Note_off_c, 3, 58, 0
4, 224280, Note_on_c, 3, 55, 37
4, 224400, Note_off_c, 3, 55, 0
4, 224400, Note_on_c, 3, 51, 38
4, 224520, Note_off_c, 3, 51, 0
4, 224520, Note_on_c, 3, 55, 38
4, 224640, Control_c, 3, 64, 0
4, 224640, Note_off_c, 3, 55, 0
4, 224680, Control_c, 3, 64, 127
4, 224760, Note_on_c, 3, 55, 37
4, 224880, Note_off_c, 3, 55, 0
4, 224880, Note_on_c, 3, 58, 37
4, 225000, Note_off_c, 3, 58, 0
4, 225000, Note_on_c, 3, 55, 36
4, 225120, Note_off_c, 3, 55, 0
4, 225120, Note_on_c, 3, 51, 38
4, 225240, Note_off_c, 3, 51, 0
4, 225240, Note_on_c, 3, 55, 35
4, 225360, Control_c, 3, 64, 0
4, 225360, Note_off_c, 3, 55, 0
4, 225400, Control_c, 3, 64, 127
4, 225480, Note_on_c, 3, 56, 35
4, 225600, Note_off_c, 3, 56, 0
4, 225600, Note_on_c, 3, 60, 34
4, 225720, Note_off_c, 3, 60, 0
4, 225720, Note_on_c, 3, 56, 34
4, 225840, Note_off_c, 3, 56, 0
4, 225840, Note_on_c, 3, 51, 36
4, 225960, Note_off_c, 3, 51, 0
4, 225960, Note_on_c, 3, 56, 33
4, 226080, Control_c, 3, 64, 0
4, 226080, Note_off_c, 3, 56, 0
4, 226120, Control_c, 3, 64, 127
4, 226200, Note_on_c, 3, 56, 32
4, 226320, Note_off_c, 3, 56, 0
4, 226320, Note_on_c, 3, 61, 32
4, 226440, Note_off_c, 3, 61, 0
4, 226440, Note_on_c, 3, 56, 31
4, 226560, Note_off_c, 3, 56, 0
4, 226560, Note_on_c, 3, 51, 34
4, 226680, Note_off_c, 3, 51, 0
4, 226680, Note_on_c, 3, 56, 31
4, 226800, Control_c, 3, 64, 0
4, 226800, Note_off_c, 3, 56, 0
4, 226840, Control_c, 3, 64, 127
4, 226920, Note_on_c, 3, 53, 30
4, 227040, Note_off_c, 3, 53, 0
4, 227040, Note_on_c, 3, 58, 30
4, 227160, Note_off_c, 3, 58, 0
4, 227160, Note_on_c, 3, 53, 29
4, 227280, Note_off_c, 3, 53, 0
4, 227280, Note_on_c, 3, 50, 32
4, 227400, Note_off_c, 3, 50, 0
4, 227400, Note_on_c, 3, 53, 28
4, 227520, Control_c, 3, 64, 0
4, 227520, Note_off_c, 3, 53, 0
4, 227560, Control_c, 3, 64, 127
4, 227640, Note_on_c, 3, 56, 28
4, 227760, Note_off_c, 3, 56, 0
4, 227760, Note_on_c, 3, 60, 27
4, 227880, Note_off_c, 3, 60, 0
4, 227880, Note_on_c, 3, 56, 27
4, 228000, Note_off_c, 3, 56, 0
4, 228000, Note_on_c, 3, 51, 30
4, 228120, Note_off_c, 3, 51, 0
4, 228120, Note_on_c, 3, 56, 26
4, 228240, Control_c, 3, 64, 0
4, 228240, Note_off_c, 3, 56, 0
4, 228280, Control_c, 3, 64, 127
4, 228360, Note_on_c, 3, 55, 29
4, 228480, Note_off_c, 3, 55, 0
4, 228480, Note_on_c, 3, 58, 31
4, 228600, Note_off_c, 3, 58, 0
4, 228600, Note_on_c, 3, 55, 32
4, 228720, Note_off_c, 3, 55, 0
4, 228720, Note_on_c, 3, 51, 33
4, 228840, Note_off_c, 3, 51, 0
4, 228840, Note_on_c, 3, 55, 34
4, 228960, Control_c, 3, 64, 0
4, 228960, Note_off_c, 3, 55, 0
4, 229000, Control_c, 3, 64, 127
4, 229080, Note_on_c, 3, 56, 39
4, 229200, Note_off_c, 3, 56, 0
4, 229200, Note_on_c, 3, 59, 38
4, 229320, Note_off_c, 3, 59, 0
4, 229320, Note_on_c, 3, 56, 37
4, 229440, Note_off_c, 3, 56, 0
4, 229440, Note_on_c, 3, 52, 36
4, 229560, Note_off_c, 3, 52, 0
4, 229560, Note_on_c, 3, 56, 36
4, 229680, Control_c, 3, 64, 0
4, 229680, Note_off_c, 3, 56, 0
4, 229720, Control_c, 3, 64, 127
4, 229800, Note_on_c, 3, 56, 35
4, 229920, Note_off_c, 3, 56, 0
4, 229920, Note_on_c, 3, 59, 35
4, 230040, Note_off_c, 3, 59, 0
4, 230040, Note_on_c, 3, 56, 34
4, 230160, Note_off_c, 3, 56, 0
4, 230160, Note_on_c, 3, 52, 33
4, 230280, Note_off_c, 3, 52, 0
4, 230280, Note_on_c, 3, 56, 33
4, 230400, Control_c, 3, 64, 0
4, 230400, Note_off_c, 3, 56, 0
4, 230440, Control_c, 3, 64, 127
4, 230520, Note_on_c, 3, 55, 32
4, 230640, Note_off_c, 3, 55, 0
4, 230640, Note_on_c, 3, 58, 31
4, 230760, Note_off_c, 3, 58, 0
4, 230760, Note_on_c, 3, 55, 30
4, 230880, Note_off_c, 3, 55, 0
4, 230880, Note_on_c, 3, 51, 30
4, 231000, Note_off_c, 3, 51, 0
4, 231000, Note_on_c, 3, 55, 29
4, 231120, Control_c, 3, 64, 0
4, 231120, Note_off_c, 3, 55, 0
4, 231160, Control_c, 3, 64, 127
4, 231240, Note_on_c, 3, 55, 30
4, 231360, Note_off_c, 3, 55, 0
4, 231360, Note_on_c, 3, 58, 29
4, 231480, Note_off_c, 3, 58, 0
4, 231480, Note_on_c, 3, 55, 31
4, 231600, Note_off_c, 3, 55, 0
4, 231600, Note_on_c, 3, 63, 33
4, 231720, Note_off_c, 3, 63, 0
4, 231720, Note_on_c, 3, 58, 37
4, 231840, Control_c, 3, 64, 0
4, 231840, Note_off_c, 3, 58, 0
4, 231880, Control_c, 3, 64, 127
4, 231960, Note_on_c, 3, 65, 45
4, 232080, Note_off_c, 3, 65, 0
4, 232080, Note_on_c, 3, 68, 45
4, 232200, Note_off_c, 3, 68, 0
4, 232200, Note_on_c, 3, 65, 45
4, 232320, Note_off_c, 3, 65, 0
4, 232320, Note_on_c, 3, 62, 46
4, 232440, Note_off_c, 3, 62, 0
4, 232440, Note_on_c, 3, 65, 44
4, 232560, Control_c, 3, 64, 0
4, 232560, Note_off_c, 3, 65, 0
4, 232600, Control_c, 3, 64, 127
4, 232680, Note_on_c, 3, 65, 43
4, 232800, Note_off_c, 3, 65, 0
4, 232800, Note_on_c, 3, 71, 43
4, 232920, Note_off_c, 3, 71, 0
4, 232920, Note_on_c, 3, 65, 42
4, 233040, Note_off_c, 3, 65, 0
4, 233040, Note_on_c, 3, 62, 43
4, 233160, Note_off_c, 3, 62, 0
4, 233160, Note_on_c, 3, 65, 41
4, 233280, Control_c, 3, 64, 0
4, 233280, Note_off_c, 3, 65, 0
4, 233320, Control_c, 3, 64, 127
4, 233400, Note_on_c, 3, 67, 41
4, 233520, Note_off_c, 3, 67, 0
4, 233520, Note_on_c, 3, 70, 40
4, 233640, Note_off_c, 3, 70, 0
4, 233640, Note_on_c, 3, 67, 40
4, 233760, Note_off_c, 3, 67, 0
4, 233760, Note_on_c, 3, 61, 41
4, 233880, Note_off_c, 3, 61, 0
4, 233880, Note_on_c, 3, 67, 39
4, 234000, Control_c, 3, 64, 0
4, 234000, Note_off_c, 3, 67, 0
4, 234040, Control_c, 3, 64, 127
4, 234120, Note_on_c, 3, 63, 38
4, 234240, Note_off_c, 3, 63, 0
4, 234240, Note_on_c, 3, 70, 38
4, 234360, Note_off_c, 3, 70, 0
4, 234360, Note_on_c, 3, 63, 38
4, 234480, Note_off_c, 3, 63, 0
4, 234480, Note_on_c, 3, 61, 38
4, 234600, Note_off_c, 3, 61, 0
4, 234600, Note_on_c, 3, 63, 37
4, 234720, Control_c, 3, 64, 0
4, 234720, Note_off_c, 3, 63, 0
4, 234760, Control_c, 3, 64, 127
4, 234840, Note_on_c, 3, 63, 36
4, 234960, Note_off_c, 3, 63, 0
4, 234960, Note_on_c, 3, 68, 36
4, 235080, Note_off_c, 3, 68, 0
4, 235080, Note_on_c, 3, 63, 35
4, 235200, Note_off_c, 3, 63, 0
4, 235200, Note_on_c, 3, 60, 36
4, 235320, Note_off_c, 3, 60, 0
4, 235320, Note_on_c, 3, 63, 34
4, 235440, Control_c, 3, 64, 0
4, 235440, Note_off_c, 3, 63, 0
4, 235480, Control_c, 3, 64, 127
4, 235560, Note_on_c, 3, 65, 34
4, 235680, Note_off_c, 3, 65, 0
4, 235680, Note_on_c, 3, 68, 33
4, 235800, Note_off_c, 3, 68, 0
4, 235800, Note_on_c, 3, 65, 33
4, 235920, Note_off_c, 3, 65, 0
4, 235920, Note_on_c, 3, 61, 33
4, 236040, Note_off_c, 3, 61, 0
4, 236040, Note_on_c, 3, 65, 32
4, 236160, Control_c, 3, 64, 0
4, 236160, Note_off_c, 3, 65, 0
4, 236200, Control_c, 3, 64, 127
4, 236280, Note_on_c, 3, 68, 31
4, 236400, Note_off_c, 3, 68, 0
4, 236400, Note_on_c, 3, 72, 31
4, 236520, Note_off_c, 3, 72, 0
4, 236520, Note_on_c, 3, 68, 31
4, 236640, Note_off_c, 3, 68, 0
4, 236640, Note_on_c, 3, 63, 31
4, 236760, Note_off_c, 3, 63, 0
4, 236760, Note_on_c, 3, 68, 30
4, 236880, Control_c, 3, 64, 0
4, 236880, Note_off_c, 3, 68, 0
4, 236920, Control_c, 3, 64, 127
4, 237000, Note_on_c, 3, 70, 33
4, 237120, Note_off_c, 3, 70, 0
4, 237120, Note_on_c, 3, 73, 34
4, 237240, Note_off_c, 3, 73, 0
4, 237240, Note_on_c, 3, 70, 36
4, 237360, Note_off_c, 3, 70, 0
4, 237360, Note_on_c, 3, 63, 38
4, 237480, Note_off_c, 3, 63, 0
4, 237480, Note_on_c, 3, 70, 42
4, 237600, Control_c, 3, 64, 0
4, 237600, Note_off_c, 3, 70, 0
4, 237640, Control_c, 3, 64, 127
4, 237720, Note_on_c, 3, 68, 44
4, 237840, Note_off_c, 3, 68, 0
4, 237840, Note_on_c, 3, 72, 44
4, 237960, Note_off_c, 3, 72, 0
4, 237960, Note_on_c, 3, 68, 43
4, 238080, Note_off_c, 3, 68, 0
4, 238080, Note_on_c, 3, 65, 42
4, 238200, Note_off_c, 3, 65, 0
4, 238200, Note_on_c, 3, 68, 42
4, 238320, Control_c, 3, 64, 0
4, 238320, Note_off_c, 3, 68, 0
4, 238360, Control_c, 3, 64, 127
4, 238440, Note_on_c, 3, 65, 40
4, 238560, Note_off_c, 3, 65, 0
4, 238560, Note_on_c, 3, 68, 40
4, 238680, Note_off_c, 3, 68, 0
4, 238680, Note_on_c, 3, 65, 39
4, 238800, Note_off_c, 3, 65, 0
4, 238800, Note_on_c, 3, 61, 37
4, 238920, Note_off_c, 3, 61, 0
4, 238920, Note_on_c, 3, 65, 37
4, 239040, Control_c, 3, 64, 0
4, 239040, Note_off_c, 3, 65, 0
4, 239080, Control_c, 3, 64, 127
4, 239160, Note_on_c, 3, 56, 36
4, 239280, Note_off_c, 3, 56, 0
4, 239280, Note_on_c, 3, 60, 35
4, 239400, Note_off_c, 3, 60, 0
4, 239400, Note_on_c, 3, 56, 35
4, 239520, Note_off_c, 3, 56, 0
4, 239520, Note_on_c, 3, 51, 33
4, 239640, Note_off_c, 3, 51, 0
4, 239640, Note_on_c, 3, 56, 33
4, 239760, Control_c, 3, 64, 0
4, 239760, Note_off_c, 3, 56, 0
4, 239800, Control_c, 3, 64, 127
4, 239880, Note_on_c, 3, 55, 32
4, 240000, Note_off_c, 3, 55, 0
4, 240000, Note_on_c, 3, 61, 31
4, 240120, Note_off_c, 3, 61, 0
4, 240120, Note_on_c, 3, 55, 30
4, 240240, Note_off_c, 3, 55, 0
4, 240240, Note_on_c, 3, 51, 28
4, 240360, Note_off_c, 3, 51, 0
4, 240360, Note_on_c, 3, 55, 29
4, 240480, Control_c, 3, 64, 0
4, 240480, Note_off_c, 3, 55, 0
4, 257760, Control_c, 3, 64, 0
4, 257800, Control_c, 3, 64, 127
4, 257880, Note_on_c, 3, 56, 34
4, 258000, Note_off_c, 3, 56, 0
4, 258000, Note_on_c, 3, 60, 35
4, 258120, Note_off_c, 3, 60, 0
4, 258120, Note_on_c, 3, 56, 35
4, 258240, Note_off_c, 3, 56, 0
4, 258240, Note_on_c, 3, 51, 36
4, 258360, Note_off_c, 3, 51, 0
4, 258360, Note_on_c, 3, 56, 37
4, 258480, Control_c, 3, 64, 0
4, 258480, Note_off_c, 3, 56, 0
4, 258520, Control_c, 3, 64, 127
4, 258600, Note_on_c, 3, 55, 38
4, 258720, Note_off_c, 3, 55, 0
4, 258720, Note_on_c, 3, 58, 39
4, 258840, Note_off_c, 3, 58, 0
4, 258840, Note_on_c, 3, 55, 39
4, 258960, Note_off_c, 3, 55, 0
4, 258960, Note_on_c, 3, 51, 40
4, 259080, Note_off_c, 3, 51, 0
4, 259080, Note_on_c, 3, 55, 40
4, 259200, Control_c, 3, 64, 0
4, 259200, Note_off_c, 3, 55, 0
4, 259240, Control_c, 3, 64, 127
4, 259320, Note_on_c, 3, 55, 39
4, 259440, Note_off_c, 3, 55, 0
4, 259440, Note_on_c, 3, 58, 38
4, 259560, Note_off_c, 3, 58, 0
4, 259560, Note_on_c, 3, 55, 38
4, 259680, Note_off_c, 3, 55, 0
4, 259680, Note_on_c, 3, 51, 40
4, 259800, Note_off_c, 3, 51, 0
4, 259800, Note_on_c, 3, 55, 37
4, 259920, Control_c, 3, 64, 0
4, 259920, Note_off_c, 3, 55, 0
4, 259960, Control_c, 3, 64, 127
4, 260040, Note_on_c, 3, 56, 37
4, 260160, Note_off_c, 3, 56, 0
4, 260160, Note_on_c, 3, 60, 36
4, 260280, Note_off_c, 3, 60, 0
4, 260280, Note_on_c, 3, 56, 36
4, 260400, Note_off_c, 3, 56, 0
4, 260400, Note_on_c, 3, 51, 37
4, 260520, Note_off_c, 3, 51, 0
4, 260520, Note_on_c, 3, 56, 35
4, 260640, Control_c, 3, 64, 0
4, 260640, Note_off_c, 3, 56, 0
4, 260680, Control_c, 3, 64, 127
4, 260760, Note_on_c, 3, 56, 34
4, 260880, Note_off_c, 3, 56, 0
4, 260880, Note_on_c, 3, 61, 34
4, 261000, Note_off_c, 3, 61, 0
4, 261000, Note_on_c, 3, 56, 33
4, 261120, Note_off_c, 3, 56, 0
4, 261120, Note_on_c, 3, 51, 35
4, 261240, Note_off_c, 3, 51, 0
4, 261240, Note_on_c, 3, 56, 33
4, 261360, Control_c, 3, 64, 0
4, 261360, Note_off_c, 3, 56, 0
4, 261400, Control_c, 3, 64, 127
4, 261480, Note_on_c, 3, 53, 32
4, 261600, Note_off_c, 3, 53, 0
4, 261600, Note_on_c, 3, 58, 32
4, 261720, Note_off_c, 3, 58, 0
4, 261720, Note_on_c, 3, 53, 31
4, 261840, Note_off_c, 3, 53, 0
4, 261840, Note_on_c, 3, 50, 33
4, 261960, Note_off_c, 3, 50, 0
4, 261960, Note_on_c, 3, 53, 30
4, 262080, Control_c, 3, 64, 0
4, 262080, Note_off_c, 3, 53, 0
4, 262120, Control_c, 3, 64, 127
4, 262200, Note_on_c, 3, 56, 30
4, 262320, Note_off_c, 3, 56, 0
4, 262320, Note_on_c, 3, 60, 29
4, 262440, Note_off_c, 3, 60, 0
4, 262440, Note_on_c, 3, 56, 29
4, 262560, Note_off_c, 3, 56, 0
4, 262560, Note_on_c, 3, 51, 30
4, 262680, Note_off_c, 3, 51, 0
4, 262680, Note_on_c, 3, 56, 28
4, 262800, Control_c, 3, 64, 0
4, 262800, Note_off_c, 3, 56, 0
4, 262840, Control_c, 3, 64, 127
4, 262920, Note_on_c, 3, 55, 29
4, 263040, Note_off_c, 3, 55, 0
4, 263040, Note_on_c, 3, 58, 32
4, 263160, Note_off_c, 3, 58, 0
4, 263160, Note_on_c, 3, 55, 34
4, 263280, Note_off_c, 3, 55, 0
4, 263280, Note_on_c, 3, 51, 40
4, 263400, Note_off_c, 3, 51, 0
4, 263400, Note_on_c, 3, 55, 42
4, 263520, Control_c, 3, 64, 0
4, 263520, Note_off_c, 3, 55, 0
4, 263560, Control_c, 3, 64, 127
4, 263640, Note_on_c, 3, 56, 43
4, 263760, Note_off_c, 3, 56, 0
4, 263760, Note_on_c, 3, 59, 42
4, 263880, Note_off_c, 3, 59, 0
4, 263880, Note_on_c, 3, 56, 42
4, 264000, Note_off_c, 3, 56, 0
4, 264000, Note_on_c, 3, 52, 40
4, 264120, Note_off_c, 3, 52, 0
4, 264120, Note_on_c, 3, 56, 40
4, 264240, Control_c, 3, 64, 0
4, 264240, Note_off_c, 3, 56, 0
4, 264280, Control_c, 3, 64, 127
4, 264360, Note_on_c, 3, 56, 39
4, 264480, Note_off_c, 3, 56, 0
4, 264480, Note_on_c, 3, 59, 39
4, 264600, Note_off_c, 3, 59, 0
4, 264600, Note_on_c, 3, 56, 38
4, 264720, Note_off_c, 3, 56, 0
4, 264720, Note_on_c, 3, 52, 37
4, 264840, Note_off_c, 3, 52, 0
4, 264840, Note_on_c, 3, 56, 37
4, 264960, Control_c, 3, 64, 0
4, 264960, Note_off_c, 3, 56, 0
4, 265000, Control_c, 3, 64, 127
4, 265080, Note_on_c, 3, 55, 36
4, 265200, Note_off_c, 3, 55, 0
4, 265200, Note_on_c, 3, 58, 36
4, 265320, Note_off_c, 3, 58, 0
4, 265320, Note_on_c, 3, 55, 35
4, 265440, Note_off_c, 3, 55, 0
4, 265440, Note_on_c, 3, 51, 33
4, 265560, Note_off_c, 3, 51, 0
4, 265560, Note_on_c, 3, 55, 34
4, 265680, Control_c, 3, 64, 0
4, 265680, Note_off_c, 3, 55, 0
4, 265720, Control_c, 3, 64, 127
4, 265800, Note_on_c, 3, 55, 35
4, 265920, Note_off_c, 3, 55, 0
4, 265920, Note_on_c, 3, 58, 35
4, 266040, Note_off_c, 3, 58, 0
4, 266040, Note_on_c, 3, 55, 35
4, 266160, Note_off_c, 3, 55, 0
4, 266160, Note_on_c, 3, 63, 36
4, 266280, Note_off_c, 3, 63, 0
4, 266280, Note_on_c, 3, 58, 40
4, 266400, Control_c, 3, 64, 0
4, 266400, Note_off_c, 3, 58, 0
4, 266440, Control_c, 3, 64, 127
4, 266520, Note_on_c, 3, 62, 45
4, 266640, Note_off_c, 3, 62, 0
4, 266640, Note_on_c, 3, 65, 45
4, 266760, Note_off_c, 3, 65, 0
4, 266760, Note_on_c, 3, 62, 45
4, 266880, Note_off_c, 3, 62, 0
4, 266880, Note_on_c, 3, 59, 44
4, 267000, Note_off_c, 3, 59, 0
4, 267000, Note_on_c, 3, 62, 44
4, 267120, Control_c, 3, 64, 0
4, 267120, Note_off_c, 3, 62, 0
4, 267160, Control_c, 3, 64, 127
4, 267240, Note_on_c, 3, 62, 43
4, 267360, Note_off_c, 3, 62, 0
4, 267360, Note_on_c, 3, 71, 43
4, 267480, Note_off_c, 3, 71, 0
4, 267480, Note_on_c, 3, 62, 43
4, 267600, Note_off_c, 3, 62, 0
4, 267600, Note_on_c, 3, 59, 42
4, 267720, Note_off_c, 3, 59, 0
4, 267720, Note_on_c, 3, 62, 42
4, 267840, Control_c, 3, 64, 0
4, 267840, Note_off_c, 3, 62, 0
4, 267880, Control_c, 3, 64, 127
4, 267960, Note_on_c, 3, 67, 41
4, 268080, Note_off_c, 3, 67, 0
4, 268080, Note_on_c, 3, 70, 41
4, 268200, Note_off_c, 3, 70, 0
4, 268200, Note_on_c, 3, 67, 41
4, 268320, Note_off_c, 3, 67, 0
4, 268320, Note_on_c, 3, 61, 40
4, 268440, Note_off_c, 3, 61, 0
4, 268440, Note_on_c, 3, 67, 40
4, 268560, Control_c, 3, 64, 0
4, 268560, Note_off_c, 3, 67, 0
4, 268600, Control_c, 3, 64, 127
4, 268680, Note_on_c, 3, 63, 39
4, 268800, Note_off_c, 3, 63, 0
4, 268800, Note_on_c, 3, 70, 39
4, 268920, Note_off_c, 3, 70, 0
4, 268920, Note_on_c, 3, 63, 39
4, 269040, Note_off_c, 3, 63, 0
4, 269040, Note_on_c, 3, 61, 38
4, 269160, Note_off_c, 3, 61, 0
4, 269160, Note_on_c, 3, 63, 38
4, 269280, Control_c, 3, 64, 0
4, 269280, Note_off_c, 3, 63, 0
4, 269320, Control_c, 3, 64, 127
4, 269400, Note_on_c, 3, 63, 37
4, 269520, Note_off_c, 3, 63, 0
4, 269520, Note_on_c, 3, 68, 37
4, 269640, Note_off_c, 3, 68, 0
4, 269640, Note_on_c, 3, 63, 37
4, 269760, Note_off_c, 3, 63, 0
4, 269760, Note_on_c, 3, 60, 36
4, 269880, Note_off_c, 3, 60, 0
4, 269880, Note_on_c, 3, 63, 36
4, 270000, Control_c, 3, 64, 0
4, 270000, Note_off_c, 3, 63, 0
4, 270040, Control_c, 3, 64, 127
4, 270120, Note_on_c, 3, 65, 35
4, 270240, Note_off_c, 3, 65, 0
4, 270240, Note_on_c, 3, 68, 35
4, 270360, Note_off_c, 3, 68, 0
4, 270360, Note_on_c, 3, 65, 35
4, 270480, Note_off_c, 3, 65, 0
4, 270480, Note_on_c, 3, 61, 34
4, 270600, Note_off_c, 3, 61, 0
4, 270600, Note_on_c, 3, 65, 34
4, 270720, Control_c, 3, 64, 0
4, 270720, Note_off_c, 3, 65, 0
4, 270760, Control_c, 3, 64, 127
4, 270840, Note_on_c, 3, 68, 33
4, 270960, Note_off_c, 3, 68, 0
4, 270960, Note_on_c, 3, 72, 33
4, 271080, Note_off_c, 3, 72, 0
4, 271080, Note_on_c, 3, 68, 33
4, 271200, Note_off_c, 3, 68, 0
4, 271200, Note_on_c, 3, 63, 33
4, 271320, Note_off_c, 3, 63, 0
4, 271320, Note_on_c, 3, 68, 32
4, 271440, Control_c, 3, 64, 0
4, 271440, Note_off_c, 3, 68, 0
4, 271480, Control_c, 3, 64, 127
4, 271560, Note_on_c, 3, 70, 34
4, 271680, Note_off_c, 3, 70, 0
4, 271680, Note_on_c, 3, 73, 37
4, 271800, Note_off_c, 3, 73, 0
4, 271800, Note_on_c, 3, 70, 39
4, 271920, Note_off_c, 3, 70, 0
4, 271920, Note_on_c, 3, 63, 40
4, 272040, Note_off_c, 3, 63, 0
4, 272040, Note_on_c, 3, 70, 45
4, 272160, Control_c, 3, 64, 0
4, 272160, Note_off_c, 3, 70, 0
4, 272200, Control_c, 3, 64, 127
4, 272280, Note_on_c, 3, 68, 44
4, 272400, Note_off_c, 3, 68, 0
4, 272400, Note_on_c, 3, 72, 44
4, 272520, Note_off_c, 3, 72, 0
4, 272520, Note_on_c, 3, 68, 43
4, 272640, Note_off_c, 3, 68, 0
4, 272640, Note_on_c, 3, 65, 44
4, 272760, Note_off_c, 3, 65, 0
4, 272760, Note_on_c, 3, 68, 42
4, 272880, Control_c, 3, 64, 0
4, 272880, Note_off_c, 3, 68, 0
4, 272920, Control_c, 3, 64, 127
4, 273000, Note_on_c, 3, 65, 41
4, 273120, Note_off_c, 3, 65, 0
4, 273120, Note_on_c, 3, 68, 40
4, 273240, Note_off_c, 3, 68, 0
4, 273240, Note_on_c, 3, 65, 39
4, 273360, Note_off_c, 3, 65, 0
4, 273360, Note_on_c, 3, 61, 40
4, 273480, Note_off_c, 3, 61, 0
4, 273480, Note_on_c, 3, 65, 38
4, 273600, Control_c, 3, 64, 0
4, 273600, Note_off_c, 3, 65, 0
4, 273640, Control_c, 3, 64, 127
4, 273720, Note_on_c, 3, 56, 37
4, 273840, Note_off_c, 3, 56, 0
4, 273840, Note_on_c, 3, 60, 36
4, 273960, Note_off_c, 3, 60, 0
4, 273960, Note_on_c, 3, 56, 36
4, 274080, Note_off_c, 3, 56, 0
4, 274080, Note_on_c, 3, 51, 36
4, 274200, Note_off_c, 3, 51, 0
4, 274200, Note_on_c, 3, 56, 34
4, 274320, Control_c, 3, 64, 0
4, 274320, Note_off_c, 3, 56, 0
4, 274360, Control_c, 3, 64, 127
4, 274440, Note_on_c, 3, 55, 33
4, 274560, Note_off_c, 3, 55, 0
4, 274560, Note_on_c, 3, 61, 33
4, 274680, Note_off_c, 3, 61, 0
4, 274680, Note_on_c, 3, 55, 32
4, 274800, Note_off_c, 3, 55, 0
4, 274800, Note_on_c, 3, 51, 32
4, 274920, Note_off_c, 3, 51, 0
4, 274920, Note_on_c, 3, 55, 31
4, 275040, Control_c, 3, 64, 0
4, 275040, Note_off_c, 3, 55, 0
4, 300960, Note_on_c, 3, 60, 40
4, 301320, Note_off_c, 3, 60, 0
4, 301320, Note_on_c, 3, 61, 38
4, 301440, Note_off_c, 3, 61, 0
4, 301440, Note_on_c, 3, 60, 37
4, 301665, Note_off_c, 3, 60, 0
4, 301680, Note_on_c, 3, 60, 35
4, 302400, Note_off_c, 3, 60, 0
4, 302400, Note_on_c, 3, 61, 45
4, 303470, Note_off_c, 3, 61, 0
4, 303480, Note_on_c, 3, 60, 38
4, 303600, Note_off_c, 3, 60, 0
4, 303600, Note_on_c, 3, 59, 38
4, 303840, Note_off_c, 3, 59, 0
4, 303840, Note_on_c, 3, 60, 36
4, 305030, Note_off_c, 3, 60, 0
4, 305040, Note_on_c, 3, 58, 38
4, 305255, Note_off_c, 3, 58, 0
4, 306720, Control_c, 3, 64, 0
4, 306760, Control_c, 3, 64, 127
4, 306840, Note_on_c, 3, 56, 32
4, 306960, Note_off_c, 3, 56, 0
4, 306960, Note_on_c, 3, 60, 33
4, 307080, Note_off_c, 3, 60, 0
4, 307080, Note_on_c, 3, 56, 34
4, 307200, Note_off_c, 3, 56, 0
4, 307200, Note_on_c, 3, 53, 36
4, 307320, Note_off_c, 3, 53, 0
4, 307320, Note_on_c, 3, 56, 36
4, 307440, Control_c, 3, 64, 0
4, 307440, Note_off_c, 3, 56, 0
4, 307480, Control_c, 3, 64, 127
4, 307560, Note_on_c, 3, 54, 38
4, 307680, Note_off_c, 3, 54, 0
4, 307680, Note_on_c, 3, 57, 39
4, 307800, Note_off_c, 3, 57, 0
4, 307800, Note_on_c, 3, 54, 40
4, 307920, Note_off_c, 3, 54, 0
4, 307920, Note_on_c, 3, 51, 42
4, 308040, Note_off_c, 3, 51, 0
4, 308040, Note_on_c, 3, 54, 42
4, 308160, Control_c, 3, 64, 0
4, 308160, Note_off_c, 3, 54, 0
4, 308200, Control_c, 3, 64, 127
4, 308280, Note_on_c, 3, 53, 43
4, 308400, Note_off_c, 3, 53, 0
4, 308400, Note_on_c, 3, 57, 42
4, 308520, Note_off_c, 3, 57, 0
4, 308520, Note_on_c, 3, 53, 42
4, 308640, Note_off_c, 3, 53, 0
4, 308640, Note_on_c, 3, 49, 41
4, 308760, Note_off_c, 3, 49, 0
4, 308760, Note_on_c, 3, 53, 41
4, 308880, Control_c, 3, 64, 0
4, 308880, Note_off_c, 3, 53, 0
4, 308920, Control_c, 3, 64, 127
4, 309000, Note_on_c, 3, 53, 39
4, 309120, Note_off_c, 3, 53, 0
4, 309120, Note_on_c, 3, 58, 39
4, 309240, Note_off_c, 3, 58, 0
4, 309240, Note_on_c, 3, 53, 38
4, 309360, Control_c, 3, 64, 0
4, 309360, Note_off_c, 3, 53, 0
4, 309400, Control_c, 3, 64, 127
4, 309480, Note_on_c, 3, 53, 37
4, 309600, Control_c, 3, 64, 0
4, 309600, Note_off_c, 3, 53, 0
4, 309640, Control_c, 3, 64, 127
4, 309720, Note_on_c, 3, 49, 36
4, 309840, Note_off_c, 3, 49, 0
4, 309840, Note_on_c, 3, 58, 36
4, 309960, Note_off_c, 3, 58, 0
4, 309960, Note_on_c, 3, 49, 35
4, 310080, Note_off_c, 3, 49, 0
4, 310080, Note_on_c, 3, 46, 35
4, 310200, Note_off_c, 3, 46, 0
4, 310200, Note_on_c, 3, 49, 34
4, 310320, Control_c, 3, 64, 0
4, 310320, Note_off_c, 3, 49, 0
4, 310360, Control_c, 3, 64, 127
4, 310440, Note_on_c, 3, 49, 33
4, 310560, Note_off_c, 3, 49, 0
4, 310560, Note_on_c, 3, 58, 33
4, 310680, Note_off_c, 3, 58, 0
4, 310680, Note_on_c, 3, 49, 32
4, 310800, Control_c, 3, 64, 0
4, 310800, Note_off_c, 3, 49, 0
4, 310840, Control_c, 3, 64, 127
4, 310920, Note_on_c, 3, 56, 31
4, 311040, Control_c, 3, 64, 0
4, 311040, Note_off_c, 3, 56, 0
4, 311080, Control_c, 3, 64, 127
4, 311160, Note_on_c, 3, 53, 30
4, 311280, Note_off_c, 3, 53, 0
4, 311280, Note_on_c, 3, 56, 29
4, 311400, Note_off_c, 3, 56, 0
4, 311400, Note_on_c, 3, 53, 29
4, 311520, Note_off_c, 3, 53, 0
4, 311520, Note_on_c, 3, 48, 30
4, 311640, Note_off_c, 3, 48, 0
4, 311640, Note_on_c, 3, 53, 28
4, 311760, Control_c, 3, 64, 0
4, 311760, Note_off_c, 3, 53, 0
4, 311800, Control_c, 3, 64, 127
4, 311880, Note_on_c, 3, 52, 29
4, 312000, Note_off_c, 3, 52, 0
4, 312000, Note_on_c, 3, 55, 32
4, 312120, Note_off_c, 3, 55, 0
4, 312120, Note_on_c, 3, 52, 34
4, 312240, Note_off_c, 3, 52, 0
4, 312240, Note_on_c, 3, 48, 36
4, 312360, Note_off_c, 3, 48, 0
4, 312360, Note_on_c, 3, 52, 38
4, 312480, Control_c, 3, 64, 0
4, 312480, Note_off_c, 3, 52, 0
4, 312520, Control_c, 3, 64, 127
4, 312600, Note_on_c, 3, 53, 40
4, 312720, Note_off_c, 3, 53, 0
4, 312720, Note_on_c, 3, 56, 40
4, 312840, Note_off_c, 3, 56, 0
4, 312840, Note_on_c, 3, 53, 39
4, 312960, Note_off_c, 3, 53, 0
4, 312960, Note_on_c, 3, 49, 38
4, 313080, Note_off_c, 3, 49, 0
4, 313080, Note_on_c, 3, 53, 38
4, 313200, Control_c, 3, 64, 0
4, 313200, Note_off_c, 3, 53, 0
4, 313240, Control_c, 3, 64, 127
4, 313320, Note_on_c, 3, 53, 37
4, 313440, Note_off_c, 3, 53, 0
4, 313440, Note_on_c, 3, 56, 36
4, 313560, Note_off_c, 3, 56, 0
4, 313560, Note_on_c, 3, 53, 35
4, 313680, Note_off_c, 3, 53, 0
4, 313680, Note_on_c, 3, 49, 33
4, 313800, Note_off_c, 3, 49, 0
4, 313800, Note_on_c, 3, 53, 34
4, 313920, Control_c, 3, 64, 0
4, 313920, Note_off_c, 3, 53, 0
4, 313960, Control_c, 3, 64, 127
4, 314040, Note_on_c, 3, 52, 33
4, 314160, Note_off_c, 3, 52, 0
4, 314160, Note_on_c, 3, 55, 32
4, 314280, Note_off_c, 3, 55, 0
4, 314280, Note_on_c, 3, 52, 31
4, 314400, Note_off_c, 3, 52, 0
4, 314400, Note_on_c, 3, 48, 29
4, 314520, Note_off_c, 3, 48, 0
4, 314520, Note_on_c, 3, 52, 30
4, 314640, Control_c, 3, 64, 0
4, 314640, Note_off_c, 3, 52, 0
4, 314680, Control_c, 3, 64, 127
4, 314760, Note_on_c, 3, 52, 31
4, 314880, Note_off_c, 3, 52, 0
4, 314880, Note_on_c, 3, 55, 31
4, 315000, Note_off_c, 3, 55, 0
4, 315000, Note_on_c, 3, 52, 33
4, 315120, Note_off_c, 3, 52, 0
4, 315120, Note_on_c, 3, 60, 35
4, 315240, Note_off_c, 3, 60, 0
4, 315240, Note_on_c, 3, 55, 40
4, 315360, Control_c, 3, 64, 0
4, 315360, Note_off_c, 3, 55, 0
4, 315400, Control_c, 3, 64, 127
4, 315480, Note_on_c, 3, 62, 47
4, 315600, Note_off_c, 3, 62, 0
4, 315600, Note_on_c, 3, 65, 47
4, 315720, Note_off_c, 3, 65, 0
4, 315720, Note_on_c, 3, 62, 46
4, 315840, Note_off_c, 3, 62, 0
4, 315840, Note_on_c, 3, 59, 46
4, 315960, Note_off_c, 3, 59, 0
4, 315960, Note_on_c, 3, 62, 46
4, 316080, Control_c, 3, 64, 0
4, 316080, Note_off_c, 3, 62, 0
4, 316120, Control_c, 3, 64, 127
4, 316200, Note_on_c, 3, 62, 45
4, 316320, Note_off_c, 3, 62, 0
4, 316320, Note_on_c, 3, 68, 44
4, 316440, Note_off_c, 3, 68, 0
4, 316440, Note_on_c, 3, 62, 44
4, 316560, Note_off_c, 3, 62, 0
4, 316560, Note_on_c, 3, 59, 44
4, 316680, Note_off_c, 3, 59, 0
4, 316680, Note_on_c, 3, 62, 43
4, 316800, Control_c, 3, 64, 0
4, 316800, Note_off_c, 3, 62, 0
4, 316840, Control_c, 3, 64, 127
4, 316920, Note_on_c, 3, 64, 43
4, 317040, Note_off_c, 3, 64, 0
4, 317040, Note_on_c, 3, 67, 42
4, 317160, Note_off_c, 3, 67, 0
4, 317160, Note_on_c, 3, 64, 42
4, 317280, Note_off_c, 3, 64, 0
4, 317280, Note_on_c, 3, 58, 42
4, 317400, Note_off_c, 3, 58, 0
4, 317400, Note_on_c, 3, 67, 41
4, 317520, Control_c, 3, 64, 0
4, 317520, Note_off_c, 3, 67, 0
4, 317560, Control_c, 3, 64, 127
4, 317640, Note_on_c, 3, 61, 40
4, 317760, Note_off_c, 3, 61, 0
4, 317760, Note_on_c, 3, 67, 40
4, 317880, Note_off_c, 3, 67, 0
4, 317880, Note_on_c, 3, 61, 39
4, 318000, Note_off_c, 3, 61, 0
4, 318000, Note_on_c, 3, 58, 40
4, 318120, Note_off_c, 3, 58, 0
4, 318120, Note_on_c, 3, 67, 39
4, 318240, Control_c, 3, 64, 0
4, 318240, Note_off_c, 3, 67, 0
4, 318280, Control_c, 3, 64, 127
4, 318360, Note_on_c, 3, 60, 38
4, 318480, Note_off_c, 3, 60, 0
4, 318480, Note_on_c, 3, 65, 38
4, 318600, Note_off_c, 3, 65, 0
4, 318600, Note_on_c, 3, 60, 37
4, 318720, Note_off_c, 3, 60, 0
4, 318720, Note_on_c, 3, 56, 38
4, 318840, Note_off_c, 3, 56, 0
4, 318840, Note_on_c, 3, 60, 36
4, 318960, Control_c, 3, 64, 0
4, 318960, Note_off_c, 3, 60, 0
4, 319000, Control_c, 3, 64, 127
4, 319080, Note_on_c, 3, 61, 36
4, 319200, Note_off_c, 3, 61, 0
4, 319200, Note_on_c, 3, 65, 35
4, 319320, Note_off_c, 3, 65, 0
4, 319320, Note_on_c, 3, 61, 35
4, 319440, Note_off_c, 3, 61, 0
4, 319440, Note_on_c, 3, 58, 36
4, 319560, Note_off_c, 3, 58, 0
4, 319560, Note_on_c, 3, 61, 34
4, 319680, Control_c, 3, 64, 0
4, 319680, Note_off_c, 3, 61, 0
4, 319720, Control_c, 3, 64, 127
4, 319800, Note_on_c, 3, 65, 33
4, 319920, Note_off_c, 3, 65, 0
4, 319920, Note_on_c, 3, 68, 33
4, 320040, Note_off_c, 3, 68, 0
4, 320040, Note_on_c, 3, 65, 33
4, 320160, Note_off_c, 3, 65, 0
4, 320160, Note_on_c, 3, 60, 34
4, 320280, Note_off_c, 3, 60, 0
4, 320280, Note_on_c, 3, 65, 32
4, 320400, Control_c, 3, 64, 0
4, 320400, Note_off_c, 3, 65, 0
4, 320440, Control_c, 3, 64, 127
4, 320520, Note_on_c, 3, 67, 37
4, 320640, Note_off_c, 3, 67, 0
4, 320640, Note_on_c, 3, 70, 39
4, 320760, Note_off_c, 3, 70, 0
4, 320760, Note_on_c, 3, 67, 41
4, 320880, Note_off_c, 3, 67, 0
4, 320880, Note_on_c, 3, 70, 44
4, 321000, Note_off_c, 3, 70, 0
4, 321000, Note_on_c, 3, 67, 48
4, 321120, Control_c, 3, 64, 0
4, 321120, Note_off_c, 3, 67, 0
4, 321160, Control_c, 3, 64, 127
4, 321240, Note_on_c, 3, 60, 49
4, 321360, Note_off_c, 3, 60, 0
4, 321360, Note_on_c, 3, 65, 48
4, 321480, Note_off_c, 3, 65, 0
4, 321480, Note_on_c, 3, 60, 47
4, 321600, Note_off_c, 3, 60, 0
4, 321600, Note_on_c, 3, 56, 44
4, 321720, Note_off_c, 3, 56, 0
4, 321720, Note_on_c, 3, 60, 46
4, 321840, Control_c, 3, 64, 0
4, 321840, Note_off_c, 3, 60, 0
4, 321880, Control_c, 3, 64, 127
4, 321960, Note_on_c, 3, 61, 45
4, 322080, Note_off_c, 3, 61, 0
4, 322080, Note_on_c, 3, 65, 44
4, 322200, Note_off_c, 3, 65, 0
4, 322200, Note_on_c, 3, 61, 44
4, 322320, Note_off_c, 3, 61, 0
4, 322440, Note_on_c, 3, 61, 43
4, 322560, Control_c, 3, 64, 0
4, 322560, Note_off_c, 3, 61, 0
4, 322560, Control_c, 3, 64, 0
4, 322600, Control_c, 3, 64, 127
4, 322600, Control_c, 3, 64, 127
4, 322680, Note_on_c, 3, 65, 41
4, 322800, Note_off_c, 3, 65, 0
4, 322800, Note_on_c, 3, 68, 41
4, 322920, Note_off_c, 3, 68, 0
4, 322920, Note_on_c, 3, 65, 40
4, 323040, Note_off_c, 3, 65, 0
4, 323040, Note_on_c, 3, 60, 38
4, 323160, Note_off_c, 3, 60, 0
4, 323160, Note_on_c, 3, 65, 39
4, 323280, Control_c, 3, 64, 0
4, 323280, Note_off_c, 3, 65, 0
4, 323320, Control_c, 3, 64, 127
4, 323400, Note_on_c, 3, 51, 38
4, 323520, Note_off_c, 3, 51, 0
4, 323520, Note_on_c, 3, 57, 37
4, 323640, Note_off_c, 3, 57, 0
4, 323640, Note_on_c, 3, 51, 37
4, 323760, Note_off_c, 3, 51, 0
4, 323760, Note_on_c, 3, 48, 34
4, 323880, Note_off_c, 3, 48, 0
4, 323880, Note_on_c, 3, 51, 35
4, 324000, Control_c, 3, 64, 0
4, 324000, Note_off_c, 3, 51, 0
4, 324040, Control_c, 3, 64, 127
4, 324120, Note_on_c, 3, 53, 34
4, 324240, Note_off_c, 3, 53, 0
4, 324240, Note_on_c, 3, 59, 34
4, 324360, Note_off_c, 3, 59, 0
4, 324360, Note_on_c, 3, 53, 33
4, 324480, Note_off_c, 3, 53, 0
4, 324480, Note_on_c, 3, 49, 31
4, 324600, Note_off_c, 3, 49, 0
4, 324600, Note_on_c, 3, 53, 32
4, 324720, Control_c, 3, 64, 0
4, 324720, Note_off_c, 3, 53, 0
4, 324760, Control_c, 3, 64, 127
4, 324840, Note_on_c, 3, 53, 31
4, 324960, Note_off_c, 3, 53, 0
4, 324960, Note_on_c, 3, 56, 30
4, 325080, Note_off_c, 3, 56, 0
4, 325080, Note_on_c, 3, 53, 29
4, 325200, Control_c, 3, 64, 0
4, 325200, Note_off_c, 3, 53, 0
4, 325240, Control_c, 3, 64, 127
4, 325320, Note_on_c, 3, 53, 28
4, 325440, Control_c, 3, 64, 0
4, 325440, Note_off_c, 3, 53, 0
4, 326160, Control_c, 3, 64, 0
4, 326200, Control_c, 3, 64, 127
4, 326280, Note_on_c, 3, 52, 31
4, 326400, Note_off_c, 3, 52, 0
4, 326400, Note_on_c, 3, 58, 30
4, 326520, Note_off_c, 3, 58, 0
4, 326520, Note_on_c, 3, 52, 29
4, 326640, Note_off_c, 3, 52, 0
4, 326640, Note_on_c, 3, 48, 29
4, 326760, Note_off_c, 3, 48, 0
4, 326760, Note_on_c, 3, 52, 27
4, 326880, Control_c, 3, 64, 0
4, 326880, Note_off_c, 3, 52, 0
4, 334560, Control_c, 3, 64, 0
4, 390000, Control_c, 3, 64, 0
4, 445440, Control_c, 3, 64, 0
4, 526320, End_track
5, 0, Start_track
5, 0, Instrument_name_t, "Roland Serial MIDI Out Port A"
5, 0, Title_t, "Unnamed Track"
5, 0, Control_c, 4, 91, 100
5, 0, Control_c, 4, 93, 28
5, 0, Pitch_bend_c, 4, 8192
5, 0, Pitch_bend_c, 4, 8192
5, 0, Control_c, 4, 1, 0
5, 0, Control_c, 4, 0, 0
5, 0, Control_c, 4, 32, 0
5, 0, Program_c, 4, 0
5, 0, Control_c, 4, 10, 55
5, 0, Control_c, 4, 7, 120
5, 0, Control_c, 4, 64, 0
5, 4320, Note_on_c, 4, 53, 65
5, 4510, Note_off_c, 4, 53, 0
5, 4560, Note_on_c, 4, 53, 64
5, 4750, Note_off_c, 4, 53, 0
5, 4800, Note_on_c, 4, 53, 63
5, 4990, Note_off_c, 4, 53, 0
5, 5040, Note_on_c, 4, 53, 62
5, 5230, Note_off_c, 4, 53, 0
5, 5280, Note_on_c, 4, 53, 61
5, 5470, Note_off_c, 4, 53, 0
5, 5520, Note_on_c, 4, 53, 60
5, 5710, Note_off_c, 4, 53, 0
5, 5760, Note_on_c, 4, 53, 58
5, 5950, Note_off_c, 4, 53, 0
5, 6000, Note_on_c, 4, 53, 55
5, 6190, Note_off_c, 4, 53, 0
5, 6240, Note_on_c, 4, 53, 51
5, 6430, Note_off_c, 4, 53, 0
5, 6480, Note_on_c, 4, 53, 47
5, 6670, Note_off_c, 4, 53, 0
5, 6720, Note_on_c, 4, 53, 44
5, 6910, Note_off_c, 4, 53, 0
5, 6960, Note_on_c, 4, 53, 40
5, 7150, Note_off_c, 4, 53, 0
5, 7200, Note_on_c, 4, 53, 41
5, 7390, Note_off_c, 4, 53, 0
5, 7440, Note_on_c, 4, 53, 44
5, 7630, Note_off_c, 4, 53, 0
5, 7680, Note_on_c, 4, 53, 47
5, 7870, Note_off_c, 4, 53, 0
5, 7920, Note_on_c, 4, 53, 50
5, 8110, Note_off_c, 4, 53, 0
5, 8160, Note_on_c, 4, 53, 53
5, 8350, Note_off_c, 4, 53, 0
5, 8400, Note_on_c, 4, 53, 57
5, 8590, Note_off_c, 4, 53, 0
5, 8640, Note_on_c, 4, 53, 60
5, 8830, Note_off_c, 4, 53, 0
5, 8880, Note_on_c, 4, 53, 63
5, 9070, Note_off_c, 4, 53, 0
5, 9120, Note_on_c, 4, 53, 66
5, 9310, Note_off_c, 4, 53, 0
5, 9360, Note_on_c, 4, 53, 69
5, 9550, Note_off_c, 4, 53, 0
5, 9600, Note_on_c, 4, 53, 72
5, 9765, Note_off_c, 4, 53, 0
5, 9840, Note_on_c, 4, 53, 75
5, 9975, Note_off_c, 4, 53, 0
5, 10000, Note_on_c, 4, 52, 82
5, 10565, Note_off_c, 4, 52, 0
5, 14340, Note_on_c, 4, 55, 72
5, 14360, Note_on_c, 4, 60, 73
5, 14875, Note_off_c, 4, 60, 0
5, 14880, Note_off_c, 4, 55, 0
5, 36960, Note_on_c, 4, 58, 56
5, 37440, Note_off_c, 4, 58, 0
5, 37440, Note_on_c, 4, 57, 48
5, 37920, Note_off_c, 4, 57, 0
5, 37920, Note_on_c, 4, 55, 41
5, 38230, Note_off_c, 4, 55, 0
5, 60480, Note_on_c, 4, 62, 70
5, 60960, Note_off_c, 4, 62, 0
5, 60960, Note_on_c, 4, 64, 64
5, 61440, Note_on_c, 4, 65, 58
5, 61445, Note_off_c, 4, 64, 0
5, 61920, Note_off_c, 4, 65, 0
5, 66240, Note_on_c, 4, 69, 66
5, 66625, Note_off_c, 4, 69, 0
5, 66720, Note_on_c, 4, 69, 69
5, 67105, Note_off_c, 4, 69, 0
5, 67200, Note_on_c, 4, 69, 72
5, 67585, Note_off_c, 4, 69, 0
5, 67680, Note_on_c, 4, 69, 75
5, 67680, Note_on_c, 4, 72, 75
5, 68065, Note_off_c, 4, 69, 0
5, 68065, Note_off_c, 4, 72, 0
5, 68160, Note_on_c, 4, 72, 69
5, 68640, Note_off_c, 4, 72, 0
5, 68640, Note_on_c, 4, 71, 63
5, 69025, Note_off_c, 4, 71, 0
5, 76800, Note_on_c, 4, 60, 81
5, 77280, Note_off_c, 4, 60, 0
5, 77280, Note_on_c, 4, 59, 77
5, 77760, Note_off_c, 4, 59, 0
5, 80640, Note_on_c, 4, 64, 88
5, 81025, Note_off_c, 4, 64, 0
5, 81120, Note_on_c, 4, 52, 84
5, 81120, Note_on_c, 4, 55, 84
5, 81505, Note_off_c, 4, 52, 0
5, 81505, Note_off_c, 4, 55, 0
5, 91200, Note_on_c, 4, 67, 41
5, 91585, Note_off_c, 4, 67, 0
5, 91680, Note_on_c, 4, 65, 40
5, 92065, Note_off_c, 4, 65, 0
5, 92160, Note_on_c, 4, 64, 39
5, 92930, Note_off_c, 4, 64, 0
5, 94080, Note_on_c, 4, 67, 35
5, 94465, Note_off_c, 4, 67, 0
5, 94560, Note_on_c, 4, 65, 33
5, 94945, Note_off_c, 4, 65, 0
5, 95040, Note_on_c, 4, 64, 31
5, 95810, Note_off_c, 4, 64, 0
5, 115200, Note_on_c, 4, 64, 80
5, 115200, Note_on_c, 4, 61, 80
5, 115585, Note_off_c, 4, 64, 0
5, 115585, Note_off_c, 4, 61, 0
5, 116640, Note_on_c, 4, 62, 65
5, 116640, Note_on_c, 4, 65, 65
5, 117025, Note_off_c, 4, 62, 0
5, 117025, Note_off_c, 4, 65, 0
5, 118080, Note_on_c, 4, 60, 50
5, 118080, Note_on_c, 4, 64, 50
5, 118465, Note_off_c, 4, 60, 0
5, 118465, Note_off_c, 4, 64, 0
5, 122400, Note_on_c, 4, 57, 67
5, 122400, Note_on_c, 4, 53, 67
5, 122590, Note_off_c, 4, 57, 0
5, 122590, Note_off_c, 4, 53, 0
5, 122640, Note_on_c, 4, 53, 65
5, 122640, Note_on_c, 4, 57, 65
5, 122830, Note_off_c, 4, 53, 0
5, 122830, Note_off_c, 4, 57, 0
5, 122880, Note_on_c, 4, 53, 64
5, 122880, Note_on_c, 4, 55, 64
5, 122880, Note_on_c, 4, 58, 64
5, 123070, Note_off_c, 4, 53, 0
5, 123070, Note_off_c, 4, 55, 0
5, 123070, Note_off_c, 4, 58, 0
5, 123120, Note_on_c, 4, 53, 63
5, 123120, Note_on_c, 4, 55, 63
5, 123120, Note_on_c, 4, 58, 63
5, 123310, Note_off_c, 4, 53, 0
5, 123310, Note_off_c, 4, 55, 0
5, 123310, Note_off_c, 4, 58, 0
5, 123360, Note_on_c, 4, 53, 62
5, 123360, Note_on_c, 4, 60, 62
5, 123360, Note_on_c, 4, 57, 62
5, 123550, Note_off_c, 4, 53, 0
5, 123550, Note_off_c, 4, 60, 0
5, 123550, Note_off_c, 4, 57, 0
5, 123600, Note_on_c, 4, 60, 61
5, 123600, Note_on_c, 4, 53, 61
5, 123600, Note_on_c, 4, 57, 61
5, 123790, Note_off_c, 4, 60, 0
5, 123790, Note_off_c, 4, 53, 0
5, 123790, Note_off_c, 4, 57, 0
5, 123840, Note_on_c, 4, 53, 60
5, 123840, Note_on_c, 4, 62, 60
5, 123840, Note_on_c, 4, 58, 60
5, 124030, Note_off_c, 4, 53, 0
5, 124030, Note_off_c, 4, 62, 0
5, 124030, Note_off_c, 4, 58, 0
5, 124080, Note_on_c, 4, 53, 56
5, 124080, Note_on_c, 4, 58, 56
5, 124080, Note_on_c, 4, 62, 56
5, 124270, Note_off_c, 4, 53, 0
5, 124270, Note_off_c, 4, 58, 0
5, 124270, Note_off_c, 4, 62, 0
5, 124320, Note_on_c, 4, 58, 52
5, 124320, Note_on_c, 4, 53, 52
5, 124320, Note_on_c, 4, 62, 52
5, 124510, Note_off_c, 4, 58, 0
5, 124510, Note_off_c, 4, 53, 0
5, 124510, Note_off_c, 4, 62, 0
5, 124560, Note_on_c, 4, 53, 48
5, 124560, Note_on_c, 4, 62, 48
5, 124560, Note_on_c, 4, 58, 48
5, 124750, Note_off_c, 4, 53, 0
5, 124750, Note_off_c, 4, 62, 0
5, 124750, Note_off_c, 4, 58, 0
5, 124800, Note_on_c, 4, 58, 45
5, 124800, Note_on_c, 4, 53, 45
5, 124800, Note_on_c, 4, 62, 45
5, 124990, Note_off_c, 4, 58, 0
5, 124990, Note_off_c, 4, 53, 0
5, 124990, Note_off_c, 4, 62, 0
5, 125040, Note_on_c, 4, 53, 43
5, 125040, Note_on_c, 4, 58, 43
5, 125040, Note_on_c, 4, 62, 43
5, 125230, Note_off_c, 4, 53, 0
5, 125230, Note_off_c, 4, 58, 0
5, 125230, Note_off_c, 4, 62, 0
5, 125280, Note_on_c, 4, 55, 45
5, 125280, Note_on_c, 4, 53, 45
5, 125280, Note_on_c, 4, 64, 45
5, 125470, Note_off_c, 4, 55, 0
5, 125470, Note_off_c, 4, 53, 0
5, 125470, Note_off_c, 4, 64, 0
5, 125520, Note_on_c, 4, 53, 47
5, 125520, Note_on_c, 4, 55, 47
5, 125520, Note_on_c, 4, 64, 47
5, 125710, Note_off_c, 4, 53, 0
5, 125710, Note_off_c, 4, 55, 0
5, 125710, Note_off_c, 4, 64, 0
5, 125760, Note_on_c, 4, 53, 50
5, 125760, Note_on_c, 4, 55, 50
5, 125760, Note_on_c, 4, 64, 50
5, 125950, Note_off_c, 4, 53, 0
5, 125950, Note_off_c, 4, 55, 0
5, 125950, Note_off_c, 4, 64, 0
5, 126000, Note_on_c, 4, 53, 53
5, 126000, Note_on_c, 4, 55, 53
5, 126000, Note_on_c, 4, 64, 53
5, 126190, Note_off_c, 4, 53, 0
5, 126190, Note_off_c, 4, 55, 0
5, 126190, Note_off_c, 4, 64, 0
5, 126240, Note_on_c, 4, 53, 56
5, 126240, Note_on_c, 4, 55, 56
5, 126240, Note_on_c, 4, 64, 56
5, 126430, Note_off_c, 4, 53, 0
5, 126430, Note_off_c, 4, 55, 0
5, 126430, Note_off_c, 4, 64, 0
5, 126480, Note_on_c, 4, 55, 59
5, 126480, Note_on_c, 4, 53, 59
5, 126480, Note_on_c, 4, 64, 59
5, 126670, Note_off_c, 4, 55, 0
5, 126670, Note_off_c, 4, 53, 0
5, 126670, Note_off_c, 4, 64, 0
5, 126720, Note_on_c, 4, 57, 61
5, 126720, Note_on_c, 4, 65, 61
5, 126720, Note_on_c, 4, 53, 61
5, 126910, Note_off_c, 4, 57, 0
5, 126910, Note_off_c, 4, 65, 0
5, 126910, Note_off_c, 4, 53, 0
5, 126960, Note_on_c, 4, 53, 64
5, 126960, Note_on_c, 4, 57, 64
5, 126960, Note_on_c, 4, 65, 64
5, 127150, Note_off_c, 4, 53, 0
5, 127150, Note_off_c, 4, 57, 0
5, 127150, Note_off_c, 4, 65, 0
5, 127200, Note_on_c, 4, 53, 67
5, 127200, Note_on_c, 4, 65, 67
5, 127200, Note_on_c, 4, 57, 67
5, 127390, Note_off_c, 4, 53, 0
5, 127390, Note_off_c, 4, 65, 0
5, 127390, Note_off_c, 4, 57, 0
5, 127440, Note_on_c, 4, 53, 70
5, 127440, Note_on_c, 4, 65, 70
5, 127440, Note_on_c, 4, 57, 70
5, 127630, Note_off_c, 4, 53, 0
5, 127630, Note_off_c, 4, 65, 0
5, 127630, Note_off_c, 4, 57, 0
5, 127680, Note_on_c, 4, 65, 73
5, 127680, Note_on_c, 4, 57, 73
5, 127680, Note_on_c, 4, 53, 73
5, 127835, Note_off_c, 4, 53, 0
5, 127845, Note_off_c, 4, 57, 0
5, 127850, Note_off_c, 4, 65, 0
5, 127920, Note_on_c, 4, 53, 76
5, 127920, Note_on_c, 4, 57, 76
5, 127920, Note_on_c, 4, 65, 76
5, 128040, Note_off_c, 4, 65, 0
5, 128045, Note_off_c, 4, 53, 0
5, 128045, Note_off_c, 4, 57, 0
5, 128100, Note_on_c, 4, 55, 83
5, 128120, Note_on_c, 4, 60, 83
5, 128645, Note_off_c, 4, 55, 0
5, 128655, Note_off_c, 4, 60, 0
5, 132420, Note_on_c, 4, 55, 77
5, 132440, Note_on_c, 4, 60, 77
5, 132955, Note_off_c, 4, 60, 0
5, 132960, Note_off_c, 4, 55, 0
5, 155040, Note_on_c, 4, 58, 64
5, 155400, Note_off_c, 4, 58, 0
5, 155520, Note_on_c, 4, 57, 60
5, 156000, Note_on_c, 4, 55, 53
5, 156005, Note_off_c, 4, 57, 0
5, 156360, Note_off_c, 4, 55, 0
5, 187200, Note_on_c, 4, 55, 68
5, 187680, Note_off_c, 4, 55, 0
5, 187680, Note_on_c, 4, 57, 62
5, 188160, Note_off_c, 4, 57, 0
5, 188160, Note_on_c, 4, 58, 57
5, 188640, Note_off_c, 4, 58, 0
5, 192960, Note_on_c, 4, 74, 68
5, 193345, Note_off_c, 4, 74, 0
5, 193440, Note_on_c, 4, 74, 72
5, 193825, Note_off_c, 4, 74, 0
5, 193920, Note_on_c, 4, 74, 75
5, 194305, Note_off_c, 4, 74, 0
5, 194400, Note_on_c, 4, 74, 79
5, 194400, Note_on_c, 4, 77, 79
5, 194785, Note_off_c, 4, 74, 0
5, 194785, Note_off_c, 4, 77, 0
5, 194880, Note_on_c, 4, 77, 74
5, 195360, Note_off_c, 4, 77, 0
5, 195360, Note_on_c, 4, 76, 69
5, 195745, Note_off_c, 4, 76, 0
5, 203520, Note_on_c, 4, 53, 83
5, 204000, Note_off_c, 4, 53, 0
5, 204000, Note_on_c, 4, 52, 81
5, 204385, Note_off_c, 4, 52, 0
5, 207360, Note_on_c, 4, 57, 91
5, 207745, Note_off_c, 4, 57, 0
5, 211680, Note_on_c, 4, 56, 58
5, 212160, Note_off_c, 4, 56, 0
5, 213120, Note_on_c, 4, 61, 53
5, 214080, Note_off_c, 4, 61, 0
5, 214560, Note_on_c, 4, 60, 48
5, 214920, Note_off_c, 4, 60, 0
5, 214920, Note_on_c, 4, 61, 47
5, 215040, Note_off_c, 4, 61, 0
5, 215040, Note_on_c, 4, 60, 46
5, 215280, Note_off_c, 4, 60, 0
5, 215280, Note_on_c, 4, 60, 43
5, 215985, Note_off_c, 4, 60, 0
5, 216000, Note_on_c, 4, 61, 57
5, 217070, Note_off_c, 4, 61, 0
5, 217080, Note_on_c, 4, 60, 52
5, 217200, Note_off_c, 4, 60, 0
5, 217200, Note_on_c, 4, 59, 51
5, 217440, Note_off_c, 4, 59, 0
5, 217440, Note_on_c, 4, 60, 50
5, 218855, Note_off_c, 4, 60, 0
5, 218880, Note_on_c, 4, 61, 52
5, 219950, Note_off_c, 4, 61, 0
5, 219960, Note_on_c, 4, 60, 45
5, 220080, Note_off_c, 4, 60, 0
5, 220080, Note_on_c, 4, 59, 44
5, 220320, Note_off_c, 4, 59, 0
5, 220320, Note_on_c, 4, 60, 43
5, 221520, Note_off_c, 4, 60, 0
5, 221520, Note_on_c, 4, 58, 43
5, 221745, Note_off_c, 4, 58, 0
5, 221760, Note_on_c, 4, 58, 40
5, 222480, Note_off_c, 4, 58, 0
5, 222480, Note_on_c, 4, 56, 27
5, 222840, Note_off_c, 4, 56, 0
5, 223200, Control_c, 4, 64, 0
5, 223200, Note_on_c, 4, 51, 31
5, 223240, Control_c, 4, 64, 127
5, 223320, Note_off_c, 4, 51, 0
5, 223920, Note_on_c, 4, 51, 35
5, 223920, Control_c, 4, 64, 0
5, 223960, Control_c, 4, 64, 127
5, 224040, Note_off_c, 4, 51, 0
5, 224640, Note_on_c, 4, 51, 39
5, 224640, Control_c, 4, 64, 0
5, 224680, Control_c, 4, 64, 127
5, 224760, Note_off_c, 4, 51, 0
5, 225360, Note_on_c, 4, 51, 37
5, 225360, Control_c, 4, 64, 0
5, 225400, Control_c, 4, 64, 127
5, 225480, Note_off_c, 4, 51, 0
5, 226080, Note_on_c, 4, 53, 35
5, 226080, Control_c, 4, 64, 0
5, 226120, Control_c, 4, 64, 127
5, 226200, Note_off_c, 4, 53, 0
5, 226800, Note_on_c, 4, 50, 34
5, 226800, Control_c, 4, 64, 0
5, 226840, Control_c, 4, 64, 127
5, 226920, Note_off_c, 4, 50, 0
5, 227520, Note_on_c, 4, 51, 32
5, 227520, Control_c, 4, 64, 0
5, 227560, Control_c, 4, 64, 127
5, 227640, Note_off_c, 4, 51, 0
5, 228240, Note_on_c, 4, 51, 30
5, 228240, Control_c, 4, 64, 0
5, 228280, Control_c, 4, 64, 127
5, 228360, Note_off_c, 4, 51, 0
5, 228960, Note_on_c, 4, 52, 37
5, 228960, Control_c, 4, 64, 0
5, 229000, Control_c, 4, 64, 127
5, 229080, Note_off_c, 4, 52, 0
5, 229680, Note_on_c, 4, 52, 35
5, 229680, Control_c, 4, 64, 0
5, 229720, Control_c, 4, 64, 127
5, 229800, Note_off_c, 4, 52, 0
5, 230400, Note_on_c, 4, 51, 32
5, 230400, Control_c, 4, 64, 0
5, 230440, Control_c, 4, 64, 127
5, 230520, Note_off_c, 4, 51, 0
5, 231120, Note_on_c, 4, 51, 30
5, 231120, Control_c, 4, 64, 0
5, 231160, Control_c, 4, 64, 127
5, 231240, Note_off_c, 4, 51, 0
5, 231840, Note_on_c, 4, 62, 47
5, 231840, Control_c, 4, 64, 0
5, 231880, Control_c, 4, 64, 127
5, 231960, Note_off_c, 4, 62, 0
5, 232560, Note_on_c, 4, 62, 45
5, 232560, Control_c, 4, 64, 0
5, 232600, Control_c, 4, 64, 127
5, 232680, Note_off_c, 4, 62, 0
5, 233280, Note_on_c, 4, 61, 42
5, 233280, Control_c, 4, 64, 0
5, 233320, Control_c, 4, 64, 127
5, 233400, Note_off_c, 4, 61, 0
5, 234000, Note_on_c, 4, 61, 40
5, 234000, Control_c, 4, 64, 0
5, 234040, Control_c, 4, 64, 127
5, 234120, Note_off_c, 4, 61, 0
5, 234720, Note_on_c, 4, 60, 37
5, 234720, Control_c, 4, 64, 0
5, 234760, Control_c, 4, 64, 127
5, 234840, Note_off_c, 4, 60, 0
5, 235440, Note_on_c, 4, 61, 35
5, 235440, Control_c, 4, 64, 0
5, 235480, Control_c, 4, 64, 127
5, 235560, Note_off_c, 4, 61, 0
5, 236160, Note_on_c, 4, 63, 33
5, 236160, Control_c, 4, 64, 0
5, 236200, Control_c, 4, 64, 127
5, 236280, Note_off_c, 4, 63, 0
5, 236880, Note_on_c, 4, 63, 30
5, 236880, Control_c, 4, 64, 0
5, 236920, Control_c, 4, 64, 127
5, 237000, Note_off_c, 4, 63, 0
5, 237600, Note_on_c, 4, 65, 45
5, 237600, Control_c, 4, 64, 0
5, 237640, Control_c, 4, 64, 127
5, 237720, Note_off_c, 4, 65, 0
5, 238320, Note_on_c, 4, 61, 40
5, 238320, Control_c, 4, 64, 0
5, 238360, Control_c, 4, 64, 127
5, 238440, Note_off_c, 4, 61, 0
5, 239040, Note_on_c, 4, 51, 36
5, 239040, Control_c, 4, 64, 0
5, 239080, Control_c, 4, 64, 127
5, 239160, Note_off_c, 4, 51, 0
5, 239760, Note_on_c, 4, 51, 31
5, 239760, Control_c, 4, 64, 0
5, 239800, Control_c, 4, 64, 127
5, 239880, Note_off_c, 4, 51, 0
5, 240480, Control_c, 4, 64, 0
5, 244080, Note_on_c, 4, 51, 39
5, 244550, Note_off_c, 4, 51, 0
5, 244560, Note_on_c, 4, 49, 34
5, 244795, Note_off_c, 4, 49, 0
5, 244800, Note_on_c, 4, 49, 32
5, 245493, Note_off_c, 4, 49, 0
5, 245520, Note_on_c, 4, 48, 24
5, 245760, Note_off_c, 4, 48, 0
5, 246240, Note_on_c, 4, 56, 60
5, 246720, Note_off_c, 4, 56, 0
5, 247680, Note_on_c, 4, 61, 54
5, 248640, Note_off_c, 4, 61, 0
5, 249120, Note_on_c, 4, 60, 48
5, 249480, Note_off_c, 4, 60, 0
5, 249480, Note_on_c, 4, 61, 46
5, 249600, Note_off_c, 4, 61, 0
5, 249600, Note_on_c, 4, 60, 45
5, 249830, Note_off_c, 4, 60, 0
5, 249840, Note_on_c, 4, 60, 43
5, 250545, Note_off_c, 4, 60, 0
5, 250560, Note_on_c, 4, 61, 52
5, 251630, Note_off_c, 4, 61, 0
5, 251640, Note_on_c, 4, 60, 45
5, 251760, Note_off_c, 4, 60, 0
5, 251760, Note_on_c, 4, 59, 45
5, 252000, Note_off_c, 4, 59, 0
5, 252000, Note_on_c, 4, 60, 43
5, 253415, Note_off_c, 4, 60, 0
5, 253440, Note_on_c, 4, 61, 49
5, 254510, Note_off_c, 4, 61, 0
5, 254520, Note_on_c, 4, 60, 42
5, 254640, Note_off_c, 4, 60, 0
5, 254640, Note_on_c, 4, 59, 41
5, 254880, Note_off_c, 4, 59, 0
5, 254880, Note_on_c, 4, 60, 40
5, 256065, Note_off_c, 4, 60, 0
5, 256080, Note_on_c, 4, 58, 42
5, 256305, Note_off_c, 4, 58, 0
5, 256320, Note_on_c, 4, 58, 41
5, 257040, Note_off_c, 4, 58, 0
5, 257040, Note_on_c, 4, 56, 28
5, 257274, Note_off_c, 4, 56, 0
5, 257760, Control_c, 4, 64, 0
5, 257760, Note_on_c, 4, 51, 34
5, 257800, Control_c, 4, 64, 127
5, 257880, Note_off_c, 4, 51, 0
5, 258480, Note_on_c, 4, 51, 37
5, 258480, Control_c, 4, 64, 0
5, 258520, Control_c, 4, 64, 127
5, 258600, Note_off_c, 4, 51, 0
5, 259200, Note_on_c, 4, 51, 41
5, 259200, Control_c, 4, 64, 0
5, 259240, Control_c, 4, 64, 127
5, 259320, Note_off_c, 4, 51, 0
5, 259920, Note_on_c, 4, 51, 39
5, 259920, Control_c, 4, 64, 0
5, 259960, Control_c, 4, 64, 127
5, 260040, Note_off_c, 4, 51, 0
5, 260640, Note_on_c, 4, 53, 36
5, 260640, Control_c, 4, 64, 0
5, 260680, Control_c, 4, 64, 127
5, 260760, Note_off_c, 4, 53, 0
5, 261360, Note_on_c, 4, 50, 34
5, 261360, Control_c, 4, 64, 0
5, 261400, Control_c, 4, 64, 127
5, 261480, Note_off_c, 4, 50, 0
5, 262080, Note_on_c, 4, 51, 32
5, 262080, Control_c, 4, 64, 0
5, 262120, Control_c, 4, 64, 127
5, 262200, Note_off_c, 4, 51, 0
5, 262800, Note_on_c, 4, 51, 30
5, 262800, Control_c, 4, 64, 0
5, 262840, Control_c, 4, 64, 127
5, 262920, Note_off_c, 4, 51, 0
5, 263520, Note_on_c, 4, 52, 43
5, 263520, Control_c, 4, 64, 0
5, 263560, Control_c, 4, 64, 127
5, 263640, Note_off_c, 4, 52, 0
5, 264240, Note_on_c, 4, 52, 39
5, 264240, Control_c, 4, 64, 0
5, 264280, Control_c, 4, 64, 127
5, 264360, Note_off_c, 4, 52, 0
5, 264960, Note_on_c, 4, 51, 36
5, 264960, Control_c, 4, 64, 0
5, 265000, Control_c, 4, 64, 127
5, 265080, Note_off_c, 4, 51, 0
5, 265680, Note_on_c, 4, 51, 32
5, 265680, Control_c, 4, 64, 0
5, 265720, Control_c, 4, 64, 127
5, 265800, Note_off_c, 4, 51, 0
5, 266400, Note_on_c, 4, 59, 45
5, 266400, Control_c, 4, 64, 0
5, 266440, Control_c, 4, 64, 127
5, 266520, Note_off_c, 4, 59, 0
5, 267120, Note_on_c, 4, 59, 43
5, 267120, Control_c, 4, 64, 0
5, 267160, Control_c, 4, 64, 127
5, 267240, Note_off_c, 4, 59, 0
5, 267840, Note_on_c, 4, 61, 41
5, 267840, Control_c, 4, 64, 0
5, 267880, Control_c, 4, 64, 127
5, 267960, Note_off_c, 4, 61, 0
5, 268560, Note_on_c, 4, 61, 40
5, 268560, Control_c, 4, 64, 0
5, 268600, Control_c, 4, 64, 127
5, 268680, Note_off_c, 4, 61, 0
5, 269280, Note_on_c, 4, 60, 38
5, 269280, Control_c, 4, 64, 0
5, 269320, Control_c, 4, 64, 127
5, 269400, Note_off_c, 4, 60, 0
5, 270000, Note_on_c, 4, 61, 36
5, 270000, Control_c, 4, 64, 0
5, 270040, Control_c, 4, 64, 127
5, 270120, Note_off_c, 4, 61, 0
5, 270720, Note_on_c, 4, 63, 34
5, 270720, Control_c, 4, 64, 0
5, 270760, Control_c, 4, 64, 127
5, 270840, Note_off_c, 4, 63, 0
5, 271440, Note_on_c, 4, 63, 32
5, 271440, Control_c, 4, 64, 0
5, 271480, Control_c, 4, 64, 127
5, 271560, Note_off_c, 4, 63, 0
5, 272160, Note_on_c, 4, 65, 47
5, 272160, Control_c, 4, 64, 0
5, 272200, Control_c, 4, 64, 127
5, 272280, Note_off_c, 4, 65, 0
5, 272880, Note_on_c, 4, 61, 43
5, 272880, Control_c, 4, 64, 0
5, 272920, Control_c, 4, 64, 127
5, 273000, Note_off_c, 4, 61, 0
5, 273600, Note_on_c, 4, 51, 39
5, 273600, Control_c, 4, 64, 0
5, 273640, Control_c, 4, 64, 127
5, 273720, Note_off_c, 4, 51, 0
5, 274320, Note_on_c, 4, 51, 35
5, 274320, Control_c, 4, 64, 0
5, 274360, Control_c, 4, 64, 127
5, 274440, Note_off_c, 4, 51, 0
5, 275040, Control_c, 4, 64, 0
5, 278640, Note_on_c, 4, 51, 41
5, 279110, Note_off_c, 4, 51, 0
5, 279120, Note_on_c, 4, 49, 36
5, 279341, Note_off_c, 4, 49, 0
5, 279360, Note_on_c, 4, 49, 33
5, 280080, Note_off_c, 4, 49, 0
5, 280080, Note_on_c, 4, 48, 25
5, 280320, Note_off_c, 4, 48, 0
5, 289560, Note_on_c, 4, 62, 56
5, 289680, Note_off_c, 4, 62, 0
5, 289680, Note_on_c, 4, 61, 57
5, 289800, Note_off_c, 4, 61, 0
5, 289800, Note_on_c, 4, 62, 58
5, 289920, Note_off_c, 4, 62, 0
5, 289920, Note_on_c, 4, 63, 58
5, 290040, Note_off_c, 4, 63, 0
5, 290040, Note_on_c, 4, 62, 59
5, 290160, Note_off_c, 4, 62, 0
5, 290280, Note_on_c, 4, 60, 61
5, 290400, Note_off_c, 4, 60, 0
5, 290400, Note_on_c, 4, 59, 62
5, 290520, Note_off_c, 4, 59, 0
5, 290520, Note_on_c, 4, 60, 63
5, 290640, Note_off_c, 4, 60, 0
5, 290640, Note_on_c, 4, 62, 63
5, 290760, Note_off_c, 4, 62, 0
5, 290760, Note_on_c, 4, 60, 64
5, 290880, Note_off_c, 4, 60, 0
5, 292320, Note_on_c, 4, 51, 62
5, 292800, Note_off_c, 4, 51, 0
5, 293760, Note_on_c, 4, 56, 55
5, 293760, Note_on_c, 4, 62, 55
5, 294120, Note_off_c, 4, 62, 0
5, 294120, Note_on_c, 4, 63, 53
5, 294240, Note_off_c, 4, 63, 0
5, 294240, Note_on_c, 4, 62, 52
5, 294465, Note_off_c, 4, 62, 0
5, 294480, Note_on_c, 4, 62, 47
5, 294720, Note_off_c, 4, 56, 0
5, 294720, Note_off_c, 4, 62, 0
5, 298080, Note_on_c, 4, 56, 52
5, 298560, Note_off_c, 4, 56, 0
5, 299520, Note_on_c, 4, 61, 46
5, 300480, Note_off_c, 4, 61, 0
5, 305280, Note_on_c, 4, 58, 37
5, 306000, Note_off_c, 4, 58, 0
5, 306000, Note_on_c, 4, 56, 27
5, 306240, Note_off_c, 4, 56, 0
5, 306720, Control_c, 4, 64, 0
5, 306720, Note_on_c, 4, 53, 32
5, 306760, Control_c, 4, 64, 127
5, 306840, Note_off_c, 4, 53, 0
5, 307440, Note_on_c, 4, 51, 38
5, 307440, Control_c, 4, 64, 0
5, 307480, Control_c, 4, 64, 127
5, 307560, Note_off_c, 4, 51, 0
5, 308160, Note_on_c, 4, 49, 43
5, 308160, Control_c, 4, 64, 0
5, 308200, Control_c, 4, 64, 127
5, 308280, Note_off_c, 4, 49, 0
5, 308880, Note_on_c, 4, 49, 40
5, 308880, Control_c, 4, 64, 0
5, 308920, Control_c, 4, 64, 127
5, 309000, Note_off_c, 4, 49, 0
5, 309360, Note_on_c, 4, 48, 38
5, 309360, Control_c, 4, 64, 0
5, 309400, Control_c, 4, 64, 127
5, 309480, Note_off_c, 4, 48, 0
5, 309600, Note_on_c, 4, 46, 37
5, 309600, Control_c, 4, 64, 0
5, 309640, Control_c, 4, 64, 127
5, 309720, Note_off_c, 4, 46, 0
5, 310320, Note_on_c, 4, 46, 35
5, 310320, Control_c, 4, 64, 0
5, 310360, Control_c, 4, 64, 127
5, 310440, Note_off_c, 4, 46, 0
5, 310800, Note_on_c, 4, 47, 33
5, 310800, Control_c, 4, 64, 0
5, 310840, Control_c, 4, 64, 127
5, 310920, Note_off_c, 4, 47, 0
5, 311040, Note_on_c, 4, 48, 32
5, 311040, Control_c, 4, 64, 0
5, 311080, Control_c, 4, 64, 127
5, 311160, Note_off_c, 4, 48, 0
5, 311760, Note_on_c, 4, 48, 29
5, 311760, Control_c, 4, 64, 0
5, 311800, Control_c, 4, 64, 127
5, 311880, Note_off_c, 4, 48, 0
5, 312480, Note_on_c, 4, 49, 41
5, 312480, Control_c, 4, 64, 0
5, 312520, Control_c, 4, 64, 127
5, 312600, Note_off_c, 4, 49, 0
5, 313200, Note_on_c, 4, 49, 36
5, 313200, Control_c, 4, 64, 0
5, 313240, Control_c, 4, 64, 127
5, 313320, Note_off_c, 4, 49, 0
5, 313920, Note_on_c, 4, 48, 32
5, 313920, Control_c, 4, 64, 0
5, 313960, Control_c, 4, 64, 127
5, 314040, Note_off_c, 4, 48, 0
5, 314640, Note_on_c, 4, 48, 30
5, 314640, Control_c, 4, 64, 0
5, 314680, Control_c, 4, 64, 127
5, 314760, Note_off_c, 4, 48, 0
5, 315360, Note_on_c, 4, 59, 47
5, 315360, Control_c, 4, 64, 0
5, 315400, Control_c, 4, 64, 127
5, 315480, Note_off_c, 4, 59, 0
5, 316080, Note_on_c, 4, 59, 45
5, 316080, Control_c, 4, 64, 0
5, 316120, Control_c, 4, 64, 127
5, 316200, Note_off_c, 4, 59, 0
5, 316800, Note_on_c, 4, 58, 43
5, 316800, Control_c, 4, 64, 0
5, 316840, Control_c, 4, 64, 127
5, 316920, Note_off_c, 4, 58, 0
5, 317520, Note_on_c, 4, 58, 41
5, 317520, Control_c, 4, 64, 0
5, 317560, Control_c, 4, 64, 127
5, 317640, Note_off_c, 4, 58, 0
5, 318240, Note_on_c, 4, 56, 39
5, 318240, Control_c, 4, 64, 0
5, 318280, Control_c, 4, 64, 127
5, 318360, Note_off_c, 4, 56, 0
5, 318960, Note_on_c, 4, 58, 37
5, 318960, Control_c, 4, 64, 0
5, 319000, Control_c, 4, 64, 127
5, 319080, Note_off_c, 4, 58, 0
5, 319680, Note_on_c, 4, 60, 35
5, 319680, Control_c, 4, 64, 0
5, 319720, Control_c, 4, 64, 127
5, 319800, Note_off_c, 4, 60, 0
5, 320400, Note_on_c, 4, 60, 35
5, 320400, Control_c, 4, 64, 0
5, 320440, Control_c, 4, 64, 127
5, 320520, Note_off_c, 4, 60, 0
5, 321120, Note_on_c, 4, 56, 47
5, 321120, Control_c, 4, 64, 0
5, 321160, Control_c, 4, 64, 127
5, 321240, Note_off_c, 4, 56, 0
5, 321840, Note_on_c, 4, 58, 43
5, 321840, Control_c, 4, 64, 0
5, 321880, Control_c, 4, 64, 127
5, 321960, Note_off_c, 4, 58, 0
5, 322320, Note_on_c, 4, 58, 41
5, 322440, Note_off_c, 4, 58, 0
5, 322560, Control_c, 4, 64, 0
5, 322560, Note_on_c, 4, 60, 40
5, 322560, Control_c, 4, 64, 0
5, 322600, Control_c, 4, 64, 127
5, 322600, Control_c, 4, 64, 127
5, 322680, Note_off_c, 4, 60, 0
5, 323280, Note_on_c, 4, 48, 36
5, 323280, Control_c, 4, 64, 0
5, 323320, Control_c, 4, 64, 127
5, 323400, Note_off_c, 4, 48, 0
5, 324000, Note_on_c, 4, 49, 33
5, 324000, Control_c, 4, 64, 0
5, 324040, Control_c, 4, 64, 127
5, 324120, Note_off_c, 4, 49, 0
5, 324720, Note_on_c, 4, 50, 30
5, 324720, Control_c, 4, 64, 0
5, 324760, Control_c, 4, 64, 127
5, 324840, Note_off_c, 4, 50, 0
5, 325200, Note_on_c, 4, 49, 28
5, 325200, Control_c, 4, 64, 0
5, 325240, Control_c, 4, 64, 127
5, 325320, Note_off_c, 4, 49, 0
5, 325440, Note_on_c, 4, 48, 26
5, 325440, Control_c, 4, 64, 0
5, 325680, Note_off_c, 4, 48, 0
5, 326160, Note_on_c, 4, 48, 32
5, 326160, Control_c, 4, 64, 0
5, 326200, Control_c, 4, 64, 127
5, 326280, Note_off_c, 4, 48, 0
5, 326880, Control_c, 4, 64, 0
5, 329520, Note_on_c, 4, 57, 42
5, 329755, Note_off_c, 4, 57, 0
5, 329760, Note_on_c, 4, 58, 40
5, 329995, Note_off_c, 4, 58, 0
5, 330240, Note_on_c, 4, 62, 51
5, 330475, Note_off_c, 4, 62, 0
5, 330480, Note_on_c, 4, 60, 46
5, 330950, Note_off_c, 4, 60, 0
5, 330960, Note_on_c, 4, 58, 39
5, 331160, Note_off_c, 4, 58, 0
5, 331200, Note_on_c, 4, 53, 36
5, 331200, Note_on_c, 4, 58, 36
5, 331920, Note_off_c, 4, 58, 0
5, 331920, Note_on_c, 4, 56, 25
5, 332405, Note_off_c, 4, 53, 0
5, 332405, Note_off_c, 4, 56, 0
5, 334560, Control_c, 4, 64, 0
5, 335520, Note_on_c, 4, 72, 75
5, 335725, Note_off_c, 4, 72, 0
5, 336240, Note_on_c, 4, 72, 67
5, 336445, Note_off_c, 4, 72, 0
5, 336960, Note_on_c, 4, 72, 58
5, 337165, Note_off_c, 4, 72, 0
5, 341280, Note_on_c, 4, 60, 57
5, 341485, Note_off_c, 4, 60, 0
5, 342000, Note_on_c, 4, 60, 49
5, 342205, Note_off_c, 4, 60, 0
5, 342720, Note_on_c, 4, 60, 41
5, 342925, Note_off_c, 4, 60, 0
5, 364440, Note_on_c, 4, 67, 56
5, 364560, Note_off_c, 4, 67, 0
5, 364680, Note_on_c, 4, 67, 58
5, 364800, Note_off_c, 4, 67, 0
5, 364920, Note_on_c, 4, 67, 60
5, 365040, Note_off_c, 4, 67, 0
5, 365160, Note_on_c, 4, 67, 63
5, 365280, Note_off_c, 4, 67, 0
5, 365400, Note_on_c, 4, 67, 59
5, 365520, Note_off_c, 4, 67, 0
5, 365640, Note_on_c, 4, 67, 55
5, 365760, Note_off_c, 4, 67, 0
5, 365880, Note_on_c, 4, 67, 54
5, 366000, Note_off_c, 4, 67, 0
5, 366120, Note_on_c, 4, 67, 56
5, 366240, Note_off_c, 4, 67, 0
5, 366360, Note_on_c, 4, 67, 58
5, 366480, Note_off_c, 4, 67, 0
5, 366600, Note_on_c, 4, 67, 60
5, 366720, Note_off_c, 4, 67, 0
5, 366840, Note_on_c, 4, 67, 57
5, 366960, Note_off_c, 4, 67, 0
5, 367080, Note_on_c, 4, 67, 54
5, 367200, Note_off_c, 4, 67, 0
5, 367920, Note_on_c, 4, 69, 67
5, 368305, Note_off_c, 4, 69, 0
5, 368400, Note_on_c, 4, 67, 59
5, 368590, Note_off_c, 4, 67, 0
5, 368640, Note_on_c, 4, 65, 63
5, 369025, Note_off_c, 4, 65, 0
5, 376560, Note_on_c, 4, 69, 63
5, 376945, Note_off_c, 4, 69, 0
5, 377040, Note_on_c, 4, 67, 56
5, 377230, Note_off_c, 4, 67, 0
5, 377280, Note_on_c, 4, 65, 61
5, 377665, Note_off_c, 4, 65, 0
5, 377760, Note_on_c, 4, 64, 55
5, 377950, Note_off_c, 4, 64, 0
5, 379440, Note_on_c, 4, 57, 59
5, 379825, Note_off_c, 4, 57, 0
5, 379920, Note_on_c, 4, 55, 52
5, 380160, Note_off_c, 4, 55, 0
5, 380160, Note_on_c, 4, 53, 61
5, 380545, Note_off_c, 4, 53, 0
5, 380640, Note_on_c, 4, 52, 52
5, 380880, Note_off_c, 4, 52, 0
5, 382560, Note_on_c, 4, 58, 49
5, 382680, Note_off_c, 4, 58, 0
5, 382800, Note_on_c, 4, 58, 50
5, 382920, Note_off_c, 4, 58, 0
5, 383040, Note_on_c, 4, 57, 52
5, 383160, Note_off_c, 4, 57, 0
5, 384000, Note_on_c, 4, 60, 58
5, 384120, Note_off_c, 4, 60, 0
5, 384240, Note_on_c, 4, 60, 59
5, 384360, Note_off_c, 4, 60, 0
5, 384480, Note_on_c, 4, 59, 60
5, 384600, Note_off_c, 4, 59, 0
5, 385440, Note_on_c, 4, 65, 66
5, 385560, Note_off_c, 4, 65, 0
5, 385680, Note_on_c, 4, 65, 67
5, 385800, Note_off_c, 4, 65, 0
5, 386640, Note_on_c, 4, 62, 73
5, 386830, Note_off_c, 4, 62, 0
5, 387360, Note_on_c, 4, 64, 77
5, 387550, Note_off_c, 4, 64, 0
5, 388080, Note_on_c, 4, 62, 82
5, 388270, Note_off_c, 4, 62, 0
5, 390000, Control_c, 4, 64, 0
5, 390960, Note_on_c, 4, 72, 75
5, 391165, Note_off_c, 4, 72, 0
5, 391680, Note_on_c, 4, 72, 67
5, 391885, Note_off_c, 4, 72, 0
5, 392400, Note_on_c, 4, 72, 58
5, 392605, Note_off_c, 4, 72, 0
5, 396720, Note_on_c, 4, 60, 57
5, 396925, Note_off_c, 4, 60, 0
5, 397440, Note_on_c, 4, 60, 49
5, 397645, Note_off_c, 4, 60, 0
5, 398160, Note_on_c, 4, 60, 41
5, 398365, Note_off_c, 4, 60, 0
5, 419880, Note_on_c, 4, 67, 56
5, 420000, Note_off_c, 4, 67, 0
5, 420120, Note_on_c, 4, 67, 58
5, 420240, Note_off_c, 4, 67, 0
5, 420360, Note_on_c, 4, 67, 60
5, 420480, Note_off_c, 4, 67, 0
5, 420600, Note_on_c, 4, 67, 63
5, 420720, Note_off_c, 4, 67, 0
5, 420840, Note_on_c, 4, 67, 59
5, 420960, Note_off_c, 4, 67, 0
5, 421080, Note_on_c, 4, 67, 55
5, 421200, Note_off_c, 4, 67, 0
5, 421320, Note_on_c, 4, 67, 54
5, 421440, Note_off_c, 4, 67, 0
5, 421560, Note_on_c, 4, 67, 56
5, 421680, Note_off_c, 4, 67, 0
5, 421800, Note_on_c, 4, 67, 58
5, 421920, Note_off_c, 4, 67, 0
5, 422040, Note_on_c, 4, 67, 60
5, 422160, Note_off_c, 4, 67, 0
5, 422280, Note_on_c, 4, 67, 57
5, 422400, Note_off_c, 4, 67, 0
5, 422520, Note_on_c, 4, 67, 54
5, 422640, Note_off_c, 4, 67, 0
5, 423360, Note_on_c, 4, 69, 67
5, 423745, Note_off_c, 4, 69, 0
5, 423840, Note_on_c, 4, 67, 59
5, 424030, Note_off_c, 4, 67, 0
5, 424080, Note_on_c, 4, 65, 63
5, 424465, Note_off_c, 4, 65, 0
5, 432000, Note_on_c, 4, 69, 63
5, 432385, Note_off_c, 4, 69, 0
5, 432480, Note_on_c, 4, 67, 56
5, 432670, Note_off_c, 4, 67, 0
5, 432720, Note_on_c, 4, 65, 61
5, 433105, Note_off_c, 4, 65, 0
5, 433200, Note_on_c, 4, 64, 55
5, 433390, Note_off_c, 4, 64, 0
5, 434880, Note_on_c, 4, 57, 59
5, 435265, Note_off_c, 4, 57, 0
5, 435360, Note_on_c, 4, 55, 52
5, 435600, Note_off_c, 4, 55, 0
5, 435600, Note_on_c, 4, 53, 61
5, 435985, Note_off_c, 4, 53, 0
5, 436080, Note_on_c, 4, 52, 52
5, 436320, Note_off_c, 4, 52, 0
5, 438000, Note_on_c, 4, 58, 49
5, 438120, Note_off_c, 4, 58, 0
5, 438240, Note_on_c, 4, 58, 50
5, 438360, Note_off_c, 4, 58, 0
5, 438480, Note_on_c, 4, 57, 52
5, 438600, Note_off_c, 4, 57, 0
5, 439440, Note_on_c, 4, 60, 58
5, 439560, Note_off_c, 4, 60, 0
5, 439680, Note_on_c, 4, 60, 59
5, 439800, Note_off_c, 4, 60, 0
5, 439920, Note_on_c, 4, 59, 60
5, 440040, Note_off_c, 4, 59, 0
5, 440880, Note_on_c, 4, 65, 66
5, 441000, Note_off_c, 4, 65, 0
5, 441120, Note_on_c, 4, 65, 67
5, 441240, Note_off_c, 4, 65, 0
5, 442080, Note_on_c, 4, 62, 73
5, 442270, Note_off_c, 4, 62, 0
5, 442800, Note_on_c, 4, 64, 77
5, 442990, Note_off_c, 4, 64, 0
5, 443520, Note_on_c, 4, 62, 82
5, 443710, Note_off_c, 4, 62, 0
5, 445440, Control_c, 4, 64, 0
5, 448680, Note_on_c, 4, 50, 61
5, 448780, Note_off_c, 4, 50, 0
5, 448920, Note_on_c, 4, 52, 62
5, 449020, Note_off_c, 4, 52, 0
5, 449160, Note_on_c, 4, 54, 63
5, 449260, Note_off_c, 4, 54, 0
5, 449400, Note_on_c, 4, 55, 64
5, 449500, Note_off_c, 4, 55, 0
5, 449640, Note_on_c, 4, 57, 65
5, 449740, Note_off_c, 4, 57, 0
5, 449880, Note_on_c, 4, 58, 67
5, 449980, Note_off_c, 4, 58, 0
5, 450120, Note_on_c, 4, 60, 68
5, 450220, Note_off_c, 4, 60, 0
5, 450360, Note_on_c, 4, 57, 69
5, 450460, Note_off_c, 4, 57, 0
5, 450600, Note_on_c, 4, 62, 70
5, 450700, Note_off_c, 4, 62, 0
5, 450720, Note_on_c, 4, 58, 71
5, 451120, Note_off_c, 4, 58, 0
5, 454320, Note_on_c, 4, 58, 72
5, 454920, Note_off_c, 4, 58, 0
5, 455040, Note_on_c, 4, 57, 73
5, 455640, Note_off_c, 4, 57, 0
5, 455880, Note_on_c, 4, 48, 74
5, 455980, Note_off_c, 4, 48, 0
5, 456120, Note_on_c, 4, 50, 74
5, 456220, Note_off_c, 4, 50, 0
5, 456360, Note_on_c, 4, 52, 74
5, 456460, Note_off_c, 4, 52, 0
5, 456600, Note_on_c, 4, 53, 75
5, 456700, Note_off_c, 4, 53, 0
5, 456840, Note_on_c, 4, 55, 75
5, 456940, Note_off_c, 4, 55, 0
5, 457080, Note_on_c, 4, 57, 75
5, 457180, Note_off_c, 4, 57, 0
5, 457200, Note_on_c, 4, 55, 75
5, 457800, Note_off_c, 4, 55, 0
5, 457920, Note_on_c, 4, 53, 76
5, 458520, Note_off_c, 4, 53, 0
5, 458760, Note_on_c, 4, 45, 78
5, 458860, Note_off_c, 4, 45, 0
5, 459000, Note_on_c, 4, 47, 78
5, 459100, Note_off_c, 4, 47, 0
5, 459240, Note_on_c, 4, 49, 78
5, 459340, Note_off_c, 4, 49, 0
5, 459480, Note_on_c, 4, 50, 79
5, 459580, Note_off_c, 4, 50, 0
5, 459720, Note_on_c, 4, 52, 79
5, 459820, Note_off_c, 4, 52, 0
5, 459960, Note_on_c, 4, 53, 79
5, 460060, Note_off_c, 4, 53, 0
5, 460560, Note_on_c, 4, 67, 69
5, 460760, Note_off_c, 4, 67, 0
5, 460800, Note_on_c, 4, 65, 69
5, 460990, Note_off_c, 4, 65, 0
5, 461280, Note_on_c, 4, 65, 70
5, 461480, Note_off_c, 4, 65, 0
5, 461520, Note_on_c, 4, 64, 70
5, 461710, Note_off_c, 4, 64, 0
5, 462000, Note_on_c, 4, 64, 71
5, 462200, Note_off_c, 4, 64, 0
5, 462240, Note_on_c, 4, 62, 71
5, 462430, Note_off_c, 4, 62, 0
5, 462720, Note_on_c, 4, 62, 72
5, 462920, Note_off_c, 4, 62, 0
5, 467280, Note_on_c, 4, 72, 67
5, 467485, Note_off_c, 4, 72, 0
5, 468000, Note_on_c, 4, 72, 58
5, 468205, Note_off_c, 4, 72, 0
5, 468720, Note_on_c, 4, 72, 51
5, 468925, Note_off_c, 4, 72, 0
5, 473040, Note_on_c, 4, 60, 48
5, 473245, Note_off_c, 4, 60, 0
5, 473760, Note_on_c, 4, 60, 45
5, 473965, Note_off_c, 4, 60, 0
5, 474480, Note_on_c, 4, 60, 41
5, 474685, Note_off_c, 4, 60, 0
5, 499080, Note_on_c, 4, 72, 59
5, 499200, Note_off_c, 4, 72, 0
5, 499320, Note_on_c, 4, 72, 62
5, 499440, Note_off_c, 4, 72, 0
5, 499560, Note_on_c, 4, 72, 65
5, 499680, Note_off_c, 4, 72, 0
5, 499800, Note_on_c, 4, 72, 66
5, 499920, Note_off_c, 4, 72, 0
5, 500040, Note_on_c, 4, 72, 61
5, 500160, Note_off_c, 4, 72, 0
5, 500280, Note_on_c, 4, 72, 56
5, 500400, Note_off_c, 4, 72, 0
5, 500520, Note_on_c, 4, 72, 60
5, 500640, Note_off_c, 4, 72, 0
5, 500760, Note_on_c, 4, 72, 62
5, 500880, Note_off_c, 4, 72, 0
5, 501000, Note_on_c, 4, 72, 64
5, 501120, Note_off_c, 4, 72, 0
5, 501240, Note_on_c, 4, 72, 66
5, 501360, Note_off_c, 4, 72, 0
5, 501480, Note_on_c, 4, 72, 62
5, 501600, Note_off_c, 4, 72, 0
5, 501720, Note_on_c, 4, 72, 57
5, 501840, Note_off_c, 4, 72, 0
5, 502560, Note_on_c, 4, 74, 69
5, 503040, Note_off_c, 4, 74, 0
5, 503040, Note_on_c, 4, 72, 59
5, 503280, Note_off_c, 4, 72, 0
5, 503280, Note_on_c, 4, 70, 67
5, 503760, Note_off_c, 4, 70, 0
5, 511200, Note_on_c, 4, 62, 69
5, 511680, Note_off_c, 4, 62, 0
5, 511680, Note_on_c, 4, 60, 62
5, 511920, Note_off_c, 4, 60, 0
5, 511920, Note_on_c, 4, 58, 69
5, 512400, Note_off_c, 4, 58, 0
5, 512400, Note_on_c, 4, 57, 59
5, 512640, Note_off_c, 4, 57, 0
5, 514080, Note_on_c, 4, 50, 69
5, 514560, Note_off_c, 4, 50, 0
5, 514560, Note_on_c, 4, 48, 61
5, 514800, Note_off_c, 4, 48, 0
5, 514800, Note_on_c, 4, 46, 65
5, 515280, Note_off_c, 4, 46, 0
5, 515280, Note_on_c, 4, 45, 60
5, 515520, Note_off_c, 4, 45, 0
5, 517200, Note_on_c, 4, 63, 53
5, 517320, Note_off_c, 4, 63, 0
5, 517440, Note_on_c, 4, 63, 54
5, 517560, Note_off_c, 4, 63, 0
5, 517680, Note_on_c, 4, 62, 55
5, 517800, Note_off_c, 4, 62, 0
5, 518640, Note_on_c, 4, 65, 60
5, 518760, Note_off_c, 4, 65, 0
5, 518880, Note_on_c, 4, 65, 61
5, 519000, Note_off_c, 4, 65, 0
5, 519120, Note_on_c, 4, 64, 62
5, 519240, Note_off_c, 4, 64, 0
5, 520080, Note_on_c, 4, 70, 66
5, 520200, Note_off_c, 4, 70, 0
5, 520320, Note_on_c, 4, 70, 67
5, 520440, Note_off_c, 4, 70, 0
5, 520560, Note_on_c, 4, 69, 68
5, 520800, Note_off_c, 4, 69, 0
5, 521280, Note_on_c, 4, 70, 71
5, 521280, Note_on_c, 4, 67, 71
5, 521520, Note_off_c, 4, 70, 0
5, 521520, Note_off_c, 4, 67, 0
5, 522000, Note_on_c, 4, 69, 75
5, 522240, Note_off_c, 4, 69, 0
5, 522720, Note_on_c, 4, 52, 78
5, 522720, Note_on_c, 4, 55, 78
5, 522960, Note_off_c, 4, 52, 0
5, 522960, Note_off_c, 4, 55, 0
5, 523560, Note_on_c, 4, 53, 82
5, 523680, Note_off_c, 4, 53, 0
5, 523680, Note_on_c, 4, 52, 82
5, 523800, Note_off_c, 4, 52, 0
5, 523800, Note_on_c, 4, 53, 83
5, 523920, Note_off_c, 4, 53, 0
5, 524040, Note_on_c, 4, 53, 84
5, 524160, Note_off_c, 4, 53, 0
5, 524280, Note_on_c, 4, 53, 85
5, 524400, Note_off_c, 4, 53, 0
5, 524520, Note_on_c, 4, 53, 86
5, 524640, Note_off_c, 4, 53, 0
5, 524760, Note_on_c, 4, 48, 87
5, 524880, Note_off_c, 4, 48, 0
5, 526320, End_track
6, 0, Start_track
6, 0, Instrument_name_t, "Roland Serial MIDI Out Port A"
6, 0, Title_t, "Unnamed Track"
6, 0, Control_c, 5, 91, 100
6, 0, Control_c, 5, 64, 0
6, 0, Control_c, 5, 7, 125
6, 0, Control_c, 5, 10, 55
6, 0, Control_c, 5, 93, 28
6, 0, Pitch_bend_c, 5, 8192
6, 0, Pitch_bend_c, 5, 8192
6, 0, Control_c, 5, 1, 0
6, 0, Control_c, 5, 64, 0
6, 0, Control_c, 5, 0, 0
6, 0, Control_c, 5, 32, 0
6, 0, Program_c, 5, 0
6, 1440, Note_on_c, 5, 53, 63
6, 1440, Note_on_c, 5, 41, 63
6, 1735, Note_off_c, 5, 41, 0
6, 1740, Note_off_c, 5, 53, 0
6, 1920, Note_on_c, 5, 48, 66
6, 2220, Note_off_c, 5, 48, 0
6, 2400, Note_on_c, 5, 45, 68
6, 2705, Note_off_c, 5, 45, 0
6, 2880, Note_on_c, 5, 41, 71
6, 3180, Note_off_c, 5, 41, 0
6, 3360, Note_on_c, 5, 29, 69
6, 3665, Note_off_c, 5, 29, 0
6, 11520, Note_on_c, 5, 53, 79
6, 11760, Note_off_c, 5, 53, 0
6, 12000, Note_on_c, 5, 55, 77
6, 12240, Note_off_c, 5, 55, 0
6, 12480, Note_on_c, 5, 57, 75
6, 12720, Note_off_c, 5, 57, 0
6, 12960, Note_on_c, 5, 58, 73
6, 13152, Note_off_c, 5, 58, 0
6, 13440, Note_on_c, 5, 46, 71
6, 13632, Note_off_c, 5, 46, 0
6, 13920, Note_on_c, 5, 48, 69
6, 14112, Note_off_c, 5, 48, 0
6, 14320, Note_on_c, 5, 52, 71
6, 14880, Note_off_c, 5, 52, 0
6, 15840, Note_on_c, 5, 53, 69
6, 16020, Note_off_c, 5, 53, 0
6, 16320, Note_on_c, 5, 55, 67
6, 16500, Note_off_c, 5, 55, 0
6, 16800, Note_on_c, 5, 57, 65
6, 16980, Note_off_c, 5, 57, 0
6, 17280, Note_on_c, 5, 58, 65
6, 17472, Note_off_c, 5, 58, 0
6, 17760, Note_on_c, 5, 46, 62
6, 17952, Note_off_c, 5, 46, 0
6, 18240, Note_on_c, 5, 48, 58
6, 18432, Note_off_c, 5, 48, 0
6, 18720, Note_on_c, 5, 53, 56
6, 18720, Note_on_c, 5, 41, 56
6, 19160, Note_off_c, 5, 53, 0
6, 19165, Note_off_c, 5, 41, 0
6, 19680, Note_on_c, 5, 48, 59
6, 19680, Note_on_c, 5, 36, 59
6, 20115, Note_off_c, 5, 48, 0
6, 20120, Note_off_c, 5, 36, 0
6, 20160, Note_on_c, 5, 41, 61
6, 20160, Note_on_c, 5, 29, 61
6, 20640, Note_off_c, 5, 41, 0
6, 20640, Note_off_c, 5, 29, 0
6, 21600, Note_on_c, 5, 48, 65
6, 21600, Note_on_c, 5, 36, 65
6, 22080, Note_off_c, 5, 48, 0
6, 22080, Note_off_c, 5, 36, 0
6, 22560, Note_on_c, 5, 53, 69
6, 22560, Note_on_c, 5, 41, 69
6, 23040, Note_off_c, 5, 53, 0
6, 23040, Note_off_c, 5, 41, 0
6, 23040, Note_on_c, 5, 60, 70
6, 23040, Note_on_c, 5, 48, 70
6, 23520, Note_off_c, 5, 60, 0
6, 23520, Note_off_c, 5, 48, 0
6, 24480, Note_on_c, 5, 53, 75
6, 24480, Note_on_c, 5, 41, 75
6, 24960, Note_off_c, 5, 53, 0
6, 24960, Note_off_c, 5, 41, 0
6, 25920, Note_on_c, 5, 65, 81
6, 25920, Note_on_c, 5, 53, 81
6, 26400, Note_off_c, 5, 65, 0
6, 26400, Note_off_c, 5, 53, 0
6, 26400, Note_on_c, 5, 52, 79
6, 26400, Note_on_c, 5, 64, 79
6, 26710, Note_off_c, 5, 52, 0
6, 26710, Note_off_c, 5, 64, 0
6, 27360, Note_on_c, 5, 51, 74
6, 27360, Note_on_c, 5, 63, 74
6, 27840, Note_off_c, 5, 51, 0
6, 27840, Note_off_c, 5, 63, 0
6, 27840, Note_on_c, 5, 50, 72
6, 27840, Note_on_c, 5, 62, 72
6, 28150, Note_off_c, 5, 50, 0
6, 28150, Note_off_c, 5, 62, 0
6, 28800, Note_on_c, 5, 50, 67
6, 28800, Note_on_c, 5, 62, 67
6, 29280, Note_off_c, 5, 50, 0
6, 29280, Note_off_c, 5, 62, 0
6, 29280, Note_on_c, 5, 49, 65
6, 29280, Note_on_c, 5, 61, 65
6, 29590, Note_off_c, 5, 49, 0
6, 29590, Note_off_c, 5, 61, 0
6, 30240, Note_on_c, 5, 48, 61
6, 30240, Note_on_c, 5, 60, 61
6, 30720, Note_off_c, 5, 48, 0
6, 30720, Note_off_c, 5, 60, 0
6, 30720, Note_on_c, 5, 47, 58
6, 30720, Note_on_c, 5, 59, 58
6, 31030, Note_off_c, 5, 47, 0
6, 31030, Note_off_c, 5, 59, 0
6, 31680, Note_on_c, 5, 58, 54
6, 31680, Note_on_c, 5, 46, 54
6, 32160, Note_off_c, 5, 58, 0
6, 32160, Note_off_c, 5, 46, 0
6, 32160, Note_on_c, 5, 45, 52
6, 32160, Note_on_c, 5, 57, 52
6, 32470, Note_off_c, 5, 45, 0
6, 32470, Note_off_c, 5, 57, 0
6, 33120, Note_on_c, 5, 46, 49
6, 33120, Note_on_c, 5, 58, 49
6, 33600, Note_off_c, 5, 46, 0
6, 33600, Note_off_c, 5, 58, 0
6, 36960, Note_on_c, 5, 46, 56
6, 37440, Note_off_c, 5, 46, 0
6, 37440, Note_on_c, 5, 48, 48
6, 38235, Note_off_c, 5, 48, 0
6, 38880, Note_on_c, 5, 48, 69
6, 38880, Note_on_c, 5, 36, 69
6, 39120, Note_off_c, 5, 48, 0
6, 39120, Note_off_c, 5, 36, 0
6, 39360, Note_on_c, 5, 52, 71
6, 39360, Note_on_c, 5, 40, 71
6, 39600, Note_off_c, 5, 52, 0
6, 39600, Note_off_c, 5, 40, 0
6, 39840, Note_on_c, 5, 55, 73
6, 39840, Note_on_c, 5, 43, 73
6, 40080, Note_off_c, 5, 55, 0
6, 40080, Note_off_c, 5, 43, 0
6, 41760, Note_on_c, 5, 67, 50
6, 41880, Note_off_c, 5, 67, 0
6, 41880, Note_on_c, 5, 69, 50
6, 42000, Note_off_c, 5, 69, 0
6, 42000, Note_on_c, 5, 67, 49
6, 42120, Note_off_c, 5, 67, 0
6, 42120, Note_on_c, 5, 64, 49
6, 42240, Note_off_c, 5, 64, 0
6, 42240, Note_on_c, 5, 67, 49
6, 42360, Note_off_c, 5, 67, 0
6, 42360, Note_on_c, 5, 69, 48
6, 42480, Note_off_c, 5, 69, 0
6, 42480, Note_on_c, 5, 67, 48
6, 42600, Note_off_c, 5, 67, 0
6, 42600, Note_on_c, 5, 64, 47
6, 42720, Note_off_c, 5, 64, 0
6, 42720, Note_on_c, 5, 65, 47
6, 42840, Note_off_c, 5, 65, 0
6, 42840, Note_on_c, 5, 67, 47
6, 42960, Note_off_c, 5, 67, 0
6, 42960, Note_on_c, 5, 65, 46
6, 43080, Note_off_c, 5, 65, 0
6, 43080, Note_on_c, 5, 62, 46
6, 43200, Note_off_c, 5, 62, 0
6, 43200, Note_on_c, 5, 64, 45
6, 43440, Note_off_c, 5, 64, 0
6, 43440, Note_on_c, 5, 55, 44
6, 43680, Note_off_c, 5, 55, 0
6, 43680, Note_on_c, 5, 60, 42
6, 43920, Note_off_c, 5, 60, 0
6, 43920, Note_on_c, 5, 55, 41
6, 44160, Note_off_c, 5, 55, 0
6, 44160, Note_on_c, 5, 59, 39
6, 44580, Note_off_c, 5, 59, 0
6, 44640, Note_on_c, 5, 43, 66
6, 44640, Note_on_c, 5, 31, 66
6, 44880, Note_off_c, 5, 43, 0
6, 44880, Note_off_c, 5, 31, 0
6, 45120, Note_on_c, 5, 47, 68
6, 45120, Note_on_c, 5, 35, 68
6, 45360, Note_off_c, 5, 47, 0
6, 45360, Note_off_c, 5, 35, 0
6, 45600, Note_on_c, 5, 50, 71
6, 45600, Note_on_c, 5, 38, 71
6, 45840, Note_off_c, 5, 50, 0
6, 45840, Note_off_c, 5, 38, 0
6, 47520, Note_on_c, 5, 65, 43
6, 47640, Note_off_c, 5, 65, 0
6, 47640, Note_on_c, 5, 67, 42
6, 47760, Note_off_c, 5, 67, 0
6, 47760, Note_on_c, 5, 65, 42
6, 47880, Note_off_c, 5, 65, 0
6, 47880, Note_on_c, 5, 62, 41
6, 48000, Note_off_c, 5, 62, 0
6, 48000, Note_on_c, 5, 65, 41
6, 48120, Note_off_c, 5, 65, 0
6, 48120, Note_on_c, 5, 67, 40
6, 48240, Note_off_c, 5, 67, 0
6, 48240, Note_on_c, 5, 65, 40
6, 48360, Note_off_c, 5, 65, 0
6, 48360, Note_on_c, 5, 62, 39
6, 48480, Note_off_c, 5, 62, 0
6, 48480, Note_on_c, 5, 64, 39
6, 48600, Note_off_c, 5, 64, 0
6, 48600, Note_on_c, 5, 65, 38
6, 48720, Note_off_c, 5, 65, 0
6, 48720, Note_on_c, 5, 64, 38
6, 48840, Note_off_c, 5, 64, 0
6, 48840, Note_on_c, 5, 60, 37
6, 48960, Note_off_c, 5, 60, 0
6, 48960, Note_on_c, 5, 65, 37
6, 49200, Note_off_c, 5, 65, 0
6, 49200, Note_on_c, 5, 62, 35
6, 49440, Note_off_c, 5, 62, 0
6, 49440, Note_on_c, 5, 59, 33
6, 49680, Note_off_c, 5, 59, 0
6, 49680, Note_on_c, 5, 55, 31
6, 49920, Note_off_c, 5, 55, 0
6, 49920, Note_on_c, 5, 60, 29
6, 50340, Note_off_c, 5, 60, 0
6, 50400, Note_on_c, 5, 52, 50
6, 50400, Note_on_c, 5, 40, 50
6, 50785, Note_off_c, 5, 52, 0
6, 50785, Note_off_c, 5, 40, 0
6, 51840, Note_on_c, 5, 53, 42
6, 51840, Note_on_c, 5, 41, 42
6, 52225, Note_off_c, 5, 53, 0
6, 52225, Note_off_c, 5, 41, 0
6, 53280, Note_on_c, 5, 54, 55
6, 53280, Note_on_c, 5, 42, 55
6, 53665, Note_off_c, 5, 54, 0
6, 53665, Note_off_c, 5, 42, 0
6, 54720, Note_on_c, 5, 43, 46
6, 54720, Note_on_c, 5, 55, 46
6, 55105, Note_off_c, 5, 43, 0
6, 55105, Note_off_c, 5, 55, 0
6, 56160, Note_on_c, 5, 56, 60
6, 56160, Note_on_c, 5, 44, 60
6, 56545, Note_off_c, 5, 56, 0
6, 56545, Note_off_c, 5, 44, 0
6, 57600, Note_on_c, 5, 45, 64
6, 57600, Note_on_c, 5, 57, 64
6, 57985, Note_off_c, 5, 45, 0
6, 57985, Note_off_c, 5, 57, 0
6, 59040, Note_on_c, 5, 65, 68
6, 59425, Note_off_c, 5, 65, 0
6, 59680, Note_on_c, 5, 64, 69
6, 59840, Note_off_c, 5, 64, 0
6, 59840, Note_on_c, 5, 65, 70
6, 59975, Note_off_c, 5, 65, 0
6, 60160, Note_on_c, 5, 63, 70
6, 60320, Note_off_c, 5, 63, 0
6, 60320, Note_on_c, 5, 64, 71
6, 60440, Note_off_c, 5, 64, 0
6, 60480, Note_on_c, 5, 53, 70
6, 60960, Note_off_c, 5, 53, 0
6, 60960, Note_on_c, 5, 55, 64
6, 61920, Control_c, 5, 64, 127
6, 61920, Note_on_c, 5, 48, 52
6, 61927, Note_off_c, 5, 55, 0
6, 62040, Note_off_c, 5, 48, 0
6, 62040, Note_on_c, 5, 52, 54
6, 62160, Note_off_c, 5, 52, 0
6, 62160, Note_on_c, 5, 55, 54
6, 62280, Note_off_c, 5, 55, 0
6, 62280, Note_on_c, 5, 60, 55
6, 62400, Note_off_c, 5, 60, 0
6, 62400, Note_on_c, 5, 64, 55
6, 62640, Control_c, 5, 64, 0
6, 62640, Note_off_c, 5, 64, 0
6, 63360, Note_on_c, 5, 50, 58
6, 63360, Control_c, 5, 64, 127
6, 63480, Note_off_c, 5, 50, 0
6, 63480, Note_on_c, 5, 53, 58
6, 63600, Note_off_c, 5, 53, 0
6, 63600, Note_on_c, 5, 59, 59
6, 63720, Note_off_c, 5, 59, 0
6, 63720, Note_on_c, 5, 62, 59
6, 63840, Note_off_c, 5, 62, 0
6, 63840, Note_on_c, 5, 65, 59
6, 64080, Control_c, 5, 64, 0
6, 64080, Note_off_c, 5, 65, 0
6, 64800, Note_on_c, 5, 52, 62
6, 64800, Control_c, 5, 64, 127
6, 64920, Note_off_c, 5, 52, 0
6, 64920, Note_on_c, 5, 55, 63
6, 65040, Note_off_c, 5, 55, 0
6, 65040, Note_on_c, 5, 60, 63
6, 65160, Note_off_c, 5, 60, 0
6, 65160, Note_on_c, 5, 64, 63
6, 65280, Note_off_c, 5, 64, 0
6, 65280, Note_on_c, 5, 67, 64
6, 65520, Control_c, 5, 64, 0
6, 65520, Note_off_c, 5, 67, 0
6, 66240, Note_on_c, 5, 65, 66
6, 66625, Note_off_c, 5, 65, 0
6, 66720, Note_on_c, 5, 65, 69
6, 67105, Note_off_c, 5, 65, 0
6, 67200, Note_on_c, 5, 65, 72
6, 67585, Note_off_c, 5, 65, 0
6, 67680, Note_on_c, 5, 65, 75
6, 68065, Note_off_c, 5, 65, 0
6, 68160, Note_on_c, 5, 67, 69
6, 69033, Note_off_c, 5, 67, 0
6, 69120, Control_c, 5, 64, 127
6, 69120, Note_on_c, 5, 36, 58
6, 69240, Note_on_c, 5, 40, 58
6, 69300, Note_off_c, 5, 36, 0
6, 69360, Note_on_c, 5, 43, 59
6, 69420, Note_off_c, 5, 40, 0
6, 69480, Note_on_c, 5, 48, 59
6, 69540, Note_off_c, 5, 43, 0
6, 69600, Note_on_c, 5, 52, 60
6, 69660, Note_off_c, 5, 48, 0
6, 69790, Note_off_c, 5, 52, 0
6, 69840, Control_c, 5, 64, 0
6, 70560, Note_on_c, 5, 38, 63
6, 70560, Control_c, 5, 64, 127
6, 70655, Note_off_c, 5, 38, 0
6, 70680, Note_on_c, 5, 41, 63
6, 70775, Note_off_c, 5, 41, 0
6, 70800, Note_on_c, 5, 47, 64
6, 70895, Note_off_c, 5, 47, 0
6, 70920, Note_on_c, 5, 50, 64
6, 71015, Note_off_c, 5, 50, 0
6, 71040, Note_on_c, 5, 53, 65
6, 71230, Note_off_c, 5, 53, 0
6, 71280, Control_c, 5, 64, 0
6, 72000, Note_on_c, 5, 40, 68
6, 72000, Control_c, 5, 64, 127
6, 72095, Note_off_c, 5, 40, 0
6, 72120, Note_on_c, 5, 43, 68
6, 72215, Note_off_c, 5, 43, 0
6, 72240, Note_on_c, 5, 48, 69
6, 72335, Note_off_c, 5, 48, 0
6, 72360, Note_on_c, 5, 52, 69
6, 72455, Note_off_c, 5, 52, 0
6, 72480, Note_on_c, 5, 55, 70
6, 72670, Note_off_c, 5, 55, 0
6, 72720, Control_c, 5, 64, 0
6, 73440, Note_on_c, 5, 41, 73
6, 73440, Control_c, 5, 64, 127
6, 73535, Note_off_c, 5, 41, 0
6, 73560, Note_on_c, 5, 45, 72
6, 73655, Note_off_c, 5, 45, 0
6, 73680, Note_on_c, 5, 50, 73
6, 73775, Note_off_c, 5, 50, 0
6, 73800, Note_on_c, 5, 53, 73
6, 73895, Note_off_c, 5, 53, 0
6, 73920, Control_c, 5, 64, 127
6, 73920, Note_on_c, 5, 57, 74
6, 74110, Note_off_c, 5, 57, 0
6, 74160, Control_c, 5, 64, 0
6, 74400, Control_c, 5, 64, 127
6, 74520, Note_on_c, 5, 53, 77
6, 74615, Note_off_c, 5, 53, 0
6, 74640, Control_c, 5, 64, 0
6, 74640, Note_on_c, 5, 57, 77
6, 74735, Note_off_c, 5, 57, 0
6, 74760, Note_on_c, 5, 62, 78
6, 74855, Note_off_c, 5, 62, 0
6, 74880, Control_c, 5, 64, 127
6, 74880, Note_on_c, 5, 65, 79
6, 75070, Note_off_c, 5, 65, 0
6, 75120, Control_c, 5, 64, 0
6, 75360, Control_c, 5, 64, 127
6, 75480, Note_on_c, 5, 65, 82
6, 75575, Note_off_c, 5, 65, 0
6, 75600, Control_c, 5, 64, 0
6, 75600, Note_on_c, 5, 69, 82
6, 75695, Note_off_c, 5, 69, 0
6, 75720, Note_on_c, 5, 74, 83
6, 75815, Note_off_c, 5, 74, 0
6, 75840, Note_on_c, 5, 77, 83
6, 76030, Note_off_c, 5, 77, 0
6, 76080, Control_c, 5, 64, 0
6, 76800, Note_on_c, 5, 55, 81
6, 77760, Note_off_c, 5, 55, 0
6, 77760, Note_on_c, 5, 60, 70
6, 77940, Note_off_c, 5, 60, 0
6, 78240, Note_on_c, 5, 60, 73
6, 78420, Note_off_c, 5, 60, 0
6, 78720, Note_on_c, 5, 55, 76
6, 78900, Note_off_c, 5, 55, 0
6, 79200, Note_on_c, 5, 60, 79
6, 79380, Note_off_c, 5, 60, 0
6, 79680, Note_on_c, 5, 60, 82
6, 79860, Note_off_c, 5, 60, 0
6, 80160, Note_on_c, 5, 55, 85
6, 80340, Note_off_c, 5, 55, 0
6, 80640, Note_on_c, 5, 60, 88
6, 81025, Note_off_c, 5, 60, 0
6, 81120, Note_on_c, 5, 48, 84
6, 81505, Note_off_c, 5, 48, 0
6, 82240, Note_on_c, 5, 48, 63
6, 82345, Note_off_c, 5, 48, 0
6, 82400, Note_on_c, 5, 47, 62
6, 82505, Note_off_c, 5, 47, 0
6, 82560, Note_on_c, 5, 48, 62
6, 82665, Note_off_c, 5, 48, 0
6, 82720, Note_on_c, 5, 52, 61
6, 82825, Note_off_c, 5, 52, 0
6, 82880, Note_on_c, 5, 51, 61
6, 82985, Note_off_c, 5, 51, 0
6, 83040, Note_on_c, 5, 52, 61
6, 83145, Note_off_c, 5, 52, 0
6, 83200, Note_on_c, 5, 55, 60
6, 83305, Note_off_c, 5, 55, 0
6, 83360, Note_on_c, 5, 54, 60
6, 83465, Note_off_c, 5, 54, 0
6, 83520, Note_on_c, 5, 55, 60
6, 84000, Note_off_c, 5, 55, 0
6, 85120, Note_on_c, 5, 55, 56
6, 85225, Note_off_c, 5, 55, 0
6, 85280, Note_on_c, 5, 54, 55
6, 85385, Note_off_c, 5, 54, 0
6, 85440, Note_on_c, 5, 55, 55
6, 85545, Note_off_c, 5, 55, 0
6, 85600, Note_on_c, 5, 59, 55
6, 85705, Note_off_c, 5, 59, 0
6, 85760, Note_on_c, 5, 58, 54
6, 85865, Note_off_c, 5, 58, 0
6, 85920, Note_on_c, 5, 59, 54
6, 86025, Note_off_c, 5, 59, 0
6, 86080, Note_on_c, 5, 62, 53
6, 86185, Note_off_c, 5, 62, 0
6, 86240, Note_on_c, 5, 61, 53
6, 86345, Note_off_c, 5, 61, 0
6, 86400, Note_on_c, 5, 62, 53
6, 86880, Note_off_c, 5, 62, 0
6, 88320, Note_on_c, 5, 60, 48
6, 88610, Note_off_c, 5, 60, 0
6, 88680, Note_on_c, 5, 55, 47
6, 88775, Note_off_c, 5, 55, 0
6, 88800, Note_on_c, 5, 57, 47
6, 89090, Note_off_c, 5, 57, 0
6, 89160, Note_on_c, 5, 52, 46
6, 89255, Note_off_c, 5, 52, 0
6, 89280, Note_on_c, 5, 53, 46
6, 90720, Note_off_c, 5, 53, 0
6, 90720, Note_on_c, 5, 52, 42
6, 91105, Note_off_c, 5, 52, 0
6, 91200, Note_on_c, 5, 64, 41
6, 91585, Note_off_c, 5, 64, 0
6, 91680, Note_on_c, 5, 62, 40
6, 92065, Note_off_c, 5, 62, 0
6, 92160, Note_on_c, 5, 61, 39
6, 92930, Note_off_c, 5, 61, 0
6, 94080, Note_on_c, 5, 64, 35
6, 94465, Note_off_c, 5, 64, 0
6, 94560, Note_on_c, 5, 62, 33
6, 94945, Note_off_c, 5, 62, 0
6, 95040, Note_on_c, 5, 61, 31
6, 95810, Note_off_c, 5, 61, 0
6, 99360, Note_on_c, 5, 43, 73
6, 99360, Note_on_c, 5, 31, 73
6, 99552, Note_off_c, 5, 43, 0
6, 99552, Note_off_c, 5, 31, 0
6, 99840, Note_on_c, 5, 34, 74
6, 99840, Note_on_c, 5, 46, 74
6, 100032, Note_off_c, 5, 34, 0
6, 100032, Note_off_c, 5, 46, 0
6, 100320, Note_on_c, 5, 50, 74
6, 100320, Note_on_c, 5, 38, 74
6, 100512, Note_off_c, 5, 50, 0
6, 100512, Note_off_c, 5, 38, 0
6, 102240, Note_on_c, 5, 48, 78
6, 102240, Note_on_c, 5, 36, 78
6, 102432, Note_off_c, 5, 48, 0
6, 102432, Note_off_c, 5, 36, 0
6, 102720, Note_on_c, 5, 52, 78
6, 102720, Note_on_c, 5, 40, 78
6, 102912, Note_off_c, 5, 52, 0
6, 102912, Note_off_c, 5, 40, 0
6, 103200, Note_on_c, 5, 55, 79
6, 103200, Note_on_c, 5, 43, 79
6, 103392, Note_off_c, 5, 55, 0
6, 103392, Note_off_c, 5, 43, 0
6, 105120, Note_on_c, 5, 41, 82
6, 105120, Note_on_c, 5, 29, 82
6, 105312, Note_off_c, 5, 41, 0
6, 105312, Note_off_c, 5, 29, 0
6, 105600, Note_on_c, 5, 45, 83
6, 105600, Note_on_c, 5, 33, 83
6, 105792, Note_off_c, 5, 45, 0
6, 105792, Note_off_c, 5, 33, 0
6, 106080, Note_on_c, 5, 48, 84
6, 106080, Note_on_c, 5, 36, 84
6, 106272, Note_off_c, 5, 48, 0
6, 106272, Note_off_c, 5, 36, 0
6, 108000, Note_on_c, 5, 58, 87
6, 108000, Note_on_c, 5, 46, 87
6, 108385, Note_off_c, 5, 58, 0
6, 108385, Note_off_c, 5, 46, 0
6, 108480, Note_on_c, 5, 64, 68
6, 108480, Note_on_c, 5, 61, 68
6, 108960, Note_off_c, 5, 64, 0
6, 108960, Note_off_c, 5, 61, 0
6, 108960, Note_on_c, 5, 62, 70
6, 108960, Note_on_c, 5, 65, 70
6, 109320, Note_off_c, 5, 62, 0
6, 109320, Note_off_c, 5, 65, 0
6, 109440, Note_on_c, 5, 45, 90
6, 109440, Note_on_c, 5, 57, 90
6, 109825, Note_off_c, 5, 45, 0
6, 109825, Note_off_c, 5, 57, 0
6, 109920, Note_on_c, 5, 61, 70
6, 109920, Note_on_c, 5, 64, 70
6, 110400, Note_off_c, 5, 61, 0
6, 110400, Note_off_c, 5, 64, 0
6, 110400, Note_on_c, 5, 62, 72
6, 110400, Note_on_c, 5, 65, 72
6, 110760, Note_off_c, 5, 62, 0
6, 110760, Note_off_c, 5, 65, 0
6, 110880, Note_on_c, 5, 44, 92
6, 110880, Note_on_c, 5, 56, 92
6, 111265, Note_off_c, 5, 44, 0
6, 111265, Note_off_c, 5, 56, 0
6, 111360, Note_on_c, 5, 61, 73
6, 111360, Note_on_c, 5, 64, 73
6, 111840, Note_off_c, 5, 61, 0
6, 111840, Note_off_c, 5, 64, 0
6, 111840, Note_on_c, 5, 65, 75
6, 111840, Note_on_c, 5, 62, 75
6, 112200, Note_off_c, 5, 65, 0
6, 112200, Note_off_c, 5, 62, 0
6, 112320, Note_on_c, 5, 45, 93
6, 112320, Note_on_c, 5, 57, 93
6, 115145, Note_off_c, 5, 45, 0
6, 115145, Note_off_c, 5, 57, 0
6, 115200, Note_on_c, 5, 57, 80
6, 115585, Note_off_c, 5, 57, 0
6, 116640, Note_on_c, 5, 56, 65
6, 117025, Note_off_c, 5, 56, 0
6, 118080, Note_on_c, 5, 55, 50
6, 118465, Note_off_c, 5, 55, 0
6, 119520, Note_on_c, 5, 53, 64
6, 119520, Note_on_c, 5, 41, 64
6, 119905, Note_off_c, 5, 53, 0
6, 119905, Note_off_c, 5, 41, 0
6, 120000, Note_on_c, 5, 48, 67
6, 120385, Note_off_c, 5, 48, 0
6, 120480, Note_on_c, 5, 45, 69
6, 120865, Note_off_c, 5, 45, 0
6, 120960, Note_on_c, 5, 41, 73
6, 121345, Note_off_c, 5, 41, 0
6, 121440, Note_on_c, 5, 29, 71
6, 121825, Note_off_c, 5, 29, 0
6, 128080, Note_on_c, 5, 52, 83
6, 128640, Note_off_c, 5, 52, 0
6, 129600, Note_on_c, 5, 53, 80
6, 129780, Note_off_c, 5, 53, 0
6, 130080, Note_on_c, 5, 55, 78
6, 130260, Note_off_c, 5, 55, 0
6, 130560, Note_on_c, 5, 57, 76
6, 130740, Note_off_c, 5, 57, 0
6, 131040, Note_on_c, 5, 58, 75
6, 131232, Note_off_c, 5, 58, 0
6, 131520, Note_on_c, 5, 46, 73
6, 131712, Note_off_c, 5, 46, 0
6, 132000, Note_on_c, 5, 48, 71
6, 132192, Note_off_c, 5, 48, 0
6, 132400, Note_on_c, 5, 52, 77
6, 132960, Note_off_c, 5, 52, 0
6, 133920, Note_on_c, 5, 53, 71
6, 134100, Note_off_c, 5, 53, 0
6, 134400, Note_on_c, 5, 55, 69
6, 134580, Note_off_c, 5, 55, 0
6, 134880, Note_on_c, 5, 57, 67
6, 135060, Note_off_c, 5, 57, 0
6, 135360, Note_on_c, 5, 58, 65
6, 135552, Note_off_c, 5, 58, 0
6, 135840, Note_on_c, 5, 46, 63
6, 136032, Note_off_c, 5, 46, 0
6, 136320, Note_on_c, 5, 48, 61
6, 136512, Note_off_c, 5, 48, 0
6, 136800, Note_on_c, 5, 41, 60
6, 136800, Note_on_c, 5, 53, 60
6, 137280, Note_off_c, 5, 41, 0
6, 137280, Note_off_c, 5, 53, 0
6, 137760, Note_on_c, 5, 36, 63
6, 137760, Note_on_c, 5, 48, 63
6, 138240, Note_off_c, 5, 36, 0
6, 138240, Note_off_c, 5, 48, 0
6, 138240, Note_on_c, 5, 29, 64
6, 138240, Note_on_c, 5, 41, 64
6, 138720, Note_off_c, 5, 29, 0
6, 138720, Note_off_c, 5, 41, 0
6, 139680, Note_on_c, 5, 36, 68
6, 139680, Note_on_c, 5, 48, 68
6, 140160, Note_off_c, 5, 36, 0
6, 140160, Note_off_c, 5, 48, 0
6, 140640, Note_on_c, 5, 41, 71
6, 140640, Note_on_c, 5, 53, 71
6, 141120, Note_off_c, 5, 41, 0
6, 141120, Note_off_c, 5, 53, 0
6, 141120, Note_on_c, 5, 60, 72
6, 141120, Note_on_c, 5, 48, 72
6, 141600, Note_off_c, 5, 60, 0
6, 141600, Note_off_c, 5, 48, 0
6, 142560, Note_on_c, 5, 41, 76
6, 142560, Note_on_c, 5, 53, 76
6, 143040, Note_off_c, 5, 41, 0
6, 143040, Note_off_c, 5, 53, 0
6, 144000, Note_on_c, 5, 53, 83
6, 144000, Note_on_c, 5, 65, 83
6, 144480, Note_off_c, 5, 53, 0
6, 144480, Note_off_c, 5, 65, 0
6, 144480, Note_on_c, 5, 64, 81
6, 144480, Note_on_c, 5, 52, 81
6, 144790, Note_off_c, 5, 64, 0
6, 144790, Note_off_c, 5, 52, 0
6, 145440, Note_on_c, 5, 85, 76
6, 145920, Note_off_c, 5, 85, 0
6, 145920, Note_on_c, 5, 86, 73
6, 146280, Note_off_c, 5, 86, 0
6, 146880, Note_on_c, 5, 62, 69
6, 146880, Note_on_c, 5, 50, 69
6, 147360, Note_off_c, 5, 62, 0
6, 147360, Note_off_c, 5, 50, 0
6, 147360, Note_on_c, 5, 60, 66
6, 147360, Note_on_c, 5, 48, 66
6, 147670, Note_off_c, 5, 60, 0
6, 147670, Note_off_c, 5, 48, 0
6, 148320, Note_on_c, 5, 81, 61
6, 148800, Note_off_c, 5, 81, 0
6, 148800, Note_on_c, 5, 82, 59
6, 149160, Note_off_c, 5, 82, 0
6, 149760, Note_on_c, 5, 58, 54
6, 149760, Note_on_c, 5, 46, 54
6, 150240, Note_off_c, 5, 58, 0
6, 150240, Note_off_c, 5, 46, 0
6, 150240, Note_on_c, 5, 45, 52
6, 150240, Note_on_c, 5, 57, 52
6, 150550, Note_off_c, 5, 45, 0
6, 150550, Note_off_c, 5, 57, 0
6, 151200, Note_on_c, 5, 58, 48
6, 151200, Note_on_c, 5, 46, 48
6, 151560, Note_off_c, 5, 58, 0
6, 151560, Note_off_c, 5, 46, 0
6, 155040, Note_on_c, 5, 46, 64
6, 155400, Note_off_c, 5, 46, 0
6, 155520, Note_on_c, 5, 48, 60
6, 156360, Note_off_c, 5, 48, 0
6, 156960, Note_on_c, 5, 41, 67
6, 156960, Note_on_c, 5, 29, 67
6, 157194, Note_off_c, 5, 41, 0
6, 157194, Note_off_c, 5, 29, 0
6, 157440, Note_on_c, 5, 45, 70
6, 157440, Note_on_c, 5, 33, 70
6, 157674, Note_off_c, 5, 45, 0
6, 157674, Note_off_c, 5, 33, 0
6, 157920, Note_on_c, 5, 36, 73
6, 157920, Note_on_c, 5, 48, 73
6, 158154, Note_off_c, 5, 36, 0
6, 158154, Note_off_c, 5, 48, 0
6, 159840, Note_on_c, 5, 81, 55
6, 159960, Note_off_c, 5, 81, 0
6, 159960, Note_on_c, 5, 82, 55
6, 160080, Note_off_c, 5, 82, 0
6, 160080, Note_on_c, 5, 81, 55
6, 160200, Note_off_c, 5, 81, 0
6, 160200, Note_on_c, 5, 77, 55
6, 160320, Note_off_c, 5, 77, 0
6, 160320, Note_on_c, 5, 81, 54
6, 160440, Note_off_c, 5, 81, 0
6, 160440, Note_on_c, 5, 82, 54
6, 160560, Note_off_c, 5, 82, 0
6, 160560, Note_on_c, 5, 81, 54
6, 160680, Note_off_c, 5, 81, 0
6, 160680, Note_on_c, 5, 77, 54
6, 160800, Note_off_c, 5, 77, 0
6, 160800, Note_on_c, 5, 79, 53
6, 160920, Note_off_c, 5, 79, 0
6, 160920, Note_on_c, 5, 81, 53
6, 161040, Note_off_c, 5, 81, 0
6, 161040, Note_on_c, 5, 79, 53
6, 161160, Note_off_c, 5, 79, 0
6, 161160, Note_on_c, 5, 76, 52
6, 161280, Note_off_c, 5, 76, 0
6, 161280, Note_on_c, 5, 69, 53
6, 161520, Note_off_c, 5, 69, 0
6, 161520, Note_on_c, 5, 60, 51
6, 161760, Note_off_c, 5, 60, 0
6, 161760, Note_on_c, 5, 65, 49
6, 162000, Note_off_c, 5, 65, 0
6, 162000, Note_on_c, 5, 60, 47
6, 162240, Note_off_c, 5, 60, 0
6, 162240, Note_on_c, 5, 64, 45
6, 162720, Note_off_c, 5, 64, 0
6, 162720, Note_on_c, 5, 48, 70
6, 162720, Note_on_c, 5, 36, 70
6, 162954, Note_off_c, 5, 48, 0
6, 162954, Note_off_c, 5, 36, 0
6, 163200, Note_on_c, 5, 40, 72
6, 163200, Note_on_c, 5, 52, 72
6, 163434, Note_off_c, 5, 40, 0
6, 163434, Note_off_c, 5, 52, 0
6, 163680, Note_on_c, 5, 55, 74
6, 163680, Note_on_c, 5, 43, 74
6, 163914, Note_off_c, 5, 55, 0
6, 163914, Note_off_c, 5, 43, 0
6, 165600, Note_on_c, 5, 70, 58
6, 165720, Note_off_c, 5, 70, 0
6, 165720, Note_on_c, 5, 72, 57
6, 165840, Note_off_c, 5, 72, 0
6, 165840, Note_on_c, 5, 70, 57
6, 165960, Note_off_c, 5, 70, 0
6, 165960, Note_on_c, 5, 67, 57
6, 166080, Note_off_c, 5, 67, 0
6, 166080, Note_on_c, 5, 70, 56
6, 166200, Note_off_c, 5, 70, 0
6, 166200, Note_on_c, 5, 72, 56
6, 166320, Note_off_c, 5, 72, 0
6, 166320, Note_on_c, 5, 70, 56
6, 166440, Note_off_c, 5, 70, 0
6, 166440, Note_on_c, 5, 67, 56
6, 166560, Note_off_c, 5, 67, 0
6, 166560, Note_on_c, 5, 69, 55
6, 166680, Note_off_c, 5, 69, 0
6, 166680, Note_on_c, 5, 70, 55
6, 166800, Note_off_c, 5, 70, 0
6, 166800, Note_on_c, 5, 69, 55
6, 166920, Note_off_c, 5, 69, 0
6, 166920, Note_on_c, 5, 65, 55
6, 167040, Note_off_c, 5, 65, 0
6, 167040, Note_on_c, 5, 70, 55
6, 167280, Note_off_c, 5, 70, 0
6, 167280, Note_on_c, 5, 67, 52
6, 167520, Note_off_c, 5, 67, 0
6, 167520, Note_on_c, 5, 64, 49
6, 167760, Note_off_c, 5, 64, 0
6, 167760, Note_on_c, 5, 60, 46
6, 168000, Note_off_c, 5, 60, 0
6, 168000, Note_on_c, 5, 65, 43
6, 168420, Note_off_c, 5, 65, 0
6, 168480, Note_on_c, 5, 41, 58
6, 168480, Note_on_c, 5, 53, 58
6, 168714, Note_off_c, 5, 41, 0
6, 168714, Note_off_c, 5, 53, 0
6, 168960, Note_on_c, 5, 45, 59
6, 168960, Note_on_c, 5, 57, 59
6, 169194, Note_off_c, 5, 45, 0
6, 169194, Note_off_c, 5, 57, 0
6, 169440, Note_on_c, 5, 48, 61
6, 169440, Note_on_c, 5, 60, 61
6, 169674, Note_off_c, 5, 48, 0
6, 169674, Note_off_c, 5, 60, 0
6, 170040, Note_on_c, 5, 50, 62
6, 170160, Note_off_c, 5, 50, 0
6, 170160, Note_on_c, 5, 48, 63
6, 170280, Note_off_c, 5, 48, 0
6, 170280, Note_on_c, 5, 50, 63
6, 170400, Note_off_c, 5, 50, 0
6, 170400, Note_on_c, 5, 46, 63
6, 170520, Note_off_c, 5, 46, 0
6, 170520, Note_on_c, 5, 48, 63
6, 170640, Note_off_c, 5, 48, 0
6, 170640, Note_on_c, 5, 45, 64
6, 170760, Note_off_c, 5, 45, 0
6, 170760, Note_on_c, 5, 46, 64
6, 170880, Note_off_c, 5, 46, 0
6, 170880, Note_on_c, 5, 43, 64
6, 171000, Note_off_c, 5, 43, 0
6, 171000, Note_on_c, 5, 45, 65
6, 171120, Note_off_c, 5, 45, 0
6, 171120, Note_on_c, 5, 41, 65
6, 171240, Note_off_c, 5, 41, 0
6, 171240, Note_on_c, 5, 43, 65
6, 171360, Note_off_c, 5, 43, 0
6, 171360, Note_on_c, 5, 40, 66
6, 171360, Note_on_c, 5, 52, 66
6, 171594, Note_off_c, 5, 40, 0
6, 171594, Note_off_c, 5, 52, 0
6, 171840, Note_on_c, 5, 55, 67
6, 171840, Note_on_c, 5, 43, 67
6, 172074, Note_off_c, 5, 55, 0
6, 172074, Note_off_c, 5, 43, 0
6, 172320, Note_on_c, 5, 46, 68
6, 172320, Note_on_c, 5, 58, 68
6, 172555, Note_off_c, 5, 46, 0
6, 172555, Note_off_c, 5, 58, 0
6, 172920, Note_on_c, 5, 48, 70
6, 173040, Note_off_c, 5, 48, 0
6, 173040, Note_on_c, 5, 46, 70
6, 173160, Note_off_c, 5, 46, 0
6, 173160, Note_on_c, 5, 48, 70
6, 173280, Note_off_c, 5, 48, 0
6, 173280, Note_on_c, 5, 45, 71
6, 173400, Note_off_c, 5, 45, 0
6, 173400, Note_on_c, 5, 46, 71
6, 173520, Note_off_c, 5, 46, 0
6, 173520, Note_on_c, 5, 43, 71
6, 173640, Note_off_c, 5, 43, 0
6, 173640, Note_on_c, 5, 45, 72
6, 173760, Note_off_c, 5, 45, 0
6, 173760, Note_on_c, 5, 41, 72
6, 173880, Note_off_c, 5, 41, 0
6, 173880, Note_on_c, 5, 43, 72
6, 174000, Note_off_c, 5, 43, 0
6, 174000, Note_on_c, 5, 40, 73
6, 174120, Note_off_c, 5, 40, 0
6, 174120, Note_on_c, 5, 41, 73
6, 174240, Note_off_c, 5, 41, 0
6, 174240, Note_on_c, 5, 38, 75
6, 174240, Note_on_c, 5, 50, 75
6, 174720, Note_off_c, 5, 38, 0
6, 174720, Note_off_c, 5, 50, 0
6, 174840, Note_on_c, 5, 64, 71
6, 174960, Note_off_c, 5, 64, 0
6, 174960, Note_on_c, 5, 60, 70
6, 175080, Note_off_c, 5, 60, 0
6, 175080, Note_on_c, 5, 62, 69
6, 175200, Note_off_c, 5, 62, 0
6, 175200, Note_on_c, 5, 58, 68
6, 175320, Note_off_c, 5, 58, 0
6, 175320, Note_on_c, 5, 60, 67
6, 175440, Note_off_c, 5, 60, 0
6, 175440, Note_on_c, 5, 57, 66
6, 175560, Note_off_c, 5, 57, 0
6, 175560, Note_on_c, 5, 58, 65
6, 175680, Note_off_c, 5, 58, 0
6, 175680, Note_on_c, 5, 55, 64
6, 175800, Note_off_c, 5, 55, 0
6, 175800, Note_on_c, 5, 57, 63
6, 175920, Note_off_c, 5, 57, 0
6, 175920, Note_on_c, 5, 53, 62
6, 176040, Note_off_c, 5, 53, 0
6, 176040, Note_on_c, 5, 55, 61
6, 176160, Note_off_c, 5, 55, 0
6, 176160, Note_on_c, 5, 52, 60
6, 176280, Note_off_c, 5, 52, 0
6, 176280, Note_on_c, 5, 53, 60
6, 176400, Note_off_c, 5, 53, 0
6, 176400, Note_on_c, 5, 50, 59
6, 176520, Note_off_c, 5, 50, 0
6, 176520, Note_on_c, 5, 52, 58
6, 176640, Note_off_c, 5, 52, 0
6, 176640, Note_on_c, 5, 48, 57
6, 176760, Note_off_c, 5, 48, 0
6, 176760, Note_on_c, 5, 50, 56
6, 176880, Note_off_c, 5, 50, 0
6, 176880, Note_on_c, 5, 46, 55
6, 177000, Note_off_c, 5, 46, 0
6, 177000, Note_on_c, 5, 48, 54
6, 177120, Note_off_c, 5, 48, 0
6, 177120, Note_on_c, 5, 33, 48
6, 177120, Note_on_c, 5, 45, 48
6, 177600, Note_off_c, 5, 33, 0
6, 177600, Note_off_c, 5, 45, 0
6, 178560, Note_on_c, 5, 46, 38
6, 178560, Note_on_c, 5, 34, 38
6, 179040, Note_off_c, 5, 46, 0
6, 179040, Note_off_c, 5, 34, 0
6, 180000, Note_on_c, 5, 35, 52
6, 180000, Note_on_c, 5, 47, 52
6, 180480, Note_off_c, 5, 35, 0
6, 180480, Note_off_c, 5, 47, 0
6, 181440, Note_on_c, 5, 36, 54
6, 181440, Note_on_c, 5, 48, 54
6, 181920, Note_off_c, 5, 36, 0
6, 181920, Note_off_c, 5, 48, 0
6, 182880, Note_on_c, 5, 37, 56
6, 182880, Note_on_c, 5, 49, 56
6, 183360, Note_off_c, 5, 37, 0
6, 183360, Note_off_c, 5, 49, 0
6, 184320, Note_on_c, 5, 38, 59
6, 184320, Note_on_c, 5, 50, 59
6, 184800, Note_off_c, 5, 38, 0
6, 184800, Note_off_c, 5, 50, 0
6, 184960, Note_on_c, 5, 61, 60
6, 185120, Note_off_c, 5, 61, 0
6, 185120, Note_on_c, 5, 62, 60
6, 185280, Note_off_c, 5, 62, 0
6, 185440, Note_on_c, 5, 59, 60
6, 185600, Note_off_c, 5, 59, 0
6, 185600, Note_on_c, 5, 60, 61
6, 185760, Note_off_c, 5, 60, 0
6, 185760, Note_on_c, 5, 58, 60
6, 186240, Note_off_c, 5, 58, 0
6, 186400, Note_on_c, 5, 57, 65
6, 186560, Note_off_c, 5, 57, 0
6, 186560, Note_on_c, 5, 58, 66
6, 186720, Note_off_c, 5, 58, 0
6, 186880, Note_on_c, 5, 56, 68
6, 187040, Note_off_c, 5, 56, 0
6, 187040, Note_on_c, 5, 57, 69
6, 187200, Note_off_c, 5, 57, 0
6, 187200, Note_on_c, 5, 46, 68
6, 187680, Note_off_c, 5, 46, 0
6, 187680, Note_on_c, 5, 48, 62
6, 188640, Control_c, 5, 64, 127
6, 188640, Note_off_c, 5, 48, 0
6, 188640, Note_on_c, 5, 53, 52
6, 188760, Note_off_c, 5, 53, 0
6, 188760, Note_on_c, 5, 57, 54
6, 188880, Note_off_c, 5, 57, 0
6, 188880, Note_on_c, 5, 60, 55
6, 189000, Note_off_c, 5, 60, 0
6, 189000, Note_on_c, 5, 65, 55
6, 189120, Note_off_c, 5, 65, 0
6, 189120, Note_on_c, 5, 69, 55
6, 189360, Control_c, 5, 64, 0
6, 189360, Note_off_c, 5, 69, 0
6, 190080, Note_on_c, 5, 55, 59
6, 190080, Control_c, 5, 64, 127
6, 190200, Note_off_c, 5, 55, 0
6, 190200, Note_on_c, 5, 58, 59
6, 190320, Note_off_c, 5, 58, 0
6, 190320, Note_on_c, 5, 64, 60
6, 190440, Note_off_c, 5, 64, 0
6, 190440, Note_on_c, 5, 67, 60
6, 190560, Note_off_c, 5, 67, 0
6, 190560, Note_on_c, 5, 70, 61
6, 190800, Control_c, 5, 64, 0
6, 190800, Note_off_c, 5, 70, 0
6, 191520, Note_on_c, 5, 57, 64
6, 191520, Control_c, 5, 64, 127
6, 191640, Note_off_c, 5, 57, 0
6, 191640, Note_on_c, 5, 60, 65
6, 191760, Note_off_c, 5, 60, 0
6, 191760, Note_on_c, 5, 65, 65
6, 191880, Note_off_c, 5, 65, 0
6, 191880, Note_on_c, 5, 69, 66
6, 192000, Note_off_c, 5, 69, 0
6, 192000, Note_on_c, 5, 72, 66
6, 192240, Control_c, 5, 64, 0
6, 192240, Note_off_c, 5, 72, 0
6, 192960, Note_on_c, 5, 70, 68
6, 193345, Note_off_c, 5, 70, 0
6, 193440, Note_on_c, 5, 70, 72
6, 193825, Note_off_c, 5, 70, 0
6, 193920, Note_on_c, 5, 70, 75
6, 194305, Note_off_c, 5, 70, 0
6, 194400, Note_on_c, 5, 70, 79
6, 194785, Note_off_c, 5, 70, 0
6, 194880, Note_on_c, 5, 72, 74
6, 195750, Note_off_c, 5, 72, 0
6, 195840, Control_c, 5, 64, 127
6, 195840, Note_on_c, 5, 41, 64
6, 195935, Note_off_c, 5, 41, 0
6, 195960, Note_on_c, 5, 45, 62
6, 196055, Note_off_c, 5, 45, 0
6, 196080, Note_on_c, 5, 48, 62
6, 196175, Note_off_c, 5, 48, 0
6, 196200, Note_on_c, 5, 53, 63
6, 196295, Note_off_c, 5, 53, 0
6, 196320, Note_on_c, 5, 57, 63
6, 196510, Note_off_c, 5, 57, 0
6, 196560, Control_c, 5, 64, 0
6, 197280, Note_on_c, 5, 43, 66
6, 197280, Control_c, 5, 64, 127
6, 197375, Note_off_c, 5, 43, 0
6, 197400, Note_on_c, 5, 46, 67
6, 197495, Note_off_c, 5, 46, 0
6, 197520, Note_on_c, 5, 52, 67
6, 197615, Note_off_c, 5, 52, 0
6, 197640, Note_on_c, 5, 55, 67
6, 197735, Note_off_c, 5, 55, 0
6, 197760, Note_on_c, 5, 58, 68
6, 197950, Note_off_c, 5, 58, 0
6, 198000, Control_c, 5, 64, 0
6, 198720, Note_on_c, 5, 45, 71
6, 198720, Control_c, 5, 64, 127
6, 198815, Note_off_c, 5, 45, 0
6, 198840, Note_on_c, 5, 48, 71
6, 198935, Note_off_c, 5, 48, 0
6, 198960, Note_on_c, 5, 53, 72
6, 199055, Note_off_c, 5, 53, 0
6, 199080, Note_on_c, 5, 57, 72
6, 199175, Note_off_c, 5, 57, 0
6, 199200, Note_on_c, 5, 60, 73
6, 199390, Note_off_c, 5, 60, 0
6, 199440, Control_c, 5, 64, 0
6, 200160, Note_on_c, 5, 46, 76
6, 200160, Control_c, 5, 64, 127
6, 200255, Note_off_c, 5, 46, 0
6, 200280, Note_on_c, 5, 50, 76
6, 200375, Note_off_c, 5, 50, 0
6, 200400, Note_on_c, 5, 55, 76
6, 200495, Note_off_c, 5, 55, 0
6, 200520, Note_on_c, 5, 58, 77
6, 200615, Note_off_c, 5, 58, 0
6, 200640, Control_c, 5, 64, 127
6, 200640, Note_on_c, 5, 62, 77
6, 200830, Note_off_c, 5, 62, 0
6, 200880, Control_c, 5, 64, 0
6, 201120, Control_c, 5, 64, 127
6, 201240, Note_on_c, 5, 46, 80
6, 201335, Note_off_c, 5, 46, 0
6, 201360, Control_c, 5, 64, 0
6, 201360, Note_on_c, 5, 50, 80
6, 201455, Note_off_c, 5, 50, 0
6, 201480, Note_on_c, 5, 55, 81
6, 201575, Note_off_c, 5, 55, 0
6, 201600, Control_c, 5, 64, 127
6, 201600, Note_on_c, 5, 58, 81
6, 201790, Note_off_c, 5, 58, 0
6, 201840, Control_c, 5, 64, 0
6, 202080, Control_c, 5, 64, 127
6, 202200, Note_on_c, 5, 58, 84
6, 202295, Note_off_c, 5, 58, 0
6, 202320, Control_c, 5, 64, 0
6, 202320, Note_on_c, 5, 62, 84
6, 202415, Note_off_c, 5, 62, 0
6, 202440, Note_on_c, 5, 67, 85
6, 202535, Note_off_c, 5, 67, 0
6, 202560, Note_on_c, 5, 70, 85
6, 202750, Note_off_c, 5, 70, 0
6, 202800, Control_c, 5, 64, 0
6, 203520, Note_on_c, 5, 48, 83
6, 204382, Note_off_c, 5, 48, 0
6, 204480, Note_on_c, 5, 53, 80
6, 204840, Note_off_c, 5, 53, 0
6, 204960, Note_on_c, 5, 53, 82
6, 205320, Note_off_c, 5, 53, 0
6, 205440, Note_on_c, 5, 48, 84
6, 205800, Note_off_c, 5, 48, 0
6, 205920, Note_on_c, 5, 53, 86
6, 206280, Note_off_c, 5, 53, 0
6, 206400, Note_on_c, 5, 53, 87
6, 206760, Note_off_c, 5, 53, 0
6, 206880, Note_on_c, 5, 48, 89
6, 207240, Note_off_c, 5, 48, 0
6, 207360, Note_on_c, 5, 53, 91
6, 207745, Note_off_c, 5, 53, 0
6, 207840, Note_on_c, 5, 41, 91
6, 207840, Note_on_c, 5, 53, 91
6, 208225, Note_off_c, 5, 41, 0
6, 208225, Note_off_c, 5, 53, 0
6, 211680, Control_c, 5, 64, 0
6, 211680, Note_on_c, 5, 53, 58
6, 212160, Note_off_c, 5, 53, 0
6, 213120, Note_on_c, 5, 58, 53
6, 214080, Note_off_c, 5, 58, 0
6, 216000, Note_on_c, 5, 49, 57
6, 217415, Note_off_c, 5, 49, 0
6, 217440, Note_on_c, 5, 48, 50
6, 218865, Note_off_c, 5, 48, 0
6, 218880, Note_on_c, 5, 49, 52
6, 220295, Note_off_c, 5, 49, 0
6, 220320, Note_on_c, 5, 48, 43
6, 221745, Note_off_c, 5, 48, 0
6, 221760, Note_on_c, 5, 53, 40
6, 222720, Note_off_c, 5, 53, 0
6, 240480, Note_on_c, 5, 56, 28
6, 240720, Note_off_c, 5, 56, 0
6, 240960, Note_on_c, 5, 52, 36
6, 241195, Note_off_c, 5, 52, 0
6, 241200, Note_on_c, 5, 53, 33
6, 241435, Note_off_c, 5, 53, 0
6, 241680, Note_on_c, 5, 49, 43
6, 241915, Note_off_c, 5, 49, 0
6, 241920, Note_on_c, 5, 51, 45
6, 242390, Note_off_c, 5, 51, 0
6, 242400, Note_on_c, 5, 39, 40
6, 242635, Note_off_c, 5, 39, 0
6, 242640, Note_on_c, 5, 44, 38
6, 242875, Note_off_c, 5, 44, 0
6, 243120, Note_on_c, 5, 40, 33
6, 243355, Note_off_c, 5, 40, 0
6, 243360, Note_on_c, 5, 41, 31
6, 243595, Note_off_c, 5, 41, 0
6, 243840, Note_on_c, 5, 37, 37
6, 244075, Note_off_c, 5, 37, 0
6, 244080, Note_on_c, 5, 39, 39
6, 244550, Note_off_c, 5, 39, 0
6, 244560, Note_on_c, 5, 39, 34
6, 244795, Note_off_c, 5, 39, 0
6, 244800, Note_on_c, 5, 44, 32
6, 245493, Note_off_c, 5, 44, 0
6, 245520, Note_on_c, 5, 32, 24
6, 245760, Note_off_c, 5, 32, 0
6, 246240, Note_on_c, 5, 53, 60
6, 246720, Note_off_c, 5, 53, 0
6, 247680, Note_on_c, 5, 58, 54
6, 248640, Note_off_c, 5, 58, 0
6, 250560, Note_on_c, 5, 49, 52
6, 251975, Note_off_c, 5, 49, 0
6, 252000, Note_on_c, 5, 48, 43
6, 253425, Note_off_c, 5, 48, 0
6, 253440, Note_on_c, 5, 49, 49
6, 254855, Note_off_c, 5, 49, 0
6, 254880, Note_on_c, 5, 48, 40
6, 256305, Note_off_c, 5, 48, 0
6, 256320, Note_on_c, 5, 53, 41
6, 257280, Note_off_c, 5, 53, 0
6, 275040, Note_on_c, 5, 56, 30
6, 275275, Note_off_c, 5, 56, 0
6, 275520, Note_on_c, 5, 52, 29
6, 275755, Note_off_c, 5, 52, 0
6, 275760, Note_on_c, 5, 53, 27
6, 275995, Note_off_c, 5, 53, 0
6, 276240, Note_on_c, 5, 49, 43
6, 276475, Note_off_c, 5, 49, 0
6, 276480, Note_on_c, 5, 51, 45
6, 276950, Note_off_c, 5, 51, 0
6, 276960, Note_on_c, 5, 39, 41
6, 277195, Note_off_c, 5, 39, 0
6, 277200, Note_on_c, 5, 44, 39
6, 277435, Note_off_c, 5, 44, 0
6, 277680, Note_on_c, 5, 40, 35
6, 277915, Note_off_c, 5, 40, 0
6, 277920, Note_on_c, 5, 41, 33
6, 278155, Note_off_c, 5, 41, 0
6, 278400, Note_on_c, 5, 37, 39
6, 278635, Note_off_c, 5, 37, 0
6, 278640, Note_on_c, 5, 39, 41
6, 279110, Note_off_c, 5, 39, 0
6, 279120, Note_on_c, 5, 39, 36
6, 279341, Note_off_c, 5, 39, 0
6, 279360, Note_on_c, 5, 44, 33
6, 280067, Note_off_c, 5, 44, 0
6, 280080, Note_on_c, 5, 32, 25
6, 280320, Note_off_c, 5, 32, 0
6, 282240, Note_on_c, 5, 66, 58
6, 282720, Note_off_c, 5, 66, 0
6, 282720, Note_on_c, 5, 65, 53
6, 282960, Note_off_c, 5, 65, 0
6, 282960, Note_on_c, 5, 63, 51
6, 283210, Note_off_c, 5, 63, 0
6, 283680, Note_on_c, 5, 54, 48
6, 284160, Note_off_c, 5, 54, 0
6, 284160, Note_on_c, 5, 53, 37
6, 284400, Note_off_c, 5, 53, 0
6, 284400, Note_on_c, 5, 51, 34
6, 284650, Note_off_c, 5, 51, 0
6, 285120, Note_on_c, 5, 49, 71
6, 285275, Note_off_c, 5, 49, 0
6, 285360, Note_on_c, 5, 48, 75
6, 285515, Note_off_c, 5, 48, 0
6, 285600, Note_on_c, 5, 46, 79
6, 285755, Note_off_c, 5, 46, 0
6, 285840, Note_on_c, 5, 45, 74
6, 286080, Note_off_c, 5, 45, 0
6, 286560, Note_on_c, 5, 46, 35
6, 286800, Note_off_c, 5, 46, 0
6, 287400, Note_on_c, 5, 58, 41
6, 287520, Note_off_c, 5, 58, 0
6, 287520, Note_on_c, 5, 57, 42
6, 287640, Note_off_c, 5, 57, 0
6, 287640, Note_on_c, 5, 58, 43
6, 287760, Note_off_c, 5, 58, 0
6, 287760, Note_on_c, 5, 60, 44
6, 287880, Note_off_c, 5, 60, 0
6, 287880, Note_on_c, 5, 58, 44
6, 288000, Note_off_c, 5, 58, 0
6, 288000, Note_on_c, 5, 57, 46
6, 288825, Note_off_c, 5, 57, 0
6, 288840, Note_on_c, 5, 56, 51
6, 288960, Note_off_c, 5, 56, 0
6, 288960, Note_on_c, 5, 55, 52
6, 289080, Note_off_c, 5, 55, 0
6, 289080, Note_on_c, 5, 56, 53
6, 289200, Note_off_c, 5, 56, 0
6, 289200, Note_on_c, 5, 58, 53
6, 289320, Note_off_c, 5, 58, 0
6, 289320, Note_on_c, 5, 56, 54
6, 289440, Note_off_c, 5, 56, 0
6, 289440, Note_on_c, 5, 55, 55
6, 289685, Note_off_c, 5, 55, 0
6, 290160, Note_on_c, 5, 54, 60
6, 290405, Note_off_c, 5, 54, 0
6, 291000, Note_on_c, 5, 55, 66
6, 291120, Note_off_c, 5, 55, 0
6, 291120, Note_on_c, 5, 54, 67
6, 291240, Note_off_c, 5, 54, 0
6, 291240, Note_on_c, 5, 55, 68
6, 291360, Note_off_c, 5, 55, 0
6, 291360, Note_on_c, 5, 56, 68
6, 291480, Note_off_c, 5, 56, 0
6, 291480, Note_on_c, 5, 55, 69
6, 291600, Note_off_c, 5, 55, 0
6, 291600, Note_on_c, 5, 43, 70
6, 291960, Note_off_c, 5, 43, 0
6, 292320, Note_on_c, 5, 48, 62
6, 292800, Note_off_c, 5, 48, 0
6, 293760, Note_on_c, 5, 53, 55
6, 294720, Note_off_c, 5, 53, 0
6, 295200, Note_on_c, 5, 55, 48
6, 295560, Note_off_c, 5, 55, 0
6, 295560, Note_on_c, 5, 56, 46
6, 295680, Note_off_c, 5, 56, 0
6, 295680, Note_on_c, 5, 55, 46
6, 295920, Note_off_c, 5, 55, 0
6, 295920, Note_on_c, 5, 55, 42
6, 296640, Note_off_c, 5, 55, 0
6, 296640, Note_on_c, 5, 48, 41
6, 297000, Note_off_c, 5, 48, 0
6, 297000, Note_on_c, 5, 49, 39
6, 297120, Note_off_c, 5, 49, 0
6, 297120, Note_on_c, 5, 48, 38
6, 297360, Note_off_c, 5, 48, 0
6, 297360, Note_on_c, 5, 48, 38
6, 298080, Note_off_c, 5, 48, 0
6, 298080, Note_on_c, 5, 53, 52
6, 298560, Note_off_c, 5, 53, 0
6, 299520, Note_on_c, 5, 58, 46
6, 300480, Note_off_c, 5, 58, 0
6, 302400, Note_on_c, 5, 49, 45
6, 303830, Note_off_c, 5, 49, 0
6, 303840, Note_on_c, 5, 48, 36
6, 305270, Note_off_c, 5, 48, 0
6, 305280, Note_on_c, 5, 53, 37
6, 306230, Note_off_c, 5, 53, 0
6, 326880, Note_on_c, 5, 53, 27
6, 327115, Note_off_c, 5, 53, 0
6, 327360, Note_on_c, 5, 45, 23
6, 327595, Note_off_c, 5, 45, 0
6, 327600, Note_on_c, 5, 46, 21
6, 327835, Note_off_c, 5, 46, 0
6, 328080, Note_on_c, 5, 46, 55
6, 328315, Note_off_c, 5, 46, 0
6, 328320, Note_on_c, 5, 48, 53
6, 328790, Note_off_c, 5, 48, 0
6, 328800, Note_on_c, 5, 36, 48
6, 329035, Note_off_c, 5, 36, 0
6, 329040, Note_on_c, 5, 41, 46
6, 329275, Note_off_c, 5, 41, 0
6, 329520, Note_on_c, 5, 45, 42
6, 329755, Note_off_c, 5, 45, 0
6, 329760, Note_on_c, 5, 46, 40
6, 329995, Note_off_c, 5, 46, 0
6, 330240, Note_on_c, 5, 59, 51
6, 330475, Note_off_c, 5, 59, 0
6, 330960, Note_on_c, 5, 48, 39
6, 331160, Note_off_c, 5, 48, 0
6, 331200, Note_on_c, 5, 41, 36
6, 332405, Note_off_c, 5, 41, 0
6, 334560, Control_c, 5, 64, 0
6, 335520, Note_on_c, 5, 67, 75
6, 335725, Note_off_c, 5, 67, 0
6, 336240, Note_on_c, 5, 65, 67
6, 336445, Note_off_c, 5, 65, 0
6, 336960, Note_on_c, 5, 70, 58
6, 337165, Note_off_c, 5, 70, 0
6, 337680, Note_on_c, 5, 69, 77
6, 338290, Note_off_c, 5, 69, 0
6, 338400, Note_on_c, 5, 70, 73
6, 338605, Note_off_c, 5, 70, 0
6, 339120, Note_on_c, 5, 55, 68
6, 339325, Note_off_c, 5, 55, 0
6, 339360, Note_on_c, 5, 58, 67
6, 339565, Note_off_c, 5, 58, 0
6, 339600, Note_on_c, 5, 59, 65
6, 339805, Note_off_c, 5, 59, 0
6, 339840, Note_on_c, 5, 60, 64
6, 340045, Note_off_c, 5, 60, 0
6, 341280, Note_on_c, 5, 55, 57
6, 341485, Note_off_c, 5, 55, 0
6, 342000, Note_on_c, 5, 53, 49
6, 342205, Note_off_c, 5, 53, 0
6, 342720, Note_on_c, 5, 58, 41
6, 342925, Note_off_c, 5, 58, 0
6, 343440, Note_on_c, 5, 45, 64
6, 343440, Note_on_c, 5, 57, 64
6, 344160, Note_off_c, 5, 57, 0
6, 344160, Note_on_c, 5, 58, 58
6, 344160, Note_on_c, 5, 46, 58
6, 344165, Note_off_c, 5, 45, 0
6, 344365, Note_off_c, 5, 58, 0
6, 344365, Note_off_c, 5, 46, 0
6, 345120, Note_on_c, 5, 60, 50
6, 345240, Note_off_c, 5, 60, 0
6, 345360, Note_on_c, 5, 48, 48
6, 345480, Note_off_c, 5, 48, 0
6, 345600, Note_on_c, 5, 53, 46
6, 345725, Note_off_c, 5, 53, 0
6, 345840, Note_on_c, 5, 41, 44
6, 345960, Note_off_c, 5, 41, 0
6, 346080, Note_on_c, 5, 41, 45
6, 346200, Note_off_c, 5, 41, 0
6, 346320, Note_on_c, 5, 41, 45
6, 346440, Note_off_c, 5, 41, 0
6, 346560, Note_on_c, 5, 41, 46
6, 346680, Note_off_c, 5, 41, 0
6, 346800, Note_on_c, 5, 41, 47
6, 346920, Note_off_c, 5, 41, 0
6, 347040, Note_on_c, 5, 41, 48
6, 347160, Note_off_c, 5, 41, 0
6, 347280, Note_on_c, 5, 41, 48
6, 347400, Note_off_c, 5, 41, 0
6, 347520, Note_on_c, 5, 41, 49
6, 347640, Note_off_c, 5, 41, 0
6, 347760, Note_on_c, 5, 41, 50
6, 347880, Note_off_c, 5, 41, 0
6, 348000, Note_on_c, 5, 41, 51
6, 348120, Note_off_c, 5, 41, 0
6, 348240, Note_on_c, 5, 41, 51
6, 348360, Note_off_c, 5, 41, 0
6, 348480, Note_on_c, 5, 41, 52
6, 348600, Note_off_c, 5, 41, 0
6, 348720, Note_on_c, 5, 53, 53
6, 348840, Note_off_c, 5, 53, 0
6, 348960, Note_on_c, 5, 53, 54
6, 349080, Note_off_c, 5, 53, 0
6, 349200, Note_on_c, 5, 53, 54
6, 349320, Note_off_c, 5, 53, 0
6, 349440, Note_on_c, 5, 53, 55
6, 349560, Note_off_c, 5, 53, 0
6, 349680, Note_on_c, 5, 53, 56
6, 349800, Note_off_c, 5, 53, 0
6, 349920, Note_on_c, 5, 53, 57
6, 350040, Note_off_c, 5, 53, 0
6, 350160, Note_on_c, 5, 53, 57
6, 350280, Note_off_c, 5, 53, 0
6, 350400, Note_on_c, 5, 53, 58
6, 350520, Note_off_c, 5, 53, 0
6, 350640, Note_on_c, 5, 53, 59
6, 350760, Note_off_c, 5, 53, 0
6, 350880, Note_on_c, 5, 53, 60
6, 351000, Note_off_c, 5, 53, 0
6, 351120, Note_on_c, 5, 53, 60
6, 351240, Note_off_c, 5, 53, 0
6, 351360, Note_on_c, 5, 53, 61
6, 351480, Note_off_c, 5, 53, 0
6, 351600, Note_on_c, 5, 53, 62
6, 351720, Note_off_c, 5, 53, 0
6, 351840, Note_on_c, 5, 53, 63
6, 351960, Note_off_c, 5, 53, 0
6, 352080, Note_on_c, 5, 65, 72
6, 352320, Note_off_c, 5, 65, 0
6, 352680, Note_on_c, 5, 65, 74
6, 352800, Note_off_c, 5, 65, 0
6, 352800, Note_on_c, 5, 64, 74
6, 353040, Note_off_c, 5, 64, 0
6, 353400, Note_on_c, 5, 64, 76
6, 353520, Note_off_c, 5, 64, 0
6, 353520, Note_on_c, 5, 62, 76
6, 353760, Note_off_c, 5, 62, 0
6, 354120, Note_on_c, 5, 62, 78
6, 354240, Note_off_c, 5, 62, 0
6, 354240, Note_on_c, 5, 60, 78
6, 354480, Note_off_c, 5, 60, 0
6, 354840, Note_on_c, 5, 60, 80
6, 354960, Note_off_c, 5, 60, 0
6, 354960, Note_on_c, 5, 65, 81
6, 355440, Note_off_c, 5, 65, 0
6, 356880, Note_on_c, 5, 54, 68
6, 357120, Note_off_c, 5, 54, 0
6, 357120, Note_on_c, 5, 55, 62
6, 357300, Note_off_c, 5, 55, 0
6, 357600, Note_on_c, 5, 42, 80
6, 357840, Note_off_c, 5, 42, 0
6, 357840, Note_on_c, 5, 43, 79
6, 358025, Note_off_c, 5, 43, 0
6, 358320, Note_on_c, 5, 66, 66
6, 358560, Note_off_c, 5, 66, 0
6, 358560, Note_on_c, 5, 67, 60
6, 358745, Note_off_c, 5, 67, 0
6, 359040, Note_on_c, 5, 78, 74
6, 359280, Note_off_c, 5, 78, 0
6, 359280, Note_on_c, 5, 79, 71
6, 359520, Note_off_c, 5, 79, 0
6, 359760, Note_on_c, 5, 54, 60
6, 360000, Note_off_c, 5, 54, 0
6, 360000, Note_on_c, 5, 55, 55
6, 360185, Note_off_c, 5, 55, 0
6, 360480, Note_on_c, 5, 42, 71
6, 360720, Note_off_c, 5, 42, 0
6, 360720, Note_on_c, 5, 43, 64
6, 360905, Note_off_c, 5, 43, 0
6, 364320, Note_on_c, 5, 60, 56
6, 364500, Note_off_c, 5, 60, 0
6, 364560, Note_on_c, 5, 64, 57
6, 364740, Note_off_c, 5, 64, 0
6, 364800, Note_on_c, 5, 60, 59
6, 364980, Note_off_c, 5, 60, 0
6, 365040, Note_on_c, 5, 59, 67
6, 365220, Note_off_c, 5, 59, 0
6, 365280, Note_on_c, 5, 62, 61
6, 365460, Note_off_c, 5, 62, 0
6, 365520, Note_on_c, 5, 59, 57
6, 365700, Note_off_c, 5, 59, 0
6, 365760, Note_on_c, 5, 60, 55
6, 365940, Note_off_c, 5, 60, 0
6, 366000, Note_on_c, 5, 64, 55
6, 366180, Note_off_c, 5, 64, 0
6, 366240, Note_on_c, 5, 60, 57
6, 366420, Note_off_c, 5, 60, 0
6, 366480, Note_on_c, 5, 59, 63
6, 366660, Note_off_c, 5, 59, 0
6, 366720, Note_on_c, 5, 62, 58
6, 366900, Note_off_c, 5, 62, 0
6, 366960, Note_on_c, 5, 59, 56
6, 367140, Note_off_c, 5, 59, 0
6, 367200, Note_on_c, 5, 60, 54
6, 367320, Note_on_c, 5, 64, 54
6, 367440, Note_off_c, 5, 60, 0
6, 367440, Note_off_c, 5, 64, 0
6, 367440, Note_on_c, 5, 67, 55
6, 367560, Note_off_c, 5, 67, 0
6, 367560, Note_on_c, 5, 72, 56
6, 367680, Note_off_c, 5, 72, 0
6, 367680, Note_on_c, 5, 71, 57
6, 367800, Note_off_c, 5, 71, 0
6, 367800, Note_on_c, 5, 72, 58
6, 367920, Note_off_c, 5, 72, 0
6, 367920, Note_on_c, 5, 72, 67
6, 368305, Note_off_c, 5, 72, 0
6, 368400, Note_on_c, 5, 71, 59
6, 368590, Note_off_c, 5, 71, 0
6, 368640, Note_on_c, 5, 69, 63
6, 369025, Note_off_c, 5, 69, 0
6, 369120, Note_on_c, 5, 66, 56
6, 369310, Note_off_c, 5, 66, 0
6, 369360, Note_on_c, 5, 67, 58
6, 369550, Note_off_c, 5, 67, 0
6, 370080, Note_on_c, 5, 62, 53
6, 370415, Note_off_c, 5, 62, 0
6, 370440, Note_on_c, 5, 62, 53
6, 370550, Note_off_c, 5, 62, 0
6, 370560, Note_on_c, 5, 62, 55
6, 370775, Note_off_c, 5, 62, 0
6, 370800, Note_on_c, 5, 62, 57
6, 370860, Note_off_c, 5, 62, 0
6, 370860, Note_on_c, 5, 64, 58
6, 370920, Note_on_c, 5, 65, 61
6, 370925, Note_off_c, 5, 64, 0
6, 371160, Note_off_c, 5, 65, 0
6, 371160, Note_on_c, 5, 64, 54
6, 371265, Note_off_c, 5, 64, 0
6, 371280, Note_on_c, 5, 62, 52
6, 371490, Note_off_c, 5, 62, 0
6, 371520, Note_on_c, 5, 62, 52
6, 371855, Note_off_c, 5, 62, 0
6, 371880, Note_on_c, 5, 62, 53
6, 371990, Note_off_c, 5, 62, 0
6, 372000, Note_on_c, 5, 62, 55
6, 372215, Note_off_c, 5, 62, 0
6, 372240, Note_on_c, 5, 62, 57
6, 372300, Note_off_c, 5, 62, 0
6, 372300, Note_on_c, 5, 64, 58
6, 372360, Note_on_c, 5, 65, 60
6, 372365, Note_off_c, 5, 64, 0
6, 372600, Note_off_c, 5, 65, 0
6, 372600, Note_on_c, 5, 64, 56
6, 372705, Note_off_c, 5, 64, 0
6, 372720, Note_on_c, 5, 62, 54
6, 372930, Note_off_c, 5, 62, 0
6, 372960, Note_on_c, 5, 60, 52
6, 373175, Note_off_c, 5, 60, 0
6, 373680, Note_on_c, 5, 47, 62
6, 373680, Note_on_c, 5, 59, 62
6, 374400, Note_off_c, 5, 47, 0
6, 374400, Note_off_c, 5, 59, 0
6, 374400, Note_on_c, 5, 60, 51
6, 374400, Note_on_c, 5, 48, 51
6, 374615, Note_off_c, 5, 60, 0
6, 374615, Note_off_c, 5, 48, 0
6, 375120, Note_on_c, 5, 59, 60
6, 375120, Note_on_c, 5, 47, 60
6, 375840, Note_off_c, 5, 59, 0
6, 375840, Note_off_c, 5, 47, 0
6, 375840, Note_on_c, 5, 48, 48
6, 375840, Note_on_c, 5, 60, 48
6, 376055, Note_off_c, 5, 48, 0
6, 376055, Note_off_c, 5, 60, 0
6, 376560, Note_on_c, 5, 72, 63
6, 376945, Note_off_c, 5, 72, 0
6, 377040, Note_on_c, 5, 71, 56
6, 377230, Note_off_c, 5, 71, 0
6, 377280, Note_on_c, 5, 69, 61
6, 377665, Note_off_c, 5, 69, 0
6, 377760, Note_on_c, 5, 67, 55
6, 377950, Note_off_c, 5, 67, 0
6, 378000, Note_on_c, 5, 65, 52
6, 378192, Note_off_c, 5, 65, 0
6, 378240, Note_on_c, 5, 67, 50
6, 378432, Note_off_c, 5, 67, 0
6, 378480, Note_on_c, 5, 55, 47
6, 378672, Note_off_c, 5, 55, 0
6, 378720, Note_on_c, 5, 60, 49
6, 378910, Note_off_c, 5, 60, 0
6, 379440, Note_on_c, 5, 60, 59
6, 379825, Note_off_c, 5, 60, 0
6, 379920, Note_on_c, 5, 59, 52
6, 380160, Note_off_c, 5, 59, 0
6, 380160, Note_on_c, 5, 57, 61
6, 380545, Note_off_c, 5, 57, 0
6, 380640, Note_on_c, 5, 55, 52
6, 380880, Note_off_c, 5, 55, 0
6, 380880, Note_on_c, 5, 53, 53
6, 381072, Note_off_c, 5, 53, 0
6, 381120, Note_on_c, 5, 55, 48
6, 381312, Note_off_c, 5, 55, 0
6, 381360, Note_on_c, 5, 43, 43
6, 381552, Note_off_c, 5, 43, 0
6, 381600, Note_on_c, 5, 48, 38
6, 381840, Note_off_c, 5, 48, 0
6, 382560, Note_on_c, 5, 52, 49
6, 382680, Note_off_c, 5, 52, 0
6, 382800, Note_on_c, 5, 52, 50
6, 382920, Note_off_c, 5, 52, 0
6, 383040, Note_on_c, 5, 53, 52
6, 383160, Note_off_c, 5, 53, 0
6, 384000, Note_on_c, 5, 57, 58
6, 384120, Note_off_c, 5, 57, 0
6, 384240, Note_on_c, 5, 57, 59
6, 384360, Note_off_c, 5, 57, 0
6, 384480, Note_on_c, 5, 55, 60
6, 384600, Note_off_c, 5, 55, 0
6, 385440, Note_on_c, 5, 55, 66
6, 385560, Note_off_c, 5, 55, 0
6, 385680, Note_on_c, 5, 55, 67
6, 385800, Note_off_c, 5, 55, 0
6, 385920, Note_on_c, 5, 60, 69
6, 385920, Note_on_c, 5, 64, 69
6, 386110, Note_off_c, 5, 60, 0
6, 386110, Note_off_c, 5, 64, 0
6, 386640, Note_on_c, 5, 55, 73
6, 386830, Note_off_c, 5, 55, 0
6, 387360, Note_on_c, 5, 60, 77
6, 387550, Note_off_c, 5, 60, 0
6, 388080, Note_on_c, 5, 55, 82
6, 388270, Note_off_c, 5, 55, 0
6, 388800, Note_on_c, 5, 48, 86
6, 388895, Note_off_c, 5, 48, 0
6, 388920, Note_on_c, 5, 60, 87
6, 389015, Note_off_c, 5, 60, 0
6, 389040, Note_on_c, 5, 64, 87
6, 389135, Note_off_c, 5, 64, 0
6, 389160, Note_on_c, 5, 60, 90
6, 389255, Note_off_c, 5, 60, 0
6, 389280, Note_on_c, 5, 55, 90
6, 389375, Note_off_c, 5, 55, 0
6, 389400, Note_on_c, 5, 52, 91
6, 389495, Note_off_c, 5, 52, 0
6, 389520, Note_on_c, 5, 48, 92
6, 389760, Note_off_c, 5, 48, 0
6, 390000, Control_c, 5, 64, 0
6, 390960, Note_on_c, 5, 67, 75
6, 391165, Note_off_c, 5, 67, 0
6, 391680, Note_on_c, 5, 65, 67
6, 391885, Note_off_c, 5, 65, 0
6, 392400, Note_on_c, 5, 70, 58
6, 392605, Note_off_c, 5, 70, 0
6, 393120, Note_on_c, 5, 69, 77
6, 393730, Note_off_c, 5, 69, 0
6, 393840, Note_on_c, 5, 70, 73
6, 394045, Note_off_c, 5, 70, 0
6, 394560, Note_on_c, 5, 55, 68
6, 394765, Note_off_c, 5, 55, 0
6, 394800, Note_on_c, 5, 58, 67
6, 395005, Note_off_c, 5, 58, 0
6, 395040, Note_on_c, 5, 59, 65
6, 395245, Note_off_c, 5, 59, 0
6, 395280, Note_on_c, 5, 60, 64
6, 395485, Note_off_c, 5, 60, 0
6, 396720, Note_on_c, 5, 55, 57
6, 396925, Note_off_c, 5, 55, 0
6, 397440, Note_on_c, 5, 53, 49
6, 397645, Note_off_c, 5, 53, 0
6, 398160, Note_on_c, 5, 58, 41
6, 398365, Note_off_c, 5, 58, 0
6, 398880, Note_on_c, 5, 57, 64
6, 398880, Note_on_c, 5, 45, 64
6, 399600, Note_off_c, 5, 57, 0
6, 399600, Note_on_c, 5, 46, 58
6, 399600, Note_on_c, 5, 58, 58
6, 399605, Note_off_c, 5, 45, 0
6, 399805, Note_off_c, 5, 46, 0
6, 399805, Note_off_c, 5, 58, 0
6, 400560, Note_on_c, 5, 60, 50
6, 400680, Note_off_c, 5, 60, 0
6, 400800, Note_on_c, 5, 48, 48
6, 400920, Note_off_c, 5, 48, 0
6, 401040, Note_on_c, 5, 53, 46
6, 401165, Note_off_c, 5, 53, 0
6, 401280, Note_on_c, 5, 41, 44
6, 401400, Note_off_c, 5, 41, 0
6, 401520, Note_on_c, 5, 41, 45
6, 401640, Note_off_c, 5, 41, 0
6, 401760, Note_on_c, 5, 41, 45
6, 401880, Note_off_c, 5, 41, 0
6, 402000, Note_on_c, 5, 41, 46
6, 402120, Note_off_c, 5, 41, 0
6, 402240, Note_on_c, 5, 41, 47
6, 402360, Note_off_c, 5, 41, 0
6, 402480, Note_on_c, 5, 41, 48
6, 402600, Note_off_c, 5, 41, 0
6, 402720, Note_on_c, 5, 41, 48
6, 402840, Note_off_c, 5, 41, 0
6, 402960, Note_on_c, 5, 41, 49
6, 403080, Note_off_c, 5, 41, 0
6, 403200, Note_on_c, 5, 41, 50
6, 403320, Note_off_c, 5, 41, 0
6, 403440, Note_on_c, 5, 41, 51
6, 403560, Note_off_c, 5, 41, 0
6, 403680, Note_on_c, 5, 41, 51
6, 403800, Note_off_c, 5, 41, 0
6, 403920, Note_on_c, 5, 41, 52
6, 404040, Note_off_c, 5, 41, 0
6, 404160, Note_on_c, 5, 53, 53
6, 404280, Note_off_c, 5, 53, 0
6, 404400, Note_on_c, 5, 53, 54
6, 404520, Note_off_c, 5, 53, 0
6, 404640, Note_on_c, 5, 53, 54
6, 404760, Note_off_c, 5, 53, 0
6, 404880, Note_on_c, 5, 53, 55
6, 405000, Note_off_c, 5, 53, 0
6, 405120, Note_on_c, 5, 53, 56
6, 405240, Note_off_c, 5, 53, 0
6, 405360, Note_on_c, 5, 53, 57
6, 405480, Note_off_c, 5, 53, 0
6, 405600, Note_on_c, 5, 53, 57
6, 405720, Note_off_c, 5, 53, 0
6, 405840, Note_on_c, 5, 53, 58
6, 405960, Note_off_c, 5, 53, 0
6, 406080, Note_on_c, 5, 53, 59
6, 406200, Note_off_c, 5, 53, 0
6, 406320, Note_on_c, 5, 53, 60
6, 406440, Note_off_c, 5, 53, 0
6, 406560, Note_on_c, 5, 53, 60
6, 406680, Note_off_c, 5, 53, 0
6, 406800, Note_on_c, 5, 53, 61
6, 406920, Note_off_c, 5, 53, 0
6, 407040, Note_on_c, 5, 53, 62
6, 407160, Note_off_c, 5, 53, 0
6, 407280, Note_on_c, 5, 53, 63
6, 407400, Note_off_c, 5, 53, 0
6, 407520, Note_on_c, 5, 65, 72
6, 407760, Note_off_c, 5, 65, 0
6, 408120, Note_on_c, 5, 65, 74
6, 408240, Note_off_c, 5, 65, 0
6, 408240, Note_on_c, 5, 64, 74
6, 408480, Note_off_c, 5, 64, 0
6, 408840, Note_on_c, 5, 64, 76
6, 408960, Note_off_c, 5, 64, 0
6, 408960, Note_on_c, 5, 62, 76
6, 409200, Note_off_c, 5, 62, 0
6, 409560, Note_on_c, 5, 62, 78
6, 409680, Note_off_c, 5, 62, 0
6, 409680, Note_on_c, 5, 60, 78
6, 409920, Note_off_c, 5, 60, 0
6, 410280, Note_on_c, 5, 60, 80
6, 410400, Note_off_c, 5, 60, 0
6, 410400, Note_on_c, 5, 65, 81
6, 410880, Note_off_c, 5, 65, 0
6, 412320, Note_on_c, 5, 54, 68
6, 412560, Note_off_c, 5, 54, 0
6, 412560, Note_on_c, 5, 55, 62
6, 412740, Note_off_c, 5, 55, 0
6, 413040, Note_on_c, 5, 42, 80
6, 413280, Note_off_c, 5, 42, 0
6, 413280, Note_on_c, 5, 43, 79
6, 413465, Note_off_c, 5, 43, 0
6, 413760, Note_on_c, 5, 66, 66
6, 414000, Note_off_c, 5, 66, 0
6, 414000, Note_on_c, 5, 67, 60
6, 414185, Note_off_c, 5, 67, 0
6, 414480, Note_on_c, 5, 78, 74
6, 414720, Note_off_c, 5, 78, 0
6, 414720, Note_on_c, 5, 79, 71
6, 414960, Note_off_c, 5, 79, 0
6, 415200, Note_on_c, 5, 54, 60
6, 415440, Note_off_c, 5, 54, 0
6, 415440, Note_on_c, 5, 55, 55
6, 415625, Note_off_c, 5, 55, 0
6, 415920, Note_on_c, 5, 42, 71
6, 416160, Note_off_c, 5, 42, 0
6, 416160, Note_on_c, 5, 43, 64
6, 416345, Note_off_c, 5, 43, 0
6, 419760, Note_on_c, 5, 60, 56
6, 419940, Note_off_c, 5, 60, 0
6, 420000, Note_on_c, 5, 64, 57
6, 420180, Note_off_c, 5, 64, 0
6, 420240, Note_on_c, 5, 60, 59
6, 420420, Note_off_c, 5, 60, 0
6, 420480, Note_on_c, 5, 59, 67
6, 420660, Note_off_c, 5, 59, 0
6, 420720, Note_on_c, 5, 62, 61
6, 420900, Note_off_c, 5, 62, 0
6, 420960, Note_on_c, 5, 59, 57
6, 421140, Note_off_c, 5, 59, 0
6, 421200, Note_on_c, 5, 60, 55
6, 421380, Note_off_c, 5, 60, 0
6, 421440, Note_on_c, 5, 64, 55
6, 421620, Note_off_c, 5, 64, 0
6, 421680, Note_on_c, 5, 60, 57
6, 421860, Note_off_c, 5, 60, 0
6, 421920, Note_on_c, 5, 59, 63
6, 422100, Note_off_c, 5, 59, 0
6, 422160, Note_on_c, 5, 62, 58
6, 422340, Note_off_c, 5, 62, 0
6, 422400, Note_on_c, 5, 59, 56
6, 422580, Note_off_c, 5, 59, 0
6, 422640, Note_on_c, 5, 60, 54
6, 422760, Note_on_c, 5, 64, 54
6, 422880, Note_off_c, 5, 60, 0
6, 422880, Note_off_c, 5, 64, 0
6, 422880, Note_on_c, 5, 67, 55
6, 423000, Note_off_c, 5, 67, 0
6, 423000, Note_on_c, 5, 72, 56
6, 423120, Note_off_c, 5, 72, 0
6, 423120, Note_on_c, 5, 71, 57
6, 423240, Note_off_c, 5, 71, 0
6, 423240, Note_on_c, 5, 72, 58
6, 423360, Note_off_c, 5, 72, 0
6, 423360, Note_on_c, 5, 72, 67
6, 423745, Note_off_c, 5, 72, 0
6, 423840, Note_on_c, 5, 71, 59
6, 424030, Note_off_c, 5, 71, 0
6, 424080, Note_on_c, 5, 69, 63
6, 424465, Note_off_c, 5, 69, 0
6, 424560, Note_on_c, 5, 66, 56
6, 424750, Note_off_c, 5, 66, 0
6, 424800, Note_on_c, 5, 67, 58
6, 424990, Note_off_c, 5, 67, 0
6, 425520, Note_on_c, 5, 62, 53
6, 425855, Note_off_c, 5, 62, 0
6, 425880, Note_on_c, 5, 62, 53
6, 425990, Note_off_c, 5, 62, 0
6, 426000, Note_on_c, 5, 62, 55
6, 426215, Note_off_c, 5, 62, 0
6, 426240, Note_on_c, 5, 62, 57
6, 426300, Note_off_c, 5, 62, 0
6, 426300, Note_on_c, 5, 64, 58
6, 426360, Note_on_c, 5, 65, 61
6, 426365, Note_off_c, 5, 64, 0
6, 426600, Note_off_c, 5, 65, 0
6, 426600, Note_on_c, 5, 64, 54
6, 426705, Note_off_c, 5, 64, 0
6, 426720, Note_on_c, 5, 62, 52
6, 426930, Note_off_c, 5, 62, 0
6, 426960, Note_on_c, 5, 62, 52
6, 427295, Note_off_c, 5, 62, 0
6, 427320, Note_on_c, 5, 62, 53
6, 427430, Note_off_c, 5, 62, 0
6, 427440, Note_on_c, 5, 62, 55
6, 427655, Note_off_c, 5, 62, 0
6, 427680, Note_on_c, 5, 62, 57
6, 427740, Note_off_c, 5, 62, 0
6, 427740, Note_on_c, 5, 64, 58
6, 427800, Note_on_c, 5, 65, 60
6, 427805, Note_off_c, 5, 64, 0
6, 428040, Note_off_c, 5, 65, 0
6, 428040, Note_on_c, 5, 64, 56
6, 428145, Note_off_c, 5, 64, 0
6, 428160, Note_on_c, 5, 62, 54
6, 428370, Note_off_c, 5, 62, 0
6, 428400, Note_on_c, 5, 60, 52
6, 428615, Note_off_c, 5, 60, 0
6, 429120, Note_on_c, 5, 59, 62
6, 429120, Note_on_c, 5, 47, 62
6, 429840, Note_off_c, 5, 59, 0
6, 429840, Note_off_c, 5, 47, 0
6, 429840, Note_on_c, 5, 48, 51
6, 429840, Note_on_c, 5, 60, 51
6, 430055, Note_off_c, 5, 48, 0
6, 430055, Note_off_c, 5, 60, 0
6, 430560, Note_on_c, 5, 47, 60
6, 430560, Note_on_c, 5, 59, 60
6, 431280, Note_off_c, 5, 47, 0
6, 431280, Note_off_c, 5, 59, 0
6, 431280, Note_on_c, 5, 60, 48
6, 431280, Note_on_c, 5, 48, 48
6, 431495, Note_off_c, 5, 60, 0
6, 431495, Note_off_c, 5, 48, 0
6, 432000, Note_on_c, 5, 72, 63
6, 432385, Note_off_c, 5, 72, 0
6, 432480, Note_on_c, 5, 71, 56
6, 432670, Note_off_c, 5, 71, 0
6, 432720, Note_on_c, 5, 69, 61
6, 433105, Note_off_c, 5, 69, 0
6, 433200, Note_on_c, 5, 67, 55
6, 433390, Note_off_c, 5, 67, 0
6, 433440, Note_on_c, 5, 65, 52
6, 433632, Note_off_c, 5, 65, 0
6, 433680, Note_on_c, 5, 67, 50
6, 433872, Note_off_c, 5, 67, 0
6, 433920, Note_on_c, 5, 55, 47
6, 434112, Note_off_c, 5, 55, 0
6, 434160, Note_on_c, 5, 60, 49
6, 434350, Note_off_c, 5, 60, 0
6, 434880, Note_on_c, 5, 60, 59
6, 435265, Note_off_c, 5, 60, 0
6, 435360, Note_on_c, 5, 59, 52
6, 435600, Note_off_c, 5, 59, 0
6, 435600, Note_on_c, 5, 57, 61
6, 435985, Note_off_c, 5, 57, 0
6, 436080, Note_on_c, 5, 55, 52
6, 436320, Note_off_c, 5, 55, 0
6, 436320, Note_on_c, 5, 53, 53
6, 436512, Note_off_c, 5, 53, 0
6, 436560, Note_on_c, 5, 55, 48
6, 436752, Note_off_c, 5, 55, 0
6, 436800, Note_on_c, 5, 43, 43
6, 436992, Note_off_c, 5, 43, 0
6, 437040, Note_on_c, 5, 48, 38
6, 437280, Note_off_c, 5, 48, 0
6, 438000, Note_on_c, 5, 52, 49
6, 438120, Note_off_c, 5, 52, 0
6, 438240, Note_on_c, 5, 52, 50
6, 438360, Note_off_c, 5, 52, 0
6, 438480, Note_on_c, 5, 53, 52
6, 438600, Note_off_c, 5, 53, 0
6, 439440, Note_on_c, 5, 57, 58
6, 439560, Note_off_c, 5, 57, 0
6, 439680, Note_on_c, 5, 57, 59
6, 439800, Note_off_c, 5, 57, 0
6, 439920, Note_on_c, 5, 55, 60
6, 440040, Note_off_c, 5, 55, 0
6, 440880, Note_on_c, 5, 55, 66
6, 441000, Note_off_c, 5, 55, 0
6, 441120, Note_on_c, 5, 55, 67
6, 441240, Note_off_c, 5, 55, 0
6, 441360, Note_on_c, 5, 64, 69
6, 441360, Note_on_c, 5, 60, 69
6, 441550, Note_off_c, 5, 64, 0
6, 441550, Note_off_c, 5, 60, 0
6, 442080, Note_on_c, 5, 55, 73
6, 442270, Note_off_c, 5, 55, 0
6, 442800, Note_on_c, 5, 60, 77
6, 442990, Note_off_c, 5, 60, 0
6, 443520, Note_on_c, 5, 55, 82
6, 443710, Note_off_c, 5, 55, 0
6, 444240, Note_on_c, 5, 48, 86
6, 444335, Note_off_c, 5, 48, 0
6, 444360, Note_on_c, 5, 60, 87
6, 444455, Note_off_c, 5, 60, 0
6, 444480, Note_on_c, 5, 64, 87
6, 444575, Note_off_c, 5, 64, 0
6, 444600, Note_on_c, 5, 60, 90
6, 444695, Note_off_c, 5, 60, 0
6, 444720, Note_on_c, 5, 55, 90
6, 444815, Note_off_c, 5, 55, 0
6, 444840, Note_on_c, 5, 52, 91
6, 444935, Note_off_c, 5, 52, 0
6, 444960, Note_on_c, 5, 48, 92
6, 445200, Note_off_c, 5, 48, 0
6, 445440, Control_c, 5, 64, 0
6, 448560, Note_on_c, 5, 38, 60
6, 448800, Note_off_c, 5, 38, 0
6, 448800, Note_on_c, 5, 40, 61
6, 449040, Note_off_c, 5, 40, 0
6, 449040, Note_on_c, 5, 42, 62
6, 449280, Note_off_c, 5, 42, 0
6, 449280, Note_on_c, 5, 43, 64
6, 449520, Note_off_c, 5, 43, 0
6, 449520, Note_on_c, 5, 45, 65
6, 449760, Note_off_c, 5, 45, 0
6, 449760, Note_on_c, 5, 46, 66
6, 450000, Note_off_c, 5, 46, 0
6, 450000, Note_on_c, 5, 48, 67
6, 450240, Note_off_c, 5, 48, 0
6, 450240, Note_on_c, 5, 45, 68
6, 450480, Note_off_c, 5, 45, 0
6, 450480, Note_on_c, 5, 50, 70
6, 450720, Note_off_c, 5, 50, 0
6, 450720, Note_on_c, 5, 55, 71
6, 451120, Note_off_c, 5, 55, 0
6, 454320, Note_on_c, 5, 55, 72
6, 454920, Note_off_c, 5, 55, 0
6, 455040, Note_on_c, 5, 53, 73
6, 455640, Note_off_c, 5, 53, 0
6, 455760, Note_on_c, 5, 36, 74
6, 456000, Note_off_c, 5, 36, 0
6, 456000, Note_on_c, 5, 38, 74
6, 456240, Note_off_c, 5, 38, 0
6, 456240, Note_on_c, 5, 40, 74
6, 456480, Note_off_c, 5, 40, 0
6, 456480, Note_on_c, 5, 41, 75
6, 456720, Note_off_c, 5, 41, 0
6, 456720, Note_on_c, 5, 43, 75
6, 456960, Note_off_c, 5, 43, 0
6, 456960, Note_on_c, 5, 45, 75
6, 457200, Note_off_c, 5, 45, 0
6, 457200, Note_on_c, 5, 52, 75
6, 457800, Note_off_c, 5, 52, 0
6, 457920, Note_on_c, 5, 50, 76
6, 458520, Note_off_c, 5, 50, 0
6, 458640, Note_on_c, 5, 33, 77
6, 458880, Note_off_c, 5, 33, 0
6, 458880, Note_on_c, 5, 35, 78
6, 459120, Note_off_c, 5, 35, 0
6, 459120, Note_on_c, 5, 37, 78
6, 459360, Note_off_c, 5, 37, 0
6, 459360, Note_on_c, 5, 38, 78
6, 459600, Note_off_c, 5, 38, 0
6, 459600, Note_on_c, 5, 40, 79
6, 459840, Note_off_c, 5, 40, 0
6, 459840, Note_on_c, 5, 41, 79
6, 460080, Note_off_c, 5, 41, 0
6, 460080, Note_on_c, 5, 55, 79
6, 460280, Note_off_c, 5, 55, 0
6, 460560, Note_on_c, 5, 70, 69
6, 460760, Note_off_c, 5, 70, 0
6, 460800, Note_on_c, 5, 69, 69
6, 460990, Note_off_c, 5, 69, 0
6, 461280, Note_on_c, 5, 69, 70
6, 461480, Note_off_c, 5, 69, 0
6, 461520, Note_on_c, 5, 67, 70
6, 461710, Note_off_c, 5, 67, 0
6, 462000, Note_on_c, 5, 67, 71
6, 462200, Note_off_c, 5, 67, 0
6, 462240, Note_on_c, 5, 65, 71
6, 462430, Note_off_c, 5, 65, 0
6, 462720, Note_on_c, 5, 65, 72
6, 462920, Note_off_c, 5, 65, 0
6, 463080, Note_on_c, 5, 58, 80
6, 463200, Note_off_c, 5, 58, 0
6, 463200, Note_on_c, 5, 57, 80
6, 463320, Note_off_c, 5, 57, 0
6, 463320, Note_on_c, 5, 58, 81
6, 463440, Note_off_c, 5, 58, 0
6, 463440, Note_on_c, 5, 62, 81
6, 463560, Note_off_c, 5, 62, 0
6, 463560, Note_on_c, 5, 58, 81
6, 463680, Note_off_c, 5, 58, 0
6, 463800, Note_on_c, 5, 57, 82
6, 463920, Note_off_c, 5, 57, 0
6, 463920, Note_on_c, 5, 56, 82
6, 464040, Note_off_c, 5, 56, 0
6, 464040, Note_on_c, 5, 57, 82
6, 464160, Note_off_c, 5, 57, 0
6, 464160, Note_on_c, 5, 61, 83
6, 464280, Note_off_c, 5, 61, 0
6, 464280, Note_on_c, 5, 57, 83
6, 464400, Note_off_c, 5, 57, 0
6, 464520, Note_on_c, 5, 46, 84
6, 464640, Note_off_c, 5, 46, 0
6, 464640, Note_on_c, 5, 45, 84
6, 464760, Note_off_c, 5, 45, 0
6, 464760, Note_on_c, 5, 46, 84
6, 464880, Note_off_c, 5, 46, 0
6, 464880, Note_on_c, 5, 50, 85
6, 465000, Note_off_c, 5, 50, 0
6, 465000, Note_on_c, 5, 46, 85
6, 465120, Note_off_c, 5, 46, 0
6, 465240, Note_on_c, 5, 45, 86
6, 465360, Note_off_c, 5, 45, 0
6, 465360, Note_on_c, 5, 44, 86
6, 465480, Note_off_c, 5, 44, 0
6, 465480, Note_on_c, 5, 45, 86
6, 465600, Note_off_c, 5, 45, 0
6, 465600, Note_on_c, 5, 49, 87
6, 465720, Note_off_c, 5, 49, 0
6, 465720, Note_on_c, 5, 45, 87
6, 465840, Note_off_c, 5, 45, 0
6, 465840, Note_on_c, 5, 33, 87
6, 466080, Note_off_c, 5, 33, 0
6, 467280, Note_on_c, 5, 67, 67
6, 467485, Note_off_c, 5, 67, 0
6, 468000, Note_on_c, 5, 65, 58
6, 468205, Note_off_c, 5, 65, 0
6, 468720, Note_on_c, 5, 70, 51
6, 468925, Note_off_c, 5, 70, 0
6, 469440, Note_on_c, 5, 69, 67
6, 470050, Note_off_c, 5, 69, 0
6, 470160, Note_on_c, 5, 70, 63
6, 470365, Note_off_c, 5, 70, 0
6, 470880, Note_on_c, 5, 55, 60
6, 471085, Note_off_c, 5, 55, 0
6, 471120, Note_on_c, 5, 58, 58
6, 471325, Note_off_c, 5, 58, 0
6, 471360, Note_on_c, 5, 59, 57
6, 471565, Note_off_c, 5, 59, 0
6, 471600, Note_on_c, 5, 60, 56
6, 471805, Note_off_c, 5, 60, 0
6, 473040, Note_on_c, 5, 55, 48
6, 473245, Note_off_c, 5, 55, 0
6, 473760, Note_on_c, 5, 53, 45
6, 473965, Note_off_c, 5, 53, 0
6, 474480, Note_on_c, 5, 58, 41
6, 474685, Note_off_c, 5, 58, 0
6, 475200, Note_on_c, 5, 45, 57
6, 475200, Note_on_c, 5, 57, 57
6, 475920, Note_off_c, 5, 57, 0
6, 475920, Note_on_c, 5, 46, 52
6, 475920, Note_on_c, 5, 58, 52
6, 475945, Note_off_c, 5, 45, 0
6, 476125, Note_off_c, 5, 46, 0
6, 476125, Note_off_c, 5, 58, 0
6, 476880, Note_on_c, 5, 60, 46
6, 477000, Note_off_c, 5, 60, 0
6, 477120, Note_on_c, 5, 48, 44
6, 477200, Note_off_c, 5, 48, 0
6, 477360, Note_on_c, 5, 53, 42
6, 477440, Note_off_c, 5, 53, 0
6, 477600, Note_on_c, 5, 41, 44
6, 477720, Note_off_c, 5, 41, 0
6, 477840, Note_on_c, 5, 41, 45
6, 477960, Note_off_c, 5, 41, 0
6, 478080, Note_on_c, 5, 41, 46
6, 478200, Note_off_c, 5, 41, 0
6, 478320, Note_on_c, 5, 41, 46
6, 478440, Note_off_c, 5, 41, 0
6, 478560, Note_on_c, 5, 41, 47
6, 478680, Note_off_c, 5, 41, 0
6, 478800, Note_on_c, 5, 41, 48
6, 478920, Note_off_c, 5, 41, 0
6, 479040, Note_on_c, 5, 41, 49
6, 479160, Note_off_c, 5, 41, 0
6, 479280, Note_on_c, 5, 41, 49
6, 479400, Note_off_c, 5, 41, 0
6, 479520, Note_on_c, 5, 41, 50
6, 479640, Note_off_c, 5, 41, 0
6, 479760, Note_on_c, 5, 41, 51
6, 479880, Note_off_c, 5, 41, 0
6, 480000, Note_on_c, 5, 41, 52
6, 480120, Note_off_c, 5, 41, 0
6, 480240, Note_on_c, 5, 41, 53
6, 480360, Note_off_c, 5, 41, 0
6, 480480, Note_on_c, 5, 53, 53
6, 480600, Note_off_c, 5, 53, 0
6, 480720, Note_on_c, 5, 53, 54
6, 480840, Note_off_c, 5, 53, 0
6, 480960, Note_on_c, 5, 53, 55
6, 481080, Note_off_c, 5, 53, 0
6, 481200, Note_on_c, 5, 53, 56
6, 481320, Note_off_c, 5, 53, 0
6, 481440, Note_on_c, 5, 53, 56
6, 481560, Note_off_c, 5, 53, 0
6, 481680, Note_on_c, 5, 53, 57
6, 481800, Note_off_c, 5, 53, 0
6, 481920, Note_on_c, 5, 53, 58
6, 482040, Note_off_c, 5, 53, 0
6, 482160, Note_on_c, 5, 53, 59
6, 482280, Note_off_c, 5, 53, 0
6, 482400, Note_on_c, 5, 53, 59
6, 482520, Note_off_c, 5, 53, 0
6, 482640, Note_on_c, 5, 53, 60
6, 482760, Note_off_c, 5, 53, 0
6, 482880, Note_on_c, 5, 53, 61
6, 483000, Note_off_c, 5, 53, 0
6, 483120, Note_on_c, 5, 53, 62
6, 483240, Note_off_c, 5, 53, 0
6, 483360, Note_on_c, 5, 53, 62
6, 483480, Note_off_c, 5, 53, 0
6, 483600, Note_on_c, 5, 53, 63
6, 483720, Note_off_c, 5, 53, 0
6, 483840, Note_on_c, 5, 65, 64
6, 484080, Note_off_c, 5, 65, 0
6, 484440, Note_on_c, 5, 65, 66
6, 484560, Note_off_c, 5, 65, 0
6, 484560, Note_on_c, 5, 64, 66
6, 484800, Note_off_c, 5, 64, 0
6, 485160, Note_on_c, 5, 64, 68
6, 485280, Note_off_c, 5, 64, 0
6, 485280, Note_on_c, 5, 62, 68
6, 485520, Note_off_c, 5, 62, 0
6, 485880, Note_on_c, 5, 62, 70
6, 486000, Note_off_c, 5, 62, 0
6, 486000, Note_on_c, 5, 60, 71
6, 486240, Note_off_c, 5, 60, 0
6, 486720, Note_on_c, 5, 70, 73
6, 486960, Note_off_c, 5, 70, 0
6, 487320, Note_on_c, 5, 70, 75
6, 487440, Note_off_c, 5, 70, 0
6, 487440, Note_on_c, 5, 69, 75
6, 487680, Note_off_c, 5, 69, 0
6, 488040, Note_on_c, 5, 69, 77
6, 488160, Note_off_c, 5, 69, 0
6, 488160, Note_on_c, 5, 67, 78
6, 488400, Note_off_c, 5, 67, 0
6, 488760, Note_on_c, 5, 67, 79
6, 488880, Note_off_c, 5, 67, 0
6, 488880, Note_on_c, 5, 65, 80
6, 489120, Note_off_c, 5, 65, 0
6, 489480, Note_on_c, 5, 65, 82
6, 489600, Note_off_c, 5, 65, 0
6, 489600, Note_on_c, 5, 70, 82
6, 490080, Note_off_c, 5, 70, 0
6, 491520, Note_on_c, 5, 59, 75
6, 491760, Note_off_c, 5, 59, 0
6, 491760, Note_on_c, 5, 60, 70
6, 491950, Note_off_c, 5, 60, 0
6, 492240, Note_on_c, 5, 47, 80
6, 492480, Note_off_c, 5, 47, 0
6, 492480, Note_on_c, 5, 48, 79
6, 492670, Note_off_c, 5, 48, 0
6, 492960, Note_on_c, 5, 71, 66
6, 493200, Note_off_c, 5, 71, 0
6, 493200, Note_on_c, 5, 72, 62
6, 493390, Note_off_c, 5, 72, 0
6, 493680, Note_on_c, 5, 59, 74
6, 493920, Note_off_c, 5, 59, 0
6, 493920, Note_on_c, 5, 60, 72
6, 494110, Note_off_c, 5, 60, 0
6, 494400, Note_on_c, 5, 47, 60
6, 494640, Note_off_c, 5, 47, 0
6, 494640, Note_on_c, 5, 48, 57
6, 494830, Note_off_c, 5, 48, 0
6, 495120, Note_on_c, 5, 35, 67
6, 495360, Note_off_c, 5, 35, 0
6, 495360, Note_on_c, 5, 36, 66
6, 495600, Note_off_c, 5, 36, 0
6, 498960, Note_on_c, 5, 65, 58
6, 499140, Note_off_c, 5, 65, 0
6, 499200, Note_on_c, 5, 69, 60
6, 499380, Note_off_c, 5, 69, 0
6, 499440, Note_on_c, 5, 65, 63
6, 499620, Note_off_c, 5, 65, 0
6, 499680, Note_on_c, 5, 64, 68
6, 499860, Note_off_c, 5, 64, 0
6, 499920, Note_on_c, 5, 67, 63
6, 500100, Note_off_c, 5, 67, 0
6, 500160, Note_on_c, 5, 64, 59
6, 500340, Note_off_c, 5, 64, 0
6, 500400, Note_on_c, 5, 65, 58
6, 500580, Note_off_c, 5, 65, 0
6, 500640, Note_on_c, 5, 69, 61
6, 500820, Note_off_c, 5, 69, 0
6, 500880, Note_on_c, 5, 65, 63
6, 501060, Note_off_c, 5, 65, 0
6, 501120, Note_on_c, 5, 64, 68
6, 501300, Note_off_c, 5, 64, 0
6, 501360, Note_on_c, 5, 67, 64
6, 501540, Note_off_c, 5, 67, 0
6, 501600, Note_on_c, 5, 64, 60
6, 501780, Note_off_c, 5, 64, 0
6, 501840, Note_on_c, 5, 65, 57
6, 501960, Note_on_c, 5, 69, 57
6, 502020, Note_off_c, 5, 65, 0
6, 502080, Note_off_c, 5, 69, 0
6, 502080, Note_on_c, 5, 72, 58
6, 502200, Note_off_c, 5, 72, 0
6, 502200, Note_on_c, 5, 77, 60
6, 502320, Note_off_c, 5, 77, 0
6, 502320, Note_on_c, 5, 76, 61
6, 502440, Note_off_c, 5, 76, 0
6, 502440, Note_on_c, 5, 77, 63
6, 502560, Note_off_c, 5, 77, 0
6, 502560, Note_on_c, 5, 77, 69
6, 503040, Note_off_c, 5, 77, 0
6, 503040, Note_on_c, 5, 76, 59
6, 503280, Note_off_c, 5, 76, 0
6, 503280, Note_on_c, 5, 74, 67
6, 503760, Note_off_c, 5, 74, 0
6, 503760, Note_on_c, 5, 71, 55
6, 504000, Note_off_c, 5, 71, 0
6, 504000, Note_on_c, 5, 72, 60
6, 504240, Note_off_c, 5, 72, 0
6, 504720, Note_on_c, 5, 55, 56
6, 505055, Note_off_c, 5, 55, 0
6, 505080, Note_on_c, 5, 55, 58
6, 505190, Note_off_c, 5, 55, 0
6, 505200, Note_on_c, 5, 55, 60
6, 505415, Note_off_c, 5, 55, 0
6, 505440, Note_on_c, 5, 55, 63
6, 505500, Note_off_c, 5, 55, 0
6, 505500, Note_on_c, 5, 57, 64
6, 505560, Note_on_c, 5, 58, 67
6, 505565, Note_off_c, 5, 57, 0
6, 505800, Note_off_c, 5, 58, 0
6, 505800, Note_on_c, 5, 57, 60
6, 505905, Note_off_c, 5, 57, 0
6, 505920, Note_on_c, 5, 55, 56
6, 506130, Note_off_c, 5, 55, 0
6, 506160, Note_on_c, 5, 55, 55
6, 506495, Note_off_c, 5, 55, 0
6, 506520, Note_on_c, 5, 55, 56
6, 506630, Note_off_c, 5, 55, 0
6, 506640, Note_on_c, 5, 55, 57
6, 506855, Note_off_c, 5, 55, 0
6, 506880, Note_on_c, 5, 55, 60
6, 506940, Note_off_c, 5, 55, 0
6, 506940, Note_on_c, 5, 57, 61
6, 507000, Note_on_c, 5, 58, 65
6, 507005, Note_off_c, 5, 57, 0
6, 507240, Note_off_c, 5, 58, 0
6, 507240, Note_on_c, 5, 57, 60
6, 507345, Note_off_c, 5, 57, 0
6, 507360, Note_on_c, 5, 55, 58
6, 507570, Note_off_c, 5, 55, 0
6, 507600, Note_on_c, 5, 53, 55
6, 507840, Note_off_c, 5, 53, 0
6, 508320, Note_on_c, 5, 52, 65
6, 508320, Note_on_c, 5, 40, 65
6, 509040, Note_off_c, 5, 52, 0
6, 509040, Note_off_c, 5, 40, 0
6, 509040, Note_on_c, 5, 41, 54
6, 509040, Note_on_c, 5, 53, 54
6, 509280, Note_off_c, 5, 41, 0
6, 509280, Note_off_c, 5, 53, 0
6, 509760, Note_on_c, 5, 40, 67
6, 509760, Note_on_c, 5, 52, 67
6, 510480, Note_off_c, 5, 40, 0
6, 510480, Note_off_c, 5, 52, 0
6, 510480, Note_on_c, 5, 53, 54
6, 510480, Note_on_c, 5, 41, 54
6, 510720, Note_off_c, 5, 53, 0
6, 510720, Note_off_c, 5, 41, 0
6, 511200, Note_on_c, 5, 65, 69
6, 511680, Note_off_c, 5, 65, 0
6, 511680, Note_on_c, 5, 64, 62
6, 511920, Note_off_c, 5, 64, 0
6, 511920, Note_on_c, 5, 62, 69
6, 512400, Note_off_c, 5, 62, 0
6, 512400, Note_on_c, 5, 60, 59
6, 512640, Note_off_c, 5, 60, 0
6, 512640, Note_on_c, 5, 58, 61
6, 512832, Note_off_c, 5, 58, 0
6, 512880, Note_on_c, 5, 60, 60
6, 513072, Note_off_c, 5, 60, 0
6, 513120, Note_on_c, 5, 48, 59
6, 513312, Note_off_c, 5, 48, 0
6, 513360, Note_on_c, 5, 53, 56
6, 513600, Note_off_c, 5, 53, 0
6, 514080, Note_on_c, 5, 53, 69
6, 514560, Note_off_c, 5, 53, 0
6, 514560, Note_on_c, 5, 52, 61
6, 514800, Note_off_c, 5, 52, 0
6, 514800, Note_on_c, 5, 50, 65
6, 515280, Note_off_c, 5, 50, 0
6, 515280, Note_on_c, 5, 48, 60
6, 515520, Note_off_c, 5, 48, 0
6, 515520, Note_on_c, 5, 46, 60
6, 515712, Note_off_c, 5, 46, 0
6, 515760, Note_on_c, 5, 48, 56
6, 515952, Note_off_c, 5, 48, 0
6, 516000, Note_on_c, 5, 36, 52
6, 516192, Note_off_c, 5, 36, 0
6, 516240, Note_on_c, 5, 41, 48
6, 516480, Note_off_c, 5, 41, 0
6, 517200, Note_on_c, 5, 57, 53
6, 517320, Note_off_c, 5, 57, 0
6, 517440, Note_on_c, 5, 57, 54
6, 517560, Note_off_c, 5, 57, 0
6, 517680, Note_on_c, 5, 58, 55
6, 517800, Note_off_c, 5, 58, 0
6, 518640, Note_on_c, 5, 62, 60
6, 518760, Note_off_c, 5, 62, 0
6, 518880, Note_on_c, 5, 62, 61
6, 519000, Note_off_c, 5, 62, 0
6, 519120, Note_on_c, 5, 60, 62
6, 519240, Note_off_c, 5, 60, 0
6, 520080, Note_on_c, 5, 60, 66
6, 520200, Note_off_c, 5, 60, 0
6, 520320, Note_on_c, 5, 60, 67
6, 520440, Note_off_c, 5, 60, 0
6, 520560, Note_on_c, 5, 65, 68
6, 520800, Note_off_c, 5, 65, 0
6, 521280, Note_on_c, 5, 60, 71
6, 521520, Note_off_c, 5, 60, 0
6, 522000, Note_on_c, 5, 65, 75
6, 522240, Note_off_c, 5, 65, 0
6, 522720, Note_on_c, 5, 48, 78
6, 522960, Note_off_c, 5, 48, 0
6, 523440, Note_on_c, 5, 41, 81
6, 523620, Note_off_c, 5, 41, 0
6, 523920, Note_on_c, 5, 55, 83
6, 524100, Note_off_c, 5, 55, 0
6, 524160, Note_on_c, 5, 57, 84
6, 524340, Note_off_c, 5, 57, 0
6, 524400, Note_on_c, 5, 48, 85
6, 524580, Note_off_c, 5, 48, 0
6, 524640, Note_on_c, 5, 45, 86
6, 524820, Note_off_c, 5, 45, 0
6, 524880, Note_on_c, 5, 41, 87
6, 525070, Note_off_c, 5, 41, 0
6, 525120, Note_on_c, 5, 45, 89
6, 525310, Note_off_c, 5, 45, 0
6, 525360, Note_on_c, 5, 48, 90
6, 525550, Note_off_c, 5, 48, 0
6, 525600, Note_on_c, 5, 41, 91
6, 525790, Note_off_c, 5, 41, 0
6, 526320, End_track
0, 0, End_of_file