0, 0, Header, 1, 3, 192
1, 0, Start_track
1, 0, Title_t, "Sonatina 62"
1, 0, Text_t, "By W. A. Mozart"
1, 0, Copyright_t, "Copyright \251 <Year> by <Name>"
1, 0, Copyright_t, "All Rights Reserved"
1, 0, Text_t, "Generated by NoteWorthy Composer"
1, 0, Tempo, 500000
1, 0, Key_signature, 0, "major"
1, 0, Time_signature, 3, 2, 24, 8
1, 6912, Tempo, 500000
1, 37056, Key_signature, -1, "major"
1, 55296, Tempo, 500000
1, 55296, Key_signature, 0, "major"
1, 55296, End_track
2, 0, Start_track
2, 0, MIDI_port, 0
2, 0, Title_t, "Right Hand"
2, 0, Program_c, 0, 0
2, 0, Control_c, 0, 7, 127
2, 0, Control_c, 0, 10, 64
2, 0, Note_on_c, 0, 79, 45
2, 48, Note_on_c, 0, 79, 0
2, 192, Note_on_c, 0, 77, 45
2, 384, Note_on_c, 0, 77, 0
2, 384, Note_on_c, 0, 76, 45
2, 544, Note_on_c, 0, 76, 0
2, 576, Note_on_c, 0, 77, 45
2, 624, Note_on_c, 0, 77, 0
2, 768, Note_on_c, 0, 76, 45
2, 960, Note_on_c, 0, 76, 0
2, 960, Note_on_c, 0, 74, 45
2, 1120, Note_on_c, 0, 74, 0
2, 1152, Note_on_c, 0, 71, 45
2, 1344, Note_on_c, 0, 71, 0
2, 1344, Note_on_c, 0, 72, 45
2, 1536, Note_on_c, 0, 72, 0
2, 1536, Note_on_c, 0, 71, 45
2, 1536, Note_on_c, 0, 77, 45
2, 1728, Note_on_c, 0, 71, 0
2, 1728, Note_on_c, 0, 77, 0
2, 1728, Note_on_c, 0, 72, 45
2, 1728, Note_on_c, 0, 76, 45
2, 1888, Note_on_c, 0, 72, 0
2, 1888, Note_on_c, 0, 76, 0
2, 1920, Note_on_c, 0, 72, 45
2, 1920, Note_on_c, 0, 76, 45
2, 2112, Note_on_c, 0, 72, 0
2, 2112, Note_on_c, 0, 76, 0
2, 2112, Note_on_c, 0, 71, 45
2, 2112, Note_on_c, 0, 74, 45
2, 2272, Note_on_c, 0, 71, 0
2, 2272, Note_on_c, 0, 74, 0
2, 2304, Note_on_c, 0, 74, 92
2, 2352, Note_on_c, 0, 74, 0
2, 2496, Note_on_c, 0, 76, 92
2, 2544, Note_on_c, 0, 76, 0
2, 2688, Note_on_c, 0, 78, 92
2, 2736, Note_on_c, 0, 78, 0
2, 2880, Note_on_c, 0, 80, 92
2, 2928, Note_on_c, 0, 80, 0
2, 3072, Note_on_c, 0, 81, 92
2, 3360, Note_on_c, 0, 81, 0
2, 3360, Note_on_c, 0, 83, 92
2, 3456, Note_on_c, 0, 83, 0
2, 3456, Note_on_c, 0, 84, 92
2, 3616, Note_on_c, 0, 84, 0
2, 3648, Note_on_c, 0, 74, 92
2, 3936, Note_on_c, 0, 74, 0
2, 3936, Note_on_c, 0, 76, 69
2, 4032, Note_on_c, 0, 76, 0
2, 4032, Note_on_c, 0, 78, 61
2, 4192, Note_on_c, 0, 78, 0
2, 4224, Note_on_c, 0, 79, 45
2, 4384, Note_on_c, 0, 79, 0
2, 4800, Note_on_c, 0, 74, 45
2, 4896, Note_on_c, 0, 74, 0
2, 4896, Note_on_c, 0, 76, 45
2, 4992, Note_on_c, 0, 76, 0
2, 4992, Note_on_c, 0, 78, 45
2, 5088, Note_on_c, 0, 78, 0
2, 5088, Note_on_c, 0, 79, 45
2, 5184, Note_on_c, 0, 79, 0
2, 5184, Note_on_c, 0, 81, 45
2, 5280, Note_on_c, 0, 81, 0
2, 5280, Note_on_c, 0, 78, 45
2, 5374, Note_on_c, 0, 78, 0
2, 5376, Note_on_c, 0, 79, 45
2, 5536, Note_on_c, 0, 79, 0
2, 5952, Note_on_c, 0, 74, 45
2, 6048, Note_on_c, 0, 74, 0
2, 6048, Note_on_c, 0, 76, 43
2, 6144, Note_on_c, 0, 76, 0
2, 6144, Note_on_c, 0, 78, 41
2, 6240, Note_on_c, 0, 78, 0
2, 6240, Note_on_c, 0, 79, 39
2, 6336, Note_on_c, 0, 79, 0
2, 6336, Note_on_c, 0, 81, 36
2, 6432, Note_on_c, 0, 81, 0
2, 6432, Note_on_c, 0, 78, 33
2, 6526, Note_on_c, 0, 78, 0
2, 6528, Note_on_c, 0, 79, 30
2, 6688, Note_on_c, 0, 79, 0
2, 6912, Note_on_c, 0, 79, 45
2, 6960, Note_on_c, 0, 79, 0
2, 7104, Note_on_c, 0, 77, 45
2, 7296, Note_on_c, 0, 77, 0
2, 7296, Note_on_c, 0, 76, 45
2, 7456, Note_on_c, 0, 76, 0
2, 7488, Note_on_c, 0, 77, 45
2, 7536, Note_on_c, 0, 77, 0
2, 7680, Note_on_c, 0, 76, 45
2, 7872, Note_on_c, 0, 76, 0
2, 7872, Note_on_c, 0, 74, 45
2, 8032, Note_on_c, 0, 74, 0
2, 8064, Note_on_c, 0, 71, 45
2, 8256, Note_on_c, 0, 71, 0
2, 8256, Note_on_c, 0, 72, 45
2, 8448, Note_on_c, 0, 72, 0
2, 8448, Note_on_c, 0, 71, 45
2, 8448, Note_on_c, 0, 77, 45
2, 8640, Note_on_c, 0, 71, 0
2, 8640, Note_on_c, 0, 77, 0
2, 8640, Note_on_c, 0, 72, 45
2, 8640, Note_on_c, 0, 76, 45
2, 8800, Note_on_c, 0, 72, 0
2, 8800, Note_on_c, 0, 76, 0
2, 8832, Note_on_c, 0, 72, 45
2, 8832, Note_on_c, 0, 76, 45
2, 9024, Note_on_c, 0, 72, 0
2, 9024, Note_on_c, 0, 76, 0
2, 9024, Note_on_c, 0, 71, 45
2, 9024, Note_on_c, 0, 74, 45
2, 9184, Note_on_c, 0, 71, 0
2, 9184, Note_on_c, 0, 74, 0
2, 9216, Note_on_c, 0, 74, 92
2, 9264, Note_on_c, 0, 74, 0
2, 9408, Note_on_c, 0, 76, 92
2, 9456, Note_on_c, 0, 76, 0
2, 9600, Note_on_c, 0, 78, 92
2, 9648, Note_on_c, 0, 78, 0
2, 9792, Note_on_c, 0, 80, 92
2, 9840, Note_on_c, 0, 80, 0
2, 9984, Note_on_c, 0, 81, 92
2, 10272, Note_on_c, 0, 81, 0
2, 10272, Note_on_c, 0, 83, 92
2, 10368, Note_on_c, 0, 83, 0
2, 10368, Note_on_c, 0, 84, 92
2, 10528, Note_on_c, 0, 84, 0
2, 10560, Note_on_c, 0, 74, 92
2, 10848, Note_on_c, 0, 74, 0
2, 10848, Note_on_c, 0, 76, 69
2, 10944, Note_on_c, 0, 76, 0
2, 10944, Note_on_c, 0, 78, 61
2, 11104, Note_on_c, 0, 78, 0
2, 11136, Note_on_c, 0, 79, 45
2, 11296, Note_on_c, 0, 79, 0
2, 11712, Note_on_c, 0, 74, 45
2, 11808, Note_on_c, 0, 74, 0
2, 11808, Note_on_c, 0, 76, 45
2, 11904, Note_on_c, 0, 76, 0
2, 11904, Note_on_c, 0, 78, 45
2, 12000, Note_on_c, 0, 78, 0
2, 12000, Note_on_c, 0, 79, 45
2, 12096, Note_on_c, 0, 79, 0
2, 12096, Note_on_c, 0, 81, 45
2, 12192, Note_on_c, 0, 81, 0
2, 12192, Note_on_c, 0, 78, 45
2, 12286, Note_on_c, 0, 78, 0
2, 12288, Note_on_c, 0, 79, 45
2, 12448, Note_on_c, 0, 79, 0
2, 12864, Note_on_c, 0, 74, 45
2, 12960, Note_on_c, 0, 74, 0
2, 12960, Note_on_c, 0, 76, 43
2, 13056, Note_on_c, 0, 76, 0
2, 13056, Note_on_c, 0, 78, 41
2, 13152, Note_on_c, 0, 78, 0
2, 13152, Note_on_c, 0, 79, 39
2, 13248, Note_on_c, 0, 79, 0
2, 13248, Note_on_c, 0, 81, 36
2, 13344, Note_on_c, 0, 81, 0
2, 13344, Note_on_c, 0, 78, 33
2, 13438, Note_on_c, 0, 78, 0
2, 13440, Note_on_c, 0, 79, 30
2, 13600, Note_on_c, 0, 79, 0
2, 13824, Note_on_c, 0, 79, 92
2, 13872, Note_on_c, 0, 79, 0
2, 14016, Note_on_c, 0, 74, 92
2, 14208, Note_on_c, 0, 74, 0
2, 14208, Note_on_c, 0, 73, 92
2, 14368, Note_on_c, 0, 73, 0
2, 14400, Note_on_c, 0, 79, 92
2, 14448, Note_on_c, 0, 79, 0
2, 14592, Note_on_c, 0, 70, 92
2, 14784, Note_on_c, 0, 70, 0
2, 14784, Note_on_c, 0, 69, 92
2, 14944, Note_on_c, 0, 69, 0
2, 14976, Note_on_c, 0, 79, 45
2, 14976, Note_on_c, 0, 82, 45
2, 15360, Note_on_c, 0, 79, 0
2, 15360, Note_on_c, 0, 82, 0
2, 15360, Note_on_c, 0, 77, 45
2, 15360, Note_on_c, 0, 81, 45
2, 15552, Note_on_c, 0, 77, 0
2, 15552, Note_on_c, 0, 81, 0
2, 15552, Note_on_c, 0, 76, 45
2, 15552, Note_on_c, 0, 79, 45
2, 15936, Note_on_c, 0, 76, 0
2, 15936, Note_on_c, 0, 79, 0
2, 15936, Note_on_c, 0, 74, 45
2, 15936, Note_on_c, 0, 77, 45
2, 16096, Note_on_c, 0, 74, 0
2, 16096, Note_on_c, 0, 77, 0
2, 16128, Note_on_c, 0, 72, 45
2, 16128, Note_on_c, 0, 81, 45
2, 16288, Note_on_c, 0, 72, 0
2, 16320, Note_on_c, 0, 71, 45
2, 16512, Note_on_c, 0, 71, 0
2, 16512, Note_on_c, 0, 81, 0
2, 16512, Note_on_c, 0, 72, 45
2, 16512, Note_on_c, 0, 79, 45
2, 16704, Note_on_c, 0, 72, 0
2, 16704, Note_on_c, 0, 79, 0
2, 16704, Note_on_c, 0, 74, 45
2, 16704, Note_on_c, 0, 77, 45
2, 17088, Note_on_c, 0, 74, 0
2, 17088, Note_on_c, 0, 77, 0
2, 17088, Note_on_c, 0, 72, 45
2, 17088, Note_on_c, 0, 76, 45
2, 17248, Note_on_c, 0, 72, 0
2, 17248, Note_on_c, 0, 76, 0
2, 17280, Note_on_c, 0, 70, 45
2, 17280, Note_on_c, 0, 79, 45
2, 17440, Note_on_c, 0, 70, 0
2, 17472, Note_on_c, 0, 69, 45
2, 17664, Note_on_c, 0, 79, 0
2, 17664, Note_on_c, 0, 77, 45
2, 17808, Note_on_c, 0, 69, 0
2, 17856, Note_on_c, 0, 77, 0
2, 17856, Note_on_c, 0, 65, 45
2, 17856, Note_on_c, 0, 74, 45
2, 18016, Note_on_c, 0, 65, 0
2, 18016, Note_on_c, 0, 74, 0
2, 18048, Note_on_c, 0, 64, 45
2, 18048, Note_on_c, 0, 72, 45
2, 18240, Note_on_c, 0, 64, 0
2, 18240, Note_on_c, 0, 72, 0
2, 18240, Note_on_c, 0, 62, 45
2, 18240, Note_on_c, 0, 71, 45
2, 18400, Note_on_c, 0, 62, 0
2, 18400, Note_on_c, 0, 71, 0
2, 18432, Note_on_c, 0, 79, 45
2, 18480, Note_on_c, 0, 79, 0
2, 18624, Note_on_c, 0, 77, 45
2, 18816, Note_on_c, 0, 77, 0
2, 18816, Note_on_c, 0, 76, 45
2, 18976, Note_on_c, 0, 76, 0
2, 19008, Note_on_c, 0, 77, 45
2, 19056, Note_on_c, 0, 77, 0
2, 19200, Note_on_c, 0, 76, 45
2, 19392, Note_on_c, 0, 76, 0
2, 19392, Note_on_c, 0, 74, 45
2, 19552, Note_on_c, 0, 74, 0
2, 19584, Note_on_c, 0, 71, 45
2, 19776, Note_on_c, 0, 71, 0
2, 19776, Note_on_c, 0, 72, 45
2, 19968, Note_on_c, 0, 72, 0
2, 19968, Note_on_c, 0, 71, 45
2, 19968, Note_on_c, 0, 77, 45
2, 20160, Note_on_c, 0, 71, 0
2, 20160, Note_on_c, 0, 77, 0
2, 20160, Note_on_c, 0, 72, 45
2, 20160, Note_on_c, 0, 76, 45
2, 20320, Note_on_c, 0, 72, 0
2, 20320, Note_on_c, 0, 76, 0
2, 20352, Note_on_c, 0, 72, 45
2, 20352, Note_on_c, 0, 76, 45
2, 20544, Note_on_c, 0, 72, 0
2, 20544, Note_on_c, 0, 76, 0
2, 20544, Note_on_c, 0, 71, 45
2, 20544, Note_on_c, 0, 74, 45
2, 20704, Note_on_c, 0, 71, 0
2, 20704, Note_on_c, 0, 74, 0
2, 20736, Note_on_c, 0, 67, 92
2, 20736, Note_on_c, 0, 74, 92
2, 20784, Note_on_c, 0, 67, 0
2, 20784, Note_on_c, 0, 74, 0
2, 20928, Note_on_c, 0, 72, 92
2, 20928, Note_on_c, 0, 76, 92
2, 20976, Note_on_c, 0, 72, 0
2, 20976, Note_on_c, 0, 76, 0
2, 21120, Note_on_c, 0, 72, 92
2, 21120, Note_on_c, 0, 77, 92
2, 21168, Note_on_c, 0, 72, 0
2, 21168, Note_on_c, 0, 77, 0
2, 21312, Note_on_c, 0, 72, 92
2, 21312, Note_on_c, 0, 79, 92
2, 21360, Note_on_c, 0, 72, 0
2, 21360, Note_on_c, 0, 79, 0
2, 21504, Note_on_c, 0, 72, 92
2, 21504, Note_on_c, 0, 81, 92
2, 21792, Note_on_c, 0, 81, 0
2, 21792, Note_on_c, 0, 83, 92
2, 21888, Note_on_c, 0, 83, 0
2, 21888, Note_on_c, 0, 84, 92
2, 22032, Note_on_c, 0, 72, 0
2, 22048, Note_on_c, 0, 84, 0
2, 22080, Note_on_c, 0, 72, 92
2, 22080, Note_on_c, 0, 76, 92
2, 22368, Note_on_c, 0, 72, 0
2, 22368, Note_on_c, 0, 76, 0
2, 22368, Note_on_c, 0, 76, 69
2, 22368, Note_on_c, 0, 79, 69
2, 22464, Note_on_c, 0, 76, 0
2, 22464, Note_on_c, 0, 79, 0
2, 22464, Note_on_c, 0, 74, 61
2, 22464, Note_on_c, 0, 77, 61
2, 22560, Note_on_c, 0, 74, 0
2, 22560, Note_on_c, 0, 77, 0
2, 22560, Note_on_c, 0, 71, 53
2, 22560, Note_on_c, 0, 74, 53
2, 22654, Note_on_c, 0, 71, 0
2, 22654, Note_on_c, 0, 74, 0
2, 22656, Note_on_c, 0, 72, 45
2, 22816, Note_on_c, 0, 72, 0
2, 23232, Note_on_c, 0, 71, 45
2, 23328, Note_on_c, 0, 71, 0
2, 23328, Note_on_c, 0, 72, 45
2, 23424, Note_on_c, 0, 72, 0
2, 23424, Note_on_c, 0, 74, 45
2, 23520, Note_on_c, 0, 74, 0
2, 23520, Note_on_c, 0, 76, 45
2, 23616, Note_on_c, 0, 76, 0
2, 23616, Note_on_c, 0, 77, 45
2, 23712, Note_on_c, 0, 77, 0
2, 23712, Note_on_c, 0, 74, 45
2, 23806, Note_on_c, 0, 74, 0
2, 23808, Note_on_c, 0, 79, 45
2, 23904, Note_on_c, 0, 79, 0
2, 23904, Note_on_c, 0, 84, 45
2, 24000, Note_on_c, 0, 84, 0
2, 24000, Note_on_c, 0, 83, 45
2, 24096, Note_on_c, 0, 83, 0
2, 24096, Note_on_c, 0, 82, 45
2, 24192, Note_on_c, 0, 82, 0
2, 24192, Note_on_c, 0, 81, 45
2, 24288, Note_on_c, 0, 81, 0
2, 24288, Note_on_c, 0, 80, 45
2, 24382, Note_on_c, 0, 80, 0
2, 24384, Note_on_c, 0, 79, 45
2, 24480, Note_on_c, 0, 79, 0
2, 24480, Note_on_c, 0, 78, 45
2, 24576, Note_on_c, 0, 78, 0
2, 24576, Note_on_c, 0, 77, 45
2, 24672, Note_on_c, 0, 77, 0
2, 24672, Note_on_c, 0, 76, 45
2, 24768, Note_on_c, 0, 76, 0
2, 24768, Note_on_c, 0, 77, 45
2, 24864, Note_on_c, 0, 77, 0
2, 24864, Note_on_c, 0, 74, 45
2, 24958, Note_on_c, 0, 74, 0
2, 24960, Note_on_c, 0, 72, 45
2, 25120, Note_on_c, 0, 72, 0
2, 25344, Note_on_c, 0, 79, 92
2, 25392, Note_on_c, 0, 79, 0
2, 25536, Note_on_c, 0, 74, 92
2, 25728, Note_on_c, 0, 74, 0
2, 25728, Note_on_c, 0, 73, 92
2, 25888, Note_on_c, 0, 73, 0
2, 25920, Note_on_c, 0, 79, 92
2, 25968, Note_on_c, 0, 79, 0
2, 26112, Note_on_c, 0, 70, 92
2, 26304, Note_on_c, 0, 70, 0
2, 26304, Note_on_c, 0, 69, 92
2, 26464, Note_on_c, 0, 69, 0
2, 26496, Note_on_c, 0, 79, 45
2, 26496, Note_on_c, 0, 82, 45
2, 26880, Note_on_c, 0, 79, 0
2, 26880, Note_on_c, 0, 82, 0
2, 26880, Note_on_c, 0, 77, 45
2, 26880, Note_on_c, 0, 81, 45
2, 27072, Note_on_c, 0, 77, 0
2, 27072, Note_on_c, 0, 81, 0
2, 27072, Note_on_c, 0, 76, 45
2, 27072, Note_on_c, 0, 79, 45
2, 27456, Note_on_c, 0, 76, 0
2, 27456, Note_on_c, 0, 79, 0
2, 27456, Note_on_c, 0, 74, 45
2, 27456, Note_on_c, 0, 77, 45
2, 27616, Note_on_c, 0, 74, 0
2, 27616, Note_on_c, 0, 77, 0
2, 27648, Note_on_c, 0, 72, 45
2, 27648, Note_on_c, 0, 81, 45
2, 27808, Note_on_c, 0, 72, 0
2, 27840, Note_on_c, 0, 71, 45
2, 28032, Note_on_c, 0, 71, 0
2, 28032, Note_on_c, 0, 81, 0
2, 28032, Note_on_c, 0, 72, 45
2, 28032, Note_on_c, 0, 79, 45
2, 28224, Note_on_c, 0, 72, 0
2, 28224, Note_on_c, 0, 79, 0
2, 28224, Note_on_c, 0, 74, 45
2, 28224, Note_on_c, 0, 77, 45
2, 28608, Note_on_c, 0, 74, 0
2, 28608, Note_on_c, 0, 77, 0
2, 28608, Note_on_c, 0, 72, 45
2, 28608, Note_on_c, 0, 76, 45
2, 28768, Note_on_c, 0, 72, 0
2, 28768, Note_on_c, 0, 76, 0
2, 28800, Note_on_c, 0, 70, 45
2, 28800, Note_on_c, 0, 79, 45
2, 28960, Note_on_c, 0, 70, 0
2, 28992, Note_on_c, 0, 69, 45
2, 29184, Note_on_c, 0, 79, 0
2, 29184, Note_on_c, 0, 77, 45
2, 29328, Note_on_c, 0, 69, 0
2, 29376, Note_on_c, 0, 77, 0
2, 29376, Note_on_c, 0, 65, 45
2, 29376, Note_on_c, 0, 74, 45
2, 29536, Note_on_c, 0, 65, 0
2, 29536, Note_on_c, 0, 74, 0
2, 29568, Note_on_c, 0, 64, 45
2, 29568, Note_on_c, 0, 72, 45
2, 29760, Note_on_c, 0, 64, 0
2, 29760, Note_on_c, 0, 72, 0
2, 29760, Note_on_c, 0, 62, 45
2, 29760, Note_on_c, 0, 71, 45
2, 29920, Note_on_c, 0, 62, 0
2, 29920, Note_on_c, 0, 71, 0
2, 29952, Note_on_c, 0, 79, 45
2, 30000, Note_on_c, 0, 79, 0
2, 30144, Note_on_c, 0, 77, 45
2, 30336, Note_on_c, 0, 77, 0
2, 30336, Note_on_c, 0, 76, 45
2, 30496, Note_on_c, 0, 76, 0
2, 30528, Note_on_c, 0, 77, 45
2, 30576, Note_on_c, 0, 77, 0
2, 30720, Note_on_c, 0, 76, 45
2, 30912, Note_on_c, 0, 76, 0
2, 30912, Note_on_c, 0, 74, 45
2, 31072, Note_on_c, 0, 74, 0
2, 31104, Note_on_c, 0, 71, 45
2, 31296, Note_on_c, 0, 71, 0
2, 31296, Note_on_c, 0, 72, 45
2, 31488, Note_on_c, 0, 72, 0
2, 31488, Note_on_c, 0, 71, 45
2, 31488, Note_on_c, 0, 77, 45
2, 31680, Note_on_c, 0, 71, 0
2, 31680, Note_on_c, 0, 77, 0
2, 31680, Note_on_c, 0, 72, 45
2, 31680, Note_on_c, 0, 76, 45
2, 31840, Note_on_c, 0, 72, 0
2, 31840, Note_on_c, 0, 76, 0
2, 31872, Note_on_c, 0, 72, 45
2, 31872, Note_on_c, 0, 76, 45
2, 32064, Note_on_c, 0, 72, 0
2, 32064, Note_on_c, 0, 76, 0
2, 32064, Note_on_c, 0, 71, 45
2, 32064, Note_on_c, 0, 74, 45
2, 32224, Note_on_c, 0, 71, 0
2, 32224, Note_on_c, 0, 74, 0
2, 32256, Note_on_c, 0, 67, 92
2, 32256, Note_on_c, 0, 74, 92
2, 32304, Note_on_c, 0, 67, 0
2, 32304, Note_on_c, 0, 74, 0
2, 32448, Note_on_c, 0, 72, 92
2, 32448, Note_on_c, 0, 76, 92
2, 32496, Note_on_c, 0, 72, 0
2, 32496, Note_on_c, 0, 76, 0
2, 32640, Note_on_c, 0, 72, 92
2, 32640, Note_on_c, 0, 77, 92
2, 32688, Note_on_c, 0, 72, 0
2, 32688, Note_on_c, 0, 77, 0
2, 32832, Note_on_c, 0, 72, 92
2, 32832, Note_on_c, 0, 79, 92
2, 32880, Note_on_c, 0, 72, 0
2, 32880, Note_on_c, 0, 79, 0
2, 33024, Note_on_c, 0, 72, 92
2, 33024, Note_on_c, 0, 81, 92
2, 33312, Note_on_c, 0, 81, 0
2, 33312, Note_on_c, 0, 83, 92
2, 33408, Note_on_c, 0, 83, 0
2, 33408, Note_on_c, 0, 84, 92
2, 33552, Note_on_c, 0, 72, 0
2, 33568, Note_on_c, 0, 84, 0
2, 33600, Note_on_c, 0, 72, 92
2, 33600, Note_on_c, 0, 76, 92
2, 33888, Note_on_c, 0, 72, 0
2, 33888, Note_on_c, 0, 76, 0
2, 33888, Note_on_c, 0, 76, 69
2, 33888, Note_on_c, 0, 79, 69
2, 33984, Note_on_c, 0, 76, 0
2, 33984, Note_on_c, 0, 79, 0
2, 33984, Note_on_c, 0, 74, 61
2, 33984, Note_on_c, 0, 77, 61
2, 34080, Note_on_c, 0, 74, 0
2, 34080, Note_on_c, 0, 77, 0
2, 34080, Note_on_c, 0, 71, 53
2, 34080, Note_on_c, 0, 74, 53
2, 34174, Note_on_c, 0, 71, 0
2, 34174, Note_on_c, 0, 74, 0
2, 34176, Note_on_c, 0, 72, 45
2, 34336, Note_on_c, 0, 72, 0
2, 34752, Note_on_c, 0, 71, 45
2, 34848, Note_on_c, 0, 71, 0
2, 34848, Note_on_c, 0, 72, 45
2, 34944, Note_on_c, 0, 72, 0
2, 34944, Note_on_c, 0, 74, 45
2, 35040, Note_on_c, 0, 74, 0
2, 35040, Note_on_c, 0, 76, 45
2, 35136, Note_on_c, 0, 76, 0
2, 35136, Note_on_c, 0, 77, 45
2, 35232, Note_on_c, 0, 77, 0
2, 35232, Note_on_c, 0, 74, 45
2, 35326, Note_on_c, 0, 74, 0
2, 35328, Note_on_c, 0, 79, 45
2, 35424, Note_on_c, 0, 79, 0
2, 35424, Note_on_c, 0, 84, 45
2, 35520, Note_on_c, 0, 84, 0
2, 35520, Note_on_c, 0, 83, 45
2, 35616, Note_on_c, 0, 83, 0
2, 35616, Note_on_c, 0, 82, 45
2, 35712, Note_on_c, 0, 82, 0
2, 35712, Note_on_c, 0, 81, 45
2, 35808, Note_on_c, 0, 81, 0
2, 35808, Note_on_c, 0, 80, 45
2, 35902, Note_on_c, 0, 80, 0
2, 35904, Note_on_c, 0, 79, 45
2, 36000, Note_on_c, 0, 79, 0
2, 36000, Note_on_c, 0, 78, 45
2, 36096, Note_on_c, 0, 78, 0
2, 36096, Note_on_c, 0, 77, 45
2, 36192, Note_on_c, 0, 77, 0
2, 36192, Note_on_c, 0, 76, 45
2, 36288, Note_on_c, 0, 76, 0
2, 36288, Note_on_c, 0, 77, 45
2, 36384, Note_on_c, 0, 77, 0
2, 36384, Note_on_c, 0, 74, 45
2, 36478, Note_on_c, 0, 74, 0
2, 36480, Note_on_c, 0, 72, 45
2, 36640, Note_on_c, 0, 72, 0
2, 37056, Note_on_c, 0, 72, 92
2, 37056, Note_on_c, 0, 81, 92
2, 37792, Note_on_c, 0, 72, 0
2, 37792, Note_on_c, 0, 81, 0
2, 38016, Note_on_c, 0, 79, 45
2, 38176, Note_on_c, 0, 79, 0
2, 38208, Note_on_c, 0, 77, 45
2, 38304, Note_on_c, 0, 77, 0
2, 38304, Note_on_c, 0, 76, 45
2, 38398, Note_on_c, 0, 76, 0
2, 38400, Note_on_c, 0, 74, 45
2, 38496, Note_on_c, 0, 74, 0
2, 38496, Note_on_c, 0, 72, 45
2, 38592, Note_on_c, 0, 72, 0
2, 38592, Note_on_c, 0, 74, 45
2, 38688, Note_on_c, 0, 74, 0
2, 38688, Note_on_c, 0, 76, 45
2, 38782, Note_on_c, 0, 76, 0
2, 38784, Note_on_c, 0, 77, 45
2, 38880, Note_on_c, 0, 77, 0
2, 38880, Note_on_c, 0, 79, 45
2, 38976, Note_on_c, 0, 79, 0
2, 38976, Note_on_c, 0, 81, 45
2, 39072, Note_on_c, 0, 81, 0
2, 39072, Note_on_c, 0, 77, 45
2, 39166, Note_on_c, 0, 77, 0
2, 39168, Note_on_c, 0, 72, 45
2, 39216, Note_on_c, 0, 72, 0
2, 39360, Note_on_c, 0, 72, 92
2, 39360, Note_on_c, 0, 81, 92
2, 40096, Note_on_c, 0, 72, 0
2, 40096, Note_on_c, 0, 81, 0
2, 40320, Note_on_c, 0, 79, 45
2, 40480, Note_on_c, 0, 79, 0
2, 40512, Note_on_c, 0, 77, 45
2, 40608, Note_on_c, 0, 77, 0
2, 40608, Note_on_c, 0, 76, 45
2, 40702, Note_on_c, 0, 76, 0
2, 40704, Note_on_c, 0, 74, 45
2, 40800, Note_on_c, 0, 74, 0
2, 40800, Note_on_c, 0, 72, 45
2, 40896, Note_on_c, 0, 72, 0
2, 40896, Note_on_c, 0, 74, 45
2, 40992, Note_on_c, 0, 74, 0
2, 40992, Note_on_c, 0, 76, 45
2, 41086, Note_on_c, 0, 76, 0
2, 41088, Note_on_c, 0, 77, 45
2, 41248, Note_on_c, 0, 77, 0
2, 41664, Note_on_c, 0, 72, 92
2, 41664, Note_on_c, 0, 81, 92
2, 42400, Note_on_c, 0, 72, 0
2, 42400, Note_on_c, 0, 81, 0
2, 42624, Note_on_c, 0, 79, 45
2, 42784, Note_on_c, 0, 79, 0
2, 42816, Note_on_c, 0, 77, 45
2, 42912, Note_on_c, 0, 77, 0
2, 42912, Note_on_c, 0, 76, 45
2, 43006, Note_on_c, 0, 76, 0
2, 43008, Note_on_c, 0, 74, 45
2, 43104, Note_on_c, 0, 74, 0
2, 43104, Note_on_c, 0, 72, 45
2, 43200, Note_on_c, 0, 72, 0
2, 43200, Note_on_c, 0, 74, 45
2, 43296, Note_on_c, 0, 74, 0
2, 43296, Note_on_c, 0, 76, 45
2, 43390, Note_on_c, 0, 76, 0
2, 43392, Note_on_c, 0, 77, 45
2, 43488, Note_on_c, 0, 77, 0
2, 43488, Note_on_c, 0, 79, 45
2, 43584, Note_on_c, 0, 79, 0
2, 43584, Note_on_c, 0, 81, 45
2, 43680, Note_on_c, 0, 81, 0
2, 43680, Note_on_c, 0, 77, 45
2, 43774, Note_on_c, 0, 77, 0
2, 43776, Note_on_c, 0, 72, 45
2, 43824, Note_on_c, 0, 72, 0
2, 43968, Note_on_c, 0, 72, 92
2, 43968, Note_on_c, 0, 81, 92
2, 44704, Note_on_c, 0, 72, 0
2, 44704, Note_on_c, 0, 81, 0
2, 44928, Note_on_c, 0, 79, 45
2, 45088, Note_on_c, 0, 79, 0
2, 45120, Note_on_c, 0, 77, 45
2, 45216, Note_on_c, 0, 77, 0
2, 45216, Note_on_c, 0, 76, 45
2, 45310, Note_on_c, 0, 76, 0
2, 45312, Note_on_c, 0, 74, 45
2, 45408, Note_on_c, 0, 74, 0
2, 45408, Note_on_c, 0, 72, 45
2, 45504, Note_on_c, 0, 72, 0
2, 45504, Note_on_c, 0, 74, 45
2, 45600, Note_on_c, 0, 74, 0
2, 45600, Note_on_c, 0, 76, 45
2, 45694, Note_on_c, 0, 76, 0
2, 45696, Note_on_c, 0, 77, 45
2, 45856, Note_on_c, 0, 77, 0
2, 46272, Note_on_c, 0, 69, 92
2, 46432, Note_on_c, 0, 69, 0
2, 46464, Note_on_c, 0, 71, 92
2, 46560, Note_on_c, 0, 71, 0
2, 46560, Note_on_c, 0, 74, 92
2, 46656, Note_on_c, 0, 74, 0
2, 46656, Note_on_c, 0, 73, 92
2, 46752, Note_on_c, 0, 73, 0
2, 46752, Note_on_c, 0, 76, 92
2, 46846, Note_on_c, 0, 76, 0
2, 46848, Note_on_c, 0, 74, 92
2, 46944, Note_on_c, 0, 74, 0
2, 46944, Note_on_c, 0, 77, 92
2, 47040, Note_on_c, 0, 77, 0
2, 47040, Note_on_c, 0, 76, 92
2, 47136, Note_on_c, 0, 76, 0
2, 47136, Note_on_c, 0, 79, 92
2, 47230, Note_on_c, 0, 79, 0
2, 47232, Note_on_c, 0, 77, 92
2, 47392, Note_on_c, 0, 77, 0
2, 47424, Note_on_c, 0, 79, 45
2, 47616, Note_on_c, 0, 79, 0
2, 47616, Note_on_c, 0, 78, 45
2, 47808, Note_on_c, 0, 78, 0
2, 47808, Note_on_c, 0, 77, 45
2, 47968, Note_on_c, 0, 77, 0
2, 48000, Note_on_c, 0, 76, 45
2, 48192, Note_on_c, 0, 76, 0
2, 48192, Note_on_c, 0, 71, 45
2, 48384, Note_on_c, 0, 71, 0
2, 48384, Note_on_c, 0, 72, 45
2, 48544, Note_on_c, 0, 72, 0
2, 48576, Note_on_c, 0, 72, 92
2, 48576, Note_on_c, 0, 81, 92
2, 49152, Note_on_c, 0, 72, 0
2, 49152, Note_on_c, 0, 81, 0
2, 49152, Note_on_c, 0, 74, 92
2, 49152, Note_on_c, 0, 82, 92
2, 49312, Note_on_c, 0, 74, 0
2, 49312, Note_on_c, 0, 82, 0
2, 49536, Note_on_c, 0, 79, 45
2, 49696, Note_on_c, 0, 79, 0
2, 49728, Note_on_c, 0, 77, 45
2, 49824, Note_on_c, 0, 77, 0
2, 49824, Note_on_c, 0, 76, 45
2, 49918, Note_on_c, 0, 76, 0
2, 49920, Note_on_c, 0, 84, 45
2, 50016, Note_on_c, 0, 84, 0
2, 50016, Note_on_c, 0, 82, 45
2, 50110, Note_on_c, 0, 82, 0
2, 50112, Note_on_c, 0, 79, 45
2, 50208, Note_on_c, 0, 79, 0
2, 50208, Note_on_c, 0, 76, 45
2, 50302, Note_on_c, 0, 76, 0
2, 50304, Note_on_c, 0, 77, 45
2, 50464, Note_on_c, 0, 77, 0
2, 50880, Note_on_c, 0, 69, 92
2, 51040, Note_on_c, 0, 69, 0
2, 51072, Note_on_c, 0, 71, 92
2, 51168, Note_on_c, 0, 71, 0
2, 51168, Note_on_c, 0, 74, 92
2, 51264, Note_on_c, 0, 74, 0
2, 51264, Note_on_c, 0, 73, 92
2, 51360, Note_on_c, 0, 73, 0
2, 51360, Note_on_c, 0, 76, 92
2, 51454, Note_on_c, 0, 76, 0
2, 51456, Note_on_c, 0, 74, 92
2, 51552, Note_on_c, 0, 74, 0
2, 51552, Note_on_c, 0, 77, 92
2, 51648, Note_on_c, 0, 77, 0
2, 51648, Note_on_c, 0, 76, 92
2, 51744, Note_on_c, 0, 76, 0
2, 51744, Note_on_c, 0, 79, 92
2, 51838, Note_on_c, 0, 79, 0
2, 51840, Note_on_c, 0, 77, 92
2, 52000, Note_on_c, 0, 77, 0
2, 52032, Note_on_c, 0, 79, 45
2, 52224, Note_on_c, 0, 79, 0
2, 52224, Note_on_c, 0, 78, 45
2, 52416, Note_on_c, 0, 78, 0
2, 52416, Note_on_c, 0, 77, 45
2, 52576, Note_on_c, 0, 77, 0
2, 52608, Note_on_c, 0, 76, 45
2, 52800, Note_on_c, 0, 76, 0
2, 52800, Note_on_c, 0, 71, 45
2, 52992, Note_on_c, 0, 71, 0
2, 52992, Note_on_c, 0, 72, 45
2, 53152, Note_on_c, 0, 72, 0
2, 53184, Note_on_c, 0, 72, 92
2, 53184, Note_on_c, 0, 81, 92
2, 53760, Note_on_c, 0, 72, 0
2, 53760, Note_on_c, 0, 81, 0
2, 53760, Note_on_c, 0, 74, 92
2, 53760, Note_on_c, 0, 82, 92
2, 53920, Note_on_c, 0, 74, 0
2, 53920, Note_on_c, 0, 82, 0
2, 54144, Note_on_c, 0, 79, 45
2, 54304, Note_on_c, 0, 79, 0
2, 54336, Note_on_c, 0, 77, 45
2, 54432, Note_on_c, 0, 77, 0
2, 54432, Note_on_c, 0, 76, 45
2, 54526, Note_on_c, 0, 76, 0
2, 54528, Note_on_c, 0, 84, 45
2, 54624, Note_on_c, 0, 84, 0
2, 54624, Note_on_c, 0, 82, 45
2, 54718, Note_on_c, 0, 82, 0
2, 54720, Note_on_c, 0, 79, 45
2, 54816, Note_on_c, 0, 79, 0
2, 54816, Note_on_c, 0, 76, 45
2, 54910, Note_on_c, 0, 76, 0
2, 54912, Note_on_c, 0, 77, 45
2, 55072, Note_on_c, 0, 77, 0
2, 55296, Note_on_c, 0, 79, 45
2, 55344, Note_on_c, 0, 79, 0
2, 55488, Note_on_c, 0, 77, 45
2, 55680, Note_on_c, 0, 77, 0
2, 55680, Note_on_c, 0, 76, 45
2, 55840, Note_on_c, 0, 76, 0
2, 55872, Note_on_c, 0, 77, 45
2, 55920, Note_on_c, 0, 77, 0
2, 56064, Note_on_c, 0, 76, 45
2, 56256, Note_on_c, 0, 76, 0
2, 56256, Note_on_c, 0, 74, 45
2, 56416, Note_on_c, 0, 74, 0
2, 56448, Note_on_c, 0, 71, 45
2, 56640, Note_on_c, 0, 71, 0
2, 56640, Note_on_c, 0, 72, 45
2, 56832, Note_on_c, 0, 72, 0
2, 56832, Note_on_c, 0, 71, 45
2, 56832, Note_on_c, 0, 77, 45
2, 57024, Note_on_c, 0, 71, 0
2, 57024, Note_on_c, 0, 77, 0
2, 57024, Note_on_c, 0, 72, 45
2, 57024, Note_on_c, 0, 76, 45
2, 57184, Note_on_c, 0, 72, 0
2, 57184, Note_on_c, 0, 76, 0
2, 57216, Note_on_c, 0, 72, 45
2, 57216, Note_on_c, 0, 76, 45
2, 57408, Note_on_c, 0, 72, 0
2, 57408, Note_on_c, 0, 76, 0
2, 57408, Note_on_c, 0, 71, 45
2, 57408, Note_on_c, 0, 74, 45
2, 57568, Note_on_c, 0, 71, 0
2, 57568, Note_on_c, 0, 74, 0
2, 57600, Note_on_c, 0, 74, 92
2, 57648, Note_on_c, 0, 74, 0
2, 57792, Note_on_c, 0, 76, 92
2, 57840, Note_on_c, 0, 76, 0
2, 57984, Note_on_c, 0, 78, 92
2, 58032, Note_on_c, 0, 78, 0
2, 58176, Note_on_c, 0, 80, 92
2, 58224, Note_on_c, 0, 80, 0
2, 58368, Note_on_c, 0, 81, 92
2, 58656, Note_on_c, 0, 81, 0
2, 58656, Note_on_c, 0, 83, 92
2, 58752, Note_on_c, 0, 83, 0
2, 58752, Note_on_c, 0, 84, 92
2, 58912, Note_on_c, 0, 84, 0
2, 58944, Note_on_c, 0, 74, 92
2, 59232, Note_on_c, 0, 74, 0
2, 59232, Note_on_c, 0, 76, 69
2, 59328, Note_on_c, 0, 76, 0
2, 59328, Note_on_c, 0, 78, 61
2, 59488, Note_on_c, 0, 78, 0
2, 59520, Note_on_c, 0, 79, 45
2, 59680, Note_on_c, 0, 79, 0
2, 60096, Note_on_c, 0, 74, 45
2, 60192, Note_on_c, 0, 74, 0
2, 60192, Note_on_c, 0, 76, 45
2, 60288, Note_on_c, 0, 76, 0
2, 60288, Note_on_c, 0, 78, 45
2, 60384, Note_on_c, 0, 78, 0
2, 60384, Note_on_c, 0, 79, 45
2, 60480, Note_on_c, 0, 79, 0
2, 60480, Note_on_c, 0, 81, 45
2, 60576, Note_on_c, 0, 81, 0
2, 60576, Note_on_c, 0, 78, 45
2, 60670, Note_on_c, 0, 78, 0
2, 60672, Note_on_c, 0, 79, 45
2, 60832, Note_on_c, 0, 79, 0
2, 61248, Note_on_c, 0, 74, 45
2, 61344, Note_on_c, 0, 74, 0
2, 61344, Note_on_c, 0, 76, 43
2, 61440, Note_on_c, 0, 76, 0
2, 61440, Note_on_c, 0, 78, 41
2, 61536, Note_on_c, 0, 78, 0
2, 61536, Note_on_c, 0, 79, 39
2, 61632, Note_on_c, 0, 79, 0
2, 61632, Note_on_c, 0, 81, 36
2, 61728, Note_on_c, 0, 81, 0
2, 61728, Note_on_c, 0, 78, 33
2, 61822, Note_on_c, 0, 78, 0
2, 61824, Note_on_c, 0, 79, 30
2, 61984, Note_on_c, 0, 79, 0
2, 62208, Note_on_c, 0, 79, 92
2, 62256, Note_on_c, 0, 79, 0
2, 62400, Note_on_c, 0, 74, 92
2, 62592, Note_on_c, 0, 74, 0
2, 62592, Note_on_c, 0, 73, 92
2, 62752, Note_on_c, 0, 73, 0
2, 62784, Note_on_c, 0, 79, 92
2, 62832, Note_on_c, 0, 79, 0
2, 62976, Note_on_c, 0, 70, 92
2, 63168, Note_on_c, 0, 70, 0
2, 63168, Note_on_c, 0, 69, 92
2, 63328, Note_on_c, 0, 69, 0
2, 63360, Note_on_c, 0, 79, 45
2, 63360, Note_on_c, 0, 82, 45
2, 63744, Note_on_c, 0, 79, 0
2, 63744, Note_on_c, 0, 82, 0
2, 63744, Note_on_c, 0, 77, 45
2, 63744, Note_on_c, 0, 81, 45
2, 63936, Note_on_c, 0, 77, 0
2, 63936, Note_on_c, 0, 81, 0
2, 63936, Note_on_c, 0, 76, 45
2, 63936, Note_on_c, 0, 79, 45
2, 64320, Note_on_c, 0, 76, 0
2, 64320, Note_on_c, 0, 79, 0
2, 64320, Note_on_c, 0, 74, 45
2, 64320, Note_on_c, 0, 77, 45
2, 64480, Note_on_c, 0, 74, 0
2, 64480, Note_on_c, 0, 77, 0
2, 64512, Note_on_c, 0, 72, 45
2, 64512, Note_on_c, 0, 81, 45
2, 64672, Note_on_c, 0, 72, 0
2, 64704, Note_on_c, 0, 71, 45
2, 64896, Note_on_c, 0, 71, 0
2, 64896, Note_on_c, 0, 81, 0
2, 64896, Note_on_c, 0, 72, 45
2, 64896, Note_on_c, 0, 79, 45
2, 65088, Note_on_c, 0, 72, 0
2, 65088, Note_on_c, 0, 79, 0
2, 65088, Note_on_c, 0, 74, 45
2, 65088, Note_on_c, 0, 77, 45
2, 65472, Note_on_c, 0, 74, 0
2, 65472, Note_on_c, 0, 77, 0
2, 65472, Note_on_c, 0, 72, 45
2, 65472, Note_on_c, 0, 76, 45
2, 65632, Note_on_c, 0, 72, 0
2, 65632, Note_on_c, 0, 76, 0
2, 65664, Note_on_c, 0, 70, 45
2, 65664, Note_on_c, 0, 79, 45
2, 65824, Note_on_c, 0, 70, 0
2, 65856, Note_on_c, 0, 69, 45
2, 66048, Note_on_c, 0, 79, 0
2, 66048, Note_on_c, 0, 77, 45
2, 66192, Note_on_c, 0, 69, 0
2, 66240, Note_on_c, 0, 77, 0
2, 66240, Note_on_c, 0, 65, 45
2, 66240, Note_on_c, 0, 74, 45
2, 66400, Note_on_c, 0, 65, 0
2, 66400, Note_on_c, 0, 74, 0
2, 66432, Note_on_c, 0, 64, 45
2, 66432, Note_on_c, 0, 72, 45
2, 66624, Note_on_c, 0, 64, 0
2, 66624, Note_on_c, 0, 72, 0
2, 66624, Note_on_c, 0, 62, 45
2, 66624, Note_on_c, 0, 71, 45
2, 66784, Note_on_c, 0, 62, 0
2, 66784, Note_on_c, 0, 71, 0
2, 66816, Note_on_c, 0, 79, 45
2, 66864, Note_on_c, 0, 79, 0
2, 67008, Note_on_c, 0, 77, 45
2, 67200, Note_on_c, 0, 77, 0
2, 67200, Note_on_c, 0, 76, 45
2, 67360, Note_on_c, 0, 76, 0
2, 67392, Note_on_c, 0, 77, 45
2, 67440, Note_on_c, 0, 77, 0
2, 67584, Note_on_c, 0, 76, 45
2, 67776, Note_on_c, 0, 76, 0
2, 67776, Note_on_c, 0, 74, 45
2, 67936, Note_on_c, 0, 74, 0
2, 67968, Note_on_c, 0, 71, 45
2, 68160, Note_on_c, 0, 71, 0
2, 68160, Note_on_c, 0, 72, 45
2, 68352, Note_on_c, 0, 72, 0
2, 68352, Note_on_c, 0, 71, 45
2, 68352, Note_on_c, 0, 77, 45
2, 68544, Note_on_c, 0, 71, 0
2, 68544, Note_on_c, 0, 77, 0
2, 68544, Note_on_c, 0, 72, 45
2, 68544, Note_on_c, 0, 76, 45
2, 68704, Note_on_c, 0, 72, 0
2, 68704, Note_on_c, 0, 76, 0
2, 68736, Note_on_c, 0, 72, 45
2, 68736, Note_on_c, 0, 76, 45
2, 68928, Note_on_c, 0, 72, 0
2, 68928, Note_on_c, 0, 76, 0
2, 68928, Note_on_c, 0, 71, 45
2, 68928, Note_on_c, 0, 74, 45
2, 69088, Note_on_c, 0, 71, 0
2, 69088, Note_on_c, 0, 74, 0
2, 69120, Note_on_c, 0, 67, 92
2, 69120, Note_on_c, 0, 74, 92
2, 69168, Note_on_c, 0, 67, 0
2, 69168, Note_on_c, 0, 74, 0
2, 69312, Note_on_c, 0, 72, 92
2, 69312, Note_on_c, 0, 76, 92
2, 69360, Note_on_c, 0, 72, 0
2, 69360, Note_on_c, 0, 76, 0
2, 69504, Note_on_c, 0, 72, 92
2, 69504, Note_on_c, 0, 77, 92
2, 69552, Note_on_c, 0, 72, 0
2, 69552, Note_on_c, 0, 77, 0
2, 69696, Note_on_c, 0, 72, 92
2, 69696, Note_on_c, 0, 79, 92
2, 69744, Note_on_c, 0, 72, 0
2, 69744, Note_on_c, 0, 79, 0
2, 69888, Note_on_c, 0, 72, 92
2, 69888, Note_on_c, 0, 81, 92
2, 70176, Note_on_c, 0, 81, 0
2, 70176, Note_on_c, 0, 83, 92
2, 70272, Note_on_c, 0, 83, 0
2, 70272, Note_on_c, 0, 84, 92
2, 70416, Note_on_c, 0, 72, 0
2, 70432, Note_on_c, 0, 84, 0
2, 70464, Note_on_c, 0, 72, 92
2, 70464, Note_on_c, 0, 76, 92
2, 70752, Note_on_c, 0, 72, 0
2, 70752, Note_on_c, 0, 76, 0
2, 70752, Note_on_c, 0, 76, 69
2, 70752, Note_on_c, 0, 79, 69
2, 70848, Note_on_c, 0, 76, 0
2, 70848, Note_on_c, 0, 79, 0
2, 70848, Note_on_c, 0, 74, 61
2, 70848, Note_on_c, 0, 77, 61
2, 70944, Note_on_c, 0, 74, 0
2, 70944, Note_on_c, 0, 77, 0
2, 70944, Note_on_c, 0, 71, 53
2, 70944, Note_on_c, 0, 74, 53
2, 71038, Note_on_c, 0, 71, 0
2, 71038, Note_on_c, 0, 74, 0
2, 71040, Note_on_c, 0, 72, 45
2, 71200, Note_on_c, 0, 72, 0
2, 71616, Note_on_c, 0, 71, 45
2, 71712, Note_on_c, 0, 71, 0
2, 71712, Note_on_c, 0, 72, 45
2, 71808, Note_on_c, 0, 72, 0
2, 71808, Note_on_c, 0, 74, 45
2, 71904, Note_on_c, 0, 74, 0
2, 71904, Note_on_c, 0, 76, 45
2, 72000, Note_on_c, 0, 76, 0
2, 72000, Note_on_c, 0, 77, 45
2, 72096, Note_on_c, 0, 77, 0
2, 72096, Note_on_c, 0, 74, 45
2, 72190, Note_on_c, 0, 74, 0
2, 72192, Note_on_c, 0, 79, 45
2, 72288, Note_on_c, 0, 79, 0
2, 72288, Note_on_c, 0, 84, 45
2, 72384, Note_on_c, 0, 84, 0
2, 72384, Note_on_c, 0, 83, 45
2, 72480, Note_on_c, 0, 83, 0
2, 72480, Note_on_c, 0, 82, 45
2, 72576, Note_on_c, 0, 82, 0
2, 72576, Note_on_c, 0, 81, 45
2, 72672, Note_on_c, 0, 81, 0
2, 72672, Note_on_c, 0, 80, 45
2, 72766, Note_on_c, 0, 80, 0
2, 72768, Note_on_c, 0, 79, 45
2, 72864, Note_on_c, 0, 79, 0
2, 72864, Note_on_c, 0, 78, 45
2, 72960, Note_on_c, 0, 78, 0
2, 72960, Note_on_c, 0, 77, 45
2, 73056, Note_on_c, 0, 77, 0
2, 73056, Note_on_c, 0, 76, 45
2, 73152, Note_on_c, 0, 76, 0
2, 73152, Note_on_c, 0, 77, 45
2, 73248, Note_on_c, 0, 77, 0
2, 73248, Note_on_c, 0, 74, 45
2, 73342, Note_on_c, 0, 74, 0
2, 73344, Note_on_c, 0, 72, 45
2, 73504, Note_on_c, 0, 72, 0
2, 73504, End_track
3, 0, Start_track
3, 0, MIDI_port, 0
3, 0, Title_t, "Left Hand"
3, 0, Program_c, 1, 0
3, 0, Control_c, 1, 7, 127
3, 0, Control_c, 1, 10, 64
3, 192, Note_on_c, 1, 60, 45
3, 192, Note_on_c, 1, 67, 45
3, 720, Note_on_c, 1, 60, 0
3, 768, Note_on_c, 1, 65, 45
3, 1296, Note_on_c, 1, 65, 0
3, 1344, Note_on_c, 1, 64, 45
3, 1536, Note_on_c, 1, 64, 0
3, 1536, Note_on_c, 1, 67, 0
3, 1536, Note_on_c, 1, 62, 45
3, 1728, Note_on_c, 1, 62, 0
3, 1728, Note_on_c, 1, 60, 45
3, 1888, Note_on_c, 1, 60, 0
3, 1920, Note_on_c, 1, 67, 45
3, 2080, Note_on_c, 1, 67, 0
3, 2304, Note_on_c, 1, 59, 92
3, 2352, Note_on_c, 1, 59, 0
3, 2496, Note_on_c, 1, 60, 92
3, 2544, Note_on_c, 1, 60, 0
3, 2688, Note_on_c, 1, 57, 92
3, 2688, Note_on_c, 1, 60, 92
3, 2736, Note_on_c, 1, 57, 0
3, 2736, Note_on_c, 1, 60, 0
3, 2880, Note_on_c, 1, 59, 92
3, 2880, Note_on_c, 1, 62, 92
3, 2928, Note_on_c, 1, 59, 0
3, 2928, Note_on_c, 1, 62, 0
3, 3072, Note_on_c, 1, 60, 92
3, 3072, Note_on_c, 1, 64, 92
3, 3120, Note_on_c, 1, 60, 0
3, 3120, Note_on_c, 1, 64, 0
3, 3264, Note_on_c, 1, 60, 92
3, 3264, Note_on_c, 1, 64, 92
3, 3312, Note_on_c, 1, 60, 0
3, 3312, Note_on_c, 1, 64, 0
3, 3648, Note_on_c, 1, 50, 92
3, 3648, Note_on_c, 1, 60, 92
3, 3696, Note_on_c, 1, 50, 0
3, 3696, Note_on_c, 1, 60, 0
3, 3840, Note_on_c, 1, 50, 77
3, 3840, Note_on_c, 1, 60, 77
3, 3888, Note_on_c, 1, 50, 0
3, 3888, Note_on_c, 1, 60, 0
3, 4224, Note_on_c, 1, 55, 45
3, 4224, Note_on_c, 1, 59, 45
3, 4320, Note_on_c, 1, 55, 0
3, 4320, Note_on_c, 1, 59, 0
3, 4320, Note_on_c, 1, 62, 45
3, 4416, Note_on_c, 1, 62, 0
3, 4416, Note_on_c, 1, 55, 45
3, 4416, Note_on_c, 1, 59, 45
3, 4512, Note_on_c, 1, 55, 0
3, 4512, Note_on_c, 1, 59, 0
3, 4512, Note_on_c, 1, 62, 45
3, 4608, Note_on_c, 1, 62, 0
3, 4608, Note_on_c, 1, 55, 45
3, 4608, Note_on_c, 1, 59, 45
3, 4704, Note_on_c, 1, 55, 0
3, 4704, Note_on_c, 1, 59, 0
3, 4704, Note_on_c, 1, 62, 45
3, 4798, Note_on_c, 1, 62, 0
3, 4800, Note_on_c, 1, 55, 45
3, 4800, Note_on_c, 1, 60, 45
3, 4896, Note_on_c, 1, 55, 0
3, 4896, Note_on_c, 1, 60, 0
3, 4896, Note_on_c, 1, 62, 45
3, 4992, Note_on_c, 1, 62, 0
3, 4992, Note_on_c, 1, 55, 45
3, 4992, Note_on_c, 1, 60, 45
3, 5088, Note_on_c, 1, 55, 0
3, 5088, Note_on_c, 1, 60, 0
3, 5088, Note_on_c, 1, 62, 45
3, 5184, Note_on_c, 1, 62, 0
3, 5184, Note_on_c, 1, 55, 45
3, 5184, Note_on_c, 1, 60, 45
3, 5280, Note_on_c, 1, 55, 0
3, 5280, Note_on_c, 1, 60, 0
3, 5280, Note_on_c, 1, 62, 45
3, 5374, Note_on_c, 1, 62, 0
3, 5376, Note_on_c, 1, 55, 45
3, 5376, Note_on_c, 1, 59, 45
3, 5472, Note_on_c, 1, 55, 0
3, 5472, Note_on_c, 1, 59, 0
3, 5472, Note_on_c, 1, 62, 45
3, 5568, Note_on_c, 1, 62, 0
3, 5568, Note_on_c, 1, 55, 45
3, 5568, Note_on_c, 1, 59, 45
3, 5664, Note_on_c, 1, 55, 0
3, 5664, Note_on_c, 1, 59, 0
3, 5664, Note_on_c, 1, 62, 45
3, 5760, Note_on_c, 1, 62, 0
3, 5760, Note_on_c, 1, 55, 45
3, 5760, Note_on_c, 1, 59, 45
3, 5856, Note_on_c, 1, 55, 0
3, 5856, Note_on_c, 1, 59, 0
3, 5856, Note_on_c, 1, 62, 45
3, 5950, Note_on_c, 1, 62, 0
3, 5952, Note_on_c, 1, 55, 45
3, 5952, Note_on_c, 1, 60, 45
3, 6048, Note_on_c, 1, 55, 0
3, 6048, Note_on_c, 1, 60, 0
3, 6048, Note_on_c, 1, 62, 43
3, 6144, Note_on_c, 1, 62, 0
3, 6144, Note_on_c, 1, 55, 41
3, 6144, Note_on_c, 1, 60, 41
3, 6240, Note_on_c, 1, 55, 0
3, 6240, Note_on_c, 1, 60, 0
3, 6240, Note_on_c, 1, 62, 39
3, 6336, Note_on_c, 1, 62, 0
3, 6336, Note_on_c, 1, 55, 36
3, 6336, Note_on_c, 1, 60, 36
3, 6432, Note_on_c, 1, 55, 0
3, 6432, Note_on_c, 1, 60, 0
3, 6432, Note_on_c, 1, 62, 33
3, 6526, Note_on_c, 1, 62, 0
3, 6528, Note_on_c, 1, 55, 30
3, 6528, Note_on_c, 1, 59, 30
3, 6688, Note_on_c, 1, 55, 0
3, 6688, Note_on_c, 1, 59, 0
3, 7104, Note_on_c, 1, 60, 45
3, 7104, Note_on_c, 1, 67, 45
3, 7632, Note_on_c, 1, 60, 0
3, 7680, Note_on_c, 1, 65, 45
3, 8208, Note_on_c, 1, 65, 0
3, 8256, Note_on_c, 1, 64, 45
3, 8448, Note_on_c, 1, 64, 0
3, 8448, Note_on_c, 1, 67, 0
3, 8448, Note_on_c, 1, 62, 45
3, 8640, Note_on_c, 1, 62, 0
3, 8640, Note_on_c, 1, 60, 45
3, 8800, Note_on_c, 1, 60, 0
3, 8832, Note_on_c, 1, 67, 45
3, 8992, Note_on_c, 1, 67, 0
3, 9216, Note_on_c, 1, 59, 92
3, 9264, Note_on_c, 1, 59, 0
3, 9408, Note_on_c, 1, 60, 92
3, 9456, Note_on_c, 1, 60, 0
3, 9600, Note_on_c, 1, 57, 92
3, 9600, Note_on_c, 1, 60, 92
3, 9648, Note_on_c, 1, 57, 0
3, 9648, Note_on_c, 1, 60, 0
3, 9792, Note_on_c, 1, 59, 92
3, 9792, Note_on_c, 1, 62, 92
3, 9840, Note_on_c, 1, 59, 0
3, 9840, Note_on_c, 1, 62, 0
3, 9984, Note_on_c, 1, 60, 92
3, 9984, Note_on_c, 1, 64, 92
3, 10032, Note_on_c, 1, 60, 0
3, 10032, Note_on_c, 1, 64, 0
3, 10176, Note_on_c, 1, 60, 92
3, 10176, Note_on_c, 1, 64, 92
3, 10224, Note_on_c, 1, 60, 0
3, 10224, Note_on_c, 1, 64, 0
3, 10560, Note_on_c, 1, 50, 92
3, 10560, Note_on_c, 1, 60, 92
3, 10608, Note_on_c, 1, 50, 0
3, 10608, Note_on_c, 1, 60, 0
3, 10752, Note_on_c, 1, 50, 77
3, 10752, Note_on_c, 1, 60, 77
3, 10800, Note_on_c, 1, 50, 0
3, 10800, Note_on_c, 1, 60, 0
3, 11136, Note_on_c, 1, 55, 45
3, 11136, Note_on_c, 1, 59, 45
3, 11232, Note_on_c, 1, 55, 0
3, 11232, Note_on_c, 1, 59, 0
3, 11232, Note_on_c, 1, 62, 45
3, 11328, Note_on_c, 1, 62, 0
3, 11328, Note_on_c, 1, 55, 45
3, 11328, Note_on_c, 1, 59, 45
3, 11424, Note_on_c, 1, 55, 0
3, 11424, Note_on_c, 1, 59, 0
3, 11424, Note_on_c, 1, 62, 45
3, 11520, Note_on_c, 1, 62, 0
3, 11520, Note_on_c, 1, 55, 45
3, 11520, Note_on_c, 1, 59, 45
3, 11616, Note_on_c, 1, 55, 0
3, 11616, Note_on_c, 1, 59, 0
3, 11616, Note_on_c, 1, 62, 45
3, 11710, Note_on_c, 1, 62, 0
3, 11712, Note_on_c, 1, 55, 45
3, 11712, Note_on_c, 1, 60, 45
3, 11808, Note_on_c, 1, 55, 0
3, 11808, Note_on_c, 1, 60, 0
3, 11808, Note_on_c, 1, 62, 45
3, 11904, Note_on_c, 1, 62, 0
3, 11904, Note_on_c, 1, 55, 45
3, 11904, Note_on_c, 1, 60, 45
3, 12000, Note_on_c, 1, 55, 0
3, 12000, Note_on_c, 1, 60, 0
3, 12000, Note_on_c, 1, 62, 45
3, 12096, Note_on_c, 1, 62, 0
3, 12096, Note_on_c, 1, 55, 45
3, 12096, Note_on_c, 1, 60, 45
3, 12192, Note_on_c, 1, 55, 0
3, 12192, Note_on_c, 1, 60, 0
3, 12192, Note_on_c, 1, 62, 45
3, 12286, Note_on_c, 1, 62, 0
3, 12288, Note_on_c, 1, 55, 45
3, 12288, Note_on_c, 1, 59, 45
3, 12384, Note_on_c, 1, 55, 0
3, 12384, Note_on_c, 1, 59, 0
3, 12384, Note_on_c, 1, 62, 45
3, 12480, Note_on_c, 1, 62, 0
3, 12480, Note_on_c, 1, 55, 45
3, 12480, Note_on_c, 1, 59, 45
3, 12576, Note_on_c, 1, 55, 0
3, 12576, Note_on_c, 1, 59, 0
3, 12576, Note_on_c, 1, 62, 45
3, 12672, Note_on_c, 1, 62, 0
3, 12672, Note_on_c, 1, 55, 45
3, 12672, Note_on_c, 1, 59, 45
3, 12768, Note_on_c, 1, 55, 0
3, 12768, Note_on_c, 1, 59, 0
3, 12768, Note_on_c, 1, 62, 45
3, 12862, Note_on_c, 1, 62, 0
3, 12864, Note_on_c, 1, 55, 45
3, 12864, Note_on_c, 1, 60, 45
3, 12960, Note_on_c, 1, 55, 0
3, 12960, Note_on_c, 1, 60, 0
3, 12960, Note_on_c, 1, 62, 43
3, 13056, Note_on_c, 1, 62, 0
3, 13056, Note_on_c, 1, 55, 41
3, 13056, Note_on_c, 1, 60, 41
3, 13152, Note_on_c, 1, 55, 0
3, 13152, Note_on_c, 1, 60, 0
3, 13152, Note_on_c, 1, 62, 39
3, 13248, Note_on_c, 1, 62, 0
3, 13248, Note_on_c, 1, 55, 36
3, 13248, Note_on_c, 1, 60, 36
3, 13344, Note_on_c, 1, 55, 0
3, 13344, Note_on_c, 1, 60, 0
3, 13344, Note_on_c, 1, 62, 33
3, 13438, Note_on_c, 1, 62, 0
3, 13440, Note_on_c, 1, 55, 30
3, 13440, Note_on_c, 1, 59, 30
3, 13600, Note_on_c, 1, 55, 0
3, 13600, Note_on_c, 1, 59, 0
3, 13824, Note_on_c, 1, 55, 92
3, 13872, Note_on_c, 1, 55, 0
3, 14016, Note_on_c, 1, 50, 92
3, 14208, Note_on_c, 1, 50, 0
3, 14208, Note_on_c, 1, 49, 92
3, 14368, Note_on_c, 1, 49, 0
3, 14400, Note_on_c, 1, 55, 92
3, 14448, Note_on_c, 1, 55, 0
3, 14592, Note_on_c, 1, 46, 92
3, 14784, Note_on_c, 1, 46, 0
3, 14784, Note_on_c, 1, 45, 92
3, 14944, Note_on_c, 1, 45, 0
3, 15168, Note_on_c, 1, 57, 45
3, 15360, Note_on_c, 1, 57, 0
3, 15360, Note_on_c, 1, 59, 45
3, 15552, Note_on_c, 1, 59, 0
3, 15552, Note_on_c, 1, 61, 45
3, 15712, Note_on_c, 1, 61, 0
3, 15744, Note_on_c, 1, 62, 45
3, 16032, Note_on_c, 1, 62, 0
3, 16032, Note_on_c, 1, 64, 45
3, 16128, Note_on_c, 1, 64, 0
3, 16128, Note_on_c, 1, 65, 45
3, 16288, Note_on_c, 1, 65, 0
3, 16320, Note_on_c, 1, 55, 45
3, 16512, Note_on_c, 1, 55, 0
3, 16512, Note_on_c, 1, 57, 45
3, 16704, Note_on_c, 1, 57, 0
3, 16704, Note_on_c, 1, 59, 45
3, 16864, Note_on_c, 1, 59, 0
3, 16896, Note_on_c, 1, 60, 45
3, 17184, Note_on_c, 1, 60, 0
3, 17184, Note_on_c, 1, 62, 45
3, 17280, Note_on_c, 1, 62, 0
3, 17280, Note_on_c, 1, 64, 45
3, 17440, Note_on_c, 1, 64, 0
3, 17472, Note_on_c, 1, 65, 45
3, 17856, Note_on_c, 1, 65, 0
3, 17856, Note_on_c, 1, 53, 45
3, 18016, Note_on_c, 1, 53, 0
3, 18048, Note_on_c, 1, 55, 45
3, 18384, Note_on_c, 1, 55, 0
3, 18624, Note_on_c, 1, 60, 45
3, 18624, Note_on_c, 1, 67, 45
3, 19200, Note_on_c, 1, 60, 0
3, 19200, Note_on_c, 1, 67, 0
3, 19200, Note_on_c, 1, 59, 45
3, 19200, Note_on_c, 1, 68, 45
3, 19536, Note_on_c, 1, 59, 0
3, 19584, Note_on_c, 1, 64, 45
3, 19728, Note_on_c, 1, 68, 0
3, 19744, Note_on_c, 1, 64, 0
3, 19776, Note_on_c, 1, 57, 45
3, 19776, Note_on_c, 1, 69, 45
3, 19968, Note_on_c, 1, 57, 0
3, 19968, Note_on_c, 1, 69, 0
3, 19968, Note_on_c, 1, 62, 45
3, 20160, Note_on_c, 1, 62, 0
3, 20160, Note_on_c, 1, 60, 45
3, 20320, Note_on_c, 1, 60, 0
3, 20352, Note_on_c, 1, 67, 45
3, 20688, Note_on_c, 1, 67, 0
3, 20736, Note_on_c, 1, 47, 92
3, 20784, Note_on_c, 1, 47, 0
3, 20928, Note_on_c, 1, 48, 92
3, 20976, Note_on_c, 1, 48, 0
3, 21120, Note_on_c, 1, 50, 92
3, 21168, Note_on_c, 1, 50, 0
3, 21312, Note_on_c, 1, 52, 92
3, 21360, Note_on_c, 1, 52, 0
3, 21504, Note_on_c, 1, 53, 92
3, 21792, Note_on_c, 1, 53, 0
3, 21792, Note_on_c, 1, 55, 92
3, 21888, Note_on_c, 1, 55, 0
3, 21888, Note_on_c, 1, 57, 92
3, 22048, Note_on_c, 1, 57, 0
3, 22080, Note_on_c, 1, 55, 92
3, 22240, Note_on_c, 1, 55, 0
3, 22272, Note_on_c, 1, 55, 77
3, 22432, Note_on_c, 1, 55, 0
3, 22464, Note_on_c, 1, 55, 61
3, 22624, Note_on_c, 1, 55, 0
3, 22656, Note_on_c, 1, 60, 45
3, 22752, Note_on_c, 1, 60, 0
3, 22752, Note_on_c, 1, 55, 45
3, 22848, Note_on_c, 1, 55, 0
3, 22848, Note_on_c, 1, 48, 45
3, 22848, Note_on_c, 1, 52, 45
3, 22944, Note_on_c, 1, 48, 0
3, 22944, Note_on_c, 1, 52, 0
3, 22944, Note_on_c, 1, 55, 45
3, 23040, Note_on_c, 1, 55, 0
3, 23040, Note_on_c, 1, 48, 45
3, 23040, Note_on_c, 1, 52, 45
3, 23136, Note_on_c, 1, 48, 0
3, 23136, Note_on_c, 1, 52, 0
3, 23136, Note_on_c, 1, 55, 45
3, 23230, Note_on_c, 1, 55, 0
3, 23232, Note_on_c, 1, 48, 45
3, 23232, Note_on_c, 1, 53, 45
3, 23328, Note_on_c, 1, 48, 0
3, 23328, Note_on_c, 1, 53, 0
3, 23328, Note_on_c, 1, 55, 45
3, 23424, Note_on_c, 1, 55, 0
3, 23424, Note_on_c, 1, 48, 45
3, 23424, Note_on_c, 1, 53, 45
3, 23520, Note_on_c, 1, 48, 0
3, 23520, Note_on_c, 1, 53, 0
3, 23520, Note_on_c, 1, 55, 45
3, 23616, Note_on_c, 1, 55, 0
3, 23616, Note_on_c, 1, 48, 45
3, 23616, Note_on_c, 1, 53, 45
3, 23712, Note_on_c, 1, 48, 0
3, 23712, Note_on_c, 1, 53, 0
3, 23712, Note_on_c, 1, 55, 45
3, 23806, Note_on_c, 1, 55, 0
3, 23808, Note_on_c, 1, 48, 45
3, 23808, Note_on_c, 1, 52, 45
3, 23904, Note_on_c, 1, 48, 0
3, 23904, Note_on_c, 1, 52, 0
3, 23904, Note_on_c, 1, 55, 45
3, 24000, Note_on_c, 1, 55, 0
3, 24000, Note_on_c, 1, 48, 45
3, 24000, Note_on_c, 1, 52, 45
3, 24096, Note_on_c, 1, 48, 0
3, 24096, Note_on_c, 1, 52, 0
3, 24096, Note_on_c, 1, 55, 45
3, 24192, Note_on_c, 1, 55, 0
3, 24192, Note_on_c, 1, 48, 45
3, 24192, Note_on_c, 1, 52, 45
3, 24288, Note_on_c, 1, 48, 0
3, 24288, Note_on_c, 1, 52, 0
3, 24288, Note_on_c, 1, 55, 45
3, 24382, Note_on_c, 1, 55, 0
3, 24384, Note_on_c, 1, 48, 45
3, 24384, Note_on_c, 1, 53, 45
3, 24480, Note_on_c, 1, 48, 0
3, 24480, Note_on_c, 1, 53, 0
3, 24480, Note_on_c, 1, 55, 45
3, 24576, Note_on_c, 1, 55, 0
3, 24576, Note_on_c, 1, 48, 45
3, 24576, Note_on_c, 1, 53, 45
3, 24672, Note_on_c, 1, 48, 0
3, 24672, Note_on_c, 1, 53, 0
3, 24672, Note_on_c, 1, 55, 45
3, 24768, Note_on_c, 1, 55, 0
3, 24768, Note_on_c, 1, 48, 45
3, 24768, Note_on_c, 1, 53, 45
3, 24864, Note_on_c, 1, 48, 0
3, 24864, Note_on_c, 1, 53, 0
3, 24864, Note_on_c, 1, 55, 45
3, 24958, Note_on_c, 1, 55, 0
3, 24960, Note_on_c, 1, 48, 45
3, 24960, Note_on_c, 1, 52, 45
3, 25120, Note_on_c, 1, 48, 0
3, 25120, Note_on_c, 1, 52, 0
3, 25344, Note_on_c, 1, 55, 92
3, 25392, Note_on_c, 1, 55, 0
3, 25536, Note_on_c, 1, 50, 92
3, 25728, Note_on_c, 1, 50, 0
3, 25728, Note_on_c, 1, 49, 92
3, 25888, Note_on_c, 1, 49, 0
3, 25920, Note_on_c, 1, 55, 92
3, 25968, Note_on_c, 1, 55, 0
3, 26112, Note_on_c, 1, 46, 92
3, 26304, Note_on_c, 1, 46, 0
3, 26304, Note_on_c, 1, 45, 92
3, 26464, Note_on_c, 1, 45, 0
3, 26688, Note_on_c, 1, 57, 45
3, 26880, Note_on_c, 1, 57, 0
3, 26880, Note_on_c, 1, 59, 45
3, 27072, Note_on_c, 1, 59, 0
3, 27072, Note_on_c, 1, 61, 45
3, 27232, Note_on_c, 1, 61, 0
3, 27264, Note_on_c, 1, 62, 45
3, 27552, Note_on_c, 1, 62, 0
3, 27552, Note_on_c, 1, 64, 45
3, 27648, Note_on_c, 1, 64, 0
3, 27648, Note_on_c, 1, 65, 45
3, 27808, Note_on_c, 1, 65, 0
3, 27840, Note_on_c, 1, 55, 45
3, 28032, Note_on_c, 1, 55, 0
3, 28032, Note_on_c, 1, 57, 45
3, 28224, Note_on_c, 1, 57, 0
3, 28224, Note_on_c, 1, 59, 45
3, 28384, Note_on_c, 1, 59, 0
3, 28416, Note_on_c, 1, 60, 45
3, 28704, Note_on_c, 1, 60, 0
3, 28704, Note_on_c, 1, 62, 45
3, 28800, Note_on_c, 1, 62, 0
3, 28800, Note_on_c, 1, 64, 45
3, 28960, Note_on_c, 1, 64, 0
3, 28992, Note_on_c, 1, 65, 45
3, 29376, Note_on_c, 1, 65, 0
3, 29376, Note_on_c, 1, 53, 45
3, 29536, Note_on_c, 1, 53, 0
3, 29568, Note_on_c, 1, 55, 45
3, 29904, Note_on_c, 1, 55, 0
3, 30144, Note_on_c, 1, 60, 45
3, 30144, Note_on_c, 1, 67, 45
3, 30720, Note_on_c, 1, 60, 0
3, 30720, Note_on_c, 1, 67, 0
3, 30720, Note_on_c, 1, 59, 45
3, 30720, Note_on_c, 1, 68, 45
3, 31056, Note_on_c, 1, 59, 0
3, 31104, Note_on_c, 1, 64, 45
3, 31248, Note_on_c, 1, 68, 0
3, 31264, Note_on_c, 1, 64, 0
3, 31296, Note_on_c, 1, 57, 45
3, 31296, Note_on_c, 1, 69, 45
3, 31488, Note_on_c, 1, 57, 0
3, 31488, Note_on_c, 1, 69, 0
3, 31488, Note_on_c, 1, 62, 45
3, 31680, Note_on_c, 1, 62, 0
3, 31680, Note_on_c, 1, 60, 45
3, 31840, Note_on_c, 1, 60, 0
3, 31872, Note_on_c, 1, 67, 45
3, 32208, Note_on_c, 1, 67, 0
3, 32256, Note_on_c, 1, 47, 92
3, 32304, Note_on_c, 1, 47, 0
3, 32448, Note_on_c, 1, 48, 92
3, 32496, Note_on_c, 1, 48, 0
3, 32640, Note_on_c, 1, 50, 92
3, 32688, Note_on_c, 1, 50, 0
3, 32832, Note_on_c, 1, 52, 92
3, 32880, Note_on_c, 1, 52, 0
3, 33024, Note_on_c, 1, 53, 92
3, 33312, Note_on_c, 1, 53, 0
3, 33312, Note_on_c, 1, 55, 92
3, 33408, Note_on_c, 1, 55, 0
3, 33408, Note_on_c, 1, 57, 92
3, 33568, Note_on_c, 1, 57, 0
3, 33600, Note_on_c, 1, 55, 92
3, 33760, Note_on_c, 1, 55, 0
3, 33792, Note_on_c, 1, 55, 77
3, 33952, Note_on_c, 1, 55, 0
3, 33984, Note_on_c, 1, 55, 61
3, 34144, Note_on_c, 1, 55, 0
3, 34176, Note_on_c, 1, 60, 45
3, 34272, Note_on_c, 1, 60, 0
3, 34272, Note_on_c, 1, 55, 45
3, 34368, Note_on_c, 1, 55, 0
3, 34368, Note_on_c, 1, 48, 45
3, 34368, Note_on_c, 1, 52, 45
3, 34464, Note_on_c, 1, 48, 0
3, 34464, Note_on_c, 1, 52, 0
3, 34464, Note_on_c, 1, 55, 45
3, 34560, Note_on_c, 1, 55, 0
3, 34560, Note_on_c, 1, 48, 45
3, 34560, Note_on_c, 1, 52, 45
3, 34656, Note_on_c, 1, 48, 0
3, 34656, Note_on_c, 1, 52, 0
3, 34656, Note_on_c, 1, 55, 45
3, 34750, Note_on_c, 1, 55, 0
3, 34752, Note_on_c, 1, 48, 45
3, 34752, Note_on_c, 1, 53, 45
3, 34848, Note_on_c, 1, 48, 0
3, 34848, Note_on_c, 1, 53, 0
3, 34848, Note_on_c, 1, 55, 45
3, 34944, Note_on_c, 1, 55, 0
3, 34944, Note_on_c, 1, 48, 45
3, 34944, Note_on_c, 1, 53, 45
3, 35040, Note_on_c, 1, 48, 0
3, 35040, Note_on_c, 1, 53, 0
3, 35040, Note_on_c, 1, 55, 45
3, 35136, Note_on_c, 1, 55, 0
3, 35136, Note_on_c, 1, 48, 45
3, 35136, Note_on_c, 1, 53, 45
3, 35232, Note_on_c, 1, 48, 0
3, 35232, Note_on_c, 1, 53, 0
3, 35232, Note_on_c, 1, 55, 45
3, 35326, Note_on_c, 1, 55, 0
3, 35328, Note_on_c, 1, 48, 45
3, 35328, Note_on_c, 1, 52, 45
3, 35424, Note_on_c, 1, 48, 0
3, 35424, Note_on_c, 1, 52, 0
3, 35424, Note_on_c, 1, 55, 45
3, 35520, Note_on_c, 1, 55, 0
3, 35520, Note_on_c, 1, 48, 45
3, 35520, Note_on_c, 1, 52, 45
3, 35616, Note_on_c, 1, 48, 0
3, 35616, Note_on_c, 1, 52, 0
3, 35616, Note_on_c, 1, 55, 45
3, 35712, Note_on_c, 1, 55, 0
3, 35712, Note_on_c, 1, 48, 45
3, 35712, Note_on_c, 1, 52, 45
3, 35808, Note_on_c, 1, 48, 0
3, 35808, Note_on_c, 1, 52, 0
3, 35808, Note_on_c, 1, 55, 45
3, 35902, Note_on_c, 1, 55, 0
3, 35904, Note_on_c, 1, 48, 45
3, 35904, Note_on_c, 1, 53, 45
3, 36000, Note_on_c, 1, 48, 0
3, 36000, Note_on_c, 1, 53, 0
3, 36000, Note_on_c, 1, 55, 45
3, 36096, Note_on_c, 1, 55, 0
3, 36096, Note_on_c, 1, 48, 45
3, 36096, Note_on_c, 1, 53, 45
3, 36192, Note_on_c, 1, 48, 0
3, 36192, Note_on_c, 1, 53, 0
3, 36192, Note_on_c, 1, 55, 45
3, 36288, Note_on_c, 1, 55, 0
3, 36288, Note_on_c, 1, 48, 45
3, 36288, Note_on_c, 1, 53, 45
3, 36384, Note_on_c, 1, 48, 0
3, 36384, Note_on_c, 1, 53, 0
3, 36384, Note_on_c, 1, 55, 45
3, 36478, Note_on_c, 1, 55, 0
3, 36480, Note_on_c, 1, 48, 45
3, 36480, Note_on_c, 1, 52, 45
3, 36640, Note_on_c, 1, 48, 0
3, 36640, Note_on_c, 1, 52, 0
3, 36672, Note_on_c, 1, 60, 45
3, 36832, Note_on_c, 1, 60, 0
3, 37056, Note_on_c, 1, 53, 92
3, 37632, Note_on_c, 1, 53, 0
3, 37632, Note_on_c, 1, 52, 92
3, 37792, Note_on_c, 1, 52, 0
3, 38208, Note_on_c, 1, 60, 45
3, 38208, Note_on_c, 1, 70, 45
3, 38784, Note_on_c, 1, 60, 0
3, 38784, Note_on_c, 1, 70, 0
3, 38784, Note_on_c, 1, 65, 45
3, 38784, Note_on_c, 1, 69, 45
3, 38944, Note_on_c, 1, 65, 0
3, 38944, Note_on_c, 1, 69, 0
3, 39360, Note_on_c, 1, 53, 92
3, 39744, Note_on_c, 1, 53, 0
3, 39744, Note_on_c, 1, 54, 92
3, 39936, Note_on_c, 1, 54, 0
3, 39936, Note_on_c, 1, 55, 92
3, 40096, Note_on_c, 1, 55, 0
3, 40512, Note_on_c, 1, 60, 45
3, 40512, Note_on_c, 1, 70, 45
3, 40672, Note_on_c, 1, 60, 0
3, 40672, Note_on_c, 1, 70, 0
3, 40704, Note_on_c, 1, 60, 45
3, 40704, Note_on_c, 1, 70, 45
3, 40864, Note_on_c, 1, 60, 0
3, 40864, Note_on_c, 1, 70, 0
3, 40896, Note_on_c, 1, 60, 45
3, 40896, Note_on_c, 1, 70, 45
3, 41056, Note_on_c, 1, 60, 0
3, 41056, Note_on_c, 1, 70, 0
3, 41088, Note_on_c, 1, 65, 45
3, 41088, Note_on_c, 1, 69, 45
3, 41248, Note_on_c, 1, 65, 0
3, 41248, Note_on_c, 1, 69, 0
3, 41664, Note_on_c, 1, 53, 92
3, 42240, Note_on_c, 1, 53, 0
3, 42240, Note_on_c, 1, 52, 92
3, 42400, Note_on_c, 1, 52, 0
3, 42816, Note_on_c, 1, 60, 45
3, 42816, Note_on_c, 1, 70, 45
3, 43392, Note_on_c, 1, 60, 0
3, 43392, Note_on_c, 1, 70, 0
3, 43392, Note_on_c, 1, 65, 45
3, 43392, Note_on_c, 1, 69, 45
3, 43552, Note_on_c, 1, 65, 0
3, 43552, Note_on_c, 1, 69, 0
3, 43968, Note_on_c, 1, 53, 92
3, 44352, Note_on_c, 1, 53, 0
3, 44352, Note_on_c, 1, 54, 92
3, 44544, Note_on_c, 1, 54, 0
3, 44544, Note_on_c, 1, 55, 92
3, 44704, Note_on_c, 1, 55, 0
3, 45120, Note_on_c, 1, 60, 45
3, 45120, Note_on_c, 1, 70, 45
3, 45280, Note_on_c, 1, 60, 0
3, 45280, Note_on_c, 1, 70, 0
3, 45312, Note_on_c, 1, 60, 45
3, 45312, Note_on_c, 1, 70, 45
3, 45472, Note_on_c, 1, 60, 0
3, 45472, Note_on_c, 1, 70, 0
3, 45504, Note_on_c, 1, 60, 45
3, 45504, Note_on_c, 1, 70, 45
3, 45664, Note_on_c, 1, 60, 0
3, 45664, Note_on_c, 1, 70, 0
3, 45696, Note_on_c, 1, 65, 45
3, 45696, Note_on_c, 1, 69, 45
3, 45856, Note_on_c, 1, 65, 0
3, 45856, Note_on_c, 1, 69, 0
3, 46272, Note_on_c, 1, 57, 92
3, 46464, Note_on_c, 1, 57, 0
3, 46464, Note_on_c, 1, 56, 92
3, 46656, Note_on_c, 1, 56, 0
3, 46656, Note_on_c, 1, 55, 92
3, 46816, Note_on_c, 1, 55, 0
3, 46848, Note_on_c, 1, 53, 92
3, 47040, Note_on_c, 1, 53, 0
3, 47040, Note_on_c, 1, 49, 92
3, 47232, Note_on_c, 1, 49, 0
3, 47232, Note_on_c, 1, 50, 92
3, 47392, Note_on_c, 1, 50, 0
3, 47424, Note_on_c, 1, 55, 45
3, 47520, Note_on_c, 1, 55, 0
3, 47520, Note_on_c, 1, 59, 45
3, 47614, Note_on_c, 1, 59, 0
3, 47616, Note_on_c, 1, 57, 45
3, 47712, Note_on_c, 1, 57, 0
3, 47712, Note_on_c, 1, 60, 45
3, 47806, Note_on_c, 1, 60, 0
3, 47808, Note_on_c, 1, 59, 45
3, 47904, Note_on_c, 1, 59, 0
3, 47904, Note_on_c, 1, 62, 45
3, 47998, Note_on_c, 1, 62, 0
3, 48000, Note_on_c, 1, 60, 45
3, 48096, Note_on_c, 1, 60, 0
3, 48096, Note_on_c, 1, 64, 45
3, 48190, Note_on_c, 1, 64, 0
3, 48192, Note_on_c, 1, 62, 45
3, 48288, Note_on_c, 1, 62, 0
3, 48288, Note_on_c, 1, 65, 45
3, 48382, Note_on_c, 1, 65, 0
3, 48384, Note_on_c, 1, 64, 45
3, 48544, Note_on_c, 1, 64, 0
3, 48576, Note_on_c, 1, 53, 92
3, 48768, Note_on_c, 1, 53, 0
3, 48768, Note_on_c, 1, 52, 92
3, 48960, Note_on_c, 1, 52, 0
3, 48960, Note_on_c, 1, 51, 92
3, 49152, Note_on_c, 1, 51, 0
3, 49152, Note_on_c, 1, 50, 92
3, 49312, Note_on_c, 1, 50, 0
3, 49728, Note_on_c, 1, 48, 45
3, 49728, Note_on_c, 1, 58, 45
3, 49888, Note_on_c, 1, 48, 0
3, 49888, Note_on_c, 1, 58, 0
3, 49920, Note_on_c, 1, 48, 45
3, 49920, Note_on_c, 1, 58, 45
3, 50080, Note_on_c, 1, 48, 0
3, 50080, Note_on_c, 1, 58, 0
3, 50112, Note_on_c, 1, 48, 45
3, 50112, Note_on_c, 1, 58, 45
3, 50272, Note_on_c, 1, 48, 0
3, 50272, Note_on_c, 1, 58, 0
3, 50304, Note_on_c, 1, 53, 45
3, 50304, Note_on_c, 1, 57, 45
3, 50464, Note_on_c, 1, 53, 0
3, 50464, Note_on_c, 1, 57, 0
3, 50496, Note_on_c, 1, 65, 45
3, 50656, Note_on_c, 1, 65, 0
3, 50880, Note_on_c, 1, 57, 92
3, 51072, Note_on_c, 1, 57, 0
3, 51072, Note_on_c, 1, 56, 92
3, 51264, Note_on_c, 1, 56, 0
3, 51264, Note_on_c, 1, 55, 92
3, 51424, Note_on_c, 1, 55, 0
3, 51456, Note_on_c, 1, 53, 92
3, 51648, Note_on_c, 1, 53, 0
3, 51648, Note_on_c, 1, 49, 92
3, 51840, Note_on_c, 1, 49, 0
3, 51840, Note_on_c, 1, 50, 92
3, 52000, Note_on_c, 1, 50, 0
3, 52032, Note_on_c, 1, 55, 45
3, 52128, Note_on_c, 1, 55, 0
3, 52128, Note_on_c, 1, 59, 45
3, 52222, Note_on_c, 1, 59, 0
3, 52224, Note_on_c, 1, 57, 45
3, 52320, Note_on_c, 1, 57, 0
3, 52320, Note_on_c, 1, 60, 45
3, 52414, Note_on_c, 1, 60, 0
3, 52416, Note_on_c, 1, 59, 45
3, 52512, Note_on_c, 1, 59, 0
3, 52512, Note_on_c, 1, 62, 45
3, 52606, Note_on_c, 1, 62, 0
3, 52608, Note_on_c, 1, 60, 45
3, 52704, Note_on_c, 1, 60, 0
3, 52704, Note_on_c, 1, 64, 45
3, 52798, Note_on_c, 1, 64, 0
3, 52800, Note_on_c, 1, 62, 45
3, 52896, Note_on_c, 1, 62, 0
3, 52896, Note_on_c, 1, 65, 45
3, 52990, Note_on_c, 1, 65, 0
3, 52992, Note_on_c, 1, 64, 45
3, 53152, Note_on_c, 1, 64, 0
3, 53184, Note_on_c, 1, 53, 92
3, 53376, Note_on_c, 1, 53, 0
3, 53376, Note_on_c, 1, 52, 92
3, 53568, Note_on_c, 1, 52, 0
3, 53568, Note_on_c, 1, 51, 92
3, 53760, Note_on_c, 1, 51, 0
3, 53760, Note_on_c, 1, 50, 92
3, 53920, Note_on_c, 1, 50, 0
3, 54336, Note_on_c, 1, 48, 45
3, 54336, Note_on_c, 1, 58, 45
3, 54496, Note_on_c, 1, 48, 0
3, 54496, Note_on_c, 1, 58, 0
3, 54528, Note_on_c, 1, 48, 45
3, 54528, Note_on_c, 1, 58, 45
3, 54688, Note_on_c, 1, 48, 0
3, 54688, Note_on_c, 1, 58, 0
3, 54720, Note_on_c, 1, 48, 45
3, 54720, Note_on_c, 1, 58, 45
3, 54880, Note_on_c, 1, 48, 0
3, 54880, Note_on_c, 1, 58, 0
3, 54912, Note_on_c, 1, 53, 45
3, 54912, Note_on_c, 1, 57, 45
3, 55072, Note_on_c, 1, 53, 0
3, 55072, Note_on_c, 1, 57, 0
3, 55488, Note_on_c, 1, 60, 45
3, 55488, Note_on_c, 1, 67, 45
3, 56016, Note_on_c, 1, 60, 0
3, 56064, Note_on_c, 1, 65, 45
3, 56592, Note_on_c, 1, 65, 0
3, 56640, Note_on_c, 1, 64, 45
3, 56832, Note_on_c, 1, 64, 0
3, 56832, Note_on_c, 1, 67, 0
3, 56832, Note_on_c, 1, 62, 45
3, 57024, Note_on_c, 1, 62, 0
3, 57024, Note_on_c, 1, 60, 45
3, 57184, Note_on_c, 1, 60, 0
3, 57216, Note_on_c, 1, 67, 45
3, 57376, Note_on_c, 1, 67, 0
3, 57600, Note_on_c, 1, 59, 92
3, 57648, Note_on_c, 1, 59, 0
3, 57792, Note_on_c, 1, 60, 92
3, 57840, Note_on_c, 1, 60, 0
3, 57984, Note_on_c, 1, 57, 92
3, 57984, Note_on_c, 1, 60, 92
3, 58032, Note_on_c, 1, 57, 0
3, 58032, Note_on_c, 1, 60, 0
3, 58176, Note_on_c, 1, 59, 92
3, 58176, Note_on_c, 1, 62, 92
3, 58224, Note_on_c, 1, 59, 0
3, 58224, Note_on_c, 1, 62, 0
3, 58368, Note_on_c, 1, 60, 92
3, 58368, Note_on_c, 1, 64, 92
3, 58416, Note_on_c, 1, 60, 0
3, 58416, Note_on_c, 1, 64, 0
3, 58560, Note_on_c, 1, 60, 92
3, 58560, Note_on_c, 1, 64, 92
3, 58608, Note_on_c, 1, 60, 0
3, 58608, Note_on_c, 1, 64, 0
3, 58944, Note_on_c, 1, 50, 92
3, 58944, Note_on_c, 1, 60, 92
3, 58992, Note_on_c, 1, 50, 0
3, 58992, Note_on_c, 1, 60, 0
3, 59136, Note_on_c, 1, 50, 77
3, 59136, Note_on_c, 1, 60, 77
3, 59184, Note_on_c, 1, 50, 0
3, 59184, Note_on_c, 1, 60, 0
3, 59520, Note_on_c, 1, 55, 45
3, 59520, Note_on_c, 1, 59, 45
3, 59616, Note_on_c, 1, 55, 0
3, 59616, Note_on_c, 1, 59, 0
3, 59616, Note_on_c, 1, 62, 45
3, 59712, Note_on_c, 1, 62, 0
3, 59712, Note_on_c, 1, 55, 45
3, 59712, Note_on_c, 1, 59, 45
3, 59808, Note_on_c, 1, 55, 0
3, 59808, Note_on_c, 1, 59, 0
3, 59808, Note_on_c, 1, 62, 45
3, 59904, Note_on_c, 1, 62, 0
3, 59904, Note_on_c, 1, 55, 45
3, 59904, Note_on_c, 1, 59, 45
3, 60000, Note_on_c, 1, 55, 0
3, 60000, Note_on_c, 1, 59, 0
3, 60000, Note_on_c, 1, 62, 45
3, 60094, Note_on_c, 1, 62, 0
3, 60096, Note_on_c, 1, 55, 45
3, 60096, Note_on_c, 1, 60, 45
3, 60192, Note_on_c, 1, 55, 0
3, 60192, Note_on_c, 1, 60, 0
3, 60192, Note_on_c, 1, 62, 45
3, 60288, Note_on_c, 1, 62, 0
3, 60288, Note_on_c, 1, 55, 45
3, 60288, Note_on_c, 1, 60, 45
3, 60384, Note_on_c, 1, 55, 0
3, 60384, Note_on_c, 1, 60, 0
3, 60384, Note_on_c, 1, 62, 45
3, 60480, Note_on_c, 1, 62, 0
3, 60480, Note_on_c, 1, 55, 45
3, 60480, Note_on_c, 1, 60, 45
3, 60576, Note_on_c, 1, 55, 0
3, 60576, Note_on_c, 1, 60, 0
3, 60576, Note_on_c, 1, 62, 45
3, 60670, Note_on_c, 1, 62, 0
3, 60672, Note_on_c, 1, 55, 45
3, 60672, Note_on_c, 1, 59, 45
3, 60768, Note_on_c, 1, 55, 0
3, 60768, Note_on_c, 1, 59, 0
3, 60768, Note_on_c, 1, 62, 45
3, 60864, Note_on_c, 1, 62, 0
3, 60864, Note_on_c, 1, 55, 45
3, 60864, Note_on_c, 1, 59, 45
3, 60960, Note_on_c, 1, 55, 0
3, 60960, Note_on_c, 1, 59, 0
3, 60960, Note_on_c, 1, 62, 45
3, 61056, Note_on_c, 1, 62, 0
3, 61056, Note_on_c, 1, 55, 45
3, 61056, Note_on_c, 1, 59, 45
3, 61152, Note_on_c, 1, 55, 0
3, 61152, Note_on_c, 1, 59, 0
3, 61152, Note_on_c, 1, 62, 45
3, 61246, Note_on_c, 1, 62, 0
3, 61248, Note_on_c, 1, 55, 45
3, 61248, Note_on_c, 1, 60, 45
3, 61344, Note_on_c, 1, 55, 0
3, 61344, Note_on_c, 1, 60, 0
3, 61344, Note_on_c, 1, 62, 43
3, 61440, Note_on_c, 1, 62, 0
3, 61440, Note_on_c, 1, 55, 41
3, 61440, Note_on_c, 1, 60, 41
3, 61536, Note_on_c, 1, 55, 0
3, 61536, Note_on_c, 1, 60, 0
3, 61536, Note_on_c, 1, 62, 39
3, 61632, Note_on_c, 1, 62, 0
3, 61632, Note_on_c, 1, 55, 36
3, 61632, Note_on_c, 1, 60, 36
3, 61728, Note_on_c, 1, 55, 0
3, 61728, Note_on_c, 1, 60, 0
3, 61728, Note_on_c, 1, 62, 33
3, 61822, Note_on_c, 1, 62, 0
3, 61824, Note_on_c, 1, 55, 30
3, 61824, Note_on_c, 1, 59, 30
3, 61984, Note_on_c, 1, 55, 0
3, 61984, Note_on_c, 1, 59, 0
3, 62208, Note_on_c, 1, 55, 92
3, 62256, Note_on_c, 1, 55, 0
3, 62400, Note_on_c, 1, 50, 92
3, 62592, Note_on_c, 1, 50, 0
3, 62592, Note_on_c, 1, 49, 92
3, 62752, Note_on_c, 1, 49, 0
3, 62784, Note_on_c, 1, 55, 92
3, 62832, Note_on_c, 1, 55, 0
3, 62976, Note_on_c, 1, 46, 92
3, 63168, Note_on_c, 1, 46, 0
3, 63168, Note_on_c, 1, 45, 92
3, 63328, Note_on_c, 1, 45, 0
3, 63552, Note_on_c, 1, 57, 45
3, 63744, Note_on_c, 1, 57, 0
3, 63744, Note_on_c, 1, 59, 45
3, 63936, Note_on_c, 1, 59, 0
3, 63936, Note_on_c, 1, 61, 45
3, 64096, Note_on_c, 1, 61, 0
3, 64128, Note_on_c, 1, 62, 45
3, 64416, Note_on_c, 1, 62, 0
3, 64416, Note_on_c, 1, 64, 45
3, 64512, Note_on_c, 1, 64, 0
3, 64512, Note_on_c, 1, 65, 45
3, 64672, Note_on_c, 1, 65, 0
3, 64704, Note_on_c, 1, 55, 45
3, 64896, Note_on_c, 1, 55, 0
3, 64896, Note_on_c, 1, 57, 45
3, 65088, Note_on_c, 1, 57, 0
3, 65088, Note_on_c, 1, 59, 45
3, 65248, Note_on_c, 1, 59, 0
3, 65280, Note_on_c, 1, 60, 45
3, 65568, Note_on_c, 1, 60, 0
3, 65568, Note_on_c, 1, 62, 45
3, 65664, Note_on_c, 1, 62, 0
3, 65664, Note_on_c, 1, 64, 45
3, 65824, Note_on_c, 1, 64, 0
3, 65856, Note_on_c, 1, 65, 45
3, 66240, Note_on_c, 1, 65, 0
3, 66240, Note_on_c, 1, 53, 45
3, 66400, Note_on_c, 1, 53, 0
3, 66432, Note_on_c, 1, 55, 45
3, 66768, Note_on_c, 1, 55, 0
3, 67008, Note_on_c, 1, 60, 45
3, 67008, Note_on_c, 1, 67, 45
3, 67584, Note_on_c, 1, 60, 0
3, 67584, Note_on_c, 1, 67, 0
3, 67584, Note_on_c, 1, 59, 45
3, 67584, Note_on_c, 1, 68, 45
3, 67920, Note_on_c, 1, 59, 0
3, 67968, Note_on_c, 1, 64, 45
3, 68112, Note_on_c, 1, 68, 0
3, 68128, Note_on_c, 1, 64, 0
3, 68160, Note_on_c, 1, 57, 45
3, 68160, Note_on_c, 1, 69, 45
3, 68352, Note_on_c, 1, 57, 0
3, 68352, Note_on_c, 1, 69, 0
3, 68352, Note_on_c, 1, 62, 45
3, 68544, Note_on_c, 1, 62, 0
3, 68544, Note_on_c, 1, 60, 45
3, 68704, Note_on_c, 1, 60, 0
3, 68736, Note_on_c, 1, 67, 45
3, 69072, Note_on_c, 1, 67, 0
3, 69120, Note_on_c, 1, 47, 92
3, 69168, Note_on_c, 1, 47, 0
3, 69312, Note_on_c, 1, 48, 92
3, 69360, Note_on_c, 1, 48, 0
3, 69504, Note_on_c, 1, 50, 92
3, 69552, Note_on_c, 1, 50, 0
3, 69696, Note_on_c, 1, 52, 92
3, 69744, Note_on_c, 1, 52, 0
3, 69888, Note_on_c, 1, 53, 92
3, 70176, Note_on_c, 1, 53, 0
3, 70176, Note_on_c, 1, 55, 92
3, 70272, Note_on_c, 1, 55, 0
3, 70272, Note_on_c, 1, 57, 92
3, 70432, Note_on_c, 1, 57, 0
3, 70464, Note_on_c, 1, 55, 92
3, 70624, Note_on_c, 1, 55, 0
3, 70656, Note_on_c, 1, 55, 77
3, 70816, Note_on_c, 1, 55, 0
3, 70848, Note_on_c, 1, 55, 61
3, 71008, Note_on_c, 1, 55, 0
3, 71040, Note_on_c, 1, 60, 45
3, 71136, Note_on_c, 1, 60, 0
3, 71136, Note_on_c, 1, 55, 45
3, 71232, Note_on_c, 1, 55, 0
3, 71232, Note_on_c, 1, 48, 45
3, 71232, Note_on_c, 1, 52, 45
3, 71328, Note_on_c, 1, 48, 0
3, 71328, Note_on_c, 1, 52, 0
3, 71328, Note_on_c, 1, 55, 45
3, 71424, Note_on_c, 1, 55, 0
3, 71424, Note_on_c, 1, 48, 45
3, 71424, Note_on_c, 1, 52, 45
3, 71520, Note_on_c, 1, 48, 0
3, 71520, Note_on_c, 1, 52, 0
3, 71520, Note_on_c, 1, 55, 45
3, 71614, Note_on_c, 1, 55, 0
3, 71616, Note_on_c, 1, 48, 45
3, 71616, Note_on_c, 1, 53, 45
3, 71712, Note_on_c, 1, 48, 0
3, 71712, Note_on_c, 1, 53, 0
3, 71712, Note_on_c, 1, 55, 45
3, 71808, Note_on_c, 1, 55, 0
3, 71808, Note_on_c, 1, 48, 45
3, 71808, Note_on_c, 1, 53, 45
3, 71904, Note_on_c, 1, 48, 0
3, 71904, Note_on_c, 1, 53, 0
3, 71904, Note_on_c, 1, 55, 45
3, 72000, Note_on_c, 1, 55, 0
3, 72000, Note_on_c, 1, 48, 45
3, 72000, Note_on_c, 1, 53, 45
3, 72096, Note_on_c, 1, 48, 0
3, 72096, Note_on_c, 1, 53, 0
3, 72096, Note_on_c, 1, 55, 45
3, 72190, Note_on_c, 1, 55, 0
3, 72192, Note_on_c, 1, 48, 45
3, 72192, Note_on_c, 1, 52, 45
3, 72288, Note_on_c, 1, 48, 0
3, 72288, Note_on_c, 1, 52, 0
3, 72288, Note_on_c, 1, 55, 45
3, 72384, Note_on_c, 1, 55, 0
3, 72384, Note_on_c, 1, 48, 45
3, 72384, Note_on_c, 1, 52, 45
3, 72480, Note_on_c, 1, 48, 0
3, 72480, Note_on_c, 1, 52, 0
3, 72480, Note_on_c, 1, 55, 45
3, 72576, Note_on_c, 1, 55, 0
3, 72576, Note_on_c, 1, 48, 45
3, 72576, Note_on_c, 1, 52, 45
3, 72672, Note_on_c, 1, 48, 0
3, 72672, Note_on_c, 1, 52, 0
3, 72672, Note_on_c, 1, 55, 45
3, 72766, Note_on_c, 1, 55, 0
3, 72768, Note_on_c, 1, 48, 45
3, 72768, Note_on_c, 1, 53, 45
3, 72864, Note_on_c, 1, 48, 0
3, 72864, Note_on_c, 1, 53, 0
3, 72864, Note_on_c, 1, 55, 45
3, 72960, Note_on_c, 1, 55, 0
3, 72960, Note_on_c, 1, 48, 45
3, 72960, Note_on_c, 1, 53, 45
3, 73056, Note_on_c, 1, 48, 0
3, 73056, Note_on_c, 1, 53, 0
3, 73056, Note_on_c, 1, 55, 45
3, 73152, Note_on_c, 1, 55, 0
3, 73152, Note_on_c, 1, 48, 45
3, 73152, Note_on_c, 1, 53, 45
3, 73248, Note_on_c, 1, 48, 0
3, 73248, Note_on_c, 1, 53, 0
3, 73248, Note_on_c, 1, 55, 45
3, 73342, Note_on_c, 1, 55, 0
3, 73344, Note_on_c, 1, 48, 45
3, 73344, Note_on_c, 1, 52, 45
3, 73504, Note_on_c, 1, 48, 0
3, 73504, Note_on_c, 1, 52, 0
3, 73504, End_track
0, 0, End_of_file