0, 0, Header, 1, 4, 96
1, 0, Start_track
1, 0, Title_t, "\213\310\202\314\225\\\221\350"
1, 0, Copyright_t, "KAWAI MUSICAL INST. MFG. CO., LTD. \212y\225\210\213L\217q\203t\203@\203C\203\213\032"
1, 0, Time_signature, 4, 2, 24, 8
1, 0, Key_signature, 0, "major"
1, 0, Tempo, 476190
1, 36399, Tempo, 857143
1, 36399, End_track
2, 0, Start_track
2, 0, Program_c, 0, 0
2, 0, Note_on_c, 0, 60, 88
2, 172, Note_on_c, 0, 60, 0
2, 192, Note_on_c, 0, 64, 88
2, 364, Note_on_c, 0, 64, 0
2, 384, Note_on_c, 0, 62, 88
2, 556, Note_on_c, 0, 62, 0
2, 576, Note_on_c, 0, 65, 88
2, 748, Note_on_c, 0, 65, 0
2, 768, Note_on_c, 0, 64, 88
2, 854, Note_on_c, 0, 64, 0
2, 864, Note_on_c, 0, 67, 88
2, 950, Note_on_c, 0, 67, 0
2, 960, Note_on_c, 0, 65, 88
2, 1046, Note_on_c, 0, 65, 0
2, 1056, Note_on_c, 0, 69, 88
2, 1142, Note_on_c, 0, 69, 0
2, 1152, Note_on_c, 0, 67, 88
2, 1238, Note_on_c, 0, 67, 0
2, 1248, Note_on_c, 0, 70, 88
2, 1334, Note_on_c, 0, 70, 0
2, 1344, Note_on_c, 0, 69, 88
2, 1387, Note_on_c, 0, 69, 0
2, 1392, Note_on_c, 0, 72, 88
2, 1435, Note_on_c, 0, 72, 0
2, 1440, Note_on_c, 0, 71, 88
2, 1483, Note_on_c, 0, 71, 0
2, 1488, Note_on_c, 0, 74, 88
2, 1531, Note_on_c, 0, 74, 0
2, 1536, Note_on_c, 0, 72, 88
2, 1579, Note_on_c, 0, 72, 0
2, 1584, Note_on_c, 0, 72, 88
2, 1627, Note_on_c, 0, 72, 0
2, 1632, Note_on_c, 0, 74, 88
2, 1675, Note_on_c, 0, 74, 0
2, 1680, Note_on_c, 0, 76, 88
2, 1723, Note_on_c, 0, 76, 0
2, 1728, Note_on_c, 0, 77, 88
2, 1771, Note_on_c, 0, 77, 0
2, 1776, Note_on_c, 0, 79, 88
2, 1819, Note_on_c, 0, 79, 0
2, 1824, Note_on_c, 0, 81, 88
2, 1867, Note_on_c, 0, 81, 0
2, 1872, Note_on_c, 0, 83, 88
2, 1915, Note_on_c, 0, 83, 0
2, 1920, Note_on_c, 0, 84, 88
2, 2006, Note_on_c, 0, 84, 0
2, 2016, Note_on_c, 0, 72, 88
2, 2102, Note_on_c, 0, 72, 0
2, 2184, Note_on_c, 0, 67, 88
2, 2205, Note_on_c, 0, 67, 0
2, 2208, Note_on_c, 0, 69, 88
2, 2220, Note_on_c, 0, 69, 0
2, 2220, Note_on_c, 0, 67, 88
2, 2232, Note_on_c, 0, 67, 0
2, 2232, Note_on_c, 0, 69, 88
2, 2244, Note_on_c, 0, 69, 0
2, 2244, Note_on_c, 0, 67, 88
2, 2256, Note_on_c, 0, 67, 0
2, 2256, Note_on_c, 0, 69, 88
2, 2268, Note_on_c, 0, 69, 0
2, 2268, Note_on_c, 0, 67, 88
2, 2280, Note_on_c, 0, 67, 0
2, 2280, Note_on_c, 0, 65, 88
2, 2292, Note_on_c, 0, 65, 0
2, 2292, Note_on_c, 0, 67, 88
2, 2302, Note_on_c, 0, 67, 0
2, 2304, Note_on_c, 0, 69, 88
2, 2325, Note_on_c, 0, 69, 0
2, 2328, Note_on_c, 0, 72, 88
2, 2349, Note_on_c, 0, 72, 0
2, 2352, Note_on_c, 0, 71, 88
2, 2373, Note_on_c, 0, 71, 0
2, 2376, Note_on_c, 0, 72, 88
2, 2397, Note_on_c, 0, 72, 0
2, 2400, Note_on_c, 0, 74, 88
2, 2421, Note_on_c, 0, 74, 0
2, 2424, Note_on_c, 0, 76, 88
2, 2445, Note_on_c, 0, 76, 0
2, 2448, Note_on_c, 0, 72, 88
2, 2469, Note_on_c, 0, 72, 0
2, 2472, Note_on_c, 0, 74, 88
2, 2493, Note_on_c, 0, 74, 0
2, 2496, Note_on_c, 0, 71, 88
2, 2517, Note_on_c, 0, 71, 0
2, 2520, Note_on_c, 0, 74, 88
2, 2541, Note_on_c, 0, 74, 0
2, 2544, Note_on_c, 0, 72, 88
2, 2565, Note_on_c, 0, 72, 0
2, 2568, Note_on_c, 0, 74, 88
2, 2589, Note_on_c, 0, 74, 0
2, 2592, Note_on_c, 0, 76, 88
2, 2613, Note_on_c, 0, 76, 0
2, 2616, Note_on_c, 0, 77, 88
2, 2637, Note_on_c, 0, 77, 0
2, 2640, Note_on_c, 0, 74, 88
2, 2661, Note_on_c, 0, 74, 0
2, 2664, Note_on_c, 0, 76, 88
2, 2685, Note_on_c, 0, 76, 0
2, 2688, Note_on_c, 0, 72, 88
2, 2709, Note_on_c, 0, 72, 0
2, 2712, Note_on_c, 0, 76, 88
2, 2733, Note_on_c, 0, 76, 0
2, 2736, Note_on_c, 0, 74, 88
2, 2757, Note_on_c, 0, 74, 0
2, 2760, Note_on_c, 0, 76, 88
2, 2781, Note_on_c, 0, 76, 0
2, 2784, Note_on_c, 0, 77, 88
2, 2805, Note_on_c, 0, 77, 0
2, 2808, Note_on_c, 0, 79, 88
2, 2829, Note_on_c, 0, 79, 0
2, 2832, Note_on_c, 0, 76, 88
2, 2853, Note_on_c, 0, 76, 0
2, 2856, Note_on_c, 0, 77, 88
2, 2877, Note_on_c, 0, 77, 0
2, 2880, Note_on_c, 0, 74, 88
2, 2901, Note_on_c, 0, 74, 0
2, 2904, Note_on_c, 0, 77, 88
2, 2925, Note_on_c, 0, 77, 0
2, 2928, Note_on_c, 0, 76, 88
2, 2949, Note_on_c, 0, 76, 0
2, 2952, Note_on_c, 0, 77, 88
2, 2973, Note_on_c, 0, 77, 0
2, 2976, Note_on_c, 0, 79, 88
2, 2997, Note_on_c, 0, 79, 0
2, 3000, Note_on_c, 0, 81, 88
2, 3021, Note_on_c, 0, 81, 0
2, 3024, Note_on_c, 0, 77, 88
2, 3045, Note_on_c, 0, 77, 0
2, 3048, Note_on_c, 0, 79, 88
2, 3069, Note_on_c, 0, 79, 0
2, 3072, Note_on_c, 0, 76, 88
2, 3093, Note_on_c, 0, 76, 0
2, 3096, Note_on_c, 0, 79, 88
2, 3117, Note_on_c, 0, 79, 0
2, 3120, Note_on_c, 0, 77, 88
2, 3141, Note_on_c, 0, 77, 0
2, 3144, Note_on_c, 0, 76, 88
2, 3165, Note_on_c, 0, 76, 0
2, 3168, Note_on_c, 0, 77, 88
2, 3189, Note_on_c, 0, 77, 0
2, 3192, Note_on_c, 0, 79, 88
2, 3213, Note_on_c, 0, 79, 0
2, 3216, Note_on_c, 0, 81, 88
2, 3237, Note_on_c, 0, 81, 0
2, 3240, Note_on_c, 0, 83, 88
2, 3261, Note_on_c, 0, 83, 0
2, 3264, Note_on_c, 0, 84, 88
2, 3307, Note_on_c, 0, 84, 0
2, 3312, Note_on_c, 0, 79, 88
2, 3355, Note_on_c, 0, 79, 0
2, 3360, Note_on_c, 0, 77, 88
2, 3403, Note_on_c, 0, 77, 0
2, 3408, Note_on_c, 0, 76, 88
2, 3451, Note_on_c, 0, 76, 0
2, 3456, Note_on_c, 0, 77, 88
2, 3468, Note_on_c, 0, 77, 0
2, 3468, Note_on_c, 0, 76, 88
2, 3480, Note_on_c, 0, 76, 0
2, 3480, Note_on_c, 0, 77, 88
2, 3492, Note_on_c, 0, 77, 0
2, 3492, Note_on_c, 0, 76, 88
2, 3504, Note_on_c, 0, 76, 0
2, 3504, Note_on_c, 0, 74, 88
2, 3528, Note_on_c, 0, 74, 0
2, 3528, Note_on_c, 0, 76, 88
2, 3549, Note_on_c, 0, 76, 0
2, 3552, Note_on_c, 0, 74, 88
2, 3638, Note_on_c, 0, 74, 0
2, 3744, Note_on_c, 0, 74, 88
2, 3830, Note_on_c, 0, 74, 0
2, 3840, Note_on_c, 0, 76, 88
2, 3861, Note_on_c, 0, 76, 0
2, 3864, Note_on_c, 0, 72, 88
2, 3885, Note_on_c, 0, 72, 0
2, 3888, Note_on_c, 0, 71, 88
2, 3909, Note_on_c, 0, 71, 0
2, 3912, Note_on_c, 0, 72, 88
2, 3933, Note_on_c, 0, 72, 0
2, 3936, Note_on_c, 0, 67, 88
2, 3957, Note_on_c, 0, 67, 0
2, 3960, Note_on_c, 0, 64, 88
2, 3981, Note_on_c, 0, 64, 0
2, 3984, Note_on_c, 0, 62, 88
2, 4005, Note_on_c, 0, 62, 0
2, 4008, Note_on_c, 0, 64, 88
2, 4029, Note_on_c, 0, 64, 0
2, 4032, Note_on_c, 0, 60, 88
2, 4267, Note_on_c, 0, 60, 0
2, 4272, Note_on_c, 0, 62, 88
2, 4293, Note_on_c, 0, 62, 0
2, 4296, Note_on_c, 0, 64, 88
2, 4317, Note_on_c, 0, 64, 0
2, 4320, Note_on_c, 0, 65, 88
2, 4341, Note_on_c, 0, 65, 0
2, 4344, Note_on_c, 0, 67, 88
2, 4365, Note_on_c, 0, 67, 0
2, 4368, Note_on_c, 0, 69, 88
2, 4389, Note_on_c, 0, 69, 0
2, 4392, Note_on_c, 0, 71, 88
2, 4413, Note_on_c, 0, 71, 0
2, 4416, Note_on_c, 0, 72, 88
2, 4437, Note_on_c, 0, 72, 0
2, 4440, Note_on_c, 0, 74, 88
2, 4461, Note_on_c, 0, 74, 0
2, 4464, Note_on_c, 0, 76, 88
2, 4485, Note_on_c, 0, 76, 0
2, 4488, Note_on_c, 0, 77, 88
2, 4509, Note_on_c, 0, 77, 0
2, 4512, Note_on_c, 0, 79, 88
2, 4555, Note_on_c, 0, 79, 0
2, 4560, Note_on_c, 0, 76, 88
2, 4603, Note_on_c, 0, 76, 0
2, 4608, Note_on_c, 0, 74, 88
2, 4629, Note_on_c, 0, 74, 0
2, 4632, Note_on_c, 0, 79, 88
2, 4653, Note_on_c, 0, 79, 0
2, 4656, Note_on_c, 0, 78, 88
2, 4677, Note_on_c, 0, 78, 0
2, 4680, Note_on_c, 0, 79, 88
2, 4701, Note_on_c, 0, 79, 0
2, 4704, Note_on_c, 0, 81, 88
2, 4725, Note_on_c, 0, 81, 0
2, 4728, Note_on_c, 0, 79, 88
2, 4749, Note_on_c, 0, 79, 0
2, 4752, Note_on_c, 0, 78, 88
2, 4773, Note_on_c, 0, 78, 0
2, 4776, Note_on_c, 0, 79, 88
2, 4797, Note_on_c, 0, 79, 0
2, 4800, Note_on_c, 0, 74, 88
2, 4886, Note_on_c, 0, 74, 0
2, 4992, Note_on_c, 0, 74, 88
2, 5013, Note_on_c, 0, 74, 0
2, 5016, Note_on_c, 0, 71, 88
2, 5037, Note_on_c, 0, 71, 0
2, 5040, Note_on_c, 0, 69, 88
2, 5061, Note_on_c, 0, 69, 0
2, 5064, Note_on_c, 0, 71, 88
2, 5085, Note_on_c, 0, 71, 0
2, 5088, Note_on_c, 0, 67, 88
2, 5109, Note_on_c, 0, 67, 0
2, 5112, Note_on_c, 0, 62, 88
2, 5133, Note_on_c, 0, 62, 0
2, 5136, Note_on_c, 0, 60, 88
2, 5157, Note_on_c, 0, 60, 0
2, 5160, Note_on_c, 0, 62, 88
2, 5181, Note_on_c, 0, 62, 0
2, 5184, Note_on_c, 0, 59, 88
2, 5419, Note_on_c, 0, 59, 0
2, 5424, Note_on_c, 0, 60, 88
2, 5445, Note_on_c, 0, 60, 0
2, 5448, Note_on_c, 0, 62, 88
2, 5469, Note_on_c, 0, 62, 0
2, 5472, Note_on_c, 0, 64, 88
2, 5493, Note_on_c, 0, 64, 0
2, 5496, Note_on_c, 0, 66, 88
2, 5517, Note_on_c, 0, 66, 0
2, 5520, Note_on_c, 0, 67, 88
2, 5541, Note_on_c, 0, 67, 0
2, 5544, Note_on_c, 0, 69, 88
2, 5565, Note_on_c, 0, 69, 0
2, 5568, Note_on_c, 0, 71, 88
2, 5589, Note_on_c, 0, 71, 0
2, 5592, Note_on_c, 0, 67, 88
2, 5613, Note_on_c, 0, 67, 0
2, 5616, Note_on_c, 0, 74, 88
2, 5637, Note_on_c, 0, 74, 0
2, 5640, Note_on_c, 0, 71, 88
2, 5661, Note_on_c, 0, 71, 0
2, 5664, Note_on_c, 0, 79, 88
2, 5707, Note_on_c, 0, 79, 0
2, 5712, Note_on_c, 0, 74, 88
2, 5755, Note_on_c, 0, 74, 0
2, 5760, Note_on_c, 0, 72, 88
2, 5781, Note_on_c, 0, 72, 0
2, 5784, Note_on_c, 0, 74, 88
2, 5805, Note_on_c, 0, 74, 0
2, 5808, Note_on_c, 0, 76, 88
2, 5829, Note_on_c, 0, 76, 0
2, 5832, Note_on_c, 0, 74, 88
2, 5853, Note_on_c, 0, 74, 0
2, 5856, Note_on_c, 0, 72, 88
2, 5877, Note_on_c, 0, 72, 0
2, 5880, Note_on_c, 0, 74, 88
2, 5901, Note_on_c, 0, 74, 0
2, 5904, Note_on_c, 0, 71, 88
2, 5925, Note_on_c, 0, 71, 0
2, 5928, Note_on_c, 0, 74, 88
2, 5949, Note_on_c, 0, 74, 0
2, 5952, Note_on_c, 0, 72, 88
2, 6038, Note_on_c, 0, 72, 0
2, 6144, Note_on_c, 0, 62, 88
2, 6187, Note_on_c, 0, 62, 0
2, 6192, Note_on_c, 0, 64, 88
2, 6213, Note_on_c, 0, 64, 0
2, 6216, Note_on_c, 0, 66, 88
2, 6237, Note_on_c, 0, 66, 0
2, 6240, Note_on_c, 0, 67, 88
2, 6261, Note_on_c, 0, 67, 0
2, 6264, Note_on_c, 0, 69, 88
2, 6285, Note_on_c, 0, 69, 0
2, 6288, Note_on_c, 0, 71, 88
2, 6309, Note_on_c, 0, 71, 0
2, 6312, Note_on_c, 0, 73, 88
2, 6333, Note_on_c, 0, 73, 0
2, 6336, Note_on_c, 0, 74, 88
2, 6357, Note_on_c, 0, 74, 0
2, 6360, Note_on_c, 0, 76, 88
2, 6381, Note_on_c, 0, 76, 0
2, 6384, Note_on_c, 0, 78, 88
2, 6405, Note_on_c, 0, 78, 0
2, 6408, Note_on_c, 0, 79, 88
2, 6429, Note_on_c, 0, 79, 0
2, 6432, Note_on_c, 0, 81, 88
2, 6475, Note_on_c, 0, 81, 0
2, 6480, Note_on_c, 0, 83, 88
2, 6523, Note_on_c, 0, 83, 0
2, 6528, Note_on_c, 0, 84, 88
2, 6571, Note_on_c, 0, 84, 0
2, 6576, Note_on_c, 0, 81, 88
2, 6662, Note_on_c, 0, 81, 0
2, 6672, Note_on_c, 0, 78, 88
2, 6758, Note_on_c, 0, 78, 0
2, 6768, Note_on_c, 0, 74, 88
2, 6854, Note_on_c, 0, 74, 0
2, 6864, Note_on_c, 0, 72, 88
2, 6907, Note_on_c, 0, 72, 0
2, 6912, Note_on_c, 0, 71, 88
2, 7008, Note_on_c, 0, 71, 0
2, 7008, Note_on_c, 0, 77, 101
2, 7296, Note_on_c, 0, 77, 0
2, 7344, Note_on_c, 0, 76, 88
2, 7392, Note_on_c, 0, 76, 0
2, 7392, Note_on_c, 0, 75, 88
2, 7440, Note_on_c, 0, 75, 0
2, 7440, Note_on_c, 0, 76, 88
2, 7488, Note_on_c, 0, 76, 0
2, 7488, Note_on_c, 0, 74, 88
2, 7536, Note_on_c, 0, 74, 0
2, 7536, Note_on_c, 0, 72, 88
2, 7584, Note_on_c, 0, 72, 0
2, 7584, Note_on_c, 0, 71, 88
2, 7632, Note_on_c, 0, 71, 0
2, 7632, Note_on_c, 0, 72, 88
2, 7675, Note_on_c, 0, 72, 0
2, 7680, Note_on_c, 0, 71, 88
2, 7704, Note_on_c, 0, 71, 0
2, 7704, Note_on_c, 0, 69, 88
2, 7728, Note_on_c, 0, 69, 0
2, 7728, Note_on_c, 0, 72, 88
2, 7752, Note_on_c, 0, 72, 0
2, 7752, Note_on_c, 0, 71, 88
2, 7776, Note_on_c, 0, 71, 0
2, 7776, Note_on_c, 0, 74, 88
2, 7800, Note_on_c, 0, 74, 0
2, 7800, Note_on_c, 0, 72, 88
2, 7824, Note_on_c, 0, 72, 0
2, 7824, Note_on_c, 0, 76, 88
2, 7848, Note_on_c, 0, 76, 0
2, 7848, Note_on_c, 0, 74, 88
2, 7872, Note_on_c, 0, 74, 0
2, 7872, Note_on_c, 0, 77, 88
2, 7896, Note_on_c, 0, 77, 0
2, 7896, Note_on_c, 0, 76, 88
2, 7920, Note_on_c, 0, 76, 0
2, 7920, Note_on_c, 0, 75, 88
2, 7944, Note_on_c, 0, 75, 0
2, 7944, Note_on_c, 0, 76, 88
2, 7968, Note_on_c, 0, 76, 0
2, 7968, Note_on_c, 0, 74, 88
2, 7992, Note_on_c, 0, 74, 0
2, 7992, Note_on_c, 0, 72, 88
2, 8016, Note_on_c, 0, 72, 0
2, 8016, Note_on_c, 0, 71, 88
2, 8040, Note_on_c, 0, 71, 0
2, 8040, Note_on_c, 0, 69, 88
2, 8064, Note_on_c, 0, 69, 0
2, 8064, Note_on_c, 0, 67, 88
2, 8236, Note_on_c, 0, 67, 0
2, 8256, Note_on_c, 0, 71, 88
2, 8268, Note_on_c, 0, 71, 0
2, 8268, Note_on_c, 0, 69, 88
2, 8280, Note_on_c, 0, 69, 0
2, 8280, Note_on_c, 0, 71, 88
2, 8292, Note_on_c, 0, 71, 0
2, 8292, Note_on_c, 0, 69, 88
2, 8304, Note_on_c, 0, 69, 0
2, 8304, Note_on_c, 0, 71, 88
2, 8316, Note_on_c, 0, 71, 0
2, 8316, Note_on_c, 0, 69, 88
2, 8328, Note_on_c, 0, 69, 0
2, 8328, Note_on_c, 0, 71, 88
2, 8340, Note_on_c, 0, 71, 0
2, 8340, Note_on_c, 0, 69, 88
2, 8352, Note_on_c, 0, 69, 0
2, 8352, Note_on_c, 0, 71, 88
2, 8364, Note_on_c, 0, 71, 0
2, 8364, Note_on_c, 0, 69, 88
2, 8376, Note_on_c, 0, 69, 0
2, 8376, Note_on_c, 0, 71, 88
2, 8388, Note_on_c, 0, 71, 0
2, 8388, Note_on_c, 0, 69, 88
2, 8400, Note_on_c, 0, 69, 0
2, 8400, Note_on_c, 0, 67, 88
2, 8424, Note_on_c, 0, 67, 0
2, 8424, Note_on_c, 0, 69, 88
2, 8445, Note_on_c, 0, 69, 0
2, 8448, Note_on_c, 0, 67, 88
2, 8534, Note_on_c, 0, 67, 0
2, 8736, Note_on_c, 0, 62, 88
2, 8822, Note_on_c, 0, 62, 0
2, 8832, Note_on_c, 0, 64, 88
2, 8853, Note_on_c, 0, 64, 0
2, 8856, Note_on_c, 0, 67, 88
2, 8877, Note_on_c, 0, 67, 0
2, 8880, Note_on_c, 0, 60, 88
2, 8901, Note_on_c, 0, 60, 0
2, 8904, Note_on_c, 0, 62, 88
2, 8925, Note_on_c, 0, 62, 0
2, 8928, Note_on_c, 0, 64, 88
2, 8949, Note_on_c, 0, 64, 0
2, 8952, Note_on_c, 0, 60, 88
2, 8973, Note_on_c, 0, 60, 0
2, 8976, Note_on_c, 0, 69, 88
2, 8997, Note_on_c, 0, 69, 0
2, 9000, Note_on_c, 0, 67, 88
2, 9021, Note_on_c, 0, 67, 0
2, 9024, Note_on_c, 0, 66, 88
2, 9045, Note_on_c, 0, 66, 0
2, 9048, Note_on_c, 0, 69, 88
2, 9069, Note_on_c, 0, 69, 0
2, 9072, Note_on_c, 0, 62, 88
2, 9093, Note_on_c, 0, 62, 0
2, 9096, Note_on_c, 0, 64, 88
2, 9117, Note_on_c, 0, 64, 0
2, 9120, Note_on_c, 0, 66, 88
2, 9141, Note_on_c, 0, 66, 0
2, 9144, Note_on_c, 0, 62, 88
2, 9165, Note_on_c, 0, 62, 0
2, 9168, Note_on_c, 0, 71, 88
2, 9189, Note_on_c, 0, 71, 0
2, 9192, Note_on_c, 0, 69, 88
2, 9213, Note_on_c, 0, 69, 0
2, 9216, Note_on_c, 0, 67, 88
2, 9237, Note_on_c, 0, 67, 0
2, 9240, Note_on_c, 0, 71, 88
2, 9261, Note_on_c, 0, 71, 0
2, 9264, Note_on_c, 0, 64, 88
2, 9285, Note_on_c, 0, 64, 0
2, 9288, Note_on_c, 0, 66, 88
2, 9309, Note_on_c, 0, 66, 0
2, 9312, Note_on_c, 0, 67, 88
2, 9333, Note_on_c, 0, 67, 0
2, 9336, Note_on_c, 0, 64, 88
2, 9357, Note_on_c, 0, 64, 0
2, 9360, Note_on_c, 0, 72, 88
2, 9381, Note_on_c, 0, 72, 0
2, 9384, Note_on_c, 0, 71, 88
2, 9405, Note_on_c, 0, 71, 0
2, 9408, Note_on_c, 0, 69, 88
2, 9429, Note_on_c, 0, 69, 0
2, 9432, Note_on_c, 0, 72, 88
2, 9453, Note_on_c, 0, 72, 0
2, 9456, Note_on_c, 0, 66, 88
2, 9477, Note_on_c, 0, 66, 0
2, 9480, Note_on_c, 0, 67, 88
2, 9501, Note_on_c, 0, 67, 0
2, 9504, Note_on_c, 0, 69, 88
2, 9525, Note_on_c, 0, 69, 0
2, 9528, Note_on_c, 0, 66, 88
2, 9549, Note_on_c, 0, 66, 0
2, 9552, Note_on_c, 0, 74, 88
2, 9573, Note_on_c, 0, 74, 0
2, 9576, Note_on_c, 0, 72, 88
2, 9597, Note_on_c, 0, 72, 0
2, 9600, Note_on_c, 0, 71, 88
2, 9643, Note_on_c, 0, 71, 0
2, 9648, Note_on_c, 0, 67, 88
2, 9669, Note_on_c, 0, 67, 0
2, 9672, Note_on_c, 0, 71, 88
2, 9693, Note_on_c, 0, 71, 0
2, 9696, Note_on_c, 0, 69, 88
2, 9717, Note_on_c, 0, 69, 0
2, 9720, Note_on_c, 0, 72, 88
2, 9741, Note_on_c, 0, 72, 0
2, 9744, Note_on_c, 0, 71, 88
2, 9765, Note_on_c, 0, 71, 0
2, 9768, Note_on_c, 0, 74, 88
2, 9789, Note_on_c, 0, 74, 0
2, 9792, Note_on_c, 0, 72, 88
2, 9813, Note_on_c, 0, 72, 0
2, 9816, Note_on_c, 0, 76, 88
2, 9837, Note_on_c, 0, 76, 0
2, 9840, Note_on_c, 0, 74, 88
2, 9861, Note_on_c, 0, 74, 0
2, 9864, Note_on_c, 0, 78, 88
2, 9885, Note_on_c, 0, 78, 0
2, 9888, Note_on_c, 0, 76, 88
2, 9909, Note_on_c, 0, 76, 0
2, 9912, Note_on_c, 0, 79, 88
2, 9933, Note_on_c, 0, 79, 0
2, 9936, Note_on_c, 0, 78, 88
2, 9957, Note_on_c, 0, 78, 0
2, 9960, Note_on_c, 0, 81, 88
2, 9981, Note_on_c, 0, 81, 0
2, 9984, Note_on_c, 0, 79, 88
2, 10027, Note_on_c, 0, 79, 0
2, 10032, Note_on_c, 0, 71, 88
2, 10053, Note_on_c, 0, 71, 0
2, 10056, Note_on_c, 0, 74, 88
2, 10077, Note_on_c, 0, 74, 0
2, 10080, Note_on_c, 0, 72, 88
2, 10101, Note_on_c, 0, 72, 0
2, 10104, Note_on_c, 0, 76, 88
2, 10125, Note_on_c, 0, 76, 0
2, 10128, Note_on_c, 0, 74, 88
2, 10149, Note_on_c, 0, 74, 0
2, 10152, Note_on_c, 0, 78, 88
2, 10173, Note_on_c, 0, 78, 0
2, 10176, Note_on_c, 0, 76, 88
2, 10197, Note_on_c, 0, 76, 0
2, 10200, Note_on_c, 0, 79, 88
2, 10221, Note_on_c, 0, 79, 0
2, 10224, Note_on_c, 0, 78, 88
2, 10245, Note_on_c, 0, 78, 0
2, 10248, Note_on_c, 0, 81, 88
2, 10269, Note_on_c, 0, 81, 0
2, 10272, Note_on_c, 0, 79, 88
2, 10293, Note_on_c, 0, 79, 0
2, 10296, Note_on_c, 0, 83, 88
2, 10317, Note_on_c, 0, 83, 0
2, 10320, Note_on_c, 0, 81, 88
2, 10341, Note_on_c, 0, 81, 0
2, 10344, Note_on_c, 0, 84, 88
2, 10365, Note_on_c, 0, 84, 0
2, 10368, Note_on_c, 0, 83, 88
2, 10411, Note_on_c, 0, 83, 0
2, 10416, Note_on_c, 0, 76, 88
2, 10428, Note_on_c, 0, 76, 0
2, 10428, Note_on_c, 0, 74, 88
2, 10440, Note_on_c, 0, 74, 0
2, 10440, Note_on_c, 0, 76, 88
2, 10452, Note_on_c, 0, 76, 0
2, 10452, Note_on_c, 0, 74, 88
2, 10464, Note_on_c, 0, 74, 0
2, 10464, Note_on_c, 0, 76, 88
2, 10507, Note_on_c, 0, 76, 0
2, 10512, Note_on_c, 0, 78, 88
2, 10536, Note_on_c, 0, 78, 0
2, 10560, Note_on_c, 0, 79, 88
2, 10584, Note_on_c, 0, 79, 0
2, 10608, Note_on_c, 0, 81, 88
2, 10632, Note_on_c, 0, 81, 0
2, 10656, Note_on_c, 0, 83, 88
2, 10680, Note_on_c, 0, 83, 0
2, 10704, Note_on_c, 0, 84, 88
2, 10728, Note_on_c, 0, 84, 0
2, 10752, Note_on_c, 0, 86, 88
2, 10838, Note_on_c, 0, 86, 0
2, 10944, Note_on_c, 0, 74, 88
2, 11116, Note_on_c, 0, 74, 0
2, 11136, Note_on_c, 0, 76, 88
2, 11253, Note_on_c, 0, 76, 0
2, 11256, Note_on_c, 0, 79, 88
2, 11277, Note_on_c, 0, 79, 0
2, 11280, Note_on_c, 0, 78, 88
2, 11301, Note_on_c, 0, 78, 0
2, 11304, Note_on_c, 0, 79, 88
2, 11325, Note_on_c, 0, 79, 0
2, 11328, Note_on_c, 0, 76, 88
2, 11445, Note_on_c, 0, 76, 0
2, 11448, Note_on_c, 0, 79, 88
2, 11469, Note_on_c, 0, 79, 0
2, 11472, Note_on_c, 0, 78, 88
2, 11493, Note_on_c, 0, 78, 0
2, 11496, Note_on_c, 0, 79, 88
2, 11517, Note_on_c, 0, 79, 0
2, 11520, Note_on_c, 0, 76, 88
2, 11541, Note_on_c, 0, 76, 0
2, 11544, Note_on_c, 0, 79, 88
2, 11565, Note_on_c, 0, 79, 0
2, 11568, Note_on_c, 0, 78, 88
2, 11589, Note_on_c, 0, 78, 0
2, 11592, Note_on_c, 0, 79, 88
2, 11613, Note_on_c, 0, 79, 0
2, 11616, Note_on_c, 0, 78, 88
2, 11637, Note_on_c, 0, 78, 0
2, 11640, Note_on_c, 0, 79, 88
2, 11661, Note_on_c, 0, 79, 0
2, 11664, Note_on_c, 0, 78, 88
2, 11685, Note_on_c, 0, 78, 0
2, 11688, Note_on_c, 0, 79, 88
2, 11709, Note_on_c, 0, 79, 0
2, 11712, Note_on_c, 0, 81, 88
2, 11733, Note_on_c, 0, 81, 0
2, 11736, Note_on_c, 0, 79, 88
2, 11757, Note_on_c, 0, 79, 0
2, 11760, Note_on_c, 0, 78, 88
2, 11781, Note_on_c, 0, 78, 0
2, 11784, Note_on_c, 0, 79, 88
2, 11805, Note_on_c, 0, 79, 0
2, 11808, Note_on_c, 0, 78, 88
2, 11829, Note_on_c, 0, 78, 0
2, 11832, Note_on_c, 0, 76, 88
2, 11853, Note_on_c, 0, 76, 0
2, 11856, Note_on_c, 0, 74, 88
2, 11877, Note_on_c, 0, 74, 0
2, 11880, Note_on_c, 0, 72, 88
2, 11901, Note_on_c, 0, 72, 0
2, 11904, Note_on_c, 0, 71, 88
2, 11925, Note_on_c, 0, 71, 0
2, 11928, Note_on_c, 0, 74, 88
2, 11949, Note_on_c, 0, 74, 0
2, 11952, Note_on_c, 0, 72, 88
2, 11973, Note_on_c, 0, 72, 0
2, 11976, Note_on_c, 0, 71, 88
2, 11997, Note_on_c, 0, 71, 0
2, 12000, Note_on_c, 0, 72, 88
2, 12021, Note_on_c, 0, 72, 0
2, 12024, Note_on_c, 0, 74, 88
2, 12045, Note_on_c, 0, 74, 0
2, 12048, Note_on_c, 0, 76, 88
2, 12069, Note_on_c, 0, 76, 0
2, 12072, Note_on_c, 0, 78, 88
2, 12093, Note_on_c, 0, 78, 0
2, 12096, Note_on_c, 0, 79, 88
2, 12117, Note_on_c, 0, 79, 0
2, 12120, Note_on_c, 0, 81, 88
2, 12141, Note_on_c, 0, 81, 0
2, 12144, Note_on_c, 0, 83, 88
2, 12165, Note_on_c, 0, 83, 0
2, 12168, Note_on_c, 0, 78, 88
2, 12189, Note_on_c, 0, 78, 0
2, 12192, Note_on_c, 0, 79, 88
2, 12213, Note_on_c, 0, 79, 0
2, 12216, Note_on_c, 0, 74, 88
2, 12237, Note_on_c, 0, 74, 0
2, 12240, Note_on_c, 0, 76, 88
2, 12261, Note_on_c, 0, 76, 0
2, 12264, Note_on_c, 0, 72, 88
2, 12285, Note_on_c, 0, 72, 0
2, 12288, Note_on_c, 0, 71, 88
2, 12300, Note_on_c, 0, 71, 0
2, 12300, Note_on_c, 0, 69, 88
2, 12312, Note_on_c, 0, 69, 0
2, 12312, Note_on_c, 0, 71, 88
2, 12324, Note_on_c, 0, 71, 0
2, 12324, Note_on_c, 0, 69, 88
2, 12336, Note_on_c, 0, 69, 0
2, 12336, Note_on_c, 0, 71, 88
2, 12348, Note_on_c, 0, 71, 0
2, 12348, Note_on_c, 0, 69, 88
2, 12360, Note_on_c, 0, 69, 0
2, 12360, Note_on_c, 0, 71, 88
2, 12372, Note_on_c, 0, 71, 0
2, 12372, Note_on_c, 0, 69, 88
2, 12384, Note_on_c, 0, 69, 0
2, 12384, Note_on_c, 0, 71, 88
2, 12396, Note_on_c, 0, 71, 0
2, 12396, Note_on_c, 0, 69, 88
2, 12408, Note_on_c, 0, 69, 0
2, 12408, Note_on_c, 0, 71, 88
2, 12420, Note_on_c, 0, 71, 0
2, 12420, Note_on_c, 0, 69, 88
2, 12432, Note_on_c, 0, 69, 0
2, 12432, Note_on_c, 0, 71, 88
2, 12444, Note_on_c, 0, 71, 0
2, 12444, Note_on_c, 0, 69, 88
2, 12456, Note_on_c, 0, 69, 0
2, 12456, Note_on_c, 0, 71, 88
2, 12468, Note_on_c, 0, 71, 0
2, 12468, Note_on_c, 0, 69, 88
2, 12480, Note_on_c, 0, 69, 0
2, 12480, Note_on_c, 0, 71, 88
2, 12492, Note_on_c, 0, 71, 0
2, 12492, Note_on_c, 0, 69, 88
2, 12504, Note_on_c, 0, 69, 0
2, 12504, Note_on_c, 0, 71, 88
2, 12516, Note_on_c, 0, 71, 0
2, 12516, Note_on_c, 0, 69, 88
2, 12528, Note_on_c, 0, 69, 0
2, 12528, Note_on_c, 0, 71, 88
2, 12540, Note_on_c, 0, 71, 0
2, 12540, Note_on_c, 0, 69, 88
2, 12552, Note_on_c, 0, 69, 0
2, 12552, Note_on_c, 0, 71, 88
2, 12564, Note_on_c, 0, 71, 0
2, 12564, Note_on_c, 0, 69, 88
2, 12576, Note_on_c, 0, 69, 0
2, 12576, Note_on_c, 0, 71, 88
2, 12588, Note_on_c, 0, 71, 0
2, 12588, Note_on_c, 0, 69, 88
2, 12600, Note_on_c, 0, 69, 0
2, 12600, Note_on_c, 0, 71, 88
2, 12612, Note_on_c, 0, 71, 0
2, 12612, Note_on_c, 0, 69, 88
2, 12624, Note_on_c, 0, 69, 0
2, 12624, Note_on_c, 0, 67, 88
2, 12648, Note_on_c, 0, 67, 0
2, 12648, Note_on_c, 0, 69, 88
2, 12672, Note_on_c, 0, 69, 0
2, 12672, Note_on_c, 0, 67, 88
2, 12758, Note_on_c, 0, 67, 0
2, 13056, Note_on_c, 0, 79, 88
2, 13228, Note_on_c, 0, 79, 0
2, 13248, Note_on_c, 0, 82, 88
2, 13420, Note_on_c, 0, 82, 0
2, 13440, Note_on_c, 0, 76, 88
2, 13526, Note_on_c, 0, 76, 0
2, 13536, Note_on_c, 0, 79, 88
2, 13622, Note_on_c, 0, 79, 0
2, 13632, Note_on_c, 0, 73, 88
2, 13718, Note_on_c, 0, 73, 0
2, 13728, Note_on_c, 0, 76, 88
2, 13814, Note_on_c, 0, 76, 0
2, 13824, Note_on_c, 0, 69, 88
2, 14083, Note_on_c, 0, 69, 0
2, 14112, Note_on_c, 0, 71, 88
2, 14176, Note_on_c, 0, 71, 0
2, 14184, Note_on_c, 0, 73, 88
2, 14205, Note_on_c, 0, 73, 0
2, 14208, Note_on_c, 0, 74, 88
2, 14294, Note_on_c, 0, 74, 0
2, 14304, Note_on_c, 0, 76, 88
2, 14390, Note_on_c, 0, 76, 0
2, 14400, Note_on_c, 0, 77, 88
2, 14486, Note_on_c, 0, 77, 0
2, 14496, Note_on_c, 0, 79, 88
2, 14582, Note_on_c, 0, 79, 0
2, 14592, Note_on_c, 0, 79, 88
2, 14613, Note_on_c, 0, 79, 0
2, 14616, Note_on_c, 0, 77, 88
2, 14637, Note_on_c, 0, 77, 0
2, 14640, Note_on_c, 0, 76, 88
2, 14661, Note_on_c, 0, 76, 0
2, 14664, Note_on_c, 0, 74, 88
2, 14685, Note_on_c, 0, 74, 0
2, 14688, Note_on_c, 0, 74, 88
2, 14774, Note_on_c, 0, 74, 0
2, 14976, Note_on_c, 0, 77, 88
2, 15148, Note_on_c, 0, 77, 0
2, 15168, Note_on_c, 0, 80, 88
2, 15340, Note_on_c, 0, 80, 0
2, 15360, Note_on_c, 0, 74, 88
2, 15446, Note_on_c, 0, 74, 0
2, 15456, Note_on_c, 0, 77, 88
2, 15542, Note_on_c, 0, 77, 0
2, 15552, Note_on_c, 0, 71, 88
2, 15638, Note_on_c, 0, 71, 0
2, 15648, Note_on_c, 0, 74, 88
2, 15734, Note_on_c, 0, 74, 0
2, 15744, Note_on_c, 0, 67, 88
2, 15830, Note_on_c, 0, 67, 0
2, 15840, Note_on_c, 0, 79, 88
2, 15969, Note_on_c, 0, 79, 0
2, 15984, Note_on_c, 0, 77, 88
2, 16027, Note_on_c, 0, 77, 0
2, 16032, Note_on_c, 0, 76, 88
2, 16075, Note_on_c, 0, 76, 0
2, 16080, Note_on_c, 0, 74, 88
2, 16123, Note_on_c, 0, 74, 0
2, 16128, Note_on_c, 0, 72, 88
2, 16171, Note_on_c, 0, 72, 0
2, 16200, Note_on_c, 0, 72, 88
2, 16221, Note_on_c, 0, 72, 0
2, 16224, Note_on_c, 0, 74, 88
2, 16234, Note_on_c, 0, 74, 0
2, 16236, Note_on_c, 0, 72, 88
2, 16246, Note_on_c, 0, 72, 0
2, 16248, Note_on_c, 0, 74, 88
2, 16258, Note_on_c, 0, 74, 0
2, 16260, Note_on_c, 0, 72, 88
2, 16270, Note_on_c, 0, 72, 0
2, 16272, Note_on_c, 0, 71, 88
2, 16293, Note_on_c, 0, 71, 0
2, 16296, Note_on_c, 0, 72, 88
2, 16317, Note_on_c, 0, 72, 0
2, 16320, Note_on_c, 0, 74, 88
2, 16363, Note_on_c, 0, 74, 0
2, 16392, Note_on_c, 0, 74, 88
2, 16413, Note_on_c, 0, 74, 0
2, 16416, Note_on_c, 0, 76, 88
2, 16426, Note_on_c, 0, 76, 0
2, 16428, Note_on_c, 0, 74, 88
2, 16438, Note_on_c, 0, 74, 0
2, 16440, Note_on_c, 0, 76, 88
2, 16450, Note_on_c, 0, 76, 0
2, 16452, Note_on_c, 0, 74, 88
2, 16462, Note_on_c, 0, 74, 0
2, 16464, Note_on_c, 0, 72, 88
2, 16485, Note_on_c, 0, 72, 0
2, 16488, Note_on_c, 0, 74, 88
2, 16509, Note_on_c, 0, 74, 0
2, 16512, Note_on_c, 0, 77, 88
2, 16533, Note_on_c, 0, 77, 0
2, 16536, Note_on_c, 0, 76, 88
2, 16557, Note_on_c, 0, 76, 0
2, 16560, Note_on_c, 0, 74, 88
2, 16581, Note_on_c, 0, 74, 0
2, 16584, Note_on_c, 0, 72, 88
2, 16605, Note_on_c, 0, 72, 0
2, 16608, Note_on_c, 0, 72, 88
2, 16694, Note_on_c, 0, 72, 0
2, 16800, Note_on_c, 0, 67, 88
2, 16886, Note_on_c, 0, 67, 0
2, 16896, Note_on_c, 0, 69, 88
2, 16917, Note_on_c, 0, 69, 0
2, 16920, Note_on_c, 0, 65, 88
2, 16941, Note_on_c, 0, 65, 0
2, 16944, Note_on_c, 0, 64, 88
2, 16965, Note_on_c, 0, 64, 0
2, 16968, Note_on_c, 0, 67, 88
2, 16989, Note_on_c, 0, 67, 0
2, 16992, Note_on_c, 0, 65, 88
2, 17013, Note_on_c, 0, 65, 0
2, 17016, Note_on_c, 0, 69, 88
2, 17037, Note_on_c, 0, 69, 0
2, 17040, Note_on_c, 0, 67, 88
2, 17061, Note_on_c, 0, 67, 0
2, 17064, Note_on_c, 0, 70, 88
2, 17085, Note_on_c, 0, 70, 0
2, 17088, Note_on_c, 0, 69, 88
2, 17109, Note_on_c, 0, 69, 0
2, 17112, Note_on_c, 0, 65, 88
2, 17133, Note_on_c, 0, 65, 0
2, 17136, Note_on_c, 0, 64, 88
2, 17157, Note_on_c, 0, 64, 0
2, 17160, Note_on_c, 0, 67, 88
2, 17181, Note_on_c, 0, 67, 0
2, 17184, Note_on_c, 0, 65, 88
2, 17205, Note_on_c, 0, 65, 0
2, 17208, Note_on_c, 0, 69, 88
2, 17229, Note_on_c, 0, 69, 0
2, 17232, Note_on_c, 0, 67, 88
2, 17253, Note_on_c, 0, 67, 0
2, 17256, Note_on_c, 0, 70, 88
2, 17277, Note_on_c, 0, 70, 0
2, 17280, Note_on_c, 0, 69, 88
2, 17301, Note_on_c, 0, 69, 0
2, 17304, Note_on_c, 0, 71, 88
2, 17325, Note_on_c, 0, 71, 0
2, 17328, Note_on_c, 0, 72, 88
2, 17349, Note_on_c, 0, 72, 0
2, 17352, Note_on_c, 0, 71, 88
2, 17373, Note_on_c, 0, 71, 0
2, 17376, Note_on_c, 0, 72, 88
2, 17397, Note_on_c, 0, 72, 0
2, 17400, Note_on_c, 0, 73, 88
2, 17421, Note_on_c, 0, 73, 0
2, 17424, Note_on_c, 0, 74, 88
2, 17445, Note_on_c, 0, 74, 0
2, 17448, Note_on_c, 0, 73, 88
2, 17469, Note_on_c, 0, 73, 0
2, 17472, Note_on_c, 0, 74, 88
2, 17493, Note_on_c, 0, 74, 0
2, 17496, Note_on_c, 0, 76, 88
2, 17517, Note_on_c, 0, 76, 0
2, 17520, Note_on_c, 0, 77, 88
2, 17541, Note_on_c, 0, 77, 0
2, 17544, Note_on_c, 0, 76, 88
2, 17565, Note_on_c, 0, 76, 0
2, 17568, Note_on_c, 0, 74, 88
2, 17589, Note_on_c, 0, 74, 0
2, 17592, Note_on_c, 0, 76, 88
2, 17613, Note_on_c, 0, 76, 0
2, 17616, Note_on_c, 0, 72, 88
2, 17637, Note_on_c, 0, 72, 0
2, 17640, Note_on_c, 0, 74, 88
2, 17661, Note_on_c, 0, 74, 0
2, 17664, Note_on_c, 0, 71, 88
2, 17685, Note_on_c, 0, 71, 0
2, 17688, Note_on_c, 0, 67, 88
2, 17709, Note_on_c, 0, 67, 0
2, 17712, Note_on_c, 0, 66, 88
2, 17733, Note_on_c, 0, 66, 0
2, 17736, Note_on_c, 0, 69, 88
2, 17757, Note_on_c, 0, 69, 0
2, 17760, Note_on_c, 0, 67, 88
2, 17781, Note_on_c, 0, 67, 0
2, 17784, Note_on_c, 0, 71, 88
2, 17805, Note_on_c, 0, 71, 0
2, 17808, Note_on_c, 0, 69, 88
2, 17829, Note_on_c, 0, 69, 0
2, 17832, Note_on_c, 0, 72, 88
2, 17853, Note_on_c, 0, 72, 0
2, 17856, Note_on_c, 0, 71, 88
2, 17877, Note_on_c, 0, 71, 0
2, 17880, Note_on_c, 0, 67, 88
2, 17901, Note_on_c, 0, 67, 0
2, 17904, Note_on_c, 0, 66, 88
2, 17925, Note_on_c, 0, 66, 0
2, 17928, Note_on_c, 0, 69, 88
2, 17949, Note_on_c, 0, 69, 0
2, 17952, Note_on_c, 0, 67, 88
2, 17973, Note_on_c, 0, 67, 0
2, 17976, Note_on_c, 0, 71, 88
2, 17997, Note_on_c, 0, 71, 0
2, 18000, Note_on_c, 0, 69, 88
2, 18021, Note_on_c, 0, 69, 0
2, 18024, Note_on_c, 0, 72, 88
2, 18045, Note_on_c, 0, 72, 0
2, 18048, Note_on_c, 0, 71, 88
2, 18069, Note_on_c, 0, 71, 0
2, 18072, Note_on_c, 0, 73, 88
2, 18093, Note_on_c, 0, 73, 0
2, 18096, Note_on_c, 0, 74, 88
2, 18117, Note_on_c, 0, 74, 0
2, 18120, Note_on_c, 0, 73, 88
2, 18141, Note_on_c, 0, 73, 0
2, 18144, Note_on_c, 0, 74, 88
2, 18165, Note_on_c, 0, 74, 0
2, 18168, Note_on_c, 0, 75, 88
2, 18189, Note_on_c, 0, 75, 0
2, 18192, Note_on_c, 0, 76, 88
2, 18213, Note_on_c, 0, 76, 0
2, 18216, Note_on_c, 0, 75, 88
2, 18237, Note_on_c, 0, 75, 0
2, 18240, Note_on_c, 0, 76, 88
2, 18261, Note_on_c, 0, 76, 0
2, 18264, Note_on_c, 0, 77, 88
2, 18285, Note_on_c, 0, 77, 0
2, 18288, Note_on_c, 0, 79, 88
2, 18309, Note_on_c, 0, 79, 0
2, 18312, Note_on_c, 0, 77, 88
2, 18333, Note_on_c, 0, 77, 0
2, 18336, Note_on_c, 0, 76, 88
2, 18357, Note_on_c, 0, 76, 0
2, 18360, Note_on_c, 0, 77, 88
2, 18381, Note_on_c, 0, 77, 0
2, 18384, Note_on_c, 0, 74, 88
2, 18405, Note_on_c, 0, 74, 0
2, 18408, Note_on_c, 0, 76, 88
2, 18429, Note_on_c, 0, 76, 0
2, 18432, Note_on_c, 0, 72, 88
2, 18518, Note_on_c, 0, 72, 0
2, 18552, Note_on_c, 0, 72, 88
2, 18573, Note_on_c, 0, 72, 0
2, 18576, Note_on_c, 0, 74, 88
2, 18597, Note_on_c, 0, 74, 0
2, 18600, Note_on_c, 0, 76, 88
2, 18621, Note_on_c, 0, 76, 0
2, 18624, Note_on_c, 0, 77, 88
2, 18645, Note_on_c, 0, 77, 0
2, 18648, Note_on_c, 0, 79, 88
2, 18669, Note_on_c, 0, 79, 0
2, 18672, Note_on_c, 0, 76, 88
2, 18693, Note_on_c, 0, 76, 0
2, 18696, Note_on_c, 0, 79, 88
2, 18717, Note_on_c, 0, 79, 0
2, 18720, Note_on_c, 0, 77, 88
2, 18741, Note_on_c, 0, 77, 0
2, 18744, Note_on_c, 0, 79, 88
2, 18765, Note_on_c, 0, 79, 0
2, 18768, Note_on_c, 0, 76, 88
2, 18789, Note_on_c, 0, 76, 0
2, 18792, Note_on_c, 0, 77, 88
2, 18813, Note_on_c, 0, 77, 0
2, 18816, Note_on_c, 0, 74, 88
2, 18902, Note_on_c, 0, 74, 0
2, 18936, Note_on_c, 0, 74, 88
2, 18957, Note_on_c, 0, 74, 0
2, 18960, Note_on_c, 0, 76, 88
2, 18981, Note_on_c, 0, 76, 0
2, 18984, Note_on_c, 0, 78, 88
2, 19005, Note_on_c, 0, 78, 0
2, 19008, Note_on_c, 0, 79, 88
2, 19029, Note_on_c, 0, 79, 0
2, 19032, Note_on_c, 0, 81, 88
2, 19053, Note_on_c, 0, 81, 0
2, 19056, Note_on_c, 0, 78, 88
2, 19077, Note_on_c, 0, 78, 0
2, 19080, Note_on_c, 0, 81, 88
2, 19101, Note_on_c, 0, 81, 0
2, 19104, Note_on_c, 0, 79, 88
2, 19125, Note_on_c, 0, 79, 0
2, 19128, Note_on_c, 0, 81, 88
2, 19149, Note_on_c, 0, 81, 0
2, 19152, Note_on_c, 0, 77, 88
2, 19173, Note_on_c, 0, 77, 0
2, 19176, Note_on_c, 0, 79, 88
2, 19197, Note_on_c, 0, 79, 0
2, 19200, Note_on_c, 0, 76, 88
2, 19221, Note_on_c, 0, 76, 0
2, 19224, Note_on_c, 0, 72, 88
2, 19245, Note_on_c, 0, 72, 0
2, 19248, Note_on_c, 0, 71, 88
2, 19269, Note_on_c, 0, 71, 0
2, 19272, Note_on_c, 0, 72, 88
2, 19293, Note_on_c, 0, 72, 0
2, 19296, Note_on_c, 0, 67, 88
2, 19317, Note_on_c, 0, 67, 0
2, 19320, Note_on_c, 0, 64, 88
2, 19341, Note_on_c, 0, 64, 0
2, 19344, Note_on_c, 0, 60, 88
2, 19365, Note_on_c, 0, 60, 0
2, 19368, Note_on_c, 0, 64, 88
2, 19389, Note_on_c, 0, 64, 0
2, 19392, Note_on_c, 0, 60, 88
2, 19478, Note_on_c, 0, 60, 0
2, 19488, Note_on_c, 0, 76, 88
2, 19574, Note_on_c, 0, 76, 0
2, 19584, Note_on_c, 0, 77, 88
2, 19605, Note_on_c, 0, 77, 0
2, 19608, Note_on_c, 0, 79, 88
2, 19629, Note_on_c, 0, 79, 0
2, 19632, Note_on_c, 0, 76, 88
2, 19653, Note_on_c, 0, 76, 0
2, 19656, Note_on_c, 0, 77, 88
2, 19677, Note_on_c, 0, 77, 0
2, 19680, Note_on_c, 0, 74, 88
2, 19701, Note_on_c, 0, 74, 0
2, 19704, Note_on_c, 0, 76, 88
2, 19725, Note_on_c, 0, 76, 0
2, 19728, Note_on_c, 0, 72, 88
2, 19749, Note_on_c, 0, 72, 0
2, 19752, Note_on_c, 0, 74, 88
2, 19773, Note_on_c, 0, 74, 0
2, 19776, Note_on_c, 0, 71, 88
2, 19797, Note_on_c, 0, 71, 0
2, 19800, Note_on_c, 0, 72, 88
2, 19821, Note_on_c, 0, 72, 0
2, 19824, Note_on_c, 0, 69, 88
2, 19845, Note_on_c, 0, 69, 0
2, 19848, Note_on_c, 0, 71, 88
2, 19869, Note_on_c, 0, 71, 0
2, 19872, Note_on_c, 0, 67, 88
2, 19893, Note_on_c, 0, 67, 0
2, 19896, Note_on_c, 0, 71, 88
2, 19917, Note_on_c, 0, 71, 0
2, 19920, Note_on_c, 0, 74, 88
2, 19941, Note_on_c, 0, 74, 0
2, 19944, Note_on_c, 0, 77, 88
2, 19965, Note_on_c, 0, 77, 0
2, 19968, Note_on_c, 0, 76, 88
2, 19989, Note_on_c, 0, 76, 0
2, 19992, Note_on_c, 0, 72, 88
2, 20013, Note_on_c, 0, 72, 0
2, 20016, Note_on_c, 0, 71, 88
2, 20037, Note_on_c, 0, 71, 0
2, 20040, Note_on_c, 0, 72, 88
2, 20061, Note_on_c, 0, 72, 0
2, 20064, Note_on_c, 0, 67, 88
2, 20085, Note_on_c, 0, 67, 0
2, 20088, Note_on_c, 0, 64, 88
2, 20109, Note_on_c, 0, 64, 0
2, 20112, Note_on_c, 0, 60, 88
2, 20133, Note_on_c, 0, 60, 0
2, 20136, Note_on_c, 0, 64, 88
2, 20157, Note_on_c, 0, 64, 0
2, 20160, Note_on_c, 0, 60, 88
2, 20246, Note_on_c, 0, 60, 0
2, 20256, Note_on_c, 0, 76, 88
2, 20342, Note_on_c, 0, 76, 0
2, 20352, Note_on_c, 0, 77, 88
2, 20373, Note_on_c, 0, 77, 0
2, 20376, Note_on_c, 0, 79, 88
2, 20397, Note_on_c, 0, 79, 0
2, 20400, Note_on_c, 0, 76, 88
2, 20421, Note_on_c, 0, 76, 0
2, 20424, Note_on_c, 0, 77, 88
2, 20445, Note_on_c, 0, 77, 0
2, 20448, Note_on_c, 0, 74, 88
2, 20469, Note_on_c, 0, 74, 0
2, 20472, Note_on_c, 0, 76, 88
2, 20493, Note_on_c, 0, 76, 0
2, 20496, Note_on_c, 0, 72, 88
2, 20517, Note_on_c, 0, 72, 0
2, 20520, Note_on_c, 0, 74, 88
2, 20541, Note_on_c, 0, 74, 0
2, 20544, Note_on_c, 0, 71, 88
2, 20565, Note_on_c, 0, 71, 0
2, 20568, Note_on_c, 0, 72, 88
2, 20589, Note_on_c, 0, 72, 0
2, 20592, Note_on_c, 0, 69, 88
2, 20613, Note_on_c, 0, 69, 0
2, 20616, Note_on_c, 0, 71, 88
2, 20637, Note_on_c, 0, 71, 0
2, 20640, Note_on_c, 0, 67, 88
2, 20661, Note_on_c, 0, 67, 0
2, 20664, Note_on_c, 0, 71, 88
2, 20685, Note_on_c, 0, 71, 0
2, 20688, Note_on_c, 0, 74, 88
2, 20709, Note_on_c, 0, 74, 0
2, 20712, Note_on_c, 0, 77, 88
2, 20733, Note_on_c, 0, 77, 0
2, 20736, Note_on_c, 0, 76, 88
2, 20822, Note_on_c, 0, 76, 0
2, 20880, Note_on_c, 0, 76, 88
2, 20923, Note_on_c, 0, 76, 0
2, 20928, Note_on_c, 0, 77, 88
2, 20971, Note_on_c, 0, 77, 0
2, 20976, Note_on_c, 0, 78, 88
2, 21019, Note_on_c, 0, 78, 0
2, 21024, Note_on_c, 0, 79, 88
2, 21067, Note_on_c, 0, 79, 0
2, 21072, Note_on_c, 0, 80, 88
2, 21115, Note_on_c, 0, 80, 0
2, 21120, Note_on_c, 0, 81, 88
2, 21141, Note_on_c, 0, 81, 0
2, 21144, Note_on_c, 0, 77, 88
2, 21165, Note_on_c, 0, 77, 0
2, 21168, Note_on_c, 0, 72, 88
2, 21189, Note_on_c, 0, 72, 0
2, 21192, Note_on_c, 0, 69, 88
2, 21213, Note_on_c, 0, 69, 0
2, 21216, Note_on_c, 0, 65, 88
2, 21237, Note_on_c, 0, 65, 0
2, 21240, Note_on_c, 0, 69, 88
2, 21261, Note_on_c, 0, 69, 0
2, 21264, Note_on_c, 0, 72, 88
2, 21285, Note_on_c, 0, 72, 0
2, 21288, Note_on_c, 0, 77, 88
2, 21309, Note_on_c, 0, 77, 0
2, 21312, Note_on_c, 0, 81, 88
2, 21355, Note_on_c, 0, 81, 0
2, 21360, Note_on_c, 0, 81, 88
2, 21446, Note_on_c, 0, 81, 0
2, 21456, Note_on_c, 0, 81, 88
2, 21499, Note_on_c, 0, 81, 0
2, 21504, Note_on_c, 0, 79, 88
2, 21525, Note_on_c, 0, 79, 0
2, 21528, Note_on_c, 0, 76, 88
2, 21549, Note_on_c, 0, 76, 0
2, 21552, Note_on_c, 0, 72, 88
2, 21573, Note_on_c, 0, 72, 0
2, 21576, Note_on_c, 0, 67, 88
2, 21597, Note_on_c, 0, 67, 0
2, 21600, Note_on_c, 0, 64, 88
2, 21621, Note_on_c, 0, 64, 0
2, 21624, Note_on_c, 0, 67, 88
2, 21645, Note_on_c, 0, 67, 0
2, 21648, Note_on_c, 0, 72, 88
2, 21669, Note_on_c, 0, 72, 0
2, 21672, Note_on_c, 0, 76, 88
2, 21693, Note_on_c, 0, 76, 0
2, 21696, Note_on_c, 0, 79, 88
2, 21739, Note_on_c, 0, 79, 0
2, 21744, Note_on_c, 0, 79, 88
2, 21830, Note_on_c, 0, 79, 0
2, 21840, Note_on_c, 0, 79, 88
2, 21883, Note_on_c, 0, 79, 0
2, 21888, Note_on_c, 0, 77, 88
2, 21909, Note_on_c, 0, 77, 0
2, 21912, Note_on_c, 0, 74, 88
2, 21933, Note_on_c, 0, 74, 0
2, 21936, Note_on_c, 0, 71, 88
2, 21957, Note_on_c, 0, 71, 0
2, 21960, Note_on_c, 0, 65, 88
2, 21981, Note_on_c, 0, 65, 0
2, 21984, Note_on_c, 0, 62, 88
2, 22005, Note_on_c, 0, 62, 0
2, 22008, Note_on_c, 0, 65, 88
2, 22029, Note_on_c, 0, 65, 0
2, 22032, Note_on_c, 0, 71, 88
2, 22053, Note_on_c, 0, 71, 0
2, 22056, Note_on_c, 0, 74, 88
2, 22077, Note_on_c, 0, 74, 0
2, 22080, Note_on_c, 0, 77, 88
2, 22123, Note_on_c, 0, 77, 0
2, 22128, Note_on_c, 0, 77, 88
2, 22171, Note_on_c, 0, 77, 0
2, 22224, Note_on_c, 0, 74, 88
2, 22267, Note_on_c, 0, 74, 0
2, 22272, Note_on_c, 0, 76, 88
2, 22293, Note_on_c, 0, 76, 0
2, 22296, Note_on_c, 0, 74, 88
2, 22317, Note_on_c, 0, 74, 0
2, 22320, Note_on_c, 0, 72, 88
2, 22341, Note_on_c, 0, 72, 0
2, 22344, Note_on_c, 0, 74, 88
2, 22365, Note_on_c, 0, 74, 0
2, 22368, Note_on_c, 0, 76, 88
2, 22389, Note_on_c, 0, 76, 0
2, 22392, Note_on_c, 0, 77, 88
2, 22413, Note_on_c, 0, 77, 0
2, 22416, Note_on_c, 0, 79, 88
2, 22437, Note_on_c, 0, 79, 0
2, 22440, Note_on_c, 0, 81, 88
2, 22461, Note_on_c, 0, 81, 0
2, 22464, Note_on_c, 0, 79, 88
2, 22485, Note_on_c, 0, 79, 0
2, 22488, Note_on_c, 0, 81, 88
2, 22509, Note_on_c, 0, 81, 0
2, 22512, Note_on_c, 0, 79, 88
2, 22533, Note_on_c, 0, 79, 0
2, 22536, Note_on_c, 0, 77, 88
2, 22557, Note_on_c, 0, 77, 0
2, 22560, Note_on_c, 0, 76, 88
2, 22581, Note_on_c, 0, 76, 0
2, 22584, Note_on_c, 0, 74, 88
2, 22605, Note_on_c, 0, 74, 0
2, 22608, Note_on_c, 0, 72, 88
2, 22629, Note_on_c, 0, 72, 0
2, 22632, Note_on_c, 0, 71, 88
2, 22653, Note_on_c, 0, 71, 0
2, 22656, Note_on_c, 0, 72, 88
2, 22677, Note_on_c, 0, 72, 0
2, 22680, Note_on_c, 0, 71, 88
2, 22701, Note_on_c, 0, 71, 0
2, 22704, Note_on_c, 0, 69, 88
2, 22725, Note_on_c, 0, 69, 0
2, 22728, Note_on_c, 0, 71, 88
2, 22749, Note_on_c, 0, 71, 0
2, 22752, Note_on_c, 0, 72, 88
2, 22773, Note_on_c, 0, 72, 0
2, 22776, Note_on_c, 0, 74, 88
2, 22797, Note_on_c, 0, 74, 0
2, 22800, Note_on_c, 0, 76, 88
2, 22821, Note_on_c, 0, 76, 0
2, 22824, Note_on_c, 0, 77, 88
2, 22845, Note_on_c, 0, 77, 0
2, 22848, Note_on_c, 0, 76, 88
2, 22869, Note_on_c, 0, 76, 0
2, 22872, Note_on_c, 0, 77, 88
2, 22893, Note_on_c, 0, 77, 0
2, 22896, Note_on_c, 0, 76, 88
2, 22917, Note_on_c, 0, 76, 0
2, 22920, Note_on_c, 0, 74, 88
2, 22941, Note_on_c, 0, 74, 0
2, 22944, Note_on_c, 0, 72, 88
2, 22965, Note_on_c, 0, 72, 0
2, 22968, Note_on_c, 0, 71, 88
2, 22989, Note_on_c, 0, 71, 0
2, 22992, Note_on_c, 0, 69, 88
2, 23013, Note_on_c, 0, 69, 0
2, 23016, Note_on_c, 0, 67, 88
2, 23037, Note_on_c, 0, 67, 0
2, 23040, Note_on_c, 0, 69, 88
2, 23061, Note_on_c, 0, 69, 0
2, 23064, Note_on_c, 0, 67, 88
2, 23085, Note_on_c, 0, 67, 0
2, 23088, Note_on_c, 0, 65, 88
2, 23109, Note_on_c, 0, 65, 0
2, 23112, Note_on_c, 0, 67, 88
2, 23133, Note_on_c, 0, 67, 0
2, 23136, Note_on_c, 0, 69, 88
2, 23157, Note_on_c, 0, 69, 0
2, 23160, Note_on_c, 0, 71, 88
2, 23181, Note_on_c, 0, 71, 0
2, 23184, Note_on_c, 0, 72, 88
2, 23205, Note_on_c, 0, 72, 0
2, 23208, Note_on_c, 0, 74, 88
2, 23229, Note_on_c, 0, 74, 0
2, 23232, Note_on_c, 0, 72, 88
2, 23253, Note_on_c, 0, 72, 0
2, 23256, Note_on_c, 0, 74, 88
2, 23277, Note_on_c, 0, 74, 0
2, 23280, Note_on_c, 0, 72, 88
2, 23301, Note_on_c, 0, 72, 0
2, 23304, Note_on_c, 0, 71, 88
2, 23325, Note_on_c, 0, 71, 0
2, 23328, Note_on_c, 0, 69, 88
2, 23349, Note_on_c, 0, 69, 0
2, 23352, Note_on_c, 0, 67, 88
2, 23373, Note_on_c, 0, 67, 0
2, 23376, Note_on_c, 0, 65, 88
2, 23397, Note_on_c, 0, 65, 0
2, 23400, Note_on_c, 0, 64, 88
2, 23421, Note_on_c, 0, 64, 0
2, 23424, Note_on_c, 0, 65, 88
2, 23445, Note_on_c, 0, 65, 0
2, 23448, Note_on_c, 0, 64, 88
2, 23469, Note_on_c, 0, 64, 0
2, 23472, Note_on_c, 0, 62, 88
2, 23493, Note_on_c, 0, 62, 0
2, 23496, Note_on_c, 0, 64, 88
2, 23517, Note_on_c, 0, 64, 0
2, 23520, Note_on_c, 0, 65, 88
2, 23541, Note_on_c, 0, 65, 0
2, 23544, Note_on_c, 0, 67, 88
2, 23565, Note_on_c, 0, 67, 0
2, 23568, Note_on_c, 0, 69, 88
2, 23589, Note_on_c, 0, 69, 0
2, 23592, Note_on_c, 0, 71, 88
2, 23613, Note_on_c, 0, 71, 0
2, 23616, Note_on_c, 0, 72, 88
2, 23637, Note_on_c, 0, 72, 0
2, 23640, Note_on_c, 0, 74, 88
2, 23661, Note_on_c, 0, 74, 0
2, 23664, Note_on_c, 0, 76, 88
2, 23685, Note_on_c, 0, 76, 0
2, 23688, Note_on_c, 0, 77, 88
2, 23709, Note_on_c, 0, 77, 0
2, 23712, Note_on_c, 0, 79, 88
2, 23733, Note_on_c, 0, 79, 0
2, 23736, Note_on_c, 0, 81, 88
2, 23757, Note_on_c, 0, 81, 0
2, 23760, Note_on_c, 0, 83, 88
2, 23781, Note_on_c, 0, 83, 0
2, 23784, Note_on_c, 0, 84, 88
2, 23805, Note_on_c, 0, 84, 0
2, 23808, Note_on_c, 0, 83, 88
2, 23851, Note_on_c, 0, 83, 0
2, 23856, Note_on_c, 0, 81, 88
2, 23899, Note_on_c, 0, 81, 0
2, 23904, Note_on_c, 0, 79, 88
2, 23947, Note_on_c, 0, 79, 0
2, 23952, Note_on_c, 0, 77, 88
2, 23995, Note_on_c, 0, 77, 0
2, 24000, Note_on_c, 0, 76, 88
2, 24086, Note_on_c, 0, 76, 0
2, 24096, Note_on_c, 0, 76, 88
2, 24108, Note_on_c, 0, 76, 0
2, 24108, Note_on_c, 0, 74, 88
2, 24120, Note_on_c, 0, 74, 0
2, 24120, Note_on_c, 0, 76, 88
2, 24132, Note_on_c, 0, 76, 0
2, 24132, Note_on_c, 0, 74, 88
2, 24144, Note_on_c, 0, 74, 0
2, 24144, Note_on_c, 0, 72, 88
2, 24168, Note_on_c, 0, 72, 0
2, 24168, Note_on_c, 0, 74, 88
2, 24192, Note_on_c, 0, 74, 0
2, 24192, Note_on_c, 0, 72, 88
2, 24278, Note_on_c, 0, 72, 0
2, 24576, Note_on_c, 0, 60, 88
2, 24748, Note_on_c, 0, 60, 0
2, 24768, Note_on_c, 0, 75, 88
2, 24940, Note_on_c, 0, 75, 0
2, 24960, Note_on_c, 0, 74, 88
2, 25132, Note_on_c, 0, 74, 0
2, 25152, Note_on_c, 0, 58, 88
2, 25324, Note_on_c, 0, 58, 0
2, 25344, Note_on_c, 0, 56, 88
2, 25516, Note_on_c, 0, 56, 0
2, 25536, Note_on_c, 0, 72, 88
2, 25708, Note_on_c, 0, 72, 0
2, 25728, Note_on_c, 0, 70, 88
2, 25900, Note_on_c, 0, 70, 0
2, 25920, Note_on_c, 0, 82, 88
2, 26092, Note_on_c, 0, 82, 0
2, 26112, Note_on_c, 0, 80, 88
2, 26284, Note_on_c, 0, 80, 0
2, 26304, Note_on_c, 0, 65, 88
2, 26476, Note_on_c, 0, 65, 0
2, 26496, Note_on_c, 0, 63, 88
2, 26668, Note_on_c, 0, 63, 0
2, 26688, Note_on_c, 0, 79, 88
2, 26923, Note_on_c, 0, 79, 0
2, 26928, Note_on_c, 0, 78, 88
2, 27014, Note_on_c, 0, 78, 0
2, 27024, Note_on_c, 0, 75, 88
2, 27110, Note_on_c, 0, 75, 0
2, 27120, Note_on_c, 0, 74, 88
2, 27206, Note_on_c, 0, 74, 0
2, 27216, Note_on_c, 0, 72, 88
2, 27259, Note_on_c, 0, 72, 0
2, 27264, Note_on_c, 0, 72, 88
2, 27276, Note_on_c, 0, 72, 0
2, 27276, Note_on_c, 0, 71, 88
2, 27288, Note_on_c, 0, 71, 0
2, 27288, Note_on_c, 0, 72, 88
2, 27300, Note_on_c, 0, 72, 0
2, 27300, Note_on_c, 0, 71, 88
2, 27312, Note_on_c, 0, 71, 0
2, 27312, Note_on_c, 0, 72, 88
2, 27324, Note_on_c, 0, 72, 0
2, 27324, Note_on_c, 0, 71, 88
2, 27336, Note_on_c, 0, 71, 0
2, 27336, Note_on_c, 0, 72, 88
2, 27348, Note_on_c, 0, 72, 0
2, 27348, Note_on_c, 0, 71, 88
2, 27360, Note_on_c, 0, 71, 0
2, 27360, Note_on_c, 0, 72, 88
2, 27372, Note_on_c, 0, 72, 0
2, 27372, Note_on_c, 0, 71, 88
2, 27384, Note_on_c, 0, 71, 0
2, 27384, Note_on_c, 0, 72, 88
2, 27396, Note_on_c, 0, 72, 0
2, 27396, Note_on_c, 0, 71, 88
2, 27408, Note_on_c, 0, 71, 0
2, 27408, Note_on_c, 0, 69, 88
2, 27456, Note_on_c, 0, 69, 0
2, 27456, Note_on_c, 0, 67, 88
2, 27542, Note_on_c, 0, 67, 0
2, 27648, Note_on_c, 0, 74, 88
2, 27883, Note_on_c, 0, 74, 0
2, 27888, Note_on_c, 0, 79, 88
2, 27909, Note_on_c, 0, 79, 0
2, 27912, Note_on_c, 0, 77, 88
2, 27933, Note_on_c, 0, 77, 0
2, 27936, Note_on_c, 0, 76, 88
2, 27957, Note_on_c, 0, 76, 0
2, 27960, Note_on_c, 0, 74, 88
2, 27981, Note_on_c, 0, 74, 0
2, 27984, Note_on_c, 0, 72, 88
2, 28005, Note_on_c, 0, 72, 0
2, 28008, Note_on_c, 0, 71, 88
2, 28029, Note_on_c, 0, 71, 0
2, 28032, Note_on_c, 0, 72, 88
2, 28080, Note_on_c, 0, 72, 0
2, 28080, Note_on_c, 0, 76, 88
2, 28128, Note_on_c, 0, 76, 0
2, 28128, Note_on_c, 0, 79, 88
2, 28152, Note_on_c, 0, 79, 0
2, 28176, Note_on_c, 0, 79, 88
2, 28200, Note_on_c, 0, 79, 0
2, 28224, Note_on_c, 0, 79, 88
2, 28310, Note_on_c, 0, 79, 0
2, 28416, Note_on_c, 0, 74, 88
2, 28480, Note_on_c, 0, 74, 0
2, 28488, Note_on_c, 0, 71, 88
2, 28509, Note_on_c, 0, 71, 0
2, 28512, Note_on_c, 0, 74, 88
2, 28641, Note_on_c, 0, 74, 0
2, 28656, Note_on_c, 0, 79, 88
2, 28677, Note_on_c, 0, 79, 0
2, 28680, Note_on_c, 0, 77, 88
2, 28701, Note_on_c, 0, 77, 0
2, 28704, Note_on_c, 0, 76, 88
2, 28725, Note_on_c, 0, 76, 0
2, 28728, Note_on_c, 0, 74, 88
2, 28749, Note_on_c, 0, 74, 0
2, 28752, Note_on_c, 0, 72, 88
2, 28773, Note_on_c, 0, 72, 0
2, 28776, Note_on_c, 0, 71, 88
2, 28797, Note_on_c, 0, 71, 0
2, 28800, Note_on_c, 0, 72, 88
2, 28821, Note_on_c, 0, 72, 0
2, 28824, Note_on_c, 0, 74, 88
2, 28845, Note_on_c, 0, 74, 0
2, 28848, Note_on_c, 0, 72, 88
2, 28869, Note_on_c, 0, 72, 0
2, 28872, Note_on_c, 0, 74, 88
2, 28893, Note_on_c, 0, 74, 0
2, 28896, Note_on_c, 0, 76, 88
2, 28917, Note_on_c, 0, 76, 0
2, 28920, Note_on_c, 0, 77, 88
2, 28941, Note_on_c, 0, 77, 0
2, 28944, Note_on_c, 0, 76, 88
2, 28965, Note_on_c, 0, 76, 0
2, 28968, Note_on_c, 0, 77, 88
2, 28989, Note_on_c, 0, 77, 0
2, 28992, Note_on_c, 0, 79, 88
2, 29078, Note_on_c, 0, 79, 0
2, 29184, Note_on_c, 0, 72, 88
2, 29397, Note_on_c, 0, 72, 0
2, 29400, Note_on_c, 0, 71, 88
2, 29421, Note_on_c, 0, 71, 0
2, 29424, Note_on_c, 0, 69, 88
2, 29445, Note_on_c, 0, 69, 0
2, 29448, Note_on_c, 0, 67, 88
2, 29469, Note_on_c, 0, 67, 0
2, 29472, Note_on_c, 0, 65, 88
2, 29493, Note_on_c, 0, 65, 0
2, 29496, Note_on_c, 0, 64, 88
2, 29517, Note_on_c, 0, 64, 0
2, 29520, Note_on_c, 0, 62, 88
2, 29541, Note_on_c, 0, 62, 0
2, 29544, Note_on_c, 0, 60, 88
2, 29565, Note_on_c, 0, 60, 0
2, 29568, Note_on_c, 0, 62, 88
2, 29781, Note_on_c, 0, 62, 0
2, 29784, Note_on_c, 0, 64, 88
2, 29805, Note_on_c, 0, 64, 0
2, 29808, Note_on_c, 0, 65, 88
2, 29829, Note_on_c, 0, 65, 0
2, 29832, Note_on_c, 0, 67, 88
2, 29853, Note_on_c, 0, 67, 0
2, 29856, Note_on_c, 0, 69, 88
2, 29877, Note_on_c, 0, 69, 0
2, 29880, Note_on_c, 0, 71, 88
2, 29901, Note_on_c, 0, 71, 0
2, 29904, Note_on_c, 0, 72, 88
2, 29925, Note_on_c, 0, 72, 0
2, 29928, Note_on_c, 0, 74, 88
2, 29949, Note_on_c, 0, 74, 0
2, 29952, Note_on_c, 0, 76, 88
2, 29973, Note_on_c, 0, 76, 0
2, 29976, Note_on_c, 0, 74, 88
2, 29997, Note_on_c, 0, 74, 0
2, 30000, Note_on_c, 0, 72, 88
2, 30021, Note_on_c, 0, 72, 0
2, 30024, Note_on_c, 0, 71, 88
2, 30045, Note_on_c, 0, 71, 0
2, 30048, Note_on_c, 0, 69, 88
2, 30069, Note_on_c, 0, 69, 0
2, 30072, Note_on_c, 0, 67, 88
2, 30093, Note_on_c, 0, 67, 0
2, 30096, Note_on_c, 0, 65, 88
2, 30117, Note_on_c, 0, 65, 0
2, 30120, Note_on_c, 0, 64, 88
2, 30141, Note_on_c, 0, 64, 0
2, 30144, Note_on_c, 0, 65, 88
2, 30165, Note_on_c, 0, 65, 0
2, 30168, Note_on_c, 0, 67, 88
2, 30189, Note_on_c, 0, 67, 0
2, 30192, Note_on_c, 0, 69, 88
2, 30213, Note_on_c, 0, 69, 0
2, 30216, Note_on_c, 0, 71, 88
2, 30237, Note_on_c, 0, 71, 0
2, 30240, Note_on_c, 0, 72, 88
2, 30261, Note_on_c, 0, 72, 0
2, 30264, Note_on_c, 0, 74, 88
2, 30285, Note_on_c, 0, 74, 0
2, 30288, Note_on_c, 0, 76, 88
2, 30309, Note_on_c, 0, 76, 0
2, 30312, Note_on_c, 0, 77, 88
2, 30333, Note_on_c, 0, 77, 0
2, 30336, Note_on_c, 0, 81, 88
2, 30348, Note_on_c, 0, 81, 0
2, 30348, Note_on_c, 0, 79, 88
2, 30360, Note_on_c, 0, 79, 0
2, 30360, Note_on_c, 0, 81, 88
2, 30372, Note_on_c, 0, 81, 0
2, 30372, Note_on_c, 0, 79, 88
2, 30384, Note_on_c, 0, 79, 0
2, 30384, Note_on_c, 0, 81, 88
2, 30396, Note_on_c, 0, 81, 0
2, 30396, Note_on_c, 0, 79, 88
2, 30408, Note_on_c, 0, 79, 0
2, 30408, Note_on_c, 0, 81, 88
2, 30420, Note_on_c, 0, 81, 0
2, 30420, Note_on_c, 0, 79, 88
2, 30432, Note_on_c, 0, 79, 0
2, 30432, Note_on_c, 0, 81, 88
2, 30444, Note_on_c, 0, 81, 0
2, 30444, Note_on_c, 0, 79, 88
2, 30456, Note_on_c, 0, 79, 0
2, 30456, Note_on_c, 0, 81, 88
2, 30468, Note_on_c, 0, 81, 0
2, 30468, Note_on_c, 0, 79, 88
2, 30480, Note_on_c, 0, 79, 0
2, 30480, Note_on_c, 0, 77, 88
2, 30504, Note_on_c, 0, 77, 0
2, 30504, Note_on_c, 0, 79, 88
2, 30528, Note_on_c, 0, 79, 0
2, 30528, Note_on_c, 0, 81, 88
2, 30614, Note_on_c, 0, 81, 0
2, 30624, Note_on_c, 0, 69, 88
2, 30710, Note_on_c, 0, 69, 0
2, 30720, Note_on_c, 0, 67, 88
2, 30892, Note_on_c, 0, 67, 0
2, 30912, Note_on_c, 0, 76, 88
2, 30924, Note_on_c, 0, 76, 0
2, 30924, Note_on_c, 0, 74, 88
2, 30936, Note_on_c, 0, 74, 0
2, 30936, Note_on_c, 0, 76, 88
2, 30948, Note_on_c, 0, 76, 0
2, 30948, Note_on_c, 0, 74, 88
2, 30960, Note_on_c, 0, 74, 0
2, 30960, Note_on_c, 0, 76, 88
2, 30972, Note_on_c, 0, 76, 0
2, 30972, Note_on_c, 0, 74, 88
2, 30984, Note_on_c, 0, 74, 0
2, 30984, Note_on_c, 0, 76, 88
2, 30996, Note_on_c, 0, 76, 0
2, 30996, Note_on_c, 0, 74, 88
2, 31008, Note_on_c, 0, 74, 0
2, 31008, Note_on_c, 0, 76, 88
2, 31020, Note_on_c, 0, 76, 0
2, 31020, Note_on_c, 0, 74, 88
2, 31032, Note_on_c, 0, 74, 0
2, 31032, Note_on_c, 0, 76, 88
2, 31044, Note_on_c, 0, 76, 0
2, 31044, Note_on_c, 0, 74, 88
2, 31056, Note_on_c, 0, 74, 0
2, 31056, Note_on_c, 0, 72, 88
2, 31080, Note_on_c, 0, 72, 0
2, 31080, Note_on_c, 0, 74, 88
2, 31104, Note_on_c, 0, 74, 0
2, 31104, Note_on_c, 0, 74, 88
2, 31200, Note_on_c, 0, 74, 0
2, 31200, Note_on_c, 0, 76, 88
2, 31296, Note_on_c, 0, 76, 0
2, 31392, Note_on_c, 0, 79, 88
2, 31478, Note_on_c, 0, 79, 0
2, 31488, Note_on_c, 0, 81, 88
2, 31531, Note_on_c, 0, 81, 0
2, 31536, Note_on_c, 0, 79, 88
2, 31557, Note_on_c, 0, 79, 0
2, 31560, Note_on_c, 0, 77, 88
2, 31581, Note_on_c, 0, 77, 0
2, 31584, Note_on_c, 0, 76, 88
2, 31605, Note_on_c, 0, 76, 0
2, 31608, Note_on_c, 0, 74, 88
2, 31629, Note_on_c, 0, 74, 0
2, 31632, Note_on_c, 0, 72, 88
2, 31653, Note_on_c, 0, 72, 0
2, 31656, Note_on_c, 0, 71, 88
2, 31677, Note_on_c, 0, 71, 0
2, 31680, Note_on_c, 0, 69, 88
2, 31701, Note_on_c, 0, 69, 0
2, 31704, Note_on_c, 0, 67, 88
2, 31725, Note_on_c, 0, 67, 0
2, 31728, Note_on_c, 0, 65, 88
2, 31749, Note_on_c, 0, 65, 0
2, 31752, Note_on_c, 0, 64, 88
2, 31773, Note_on_c, 0, 64, 0
2, 31776, Note_on_c, 0, 62, 88
2, 31797, Note_on_c, 0, 62, 0
2, 31800, Note_on_c, 0, 60, 88
2, 31821, Note_on_c, 0, 60, 0
2, 31824, Note_on_c, 0, 59, 88
2, 31845, Note_on_c, 0, 59, 0
2, 31848, Note_on_c, 0, 57, 88
2, 31869, Note_on_c, 0, 57, 0
2, 31872, Note_on_c, 0, 59, 88
2, 31915, Note_on_c, 0, 59, 0
2, 31920, Note_on_c, 0, 60, 88
2, 31941, Note_on_c, 0, 60, 0
2, 31944, Note_on_c, 0, 62, 88
2, 31965, Note_on_c, 0, 62, 0
2, 31968, Note_on_c, 0, 64, 88
2, 31989, Note_on_c, 0, 64, 0
2, 31992, Note_on_c, 0, 65, 88
2, 32013, Note_on_c, 0, 65, 0
2, 32016, Note_on_c, 0, 67, 88
2, 32037, Note_on_c, 0, 67, 0
2, 32040, Note_on_c, 0, 69, 88
2, 32061, Note_on_c, 0, 69, 0
2, 32064, Note_on_c, 0, 71, 88
2, 32085, Note_on_c, 0, 71, 0
2, 32088, Note_on_c, 0, 72, 88
2, 32109, Note_on_c, 0, 72, 0
2, 32112, Note_on_c, 0, 74, 88
2, 32133, Note_on_c, 0, 74, 0
2, 32136, Note_on_c, 0, 76, 88
2, 32157, Note_on_c, 0, 76, 0
2, 32160, Note_on_c, 0, 77, 88
2, 32181, Note_on_c, 0, 77, 0
2, 32184, Note_on_c, 0, 79, 88
2, 32205, Note_on_c, 0, 79, 0
2, 32208, Note_on_c, 0, 81, 88
2, 32229, Note_on_c, 0, 81, 0
2, 32232, Note_on_c, 0, 83, 88
2, 32253, Note_on_c, 0, 83, 0
2, 32256, Note_on_c, 0, 84, 88
2, 32299, Note_on_c, 0, 84, 0
2, 32304, Note_on_c, 0, 83, 88
2, 32325, Note_on_c, 0, 83, 0
2, 32328, Note_on_c, 0, 81, 88
2, 32349, Note_on_c, 0, 81, 0
2, 32352, Note_on_c, 0, 79, 88
2, 32373, Note_on_c, 0, 79, 0
2, 32376, Note_on_c, 0, 77, 88
2, 32397, Note_on_c, 0, 77, 0
2, 32400, Note_on_c, 0, 76, 88
2, 32421, Note_on_c, 0, 76, 0
2, 32424, Note_on_c, 0, 74, 88
2, 32445, Note_on_c, 0, 74, 0
2, 32448, Note_on_c, 0, 72, 88
2, 32469, Note_on_c, 0, 72, 0
2, 32472, Note_on_c, 0, 71, 88
2, 32493, Note_on_c, 0, 71, 0
2, 32496, Note_on_c, 0, 69, 88
2, 32517, Note_on_c, 0, 69, 0
2, 32520, Note_on_c, 0, 67, 88
2, 32541, Note_on_c, 0, 67, 0
2, 32544, Note_on_c, 0, 65, 88
2, 32565, Note_on_c, 0, 65, 0
2, 32568, Note_on_c, 0, 64, 88
2, 32589, Note_on_c, 0, 64, 0
2, 32592, Note_on_c, 0, 62, 88
2, 32613, Note_on_c, 0, 62, 0
2, 32616, Note_on_c, 0, 60, 88
2, 32637, Note_on_c, 0, 60, 0
2, 32640, Note_on_c, 0, 62, 88
2, 32683, Note_on_c, 0, 62, 0
2, 32688, Note_on_c, 0, 64, 88
2, 32709, Note_on_c, 0, 64, 0
2, 32712, Note_on_c, 0, 65, 88
2, 32733, Note_on_c, 0, 65, 0
2, 32736, Note_on_c, 0, 67, 88
2, 32757, Note_on_c, 0, 67, 0
2, 32760, Note_on_c, 0, 69, 88
2, 32781, Note_on_c, 0, 69, 0
2, 32784, Note_on_c, 0, 71, 88
2, 32805, Note_on_c, 0, 71, 0
2, 32808, Note_on_c, 0, 72, 88
2, 32829, Note_on_c, 0, 72, 0
2, 32832, Note_on_c, 0, 74, 88
2, 32853, Note_on_c, 0, 74, 0
2, 32856, Note_on_c, 0, 76, 88
2, 32877, Note_on_c, 0, 76, 0
2, 32880, Note_on_c, 0, 77, 88
2, 32901, Note_on_c, 0, 77, 0
2, 32904, Note_on_c, 0, 76, 88
2, 32925, Note_on_c, 0, 76, 0
2, 32928, Note_on_c, 0, 79, 88
2, 32949, Note_on_c, 0, 79, 0
2, 32952, Note_on_c, 0, 77, 88
2, 32973, Note_on_c, 0, 77, 0
2, 32976, Note_on_c, 0, 76, 88
2, 32997, Note_on_c, 0, 76, 0
2, 33000, Note_on_c, 0, 74, 88
2, 33021, Note_on_c, 0, 74, 0
2, 33024, Note_on_c, 0, 76, 88
2, 33110, Note_on_c, 0, 76, 0
2, 33144, Note_on_c, 0, 79, 88
2, 33165, Note_on_c, 0, 79, 0
2, 33168, Note_on_c, 0, 81, 88
2, 33189, Note_on_c, 0, 81, 0
2, 33192, Note_on_c, 0, 79, 88
2, 33213, Note_on_c, 0, 79, 0
2, 33216, Note_on_c, 0, 76, 88
2, 33302, Note_on_c, 0, 76, 0
2, 33336, Note_on_c, 0, 79, 88
2, 33357, Note_on_c, 0, 79, 0
2, 33360, Note_on_c, 0, 81, 88
2, 33381, Note_on_c, 0, 81, 0
2, 33384, Note_on_c, 0, 79, 88
2, 33405, Note_on_c, 0, 79, 0
2, 33408, Note_on_c, 0, 84, 88
2, 33494, Note_on_c, 0, 84, 0
2, 33528, Note_on_c, 0, 79, 88
2, 33549, Note_on_c, 0, 79, 0
2, 33552, Note_on_c, 0, 81, 88
2, 33573, Note_on_c, 0, 81, 0
2, 33576, Note_on_c, 0, 79, 88
2, 33597, Note_on_c, 0, 79, 0
2, 33600, Note_on_c, 0, 76, 88
2, 33686, Note_on_c, 0, 76, 0
2, 33720, Note_on_c, 0, 79, 88
2, 33741, Note_on_c, 0, 79, 0
2, 33744, Note_on_c, 0, 81, 88
2, 33765, Note_on_c, 0, 81, 0
2, 33768, Note_on_c, 0, 79, 88
2, 33789, Note_on_c, 0, 79, 0
2, 33792, Note_on_c, 0, 84, 88
2, 33813, Note_on_c, 0, 84, 0
2, 33816, Note_on_c, 0, 79, 88
2, 33837, Note_on_c, 0, 79, 0
2, 33840, Note_on_c, 0, 81, 88
2, 33861, Note_on_c, 0, 81, 0
2, 33864, Note_on_c, 0, 79, 88
2, 33885, Note_on_c, 0, 79, 0
2, 33888, Note_on_c, 0, 76, 88
2, 33909, Note_on_c, 0, 76, 0
2, 33912, Note_on_c, 0, 79, 88
2, 33933, Note_on_c, 0, 79, 0
2, 33936, Note_on_c, 0, 81, 88
2, 33957, Note_on_c, 0, 81, 0
2, 33960, Note_on_c, 0, 79, 88
2, 33981, Note_on_c, 0, 79, 0
2, 33984, Note_on_c, 0, 84, 88
2, 34005, Note_on_c, 0, 84, 0
2, 34008, Note_on_c, 0, 79, 88
2, 34029, Note_on_c, 0, 79, 0
2, 34032, Note_on_c, 0, 81, 88
2, 34053, Note_on_c, 0, 81, 0
2, 34056, Note_on_c, 0, 79, 88
2, 34077, Note_on_c, 0, 79, 0
2, 34080, Note_on_c, 0, 76, 88
2, 34101, Note_on_c, 0, 76, 0
2, 34104, Note_on_c, 0, 79, 88
2, 34125, Note_on_c, 0, 79, 0
2, 34128, Note_on_c, 0, 81, 88
2, 34149, Note_on_c, 0, 81, 0
2, 34152, Note_on_c, 0, 79, 88
2, 34173, Note_on_c, 0, 79, 0
2, 34176, Note_on_c, 0, 84, 88
2, 34200, Note_on_c, 0, 84, 0
2, 34224, Note_on_c, 0, 79, 88
2, 34248, Note_on_c, 0, 79, 0
2, 34272, Note_on_c, 0, 76, 88
2, 34296, Note_on_c, 0, 76, 0
2, 34320, Note_on_c, 0, 79, 88
2, 34344, Note_on_c, 0, 79, 0
2, 34368, Note_on_c, 0, 84, 88
2, 34392, Note_on_c, 0, 84, 0
2, 34416, Note_on_c, 0, 79, 88
2, 34440, Note_on_c, 0, 79, 0
2, 34464, Note_on_c, 0, 76, 88
2, 34488, Note_on_c, 0, 76, 0
2, 34512, Note_on_c, 0, 72, 88
2, 34536, Note_on_c, 0, 72, 0
2, 34560, Note_on_c, 0, 67, 88
2, 34732, Note_on_c, 0, 67, 0
2, 34752, Note_on_c, 0, 76, 88
2, 34764, Note_on_c, 0, 76, 0
2, 34764, Note_on_c, 0, 74, 88
2, 34776, Note_on_c, 0, 74, 0
2, 34776, Note_on_c, 0, 76, 88
2, 34788, Note_on_c, 0, 76, 0
2, 34788, Note_on_c, 0, 74, 88
2, 34800, Note_on_c, 0, 74, 0
2, 34800, Note_on_c, 0, 76, 88
2, 34812, Note_on_c, 0, 76, 0
2, 34812, Note_on_c, 0, 74, 88
2, 34824, Note_on_c, 0, 74, 0
2, 34824, Note_on_c, 0, 76, 88
2, 34836, Note_on_c, 0, 76, 0
2, 34836, Note_on_c, 0, 74, 88
2, 34848, Note_on_c, 0, 74, 0
2, 34848, Note_on_c, 0, 76, 88
2, 34860, Note_on_c, 0, 76, 0
2, 34860, Note_on_c, 0, 74, 88
2, 34872, Note_on_c, 0, 74, 0
2, 34872, Note_on_c, 0, 76, 88
2, 34884, Note_on_c, 0, 76, 0
2, 34884, Note_on_c, 0, 74, 88
2, 34896, Note_on_c, 0, 74, 0
2, 34896, Note_on_c, 0, 72, 88
2, 34920, Note_on_c, 0, 72, 0
2, 34920, Note_on_c, 0, 74, 88
2, 34944, Note_on_c, 0, 74, 0
2, 34944, Note_on_c, 0, 76, 88
2, 35030, Note_on_c, 0, 76, 0
2, 35136, Note_on_c, 0, 79, 88
2, 35308, Note_on_c, 0, 79, 0
2, 35328, Note_on_c, 0, 65, 88
2, 35500, Note_on_c, 0, 65, 0
2, 35520, Note_on_c, 0, 81, 88
2, 35692, Note_on_c, 0, 81, 0
2, 35712, Note_on_c, 0, 67, 88
2, 35755, Note_on_c, 0, 67, 0
2, 35760, Note_on_c, 0, 69, 88
2, 35781, Note_on_c, 0, 69, 0
2, 35784, Note_on_c, 0, 71, 88
2, 35805, Note_on_c, 0, 71, 0
2, 35808, Note_on_c, 0, 72, 88
2, 35829, Note_on_c, 0, 72, 0
2, 35832, Note_on_c, 0, 74, 88
2, 35853, Note_on_c, 0, 74, 0
2, 35856, Note_on_c, 0, 76, 88
2, 35877, Note_on_c, 0, 76, 0
2, 35880, Note_on_c, 0, 77, 88
2, 35901, Note_on_c, 0, 77, 0
2, 35904, Note_on_c, 0, 79, 88
2, 35925, Note_on_c, 0, 79, 0
2, 35928, Note_on_c, 0, 77, 88
2, 35949, Note_on_c, 0, 77, 0
2, 35952, Note_on_c, 0, 76, 88
2, 35973, Note_on_c, 0, 76, 0
2, 35976, Note_on_c, 0, 77, 88
2, 35997, Note_on_c, 0, 77, 0
2, 36000, Note_on_c, 0, 79, 88
2, 36021, Note_on_c, 0, 79, 0
2, 36024, Note_on_c, 0, 81, 88
2, 36045, Note_on_c, 0, 81, 0
2, 36048, Note_on_c, 0, 83, 88
2, 36069, Note_on_c, 0, 83, 0
2, 36072, Note_on_c, 0, 84, 88
2, 36093, Note_on_c, 0, 84, 0
2, 36096, Note_on_c, 0, 76, 88
2, 36108, Note_on_c, 0, 76, 0
2, 36108, Note_on_c, 0, 74, 88
2, 36120, Note_on_c, 0, 74, 0
2, 36120, Note_on_c, 0, 76, 88
2, 36132, Note_on_c, 0, 76, 0
2, 36132, Note_on_c, 0, 74, 88
2, 36144, Note_on_c, 0, 74, 0
2, 36144, Note_on_c, 0, 76, 88
2, 36156, Note_on_c, 0, 76, 0
2, 36156, Note_on_c, 0, 74, 88
2, 36168, Note_on_c, 0, 74, 0
2, 36168, Note_on_c, 0, 76, 88
2, 36180, Note_on_c, 0, 76, 0
2, 36180, Note_on_c, 0, 74, 88
2, 36192, Note_on_c, 0, 74, 0
2, 36192, Note_on_c, 0, 76, 88
2, 36204, Note_on_c, 0, 76, 0
2, 36204, Note_on_c, 0, 74, 88
2, 36216, Note_on_c, 0, 74, 0
2, 36216, Note_on_c, 0, 76, 88
2, 36228, Note_on_c, 0, 76, 0
2, 36228, Note_on_c, 0, 74, 88
2, 36240, Note_on_c, 0, 74, 0
2, 36240, Note_on_c, 0, 76, 88
2, 36252, Note_on_c, 0, 76, 0
2, 36252, Note_on_c, 0, 74, 88
2, 36264, Note_on_c, 0, 74, 0
2, 36264, Note_on_c, 0, 76, 88
2, 36276, Note_on_c, 0, 76, 0
2, 36276, Note_on_c, 0, 74, 88
2, 36288, Note_on_c, 0, 74, 0
2, 36288, Note_on_c, 0, 76, 88
2, 36300, Note_on_c, 0, 76, 0
2, 36300, Note_on_c, 0, 74, 88
2, 36312, Note_on_c, 0, 74, 0
2, 36312, Note_on_c, 0, 76, 88
2, 36324, Note_on_c, 0, 76, 0
2, 36324, Note_on_c, 0, 74, 88
2, 36336, Note_on_c, 0, 74, 0
2, 36336, Note_on_c, 0, 76, 88
2, 36348, Note_on_c, 0, 76, 0
2, 36348, Note_on_c, 0, 74, 88
2, 36360, Note_on_c, 0, 74, 0
2, 36360, Note_on_c, 0, 76, 88
2, 36372, Note_on_c, 0, 76, 0
2, 36372, Note_on_c, 0, 74, 88
2, 36384, Note_on_c, 0, 74, 0
2, 36384, Note_on_c, 0, 76, 88
2, 36396, Note_on_c, 0, 76, 0
2, 36396, Note_on_c, 0, 74, 88
2, 36408, Note_on_c, 0, 74, 0
2, 36408, Note_on_c, 0, 76, 88
2, 36420, Note_on_c, 0, 76, 0
2, 36420, Note_on_c, 0, 74, 88
2, 36432, Note_on_c, 0, 74, 0
2, 36432, Note_on_c, 0, 72, 88
2, 36456, Note_on_c, 0, 72, 0
2, 36456, Note_on_c, 0, 74, 88
2, 36480, Note_on_c, 0, 74, 0
2, 36480, Note_on_c, 0, 72, 88
2, 36566, Note_on_c, 0, 72, 0
2, 36566, End_track
3, 0, Start_track
3, 0, Program_c, 1, 0
3, 0, Note_on_c, 1, 60, 88
3, 31, Note_on_c, 1, 60, 0
3, 48, Note_on_c, 1, 48, 88
3, 79, Note_on_c, 1, 48, 0
3, 96, Note_on_c, 1, 52, 88
3, 127, Note_on_c, 1, 52, 0
3, 144, Note_on_c, 1, 55, 88
3, 175, Note_on_c, 1, 55, 0
3, 192, Note_on_c, 1, 60, 88
3, 223, Note_on_c, 1, 60, 0
3, 240, Note_on_c, 1, 55, 88
3, 271, Note_on_c, 1, 55, 0
3, 288, Note_on_c, 1, 52, 88
3, 319, Note_on_c, 1, 52, 0
3, 336, Note_on_c, 1, 48, 88
3, 367, Note_on_c, 1, 48, 0
3, 384, Note_on_c, 1, 55, 88
3, 415, Note_on_c, 1, 55, 0
3, 432, Note_on_c, 1, 43, 88
3, 463, Note_on_c, 1, 43, 0
3, 480, Note_on_c, 1, 47, 88
3, 511, Note_on_c, 1, 47, 0
3, 528, Note_on_c, 1, 50, 88
3, 559, Note_on_c, 1, 50, 0
3, 576, Note_on_c, 1, 55, 88
3, 607, Note_on_c, 1, 55, 0
3, 624, Note_on_c, 1, 50, 88
3, 655, Note_on_c, 1, 50, 0
3, 672, Note_on_c, 1, 47, 88
3, 703, Note_on_c, 1, 47, 0
3, 720, Note_on_c, 1, 43, 88
3, 751, Note_on_c, 1, 43, 0
3, 768, Note_on_c, 1, 48, 88
3, 799, Note_on_c, 1, 48, 0
3, 816, Note_on_c, 1, 60, 88
3, 847, Note_on_c, 1, 60, 0
3, 864, Note_on_c, 1, 58, 88
3, 895, Note_on_c, 1, 58, 0
3, 912, Note_on_c, 1, 60, 88
3, 943, Note_on_c, 1, 60, 0
3, 960, Note_on_c, 1, 57, 88
3, 991, Note_on_c, 1, 57, 0
3, 1008, Note_on_c, 1, 60, 88
3, 1039, Note_on_c, 1, 60, 0
3, 1056, Note_on_c, 1, 53, 88
3, 1087, Note_on_c, 1, 53, 0
3, 1104, Note_on_c, 1, 60, 88
3, 1135, Note_on_c, 1, 60, 0
3, 1152, Note_on_c, 1, 52, 88
3, 1183, Note_on_c, 1, 52, 0
3, 1200, Note_on_c, 1, 60, 88
3, 1231, Note_on_c, 1, 60, 0
3, 1248, Note_on_c, 1, 55, 88
3, 1279, Note_on_c, 1, 55, 0
3, 1296, Note_on_c, 1, 60, 88
3, 1327, Note_on_c, 1, 60, 0
3, 1344, Note_on_c, 1, 53, 88
3, 1375, Note_on_c, 1, 53, 0
3, 1392, Note_on_c, 1, 52, 88
3, 1423, Note_on_c, 1, 52, 0
3, 1440, Note_on_c, 1, 50, 88
3, 1471, Note_on_c, 1, 50, 0
3, 1488, Note_on_c, 1, 53, 88
3, 1519, Note_on_c, 1, 53, 0
3, 1536, Note_on_c, 1, 52, 88
3, 1567, Note_on_c, 1, 52, 0
3, 1584, Note_on_c, 1, 60, 88
3, 1615, Note_on_c, 1, 60, 0
3, 1632, Note_on_c, 1, 59, 88
3, 1663, Note_on_c, 1, 59, 0
3, 1680, Note_on_c, 1, 59, 88
3, 1711, Note_on_c, 1, 59, 0
3, 1728, Note_on_c, 1, 57, 88
3, 1759, Note_on_c, 1, 57, 0
3, 1776, Note_on_c, 1, 52, 88
3, 1807, Note_on_c, 1, 52, 0
3, 1824, Note_on_c, 1, 53, 88
3, 1855, Note_on_c, 1, 53, 0
3, 1872, Note_on_c, 1, 50, 88
3, 1903, Note_on_c, 1, 50, 0
3, 1920, Note_on_c, 1, 48, 88
3, 1951, Note_on_c, 1, 48, 0
3, 1968, Note_on_c, 1, 52, 88
3, 1999, Note_on_c, 1, 52, 0
3, 2016, Note_on_c, 1, 55, 88
3, 2047, Note_on_c, 1, 55, 0
3, 2064, Note_on_c, 1, 60, 88
3, 2095, Note_on_c, 1, 60, 0
3, 2112, Note_on_c, 1, 48, 88
3, 2174, Note_on_c, 1, 48, 0
3, 2208, Note_on_c, 1, 52, 88
3, 2270, Note_on_c, 1, 52, 0
3, 2304, Note_on_c, 1, 53, 88
3, 2428, Note_on_c, 1, 53, 0
3, 2496, Note_on_c, 1, 55, 88
3, 2620, Note_on_c, 1, 55, 0
3, 2688, Note_on_c, 1, 57, 88
3, 2812, Note_on_c, 1, 57, 0
3, 2880, Note_on_c, 1, 59, 88
3, 3004, Note_on_c, 1, 59, 0
3, 3072, Note_on_c, 1, 60, 88
3, 3134, Note_on_c, 1, 60, 0
3, 3264, Note_on_c, 1, 48, 88
3, 3326, Note_on_c, 1, 48, 0
3, 3360, Note_on_c, 1, 60, 88
3, 3422, Note_on_c, 1, 60, 0
3, 3456, Note_on_c, 1, 55, 88
3, 3487, Note_on_c, 1, 55, 0
3, 3504, Note_on_c, 1, 43, 88
3, 3535, Note_on_c, 1, 43, 0
3, 3552, Note_on_c, 1, 47, 88
3, 3583, Note_on_c, 1, 47, 0
3, 3600, Note_on_c, 1, 50, 88
3, 3631, Note_on_c, 1, 50, 0
3, 3648, Note_on_c, 1, 55, 88
3, 3710, Note_on_c, 1, 55, 0
3, 3744, Note_on_c, 1, 59, 88
3, 3806, Note_on_c, 1, 59, 0
3, 3840, Note_on_c, 1, 60, 88
3, 3871, Note_on_c, 1, 60, 0
3, 3888, Note_on_c, 1, 60, 88
3, 3919, Note_on_c, 1, 60, 0
3, 3936, Note_on_c, 1, 60, 88
3, 3967, Note_on_c, 1, 60, 0
3, 3984, Note_on_c, 1, 60, 88
3, 4015, Note_on_c, 1, 60, 0
3, 4032, Note_on_c, 1, 60, 88
3, 4063, Note_on_c, 1, 60, 0
3, 4080, Note_on_c, 1, 60, 88
3, 4111, Note_on_c, 1, 60, 0
3, 4128, Note_on_c, 1, 60, 88
3, 4159, Note_on_c, 1, 60, 0
3, 4176, Note_on_c, 1, 60, 88
3, 4207, Note_on_c, 1, 60, 0
3, 4224, Note_on_c, 1, 60, 88
3, 4255, Note_on_c, 1, 60, 0
3, 4272, Note_on_c, 1, 60, 88
3, 4303, Note_on_c, 1, 60, 0
3, 4320, Note_on_c, 1, 60, 88
3, 4351, Note_on_c, 1, 60, 0
3, 4368, Note_on_c, 1, 60, 88
3, 4399, Note_on_c, 1, 60, 0
3, 4416, Note_on_c, 1, 60, 88
3, 4447, Note_on_c, 1, 60, 0
3, 4464, Note_on_c, 1, 60, 88
3, 4495, Note_on_c, 1, 60, 0
3, 4512, Note_on_c, 1, 60, 88
3, 4543, Note_on_c, 1, 60, 0
3, 4560, Note_on_c, 1, 60, 88
3, 4591, Note_on_c, 1, 60, 0
3, 4608, Note_on_c, 1, 59, 88
3, 4639, Note_on_c, 1, 59, 0
3, 4656, Note_on_c, 1, 59, 88
3, 4687, Note_on_c, 1, 59, 0
3, 4704, Note_on_c, 1, 59, 88
3, 4735, Note_on_c, 1, 59, 0
3, 4752, Note_on_c, 1, 59, 88
3, 4783, Note_on_c, 1, 59, 0
3, 4800, Note_on_c, 1, 59, 88
3, 4831, Note_on_c, 1, 59, 0
3, 4848, Note_on_c, 1, 59, 88
3, 4879, Note_on_c, 1, 59, 0
3, 4896, Note_on_c, 1, 59, 88
3, 4927, Note_on_c, 1, 59, 0
3, 4944, Note_on_c, 1, 59, 88
3, 4975, Note_on_c, 1, 59, 0
3, 4992, Note_on_c, 1, 59, 88
3, 5023, Note_on_c, 1, 59, 0
3, 5040, Note_on_c, 1, 59, 88
3, 5071, Note_on_c, 1, 59, 0
3, 5088, Note_on_c, 1, 59, 88
3, 5119, Note_on_c, 1, 59, 0
3, 5136, Note_on_c, 1, 59, 88
3, 5167, Note_on_c, 1, 59, 0
3, 5184, Note_on_c, 1, 59, 88
3, 5215, Note_on_c, 1, 59, 0
3, 5232, Note_on_c, 1, 59, 88
3, 5263, Note_on_c, 1, 59, 0
3, 5280, Note_on_c, 1, 59, 88
3, 5311, Note_on_c, 1, 59, 0
3, 5328, Note_on_c, 1, 59, 88
3, 5359, Note_on_c, 1, 59, 0
3, 5376, Note_on_c, 1, 59, 88
3, 5407, Note_on_c, 1, 59, 0
3, 5424, Note_on_c, 1, 59, 88
3, 5455, Note_on_c, 1, 59, 0
3, 5472, Note_on_c, 1, 59, 88
3, 5503, Note_on_c, 1, 59, 0
3, 5520, Note_on_c, 1, 59, 88
3, 5551, Note_on_c, 1, 59, 0
3, 5568, Note_on_c, 1, 59, 88
3, 5599, Note_on_c, 1, 59, 0
3, 5616, Note_on_c, 1, 59, 88
3, 5647, Note_on_c, 1, 59, 0
3, 5664, Note_on_c, 1, 59, 88
3, 5695, Note_on_c, 1, 59, 0
3, 5712, Note_on_c, 1, 59, 88
3, 5743, Note_on_c, 1, 59, 0
3, 5760, Note_on_c, 1, 57, 88
3, 5791, Note_on_c, 1, 57, 0
3, 5808, Note_on_c, 1, 57, 88
3, 5839, Note_on_c, 1, 57, 0
3, 5856, Note_on_c, 1, 57, 88
3, 5887, Note_on_c, 1, 57, 0
3, 5904, Note_on_c, 1, 57, 88
3, 5935, Note_on_c, 1, 57, 0
3, 5952, Note_on_c, 1, 57, 88
3, 5983, Note_on_c, 1, 57, 0
3, 6000, Note_on_c, 1, 55, 88
3, 6031, Note_on_c, 1, 55, 0
3, 6048, Note_on_c, 1, 54, 88
3, 6079, Note_on_c, 1, 54, 0
3, 6096, Note_on_c, 1, 52, 88
3, 6127, Note_on_c, 1, 52, 0
3, 6144, Note_on_c, 1, 50, 88
3, 6175, Note_on_c, 1, 50, 0
3, 6192, Note_on_c, 1, 50, 88
3, 6223, Note_on_c, 1, 50, 0
3, 6240, Note_on_c, 1, 50, 88
3, 6271, Note_on_c, 1, 50, 0
3, 6288, Note_on_c, 1, 50, 88
3, 6319, Note_on_c, 1, 50, 0
3, 6336, Note_on_c, 1, 50, 88
3, 6367, Note_on_c, 1, 50, 0
3, 6384, Note_on_c, 1, 50, 88
3, 6415, Note_on_c, 1, 50, 0
3, 6432, Note_on_c, 1, 50, 88
3, 6463, Note_on_c, 1, 50, 0
3, 6480, Note_on_c, 1, 50, 88
3, 6511, Note_on_c, 1, 50, 0
3, 6528, Note_on_c, 1, 50, 88
3, 6559, Note_on_c, 1, 50, 0
3, 6576, Note_on_c, 1, 50, 88
3, 6607, Note_on_c, 1, 50, 0
3, 6624, Note_on_c, 1, 50, 88
3, 6655, Note_on_c, 1, 50, 0
3, 6672, Note_on_c, 1, 50, 88
3, 6703, Note_on_c, 1, 50, 0
3, 6720, Note_on_c, 1, 54, 88
3, 6751, Note_on_c, 1, 54, 0
3, 6768, Note_on_c, 1, 54, 88
3, 6799, Note_on_c, 1, 54, 0
3, 6816, Note_on_c, 1, 54, 88
3, 6847, Note_on_c, 1, 54, 0
3, 6864, Note_on_c, 1, 54, 88
3, 6895, Note_on_c, 1, 54, 0
3, 6912, Note_on_c, 1, 55, 88
3, 6943, Note_on_c, 1, 55, 0
3, 6960, Note_on_c, 1, 55, 88
3, 6991, Note_on_c, 1, 55, 0
3, 7008, Note_on_c, 1, 50, 88
3, 7039, Note_on_c, 1, 50, 0
3, 7056, Note_on_c, 1, 50, 88
3, 7087, Note_on_c, 1, 50, 0
3, 7104, Note_on_c, 1, 47, 88
3, 7135, Note_on_c, 1, 47, 0
3, 7152, Note_on_c, 1, 45, 88
3, 7183, Note_on_c, 1, 45, 0
3, 7200, Note_on_c, 1, 43, 88
3, 7231, Note_on_c, 1, 43, 0
3, 7248, Note_on_c, 1, 43, 88
3, 7279, Note_on_c, 1, 43, 0
3, 7296, Note_on_c, 1, 48, 88
3, 7358, Note_on_c, 1, 48, 0
3, 7680, Note_on_c, 1, 48, 88
3, 7711, Note_on_c, 1, 48, 0
3, 7728, Note_on_c, 1, 48, 88
3, 7759, Note_on_c, 1, 48, 0
3, 7776, Note_on_c, 1, 48, 88
3, 7807, Note_on_c, 1, 48, 0
3, 7824, Note_on_c, 1, 48, 88
3, 7855, Note_on_c, 1, 48, 0
3, 7872, Note_on_c, 1, 48, 88
3, 7903, Note_on_c, 1, 48, 0
3, 7920, Note_on_c, 1, 48, 88
3, 7951, Note_on_c, 1, 48, 0
3, 7968, Note_on_c, 1, 48, 88
3, 7999, Note_on_c, 1, 48, 0
3, 8016, Note_on_c, 1, 48, 88
3, 8047, Note_on_c, 1, 48, 0
3, 8064, Note_on_c, 1, 47, 88
3, 8095, Note_on_c, 1, 47, 0
3, 8112, Note_on_c, 1, 47, 88
3, 8143, Note_on_c, 1, 47, 0
3, 8160, Note_on_c, 1, 52, 88
3, 8191, Note_on_c, 1, 52, 0
3, 8208, Note_on_c, 1, 52, 88
3, 8239, Note_on_c, 1, 52, 0
3, 8256, Note_on_c, 1, 48, 88
3, 8287, Note_on_c, 1, 48, 0
3, 8304, Note_on_c, 1, 48, 88
3, 8335, Note_on_c, 1, 48, 0
3, 8352, Note_on_c, 1, 50, 88
3, 8383, Note_on_c, 1, 50, 0
3, 8400, Note_on_c, 1, 50, 88
3, 8431, Note_on_c, 1, 50, 0
3, 8448, Note_on_c, 1, 55, 88
3, 8479, Note_on_c, 1, 55, 0
3, 8496, Note_on_c, 1, 43, 88
3, 8527, Note_on_c, 1, 43, 0
3, 8544, Note_on_c, 1, 47, 88
3, 8575, Note_on_c, 1, 47, 0
3, 8592, Note_on_c, 1, 50, 88
3, 8623, Note_on_c, 1, 50, 0
3, 8640, Note_on_c, 1, 55, 88
3, 8702, Note_on_c, 1, 55, 0
3, 8736, Note_on_c, 1, 47, 88
3, 8798, Note_on_c, 1, 47, 0
3, 8832, Note_on_c, 1, 48, 88
3, 8956, Note_on_c, 1, 48, 0
3, 9024, Note_on_c, 1, 50, 88
3, 9148, Note_on_c, 1, 50, 0
3, 9216, Note_on_c, 1, 52, 88
3, 9340, Note_on_c, 1, 52, 0
3, 9408, Note_on_c, 1, 54, 88
3, 9532, Note_on_c, 1, 54, 0
3, 9600, Note_on_c, 1, 55, 88
3, 9662, Note_on_c, 1, 55, 0
3, 9984, Note_on_c, 1, 55, 88
3, 10046, Note_on_c, 1, 55, 0
3, 10368, Note_on_c, 1, 55, 88
3, 10392, Note_on_c, 1, 55, 0
3, 10416, Note_on_c, 1, 59, 88
3, 10464, Note_on_c, 1, 59, 0
3, 10464, Note_on_c, 1, 60, 88
3, 10512, Note_on_c, 1, 60, 0
3, 10512, Note_on_c, 1, 62, 88
3, 10536, Note_on_c, 1, 62, 0
3, 10560, Note_on_c, 1, 64, 88
3, 10584, Note_on_c, 1, 64, 0
3, 10608, Note_on_c, 1, 66, 88
3, 10632, Note_on_c, 1, 66, 0
3, 10656, Note_on_c, 1, 67, 88
3, 10680, Note_on_c, 1, 67, 0
3, 10704, Note_on_c, 1, 69, 88
3, 10728, Note_on_c, 1, 69, 0
3, 10752, Note_on_c, 1, 69, 88
3, 10814, Note_on_c, 1, 69, 0
3, 10944, Note_on_c, 1, 59, 88
3, 10975, Note_on_c, 1, 59, 0
3, 10992, Note_on_c, 1, 59, 88
3, 11023, Note_on_c, 1, 59, 0
3, 11040, Note_on_c, 1, 59, 88
3, 11071, Note_on_c, 1, 59, 0
3, 11088, Note_on_c, 1, 59, 88
3, 11119, Note_on_c, 1, 59, 0
3, 11136, Note_on_c, 1, 60, 88
3, 11167, Note_on_c, 1, 60, 0
3, 11184, Note_on_c, 1, 60, 88
3, 11215, Note_on_c, 1, 60, 0
3, 11232, Note_on_c, 1, 60, 88
3, 11263, Note_on_c, 1, 60, 0
3, 11280, Note_on_c, 1, 60, 88
3, 11311, Note_on_c, 1, 60, 0
3, 11328, Note_on_c, 1, 60, 88
3, 11359, Note_on_c, 1, 60, 0
3, 11376, Note_on_c, 1, 60, 88
3, 11407, Note_on_c, 1, 60, 0
3, 11424, Note_on_c, 1, 60, 88
3, 11455, Note_on_c, 1, 60, 0
3, 11472, Note_on_c, 1, 60, 88
3, 11503, Note_on_c, 1, 60, 0
3, 11520, Note_on_c, 1, 60, 88
3, 11551, Note_on_c, 1, 60, 0
3, 11568, Note_on_c, 1, 60, 88
3, 11599, Note_on_c, 1, 60, 0
3, 11616, Note_on_c, 1, 60, 88
3, 11647, Note_on_c, 1, 60, 0
3, 11664, Note_on_c, 1, 60, 88
3, 11695, Note_on_c, 1, 60, 0
3, 11712, Note_on_c, 1, 60, 88
3, 11743, Note_on_c, 1, 60, 0
3, 11760, Note_on_c, 1, 60, 88
3, 11791, Note_on_c, 1, 60, 0
3, 11808, Note_on_c, 1, 60, 88
3, 11839, Note_on_c, 1, 60, 0
3, 11856, Note_on_c, 1, 60, 88
3, 11887, Note_on_c, 1, 60, 0
3, 11904, Note_on_c, 1, 62, 88
3, 11935, Note_on_c, 1, 62, 0
3, 11952, Note_on_c, 1, 62, 88
3, 11983, Note_on_c, 1, 62, 0
3, 12000, Note_on_c, 1, 62, 88
3, 12031, Note_on_c, 1, 62, 0
3, 12048, Note_on_c, 1, 62, 88
3, 12079, Note_on_c, 1, 62, 0
3, 12096, Note_on_c, 1, 62, 88
3, 12127, Note_on_c, 1, 62, 0
3, 12144, Note_on_c, 1, 62, 88
3, 12175, Note_on_c, 1, 62, 0
3, 12192, Note_on_c, 1, 62, 88
3, 12223, Note_on_c, 1, 62, 0
3, 12240, Note_on_c, 1, 62, 88
3, 12271, Note_on_c, 1, 62, 0
3, 12288, Note_on_c, 1, 50, 88
3, 12319, Note_on_c, 1, 50, 0
3, 12336, Note_on_c, 1, 50, 88
3, 12367, Note_on_c, 1, 50, 0
3, 12384, Note_on_c, 1, 50, 88
3, 12415, Note_on_c, 1, 50, 0
3, 12432, Note_on_c, 1, 50, 88
3, 12463, Note_on_c, 1, 50, 0
3, 12480, Note_on_c, 1, 50, 88
3, 12511, Note_on_c, 1, 50, 0
3, 12528, Note_on_c, 1, 50, 88
3, 12559, Note_on_c, 1, 50, 0
3, 12576, Note_on_c, 1, 50, 88
3, 12607, Note_on_c, 1, 50, 0
3, 12624, Note_on_c, 1, 50, 88
3, 12655, Note_on_c, 1, 50, 0
3, 12672, Note_on_c, 1, 43, 88
3, 12734, Note_on_c, 1, 43, 0
3, 13056, Note_on_c, 1, 55, 88
3, 13087, Note_on_c, 1, 55, 0
3, 13104, Note_on_c, 1, 55, 88
3, 13135, Note_on_c, 1, 55, 0
3, 13152, Note_on_c, 1, 55, 88
3, 13183, Note_on_c, 1, 55, 0
3, 13200, Note_on_c, 1, 55, 88
3, 13231, Note_on_c, 1, 55, 0
3, 13248, Note_on_c, 1, 58, 88
3, 13279, Note_on_c, 1, 58, 0
3, 13296, Note_on_c, 1, 58, 88
3, 13327, Note_on_c, 1, 58, 0
3, 13344, Note_on_c, 1, 58, 88
3, 13375, Note_on_c, 1, 58, 0
3, 13392, Note_on_c, 1, 58, 88
3, 13423, Note_on_c, 1, 58, 0
3, 13440, Note_on_c, 1, 52, 88
3, 13502, Note_on_c, 1, 52, 0
3, 13536, Note_on_c, 1, 55, 88
3, 13598, Note_on_c, 1, 55, 0
3, 13632, Note_on_c, 1, 49, 88
3, 13694, Note_on_c, 1, 49, 0
3, 13728, Note_on_c, 1, 52, 88
3, 13790, Note_on_c, 1, 52, 0
3, 13824, Note_on_c, 1, 45, 88
3, 13855, Note_on_c, 1, 45, 0
3, 13872, Note_on_c, 1, 45, 88
3, 13903, Note_on_c, 1, 45, 0
3, 13920, Note_on_c, 1, 57, 88
3, 13951, Note_on_c, 1, 57, 0
3, 13968, Note_on_c, 1, 57, 88
3, 13999, Note_on_c, 1, 57, 0
3, 14016, Note_on_c, 1, 55, 88
3, 14047, Note_on_c, 1, 55, 0
3, 14064, Note_on_c, 1, 55, 88
3, 14095, Note_on_c, 1, 55, 0
3, 14112, Note_on_c, 1, 55, 88
3, 14143, Note_on_c, 1, 55, 0
3, 14160, Note_on_c, 1, 55, 88
3, 14191, Note_on_c, 1, 55, 0
3, 14208, Note_on_c, 1, 53, 88
3, 14270, Note_on_c, 1, 53, 0
3, 14304, Note_on_c, 1, 55, 88
3, 14366, Note_on_c, 1, 55, 0
3, 14400, Note_on_c, 1, 57, 88
3, 14462, Note_on_c, 1, 57, 0
3, 14496, Note_on_c, 1, 45, 88
3, 14558, Note_on_c, 1, 45, 0
3, 14592, Note_on_c, 1, 50, 88
3, 14623, Note_on_c, 1, 50, 0
3, 14640, Note_on_c, 1, 62, 88
3, 14671, Note_on_c, 1, 62, 0
3, 14688, Note_on_c, 1, 65, 88
3, 14719, Note_on_c, 1, 65, 0
3, 14736, Note_on_c, 1, 62, 88
3, 14767, Note_on_c, 1, 62, 0
3, 14784, Note_on_c, 1, 57, 88
3, 14815, Note_on_c, 1, 57, 0
3, 14832, Note_on_c, 1, 53, 88
3, 14863, Note_on_c, 1, 53, 0
3, 14880, Note_on_c, 1, 50, 88
3, 14911, Note_on_c, 1, 50, 0
3, 14928, Note_on_c, 1, 52, 88
3, 14959, Note_on_c, 1, 52, 0
3, 14976, Note_on_c, 1, 53, 88
3, 15007, Note_on_c, 1, 53, 0
3, 15024, Note_on_c, 1, 53, 88
3, 15055, Note_on_c, 1, 53, 0
3, 15072, Note_on_c, 1, 53, 88
3, 15103, Note_on_c, 1, 53, 0
3, 15120, Note_on_c, 1, 53, 88
3, 15151, Note_on_c, 1, 53, 0
3, 15168, Note_on_c, 1, 56, 88
3, 15199, Note_on_c, 1, 56, 0
3, 15216, Note_on_c, 1, 56, 88
3, 15247, Note_on_c, 1, 56, 0
3, 15264, Note_on_c, 1, 56, 88
3, 15295, Note_on_c, 1, 56, 0
3, 15312, Note_on_c, 1, 56, 88
3, 15343, Note_on_c, 1, 56, 0
3, 15360, Note_on_c, 1, 50, 88
3, 15422, Note_on_c, 1, 50, 0
3, 15456, Note_on_c, 1, 53, 88
3, 15518, Note_on_c, 1, 53, 0
3, 15552, Note_on_c, 1, 47, 88
3, 15614, Note_on_c, 1, 47, 0
3, 15648, Note_on_c, 1, 50, 88
3, 15710, Note_on_c, 1, 50, 0
3, 15744, Note_on_c, 1, 43, 88
3, 15775, Note_on_c, 1, 43, 0
3, 15792, Note_on_c, 1, 55, 88
3, 15823, Note_on_c, 1, 55, 0
3, 15840, Note_on_c, 1, 55, 88
3, 15871, Note_on_c, 1, 55, 0
3, 15888, Note_on_c, 1, 55, 88
3, 15919, Note_on_c, 1, 55, 0
3, 15936, Note_on_c, 1, 53, 88
3, 15967, Note_on_c, 1, 53, 0
3, 15984, Note_on_c, 1, 53, 88
3, 16015, Note_on_c, 1, 53, 0
3, 16032, Note_on_c, 1, 53, 88
3, 16063, Note_on_c, 1, 53, 0
3, 16080, Note_on_c, 1, 53, 88
3, 16111, Note_on_c, 1, 53, 0
3, 16128, Note_on_c, 1, 52, 88
3, 16159, Note_on_c, 1, 52, 0
3, 16176, Note_on_c, 1, 52, 88
3, 16207, Note_on_c, 1, 52, 0
3, 16224, Note_on_c, 1, 57, 88
3, 16255, Note_on_c, 1, 57, 0
3, 16272, Note_on_c, 1, 57, 88
3, 16303, Note_on_c, 1, 57, 0
3, 16320, Note_on_c, 1, 53, 88
3, 16351, Note_on_c, 1, 53, 0
3, 16368, Note_on_c, 1, 53, 88
3, 16399, Note_on_c, 1, 53, 0
3, 16416, Note_on_c, 1, 55, 88
3, 16447, Note_on_c, 1, 55, 0
3, 16464, Note_on_c, 1, 55, 88
3, 16495, Note_on_c, 1, 55, 0
3, 16512, Note_on_c, 1, 60, 88
3, 16543, Note_on_c, 1, 60, 0
3, 16560, Note_on_c, 1, 52, 88
3, 16591, Note_on_c, 1, 52, 0
3, 16608, Note_on_c, 1, 52, 88
3, 16639, Note_on_c, 1, 52, 0
3, 16656, Note_on_c, 1, 55, 88
3, 16687, Note_on_c, 1, 55, 0
3, 16704, Note_on_c, 1, 60, 88
3, 16735, Note_on_c, 1, 60, 0
3, 16752, Note_on_c, 1, 55, 88
3, 16783, Note_on_c, 1, 55, 0
3, 16800, Note_on_c, 1, 52, 88
3, 16831, Note_on_c, 1, 52, 0
3, 16848, Note_on_c, 1, 48, 88
3, 16879, Note_on_c, 1, 48, 0
3, 16896, Note_on_c, 1, 53, 88
3, 16927, Note_on_c, 1, 53, 0
3, 16944, Note_on_c, 1, 58, 88
3, 16975, Note_on_c, 1, 58, 0
3, 16992, Note_on_c, 1, 57, 88
3, 17023, Note_on_c, 1, 57, 0
3, 17040, Note_on_c, 1, 52, 88
3, 17071, Note_on_c, 1, 52, 0
3, 17088, Note_on_c, 1, 53, 88
3, 17119, Note_on_c, 1, 53, 0
3, 17136, Note_on_c, 1, 58, 88
3, 17167, Note_on_c, 1, 58, 0
3, 17184, Note_on_c, 1, 57, 88
3, 17215, Note_on_c, 1, 57, 0
3, 17232, Note_on_c, 1, 52, 88
3, 17263, Note_on_c, 1, 52, 0
3, 17280, Note_on_c, 1, 53, 88
3, 17311, Note_on_c, 1, 53, 0
3, 17328, Note_on_c, 1, 53, 88
3, 17359, Note_on_c, 1, 53, 0
3, 17376, Note_on_c, 1, 53, 88
3, 17407, Note_on_c, 1, 53, 0
3, 17424, Note_on_c, 1, 53, 88
3, 17455, Note_on_c, 1, 53, 0
3, 17472, Note_on_c, 1, 53, 88
3, 17503, Note_on_c, 1, 53, 0
3, 17520, Note_on_c, 1, 53, 88
3, 17551, Note_on_c, 1, 53, 0
3, 17568, Note_on_c, 1, 53, 88
3, 17599, Note_on_c, 1, 53, 0
3, 17616, Note_on_c, 1, 53, 88
3, 17647, Note_on_c, 1, 53, 0
3, 17664, Note_on_c, 1, 55, 88
3, 17695, Note_on_c, 1, 55, 0
3, 17712, Note_on_c, 1, 60, 88
3, 17743, Note_on_c, 1, 60, 0
3, 17760, Note_on_c, 1, 59, 88
3, 17791, Note_on_c, 1, 59, 0
3, 17808, Note_on_c, 1, 54, 88
3, 17839, Note_on_c, 1, 54, 0
3, 17856, Note_on_c, 1, 55, 88
3, 17887, Note_on_c, 1, 55, 0
3, 17904, Note_on_c, 1, 60, 88
3, 17935, Note_on_c, 1, 60, 0
3, 17952, Note_on_c, 1, 59, 88
3, 17983, Note_on_c, 1, 59, 0
3, 18000, Note_on_c, 1, 54, 88
3, 18031, Note_on_c, 1, 54, 0
3, 18048, Note_on_c, 1, 55, 88
3, 18079, Note_on_c, 1, 55, 0
3, 18096, Note_on_c, 1, 55, 88
3, 18127, Note_on_c, 1, 55, 0
3, 18144, Note_on_c, 1, 55, 88
3, 18175, Note_on_c, 1, 55, 0
3, 18192, Note_on_c, 1, 55, 88
3, 18223, Note_on_c, 1, 55, 0
3, 18240, Note_on_c, 1, 55, 88
3, 18271, Note_on_c, 1, 55, 0
3, 18288, Note_on_c, 1, 55, 88
3, 18319, Note_on_c, 1, 55, 0
3, 18336, Note_on_c, 1, 55, 88
3, 18367, Note_on_c, 1, 55, 0
3, 18384, Note_on_c, 1, 55, 88
3, 18415, Note_on_c, 1, 55, 0
3, 18432, Note_on_c, 1, 57, 88
3, 18480, Note_on_c, 1, 57, 0
3, 18480, Note_on_c, 1, 45, 88
3, 18528, Note_on_c, 1, 45, 0
3, 18528, Note_on_c, 1, 57, 88
3, 18576, Note_on_c, 1, 57, 0
3, 18576, Note_on_c, 1, 57, 88
3, 18600, Note_on_c, 1, 57, 0
3, 18624, Note_on_c, 1, 57, 88
3, 18655, Note_on_c, 1, 57, 0
3, 18672, Note_on_c, 1, 57, 88
3, 18703, Note_on_c, 1, 57, 0
3, 18720, Note_on_c, 1, 57, 88
3, 18751, Note_on_c, 1, 57, 0
3, 18768, Note_on_c, 1, 57, 88
3, 18799, Note_on_c, 1, 57, 0
3, 18816, Note_on_c, 1, 59, 88
3, 18864, Note_on_c, 1, 59, 0
3, 18864, Note_on_c, 1, 47, 88
3, 18912, Note_on_c, 1, 47, 0
3, 18912, Note_on_c, 1, 59, 88
3, 18960, Note_on_c, 1, 59, 0
3, 18960, Note_on_c, 1, 59, 88
3, 18984, Note_on_c, 1, 59, 0
3, 19008, Note_on_c, 1, 59, 88
3, 19039, Note_on_c, 1, 59, 0
3, 19056, Note_on_c, 1, 59, 88
3, 19087, Note_on_c, 1, 59, 0
3, 19104, Note_on_c, 1, 59, 88
3, 19135, Note_on_c, 1, 59, 0
3, 19152, Note_on_c, 1, 59, 88
3, 19183, Note_on_c, 1, 59, 0
3, 19200, Note_on_c, 1, 60, 88
3, 19231, Note_on_c, 1, 60, 0
3, 19248, Note_on_c, 1, 60, 88
3, 19279, Note_on_c, 1, 60, 0
3, 19296, Note_on_c, 1, 60, 88
3, 19327, Note_on_c, 1, 60, 0
3, 19344, Note_on_c, 1, 60, 88
3, 19375, Note_on_c, 1, 60, 0
3, 19392, Note_on_c, 1, 60, 88
3, 19423, Note_on_c, 1, 60, 0
3, 19440, Note_on_c, 1, 60, 88
3, 19471, Note_on_c, 1, 60, 0
3, 19488, Note_on_c, 1, 60, 88
3, 19519, Note_on_c, 1, 60, 0
3, 19536, Note_on_c, 1, 60, 88
3, 19567, Note_on_c, 1, 60, 0
3, 19584, Note_on_c, 1, 59, 88
3, 19615, Note_on_c, 1, 59, 0
3, 19632, Note_on_c, 1, 59, 88
3, 19663, Note_on_c, 1, 59, 0
3, 19680, Note_on_c, 1, 59, 88
3, 19711, Note_on_c, 1, 59, 0
3, 19728, Note_on_c, 1, 59, 88
3, 19759, Note_on_c, 1, 59, 0
3, 19776, Note_on_c, 1, 59, 88
3, 19807, Note_on_c, 1, 59, 0
3, 19824, Note_on_c, 1, 59, 88
3, 19855, Note_on_c, 1, 59, 0
3, 19872, Note_on_c, 1, 59, 88
3, 19903, Note_on_c, 1, 59, 0
3, 19920, Note_on_c, 1, 59, 88
3, 19951, Note_on_c, 1, 59, 0
3, 19968, Note_on_c, 1, 60, 88
3, 19999, Note_on_c, 1, 60, 0
3, 20016, Note_on_c, 1, 60, 88
3, 20047, Note_on_c, 1, 60, 0
3, 20064, Note_on_c, 1, 60, 88
3, 20095, Note_on_c, 1, 60, 0
3, 20112, Note_on_c, 1, 60, 88
3, 20143, Note_on_c, 1, 60, 0
3, 20160, Note_on_c, 1, 60, 88
3, 20191, Note_on_c, 1, 60, 0
3, 20208, Note_on_c, 1, 60, 88
3, 20239, Note_on_c, 1, 60, 0
3, 20256, Note_on_c, 1, 60, 88
3, 20287, Note_on_c, 1, 60, 0
3, 20304, Note_on_c, 1, 60, 88
3, 20335, Note_on_c, 1, 60, 0
3, 20352, Note_on_c, 1, 59, 88
3, 20383, Note_on_c, 1, 59, 0
3, 20400, Note_on_c, 1, 59, 88
3, 20431, Note_on_c, 1, 59, 0
3, 20448, Note_on_c, 1, 59, 88
3, 20479, Note_on_c, 1, 59, 0
3, 20496, Note_on_c, 1, 59, 88
3, 20527, Note_on_c, 1, 59, 0
3, 20544, Note_on_c, 1, 59, 88
3, 20575, Note_on_c, 1, 59, 0
3, 20592, Note_on_c, 1, 59, 88
3, 20623, Note_on_c, 1, 59, 0
3, 20640, Note_on_c, 1, 59, 88
3, 20671, Note_on_c, 1, 59, 0
3, 20688, Note_on_c, 1, 59, 88
3, 20719, Note_on_c, 1, 59, 0
3, 20736, Note_on_c, 1, 60, 88
3, 20767, Note_on_c, 1, 60, 0
3, 20784, Note_on_c, 1, 48, 88
3, 20815, Note_on_c, 1, 48, 0
3, 20832, Note_on_c, 1, 60, 88
3, 20863, Note_on_c, 1, 60, 0
3, 20880, Note_on_c, 1, 60, 88
3, 20911, Note_on_c, 1, 60, 0
3, 20928, Note_on_c, 1, 62, 88
3, 20959, Note_on_c, 1, 62, 0
3, 20976, Note_on_c, 1, 62, 88
3, 21007, Note_on_c, 1, 62, 0
3, 21024, Note_on_c, 1, 64, 88
3, 21055, Note_on_c, 1, 64, 0
3, 21072, Note_on_c, 1, 64, 88
3, 21103, Note_on_c, 1, 64, 0
3, 21120, Note_on_c, 1, 65, 88
3, 21151, Note_on_c, 1, 65, 0
3, 21168, Note_on_c, 1, 53, 88
3, 21199, Note_on_c, 1, 53, 0
3, 21216, Note_on_c, 1, 53, 88
3, 21247, Note_on_c, 1, 53, 0
3, 21264, Note_on_c, 1, 53, 88
3, 21295, Note_on_c, 1, 53, 0
3, 21312, Note_on_c, 1, 53, 88
3, 21343, Note_on_c, 1, 53, 0
3, 21360, Note_on_c, 1, 53, 88
3, 21391, Note_on_c, 1, 53, 0
3, 21408, Note_on_c, 1, 53, 88
3, 21439, Note_on_c, 1, 53, 0
3, 21456, Note_on_c, 1, 53, 88
3, 21487, Note_on_c, 1, 53, 0
3, 21504, Note_on_c, 1, 64, 88
3, 21535, Note_on_c, 1, 64, 0
3, 21552, Note_on_c, 1, 52, 88
3, 21583, Note_on_c, 1, 52, 0
3, 21600, Note_on_c, 1, 52, 88
3, 21631, Note_on_c, 1, 52, 0
3, 21648, Note_on_c, 1, 52, 88
3, 21679, Note_on_c, 1, 52, 0
3, 21696, Note_on_c, 1, 52, 88
3, 21727, Note_on_c, 1, 52, 0
3, 21744, Note_on_c, 1, 52, 88
3, 21775, Note_on_c, 1, 52, 0
3, 21792, Note_on_c, 1, 52, 88
3, 21823, Note_on_c, 1, 52, 0
3, 21840, Note_on_c, 1, 52, 88
3, 21871, Note_on_c, 1, 52, 0
3, 21888, Note_on_c, 1, 62, 88
3, 21919, Note_on_c, 1, 62, 0
3, 21936, Note_on_c, 1, 50, 88
3, 21967, Note_on_c, 1, 50, 0
3, 21984, Note_on_c, 1, 50, 88
3, 22015, Note_on_c, 1, 50, 0
3, 22032, Note_on_c, 1, 50, 88
3, 22063, Note_on_c, 1, 50, 0
3, 22080, Note_on_c, 1, 47, 88
3, 22111, Note_on_c, 1, 47, 0
3, 22128, Note_on_c, 1, 47, 88
3, 22159, Note_on_c, 1, 47, 0
3, 22176, Note_on_c, 1, 59, 88
3, 22207, Note_on_c, 1, 59, 0
3, 22224, Note_on_c, 1, 59, 88
3, 22255, Note_on_c, 1, 59, 0
3, 22272, Note_on_c, 1, 48, 88
3, 22334, Note_on_c, 1, 48, 0
3, 22368, Note_on_c, 1, 60, 88
3, 22430, Note_on_c, 1, 60, 0
3, 22464, Note_on_c, 1, 59, 88
3, 22526, Note_on_c, 1, 59, 0
3, 22608, Note_on_c, 1, 56, 88
3, 22639, Note_on_c, 1, 56, 0
3, 22656, Note_on_c, 1, 57, 88
3, 22718, Note_on_c, 1, 57, 0
3, 22752, Note_on_c, 1, 45, 88
3, 22814, Note_on_c, 1, 45, 0
3, 22848, Note_on_c, 1, 43, 88
3, 22910, Note_on_c, 1, 43, 0
3, 22992, Note_on_c, 1, 52, 88
3, 23023, Note_on_c, 1, 52, 0
3, 23040, Note_on_c, 1, 53, 88
3, 23102, Note_on_c, 1, 53, 0
3, 23136, Note_on_c, 1, 41, 88
3, 23198, Note_on_c, 1, 41, 0
3, 23232, Note_on_c, 1, 40, 88
3, 23294, Note_on_c, 1, 40, 0
3, 23376, Note_on_c, 1, 48, 88
3, 23407, Note_on_c, 1, 48, 0
3, 23424, Note_on_c, 1, 50, 88
3, 23455, Note_on_c, 1, 50, 0
3, 23472, Note_on_c, 1, 50, 88
3, 23503, Note_on_c, 1, 50, 0
3, 23520, Note_on_c, 1, 50, 88
3, 23551, Note_on_c, 1, 50, 0
3, 23568, Note_on_c, 1, 50, 88
3, 23599, Note_on_c, 1, 50, 0
3, 23616, Note_on_c, 1, 52, 88
3, 23647, Note_on_c, 1, 52, 0
3, 23664, Note_on_c, 1, 52, 88
3, 23695, Note_on_c, 1, 52, 0
3, 23712, Note_on_c, 1, 52, 88
3, 23743, Note_on_c, 1, 52, 0
3, 23760, Note_on_c, 1, 52, 88
3, 23791, Note_on_c, 1, 52, 0
3, 23808, Note_on_c, 1, 53, 88
3, 23839, Note_on_c, 1, 53, 0
3, 23856, Note_on_c, 1, 53, 88
3, 23887, Note_on_c, 1, 53, 0
3, 23904, Note_on_c, 1, 53, 88
3, 23935, Note_on_c, 1, 53, 0
3, 23952, Note_on_c, 1, 53, 88
3, 23983, Note_on_c, 1, 53, 0
3, 24000, Note_on_c, 1, 55, 88
3, 24031, Note_on_c, 1, 55, 0
3, 24048, Note_on_c, 1, 55, 88
3, 24079, Note_on_c, 1, 55, 0
3, 24096, Note_on_c, 1, 43, 88
3, 24127, Note_on_c, 1, 43, 0
3, 24144, Note_on_c, 1, 43, 88
3, 24175, Note_on_c, 1, 43, 0
3, 24192, Note_on_c, 1, 48, 88
3, 24223, Note_on_c, 1, 48, 0
3, 24240, Note_on_c, 1, 60, 88
3, 24271, Note_on_c, 1, 60, 0
3, 24288, Note_on_c, 1, 63, 88
3, 24319, Note_on_c, 1, 63, 0
3, 24336, Note_on_c, 1, 60, 88
3, 24367, Note_on_c, 1, 60, 0
3, 24384, Note_on_c, 1, 55, 88
3, 24415, Note_on_c, 1, 55, 0
3, 24432, Note_on_c, 1, 60, 88
3, 24463, Note_on_c, 1, 60, 0
3, 24480, Note_on_c, 1, 51, 88
3, 24511, Note_on_c, 1, 51, 0
3, 24528, Note_on_c, 1, 55, 88
3, 24559, Note_on_c, 1, 55, 0
3, 24576, Note_on_c, 1, 48, 88
3, 24607, Note_on_c, 1, 48, 0
3, 24624, Note_on_c, 1, 48, 88
3, 24655, Note_on_c, 1, 48, 0
3, 24672, Note_on_c, 1, 48, 88
3, 24703, Note_on_c, 1, 48, 0
3, 24720, Note_on_c, 1, 48, 88
3, 24751, Note_on_c, 1, 48, 0
3, 24768, Note_on_c, 1, 48, 88
3, 24799, Note_on_c, 1, 48, 0
3, 24816, Note_on_c, 1, 48, 88
3, 24847, Note_on_c, 1, 48, 0
3, 24864, Note_on_c, 1, 48, 88
3, 24895, Note_on_c, 1, 48, 0
3, 24912, Note_on_c, 1, 48, 88
3, 24943, Note_on_c, 1, 48, 0
3, 24960, Note_on_c, 1, 47, 88
3, 24991, Note_on_c, 1, 47, 0
3, 25008, Note_on_c, 1, 47, 88
3, 25039, Note_on_c, 1, 47, 0
3, 25056, Note_on_c, 1, 47, 88
3, 25087, Note_on_c, 1, 47, 0
3, 25104, Note_on_c, 1, 47, 88
3, 25135, Note_on_c, 1, 47, 0
3, 25152, Note_on_c, 1, 47, 88
3, 25183, Note_on_c, 1, 47, 0
3, 25200, Note_on_c, 1, 47, 88
3, 25231, Note_on_c, 1, 47, 0
3, 25248, Note_on_c, 1, 47, 88
3, 25279, Note_on_c, 1, 47, 0
3, 25296, Note_on_c, 1, 47, 88
3, 25327, Note_on_c, 1, 47, 0
3, 25344, Note_on_c, 1, 44, 88
3, 25375, Note_on_c, 1, 44, 0
3, 25392, Note_on_c, 1, 44, 88
3, 25423, Note_on_c, 1, 44, 0
3, 25440, Note_on_c, 1, 44, 88
3, 25471, Note_on_c, 1, 44, 0
3, 25488, Note_on_c, 1, 44, 88
3, 25519, Note_on_c, 1, 44, 0
3, 25536, Note_on_c, 1, 56, 88
3, 25567, Note_on_c, 1, 56, 0
3, 25584, Note_on_c, 1, 56, 88
3, 25615, Note_on_c, 1, 56, 0
3, 25632, Note_on_c, 1, 56, 88
3, 25663, Note_on_c, 1, 56, 0
3, 25680, Note_on_c, 1, 56, 88
3, 25711, Note_on_c, 1, 56, 0
3, 25728, Note_on_c, 1, 55, 88
3, 25759, Note_on_c, 1, 55, 0
3, 25776, Note_on_c, 1, 55, 88
3, 25807, Note_on_c, 1, 55, 0
3, 25824, Note_on_c, 1, 55, 88
3, 25855, Note_on_c, 1, 55, 0
3, 25872, Note_on_c, 1, 55, 88
3, 25903, Note_on_c, 1, 55, 0
3, 25920, Note_on_c, 1, 55, 88
3, 25951, Note_on_c, 1, 55, 0
3, 25968, Note_on_c, 1, 55, 88
3, 25999, Note_on_c, 1, 55, 0
3, 26016, Note_on_c, 1, 55, 88
3, 26047, Note_on_c, 1, 55, 0
3, 26064, Note_on_c, 1, 55, 88
3, 26095, Note_on_c, 1, 55, 0
3, 26112, Note_on_c, 1, 53, 88
3, 26143, Note_on_c, 1, 53, 0
3, 26160, Note_on_c, 1, 53, 88
3, 26191, Note_on_c, 1, 53, 0
3, 26208, Note_on_c, 1, 53, 88
3, 26239, Note_on_c, 1, 53, 0
3, 26256, Note_on_c, 1, 53, 88
3, 26287, Note_on_c, 1, 53, 0
3, 26304, Note_on_c, 1, 53, 88
3, 26335, Note_on_c, 1, 53, 0
3, 26352, Note_on_c, 1, 53, 88
3, 26383, Note_on_c, 1, 53, 0
3, 26400, Note_on_c, 1, 53, 88
3, 26431, Note_on_c, 1, 53, 0
3, 26448, Note_on_c, 1, 53, 88
3, 26479, Note_on_c, 1, 53, 0
3, 26496, Note_on_c, 1, 51, 88
3, 26527, Note_on_c, 1, 51, 0
3, 26544, Note_on_c, 1, 51, 88
3, 26575, Note_on_c, 1, 51, 0
3, 26592, Note_on_c, 1, 51, 88
3, 26623, Note_on_c, 1, 51, 0
3, 26640, Note_on_c, 1, 51, 88
3, 26671, Note_on_c, 1, 51, 0
3, 26688, Note_on_c, 1, 51, 88
3, 26719, Note_on_c, 1, 51, 0
3, 26736, Note_on_c, 1, 51, 88
3, 26767, Note_on_c, 1, 51, 0
3, 26784, Note_on_c, 1, 51, 88
3, 26815, Note_on_c, 1, 51, 0
3, 26832, Note_on_c, 1, 51, 88
3, 26863, Note_on_c, 1, 51, 0
3, 26880, Note_on_c, 1, 56, 88
3, 26942, Note_on_c, 1, 56, 0
3, 26976, Note_on_c, 1, 56, 88
3, 27038, Note_on_c, 1, 56, 0
3, 27072, Note_on_c, 1, 56, 88
3, 27134, Note_on_c, 1, 56, 0
3, 27168, Note_on_c, 1, 56, 88
3, 27230, Note_on_c, 1, 56, 0
3, 27264, Note_on_c, 1, 55, 88
3, 27295, Note_on_c, 1, 55, 0
3, 27312, Note_on_c, 1, 43, 88
3, 27343, Note_on_c, 1, 43, 0
3, 27360, Note_on_c, 1, 47, 88
3, 27391, Note_on_c, 1, 47, 0
3, 27408, Note_on_c, 1, 50, 88
3, 27439, Note_on_c, 1, 50, 0
3, 27456, Note_on_c, 1, 55, 88
3, 27487, Note_on_c, 1, 55, 0
3, 27504, Note_on_c, 1, 50, 88
3, 27535, Note_on_c, 1, 50, 0
3, 27552, Note_on_c, 1, 47, 88
3, 27583, Note_on_c, 1, 47, 0
3, 27600, Note_on_c, 1, 43, 88
3, 27631, Note_on_c, 1, 43, 0
3, 27648, Note_on_c, 1, 55, 88
3, 27679, Note_on_c, 1, 55, 0
3, 27696, Note_on_c, 1, 55, 88
3, 27727, Note_on_c, 1, 55, 0
3, 27744, Note_on_c, 1, 55, 88
3, 27775, Note_on_c, 1, 55, 0
3, 27792, Note_on_c, 1, 55, 88
3, 27823, Note_on_c, 1, 55, 0
3, 27840, Note_on_c, 1, 55, 88
3, 27871, Note_on_c, 1, 55, 0
3, 27888, Note_on_c, 1, 55, 88
3, 27919, Note_on_c, 1, 55, 0
3, 27936, Note_on_c, 1, 55, 88
3, 27967, Note_on_c, 1, 55, 0
3, 27984, Note_on_c, 1, 55, 88
3, 28015, Note_on_c, 1, 55, 0
3, 28032, Note_on_c, 1, 55, 88
3, 28063, Note_on_c, 1, 55, 0
3, 28080, Note_on_c, 1, 55, 88
3, 28111, Note_on_c, 1, 55, 0
3, 28128, Note_on_c, 1, 55, 88
3, 28159, Note_on_c, 1, 55, 0
3, 28176, Note_on_c, 1, 55, 88
3, 28207, Note_on_c, 1, 55, 0
3, 28224, Note_on_c, 1, 55, 88
3, 28255, Note_on_c, 1, 55, 0
3, 28272, Note_on_c, 1, 55, 88
3, 28303, Note_on_c, 1, 55, 0
3, 28320, Note_on_c, 1, 55, 88
3, 28351, Note_on_c, 1, 55, 0
3, 28368, Note_on_c, 1, 55, 88
3, 28399, Note_on_c, 1, 55, 0
3, 28416, Note_on_c, 1, 55, 88
3, 28447, Note_on_c, 1, 55, 0
3, 28464, Note_on_c, 1, 55, 88
3, 28495, Note_on_c, 1, 55, 0
3, 28512, Note_on_c, 1, 55, 88
3, 28543, Note_on_c, 1, 55, 0
3, 28560, Note_on_c, 1, 55, 88
3, 28591, Note_on_c, 1, 55, 0
3, 28608, Note_on_c, 1, 55, 88
3, 28639, Note_on_c, 1, 55, 0
3, 28656, Note_on_c, 1, 55, 88
3, 28687, Note_on_c, 1, 55, 0
3, 28704, Note_on_c, 1, 55, 88
3, 28735, Note_on_c, 1, 55, 0
3, 28752, Note_on_c, 1, 53, 88
3, 28783, Note_on_c, 1, 53, 0
3, 28800, Note_on_c, 1, 52, 88
3, 28831, Note_on_c, 1, 52, 0
3, 28848, Note_on_c, 1, 52, 88
3, 28879, Note_on_c, 1, 52, 0
3, 28896, Note_on_c, 1, 53, 88
3, 28927, Note_on_c, 1, 53, 0
3, 28944, Note_on_c, 1, 52, 88
3, 28975, Note_on_c, 1, 52, 0
3, 28992, Note_on_c, 1, 52, 88
3, 29023, Note_on_c, 1, 52, 0
3, 29040, Note_on_c, 1, 60, 88
3, 29071, Note_on_c, 1, 60, 0
3, 29088, Note_on_c, 1, 55, 88
3, 29119, Note_on_c, 1, 55, 0
3, 29136, Note_on_c, 1, 53, 88
3, 29167, Note_on_c, 1, 53, 0
3, 29184, Note_on_c, 1, 52, 88
3, 29215, Note_on_c, 1, 52, 0
3, 29232, Note_on_c, 1, 52, 88
3, 29263, Note_on_c, 1, 52, 0
3, 29280, Note_on_c, 1, 52, 88
3, 29311, Note_on_c, 1, 52, 0
3, 29328, Note_on_c, 1, 52, 88
3, 29359, Note_on_c, 1, 52, 0
3, 29376, Note_on_c, 1, 52, 88
3, 29407, Note_on_c, 1, 52, 0
3, 29424, Note_on_c, 1, 52, 88
3, 29455, Note_on_c, 1, 52, 0
3, 29472, Note_on_c, 1, 52, 88
3, 29503, Note_on_c, 1, 52, 0
3, 29520, Note_on_c, 1, 52, 88
3, 29551, Note_on_c, 1, 52, 0
3, 29568, Note_on_c, 1, 47, 88
3, 29599, Note_on_c, 1, 47, 0
3, 29616, Note_on_c, 1, 47, 88
3, 29647, Note_on_c, 1, 47, 0
3, 29664, Note_on_c, 1, 47, 88
3, 29695, Note_on_c, 1, 47, 0
3, 29712, Note_on_c, 1, 47, 88
3, 29743, Note_on_c, 1, 47, 0
3, 29760, Note_on_c, 1, 47, 88
3, 29791, Note_on_c, 1, 47, 0
3, 29808, Note_on_c, 1, 47, 88
3, 29839, Note_on_c, 1, 47, 0
3, 29856, Note_on_c, 1, 47, 88
3, 29887, Note_on_c, 1, 47, 0
3, 29904, Note_on_c, 1, 47, 88
3, 29935, Note_on_c, 1, 47, 0
3, 29952, Note_on_c, 1, 48, 88
3, 29983, Note_on_c, 1, 48, 0
3, 30000, Note_on_c, 1, 48, 88
3, 30031, Note_on_c, 1, 48, 0
3, 30048, Note_on_c, 1, 48, 88
3, 30079, Note_on_c, 1, 48, 0
3, 30096, Note_on_c, 1, 48, 88
3, 30127, Note_on_c, 1, 48, 0
3, 30144, Note_on_c, 1, 50, 88
3, 30175, Note_on_c, 1, 50, 0
3, 30192, Note_on_c, 1, 50, 88
3, 30223, Note_on_c, 1, 50, 0
3, 30240, Note_on_c, 1, 50, 88
3, 30271, Note_on_c, 1, 50, 0
3, 30288, Note_on_c, 1, 50, 88
3, 30319, Note_on_c, 1, 50, 0
3, 30336, Note_on_c, 1, 52, 88
3, 30367, Note_on_c, 1, 52, 0
3, 30384, Note_on_c, 1, 53, 88
3, 30415, Note_on_c, 1, 53, 0
3, 30432, Note_on_c, 1, 52, 88
3, 30463, Note_on_c, 1, 52, 0
3, 30480, Note_on_c, 1, 52, 88
3, 30511, Note_on_c, 1, 52, 0
3, 30528, Note_on_c, 1, 53, 88
3, 30559, Note_on_c, 1, 53, 0
3, 30576, Note_on_c, 1, 53, 88
3, 30607, Note_on_c, 1, 53, 0
3, 30624, Note_on_c, 1, 53, 88
3, 30655, Note_on_c, 1, 53, 0
3, 30672, Note_on_c, 1, 53, 88
3, 30703, Note_on_c, 1, 53, 0
3, 30720, Note_on_c, 1, 55, 88
3, 30751, Note_on_c, 1, 55, 0
3, 30768, Note_on_c, 1, 55, 88
3, 30799, Note_on_c, 1, 55, 0
3, 30816, Note_on_c, 1, 55, 88
3, 30847, Note_on_c, 1, 55, 0
3, 30864, Note_on_c, 1, 55, 88
3, 30895, Note_on_c, 1, 55, 0
3, 30912, Note_on_c, 1, 43, 88
3, 30943, Note_on_c, 1, 43, 0
3, 30960, Note_on_c, 1, 43, 88
3, 30991, Note_on_c, 1, 43, 0
3, 31008, Note_on_c, 1, 43, 88
3, 31039, Note_on_c, 1, 43, 0
3, 31056, Note_on_c, 1, 43, 88
3, 31087, Note_on_c, 1, 43, 0
3, 31104, Note_on_c, 1, 48, 88
3, 31135, Note_on_c, 1, 48, 0
3, 31152, Note_on_c, 1, 48, 88
3, 31183, Note_on_c, 1, 48, 0
3, 31200, Note_on_c, 1, 48, 88
3, 31231, Note_on_c, 1, 48, 0
3, 31248, Note_on_c, 1, 48, 88
3, 31279, Note_on_c, 1, 48, 0
3, 31296, Note_on_c, 1, 52, 88
3, 31327, Note_on_c, 1, 52, 0
3, 31344, Note_on_c, 1, 52, 88
3, 31375, Note_on_c, 1, 52, 0
3, 31392, Note_on_c, 1, 52, 88
3, 31423, Note_on_c, 1, 52, 0
3, 31440, Note_on_c, 1, 52, 88
3, 31471, Note_on_c, 1, 52, 0
3, 31488, Note_on_c, 1, 53, 88
3, 31519, Note_on_c, 1, 53, 0
3, 31536, Note_on_c, 1, 53, 88
3, 31567, Note_on_c, 1, 53, 0
3, 31584, Note_on_c, 1, 53, 88
3, 31615, Note_on_c, 1, 53, 0
3, 31632, Note_on_c, 1, 53, 88
3, 31663, Note_on_c, 1, 53, 0
3, 31680, Note_on_c, 1, 53, 88
3, 31711, Note_on_c, 1, 53, 0
3, 31728, Note_on_c, 1, 53, 88
3, 31759, Note_on_c, 1, 53, 0
3, 31776, Note_on_c, 1, 53, 88
3, 31807, Note_on_c, 1, 53, 0
3, 31824, Note_on_c, 1, 53, 88
3, 31855, Note_on_c, 1, 53, 0
3, 31872, Note_on_c, 1, 55, 88
3, 31903, Note_on_c, 1, 55, 0
3, 31920, Note_on_c, 1, 55, 88
3, 31951, Note_on_c, 1, 55, 0
3, 31968, Note_on_c, 1, 55, 88
3, 31999, Note_on_c, 1, 55, 0
3, 32016, Note_on_c, 1, 55, 88
3, 32047, Note_on_c, 1, 55, 0
3, 32064, Note_on_c, 1, 55, 88
3, 32095, Note_on_c, 1, 55, 0
3, 32112, Note_on_c, 1, 55, 88
3, 32143, Note_on_c, 1, 55, 0
3, 32160, Note_on_c, 1, 55, 88
3, 32191, Note_on_c, 1, 55, 0
3, 32208, Note_on_c, 1, 55, 88
3, 32239, Note_on_c, 1, 55, 0
3, 32256, Note_on_c, 1, 57, 88
3, 32287, Note_on_c, 1, 57, 0
3, 32304, Note_on_c, 1, 57, 88
3, 32335, Note_on_c, 1, 57, 0
3, 32352, Note_on_c, 1, 57, 88
3, 32383, Note_on_c, 1, 57, 0
3, 32400, Note_on_c, 1, 57, 88
3, 32431, Note_on_c, 1, 57, 0
3, 32448, Note_on_c, 1, 57, 88
3, 32479, Note_on_c, 1, 57, 0
3, 32496, Note_on_c, 1, 57, 88
3, 32527, Note_on_c, 1, 57, 0
3, 32544, Note_on_c, 1, 57, 88
3, 32575, Note_on_c, 1, 57, 0
3, 32592, Note_on_c, 1, 57, 88
3, 32623, Note_on_c, 1, 57, 0
3, 32640, Note_on_c, 1, 59, 88
3, 32671, Note_on_c, 1, 59, 0
3, 32688, Note_on_c, 1, 59, 88
3, 32719, Note_on_c, 1, 59, 0
3, 32736, Note_on_c, 1, 59, 88
3, 32767, Note_on_c, 1, 59, 0
3, 32784, Note_on_c, 1, 59, 88
3, 32815, Note_on_c, 1, 59, 0
3, 32832, Note_on_c, 1, 59, 88
3, 32863, Note_on_c, 1, 59, 0
3, 32880, Note_on_c, 1, 59, 88
3, 32911, Note_on_c, 1, 59, 0
3, 32928, Note_on_c, 1, 59, 88
3, 32959, Note_on_c, 1, 59, 0
3, 32976, Note_on_c, 1, 59, 88
3, 33007, Note_on_c, 1, 59, 0
3, 33024, Note_on_c, 1, 60, 88
3, 33055, Note_on_c, 1, 60, 0
3, 33072, Note_on_c, 1, 64, 88
3, 33103, Note_on_c, 1, 64, 0
3, 33120, Note_on_c, 1, 60, 88
3, 33182, Note_on_c, 1, 60, 0
3, 33264, Note_on_c, 1, 64, 88
3, 33295, Note_on_c, 1, 64, 0
3, 33312, Note_on_c, 1, 60, 88
3, 33374, Note_on_c, 1, 60, 0
3, 33456, Note_on_c, 1, 64, 88
3, 33487, Note_on_c, 1, 64, 0
3, 33504, Note_on_c, 1, 60, 88
3, 33566, Note_on_c, 1, 60, 0
3, 33648, Note_on_c, 1, 64, 88
3, 33679, Note_on_c, 1, 64, 0
3, 33696, Note_on_c, 1, 60, 88
3, 33758, Note_on_c, 1, 60, 0
3, 33792, Note_on_c, 1, 60, 88
3, 33854, Note_on_c, 1, 60, 0
3, 33888, Note_on_c, 1, 60, 88
3, 33950, Note_on_c, 1, 60, 0
3, 33984, Note_on_c, 1, 60, 88
3, 34046, Note_on_c, 1, 60, 0
3, 34080, Note_on_c, 1, 60, 88
3, 34142, Note_on_c, 1, 60, 0
3, 34176, Note_on_c, 1, 60, 88
3, 34238, Note_on_c, 1, 60, 0
3, 34560, Note_on_c, 1, 55, 88
3, 34591, Note_on_c, 1, 55, 0
3, 34608, Note_on_c, 1, 55, 88
3, 34639, Note_on_c, 1, 55, 0
3, 34656, Note_on_c, 1, 55, 88
3, 34687, Note_on_c, 1, 55, 0
3, 34704, Note_on_c, 1, 55, 88
3, 34735, Note_on_c, 1, 55, 0
3, 34752, Note_on_c, 1, 55, 88
3, 34783, Note_on_c, 1, 55, 0
3, 34800, Note_on_c, 1, 55, 88
3, 34831, Note_on_c, 1, 55, 0
3, 34848, Note_on_c, 1, 55, 88
3, 34879, Note_on_c, 1, 55, 0
3, 34896, Note_on_c, 1, 55, 88
3, 34927, Note_on_c, 1, 55, 0
3, 34944, Note_on_c, 1, 48, 88
3, 34975, Note_on_c, 1, 48, 0
3, 34992, Note_on_c, 1, 60, 88
3, 35023, Note_on_c, 1, 60, 0
3, 35040, Note_on_c, 1, 60, 88
3, 35071, Note_on_c, 1, 60, 0
3, 35088, Note_on_c, 1, 60, 88
3, 35119, Note_on_c, 1, 60, 0
3, 35136, Note_on_c, 1, 52, 96
3, 35167, Note_on_c, 1, 52, 0
3, 35184, Note_on_c, 1, 52, 64
3, 35215, Note_on_c, 1, 52, 0
3, 35232, Note_on_c, 1, 52, 64
3, 35263, Note_on_c, 1, 52, 0
3, 35280, Note_on_c, 1, 52, 64
3, 35311, Note_on_c, 1, 52, 0
3, 35328, Note_on_c, 1, 53, 96
3, 35359, Note_on_c, 1, 53, 0
3, 35376, Note_on_c, 1, 53, 64
3, 35407, Note_on_c, 1, 53, 0
3, 35424, Note_on_c, 1, 53, 64
3, 35455, Note_on_c, 1, 53, 0
3, 35472, Note_on_c, 1, 53, 64
3, 35503, Note_on_c, 1, 53, 0
3, 35520, Note_on_c, 1, 53, 64
3, 35551, Note_on_c, 1, 53, 0
3, 35568, Note_on_c, 1, 53, 64
3, 35599, Note_on_c, 1, 53, 0
3, 35616, Note_on_c, 1, 53, 64
3, 35647, Note_on_c, 1, 53, 0
3, 35664, Note_on_c, 1, 53, 64
3, 35695, Note_on_c, 1, 53, 0
3, 35712, Note_on_c, 1, 55, 64
3, 35743, Note_on_c, 1, 55, 0
3, 35760, Note_on_c, 1, 55, 64
3, 35791, Note_on_c, 1, 55, 0
3, 35808, Note_on_c, 1, 55, 64
3, 35839, Note_on_c, 1, 55, 0
3, 35856, Note_on_c, 1, 55, 64
3, 35887, Note_on_c, 1, 55, 0
3, 35904, Note_on_c, 1, 55, 64
3, 35935, Note_on_c, 1, 55, 0
3, 35952, Note_on_c, 1, 55, 64
3, 35983, Note_on_c, 1, 55, 0
3, 36000, Note_on_c, 1, 55, 64
3, 36031, Note_on_c, 1, 55, 0
3, 36048, Note_on_c, 1, 55, 64
3, 36079, Note_on_c, 1, 55, 0
3, 36096, Note_on_c, 1, 43, 64
3, 36127, Note_on_c, 1, 43, 0
3, 36144, Note_on_c, 1, 43, 64
3, 36175, Note_on_c, 1, 43, 0
3, 36192, Note_on_c, 1, 43, 64
3, 36223, Note_on_c, 1, 43, 0
3, 36240, Note_on_c, 1, 43, 64
3, 36271, Note_on_c, 1, 43, 0
3, 36288, Note_on_c, 1, 43, 64
3, 36319, Note_on_c, 1, 43, 0
3, 36336, Note_on_c, 1, 43, 64
3, 36367, Note_on_c, 1, 43, 0
3, 36384, Note_on_c, 1, 43, 64
3, 36415, Note_on_c, 1, 43, 0
3, 36432, Note_on_c, 1, 43, 64
3, 36463, Note_on_c, 1, 43, 0
3, 36480, Note_on_c, 1, 48, 64
3, 36542, Note_on_c, 1, 48, 0
3, 36542, End_track
4, 0, Start_track
4, 0, End_track
0, 0, End_of_file