0, 0, Header, 1, 4, 240
1, 0, Start_track
1, 0, Time_signature, 3, 2, 24, 8
1, 0, Tempo, 434783
1, 70080, Tempo, 483871
1, 70320, Tempo, 545455
1, 70560, Tempo, 625000
1, 70560, End_track
2, 0, Start_track
2, 480, Note_on_c, 0, 72, 64
2, 588, Note_off_c, 0, 72, 64
2, 720, Note_on_c, 0, 72, 64
2, 720, Note_on_c, 0, 77, 64
2, 720, Note_on_c, 0, 69, 64
2, 1104, Note_off_c, 0, 69, 64
2, 1104, Note_off_c, 0, 77, 64
2, 1104, Note_off_c, 0, 72, 64
2, 1200, Note_on_c, 0, 81, 64
2, 1308, Note_off_c, 0, 81, 64
2, 1440, Note_on_c, 0, 84, 64
2, 1632, Note_off_c, 0, 84, 64
2, 1680, Note_on_c, 0, 84, 64
2, 1788, Note_off_c, 0, 84, 64
2, 1920, Note_on_c, 0, 84, 64
2, 2028, Note_off_c, 0, 84, 64
2, 2160, Note_on_c, 0, 79, 64
2, 2544, Note_off_c, 0, 79, 64
2, 2640, Note_on_c, 0, 82, 64
2, 2748, Note_off_c, 0, 82, 64
2, 2880, Note_on_c, 0, 81, 64
2, 3072, Note_off_c, 0, 81, 64
2, 3360, Note_on_c, 0, 72, 64
2, 3468, Note_off_c, 0, 72, 64
2, 3600, Note_on_c, 0, 67, 64
2, 3984, Note_off_c, 0, 67, 64
2, 4080, Note_on_c, 0, 70, 64
2, 4188, Note_off_c, 0, 70, 64
2, 4320, Note_on_c, 0, 69, 64
2, 4512, Note_off_c, 0, 69, 64
2, 4800, Note_on_c, 0, 81, 64
2, 4848, Note_off_c, 0, 81, 64
2, 4860, Note_on_c, 0, 79, 64
2, 4908, Note_off_c, 0, 79, 64
2, 4920, Note_on_c, 0, 77, 64
2, 4968, Note_off_c, 0, 77, 64
2, 4980, Note_on_c, 0, 76, 64
2, 5028, Note_off_c, 0, 76, 64
2, 5040, Note_on_c, 0, 74, 64
2, 5232, Note_off_c, 0, 74, 64
2, 5280, Note_on_c, 0, 74, 64
2, 5388, Note_off_c, 0, 74, 64
2, 5520, Note_on_c, 0, 79, 64
2, 5568, Note_off_c, 0, 79, 64
2, 5580, Note_on_c, 0, 77, 64
2, 5628, Note_off_c, 0, 77, 64
2, 5640, Note_on_c, 0, 76, 64
2, 5688, Note_off_c, 0, 76, 64
2, 5700, Note_on_c, 0, 74, 64
2, 5748, Note_off_c, 0, 74, 64
2, 5760, Note_on_c, 0, 72, 64
2, 5952, Note_off_c, 0, 72, 64
2, 6000, Note_on_c, 0, 72, 64
2, 6108, Note_off_c, 0, 72, 64
2, 6240, Note_on_c, 0, 69, 64
2, 6288, Note_off_c, 0, 69, 64
2, 6300, Note_on_c, 0, 67, 64
2, 6348, Note_off_c, 0, 67, 64
2, 6360, Note_on_c, 0, 65, 64
2, 6408, Note_off_c, 0, 65, 64
2, 6420, Note_on_c, 0, 64, 64
2, 6468, Note_off_c, 0, 64, 64
2, 6480, Note_on_c, 0, 59, 64
2, 6480, Note_on_c, 0, 62, 64
2, 6672, Note_off_c, 0, 62, 64
2, 6672, Note_off_c, 0, 59, 64
2, 6720, Note_on_c, 0, 62, 64
2, 6720, Note_on_c, 0, 59, 64
2, 6828, Note_off_c, 0, 59, 64
2, 6828, Note_off_c, 0, 62, 64
2, 6960, Note_on_c, 0, 67, 64
2, 7008, Note_off_c, 0, 67, 64
2, 7020, Note_on_c, 0, 65, 64
2, 7068, Note_off_c, 0, 65, 64
2, 7080, Note_on_c, 0, 64, 64
2, 7128, Note_off_c, 0, 64, 64
2, 7140, Note_on_c, 0, 62, 64
2, 7188, Note_off_c, 0, 62, 64
2, 7200, Note_on_c, 0, 60, 64
2, 7416, Note_off_c, 0, 60, 64
2, 7680, Note_on_c, 0, 72, 64
2, 7788, Note_off_c, 0, 72, 64
2, 7920, Note_on_c, 0, 69, 64
2, 7920, Note_on_c, 0, 77, 64
2, 7920, Note_on_c, 0, 72, 64
2, 8304, Note_off_c, 0, 72, 64
2, 8304, Note_off_c, 0, 77, 64
2, 8304, Note_off_c, 0, 69, 64
2, 8400, Note_on_c, 0, 81, 64
2, 8508, Note_off_c, 0, 81, 64
2, 8640, Note_on_c, 0, 84, 64
2, 8832, Note_off_c, 0, 84, 64
2, 8880, Note_on_c, 0, 84, 64
2, 8988, Note_off_c, 0, 84, 64
2, 9120, Note_on_c, 0, 84, 64
2, 9228, Note_off_c, 0, 84, 64
2, 9360, Note_on_c, 0, 79, 64
2, 9744, Note_off_c, 0, 79, 64
2, 9840, Note_on_c, 0, 82, 64
2, 9948, Note_off_c, 0, 82, 64
2, 10080, Note_on_c, 0, 81, 64
2, 10272, Note_off_c, 0, 81, 64
2, 10560, Note_on_c, 0, 72, 64
2, 10668, Note_off_c, 0, 72, 64
2, 10800, Note_on_c, 0, 67, 64
2, 11184, Note_off_c, 0, 67, 64
2, 11280, Note_on_c, 0, 70, 64
2, 11388, Note_off_c, 0, 70, 64
2, 11520, Note_on_c, 0, 69, 64
2, 11712, Note_off_c, 0, 69, 64
2, 12000, Note_on_c, 0, 81, 64
2, 12048, Note_off_c, 0, 81, 64
2, 12060, Note_on_c, 0, 79, 64
2, 12108, Note_off_c, 0, 79, 64
2, 12120, Note_on_c, 0, 77, 64
2, 12168, Note_off_c, 0, 77, 64
2, 12180, Note_on_c, 0, 76, 64
2, 12228, Note_off_c, 0, 76, 64
2, 12240, Note_on_c, 0, 74, 64
2, 12432, Note_off_c, 0, 74, 64
2, 12480, Note_on_c, 0, 74, 64
2, 12588, Note_off_c, 0, 74, 64
2, 12720, Note_on_c, 0, 79, 64
2, 12768, Note_off_c, 0, 79, 64
2, 12780, Note_on_c, 0, 77, 64
2, 12828, Note_off_c, 0, 77, 64
2, 12840, Note_on_c, 0, 76, 64
2, 12888, Note_off_c, 0, 76, 64
2, 12900, Note_on_c, 0, 74, 64
2, 12948, Note_off_c, 0, 74, 64
2, 12960, Note_on_c, 0, 72, 64
2, 13152, Note_off_c, 0, 72, 64
2, 13200, Note_on_c, 0, 72, 64
2, 13308, Note_off_c, 0, 72, 64
2, 13440, Note_on_c, 0, 69, 64
2, 13488, Note_off_c, 0, 69, 64
2, 13500, Note_on_c, 0, 67, 64
2, 13548, Note_off_c, 0, 67, 64
2, 13560, Note_on_c, 0, 65, 64
2, 13608, Note_off_c, 0, 65, 64
2, 13620, Note_on_c, 0, 64, 64
2, 13668, Note_off_c, 0, 64, 64
2, 13680, Note_on_c, 0, 62, 64
2, 13680, Note_on_c, 0, 59, 64
2, 13872, Note_off_c, 0, 59, 64
2, 13872, Note_off_c, 0, 62, 64
2, 13920, Note_on_c, 0, 59, 64
2, 13920, Note_on_c, 0, 62, 64
2, 14028, Note_off_c, 0, 62, 64
2, 14028, Note_off_c, 0, 59, 64
2, 14160, Note_on_c, 0, 67, 64
2, 14208, Note_off_c, 0, 67, 64
2, 14220, Note_on_c, 0, 65, 64
2, 14268, Note_off_c, 0, 65, 64
2, 14280, Note_on_c, 0, 64, 64
2, 14328, Note_off_c, 0, 64, 64
2, 14340, Note_on_c, 0, 62, 64
2, 14388, Note_off_c, 0, 62, 64
2, 14400, Note_on_c, 0, 60, 64
2, 14616, Note_off_c, 0, 60, 64
2, 14880, Note_on_c, 0, 72, 64
2, 14988, Note_off_c, 0, 72, 64
2, 15120, Note_on_c, 0, 62, 64
2, 15120, Note_on_c, 0, 74, 64
2, 15228, Note_off_c, 0, 74, 64
2, 15228, Note_off_c, 0, 62, 64
2, 15360, Note_on_c, 0, 79, 64
2, 15360, Note_on_c, 0, 67, 64
2, 15456, Note_off_c, 0, 67, 64
2, 15456, Note_off_c, 0, 79, 64
2, 15480, Note_on_c, 0, 65, 64
2, 15480, Note_on_c, 0, 77, 64
2, 15576, Note_off_c, 0, 77, 64
2, 15576, Note_off_c, 0, 65, 64
2, 15600, Note_on_c, 0, 76, 64
2, 15600, Note_on_c, 0, 64, 64
2, 15708, Note_off_c, 0, 64, 64
2, 15708, Note_off_c, 0, 76, 64
2, 15840, Note_on_c, 0, 65, 64
2, 15840, Note_on_c, 0, 77, 64
2, 15948, Note_off_c, 0, 77, 64
2, 15948, Note_off_c, 0, 65, 64
2, 16080, Note_on_c, 0, 82, 64
2, 16080, Note_on_c, 0, 70, 64
2, 16176, Note_off_c, 0, 70, 64
2, 16176, Note_off_c, 0, 82, 64
2, 16200, Note_on_c, 0, 81, 64
2, 16200, Note_on_c, 0, 69, 64
2, 16296, Note_off_c, 0, 69, 64
2, 16296, Note_off_c, 0, 81, 64
2, 16320, Note_on_c, 0, 67, 64
2, 16320, Note_on_c, 0, 79, 64
2, 16428, Note_off_c, 0, 79, 64
2, 16428, Note_off_c, 0, 67, 64
2, 16560, Note_on_c, 0, 69, 64
2, 16560, Note_on_c, 0, 81, 64
2, 16668, Note_off_c, 0, 81, 64
2, 16668, Note_off_c, 0, 69, 64
2, 16800, Note_on_c, 0, 86, 64
2, 16800, Note_on_c, 0, 74, 64
2, 16896, Note_off_c, 0, 74, 64
2, 16896, Note_off_c, 0, 86, 64
2, 16920, Note_on_c, 0, 84, 64
2, 16920, Note_on_c, 0, 72, 64
2, 17016, Note_off_c, 0, 72, 64
2, 17016, Note_off_c, 0, 84, 64
2, 17040, Note_on_c, 0, 71, 64
2, 17040, Note_on_c, 0, 83, 64
2, 17232, Note_off_c, 0, 83, 64
2, 17232, Note_off_c, 0, 71, 64
2, 17280, Note_on_c, 0, 72, 64
2, 17280, Note_on_c, 0, 84, 64
2, 17496, Note_off_c, 0, 84, 64
2, 17496, Note_off_c, 0, 72, 64
2, 17760, Note_on_c, 0, 74, 64
2, 17808, Note_off_c, 0, 74, 64
2, 17820, Note_on_c, 0, 72, 64
2, 17868, Note_off_c, 0, 72, 64
2, 17880, Note_on_c, 0, 70, 64
2, 17928, Note_off_c, 0, 70, 64
2, 17940, Note_on_c, 0, 69, 64
2, 17988, Note_off_c, 0, 69, 64
2, 18000, Note_on_c, 0, 67, 64
2, 18192, Note_off_c, 0, 67, 64
2, 18240, Note_on_c, 0, 67, 64
2, 18348, Note_off_c, 0, 67, 64
2, 18480, Note_on_c, 0, 72, 64
2, 18528, Note_off_c, 0, 72, 64
2, 18540, Note_on_c, 0, 70, 64
2, 18588, Note_off_c, 0, 70, 64
2, 18600, Note_on_c, 0, 69, 64
2, 18648, Note_off_c, 0, 69, 64
2, 18660, Note_on_c, 0, 67, 64
2, 18708, Note_off_c, 0, 67, 64
2, 18720, Note_on_c, 0, 65, 64
2, 18912, Note_off_c, 0, 65, 64
2, 18960, Note_on_c, 0, 65, 64
2, 19068, Note_off_c, 0, 65, 64
2, 19200, Note_on_c, 0, 74, 64
2, 19248, Note_off_c, 0, 74, 64
2, 19260, Note_on_c, 0, 72, 64
2, 19308, Note_off_c, 0, 72, 64
2, 19320, Note_on_c, 0, 70, 64
2, 19368, Note_off_c, 0, 70, 64
2, 19380, Note_on_c, 0, 69, 64
2, 19428, Note_off_c, 0, 69, 64
2, 19440, Note_on_c, 0, 67, 64
2, 19632, Note_off_c, 0, 67, 64
2, 19680, Note_on_c, 0, 67, 64
2, 19788, Note_off_c, 0, 67, 64
2, 19920, Note_on_c, 0, 72, 64
2, 19968, Note_off_c, 0, 72, 64
2, 19980, Note_on_c, 0, 70, 64
2, 20028, Note_off_c, 0, 70, 64
2, 20040, Note_on_c, 0, 69, 64
2, 20088, Note_off_c, 0, 69, 64
2, 20100, Note_on_c, 0, 67, 64
2, 20148, Note_off_c, 0, 67, 64
2, 20160, Note_on_c, 0, 65, 64
2, 20544, Note_off_c, 0, 65, 64
2, 20640, Note_on_c, 0, 72, 64
2, 20748, Note_off_c, 0, 72, 64
2, 20880, Note_on_c, 0, 72, 64
2, 20880, Note_on_c, 0, 77, 64
2, 20880, Note_on_c, 0, 69, 64
2, 21264, Note_off_c, 0, 69, 64
2, 21264, Note_off_c, 0, 77, 64
2, 21264, Note_off_c, 0, 72, 64
2, 21360, Note_on_c, 0, 81, 64
2, 21468, Note_off_c, 0, 81, 64
2, 21600, Note_on_c, 0, 84, 64
2, 21792, Note_off_c, 0, 84, 64
2, 21840, Note_on_c, 0, 84, 64
2, 21948, Note_off_c, 0, 84, 64
2, 22080, Note_on_c, 0, 84, 64
2, 22188, Note_off_c, 0, 84, 64
2, 22320, Note_on_c, 0, 82, 64
2, 22416, Note_off_c, 0, 82, 64
2, 22440, Note_on_c, 0, 84, 64
2, 22494, Note_off_c, 0, 84, 64
2, 22560, Note_on_c, 0, 86, 64
2, 22656, Note_off_c, 0, 86, 64
2, 22680, Note_on_c, 0, 82, 64
2, 22734, Note_off_c, 0, 82, 64
2, 22800, Note_on_c, 0, 70, 64
2, 22800, Note_on_c, 0, 79, 64
2, 22896, Note_off_c, 0, 79, 64
2, 22908, Note_off_c, 0, 70, 64
2, 22920, Note_on_c, 0, 76, 64
2, 22974, Note_off_c, 0, 76, 64
2, 23040, Note_on_c, 0, 69, 64
2, 23040, Note_on_c, 0, 77, 64
2, 23256, Note_off_c, 0, 77, 64
2, 23256, Note_off_c, 0, 69, 64
2, 23520, Note_on_c, 0, 72, 64
2, 23628, Note_off_c, 0, 72, 64
2, 23760, Note_on_c, 0, 74, 64
2, 23760, Note_on_c, 0, 62, 64
2, 23868, Note_off_c, 0, 62, 64
2, 23868, Note_off_c, 0, 74, 64
2, 24000, Note_on_c, 0, 67, 64
2, 24000, Note_on_c, 0, 79, 64
2, 24096, Note_off_c, 0, 79, 64
2, 24096, Note_off_c, 0, 67, 64
2, 24120, Note_on_c, 0, 77, 64
2, 24120, Note_on_c, 0, 65, 64
2, 24216, Note_off_c, 0, 65, 64
2, 24216, Note_off_c, 0, 77, 64
2, 24240, Note_on_c, 0, 64, 64
2, 24240, Note_on_c, 0, 76, 64
2, 24348, Note_off_c, 0, 76, 64
2, 24348, Note_off_c, 0, 64, 64
2, 24480, Note_on_c, 0, 77, 64
2, 24480, Note_on_c, 0, 65, 64
2, 24588, Note_off_c, 0, 65, 64
2, 24588, Note_off_c, 0, 77, 64
2, 24720, Note_on_c, 0, 70, 64
2, 24720, Note_on_c, 0, 82, 64
2, 24816, Note_off_c, 0, 82, 64
2, 24816, Note_off_c, 0, 70, 64
2, 24840, Note_on_c, 0, 69, 64
2, 24840, Note_on_c, 0, 81, 64
2, 24936, Note_off_c, 0, 81, 64
2, 24936, Note_off_c, 0, 69, 64
2, 24960, Note_on_c, 0, 79, 64
2, 24960, Note_on_c, 0, 67, 64
2, 25068, Note_off_c, 0, 67, 64
2, 25068, Note_off_c, 0, 79, 64
2, 25200, Note_on_c, 0, 81, 64
2, 25200, Note_on_c, 0, 69, 64
2, 25308, Note_off_c, 0, 69, 64
2, 25308, Note_off_c, 0, 81, 64
2, 25440, Note_on_c, 0, 74, 64
2, 25536, Note_off_c, 0, 74, 64
2, 25560, Note_on_c, 0, 72, 64
2, 25560, Note_on_c, 0, 84, 64
2, 25656, Note_off_c, 0, 84, 64
2, 25656, Note_off_c, 0, 72, 64
2, 25680, Note_on_c, 0, 83, 64
2, 25680, Note_on_c, 0, 71, 64
2, 25872, Note_off_c, 0, 71, 64
2, 25872, Note_off_c, 0, 83, 64
2, 25920, Note_on_c, 0, 84, 64
2, 25920, Note_on_c, 0, 72, 64
2, 26136, Note_off_c, 0, 72, 64
2, 26136, Note_off_c, 0, 84, 64
2, 26400, Note_on_c, 0, 74, 64
2, 26448, Note_off_c, 0, 74, 64
2, 26460, Note_on_c, 0, 72, 64
2, 26508, Note_off_c, 0, 72, 64
2, 26520, Note_on_c, 0, 70, 64
2, 26568, Note_off_c, 0, 70, 64
2, 26580, Note_on_c, 0, 69, 64
2, 26628, Note_off_c, 0, 69, 64
2, 26640, Note_on_c, 0, 67, 64
2, 26832, Note_off_c, 0, 67, 64
2, 26880, Note_on_c, 0, 67, 64
2, 26988, Note_off_c, 0, 67, 64
2, 27120, Note_on_c, 0, 72, 64
2, 27168, Note_off_c, 0, 72, 64
2, 27180, Note_on_c, 0, 70, 64
2, 27228, Note_off_c, 0, 70, 64
2, 27240, Note_on_c, 0, 69, 64
2, 27288, Note_off_c, 0, 69, 64
2, 27300, Note_on_c, 0, 67, 64
2, 27348, Note_off_c, 0, 67, 64
2, 27360, Note_on_c, 0, 65, 64
2, 27552, Note_off_c, 0, 65, 64
2, 27600, Note_on_c, 0, 65, 64
2, 27708, Note_off_c, 0, 65, 64
2, 27840, Note_on_c, 0, 74, 64
2, 27888, Note_off_c, 0, 74, 64
2, 27900, Note_on_c, 0, 72, 64
2, 27948, Note_off_c, 0, 72, 64
2, 27960, Note_on_c, 0, 70, 64
2, 28008, Note_off_c, 0, 70, 64
2, 28020, Note_on_c, 0, 69, 64
2, 28068, Note_off_c, 0, 69, 64
2, 28080, Note_on_c, 0, 67, 64
2, 28272, Note_off_c, 0, 67, 64
2, 28320, Note_on_c, 0, 67, 64
2, 28428, Note_off_c, 0, 67, 64
2, 28560, Note_on_c, 0, 72, 64
2, 28608, Note_off_c, 0, 72, 64
2, 28620, Note_on_c, 0, 70, 64
2, 28668, Note_off_c, 0, 70, 64
2, 28680, Note_on_c, 0, 69, 64
2, 28728, Note_off_c, 0, 69, 64
2, 28740, Note_on_c, 0, 67, 64
2, 28788, Note_off_c, 0, 67, 64
2, 28800, Note_on_c, 0, 65, 64
2, 29184, Note_off_c, 0, 65, 64
2, 29280, Note_on_c, 0, 72, 64
2, 29388, Note_off_c, 0, 72, 64
2, 29520, Note_on_c, 0, 69, 64
2, 29520, Note_on_c, 0, 77, 64
2, 29520, Note_on_c, 0, 72, 64
2, 29904, Note_off_c, 0, 72, 64
2, 29904, Note_off_c, 0, 77, 64
2, 29904, Note_off_c, 0, 69, 64
2, 30000, Note_on_c, 0, 81, 64
2, 30108, Note_off_c, 0, 81, 64
2, 30240, Note_on_c, 0, 84, 64
2, 30432, Note_off_c, 0, 84, 64
2, 30480, Note_on_c, 0, 84, 64
2, 30588, Note_off_c, 0, 84, 64
2, 30720, Note_on_c, 0, 84, 64
2, 30828, Note_off_c, 0, 84, 64
2, 30960, Note_on_c, 0, 82, 64
2, 31056, Note_off_c, 0, 82, 64
2, 31080, Note_on_c, 0, 84, 64
2, 31134, Note_off_c, 0, 84, 64
2, 31200, Note_on_c, 0, 86, 64
2, 31296, Note_off_c, 0, 86, 64
2, 31320, Note_on_c, 0, 82, 64
2, 31374, Note_off_c, 0, 82, 64
2, 31440, Note_on_c, 0, 79, 64
2, 31440, Note_on_c, 0, 70, 64
2, 31536, Note_off_c, 0, 79, 64
2, 31548, Note_off_c, 0, 70, 64
2, 31560, Note_on_c, 0, 76, 64
2, 31614, Note_off_c, 0, 76, 64
2, 31680, Note_on_c, 0, 77, 64
2, 31680, Note_on_c, 0, 69, 64
2, 31896, Note_off_c, 0, 69, 64
2, 31896, Note_off_c, 0, 77, 64
2, 32160, Note_on_c, 0, 65, 64
2, 32160, Note_on_c, 0, 77, 64
2, 32214, Note_off_c, 0, 77, 64
2, 32214, Note_off_c, 0, 65, 64
2, 32280, Note_on_c, 0, 65, 64
2, 32280, Note_on_c, 0, 77, 64
2, 32334, Note_off_c, 0, 77, 64
2, 32334, Note_off_c, 0, 65, 64
2, 32400, Note_on_c, 0, 65, 64
2, 32400, Note_on_c, 0, 74, 64
2, 32454, Note_off_c, 0, 74, 64
2, 32454, Note_off_c, 0, 65, 64
2, 32520, Note_on_c, 0, 65, 64
2, 32520, Note_on_c, 0, 74, 64
2, 32574, Note_off_c, 0, 74, 64
2, 32574, Note_off_c, 0, 65, 64
2, 32640, Note_on_c, 0, 62, 64
2, 32640, Note_on_c, 0, 70, 64
2, 32694, Note_off_c, 0, 70, 64
2, 32694, Note_off_c, 0, 62, 64
2, 32760, Note_on_c, 0, 62, 64
2, 32760, Note_on_c, 0, 70, 64
2, 32814, Note_off_c, 0, 70, 64
2, 32814, Note_off_c, 0, 62, 64
2, 32880, Note_on_c, 0, 58, 64
2, 32880, Note_on_c, 0, 67, 64
2, 32934, Note_off_c, 0, 67, 64
2, 32934, Note_off_c, 0, 58, 64
2, 33000, Note_on_c, 0, 58, 64
2, 33000, Note_on_c, 0, 67, 64
2, 33054, Note_off_c, 0, 67, 64
2, 33054, Note_off_c, 0, 58, 64
2, 33120, Note_on_c, 0, 55, 64
2, 33120, Note_on_c, 0, 64, 64
2, 33174, Note_off_c, 0, 64, 64
2, 33174, Note_off_c, 0, 55, 64
2, 33240, Note_on_c, 0, 55, 64
2, 33240, Note_on_c, 0, 64, 64
2, 33294, Note_off_c, 0, 64, 64
2, 33294, Note_off_c, 0, 55, 64
2, 33360, Note_on_c, 0, 72, 64
2, 33360, Note_on_c, 0, 64, 64
2, 33414, Note_off_c, 0, 64, 64
2, 33414, Note_off_c, 0, 72, 64
2, 33480, Note_on_c, 0, 64, 64
2, 33480, Note_on_c, 0, 72, 64
2, 33534, Note_off_c, 0, 72, 64
2, 33534, Note_off_c, 0, 64, 64
2, 33600, Note_on_c, 0, 67, 64
2, 33600, Note_on_c, 0, 70, 64
2, 33654, Note_off_c, 0, 70, 64
2, 33654, Note_off_c, 0, 67, 64
2, 33720, Note_on_c, 0, 67, 64
2, 33720, Note_on_c, 0, 70, 64
2, 33774, Note_off_c, 0, 70, 64
2, 33774, Note_off_c, 0, 67, 64
2, 33840, Note_on_c, 0, 68, 64
2, 33840, Note_on_c, 0, 64, 64
2, 33888, Note_off_c, 0, 64, 64
2, 33888, Note_off_c, 0, 68, 64
2, 33900, Note_on_c, 0, 69, 64
2, 33900, Note_on_c, 0, 65, 64
2, 34044, Note_off_c, 0, 65, 64
2, 34044, Note_off_c, 0, 69, 64
2, 34080, Note_on_c, 0, 69, 64
2, 34080, Note_on_c, 0, 65, 64
2, 34176, Note_off_c, 0, 65, 64
2, 34176, Note_off_c, 0, 69, 64
2, 34200, Note_on_c, 0, 65, 64
2, 34200, Note_on_c, 0, 69, 64
2, 34296, Note_off_c, 0, 69, 64
2, 34296, Note_off_c, 0, 65, 64
2, 34320, Note_on_c, 0, 65, 64
2, 34320, Note_on_c, 0, 69, 64
2, 34416, Note_off_c, 0, 69, 64
2, 34416, Note_off_c, 0, 65, 64
2, 34440, Note_on_c, 0, 65, 64
2, 34440, Note_on_c, 0, 69, 64
2, 34536, Note_off_c, 0, 69, 64
2, 34536, Note_off_c, 0, 65, 64
2, 34560, Note_on_c, 0, 69, 64
2, 34560, Note_on_c, 0, 65, 64
2, 34944, Note_off_c, 0, 65, 64
2, 34944, Note_off_c, 0, 69, 64
2, 35040, Note_on_c, 0, 72, 64
2, 35040, Note_on_c, 0, 77, 64
2, 35094, Note_off_c, 0, 77, 64
2, 35094, Note_off_c, 0, 72, 64
2, 35160, Note_on_c, 0, 72, 64
2, 35160, Note_on_c, 0, 77, 64
2, 35214, Note_off_c, 0, 77, 64
2, 35214, Note_off_c, 0, 72, 64
2, 35280, Note_on_c, 0, 74, 64
2, 35280, Note_on_c, 0, 65, 64
2, 35334, Note_off_c, 0, 65, 64
2, 35334, Note_off_c, 0, 74, 64
2, 35400, Note_on_c, 0, 74, 64
2, 35400, Note_on_c, 0, 65, 64
2, 35454, Note_off_c, 0, 65, 64
2, 35454, Note_off_c, 0, 74, 64
2, 35520, Note_on_c, 0, 62, 64
2, 35520, Note_on_c, 0, 70, 64
2, 35574, Note_off_c, 0, 70, 64
2, 35574, Note_off_c, 0, 62, 64
2, 35640, Note_on_c, 0, 70, 64
2, 35640, Note_on_c, 0, 62, 64
2, 35694, Note_off_c, 0, 62, 64
2, 35694, Note_off_c, 0, 70, 64
2, 35760, Note_on_c, 0, 58, 64
2, 35760, Note_on_c, 0, 67, 64
2, 35814, Note_off_c, 0, 67, 64
2, 35814, Note_off_c, 0, 58, 64
2, 35880, Note_on_c, 0, 67, 64
2, 35880, Note_on_c, 0, 58, 64
2, 35934, Note_off_c, 0, 58, 64
2, 35934, Note_off_c, 0, 67, 64
2, 36000, Note_on_c, 0, 55, 64
2, 36000, Note_on_c, 0, 64, 64
2, 36054, Note_off_c, 0, 64, 64
2, 36054, Note_off_c, 0, 55, 64
2, 36120, Note_on_c, 0, 55, 64
2, 36120, Note_on_c, 0, 64, 64
2, 36174, Note_off_c, 0, 64, 64
2, 36174, Note_off_c, 0, 55, 64
2, 36240, Note_on_c, 0, 72, 64
2, 36240, Note_on_c, 0, 67, 64
2, 36294, Note_off_c, 0, 67, 64
2, 36294, Note_off_c, 0, 72, 64
2, 36360, Note_on_c, 0, 72, 64
2, 36360, Note_on_c, 0, 67, 64
2, 36414, Note_off_c, 0, 67, 64
2, 36414, Note_off_c, 0, 72, 64
2, 36480, Note_on_c, 0, 70, 64
2, 36480, Note_on_c, 0, 64, 64
2, 36534, Note_off_c, 0, 64, 64
2, 36534, Note_off_c, 0, 70, 64
2, 36600, Note_on_c, 0, 70, 64
2, 36600, Note_on_c, 0, 64, 64
2, 36654, Note_off_c, 0, 64, 64
2, 36654, Note_off_c, 0, 70, 64
2, 36720, Note_on_c, 0, 69, 64
2, 36720, Note_on_c, 0, 65, 64
2, 36912, Note_off_c, 0, 65, 64
2, 36912, Note_off_c, 0, 69, 64
2, 36960, Note_on_c, 0, 69, 64
2, 36960, Note_on_c, 0, 72, 64
2, 37056, Note_off_c, 0, 72, 64
2, 37056, Note_off_c, 0, 69, 64
2, 37080, Note_on_c, 0, 70, 64
2, 37080, Note_on_c, 0, 67, 64
2, 37134, Note_off_c, 0, 67, 64
2, 37134, Note_off_c, 0, 70, 64
2, 37200, Note_on_c, 0, 65, 64
2, 37200, Note_on_c, 0, 69, 64
2, 37296, Note_off_c, 0, 69, 64
2, 37296, Note_off_c, 0, 65, 64
2, 37320, Note_on_c, 0, 67, 64
2, 37320, Note_on_c, 0, 64, 64
2, 37374, Note_off_c, 0, 64, 64
2, 37374, Note_off_c, 0, 67, 64
2, 37440, Note_on_c, 0, 65, 64
2, 37824, Note_off_c, 0, 65, 64
2, 37920, Note_on_c, 0, 65, 64
2, 37920, Note_on_c, 0, 77, 64
2, 37974, Note_off_c, 0, 77, 64
2, 37974, Note_off_c, 0, 65, 64
2, 38040, Note_on_c, 0, 65, 64
2, 38040, Note_on_c, 0, 77, 64
2, 38094, Note_off_c, 0, 77, 64
2, 38094, Note_off_c, 0, 65, 64
2, 38160, Note_on_c, 0, 74, 64
2, 38160, Note_on_c, 0, 65, 64
2, 38214, Note_off_c, 0, 65, 64
2, 38214, Note_off_c, 0, 74, 64
2, 38280, Note_on_c, 0, 74, 64
2, 38280, Note_on_c, 0, 65, 64
2, 38334, Note_off_c, 0, 65, 64
2, 38334, Note_off_c, 0, 74, 64
2, 38400, Note_on_c, 0, 70, 64
2, 38400, Note_on_c, 0, 62, 64
2, 38454, Note_off_c, 0, 62, 64
2, 38454, Note_off_c, 0, 70, 64
2, 38520, Note_on_c, 0, 70, 64
2, 38520, Note_on_c, 0, 62, 64
2, 38574, Note_off_c, 0, 62, 64
2, 38574, Note_off_c, 0, 70, 64
2, 38640, Note_on_c, 0, 67, 64
2, 38640, Note_on_c, 0, 58, 64
2, 38694, Note_off_c, 0, 58, 64
2, 38694, Note_off_c, 0, 67, 64
2, 38760, Note_on_c, 0, 67, 64
2, 38760, Note_on_c, 0, 58, 64
2, 38814, Note_off_c, 0, 58, 64
2, 38814, Note_off_c, 0, 67, 64
2, 38880, Note_on_c, 0, 64, 64
2, 38880, Note_on_c, 0, 55, 64
2, 38934, Note_off_c, 0, 55, 64
2, 38934, Note_off_c, 0, 64, 64
2, 39000, Note_on_c, 0, 64, 64
2, 39000, Note_on_c, 0, 55, 64
2, 39054, Note_off_c, 0, 55, 64
2, 39054, Note_off_c, 0, 64, 64
2, 39120, Note_on_c, 0, 64, 64
2, 39120, Note_on_c, 0, 72, 64
2, 39174, Note_off_c, 0, 72, 64
2, 39174, Note_off_c, 0, 64, 64
2, 39240, Note_on_c, 0, 72, 64
2, 39240, Note_on_c, 0, 64, 64
2, 39294, Note_off_c, 0, 64, 64
2, 39294, Note_off_c, 0, 72, 64
2, 39360, Note_on_c, 0, 70, 64
2, 39360, Note_on_c, 0, 67, 64
2, 39414, Note_off_c, 0, 67, 64
2, 39414, Note_off_c, 0, 70, 64
2, 39480, Note_on_c, 0, 70, 64
2, 39480, Note_on_c, 0, 67, 64
2, 39534, Note_off_c, 0, 67, 64
2, 39534, Note_off_c, 0, 70, 64
2, 39600, Note_on_c, 0, 64, 64
2, 39600, Note_on_c, 0, 68, 64
2, 39648, Note_off_c, 0, 68, 64
2, 39648, Note_off_c, 0, 64, 64
2, 39660, Note_on_c, 0, 65, 64
2, 39660, Note_on_c, 0, 69, 64
2, 39804, Note_off_c, 0, 69, 64
2, 39804, Note_off_c, 0, 65, 64
2, 39840, Note_on_c, 0, 65, 64
2, 39840, Note_on_c, 0, 69, 64
2, 39936, Note_off_c, 0, 69, 64
2, 39936, Note_off_c, 0, 65, 64
2, 39960, Note_on_c, 0, 69, 64
2, 39960, Note_on_c, 0, 65, 64
2, 40056, Note_off_c, 0, 65, 64
2, 40056, Note_off_c, 0, 69, 64
2, 40080, Note_on_c, 0, 69, 64
2, 40080, Note_on_c, 0, 65, 64
2, 40176, Note_off_c, 0, 65, 64
2, 40176, Note_off_c, 0, 69, 64
2, 40200, Note_on_c, 0, 69, 64
2, 40200, Note_on_c, 0, 65, 64
2, 40296, Note_off_c, 0, 65, 64
2, 40296, Note_off_c, 0, 69, 64
2, 40320, Note_on_c, 0, 65, 64
2, 40320, Note_on_c, 0, 69, 64
2, 40704, Note_off_c, 0, 69, 64
2, 40704, Note_off_c, 0, 65, 64
2, 40800, Note_on_c, 0, 77, 64
2, 40800, Note_on_c, 0, 72, 64
2, 40854, Note_off_c, 0, 72, 64
2, 40854, Note_off_c, 0, 77, 64
2, 40920, Note_on_c, 0, 77, 64
2, 40920, Note_on_c, 0, 72, 64
2, 40974, Note_off_c, 0, 72, 64
2, 40974, Note_off_c, 0, 77, 64
2, 41040, Note_on_c, 0, 65, 64
2, 41040, Note_on_c, 0, 74, 64
2, 41094, Note_off_c, 0, 74, 64
2, 41094, Note_off_c, 0, 65, 64
2, 41160, Note_on_c, 0, 65, 64
2, 41160, Note_on_c, 0, 74, 64
2, 41214, Note_off_c, 0, 74, 64
2, 41214, Note_off_c, 0, 65, 64
2, 41280, Note_on_c, 0, 70, 64
2, 41280, Note_on_c, 0, 62, 64
2, 41334, Note_off_c, 0, 62, 64
2, 41334, Note_off_c, 0, 70, 64
2, 41400, Note_on_c, 0, 62, 64
2, 41400, Note_on_c, 0, 70, 64
2, 41454, Note_off_c, 0, 70, 64
2, 41454, Note_off_c, 0, 62, 64
2, 41520, Note_on_c, 0, 67, 64
2, 41520, Note_on_c, 0, 58, 64
2, 41574, Note_off_c, 0, 58, 64
2, 41574, Note_off_c, 0, 67, 64
2, 41640, Note_on_c, 0, 58, 64
2, 41640, Note_on_c, 0, 67, 64
2, 41694, Note_off_c, 0, 67, 64
2, 41694, Note_off_c, 0, 58, 64
2, 41760, Note_on_c, 0, 64, 64
2, 41760, Note_on_c, 0, 55, 64
2, 41814, Note_off_c, 0, 55, 64
2, 41814, Note_off_c, 0, 64, 64
2, 41880, Note_on_c, 0, 64, 64
2, 41880, Note_on_c, 0, 55, 64
2, 41934, Note_off_c, 0, 55, 64
2, 41934, Note_off_c, 0, 64, 64
2, 42000, Note_on_c, 0, 67, 64
2, 42000, Note_on_c, 0, 72, 64
2, 42054, Note_off_c, 0, 72, 64
2, 42054, Note_off_c, 0, 67, 64
2, 42120, Note_on_c, 0, 67, 64
2, 42120, Note_on_c, 0, 72, 64
2, 42174, Note_off_c, 0, 72, 64
2, 42174, Note_off_c, 0, 67, 64
2, 42240, Note_on_c, 0, 64, 64
2, 42240, Note_on_c, 0, 70, 64
2, 42294, Note_off_c, 0, 70, 64
2, 42294, Note_off_c, 0, 64, 64
2, 42360, Note_on_c, 0, 64, 64
2, 42360, Note_on_c, 0, 70, 64
2, 42414, Note_off_c, 0, 70, 64
2, 42414, Note_off_c, 0, 64, 64
2, 42480, Note_on_c, 0, 69, 64
2, 42480, Note_on_c, 0, 65, 64
2, 42672, Note_off_c, 0, 65, 64
2, 42672, Note_off_c, 0, 69, 64
2, 42720, Note_on_c, 0, 69, 64
2, 42720, Note_on_c, 0, 72, 64
2, 42816, Note_off_c, 0, 72, 64
2, 42816, Note_off_c, 0, 69, 64
2, 42840, Note_on_c, 0, 70, 64
2, 42840, Note_on_c, 0, 67, 64
2, 42894, Note_off_c, 0, 67, 64
2, 42894, Note_off_c, 0, 70, 64
2, 42960, Note_on_c, 0, 65, 64
2, 42960, Note_on_c, 0, 69, 64
2, 43056, Note_off_c, 0, 69, 64
2, 43056, Note_off_c, 0, 65, 64
2, 43080, Note_on_c, 0, 67, 64
2, 43080, Note_on_c, 0, 64, 64
2, 43134, Note_off_c, 0, 64, 64
2, 43134, Note_off_c, 0, 67, 64
2, 43200, Note_on_c, 0, 65, 64
2, 43584, Note_off_c, 0, 65, 64
2, 43680, Note_on_c, 0, 60, 64
2, 43872, Note_off_c, 0, 60, 64
2, 43920, Note_on_c, 0, 67, 64
2, 43944, Note_off_c, 0, 67, 64
2, 43950, Note_on_c, 0, 65, 64
2, 43974, Note_off_c, 0, 65, 64
2, 43980, Note_on_c, 0, 67, 64
2, 44004, Note_off_c, 0, 67, 64
2, 44010, Note_on_c, 0, 65, 64
2, 44034, Note_off_c, 0, 65, 64
2, 44040, Note_on_c, 0, 67, 64
2, 44064, Note_off_c, 0, 67, 64
2, 44070, Note_on_c, 0, 65, 64
2, 44094, Note_off_c, 0, 65, 64
2, 44100, Note_on_c, 0, 67, 64
2, 44124, Note_off_c, 0, 67, 64
2, 44130, Note_on_c, 0, 65, 64
2, 44154, Note_off_c, 0, 65, 64
2, 44160, Note_on_c, 0, 67, 64
2, 44208, Note_off_c, 0, 67, 64
2, 44220, Note_on_c, 0, 65, 64
2, 44268, Note_off_c, 0, 65, 64
2, 44280, Note_on_c, 0, 64, 64
2, 44376, Note_off_c, 0, 64, 64
2, 44400, Note_on_c, 0, 65, 64
2, 44508, Note_off_c, 0, 65, 64
2, 44640, Note_on_c, 0, 69, 64
2, 44664, Note_off_c, 0, 69, 64
2, 44670, Note_on_c, 0, 67, 64
2, 44694, Note_off_c, 0, 67, 64
2, 44700, Note_on_c, 0, 69, 64
2, 44724, Note_off_c, 0, 69, 64
2, 44730, Note_on_c, 0, 67, 64
2, 44754, Note_off_c, 0, 67, 64
2, 44760, Note_on_c, 0, 69, 64
2, 44784, Note_off_c, 0, 69, 64
2, 44790, Note_on_c, 0, 67, 64
2, 44814, Note_off_c, 0, 67, 64
2, 44820, Note_on_c, 0, 69, 64
2, 44844, Note_off_c, 0, 69, 64
2, 44850, Note_on_c, 0, 67, 64
2, 44874, Note_off_c, 0, 67, 64
2, 44880, Note_on_c, 0, 69, 64
2, 44928, Note_off_c, 0, 69, 64
2, 44940, Note_on_c, 0, 67, 64
2, 44988, Note_off_c, 0, 67, 64
2, 45000, Note_on_c, 0, 65, 64
2, 45096, Note_off_c, 0, 65, 64
2, 45120, Note_on_c, 0, 67, 64
2, 45228, Note_off_c, 0, 67, 64
2, 45360, Note_on_c, 0, 70, 64
2, 45384, Note_off_c, 0, 70, 64
2, 45390, Note_on_c, 0, 68, 64
2, 45414, Note_off_c, 0, 68, 64
2, 45420, Note_on_c, 0, 70, 64
2, 45444, Note_off_c, 0, 70, 64
2, 45450, Note_on_c, 0, 68, 64
2, 45474, Note_off_c, 0, 68, 64
2, 45480, Note_on_c, 0, 70, 64
2, 45504, Note_off_c, 0, 70, 64
2, 45510, Note_on_c, 0, 68, 64
2, 45534, Note_off_c, 0, 68, 64
2, 45540, Note_on_c, 0, 70, 64
2, 45564, Note_off_c, 0, 70, 64
2, 45570, Note_on_c, 0, 68, 64
2, 45594, Note_off_c, 0, 68, 64
2, 45600, Note_on_c, 0, 70, 64
2, 45648, Note_off_c, 0, 70, 64
2, 45660, Note_on_c, 0, 68, 64
2, 45708, Note_off_c, 0, 68, 64
2, 45720, Note_on_c, 0, 67, 64
2, 45816, Note_off_c, 0, 67, 64
2, 45840, Note_on_c, 0, 65, 64
2, 45948, Note_off_c, 0, 65, 64
2, 46080, Note_on_c, 0, 64, 64
2, 46464, Note_off_c, 0, 64, 64
2, 46560, Note_on_c, 0, 72, 64
2, 46560, Note_on_c, 0, 77, 64
2, 46614, Note_off_c, 0, 77, 64
2, 46614, Note_off_c, 0, 72, 64
2, 46680, Note_on_c, 0, 72, 64
2, 46680, Note_on_c, 0, 77, 64
2, 46734, Note_off_c, 0, 77, 64
2, 46734, Note_off_c, 0, 72, 64
2, 46800, Note_on_c, 0, 65, 64
2, 46800, Note_on_c, 0, 74, 64
2, 46854, Note_off_c, 0, 74, 64
2, 46854, Note_off_c, 0, 65, 64
2, 46920, Note_on_c, 0, 74, 64
2, 46920, Note_on_c, 0, 65, 64
2, 46974, Note_off_c, 0, 65, 64
2, 46974, Note_off_c, 0, 74, 64
2, 47040, Note_on_c, 0, 70, 64
2, 47040, Note_on_c, 0, 62, 64
2, 47094, Note_off_c, 0, 62, 64
2, 47094, Note_off_c, 0, 70, 64
2, 47160, Note_on_c, 0, 70, 64
2, 47160, Note_on_c, 0, 62, 64
2, 47214, Note_off_c, 0, 62, 64
2, 47214, Note_off_c, 0, 70, 64
2, 47280, Note_on_c, 0, 58, 64
2, 47280, Note_on_c, 0, 67, 64
2, 47334, Note_off_c, 0, 67, 64
2, 47334, Note_off_c, 0, 58, 64
2, 47400, Note_on_c, 0, 58, 64
2, 47400, Note_on_c, 0, 67, 64
2, 47454, Note_off_c, 0, 67, 64
2, 47454, Note_off_c, 0, 58, 64
2, 47520, Note_on_c, 0, 55, 64
2, 47520, Note_on_c, 0, 64, 64
2, 47574, Note_off_c, 0, 64, 64
2, 47574, Note_off_c, 0, 55, 64
2, 47640, Note_on_c, 0, 55, 64
2, 47640, Note_on_c, 0, 64, 64
2, 47694, Note_off_c, 0, 64, 64
2, 47694, Note_off_c, 0, 55, 64
2, 47760, Note_on_c, 0, 67, 64
2, 47760, Note_on_c, 0, 72, 64
2, 47814, Note_off_c, 0, 72, 64
2, 47814, Note_off_c, 0, 67, 64
2, 47880, Note_on_c, 0, 72, 64
2, 47880, Note_on_c, 0, 67, 64
2, 47934, Note_off_c, 0, 67, 64
2, 47934, Note_off_c, 0, 72, 64
2, 48000, Note_on_c, 0, 70, 64
2, 48000, Note_on_c, 0, 64, 64
2, 48054, Note_off_c, 0, 64, 64
2, 48054, Note_off_c, 0, 70, 64
2, 48120, Note_on_c, 0, 70, 64
2, 48120, Note_on_c, 0, 64, 64
2, 48174, Note_off_c, 0, 64, 64
2, 48174, Note_off_c, 0, 70, 64
2, 48240, Note_on_c, 0, 65, 64
2, 48240, Note_on_c, 0, 69, 64
2, 48432, Note_off_c, 0, 69, 64
2, 48432, Note_off_c, 0, 65, 64
2, 48480, Note_on_c, 0, 72, 64
2, 48480, Note_on_c, 0, 69, 64
2, 48576, Note_off_c, 0, 69, 64
2, 48576, Note_off_c, 0, 72, 64
2, 48600, Note_on_c, 0, 67, 64
2, 48600, Note_on_c, 0, 70, 64
2, 48654, Note_off_c, 0, 70, 64
2, 48654, Note_off_c, 0, 67, 64
2, 48720, Note_on_c, 0, 69, 64
2, 48720, Note_on_c, 0, 65, 64
2, 48816, Note_off_c, 0, 65, 64
2, 48816, Note_off_c, 0, 69, 64
2, 48840, Note_on_c, 0, 64, 64
2, 48840, Note_on_c, 0, 67, 64
2, 48894, Note_off_c, 0, 67, 64
2, 48894, Note_off_c, 0, 64, 64
2, 48960, Note_on_c, 0, 65, 64
2, 49344, Note_off_c, 0, 65, 64
2, 49440, Note_on_c, 0, 60, 64
2, 49548, Note_off_c, 0, 60, 64
2, 49680, Note_on_c, 0, 67, 64
2, 49704, Note_off_c, 0, 67, 64
2, 49710, Note_on_c, 0, 65, 64
2, 49734, Note_off_c, 0, 65, 64
2, 49740, Note_on_c, 0, 67, 64
2, 49764, Note_off_c, 0, 67, 64
2, 49770, Note_on_c, 0, 65, 64
2, 49794, Note_off_c, 0, 65, 64
2, 49800, Note_on_c, 0, 67, 64
2, 49824, Note_off_c, 0, 67, 64
2, 49830, Note_on_c, 0, 65, 64
2, 49854, Note_off_c, 0, 65, 64
2, 49860, Note_on_c, 0, 67, 64
2, 49884, Note_off_c, 0, 67, 64
2, 49890, Note_on_c, 0, 65, 64
2, 49914, Note_off_c, 0, 65, 64
2, 49920, Note_on_c, 0, 67, 64
2, 49968, Note_off_c, 0, 67, 64
2, 49980, Note_on_c, 0, 65, 64
2, 50028, Note_off_c, 0, 65, 64
2, 50040, Note_on_c, 0, 64, 64
2, 50136, Note_off_c, 0, 64, 64
2, 50160, Note_on_c, 0, 65, 64
2, 50268, Note_off_c, 0, 65, 64
2, 50400, Note_on_c, 0, 69, 64
2, 50424, Note_off_c, 0, 69, 64
2, 50430, Note_on_c, 0, 67, 64
2, 50454, Note_off_c, 0, 67, 64
2, 50460, Note_on_c, 0, 69, 64
2, 50484, Note_off_c, 0, 69, 64
2, 50490, Note_on_c, 0, 67, 64
2, 50514, Note_off_c, 0, 67, 64
2, 50520, Note_on_c, 0, 69, 64
2, 50544, Note_off_c, 0, 69, 64
2, 50550, Note_on_c, 0, 67, 64
2, 50574, Note_off_c, 0, 67, 64
2, 50580, Note_on_c, 0, 69, 64
2, 50604, Note_off_c, 0, 69, 64
2, 50610, Note_on_c, 0, 67, 64
2, 50634, Note_off_c, 0, 67, 64
2, 50640, Note_on_c, 0, 69, 64
2, 50688, Note_off_c, 0, 69, 64
2, 50700, Note_on_c, 0, 67, 64
2, 50748, Note_off_c, 0, 67, 64
2, 50760, Note_on_c, 0, 65, 64
2, 50856, Note_off_c, 0, 65, 64
2, 50880, Note_on_c, 0, 67, 64
2, 50988, Note_off_c, 0, 67, 64
2, 51120, Note_on_c, 0, 70, 64
2, 51144, Note_off_c, 0, 70, 64
2, 51150, Note_on_c, 0, 68, 64
2, 51174, Note_off_c, 0, 68, 64
2, 51180, Note_on_c, 0, 70, 64
2, 51204, Note_off_c, 0, 70, 64
2, 51210, Note_on_c, 0, 68, 64
2, 51234, Note_off_c, 0, 68, 64
2, 51240, Note_on_c, 0, 70, 64
2, 51264, Note_off_c, 0, 70, 64
2, 51270, Note_on_c, 0, 68, 64
2, 51294, Note_off_c, 0, 68, 64
2, 51300, Note_on_c, 0, 70, 64
2, 51324, Note_off_c, 0, 70, 64
2, 51330, Note_on_c, 0, 68, 64
2, 51354, Note_off_c, 0, 68, 64
2, 51360, Note_on_c, 0, 70, 64
2, 51408, Note_off_c, 0, 70, 64
2, 51420, Note_on_c, 0, 68, 64
2, 51468, Note_off_c, 0, 68, 64
2, 51480, Note_on_c, 0, 67, 64
2, 51576, Note_off_c, 0, 67, 64
2, 51600, Note_on_c, 0, 65, 64
2, 51708, Note_off_c, 0, 65, 64
2, 51840, Note_on_c, 0, 64, 64
2, 52224, Note_off_c, 0, 64, 64
2, 52320, Note_on_c, 0, 77, 64
2, 52320, Note_on_c, 0, 72, 64
2, 52374, Note_off_c, 0, 72, 64
2, 52374, Note_off_c, 0, 77, 64
2, 52440, Note_on_c, 0, 77, 64
2, 52440, Note_on_c, 0, 72, 64
2, 52494, Note_off_c, 0, 72, 64
2, 52494, Note_off_c, 0, 77, 64
2, 52560, Note_on_c, 0, 74, 64
2, 52560, Note_on_c, 0, 65, 64
2, 52614, Note_off_c, 0, 65, 64
2, 52614, Note_off_c, 0, 74, 64
2, 52680, Note_on_c, 0, 65, 64
2, 52680, Note_on_c, 0, 74, 64
2, 52734, Note_off_c, 0, 74, 64
2, 52734, Note_off_c, 0, 65, 64
2, 52800, Note_on_c, 0, 62, 64
2, 52800, Note_on_c, 0, 70, 64
2, 52854, Note_off_c, 0, 70, 64
2, 52854, Note_off_c, 0, 62, 64
2, 52920, Note_on_c, 0, 62, 64
2, 52920, Note_on_c, 0, 70, 64
2, 52974, Note_off_c, 0, 70, 64
2, 52974, Note_off_c, 0, 62, 64
2, 53040, Note_on_c, 0, 67, 64
2, 53040, Note_on_c, 0, 58, 64
2, 53094, Note_off_c, 0, 58, 64
2, 53094, Note_off_c, 0, 67, 64
2, 53160, Note_on_c, 0, 67, 64
2, 53160, Note_on_c, 0, 58, 64
2, 53214, Note_off_c, 0, 58, 64
2, 53214, Note_off_c, 0, 67, 64
2, 53280, Note_on_c, 0, 64, 64
2, 53280, Note_on_c, 0, 55, 64
2, 53334, Note_off_c, 0, 55, 64
2, 53334, Note_off_c, 0, 64, 64
2, 53400, Note_on_c, 0, 64, 64
2, 53400, Note_on_c, 0, 55, 64
2, 53454, Note_off_c, 0, 55, 64
2, 53454, Note_off_c, 0, 64, 64
2, 53520, Note_on_c, 0, 72, 64
2, 53520, Note_on_c, 0, 67, 64
2, 53574, Note_off_c, 0, 67, 64
2, 53574, Note_off_c, 0, 72, 64
2, 53640, Note_on_c, 0, 67, 64
2, 53640, Note_on_c, 0, 72, 64
2, 53694, Note_off_c, 0, 72, 64
2, 53694, Note_off_c, 0, 67, 64
2, 53760, Note_on_c, 0, 64, 64
2, 53760, Note_on_c, 0, 70, 64
2, 53814, Note_off_c, 0, 70, 64
2, 53814, Note_off_c, 0, 64, 64
2, 53880, Note_on_c, 0, 64, 64
2, 53880, Note_on_c, 0, 70, 64
2, 53934, Note_off_c, 0, 70, 64
2, 53934, Note_off_c, 0, 64, 64
2, 54000, Note_on_c, 0, 69, 64
2, 54000, Note_on_c, 0, 65, 64
2, 54192, Note_off_c, 0, 65, 64
2, 54192, Note_off_c, 0, 69, 64
2, 54240, Note_on_c, 0, 69, 64
2, 54240, Note_on_c, 0, 72, 64
2, 54336, Note_off_c, 0, 72, 64
2, 54336, Note_off_c, 0, 69, 64
2, 54360, Note_on_c, 0, 70, 64
2, 54360, Note_on_c, 0, 67, 64
2, 54414, Note_off_c, 0, 67, 64
2, 54414, Note_off_c, 0, 70, 64
2, 54480, Note_on_c, 0, 65, 64
2, 54480, Note_on_c, 0, 69, 64
2, 54576, Note_off_c, 0, 69, 64
2, 54576, Note_off_c, 0, 65, 64
2, 54600, Note_on_c, 0, 67, 64
2, 54600, Note_on_c, 0, 64, 64
2, 54654, Note_off_c, 0, 64, 64
2, 54654, Note_off_c, 0, 67, 64
2, 54720, Note_on_c, 0, 65, 64
2, 55104, Note_off_c, 0, 65, 64
2, 55200, Note_on_c, 0, 72, 64
2, 55308, Note_off_c, 0, 72, 64
2, 55440, Note_on_c, 0, 72, 64
2, 55440, Note_on_c, 0, 77, 64
2, 55440, Note_on_c, 0, 69, 64
2, 55824, Note_off_c, 0, 69, 64
2, 55824, Note_off_c, 0, 77, 64
2, 55824, Note_off_c, 0, 72, 64
2, 55920, Note_on_c, 0, 81, 64
2, 56028, Note_off_c, 0, 81, 64
2, 56160, Note_on_c, 0, 84, 64
2, 56352, Note_off_c, 0, 84, 64
2, 56400, Note_on_c, 0, 84, 64
2, 56508, Note_off_c, 0, 84, 64
2, 56640, Note_on_c, 0, 84, 64
2, 56748, Note_off_c, 0, 84, 64
2, 56880, Note_on_c, 0, 79, 64
2, 57264, Note_off_c, 0, 79, 64
2, 57360, Note_on_c, 0, 82, 64
2, 57468, Note_off_c, 0, 82, 64
2, 57600, Note_on_c, 0, 81, 64
2, 57792, Note_off_c, 0, 81, 64
2, 58080, Note_on_c, 0, 72, 64
2, 58188, Note_off_c, 0, 72, 64
2, 58320, Note_on_c, 0, 67, 64
2, 58704, Note_off_c, 0, 67, 64
2, 58800, Note_on_c, 0, 70, 64
2, 58908, Note_off_c, 0, 70, 64
2, 59040, Note_on_c, 0, 69, 64
2, 59232, Note_off_c, 0, 69, 64
2, 59520, Note_on_c, 0, 81, 64
2, 59568, Note_off_c, 0, 81, 64
2, 59580, Note_on_c, 0, 79, 64
2, 59628, Note_off_c, 0, 79, 64
2, 59640, Note_on_c, 0, 77, 64
2, 59688, Note_off_c, 0, 77, 64
2, 59700, Note_on_c, 0, 76, 64
2, 59748, Note_off_c, 0, 76, 64
2, 59760, Note_on_c, 0, 74, 64
2, 59952, Note_off_c, 0, 74, 64
2, 60000, Note_on_c, 0, 74, 64
2, 60108, Note_off_c, 0, 74, 64
2, 60240, Note_on_c, 0, 79, 64
2, 60288, Note_off_c, 0, 79, 64
2, 60300, Note_on_c, 0, 77, 64
2, 60348, Note_off_c, 0, 77, 64
2, 60360, Note_on_c, 0, 76, 64
2, 60408, Note_off_c, 0, 76, 64
2, 60420, Note_on_c, 0, 74, 64
2, 60468, Note_off_c, 0, 74, 64
2, 60480, Note_on_c, 0, 72, 64
2, 60672, Note_off_c, 0, 72, 64
2, 60720, Note_on_c, 0, 72, 64
2, 60828, Note_off_c, 0, 72, 64
2, 60960, Note_on_c, 0, 69, 64
2, 61008, Note_off_c, 0, 69, 64
2, 61020, Note_on_c, 0, 67, 64
2, 61068, Note_off_c, 0, 67, 64
2, 61080, Note_on_c, 0, 65, 64
2, 61128, Note_off_c, 0, 65, 64
2, 61140, Note_on_c, 0, 64, 64
2, 61188, Note_off_c, 0, 64, 64
2, 61200, Note_on_c, 0, 59, 64
2, 61200, Note_on_c, 0, 62, 64
2, 61392, Note_off_c, 0, 62, 64
2, 61392, Note_off_c, 0, 59, 64
2, 61440, Note_on_c, 0, 62, 64
2, 61440, Note_on_c, 0, 59, 64
2, 61548, Note_off_c, 0, 59, 64
2, 61548, Note_off_c, 0, 62, 64
2, 61680, Note_on_c, 0, 67, 64
2, 61728, Note_off_c, 0, 67, 64
2, 61740, Note_on_c, 0, 65, 64
2, 61788, Note_off_c, 0, 65, 64
2, 61800, Note_on_c, 0, 64, 64
2, 61848, Note_off_c, 0, 64, 64
2, 61860, Note_on_c, 0, 62, 64
2, 61908, Note_off_c, 0, 62, 64
2, 61920, Note_on_c, 0, 60, 64
2, 62136, Note_off_c, 0, 60, 64
2, 62400, Note_on_c, 0, 72, 64
2, 62508, Note_off_c, 0, 72, 64
2, 62640, Note_on_c, 0, 74, 64
2, 62640, Note_on_c, 0, 62, 64
2, 62748, Note_off_c, 0, 62, 64
2, 62748, Note_off_c, 0, 74, 64
2, 62880, Note_on_c, 0, 67, 64
2, 62880, Note_on_c, 0, 79, 64
2, 62976, Note_off_c, 0, 79, 64
2, 62976, Note_off_c, 0, 67, 64
2, 63000, Note_on_c, 0, 77, 64
2, 63000, Note_on_c, 0, 65, 64
2, 63096, Note_off_c, 0, 65, 64
2, 63096, Note_off_c, 0, 77, 64
2, 63120, Note_on_c, 0, 64, 64
2, 63120, Note_on_c, 0, 76, 64
2, 63228, Note_off_c, 0, 76, 64
2, 63228, Note_off_c, 0, 64, 64
2, 63360, Note_on_c, 0, 77, 64
2, 63360, Note_on_c, 0, 65, 64
2, 63468, Note_off_c, 0, 65, 64
2, 63468, Note_off_c, 0, 77, 64
2, 63600, Note_on_c, 0, 70, 64
2, 63600, Note_on_c, 0, 82, 64
2, 63696, Note_off_c, 0, 82, 64
2, 63696, Note_off_c, 0, 70, 64
2, 63720, Note_on_c, 0, 69, 64
2, 63720, Note_on_c, 0, 81, 64
2, 63816, Note_off_c, 0, 81, 64
2, 63816, Note_off_c, 0, 69, 64
2, 63840, Note_on_c, 0, 79, 64
2, 63840, Note_on_c, 0, 67, 64
2, 63948, Note_off_c, 0, 67, 64
2, 63948, Note_off_c, 0, 79, 64
2, 64080, Note_on_c, 0, 81, 64
2, 64080, Note_on_c, 0, 69, 64
2, 64188, Note_off_c, 0, 69, 64
2, 64188, Note_off_c, 0, 81, 64
2, 64320, Note_on_c, 0, 74, 64
2, 64320, Note_on_c, 0, 86, 64
2, 64416, Note_off_c, 0, 86, 64
2, 64416, Note_off_c, 0, 74, 64
2, 64440, Note_on_c, 0, 72, 64
2, 64440, Note_on_c, 0, 84, 64
2, 64536, Note_off_c, 0, 84, 64
2, 64536, Note_off_c, 0, 72, 64
2, 64560, Note_on_c, 0, 83, 64
2, 64560, Note_on_c, 0, 71, 64
2, 64752, Note_off_c, 0, 71, 64
2, 64752, Note_off_c, 0, 83, 64
2, 64800, Note_on_c, 0, 84, 64
2, 64800, Note_on_c, 0, 72, 64
2, 65016, Note_off_c, 0, 72, 64
2, 65016, Note_off_c, 0, 84, 64
2, 65280, Note_on_c, 0, 74, 64
2, 65328, Note_off_c, 0, 74, 64
2, 65340, Note_on_c, 0, 72, 64
2, 65388, Note_off_c, 0, 72, 64
2, 65400, Note_on_c, 0, 70, 64
2, 65448, Note_off_c, 0, 70, 64
2, 65460, Note_on_c, 0, 69, 64
2, 65508, Note_off_c, 0, 69, 64
2, 65520, Note_on_c, 0, 67, 64
2, 65712, Note_off_c, 0, 67, 64
2, 65760, Note_on_c, 0, 67, 64
2, 65868, Note_off_c, 0, 67, 64
2, 66000, Note_on_c, 0, 72, 64
2, 66048, Note_off_c, 0, 72, 64
2, 66060, Note_on_c, 0, 70, 64
2, 66108, Note_off_c, 0, 70, 64
2, 66120, Note_on_c, 0, 69, 64
2, 66168, Note_off_c, 0, 69, 64
2, 66180, Note_on_c, 0, 67, 64
2, 66228, Note_off_c, 0, 67, 64
2, 66240, Note_on_c, 0, 65, 64
2, 66432, Note_off_c, 0, 65, 64
2, 66480, Note_on_c, 0, 65, 64
2, 66588, Note_off_c, 0, 65, 64
2, 66720, Note_on_c, 0, 74, 64
2, 66768, Note_off_c, 0, 74, 64
2, 66780, Note_on_c, 0, 72, 64
2, 66828, Note_off_c, 0, 72, 64
2, 66840, Note_on_c, 0, 70, 64
2, 66888, Note_off_c, 0, 70, 64
2, 66900, Note_on_c, 0, 69, 64
2, 66948, Note_off_c, 0, 69, 64
2, 66960, Note_on_c, 0, 67, 64
2, 67152, Note_off_c, 0, 67, 64
2, 67200, Note_on_c, 0, 67, 64
2, 67308, Note_off_c, 0, 67, 64
2, 67440, Note_on_c, 0, 72, 64
2, 67488, Note_off_c, 0, 72, 64
2, 67500, Note_on_c, 0, 70, 64
2, 67548, Note_off_c, 0, 70, 64
2, 67560, Note_on_c, 0, 69, 64
2, 67608, Note_off_c, 0, 69, 64
2, 67620, Note_on_c, 0, 67, 64
2, 67668, Note_off_c, 0, 67, 64
2, 67680, Note_on_c, 0, 65, 64
2, 68064, Note_off_c, 0, 65, 64
2, 68160, Note_on_c, 0, 72, 64
2, 68268, Note_off_c, 0, 72, 64
2, 68400, Note_on_c, 0, 69, 64
2, 68400, Note_on_c, 0, 77, 64
2, 68400, Note_on_c, 0, 72, 64
2, 68784, Note_off_c, 0, 72, 64
2, 68784, Note_off_c, 0, 77, 64
2, 68784, Note_off_c, 0, 69, 64
2, 68880, Note_on_c, 0, 81, 64
2, 68988, Note_off_c, 0, 81, 64
2, 69120, Note_on_c, 0, 84, 64
2, 69312, Note_off_c, 0, 84, 64
2, 69360, Note_on_c, 0, 84, 64
2, 69468, Note_off_c, 0, 84, 64
2, 69600, Note_on_c, 0, 84, 64
2, 69708, Note_off_c, 0, 84, 64
2, 69840, Note_on_c, 0, 82, 64
2, 69936, Note_off_c, 0, 82, 64
2, 69960, Note_on_c, 0, 84, 64
2, 70014, Note_off_c, 0, 84, 64
2, 70080, Note_on_c, 0, 86, 64
2, 70176, Note_off_c, 0, 86, 64
2, 70200, Note_on_c, 0, 82, 64
2, 70254, Note_off_c, 0, 82, 64
2, 70320, Note_on_c, 0, 79, 64
2, 70320, Note_on_c, 0, 70, 64
2, 70416, Note_off_c, 0, 79, 64
2, 70428, Note_off_c, 0, 70, 64
2, 70440, Note_on_c, 0, 76, 64
2, 70494, Note_off_c, 0, 76, 64
2, 70560, Note_on_c, 0, 77, 64
2, 70560, Note_on_c, 0, 69, 64
2, 70776, Note_off_c, 0, 69, 64
2, 70776, Note_off_c, 0, 77, 64
2, 70776, End_track
3, 0, Start_track
3, 720, Note_on_c, 0, 53, 64
3, 828, Note_off_c, 0, 53, 64
3, 840, Note_on_c, 0, 57, 64
3, 948, Note_off_c, 0, 57, 64
3, 960, Note_on_c, 0, 60, 64
3, 1068, Note_off_c, 0, 60, 64
3, 1080, Note_on_c, 0, 57, 64
3, 1188, Note_off_c, 0, 57, 64
3, 1200, Note_on_c, 0, 60, 64
3, 1308, Note_off_c, 0, 60, 64
3, 1320, Note_on_c, 0, 57, 64
3, 1428, Note_off_c, 0, 57, 64
3, 1440, Note_on_c, 0, 53, 64
3, 1548, Note_off_c, 0, 53, 64
3, 1560, Note_on_c, 0, 57, 64
3, 1668, Note_off_c, 0, 57, 64
3, 1680, Note_on_c, 0, 60, 64
3, 1788, Note_off_c, 0, 60, 64
3, 1800, Note_on_c, 0, 57, 64
3, 1908, Note_off_c, 0, 57, 64
3, 1920, Note_on_c, 0, 55, 64
3, 2028, Note_off_c, 0, 55, 64
3, 2040, Note_on_c, 0, 53, 64
3, 2148, Note_off_c, 0, 53, 64
3, 2160, Note_on_c, 0, 52, 64
3, 2268, Note_off_c, 0, 52, 64
3, 2280, Note_on_c, 0, 55, 64
3, 2388, Note_off_c, 0, 55, 64
3, 2400, Note_on_c, 0, 60, 64
3, 2508, Note_off_c, 0, 60, 64
3, 2520, Note_on_c, 0, 55, 64
3, 2628, Note_off_c, 0, 55, 64
3, 2640, Note_on_c, 0, 52, 64
3, 2748, Note_off_c, 0, 52, 64
3, 2760, Note_on_c, 0, 48, 64
3, 2868, Note_off_c, 0, 48, 64
3, 2880, Note_on_c, 0, 53, 64
3, 2988, Note_off_c, 0, 53, 64
3, 3000, Note_on_c, 0, 57, 64
3, 3108, Note_off_c, 0, 57, 64
3, 3120, Note_on_c, 0, 60, 64
3, 3228, Note_off_c, 0, 60, 64
3, 3240, Note_on_c, 0, 57, 64
3, 3348, Note_off_c, 0, 57, 64
3, 3360, Note_on_c, 0, 53, 64
3, 3468, Note_off_c, 0, 53, 64
3, 3480, Note_on_c, 0, 48, 64
3, 3588, Note_off_c, 0, 48, 64
3, 3600, Note_on_c, 0, 52, 64
3, 3708, Note_off_c, 0, 52, 64
3, 3720, Note_on_c, 0, 55, 64
3, 3828, Note_off_c, 0, 55, 64
3, 3840, Note_on_c, 0, 60, 64
3, 3948, Note_off_c, 0, 60, 64
3, 3960, Note_on_c, 0, 55, 64
3, 4068, Note_off_c, 0, 55, 64
3, 4080, Note_on_c, 0, 52, 64
3, 4188, Note_off_c, 0, 52, 64
3, 4200, Note_on_c, 0, 48, 64
3, 4308, Note_off_c, 0, 48, 64
3, 4320, Note_on_c, 0, 53, 64
3, 4512, Note_off_c, 0, 53, 64
3, 4560, Note_on_c, 0, 41, 64
3, 4668, Note_off_c, 0, 41, 64
3, 5040, Note_on_c, 0, 65, 64
3, 5040, Note_on_c, 0, 55, 64
3, 5040, Note_on_c, 0, 59, 64
3, 5232, Note_off_c, 0, 59, 64
3, 5232, Note_off_c, 0, 55, 64
3, 5232, Note_off_c, 0, 65, 64
3, 5280, Note_on_c, 0, 59, 64
3, 5280, Note_on_c, 0, 65, 64
3, 5280, Note_on_c, 0, 55, 64
3, 5388, Note_off_c, 0, 55, 64
3, 5388, Note_off_c, 0, 65, 64
3, 5388, Note_off_c, 0, 59, 64
3, 5760, Note_on_c, 0, 64, 64
3, 5760, Note_on_c, 0, 60, 64
3, 5952, Note_off_c, 0, 60, 64
3, 5952, Note_off_c, 0, 64, 64
3, 6000, Note_on_c, 0, 60, 64
3, 6000, Note_on_c, 0, 64, 64
3, 6108, Note_off_c, 0, 64, 64
3, 6108, Note_off_c, 0, 60, 64
3, 6480, Note_on_c, 0, 47, 64
3, 6480, Note_on_c, 0, 53, 64
3, 6480, Note_on_c, 0, 43, 64
3, 6672, Note_off_c, 0, 43, 64
3, 6672, Note_off_c, 0, 53, 64
3, 6672, Note_off_c, 0, 47, 64
3, 6720, Note_on_c, 0, 53, 64
3, 6720, Note_on_c, 0, 47, 64
3, 6720, Note_on_c, 0, 43, 64
3, 6828, Note_off_c, 0, 43, 64
3, 6828, Note_off_c, 0, 47, 64
3, 6828, Note_off_c, 0, 53, 64
3, 6960, Note_on_c, 0, 53, 64
3, 6960, Note_on_c, 0, 47, 64
3, 6960, Note_on_c, 0, 43, 64
3, 7068, Note_off_c, 0, 43, 64
3, 7068, Note_off_c, 0, 47, 64
3, 7068, Note_off_c, 0, 53, 64
3, 7200, Note_on_c, 0, 52, 64
3, 7200, Note_on_c, 0, 48, 64
3, 7416, Note_off_c, 0, 48, 64
3, 7416, Note_off_c, 0, 52, 64
3, 7920, Note_on_c, 0, 53, 64
3, 8028, Note_off_c, 0, 53, 64
3, 8040, Note_on_c, 0, 57, 64
3, 8148, Note_off_c, 0, 57, 64
3, 8160, Note_on_c, 0, 60, 64
3, 8268, Note_off_c, 0, 60, 64
3, 8280, Note_on_c, 0, 57, 64
3, 8388, Note_off_c, 0, 57, 64
3, 8400, Note_on_c, 0, 60, 64
3, 8508, Note_off_c, 0, 60, 64
3, 8520, Note_on_c, 0, 57, 64
3, 8628, Note_off_c, 0, 57, 64
3, 8640, Note_on_c, 0, 53, 64
3, 8748, Note_off_c, 0, 53, 64
3, 8760, Note_on_c, 0, 57, 64
3, 8868, Note_off_c, 0, 57, 64
3, 8880, Note_on_c, 0, 60, 64
3, 8988, Note_off_c, 0, 60, 64
3, 9000, Note_on_c, 0, 57, 64
3, 9108, Note_off_c, 0, 57, 64
3, 9120, Note_on_c, 0, 55, 64
3, 9228, Note_off_c, 0, 55, 64
3, 9240, Note_on_c, 0, 53, 64
3, 9348, Note_off_c, 0, 53, 64
3, 9360, Note_on_c, 0, 52, 64
3, 9468, Note_off_c, 0, 52, 64
3, 9480, Note_on_c, 0, 55, 64
3, 9588, Note_off_c, 0, 55, 64
3, 9600, Note_on_c, 0, 60, 64
3, 9708, Note_off_c, 0, 60, 64
3, 9720, Note_on_c, 0, 55, 64
3, 9828, Note_off_c, 0, 55, 64
3, 9840, Note_on_c, 0, 52, 64
3, 9948, Note_off_c, 0, 52, 64
3, 9960, Note_on_c, 0, 48, 64
3, 10068, Note_off_c, 0, 48, 64
3, 10080, Note_on_c, 0, 53, 64
3, 10188, Note_off_c, 0, 53, 64
3, 10200, Note_on_c, 0, 57, 64
3, 10308, Note_off_c, 0, 57, 64
3, 10320, Note_on_c, 0, 60, 64
3, 10428, Note_off_c, 0, 60, 64
3, 10440, Note_on_c, 0, 57, 64
3, 10548, Note_off_c, 0, 57, 64
3, 10560, Note_on_c, 0, 53, 64
3, 10668, Note_off_c, 0, 53, 64
3, 10680, Note_on_c, 0, 48, 64
3, 10788, Note_off_c, 0, 48, 64
3, 10800, Note_on_c, 0, 52, 64
3, 10908, Note_off_c, 0, 52, 64
3, 10920, Note_on_c, 0, 55, 64
3, 11028, Note_off_c, 0, 55, 64
3, 11040, Note_on_c, 0, 60, 64
3, 11148, Note_off_c, 0, 60, 64
3, 11160, Note_on_c, 0, 55, 64
3, 11268, Note_off_c, 0, 55, 64
3, 11280, Note_on_c, 0, 52, 64
3, 11388, Note_off_c, 0, 52, 64
3, 11400, Note_on_c, 0, 48, 64
3, 11508, Note_off_c, 0, 48, 64
3, 11520, Note_on_c, 0, 53, 64
3, 11712, Note_off_c, 0, 53, 64
3, 11760, Note_on_c, 0, 41, 64
3, 11868, Note_off_c, 0, 41, 64
3, 12240, Note_on_c, 0, 59, 64
3, 12240, Note_on_c, 0, 55, 64
3, 12240, Note_on_c, 0, 65, 64
3, 12432, Note_off_c, 0, 65, 64
3, 12432, Note_off_c, 0, 55, 64
3, 12432, Note_off_c, 0, 59, 64
3, 12480, Note_on_c, 0, 55, 64
3, 12480, Note_on_c, 0, 65, 64
3, 12480, Note_on_c, 0, 59, 64
3, 12588, Note_off_c, 0, 59, 64
3, 12588, Note_off_c, 0, 65, 64
3, 12588, Note_off_c, 0, 55, 64
3, 12960, Note_on_c, 0, 60, 64
3, 12960, Note_on_c, 0, 64, 64
3, 13152, Note_off_c, 0, 64, 64
3, 13152, Note_off_c, 0, 60, 64
3, 13200, Note_on_c, 0, 64, 64
3, 13200, Note_on_c, 0, 60, 64
3, 13308, Note_off_c, 0, 60, 64
3, 13308, Note_off_c, 0, 64, 64
3, 13680, Note_on_c, 0, 43, 64
3, 13680, Note_on_c, 0, 53, 64
3, 13680, Note_on_c, 0, 47, 64
3, 13872, Note_off_c, 0, 47, 64
3, 13872, Note_off_c, 0, 53, 64
3, 13872, Note_off_c, 0, 43, 64
3, 13920, Note_on_c, 0, 43, 64
3, 13920, Note_on_c, 0, 47, 64
3, 13920, Note_on_c, 0, 53, 64
3, 14028, Note_off_c, 0, 53, 64
3, 14028, Note_off_c, 0, 47, 64
3, 14028, Note_off_c, 0, 43, 64
3, 14160, Note_on_c, 0, 43, 64
3, 14160, Note_on_c, 0, 47, 64
3, 14160, Note_on_c, 0, 53, 64
3, 14268, Note_off_c, 0, 53, 64
3, 14268, Note_off_c, 0, 47, 64
3, 14268, Note_off_c, 0, 43, 64
3, 14400, Note_on_c, 0, 48, 64
3, 14400, Note_on_c, 0, 52, 64
3, 14616, Note_off_c, 0, 52, 64
3, 14616, Note_off_c, 0, 48, 64
3, 14880, Note_on_c, 0, 48, 64
3, 14880, Note_on_c, 0, 60, 64
3, 15072, Note_off_c, 0, 60, 64
3, 15072, Note_off_c, 0, 48, 64
3, 15120, Note_on_c, 0, 47, 64
3, 15120, Note_on_c, 0, 59, 64
3, 15504, Note_off_c, 0, 59, 64
3, 15504, Note_off_c, 0, 47, 64
3, 15600, Note_on_c, 0, 58, 64
3, 15600, Note_on_c, 0, 46, 64
3, 15708, Note_off_c, 0, 46, 64
3, 15708, Note_off_c, 0, 58, 64
3, 15840, Note_on_c, 0, 57, 64
3, 15840, Note_on_c, 0, 45, 64
3, 15948, Note_off_c, 0, 45, 64
3, 15948, Note_off_c, 0, 57, 64
3, 16080, Note_on_c, 0, 43, 64
3, 16080, Note_on_c, 0, 55, 64
3, 16176, Note_off_c, 0, 55, 64
3, 16176, Note_off_c, 0, 43, 64
3, 16200, Note_on_c, 0, 41, 64
3, 16200, Note_on_c, 0, 53, 64
3, 16296, Note_off_c, 0, 53, 64
3, 16296, Note_off_c, 0, 41, 64
3, 16320, Note_on_c, 0, 40, 64
3, 16320, Note_on_c, 0, 52, 64
3, 16428, Note_off_c, 0, 52, 64
3, 16428, Note_off_c, 0, 40, 64
3, 16560, Note_on_c, 0, 41, 64
3, 16560, Note_on_c, 0, 53, 64
3, 16668, Note_off_c, 0, 53, 64
3, 16668, Note_off_c, 0, 41, 64
3, 16800, Note_on_c, 0, 50, 64
3, 16800, Note_on_c, 0, 38, 64
3, 16908, Note_off_c, 0, 38, 64
3, 16908, Note_off_c, 0, 50, 64
3, 17040, Note_on_c, 0, 55, 64
3, 17040, Note_on_c, 0, 43, 64
3, 17148, Note_off_c, 0, 43, 64
3, 17148, Note_off_c, 0, 55, 64
3, 17280, Note_on_c, 0, 52, 64
3, 17280, Note_on_c, 0, 40, 64
3, 17472, Note_off_c, 0, 40, 64
3, 17472, Note_off_c, 0, 52, 64
3, 17520, Note_on_c, 0, 48, 64
3, 17520, Note_on_c, 0, 36, 64
3, 17628, Note_off_c, 0, 36, 64
3, 17628, Note_off_c, 0, 48, 64
3, 18000, Note_on_c, 0, 58, 64
3, 18192, Note_off_c, 0, 58, 64
3, 18240, Note_on_c, 0, 58, 64
3, 18348, Note_off_c, 0, 58, 64
3, 18480, Note_on_c, 0, 58, 64
3, 18588, Note_off_c, 0, 58, 64
3, 18720, Note_on_c, 0, 57, 64
3, 18912, Note_off_c, 0, 57, 64
3, 18960, Note_on_c, 0, 57, 64
3, 19068, Note_off_c, 0, 57, 64
3, 19200, Note_on_c, 0, 57, 64
3, 19308, Note_off_c, 0, 57, 64
3, 19440, Note_on_c, 0, 58, 64
3, 19632, Note_off_c, 0, 58, 64
3, 19680, Note_on_c, 0, 58, 64
3, 19788, Note_off_c, 0, 58, 64
3, 19920, Note_on_c, 0, 58, 64
3, 20028, Note_off_c, 0, 58, 64
3, 20160, Note_on_c, 0, 53, 64
3, 20256, Note_off_c, 0, 53, 64
3, 20280, Note_on_c, 0, 57, 64
3, 20376, Note_off_c, 0, 57, 64
3, 20400, Note_on_c, 0, 60, 64
3, 20496, Note_off_c, 0, 60, 64
3, 20520, Note_on_c, 0, 57, 64
3, 20616, Note_off_c, 0, 57, 64
3, 20640, Note_on_c, 0, 60, 64
3, 20736, Note_off_c, 0, 60, 64
3, 20760, Note_on_c, 0, 57, 64
3, 20856, Note_off_c, 0, 57, 64
3, 20880, Note_on_c, 0, 53, 64
3, 20976, Note_off_c, 0, 53, 64
3, 21000, Note_on_c, 0, 57, 64
3, 21096, Note_off_c, 0, 57, 64
3, 21120, Note_on_c, 0, 60, 64
3, 21216, Note_off_c, 0, 60, 64
3, 21240, Note_on_c, 0, 57, 64
3, 21336, Note_off_c, 0, 57, 64
3, 21360, Note_on_c, 0, 60, 64
3, 21456, Note_off_c, 0, 60, 64
3, 21480, Note_on_c, 0, 57, 64
3, 21576, Note_off_c, 0, 57, 64
3, 21600, Note_on_c, 0, 53, 64
3, 21696, Note_off_c, 0, 53, 64
3, 21720, Note_on_c, 0, 57, 64
3, 21816, Note_off_c, 0, 57, 64
3, 21840, Note_on_c, 0, 60, 64
3, 21936, Note_off_c, 0, 60, 64
3, 21960, Note_on_c, 0, 65, 64
3, 22056, Note_off_c, 0, 65, 64
3, 22080, Note_on_c, 0, 60, 64
3, 22176, Note_off_c, 0, 60, 64
3, 22200, Note_on_c, 0, 57, 64
3, 22296, Note_off_c, 0, 57, 64
3, 22320, Note_on_c, 0, 55, 64
3, 22512, Note_off_c, 0, 55, 64
3, 22560, Note_on_c, 0, 58, 64
3, 22752, Note_off_c, 0, 58, 64
3, 22800, Note_on_c, 0, 60, 64
3, 22992, Note_off_c, 0, 60, 64
3, 23040, Note_on_c, 0, 53, 64
3, 23232, Note_off_c, 0, 53, 64
3, 23280, Note_on_c, 0, 41, 64
3, 23388, Note_off_c, 0, 41, 64
3, 23520, Note_on_c, 0, 60, 64
3, 23520, Note_on_c, 0, 48, 64
3, 23628, Note_off_c, 0, 48, 64
3, 23628, Note_off_c, 0, 60, 64
3, 23760, Note_on_c, 0, 59, 64
3, 23760, Note_on_c, 0, 47, 64
3, 24144, Note_off_c, 0, 47, 64
3, 24144, Note_off_c, 0, 59, 64
3, 24240, Note_on_c, 0, 46, 64
3, 24240, Note_on_c, 0, 58, 64
3, 24348, Note_off_c, 0, 58, 64
3, 24348, Note_off_c, 0, 46, 64
3, 24480, Note_on_c, 0, 45, 64
3, 24480, Note_on_c, 0, 57, 64
3, 24588, Note_off_c, 0, 57, 64
3, 24588, Note_off_c, 0, 45, 64
3, 24720, Note_on_c, 0, 55, 64
3, 24720, Note_on_c, 0, 43, 64
3, 24816, Note_off_c, 0, 43, 64
3, 24816, Note_off_c, 0, 55, 64
3, 24840, Note_on_c, 0, 53, 64
3, 24840, Note_on_c, 0, 41, 64
3, 24936, Note_off_c, 0, 41, 64
3, 24936, Note_off_c, 0, 53, 64
3, 24960, Note_on_c, 0, 52, 64
3, 24960, Note_on_c, 0, 40, 64
3, 25068, Note_off_c, 0, 40, 64
3, 25068, Note_off_c, 0, 52, 64
3, 25200, Note_on_c, 0, 53, 64
3, 25200, Note_on_c, 0, 41, 64
3, 25308, Note_off_c, 0, 41, 64
3, 25308, Note_off_c, 0, 53, 64
3, 25440, Note_on_c, 0, 38, 64
3, 25440, Note_on_c, 0, 50, 64
3, 25548, Note_off_c, 0, 50, 64
3, 25548, Note_off_c, 0, 38, 64
3, 25680, Note_on_c, 0, 43, 64
3, 25680, Note_on_c, 0, 55, 64
3, 25788, Note_off_c, 0, 55, 64
3, 25788, Note_off_c, 0, 43, 64
3, 25920, Note_on_c, 0, 40, 64
3, 25920, Note_on_c, 0, 52, 64
3, 26112, Note_off_c, 0, 52, 64
3, 26112, Note_off_c, 0, 40, 64
3, 26160, Note_on_c, 0, 36, 64
3, 26160, Note_on_c, 0, 48, 64
3, 26268, Note_off_c, 0, 48, 64
3, 26268, Note_off_c, 0, 36, 64
3, 26640, Note_on_c, 0, 58, 64
3, 26832, Note_off_c, 0, 58, 64
3, 26880, Note_on_c, 0, 58, 64
3, 26988, Note_off_c, 0, 58, 64
3, 27120, Note_on_c, 0, 58, 64
3, 27228, Note_off_c, 0, 58, 64
3, 27360, Note_on_c, 0, 57, 64
3, 27552, Note_off_c, 0, 57, 64
3, 27600, Note_on_c, 0, 57, 64
3, 27708, Note_off_c, 0, 57, 64
3, 27840, Note_on_c, 0, 57, 64
3, 27948, Note_off_c, 0, 57, 64
3, 28080, Note_on_c, 0, 58, 64
3, 28272, Note_off_c, 0, 58, 64
3, 28320, Note_on_c, 0, 58, 64
3, 28428, Note_off_c, 0, 58, 64
3, 28560, Note_on_c, 0, 58, 64
3, 28668, Note_off_c, 0, 58, 64
3, 28800, Note_on_c, 0, 53, 64
3, 28896, Note_off_c, 0, 53, 64
3, 28920, Note_on_c, 0, 57, 64
3, 29016, Note_off_c, 0, 57, 64
3, 29040, Note_on_c, 0, 60, 64
3, 29136, Note_off_c, 0, 60, 64
3, 29160, Note_on_c, 0, 57, 64
3, 29256, Note_off_c, 0, 57, 64
3, 29280, Note_on_c, 0, 60, 64
3, 29376, Note_off_c, 0, 60, 64
3, 29400, Note_on_c, 0, 57, 64
3, 29496, Note_off_c, 0, 57, 64
3, 29520, Note_on_c, 0, 53, 64
3, 29616, Note_off_c, 0, 53, 64
3, 29640, Note_on_c, 0, 57, 64
3, 29736, Note_off_c, 0, 57, 64
3, 29760, Note_on_c, 0, 60, 64
3, 29856, Note_off_c, 0, 60, 64
3, 29880, Note_on_c, 0, 57, 64
3, 29976, Note_off_c, 0, 57, 64
3, 30000, Note_on_c, 0, 60, 64
3, 30096, Note_off_c, 0, 60, 64
3, 30120, Note_on_c, 0, 57, 64
3, 30216, Note_off_c, 0, 57, 64
3, 30240, Note_on_c, 0, 53, 64
3, 30336, Note_off_c, 0, 53, 64
3, 30360, Note_on_c, 0, 57, 64
3, 30456, Note_off_c, 0, 57, 64
3, 30480, Note_on_c, 0, 60, 64
3, 30576, Note_off_c, 0, 60, 64
3, 30600, Note_on_c, 0, 65, 64
3, 30696, Note_off_c, 0, 65, 64
3, 30720, Note_on_c, 0, 60, 64
3, 30816, Note_off_c, 0, 60, 64
3, 30840, Note_on_c, 0, 57, 64
3, 30936, Note_off_c, 0, 57, 64
3, 30960, Note_on_c, 0, 55, 64
3, 31152, Note_off_c, 0, 55, 64
3, 31200, Note_on_c, 0, 58, 64
3, 31392, Note_off_c, 0, 58, 64
3, 31440, Note_on_c, 0, 60, 64
3, 31632, Note_off_c, 0, 60, 64
3, 31680, Note_on_c, 0, 53, 64
3, 31872, Note_off_c, 0, 53, 64
3, 31920, Note_on_c, 0, 41, 64
3, 32028, Note_off_c, 0, 41, 64
3, 32400, Note_on_c, 0, 46, 64
3, 32592, Note_off_c, 0, 46, 64
3, 33120, Note_on_c, 0, 48, 64
3, 33312, Note_off_c, 0, 48, 64
3, 33600, Note_on_c, 0, 48, 64
3, 33600, Note_on_c, 0, 36, 64
3, 33708, Note_off_c, 0, 36, 64
3, 33708, Note_off_c, 0, 48, 64
3, 33840, Note_on_c, 0, 53, 64
3, 33840, Note_on_c, 0, 41, 64
3, 34032, Note_off_c, 0, 41, 64
3, 34032, Note_off_c, 0, 53, 64
3, 34080, Note_on_c, 0, 60, 64
3, 34080, Note_on_c, 0, 48, 64
3, 34188, Note_off_c, 0, 48, 64
3, 34188, Note_off_c, 0, 60, 64
3, 34320, Note_on_c, 0, 57, 64
3, 34320, Note_on_c, 0, 45, 64
3, 34428, Note_off_c, 0, 45, 64
3, 34428, Note_off_c, 0, 57, 64
3, 34560, Note_on_c, 0, 53, 64
3, 34560, Note_on_c, 0, 41, 64
3, 34752, Note_off_c, 0, 41, 64
3, 34752, Note_off_c, 0, 53, 64
3, 34800, Note_on_c, 0, 48, 64
3, 34800, Note_on_c, 0, 36, 64
3, 34908, Note_off_c, 0, 36, 64
3, 34908, Note_off_c, 0, 48, 64
3, 35040, Note_on_c, 0, 45, 64
3, 35040, Note_on_c, 0, 33, 64
3, 35148, Note_off_c, 0, 33, 64
3, 35148, Note_off_c, 0, 45, 64
3, 35280, Note_on_c, 0, 46, 64
3, 35280, Note_on_c, 0, 34, 64
3, 35472, Note_off_c, 0, 34, 64
3, 35472, Note_off_c, 0, 46, 64
3, 36000, Note_on_c, 0, 48, 64
3, 36000, Note_on_c, 0, 36, 64
3, 36192, Note_off_c, 0, 36, 64
3, 36192, Note_off_c, 0, 48, 64
3, 36240, Note_on_c, 0, 52, 64
3, 36348, Note_off_c, 0, 52, 64
3, 36480, Note_on_c, 0, 48, 64
3, 36588, Note_off_c, 0, 48, 64
3, 36720, Note_on_c, 0, 50, 64
3, 36912, Note_off_c, 0, 50, 64
3, 36960, Note_on_c, 0, 46, 64
3, 37068, Note_off_c, 0, 46, 64
3, 37200, Note_on_c, 0, 48, 64
3, 37308, Note_off_c, 0, 48, 64
3, 37440, Note_on_c, 0, 53, 64
3, 37632, Note_off_c, 0, 53, 64
3, 37680, Note_on_c, 0, 41, 64
3, 37788, Note_off_c, 0, 41, 64
3, 38160, Note_on_c, 0, 46, 64
3, 38352, Note_off_c, 0, 46, 64
3, 38880, Note_on_c, 0, 48, 64
3, 39072, Note_off_c, 0, 48, 64
3, 39360, Note_on_c, 0, 36, 64
3, 39360, Note_on_c, 0, 48, 64
3, 39552, Note_off_c, 0, 48, 64
3, 39552, Note_off_c, 0, 36, 64
3, 39600, Note_on_c, 0, 41, 64
3, 39600, Note_on_c, 0, 53, 64
3, 39792, Note_off_c, 0, 53, 64
3, 39792, Note_off_c, 0, 41, 64
3, 39840, Note_on_c, 0, 48, 64
3, 39840, Note_on_c, 0, 60, 64
3, 39948, Note_off_c, 0, 60, 64
3, 39948, Note_off_c, 0, 48, 64
3, 40080, Note_on_c, 0, 45, 64
3, 40080, Note_on_c, 0, 57, 64
3, 40188, Note_off_c, 0, 57, 64
3, 40188, Note_off_c, 0, 45, 64
3, 40320, Note_on_c, 0, 41, 64
3, 40320, Note_on_c, 0, 53, 64
3, 40512, Note_off_c, 0, 53, 64
3, 40512, Note_off_c, 0, 41, 64
3, 40560, Note_on_c, 0, 36, 64
3, 40560, Note_on_c, 0, 48, 64
3, 40668, Note_off_c, 0, 48, 64
3, 40668, Note_off_c, 0, 36, 64
3, 40800, Note_on_c, 0, 33, 64
3, 40800, Note_on_c, 0, 45, 64
3, 40908, Note_off_c, 0, 45, 64
3, 40908, Note_off_c, 0, 33, 64
3, 41040, Note_on_c, 0, 34, 64
3, 41040, Note_on_c, 0, 46, 64
3, 41232, Note_off_c, 0, 46, 64
3, 41232, Note_off_c, 0, 34, 64
3, 41760, Note_on_c, 0, 36, 64
3, 41760, Note_on_c, 0, 48, 64
3, 41952, Note_off_c, 0, 48, 64
3, 41952, Note_off_c, 0, 36, 64
3, 42000, Note_on_c, 0, 52, 64
3, 42108, Note_off_c, 0, 52, 64
3, 42240, Note_on_c, 0, 48, 64
3, 42348, Note_off_c, 0, 48, 64
3, 42480, Note_on_c, 0, 50, 64
3, 42672, Note_off_c, 0, 50, 64
3, 42720, Note_on_c, 0, 46, 64
3, 42828, Note_off_c, 0, 46, 64
3, 42960, Note_on_c, 0, 48, 64
3, 43068, Note_off_c, 0, 48, 64
3, 43200, Note_on_c, 0, 53, 64
3, 43392, Note_off_c, 0, 53, 64
3, 43440, Note_on_c, 0, 41, 64
3, 43548, Note_off_c, 0, 41, 64
3, 43920, Note_on_c, 0, 49, 64
3, 44016, Note_off_c, 0, 49, 64
3, 44040, Note_on_c, 0, 53, 64
3, 44136, Note_off_c, 0, 53, 64
3, 44160, Note_on_c, 0, 59, 64
3, 44256, Note_off_c, 0, 59, 64
3, 44280, Note_on_c, 0, 53, 64
3, 44376, Note_off_c, 0, 53, 64
3, 44400, Note_on_c, 0, 49, 64
3, 44496, Note_off_c, 0, 49, 64
3, 44520, Note_on_c, 0, 53, 64
3, 44616, Note_off_c, 0, 53, 64
3, 44640, Note_on_c, 0, 48, 64
3, 44736, Note_off_c, 0, 48, 64
3, 44760, Note_on_c, 0, 52, 64
3, 44856, Note_off_c, 0, 52, 64
3, 44880, Note_on_c, 0, 60, 64
3, 44976, Note_off_c, 0, 60, 64
3, 45000, Note_on_c, 0, 52, 64
3, 45096, Note_off_c, 0, 52, 64
3, 45120, Note_on_c, 0, 48, 64
3, 45216, Note_off_c, 0, 48, 64
3, 45240, Note_on_c, 0, 52, 64
3, 45336, Note_off_c, 0, 52, 64
3, 45360, Note_on_c, 0, 47, 64
3, 45456, Note_off_c, 0, 47, 64
3, 45480, Note_on_c, 0, 50, 64
3, 45576, Note_off_c, 0, 50, 64
3, 45600, Note_on_c, 0, 53, 64
3, 45696, Note_off_c, 0, 53, 64
3, 45720, Note_on_c, 0, 50, 64
3, 45816, Note_off_c, 0, 50, 64
3, 45840, Note_on_c, 0, 47, 64
3, 45936, Note_off_c, 0, 47, 64
3, 45960, Note_on_c, 0, 50, 64
3, 46056, Note_off_c, 0, 50, 64
3, 46080, Note_on_c, 0, 60, 64
3, 46080, Note_on_c, 0, 48, 64
3, 46272, Note_off_c, 0, 48, 64
3, 46272, Note_off_c, 0, 60, 64
3, 46320, Note_on_c, 0, 58, 64
3, 46320, Note_on_c, 0, 46, 64
3, 46428, Note_off_c, 0, 46, 64
3, 46428, Note_off_c, 0, 58, 64
3, 46560, Note_on_c, 0, 57, 64
3, 46560, Note_on_c, 0, 45, 64
3, 46668, Note_off_c, 0, 45, 64
3, 46668, Note_off_c, 0, 57, 64
3, 46800, Note_on_c, 0, 46, 64
3, 46800, Note_on_c, 0, 58, 64
3, 46992, Note_off_c, 0, 58, 64
3, 46992, Note_off_c, 0, 46, 64
3, 47520, Note_on_c, 0, 48, 64
3, 47712, Note_off_c, 0, 48, 64
3, 47760, Note_on_c, 0, 52, 64
3, 47868, Note_off_c, 0, 52, 64
3, 48000, Note_on_c, 0, 48, 64
3, 48108, Note_off_c, 0, 48, 64
3, 48240, Note_on_c, 0, 50, 64
3, 48432, Note_off_c, 0, 50, 64
3, 48480, Note_on_c, 0, 46, 64
3, 48588, Note_off_c, 0, 46, 64
3, 48720, Note_on_c, 0, 48, 64
3, 48828, Note_off_c, 0, 48, 64
3, 48960, Note_on_c, 0, 41, 64
3, 49152, Note_off_c, 0, 41, 64
3, 49200, Note_on_c, 0, 53, 64
3, 49308, Note_off_c, 0, 53, 64
3, 49680, Note_on_c, 0, 49, 64
3, 49776, Note_off_c, 0, 49, 64
3, 49800, Note_on_c, 0, 53, 64
3, 49896, Note_off_c, 0, 53, 64
3, 49920, Note_on_c, 0, 59, 64
3, 50016, Note_off_c, 0, 59, 64
3, 50040, Note_on_c, 0, 53, 64
3, 50136, Note_off_c, 0, 53, 64
3, 50160, Note_on_c, 0, 49, 64
3, 50256, Note_off_c, 0, 49, 64
3, 50280, Note_on_c, 0, 53, 64
3, 50376, Note_off_c, 0, 53, 64
3, 50400, Note_on_c, 0, 48, 64
3, 50496, Note_off_c, 0, 48, 64
3, 50520, Note_on_c, 0, 52, 64
3, 50616, Note_off_c, 0, 52, 64
3, 50640, Note_on_c, 0, 60, 64
3, 50736, Note_off_c, 0, 60, 64
3, 50760, Note_on_c, 0, 52, 64
3, 50856, Note_off_c, 0, 52, 64
3, 50880, Note_on_c, 0, 48, 64
3, 50976, Note_off_c, 0, 48, 64
3, 51000, Note_on_c, 0, 52, 64
3, 51096, Note_off_c, 0, 52, 64
3, 51120, Note_on_c, 0, 47, 64
3, 51216, Note_off_c, 0, 47, 64
3, 51240, Note_on_c, 0, 50, 64
3, 51336, Note_off_c, 0, 50, 64
3, 51360, Note_on_c, 0, 53, 64
3, 51456, Note_off_c, 0, 53, 64
3, 51480, Note_on_c, 0, 50, 64
3, 51576, Note_off_c, 0, 50, 64
3, 51600, Note_on_c, 0, 47, 64
3, 51696, Note_off_c, 0, 47, 64
3, 51720, Note_on_c, 0, 50, 64
3, 51816, Note_off_c, 0, 50, 64
3, 51840, Note_on_c, 0, 48, 64
3, 51840, Note_on_c, 0, 60, 64
3, 52032, Note_off_c, 0, 60, 64
3, 52032, Note_off_c, 0, 48, 64
3, 52080, Note_on_c, 0, 46, 64
3, 52080, Note_on_c, 0, 58, 64
3, 52188, Note_off_c, 0, 58, 64
3, 52188, Note_off_c, 0, 46, 64
3, 52320, Note_on_c, 0, 45, 64
3, 52320, Note_on_c, 0, 57, 64
3, 52428, Note_off_c, 0, 57, 64
3, 52428, Note_off_c, 0, 45, 64
3, 52560, Note_on_c, 0, 58, 64
3, 52560, Note_on_c, 0, 46, 64
3, 52752, Note_off_c, 0, 46, 64
3, 52752, Note_off_c, 0, 58, 64
3, 53280, Note_on_c, 0, 48, 64
3, 53472, Note_off_c, 0, 48, 64
3, 53520, Note_on_c, 0, 52, 64
3, 53628, Note_off_c, 0, 52, 64
3, 53760, Note_on_c, 0, 48, 64
3, 53868, Note_off_c, 0, 48, 64
3, 54000, Note_on_c, 0, 50, 64
3, 54192, Note_off_c, 0, 50, 64
3, 54240, Note_on_c, 0, 46, 64
3, 54348, Note_off_c, 0, 46, 64
3, 54480, Note_on_c, 0, 48, 64
3, 54588, Note_off_c, 0, 48, 64
3, 54720, Note_on_c, 0, 41, 64
3, 54912, Note_off_c, 0, 41, 64
3, 54960, Note_on_c, 0, 53, 64
3, 55068, Note_off_c, 0, 53, 64
3, 55440, Note_on_c, 0, 53, 64
3, 55548, Note_off_c, 0, 53, 64
3, 55560, Note_on_c, 0, 57, 64
3, 55668, Note_off_c, 0, 57, 64
3, 55680, Note_on_c, 0, 60, 64
3, 55788, Note_off_c, 0, 60, 64
3, 55800, Note_on_c, 0, 57, 64
3, 55908, Note_off_c, 0, 57, 64
3, 55920, Note_on_c, 0, 60, 64
3, 56028, Note_off_c, 0, 60, 64
3, 56040, Note_on_c, 0, 57, 64
3, 56148, Note_off_c, 0, 57, 64
3, 56160, Note_on_c, 0, 53, 64
3, 56268, Note_off_c, 0, 53, 64
3, 56280, Note_on_c, 0, 57, 64
3, 56388, Note_off_c, 0, 57, 64
3, 56400, Note_on_c, 0, 60, 64
3, 56508, Note_off_c, 0, 60, 64
3, 56520, Note_on_c, 0, 57, 64
3, 56628, Note_off_c, 0, 57, 64
3, 56640, Note_on_c, 0, 55, 64
3, 56748, Note_off_c, 0, 55, 64
3, 56760, Note_on_c, 0, 53, 64
3, 56868, Note_off_c, 0, 53, 64
3, 56880, Note_on_c, 0, 52, 64
3, 56988, Note_off_c, 0, 52, 64
3, 57000, Note_on_c, 0, 55, 64
3, 57108, Note_off_c, 0, 55, 64
3, 57120, Note_on_c, 0, 60, 64
3, 57228, Note_off_c, 0, 60, 64
3, 57240, Note_on_c, 0, 55, 64
3, 57348, Note_off_c, 0, 55, 64
3, 57360, Note_on_c, 0, 52, 64
3, 57468, Note_off_c, 0, 52, 64
3, 57480, Note_on_c, 0, 48, 64
3, 57588, Note_off_c, 0, 48, 64
3, 57600, Note_on_c, 0, 53, 64
3, 57708, Note_off_c, 0, 53, 64
3, 57720, Note_on_c, 0, 57, 64
3, 57828, Note_off_c, 0, 57, 64
3, 57840, Note_on_c, 0, 60, 64
3, 57948, Note_off_c, 0, 60, 64
3, 57960, Note_on_c, 0, 57, 64
3, 58068, Note_off_c, 0, 57, 64
3, 58080, Note_on_c, 0, 53, 64
3, 58188, Note_off_c, 0, 53, 64
3, 58200, Note_on_c, 0, 48, 64
3, 58308, Note_off_c, 0, 48, 64
3, 58320, Note_on_c, 0, 52, 64
3, 58428, Note_off_c, 0, 52, 64
3, 58440, Note_on_c, 0, 55, 64
3, 58548, Note_off_c, 0, 55, 64
3, 58560, Note_on_c, 0, 60, 64
3, 58668, Note_off_c, 0, 60, 64
3, 58680, Note_on_c, 0, 55, 64
3, 58788, Note_off_c, 0, 55, 64
3, 58800, Note_on_c, 0, 52, 64
3, 58908, Note_off_c, 0, 52, 64
3, 58920, Note_on_c, 0, 48, 64
3, 59028, Note_off_c, 0, 48, 64
3, 59040, Note_on_c, 0, 53, 64
3, 59232, Note_off_c, 0, 53, 64
3, 59280, Note_on_c, 0, 41, 64
3, 59388, Note_off_c, 0, 41, 64
3, 59760, Note_on_c, 0, 65, 64
3, 59760, Note_on_c, 0, 55, 64
3, 59760, Note_on_c, 0, 59, 64
3, 59952, Note_off_c, 0, 59, 64
3, 59952, Note_off_c, 0, 55, 64
3, 59952, Note_off_c, 0, 65, 64
3, 60000, Note_on_c, 0, 59, 64
3, 60000, Note_on_c, 0, 65, 64
3, 60000, Note_on_c, 0, 55, 64
3, 60108, Note_off_c, 0, 55, 64
3, 60108, Note_off_c, 0, 65, 64
3, 60108, Note_off_c, 0, 59, 64
3, 60480, Note_on_c, 0, 64, 64
3, 60480, Note_on_c, 0, 60, 64
3, 60672, Note_off_c, 0, 60, 64
3, 60672, Note_off_c, 0, 64, 64
3, 60720, Note_on_c, 0, 60, 64
3, 60720, Note_on_c, 0, 64, 64
3, 60828, Note_off_c, 0, 64, 64
3, 60828, Note_off_c, 0, 60, 64
3, 61200, Note_on_c, 0, 47, 64
3, 61200, Note_on_c, 0, 53, 64
3, 61200, Note_on_c, 0, 43, 64
3, 61392, Note_off_c, 0, 43, 64
3, 61392, Note_off_c, 0, 53, 64
3, 61392, Note_off_c, 0, 47, 64
3, 61440, Note_on_c, 0, 53, 64
3, 61440, Note_on_c, 0, 47, 64
3, 61440, Note_on_c, 0, 43, 64
3, 61548, Note_off_c, 0, 43, 64
3, 61548, Note_off_c, 0, 47, 64
3, 61548, Note_off_c, 0, 53, 64
3, 61680, Note_on_c, 0, 53, 64
3, 61680, Note_on_c, 0, 47, 64
3, 61680, Note_on_c, 0, 43, 64
3, 61788, Note_off_c, 0, 43, 64
3, 61788, Note_off_c, 0, 47, 64
3, 61788, Note_off_c, 0, 53, 64
3, 61920, Note_on_c, 0, 52, 64
3, 61920, Note_on_c, 0, 48, 64
3, 62136, Note_off_c, 0, 48, 64
3, 62136, Note_off_c, 0, 52, 64
3, 62400, Note_on_c, 0, 60, 64
3, 62400, Note_on_c, 0, 48, 64
3, 62592, Note_off_c, 0, 48, 64
3, 62592, Note_off_c, 0, 60, 64
3, 62640, Note_on_c, 0, 59, 64
3, 62640, Note_on_c, 0, 47, 64
3, 63024, Note_off_c, 0, 47, 64
3, 63024, Note_off_c, 0, 59, 64
3, 63120, Note_on_c, 0, 46, 64
3, 63120, Note_on_c, 0, 58, 64
3, 63228, Note_off_c, 0, 58, 64
3, 63228, Note_off_c, 0, 46, 64
3, 63360, Note_on_c, 0, 45, 64
3, 63360, Note_on_c, 0, 57, 64
3, 63468, Note_off_c, 0, 57, 64
3, 63468, Note_off_c, 0, 45, 64
3, 63600, Note_on_c, 0, 55, 64
3, 63600, Note_on_c, 0, 43, 64
3, 63696, Note_off_c, 0, 43, 64
3, 63696, Note_off_c, 0, 55, 64
3, 63720, Note_on_c, 0, 53, 64
3, 63720, Note_on_c, 0, 41, 64
3, 63816, Note_off_c, 0, 41, 64
3, 63816, Note_off_c, 0, 53, 64
3, 63840, Note_on_c, 0, 52, 64
3, 63840, Note_on_c, 0, 40, 64
3, 63948, Note_off_c, 0, 40, 64
3, 63948, Note_off_c, 0, 52, 64
3, 64080, Note_on_c, 0, 53, 64
3, 64080, Note_on_c, 0, 41, 64
3, 64188, Note_off_c, 0, 41, 64
3, 64188, Note_off_c, 0, 53, 64
3, 64320, Note_on_c, 0, 38, 64
3, 64320, Note_on_c, 0, 50, 64
3, 64428, Note_off_c, 0, 50, 64
3, 64428, Note_off_c, 0, 38, 64
3, 64560, Note_on_c, 0, 43, 64
3, 64560, Note_on_c, 0, 55, 64
3, 64668, Note_off_c, 0, 55, 64
3, 64668, Note_off_c, 0, 43, 64
3, 64800, Note_on_c, 0, 40, 64
3, 64800, Note_on_c, 0, 52, 64
3, 64992, Note_off_c, 0, 52, 64
3, 64992, Note_off_c, 0, 40, 64
3, 65040, Note_on_c, 0, 36, 64
3, 65040, Note_on_c, 0, 48, 64
3, 65148, Note_off_c, 0, 48, 64
3, 65148, Note_off_c, 0, 36, 64
3, 65520, Note_on_c, 0, 58, 64
3, 65712, Note_off_c, 0, 58, 64
3, 65760, Note_on_c, 0, 58, 64
3, 65868, Note_off_c, 0, 58, 64
3, 66000, Note_on_c, 0, 58, 64
3, 66108, Note_off_c, 0, 58, 64
3, 66240, Note_on_c, 0, 57, 64
3, 66432, Note_off_c, 0, 57, 64
3, 66480, Note_on_c, 0, 57, 64
3, 66588, Note_off_c, 0, 57, 64
3, 66720, Note_on_c, 0, 57, 64
3, 66828, Note_off_c, 0, 57, 64
3, 66960, Note_on_c, 0, 58, 64
3, 67152, Note_off_c, 0, 58, 64
3, 67200, Note_on_c, 0, 58, 64
3, 67308, Note_off_c, 0, 58, 64
3, 67440, Note_on_c, 0, 58, 64
3, 67548, Note_off_c, 0, 58, 64
3, 67680, Note_on_c, 0, 53, 64
3, 67776, Note_off_c, 0, 53, 64
3, 67800, Note_on_c, 0, 57, 64
3, 67896, Note_off_c, 0, 57, 64
3, 67920, Note_on_c, 0, 60, 64
3, 68016, Note_off_c, 0, 60, 64
3, 68040, Note_on_c, 0, 57, 64
3, 68136, Note_off_c, 0, 57, 64
3, 68160, Note_on_c, 0, 60, 64
3, 68256, Note_off_c, 0, 60, 64
3, 68280, Note_on_c, 0, 57, 64
3, 68376, Note_off_c, 0, 57, 64
3, 68400, Note_on_c, 0, 53, 64
3, 68496, Note_off_c, 0, 53, 64
3, 68520, Note_on_c, 0, 57, 64
3, 68616, Note_off_c, 0, 57, 64
3, 68640, Note_on_c, 0, 60, 64
3, 68736, Note_off_c, 0, 60, 64
3, 68760, Note_on_c, 0, 57, 64
3, 68856, Note_off_c, 0, 57, 64
3, 68880, Note_on_c, 0, 60, 64
3, 68976, Note_off_c, 0, 60, 64
3, 69000, Note_on_c, 0, 57, 64
3, 69096, Note_off_c, 0, 57, 64
3, 69120, Note_on_c, 0, 53, 64
3, 69216, Note_off_c, 0, 53, 64
3, 69240, Note_on_c, 0, 57, 64
3, 69336, Note_off_c, 0, 57, 64
3, 69360, Note_on_c, 0, 60, 64
3, 69456, Note_off_c, 0, 60, 64
3, 69480, Note_on_c, 0, 65, 64
3, 69576, Note_off_c, 0, 65, 64
3, 69600, Note_on_c, 0, 60, 64
3, 69696, Note_off_c, 0, 60, 64
3, 69720, Note_on_c, 0, 57, 64
3, 69816, Note_off_c, 0, 57, 64
3, 69840, Note_on_c, 0, 55, 64
3, 70032, Note_off_c, 0, 55, 64
3, 70080, Note_on_c, 0, 58, 64
3, 70272, Note_off_c, 0, 58, 64
3, 70320, Note_on_c, 0, 60, 64
3, 70512, Note_off_c, 0, 60, 64
3, 70560, Note_on_c, 0, 53, 64
3, 70752, Note_off_c, 0, 53, 64
3, 70800, Note_on_c, 0, 41, 64
3, 70908, Note_off_c, 0, 41, 64
3, 70908, End_track
4, 0, Start_track
4, 18000, Note_on_c, 0, 52, 64
4, 18096, Note_off_c, 0, 52, 64
4, 18120, Note_on_c, 0, 48, 64
4, 18216, Note_off_c, 0, 48, 64
4, 18240, Note_on_c, 0, 52, 64
4, 18336, Note_off_c, 0, 52, 64
4, 18360, Note_on_c, 0, 48, 64
4, 18456, Note_off_c, 0, 48, 64
4, 18480, Note_on_c, 0, 52, 64
4, 18576, Note_off_c, 0, 52, 64
4, 18600, Note_on_c, 0, 48, 64
4, 18696, Note_off_c, 0, 48, 64
4, 18720, Note_on_c, 0, 53, 64
4, 18816, Note_off_c, 0, 53, 64
4, 18840, Note_on_c, 0, 48, 64
4, 18936, Note_off_c, 0, 48, 64
4, 18960, Note_on_c, 0, 53, 64
4, 19056, Note_off_c, 0, 53, 64
4, 19080, Note_on_c, 0, 48, 64
4, 19176, Note_off_c, 0, 48, 64
4, 19200, Note_on_c, 0, 53, 64
4, 19296, Note_off_c, 0, 53, 64
4, 19320, Note_on_c, 0, 48, 64
4, 19416, Note_off_c, 0, 48, 64
4, 19440, Note_on_c, 0, 52, 64
4, 19536, Note_off_c, 0, 52, 64
4, 19560, Note_on_c, 0, 48, 64
4, 19656, Note_off_c, 0, 48, 64
4, 19680, Note_on_c, 0, 52, 64
4, 19776, Note_off_c, 0, 52, 64
4, 19800, Note_on_c, 0, 48, 64
4, 19896, Note_off_c, 0, 48, 64
4, 19920, Note_on_c, 0, 52, 64
4, 20016, Note_off_c, 0, 52, 64
4, 20040, Note_on_c, 0, 48, 64
4, 20136, Note_off_c, 0, 48, 64
4, 26640, Note_on_c, 0, 52, 64
4, 26736, Note_off_c, 0, 52, 64
4, 26760, Note_on_c, 0, 48, 64
4, 26856, Note_off_c, 0, 48, 64
4, 26880, Note_on_c, 0, 52, 64
4, 26976, Note_off_c, 0, 52, 64
4, 27000, Note_on_c, 0, 48, 64
4, 27096, Note_off_c, 0, 48, 64
4, 27120, Note_on_c, 0, 52, 64
4, 27216, Note_off_c, 0, 52, 64
4, 27240, Note_on_c, 0, 48, 64
4, 27336, Note_off_c, 0, 48, 64
4, 27360, Note_on_c, 0, 53, 64
4, 27456, Note_off_c, 0, 53, 64
4, 27480, Note_on_c, 0, 48, 64
4, 27576, Note_off_c, 0, 48, 64
4, 27600, Note_on_c, 0, 53, 64
4, 27696, Note_off_c, 0, 53, 64
4, 27720, Note_on_c, 0, 48, 64
4, 27816, Note_off_c, 0, 48, 64
4, 27840, Note_on_c, 0, 53, 64
4, 27936, Note_off_c, 0, 53, 64
4, 27960, Note_on_c, 0, 48, 64
4, 28056, Note_off_c, 0, 48, 64
4, 28080, Note_on_c, 0, 52, 64
4, 28176, Note_off_c, 0, 52, 64
4, 28200, Note_on_c, 0, 48, 64
4, 28296, Note_off_c, 0, 48, 64
4, 28320, Note_on_c, 0, 52, 64
4, 28416, Note_off_c, 0, 52, 64
4, 28440, Note_on_c, 0, 48, 64
4, 28536, Note_off_c, 0, 48, 64
4, 28560, Note_on_c, 0, 52, 64
4, 28656, Note_off_c, 0, 52, 64
4, 28680, Note_on_c, 0, 48, 64
4, 28776, Note_off_c, 0, 48, 64
4, 65520, Note_on_c, 0, 52, 64
4, 65616, Note_off_c, 0, 52, 64
4, 65640, Note_on_c, 0, 48, 64
4, 65736, Note_off_c, 0, 48, 64
4, 65760, Note_on_c, 0, 52, 64
4, 65856, Note_off_c, 0, 52, 64
4, 65880, Note_on_c, 0, 48, 64
4, 65976, Note_off_c, 0, 48, 64
4, 66000, Note_on_c, 0, 52, 64
4, 66096, Note_off_c, 0, 52, 64
4, 66120, Note_on_c, 0, 48, 64
4, 66216, Note_off_c, 0, 48, 64
4, 66240, Note_on_c, 0, 53, 64
4, 66336, Note_off_c, 0, 53, 64
4, 66360, Note_on_c, 0, 48, 64
4, 66456, Note_off_c, 0, 48, 64
4, 66480, Note_on_c, 0, 53, 64
4, 66576, Note_off_c, 0, 53, 64
4, 66600, Note_on_c, 0, 48, 64
4, 66696, Note_off_c, 0, 48, 64
4, 66720, Note_on_c, 0, 53, 64
4, 66816, Note_off_c, 0, 53, 64
4, 66840, Note_on_c, 0, 48, 64
4, 66936, Note_off_c, 0, 48, 64
4, 66960, Note_on_c, 0, 52, 64
4, 67056, Note_off_c, 0, 52, 64
4, 67080, Note_on_c, 0, 48, 64
4, 67176, Note_off_c, 0, 48, 64
4, 67200, Note_on_c, 0, 52, 64
4, 67296, Note_off_c, 0, 52, 64
4, 67320, Note_on_c, 0, 48, 64
4, 67416, Note_off_c, 0, 48, 64
4, 67440, Note_on_c, 0, 52, 64
4, 67536, Note_off_c, 0, 52, 64
4, 67560, Note_on_c, 0, 48, 64
4, 67656, Note_off_c, 0, 48, 64
4, 67656, End_track
0, 0, End_of_file