0, 0, Header, 1, 20, 384
1, 0, Start_track
1, 0, Title_t, "untitled"
1, 0, System_exclusive, 05, 7E, 7F, 09, 01, F7
1, 0, Time_signature, 4, 2, 24, 8
1, 0, Key_signature, 0, "major"
1, 0, Tempo, 400000
1, 101120, Tempo, 397351
1, 101376, Tempo, 394711
1, 101376, End_track
2, 0, Start_track
2, 0, Title_t, "crni bass"
2, 384, Program_c, 0, 71
2, 385, Control_c, 0, 7, 73
2, 385, Control_c, 0, 10, 55
2, 576, Control_c, 0, 91, 120
2, 3064, Note_on_c, 0, 65, 91
2, 3072, Note_on_c, 0, 74, 103
2, 3730, Note_on_c, 0, 74, 0
2, 3742, Note_on_c, 0, 65, 0
2, 3832, Note_on_c, 0, 69, 99
2, 3836, Note_on_c, 0, 65, 90
2, 4504, Note_on_c, 0, 65, 0
2, 4514, Note_on_c, 0, 69, 0
2, 4590, Note_on_c, 0, 76, 95
2, 4590, Note_on_c, 0, 67, 91
2, 5998, Note_on_c, 0, 67, 0
2, 6048, Note_on_c, 0, 76, 0
2, 6130, Note_on_c, 0, 67, 92
2, 6138, Note_on_c, 0, 76, 94
2, 6826, Note_on_c, 0, 67, 0
2, 6850, Note_on_c, 0, 76, 0
2, 6876, Note_on_c, 0, 67, 88
2, 6906, Note_on_c, 0, 69, 92
2, 7544, Note_on_c, 0, 67, 0
2, 7600, Note_on_c, 0, 69, 0
2, 7658, Note_on_c, 0, 65, 91
2, 7660, Note_on_c, 0, 77, 92
2, 8692, Note_on_c, 0, 65, 0
2, 8736, Note_on_c, 0, 77, 0
2, 8816, Note_on_c, 0, 74, 94
2, 8822, Note_on_c, 0, 65, 87
2, 9070, Note_on_c, 0, 65, 0
2, 9096, Note_on_c, 0, 74, 0
2, 9210, Note_on_c, 0, 67, 90
2, 9214, Note_on_c, 0, 73, 97
2, 9400, Note_on_c, 0, 67, 0
2, 9424, Note_on_c, 0, 73, 0
2, 9592, Note_on_c, 0, 74, 96
2, 9598, Note_on_c, 0, 69, 89
2, 9778, Note_on_c, 0, 69, 0
2, 9838, Note_on_c, 0, 74, 0
2, 10358, Note_on_c, 0, 74, 96
2, 10366, Note_on_c, 0, 65, 88
2, 10556, Note_on_c, 0, 74, 0
2, 10572, Note_on_c, 0, 65, 0
2, 10750, Note_on_c, 0, 64, 89
2, 10754, Note_on_c, 0, 76, 94
2, 10920, Note_on_c, 0, 76, 0
2, 10924, Note_on_c, 0, 64, 0
2, 11116, Note_on_c, 0, 77, 90
2, 11126, Note_on_c, 0, 62, 79
2, 11312, Note_on_c, 0, 77, 0
2, 11340, Note_on_c, 0, 62, 0
2, 11504, Note_on_c, 0, 74, 94
2, 11890, Note_on_c, 0, 69, 92
2, 12148, Note_on_c, 0, 69, 0
2, 12282, Note_on_c, 0, 67, 90
2, 12532, Note_on_c, 0, 67, 0
2, 12582, Note_on_c, 0, 74, 0
2, 12656, Note_on_c, 0, 69, 88
2, 12662, Note_on_c, 0, 77, 91
2, 12910, Note_on_c, 0, 77, 0
2, 12918, Note_on_c, 0, 69, 0
2, 13024, Note_on_c, 0, 70, 89
2, 13052, Note_on_c, 0, 76, 94
2, 13268, Note_on_c, 0, 70, 0
2, 13282, Note_on_c, 0, 76, 0
2, 13424, Note_on_c, 0, 69, 95
2, 13432, Note_on_c, 0, 74, 91
2, 13650, Note_on_c, 0, 69, 0
2, 13674, Note_on_c, 0, 74, 0
2, 13800, Note_on_c, 0, 69, 95
2, 13814, Note_on_c, 0, 74, 96
2, 14022, Note_on_c, 0, 69, 0
2, 14032, Note_on_c, 0, 74, 0
2, 14200, Note_on_c, 0, 73, 93
2, 14208, Note_on_c, 0, 69, 99
2, 14340, Note_on_c, 0, 69, 0
2, 14438, Note_on_c, 0, 73, 0
2, 16106, Note_on_c, 0, 72, 89
2, 16114, Note_on_c, 0, 60, 84
2, 16254, Note_on_c, 0, 72, 0
2, 16306, Note_on_c, 0, 73, 85
2, 16330, Note_on_c, 0, 60, 0
2, 16444, Note_on_c, 0, 73, 0
2, 16488, Note_on_c, 0, 65, 80
2, 16512, Note_on_c, 0, 74, 85
2, 16648, Note_on_c, 0, 74, 0
2, 16698, Note_on_c, 0, 76, 83
2, 16818, Note_on_c, 0, 76, 0
2, 16902, Note_on_c, 0, 77, 95
2, 17118, Note_on_c, 0, 65, 0
2, 17242, Note_on_c, 0, 70, 79
2, 17496, Note_on_c, 0, 70, 0
2, 17624, Note_on_c, 0, 69, 80
2, 17906, Note_on_c, 0, 77, 0
2, 18018, Note_on_c, 0, 72, 99
2, 18272, Note_on_c, 0, 69, 0
2, 18294, Note_on_c, 0, 72, 0
2, 18400, Note_on_c, 0, 65, 79
2, 18430, Note_on_c, 0, 69, 95
2, 18586, Note_on_c, 0, 65, 0
2, 18686, Note_on_c, 0, 69, 0
2, 18796, Note_on_c, 0, 60, 80
2, 18816, Note_on_c, 0, 65, 89
2, 19016, Note_on_c, 0, 60, 0
2, 19070, Note_on_c, 0, 65, 0
2, 19170, Note_on_c, 0, 65, 80
2, 19194, Note_on_c, 0, 69, 91
2, 19392, Note_on_c, 0, 69, 0
2, 19396, Note_on_c, 0, 65, 0
2, 19548, Note_on_c, 0, 69, 82
2, 19572, Note_on_c, 0, 72, 94
2, 19774, Note_on_c, 0, 69, 0
2, 19784, Note_on_c, 0, 72, 0
2, 19950, Note_on_c, 0, 75, 98
2, 19956, Note_on_c, 0, 72, 81
2, 20638, Note_on_c, 0, 72, 0
2, 20678, Note_on_c, 0, 75, 0
2, 20726, Note_on_c, 0, 69, 78
2, 20732, Note_on_c, 0, 74, 96
2, 21382, Note_on_c, 0, 69, 0
2, 21436, Note_on_c, 0, 74, 0
2, 21484, Note_on_c, 0, 67, 87
2, 21504, Note_on_c, 0, 67, 0
2, 21504, Note_on_c, 0, 67, 87
2, 22622, Note_on_c, 0, 74, 84
2, 22888, Note_on_c, 0, 74, 0
2, 22992, Note_on_c, 0, 67, 0
2, 23020, Note_on_c, 0, 71, 95
2, 23238, Note_on_c, 0, 71, 0
2, 23386, Note_on_c, 0, 62, 80
2, 23398, Note_on_c, 0, 67, 89
2, 23646, Note_on_c, 0, 62, 0
2, 23662, Note_on_c, 0, 67, 0
2, 23786, Note_on_c, 0, 67, 83
2, 23792, Note_on_c, 0, 71, 99
2, 24000, Note_on_c, 0, 71, 0
2, 24002, Note_on_c, 0, 67, 0
2, 24168, Note_on_c, 0, 71, 87
2, 24178, Note_on_c, 0, 74, 101
2, 24396, Note_on_c, 0, 74, 0
2, 24418, Note_on_c, 0, 71, 0
2, 24556, Note_on_c, 0, 77, 95
2, 24558, Note_on_c, 0, 74, 91
2, 25274, Note_on_c, 0, 74, 0
2, 25288, Note_on_c, 0, 77, 0
2, 25332, Note_on_c, 0, 71, 99
2, 25340, Note_on_c, 0, 76, 94
2, 26028, Note_on_c, 0, 71, 0
2, 26046, Note_on_c, 0, 76, 0
2, 26096, Note_on_c, 0, 69, 90
2, 26112, Note_on_c, 0, 76, 90
2, 26820, Note_on_c, 0, 69, 0
2, 26880, Note_on_c, 0, 68, 87
2, 27514, Note_on_c, 0, 68, 0
2, 27636, Note_on_c, 0, 69, 87
2, 27868, Note_on_c, 0, 69, 0
2, 28030, Note_on_c, 0, 72, 87
2, 28360, Note_on_c, 0, 76, 0
2, 28414, Note_on_c, 0, 74, 96
2, 28728, Note_on_c, 0, 72, 0
2, 28798, Note_on_c, 0, 71, 89
2, 28926, Note_on_c, 0, 71, 0
2, 28962, Note_on_c, 0, 69, 80
2, 29098, Note_on_c, 0, 69, 0
2, 29160, Note_on_c, 0, 68, 88
2, 29432, Note_on_c, 0, 68, 0
2, 29464, Note_on_c, 0, 74, 0
2, 29528, Note_on_c, 0, 69, 88
2, 29560, Note_on_c, 0, 72, 92
2, 29850, Note_on_c, 0, 72, 0
2, 29922, Note_on_c, 0, 71, 91
2, 30254, Note_on_c, 0, 69, 0
2, 30286, Note_on_c, 0, 68, 81
2, 30644, Note_on_c, 0, 71, 0
2, 30648, Note_on_c, 0, 68, 0
2, 30696, Note_on_c, 0, 69, 83
2, 30696, Note_on_c, 0, 69, 0
2, 30696, Note_on_c, 0, 69, 89
2, 30950, Note_on_c, 0, 69, 0
2, 35310, Note_on_c, 0, 72, 101
2, 35334, Note_on_c, 0, 69, 90
2, 35992, Note_on_c, 0, 69, 0
2, 36034, Note_on_c, 0, 72, 0
2, 36084, Note_on_c, 0, 69, 87
2, 36096, Note_on_c, 0, 72, 82
2, 36784, Note_on_c, 0, 69, 0
2, 36804, Note_on_c, 0, 72, 0
2, 36848, Note_on_c, 0, 71, 81
2, 36860, Note_on_c, 0, 74, 87
2, 38312, Note_on_c, 0, 71, 0
2, 38330, Note_on_c, 0, 74, 0
2, 38380, Note_on_c, 0, 71, 77
2, 38392, Note_on_c, 0, 74, 90
2, 39096, Note_on_c, 0, 71, 0
2, 39124, Note_on_c, 0, 74, 0
2, 39156, Note_on_c, 0, 71, 80
2, 39170, Note_on_c, 0, 74, 91
2, 39878, Note_on_c, 0, 74, 0
2, 39880, Note_on_c, 0, 71, 0
2, 39926, Note_on_c, 0, 69, 75
2, 39932, Note_on_c, 0, 72, 88
2, 41344, Note_on_c, 0, 69, 0
2, 41372, Note_on_c, 0, 72, 0
2, 41448, Note_on_c, 0, 69, 88
2, 41462, Note_on_c, 0, 77, 92
2, 41652, Note_on_c, 0, 69, 0
2, 41680, Note_on_c, 0, 77, 0
2, 41838, Note_on_c, 0, 72, 90
2, 41854, Note_on_c, 0, 76, 99
2, 41984, Note_on_c, 0, 72, 0
2, 42038, Note_on_c, 0, 76, 0
2, 42594, Note_on_c, 0, 72, 87
2, 42624, Note_on_c, 0, 76, 96
2, 42742, Note_on_c, 0, 72, 0
2, 42798, Note_on_c, 0, 76, 0
2, 43002, Note_on_c, 0, 68, 83
2, 43014, Note_on_c, 0, 74, 96
2, 43166, Note_on_c, 0, 68, 0
2, 43188, Note_on_c, 0, 74, 0
2, 43382, Note_on_c, 0, 69, 84
2, 43392, Note_on_c, 0, 72, 89
2, 43578, Note_on_c, 0, 69, 0
2, 43614, Note_on_c, 0, 72, 0
2, 44144, Note_on_c, 0, 72, 83
2, 44150, Note_on_c, 0, 76, 94
2, 44240, Note_on_c, 0, 72, 0
2, 44318, Note_on_c, 0, 71, 83
2, 44408, Note_on_c, 0, 76, 0
2, 44414, Note_on_c, 0, 71, 0
2, 44526, Note_on_c, 0, 69, 83
2, 44542, Note_on_c, 0, 74, 96
2, 44772, Note_on_c, 0, 69, 0
2, 44816, Note_on_c, 0, 74, 0
2, 44912, Note_on_c, 0, 67, 83
2, 44934, Note_on_c, 0, 72, 88
2, 45166, Note_on_c, 0, 67, 0
2, 45178, Note_on_c, 0, 72, 0
2, 45296, Note_on_c, 0, 65, 84
2, 45302, Note_on_c, 0, 70, 90
2, 45536, Note_on_c, 0, 65, 0
2, 45572, Note_on_c, 0, 70, 0
2, 45676, Note_on_c, 0, 64, 84
2, 45686, Note_on_c, 0, 69, 87
2, 45912, Note_on_c, 0, 64, 0
2, 45958, Note_on_c, 0, 69, 0
2, 46064, Note_on_c, 0, 64, 80
2, 46072, Note_on_c, 0, 69, 92
2, 46270, Note_on_c, 0, 64, 0
2, 46320, Note_on_c, 0, 69, 0
2, 46434, Note_on_c, 0, 68, 87
2, 46458, Note_on_c, 0, 64, 77
2, 46688, Note_on_c, 0, 64, 0
2, 46718, Note_on_c, 0, 68, 0
2, 46846, Note_on_c, 0, 67, 89
2, 46854, Note_on_c, 0, 71, 99
2, 47566, Note_on_c, 0, 67, 0
2, 47616, Note_on_c, 0, 68, 85
2, 48284, Note_on_c, 0, 68, 0
2, 48370, Note_on_c, 0, 67, 88
2, 48640, Note_on_c, 0, 67, 0
2, 48768, Note_on_c, 0, 65, 88
2, 48988, Note_on_c, 0, 71, 0
2, 49064, Note_on_c, 0, 65, 0
2, 49114, Note_on_c, 0, 63, 93
2, 49130, Note_on_c, 0, 72, 92
2, 49830, Note_on_c, 0, 63, 0
2, 49842, Note_on_c, 0, 72, 0
2, 49888, Note_on_c, 0, 63, 81
2, 49920, Note_on_c, 0, 72, 88
2, 50582, Note_on_c, 0, 63, 0
2, 50590, Note_on_c, 0, 72, 0
2, 50674, Note_on_c, 0, 75, 90
2, 50686, Note_on_c, 0, 67, 90
2, 50954, Note_on_c, 0, 67, 0
2, 51006, Note_on_c, 0, 75, 0
2, 51072, Note_on_c, 0, 72, 87
2, 51080, Note_on_c, 0, 67, 94
2, 51334, Note_on_c, 0, 72, 0
2, 51338, Note_on_c, 0, 67, 0
2, 51440, Note_on_c, 0, 67, 91
2, 51444, Note_on_c, 0, 67, 0
2, 51444, Note_on_c, 0, 67, 90
2, 51712, Note_on_c, 0, 67, 0
2, 51814, Note_on_c, 0, 72, 87
2, 51822, Note_on_c, 0, 67, 89
2, 52090, Note_on_c, 0, 67, 0
2, 52128, Note_on_c, 0, 72, 0
2, 52200, Note_on_c, 0, 67, 89
2, 52204, Note_on_c, 0, 72, 84
2, 52528, Note_on_c, 0, 72, 0
2, 52578, Note_on_c, 0, 73, 78
2, 52890, Note_on_c, 0, 67, 0
2, 52892, Note_on_c, 0, 73, 0
2, 52948, Note_on_c, 0, 67, 78
2, 52980, Note_on_c, 0, 73, 89
2, 53672, Note_on_c, 0, 67, 0
2, 53674, Note_on_c, 0, 73, 0
2, 53762, Note_on_c, 0, 67, 90
2, 53770, Note_on_c, 0, 73, 95
2, 54458, Note_on_c, 0, 73, 0
2, 54466, Note_on_c, 0, 67, 0
2, 54524, Note_on_c, 0, 73, 84
2, 54540, Note_on_c, 0, 64, 85
2, 55206, Note_on_c, 0, 73, 0
2, 55208, Note_on_c, 0, 64, 0
2, 55276, Note_on_c, 0, 76, 91
2, 55286, Note_on_c, 0, 67, 87
2, 55586, Note_on_c, 0, 67, 0
2, 55632, Note_on_c, 0, 76, 0
2, 55682, Note_on_c, 0, 73, 90
2, 55688, Note_on_c, 0, 67, 87
2, 55992, Note_on_c, 0, 67, 0
2, 56004, Note_on_c, 0, 73, 0
2, 56046, Note_on_c, 0, 69, 81
2, 56072, Note_on_c, 0, 64, 80
2, 56346, Note_on_c, 0, 64, 0
2, 56362, Note_on_c, 0, 69, 0
2, 56426, Note_on_c, 0, 69, 87
2, 56434, Note_on_c, 0, 73, 88
2, 56700, Note_on_c, 0, 69, 0
2, 56754, Note_on_c, 0, 73, 0
2, 56808, Note_on_c, 0, 69, 95
2, 56820, Note_on_c, 0, 73, 82
2, 57150, Note_on_c, 0, 73, 0
2, 57198, Note_on_c, 0, 74, 87
2, 57518, Note_on_c, 0, 74, 0
2, 57524, Note_on_c, 0, 69, 0
2, 57596, Note_on_c, 0, 74, 92
2, 57596, Note_on_c, 0, 69, 88
2, 58234, Note_on_c, 0, 74, 0
2, 58272, Note_on_c, 0, 69, 0
2, 58340, Note_on_c, 0, 75, 97
2, 58342, Note_on_c, 0, 70, 89
2, 59080, Note_on_c, 0, 70, 0
2, 59084, Note_on_c, 0, 75, 0
2, 59138, Note_on_c, 0, 72, 90
2, 59138, Note_on_c, 0, 69, 95
2, 59820, Note_on_c, 0, 72, 0
2, 59836, Note_on_c, 0, 69, 0
2, 59888, Note_on_c, 0, 70, 87
2, 59894, Note_on_c, 0, 67, 87
2, 60586, Note_on_c, 0, 67, 0
2, 60610, Note_on_c, 0, 70, 0
2, 60666, Note_on_c, 0, 77, 85
2, 60672, Note_on_c, 0, 69, 88
2, 61358, Note_on_c, 0, 69, 0
2, 61384, Note_on_c, 0, 77, 0
2, 61440, Note_on_c, 0, 70, 91
2, 61454, Note_on_c, 0, 75, 93
2, 62128, Note_on_c, 0, 75, 0
2, 62134, Note_on_c, 0, 70, 0
2, 62204, Note_on_c, 0, 74, 96
2, 62208, Note_on_c, 0, 71, 91
2, 62852, Note_on_c, 0, 71, 0
2, 62876, Note_on_c, 0, 74, 0
2, 62952, Note_on_c, 0, 69, 94
2, 62962, Note_on_c, 0, 74, 101
2, 63170, Note_on_c, 0, 74, 0
2, 63346, Note_on_c, 0, 73, 91
2, 63564, Note_on_c, 0, 73, 0
2, 63728, Note_on_c, 0, 69, 0
2, 66802, Note_on_c, 0, 64, 91
2, 66814, Note_on_c, 0, 69, 92
2, 67478, Note_on_c, 0, 69, 0
2, 67496, Note_on_c, 0, 64, 0
2, 67576, Note_on_c, 0, 68, 94
2, 67584, Note_on_c, 0, 65, 91
2, 67846, Note_on_c, 0, 65, 0
2, 67904, Note_on_c, 0, 68, 0
2, 67966, Note_on_c, 0, 64, 80
2, 67970, Note_on_c, 0, 69, 82
2, 68208, Note_on_c, 0, 69, 0
2, 68214, Note_on_c, 0, 64, 0
2, 68336, Note_on_c, 0, 64, 83
2, 68336, Note_on_c, 0, 69, 94
2, 68930, Note_on_c, 0, 69, 0
2, 69012, Note_on_c, 0, 64, 0
2, 69100, Note_on_c, 0, 68, 94
2, 69100, Note_on_c, 0, 65, 99
2, 69354, Note_on_c, 0, 68, 0
2, 69362, Note_on_c, 0, 65, 0
2, 69478, Note_on_c, 0, 69, 96
2, 69488, Note_on_c, 0, 64, 81
2, 69672, Note_on_c, 0, 69, 0
2, 69694, Note_on_c, 0, 64, 0
2, 72952, Note_on_c, 0, 76, 95
2, 72954, Note_on_c, 0, 69, 92
2, 73628, Note_on_c, 0, 76, 0
2, 73664, Note_on_c, 0, 69, 0
2, 73714, Note_on_c, 0, 77, 99
2, 73720, Note_on_c, 0, 68, 90
2, 74016, Note_on_c, 0, 68, 0
2, 74018, Note_on_c, 0, 77, 0
2, 74112, Note_on_c, 0, 76, 92
2, 74112, Note_on_c, 0, 69, 84
2, 74368, Note_on_c, 0, 69, 0
2, 74376, Note_on_c, 0, 76, 0
2, 74474, Note_on_c, 0, 69, 78
2, 74486, Note_on_c, 0, 76, 95
2, 75136, Note_on_c, 0, 76, 0
2, 75138, Note_on_c, 0, 69, 0
2, 75236, Note_on_c, 0, 68, 90
2, 75260, Note_on_c, 0, 77, 95
2, 75498, Note_on_c, 0, 77, 0
2, 75508, Note_on_c, 0, 68, 0
2, 75630, Note_on_c, 0, 76, 96
2, 75638, Note_on_c, 0, 69, 88
2, 75792, Note_on_c, 0, 76, 0
2, 75804, Note_on_c, 0, 69, 0
2, 79096, Note_on_c, 0, 74, 110
2, 79102, Note_on_c, 0, 67, 89
2, 79726, Note_on_c, 0, 74, 0
2, 79728, Note_on_c, 0, 67, 0
2, 79844, Note_on_c, 0, 69, 87
2, 79864, Note_on_c, 0, 72, 101
2, 80006, Note_on_c, 0, 69, 0
2, 80038, Note_on_c, 0, 72, 0
2, 80038, Note_on_c, 0, 70, 71
2, 80044, Note_on_c, 0, 74, 80
2, 80130, Note_on_c, 0, 74, 0
2, 80150, Note_on_c, 0, 70, 0
2, 80234, Note_on_c, 0, 69, 85
2, 80242, Note_on_c, 0, 72, 95
2, 80364, Note_on_c, 0, 69, 0
2, 80390, Note_on_c, 0, 72, 0
2, 80406, Note_on_c, 0, 70, 78
2, 80428, Note_on_c, 0, 74, 90
2, 80522, Note_on_c, 0, 74, 0
2, 80530, Note_on_c, 0, 70, 0
2, 80614, Note_on_c, 0, 69, 87
2, 80622, Note_on_c, 0, 72, 94
2, 80752, Note_on_c, 0, 69, 0
2, 80770, Note_on_c, 0, 72, 0
2, 80784, Note_on_c, 0, 70, 79
2, 80816, Note_on_c, 0, 74, 89
2, 80906, Note_on_c, 0, 70, 0
2, 80920, Note_on_c, 0, 74, 0
2, 80980, Note_on_c, 0, 69, 87
2, 81006, Note_on_c, 0, 72, 90
2, 81084, Note_on_c, 0, 69, 0
2, 81124, Note_on_c, 0, 72, 0
2, 81148, Note_on_c, 0, 70, 76
2, 81190, Note_on_c, 0, 74, 90
2, 81276, Note_on_c, 0, 70, 0
2, 81320, Note_on_c, 0, 74, 0
2, 81368, Note_on_c, 0, 69, 92
2, 81398, Note_on_c, 0, 76, 91
2, 81564, Note_on_c, 0, 76, 0
2, 81590, Note_on_c, 0, 69, 0
2, 81760, Note_on_c, 0, 69, 94
2, 81770, Note_on_c, 0, 73, 90
2, 82250, Note_on_c, 0, 73, 0
2, 82288, Note_on_c, 0, 69, 0
2, 82548, Note_on_c, 0, 64, 87
2, 82560, Note_on_c, 0, 73, 95
2, 82746, Note_on_c, 0, 64, 0
2, 82754, Note_on_c, 0, 73, 0
2, 82942, Note_on_c, 0, 65, 95
2, 82954, Note_on_c, 0, 74, 101
2, 83118, Note_on_c, 0, 74, 0
2, 83172, Note_on_c, 0, 65, 0
2, 83326, Note_on_c, 0, 73, 95
2, 83336, Note_on_c, 0, 64, 92
2, 83548, Note_on_c, 0, 73, 0
2, 83552, Note_on_c, 0, 64, 0
2, 83710, Note_on_c, 0, 74, 99
2, 83712, Note_on_c, 0, 65, 95
2, 83860, Note_on_c, 0, 74, 0
2, 83908, Note_on_c, 0, 65, 0
2, 84078, Note_on_c, 0, 73, 93
2, 84086, Note_on_c, 0, 64, 94
2, 84270, Note_on_c, 0, 73, 0
2, 84290, Note_on_c, 0, 64, 0
2, 84460, Note_on_c, 0, 65, 96
2, 84470, Note_on_c, 0, 74, 96
2, 84634, Note_on_c, 0, 65, 0
2, 84644, Note_on_c, 0, 74, 0
2, 84834, Note_on_c, 0, 64, 91
2, 84854, Note_on_c, 0, 73, 92
2, 85054, Note_on_c, 0, 64, 0
2, 85060, Note_on_c, 0, 73, 0
2, 85614, Note_on_c, 0, 74, 99
2, 85616, Note_on_c, 0, 65, 95
2, 85816, Note_on_c, 0, 74, 0
2, 85828, Note_on_c, 0, 65, 0
2, 85992, Note_on_c, 0, 67, 101
2, 86006, Note_on_c, 0, 76, 96
2, 86190, Note_on_c, 0, 76, 0
2, 86232, Note_on_c, 0, 67, 0
2, 86386, Note_on_c, 0, 74, 94
2, 86390, Note_on_c, 0, 65, 92
2, 86586, Note_on_c, 0, 74, 0
2, 86600, Note_on_c, 0, 65, 0
2, 86768, Note_on_c, 0, 76, 96
2, 86768, Note_on_c, 0, 67, 103
2, 86960, Note_on_c, 0, 76, 0
2, 86976, Note_on_c, 0, 67, 0
2, 87148, Note_on_c, 0, 65, 91
2, 87158, Note_on_c, 0, 74, 92
2, 87340, Note_on_c, 0, 65, 0
2, 87352, Note_on_c, 0, 74, 0
2, 87540, Note_on_c, 0, 67, 96
2, 87546, Note_on_c, 0, 76, 94
2, 87716, Note_on_c, 0, 76, 0
2, 87724, Note_on_c, 0, 67, 0
2, 87922, Note_on_c, 0, 65, 90
2, 87926, Note_on_c, 0, 74, 91
2, 88114, Note_on_c, 0, 74, 0
2, 88128, Note_on_c, 0, 65, 0
2, 89444, Note_on_c, 0, 74, 108
2, 89450, Note_on_c, 0, 65, 103
2, 90118, Note_on_c, 0, 74, 0
2, 90124, Note_on_c, 0, 65, 0
2, 90220, Note_on_c, 0, 65, 91
2, 90234, Note_on_c, 0, 74, 96
2, 90466, Note_on_c, 0, 65, 0
2, 90486, Note_on_c, 0, 74, 0
2, 90614, Note_on_c, 0, 77, 87
2, 90614, Note_on_c, 0, 69, 96
2, 90736, Note_on_c, 0, 69, 0
2, 90810, Note_on_c, 0, 77, 0
2, 90988, Note_on_c, 0, 65, 96
2, 90998, Note_on_c, 0, 74, 94
2, 91154, Note_on_c, 0, 65, 0
2, 91172, Note_on_c, 0, 74, 0
2, 92926, Note_on_c, 0, 67, 101
2, 92928, Note_on_c, 0, 74, 99
2, 93350, Note_on_c, 0, 74, 0
2, 93378, Note_on_c, 0, 67, 0
2, 93468, Note_on_c, 0, 74, 90
2, 93498, Note_on_c, 0, 67, 94
2, 93606, Note_on_c, 0, 67, 0
2, 93610, Note_on_c, 0, 74, 0
2, 93680, Note_on_c, 0, 67, 92
2, 93688, Note_on_c, 0, 73, 93
2, 93912, Note_on_c, 0, 73, 0
2, 93994, Note_on_c, 0, 67, 0
2, 94072, Note_on_c, 0, 65, 92
2, 94078, Note_on_c, 0, 74, 99
2, 94316, Note_on_c, 0, 65, 0
2, 94458, Note_on_c, 0, 64, 92
2, 94664, Note_on_c, 0, 74, 0
2, 94822, Note_on_c, 0, 73, 95
2, 95100, Note_on_c, 0, 73, 0
2, 95104, Note_on_c, 0, 64, 0
2, 95228, Note_on_c, 0, 74, 103
2, 95232, Note_on_c, 0, 62, 89
2, 95374, Note_on_c, 0, 62, 0
2, 95460, Note_on_c, 0, 74, 0
2, 95596, Note_on_c, 0, 65, 105
2, 95612, Note_on_c, 0, 74, 103
2, 96244, Note_on_c, 0, 74, 0
2, 96252, Note_on_c, 0, 65, 0
2, 96344, Note_on_c, 0, 74, 101
2, 96350, Note_on_c, 0, 65, 91
2, 96582, Note_on_c, 0, 74, 0
2, 96608, Note_on_c, 0, 65, 0
2, 96730, Note_on_c, 0, 77, 94
2, 96744, Note_on_c, 0, 74, 95
2, 96890, Note_on_c, 0, 74, 0
2, 96904, Note_on_c, 0, 77, 0
2, 97112, Note_on_c, 0, 74, 99
2, 97128, Note_on_c, 0, 70, 90
2, 97268, Note_on_c, 0, 70, 0
2, 97292, Note_on_c, 0, 74, 0
2, 99056, Note_on_c, 0, 75, 93
2, 99080, Note_on_c, 0, 67, 92
2, 99516, Note_on_c, 0, 67, 0
2, 99572, Note_on_c, 0, 75, 0
2, 99656, Note_on_c, 0, 67, 91
2, 99662, Note_on_c, 0, 74, 96
2, 99746, Note_on_c, 0, 67, 0
2, 99756, Note_on_c, 0, 74, 0
2, 99850, Note_on_c, 0, 67, 95
2, 99854, Note_on_c, 0, 73, 93
2, 100070, Note_on_c, 0, 67, 0
2, 100080, Note_on_c, 0, 73, 0
2, 100210, Note_on_c, 0, 74, 96
2, 100220, Note_on_c, 0, 65, 89
2, 100420, Note_on_c, 0, 65, 0
2, 100600, Note_on_c, 0, 64, 84
2, 100886, Note_on_c, 0, 74, 0
2, 100970, Note_on_c, 0, 73, 90
2, 101254, Note_on_c, 0, 73, 0
2, 101266, Note_on_c, 0, 64, 0
2, 101356, Note_on_c, 0, 74, 99
2, 101370, Note_on_c, 0, 62, 77
2, 101582, Note_on_c, 0, 74, 0
2, 101660, Note_on_c, 0, 62, 0
2, 104040, Note_on_c, 0, 69, 82
2, 104052, Note_on_c, 0, 69, 0
2, 104052, Note_on_c, 0, 69, 84
2, 104160, Note_on_c, 0, 69, 0
2, 104230, Note_on_c, 0, 73, 90
2, 104236, Note_on_c, 0, 67, 84
2, 104326, Note_on_c, 0, 67, 0
2, 104328, Note_on_c, 0, 73, 0
2, 104414, Note_on_c, 0, 74, 94
2, 104424, Note_on_c, 0, 65, 81
2, 104514, Note_on_c, 0, 65, 0
2, 104594, Note_on_c, 0, 69, 78
2, 104652, Note_on_c, 0, 74, 0
2, 104704, Note_on_c, 0, 69, 0
2, 104816, Note_on_c, 0, 74, 96
2, 104832, Note_on_c, 0, 70, 80
2, 104924, Note_on_c, 0, 70, 0
2, 104976, Note_on_c, 0, 67, 80
2, 105068, Note_on_c, 0, 67, 0
2, 105198, Note_on_c, 0, 65, 83
2, 105444, Note_on_c, 0, 65, 0
2, 105490, Note_on_c, 0, 74, 0
2, 105576, Note_on_c, 0, 64, 80
2, 105580, Note_on_c, 0, 73, 97
2, 105846, Note_on_c, 0, 73, 0
2, 105858, Note_on_c, 0, 64, 0
2, 105962, Note_on_c, 0, 74, 105
2, 105968, Note_on_c, 0, 62, 87
2, 106104, Note_on_c, 0, 62, 0
2, 106136, Note_on_c, 0, 74, 0
2, 106136, End_track
3, 0, Start_track
3, 0, Title_t, "fg"
3, 386, Program_c, 1, 70
3, 387, Control_c, 1, 7, 75
3, 387, Control_c, 1, 10, 70
3, 480, Control_c, 1, 91, 120
3, 3086, Note_on_c, 1, 62, 103
3, 3086, Note_on_c, 1, 65, 96
3, 3772, Note_on_c, 1, 62, 0
3, 3776, Note_on_c, 1, 65, 0
3, 3832, Note_on_c, 1, 62, 92
3, 3854, Note_on_c, 1, 65, 92
3, 4532, Note_on_c, 1, 65, 0
3, 4536, Note_on_c, 1, 62, 0
3, 4588, Note_on_c, 1, 67, 90
3, 4590, Note_on_c, 1, 64, 92
3, 6048, Note_on_c, 1, 64, 0
3, 6054, Note_on_c, 1, 67, 0
3, 6144, Note_on_c, 1, 64, 89
3, 6148, Note_on_c, 1, 61, 97
3, 6820, Note_on_c, 1, 61, 0
3, 6852, Note_on_c, 1, 64, 0
3, 6886, Note_on_c, 1, 61, 90
3, 6914, Note_on_c, 1, 64, 83
3, 7584, Note_on_c, 1, 61, 0
3, 7598, Note_on_c, 1, 64, 0
3, 7658, Note_on_c, 1, 65, 85
3, 7666, Note_on_c, 1, 62, 83
3, 8698, Note_on_c, 1, 62, 0
3, 8712, Note_on_c, 1, 65, 0
3, 8812, Note_on_c, 1, 65, 89
3, 8816, Note_on_c, 1, 50, 99
3, 9032, Note_on_c, 1, 65, 0
3, 9124, Note_on_c, 1, 50, 0
3, 9198, Note_on_c, 1, 64, 92
3, 9202, Note_on_c, 1, 52, 95
3, 9422, Note_on_c, 1, 64, 0
3, 9460, Note_on_c, 1, 52, 0
3, 9588, Note_on_c, 1, 53, 101
3, 9590, Note_on_c, 1, 62, 82
3, 9794, Note_on_c, 1, 62, 0
3, 9890, Note_on_c, 1, 53, 0
3, 10362, Note_on_c, 1, 57, 89
3, 10374, Note_on_c, 1, 53, 105
3, 10558, Note_on_c, 1, 57, 0
3, 10576, Note_on_c, 1, 53, 0
3, 10746, Note_on_c, 1, 49, 93
3, 10748, Note_on_c, 1, 64, 87
3, 10954, Note_on_c, 1, 64, 0
3, 10974, Note_on_c, 1, 49, 0
3, 11112, Note_on_c, 1, 50, 101
3, 11128, Note_on_c, 1, 62, 90
3, 11280, Note_on_c, 1, 62, 0
3, 11420, Note_on_c, 1, 50, 0
3, 11870, Note_on_c, 1, 65, 83
3, 11894, Note_on_c, 1, 62, 92
3, 12026, Note_on_c, 1, 62, 0
3, 12076, Note_on_c, 1, 60, 90
3, 12216, Note_on_c, 1, 60, 0
3, 12222, Note_on_c, 1, 65, 0
3, 12268, Note_on_c, 1, 67, 89
3, 12276, Note_on_c, 1, 58, 91
3, 12568, Note_on_c, 1, 58, 0
3, 12628, Note_on_c, 1, 67, 0
3, 12656, Note_on_c, 1, 65, 80
3, 12662, Note_on_c, 1, 57, 101
3, 12928, Note_on_c, 1, 57, 0
3, 12994, Note_on_c, 1, 65, 0
3, 13034, Note_on_c, 1, 61, 89
3, 13036, Note_on_c, 1, 55, 96
3, 13326, Note_on_c, 1, 55, 0
3, 13346, Note_on_c, 1, 61, 0
3, 13430, Note_on_c, 1, 62, 88
3, 13430, Note_on_c, 1, 53, 101
3, 13672, Note_on_c, 1, 53, 0
3, 13714, Note_on_c, 1, 62, 0
3, 13818, Note_on_c, 1, 57, 103
3, 13818, Note_on_c, 1, 65, 91
3, 13998, Note_on_c, 1, 65, 0
3, 14004, Note_on_c, 1, 57, 0
3, 14188, Note_on_c, 1, 45, 101
3, 14190, Note_on_c, 1, 64, 94
3, 14390, Note_on_c, 1, 64, 0
3, 14396, Note_on_c, 1, 45, 0
3, 16104, Note_on_c, 1, 60, 88
3, 16120, Note_on_c, 1, 60, 0
3, 16120, Note_on_c, 1, 60, 95
3, 16266, Note_on_c, 1, 60, 0
3, 16300, Note_on_c, 1, 61, 88
3, 16314, Note_on_c, 1, 57, 91
3, 16430, Note_on_c, 1, 57, 0
3, 16448, Note_on_c, 1, 61, 0
3, 16492, Note_on_c, 1, 58, 84
3, 16492, Note_on_c, 1, 62, 81
3, 16626, Note_on_c, 1, 58, 0
3, 16636, Note_on_c, 1, 62, 0
3, 16674, Note_on_c, 1, 55, 79
3, 16676, Note_on_c, 1, 64, 82
3, 16806, Note_on_c, 1, 55, 0
3, 16808, Note_on_c, 1, 64, 0
3, 16868, Note_on_c, 1, 53, 101
3, 16884, Note_on_c, 1, 65, 92
3, 17926, Note_on_c, 1, 53, 0
3, 18018, Note_on_c, 1, 53, 95
3, 18316, Note_on_c, 1, 53, 0
3, 18424, Note_on_c, 1, 53, 101
3, 18712, Note_on_c, 1, 53, 0
3, 18804, Note_on_c, 1, 53, 96
3, 19080, Note_on_c, 1, 53, 0
3, 19186, Note_on_c, 1, 53, 99
3, 19472, Note_on_c, 1, 53, 0
3, 19496, Note_on_c, 1, 65, 0
3, 19576, Note_on_c, 1, 60, 96
3, 19576, Note_on_c, 1, 53, 101
3, 19854, Note_on_c, 1, 53, 0
3, 19888, Note_on_c, 1, 60, 0
3, 19938, Note_on_c, 1, 54, 95
3, 19954, Note_on_c, 1, 57, 94
3, 20206, Note_on_c, 1, 57, 0
3, 20340, Note_on_c, 1, 54, 0
3, 20340, Note_on_c, 1, 54, 90
3, 20640, Note_on_c, 1, 54, 0
3, 20720, Note_on_c, 1, 54, 97
3, 20738, Note_on_c, 1, 57, 94
3, 20992, Note_on_c, 1, 57, 0
3, 21122, Note_on_c, 1, 60, 95
3, 21396, Note_on_c, 1, 60, 0
3, 21424, Note_on_c, 1, 54, 0
3, 21498, Note_on_c, 1, 55, 96
3, 21504, Note_on_c, 1, 60, 96
3, 22264, Note_on_c, 1, 60, 0
3, 22282, Note_on_c, 1, 59, 95
3, 22540, Note_on_c, 1, 55, 0
3, 22622, Note_on_c, 1, 55, 99
3, 22916, Note_on_c, 1, 59, 0
3, 22944, Note_on_c, 1, 55, 0
3, 23036, Note_on_c, 1, 67, 103
3, 23038, Note_on_c, 1, 55, 99
3, 23318, Note_on_c, 1, 55, 0
3, 23414, Note_on_c, 1, 55, 99
3, 23710, Note_on_c, 1, 55, 0
3, 23786, Note_on_c, 1, 55, 96
3, 24088, Note_on_c, 1, 67, 0
3, 24098, Note_on_c, 1, 55, 0
3, 24174, Note_on_c, 1, 62, 95
3, 24176, Note_on_c, 1, 55, 101
3, 24468, Note_on_c, 1, 55, 0
3, 24500, Note_on_c, 1, 62, 0
3, 24554, Note_on_c, 1, 59, 88
3, 24562, Note_on_c, 1, 56, 92
3, 24858, Note_on_c, 1, 59, 0
3, 24946, Note_on_c, 1, 56, 0
3, 24946, Note_on_c, 1, 56, 94
3, 25270, Note_on_c, 1, 56, 0
3, 25332, Note_on_c, 1, 56, 93
3, 25334, Note_on_c, 1, 59, 88
3, 25630, Note_on_c, 1, 59, 0
3, 25732, Note_on_c, 1, 62, 89
3, 26038, Note_on_c, 1, 62, 0
3, 26038, Note_on_c, 1, 56, 0
3, 26104, Note_on_c, 1, 57, 103
3, 26114, Note_on_c, 1, 60, 96
3, 26632, Note_on_c, 1, 60, 0
3, 26680, Note_on_c, 1, 57, 0
3, 26680, Note_on_c, 1, 57, 87
3, 26810, Note_on_c, 1, 57, 0
3, 26874, Note_on_c, 1, 62, 91
3, 26884, Note_on_c, 1, 59, 101
3, 27368, Note_on_c, 1, 62, 0
3, 27424, Note_on_c, 1, 59, 0
3, 27424, Note_on_c, 1, 59, 87
3, 27526, Note_on_c, 1, 59, 0
3, 27630, Note_on_c, 1, 60, 91
3, 27636, Note_on_c, 1, 64, 95
3, 27926, Note_on_c, 1, 64, 0
3, 28016, Note_on_c, 1, 57, 99
3, 28320, Note_on_c, 1, 57, 0
3, 28336, Note_on_c, 1, 60, 0
3, 28396, Note_on_c, 1, 62, 94
3, 28794, Note_on_c, 1, 65, 96
3, 29020, Note_on_c, 1, 65, 0
3, 29078, Note_on_c, 1, 62, 0
3, 29168, Note_on_c, 1, 64, 92
3, 29182, Note_on_c, 1, 64, 0
3, 29182, Note_on_c, 1, 64, 103
3, 29394, Note_on_c, 1, 64, 0
3, 29542, Note_on_c, 1, 57, 88
3, 29554, Note_on_c, 1, 64, 103
3, 29784, Note_on_c, 1, 64, 0
3, 29812, Note_on_c, 1, 57, 0
3, 29914, Note_on_c, 1, 52, 96
3, 29942, Note_on_c, 1, 64, 99
3, 30626, Note_on_c, 1, 64, 0
3, 30630, Note_on_c, 1, 52, 0
3, 30692, Note_on_c, 1, 64, 94
3, 30702, Note_on_c, 1, 57, 105
3, 30964, Note_on_c, 1, 64, 0
3, 31098, Note_on_c, 1, 57, 0
3, 31646, Note_on_c, 1, 60, 101
3, 31662, Note_on_c, 1, 60, 0
3, 31662, Note_on_c, 1, 60, 96
3, 31764, Note_on_c, 1, 60, 0
3, 31834, Note_on_c, 1, 59, 91
3, 31846, Note_on_c, 1, 59, 0
3, 31846, Note_on_c, 1, 59, 87
3, 31964, Note_on_c, 1, 59, 0
3, 32018, Note_on_c, 1, 57, 87
3, 32038, Note_on_c, 1, 57, 0
3, 32038, Note_on_c, 1, 57, 89
3, 32154, Note_on_c, 1, 57, 0
3, 32228, Note_on_c, 1, 56, 91
3, 32232, Note_on_c, 1, 56, 0
3, 32232, Note_on_c, 1, 56, 92
3, 32352, Note_on_c, 1, 56, 0
3, 32428, Note_on_c, 1, 65, 88
3, 32428, Note_on_c, 1, 65, 0
3, 32428, Note_on_c, 1, 65, 84
3, 32548, Note_on_c, 1, 65, 0
3, 32622, Note_on_c, 1, 62, 88
3, 32634, Note_on_c, 1, 62, 0
3, 32634, Note_on_c, 1, 62, 88
3, 32754, Note_on_c, 1, 62, 0
3, 32810, Note_on_c, 1, 60, 84
3, 32828, Note_on_c, 1, 60, 0
3, 32828, Note_on_c, 1, 60, 94
3, 32912, Note_on_c, 1, 60, 0
3, 33004, Note_on_c, 1, 59, 89
3, 33032, Note_on_c, 1, 59, 0
3, 33032, Note_on_c, 1, 59, 92
3, 33138, Note_on_c, 1, 59, 0
3, 33198, Note_on_c, 1, 57, 91
3, 33200, Note_on_c, 1, 57, 0
3, 33200, Note_on_c, 1, 57, 87
3, 33334, Note_on_c, 1, 57, 0
3, 33398, Note_on_c, 1, 56, 90
3, 33402, Note_on_c, 1, 56, 0
3, 33402, Note_on_c, 1, 56, 89
3, 33524, Note_on_c, 1, 56, 0
3, 33580, Note_on_c, 1, 59, 80
3, 33586, Note_on_c, 1, 59, 0
3, 33586, Note_on_c, 1, 59, 85
3, 33698, Note_on_c, 1, 59, 0
3, 33774, Note_on_c, 1, 57, 91
3, 33776, Note_on_c, 1, 57, 0
3, 33776, Note_on_c, 1, 57, 89
3, 33904, Note_on_c, 1, 57, 0
3, 33958, Note_on_c, 1, 48, 85
3, 33980, Note_on_c, 1, 48, 0
3, 33980, Note_on_c, 1, 48, 89
3, 34104, Note_on_c, 1, 48, 0
3, 34158, Note_on_c, 1, 50, 91
3, 34170, Note_on_c, 1, 50, 0
3, 34170, Note_on_c, 1, 50, 90
3, 34294, Note_on_c, 1, 50, 0
3, 34340, Note_on_c, 1, 53, 83
3, 34352, Note_on_c, 1, 53, 0
3, 34352, Note_on_c, 1, 53, 85
3, 34484, Note_on_c, 1, 53, 0
3, 34544, Note_on_c, 1, 52, 95
3, 34552, Note_on_c, 1, 52, 0
3, 34552, Note_on_c, 1, 52, 87
3, 34664, Note_on_c, 1, 52, 0
3, 34728, Note_on_c, 1, 50, 90
3, 34728, Note_on_c, 1, 50, 0
3, 34728, Note_on_c, 1, 50, 81
3, 34832, Note_on_c, 1, 50, 0
3, 34922, Note_on_c, 1, 52, 81
3, 34934, Note_on_c, 1, 52, 0
3, 34934, Note_on_c, 1, 52, 94
3, 35044, Note_on_c, 1, 52, 0
3, 35100, Note_on_c, 1, 40, 80
3, 35124, Note_on_c, 1, 40, 0
3, 35124, Note_on_c, 1, 40, 80
3, 35238, Note_on_c, 1, 40, 0
3, 35306, Note_on_c, 1, 45, 88
3, 35312, Note_on_c, 1, 45, 0
3, 35312, Note_on_c, 1, 45, 83
3, 35428, Note_on_c, 1, 45, 0
3, 35490, Note_on_c, 1, 48, 71
3, 35498, Note_on_c, 1, 48, 0
3, 35498, Note_on_c, 1, 48, 83
3, 35618, Note_on_c, 1, 48, 0
3, 35686, Note_on_c, 1, 52, 83
3, 35696, Note_on_c, 1, 52, 0
3, 35696, Note_on_c, 1, 52, 84
3, 35808, Note_on_c, 1, 52, 0
3, 35874, Note_on_c, 1, 57, 77
3, 35888, Note_on_c, 1, 57, 0
3, 35888, Note_on_c, 1, 57, 87
3, 35996, Note_on_c, 1, 57, 0
3, 36076, Note_on_c, 1, 45, 96
3, 36086, Note_on_c, 1, 45, 0
3, 36086, Note_on_c, 1, 45, 105
3, 36200, Note_on_c, 1, 45, 0
3, 36264, Note_on_c, 1, 48, 83
3, 36264, Note_on_c, 1, 48, 80
3, 36266, Note_on_c, 1, 48, 0
3, 36266, Note_on_c, 1, 48, 0
3, 36448, Note_on_c, 1, 52, 89
3, 36456, Note_on_c, 1, 52, 0
3, 36456, Note_on_c, 1, 52, 82
3, 36530, Note_on_c, 1, 52, 0
3, 36632, Note_on_c, 1, 57, 85
3, 36642, Note_on_c, 1, 57, 0
3, 36642, Note_on_c, 1, 57, 74
3, 36730, Note_on_c, 1, 57, 0
3, 36830, Note_on_c, 1, 45, 103
3, 36850, Note_on_c, 1, 45, 0
3, 36850, Note_on_c, 1, 45, 101
3, 37002, Note_on_c, 1, 45, 0
3, 37238, Note_on_c, 1, 62, 101
3, 37238, Note_on_c, 1, 59, 89
3, 37944, Note_on_c, 1, 59, 0
3, 37956, Note_on_c, 1, 62, 0
3, 38006, Note_on_c, 1, 62, 85
3, 38010, Note_on_c, 1, 59, 88
3, 38258, Note_on_c, 1, 62, 0
3, 38276, Note_on_c, 1, 59, 0
3, 38380, Note_on_c, 1, 44, 83
3, 38386, Note_on_c, 1, 44, 0
3, 38386, Note_on_c, 1, 44, 86
3, 38520, Note_on_c, 1, 44, 0
3, 38556, Note_on_c, 1, 47, 64
3, 38564, Note_on_c, 1, 47, 0
3, 38564, Note_on_c, 1, 47, 68
3, 38648, Note_on_c, 1, 47, 0
3, 38746, Note_on_c, 1, 52, 79
3, 38758, Note_on_c, 1, 52, 0
3, 38758, Note_on_c, 1, 52, 80
3, 38882, Note_on_c, 1, 52, 0
3, 38954, Note_on_c, 1, 56, 77
3, 38954, Note_on_c, 1, 56, 84
3, 38956, Note_on_c, 1, 56, 0
3, 38956, Note_on_c, 1, 56, 0
3, 39136, Note_on_c, 1, 44, 85
3, 39166, Note_on_c, 1, 44, 0
3, 39166, Note_on_c, 1, 44, 89
3, 39280, Note_on_c, 1, 44, 0
3, 39314, Note_on_c, 1, 47, 73
3, 39342, Note_on_c, 1, 47, 0
3, 39342, Note_on_c, 1, 47, 78
3, 39454, Note_on_c, 1, 47, 0
3, 39516, Note_on_c, 1, 52, 83
3, 39548, Note_on_c, 1, 52, 0
3, 39548, Note_on_c, 1, 52, 82
3, 39626, Note_on_c, 1, 52, 0
3, 39694, Note_on_c, 1, 56, 77
3, 39716, Note_on_c, 1, 56, 0
3, 39716, Note_on_c, 1, 56, 81
3, 39824, Note_on_c, 1, 56, 0
3, 39896, Note_on_c, 1, 45, 94
3, 39926, Note_on_c, 1, 45, 0
3, 39926, Note_on_c, 1, 45, 99
3, 40040, Note_on_c, 1, 45, 0
3, 40290, Note_on_c, 1, 60, 92
3, 40322, Note_on_c, 1, 64, 95
3, 40948, Note_on_c, 1, 60, 0
3, 40978, Note_on_c, 1, 64, 0
3, 41066, Note_on_c, 1, 60, 99
3, 41072, Note_on_c, 1, 64, 92
3, 41268, Note_on_c, 1, 64, 0
3, 41300, Note_on_c, 1, 60, 0
3, 41460, Note_on_c, 1, 62, 94
3, 41460, Note_on_c, 1, 62, 0
3, 41460, Note_on_c, 1, 62, 95
3, 41650, Note_on_c, 1, 62, 0
3, 41848, Note_on_c, 1, 60, 90
3, 41852, Note_on_c, 1, 60, 0
3, 41852, Note_on_c, 1, 60, 91
3, 42056, Note_on_c, 1, 60, 0
3, 42618, Note_on_c, 1, 64, 96
3, 42620, Note_on_c, 1, 60, 99
3, 42778, Note_on_c, 1, 60, 0
3, 42780, Note_on_c, 1, 64, 0
3, 42986, Note_on_c, 1, 59, 96
3, 42998, Note_on_c, 1, 64, 94
3, 43172, Note_on_c, 1, 59, 0
3, 43172, Note_on_c, 1, 64, 0
3, 43380, Note_on_c, 1, 57, 94
3, 43400, Note_on_c, 1, 64, 90
3, 43528, Note_on_c, 1, 64, 0
3, 43546, Note_on_c, 1, 57, 0
3, 43956, Note_on_c, 1, 45, 81
3, 43970, Note_on_c, 1, 45, 0
3, 43970, Note_on_c, 1, 45, 90
3, 44090, Note_on_c, 1, 45, 0
3, 44150, Note_on_c, 1, 57, 90
3, 44158, Note_on_c, 1, 57, 0
3, 44158, Note_on_c, 1, 57, 89
3, 44260, Note_on_c, 1, 57, 0
3, 44332, Note_on_c, 1, 55, 87
3, 44342, Note_on_c, 1, 55, 0
3, 44342, Note_on_c, 1, 55, 84
3, 44444, Note_on_c, 1, 55, 0
3, 44524, Note_on_c, 1, 53, 92
3, 44532, Note_on_c, 1, 53, 0
3, 44532, Note_on_c, 1, 53, 95
3, 44650, Note_on_c, 1, 53, 0
3, 44720, Note_on_c, 1, 65, 88
3, 44732, Note_on_c, 1, 65, 0
3, 44732, Note_on_c, 1, 65, 84
3, 44812, Note_on_c, 1, 65, 0
3, 44920, Note_on_c, 1, 64, 95
3, 44926, Note_on_c, 1, 64, 0
3, 44926, Note_on_c, 1, 64, 87
3, 45026, Note_on_c, 1, 64, 0
3, 45092, Note_on_c, 1, 52, 89
3, 45114, Note_on_c, 1, 52, 0
3, 45114, Note_on_c, 1, 52, 88
3, 45220, Note_on_c, 1, 52, 0
3, 45294, Note_on_c, 1, 50, 89
3, 45298, Note_on_c, 1, 50, 0
3, 45298, Note_on_c, 1, 50, 95
3, 45416, Note_on_c, 1, 50, 0
3, 45486, Note_on_c, 1, 62, 88
3, 45488, Note_on_c, 1, 62, 0
3, 45488, Note_on_c, 1, 62, 82
3, 45570, Note_on_c, 1, 62, 0
3, 45672, Note_on_c, 1, 57, 91
3, 45686, Note_on_c, 1, 57, 0
3, 45686, Note_on_c, 1, 57, 96
3, 45774, Note_on_c, 1, 57, 0
3, 45856, Note_on_c, 1, 45, 90
3, 45880, Note_on_c, 1, 45, 0
3, 45880, Note_on_c, 1, 45, 83
3, 45936, Note_on_c, 1, 45, 0
3, 46068, Note_on_c, 1, 52, 96
3, 46070, Note_on_c, 1, 52, 0
3, 46070, Note_on_c, 1, 52, 94
3, 46156, Note_on_c, 1, 52, 0
3, 46252, Note_on_c, 1, 64, 88
3, 46258, Note_on_c, 1, 64, 0
3, 46258, Note_on_c, 1, 64, 85
3, 46346, Note_on_c, 1, 64, 0
3, 46452, Note_on_c, 1, 52, 90
3, 46462, Note_on_c, 1, 52, 0
3, 46462, Note_on_c, 1, 52, 89
3, 46548, Note_on_c, 1, 52, 0
3, 46632, Note_on_c, 1, 52, 88
3, 46646, Note_on_c, 1, 52, 0
3, 46646, Note_on_c, 1, 52, 88
3, 46720, Note_on_c, 1, 52, 0
3, 46832, Note_on_c, 1, 52, 92
3, 46846, Note_on_c, 1, 55, 96
3, 47516, Note_on_c, 1, 52, 0
3, 47554, Note_on_c, 1, 55, 0
3, 47606, Note_on_c, 1, 53, 94
3, 47620, Note_on_c, 1, 56, 101
3, 48330, Note_on_c, 1, 56, 0
3, 48342, Note_on_c, 1, 53, 0
3, 48382, Note_on_c, 1, 55, 87
3, 48388, Note_on_c, 1, 55, 0
3, 48388, Note_on_c, 1, 55, 89
3, 49006, Note_on_c, 1, 55, 0
3, 49132, Note_on_c, 1, 48, 95
3, 49140, Note_on_c, 1, 48, 0
3, 49140, Note_on_c, 1, 48, 108
3, 49272, Note_on_c, 1, 48, 0
3, 49318, Note_on_c, 1, 51, 84
3, 49322, Note_on_c, 1, 51, 0
3, 49322, Note_on_c, 1, 51, 87
3, 49432, Note_on_c, 1, 51, 0
3, 49510, Note_on_c, 1, 55, 81
3, 49528, Note_on_c, 1, 55, 0
3, 49528, Note_on_c, 1, 55, 87
3, 49594, Note_on_c, 1, 55, 0
3, 49700, Note_on_c, 1, 60, 78
3, 49710, Note_on_c, 1, 60, 0
3, 49710, Note_on_c, 1, 60, 81
3, 49826, Note_on_c, 1, 60, 0
3, 49912, Note_on_c, 1, 48, 92
3, 49912, Note_on_c, 1, 48, 0
3, 49912, Note_on_c, 1, 48, 94
3, 50036, Note_on_c, 1, 48, 0
3, 50090, Note_on_c, 1, 51, 84
3, 50100, Note_on_c, 1, 51, 0
3, 50100, Note_on_c, 1, 51, 90
3, 50208, Note_on_c, 1, 51, 0
3, 50278, Note_on_c, 1, 55, 80
3, 50296, Note_on_c, 1, 55, 0
3, 50296, Note_on_c, 1, 55, 87
3, 50372, Note_on_c, 1, 55, 0
3, 50464, Note_on_c, 1, 60, 82
3, 50470, Note_on_c, 1, 60, 0
3, 50470, Note_on_c, 1, 60, 85
3, 50568, Note_on_c, 1, 60, 0
3, 50670, Note_on_c, 1, 48, 99
3, 50670, Note_on_c, 1, 48, 92
3, 50670, Note_on_c, 1, 48, 0
3, 50670, Note_on_c, 1, 48, 0
3, 51048, Note_on_c, 1, 63, 101
3, 51052, Note_on_c, 1, 60, 99
3, 51284, Note_on_c, 1, 63, 0
3, 51352, Note_on_c, 1, 60, 0
3, 51460, Note_on_c, 1, 63, 113
3, 51464, Note_on_c, 1, 60, 103
3, 51668, Note_on_c, 1, 63, 0
3, 51712, Note_on_c, 1, 60, 0
3, 51836, Note_on_c, 1, 60, 96
3, 51844, Note_on_c, 1, 63, 104
3, 52010, Note_on_c, 1, 63, 0
3, 52094, Note_on_c, 1, 60, 0
3, 52222, Note_on_c, 1, 63, 90
3, 52224, Note_on_c, 1, 60, 99
3, 52600, Note_on_c, 1, 60, 0
3, 52608, Note_on_c, 1, 58, 78
3, 52610, Note_on_c, 1, 63, 0
3, 52616, Note_on_c, 1, 64, 77
3, 52896, Note_on_c, 1, 64, 0
3, 52918, Note_on_c, 1, 58, 0
3, 52978, Note_on_c, 1, 58, 98
3, 52982, Note_on_c, 1, 64, 92
3, 53634, Note_on_c, 1, 58, 0
3, 53646, Note_on_c, 1, 64, 0
3, 53752, Note_on_c, 1, 64, 91
3, 53758, Note_on_c, 1, 58, 100
3, 54728, Note_on_c, 1, 58, 0
3, 54840, Note_on_c, 1, 64, 0
3, 54890, Note_on_c, 1, 58, 99
3, 54906, Note_on_c, 1, 58, 0
3, 54906, Note_on_c, 1, 58, 97
3, 54916, Note_on_c, 1, 61, 93
3, 55202, Note_on_c, 1, 61, 0
3, 55214, Note_on_c, 1, 58, 0
3, 55292, Note_on_c, 1, 58, 94
3, 55302, Note_on_c, 1, 61, 92
3, 55552, Note_on_c, 1, 61, 0
3, 55598, Note_on_c, 1, 58, 0
3, 55670, Note_on_c, 1, 57, 92
3, 55688, Note_on_c, 1, 67, 92
3, 55924, Note_on_c, 1, 67, 0
3, 55974, Note_on_c, 1, 57, 0
3, 56058, Note_on_c, 1, 57, 103
3, 56064, Note_on_c, 1, 61, 88
3, 56330, Note_on_c, 1, 61, 0
3, 56368, Note_on_c, 1, 57, 0
3, 56436, Note_on_c, 1, 55, 90
3, 56450, Note_on_c, 1, 67, 91
3, 56684, Note_on_c, 1, 67, 0
3, 56732, Note_on_c, 1, 55, 0
3, 56822, Note_on_c, 1, 55, 88
3, 56834, Note_on_c, 1, 64, 99
3, 57152, Note_on_c, 1, 55, 0
3, 57180, Note_on_c, 1, 64, 0
3, 57210, Note_on_c, 1, 53, 92
3, 57212, Note_on_c, 1, 65, 83
3, 57476, Note_on_c, 1, 65, 0
3, 57526, Note_on_c, 1, 53, 0
3, 57590, Note_on_c, 1, 53, 85
3, 57604, Note_on_c, 1, 65, 96
3, 57694, Note_on_c, 1, 53, 0
3, 57768, Note_on_c, 1, 50, 88
3, 57904, Note_on_c, 1, 50, 0
3, 57972, Note_on_c, 1, 45, 80
3, 58094, Note_on_c, 1, 45, 0
3, 58156, Note_on_c, 1, 41, 88
3, 58232, Note_on_c, 1, 65, 0
3, 58274, Note_on_c, 1, 41, 0
3, 58350, Note_on_c, 1, 63, 104
3, 58352, Note_on_c, 1, 43, 94
3, 58472, Note_on_c, 1, 43, 0
3, 58530, Note_on_c, 1, 46, 93
3, 58642, Note_on_c, 1, 46, 0
3, 58722, Note_on_c, 1, 51, 90
3, 58854, Note_on_c, 1, 51, 0
3, 58928, Note_on_c, 1, 55, 83
3, 59044, Note_on_c, 1, 55, 0
3, 59066, Note_on_c, 1, 63, 0
3, 59124, Note_on_c, 1, 63, 97
3, 59126, Note_on_c, 1, 45, 101
3, 59254, Note_on_c, 1, 45, 0
3, 59304, Note_on_c, 1, 48, 74
3, 59412, Note_on_c, 1, 48, 0
3, 59494, Note_on_c, 1, 54, 78
3, 59614, Note_on_c, 1, 54, 0
3, 59688, Note_on_c, 1, 57, 90
3, 59802, Note_on_c, 1, 57, 0
3, 59842, Note_on_c, 1, 63, 0
3, 59900, Note_on_c, 1, 46, 99
3, 59908, Note_on_c, 1, 62, 88
3, 60020, Note_on_c, 1, 46, 0
3, 60064, Note_on_c, 1, 50, 80
3, 60188, Note_on_c, 1, 50, 0
3, 60270, Note_on_c, 1, 55, 80
3, 60370, Note_on_c, 1, 55, 0
3, 60458, Note_on_c, 1, 58, 80
3, 60558, Note_on_c, 1, 58, 0
3, 60614, Note_on_c, 1, 62, 0
3, 60646, Note_on_c, 1, 45, 87
3, 60662, Note_on_c, 1, 60, 89
3, 60764, Note_on_c, 1, 45, 0
3, 60834, Note_on_c, 1, 48, 80
3, 60942, Note_on_c, 1, 48, 0
3, 61030, Note_on_c, 1, 53, 83
3, 61128, Note_on_c, 1, 53, 0
3, 61222, Note_on_c, 1, 57, 80
3, 61312, Note_on_c, 1, 57, 0
3, 61386, Note_on_c, 1, 60, 0
3, 61420, Note_on_c, 1, 43, 94
3, 61440, Note_on_c, 1, 58, 89
3, 61520, Note_on_c, 1, 43, 0
3, 61596, Note_on_c, 1, 46, 92
3, 61700, Note_on_c, 1, 46, 0
3, 61788, Note_on_c, 1, 51, 91
3, 61904, Note_on_c, 1, 51, 0
3, 61986, Note_on_c, 1, 55, 81
3, 62106, Note_on_c, 1, 55, 0
3, 62162, Note_on_c, 1, 58, 0
3, 62192, Note_on_c, 1, 44, 82
3, 62216, Note_on_c, 1, 65, 91
3, 62338, Note_on_c, 1, 44, 0
3, 62364, Note_on_c, 1, 47, 77
3, 62472, Note_on_c, 1, 47, 0
3, 62564, Note_on_c, 1, 50, 77
3, 62678, Note_on_c, 1, 50, 0
3, 62742, Note_on_c, 1, 56, 88
3, 62844, Note_on_c, 1, 65, 0
3, 62876, Note_on_c, 1, 56, 0
3, 62946, Note_on_c, 1, 57, 108
3, 62966, Note_on_c, 1, 65, 96
3, 63182, Note_on_c, 1, 57, 0
3, 63222, Note_on_c, 1, 65, 0
3, 63338, Note_on_c, 1, 45, 108
3, 63370, Note_on_c, 1, 64, 99
3, 63524, Note_on_c, 1, 64, 0
3, 63568, Note_on_c, 1, 45, 0
3, 63720, Note_on_c, 1, 57, 110
3, 63752, Note_on_c, 1, 57, 0
3, 63752, Note_on_c, 1, 57, 110
3, 64216, Note_on_c, 1, 57, 0
3, 64308, Note_on_c, 1, 57, 103
3, 64310, Note_on_c, 1, 57, 0
3, 64310, Note_on_c, 1, 57, 108
3, 64426, Note_on_c, 1, 57, 0
3, 64500, Note_on_c, 1, 56, 93
3, 64502, Note_on_c, 1, 56, 0
3, 64502, Note_on_c, 1, 56, 98
3, 64640, Note_on_c, 1, 56, 0
3, 64680, Note_on_c, 1, 57, 91
3, 64684, Note_on_c, 1, 57, 0
3, 64684, Note_on_c, 1, 57, 96
3, 64816, Note_on_c, 1, 57, 0
3, 64872, Note_on_c, 1, 56, 90
3, 64876, Note_on_c, 1, 56, 0
3, 64876, Note_on_c, 1, 56, 94
3, 65014, Note_on_c, 1, 56, 0
3, 65056, Note_on_c, 1, 57, 94
3, 65060, Note_on_c, 1, 57, 0
3, 65060, Note_on_c, 1, 57, 96
3, 65186, Note_on_c, 1, 57, 0
3, 65242, Note_on_c, 1, 56, 92
3, 65254, Note_on_c, 1, 56, 0
3, 65254, Note_on_c, 1, 56, 95
3, 65384, Note_on_c, 1, 56, 0
3, 65430, Note_on_c, 1, 57, 92
3, 65448, Note_on_c, 1, 57, 0
3, 65448, Note_on_c, 1, 57, 96
3, 65560, Note_on_c, 1, 57, 0
3, 65622, Note_on_c, 1, 56, 90
3, 65650, Note_on_c, 1, 56, 0
3, 65650, Note_on_c, 1, 56, 95
3, 65770, Note_on_c, 1, 56, 0
3, 65802, Note_on_c, 1, 57, 88
3, 65826, Note_on_c, 1, 57, 0
3, 65826, Note_on_c, 1, 57, 94
3, 65950, Note_on_c, 1, 57, 0
3, 66016, Note_on_c, 1, 58, 93
3, 66040, Note_on_c, 1, 58, 0
3, 66040, Note_on_c, 1, 58, 99
3, 66348, Note_on_c, 1, 58, 0
3, 66416, Note_on_c, 1, 57, 94
3, 66418, Note_on_c, 1, 57, 0
3, 66418, Note_on_c, 1, 57, 96
3, 66634, Note_on_c, 1, 57, 0
3, 66804, Note_on_c, 1, 61, 90
3, 66814, Note_on_c, 1, 61, 0
3, 66814, Note_on_c, 1, 61, 95
3, 67510, Note_on_c, 1, 61, 0
3, 67558, Note_on_c, 1, 62, 89
3, 67588, Note_on_c, 1, 62, 0
3, 67588, Note_on_c, 1, 62, 96
3, 67806, Note_on_c, 1, 62, 0
3, 67956, Note_on_c, 1, 61, 87
3, 67974, Note_on_c, 1, 61, 0
3, 67974, Note_on_c, 1, 61, 85
3, 68154, Note_on_c, 1, 61, 0
3, 68348, Note_on_c, 1, 61, 85
3, 68360, Note_on_c, 1, 61, 0
3, 68360, Note_on_c, 1, 61, 97
3, 69012, Note_on_c, 1, 61, 0
3, 69074, Note_on_c, 1, 62, 90
3, 69098, Note_on_c, 1, 62, 0
3, 69098, Note_on_c, 1, 62, 92
3, 69318, Note_on_c, 1, 62, 0
3, 69484, Note_on_c, 1, 61, 90
3, 69494, Note_on_c, 1, 61, 0
3, 69494, Note_on_c, 1, 61, 87
3, 69696, Note_on_c, 1, 61, 0
3, 69868, Note_on_c, 1, 57, 108
3, 69876, Note_on_c, 1, 57, 0
3, 69876, Note_on_c, 1, 57, 113
3, 70318, Note_on_c, 1, 57, 0
3, 70432, Note_on_c, 1, 57, 92
3, 70458, Note_on_c, 1, 57, 0
3, 70458, Note_on_c, 1, 57, 105
3, 70570, Note_on_c, 1, 57, 0
3, 70626, Note_on_c, 1, 56, 92
3, 70648, Note_on_c, 1, 56, 0
3, 70648, Note_on_c, 1, 56, 94
3, 70760, Note_on_c, 1, 56, 0
3, 70816, Note_on_c, 1, 57, 91
3, 70832, Note_on_c, 1, 57, 0
3, 70832, Note_on_c, 1, 57, 101
3, 70946, Note_on_c, 1, 57, 0
3, 71010, Note_on_c, 1, 56, 90
3, 71026, Note_on_c, 1, 56, 0
3, 71026, Note_on_c, 1, 56, 94
3, 71136, Note_on_c, 1, 56, 0
3, 71194, Note_on_c, 1, 57, 89
3, 71208, Note_on_c, 1, 57, 0
3, 71208, Note_on_c, 1, 57, 95
3, 71322, Note_on_c, 1, 57, 0
3, 71392, Note_on_c, 1, 56, 89
3, 71404, Note_on_c, 1, 56, 0
3, 71404, Note_on_c, 1, 56, 93
3, 71526, Note_on_c, 1, 56, 0
3, 71586, Note_on_c, 1, 57, 94
3, 71586, Note_on_c, 1, 57, 0
3, 71586, Note_on_c, 1, 57, 95
3, 71702, Note_on_c, 1, 57, 0
3, 71780, Note_on_c, 1, 56, 93
3, 71786, Note_on_c, 1, 56, 0
3, 71786, Note_on_c, 1, 56, 88
3, 71902, Note_on_c, 1, 56, 0
3, 71968, Note_on_c, 1, 57, 101
3, 71980, Note_on_c, 1, 57, 0
3, 71980, Note_on_c, 1, 57, 83
3, 72076, Note_on_c, 1, 57, 0
3, 72174, Note_on_c, 1, 58, 93
3, 72484, Note_on_c, 1, 58, 0
3, 72572, Note_on_c, 1, 57, 101
3, 72752, Note_on_c, 1, 57, 0
3, 72970, Note_on_c, 1, 61, 99
3, 73672, Note_on_c, 1, 61, 0
3, 73726, Note_on_c, 1, 62, 94
3, 73976, Note_on_c, 1, 62, 0
3, 74108, Note_on_c, 1, 61, 89
3, 74322, Note_on_c, 1, 61, 0
3, 74502, Note_on_c, 1, 61, 95
3, 75170, Note_on_c, 1, 61, 0
3, 75254, Note_on_c, 1, 62, 92
3, 75504, Note_on_c, 1, 62, 0
3, 75638, Note_on_c, 1, 61, 91
3, 75832, Note_on_c, 1, 61, 0
3, 76026, Note_on_c, 1, 57, 108
3, 76484, Note_on_c, 1, 57, 0
3, 76586, Note_on_c, 1, 57, 96
3, 76726, Note_on_c, 1, 57, 0
3, 76786, Note_on_c, 1, 56, 94
3, 76922, Note_on_c, 1, 56, 0
3, 76978, Note_on_c, 1, 57, 101
3, 77108, Note_on_c, 1, 57, 0
3, 77170, Note_on_c, 1, 56, 92
3, 77286, Note_on_c, 1, 56, 0
3, 77348, Note_on_c, 1, 57, 96
3, 77490, Note_on_c, 1, 57, 0
3, 77544, Note_on_c, 1, 56, 94
3, 77690, Note_on_c, 1, 56, 0
3, 77728, Note_on_c, 1, 57, 95
3, 77864, Note_on_c, 1, 57, 0
3, 77926, Note_on_c, 1, 56, 92
3, 78050, Note_on_c, 1, 56, 0
3, 78116, Note_on_c, 1, 57, 91
3, 78218, Note_on_c, 1, 57, 0
3, 78314, Note_on_c, 1, 58, 91
3, 78488, Note_on_c, 1, 58, 0
3, 78500, Note_on_c, 1, 46, 89
3, 78616, Note_on_c, 1, 46, 0
3, 78712, Note_on_c, 1, 58, 93
3, 78814, Note_on_c, 1, 58, 0
3, 78892, Note_on_c, 1, 58, 93
3, 79014, Note_on_c, 1, 58, 0
3, 79104, Note_on_c, 1, 58, 98
3, 79106, Note_on_c, 1, 62, 101
3, 79774, Note_on_c, 1, 58, 0
3, 79792, Note_on_c, 1, 62, 0
3, 79870, Note_on_c, 1, 60, 91
3, 79878, Note_on_c, 1, 63, 101
3, 80000, Note_on_c, 1, 60, 0
3, 80020, Note_on_c, 1, 63, 0
3, 80038, Note_on_c, 1, 58, 82
3, 80048, Note_on_c, 1, 62, 81
3, 80174, Note_on_c, 1, 62, 0
3, 80176, Note_on_c, 1, 58, 0
3, 80236, Note_on_c, 1, 63, 100
3, 80238, Note_on_c, 1, 60, 89
3, 80370, Note_on_c, 1, 60, 0
3, 80402, Note_on_c, 1, 63, 0
3, 80420, Note_on_c, 1, 62, 77
3, 80430, Note_on_c, 1, 58, 81
3, 80540, Note_on_c, 1, 62, 0
3, 80542, Note_on_c, 1, 58, 0
3, 80618, Note_on_c, 1, 60, 91
3, 80620, Note_on_c, 1, 63, 100
3, 80742, Note_on_c, 1, 60, 0
3, 80760, Note_on_c, 1, 63, 0
3, 80788, Note_on_c, 1, 62, 74
3, 80798, Note_on_c, 1, 58, 83
3, 80882, Note_on_c, 1, 58, 0
3, 80902, Note_on_c, 1, 62, 0
3, 80990, Note_on_c, 1, 60, 81
3, 80994, Note_on_c, 1, 63, 100
3, 81086, Note_on_c, 1, 60, 0
3, 81130, Note_on_c, 1, 63, 0
3, 81172, Note_on_c, 1, 62, 80
3, 81174, Note_on_c, 1, 58, 81
3, 81282, Note_on_c, 1, 62, 0
3, 81298, Note_on_c, 1, 58, 0
3, 81376, Note_on_c, 1, 61, 98
3, 81380, Note_on_c, 1, 57, 89
3, 81578, Note_on_c, 1, 57, 0
3, 81596, Note_on_c, 1, 61, 0
3, 81766, Note_on_c, 1, 45, 103
3, 81774, Note_on_c, 1, 64, 103
3, 82082, Note_on_c, 1, 45, 0
3, 82146, Note_on_c, 1, 64, 0
3, 82550, Note_on_c, 1, 57, 101
3, 82554, Note_on_c, 1, 57, 0
3, 82554, Note_on_c, 1, 57, 87
3, 82650, Note_on_c, 1, 57, 0
3, 82738, Note_on_c, 1, 57, 73
3, 82740, Note_on_c, 1, 57, 0
3, 82740, Note_on_c, 1, 57, 87
3, 82864, Note_on_c, 1, 57, 0
3, 82930, Note_on_c, 1, 62, 76
3, 82940, Note_on_c, 1, 62, 0
3, 82940, Note_on_c, 1, 62, 91
3, 83004, Note_on_c, 1, 62, 0
3, 83108, Note_on_c, 1, 50, 63
3, 83118, Note_on_c, 1, 50, 0
3, 83118, Note_on_c, 1, 50, 83
3, 83224, Note_on_c, 1, 50, 0
3, 83296, Note_on_c, 1, 45, 60
3, 83318, Note_on_c, 1, 45, 0
3, 83318, Note_on_c, 1, 45, 88
3, 83394, Note_on_c, 1, 45, 0
3, 83500, Note_on_c, 1, 57, 95
3, 83506, Note_on_c, 1, 57, 0
3, 83506, Note_on_c, 1, 57, 79
3, 83582, Note_on_c, 1, 57, 0
3, 83686, Note_on_c, 1, 62, 85
3, 83702, Note_on_c, 1, 62, 0
3, 83702, Note_on_c, 1, 62, 78
3, 83822, Note_on_c, 1, 62, 0
3, 83864, Note_on_c, 1, 50, 87
3, 83876, Note_on_c, 1, 50, 0
3, 83876, Note_on_c, 1, 50, 75
3, 83982, Note_on_c, 1, 50, 0
3, 84060, Note_on_c, 1, 45, 73
3, 84062, Note_on_c, 1, 45, 0
3, 84062, Note_on_c, 1, 45, 80
3, 84144, Note_on_c, 1, 45, 0
3, 84250, Note_on_c, 1, 57, 74
3, 84254, Note_on_c, 1, 57, 0
3, 84254, Note_on_c, 1, 57, 94
3, 84320, Note_on_c, 1, 57, 0
3, 84444, Note_on_c, 1, 62, 77
3, 84456, Note_on_c, 1, 62, 0
3, 84456, Note_on_c, 1, 62, 88
3, 84522, Note_on_c, 1, 62, 0
3, 84632, Note_on_c, 1, 50, 75
3, 84636, Note_on_c, 1, 50, 0
3, 84636, Note_on_c, 1, 50, 89
3, 84684, Note_on_c, 1, 50, 0
3, 84828, Note_on_c, 1, 57, 88
3, 84836, Note_on_c, 1, 57, 0
3, 84836, Note_on_c, 1, 57, 99
3, 85110, Note_on_c, 1, 57, 0
3, 85616, Note_on_c, 1, 62, 88
3, 85618, Note_on_c, 1, 62, 0
3, 85618, Note_on_c, 1, 62, 92
3, 85730, Note_on_c, 1, 62, 0
3, 85798, Note_on_c, 1, 50, 85
3, 85798, Note_on_c, 1, 50, 0
3, 85798, Note_on_c, 1, 50, 66
3, 85884, Note_on_c, 1, 50, 0
3, 85984, Note_on_c, 1, 49, 87
3, 86004, Note_on_c, 1, 49, 0
3, 86004, Note_on_c, 1, 49, 98
3, 86078, Note_on_c, 1, 49, 0
3, 86176, Note_on_c, 1, 61, 75
3, 86182, Note_on_c, 1, 61, 0
3, 86182, Note_on_c, 1, 61, 80
3, 86288, Note_on_c, 1, 61, 0
3, 86370, Note_on_c, 1, 62, 91
3, 86374, Note_on_c, 1, 62, 0
3, 86374, Note_on_c, 1, 62, 80
3, 86482, Note_on_c, 1, 62, 0
3, 86542, Note_on_c, 1, 50, 83
3, 86544, Note_on_c, 1, 50, 0
3, 86544, Note_on_c, 1, 50, 88
3, 86634, Note_on_c, 1, 50, 0
3, 86740, Note_on_c, 1, 49, 87
3, 86752, Note_on_c, 1, 49, 0
3, 86752, Note_on_c, 1, 49, 100
3, 86842, Note_on_c, 1, 49, 0
3, 86936, Note_on_c, 1, 61, 72
3, 86942, Note_on_c, 1, 61, 0
3, 86942, Note_on_c, 1, 61, 83
3, 87058, Note_on_c, 1, 61, 0
3, 87136, Note_on_c, 1, 62, 89
3, 87148, Note_on_c, 1, 62, 0
3, 87148, Note_on_c, 1, 62, 83
3, 87244, Note_on_c, 1, 62, 0
3, 87310, Note_on_c, 1, 50, 80
3, 87320, Note_on_c, 1, 50, 0
3, 87320, Note_on_c, 1, 50, 87
3, 87414, Note_on_c, 1, 50, 0
3, 87516, Note_on_c, 1, 49, 87
3, 87524, Note_on_c, 1, 49, 0
3, 87524, Note_on_c, 1, 49, 98
3, 87614, Note_on_c, 1, 49, 0
3, 87706, Note_on_c, 1, 61, 81
3, 87710, Note_on_c, 1, 61, 0
3, 87710, Note_on_c, 1, 61, 79
3, 87792, Note_on_c, 1, 61, 0
3, 87912, Note_on_c, 1, 62, 79
3, 87914, Note_on_c, 1, 62, 0
3, 87914, Note_on_c, 1, 62, 85
3, 87962, Note_on_c, 1, 62, 0
3, 88098, Note_on_c, 1, 57, 99
3, 88108, Note_on_c, 1, 57, 0
3, 88108, Note_on_c, 1, 57, 99
3, 88160, Note_on_c, 1, 57, 0
3, 88296, Note_on_c, 1, 53, 96
3, 88302, Note_on_c, 1, 53, 0
3, 88302, Note_on_c, 1, 53, 94
3, 88352, Note_on_c, 1, 53, 0
3, 88480, Note_on_c, 1, 50, 96
3, 88486, Note_on_c, 1, 50, 0
3, 88486, Note_on_c, 1, 50, 91
3, 88532, Note_on_c, 1, 50, 0
3, 88668, Note_on_c, 1, 53, 95
3, 88672, Note_on_c, 1, 53, 0
3, 88672, Note_on_c, 1, 53, 91
3, 88710, Note_on_c, 1, 53, 0
3, 88856, Note_on_c, 1, 57, 82
3, 88864, Note_on_c, 1, 57, 0
3, 88864, Note_on_c, 1, 57, 96
3, 88900, Note_on_c, 1, 57, 0
3, 89056, Note_on_c, 1, 50, 108
3, 89062, Note_on_c, 1, 50, 0
3, 89062, Note_on_c, 1, 50, 110
3, 89134, Note_on_c, 1, 50, 0
3, 89248, Note_on_c, 1, 53, 87
3, 89250, Note_on_c, 1, 53, 0
3, 89250, Note_on_c, 1, 53, 89
3, 89312, Note_on_c, 1, 53, 0
3, 89450, Note_on_c, 1, 57, 94
3, 89452, Note_on_c, 1, 57, 0
3, 89452, Note_on_c, 1, 57, 94
3, 89490, Note_on_c, 1, 57, 0
3, 89634, Note_on_c, 1, 62, 80
3, 89636, Note_on_c, 1, 62, 0
3, 89636, Note_on_c, 1, 62, 78
3, 89702, Note_on_c, 1, 62, 0
3, 89840, Note_on_c, 1, 50, 103
3, 89842, Note_on_c, 1, 50, 0
3, 89842, Note_on_c, 1, 50, 96
3, 89910, Note_on_c, 1, 50, 0
3, 90012, Note_on_c, 1, 53, 89
3, 90020, Note_on_c, 1, 53, 0
3, 90020, Note_on_c, 1, 53, 94
3, 90076, Note_on_c, 1, 53, 0
3, 90210, Note_on_c, 1, 57, 95
3, 90218, Note_on_c, 1, 57, 0
3, 90218, Note_on_c, 1, 57, 92
3, 90268, Note_on_c, 1, 57, 0
3, 90394, Note_on_c, 1, 62, 74
3, 90398, Note_on_c, 1, 62, 0
3, 90398, Note_on_c, 1, 62, 81
3, 90446, Note_on_c, 1, 62, 0
3, 90588, Note_on_c, 1, 53, 96
3, 90594, Note_on_c, 1, 53, 0
3, 90594, Note_on_c, 1, 53, 96
3, 90660, Note_on_c, 1, 53, 0
3, 90986, Note_on_c, 1, 62, 103
3, 91000, Note_on_c, 1, 53, 99
3, 91612, Note_on_c, 1, 53, 0
3, 91678, Note_on_c, 1, 62, 0
3, 91764, Note_on_c, 1, 62, 96
3, 91770, Note_on_c, 1, 53, 101
3, 91988, Note_on_c, 1, 53, 0
3, 91992, Note_on_c, 1, 62, 0
3, 92144, Note_on_c, 1, 65, 101
3, 92144, Note_on_c, 1, 62, 91
3, 92360, Note_on_c, 1, 62, 0
3, 92366, Note_on_c, 1, 65, 0
3, 92534, Note_on_c, 1, 58, 87
3, 92540, Note_on_c, 1, 62, 94
3, 92770, Note_on_c, 1, 62, 0
3, 92818, Note_on_c, 1, 58, 0
3, 92920, Note_on_c, 1, 58, 92
3, 92920, Note_on_c, 1, 55, 82
3, 93188, Note_on_c, 1, 55, 0
3, 93300, Note_on_c, 1, 52, 88
3, 93408, Note_on_c, 1, 58, 0
3, 93546, Note_on_c, 1, 52, 0
3, 93678, Note_on_c, 1, 45, 90
3, 93690, Note_on_c, 1, 45, 0
3, 93690, Note_on_c, 1, 45, 96
3, 93776, Note_on_c, 1, 45, 0
3, 93862, Note_on_c, 1, 57, 85
3, 93870, Note_on_c, 1, 57, 0
3, 93870, Note_on_c, 1, 57, 87
3, 93974, Note_on_c, 1, 57, 0
3, 94054, Note_on_c, 1, 50, 91
3, 94064, Note_on_c, 1, 50, 0
3, 94064, Note_on_c, 1, 50, 83
3, 94150, Note_on_c, 1, 50, 0
3, 94240, Note_on_c, 1, 53, 89
3, 94262, Note_on_c, 1, 53, 0
3, 94262, Note_on_c, 1, 53, 82
3, 94344, Note_on_c, 1, 53, 0
3, 94444, Note_on_c, 1, 57, 95
3, 94458, Note_on_c, 1, 57, 0
3, 94458, Note_on_c, 1, 57, 84
3, 94532, Note_on_c, 1, 57, 0
3, 94632, Note_on_c, 1, 55, 87
3, 94648, Note_on_c, 1, 55, 0
3, 94648, Note_on_c, 1, 55, 82
3, 94702, Note_on_c, 1, 55, 0
3, 94824, Note_on_c, 1, 57, 91
3, 94840, Note_on_c, 1, 57, 0
3, 94840, Note_on_c, 1, 57, 84
3, 94910, Note_on_c, 1, 57, 0
3, 94998, Note_on_c, 1, 45, 75
3, 95018, Note_on_c, 1, 45, 0
3, 95018, Note_on_c, 1, 45, 77
3, 95036, Note_on_c, 1, 45, 0
3, 95192, Note_on_c, 1, 50, 92
3, 95218, Note_on_c, 1, 50, 0
3, 95218, Note_on_c, 1, 50, 101
3, 95298, Note_on_c, 1, 50, 0
3, 95386, Note_on_c, 1, 53, 85
3, 95396, Note_on_c, 1, 53, 0
3, 95396, Note_on_c, 1, 53, 89
3, 95472, Note_on_c, 1, 53, 0
3, 95588, Note_on_c, 1, 57, 87
3, 95592, Note_on_c, 1, 57, 0
3, 95592, Note_on_c, 1, 57, 91
3, 95654, Note_on_c, 1, 57, 0
3, 95772, Note_on_c, 1, 62, 74
3, 95776, Note_on_c, 1, 62, 0
3, 95776, Note_on_c, 1, 62, 80
3, 95854, Note_on_c, 1, 62, 0
3, 95978, Note_on_c, 1, 50, 92
3, 95980, Note_on_c, 1, 50, 0
3, 95980, Note_on_c, 1, 50, 103
3, 96074, Note_on_c, 1, 50, 0
3, 96158, Note_on_c, 1, 53, 82
3, 96160, Note_on_c, 1, 53, 0
3, 96160, Note_on_c, 1, 53, 91
3, 96236, Note_on_c, 1, 53, 0
3, 96354, Note_on_c, 1, 57, 94
3, 96356, Note_on_c, 1, 57, 0
3, 96356, Note_on_c, 1, 57, 90
3, 96402, Note_on_c, 1, 57, 0
3, 96526, Note_on_c, 1, 62, 85
3, 96532, Note_on_c, 1, 62, 0
3, 96532, Note_on_c, 1, 62, 81
3, 96562, Note_on_c, 1, 62, 0
3, 96722, Note_on_c, 1, 46, 98
3, 96726, Note_on_c, 1, 46, 0
3, 96726, Note_on_c, 1, 46, 101
3, 96844, Note_on_c, 1, 46, 0
3, 97128, Note_on_c, 1, 58, 101
3, 97132, Note_on_c, 1, 62, 103
3, 97136, Note_on_c, 1, 62, 0
3, 97136, Note_on_c, 1, 62, 92
3, 97510, Note_on_c, 1, 62, 0
3, 97796, Note_on_c, 1, 58, 0
3, 97902, Note_on_c, 1, 58, 101
3, 97908, Note_on_c, 1, 62, 99
3, 98094, Note_on_c, 1, 62, 0
3, 98204, Note_on_c, 1, 58, 0
3, 98298, Note_on_c, 1, 58, 98
3, 98304, Note_on_c, 1, 67, 94
3, 98506, Note_on_c, 1, 67, 0
3, 98598, Note_on_c, 1, 58, 0
3, 98682, Note_on_c, 1, 55, 85
3, 98686, Note_on_c, 1, 63, 93
3, 98870, Note_on_c, 1, 63, 0
3, 98932, Note_on_c, 1, 55, 0
3, 99060, Note_on_c, 1, 43, 95
3, 99074, Note_on_c, 1, 43, 0
3, 99074, Note_on_c, 1, 43, 94
3, 99180, Note_on_c, 1, 43, 0
3, 99246, Note_on_c, 1, 46, 92
3, 99246, Note_on_c, 1, 46, 89
3, 99248, Note_on_c, 1, 46, 0
3, 99248, Note_on_c, 1, 46, 0
3, 99442, Note_on_c, 1, 51, 90
3, 99452, Note_on_c, 1, 51, 0
3, 99452, Note_on_c, 1, 51, 95
3, 99532, Note_on_c, 1, 51, 0
3, 99626, Note_on_c, 1, 55, 82
3, 99632, Note_on_c, 1, 55, 0
3, 99632, Note_on_c, 1, 55, 85
3, 99736, Note_on_c, 1, 55, 0
3, 99822, Note_on_c, 1, 45, 91
3, 99838, Note_on_c, 1, 45, 0
3, 99838, Note_on_c, 1, 45, 103
3, 99928, Note_on_c, 1, 45, 0
3, 100006, Note_on_c, 1, 57, 87
3, 100012, Note_on_c, 1, 57, 0
3, 100012, Note_on_c, 1, 57, 84
3, 100118, Note_on_c, 1, 57, 0
3, 100212, Note_on_c, 1, 50, 92
3, 100214, Note_on_c, 1, 50, 0
3, 100214, Note_on_c, 1, 50, 87
3, 100298, Note_on_c, 1, 50, 0
3, 100386, Note_on_c, 1, 53, 88
3, 100402, Note_on_c, 1, 53, 0
3, 100402, Note_on_c, 1, 53, 84
3, 100486, Note_on_c, 1, 53, 0
3, 100586, Note_on_c, 1, 57, 91
3, 100600, Note_on_c, 1, 57, 0
3, 100600, Note_on_c, 1, 57, 88
3, 100666, Note_on_c, 1, 57, 0
3, 100766, Note_on_c, 1, 55, 87
3, 100782, Note_on_c, 1, 55, 0
3, 100782, Note_on_c, 1, 55, 82
3, 100840, Note_on_c, 1, 55, 0
3, 100960, Note_on_c, 1, 57, 92
3, 100976, Note_on_c, 1, 57, 0
3, 100976, Note_on_c, 1, 57, 90
3, 101044, Note_on_c, 1, 57, 0
3, 101144, Note_on_c, 1, 45, 79
3, 101146, Note_on_c, 1, 45, 0
3, 101146, Note_on_c, 1, 45, 85
3, 101214, Note_on_c, 1, 45, 0
3, 101350, Note_on_c, 1, 50, 103
3, 101350, Note_on_c, 1, 50, 99
3, 101352, Note_on_c, 1, 50, 0
3, 101352, Note_on_c, 1, 50, 0
3, 101934, Note_on_c, 1, 57, 105
3, 101940, Note_on_c, 1, 57, 0
3, 101940, Note_on_c, 1, 57, 91
3, 102042, Note_on_c, 1, 57, 0
3, 102124, Note_on_c, 1, 62, 95
3, 102130, Note_on_c, 1, 62, 0
3, 102130, Note_on_c, 1, 62, 76
3, 102230, Note_on_c, 1, 62, 0
3, 102292, Note_on_c, 1, 65, 81
3, 102302, Note_on_c, 1, 65, 0
3, 102302, Note_on_c, 1, 65, 85
3, 102404, Note_on_c, 1, 65, 0
3, 102490, Note_on_c, 1, 64, 80
3, 102498, Note_on_c, 1, 64, 0
3, 102498, Note_on_c, 1, 64, 95
3, 102590, Note_on_c, 1, 64, 0
3, 102672, Note_on_c, 1, 62, 85
3, 102684, Note_on_c, 1, 62, 0
3, 102684, Note_on_c, 1, 62, 80
3, 102786, Note_on_c, 1, 62, 0
3, 102876, Note_on_c, 1, 61, 85
3, 102878, Note_on_c, 1, 61, 0
3, 102878, Note_on_c, 1, 61, 91
3, 102984, Note_on_c, 1, 61, 0
3, 103058, Note_on_c, 1, 58, 92
3, 103058, Note_on_c, 1, 58, 80
3, 103060, Note_on_c, 1, 58, 0
3, 103060, Note_on_c, 1, 58, 0
3, 103246, Note_on_c, 1, 55, 92
3, 103252, Note_on_c, 1, 55, 0
3, 103252, Note_on_c, 1, 55, 82
3, 103342, Note_on_c, 1, 55, 0
3, 103436, Note_on_c, 1, 53, 82
3, 103440, Note_on_c, 1, 53, 0
3, 103440, Note_on_c, 1, 53, 90
3, 103550, Note_on_c, 1, 53, 0
3, 103640, Note_on_c, 1, 52, 96
3, 103644, Note_on_c, 1, 52, 0
3, 103644, Note_on_c, 1, 52, 85
3, 103724, Note_on_c, 1, 52, 0
3, 103820, Note_on_c, 1, 50, 85
3, 103832, Note_on_c, 1, 50, 0
3, 103832, Note_on_c, 1, 50, 88
3, 103926, Note_on_c, 1, 50, 0
3, 104022, Note_on_c, 1, 49, 88
3, 104028, Note_on_c, 1, 49, 0
3, 104028, Note_on_c, 1, 49, 90
3, 104132, Note_on_c, 1, 49, 0
3, 104212, Note_on_c, 1, 52, 85
3, 104220, Note_on_c, 1, 52, 0
3, 104220, Note_on_c, 1, 52, 84
3, 104322, Note_on_c, 1, 52, 0
3, 104416, Note_on_c, 1, 50, 92
3, 104422, Note_on_c, 1, 50, 0
3, 104422, Note_on_c, 1, 50, 95
3, 104530, Note_on_c, 1, 50, 0
3, 104596, Note_on_c, 1, 53, 89
3, 104604, Note_on_c, 1, 53, 0
3, 104604, Note_on_c, 1, 53, 90
3, 104690, Note_on_c, 1, 53, 0
3, 104788, Note_on_c, 1, 55, 80
3, 104802, Note_on_c, 1, 55, 0
3, 104802, Note_on_c, 1, 55, 95
3, 104870, Note_on_c, 1, 55, 0
3, 104980, Note_on_c, 1, 58, 90
3, 104980, Note_on_c, 1, 58, 0
3, 104980, Note_on_c, 1, 58, 84
3, 105070, Note_on_c, 1, 58, 0
3, 105176, Note_on_c, 1, 57, 89
3, 105194, Note_on_c, 1, 57, 0
3, 105194, Note_on_c, 1, 57, 95
3, 105258, Note_on_c, 1, 57, 0
3, 105370, Note_on_c, 1, 55, 88
3, 105380, Note_on_c, 1, 55, 0
3, 105380, Note_on_c, 1, 55, 91
3, 105432, Note_on_c, 1, 55, 0
3, 105560, Note_on_c, 1, 57, 92
3, 105580, Note_on_c, 1, 57, 0
3, 105580, Note_on_c, 1, 57, 96
3, 105628, Note_on_c, 1, 57, 0
3, 105750, Note_on_c, 1, 45, 81
3, 105760, Note_on_c, 1, 45, 0
3, 105760, Note_on_c, 1, 45, 89
3, 105828, Note_on_c, 1, 45, 0
3, 105950, Note_on_c, 1, 50, 96
3, 105956, Note_on_c, 1, 50, 0
3, 105956, Note_on_c, 1, 50, 103
3, 106120, Note_on_c, 1, 50, 0
3, 106120, End_track
4, 0, Start_track
4, 0, Title_t, "trb re"
4, 388, Program_c, 2, 56
4, 389, Control_c, 2, 7, 95
4, 389, Control_c, 2, 10, 58
4, 576, Control_c, 2, 91, 120
4, 3078, Note_on_c, 2, 74, 103
4, 3084, Note_on_c, 2, 62, 101
4, 3596, Note_on_c, 2, 62, 0
4, 3634, Note_on_c, 2, 74, 0
4, 3854, Note_on_c, 2, 74, 101
4, 3854, Note_on_c, 2, 62, 95
4, 4332, Note_on_c, 2, 62, 0
4, 4344, Note_on_c, 2, 74, 0
4, 4990, Note_on_c, 2, 62, 92
4, 4990, Note_on_c, 2, 69, 94
4, 5040, Note_on_c, 2, 62, 0
4, 5054, Note_on_c, 2, 69, 0
4, 5184, Note_on_c, 2, 62, 90
4, 5184, Note_on_c, 2, 69, 92
4, 5228, Note_on_c, 2, 69, 0
4, 5232, Note_on_c, 2, 62, 0
4, 5368, Note_on_c, 2, 62, 92
4, 5372, Note_on_c, 2, 69, 90
4, 5412, Note_on_c, 2, 62, 0
4, 5420, Note_on_c, 2, 69, 0
4, 5544, Note_on_c, 2, 62, 88
4, 5546, Note_on_c, 2, 69, 90
4, 5592, Note_on_c, 2, 69, 0
4, 5596, Note_on_c, 2, 62, 0
4, 5732, Note_on_c, 2, 62, 88
4, 5734, Note_on_c, 2, 69, 88
4, 5784, Note_on_c, 2, 69, 0
4, 5784, Note_on_c, 2, 62, 0
4, 5916, Note_on_c, 2, 62, 87
4, 5918, Note_on_c, 2, 69, 81
4, 5970, Note_on_c, 2, 69, 0
4, 5972, Note_on_c, 2, 62, 0
4, 6130, Note_on_c, 2, 69, 101
4, 6130, Note_on_c, 2, 57, 113
4, 6426, Note_on_c, 2, 57, 0
4, 6434, Note_on_c, 2, 69, 0
4, 6932, Note_on_c, 2, 57, 103
4, 6934, Note_on_c, 2, 69, 96
4, 7272, Note_on_c, 2, 57, 0
4, 7304, Note_on_c, 2, 69, 0
4, 8044, Note_on_c, 2, 69, 94
4, 8046, Note_on_c, 2, 62, 91
4, 8094, Note_on_c, 2, 62, 0
4, 8114, Note_on_c, 2, 69, 0
4, 8244, Note_on_c, 2, 69, 95
4, 8246, Note_on_c, 2, 62, 91
4, 8290, Note_on_c, 2, 62, 0
4, 8302, Note_on_c, 2, 69, 0
4, 8442, Note_on_c, 2, 69, 95
4, 8442, Note_on_c, 2, 62, 90
4, 8486, Note_on_c, 2, 62, 0
4, 8506, Note_on_c, 2, 69, 0
4, 8622, Note_on_c, 2, 62, 90
4, 8624, Note_on_c, 2, 69, 91
4, 8670, Note_on_c, 2, 62, 0
4, 8688, Note_on_c, 2, 69, 0
4, 8806, Note_on_c, 2, 62, 90
4, 8806, Note_on_c, 2, 69, 90
4, 8852, Note_on_c, 2, 62, 0
4, 8872, Note_on_c, 2, 69, 0
4, 8992, Note_on_c, 2, 62, 91
4, 8992, Note_on_c, 2, 69, 94
4, 9034, Note_on_c, 2, 62, 0
4, 9058, Note_on_c, 2, 69, 0
4, 9590, Note_on_c, 2, 62, 89
4, 9590, Note_on_c, 2, 69, 96
4, 9636, Note_on_c, 2, 62, 0
4, 9650, Note_on_c, 2, 69, 0
4, 9776, Note_on_c, 2, 69, 94
4, 9778, Note_on_c, 2, 62, 90
4, 9824, Note_on_c, 2, 62, 0
4, 9836, Note_on_c, 2, 69, 0
4, 9974, Note_on_c, 2, 69, 101
4, 9974, Note_on_c, 2, 62, 92
4, 10116, Note_on_c, 2, 62, 0
4, 10136, Note_on_c, 2, 69, 0
4, 11112, Note_on_c, 2, 62, 94
4, 11112, Note_on_c, 2, 69, 99
4, 11170, Note_on_c, 2, 62, 0
4, 11186, Note_on_c, 2, 69, 0
4, 11308, Note_on_c, 2, 69, 95
4, 11308, Note_on_c, 2, 62, 90
4, 11356, Note_on_c, 2, 62, 0
4, 11376, Note_on_c, 2, 69, 0
4, 11508, Note_on_c, 2, 62, 91
4, 11508, Note_on_c, 2, 69, 96
4, 11810, Note_on_c, 2, 62, 0
4, 11824, Note_on_c, 2, 69, 0
4, 12284, Note_on_c, 2, 62, 99
4, 12284, Note_on_c, 2, 74, 101
4, 12916, Note_on_c, 2, 74, 0
4, 12950, Note_on_c, 2, 62, 0
4, 13040, Note_on_c, 2, 76, 95
4, 13044, Note_on_c, 2, 69, 92
4, 13226, Note_on_c, 2, 76, 0
4, 13244, Note_on_c, 2, 69, 0
4, 13432, Note_on_c, 2, 62, 90
4, 13432, Note_on_c, 2, 74, 96
4, 13456, Note_on_c, 2, 64, 41
4, 13476, Note_on_c, 2, 64, 0
4, 13654, Note_on_c, 2, 62, 0
4, 13658, Note_on_c, 2, 74, 0
4, 13798, Note_on_c, 2, 69, 99
4, 13800, Note_on_c, 2, 57, 99
4, 14006, Note_on_c, 2, 57, 0
4, 14028, Note_on_c, 2, 69, 0
4, 14198, Note_on_c, 2, 69, 99
4, 14206, Note_on_c, 2, 57, 95
4, 14248, Note_on_c, 2, 57, 0
4, 14266, Note_on_c, 2, 69, 0
4, 14386, Note_on_c, 2, 69, 99
4, 14448, Note_on_c, 2, 69, 0
4, 14580, Note_on_c, 2, 69, 99
4, 14636, Note_on_c, 2, 69, 0
4, 14762, Note_on_c, 2, 69, 101
4, 14818, Note_on_c, 2, 69, 0
4, 14952, Note_on_c, 2, 69, 96
4, 15008, Note_on_c, 2, 69, 0
4, 15124, Note_on_c, 2, 69, 95
4, 15186, Note_on_c, 2, 69, 0
4, 15324, Note_on_c, 2, 69, 108
4, 15324, Note_on_c, 2, 57, 103
4, 15546, Note_on_c, 2, 57, 0
4, 15564, Note_on_c, 2, 69, 0
4, 20720, Note_on_c, 2, 74, 103
4, 20724, Note_on_c, 2, 62, 96
4, 20772, Note_on_c, 2, 62, 0
4, 20776, Note_on_c, 2, 74, 0
4, 20906, Note_on_c, 2, 74, 101
4, 20908, Note_on_c, 2, 62, 91
4, 20948, Note_on_c, 2, 62, 0
4, 20954, Note_on_c, 2, 74, 0
4, 21100, Note_on_c, 2, 62, 87
4, 21100, Note_on_c, 2, 74, 101
4, 21144, Note_on_c, 2, 62, 0
4, 21146, Note_on_c, 2, 74, 0
4, 21278, Note_on_c, 2, 74, 105
4, 21282, Note_on_c, 2, 62, 85
4, 21324, Note_on_c, 2, 62, 0
4, 21332, Note_on_c, 2, 74, 0
4, 21480, Note_on_c, 2, 74, 108
4, 21482, Note_on_c, 2, 62, 92
4, 21886, Note_on_c, 2, 62, 0
4, 21910, Note_on_c, 2, 74, 0
4, 25334, Note_on_c, 2, 76, 99
4, 25384, Note_on_c, 2, 76, 0
4, 25522, Note_on_c, 2, 76, 95
4, 25562, Note_on_c, 2, 76, 0
4, 25706, Note_on_c, 2, 76, 94
4, 25746, Note_on_c, 2, 76, 0
4, 25882, Note_on_c, 2, 76, 89
4, 25930, Note_on_c, 2, 76, 0
4, 26080, Note_on_c, 2, 76, 96
4, 26084, Note_on_c, 2, 69, 88
4, 26404, Note_on_c, 2, 69, 0
4, 26424, Note_on_c, 2, 76, 0
4, 26892, Note_on_c, 2, 76, 101
4, 27202, Note_on_c, 2, 76, 0
4, 27668, Note_on_c, 2, 76, 94
4, 27668, Note_on_c, 2, 69, 94
4, 28000, Note_on_c, 2, 69, 0
4, 28004, Note_on_c, 2, 76, 0
4, 28412, Note_on_c, 2, 74, 96
4, 28412, Note_on_c, 2, 62, 88
4, 28744, Note_on_c, 2, 62, 0
4, 28798, Note_on_c, 2, 74, 0
4, 29164, Note_on_c, 2, 76, 99
4, 29404, Note_on_c, 2, 76, 0
4, 29562, Note_on_c, 2, 76, 96
4, 29774, Note_on_c, 2, 76, 0
4, 29926, Note_on_c, 2, 76, 96
4, 29988, Note_on_c, 2, 76, 0
4, 30120, Note_on_c, 2, 76, 96
4, 30180, Note_on_c, 2, 76, 0
4, 30298, Note_on_c, 2, 76, 92
4, 30360, Note_on_c, 2, 76, 0
4, 30476, Note_on_c, 2, 76, 92
4, 30538, Note_on_c, 2, 76, 0
4, 30682, Note_on_c, 2, 76, 99
4, 30684, Note_on_c, 2, 69, 92
4, 30990, Note_on_c, 2, 76, 0
4, 30996, Note_on_c, 2, 69, 0
4, 35312, Note_on_c, 2, 76, 99
4, 35316, Note_on_c, 2, 69, 90
4, 35798, Note_on_c, 2, 69, 0
4, 35818, Note_on_c, 2, 76, 0
4, 36070, Note_on_c, 2, 76, 99
4, 36072, Note_on_c, 2, 69, 94
4, 36498, Note_on_c, 2, 69, 0
4, 36542, Note_on_c, 2, 76, 0
4, 36838, Note_on_c, 2, 76, 101
4, 38280, Note_on_c, 2, 76, 0
4, 38400, Note_on_c, 2, 76, 99
4, 38812, Note_on_c, 2, 76, 0
4, 39134, Note_on_c, 2, 76, 99
4, 39706, Note_on_c, 2, 76, 0
4, 39906, Note_on_c, 2, 69, 94
4, 39978, Note_on_c, 2, 69, 0
4, 40134, Note_on_c, 2, 69, 89
4, 40176, Note_on_c, 2, 69, 0
4, 40218, Note_on_c, 2, 69, 90
4, 40260, Note_on_c, 2, 69, 0
4, 40284, Note_on_c, 2, 69, 79
4, 40334, Note_on_c, 2, 69, 0
4, 40484, Note_on_c, 2, 69, 90
4, 40534, Note_on_c, 2, 69, 0
4, 40676, Note_on_c, 2, 69, 99
4, 40720, Note_on_c, 2, 69, 0
4, 40876, Note_on_c, 2, 69, 85
4, 40924, Note_on_c, 2, 69, 0
4, 41070, Note_on_c, 2, 69, 91
4, 41122, Note_on_c, 2, 69, 0
4, 41256, Note_on_c, 2, 69, 84
4, 41310, Note_on_c, 2, 69, 0
4, 41436, Note_on_c, 2, 69, 95
4, 41440, Note_on_c, 2, 62, 84
4, 41530, Note_on_c, 2, 69, 0
4, 41540, Note_on_c, 2, 62, 0
4, 41848, Note_on_c, 2, 57, 92
4, 41850, Note_on_c, 2, 69, 87
4, 41892, Note_on_c, 2, 69, 0
4, 41898, Note_on_c, 2, 57, 0
4, 42030, Note_on_c, 2, 69, 91
4, 42030, Note_on_c, 2, 57, 96
4, 42074, Note_on_c, 2, 57, 0
4, 42074, Note_on_c, 2, 69, 0
4, 42220, Note_on_c, 2, 69, 99
4, 42220, Note_on_c, 2, 57, 105
4, 42340, Note_on_c, 2, 57, 0
4, 42342, Note_on_c, 2, 69, 0
4, 43390, Note_on_c, 2, 69, 90
4, 43392, Note_on_c, 2, 57, 95
4, 43438, Note_on_c, 2, 57, 0
4, 43458, Note_on_c, 2, 69, 0
4, 43578, Note_on_c, 2, 57, 94
4, 43578, Note_on_c, 2, 69, 90
4, 43622, Note_on_c, 2, 57, 0
4, 43648, Note_on_c, 2, 69, 0
4, 43770, Note_on_c, 2, 57, 103
4, 43770, Note_on_c, 2, 69, 96
4, 43926, Note_on_c, 2, 69, 0
4, 43928, Note_on_c, 2, 57, 0
4, 62972, Note_on_c, 2, 57, 96
4, 62972, Note_on_c, 2, 69, 94
4, 63016, Note_on_c, 2, 57, 0
4, 63032, Note_on_c, 2, 69, 0
4, 63162, Note_on_c, 2, 69, 88
4, 63162, Note_on_c, 2, 57, 90
4, 63182, Note_on_c, 2, 57, 0
4, 63196, Note_on_c, 2, 69, 0
4, 63244, Note_on_c, 2, 57, 89
4, 63252, Note_on_c, 2, 69, 78
4, 63270, Note_on_c, 2, 69, 0
4, 63290, Note_on_c, 2, 57, 0
4, 63310, Note_on_c, 2, 69, 83
4, 63310, Note_on_c, 2, 57, 57
4, 63354, Note_on_c, 2, 57, 0
4, 63356, Note_on_c, 2, 69, 0
4, 63526, Note_on_c, 2, 69, 91
4, 63526, Note_on_c, 2, 57, 96
4, 63566, Note_on_c, 2, 69, 0
4, 63570, Note_on_c, 2, 57, 0
4, 63734, Note_on_c, 2, 57, 115
4, 63736, Note_on_c, 2, 69, 105
4, 63988, Note_on_c, 2, 69, 0
4, 63988, Note_on_c, 2, 57, 0
4, 69872, Note_on_c, 2, 69, 101
4, 69872, Note_on_c, 2, 57, 108
4, 70132, Note_on_c, 2, 57, 0
4, 70136, Note_on_c, 2, 69, 0
4, 76022, Note_on_c, 2, 69, 96
4, 76022, Note_on_c, 2, 57, 105
4, 76288, Note_on_c, 2, 57, 0
4, 76294, Note_on_c, 2, 69, 0
4, 79100, Note_on_c, 2, 74, 103
4, 79102, Note_on_c, 2, 62, 99
4, 79704, Note_on_c, 2, 62, 0
4, 79708, Note_on_c, 2, 74, 0
4, 81374, Note_on_c, 2, 69, 94
4, 81374, Note_on_c, 2, 57, 96
4, 81416, Note_on_c, 2, 57, 0
4, 81418, Note_on_c, 2, 69, 0
4, 81564, Note_on_c, 2, 57, 87
4, 81564, Note_on_c, 2, 69, 83
4, 81588, Note_on_c, 2, 57, 0
4, 81590, Note_on_c, 2, 69, 0
4, 81650, Note_on_c, 2, 57, 91
4, 81654, Note_on_c, 2, 69, 80
4, 81676, Note_on_c, 2, 69, 0
4, 81696, Note_on_c, 2, 57, 0
4, 81726, Note_on_c, 2, 69, 89
4, 81730, Note_on_c, 2, 57, 88
4, 81774, Note_on_c, 2, 69, 0
4, 81774, Note_on_c, 2, 57, 0
4, 81960, Note_on_c, 2, 57, 94
4, 81960, Note_on_c, 2, 69, 89
4, 82006, Note_on_c, 2, 69, 0
4, 82008, Note_on_c, 2, 57, 0
4, 82172, Note_on_c, 2, 69, 89
4, 82172, Note_on_c, 2, 57, 90
4, 82196, Note_on_c, 2, 57, 0
4, 82216, Note_on_c, 2, 69, 0
4, 82360, Note_on_c, 2, 69, 85
4, 82364, Note_on_c, 2, 57, 88
4, 82384, Note_on_c, 2, 57, 0
4, 82404, Note_on_c, 2, 69, 0
4, 82550, Note_on_c, 2, 57, 88
4, 82550, Note_on_c, 2, 69, 84
4, 82570, Note_on_c, 2, 57, 0
4, 82596, Note_on_c, 2, 69, 0
4, 82724, Note_on_c, 2, 57, 88
4, 82726, Note_on_c, 2, 69, 81
4, 82764, Note_on_c, 2, 57, 0
4, 82774, Note_on_c, 2, 69, 0
4, 82924, Note_on_c, 2, 62, 92
4, 82926, Note_on_c, 2, 69, 92
4, 82970, Note_on_c, 2, 62, 0
4, 82974, Note_on_c, 2, 69, 0
4, 83114, Note_on_c, 2, 62, 89
4, 83116, Note_on_c, 2, 69, 85
4, 83164, Note_on_c, 2, 62, 0
4, 83166, Note_on_c, 2, 69, 0
4, 83314, Note_on_c, 2, 69, 92
4, 83316, Note_on_c, 2, 57, 96
4, 83354, Note_on_c, 2, 69, 0
4, 83364, Note_on_c, 2, 57, 0
4, 83508, Note_on_c, 2, 69, 92
4, 83508, Note_on_c, 2, 57, 96
4, 83546, Note_on_c, 2, 69, 0
4, 83556, Note_on_c, 2, 57, 0
4, 83700, Note_on_c, 2, 62, 90
4, 83700, Note_on_c, 2, 69, 91
4, 83746, Note_on_c, 2, 62, 0
4, 83750, Note_on_c, 2, 69, 0
4, 83888, Note_on_c, 2, 69, 88
4, 83888, Note_on_c, 2, 62, 87
4, 83934, Note_on_c, 2, 69, 0
4, 83940, Note_on_c, 2, 62, 0
4, 84074, Note_on_c, 2, 69, 91
4, 84076, Note_on_c, 2, 57, 92
4, 84116, Note_on_c, 2, 69, 0
4, 84122, Note_on_c, 2, 57, 0
4, 84258, Note_on_c, 2, 69, 90
4, 84260, Note_on_c, 2, 57, 92
4, 84300, Note_on_c, 2, 69, 0
4, 84306, Note_on_c, 2, 57, 0
4, 84452, Note_on_c, 2, 69, 96
4, 84452, Note_on_c, 2, 62, 94
4, 84660, Note_on_c, 2, 69, 0
4, 84670, Note_on_c, 2, 62, 0
4, 84848, Note_on_c, 2, 69, 92
4, 84848, Note_on_c, 2, 57, 95
4, 84880, Note_on_c, 2, 57, 0
4, 84886, Note_on_c, 2, 69, 0
4, 85036, Note_on_c, 2, 57, 94
4, 85036, Note_on_c, 2, 69, 94
4, 85076, Note_on_c, 2, 57, 0
4, 85078, Note_on_c, 2, 69, 0
4, 85230, Note_on_c, 2, 69, 99
4, 85230, Note_on_c, 2, 57, 101
4, 85440, Note_on_c, 2, 57, 0
4, 85458, Note_on_c, 2, 69, 0
4, 85608, Note_on_c, 2, 69, 90
4, 85610, Note_on_c, 2, 62, 84
4, 85656, Note_on_c, 2, 69, 0
4, 85662, Note_on_c, 2, 62, 0
4, 85800, Note_on_c, 2, 62, 88
4, 85802, Note_on_c, 2, 69, 85
4, 85850, Note_on_c, 2, 69, 0
4, 85852, Note_on_c, 2, 62, 0
4, 85990, Note_on_c, 2, 69, 92
4, 85992, Note_on_c, 2, 57, 91
4, 86024, Note_on_c, 2, 57, 0
4, 86032, Note_on_c, 2, 69, 0
4, 86174, Note_on_c, 2, 69, 92
4, 86176, Note_on_c, 2, 57, 94
4, 86216, Note_on_c, 2, 69, 0
4, 86222, Note_on_c, 2, 57, 0
4, 86382, Note_on_c, 2, 69, 89
4, 86382, Note_on_c, 2, 62, 87
4, 86428, Note_on_c, 2, 69, 0
4, 86436, Note_on_c, 2, 62, 0
4, 86574, Note_on_c, 2, 69, 88
4, 86574, Note_on_c, 2, 62, 83
4, 86604, Note_on_c, 2, 62, 0
4, 86618, Note_on_c, 2, 69, 0
4, 86760, Note_on_c, 2, 69, 92
4, 86760, Note_on_c, 2, 57, 94
4, 86800, Note_on_c, 2, 69, 0
4, 86804, Note_on_c, 2, 57, 0
4, 86938, Note_on_c, 2, 69, 88
4, 86942, Note_on_c, 2, 57, 90
4, 86962, Note_on_c, 2, 57, 0
4, 86980, Note_on_c, 2, 69, 0
4, 87134, Note_on_c, 2, 69, 90
4, 87138, Note_on_c, 2, 62, 83
4, 87186, Note_on_c, 2, 69, 0
4, 87188, Note_on_c, 2, 62, 0
4, 87324, Note_on_c, 2, 69, 88
4, 87326, Note_on_c, 2, 62, 84
4, 87372, Note_on_c, 2, 69, 0
4, 87376, Note_on_c, 2, 62, 0
4, 87520, Note_on_c, 2, 69, 101
4, 87522, Note_on_c, 2, 57, 105
4, 87650, Note_on_c, 2, 57, 0
4, 87668, Note_on_c, 2, 69, 0
4, 87914, Note_on_c, 2, 69, 96
4, 87916, Note_on_c, 2, 62, 92
4, 88062, Note_on_c, 2, 62, 0
4, 88078, Note_on_c, 2, 69, 0
4, 89068, Note_on_c, 2, 74, 105
4, 89070, Note_on_c, 2, 62, 103
4, 89320, Note_on_c, 2, 62, 0
4, 89328, Note_on_c, 2, 74, 0
4, 90608, Note_on_c, 2, 74, 101
4, 90608, Note_on_c, 2, 62, 96
4, 90852, Note_on_c, 2, 62, 0
4, 90862, Note_on_c, 2, 74, 0
4, 92162, Note_on_c, 2, 74, 99
4, 92162, Note_on_c, 2, 62, 94
4, 92410, Note_on_c, 2, 62, 0
4, 92430, Note_on_c, 2, 74, 0
4, 93676, Note_on_c, 2, 76, 87
4, 93684, Note_on_c, 2, 69, 89
4, 93714, Note_on_c, 2, 73, 28
4, 93736, Note_on_c, 2, 73, 0
4, 93796, Note_on_c, 2, 76, 0
4, 93832, Note_on_c, 2, 69, 0
4, 94064, Note_on_c, 2, 74, 92
4, 94066, Note_on_c, 2, 62, 82
4, 94148, Note_on_c, 2, 74, 0
4, 94180, Note_on_c, 2, 62, 0
4, 94444, Note_on_c, 2, 69, 88
4, 94446, Note_on_c, 2, 57, 88
4, 94942, Note_on_c, 2, 57, 0
4, 94982, Note_on_c, 2, 69, 0
4, 95202, Note_on_c, 2, 74, 95
4, 95206, Note_on_c, 2, 62, 84
4, 95396, Note_on_c, 2, 62, 0
4, 95400, Note_on_c, 2, 74, 0
4, 96740, Note_on_c, 2, 74, 99
4, 96740, Note_on_c, 2, 62, 95
4, 96926, Note_on_c, 2, 62, 0
4, 96930, Note_on_c, 2, 74, 0
4, 99840, Note_on_c, 2, 69, 95
4, 99840, Note_on_c, 2, 57, 103
4, 100022, Note_on_c, 2, 57, 0
4, 100070, Note_on_c, 2, 69, 0
4, 100224, Note_on_c, 2, 69, 90
4, 100224, Note_on_c, 2, 62, 85
4, 100280, Note_on_c, 2, 62, 0
4, 100294, Note_on_c, 2, 69, 0
4, 100410, Note_on_c, 2, 69, 84
4, 100412, Note_on_c, 2, 62, 81
4, 100458, Note_on_c, 2, 62, 0
4, 100460, Note_on_c, 2, 69, 0
4, 100590, Note_on_c, 2, 69, 95
4, 100592, Note_on_c, 2, 57, 99
4, 100816, Note_on_c, 2, 57, 0
4, 100834, Note_on_c, 2, 69, 0
4, 100976, Note_on_c, 2, 69, 91
4, 100976, Note_on_c, 2, 57, 95
4, 101020, Note_on_c, 2, 57, 0
4, 101022, Note_on_c, 2, 69, 0
4, 101154, Note_on_c, 2, 69, 88
4, 101154, Note_on_c, 2, 57, 92
4, 101200, Note_on_c, 2, 57, 0
4, 101204, Note_on_c, 2, 69, 0
4, 101352, Note_on_c, 2, 69, 99
4, 101356, Note_on_c, 2, 62, 94
4, 101600, Note_on_c, 2, 62, 0
4, 101600, Note_on_c, 2, 69, 0
4, 104434, Note_on_c, 2, 74, 103
4, 104436, Note_on_c, 2, 62, 101
4, 104688, Note_on_c, 2, 74, 0
4, 104714, Note_on_c, 2, 62, 0
4, 105204, Note_on_c, 2, 69, 96
4, 105204, Note_on_c, 2, 57, 105
4, 105404, Note_on_c, 2, 57, 0
4, 105424, Note_on_c, 2, 69, 0
4, 105594, Note_on_c, 2, 57, 101
4, 105594, Note_on_c, 2, 69, 95
4, 105638, Note_on_c, 2, 69, 0
4, 105638, Note_on_c, 2, 57, 0
4, 105774, Note_on_c, 2, 57, 101
4, 105774, Note_on_c, 2, 69, 95
4, 105818, Note_on_c, 2, 57, 0
4, 105818, Note_on_c, 2, 69, 0
4, 105962, Note_on_c, 2, 62, 95
4, 105962, Note_on_c, 2, 69, 99
4, 106218, Note_on_c, 2, 62, 0
4, 106218, Note_on_c, 2, 69, 0
4, 106218, End_track
5, 0, Start_track
5, 0, Title_t, "tp"
5, 390, Program_c, 3, 47
5, 391, Control_c, 3, 7, 80
5, 391, Control_c, 3, 10, 55
5, 480, Control_c, 3, 91, 100
5, 3072, Note_on_c, 3, 50, 108
5, 3078, Note_on_c, 3, 38, 95
5, 3108, Note_on_c, 3, 50, 0
5, 3116, Note_on_c, 3, 38, 0
5, 3840, Note_on_c, 3, 50, 103
5, 3842, Note_on_c, 3, 38, 99
5, 3876, Note_on_c, 3, 50, 0
5, 3882, Note_on_c, 3, 38, 0
5, 4964, Note_on_c, 3, 50, 95
5, 4970, Note_on_c, 3, 38, 92
5, 5004, Note_on_c, 3, 38, 0
5, 5008, Note_on_c, 3, 50, 0
5, 5160, Note_on_c, 3, 50, 91
5, 5164, Note_on_c, 3, 38, 87
5, 5184, Note_on_c, 3, 50, 0
5, 5200, Note_on_c, 3, 38, 0
5, 5354, Note_on_c, 3, 50, 89
5, 5356, Note_on_c, 3, 38, 81
5, 5374, Note_on_c, 3, 50, 0
5, 5380, Note_on_c, 3, 38, 0
5, 5546, Note_on_c, 3, 50, 80
5, 5554, Note_on_c, 3, 38, 71
5, 5566, Note_on_c, 3, 50, 0
5, 5572, Note_on_c, 3, 38, 0
5, 5730, Note_on_c, 3, 50, 82
5, 5734, Note_on_c, 3, 38, 74
5, 5750, Note_on_c, 3, 50, 0
5, 5756, Note_on_c, 3, 38, 0
5, 5904, Note_on_c, 3, 50, 85
5, 5910, Note_on_c, 3, 38, 76
5, 5924, Note_on_c, 3, 50, 0
5, 5934, Note_on_c, 3, 38, 0
5, 6094, Note_on_c, 3, 45, 92
5, 6094, Note_on_c, 3, 33, 88
5, 6110, Note_on_c, 3, 45, 0
5, 6120, Note_on_c, 3, 33, 0
5, 6932, Note_on_c, 3, 45, 91
5, 6934, Note_on_c, 3, 33, 87
5, 6950, Note_on_c, 3, 45, 0
5, 6954, Note_on_c, 3, 33, 0
5, 8024, Note_on_c, 3, 50, 94
5, 8030, Note_on_c, 3, 38, 85
5, 8046, Note_on_c, 3, 38, 0
5, 8066, Note_on_c, 3, 50, 0
5, 8216, Note_on_c, 3, 50, 89
5, 8222, Note_on_c, 3, 38, 79
5, 8240, Note_on_c, 3, 50, 0
5, 8240, Note_on_c, 3, 38, 0
5, 8410, Note_on_c, 3, 50, 84
5, 8422, Note_on_c, 3, 38, 68
5, 8434, Note_on_c, 3, 50, 0
5, 8440, Note_on_c, 3, 38, 0
5, 8606, Note_on_c, 3, 50, 84
5, 8618, Note_on_c, 3, 38, 62
5, 8626, Note_on_c, 3, 50, 0
5, 8638, Note_on_c, 3, 38, 0
5, 8786, Note_on_c, 3, 50, 84
5, 8794, Note_on_c, 3, 38, 74
5, 8810, Note_on_c, 3, 50, 0
5, 8814, Note_on_c, 3, 38, 0
5, 8956, Note_on_c, 3, 50, 87
5, 8966, Note_on_c, 3, 38, 66
5, 8976, Note_on_c, 3, 50, 0
5, 8986, Note_on_c, 3, 38, 0
5, 9578, Note_on_c, 3, 50, 94
5, 9588, Note_on_c, 3, 38, 68
5, 9602, Note_on_c, 3, 50, 0
5, 9608, Note_on_c, 3, 38, 0
5, 9770, Note_on_c, 3, 50, 87
5, 9780, Note_on_c, 3, 38, 69
5, 9794, Note_on_c, 3, 50, 0
5, 9800, Note_on_c, 3, 38, 0
5, 9960, Note_on_c, 3, 50, 96
5, 9970, Note_on_c, 3, 38, 83
5, 9984, Note_on_c, 3, 38, 0
5, 10000, Note_on_c, 3, 50, 0
5, 11136, Note_on_c, 3, 50, 94
5, 11142, Note_on_c, 3, 38, 88
5, 11162, Note_on_c, 3, 38, 0
5, 11178, Note_on_c, 3, 50, 0
5, 11316, Note_on_c, 3, 50, 90
5, 11322, Note_on_c, 3, 38, 80
5, 11340, Note_on_c, 3, 38, 0
5, 11344, Note_on_c, 3, 50, 0
5, 11506, Note_on_c, 3, 50, 92
5, 11512, Note_on_c, 3, 38, 87
5, 11532, Note_on_c, 3, 38, 0
5, 11540, Note_on_c, 3, 50, 0
5, 12286, Note_on_c, 3, 50, 103
5, 12286, Note_on_c, 3, 38, 92
5, 12330, Note_on_c, 3, 50, 0
5, 12332, Note_on_c, 3, 38, 0
5, 12472, Note_on_c, 3, 50, 82
5, 12478, Note_on_c, 3, 38, 72
5, 12492, Note_on_c, 3, 50, 0
5, 12498, Note_on_c, 3, 38, 0
5, 12652, Note_on_c, 3, 50, 74
5, 12656, Note_on_c, 3, 38, 66
5, 12674, Note_on_c, 3, 50, 0
5, 12678, Note_on_c, 3, 38, 0
5, 12830, Note_on_c, 3, 50, 79
5, 12834, Note_on_c, 3, 38, 75
5, 12852, Note_on_c, 3, 50, 0
5, 12858, Note_on_c, 3, 38, 0
5, 13024, Note_on_c, 3, 33, 87
5, 13024, Note_on_c, 3, 45, 91
5, 13044, Note_on_c, 3, 45, 0
5, 13050, Note_on_c, 3, 33, 0
5, 13418, Note_on_c, 3, 50, 96
5, 13420, Note_on_c, 3, 38, 89
5, 13436, Note_on_c, 3, 50, 0
5, 13466, Note_on_c, 3, 38, 0
5, 13814, Note_on_c, 3, 45, 89
5, 13814, Note_on_c, 3, 33, 83
5, 13838, Note_on_c, 3, 45, 0
5, 13854, Note_on_c, 3, 33, 0
5, 14002, Note_on_c, 3, 33, 82
5, 14004, Note_on_c, 3, 45, 83
5, 14020, Note_on_c, 3, 45, 0
5, 14022, Note_on_c, 3, 33, 0
5, 14078, Note_on_c, 3, 45, 80
5, 14082, Note_on_c, 3, 33, 74
5, 14180, Note_on_c, 3, 45, 0
5, 14186, Note_on_c, 3, 33, 0
5, 14358, Note_on_c, 3, 33, 70
5, 14360, Note_on_c, 3, 45, 68
5, 14378, Note_on_c, 3, 33, 0
5, 14380, Note_on_c, 3, 45, 0
5, 14556, Note_on_c, 3, 33, 75
5, 14560, Note_on_c, 3, 45, 70
5, 14578, Note_on_c, 3, 33, 0
5, 14580, Note_on_c, 3, 45, 0
5, 14754, Note_on_c, 3, 33, 75
5, 14756, Note_on_c, 3, 45, 76
5, 14774, Note_on_c, 3, 45, 0
5, 14774, Note_on_c, 3, 33, 0
5, 14952, Note_on_c, 3, 45, 74
5, 14952, Note_on_c, 3, 33, 71
5, 14972, Note_on_c, 3, 45, 0
5, 14974, Note_on_c, 3, 33, 0
5, 15126, Note_on_c, 3, 45, 75
5, 15126, Note_on_c, 3, 33, 74
5, 15146, Note_on_c, 3, 33, 0
5, 15146, Note_on_c, 3, 45, 0
5, 15324, Note_on_c, 3, 45, 91
5, 15332, Note_on_c, 3, 33, 78
5, 15348, Note_on_c, 3, 45, 0
5, 15348, Note_on_c, 3, 33, 0
5, 20728, Note_on_c, 3, 50, 96
5, 20734, Note_on_c, 3, 38, 94
5, 20766, Note_on_c, 3, 38, 0
5, 20770, Note_on_c, 3, 50, 0
5, 20922, Note_on_c, 3, 50, 92
5, 20930, Note_on_c, 3, 38, 79
5, 20946, Note_on_c, 3, 38, 0
5, 20952, Note_on_c, 3, 50, 0
5, 21088, Note_on_c, 3, 50, 91
5, 21100, Note_on_c, 3, 38, 71
5, 21118, Note_on_c, 3, 38, 0
5, 21126, Note_on_c, 3, 50, 0
5, 21258, Note_on_c, 3, 50, 88
5, 21270, Note_on_c, 3, 38, 62
5, 21278, Note_on_c, 3, 50, 0
5, 21290, Note_on_c, 3, 38, 0
5, 21462, Note_on_c, 3, 50, 96
5, 21472, Note_on_c, 3, 38, 79
5, 21490, Note_on_c, 3, 38, 0
5, 21504, Note_on_c, 3, 50, 0
5, 26092, Note_on_c, 3, 45, 92
5, 26096, Note_on_c, 3, 33, 87
5, 26126, Note_on_c, 3, 33, 0
5, 26128, Note_on_c, 3, 45, 0
5, 26878, Note_on_c, 3, 50, 96
5, 26884, Note_on_c, 3, 38, 88
5, 26902, Note_on_c, 3, 38, 0
5, 26922, Note_on_c, 3, 50, 0
5, 27646, Note_on_c, 3, 45, 90
5, 27652, Note_on_c, 3, 33, 82
5, 27666, Note_on_c, 3, 45, 0
5, 27668, Note_on_c, 3, 33, 0
5, 28418, Note_on_c, 3, 50, 91
5, 28422, Note_on_c, 3, 38, 88
5, 28440, Note_on_c, 3, 38, 0
5, 28442, Note_on_c, 3, 50, 0
5, 30664, Note_on_c, 3, 45, 92
5, 30668, Note_on_c, 3, 33, 85
5, 30694, Note_on_c, 3, 33, 0
5, 30702, Note_on_c, 3, 45, 0
5, 35324, Note_on_c, 3, 45, 90
5, 35330, Note_on_c, 3, 33, 87
5, 35348, Note_on_c, 3, 33, 0
5, 35366, Note_on_c, 3, 45, 0
5, 36072, Note_on_c, 3, 45, 95
5, 36076, Note_on_c, 3, 33, 85
5, 36094, Note_on_c, 3, 33, 0
5, 36102, Note_on_c, 3, 45, 0
5, 36844, Note_on_c, 3, 45, 87
5, 36850, Note_on_c, 3, 33, 77
5, 36870, Note_on_c, 3, 45, 0
5, 36878, Note_on_c, 3, 33, 0
5, 37064, Note_on_c, 3, 45, 71
5, 37068, Note_on_c, 3, 33, 66
5, 37082, Note_on_c, 3, 45, 0
5, 37088, Note_on_c, 3, 33, 0
5, 37138, Note_on_c, 3, 45, 68
5, 37142, Note_on_c, 3, 33, 62
5, 37168, Note_on_c, 3, 33, 0
5, 37182, Note_on_c, 3, 45, 0
5, 37202, Note_on_c, 3, 33, 64
5, 37202, Note_on_c, 3, 45, 55
5, 37236, Note_on_c, 3, 33, 0
5, 37244, Note_on_c, 3, 45, 0
5, 37408, Note_on_c, 3, 45, 76
5, 37414, Note_on_c, 3, 33, 70
5, 37428, Note_on_c, 3, 45, 0
5, 37434, Note_on_c, 3, 33, 0
5, 37612, Note_on_c, 3, 45, 78
5, 37616, Note_on_c, 3, 33, 71
5, 37632, Note_on_c, 3, 45, 0
5, 37636, Note_on_c, 3, 33, 0
5, 37802, Note_on_c, 3, 45, 74
5, 37802, Note_on_c, 3, 33, 71
5, 37820, Note_on_c, 3, 45, 0
5, 37822, Note_on_c, 3, 33, 0
5, 37986, Note_on_c, 3, 45, 73
5, 37996, Note_on_c, 3, 33, 58
5, 38006, Note_on_c, 3, 45, 0
5, 38018, Note_on_c, 3, 33, 0
5, 38174, Note_on_c, 3, 45, 80
5, 38176, Note_on_c, 3, 33, 75
5, 38192, Note_on_c, 3, 45, 0
5, 38198, Note_on_c, 3, 33, 0
5, 38378, Note_on_c, 3, 45, 89
5, 38380, Note_on_c, 3, 33, 85
5, 38396, Note_on_c, 3, 45, 0
5, 38398, Note_on_c, 3, 33, 0
5, 39918, Note_on_c, 3, 45, 85
5, 39920, Note_on_c, 3, 33, 83
5, 39944, Note_on_c, 3, 45, 0
5, 39954, Note_on_c, 3, 33, 0
5, 40122, Note_on_c, 3, 45, 59
5, 40122, Note_on_c, 3, 33, 65
5, 40142, Note_on_c, 3, 33, 0
5, 40144, Note_on_c, 3, 45, 0
5, 40196, Note_on_c, 3, 45, 69
5, 40200, Note_on_c, 3, 33, 62
5, 40228, Note_on_c, 3, 33, 0
5, 40236, Note_on_c, 3, 45, 0
5, 40280, Note_on_c, 3, 33, 66
5, 40280, Note_on_c, 3, 45, 81
5, 40310, Note_on_c, 3, 33, 0
5, 40314, Note_on_c, 3, 45, 0
5, 40486, Note_on_c, 3, 45, 80
5, 40490, Note_on_c, 3, 33, 74
5, 40508, Note_on_c, 3, 45, 0
5, 40510, Note_on_c, 3, 33, 0
5, 40682, Note_on_c, 3, 45, 84
5, 40690, Note_on_c, 3, 33, 65
5, 40704, Note_on_c, 3, 45, 0
5, 40712, Note_on_c, 3, 33, 0
5, 40874, Note_on_c, 3, 45, 75
5, 40880, Note_on_c, 3, 33, 66
5, 40894, Note_on_c, 3, 45, 0
5, 40902, Note_on_c, 3, 33, 0
5, 41072, Note_on_c, 3, 45, 72
5, 41074, Note_on_c, 3, 33, 60
5, 41090, Note_on_c, 3, 45, 0
5, 41098, Note_on_c, 3, 33, 0
5, 41256, Note_on_c, 3, 45, 74
5, 41258, Note_on_c, 3, 33, 64
5, 41274, Note_on_c, 3, 45, 0
5, 41280, Note_on_c, 3, 33, 0
5, 41460, Note_on_c, 3, 50, 83
5, 41464, Note_on_c, 3, 38, 80
5, 41478, Note_on_c, 3, 50, 0
5, 41482, Note_on_c, 3, 38, 0
5, 41838, Note_on_c, 3, 33, 79
5, 41840, Note_on_c, 3, 45, 80
5, 41858, Note_on_c, 3, 45, 0
5, 41858, Note_on_c, 3, 33, 0
5, 42022, Note_on_c, 3, 45, 77
5, 42032, Note_on_c, 3, 33, 60
5, 42040, Note_on_c, 3, 45, 0
5, 42056, Note_on_c, 3, 33, 0
5, 42222, Note_on_c, 3, 45, 87
5, 42226, Note_on_c, 3, 33, 74
5, 42238, Note_on_c, 3, 45, 0
5, 42244, Note_on_c, 3, 33, 0
5, 43392, Note_on_c, 3, 45, 79
5, 43392, Note_on_c, 3, 33, 74
5, 43410, Note_on_c, 3, 45, 0
5, 43414, Note_on_c, 3, 33, 0
5, 43566, Note_on_c, 3, 45, 81
5, 43572, Note_on_c, 3, 33, 75
5, 43588, Note_on_c, 3, 45, 0
5, 43592, Note_on_c, 3, 33, 0
5, 43758, Note_on_c, 3, 45, 89
5, 43764, Note_on_c, 3, 33, 82
5, 43782, Note_on_c, 3, 33, 0
5, 43784, Note_on_c, 3, 45, 0
5, 62956, Note_on_c, 3, 45, 88
5, 62958, Note_on_c, 3, 33, 76
5, 63004, Note_on_c, 3, 45, 0
5, 63006, Note_on_c, 3, 33, 0
5, 63156, Note_on_c, 3, 45, 74
5, 63156, Note_on_c, 3, 33, 73
5, 63176, Note_on_c, 3, 45, 0
5, 63178, Note_on_c, 3, 33, 0
5, 63236, Note_on_c, 3, 45, 68
5, 63240, Note_on_c, 3, 33, 63
5, 63266, Note_on_c, 3, 33, 0
5, 63274, Note_on_c, 3, 45, 0
5, 63310, Note_on_c, 3, 33, 71
5, 63316, Note_on_c, 3, 45, 80
5, 63346, Note_on_c, 3, 33, 0
5, 63348, Note_on_c, 3, 45, 0
5, 63540, Note_on_c, 3, 33, 77
5, 63542, Note_on_c, 3, 45, 77
5, 63562, Note_on_c, 3, 33, 0
5, 63562, Note_on_c, 3, 45, 0
5, 63736, Note_on_c, 3, 33, 82
5, 63738, Note_on_c, 3, 45, 81
5, 63756, Note_on_c, 3, 45, 0
5, 63756, Note_on_c, 3, 33, 0
5, 69878, Note_on_c, 3, 45, 87
5, 69880, Note_on_c, 3, 33, 85
5, 69896, Note_on_c, 3, 45, 0
5, 69898, Note_on_c, 3, 33, 0
5, 76010, Note_on_c, 3, 45, 89
5, 76014, Note_on_c, 3, 33, 76
5, 76034, Note_on_c, 3, 33, 0
5, 76034, Note_on_c, 3, 45, 0
5, 79098, Note_on_c, 3, 50, 87
5, 79102, Note_on_c, 3, 38, 80
5, 79120, Note_on_c, 3, 50, 0
5, 79136, Note_on_c, 3, 38, 0
5, 79298, Note_on_c, 3, 50, 71
5, 79302, Note_on_c, 3, 38, 60
5, 79320, Note_on_c, 3, 50, 0
5, 79326, Note_on_c, 3, 38, 0
5, 79372, Note_on_c, 3, 50, 74
5, 79374, Note_on_c, 3, 38, 67
5, 79414, Note_on_c, 3, 50, 0
5, 79418, Note_on_c, 3, 38, 0
5, 79452, Note_on_c, 3, 50, 87
5, 79462, Note_on_c, 3, 38, 68
5, 79486, Note_on_c, 3, 38, 0
5, 79500, Note_on_c, 3, 50, 0
5, 79672, Note_on_c, 3, 50, 83
5, 79674, Note_on_c, 3, 38, 73
5, 79688, Note_on_c, 3, 50, 0
5, 79692, Note_on_c, 3, 38, 0
5, 81382, Note_on_c, 3, 33, 77
5, 81382, Note_on_c, 3, 45, 77
5, 81400, Note_on_c, 3, 45, 0
5, 81406, Note_on_c, 3, 33, 0
5, 81570, Note_on_c, 3, 33, 68
5, 81570, Note_on_c, 3, 45, 66
5, 81588, Note_on_c, 3, 33, 0
5, 81590, Note_on_c, 3, 45, 0
5, 81644, Note_on_c, 3, 45, 68
5, 81648, Note_on_c, 3, 33, 60
5, 81686, Note_on_c, 3, 33, 0
5, 81688, Note_on_c, 3, 45, 0
5, 81730, Note_on_c, 3, 45, 78
5, 81730, Note_on_c, 3, 33, 61
5, 81756, Note_on_c, 3, 33, 0
5, 81758, Note_on_c, 3, 45, 0
5, 81942, Note_on_c, 3, 33, 75
5, 81942, Note_on_c, 3, 45, 76
5, 81960, Note_on_c, 3, 45, 0
5, 81968, Note_on_c, 3, 33, 0
5, 82144, Note_on_c, 3, 33, 77
5, 82146, Note_on_c, 3, 45, 77
5, 82168, Note_on_c, 3, 45, 0
5, 82180, Note_on_c, 3, 33, 0
5, 82340, Note_on_c, 3, 45, 77
5, 82340, Note_on_c, 3, 33, 72
5, 82358, Note_on_c, 3, 45, 0
5, 82364, Note_on_c, 3, 33, 0
5, 82540, Note_on_c, 3, 33, 69
5, 82542, Note_on_c, 3, 45, 74
5, 82562, Note_on_c, 3, 45, 0
5, 82570, Note_on_c, 3, 33, 0
5, 82720, Note_on_c, 3, 33, 73
5, 82724, Note_on_c, 3, 45, 71
5, 82738, Note_on_c, 3, 33, 0
5, 82744, Note_on_c, 3, 45, 0
5, 82928, Note_on_c, 3, 38, 84
5, 82928, Note_on_c, 3, 50, 88
5, 82946, Note_on_c, 3, 50, 0
5, 82962, Note_on_c, 3, 38, 0
5, 83322, Note_on_c, 3, 33, 87
5, 83324, Note_on_c, 3, 45, 92
5, 83348, Note_on_c, 3, 33, 0
5, 83356, Note_on_c, 3, 45, 0
5, 83694, Note_on_c, 3, 50, 95
5, 83698, Note_on_c, 3, 38, 83
5, 83738, Note_on_c, 3, 50, 0
5, 83750, Note_on_c, 3, 38, 0
5, 84066, Note_on_c, 3, 33, 80
5, 84066, Note_on_c, 3, 45, 91
5, 84110, Note_on_c, 3, 45, 0
5, 84110, Note_on_c, 3, 33, 0
5, 84432, Note_on_c, 3, 50, 89
5, 84436, Note_on_c, 3, 38, 79
5, 84462, Note_on_c, 3, 50, 0
5, 84480, Note_on_c, 3, 38, 0
5, 84834, Note_on_c, 3, 45, 85
5, 84838, Note_on_c, 3, 33, 80
5, 84862, Note_on_c, 3, 45, 0
5, 84874, Note_on_c, 3, 33, 0
5, 85020, Note_on_c, 3, 33, 81
5, 85020, Note_on_c, 3, 45, 87
5, 85040, Note_on_c, 3, 45, 0
5, 85042, Note_on_c, 3, 33, 0
5, 85208, Note_on_c, 3, 50, 91
5, 85212, Note_on_c, 3, 38, 78
5, 85226, Note_on_c, 3, 50, 0
5, 85242, Note_on_c, 3, 38, 0
5, 85608, Note_on_c, 3, 33, 90
5, 85610, Note_on_c, 3, 45, 94
5, 85632, Note_on_c, 3, 45, 0
5, 85642, Note_on_c, 3, 33, 0
5, 85990, Note_on_c, 3, 50, 94
5, 85990, Note_on_c, 3, 38, 85
5, 86008, Note_on_c, 3, 50, 0
5, 86034, Note_on_c, 3, 38, 0
5, 86388, Note_on_c, 3, 33, 83
5, 86390, Note_on_c, 3, 45, 90
5, 86414, Note_on_c, 3, 45, 0
5, 86420, Note_on_c, 3, 33, 0
5, 86758, Note_on_c, 3, 50, 92
5, 86758, Note_on_c, 3, 38, 87
5, 86778, Note_on_c, 3, 50, 0
5, 86804, Note_on_c, 3, 38, 0
5, 87132, Note_on_c, 3, 45, 91
5, 87134, Note_on_c, 3, 33, 85
5, 87154, Note_on_c, 3, 33, 0
5, 87174, Note_on_c, 3, 45, 0
5, 87516, Note_on_c, 3, 38, 89
5, 87516, Note_on_c, 3, 50, 91
5, 87534, Note_on_c, 3, 50, 0
5, 87548, Note_on_c, 3, 38, 0
5, 89052, Note_on_c, 3, 50, 99
5, 89056, Note_on_c, 3, 38, 90
5, 89098, Note_on_c, 3, 38, 0
5, 89098, Note_on_c, 3, 50, 0
5, 90608, Note_on_c, 3, 50, 99
5, 90610, Note_on_c, 3, 38, 91
5, 90654, Note_on_c, 3, 38, 0
5, 90654, Note_on_c, 3, 50, 0
5, 92150, Note_on_c, 3, 50, 103
5, 92150, Note_on_c, 3, 38, 91
5, 92188, Note_on_c, 3, 50, 0
5, 92192, Note_on_c, 3, 38, 0
5, 93674, Note_on_c, 3, 33, 84
5, 93674, Note_on_c, 3, 45, 90
5, 93696, Note_on_c, 3, 33, 0
5, 93698, Note_on_c, 3, 45, 0
5, 94084, Note_on_c, 3, 50, 84
5, 94086, Note_on_c, 3, 38, 72
5, 94114, Note_on_c, 3, 50, 0
5, 94126, Note_on_c, 3, 38, 0
5, 94258, Note_on_c, 3, 50, 83
5, 94260, Note_on_c, 3, 38, 75
5, 94276, Note_on_c, 3, 50, 0
5, 94302, Note_on_c, 3, 38, 0
5, 94448, Note_on_c, 3, 33, 83
5, 94450, Note_on_c, 3, 45, 89
5, 94468, Note_on_c, 3, 45, 0
5, 94470, Note_on_c, 3, 33, 0
5, 94826, Note_on_c, 3, 33, 80
5, 94828, Note_on_c, 3, 45, 83
5, 94848, Note_on_c, 3, 45, 0
5, 94866, Note_on_c, 3, 33, 0
5, 95006, Note_on_c, 3, 45, 81
5, 95008, Note_on_c, 3, 33, 77
5, 95026, Note_on_c, 3, 33, 0
5, 95030, Note_on_c, 3, 45, 0
5, 95198, Note_on_c, 3, 50, 92
5, 95200, Note_on_c, 3, 38, 89
5, 95216, Note_on_c, 3, 50, 0
5, 95224, Note_on_c, 3, 38, 0
5, 96740, Note_on_c, 3, 50, 96
5, 96744, Note_on_c, 3, 38, 94
5, 96786, Note_on_c, 3, 38, 0
5, 96786, Note_on_c, 3, 50, 0
5, 99830, Note_on_c, 3, 45, 88
5, 99834, Note_on_c, 3, 33, 80
5, 99848, Note_on_c, 3, 45, 0
5, 99852, Note_on_c, 3, 33, 0
5, 100228, Note_on_c, 3, 50, 79
5, 100230, Note_on_c, 3, 38, 70
5, 100250, Note_on_c, 3, 50, 0
5, 100256, Note_on_c, 3, 38, 0
5, 100410, Note_on_c, 3, 38, 74
5, 100410, Note_on_c, 3, 50, 80
5, 100428, Note_on_c, 3, 50, 0
5, 100440, Note_on_c, 3, 38, 0
5, 100588, Note_on_c, 3, 33, 80
5, 100592, Note_on_c, 3, 45, 82
5, 100608, Note_on_c, 3, 33, 0
5, 100608, Note_on_c, 3, 45, 0
5, 100962, Note_on_c, 3, 45, 81
5, 100962, Note_on_c, 3, 33, 74
5, 100982, Note_on_c, 3, 45, 0
5, 100984, Note_on_c, 3, 33, 0
5, 101142, Note_on_c, 3, 33, 71
5, 101144, Note_on_c, 3, 45, 74
5, 101160, Note_on_c, 3, 33, 0
5, 101164, Note_on_c, 3, 45, 0
5, 101346, Note_on_c, 3, 50, 91
5, 101348, Note_on_c, 3, 38, 87
5, 101364, Note_on_c, 3, 50, 0
5, 101370, Note_on_c, 3, 38, 0
5, 104418, Note_on_c, 3, 50, 103
5, 104420, Note_on_c, 3, 38, 90
5, 104460, Note_on_c, 3, 38, 0
5, 104460, Note_on_c, 3, 50, 0
5, 105216, Note_on_c, 3, 33, 91
5, 105216, Note_on_c, 3, 45, 96
5, 105258, Note_on_c, 3, 45, 0
5, 105260, Note_on_c, 3, 33, 0
5, 105600, Note_on_c, 3, 45, 91
5, 105600, Note_on_c, 3, 33, 83
5, 105638, Note_on_c, 3, 45, 0
5, 105640, Note_on_c, 3, 33, 0
5, 105780, Note_on_c, 3, 33, 82
5, 105782, Note_on_c, 3, 45, 90
5, 105800, Note_on_c, 3, 45, 0
5, 105802, Note_on_c, 3, 33, 0
5, 105968, Note_on_c, 3, 50, 103
5, 105970, Note_on_c, 3, 38, 94
5, 106010, Note_on_c, 3, 38, 0
5, 106014, Note_on_c, 3, 50, 0
5, 106014, End_track
6, 0, Start_track
6, 0, Title_t, "vlni 1"
6, 392, Program_c, 4, 48
6, 393, Control_c, 4, 7, 123
6, 393, Control_c, 4, 10, 58
6, 480, Control_c, 4, 91, 120
6, 3050, Note_on_c, 4, 74, 108
6, 3136, Note_on_c, 4, 74, 0
6, 3164, Note_on_c, 4, 69, 70
6, 3200, Note_on_c, 4, 69, 0
6, 3268, Note_on_c, 4, 69, 85
6, 3300, Note_on_c, 4, 69, 0
6, 3366, Note_on_c, 4, 69, 82
6, 3400, Note_on_c, 4, 69, 0
6, 3464, Note_on_c, 4, 69, 84
6, 3496, Note_on_c, 4, 69, 0
6, 3560, Note_on_c, 4, 69, 83
6, 3592, Note_on_c, 4, 69, 0
6, 3650, Note_on_c, 4, 69, 80
6, 3682, Note_on_c, 4, 69, 0
6, 3730, Note_on_c, 4, 69, 76
6, 3768, Note_on_c, 4, 69, 0
6, 3822, Note_on_c, 4, 74, 103
6, 3884, Note_on_c, 4, 74, 0
6, 3938, Note_on_c, 4, 69, 77
6, 3974, Note_on_c, 4, 69, 0
6, 4030, Note_on_c, 4, 69, 78
6, 4064, Note_on_c, 4, 69, 0
6, 4114, Note_on_c, 4, 69, 75
6, 4156, Note_on_c, 4, 69, 0
6, 4208, Note_on_c, 4, 69, 75
6, 4246, Note_on_c, 4, 69, 0
6, 4304, Note_on_c, 4, 69, 76
6, 4344, Note_on_c, 4, 69, 0
6, 4392, Note_on_c, 4, 69, 76
6, 4438, Note_on_c, 4, 69, 0
6, 4492, Note_on_c, 4, 69, 77
6, 4544, Note_on_c, 4, 69, 0
6, 4586, Note_on_c, 4, 76, 95
6, 4652, Note_on_c, 4, 76, 0
6, 4798, Note_on_c, 4, 69, 96
6, 5026, Note_on_c, 4, 69, 0
6, 5166, Note_on_c, 4, 69, 101
6, 5408, Note_on_c, 4, 69, 0
6, 5544, Note_on_c, 4, 69, 101
6, 5806, Note_on_c, 4, 69, 0
6, 5924, Note_on_c, 4, 69, 87
6, 6000, Note_on_c, 4, 69, 0
6, 6094, Note_on_c, 4, 76, 101
6, 6178, Note_on_c, 4, 76, 0
6, 6200, Note_on_c, 4, 69, 74
6, 6240, Note_on_c, 4, 69, 0
6, 6308, Note_on_c, 4, 69, 89
6, 6344, Note_on_c, 4, 69, 0
6, 6392, Note_on_c, 4, 69, 75
6, 6428, Note_on_c, 4, 69, 0
6, 6496, Note_on_c, 4, 69, 84
6, 6528, Note_on_c, 4, 69, 0
6, 6594, Note_on_c, 4, 69, 80
6, 6634, Note_on_c, 4, 69, 0
6, 6680, Note_on_c, 4, 69, 69
6, 6730, Note_on_c, 4, 69, 0
6, 6776, Note_on_c, 4, 69, 68
6, 6824, Note_on_c, 4, 69, 0
6, 6878, Note_on_c, 4, 76, 85
6, 6968, Note_on_c, 4, 76, 0
6, 6988, Note_on_c, 4, 69, 75
6, 7028, Note_on_c, 4, 69, 0
6, 7094, Note_on_c, 4, 69, 84
6, 7132, Note_on_c, 4, 69, 0
6, 7184, Note_on_c, 4, 69, 80
6, 7234, Note_on_c, 4, 69, 0
6, 7300, Note_on_c, 4, 69, 89
6, 7344, Note_on_c, 4, 69, 0
6, 7396, Note_on_c, 4, 69, 80
6, 7442, Note_on_c, 4, 69, 0
6, 7482, Note_on_c, 4, 69, 80
6, 7520, Note_on_c, 4, 69, 0
6, 7568, Note_on_c, 4, 69, 78
6, 7622, Note_on_c, 4, 69, 0
6, 7650, Note_on_c, 4, 77, 94
6, 7704, Note_on_c, 4, 77, 0
6, 7854, Note_on_c, 4, 69, 96
6, 8082, Note_on_c, 4, 69, 0
6, 8208, Note_on_c, 4, 69, 101
6, 8446, Note_on_c, 4, 69, 0
6, 8600, Note_on_c, 4, 69, 91
6, 8648, Note_on_c, 4, 69, 0
6, 8786, Note_on_c, 4, 74, 96
6, 8828, Note_on_c, 4, 74, 0
6, 8976, Note_on_c, 4, 74, 91
6, 9028, Note_on_c, 4, 74, 0
6, 9154, Note_on_c, 4, 73, 99
6, 9386, Note_on_c, 4, 73, 0
6, 9584, Note_on_c, 4, 74, 99
6, 9636, Note_on_c, 4, 74, 0
6, 9684, Note_on_c, 4, 69, 80
6, 9726, Note_on_c, 4, 69, 0
6, 9776, Note_on_c, 4, 74, 87
6, 9826, Note_on_c, 4, 74, 0
6, 9866, Note_on_c, 4, 77, 84
6, 9906, Note_on_c, 4, 77, 0
6, 9954, Note_on_c, 4, 81, 90
6, 10028, Note_on_c, 4, 81, 0
6, 10150, Note_on_c, 4, 81, 99
6, 10430, Note_on_c, 4, 81, 0
6, 10530, Note_on_c, 4, 81, 92
6, 10942, Note_on_c, 4, 81, 0
6, 11124, Note_on_c, 4, 77, 94
6, 11184, Note_on_c, 4, 77, 0
6, 11216, Note_on_c, 4, 74, 82
6, 11268, Note_on_c, 4, 74, 0
6, 11302, Note_on_c, 4, 77, 82
6, 11354, Note_on_c, 4, 77, 0
6, 11386, Note_on_c, 4, 81, 78
6, 11450, Note_on_c, 4, 81, 0
6, 11482, Note_on_c, 4, 86, 91
6, 11540, Note_on_c, 4, 86, 0
6, 11680, Note_on_c, 4, 86, 94
6, 11978, Note_on_c, 4, 86, 0
6, 12048, Note_on_c, 4, 86, 92
6, 12372, Note_on_c, 4, 86, 0
6, 12464, Note_on_c, 4, 79, 90
6, 12498, Note_on_c, 4, 79, 0
6, 12544, Note_on_c, 4, 79, 80
6, 12594, Note_on_c, 4, 79, 0
6, 12640, Note_on_c, 4, 77, 81
6, 12686, Note_on_c, 4, 77, 0
6, 12730, Note_on_c, 4, 77, 79
6, 12784, Note_on_c, 4, 77, 0
6, 12824, Note_on_c, 4, 86, 85
6, 12866, Note_on_c, 4, 86, 0
6, 12918, Note_on_c, 4, 86, 81
6, 12976, Note_on_c, 4, 86, 0
6, 13014, Note_on_c, 4, 76, 87
6, 13060, Note_on_c, 4, 76, 0
6, 13102, Note_on_c, 4, 76, 78
6, 13154, Note_on_c, 4, 76, 0
6, 13196, Note_on_c, 4, 85, 93
6, 13242, Note_on_c, 4, 85, 0
6, 13286, Note_on_c, 4, 85, 84
6, 13338, Note_on_c, 4, 85, 0
6, 13384, Note_on_c, 4, 86, 92
6, 13428, Note_on_c, 4, 86, 0
6, 13478, Note_on_c, 4, 86, 82
6, 13550, Note_on_c, 4, 86, 0
6, 13576, Note_on_c, 4, 77, 79
6, 13616, Note_on_c, 4, 77, 0
6, 13660, Note_on_c, 4, 77, 84
6, 13694, Note_on_c, 4, 77, 0
6, 13768, Note_on_c, 4, 77, 90
6, 13796, Note_on_c, 4, 77, 0
6, 13796, Note_on_c, 4, 79, 74
6, 13828, Note_on_c, 4, 77, 81
6, 13828, Note_on_c, 4, 79, 0
6, 13862, Note_on_c, 4, 77, 0
6, 13862, Note_on_c, 4, 79, 81
6, 13894, Note_on_c, 4, 77, 74
6, 13900, Note_on_c, 4, 79, 0
6, 13930, Note_on_c, 4, 77, 0
6, 13932, Note_on_c, 4, 79, 85
6, 13966, Note_on_c, 4, 77, 77
6, 13984, Note_on_c, 4, 79, 0
6, 14072, Note_on_c, 4, 77, 0
6, 14090, Note_on_c, 4, 76, 68
6, 14116, Note_on_c, 4, 76, 0
6, 14138, Note_on_c, 4, 77, 85
6, 14188, Note_on_c, 4, 76, 103
6, 14198, Note_on_c, 4, 77, 0
6, 14250, Note_on_c, 4, 76, 0
6, 14368, Note_on_c, 4, 81, 95
6, 14422, Note_on_c, 4, 81, 0
6, 14544, Note_on_c, 4, 69, 85
6, 14598, Note_on_c, 4, 69, 0
6, 14748, Note_on_c, 4, 69, 94
6, 15022, Note_on_c, 4, 69, 0
6, 15130, Note_on_c, 4, 69, 80
6, 15374, Note_on_c, 4, 69, 0
6, 15514, Note_on_c, 4, 69, 83
6, 15548, Note_on_c, 4, 69, 0
6, 15586, Note_on_c, 4, 69, 76
6, 15634, Note_on_c, 4, 69, 0
6, 15688, Note_on_c, 4, 70, 90
6, 15728, Note_on_c, 4, 70, 0
6, 15778, Note_on_c, 4, 70, 84
6, 15826, Note_on_c, 4, 70, 0
6, 15870, Note_on_c, 4, 71, 90
6, 15916, Note_on_c, 4, 71, 0
6, 15962, Note_on_c, 4, 71, 89
6, 16016, Note_on_c, 4, 71, 0
6, 16064, Note_on_c, 4, 72, 99
6, 16104, Note_on_c, 4, 72, 0
6, 16156, Note_on_c, 4, 72, 88
6, 16200, Note_on_c, 4, 72, 0
6, 16260, Note_on_c, 4, 73, 98
6, 16308, Note_on_c, 4, 73, 0
6, 16354, Note_on_c, 4, 73, 83
6, 16420, Note_on_c, 4, 73, 0
6, 16470, Note_on_c, 4, 74, 94
6, 16518, Note_on_c, 4, 74, 0
6, 16568, Note_on_c, 4, 74, 85
6, 16614, Note_on_c, 4, 74, 0
6, 16676, Note_on_c, 4, 76, 94
6, 16712, Note_on_c, 4, 76, 0
6, 16770, Note_on_c, 4, 76, 90
6, 16816, Note_on_c, 4, 76, 0
6, 16864, Note_on_c, 4, 77, 94
6, 16930, Note_on_c, 4, 77, 0
6, 16956, Note_on_c, 4, 72, 78
6, 16996, Note_on_c, 4, 72, 0
6, 17048, Note_on_c, 4, 72, 75
6, 17086, Note_on_c, 4, 72, 0
6, 17142, Note_on_c, 4, 72, 76
6, 17178, Note_on_c, 4, 72, 0
6, 17250, Note_on_c, 4, 72, 79
6, 17288, Note_on_c, 4, 72, 0
6, 17346, Note_on_c, 4, 72, 71
6, 17384, Note_on_c, 4, 72, 0
6, 17432, Note_on_c, 4, 72, 69
6, 17470, Note_on_c, 4, 72, 0
6, 17522, Note_on_c, 4, 72, 67
6, 17576, Note_on_c, 4, 72, 0
6, 17636, Note_on_c, 4, 77, 96
6, 17690, Note_on_c, 4, 77, 0
6, 17734, Note_on_c, 4, 72, 82
6, 17770, Note_on_c, 4, 72, 0
6, 17830, Note_on_c, 4, 72, 74
6, 17866, Note_on_c, 4, 72, 0
6, 17918, Note_on_c, 4, 72, 77
6, 17962, Note_on_c, 4, 72, 0
6, 18030, Note_on_c, 4, 72, 87
6, 18064, Note_on_c, 4, 72, 0
6, 18120, Note_on_c, 4, 72, 76
6, 18158, Note_on_c, 4, 72, 0
6, 18208, Note_on_c, 4, 72, 74
6, 18244, Note_on_c, 4, 72, 0
6, 18294, Note_on_c, 4, 72, 54
6, 18342, Note_on_c, 4, 72, 0
6, 18396, Note_on_c, 4, 77, 85
6, 18442, Note_on_c, 4, 77, 0
6, 18484, Note_on_c, 4, 77, 76
6, 18528, Note_on_c, 4, 77, 0
6, 18580, Note_on_c, 4, 77, 72
6, 18616, Note_on_c, 4, 77, 0
6, 18672, Note_on_c, 4, 77, 71
6, 18718, Note_on_c, 4, 77, 0
6, 18780, Note_on_c, 4, 65, 91
6, 18826, Note_on_c, 4, 65, 0
6, 18876, Note_on_c, 4, 65, 81
6, 18924, Note_on_c, 4, 65, 0
6, 18978, Note_on_c, 4, 65, 81
6, 19030, Note_on_c, 4, 65, 0
6, 19062, Note_on_c, 4, 65, 80
6, 19122, Note_on_c, 4, 65, 0
6, 19170, Note_on_c, 4, 69, 90
6, 19216, Note_on_c, 4, 69, 0
6, 19262, Note_on_c, 4, 69, 80
6, 19310, Note_on_c, 4, 69, 0
6, 19358, Note_on_c, 4, 69, 81
6, 19406, Note_on_c, 4, 69, 0
6, 19446, Note_on_c, 4, 69, 80
6, 19494, Note_on_c, 4, 69, 0
6, 19552, Note_on_c, 4, 72, 91
6, 19598, Note_on_c, 4, 72, 0
6, 19648, Note_on_c, 4, 72, 82
6, 19692, Note_on_c, 4, 72, 0
6, 19744, Note_on_c, 4, 72, 82
6, 19786, Note_on_c, 4, 72, 0
6, 19834, Note_on_c, 4, 72, 79
6, 19886, Note_on_c, 4, 72, 0
6, 19936, Note_on_c, 4, 75, 98
6, 19998, Note_on_c, 4, 75, 0
6, 20032, Note_on_c, 4, 72, 82
6, 20070, Note_on_c, 4, 72, 0
6, 20130, Note_on_c, 4, 72, 73
6, 20166, Note_on_c, 4, 72, 0
6, 20218, Note_on_c, 4, 72, 72
6, 20256, Note_on_c, 4, 72, 0
6, 20324, Note_on_c, 4, 72, 84
6, 20366, Note_on_c, 4, 72, 0
6, 20420, Note_on_c, 4, 72, 79
6, 20460, Note_on_c, 4, 72, 0
6, 20510, Note_on_c, 4, 72, 74
6, 20554, Note_on_c, 4, 72, 0
6, 20604, Note_on_c, 4, 72, 75
6, 20660, Note_on_c, 4, 72, 0
6, 20720, Note_on_c, 4, 74, 96
6, 20774, Note_on_c, 4, 74, 0
6, 20812, Note_on_c, 4, 72, 85
6, 20848, Note_on_c, 4, 72, 0
6, 20910, Note_on_c, 4, 72, 82
6, 20944, Note_on_c, 4, 72, 0
6, 20988, Note_on_c, 4, 72, 73
6, 21038, Note_on_c, 4, 72, 0
6, 21094, Note_on_c, 4, 72, 82
6, 21140, Note_on_c, 4, 72, 0
6, 21190, Note_on_c, 4, 72, 78
6, 21234, Note_on_c, 4, 72, 0
6, 21284, Note_on_c, 4, 72, 77
6, 21324, Note_on_c, 4, 72, 0
6, 21368, Note_on_c, 4, 72, 76
6, 21414, Note_on_c, 4, 72, 0
6, 21458, Note_on_c, 4, 79, 95
6, 21514, Note_on_c, 4, 79, 0
6, 21562, Note_on_c, 4, 74, 87
6, 21602, Note_on_c, 4, 74, 0
6, 21666, Note_on_c, 4, 74, 84
6, 21700, Note_on_c, 4, 74, 0
6, 21762, Note_on_c, 4, 74, 84
6, 21798, Note_on_c, 4, 74, 0
6, 21866, Note_on_c, 4, 74, 89
6, 21908, Note_on_c, 4, 74, 0
6, 21966, Note_on_c, 4, 74, 80
6, 22002, Note_on_c, 4, 74, 0
6, 22056, Note_on_c, 4, 74, 78
6, 22094, Note_on_c, 4, 74, 0
6, 22148, Note_on_c, 4, 74, 77
6, 22196, Note_on_c, 4, 74, 0
6, 22246, Note_on_c, 4, 79, 90
6, 22298, Note_on_c, 4, 79, 0
6, 22340, Note_on_c, 4, 74, 85
6, 22374, Note_on_c, 4, 74, 0
6, 22444, Note_on_c, 4, 74, 83
6, 22480, Note_on_c, 4, 74, 0
6, 22540, Note_on_c, 4, 74, 88
6, 22580, Note_on_c, 4, 74, 0
6, 22648, Note_on_c, 4, 74, 91
6, 22682, Note_on_c, 4, 74, 0
6, 22742, Note_on_c, 4, 74, 88
6, 22780, Note_on_c, 4, 74, 0
6, 22834, Note_on_c, 4, 74, 84
6, 22874, Note_on_c, 4, 74, 0
6, 22918, Note_on_c, 4, 74, 77
6, 22968, Note_on_c, 4, 74, 0
6, 23022, Note_on_c, 4, 71, 89
6, 23064, Note_on_c, 4, 71, 0
6, 23112, Note_on_c, 4, 71, 84
6, 23156, Note_on_c, 4, 71, 0
6, 23206, Note_on_c, 4, 71, 80
6, 23248, Note_on_c, 4, 71, 0
6, 23298, Note_on_c, 4, 71, 80
6, 23348, Note_on_c, 4, 71, 0
6, 23390, Note_on_c, 4, 67, 87
6, 23436, Note_on_c, 4, 67, 0
6, 23478, Note_on_c, 4, 67, 78
6, 23526, Note_on_c, 4, 67, 0
6, 23564, Note_on_c, 4, 67, 74
6, 23610, Note_on_c, 4, 67, 0
6, 23652, Note_on_c, 4, 67, 80
6, 23706, Note_on_c, 4, 67, 0
6, 23758, Note_on_c, 4, 71, 90
6, 23804, Note_on_c, 4, 71, 0
6, 23846, Note_on_c, 4, 71, 79
6, 23892, Note_on_c, 4, 71, 0
6, 23940, Note_on_c, 4, 71, 78
6, 23986, Note_on_c, 4, 71, 0
6, 24032, Note_on_c, 4, 71, 78
6, 24080, Note_on_c, 4, 71, 0
6, 24138, Note_on_c, 4, 74, 89
6, 24178, Note_on_c, 4, 74, 0
6, 24230, Note_on_c, 4, 74, 82
6, 24272, Note_on_c, 4, 74, 0
6, 24324, Note_on_c, 4, 74, 80
6, 24364, Note_on_c, 4, 74, 0
6, 24414, Note_on_c, 4, 74, 78
6, 24466, Note_on_c, 4, 74, 0
6, 24526, Note_on_c, 4, 77, 91
6, 24582, Note_on_c, 4, 77, 0
6, 24620, Note_on_c, 4, 74, 84
6, 24658, Note_on_c, 4, 74, 0
6, 24722, Note_on_c, 4, 74, 81
6, 24760, Note_on_c, 4, 74, 0
6, 24812, Note_on_c, 4, 74, 80
6, 24858, Note_on_c, 4, 74, 0
6, 24918, Note_on_c, 4, 74, 81
6, 24956, Note_on_c, 4, 74, 0
6, 25016, Note_on_c, 4, 74, 81
6, 25056, Note_on_c, 4, 74, 0
6, 25112, Note_on_c, 4, 74, 77
6, 25148, Note_on_c, 4, 74, 0
6, 25204, Note_on_c, 4, 74, 74
6, 25250, Note_on_c, 4, 74, 0
6, 25310, Note_on_c, 4, 76, 90
6, 25362, Note_on_c, 4, 76, 0
6, 25408, Note_on_c, 4, 74, 81
6, 25448, Note_on_c, 4, 74, 0
6, 25500, Note_on_c, 4, 74, 73
6, 25540, Note_on_c, 4, 74, 0
6, 25594, Note_on_c, 4, 74, 82
6, 25628, Note_on_c, 4, 74, 0
6, 25690, Note_on_c, 4, 74, 84
6, 25734, Note_on_c, 4, 74, 0
6, 25778, Note_on_c, 4, 74, 80
6, 25826, Note_on_c, 4, 74, 0
6, 25868, Note_on_c, 4, 74, 77
6, 25916, Note_on_c, 4, 74, 0
6, 25966, Note_on_c, 4, 74, 77
6, 26018, Note_on_c, 4, 74, 0
6, 26072, Note_on_c, 4, 81, 99
6, 26136, Note_on_c, 4, 81, 0
6, 26178, Note_on_c, 4, 76, 87
6, 26220, Note_on_c, 4, 76, 0
6, 26280, Note_on_c, 4, 76, 87
6, 26312, Note_on_c, 4, 76, 0
6, 26374, Note_on_c, 4, 76, 87
6, 26412, Note_on_c, 4, 76, 0
6, 26478, Note_on_c, 4, 76, 92
6, 26512, Note_on_c, 4, 76, 0
6, 26566, Note_on_c, 4, 76, 77
6, 26612, Note_on_c, 4, 76, 0
6, 26658, Note_on_c, 4, 76, 73
6, 26706, Note_on_c, 4, 76, 0
6, 26746, Note_on_c, 4, 76, 74
6, 26800, Note_on_c, 4, 76, 0
6, 26850, Note_on_c, 4, 80, 95
6, 26904, Note_on_c, 4, 80, 0
6, 26954, Note_on_c, 4, 76, 84
6, 26994, Note_on_c, 4, 76, 0
6, 27046, Note_on_c, 4, 76, 70
6, 27088, Note_on_c, 4, 76, 0
6, 27142, Note_on_c, 4, 76, 81
6, 27184, Note_on_c, 4, 76, 0
6, 27252, Note_on_c, 4, 76, 88
6, 27286, Note_on_c, 4, 76, 0
6, 27348, Note_on_c, 4, 76, 81
6, 27380, Note_on_c, 4, 76, 0
6, 27436, Note_on_c, 4, 76, 77
6, 27470, Note_on_c, 4, 76, 0
6, 27522, Note_on_c, 4, 76, 72
6, 27574, Note_on_c, 4, 76, 0
6, 27622, Note_on_c, 4, 81, 82
6, 27682, Note_on_c, 4, 81, 0
6, 27720, Note_on_c, 4, 76, 76
6, 27756, Note_on_c, 4, 76, 0
6, 27818, Note_on_c, 4, 76, 87
6, 27850, Note_on_c, 4, 76, 0
6, 27908, Note_on_c, 4, 76, 80
6, 27942, Note_on_c, 4, 76, 0
6, 28004, Note_on_c, 4, 76, 84
6, 28044, Note_on_c, 4, 76, 0
6, 28092, Note_on_c, 4, 76, 76
6, 28136, Note_on_c, 4, 76, 0
6, 28184, Note_on_c, 4, 76, 75
6, 28232, Note_on_c, 4, 76, 0
6, 28274, Note_on_c, 4, 76, 70
6, 28326, Note_on_c, 4, 76, 0
6, 28382, Note_on_c, 4, 77, 87
6, 28442, Note_on_c, 4, 77, 0
6, 28484, Note_on_c, 4, 74, 83
6, 28520, Note_on_c, 4, 74, 0
6, 28588, Note_on_c, 4, 74, 89
6, 28622, Note_on_c, 4, 74, 0
6, 28684, Note_on_c, 4, 74, 85
6, 28720, Note_on_c, 4, 74, 0
6, 28790, Note_on_c, 4, 74, 89
6, 28826, Note_on_c, 4, 74, 0
6, 28886, Note_on_c, 4, 74, 83
6, 28920, Note_on_c, 4, 74, 0
6, 28976, Note_on_c, 4, 74, 74
6, 29012, Note_on_c, 4, 74, 0
6, 29058, Note_on_c, 4, 74, 72
6, 29098, Note_on_c, 4, 74, 0
6, 29142, Note_on_c, 4, 74, 81
6, 29178, Note_on_c, 4, 74, 0
6, 29224, Note_on_c, 4, 74, 80
6, 29282, Note_on_c, 4, 74, 0
6, 29328, Note_on_c, 4, 71, 84
6, 29376, Note_on_c, 4, 71, 0
6, 29418, Note_on_c, 4, 71, 77
6, 29468, Note_on_c, 4, 71, 0
6, 29528, Note_on_c, 4, 72, 89
6, 29566, Note_on_c, 4, 72, 0
6, 29624, Note_on_c, 4, 72, 74
6, 29676, Note_on_c, 4, 72, 0
6, 29730, Note_on_c, 4, 81, 80
6, 29776, Note_on_c, 4, 81, 0
6, 29828, Note_on_c, 4, 81, 80
6, 29880, Note_on_c, 4, 81, 0
6, 29932, Note_on_c, 4, 71, 90
6, 29978, Note_on_c, 4, 71, 0
6, 30024, Note_on_c, 4, 71, 81
6, 30070, Note_on_c, 4, 71, 0
6, 30110, Note_on_c, 4, 81, 84
6, 30152, Note_on_c, 4, 81, 0
6, 30194, Note_on_c, 4, 81, 80
6, 30252, Note_on_c, 4, 81, 0
6, 30288, Note_on_c, 4, 71, 87
6, 30324, Note_on_c, 4, 71, 0
6, 30378, Note_on_c, 4, 71, 83
6, 30422, Note_on_c, 4, 71, 0
6, 30476, Note_on_c, 4, 80, 85
6, 30520, Note_on_c, 4, 80, 0
6, 30562, Note_on_c, 4, 80, 76
6, 30624, Note_on_c, 4, 80, 0
6, 30668, Note_on_c, 4, 69, 84
6, 30708, Note_on_c, 4, 69, 0
6, 30756, Note_on_c, 4, 69, 76
6, 30790, Note_on_c, 4, 69, 0
6, 30856, Note_on_c, 4, 84, 123
6, 30902, Note_on_c, 4, 84, 0
6, 30948, Note_on_c, 4, 84, 121
6, 31004, Note_on_c, 4, 84, 0
6, 31058, Note_on_c, 4, 81, 121
6, 31100, Note_on_c, 4, 81, 0
6, 31148, Note_on_c, 4, 81, 115
6, 31202, Note_on_c, 4, 81, 0
6, 31258, Note_on_c, 4, 79, 117
6, 31302, Note_on_c, 4, 79, 0
6, 31350, Note_on_c, 4, 79, 107
6, 31406, Note_on_c, 4, 79, 0
6, 31452, Note_on_c, 4, 77, 111
6, 31494, Note_on_c, 4, 77, 0
6, 31540, Note_on_c, 4, 77, 103
6, 31592, Note_on_c, 4, 77, 0
6, 31632, Note_on_c, 4, 76, 105
6, 31678, Note_on_c, 4, 76, 0
6, 31720, Note_on_c, 4, 76, 107
6, 31776, Note_on_c, 4, 76, 0
6, 31826, Note_on_c, 4, 75, 111
6, 31868, Note_on_c, 4, 75, 0
6, 31918, Note_on_c, 4, 75, 107
6, 31966, Note_on_c, 4, 75, 0
6, 32012, Note_on_c, 4, 78, 107
6, 32054, Note_on_c, 4, 78, 0
6, 32094, Note_on_c, 4, 78, 107
6, 32156, Note_on_c, 4, 78, 0
6, 32206, Note_on_c, 4, 76, 107
6, 32248, Note_on_c, 4, 76, 0
6, 32294, Note_on_c, 4, 76, 109
6, 32346, Note_on_c, 4, 76, 0
6, 32400, Note_on_c, 4, 74, 115
6, 32450, Note_on_c, 4, 74, 0
6, 32486, Note_on_c, 4, 74, 111
6, 32542, Note_on_c, 4, 74, 0
6, 32594, Note_on_c, 4, 83, 101
6, 32640, Note_on_c, 4, 83, 0
6, 32686, Note_on_c, 4, 83, 97
6, 32738, Note_on_c, 4, 83, 0
6, 32788, Note_on_c, 4, 81, 95
6, 32830, Note_on_c, 4, 81, 0
6, 32886, Note_on_c, 4, 81, 101
6, 32936, Note_on_c, 4, 81, 0
6, 32988, Note_on_c, 4, 80, 93
6, 33030, Note_on_c, 4, 80, 0
6, 33076, Note_on_c, 4, 80, 99
6, 33138, Note_on_c, 4, 80, 0
6, 33180, Note_on_c, 4, 77, 95
6, 33218, Note_on_c, 4, 77, 0
6, 33270, Note_on_c, 4, 77, 89
6, 33334, Note_on_c, 4, 77, 0
6, 33370, Note_on_c, 4, 76, 97
6, 33412, Note_on_c, 4, 76, 0
6, 33464, Note_on_c, 4, 76, 99
6, 33516, Note_on_c, 4, 76, 0
6, 33558, Note_on_c, 4, 74, 87
6, 33596, Note_on_c, 4, 74, 0
6, 33650, Note_on_c, 4, 74, 93
6, 33700, Note_on_c, 4, 74, 0
6, 33750, Note_on_c, 4, 72, 89
6, 33796, Note_on_c, 4, 72, 0
6, 33840, Note_on_c, 4, 72, 95
6, 33898, Note_on_c, 4, 72, 0
6, 33944, Note_on_c, 4, 81, 95
6, 33988, Note_on_c, 4, 81, 0
6, 34032, Note_on_c, 4, 81, 89
6, 34088, Note_on_c, 4, 81, 0
6, 34144, Note_on_c, 4, 77, 95
6, 34188, Note_on_c, 4, 77, 0
6, 34234, Note_on_c, 4, 77, 87
6, 34288, Note_on_c, 4, 77, 0
6, 34336, Note_on_c, 4, 74, 85
6, 34376, Note_on_c, 4, 74, 0
6, 34428, Note_on_c, 4, 74, 85
6, 34476, Note_on_c, 4, 74, 0
6, 34524, Note_on_c, 4, 72, 84
6, 34572, Note_on_c, 4, 72, 0
6, 34610, Note_on_c, 4, 72, 87
6, 34676, Note_on_c, 4, 72, 0
6, 34714, Note_on_c, 4, 81, 84
6, 34760, Note_on_c, 4, 81, 0
6, 34808, Note_on_c, 4, 81, 85
6, 34876, Note_on_c, 4, 81, 0
6, 34904, Note_on_c, 4, 71, 89
6, 34948, Note_on_c, 4, 71, 0
6, 34990, Note_on_c, 4, 71, 80
6, 35042, Note_on_c, 4, 71, 0
6, 35084, Note_on_c, 4, 80, 85
6, 35132, Note_on_c, 4, 80, 0
6, 35178, Note_on_c, 4, 80, 91
6, 35226, Note_on_c, 4, 80, 0
6, 35280, Note_on_c, 4, 81, 101
6, 35362, Note_on_c, 4, 81, 0
6, 35386, Note_on_c, 4, 72, 71
6, 35424, Note_on_c, 4, 72, 0
6, 35488, Note_on_c, 4, 72, 70
6, 35516, Note_on_c, 4, 72, 0
6, 35572, Note_on_c, 4, 72, 73
6, 35610, Note_on_c, 4, 72, 0
6, 35672, Note_on_c, 4, 72, 77
6, 35706, Note_on_c, 4, 72, 0
6, 35760, Note_on_c, 4, 72, 75
6, 35800, Note_on_c, 4, 72, 0
6, 35848, Note_on_c, 4, 72, 69
6, 35892, Note_on_c, 4, 72, 0
6, 35934, Note_on_c, 4, 72, 70
6, 35992, Note_on_c, 4, 72, 0
6, 36052, Note_on_c, 4, 81, 96
6, 36122, Note_on_c, 4, 81, 0
6, 36150, Note_on_c, 4, 72, 79
6, 36190, Note_on_c, 4, 72, 0
6, 36242, Note_on_c, 4, 72, 72
6, 36280, Note_on_c, 4, 72, 0
6, 36332, Note_on_c, 4, 72, 77
6, 36376, Note_on_c, 4, 72, 0
6, 36430, Note_on_c, 4, 72, 78
6, 36474, Note_on_c, 4, 72, 0
6, 36526, Note_on_c, 4, 72, 64
6, 36562, Note_on_c, 4, 72, 0
6, 36616, Note_on_c, 4, 72, 75
6, 36658, Note_on_c, 4, 72, 0
6, 36702, Note_on_c, 4, 72, 68
6, 36758, Note_on_c, 4, 72, 0
6, 36806, Note_on_c, 4, 83, 94
6, 36876, Note_on_c, 4, 83, 0
6, 37018, Note_on_c, 4, 71, 101
6, 37274, Note_on_c, 4, 71, 0
6, 37400, Note_on_c, 4, 71, 108
6, 37664, Note_on_c, 4, 71, 0
6, 37786, Note_on_c, 4, 71, 101
6, 38062, Note_on_c, 4, 71, 0
6, 38164, Note_on_c, 4, 71, 91
6, 38236, Note_on_c, 4, 71, 0
6, 38358, Note_on_c, 4, 83, 99
6, 38452, Note_on_c, 4, 83, 0
6, 38454, Note_on_c, 4, 71, 85
6, 38494, Note_on_c, 4, 71, 0
6, 38556, Note_on_c, 4, 71, 74
6, 38592, Note_on_c, 4, 71, 0
6, 38648, Note_on_c, 4, 71, 82
6, 38688, Note_on_c, 4, 71, 0
6, 38754, Note_on_c, 4, 71, 85
6, 38794, Note_on_c, 4, 71, 0
6, 38848, Note_on_c, 4, 71, 77
6, 38884, Note_on_c, 4, 71, 0
6, 38940, Note_on_c, 4, 71, 74
6, 38984, Note_on_c, 4, 71, 0
6, 39026, Note_on_c, 4, 71, 74
6, 39094, Note_on_c, 4, 71, 0
6, 39136, Note_on_c, 4, 83, 91
6, 39226, Note_on_c, 4, 83, 0
6, 39234, Note_on_c, 4, 71, 89
6, 39272, Note_on_c, 4, 71, 0
6, 39330, Note_on_c, 4, 71, 81
6, 39370, Note_on_c, 4, 71, 0
6, 39416, Note_on_c, 4, 71, 80
6, 39462, Note_on_c, 4, 71, 0
6, 39514, Note_on_c, 4, 71, 81
6, 39562, Note_on_c, 4, 71, 0
6, 39604, Note_on_c, 4, 71, 75
6, 39652, Note_on_c, 4, 71, 0
6, 39692, Note_on_c, 4, 71, 73
6, 39738, Note_on_c, 4, 71, 0
6, 39774, Note_on_c, 4, 71, 80
6, 39850, Note_on_c, 4, 71, 0
6, 39878, Note_on_c, 4, 84, 89
6, 39942, Note_on_c, 4, 84, 0
6, 40092, Note_on_c, 4, 72, 99
6, 40320, Note_on_c, 4, 72, 0
6, 40464, Note_on_c, 4, 72, 96
6, 40730, Note_on_c, 4, 72, 0
6, 40856, Note_on_c, 4, 69, 88
6, 40950, Note_on_c, 4, 69, 0
6, 41044, Note_on_c, 4, 69, 88
6, 41146, Note_on_c, 4, 69, 0
6, 41242, Note_on_c, 4, 69, 83
6, 41326, Note_on_c, 4, 69, 0
6, 41436, Note_on_c, 4, 62, 99
6, 41436, Note_on_c, 4, 77, 92
6, 41440, Note_on_c, 4, 69, 81
6, 41540, Note_on_c, 4, 69, 0
6, 41574, Note_on_c, 4, 62, 0
6, 41580, Note_on_c, 4, 77, 0
6, 41832, Note_on_c, 4, 76, 91
6, 41902, Note_on_c, 4, 76, 0
6, 41926, Note_on_c, 4, 69, 82
6, 41986, Note_on_c, 4, 69, 0
6, 42030, Note_on_c, 4, 72, 82
6, 42084, Note_on_c, 4, 72, 0
6, 42120, Note_on_c, 4, 76, 81
6, 42192, Note_on_c, 4, 76, 0
6, 42222, Note_on_c, 4, 81, 89
6, 42322, Note_on_c, 4, 81, 0
6, 42420, Note_on_c, 4, 76, 92
6, 42682, Note_on_c, 4, 76, 0
6, 42788, Note_on_c, 4, 76, 96
6, 43236, Note_on_c, 4, 76, 0
6, 43362, Note_on_c, 4, 81, 92
6, 43416, Note_on_c, 4, 81, 0
6, 43458, Note_on_c, 4, 76, 80
6, 43506, Note_on_c, 4, 76, 0
6, 43550, Note_on_c, 4, 81, 80
6, 43602, Note_on_c, 4, 81, 0
6, 43630, Note_on_c, 4, 84, 76
6, 43688, Note_on_c, 4, 84, 0
6, 43732, Note_on_c, 4, 88, 83
6, 43780, Note_on_c, 4, 88, 0
6, 43938, Note_on_c, 4, 88, 87
6, 44138, Note_on_c, 4, 88, 0
6, 44304, Note_on_c, 4, 88, 73
6, 44410, Note_on_c, 4, 88, 0
6, 44496, Note_on_c, 4, 86, 91
6, 44544, Note_on_c, 4, 86, 0
6, 44582, Note_on_c, 4, 86, 79
6, 44656, Note_on_c, 4, 86, 0
6, 44688, Note_on_c, 4, 74, 88
6, 44734, Note_on_c, 4, 74, 0
6, 44776, Note_on_c, 4, 74, 79
6, 44826, Note_on_c, 4, 74, 0
6, 44874, Note_on_c, 4, 72, 90
6, 44914, Note_on_c, 4, 72, 0
6, 44948, Note_on_c, 4, 72, 88
6, 44992, Note_on_c, 4, 72, 0
6, 45054, Note_on_c, 4, 84, 87
6, 45104, Note_on_c, 4, 84, 0
6, 45158, Note_on_c, 4, 84, 80
6, 45218, Note_on_c, 4, 84, 0
6, 45268, Note_on_c, 4, 82, 88
6, 45312, Note_on_c, 4, 82, 0
6, 45358, Note_on_c, 4, 82, 78
6, 45422, Note_on_c, 4, 82, 0
6, 45454, Note_on_c, 4, 70, 82
6, 45498, Note_on_c, 4, 70, 0
6, 45544, Note_on_c, 4, 70, 65
6, 45596, Note_on_c, 4, 70, 0
6, 45648, Note_on_c, 4, 69, 89
6, 45692, Note_on_c, 4, 69, 0
6, 45734, Note_on_c, 4, 69, 90
6, 45772, Note_on_c, 4, 69, 0
6, 45840, Note_on_c, 4, 81, 95
6, 45884, Note_on_c, 4, 81, 0
6, 45934, Note_on_c, 4, 81, 80
6, 45974, Note_on_c, 4, 81, 0
6, 46038, Note_on_c, 4, 81, 90
6, 46060, Note_on_c, 4, 83, 78
6, 46068, Note_on_c, 4, 81, 0
6, 46094, Note_on_c, 4, 83, 0
6, 46094, Note_on_c, 4, 81, 80
6, 46136, Note_on_c, 4, 83, 78
6, 46140, Note_on_c, 4, 81, 0
6, 46172, Note_on_c, 4, 83, 0
6, 46172, Note_on_c, 4, 81, 72
6, 46204, Note_on_c, 4, 83, 72
6, 46208, Note_on_c, 4, 81, 0
6, 46242, Note_on_c, 4, 81, 71
6, 46266, Note_on_c, 4, 83, 0
6, 46346, Note_on_c, 4, 81, 0
6, 46346, Note_on_c, 4, 80, 69
6, 46390, Note_on_c, 4, 80, 0
6, 46392, Note_on_c, 4, 81, 78
6, 46436, Note_on_c, 4, 80, 100
6, 46444, Note_on_c, 4, 81, 0
6, 46486, Note_on_c, 4, 80, 0
6, 46636, Note_on_c, 4, 76, 89
6, 46888, Note_on_c, 4, 76, 0
6, 47000, Note_on_c, 4, 76, 85
6, 47144, Note_on_c, 4, 76, 0
6, 47192, Note_on_c, 4, 64, 91
6, 47230, Note_on_c, 4, 64, 0
6, 47396, Note_on_c, 4, 76, 88
6, 47466, Note_on_c, 4, 76, 0
6, 47598, Note_on_c, 4, 77, 89
6, 47642, Note_on_c, 4, 77, 0
6, 47682, Note_on_c, 4, 77, 77
6, 47730, Note_on_c, 4, 77, 0
6, 47788, Note_on_c, 4, 80, 84
6, 47834, Note_on_c, 4, 80, 0
6, 47882, Note_on_c, 4, 80, 70
6, 47940, Note_on_c, 4, 80, 0
6, 47988, Note_on_c, 4, 77, 87
6, 48036, Note_on_c, 4, 77, 0
6, 48078, Note_on_c, 4, 77, 75
6, 48138, Note_on_c, 4, 77, 0
6, 48176, Note_on_c, 4, 74, 79
6, 48218, Note_on_c, 4, 74, 0
6, 48262, Note_on_c, 4, 74, 75
6, 48318, Note_on_c, 4, 74, 0
6, 48360, Note_on_c, 4, 71, 74
6, 48408, Note_on_c, 4, 71, 0
6, 48454, Note_on_c, 4, 71, 69
6, 48508, Note_on_c, 4, 71, 0
6, 48558, Note_on_c, 4, 67, 80
6, 48594, Note_on_c, 4, 67, 0
6, 48642, Note_on_c, 4, 67, 78
6, 48704, Note_on_c, 4, 67, 0
6, 48752, Note_on_c, 4, 65, 87
6, 48796, Note_on_c, 4, 65, 0
6, 48838, Note_on_c, 4, 65, 76
6, 48888, Note_on_c, 4, 65, 0
6, 48918, Note_on_c, 4, 62, 70
6, 48958, Note_on_c, 4, 62, 0
6, 49006, Note_on_c, 4, 62, 69
6, 49068, Note_on_c, 4, 62, 0
6, 49110, Note_on_c, 4, 55, 99
6, 49112, Note_on_c, 4, 72, 75
6, 49114, Note_on_c, 4, 63, 94
6, 49160, Note_on_c, 4, 55, 0
6, 49170, Note_on_c, 4, 63, 0
6, 49174, Note_on_c, 4, 72, 0
6, 49214, Note_on_c, 4, 67, 80
6, 49258, Note_on_c, 4, 67, 0
6, 49306, Note_on_c, 4, 67, 77
6, 49346, Note_on_c, 4, 67, 0
6, 49398, Note_on_c, 4, 67, 64
6, 49440, Note_on_c, 4, 67, 0
6, 49500, Note_on_c, 4, 67, 82
6, 49538, Note_on_c, 4, 67, 0
6, 49588, Note_on_c, 4, 67, 79
6, 49626, Note_on_c, 4, 67, 0
6, 49680, Note_on_c, 4, 67, 74
6, 49716, Note_on_c, 4, 67, 0
6, 49762, Note_on_c, 4, 67, 72
6, 49818, Note_on_c, 4, 67, 0
6, 49874, Note_on_c, 4, 72, 89
6, 49930, Note_on_c, 4, 72, 0
6, 49976, Note_on_c, 4, 67, 80
6, 50012, Note_on_c, 4, 67, 0
6, 50076, Note_on_c, 4, 67, 73
6, 50116, Note_on_c, 4, 67, 0
6, 50164, Note_on_c, 4, 67, 67
6, 50210, Note_on_c, 4, 67, 0
6, 50270, Note_on_c, 4, 67, 79
6, 50308, Note_on_c, 4, 67, 0
6, 50358, Note_on_c, 4, 67, 76
6, 50402, Note_on_c, 4, 67, 0
6, 50450, Note_on_c, 4, 67, 73
6, 50488, Note_on_c, 4, 67, 0
6, 50542, Note_on_c, 4, 67, 75
6, 50584, Note_on_c, 4, 67, 0
6, 50640, Note_on_c, 4, 75, 94
6, 50704, Note_on_c, 4, 75, 0
6, 50742, Note_on_c, 4, 72, 75
6, 50782, Note_on_c, 4, 72, 0
6, 50844, Note_on_c, 4, 72, 83
6, 50878, Note_on_c, 4, 72, 0
6, 50930, Note_on_c, 4, 72, 80
6, 50968, Note_on_c, 4, 72, 0
6, 51036, Note_on_c, 4, 72, 83
6, 51070, Note_on_c, 4, 72, 0
6, 51130, Note_on_c, 4, 72, 80
6, 51166, Note_on_c, 4, 72, 0
6, 51216, Note_on_c, 4, 72, 71
6, 51254, Note_on_c, 4, 72, 0
6, 51310, Note_on_c, 4, 72, 74
6, 51356, Note_on_c, 4, 72, 0
6, 51406, Note_on_c, 4, 67, 85
6, 51456, Note_on_c, 4, 67, 0
6, 51492, Note_on_c, 4, 67, 72
6, 51554, Note_on_c, 4, 67, 0
6, 51598, Note_on_c, 4, 72, 78
6, 51638, Note_on_c, 4, 72, 0
6, 51692, Note_on_c, 4, 72, 80
6, 51738, Note_on_c, 4, 72, 0
6, 51800, Note_on_c, 4, 72, 84
6, 51834, Note_on_c, 4, 72, 0
6, 51896, Note_on_c, 4, 72, 81
6, 51930, Note_on_c, 4, 72, 0
6, 51996, Note_on_c, 4, 72, 84
6, 52030, Note_on_c, 4, 72, 0
6, 52082, Note_on_c, 4, 72, 78
6, 52122, Note_on_c, 4, 72, 0
6, 52188, Note_on_c, 4, 72, 99
6, 52238, Note_on_c, 4, 72, 0
6, 52388, Note_on_c, 4, 72, 101
6, 52568, Note_on_c, 4, 72, 0
6, 52588, Note_on_c, 4, 73, 88
6, 52628, Note_on_c, 4, 73, 0
6, 52762, Note_on_c, 4, 73, 94
6, 53026, Note_on_c, 4, 73, 0
6, 53144, Note_on_c, 4, 73, 91
6, 53382, Note_on_c, 4, 73, 0
6, 53500, Note_on_c, 4, 73, 85
6, 53550, Note_on_c, 4, 73, 0
6, 53700, Note_on_c, 4, 73, 99
6, 53776, Note_on_c, 4, 73, 0
6, 53804, Note_on_c, 4, 67, 61
6, 53846, Note_on_c, 4, 67, 0
6, 53912, Note_on_c, 4, 67, 71
6, 53948, Note_on_c, 4, 67, 0
6, 54006, Note_on_c, 4, 67, 71
6, 54044, Note_on_c, 4, 67, 0
6, 54110, Note_on_c, 4, 67, 73
6, 54154, Note_on_c, 4, 67, 0
6, 54208, Note_on_c, 4, 67, 68
6, 54248, Note_on_c, 4, 67, 0
6, 54300, Note_on_c, 4, 67, 72
6, 54342, Note_on_c, 4, 67, 0
6, 54394, Note_on_c, 4, 67, 71
6, 54438, Note_on_c, 4, 67, 0
6, 54502, Note_on_c, 4, 73, 100
6, 54578, Note_on_c, 4, 73, 0
6, 54598, Note_on_c, 4, 67, 74
6, 54640, Note_on_c, 4, 67, 0
6, 54692, Note_on_c, 4, 67, 75
6, 54728, Note_on_c, 4, 67, 0
6, 54774, Note_on_c, 4, 67, 70
6, 54822, Note_on_c, 4, 67, 0
6, 54872, Note_on_c, 4, 67, 74
6, 54914, Note_on_c, 4, 67, 0
6, 54964, Note_on_c, 4, 67, 75
6, 55010, Note_on_c, 4, 67, 0
6, 55058, Note_on_c, 4, 67, 75
6, 55096, Note_on_c, 4, 67, 0
6, 55146, Note_on_c, 4, 67, 75
6, 55190, Note_on_c, 4, 67, 0
6, 55250, Note_on_c, 4, 76, 90
6, 55310, Note_on_c, 4, 76, 0
6, 55348, Note_on_c, 4, 73, 84
6, 55388, Note_on_c, 4, 73, 0
6, 55442, Note_on_c, 4, 73, 76
6, 55482, Note_on_c, 4, 73, 0
6, 55532, Note_on_c, 4, 73, 71
6, 55578, Note_on_c, 4, 73, 0
6, 55638, Note_on_c, 4, 73, 86
6, 55680, Note_on_c, 4, 73, 0
6, 55736, Note_on_c, 4, 73, 76
6, 55778, Note_on_c, 4, 73, 0
6, 55826, Note_on_c, 4, 73, 68
6, 55874, Note_on_c, 4, 73, 0
6, 55922, Note_on_c, 4, 73, 68
6, 55980, Note_on_c, 4, 73, 0
6, 56034, Note_on_c, 4, 69, 85
6, 56106, Note_on_c, 4, 69, 0
6, 56136, Note_on_c, 4, 73, 85
6, 56178, Note_on_c, 4, 73, 0
6, 56230, Note_on_c, 4, 73, 76
6, 56272, Note_on_c, 4, 73, 0
6, 56318, Note_on_c, 4, 73, 74
6, 56366, Note_on_c, 4, 73, 0
6, 56420, Note_on_c, 4, 73, 81
6, 56462, Note_on_c, 4, 73, 0
6, 56514, Note_on_c, 4, 73, 76
6, 56552, Note_on_c, 4, 73, 0
6, 56608, Note_on_c, 4, 73, 74
6, 56646, Note_on_c, 4, 73, 0
6, 56688, Note_on_c, 4, 73, 63
6, 56734, Note_on_c, 4, 73, 0
6, 56788, Note_on_c, 4, 73, 84
6, 56842, Note_on_c, 4, 73, 0
6, 56984, Note_on_c, 4, 73, 98
6, 57162, Note_on_c, 4, 73, 0
6, 57176, Note_on_c, 4, 74, 85
6, 57212, Note_on_c, 4, 74, 0
6, 57356, Note_on_c, 4, 74, 101
6, 57612, Note_on_c, 4, 74, 0
6, 57748, Note_on_c, 4, 74, 91
6, 58010, Note_on_c, 4, 74, 0
6, 58134, Note_on_c, 4, 74, 92
6, 58186, Note_on_c, 4, 74, 0
6, 58332, Note_on_c, 4, 75, 98
6, 58402, Note_on_c, 4, 75, 0
6, 58428, Note_on_c, 4, 70, 86
6, 58474, Note_on_c, 4, 70, 0
6, 58530, Note_on_c, 4, 70, 77
6, 58572, Note_on_c, 4, 70, 0
6, 58614, Note_on_c, 4, 70, 75
6, 58662, Note_on_c, 4, 70, 0
6, 58720, Note_on_c, 4, 70, 79
6, 58762, Note_on_c, 4, 70, 0
6, 58806, Note_on_c, 4, 70, 74
6, 58856, Note_on_c, 4, 70, 0
6, 58894, Note_on_c, 4, 70, 71
6, 58938, Note_on_c, 4, 70, 0
6, 58984, Note_on_c, 4, 70, 63
6, 59062, Note_on_c, 4, 70, 0
6, 59092, Note_on_c, 4, 78, 85
6, 59176, Note_on_c, 4, 78, 0
6, 59198, Note_on_c, 4, 72, 80
6, 59260, Note_on_c, 4, 72, 0
6, 59308, Note_on_c, 4, 72, 78
6, 59356, Note_on_c, 4, 72, 0
6, 59402, Note_on_c, 4, 72, 80
6, 59452, Note_on_c, 4, 72, 0
6, 59512, Note_on_c, 4, 72, 80
6, 59560, Note_on_c, 4, 72, 0
6, 59600, Note_on_c, 4, 72, 77
6, 59650, Note_on_c, 4, 72, 0
6, 59688, Note_on_c, 4, 72, 74
6, 59736, Note_on_c, 4, 72, 0
6, 59778, Note_on_c, 4, 72, 70
6, 59834, Note_on_c, 4, 72, 0
6, 59870, Note_on_c, 4, 79, 81
6, 59924, Note_on_c, 4, 79, 0
6, 59968, Note_on_c, 4, 74, 80
6, 60010, Note_on_c, 4, 74, 0
6, 60072, Note_on_c, 4, 74, 80
6, 60110, Note_on_c, 4, 74, 0
6, 60164, Note_on_c, 4, 74, 75
6, 60204, Note_on_c, 4, 74, 0
6, 60268, Note_on_c, 4, 74, 83
6, 60310, Note_on_c, 4, 74, 0
6, 60360, Note_on_c, 4, 74, 79
6, 60406, Note_on_c, 4, 74, 0
6, 60450, Note_on_c, 4, 74, 74
6, 60488, Note_on_c, 4, 74, 0
6, 60538, Note_on_c, 4, 74, 69
6, 60590, Note_on_c, 4, 74, 0
6, 60640, Note_on_c, 4, 77, 83
6, 60706, Note_on_c, 4, 77, 0
6, 60740, Note_on_c, 4, 72, 74
6, 60780, Note_on_c, 4, 72, 0
6, 60842, Note_on_c, 4, 72, 82
6, 60876, Note_on_c, 4, 72, 0
6, 60932, Note_on_c, 4, 72, 78
6, 60970, Note_on_c, 4, 72, 0
6, 61030, Note_on_c, 4, 72, 79
6, 61066, Note_on_c, 4, 72, 0
6, 61124, Note_on_c, 4, 72, 76
6, 61160, Note_on_c, 4, 72, 0
6, 61214, Note_on_c, 4, 72, 73
6, 61250, Note_on_c, 4, 72, 0
6, 61292, Note_on_c, 4, 72, 64
6, 61346, Note_on_c, 4, 72, 0
6, 61396, Note_on_c, 4, 75, 87
6, 61448, Note_on_c, 4, 75, 0
6, 61490, Note_on_c, 4, 70, 82
6, 61530, Note_on_c, 4, 70, 0
6, 61590, Note_on_c, 4, 70, 78
6, 61628, Note_on_c, 4, 70, 0
6, 61680, Note_on_c, 4, 70, 65
6, 61722, Note_on_c, 4, 70, 0
6, 61788, Note_on_c, 4, 70, 83
6, 61826, Note_on_c, 4, 70, 0
6, 61880, Note_on_c, 4, 70, 70
6, 61922, Note_on_c, 4, 70, 0
6, 61968, Note_on_c, 4, 70, 63
6, 62014, Note_on_c, 4, 70, 0
6, 62060, Note_on_c, 4, 70, 60
6, 62116, Note_on_c, 4, 70, 0
6, 62170, Note_on_c, 4, 74, 87
6, 62228, Note_on_c, 4, 74, 0
6, 62270, Note_on_c, 4, 71, 83
6, 62308, Note_on_c, 4, 71, 0
6, 62374, Note_on_c, 4, 71, 83
6, 62408, Note_on_c, 4, 71, 0
6, 62462, Note_on_c, 4, 71, 77
6, 62502, Note_on_c, 4, 71, 0
6, 62564, Note_on_c, 4, 71, 78
6, 62600, Note_on_c, 4, 71, 0
6, 62660, Note_on_c, 4, 71, 75
6, 62702, Note_on_c, 4, 71, 0
6, 62744, Note_on_c, 4, 71, 71
6, 62784, Note_on_c, 4, 71, 0
6, 62834, Note_on_c, 4, 71, 68
6, 62888, Note_on_c, 4, 71, 0
6, 62936, Note_on_c, 4, 74, 84
6, 62990, Note_on_c, 4, 74, 0
6, 63020, Note_on_c, 4, 69, 74
6, 63064, Note_on_c, 4, 69, 0
6, 63118, Note_on_c, 4, 69, 75
6, 63154, Note_on_c, 4, 69, 0
6, 63212, Note_on_c, 4, 69, 73
6, 63266, Note_on_c, 4, 69, 0
6, 63318, Note_on_c, 4, 73, 86
6, 63380, Note_on_c, 4, 73, 0
6, 63418, Note_on_c, 4, 69, 79
6, 63454, Note_on_c, 4, 69, 0
6, 63520, Note_on_c, 4, 69, 80
6, 63552, Note_on_c, 4, 69, 0
6, 63610, Note_on_c, 4, 69, 81
6, 63656, Note_on_c, 4, 69, 0
6, 63718, Note_on_c, 4, 57, 121
6, 64174, Note_on_c, 4, 57, 0
6, 64290, Note_on_c, 4, 57, 103
6, 64418, Note_on_c, 4, 57, 0
6, 64478, Note_on_c, 4, 56, 89
6, 64522, Note_on_c, 4, 56, 0
6, 64560, Note_on_c, 4, 56, 80
6, 64632, Note_on_c, 4, 56, 0
6, 64668, Note_on_c, 4, 57, 89
6, 64716, Note_on_c, 4, 57, 0
6, 64754, Note_on_c, 4, 57, 88
6, 64808, Note_on_c, 4, 57, 0
6, 64860, Note_on_c, 4, 56, 95
6, 64898, Note_on_c, 4, 56, 0
6, 64942, Note_on_c, 4, 56, 84
6, 64996, Note_on_c, 4, 56, 0
6, 65050, Note_on_c, 4, 57, 95
6, 65096, Note_on_c, 4, 57, 0
6, 65140, Note_on_c, 4, 57, 90
6, 65192, Note_on_c, 4, 57, 0
6, 65246, Note_on_c, 4, 56, 94
6, 65284, Note_on_c, 4, 56, 0
6, 65330, Note_on_c, 4, 56, 86
6, 65380, Note_on_c, 4, 56, 0
6, 65432, Note_on_c, 4, 57, 95
6, 65474, Note_on_c, 4, 57, 0
6, 65518, Note_on_c, 4, 57, 89
6, 65566, Note_on_c, 4, 57, 0
6, 65624, Note_on_c, 4, 56, 95
6, 65658, Note_on_c, 4, 56, 0
6, 65706, Note_on_c, 4, 56, 85
6, 65758, Note_on_c, 4, 56, 0
6, 65810, Note_on_c, 4, 57, 94
6, 65854, Note_on_c, 4, 57, 0
6, 65894, Note_on_c, 4, 57, 92
6, 65928, Note_on_c, 4, 57, 0
6, 66004, Note_on_c, 4, 58, 104
6, 66134, Note_on_c, 4, 58, 0
6, 66422, Note_on_c, 4, 57, 118
6, 66524, Note_on_c, 4, 57, 0
6, 66802, Note_on_c, 4, 64, 96
6, 66844, Note_on_c, 4, 64, 0
6, 66896, Note_on_c, 4, 64, 96
6, 66938, Note_on_c, 4, 64, 0
6, 66990, Note_on_c, 4, 69, 85
6, 67038, Note_on_c, 4, 69, 0
6, 67082, Note_on_c, 4, 69, 80
6, 67130, Note_on_c, 4, 69, 0
6, 67180, Note_on_c, 4, 73, 90
6, 67230, Note_on_c, 4, 73, 0
6, 67264, Note_on_c, 4, 73, 71
6, 67316, Note_on_c, 4, 73, 0
6, 67368, Note_on_c, 4, 76, 83
6, 67404, Note_on_c, 4, 76, 0
6, 67458, Note_on_c, 4, 76, 81
6, 67512, Note_on_c, 4, 76, 0
6, 67560, Note_on_c, 4, 77, 80
6, 67608, Note_on_c, 4, 77, 0
6, 67640, Note_on_c, 4, 77, 79
6, 67702, Note_on_c, 4, 77, 0
6, 67734, Note_on_c, 4, 68, 88
6, 67768, Note_on_c, 4, 68, 0
6, 67820, Note_on_c, 4, 68, 90
6, 67858, Note_on_c, 4, 68, 0
6, 67928, Note_on_c, 4, 69, 90
6, 67976, Note_on_c, 4, 69, 0
6, 68018, Note_on_c, 4, 69, 79
6, 68070, Note_on_c, 4, 69, 0
6, 68122, Note_on_c, 4, 76, 81
6, 68166, Note_on_c, 4, 76, 0
6, 68214, Note_on_c, 4, 76, 80
6, 68276, Note_on_c, 4, 76, 0
6, 68322, Note_on_c, 4, 64, 92
6, 68364, Note_on_c, 4, 64, 0
6, 68412, Note_on_c, 4, 64, 92
6, 68470, Note_on_c, 4, 64, 0
6, 68518, Note_on_c, 4, 69, 83
6, 68568, Note_on_c, 4, 69, 0
6, 68610, Note_on_c, 4, 69, 79
6, 68664, Note_on_c, 4, 69, 0
6, 68712, Note_on_c, 4, 73, 89
6, 68756, Note_on_c, 4, 73, 0
6, 68804, Note_on_c, 4, 73, 76
6, 68854, Note_on_c, 4, 73, 0
6, 68902, Note_on_c, 4, 76, 85
6, 68940, Note_on_c, 4, 76, 0
6, 68986, Note_on_c, 4, 76, 77
6, 69036, Note_on_c, 4, 76, 0
6, 69086, Note_on_c, 4, 77, 84
6, 69124, Note_on_c, 4, 77, 0
6, 69180, Note_on_c, 4, 77, 80
6, 69224, Note_on_c, 4, 77, 0
6, 69266, Note_on_c, 4, 68, 84
6, 69308, Note_on_c, 4, 68, 0
6, 69348, Note_on_c, 4, 68, 74
6, 69406, Note_on_c, 4, 68, 0
6, 69444, Note_on_c, 4, 69, 79
6, 69488, Note_on_c, 4, 69, 0
6, 69534, Note_on_c, 4, 69, 79
6, 69578, Note_on_c, 4, 69, 0
6, 69628, Note_on_c, 4, 76, 84
6, 69672, Note_on_c, 4, 76, 0
6, 69710, Note_on_c, 4, 76, 77
6, 69742, Note_on_c, 4, 76, 0
6, 69834, Note_on_c, 4, 57, 101
6, 70290, Note_on_c, 4, 57, 0
6, 70430, Note_on_c, 4, 57, 96
6, 70524, Note_on_c, 4, 57, 0
6, 70628, Note_on_c, 4, 56, 97
6, 70672, Note_on_c, 4, 56, 0
6, 70716, Note_on_c, 4, 56, 74
6, 70768, Note_on_c, 4, 56, 0
6, 70816, Note_on_c, 4, 57, 84
6, 70856, Note_on_c, 4, 57, 0
6, 70912, Note_on_c, 4, 57, 88
6, 70962, Note_on_c, 4, 57, 0
6, 71024, Note_on_c, 4, 56, 90
6, 71066, Note_on_c, 4, 56, 0
6, 71116, Note_on_c, 4, 56, 78
6, 71168, Note_on_c, 4, 56, 0
6, 71214, Note_on_c, 4, 57, 85
6, 71250, Note_on_c, 4, 57, 0
6, 71304, Note_on_c, 4, 57, 89
6, 71350, Note_on_c, 4, 57, 0
6, 71406, Note_on_c, 4, 56, 93
6, 71450, Note_on_c, 4, 56, 0
6, 71496, Note_on_c, 4, 56, 77
6, 71548, Note_on_c, 4, 56, 0
6, 71592, Note_on_c, 4, 57, 89
6, 71634, Note_on_c, 4, 57, 0
6, 71684, Note_on_c, 4, 57, 85
6, 71730, Note_on_c, 4, 57, 0
6, 71790, Note_on_c, 4, 56, 92
6, 71830, Note_on_c, 4, 56, 0
6, 71880, Note_on_c, 4, 56, 82
6, 71926, Note_on_c, 4, 56, 0
6, 71968, Note_on_c, 4, 57, 85
6, 72008, Note_on_c, 4, 57, 0
6, 72056, Note_on_c, 4, 57, 87
6, 72104, Note_on_c, 4, 57, 0
6, 72152, Note_on_c, 4, 58, 100
6, 72230, Note_on_c, 4, 58, 0
6, 72550, Note_on_c, 4, 57, 103
6, 72664, Note_on_c, 4, 57, 0
6, 72954, Note_on_c, 4, 69, 90
6, 73000, Note_on_c, 4, 69, 0
6, 73044, Note_on_c, 4, 69, 82
6, 73098, Note_on_c, 4, 69, 0
6, 73140, Note_on_c, 4, 73, 87
6, 73190, Note_on_c, 4, 73, 0
6, 73228, Note_on_c, 4, 73, 67
6, 73288, Note_on_c, 4, 73, 0
6, 73332, Note_on_c, 4, 76, 84
6, 73380, Note_on_c, 4, 76, 0
6, 73422, Note_on_c, 4, 76, 77
6, 73470, Note_on_c, 4, 76, 0
6, 73510, Note_on_c, 4, 81, 74
6, 73554, Note_on_c, 4, 81, 0
6, 73608, Note_on_c, 4, 81, 74
6, 73662, Note_on_c, 4, 81, 0
6, 73708, Note_on_c, 4, 80, 90
6, 73758, Note_on_c, 4, 80, 0
6, 73798, Note_on_c, 4, 80, 71
6, 73876, Note_on_c, 4, 80, 0
6, 73898, Note_on_c, 4, 71, 77
6, 73938, Note_on_c, 4, 71, 0
6, 73982, Note_on_c, 4, 71, 77
6, 74032, Note_on_c, 4, 71, 0
6, 74090, Note_on_c, 4, 69, 85
6, 74134, Note_on_c, 4, 69, 0
6, 74182, Note_on_c, 4, 69, 74
6, 74234, Note_on_c, 4, 69, 0
6, 74276, Note_on_c, 4, 81, 80
6, 74314, Note_on_c, 4, 81, 0
6, 74364, Note_on_c, 4, 81, 78
6, 74426, Note_on_c, 4, 81, 0
6, 74478, Note_on_c, 4, 69, 91
6, 74520, Note_on_c, 4, 69, 0
6, 74572, Note_on_c, 4, 69, 89
6, 74614, Note_on_c, 4, 69, 0
6, 74662, Note_on_c, 4, 73, 87
6, 74712, Note_on_c, 4, 73, 0
6, 74748, Note_on_c, 4, 73, 67
6, 74806, Note_on_c, 4, 73, 0
6, 74856, Note_on_c, 4, 76, 83
6, 74894, Note_on_c, 4, 76, 0
6, 74946, Note_on_c, 4, 76, 77
6, 74990, Note_on_c, 4, 76, 0
6, 75036, Note_on_c, 4, 81, 80
6, 75076, Note_on_c, 4, 81, 0
6, 75126, Note_on_c, 4, 81, 77
6, 75180, Note_on_c, 4, 81, 0
6, 75224, Note_on_c, 4, 80, 86
6, 75268, Note_on_c, 4, 80, 0
6, 75308, Note_on_c, 4, 80, 70
6, 75376, Note_on_c, 4, 80, 0
6, 75406, Note_on_c, 4, 71, 80
6, 75450, Note_on_c, 4, 71, 0
6, 75500, Note_on_c, 4, 71, 78
6, 75550, Note_on_c, 4, 71, 0
6, 75600, Note_on_c, 4, 69, 87
6, 75632, Note_on_c, 4, 69, 0
6, 75696, Note_on_c, 4, 69, 84
6, 75728, Note_on_c, 4, 69, 0
6, 75800, Note_on_c, 4, 81, 87
6, 75850, Note_on_c, 4, 81, 0
6, 75896, Note_on_c, 4, 81, 71
6, 75948, Note_on_c, 4, 81, 0
6, 76004, Note_on_c, 4, 57, 118
6, 76374, Note_on_c, 4, 57, 0
6, 76568, Note_on_c, 4, 57, 91
6, 76690, Note_on_c, 4, 57, 0
6, 76770, Note_on_c, 4, 56, 97
6, 76806, Note_on_c, 4, 56, 0
6, 76852, Note_on_c, 4, 56, 81
6, 76904, Note_on_c, 4, 56, 0
6, 76956, Note_on_c, 4, 57, 91
6, 77002, Note_on_c, 4, 57, 0
6, 77046, Note_on_c, 4, 57, 85
6, 77096, Note_on_c, 4, 57, 0
6, 77156, Note_on_c, 4, 56, 92
6, 77196, Note_on_c, 4, 56, 0
6, 77248, Note_on_c, 4, 56, 81
6, 77306, Note_on_c, 4, 56, 0
6, 77352, Note_on_c, 4, 57, 90
6, 77398, Note_on_c, 4, 57, 0
6, 77444, Note_on_c, 4, 57, 87
6, 77494, Note_on_c, 4, 57, 0
6, 77552, Note_on_c, 4, 56, 97
6, 77592, Note_on_c, 4, 56, 0
6, 77640, Note_on_c, 4, 56, 81
6, 77698, Note_on_c, 4, 56, 0
6, 77744, Note_on_c, 4, 57, 90
6, 77790, Note_on_c, 4, 57, 0
6, 77830, Note_on_c, 4, 57, 88
6, 77882, Note_on_c, 4, 57, 0
6, 77936, Note_on_c, 4, 56, 92
6, 77974, Note_on_c, 4, 56, 0
6, 78016, Note_on_c, 4, 56, 83
6, 78074, Note_on_c, 4, 56, 0
6, 78114, Note_on_c, 4, 57, 91
6, 78154, Note_on_c, 4, 57, 0
6, 78196, Note_on_c, 4, 57, 84
6, 78244, Note_on_c, 4, 57, 0
6, 78308, Note_on_c, 4, 58, 106
6, 78408, Note_on_c, 4, 58, 0
6, 78518, Note_on_c, 4, 67, 87
6, 78560, Note_on_c, 4, 67, 0
6, 78596, Note_on_c, 4, 67, 80
6, 78650, Note_on_c, 4, 67, 0
6, 78700, Note_on_c, 4, 70, 84
6, 78740, Note_on_c, 4, 70, 0
6, 78784, Note_on_c, 4, 70, 70
6, 78844, Note_on_c, 4, 70, 0
6, 78882, Note_on_c, 4, 74, 84
6, 78928, Note_on_c, 4, 74, 0
6, 78968, Note_on_c, 4, 74, 84
6, 79020, Note_on_c, 4, 74, 0
6, 79068, Note_on_c, 4, 79, 82
6, 79130, Note_on_c, 4, 79, 0
6, 79276, Note_on_c, 4, 79, 101
6, 79550, Note_on_c, 4, 79, 0
6, 79646, Note_on_c, 4, 79, 96
6, 79768, Note_on_c, 4, 79, 0
6, 79838, Note_on_c, 4, 78, 94
6, 79850, Note_on_c, 4, 78, 0
6, 79850, Note_on_c, 4, 78, 95
6, 79888, Note_on_c, 4, 78, 0
6, 79938, Note_on_c, 4, 78, 76
6, 79988, Note_on_c, 4, 78, 0
6, 80040, Note_on_c, 4, 79, 87
6, 80088, Note_on_c, 4, 79, 0
6, 80138, Note_on_c, 4, 79, 80
6, 80188, Note_on_c, 4, 79, 0
6, 80236, Note_on_c, 4, 78, 90
6, 80280, Note_on_c, 4, 78, 0
6, 80324, Note_on_c, 4, 78, 75
6, 80376, Note_on_c, 4, 78, 0
6, 80428, Note_on_c, 4, 79, 88
6, 80472, Note_on_c, 4, 79, 0
6, 80516, Note_on_c, 4, 79, 80
6, 80562, Note_on_c, 4, 79, 0
6, 80608, Note_on_c, 4, 78, 90
6, 80654, Note_on_c, 4, 78, 0
6, 80692, Note_on_c, 4, 78, 74
6, 80742, Note_on_c, 4, 78, 0
6, 80794, Note_on_c, 4, 79, 87
6, 80840, Note_on_c, 4, 79, 0
6, 80886, Note_on_c, 4, 79, 79
6, 80934, Note_on_c, 4, 79, 0
6, 80980, Note_on_c, 4, 78, 90
6, 81026, Note_on_c, 4, 78, 0
6, 81070, Note_on_c, 4, 78, 76
6, 81120, Note_on_c, 4, 78, 0
6, 81170, Note_on_c, 4, 79, 85
6, 81212, Note_on_c, 4, 79, 0
6, 81262, Note_on_c, 4, 79, 80
6, 81300, Note_on_c, 4, 79, 0
6, 81360, Note_on_c, 4, 79, 92
6, 81412, Note_on_c, 4, 79, 0
6, 81458, Note_on_c, 4, 76, 75
6, 81500, Note_on_c, 4, 76, 0
6, 81554, Note_on_c, 4, 79, 81
6, 81606, Note_on_c, 4, 79, 0
6, 81654, Note_on_c, 4, 76, 88
6, 81698, Note_on_c, 4, 76, 0
6, 81758, Note_on_c, 4, 73, 87
6, 81812, Note_on_c, 4, 73, 0
6, 81842, Note_on_c, 4, 69, 78
6, 81884, Note_on_c, 4, 69, 0
6, 81928, Note_on_c, 4, 73, 84
6, 81986, Note_on_c, 4, 73, 0
6, 82010, Note_on_c, 4, 76, 78
6, 82086, Note_on_c, 4, 76, 0
6, 82130, Note_on_c, 4, 81, 84
6, 82218, Note_on_c, 4, 81, 0
6, 82320, Note_on_c, 4, 81, 91
6, 82604, Note_on_c, 4, 81, 0
6, 82716, Note_on_c, 4, 81, 96
6, 82982, Note_on_c, 4, 81, 0
6, 83100, Note_on_c, 4, 81, 108
6, 83388, Note_on_c, 4, 81, 0
6, 83484, Note_on_c, 4, 81, 91
6, 83792, Note_on_c, 4, 81, 0
6, 83872, Note_on_c, 4, 81, 91
6, 84178, Note_on_c, 4, 81, 0
6, 84248, Note_on_c, 4, 81, 90
6, 84730, Note_on_c, 4, 81, 0
6, 84832, Note_on_c, 4, 73, 92
6, 84896, Note_on_c, 4, 73, 0
6, 84926, Note_on_c, 4, 69, 79
6, 84972, Note_on_c, 4, 69, 0
6, 85012, Note_on_c, 4, 73, 84
6, 85064, Note_on_c, 4, 73, 0
6, 85098, Note_on_c, 4, 76, 81
6, 85154, Note_on_c, 4, 76, 0
6, 85200, Note_on_c, 4, 81, 88
6, 85256, Note_on_c, 4, 81, 0
6, 85386, Note_on_c, 4, 81, 101
6, 85710, Note_on_c, 4, 81, 0
6, 85794, Note_on_c, 4, 81, 94
6, 86088, Note_on_c, 4, 81, 0
6, 86180, Note_on_c, 4, 81, 95
6, 86468, Note_on_c, 4, 81, 0
6, 86562, Note_on_c, 4, 81, 95
6, 86836, Note_on_c, 4, 81, 0
6, 86936, Note_on_c, 4, 81, 94
6, 87208, Note_on_c, 4, 81, 0
6, 87298, Note_on_c, 4, 81, 94
6, 87584, Note_on_c, 4, 81, 0
6, 87692, Note_on_c, 4, 81, 92
6, 87976, Note_on_c, 4, 81, 0
6, 88076, Note_on_c, 4, 81, 88
6, 88122, Note_on_c, 4, 81, 0
6, 88168, Note_on_c, 4, 81, 79
6, 88222, Note_on_c, 4, 81, 0
6, 88268, Note_on_c, 4, 77, 91
6, 88312, Note_on_c, 4, 77, 0
6, 88364, Note_on_c, 4, 77, 80
6, 88416, Note_on_c, 4, 77, 0
6, 88464, Note_on_c, 4, 74, 83
6, 88514, Note_on_c, 4, 74, 0
6, 88558, Note_on_c, 4, 74, 79
6, 88614, Note_on_c, 4, 74, 0
6, 88662, Note_on_c, 4, 77, 91
6, 88708, Note_on_c, 4, 77, 0
6, 88750, Note_on_c, 4, 77, 78
6, 88802, Note_on_c, 4, 77, 0
6, 88848, Note_on_c, 4, 81, 87
6, 88886, Note_on_c, 4, 81, 0
6, 88938, Note_on_c, 4, 81, 80
6, 88994, Note_on_c, 4, 81, 0
6, 89046, Note_on_c, 4, 86, 94
6, 89098, Note_on_c, 4, 86, 0
6, 89138, Note_on_c, 4, 86, 75
6, 89194, Note_on_c, 4, 86, 0
6, 89236, Note_on_c, 4, 81, 80
6, 89274, Note_on_c, 4, 81, 0
6, 89326, Note_on_c, 4, 81, 79
6, 89378, Note_on_c, 4, 81, 0
6, 89430, Note_on_c, 4, 77, 83
6, 89466, Note_on_c, 4, 77, 0
6, 89518, Note_on_c, 4, 77, 74
6, 89558, Note_on_c, 4, 77, 0
6, 89610, Note_on_c, 4, 74, 78
6, 89650, Note_on_c, 4, 74, 0
6, 89698, Note_on_c, 4, 74, 76
6, 89758, Note_on_c, 4, 74, 0
6, 89808, Note_on_c, 4, 86, 94
6, 89854, Note_on_c, 4, 86, 0
6, 89904, Note_on_c, 4, 86, 80
6, 89954, Note_on_c, 4, 86, 0
6, 90004, Note_on_c, 4, 81, 87
6, 90042, Note_on_c, 4, 81, 0
6, 90092, Note_on_c, 4, 81, 80
6, 90144, Note_on_c, 4, 81, 0
6, 90206, Note_on_c, 4, 77, 84
6, 90242, Note_on_c, 4, 77, 0
6, 90300, Note_on_c, 4, 77, 75
6, 90346, Note_on_c, 4, 77, 0
6, 90386, Note_on_c, 4, 74, 81
6, 90434, Note_on_c, 4, 74, 0
6, 90484, Note_on_c, 4, 74, 74
6, 90536, Note_on_c, 4, 74, 0
6, 90590, Note_on_c, 4, 86, 91
6, 90636, Note_on_c, 4, 86, 0
6, 90680, Note_on_c, 4, 86, 76
6, 90738, Note_on_c, 4, 86, 0
6, 90780, Note_on_c, 4, 81, 83
6, 90824, Note_on_c, 4, 81, 0
6, 90872, Note_on_c, 4, 81, 80
6, 90918, Note_on_c, 4, 81, 0
6, 90972, Note_on_c, 4, 77, 87
6, 91008, Note_on_c, 4, 77, 0
6, 91068, Note_on_c, 4, 77, 80
6, 91118, Note_on_c, 4, 77, 0
6, 91162, Note_on_c, 4, 74, 84
6, 91204, Note_on_c, 4, 74, 0
6, 91254, Note_on_c, 4, 74, 79
6, 91304, Note_on_c, 4, 74, 0
6, 91350, Note_on_c, 4, 86, 85
6, 91398, Note_on_c, 4, 86, 0
6, 91442, Note_on_c, 4, 86, 80
6, 91494, Note_on_c, 4, 86, 0
6, 91544, Note_on_c, 4, 81, 87
6, 91578, Note_on_c, 4, 81, 0
6, 91634, Note_on_c, 4, 81, 84
6, 91682, Note_on_c, 4, 81, 0
6, 91738, Note_on_c, 4, 77, 85
6, 91778, Note_on_c, 4, 77, 0
6, 91826, Note_on_c, 4, 77, 76
6, 91872, Note_on_c, 4, 77, 0
6, 91922, Note_on_c, 4, 74, 80
6, 91962, Note_on_c, 4, 74, 0
6, 92018, Note_on_c, 4, 74, 80
6, 92072, Note_on_c, 4, 74, 0
6, 92130, Note_on_c, 4, 86, 92
6, 92174, Note_on_c, 4, 86, 0
6, 92220, Note_on_c, 4, 86, 76
6, 92274, Note_on_c, 4, 86, 0
6, 92316, Note_on_c, 4, 82, 88
6, 92364, Note_on_c, 4, 82, 0
6, 92406, Note_on_c, 4, 82, 80
6, 92472, Note_on_c, 4, 82, 0
6, 92520, Note_on_c, 4, 77, 80
6, 92556, Note_on_c, 4, 77, 0
6, 92618, Note_on_c, 4, 77, 81
6, 92662, Note_on_c, 4, 77, 0
6, 92706, Note_on_c, 4, 74, 83
6, 92750, Note_on_c, 4, 74, 0
6, 92796, Note_on_c, 4, 74, 79
6, 92854, Note_on_c, 4, 74, 0
6, 92898, Note_on_c, 4, 86, 87
6, 92934, Note_on_c, 4, 86, 0
6, 92984, Note_on_c, 4, 86, 78
6, 93042, Note_on_c, 4, 86, 0
6, 93086, Note_on_c, 4, 82, 85
6, 93130, Note_on_c, 4, 82, 0
6, 93178, Note_on_c, 4, 82, 78
6, 93238, Note_on_c, 4, 82, 0
6, 93288, Note_on_c, 4, 79, 85
6, 93328, Note_on_c, 4, 79, 0
6, 93380, Note_on_c, 4, 79, 77
6, 93426, Note_on_c, 4, 79, 0
6, 93468, Note_on_c, 4, 76, 78
6, 93516, Note_on_c, 4, 76, 0
6, 93562, Note_on_c, 4, 76, 70
6, 93612, Note_on_c, 4, 76, 0
6, 93670, Note_on_c, 4, 85, 91
6, 93714, Note_on_c, 4, 85, 0
6, 93758, Note_on_c, 4, 85, 82
6, 93814, Note_on_c, 4, 85, 0
6, 93860, Note_on_c, 4, 79, 81
6, 93902, Note_on_c, 4, 79, 0
6, 93948, Note_on_c, 4, 79, 73
6, 93998, Note_on_c, 4, 79, 0
6, 94038, Note_on_c, 4, 77, 80
6, 94084, Note_on_c, 4, 77, 0
6, 94130, Note_on_c, 4, 77, 74
6, 94186, Note_on_c, 4, 77, 0
6, 94220, Note_on_c, 4, 86, 83
6, 94256, Note_on_c, 4, 86, 0
6, 94312, Note_on_c, 4, 86, 81
6, 94392, Note_on_c, 4, 86, 0
6, 94416, Note_on_c, 4, 76, 80
6, 94460, Note_on_c, 4, 76, 0
6, 94512, Note_on_c, 4, 76, 74
6, 94568, Note_on_c, 4, 76, 0
6, 94596, Note_on_c, 4, 86, 89
6, 94632, Note_on_c, 4, 86, 0
6, 94686, Note_on_c, 4, 86, 83
6, 94760, Note_on_c, 4, 86, 0
6, 94788, Note_on_c, 4, 76, 83
6, 94834, Note_on_c, 4, 76, 0
6, 94886, Note_on_c, 4, 76, 74
6, 94936, Note_on_c, 4, 76, 0
6, 94990, Note_on_c, 4, 85, 90
6, 95034, Note_on_c, 4, 85, 0
6, 95090, Note_on_c, 4, 85, 86
6, 95144, Note_on_c, 4, 85, 0
6, 95192, Note_on_c, 4, 86, 96
6, 95236, Note_on_c, 4, 86, 0
6, 95280, Note_on_c, 4, 86, 81
6, 95332, Note_on_c, 4, 86, 0
6, 95382, Note_on_c, 4, 81, 77
6, 95424, Note_on_c, 4, 81, 0
6, 95472, Note_on_c, 4, 81, 77
6, 95524, Note_on_c, 4, 81, 0
6, 95576, Note_on_c, 4, 77, 85
6, 95616, Note_on_c, 4, 77, 0
6, 95670, Note_on_c, 4, 77, 79
6, 95720, Note_on_c, 4, 77, 0
6, 95762, Note_on_c, 4, 74, 81
6, 95802, Note_on_c, 4, 74, 0
6, 95854, Note_on_c, 4, 74, 76
6, 95900, Note_on_c, 4, 74, 0
6, 95958, Note_on_c, 4, 86, 90
6, 96002, Note_on_c, 4, 86, 0
6, 96048, Note_on_c, 4, 86, 80
6, 96104, Note_on_c, 4, 86, 0
6, 96150, Note_on_c, 4, 81, 87
6, 96194, Note_on_c, 4, 81, 0
6, 96242, Note_on_c, 4, 81, 82
6, 96294, Note_on_c, 4, 81, 0
6, 96346, Note_on_c, 4, 77, 88
6, 96388, Note_on_c, 4, 77, 0
6, 96438, Note_on_c, 4, 77, 78
6, 96484, Note_on_c, 4, 77, 0
6, 96532, Note_on_c, 4, 74, 88
6, 96576, Note_on_c, 4, 74, 0
6, 96622, Note_on_c, 4, 74, 77
6, 96676, Note_on_c, 4, 74, 0
6, 96724, Note_on_c, 4, 86, 87
6, 96762, Note_on_c, 4, 86, 0
6, 96812, Note_on_c, 4, 86, 78
6, 96866, Note_on_c, 4, 86, 0
6, 96908, Note_on_c, 4, 82, 83
6, 96952, Note_on_c, 4, 82, 0
6, 96996, Note_on_c, 4, 82, 71
6, 97054, Note_on_c, 4, 82, 0
6, 97100, Note_on_c, 4, 77, 82
6, 97140, Note_on_c, 4, 77, 0
6, 97194, Note_on_c, 4, 77, 78
6, 97248, Note_on_c, 4, 77, 0
6, 97292, Note_on_c, 4, 74, 81
6, 97336, Note_on_c, 4, 74, 0
6, 97388, Note_on_c, 4, 74, 76
6, 97442, Note_on_c, 4, 74, 0
6, 97492, Note_on_c, 4, 86, 91
6, 97536, Note_on_c, 4, 86, 0
6, 97584, Note_on_c, 4, 86, 82
6, 97644, Note_on_c, 4, 86, 0
6, 97686, Note_on_c, 4, 82, 85
6, 97730, Note_on_c, 4, 82, 0
6, 97772, Note_on_c, 4, 82, 74
6, 97832, Note_on_c, 4, 82, 0
6, 97878, Note_on_c, 4, 77, 84
6, 97914, Note_on_c, 4, 77, 0
6, 97970, Note_on_c, 4, 77, 79
6, 98018, Note_on_c, 4, 77, 0
6, 98068, Note_on_c, 4, 74, 80
6, 98106, Note_on_c, 4, 74, 0
6, 98162, Note_on_c, 4, 74, 74
6, 98216, Note_on_c, 4, 74, 0
6, 98268, Note_on_c, 4, 87, 81
6, 98316, Note_on_c, 4, 87, 0
6, 98362, Note_on_c, 4, 87, 71
6, 98436, Note_on_c, 4, 87, 0
6, 98462, Note_on_c, 4, 82, 80
6, 98516, Note_on_c, 4, 82, 0
6, 98552, Note_on_c, 4, 82, 69
6, 98638, Note_on_c, 4, 82, 0
6, 98666, Note_on_c, 4, 79, 84
6, 98716, Note_on_c, 4, 79, 0
6, 98752, Note_on_c, 4, 79, 73
6, 98812, Note_on_c, 4, 79, 0
6, 98844, Note_on_c, 4, 75, 77
6, 98886, Note_on_c, 4, 75, 0
6, 98934, Note_on_c, 4, 75, 67
6, 98996, Note_on_c, 4, 75, 0
6, 99032, Note_on_c, 4, 82, 80
6, 99084, Note_on_c, 4, 82, 0
6, 99124, Note_on_c, 4, 82, 69
6, 99204, Note_on_c, 4, 82, 0
6, 99228, Note_on_c, 4, 79, 73
6, 99272, Note_on_c, 4, 79, 0
6, 99316, Note_on_c, 4, 79, 66
6, 99376, Note_on_c, 4, 79, 0
6, 99420, Note_on_c, 4, 75, 88
6, 99464, Note_on_c, 4, 75, 0
6, 99510, Note_on_c, 4, 75, 71
6, 99570, Note_on_c, 4, 75, 0
6, 99598, Note_on_c, 4, 74, 80
6, 99642, Note_on_c, 4, 74, 0
6, 99686, Note_on_c, 4, 74, 78
6, 99740, Note_on_c, 4, 74, 0
6, 99794, Note_on_c, 4, 73, 90
6, 99838, Note_on_c, 4, 73, 0
6, 99884, Note_on_c, 4, 73, 65
6, 99938, Note_on_c, 4, 73, 0
6, 99982, Note_on_c, 4, 79, 80
6, 100034, Note_on_c, 4, 79, 0
6, 100070, Note_on_c, 4, 79, 74
6, 100138, Note_on_c, 4, 79, 0
6, 100180, Note_on_c, 4, 77, 80
6, 100226, Note_on_c, 4, 77, 0
6, 100270, Note_on_c, 4, 77, 71
6, 100344, Note_on_c, 4, 77, 0
6, 100368, Note_on_c, 4, 86, 74
6, 100410, Note_on_c, 4, 86, 0
6, 100462, Note_on_c, 4, 86, 75
6, 100550, Note_on_c, 4, 86, 0
6, 100572, Note_on_c, 4, 76, 83
6, 100620, Note_on_c, 4, 76, 0
6, 100666, Note_on_c, 4, 76, 71
6, 100722, Note_on_c, 4, 76, 0
6, 100762, Note_on_c, 4, 86, 80
6, 100808, Note_on_c, 4, 86, 0
6, 100856, Note_on_c, 4, 86, 79
6, 100932, Note_on_c, 4, 86, 0
6, 100964, Note_on_c, 4, 69, 92
6, 101006, Note_on_c, 4, 69, 0
6, 101054, Note_on_c, 4, 69, 88
6, 101096, Note_on_c, 4, 69, 0
6, 101144, Note_on_c, 4, 85, 94
6, 101190, Note_on_c, 4, 85, 0
6, 101226, Note_on_c, 4, 85, 81
6, 101282, Note_on_c, 4, 85, 0
6, 101334, Note_on_c, 4, 86, 96
6, 101388, Note_on_c, 4, 86, 0
6, 101534, Note_on_c, 4, 77, 123
6, 101580, Note_on_c, 4, 77, 0
6, 101614, Note_on_c, 4, 77, 121
6, 101676, Note_on_c, 4, 77, 0
6, 101714, Note_on_c, 4, 74, 117
6, 101758, Note_on_c, 4, 74, 0
6, 101804, Note_on_c, 4, 74, 113
6, 101868, Note_on_c, 4, 74, 0
6, 101906, Note_on_c, 4, 72, 111
6, 101946, Note_on_c, 4, 72, 0
6, 101998, Note_on_c, 4, 72, 111
6, 102050, Note_on_c, 4, 72, 0
6, 102100, Note_on_c, 4, 70, 107
6, 102144, Note_on_c, 4, 70, 0
6, 102194, Note_on_c, 4, 70, 107
6, 102252, Note_on_c, 4, 70, 0
6, 102284, Note_on_c, 4, 69, 107
6, 102330, Note_on_c, 4, 69, 0
6, 102376, Note_on_c, 4, 69, 107
6, 102430, Note_on_c, 4, 69, 0
6, 102480, Note_on_c, 4, 68, 113
6, 102528, Note_on_c, 4, 68, 0
6, 102564, Note_on_c, 4, 68, 113
6, 102618, Note_on_c, 4, 68, 0
6, 102668, Note_on_c, 4, 71, 113
6, 102704, Note_on_c, 4, 71, 0
6, 102752, Note_on_c, 4, 71, 113
6, 102818, Note_on_c, 4, 71, 0
6, 102852, Note_on_c, 4, 69, 111
6, 102898, Note_on_c, 4, 69, 0
6, 102944, Note_on_c, 4, 69, 115
6, 102996, Note_on_c, 4, 69, 0
6, 103052, Note_on_c, 4, 79, 109
6, 103100, Note_on_c, 4, 79, 0
6, 103146, Note_on_c, 4, 79, 109
6, 103206, Note_on_c, 4, 79, 0
6, 103252, Note_on_c, 4, 76, 111
6, 103294, Note_on_c, 4, 76, 0
6, 103346, Note_on_c, 4, 76, 97
6, 103394, Note_on_c, 4, 76, 0
6, 103432, Note_on_c, 4, 74, 113
6, 103476, Note_on_c, 4, 74, 0
6, 103522, Note_on_c, 4, 74, 113
6, 103590, Note_on_c, 4, 74, 0
6, 103636, Note_on_c, 4, 73, 111
6, 103680, Note_on_c, 4, 73, 0
6, 103724, Note_on_c, 4, 73, 107
6, 103768, Note_on_c, 4, 73, 0
6, 103830, Note_on_c, 4, 82, 111
6, 103880, Note_on_c, 4, 82, 0
6, 103918, Note_on_c, 4, 82, 111
6, 103978, Note_on_c, 4, 82, 0
6, 104018, Note_on_c, 4, 81, 111
6, 104062, Note_on_c, 4, 81, 0
6, 104104, Note_on_c, 4, 81, 109
6, 104158, Note_on_c, 4, 81, 0
6, 104208, Note_on_c, 4, 79, 109
6, 104250, Note_on_c, 4, 79, 0
6, 104302, Note_on_c, 4, 79, 111
6, 104352, Note_on_c, 4, 79, 0
6, 104398, Note_on_c, 4, 77, 105
6, 104446, Note_on_c, 4, 77, 0
6, 104492, Note_on_c, 4, 77, 103
6, 104546, Note_on_c, 4, 77, 0
6, 104590, Note_on_c, 4, 86, 107
6, 104630, Note_on_c, 4, 86, 0
6, 104674, Note_on_c, 4, 86, 107
6, 104730, Note_on_c, 4, 86, 0
6, 104776, Note_on_c, 4, 82, 107
6, 104824, Note_on_c, 4, 82, 0
6, 104868, Note_on_c, 4, 82, 107
6, 104926, Note_on_c, 4, 82, 0
6, 104976, Note_on_c, 4, 79, 111
6, 105018, Note_on_c, 4, 79, 0
6, 105066, Note_on_c, 4, 79, 109
6, 105114, Note_on_c, 4, 79, 0
6, 105166, Note_on_c, 4, 77, 113
6, 105210, Note_on_c, 4, 77, 0
6, 105252, Note_on_c, 4, 77, 111
6, 105304, Note_on_c, 4, 77, 0
6, 105350, Note_on_c, 4, 86, 109
6, 105394, Note_on_c, 4, 86, 0
6, 105446, Note_on_c, 4, 86, 105
6, 105512, Note_on_c, 4, 86, 0
6, 105560, Note_on_c, 4, 76, 107
6, 105606, Note_on_c, 4, 76, 0
6, 105652, Note_on_c, 4, 76, 109
6, 105694, Note_on_c, 4, 76, 0
6, 105752, Note_on_c, 4, 85, 101
6, 105800, Note_on_c, 4, 85, 0
6, 105846, Note_on_c, 4, 85, 105
6, 105908, Note_on_c, 4, 85, 0
6, 105954, Note_on_c, 4, 86, 113
6, 106146, Note_on_c, 4, 86, 0
6, 106368, Note_on_c, 4, 62, 117
6, 106598, Note_on_c, 4, 62, 0
6, 106598, End_track
7, 0, Start_track
7, 0, Title_t, "vlni 2"
7, 394, Program_c, 5, 48
7, 395, Control_c, 5, 7, 119
7, 395, Control_c, 5, 10, 57
7, 480, Control_c, 5, 91, 120
7, 3068, Note_on_c, 5, 65, 94
7, 3102, Note_on_c, 5, 65, 0
7, 3164, Note_on_c, 5, 65, 83
7, 3198, Note_on_c, 5, 65, 0
7, 3254, Note_on_c, 5, 65, 74
7, 3288, Note_on_c, 5, 65, 0
7, 3336, Note_on_c, 5, 65, 73
7, 3372, Note_on_c, 5, 65, 0
7, 3436, Note_on_c, 5, 65, 80
7, 3470, Note_on_c, 5, 65, 0
7, 3532, Note_on_c, 5, 65, 75
7, 3566, Note_on_c, 5, 65, 0
7, 3626, Note_on_c, 5, 65, 73
7, 3652, Note_on_c, 5, 65, 0
7, 3704, Note_on_c, 5, 65, 75
7, 3738, Note_on_c, 5, 65, 0
7, 3818, Note_on_c, 5, 65, 108
7, 3856, Note_on_c, 5, 65, 0
7, 3922, Note_on_c, 5, 65, 88
7, 3954, Note_on_c, 5, 65, 0
7, 4018, Note_on_c, 5, 65, 78
7, 4048, Note_on_c, 5, 65, 0
7, 4110, Note_on_c, 5, 65, 74
7, 4144, Note_on_c, 5, 65, 0
7, 4216, Note_on_c, 5, 65, 82
7, 4250, Note_on_c, 5, 65, 0
7, 4318, Note_on_c, 5, 65, 75
7, 4348, Note_on_c, 5, 65, 0
7, 4402, Note_on_c, 5, 65, 71
7, 4434, Note_on_c, 5, 65, 0
7, 4484, Note_on_c, 5, 65, 70
7, 4518, Note_on_c, 5, 65, 0
7, 4584, Note_on_c, 5, 67, 92
7, 4616, Note_on_c, 5, 67, 0
7, 4758, Note_on_c, 5, 67, 101
7, 4968, Note_on_c, 5, 67, 0
7, 5132, Note_on_c, 5, 67, 85
7, 5364, Note_on_c, 5, 67, 0
7, 5518, Note_on_c, 5, 67, 82
7, 5746, Note_on_c, 5, 67, 0
7, 5896, Note_on_c, 5, 67, 81
7, 5922, Note_on_c, 5, 67, 0
7, 6078, Note_on_c, 5, 67, 81
7, 6096, Note_on_c, 5, 67, 0
7, 6168, Note_on_c, 5, 67, 72
7, 6202, Note_on_c, 5, 67, 0
7, 6276, Note_on_c, 5, 67, 69
7, 6294, Note_on_c, 5, 67, 0
7, 6372, Note_on_c, 5, 67, 71
7, 6392, Note_on_c, 5, 67, 0
7, 6478, Note_on_c, 5, 67, 73
7, 6502, Note_on_c, 5, 67, 0
7, 6586, Note_on_c, 5, 67, 74
7, 6608, Note_on_c, 5, 67, 0
7, 6686, Note_on_c, 5, 67, 69
7, 6704, Note_on_c, 5, 67, 0
7, 6774, Note_on_c, 5, 67, 66
7, 6794, Note_on_c, 5, 67, 0
7, 6882, Note_on_c, 5, 67, 81
7, 6916, Note_on_c, 5, 67, 0
7, 6988, Note_on_c, 5, 67, 79
7, 7016, Note_on_c, 5, 67, 0
7, 7084, Note_on_c, 5, 67, 74
7, 7112, Note_on_c, 5, 67, 0
7, 7178, Note_on_c, 5, 67, 79
7, 7212, Note_on_c, 5, 67, 0
7, 7284, Note_on_c, 5, 67, 82
7, 7318, Note_on_c, 5, 67, 0
7, 7388, Note_on_c, 5, 67, 80
7, 7422, Note_on_c, 5, 67, 0
7, 7476, Note_on_c, 5, 67, 73
7, 7510, Note_on_c, 5, 67, 0
7, 7552, Note_on_c, 5, 67, 79
7, 7588, Note_on_c, 5, 67, 0
7, 7664, Note_on_c, 5, 65, 83
7, 7686, Note_on_c, 5, 65, 0
7, 7848, Note_on_c, 5, 65, 80
7, 8078, Note_on_c, 5, 65, 0
7, 8216, Note_on_c, 5, 65, 78
7, 8432, Note_on_c, 5, 65, 0
7, 8578, Note_on_c, 5, 65, 80
7, 8792, Note_on_c, 5, 65, 0
7, 8962, Note_on_c, 5, 65, 80
7, 8996, Note_on_c, 5, 65, 0
7, 9162, Note_on_c, 5, 67, 92
7, 9390, Note_on_c, 5, 67, 0
7, 9566, Note_on_c, 5, 65, 81
7, 9588, Note_on_c, 5, 65, 0
7, 9754, Note_on_c, 5, 65, 80
7, 9772, Note_on_c, 5, 65, 0
7, 9938, Note_on_c, 5, 65, 80
7, 9956, Note_on_c, 5, 65, 0
7, 10140, Note_on_c, 5, 65, 87
7, 10420, Note_on_c, 5, 65, 0
7, 10534, Note_on_c, 5, 69, 80
7, 10560, Note_on_c, 5, 69, 0
7, 10730, Note_on_c, 5, 69, 92
7, 10976, Note_on_c, 5, 69, 0
7, 11120, Note_on_c, 5, 69, 84
7, 11134, Note_on_c, 5, 69, 0
7, 11294, Note_on_c, 5, 69, 84
7, 11310, Note_on_c, 5, 69, 0
7, 11478, Note_on_c, 5, 69, 89
7, 11504, Note_on_c, 5, 69, 0
7, 11686, Note_on_c, 5, 69, 99
7, 11932, Note_on_c, 5, 69, 0
7, 12070, Note_on_c, 5, 69, 92
7, 12168, Note_on_c, 5, 69, 0
7, 12268, Note_on_c, 5, 67, 88
7, 12302, Note_on_c, 5, 67, 0
7, 12354, Note_on_c, 5, 67, 72
7, 12400, Note_on_c, 5, 67, 0
7, 12452, Note_on_c, 5, 67, 74
7, 12488, Note_on_c, 5, 67, 0
7, 12534, Note_on_c, 5, 67, 72
7, 12578, Note_on_c, 5, 67, 0
7, 12652, Note_on_c, 5, 69, 89
7, 12684, Note_on_c, 5, 69, 0
7, 12746, Note_on_c, 5, 69, 83
7, 12780, Note_on_c, 5, 69, 0
7, 12836, Note_on_c, 5, 69, 79
7, 12868, Note_on_c, 5, 69, 0
7, 12922, Note_on_c, 5, 69, 74
7, 12956, Note_on_c, 5, 69, 0
7, 13018, Note_on_c, 5, 70, 84
7, 13056, Note_on_c, 5, 70, 0
7, 13104, Note_on_c, 5, 70, 77
7, 13148, Note_on_c, 5, 70, 0
7, 13190, Note_on_c, 5, 70, 69
7, 13230, Note_on_c, 5, 70, 0
7, 13268, Note_on_c, 5, 70, 69
7, 13322, Note_on_c, 5, 70, 0
7, 13380, Note_on_c, 5, 69, 79
7, 13418, Note_on_c, 5, 69, 0
7, 13466, Note_on_c, 5, 69, 74
7, 13506, Note_on_c, 5, 69, 0
7, 13570, Note_on_c, 5, 74, 85
7, 13606, Note_on_c, 5, 74, 0
7, 13656, Note_on_c, 5, 74, 80
7, 13688, Note_on_c, 5, 74, 0
7, 13762, Note_on_c, 5, 74, 79
7, 13790, Note_on_c, 5, 76, 74
7, 13792, Note_on_c, 5, 74, 0
7, 13820, Note_on_c, 5, 76, 0
7, 13828, Note_on_c, 5, 74, 79
7, 13862, Note_on_c, 5, 76, 71
7, 13862, Note_on_c, 5, 74, 0
7, 13886, Note_on_c, 5, 76, 0
7, 13894, Note_on_c, 5, 74, 62
7, 13926, Note_on_c, 5, 76, 76
7, 13930, Note_on_c, 5, 74, 0
7, 13968, Note_on_c, 5, 74, 71
7, 13990, Note_on_c, 5, 76, 0
7, 14066, Note_on_c, 5, 74, 0
7, 14078, Note_on_c, 5, 73, 70
7, 14118, Note_on_c, 5, 74, 74
7, 14120, Note_on_c, 5, 73, 0
7, 14170, Note_on_c, 5, 73, 79
7, 14170, Note_on_c, 5, 74, 0
7, 14210, Note_on_c, 5, 73, 0
7, 14360, Note_on_c, 5, 69, 75
7, 14402, Note_on_c, 5, 69, 0
7, 14548, Note_on_c, 5, 69, 63
7, 14564, Note_on_c, 5, 69, 0
7, 14738, Note_on_c, 5, 69, 63
7, 14964, Note_on_c, 5, 69, 0
7, 15132, Note_on_c, 5, 69, 52
7, 15372, Note_on_c, 5, 69, 0
7, 15508, Note_on_c, 5, 69, 94
7, 15548, Note_on_c, 5, 69, 0
7, 15594, Note_on_c, 5, 69, 87
7, 15638, Note_on_c, 5, 69, 0
7, 15694, Note_on_c, 5, 70, 94
7, 15742, Note_on_c, 5, 70, 0
7, 15786, Note_on_c, 5, 70, 82
7, 15844, Note_on_c, 5, 70, 0
7, 15884, Note_on_c, 5, 71, 92
7, 15932, Note_on_c, 5, 71, 0
7, 15974, Note_on_c, 5, 71, 88
7, 16026, Note_on_c, 5, 71, 0
7, 16076, Note_on_c, 5, 72, 96
7, 16118, Note_on_c, 5, 72, 0
7, 16168, Note_on_c, 5, 72, 84
7, 16216, Note_on_c, 5, 72, 0
7, 16270, Note_on_c, 5, 73, 90
7, 16312, Note_on_c, 5, 73, 0
7, 16368, Note_on_c, 5, 73, 86
7, 16418, Note_on_c, 5, 73, 0
7, 16468, Note_on_c, 5, 74, 91
7, 16514, Note_on_c, 5, 74, 0
7, 16566, Note_on_c, 5, 74, 85
7, 16620, Note_on_c, 5, 74, 0
7, 16668, Note_on_c, 5, 70, 86
7, 16708, Note_on_c, 5, 70, 0
7, 16754, Note_on_c, 5, 70, 78
7, 16802, Note_on_c, 5, 70, 0
7, 16862, Note_on_c, 5, 69, 90
7, 16908, Note_on_c, 5, 69, 0
7, 16958, Note_on_c, 5, 69, 71
7, 17000, Note_on_c, 5, 69, 0
7, 17054, Note_on_c, 5, 69, 73
7, 17092, Note_on_c, 5, 69, 0
7, 17150, Note_on_c, 5, 69, 78
7, 17186, Note_on_c, 5, 69, 0
7, 17254, Note_on_c, 5, 69, 85
7, 17290, Note_on_c, 5, 69, 0
7, 17352, Note_on_c, 5, 69, 82
7, 17386, Note_on_c, 5, 69, 0
7, 17446, Note_on_c, 5, 69, 77
7, 17482, Note_on_c, 5, 69, 0
7, 17526, Note_on_c, 5, 69, 77
7, 17564, Note_on_c, 5, 69, 0
7, 17632, Note_on_c, 5, 69, 91
7, 17668, Note_on_c, 5, 69, 0
7, 17730, Note_on_c, 5, 69, 83
7, 17762, Note_on_c, 5, 69, 0
7, 17826, Note_on_c, 5, 69, 75
7, 17860, Note_on_c, 5, 69, 0
7, 17918, Note_on_c, 5, 69, 75
7, 17952, Note_on_c, 5, 69, 0
7, 18020, Note_on_c, 5, 69, 82
7, 18054, Note_on_c, 5, 69, 0
7, 18118, Note_on_c, 5, 69, 75
7, 18142, Note_on_c, 5, 69, 0
7, 18210, Note_on_c, 5, 69, 74
7, 18234, Note_on_c, 5, 69, 0
7, 18290, Note_on_c, 5, 69, 75
7, 18326, Note_on_c, 5, 69, 0
7, 18396, Note_on_c, 5, 69, 89
7, 18428, Note_on_c, 5, 69, 0
7, 18490, Note_on_c, 5, 69, 84
7, 18522, Note_on_c, 5, 69, 0
7, 18574, Note_on_c, 5, 69, 77
7, 18608, Note_on_c, 5, 69, 0
7, 18658, Note_on_c, 5, 69, 77
7, 18694, Note_on_c, 5, 69, 0
7, 18782, Note_on_c, 5, 60, 84
7, 18820, Note_on_c, 5, 60, 0
7, 18872, Note_on_c, 5, 60, 75
7, 18910, Note_on_c, 5, 60, 0
7, 18962, Note_on_c, 5, 60, 74
7, 19010, Note_on_c, 5, 60, 0
7, 19054, Note_on_c, 5, 60, 77
7, 19104, Note_on_c, 5, 60, 0
7, 19174, Note_on_c, 5, 65, 91
7, 19218, Note_on_c, 5, 65, 0
7, 19268, Note_on_c, 5, 65, 78
7, 19304, Note_on_c, 5, 65, 0
7, 19362, Note_on_c, 5, 65, 77
7, 19394, Note_on_c, 5, 65, 0
7, 19444, Note_on_c, 5, 65, 77
7, 19478, Note_on_c, 5, 65, 0
7, 19548, Note_on_c, 5, 69, 82
7, 19586, Note_on_c, 5, 69, 0
7, 19644, Note_on_c, 5, 69, 80
7, 19678, Note_on_c, 5, 69, 0
7, 19734, Note_on_c, 5, 69, 80
7, 19768, Note_on_c, 5, 69, 0
7, 19818, Note_on_c, 5, 69, 74
7, 19860, Note_on_c, 5, 69, 0
7, 19920, Note_on_c, 5, 72, 88
7, 19954, Note_on_c, 5, 72, 0
7, 20030, Note_on_c, 5, 63, 86
7, 20062, Note_on_c, 5, 63, 0
7, 20116, Note_on_c, 5, 63, 78
7, 20150, Note_on_c, 5, 63, 0
7, 20202, Note_on_c, 5, 63, 72
7, 20236, Note_on_c, 5, 63, 0
7, 20310, Note_on_c, 5, 63, 81
7, 20348, Note_on_c, 5, 63, 0
7, 20412, Note_on_c, 5, 63, 80
7, 20450, Note_on_c, 5, 63, 0
7, 20496, Note_on_c, 5, 63, 69
7, 20532, Note_on_c, 5, 63, 0
7, 20584, Note_on_c, 5, 63, 66
7, 20634, Note_on_c, 5, 63, 0
7, 20700, Note_on_c, 5, 72, 83
7, 20764, Note_on_c, 5, 72, 0
7, 20804, Note_on_c, 5, 62, 76
7, 20840, Note_on_c, 5, 62, 0
7, 20896, Note_on_c, 5, 62, 71
7, 20932, Note_on_c, 5, 62, 0
7, 20978, Note_on_c, 5, 62, 75
7, 21014, Note_on_c, 5, 62, 0
7, 21076, Note_on_c, 5, 62, 79
7, 21114, Note_on_c, 5, 62, 0
7, 21168, Note_on_c, 5, 62, 68
7, 21206, Note_on_c, 5, 62, 0
7, 21256, Note_on_c, 5, 62, 74
7, 21294, Note_on_c, 5, 62, 0
7, 21340, Note_on_c, 5, 62, 74
7, 21376, Note_on_c, 5, 62, 0
7, 21436, Note_on_c, 5, 62, 83
7, 21470, Note_on_c, 5, 62, 0
7, 21534, Note_on_c, 5, 67, 78
7, 21572, Note_on_c, 5, 67, 0
7, 21634, Note_on_c, 5, 67, 82
7, 21670, Note_on_c, 5, 67, 0
7, 21724, Note_on_c, 5, 67, 80
7, 21756, Note_on_c, 5, 67, 0
7, 21828, Note_on_c, 5, 67, 89
7, 21862, Note_on_c, 5, 67, 0
7, 21928, Note_on_c, 5, 67, 85
7, 21964, Note_on_c, 5, 67, 0
7, 22020, Note_on_c, 5, 67, 80
7, 22052, Note_on_c, 5, 67, 0
7, 22100, Note_on_c, 5, 67, 71
7, 22140, Note_on_c, 5, 67, 0
7, 22230, Note_on_c, 5, 62, 77
7, 22272, Note_on_c, 5, 62, 0
7, 22326, Note_on_c, 5, 67, 79
7, 22366, Note_on_c, 5, 67, 0
7, 22424, Note_on_c, 5, 67, 80
7, 22460, Note_on_c, 5, 67, 0
7, 22514, Note_on_c, 5, 67, 72
7, 22552, Note_on_c, 5, 67, 0
7, 22630, Note_on_c, 5, 67, 88
7, 22664, Note_on_c, 5, 67, 0
7, 22736, Note_on_c, 5, 67, 89
7, 22770, Note_on_c, 5, 67, 0
7, 22820, Note_on_c, 5, 67, 72
7, 22852, Note_on_c, 5, 67, 0
7, 22896, Note_on_c, 5, 67, 76
7, 22942, Note_on_c, 5, 67, 0
7, 23024, Note_on_c, 5, 62, 78
7, 23064, Note_on_c, 5, 62, 0
7, 23108, Note_on_c, 5, 62, 70
7, 23148, Note_on_c, 5, 62, 0
7, 23196, Note_on_c, 5, 62, 71
7, 23234, Note_on_c, 5, 62, 0
7, 23282, Note_on_c, 5, 62, 68
7, 23318, Note_on_c, 5, 62, 0
7, 23384, Note_on_c, 5, 62, 80
7, 23424, Note_on_c, 5, 62, 0
7, 23476, Note_on_c, 5, 62, 71
7, 23516, Note_on_c, 5, 62, 0
7, 23560, Note_on_c, 5, 62, 71
7, 23600, Note_on_c, 5, 62, 0
7, 23656, Note_on_c, 5, 62, 67
7, 23700, Note_on_c, 5, 62, 0
7, 23762, Note_on_c, 5, 67, 80
7, 23800, Note_on_c, 5, 67, 0
7, 23862, Note_on_c, 5, 67, 74
7, 23896, Note_on_c, 5, 67, 0
7, 23946, Note_on_c, 5, 67, 69
7, 23982, Note_on_c, 5, 67, 0
7, 24028, Note_on_c, 5, 67, 70
7, 24066, Note_on_c, 5, 67, 0
7, 24150, Note_on_c, 5, 71, 81
7, 24186, Note_on_c, 5, 71, 0
7, 24236, Note_on_c, 5, 71, 74
7, 24272, Note_on_c, 5, 71, 0
7, 24322, Note_on_c, 5, 71, 69
7, 24354, Note_on_c, 5, 71, 0
7, 24402, Note_on_c, 5, 71, 63
7, 24450, Note_on_c, 5, 71, 0
7, 24522, Note_on_c, 5, 74, 84
7, 24580, Note_on_c, 5, 74, 0
7, 24614, Note_on_c, 5, 71, 74
7, 24650, Note_on_c, 5, 71, 0
7, 24708, Note_on_c, 5, 71, 68
7, 24744, Note_on_c, 5, 71, 0
7, 24798, Note_on_c, 5, 71, 68
7, 24836, Note_on_c, 5, 71, 0
7, 24908, Note_on_c, 5, 71, 82
7, 24946, Note_on_c, 5, 71, 0
7, 25010, Note_on_c, 5, 71, 73
7, 25044, Note_on_c, 5, 71, 0
7, 25100, Note_on_c, 5, 71, 67
7, 25134, Note_on_c, 5, 71, 0
7, 25184, Note_on_c, 5, 71, 66
7, 25228, Note_on_c, 5, 71, 0
7, 25304, Note_on_c, 5, 74, 84
7, 25360, Note_on_c, 5, 74, 0
7, 25394, Note_on_c, 5, 71, 79
7, 25430, Note_on_c, 5, 71, 0
7, 25490, Note_on_c, 5, 71, 75
7, 25526, Note_on_c, 5, 71, 0
7, 25578, Note_on_c, 5, 71, 73
7, 25612, Note_on_c, 5, 71, 0
7, 25678, Note_on_c, 5, 71, 77
7, 25714, Note_on_c, 5, 71, 0
7, 25776, Note_on_c, 5, 71, 72
7, 25810, Note_on_c, 5, 71, 0
7, 25858, Note_on_c, 5, 71, 71
7, 25894, Note_on_c, 5, 71, 0
7, 25942, Note_on_c, 5, 71, 64
7, 25986, Note_on_c, 5, 71, 0
7, 26052, Note_on_c, 5, 72, 91
7, 26094, Note_on_c, 5, 72, 0
7, 26148, Note_on_c, 5, 72, 84
7, 26188, Note_on_c, 5, 72, 0
7, 26240, Note_on_c, 5, 72, 77
7, 26276, Note_on_c, 5, 72, 0
7, 26332, Note_on_c, 5, 72, 84
7, 26370, Note_on_c, 5, 72, 0
7, 26436, Note_on_c, 5, 72, 87
7, 26472, Note_on_c, 5, 72, 0
7, 26530, Note_on_c, 5, 72, 87
7, 26566, Note_on_c, 5, 72, 0
7, 26622, Note_on_c, 5, 72, 78
7, 26660, Note_on_c, 5, 72, 0
7, 26716, Note_on_c, 5, 72, 72
7, 26752, Note_on_c, 5, 72, 0
7, 26854, Note_on_c, 5, 74, 89
7, 26886, Note_on_c, 5, 74, 0
7, 26942, Note_on_c, 5, 74, 80
7, 26980, Note_on_c, 5, 74, 0
7, 27042, Note_on_c, 5, 74, 83
7, 27076, Note_on_c, 5, 74, 0
7, 27130, Note_on_c, 5, 74, 78
7, 27166, Note_on_c, 5, 74, 0
7, 27234, Note_on_c, 5, 74, 87
7, 27268, Note_on_c, 5, 74, 0
7, 27332, Note_on_c, 5, 74, 81
7, 27368, Note_on_c, 5, 74, 0
7, 27422, Note_on_c, 5, 74, 73
7, 27460, Note_on_c, 5, 74, 0
7, 27502, Note_on_c, 5, 74, 73
7, 27538, Note_on_c, 5, 74, 0
7, 27612, Note_on_c, 5, 74, 60
7, 27630, Note_on_c, 5, 74, 0
7, 27658, Note_on_c, 5, 72, 67
7, 27686, Note_on_c, 5, 72, 0
7, 27738, Note_on_c, 5, 72, 76
7, 27772, Note_on_c, 5, 72, 0
7, 27812, Note_on_c, 5, 72, 70
7, 27848, Note_on_c, 5, 72, 0
7, 27890, Note_on_c, 5, 72, 70
7, 27928, Note_on_c, 5, 72, 0
7, 27986, Note_on_c, 5, 72, 84
7, 28022, Note_on_c, 5, 72, 0
7, 28088, Note_on_c, 5, 72, 85
7, 28124, Note_on_c, 5, 72, 0
7, 28182, Note_on_c, 5, 72, 77
7, 28212, Note_on_c, 5, 72, 0
7, 28260, Note_on_c, 5, 72, 76
7, 28296, Note_on_c, 5, 72, 0
7, 28376, Note_on_c, 5, 72, 89
7, 28408, Note_on_c, 5, 72, 0
7, 28468, Note_on_c, 5, 72, 80
7, 28502, Note_on_c, 5, 72, 0
7, 28550, Note_on_c, 5, 72, 71
7, 28586, Note_on_c, 5, 72, 0
7, 28624, Note_on_c, 5, 72, 73
7, 28668, Note_on_c, 5, 72, 0
7, 28766, Note_on_c, 5, 71, 89
7, 28802, Note_on_c, 5, 71, 0
7, 28848, Note_on_c, 5, 71, 74
7, 28900, Note_on_c, 5, 71, 0
7, 28952, Note_on_c, 5, 69, 75
7, 28992, Note_on_c, 5, 69, 0
7, 29040, Note_on_c, 5, 69, 75
7, 29090, Note_on_c, 5, 69, 0
7, 29148, Note_on_c, 5, 68, 81
7, 29190, Note_on_c, 5, 68, 0
7, 29244, Note_on_c, 5, 68, 76
7, 29288, Note_on_c, 5, 68, 0
7, 29328, Note_on_c, 5, 68, 67
7, 29372, Note_on_c, 5, 68, 0
7, 29412, Note_on_c, 5, 68, 67
7, 29466, Note_on_c, 5, 68, 0
7, 29532, Note_on_c, 5, 69, 88
7, 29568, Note_on_c, 5, 69, 0
7, 29624, Note_on_c, 5, 69, 74
7, 29656, Note_on_c, 5, 69, 0
7, 29726, Note_on_c, 5, 69, 75
7, 29762, Note_on_c, 5, 69, 0
7, 29812, Note_on_c, 5, 69, 69
7, 29854, Note_on_c, 5, 69, 0
7, 29916, Note_on_c, 5, 69, 83
7, 29952, Note_on_c, 5, 69, 0
7, 30004, Note_on_c, 5, 69, 73
7, 30046, Note_on_c, 5, 69, 0
7, 30100, Note_on_c, 5, 71, 84
7, 30136, Note_on_c, 5, 71, 0
7, 30188, Note_on_c, 5, 71, 79
7, 30238, Note_on_c, 5, 71, 0
7, 30286, Note_on_c, 5, 68, 82
7, 30326, Note_on_c, 5, 68, 0
7, 30370, Note_on_c, 5, 68, 66
7, 30416, Note_on_c, 5, 68, 0
7, 30460, Note_on_c, 5, 71, 78
7, 30486, Note_on_c, 5, 71, 0
7, 30546, Note_on_c, 5, 71, 72
7, 30590, Note_on_c, 5, 71, 0
7, 30660, Note_on_c, 5, 69, 92
7, 30852, Note_on_c, 5, 69, 0
7, 31046, Note_on_c, 5, 72, 92
7, 31084, Note_on_c, 5, 72, 0
7, 31132, Note_on_c, 5, 72, 83
7, 31182, Note_on_c, 5, 72, 0
7, 31236, Note_on_c, 5, 71, 85
7, 31272, Note_on_c, 5, 71, 0
7, 31324, Note_on_c, 5, 71, 82
7, 31364, Note_on_c, 5, 71, 0
7, 31458, Note_on_c, 5, 69, 85
7, 31490, Note_on_c, 5, 69, 0
7, 31554, Note_on_c, 5, 69, 78
7, 31588, Note_on_c, 5, 69, 0
7, 31648, Note_on_c, 5, 69, 70
7, 31678, Note_on_c, 5, 69, 0
7, 31732, Note_on_c, 5, 69, 72
7, 31768, Note_on_c, 5, 69, 0
7, 31834, Note_on_c, 5, 69, 80
7, 31868, Note_on_c, 5, 69, 0
7, 31920, Note_on_c, 5, 69, 74
7, 31960, Note_on_c, 5, 69, 0
7, 32016, Note_on_c, 5, 72, 77
7, 32056, Note_on_c, 5, 72, 0
7, 32102, Note_on_c, 5, 72, 70
7, 32154, Note_on_c, 5, 72, 0
7, 32212, Note_on_c, 5, 71, 89
7, 32244, Note_on_c, 5, 71, 0
7, 32292, Note_on_c, 5, 71, 78
7, 32350, Note_on_c, 5, 71, 0
7, 32402, Note_on_c, 5, 69, 75
7, 32442, Note_on_c, 5, 69, 0
7, 32482, Note_on_c, 5, 69, 73
7, 32532, Note_on_c, 5, 69, 0
7, 32592, Note_on_c, 5, 77, 85
7, 32640, Note_on_c, 5, 77, 0
7, 32688, Note_on_c, 5, 77, 80
7, 32742, Note_on_c, 5, 77, 0
7, 32788, Note_on_c, 5, 76, 81
7, 32822, Note_on_c, 5, 76, 0
7, 32872, Note_on_c, 5, 76, 74
7, 32928, Note_on_c, 5, 76, 0
7, 32984, Note_on_c, 5, 74, 80
7, 33020, Note_on_c, 5, 74, 0
7, 33076, Note_on_c, 5, 74, 82
7, 33126, Note_on_c, 5, 74, 0
7, 33178, Note_on_c, 5, 72, 79
7, 33214, Note_on_c, 5, 72, 0
7, 33264, Note_on_c, 5, 72, 80
7, 33308, Note_on_c, 5, 72, 0
7, 33380, Note_on_c, 5, 71, 57
7, 33400, Note_on_c, 5, 71, 0
7, 33576, Note_on_c, 5, 68, 78
7, 33598, Note_on_c, 5, 68, 0
7, 33648, Note_on_c, 5, 68, 69
7, 33696, Note_on_c, 5, 68, 0
7, 33762, Note_on_c, 5, 69, 66
7, 33800, Note_on_c, 5, 69, 0
7, 33852, Note_on_c, 5, 69, 68
7, 33892, Note_on_c, 5, 69, 0
7, 33948, Note_on_c, 5, 76, 80
7, 33986, Note_on_c, 5, 76, 0
7, 34038, Note_on_c, 5, 76, 78
7, 34098, Note_on_c, 5, 76, 0
7, 34142, Note_on_c, 5, 69, 83
7, 34182, Note_on_c, 5, 69, 0
7, 34240, Note_on_c, 5, 69, 79
7, 34278, Note_on_c, 5, 69, 0
7, 34332, Note_on_c, 5, 74, 84
7, 34370, Note_on_c, 5, 74, 0
7, 34422, Note_on_c, 5, 74, 80
7, 34478, Note_on_c, 5, 74, 0
7, 34526, Note_on_c, 5, 69, 83
7, 34568, Note_on_c, 5, 69, 0
7, 34620, Note_on_c, 5, 69, 74
7, 34662, Note_on_c, 5, 69, 0
7, 34718, Note_on_c, 5, 72, 81
7, 34752, Note_on_c, 5, 72, 0
7, 34806, Note_on_c, 5, 72, 76
7, 34856, Note_on_c, 5, 72, 0
7, 34906, Note_on_c, 5, 68, 84
7, 34942, Note_on_c, 5, 68, 0
7, 35002, Note_on_c, 5, 68, 78
7, 35042, Note_on_c, 5, 68, 0
7, 35100, Note_on_c, 5, 71, 82
7, 35136, Note_on_c, 5, 71, 0
7, 35188, Note_on_c, 5, 71, 80
7, 35224, Note_on_c, 5, 71, 0
7, 35288, Note_on_c, 5, 69, 96
7, 35336, Note_on_c, 5, 69, 0
7, 35380, Note_on_c, 5, 69, 67
7, 35418, Note_on_c, 5, 69, 0
7, 35476, Note_on_c, 5, 69, 75
7, 35516, Note_on_c, 5, 69, 0
7, 35564, Note_on_c, 5, 69, 68
7, 35604, Note_on_c, 5, 69, 0
7, 35674, Note_on_c, 5, 69, 77
7, 35710, Note_on_c, 5, 69, 0
7, 35768, Note_on_c, 5, 69, 66
7, 35800, Note_on_c, 5, 69, 0
7, 35860, Note_on_c, 5, 69, 74
7, 35896, Note_on_c, 5, 69, 0
7, 35948, Note_on_c, 5, 69, 73
7, 35984, Note_on_c, 5, 69, 0
7, 36064, Note_on_c, 5, 69, 95
7, 36096, Note_on_c, 5, 69, 0
7, 36158, Note_on_c, 5, 69, 84
7, 36190, Note_on_c, 5, 69, 0
7, 36256, Note_on_c, 5, 69, 74
7, 36288, Note_on_c, 5, 69, 0
7, 36342, Note_on_c, 5, 69, 73
7, 36376, Note_on_c, 5, 69, 0
7, 36434, Note_on_c, 5, 69, 77
7, 36470, Note_on_c, 5, 69, 0
7, 36526, Note_on_c, 5, 69, 79
7, 36558, Note_on_c, 5, 69, 0
7, 36616, Note_on_c, 5, 69, 71
7, 36654, Note_on_c, 5, 69, 0
7, 36706, Note_on_c, 5, 69, 71
7, 36746, Note_on_c, 5, 69, 0
7, 36816, Note_on_c, 5, 64, 85
7, 36850, Note_on_c, 5, 64, 0
7, 37014, Note_on_c, 5, 64, 94
7, 37262, Note_on_c, 5, 64, 0
7, 37404, Note_on_c, 5, 64, 91
7, 37634, Note_on_c, 5, 64, 0
7, 37782, Note_on_c, 5, 64, 101
7, 38036, Note_on_c, 5, 64, 0
7, 38154, Note_on_c, 5, 64, 89
7, 38214, Note_on_c, 5, 64, 0
7, 38356, Note_on_c, 5, 62, 83
7, 38390, Note_on_c, 5, 62, 0
7, 38456, Note_on_c, 5, 62, 75
7, 38494, Note_on_c, 5, 62, 0
7, 38546, Note_on_c, 5, 62, 68
7, 38582, Note_on_c, 5, 62, 0
7, 38634, Note_on_c, 5, 62, 69
7, 38670, Note_on_c, 5, 62, 0
7, 38734, Note_on_c, 5, 62, 74
7, 38770, Note_on_c, 5, 62, 0
7, 38832, Note_on_c, 5, 62, 74
7, 38868, Note_on_c, 5, 62, 0
7, 38928, Note_on_c, 5, 62, 73
7, 38960, Note_on_c, 5, 62, 0
7, 39020, Note_on_c, 5, 62, 74
7, 39052, Note_on_c, 5, 62, 0
7, 39124, Note_on_c, 5, 62, 81
7, 39158, Note_on_c, 5, 62, 0
7, 39228, Note_on_c, 5, 62, 84
7, 39262, Note_on_c, 5, 62, 0
7, 39320, Note_on_c, 5, 62, 80
7, 39354, Note_on_c, 5, 62, 0
7, 39408, Note_on_c, 5, 62, 76
7, 39442, Note_on_c, 5, 62, 0
7, 39516, Note_on_c, 5, 62, 80
7, 39550, Note_on_c, 5, 62, 0
7, 39616, Note_on_c, 5, 62, 79
7, 39646, Note_on_c, 5, 62, 0
7, 39702, Note_on_c, 5, 62, 75
7, 39738, Note_on_c, 5, 62, 0
7, 39776, Note_on_c, 5, 62, 71
7, 39820, Note_on_c, 5, 62, 0
7, 39892, Note_on_c, 5, 60, 80
7, 39934, Note_on_c, 5, 60, 0
7, 40086, Note_on_c, 5, 64, 95
7, 40322, Note_on_c, 5, 64, 0
7, 40450, Note_on_c, 5, 64, 92
7, 40670, Note_on_c, 5, 64, 0
7, 40850, Note_on_c, 5, 64, 88
7, 40882, Note_on_c, 5, 64, 0
7, 41048, Note_on_c, 5, 64, 84
7, 41068, Note_on_c, 5, 64, 0
7, 41242, Note_on_c, 5, 64, 85
7, 41268, Note_on_c, 5, 64, 0
7, 41430, Note_on_c, 5, 62, 84
7, 41634, Note_on_c, 5, 62, 0
7, 41832, Note_on_c, 5, 64, 80
7, 41848, Note_on_c, 5, 64, 0
7, 42020, Note_on_c, 5, 64, 81
7, 42042, Note_on_c, 5, 64, 0
7, 42216, Note_on_c, 5, 64, 82
7, 42234, Note_on_c, 5, 64, 0
7, 42414, Note_on_c, 5, 64, 90
7, 42656, Note_on_c, 5, 64, 0
7, 42788, Note_on_c, 5, 64, 82
7, 42846, Note_on_c, 5, 64, 0
7, 42984, Note_on_c, 5, 68, 86
7, 43282, Note_on_c, 5, 68, 0
7, 43382, Note_on_c, 5, 69, 94
7, 43416, Note_on_c, 5, 69, 0
7, 43474, Note_on_c, 5, 64, 83
7, 43516, Note_on_c, 5, 64, 0
7, 43562, Note_on_c, 5, 69, 85
7, 43598, Note_on_c, 5, 69, 0
7, 43642, Note_on_c, 5, 72, 85
7, 43678, Note_on_c, 5, 72, 0
7, 43740, Note_on_c, 5, 76, 90
7, 43794, Note_on_c, 5, 76, 0
7, 43930, Note_on_c, 5, 76, 94
7, 44206, Note_on_c, 5, 76, 0
7, 44306, Note_on_c, 5, 76, 83
7, 44362, Note_on_c, 5, 76, 0
7, 44484, Note_on_c, 5, 77, 81
7, 44530, Note_on_c, 5, 77, 0
7, 44576, Note_on_c, 5, 77, 77
7, 44622, Note_on_c, 5, 77, 0
7, 44682, Note_on_c, 5, 69, 85
7, 44722, Note_on_c, 5, 69, 0
7, 44776, Note_on_c, 5, 69, 78
7, 44826, Note_on_c, 5, 69, 0
7, 44878, Note_on_c, 5, 67, 85
7, 44924, Note_on_c, 5, 67, 0
7, 44966, Note_on_c, 5, 67, 78
7, 45012, Note_on_c, 5, 67, 0
7, 45066, Note_on_c, 5, 79, 82
7, 45106, Note_on_c, 5, 79, 0
7, 45152, Note_on_c, 5, 79, 60
7, 45196, Note_on_c, 5, 79, 0
7, 45250, Note_on_c, 5, 77, 88
7, 45288, Note_on_c, 5, 77, 0
7, 45344, Note_on_c, 5, 77, 81
7, 45396, Note_on_c, 5, 77, 0
7, 45454, Note_on_c, 5, 65, 78
7, 45494, Note_on_c, 5, 65, 0
7, 45550, Note_on_c, 5, 65, 74
7, 45596, Note_on_c, 5, 65, 0
7, 45658, Note_on_c, 5, 72, 89
7, 45700, Note_on_c, 5, 72, 0
7, 45746, Note_on_c, 5, 72, 80
7, 45804, Note_on_c, 5, 72, 0
7, 45846, Note_on_c, 5, 69, 83
7, 45878, Note_on_c, 5, 69, 0
7, 45932, Note_on_c, 5, 69, 77
7, 45966, Note_on_c, 5, 69, 0
7, 46050, Note_on_c, 5, 74, 70
7, 46064, Note_on_c, 5, 74, 0
7, 46064, Note_on_c, 5, 72, 82
7, 46102, Note_on_c, 5, 72, 0
7, 46112, Note_on_c, 5, 74, 74
7, 46142, Note_on_c, 5, 72, 62
7, 46146, Note_on_c, 5, 74, 0
7, 46182, Note_on_c, 5, 74, 71
7, 46184, Note_on_c, 5, 72, 0
7, 46212, Note_on_c, 5, 72, 60
7, 46232, Note_on_c, 5, 74, 0
7, 46316, Note_on_c, 5, 72, 0
7, 46334, Note_on_c, 5, 71, 67
7, 46350, Note_on_c, 5, 71, 0
7, 46366, Note_on_c, 5, 72, 76
7, 46416, Note_on_c, 5, 71, 91
7, 46422, Note_on_c, 5, 72, 0
7, 46452, Note_on_c, 5, 71, 0
7, 46622, Note_on_c, 5, 68, 87
7, 46664, Note_on_c, 5, 68, 0
7, 46816, Note_on_c, 5, 67, 84
7, 46830, Note_on_c, 5, 67, 0
7, 47020, Note_on_c, 5, 67, 80
7, 47248, Note_on_c, 5, 67, 0
7, 47402, Note_on_c, 5, 67, 81
7, 47460, Note_on_c, 5, 67, 0
7, 47608, Note_on_c, 5, 68, 81
7, 47642, Note_on_c, 5, 68, 0
7, 47812, Note_on_c, 5, 68, 81
7, 47848, Note_on_c, 5, 68, 0
7, 47998, Note_on_c, 5, 68, 89
7, 48038, Note_on_c, 5, 68, 0
7, 48168, Note_on_c, 5, 68, 90
7, 48206, Note_on_c, 5, 68, 0
7, 48360, Note_on_c, 5, 62, 81
7, 48400, Note_on_c, 5, 62, 0
7, 48546, Note_on_c, 5, 59, 83
7, 48596, Note_on_c, 5, 59, 0
7, 48748, Note_on_c, 5, 59, 81
7, 48782, Note_on_c, 5, 59, 0
7, 48930, Note_on_c, 5, 59, 77
7, 48976, Note_on_c, 5, 59, 0
7, 49124, Note_on_c, 5, 60, 81
7, 49160, Note_on_c, 5, 60, 0
7, 49220, Note_on_c, 5, 63, 76
7, 49254, Note_on_c, 5, 63, 0
7, 49312, Note_on_c, 5, 63, 69
7, 49346, Note_on_c, 5, 63, 0
7, 49398, Note_on_c, 5, 63, 71
7, 49434, Note_on_c, 5, 63, 0
7, 49512, Note_on_c, 5, 63, 80
7, 49546, Note_on_c, 5, 63, 0
7, 49608, Note_on_c, 5, 63, 77
7, 49640, Note_on_c, 5, 63, 0
7, 49698, Note_on_c, 5, 63, 71
7, 49732, Note_on_c, 5, 63, 0
7, 49780, Note_on_c, 5, 63, 65
7, 49816, Note_on_c, 5, 63, 0
7, 49890, Note_on_c, 5, 63, 89
7, 49928, Note_on_c, 5, 63, 0
7, 49986, Note_on_c, 5, 63, 81
7, 50018, Note_on_c, 5, 63, 0
7, 50078, Note_on_c, 5, 63, 72
7, 50114, Note_on_c, 5, 63, 0
7, 50176, Note_on_c, 5, 63, 76
7, 50210, Note_on_c, 5, 63, 0
7, 50266, Note_on_c, 5, 63, 75
7, 50302, Note_on_c, 5, 63, 0
7, 50356, Note_on_c, 5, 63, 71
7, 50394, Note_on_c, 5, 63, 0
7, 50444, Note_on_c, 5, 63, 67
7, 50480, Note_on_c, 5, 63, 0
7, 50530, Note_on_c, 5, 63, 62
7, 50570, Note_on_c, 5, 63, 0
7, 50646, Note_on_c, 5, 67, 81
7, 50682, Note_on_c, 5, 67, 0
7, 50746, Note_on_c, 5, 67, 81
7, 50784, Note_on_c, 5, 67, 0
7, 50850, Note_on_c, 5, 67, 80
7, 50882, Note_on_c, 5, 67, 0
7, 50952, Note_on_c, 5, 67, 80
7, 50982, Note_on_c, 5, 67, 0
7, 51056, Note_on_c, 5, 67, 84
7, 51092, Note_on_c, 5, 67, 0
7, 51152, Note_on_c, 5, 67, 77
7, 51186, Note_on_c, 5, 67, 0
7, 51242, Note_on_c, 5, 67, 74
7, 51272, Note_on_c, 5, 67, 0
7, 51326, Note_on_c, 5, 67, 76
7, 51360, Note_on_c, 5, 67, 0
7, 51426, Note_on_c, 5, 67, 85
7, 51462, Note_on_c, 5, 67, 0
7, 51524, Note_on_c, 5, 67, 70
7, 51558, Note_on_c, 5, 67, 0
7, 51622, Note_on_c, 5, 67, 80
7, 51658, Note_on_c, 5, 67, 0
7, 51716, Note_on_c, 5, 67, 80
7, 51750, Note_on_c, 5, 67, 0
7, 51824, Note_on_c, 5, 67, 85
7, 51858, Note_on_c, 5, 67, 0
7, 51922, Note_on_c, 5, 67, 80
7, 51958, Note_on_c, 5, 67, 0
7, 52016, Note_on_c, 5, 67, 80
7, 52052, Note_on_c, 5, 67, 0
7, 52092, Note_on_c, 5, 67, 75
7, 52128, Note_on_c, 5, 67, 0
7, 52202, Note_on_c, 5, 67, 85
7, 52236, Note_on_c, 5, 67, 0
7, 52392, Note_on_c, 5, 67, 80
7, 52636, Note_on_c, 5, 67, 0
7, 52778, Note_on_c, 5, 67, 82
7, 52998, Note_on_c, 5, 67, 0
7, 53152, Note_on_c, 5, 67, 75
7, 53424, Note_on_c, 5, 67, 0
7, 53532, Note_on_c, 5, 67, 78
7, 53622, Note_on_c, 5, 67, 0
7, 53716, Note_on_c, 5, 64, 64
7, 53754, Note_on_c, 5, 64, 0
7, 53808, Note_on_c, 5, 64, 72
7, 53846, Note_on_c, 5, 64, 0
7, 53908, Note_on_c, 5, 64, 62
7, 53942, Note_on_c, 5, 64, 0
7, 54002, Note_on_c, 5, 64, 63
7, 54042, Note_on_c, 5, 64, 0
7, 54116, Note_on_c, 5, 64, 77
7, 54144, Note_on_c, 5, 64, 0
7, 54216, Note_on_c, 5, 64, 71
7, 54250, Note_on_c, 5, 64, 0
7, 54306, Note_on_c, 5, 64, 62
7, 54346, Note_on_c, 5, 64, 0
7, 54404, Note_on_c, 5, 64, 73
7, 54438, Note_on_c, 5, 64, 0
7, 54508, Note_on_c, 5, 64, 74
7, 54534, Note_on_c, 5, 64, 0
7, 54602, Note_on_c, 5, 64, 75
7, 54626, Note_on_c, 5, 64, 0
7, 54696, Note_on_c, 5, 64, 73
7, 54728, Note_on_c, 5, 64, 0
7, 54786, Note_on_c, 5, 64, 66
7, 54826, Note_on_c, 5, 64, 0
7, 54892, Note_on_c, 5, 64, 76
7, 54922, Note_on_c, 5, 64, 0
7, 54992, Note_on_c, 5, 64, 68
7, 55020, Note_on_c, 5, 64, 0
7, 55076, Note_on_c, 5, 64, 64
7, 55112, Note_on_c, 5, 64, 0
7, 55162, Note_on_c, 5, 64, 71
7, 55194, Note_on_c, 5, 64, 0
7, 55262, Note_on_c, 5, 64, 77
7, 55294, Note_on_c, 5, 64, 0
7, 55346, Note_on_c, 5, 64, 64
7, 55386, Note_on_c, 5, 64, 0
7, 55446, Note_on_c, 5, 64, 77
7, 55478, Note_on_c, 5, 64, 0
7, 55540, Note_on_c, 5, 64, 75
7, 55576, Note_on_c, 5, 64, 0
7, 55640, Note_on_c, 5, 64, 72
7, 55678, Note_on_c, 5, 64, 0
7, 55738, Note_on_c, 5, 64, 75
7, 55770, Note_on_c, 5, 64, 0
7, 55834, Note_on_c, 5, 64, 73
7, 55870, Note_on_c, 5, 64, 0
7, 55928, Note_on_c, 5, 64, 67
7, 55954, Note_on_c, 5, 64, 0
7, 56034, Note_on_c, 5, 64, 87
7, 56068, Note_on_c, 5, 64, 0
7, 56130, Note_on_c, 5, 64, 74
7, 56164, Note_on_c, 5, 64, 0
7, 56218, Note_on_c, 5, 64, 64
7, 56254, Note_on_c, 5, 64, 0
7, 56310, Note_on_c, 5, 64, 74
7, 56344, Note_on_c, 5, 64, 0
7, 56404, Note_on_c, 5, 64, 71
7, 56442, Note_on_c, 5, 64, 0
7, 56498, Note_on_c, 5, 64, 70
7, 56536, Note_on_c, 5, 64, 0
7, 56586, Note_on_c, 5, 64, 68
7, 56624, Note_on_c, 5, 64, 0
7, 56676, Note_on_c, 5, 64, 69
7, 56718, Note_on_c, 5, 64, 0
7, 56784, Note_on_c, 5, 69, 77
7, 56800, Note_on_c, 5, 69, 0
7, 56984, Note_on_c, 5, 69, 92
7, 57188, Note_on_c, 5, 69, 0
7, 57366, Note_on_c, 5, 69, 90
7, 57576, Note_on_c, 5, 69, 0
7, 57734, Note_on_c, 5, 69, 84
7, 57962, Note_on_c, 5, 69, 0
7, 58130, Note_on_c, 5, 69, 80
7, 58174, Note_on_c, 5, 69, 0
7, 58326, Note_on_c, 5, 67, 85
7, 58364, Note_on_c, 5, 67, 0
7, 58430, Note_on_c, 5, 67, 81
7, 58460, Note_on_c, 5, 67, 0
7, 58526, Note_on_c, 5, 67, 76
7, 58562, Note_on_c, 5, 67, 0
7, 58630, Note_on_c, 5, 67, 76
7, 58668, Note_on_c, 5, 67, 0
7, 58734, Note_on_c, 5, 67, 80
7, 58772, Note_on_c, 5, 67, 0
7, 58822, Note_on_c, 5, 67, 72
7, 58860, Note_on_c, 5, 67, 0
7, 58906, Note_on_c, 5, 67, 71
7, 58942, Note_on_c, 5, 67, 0
7, 58988, Note_on_c, 5, 67, 70
7, 59034, Note_on_c, 5, 67, 0
7, 59114, Note_on_c, 5, 63, 88
7, 59160, Note_on_c, 5, 63, 0
7, 59214, Note_on_c, 5, 63, 78
7, 59254, Note_on_c, 5, 63, 0
7, 59308, Note_on_c, 5, 63, 74
7, 59348, Note_on_c, 5, 63, 0
7, 59394, Note_on_c, 5, 63, 71
7, 59434, Note_on_c, 5, 63, 0
7, 59488, Note_on_c, 5, 63, 72
7, 59524, Note_on_c, 5, 63, 0
7, 59576, Note_on_c, 5, 63, 77
7, 59618, Note_on_c, 5, 63, 0
7, 59672, Note_on_c, 5, 63, 78
7, 59710, Note_on_c, 5, 63, 0
7, 59756, Note_on_c, 5, 63, 70
7, 59800, Note_on_c, 5, 63, 0
7, 59870, Note_on_c, 5, 62, 67
7, 59898, Note_on_c, 5, 62, 0
7, 59976, Note_on_c, 5, 62, 76
7, 60010, Note_on_c, 5, 62, 0
7, 60076, Note_on_c, 5, 62, 78
7, 60110, Note_on_c, 5, 62, 0
7, 60172, Note_on_c, 5, 62, 75
7, 60206, Note_on_c, 5, 62, 0
7, 60270, Note_on_c, 5, 62, 78
7, 60302, Note_on_c, 5, 62, 0
7, 60360, Note_on_c, 5, 62, 71
7, 60398, Note_on_c, 5, 62, 0
7, 60442, Note_on_c, 5, 62, 70
7, 60482, Note_on_c, 5, 62, 0
7, 60530, Note_on_c, 5, 62, 75
7, 60574, Note_on_c, 5, 62, 0
7, 60634, Note_on_c, 5, 60, 79
7, 60676, Note_on_c, 5, 60, 0
7, 60726, Note_on_c, 5, 60, 69
7, 60766, Note_on_c, 5, 60, 0
7, 60816, Note_on_c, 5, 60, 67
7, 60854, Note_on_c, 5, 60, 0
7, 60902, Note_on_c, 5, 60, 66
7, 60940, Note_on_c, 5, 60, 0
7, 60994, Note_on_c, 5, 60, 66
7, 61034, Note_on_c, 5, 60, 0
7, 61092, Note_on_c, 5, 60, 64
7, 61126, Note_on_c, 5, 60, 0
7, 61188, Note_on_c, 5, 60, 62
7, 61226, Note_on_c, 5, 60, 0
7, 61286, Note_on_c, 5, 60, 68
7, 61326, Note_on_c, 5, 60, 0
7, 61404, Note_on_c, 5, 67, 78
7, 61444, Note_on_c, 5, 67, 0
7, 61502, Note_on_c, 5, 67, 71
7, 61540, Note_on_c, 5, 67, 0
7, 61604, Note_on_c, 5, 67, 76
7, 61642, Note_on_c, 5, 67, 0
7, 61696, Note_on_c, 5, 67, 74
7, 61730, Note_on_c, 5, 67, 0
7, 61784, Note_on_c, 5, 67, 77
7, 61820, Note_on_c, 5, 67, 0
7, 61868, Note_on_c, 5, 67, 76
7, 61904, Note_on_c, 5, 67, 0
7, 61960, Note_on_c, 5, 67, 84
7, 61994, Note_on_c, 5, 67, 0
7, 62046, Note_on_c, 5, 67, 79
7, 62084, Note_on_c, 5, 67, 0
7, 62158, Note_on_c, 5, 65, 76
7, 62186, Note_on_c, 5, 65, 0
7, 62260, Note_on_c, 5, 65, 73
7, 62278, Note_on_c, 5, 65, 0
7, 62354, Note_on_c, 5, 65, 77
7, 62384, Note_on_c, 5, 65, 0
7, 62448, Note_on_c, 5, 65, 80
7, 62482, Note_on_c, 5, 65, 0
7, 62550, Note_on_c, 5, 65, 87
7, 62584, Note_on_c, 5, 65, 0
7, 62644, Note_on_c, 5, 65, 79
7, 62676, Note_on_c, 5, 65, 0
7, 62744, Note_on_c, 5, 65, 81
7, 62772, Note_on_c, 5, 65, 0
7, 62830, Note_on_c, 5, 65, 77
7, 62864, Note_on_c, 5, 65, 0
7, 62932, Note_on_c, 5, 65, 78
7, 62958, Note_on_c, 5, 65, 0
7, 63024, Note_on_c, 5, 65, 79
7, 63054, Note_on_c, 5, 65, 0
7, 63114, Note_on_c, 5, 65, 81
7, 63150, Note_on_c, 5, 65, 0
7, 63196, Note_on_c, 5, 65, 71
7, 63236, Note_on_c, 5, 65, 0
7, 63324, Note_on_c, 5, 64, 80
7, 63356, Note_on_c, 5, 64, 0
7, 63424, Note_on_c, 5, 64, 80
7, 63456, Note_on_c, 5, 64, 0
7, 63506, Note_on_c, 5, 64, 60
7, 63534, Note_on_c, 5, 64, 0
7, 63580, Note_on_c, 5, 64, 75
7, 63616, Note_on_c, 5, 64, 0
7, 63698, Note_on_c, 5, 57, 99
7, 64134, Note_on_c, 5, 57, 0
7, 64292, Note_on_c, 5, 57, 94
7, 64366, Note_on_c, 5, 57, 0
7, 64482, Note_on_c, 5, 56, 84
7, 64520, Note_on_c, 5, 56, 0
7, 64570, Note_on_c, 5, 56, 67
7, 64620, Note_on_c, 5, 56, 0
7, 64664, Note_on_c, 5, 57, 78
7, 64702, Note_on_c, 5, 57, 0
7, 64754, Note_on_c, 5, 57, 78
7, 64804, Note_on_c, 5, 57, 0
7, 64866, Note_on_c, 5, 56, 80
7, 64908, Note_on_c, 5, 56, 0
7, 64956, Note_on_c, 5, 56, 70
7, 65008, Note_on_c, 5, 56, 0
7, 65054, Note_on_c, 5, 57, 79
7, 65094, Note_on_c, 5, 57, 0
7, 65140, Note_on_c, 5, 57, 79
7, 65188, Note_on_c, 5, 57, 0
7, 65238, Note_on_c, 5, 56, 85
7, 65278, Note_on_c, 5, 56, 0
7, 65322, Note_on_c, 5, 56, 70
7, 65374, Note_on_c, 5, 56, 0
7, 65426, Note_on_c, 5, 57, 78
7, 65466, Note_on_c, 5, 57, 0
7, 65520, Note_on_c, 5, 57, 79
7, 65564, Note_on_c, 5, 57, 0
7, 65616, Note_on_c, 5, 56, 83
7, 65656, Note_on_c, 5, 56, 0
7, 65700, Note_on_c, 5, 56, 67
7, 65752, Note_on_c, 5, 56, 0
7, 65798, Note_on_c, 5, 57, 80
7, 65834, Note_on_c, 5, 57, 0
7, 65878, Note_on_c, 5, 57, 80
7, 65916, Note_on_c, 5, 57, 0
7, 65992, Note_on_c, 5, 58, 101
7, 66046, Note_on_c, 5, 58, 0
7, 66400, Note_on_c, 5, 57, 105
7, 66480, Note_on_c, 5, 57, 0
7, 66802, Note_on_c, 5, 69, 110
7, 67232, Note_on_c, 5, 69, 0
7, 67360, Note_on_c, 5, 69, 108
7, 67532, Note_on_c, 5, 69, 0
7, 67558, Note_on_c, 5, 68, 97
7, 67930, Note_on_c, 5, 68, 0
7, 67956, Note_on_c, 5, 69, 91
7, 68106, Note_on_c, 5, 69, 0
7, 68330, Note_on_c, 5, 69, 105
7, 68796, Note_on_c, 5, 69, 0
7, 68910, Note_on_c, 5, 69, 90
7, 69066, Note_on_c, 5, 69, 0
7, 69090, Note_on_c, 5, 68, 90
7, 69454, Note_on_c, 5, 68, 0
7, 69470, Note_on_c, 5, 69, 90
7, 69680, Note_on_c, 5, 69, 0
7, 69868, Note_on_c, 5, 57, 101
7, 70314, Note_on_c, 5, 57, 0
7, 70430, Note_on_c, 5, 57, 101
7, 70516, Note_on_c, 5, 57, 0
7, 70636, Note_on_c, 5, 56, 90
7, 70680, Note_on_c, 5, 56, 0
7, 70728, Note_on_c, 5, 56, 71
7, 70772, Note_on_c, 5, 56, 0
7, 70824, Note_on_c, 5, 57, 81
7, 70866, Note_on_c, 5, 57, 0
7, 70922, Note_on_c, 5, 57, 85
7, 70960, Note_on_c, 5, 57, 0
7, 71020, Note_on_c, 5, 56, 89
7, 71064, Note_on_c, 5, 56, 0
7, 71112, Note_on_c, 5, 56, 74
7, 71164, Note_on_c, 5, 56, 0
7, 71206, Note_on_c, 5, 57, 81
7, 71244, Note_on_c, 5, 57, 0
7, 71300, Note_on_c, 5, 57, 80
7, 71346, Note_on_c, 5, 57, 0
7, 71404, Note_on_c, 5, 56, 87
7, 71446, Note_on_c, 5, 56, 0
7, 71488, Note_on_c, 5, 56, 74
7, 71546, Note_on_c, 5, 56, 0
7, 71586, Note_on_c, 5, 57, 82
7, 71626, Note_on_c, 5, 57, 0
7, 71678, Note_on_c, 5, 57, 76
7, 71724, Note_on_c, 5, 57, 0
7, 71782, Note_on_c, 5, 56, 83
7, 71822, Note_on_c, 5, 56, 0
7, 71874, Note_on_c, 5, 56, 67
7, 71920, Note_on_c, 5, 56, 0
7, 71966, Note_on_c, 5, 57, 83
7, 72002, Note_on_c, 5, 57, 0
7, 72054, Note_on_c, 5, 57, 84
7, 72102, Note_on_c, 5, 57, 0
7, 72158, Note_on_c, 5, 58, 98
7, 72242, Note_on_c, 5, 58, 0
7, 72544, Note_on_c, 5, 57, 110
7, 72636, Note_on_c, 5, 57, 0
7, 72952, Note_on_c, 5, 64, 101
7, 73404, Note_on_c, 5, 64, 0
7, 73522, Note_on_c, 5, 64, 94
7, 73662, Note_on_c, 5, 64, 0
7, 73720, Note_on_c, 5, 65, 101
7, 74042, Note_on_c, 5, 65, 0
7, 74090, Note_on_c, 5, 64, 94
7, 74274, Note_on_c, 5, 64, 0
7, 74488, Note_on_c, 5, 64, 96
7, 74950, Note_on_c, 5, 64, 0
7, 75046, Note_on_c, 5, 64, 95
7, 75186, Note_on_c, 5, 64, 0
7, 75250, Note_on_c, 5, 65, 90
7, 75548, Note_on_c, 5, 65, 0
7, 75610, Note_on_c, 5, 64, 96
7, 75850, Note_on_c, 5, 64, 0
7, 76014, Note_on_c, 5, 57, 99
7, 76410, Note_on_c, 5, 57, 0
7, 76568, Note_on_c, 5, 57, 95
7, 76638, Note_on_c, 5, 57, 0
7, 76772, Note_on_c, 5, 56, 90
7, 76818, Note_on_c, 5, 56, 0
7, 76864, Note_on_c, 5, 56, 77
7, 76924, Note_on_c, 5, 56, 0
7, 76970, Note_on_c, 5, 57, 87
7, 77014, Note_on_c, 5, 57, 0
7, 77060, Note_on_c, 5, 57, 84
7, 77110, Note_on_c, 5, 57, 0
7, 77152, Note_on_c, 5, 56, 87
7, 77198, Note_on_c, 5, 56, 0
7, 77244, Note_on_c, 5, 56, 76
7, 77304, Note_on_c, 5, 56, 0
7, 77346, Note_on_c, 5, 57, 89
7, 77390, Note_on_c, 5, 57, 0
7, 77444, Note_on_c, 5, 57, 89
7, 77494, Note_on_c, 5, 57, 0
7, 77554, Note_on_c, 5, 56, 87
7, 77600, Note_on_c, 5, 56, 0
7, 77644, Note_on_c, 5, 56, 76
7, 77700, Note_on_c, 5, 56, 0
7, 77734, Note_on_c, 5, 57, 87
7, 77776, Note_on_c, 5, 57, 0
7, 77826, Note_on_c, 5, 57, 85
7, 77876, Note_on_c, 5, 57, 0
7, 77930, Note_on_c, 5, 56, 88
7, 77972, Note_on_c, 5, 56, 0
7, 78012, Note_on_c, 5, 56, 72
7, 78066, Note_on_c, 5, 56, 0
7, 78106, Note_on_c, 5, 57, 88
7, 78152, Note_on_c, 5, 57, 0
7, 78202, Note_on_c, 5, 57, 82
7, 78244, Note_on_c, 5, 57, 0
7, 78296, Note_on_c, 5, 58, 90
7, 78346, Note_on_c, 5, 58, 0
7, 78506, Note_on_c, 5, 67, 81
7, 78548, Note_on_c, 5, 67, 0
7, 78586, Note_on_c, 5, 67, 80
7, 78640, Note_on_c, 5, 67, 0
7, 78696, Note_on_c, 5, 70, 84
7, 78738, Note_on_c, 5, 70, 0
7, 78784, Note_on_c, 5, 70, 71
7, 78840, Note_on_c, 5, 70, 0
7, 78884, Note_on_c, 5, 74, 81
7, 78920, Note_on_c, 5, 74, 0
7, 78966, Note_on_c, 5, 74, 77
7, 79038, Note_on_c, 5, 74, 0
7, 79076, Note_on_c, 5, 79, 90
7, 79160, Note_on_c, 5, 79, 0
7, 79272, Note_on_c, 5, 67, 101
7, 79560, Note_on_c, 5, 67, 0
7, 79652, Note_on_c, 5, 67, 94
7, 79790, Note_on_c, 5, 67, 0
7, 79838, Note_on_c, 5, 69, 88
7, 79878, Note_on_c, 5, 69, 0
7, 79926, Note_on_c, 5, 69, 79
7, 79974, Note_on_c, 5, 69, 0
7, 80028, Note_on_c, 5, 70, 84
7, 80074, Note_on_c, 5, 70, 0
7, 80126, Note_on_c, 5, 70, 79
7, 80180, Note_on_c, 5, 70, 0
7, 80240, Note_on_c, 5, 69, 89
7, 80284, Note_on_c, 5, 69, 0
7, 80328, Note_on_c, 5, 69, 78
7, 80374, Note_on_c, 5, 69, 0
7, 80420, Note_on_c, 5, 70, 85
7, 80462, Note_on_c, 5, 70, 0
7, 80504, Note_on_c, 5, 70, 71
7, 80560, Note_on_c, 5, 70, 0
7, 80614, Note_on_c, 5, 69, 87
7, 80652, Note_on_c, 5, 69, 0
7, 80700, Note_on_c, 5, 69, 79
7, 80738, Note_on_c, 5, 69, 0
7, 80790, Note_on_c, 5, 70, 81
7, 80832, Note_on_c, 5, 70, 0
7, 80876, Note_on_c, 5, 70, 70
7, 80930, Note_on_c, 5, 70, 0
7, 80984, Note_on_c, 5, 69, 85
7, 81018, Note_on_c, 5, 69, 0
7, 81068, Note_on_c, 5, 69, 77
7, 81108, Note_on_c, 5, 69, 0
7, 81154, Note_on_c, 5, 70, 84
7, 81198, Note_on_c, 5, 70, 0
7, 81246, Note_on_c, 5, 70, 68
7, 81298, Note_on_c, 5, 70, 0
7, 81374, Note_on_c, 5, 64, 88
7, 81438, Note_on_c, 5, 64, 0
7, 81480, Note_on_c, 5, 67, 80
7, 81530, Note_on_c, 5, 67, 0
7, 81572, Note_on_c, 5, 64, 83
7, 81616, Note_on_c, 5, 64, 0
7, 81660, Note_on_c, 5, 67, 85
7, 81712, Note_on_c, 5, 67, 0
7, 81764, Note_on_c, 5, 64, 84
7, 81812, Note_on_c, 5, 64, 0
7, 81856, Note_on_c, 5, 69, 67
7, 81898, Note_on_c, 5, 69, 0
7, 81940, Note_on_c, 5, 73, 75
7, 81996, Note_on_c, 5, 73, 0
7, 82022, Note_on_c, 5, 76, 65
7, 82086, Note_on_c, 5, 76, 0
7, 82124, Note_on_c, 5, 81, 85
7, 82210, Note_on_c, 5, 81, 0
7, 82332, Note_on_c, 5, 73, 92
7, 82584, Note_on_c, 5, 73, 0
7, 82712, Note_on_c, 5, 73, 90
7, 82818, Note_on_c, 5, 73, 0
7, 82902, Note_on_c, 5, 74, 94
7, 82936, Note_on_c, 5, 74, 0
7, 82994, Note_on_c, 5, 74, 87
7, 83028, Note_on_c, 5, 74, 0
7, 83084, Note_on_c, 5, 74, 81
7, 83122, Note_on_c, 5, 74, 0
7, 83168, Note_on_c, 5, 74, 76
7, 83222, Note_on_c, 5, 74, 0
7, 83288, Note_on_c, 5, 73, 84
7, 83332, Note_on_c, 5, 73, 0
7, 83400, Note_on_c, 5, 73, 84
7, 83440, Note_on_c, 5, 73, 0
7, 83494, Note_on_c, 5, 73, 70
7, 83534, Note_on_c, 5, 73, 0
7, 83574, Note_on_c, 5, 73, 67
7, 83628, Note_on_c, 5, 73, 0
7, 83690, Note_on_c, 5, 74, 92
7, 83730, Note_on_c, 5, 74, 0
7, 83782, Note_on_c, 5, 74, 83
7, 83818, Note_on_c, 5, 74, 0
7, 83870, Note_on_c, 5, 74, 79
7, 83908, Note_on_c, 5, 74, 0
7, 83950, Note_on_c, 5, 74, 78
7, 84002, Note_on_c, 5, 74, 0
7, 84052, Note_on_c, 5, 73, 88
7, 84096, Note_on_c, 5, 73, 0
7, 84142, Note_on_c, 5, 73, 69
7, 84184, Note_on_c, 5, 73, 0
7, 84228, Note_on_c, 5, 73, 62
7, 84262, Note_on_c, 5, 73, 0
7, 84312, Note_on_c, 5, 73, 62
7, 84360, Note_on_c, 5, 73, 0
7, 84434, Note_on_c, 5, 74, 88
7, 84470, Note_on_c, 5, 74, 0
7, 84522, Note_on_c, 5, 74, 78
7, 84558, Note_on_c, 5, 74, 0
7, 84608, Note_on_c, 5, 74, 75
7, 84646, Note_on_c, 5, 74, 0
7, 84694, Note_on_c, 5, 74, 76
7, 84740, Note_on_c, 5, 74, 0
7, 84802, Note_on_c, 5, 73, 89
7, 84854, Note_on_c, 5, 73, 0
7, 84890, Note_on_c, 5, 69, 79
7, 84932, Note_on_c, 5, 69, 0
7, 84990, Note_on_c, 5, 73, 78
7, 85038, Note_on_c, 5, 73, 0
7, 85084, Note_on_c, 5, 76, 75
7, 85140, Note_on_c, 5, 76, 0
7, 85202, Note_on_c, 5, 81, 65
7, 85248, Note_on_c, 5, 81, 0
7, 85408, Note_on_c, 5, 77, 105
7, 85662, Note_on_c, 5, 77, 0
7, 85772, Note_on_c, 5, 77, 91
7, 85898, Note_on_c, 5, 77, 0
7, 85980, Note_on_c, 5, 79, 91
7, 86022, Note_on_c, 5, 79, 0
7, 86068, Note_on_c, 5, 79, 87
7, 86112, Note_on_c, 5, 79, 0
7, 86156, Note_on_c, 5, 79, 83
7, 86200, Note_on_c, 5, 79, 0
7, 86238, Note_on_c, 5, 79, 80
7, 86294, Note_on_c, 5, 79, 0
7, 86362, Note_on_c, 5, 77, 89
7, 86406, Note_on_c, 5, 77, 0
7, 86456, Note_on_c, 5, 77, 80
7, 86492, Note_on_c, 5, 77, 0
7, 86544, Note_on_c, 5, 77, 80
7, 86584, Note_on_c, 5, 77, 0
7, 86630, Note_on_c, 5, 77, 78
7, 86680, Note_on_c, 5, 77, 0
7, 86756, Note_on_c, 5, 79, 90
7, 86790, Note_on_c, 5, 79, 0
7, 86844, Note_on_c, 5, 79, 85
7, 86882, Note_on_c, 5, 79, 0
7, 86930, Note_on_c, 5, 79, 80
7, 86966, Note_on_c, 5, 79, 0
7, 87010, Note_on_c, 5, 79, 80
7, 87060, Note_on_c, 5, 79, 0
7, 87128, Note_on_c, 5, 77, 89
7, 87166, Note_on_c, 5, 77, 0
7, 87216, Note_on_c, 5, 77, 79
7, 87252, Note_on_c, 5, 77, 0
7, 87300, Note_on_c, 5, 77, 80
7, 87334, Note_on_c, 5, 77, 0
7, 87378, Note_on_c, 5, 77, 71
7, 87420, Note_on_c, 5, 77, 0
7, 87494, Note_on_c, 5, 79, 91
7, 87530, Note_on_c, 5, 79, 0
7, 87582, Note_on_c, 5, 79, 85
7, 87622, Note_on_c, 5, 79, 0
7, 87678, Note_on_c, 5, 79, 83
7, 87714, Note_on_c, 5, 79, 0
7, 87760, Note_on_c, 5, 79, 78
7, 87810, Note_on_c, 5, 79, 0
7, 87884, Note_on_c, 5, 77, 91
7, 87982, Note_on_c, 5, 77, 0
7, 88088, Note_on_c, 5, 81, 88
7, 88124, Note_on_c, 5, 81, 0
7, 88174, Note_on_c, 5, 81, 80
7, 88226, Note_on_c, 5, 81, 0
7, 88278, Note_on_c, 5, 77, 83
7, 88314, Note_on_c, 5, 77, 0
7, 88366, Note_on_c, 5, 77, 83
7, 88418, Note_on_c, 5, 77, 0
7, 88460, Note_on_c, 5, 74, 80
7, 88504, Note_on_c, 5, 74, 0
7, 88554, Note_on_c, 5, 74, 76
7, 88602, Note_on_c, 5, 74, 0
7, 88662, Note_on_c, 5, 77, 85
7, 88702, Note_on_c, 5, 77, 0
7, 88750, Note_on_c, 5, 77, 74
7, 88790, Note_on_c, 5, 77, 0
7, 88850, Note_on_c, 5, 81, 83
7, 88886, Note_on_c, 5, 81, 0
7, 88934, Note_on_c, 5, 81, 75
7, 88976, Note_on_c, 5, 81, 0
7, 89038, Note_on_c, 5, 86, 87
7, 89082, Note_on_c, 5, 86, 0
7, 89124, Note_on_c, 5, 86, 75
7, 89174, Note_on_c, 5, 86, 0
7, 89218, Note_on_c, 5, 81, 79
7, 89256, Note_on_c, 5, 81, 0
7, 89306, Note_on_c, 5, 81, 75
7, 89356, Note_on_c, 5, 81, 0
7, 89418, Note_on_c, 5, 77, 78
7, 89452, Note_on_c, 5, 77, 0
7, 89510, Note_on_c, 5, 77, 71
7, 89548, Note_on_c, 5, 77, 0
7, 89616, Note_on_c, 5, 74, 43
7, 89620, Note_on_c, 5, 72, 52
7, 89636, Note_on_c, 5, 72, 0
7, 89640, Note_on_c, 5, 74, 0
7, 89708, Note_on_c, 5, 74, 67
7, 89738, Note_on_c, 5, 74, 0
7, 89806, Note_on_c, 5, 86, 74
7, 89844, Note_on_c, 5, 86, 0
7, 89894, Note_on_c, 5, 86, 66
7, 89940, Note_on_c, 5, 86, 0
7, 89994, Note_on_c, 5, 81, 79
7, 90032, Note_on_c, 5, 81, 0
7, 90082, Note_on_c, 5, 81, 74
7, 90134, Note_on_c, 5, 81, 0
7, 90190, Note_on_c, 5, 77, 77
7, 90224, Note_on_c, 5, 77, 0
7, 90284, Note_on_c, 5, 77, 69
7, 90324, Note_on_c, 5, 77, 0
7, 90376, Note_on_c, 5, 74, 65
7, 90412, Note_on_c, 5, 74, 0
7, 90472, Note_on_c, 5, 74, 66
7, 90518, Note_on_c, 5, 74, 0
7, 90578, Note_on_c, 5, 86, 78
7, 90616, Note_on_c, 5, 86, 0
7, 90668, Note_on_c, 5, 86, 73
7, 90716, Note_on_c, 5, 86, 0
7, 90772, Note_on_c, 5, 81, 80
7, 90806, Note_on_c, 5, 81, 0
7, 90858, Note_on_c, 5, 81, 78
7, 90904, Note_on_c, 5, 81, 0
7, 90964, Note_on_c, 5, 77, 80
7, 91000, Note_on_c, 5, 77, 0
7, 91058, Note_on_c, 5, 77, 76
7, 91100, Note_on_c, 5, 77, 0
7, 91142, Note_on_c, 5, 74, 74
7, 91186, Note_on_c, 5, 74, 0
7, 91238, Note_on_c, 5, 74, 70
7, 91284, Note_on_c, 5, 74, 0
7, 91346, Note_on_c, 5, 86, 83
7, 91384, Note_on_c, 5, 86, 0
7, 91432, Note_on_c, 5, 86, 79
7, 91478, Note_on_c, 5, 86, 0
7, 91532, Note_on_c, 5, 81, 87
7, 91566, Note_on_c, 5, 81, 0
7, 91622, Note_on_c, 5, 81, 81
7, 91662, Note_on_c, 5, 81, 0
7, 91722, Note_on_c, 5, 77, 84
7, 91756, Note_on_c, 5, 77, 0
7, 91812, Note_on_c, 5, 77, 73
7, 91850, Note_on_c, 5, 77, 0
7, 91906, Note_on_c, 5, 74, 83
7, 91946, Note_on_c, 5, 74, 0
7, 92004, Note_on_c, 5, 74, 74
7, 92048, Note_on_c, 5, 74, 0
7, 92116, Note_on_c, 5, 86, 88
7, 92152, Note_on_c, 5, 86, 0
7, 92200, Note_on_c, 5, 86, 76
7, 92244, Note_on_c, 5, 86, 0
7, 92300, Note_on_c, 5, 82, 84
7, 92340, Note_on_c, 5, 82, 0
7, 92390, Note_on_c, 5, 82, 82
7, 92446, Note_on_c, 5, 82, 0
7, 92492, Note_on_c, 5, 77, 83
7, 92528, Note_on_c, 5, 77, 0
7, 92590, Note_on_c, 5, 77, 76
7, 92632, Note_on_c, 5, 77, 0
7, 92686, Note_on_c, 5, 74, 74
7, 92726, Note_on_c, 5, 74, 0
7, 92788, Note_on_c, 5, 74, 71
7, 92832, Note_on_c, 5, 74, 0
7, 92896, Note_on_c, 5, 86, 80
7, 92930, Note_on_c, 5, 86, 0
7, 92980, Note_on_c, 5, 86, 78
7, 93028, Note_on_c, 5, 86, 0
7, 93078, Note_on_c, 5, 82, 84
7, 93118, Note_on_c, 5, 82, 0
7, 93166, Note_on_c, 5, 82, 76
7, 93222, Note_on_c, 5, 82, 0
7, 93278, Note_on_c, 5, 79, 83
7, 93310, Note_on_c, 5, 79, 0
7, 93364, Note_on_c, 5, 79, 70
7, 93404, Note_on_c, 5, 79, 0
7, 93454, Note_on_c, 5, 76, 77
7, 93494, Note_on_c, 5, 76, 0
7, 93550, Note_on_c, 5, 76, 71
7, 93594, Note_on_c, 5, 76, 0
7, 93652, Note_on_c, 5, 85, 90
7, 93694, Note_on_c, 5, 85, 0
7, 93736, Note_on_c, 5, 85, 78
7, 93792, Note_on_c, 5, 85, 0
7, 93836, Note_on_c, 5, 79, 79
7, 93872, Note_on_c, 5, 79, 0
7, 93928, Note_on_c, 5, 79, 74
7, 93974, Note_on_c, 5, 79, 0
7, 94020, Note_on_c, 5, 77, 77
7, 94058, Note_on_c, 5, 77, 0
7, 94114, Note_on_c, 5, 77, 71
7, 94164, Note_on_c, 5, 77, 0
7, 94208, Note_on_c, 5, 86, 78
7, 94246, Note_on_c, 5, 86, 0
7, 94292, Note_on_c, 5, 86, 74
7, 94392, Note_on_c, 5, 86, 0
7, 94412, Note_on_c, 5, 76, 79
7, 94452, Note_on_c, 5, 76, 0
7, 94504, Note_on_c, 5, 76, 77
7, 94578, Note_on_c, 5, 76, 0
7, 94610, Note_on_c, 5, 86, 85
7, 94644, Note_on_c, 5, 86, 0
7, 94688, Note_on_c, 5, 86, 71
7, 94752, Note_on_c, 5, 86, 0
7, 94798, Note_on_c, 5, 76, 83
7, 94842, Note_on_c, 5, 76, 0
7, 94894, Note_on_c, 5, 76, 74
7, 94938, Note_on_c, 5, 76, 0
7, 94982, Note_on_c, 5, 85, 86
7, 95020, Note_on_c, 5, 85, 0
7, 95072, Note_on_c, 5, 85, 83
7, 95120, Note_on_c, 5, 85, 0
7, 95180, Note_on_c, 5, 86, 103
7, 95230, Note_on_c, 5, 86, 0
7, 95274, Note_on_c, 5, 86, 80
7, 95324, Note_on_c, 5, 86, 0
7, 95374, Note_on_c, 5, 81, 77
7, 95412, Note_on_c, 5, 81, 0
7, 95466, Note_on_c, 5, 81, 77
7, 95516, Note_on_c, 5, 81, 0
7, 95568, Note_on_c, 5, 77, 81
7, 95602, Note_on_c, 5, 77, 0
7, 95656, Note_on_c, 5, 77, 70
7, 95698, Note_on_c, 5, 77, 0
7, 95750, Note_on_c, 5, 74, 75
7, 95788, Note_on_c, 5, 74, 0
7, 95840, Note_on_c, 5, 74, 74
7, 95886, Note_on_c, 5, 74, 0
7, 95946, Note_on_c, 5, 86, 91
7, 95992, Note_on_c, 5, 86, 0
7, 96034, Note_on_c, 5, 86, 74
7, 96082, Note_on_c, 5, 86, 0
7, 96136, Note_on_c, 5, 81, 88
7, 96174, Note_on_c, 5, 81, 0
7, 96228, Note_on_c, 5, 81, 80
7, 96276, Note_on_c, 5, 81, 0
7, 96340, Note_on_c, 5, 77, 88
7, 96376, Note_on_c, 5, 77, 0
7, 96434, Note_on_c, 5, 77, 74
7, 96472, Note_on_c, 5, 77, 0
7, 96520, Note_on_c, 5, 74, 81
7, 96560, Note_on_c, 5, 74, 0
7, 96604, Note_on_c, 5, 74, 71
7, 96652, Note_on_c, 5, 74, 0
7, 96716, Note_on_c, 5, 86, 84
7, 96748, Note_on_c, 5, 86, 0
7, 96796, Note_on_c, 5, 86, 74
7, 96840, Note_on_c, 5, 86, 0
7, 96906, Note_on_c, 5, 82, 89
7, 96944, Note_on_c, 5, 82, 0
7, 96996, Note_on_c, 5, 82, 84
7, 97046, Note_on_c, 5, 82, 0
7, 97100, Note_on_c, 5, 77, 85
7, 97134, Note_on_c, 5, 77, 0
7, 97186, Note_on_c, 5, 77, 75
7, 97238, Note_on_c, 5, 77, 0
7, 97286, Note_on_c, 5, 74, 80
7, 97326, Note_on_c, 5, 74, 0
7, 97380, Note_on_c, 5, 74, 74
7, 97432, Note_on_c, 5, 74, 0
7, 97486, Note_on_c, 5, 86, 84
7, 97522, Note_on_c, 5, 86, 0
7, 97572, Note_on_c, 5, 86, 75
7, 97622, Note_on_c, 5, 86, 0
7, 97668, Note_on_c, 5, 82, 83
7, 97706, Note_on_c, 5, 82, 0
7, 97760, Note_on_c, 5, 82, 82
7, 97806, Note_on_c, 5, 82, 0
7, 97876, Note_on_c, 5, 77, 89
7, 97912, Note_on_c, 5, 77, 0
7, 97962, Note_on_c, 5, 77, 75
7, 98008, Note_on_c, 5, 77, 0
7, 98054, Note_on_c, 5, 74, 82
7, 98096, Note_on_c, 5, 74, 0
7, 98152, Note_on_c, 5, 74, 65
7, 98198, Note_on_c, 5, 74, 0
7, 98262, Note_on_c, 5, 87, 81
7, 98304, Note_on_c, 5, 87, 0
7, 98350, Note_on_c, 5, 87, 71
7, 98410, Note_on_c, 5, 87, 0
7, 98452, Note_on_c, 5, 82, 84
7, 98500, Note_on_c, 5, 82, 0
7, 98542, Note_on_c, 5, 82, 69
7, 98608, Note_on_c, 5, 82, 0
7, 98652, Note_on_c, 5, 79, 80
7, 98700, Note_on_c, 5, 79, 0
7, 98738, Note_on_c, 5, 79, 66
7, 98798, Note_on_c, 5, 79, 0
7, 98840, Note_on_c, 5, 75, 77
7, 98882, Note_on_c, 5, 75, 0
7, 98926, Note_on_c, 5, 75, 69
7, 98984, Note_on_c, 5, 75, 0
7, 99026, Note_on_c, 5, 82, 84
7, 99076, Note_on_c, 5, 82, 0
7, 99112, Note_on_c, 5, 82, 69
7, 99180, Note_on_c, 5, 82, 0
7, 99210, Note_on_c, 5, 79, 76
7, 99252, Note_on_c, 5, 79, 0
7, 99294, Note_on_c, 5, 79, 67
7, 99352, Note_on_c, 5, 79, 0
7, 99404, Note_on_c, 5, 75, 86
7, 99446, Note_on_c, 5, 75, 0
7, 99498, Note_on_c, 5, 75, 71
7, 99550, Note_on_c, 5, 75, 0
7, 99594, Note_on_c, 5, 74, 77
7, 99636, Note_on_c, 5, 74, 0
7, 99680, Note_on_c, 5, 74, 71
7, 99734, Note_on_c, 5, 74, 0
7, 99794, Note_on_c, 5, 73, 79
7, 99828, Note_on_c, 5, 73, 0
7, 99876, Note_on_c, 5, 73, 71
7, 99934, Note_on_c, 5, 73, 0
7, 99976, Note_on_c, 5, 79, 78
7, 100024, Note_on_c, 5, 79, 0
7, 100066, Note_on_c, 5, 79, 71
7, 100120, Note_on_c, 5, 79, 0
7, 100176, Note_on_c, 5, 77, 78
7, 100216, Note_on_c, 5, 77, 0
7, 100272, Note_on_c, 5, 77, 74
7, 100342, Note_on_c, 5, 77, 0
7, 100368, Note_on_c, 5, 86, 61
7, 100408, Note_on_c, 5, 86, 0
7, 100456, Note_on_c, 5, 86, 71
7, 100536, Note_on_c, 5, 86, 0
7, 100558, Note_on_c, 5, 76, 78
7, 100596, Note_on_c, 5, 76, 0
7, 100652, Note_on_c, 5, 76, 73
7, 100696, Note_on_c, 5, 76, 0
7, 100740, Note_on_c, 5, 86, 81
7, 100778, Note_on_c, 5, 86, 0
7, 100832, Note_on_c, 5, 86, 80
7, 100912, Note_on_c, 5, 86, 0
7, 100956, Note_on_c, 5, 69, 88
7, 100998, Note_on_c, 5, 69, 0
7, 101040, Note_on_c, 5, 69, 82
7, 101086, Note_on_c, 5, 69, 0
7, 101134, Note_on_c, 5, 85, 86
7, 101174, Note_on_c, 5, 85, 0
7, 101220, Note_on_c, 5, 85, 77
7, 101278, Note_on_c, 5, 85, 0
7, 101332, Note_on_c, 5, 74, 105
7, 101432, Note_on_c, 5, 74, 0
7, 101732, Note_on_c, 5, 65, 105
7, 101780, Note_on_c, 5, 65, 0
7, 101820, Note_on_c, 5, 65, 103
7, 101874, Note_on_c, 5, 65, 0
7, 101920, Note_on_c, 5, 64, 103
7, 101958, Note_on_c, 5, 64, 0
7, 102008, Note_on_c, 5, 64, 101
7, 102052, Note_on_c, 5, 64, 0
7, 102120, Note_on_c, 5, 62, 97
7, 102154, Note_on_c, 5, 62, 0
7, 102210, Note_on_c, 5, 62, 97
7, 102244, Note_on_c, 5, 62, 0
7, 102290, Note_on_c, 5, 62, 97
7, 102338, Note_on_c, 5, 62, 0
7, 102374, Note_on_c, 5, 62, 97
7, 102424, Note_on_c, 5, 62, 0
7, 102476, Note_on_c, 5, 64, 93
7, 102512, Note_on_c, 5, 64, 0
7, 102562, Note_on_c, 5, 64, 91
7, 102600, Note_on_c, 5, 64, 0
7, 102664, Note_on_c, 5, 65, 97
7, 102702, Note_on_c, 5, 65, 0
7, 102756, Note_on_c, 5, 65, 99
7, 102796, Note_on_c, 5, 65, 0
7, 102860, Note_on_c, 5, 64, 101
7, 102892, Note_on_c, 5, 64, 0
7, 102938, Note_on_c, 5, 64, 85
7, 102982, Note_on_c, 5, 64, 0
7, 103038, Note_on_c, 5, 62, 95
7, 103082, Note_on_c, 5, 62, 0
7, 103136, Note_on_c, 5, 62, 99
7, 103180, Note_on_c, 5, 62, 0
7, 103246, Note_on_c, 5, 70, 101
7, 103292, Note_on_c, 5, 70, 0
7, 103330, Note_on_c, 5, 70, 101
7, 103386, Note_on_c, 5, 70, 0
7, 103430, Note_on_c, 5, 69, 99
7, 103468, Note_on_c, 5, 69, 0
7, 103516, Note_on_c, 5, 69, 103
7, 103566, Note_on_c, 5, 69, 0
7, 103618, Note_on_c, 5, 67, 105
7, 103652, Note_on_c, 5, 67, 0
7, 103706, Note_on_c, 5, 67, 101
7, 103750, Note_on_c, 5, 67, 0
7, 103810, Note_on_c, 5, 65, 101
7, 103844, Note_on_c, 5, 65, 0
7, 103904, Note_on_c, 5, 65, 107
7, 103942, Note_on_c, 5, 65, 0
7, 104008, Note_on_c, 5, 64, 97
7, 104052, Note_on_c, 5, 64, 0
7, 104096, Note_on_c, 5, 64, 101
7, 104144, Note_on_c, 5, 64, 0
7, 104204, Note_on_c, 5, 73, 101
7, 104250, Note_on_c, 5, 73, 0
7, 104294, Note_on_c, 5, 73, 105
7, 104342, Note_on_c, 5, 73, 0
7, 104398, Note_on_c, 5, 74, 105
7, 104448, Note_on_c, 5, 74, 0
7, 104494, Note_on_c, 5, 74, 101
7, 104538, Note_on_c, 5, 74, 0
7, 104590, Note_on_c, 5, 74, 105
7, 104632, Note_on_c, 5, 74, 0
7, 104682, Note_on_c, 5, 74, 105
7, 104728, Note_on_c, 5, 74, 0
7, 104790, Note_on_c, 5, 74, 99
7, 104828, Note_on_c, 5, 74, 0
7, 104880, Note_on_c, 5, 74, 103
7, 104920, Note_on_c, 5, 74, 0
7, 104964, Note_on_c, 5, 74, 91
7, 105010, Note_on_c, 5, 74, 0
7, 105052, Note_on_c, 5, 74, 107
7, 105102, Note_on_c, 5, 74, 0
7, 105158, Note_on_c, 5, 74, 105
7, 105188, Note_on_c, 5, 74, 0
7, 105238, Note_on_c, 5, 74, 109
7, 105288, Note_on_c, 5, 74, 0
7, 105348, Note_on_c, 5, 77, 111
7, 105392, Note_on_c, 5, 77, 0
7, 105448, Note_on_c, 5, 77, 109
7, 105506, Note_on_c, 5, 77, 0
7, 105546, Note_on_c, 5, 73, 107
7, 105584, Note_on_c, 5, 73, 0
7, 105636, Note_on_c, 5, 73, 107
7, 105684, Note_on_c, 5, 73, 0
7, 105732, Note_on_c, 5, 76, 105
7, 105772, Note_on_c, 5, 76, 0
7, 105826, Note_on_c, 5, 76, 109
7, 105882, Note_on_c, 5, 76, 0
7, 105948, Note_on_c, 5, 74, 113
7, 106206, Note_on_c, 5, 74, 0
7, 106386, Note_on_c, 5, 62, 113
7, 106666, Note_on_c, 5, 62, 0
7, 106666, End_track
8, 0, Start_track
8, 0, Title_t, "vle"
8, 396, Program_c, 6, 48
8, 397, Control_c, 6, 7, 119
8, 397, Control_c, 6, 10, 68
8, 480, Control_c, 6, 91, 120
8, 3070, Note_on_c, 6, 57, 88
8, 3114, Note_on_c, 6, 57, 0
8, 3166, Note_on_c, 6, 62, 74
8, 3206, Note_on_c, 6, 62, 0
8, 3260, Note_on_c, 6, 62, 72
8, 3294, Note_on_c, 6, 62, 0
8, 3348, Note_on_c, 6, 62, 76
8, 3382, Note_on_c, 6, 62, 0
8, 3450, Note_on_c, 6, 62, 81
8, 3486, Note_on_c, 6, 62, 0
8, 3534, Note_on_c, 6, 62, 73
8, 3572, Note_on_c, 6, 62, 0
8, 3612, Note_on_c, 6, 62, 76
8, 3662, Note_on_c, 6, 62, 0
8, 3704, Note_on_c, 6, 62, 79
8, 3756, Note_on_c, 6, 62, 0
8, 3808, Note_on_c, 6, 57, 108
8, 3846, Note_on_c, 6, 57, 0
8, 3934, Note_on_c, 6, 62, 80
8, 3972, Note_on_c, 6, 62, 0
8, 4024, Note_on_c, 6, 62, 77
8, 4058, Note_on_c, 6, 62, 0
8, 4110, Note_on_c, 6, 62, 80
8, 4142, Note_on_c, 6, 62, 0
8, 4218, Note_on_c, 6, 62, 89
8, 4250, Note_on_c, 6, 62, 0
8, 4318, Note_on_c, 6, 62, 87
8, 4350, Note_on_c, 6, 62, 0
8, 4396, Note_on_c, 6, 62, 78
8, 4434, Note_on_c, 6, 62, 0
8, 4478, Note_on_c, 6, 62, 80
8, 4516, Note_on_c, 6, 62, 0
8, 4564, Note_on_c, 6, 57, 108
8, 4590, Note_on_c, 6, 57, 0
8, 4776, Note_on_c, 6, 64, 103
8, 5042, Note_on_c, 6, 64, 0
8, 5150, Note_on_c, 6, 64, 88
8, 5464, Note_on_c, 6, 64, 0
8, 5530, Note_on_c, 6, 64, 80
8, 5808, Note_on_c, 6, 64, 0
8, 5898, Note_on_c, 6, 64, 74
8, 5978, Note_on_c, 6, 64, 0
8, 6088, Note_on_c, 6, 57, 87
8, 6126, Note_on_c, 6, 57, 0
8, 6172, Note_on_c, 6, 57, 75
8, 6214, Note_on_c, 6, 57, 0
8, 6278, Note_on_c, 6, 57, 79
8, 6310, Note_on_c, 6, 57, 0
8, 6372, Note_on_c, 6, 57, 90
8, 6410, Note_on_c, 6, 57, 0
8, 6474, Note_on_c, 6, 57, 82
8, 6508, Note_on_c, 6, 57, 0
8, 6574, Note_on_c, 6, 57, 82
8, 6588, Note_on_c, 6, 57, 0
8, 6670, Note_on_c, 6, 57, 77
8, 6702, Note_on_c, 6, 57, 0
8, 6772, Note_on_c, 6, 57, 88
8, 6804, Note_on_c, 6, 57, 0
8, 6872, Note_on_c, 6, 57, 87
8, 6904, Note_on_c, 6, 57, 0
8, 6966, Note_on_c, 6, 57, 89
8, 7002, Note_on_c, 6, 57, 0
8, 7066, Note_on_c, 6, 57, 82
8, 7092, Note_on_c, 6, 57, 0
8, 7160, Note_on_c, 6, 57, 85
8, 7194, Note_on_c, 6, 57, 0
8, 7280, Note_on_c, 6, 57, 88
8, 7314, Note_on_c, 6, 57, 0
8, 7384, Note_on_c, 6, 57, 81
8, 7406, Note_on_c, 6, 57, 0
8, 7472, Note_on_c, 6, 57, 78
8, 7494, Note_on_c, 6, 57, 0
8, 7548, Note_on_c, 6, 57, 82
8, 7586, Note_on_c, 6, 57, 0
8, 7648, Note_on_c, 6, 57, 85
8, 7688, Note_on_c, 6, 57, 0
8, 7844, Note_on_c, 6, 62, 94
8, 8094, Note_on_c, 6, 62, 0
8, 8218, Note_on_c, 6, 62, 92
8, 8468, Note_on_c, 6, 62, 0
8, 8586, Note_on_c, 6, 62, 89
8, 8844, Note_on_c, 6, 62, 0
8, 8964, Note_on_c, 6, 62, 85
8, 9018, Note_on_c, 6, 62, 0
8, 9158, Note_on_c, 6, 58, 90
8, 9434, Note_on_c, 6, 58, 0
8, 9558, Note_on_c, 6, 57, 85
8, 9594, Note_on_c, 6, 57, 0
8, 9750, Note_on_c, 6, 57, 91
8, 9784, Note_on_c, 6, 57, 0
8, 9942, Note_on_c, 6, 57, 85
8, 9994, Note_on_c, 6, 57, 0
8, 10144, Note_on_c, 6, 62, 90
8, 10404, Note_on_c, 6, 62, 0
8, 10520, Note_on_c, 6, 65, 85
8, 10570, Note_on_c, 6, 65, 0
8, 10718, Note_on_c, 6, 64, 95
8, 10976, Note_on_c, 6, 64, 0
8, 11108, Note_on_c, 6, 65, 82
8, 11146, Note_on_c, 6, 65, 0
8, 11282, Note_on_c, 6, 65, 80
8, 11322, Note_on_c, 6, 65, 0
8, 11470, Note_on_c, 6, 65, 83
8, 11506, Note_on_c, 6, 65, 0
8, 11674, Note_on_c, 6, 65, 92
8, 11920, Note_on_c, 6, 65, 0
8, 12042, Note_on_c, 6, 65, 80
8, 12128, Note_on_c, 6, 65, 0
8, 12262, Note_on_c, 6, 62, 88
8, 12342, Note_on_c, 6, 62, 0
8, 12448, Note_on_c, 6, 62, 91
8, 12516, Note_on_c, 6, 62, 0
8, 12632, Note_on_c, 6, 62, 90
8, 12702, Note_on_c, 6, 62, 0
8, 12812, Note_on_c, 6, 62, 89
8, 12868, Note_on_c, 6, 62, 0
8, 13010, Note_on_c, 6, 61, 86
8, 13108, Note_on_c, 6, 61, 0
8, 13186, Note_on_c, 6, 64, 80
8, 13294, Note_on_c, 6, 64, 0
8, 13384, Note_on_c, 6, 65, 89
8, 13474, Note_on_c, 6, 65, 0
8, 13572, Note_on_c, 6, 69, 85
8, 13662, Note_on_c, 6, 69, 0
8, 13772, Note_on_c, 6, 69, 92
8, 13840, Note_on_c, 6, 69, 0
8, 13954, Note_on_c, 6, 57, 83
8, 14010, Note_on_c, 6, 57, 0
8, 14160, Note_on_c, 6, 57, 87
8, 14196, Note_on_c, 6, 57, 0
8, 14360, Note_on_c, 6, 57, 94
8, 14396, Note_on_c, 6, 57, 0
8, 14556, Note_on_c, 6, 57, 95
8, 14588, Note_on_c, 6, 57, 0
8, 14742, Note_on_c, 6, 57, 95
8, 14776, Note_on_c, 6, 57, 0
8, 14924, Note_on_c, 6, 57, 89
8, 14960, Note_on_c, 6, 57, 0
8, 15106, Note_on_c, 6, 57, 87
8, 15154, Note_on_c, 6, 57, 0
8, 15308, Note_on_c, 6, 57, 91
8, 15360, Note_on_c, 6, 57, 0
8, 15498, Note_on_c, 6, 57, 90
8, 15570, Note_on_c, 6, 57, 0
8, 15704, Note_on_c, 6, 58, 92
8, 15790, Note_on_c, 6, 58, 0
8, 15886, Note_on_c, 6, 59, 92
8, 15994, Note_on_c, 6, 59, 0
8, 16074, Note_on_c, 6, 60, 91
8, 16166, Note_on_c, 6, 60, 0
8, 16256, Note_on_c, 6, 65, 88
8, 16356, Note_on_c, 6, 65, 0
8, 16452, Note_on_c, 6, 65, 94
8, 16560, Note_on_c, 6, 65, 0
8, 16666, Note_on_c, 6, 67, 85
8, 16822, Note_on_c, 6, 67, 0
8, 16862, Note_on_c, 6, 60, 90
8, 16930, Note_on_c, 6, 60, 0
8, 16974, Note_on_c, 6, 65, 83
8, 17010, Note_on_c, 6, 65, 0
8, 17074, Note_on_c, 6, 65, 72
8, 17102, Note_on_c, 6, 65, 0
8, 17160, Note_on_c, 6, 65, 75
8, 17196, Note_on_c, 6, 65, 0
8, 17260, Note_on_c, 6, 65, 79
8, 17298, Note_on_c, 6, 65, 0
8, 17350, Note_on_c, 6, 65, 75
8, 17390, Note_on_c, 6, 65, 0
8, 17432, Note_on_c, 6, 65, 73
8, 17472, Note_on_c, 6, 65, 0
8, 17514, Note_on_c, 6, 65, 77
8, 17572, Note_on_c, 6, 65, 0
8, 17624, Note_on_c, 6, 60, 84
8, 17676, Note_on_c, 6, 60, 0
8, 17722, Note_on_c, 6, 65, 78
8, 17760, Note_on_c, 6, 65, 0
8, 17818, Note_on_c, 6, 65, 79
8, 17850, Note_on_c, 6, 65, 0
8, 17914, Note_on_c, 6, 65, 81
8, 17948, Note_on_c, 6, 65, 0
8, 18014, Note_on_c, 6, 65, 85
8, 18046, Note_on_c, 6, 65, 0
8, 18106, Note_on_c, 6, 65, 80
8, 18140, Note_on_c, 6, 65, 0
8, 18200, Note_on_c, 6, 65, 79
8, 18234, Note_on_c, 6, 65, 0
8, 18282, Note_on_c, 6, 65, 74
8, 18316, Note_on_c, 6, 65, 0
8, 18390, Note_on_c, 6, 65, 89
8, 18436, Note_on_c, 6, 65, 0
8, 18488, Note_on_c, 6, 65, 76
8, 18524, Note_on_c, 6, 65, 0
8, 18586, Note_on_c, 6, 65, 82
8, 18620, Note_on_c, 6, 65, 0
8, 18676, Note_on_c, 6, 65, 78
8, 18714, Note_on_c, 6, 65, 0
8, 18784, Note_on_c, 6, 65, 82
8, 18816, Note_on_c, 6, 65, 0
8, 18872, Note_on_c, 6, 65, 79
8, 18906, Note_on_c, 6, 65, 0
8, 18972, Note_on_c, 6, 65, 80
8, 19008, Note_on_c, 6, 65, 0
8, 19058, Note_on_c, 6, 65, 74
8, 19096, Note_on_c, 6, 65, 0
8, 19166, Note_on_c, 6, 65, 88
8, 19200, Note_on_c, 6, 65, 0
8, 19254, Note_on_c, 6, 65, 75
8, 19292, Note_on_c, 6, 65, 0
8, 19340, Note_on_c, 6, 65, 71
8, 19378, Note_on_c, 6, 65, 0
8, 19422, Note_on_c, 6, 65, 73
8, 19466, Note_on_c, 6, 65, 0
8, 19566, Note_on_c, 6, 60, 85
8, 19602, Note_on_c, 6, 60, 0
8, 19656, Note_on_c, 6, 60, 80
8, 19688, Note_on_c, 6, 60, 0
8, 19738, Note_on_c, 6, 60, 75
8, 19774, Note_on_c, 6, 60, 0
8, 19820, Note_on_c, 6, 60, 79
8, 19880, Note_on_c, 6, 60, 0
8, 19924, Note_on_c, 6, 57, 84
8, 19968, Note_on_c, 6, 57, 0
8, 20026, Note_on_c, 6, 57, 89
8, 20058, Note_on_c, 6, 57, 0
8, 20118, Note_on_c, 6, 57, 89
8, 20150, Note_on_c, 6, 57, 0
8, 20204, Note_on_c, 6, 57, 88
8, 20262, Note_on_c, 6, 57, 0
8, 20338, Note_on_c, 6, 54, 86
8, 20382, Note_on_c, 6, 54, 0
8, 20436, Note_on_c, 6, 54, 78
8, 20448, Note_on_c, 6, 56, 49
8, 20468, Note_on_c, 6, 56, 0
8, 20478, Note_on_c, 6, 54, 0
8, 20518, Note_on_c, 6, 54, 71
8, 20536, Note_on_c, 6, 56, 40
8, 20554, Note_on_c, 6, 56, 0
8, 20560, Note_on_c, 6, 54, 0
8, 20598, Note_on_c, 6, 54, 72
8, 20652, Note_on_c, 6, 54, 0
8, 20702, Note_on_c, 6, 57, 84
8, 20752, Note_on_c, 6, 57, 0
8, 20794, Note_on_c, 6, 57, 81
8, 20842, Note_on_c, 6, 57, 0
8, 20886, Note_on_c, 6, 57, 81
8, 20922, Note_on_c, 6, 57, 0
8, 20974, Note_on_c, 6, 57, 74
8, 21016, Note_on_c, 6, 57, 0
8, 21086, Note_on_c, 6, 60, 87
8, 21124, Note_on_c, 6, 60, 0
8, 21178, Note_on_c, 6, 60, 80
8, 21212, Note_on_c, 6, 60, 0
8, 21264, Note_on_c, 6, 60, 75
8, 21298, Note_on_c, 6, 60, 0
8, 21346, Note_on_c, 6, 60, 76
8, 21392, Note_on_c, 6, 60, 0
8, 21460, Note_on_c, 6, 60, 94
8, 21500, Note_on_c, 6, 60, 0
8, 21548, Note_on_c, 6, 60, 77
8, 21586, Note_on_c, 6, 60, 0
8, 21640, Note_on_c, 6, 60, 80
8, 21676, Note_on_c, 6, 60, 0
8, 21734, Note_on_c, 6, 60, 81
8, 21772, Note_on_c, 6, 60, 0
8, 21848, Note_on_c, 6, 60, 85
8, 21886, Note_on_c, 6, 60, 0
8, 21942, Note_on_c, 6, 60, 82
8, 21986, Note_on_c, 6, 60, 0
8, 22026, Note_on_c, 6, 60, 75
8, 22076, Note_on_c, 6, 60, 0
8, 22118, Note_on_c, 6, 60, 74
8, 22168, Note_on_c, 6, 60, 0
8, 22234, Note_on_c, 6, 59, 90
8, 22278, Note_on_c, 6, 59, 0
8, 22338, Note_on_c, 6, 59, 79
8, 22374, Note_on_c, 6, 59, 0
8, 22428, Note_on_c, 6, 59, 74
8, 22470, Note_on_c, 6, 59, 0
8, 22518, Note_on_c, 6, 59, 75
8, 22564, Note_on_c, 6, 59, 0
8, 22618, Note_on_c, 6, 59, 80
8, 22660, Note_on_c, 6, 59, 0
8, 22706, Note_on_c, 6, 59, 78
8, 22754, Note_on_c, 6, 59, 0
8, 22796, Note_on_c, 6, 59, 78
8, 22840, Note_on_c, 6, 59, 0
8, 22890, Note_on_c, 6, 59, 76
8, 22940, Note_on_c, 6, 59, 0
8, 23006, Note_on_c, 6, 67, 91
8, 23052, Note_on_c, 6, 67, 0
8, 23102, Note_on_c, 6, 67, 85
8, 23148, Note_on_c, 6, 67, 0
8, 23198, Note_on_c, 6, 67, 81
8, 23244, Note_on_c, 6, 67, 0
8, 23286, Note_on_c, 6, 67, 79
8, 23330, Note_on_c, 6, 67, 0
8, 23384, Note_on_c, 6, 67, 82
8, 23430, Note_on_c, 6, 67, 0
8, 23476, Note_on_c, 6, 67, 77
8, 23512, Note_on_c, 6, 67, 0
8, 23570, Note_on_c, 6, 67, 81
8, 23606, Note_on_c, 6, 67, 0
8, 23658, Note_on_c, 6, 67, 78
8, 23704, Note_on_c, 6, 67, 0
8, 23764, Note_on_c, 6, 67, 82
8, 23800, Note_on_c, 6, 67, 0
8, 23852, Note_on_c, 6, 67, 80
8, 23896, Note_on_c, 6, 67, 0
8, 23934, Note_on_c, 6, 67, 81
8, 23974, Note_on_c, 6, 67, 0
8, 24016, Note_on_c, 6, 67, 83
8, 24092, Note_on_c, 6, 67, 0
8, 24152, Note_on_c, 6, 62, 88
8, 24198, Note_on_c, 6, 62, 0
8, 24242, Note_on_c, 6, 62, 76
8, 24278, Note_on_c, 6, 62, 0
8, 24336, Note_on_c, 6, 62, 87
8, 24370, Note_on_c, 6, 62, 0
8, 24424, Note_on_c, 6, 62, 80
8, 24476, Note_on_c, 6, 62, 0
8, 24530, Note_on_c, 6, 59, 88
8, 24566, Note_on_c, 6, 59, 0
8, 24622, Note_on_c, 6, 59, 85
8, 24654, Note_on_c, 6, 59, 0
8, 24708, Note_on_c, 6, 59, 79
8, 24742, Note_on_c, 6, 59, 0
8, 24794, Note_on_c, 6, 59, 80
8, 24828, Note_on_c, 6, 59, 0
8, 24902, Note_on_c, 6, 56, 87
8, 24944, Note_on_c, 6, 56, 0
8, 25000, Note_on_c, 6, 56, 77
8, 25042, Note_on_c, 6, 56, 0
8, 25084, Note_on_c, 6, 56, 71
8, 25130, Note_on_c, 6, 56, 0
8, 25168, Note_on_c, 6, 56, 71
8, 25190, Note_on_c, 6, 58, 34
8, 25208, Note_on_c, 6, 58, 0
8, 25228, Note_on_c, 6, 56, 0
8, 25298, Note_on_c, 6, 59, 85
8, 25344, Note_on_c, 6, 59, 0
8, 25386, Note_on_c, 6, 59, 76
8, 25432, Note_on_c, 6, 59, 0
8, 25484, Note_on_c, 6, 59, 74
8, 25522, Note_on_c, 6, 59, 0
8, 25572, Note_on_c, 6, 59, 70
8, 25618, Note_on_c, 6, 59, 0
8, 25686, Note_on_c, 6, 62, 87
8, 25724, Note_on_c, 6, 62, 0
8, 25776, Note_on_c, 6, 62, 74
8, 25812, Note_on_c, 6, 62, 0
8, 25866, Note_on_c, 6, 62, 70
8, 25888, Note_on_c, 6, 62, 0
8, 25948, Note_on_c, 6, 62, 47
8, 25976, Note_on_c, 6, 62, 0
8, 26072, Note_on_c, 6, 60, 81
8, 26120, Note_on_c, 6, 60, 0
8, 26160, Note_on_c, 6, 69, 80
8, 26196, Note_on_c, 6, 69, 0
8, 26244, Note_on_c, 6, 69, 81
8, 26278, Note_on_c, 6, 69, 0
8, 26328, Note_on_c, 6, 69, 80
8, 26368, Note_on_c, 6, 69, 0
8, 26432, Note_on_c, 6, 69, 88
8, 26468, Note_on_c, 6, 69, 0
8, 26524, Note_on_c, 6, 69, 84
8, 26562, Note_on_c, 6, 69, 0
8, 26610, Note_on_c, 6, 69, 76
8, 26646, Note_on_c, 6, 69, 0
8, 26698, Note_on_c, 6, 69, 81
8, 26736, Note_on_c, 6, 69, 0
8, 26828, Note_on_c, 6, 62, 85
8, 26878, Note_on_c, 6, 62, 0
8, 26922, Note_on_c, 6, 68, 81
8, 26962, Note_on_c, 6, 68, 0
8, 27014, Note_on_c, 6, 68, 81
8, 27056, Note_on_c, 6, 68, 0
8, 27106, Note_on_c, 6, 68, 78
8, 27148, Note_on_c, 6, 68, 0
8, 27212, Note_on_c, 6, 68, 86
8, 27252, Note_on_c, 6, 68, 0
8, 27312, Note_on_c, 6, 68, 87
8, 27352, Note_on_c, 6, 68, 0
8, 27404, Note_on_c, 6, 68, 78
8, 27444, Note_on_c, 6, 68, 0
8, 27490, Note_on_c, 6, 68, 71
8, 27538, Note_on_c, 6, 68, 0
8, 27602, Note_on_c, 6, 64, 82
8, 27652, Note_on_c, 6, 64, 0
8, 27708, Note_on_c, 6, 69, 80
8, 27744, Note_on_c, 6, 69, 0
8, 27806, Note_on_c, 6, 69, 82
8, 27840, Note_on_c, 6, 69, 0
8, 27900, Note_on_c, 6, 69, 80
8, 27938, Note_on_c, 6, 69, 0
8, 28006, Note_on_c, 6, 69, 82
8, 28042, Note_on_c, 6, 69, 0
8, 28102, Note_on_c, 6, 69, 82
8, 28138, Note_on_c, 6, 69, 0
8, 28182, Note_on_c, 6, 69, 78
8, 28218, Note_on_c, 6, 69, 0
8, 28258, Note_on_c, 6, 69, 75
8, 28318, Note_on_c, 6, 69, 0
8, 28372, Note_on_c, 6, 62, 74
8, 28420, Note_on_c, 6, 62, 0
8, 28472, Note_on_c, 6, 65, 82
8, 28508, Note_on_c, 6, 65, 0
8, 28566, Note_on_c, 6, 65, 80
8, 28600, Note_on_c, 6, 65, 0
8, 28656, Note_on_c, 6, 65, 76
8, 28688, Note_on_c, 6, 65, 0
8, 28762, Note_on_c, 6, 65, 87
8, 28796, Note_on_c, 6, 65, 0
8, 28854, Note_on_c, 6, 65, 76
8, 28890, Note_on_c, 6, 65, 0
8, 28934, Note_on_c, 6, 65, 71
8, 28974, Note_on_c, 6, 65, 0
8, 29018, Note_on_c, 6, 65, 74
8, 29066, Note_on_c, 6, 65, 0
8, 29144, Note_on_c, 6, 59, 80
8, 29182, Note_on_c, 6, 59, 0
8, 29226, Note_on_c, 6, 59, 71
8, 29266, Note_on_c, 6, 59, 0
8, 29332, Note_on_c, 6, 62, 83
8, 29368, Note_on_c, 6, 62, 0
8, 29416, Note_on_c, 6, 62, 77
8, 29466, Note_on_c, 6, 62, 0
8, 29518, Note_on_c, 6, 60, 88
8, 29556, Note_on_c, 6, 60, 0
8, 29602, Note_on_c, 6, 60, 76
8, 29642, Note_on_c, 6, 60, 0
8, 29712, Note_on_c, 6, 64, 85
8, 29748, Note_on_c, 6, 64, 0
8, 29798, Note_on_c, 6, 64, 72
8, 29836, Note_on_c, 6, 64, 0
8, 29914, Note_on_c, 6, 64, 94
8, 29958, Note_on_c, 6, 64, 0
8, 30008, Note_on_c, 6, 64, 79
8, 30044, Note_on_c, 6, 64, 0
8, 30106, Note_on_c, 6, 64, 80
8, 30138, Note_on_c, 6, 64, 0
8, 30192, Note_on_c, 6, 64, 78
8, 30232, Note_on_c, 6, 64, 0
8, 30298, Note_on_c, 6, 64, 82
8, 30330, Note_on_c, 6, 64, 0
8, 30392, Note_on_c, 6, 64, 79
8, 30428, Note_on_c, 6, 64, 0
8, 30476, Note_on_c, 6, 64, 73
8, 30512, Note_on_c, 6, 64, 0
8, 30560, Note_on_c, 6, 64, 76
8, 30616, Note_on_c, 6, 64, 0
8, 30664, Note_on_c, 6, 57, 96
8, 30776, Note_on_c, 6, 57, 0
8, 31658, Note_on_c, 6, 64, 94
8, 31728, Note_on_c, 6, 64, 0
8, 31838, Note_on_c, 6, 66, 91
8, 31906, Note_on_c, 6, 66, 0
8, 32030, Note_on_c, 6, 63, 89
8, 32104, Note_on_c, 6, 63, 0
8, 32210, Note_on_c, 6, 64, 82
8, 32308, Note_on_c, 6, 64, 0
8, 32406, Note_on_c, 6, 65, 88
8, 32492, Note_on_c, 6, 65, 0
8, 32600, Note_on_c, 6, 62, 76
8, 32682, Note_on_c, 6, 62, 0
8, 32790, Note_on_c, 6, 69, 79
8, 32882, Note_on_c, 6, 69, 0
8, 32994, Note_on_c, 6, 59, 81
8, 33102, Note_on_c, 6, 59, 0
8, 33188, Note_on_c, 6, 65, 77
8, 33282, Note_on_c, 6, 65, 0
8, 33368, Note_on_c, 6, 56, 82
8, 33450, Note_on_c, 6, 56, 0
8, 33574, Note_on_c, 6, 64, 80
8, 33670, Note_on_c, 6, 64, 0
8, 33766, Note_on_c, 6, 64, 91
8, 33852, Note_on_c, 6, 64, 0
8, 33956, Note_on_c, 6, 64, 88
8, 34018, Note_on_c, 6, 64, 0
8, 34138, Note_on_c, 6, 65, 88
8, 34214, Note_on_c, 6, 65, 0
8, 34336, Note_on_c, 6, 65, 83
8, 34414, Note_on_c, 6, 65, 0
8, 34536, Note_on_c, 6, 64, 90
8, 34594, Note_on_c, 6, 64, 0
8, 34718, Note_on_c, 6, 62, 75
8, 34754, Note_on_c, 6, 62, 0
8, 34912, Note_on_c, 6, 64, 84
8, 34970, Note_on_c, 6, 64, 0
8, 35106, Note_on_c, 6, 52, 79
8, 35174, Note_on_c, 6, 52, 0
8, 35298, Note_on_c, 6, 60, 92
8, 35358, Note_on_c, 6, 60, 0
8, 35388, Note_on_c, 6, 64, 70
8, 35430, Note_on_c, 6, 64, 0
8, 35486, Note_on_c, 6, 64, 74
8, 35526, Note_on_c, 6, 64, 0
8, 35574, Note_on_c, 6, 64, 73
8, 35620, Note_on_c, 6, 64, 0
8, 35686, Note_on_c, 6, 64, 79
8, 35724, Note_on_c, 6, 64, 0
8, 35784, Note_on_c, 6, 64, 71
8, 35824, Note_on_c, 6, 64, 0
8, 35872, Note_on_c, 6, 64, 67
8, 35912, Note_on_c, 6, 64, 0
8, 35958, Note_on_c, 6, 64, 73
8, 36010, Note_on_c, 6, 64, 0
8, 36064, Note_on_c, 6, 60, 84
8, 36104, Note_on_c, 6, 60, 0
8, 36164, Note_on_c, 6, 64, 79
8, 36202, Note_on_c, 6, 64, 0
8, 36258, Note_on_c, 6, 64, 74
8, 36292, Note_on_c, 6, 64, 0
8, 36346, Note_on_c, 6, 64, 75
8, 36382, Note_on_c, 6, 64, 0
8, 36446, Note_on_c, 6, 64, 87
8, 36478, Note_on_c, 6, 64, 0
8, 36536, Note_on_c, 6, 64, 83
8, 36568, Note_on_c, 6, 64, 0
8, 36622, Note_on_c, 6, 64, 77
8, 36658, Note_on_c, 6, 64, 0
8, 36704, Note_on_c, 6, 64, 76
8, 36752, Note_on_c, 6, 64, 0
8, 36810, Note_on_c, 6, 62, 82
8, 36844, Note_on_c, 6, 62, 0
8, 37008, Note_on_c, 6, 62, 83
8, 37290, Note_on_c, 6, 62, 0
8, 37404, Note_on_c, 6, 62, 82
8, 37650, Note_on_c, 6, 62, 0
8, 37792, Note_on_c, 6, 62, 80
8, 37996, Note_on_c, 6, 62, 0
8, 38154, Note_on_c, 6, 62, 74
8, 38226, Note_on_c, 6, 62, 0
8, 38356, Note_on_c, 6, 56, 85
8, 38408, Note_on_c, 6, 56, 0
8, 38448, Note_on_c, 6, 64, 74
8, 38492, Note_on_c, 6, 64, 0
8, 38556, Note_on_c, 6, 64, 76
8, 38594, Note_on_c, 6, 64, 0
8, 38650, Note_on_c, 6, 64, 74
8, 38690, Note_on_c, 6, 64, 0
8, 38758, Note_on_c, 6, 64, 77
8, 38798, Note_on_c, 6, 64, 0
8, 38846, Note_on_c, 6, 64, 70
8, 38888, Note_on_c, 6, 64, 0
8, 38928, Note_on_c, 6, 64, 71
8, 38966, Note_on_c, 6, 64, 0
8, 39008, Note_on_c, 6, 64, 71
8, 39060, Note_on_c, 6, 64, 0
8, 39122, Note_on_c, 6, 56, 76
8, 39180, Note_on_c, 6, 56, 0
8, 39222, Note_on_c, 6, 64, 75
8, 39264, Note_on_c, 6, 64, 0
8, 39318, Note_on_c, 6, 64, 73
8, 39356, Note_on_c, 6, 64, 0
8, 39414, Note_on_c, 6, 64, 74
8, 39452, Note_on_c, 6, 64, 0
8, 39518, Note_on_c, 6, 64, 80
8, 39554, Note_on_c, 6, 64, 0
8, 39614, Note_on_c, 6, 64, 74
8, 39650, Note_on_c, 6, 64, 0
8, 39700, Note_on_c, 6, 64, 71
8, 39736, Note_on_c, 6, 64, 0
8, 39778, Note_on_c, 6, 64, 74
8, 39816, Note_on_c, 6, 64, 0
8, 39882, Note_on_c, 6, 64, 82
8, 39920, Note_on_c, 6, 64, 0
8, 40076, Note_on_c, 6, 57, 90
8, 40328, Note_on_c, 6, 57, 0
8, 40452, Note_on_c, 6, 57, 90
8, 40680, Note_on_c, 6, 57, 0
8, 40846, Note_on_c, 6, 60, 84
8, 40884, Note_on_c, 6, 60, 0
8, 41038, Note_on_c, 6, 60, 88
8, 41070, Note_on_c, 6, 60, 0
8, 41232, Note_on_c, 6, 60, 83
8, 41270, Note_on_c, 6, 60, 0
8, 41430, Note_on_c, 6, 62, 90
8, 41646, Note_on_c, 6, 62, 0
8, 41824, Note_on_c, 6, 60, 81
8, 41858, Note_on_c, 6, 60, 0
8, 42030, Note_on_c, 6, 60, 81
8, 42066, Note_on_c, 6, 60, 0
8, 42214, Note_on_c, 6, 60, 82
8, 42242, Note_on_c, 6, 60, 0
8, 42410, Note_on_c, 6, 60, 84
8, 42654, Note_on_c, 6, 60, 0
8, 42792, Note_on_c, 6, 60, 84
8, 42830, Note_on_c, 6, 60, 0
8, 42982, Note_on_c, 6, 62, 91
8, 43214, Note_on_c, 6, 62, 0
8, 43368, Note_on_c, 6, 60, 88
8, 43580, Note_on_c, 6, 60, 0
8, 43946, Note_on_c, 6, 60, 92
8, 43992, Note_on_c, 6, 60, 0
8, 44128, Note_on_c, 6, 60, 92
8, 44178, Note_on_c, 6, 60, 0
8, 44306, Note_on_c, 6, 59, 89
8, 44376, Note_on_c, 6, 59, 0
8, 44510, Note_on_c, 6, 57, 90
8, 44588, Note_on_c, 6, 57, 0
8, 44682, Note_on_c, 6, 65, 87
8, 44762, Note_on_c, 6, 65, 0
8, 44886, Note_on_c, 6, 64, 95
8, 44944, Note_on_c, 6, 64, 0
8, 45076, Note_on_c, 6, 64, 91
8, 45134, Note_on_c, 6, 64, 0
8, 45264, Note_on_c, 6, 62, 91
8, 45316, Note_on_c, 6, 62, 0
8, 45458, Note_on_c, 6, 62, 91
8, 45510, Note_on_c, 6, 62, 0
8, 45638, Note_on_c, 6, 60, 88
8, 45686, Note_on_c, 6, 60, 0
8, 45836, Note_on_c, 6, 60, 87
8, 45888, Note_on_c, 6, 60, 0
8, 46034, Note_on_c, 6, 64, 95
8, 46092, Note_on_c, 6, 64, 0
8, 46238, Note_on_c, 6, 64, 91
8, 46294, Note_on_c, 6, 64, 0
8, 46436, Note_on_c, 6, 64, 90
8, 46484, Note_on_c, 6, 64, 0
8, 46628, Note_on_c, 6, 64, 90
8, 46678, Note_on_c, 6, 64, 0
8, 46818, Note_on_c, 6, 64, 91
8, 46862, Note_on_c, 6, 64, 0
8, 47006, Note_on_c, 6, 64, 82
8, 47054, Note_on_c, 6, 64, 0
8, 47204, Note_on_c, 6, 64, 77
8, 47252, Note_on_c, 6, 64, 0
8, 47386, Note_on_c, 6, 64, 67
8, 47438, Note_on_c, 6, 64, 0
8, 47586, Note_on_c, 6, 59, 67
8, 47676, Note_on_c, 6, 59, 0
8, 47778, Note_on_c, 6, 59, 64
8, 47836, Note_on_c, 6, 59, 0
8, 47972, Note_on_c, 6, 59, 70
8, 48034, Note_on_c, 6, 59, 0
8, 48168, Note_on_c, 6, 59, 71
8, 48222, Note_on_c, 6, 59, 0
8, 48364, Note_on_c, 6, 55, 67
8, 48440, Note_on_c, 6, 55, 0
8, 48544, Note_on_c, 6, 55, 66
8, 48604, Note_on_c, 6, 55, 0
8, 48734, Note_on_c, 6, 55, 68
8, 48790, Note_on_c, 6, 55, 0
8, 48922, Note_on_c, 6, 55, 69
8, 48978, Note_on_c, 6, 55, 0
8, 49134, Note_on_c, 6, 55, 69
8, 49170, Note_on_c, 6, 55, 0
8, 49224, Note_on_c, 6, 60, 73
8, 49250, Note_on_c, 6, 60, 0
8, 49320, Note_on_c, 6, 60, 78
8, 49358, Note_on_c, 6, 60, 0
8, 49410, Note_on_c, 6, 60, 72
8, 49448, Note_on_c, 6, 60, 0
8, 49516, Note_on_c, 6, 60, 83
8, 49552, Note_on_c, 6, 60, 0
8, 49610, Note_on_c, 6, 60, 78
8, 49646, Note_on_c, 6, 60, 0
8, 49692, Note_on_c, 6, 60, 71
8, 49730, Note_on_c, 6, 60, 0
8, 49772, Note_on_c, 6, 60, 72
8, 49830, Note_on_c, 6, 60, 0
8, 49886, Note_on_c, 6, 55, 80
8, 49938, Note_on_c, 6, 55, 0
8, 49988, Note_on_c, 6, 60, 72
8, 50022, Note_on_c, 6, 60, 0
8, 50084, Note_on_c, 6, 60, 76
8, 50114, Note_on_c, 6, 60, 0
8, 50170, Note_on_c, 6, 60, 76
8, 50208, Note_on_c, 6, 60, 0
8, 50276, Note_on_c, 6, 60, 82
8, 50312, Note_on_c, 6, 60, 0
8, 50380, Note_on_c, 6, 60, 76
8, 50412, Note_on_c, 6, 60, 0
8, 50466, Note_on_c, 6, 60, 73
8, 50500, Note_on_c, 6, 60, 0
8, 50544, Note_on_c, 6, 60, 70
8, 50582, Note_on_c, 6, 60, 0
8, 50646, Note_on_c, 6, 60, 87
8, 50692, Note_on_c, 6, 60, 0
8, 50742, Note_on_c, 6, 63, 88
8, 50782, Note_on_c, 6, 63, 0
8, 50836, Note_on_c, 6, 63, 84
8, 50872, Note_on_c, 6, 63, 0
8, 50922, Note_on_c, 6, 63, 81
8, 50964, Note_on_c, 6, 63, 0
8, 51020, Note_on_c, 6, 63, 89
8, 51060, Note_on_c, 6, 63, 0
8, 51106, Note_on_c, 6, 63, 81
8, 51152, Note_on_c, 6, 63, 0
8, 51196, Note_on_c, 6, 63, 77
8, 51236, Note_on_c, 6, 63, 0
8, 51282, Note_on_c, 6, 63, 80
8, 51338, Note_on_c, 6, 63, 0
8, 51414, Note_on_c, 6, 60, 89
8, 51458, Note_on_c, 6, 60, 0
8, 51510, Note_on_c, 6, 63, 88
8, 51546, Note_on_c, 6, 63, 0
8, 51606, Note_on_c, 6, 63, 85
8, 51642, Note_on_c, 6, 63, 0
8, 51698, Note_on_c, 6, 63, 84
8, 51738, Note_on_c, 6, 63, 0
8, 51806, Note_on_c, 6, 63, 93
8, 51844, Note_on_c, 6, 63, 0
8, 51914, Note_on_c, 6, 63, 88
8, 51944, Note_on_c, 6, 63, 0
8, 51998, Note_on_c, 6, 63, 68
8, 52030, Note_on_c, 6, 63, 0
8, 52078, Note_on_c, 6, 63, 68
8, 52116, Note_on_c, 6, 63, 0
8, 52174, Note_on_c, 6, 63, 84
8, 52214, Note_on_c, 6, 63, 0
8, 52374, Note_on_c, 6, 63, 101
8, 52564, Note_on_c, 6, 64, 75
8, 52570, Note_on_c, 6, 63, 0
8, 52588, Note_on_c, 6, 64, 0
8, 52758, Note_on_c, 6, 64, 99
8, 52992, Note_on_c, 6, 64, 0
8, 53152, Note_on_c, 6, 64, 94
8, 53382, Note_on_c, 6, 64, 0
8, 53514, Note_on_c, 6, 64, 77
8, 53638, Note_on_c, 6, 64, 0
8, 53706, Note_on_c, 6, 55, 66
8, 53754, Note_on_c, 6, 55, 0
8, 53808, Note_on_c, 6, 61, 71
8, 53846, Note_on_c, 6, 61, 0
8, 53910, Note_on_c, 6, 61, 69
8, 53946, Note_on_c, 6, 61, 0
8, 54008, Note_on_c, 6, 61, 61
8, 54046, Note_on_c, 6, 61, 0
8, 54120, Note_on_c, 6, 61, 66
8, 54158, Note_on_c, 6, 61, 0
8, 54228, Note_on_c, 6, 61, 70
8, 54264, Note_on_c, 6, 61, 0
8, 54306, Note_on_c, 6, 61, 60
8, 54344, Note_on_c, 6, 61, 0
8, 54390, Note_on_c, 6, 61, 57
8, 54442, Note_on_c, 6, 61, 0
8, 54512, Note_on_c, 6, 55, 67
8, 54556, Note_on_c, 6, 55, 0
8, 54610, Note_on_c, 6, 61, 70
8, 54648, Note_on_c, 6, 61, 0
8, 54696, Note_on_c, 6, 61, 69
8, 54740, Note_on_c, 6, 61, 0
8, 54788, Note_on_c, 6, 61, 61
8, 54824, Note_on_c, 6, 61, 0
8, 54890, Note_on_c, 6, 61, 66
8, 54922, Note_on_c, 6, 61, 0
8, 54984, Note_on_c, 6, 61, 67
8, 55016, Note_on_c, 6, 61, 0
8, 55066, Note_on_c, 6, 61, 51
8, 55100, Note_on_c, 6, 61, 0
8, 55144, Note_on_c, 6, 61, 61
8, 55182, Note_on_c, 6, 61, 0
8, 55246, Note_on_c, 6, 61, 77
8, 55306, Note_on_c, 6, 61, 0
8, 55352, Note_on_c, 6, 67, 74
8, 55394, Note_on_c, 6, 67, 0
8, 55450, Note_on_c, 6, 67, 73
8, 55484, Note_on_c, 6, 67, 0
8, 55540, Note_on_c, 6, 67, 75
8, 55576, Note_on_c, 6, 67, 0
8, 55640, Note_on_c, 6, 67, 80
8, 55676, Note_on_c, 6, 67, 0
8, 55738, Note_on_c, 6, 67, 78
8, 55774, Note_on_c, 6, 67, 0
8, 55828, Note_on_c, 6, 67, 77
8, 55864, Note_on_c, 6, 67, 0
8, 55906, Note_on_c, 6, 67, 75
8, 55966, Note_on_c, 6, 67, 0
8, 56022, Note_on_c, 6, 61, 72
8, 56080, Note_on_c, 6, 61, 0
8, 56124, Note_on_c, 6, 67, 75
8, 56164, Note_on_c, 6, 67, 0
8, 56224, Note_on_c, 6, 67, 81
8, 56260, Note_on_c, 6, 67, 0
8, 56306, Note_on_c, 6, 67, 72
8, 56352, Note_on_c, 6, 67, 0
8, 56420, Note_on_c, 6, 69, 80
8, 56458, Note_on_c, 6, 69, 0
8, 56518, Note_on_c, 6, 69, 79
8, 56556, Note_on_c, 6, 69, 0
8, 56608, Note_on_c, 6, 69, 73
8, 56644, Note_on_c, 6, 69, 0
8, 56692, Note_on_c, 6, 69, 68
8, 56742, Note_on_c, 6, 69, 0
8, 56802, Note_on_c, 6, 64, 80
8, 56852, Note_on_c, 6, 64, 0
8, 56892, Note_on_c, 6, 64, 71
8, 56938, Note_on_c, 6, 64, 0
8, 56998, Note_on_c, 6, 65, 83
8, 57046, Note_on_c, 6, 65, 0
8, 57084, Note_on_c, 6, 65, 76
8, 57220, Note_on_c, 6, 65, 0
8, 57404, Note_on_c, 6, 65, 89
8, 57600, Note_on_c, 6, 65, 0
8, 57764, Note_on_c, 6, 65, 90
8, 57946, Note_on_c, 6, 65, 0
8, 58114, Note_on_c, 6, 65, 72
8, 58176, Note_on_c, 6, 65, 0
8, 58330, Note_on_c, 6, 58, 80
8, 58378, Note_on_c, 6, 58, 0
8, 58426, Note_on_c, 6, 63, 83
8, 58462, Note_on_c, 6, 63, 0
8, 58528, Note_on_c, 6, 63, 86
8, 58562, Note_on_c, 6, 63, 0
8, 58614, Note_on_c, 6, 63, 77
8, 58652, Note_on_c, 6, 63, 0
8, 58722, Note_on_c, 6, 63, 89
8, 58762, Note_on_c, 6, 63, 0
8, 58812, Note_on_c, 6, 63, 76
8, 58856, Note_on_c, 6, 63, 0
8, 58908, Note_on_c, 6, 63, 49
8, 58932, Note_on_c, 6, 63, 0
8, 59102, Note_on_c, 6, 60, 67
8, 59150, Note_on_c, 6, 60, 0
8, 59196, Note_on_c, 6, 66, 84
8, 59236, Note_on_c, 6, 66, 0
8, 59296, Note_on_c, 6, 66, 83
8, 59332, Note_on_c, 6, 66, 0
8, 59386, Note_on_c, 6, 66, 79
8, 59428, Note_on_c, 6, 66, 0
8, 59484, Note_on_c, 6, 66, 86
8, 59524, Note_on_c, 6, 66, 0
8, 59580, Note_on_c, 6, 66, 84
8, 59620, Note_on_c, 6, 66, 0
8, 59666, Note_on_c, 6, 66, 74
8, 59706, Note_on_c, 6, 66, 0
8, 59750, Note_on_c, 6, 66, 74
8, 59798, Note_on_c, 6, 66, 0
8, 59878, Note_on_c, 6, 62, 82
8, 59930, Note_on_c, 6, 62, 0
8, 59976, Note_on_c, 6, 67, 79
8, 60014, Note_on_c, 6, 67, 0
8, 60074, Note_on_c, 6, 67, 80
8, 60110, Note_on_c, 6, 67, 0
8, 60162, Note_on_c, 6, 67, 77
8, 60198, Note_on_c, 6, 67, 0
8, 60272, Note_on_c, 6, 67, 88
8, 60306, Note_on_c, 6, 67, 0
8, 60368, Note_on_c, 6, 67, 80
8, 60404, Note_on_c, 6, 67, 0
8, 60458, Note_on_c, 6, 67, 69
8, 60480, Note_on_c, 6, 67, 0
8, 60540, Note_on_c, 6, 67, 62
8, 60600, Note_on_c, 6, 67, 0
8, 60646, Note_on_c, 6, 60, 68
8, 60690, Note_on_c, 6, 60, 0
8, 60742, Note_on_c, 6, 65, 71
8, 60762, Note_on_c, 6, 65, 0
8, 60836, Note_on_c, 6, 65, 80
8, 60872, Note_on_c, 6, 65, 0
8, 60922, Note_on_c, 6, 65, 72
8, 60962, Note_on_c, 6, 65, 0
8, 61028, Note_on_c, 6, 65, 84
8, 61066, Note_on_c, 6, 65, 0
8, 61128, Note_on_c, 6, 65, 78
8, 61166, Note_on_c, 6, 65, 0
8, 61216, Note_on_c, 6, 65, 72
8, 61254, Note_on_c, 6, 65, 0
8, 61296, Note_on_c, 6, 65, 73
8, 61348, Note_on_c, 6, 65, 0
8, 61408, Note_on_c, 6, 58, 84
8, 61456, Note_on_c, 6, 58, 0
8, 61502, Note_on_c, 6, 63, 89
8, 61544, Note_on_c, 6, 63, 0
8, 61594, Note_on_c, 6, 63, 85
8, 61632, Note_on_c, 6, 63, 0
8, 61680, Note_on_c, 6, 63, 84
8, 61722, Note_on_c, 6, 63, 0
8, 61776, Note_on_c, 6, 63, 83
8, 61816, Note_on_c, 6, 63, 0
8, 61870, Note_on_c, 6, 63, 78
8, 61910, Note_on_c, 6, 63, 0
8, 61958, Note_on_c, 6, 63, 70
8, 61998, Note_on_c, 6, 63, 0
8, 62048, Note_on_c, 6, 63, 69
8, 62092, Note_on_c, 6, 63, 0
8, 62176, Note_on_c, 6, 59, 81
8, 62230, Note_on_c, 6, 59, 0
8, 62282, Note_on_c, 6, 62, 78
8, 62324, Note_on_c, 6, 62, 0
8, 62384, Note_on_c, 6, 62, 87
8, 62418, Note_on_c, 6, 62, 0
8, 62476, Note_on_c, 6, 62, 83
8, 62508, Note_on_c, 6, 62, 0
8, 62574, Note_on_c, 6, 62, 88
8, 62608, Note_on_c, 6, 62, 0
8, 62664, Note_on_c, 6, 62, 81
8, 62698, Note_on_c, 6, 62, 0
8, 62746, Note_on_c, 6, 62, 76
8, 62782, Note_on_c, 6, 62, 0
8, 62828, Note_on_c, 6, 62, 77
8, 62884, Note_on_c, 6, 62, 0
8, 62946, Note_on_c, 6, 57, 85
8, 62986, Note_on_c, 6, 57, 0
8, 63028, Note_on_c, 6, 62, 72
8, 63066, Note_on_c, 6, 62, 0
8, 63130, Note_on_c, 6, 62, 85
8, 63164, Note_on_c, 6, 62, 0
8, 63208, Note_on_c, 6, 62, 74
8, 63258, Note_on_c, 6, 62, 0
8, 63322, Note_on_c, 6, 57, 88
8, 63362, Note_on_c, 6, 57, 0
8, 63420, Note_on_c, 6, 61, 82
8, 63460, Note_on_c, 6, 61, 0
8, 63504, Note_on_c, 6, 61, 59
8, 63536, Note_on_c, 6, 61, 0
8, 63566, Note_on_c, 6, 61, 71
8, 63610, Note_on_c, 6, 61, 0
8, 63690, Note_on_c, 6, 57, 108
8, 64120, Note_on_c, 6, 57, 0
8, 64272, Note_on_c, 6, 57, 108
8, 64426, Note_on_c, 6, 57, 0
8, 64474, Note_on_c, 6, 56, 98
8, 64640, Note_on_c, 6, 56, 0
8, 64682, Note_on_c, 6, 57, 105
8, 64808, Note_on_c, 6, 57, 0
8, 64866, Note_on_c, 6, 56, 92
8, 64998, Note_on_c, 6, 56, 0
8, 65056, Note_on_c, 6, 57, 101
8, 65188, Note_on_c, 6, 57, 0
8, 65248, Note_on_c, 6, 56, 92
8, 65398, Note_on_c, 6, 56, 0
8, 65440, Note_on_c, 6, 57, 103
8, 65556, Note_on_c, 6, 57, 0
8, 65620, Note_on_c, 6, 56, 92
8, 65740, Note_on_c, 6, 56, 0
8, 65804, Note_on_c, 6, 57, 88
8, 65916, Note_on_c, 6, 57, 0
8, 65996, Note_on_c, 6, 58, 101
8, 66126, Note_on_c, 6, 58, 0
8, 66406, Note_on_c, 6, 57, 110
8, 66574, Note_on_c, 6, 57, 0
8, 66814, Note_on_c, 6, 64, 108
8, 67238, Note_on_c, 6, 64, 0
8, 67376, Note_on_c, 6, 64, 108
8, 67526, Note_on_c, 6, 64, 0
8, 67570, Note_on_c, 6, 65, 99
8, 67908, Note_on_c, 6, 65, 0
8, 67954, Note_on_c, 6, 64, 101
8, 68110, Note_on_c, 6, 64, 0
8, 68326, Note_on_c, 6, 64, 103
8, 68790, Note_on_c, 6, 64, 0
8, 68900, Note_on_c, 6, 64, 95
8, 69054, Note_on_c, 6, 64, 0
8, 69100, Note_on_c, 6, 65, 96
8, 69432, Note_on_c, 6, 65, 0
8, 69472, Note_on_c, 6, 64, 101
8, 69664, Note_on_c, 6, 64, 0
8, 69866, Note_on_c, 6, 57, 101
8, 70300, Note_on_c, 6, 57, 0
8, 70446, Note_on_c, 6, 57, 108
8, 70576, Note_on_c, 6, 57, 0
8, 70638, Note_on_c, 6, 56, 98
8, 70776, Note_on_c, 6, 56, 0
8, 70826, Note_on_c, 6, 57, 108
8, 70948, Note_on_c, 6, 57, 0
8, 71014, Note_on_c, 6, 56, 92
8, 71162, Note_on_c, 6, 56, 0
8, 71204, Note_on_c, 6, 57, 103
8, 71330, Note_on_c, 6, 57, 0
8, 71398, Note_on_c, 6, 56, 93
8, 71544, Note_on_c, 6, 56, 0
8, 71590, Note_on_c, 6, 57, 89
8, 71700, Note_on_c, 6, 57, 0
8, 71776, Note_on_c, 6, 56, 94
8, 71902, Note_on_c, 6, 56, 0
8, 71962, Note_on_c, 6, 57, 87
8, 72084, Note_on_c, 6, 57, 0
8, 72168, Note_on_c, 6, 58, 100
8, 72334, Note_on_c, 6, 58, 0
8, 72550, Note_on_c, 6, 57, 101
8, 72692, Note_on_c, 6, 57, 0
8, 72942, Note_on_c, 6, 61, 101
8, 73398, Note_on_c, 6, 61, 0
8, 73510, Note_on_c, 6, 61, 97
8, 73650, Note_on_c, 6, 61, 0
8, 73712, Note_on_c, 6, 62, 101
8, 73928, Note_on_c, 6, 62, 0
8, 74096, Note_on_c, 6, 61, 99
8, 74286, Note_on_c, 6, 61, 0
8, 74488, Note_on_c, 6, 61, 98
8, 74944, Note_on_c, 6, 61, 0
8, 75052, Note_on_c, 6, 61, 95
8, 75196, Note_on_c, 6, 61, 0
8, 75244, Note_on_c, 6, 62, 95
8, 75490, Note_on_c, 6, 62, 0
8, 75620, Note_on_c, 6, 61, 97
8, 75818, Note_on_c, 6, 61, 0
8, 76018, Note_on_c, 6, 57, 103
8, 76420, Note_on_c, 6, 57, 0
8, 76572, Note_on_c, 6, 57, 105
8, 76724, Note_on_c, 6, 57, 0
8, 76776, Note_on_c, 6, 56, 98
8, 76934, Note_on_c, 6, 56, 0
8, 76970, Note_on_c, 6, 57, 92
8, 77104, Note_on_c, 6, 57, 0
8, 77160, Note_on_c, 6, 56, 97
8, 77304, Note_on_c, 6, 56, 0
8, 77350, Note_on_c, 6, 57, 92
8, 77480, Note_on_c, 6, 57, 0
8, 77546, Note_on_c, 6, 56, 97
8, 77692, Note_on_c, 6, 56, 0
8, 77732, Note_on_c, 6, 57, 91
8, 77866, Note_on_c, 6, 57, 0
8, 77922, Note_on_c, 6, 56, 93
8, 78060, Note_on_c, 6, 56, 0
8, 78102, Note_on_c, 6, 57, 87
8, 78236, Note_on_c, 6, 57, 0
8, 78304, Note_on_c, 6, 58, 95
8, 78420, Note_on_c, 6, 58, 0
8, 78492, Note_on_c, 6, 58, 83
8, 78598, Note_on_c, 6, 58, 0
8, 78680, Note_on_c, 6, 58, 86
8, 78800, Note_on_c, 6, 58, 0
8, 78868, Note_on_c, 6, 58, 88
8, 79012, Note_on_c, 6, 58, 0
8, 79074, Note_on_c, 6, 58, 90
8, 79202, Note_on_c, 6, 58, 0
8, 79270, Note_on_c, 6, 58, 89
8, 79394, Note_on_c, 6, 58, 0
8, 79466, Note_on_c, 6, 58, 87
8, 79568, Note_on_c, 6, 58, 0
8, 79642, Note_on_c, 6, 58, 84
8, 79718, Note_on_c, 6, 58, 0
8, 79834, Note_on_c, 6, 63, 104
8, 80020, Note_on_c, 6, 63, 0
8, 80034, Note_on_c, 6, 62, 74
8, 80150, Note_on_c, 6, 62, 0
8, 80228, Note_on_c, 6, 63, 102
8, 80400, Note_on_c, 6, 63, 0
8, 80418, Note_on_c, 6, 62, 77
8, 80526, Note_on_c, 6, 62, 0
8, 80608, Note_on_c, 6, 63, 98
8, 80780, Note_on_c, 6, 63, 0
8, 80802, Note_on_c, 6, 62, 80
8, 80924, Note_on_c, 6, 62, 0
8, 80990, Note_on_c, 6, 63, 99
8, 81118, Note_on_c, 6, 63, 0
8, 81174, Note_on_c, 6, 62, 89
8, 81274, Note_on_c, 6, 62, 0
8, 81366, Note_on_c, 6, 61, 98
8, 81498, Note_on_c, 6, 61, 0
8, 81764, Note_on_c, 6, 64, 101
8, 81924, Note_on_c, 6, 64, 0
8, 82538, Note_on_c, 6, 64, 99
8, 82616, Note_on_c, 6, 64, 0
8, 82716, Note_on_c, 6, 64, 92
8, 82808, Note_on_c, 6, 64, 0
8, 82920, Note_on_c, 6, 65, 91
8, 82960, Note_on_c, 6, 65, 0
8, 83014, Note_on_c, 6, 65, 78
8, 83052, Note_on_c, 6, 65, 0
8, 83102, Note_on_c, 6, 65, 75
8, 83144, Note_on_c, 6, 65, 0
8, 83188, Note_on_c, 6, 65, 76
8, 83234, Note_on_c, 6, 65, 0
8, 83310, Note_on_c, 6, 64, 87
8, 83346, Note_on_c, 6, 64, 0
8, 83412, Note_on_c, 6, 64, 78
8, 83446, Note_on_c, 6, 64, 0
8, 83494, Note_on_c, 6, 64, 69
8, 83530, Note_on_c, 6, 64, 0
8, 83578, Note_on_c, 6, 64, 72
8, 83620, Note_on_c, 6, 64, 0
8, 83696, Note_on_c, 6, 65, 88
8, 83730, Note_on_c, 6, 65, 0
8, 83790, Note_on_c, 6, 65, 81
8, 83826, Note_on_c, 6, 65, 0
8, 83878, Note_on_c, 6, 65, 79
8, 83916, Note_on_c, 6, 65, 0
8, 83960, Note_on_c, 6, 65, 79
8, 84006, Note_on_c, 6, 65, 0
8, 84072, Note_on_c, 6, 64, 85
8, 84110, Note_on_c, 6, 64, 0
8, 84164, Note_on_c, 6, 64, 75
8, 84198, Note_on_c, 6, 64, 0
8, 84242, Note_on_c, 6, 64, 74
8, 84278, Note_on_c, 6, 64, 0
8, 84322, Note_on_c, 6, 64, 74
8, 84366, Note_on_c, 6, 64, 0
8, 84432, Note_on_c, 6, 65, 88
8, 84466, Note_on_c, 6, 65, 0
8, 84522, Note_on_c, 6, 65, 80
8, 84560, Note_on_c, 6, 65, 0
8, 84610, Note_on_c, 6, 65, 76
8, 84650, Note_on_c, 6, 65, 0
8, 84696, Note_on_c, 6, 65, 77
8, 84746, Note_on_c, 6, 65, 0
8, 84812, Note_on_c, 6, 64, 94
8, 84962, Note_on_c, 6, 64, 0
8, 85608, Note_on_c, 6, 62, 91
8, 85686, Note_on_c, 6, 62, 0
8, 85802, Note_on_c, 6, 62, 91
8, 85878, Note_on_c, 6, 62, 0
8, 85994, Note_on_c, 6, 64, 91
8, 86026, Note_on_c, 6, 64, 0
8, 86090, Note_on_c, 6, 64, 80
8, 86124, Note_on_c, 6, 64, 0
8, 86170, Note_on_c, 6, 64, 71
8, 86214, Note_on_c, 6, 64, 0
8, 86256, Note_on_c, 6, 64, 77
8, 86304, Note_on_c, 6, 64, 0
8, 86382, Note_on_c, 6, 62, 84
8, 86416, Note_on_c, 6, 62, 0
8, 86482, Note_on_c, 6, 62, 81
8, 86518, Note_on_c, 6, 62, 0
8, 86562, Note_on_c, 6, 62, 68
8, 86600, Note_on_c, 6, 62, 0
8, 86644, Note_on_c, 6, 62, 70
8, 86684, Note_on_c, 6, 62, 0
8, 86760, Note_on_c, 6, 64, 88
8, 86792, Note_on_c, 6, 64, 0
8, 86848, Note_on_c, 6, 64, 79
8, 86884, Note_on_c, 6, 64, 0
8, 86928, Note_on_c, 6, 64, 76
8, 86968, Note_on_c, 6, 64, 0
8, 87004, Note_on_c, 6, 64, 80
8, 87062, Note_on_c, 6, 64, 0
8, 87128, Note_on_c, 6, 62, 80
8, 87168, Note_on_c, 6, 62, 0
8, 87218, Note_on_c, 6, 62, 75
8, 87258, Note_on_c, 6, 62, 0
8, 87306, Note_on_c, 6, 62, 62
8, 87340, Note_on_c, 6, 62, 0
8, 87384, Note_on_c, 6, 62, 68
8, 87426, Note_on_c, 6, 62, 0
8, 87508, Note_on_c, 6, 64, 89
8, 87546, Note_on_c, 6, 64, 0
8, 87594, Note_on_c, 6, 64, 73
8, 87630, Note_on_c, 6, 64, 0
8, 87680, Note_on_c, 6, 64, 70
8, 87716, Note_on_c, 6, 64, 0
8, 87764, Note_on_c, 6, 64, 64
8, 87816, Note_on_c, 6, 64, 0
8, 87916, Note_on_c, 6, 62, 82
8, 88014, Note_on_c, 6, 62, 0
8, 88108, Note_on_c, 6, 69, 92
8, 88210, Note_on_c, 6, 69, 0
8, 88296, Note_on_c, 6, 65, 99
8, 88404, Note_on_c, 6, 65, 0
8, 88482, Note_on_c, 6, 62, 84
8, 88588, Note_on_c, 6, 62, 0
8, 88666, Note_on_c, 6, 65, 89
8, 88766, Note_on_c, 6, 65, 0
8, 88854, Note_on_c, 6, 69, 88
8, 88956, Note_on_c, 6, 69, 0
8, 89048, Note_on_c, 6, 62, 82
8, 89144, Note_on_c, 6, 62, 0
8, 89244, Note_on_c, 6, 65, 83
8, 89350, Note_on_c, 6, 65, 0
8, 89434, Note_on_c, 6, 69, 87
8, 89546, Note_on_c, 6, 69, 0
8, 89630, Note_on_c, 6, 74, 88
8, 89720, Note_on_c, 6, 74, 0
8, 89814, Note_on_c, 6, 62, 87
8, 89928, Note_on_c, 6, 62, 0
8, 90014, Note_on_c, 6, 65, 74
8, 90110, Note_on_c, 6, 65, 0
8, 90190, Note_on_c, 6, 69, 78
8, 90282, Note_on_c, 6, 69, 0
8, 90400, Note_on_c, 6, 74, 75
8, 90444, Note_on_c, 6, 74, 0
8, 90582, Note_on_c, 6, 53, 94
8, 90682, Note_on_c, 6, 53, 0
8, 90792, Note_on_c, 6, 57, 88
8, 90926, Note_on_c, 6, 57, 0
8, 90986, Note_on_c, 6, 62, 84
8, 91096, Note_on_c, 6, 62, 0
8, 91166, Note_on_c, 6, 65, 87
8, 91250, Note_on_c, 6, 65, 0
8, 91358, Note_on_c, 6, 53, 88
8, 91450, Note_on_c, 6, 53, 0
8, 91536, Note_on_c, 6, 57, 85
8, 91644, Note_on_c, 6, 57, 0
8, 91720, Note_on_c, 6, 62, 75
8, 91794, Note_on_c, 6, 62, 0
8, 91892, Note_on_c, 6, 65, 84
8, 91954, Note_on_c, 6, 65, 0
8, 92138, Note_on_c, 6, 58, 97
8, 92252, Note_on_c, 6, 58, 0
8, 92332, Note_on_c, 6, 62, 80
8, 92422, Note_on_c, 6, 62, 0
8, 92512, Note_on_c, 6, 65, 72
8, 92640, Note_on_c, 6, 65, 0
8, 92704, Note_on_c, 6, 70, 88
8, 92750, Note_on_c, 6, 70, 0
8, 92904, Note_on_c, 6, 52, 87
8, 93018, Note_on_c, 6, 52, 0
8, 93102, Note_on_c, 6, 55, 84
8, 93200, Note_on_c, 6, 55, 0
8, 93290, Note_on_c, 6, 58, 87
8, 93398, Note_on_c, 6, 58, 0
8, 93470, Note_on_c, 6, 64, 78
8, 93548, Note_on_c, 6, 64, 0
8, 93654, Note_on_c, 6, 57, 88
8, 93752, Note_on_c, 6, 57, 0
8, 93852, Note_on_c, 6, 69, 89
8, 93964, Note_on_c, 6, 69, 0
8, 94046, Note_on_c, 6, 62, 85
8, 94158, Note_on_c, 6, 62, 0
8, 94244, Note_on_c, 6, 65, 88
8, 94364, Note_on_c, 6, 65, 0
8, 94430, Note_on_c, 6, 69, 87
8, 94534, Note_on_c, 6, 69, 0
8, 94612, Note_on_c, 6, 67, 82
8, 94738, Note_on_c, 6, 67, 0
8, 94806, Note_on_c, 6, 69, 87
8, 94922, Note_on_c, 6, 69, 0
8, 95000, Note_on_c, 6, 57, 88
8, 95064, Note_on_c, 6, 57, 0
8, 95192, Note_on_c, 6, 62, 92
8, 95292, Note_on_c, 6, 62, 0
8, 95386, Note_on_c, 6, 65, 89
8, 95488, Note_on_c, 6, 65, 0
8, 95572, Note_on_c, 6, 69, 85
8, 95678, Note_on_c, 6, 69, 0
8, 95762, Note_on_c, 6, 74, 90
8, 95848, Note_on_c, 6, 74, 0
8, 95956, Note_on_c, 6, 62, 87
8, 96078, Note_on_c, 6, 62, 0
8, 96150, Note_on_c, 6, 65, 84
8, 96266, Note_on_c, 6, 65, 0
8, 96348, Note_on_c, 6, 69, 85
8, 96472, Note_on_c, 6, 69, 0
8, 96538, Note_on_c, 6, 74, 84
8, 96620, Note_on_c, 6, 74, 0
8, 96726, Note_on_c, 6, 58, 90
8, 96848, Note_on_c, 6, 58, 0
8, 96916, Note_on_c, 6, 62, 81
8, 97014, Note_on_c, 6, 62, 0
8, 97104, Note_on_c, 6, 65, 83
8, 97230, Note_on_c, 6, 65, 0
8, 97292, Note_on_c, 6, 70, 91
8, 97416, Note_on_c, 6, 70, 0
8, 97496, Note_on_c, 6, 58, 97
8, 97602, Note_on_c, 6, 58, 0
8, 97678, Note_on_c, 6, 62, 79
8, 97772, Note_on_c, 6, 62, 0
8, 97856, Note_on_c, 6, 65, 82
8, 97952, Note_on_c, 6, 65, 0
8, 98056, Note_on_c, 6, 70, 91
8, 98140, Note_on_c, 6, 70, 0
8, 98250, Note_on_c, 6, 55, 89
8, 98380, Note_on_c, 6, 55, 0
8, 98460, Note_on_c, 6, 58, 87
8, 98590, Note_on_c, 6, 58, 0
8, 98650, Note_on_c, 6, 63, 90
8, 98770, Note_on_c, 6, 63, 0
8, 98854, Note_on_c, 6, 67, 88
8, 98944, Note_on_c, 6, 67, 0
8, 99038, Note_on_c, 6, 55, 88
8, 99148, Note_on_c, 6, 55, 0
8, 99228, Note_on_c, 6, 58, 85
8, 99336, Note_on_c, 6, 58, 0
8, 99412, Note_on_c, 6, 63, 87
8, 99520, Note_on_c, 6, 63, 0
8, 99600, Note_on_c, 6, 67, 84
8, 99702, Note_on_c, 6, 67, 0
8, 99802, Note_on_c, 6, 57, 99
8, 99904, Note_on_c, 6, 57, 0
8, 99996, Note_on_c, 6, 69, 88
8, 100114, Note_on_c, 6, 69, 0
8, 100194, Note_on_c, 6, 62, 87
8, 100304, Note_on_c, 6, 62, 0
8, 100388, Note_on_c, 6, 65, 83
8, 100504, Note_on_c, 6, 65, 0
8, 100580, Note_on_c, 6, 69, 90
8, 100690, Note_on_c, 6, 69, 0
8, 100766, Note_on_c, 6, 67, 83
8, 100882, Note_on_c, 6, 67, 0
8, 100950, Note_on_c, 6, 69, 90
8, 101044, Note_on_c, 6, 69, 0
8, 101134, Note_on_c, 6, 57, 90
8, 101242, Note_on_c, 6, 57, 0
8, 101330, Note_on_c, 6, 62, 101
8, 101582, Note_on_c, 6, 62, 0
8, 101930, Note_on_c, 6, 57, 101
8, 102062, Note_on_c, 6, 57, 0
8, 102118, Note_on_c, 6, 58, 91
8, 102254, Note_on_c, 6, 58, 0
8, 102302, Note_on_c, 6, 62, 89
8, 102434, Note_on_c, 6, 62, 0
8, 102490, Note_on_c, 6, 59, 92
8, 102620, Note_on_c, 6, 59, 0
8, 102674, Note_on_c, 6, 56, 90
8, 102820, Note_on_c, 6, 56, 0
8, 102858, Note_on_c, 6, 57, 87
8, 103004, Note_on_c, 6, 57, 0
8, 103060, Note_on_c, 6, 58, 88
8, 103198, Note_on_c, 6, 58, 0
8, 103250, Note_on_c, 6, 67, 84
8, 103400, Note_on_c, 6, 67, 0
8, 103448, Note_on_c, 6, 65, 90
8, 103570, Note_on_c, 6, 65, 0
8, 103640, Note_on_c, 6, 64, 95
8, 103766, Note_on_c, 6, 64, 0
8, 103814, Note_on_c, 6, 62, 79
8, 103924, Note_on_c, 6, 62, 0
8, 104014, Note_on_c, 6, 61, 88
8, 104164, Note_on_c, 6, 61, 0
8, 104210, Note_on_c, 6, 69, 79
8, 104346, Note_on_c, 6, 69, 0
8, 104414, Note_on_c, 6, 69, 94
8, 104454, Note_on_c, 6, 69, 0
8, 104502, Note_on_c, 6, 69, 82
8, 104548, Note_on_c, 6, 69, 0
8, 104582, Note_on_c, 6, 69, 77
8, 104628, Note_on_c, 6, 69, 0
8, 104666, Note_on_c, 6, 69, 79
8, 104720, Note_on_c, 6, 69, 0
8, 104780, Note_on_c, 6, 70, 89
8, 104822, Note_on_c, 6, 70, 0
8, 104872, Note_on_c, 6, 70, 81
8, 104916, Note_on_c, 6, 70, 0
8, 104958, Note_on_c, 6, 70, 71
8, 105004, Note_on_c, 6, 70, 0
8, 105046, Note_on_c, 6, 70, 71
8, 105106, Note_on_c, 6, 70, 0
8, 105168, Note_on_c, 6, 69, 99
8, 105256, Note_on_c, 6, 69, 0
8, 105378, Note_on_c, 6, 67, 89
8, 105418, Note_on_c, 6, 67, 0
8, 105560, Note_on_c, 6, 69, 90
8, 105622, Note_on_c, 6, 69, 0
8, 105752, Note_on_c, 6, 57, 91
8, 105874, Note_on_c, 6, 57, 0
8, 105954, Note_on_c, 6, 62, 96
8, 106204, Note_on_c, 6, 62, 0
8, 106360, Note_on_c, 6, 50, 99
8, 106712, Note_on_c, 6, 50, 0
8, 106712, End_track
9, 0, Start_track
9, 0, Title_t, "cell"
9, 398, Program_c, 7, 48
9, 399, Control_c, 7, 7, 123
9, 399, Control_c, 7, 10, 72
9, 576, Control_c, 7, 91, 120
9, 3056, Note_on_c, 7, 50, 108
9, 3170, Note_on_c, 7, 50, 0
9, 3248, Note_on_c, 7, 53, 99
9, 3338, Note_on_c, 7, 53, 0
9, 3434, Note_on_c, 7, 57, 108
9, 3506, Note_on_c, 7, 57, 0
9, 3630, Note_on_c, 7, 62, 91
9, 3708, Note_on_c, 7, 62, 0
9, 3824, Note_on_c, 7, 50, 108
9, 3932, Note_on_c, 7, 50, 0
9, 4006, Note_on_c, 7, 53, 96
9, 4092, Note_on_c, 7, 53, 0
9, 4194, Note_on_c, 7, 57, 96
9, 4248, Note_on_c, 7, 57, 0
9, 4386, Note_on_c, 7, 62, 87
9, 4442, Note_on_c, 7, 62, 0
9, 4578, Note_on_c, 7, 50, 99
9, 4636, Note_on_c, 7, 50, 0
9, 4784, Note_on_c, 7, 62, 103
9, 5010, Note_on_c, 7, 62, 0
9, 5162, Note_on_c, 7, 62, 105
9, 5408, Note_on_c, 7, 62, 0
9, 5532, Note_on_c, 7, 62, 96
9, 5782, Note_on_c, 7, 62, 0
9, 5916, Note_on_c, 7, 62, 92
9, 5964, Note_on_c, 7, 62, 0
9, 6084, Note_on_c, 7, 49, 93
9, 6210, Note_on_c, 7, 49, 0
9, 6276, Note_on_c, 7, 52, 80
9, 6368, Note_on_c, 7, 52, 0
9, 6466, Note_on_c, 7, 57, 91
9, 6550, Note_on_c, 7, 57, 0
9, 6664, Note_on_c, 7, 61, 71
9, 6782, Note_on_c, 7, 61, 0
9, 6858, Note_on_c, 7, 49, 84
9, 7004, Note_on_c, 7, 49, 0
9, 7066, Note_on_c, 7, 52, 80
9, 7170, Note_on_c, 7, 52, 0
9, 7272, Note_on_c, 7, 57, 99
9, 7342, Note_on_c, 7, 57, 0
9, 7454, Note_on_c, 7, 61, 82
9, 7550, Note_on_c, 7, 61, 0
9, 7654, Note_on_c, 7, 50, 110
9, 7700, Note_on_c, 7, 50, 0
9, 7852, Note_on_c, 7, 62, 101
9, 8152, Note_on_c, 7, 62, 0
9, 8226, Note_on_c, 7, 62, 96
9, 8522, Note_on_c, 7, 62, 0
9, 8590, Note_on_c, 7, 62, 95
9, 8852, Note_on_c, 7, 62, 0
9, 8984, Note_on_c, 7, 50, 101
9, 9086, Note_on_c, 7, 50, 0
9, 9170, Note_on_c, 7, 52, 105
9, 9370, Note_on_c, 7, 52, 0
9, 9550, Note_on_c, 7, 53, 96
9, 9736, Note_on_c, 7, 53, 0
9, 10340, Note_on_c, 7, 53, 101
9, 10526, Note_on_c, 7, 53, 0
9, 10730, Note_on_c, 7, 49, 98
9, 10930, Note_on_c, 7, 49, 0
9, 11112, Note_on_c, 7, 50, 101
9, 11306, Note_on_c, 7, 50, 0
9, 11690, Note_on_c, 7, 50, 101
9, 11808, Note_on_c, 7, 50, 0
9, 11886, Note_on_c, 7, 62, 99
9, 11992, Note_on_c, 7, 62, 0
9, 12072, Note_on_c, 7, 60, 83
9, 12168, Note_on_c, 7, 60, 0
9, 12262, Note_on_c, 7, 58, 91
9, 12384, Note_on_c, 7, 58, 0
9, 12462, Note_on_c, 7, 46, 99
9, 12584, Note_on_c, 7, 46, 0
9, 12660, Note_on_c, 7, 45, 103
9, 12764, Note_on_c, 7, 45, 0
9, 12830, Note_on_c, 7, 57, 103
9, 12936, Note_on_c, 7, 57, 0
9, 13024, Note_on_c, 7, 55, 92
9, 13148, Note_on_c, 7, 55, 0
9, 13206, Note_on_c, 7, 43, 99
9, 13322, Note_on_c, 7, 43, 0
9, 13394, Note_on_c, 7, 50, 105
9, 13484, Note_on_c, 7, 50, 0
9, 13572, Note_on_c, 7, 62, 94
9, 13696, Note_on_c, 7, 62, 0
9, 13772, Note_on_c, 7, 57, 108
9, 13880, Note_on_c, 7, 57, 0
9, 13964, Note_on_c, 7, 45, 95
9, 14078, Note_on_c, 7, 45, 0
9, 14174, Note_on_c, 7, 57, 103
9, 14284, Note_on_c, 7, 57, 0
9, 14360, Note_on_c, 7, 57, 96
9, 14454, Note_on_c, 7, 57, 0
9, 14552, Note_on_c, 7, 57, 108
9, 14646, Note_on_c, 7, 57, 0
9, 14746, Note_on_c, 7, 57, 103
9, 14824, Note_on_c, 7, 57, 0
9, 14928, Note_on_c, 7, 57, 99
9, 15012, Note_on_c, 7, 57, 0
9, 15116, Note_on_c, 7, 57, 99
9, 15200, Note_on_c, 7, 57, 0
9, 15312, Note_on_c, 7, 57, 105
9, 15412, Note_on_c, 7, 57, 0
9, 15496, Note_on_c, 7, 57, 99
9, 15606, Note_on_c, 7, 57, 0
9, 15682, Note_on_c, 7, 58, 92
9, 15802, Note_on_c, 7, 58, 0
9, 15882, Note_on_c, 7, 59, 101
9, 16006, Note_on_c, 7, 59, 0
9, 16070, Note_on_c, 7, 60, 94
9, 16198, Note_on_c, 7, 60, 0
9, 16264, Note_on_c, 7, 57, 96
9, 16384, Note_on_c, 7, 57, 0
9, 16452, Note_on_c, 7, 58, 92
9, 16598, Note_on_c, 7, 58, 0
9, 16656, Note_on_c, 7, 55, 82
9, 16798, Note_on_c, 7, 55, 0
9, 16868, Note_on_c, 7, 53, 89
9, 16966, Note_on_c, 7, 53, 0
9, 17052, Note_on_c, 7, 53, 81
9, 17150, Note_on_c, 7, 53, 0
9, 17242, Note_on_c, 7, 53, 91
9, 17316, Note_on_c, 7, 53, 0
9, 17432, Note_on_c, 7, 53, 90
9, 17516, Note_on_c, 7, 53, 0
9, 17624, Note_on_c, 7, 53, 90
9, 17688, Note_on_c, 7, 53, 0
9, 17820, Note_on_c, 7, 53, 77
9, 17878, Note_on_c, 7, 53, 0
9, 18006, Note_on_c, 7, 53, 88
9, 18062, Note_on_c, 7, 53, 0
9, 18196, Note_on_c, 7, 53, 90
9, 18250, Note_on_c, 7, 53, 0
9, 18392, Note_on_c, 7, 53, 91
9, 18458, Note_on_c, 7, 53, 0
9, 18588, Note_on_c, 7, 53, 88
9, 18656, Note_on_c, 7, 53, 0
9, 18782, Note_on_c, 7, 53, 94
9, 18864, Note_on_c, 7, 53, 0
9, 18976, Note_on_c, 7, 53, 90
9, 19052, Note_on_c, 7, 53, 0
9, 19168, Note_on_c, 7, 53, 90
9, 19260, Note_on_c, 7, 53, 0
9, 19356, Note_on_c, 7, 53, 85
9, 19430, Note_on_c, 7, 53, 0
9, 19548, Note_on_c, 7, 53, 92
9, 19628, Note_on_c, 7, 53, 0
9, 19736, Note_on_c, 7, 53, 92
9, 19844, Note_on_c, 7, 53, 0
9, 19938, Note_on_c, 7, 54, 97
9, 20076, Note_on_c, 7, 54, 0
9, 20122, Note_on_c, 7, 42, 98
9, 20254, Note_on_c, 7, 42, 0
9, 20308, Note_on_c, 7, 45, 94
9, 20430, Note_on_c, 7, 45, 0
9, 20506, Note_on_c, 7, 48, 96
9, 20602, Note_on_c, 7, 48, 0
9, 20688, Note_on_c, 7, 54, 93
9, 20826, Note_on_c, 7, 54, 0
9, 20886, Note_on_c, 7, 60, 85
9, 21016, Note_on_c, 7, 60, 0
9, 21086, Note_on_c, 7, 57, 99
9, 21198, Note_on_c, 7, 57, 0
9, 21270, Note_on_c, 7, 54, 86
9, 21382, Note_on_c, 7, 54, 0
9, 21458, Note_on_c, 7, 55, 90
9, 21578, Note_on_c, 7, 55, 0
9, 21658, Note_on_c, 7, 55, 79
9, 21778, Note_on_c, 7, 55, 0
9, 21858, Note_on_c, 7, 55, 85
9, 21956, Note_on_c, 7, 55, 0
9, 22044, Note_on_c, 7, 55, 83
9, 22146, Note_on_c, 7, 55, 0
9, 22238, Note_on_c, 7, 55, 95
9, 22344, Note_on_c, 7, 55, 0
9, 22424, Note_on_c, 7, 55, 90
9, 22506, Note_on_c, 7, 55, 0
9, 22612, Note_on_c, 7, 55, 94
9, 22704, Note_on_c, 7, 55, 0
9, 22804, Note_on_c, 7, 55, 91
9, 22900, Note_on_c, 7, 55, 0
9, 23008, Note_on_c, 7, 55, 99
9, 23108, Note_on_c, 7, 55, 0
9, 23202, Note_on_c, 7, 55, 89
9, 23296, Note_on_c, 7, 55, 0
9, 23398, Note_on_c, 7, 55, 95
9, 23464, Note_on_c, 7, 55, 0
9, 23578, Note_on_c, 7, 55, 94
9, 23638, Note_on_c, 7, 55, 0
9, 23766, Note_on_c, 7, 55, 96
9, 23820, Note_on_c, 7, 55, 0
9, 23952, Note_on_c, 7, 55, 95
9, 24004, Note_on_c, 7, 55, 0
9, 24138, Note_on_c, 7, 55, 91
9, 24192, Note_on_c, 7, 55, 0
9, 24326, Note_on_c, 7, 55, 85
9, 24372, Note_on_c, 7, 55, 0
9, 24526, Note_on_c, 7, 56, 101
9, 24652, Note_on_c, 7, 56, 0
9, 24722, Note_on_c, 7, 44, 93
9, 24828, Note_on_c, 7, 44, 0
9, 24902, Note_on_c, 7, 47, 88
9, 24996, Note_on_c, 7, 47, 0
9, 25088, Note_on_c, 7, 50, 99
9, 25162, Note_on_c, 7, 50, 0
9, 25284, Note_on_c, 7, 56, 95
9, 25400, Note_on_c, 7, 56, 0
9, 25486, Note_on_c, 7, 62, 87
9, 25590, Note_on_c, 7, 62, 0
9, 25684, Note_on_c, 7, 59, 90
9, 25784, Note_on_c, 7, 59, 0
9, 25884, Note_on_c, 7, 56, 88
9, 25994, Note_on_c, 7, 56, 0
9, 26074, Note_on_c, 7, 45, 108
9, 26194, Note_on_c, 7, 45, 0
9, 26270, Note_on_c, 7, 48, 92
9, 26380, Note_on_c, 7, 48, 0
9, 26456, Note_on_c, 7, 52, 85
9, 26558, Note_on_c, 7, 52, 0
9, 26650, Note_on_c, 7, 57, 87
9, 26742, Note_on_c, 7, 57, 0
9, 26834, Note_on_c, 7, 47, 108
9, 26966, Note_on_c, 7, 47, 0
9, 27032, Note_on_c, 7, 50, 92
9, 27102, Note_on_c, 7, 50, 0
9, 27232, Note_on_c, 7, 56, 88
9, 27298, Note_on_c, 7, 56, 0
9, 27422, Note_on_c, 7, 59, 91
9, 27532, Note_on_c, 7, 59, 0
9, 27616, Note_on_c, 7, 48, 96
9, 27754, Note_on_c, 7, 48, 0
9, 27808, Note_on_c, 7, 52, 80
9, 27902, Note_on_c, 7, 52, 0
9, 27996, Note_on_c, 7, 57, 88
9, 28090, Note_on_c, 7, 57, 0
9, 28190, Note_on_c, 7, 60, 77
9, 28304, Note_on_c, 7, 60, 0
9, 28376, Note_on_c, 7, 50, 94
9, 28524, Note_on_c, 7, 50, 0
9, 28574, Note_on_c, 7, 53, 84
9, 28674, Note_on_c, 7, 53, 0
9, 28774, Note_on_c, 7, 59, 82
9, 28872, Note_on_c, 7, 59, 0
9, 28960, Note_on_c, 7, 62, 85
9, 29038, Note_on_c, 7, 62, 0
9, 29160, Note_on_c, 7, 64, 96
9, 29280, Note_on_c, 7, 64, 0
9, 29344, Note_on_c, 7, 52, 96
9, 29462, Note_on_c, 7, 52, 0
9, 29530, Note_on_c, 7, 57, 95
9, 29632, Note_on_c, 7, 57, 0
9, 29718, Note_on_c, 7, 60, 94
9, 29794, Note_on_c, 7, 60, 0
9, 29918, Note_on_c, 7, 64, 99
9, 30032, Note_on_c, 7, 64, 0
9, 30096, Note_on_c, 7, 64, 92
9, 30198, Note_on_c, 7, 64, 0
9, 30292, Note_on_c, 7, 52, 89
9, 30402, Note_on_c, 7, 52, 0
9, 30468, Note_on_c, 7, 52, 83
9, 30584, Note_on_c, 7, 52, 0
9, 30658, Note_on_c, 7, 57, 105
9, 30860, Note_on_c, 7, 57, 0
9, 31648, Note_on_c, 7, 60, 82
9, 31790, Note_on_c, 7, 60, 0
9, 31838, Note_on_c, 7, 59, 84
9, 31984, Note_on_c, 7, 59, 0
9, 32020, Note_on_c, 7, 57, 84
9, 32160, Note_on_c, 7, 57, 0
9, 32214, Note_on_c, 7, 56, 84
9, 32354, Note_on_c, 7, 56, 0
9, 32398, Note_on_c, 7, 65, 80
9, 32536, Note_on_c, 7, 65, 0
9, 32590, Note_on_c, 7, 62, 85
9, 32750, Note_on_c, 7, 62, 0
9, 32780, Note_on_c, 7, 60, 78
9, 32914, Note_on_c, 7, 60, 0
9, 32980, Note_on_c, 7, 59, 90
9, 33140, Note_on_c, 7, 59, 0
9, 33176, Note_on_c, 7, 57, 85
9, 33302, Note_on_c, 7, 57, 0
9, 33372, Note_on_c, 7, 56, 88
9, 33518, Note_on_c, 7, 56, 0
9, 33564, Note_on_c, 7, 59, 84
9, 33684, Note_on_c, 7, 59, 0
9, 33756, Note_on_c, 7, 57, 95
9, 33866, Note_on_c, 7, 57, 0
9, 33952, Note_on_c, 7, 48, 99
9, 34094, Note_on_c, 7, 48, 0
9, 34142, Note_on_c, 7, 50, 91
9, 34280, Note_on_c, 7, 50, 0
9, 34332, Note_on_c, 7, 53, 88
9, 34476, Note_on_c, 7, 53, 0
9, 34532, Note_on_c, 7, 52, 94
9, 34660, Note_on_c, 7, 52, 0
9, 34714, Note_on_c, 7, 50, 79
9, 34836, Note_on_c, 7, 50, 0
9, 34906, Note_on_c, 7, 52, 80
9, 35032, Note_on_c, 7, 52, 0
9, 35098, Note_on_c, 7, 40, 81
9, 35240, Note_on_c, 7, 40, 0
9, 35288, Note_on_c, 7, 45, 103
9, 35418, Note_on_c, 7, 45, 0
9, 35470, Note_on_c, 7, 48, 87
9, 35580, Note_on_c, 7, 48, 0
9, 35660, Note_on_c, 7, 52, 74
9, 35794, Note_on_c, 7, 52, 0
9, 35864, Note_on_c, 7, 57, 90
9, 35984, Note_on_c, 7, 57, 0
9, 36058, Note_on_c, 7, 45, 103
9, 36206, Note_on_c, 7, 45, 0
9, 36254, Note_on_c, 7, 48, 77
9, 36350, Note_on_c, 7, 48, 0
9, 36436, Note_on_c, 7, 52, 80
9, 36506, Note_on_c, 7, 52, 0
9, 36632, Note_on_c, 7, 57, 78
9, 36726, Note_on_c, 7, 57, 0
9, 36832, Note_on_c, 7, 45, 94
9, 36944, Note_on_c, 7, 45, 0
9, 37024, Note_on_c, 7, 57, 105
9, 37260, Note_on_c, 7, 57, 0
9, 37402, Note_on_c, 7, 57, 110
9, 37626, Note_on_c, 7, 57, 0
9, 37790, Note_on_c, 7, 57, 108
9, 38012, Note_on_c, 7, 57, 0
9, 38178, Note_on_c, 7, 57, 88
9, 38270, Note_on_c, 7, 57, 0
9, 38354, Note_on_c, 7, 44, 91
9, 38516, Note_on_c, 7, 44, 0
9, 38546, Note_on_c, 7, 47, 77
9, 38670, Note_on_c, 7, 47, 0
9, 38750, Note_on_c, 7, 52, 80
9, 38882, Note_on_c, 7, 52, 0
9, 38946, Note_on_c, 7, 56, 72
9, 39086, Note_on_c, 7, 56, 0
9, 39136, Note_on_c, 7, 44, 90
9, 39260, Note_on_c, 7, 44, 0
9, 39304, Note_on_c, 7, 47, 78
9, 39424, Note_on_c, 7, 47, 0
9, 39500, Note_on_c, 7, 52, 83
9, 39606, Note_on_c, 7, 52, 0
9, 39698, Note_on_c, 7, 56, 78
9, 39776, Note_on_c, 7, 56, 0
9, 39884, Note_on_c, 7, 45, 94
9, 40030, Note_on_c, 7, 45, 0
9, 40092, Note_on_c, 7, 57, 105
9, 40338, Note_on_c, 7, 57, 0
9, 40470, Note_on_c, 7, 57, 110
9, 40700, Note_on_c, 7, 57, 0
9, 40860, Note_on_c, 7, 57, 105
9, 41092, Note_on_c, 7, 57, 0
9, 41252, Note_on_c, 7, 57, 95
9, 41296, Note_on_c, 7, 57, 0
9, 41436, Note_on_c, 7, 62, 105
9, 41652, Note_on_c, 7, 62, 0
9, 41832, Note_on_c, 7, 60, 103
9, 42004, Note_on_c, 7, 60, 0
9, 42608, Note_on_c, 7, 60, 103
9, 42796, Note_on_c, 7, 60, 0
9, 42998, Note_on_c, 7, 59, 103
9, 43200, Note_on_c, 7, 59, 0
9, 43374, Note_on_c, 7, 57, 99
9, 43554, Note_on_c, 7, 57, 0
9, 43944, Note_on_c, 7, 45, 103
9, 44080, Note_on_c, 7, 45, 0
9, 44134, Note_on_c, 7, 57, 96
9, 44256, Note_on_c, 7, 57, 0
9, 44316, Note_on_c, 7, 55, 94
9, 44450, Note_on_c, 7, 55, 0
9, 44506, Note_on_c, 7, 53, 105
9, 44642, Note_on_c, 7, 53, 0
9, 44700, Note_on_c, 7, 65, 101
9, 44842, Note_on_c, 7, 65, 0
9, 44894, Note_on_c, 7, 64, 96
9, 45036, Note_on_c, 7, 64, 0
9, 45082, Note_on_c, 7, 52, 94
9, 45212, Note_on_c, 7, 52, 0
9, 45274, Note_on_c, 7, 50, 95
9, 45410, Note_on_c, 7, 50, 0
9, 45466, Note_on_c, 7, 62, 91
9, 45568, Note_on_c, 7, 62, 0
9, 45650, Note_on_c, 7, 57, 101
9, 45772, Note_on_c, 7, 57, 0
9, 45844, Note_on_c, 7, 45, 91
9, 45972, Note_on_c, 7, 45, 0
9, 46040, Note_on_c, 7, 52, 95
9, 46172, Note_on_c, 7, 52, 0
9, 46236, Note_on_c, 7, 64, 94
9, 46356, Note_on_c, 7, 64, 0
9, 46440, Note_on_c, 7, 52, 91
9, 46542, Note_on_c, 7, 52, 0
9, 46626, Note_on_c, 7, 52, 89
9, 46718, Note_on_c, 7, 52, 0
9, 46820, Note_on_c, 7, 52, 90
9, 46920, Note_on_c, 7, 52, 0
9, 47016, Note_on_c, 7, 52, 82
9, 47110, Note_on_c, 7, 52, 0
9, 47216, Note_on_c, 7, 52, 82
9, 47296, Note_on_c, 7, 52, 0
9, 47396, Note_on_c, 7, 52, 79
9, 47490, Note_on_c, 7, 52, 0
9, 47586, Note_on_c, 7, 50, 81
9, 47694, Note_on_c, 7, 50, 0
9, 47788, Note_on_c, 7, 50, 78
9, 47888, Note_on_c, 7, 50, 0
9, 47984, Note_on_c, 7, 50, 80
9, 48076, Note_on_c, 7, 50, 0
9, 48162, Note_on_c, 7, 50, 88
9, 48290, Note_on_c, 7, 50, 0
9, 48362, Note_on_c, 7, 55, 70
9, 48470, Note_on_c, 7, 55, 0
9, 48542, Note_on_c, 7, 55, 75
9, 48642, Note_on_c, 7, 55, 0
9, 48732, Note_on_c, 7, 55, 81
9, 48824, Note_on_c, 7, 55, 0
9, 48918, Note_on_c, 7, 55, 77
9, 49032, Note_on_c, 7, 55, 0
9, 49120, Note_on_c, 7, 48, 88
9, 49134, Note_on_c, 7, 48, 0
9, 49134, Note_on_c, 7, 48, 101
9, 49248, Note_on_c, 7, 48, 0
9, 49316, Note_on_c, 7, 51, 86
9, 49444, Note_on_c, 7, 51, 0
9, 49504, Note_on_c, 7, 55, 79
9, 49650, Note_on_c, 7, 55, 0
9, 49700, Note_on_c, 7, 60, 81
9, 49846, Note_on_c, 7, 60, 0
9, 49896, Note_on_c, 7, 48, 94
9, 50058, Note_on_c, 7, 48, 0
9, 50080, Note_on_c, 7, 51, 81
9, 50196, Note_on_c, 7, 51, 0
9, 50260, Note_on_c, 7, 55, 77
9, 50372, Note_on_c, 7, 55, 0
9, 50458, Note_on_c, 7, 60, 72
9, 50584, Note_on_c, 7, 60, 0
9, 50652, Note_on_c, 7, 48, 91
9, 50772, Note_on_c, 7, 48, 0
9, 50848, Note_on_c, 7, 60, 78
9, 50966, Note_on_c, 7, 60, 0
9, 51042, Note_on_c, 7, 60, 80
9, 51152, Note_on_c, 7, 60, 0
9, 51230, Note_on_c, 7, 60, 87
9, 51334, Note_on_c, 7, 60, 0
9, 51426, Note_on_c, 7, 60, 84
9, 51532, Note_on_c, 7, 60, 0
9, 51622, Note_on_c, 7, 60, 87
9, 51728, Note_on_c, 7, 60, 0
9, 51816, Note_on_c, 7, 60, 88
9, 51910, Note_on_c, 7, 60, 0
9, 52000, Note_on_c, 7, 60, 87
9, 52104, Note_on_c, 7, 60, 0
9, 52206, Note_on_c, 7, 60, 94
9, 52314, Note_on_c, 7, 60, 0
9, 52386, Note_on_c, 7, 60, 76
9, 52466, Note_on_c, 7, 60, 0
9, 52576, Note_on_c, 7, 58, 76
9, 52664, Note_on_c, 7, 58, 0
9, 52754, Note_on_c, 7, 58, 76
9, 52884, Note_on_c, 7, 58, 0
9, 52956, Note_on_c, 7, 58, 90
9, 53106, Note_on_c, 7, 58, 0
9, 53144, Note_on_c, 7, 55, 72
9, 53284, Note_on_c, 7, 55, 0
9, 53340, Note_on_c, 7, 52, 80
9, 53476, Note_on_c, 7, 52, 0
9, 53530, Note_on_c, 7, 48, 80
9, 53614, Note_on_c, 7, 48, 0
9, 53728, Note_on_c, 7, 46, 93
9, 53850, Note_on_c, 7, 46, 0
9, 53912, Note_on_c, 7, 52, 76
9, 54050, Note_on_c, 7, 52, 0
9, 54114, Note_on_c, 7, 55, 80
9, 54222, Note_on_c, 7, 55, 0
9, 54302, Note_on_c, 7, 58, 84
9, 54426, Note_on_c, 7, 58, 0
9, 54486, Note_on_c, 7, 46, 101
9, 54628, Note_on_c, 7, 46, 0
9, 54684, Note_on_c, 7, 52, 85
9, 54792, Note_on_c, 7, 52, 0
9, 54864, Note_on_c, 7, 55, 88
9, 54968, Note_on_c, 7, 55, 0
9, 55056, Note_on_c, 7, 58, 84
9, 55136, Note_on_c, 7, 58, 0
9, 55260, Note_on_c, 7, 58, 98
9, 55400, Note_on_c, 7, 58, 0
9, 55456, Note_on_c, 7, 58, 86
9, 55586, Note_on_c, 7, 58, 0
9, 55644, Note_on_c, 7, 57, 96
9, 55780, Note_on_c, 7, 57, 0
9, 55858, Note_on_c, 7, 57, 94
9, 55976, Note_on_c, 7, 57, 0
9, 56044, Note_on_c, 7, 57, 99
9, 56164, Note_on_c, 7, 57, 0
9, 56232, Note_on_c, 7, 57, 91
9, 56348, Note_on_c, 7, 57, 0
9, 56416, Note_on_c, 7, 55, 95
9, 56516, Note_on_c, 7, 55, 0
9, 56606, Note_on_c, 7, 55, 85
9, 56712, Note_on_c, 7, 55, 0
9, 56802, Note_on_c, 7, 55, 95
9, 56912, Note_on_c, 7, 55, 0
9, 56990, Note_on_c, 7, 55, 80
9, 57096, Note_on_c, 7, 55, 0
9, 57172, Note_on_c, 7, 53, 91
9, 57266, Note_on_c, 7, 53, 0
9, 57366, Note_on_c, 7, 53, 88
9, 57494, Note_on_c, 7, 53, 0
9, 57566, Note_on_c, 7, 53, 92
9, 57690, Note_on_c, 7, 53, 0
9, 57746, Note_on_c, 7, 50, 89
9, 57890, Note_on_c, 7, 50, 0
9, 57936, Note_on_c, 7, 45, 80
9, 58058, Note_on_c, 7, 45, 0
9, 58118, Note_on_c, 7, 41, 85
9, 58246, Note_on_c, 7, 41, 0
9, 58318, Note_on_c, 7, 43, 99
9, 58454, Note_on_c, 7, 43, 0
9, 58500, Note_on_c, 7, 46, 88
9, 58628, Note_on_c, 7, 46, 0
9, 58692, Note_on_c, 7, 51, 83
9, 58812, Note_on_c, 7, 51, 0
9, 58896, Note_on_c, 7, 55, 75
9, 59044, Note_on_c, 7, 55, 0
9, 59100, Note_on_c, 7, 45, 101
9, 59224, Note_on_c, 7, 45, 0
9, 59280, Note_on_c, 7, 48, 80
9, 59398, Note_on_c, 7, 48, 0
9, 59488, Note_on_c, 7, 54, 86
9, 59600, Note_on_c, 7, 54, 0
9, 59672, Note_on_c, 7, 57, 82
9, 59766, Note_on_c, 7, 57, 0
9, 59866, Note_on_c, 7, 46, 99
9, 60002, Note_on_c, 7, 46, 0
9, 60064, Note_on_c, 7, 50, 89
9, 60196, Note_on_c, 7, 50, 0
9, 60254, Note_on_c, 7, 55, 89
9, 60374, Note_on_c, 7, 55, 0
9, 60448, Note_on_c, 7, 58, 90
9, 60566, Note_on_c, 7, 58, 0
9, 60642, Note_on_c, 7, 45, 95
9, 60762, Note_on_c, 7, 45, 0
9, 60826, Note_on_c, 7, 48, 80
9, 60932, Note_on_c, 7, 48, 0
9, 61018, Note_on_c, 7, 53, 84
9, 61120, Note_on_c, 7, 53, 0
9, 61210, Note_on_c, 7, 57, 88
9, 61326, Note_on_c, 7, 57, 0
9, 61410, Note_on_c, 7, 43, 94
9, 61540, Note_on_c, 7, 43, 0
9, 61596, Note_on_c, 7, 46, 89
9, 61698, Note_on_c, 7, 46, 0
9, 61776, Note_on_c, 7, 51, 93
9, 61898, Note_on_c, 7, 51, 0
9, 61974, Note_on_c, 7, 55, 87
9, 62104, Note_on_c, 7, 55, 0
9, 62176, Note_on_c, 7, 44, 90
9, 62306, Note_on_c, 7, 44, 0
9, 62362, Note_on_c, 7, 47, 82
9, 62470, Note_on_c, 7, 47, 0
9, 62556, Note_on_c, 7, 50, 96
9, 62662, Note_on_c, 7, 50, 0
9, 62736, Note_on_c, 7, 56, 94
9, 62872, Note_on_c, 7, 56, 0
9, 62930, Note_on_c, 7, 57, 108
9, 63208, Note_on_c, 7, 57, 0
9, 63326, Note_on_c, 7, 45, 95
9, 63554, Note_on_c, 7, 45, 0
9, 63714, Note_on_c, 7, 57, 110
9, 64172, Note_on_c, 7, 57, 0
9, 64288, Note_on_c, 7, 57, 105
9, 64446, Note_on_c, 7, 57, 0
9, 64486, Note_on_c, 7, 56, 101
9, 64630, Note_on_c, 7, 56, 0
9, 64686, Note_on_c, 7, 57, 103
9, 64800, Note_on_c, 7, 57, 0
9, 64868, Note_on_c, 7, 56, 98
9, 64996, Note_on_c, 7, 56, 0
9, 65052, Note_on_c, 7, 57, 92
9, 65174, Note_on_c, 7, 57, 0
9, 65246, Note_on_c, 7, 56, 95
9, 65380, Note_on_c, 7, 56, 0
9, 65436, Note_on_c, 7, 57, 95
9, 65548, Note_on_c, 7, 57, 0
9, 65626, Note_on_c, 7, 56, 95
9, 65736, Note_on_c, 7, 56, 0
9, 65806, Note_on_c, 7, 57, 91
9, 65948, Note_on_c, 7, 57, 0
9, 66020, Note_on_c, 7, 58, 98
9, 66358, Note_on_c, 7, 58, 0
9, 66398, Note_on_c, 7, 57, 101
9, 66572, Note_on_c, 7, 57, 0
9, 66800, Note_on_c, 7, 61, 106
9, 67290, Note_on_c, 7, 61, 0
9, 67354, Note_on_c, 7, 61, 93
9, 67538, Note_on_c, 7, 61, 0
9, 67558, Note_on_c, 7, 62, 88
9, 67916, Note_on_c, 7, 62, 0
9, 67958, Note_on_c, 7, 61, 87
9, 68132, Note_on_c, 7, 61, 0
9, 68330, Note_on_c, 7, 61, 91
9, 68792, Note_on_c, 7, 61, 0
9, 68896, Note_on_c, 7, 61, 92
9, 69072, Note_on_c, 7, 61, 0
9, 69092, Note_on_c, 7, 62, 89
9, 69434, Note_on_c, 7, 62, 0
9, 69474, Note_on_c, 7, 61, 91
9, 69624, Note_on_c, 7, 61, 0
9, 69854, Note_on_c, 7, 57, 103
9, 70300, Note_on_c, 7, 57, 0
9, 70424, Note_on_c, 7, 57, 101
9, 70558, Note_on_c, 7, 57, 0
9, 70618, Note_on_c, 7, 56, 95
9, 70762, Note_on_c, 7, 56, 0
9, 70816, Note_on_c, 7, 57, 95
9, 70952, Note_on_c, 7, 57, 0
9, 71002, Note_on_c, 7, 56, 92
9, 71140, Note_on_c, 7, 56, 0
9, 71202, Note_on_c, 7, 57, 91
9, 71340, Note_on_c, 7, 57, 0
9, 71400, Note_on_c, 7, 56, 90
9, 71540, Note_on_c, 7, 56, 0
9, 71594, Note_on_c, 7, 57, 87
9, 71720, Note_on_c, 7, 57, 0
9, 71780, Note_on_c, 7, 56, 88
9, 71900, Note_on_c, 7, 56, 0
9, 71954, Note_on_c, 7, 57, 88
9, 72096, Note_on_c, 7, 57, 0
9, 72154, Note_on_c, 7, 58, 92
9, 72404, Note_on_c, 7, 58, 0
9, 72534, Note_on_c, 7, 57, 103
9, 72722, Note_on_c, 7, 57, 0
9, 72950, Note_on_c, 7, 61, 100
9, 73412, Note_on_c, 7, 61, 0
9, 73500, Note_on_c, 7, 61, 88
9, 73688, Note_on_c, 7, 61, 0
9, 73702, Note_on_c, 7, 62, 88
9, 74050, Note_on_c, 7, 62, 0
9, 74092, Note_on_c, 7, 61, 93
9, 74336, Note_on_c, 7, 61, 0
9, 74494, Note_on_c, 7, 61, 101
9, 74954, Note_on_c, 7, 61, 0
9, 75048, Note_on_c, 7, 61, 91
9, 75218, Note_on_c, 7, 61, 0
9, 75248, Note_on_c, 7, 62, 92
9, 75584, Note_on_c, 7, 62, 0
9, 75616, Note_on_c, 7, 61, 93
9, 75778, Note_on_c, 7, 61, 0
9, 75994, Note_on_c, 7, 57, 99
9, 76416, Note_on_c, 7, 57, 0
9, 76568, Note_on_c, 7, 57, 99
9, 76726, Note_on_c, 7, 57, 0
9, 76764, Note_on_c, 7, 56, 94
9, 76908, Note_on_c, 7, 56, 0
9, 76958, Note_on_c, 7, 57, 94
9, 77094, Note_on_c, 7, 57, 0
9, 77148, Note_on_c, 7, 56, 98
9, 77268, Note_on_c, 7, 56, 0
9, 77344, Note_on_c, 7, 57, 94
9, 77480, Note_on_c, 7, 57, 0
9, 77544, Note_on_c, 7, 56, 99
9, 77686, Note_on_c, 7, 56, 0
9, 77736, Note_on_c, 7, 57, 92
9, 77858, Note_on_c, 7, 57, 0
9, 77924, Note_on_c, 7, 56, 97
9, 78040, Note_on_c, 7, 56, 0
9, 78110, Note_on_c, 7, 57, 95
9, 78228, Note_on_c, 7, 57, 0
9, 78304, Note_on_c, 7, 58, 94
9, 78474, Note_on_c, 7, 58, 0
9, 78494, Note_on_c, 7, 46, 109
9, 78612, Note_on_c, 7, 46, 0
9, 78688, Note_on_c, 7, 58, 98
9, 78816, Note_on_c, 7, 58, 0
9, 78882, Note_on_c, 7, 58, 98
9, 79016, Note_on_c, 7, 58, 0
9, 79072, Note_on_c, 7, 58, 90
9, 79216, Note_on_c, 7, 58, 0
9, 79264, Note_on_c, 7, 58, 87
9, 79406, Note_on_c, 7, 58, 0
9, 79464, Note_on_c, 7, 58, 93
9, 79600, Note_on_c, 7, 58, 0
9, 79644, Note_on_c, 7, 58, 84
9, 79762, Note_on_c, 7, 58, 0
9, 79844, Note_on_c, 7, 60, 99
9, 79994, Note_on_c, 7, 60, 0
9, 80038, Note_on_c, 7, 58, 95
9, 80162, Note_on_c, 7, 58, 0
9, 80226, Note_on_c, 7, 60, 95
9, 80366, Note_on_c, 7, 60, 0
9, 80418, Note_on_c, 7, 58, 94
9, 80538, Note_on_c, 7, 58, 0
9, 80610, Note_on_c, 7, 60, 92
9, 80732, Note_on_c, 7, 60, 0
9, 80804, Note_on_c, 7, 58, 90
9, 80900, Note_on_c, 7, 58, 0
9, 80992, Note_on_c, 7, 60, 90
9, 81086, Note_on_c, 7, 60, 0
9, 81170, Note_on_c, 7, 58, 89
9, 81290, Note_on_c, 7, 58, 0
9, 81360, Note_on_c, 7, 57, 95
9, 81584, Note_on_c, 7, 57, 0
9, 81746, Note_on_c, 7, 45, 103
9, 82132, Note_on_c, 7, 45, 0
9, 82528, Note_on_c, 7, 57, 101
9, 82658, Note_on_c, 7, 57, 0
9, 82720, Note_on_c, 7, 57, 95
9, 82890, Note_on_c, 7, 57, 0
9, 82920, Note_on_c, 7, 62, 92
9, 83096, Note_on_c, 7, 62, 0
9, 83110, Note_on_c, 7, 50, 88
9, 83248, Note_on_c, 7, 50, 0
9, 83298, Note_on_c, 7, 45, 84
9, 83418, Note_on_c, 7, 45, 0
9, 83494, Note_on_c, 7, 57, 101
9, 83612, Note_on_c, 7, 57, 0
9, 83692, Note_on_c, 7, 62, 92
9, 83840, Note_on_c, 7, 62, 0
9, 83864, Note_on_c, 7, 50, 83
9, 83986, Note_on_c, 7, 50, 0
9, 84050, Note_on_c, 7, 45, 89
9, 84200, Note_on_c, 7, 45, 0
9, 84242, Note_on_c, 7, 57, 96
9, 84316, Note_on_c, 7, 57, 0
9, 84436, Note_on_c, 7, 62, 94
9, 84558, Note_on_c, 7, 62, 0
9, 84628, Note_on_c, 7, 50, 91
9, 84764, Note_on_c, 7, 50, 0
9, 84818, Note_on_c, 7, 57, 108
9, 85126, Note_on_c, 7, 57, 0
9, 85614, Note_on_c, 7, 62, 101
9, 85750, Note_on_c, 7, 62, 0
9, 85780, Note_on_c, 7, 50, 92
9, 85922, Note_on_c, 7, 50, 0
9, 85984, Note_on_c, 7, 49, 102
9, 86118, Note_on_c, 7, 49, 0
9, 86166, Note_on_c, 7, 61, 91
9, 86292, Note_on_c, 7, 61, 0
9, 86358, Note_on_c, 7, 62, 92
9, 86504, Note_on_c, 7, 62, 0
9, 86550, Note_on_c, 7, 50, 96
9, 86686, Note_on_c, 7, 50, 0
9, 86752, Note_on_c, 7, 49, 101
9, 86864, Note_on_c, 7, 49, 0
9, 86930, Note_on_c, 7, 61, 88
9, 87068, Note_on_c, 7, 61, 0
9, 87130, Note_on_c, 7, 62, 90
9, 87278, Note_on_c, 7, 62, 0
9, 87308, Note_on_c, 7, 50, 95
9, 87438, Note_on_c, 7, 50, 0
9, 87506, Note_on_c, 7, 49, 101
9, 87620, Note_on_c, 7, 49, 0
9, 87696, Note_on_c, 7, 61, 90
9, 87806, Note_on_c, 7, 61, 0
9, 87898, Note_on_c, 7, 62, 94
9, 87956, Note_on_c, 7, 62, 0
9, 88098, Note_on_c, 7, 57, 101
9, 88160, Note_on_c, 7, 57, 0
9, 88294, Note_on_c, 7, 53, 96
9, 88336, Note_on_c, 7, 53, 0
9, 88472, Note_on_c, 7, 50, 95
9, 88514, Note_on_c, 7, 50, 0
9, 88660, Note_on_c, 7, 53, 94
9, 88694, Note_on_c, 7, 53, 0
9, 88842, Note_on_c, 7, 57, 87
9, 88892, Note_on_c, 7, 57, 0
9, 89034, Note_on_c, 7, 50, 108
9, 89130, Note_on_c, 7, 50, 0
9, 89212, Note_on_c, 7, 53, 83
9, 89318, Note_on_c, 7, 53, 0
9, 89418, Note_on_c, 7, 57, 82
9, 89498, Note_on_c, 7, 57, 0
9, 89614, Note_on_c, 7, 62, 80
9, 89694, Note_on_c, 7, 62, 0
9, 89800, Note_on_c, 7, 50, 103
9, 89910, Note_on_c, 7, 50, 0
9, 89998, Note_on_c, 7, 53, 87
9, 90090, Note_on_c, 7, 53, 0
9, 90198, Note_on_c, 7, 57, 83
9, 90272, Note_on_c, 7, 57, 0
9, 90390, Note_on_c, 7, 62, 74
9, 90408, Note_on_c, 7, 62, 0
9, 90574, Note_on_c, 7, 41, 95
9, 90684, Note_on_c, 7, 41, 0
9, 90768, Note_on_c, 7, 45, 80
9, 90852, Note_on_c, 7, 45, 0
9, 90980, Note_on_c, 7, 50, 90
9, 91026, Note_on_c, 7, 50, 0
9, 91166, Note_on_c, 7, 53, 85
9, 91234, Note_on_c, 7, 53, 0
9, 91366, Note_on_c, 7, 41, 101
9, 91458, Note_on_c, 7, 41, 0
9, 91536, Note_on_c, 7, 45, 83
9, 91606, Note_on_c, 7, 45, 0
9, 91736, Note_on_c, 7, 50, 89
9, 91782, Note_on_c, 7, 50, 0
9, 91936, Note_on_c, 7, 53, 84
9, 92004, Note_on_c, 7, 53, 0
9, 92126, Note_on_c, 7, 46, 104
9, 92240, Note_on_c, 7, 46, 0
9, 92324, Note_on_c, 7, 50, 91
9, 92378, Note_on_c, 7, 50, 0
9, 92514, Note_on_c, 7, 53, 82
9, 92584, Note_on_c, 7, 53, 0
9, 92712, Note_on_c, 7, 58, 86
9, 92800, Note_on_c, 7, 58, 0
9, 92904, Note_on_c, 7, 40, 95
9, 93016, Note_on_c, 7, 40, 0
9, 93094, Note_on_c, 7, 43, 81
9, 93172, Note_on_c, 7, 43, 0
9, 93292, Note_on_c, 7, 46, 97
9, 93374, Note_on_c, 7, 46, 0
9, 93484, Note_on_c, 7, 52, 80
9, 93552, Note_on_c, 7, 52, 0
9, 93682, Note_on_c, 7, 45, 90
9, 93786, Note_on_c, 7, 45, 0
9, 93864, Note_on_c, 7, 57, 92
9, 93948, Note_on_c, 7, 57, 0
9, 94050, Note_on_c, 7, 50, 92
9, 94154, Note_on_c, 7, 50, 0
9, 94244, Note_on_c, 7, 53, 95
9, 94344, Note_on_c, 7, 53, 0
9, 94428, Note_on_c, 7, 57, 95
9, 94522, Note_on_c, 7, 57, 0
9, 94630, Note_on_c, 7, 55, 87
9, 94730, Note_on_c, 7, 55, 0
9, 94808, Note_on_c, 7, 57, 90
9, 94908, Note_on_c, 7, 57, 0
9, 94994, Note_on_c, 7, 45, 88
9, 95060, Note_on_c, 7, 45, 0
9, 95188, Note_on_c, 7, 50, 105
9, 95278, Note_on_c, 7, 50, 0
9, 95368, Note_on_c, 7, 53, 75
9, 95424, Note_on_c, 7, 53, 0
9, 95564, Note_on_c, 7, 57, 80
9, 95622, Note_on_c, 7, 57, 0
9, 95764, Note_on_c, 7, 62, 82
9, 95818, Note_on_c, 7, 62, 0
9, 95964, Note_on_c, 7, 50, 108
9, 96066, Note_on_c, 7, 50, 0
9, 96144, Note_on_c, 7, 53, 77
9, 96210, Note_on_c, 7, 53, 0
9, 96334, Note_on_c, 7, 57, 80
9, 96404, Note_on_c, 7, 57, 0
9, 96538, Note_on_c, 7, 62, 79
9, 96568, Note_on_c, 7, 62, 0
9, 96716, Note_on_c, 7, 46, 101
9, 96822, Note_on_c, 7, 46, 0
9, 96908, Note_on_c, 7, 50, 79
9, 96970, Note_on_c, 7, 50, 0
9, 97108, Note_on_c, 7, 53, 83
9, 97184, Note_on_c, 7, 53, 0
9, 97296, Note_on_c, 7, 58, 86
9, 97398, Note_on_c, 7, 58, 0
9, 97492, Note_on_c, 7, 46, 92
9, 97594, Note_on_c, 7, 46, 0
9, 97686, Note_on_c, 7, 50, 88
9, 97742, Note_on_c, 7, 50, 0
9, 97866, Note_on_c, 7, 53, 84
9, 97936, Note_on_c, 7, 53, 0
9, 98074, Note_on_c, 7, 58, 84
9, 98154, Note_on_c, 7, 58, 0
9, 98264, Note_on_c, 7, 43, 99
9, 98356, Note_on_c, 7, 43, 0
9, 98472, Note_on_c, 7, 46, 97
9, 98528, Note_on_c, 7, 46, 0
9, 98664, Note_on_c, 7, 51, 87
9, 98756, Note_on_c, 7, 51, 0
9, 98858, Note_on_c, 7, 55, 82
9, 98950, Note_on_c, 7, 55, 0
9, 99050, Note_on_c, 7, 43, 92
9, 99136, Note_on_c, 7, 43, 0
9, 99228, Note_on_c, 7, 46, 95
9, 99288, Note_on_c, 7, 46, 0
9, 99414, Note_on_c, 7, 51, 88
9, 99496, Note_on_c, 7, 51, 0
9, 99610, Note_on_c, 7, 55, 80
9, 99694, Note_on_c, 7, 55, 0
9, 99808, Note_on_c, 7, 45, 99
9, 99918, Note_on_c, 7, 45, 0
9, 100008, Note_on_c, 7, 57, 89
9, 100094, Note_on_c, 7, 57, 0
9, 100198, Note_on_c, 7, 50, 92
9, 100296, Note_on_c, 7, 50, 0
9, 100388, Note_on_c, 7, 53, 90
9, 100490, Note_on_c, 7, 53, 0
9, 100584, Note_on_c, 7, 57, 92
9, 100698, Note_on_c, 7, 57, 0
9, 100772, Note_on_c, 7, 55, 85
9, 100874, Note_on_c, 7, 55, 0
9, 100952, Note_on_c, 7, 57, 90
9, 101038, Note_on_c, 7, 57, 0
9, 101128, Note_on_c, 7, 45, 89
9, 101232, Note_on_c, 7, 45, 0
9, 101326, Note_on_c, 7, 50, 101
9, 101588, Note_on_c, 7, 50, 0
9, 101924, Note_on_c, 7, 57, 74
9, 102064, Note_on_c, 7, 57, 0
9, 102114, Note_on_c, 7, 62, 74
9, 102256, Note_on_c, 7, 62, 0
9, 102298, Note_on_c, 7, 65, 80
9, 102454, Note_on_c, 7, 65, 0
9, 102488, Note_on_c, 7, 64, 83
9, 102638, Note_on_c, 7, 64, 0
9, 102670, Note_on_c, 7, 62, 74
9, 102842, Note_on_c, 7, 62, 0
9, 102864, Note_on_c, 7, 61, 84
9, 103028, Note_on_c, 7, 61, 0
9, 103060, Note_on_c, 7, 58, 86
9, 103196, Note_on_c, 7, 58, 0
9, 103256, Note_on_c, 7, 55, 89
9, 103396, Note_on_c, 7, 55, 0
9, 103444, Note_on_c, 7, 53, 91
9, 103590, Note_on_c, 7, 53, 0
9, 103634, Note_on_c, 7, 52, 88
9, 103780, Note_on_c, 7, 52, 0
9, 103826, Note_on_c, 7, 50, 88
9, 103950, Note_on_c, 7, 50, 0
9, 104016, Note_on_c, 7, 49, 91
9, 104170, Note_on_c, 7, 49, 0
9, 104222, Note_on_c, 7, 52, 85
9, 104354, Note_on_c, 7, 52, 0
9, 104408, Note_on_c, 7, 50, 94
9, 104548, Note_on_c, 7, 50, 0
9, 104600, Note_on_c, 7, 53, 89
9, 104720, Note_on_c, 7, 53, 0
9, 104786, Note_on_c, 7, 55, 90
9, 104894, Note_on_c, 7, 55, 0
9, 104978, Note_on_c, 7, 58, 90
9, 105090, Note_on_c, 7, 58, 0
9, 105172, Note_on_c, 7, 57, 92
9, 105286, Note_on_c, 7, 57, 0
9, 105364, Note_on_c, 7, 55, 71
9, 105486, Note_on_c, 7, 55, 0
9, 105568, Note_on_c, 7, 57, 94
9, 105718, Note_on_c, 7, 57, 0
9, 105774, Note_on_c, 7, 45, 94
9, 105890, Note_on_c, 7, 45, 0
9, 105964, Note_on_c, 7, 50, 101
9, 106300, Note_on_c, 7, 50, 0
9, 106300, End_track
10, 0, Start_track
10, 0, Title_t, "bassi"
10, 400, Program_c, 8, 48
10, 401, Control_c, 8, 7, 124
10, 401, Control_c, 8, 10, 75
10, 480, Control_c, 8, 91, 120
10, 3048, Note_on_c, 8, 38, 101
10, 3178, Note_on_c, 8, 38, 0
10, 3246, Note_on_c, 8, 41, 83
10, 3334, Note_on_c, 8, 41, 0
10, 3436, Note_on_c, 8, 45, 78
10, 3520, Note_on_c, 8, 45, 0
10, 3632, Note_on_c, 8, 50, 84
10, 3740, Note_on_c, 8, 50, 0
10, 3816, Note_on_c, 8, 38, 91
10, 3972, Note_on_c, 8, 38, 0
10, 4006, Note_on_c, 8, 41, 78
10, 4080, Note_on_c, 8, 41, 0
10, 4194, Note_on_c, 8, 45, 85
10, 4262, Note_on_c, 8, 45, 0
10, 4386, Note_on_c, 8, 50, 83
10, 4446, Note_on_c, 8, 50, 0
10, 4566, Note_on_c, 8, 38, 96
10, 4654, Note_on_c, 8, 38, 0
10, 4778, Note_on_c, 8, 50, 101
10, 5000, Note_on_c, 8, 50, 0
10, 5144, Note_on_c, 8, 50, 99
10, 5368, Note_on_c, 8, 50, 0
10, 5524, Note_on_c, 8, 50, 99
10, 5770, Note_on_c, 8, 50, 0
10, 5912, Note_on_c, 8, 50, 95
10, 5990, Note_on_c, 8, 50, 0
10, 6084, Note_on_c, 8, 37, 90
10, 6216, Note_on_c, 8, 37, 0
10, 6274, Note_on_c, 8, 40, 71
10, 6366, Note_on_c, 8, 40, 0
10, 6472, Note_on_c, 8, 45, 81
10, 6562, Note_on_c, 8, 45, 0
10, 6676, Note_on_c, 8, 49, 75
10, 6778, Note_on_c, 8, 49, 0
10, 6852, Note_on_c, 8, 37, 85
10, 7004, Note_on_c, 8, 37, 0
10, 7048, Note_on_c, 8, 40, 72
10, 7160, Note_on_c, 8, 40, 0
10, 7268, Note_on_c, 8, 45, 81
10, 7346, Note_on_c, 8, 45, 0
10, 7458, Note_on_c, 8, 49, 76
10, 7530, Note_on_c, 8, 49, 0
10, 7652, Note_on_c, 8, 38, 89
10, 7758, Note_on_c, 8, 38, 0
10, 7852, Note_on_c, 8, 50, 103
10, 8076, Note_on_c, 8, 50, 0
10, 8216, Note_on_c, 8, 50, 105
10, 8434, Note_on_c, 8, 50, 0
10, 8576, Note_on_c, 8, 50, 94
10, 8794, Note_on_c, 8, 50, 0
10, 8970, Note_on_c, 8, 38, 94
10, 9090, Note_on_c, 8, 38, 0
10, 9162, Note_on_c, 8, 40, 96
10, 9360, Note_on_c, 8, 40, 0
10, 9560, Note_on_c, 8, 41, 90
10, 9750, Note_on_c, 8, 41, 0
10, 10352, Note_on_c, 8, 41, 108
10, 10544, Note_on_c, 8, 41, 0
10, 10728, Note_on_c, 8, 37, 94
10, 10924, Note_on_c, 8, 37, 0
10, 11116, Note_on_c, 8, 38, 94
10, 11292, Note_on_c, 8, 38, 0
10, 11690, Note_on_c, 8, 38, 101
10, 11816, Note_on_c, 8, 38, 0
10, 11886, Note_on_c, 8, 50, 91
10, 11994, Note_on_c, 8, 50, 0
10, 12060, Note_on_c, 8, 48, 87
10, 12136, Note_on_c, 8, 48, 0
10, 12254, Note_on_c, 8, 46, 100
10, 12356, Note_on_c, 8, 46, 0
10, 12450, Note_on_c, 8, 34, 90
10, 12590, Note_on_c, 8, 34, 0
10, 12646, Note_on_c, 8, 33, 90
10, 12782, Note_on_c, 8, 33, 0
10, 12838, Note_on_c, 8, 45, 91
10, 12956, Note_on_c, 8, 45, 0
10, 13018, Note_on_c, 8, 43, 83
10, 13134, Note_on_c, 8, 43, 0
10, 13208, Note_on_c, 8, 31, 89
10, 13346, Note_on_c, 8, 31, 0
10, 13402, Note_on_c, 8, 38, 95
10, 13506, Note_on_c, 8, 38, 0
10, 13594, Note_on_c, 8, 50, 91
10, 13732, Note_on_c, 8, 50, 0
10, 13774, Note_on_c, 8, 45, 94
10, 13908, Note_on_c, 8, 45, 0
10, 13968, Note_on_c, 8, 33, 84
10, 14084, Note_on_c, 8, 33, 0
10, 14182, Note_on_c, 8, 45, 88
10, 14270, Note_on_c, 8, 45, 0
10, 14362, Note_on_c, 8, 45, 90
10, 14436, Note_on_c, 8, 45, 0
10, 14568, Note_on_c, 8, 45, 74
10, 14606, Note_on_c, 8, 45, 0
10, 14744, Note_on_c, 8, 45, 69
10, 14786, Note_on_c, 8, 45, 0
10, 14934, Note_on_c, 8, 45, 79
10, 15008, Note_on_c, 8, 45, 0
10, 15124, Note_on_c, 8, 45, 73
10, 15200, Note_on_c, 8, 45, 0
10, 15312, Note_on_c, 8, 45, 71
10, 15382, Note_on_c, 8, 45, 0
10, 15492, Note_on_c, 8, 45, 78
10, 15600, Note_on_c, 8, 45, 0
10, 15692, Note_on_c, 8, 46, 84
10, 15814, Note_on_c, 8, 46, 0
10, 15880, Note_on_c, 8, 47, 83
10, 16010, Note_on_c, 8, 47, 0
10, 16072, Note_on_c, 8, 48, 81
10, 16172, Note_on_c, 8, 48, 0
10, 16266, Note_on_c, 8, 45, 79
10, 16362, Note_on_c, 8, 45, 0
10, 16458, Note_on_c, 8, 46, 80
10, 16564, Note_on_c, 8, 46, 0
10, 16656, Note_on_c, 8, 43, 66
10, 16756, Note_on_c, 8, 43, 0
10, 16872, Note_on_c, 8, 41, 113
10, 16992, Note_on_c, 8, 41, 0
10, 17062, Note_on_c, 8, 41, 95
10, 17172, Note_on_c, 8, 41, 0
10, 17260, Note_on_c, 8, 41, 92
10, 17354, Note_on_c, 8, 41, 0
10, 17440, Note_on_c, 8, 41, 82
10, 17520, Note_on_c, 8, 41, 0
10, 17626, Note_on_c, 8, 41, 81
10, 17700, Note_on_c, 8, 41, 0
10, 17812, Note_on_c, 8, 41, 72
10, 17870, Note_on_c, 8, 41, 0
10, 18002, Note_on_c, 8, 41, 80
10, 18072, Note_on_c, 8, 41, 0
10, 18202, Note_on_c, 8, 41, 76
10, 18276, Note_on_c, 8, 41, 0
10, 18402, Note_on_c, 8, 41, 94
10, 18490, Note_on_c, 8, 41, 0
10, 18602, Note_on_c, 8, 41, 81
10, 18676, Note_on_c, 8, 41, 0
10, 18794, Note_on_c, 8, 41, 82
10, 18864, Note_on_c, 8, 41, 0
10, 18968, Note_on_c, 8, 41, 72
10, 19042, Note_on_c, 8, 41, 0
10, 19166, Note_on_c, 8, 41, 83
10, 19240, Note_on_c, 8, 41, 0
10, 19356, Note_on_c, 8, 41, 83
10, 19448, Note_on_c, 8, 41, 0
10, 19544, Note_on_c, 8, 41, 80
10, 19646, Note_on_c, 8, 41, 0
10, 19742, Note_on_c, 8, 41, 80
10, 19828, Note_on_c, 8, 41, 0
10, 19944, Note_on_c, 8, 42, 100
10, 20088, Note_on_c, 8, 42, 0
10, 20126, Note_on_c, 8, 30, 89
10, 20236, Note_on_c, 8, 30, 0
10, 20310, Note_on_c, 8, 33, 80
10, 20420, Note_on_c, 8, 33, 0
10, 20500, Note_on_c, 8, 36, 88
10, 20582, Note_on_c, 8, 36, 0
10, 20692, Note_on_c, 8, 42, 91
10, 20838, Note_on_c, 8, 42, 0
10, 20892, Note_on_c, 8, 48, 79
10, 21014, Note_on_c, 8, 48, 0
10, 21090, Note_on_c, 8, 45, 84
10, 21208, Note_on_c, 8, 45, 0
10, 21264, Note_on_c, 8, 42, 92
10, 21350, Note_on_c, 8, 42, 0
10, 21438, Note_on_c, 8, 43, 90
10, 21540, Note_on_c, 8, 43, 0
10, 21638, Note_on_c, 8, 43, 82
10, 21714, Note_on_c, 8, 43, 0
10, 21854, Note_on_c, 8, 43, 84
10, 21922, Note_on_c, 8, 43, 0
10, 22046, Note_on_c, 8, 43, 81
10, 22110, Note_on_c, 8, 43, 0
10, 22246, Note_on_c, 8, 43, 90
10, 22310, Note_on_c, 8, 43, 0
10, 22444, Note_on_c, 8, 43, 80
10, 22504, Note_on_c, 8, 43, 0
10, 22638, Note_on_c, 8, 43, 85
10, 22698, Note_on_c, 8, 43, 0
10, 22820, Note_on_c, 8, 43, 79
10, 22886, Note_on_c, 8, 43, 0
10, 23014, Note_on_c, 8, 43, 89
10, 23080, Note_on_c, 8, 43, 0
10, 23212, Note_on_c, 8, 43, 81
10, 23278, Note_on_c, 8, 43, 0
10, 23402, Note_on_c, 8, 43, 88
10, 23462, Note_on_c, 8, 43, 0
10, 23584, Note_on_c, 8, 43, 79
10, 23636, Note_on_c, 8, 43, 0
10, 23778, Note_on_c, 8, 43, 89
10, 23840, Note_on_c, 8, 43, 0
10, 23958, Note_on_c, 8, 43, 80
10, 24030, Note_on_c, 8, 43, 0
10, 24148, Note_on_c, 8, 43, 84
10, 24214, Note_on_c, 8, 43, 0
10, 24342, Note_on_c, 8, 43, 81
10, 24396, Note_on_c, 8, 43, 0
10, 24538, Note_on_c, 8, 44, 98
10, 24662, Note_on_c, 8, 44, 0
10, 24730, Note_on_c, 8, 32, 87
10, 24838, Note_on_c, 8, 32, 0
10, 24912, Note_on_c, 8, 35, 80
10, 25016, Note_on_c, 8, 35, 0
10, 25110, Note_on_c, 8, 38, 92
10, 25194, Note_on_c, 8, 38, 0
10, 25304, Note_on_c, 8, 44, 92
10, 25438, Note_on_c, 8, 44, 0
10, 25500, Note_on_c, 8, 50, 89
10, 25604, Note_on_c, 8, 50, 0
10, 25690, Note_on_c, 8, 47, 82
10, 25766, Note_on_c, 8, 47, 0
10, 25878, Note_on_c, 8, 44, 86
10, 26006, Note_on_c, 8, 44, 0
10, 26082, Note_on_c, 8, 33, 99
10, 26200, Note_on_c, 8, 33, 0
10, 26254, Note_on_c, 8, 36, 81
10, 26348, Note_on_c, 8, 36, 0
10, 26450, Note_on_c, 8, 40, 73
10, 26546, Note_on_c, 8, 40, 0
10, 26642, Note_on_c, 8, 45, 78
10, 26726, Note_on_c, 8, 45, 0
10, 26846, Note_on_c, 8, 35, 101
10, 26958, Note_on_c, 8, 35, 0
10, 27032, Note_on_c, 8, 38, 79
10, 27094, Note_on_c, 8, 38, 0
10, 27232, Note_on_c, 8, 44, 86
10, 27308, Note_on_c, 8, 44, 0
10, 27418, Note_on_c, 8, 47, 79
10, 27494, Note_on_c, 8, 47, 0
10, 27614, Note_on_c, 8, 36, 96
10, 27730, Note_on_c, 8, 36, 0
10, 27808, Note_on_c, 8, 40, 77
10, 27894, Note_on_c, 8, 40, 0
10, 28004, Note_on_c, 8, 45, 85
10, 28074, Note_on_c, 8, 45, 0
10, 28192, Note_on_c, 8, 48, 76
10, 28272, Note_on_c, 8, 48, 0
10, 28398, Note_on_c, 8, 38, 88
10, 28498, Note_on_c, 8, 38, 0
10, 28568, Note_on_c, 8, 41, 77
10, 28664, Note_on_c, 8, 41, 0
10, 28760, Note_on_c, 8, 47, 80
10, 28832, Note_on_c, 8, 47, 0
10, 28952, Note_on_c, 8, 50, 81
10, 29042, Note_on_c, 8, 50, 0
10, 29154, Note_on_c, 8, 52, 94
10, 29252, Note_on_c, 8, 52, 0
10, 29334, Note_on_c, 8, 40, 88
10, 29428, Note_on_c, 8, 40, 0
10, 29524, Note_on_c, 8, 45, 89
10, 29624, Note_on_c, 8, 45, 0
10, 29724, Note_on_c, 8, 48, 81
10, 29802, Note_on_c, 8, 48, 0
10, 29918, Note_on_c, 8, 52, 88
10, 29996, Note_on_c, 8, 52, 0
10, 30100, Note_on_c, 8, 52, 85
10, 30196, Note_on_c, 8, 52, 0
10, 30294, Note_on_c, 8, 40, 88
10, 30388, Note_on_c, 8, 40, 0
10, 30486, Note_on_c, 8, 40, 84
10, 30592, Note_on_c, 8, 40, 0
10, 30676, Note_on_c, 8, 45, 99
10, 30790, Note_on_c, 8, 45, 0
10, 31654, Note_on_c, 8, 48, 65
10, 31772, Note_on_c, 8, 48, 0
10, 31828, Note_on_c, 8, 47, 77
10, 31966, Note_on_c, 8, 47, 0
10, 32014, Note_on_c, 8, 45, 75
10, 32154, Note_on_c, 8, 45, 0
10, 32208, Note_on_c, 8, 44, 79
10, 32376, Note_on_c, 8, 44, 0
10, 32408, Note_on_c, 8, 53, 74
10, 32542, Note_on_c, 8, 53, 0
10, 32598, Note_on_c, 8, 50, 73
10, 32740, Note_on_c, 8, 50, 0
10, 32786, Note_on_c, 8, 48, 71
10, 32912, Note_on_c, 8, 48, 0
10, 32978, Note_on_c, 8, 47, 76
10, 33134, Note_on_c, 8, 47, 0
10, 33192, Note_on_c, 8, 45, 83
10, 33322, Note_on_c, 8, 45, 0
10, 33380, Note_on_c, 8, 44, 74
10, 33496, Note_on_c, 8, 44, 0
10, 33566, Note_on_c, 8, 47, 70
10, 33702, Note_on_c, 8, 47, 0
10, 33756, Note_on_c, 8, 45, 83
10, 33884, Note_on_c, 8, 45, 0
10, 33948, Note_on_c, 8, 36, 74
10, 34062, Note_on_c, 8, 36, 0
10, 34136, Note_on_c, 8, 38, 79
10, 34270, Note_on_c, 8, 38, 0
10, 34324, Note_on_c, 8, 41, 77
10, 34448, Note_on_c, 8, 41, 0
10, 34524, Note_on_c, 8, 40, 73
10, 34638, Note_on_c, 8, 40, 0
10, 34710, Note_on_c, 8, 38, 73
10, 34812, Note_on_c, 8, 38, 0
10, 34900, Note_on_c, 8, 40, 49
10, 35026, Note_on_c, 8, 40, 0
10, 35084, Note_on_c, 8, 28, 74
10, 35116, Note_on_c, 8, 28, 0
10, 35284, Note_on_c, 8, 33, 99
10, 35414, Note_on_c, 8, 33, 0
10, 35470, Note_on_c, 8, 36, 69
10, 35564, Note_on_c, 8, 36, 0
10, 35660, Note_on_c, 8, 40, 78
10, 35722, Note_on_c, 8, 40, 0
10, 35856, Note_on_c, 8, 45, 79
10, 35954, Note_on_c, 8, 45, 0
10, 36058, Note_on_c, 8, 33, 99
10, 36182, Note_on_c, 8, 33, 0
10, 36246, Note_on_c, 8, 36, 80
10, 36342, Note_on_c, 8, 36, 0
10, 36434, Note_on_c, 8, 40, 78
10, 36484, Note_on_c, 8, 40, 0
10, 36620, Note_on_c, 8, 45, 69
10, 36682, Note_on_c, 8, 45, 0
10, 36820, Note_on_c, 8, 33, 96
10, 36922, Note_on_c, 8, 33, 0
10, 37018, Note_on_c, 8, 45, 105
10, 37244, Note_on_c, 8, 45, 0
10, 37398, Note_on_c, 8, 45, 103
10, 37630, Note_on_c, 8, 45, 0
10, 37778, Note_on_c, 8, 45, 92
10, 37996, Note_on_c, 8, 45, 0
10, 38164, Note_on_c, 8, 45, 84
10, 38264, Note_on_c, 8, 45, 0
10, 38350, Note_on_c, 8, 32, 92
10, 38486, Note_on_c, 8, 32, 0
10, 38542, Note_on_c, 8, 35, 69
10, 38640, Note_on_c, 8, 35, 0
10, 38746, Note_on_c, 8, 40, 76
10, 38824, Note_on_c, 8, 40, 0
10, 38938, Note_on_c, 8, 44, 74
10, 39020, Note_on_c, 8, 44, 0
10, 39122, Note_on_c, 8, 32, 93
10, 39254, Note_on_c, 8, 32, 0
10, 39300, Note_on_c, 8, 35, 74
10, 39390, Note_on_c, 8, 35, 0
10, 39502, Note_on_c, 8, 40, 75
10, 39558, Note_on_c, 8, 40, 0
10, 39702, Note_on_c, 8, 44, 76
10, 39766, Note_on_c, 8, 44, 0
10, 39890, Note_on_c, 8, 33, 91
10, 39992, Note_on_c, 8, 33, 0
10, 40104, Note_on_c, 8, 45, 105
10, 40334, Note_on_c, 8, 45, 0
10, 40472, Note_on_c, 8, 45, 94
10, 40686, Note_on_c, 8, 45, 0
10, 40846, Note_on_c, 8, 45, 88
10, 41080, Note_on_c, 8, 45, 0
10, 41250, Note_on_c, 8, 45, 82
10, 41326, Note_on_c, 8, 45, 0
10, 41446, Note_on_c, 8, 50, 105
10, 41628, Note_on_c, 8, 50, 0
10, 41828, Note_on_c, 8, 48, 92
10, 41994, Note_on_c, 8, 48, 0
10, 42618, Note_on_c, 8, 48, 101
10, 42776, Note_on_c, 8, 48, 0
10, 43002, Note_on_c, 8, 47, 95
10, 43150, Note_on_c, 8, 47, 0
10, 43368, Note_on_c, 8, 45, 95
10, 43540, Note_on_c, 8, 45, 0
10, 43944, Note_on_c, 8, 33, 94
10, 44104, Note_on_c, 8, 33, 0
10, 44152, Note_on_c, 8, 45, 90
10, 44268, Note_on_c, 8, 45, 0
10, 44336, Note_on_c, 8, 43, 88
10, 44450, Note_on_c, 8, 43, 0
10, 44528, Note_on_c, 8, 41, 88
10, 44534, Note_on_c, 8, 43, 74
10, 44546, Note_on_c, 8, 43, 0
10, 44634, Note_on_c, 8, 41, 0
10, 44712, Note_on_c, 8, 53, 91
10, 44836, Note_on_c, 8, 53, 0
10, 44906, Note_on_c, 8, 52, 91
10, 45040, Note_on_c, 8, 52, 0
10, 45088, Note_on_c, 8, 40, 89
10, 45200, Note_on_c, 8, 40, 0
10, 45278, Note_on_c, 8, 38, 92
10, 45368, Note_on_c, 8, 38, 0
10, 45464, Note_on_c, 8, 50, 90
10, 45570, Note_on_c, 8, 50, 0
10, 45648, Note_on_c, 8, 45, 95
10, 45734, Note_on_c, 8, 45, 0
10, 45834, Note_on_c, 8, 33, 85
10, 45928, Note_on_c, 8, 33, 0
10, 46036, Note_on_c, 8, 40, 101
10, 46146, Note_on_c, 8, 40, 0
10, 46250, Note_on_c, 8, 52, 84
10, 46374, Note_on_c, 8, 52, 0
10, 46444, Note_on_c, 8, 40, 79
10, 46530, Note_on_c, 8, 40, 0
10, 46638, Note_on_c, 8, 40, 83
10, 46694, Note_on_c, 8, 40, 0
10, 46834, Note_on_c, 8, 40, 87
10, 46914, Note_on_c, 8, 40, 0
10, 47026, Note_on_c, 8, 40, 80
10, 47094, Note_on_c, 8, 40, 0
10, 47214, Note_on_c, 8, 40, 76
10, 47276, Note_on_c, 8, 40, 0
10, 47396, Note_on_c, 8, 40, 81
10, 47468, Note_on_c, 8, 40, 0
10, 47590, Note_on_c, 8, 38, 77
10, 47708, Note_on_c, 8, 38, 0
10, 47788, Note_on_c, 8, 38, 76
10, 47874, Note_on_c, 8, 38, 0
10, 47980, Note_on_c, 8, 38, 68
10, 48070, Note_on_c, 8, 38, 0
10, 48164, Note_on_c, 8, 38, 74
10, 48268, Note_on_c, 8, 38, 0
10, 48368, Note_on_c, 8, 43, 65
10, 48480, Note_on_c, 8, 43, 0
10, 48556, Note_on_c, 8, 43, 69
10, 48648, Note_on_c, 8, 43, 0
10, 48744, Note_on_c, 8, 43, 73
10, 48826, Note_on_c, 8, 43, 0
10, 48924, Note_on_c, 8, 43, 72
10, 49016, Note_on_c, 8, 43, 0
10, 49118, Note_on_c, 8, 36, 73
10, 49248, Note_on_c, 8, 36, 0
10, 49310, Note_on_c, 8, 39, 70
10, 49410, Note_on_c, 8, 39, 0
10, 49492, Note_on_c, 8, 43, 62
10, 49588, Note_on_c, 8, 43, 0
10, 49690, Note_on_c, 8, 48, 61
10, 49802, Note_on_c, 8, 48, 0
10, 49888, Note_on_c, 8, 36, 77
10, 50018, Note_on_c, 8, 36, 0
10, 50086, Note_on_c, 8, 39, 72
10, 50186, Note_on_c, 8, 39, 0
10, 50266, Note_on_c, 8, 43, 68
10, 50348, Note_on_c, 8, 43, 0
10, 50460, Note_on_c, 8, 48, 64
10, 50580, Note_on_c, 8, 48, 0
10, 50660, Note_on_c, 8, 36, 76
10, 50802, Note_on_c, 8, 36, 0
10, 50858, Note_on_c, 8, 48, 67
10, 50966, Note_on_c, 8, 48, 0
10, 51046, Note_on_c, 8, 48, 66
10, 51154, Note_on_c, 8, 48, 0
10, 51230, Note_on_c, 8, 48, 67
10, 51326, Note_on_c, 8, 48, 0
10, 51422, Note_on_c, 8, 48, 66
10, 51534, Note_on_c, 8, 48, 0
10, 51612, Note_on_c, 8, 48, 66
10, 51700, Note_on_c, 8, 48, 0
10, 51810, Note_on_c, 8, 48, 70
10, 51896, Note_on_c, 8, 48, 0
10, 52004, Note_on_c, 8, 48, 66
10, 52078, Note_on_c, 8, 48, 0
10, 52196, Note_on_c, 8, 48, 77
10, 52278, Note_on_c, 8, 48, 0
10, 52380, Note_on_c, 8, 48, 69
10, 52476, Note_on_c, 8, 48, 0
10, 52578, Note_on_c, 8, 46, 83
10, 52660, Note_on_c, 8, 46, 0
10, 52756, Note_on_c, 8, 46, 84
10, 52834, Note_on_c, 8, 46, 0
10, 52936, Note_on_c, 8, 46, 84
10, 53050, Note_on_c, 8, 46, 0
10, 53138, Note_on_c, 8, 46, 93
10, 53260, Note_on_c, 8, 46, 0
10, 53334, Note_on_c, 8, 43, 74
10, 53466, Note_on_c, 8, 43, 0
10, 53540, Note_on_c, 8, 40, 71
10, 53668, Note_on_c, 8, 40, 0
10, 53722, Note_on_c, 8, 34, 85
10, 53850, Note_on_c, 8, 34, 0
10, 53912, Note_on_c, 8, 40, 75
10, 54040, Note_on_c, 8, 40, 0
10, 54106, Note_on_c, 8, 43, 70
10, 54216, Note_on_c, 8, 43, 0
10, 54298, Note_on_c, 8, 46, 81
10, 54424, Note_on_c, 8, 46, 0
10, 54510, Note_on_c, 8, 34, 84
10, 54628, Note_on_c, 8, 34, 0
10, 54688, Note_on_c, 8, 40, 75
10, 54778, Note_on_c, 8, 40, 0
10, 54876, Note_on_c, 8, 43, 75
10, 54960, Note_on_c, 8, 43, 0
10, 55062, Note_on_c, 8, 46, 76
10, 55164, Note_on_c, 8, 46, 0
10, 55276, Note_on_c, 8, 46, 98
10, 55396, Note_on_c, 8, 46, 0
10, 55458, Note_on_c, 8, 46, 88
10, 55592, Note_on_c, 8, 46, 0
10, 55650, Note_on_c, 8, 45, 80
10, 55786, Note_on_c, 8, 45, 0
10, 55852, Note_on_c, 8, 45, 88
10, 55950, Note_on_c, 8, 45, 0
10, 56042, Note_on_c, 8, 45, 80
10, 56142, Note_on_c, 8, 45, 0
10, 56226, Note_on_c, 8, 45, 84
10, 56322, Note_on_c, 8, 45, 0
10, 56424, Note_on_c, 8, 43, 87
10, 56514, Note_on_c, 8, 43, 0
10, 56608, Note_on_c, 8, 43, 79
10, 56694, Note_on_c, 8, 43, 0
10, 56806, Note_on_c, 8, 43, 84
10, 56898, Note_on_c, 8, 43, 0
10, 56990, Note_on_c, 8, 43, 77
10, 57086, Note_on_c, 8, 43, 0
10, 57190, Note_on_c, 8, 41, 88
10, 57272, Note_on_c, 8, 41, 0
10, 57370, Note_on_c, 8, 41, 81
10, 57482, Note_on_c, 8, 41, 0
10, 57562, Note_on_c, 8, 41, 82
10, 57660, Note_on_c, 8, 41, 0
10, 57748, Note_on_c, 8, 38, 83
10, 57876, Note_on_c, 8, 38, 0
10, 57944, Note_on_c, 8, 33, 74
10, 58066, Note_on_c, 8, 33, 0
10, 58126, Note_on_c, 8, 29, 77
10, 58180, Note_on_c, 8, 29, 0
10, 58326, Note_on_c, 8, 31, 101
10, 58448, Note_on_c, 8, 31, 0
10, 58516, Note_on_c, 8, 34, 78
10, 58628, Note_on_c, 8, 34, 0
10, 58706, Note_on_c, 8, 39, 79
10, 58812, Note_on_c, 8, 39, 0
10, 58886, Note_on_c, 8, 43, 80
10, 58978, Note_on_c, 8, 43, 0
10, 59090, Note_on_c, 8, 33, 91
10, 59218, Note_on_c, 8, 33, 0
10, 59278, Note_on_c, 8, 36, 79
10, 59356, Note_on_c, 8, 36, 0
10, 59480, Note_on_c, 8, 42, 84
10, 59586, Note_on_c, 8, 42, 0
10, 59676, Note_on_c, 8, 45, 78
10, 59786, Note_on_c, 8, 45, 0
10, 59856, Note_on_c, 8, 34, 92
10, 59972, Note_on_c, 8, 34, 0
10, 60062, Note_on_c, 8, 38, 84
10, 60180, Note_on_c, 8, 38, 0
10, 60248, Note_on_c, 8, 43, 85
10, 60346, Note_on_c, 8, 43, 0
10, 60438, Note_on_c, 8, 46, 88
10, 60538, Note_on_c, 8, 46, 0
10, 60640, Note_on_c, 8, 33, 88
10, 60764, Note_on_c, 8, 33, 0
10, 60816, Note_on_c, 8, 36, 79
10, 60922, Note_on_c, 8, 36, 0
10, 61014, Note_on_c, 8, 41, 87
10, 61166, Note_on_c, 8, 41, 0
10, 61210, Note_on_c, 8, 45, 87
10, 61268, Note_on_c, 8, 45, 0
10, 61398, Note_on_c, 8, 31, 92
10, 61516, Note_on_c, 8, 31, 0
10, 61592, Note_on_c, 8, 34, 81
10, 61692, Note_on_c, 8, 34, 0
10, 61788, Note_on_c, 8, 39, 90
10, 61872, Note_on_c, 8, 39, 0
10, 61974, Note_on_c, 8, 43, 77
10, 62094, Note_on_c, 8, 43, 0
10, 62180, Note_on_c, 8, 32, 92
10, 62288, Note_on_c, 8, 32, 0
10, 62366, Note_on_c, 8, 35, 78
10, 62454, Note_on_c, 8, 35, 0
10, 62558, Note_on_c, 8, 38, 88
10, 62614, Note_on_c, 8, 38, 0
10, 62740, Note_on_c, 8, 44, 83
10, 62832, Note_on_c, 8, 44, 0
10, 62940, Note_on_c, 8, 45, 101
10, 63114, Note_on_c, 8, 45, 0
10, 63334, Note_on_c, 8, 33, 99
10, 63490, Note_on_c, 8, 33, 0
10, 63720, Note_on_c, 8, 45, 105
10, 64120, Note_on_c, 8, 45, 0
10, 64276, Note_on_c, 8, 45, 95
10, 64436, Note_on_c, 8, 45, 0
10, 64480, Note_on_c, 8, 44, 95
10, 64648, Note_on_c, 8, 44, 0
10, 64678, Note_on_c, 8, 45, 94
10, 64794, Note_on_c, 8, 45, 0
10, 64860, Note_on_c, 8, 44, 97
10, 64994, Note_on_c, 8, 44, 0
10, 65050, Note_on_c, 8, 45, 91
10, 65168, Note_on_c, 8, 45, 0
10, 65244, Note_on_c, 8, 44, 98
10, 65376, Note_on_c, 8, 44, 0
10, 65436, Note_on_c, 8, 45, 94
10, 65554, Note_on_c, 8, 45, 0
10, 65630, Note_on_c, 8, 44, 92
10, 65740, Note_on_c, 8, 44, 0
10, 65808, Note_on_c, 8, 45, 91
10, 65930, Note_on_c, 8, 45, 0
10, 66012, Note_on_c, 8, 46, 100
10, 66328, Note_on_c, 8, 46, 0
10, 66386, Note_on_c, 8, 45, 91
10, 66528, Note_on_c, 8, 45, 0
10, 66794, Note_on_c, 8, 49, 91
10, 67210, Note_on_c, 8, 49, 0
10, 67344, Note_on_c, 8, 49, 81
10, 67514, Note_on_c, 8, 49, 0
10, 67548, Note_on_c, 8, 50, 77
10, 67912, Note_on_c, 8, 50, 0
10, 67944, Note_on_c, 8, 49, 77
10, 68068, Note_on_c, 8, 49, 0
10, 68336, Note_on_c, 8, 49, 81
10, 68750, Note_on_c, 8, 49, 0
10, 68898, Note_on_c, 8, 49, 76
10, 69066, Note_on_c, 8, 49, 0
10, 69092, Note_on_c, 8, 50, 80
10, 69426, Note_on_c, 8, 50, 0
10, 69470, Note_on_c, 8, 49, 90
10, 69564, Note_on_c, 8, 49, 0
10, 69870, Note_on_c, 8, 45, 103
10, 70258, Note_on_c, 8, 45, 0
10, 70424, Note_on_c, 8, 45, 99
10, 70580, Note_on_c, 8, 45, 0
10, 70622, Note_on_c, 8, 44, 94
10, 70782, Note_on_c, 8, 44, 0
10, 70822, Note_on_c, 8, 45, 96
10, 70968, Note_on_c, 8, 45, 0
10, 71012, Note_on_c, 8, 44, 92
10, 71146, Note_on_c, 8, 44, 0
10, 71198, Note_on_c, 8, 45, 90
10, 71332, Note_on_c, 8, 45, 0
10, 71388, Note_on_c, 8, 44, 94
10, 71532, Note_on_c, 8, 44, 0
10, 71592, Note_on_c, 8, 45, 94
10, 71716, Note_on_c, 8, 45, 0
10, 71782, Note_on_c, 8, 44, 90
10, 71914, Note_on_c, 8, 44, 0
10, 71956, Note_on_c, 8, 45, 79
10, 72100, Note_on_c, 8, 45, 0
10, 72164, Note_on_c, 8, 46, 94
10, 72404, Note_on_c, 8, 46, 0
10, 72550, Note_on_c, 8, 45, 96
10, 72726, Note_on_c, 8, 45, 0
10, 72946, Note_on_c, 8, 49, 76
10, 73418, Note_on_c, 8, 49, 0
10, 73502, Note_on_c, 8, 49, 77
10, 73660, Note_on_c, 8, 49, 0
10, 73692, Note_on_c, 8, 50, 74
10, 73960, Note_on_c, 8, 50, 0
10, 74094, Note_on_c, 8, 49, 84
10, 74260, Note_on_c, 8, 49, 0
10, 74474, Note_on_c, 8, 49, 80
10, 74930, Note_on_c, 8, 49, 0
10, 75038, Note_on_c, 8, 49, 78
10, 75202, Note_on_c, 8, 49, 0
10, 75238, Note_on_c, 8, 50, 77
10, 75476, Note_on_c, 8, 50, 0
10, 75616, Note_on_c, 8, 49, 77
10, 75750, Note_on_c, 8, 49, 0
10, 76002, Note_on_c, 8, 45, 103
10, 76424, Note_on_c, 8, 45, 0
10, 76548, Note_on_c, 8, 45, 89
10, 76712, Note_on_c, 8, 45, 0
10, 76764, Note_on_c, 8, 44, 86
10, 76908, Note_on_c, 8, 44, 0
10, 76956, Note_on_c, 8, 45, 83
10, 77084, Note_on_c, 8, 45, 0
10, 77146, Note_on_c, 8, 44, 84
10, 77268, Note_on_c, 8, 44, 0
10, 77336, Note_on_c, 8, 45, 85
10, 77486, Note_on_c, 8, 45, 0
10, 77544, Note_on_c, 8, 44, 82
10, 77694, Note_on_c, 8, 44, 0
10, 77742, Note_on_c, 8, 45, 80
10, 77840, Note_on_c, 8, 45, 0
10, 77908, Note_on_c, 8, 44, 82
10, 78086, Note_on_c, 8, 44, 0
10, 78104, Note_on_c, 8, 45, 84
10, 78224, Note_on_c, 8, 45, 0
10, 78308, Note_on_c, 8, 46, 99
10, 78494, Note_on_c, 8, 46, 0
10, 78512, Note_on_c, 8, 34, 98
10, 78634, Note_on_c, 8, 34, 0
10, 78706, Note_on_c, 8, 46, 101
10, 78830, Note_on_c, 8, 46, 0
10, 78890, Note_on_c, 8, 46, 97
10, 79020, Note_on_c, 8, 46, 0
10, 79074, Note_on_c, 8, 46, 100
10, 79204, Note_on_c, 8, 46, 0
10, 79270, Note_on_c, 8, 46, 94
10, 79400, Note_on_c, 8, 46, 0
10, 79466, Note_on_c, 8, 46, 98
10, 79580, Note_on_c, 8, 46, 0
10, 79646, Note_on_c, 8, 46, 93
10, 79780, Note_on_c, 8, 46, 0
10, 79844, Note_on_c, 8, 48, 92
10, 80002, Note_on_c, 8, 48, 0
10, 80048, Note_on_c, 8, 46, 90
10, 80172, Note_on_c, 8, 46, 0
10, 80230, Note_on_c, 8, 48, 82
10, 80358, Note_on_c, 8, 48, 0
10, 80420, Note_on_c, 8, 46, 92
10, 80554, Note_on_c, 8, 46, 0
10, 80608, Note_on_c, 8, 48, 84
10, 80734, Note_on_c, 8, 48, 0
10, 80808, Note_on_c, 8, 46, 93
10, 80912, Note_on_c, 8, 46, 0
10, 80984, Note_on_c, 8, 48, 83
10, 81080, Note_on_c, 8, 48, 0
10, 81172, Note_on_c, 8, 46, 90
10, 81296, Note_on_c, 8, 46, 0
10, 81354, Note_on_c, 8, 45, 90
10, 81372, Note_on_c, 8, 45, 0
10, 81372, Note_on_c, 8, 45, 96
10, 81568, Note_on_c, 8, 45, 0
10, 81760, Note_on_c, 8, 33, 94
10, 81938, Note_on_c, 8, 33, 0
10, 82528, Note_on_c, 8, 45, 105
10, 82638, Note_on_c, 8, 45, 0
10, 82710, Note_on_c, 8, 45, 87
10, 82852, Note_on_c, 8, 45, 0
10, 82932, Note_on_c, 8, 50, 96
10, 83102, Note_on_c, 8, 50, 0
10, 83106, Note_on_c, 8, 38, 90
10, 83256, Note_on_c, 8, 38, 0
10, 83296, Note_on_c, 8, 33, 83
10, 83416, Note_on_c, 8, 33, 0
10, 83492, Note_on_c, 8, 45, 94
10, 83628, Note_on_c, 8, 45, 0
10, 83692, Note_on_c, 8, 50, 95
10, 83842, Note_on_c, 8, 50, 0
10, 83870, Note_on_c, 8, 38, 78
10, 83950, Note_on_c, 8, 38, 0
10, 84060, Note_on_c, 8, 33, 84
10, 84168, Note_on_c, 8, 33, 0
10, 84234, Note_on_c, 8, 45, 90
10, 84298, Note_on_c, 8, 45, 0
10, 84438, Note_on_c, 8, 50, 95
10, 84546, Note_on_c, 8, 50, 0
10, 84622, Note_on_c, 8, 38, 84
10, 84676, Note_on_c, 8, 38, 0
10, 84824, Note_on_c, 8, 45, 95
10, 85028, Note_on_c, 8, 45, 0
10, 85612, Note_on_c, 8, 50, 105
10, 85746, Note_on_c, 8, 50, 0
10, 85794, Note_on_c, 8, 38, 85
10, 85908, Note_on_c, 8, 38, 0
10, 85980, Note_on_c, 8, 37, 95
10, 86086, Note_on_c, 8, 37, 0
10, 86170, Note_on_c, 8, 49, 89
10, 86292, Note_on_c, 8, 49, 0
10, 86358, Note_on_c, 8, 50, 96
10, 86482, Note_on_c, 8, 50, 0
10, 86546, Note_on_c, 8, 38, 91
10, 86666, Note_on_c, 8, 38, 0
10, 86748, Note_on_c, 8, 37, 99
10, 86882, Note_on_c, 8, 37, 0
10, 86940, Note_on_c, 8, 49, 90
10, 87066, Note_on_c, 8, 49, 0
10, 87138, Note_on_c, 8, 50, 90
10, 87278, Note_on_c, 8, 50, 0
10, 87306, Note_on_c, 8, 38, 91
10, 87416, Note_on_c, 8, 38, 0
10, 87500, Note_on_c, 8, 37, 98
10, 87602, Note_on_c, 8, 37, 0
10, 87700, Note_on_c, 8, 49, 94
10, 87824, Note_on_c, 8, 49, 0
10, 87894, Note_on_c, 8, 50, 103
10, 87948, Note_on_c, 8, 50, 0
10, 88098, Note_on_c, 8, 45, 103
10, 88140, Note_on_c, 8, 45, 0
10, 88286, Note_on_c, 8, 41, 95
10, 88334, Note_on_c, 8, 41, 0
10, 88478, Note_on_c, 8, 38, 87
10, 88538, Note_on_c, 8, 38, 0
10, 88662, Note_on_c, 8, 41, 91
10, 88712, Note_on_c, 8, 41, 0
10, 88852, Note_on_c, 8, 45, 85
10, 88890, Note_on_c, 8, 45, 0
10, 89046, Note_on_c, 8, 38, 101
10, 89172, Note_on_c, 8, 38, 0
10, 89230, Note_on_c, 8, 41, 71
10, 89334, Note_on_c, 8, 41, 0
10, 89428, Note_on_c, 8, 45, 73
10, 89496, Note_on_c, 8, 45, 0
10, 89624, Note_on_c, 8, 50, 57
10, 89702, Note_on_c, 8, 50, 0
10, 89818, Note_on_c, 8, 38, 101
10, 89924, Note_on_c, 8, 38, 0
10, 90008, Note_on_c, 8, 41, 73
10, 90078, Note_on_c, 8, 41, 0
10, 90196, Note_on_c, 8, 45, 72
10, 90266, Note_on_c, 8, 45, 0
10, 90392, Note_on_c, 8, 50, 76
10, 90408, Note_on_c, 8, 50, 0
10, 90594, Note_on_c, 8, 29, 101
10, 90708, Note_on_c, 8, 29, 0
10, 90776, Note_on_c, 8, 33, 68
10, 90838, Note_on_c, 8, 33, 0
10, 90966, Note_on_c, 8, 38, 73
10, 91012, Note_on_c, 8, 38, 0
10, 91164, Note_on_c, 8, 41, 76
10, 91226, Note_on_c, 8, 41, 0
10, 91356, Note_on_c, 8, 29, 91
10, 91450, Note_on_c, 8, 29, 0
10, 91538, Note_on_c, 8, 33, 66
10, 91598, Note_on_c, 8, 33, 0
10, 91734, Note_on_c, 8, 38, 66
10, 91810, Note_on_c, 8, 38, 0
10, 91922, Note_on_c, 8, 41, 61
10, 91974, Note_on_c, 8, 41, 0
10, 92118, Note_on_c, 8, 34, 90
10, 92226, Note_on_c, 8, 34, 0
10, 92316, Note_on_c, 8, 38, 74
10, 92386, Note_on_c, 8, 38, 0
10, 92520, Note_on_c, 8, 41, 71
10, 92586, Note_on_c, 8, 41, 0
10, 92712, Note_on_c, 8, 46, 86
10, 92738, Note_on_c, 8, 46, 0
10, 92904, Note_on_c, 8, 28, 84
10, 93042, Note_on_c, 8, 28, 0
10, 93108, Note_on_c, 8, 31, 76
10, 93164, Note_on_c, 8, 31, 0
10, 93292, Note_on_c, 8, 34, 71
10, 93360, Note_on_c, 8, 34, 0
10, 93478, Note_on_c, 8, 40, 73
10, 93560, Note_on_c, 8, 40, 0
10, 93658, Note_on_c, 8, 33, 91
10, 93736, Note_on_c, 8, 33, 0
10, 93852, Note_on_c, 8, 45, 87
10, 93922, Note_on_c, 8, 45, 0
10, 94048, Note_on_c, 8, 38, 89
10, 94124, Note_on_c, 8, 38, 0
10, 94238, Note_on_c, 8, 41, 79
10, 94300, Note_on_c, 8, 41, 0
10, 94432, Note_on_c, 8, 45, 87
10, 94506, Note_on_c, 8, 45, 0
10, 94620, Note_on_c, 8, 43, 70
10, 94672, Note_on_c, 8, 43, 0
10, 94802, Note_on_c, 8, 45, 74
10, 94872, Note_on_c, 8, 45, 0
10, 94988, Note_on_c, 8, 33, 74
10, 95022, Note_on_c, 8, 33, 0
10, 95188, Note_on_c, 8, 38, 101
10, 95294, Note_on_c, 8, 38, 0
10, 95372, Note_on_c, 8, 41, 72
10, 95452, Note_on_c, 8, 41, 0
10, 95570, Note_on_c, 8, 45, 80
10, 95626, Note_on_c, 8, 45, 0
10, 95756, Note_on_c, 8, 50, 76
10, 95828, Note_on_c, 8, 50, 0
10, 95960, Note_on_c, 8, 38, 95
10, 96052, Note_on_c, 8, 38, 0
10, 96144, Note_on_c, 8, 41, 76
10, 96216, Note_on_c, 8, 41, 0
10, 96340, Note_on_c, 8, 45, 76
10, 96414, Note_on_c, 8, 45, 0
10, 96528, Note_on_c, 8, 50, 78
10, 96566, Note_on_c, 8, 50, 0
10, 96716, Note_on_c, 8, 34, 88
10, 96826, Note_on_c, 8, 34, 0
10, 96908, Note_on_c, 8, 38, 75
10, 96972, Note_on_c, 8, 38, 0
10, 97108, Note_on_c, 8, 41, 77
10, 97194, Note_on_c, 8, 41, 0
10, 97296, Note_on_c, 8, 46, 79
10, 97384, Note_on_c, 8, 46, 0
10, 97490, Note_on_c, 8, 34, 86
10, 97594, Note_on_c, 8, 34, 0
10, 97682, Note_on_c, 8, 38, 80
10, 97764, Note_on_c, 8, 38, 0
10, 97882, Note_on_c, 8, 41, 77
10, 97970, Note_on_c, 8, 41, 0
10, 98074, Note_on_c, 8, 46, 85
10, 98114, Note_on_c, 8, 46, 0
10, 98268, Note_on_c, 8, 31, 99
10, 98368, Note_on_c, 8, 31, 0
10, 98456, Note_on_c, 8, 34, 83
10, 98564, Note_on_c, 8, 34, 0
10, 98656, Note_on_c, 8, 39, 93
10, 98714, Note_on_c, 8, 39, 0
10, 98856, Note_on_c, 8, 43, 81
10, 98958, Note_on_c, 8, 43, 0
10, 99054, Note_on_c, 8, 31, 92
10, 99134, Note_on_c, 8, 31, 0
10, 99228, Note_on_c, 8, 34, 76
10, 99324, Note_on_c, 8, 34, 0
10, 99416, Note_on_c, 8, 39, 87
10, 99484, Note_on_c, 8, 39, 0
10, 99608, Note_on_c, 8, 43, 79
10, 99708, Note_on_c, 8, 43, 0
10, 99802, Note_on_c, 8, 33, 88
10, 99880, Note_on_c, 8, 33, 0
10, 100014, Note_on_c, 8, 45, 71
10, 100116, Note_on_c, 8, 45, 0
10, 100190, Note_on_c, 8, 38, 87
10, 100260, Note_on_c, 8, 38, 0
10, 100388, Note_on_c, 8, 41, 79
10, 100484, Note_on_c, 8, 41, 0
10, 100572, Note_on_c, 8, 45, 90
10, 100658, Note_on_c, 8, 45, 0
10, 100766, Note_on_c, 8, 43, 82
10, 100846, Note_on_c, 8, 43, 0
10, 100946, Note_on_c, 8, 45, 82
10, 101014, Note_on_c, 8, 45, 0
10, 101128, Note_on_c, 8, 33, 74
10, 101246, Note_on_c, 8, 33, 0
10, 101328, Note_on_c, 8, 38, 89
10, 101486, Note_on_c, 8, 38, 0
10, 101924, Note_on_c, 8, 45, 81
10, 102092, Note_on_c, 8, 45, 0
10, 102126, Note_on_c, 8, 50, 91
10, 102238, Note_on_c, 8, 50, 0
10, 102298, Note_on_c, 8, 53, 83
10, 102440, Note_on_c, 8, 53, 0
10, 102494, Note_on_c, 8, 52, 79
10, 102628, Note_on_c, 8, 52, 0
10, 102682, Note_on_c, 8, 50, 73
10, 102842, Note_on_c, 8, 50, 0
10, 102882, Note_on_c, 8, 49, 81
10, 103022, Note_on_c, 8, 49, 0
10, 103064, Note_on_c, 8, 46, 78
10, 103198, Note_on_c, 8, 46, 0
10, 103240, Note_on_c, 8, 43, 71
10, 103380, Note_on_c, 8, 43, 0
10, 103436, Note_on_c, 8, 41, 79
10, 103582, Note_on_c, 8, 41, 0
10, 103640, Note_on_c, 8, 40, 76
10, 103772, Note_on_c, 8, 40, 0
10, 103830, Note_on_c, 8, 38, 75
10, 103938, Note_on_c, 8, 38, 0
10, 104018, Note_on_c, 8, 37, 77
10, 104146, Note_on_c, 8, 37, 0
10, 104206, Note_on_c, 8, 40, 78
10, 104256, Note_on_c, 8, 40, 0
10, 104394, Note_on_c, 8, 38, 82
10, 104526, Note_on_c, 8, 38, 0
10, 104586, Note_on_c, 8, 41, 89
10, 104732, Note_on_c, 8, 41, 0
10, 104778, Note_on_c, 8, 43, 82
10, 104880, Note_on_c, 8, 43, 0
10, 104972, Note_on_c, 8, 46, 86
10, 105084, Note_on_c, 8, 46, 0
10, 105166, Note_on_c, 8, 45, 89
10, 105272, Note_on_c, 8, 45, 0
10, 105370, Note_on_c, 8, 43, 79
10, 105462, Note_on_c, 8, 43, 0
10, 105556, Note_on_c, 8, 45, 92
10, 105656, Note_on_c, 8, 45, 0
10, 105752, Note_on_c, 8, 33, 85
10, 105872, Note_on_c, 8, 33, 0
10, 105956, Note_on_c, 8, 38, 83
10, 106304, Note_on_c, 8, 38, 0
10, 106304, End_track
11, 0, Start_track
11, 0, Title_t, "sop"
11, 406, Program_c, 11, 52
11, 407, Control_c, 11, 7, 127
11, 407, Control_c, 11, 10, 55
11, 576, Control_c, 11, 91, 120
11, 3062, Note_on_c, 11, 74, 113
11, 3774, Note_on_c, 11, 74, 0
11, 3854, Note_on_c, 11, 69, 103
11, 4482, Note_on_c, 11, 69, 0
11, 4604, Note_on_c, 11, 76, 103
11, 4802, Note_on_c, 11, 76, 0
11, 4984, Note_on_c, 11, 69, 96
11, 5182, Note_on_c, 11, 69, 0
11, 6112, Note_on_c, 11, 76, 108
11, 6848, Note_on_c, 11, 76, 0
11, 6894, Note_on_c, 11, 69, 99
11, 7582, Note_on_c, 11, 69, 0
11, 7680, Note_on_c, 11, 77, 101
11, 7890, Note_on_c, 11, 77, 0
11, 8060, Note_on_c, 11, 74, 101
11, 8254, Note_on_c, 11, 74, 0
11, 8798, Note_on_c, 11, 74, 103
11, 8866, Note_on_c, 11, 74, 0
11, 9000, Note_on_c, 11, 74, 101
11, 9056, Note_on_c, 11, 74, 0
11, 9178, Note_on_c, 11, 73, 98
11, 9456, Note_on_c, 11, 73, 0
11, 9584, Note_on_c, 11, 74, 110
11, 9822, Note_on_c, 11, 74, 0
11, 10354, Note_on_c, 11, 74, 95
11, 10426, Note_on_c, 11, 74, 0
11, 10532, Note_on_c, 11, 74, 94
11, 10626, Note_on_c, 11, 74, 0
11, 10730, Note_on_c, 11, 76, 99
11, 11040, Note_on_c, 11, 76, 0
11, 11130, Note_on_c, 11, 77, 99
11, 11378, Note_on_c, 11, 77, 0
11, 11500, Note_on_c, 11, 74, 101
11, 11964, Note_on_c, 11, 74, 0
11, 12064, Note_on_c, 11, 74, 94
11, 12222, Note_on_c, 11, 74, 0
11, 12266, Note_on_c, 11, 79, 95
11, 12594, Note_on_c, 11, 79, 0
11, 12662, Note_on_c, 11, 77, 96
11, 12954, Note_on_c, 11, 77, 0
11, 13036, Note_on_c, 11, 76, 96
11, 13318, Note_on_c, 11, 76, 0
11, 13418, Note_on_c, 11, 74, 95
11, 13670, Note_on_c, 11, 74, 0
11, 13784, Note_on_c, 11, 74, 101
11, 13968, Note_on_c, 11, 74, 0
11, 14170, Note_on_c, 11, 73, 95
11, 14376, Note_on_c, 11, 73, 0
11, 16896, Note_on_c, 11, 77, 105
11, 17964, Note_on_c, 11, 77, 0
11, 18006, Note_on_c, 11, 72, 95
11, 18364, Note_on_c, 11, 72, 0
11, 18416, Note_on_c, 11, 69, 95
11, 18766, Note_on_c, 11, 69, 0
11, 18802, Note_on_c, 11, 65, 92
11, 19112, Note_on_c, 11, 65, 0
11, 19152, Note_on_c, 11, 69, 92
11, 19472, Note_on_c, 11, 69, 0
11, 19530, Note_on_c, 11, 72, 90
11, 19856, Note_on_c, 11, 72, 0
11, 19914, Note_on_c, 11, 75, 91
11, 20668, Note_on_c, 11, 75, 0
11, 20704, Note_on_c, 11, 74, 99
11, 21154, Note_on_c, 11, 74, 0
11, 21472, Note_on_c, 11, 79, 96
11, 22570, Note_on_c, 11, 79, 0
11, 22640, Note_on_c, 11, 74, 99
11, 22972, Note_on_c, 11, 74, 0
11, 23032, Note_on_c, 11, 71, 96
11, 23358, Note_on_c, 11, 71, 0
11, 23400, Note_on_c, 11, 67, 94
11, 23716, Note_on_c, 11, 67, 0
11, 23760, Note_on_c, 11, 71, 95
11, 24090, Note_on_c, 11, 71, 0
11, 24142, Note_on_c, 11, 74, 89
11, 24474, Note_on_c, 11, 74, 0
11, 24532, Note_on_c, 11, 77, 95
11, 25268, Note_on_c, 11, 77, 0
11, 25302, Note_on_c, 11, 76, 99
11, 25840, Note_on_c, 11, 76, 0
11, 26088, Note_on_c, 11, 76, 105
11, 26762, Note_on_c, 11, 76, 0
11, 26848, Note_on_c, 11, 76, 94
11, 27542, Note_on_c, 11, 76, 0
11, 27616, Note_on_c, 11, 76, 87
11, 28330, Note_on_c, 11, 76, 0
11, 28378, Note_on_c, 11, 74, 99
11, 29050, Note_on_c, 11, 74, 0
11, 29134, Note_on_c, 11, 74, 92
11, 29450, Note_on_c, 11, 74, 0
11, 29554, Note_on_c, 11, 72, 94
11, 29814, Note_on_c, 11, 72, 0
11, 29922, Note_on_c, 11, 71, 94
11, 30622, Note_on_c, 11, 71, 0
11, 30664, Note_on_c, 11, 69, 87
11, 30898, Note_on_c, 11, 69, 0
11, 35292, Note_on_c, 11, 76, 105
11, 35988, Note_on_c, 11, 76, 0
11, 36070, Note_on_c, 11, 76, 96
11, 36744, Note_on_c, 11, 76, 0
11, 36848, Note_on_c, 11, 76, 99
11, 37098, Note_on_c, 11, 76, 0
11, 37218, Note_on_c, 11, 71, 101
11, 37440, Note_on_c, 11, 71, 0
11, 38378, Note_on_c, 11, 76, 101
11, 39110, Note_on_c, 11, 76, 0
11, 39166, Note_on_c, 11, 76, 96
11, 39832, Note_on_c, 11, 76, 0
11, 39912, Note_on_c, 11, 76, 87
11, 40176, Note_on_c, 11, 76, 0
11, 40280, Note_on_c, 11, 72, 94
11, 40528, Note_on_c, 11, 72, 0
11, 41058, Note_on_c, 11, 69, 91
11, 41166, Note_on_c, 11, 69, 0
11, 41250, Note_on_c, 11, 69, 89
11, 41374, Note_on_c, 11, 69, 0
11, 41436, Note_on_c, 11, 77, 90
11, 41720, Note_on_c, 11, 77, 0
11, 41842, Note_on_c, 11, 76, 101
11, 42058, Note_on_c, 11, 76, 0
11, 42600, Note_on_c, 11, 69, 90
11, 42690, Note_on_c, 11, 69, 0
11, 42776, Note_on_c, 11, 69, 84
11, 42904, Note_on_c, 11, 69, 0
11, 42984, Note_on_c, 11, 74, 103
11, 43260, Note_on_c, 11, 74, 0
11, 43374, Note_on_c, 11, 72, 96
11, 43620, Note_on_c, 11, 72, 0
11, 43754, Note_on_c, 11, 76, 99
11, 44182, Note_on_c, 11, 76, 0
11, 44298, Note_on_c, 11, 76, 94
11, 44432, Note_on_c, 11, 76, 0
11, 44520, Note_on_c, 11, 74, 105
11, 44804, Note_on_c, 11, 74, 0
11, 44914, Note_on_c, 11, 72, 101
11, 45178, Note_on_c, 11, 72, 0
11, 45284, Note_on_c, 11, 70, 98
11, 45540, Note_on_c, 11, 70, 0
11, 45666, Note_on_c, 11, 69, 95
11, 45918, Note_on_c, 11, 69, 0
11, 46046, Note_on_c, 11, 69, 99
11, 46280, Note_on_c, 11, 69, 0
11, 46422, Note_on_c, 11, 68, 97
11, 46704, Note_on_c, 11, 68, 0
11, 49132, Note_on_c, 11, 72, 91
11, 50236, Note_on_c, 11, 72, 0
11, 50282, Note_on_c, 11, 79, 90
11, 50610, Note_on_c, 11, 79, 0
11, 50664, Note_on_c, 11, 75, 100
11, 51006, Note_on_c, 11, 75, 0
11, 51056, Note_on_c, 11, 72, 89
11, 51386, Note_on_c, 11, 72, 0
11, 51420, Note_on_c, 11, 67, 88
11, 51752, Note_on_c, 11, 67, 0
11, 51800, Note_on_c, 11, 72, 90
11, 52142, Note_on_c, 11, 72, 0
11, 52196, Note_on_c, 11, 72, 87
11, 52534, Note_on_c, 11, 72, 0
11, 52562, Note_on_c, 11, 73, 86
11, 52908, Note_on_c, 11, 73, 0
11, 52974, Note_on_c, 11, 73, 76
11, 53502, Note_on_c, 11, 73, 0
11, 53754, Note_on_c, 11, 73, 94
11, 54820, Note_on_c, 11, 73, 0
11, 54882, Note_on_c, 11, 79, 91
11, 55204, Note_on_c, 11, 79, 0
11, 55264, Note_on_c, 11, 76, 85
11, 55586, Note_on_c, 11, 76, 0
11, 55644, Note_on_c, 11, 73, 91
11, 55980, Note_on_c, 11, 73, 0
11, 56016, Note_on_c, 11, 69, 90
11, 56338, Note_on_c, 11, 69, 0
11, 56388, Note_on_c, 11, 73, 90
11, 56732, Note_on_c, 11, 73, 0
11, 56796, Note_on_c, 11, 73, 84
11, 57154, Note_on_c, 11, 73, 0
11, 57170, Note_on_c, 11, 74, 88
11, 57500, Note_on_c, 11, 74, 0
11, 57566, Note_on_c, 11, 74, 90
11, 58196, Note_on_c, 11, 74, 0
11, 58326, Note_on_c, 11, 75, 102
11, 59056, Note_on_c, 11, 75, 0
11, 59114, Note_on_c, 11, 78, 95
11, 59804, Note_on_c, 11, 78, 0
11, 59870, Note_on_c, 11, 79, 95
11, 60582, Note_on_c, 11, 79, 0
11, 60644, Note_on_c, 11, 77, 94
11, 61318, Note_on_c, 11, 77, 0
11, 61394, Note_on_c, 11, 75, 98
11, 62106, Note_on_c, 11, 75, 0
11, 62174, Note_on_c, 11, 74, 99
11, 62812, Note_on_c, 11, 74, 0
11, 62948, Note_on_c, 11, 74, 103
11, 63204, Note_on_c, 11, 74, 0
11, 63344, Note_on_c, 11, 73, 98
11, 63542, Note_on_c, 11, 73, 0
11, 66824, Note_on_c, 11, 69, 105
11, 67300, Note_on_c, 11, 69, 0
11, 67368, Note_on_c, 11, 69, 91
11, 67510, Note_on_c, 11, 69, 0
11, 67564, Note_on_c, 11, 68, 93
11, 67894, Note_on_c, 11, 68, 0
11, 67946, Note_on_c, 11, 69, 96
11, 68160, Note_on_c, 11, 69, 0
11, 68354, Note_on_c, 11, 69, 99
11, 68816, Note_on_c, 11, 69, 0
11, 68884, Note_on_c, 11, 69, 85
11, 69040, Note_on_c, 11, 69, 0
11, 69090, Note_on_c, 11, 68, 86
11, 69426, Note_on_c, 11, 68, 0
11, 69470, Note_on_c, 11, 69, 89
11, 69658, Note_on_c, 11, 69, 0
11, 72958, Note_on_c, 11, 76, 101
11, 73436, Note_on_c, 11, 76, 0
11, 73514, Note_on_c, 11, 76, 89
11, 73656, Note_on_c, 11, 76, 0
11, 73714, Note_on_c, 11, 77, 96
11, 74050, Note_on_c, 11, 77, 0
11, 74116, Note_on_c, 11, 76, 95
11, 74326, Note_on_c, 11, 76, 0
11, 74488, Note_on_c, 11, 76, 95
11, 74922, Note_on_c, 11, 76, 0
11, 75032, Note_on_c, 11, 76, 99
11, 75162, Note_on_c, 11, 76, 0
11, 75232, Note_on_c, 11, 77, 94
11, 75500, Note_on_c, 11, 77, 0
11, 75610, Note_on_c, 11, 76, 96
11, 75818, Note_on_c, 11, 76, 0
11, 79088, Note_on_c, 11, 79, 105
11, 79606, Note_on_c, 11, 79, 0
11, 79696, Note_on_c, 11, 79, 95
11, 79842, Note_on_c, 11, 79, 0
11, 79892, Note_on_c, 11, 78, 95
11, 80036, Note_on_c, 11, 78, 0
11, 80078, Note_on_c, 11, 79, 95
11, 80200, Note_on_c, 11, 79, 0
11, 80256, Note_on_c, 11, 78, 97
11, 80400, Note_on_c, 11, 78, 0
11, 80448, Note_on_c, 11, 79, 92
11, 80574, Note_on_c, 11, 79, 0
11, 80622, Note_on_c, 11, 78, 94
11, 80752, Note_on_c, 11, 78, 0
11, 80798, Note_on_c, 11, 79, 92
11, 80922, Note_on_c, 11, 79, 0
11, 80966, Note_on_c, 11, 78, 90
11, 81096, Note_on_c, 11, 78, 0
11, 81150, Note_on_c, 11, 79, 89
11, 81270, Note_on_c, 11, 79, 0
11, 81356, Note_on_c, 11, 79, 85
11, 81684, Note_on_c, 11, 79, 0
11, 81754, Note_on_c, 11, 73, 95
11, 82086, Note_on_c, 11, 73, 0
11, 82544, Note_on_c, 11, 73, 99
11, 82654, Note_on_c, 11, 73, 0
11, 82718, Note_on_c, 11, 73, 78
11, 82844, Note_on_c, 11, 73, 0
11, 82914, Note_on_c, 11, 74, 99
11, 83178, Note_on_c, 11, 74, 0
11, 83318, Note_on_c, 11, 73, 99
11, 83602, Note_on_c, 11, 73, 0
11, 83696, Note_on_c, 11, 74, 105
11, 83924, Note_on_c, 11, 74, 0
11, 84078, Note_on_c, 11, 73, 92
11, 84336, Note_on_c, 11, 73, 0
11, 84454, Note_on_c, 11, 74, 94
11, 84696, Note_on_c, 11, 74, 0
11, 84836, Note_on_c, 11, 73, 90
11, 85052, Note_on_c, 11, 73, 0
11, 85612, Note_on_c, 11, 74, 94
11, 85710, Note_on_c, 11, 74, 0
11, 85786, Note_on_c, 11, 74, 82
11, 85910, Note_on_c, 11, 74, 0
11, 85982, Note_on_c, 11, 79, 89
11, 86258, Note_on_c, 11, 79, 0
11, 86390, Note_on_c, 11, 77, 92
11, 86642, Note_on_c, 11, 77, 0
11, 86766, Note_on_c, 11, 79, 94
11, 87024, Note_on_c, 11, 79, 0
11, 87138, Note_on_c, 11, 77, 95
11, 87374, Note_on_c, 11, 77, 0
11, 87500, Note_on_c, 11, 79, 94
11, 87754, Note_on_c, 11, 79, 0
11, 87892, Note_on_c, 11, 77, 96
11, 88096, Note_on_c, 11, 77, 0
11, 89428, Note_on_c, 11, 74, 110
11, 90144, Note_on_c, 11, 74, 0
11, 90212, Note_on_c, 11, 74, 89
11, 90506, Note_on_c, 11, 74, 0
11, 90588, Note_on_c, 11, 77, 99
11, 90858, Note_on_c, 11, 77, 0
11, 90974, Note_on_c, 11, 74, 103
11, 91208, Note_on_c, 11, 74, 0
11, 92902, Note_on_c, 11, 79, 99
11, 93332, Note_on_c, 11, 79, 0
11, 93454, Note_on_c, 11, 79, 91
11, 93566, Note_on_c, 11, 79, 0
11, 93654, Note_on_c, 11, 79, 90
11, 93926, Note_on_c, 11, 79, 0
11, 94042, Note_on_c, 11, 77, 95
11, 94284, Note_on_c, 11, 77, 0
11, 94430, Note_on_c, 11, 76, 92
11, 95126, Note_on_c, 11, 76, 0
11, 95200, Note_on_c, 11, 74, 99
11, 95364, Note_on_c, 11, 74, 0
11, 95590, Note_on_c, 11, 74, 95
11, 96250, Note_on_c, 11, 74, 0
11, 96342, Note_on_c, 11, 74, 94
11, 96628, Note_on_c, 11, 74, 0
11, 96716, Note_on_c, 11, 77, 96
11, 96938, Note_on_c, 11, 77, 0
11, 97100, Note_on_c, 11, 74, 92
11, 97296, Note_on_c, 11, 74, 0
11, 99036, Note_on_c, 11, 79, 99
11, 99490, Note_on_c, 11, 79, 0
11, 99618, Note_on_c, 11, 79, 95
11, 99732, Note_on_c, 11, 79, 0
11, 99812, Note_on_c, 11, 79, 89
11, 100080, Note_on_c, 11, 79, 0
11, 100206, Note_on_c, 11, 77, 94
11, 100432, Note_on_c, 11, 77, 0
11, 100576, Note_on_c, 11, 76, 91
11, 101260, Note_on_c, 11, 76, 0
11, 101346, Note_on_c, 11, 74, 103
11, 101614, Note_on_c, 11, 74, 0
11, 101614, End_track
12, 0, Start_track
12, 0, Title_t, "cont"
12, 408, Program_c, 12, 52
12, 409, Control_c, 12, 7, 125
12, 409, Control_c, 12, 10, 74
12, 480, Control_c, 12, 91, 120
12, 3058, Note_on_c, 12, 69, 103
12, 3734, Note_on_c, 12, 69, 0
12, 3808, Note_on_c, 12, 69, 95
12, 4502, Note_on_c, 12, 69, 0
12, 4584, Note_on_c, 12, 69, 103
12, 4790, Note_on_c, 12, 69, 0
12, 4942, Note_on_c, 12, 69, 84
12, 5046, Note_on_c, 12, 69, 0
12, 6086, Note_on_c, 12, 69, 108
12, 6788, Note_on_c, 12, 69, 0
12, 6876, Note_on_c, 12, 69, 96
12, 7572, Note_on_c, 12, 69, 0
12, 7658, Note_on_c, 12, 69, 99
12, 7848, Note_on_c, 12, 69, 0
12, 8036, Note_on_c, 12, 69, 94
12, 8138, Note_on_c, 12, 69, 0
12, 8800, Note_on_c, 12, 69, 95
12, 8884, Note_on_c, 12, 69, 0
12, 8960, Note_on_c, 12, 69, 88
12, 9060, Note_on_c, 12, 69, 0
12, 9164, Note_on_c, 12, 67, 103
12, 9438, Note_on_c, 12, 67, 0
12, 9566, Note_on_c, 12, 69, 84
12, 9664, Note_on_c, 12, 69, 0
12, 10340, Note_on_c, 12, 69, 95
12, 10416, Note_on_c, 12, 69, 0
12, 10530, Note_on_c, 12, 69, 92
12, 10604, Note_on_c, 12, 69, 0
12, 10724, Note_on_c, 12, 69, 95
12, 11006, Note_on_c, 12, 69, 0
12, 11106, Note_on_c, 12, 69, 94
12, 11240, Note_on_c, 12, 69, 0
12, 11890, Note_on_c, 12, 69, 95
12, 11964, Note_on_c, 12, 69, 0
12, 12060, Note_on_c, 12, 69, 91
12, 12142, Note_on_c, 12, 69, 0
12, 12252, Note_on_c, 12, 67, 91
12, 12544, Note_on_c, 12, 67, 0
12, 12664, Note_on_c, 12, 69, 95
12, 12918, Note_on_c, 12, 69, 0
12, 13030, Note_on_c, 12, 70, 90
12, 13306, Note_on_c, 12, 70, 0
12, 13416, Note_on_c, 12, 69, 91
12, 13682, Note_on_c, 12, 69, 0
12, 13792, Note_on_c, 12, 69, 95
12, 14040, Note_on_c, 12, 69, 0
12, 14182, Note_on_c, 12, 69, 103
12, 14338, Note_on_c, 12, 69, 0
12, 16862, Note_on_c, 12, 69, 99
12, 17938, Note_on_c, 12, 69, 0
12, 17998, Note_on_c, 12, 69, 91
12, 18336, Note_on_c, 12, 69, 0
12, 18382, Note_on_c, 12, 65, 88
12, 18734, Note_on_c, 12, 65, 0
12, 18760, Note_on_c, 12, 60, 84
12, 19138, Note_on_c, 12, 60, 0
12, 19172, Note_on_c, 12, 65, 90
12, 19508, Note_on_c, 12, 65, 0
12, 19552, Note_on_c, 12, 69, 83
12, 19882, Note_on_c, 12, 69, 0
12, 19934, Note_on_c, 12, 72, 91
12, 20676, Note_on_c, 12, 72, 0
12, 20704, Note_on_c, 12, 69, 89
12, 21220, Note_on_c, 12, 69, 0
12, 21478, Note_on_c, 12, 62, 95
12, 22566, Note_on_c, 12, 62, 0
12, 22632, Note_on_c, 12, 67, 101
12, 22974, Note_on_c, 12, 67, 0
12, 23016, Note_on_c, 12, 62, 82
12, 23350, Note_on_c, 12, 62, 0
12, 23406, Note_on_c, 12, 62, 82
12, 23720, Note_on_c, 12, 62, 0
12, 23754, Note_on_c, 12, 67, 90
12, 24086, Note_on_c, 12, 67, 0
12, 24130, Note_on_c, 12, 71, 90
12, 24464, Note_on_c, 12, 71, 0
12, 24518, Note_on_c, 12, 74, 92
12, 25262, Note_on_c, 12, 74, 0
12, 25296, Note_on_c, 12, 71, 90
12, 25956, Note_on_c, 12, 71, 0
12, 26080, Note_on_c, 12, 69, 96
12, 26792, Note_on_c, 12, 69, 0
12, 26840, Note_on_c, 12, 68, 94
12, 27574, Note_on_c, 12, 68, 0
12, 27618, Note_on_c, 12, 69, 89
12, 27922, Note_on_c, 12, 69, 0
12, 27996, Note_on_c, 12, 72, 89
12, 28662, Note_on_c, 12, 72, 0
12, 28746, Note_on_c, 12, 71, 95
12, 28898, Note_on_c, 12, 71, 0
12, 28940, Note_on_c, 12, 69, 82
12, 29086, Note_on_c, 12, 69, 0
12, 29146, Note_on_c, 12, 68, 91
12, 29440, Note_on_c, 12, 68, 0
12, 29516, Note_on_c, 12, 69, 89
12, 29792, Note_on_c, 12, 69, 0
12, 29888, Note_on_c, 12, 69, 94
12, 30216, Note_on_c, 12, 69, 0
12, 30276, Note_on_c, 12, 68, 85
12, 30590, Note_on_c, 12, 68, 0
12, 30648, Note_on_c, 12, 69, 95
12, 30832, Note_on_c, 12, 69, 0
12, 35308, Note_on_c, 12, 72, 103
12, 35974, Note_on_c, 12, 72, 0
12, 36062, Note_on_c, 12, 72, 95
12, 36742, Note_on_c, 12, 72, 0
12, 36814, Note_on_c, 12, 71, 108
12, 37068, Note_on_c, 12, 71, 0
12, 37206, Note_on_c, 12, 71, 103
12, 37410, Note_on_c, 12, 71, 0
12, 38360, Note_on_c, 12, 71, 110
12, 39076, Note_on_c, 12, 71, 0
12, 39154, Note_on_c, 12, 71, 96
12, 39836, Note_on_c, 12, 71, 0
12, 39894, Note_on_c, 12, 69, 99
12, 40112, Note_on_c, 12, 69, 0
12, 40258, Note_on_c, 12, 69, 90
12, 40512, Note_on_c, 12, 69, 0
12, 41066, Note_on_c, 12, 69, 96
12, 41144, Note_on_c, 12, 69, 0
12, 41252, Note_on_c, 12, 69, 101
12, 41348, Note_on_c, 12, 69, 0
12, 41442, Note_on_c, 12, 69, 105
12, 41698, Note_on_c, 12, 69, 0
12, 41820, Note_on_c, 12, 69, 101
12, 41980, Note_on_c, 12, 69, 0
12, 42616, Note_on_c, 12, 69, 99
12, 42696, Note_on_c, 12, 69, 0
12, 42796, Note_on_c, 12, 69, 95
12, 42886, Note_on_c, 12, 69, 0
12, 42984, Note_on_c, 12, 68, 98
12, 43264, Note_on_c, 12, 68, 0
12, 43360, Note_on_c, 12, 69, 99
12, 43570, Note_on_c, 12, 69, 0
12, 44152, Note_on_c, 12, 64, 94
12, 44242, Note_on_c, 12, 64, 0
12, 44316, Note_on_c, 12, 64, 80
12, 44434, Note_on_c, 12, 64, 0
12, 44516, Note_on_c, 12, 69, 101
12, 44814, Note_on_c, 12, 69, 0
12, 44906, Note_on_c, 12, 67, 99
12, 45192, Note_on_c, 12, 67, 0
12, 45284, Note_on_c, 12, 65, 101
12, 45546, Note_on_c, 12, 65, 0
12, 45650, Note_on_c, 12, 64, 91
12, 45908, Note_on_c, 12, 64, 0
12, 46034, Note_on_c, 12, 64, 92
12, 46286, Note_on_c, 12, 64, 0
12, 46414, Note_on_c, 12, 64, 91
12, 46612, Note_on_c, 12, 64, 0
12, 49120, Note_on_c, 12, 67, 80
12, 50176, Note_on_c, 12, 67, 0
12, 50254, Note_on_c, 12, 67, 74
12, 50594, Note_on_c, 12, 67, 0
12, 50654, Note_on_c, 12, 67, 81
12, 50944, Note_on_c, 12, 67, 0
12, 51012, Note_on_c, 12, 67, 83
12, 51328, Note_on_c, 12, 67, 0
12, 51406, Note_on_c, 12, 67, 85
12, 51696, Note_on_c, 12, 67, 0
12, 51782, Note_on_c, 12, 67, 79
12, 52072, Note_on_c, 12, 67, 0
12, 52184, Note_on_c, 12, 67, 83
12, 52904, Note_on_c, 12, 67, 0
12, 52978, Note_on_c, 12, 67, 68
12, 53648, Note_on_c, 12, 67, 0
12, 53740, Note_on_c, 12, 67, 78
12, 54784, Note_on_c, 12, 67, 0
12, 54882, Note_on_c, 12, 64, 76
12, 55208, Note_on_c, 12, 64, 0
12, 55270, Note_on_c, 12, 67, 84
12, 55580, Note_on_c, 12, 67, 0
12, 55648, Note_on_c, 12, 67, 81
12, 55962, Note_on_c, 12, 67, 0
12, 56016, Note_on_c, 12, 64, 76
12, 56350, Note_on_c, 12, 64, 0
12, 56406, Note_on_c, 12, 69, 80
12, 56710, Note_on_c, 12, 69, 0
12, 56782, Note_on_c, 12, 69, 80
12, 57476, Note_on_c, 12, 69, 0
12, 57546, Note_on_c, 12, 69, 81
12, 58210, Note_on_c, 12, 69, 0
12, 58320, Note_on_c, 12, 70, 91
12, 59054, Note_on_c, 12, 70, 0
12, 59100, Note_on_c, 12, 72, 89
12, 59594, Note_on_c, 12, 72, 0
12, 59680, Note_on_c, 12, 69, 85
12, 59840, Note_on_c, 12, 69, 0
12, 59890, Note_on_c, 12, 67, 87
12, 60552, Note_on_c, 12, 67, 0
12, 60632, Note_on_c, 12, 69, 92
12, 61314, Note_on_c, 12, 69, 0
12, 61394, Note_on_c, 12, 70, 92
12, 62102, Note_on_c, 12, 70, 0
12, 62166, Note_on_c, 12, 71, 96
12, 62836, Note_on_c, 12, 71, 0
12, 62938, Note_on_c, 12, 69, 103
12, 63170, Note_on_c, 12, 69, 0
12, 63344, Note_on_c, 12, 69, 103
12, 63520, Note_on_c, 12, 69, 0
12, 66800, Note_on_c, 12, 64, 101
12, 67288, Note_on_c, 12, 64, 0
12, 67360, Note_on_c, 12, 64, 83
12, 67498, Note_on_c, 12, 64, 0
12, 67550, Note_on_c, 12, 65, 95
12, 67934, Note_on_c, 12, 65, 0
12, 67954, Note_on_c, 12, 64, 85
12, 68134, Note_on_c, 12, 64, 0
12, 68340, Note_on_c, 12, 64, 92
12, 68764, Note_on_c, 12, 64, 0
12, 68852, Note_on_c, 12, 64, 78
12, 68998, Note_on_c, 12, 64, 0
12, 69058, Note_on_c, 12, 65, 92
12, 69386, Note_on_c, 12, 65, 0
12, 69456, Note_on_c, 12, 64, 88
12, 69598, Note_on_c, 12, 64, 0
12, 72940, Note_on_c, 12, 69, 99
12, 73360, Note_on_c, 12, 69, 0
12, 73462, Note_on_c, 12, 69, 94
12, 73612, Note_on_c, 12, 69, 0
12, 73666, Note_on_c, 12, 68, 91
12, 73984, Note_on_c, 12, 68, 0
12, 74084, Note_on_c, 12, 69, 92
12, 74268, Note_on_c, 12, 69, 0
12, 74488, Note_on_c, 12, 69, 99
12, 74910, Note_on_c, 12, 69, 0
12, 75032, Note_on_c, 12, 69, 91
12, 75132, Note_on_c, 12, 69, 0
12, 75228, Note_on_c, 12, 68, 93
12, 75474, Note_on_c, 12, 68, 0
12, 75616, Note_on_c, 12, 69, 96
12, 75762, Note_on_c, 12, 69, 0
12, 79102, Note_on_c, 12, 67, 101
12, 79518, Note_on_c, 12, 67, 0
12, 79638, Note_on_c, 12, 67, 89
12, 79788, Note_on_c, 12, 67, 0
12, 79856, Note_on_c, 12, 69, 96
12, 79984, Note_on_c, 12, 69, 0
12, 80034, Note_on_c, 12, 70, 88
12, 80174, Note_on_c, 12, 70, 0
12, 80238, Note_on_c, 12, 69, 101
12, 80372, Note_on_c, 12, 69, 0
12, 80428, Note_on_c, 12, 70, 89
12, 80550, Note_on_c, 12, 70, 0
12, 80608, Note_on_c, 12, 69, 96
12, 80724, Note_on_c, 12, 69, 0
12, 80774, Note_on_c, 12, 70, 86
12, 80900, Note_on_c, 12, 70, 0
12, 80968, Note_on_c, 12, 69, 91
12, 81070, Note_on_c, 12, 69, 0
12, 81144, Note_on_c, 12, 70, 86
12, 81294, Note_on_c, 12, 70, 0
12, 81354, Note_on_c, 12, 64, 92
12, 81642, Note_on_c, 12, 64, 0
12, 81758, Note_on_c, 12, 69, 99
12, 82052, Note_on_c, 12, 69, 0
12, 82552, Note_on_c, 12, 69, 85
12, 82634, Note_on_c, 12, 69, 0
12, 82726, Note_on_c, 12, 69, 82
12, 82820, Note_on_c, 12, 69, 0
12, 82908, Note_on_c, 12, 69, 92
12, 83170, Note_on_c, 12, 69, 0
12, 83300, Note_on_c, 12, 69, 95
12, 83578, Note_on_c, 12, 69, 0
12, 83696, Note_on_c, 12, 69, 94
12, 83930, Note_on_c, 12, 69, 0
12, 84074, Note_on_c, 12, 69, 94
12, 84308, Note_on_c, 12, 69, 0
12, 84456, Note_on_c, 12, 69, 94
12, 84656, Note_on_c, 12, 69, 0
12, 84832, Note_on_c, 12, 69, 95
12, 84990, Note_on_c, 12, 69, 0
12, 85612, Note_on_c, 12, 69, 89
12, 85684, Note_on_c, 12, 69, 0
12, 85792, Note_on_c, 12, 69, 94
12, 85868, Note_on_c, 12, 69, 0
12, 85992, Note_on_c, 12, 69, 95
12, 86220, Note_on_c, 12, 69, 0
12, 86396, Note_on_c, 12, 69, 92
12, 86628, Note_on_c, 12, 69, 0
12, 86778, Note_on_c, 12, 69, 90
12, 86982, Note_on_c, 12, 69, 0
12, 87138, Note_on_c, 12, 69, 89
12, 87350, Note_on_c, 12, 69, 0
12, 87516, Note_on_c, 12, 69, 94
12, 87720, Note_on_c, 12, 69, 0
12, 87886, Note_on_c, 12, 69, 96
12, 88036, Note_on_c, 12, 69, 0
12, 89436, Note_on_c, 12, 65, 101
12, 90094, Note_on_c, 12, 65, 0
12, 90206, Note_on_c, 12, 65, 94
12, 90490, Note_on_c, 12, 65, 0
12, 90572, Note_on_c, 12, 69, 99
12, 90794, Note_on_c, 12, 69, 0
12, 90952, Note_on_c, 12, 65, 96
12, 91192, Note_on_c, 12, 65, 0
12, 92888, Note_on_c, 12, 70, 95
12, 93298, Note_on_c, 12, 70, 0
12, 93438, Note_on_c, 12, 70, 93
12, 93562, Note_on_c, 12, 70, 0
12, 93642, Note_on_c, 12, 69, 101
12, 93882, Note_on_c, 12, 69, 0
12, 94060, Note_on_c, 12, 69, 96
12, 94260, Note_on_c, 12, 69, 0
12, 94440, Note_on_c, 12, 69, 99
12, 95112, Note_on_c, 12, 69, 0
12, 95188, Note_on_c, 12, 69, 92
12, 95290, Note_on_c, 12, 69, 0
12, 95562, Note_on_c, 12, 65, 92
12, 96136, Note_on_c, 12, 65, 0
12, 96336, Note_on_c, 12, 65, 91
12, 96550, Note_on_c, 12, 65, 0
12, 96708, Note_on_c, 12, 74, 103
12, 96896, Note_on_c, 12, 74, 0
12, 97082, Note_on_c, 12, 70, 97
12, 97286, Note_on_c, 12, 70, 0
12, 99020, Note_on_c, 12, 70, 97
12, 99450, Note_on_c, 12, 70, 0
12, 99594, Note_on_c, 12, 70, 94
12, 99714, Note_on_c, 12, 70, 0
12, 99796, Note_on_c, 12, 69, 96
12, 100062, Note_on_c, 12, 69, 0
12, 100210, Note_on_c, 12, 69, 96
12, 100436, Note_on_c, 12, 69, 0
12, 100592, Note_on_c, 12, 69, 95
12, 101238, Note_on_c, 12, 69, 0
12, 101336, Note_on_c, 12, 69, 101
12, 101572, Note_on_c, 12, 69, 0
12, 101572, End_track
13, 0, Start_track
13, 0, Title_t, "ten"
13, 410, Program_c, 13, 52
13, 411, Control_c, 13, 7, 124
13, 411, Control_c, 13, 10, 57
13, 576, Control_c, 13, 91, 120
13, 3052, Note_on_c, 13, 65, 99
13, 3736, Note_on_c, 13, 65, 0
13, 3820, Note_on_c, 13, 65, 89
13, 4502, Note_on_c, 13, 65, 0
13, 4590, Note_on_c, 13, 67, 103
13, 4814, Note_on_c, 13, 67, 0
13, 4950, Note_on_c, 13, 67, 91
13, 5088, Note_on_c, 13, 67, 0
13, 6102, Note_on_c, 13, 67, 105
13, 6796, Note_on_c, 13, 67, 0
13, 6878, Note_on_c, 13, 67, 91
13, 7574, Note_on_c, 13, 67, 0
13, 7634, Note_on_c, 13, 65, 92
13, 7896, Note_on_c, 13, 65, 0
13, 8054, Note_on_c, 13, 65, 84
13, 8160, Note_on_c, 13, 65, 0
13, 8806, Note_on_c, 13, 65, 92
13, 8882, Note_on_c, 13, 65, 0
13, 8984, Note_on_c, 13, 65, 88
13, 9066, Note_on_c, 13, 65, 0
13, 9168, Note_on_c, 13, 64, 94
13, 9400, Note_on_c, 13, 64, 0
13, 9552, Note_on_c, 13, 62, 84
13, 9704, Note_on_c, 13, 62, 0
13, 10338, Note_on_c, 13, 57, 90
13, 10422, Note_on_c, 13, 57, 0
13, 10512, Note_on_c, 13, 57, 83
13, 10602, Note_on_c, 13, 57, 0
13, 10702, Note_on_c, 13, 64, 89
13, 10986, Note_on_c, 13, 64, 0
13, 11094, Note_on_c, 13, 62, 89
13, 11322, Note_on_c, 13, 62, 0
13, 11902, Note_on_c, 13, 65, 90
13, 11974, Note_on_c, 13, 65, 0
13, 12068, Note_on_c, 13, 65, 81
13, 12160, Note_on_c, 13, 65, 0
13, 12264, Note_on_c, 13, 62, 82
13, 12500, Note_on_c, 13, 62, 0
13, 12668, Note_on_c, 13, 62, 90
13, 12912, Note_on_c, 13, 62, 0
13, 13010, Note_on_c, 13, 61, 87
13, 13282, Note_on_c, 13, 61, 0
13, 13410, Note_on_c, 13, 65, 80
13, 13668, Note_on_c, 13, 65, 0
13, 13784, Note_on_c, 13, 65, 88
13, 14058, Note_on_c, 13, 65, 0
13, 14168, Note_on_c, 13, 64, 91
13, 14374, Note_on_c, 13, 64, 0
13, 16878, Note_on_c, 13, 60, 76
13, 17904, Note_on_c, 13, 60, 0
13, 18010, Note_on_c, 13, 53, 77
13, 18274, Note_on_c, 13, 53, 0
13, 18392, Note_on_c, 13, 65, 95
13, 19486, Note_on_c, 13, 65, 0
13, 19576, Note_on_c, 13, 60, 92
13, 19872, Note_on_c, 13, 60, 0
13, 19932, Note_on_c, 13, 57, 92
13, 20246, Note_on_c, 13, 57, 0
13, 20306, Note_on_c, 13, 54, 90
13, 20626, Note_on_c, 13, 54, 0
13, 20682, Note_on_c, 13, 57, 89
13, 20974, Note_on_c, 13, 57, 0
13, 21036, Note_on_c, 13, 60, 85
13, 21372, Note_on_c, 13, 60, 0
13, 21458, Note_on_c, 13, 60, 96
13, 22178, Note_on_c, 13, 60, 0
13, 22228, Note_on_c, 13, 59, 95
13, 22664, Note_on_c, 13, 59, 0
13, 23028, Note_on_c, 13, 67, 105
13, 24060, Note_on_c, 13, 67, 0
13, 24172, Note_on_c, 13, 62, 96
13, 24466, Note_on_c, 13, 62, 0
13, 24536, Note_on_c, 13, 59, 89
13, 24822, Note_on_c, 13, 59, 0
13, 24906, Note_on_c, 13, 56, 88
13, 25212, Note_on_c, 13, 56, 0
13, 25278, Note_on_c, 13, 59, 87
13, 25586, Note_on_c, 13, 59, 0
13, 25662, Note_on_c, 13, 62, 84
13, 25984, Note_on_c, 13, 62, 0
13, 26070, Note_on_c, 13, 60, 99
13, 26558, Note_on_c, 13, 60, 0
13, 26656, Note_on_c, 13, 57, 88
13, 26750, Note_on_c, 13, 57, 0
13, 26832, Note_on_c, 13, 62, 89
13, 27352, Note_on_c, 13, 62, 0
13, 27412, Note_on_c, 13, 59, 84
13, 27504, Note_on_c, 13, 59, 0
13, 27610, Note_on_c, 13, 64, 92
13, 27842, Note_on_c, 13, 64, 0
13, 27978, Note_on_c, 13, 57, 87
13, 28294, Note_on_c, 13, 57, 0
13, 28780, Note_on_c, 13, 65, 92
13, 28870, Note_on_c, 13, 65, 0
13, 28954, Note_on_c, 13, 65, 85
13, 29048, Note_on_c, 13, 65, 0
13, 29152, Note_on_c, 13, 64, 96
13, 29400, Note_on_c, 13, 64, 0
13, 29544, Note_on_c, 13, 64, 95
13, 29772, Note_on_c, 13, 64, 0
13, 29918, Note_on_c, 13, 64, 94
13, 30600, Note_on_c, 13, 64, 0
13, 30652, Note_on_c, 13, 64, 101
13, 30778, Note_on_c, 13, 64, 0
13, 35312, Note_on_c, 13, 64, 99
13, 35988, Note_on_c, 13, 64, 0
13, 36070, Note_on_c, 13, 64, 91
13, 36726, Note_on_c, 13, 64, 0
13, 36826, Note_on_c, 13, 62, 95
13, 37040, Note_on_c, 13, 62, 0
13, 37208, Note_on_c, 13, 62, 90
13, 37362, Note_on_c, 13, 62, 0
13, 38386, Note_on_c, 13, 62, 95
13, 39054, Note_on_c, 13, 62, 0
13, 39144, Note_on_c, 13, 62, 91
13, 39844, Note_on_c, 13, 62, 0
13, 39906, Note_on_c, 13, 60, 92
13, 40178, Note_on_c, 13, 60, 0
13, 40288, Note_on_c, 13, 60, 89
13, 40516, Note_on_c, 13, 60, 0
13, 41072, Note_on_c, 13, 60, 90
13, 41148, Note_on_c, 13, 60, 0
13, 41232, Note_on_c, 13, 60, 80
13, 41324, Note_on_c, 13, 60, 0
13, 41432, Note_on_c, 13, 62, 92
13, 41666, Note_on_c, 13, 62, 0
13, 41826, Note_on_c, 13, 64, 96
13, 42042, Note_on_c, 13, 64, 0
13, 42596, Note_on_c, 13, 64, 88
13, 42656, Note_on_c, 13, 64, 0
13, 42776, Note_on_c, 13, 64, 84
13, 42840, Note_on_c, 13, 64, 0
13, 42970, Note_on_c, 13, 64, 94
13, 43186, Note_on_c, 13, 64, 0
13, 43374, Note_on_c, 13, 64, 92
13, 43566, Note_on_c, 13, 64, 0
13, 44128, Note_on_c, 13, 60, 90
13, 44228, Note_on_c, 13, 60, 0
13, 44306, Note_on_c, 13, 59, 89
13, 44400, Note_on_c, 13, 59, 0
13, 44500, Note_on_c, 13, 57, 91
13, 44758, Note_on_c, 13, 57, 0
13, 44892, Note_on_c, 13, 60, 94
13, 45178, Note_on_c, 13, 60, 0
13, 45276, Note_on_c, 13, 62, 91
13, 45552, Note_on_c, 13, 62, 0
13, 45664, Note_on_c, 13, 60, 91
13, 45904, Note_on_c, 13, 60, 0
13, 46026, Note_on_c, 13, 60, 91
13, 46286, Note_on_c, 13, 60, 0
13, 46420, Note_on_c, 13, 59, 91
13, 46664, Note_on_c, 13, 59, 0
13, 49134, Note_on_c, 13, 63, 83
13, 50154, Note_on_c, 13, 63, 0
13, 50228, Note_on_c, 13, 63, 68
13, 50576, Note_on_c, 13, 63, 0
13, 50636, Note_on_c, 13, 63, 78
13, 50974, Note_on_c, 13, 63, 0
13, 51026, Note_on_c, 13, 63, 88
13, 51326, Note_on_c, 13, 63, 0
13, 51388, Note_on_c, 13, 63, 76
13, 51718, Note_on_c, 13, 63, 0
13, 51798, Note_on_c, 13, 63, 76
13, 52106, Note_on_c, 13, 63, 0
13, 52182, Note_on_c, 13, 63, 62
13, 52510, Note_on_c, 13, 63, 0
13, 52556, Note_on_c, 13, 64, 64
13, 52886, Note_on_c, 13, 64, 0
13, 52960, Note_on_c, 13, 64, 62
13, 53526, Note_on_c, 13, 64, 0
13, 53768, Note_on_c, 13, 64, 84
13, 54806, Note_on_c, 13, 64, 0
13, 54888, Note_on_c, 13, 61, 76
13, 55200, Note_on_c, 13, 61, 0
13, 55262, Note_on_c, 13, 61, 69
13, 55576, Note_on_c, 13, 61, 0
13, 55630, Note_on_c, 13, 64, 79
13, 55954, Note_on_c, 13, 64, 0
13, 56010, Note_on_c, 13, 61, 75
13, 56326, Note_on_c, 13, 61, 0
13, 56376, Note_on_c, 13, 64, 73
13, 56688, Note_on_c, 13, 64, 0
13, 56768, Note_on_c, 13, 64, 77
13, 57136, Note_on_c, 13, 64, 0
13, 57174, Note_on_c, 13, 65, 74
13, 57472, Note_on_c, 13, 65, 0
13, 57548, Note_on_c, 13, 65, 66
13, 58102, Note_on_c, 13, 65, 0
13, 58342, Note_on_c, 13, 63, 92
13, 59028, Note_on_c, 13, 63, 0
13, 59100, Note_on_c, 13, 63, 83
13, 59778, Note_on_c, 13, 63, 0
13, 59868, Note_on_c, 13, 62, 78
13, 60538, Note_on_c, 13, 62, 0
13, 60632, Note_on_c, 13, 60, 80
13, 61282, Note_on_c, 13, 60, 0
13, 61384, Note_on_c, 13, 58, 90
13, 62088, Note_on_c, 13, 58, 0
13, 62164, Note_on_c, 13, 65, 89
13, 62744, Note_on_c, 13, 65, 0
13, 62942, Note_on_c, 13, 65, 101
13, 63170, Note_on_c, 13, 65, 0
13, 63364, Note_on_c, 13, 64, 103
13, 63536, Note_on_c, 13, 64, 0
13, 66810, Note_on_c, 13, 61, 92
13, 67290, Note_on_c, 13, 61, 0
13, 67358, Note_on_c, 13, 61, 74
13, 67518, Note_on_c, 13, 61, 0
13, 67564, Note_on_c, 13, 62, 83
13, 67896, Note_on_c, 13, 62, 0
13, 67944, Note_on_c, 13, 61, 84
13, 68130, Note_on_c, 13, 61, 0
13, 68322, Note_on_c, 13, 61, 93
13, 68784, Note_on_c, 13, 61, 0
13, 68868, Note_on_c, 13, 61, 79
13, 69012, Note_on_c, 13, 61, 0
13, 69060, Note_on_c, 13, 62, 87
13, 69404, Note_on_c, 13, 62, 0
13, 69442, Note_on_c, 13, 61, 86
13, 69632, Note_on_c, 13, 61, 0
13, 72950, Note_on_c, 13, 61, 92
13, 73420, Note_on_c, 13, 61, 0
13, 73488, Note_on_c, 13, 61, 76
13, 73640, Note_on_c, 13, 61, 0
13, 73686, Note_on_c, 13, 62, 85
13, 74034, Note_on_c, 13, 62, 0
13, 74076, Note_on_c, 13, 61, 90
13, 74280, Note_on_c, 13, 61, 0
13, 74462, Note_on_c, 13, 61, 92
13, 74946, Note_on_c, 13, 61, 0
13, 75020, Note_on_c, 13, 61, 76
13, 75146, Note_on_c, 13, 61, 0
13, 75202, Note_on_c, 13, 62, 89
13, 75514, Note_on_c, 13, 62, 0
13, 75586, Note_on_c, 13, 61, 90
13, 75780, Note_on_c, 13, 61, 0
13, 79104, Note_on_c, 13, 62, 95
13, 79546, Note_on_c, 13, 62, 0
13, 79644, Note_on_c, 13, 62, 88
13, 79776, Note_on_c, 13, 62, 0
13, 79850, Note_on_c, 13, 63, 97
13, 80022, Note_on_c, 13, 63, 0
13, 80040, Note_on_c, 13, 62, 83
13, 80150, Note_on_c, 13, 62, 0
13, 80220, Note_on_c, 13, 63, 101
13, 80382, Note_on_c, 13, 63, 0
13, 80418, Note_on_c, 13, 62, 85
13, 80524, Note_on_c, 13, 62, 0
13, 80594, Note_on_c, 13, 63, 98
13, 80740, Note_on_c, 13, 63, 0
13, 80774, Note_on_c, 13, 62, 88
13, 80880, Note_on_c, 13, 62, 0
13, 80954, Note_on_c, 13, 63, 94
13, 81076, Note_on_c, 13, 63, 0
13, 81150, Note_on_c, 13, 62, 90
13, 81252, Note_on_c, 13, 62, 0
13, 81348, Note_on_c, 13, 61, 92
13, 81664, Note_on_c, 13, 61, 0
13, 81762, Note_on_c, 13, 64, 96
13, 82076, Note_on_c, 13, 64, 0
13, 82538, Note_on_c, 13, 64, 99
13, 82634, Note_on_c, 13, 64, 0
13, 82708, Note_on_c, 13, 64, 83
13, 82792, Note_on_c, 13, 64, 0
13, 82886, Note_on_c, 13, 65, 99
13, 83118, Note_on_c, 13, 65, 0
13, 83308, Note_on_c, 13, 64, 101
13, 83540, Note_on_c, 13, 64, 0
13, 83688, Note_on_c, 13, 65, 94
13, 83914, Note_on_c, 13, 65, 0
13, 84072, Note_on_c, 13, 64, 95
13, 84274, Note_on_c, 13, 64, 0
13, 84448, Note_on_c, 13, 65, 94
13, 84630, Note_on_c, 13, 65, 0
13, 84826, Note_on_c, 13, 64, 95
13, 84988, Note_on_c, 13, 64, 0
13, 85596, Note_on_c, 13, 65, 91
13, 85680, Note_on_c, 13, 65, 0
13, 85772, Note_on_c, 13, 65, 84
13, 85848, Note_on_c, 13, 65, 0
13, 85978, Note_on_c, 13, 64, 92
13, 86206, Note_on_c, 13, 64, 0
13, 86374, Note_on_c, 13, 62, 87
13, 86590, Note_on_c, 13, 62, 0
13, 86750, Note_on_c, 13, 64, 92
13, 86950, Note_on_c, 13, 64, 0
13, 87108, Note_on_c, 13, 62, 83
13, 87326, Note_on_c, 13, 62, 0
13, 87498, Note_on_c, 13, 64, 91
13, 87668, Note_on_c, 13, 64, 0
13, 87856, Note_on_c, 13, 62, 88
13, 88036, Note_on_c, 13, 62, 0
13, 90998, Note_on_c, 13, 62, 105
13, 91670, Note_on_c, 13, 62, 0
13, 91754, Note_on_c, 13, 62, 89
13, 92050, Note_on_c, 13, 62, 0
13, 92124, Note_on_c, 13, 65, 95
13, 92374, Note_on_c, 13, 65, 0
13, 92490, Note_on_c, 13, 62, 89
13, 92720, Note_on_c, 13, 62, 0
13, 92900, Note_on_c, 13, 62, 94
13, 93316, Note_on_c, 13, 62, 0
13, 93442, Note_on_c, 13, 62, 94
13, 93564, Note_on_c, 13, 62, 0
13, 93654, Note_on_c, 13, 61, 94
13, 93944, Note_on_c, 13, 61, 0
13, 94044, Note_on_c, 13, 62, 94
13, 94292, Note_on_c, 13, 62, 0
13, 94428, Note_on_c, 13, 62, 94
13, 94702, Note_on_c, 13, 62, 0
13, 94782, Note_on_c, 13, 61, 84
13, 95108, Note_on_c, 13, 61, 0
13, 95184, Note_on_c, 13, 62, 99
13, 95428, Note_on_c, 13, 62, 0
13, 97120, Note_on_c, 13, 62, 92
13, 97764, Note_on_c, 13, 62, 0
13, 97876, Note_on_c, 13, 62, 90
13, 98158, Note_on_c, 13, 62, 0
13, 98252, Note_on_c, 13, 67, 96
13, 98554, Note_on_c, 13, 67, 0
13, 98652, Note_on_c, 13, 63, 100
13, 98894, Note_on_c, 13, 63, 0
13, 99024, Note_on_c, 13, 63, 100
13, 99506, Note_on_c, 13, 63, 0
13, 99616, Note_on_c, 13, 62, 84
13, 99734, Note_on_c, 13, 62, 0
13, 99820, Note_on_c, 13, 61, 94
13, 100080, Note_on_c, 13, 61, 0
13, 100186, Note_on_c, 13, 62, 94
13, 100450, Note_on_c, 13, 62, 0
13, 100576, Note_on_c, 13, 62, 95
13, 100832, Note_on_c, 13, 62, 0
13, 100950, Note_on_c, 13, 61, 90
13, 101238, Note_on_c, 13, 61, 0
13, 101322, Note_on_c, 13, 62, 99
13, 101594, Note_on_c, 13, 62, 0
13, 101594, End_track
14, 0, Start_track
14, 0, Title_t, "bassi"
14, 412, Program_c, 14, 52
14, 413, Control_c, 14, 7, 124
14, 413, Control_c, 14, 10, 70
14, 480, Control_c, 14, 91, 120
14, 3066, Note_on_c, 14, 62, 103
14, 3744, Note_on_c, 14, 62, 0
14, 3832, Note_on_c, 14, 62, 101
14, 4490, Note_on_c, 14, 62, 0
14, 4592, Note_on_c, 14, 62, 105
14, 4758, Note_on_c, 14, 62, 0
14, 4986, Note_on_c, 14, 62, 87
14, 5070, Note_on_c, 14, 62, 0
14, 6100, Note_on_c, 14, 61, 102
14, 6778, Note_on_c, 14, 61, 0
14, 6868, Note_on_c, 14, 61, 98
14, 7594, Note_on_c, 14, 61, 0
14, 7662, Note_on_c, 14, 62, 94
14, 7848, Note_on_c, 14, 62, 0
14, 8038, Note_on_c, 14, 62, 96
14, 8168, Note_on_c, 14, 62, 0
14, 8792, Note_on_c, 14, 50, 99
14, 8870, Note_on_c, 14, 50, 0
14, 8970, Note_on_c, 14, 50, 95
14, 9050, Note_on_c, 14, 50, 0
14, 9164, Note_on_c, 14, 52, 91
14, 9438, Note_on_c, 14, 52, 0
14, 9578, Note_on_c, 14, 53, 85
14, 9816, Note_on_c, 14, 53, 0
14, 10348, Note_on_c, 14, 53, 84
14, 10408, Note_on_c, 14, 53, 0
14, 10538, Note_on_c, 14, 53, 81
14, 10598, Note_on_c, 14, 53, 0
14, 10726, Note_on_c, 14, 49, 90
14, 10998, Note_on_c, 14, 49, 0
14, 11106, Note_on_c, 14, 50, 88
14, 11370, Note_on_c, 14, 50, 0
14, 11882, Note_on_c, 14, 62, 83
14, 11968, Note_on_c, 14, 62, 0
14, 12066, Note_on_c, 14, 60, 83
14, 12140, Note_on_c, 14, 60, 0
14, 12278, Note_on_c, 14, 58, 90
14, 12534, Note_on_c, 14, 58, 0
14, 12650, Note_on_c, 14, 57, 85
14, 12896, Note_on_c, 14, 57, 0
14, 13008, Note_on_c, 14, 55, 84
14, 13254, Note_on_c, 14, 55, 0
14, 13380, Note_on_c, 14, 50, 87
14, 13650, Note_on_c, 14, 50, 0
14, 13776, Note_on_c, 14, 57, 95
14, 14032, Note_on_c, 14, 57, 0
14, 14146, Note_on_c, 14, 57, 92
14, 14438, Note_on_c, 14, 57, 0
14, 16872, Note_on_c, 14, 53, 99
14, 17862, Note_on_c, 14, 53, 0
14, 18018, Note_on_c, 14, 53, 99
14, 18318, Note_on_c, 14, 53, 0
14, 18394, Note_on_c, 14, 53, 88
14, 18704, Note_on_c, 14, 53, 0
14, 18780, Note_on_c, 14, 53, 85
14, 19084, Note_on_c, 14, 53, 0
14, 19152, Note_on_c, 14, 53, 90
14, 19456, Note_on_c, 14, 53, 0
14, 19538, Note_on_c, 14, 53, 91
14, 19852, Note_on_c, 14, 53, 0
14, 19930, Note_on_c, 14, 54, 82
14, 20624, Note_on_c, 14, 54, 0
14, 20700, Note_on_c, 14, 54, 76
14, 21208, Note_on_c, 14, 54, 0
14, 21478, Note_on_c, 14, 55, 87
14, 22480, Note_on_c, 14, 55, 0
14, 22612, Note_on_c, 14, 55, 82
14, 22928, Note_on_c, 14, 55, 0
14, 23000, Note_on_c, 14, 55, 80
14, 23326, Note_on_c, 14, 55, 0
14, 23392, Note_on_c, 14, 55, 80
14, 23704, Note_on_c, 14, 55, 0
14, 23766, Note_on_c, 14, 55, 80
14, 24076, Note_on_c, 14, 55, 0
14, 24154, Note_on_c, 14, 55, 81
14, 24474, Note_on_c, 14, 55, 0
14, 24542, Note_on_c, 14, 56, 85
14, 25208, Note_on_c, 14, 56, 0
14, 25304, Note_on_c, 14, 56, 90
14, 25904, Note_on_c, 14, 56, 0
14, 26082, Note_on_c, 14, 57, 95
14, 26786, Note_on_c, 14, 57, 0
14, 26858, Note_on_c, 14, 59, 91
14, 27492, Note_on_c, 14, 59, 0
14, 27626, Note_on_c, 14, 60, 94
14, 28298, Note_on_c, 14, 60, 0
14, 28380, Note_on_c, 14, 62, 89
14, 29048, Note_on_c, 14, 62, 0
14, 29158, Note_on_c, 14, 64, 92
14, 29456, Note_on_c, 14, 64, 0
14, 29546, Note_on_c, 14, 57, 87
14, 29812, Note_on_c, 14, 57, 0
14, 29924, Note_on_c, 14, 52, 89
14, 30630, Note_on_c, 14, 52, 0
14, 30682, Note_on_c, 14, 57, 87
14, 30944, Note_on_c, 14, 57, 0
14, 35314, Note_on_c, 14, 57, 99
14, 36000, Note_on_c, 14, 57, 0
14, 36076, Note_on_c, 14, 57, 94
14, 36702, Note_on_c, 14, 57, 0
14, 36818, Note_on_c, 14, 57, 108
14, 36990, Note_on_c, 14, 57, 0
14, 37224, Note_on_c, 14, 57, 101
14, 37368, Note_on_c, 14, 57, 0
14, 38378, Note_on_c, 14, 56, 104
14, 39066, Note_on_c, 14, 56, 0
14, 39156, Note_on_c, 14, 56, 84
14, 39806, Note_on_c, 14, 56, 0
14, 39902, Note_on_c, 14, 57, 95
14, 40150, Note_on_c, 14, 57, 0
14, 40278, Note_on_c, 14, 57, 92
14, 40662, Note_on_c, 14, 57, 0
14, 41054, Note_on_c, 14, 57, 95
14, 41134, Note_on_c, 14, 57, 0
14, 41240, Note_on_c, 14, 57, 92
14, 41320, Note_on_c, 14, 57, 0
14, 41432, Note_on_c, 14, 62, 96
14, 41682, Note_on_c, 14, 62, 0
14, 41812, Note_on_c, 14, 60, 99
14, 42068, Note_on_c, 14, 60, 0
14, 42590, Note_on_c, 14, 60, 87
14, 42668, Note_on_c, 14, 60, 0
14, 42790, Note_on_c, 14, 60, 84
14, 42874, Note_on_c, 14, 60, 0
14, 42974, Note_on_c, 14, 59, 96
14, 43216, Note_on_c, 14, 59, 0
14, 43358, Note_on_c, 14, 57, 96
14, 43616, Note_on_c, 14, 57, 0
14, 44152, Note_on_c, 14, 57, 91
14, 44236, Note_on_c, 14, 57, 0
14, 44332, Note_on_c, 14, 55, 88
14, 44416, Note_on_c, 14, 55, 0
14, 44530, Note_on_c, 14, 53, 94
14, 44798, Note_on_c, 14, 53, 0
14, 44898, Note_on_c, 14, 52, 89
14, 45180, Note_on_c, 14, 52, 0
14, 45260, Note_on_c, 14, 50, 92
14, 45516, Note_on_c, 14, 50, 0
14, 45630, Note_on_c, 14, 57, 90
14, 45892, Note_on_c, 14, 57, 0
14, 46030, Note_on_c, 14, 52, 85
14, 46266, Note_on_c, 14, 52, 0
14, 46412, Note_on_c, 14, 52, 91
14, 46716, Note_on_c, 14, 52, 0
14, 49124, Note_on_c, 14, 60, 70
14, 50166, Note_on_c, 14, 60, 0
14, 50236, Note_on_c, 14, 60, 76
14, 50582, Note_on_c, 14, 60, 0
14, 50648, Note_on_c, 14, 60, 80
14, 50964, Note_on_c, 14, 60, 0
14, 51032, Note_on_c, 14, 60, 80
14, 51328, Note_on_c, 14, 60, 0
14, 51404, Note_on_c, 14, 60, 83
14, 51704, Note_on_c, 14, 60, 0
14, 51786, Note_on_c, 14, 60, 85
14, 52104, Note_on_c, 14, 60, 0
14, 52192, Note_on_c, 14, 60, 84
14, 52530, Note_on_c, 14, 60, 0
14, 52566, Note_on_c, 14, 58, 69
14, 52880, Note_on_c, 14, 58, 0
14, 52964, Note_on_c, 14, 58, 69
14, 53600, Note_on_c, 14, 58, 0
14, 53742, Note_on_c, 14, 58, 84
14, 54774, Note_on_c, 14, 58, 0
14, 54882, Note_on_c, 14, 58, 81
14, 55182, Note_on_c, 14, 58, 0
14, 55256, Note_on_c, 14, 58, 78
14, 55584, Note_on_c, 14, 58, 0
14, 55644, Note_on_c, 14, 57, 80
14, 55926, Note_on_c, 14, 57, 0
14, 56022, Note_on_c, 14, 57, 78
14, 56372, Note_on_c, 14, 57, 0
14, 56388, Note_on_c, 14, 55, 77
14, 56692, Note_on_c, 14, 55, 0
14, 56782, Note_on_c, 14, 55, 76
14, 57132, Note_on_c, 14, 55, 0
14, 57164, Note_on_c, 14, 53, 71
14, 57458, Note_on_c, 14, 53, 0
14, 57542, Note_on_c, 14, 53, 74
14, 58134, Note_on_c, 14, 53, 0
14, 58324, Note_on_c, 14, 55, 87
14, 59042, Note_on_c, 14, 55, 0
14, 59114, Note_on_c, 14, 57, 92
14, 59776, Note_on_c, 14, 57, 0
14, 59878, Note_on_c, 14, 58, 82
14, 60566, Note_on_c, 14, 58, 0
14, 60632, Note_on_c, 14, 57, 82
14, 61310, Note_on_c, 14, 57, 0
14, 61400, Note_on_c, 14, 55, 73
14, 62058, Note_on_c, 14, 55, 0
14, 62178, Note_on_c, 14, 56, 85
14, 62872, Note_on_c, 14, 56, 0
14, 62958, Note_on_c, 14, 57, 95
14, 63184, Note_on_c, 14, 57, 0
14, 63348, Note_on_c, 14, 57, 94
14, 63430, Note_on_c, 14, 57, 0
14, 63712, Note_on_c, 14, 57, 95
14, 64134, Note_on_c, 14, 57, 0
14, 64272, Note_on_c, 14, 57, 94
14, 64394, Note_on_c, 14, 57, 0
14, 64470, Note_on_c, 14, 56, 94
14, 64640, Note_on_c, 14, 56, 0
14, 64676, Note_on_c, 14, 57, 89
14, 64788, Note_on_c, 14, 57, 0
14, 64868, Note_on_c, 14, 56, 95
14, 64986, Note_on_c, 14, 56, 0
14, 65050, Note_on_c, 14, 57, 91
14, 65156, Note_on_c, 14, 57, 0
14, 65242, Note_on_c, 14, 56, 98
14, 65368, Note_on_c, 14, 56, 0
14, 65438, Note_on_c, 14, 57, 91
14, 65540, Note_on_c, 14, 57, 0
14, 65618, Note_on_c, 14, 56, 95
14, 65720, Note_on_c, 14, 56, 0
14, 65794, Note_on_c, 14, 57, 92
14, 65898, Note_on_c, 14, 57, 0
14, 65994, Note_on_c, 14, 58, 95
14, 66324, Note_on_c, 14, 58, 0
14, 66380, Note_on_c, 14, 57, 94
14, 66578, Note_on_c, 14, 57, 0
14, 69870, Note_on_c, 14, 57, 88
14, 70294, Note_on_c, 14, 57, 0
14, 70394, Note_on_c, 14, 57, 83
14, 70532, Note_on_c, 14, 57, 0
14, 70594, Note_on_c, 14, 56, 89
14, 70756, Note_on_c, 14, 56, 0
14, 70796, Note_on_c, 14, 57, 83
14, 70920, Note_on_c, 14, 57, 0
14, 70990, Note_on_c, 14, 56, 86
14, 71126, Note_on_c, 14, 56, 0
14, 71192, Note_on_c, 14, 57, 92
14, 71306, Note_on_c, 14, 57, 0
14, 71382, Note_on_c, 14, 56, 88
14, 71510, Note_on_c, 14, 56, 0
14, 71578, Note_on_c, 14, 57, 90
14, 71690, Note_on_c, 14, 57, 0
14, 71758, Note_on_c, 14, 56, 91
14, 71862, Note_on_c, 14, 56, 0
14, 71944, Note_on_c, 14, 57, 89
14, 72064, Note_on_c, 14, 57, 0
14, 72150, Note_on_c, 14, 58, 92
14, 72458, Note_on_c, 14, 58, 0
14, 72526, Note_on_c, 14, 57, 90
14, 72742, Note_on_c, 14, 57, 0
14, 76016, Note_on_c, 14, 57, 101
14, 76456, Note_on_c, 14, 57, 0
14, 76548, Note_on_c, 14, 57, 94
14, 76690, Note_on_c, 14, 57, 0
14, 76744, Note_on_c, 14, 56, 93
14, 76908, Note_on_c, 14, 56, 0
14, 76946, Note_on_c, 14, 57, 94
14, 77072, Note_on_c, 14, 57, 0
14, 77148, Note_on_c, 14, 56, 98
14, 77298, Note_on_c, 14, 56, 0
14, 77342, Note_on_c, 14, 57, 94
14, 77440, Note_on_c, 14, 57, 0
14, 77522, Note_on_c, 14, 56, 99
14, 77660, Note_on_c, 14, 56, 0
14, 77706, Note_on_c, 14, 57, 94
14, 77800, Note_on_c, 14, 57, 0
14, 77890, Note_on_c, 14, 56, 98
14, 78004, Note_on_c, 14, 56, 0
14, 78080, Note_on_c, 14, 57, 94
14, 78212, Note_on_c, 14, 57, 0
14, 78296, Note_on_c, 14, 58, 95
14, 78572, Note_on_c, 14, 58, 0
14, 78698, Note_on_c, 14, 46, 105
14, 78948, Note_on_c, 14, 46, 0
14, 79080, Note_on_c, 14, 58, 98
14, 79520, Note_on_c, 14, 58, 0
14, 79650, Note_on_c, 14, 58, 95
14, 79790, Note_on_c, 14, 58, 0
14, 79852, Note_on_c, 14, 60, 87
14, 79990, Note_on_c, 14, 60, 0
14, 80038, Note_on_c, 14, 58, 92
14, 80162, Note_on_c, 14, 58, 0
14, 80238, Note_on_c, 14, 60, 83
14, 80344, Note_on_c, 14, 60, 0
14, 80422, Note_on_c, 14, 58, 88
14, 80532, Note_on_c, 14, 58, 0
14, 80600, Note_on_c, 14, 60, 84
14, 80702, Note_on_c, 14, 60, 0
14, 80796, Note_on_c, 14, 58, 91
14, 80908, Note_on_c, 14, 58, 0
14, 80980, Note_on_c, 14, 60, 82
14, 81074, Note_on_c, 14, 60, 0
14, 81148, Note_on_c, 14, 58, 89
14, 81238, Note_on_c, 14, 58, 0
14, 81346, Note_on_c, 14, 57, 99
14, 81644, Note_on_c, 14, 57, 0
14, 81742, Note_on_c, 14, 57, 108
14, 82038, Note_on_c, 14, 57, 0
14, 82542, Note_on_c, 14, 57, 95
14, 82622, Note_on_c, 14, 57, 0
14, 82714, Note_on_c, 14, 57, 83
14, 82796, Note_on_c, 14, 57, 0
14, 82900, Note_on_c, 14, 62, 92
14, 83154, Note_on_c, 14, 62, 0
14, 83314, Note_on_c, 14, 57, 96
14, 83556, Note_on_c, 14, 57, 0
14, 83688, Note_on_c, 14, 62, 87
14, 83904, Note_on_c, 14, 62, 0
14, 84050, Note_on_c, 14, 57, 90
14, 84282, Note_on_c, 14, 57, 0
14, 84436, Note_on_c, 14, 62, 89
14, 84648, Note_on_c, 14, 62, 0
14, 84824, Note_on_c, 14, 57, 94
14, 85084, Note_on_c, 14, 57, 0
14, 85606, Note_on_c, 14, 62, 84
14, 85690, Note_on_c, 14, 62, 0
14, 85782, Note_on_c, 14, 62, 80
14, 85878, Note_on_c, 14, 62, 0
14, 85976, Note_on_c, 14, 61, 94
14, 86234, Note_on_c, 14, 61, 0
14, 86372, Note_on_c, 14, 62, 87
14, 86632, Note_on_c, 14, 62, 0
14, 86750, Note_on_c, 14, 61, 95
14, 86986, Note_on_c, 14, 61, 0
14, 87124, Note_on_c, 14, 62, 88
14, 87370, Note_on_c, 14, 62, 0
14, 87506, Note_on_c, 14, 61, 100
14, 87744, Note_on_c, 14, 61, 0
14, 87894, Note_on_c, 14, 62, 92
14, 88136, Note_on_c, 14, 62, 0
14, 90992, Note_on_c, 14, 53, 108
14, 91608, Note_on_c, 14, 53, 0
14, 91738, Note_on_c, 14, 53, 90
14, 92046, Note_on_c, 14, 53, 0
14, 92122, Note_on_c, 14, 62, 91
14, 92424, Note_on_c, 14, 62, 0
14, 92502, Note_on_c, 14, 58, 91
14, 92800, Note_on_c, 14, 58, 0
14, 92874, Note_on_c, 14, 55, 90
14, 93154, Note_on_c, 14, 55, 0
14, 93234, Note_on_c, 14, 52, 79
14, 93542, Note_on_c, 14, 52, 0
14, 93630, Note_on_c, 14, 57, 89
14, 93916, Note_on_c, 14, 57, 0
14, 94020, Note_on_c, 14, 50, 91
14, 94288, Note_on_c, 14, 50, 0
14, 94416, Note_on_c, 14, 57, 101
14, 95060, Note_on_c, 14, 57, 0
14, 95180, Note_on_c, 14, 50, 103
14, 95458, Note_on_c, 14, 50, 0
14, 97100, Note_on_c, 14, 58, 106
14, 97742, Note_on_c, 14, 58, 0
14, 97884, Note_on_c, 14, 58, 98
14, 98168, Note_on_c, 14, 58, 0
14, 98240, Note_on_c, 14, 58, 87
14, 98510, Note_on_c, 14, 58, 0
14, 98648, Note_on_c, 14, 55, 95
14, 98910, Note_on_c, 14, 55, 0
14, 99020, Note_on_c, 14, 55, 96
14, 99308, Note_on_c, 14, 55, 0
14, 99416, Note_on_c, 14, 55, 92
14, 99700, Note_on_c, 14, 55, 0
14, 99802, Note_on_c, 14, 57, 101
14, 100054, Note_on_c, 14, 57, 0
14, 100180, Note_on_c, 14, 62, 89
14, 100420, Note_on_c, 14, 62, 0
14, 100564, Note_on_c, 14, 57, 101
14, 101194, Note_on_c, 14, 57, 0
14, 101348, Note_on_c, 14, 50, 103
14, 101636, Note_on_c, 14, 50, 0
14, 101636, End_track
15, 0, Start_track
15, 0, Title_t, "SysEx"
15, 0, End_track
16, 0, Start_track
16, 0, Title_t, "M.Salvi"
16, 0, End_track
17, 0, Start_track
17, 0, Title_t, "masalv@"
17, 0, End_track
18, 0, Start_track
18, 0, Title_t, "mbox."
18, 0, End_track
19, 0, Start_track
19, 0, Title_t, "vol.it"
19, 0, End_track
20, 0, Start_track
20, 0, End_track
0, 0, End_of_file