0, 0, Header, 1, 22, 240
1, 0, Start_track
1, 0, Sequencer_specific, 0A, 00, 00, 5B, 23, 01, 00, 05, 04, 23, 00
1, 0, Title_t, "W.A. Mozart - Requiem K. 626"
1, 0, Instrument_name_t, "Conductor Track"
1, 0, SMPTE_offset, 96, 0, 3, 0, 0
1, 0, MIDI_port, 0
1, 0, Key_signature, -1, "major"
1, 0, Tempo, 923076
1, 0, Time_signature, 3, 2, 24, 8
1, 36720, Tempo, 3000000
1, 36720, Time_signature, 4, 2, 24, 8
1, 36840, Tempo, 1200000
1, 65040, Tempo, 2400000
1, 65520, Tempo, 545454
1, 112800, Tempo, 2400000
1, 113040, Tempo, 1200000
1, 113040, End_track
2, 0, Start_track
2, 0, Title_t, "No. 12 - Agnus Dei (w/ organ)"
2, 0, MIDI_port, 0
2, 0, End_track
3, 0, Start_track
3, 0, Title_t, "Sequenced by D. Viens 25 Oct 1997"
3, 0, MIDI_port, 0
3, 0, End_track
4, 0, Start_track
4, 0, Title_t, "dlviens@ix.netcom.com"
4, 0, MIDI_port, 0
4, 0, End_track
5, 0, Start_track
5, 0, MIDI_port, 0
5, 0, End_track
6, 0, Start_track
6, 0, Title_t, "Corni di Bassetto in F"
6, 0, MIDI_port, 0
6, 0, Control_c, 0, 7, 96
6, 0, Control_c, 0, 10, 75
6, 0, Control_c, 0, 11, 127
6, 0, Program_c, 0, 71
6, 0, Note_on_c, 0, 69, 72
6, 0, Note_on_c, 0, 65, 72
6, 239, Note_on_c, 0, 69, 0
6, 239, Note_on_c, 0, 65, 0
6, 720, Note_on_c, 0, 69, 72
6, 720, Note_on_c, 0, 65, 72
6, 959, Note_on_c, 0, 69, 0
6, 959, Note_on_c, 0, 65, 0
6, 1440, Note_on_c, 0, 70, 72
6, 1440, Note_on_c, 0, 67, 72
6, 1679, Note_on_c, 0, 70, 0
6, 1679, Note_on_c, 0, 67, 0
6, 2160, Note_on_c, 0, 69, 72
6, 2160, Note_on_c, 0, 65, 72
6, 2399, Note_on_c, 0, 69, 0
6, 2399, Note_on_c, 0, 65, 0
6, 2880, Note_on_c, 0, 70, 72
6, 2880, Note_on_c, 0, 73, 72
6, 3119, Note_on_c, 0, 70, 0
6, 3119, Note_on_c, 0, 73, 0
6, 3600, Note_on_c, 0, 74, 72
6, 3600, Note_on_c, 0, 69, 72
6, 3839, Note_on_c, 0, 74, 0
6, 3839, Note_on_c, 0, 69, 0
6, 4320, Note_on_c, 0, 76, 72
6, 4320, Note_on_c, 0, 70, 72
6, 4559, Note_on_c, 0, 76, 0
6, 4559, Note_on_c, 0, 70, 0
6, 5040, Note_on_c, 0, 74, 84
6, 5040, Note_on_c, 0, 71, 84
6, 5759, Note_on_c, 0, 74, 0
6, 5759, Note_on_c, 0, 71, 0
6, 5760, Note_on_c, 0, 73, 84
6, 5760, Note_on_c, 0, 69, 84
6, 5999, Note_on_c, 0, 73, 0
6, 5999, Note_on_c, 0, 69, 0
6, 9600, Note_on_c, 0, 72, 48
6, 9600, Note_on_c, 0, 65, 48
6, 9839, Note_on_c, 0, 72, 0
6, 9839, Note_on_c, 0, 65, 0
6, 9840, Note_on_c, 0, 72, 48
6, 9840, Note_on_c, 0, 63, 48
6, 10079, Note_on_c, 0, 72, 0
6, 10079, Note_on_c, 0, 63, 0
6, 10080, Note_on_c, 0, 72, 48
6, 10080, Note_on_c, 0, 63, 48
6, 10319, Note_on_c, 0, 72, 0
6, 10319, Note_on_c, 0, 63, 0
6, 10320, Note_on_c, 0, 70, 48
6, 10320, Note_on_c, 0, 62, 48
6, 10439, Note_on_c, 0, 70, 0
6, 10439, Note_on_c, 0, 62, 0
6, 10440, Note_on_c, 0, 69, 48
6, 10440, Note_on_c, 0, 60, 48
6, 10559, Note_on_c, 0, 69, 0
6, 10559, Note_on_c, 0, 60, 0
6, 10560, Note_on_c, 0, 67, 48
6, 10560, Note_on_c, 0, 58, 48
6, 10679, Note_on_c, 0, 67, 0
6, 10679, Note_on_c, 0, 58, 0
6, 10680, Note_on_c, 0, 65, 48
6, 10680, Note_on_c, 0, 57, 48
6, 10799, Note_on_c, 0, 65, 0
6, 10799, Note_on_c, 0, 57, 0
6, 10800, Note_on_c, 0, 65, 48
6, 10800, Note_on_c, 0, 57, 48
6, 11279, Note_on_c, 0, 65, 0
6, 11279, Note_on_c, 0, 57, 0
6, 11280, Note_on_c, 0, 69, 48
6, 11280, Note_on_c, 0, 58, 48
6, 11309, Note_on_c, 0, 69, 0
6, 11310, Note_on_c, 0, 67, 48
6, 11459, Note_on_c, 0, 67, 0
6, 11460, Note_on_c, 0, 65, 48
6, 11519, Note_on_c, 0, 58, 0
6, 11519, Note_on_c, 0, 65, 0
6, 11520, Note_on_c, 0, 65, 48
6, 11520, Note_on_c, 0, 57, 48
6, 11759, Note_on_c, 0, 65, 0
6, 11759, Note_on_c, 0, 57, 0
6, 11760, Note_on_c, 0, 69, 72
6, 11760, Note_on_c, 0, 65, 72
6, 11999, Note_on_c, 0, 69, 0
6, 11999, Note_on_c, 0, 65, 0
6, 12000, Note_on_c, 0, 69, 72
6, 12000, Note_on_c, 0, 65, 72
6, 12239, Note_on_c, 0, 69, 0
6, 12239, Note_on_c, 0, 65, 0
6, 12240, Note_on_c, 0, 70, 72
6, 12240, Note_on_c, 0, 67, 72
6, 12479, Note_on_c, 0, 70, 0
6, 12479, Note_on_c, 0, 67, 0
6, 12960, Note_on_c, 0, 69, 72
6, 12960, Note_on_c, 0, 65, 72
6, 13199, Note_on_c, 0, 69, 0
6, 13199, Note_on_c, 0, 65, 0
6, 13680, Note_on_c, 0, 74, 72
6, 13680, Note_on_c, 0, 67, 72
6, 13919, Note_on_c, 0, 74, 0
6, 13919, Note_on_c, 0, 67, 0
6, 14400, Note_on_c, 0, 72, 72
6, 14400, Note_on_c, 0, 67, 72
6, 14639, Note_on_c, 0, 72, 0
6, 14639, Note_on_c, 0, 67, 0
6, 15120, Note_on_c, 0, 67, 72
6, 15120, Note_on_c, 0, 76, 72
6, 15359, Note_on_c, 0, 67, 0
6, 15359, Note_on_c, 0, 76, 0
6, 15840, Note_on_c, 0, 72, 72
6, 15840, Note_on_c, 0, 69, 72
6, 16559, Note_on_c, 0, 72, 0
6, 16559, Note_on_c, 0, 69, 0
6, 16560, Note_on_c, 0, 71, 72
6, 16560, Note_on_c, 0, 68, 72
6, 16799, Note_on_c, 0, 71, 0
6, 16799, Note_on_c, 0, 68, 0
6, 24000, Note_on_c, 0, 67, 72
6, 24000, Note_on_c, 0, 76, 72
6, 24239, Note_on_c, 0, 67, 0
6, 24239, Note_on_c, 0, 76, 0
6, 24240, Note_on_c, 0, 67, 72
6, 24240, Note_on_c, 0, 76, 72
6, 24479, Note_on_c, 0, 67, 0
6, 24479, Note_on_c, 0, 76, 0
6, 24480, Note_on_c, 0, 77, 72
6, 24480, Note_on_c, 0, 67, 72
6, 25199, Note_on_c, 0, 77, 0
6, 25199, Note_on_c, 0, 67, 0
6, 25200, Note_on_c, 0, 76, 72
6, 25200, Note_on_c, 0, 67, 72
6, 25919, Note_on_c, 0, 76, 0
6, 25919, Note_on_c, 0, 67, 0
6, 25920, Note_on_c, 0, 77, 72
6, 25920, Note_on_c, 0, 68, 72
6, 26639, Note_on_c, 0, 77, 0
6, 26639, Note_on_c, 0, 68, 0
6, 26640, Note_on_c, 0, 77, 72
6, 26640, Note_on_c, 0, 68, 72
6, 27359, Note_on_c, 0, 77, 0
6, 27359, Note_on_c, 0, 68, 0
6, 27360, Note_on_c, 0, 79, 72
6, 27360, Note_on_c, 0, 67, 72
6, 27839, Note_on_c, 0, 79, 0
6, 27839, Note_on_c, 0, 67, 0
6, 27840, Note_on_c, 0, 75, 72
6, 27840, Note_on_c, 0, 67, 72
6, 28079, Note_on_c, 0, 75, 0
6, 28079, Note_on_c, 0, 67, 0
6, 28080, Note_on_c, 0, 75, 72
6, 28080, Note_on_c, 0, 66, 72
6, 28799, Note_on_c, 0, 75, 0
6, 28799, Note_on_c, 0, 66, 0
6, 28800, Note_on_c, 0, 74, 72
6, 28800, Note_on_c, 0, 65, 72
6, 29039, Note_on_c, 0, 74, 0
6, 29039, Note_on_c, 0, 65, 0
6, 34560, Control_c, 0, 11, 80
6, 34560, Note_on_c, 0, 70, 72
6, 34560, Note_on_c, 0, 66, 72
6, 34799, Note_on_c, 0, 66, 0
6, 34800, Note_on_c, 0, 65, 72
6, 34800, Control_c, 0, 11, 96
6, 35039, Note_on_c, 0, 65, 0
6, 35040, Note_on_c, 0, 64, 72
6, 35040, Control_c, 0, 11, 112
6, 35279, Note_on_c, 0, 64, 0
6, 35280, Control_c, 0, 11, 127
6, 35280, Note_on_c, 0, 65, 72
6, 35519, Note_on_c, 0, 70, 0
6, 35520, Note_on_c, 0, 69, 72
6, 35759, Note_on_c, 0, 65, 0
6, 35759, Note_on_c, 0, 69, 0
6, 35760, Note_on_c, 0, 67, 72
6, 35760, Note_on_c, 0, 64, 72
6, 35999, Note_on_c, 0, 67, 0
6, 35999, Note_on_c, 0, 64, 0
6, 36000, Note_on_c, 0, 69, 72
6, 36000, Note_on_c, 0, 65, 72
6, 36719, Note_on_c, 0, 69, 0
6, 36719, Note_on_c, 0, 65, 0
6, 36960, Note_on_c, 0, 70, 48
6, 37200, Note_on_c, 0, 75, 48
6, 37439, Note_on_c, 0, 70, 0
6, 37440, Note_on_c, 0, 69, 48
6, 37679, Note_on_c, 0, 69, 0
6, 37680, Note_on_c, 0, 70, 48
6, 37799, Note_on_c, 0, 75, 0
6, 37800, Note_on_c, 0, 74, 48
6, 37919, Note_on_c, 0, 70, 0
6, 37919, Note_on_c, 0, 74, 0
6, 43560, Note_on_c, 0, 70, 72
6, 43679, Note_on_c, 0, 70, 0
6, 43680, Note_on_c, 0, 75, 72
6, 44039, Note_on_c, 0, 75, 0
6, 44040, Note_on_c, 0, 72, 72
6, 44159, Note_on_c, 0, 72, 0
6, 44160, Note_on_c, 0, 77, 72
6, 44399, Note_on_c, 0, 77, 0
6, 44400, Note_on_c, 0, 74, 72
6, 44639, Note_on_c, 0, 74, 0
6, 44640, Note_on_c, 0, 77, 72
6, 44879, Note_on_c, 0, 77, 0
6, 44880, Note_on_c, 0, 74, 72
6, 45119, Note_on_c, 0, 74, 0
6, 45120, Note_on_c, 0, 74, 72
6, 45359, Note_on_c, 0, 74, 0
6, 45360, Note_on_c, 0, 74, 72
6, 45839, Note_on_c, 0, 74, 0
6, 45840, Note_on_c, 0, 76, 72
6, 45959, Note_on_c, 0, 76, 0
6, 45960, Note_on_c, 0, 74, 72
6, 46079, Note_on_c, 0, 74, 0
6, 46080, Note_on_c, 0, 72, 72
6, 46319, Note_on_c, 0, 72, 0
6, 46320, Note_on_c, 0, 70, 72
6, 46559, Note_on_c, 0, 70, 0
6, 47280, Note_on_c, 0, 72, 72
6, 47519, Note_on_c, 0, 72, 0
6, 47520, Note_on_c, 0, 72, 72
6, 47759, Note_on_c, 0, 72, 0
6, 47760, Note_on_c, 0, 72, 72
6, 48239, Note_on_c, 0, 72, 0
6, 48240, Note_on_c, 0, 74, 72
6, 48479, Note_on_c, 0, 74, 0
6, 48480, Note_on_c, 0, 67, 72
6, 48719, Note_on_c, 0, 67, 0
6, 48720, Note_on_c, 0, 70, 72
6, 48959, Note_on_c, 0, 70, 0
6, 48960, Note_on_c, 0, 69, 72
6, 49199, Note_on_c, 0, 69, 0
6, 49200, Note_on_c, 0, 67, 72
6, 49319, Note_on_c, 0, 67, 0
6, 49440, Note_on_c, 0, 67, 48
6, 49680, Note_on_c, 0, 72, 48
6, 49919, Note_on_c, 0, 67, 0
6, 49920, Note_on_c, 0, 66, 48
6, 50159, Note_on_c, 0, 66, 0
6, 50160, Note_on_c, 0, 67, 48
6, 50279, Note_on_c, 0, 72, 0
6, 50280, Note_on_c, 0, 70, 48
6, 50399, Note_on_c, 0, 67, 0
6, 50399, Note_on_c, 0, 70, 0
6, 51720, Note_on_c, 0, 69, 72
6, 51899, Note_on_c, 0, 69, 0
6, 51900, Note_on_c, 0, 70, 72
6, 51959, Note_on_c, 0, 70, 0
6, 51960, Note_on_c, 0, 69, 72
6, 52019, Note_on_c, 0, 69, 0
6, 52020, Note_on_c, 0, 67, 72
6, 52079, Note_on_c, 0, 67, 0
6, 52080, Note_on_c, 0, 65, 72
6, 52139, Note_on_c, 0, 65, 0
6, 52140, Note_on_c, 0, 69, 72
6, 52199, Note_on_c, 0, 69, 0
6, 52200, Note_on_c, 0, 67, 72
6, 52259, Note_on_c, 0, 67, 0
6, 52260, Note_on_c, 0, 65, 72
6, 52319, Note_on_c, 0, 65, 0
6, 52320, Note_on_c, 0, 64, 72
6, 52379, Note_on_c, 0, 64, 0
6, 52380, Note_on_c, 0, 67, 72
6, 52439, Note_on_c, 0, 67, 0
6, 52440, Note_on_c, 0, 65, 72
6, 52499, Note_on_c, 0, 65, 0
6, 52500, Note_on_c, 0, 64, 72
6, 52559, Note_on_c, 0, 64, 0
6, 52560, Note_on_c, 0, 62, 72
6, 52619, Note_on_c, 0, 62, 0
6, 52620, Note_on_c, 0, 61, 72
6, 52679, Note_on_c, 0, 61, 0
6, 52680, Note_on_c, 0, 62, 72
6, 52739, Note_on_c, 0, 62, 0
6, 52740, Note_on_c, 0, 64, 72
6, 52799, Note_on_c, 0, 64, 0
6, 52800, Note_on_c, 0, 65, 72
6, 52859, Note_on_c, 0, 65, 0
6, 52860, Note_on_c, 0, 64, 72
6, 52919, Note_on_c, 0, 64, 0
6, 52920, Note_on_c, 0, 62, 72
6, 52979, Note_on_c, 0, 62, 0
6, 52980, Note_on_c, 0, 60, 72
6, 53039, Note_on_c, 0, 60, 0
6, 53040, Note_on_c, 0, 59, 72
6, 53160, Note_on_c, 0, 76, 72
6, 53339, Note_on_c, 0, 76, 0
6, 53340, Note_on_c, 0, 77, 72
6, 53399, Note_on_c, 0, 77, 0
6, 53400, Note_on_c, 0, 76, 72
6, 53459, Note_on_c, 0, 76, 0
6, 53460, Note_on_c, 0, 74, 72
6, 53519, Note_on_c, 0, 59, 0
6, 53519, Note_on_c, 0, 74, 0
6, 53520, Note_on_c, 0, 72, 72
6, 53520, Note_on_c, 0, 60, 72
6, 53579, Note_on_c, 0, 72, 0
6, 53580, Note_on_c, 0, 76, 72
6, 53639, Note_on_c, 0, 76, 0
6, 53640, Note_on_c, 0, 74, 72
6, 53699, Note_on_c, 0, 74, 0
6, 53700, Note_on_c, 0, 72, 72
6, 53759, Note_on_c, 0, 60, 0
6, 53759, Note_on_c, 0, 72, 0
6, 53760, Note_on_c, 0, 71, 72
6, 53760, Note_on_c, 0, 62, 72
6, 53819, Note_on_c, 0, 71, 0
6, 53820, Note_on_c, 0, 74, 72
6, 53879, Note_on_c, 0, 74, 0
6, 53880, Note_on_c, 0, 72, 72
6, 53939, Note_on_c, 0, 72, 0
6, 53940, Note_on_c, 0, 71, 72
6, 53999, Note_on_c, 0, 62, 0
6, 53999, Note_on_c, 0, 71, 0
6, 54000, Note_on_c, 0, 69, 72
6, 54000, Note_on_c, 0, 64, 72
6, 54059, Note_on_c, 0, 69, 0
6, 54060, Note_on_c, 0, 71, 72
6, 54119, Note_on_c, 0, 71, 0
6, 54120, Note_on_c, 0, 72, 72
6, 54239, Note_on_c, 0, 64, 0
6, 54240, Note_on_c, 0, 69, 72
6, 54299, Note_on_c, 0, 72, 0
6, 54300, Note_on_c, 0, 70, 72
6, 54359, Note_on_c, 0, 70, 0
6, 54360, Note_on_c, 0, 72, 72
6, 54419, Note_on_c, 0, 72, 0
6, 54420, Note_on_c, 0, 74, 72
6, 54479, Note_on_c, 0, 74, 0
6, 54480, Note_on_c, 0, 70, 72
6, 54539, Note_on_c, 0, 69, 0
6, 54540, Note_on_c, 0, 62, 72
6, 54599, Note_on_c, 0, 62, 0
6, 54600, Note_on_c, 0, 64, 72
6, 54659, Note_on_c, 0, 64, 0
6, 54660, Note_on_c, 0, 66, 72
6, 54719, Note_on_c, 0, 66, 0
6, 54720, Note_on_c, 0, 67, 72
6, 54779, Note_on_c, 0, 70, 0
6, 54780, Note_on_c, 0, 69, 72
6, 54839, Note_on_c, 0, 69, 0
6, 54840, Note_on_c, 0, 70, 72
6, 54899, Note_on_c, 0, 70, 0
6, 54900, Note_on_c, 0, 72, 72
6, 54959, Note_on_c, 0, 72, 0
6, 54960, Note_on_c, 0, 69, 72
6, 55199, Note_on_c, 0, 67, 0
6, 55200, Note_on_c, 0, 66, 72
6, 55439, Note_on_c, 0, 69, 0
6, 55439, Note_on_c, 0, 66, 0
6, 55440, Note_on_c, 0, 67, 72
6, 55440, Note_on_c, 0, 74, 72
6, 55679, Note_on_c, 0, 67, 0
6, 55680, Note_on_c, 0, 69, 72
6, 55919, Note_on_c, 0, 69, 0
6, 55920, Note_on_c, 0, 70, 72
6, 55979, Note_on_c, 0, 74, 0
6, 55979, Note_on_c, 0, 70, 0
6, 55980, Note_on_c, 0, 72, 72
6, 55980, Note_on_c, 0, 69, 72
6, 56039, Note_on_c, 0, 72, 0
6, 56039, Note_on_c, 0, 69, 0
6, 56040, Note_on_c, 0, 70, 72
6, 56040, Note_on_c, 0, 67, 72
6, 56099, Note_on_c, 0, 70, 0
6, 56100, Note_on_c, 0, 72, 72
6, 56159, Note_on_c, 0, 72, 0
6, 56160, Note_on_c, 0, 74, 72
6, 56219, Note_on_c, 0, 67, 0
6, 56219, Note_on_c, 0, 74, 0
6, 56220, Note_on_c, 0, 72, 72
6, 56220, Note_on_c, 0, 69, 72
6, 56279, Note_on_c, 0, 72, 0
6, 56279, Note_on_c, 0, 69, 0
6, 56280, Note_on_c, 0, 74, 72
6, 56280, Note_on_c, 0, 70, 72
6, 56339, Note_on_c, 0, 74, 0
6, 56339, Note_on_c, 0, 70, 0
6, 56340, Note_on_c, 0, 76, 72
6, 56340, Note_on_c, 0, 67, 72
6, 56399, Note_on_c, 0, 76, 0
6, 56399, Note_on_c, 0, 67, 0
6, 56400, Note_on_c, 0, 72, 72
6, 56400, Note_on_c, 0, 77, 72
6, 56459, Note_on_c, 0, 72, 0
6, 56460, Note_on_c, 0, 70, 72
6, 56519, Note_on_c, 0, 77, 0
6, 56519, Note_on_c, 0, 70, 0
6, 56520, Note_on_c, 0, 69, 72
6, 56520, Note_on_c, 0, 72, 72
6, 56579, Note_on_c, 0, 69, 0
6, 56580, Note_on_c, 0, 70, 72
6, 56639, Note_on_c, 0, 72, 0
6, 56639, Note_on_c, 0, 70, 0
6, 56640, Note_on_c, 0, 72, 72
6, 56640, Note_on_c, 0, 77, 72
6, 56699, Note_on_c, 0, 72, 0
6, 56700, Note_on_c, 0, 70, 72
6, 56759, Note_on_c, 0, 70, 0
6, 56760, Note_on_c, 0, 69, 72
6, 56819, Note_on_c, 0, 69, 0
6, 56820, Note_on_c, 0, 70, 72
6, 56879, Note_on_c, 0, 70, 0
6, 56880, Note_on_c, 0, 67, 72
6, 57119, Note_on_c, 0, 77, 0
6, 57120, Note_on_c, 0, 76, 72
6, 57359, Note_on_c, 0, 67, 0
6, 57359, Note_on_c, 0, 76, 0
6, 57360, Note_on_c, 0, 72, 72
6, 57360, Note_on_c, 0, 77, 72
6, 57479, Note_on_c, 0, 77, 0
6, 57480, Note_on_c, 0, 72, 72
6, 57599, Note_on_c, 0, 72, 0
6, 57600, Note_on_c, 0, 64, 72
6, 57719, Note_on_c, 0, 72, 0
6, 57720, Note_on_c, 0, 70, 72
6, 57839, Note_on_c, 0, 64, 0
6, 57839, Note_on_c, 0, 70, 0
6, 57840, Note_on_c, 0, 69, 72
6, 57840, Note_on_c, 0, 65, 72
6, 58079, Note_on_c, 0, 69, 0
6, 58079, Note_on_c, 0, 65, 0
6, 58080, Note_on_c, 0, 73, 72
6, 58080, Note_on_c, 0, 64, 72
6, 58319, Note_on_c, 0, 73, 0
6, 58319, Note_on_c, 0, 64, 0
6, 58320, Note_on_c, 0, 74, 72
6, 58440, Note_on_c, 0, 69, 72
6, 58559, Note_on_c, 0, 74, 0
6, 58560, Note_on_c, 0, 76, 72
6, 58679, Note_on_c, 0, 69, 0
6, 58680, Note_on_c, 0, 67, 72
6, 58799, Note_on_c, 0, 76, 0
6, 58799, Note_on_c, 0, 67, 0
6, 58800, Note_on_c, 0, 77, 72
6, 58800, Note_on_c, 0, 65, 72
6, 59039, Note_on_c, 0, 77, 0
6, 59039, Note_on_c, 0, 65, 0
6, 59040, Note_on_c, 0, 69, 72
6, 59040, Note_on_c, 0, 60, 72
6, 59279, Note_on_c, 0, 69, 0
6, 59279, Note_on_c, 0, 60, 0
6, 59280, Note_on_c, 0, 70, 72
6, 59280, Note_on_c, 0, 65, 72
6, 59519, Note_on_c, 0, 70, 0
6, 59520, Note_on_c, 0, 72, 72
6, 59639, Note_on_c, 0, 65, 0
6, 59640, Note_on_c, 0, 63, 72
6, 59759, Note_on_c, 0, 72, 0
6, 59759, Note_on_c, 0, 63, 0
6, 59760, Note_on_c, 0, 74, 72
6, 59760, Note_on_c, 0, 62, 72
6, 59879, Note_on_c, 0, 74, 0
6, 59879, Note_on_c, 0, 62, 0
6, 59880, Note_on_c, 0, 77, 72
6, 59880, Note_on_c, 0, 70, 72
6, 59999, Note_on_c, 0, 77, 0
6, 59999, Note_on_c, 0, 70, 0
6, 60000, Note_on_c, 0, 77, 72
6, 60000, Note_on_c, 0, 70, 72
6, 60119, Note_on_c, 0, 77, 0
6, 60119, Note_on_c, 0, 70, 0
6, 60120, Note_on_c, 0, 77, 72
6, 60120, Note_on_c, 0, 70, 72
6, 60239, Note_on_c, 0, 77, 0
6, 60239, Note_on_c, 0, 70, 0
6, 60240, Note_on_c, 0, 77, 72
6, 60240, Note_on_c, 0, 70, 72
6, 60479, Note_on_c, 0, 77, 0
6, 60479, Note_on_c, 0, 70, 0
6, 60840, Note_on_c, 0, 77, 72
6, 60840, Note_on_c, 0, 74, 72
6, 60959, Note_on_c, 0, 77, 0
6, 60959, Note_on_c, 0, 74, 0
6, 60960, Note_on_c, 0, 77, 72
6, 60960, Note_on_c, 0, 74, 72
6, 61079, Note_on_c, 0, 77, 0
6, 61079, Note_on_c, 0, 74, 0
6, 61080, Note_on_c, 0, 77, 72
6, 61080, Note_on_c, 0, 74, 72
6, 61199, Note_on_c, 0, 77, 0
6, 61199, Note_on_c, 0, 74, 0
6, 61200, Note_on_c, 0, 77, 72
6, 61200, Note_on_c, 0, 74, 72
6, 61439, Note_on_c, 0, 77, 0
6, 61439, Note_on_c, 0, 74, 0
6, 61680, Note_on_c, 0, 77, 72
6, 61680, Note_on_c, 0, 71, 72
6, 62399, Note_on_c, 0, 77, 0
6, 62400, Note_on_c, 0, 76, 72
6, 62519, Note_on_c, 0, 76, 0
6, 62520, Note_on_c, 0, 74, 72
6, 62639, Note_on_c, 0, 71, 0
6, 62639, Note_on_c, 0, 74, 0
6, 62640, Note_on_c, 0, 74, 72
6, 62640, Note_on_c, 0, 69, 72
6, 62759, Note_on_c, 0, 74, 0
6, 62760, Note_on_c, 0, 73, 72
6, 62879, Note_on_c, 0, 69, 0
6, 62879, Note_on_c, 0, 73, 0
6, 66600, Note_on_c, 0, 67, 72
6, 66719, Note_on_c, 0, 67, 0
6, 66720, Note_on_c, 0, 67, 72
6, 66839, Note_on_c, 0, 67, 0
6, 66840, Note_on_c, 0, 67, 72
6, 66959, Note_on_c, 0, 67, 0
6, 66960, Note_on_c, 0, 69, 72
6, 67019, Note_on_c, 0, 69, 0
6, 67020, Note_on_c, 0, 70, 72
6, 67079, Note_on_c, 0, 70, 0
6, 67080, Note_on_c, 0, 69, 72
6, 67139, Note_on_c, 0, 69, 0
6, 67140, Note_on_c, 0, 67, 72
6, 67199, Note_on_c, 0, 67, 0
6, 67200, Note_on_c, 0, 69, 72
6, 67259, Note_on_c, 0, 69, 0
6, 67260, Note_on_c, 0, 70, 72
6, 67319, Note_on_c, 0, 70, 0
6, 67320, Note_on_c, 0, 67, 72
6, 67379, Note_on_c, 0, 67, 0
6, 67380, Note_on_c, 0, 69, 72
6, 67439, Note_on_c, 0, 69, 0
6, 67440, Note_on_c, 0, 67, 72
6, 67499, Note_on_c, 0, 67, 0
6, 67500, Note_on_c, 0, 69, 72
6, 67559, Note_on_c, 0, 69, 0
6, 67560, Note_on_c, 0, 67, 72
6, 67619, Note_on_c, 0, 67, 0
6, 67620, Note_on_c, 0, 65, 72
6, 67679, Note_on_c, 0, 65, 0
6, 67680, Note_on_c, 0, 67, 72
6, 67739, Note_on_c, 0, 67, 0
6, 67740, Note_on_c, 0, 69, 72
6, 67799, Note_on_c, 0, 69, 0
6, 67800, Note_on_c, 0, 65, 72
6, 67859, Note_on_c, 0, 65, 0
6, 67860, Note_on_c, 0, 67, 72
6, 67919, Note_on_c, 0, 67, 0
6, 67920, Note_on_c, 0, 69, 72
6, 68039, Note_on_c, 0, 69, 0
6, 68040, Note_on_c, 0, 72, 72
6, 68099, Note_on_c, 0, 72, 0
6, 68100, Note_on_c, 0, 69, 72
6, 68159, Note_on_c, 0, 69, 0
6, 68160, Note_on_c, 0, 67, 72
6, 68219, Note_on_c, 0, 67, 0
6, 68220, Note_on_c, 0, 65, 72
6, 68279, Note_on_c, 0, 65, 0
6, 68280, Note_on_c, 0, 65, 72
6, 68339, Note_on_c, 0, 65, 0
6, 68340, Note_on_c, 0, 62, 72
6, 68399, Note_on_c, 0, 62, 0
6, 68400, Note_on_c, 0, 61, 72
6, 68519, Note_on_c, 0, 61, 0
6, 68520, Note_on_c, 0, 64, 72
6, 68639, Note_on_c, 0, 64, 0
6, 68640, Note_on_c, 0, 69, 72
6, 68759, Note_on_c, 0, 69, 0
6, 68760, Note_on_c, 0, 67, 72
6, 68879, Note_on_c, 0, 67, 0
6, 68880, Note_on_c, 0, 65, 72
6, 68880, Note_on_c, 0, 74, 72
6, 68999, Note_on_c, 0, 65, 0
6, 69000, Note_on_c, 0, 64, 72
6, 69059, Note_on_c, 0, 64, 0
6, 69060, Note_on_c, 0, 65, 72
6, 69119, Note_on_c, 0, 65, 0
6, 69120, Note_on_c, 0, 62, 72
6, 69179, Note_on_c, 0, 62, 0
6, 69180, Note_on_c, 0, 64, 72
6, 69239, Note_on_c, 0, 64, 0
6, 69240, Note_on_c, 0, 66, 72
6, 69299, Note_on_c, 0, 66, 0
6, 69300, Note_on_c, 0, 68, 72
6, 69359, Note_on_c, 0, 74, 0
6, 69359, Note_on_c, 0, 68, 0
6, 69360, Note_on_c, 0, 69, 72
6, 69360, Note_on_c, 0, 72, 72
6, 69599, Note_on_c, 0, 69, 0
6, 69599, Note_on_c, 0, 72, 0
6, 69600, Note_on_c, 0, 77, 72
6, 69839, Note_on_c, 0, 77, 0
6, 69840, Note_on_c, 0, 68, 72
6, 70319, Note_on_c, 0, 68, 0
6, 70320, Note_on_c, 0, 69, 72
6, 70559, Note_on_c, 0, 69, 0
6, 70560, Note_on_c, 0, 69, 72
6, 70679, Note_on_c, 0, 69, 0
6, 70680, Note_on_c, 0, 69, 72
6, 70799, Note_on_c, 0, 69, 0
6, 70800, Note_on_c, 0, 71, 72
6, 71159, Note_on_c, 0, 71, 0
6, 71160, Note_on_c, 0, 69, 72
6, 71219, Note_on_c, 0, 69, 0
6, 71220, Note_on_c, 0, 71, 72
6, 71279, Note_on_c, 0, 71, 0
6, 71280, Note_on_c, 0, 72, 72
6, 71399, Note_on_c, 0, 72, 0
6, 71400, Note_on_c, 0, 71, 72
6, 71459, Note_on_c, 0, 71, 0
6, 71460, Note_on_c, 0, 72, 72
6, 71519, Note_on_c, 0, 72, 0
6, 71520, Note_on_c, 0, 74, 72
6, 71639, Note_on_c, 0, 74, 0
6, 71640, Note_on_c, 0, 72, 72
6, 71699, Note_on_c, 0, 72, 0
6, 71700, Note_on_c, 0, 74, 72
6, 71759, Note_on_c, 0, 74, 0
6, 71760, Note_on_c, 0, 76, 72
6, 71879, Note_on_c, 0, 76, 0
6, 71880, Note_on_c, 0, 74, 72
6, 71999, Note_on_c, 0, 74, 0
6, 72000, Note_on_c, 0, 72, 72
6, 72119, Note_on_c, 0, 72, 0
6, 72120, Note_on_c, 0, 71, 72
6, 72239, Note_on_c, 0, 71, 0
6, 72240, Note_on_c, 0, 69, 72
6, 72240, Note_on_c, 0, 69, 72
6, 72359, Note_on_c, 0, 69, 0
6, 72360, Note_on_c, 0, 79, 72
6, 72479, Note_on_c, 0, 79, 0
6, 72480, Note_on_c, 0, 77, 72
6, 72599, Note_on_c, 0, 77, 0
6, 72600, Note_on_c, 0, 76, 72
6, 72719, Note_on_c, 0, 69, 0
6, 72719, Note_on_c, 0, 76, 0
6, 72720, Note_on_c, 0, 74, 72
6, 72720, Note_on_c, 0, 65, 72
6, 72959, Note_on_c, 0, 74, 0
6, 72959, Note_on_c, 0, 65, 0
6, 72960, Note_on_c, 0, 70, 72
6, 73080, Note_on_c, 0, 62, 72
6, 73199, Note_on_c, 0, 70, 0
6, 73199, Note_on_c, 0, 62, 0
6, 73200, Note_on_c, 0, 67, 72
6, 73200, Note_on_c, 0, 61, 72
6, 73559, Note_on_c, 0, 67, 0
6, 73560, Note_on_c, 0, 65, 72
6, 73619, Note_on_c, 0, 65, 0
6, 73620, Note_on_c, 0, 64, 72
6, 73679, Note_on_c, 0, 61, 0
6, 73679, Note_on_c, 0, 64, 0
6, 73680, Note_on_c, 0, 69, 72
6, 73680, Note_on_c, 0, 62, 72
6, 73799, Note_on_c, 0, 69, 0
6, 73800, Note_on_c, 0, 62, 72
6, 73919, Note_on_c, 0, 62, 0
6, 73919, Note_on_c, 0, 62, 0
6, 73920, Note_on_c, 0, 62, 72
6, 73920, Note_on_c, 0, 74, 72
6, 74039, Note_on_c, 0, 62, 0
6, 74040, Note_on_c, 0, 62, 72
6, 74159, Note_on_c, 0, 62, 0
6, 74160, Note_on_c, 0, 64, 72
6, 74399, Note_on_c, 0, 74, 0
6, 74400, Note_on_c, 0, 74, 72
6, 74519, Note_on_c, 0, 64, 0
6, 74520, Note_on_c, 0, 62, 72
6, 74579, Note_on_c, 0, 62, 0
6, 74580, Note_on_c, 0, 64, 72
6, 74639, Note_on_c, 0, 74, 0
6, 74639, Note_on_c, 0, 64, 0
6, 74640, Note_on_c, 0, 74, 72
6, 74640, Note_on_c, 0, 65, 72
6, 74759, Note_on_c, 0, 74, 0
6, 74759, Note_on_c, 0, 65, 0
6, 74760, Note_on_c, 0, 73, 72
6, 74760, Note_on_c, 0, 64, 72
6, 74819, Note_on_c, 0, 73, 0
6, 74819, Note_on_c, 0, 64, 0
6, 74820, Note_on_c, 0, 74, 72
6, 74820, Note_on_c, 0, 65, 72
6, 74879, Note_on_c, 0, 74, 0
6, 74879, Note_on_c, 0, 65, 0
6, 74880, Note_on_c, 0, 76, 72
6, 74880, Note_on_c, 0, 67, 72
6, 74999, Note_on_c, 0, 67, 0
6, 75000, Note_on_c, 0, 65, 72
6, 75059, Note_on_c, 0, 65, 0
6, 75060, Note_on_c, 0, 67, 72
6, 75119, Note_on_c, 0, 67, 0
6, 75120, Note_on_c, 0, 69, 72
6, 75239, Note_on_c, 0, 69, 0
6, 75240, Note_on_c, 0, 67, 72
6, 75359, Note_on_c, 0, 76, 0
6, 75359, Note_on_c, 0, 67, 0
6, 75360, Note_on_c, 0, 65, 72
6, 75360, Note_on_c, 0, 74, 72
6, 75479, Note_on_c, 0, 65, 0
6, 75479, Note_on_c, 0, 74, 0
6, 75480, Note_on_c, 0, 64, 72
6, 75480, Note_on_c, 0, 73, 72
6, 75599, Note_on_c, 0, 64, 0
6, 75599, Note_on_c, 0, 73, 0
6, 75600, Note_on_c, 0, 74, 72
6, 75600, Note_on_c, 0, 62, 72
6, 75779, Note_on_c, 0, 62, 0
6, 75780, Note_on_c, 0, 64, 72
6, 75839, Note_on_c, 0, 74, 0
6, 75839, Note_on_c, 0, 64, 0
6, 75840, Note_on_c, 0, 66, 72
6, 75959, Note_on_c, 0, 66, 0
6, 75960, Note_on_c, 0, 68, 72
6, 76079, Note_on_c, 0, 68, 0
6, 76080, Note_on_c, 0, 69, 72
6, 76199, Note_on_c, 0, 69, 0
6, 76200, Note_on_c, 0, 64, 72
6, 76439, Note_on_c, 0, 64, 0
6, 76440, Note_on_c, 0, 62, 72
6, 76499, Note_on_c, 0, 62, 0
6, 76500, Note_on_c, 0, 60, 72
6, 76559, Note_on_c, 0, 60, 0
6, 76560, Note_on_c, 0, 59, 72
6, 76680, Note_on_c, 0, 71, 72
6, 76799, Note_on_c, 0, 59, 0
6, 76799, Note_on_c, 0, 71, 0
6, 76800, Note_on_c, 0, 71, 72
6, 76919, Note_on_c, 0, 71, 0
6, 76920, Note_on_c, 0, 71, 72
6, 77039, Note_on_c, 0, 71, 0
6, 77040, Note_on_c, 0, 72, 72
6, 77099, Note_on_c, 0, 72, 0
6, 77100, Note_on_c, 0, 74, 72
6, 77159, Note_on_c, 0, 74, 0
6, 77160, Note_on_c, 0, 72, 72
6, 77160, Note_on_c, 0, 64, 72
6, 77219, Note_on_c, 0, 72, 0
6, 77220, Note_on_c, 0, 71, 72
6, 77279, Note_on_c, 0, 64, 0
6, 77279, Note_on_c, 0, 71, 0
6, 77280, Note_on_c, 0, 72, 72
6, 77280, Note_on_c, 0, 69, 72
6, 77339, Note_on_c, 0, 72, 0
6, 77340, Note_on_c, 0, 74, 72
6, 77399, Note_on_c, 0, 74, 0
6, 77400, Note_on_c, 0, 71, 72
6, 77459, Note_on_c, 0, 71, 0
6, 77460, Note_on_c, 0, 72, 72
6, 77519, Note_on_c, 0, 72, 0
6, 77520, Note_on_c, 0, 74, 72
6, 77579, Note_on_c, 0, 69, 0
6, 77579, Note_on_c, 0, 74, 0
6, 77580, Note_on_c, 0, 76, 72
6, 77580, Note_on_c, 0, 67, 72
6, 77639, Note_on_c, 0, 76, 0
6, 77639, Note_on_c, 0, 67, 0
6, 77640, Note_on_c, 0, 74, 72
6, 77640, Note_on_c, 0, 65, 72
6, 77699, Note_on_c, 0, 74, 0
6, 77699, Note_on_c, 0, 65, 0
6, 77700, Note_on_c, 0, 72, 72
6, 77700, Note_on_c, 0, 64, 72
6, 77759, Note_on_c, 0, 72, 0
6, 77759, Note_on_c, 0, 64, 0
6, 77760, Note_on_c, 0, 74, 72
6, 77760, Note_on_c, 0, 65, 72
6, 77819, Note_on_c, 0, 74, 0
6, 77820, Note_on_c, 0, 76, 72
6, 77879, Note_on_c, 0, 65, 0
6, 77879, Note_on_c, 0, 76, 0
6, 77880, Note_on_c, 0, 72, 72
6, 77880, Note_on_c, 0, 67, 72
6, 77939, Note_on_c, 0, 72, 0
6, 77939, Note_on_c, 0, 67, 0
6, 77940, Note_on_c, 0, 74, 72
6, 77940, Note_on_c, 0, 65, 72
6, 77999, Note_on_c, 0, 74, 0
6, 77999, Note_on_c, 0, 65, 0
6, 78000, Note_on_c, 0, 64, 72
6, 78000, Note_on_c, 0, 76, 72
6, 78119, Note_on_c, 0, 76, 0
6, 78120, Note_on_c, 0, 77, 72
6, 78179, Note_on_c, 0, 77, 0
6, 78180, Note_on_c, 0, 76, 72
6, 78239, Note_on_c, 0, 64, 0
6, 78239, Note_on_c, 0, 76, 0
6, 78240, Note_on_c, 0, 74, 72
6, 78299, Note_on_c, 0, 74, 0
6, 78300, Note_on_c, 0, 72, 72
6, 78359, Note_on_c, 0, 72, 0
6, 78360, Note_on_c, 0, 71, 72
6, 78419, Note_on_c, 0, 71, 0
6, 78420, Note_on_c, 0, 69, 72
6, 78479, Note_on_c, 0, 69, 0
6, 78480, Note_on_c, 0, 68, 72
6, 78599, Note_on_c, 0, 68, 0
6, 78600, Note_on_c, 0, 71, 72
6, 78600, Note_on_c, 0, 64, 72
6, 78719, Note_on_c, 0, 71, 0
6, 78719, Note_on_c, 0, 64, 0
6, 78720, Note_on_c, 0, 76, 72
6, 78720, Note_on_c, 0, 66, 72
6, 78839, Note_on_c, 0, 76, 0
6, 78839, Note_on_c, 0, 66, 0
6, 78840, Note_on_c, 0, 74, 72
6, 78840, Note_on_c, 0, 68, 72
6, 78959, Note_on_c, 0, 74, 0
6, 78959, Note_on_c, 0, 68, 0
6, 78960, Note_on_c, 0, 72, 72
6, 78960, Note_on_c, 0, 69, 72
6, 79019, Note_on_c, 0, 72, 0
6, 79020, Note_on_c, 0, 71, 72
6, 79079, Note_on_c, 0, 71, 0
6, 79080, Note_on_c, 0, 69, 72
6, 79199, Note_on_c, 0, 69, 0
6, 79259, Note_on_c, 0, 69, 0
6, 79260, Note_on_c, 0, 70, 72
6, 79319, Note_on_c, 0, 70, 0
6, 79320, Note_on_c, 0, 67, 72
6, 79379, Note_on_c, 0, 67, 0
6, 79380, Note_on_c, 0, 69, 72
6, 79439, Note_on_c, 0, 69, 0
6, 79440, Note_on_c, 0, 66, 72
6, 79560, Note_on_c, 0, 69, 72
6, 79679, Note_on_c, 0, 66, 0
6, 79679, Note_on_c, 0, 69, 0
6, 79680, Note_on_c, 0, 74, 72
6, 79680, Note_on_c, 0, 67, 72
6, 79799, Note_on_c, 0, 74, 0
6, 79799, Note_on_c, 0, 67, 0
6, 79800, Note_on_c, 0, 72, 72
6, 79800, Note_on_c, 0, 69, 72
6, 79919, Note_on_c, 0, 72, 0
6, 79919, Note_on_c, 0, 69, 0
6, 79920, Note_on_c, 0, 70, 72
6, 79920, Note_on_c, 0, 62, 72
6, 79979, Note_on_c, 0, 70, 0
6, 79980, Note_on_c, 0, 69, 72
6, 80039, Note_on_c, 0, 69, 0
6, 80040, Note_on_c, 0, 67, 72
6, 80159, Note_on_c, 0, 62, 0
6, 80219, Note_on_c, 0, 67, 0
6, 80220, Note_on_c, 0, 69, 72
6, 80279, Note_on_c, 0, 69, 0
6, 80280, Note_on_c, 0, 65, 72
6, 80339, Note_on_c, 0, 65, 0
6, 80340, Note_on_c, 0, 67, 72
6, 80399, Note_on_c, 0, 67, 0
6, 80400, Note_on_c, 0, 72, 72
6, 80400, Note_on_c, 0, 64, 72
6, 80639, Note_on_c, 0, 64, 0
6, 80640, Note_on_c, 0, 65, 72
6, 80759, Note_on_c, 0, 65, 0
6, 80760, Note_on_c, 0, 67, 72
6, 80879, Note_on_c, 0, 72, 0
6, 80879, Note_on_c, 0, 67, 0
6, 80880, Note_on_c, 0, 69, 72
6, 80880, Note_on_c, 0, 60, 72
6, 81119, Note_on_c, 0, 69, 0
6, 81119, Note_on_c, 0, 60, 0
6, 81120, Note_on_c, 0, 74, 72
6, 81359, Note_on_c, 0, 74, 0
6, 81360, Note_on_c, 0, 64, 72
6, 81480, Note_on_c, 0, 60, 72
6, 81599, Note_on_c, 0, 60, 0
6, 81600, Note_on_c, 0, 60, 72
6, 81719, Note_on_c, 0, 60, 0
6, 81720, Note_on_c, 0, 58, 72
6, 81839, Note_on_c, 0, 64, 0
6, 81839, Note_on_c, 0, 58, 0
6, 81840, Note_on_c, 0, 65, 72
6, 81840, Note_on_c, 0, 57, 72
6, 81959, Note_on_c, 0, 57, 0
6, 81960, Note_on_c, 0, 65, 72
6, 82079, Note_on_c, 0, 65, 0
6, 82079, Note_on_c, 0, 65, 0
6, 82080, Note_on_c, 0, 65, 72
6, 82080, Note_on_c, 0, 62, 72
6, 82199, Note_on_c, 0, 65, 0
6, 82199, Note_on_c, 0, 62, 0
6, 82200, Note_on_c, 0, 65, 72
6, 82200, Note_on_c, 0, 58, 72
6, 82319, Note_on_c, 0, 65, 0
6, 82319, Note_on_c, 0, 58, 0
6, 82320, Note_on_c, 0, 67, 72
6, 82440, Note_on_c, 0, 67, 72
6, 82559, Note_on_c, 0, 67, 0
6, 82560, Note_on_c, 0, 64, 72
6, 82679, Note_on_c, 0, 67, 0
6, 82679, Note_on_c, 0, 64, 0
6, 82680, Note_on_c, 0, 60, 72
6, 82680, Note_on_c, 0, 65, 72
6, 82739, Note_on_c, 0, 65, 0
6, 82740, Note_on_c, 0, 67, 72
6, 82799, Note_on_c, 0, 60, 0
6, 82799, Note_on_c, 0, 67, 0
6, 82800, Note_on_c, 0, 69, 72
6, 82919, Note_on_c, 0, 69, 0
6, 82920, Note_on_c, 0, 67, 72
6, 82920, Note_on_c, 0, 64, 72
6, 82979, Note_on_c, 0, 67, 0
6, 82979, Note_on_c, 0, 64, 0
6, 82980, Note_on_c, 0, 69, 72
6, 82980, Note_on_c, 0, 65, 72
6, 83039, Note_on_c, 0, 69, 0
6, 83039, Note_on_c, 0, 65, 0
6, 83040, Note_on_c, 0, 70, 72
6, 83040, Note_on_c, 0, 67, 72
6, 83159, Note_on_c, 0, 70, 0
6, 83159, Note_on_c, 0, 67, 0
6, 83160, Note_on_c, 0, 69, 72
6, 83160, Note_on_c, 0, 65, 72
6, 83219, Note_on_c, 0, 69, 0
6, 83219, Note_on_c, 0, 65, 0
6, 83220, Note_on_c, 0, 70, 72
6, 83220, Note_on_c, 0, 67, 72
6, 83279, Note_on_c, 0, 70, 0
6, 83279, Note_on_c, 0, 67, 0
6, 83280, Note_on_c, 0, 72, 72
6, 83280, Note_on_c, 0, 69, 72
6, 83399, Note_on_c, 0, 72, 0
6, 83399, Note_on_c, 0, 69, 0
6, 83400, Note_on_c, 0, 70, 72
6, 83400, Note_on_c, 0, 64, 72
6, 83519, Note_on_c, 0, 70, 0
6, 83519, Note_on_c, 0, 64, 0
6, 83520, Note_on_c, 0, 65, 72
6, 83520, Note_on_c, 0, 69, 72
6, 83639, Note_on_c, 0, 65, 0
6, 83639, Note_on_c, 0, 69, 0
6, 83640, Note_on_c, 0, 67, 72
6, 83640, Note_on_c, 0, 61, 72
6, 83759, Note_on_c, 0, 67, 0
6, 83759, Note_on_c, 0, 61, 0
6, 83760, Note_on_c, 0, 66, 72
6, 83760, Note_on_c, 0, 62, 72
6, 83999, Note_on_c, 0, 66, 0
6, 83999, Note_on_c, 0, 62, 0
6, 84000, Note_on_c, 0, 64, 72
6, 84000, Note_on_c, 0, 67, 72
6, 84119, Note_on_c, 0, 64, 0
6, 84119, Note_on_c, 0, 67, 0
6, 84120, Note_on_c, 0, 69, 72
6, 84120, Note_on_c, 0, 66, 72
6, 84239, Note_on_c, 0, 69, 0
6, 84239, Note_on_c, 0, 66, 0
6, 84240, Note_on_c, 0, 70, 72
6, 84240, Note_on_c, 0, 67, 72
6, 84479, Note_on_c, 0, 70, 0
6, 84479, Note_on_c, 0, 67, 0
6, 84840, Note_on_c, 0, 69, 72
6, 84840, Note_on_c, 0, 63, 72
6, 84959, Note_on_c, 0, 69, 0
6, 84959, Note_on_c, 0, 63, 0
6, 84960, Note_on_c, 0, 69, 72
6, 84960, Note_on_c, 0, 62, 72
6, 85079, Note_on_c, 0, 69, 0
6, 85079, Note_on_c, 0, 62, 0
6, 85080, Note_on_c, 0, 69, 72
6, 85080, Note_on_c, 0, 60, 72
6, 85199, Note_on_c, 0, 69, 0
6, 85199, Note_on_c, 0, 60, 0
6, 85200, Note_on_c, 0, 58, 72
6, 85200, Note_on_c, 0, 70, 72
6, 85259, Note_on_c, 0, 70, 0
6, 85260, Note_on_c, 0, 72, 72
6, 85319, Note_on_c, 0, 58, 0
6, 85319, Note_on_c, 0, 72, 0
6, 85320, Note_on_c, 0, 55, 72
6, 85320, Note_on_c, 0, 70, 72
6, 85379, Note_on_c, 0, 70, 0
6, 85380, Note_on_c, 0, 69, 72
6, 85439, Note_on_c, 0, 55, 0
6, 85439, Note_on_c, 0, 69, 0
6, 85440, Note_on_c, 0, 63, 72
6, 85440, Note_on_c, 0, 70, 72
6, 85499, Note_on_c, 0, 70, 0
6, 85500, Note_on_c, 0, 72, 72
6, 85559, Note_on_c, 0, 72, 0
6, 85560, Note_on_c, 0, 69, 72
6, 85619, Note_on_c, 0, 69, 0
6, 85620, Note_on_c, 0, 70, 72
6, 85679, Note_on_c, 0, 70, 0
6, 85680, Note_on_c, 0, 72, 72
6, 85739, Note_on_c, 0, 72, 0
6, 85740, Note_on_c, 0, 74, 72
6, 85799, Note_on_c, 0, 63, 0
6, 85799, Note_on_c, 0, 74, 0
6, 85800, Note_on_c, 0, 72, 72
6, 85800, Note_on_c, 0, 60, 72
6, 85859, Note_on_c, 0, 72, 0
6, 85860, Note_on_c, 0, 70, 72
6, 85919, Note_on_c, 0, 60, 0
6, 85919, Note_on_c, 0, 70, 0
6, 85920, Note_on_c, 0, 72, 72
6, 85920, Note_on_c, 0, 65, 72
6, 85979, Note_on_c, 0, 72, 0
6, 85980, Note_on_c, 0, 74, 72
6, 86039, Note_on_c, 0, 74, 0
6, 86040, Note_on_c, 0, 70, 72
6, 86099, Note_on_c, 0, 70, 0
6, 86100, Note_on_c, 0, 72, 72
6, 86159, Note_on_c, 0, 72, 0
6, 86160, Note_on_c, 0, 74, 72
6, 86279, Note_on_c, 0, 74, 0
6, 86280, Note_on_c, 0, 75, 72
6, 86339, Note_on_c, 0, 75, 0
6, 86340, Note_on_c, 0, 74, 72
6, 86399, Note_on_c, 0, 65, 0
6, 86399, Note_on_c, 0, 74, 0
6, 86400, Note_on_c, 0, 72, 72
6, 86400, Note_on_c, 0, 63, 72
6, 86459, Note_on_c, 0, 72, 0
6, 86460, Note_on_c, 0, 70, 72
6, 86519, Note_on_c, 0, 70, 0
6, 86520, Note_on_c, 0, 69, 72
6, 86579, Note_on_c, 0, 69, 0
6, 86580, Note_on_c, 0, 67, 72
6, 86639, Note_on_c, 0, 63, 0
6, 86639, Note_on_c, 0, 67, 0
6, 86640, Note_on_c, 0, 66, 72
6, 86640, Note_on_c, 0, 62, 72
6, 86759, Note_on_c, 0, 66, 0
6, 86759, Note_on_c, 0, 62, 0
6, 86760, Note_on_c, 0, 69, 72
6, 86760, Note_on_c, 0, 66, 72
6, 86879, Note_on_c, 0, 69, 0
6, 86879, Note_on_c, 0, 66, 0
6, 86880, Note_on_c, 0, 74, 72
6, 86880, Note_on_c, 0, 67, 72
6, 86999, Note_on_c, 0, 74, 0
6, 86999, Note_on_c, 0, 67, 0
6, 87000, Note_on_c, 0, 72, 72
6, 87000, Note_on_c, 0, 69, 72
6, 87119, Note_on_c, 0, 72, 0
6, 87119, Note_on_c, 0, 69, 0
6, 87120, Note_on_c, 0, 70, 72
6, 87120, Note_on_c, 0, 62, 72
6, 87239, Note_on_c, 0, 70, 0
6, 87239, Note_on_c, 0, 62, 0
6, 87240, Note_on_c, 0, 68, 72
6, 87240, Note_on_c, 0, 71, 72
6, 87359, Note_on_c, 0, 68, 0
6, 87359, Note_on_c, 0, 71, 0
6, 87360, Note_on_c, 0, 72, 72
6, 87360, Note_on_c, 0, 67, 72
6, 87479, Note_on_c, 0, 72, 0
6, 87480, Note_on_c, 0, 74, 72
6, 87599, Note_on_c, 0, 67, 0
6, 87599, Note_on_c, 0, 74, 0
6, 87600, Note_on_c, 0, 75, 72
6, 87659, Note_on_c, 0, 75, 0
6, 87660, Note_on_c, 0, 74, 72
6, 87719, Note_on_c, 0, 74, 0
6, 87720, Note_on_c, 0, 72, 72
6, 87839, Note_on_c, 0, 72, 0
6, 88200, Note_on_c, 0, 62, 72
6, 88319, Note_on_c, 0, 62, 0
6, 88320, Note_on_c, 0, 62, 72
6, 88439, Note_on_c, 0, 62, 0
6, 88440, Note_on_c, 0, 62, 72
6, 88559, Note_on_c, 0, 62, 0
6, 88560, Note_on_c, 0, 63, 72
6, 88619, Note_on_c, 0, 63, 0
6, 88620, Note_on_c, 0, 65, 72
6, 88679, Note_on_c, 0, 65, 0
6, 88680, Note_on_c, 0, 63, 72
6, 88739, Note_on_c, 0, 63, 0
6, 88740, Note_on_c, 0, 62, 72
6, 88799, Note_on_c, 0, 62, 0
6, 88800, Note_on_c, 0, 63, 72
6, 88859, Note_on_c, 0, 63, 0
6, 88860, Note_on_c, 0, 65, 72
6, 88919, Note_on_c, 0, 65, 0
6, 88920, Note_on_c, 0, 62, 72
6, 88979, Note_on_c, 0, 62, 0
6, 88980, Note_on_c, 0, 63, 72
6, 89039, Note_on_c, 0, 63, 0
6, 89040, Note_on_c, 0, 65, 72
6, 89099, Note_on_c, 0, 65, 0
6, 89100, Note_on_c, 0, 67, 72
6, 89159, Note_on_c, 0, 67, 0
6, 89160, Note_on_c, 0, 65, 72
6, 89219, Note_on_c, 0, 65, 0
6, 89220, Note_on_c, 0, 63, 72
6, 89279, Note_on_c, 0, 63, 0
6, 89280, Note_on_c, 0, 65, 72
6, 89339, Note_on_c, 0, 65, 0
6, 89340, Note_on_c, 0, 67, 72
6, 89399, Note_on_c, 0, 67, 0
6, 89400, Note_on_c, 0, 63, 72
6, 89459, Note_on_c, 0, 63, 0
6, 89460, Note_on_c, 0, 65, 72
6, 89519, Note_on_c, 0, 65, 0
6, 89520, Note_on_c, 0, 67, 72
6, 89639, Note_on_c, 0, 67, 0
6, 89640, Note_on_c, 0, 68, 72
6, 89699, Note_on_c, 0, 68, 0
6, 89700, Note_on_c, 0, 67, 72
6, 89759, Note_on_c, 0, 67, 0
6, 89760, Note_on_c, 0, 65, 72
6, 89819, Note_on_c, 0, 65, 0
6, 89820, Note_on_c, 0, 63, 72
6, 89879, Note_on_c, 0, 63, 0
6, 89880, Note_on_c, 0, 62, 72
6, 89939, Note_on_c, 0, 62, 0
6, 89940, Note_on_c, 0, 60, 72
6, 89999, Note_on_c, 0, 60, 0
6, 90000, Note_on_c, 0, 59, 72
6, 90119, Note_on_c, 0, 59, 0
6, 90120, Note_on_c, 0, 62, 72
6, 90239, Note_on_c, 0, 62, 0
6, 90240, Note_on_c, 0, 67, 72
6, 90359, Note_on_c, 0, 67, 0
6, 90360, Note_on_c, 0, 65, 72
6, 90479, Note_on_c, 0, 65, 0
6, 90480, Note_on_c, 0, 63, 72
6, 90839, Note_on_c, 0, 63, 0
6, 90840, Note_on_c, 0, 62, 72
6, 90959, Note_on_c, 0, 62, 0
6, 90960, Note_on_c, 0, 60, 72
6, 90960, Note_on_c, 0, 77, 72
6, 91079, Note_on_c, 0, 60, 0
6, 91080, Note_on_c, 0, 65, 72
6, 91199, Note_on_c, 0, 65, 0
6, 91200, Note_on_c, 0, 67, 72
6, 91319, Note_on_c, 0, 67, 0
6, 91320, Note_on_c, 0, 69, 72
6, 91439, Note_on_c, 0, 77, 0
6, 91439, Note_on_c, 0, 69, 0
6, 91440, Note_on_c, 0, 74, 72
6, 91440, Note_on_c, 0, 70, 72
6, 91559, Note_on_c, 0, 70, 0
6, 91560, Note_on_c, 0, 58, 72
6, 91679, Note_on_c, 0, 74, 0
6, 91679, Note_on_c, 0, 58, 0
6, 91680, Note_on_c, 0, 79, 72
6, 91680, Note_on_c, 0, 63, 72
6, 91859, Note_on_c, 0, 63, 0
6, 91860, Note_on_c, 0, 62, 72
6, 91919, Note_on_c, 0, 79, 0
6, 91919, Note_on_c, 0, 62, 0
6, 91920, Note_on_c, 0, 60, 72
6, 91920, Note_on_c, 0, 69, 72
6, 92039, Note_on_c, 0, 60, 0
6, 92040, Note_on_c, 0, 60, 72
6, 92159, Note_on_c, 0, 60, 0
6, 92160, Note_on_c, 0, 65, 72
6, 92399, Note_on_c, 0, 69, 0
6, 92400, Note_on_c, 0, 70, 72
6, 92519, Note_on_c, 0, 65, 0
6, 92520, Note_on_c, 0, 63, 72
6, 92579, Note_on_c, 0, 63, 0
6, 92580, Note_on_c, 0, 62, 72
6, 92639, Note_on_c, 0, 70, 0
6, 92639, Note_on_c, 0, 62, 0
6, 92640, Note_on_c, 0, 63, 72
6, 92640, Note_on_c, 0, 70, 72
6, 92699, Note_on_c, 0, 63, 0
6, 92700, Note_on_c, 0, 65, 72
6, 92759, Note_on_c, 0, 70, 0
6, 92759, Note_on_c, 0, 65, 0
6, 92760, Note_on_c, 0, 62, 72
6, 92760, Note_on_c, 0, 70, 72
6, 92819, Note_on_c, 0, 62, 0
6, 92820, Note_on_c, 0, 63, 72
6, 92879, Note_on_c, 0, 70, 0
6, 92879, Note_on_c, 0, 63, 0
6, 92880, Note_on_c, 0, 72, 72
6, 92880, Note_on_c, 0, 60, 72
6, 92999, Note_on_c, 0, 60, 0
6, 93000, Note_on_c, 0, 62, 72
6, 93059, Note_on_c, 0, 62, 0
6, 93060, Note_on_c, 0, 63, 72
6, 93119, Note_on_c, 0, 63, 0
6, 93120, Note_on_c, 0, 65, 72
6, 93239, Note_on_c, 0, 72, 0
6, 93240, Note_on_c, 0, 70, 72
6, 93299, Note_on_c, 0, 70, 0
6, 93300, Note_on_c, 0, 72, 72
6, 93359, Note_on_c, 0, 72, 0
6, 93360, Note_on_c, 0, 74, 72
6, 93479, Note_on_c, 0, 65, 0
6, 93479, Note_on_c, 0, 74, 0
6, 93480, Note_on_c, 0, 72, 72
6, 93480, Note_on_c, 0, 58, 72
6, 93539, Note_on_c, 0, 72, 0
6, 93540, Note_on_c, 0, 74, 72
6, 93599, Note_on_c, 0, 74, 0
6, 93600, Note_on_c, 0, 75, 72
6, 93719, Note_on_c, 0, 58, 0
6, 93719, Note_on_c, 0, 75, 0
6, 93720, Note_on_c, 0, 74, 72
6, 93720, Note_on_c, 0, 67, 72
6, 93779, Note_on_c, 0, 74, 0
6, 93780, Note_on_c, 0, 75, 72
6, 93839, Note_on_c, 0, 67, 0
6, 93839, Note_on_c, 0, 75, 0
6, 93840, Note_on_c, 0, 65, 72
6, 93840, Note_on_c, 0, 77, 72
6, 93959, Note_on_c, 0, 77, 0
6, 93960, Note_on_c, 0, 72, 72
6, 94079, Note_on_c, 0, 65, 0
6, 94079, Note_on_c, 0, 72, 0
6, 94080, Note_on_c, 0, 77, 72
6, 94199, Note_on_c, 0, 77, 0
6, 94200, Note_on_c, 0, 75, 72
6, 94319, Note_on_c, 0, 75, 0
6, 94320, Note_on_c, 0, 74, 72
6, 94439, Note_on_c, 0, 74, 0
6, 94440, Note_on_c, 0, 65, 72
6, 94559, Note_on_c, 0, 65, 0
6, 94560, Note_on_c, 0, 70, 72
6, 95039, Note_on_c, 0, 70, 0
6, 95040, Note_on_c, 0, 69, 72
6, 95279, Note_on_c, 0, 69, 0
6, 95280, Note_on_c, 0, 70, 72
6, 95399, Note_on_c, 0, 70, 0
6, 95400, Note_on_c, 0, 70, 72
6, 95519, Note_on_c, 0, 70, 0
6, 95520, Note_on_c, 0, 70, 72
6, 95760, Note_on_c, 0, 72, 72
6, 95999, Note_on_c, 0, 70, 0
6, 96000, Note_on_c, 0, 68, 72
6, 96119, Note_on_c, 0, 68, 0
6, 96120, Note_on_c, 0, 67, 72
6, 96239, Note_on_c, 0, 72, 0
6, 96239, Note_on_c, 0, 67, 0
6, 96240, Note_on_c, 0, 68, 72
6, 96479, Note_on_c, 0, 68, 0
6, 96480, Note_on_c, 0, 73, 72
6, 96480, Note_on_c, 0, 67, 72
6, 96719, Note_on_c, 0, 73, 0
6, 96719, Note_on_c, 0, 67, 0
6, 96720, Note_on_c, 0, 67, 72
6, 96720, Note_on_c, 0, 64, 72
6, 96959, Note_on_c, 0, 67, 0
6, 97199, Note_on_c, 0, 64, 0
6, 97200, Note_on_c, 0, 65, 72
6, 97320, Note_on_c, 0, 65, 72
6, 97439, Note_on_c, 0, 65, 0
6, 97439, Note_on_c, 0, 65, 0
6, 97440, Note_on_c, 0, 70, 72
6, 97559, Note_on_c, 0, 70, 0
6, 97560, Note_on_c, 0, 68, 72
6, 97679, Note_on_c, 0, 68, 0
6, 97680, Note_on_c, 0, 67, 72
6, 97799, Note_on_c, 0, 67, 0
6, 97800, Note_on_c, 0, 60, 72
6, 97919, Note_on_c, 0, 60, 0
6, 97920, Note_on_c, 0, 72, 72
6, 98039, Note_on_c, 0, 72, 0
6, 98040, Note_on_c, 0, 70, 72
6, 98159, Note_on_c, 0, 70, 0
6, 98160, Note_on_c, 0, 68, 72
6, 98399, Note_on_c, 0, 68, 0
6, 98760, Note_on_c, 0, 62, 72
6, 98879, Note_on_c, 0, 62, 0
6, 98880, Note_on_c, 0, 62, 72
6, 98999, Note_on_c, 0, 62, 0
6, 99000, Note_on_c, 0, 62, 72
6, 99119, Note_on_c, 0, 62, 0
6, 99120, Note_on_c, 0, 63, 72
6, 99179, Note_on_c, 0, 63, 0
6, 99180, Note_on_c, 0, 65, 72
6, 99239, Note_on_c, 0, 65, 0
6, 99240, Note_on_c, 0, 63, 72
6, 99299, Note_on_c, 0, 63, 0
6, 99300, Note_on_c, 0, 62, 72
6, 99359, Note_on_c, 0, 62, 0
6, 99360, Note_on_c, 0, 64, 72
6, 99419, Note_on_c, 0, 64, 0
6, 99420, Note_on_c, 0, 65, 72
6, 99479, Note_on_c, 0, 65, 0
6, 99480, Note_on_c, 0, 62, 72
6, 99539, Note_on_c, 0, 62, 0
6, 99540, Note_on_c, 0, 64, 72
6, 99599, Note_on_c, 0, 64, 0
6, 99600, Note_on_c, 0, 65, 72
6, 99659, Note_on_c, 0, 65, 0
6, 99660, Note_on_c, 0, 67, 72
6, 99719, Note_on_c, 0, 67, 0
6, 99720, Note_on_c, 0, 69, 72
6, 99720, Note_on_c, 0, 65, 72
6, 99779, Note_on_c, 0, 65, 0
6, 99780, Note_on_c, 0, 64, 72
6, 99839, Note_on_c, 0, 69, 0
6, 99839, Note_on_c, 0, 64, 0
6, 99840, Note_on_c, 0, 69, 72
6, 99840, Note_on_c, 0, 66, 72
6, 99899, Note_on_c, 0, 66, 0
6, 99900, Note_on_c, 0, 67, 72
6, 99959, Note_on_c, 0, 69, 0
6, 99959, Note_on_c, 0, 67, 0
6, 99960, Note_on_c, 0, 69, 72
6, 99960, Note_on_c, 0, 64, 72
6, 100019, Note_on_c, 0, 64, 0
6, 100020, Note_on_c, 0, 66, 72
6, 100079, Note_on_c, 0, 69, 0
6, 100079, Note_on_c, 0, 66, 0
6, 100080, Note_on_c, 0, 70, 72
6, 100080, Note_on_c, 0, 67, 72
6, 100139, Note_on_c, 0, 70, 0
6, 100140, Note_on_c, 0, 72, 72
6, 100199, Note_on_c, 0, 67, 0
6, 100199, Note_on_c, 0, 72, 0
6, 100200, Note_on_c, 0, 70, 72
6, 100200, Note_on_c, 0, 62, 72
6, 100259, Note_on_c, 0, 70, 0
6, 100260, Note_on_c, 0, 69, 72
6, 100319, Note_on_c, 0, 62, 0
6, 100319, Note_on_c, 0, 69, 0
6, 100320, Note_on_c, 0, 71, 72
6, 100320, Note_on_c, 0, 67, 72
6, 100379, Note_on_c, 0, 71, 0
6, 100380, Note_on_c, 0, 72, 72
6, 100439, Note_on_c, 0, 67, 0
6, 100439, Note_on_c, 0, 72, 0
6, 100440, Note_on_c, 0, 69, 72
6, 100440, Note_on_c, 0, 65, 72
6, 100499, Note_on_c, 0, 69, 0
6, 100500, Note_on_c, 0, 71, 72
6, 100559, Note_on_c, 0, 65, 0
6, 100559, Note_on_c, 0, 71, 0
6, 100560, Note_on_c, 0, 72, 72
6, 100560, Note_on_c, 0, 64, 72
6, 100619, Note_on_c, 0, 72, 0
6, 100620, Note_on_c, 0, 74, 72
6, 100679, Note_on_c, 0, 64, 0
6, 100679, Note_on_c, 0, 74, 0
6, 100680, Note_on_c, 0, 72, 72
6, 100680, Note_on_c, 0, 57, 72
6, 100739, Note_on_c, 0, 72, 0
6, 100740, Note_on_c, 0, 71, 72
6, 100799, Note_on_c, 0, 57, 0
6, 100799, Note_on_c, 0, 71, 0
6, 100800, Note_on_c, 0, 73, 72
6, 100800, Note_on_c, 0, 69, 72
6, 100859, Note_on_c, 0, 73, 0
6, 100860, Note_on_c, 0, 74, 72
6, 100919, Note_on_c, 0, 69, 0
6, 100919, Note_on_c, 0, 74, 0
6, 100920, Note_on_c, 0, 71, 72
6, 100920, Note_on_c, 0, 67, 72
6, 100979, Note_on_c, 0, 71, 0
6, 100980, Note_on_c, 0, 73, 72
6, 101039, Note_on_c, 0, 67, 0
6, 101039, Note_on_c, 0, 73, 0
6, 101040, Note_on_c, 0, 74, 72
6, 101040, Note_on_c, 0, 65, 72
6, 101159, Note_on_c, 0, 74, 0
6, 101160, Note_on_c, 0, 69, 72
6, 101279, Note_on_c, 0, 65, 0
6, 101279, Note_on_c, 0, 69, 0
6, 101280, Note_on_c, 0, 74, 72
6, 101280, Note_on_c, 0, 69, 72
6, 101399, Note_on_c, 0, 74, 0
6, 101400, Note_on_c, 0, 72, 72
6, 101519, Note_on_c, 0, 69, 0
6, 101519, Note_on_c, 0, 72, 0
6, 101520, Note_on_c, 0, 71, 72
6, 101520, Note_on_c, 0, 62, 72
6, 101639, Note_on_c, 0, 71, 0
6, 101639, Note_on_c, 0, 62, 0
6, 101640, Note_on_c, 0, 71, 72
6, 101640, Note_on_c, 0, 64, 72
6, 101759, Note_on_c, 0, 71, 0
6, 101759, Note_on_c, 0, 64, 0
6, 101760, Note_on_c, 0, 76, 72
6, 101760, Note_on_c, 0, 71, 72
6, 101879, Note_on_c, 0, 76, 0
6, 101880, Note_on_c, 0, 74, 72
6, 101999, Note_on_c, 0, 71, 0
6, 101999, Note_on_c, 0, 74, 0
6, 102000, Note_on_c, 0, 73, 72
6, 102000, Note_on_c, 0, 64, 72
6, 102119, Note_on_c, 0, 64, 0
6, 102120, Note_on_c, 0, 61, 72
6, 102239, Note_on_c, 0, 73, 0
6, 102239, Note_on_c, 0, 61, 0
6, 102240, Note_on_c, 0, 62, 72
6, 102359, Note_on_c, 0, 62, 0
6, 102360, Note_on_c, 0, 64, 72
6, 102479, Note_on_c, 0, 64, 0
6, 102480, Note_on_c, 0, 65, 72
6, 102599, Note_on_c, 0, 65, 0
6, 102600, Note_on_c, 0, 64, 72
6, 102659, Note_on_c, 0, 64, 0
6, 102660, Note_on_c, 0, 65, 72
6, 102719, Note_on_c, 0, 65, 0
6, 102720, Note_on_c, 0, 67, 72
6, 102839, Note_on_c, 0, 67, 0
6, 102840, Note_on_c, 0, 65, 72
6, 102899, Note_on_c, 0, 65, 0
6, 102900, Note_on_c, 0, 67, 72
6, 102959, Note_on_c, 0, 67, 0
6, 102960, Note_on_c, 0, 69, 72
6, 103079, Note_on_c, 0, 69, 0
6, 103080, Note_on_c, 0, 70, 72
6, 103199, Note_on_c, 0, 70, 0
6, 103200, Note_on_c, 0, 69, 72
6, 103319, Note_on_c, 0, 69, 0
6, 103320, Note_on_c, 0, 67, 72
6, 103439, Note_on_c, 0, 67, 0
6, 103440, Note_on_c, 0, 65, 72
6, 103559, Note_on_c, 0, 65, 0
6, 103560, Note_on_c, 0, 69, 72
6, 103679, Note_on_c, 0, 69, 0
6, 103680, Note_on_c, 0, 74, 72
6, 104159, Note_on_c, 0, 74, 0
6, 104160, Note_on_c, 0, 73, 72
6, 104399, Note_on_c, 0, 73, 0
6, 104880, Note_on_c, 0, 73, 72
6, 104999, Note_on_c, 0, 73, 0
6, 105000, Note_on_c, 0, 74, 72
6, 105119, Note_on_c, 0, 74, 0
6, 105120, Note_on_c, 0, 76, 72
6, 105120, Note_on_c, 0, 70, 72
6, 105359, Note_on_c, 0, 70, 0
6, 105360, Note_on_c, 0, 70, 72
6, 105479, Note_on_c, 0, 76, 0
6, 105480, Note_on_c, 0, 79, 72
6, 105599, Note_on_c, 0, 70, 0
6, 105599, Note_on_c, 0, 79, 0
6, 105600, Note_on_c, 0, 69, 72
6, 105600, Note_on_c, 0, 77, 72
6, 105719, Note_on_c, 0, 77, 0
6, 105720, Note_on_c, 0, 76, 72
6, 105839, Note_on_c, 0, 76, 0
6, 105840, Note_on_c, 0, 74, 72
6, 106079, Note_on_c, 0, 69, 0
6, 106080, Note_on_c, 0, 68, 72
6, 106319, Note_on_c, 0, 74, 0
6, 106319, Note_on_c, 0, 68, 0
6, 106320, Note_on_c, 0, 69, 72
6, 106320, Note_on_c, 0, 73, 72
6, 106559, Note_on_c, 0, 69, 0
6, 106559, Note_on_c, 0, 73, 0
6, 106560, Note_on_c, 0, 69, 72
6, 106560, Note_on_c, 0, 74, 72
6, 106679, Note_on_c, 0, 74, 0
6, 106680, Note_on_c, 0, 76, 72
6, 106799, Note_on_c, 0, 69, 0
6, 106799, Note_on_c, 0, 76, 0
6, 106800, Note_on_c, 0, 69, 72
6, 106800, Note_on_c, 0, 65, 72
6, 107039, Note_on_c, 0, 69, 0
6, 107039, Note_on_c, 0, 65, 0
6, 107040, Note_on_c, 0, 70, 72
6, 107279, Note_on_c, 0, 70, 0
6, 107280, Note_on_c, 0, 61, 72
6, 107759, Note_on_c, 0, 61, 0
6, 107760, Note_on_c, 0, 62, 72
6, 107999, Note_on_c, 0, 62, 0
6, 108000, Note_on_c, 0, 62, 72
6, 108119, Note_on_c, 0, 62, 0
6, 108120, Note_on_c, 0, 62, 72
6, 108239, Note_on_c, 0, 62, 0
6, 108240, Note_on_c, 0, 64, 72
6, 108360, Note_on_c, 0, 69, 72
6, 108479, Note_on_c, 0, 69, 0
6, 108480, Note_on_c, 0, 69, 72
6, 108599, Note_on_c, 0, 64, 0
6, 108599, Note_on_c, 0, 69, 0
6, 108600, Note_on_c, 0, 69, 72
6, 108600, Note_on_c, 0, 62, 72
6, 108659, Note_on_c, 0, 62, 0
6, 108660, Note_on_c, 0, 64, 72
6, 108719, Note_on_c, 0, 69, 0
6, 108719, Note_on_c, 0, 64, 0
6, 108720, Note_on_c, 0, 70, 72
6, 108720, Note_on_c, 0, 65, 72
6, 108779, Note_on_c, 0, 70, 0
6, 108780, Note_on_c, 0, 72, 72
6, 108839, Note_on_c, 0, 72, 0
6, 108840, Note_on_c, 0, 70, 72
6, 108899, Note_on_c, 0, 70, 0
6, 108900, Note_on_c, 0, 69, 72
6, 108959, Note_on_c, 0, 65, 0
6, 108959, Note_on_c, 0, 69, 0
6, 108960, Note_on_c, 0, 71, 72
6, 109019, Note_on_c, 0, 71, 0
6, 109020, Note_on_c, 0, 72, 72
6, 109079, Note_on_c, 0, 72, 0
6, 109080, Note_on_c, 0, 69, 72
6, 109139, Note_on_c, 0, 69, 0
6, 109140, Note_on_c, 0, 71, 72
6, 109199, Note_on_c, 0, 71, 0
6, 109200, Note_on_c, 0, 72, 72
6, 109259, Note_on_c, 0, 72, 0
6, 109260, Note_on_c, 0, 74, 72
6, 109319, Note_on_c, 0, 74, 0
6, 109320, Note_on_c, 0, 72, 72
6, 109320, Note_on_c, 0, 64, 72
6, 109379, Note_on_c, 0, 72, 0
6, 109380, Note_on_c, 0, 71, 72
6, 109439, Note_on_c, 0, 64, 0
6, 109439, Note_on_c, 0, 71, 0
6, 109440, Note_on_c, 0, 73, 72
6, 109440, Note_on_c, 0, 64, 72
6, 109499, Note_on_c, 0, 73, 0
6, 109500, Note_on_c, 0, 74, 72
6, 109559, Note_on_c, 0, 64, 0
6, 109559, Note_on_c, 0, 74, 0
6, 109560, Note_on_c, 0, 71, 72
6, 109560, Note_on_c, 0, 64, 72
6, 109619, Note_on_c, 0, 71, 0
6, 109620, Note_on_c, 0, 73, 72
6, 109679, Note_on_c, 0, 64, 0
6, 109679, Note_on_c, 0, 73, 0
6, 109680, Note_on_c, 0, 74, 72
6, 109680, Note_on_c, 0, 65, 72
6, 109739, Note_on_c, 0, 65, 0
6, 109740, Note_on_c, 0, 67, 72
6, 109799, Note_on_c, 0, 67, 0
6, 109800, Note_on_c, 0, 65, 72
6, 109859, Note_on_c, 0, 65, 0
6, 109860, Note_on_c, 0, 64, 72
6, 109919, Note_on_c, 0, 74, 0
6, 109919, Note_on_c, 0, 64, 0
6, 109920, Note_on_c, 0, 66, 72
6, 109979, Note_on_c, 0, 66, 0
6, 109980, Note_on_c, 0, 67, 72
6, 110039, Note_on_c, 0, 67, 0
6, 110040, Note_on_c, 0, 64, 72
6, 110099, Note_on_c, 0, 64, 0
6, 110100, Note_on_c, 0, 66, 72
6, 110159, Note_on_c, 0, 66, 0
6, 110160, Note_on_c, 0, 67, 72
6, 110219, Note_on_c, 0, 67, 0
6, 110220, Note_on_c, 0, 69, 72
6, 110279, Note_on_c, 0, 69, 0
6, 110280, Note_on_c, 0, 67, 72
6, 110339, Note_on_c, 0, 67, 0
6, 110340, Note_on_c, 0, 66, 72
6, 110399, Note_on_c, 0, 66, 0
6, 110400, Note_on_c, 0, 68, 72
6, 110459, Note_on_c, 0, 68, 0
6, 110460, Note_on_c, 0, 69, 72
6, 110519, Note_on_c, 0, 69, 0
6, 110520, Note_on_c, 0, 65, 72
6, 110579, Note_on_c, 0, 65, 0
6, 110580, Note_on_c, 0, 68, 72
6, 110639, Note_on_c, 0, 68, 0
6, 110640, Note_on_c, 0, 69, 72
6, 110879, Note_on_c, 0, 69, 0
6, 110880, Note_on_c, 0, 69, 72
6, 111119, Note_on_c, 0, 69, 0
6, 111120, Note_on_c, 0, 67, 72
6, 111359, Note_on_c, 0, 67, 0
6, 111360, Note_on_c, 0, 71, 72
6, 111599, Note_on_c, 0, 71, 0
6, 111600, Note_on_c, 0, 69, 72
6, 111719, Note_on_c, 0, 69, 0
6, 111720, Note_on_c, 0, 73, 72
6, 111720, Note_on_c, 0, 67, 72
6, 111839, Note_on_c, 0, 73, 0
6, 111839, Note_on_c, 0, 67, 0
6, 111840, Note_on_c, 0, 74, 72
6, 111840, Note_on_c, 0, 65, 72
6, 111959, Note_on_c, 0, 74, 0
6, 111959, Note_on_c, 0, 65, 0
6, 111960, Note_on_c, 0, 74, 72
6, 111960, Note_on_c, 0, 71, 72
6, 112079, Note_on_c, 0, 74, 0
6, 112079, Note_on_c, 0, 71, 0
6, 112080, Note_on_c, 0, 74, 72
6, 112080, Note_on_c, 0, 69, 72
6, 112319, Note_on_c, 0, 74, 0
6, 112320, Note_on_c, 0, 73, 72
6, 112559, Note_on_c, 0, 69, 0
6, 112559, Note_on_c, 0, 73, 0
6, 112560, Note_on_c, 0, 74, 72
6, 112560, Note_on_c, 0, 71, 72
6, 113039, Note_on_c, 0, 74, 0
6, 113039, Note_on_c, 0, 71, 0
6, 113280, Note_on_c, 0, 74, 72
6, 113280, Note_on_c, 0, 71, 72
6, 113459, Note_on_c, 0, 74, 0
6, 113459, Note_on_c, 0, 71, 0
6, 113460, Note_on_c, 0, 74, 72
6, 113460, Note_on_c, 0, 71, 72
6, 113519, Note_on_c, 0, 74, 0
6, 113519, Note_on_c, 0, 71, 0
6, 113520, Note_on_c, 0, 73, 72
6, 113520, Note_on_c, 0, 69, 72
6, 113759, Note_on_c, 0, 73, 0
6, 113760, Note_on_c, 0, 74, 72
6, 114239, Note_on_c, 0, 69, 0
6, 114239, Note_on_c, 0, 74, 0
6, 114240, Note_on_c, 0, 73, 72
6, 114240, Note_on_c, 0, 69, 72
6, 114479, Note_on_c, 0, 73, 0
6, 114479, Note_on_c, 0, 69, 0
6, 114480, Note_on_c, 0, 74, 72
6, 114480, Note_on_c, 0, 69, 72
6, 115439, Note_on_c, 0, 74, 0
6, 115439, Note_on_c, 0, 69, 0
6, 115439, End_track
7, 0, Start_track
7, 0, Title_t, "Bassoon"
7, 0, MIDI_port, 0
7, 0, Program_c, 1, 70
7, 0, Control_c, 1, 7, 96
7, 0, Control_c, 1, 10, 65
7, 0, Control_c, 1, 11, 127
7, 0, Note_on_c, 1, 57, 72
7, 0, Note_on_c, 1, 53, 72
7, 239, Note_on_c, 1, 57, 0
7, 239, Note_on_c, 1, 53, 0
7, 720, Note_on_c, 1, 57, 72
7, 720, Note_on_c, 1, 53, 72
7, 959, Note_on_c, 1, 57, 0
7, 959, Note_on_c, 1, 53, 0
7, 1440, Note_on_c, 1, 64, 72
7, 1440, Note_on_c, 1, 49, 72
7, 1679, Note_on_c, 1, 64, 0
7, 1679, Note_on_c, 1, 49, 0
7, 2160, Note_on_c, 1, 50, 72
7, 2160, Note_on_c, 1, 65, 72
7, 2399, Note_on_c, 1, 50, 0
7, 2399, Note_on_c, 1, 65, 0
7, 2880, Note_on_c, 1, 67, 72
7, 2880, Note_on_c, 1, 52, 72
7, 3119, Note_on_c, 1, 67, 0
7, 3119, Note_on_c, 1, 52, 0
7, 3600, Note_on_c, 1, 65, 72
7, 3600, Note_on_c, 1, 53, 72
7, 3839, Note_on_c, 1, 65, 0
7, 3839, Note_on_c, 1, 53, 0
7, 4320, Note_on_c, 1, 62, 72
7, 4320, Note_on_c, 1, 55, 72
7, 4559, Note_on_c, 1, 62, 0
7, 4559, Note_on_c, 1, 55, 0
7, 5040, Note_on_c, 1, 65, 84
7, 5040, Note_on_c, 1, 56, 84
7, 5759, Note_on_c, 1, 65, 0
7, 5759, Note_on_c, 1, 56, 0
7, 5760, Note_on_c, 1, 64, 84
7, 5760, Note_on_c, 1, 57, 84
7, 5999, Note_on_c, 1, 64, 0
7, 5999, Note_on_c, 1, 57, 0
7, 9600, Note_on_c, 1, 45, 48
7, 9600, Note_on_c, 1, 53, 48
7, 9839, Note_on_c, 1, 45, 0
7, 9839, Note_on_c, 1, 53, 0
7, 9840, Note_on_c, 1, 45, 48
7, 9840, Note_on_c, 1, 53, 48
7, 10079, Note_on_c, 1, 45, 0
7, 10079, Note_on_c, 1, 53, 0
7, 10080, Note_on_c, 1, 53, 48
7, 10080, Note_on_c, 1, 46, 48
7, 10199, Note_on_c, 1, 53, 0
7, 10200, Note_on_c, 1, 54, 48
7, 10319, Note_on_c, 1, 54, 0
7, 10320, Note_on_c, 1, 55, 48
7, 10439, Note_on_c, 1, 55, 0
7, 10440, Note_on_c, 1, 57, 48
7, 10559, Note_on_c, 1, 57, 0
7, 10560, Note_on_c, 1, 58, 48
7, 10679, Note_on_c, 1, 46, 0
7, 10679, Note_on_c, 1, 58, 0
7, 10680, Note_on_c, 1, 62, 48
7, 10680, Note_on_c, 1, 47, 48
7, 10799, Note_on_c, 1, 62, 0
7, 10799, Note_on_c, 1, 47, 0
7, 10800, Note_on_c, 1, 60, 48
7, 10800, Note_on_c, 1, 48, 48
7, 11279, Note_on_c, 1, 60, 0
7, 11279, Note_on_c, 1, 48, 0
7, 11280, Note_on_c, 1, 52, 48
7, 11280, Note_on_c, 1, 36, 48
7, 11519, Note_on_c, 1, 52, 0
7, 11519, Note_on_c, 1, 36, 0
7, 11520, Note_on_c, 1, 53, 48
7, 11520, Note_on_c, 1, 41, 48
7, 11759, Note_on_c, 1, 53, 0
7, 11759, Note_on_c, 1, 41, 0
7, 11760, Note_on_c, 1, 60, 72
7, 11760, Note_on_c, 1, 53, 72
7, 11999, Note_on_c, 1, 60, 0
7, 11999, Note_on_c, 1, 53, 0
7, 12000, Note_on_c, 1, 60, 72
7, 12000, Note_on_c, 1, 53, 72
7, 12239, Note_on_c, 1, 60, 0
7, 12239, Note_on_c, 1, 53, 0
7, 12240, Note_on_c, 1, 60, 72
7, 12240, Note_on_c, 1, 52, 72
7, 12479, Note_on_c, 1, 60, 0
7, 12479, Note_on_c, 1, 52, 0
7, 12960, Note_on_c, 1, 60, 72
7, 12960, Note_on_c, 1, 53, 72
7, 13199, Note_on_c, 1, 60, 0
7, 13199, Note_on_c, 1, 53, 0
7, 13680, Note_on_c, 1, 65, 72
7, 13680, Note_on_c, 1, 47, 72
7, 13919, Note_on_c, 1, 65, 0
7, 13919, Note_on_c, 1, 47, 0
7, 14400, Note_on_c, 1, 64, 72
7, 14400, Note_on_c, 1, 48, 72
7, 14639, Note_on_c, 1, 64, 0
7, 14639, Note_on_c, 1, 48, 0
7, 15120, Note_on_c, 1, 58, 72
7, 15120, Note_on_c, 1, 49, 72
7, 15359, Note_on_c, 1, 58, 0
7, 15359, Note_on_c, 1, 49, 0
7, 15840, Note_on_c, 1, 66, 72
7, 15840, Note_on_c, 1, 51, 72
7, 16559, Note_on_c, 1, 66, 0
7, 16559, Note_on_c, 1, 51, 0
7, 16560, Note_on_c, 1, 59, 72
7, 16560, Note_on_c, 1, 52, 72
7, 16799, Note_on_c, 1, 59, 0
7, 16799, Note_on_c, 1, 52, 0
7, 24000, Note_on_c, 1, 60, 72
7, 24000, Note_on_c, 1, 48, 72
7, 24239, Note_on_c, 1, 60, 0
7, 24239, Note_on_c, 1, 48, 0
7, 24240, Note_on_c, 1, 60, 72
7, 24240, Note_on_c, 1, 48, 72
7, 24479, Note_on_c, 1, 60, 0
7, 24479, Note_on_c, 1, 48, 0
7, 24480, Note_on_c, 1, 62, 72
7, 24480, Note_on_c, 1, 59, 72
7, 25199, Note_on_c, 1, 62, 0
7, 25199, Note_on_c, 1, 59, 0
7, 25200, Note_on_c, 1, 64, 72
7, 25200, Note_on_c, 1, 60, 72
7, 25919, Note_on_c, 1, 64, 0
7, 25919, Note_on_c, 1, 60, 0
7, 25920, Note_on_c, 1, 62, 72
7, 25920, Note_on_c, 1, 59, 72
7, 26639, Note_on_c, 1, 62, 0
7, 26639, Note_on_c, 1, 59, 0
7, 26640, Note_on_c, 1, 62, 72
7, 26640, Note_on_c, 1, 58, 72
7, 27359, Note_on_c, 1, 62, 0
7, 27359, Note_on_c, 1, 58, 0
7, 27360, Note_on_c, 1, 63, 72
7, 27360, Note_on_c, 1, 58, 72
7, 28079, Note_on_c, 1, 63, 0
7, 28079, Note_on_c, 1, 58, 0
7, 28080, Note_on_c, 1, 60, 72
7, 28080, Note_on_c, 1, 57, 72
7, 28799, Note_on_c, 1, 60, 0
7, 28799, Note_on_c, 1, 57, 0
7, 28800, Note_on_c, 1, 62, 72
7, 28800, Note_on_c, 1, 58, 72
7, 29039, Note_on_c, 1, 62, 0
7, 29039, Note_on_c, 1, 58, 0
7, 34560, Control_c, 1, 11, 80
7, 34560, Note_on_c, 1, 61, 72
7, 34560, Note_on_c, 1, 54, 72
7, 34800, Control_c, 1, 11, 96
7, 35040, Control_c, 1, 11, 112
7, 35279, Note_on_c, 1, 54, 0
7, 35280, Note_on_c, 1, 53, 72
7, 35280, Control_c, 1, 11, 127
7, 35519, Note_on_c, 1, 61, 0
7, 35520, Note_on_c, 1, 60, 72
7, 35759, Note_on_c, 1, 60, 0
7, 35760, Note_on_c, 1, 58, 72
7, 35999, Note_on_c, 1, 53, 0
7, 35999, Note_on_c, 1, 58, 0
7, 36000, Note_on_c, 1, 60, 72
7, 36000, Note_on_c, 1, 41, 72
7, 36719, Note_on_c, 1, 60, 0
7, 36719, Note_on_c, 1, 41, 0
7, 37680, Note_on_c, 1, 65, 48
7, 37920, Note_on_c, 1, 60, 48
7, 37979, Note_on_c, 1, 65, 0
7, 37980, Note_on_c, 1, 67, 48
7, 38039, Note_on_c, 1, 67, 0
7, 38040, Note_on_c, 1, 65, 48
7, 38099, Note_on_c, 1, 65, 0
7, 38100, Note_on_c, 1, 63, 48
7, 38159, Note_on_c, 1, 63, 0
7, 38160, Note_on_c, 1, 62, 48
7, 38219, Note_on_c, 1, 62, 0
7, 38220, Note_on_c, 1, 65, 48
7, 38279, Note_on_c, 1, 60, 0
7, 38279, Note_on_c, 1, 65, 0
7, 38280, Note_on_c, 1, 58, 48
7, 38280, Note_on_c, 1, 63, 48
7, 38339, Note_on_c, 1, 63, 0
7, 38340, Note_on_c, 1, 62, 48
7, 38399, Note_on_c, 1, 62, 0
7, 38400, Note_on_c, 1, 60, 48
7, 38459, Note_on_c, 1, 60, 0
7, 38460, Note_on_c, 1, 63, 48
7, 38519, Note_on_c, 1, 58, 0
7, 38519, Note_on_c, 1, 63, 0
7, 38520, Note_on_c, 1, 57, 48
7, 38520, Note_on_c, 1, 62, 48
7, 38579, Note_on_c, 1, 62, 0
7, 38580, Note_on_c, 1, 60, 48
7, 38639, Note_on_c, 1, 57, 0
7, 38639, Note_on_c, 1, 60, 0
7, 38640, Note_on_c, 1, 58, 48
7, 38879, Note_on_c, 1, 58, 0
7, 43770, Note_on_c, 1, 55, 72
7, 43799, Note_on_c, 1, 55, 0
7, 43800, Note_on_c, 1, 58, 72
7, 43889, Note_on_c, 1, 58, 0
7, 43890, Note_on_c, 1, 55, 72
7, 43919, Note_on_c, 1, 55, 0
7, 43920, Note_on_c, 1, 57, 72
7, 44159, Note_on_c, 1, 57, 0
7, 44250, Note_on_c, 1, 53, 72
7, 44279, Note_on_c, 1, 53, 0
7, 44280, Note_on_c, 1, 57, 72
7, 44369, Note_on_c, 1, 57, 0
7, 44370, Note_on_c, 1, 53, 72
7, 44399, Note_on_c, 1, 53, 0
7, 44400, Note_on_c, 1, 58, 72
7, 44639, Note_on_c, 1, 58, 0
7, 44730, Note_on_c, 1, 58, 72
7, 44759, Note_on_c, 1, 58, 0
7, 44760, Note_on_c, 1, 62, 72
7, 44849, Note_on_c, 1, 62, 0
7, 44850, Note_on_c, 1, 58, 72
7, 44879, Note_on_c, 1, 58, 0
7, 44880, Note_on_c, 1, 54, 72
7, 45119, Note_on_c, 1, 54, 0
7, 45210, Note_on_c, 1, 50, 72
7, 45239, Note_on_c, 1, 50, 0
7, 45240, Note_on_c, 1, 53, 72
7, 45329, Note_on_c, 1, 53, 0
7, 45330, Note_on_c, 1, 50, 72
7, 45359, Note_on_c, 1, 50, 0
7, 45360, Note_on_c, 1, 55, 72
7, 45599, Note_on_c, 1, 55, 0
7, 45690, Note_on_c, 1, 55, 72
7, 45719, Note_on_c, 1, 55, 0
7, 45720, Note_on_c, 1, 58, 72
7, 45809, Note_on_c, 1, 58, 0
7, 45810, Note_on_c, 1, 55, 72
7, 45839, Note_on_c, 1, 55, 0
7, 45840, Note_on_c, 1, 48, 72
7, 45959, Note_on_c, 1, 48, 0
7, 45960, Note_on_c, 1, 50, 72
7, 46049, Note_on_c, 1, 50, 0
7, 46050, Note_on_c, 1, 51, 72
7, 46079, Note_on_c, 1, 51, 0
7, 46080, Note_on_c, 1, 53, 72
7, 46199, Note_on_c, 1, 53, 0
7, 46200, Note_on_c, 1, 41, 72
7, 46319, Note_on_c, 1, 41, 0
7, 46320, Note_on_c, 1, 46, 72
7, 46559, Note_on_c, 1, 46, 0
7, 46650, Note_on_c, 1, 58, 72
7, 46679, Note_on_c, 1, 58, 0
7, 46680, Note_on_c, 1, 62, 72
7, 46769, Note_on_c, 1, 62, 0
7, 46770, Note_on_c, 1, 58, 72
7, 46799, Note_on_c, 1, 58, 0
7, 46800, Note_on_c, 1, 55, 72
7, 47039, Note_on_c, 1, 55, 0
7, 47130, Note_on_c, 1, 55, 72
7, 47159, Note_on_c, 1, 55, 0
7, 47160, Note_on_c, 1, 58, 72
7, 47249, Note_on_c, 1, 58, 0
7, 47250, Note_on_c, 1, 55, 72
7, 47279, Note_on_c, 1, 55, 0
7, 47280, Note_on_c, 1, 52, 72
7, 47519, Note_on_c, 1, 52, 0
7, 47610, Note_on_c, 1, 52, 72
7, 47639, Note_on_c, 1, 52, 0
7, 47640, Note_on_c, 1, 55, 72
7, 47729, Note_on_c, 1, 55, 0
7, 47730, Note_on_c, 1, 60, 72
7, 47759, Note_on_c, 1, 60, 0
7, 47760, Note_on_c, 1, 51, 72
7, 47999, Note_on_c, 1, 51, 0
7, 48090, Note_on_c, 1, 51, 72
7, 48119, Note_on_c, 1, 51, 0
7, 48120, Note_on_c, 1, 55, 72
7, 48209, Note_on_c, 1, 55, 0
7, 48210, Note_on_c, 1, 60, 72
7, 48239, Note_on_c, 1, 60, 0
7, 48240, Note_on_c, 1, 50, 72
7, 48359, Note_on_c, 1, 50, 0
7, 48450, Note_on_c, 1, 62, 72
7, 48479, Note_on_c, 1, 62, 0
7, 48480, Note_on_c, 1, 61, 72
7, 48599, Note_on_c, 1, 61, 0
7, 48690, Note_on_c, 1, 49, 72
7, 48719, Note_on_c, 1, 49, 0
7, 48720, Note_on_c, 1, 50, 72
7, 48839, Note_on_c, 1, 50, 0
7, 48840, Note_on_c, 1, 50, 72
7, 48959, Note_on_c, 1, 50, 0
7, 48960, Note_on_c, 1, 50, 72
7, 49079, Note_on_c, 1, 50, 0
7, 49080, Note_on_c, 1, 50, 72
7, 49199, Note_on_c, 1, 50, 0
7, 49200, Note_on_c, 1, 43, 72
7, 49439, Note_on_c, 1, 43, 0
7, 49440, Note_on_c, 1, 63, 48
7, 49679, Note_on_c, 1, 63, 0
7, 49680, Note_on_c, 1, 62, 48
7, 50400, Note_on_c, 1, 57, 48
7, 50459, Note_on_c, 1, 62, 0
7, 50460, Note_on_c, 1, 63, 48
7, 50519, Note_on_c, 1, 63, 0
7, 50520, Note_on_c, 1, 62, 48
7, 50579, Note_on_c, 1, 62, 0
7, 50580, Note_on_c, 1, 60, 48
7, 50639, Note_on_c, 1, 60, 0
7, 50640, Note_on_c, 1, 58, 48
7, 50699, Note_on_c, 1, 58, 0
7, 50700, Note_on_c, 1, 62, 48
7, 50759, Note_on_c, 1, 57, 0
7, 50759, Note_on_c, 1, 62, 0
7, 50760, Note_on_c, 1, 60, 48
7, 50760, Note_on_c, 1, 55, 48
7, 50819, Note_on_c, 1, 60, 0
7, 50820, Note_on_c, 1, 58, 48
7, 50879, Note_on_c, 1, 58, 0
7, 50880, Note_on_c, 1, 57, 48
7, 50939, Note_on_c, 1, 57, 0
7, 50940, Note_on_c, 1, 60, 48
7, 50999, Note_on_c, 1, 55, 0
7, 50999, Note_on_c, 1, 60, 0
7, 51000, Note_on_c, 1, 58, 48
7, 51000, Note_on_c, 1, 54, 48
7, 51059, Note_on_c, 1, 58, 0
7, 51060, Note_on_c, 1, 57, 48
7, 51119, Note_on_c, 1, 54, 0
7, 51119, Note_on_c, 1, 57, 0
7, 51120, Note_on_c, 1, 55, 48
7, 51239, Note_on_c, 1, 55, 0
7, 51360, Note_on_c, 1, 50, 72
7, 51839, Note_on_c, 1, 50, 0
7, 51840, Note_on_c, 1, 49, 72
7, 52079, Note_on_c, 1, 49, 0
7, 52080, Note_on_c, 1, 50, 72
7, 52319, Note_on_c, 1, 50, 0
7, 52320, Note_on_c, 1, 52, 72
7, 52559, Note_on_c, 1, 52, 0
7, 52560, Note_on_c, 1, 53, 72
7, 52799, Note_on_c, 1, 53, 0
7, 52800, Note_on_c, 1, 50, 72
7, 52800, Note_on_c, 1, 57, 72
7, 53039, Note_on_c, 1, 50, 0
7, 53040, Note_on_c, 1, 52, 72
7, 53279, Note_on_c, 1, 57, 0
7, 53279, Note_on_c, 1, 52, 0
7, 53280, Note_on_c, 1, 56, 72
7, 53519, Note_on_c, 1, 56, 0
7, 53520, Note_on_c, 1, 57, 72
7, 53759, Note_on_c, 1, 57, 0
7, 53760, Note_on_c, 1, 59, 72
7, 53999, Note_on_c, 1, 59, 0
7, 54000, Note_on_c, 1, 60, 72
7, 54119, Note_on_c, 1, 60, 0
7, 54120, Note_on_c, 1, 57, 72
7, 54239, Note_on_c, 1, 57, 0
7, 54240, Note_on_c, 1, 54, 72
7, 54359, Note_on_c, 1, 54, 0
7, 54360, Note_on_c, 1, 50, 72
7, 54479, Note_on_c, 1, 50, 0
7, 54480, Note_on_c, 1, 55, 72
7, 54659, Note_on_c, 1, 55, 0
7, 54660, Note_on_c, 1, 57, 72
7, 54719, Note_on_c, 1, 57, 0
7, 54720, Note_on_c, 1, 58, 72
7, 54839, Note_on_c, 1, 58, 0
7, 54840, Note_on_c, 1, 55, 72
7, 54959, Note_on_c, 1, 55, 0
7, 54960, Note_on_c, 1, 50, 72
7, 54960, Note_on_c, 1, 50, 72
7, 55079, Note_on_c, 1, 50, 0
7, 55080, Note_on_c, 1, 62, 72
7, 55199, Note_on_c, 1, 50, 0
7, 55259, Note_on_c, 1, 62, 0
7, 55260, Note_on_c, 1, 63, 72
7, 55319, Note_on_c, 1, 63, 0
7, 55320, Note_on_c, 1, 62, 72
7, 55379, Note_on_c, 1, 62, 0
7, 55380, Note_on_c, 1, 60, 72
7, 55439, Note_on_c, 1, 60, 0
7, 55440, Note_on_c, 1, 58, 72
7, 55499, Note_on_c, 1, 58, 0
7, 55500, Note_on_c, 1, 62, 72
7, 55559, Note_on_c, 1, 62, 0
7, 55560, Note_on_c, 1, 60, 72
7, 55560, Note_on_c, 1, 55, 72
7, 55619, Note_on_c, 1, 60, 0
7, 55620, Note_on_c, 1, 58, 72
7, 55679, Note_on_c, 1, 58, 0
7, 55680, Note_on_c, 1, 57, 72
7, 55739, Note_on_c, 1, 57, 0
7, 55740, Note_on_c, 1, 60, 72
7, 55799, Note_on_c, 1, 55, 0
7, 55799, Note_on_c, 1, 60, 0
7, 55800, Note_on_c, 1, 58, 72
7, 55800, Note_on_c, 1, 54, 72
7, 55859, Note_on_c, 1, 58, 0
7, 55860, Note_on_c, 1, 57, 72
7, 55919, Note_on_c, 1, 54, 0
7, 55919, Note_on_c, 1, 57, 0
7, 55920, Note_on_c, 1, 55, 72
7, 55920, Note_on_c, 1, 55, 72
7, 56099, Note_on_c, 1, 55, 0
7, 56100, Note_on_c, 1, 57, 72
7, 56159, Note_on_c, 1, 55, 0
7, 56159, Note_on_c, 1, 57, 0
7, 56160, Note_on_c, 1, 58, 72
7, 56160, Note_on_c, 1, 43, 72
7, 56219, Note_on_c, 1, 58, 0
7, 56220, Note_on_c, 1, 57, 72
7, 56279, Note_on_c, 1, 43, 0
7, 56279, Note_on_c, 1, 57, 0
7, 56280, Note_on_c, 1, 55, 72
7, 56280, Note_on_c, 1, 55, 72
7, 56339, Note_on_c, 1, 55, 0
7, 56340, Note_on_c, 1, 58, 72
7, 56399, Note_on_c, 1, 55, 0
7, 56399, Note_on_c, 1, 58, 0
7, 56400, Note_on_c, 1, 57, 72
7, 56459, Note_on_c, 1, 57, 0
7, 56460, Note_on_c, 1, 55, 72
7, 56519, Note_on_c, 1, 55, 0
7, 56520, Note_on_c, 1, 53, 72
7, 56579, Note_on_c, 1, 53, 0
7, 56580, Note_on_c, 1, 55, 72
7, 56639, Note_on_c, 1, 55, 0
7, 56640, Note_on_c, 1, 57, 72
7, 56699, Note_on_c, 1, 57, 0
7, 56700, Note_on_c, 1, 55, 72
7, 56759, Note_on_c, 1, 55, 0
7, 56760, Note_on_c, 1, 57, 72
7, 56819, Note_on_c, 1, 57, 0
7, 56820, Note_on_c, 1, 53, 72
7, 56879, Note_on_c, 1, 53, 0
7, 56880, Note_on_c, 1, 60, 72
7, 57179, Note_on_c, 1, 60, 0
7, 57180, Note_on_c, 1, 62, 72
7, 57239, Note_on_c, 1, 62, 0
7, 57240, Note_on_c, 1, 60, 72
7, 57299, Note_on_c, 1, 60, 0
7, 57300, Note_on_c, 1, 58, 72
7, 57359, Note_on_c, 1, 58, 0
7, 57360, Note_on_c, 1, 57, 72
7, 57360, Note_on_c, 1, 60, 72
7, 57419, Note_on_c, 1, 57, 0
7, 57420, Note_on_c, 1, 60, 72
7, 57479, Note_on_c, 1, 60, 0
7, 57480, Note_on_c, 1, 58, 72
7, 57539, Note_on_c, 1, 58, 0
7, 57540, Note_on_c, 1, 57, 72
7, 57599, Note_on_c, 1, 60, 0
7, 57599, Note_on_c, 1, 57, 0
7, 57600, Note_on_c, 1, 55, 72
7, 57600, Note_on_c, 1, 64, 72
7, 57659, Note_on_c, 1, 55, 0
7, 57660, Note_on_c, 1, 58, 72
7, 57719, Note_on_c, 1, 58, 0
7, 57720, Note_on_c, 1, 57, 72
7, 57779, Note_on_c, 1, 57, 0
7, 57780, Note_on_c, 1, 55, 72
7, 57839, Note_on_c, 1, 64, 0
7, 57839, Note_on_c, 1, 55, 0
7, 57840, Note_on_c, 1, 65, 72
7, 57840, Note_on_c, 1, 52, 72
7, 57899, Note_on_c, 1, 52, 0
7, 57900, Note_on_c, 1, 55, 72
7, 57959, Note_on_c, 1, 55, 0
7, 57960, Note_on_c, 1, 57, 72
7, 58079, Note_on_c, 1, 65, 0
7, 58139, Note_on_c, 1, 57, 0
7, 58140, Note_on_c, 1, 58, 72
7, 58199, Note_on_c, 1, 58, 0
7, 58200, Note_on_c, 1, 57, 72
7, 58259, Note_on_c, 1, 57, 0
7, 58260, Note_on_c, 1, 55, 72
7, 58319, Note_on_c, 1, 55, 0
7, 58320, Note_on_c, 1, 57, 72
7, 58320, Note_on_c, 1, 53, 72
7, 58379, Note_on_c, 1, 53, 0
7, 58380, Note_on_c, 1, 57, 72
7, 58439, Note_on_c, 1, 57, 0
7, 58440, Note_on_c, 1, 55, 72
7, 58499, Note_on_c, 1, 55, 0
7, 58500, Note_on_c, 1, 53, 72
7, 58559, Note_on_c, 1, 57, 0
7, 58559, Note_on_c, 1, 53, 0
7, 58560, Note_on_c, 1, 61, 72
7, 58560, Note_on_c, 1, 52, 72
7, 58619, Note_on_c, 1, 52, 0
7, 58620, Note_on_c, 1, 55, 72
7, 58679, Note_on_c, 1, 55, 0
7, 58680, Note_on_c, 1, 53, 72
7, 58739, Note_on_c, 1, 53, 0
7, 58740, Note_on_c, 1, 52, 72
7, 58799, Note_on_c, 1, 61, 0
7, 58799, Note_on_c, 1, 52, 0
7, 58800, Note_on_c, 1, 62, 72
7, 58800, Note_on_c, 1, 50, 72
7, 58859, Note_on_c, 1, 50, 0
7, 58860, Note_on_c, 1, 51, 72
7, 58919, Note_on_c, 1, 51, 0
7, 58920, Note_on_c, 1, 53, 72
7, 59039, Note_on_c, 1, 62, 0
7, 59099, Note_on_c, 1, 53, 0
7, 59100, Note_on_c, 1, 55, 72
7, 59159, Note_on_c, 1, 55, 0
7, 59160, Note_on_c, 1, 53, 72
7, 59219, Note_on_c, 1, 53, 0
7, 59220, Note_on_c, 1, 51, 72
7, 59279, Note_on_c, 1, 51, 0
7, 59280, Note_on_c, 1, 53, 72
7, 59280, Note_on_c, 1, 50, 72
7, 59339, Note_on_c, 1, 50, 0
7, 59340, Note_on_c, 1, 53, 72
7, 59399, Note_on_c, 1, 53, 0
7, 59400, Note_on_c, 1, 52, 72
7, 59459, Note_on_c, 1, 52, 0
7, 59460, Note_on_c, 1, 50, 72
7, 59519, Note_on_c, 1, 53, 0
7, 59519, Note_on_c, 1, 50, 0
7, 59520, Note_on_c, 1, 57, 72
7, 59520, Note_on_c, 1, 48, 72
7, 59579, Note_on_c, 1, 48, 0
7, 59580, Note_on_c, 1, 52, 72
7, 59639, Note_on_c, 1, 52, 0
7, 59640, Note_on_c, 1, 50, 72
7, 59699, Note_on_c, 1, 50, 0
7, 59700, Note_on_c, 1, 48, 72
7, 59759, Note_on_c, 1, 57, 0
7, 59759, Note_on_c, 1, 48, 0
7, 59760, Note_on_c, 1, 58, 72
7, 59879, Note_on_c, 1, 58, 0
7, 59880, Note_on_c, 1, 65, 72
7, 59880, Note_on_c, 1, 58, 72
7, 59999, Note_on_c, 1, 65, 0
7, 59999, Note_on_c, 1, 58, 0
7, 60000, Note_on_c, 1, 65, 72
7, 60000, Note_on_c, 1, 58, 72
7, 60119, Note_on_c, 1, 65, 0
7, 60119, Note_on_c, 1, 58, 0
7, 60120, Note_on_c, 1, 65, 72
7, 60120, Note_on_c, 1, 58, 72
7, 60239, Note_on_c, 1, 65, 0
7, 60239, Note_on_c, 1, 58, 0
7, 60240, Note_on_c, 1, 65, 72
7, 60240, Note_on_c, 1, 58, 72
7, 60479, Note_on_c, 1, 65, 0
7, 60479, Note_on_c, 1, 58, 0
7, 60840, Note_on_c, 1, 65, 72
7, 60840, Note_on_c, 1, 62, 72
7, 60959, Note_on_c, 1, 65, 0
7, 60959, Note_on_c, 1, 62, 0
7, 60960, Note_on_c, 1, 65, 72
7, 60960, Note_on_c, 1, 62, 72
7, 61079, Note_on_c, 1, 65, 0
7, 61079, Note_on_c, 1, 62, 0
7, 61080, Note_on_c, 1, 65, 72
7, 61080, Note_on_c, 1, 62, 72
7, 61199, Note_on_c, 1, 65, 0
7, 61199, Note_on_c, 1, 62, 0
7, 61200, Note_on_c, 1, 65, 72
7, 61200, Note_on_c, 1, 62, 72
7, 61439, Note_on_c, 1, 65, 0
7, 61439, Note_on_c, 1, 62, 0
7, 61680, Note_on_c, 1, 62, 72
7, 61680, Note_on_c, 1, 56, 72
7, 62399, Note_on_c, 1, 62, 0
7, 62400, Note_on_c, 1, 64, 72
7, 62519, Note_on_c, 1, 64, 0
7, 62520, Note_on_c, 1, 65, 72
7, 62639, Note_on_c, 1, 56, 0
7, 62639, Note_on_c, 1, 65, 0
7, 62640, Note_on_c, 1, 65, 72
7, 62640, Note_on_c, 1, 57, 72
7, 62759, Note_on_c, 1, 65, 0
7, 62760, Note_on_c, 1, 64, 72
7, 62879, Note_on_c, 1, 57, 0
7, 62879, Note_on_c, 1, 64, 0
7, 65520, Note_on_c, 1, 57, 72
7, 65999, Note_on_c, 1, 57, 0
7, 66000, Note_on_c, 1, 53, 72
7, 66239, Note_on_c, 1, 53, 0
7, 66240, Note_on_c, 1, 58, 72
7, 66479, Note_on_c, 1, 58, 0
7, 66480, Note_on_c, 1, 49, 72
7, 66959, Note_on_c, 1, 49, 0
7, 66960, Note_on_c, 1, 50, 72
7, 67199, Note_on_c, 1, 50, 0
7, 67200, Note_on_c, 1, 50, 72
7, 67319, Note_on_c, 1, 50, 0
7, 67320, Note_on_c, 1, 50, 72
7, 67439, Note_on_c, 1, 50, 0
7, 67440, Note_on_c, 1, 52, 72
7, 67799, Note_on_c, 1, 52, 0
7, 67800, Note_on_c, 1, 50, 72
7, 67859, Note_on_c, 1, 50, 0
7, 67860, Note_on_c, 1, 52, 72
7, 67919, Note_on_c, 1, 52, 0
7, 67920, Note_on_c, 1, 53, 72
7, 68039, Note_on_c, 1, 53, 0
7, 68040, Note_on_c, 1, 52, 72
7, 68099, Note_on_c, 1, 52, 0
7, 68100, Note_on_c, 1, 53, 72
7, 68159, Note_on_c, 1, 53, 0
7, 68160, Note_on_c, 1, 55, 72
7, 68279, Note_on_c, 1, 55, 0
7, 68280, Note_on_c, 1, 53, 72
7, 68339, Note_on_c, 1, 53, 0
7, 68340, Note_on_c, 1, 55, 72
7, 68399, Note_on_c, 1, 55, 0
7, 68400, Note_on_c, 1, 57, 72
7, 68519, Note_on_c, 1, 57, 0
7, 68520, Note_on_c, 1, 55, 72
7, 68639, Note_on_c, 1, 55, 0
7, 68640, Note_on_c, 1, 53, 72
7, 68759, Note_on_c, 1, 53, 0
7, 68760, Note_on_c, 1, 52, 72
7, 68879, Note_on_c, 1, 52, 0
7, 68880, Note_on_c, 1, 50, 72
7, 68999, Note_on_c, 1, 50, 0
7, 69000, Note_on_c, 1, 48, 72
7, 69119, Note_on_c, 1, 48, 0
7, 69120, Note_on_c, 1, 47, 72
7, 69239, Note_on_c, 1, 47, 0
7, 69240, Note_on_c, 1, 52, 72
7, 69359, Note_on_c, 1, 52, 0
7, 69360, Note_on_c, 1, 45, 72
7, 69479, Note_on_c, 1, 45, 0
7, 69480, Note_on_c, 1, 53, 72
7, 69539, Note_on_c, 1, 53, 0
7, 69540, Note_on_c, 1, 52, 72
7, 69599, Note_on_c, 1, 52, 0
7, 69600, Note_on_c, 1, 50, 72
7, 69659, Note_on_c, 1, 50, 0
7, 69660, Note_on_c, 1, 47, 72
7, 69719, Note_on_c, 1, 47, 0
7, 69720, Note_on_c, 1, 48, 72
7, 69779, Note_on_c, 1, 48, 0
7, 69780, Note_on_c, 1, 50, 72
7, 69839, Note_on_c, 1, 50, 0
7, 69840, Note_on_c, 1, 52, 72
7, 69840, Note_on_c, 1, 52, 72
7, 69959, Note_on_c, 1, 52, 0
7, 69960, Note_on_c, 1, 59, 72
7, 70079, Note_on_c, 1, 52, 0
7, 70079, Note_on_c, 1, 59, 0
7, 70080, Note_on_c, 1, 59, 72
7, 70199, Note_on_c, 1, 59, 0
7, 70200, Note_on_c, 1, 59, 72
7, 70319, Note_on_c, 1, 59, 0
7, 70320, Note_on_c, 1, 60, 72
7, 70379, Note_on_c, 1, 60, 0
7, 70380, Note_on_c, 1, 62, 72
7, 70439, Note_on_c, 1, 62, 0
7, 70440, Note_on_c, 1, 60, 72
7, 70499, Note_on_c, 1, 60, 0
7, 70500, Note_on_c, 1, 59, 72
7, 70559, Note_on_c, 1, 59, 0
7, 70560, Note_on_c, 1, 60, 72
7, 70560, Note_on_c, 1, 57, 72
7, 70619, Note_on_c, 1, 60, 0
7, 70620, Note_on_c, 1, 62, 72
7, 70679, Note_on_c, 1, 62, 0
7, 70680, Note_on_c, 1, 59, 72
7, 70739, Note_on_c, 1, 59, 0
7, 70740, Note_on_c, 1, 60, 72
7, 70799, Note_on_c, 1, 60, 0
7, 70800, Note_on_c, 1, 62, 72
7, 70859, Note_on_c, 1, 62, 0
7, 70860, Note_on_c, 1, 64, 72
7, 70919, Note_on_c, 1, 64, 0
7, 70920, Note_on_c, 1, 62, 72
7, 70979, Note_on_c, 1, 62, 0
7, 70980, Note_on_c, 1, 60, 72
7, 71039, Note_on_c, 1, 57, 0
7, 71039, Note_on_c, 1, 60, 0
7, 71040, Note_on_c, 1, 62, 72
7, 71040, Note_on_c, 1, 55, 72
7, 71099, Note_on_c, 1, 62, 0
7, 71099, Note_on_c, 1, 55, 0
7, 71100, Note_on_c, 1, 64, 72
7, 71100, Note_on_c, 1, 53, 72
7, 71159, Note_on_c, 1, 64, 0
7, 71159, Note_on_c, 1, 53, 0
7, 71160, Note_on_c, 1, 60, 72
7, 71160, Note_on_c, 1, 52, 72
7, 71219, Note_on_c, 1, 60, 0
7, 71219, Note_on_c, 1, 52, 0
7, 71220, Note_on_c, 1, 62, 72
7, 71220, Note_on_c, 1, 50, 72
7, 71279, Note_on_c, 1, 62, 0
7, 71279, Note_on_c, 1, 50, 0
7, 71280, Note_on_c, 1, 64, 72
7, 71280, Note_on_c, 1, 48, 72
7, 71399, Note_on_c, 1, 64, 0
7, 71400, Note_on_c, 1, 65, 72
7, 71459, Note_on_c, 1, 65, 0
7, 71460, Note_on_c, 1, 64, 72
7, 71519, Note_on_c, 1, 48, 0
7, 71519, Note_on_c, 1, 64, 0
7, 71520, Note_on_c, 1, 62, 72
7, 71520, Note_on_c, 1, 47, 72
7, 71579, Note_on_c, 1, 62, 0
7, 71580, Note_on_c, 1, 60, 72
7, 71639, Note_on_c, 1, 47, 0
7, 71639, Note_on_c, 1, 60, 0
7, 71640, Note_on_c, 1, 59, 72
7, 71640, Note_on_c, 1, 53, 72
7, 71699, Note_on_c, 1, 59, 0
7, 71700, Note_on_c, 1, 57, 72
7, 71759, Note_on_c, 1, 53, 0
7, 71759, Note_on_c, 1, 57, 0
7, 71760, Note_on_c, 1, 56, 72
7, 71760, Note_on_c, 1, 52, 72
7, 71879, Note_on_c, 1, 56, 0
7, 71879, Note_on_c, 1, 52, 0
7, 71880, Note_on_c, 1, 59, 72
7, 71940, Note_on_c, 1, 54, 72
7, 71999, Note_on_c, 1, 59, 0
7, 71999, Note_on_c, 1, 54, 0
7, 72000, Note_on_c, 1, 64, 72
7, 72000, Note_on_c, 1, 56, 72
7, 72059, Note_on_c, 1, 56, 0
7, 72060, Note_on_c, 1, 57, 72
7, 72119, Note_on_c, 1, 64, 0
7, 72119, Note_on_c, 1, 57, 0
7, 72120, Note_on_c, 1, 62, 72
7, 72120, Note_on_c, 1, 54, 72
7, 72179, Note_on_c, 1, 54, 0
7, 72180, Note_on_c, 1, 56, 72
7, 72239, Note_on_c, 1, 62, 0
7, 72239, Note_on_c, 1, 56, 0
7, 72240, Note_on_c, 1, 60, 72
7, 72240, Note_on_c, 1, 57, 72
7, 72359, Note_on_c, 1, 60, 0
7, 72359, Note_on_c, 1, 57, 0
7, 72360, Note_on_c, 1, 61, 72
7, 72360, Note_on_c, 1, 45, 72
7, 72479, Note_on_c, 1, 61, 0
7, 72479, Note_on_c, 1, 45, 0
7, 72480, Note_on_c, 1, 62, 72
7, 72480, Note_on_c, 1, 47, 72
7, 72599, Note_on_c, 1, 62, 0
7, 72599, Note_on_c, 1, 47, 0
7, 72600, Note_on_c, 1, 64, 72
7, 72600, Note_on_c, 1, 49, 72
7, 72719, Note_on_c, 1, 64, 0
7, 72719, Note_on_c, 1, 49, 0
7, 72720, Note_on_c, 1, 57, 72
7, 72720, Note_on_c, 1, 50, 72
7, 72839, Note_on_c, 1, 57, 0
7, 72840, Note_on_c, 1, 50, 72
7, 72959, Note_on_c, 1, 50, 0
7, 72959, Note_on_c, 1, 50, 0
7, 72960, Note_on_c, 1, 55, 72
7, 73079, Note_on_c, 1, 55, 0
7, 73080, Note_on_c, 1, 53, 72
7, 73199, Note_on_c, 1, 53, 0
7, 73200, Note_on_c, 1, 52, 72
7, 73319, Note_on_c, 1, 52, 0
7, 73320, Note_on_c, 1, 55, 72
7, 73320, Note_on_c, 1, 52, 72
7, 73439, Note_on_c, 1, 55, 0
7, 73439, Note_on_c, 1, 52, 0
7, 73440, Note_on_c, 1, 52, 72
7, 73440, Note_on_c, 1, 58, 72
7, 73559, Note_on_c, 1, 52, 0
7, 73560, Note_on_c, 1, 52, 72
7, 73679, Note_on_c, 1, 58, 0
7, 73679, Note_on_c, 1, 52, 0
7, 73680, Note_on_c, 1, 57, 72
7, 73680, Note_on_c, 1, 53, 72
7, 73739, Note_on_c, 1, 53, 0
7, 73740, Note_on_c, 1, 55, 72
7, 73799, Note_on_c, 1, 55, 0
7, 73800, Note_on_c, 1, 53, 72
7, 73859, Note_on_c, 1, 53, 0
7, 73860, Note_on_c, 1, 52, 72
7, 73919, Note_on_c, 1, 57, 0
7, 73919, Note_on_c, 1, 52, 0
7, 73920, Note_on_c, 1, 53, 72
7, 73979, Note_on_c, 1, 53, 0
7, 73980, Note_on_c, 1, 55, 72
7, 74039, Note_on_c, 1, 55, 0
7, 74040, Note_on_c, 1, 52, 72
7, 74099, Note_on_c, 1, 52, 0
7, 74100, Note_on_c, 1, 53, 72
7, 74159, Note_on_c, 1, 53, 0
7, 74160, Note_on_c, 1, 55, 72
7, 74219, Note_on_c, 1, 55, 0
7, 74220, Note_on_c, 1, 57, 72
7, 74279, Note_on_c, 1, 57, 0
7, 74280, Note_on_c, 1, 55, 72
7, 74339, Note_on_c, 1, 55, 0
7, 74340, Note_on_c, 1, 53, 72
7, 74399, Note_on_c, 1, 53, 0
7, 74400, Note_on_c, 1, 55, 72
7, 74459, Note_on_c, 1, 55, 0
7, 74460, Note_on_c, 1, 57, 72
7, 74519, Note_on_c, 1, 57, 0
7, 74520, Note_on_c, 1, 53, 72
7, 74579, Note_on_c, 1, 53, 0
7, 74580, Note_on_c, 1, 55, 72
7, 74639, Note_on_c, 1, 55, 0
7, 74640, Note_on_c, 1, 57, 72
7, 74759, Note_on_c, 1, 57, 0
7, 74760, Note_on_c, 1, 58, 72
7, 74819, Note_on_c, 1, 58, 0
7, 74820, Note_on_c, 1, 57, 72
7, 74879, Note_on_c, 1, 57, 0
7, 74880, Note_on_c, 1, 55, 72
7, 74939, Note_on_c, 1, 55, 0
7, 74940, Note_on_c, 1, 53, 72
7, 74999, Note_on_c, 1, 53, 0
7, 75000, Note_on_c, 1, 52, 72
7, 75059, Note_on_c, 1, 52, 0
7, 75060, Note_on_c, 1, 50, 72
7, 75119, Note_on_c, 1, 50, 0
7, 75120, Note_on_c, 1, 49, 72
7, 75239, Note_on_c, 1, 49, 0
7, 75240, Note_on_c, 1, 52, 72
7, 75359, Note_on_c, 1, 52, 0
7, 75360, Note_on_c, 1, 57, 72
7, 75479, Note_on_c, 1, 57, 0
7, 75480, Note_on_c, 1, 55, 72
7, 75599, Note_on_c, 1, 55, 0
7, 75600, Note_on_c, 1, 62, 72
7, 75600, Note_on_c, 1, 53, 72
7, 75659, Note_on_c, 1, 53, 0
7, 75660, Note_on_c, 1, 52, 72
7, 75719, Note_on_c, 1, 52, 0
7, 75720, Note_on_c, 1, 50, 72
7, 75779, Note_on_c, 1, 50, 0
7, 75780, Note_on_c, 1, 48, 72
7, 75839, Note_on_c, 1, 48, 0
7, 75840, Note_on_c, 1, 47, 72
7, 76079, Note_on_c, 1, 62, 0
7, 76079, Note_on_c, 1, 47, 0
7, 76080, Note_on_c, 1, 60, 72
7, 76080, Note_on_c, 1, 48, 72
7, 76319, Note_on_c, 1, 60, 0
7, 76319, Note_on_c, 1, 48, 0
7, 76320, Note_on_c, 1, 65, 72
7, 76320, Note_on_c, 1, 50, 72
7, 76559, Note_on_c, 1, 65, 0
7, 76559, Note_on_c, 1, 50, 0
7, 76560, Note_on_c, 1, 52, 72
7, 76560, Note_on_c, 1, 56, 72
7, 76799, Note_on_c, 1, 52, 0
7, 76800, Note_on_c, 1, 52, 72
7, 76919, Note_on_c, 1, 52, 0
7, 76920, Note_on_c, 1, 52, 72
7, 77039, Note_on_c, 1, 56, 0
7, 77039, Note_on_c, 1, 52, 0
7, 77040, Note_on_c, 1, 57, 72
7, 77040, Note_on_c, 1, 57, 72
7, 77339, Note_on_c, 1, 57, 0
7, 77340, Note_on_c, 1, 55, 72
7, 77399, Note_on_c, 1, 57, 0
7, 77399, Note_on_c, 1, 55, 0
7, 77400, Note_on_c, 1, 57, 72
7, 77400, Note_on_c, 1, 53, 72
7, 77459, Note_on_c, 1, 53, 0
7, 77460, Note_on_c, 1, 52, 72
7, 77519, Note_on_c, 1, 57, 0
7, 77519, Note_on_c, 1, 52, 0
7, 77520, Note_on_c, 1, 53, 72
7, 77520, Note_on_c, 1, 59, 72
7, 77639, Note_on_c, 1, 53, 0
7, 77640, Note_on_c, 1, 50, 72
7, 77759, Note_on_c, 1, 50, 0
7, 77760, Note_on_c, 1, 55, 72
7, 77879, Note_on_c, 1, 59, 0
7, 77880, Note_on_c, 1, 57, 72
7, 77939, Note_on_c, 1, 57, 0
7, 77940, Note_on_c, 1, 59, 72
7, 77999, Note_on_c, 1, 55, 0
7, 77999, Note_on_c, 1, 59, 0
7, 78000, Note_on_c, 1, 60, 72
7, 78000, Note_on_c, 1, 48, 72
7, 78119, Note_on_c, 1, 60, 0
7, 78119, Note_on_c, 1, 48, 0
7, 78120, Note_on_c, 1, 59, 72
7, 78120, Note_on_c, 1, 45, 72
7, 78179, Note_on_c, 1, 59, 0
7, 78180, Note_on_c, 1, 60, 72
7, 78239, Note_on_c, 1, 45, 0
7, 78239, Note_on_c, 1, 60, 0
7, 78240, Note_on_c, 1, 62, 72
7, 78240, Note_on_c, 1, 53, 72
7, 78359, Note_on_c, 1, 62, 0
7, 78360, Note_on_c, 1, 60, 72
7, 78419, Note_on_c, 1, 60, 0
7, 78420, Note_on_c, 1, 62, 72
7, 78479, Note_on_c, 1, 53, 0
7, 78479, Note_on_c, 1, 62, 0
7, 78480, Note_on_c, 1, 64, 72
7, 78480, Note_on_c, 1, 52, 72
7, 78599, Note_on_c, 1, 64, 0
7, 78600, Note_on_c, 1, 62, 72
7, 78719, Note_on_c, 1, 52, 0
7, 78719, Note_on_c, 1, 62, 0
7, 78720, Note_on_c, 1, 60, 72
7, 78839, Note_on_c, 1, 60, 0
7, 78840, Note_on_c, 1, 59, 72
7, 78959, Note_on_c, 1, 59, 0
7, 78960, Note_on_c, 1, 57, 72
7, 79019, Note_on_c, 1, 57, 0
7, 79020, Note_on_c, 1, 59, 72
7, 79079, Note_on_c, 1, 59, 0
7, 79080, Note_on_c, 1, 57, 72
7, 79080, Note_on_c, 1, 60, 72
7, 79139, Note_on_c, 1, 57, 0
7, 79140, Note_on_c, 1, 55, 72
7, 79199, Note_on_c, 1, 55, 0
7, 79200, Note_on_c, 1, 53, 72
7, 79319, Note_on_c, 1, 60, 0
7, 79319, Note_on_c, 1, 53, 0
7, 79320, Note_on_c, 1, 51, 72
7, 79320, Note_on_c, 1, 61, 72
7, 79439, Note_on_c, 1, 51, 0
7, 79439, Note_on_c, 1, 61, 0
7, 79440, Note_on_c, 1, 62, 72
7, 79440, Note_on_c, 1, 50, 72
7, 79559, Note_on_c, 1, 62, 0
7, 79560, Note_on_c, 1, 50, 72
7, 79679, Note_on_c, 1, 50, 0
7, 79679, Note_on_c, 1, 50, 0
7, 79680, Note_on_c, 1, 52, 72
7, 79799, Note_on_c, 1, 52, 0
7, 79800, Note_on_c, 1, 54, 72
7, 79919, Note_on_c, 1, 54, 0
7, 79920, Note_on_c, 1, 55, 72
7, 79979, Note_on_c, 1, 55, 0
7, 79980, Note_on_c, 1, 57, 72
7, 80039, Note_on_c, 1, 57, 0
7, 80040, Note_on_c, 1, 55, 72
7, 80040, Note_on_c, 1, 58, 72
7, 80099, Note_on_c, 1, 55, 0
7, 80100, Note_on_c, 1, 53, 72
7, 80159, Note_on_c, 1, 53, 0
7, 80160, Note_on_c, 1, 52, 72
7, 80279, Note_on_c, 1, 58, 0
7, 80279, Note_on_c, 1, 52, 0
7, 80280, Note_on_c, 1, 50, 72
7, 80280, Note_on_c, 1, 59, 72
7, 80399, Note_on_c, 1, 50, 0
7, 80399, Note_on_c, 1, 59, 0
7, 80400, Note_on_c, 1, 60, 72
7, 80400, Note_on_c, 1, 48, 72
7, 80519, Note_on_c, 1, 60, 0
7, 80520, Note_on_c, 1, 58, 72
7, 80639, Note_on_c, 1, 48, 0
7, 80639, Note_on_c, 1, 58, 0
7, 80640, Note_on_c, 1, 57, 72
7, 80640, Note_on_c, 1, 50, 72
7, 80759, Note_on_c, 1, 57, 0
7, 80759, Note_on_c, 1, 50, 0
7, 80760, Note_on_c, 1, 55, 72
7, 80760, Note_on_c, 1, 52, 72
7, 80879, Note_on_c, 1, 55, 0
7, 80879, Note_on_c, 1, 52, 0
7, 80880, Note_on_c, 1, 57, 72
7, 80880, Note_on_c, 1, 53, 72
7, 80939, Note_on_c, 1, 57, 0
7, 80940, Note_on_c, 1, 53, 72
7, 80999, Note_on_c, 1, 53, 0
7, 81000, Note_on_c, 1, 55, 72
7, 81059, Note_on_c, 1, 55, 0
7, 81060, Note_on_c, 1, 57, 72
7, 81119, Note_on_c, 1, 53, 0
7, 81119, Note_on_c, 1, 57, 0
7, 81120, Note_on_c, 1, 58, 72
7, 81179, Note_on_c, 1, 58, 0
7, 81180, Note_on_c, 1, 55, 72
7, 81239, Note_on_c, 1, 55, 0
7, 81240, Note_on_c, 1, 57, 72
7, 81299, Note_on_c, 1, 57, 0
7, 81300, Note_on_c, 1, 58, 72
7, 81359, Note_on_c, 1, 58, 0
7, 81360, Note_on_c, 1, 60, 72
7, 81479, Note_on_c, 1, 60, 0
7, 81480, Note_on_c, 1, 55, 72
7, 81480, Note_on_c, 1, 48, 72
7, 81599, Note_on_c, 1, 55, 0
7, 81599, Note_on_c, 1, 48, 0
7, 81600, Note_on_c, 1, 48, 72
7, 81600, Note_on_c, 1, 60, 72
7, 81719, Note_on_c, 1, 48, 0
7, 81720, Note_on_c, 1, 48, 72
7, 81839, Note_on_c, 1, 48, 0
7, 81840, Note_on_c, 1, 50, 72
7, 81899, Note_on_c, 1, 50, 0
7, 81900, Note_on_c, 1, 52, 72
7, 81959, Note_on_c, 1, 60, 0
7, 81959, Note_on_c, 1, 52, 0
7, 81960, Note_on_c, 1, 58, 72
7, 81960, Note_on_c, 1, 50, 72
7, 82019, Note_on_c, 1, 58, 0
7, 82019, Note_on_c, 1, 50, 0
7, 82020, Note_on_c, 1, 57, 72
7, 82020, Note_on_c, 1, 48, 72
7, 82079, Note_on_c, 1, 57, 0
7, 82079, Note_on_c, 1, 48, 0
7, 82080, Note_on_c, 1, 58, 72
7, 82080, Note_on_c, 1, 50, 72
7, 82139, Note_on_c, 1, 58, 0
7, 82139, Note_on_c, 1, 50, 0
7, 82140, Note_on_c, 1, 60, 72
7, 82140, Note_on_c, 1, 52, 72
7, 82199, Note_on_c, 1, 60, 0
7, 82199, Note_on_c, 1, 52, 0
7, 82200, Note_on_c, 1, 57, 72
7, 82200, Note_on_c, 1, 48, 72
7, 82259, Note_on_c, 1, 57, 0
7, 82259, Note_on_c, 1, 48, 0
7, 82260, Note_on_c, 1, 58, 72
7, 82260, Note_on_c, 1, 50, 72
7, 82319, Note_on_c, 1, 58, 0
7, 82319, Note_on_c, 1, 50, 0
7, 82320, Note_on_c, 1, 52, 72
7, 82320, Note_on_c, 1, 55, 72
7, 82379, Note_on_c, 1, 52, 0
7, 82380, Note_on_c, 1, 53, 72
7, 82439, Note_on_c, 1, 55, 0
7, 82439, Note_on_c, 1, 53, 0
7, 82440, Note_on_c, 1, 52, 72
7, 82440, Note_on_c, 1, 57, 72
7, 82499, Note_on_c, 1, 52, 0
7, 82499, Note_on_c, 1, 57, 0
7, 82500, Note_on_c, 1, 50, 72
7, 82500, Note_on_c, 1, 58, 72
7, 82559, Note_on_c, 1, 50, 0
7, 82559, Note_on_c, 1, 58, 0
7, 82560, Note_on_c, 1, 52, 72
7, 82560, Note_on_c, 1, 60, 72
7, 82619, Note_on_c, 1, 52, 0
7, 82620, Note_on_c, 1, 53, 72
7, 82679, Note_on_c, 1, 53, 0
7, 82680, Note_on_c, 1, 50, 72
7, 82739, Note_on_c, 1, 50, 0
7, 82740, Note_on_c, 1, 52, 72
7, 82799, Note_on_c, 1, 60, 0
7, 82799, Note_on_c, 1, 52, 0
7, 82800, Note_on_c, 1, 53, 72
7, 82919, Note_on_c, 1, 53, 0
7, 82920, Note_on_c, 1, 55, 72
7, 82979, Note_on_c, 1, 55, 0
7, 82980, Note_on_c, 1, 53, 72
7, 83039, Note_on_c, 1, 53, 0
7, 83040, Note_on_c, 1, 52, 72
7, 83099, Note_on_c, 1, 52, 0
7, 83100, Note_on_c, 1, 50, 72
7, 83159, Note_on_c, 1, 50, 0
7, 83160, Note_on_c, 1, 48, 72
7, 83219, Note_on_c, 1, 48, 0
7, 83220, Note_on_c, 1, 46, 72
7, 83279, Note_on_c, 1, 46, 0
7, 83280, Note_on_c, 1, 45, 72
7, 83399, Note_on_c, 1, 45, 0
7, 83400, Note_on_c, 1, 48, 72
7, 83519, Note_on_c, 1, 48, 0
7, 83520, Note_on_c, 1, 53, 72
7, 83639, Note_on_c, 1, 53, 0
7, 83640, Note_on_c, 1, 51, 72
7, 83759, Note_on_c, 1, 51, 0
7, 83760, Note_on_c, 1, 62, 72
7, 83760, Note_on_c, 1, 50, 72
7, 83879, Note_on_c, 1, 50, 0
7, 83880, Note_on_c, 1, 60, 72
7, 84119, Note_on_c, 1, 60, 0
7, 84120, Note_on_c, 1, 58, 72
7, 84179, Note_on_c, 1, 58, 0
7, 84180, Note_on_c, 1, 57, 72
7, 84239, Note_on_c, 1, 62, 0
7, 84239, Note_on_c, 1, 57, 0
7, 84240, Note_on_c, 1, 58, 72
7, 84240, Note_on_c, 1, 55, 72
7, 84299, Note_on_c, 1, 55, 0
7, 84300, Note_on_c, 1, 53, 72
7, 84359, Note_on_c, 1, 53, 0
7, 84360, Note_on_c, 1, 51, 72
7, 84419, Note_on_c, 1, 51, 0
7, 84420, Note_on_c, 1, 50, 72
7, 84479, Note_on_c, 1, 58, 0
7, 84479, Note_on_c, 1, 50, 0
7, 84480, Note_on_c, 1, 48, 72
7, 84480, Note_on_c, 1, 63, 72
7, 84539, Note_on_c, 1, 48, 0
7, 84540, Note_on_c, 1, 50, 72
7, 84599, Note_on_c, 1, 50, 0
7, 84600, Note_on_c, 1, 46, 72
7, 84659, Note_on_c, 1, 46, 0
7, 84660, Note_on_c, 1, 48, 72
7, 84719, Note_on_c, 1, 63, 0
7, 84719, Note_on_c, 1, 48, 0
7, 84720, Note_on_c, 1, 54, 72
7, 84720, Note_on_c, 1, 50, 72
7, 85199, Note_on_c, 1, 54, 0
7, 85199, Note_on_c, 1, 50, 0
7, 85200, Note_on_c, 1, 55, 72
7, 85200, Note_on_c, 1, 43, 72
7, 85439, Note_on_c, 1, 55, 0
7, 85439, Note_on_c, 1, 43, 0
7, 85440, Note_on_c, 1, 55, 72
7, 85559, Note_on_c, 1, 55, 0
7, 85560, Note_on_c, 1, 55, 72
7, 85679, Note_on_c, 1, 55, 0
7, 85680, Note_on_c, 1, 57, 72
7, 86039, Note_on_c, 1, 57, 0
7, 86040, Note_on_c, 1, 55, 72
7, 86099, Note_on_c, 1, 55, 0
7, 86100, Note_on_c, 1, 57, 72
7, 86159, Note_on_c, 1, 57, 0
7, 86160, Note_on_c, 1, 58, 72
7, 86279, Note_on_c, 1, 58, 0
7, 86280, Note_on_c, 1, 57, 72
7, 86339, Note_on_c, 1, 57, 0
7, 86340, Note_on_c, 1, 58, 72
7, 86399, Note_on_c, 1, 58, 0
7, 86400, Note_on_c, 1, 60, 72
7, 86519, Note_on_c, 1, 60, 0
7, 86520, Note_on_c, 1, 58, 72
7, 86579, Note_on_c, 1, 58, 0
7, 86580, Note_on_c, 1, 60, 72
7, 86639, Note_on_c, 1, 60, 0
7, 86640, Note_on_c, 1, 62, 72
7, 86759, Note_on_c, 1, 62, 0
7, 86760, Note_on_c, 1, 60, 72
7, 86879, Note_on_c, 1, 60, 0
7, 86880, Note_on_c, 1, 58, 72
7, 86999, Note_on_c, 1, 58, 0
7, 87000, Note_on_c, 1, 57, 72
7, 87119, Note_on_c, 1, 57, 0
7, 87120, Note_on_c, 1, 55, 72
7, 87120, Note_on_c, 1, 55, 72
7, 87239, Note_on_c, 1, 55, 0
7, 87240, Note_on_c, 1, 65, 72
7, 87359, Note_on_c, 1, 65, 0
7, 87360, Note_on_c, 1, 63, 72
7, 87479, Note_on_c, 1, 63, 0
7, 87480, Note_on_c, 1, 59, 72
7, 87599, Note_on_c, 1, 55, 0
7, 87599, Note_on_c, 1, 59, 0
7, 87600, Note_on_c, 1, 60, 72
7, 87600, Note_on_c, 1, 51, 72
7, 87719, Note_on_c, 1, 60, 0
7, 87720, Note_on_c, 1, 67, 72
7, 87839, Note_on_c, 1, 51, 0
7, 87839, Note_on_c, 1, 67, 0
7, 87840, Note_on_c, 1, 65, 72
7, 87840, Note_on_c, 1, 56, 72
7, 87899, Note_on_c, 1, 65, 0
7, 87900, Note_on_c, 1, 63, 72
7, 87959, Note_on_c, 1, 63, 0
7, 87960, Note_on_c, 1, 62, 72
7, 88019, Note_on_c, 1, 62, 0
7, 88020, Note_on_c, 1, 60, 72
7, 88079, Note_on_c, 1, 56, 0
7, 88079, Note_on_c, 1, 60, 0
7, 88080, Note_on_c, 1, 62, 72
7, 88080, Note_on_c, 1, 47, 72
7, 88139, Note_on_c, 1, 62, 0
7, 88140, Note_on_c, 1, 60, 72
7, 88199, Note_on_c, 1, 60, 0
7, 88200, Note_on_c, 1, 59, 72
7, 88259, Note_on_c, 1, 59, 0
7, 88260, Note_on_c, 1, 57, 72
7, 88319, Note_on_c, 1, 57, 0
7, 88320, Note_on_c, 1, 55, 72
7, 88379, Note_on_c, 1, 55, 0
7, 88380, Note_on_c, 1, 56, 72
7, 88439, Note_on_c, 1, 56, 0
7, 88440, Note_on_c, 1, 53, 72
7, 88499, Note_on_c, 1, 53, 0
7, 88500, Note_on_c, 1, 55, 72
7, 88559, Note_on_c, 1, 47, 0
7, 88559, Note_on_c, 1, 55, 0
7, 88560, Note_on_c, 1, 51, 72
7, 88560, Note_on_c, 1, 48, 72
7, 88679, Note_on_c, 1, 51, 0
7, 88680, Note_on_c, 1, 48, 72
7, 88799, Note_on_c, 1, 48, 0
7, 88799, Note_on_c, 1, 48, 0
7, 88800, Note_on_c, 1, 56, 72
7, 88920, Note_on_c, 1, 48, 72
7, 89039, Note_on_c, 1, 48, 0
7, 89040, Note_on_c, 1, 50, 72
7, 89159, Note_on_c, 1, 56, 0
7, 89160, Note_on_c, 1, 53, 72
7, 89279, Note_on_c, 1, 53, 0
7, 89280, Note_on_c, 1, 58, 72
7, 89399, Note_on_c, 1, 50, 0
7, 89400, Note_on_c, 1, 48, 72
7, 89459, Note_on_c, 1, 48, 0
7, 89460, Note_on_c, 1, 50, 72
7, 89519, Note_on_c, 1, 50, 0
7, 89520, Note_on_c, 1, 51, 72
7, 89639, Note_on_c, 1, 51, 0
7, 89640, Note_on_c, 1, 50, 72
7, 89699, Note_on_c, 1, 50, 0
7, 89700, Note_on_c, 1, 51, 72
7, 89759, Note_on_c, 1, 58, 0
7, 89759, Note_on_c, 1, 51, 0
7, 89760, Note_on_c, 1, 53, 72
7, 89760, Note_on_c, 1, 56, 72
7, 89879, Note_on_c, 1, 53, 0
7, 89880, Note_on_c, 1, 51, 72
7, 89939, Note_on_c, 1, 51, 0
7, 89940, Note_on_c, 1, 53, 72
7, 89999, Note_on_c, 1, 56, 0
7, 89999, Note_on_c, 1, 53, 0
7, 90000, Note_on_c, 1, 55, 72
7, 90119, Note_on_c, 1, 55, 0
7, 90120, Note_on_c, 1, 53, 72
7, 90120, Note_on_c, 1, 57, 72
7, 90179, Note_on_c, 1, 57, 0
7, 90180, Note_on_c, 1, 59, 72
7, 90239, Note_on_c, 1, 53, 0
7, 90239, Note_on_c, 1, 59, 0
7, 90240, Note_on_c, 1, 51, 72
7, 90240, Note_on_c, 1, 60, 72
7, 90359, Note_on_c, 1, 51, 0
7, 90359, Note_on_c, 1, 60, 0
7, 90360, Note_on_c, 1, 50, 72
7, 90360, Note_on_c, 1, 62, 72
7, 90479, Note_on_c, 1, 50, 0
7, 90479, Note_on_c, 1, 62, 0
7, 90480, Note_on_c, 1, 63, 72
7, 90480, Note_on_c, 1, 48, 72
7, 90539, Note_on_c, 1, 63, 0
7, 90540, Note_on_c, 1, 62, 72
7, 90599, Note_on_c, 1, 48, 0
7, 90599, Note_on_c, 1, 62, 0
7, 90600, Note_on_c, 1, 60, 72
7, 90600, Note_on_c, 1, 50, 72
7, 90659, Note_on_c, 1, 60, 0
7, 90659, Note_on_c, 1, 50, 0
7, 90660, Note_on_c, 1, 58, 72
7, 90660, Note_on_c, 1, 51, 72
7, 90719, Note_on_c, 1, 58, 0
7, 90719, Note_on_c, 1, 51, 0
7, 90720, Note_on_c, 1, 57, 72
7, 90720, Note_on_c, 1, 53, 72
7, 90839, Note_on_c, 1, 57, 0
7, 90840, Note_on_c, 1, 58, 72
7, 91079, Note_on_c, 1, 53, 0
7, 91079, Note_on_c, 1, 58, 0
7, 91080, Note_on_c, 1, 57, 72
7, 91080, Note_on_c, 1, 51, 72
7, 91199, Note_on_c, 1, 57, 0
7, 91199, Note_on_c, 1, 51, 0
7, 91200, Note_on_c, 1, 58, 72
7, 91200, Note_on_c, 1, 50, 72
7, 91319, Note_on_c, 1, 58, 0
7, 91319, Note_on_c, 1, 50, 0
7, 91320, Note_on_c, 1, 60, 72
7, 91320, Note_on_c, 1, 48, 72
7, 91439, Note_on_c, 1, 60, 0
7, 91439, Note_on_c, 1, 48, 0
7, 91440, Note_on_c, 1, 62, 72
7, 91440, Note_on_c, 1, 46, 72
7, 91559, Note_on_c, 1, 46, 0
7, 91560, Note_on_c, 1, 55, 72
7, 91619, Note_on_c, 1, 55, 0
7, 91620, Note_on_c, 1, 53, 72
7, 91679, Note_on_c, 1, 62, 0
7, 91679, Note_on_c, 1, 53, 0
7, 91680, Note_on_c, 1, 51, 72
7, 91739, Note_on_c, 1, 51, 0
7, 91740, Note_on_c, 1, 48, 72
7, 91799, Note_on_c, 1, 48, 0
7, 91800, Note_on_c, 1, 50, 72
7, 91859, Note_on_c, 1, 50, 0
7, 91860, Note_on_c, 1, 51, 72
7, 91919, Note_on_c, 1, 51, 0
7, 91920, Note_on_c, 1, 53, 72
7, 92040, Note_on_c, 1, 53, 72
7, 92159, Note_on_c, 1, 53, 0
7, 92159, Note_on_c, 1, 53, 0
7, 92160, Note_on_c, 1, 53, 72
7, 92279, Note_on_c, 1, 53, 0
7, 92280, Note_on_c, 1, 53, 72
7, 92399, Note_on_c, 1, 53, 0
7, 92400, Note_on_c, 1, 55, 72
7, 92459, Note_on_c, 1, 55, 0
7, 92460, Note_on_c, 1, 57, 72
7, 92519, Note_on_c, 1, 57, 0
7, 92520, Note_on_c, 1, 55, 72
7, 92579, Note_on_c, 1, 55, 0
7, 92580, Note_on_c, 1, 53, 72
7, 92639, Note_on_c, 1, 53, 0
7, 92640, Note_on_c, 1, 55, 72
7, 92699, Note_on_c, 1, 55, 0
7, 92700, Note_on_c, 1, 57, 72
7, 92759, Note_on_c, 1, 57, 0
7, 92760, Note_on_c, 1, 53, 72
7, 92819, Note_on_c, 1, 53, 0
7, 92820, Note_on_c, 1, 55, 72
7, 92879, Note_on_c, 1, 55, 0
7, 92880, Note_on_c, 1, 57, 72
7, 92880, Note_on_c, 1, 53, 72
7, 92939, Note_on_c, 1, 57, 0
7, 92940, Note_on_c, 1, 58, 72
7, 92999, Note_on_c, 1, 58, 0
7, 93000, Note_on_c, 1, 57, 72
7, 93059, Note_on_c, 1, 57, 0
7, 93060, Note_on_c, 1, 55, 72
7, 93119, Note_on_c, 1, 55, 0
7, 93120, Note_on_c, 1, 57, 72
7, 93179, Note_on_c, 1, 57, 0
7, 93180, Note_on_c, 1, 58, 72
7, 93239, Note_on_c, 1, 58, 0
7, 93240, Note_on_c, 1, 55, 72
7, 93299, Note_on_c, 1, 55, 0
7, 93300, Note_on_c, 1, 57, 72
7, 93359, Note_on_c, 1, 53, 0
7, 93359, Note_on_c, 1, 57, 0
7, 93360, Note_on_c, 1, 58, 72
7, 93360, Note_on_c, 1, 50, 72
7, 93599, Note_on_c, 1, 58, 0
7, 93599, Note_on_c, 1, 50, 0
7, 93600, Note_on_c, 1, 55, 72
7, 93839, Note_on_c, 1, 55, 0
7, 93840, Note_on_c, 1, 45, 72
7, 93960, Note_on_c, 1, 60, 72
7, 94079, Note_on_c, 1, 60, 0
7, 94080, Note_on_c, 1, 60, 72
7, 94199, Note_on_c, 1, 60, 0
7, 94200, Note_on_c, 1, 60, 72
7, 94319, Note_on_c, 1, 45, 0
7, 94319, Note_on_c, 1, 60, 0
7, 94320, Note_on_c, 1, 46, 72
7, 94320, Note_on_c, 1, 62, 72
7, 94379, Note_on_c, 1, 62, 0
7, 94380, Note_on_c, 1, 63, 72
7, 94439, Note_on_c, 1, 63, 0
7, 94440, Note_on_c, 1, 62, 72
7, 94499, Note_on_c, 1, 62, 0
7, 94500, Note_on_c, 1, 60, 72
7, 94559, Note_on_c, 1, 46, 0
7, 94559, Note_on_c, 1, 60, 0
7, 94560, Note_on_c, 1, 46, 72
7, 94560, Note_on_c, 1, 62, 72
7, 94619, Note_on_c, 1, 62, 0
7, 94620, Note_on_c, 1, 63, 72
7, 94679, Note_on_c, 1, 46, 0
7, 94679, Note_on_c, 1, 63, 0
7, 94680, Note_on_c, 1, 46, 72
7, 94680, Note_on_c, 1, 60, 72
7, 94739, Note_on_c, 1, 60, 0
7, 94740, Note_on_c, 1, 62, 72
7, 94799, Note_on_c, 1, 46, 0
7, 94799, Note_on_c, 1, 62, 0
7, 94800, Note_on_c, 1, 48, 72
7, 94800, Note_on_c, 1, 63, 72
7, 94859, Note_on_c, 1, 63, 0
7, 94860, Note_on_c, 1, 65, 72
7, 94919, Note_on_c, 1, 65, 0
7, 94920, Note_on_c, 1, 63, 72
7, 94979, Note_on_c, 1, 63, 0
7, 94980, Note_on_c, 1, 62, 72
7, 95039, Note_on_c, 1, 62, 0
7, 95040, Note_on_c, 1, 63, 72
7, 95099, Note_on_c, 1, 63, 0
7, 95100, Note_on_c, 1, 65, 72
7, 95159, Note_on_c, 1, 48, 0
7, 95159, Note_on_c, 1, 65, 0
7, 95160, Note_on_c, 1, 46, 72
7, 95160, Note_on_c, 1, 62, 72
7, 95219, Note_on_c, 1, 46, 0
7, 95219, Note_on_c, 1, 62, 0
7, 95220, Note_on_c, 1, 48, 72
7, 95220, Note_on_c, 1, 63, 72
7, 95279, Note_on_c, 1, 48, 0
7, 95279, Note_on_c, 1, 63, 0
7, 95280, Note_on_c, 1, 65, 72
7, 95280, Note_on_c, 1, 50, 72
7, 95399, Note_on_c, 1, 65, 0
7, 95399, Note_on_c, 1, 50, 0
7, 95400, Note_on_c, 1, 62, 72
7, 95400, Note_on_c, 1, 58, 72
7, 95459, Note_on_c, 1, 58, 0
7, 95460, Note_on_c, 1, 57, 72
7, 95519, Note_on_c, 1, 62, 0
7, 95519, Note_on_c, 1, 57, 0
7, 95520, Note_on_c, 1, 64, 72
7, 95520, Note_on_c, 1, 55, 72
7, 95639, Note_on_c, 1, 64, 0
7, 95639, Note_on_c, 1, 55, 0
7, 95640, Note_on_c, 1, 65, 72
7, 95640, Note_on_c, 1, 53, 72
7, 95759, Note_on_c, 1, 65, 0
7, 95759, Note_on_c, 1, 53, 0
7, 95760, Note_on_c, 1, 67, 72
7, 95760, Note_on_c, 1, 52, 72
7, 95879, Note_on_c, 1, 52, 0
7, 95880, Note_on_c, 1, 55, 72
7, 95999, Note_on_c, 1, 67, 0
7, 95999, Note_on_c, 1, 55, 0
7, 96000, Note_on_c, 1, 65, 72
7, 96000, Note_on_c, 1, 48, 72
7, 96119, Note_on_c, 1, 65, 0
7, 96120, Note_on_c, 1, 64, 72
7, 96239, Note_on_c, 1, 48, 0
7, 96239, Note_on_c, 1, 64, 0
7, 96240, Note_on_c, 1, 65, 72
7, 96359, Note_on_c, 1, 65, 0
7, 96360, Note_on_c, 1, 53, 72
7, 96479, Note_on_c, 1, 53, 0
7, 96480, Note_on_c, 1, 58, 72
7, 96599, Note_on_c, 1, 58, 0
7, 96600, Note_on_c, 1, 55, 72
7, 96719, Note_on_c, 1, 55, 0
7, 96720, Note_on_c, 1, 60, 72
7, 96840, Note_on_c, 1, 48, 72
7, 96959, Note_on_c, 1, 60, 0
7, 96959, Note_on_c, 1, 48, 0
7, 96960, Note_on_c, 1, 48, 72
7, 97079, Note_on_c, 1, 48, 0
7, 97080, Note_on_c, 1, 48, 72
7, 97199, Note_on_c, 1, 48, 0
7, 97200, Note_on_c, 1, 49, 72
7, 97259, Note_on_c, 1, 49, 0
7, 97260, Note_on_c, 1, 51, 72
7, 97319, Note_on_c, 1, 51, 0
7, 97320, Note_on_c, 1, 49, 72
7, 97379, Note_on_c, 1, 49, 0
7, 97380, Note_on_c, 1, 48, 72
7, 97439, Note_on_c, 1, 48, 0
7, 97440, Note_on_c, 1, 50, 72
7, 97499, Note_on_c, 1, 50, 0
7, 97500, Note_on_c, 1, 51, 72
7, 97559, Note_on_c, 1, 51, 0
7, 97560, Note_on_c, 1, 48, 72
7, 97619, Note_on_c, 1, 48, 0
7, 97620, Note_on_c, 1, 50, 72
7, 97679, Note_on_c, 1, 50, 0
7, 97680, Note_on_c, 1, 51, 72
7, 97739, Note_on_c, 1, 51, 0
7, 97740, Note_on_c, 1, 53, 72
7, 97799, Note_on_c, 1, 53, 0
7, 97800, Note_on_c, 1, 51, 72
7, 97800, Note_on_c, 1, 55, 72
7, 97859, Note_on_c, 1, 51, 0
7, 97860, Note_on_c, 1, 50, 72
7, 97919, Note_on_c, 1, 55, 0
7, 97919, Note_on_c, 1, 50, 0
7, 97920, Note_on_c, 1, 52, 72
7, 97920, Note_on_c, 1, 55, 72
7, 97979, Note_on_c, 1, 52, 0
7, 97980, Note_on_c, 1, 53, 72
7, 98039, Note_on_c, 1, 55, 0
7, 98039, Note_on_c, 1, 53, 0
7, 98040, Note_on_c, 1, 50, 72
7, 98040, Note_on_c, 1, 55, 72
7, 98099, Note_on_c, 1, 50, 0
7, 98100, Note_on_c, 1, 52, 72
7, 98159, Note_on_c, 1, 55, 0
7, 98159, Note_on_c, 1, 52, 0
7, 98160, Note_on_c, 1, 53, 72
7, 98160, Note_on_c, 1, 56, 72
7, 98219, Note_on_c, 1, 56, 0
7, 98220, Note_on_c, 1, 58, 72
7, 98279, Note_on_c, 1, 53, 0
7, 98279, Note_on_c, 1, 58, 0
7, 98280, Note_on_c, 1, 48, 72
7, 98280, Note_on_c, 1, 56, 72
7, 98339, Note_on_c, 1, 56, 0
7, 98340, Note_on_c, 1, 55, 72
7, 98399, Note_on_c, 1, 48, 0
7, 98399, Note_on_c, 1, 55, 0
7, 98400, Note_on_c, 1, 53, 72
7, 98400, Note_on_c, 1, 57, 72
7, 98459, Note_on_c, 1, 57, 0
7, 98460, Note_on_c, 1, 58, 72
7, 98519, Note_on_c, 1, 53, 0
7, 98519, Note_on_c, 1, 58, 0
7, 98520, Note_on_c, 1, 51, 72
7, 98520, Note_on_c, 1, 55, 72
7, 98579, Note_on_c, 1, 55, 0
7, 98580, Note_on_c, 1, 57, 72
7, 98639, Note_on_c, 1, 51, 0
7, 98639, Note_on_c, 1, 57, 0
7, 98640, Note_on_c, 1, 50, 72
7, 98640, Note_on_c, 1, 58, 72
7, 98699, Note_on_c, 1, 58, 0
7, 98700, Note_on_c, 1, 60, 72
7, 98759, Note_on_c, 1, 50, 0
7, 98759, Note_on_c, 1, 60, 0
7, 98760, Note_on_c, 1, 43, 72
7, 98760, Note_on_c, 1, 58, 72
7, 98819, Note_on_c, 1, 58, 0
7, 98820, Note_on_c, 1, 57, 72
7, 98879, Note_on_c, 1, 43, 0
7, 98879, Note_on_c, 1, 57, 0
7, 98880, Note_on_c, 1, 55, 72
7, 98880, Note_on_c, 1, 59, 72
7, 98939, Note_on_c, 1, 59, 0
7, 98940, Note_on_c, 1, 60, 72
7, 98999, Note_on_c, 1, 55, 0
7, 98999, Note_on_c, 1, 60, 0
7, 99000, Note_on_c, 1, 53, 72
7, 99000, Note_on_c, 1, 57, 72
7, 99059, Note_on_c, 1, 57, 0
7, 99060, Note_on_c, 1, 59, 72
7, 99119, Note_on_c, 1, 53, 0
7, 99119, Note_on_c, 1, 59, 0
7, 99120, Note_on_c, 1, 60, 72
7, 99120, Note_on_c, 1, 51, 72
7, 99239, Note_on_c, 1, 60, 0
7, 99240, Note_on_c, 1, 55, 72
7, 99359, Note_on_c, 1, 51, 0
7, 99359, Note_on_c, 1, 55, 0
7, 99360, Note_on_c, 1, 60, 72
7, 99479, Note_on_c, 1, 60, 0
7, 99480, Note_on_c, 1, 58, 72
7, 99599, Note_on_c, 1, 58, 0
7, 99600, Note_on_c, 1, 57, 72
7, 99719, Note_on_c, 1, 57, 0
7, 99720, Note_on_c, 1, 50, 72
7, 99839, Note_on_c, 1, 50, 0
7, 99840, Note_on_c, 1, 62, 72
7, 99959, Note_on_c, 1, 62, 0
7, 99960, Note_on_c, 1, 60, 72
7, 100079, Note_on_c, 1, 60, 0
7, 100080, Note_on_c, 1, 58, 72
7, 100319, Note_on_c, 1, 58, 0
7, 100680, Note_on_c, 1, 55, 72
7, 100680, Note_on_c, 1, 52, 72
7, 100799, Note_on_c, 1, 55, 0
7, 100799, Note_on_c, 1, 52, 0
7, 100800, Note_on_c, 1, 55, 72
7, 100800, Note_on_c, 1, 52, 72
7, 100919, Note_on_c, 1, 55, 0
7, 100919, Note_on_c, 1, 52, 0
7, 100920, Note_on_c, 1, 57, 72
7, 100920, Note_on_c, 1, 52, 72
7, 101039, Note_on_c, 1, 57, 0
7, 101039, Note_on_c, 1, 52, 0
7, 101040, Note_on_c, 1, 57, 72
7, 101040, Note_on_c, 1, 53, 72
7, 101099, Note_on_c, 1, 53, 0
7, 101100, Note_on_c, 1, 55, 72
7, 101159, Note_on_c, 1, 57, 0
7, 101159, Note_on_c, 1, 55, 0
7, 101160, Note_on_c, 1, 57, 72
7, 101160, Note_on_c, 1, 53, 72
7, 101219, Note_on_c, 1, 53, 0
7, 101220, Note_on_c, 1, 52, 72
7, 101279, Note_on_c, 1, 57, 0
7, 101279, Note_on_c, 1, 52, 0
7, 101280, Note_on_c, 1, 57, 72
7, 101280, Note_on_c, 1, 54, 72
7, 101339, Note_on_c, 1, 54, 0
7, 101340, Note_on_c, 1, 55, 72
7, 101399, Note_on_c, 1, 57, 0
7, 101399, Note_on_c, 1, 55, 0
7, 101400, Note_on_c, 1, 57, 72
7, 101400, Note_on_c, 1, 52, 72
7, 101459, Note_on_c, 1, 52, 0
7, 101460, Note_on_c, 1, 54, 72
7, 101519, Note_on_c, 1, 57, 0
7, 101519, Note_on_c, 1, 54, 0
7, 101520, Note_on_c, 1, 59, 72
7, 101520, Note_on_c, 1, 55, 72
7, 101579, Note_on_c, 1, 55, 0
7, 101580, Note_on_c, 1, 57, 72
7, 101639, Note_on_c, 1, 57, 0
7, 101640, Note_on_c, 1, 55, 72
7, 101699, Note_on_c, 1, 55, 0
7, 101700, Note_on_c, 1, 54, 72
7, 101759, Note_on_c, 1, 54, 0
7, 101760, Note_on_c, 1, 56, 72
7, 101819, Note_on_c, 1, 56, 0
7, 101820, Note_on_c, 1, 57, 72
7, 101879, Note_on_c, 1, 57, 0
7, 101880, Note_on_c, 1, 54, 72
7, 101939, Note_on_c, 1, 54, 0
7, 101940, Note_on_c, 1, 56, 72
7, 101999, Note_on_c, 1, 59, 0
7, 101999, Note_on_c, 1, 56, 0
7, 102000, Note_on_c, 1, 61, 72
7, 102000, Note_on_c, 1, 57, 72
7, 102119, Note_on_c, 1, 61, 0
7, 102120, Note_on_c, 1, 57, 72
7, 102239, Note_on_c, 1, 57, 0
7, 102239, Note_on_c, 1, 57, 0
7, 102240, Note_on_c, 1, 59, 72
7, 102240, Note_on_c, 1, 57, 72
7, 102359, Note_on_c, 1, 59, 0
7, 102360, Note_on_c, 1, 61, 72
7, 102479, Note_on_c, 1, 57, 0
7, 102479, Note_on_c, 1, 61, 0
7, 102480, Note_on_c, 1, 62, 72
7, 102480, Note_on_c, 1, 53, 72
7, 102719, Note_on_c, 1, 53, 0
7, 102720, Note_on_c, 1, 58, 72
7, 102959, Note_on_c, 1, 62, 0
7, 102959, Note_on_c, 1, 58, 0
7, 102960, Note_on_c, 1, 64, 72
7, 102960, Note_on_c, 1, 49, 72
7, 103199, Note_on_c, 1, 64, 0
7, 103200, Note_on_c, 1, 57, 72
7, 103439, Note_on_c, 1, 49, 0
7, 103440, Note_on_c, 1, 50, 72
7, 103559, Note_on_c, 1, 57, 0
7, 103560, Note_on_c, 1, 53, 72
7, 103679, Note_on_c, 1, 50, 0
7, 103679, Note_on_c, 1, 53, 0
7, 103680, Note_on_c, 1, 50, 72
7, 103680, Note_on_c, 1, 58, 72
7, 103799, Note_on_c, 1, 50, 0
7, 103800, Note_on_c, 1, 50, 72
7, 103919, Note_on_c, 1, 50, 0
7, 103920, Note_on_c, 1, 52, 72
7, 104039, Note_on_c, 1, 58, 0
7, 104040, Note_on_c, 1, 55, 72
7, 104159, Note_on_c, 1, 55, 0
7, 104160, Note_on_c, 1, 64, 72
7, 104279, Note_on_c, 1, 52, 0
7, 104279, Note_on_c, 1, 64, 0
7, 104280, Note_on_c, 1, 64, 72
7, 104280, Note_on_c, 1, 50, 72
7, 104339, Note_on_c, 1, 50, 0
7, 104340, Note_on_c, 1, 52, 72
7, 104399, Note_on_c, 1, 64, 0
7, 104399, Note_on_c, 1, 52, 0
7, 104400, Note_on_c, 1, 62, 72
7, 104400, Note_on_c, 1, 53, 72
7, 104519, Note_on_c, 1, 62, 0
7, 104519, Note_on_c, 1, 53, 0
7, 104520, Note_on_c, 1, 61, 72
7, 104520, Note_on_c, 1, 52, 72
7, 104579, Note_on_c, 1, 61, 0
7, 104579, Note_on_c, 1, 52, 0
7, 104580, Note_on_c, 1, 62, 72
7, 104580, Note_on_c, 1, 53, 72
7, 104639, Note_on_c, 1, 62, 0
7, 104639, Note_on_c, 1, 53, 0
7, 104640, Note_on_c, 1, 64, 72
7, 104640, Note_on_c, 1, 55, 72
7, 104699, Note_on_c, 1, 64, 0
7, 104700, Note_on_c, 1, 65, 72
7, 104759, Note_on_c, 1, 55, 0
7, 104759, Note_on_c, 1, 65, 0
7, 104760, Note_on_c, 1, 67, 72
7, 104760, Note_on_c, 1, 53, 72
7, 104819, Note_on_c, 1, 67, 0
7, 104819, Note_on_c, 1, 53, 0
7, 104820, Note_on_c, 1, 65, 72
7, 104820, Note_on_c, 1, 55, 72
7, 104879, Note_on_c, 1, 65, 0
7, 104879, Note_on_c, 1, 55, 0
7, 104880, Note_on_c, 1, 64, 72
7, 104880, Note_on_c, 1, 57, 72
7, 104999, Note_on_c, 1, 64, 0
7, 104999, Note_on_c, 1, 57, 0
7, 105000, Note_on_c, 1, 62, 72
7, 105000, Note_on_c, 1, 58, 72
7, 105059, Note_on_c, 1, 58, 0
7, 105060, Note_on_c, 1, 57, 72
7, 105119, Note_on_c, 1, 62, 0
7, 105119, Note_on_c, 1, 57, 0
7, 105120, Note_on_c, 1, 55, 72
7, 105120, Note_on_c, 1, 61, 72
7, 105179, Note_on_c, 1, 55, 0
7, 105180, Note_on_c, 1, 53, 72
7, 105239, Note_on_c, 1, 61, 0
7, 105239, Note_on_c, 1, 53, 0
7, 105240, Note_on_c, 1, 52, 72
7, 105299, Note_on_c, 1, 52, 0
7, 105300, Note_on_c, 1, 50, 72
7, 105300, Note_on_c, 1, 62, 72
7, 105359, Note_on_c, 1, 50, 0
7, 105359, Note_on_c, 1, 62, 0
7, 105360, Note_on_c, 1, 64, 72
7, 105360, Note_on_c, 1, 49, 72
7, 105479, Note_on_c, 1, 49, 0
7, 105480, Note_on_c, 1, 49, 72
7, 105599, Note_on_c, 1, 64, 0
7, 105599, Note_on_c, 1, 49, 0
7, 105600, Note_on_c, 1, 50, 72
7, 105600, Note_on_c, 1, 57, 72
7, 105719, Note_on_c, 1, 50, 0
7, 105719, Note_on_c, 1, 57, 0
7, 105720, Note_on_c, 1, 57, 72
7, 105720, Note_on_c, 1, 61, 72
7, 105839, Note_on_c, 1, 57, 0
7, 105839, Note_on_c, 1, 61, 0
7, 105840, Note_on_c, 1, 62, 72
7, 105840, Note_on_c, 1, 58, 72
7, 105959, Note_on_c, 1, 62, 0
7, 105960, Note_on_c, 1, 65, 72
7, 106079, Note_on_c, 1, 65, 0
7, 106080, Note_on_c, 1, 64, 72
7, 106199, Note_on_c, 1, 64, 0
7, 106200, Note_on_c, 1, 62, 72
7, 106319, Note_on_c, 1, 58, 0
7, 106319, Note_on_c, 1, 62, 0
7, 106320, Note_on_c, 1, 64, 72
7, 106320, Note_on_c, 1, 57, 72
7, 106439, Note_on_c, 1, 64, 0
7, 106440, Note_on_c, 1, 57, 72
7, 106559, Note_on_c, 1, 57, 0
7, 106559, Note_on_c, 1, 57, 0
7, 106560, Note_on_c, 1, 59, 72
7, 106679, Note_on_c, 1, 59, 0
7, 106680, Note_on_c, 1, 61, 72
7, 106799, Note_on_c, 1, 61, 0
7, 106800, Note_on_c, 1, 62, 72
7, 106919, Note_on_c, 1, 62, 0
7, 106920, Note_on_c, 1, 50, 72
7, 107039, Note_on_c, 1, 50, 0
7, 107040, Note_on_c, 1, 55, 72
7, 107159, Note_on_c, 1, 55, 0
7, 107160, Note_on_c, 1, 52, 72
7, 107279, Note_on_c, 1, 52, 0
7, 107280, Note_on_c, 1, 57, 72
7, 107399, Note_on_c, 1, 57, 0
7, 107400, Note_on_c, 1, 58, 72
7, 107400, Note_on_c, 1, 48, 72
7, 107519, Note_on_c, 1, 58, 0
7, 107519, Note_on_c, 1, 48, 0
7, 107520, Note_on_c, 1, 57, 72
7, 107520, Note_on_c, 1, 48, 72
7, 107639, Note_on_c, 1, 57, 0
7, 107639, Note_on_c, 1, 48, 0
7, 107640, Note_on_c, 1, 55, 72
7, 107640, Note_on_c, 1, 48, 72
7, 107759, Note_on_c, 1, 55, 0
7, 107759, Note_on_c, 1, 48, 0
7, 107760, Note_on_c, 1, 53, 72
7, 107760, Note_on_c, 1, 46, 72
7, 107819, Note_on_c, 1, 46, 0
7, 107820, Note_on_c, 1, 48, 72
7, 107879, Note_on_c, 1, 53, 0
7, 107879, Note_on_c, 1, 48, 0
7, 107880, Note_on_c, 1, 50, 72
7, 107880, Note_on_c, 1, 46, 72
7, 107939, Note_on_c, 1, 46, 0
7, 107940, Note_on_c, 1, 45, 72
7, 107999, Note_on_c, 1, 50, 0
7, 107999, Note_on_c, 1, 45, 0
7, 108000, Note_on_c, 1, 47, 72
7, 108000, Note_on_c, 1, 55, 72
7, 108059, Note_on_c, 1, 47, 0
7, 108060, Note_on_c, 1, 48, 72
7, 108119, Note_on_c, 1, 55, 0
7, 108119, Note_on_c, 1, 48, 0
7, 108120, Note_on_c, 1, 53, 72
7, 108120, Note_on_c, 1, 45, 72
7, 108179, Note_on_c, 1, 45, 0
7, 108180, Note_on_c, 1, 47, 72
7, 108239, Note_on_c, 1, 53, 0
7, 108239, Note_on_c, 1, 47, 0
7, 108240, Note_on_c, 1, 52, 72
7, 108240, Note_on_c, 1, 48, 72
7, 108299, Note_on_c, 1, 48, 0
7, 108300, Note_on_c, 1, 50, 72
7, 108359, Note_on_c, 1, 52, 0
7, 108359, Note_on_c, 1, 50, 0
7, 108360, Note_on_c, 1, 48, 72
7, 108360, Note_on_c, 1, 48, 72
7, 108419, Note_on_c, 1, 48, 0
7, 108420, Note_on_c, 1, 47, 72
7, 108479, Note_on_c, 1, 48, 0
7, 108479, Note_on_c, 1, 47, 0
7, 108480, Note_on_c, 1, 57, 72
7, 108480, Note_on_c, 1, 49, 72
7, 108539, Note_on_c, 1, 49, 0
7, 108540, Note_on_c, 1, 50, 72
7, 108599, Note_on_c, 1, 57, 0
7, 108599, Note_on_c, 1, 50, 0
7, 108600, Note_on_c, 1, 57, 72
7, 108600, Note_on_c, 1, 47, 72
7, 108659, Note_on_c, 1, 47, 0
7, 108660, Note_on_c, 1, 49, 72
7, 108719, Note_on_c, 1, 57, 0
7, 108719, Note_on_c, 1, 49, 0
7, 108720, Note_on_c, 1, 53, 72
7, 108720, Note_on_c, 1, 50, 72
7, 108839, Note_on_c, 1, 50, 0
7, 108840, Note_on_c, 1, 50, 72
7, 108959, Note_on_c, 1, 53, 0
7, 108959, Note_on_c, 1, 50, 0
7, 108960, Note_on_c, 1, 62, 72
7, 108960, Note_on_c, 1, 55, 72
7, 109079, Note_on_c, 1, 55, 0
7, 109080, Note_on_c, 1, 53, 72
7, 109199, Note_on_c, 1, 62, 0
7, 109199, Note_on_c, 1, 53, 0
7, 109200, Note_on_c, 1, 55, 72
7, 109200, Note_on_c, 1, 52, 72
7, 109319, Note_on_c, 1, 52, 0
7, 109320, Note_on_c, 1, 52, 72
7, 109439, Note_on_c, 1, 55, 0
7, 109439, Note_on_c, 1, 52, 0
7, 109440, Note_on_c, 1, 57, 72
7, 109559, Note_on_c, 1, 57, 0
7, 109560, Note_on_c, 1, 55, 72
7, 109679, Note_on_c, 1, 55, 0
7, 109680, Note_on_c, 1, 53, 72
7, 109800, Note_on_c, 1, 57, 72
7, 109919, Note_on_c, 1, 53, 0
7, 109919, Note_on_c, 1, 57, 0
7, 109920, Note_on_c, 1, 62, 72
7, 110039, Note_on_c, 1, 62, 0
7, 110040, Note_on_c, 1, 60, 72
7, 110159, Note_on_c, 1, 60, 0
7, 110160, Note_on_c, 1, 59, 72
7, 110279, Note_on_c, 1, 59, 0
7, 110280, Note_on_c, 1, 59, 72
7, 110399, Note_on_c, 1, 59, 0
7, 110400, Note_on_c, 1, 64, 72
7, 110519, Note_on_c, 1, 64, 0
7, 110520, Note_on_c, 1, 62, 72
7, 110520, Note_on_c, 1, 52, 72
7, 110639, Note_on_c, 1, 62, 0
7, 110639, Note_on_c, 1, 52, 0
7, 110640, Note_on_c, 1, 60, 72
7, 110640, Note_on_c, 1, 57, 72
7, 110759, Note_on_c, 1, 57, 0
7, 110760, Note_on_c, 1, 45, 72
7, 110879, Note_on_c, 1, 60, 0
7, 110879, Note_on_c, 1, 45, 0
7, 110880, Note_on_c, 1, 62, 72
7, 110880, Note_on_c, 1, 50, 72
7, 110999, Note_on_c, 1, 50, 0
7, 111000, Note_on_c, 1, 48, 72
7, 111119, Note_on_c, 1, 62, 0
7, 111119, Note_on_c, 1, 48, 0
7, 111120, Note_on_c, 1, 62, 72
7, 111120, Note_on_c, 1, 47, 72
7, 111239, Note_on_c, 1, 47, 0
7, 111240, Note_on_c, 1, 47, 72
7, 111359, Note_on_c, 1, 62, 0
7, 111359, Note_on_c, 1, 47, 0
7, 111360, Note_on_c, 1, 64, 72
7, 111360, Note_on_c, 1, 52, 72
7, 111479, Note_on_c, 1, 52, 0
7, 111480, Note_on_c, 1, 50, 72
7, 111599, Note_on_c, 1, 64, 0
7, 111599, Note_on_c, 1, 50, 0
7, 111600, Note_on_c, 1, 64, 72
7, 111600, Note_on_c, 1, 49, 72
7, 111719, Note_on_c, 1, 64, 0
7, 111719, Note_on_c, 1, 49, 0
7, 111720, Note_on_c, 1, 64, 72
7, 111720, Note_on_c, 1, 57, 72
7, 111839, Note_on_c, 1, 64, 0
7, 111839, Note_on_c, 1, 57, 0
7, 111840, Note_on_c, 1, 62, 72
7, 111840, Note_on_c, 1, 58, 72
7, 111959, Note_on_c, 1, 62, 0
7, 111959, Note_on_c, 1, 58, 0
7, 111960, Note_on_c, 1, 65, 72
7, 111960, Note_on_c, 1, 55, 72
7, 112079, Note_on_c, 1, 65, 0
7, 112079, Note_on_c, 1, 55, 0
7, 112080, Note_on_c, 1, 64, 72
7, 112080, Note_on_c, 1, 57, 72
7, 112559, Note_on_c, 1, 64, 0
7, 112559, Note_on_c, 1, 57, 0
7, 112560, Note_on_c, 1, 65, 72
7, 112560, Note_on_c, 1, 56, 72
7, 113039, Note_on_c, 1, 65, 0
7, 113039, Note_on_c, 1, 56, 0
7, 113280, Note_on_c, 1, 65, 72
7, 113280, Note_on_c, 1, 56, 72
7, 113459, Note_on_c, 1, 65, 0
7, 113459, Note_on_c, 1, 56, 0
7, 113460, Note_on_c, 1, 65, 72
7, 113460, Note_on_c, 1, 56, 72
7, 113519, Note_on_c, 1, 65, 0
7, 113519, Note_on_c, 1, 56, 0
7, 113520, Note_on_c, 1, 64, 72
7, 113520, Note_on_c, 1, 57, 72
7, 113759, Note_on_c, 1, 64, 0
7, 113759, Note_on_c, 1, 57, 0
7, 113760, Note_on_c, 1, 65, 72
7, 113760, Note_on_c, 1, 53, 72
7, 113879, Note_on_c, 1, 53, 0
7, 113880, Note_on_c, 1, 50, 72
7, 113999, Note_on_c, 1, 50, 0
7, 114000, Note_on_c, 1, 57, 72
7, 114239, Note_on_c, 1, 65, 0
7, 114240, Note_on_c, 1, 64, 72
7, 114359, Note_on_c, 1, 57, 0
7, 114360, Note_on_c, 1, 57, 72
7, 114479, Note_on_c, 1, 64, 0
7, 114479, Note_on_c, 1, 57, 0
7, 114480, Note_on_c, 1, 62, 72
7, 114480, Note_on_c, 1, 50, 72
7, 115439, Note_on_c, 1, 62, 0
7, 115439, Note_on_c, 1, 50, 0
7, 115439, End_track
8, 0, Start_track
8, 0, Title_t, "Trumpet in D"
8, 0, MIDI_port, 0
8, 0, Program_c, 2, 56
8, 0, Control_c, 2, 7, 96
8, 0, Control_c, 2, 10, 60
8, 0, Control_c, 2, 11, 127
8, 0, Note_on_c, 2, 62, 72
8, 0, Note_on_c, 2, 74, 72
8, 239, Note_on_c, 2, 62, 0
8, 239, Note_on_c, 2, 74, 0
8, 720, Note_on_c, 2, 62, 72
8, 720, Note_on_c, 2, 74, 72
8, 959, Note_on_c, 2, 62, 0
8, 959, Note_on_c, 2, 74, 0
8, 1440, Note_on_c, 2, 76, 72
8, 1679, Note_on_c, 2, 76, 0
8, 2160, Note_on_c, 2, 74, 72
8, 2160, Note_on_c, 2, 62, 72
8, 2399, Note_on_c, 2, 74, 0
8, 2399, Note_on_c, 2, 62, 0
8, 3600, Note_on_c, 2, 62, 72
8, 3600, Note_on_c, 2, 74, 72
8, 3839, Note_on_c, 2, 62, 0
8, 3839, Note_on_c, 2, 74, 0
8, 4320, Note_on_c, 2, 74, 72
8, 4320, Note_on_c, 2, 62, 72
8, 4559, Note_on_c, 2, 74, 0
8, 4559, Note_on_c, 2, 62, 0
8, 5040, Note_on_c, 2, 74, 84
8, 5040, Note_on_c, 2, 62, 84
8, 5759, Note_on_c, 2, 74, 0
8, 5759, Note_on_c, 2, 62, 0
8, 5760, Note_on_c, 2, 69, 84
8, 5760, Note_on_c, 2, 57, 84
8, 5939, Note_on_c, 2, 69, 0
8, 5939, Note_on_c, 2, 57, 0
8, 5940, Note_on_c, 2, 69, 84
8, 5940, Note_on_c, 2, 57, 84
8, 5999, Note_on_c, 2, 69, 0
8, 5999, Note_on_c, 2, 57, 0
8, 6000, Note_on_c, 2, 69, 84
8, 6000, Note_on_c, 2, 57, 84
8, 6239, Note_on_c, 2, 69, 0
8, 6239, Note_on_c, 2, 57, 0
8, 59880, Note_on_c, 2, 74, 72
8, 59880, Note_on_c, 2, 62, 72
8, 59999, Note_on_c, 2, 74, 0
8, 59999, Note_on_c, 2, 62, 0
8, 60000, Note_on_c, 2, 74, 72
8, 60000, Note_on_c, 2, 62, 72
8, 60119, Note_on_c, 2, 74, 0
8, 60119, Note_on_c, 2, 62, 0
8, 60120, Note_on_c, 2, 74, 72
8, 60120, Note_on_c, 2, 62, 72
8, 60239, Note_on_c, 2, 74, 0
8, 60239, Note_on_c, 2, 62, 0
8, 60240, Note_on_c, 2, 74, 72
8, 60240, Note_on_c, 2, 62, 72
8, 60479, Note_on_c, 2, 74, 0
8, 60479, Note_on_c, 2, 62, 0
8, 60840, Note_on_c, 2, 69, 72
8, 60840, Note_on_c, 2, 57, 72
8, 60959, Note_on_c, 2, 69, 0
8, 60959, Note_on_c, 2, 57, 0
8, 60960, Note_on_c, 2, 69, 72
8, 60960, Note_on_c, 2, 57, 72
8, 61079, Note_on_c, 2, 69, 0
8, 61079, Note_on_c, 2, 57, 0
8, 61080, Note_on_c, 2, 69, 72
8, 61080, Note_on_c, 2, 57, 72
8, 61199, Note_on_c, 2, 69, 0
8, 61199, Note_on_c, 2, 57, 0
8, 61200, Note_on_c, 2, 69, 72
8, 61200, Note_on_c, 2, 57, 72
8, 61439, Note_on_c, 2, 69, 0
8, 61439, Note_on_c, 2, 57, 0
8, 61680, Note_on_c, 2, 74, 72
8, 61680, Note_on_c, 2, 62, 72
8, 61919, Note_on_c, 2, 74, 0
8, 61919, Note_on_c, 2, 62, 0
8, 61920, Note_on_c, 2, 74, 72
8, 61920, Note_on_c, 2, 62, 72
8, 62099, Note_on_c, 2, 74, 0
8, 62099, Note_on_c, 2, 62, 0
8, 62100, Note_on_c, 2, 74, 72
8, 62100, Note_on_c, 2, 62, 72
8, 62159, Note_on_c, 2, 74, 0
8, 62159, Note_on_c, 2, 62, 0
8, 62160, Note_on_c, 2, 74, 72
8, 62160, Note_on_c, 2, 62, 72
8, 62399, Note_on_c, 2, 74, 0
8, 62399, Note_on_c, 2, 62, 0
8, 62520, Note_on_c, 2, 74, 72
8, 62520, Note_on_c, 2, 62, 72
8, 62639, Note_on_c, 2, 74, 0
8, 62639, Note_on_c, 2, 62, 0
8, 62640, Note_on_c, 2, 69, 72
8, 62640, Note_on_c, 2, 57, 72
8, 62759, Note_on_c, 2, 69, 0
8, 62759, Note_on_c, 2, 57, 0
8, 62760, Note_on_c, 2, 69, 72
8, 62760, Note_on_c, 2, 57, 72
8, 62879, Note_on_c, 2, 69, 0
8, 62879, Note_on_c, 2, 57, 0
8, 64560, Note_on_c, 2, 69, 48
8, 64560, Note_on_c, 2, 57, 48
8, 65039, Note_on_c, 2, 69, 0
8, 65039, Note_on_c, 2, 57, 0
8, 65040, Note_on_c, 2, 69, 48
8, 65040, Note_on_c, 2, 57, 48
8, 65519, Note_on_c, 2, 69, 0
8, 65519, Note_on_c, 2, 57, 0
8, 72240, Note_on_c, 2, 69, 72
8, 72240, Note_on_c, 2, 57, 72
8, 72479, Note_on_c, 2, 69, 0
8, 72479, Note_on_c, 2, 57, 0
8, 72480, Note_on_c, 2, 69, 72
8, 72480, Note_on_c, 2, 57, 72
8, 72599, Note_on_c, 2, 69, 0
8, 72599, Note_on_c, 2, 57, 0
8, 72600, Note_on_c, 2, 69, 72
8, 72600, Note_on_c, 2, 57, 72
8, 72719, Note_on_c, 2, 69, 0
8, 72719, Note_on_c, 2, 57, 0
8, 72720, Note_on_c, 2, 69, 72
8, 72720, Note_on_c, 2, 62, 72
8, 72959, Note_on_c, 2, 69, 0
8, 72959, Note_on_c, 2, 62, 0
8, 75240, Note_on_c, 2, 69, 72
8, 75240, Note_on_c, 2, 57, 72
8, 75359, Note_on_c, 2, 69, 0
8, 75359, Note_on_c, 2, 57, 0
8, 75360, Note_on_c, 2, 69, 72
8, 75360, Note_on_c, 2, 57, 72
8, 75479, Note_on_c, 2, 69, 0
8, 75479, Note_on_c, 2, 57, 0
8, 75480, Note_on_c, 2, 69, 72
8, 75480, Note_on_c, 2, 57, 72
8, 75599, Note_on_c, 2, 69, 0
8, 75599, Note_on_c, 2, 57, 0
8, 75600, Note_on_c, 2, 69, 72
8, 75600, Note_on_c, 2, 62, 72
8, 75839, Note_on_c, 2, 69, 0
8, 75839, Note_on_c, 2, 62, 0
8, 83760, Note_on_c, 2, 62, 72
8, 83999, Note_on_c, 2, 62, 0
8, 84000, Note_on_c, 2, 62, 72
8, 84119, Note_on_c, 2, 62, 0
8, 84120, Note_on_c, 2, 62, 72
8, 84239, Note_on_c, 2, 62, 0
8, 84240, Note_on_c, 2, 62, 72
8, 84479, Note_on_c, 2, 62, 0
8, 102120, Note_on_c, 2, 69, 72
8, 102239, Note_on_c, 2, 69, 0
8, 102240, Note_on_c, 2, 69, 72
8, 102359, Note_on_c, 2, 69, 0
8, 102360, Note_on_c, 2, 69, 72
8, 102479, Note_on_c, 2, 69, 0
8, 102480, Note_on_c, 2, 62, 72
8, 102719, Note_on_c, 2, 62, 0
8, 105480, Note_on_c, 2, 69, 72
8, 105480, Note_on_c, 2, 57, 72
8, 105599, Note_on_c, 2, 69, 0
8, 105599, Note_on_c, 2, 57, 0
8, 105600, Note_on_c, 2, 69, 72
8, 105600, Note_on_c, 2, 57, 72
8, 105719, Note_on_c, 2, 69, 0
8, 105719, Note_on_c, 2, 57, 0
8, 105720, Note_on_c, 2, 69, 72
8, 105720, Note_on_c, 2, 57, 72
8, 105839, Note_on_c, 2, 69, 0
8, 105839, Note_on_c, 2, 57, 0
8, 105840, Note_on_c, 2, 74, 72
8, 105840, Note_on_c, 2, 62, 72
8, 106319, Note_on_c, 2, 74, 0
8, 106319, Note_on_c, 2, 62, 0
8, 106320, Note_on_c, 2, 69, 72
8, 106320, Note_on_c, 2, 57, 72
8, 106559, Note_on_c, 2, 69, 0
8, 106559, Note_on_c, 2, 57, 0
8, 111600, Note_on_c, 2, 69, 72
8, 111839, Note_on_c, 2, 69, 0
8, 111840, Note_on_c, 2, 62, 72
8, 111959, Note_on_c, 2, 62, 0
8, 111960, Note_on_c, 2, 62, 72
8, 112079, Note_on_c, 2, 62, 0
8, 112080, Note_on_c, 2, 69, 72
8, 112080, Note_on_c, 2, 57, 72
8, 112199, Note_on_c, 2, 69, 0
8, 112199, Note_on_c, 2, 57, 0
8, 112200, Note_on_c, 2, 69, 72
8, 112200, Note_on_c, 2, 57, 72
8, 112259, Note_on_c, 2, 69, 0
8, 112259, Note_on_c, 2, 57, 0
8, 112260, Note_on_c, 2, 69, 72
8, 112260, Note_on_c, 2, 57, 72
8, 112319, Note_on_c, 2, 69, 0
8, 112319, Note_on_c, 2, 57, 0
8, 112320, Note_on_c, 2, 69, 72
8, 112320, Note_on_c, 2, 57, 72
8, 112439, Note_on_c, 2, 69, 0
8, 112439, Note_on_c, 2, 57, 0
8, 112440, Note_on_c, 2, 69, 72
8, 112440, Note_on_c, 2, 57, 72
8, 112559, Note_on_c, 2, 69, 0
8, 112559, Note_on_c, 2, 57, 0
8, 112560, Note_on_c, 2, 74, 72
8, 112560, Note_on_c, 2, 62, 72
8, 113039, Note_on_c, 2, 74, 0
8, 113039, Note_on_c, 2, 62, 0
8, 113520, Note_on_c, 2, 69, 72
8, 113520, Note_on_c, 2, 57, 72
8, 113759, Note_on_c, 2, 69, 0
8, 113759, Note_on_c, 2, 57, 0
8, 113760, Note_on_c, 2, 69, 72
8, 113760, Note_on_c, 2, 62, 72
8, 113879, Note_on_c, 2, 69, 0
8, 113879, Note_on_c, 2, 62, 0
8, 113880, Note_on_c, 2, 69, 72
8, 113880, Note_on_c, 2, 62, 72
8, 113999, Note_on_c, 2, 69, 0
8, 113999, Note_on_c, 2, 62, 0
8, 114000, Note_on_c, 2, 69, 72
8, 114000, Note_on_c, 2, 57, 72
8, 114239, Note_on_c, 2, 69, 0
8, 114239, Note_on_c, 2, 57, 0
8, 114240, Note_on_c, 2, 69, 72
8, 114240, Note_on_c, 2, 57, 72
8, 114359, Note_on_c, 2, 69, 0
8, 114359, Note_on_c, 2, 57, 0
8, 114360, Note_on_c, 2, 69, 72
8, 114360, Note_on_c, 2, 57, 72
8, 114479, Note_on_c, 2, 69, 0
8, 114479, Note_on_c, 2, 57, 0
8, 114480, Note_on_c, 2, 69, 72
8, 114480, Note_on_c, 2, 62, 72
8, 115439, Note_on_c, 2, 69, 0
8, 115439, Note_on_c, 2, 62, 0
8, 115439, End_track
9, 0, Start_track
9, 0, Title_t, "Alto Trombone"
9, 0, MIDI_port, 0
9, 0, Control_c, 3, 7, 96
9, 0, Control_c, 3, 10, 96
9, 0, Control_c, 3, 11, 127
9, 0, Program_c, 3, 57
9, 960, Note_on_c, 3, 65, 72
9, 1199, Note_on_c, 3, 65, 0
9, 1200, Note_on_c, 3, 65, 72
9, 1439, Note_on_c, 3, 65, 0
9, 1440, Note_on_c, 3, 67, 72
9, 2159, Note_on_c, 3, 67, 0
9, 2160, Note_on_c, 3, 65, 72
9, 2399, Note_on_c, 3, 65, 0
9, 2640, Note_on_c, 3, 65, 72
9, 2879, Note_on_c, 3, 65, 0
9, 2880, Note_on_c, 3, 67, 72
9, 3599, Note_on_c, 3, 67, 0
9, 3600, Note_on_c, 3, 65, 72
9, 3839, Note_on_c, 3, 65, 0
9, 4080, Note_on_c, 3, 69, 72
9, 4319, Note_on_c, 3, 69, 0
9, 4320, Note_on_c, 3, 70, 72
9, 4799, Note_on_c, 3, 70, 0
9, 4800, Note_on_c, 3, 70, 72
9, 5039, Note_on_c, 3, 70, 0
9, 5040, Note_on_c, 3, 71, 72
9, 5759, Note_on_c, 3, 71, 0
9, 5760, Note_on_c, 3, 64, 72
9, 5999, Note_on_c, 3, 64, 0
9, 11040, Note_on_c, 3, 65, 48
9, 11279, Note_on_c, 3, 65, 0
9, 11280, Note_on_c, 3, 64, 48
9, 11519, Note_on_c, 3, 64, 0
9, 11520, Note_on_c, 3, 65, 48
9, 11759, Note_on_c, 3, 65, 0
9, 11760, Note_on_c, 3, 65, 72
9, 11999, Note_on_c, 3, 65, 0
9, 12000, Note_on_c, 3, 65, 72
9, 12239, Note_on_c, 3, 65, 0
9, 12240, Note_on_c, 3, 67, 72
9, 12959, Note_on_c, 3, 67, 0
9, 12960, Note_on_c, 3, 65, 72
9, 13199, Note_on_c, 3, 65, 0
9, 13440, Note_on_c, 3, 65, 72
9, 13679, Note_on_c, 3, 65, 0
9, 13680, Note_on_c, 3, 67, 72
9, 14399, Note_on_c, 3, 67, 0
9, 14400, Note_on_c, 3, 67, 72
9, 14639, Note_on_c, 3, 67, 0
9, 14880, Note_on_c, 3, 67, 72
9, 15119, Note_on_c, 3, 67, 0
9, 15120, Note_on_c, 3, 67, 72
9, 15599, Note_on_c, 3, 67, 0
9, 15600, Note_on_c, 3, 65, 72
9, 15839, Note_on_c, 3, 65, 0
9, 15840, Note_on_c, 3, 66, 72
9, 16559, Note_on_c, 3, 66, 0
9, 16560, Note_on_c, 3, 68, 72
9, 16799, Note_on_c, 3, 68, 0
9, 24000, Note_on_c, 3, 67, 72
9, 24239, Note_on_c, 3, 67, 0
9, 24240, Note_on_c, 3, 67, 72
9, 24479, Note_on_c, 3, 67, 0
9, 24480, Note_on_c, 3, 67, 72
9, 25199, Note_on_c, 3, 67, 0
9, 25200, Note_on_c, 3, 67, 72
9, 25439, Note_on_c, 3, 67, 0
9, 25680, Note_on_c, 3, 67, 72
9, 25919, Note_on_c, 3, 67, 0
9, 25920, Note_on_c, 3, 68, 72
9, 26639, Note_on_c, 3, 68, 0
9, 26640, Note_on_c, 3, 68, 72
9, 26879, Note_on_c, 3, 68, 0
9, 27120, Note_on_c, 3, 68, 72
9, 27359, Note_on_c, 3, 68, 0
9, 27360, Note_on_c, 3, 67, 72
9, 27839, Note_on_c, 3, 67, 0
9, 27840, Note_on_c, 3, 67, 72
9, 28079, Note_on_c, 3, 67, 0
9, 28080, Note_on_c, 3, 66, 72
9, 28799, Note_on_c, 3, 66, 0
9, 28800, Note_on_c, 3, 65, 72
9, 29039, Note_on_c, 3, 65, 0
9, 35280, Note_on_c, 3, 65, 72
9, 35759, Note_on_c, 3, 65, 0
9, 35760, Note_on_c, 3, 64, 72
9, 35999, Note_on_c, 3, 64, 0
9, 36000, Note_on_c, 3, 65, 72
9, 36719, Note_on_c, 3, 65, 0
9, 43920, Note_on_c, 3, 72, 72
9, 44039, Note_on_c, 3, 72, 0
9, 44040, Note_on_c, 3, 72, 72
9, 44159, Note_on_c, 3, 72, 0
9, 44160, Note_on_c, 3, 69, 72
9, 44279, Note_on_c, 3, 69, 0
9, 44280, Note_on_c, 3, 65, 72
9, 44399, Note_on_c, 3, 65, 0
9, 44520, Note_on_c, 3, 65, 72
9, 44639, Note_on_c, 3, 65, 0
9, 44640, Note_on_c, 3, 62, 72
9, 44759, Note_on_c, 3, 62, 0
9, 44760, Note_on_c, 3, 70, 72
9, 44879, Note_on_c, 3, 70, 0
9, 45000, Note_on_c, 3, 69, 72
9, 45119, Note_on_c, 3, 69, 0
9, 45120, Note_on_c, 3, 66, 72
9, 45239, Note_on_c, 3, 66, 0
9, 45240, Note_on_c, 3, 62, 72
9, 45359, Note_on_c, 3, 62, 0
9, 45360, Note_on_c, 3, 70, 72
9, 45599, Note_on_c, 3, 70, 0
9, 45600, Note_on_c, 3, 70, 72
9, 45719, Note_on_c, 3, 70, 0
9, 45720, Note_on_c, 3, 70, 72
9, 45839, Note_on_c, 3, 70, 0
9, 45840, Note_on_c, 3, 69, 72
9, 45959, Note_on_c, 3, 69, 0
9, 45960, Note_on_c, 3, 70, 72
9, 46079, Note_on_c, 3, 70, 0
9, 46080, Note_on_c, 3, 70, 72
9, 46199, Note_on_c, 3, 70, 0
9, 46200, Note_on_c, 3, 69, 72
9, 46319, Note_on_c, 3, 69, 0
9, 46320, Note_on_c, 3, 70, 72
9, 46559, Note_on_c, 3, 70, 0
9, 46920, Note_on_c, 3, 62, 72
9, 47039, Note_on_c, 3, 62, 0
9, 47040, Note_on_c, 3, 62, 72
9, 47159, Note_on_c, 3, 62, 0
9, 47160, Note_on_c, 3, 67, 72
9, 47279, Note_on_c, 3, 67, 0
9, 47400, Note_on_c, 3, 67, 72
9, 47519, Note_on_c, 3, 67, 0
9, 47520, Note_on_c, 3, 67, 72
9, 47639, Note_on_c, 3, 67, 0
9, 47640, Note_on_c, 3, 70, 72
9, 47759, Note_on_c, 3, 70, 0
9, 47760, Note_on_c, 3, 70, 72
9, 47879, Note_on_c, 3, 70, 0
9, 47880, Note_on_c, 3, 70, 72
9, 47999, Note_on_c, 3, 70, 0
9, 48000, Note_on_c, 3, 69, 72
9, 48119, Note_on_c, 3, 69, 0
9, 48120, Note_on_c, 3, 67, 72
9, 48239, Note_on_c, 3, 67, 0
9, 48240, Note_on_c, 3, 66, 72
9, 48479, Note_on_c, 3, 66, 0
9, 48480, Note_on_c, 3, 64, 72
9, 48719, Note_on_c, 3, 64, 0
9, 48720, Note_on_c, 3, 67, 72
9, 48839, Note_on_c, 3, 67, 0
9, 48840, Note_on_c, 3, 67, 72
9, 48959, Note_on_c, 3, 67, 0
9, 48960, Note_on_c, 3, 65, 72
9, 49139, Note_on_c, 3, 65, 0
9, 49140, Note_on_c, 3, 65, 72
9, 49199, Note_on_c, 3, 65, 0
9, 49200, Note_on_c, 3, 67, 72
9, 49439, Note_on_c, 3, 67, 0
9, 51720, Note_on_c, 3, 69, 72
9, 51899, Note_on_c, 3, 69, 0
9, 51900, Note_on_c, 3, 70, 72
9, 51959, Note_on_c, 3, 70, 0
9, 51960, Note_on_c, 3, 69, 72
9, 52019, Note_on_c, 3, 69, 0
9, 52020, Note_on_c, 3, 67, 72
9, 52079, Note_on_c, 3, 67, 0
9, 52080, Note_on_c, 3, 65, 72
9, 52139, Note_on_c, 3, 65, 0
9, 52140, Note_on_c, 3, 69, 72
9, 52199, Note_on_c, 3, 69, 0
9, 52200, Note_on_c, 3, 67, 72
9, 52259, Note_on_c, 3, 67, 0
9, 52260, Note_on_c, 3, 65, 72
9, 52319, Note_on_c, 3, 65, 0
9, 52320, Note_on_c, 3, 64, 72
9, 52379, Note_on_c, 3, 64, 0
9, 52380, Note_on_c, 3, 67, 72
9, 52439, Note_on_c, 3, 67, 0
9, 52440, Note_on_c, 3, 65, 72
9, 52499, Note_on_c, 3, 65, 0
9, 52500, Note_on_c, 3, 64, 72
9, 52559, Note_on_c, 3, 64, 0
9, 52560, Note_on_c, 3, 62, 72
9, 52619, Note_on_c, 3, 62, 0
9, 52620, Note_on_c, 3, 61, 72
9, 52679, Note_on_c, 3, 61, 0
9, 52680, Note_on_c, 3, 62, 72
9, 52739, Note_on_c, 3, 62, 0
9, 52740, Note_on_c, 3, 64, 72
9, 52799, Note_on_c, 3, 64, 0
9, 52800, Note_on_c, 3, 65, 72
9, 52859, Note_on_c, 3, 65, 0
9, 52860, Note_on_c, 3, 64, 72
9, 52919, Note_on_c, 3, 64, 0
9, 52920, Note_on_c, 3, 62, 72
9, 52979, Note_on_c, 3, 62, 0
9, 52980, Note_on_c, 3, 60, 72
9, 53039, Note_on_c, 3, 60, 0
9, 53040, Note_on_c, 3, 59, 72
9, 53219, Note_on_c, 3, 59, 0
9, 53220, Note_on_c, 3, 59, 72
9, 53279, Note_on_c, 3, 59, 0
9, 53280, Note_on_c, 3, 59, 72
9, 53519, Note_on_c, 3, 59, 0
9, 53520, Note_on_c, 3, 60, 72
9, 53759, Note_on_c, 3, 60, 0
9, 53760, Note_on_c, 3, 62, 72
9, 53999, Note_on_c, 3, 62, 0
9, 54000, Note_on_c, 3, 64, 72
9, 54119, Note_on_c, 3, 64, 0
9, 54120, Note_on_c, 3, 64, 72
9, 54239, Note_on_c, 3, 64, 0
9, 54240, Note_on_c, 3, 69, 72
9, 54539, Note_on_c, 3, 69, 0
9, 54540, Note_on_c, 3, 62, 72
9, 54599, Note_on_c, 3, 62, 0
9, 54600, Note_on_c, 3, 64, 72
9, 54659, Note_on_c, 3, 64, 0
9, 54660, Note_on_c, 3, 66, 72
9, 54719, Note_on_c, 3, 66, 0
9, 54720, Note_on_c, 3, 67, 72
9, 55079, Note_on_c, 3, 67, 0
9, 55080, Note_on_c, 3, 67, 72
9, 55199, Note_on_c, 3, 67, 0
9, 55200, Note_on_c, 3, 66, 72
9, 55319, Note_on_c, 3, 66, 0
9, 55320, Note_on_c, 3, 66, 72
9, 55439, Note_on_c, 3, 66, 0
9, 55440, Note_on_c, 3, 67, 72
9, 55679, Note_on_c, 3, 67, 0
9, 55680, Note_on_c, 3, 69, 72
9, 55919, Note_on_c, 3, 69, 0
9, 55920, Note_on_c, 3, 70, 72
9, 55979, Note_on_c, 3, 70, 0
9, 55980, Note_on_c, 3, 69, 72
9, 56039, Note_on_c, 3, 69, 0
9, 56040, Note_on_c, 3, 67, 72
9, 56219, Note_on_c, 3, 67, 0
9, 56220, Note_on_c, 3, 69, 72
9, 56279, Note_on_c, 3, 69, 0
9, 56280, Note_on_c, 3, 70, 72
9, 56339, Note_on_c, 3, 70, 0
9, 56340, Note_on_c, 3, 67, 72
9, 56399, Note_on_c, 3, 67, 0
9, 56400, Note_on_c, 3, 72, 72
9, 56459, Note_on_c, 3, 72, 0
9, 56460, Note_on_c, 3, 70, 72
9, 56519, Note_on_c, 3, 70, 0
9, 56520, Note_on_c, 3, 69, 72
9, 56579, Note_on_c, 3, 69, 0
9, 56580, Note_on_c, 3, 70, 72
9, 56639, Note_on_c, 3, 70, 0
9, 56640, Note_on_c, 3, 72, 72
9, 56699, Note_on_c, 3, 72, 0
9, 56700, Note_on_c, 3, 70, 72
9, 56759, Note_on_c, 3, 70, 0
9, 56760, Note_on_c, 3, 69, 72
9, 56819, Note_on_c, 3, 69, 0
9, 56820, Note_on_c, 3, 70, 72
9, 56879, Note_on_c, 3, 70, 0
9, 56880, Note_on_c, 3, 67, 72
9, 57059, Note_on_c, 3, 67, 0
9, 57060, Note_on_c, 3, 67, 72
9, 57119, Note_on_c, 3, 67, 0
9, 57120, Note_on_c, 3, 67, 72
9, 57359, Note_on_c, 3, 67, 0
9, 57480, Note_on_c, 3, 72, 72
9, 57719, Note_on_c, 3, 72, 0
9, 57720, Note_on_c, 3, 70, 72
9, 57839, Note_on_c, 3, 70, 0
9, 57840, Note_on_c, 3, 69, 72
9, 57959, Note_on_c, 3, 69, 0
9, 57960, Note_on_c, 3, 67, 72
9, 58019, Note_on_c, 3, 67, 0
9, 58020, Note_on_c, 3, 65, 72
9, 58079, Note_on_c, 3, 65, 0
9, 58080, Note_on_c, 3, 64, 72
9, 58319, Note_on_c, 3, 64, 0
9, 58440, Note_on_c, 3, 69, 72
9, 58679, Note_on_c, 3, 69, 0
9, 58680, Note_on_c, 3, 67, 72
9, 58799, Note_on_c, 3, 67, 0
9, 58800, Note_on_c, 3, 65, 72
9, 58919, Note_on_c, 3, 65, 0
9, 58920, Note_on_c, 3, 63, 72
9, 58979, Note_on_c, 3, 63, 0
9, 58980, Note_on_c, 3, 62, 72
9, 59039, Note_on_c, 3, 62, 0
9, 59040, Note_on_c, 3, 60, 72
9, 59279, Note_on_c, 3, 60, 0
9, 59400, Note_on_c, 3, 65, 72
9, 59639, Note_on_c, 3, 65, 0
9, 59640, Note_on_c, 3, 64, 72
9, 59759, Note_on_c, 3, 64, 0
9, 59760, Note_on_c, 3, 62, 72
9, 59999, Note_on_c, 3, 62, 0
9, 60360, Note_on_c, 3, 65, 72
9, 60479, Note_on_c, 3, 65, 0
9, 60480, Note_on_c, 3, 65, 72
9, 60599, Note_on_c, 3, 65, 0
9, 60600, Note_on_c, 3, 65, 72
9, 60719, Note_on_c, 3, 65, 0
9, 60720, Note_on_c, 3, 69, 72
9, 60899, Note_on_c, 3, 69, 0
9, 60900, Note_on_c, 3, 67, 72
9, 60959, Note_on_c, 3, 67, 0
9, 60960, Note_on_c, 3, 65, 72
9, 61199, Note_on_c, 3, 65, 0
9, 61320, Note_on_c, 3, 65, 72
9, 61439, Note_on_c, 3, 65, 0
9, 61440, Note_on_c, 3, 65, 72
9, 61559, Note_on_c, 3, 65, 0
9, 61560, Note_on_c, 3, 65, 72
9, 61679, Note_on_c, 3, 65, 0
9, 61680, Note_on_c, 3, 65, 72
9, 61859, Note_on_c, 3, 65, 0
9, 61860, Note_on_c, 3, 64, 72
9, 61919, Note_on_c, 3, 64, 0
9, 61920, Note_on_c, 3, 62, 72
9, 62159, Note_on_c, 3, 62, 0
9, 62160, Note_on_c, 3, 71, 72
9, 62399, Note_on_c, 3, 71, 0
9, 62400, Note_on_c, 3, 71, 72
9, 62519, Note_on_c, 3, 71, 0
9, 62520, Note_on_c, 3, 71, 72
9, 62639, Note_on_c, 3, 71, 0
9, 62640, Note_on_c, 3, 69, 72
9, 62759, Note_on_c, 3, 69, 0
9, 62760, Note_on_c, 3, 69, 72
9, 62879, Note_on_c, 3, 69, 0
9, 63000, Note_on_c, 3, 64, 48
9, 63119, Note_on_c, 3, 64, 0
9, 63120, Note_on_c, 3, 65, 48
9, 63359, Note_on_c, 3, 65, 0
9, 63360, Note_on_c, 3, 67, 48
9, 63599, Note_on_c, 3, 67, 0
9, 63600, Note_on_c, 3, 65, 48
9, 63779, Note_on_c, 3, 65, 0
9, 63780, Note_on_c, 3, 65, 48
9, 63839, Note_on_c, 3, 65, 0
9, 63840, Note_on_c, 3, 64, 48
9, 64079, Note_on_c, 3, 64, 0
9, 64080, Note_on_c, 3, 62, 48
9, 64319, Note_on_c, 3, 62, 0
9, 64320, Note_on_c, 3, 62, 48
9, 64439, Note_on_c, 3, 62, 0
9, 64440, Note_on_c, 3, 62, 48
9, 64559, Note_on_c, 3, 62, 0
9, 64560, Note_on_c, 3, 62, 48
9, 64799, Note_on_c, 3, 62, 0
9, 64800, Note_on_c, 3, 61, 48
9, 64919, Note_on_c, 3, 61, 0
9, 64920, Note_on_c, 3, 59, 48
9, 65039, Note_on_c, 3, 59, 0
9, 65040, Note_on_c, 3, 61, 48
9, 65519, Note_on_c, 3, 61, 0
9, 66600, Note_on_c, 3, 64, 72
9, 66719, Note_on_c, 3, 64, 0
9, 66720, Note_on_c, 3, 64, 72
9, 66839, Note_on_c, 3, 64, 0
9, 66840, Note_on_c, 3, 64, 72
9, 66959, Note_on_c, 3, 64, 0
9, 66960, Note_on_c, 3, 65, 72
9, 67019, Note_on_c, 3, 65, 0
9, 67020, Note_on_c, 3, 67, 72
9, 67079, Note_on_c, 3, 67, 0
9, 67080, Note_on_c, 3, 65, 72
9, 67139, Note_on_c, 3, 65, 0
9, 67140, Note_on_c, 3, 64, 72
9, 67199, Note_on_c, 3, 64, 0
9, 67200, Note_on_c, 3, 65, 72
9, 67259, Note_on_c, 3, 65, 0
9, 67260, Note_on_c, 3, 67, 72
9, 67319, Note_on_c, 3, 67, 0
9, 67320, Note_on_c, 3, 64, 72
9, 67379, Note_on_c, 3, 64, 0
9, 67380, Note_on_c, 3, 65, 72
9, 67439, Note_on_c, 3, 65, 0
9, 67440, Note_on_c, 3, 67, 72
9, 67499, Note_on_c, 3, 67, 0
9, 67500, Note_on_c, 3, 69, 72
9, 67559, Note_on_c, 3, 69, 0
9, 67560, Note_on_c, 3, 67, 72
9, 67619, Note_on_c, 3, 67, 0
9, 67620, Note_on_c, 3, 65, 72
9, 67679, Note_on_c, 3, 65, 0
9, 67680, Note_on_c, 3, 67, 72
9, 67739, Note_on_c, 3, 67, 0
9, 67740, Note_on_c, 3, 69, 72
9, 67799, Note_on_c, 3, 69, 0
9, 67800, Note_on_c, 3, 65, 72
9, 67859, Note_on_c, 3, 65, 0
9, 67860, Note_on_c, 3, 67, 72
9, 67919, Note_on_c, 3, 67, 0
9, 67920, Note_on_c, 3, 69, 72
9, 68039, Note_on_c, 3, 69, 0
9, 68040, Note_on_c, 3, 70, 72
9, 68099, Note_on_c, 3, 70, 0
9, 68100, Note_on_c, 3, 69, 72
9, 68159, Note_on_c, 3, 69, 0
9, 68160, Note_on_c, 3, 67, 72
9, 68219, Note_on_c, 3, 67, 0
9, 68220, Note_on_c, 3, 65, 72
9, 68279, Note_on_c, 3, 65, 0
9, 68280, Note_on_c, 3, 64, 72
9, 68339, Note_on_c, 3, 64, 0
9, 68340, Note_on_c, 3, 62, 72
9, 68399, Note_on_c, 3, 62, 0
9, 68400, Note_on_c, 3, 61, 72
9, 68519, Note_on_c, 3, 61, 0
9, 68520, Note_on_c, 3, 64, 72
9, 68639, Note_on_c, 3, 64, 0
9, 68640, Note_on_c, 3, 69, 72
9, 68759, Note_on_c, 3, 69, 0
9, 68760, Note_on_c, 3, 67, 72
9, 68879, Note_on_c, 3, 67, 0
9, 68880, Note_on_c, 3, 65, 72
9, 68999, Note_on_c, 3, 65, 0
9, 69000, Note_on_c, 3, 64, 72
9, 69059, Note_on_c, 3, 64, 0
9, 69060, Note_on_c, 3, 65, 72
9, 69119, Note_on_c, 3, 65, 0
9, 69120, Note_on_c, 3, 62, 72
9, 69179, Note_on_c, 3, 62, 0
9, 69180, Note_on_c, 3, 64, 72
9, 69239, Note_on_c, 3, 64, 0
9, 69240, Note_on_c, 3, 66, 72
9, 69299, Note_on_c, 3, 66, 0
9, 69300, Note_on_c, 3, 68, 72
9, 69359, Note_on_c, 3, 68, 0
9, 69360, Note_on_c, 3, 69, 72
9, 69599, Note_on_c, 3, 69, 0
9, 72240, Note_on_c, 3, 69, 72
9, 72719, Note_on_c, 3, 69, 0
9, 72720, Note_on_c, 3, 65, 72
9, 72959, Note_on_c, 3, 65, 0
9, 72960, Note_on_c, 3, 70, 72
9, 73199, Note_on_c, 3, 70, 0
9, 73200, Note_on_c, 3, 61, 72
9, 73679, Note_on_c, 3, 61, 0
9, 73680, Note_on_c, 3, 62, 72
9, 73919, Note_on_c, 3, 62, 0
9, 73920, Note_on_c, 3, 62, 72
9, 74039, Note_on_c, 3, 62, 0
9, 74040, Note_on_c, 3, 62, 72
9, 74159, Note_on_c, 3, 62, 0
9, 74160, Note_on_c, 3, 64, 72
9, 74519, Note_on_c, 3, 64, 0
9, 74520, Note_on_c, 3, 62, 72
9, 74579, Note_on_c, 3, 62, 0
9, 74580, Note_on_c, 3, 64, 72
9, 74639, Note_on_c, 3, 64, 0
9, 74640, Note_on_c, 3, 65, 72
9, 74759, Note_on_c, 3, 65, 0
9, 74760, Note_on_c, 3, 64, 72
9, 74819, Note_on_c, 3, 64, 0
9, 74820, Note_on_c, 3, 65, 72
9, 74879, Note_on_c, 3, 65, 0
9, 74880, Note_on_c, 3, 67, 72
9, 74999, Note_on_c, 3, 67, 0
9, 75000, Note_on_c, 3, 65, 72
9, 75059, Note_on_c, 3, 65, 0
9, 75060, Note_on_c, 3, 67, 72
9, 75119, Note_on_c, 3, 67, 0
9, 75120, Note_on_c, 3, 69, 72
9, 75239, Note_on_c, 3, 69, 0
9, 75240, Note_on_c, 3, 67, 72
9, 75359, Note_on_c, 3, 67, 0
9, 75360, Note_on_c, 3, 65, 72
9, 75479, Note_on_c, 3, 65, 0
9, 75480, Note_on_c, 3, 64, 72
9, 75599, Note_on_c, 3, 64, 0
9, 75600, Note_on_c, 3, 62, 72
9, 75779, Note_on_c, 3, 62, 0
9, 75780, Note_on_c, 3, 64, 72
9, 75839, Note_on_c, 3, 64, 0
9, 75840, Note_on_c, 3, 66, 72
9, 75959, Note_on_c, 3, 66, 0
9, 75960, Note_on_c, 3, 68, 72
9, 76079, Note_on_c, 3, 68, 0
9, 76080, Note_on_c, 3, 69, 72
9, 76199, Note_on_c, 3, 69, 0
9, 76200, Note_on_c, 3, 64, 72
9, 76439, Note_on_c, 3, 64, 0
9, 76440, Note_on_c, 3, 62, 72
9, 76499, Note_on_c, 3, 62, 0
9, 76500, Note_on_c, 3, 60, 72
9, 76559, Note_on_c, 3, 60, 0
9, 76560, Note_on_c, 3, 58, 72
9, 76799, Note_on_c, 3, 58, 0
9, 77160, Note_on_c, 3, 64, 72
9, 77279, Note_on_c, 3, 64, 0
9, 77280, Note_on_c, 3, 69, 72
9, 77579, Note_on_c, 3, 69, 0
9, 77580, Note_on_c, 3, 67, 72
9, 77639, Note_on_c, 3, 67, 0
9, 77640, Note_on_c, 3, 65, 72
9, 77699, Note_on_c, 3, 65, 0
9, 77700, Note_on_c, 3, 64, 72
9, 77759, Note_on_c, 3, 64, 0
9, 77760, Note_on_c, 3, 65, 72
9, 77879, Note_on_c, 3, 65, 0
9, 77880, Note_on_c, 3, 67, 72
9, 77939, Note_on_c, 3, 67, 0
9, 77940, Note_on_c, 3, 65, 72
9, 77999, Note_on_c, 3, 65, 0
9, 78000, Note_on_c, 3, 64, 72
9, 78239, Note_on_c, 3, 64, 0
9, 78600, Note_on_c, 3, 64, 72
9, 78719, Note_on_c, 3, 64, 0
9, 78720, Note_on_c, 3, 66, 72
9, 78839, Note_on_c, 3, 66, 0
9, 78840, Note_on_c, 3, 68, 72
9, 78959, Note_on_c, 3, 68, 0
9, 78960, Note_on_c, 3, 69, 72
9, 79199, Note_on_c, 3, 69, 0
9, 79560, Note_on_c, 3, 69, 72
9, 79679, Note_on_c, 3, 69, 0
9, 79680, Note_on_c, 3, 74, 72
9, 79799, Note_on_c, 3, 74, 0
9, 79800, Note_on_c, 3, 72, 72
9, 79919, Note_on_c, 3, 72, 0
9, 79920, Note_on_c, 3, 70, 72
9, 79979, Note_on_c, 3, 70, 0
9, 79980, Note_on_c, 3, 69, 72
9, 80039, Note_on_c, 3, 69, 0
9, 80040, Note_on_c, 3, 67, 72
9, 80219, Note_on_c, 3, 67, 0
9, 80220, Note_on_c, 3, 69, 72
9, 80279, Note_on_c, 3, 69, 0
9, 80280, Note_on_c, 3, 65, 72
9, 80339, Note_on_c, 3, 65, 0
9, 80340, Note_on_c, 3, 67, 72
9, 80399, Note_on_c, 3, 67, 0
9, 80400, Note_on_c, 3, 64, 72
9, 80639, Note_on_c, 3, 64, 0
9, 80640, Note_on_c, 3, 65, 72
9, 80759, Note_on_c, 3, 65, 0
9, 80760, Note_on_c, 3, 67, 72
9, 80879, Note_on_c, 3, 67, 0
9, 80880, Note_on_c, 3, 60, 72
9, 81119, Note_on_c, 3, 60, 0
9, 81480, Note_on_c, 3, 60, 72
9, 81599, Note_on_c, 3, 60, 0
9, 81600, Note_on_c, 3, 60, 72
9, 81719, Note_on_c, 3, 60, 0
9, 81720, Note_on_c, 3, 58, 72
9, 81839, Note_on_c, 3, 58, 0
9, 81840, Note_on_c, 3, 57, 72
9, 81959, Note_on_c, 3, 57, 0
9, 81960, Note_on_c, 3, 65, 72
9, 82079, Note_on_c, 3, 65, 0
9, 82080, Note_on_c, 3, 62, 72
9, 82199, Note_on_c, 3, 62, 0
9, 82200, Note_on_c, 3, 58, 72
9, 82319, Note_on_c, 3, 58, 0
9, 82440, Note_on_c, 3, 67, 72
9, 82559, Note_on_c, 3, 67, 0
9, 82560, Note_on_c, 3, 64, 72
9, 82679, Note_on_c, 3, 64, 0
9, 82680, Note_on_c, 3, 60, 72
9, 82799, Note_on_c, 3, 60, 0
9, 82920, Note_on_c, 3, 64, 72
9, 82979, Note_on_c, 3, 64, 0
9, 82980, Note_on_c, 3, 65, 72
9, 83039, Note_on_c, 3, 65, 0
9, 83040, Note_on_c, 3, 67, 72
9, 83159, Note_on_c, 3, 67, 0
9, 83160, Note_on_c, 3, 65, 72
9, 83219, Note_on_c, 3, 65, 0
9, 83220, Note_on_c, 3, 67, 72
9, 83279, Note_on_c, 3, 67, 0
9, 83280, Note_on_c, 3, 69, 72
9, 83399, Note_on_c, 3, 69, 0
9, 83400, Note_on_c, 3, 64, 72
9, 83519, Note_on_c, 3, 64, 0
9, 83520, Note_on_c, 3, 65, 72
9, 83639, Note_on_c, 3, 65, 0
9, 83640, Note_on_c, 3, 61, 72
9, 83759, Note_on_c, 3, 61, 0
9, 83760, Note_on_c, 3, 62, 72
9, 83999, Note_on_c, 3, 62, 0
9, 84000, Note_on_c, 3, 64, 72
9, 84119, Note_on_c, 3, 64, 0
9, 84120, Note_on_c, 3, 66, 72
9, 84239, Note_on_c, 3, 66, 0
9, 84240, Note_on_c, 3, 67, 72
9, 84479, Note_on_c, 3, 67, 0
9, 84840, Note_on_c, 3, 63, 72
9, 84959, Note_on_c, 3, 63, 0
9, 84960, Note_on_c, 3, 62, 72
9, 85079, Note_on_c, 3, 62, 0
9, 85080, Note_on_c, 3, 60, 72
9, 85199, Note_on_c, 3, 60, 0
9, 85200, Note_on_c, 3, 58, 72
9, 85319, Note_on_c, 3, 58, 0
9, 85320, Note_on_c, 3, 55, 72
9, 85439, Note_on_c, 3, 55, 0
9, 85440, Note_on_c, 3, 63, 72
9, 85799, Note_on_c, 3, 63, 0
9, 85800, Note_on_c, 3, 60, 72
9, 85919, Note_on_c, 3, 60, 0
9, 85920, Note_on_c, 3, 65, 72
9, 86399, Note_on_c, 3, 65, 0
9, 86400, Note_on_c, 3, 63, 72
9, 86639, Note_on_c, 3, 63, 0
9, 86640, Note_on_c, 3, 62, 72
9, 86759, Note_on_c, 3, 62, 0
9, 86760, Note_on_c, 3, 66, 72
9, 86879, Note_on_c, 3, 66, 0
9, 86880, Note_on_c, 3, 67, 72
9, 86999, Note_on_c, 3, 67, 0
9, 87000, Note_on_c, 3, 69, 72
9, 87119, Note_on_c, 3, 69, 0
9, 87120, Note_on_c, 3, 62, 72
9, 87239, Note_on_c, 3, 62, 0
9, 87240, Note_on_c, 3, 68, 72
9, 87359, Note_on_c, 3, 68, 0
9, 87360, Note_on_c, 3, 67, 72
9, 87599, Note_on_c, 3, 67, 0
9, 88200, Note_on_c, 3, 62, 72
9, 88319, Note_on_c, 3, 62, 0
9, 88320, Note_on_c, 3, 62, 72
9, 88439, Note_on_c, 3, 62, 0
9, 88440, Note_on_c, 3, 62, 72
9, 88559, Note_on_c, 3, 62, 0
9, 88560, Note_on_c, 3, 63, 72
9, 88619, Note_on_c, 3, 63, 0
9, 88620, Note_on_c, 3, 65, 72
9, 88679, Note_on_c, 3, 65, 0
9, 88680, Note_on_c, 3, 63, 72
9, 88739, Note_on_c, 3, 63, 0
9, 88740, Note_on_c, 3, 62, 72
9, 88799, Note_on_c, 3, 62, 0
9, 88800, Note_on_c, 3, 63, 72
9, 88859, Note_on_c, 3, 63, 0
9, 88860, Note_on_c, 3, 65, 72
9, 88919, Note_on_c, 3, 65, 0
9, 88920, Note_on_c, 3, 62, 72
9, 88979, Note_on_c, 3, 62, 0
9, 88980, Note_on_c, 3, 63, 72
9, 89039, Note_on_c, 3, 63, 0
9, 89040, Note_on_c, 3, 65, 72
9, 89099, Note_on_c, 3, 65, 0
9, 89100, Note_on_c, 3, 67, 72
9, 89159, Note_on_c, 3, 67, 0
9, 89160, Note_on_c, 3, 65, 72
9, 89219, Note_on_c, 3, 65, 0
9, 89220, Note_on_c, 3, 63, 72
9, 89279, Note_on_c, 3, 63, 0
9, 89280, Note_on_c, 3, 65, 72
9, 89339, Note_on_c, 3, 65, 0
9, 89340, Note_on_c, 3, 67, 72
9, 89399, Note_on_c, 3, 67, 0
9, 89400, Note_on_c, 3, 63, 72
9, 89459, Note_on_c, 3, 63, 0
9, 89460, Note_on_c, 3, 65, 72
9, 89519, Note_on_c, 3, 65, 0
9, 89520, Note_on_c, 3, 67, 72
9, 89639, Note_on_c, 3, 67, 0
9, 89640, Note_on_c, 3, 68, 72
9, 89699, Note_on_c, 3, 68, 0
9, 89700, Note_on_c, 3, 67, 72
9, 89759, Note_on_c, 3, 67, 0
9, 89760, Note_on_c, 3, 65, 72
9, 89819, Note_on_c, 3, 65, 0
9, 89820, Note_on_c, 3, 63, 72
9, 89879, Note_on_c, 3, 63, 0
9, 89880, Note_on_c, 3, 62, 72
9, 89939, Note_on_c, 3, 62, 0
9, 89940, Note_on_c, 3, 60, 72
9, 89999, Note_on_c, 3, 60, 0
9, 90000, Note_on_c, 3, 59, 72
9, 90119, Note_on_c, 3, 59, 0
9, 90120, Note_on_c, 3, 62, 72
9, 90239, Note_on_c, 3, 62, 0
9, 90240, Note_on_c, 3, 67, 72
9, 90359, Note_on_c, 3, 67, 0
9, 90360, Note_on_c, 3, 65, 72
9, 90479, Note_on_c, 3, 65, 0
9, 90480, Note_on_c, 3, 63, 72
9, 90839, Note_on_c, 3, 63, 0
9, 90840, Note_on_c, 3, 62, 72
9, 90959, Note_on_c, 3, 62, 0
9, 90960, Note_on_c, 3, 60, 72
9, 91079, Note_on_c, 3, 60, 0
9, 91080, Note_on_c, 3, 65, 72
9, 91199, Note_on_c, 3, 65, 0
9, 91200, Note_on_c, 3, 67, 72
9, 91319, Note_on_c, 3, 67, 0
9, 91320, Note_on_c, 3, 69, 72
9, 91439, Note_on_c, 3, 69, 0
9, 91440, Note_on_c, 3, 70, 72
9, 91559, Note_on_c, 3, 70, 0
9, 91560, Note_on_c, 3, 58, 72
9, 91679, Note_on_c, 3, 58, 0
9, 91680, Note_on_c, 3, 63, 72
9, 91859, Note_on_c, 3, 63, 0
9, 91860, Note_on_c, 3, 62, 72
9, 91919, Note_on_c, 3, 62, 0
9, 91920, Note_on_c, 3, 60, 72
9, 92039, Note_on_c, 3, 60, 0
9, 92040, Note_on_c, 3, 60, 72
9, 92159, Note_on_c, 3, 60, 0
9, 92160, Note_on_c, 3, 65, 72
9, 92519, Note_on_c, 3, 65, 0
9, 92520, Note_on_c, 3, 63, 72
9, 92579, Note_on_c, 3, 63, 0
9, 92580, Note_on_c, 3, 62, 72
9, 92639, Note_on_c, 3, 62, 0
9, 92640, Note_on_c, 3, 63, 72
9, 92699, Note_on_c, 3, 63, 0
9, 92700, Note_on_c, 3, 65, 72
9, 92759, Note_on_c, 3, 65, 0
9, 92760, Note_on_c, 3, 62, 72
9, 92819, Note_on_c, 3, 62, 0
9, 92820, Note_on_c, 3, 63, 72
9, 92879, Note_on_c, 3, 63, 0
9, 92880, Note_on_c, 3, 60, 72
9, 92999, Note_on_c, 3, 60, 0
9, 93000, Note_on_c, 3, 62, 72
9, 93059, Note_on_c, 3, 62, 0
9, 93060, Note_on_c, 3, 63, 72
9, 93119, Note_on_c, 3, 63, 0
9, 93120, Note_on_c, 3, 65, 72
9, 93479, Note_on_c, 3, 65, 0
9, 93480, Note_on_c, 3, 58, 72
9, 93719, Note_on_c, 3, 58, 0
9, 93720, Note_on_c, 3, 67, 72
9, 93839, Note_on_c, 3, 67, 0
9, 93840, Note_on_c, 3, 65, 72
9, 94079, Note_on_c, 3, 65, 0
9, 95760, Note_on_c, 3, 72, 72
9, 96239, Note_on_c, 3, 72, 0
9, 96240, Note_on_c, 3, 68, 72
9, 96479, Note_on_c, 3, 68, 0
9, 96480, Note_on_c, 3, 73, 72
9, 96719, Note_on_c, 3, 73, 0
9, 96720, Note_on_c, 3, 64, 72
9, 97199, Note_on_c, 3, 64, 0
9, 97200, Note_on_c, 3, 65, 72
9, 97439, Note_on_c, 3, 65, 0
9, 98760, Note_on_c, 3, 62, 72
9, 98879, Note_on_c, 3, 62, 0
9, 98880, Note_on_c, 3, 62, 72
9, 98999, Note_on_c, 3, 62, 0
9, 99000, Note_on_c, 3, 62, 72
9, 99119, Note_on_c, 3, 62, 0
9, 99120, Note_on_c, 3, 63, 72
9, 99179, Note_on_c, 3, 63, 0
9, 99180, Note_on_c, 3, 65, 72
9, 99239, Note_on_c, 3, 65, 0
9, 99240, Note_on_c, 3, 63, 72
9, 99299, Note_on_c, 3, 63, 0
9, 99300, Note_on_c, 3, 62, 72
9, 99359, Note_on_c, 3, 62, 0
9, 99360, Note_on_c, 3, 64, 72
9, 99419, Note_on_c, 3, 64, 0
9, 99420, Note_on_c, 3, 65, 72
9, 99479, Note_on_c, 3, 65, 0
9, 99480, Note_on_c, 3, 62, 72
9, 99539, Note_on_c, 3, 62, 0
9, 99540, Note_on_c, 3, 64, 72
9, 99599, Note_on_c, 3, 64, 0
9, 99600, Note_on_c, 3, 65, 72
9, 99659, Note_on_c, 3, 65, 0
9, 99660, Note_on_c, 3, 67, 72
9, 99719, Note_on_c, 3, 67, 0
9, 99720, Note_on_c, 3, 65, 72
9, 99779, Note_on_c, 3, 65, 0
9, 99780, Note_on_c, 3, 64, 72
9, 99839, Note_on_c, 3, 64, 0
9, 99840, Note_on_c, 3, 66, 72
9, 99899, Note_on_c, 3, 66, 0
9, 99900, Note_on_c, 3, 67, 72
9, 99959, Note_on_c, 3, 67, 0
9, 99960, Note_on_c, 3, 64, 72
9, 100019, Note_on_c, 3, 64, 0
9, 100020, Note_on_c, 3, 66, 72
9, 100079, Note_on_c, 3, 66, 0
9, 100080, Note_on_c, 3, 67, 72
9, 100199, Note_on_c, 3, 67, 0
9, 100200, Note_on_c, 3, 62, 72
9, 100319, Note_on_c, 3, 62, 0
9, 100320, Note_on_c, 3, 67, 72
9, 100439, Note_on_c, 3, 67, 0
9, 100440, Note_on_c, 3, 65, 72
9, 100559, Note_on_c, 3, 65, 0
9, 100560, Note_on_c, 3, 64, 72
9, 100679, Note_on_c, 3, 64, 0
9, 100680, Note_on_c, 3, 57, 72
9, 100799, Note_on_c, 3, 57, 0
9, 100800, Note_on_c, 3, 69, 72
9, 100919, Note_on_c, 3, 69, 0
9, 100920, Note_on_c, 3, 67, 72
9, 101039, Note_on_c, 3, 67, 0
9, 101040, Note_on_c, 3, 65, 72
9, 101279, Note_on_c, 3, 65, 0
9, 101280, Note_on_c, 3, 69, 72
9, 101519, Note_on_c, 3, 69, 0
9, 101520, Note_on_c, 3, 62, 72
9, 101639, Note_on_c, 3, 62, 0
9, 101640, Note_on_c, 3, 71, 72
9, 101759, Note_on_c, 3, 71, 0
9, 101760, Note_on_c, 3, 71, 72
9, 101999, Note_on_c, 3, 71, 0
9, 102000, Note_on_c, 3, 64, 72
9, 102119, Note_on_c, 3, 64, 0
9, 102120, Note_on_c, 3, 61, 72
9, 102239, Note_on_c, 3, 61, 0
9, 102240, Note_on_c, 3, 62, 72
9, 102359, Note_on_c, 3, 62, 0
9, 102360, Note_on_c, 3, 64, 72
9, 102479, Note_on_c, 3, 64, 0
9, 102480, Note_on_c, 3, 65, 72
9, 102599, Note_on_c, 3, 65, 0
9, 102600, Note_on_c, 3, 64, 72
9, 102659, Note_on_c, 3, 64, 0
9, 102660, Note_on_c, 3, 65, 72
9, 102719, Note_on_c, 3, 65, 0
9, 102720, Note_on_c, 3, 67, 72
9, 102839, Note_on_c, 3, 67, 0
9, 102840, Note_on_c, 3, 65, 72
9, 102899, Note_on_c, 3, 65, 0
9, 102900, Note_on_c, 3, 67, 72
9, 102959, Note_on_c, 3, 67, 0
9, 102960, Note_on_c, 3, 69, 72
9, 103079, Note_on_c, 3, 69, 0
9, 103080, Note_on_c, 3, 70, 72
9, 103199, Note_on_c, 3, 70, 0
9, 103200, Note_on_c, 3, 69, 72
9, 103319, Note_on_c, 3, 69, 0
9, 103320, Note_on_c, 3, 67, 72
9, 103439, Note_on_c, 3, 67, 0
9, 103440, Note_on_c, 3, 65, 72
9, 103559, Note_on_c, 3, 65, 0
9, 103560, Note_on_c, 3, 69, 72
9, 103679, Note_on_c, 3, 69, 0
9, 103680, Note_on_c, 3, 74, 72
9, 104159, Note_on_c, 3, 74, 0
9, 104160, Note_on_c, 3, 73, 72
9, 104399, Note_on_c, 3, 73, 0
9, 105120, Note_on_c, 3, 70, 72
9, 105359, Note_on_c, 3, 70, 0
9, 105360, Note_on_c, 3, 70, 72
9, 105599, Note_on_c, 3, 70, 0
9, 105600, Note_on_c, 3, 69, 72
9, 105839, Note_on_c, 3, 69, 0
9, 105840, Note_on_c, 3, 69, 72
9, 106079, Note_on_c, 3, 69, 0
9, 106080, Note_on_c, 3, 68, 72
9, 106319, Note_on_c, 3, 68, 0
9, 106320, Note_on_c, 3, 69, 72
9, 106559, Note_on_c, 3, 69, 0
9, 106560, Note_on_c, 3, 69, 72
9, 106799, Note_on_c, 3, 69, 0
9, 106800, Note_on_c, 3, 65, 72
9, 107039, Note_on_c, 3, 65, 0
9, 107040, Note_on_c, 3, 70, 72
9, 107279, Note_on_c, 3, 70, 0
9, 107280, Note_on_c, 3, 61, 72
9, 107759, Note_on_c, 3, 61, 0
9, 107760, Note_on_c, 3, 62, 72
9, 107999, Note_on_c, 3, 62, 0
9, 108000, Note_on_c, 3, 62, 72
9, 108119, Note_on_c, 3, 62, 0
9, 108120, Note_on_c, 3, 62, 72
9, 108239, Note_on_c, 3, 62, 0
9, 108240, Note_on_c, 3, 64, 72
9, 108599, Note_on_c, 3, 64, 0
9, 108600, Note_on_c, 3, 62, 72
9, 108659, Note_on_c, 3, 62, 0
9, 108660, Note_on_c, 3, 64, 72
9, 108719, Note_on_c, 3, 64, 0
9, 108720, Note_on_c, 3, 65, 72
9, 108959, Note_on_c, 3, 65, 0
9, 109320, Note_on_c, 3, 64, 72
9, 109439, Note_on_c, 3, 64, 0
9, 109440, Note_on_c, 3, 64, 72
9, 109559, Note_on_c, 3, 64, 0
9, 109560, Note_on_c, 3, 64, 72
9, 109679, Note_on_c, 3, 64, 0
9, 109680, Note_on_c, 3, 65, 72
9, 109739, Note_on_c, 3, 65, 0
9, 109740, Note_on_c, 3, 67, 72
9, 109799, Note_on_c, 3, 67, 0
9, 109800, Note_on_c, 3, 65, 72
9, 109859, Note_on_c, 3, 65, 0
9, 109860, Note_on_c, 3, 64, 72
9, 109919, Note_on_c, 3, 64, 0
9, 109920, Note_on_c, 3, 66, 72
9, 109979, Note_on_c, 3, 66, 0
9, 109980, Note_on_c, 3, 67, 72
9, 110039, Note_on_c, 3, 67, 0
9, 110040, Note_on_c, 3, 64, 72
9, 110099, Note_on_c, 3, 64, 0
9, 110100, Note_on_c, 3, 66, 72
9, 110159, Note_on_c, 3, 66, 0
9, 110160, Note_on_c, 3, 67, 72
9, 110219, Note_on_c, 3, 67, 0
9, 110220, Note_on_c, 3, 69, 72
9, 110279, Note_on_c, 3, 69, 0
9, 110280, Note_on_c, 3, 67, 72
9, 110339, Note_on_c, 3, 67, 0
9, 110340, Note_on_c, 3, 66, 72
9, 110399, Note_on_c, 3, 66, 0
9, 110400, Note_on_c, 3, 68, 72
9, 110459, Note_on_c, 3, 68, 0
9, 110460, Note_on_c, 3, 69, 72
9, 110519, Note_on_c, 3, 69, 0
9, 110520, Note_on_c, 3, 66, 72
9, 110579, Note_on_c, 3, 66, 0
9, 110580, Note_on_c, 3, 68, 72
9, 110639, Note_on_c, 3, 68, 0
9, 110640, Note_on_c, 3, 69, 72
9, 110879, Note_on_c, 3, 69, 0
9, 110880, Note_on_c, 3, 69, 72
9, 111119, Note_on_c, 3, 69, 0
9, 111120, Note_on_c, 3, 67, 72
9, 111359, Note_on_c, 3, 67, 0
9, 111360, Note_on_c, 3, 71, 72
9, 111599, Note_on_c, 3, 71, 0
9, 111600, Note_on_c, 3, 69, 72
9, 111719, Note_on_c, 3, 69, 0
9, 111720, Note_on_c, 3, 67, 72
9, 111839, Note_on_c, 3, 67, 0
9, 111840, Note_on_c, 3, 65, 72
9, 111959, Note_on_c, 3, 65, 0
9, 111960, Note_on_c, 3, 70, 72
9, 112079, Note_on_c, 3, 70, 0
9, 112080, Note_on_c, 3, 69, 72
9, 112559, Note_on_c, 3, 69, 0
9, 112560, Note_on_c, 3, 71, 72
9, 113039, Note_on_c, 3, 71, 0
9, 113280, Note_on_c, 3, 71, 72
9, 113459, Note_on_c, 3, 71, 0
9, 113460, Note_on_c, 3, 71, 72
9, 113519, Note_on_c, 3, 71, 0
9, 113520, Note_on_c, 3, 69, 72
9, 114239, Note_on_c, 3, 69, 0
9, 114240, Note_on_c, 3, 69, 72
9, 114479, Note_on_c, 3, 69, 0
9, 114480, Note_on_c, 3, 69, 72
9, 115439, Note_on_c, 3, 69, 0
9, 115439, End_track
10, 0, Start_track
10, 0, Title_t, "Tenor Trombone"
10, 0, MIDI_port, 0
10, 0, Control_c, 3, 7, 96
10, 0, Control_c, 3, 10, 96
10, 0, Control_c, 3, 11, 127
10, 0, Program_c, 3, 57
10, 960, Note_on_c, 3, 62, 72
10, 1199, Note_on_c, 3, 62, 0
10, 1200, Note_on_c, 3, 57, 72
10, 1439, Note_on_c, 3, 57, 0
10, 1440, Note_on_c, 3, 64, 72
10, 2159, Note_on_c, 3, 64, 0
10, 2160, Note_on_c, 3, 57, 72
10, 2399, Note_on_c, 3, 57, 0
10, 2640, Note_on_c, 3, 62, 72
10, 2879, Note_on_c, 3, 62, 0
10, 2880, Note_on_c, 3, 58, 72
10, 3599, Note_on_c, 3, 58, 0
10, 3600, Note_on_c, 3, 57, 72
10, 3839, Note_on_c, 3, 57, 0
10, 4080, Note_on_c, 3, 62, 72
10, 4319, Note_on_c, 3, 62, 0
10, 4320, Note_on_c, 3, 62, 72
10, 4799, Note_on_c, 3, 62, 0
10, 4800, Note_on_c, 3, 62, 72
10, 5039, Note_on_c, 3, 62, 0
10, 5040, Note_on_c, 3, 62, 72
10, 5759, Note_on_c, 3, 62, 0
10, 5760, Note_on_c, 3, 61, 72
10, 5999, Note_on_c, 3, 61, 0
10, 11040, Note_on_c, 3, 57, 48
10, 11279, Note_on_c, 3, 57, 0
10, 11280, Note_on_c, 3, 58, 48
10, 11519, Note_on_c, 3, 58, 0
10, 11520, Note_on_c, 3, 57, 48
10, 11759, Note_on_c, 3, 57, 0
10, 11760, Note_on_c, 3, 60, 72
10, 11999, Note_on_c, 3, 60, 0
10, 12000, Note_on_c, 3, 60, 72
10, 12239, Note_on_c, 3, 60, 0
10, 12240, Note_on_c, 3, 60, 72
10, 12959, Note_on_c, 3, 60, 0
10, 12960, Note_on_c, 3, 60, 72
10, 13199, Note_on_c, 3, 60, 0
10, 13440, Note_on_c, 3, 62, 72
10, 13679, Note_on_c, 3, 62, 0
10, 13680, Note_on_c, 3, 65, 72
10, 14399, Note_on_c, 3, 65, 0
10, 14400, Note_on_c, 3, 64, 72
10, 14639, Note_on_c, 3, 64, 0
10, 14880, Note_on_c, 3, 60, 72
10, 15119, Note_on_c, 3, 60, 0
10, 15120, Note_on_c, 3, 58, 72
10, 15599, Note_on_c, 3, 58, 0
10, 15600, Note_on_c, 3, 57, 72
10, 15839, Note_on_c, 3, 57, 0
10, 15840, Note_on_c, 3, 57, 72
10, 16559, Note_on_c, 3, 57, 0
10, 16560, Note_on_c, 3, 64, 72
10, 16799, Note_on_c, 3, 64, 0
10, 24000, Note_on_c, 3, 60, 72
10, 24239, Note_on_c, 3, 60, 0
10, 24240, Note_on_c, 3, 60, 72
10, 24479, Note_on_c, 3, 60, 0
10, 24480, Note_on_c, 3, 62, 72
10, 25199, Note_on_c, 3, 62, 0
10, 25200, Note_on_c, 3, 64, 72
10, 25439, Note_on_c, 3, 64, 0
10, 25680, Note_on_c, 3, 64, 72
10, 25919, Note_on_c, 3, 64, 0
10, 25920, Note_on_c, 3, 62, 72
10, 26639, Note_on_c, 3, 62, 0
10, 26640, Note_on_c, 3, 62, 72
10, 26879, Note_on_c, 3, 62, 0
10, 27120, Note_on_c, 3, 62, 72
10, 27359, Note_on_c, 3, 62, 0
10, 27360, Note_on_c, 3, 64, 72
10, 27839, Note_on_c, 3, 64, 0
10, 27840, Note_on_c, 3, 64, 72
10, 28079, Note_on_c, 3, 64, 0
10, 28080, Note_on_c, 3, 60, 72
10, 28799, Note_on_c, 3, 60, 0
10, 28800, Note_on_c, 3, 62, 72
10, 29039, Note_on_c, 3, 62, 0
10, 35280, Note_on_c, 3, 61, 72
10, 35519, Note_on_c, 3, 61, 0
10, 35520, Note_on_c, 3, 60, 72
10, 35759, Note_on_c, 3, 60, 0
10, 35760, Note_on_c, 3, 58, 72
10, 35999, Note_on_c, 3, 58, 0
10, 36000, Note_on_c, 3, 60, 72
10, 36719, Note_on_c, 3, 60, 0
10, 43680, Note_on_c, 3, 63, 72
10, 43799, Note_on_c, 3, 63, 0
10, 43800, Note_on_c, 3, 63, 72
10, 43919, Note_on_c, 3, 63, 0
10, 43920, Note_on_c, 3, 60, 72
10, 44039, Note_on_c, 3, 60, 0
10, 44040, Note_on_c, 3, 65, 72
10, 44159, Note_on_c, 3, 65, 0
10, 44280, Note_on_c, 3, 65, 72
10, 44399, Note_on_c, 3, 65, 0
10, 44400, Note_on_c, 3, 62, 72
10, 44519, Note_on_c, 3, 62, 0
10, 44520, Note_on_c, 3, 58, 72
10, 44639, Note_on_c, 3, 58, 0
10, 44760, Note_on_c, 3, 62, 72
10, 44879, Note_on_c, 3, 62, 0
10, 44880, Note_on_c, 3, 57, 72
10, 45239, Note_on_c, 3, 57, 0
10, 45240, Note_on_c, 3, 57, 72
10, 45359, Note_on_c, 3, 57, 0
10, 45360, Note_on_c, 3, 58, 72
10, 45479, Note_on_c, 3, 58, 0
10, 45480, Note_on_c, 3, 62, 72
10, 45539, Note_on_c, 3, 62, 0
10, 45540, Note_on_c, 3, 62, 72
10, 45599, Note_on_c, 3, 62, 0
10, 45600, Note_on_c, 3, 67, 72
10, 45719, Note_on_c, 3, 67, 0
10, 45720, Note_on_c, 3, 65, 72
10, 45839, Note_on_c, 3, 65, 0
10, 45840, Note_on_c, 3, 63, 72
10, 45959, Note_on_c, 3, 63, 0
10, 45960, Note_on_c, 3, 65, 72
10, 46199, Note_on_c, 3, 65, 0
10, 46200, Note_on_c, 3, 63, 72
10, 46319, Note_on_c, 3, 63, 0
10, 46320, Note_on_c, 3, 62, 72
10, 46559, Note_on_c, 3, 62, 0
10, 46680, Note_on_c, 3, 62, 72
10, 46799, Note_on_c, 3, 62, 0
10, 46800, Note_on_c, 3, 62, 72
10, 46919, Note_on_c, 3, 62, 0
10, 46920, Note_on_c, 3, 58, 72
10, 47039, Note_on_c, 3, 58, 0
10, 47160, Note_on_c, 3, 58, 72
10, 47279, Note_on_c, 3, 58, 0
10, 47280, Note_on_c, 3, 58, 72
10, 47399, Note_on_c, 3, 58, 0
10, 47400, Note_on_c, 3, 55, 72
10, 47519, Note_on_c, 3, 55, 0
10, 47520, Note_on_c, 3, 55, 72
10, 47879, Note_on_c, 3, 55, 0
10, 47880, Note_on_c, 3, 55, 72
10, 47999, Note_on_c, 3, 55, 0
10, 48000, Note_on_c, 3, 54, 72
10, 48119, Note_on_c, 3, 54, 0
10, 48120, Note_on_c, 3, 55, 72
10, 48239, Note_on_c, 3, 55, 0
10, 48240, Note_on_c, 3, 57, 72
10, 48359, Note_on_c, 3, 57, 0
10, 48360, Note_on_c, 3, 57, 72
10, 48479, Note_on_c, 3, 57, 0
10, 48480, Note_on_c, 3, 58, 72
10, 48599, Note_on_c, 3, 58, 0
10, 48600, Note_on_c, 3, 55, 72
10, 48719, Note_on_c, 3, 55, 0
10, 48720, Note_on_c, 3, 62, 72
10, 49079, Note_on_c, 3, 62, 0
10, 49080, Note_on_c, 3, 60, 72
10, 49199, Note_on_c, 3, 60, 0
10, 49200, Note_on_c, 3, 58, 72
10, 49439, Note_on_c, 3, 58, 0
10, 52800, Note_on_c, 3, 57, 72
10, 53159, Note_on_c, 3, 57, 0
10, 53160, Note_on_c, 3, 57, 72
10, 53279, Note_on_c, 3, 57, 0
10, 53280, Note_on_c, 3, 56, 72
10, 53399, Note_on_c, 3, 56, 0
10, 53400, Note_on_c, 3, 56, 72
10, 53519, Note_on_c, 3, 56, 0
10, 53520, Note_on_c, 3, 57, 72
10, 53759, Note_on_c, 3, 57, 0
10, 53760, Note_on_c, 3, 59, 72
10, 53999, Note_on_c, 3, 59, 0
10, 54000, Note_on_c, 3, 60, 72
10, 54239, Note_on_c, 3, 60, 0
10, 55080, Note_on_c, 3, 62, 72
10, 55259, Note_on_c, 3, 62, 0
10, 55260, Note_on_c, 3, 63, 72
10, 55319, Note_on_c, 3, 63, 0
10, 55320, Note_on_c, 3, 62, 72
10, 55379, Note_on_c, 3, 62, 0
10, 55380, Note_on_c, 3, 60, 72
10, 55439, Note_on_c, 3, 60, 0
10, 55440, Note_on_c, 3, 58, 72
10, 55499, Note_on_c, 3, 58, 0
10, 55500, Note_on_c, 3, 62, 72
10, 55559, Note_on_c, 3, 62, 0
10, 55560, Note_on_c, 3, 60, 72
10, 55619, Note_on_c, 3, 60, 0
10, 55620, Note_on_c, 3, 58, 72
10, 55679, Note_on_c, 3, 58, 0
10, 55680, Note_on_c, 3, 57, 72
10, 55739, Note_on_c, 3, 57, 0
10, 55740, Note_on_c, 3, 60, 72
10, 55799, Note_on_c, 3, 60, 0
10, 55800, Note_on_c, 3, 58, 72
10, 55859, Note_on_c, 3, 58, 0
10, 55860, Note_on_c, 3, 57, 72
10, 55919, Note_on_c, 3, 57, 0
10, 55920, Note_on_c, 3, 55, 72
10, 56099, Note_on_c, 3, 55, 0
10, 56100, Note_on_c, 3, 57, 72
10, 56159, Note_on_c, 3, 57, 0
10, 56160, Note_on_c, 3, 58, 72
10, 56219, Note_on_c, 3, 58, 0
10, 56220, Note_on_c, 3, 57, 72
10, 56279, Note_on_c, 3, 57, 0
10, 56280, Note_on_c, 3, 55, 72
10, 56339, Note_on_c, 3, 55, 0
10, 56340, Note_on_c, 3, 58, 72
10, 56399, Note_on_c, 3, 58, 0
10, 56400, Note_on_c, 3, 57, 72
10, 56459, Note_on_c, 3, 57, 0
10, 56460, Note_on_c, 3, 55, 72
10, 56519, Note_on_c, 3, 55, 0
10, 56520, Note_on_c, 3, 53, 72
10, 56579, Note_on_c, 3, 53, 0
10, 56580, Note_on_c, 3, 55, 72
10, 56639, Note_on_c, 3, 55, 0
10, 56640, Note_on_c, 3, 57, 72
10, 56699, Note_on_c, 3, 57, 0
10, 56700, Note_on_c, 3, 55, 72
10, 56759, Note_on_c, 3, 55, 0
10, 56760, Note_on_c, 3, 57, 72
10, 56819, Note_on_c, 3, 57, 0
10, 56820, Note_on_c, 3, 53, 72
10, 56879, Note_on_c, 3, 53, 0
10, 56880, Note_on_c, 3, 60, 72
10, 56999, Note_on_c, 3, 60, 0
10, 57000, Note_on_c, 3, 48, 72
10, 57119, Note_on_c, 3, 48, 0
10, 57360, Note_on_c, 3, 60, 72
10, 57599, Note_on_c, 3, 60, 0
10, 57600, Note_on_c, 3, 64, 72
10, 57839, Note_on_c, 3, 64, 0
10, 57840, Note_on_c, 3, 65, 72
10, 58079, Note_on_c, 3, 65, 0
10, 58320, Note_on_c, 3, 57, 72
10, 58559, Note_on_c, 3, 57, 0
10, 58560, Note_on_c, 3, 61, 72
10, 58799, Note_on_c, 3, 61, 0
10, 58800, Note_on_c, 3, 62, 72
10, 59039, Note_on_c, 3, 62, 0
10, 59280, Note_on_c, 3, 53, 72
10, 59519, Note_on_c, 3, 53, 0
10, 59520, Note_on_c, 3, 57, 72
10, 59759, Note_on_c, 3, 57, 0
10, 59760, Note_on_c, 3, 58, 72
10, 59999, Note_on_c, 3, 58, 0
10, 60360, Note_on_c, 3, 62, 72
10, 60479, Note_on_c, 3, 62, 0
10, 60480, Note_on_c, 3, 62, 72
10, 60599, Note_on_c, 3, 62, 0
10, 60600, Note_on_c, 3, 62, 72
10, 60719, Note_on_c, 3, 62, 0
10, 60720, Note_on_c, 3, 65, 72
10, 60899, Note_on_c, 3, 65, 0
10, 60900, Note_on_c, 3, 64, 72
10, 60959, Note_on_c, 3, 64, 0
10, 60960, Note_on_c, 3, 62, 72
10, 61199, Note_on_c, 3, 62, 0
10, 61320, Note_on_c, 3, 62, 72
10, 61439, Note_on_c, 3, 62, 0
10, 61440, Note_on_c, 3, 62, 72
10, 61559, Note_on_c, 3, 62, 0
10, 61560, Note_on_c, 3, 62, 72
10, 61679, Note_on_c, 3, 62, 0
10, 61680, Note_on_c, 3, 62, 72
10, 61859, Note_on_c, 3, 62, 0
10, 61860, Note_on_c, 3, 60, 72
10, 61919, Note_on_c, 3, 60, 0
10, 61920, Note_on_c, 3, 59, 72
10, 62159, Note_on_c, 3, 59, 0
10, 62160, Note_on_c, 3, 62, 72
10, 62399, Note_on_c, 3, 62, 0
10, 62400, Note_on_c, 3, 64, 72
10, 62519, Note_on_c, 3, 64, 0
10, 62520, Note_on_c, 3, 65, 72
10, 62639, Note_on_c, 3, 65, 0
10, 62640, Note_on_c, 3, 65, 72
10, 62759, Note_on_c, 3, 65, 0
10, 62760, Note_on_c, 3, 64, 72
10, 62879, Note_on_c, 3, 64, 0
10, 63000, Note_on_c, 3, 61, 48
10, 63119, Note_on_c, 3, 61, 0
10, 63120, Note_on_c, 3, 62, 48
10, 63359, Note_on_c, 3, 62, 0
10, 63360, Note_on_c, 3, 64, 48
10, 63599, Note_on_c, 3, 64, 0
10, 63600, Note_on_c, 3, 62, 48
10, 63779, Note_on_c, 3, 62, 0
10, 63780, Note_on_c, 3, 62, 48
10, 63839, Note_on_c, 3, 62, 0
10, 63840, Note_on_c, 3, 57, 48
10, 64079, Note_on_c, 3, 57, 0
10, 64080, Note_on_c, 3, 53, 48
10, 64319, Note_on_c, 3, 53, 0
10, 64320, Note_on_c, 3, 52, 48
10, 64439, Note_on_c, 3, 52, 0
10, 64440, Note_on_c, 3, 50, 48
10, 64559, Note_on_c, 3, 50, 0
10, 64560, Note_on_c, 3, 57, 48
10, 65039, Note_on_c, 3, 57, 0
10, 65040, Note_on_c, 3, 57, 48
10, 65519, Note_on_c, 3, 57, 0
10, 69960, Note_on_c, 3, 59, 72
10, 70079, Note_on_c, 3, 59, 0
10, 70080, Note_on_c, 3, 59, 72
10, 70199, Note_on_c, 3, 59, 0
10, 70200, Note_on_c, 3, 59, 72
10, 70319, Note_on_c, 3, 59, 0
10, 70320, Note_on_c, 3, 60, 72
10, 70379, Note_on_c, 3, 60, 0
10, 70380, Note_on_c, 3, 62, 72
10, 70439, Note_on_c, 3, 62, 0
10, 70440, Note_on_c, 3, 60, 72
10, 70499, Note_on_c, 3, 60, 0
10, 70500, Note_on_c, 3, 59, 72
10, 70559, Note_on_c, 3, 59, 0
10, 70560, Note_on_c, 3, 60, 72
10, 70619, Note_on_c, 3, 60, 0
10, 70620, Note_on_c, 3, 62, 72
10, 70679, Note_on_c, 3, 62, 0
10, 70680, Note_on_c, 3, 59, 72
10, 70739, Note_on_c, 3, 59, 0
10, 70740, Note_on_c, 3, 60, 72
10, 70799, Note_on_c, 3, 60, 0
10, 70800, Note_on_c, 3, 62, 72
10, 70859, Note_on_c, 3, 62, 0
10, 70860, Note_on_c, 3, 64, 72
10, 70919, Note_on_c, 3, 64, 0
10, 70920, Note_on_c, 3, 62, 72
10, 70979, Note_on_c, 3, 62, 0
10, 70980, Note_on_c, 3, 60, 72
10, 71039, Note_on_c, 3, 60, 0
10, 71040, Note_on_c, 3, 62, 72
10, 71099, Note_on_c, 3, 62, 0
10, 71100, Note_on_c, 3, 64, 72
10, 71159, Note_on_c, 3, 64, 0
10, 71160, Note_on_c, 3, 60, 72
10, 71219, Note_on_c, 3, 60, 0
10, 71220, Note_on_c, 3, 62, 72
10, 71279, Note_on_c, 3, 62, 0
10, 71280, Note_on_c, 3, 64, 72
10, 71399, Note_on_c, 3, 64, 0
10, 71400, Note_on_c, 3, 65, 72
10, 71459, Note_on_c, 3, 65, 0
10, 71460, Note_on_c, 3, 64, 72
10, 71519, Note_on_c, 3, 64, 0
10, 71520, Note_on_c, 3, 62, 72
10, 71579, Note_on_c, 3, 62, 0
10, 71580, Note_on_c, 3, 60, 72
10, 71639, Note_on_c, 3, 60, 0
10, 71640, Note_on_c, 3, 59, 72
10, 71699, Note_on_c, 3, 59, 0
10, 71700, Note_on_c, 3, 57, 72
10, 71759, Note_on_c, 3, 57, 0
10, 71760, Note_on_c, 3, 56, 72
10, 71879, Note_on_c, 3, 56, 0
10, 71880, Note_on_c, 3, 59, 72
10, 71999, Note_on_c, 3, 59, 0
10, 72000, Note_on_c, 3, 64, 72
10, 72119, Note_on_c, 3, 64, 0
10, 72120, Note_on_c, 3, 62, 72
10, 72239, Note_on_c, 3, 62, 0
10, 72240, Note_on_c, 3, 60, 72
10, 72359, Note_on_c, 3, 60, 0
10, 72360, Note_on_c, 3, 61, 72
10, 72479, Note_on_c, 3, 61, 0
10, 72480, Note_on_c, 3, 62, 72
10, 72599, Note_on_c, 3, 62, 0
10, 72600, Note_on_c, 3, 64, 72
10, 72719, Note_on_c, 3, 64, 0
10, 72720, Note_on_c, 3, 57, 72
10, 72839, Note_on_c, 3, 57, 0
10, 72840, Note_on_c, 3, 50, 72
10, 72959, Note_on_c, 3, 50, 0
10, 72960, Note_on_c, 3, 55, 72
10, 73079, Note_on_c, 3, 55, 0
10, 73080, Note_on_c, 3, 53, 72
10, 73199, Note_on_c, 3, 53, 0
10, 73200, Note_on_c, 3, 52, 72
10, 73319, Note_on_c, 3, 52, 0
10, 73320, Note_on_c, 3, 55, 72
10, 73439, Note_on_c, 3, 55, 0
10, 73440, Note_on_c, 3, 58, 72
10, 73679, Note_on_c, 3, 58, 0
10, 73680, Note_on_c, 3, 57, 72
10, 73919, Note_on_c, 3, 57, 0
10, 75600, Note_on_c, 3, 62, 72
10, 76079, Note_on_c, 3, 62, 0
10, 76080, Note_on_c, 3, 60, 72
10, 76319, Note_on_c, 3, 60, 0
10, 76320, Note_on_c, 3, 65, 72
10, 76559, Note_on_c, 3, 65, 0
10, 76560, Note_on_c, 3, 56, 72
10, 77039, Note_on_c, 3, 56, 0
10, 77040, Note_on_c, 3, 57, 72
10, 77279, Note_on_c, 3, 57, 0
10, 77280, Note_on_c, 3, 57, 72
10, 77399, Note_on_c, 3, 57, 0
10, 77400, Note_on_c, 3, 57, 72
10, 77519, Note_on_c, 3, 57, 0
10, 77520, Note_on_c, 3, 59, 72
10, 77879, Note_on_c, 3, 59, 0
10, 77880, Note_on_c, 3, 57, 72
10, 77939, Note_on_c, 3, 57, 0
10, 77940, Note_on_c, 3, 59, 72
10, 77999, Note_on_c, 3, 59, 0
10, 78000, Note_on_c, 3, 60, 72
10, 78119, Note_on_c, 3, 60, 0
10, 78120, Note_on_c, 3, 59, 72
10, 78179, Note_on_c, 3, 59, 0
10, 78180, Note_on_c, 3, 60, 72
10, 78239, Note_on_c, 3, 60, 0
10, 78240, Note_on_c, 3, 62, 72
10, 78359, Note_on_c, 3, 62, 0
10, 78360, Note_on_c, 3, 60, 72
10, 78419, Note_on_c, 3, 60, 0
10, 78420, Note_on_c, 3, 62, 72
10, 78479, Note_on_c, 3, 62, 0
10, 78480, Note_on_c, 3, 64, 72
10, 78599, Note_on_c, 3, 64, 0
10, 78600, Note_on_c, 3, 62, 72
10, 78719, Note_on_c, 3, 62, 0
10, 78720, Note_on_c, 3, 60, 72
10, 78839, Note_on_c, 3, 60, 0
10, 78840, Note_on_c, 3, 59, 72
10, 78959, Note_on_c, 3, 59, 0
10, 78960, Note_on_c, 3, 57, 72
10, 79019, Note_on_c, 3, 57, 0
10, 79020, Note_on_c, 3, 59, 72
10, 79079, Note_on_c, 3, 59, 0
10, 79080, Note_on_c, 3, 60, 72
10, 79319, Note_on_c, 3, 60, 0
10, 79320, Note_on_c, 3, 61, 72
10, 79439, Note_on_c, 3, 61, 0
10, 79440, Note_on_c, 3, 62, 72
10, 79559, Note_on_c, 3, 62, 0
10, 79560, Note_on_c, 3, 50, 72
10, 79679, Note_on_c, 3, 50, 0
10, 79680, Note_on_c, 3, 52, 72
10, 79799, Note_on_c, 3, 52, 0
10, 79800, Note_on_c, 3, 54, 72
10, 79919, Note_on_c, 3, 54, 0
10, 79920, Note_on_c, 3, 55, 72
10, 79979, Note_on_c, 3, 55, 0
10, 79980, Note_on_c, 3, 57, 72
10, 80039, Note_on_c, 3, 57, 0
10, 80040, Note_on_c, 3, 58, 72
10, 80279, Note_on_c, 3, 58, 0
10, 80280, Note_on_c, 3, 59, 72
10, 80399, Note_on_c, 3, 59, 0
10, 80400, Note_on_c, 3, 60, 72
10, 80519, Note_on_c, 3, 60, 0
10, 80520, Note_on_c, 3, 58, 72
10, 80639, Note_on_c, 3, 58, 0
10, 80640, Note_on_c, 3, 57, 72
10, 80759, Note_on_c, 3, 57, 0
10, 80760, Note_on_c, 3, 55, 72
10, 80879, Note_on_c, 3, 55, 0
10, 80880, Note_on_c, 3, 57, 72
10, 80939, Note_on_c, 3, 57, 0
10, 80940, Note_on_c, 3, 53, 72
10, 80999, Note_on_c, 3, 53, 0
10, 81000, Note_on_c, 3, 55, 72
10, 81059, Note_on_c, 3, 55, 0
10, 81060, Note_on_c, 3, 57, 72
10, 81119, Note_on_c, 3, 57, 0
10, 81120, Note_on_c, 3, 58, 72
10, 81179, Note_on_c, 3, 58, 0
10, 81180, Note_on_c, 3, 55, 72
10, 81239, Note_on_c, 3, 55, 0
10, 81240, Note_on_c, 3, 57, 72
10, 81299, Note_on_c, 3, 57, 0
10, 81300, Note_on_c, 3, 58, 72
10, 81359, Note_on_c, 3, 58, 0
10, 81360, Note_on_c, 3, 60, 72
10, 81479, Note_on_c, 3, 60, 0
10, 81480, Note_on_c, 3, 55, 72
10, 81599, Note_on_c, 3, 55, 0
10, 81600, Note_on_c, 3, 60, 72
10, 81959, Note_on_c, 3, 60, 0
10, 81960, Note_on_c, 3, 58, 72
10, 82019, Note_on_c, 3, 58, 0
10, 82020, Note_on_c, 3, 57, 72
10, 82079, Note_on_c, 3, 57, 0
10, 82080, Note_on_c, 3, 58, 72
10, 82139, Note_on_c, 3, 58, 0
10, 82140, Note_on_c, 3, 60, 72
10, 82199, Note_on_c, 3, 60, 0
10, 82200, Note_on_c, 3, 57, 72
10, 82259, Note_on_c, 3, 57, 0
10, 82260, Note_on_c, 3, 58, 72
10, 82319, Note_on_c, 3, 58, 0
10, 82320, Note_on_c, 3, 55, 72
10, 82439, Note_on_c, 3, 55, 0
10, 82440, Note_on_c, 3, 57, 72
10, 82499, Note_on_c, 3, 57, 0
10, 82500, Note_on_c, 3, 58, 72
10, 82559, Note_on_c, 3, 58, 0
10, 82560, Note_on_c, 3, 60, 72
10, 82799, Note_on_c, 3, 60, 0
10, 83760, Note_on_c, 3, 62, 72
10, 84239, Note_on_c, 3, 62, 0
10, 84240, Note_on_c, 3, 58, 72
10, 84479, Note_on_c, 3, 58, 0
10, 84480, Note_on_c, 3, 63, 72
10, 84719, Note_on_c, 3, 63, 0
10, 84720, Note_on_c, 3, 54, 72
10, 85199, Note_on_c, 3, 54, 0
10, 85200, Note_on_c, 3, 55, 72
10, 85439, Note_on_c, 3, 55, 0
10, 85440, Note_on_c, 3, 55, 72
10, 85559, Note_on_c, 3, 55, 0
10, 85560, Note_on_c, 3, 55, 72
10, 85679, Note_on_c, 3, 55, 0
10, 85680, Note_on_c, 3, 57, 72
10, 86039, Note_on_c, 3, 57, 0
10, 86040, Note_on_c, 3, 55, 72
10, 86099, Note_on_c, 3, 55, 0
10, 86100, Note_on_c, 3, 57, 72
10, 86159, Note_on_c, 3, 57, 0
10, 86160, Note_on_c, 3, 58, 72
10, 86279, Note_on_c, 3, 58, 0
10, 86280, Note_on_c, 3, 57, 72
10, 86339, Note_on_c, 3, 57, 0
10, 86340, Note_on_c, 3, 58, 72
10, 86399, Note_on_c, 3, 58, 0
10, 86400, Note_on_c, 3, 60, 72
10, 86519, Note_on_c, 3, 60, 0
10, 86520, Note_on_c, 3, 58, 72
10, 86579, Note_on_c, 3, 58, 0
10, 86580, Note_on_c, 3, 60, 72
10, 86639, Note_on_c, 3, 60, 0
10, 86640, Note_on_c, 3, 62, 72
10, 86759, Note_on_c, 3, 62, 0
10, 86760, Note_on_c, 3, 60, 72
10, 86879, Note_on_c, 3, 60, 0
10, 86880, Note_on_c, 3, 58, 72
10, 86999, Note_on_c, 3, 58, 0
10, 87000, Note_on_c, 3, 57, 72
10, 87119, Note_on_c, 3, 57, 0
10, 87120, Note_on_c, 3, 55, 72
10, 87239, Note_on_c, 3, 55, 0
10, 87240, Note_on_c, 3, 65, 72
10, 87359, Note_on_c, 3, 65, 0
10, 87360, Note_on_c, 3, 63, 72
10, 87479, Note_on_c, 3, 63, 0
10, 87480, Note_on_c, 3, 59, 72
10, 87599, Note_on_c, 3, 59, 0
10, 87600, Note_on_c, 3, 60, 72
10, 87719, Note_on_c, 3, 60, 0
10, 87720, Note_on_c, 3, 67, 72
10, 87839, Note_on_c, 3, 67, 0
10, 87840, Note_on_c, 3, 65, 72
10, 87899, Note_on_c, 3, 65, 0
10, 87900, Note_on_c, 3, 63, 72
10, 87959, Note_on_c, 3, 63, 0
10, 87960, Note_on_c, 3, 62, 72
10, 88019, Note_on_c, 3, 62, 0
10, 88020, Note_on_c, 3, 60, 72
10, 88079, Note_on_c, 3, 60, 0
10, 88080, Note_on_c, 3, 62, 72
10, 88139, Note_on_c, 3, 62, 0
10, 88140, Note_on_c, 3, 60, 72
10, 88199, Note_on_c, 3, 60, 0
10, 88200, Note_on_c, 3, 59, 72
10, 88259, Note_on_c, 3, 59, 0
10, 88260, Note_on_c, 3, 57, 72
10, 88319, Note_on_c, 3, 57, 0
10, 88320, Note_on_c, 3, 55, 72
10, 88379, Note_on_c, 3, 55, 0
10, 88380, Note_on_c, 3, 56, 72
10, 88439, Note_on_c, 3, 56, 0
10, 88440, Note_on_c, 3, 53, 72
10, 88499, Note_on_c, 3, 53, 0
10, 88500, Note_on_c, 3, 55, 72
10, 88559, Note_on_c, 3, 55, 0
10, 88560, Note_on_c, 3, 51, 72
10, 88679, Note_on_c, 3, 51, 0
10, 88680, Note_on_c, 3, 48, 72
10, 88799, Note_on_c, 3, 48, 0
10, 88800, Note_on_c, 3, 56, 72
10, 89159, Note_on_c, 3, 56, 0
10, 89160, Note_on_c, 3, 53, 72
10, 89279, Note_on_c, 3, 53, 0
10, 89280, Note_on_c, 3, 58, 72
10, 89759, Note_on_c, 3, 58, 0
10, 89760, Note_on_c, 3, 56, 72
10, 89999, Note_on_c, 3, 56, 0
10, 90000, Note_on_c, 3, 55, 72
10, 90119, Note_on_c, 3, 55, 0
10, 90120, Note_on_c, 3, 57, 72
10, 90179, Note_on_c, 3, 57, 0
10, 90180, Note_on_c, 3, 59, 72
10, 90239, Note_on_c, 3, 59, 0
10, 90240, Note_on_c, 3, 60, 72
10, 90359, Note_on_c, 3, 60, 0
10, 90360, Note_on_c, 3, 62, 72
10, 90479, Note_on_c, 3, 62, 0
10, 90480, Note_on_c, 3, 63, 72
10, 90539, Note_on_c, 3, 63, 0
10, 90540, Note_on_c, 3, 62, 72
10, 90599, Note_on_c, 3, 62, 0
10, 90600, Note_on_c, 3, 60, 72
10, 90659, Note_on_c, 3, 60, 0
10, 90660, Note_on_c, 3, 58, 72
10, 90719, Note_on_c, 3, 58, 0
10, 90720, Note_on_c, 3, 57, 72
10, 90839, Note_on_c, 3, 57, 0
10, 90840, Note_on_c, 3, 58, 72
10, 91079, Note_on_c, 3, 58, 0
10, 91080, Note_on_c, 3, 57, 72
10, 91199, Note_on_c, 3, 57, 0
10, 91200, Note_on_c, 3, 58, 72
10, 91319, Note_on_c, 3, 58, 0
10, 91320, Note_on_c, 3, 60, 72
10, 91439, Note_on_c, 3, 60, 0
10, 91440, Note_on_c, 3, 62, 72
10, 91679, Note_on_c, 3, 62, 0
10, 92040, Note_on_c, 3, 53, 72
10, 92159, Note_on_c, 3, 53, 0
10, 92160, Note_on_c, 3, 53, 72
10, 92279, Note_on_c, 3, 53, 0
10, 92280, Note_on_c, 3, 53, 72
10, 92399, Note_on_c, 3, 53, 0
10, 92400, Note_on_c, 3, 55, 72
10, 92459, Note_on_c, 3, 55, 0
10, 92460, Note_on_c, 3, 57, 72
10, 92519, Note_on_c, 3, 57, 0
10, 92520, Note_on_c, 3, 55, 72
10, 92579, Note_on_c, 3, 55, 0
10, 92580, Note_on_c, 3, 53, 72
10, 92639, Note_on_c, 3, 53, 0
10, 92640, Note_on_c, 3, 55, 72
10, 92699, Note_on_c, 3, 55, 0
10, 92700, Note_on_c, 3, 57, 72
10, 92759, Note_on_c, 3, 57, 0
10, 92760, Note_on_c, 3, 53, 72
10, 92819, Note_on_c, 3, 53, 0
10, 92820, Note_on_c, 3, 55, 72
10, 92879, Note_on_c, 3, 55, 0
10, 92880, Note_on_c, 3, 57, 72
10, 92939, Note_on_c, 3, 57, 0
10, 92940, Note_on_c, 3, 58, 72
10, 92999, Note_on_c, 3, 58, 0
10, 93000, Note_on_c, 3, 57, 72
10, 93059, Note_on_c, 3, 57, 0
10, 93060, Note_on_c, 3, 55, 72
10, 93119, Note_on_c, 3, 55, 0
10, 93120, Note_on_c, 3, 57, 72
10, 93179, Note_on_c, 3, 57, 0
10, 93180, Note_on_c, 3, 58, 72
10, 93239, Note_on_c, 3, 58, 0
10, 93240, Note_on_c, 3, 55, 72
10, 93299, Note_on_c, 3, 55, 0
10, 93300, Note_on_c, 3, 57, 72
10, 93359, Note_on_c, 3, 57, 0
10, 93360, Note_on_c, 3, 58, 72
10, 93599, Note_on_c, 3, 58, 0
10, 93960, Note_on_c, 3, 60, 72
10, 94079, Note_on_c, 3, 60, 0
10, 94080, Note_on_c, 3, 60, 72
10, 94199, Note_on_c, 3, 60, 0
10, 94200, Note_on_c, 3, 60, 72
10, 94319, Note_on_c, 3, 60, 0
10, 94320, Note_on_c, 3, 62, 72
10, 94379, Note_on_c, 3, 62, 0
10, 94380, Note_on_c, 3, 63, 72
10, 94439, Note_on_c, 3, 63, 0
10, 94440, Note_on_c, 3, 62, 72
10, 94499, Note_on_c, 3, 62, 0
10, 94500, Note_on_c, 3, 60, 72
10, 94559, Note_on_c, 3, 60, 0
10, 94560, Note_on_c, 3, 62, 72
10, 94619, Note_on_c, 3, 62, 0
10, 94620, Note_on_c, 3, 63, 72
10, 94679, Note_on_c, 3, 63, 0
10, 94680, Note_on_c, 3, 60, 72
10, 94739, Note_on_c, 3, 60, 0
10, 94740, Note_on_c, 3, 62, 72
10, 94799, Note_on_c, 3, 62, 0
10, 94800, Note_on_c, 3, 63, 72
10, 94859, Note_on_c, 3, 63, 0
10, 94860, Note_on_c, 3, 65, 72
10, 94919, Note_on_c, 3, 65, 0
10, 94920, Note_on_c, 3, 63, 72
10, 94979, Note_on_c, 3, 63, 0
10, 94980, Note_on_c, 3, 62, 72
10, 95039, Note_on_c, 3, 62, 0
10, 95040, Note_on_c, 3, 63, 72
10, 95099, Note_on_c, 3, 63, 0
10, 95100, Note_on_c, 3, 65, 72
10, 95159, Note_on_c, 3, 65, 0
10, 95160, Note_on_c, 3, 62, 72
10, 95219, Note_on_c, 3, 62, 0
10, 95220, Note_on_c, 3, 63, 72
10, 95279, Note_on_c, 3, 63, 0
10, 95280, Note_on_c, 3, 65, 72
10, 95399, Note_on_c, 3, 65, 0
10, 95400, Note_on_c, 3, 62, 72
10, 95519, Note_on_c, 3, 62, 0
10, 95520, Note_on_c, 3, 64, 72
10, 95639, Note_on_c, 3, 64, 0
10, 95640, Note_on_c, 3, 65, 72
10, 95759, Note_on_c, 3, 65, 0
10, 95760, Note_on_c, 3, 67, 72
10, 95999, Note_on_c, 3, 67, 0
10, 96000, Note_on_c, 3, 65, 72
10, 96119, Note_on_c, 3, 65, 0
10, 96120, Note_on_c, 3, 64, 72
10, 96239, Note_on_c, 3, 64, 0
10, 96240, Note_on_c, 3, 65, 72
10, 96359, Note_on_c, 3, 65, 0
10, 96360, Note_on_c, 3, 53, 72
10, 96479, Note_on_c, 3, 53, 0
10, 96480, Note_on_c, 3, 58, 72
10, 96599, Note_on_c, 3, 58, 0
10, 96600, Note_on_c, 3, 55, 72
10, 96719, Note_on_c, 3, 55, 0
10, 96720, Note_on_c, 3, 60, 72
10, 96959, Note_on_c, 3, 60, 0
10, 97800, Note_on_c, 3, 55, 72
10, 97919, Note_on_c, 3, 55, 0
10, 97920, Note_on_c, 3, 55, 72
10, 98039, Note_on_c, 3, 55, 0
10, 98040, Note_on_c, 3, 55, 72
10, 98159, Note_on_c, 3, 55, 0
10, 98160, Note_on_c, 3, 56, 72
10, 98219, Note_on_c, 3, 56, 0
10, 98220, Note_on_c, 3, 58, 72
10, 98279, Note_on_c, 3, 58, 0
10, 98280, Note_on_c, 3, 56, 72
10, 98339, Note_on_c, 3, 56, 0
10, 98340, Note_on_c, 3, 55, 72
10, 98399, Note_on_c, 3, 55, 0
10, 98400, Note_on_c, 3, 57, 72
10, 98459, Note_on_c, 3, 57, 0
10, 98460, Note_on_c, 3, 58, 72
10, 98519, Note_on_c, 3, 58, 0
10, 98520, Note_on_c, 3, 55, 72
10, 98579, Note_on_c, 3, 55, 0
10, 98580, Note_on_c, 3, 57, 72
10, 98639, Note_on_c, 3, 57, 0
10, 98640, Note_on_c, 3, 58, 72
10, 98699, Note_on_c, 3, 58, 0
10, 98700, Note_on_c, 3, 60, 72
10, 98759, Note_on_c, 3, 60, 0
10, 98760, Note_on_c, 3, 58, 72
10, 98819, Note_on_c, 3, 58, 0
10, 98820, Note_on_c, 3, 57, 72
10, 98879, Note_on_c, 3, 57, 0
10, 98880, Note_on_c, 3, 59, 72
10, 98939, Note_on_c, 3, 59, 0
10, 98940, Note_on_c, 3, 60, 72
10, 98999, Note_on_c, 3, 60, 0
10, 99000, Note_on_c, 3, 57, 72
10, 99059, Note_on_c, 3, 57, 0
10, 99060, Note_on_c, 3, 59, 72
10, 99119, Note_on_c, 3, 59, 0
10, 99120, Note_on_c, 3, 60, 72
10, 99239, Note_on_c, 3, 60, 0
10, 99240, Note_on_c, 3, 55, 72
10, 99359, Note_on_c, 3, 55, 0
10, 99360, Note_on_c, 3, 60, 72
10, 99479, Note_on_c, 3, 60, 0
10, 99480, Note_on_c, 3, 58, 72
10, 99599, Note_on_c, 3, 58, 0
10, 99600, Note_on_c, 3, 57, 72
10, 99719, Note_on_c, 3, 57, 0
10, 99720, Note_on_c, 3, 50, 72
10, 99839, Note_on_c, 3, 50, 0
10, 99840, Note_on_c, 3, 62, 72
10, 99959, Note_on_c, 3, 62, 0
10, 99960, Note_on_c, 3, 60, 72
10, 100079, Note_on_c, 3, 60, 0
10, 100080, Note_on_c, 3, 58, 72
10, 100319, Note_on_c, 3, 58, 0
10, 100680, Note_on_c, 3, 55, 72
10, 100799, Note_on_c, 3, 55, 0
10, 100800, Note_on_c, 3, 55, 72
10, 100919, Note_on_c, 3, 55, 0
10, 100920, Note_on_c, 3, 57, 72
10, 101039, Note_on_c, 3, 57, 0
10, 101040, Note_on_c, 3, 57, 72
10, 101159, Note_on_c, 3, 57, 0
10, 101160, Note_on_c, 3, 57, 72
10, 101279, Note_on_c, 3, 57, 0
10, 101280, Note_on_c, 3, 57, 72
10, 101399, Note_on_c, 3, 57, 0
10, 101400, Note_on_c, 3, 57, 72
10, 101519, Note_on_c, 3, 57, 0
10, 101520, Note_on_c, 3, 59, 72
10, 101999, Note_on_c, 3, 59, 0
10, 102000, Note_on_c, 3, 61, 72
10, 102119, Note_on_c, 3, 61, 0
10, 102120, Note_on_c, 3, 57, 72
10, 102239, Note_on_c, 3, 57, 0
10, 102240, Note_on_c, 3, 59, 72
10, 102359, Note_on_c, 3, 59, 0
10, 102360, Note_on_c, 3, 61, 72
10, 102479, Note_on_c, 3, 61, 0
10, 102480, Note_on_c, 3, 62, 72
10, 102959, Note_on_c, 3, 62, 0
10, 102960, Note_on_c, 3, 64, 72
10, 103199, Note_on_c, 3, 64, 0
10, 103200, Note_on_c, 3, 57, 72
10, 103559, Note_on_c, 3, 57, 0
10, 103560, Note_on_c, 3, 53, 72
10, 103679, Note_on_c, 3, 53, 0
10, 103680, Note_on_c, 3, 58, 72
10, 104039, Note_on_c, 3, 58, 0
10, 104040, Note_on_c, 3, 55, 72
10, 104159, Note_on_c, 3, 55, 0
10, 104160, Note_on_c, 3, 64, 72
10, 104279, Note_on_c, 3, 64, 0
10, 104280, Note_on_c, 3, 64, 72
10, 104399, Note_on_c, 3, 64, 0
10, 104400, Note_on_c, 3, 62, 72
10, 104519, Note_on_c, 3, 62, 0
10, 104520, Note_on_c, 3, 61, 72
10, 104579, Note_on_c, 3, 61, 0
10, 104580, Note_on_c, 3, 62, 72
10, 104639, Note_on_c, 3, 62, 0
10, 104640, Note_on_c, 3, 64, 72
10, 104699, Note_on_c, 3, 64, 0
10, 104700, Note_on_c, 3, 65, 72
10, 104759, Note_on_c, 3, 65, 0
10, 104760, Note_on_c, 3, 67, 72
10, 104819, Note_on_c, 3, 67, 0
10, 104820, Note_on_c, 3, 65, 72
10, 104879, Note_on_c, 3, 65, 0
10, 104880, Note_on_c, 3, 64, 72
10, 104999, Note_on_c, 3, 64, 0
10, 105000, Note_on_c, 3, 62, 72
10, 105119, Note_on_c, 3, 62, 0
10, 105120, Note_on_c, 3, 61, 72
10, 105299, Note_on_c, 3, 61, 0
10, 105300, Note_on_c, 3, 62, 72
10, 105359, Note_on_c, 3, 62, 0
10, 105360, Note_on_c, 3, 64, 72
10, 105599, Note_on_c, 3, 64, 0
10, 105600, Note_on_c, 3, 57, 72
10, 105719, Note_on_c, 3, 57, 0
10, 105720, Note_on_c, 3, 61, 72
10, 105839, Note_on_c, 3, 61, 0
10, 105840, Note_on_c, 3, 62, 72
10, 105959, Note_on_c, 3, 62, 0
10, 105960, Note_on_c, 3, 65, 72
10, 106079, Note_on_c, 3, 65, 0
10, 106080, Note_on_c, 3, 64, 72
10, 106199, Note_on_c, 3, 64, 0
10, 106200, Note_on_c, 3, 62, 72
10, 106319, Note_on_c, 3, 62, 0
10, 106320, Note_on_c, 3, 64, 72
10, 106439, Note_on_c, 3, 64, 0
10, 106440, Note_on_c, 3, 57, 72
10, 106559, Note_on_c, 3, 57, 0
10, 106560, Note_on_c, 3, 59, 72
10, 106679, Note_on_c, 3, 59, 0
10, 106680, Note_on_c, 3, 61, 72
10, 106799, Note_on_c, 3, 61, 0
10, 106800, Note_on_c, 3, 62, 72
10, 106919, Note_on_c, 3, 62, 0
10, 106920, Note_on_c, 3, 50, 72
10, 107039, Note_on_c, 3, 50, 0
10, 107040, Note_on_c, 3, 55, 72
10, 107159, Note_on_c, 3, 55, 0
10, 107160, Note_on_c, 3, 52, 72
10, 107279, Note_on_c, 3, 52, 0
10, 107280, Note_on_c, 3, 57, 72
10, 107399, Note_on_c, 3, 57, 0
10, 107400, Note_on_c, 3, 58, 72
10, 107519, Note_on_c, 3, 58, 0
10, 107520, Note_on_c, 3, 57, 72
10, 107639, Note_on_c, 3, 57, 0
10, 107640, Note_on_c, 3, 55, 72
10, 107759, Note_on_c, 3, 55, 0
10, 107760, Note_on_c, 3, 53, 72
10, 107879, Note_on_c, 3, 53, 0
10, 107880, Note_on_c, 3, 50, 72
10, 107999, Note_on_c, 3, 50, 0
10, 108000, Note_on_c, 3, 55, 72
10, 108119, Note_on_c, 3, 55, 0
10, 108120, Note_on_c, 3, 53, 72
10, 108239, Note_on_c, 3, 53, 0
10, 108240, Note_on_c, 3, 52, 72
10, 108359, Note_on_c, 3, 52, 0
10, 108360, Note_on_c, 3, 48, 72
10, 108479, Note_on_c, 3, 48, 0
10, 108480, Note_on_c, 3, 57, 72
10, 108599, Note_on_c, 3, 57, 0
10, 108600, Note_on_c, 3, 57, 72
10, 108719, Note_on_c, 3, 57, 0
10, 108720, Note_on_c, 3, 53, 72
10, 108959, Note_on_c, 3, 53, 0
10, 108960, Note_on_c, 3, 62, 72
10, 109199, Note_on_c, 3, 62, 0
10, 109200, Note_on_c, 3, 55, 72
10, 109439, Note_on_c, 3, 55, 0
10, 109800, Note_on_c, 3, 57, 72
10, 109919, Note_on_c, 3, 57, 0
10, 109920, Note_on_c, 3, 62, 72
10, 110039, Note_on_c, 3, 62, 0
10, 110040, Note_on_c, 3, 60, 72
10, 110159, Note_on_c, 3, 60, 0
10, 110160, Note_on_c, 3, 59, 72
10, 110279, Note_on_c, 3, 59, 0
10, 110280, Note_on_c, 3, 59, 72
10, 110399, Note_on_c, 3, 59, 0
10, 110400, Note_on_c, 3, 64, 72
10, 110519, Note_on_c, 3, 64, 0
10, 110520, Note_on_c, 3, 62, 72
10, 110639, Note_on_c, 3, 62, 0
10, 110640, Note_on_c, 3, 60, 72
10, 110879, Note_on_c, 3, 60, 0
10, 110880, Note_on_c, 3, 62, 72
10, 111119, Note_on_c, 3, 62, 0
10, 111120, Note_on_c, 3, 62, 72
10, 111359, Note_on_c, 3, 62, 0
10, 111360, Note_on_c, 3, 64, 72
10, 111599, Note_on_c, 3, 64, 0
10, 111600, Note_on_c, 3, 64, 72
10, 111719, Note_on_c, 3, 64, 0
10, 111720, Note_on_c, 3, 64, 72
10, 111839, Note_on_c, 3, 64, 0
10, 111840, Note_on_c, 3, 62, 72
10, 111959, Note_on_c, 3, 62, 0
10, 111960, Note_on_c, 3, 65, 72
10, 112079, Note_on_c, 3, 65, 0
10, 112080, Note_on_c, 3, 64, 72
10, 112559, Note_on_c, 3, 64, 0
10, 112560, Note_on_c, 3, 65, 72
10, 113039, Note_on_c, 3, 65, 0
10, 113280, Note_on_c, 3, 65, 72
10, 113459, Note_on_c, 3, 65, 0
10, 113460, Note_on_c, 3, 65, 72
10, 113519, Note_on_c, 3, 65, 0
10, 113520, Note_on_c, 3, 64, 72
10, 113759, Note_on_c, 3, 64, 0
10, 113760, Note_on_c, 3, 65, 72
10, 114239, Note_on_c, 3, 65, 0
10, 114240, Note_on_c, 3, 64, 72
10, 114479, Note_on_c, 3, 64, 0
10, 114480, Note_on_c, 3, 62, 72
10, 115439, Note_on_c, 3, 62, 0
10, 115439, End_track
11, 0, Start_track
11, 0, Title_t, "Baritone Trombone"
11, 0, MIDI_port, 0
11, 0, Control_c, 3, 7, 96
11, 0, Control_c, 3, 10, 96
11, 0, Control_c, 3, 11, 127
11, 0, Program_c, 3, 57
11, 960, Note_on_c, 3, 50, 72
11, 1199, Note_on_c, 3, 50, 0
11, 1200, Note_on_c, 3, 50, 72
11, 1439, Note_on_c, 3, 50, 0
11, 1440, Note_on_c, 3, 49, 72
11, 2159, Note_on_c, 3, 49, 0
11, 2160, Note_on_c, 3, 50, 72
11, 2399, Note_on_c, 3, 50, 0
11, 2640, Note_on_c, 3, 50, 72
11, 2879, Note_on_c, 3, 50, 0
11, 2880, Note_on_c, 3, 52, 72
11, 3599, Note_on_c, 3, 52, 0
11, 3600, Note_on_c, 3, 53, 72
11, 3839, Note_on_c, 3, 53, 0
11, 4080, Note_on_c, 3, 53, 72
11, 4319, Note_on_c, 3, 53, 0
11, 4320, Note_on_c, 3, 55, 72
11, 4799, Note_on_c, 3, 55, 0
11, 4800, Note_on_c, 3, 55, 72
11, 5039, Note_on_c, 3, 55, 0
11, 5040, Note_on_c, 3, 56, 72
11, 5759, Note_on_c, 3, 56, 0
11, 5760, Note_on_c, 3, 57, 72
11, 5999, Note_on_c, 3, 57, 0
11, 11040, Note_on_c, 3, 48, 48
11, 11279, Note_on_c, 3, 48, 0
11, 11280, Note_on_c, 3, 48, 48
11, 11519, Note_on_c, 3, 48, 0
11, 11520, Note_on_c, 3, 53, 48
11, 11759, Note_on_c, 3, 53, 0
11, 11760, Note_on_c, 3, 53, 72
11, 11999, Note_on_c, 3, 53, 0
11, 12000, Note_on_c, 3, 53, 72
11, 12239, Note_on_c, 3, 53, 0
11, 12240, Note_on_c, 3, 52, 72
11, 12959, Note_on_c, 3, 52, 0
11, 12960, Note_on_c, 3, 53, 72
11, 13199, Note_on_c, 3, 53, 0
11, 13440, Note_on_c, 3, 57, 72
11, 13679, Note_on_c, 3, 57, 0
11, 13680, Note_on_c, 3, 47, 72
11, 14399, Note_on_c, 3, 47, 0
11, 14400, Note_on_c, 3, 48, 72
11, 14639, Note_on_c, 3, 48, 0
11, 14880, Note_on_c, 3, 48, 72
11, 15119, Note_on_c, 3, 48, 0
11, 15120, Note_on_c, 3, 49, 72
11, 15599, Note_on_c, 3, 49, 0
11, 15600, Note_on_c, 3, 50, 72
11, 15839, Note_on_c, 3, 50, 0
11, 15840, Note_on_c, 3, 51, 72
11, 16559, Note_on_c, 3, 51, 0
11, 16560, Note_on_c, 3, 52, 72
11, 16799, Note_on_c, 3, 52, 0
11, 24000, Note_on_c, 3, 60, 72
11, 24239, Note_on_c, 3, 60, 0
11, 24240, Note_on_c, 3, 60, 72
11, 24479, Note_on_c, 3, 60, 0
11, 24480, Note_on_c, 3, 59, 72
11, 25199, Note_on_c, 3, 59, 0
11, 25200, Note_on_c, 3, 60, 72
11, 25439, Note_on_c, 3, 60, 0
11, 25680, Note_on_c, 3, 60, 72
11, 25919, Note_on_c, 3, 60, 0
11, 25920, Note_on_c, 3, 59, 72
11, 26639, Note_on_c, 3, 59, 0
11, 26640, Note_on_c, 3, 58, 72
11, 26879, Note_on_c, 3, 58, 0
11, 27120, Note_on_c, 3, 58, 72
11, 27359, Note_on_c, 3, 58, 0
11, 27360, Note_on_c, 3, 58, 72
11, 27839, Note_on_c, 3, 58, 0
11, 27840, Note_on_c, 3, 58, 72
11, 28079, Note_on_c, 3, 58, 0
11, 28080, Note_on_c, 3, 57, 72
11, 28799, Note_on_c, 3, 57, 0
11, 28800, Note_on_c, 3, 58, 72
11, 29039, Note_on_c, 3, 58, 0
11, 35280, Note_on_c, 3, 53, 72
11, 35999, Note_on_c, 3, 53, 0
11, 36000, Note_on_c, 3, 53, 72
11, 36719, Note_on_c, 3, 53, 0
11, 43680, Note_on_c, 3, 55, 72
11, 43799, Note_on_c, 3, 55, 0
11, 43800, Note_on_c, 3, 55, 72
11, 43919, Note_on_c, 3, 55, 0
11, 43920, Note_on_c, 3, 57, 72
11, 44039, Note_on_c, 3, 57, 0
11, 44040, Note_on_c, 3, 57, 72
11, 44159, Note_on_c, 3, 57, 0
11, 44280, Note_on_c, 3, 57, 72
11, 44399, Note_on_c, 3, 57, 0
11, 44400, Note_on_c, 3, 58, 72
11, 44519, Note_on_c, 3, 58, 0
11, 44520, Note_on_c, 3, 46, 72
11, 44639, Note_on_c, 3, 46, 0
11, 44760, Note_on_c, 3, 58, 72
11, 44879, Note_on_c, 3, 58, 0
11, 44880, Note_on_c, 3, 54, 72
11, 45239, Note_on_c, 3, 54, 0
11, 45240, Note_on_c, 3, 54, 72
11, 45359, Note_on_c, 3, 54, 0
11, 45360, Note_on_c, 3, 55, 72
11, 45479, Note_on_c, 3, 55, 0
11, 45480, Note_on_c, 3, 55, 72
11, 45539, Note_on_c, 3, 55, 0
11, 45540, Note_on_c, 3, 55, 72
11, 45599, Note_on_c, 3, 55, 0
11, 45600, Note_on_c, 3, 55, 72
11, 45719, Note_on_c, 3, 55, 0
11, 45720, Note_on_c, 3, 55, 72
11, 45839, Note_on_c, 3, 55, 0
11, 45840, Note_on_c, 3, 48, 72
11, 45959, Note_on_c, 3, 48, 0
11, 45960, Note_on_c, 3, 50, 72
11, 46049, Note_on_c, 3, 50, 0
11, 46050, Note_on_c, 3, 51, 72
11, 46079, Note_on_c, 3, 51, 0
11, 46080, Note_on_c, 3, 53, 72
11, 46199, Note_on_c, 3, 53, 0
11, 46200, Note_on_c, 3, 53, 72
11, 46319, Note_on_c, 3, 53, 0
11, 46320, Note_on_c, 3, 46, 72
11, 46559, Note_on_c, 3, 46, 0
11, 46680, Note_on_c, 3, 58, 72
11, 46799, Note_on_c, 3, 58, 0
11, 46800, Note_on_c, 3, 58, 72
11, 46919, Note_on_c, 3, 58, 0
11, 46920, Note_on_c, 3, 55, 72
11, 47039, Note_on_c, 3, 55, 0
11, 47160, Note_on_c, 3, 55, 72
11, 47279, Note_on_c, 3, 55, 0
11, 47280, Note_on_c, 3, 55, 72
11, 47399, Note_on_c, 3, 55, 0
11, 47400, Note_on_c, 3, 52, 72
11, 47519, Note_on_c, 3, 52, 0
11, 47520, Note_on_c, 3, 52, 72
11, 47759, Note_on_c, 3, 52, 0
11, 47760, Note_on_c, 3, 51, 72
11, 47999, Note_on_c, 3, 51, 0
11, 48000, Note_on_c, 3, 51, 72
11, 48119, Note_on_c, 3, 51, 0
11, 48120, Note_on_c, 3, 51, 72
11, 48239, Note_on_c, 3, 51, 0
11, 48240, Note_on_c, 3, 50, 72
11, 48359, Note_on_c, 3, 50, 0
11, 48360, Note_on_c, 3, 50, 72
11, 48479, Note_on_c, 3, 50, 0
11, 48480, Note_on_c, 3, 49, 72
11, 48599, Note_on_c, 3, 49, 0
11, 48600, Note_on_c, 3, 49, 72
11, 48719, Note_on_c, 3, 49, 0
11, 48720, Note_on_c, 3, 50, 72
11, 49079, Note_on_c, 3, 50, 0
11, 49080, Note_on_c, 3, 50, 72
11, 49199, Note_on_c, 3, 50, 0
11, 49200, Note_on_c, 3, 43, 72
11, 49439, Note_on_c, 3, 43, 0
11, 51360, Note_on_c, 3, 50, 72
11, 51719, Note_on_c, 3, 50, 0
11, 51720, Note_on_c, 3, 50, 72
11, 51839, Note_on_c, 3, 50, 0
11, 51840, Note_on_c, 3, 49, 72
11, 51959, Note_on_c, 3, 49, 0
11, 51960, Note_on_c, 3, 49, 72
11, 52079, Note_on_c, 3, 49, 0
11, 52080, Note_on_c, 3, 50, 72
11, 52319, Note_on_c, 3, 50, 0
11, 52320, Note_on_c, 3, 52, 72
11, 52559, Note_on_c, 3, 52, 0
11, 52560, Note_on_c, 3, 53, 72
11, 52799, Note_on_c, 3, 53, 0
11, 52800, Note_on_c, 3, 50, 72
11, 53039, Note_on_c, 3, 50, 0
11, 53040, Note_on_c, 3, 52, 72
11, 53279, Note_on_c, 3, 52, 0
11, 54120, Note_on_c, 3, 57, 72
11, 54239, Note_on_c, 3, 57, 0
11, 54240, Note_on_c, 3, 54, 72
11, 54359, Note_on_c, 3, 54, 0
11, 54360, Note_on_c, 3, 50, 72
11, 54479, Note_on_c, 3, 50, 0
11, 54480, Note_on_c, 3, 55, 72
11, 54659, Note_on_c, 3, 55, 0
11, 54660, Note_on_c, 3, 57, 72
11, 54719, Note_on_c, 3, 57, 0
11, 54720, Note_on_c, 3, 58, 72
11, 54839, Note_on_c, 3, 58, 0
11, 54840, Note_on_c, 3, 55, 72
11, 54959, Note_on_c, 3, 55, 0
11, 54960, Note_on_c, 3, 62, 72
11, 55079, Note_on_c, 3, 62, 0
11, 55080, Note_on_c, 3, 50, 72
11, 55199, Note_on_c, 3, 50, 0
11, 55560, Note_on_c, 3, 55, 72
11, 55799, Note_on_c, 3, 55, 0
11, 55800, Note_on_c, 3, 54, 72
11, 55919, Note_on_c, 3, 54, 0
11, 55920, Note_on_c, 3, 55, 72
11, 56099, Note_on_c, 3, 55, 0
11, 56100, Note_on_c, 3, 43, 72
11, 56159, Note_on_c, 3, 43, 0
11, 56160, Note_on_c, 3, 43, 72
11, 56399, Note_on_c, 3, 43, 0
11, 57000, Note_on_c, 3, 60, 72
11, 57179, Note_on_c, 3, 60, 0
11, 57180, Note_on_c, 3, 62, 72
11, 57239, Note_on_c, 3, 62, 0
11, 57240, Note_on_c, 3, 60, 72
11, 57299, Note_on_c, 3, 60, 0
11, 57300, Note_on_c, 3, 58, 72
11, 57359, Note_on_c, 3, 58, 0
11, 57360, Note_on_c, 3, 57, 72
11, 57419, Note_on_c, 3, 57, 0
11, 57420, Note_on_c, 3, 60, 72
11, 57479, Note_on_c, 3, 60, 0
11, 57480, Note_on_c, 3, 58, 72
11, 57539, Note_on_c, 3, 58, 0
11, 57540, Note_on_c, 3, 57, 72
11, 57599, Note_on_c, 3, 57, 0
11, 57600, Note_on_c, 3, 55, 72
11, 57659, Note_on_c, 3, 55, 0
11, 57660, Note_on_c, 3, 58, 72
11, 57719, Note_on_c, 3, 58, 0
11, 57720, Note_on_c, 3, 57, 72
11, 57779, Note_on_c, 3, 57, 0
11, 57780, Note_on_c, 3, 55, 72
11, 57839, Note_on_c, 3, 55, 0
11, 57840, Note_on_c, 3, 53, 72
11, 57899, Note_on_c, 3, 53, 0
11, 57900, Note_on_c, 3, 55, 72
11, 57959, Note_on_c, 3, 55, 0
11, 57960, Note_on_c, 3, 57, 72
11, 58139, Note_on_c, 3, 57, 0
11, 58140, Note_on_c, 3, 58, 72
11, 58199, Note_on_c, 3, 58, 0
11, 58200, Note_on_c, 3, 57, 72
11, 58259, Note_on_c, 3, 57, 0
11, 58260, Note_on_c, 3, 55, 72
11, 58319, Note_on_c, 3, 55, 0
11, 58320, Note_on_c, 3, 53, 72
11, 58379, Note_on_c, 3, 53, 0
11, 58380, Note_on_c, 3, 57, 72
11, 58439, Note_on_c, 3, 57, 0
11, 58440, Note_on_c, 3, 55, 72
11, 58499, Note_on_c, 3, 55, 0
11, 58500, Note_on_c, 3, 53, 72
11, 58559, Note_on_c, 3, 53, 0
11, 58560, Note_on_c, 3, 52, 72
11, 58619, Note_on_c, 3, 52, 0
11, 58620, Note_on_c, 3, 55, 72
11, 58679, Note_on_c, 3, 55, 0
11, 58680, Note_on_c, 3, 53, 72
11, 58739, Note_on_c, 3, 53, 0
11, 58740, Note_on_c, 3, 52, 72
11, 58799, Note_on_c, 3, 52, 0
11, 58800, Note_on_c, 3, 50, 72
11, 58859, Note_on_c, 3, 50, 0
11, 58860, Note_on_c, 3, 51, 72
11, 58919, Note_on_c, 3, 51, 0
11, 58920, Note_on_c, 3, 53, 72
11, 59099, Note_on_c, 3, 53, 0
11, 59100, Note_on_c, 3, 55, 72
11, 59159, Note_on_c, 3, 55, 0
11, 59160, Note_on_c, 3, 53, 72
11, 59219, Note_on_c, 3, 53, 0
11, 59220, Note_on_c, 3, 51, 72
11, 59279, Note_on_c, 3, 51, 0
11, 59280, Note_on_c, 3, 50, 72
11, 59339, Note_on_c, 3, 50, 0
11, 59340, Note_on_c, 3, 53, 72
11, 59399, Note_on_c, 3, 53, 0
11, 59400, Note_on_c, 3, 51, 72
11, 59459, Note_on_c, 3, 51, 0
11, 59460, Note_on_c, 3, 50, 72
11, 59519, Note_on_c, 3, 50, 0
11, 59520, Note_on_c, 3, 48, 72
11, 59579, Note_on_c, 3, 48, 0
11, 59580, Note_on_c, 3, 51, 72
11, 59639, Note_on_c, 3, 51, 0
11, 59640, Note_on_c, 3, 50, 72
11, 59699, Note_on_c, 3, 50, 0
11, 59700, Note_on_c, 3, 48, 72
11, 59759, Note_on_c, 3, 48, 0
11, 59760, Note_on_c, 3, 46, 72
11, 59999, Note_on_c, 3, 46, 0
11, 60360, Note_on_c, 3, 58, 72
11, 60479, Note_on_c, 3, 58, 0
11, 60480, Note_on_c, 3, 58, 72
11, 60599, Note_on_c, 3, 58, 0
11, 60600, Note_on_c, 3, 58, 72
11, 60719, Note_on_c, 3, 58, 0
11, 60720, Note_on_c, 3, 57, 72
11, 60899, Note_on_c, 3, 57, 0
11, 60900, Note_on_c, 3, 57, 72
11, 60959, Note_on_c, 3, 57, 0
11, 60960, Note_on_c, 3, 57, 72
11, 61199, Note_on_c, 3, 57, 0
11, 61320, Note_on_c, 3, 57, 72
11, 61439, Note_on_c, 3, 57, 0
11, 61440, Note_on_c, 3, 57, 72
11, 61559, Note_on_c, 3, 57, 0
11, 61560, Note_on_c, 3, 57, 72
11, 61679, Note_on_c, 3, 57, 0
11, 61680, Note_on_c, 3, 56, 72
11, 61859, Note_on_c, 3, 56, 0
11, 61860, Note_on_c, 3, 56, 72
11, 61919, Note_on_c, 3, 56, 0
11, 61920, Note_on_c, 3, 56, 72
11, 62159, Note_on_c, 3, 56, 0
11, 62160, Note_on_c, 3, 56, 72
11, 62399, Note_on_c, 3, 56, 0
11, 62400, Note_on_c, 3, 56, 72
11, 62519, Note_on_c, 3, 56, 0
11, 62520, Note_on_c, 3, 56, 72
11, 62639, Note_on_c, 3, 56, 0
11, 62640, Note_on_c, 3, 57, 72
11, 62759, Note_on_c, 3, 57, 0
11, 62760, Note_on_c, 3, 57, 72
11, 62879, Note_on_c, 3, 57, 0
11, 63000, Note_on_c, 3, 57, 48
11, 63119, Note_on_c, 3, 57, 0
11, 63120, Note_on_c, 3, 50, 48
11, 63359, Note_on_c, 3, 50, 0
11, 63360, Note_on_c, 3, 49, 48
11, 63599, Note_on_c, 3, 49, 0
11, 63600, Note_on_c, 3, 50, 48
11, 63779, Note_on_c, 3, 50, 0
11, 63780, Note_on_c, 3, 50, 48
11, 63839, Note_on_c, 3, 50, 0
11, 63840, Note_on_c, 3, 48, 48
11, 64079, Note_on_c, 3, 48, 0
11, 64080, Note_on_c, 3, 47, 48
11, 64319, Note_on_c, 3, 47, 0
11, 64320, Note_on_c, 3, 46, 48
11, 64559, Note_on_c, 3, 46, 0
11, 64560, Note_on_c, 3, 45, 48
11, 65039, Note_on_c, 3, 45, 0
11, 65040, Note_on_c, 3, 45, 48
11, 65519, Note_on_c, 3, 45, 0
11, 65520, Note_on_c, 3, 57, 75
11, 65999, Note_on_c, 3, 57, 0
11, 66000, Note_on_c, 3, 53, 75
11, 66239, Note_on_c, 3, 53, 0
11, 66240, Note_on_c, 3, 58, 75
11, 66479, Note_on_c, 3, 58, 0
11, 66480, Note_on_c, 3, 49, 75
11, 66959, Note_on_c, 3, 49, 0
11, 66960, Note_on_c, 3, 50, 75
11, 67199, Note_on_c, 3, 50, 0
11, 67200, Note_on_c, 3, 50, 75
11, 67319, Note_on_c, 3, 50, 0
11, 67320, Note_on_c, 3, 50, 75
11, 67439, Note_on_c, 3, 50, 0
11, 67440, Note_on_c, 3, 52, 75
11, 67799, Note_on_c, 3, 52, 0
11, 67800, Note_on_c, 3, 50, 75
11, 67859, Note_on_c, 3, 50, 0
11, 67860, Note_on_c, 3, 52, 75
11, 67919, Note_on_c, 3, 52, 0
11, 67920, Note_on_c, 3, 53, 75
11, 68039, Note_on_c, 3, 53, 0
11, 68040, Note_on_c, 3, 52, 75
11, 68099, Note_on_c, 3, 52, 0
11, 68100, Note_on_c, 3, 53, 75
11, 68159, Note_on_c, 3, 53, 0
11, 68160, Note_on_c, 3, 55, 75
11, 68279, Note_on_c, 3, 55, 0
11, 68280, Note_on_c, 3, 53, 75
11, 68339, Note_on_c, 3, 53, 0
11, 68340, Note_on_c, 3, 55, 75
11, 68399, Note_on_c, 3, 55, 0
11, 68400, Note_on_c, 3, 57, 75
11, 68519, Note_on_c, 3, 57, 0
11, 68520, Note_on_c, 3, 55, 75
11, 68639, Note_on_c, 3, 55, 0
11, 68640, Note_on_c, 3, 53, 75
11, 68759, Note_on_c, 3, 53, 0
11, 68760, Note_on_c, 3, 52, 75
11, 68879, Note_on_c, 3, 52, 0
11, 68880, Note_on_c, 3, 50, 75
11, 68999, Note_on_c, 3, 50, 0
11, 69000, Note_on_c, 3, 48, 75
11, 69119, Note_on_c, 3, 48, 0
11, 69120, Note_on_c, 3, 47, 75
11, 69239, Note_on_c, 3, 47, 0
11, 69240, Note_on_c, 3, 52, 75
11, 69359, Note_on_c, 3, 52, 0
11, 69360, Note_on_c, 3, 45, 75
11, 69479, Note_on_c, 3, 45, 0
11, 69480, Note_on_c, 3, 53, 75
11, 69539, Note_on_c, 3, 53, 0
11, 69540, Note_on_c, 3, 52, 75
11, 69599, Note_on_c, 3, 52, 0
11, 69600, Note_on_c, 3, 50, 75
11, 69659, Note_on_c, 3, 50, 0
11, 69660, Note_on_c, 3, 47, 75
11, 69719, Note_on_c, 3, 47, 0
11, 69720, Note_on_c, 3, 48, 75
11, 69779, Note_on_c, 3, 48, 0
11, 69780, Note_on_c, 3, 50, 75
11, 69839, Note_on_c, 3, 50, 0
11, 69840, Note_on_c, 3, 52, 75
11, 70079, Note_on_c, 3, 52, 0
11, 70560, Note_on_c, 3, 57, 75
11, 71039, Note_on_c, 3, 57, 0
11, 71040, Note_on_c, 3, 55, 75
11, 71099, Note_on_c, 3, 55, 0
11, 71100, Note_on_c, 3, 53, 75
11, 71159, Note_on_c, 3, 53, 0
11, 71160, Note_on_c, 3, 52, 75
11, 71219, Note_on_c, 3, 52, 0
11, 71220, Note_on_c, 3, 50, 75
11, 71279, Note_on_c, 3, 50, 0
11, 71280, Note_on_c, 3, 48, 75
11, 71519, Note_on_c, 3, 48, 0
11, 71520, Note_on_c, 3, 47, 75
11, 71639, Note_on_c, 3, 47, 0
11, 71640, Note_on_c, 3, 53, 75
11, 71759, Note_on_c, 3, 53, 0
11, 71760, Note_on_c, 3, 52, 75
11, 71939, Note_on_c, 3, 52, 0
11, 71940, Note_on_c, 3, 54, 75
11, 71999, Note_on_c, 3, 54, 0
11, 72000, Note_on_c, 3, 56, 75
11, 72059, Note_on_c, 3, 56, 0
11, 72060, Note_on_c, 3, 57, 75
11, 72119, Note_on_c, 3, 57, 0
11, 72120, Note_on_c, 3, 54, 75
11, 72179, Note_on_c, 3, 54, 0
11, 72180, Note_on_c, 3, 56, 75
11, 72239, Note_on_c, 3, 56, 0
11, 72240, Note_on_c, 3, 57, 75
11, 72359, Note_on_c, 3, 57, 0
11, 72360, Note_on_c, 3, 45, 75
11, 72479, Note_on_c, 3, 45, 0
11, 72480, Note_on_c, 3, 47, 75
11, 72599, Note_on_c, 3, 47, 0
11, 72600, Note_on_c, 3, 49, 75
11, 72719, Note_on_c, 3, 49, 0
11, 72720, Note_on_c, 3, 50, 75
11, 72959, Note_on_c, 3, 50, 0
11, 73320, Note_on_c, 3, 52, 75
11, 73439, Note_on_c, 3, 52, 0
11, 73440, Note_on_c, 3, 52, 75
11, 73559, Note_on_c, 3, 52, 0
11, 73560, Note_on_c, 3, 52, 75
11, 73679, Note_on_c, 3, 52, 0
11, 73680, Note_on_c, 3, 53, 75
11, 73739, Note_on_c, 3, 53, 0
11, 73740, Note_on_c, 3, 55, 75
11, 73799, Note_on_c, 3, 55, 0
11, 73800, Note_on_c, 3, 53, 75
11, 73859, Note_on_c, 3, 53, 0
11, 73860, Note_on_c, 3, 52, 75
11, 73919, Note_on_c, 3, 52, 0
11, 73920, Note_on_c, 3, 53, 75
11, 73979, Note_on_c, 3, 53, 0
11, 73980, Note_on_c, 3, 55, 75
11, 74039, Note_on_c, 3, 55, 0
11, 74040, Note_on_c, 3, 52, 75
11, 74099, Note_on_c, 3, 52, 0
11, 74100, Note_on_c, 3, 53, 75
11, 74159, Note_on_c, 3, 53, 0
11, 74160, Note_on_c, 3, 55, 75
11, 74219, Note_on_c, 3, 55, 0
11, 74220, Note_on_c, 3, 57, 75
11, 74279, Note_on_c, 3, 57, 0
11, 74280, Note_on_c, 3, 55, 75
11, 74339, Note_on_c, 3, 55, 0
11, 74340, Note_on_c, 3, 53, 75
11, 74399, Note_on_c, 3, 53, 0
11, 74400, Note_on_c, 3, 55, 75
11, 74459, Note_on_c, 3, 55, 0
11, 74460, Note_on_c, 3, 57, 75
11, 74519, Note_on_c, 3, 57, 0
11, 74520, Note_on_c, 3, 53, 75
11, 74579, Note_on_c, 3, 53, 0
11, 74580, Note_on_c, 3, 55, 75
11, 74639, Note_on_c, 3, 55, 0
11, 74640, Note_on_c, 3, 57, 75
11, 74759, Note_on_c, 3, 57, 0
11, 74760, Note_on_c, 3, 58, 75
11, 74819, Note_on_c, 3, 58, 0
11, 74820, Note_on_c, 3, 57, 75
11, 74879, Note_on_c, 3, 57, 0
11, 74880, Note_on_c, 3, 55, 75
11, 74939, Note_on_c, 3, 55, 0
11, 74940, Note_on_c, 3, 53, 75
11, 74999, Note_on_c, 3, 53, 0
11, 75000, Note_on_c, 3, 52, 75
11, 75059, Note_on_c, 3, 52, 0
11, 75060, Note_on_c, 3, 50, 75
11, 75119, Note_on_c, 3, 50, 0
11, 75120, Note_on_c, 3, 49, 75
11, 75239, Note_on_c, 3, 49, 0
11, 75240, Note_on_c, 3, 52, 75
11, 75359, Note_on_c, 3, 52, 0
11, 75360, Note_on_c, 3, 57, 75
11, 75479, Note_on_c, 3, 57, 0
11, 75480, Note_on_c, 3, 55, 75
11, 75599, Note_on_c, 3, 55, 0
11, 75600, Note_on_c, 3, 53, 75
11, 75659, Note_on_c, 3, 53, 0
11, 75660, Note_on_c, 3, 52, 75
11, 75719, Note_on_c, 3, 52, 0
11, 75720, Note_on_c, 3, 50, 75
11, 75779, Note_on_c, 3, 50, 0
11, 75780, Note_on_c, 3, 48, 75
11, 75839, Note_on_c, 3, 48, 0
11, 75840, Note_on_c, 3, 47, 75
11, 76079, Note_on_c, 3, 47, 0
11, 76080, Note_on_c, 3, 48, 75
11, 76319, Note_on_c, 3, 48, 0
11, 76320, Note_on_c, 3, 50, 75
11, 76559, Note_on_c, 3, 50, 0
11, 76560, Note_on_c, 3, 52, 75
11, 76799, Note_on_c, 3, 52, 0
11, 76800, Note_on_c, 3, 52, 75
11, 76919, Note_on_c, 3, 52, 0
11, 76920, Note_on_c, 3, 52, 75
11, 77039, Note_on_c, 3, 52, 0
11, 77040, Note_on_c, 3, 57, 75
11, 77339, Note_on_c, 3, 57, 0
11, 77340, Note_on_c, 3, 55, 75
11, 77399, Note_on_c, 3, 55, 0
11, 77400, Note_on_c, 3, 53, 75
11, 77459, Note_on_c, 3, 53, 0
11, 77460, Note_on_c, 3, 52, 75
11, 77519, Note_on_c, 3, 52, 0
11, 77520, Note_on_c, 3, 53, 75
11, 77639, Note_on_c, 3, 53, 0
11, 77640, Note_on_c, 3, 50, 75
11, 77759, Note_on_c, 3, 50, 0
11, 77760, Note_on_c, 3, 55, 75
11, 77999, Note_on_c, 3, 55, 0
11, 78000, Note_on_c, 3, 48, 75
11, 78119, Note_on_c, 3, 48, 0
11, 78120, Note_on_c, 3, 45, 75
11, 78239, Note_on_c, 3, 45, 0
11, 78240, Note_on_c, 3, 53, 75
11, 78479, Note_on_c, 3, 53, 0
11, 78480, Note_on_c, 3, 52, 75
11, 78719, Note_on_c, 3, 52, 0
11, 79080, Note_on_c, 3, 57, 75
11, 79139, Note_on_c, 3, 57, 0
11, 79140, Note_on_c, 3, 55, 75
11, 79199, Note_on_c, 3, 55, 0
11, 79200, Note_on_c, 3, 53, 75
11, 79319, Note_on_c, 3, 53, 0
11, 79320, Note_on_c, 3, 51, 75
11, 79439, Note_on_c, 3, 51, 0
11, 79440, Note_on_c, 3, 50, 75
11, 79679, Note_on_c, 3, 50, 0
11, 80040, Note_on_c, 3, 55, 75
11, 80099, Note_on_c, 3, 55, 0
11, 80100, Note_on_c, 3, 53, 75
11, 80159, Note_on_c, 3, 53, 0
11, 80160, Note_on_c, 3, 52, 75
11, 80279, Note_on_c, 3, 52, 0
11, 80280, Note_on_c, 3, 50, 75
11, 80399, Note_on_c, 3, 50, 0
11, 80400, Note_on_c, 3, 48, 75
11, 80639, Note_on_c, 3, 48, 0
11, 80640, Note_on_c, 3, 50, 75
11, 80759, Note_on_c, 3, 50, 0
11, 80760, Note_on_c, 3, 52, 75
11, 80879, Note_on_c, 3, 52, 0
11, 80880, Note_on_c, 3, 53, 75
11, 81119, Note_on_c, 3, 53, 0
11, 81480, Note_on_c, 3, 48, 75
11, 81599, Note_on_c, 3, 48, 0
11, 81600, Note_on_c, 3, 48, 75
11, 81719, Note_on_c, 3, 48, 0
11, 81720, Note_on_c, 3, 48, 75
11, 81839, Note_on_c, 3, 48, 0
11, 81840, Note_on_c, 3, 50, 75
11, 81899, Note_on_c, 3, 50, 0
11, 81900, Note_on_c, 3, 52, 75
11, 81959, Note_on_c, 3, 52, 0
11, 81960, Note_on_c, 3, 50, 75
11, 82019, Note_on_c, 3, 50, 0
11, 82020, Note_on_c, 3, 48, 75
11, 82079, Note_on_c, 3, 48, 0
11, 82080, Note_on_c, 3, 50, 75
11, 82139, Note_on_c, 3, 50, 0
11, 82140, Note_on_c, 3, 52, 75
11, 82199, Note_on_c, 3, 52, 0
11, 82200, Note_on_c, 3, 48, 75
11, 82259, Note_on_c, 3, 48, 0
11, 82260, Note_on_c, 3, 50, 75
11, 82319, Note_on_c, 3, 50, 0
11, 82320, Note_on_c, 3, 52, 75
11, 82379, Note_on_c, 3, 52, 0
11, 82380, Note_on_c, 3, 53, 75
11, 82439, Note_on_c, 3, 53, 0
11, 82440, Note_on_c, 3, 52, 75
11, 82499, Note_on_c, 3, 52, 0
11, 82500, Note_on_c, 3, 50, 75
11, 82559, Note_on_c, 3, 50, 0
11, 82560, Note_on_c, 3, 52, 75
11, 82619, Note_on_c, 3, 52, 0
11, 82620, Note_on_c, 3, 53, 75
11, 82679, Note_on_c, 3, 53, 0
11, 82680, Note_on_c, 3, 50, 75
11, 82739, Note_on_c, 3, 50, 0
11, 82740, Note_on_c, 3, 52, 75
11, 82799, Note_on_c, 3, 52, 0
11, 82800, Note_on_c, 3, 53, 75
11, 82919, Note_on_c, 3, 53, 0
11, 82920, Note_on_c, 3, 55, 75
11, 82979, Note_on_c, 3, 55, 0
11, 82980, Note_on_c, 3, 53, 75
11, 83039, Note_on_c, 3, 53, 0
11, 83040, Note_on_c, 3, 52, 75
11, 83099, Note_on_c, 3, 52, 0
11, 83100, Note_on_c, 3, 50, 75
11, 83159, Note_on_c, 3, 50, 0
11, 83160, Note_on_c, 3, 48, 75
11, 83219, Note_on_c, 3, 48, 0
11, 83220, Note_on_c, 3, 46, 75
11, 83279, Note_on_c, 3, 46, 0
11, 83280, Note_on_c, 3, 45, 75
11, 83399, Note_on_c, 3, 45, 0
11, 83400, Note_on_c, 3, 48, 75
11, 83519, Note_on_c, 3, 48, 0
11, 83520, Note_on_c, 3, 53, 75
11, 83639, Note_on_c, 3, 53, 0
11, 83640, Note_on_c, 3, 51, 75
11, 83759, Note_on_c, 3, 51, 0
11, 83760, Note_on_c, 3, 50, 75
11, 83879, Note_on_c, 3, 50, 0
11, 83880, Note_on_c, 3, 60, 75
11, 84119, Note_on_c, 3, 60, 0
11, 84120, Note_on_c, 3, 58, 75
11, 84179, Note_on_c, 3, 58, 0
11, 84180, Note_on_c, 3, 57, 75
11, 84239, Note_on_c, 3, 57, 0
11, 84240, Note_on_c, 3, 55, 75
11, 84299, Note_on_c, 3, 55, 0
11, 84300, Note_on_c, 3, 53, 75
11, 84359, Note_on_c, 3, 53, 0
11, 84360, Note_on_c, 3, 51, 75
11, 84419, Note_on_c, 3, 51, 0
11, 84420, Note_on_c, 3, 50, 75
11, 84479, Note_on_c, 3, 50, 0
11, 84480, Note_on_c, 3, 48, 75
11, 84539, Note_on_c, 3, 48, 0
11, 84540, Note_on_c, 3, 50, 75
11, 84599, Note_on_c, 3, 50, 0
11, 84600, Note_on_c, 3, 46, 75
11, 84659, Note_on_c, 3, 46, 0
11, 84660, Note_on_c, 3, 48, 75
11, 84719, Note_on_c, 3, 48, 0
11, 84720, Note_on_c, 3, 50, 75
11, 85199, Note_on_c, 3, 50, 0
11, 85200, Note_on_c, 3, 43, 75
11, 85439, Note_on_c, 3, 43, 0
11, 87120, Note_on_c, 3, 55, 75
11, 87599, Note_on_c, 3, 55, 0
11, 87600, Note_on_c, 3, 51, 75
11, 87839, Note_on_c, 3, 51, 0
11, 87840, Note_on_c, 3, 56, 75
11, 88079, Note_on_c, 3, 56, 0
11, 88080, Note_on_c, 3, 47, 75
11, 88559, Note_on_c, 3, 47, 0
11, 88560, Note_on_c, 3, 48, 75
11, 88799, Note_on_c, 3, 48, 0
11, 88800, Note_on_c, 3, 48, 75
11, 88919, Note_on_c, 3, 48, 0
11, 88920, Note_on_c, 3, 48, 75
11, 89039, Note_on_c, 3, 48, 0
11, 89040, Note_on_c, 3, 50, 75
11, 89399, Note_on_c, 3, 50, 0
11, 89400, Note_on_c, 3, 48, 75
11, 89459, Note_on_c, 3, 48, 0
11, 89460, Note_on_c, 3, 50, 75
11, 89519, Note_on_c, 3, 50, 0
11, 89520, Note_on_c, 3, 51, 75
11, 89639, Note_on_c, 3, 51, 0
11, 89640, Note_on_c, 3, 50, 75
11, 89699, Note_on_c, 3, 50, 0
11, 89700, Note_on_c, 3, 51, 75
11, 89759, Note_on_c, 3, 51, 0
11, 89760, Note_on_c, 3, 53, 75
11, 89879, Note_on_c, 3, 53, 0
11, 89880, Note_on_c, 3, 51, 75
11, 89939, Note_on_c, 3, 51, 0
11, 89940, Note_on_c, 3, 53, 75
11, 89999, Note_on_c, 3, 53, 0
11, 90000, Note_on_c, 3, 55, 75
11, 90119, Note_on_c, 3, 55, 0
11, 90120, Note_on_c, 3, 53, 75
11, 90239, Note_on_c, 3, 53, 0
11, 90240, Note_on_c, 3, 51, 75
11, 90359, Note_on_c, 3, 51, 0
11, 90360, Note_on_c, 3, 50, 75
11, 90479, Note_on_c, 3, 50, 0
11, 90480, Note_on_c, 3, 48, 75
11, 90599, Note_on_c, 3, 48, 0
11, 90600, Note_on_c, 3, 50, 75
11, 90659, Note_on_c, 3, 50, 0
11, 90660, Note_on_c, 3, 51, 75
11, 90719, Note_on_c, 3, 51, 0
11, 90720, Note_on_c, 3, 53, 75
11, 91079, Note_on_c, 3, 53, 0
11, 91080, Note_on_c, 3, 51, 75
11, 91199, Note_on_c, 3, 51, 0
11, 91200, Note_on_c, 3, 50, 75
11, 91319, Note_on_c, 3, 50, 0
11, 91320, Note_on_c, 3, 48, 75
11, 91439, Note_on_c, 3, 48, 0
11, 91440, Note_on_c, 3, 46, 75
11, 91559, Note_on_c, 3, 46, 0
11, 91560, Note_on_c, 3, 55, 75
11, 91619, Note_on_c, 3, 55, 0
11, 91620, Note_on_c, 3, 53, 75
11, 91679, Note_on_c, 3, 53, 0
11, 91680, Note_on_c, 3, 51, 75
11, 91739, Note_on_c, 3, 51, 0
11, 91740, Note_on_c, 3, 48, 75
11, 91799, Note_on_c, 3, 48, 0
11, 91800, Note_on_c, 3, 50, 75
11, 91859, Note_on_c, 3, 50, 0
11, 91860, Note_on_c, 3, 51, 75
11, 91919, Note_on_c, 3, 51, 0
11, 91920, Note_on_c, 3, 53, 75
11, 92159, Note_on_c, 3, 53, 0
11, 92880, Note_on_c, 3, 53, 75
11, 93359, Note_on_c, 3, 53, 0
11, 93360, Note_on_c, 3, 50, 75
11, 93599, Note_on_c, 3, 50, 0
11, 93600, Note_on_c, 3, 55, 75
11, 93839, Note_on_c, 3, 55, 0
11, 93840, Note_on_c, 3, 45, 75
11, 94319, Note_on_c, 3, 45, 0
11, 94320, Note_on_c, 3, 46, 75
11, 94559, Note_on_c, 3, 46, 0
11, 94560, Note_on_c, 3, 46, 75
11, 94679, Note_on_c, 3, 46, 0
11, 94680, Note_on_c, 3, 46, 75
11, 94799, Note_on_c, 3, 46, 0
11, 94800, Note_on_c, 3, 48, 75
11, 95159, Note_on_c, 3, 48, 0
11, 95160, Note_on_c, 3, 46, 75
11, 95219, Note_on_c, 3, 46, 0
11, 95220, Note_on_c, 3, 48, 75
11, 95279, Note_on_c, 3, 48, 0
11, 95280, Note_on_c, 3, 50, 75
11, 95399, Note_on_c, 3, 50, 0
11, 95400, Note_on_c, 3, 58, 75
11, 95459, Note_on_c, 3, 58, 0
11, 95460, Note_on_c, 3, 57, 75
11, 95519, Note_on_c, 3, 57, 0
11, 95520, Note_on_c, 3, 55, 75
11, 95639, Note_on_c, 3, 55, 0
11, 95640, Note_on_c, 3, 53, 75
11, 95759, Note_on_c, 3, 53, 0
11, 95760, Note_on_c, 3, 52, 75
11, 95879, Note_on_c, 3, 52, 0
11, 95880, Note_on_c, 3, 55, 75
11, 95999, Note_on_c, 3, 55, 0
11, 96000, Note_on_c, 3, 48, 75
11, 96239, Note_on_c, 3, 48, 0
11, 96840, Note_on_c, 3, 48, 75
11, 96959, Note_on_c, 3, 48, 0
11, 96960, Note_on_c, 3, 48, 75
11, 97079, Note_on_c, 3, 48, 0
11, 97080, Note_on_c, 3, 48, 75
11, 97199, Note_on_c, 3, 48, 0
11, 97200, Note_on_c, 3, 49, 75
11, 97259, Note_on_c, 3, 49, 0
11, 97260, Note_on_c, 3, 51, 75
11, 97319, Note_on_c, 3, 51, 0
11, 97320, Note_on_c, 3, 49, 75
11, 97379, Note_on_c, 3, 49, 0
11, 97380, Note_on_c, 3, 48, 75
11, 97439, Note_on_c, 3, 48, 0
11, 97440, Note_on_c, 3, 50, 75
11, 97499, Note_on_c, 3, 50, 0
11, 97500, Note_on_c, 3, 51, 75
11, 97559, Note_on_c, 3, 51, 0
11, 97560, Note_on_c, 3, 48, 75
11, 97619, Note_on_c, 3, 48, 0
11, 97620, Note_on_c, 3, 50, 75
11, 97679, Note_on_c, 3, 50, 0
11, 97680, Note_on_c, 3, 51, 75
11, 97739, Note_on_c, 3, 51, 0
11, 97740, Note_on_c, 3, 53, 75
11, 97799, Note_on_c, 3, 53, 0
11, 97800, Note_on_c, 3, 51, 75
11, 97859, Note_on_c, 3, 51, 0
11, 97860, Note_on_c, 3, 50, 75
11, 97919, Note_on_c, 3, 50, 0
11, 97920, Note_on_c, 3, 52, 75
11, 97979, Note_on_c, 3, 52, 0
11, 97980, Note_on_c, 3, 53, 75
11, 98039, Note_on_c, 3, 53, 0
11, 98040, Note_on_c, 3, 50, 75
11, 98099, Note_on_c, 3, 50, 0
11, 98100, Note_on_c, 3, 52, 75
11, 98159, Note_on_c, 3, 52, 0
11, 98160, Note_on_c, 3, 53, 75
11, 98279, Note_on_c, 3, 53, 0
11, 98280, Note_on_c, 3, 48, 75
11, 98399, Note_on_c, 3, 48, 0
11, 98400, Note_on_c, 3, 53, 75
11, 98519, Note_on_c, 3, 53, 0
11, 98520, Note_on_c, 3, 51, 75
11, 98639, Note_on_c, 3, 51, 0
11, 98640, Note_on_c, 3, 50, 75
11, 98759, Note_on_c, 3, 50, 0
11, 98760, Note_on_c, 3, 43, 75
11, 98879, Note_on_c, 3, 43, 0
11, 98880, Note_on_c, 3, 55, 75
11, 98999, Note_on_c, 3, 55, 0
11, 99000, Note_on_c, 3, 53, 75
11, 99119, Note_on_c, 3, 53, 0
11, 99120, Note_on_c, 3, 51, 75
11, 99359, Note_on_c, 3, 51, 0
11, 100680, Note_on_c, 3, 52, 75
11, 100799, Note_on_c, 3, 52, 0
11, 100800, Note_on_c, 3, 52, 75
11, 100919, Note_on_c, 3, 52, 0
11, 100920, Note_on_c, 3, 52, 75
11, 101039, Note_on_c, 3, 52, 0
11, 101040, Note_on_c, 3, 53, 75
11, 101099, Note_on_c, 3, 53, 0
11, 101100, Note_on_c, 3, 55, 75
11, 101159, Note_on_c, 3, 55, 0
11, 101160, Note_on_c, 3, 53, 75
11, 101219, Note_on_c, 3, 53, 0
11, 101220, Note_on_c, 3, 52, 75
11, 101279, Note_on_c, 3, 52, 0
11, 101280, Note_on_c, 3, 54, 75
11, 101339, Note_on_c, 3, 54, 0
11, 101340, Note_on_c, 3, 55, 75
11, 101399, Note_on_c, 3, 55, 0
11, 101400, Note_on_c, 3, 52, 75
11, 101459, Note_on_c, 3, 52, 0
11, 101460, Note_on_c, 3, 54, 75
11, 101519, Note_on_c, 3, 54, 0
11, 101520, Note_on_c, 3, 55, 75
11, 101579, Note_on_c, 3, 55, 0
11, 101580, Note_on_c, 3, 57, 75
11, 101639, Note_on_c, 3, 57, 0
11, 101640, Note_on_c, 3, 55, 75
11, 101699, Note_on_c, 3, 55, 0
11, 101700, Note_on_c, 3, 54, 75
11, 101759, Note_on_c, 3, 54, 0
11, 101760, Note_on_c, 3, 56, 75
11, 101819, Note_on_c, 3, 56, 0
11, 101820, Note_on_c, 3, 57, 75
11, 101879, Note_on_c, 3, 57, 0
11, 101880, Note_on_c, 3, 54, 75
11, 101939, Note_on_c, 3, 54, 0
11, 101940, Note_on_c, 3, 56, 75
11, 101999, Note_on_c, 3, 56, 0
11, 102000, Note_on_c, 3, 57, 75
11, 102239, Note_on_c, 3, 57, 0
11, 102240, Note_on_c, 3, 57, 75
11, 102479, Note_on_c, 3, 57, 0
11, 102480, Note_on_c, 3, 53, 75
11, 102719, Note_on_c, 3, 53, 0
11, 102720, Note_on_c, 3, 58, 75
11, 102959, Note_on_c, 3, 58, 0
11, 102960, Note_on_c, 3, 49, 75
11, 103439, Note_on_c, 3, 49, 0
11, 103440, Note_on_c, 3, 50, 75
11, 103679, Note_on_c, 3, 50, 0
11, 103680, Note_on_c, 3, 50, 75
11, 103799, Note_on_c, 3, 50, 0
11, 103800, Note_on_c, 3, 50, 75
11, 103919, Note_on_c, 3, 50, 0
11, 103920, Note_on_c, 3, 52, 75
11, 104279, Note_on_c, 3, 52, 0
11, 104280, Note_on_c, 3, 50, 75
11, 104339, Note_on_c, 3, 50, 0
11, 104340, Note_on_c, 3, 52, 75
11, 104399, Note_on_c, 3, 52, 0
11, 104400, Note_on_c, 3, 53, 75
11, 104519, Note_on_c, 3, 53, 0
11, 104520, Note_on_c, 3, 52, 75
11, 104579, Note_on_c, 3, 52, 0
11, 104580, Note_on_c, 3, 53, 75
11, 104639, Note_on_c, 3, 53, 0
11, 104640, Note_on_c, 3, 55, 75
11, 104759, Note_on_c, 3, 55, 0
11, 104760, Note_on_c, 3, 53, 75
11, 104819, Note_on_c, 3, 53, 0
11, 104820, Note_on_c, 3, 55, 75
11, 104879, Note_on_c, 3, 55, 0
11, 104880, Note_on_c, 3, 57, 75
11, 104999, Note_on_c, 3, 57, 0
11, 105000, Note_on_c, 3, 58, 75
11, 105059, Note_on_c, 3, 58, 0
11, 105060, Note_on_c, 3, 57, 75
11, 105119, Note_on_c, 3, 57, 0
11, 105120, Note_on_c, 3, 55, 75
11, 105179, Note_on_c, 3, 55, 0
11, 105180, Note_on_c, 3, 53, 75
11, 105239, Note_on_c, 3, 53, 0
11, 105240, Note_on_c, 3, 52, 75
11, 105299, Note_on_c, 3, 52, 0
11, 105300, Note_on_c, 3, 50, 75
11, 105359, Note_on_c, 3, 50, 0
11, 105360, Note_on_c, 3, 49, 75
11, 105479, Note_on_c, 3, 49, 0
11, 105480, Note_on_c, 3, 49, 75
11, 105599, Note_on_c, 3, 49, 0
11, 105600, Note_on_c, 3, 50, 75
11, 105719, Note_on_c, 3, 50, 0
11, 105720, Note_on_c, 3, 57, 75
11, 105839, Note_on_c, 3, 57, 0
11, 105840, Note_on_c, 3, 58, 75
11, 106319, Note_on_c, 3, 58, 0
11, 106320, Note_on_c, 3, 57, 75
11, 106559, Note_on_c, 3, 57, 0
11, 107400, Note_on_c, 3, 45, 75
11, 107519, Note_on_c, 3, 45, 0
11, 107520, Note_on_c, 3, 45, 75
11, 107639, Note_on_c, 3, 45, 0
11, 107640, Note_on_c, 3, 45, 75
11, 107759, Note_on_c, 3, 45, 0
11, 107760, Note_on_c, 3, 46, 75
11, 107819, Note_on_c, 3, 46, 0
11, 107820, Note_on_c, 3, 48, 75
11, 107879, Note_on_c, 3, 48, 0
11, 107880, Note_on_c, 3, 46, 75
11, 107939, Note_on_c, 3, 46, 0
11, 107940, Note_on_c, 3, 45, 75
11, 107999, Note_on_c, 3, 45, 0
11, 108000, Note_on_c, 3, 47, 75
11, 108059, Note_on_c, 3, 47, 0
11, 108060, Note_on_c, 3, 48, 75
11, 108119, Note_on_c, 3, 48, 0
11, 108120, Note_on_c, 3, 45, 75
11, 108179, Note_on_c, 3, 45, 0
11, 108180, Note_on_c, 3, 47, 75
11, 108239, Note_on_c, 3, 47, 0
11, 108240, Note_on_c, 3, 48, 75
11, 108299, Note_on_c, 3, 48, 0
11, 108300, Note_on_c, 3, 50, 75
11, 108359, Note_on_c, 3, 50, 0
11, 108360, Note_on_c, 3, 48, 75
11, 108419, Note_on_c, 3, 48, 0
11, 108420, Note_on_c, 3, 47, 75
11, 108479, Note_on_c, 3, 47, 0
11, 108480, Note_on_c, 3, 49, 75
11, 108539, Note_on_c, 3, 49, 0
11, 108540, Note_on_c, 3, 50, 75
11, 108599, Note_on_c, 3, 50, 0
11, 108600, Note_on_c, 3, 47, 75
11, 108659, Note_on_c, 3, 47, 0
11, 108660, Note_on_c, 3, 49, 75
11, 108719, Note_on_c, 3, 49, 0
11, 108720, Note_on_c, 3, 50, 75
11, 108839, Note_on_c, 3, 50, 0
11, 108840, Note_on_c, 3, 50, 75
11, 108959, Note_on_c, 3, 50, 0
11, 108960, Note_on_c, 3, 55, 75
11, 109079, Note_on_c, 3, 55, 0
11, 109080, Note_on_c, 3, 53, 75
11, 109199, Note_on_c, 3, 53, 0
11, 109200, Note_on_c, 3, 52, 75
11, 109319, Note_on_c, 3, 52, 0
11, 109320, Note_on_c, 3, 52, 75
11, 109439, Note_on_c, 3, 52, 0
11, 109440, Note_on_c, 3, 57, 75
11, 109559, Note_on_c, 3, 57, 0
11, 109560, Note_on_c, 3, 55, 75
11, 109679, Note_on_c, 3, 55, 0
11, 109680, Note_on_c, 3, 53, 75
11, 109919, Note_on_c, 3, 53, 0
11, 110520, Note_on_c, 3, 52, 75
11, 110639, Note_on_c, 3, 52, 0
11, 110640, Note_on_c, 3, 57, 75
11, 110759, Note_on_c, 3, 57, 0
11, 110760, Note_on_c, 3, 48, 75
11, 110879, Note_on_c, 3, 48, 0
11, 110880, Note_on_c, 3, 50, 75
11, 110999, Note_on_c, 3, 50, 0
11, 111000, Note_on_c, 3, 48, 75
11, 111119, Note_on_c, 3, 48, 0
11, 111120, Note_on_c, 3, 47, 75
11, 111239, Note_on_c, 3, 47, 0
11, 111240, Note_on_c, 3, 47, 75
11, 111359, Note_on_c, 3, 47, 0
11, 111360, Note_on_c, 3, 52, 75
11, 111479, Note_on_c, 3, 52, 0
11, 111480, Note_on_c, 3, 50, 75
11, 111599, Note_on_c, 3, 50, 0
11, 111600, Note_on_c, 3, 49, 75
11, 111719, Note_on_c, 3, 49, 0
11, 111720, Note_on_c, 3, 57, 75
11, 111839, Note_on_c, 3, 57, 0
11, 111840, Note_on_c, 3, 58, 75
11, 111959, Note_on_c, 3, 58, 0
11, 111960, Note_on_c, 3, 55, 75
11, 112079, Note_on_c, 3, 55, 0
11, 112080, Note_on_c, 3, 57, 75
11, 112559, Note_on_c, 3, 57, 0
11, 112560, Note_on_c, 3, 56, 75
11, 113039, Note_on_c, 3, 56, 0
11, 113280, Note_on_c, 3, 56, 75
11, 113459, Note_on_c, 3, 56, 0
11, 113460, Note_on_c, 3, 56, 75
11, 113519, Note_on_c, 3, 56, 0
11, 113520, Note_on_c, 3, 57, 75
11, 113759, Note_on_c, 3, 57, 0
11, 113760, Note_on_c, 3, 53, 75
11, 113879, Note_on_c, 3, 53, 0
11, 113880, Note_on_c, 3, 50, 75
11, 113999, Note_on_c, 3, 50, 0
11, 114000, Note_on_c, 3, 57, 75
11, 114359, Note_on_c, 3, 57, 0
11, 114360, Note_on_c, 3, 57, 75
11, 114479, Note_on_c, 3, 57, 0
11, 114480, Note_on_c, 3, 50, 75
11, 115439, Note_on_c, 3, 50, 0
11, 115439, End_track
12, 0, Start_track
12, 0, Title_t, "Violin I"
12, 0, MIDI_port, 0
12, 0, Program_c, 4, 48
12, 0, Control_c, 4, 7, 96
12, 0, Control_c, 4, 10, 48
12, 0, Control_c, 4, 11, 127
12, 60, Note_on_c, 4, 57, 66
12, 119, Note_on_c, 4, 57, 0
12, 120, Note_on_c, 4, 69, 66
12, 179, Note_on_c, 4, 69, 0
12, 180, Note_on_c, 4, 68, 66
12, 239, Note_on_c, 4, 68, 0
12, 240, Note_on_c, 4, 70, 48
12, 299, Note_on_c, 4, 70, 0
12, 300, Note_on_c, 4, 69, 48
12, 359, Note_on_c, 4, 69, 0
12, 360, Note_on_c, 4, 67, 48
12, 419, Note_on_c, 4, 67, 0
12, 420, Note_on_c, 4, 65, 48
12, 479, Note_on_c, 4, 65, 0
12, 480, Note_on_c, 4, 64, 48
12, 539, Note_on_c, 4, 64, 0
12, 540, Note_on_c, 4, 62, 48
12, 599, Note_on_c, 4, 62, 0
12, 600, Note_on_c, 4, 61, 48
12, 659, Note_on_c, 4, 61, 0
12, 660, Note_on_c, 4, 62, 48
12, 719, Note_on_c, 4, 62, 0
12, 780, Note_on_c, 4, 57, 66
12, 839, Note_on_c, 4, 57, 0
12, 840, Note_on_c, 4, 69, 66
12, 899, Note_on_c, 4, 69, 0
12, 900, Note_on_c, 4, 68, 66
12, 959, Note_on_c, 4, 68, 0
12, 960, Note_on_c, 4, 70, 48
12, 1019, Note_on_c, 4, 70, 0
12, 1020, Note_on_c, 4, 69, 48
12, 1079, Note_on_c, 4, 69, 0
12, 1080, Note_on_c, 4, 67, 48
12, 1139, Note_on_c, 4, 67, 0
12, 1140, Note_on_c, 4, 65, 48
12, 1199, Note_on_c, 4, 65, 0
12, 1200, Note_on_c, 4, 64, 48
12, 1259, Note_on_c, 4, 64, 0
12, 1260, Note_on_c, 4, 62, 48
12, 1319, Note_on_c, 4, 62, 0
12, 1320, Note_on_c, 4, 61, 48
12, 1379, Note_on_c, 4, 61, 0
12, 1380, Note_on_c, 4, 62, 48
12, 1439, Note_on_c, 4, 62, 0
12, 1500, Note_on_c, 4, 58, 66
12, 1559, Note_on_c, 4, 58, 0
12, 1560, Note_on_c, 4, 70, 66
12, 1619, Note_on_c, 4, 70, 0
12, 1620, Note_on_c, 4, 69, 66
12, 1679, Note_on_c, 4, 69, 0
12, 1680, Note_on_c, 4, 72, 48
12, 1739, Note_on_c, 4, 72, 0
12, 1740, Note_on_c, 4, 70, 48
12, 1799, Note_on_c, 4, 70, 0
12, 1800, Note_on_c, 4, 69, 48
12, 1859, Note_on_c, 4, 69, 0
12, 1860, Note_on_c, 4, 67, 48
12, 1919, Note_on_c, 4, 67, 0
12, 1920, Note_on_c, 4, 65, 48
12, 1979, Note_on_c, 4, 65, 0
12, 1980, Note_on_c, 4, 64, 48
12, 2039, Note_on_c, 4, 64, 0
12, 2040, Note_on_c, 4, 62, 48
12, 2099, Note_on_c, 4, 62, 0
12, 2100, Note_on_c, 4, 61, 48
12, 2159, Note_on_c, 4, 61, 0
12, 2220, Note_on_c, 4, 57, 66
12, 2279, Note_on_c, 4, 57, 0
12, 2280, Note_on_c, 4, 69, 66
12, 2339, Note_on_c, 4, 69, 0
12, 2340, Note_on_c, 4, 68, 66
12, 2399, Note_on_c, 4, 68, 0
12, 2400, Note_on_c, 4, 70, 48
12, 2459, Note_on_c, 4, 70, 0
12, 2460, Note_on_c, 4, 69, 48
12, 2519, Note_on_c, 4, 69, 0
12, 2520, Note_on_c, 4, 67, 48
12, 2579, Note_on_c, 4, 67, 0
12, 2580, Note_on_c, 4, 65, 48
12, 2639, Note_on_c, 4, 65, 0
12, 2640, Note_on_c, 4, 64, 48
12, 2699, Note_on_c, 4, 64, 0
12, 2700, Note_on_c, 4, 62, 48
12, 2759, Note_on_c, 4, 62, 0
12, 2760, Note_on_c, 4, 61, 48
12, 2819, Note_on_c, 4, 61, 0
12, 2820, Note_on_c, 4, 62, 48
12, 2879, Note_on_c, 4, 62, 0
12, 2940, Note_on_c, 4, 64, 66
12, 2999, Note_on_c, 4, 64, 0
12, 3000, Note_on_c, 4, 74, 66
12, 3059, Note_on_c, 4, 74, 0
12, 3060, Note_on_c, 4, 73, 66
12, 3119, Note_on_c, 4, 73, 0
12, 3120, Note_on_c, 4, 76, 48
12, 3179, Note_on_c, 4, 76, 0
12, 3180, Note_on_c, 4, 74, 48
12, 3239, Note_on_c, 4, 74, 0
12, 3240, Note_on_c, 4, 73, 48
12, 3299, Note_on_c, 4, 73, 0
12, 3300, Note_on_c, 4, 70, 48
12, 3359, Note_on_c, 4, 70, 0
12, 3360, Note_on_c, 4, 69, 48
12, 3419, Note_on_c, 4, 69, 0
12, 3420, Note_on_c, 4, 67, 48
12, 3479, Note_on_c, 4, 67, 0
12, 3480, Note_on_c, 4, 65, 48
12, 3539, Note_on_c, 4, 65, 0
12, 3540, Note_on_c, 4, 64, 48
12, 3599, Note_on_c, 4, 64, 0
12, 3660, Note_on_c, 4, 62, 66
12, 3719, Note_on_c, 4, 62, 0
12, 3720, Note_on_c, 4, 77, 66
12, 3779, Note_on_c, 4, 77, 0
12, 3780, Note_on_c, 4, 76, 66
12, 3839, Note_on_c, 4, 76, 0
12, 3840, Note_on_c, 4, 74, 48
12, 3899, Note_on_c, 4, 74, 0
12, 3900, Note_on_c, 4, 81, 48
12, 3959, Note_on_c, 4, 81, 0
12, 3960, Note_on_c, 4, 79, 48
12, 4019, Note_on_c, 4, 79, 0
12, 4020, Note_on_c, 4, 77, 48
12, 4079, Note_on_c, 4, 77, 0
12, 4080, Note_on_c, 4, 76, 48
12, 4139, Note_on_c, 4, 76, 0
12, 4140, Note_on_c, 4, 74, 48
12, 4199, Note_on_c, 4, 74, 0
12, 4200, Note_on_c, 4, 73, 48
12, 4259, Note_on_c, 4, 73, 0
12, 4260, Note_on_c, 4, 74, 48
12, 4319, Note_on_c, 4, 74, 0
12, 4380, Note_on_c, 4, 76, 66
12, 4439, Note_on_c, 4, 76, 0
12, 4440, Note_on_c, 4, 79, 66
12, 4499, Note_on_c, 4, 79, 0
12, 4500, Note_on_c, 4, 77, 66
12, 4559, Note_on_c, 4, 77, 0
12, 4560, Note_on_c, 4, 76, 48
12, 4619, Note_on_c, 4, 76, 0
12, 4620, Note_on_c, 4, 82, 48
12, 4679, Note_on_c, 4, 82, 0
12, 4680, Note_on_c, 4, 81, 48
12, 4739, Note_on_c, 4, 81, 0
12, 4740, Note_on_c, 4, 79, 48
12, 4799, Note_on_c, 4, 79, 0
12, 4800, Note_on_c, 4, 77, 48
12, 4859, Note_on_c, 4, 77, 0
12, 4860, Note_on_c, 4, 76, 48
12, 4919, Note_on_c, 4, 76, 0
12, 4920, Note_on_c, 4, 74, 48
12, 4979, Note_on_c, 4, 74, 0
12, 4980, Note_on_c, 4, 76, 48
12, 5039, Note_on_c, 4, 76, 0
12, 5100, Note_on_c, 4, 65, 84
12, 5159, Note_on_c, 4, 65, 0
12, 5160, Note_on_c, 4, 77, 84
12, 5219, Note_on_c, 4, 77, 0
12, 5220, Note_on_c, 4, 76, 84
12, 5279, Note_on_c, 4, 76, 0
12, 5280, Note_on_c, 4, 79, 84
12, 5339, Note_on_c, 4, 79, 0
12, 5340, Note_on_c, 4, 77, 84
12, 5399, Note_on_c, 4, 77, 0
12, 5400, Note_on_c, 4, 76, 84
12, 5459, Note_on_c, 4, 76, 0
12, 5460, Note_on_c, 4, 74, 84
12, 5519, Note_on_c, 4, 74, 0
12, 5520, Note_on_c, 4, 73, 84
12, 5579, Note_on_c, 4, 73, 0
12, 5580, Note_on_c, 4, 74, 84
12, 5639, Note_on_c, 4, 74, 0
12, 5640, Note_on_c, 4, 76, 84
12, 5699, Note_on_c, 4, 76, 0
12, 5700, Note_on_c, 4, 74, 84
12, 5759, Note_on_c, 4, 74, 0
12, 5760, Note_on_c, 4, 81, 84
12, 5760, Note_on_c, 4, 73, 84
12, 5999, Note_on_c, 4, 81, 0
12, 5999, Note_on_c, 4, 73, 0
12, 6000, Note_on_c, 4, 57, 84
12, 6239, Note_on_c, 4, 57, 0
12, 7440, Note_on_c, 4, 72, 48
12, 7679, Note_on_c, 4, 72, 0
12, 7680, Note_on_c, 4, 72, 48
12, 7919, Note_on_c, 4, 72, 0
12, 7920, Note_on_c, 4, 72, 48
12, 8159, Note_on_c, 4, 72, 0
12, 8160, Note_on_c, 4, 70, 48
12, 8279, Note_on_c, 4, 70, 0
12, 8280, Note_on_c, 4, 69, 48
12, 8399, Note_on_c, 4, 69, 0
12, 8400, Note_on_c, 4, 67, 48
12, 8519, Note_on_c, 4, 67, 0
12, 8520, Note_on_c, 4, 65, 48
12, 8639, Note_on_c, 4, 65, 0
12, 8640, Note_on_c, 4, 65, 48
12, 9119, Note_on_c, 4, 65, 0
12, 9120, Note_on_c, 4, 69, 48
12, 9149, Note_on_c, 4, 69, 0
12, 9150, Note_on_c, 4, 67, 48
12, 9299, Note_on_c, 4, 67, 0
12, 9300, Note_on_c, 4, 65, 48
12, 9359, Note_on_c, 4, 65, 0
12, 9360, Note_on_c, 4, 65, 48
12, 9599, Note_on_c, 4, 65, 0
12, 11580, Note_on_c, 4, 60, 66
12, 11639, Note_on_c, 4, 60, 0
12, 11640, Note_on_c, 4, 72, 66
12, 11699, Note_on_c, 4, 72, 0
12, 11700, Note_on_c, 4, 71, 66
12, 11759, Note_on_c, 4, 71, 0
12, 11760, Note_on_c, 4, 74, 48
12, 11819, Note_on_c, 4, 74, 0
12, 11820, Note_on_c, 4, 72, 48
12, 11879, Note_on_c, 4, 72, 0
12, 11880, Note_on_c, 4, 70, 48
12, 11939, Note_on_c, 4, 70, 0
12, 11940, Note_on_c, 4, 69, 48
12, 11999, Note_on_c, 4, 69, 0
12, 12000, Note_on_c, 4, 67, 48
12, 12059, Note_on_c, 4, 67, 0
12, 12060, Note_on_c, 4, 65, 48
12, 12119, Note_on_c, 4, 65, 0
12, 12120, Note_on_c, 4, 64, 48
12, 12179, Note_on_c, 4, 64, 0
12, 12180, Note_on_c, 4, 65, 48
12, 12239, Note_on_c, 4, 65, 0
12, 12300, Note_on_c, 4, 64, 66
12, 12359, Note_on_c, 4, 64, 0
12, 12360, Note_on_c, 4, 70, 66
12, 12419, Note_on_c, 4, 70, 0
12, 12420, Note_on_c, 4, 69, 66
12, 12479, Note_on_c, 4, 69, 0
12, 12480, Note_on_c, 4, 72, 48
12, 12539, Note_on_c, 4, 72, 0
12, 12540, Note_on_c, 4, 70, 48
12, 12599, Note_on_c, 4, 70, 0
12, 12600, Note_on_c, 4, 69, 48
12, 12659, Note_on_c, 4, 69, 0
12, 12660, Note_on_c, 4, 67, 48
12, 12719, Note_on_c, 4, 67, 0
12, 12720, Note_on_c, 4, 65, 48
12, 12779, Note_on_c, 4, 65, 0
12, 12780, Note_on_c, 4, 64, 48
12, 12839, Note_on_c, 4, 64, 0
12, 12840, Note_on_c, 4, 62, 48
12, 12899, Note_on_c, 4, 62, 0
12, 12900, Note_on_c, 4, 60, 48
12, 12959, Note_on_c, 4, 60, 0
12, 13020, Note_on_c, 4, 60, 66
12, 13079, Note_on_c, 4, 60, 0
12, 13080, Note_on_c, 4, 72, 66
12, 13139, Note_on_c, 4, 72, 0
12, 13140, Note_on_c, 4, 71, 66
12, 13199, Note_on_c, 4, 71, 0
12, 13200, Note_on_c, 4, 74, 48
12, 13259, Note_on_c, 4, 74, 0
12, 13260, Note_on_c, 4, 72, 48
12, 13319, Note_on_c, 4, 72, 0
12, 13320, Note_on_c, 4, 70, 48
12, 13379, Note_on_c, 4, 70, 0
12, 13380, Note_on_c, 4, 69, 48
12, 13439, Note_on_c, 4, 69, 0
12, 13440, Note_on_c, 4, 67, 48
12, 13499, Note_on_c, 4, 67, 0
12, 13500, Note_on_c, 4, 65, 48
12, 13559, Note_on_c, 4, 65, 0
12, 13560, Note_on_c, 4, 64, 48
12, 13619, Note_on_c, 4, 64, 0
12, 13620, Note_on_c, 4, 65, 48
12, 13679, Note_on_c, 4, 65, 0
12, 13740, Note_on_c, 4, 62, 66
12, 13799, Note_on_c, 4, 62, 0
12, 13800, Note_on_c, 4, 74, 66
12, 13859, Note_on_c, 4, 74, 0
12, 13860, Note_on_c, 4, 73, 66
12, 13919, Note_on_c, 4, 73, 0
12, 13920, Note_on_c, 4, 76, 48
12, 13979, Note_on_c, 4, 76, 0
12, 13980, Note_on_c, 4, 74, 48
12, 14039, Note_on_c, 4, 74, 0
12, 14040, Note_on_c, 4, 72, 48
12, 14099, Note_on_c, 4, 72, 0
12, 14100, Note_on_c, 4, 71, 48
12, 14159, Note_on_c, 4, 71, 0
12, 14160, Note_on_c, 4, 69, 48
12, 14219, Note_on_c, 4, 69, 0
12, 14220, Note_on_c, 4, 67, 48
12, 14279, Note_on_c, 4, 67, 0
12, 14280, Note_on_c, 4, 66, 48
12, 14339, Note_on_c, 4, 66, 0
12, 14340, Note_on_c, 4, 67, 48
12, 14399, Note_on_c, 4, 67, 0
12, 14460, Note_on_c, 4, 67, 66
12, 14519, Note_on_c, 4, 67, 0
12, 14520, Note_on_c, 4, 79, 66
12, 14579, Note_on_c, 4, 79, 0
12, 14580, Note_on_c, 4, 78, 66
12, 14639, Note_on_c, 4, 78, 0
12, 14640, Note_on_c, 4, 81, 48
12, 14699, Note_on_c, 4, 81, 0
12, 14700, Note_on_c, 4, 79, 48
12, 14759, Note_on_c, 4, 79, 0
12, 14760, Note_on_c, 4, 77, 48
12, 14819, Note_on_c, 4, 77, 0
12, 14820, Note_on_c, 4, 76, 48
12, 14879, Note_on_c, 4, 76, 0
12, 14880, Note_on_c, 4, 74, 48
12, 14939, Note_on_c, 4, 74, 0
12, 14940, Note_on_c, 4, 72, 48
12, 14999, Note_on_c, 4, 72, 0
12, 15000, Note_on_c, 4, 71, 48
12, 15059, Note_on_c, 4, 71, 0
12, 15060, Note_on_c, 4, 72, 48
12, 15119, Note_on_c, 4, 72, 0
12, 15180, Note_on_c, 4, 70, 66
12, 15239, Note_on_c, 4, 70, 0
12, 15240, Note_on_c, 4, 82, 66
12, 15299, Note_on_c, 4, 82, 0
12, 15300, Note_on_c, 4, 81, 66
12, 15359, Note_on_c, 4, 81, 0
12, 15360, Note_on_c, 4, 84, 48
12, 15419, Note_on_c, 4, 84, 0
12, 15420, Note_on_c, 4, 82, 48
12, 15479, Note_on_c, 4, 82, 0
12, 15480, Note_on_c, 4, 81, 48
12, 15539, Note_on_c, 4, 81, 0
12, 15540, Note_on_c, 4, 82, 48
12, 15599, Note_on_c, 4, 82, 0
12, 15600, Note_on_c, 4, 82, 48
12, 15659, Note_on_c, 4, 82, 0
12, 15660, Note_on_c, 4, 81, 48
12, 15719, Note_on_c, 4, 81, 0
12, 15720, Note_on_c, 4, 80, 48
12, 15779, Note_on_c, 4, 80, 0
12, 15780, Note_on_c, 4, 81, 48
12, 15839, Note_on_c, 4, 81, 0
12, 15900, Note_on_c, 4, 72, 84
12, 15959, Note_on_c, 4, 72, 0
12, 15960, Note_on_c, 4, 84, 84
12, 16019, Note_on_c, 4, 84, 0
12, 16020, Note_on_c, 4, 83, 84
12, 16079, Note_on_c, 4, 83, 0
12, 16080, Note_on_c, 4, 86, 84
12, 16139, Note_on_c, 4, 86, 0
12, 16140, Note_on_c, 4, 84, 84
12, 16199, Note_on_c, 4, 84, 0
12, 16200, Note_on_c, 4, 83, 84
12, 16259, Note_on_c, 4, 83, 0
12, 16260, Note_on_c, 4, 84, 84
12, 16319, Note_on_c, 4, 84, 0
12, 16320, Note_on_c, 4, 83, 84
12, 16379, Note_on_c, 4, 83, 0
12, 16380, Note_on_c, 4, 81, 84
12, 16439, Note_on_c, 4, 81, 0
12, 16440, Note_on_c, 4, 80, 84
12, 16499, Note_on_c, 4, 80, 0
12, 16500, Note_on_c, 4, 81, 84
12, 16559, Note_on_c, 4, 81, 0
12, 16560, Note_on_c, 4, 80, 84
12, 16799, Note_on_c, 4, 80, 0
12, 16800, Note_on_c, 4, 76, 84
12, 16800, Note_on_c, 4, 71, 84
12, 16800, Note_on_c, 4, 64, 84
12, 17039, Note_on_c, 4, 76, 0
12, 17039, Note_on_c, 4, 71, 0
12, 17039, Note_on_c, 4, 64, 0
12, 17280, Note_on_c, 4, 55, 48
12, 17519, Note_on_c, 4, 55, 0
12, 17520, Note_on_c, 4, 67, 48
12, 17759, Note_on_c, 4, 67, 0
12, 17760, Note_on_c, 4, 67, 48
12, 17999, Note_on_c, 4, 67, 0
12, 18000, Note_on_c, 4, 67, 48
12, 18119, Note_on_c, 4, 67, 0
12, 18120, Note_on_c, 4, 67, 48
12, 18359, Note_on_c, 4, 67, 0
12, 18360, Note_on_c, 4, 67, 48
12, 18599, Note_on_c, 4, 67, 0
12, 18600, Note_on_c, 4, 67, 48
12, 18839, Note_on_c, 4, 67, 0
12, 18840, Note_on_c, 4, 67, 48
12, 19079, Note_on_c, 4, 67, 0
12, 19080, Note_on_c, 4, 67, 48
12, 19319, Note_on_c, 4, 67, 0
12, 19320, Note_on_c, 4, 67, 48
12, 19559, Note_on_c, 4, 67, 0
12, 19560, Note_on_c, 4, 67, 48
12, 19679, Note_on_c, 4, 67, 0
12, 19680, Note_on_c, 4, 65, 48
12, 19799, Note_on_c, 4, 65, 0
12, 19800, Note_on_c, 4, 64, 48
12, 19919, Note_on_c, 4, 64, 0
12, 19920, Note_on_c, 4, 65, 48
12, 20039, Note_on_c, 4, 65, 0
12, 20040, Note_on_c, 4, 65, 48
12, 20279, Note_on_c, 4, 65, 0
12, 20280, Note_on_c, 4, 65, 48
12, 20399, Note_on_c, 4, 65, 0
12, 20400, Note_on_c, 4, 64, 48
12, 20519, Note_on_c, 4, 64, 0
12, 20520, Note_on_c, 4, 64, 48
12, 20639, Note_on_c, 4, 64, 0
12, 20640, Note_on_c, 4, 63, 48
12, 20759, Note_on_c, 4, 63, 0
12, 20760, Note_on_c, 4, 63, 48
12, 20879, Note_on_c, 4, 63, 0
12, 20880, Note_on_c, 4, 62, 48
12, 20999, Note_on_c, 4, 62, 0
12, 21000, Note_on_c, 4, 62, 48
12, 21059, Note_on_c, 4, 62, 0
12, 21120, Note_on_c, 4, 62, 48
12, 21179, Note_on_c, 4, 62, 0
12, 21240, Note_on_c, 4, 62, 48
12, 21299, Note_on_c, 4, 62, 0
12, 21360, Note_on_c, 4, 62, 48
12, 21419, Note_on_c, 4, 62, 0
12, 21480, Note_on_c, 4, 62, 48
12, 21539, Note_on_c, 4, 62, 0
12, 21600, Note_on_c, 4, 60, 48
12, 21839, Note_on_c, 4, 60, 0
12, 21840, Note_on_c, 4, 79, 48
12, 22079, Note_on_c, 4, 79, 0
12, 22080, Note_on_c, 4, 79, 48
12, 22319, Note_on_c, 4, 79, 0
12, 22320, Note_on_c, 4, 79, 48
12, 22559, Note_on_c, 4, 79, 0
12, 22560, Note_on_c, 4, 77, 48
12, 22679, Note_on_c, 4, 77, 0
12, 22680, Note_on_c, 4, 76, 48
12, 22799, Note_on_c, 4, 76, 0
12, 22800, Note_on_c, 4, 74, 48
12, 22919, Note_on_c, 4, 74, 0
12, 22920, Note_on_c, 4, 72, 48
12, 23039, Note_on_c, 4, 72, 0
12, 23040, Note_on_c, 4, 72, 48
12, 23519, Note_on_c, 4, 72, 0
12, 23520, Note_on_c, 4, 76, 48
12, 23549, Note_on_c, 4, 76, 0
12, 23550, Note_on_c, 4, 74, 48
12, 23699, Note_on_c, 4, 74, 0
12, 23700, Note_on_c, 4, 72, 48
12, 23759, Note_on_c, 4, 72, 0
12, 23760, Note_on_c, 4, 72, 48
12, 23999, Note_on_c, 4, 72, 0
12, 24540, Note_on_c, 4, 77, 72
12, 24599, Note_on_c, 4, 77, 0
12, 24600, Note_on_c, 4, 76, 72
12, 24659, Note_on_c, 4, 76, 0
12, 24660, Note_on_c, 4, 74, 72
12, 24719, Note_on_c, 4, 74, 0
12, 24720, Note_on_c, 4, 72, 72
12, 24779, Note_on_c, 4, 72, 0
12, 24780, Note_on_c, 4, 71, 72
12, 24839, Note_on_c, 4, 71, 0
12, 24840, Note_on_c, 4, 69, 72
12, 24899, Note_on_c, 4, 69, 0
12, 24900, Note_on_c, 4, 67, 72
12, 24959, Note_on_c, 4, 67, 0
12, 24960, Note_on_c, 4, 66, 72
12, 25019, Note_on_c, 4, 66, 0
12, 25020, Note_on_c, 4, 67, 72
12, 25079, Note_on_c, 4, 67, 0
12, 25080, Note_on_c, 4, 69, 72
12, 25139, Note_on_c, 4, 69, 0
12, 25140, Note_on_c, 4, 67, 72
12, 25199, Note_on_c, 4, 67, 0
12, 25260, Note_on_c, 4, 67, 72
12, 25319, Note_on_c, 4, 67, 0
12, 25320, Note_on_c, 4, 76, 72
12, 25379, Note_on_c, 4, 76, 0
12, 25380, Note_on_c, 4, 74, 72
12, 25439, Note_on_c, 4, 74, 0
12, 25440, Note_on_c, 4, 77, 72
12, 25499, Note_on_c, 4, 77, 0
12, 25500, Note_on_c, 4, 76, 72
12, 25559, Note_on_c, 4, 76, 0
12, 25560, Note_on_c, 4, 74, 72
12, 25619, Note_on_c, 4, 74, 0
12, 25620, Note_on_c, 4, 72, 72
12, 25679, Note_on_c, 4, 72, 0
12, 25680, Note_on_c, 4, 71, 72
12, 25739, Note_on_c, 4, 71, 0
12, 25740, Note_on_c, 4, 72, 72
12, 25799, Note_on_c, 4, 72, 0
12, 25800, Note_on_c, 4, 74, 72
12, 25859, Note_on_c, 4, 74, 0
12, 25860, Note_on_c, 4, 72, 72
12, 25919, Note_on_c, 4, 72, 0
12, 25980, Note_on_c, 4, 68, 72
12, 26039, Note_on_c, 4, 68, 0
12, 26040, Note_on_c, 4, 80, 72
12, 26099, Note_on_c, 4, 80, 0
12, 26100, Note_on_c, 4, 79, 72
12, 26159, Note_on_c, 4, 79, 0
12, 26160, Note_on_c, 4, 82, 72
12, 26219, Note_on_c, 4, 82, 0
12, 26220, Note_on_c, 4, 80, 72
12, 26279, Note_on_c, 4, 80, 0
12, 26280, Note_on_c, 4, 79, 72
12, 26339, Note_on_c, 4, 79, 0
12, 26340, Note_on_c, 4, 77, 72
12, 26399, Note_on_c, 4, 77, 0
12, 26400, Note_on_c, 4, 75, 72
12, 26459, Note_on_c, 4, 75, 0
12, 26460, Note_on_c, 4, 74, 72
12, 26519, Note_on_c, 4, 74, 0
12, 26520, Note_on_c, 4, 72, 72
12, 26579, Note_on_c, 4, 72, 0
12, 26580, Note_on_c, 4, 71, 72
12, 26639, Note_on_c, 4, 71, 0
12, 26700, Note_on_c, 4, 68, 72
12, 26759, Note_on_c, 4, 68, 0
12, 26760, Note_on_c, 4, 80, 72
12, 26819, Note_on_c, 4, 80, 0
12, 26820, Note_on_c, 4, 79, 72
12, 26879, Note_on_c, 4, 79, 0
12, 26880, Note_on_c, 4, 82, 72
12, 26939, Note_on_c, 4, 82, 0
12, 26940, Note_on_c, 4, 80, 72
12, 26999, Note_on_c, 4, 80, 0
12, 27000, Note_on_c, 4, 79, 72
12, 27059, Note_on_c, 4, 79, 0
12, 27060, Note_on_c, 4, 77, 72
12, 27119, Note_on_c, 4, 77, 0
12, 27120, Note_on_c, 4, 75, 72
12, 27179, Note_on_c, 4, 75, 0
12, 27180, Note_on_c, 4, 74, 72
12, 27239, Note_on_c, 4, 74, 0
12, 27240, Note_on_c, 4, 72, 72
12, 27299, Note_on_c, 4, 72, 0
12, 27300, Note_on_c, 4, 70, 72
12, 27359, Note_on_c, 4, 70, 0
12, 27420, Note_on_c, 4, 67, 72
12, 27479, Note_on_c, 4, 67, 0
12, 27480, Note_on_c, 4, 79, 72
12, 27539, Note_on_c, 4, 79, 0
12, 27540, Note_on_c, 4, 77, 72
12, 27599, Note_on_c, 4, 77, 0
12, 27600, Note_on_c, 4, 80, 72
12, 27659, Note_on_c, 4, 80, 0
12, 27660, Note_on_c, 4, 79, 72
12, 27719, Note_on_c, 4, 79, 0
12, 27720, Note_on_c, 4, 77, 72
12, 27779, Note_on_c, 4, 77, 0
12, 27780, Note_on_c, 4, 75, 72
12, 27839, Note_on_c, 4, 75, 0
12, 27840, Note_on_c, 4, 74, 72
12, 27899, Note_on_c, 4, 74, 0
12, 27900, Note_on_c, 4, 75, 72
12, 27959, Note_on_c, 4, 75, 0
12, 27960, Note_on_c, 4, 77, 72
12, 28019, Note_on_c, 4, 77, 0
12, 28020, Note_on_c, 4, 75, 72
12, 28079, Note_on_c, 4, 75, 0
12, 28140, Note_on_c, 4, 66, 72
12, 28199, Note_on_c, 4, 66, 0
12, 28200, Note_on_c, 4, 78, 72
12, 28259, Note_on_c, 4, 78, 0
12, 28260, Note_on_c, 4, 77, 72
12, 28319, Note_on_c, 4, 77, 0
12, 28320, Note_on_c, 4, 80, 72
12, 28379, Note_on_c, 4, 80, 0
12, 28380, Note_on_c, 4, 78, 72
12, 28439, Note_on_c, 4, 78, 0
12, 28440, Note_on_c, 4, 77, 72
12, 28499, Note_on_c, 4, 77, 0
12, 28500, Note_on_c, 4, 75, 72
12, 28559, Note_on_c, 4, 75, 0
12, 28560, Note_on_c, 4, 74, 72
12, 28619, Note_on_c, 4, 74, 0
12, 28620, Note_on_c, 4, 75, 72
12, 28679, Note_on_c, 4, 75, 0
12, 28680, Note_on_c, 4, 77, 72
12, 28739, Note_on_c, 4, 77, 0
12, 28740, Note_on_c, 4, 75, 72
12, 28799, Note_on_c, 4, 75, 0
12, 28800, Note_on_c, 4, 74, 72
12, 29039, Note_on_c, 4, 74, 0
12, 29760, Note_on_c, 4, 77, 48
12, 29999, Note_on_c, 4, 77, 0
12, 30000, Note_on_c, 4, 77, 48
12, 30239, Note_on_c, 4, 77, 0
12, 30240, Note_on_c, 4, 77, 48
12, 30479, Note_on_c, 4, 77, 0
12, 30480, Note_on_c, 4, 75, 48
12, 30599, Note_on_c, 4, 75, 0
12, 30600, Note_on_c, 4, 74, 48
12, 30719, Note_on_c, 4, 74, 0
12, 30720, Note_on_c, 4, 72, 48
12, 30839, Note_on_c, 4, 72, 0
12, 30840, Note_on_c, 4, 70, 48
12, 30959, Note_on_c, 4, 70, 0
12, 30960, Note_on_c, 4, 70, 48
12, 31439, Note_on_c, 4, 70, 0
12, 31440, Note_on_c, 4, 74, 48
12, 31499, Note_on_c, 4, 74, 0
12, 31500, Note_on_c, 4, 72, 48
12, 31679, Note_on_c, 4, 72, 0
12, 31680, Note_on_c, 4, 70, 48
12, 32399, Note_on_c, 4, 70, 0
12, 32640, Note_on_c, 4, 70, 48
12, 32879, Note_on_c, 4, 70, 0
12, 32880, Note_on_c, 4, 70, 48
12, 33119, Note_on_c, 4, 70, 0
12, 33120, Note_on_c, 4, 70, 48
12, 33239, Note_on_c, 4, 70, 0
12, 33240, Note_on_c, 4, 70, 48
12, 33479, Note_on_c, 4, 70, 0
12, 33480, Note_on_c, 4, 70, 48
12, 33719, Note_on_c, 4, 70, 0
12, 33720, Note_on_c, 4, 70, 48
12, 33839, Note_on_c, 4, 70, 0
12, 33840, Note_on_c, 4, 71, 48
12, 33959, Note_on_c, 4, 71, 0
12, 33960, Note_on_c, 4, 71, 51
12, 34199, Note_on_c, 4, 71, 0
12, 34200, Note_on_c, 4, 71, 54
12, 34439, Note_on_c, 4, 71, 0
12, 34440, Note_on_c, 4, 71, 57
12, 34559, Note_on_c, 4, 71, 0
12, 34560, Note_on_c, 4, 70, 60
12, 34679, Note_on_c, 4, 70, 0
12, 34680, Note_on_c, 4, 70, 63
12, 34919, Note_on_c, 4, 70, 0
12, 34920, Note_on_c, 4, 70, 66
12, 35159, Note_on_c, 4, 70, 0
12, 35160, Note_on_c, 4, 70, 69
12, 35399, Note_on_c, 4, 70, 0
12, 35400, Note_on_c, 4, 70, 72
12, 35519, Note_on_c, 4, 70, 0
12, 35520, Note_on_c, 4, 69, 72
12, 35639, Note_on_c, 4, 69, 0
12, 35640, Note_on_c, 4, 69, 72
12, 35759, Note_on_c, 4, 69, 0
12, 35760, Note_on_c, 4, 67, 72
12, 35879, Note_on_c, 4, 67, 0
12, 35880, Note_on_c, 4, 67, 72
12, 35999, Note_on_c, 4, 67, 0
12, 36000, Note_on_c, 4, 69, 72
12, 36719, Note_on_c, 4, 69, 0
12, 36840, Note_on_c, 4, 65, 48
12, 36959, Note_on_c, 4, 65, 0
12, 37080, Note_on_c, 4, 70, 48
12, 37199, Note_on_c, 4, 70, 0
12, 37320, Note_on_c, 4, 70, 48
12, 37439, Note_on_c, 4, 70, 0
12, 37560, Note_on_c, 4, 69, 48
12, 37679, Note_on_c, 4, 69, 0
12, 37680, Note_on_c, 4, 77, 48
12, 37979, Note_on_c, 4, 77, 0
12, 37980, Note_on_c, 4, 79, 48
12, 38039, Note_on_c, 4, 79, 0
12, 38040, Note_on_c, 4, 77, 48
12, 38099, Note_on_c, 4, 77, 0
12, 38100, Note_on_c, 4, 75, 48
12, 38159, Note_on_c, 4, 75, 0
12, 38160, Note_on_c, 4, 74, 48
12, 38219, Note_on_c, 4, 74, 0
12, 38220, Note_on_c, 4, 77, 48
12, 38279, Note_on_c, 4, 77, 0
12, 38280, Note_on_c, 4, 75, 48
12, 38339, Note_on_c, 4, 75, 0
12, 38340, Note_on_c, 4, 74, 48
12, 38399, Note_on_c, 4, 74, 0
12, 38400, Note_on_c, 4, 72, 48
12, 38459, Note_on_c, 4, 72, 0
12, 38460, Note_on_c, 4, 75, 48
12, 38519, Note_on_c, 4, 75, 0
12, 38520, Note_on_c, 4, 74, 48
12, 38579, Note_on_c, 4, 74, 0
12, 38580, Note_on_c, 4, 72, 48
12, 38639, Note_on_c, 4, 72, 0
12, 38640, Note_on_c, 4, 70, 48
12, 38879, Note_on_c, 4, 70, 0
12, 39720, Note_on_c, 4, 67, 48
12, 39899, Note_on_c, 4, 67, 0
12, 39900, Note_on_c, 4, 65, 48
12, 39959, Note_on_c, 4, 65, 0
12, 39960, Note_on_c, 4, 67, 48
12, 40019, Note_on_c, 4, 67, 0
12, 40020, Note_on_c, 4, 69, 48
12, 40079, Note_on_c, 4, 69, 0
12, 40080, Note_on_c, 4, 70, 48
12, 40139, Note_on_c, 4, 70, 0
12, 40140, Note_on_c, 4, 65, 48
12, 40199, Note_on_c, 4, 65, 0
12, 40200, Note_on_c, 4, 70, 48
12, 40439, Note_on_c, 4, 70, 0
12, 40440, Note_on_c, 4, 69, 48
12, 40559, Note_on_c, 4, 69, 0
12, 40560, Note_on_c, 4, 70, 48
12, 40679, Note_on_c, 4, 70, 0
12, 40680, Note_on_c, 4, 82, 48
12, 40859, Note_on_c, 4, 82, 0
12, 40860, Note_on_c, 4, 84, 48
12, 40919, Note_on_c, 4, 84, 0
12, 40920, Note_on_c, 4, 82, 48
12, 40979, Note_on_c, 4, 82, 0
12, 40980, Note_on_c, 4, 81, 48
12, 41039, Note_on_c, 4, 81, 0
12, 41040, Note_on_c, 4, 79, 48
12, 41099, Note_on_c, 4, 79, 0
12, 41100, Note_on_c, 4, 81, 48
12, 41159, Note_on_c, 4, 81, 0
12, 41160, Note_on_c, 4, 79, 48
12, 41219, Note_on_c, 4, 79, 0
12, 41220, Note_on_c, 4, 77, 48
12, 41279, Note_on_c, 4, 77, 0
12, 41280, Note_on_c, 4, 76, 48
12, 41339, Note_on_c, 4, 76, 0
12, 41340, Note_on_c, 4, 77, 48
12, 41399, Note_on_c, 4, 77, 0
12, 41400, Note_on_c, 4, 76, 48
12, 41459, Note_on_c, 4, 76, 0
12, 41460, Note_on_c, 4, 74, 48
12, 41519, Note_on_c, 4, 74, 0
12, 41520, Note_on_c, 4, 72, 48
12, 41759, Note_on_c, 4, 72, 0
12, 41880, Note_on_c, 4, 84, 48
12, 42059, Note_on_c, 4, 84, 0
12, 42060, Note_on_c, 4, 86, 48
12, 42119, Note_on_c, 4, 86, 0
12, 42120, Note_on_c, 4, 84, 48
12, 42179, Note_on_c, 4, 84, 0
12, 42180, Note_on_c, 4, 82, 48
12, 42239, Note_on_c, 4, 82, 0
12, 42240, Note_on_c, 4, 81, 48
12, 42299, Note_on_c, 4, 81, 0
12, 42300, Note_on_c, 4, 82, 48
12, 42359, Note_on_c, 4, 82, 0
12, 42360, Note_on_c, 4, 81, 48
12, 42419, Note_on_c, 4, 81, 0
12, 42420, Note_on_c, 4, 79, 48
12, 42479, Note_on_c, 4, 79, 0
12, 42480, Note_on_c, 4, 78, 48
12, 42719, Note_on_c, 4, 78, 0
12, 42720, Note_on_c, 4, 79, 48
12, 43199, Note_on_c, 4, 79, 0
12, 43200, Note_on_c, 4, 78, 48
12, 43439, Note_on_c, 4, 78, 0
12, 43440, Note_on_c, 4, 79, 72
12, 43529, Note_on_c, 4, 79, 0
12, 43530, Note_on_c, 4, 67, 72
12, 43559, Note_on_c, 4, 67, 0
12, 43560, Note_on_c, 4, 74, 72
12, 43649, Note_on_c, 4, 74, 0
12, 43650, Note_on_c, 4, 70, 72
12, 43679, Note_on_c, 4, 70, 0
12, 43680, Note_on_c, 4, 75, 72
12, 43919, Note_on_c, 4, 75, 0
12, 44010, Note_on_c, 4, 65, 72
12, 44039, Note_on_c, 4, 65, 0
12, 44040, Note_on_c, 4, 72, 72
12, 44129, Note_on_c, 4, 72, 0
12, 44130, Note_on_c, 4, 69, 72
12, 44159, Note_on_c, 4, 69, 0
12, 44160, Note_on_c, 4, 77, 72
12, 44399, Note_on_c, 4, 77, 0
12, 44490, Note_on_c, 4, 74, 72
12, 44519, Note_on_c, 4, 74, 0
12, 44520, Note_on_c, 4, 77, 72
12, 44609, Note_on_c, 4, 77, 0
12, 44610, Note_on_c, 4, 74, 72
12, 44639, Note_on_c, 4, 74, 0
12, 44640, Note_on_c, 4, 82, 72
12, 44879, Note_on_c, 4, 82, 0
12, 44970, Note_on_c, 4, 69, 72
12, 44999, Note_on_c, 4, 69, 0
12, 45000, Note_on_c, 4, 74, 72
12, 45089, Note_on_c, 4, 74, 0
12, 45090, Note_on_c, 4, 69, 72
12, 45119, Note_on_c, 4, 69, 0
12, 45120, Note_on_c, 4, 81, 72
12, 45359, Note_on_c, 4, 81, 0
12, 45450, Note_on_c, 4, 70, 72
12, 45479, Note_on_c, 4, 70, 0
12, 45480, Note_on_c, 4, 74, 72
12, 45569, Note_on_c, 4, 74, 0
12, 45570, Note_on_c, 4, 70, 72
12, 45599, Note_on_c, 4, 70, 0
12, 45600, Note_on_c, 4, 82, 72
12, 45839, Note_on_c, 4, 82, 0
12, 45930, Note_on_c, 4, 81, 72
12, 45959, Note_on_c, 4, 81, 0
12, 45960, Note_on_c, 4, 82, 72
12, 46049, Note_on_c, 4, 82, 0
12, 46050, Note_on_c, 4, 74, 72
12, 46079, Note_on_c, 4, 74, 0
12, 46080, Note_on_c, 4, 72, 72
12, 46169, Note_on_c, 4, 72, 0
12, 46170, Note_on_c, 4, 82, 72
12, 46199, Note_on_c, 4, 82, 0
12, 46200, Note_on_c, 4, 72, 72
12, 46289, Note_on_c, 4, 72, 0
12, 46290, Note_on_c, 4, 81, 72
12, 46319, Note_on_c, 4, 81, 0
12, 46320, Note_on_c, 4, 82, 72
12, 46409, Note_on_c, 4, 82, 0
12, 46410, Note_on_c, 4, 70, 72
12, 46439, Note_on_c, 4, 70, 0
12, 46440, Note_on_c, 4, 74, 72
12, 46529, Note_on_c, 4, 74, 0
12, 46530, Note_on_c, 4, 70, 72
12, 46559, Note_on_c, 4, 70, 0
12, 46560, Note_on_c, 4, 82, 72
12, 46799, Note_on_c, 4, 82, 0
12, 46890, Note_on_c, 4, 74, 72
12, 46919, Note_on_c, 4, 74, 0
12, 46920, Note_on_c, 4, 79, 72
12, 47009, Note_on_c, 4, 79, 0
12, 47010, Note_on_c, 4, 74, 72
12, 47039, Note_on_c, 4, 74, 0
12, 47040, Note_on_c, 4, 86, 72
12, 47279, Note_on_c, 4, 86, 0
12, 47370, Note_on_c, 4, 72, 72
12, 47399, Note_on_c, 4, 72, 0
12, 47400, Note_on_c, 4, 79, 72
12, 47489, Note_on_c, 4, 79, 0
12, 47490, Note_on_c, 4, 72, 72
12, 47519, Note_on_c, 4, 72, 0
12, 47520, Note_on_c, 4, 84, 72
12, 47759, Note_on_c, 4, 84, 0
12, 47850, Note_on_c, 4, 72, 72
12, 47879, Note_on_c, 4, 72, 0
12, 47880, Note_on_c, 4, 79, 72
12, 47969, Note_on_c, 4, 79, 0
12, 47970, Note_on_c, 4, 72, 72
12, 47999, Note_on_c, 4, 72, 0
12, 48000, Note_on_c, 4, 84, 72
12, 48239, Note_on_c, 4, 84, 0
12, 48330, Note_on_c, 4, 72, 72
12, 48359, Note_on_c, 4, 72, 0
12, 48360, Note_on_c, 4, 84, 72
12, 48479, Note_on_c, 4, 84, 0
12, 48570, Note_on_c, 4, 70, 72
12, 48599, Note_on_c, 4, 70, 0
12, 48600, Note_on_c, 4, 82, 72
12, 48719, Note_on_c, 4, 82, 0
12, 48810, Note_on_c, 4, 70, 72
12, 48839, Note_on_c, 4, 70, 0
12, 48840, Note_on_c, 4, 74, 72
12, 48929, Note_on_c, 4, 74, 0
12, 48930, Note_on_c, 4, 79, 72
12, 48959, Note_on_c, 4, 79, 0
12, 48960, Note_on_c, 4, 62, 72
12, 49049, Note_on_c, 4, 62, 0
12, 49050, Note_on_c, 4, 69, 72
12, 49079, Note_on_c, 4, 69, 0
12, 49080, Note_on_c, 4, 72, 72
12, 49169, Note_on_c, 4, 72, 0
12, 49170, Note_on_c, 4, 78, 72
12, 49199, Note_on_c, 4, 78, 0
12, 49200, Note_on_c, 4, 79, 48
12, 49319, Note_on_c, 4, 79, 0
12, 49320, Note_on_c, 4, 67, 48
12, 49439, Note_on_c, 4, 67, 0
12, 49560, Note_on_c, 4, 67, 48
12, 49679, Note_on_c, 4, 67, 0
12, 49800, Note_on_c, 4, 67, 48
12, 49919, Note_on_c, 4, 67, 0
12, 50040, Note_on_c, 4, 66, 48
12, 50159, Note_on_c, 4, 66, 0
12, 50160, Note_on_c, 4, 74, 48
12, 50459, Note_on_c, 4, 74, 0
12, 50460, Note_on_c, 4, 75, 48
12, 50519, Note_on_c, 4, 75, 0
12, 50520, Note_on_c, 4, 74, 48
12, 50579, Note_on_c, 4, 74, 0
12, 50580, Note_on_c, 4, 72, 48
12, 50639, Note_on_c, 4, 72, 0
12, 50640, Note_on_c, 4, 70, 48
12, 50699, Note_on_c, 4, 70, 0
12, 50700, Note_on_c, 4, 74, 48
12, 50759, Note_on_c, 4, 74, 0
12, 50760, Note_on_c, 4, 72, 48
12, 50819, Note_on_c, 4, 72, 0
12, 50820, Note_on_c, 4, 70, 48
12, 50879, Note_on_c, 4, 70, 0
12, 50880, Note_on_c, 4, 69, 48
12, 50939, Note_on_c, 4, 69, 0
12, 50940, Note_on_c, 4, 72, 48
12, 50999, Note_on_c, 4, 72, 0
12, 51000, Note_on_c, 4, 70, 48
12, 51059, Note_on_c, 4, 70, 0
12, 51060, Note_on_c, 4, 69, 48
12, 51119, Note_on_c, 4, 69, 0
12, 51120, Note_on_c, 4, 67, 60
12, 51179, Note_on_c, 4, 67, 0
12, 51180, Note_on_c, 4, 70, 72
12, 51299, Note_on_c, 4, 70, 0
12, 51300, Note_on_c, 4, 82, 72
12, 51359, Note_on_c, 4, 82, 0
12, 51420, Note_on_c, 4, 67, 72
12, 51539, Note_on_c, 4, 67, 0
12, 51540, Note_on_c, 4, 79, 72
12, 51599, Note_on_c, 4, 79, 0
12, 51660, Note_on_c, 4, 64, 72
12, 51779, Note_on_c, 4, 64, 0
12, 51780, Note_on_c, 4, 76, 72
12, 51839, Note_on_c, 4, 76, 0
12, 51900, Note_on_c, 4, 69, 72
12, 52019, Note_on_c, 4, 69, 0
12, 52020, Note_on_c, 4, 81, 72
12, 52079, Note_on_c, 4, 81, 0
12, 52140, Note_on_c, 4, 69, 72
12, 52259, Note_on_c, 4, 69, 0
12, 52260, Note_on_c, 4, 81, 72
12, 52319, Note_on_c, 4, 81, 0
12, 52380, Note_on_c, 4, 73, 72
12, 52499, Note_on_c, 4, 73, 0
12, 52500, Note_on_c, 4, 85, 72
12, 52559, Note_on_c, 4, 85, 0
12, 52620, Note_on_c, 4, 74, 72
12, 52739, Note_on_c, 4, 74, 0
12, 52740, Note_on_c, 4, 86, 72
12, 52799, Note_on_c, 4, 86, 0
12, 52860, Note_on_c, 4, 65, 72
12, 52979, Note_on_c, 4, 65, 0
12, 52980, Note_on_c, 4, 77, 72
12, 53039, Note_on_c, 4, 77, 0
12, 53100, Note_on_c, 4, 64, 72
12, 53219, Note_on_c, 4, 64, 0
12, 53220, Note_on_c, 4, 76, 72
12, 53279, Note_on_c, 4, 76, 0
12, 53340, Note_on_c, 4, 71, 72
12, 53459, Note_on_c, 4, 71, 0
12, 53460, Note_on_c, 4, 83, 72
12, 53519, Note_on_c, 4, 83, 0
12, 53580, Note_on_c, 4, 72, 72
12, 53699, Note_on_c, 4, 72, 0
12, 53700, Note_on_c, 4, 84, 72
12, 53759, Note_on_c, 4, 84, 0
12, 53820, Note_on_c, 4, 68, 72
12, 53939, Note_on_c, 4, 68, 0
12, 53940, Note_on_c, 4, 80, 72
12, 53999, Note_on_c, 4, 80, 0
12, 54000, Note_on_c, 4, 81, 72
12, 54119, Note_on_c, 4, 81, 0
12, 54120, Note_on_c, 4, 72, 72
12, 54299, Note_on_c, 4, 72, 0
12, 54300, Note_on_c, 4, 70, 72
12, 54359, Note_on_c, 4, 70, 0
12, 54360, Note_on_c, 4, 72, 72
12, 54419, Note_on_c, 4, 72, 0
12, 54420, Note_on_c, 4, 74, 72
12, 54479, Note_on_c, 4, 74, 0
12, 54480, Note_on_c, 4, 70, 72
12, 54779, Note_on_c, 4, 70, 0
12, 54780, Note_on_c, 4, 69, 72
12, 54839, Note_on_c, 4, 69, 0
12, 54840, Note_on_c, 4, 70, 72
12, 54899, Note_on_c, 4, 70, 0
12, 54900, Note_on_c, 4, 72, 72
12, 54959, Note_on_c, 4, 72, 0
12, 54960, Note_on_c, 4, 69, 72
12, 55139, Note_on_c, 4, 69, 0
12, 55140, Note_on_c, 4, 69, 72
12, 55199, Note_on_c, 4, 69, 0
12, 55200, Note_on_c, 4, 69, 72
12, 55319, Note_on_c, 4, 69, 0
12, 55320, Note_on_c, 4, 69, 72
12, 55439, Note_on_c, 4, 69, 0
12, 55440, Note_on_c, 4, 74, 72
12, 55559, Note_on_c, 4, 74, 0
12, 55560, Note_on_c, 4, 74, 72
12, 55799, Note_on_c, 4, 74, 0
12, 55800, Note_on_c, 4, 74, 72
12, 55919, Note_on_c, 4, 74, 0
12, 55920, Note_on_c, 4, 74, 72
12, 55979, Note_on_c, 4, 74, 0
12, 55980, Note_on_c, 4, 72, 72
12, 56039, Note_on_c, 4, 72, 0
12, 56040, Note_on_c, 4, 70, 72
12, 56099, Note_on_c, 4, 70, 0
12, 56100, Note_on_c, 4, 72, 72
12, 56159, Note_on_c, 4, 72, 0
12, 56160, Note_on_c, 4, 74, 72
12, 56219, Note_on_c, 4, 74, 0
12, 56220, Note_on_c, 4, 72, 72
12, 56279, Note_on_c, 4, 72, 0
12, 56280, Note_on_c, 4, 74, 72
12, 56339, Note_on_c, 4, 74, 0
12, 56340, Note_on_c, 4, 76, 72
12, 56399, Note_on_c, 4, 76, 0
12, 56400, Note_on_c, 4, 77, 72
12, 56519, Note_on_c, 4, 77, 0
12, 56520, Note_on_c, 4, 72, 72
12, 56639, Note_on_c, 4, 72, 0
12, 56640, Note_on_c, 4, 77, 72
12, 56999, Note_on_c, 4, 77, 0
12, 57000, Note_on_c, 4, 77, 72
12, 57119, Note_on_c, 4, 77, 0
12, 57120, Note_on_c, 4, 76, 72
12, 57239, Note_on_c, 4, 76, 0
12, 57240, Note_on_c, 4, 76, 72
12, 57359, Note_on_c, 4, 76, 0
12, 57360, Note_on_c, 4, 77, 72
12, 57599, Note_on_c, 4, 77, 0
12, 57600, Note_on_c, 4, 79, 72
12, 57839, Note_on_c, 4, 79, 0
12, 57840, Note_on_c, 4, 81, 72
12, 58079, Note_on_c, 4, 81, 0
12, 58080, Note_on_c, 4, 73, 72
12, 58199, Note_on_c, 4, 73, 0
12, 58200, Note_on_c, 4, 73, 72
12, 58319, Note_on_c, 4, 73, 0
12, 58320, Note_on_c, 4, 74, 72
12, 58559, Note_on_c, 4, 74, 0
12, 58560, Note_on_c, 4, 76, 72
12, 58799, Note_on_c, 4, 76, 0
12, 58800, Note_on_c, 4, 77, 72
12, 59039, Note_on_c, 4, 77, 0
12, 59040, Note_on_c, 4, 69, 72
12, 59159, Note_on_c, 4, 69, 0
12, 59160, Note_on_c, 4, 69, 72
12, 59279, Note_on_c, 4, 69, 0
12, 59280, Note_on_c, 4, 70, 72
12, 59519, Note_on_c, 4, 70, 0
12, 59520, Note_on_c, 4, 72, 72
12, 59759, Note_on_c, 4, 72, 0
12, 59760, Note_on_c, 4, 74, 72
12, 59999, Note_on_c, 4, 74, 0
12, 60300, Note_on_c, 4, 72, 72
12, 60314, Note_on_c, 4, 72, 0
12, 60315, Note_on_c, 4, 70, 72
12, 60329, Note_on_c, 4, 70, 0
12, 60330, Note_on_c, 4, 69, 72
12, 60344, Note_on_c, 4, 69, 0
12, 60345, Note_on_c, 4, 70, 72
12, 60359, Note_on_c, 4, 70, 0
12, 60360, Note_on_c, 4, 74, 72
12, 60419, Note_on_c, 4, 74, 0
12, 60420, Note_on_c, 4, 70, 72
12, 60449, Note_on_c, 4, 70, 0
12, 60480, Note_on_c, 4, 65, 72
12, 60509, Note_on_c, 4, 65, 0
12, 60540, Note_on_c, 4, 62, 72
12, 60569, Note_on_c, 4, 62, 0
12, 60600, Note_on_c, 4, 58, 72
12, 60629, Note_on_c, 4, 58, 0
12, 60660, Note_on_c, 4, 65, 72
12, 60689, Note_on_c, 4, 65, 0
12, 60720, Note_on_c, 4, 57, 72
12, 60959, Note_on_c, 4, 57, 0
12, 61260, Note_on_c, 4, 76, 72
12, 61274, Note_on_c, 4, 76, 0
12, 61275, Note_on_c, 4, 74, 72
12, 61289, Note_on_c, 4, 74, 0
12, 61290, Note_on_c, 4, 73, 72
12, 61304, Note_on_c, 4, 73, 0
12, 61305, Note_on_c, 4, 74, 72
12, 61319, Note_on_c, 4, 74, 0
12, 61320, Note_on_c, 4, 77, 72
12, 61379, Note_on_c, 4, 77, 0
12, 61380, Note_on_c, 4, 74, 72
12, 61409, Note_on_c, 4, 74, 0
12, 61440, Note_on_c, 4, 69, 72
12, 61469, Note_on_c, 4, 69, 0
12, 61500, Note_on_c, 4, 65, 72
12, 61529, Note_on_c, 4, 65, 0
12, 61560, Note_on_c, 4, 62, 72
12, 61589, Note_on_c, 4, 62, 0
12, 61620, Note_on_c, 4, 65, 72
12, 61649, Note_on_c, 4, 65, 0
12, 61680, Note_on_c, 4, 56, 72
12, 61799, Note_on_c, 4, 56, 0
12, 61800, Note_on_c, 4, 77, 72
12, 61919, Note_on_c, 4, 77, 0
12, 61920, Note_on_c, 4, 77, 72
12, 62039, Note_on_c, 4, 77, 0
12, 62040, Note_on_c, 4, 77, 72
12, 62159, Note_on_c, 4, 77, 0
12, 62160, Note_on_c, 4, 77, 72
12, 62279, Note_on_c, 4, 77, 0
12, 62280, Note_on_c, 4, 77, 72
12, 62399, Note_on_c, 4, 77, 0
12, 62400, Note_on_c, 4, 76, 72
12, 62519, Note_on_c, 4, 76, 0
12, 62520, Note_on_c, 4, 74, 72
12, 62639, Note_on_c, 4, 74, 0
12, 62640, Note_on_c, 4, 74, 72
12, 62759, Note_on_c, 4, 74, 0
12, 62760, Note_on_c, 4, 73, 72
12, 62879, Note_on_c, 4, 73, 0
12, 63000, Note_on_c, 4, 69, 48
12, 63119, Note_on_c, 4, 69, 0
12, 63120, Note_on_c, 4, 69, 48
12, 63359, Note_on_c, 4, 69, 0
12, 63360, Note_on_c, 4, 69, 48
12, 63599, Note_on_c, 4, 69, 0
12, 63600, Note_on_c, 4, 69, 48
12, 63839, Note_on_c, 4, 69, 0
12, 63840, Note_on_c, 4, 69, 48
12, 64079, Note_on_c, 4, 69, 0
12, 64080, Note_on_c, 4, 69, 48
12, 64319, Note_on_c, 4, 69, 0
12, 64320, Note_on_c, 4, 68, 48
12, 64439, Note_on_c, 4, 68, 0
12, 64440, Note_on_c, 4, 69, 48
12, 64559, Note_on_c, 4, 69, 0
12, 64560, Note_on_c, 4, 65, 48
12, 64799, Note_on_c, 4, 65, 0
12, 64800, Note_on_c, 4, 64, 48
12, 64919, Note_on_c, 4, 64, 0
12, 64920, Note_on_c, 4, 62, 48
12, 65039, Note_on_c, 4, 62, 0
12, 65040, Note_on_c, 4, 64, 48
12, 65519, Note_on_c, 4, 64, 0
12, 68880, Note_on_c, 4, 74, 72
12, 69359, Note_on_c, 4, 74, 0
12, 69360, Note_on_c, 4, 72, 72
12, 69599, Note_on_c, 4, 72, 0
12, 69600, Note_on_c, 4, 77, 72
12, 69839, Note_on_c, 4, 77, 0
12, 69840, Note_on_c, 4, 68, 72
12, 70319, Note_on_c, 4, 68, 0
12, 70320, Note_on_c, 4, 69, 72
12, 70559, Note_on_c, 4, 69, 0
12, 70560, Note_on_c, 4, 69, 72
12, 70679, Note_on_c, 4, 69, 0
12, 70680, Note_on_c, 4, 69, 72
12, 70799, Note_on_c, 4, 69, 0
12, 70800, Note_on_c, 4, 71, 72
12, 71159, Note_on_c, 4, 71, 0
12, 71160, Note_on_c, 4, 69, 72
12, 71219, Note_on_c, 4, 69, 0
12, 71220, Note_on_c, 4, 71, 72
12, 71279, Note_on_c, 4, 71, 0
12, 71280, Note_on_c, 4, 72, 72
12, 71399, Note_on_c, 4, 72, 0
12, 71400, Note_on_c, 4, 71, 72
12, 71459, Note_on_c, 4, 71, 0
12, 71460, Note_on_c, 4, 72, 72
12, 71519, Note_on_c, 4, 72, 0
12, 71520, Note_on_c, 4, 74, 72
12, 71639, Note_on_c, 4, 74, 0
12, 71640, Note_on_c, 4, 72, 72
12, 71699, Note_on_c, 4, 72, 0
12, 71700, Note_on_c, 4, 74, 72
12, 71759, Note_on_c, 4, 74, 0
12, 71760, Note_on_c, 4, 76, 72
12, 71879, Note_on_c, 4, 76, 0
12, 71880, Note_on_c, 4, 74, 72
12, 71999, Note_on_c, 4, 74, 0
12, 72000, Note_on_c, 4, 72, 72
12, 72119, Note_on_c, 4, 72, 0
12, 72120, Note_on_c, 4, 71, 72
12, 72239, Note_on_c, 4, 71, 0
12, 72240, Note_on_c, 4, 69, 72
12, 72359, Note_on_c, 4, 69, 0
12, 72360, Note_on_c, 4, 79, 72
12, 72479, Note_on_c, 4, 79, 0
12, 72480, Note_on_c, 4, 77, 72
12, 72599, Note_on_c, 4, 77, 0
12, 72600, Note_on_c, 4, 76, 72
12, 72719, Note_on_c, 4, 76, 0
12, 72720, Note_on_c, 4, 74, 72
12, 72959, Note_on_c, 4, 74, 0
12, 73080, Note_on_c, 4, 62, 72
12, 73199, Note_on_c, 4, 62, 0
12, 73200, Note_on_c, 4, 67, 72
12, 73559, Note_on_c, 4, 67, 0
12, 73560, Note_on_c, 4, 65, 72
12, 73619, Note_on_c, 4, 65, 0
12, 73620, Note_on_c, 4, 64, 72
12, 73679, Note_on_c, 4, 64, 0
12, 73680, Note_on_c, 4, 69, 72
12, 73799, Note_on_c, 4, 69, 0
12, 73800, Note_on_c, 4, 62, 72
12, 73919, Note_on_c, 4, 62, 0
12, 73920, Note_on_c, 4, 74, 72
12, 74399, Note_on_c, 4, 74, 0
12, 74400, Note_on_c, 4, 74, 72
12, 74639, Note_on_c, 4, 74, 0
12, 74640, Note_on_c, 4, 74, 72
12, 74759, Note_on_c, 4, 74, 0
12, 74760, Note_on_c, 4, 73, 72
12, 74819, Note_on_c, 4, 73, 0
12, 74820, Note_on_c, 4, 74, 72
12, 74879, Note_on_c, 4, 74, 0
12, 74880, Note_on_c, 4, 76, 72
12, 75359, Note_on_c, 4, 76, 0
12, 75360, Note_on_c, 4, 74, 72
12, 75479, Note_on_c, 4, 74, 0
12, 75480, Note_on_c, 4, 73, 72
12, 75599, Note_on_c, 4, 73, 0
12, 75600, Note_on_c, 4, 74, 72
12, 75839, Note_on_c, 4, 74, 0
12, 76680, Note_on_c, 4, 71, 72
12, 76799, Note_on_c, 4, 71, 0
12, 76800, Note_on_c, 4, 71, 72
12, 76919, Note_on_c, 4, 71, 0
12, 76920, Note_on_c, 4, 71, 72
12, 77039, Note_on_c, 4, 71, 0
12, 77040, Note_on_c, 4, 72, 72
12, 77099, Note_on_c, 4, 72, 0
12, 77100, Note_on_c, 4, 74, 72
12, 77159, Note_on_c, 4, 74, 0
12, 77160, Note_on_c, 4, 72, 72
12, 77219, Note_on_c, 4, 72, 0
12, 77220, Note_on_c, 4, 71, 72
12, 77279, Note_on_c, 4, 71, 0
12, 77280, Note_on_c, 4, 72, 72
12, 77339, Note_on_c, 4, 72, 0
12, 77340, Note_on_c, 4, 74, 72
12, 77399, Note_on_c, 4, 74, 0
12, 77400, Note_on_c, 4, 71, 72
12, 77459, Note_on_c, 4, 71, 0
12, 77460, Note_on_c, 4, 72, 72
12, 77519, Note_on_c, 4, 72, 0
12, 77520, Note_on_c, 4, 74, 72
12, 77579, Note_on_c, 4, 74, 0
12, 77580, Note_on_c, 4, 76, 72
12, 77639, Note_on_c, 4, 76, 0
12, 77640, Note_on_c, 4, 74, 72
12, 77699, Note_on_c, 4, 74, 0
12, 77700, Note_on_c, 4, 72, 72
12, 77759, Note_on_c, 4, 72, 0
12, 77760, Note_on_c, 4, 74, 72
12, 77819, Note_on_c, 4, 74, 0
12, 77820, Note_on_c, 4, 76, 72
12, 77879, Note_on_c, 4, 76, 0
12, 77880, Note_on_c, 4, 72, 72
12, 77939, Note_on_c, 4, 72, 0
12, 77940, Note_on_c, 4, 74, 72
12, 77999, Note_on_c, 4, 74, 0
12, 78000, Note_on_c, 4, 76, 72
12, 78119, Note_on_c, 4, 76, 0
12, 78120, Note_on_c, 4, 77, 72
12, 78179, Note_on_c, 4, 77, 0
12, 78180, Note_on_c, 4, 76, 72
12, 78239, Note_on_c, 4, 76, 0
12, 78240, Note_on_c, 4, 74, 72
12, 78299, Note_on_c, 4, 74, 0
12, 78300, Note_on_c, 4, 72, 72
12, 78359, Note_on_c, 4, 72, 0
12, 78360, Note_on_c, 4, 71, 72
12, 78419, Note_on_c, 4, 71, 0
12, 78420, Note_on_c, 4, 69, 72
12, 78479, Note_on_c, 4, 69, 0
12, 78480, Note_on_c, 4, 68, 72
12, 78599, Note_on_c, 4, 68, 0
12, 78600, Note_on_c, 4, 71, 72
12, 78719, Note_on_c, 4, 71, 0
12, 78720, Note_on_c, 4, 76, 72
12, 78839, Note_on_c, 4, 76, 0
12, 78840, Note_on_c, 4, 74, 72
12, 78959, Note_on_c, 4, 74, 0
12, 78960, Note_on_c, 4, 72, 72
12, 79019, Note_on_c, 4, 72, 0
12, 79020, Note_on_c, 4, 71, 72
12, 79079, Note_on_c, 4, 71, 0
12, 79080, Note_on_c, 4, 69, 72
12, 79259, Note_on_c, 4, 69, 0
12, 79260, Note_on_c, 4, 70, 72
12, 79319, Note_on_c, 4, 70, 0
12, 79320, Note_on_c, 4, 67, 72
12, 79379, Note_on_c, 4, 67, 0
12, 79380, Note_on_c, 4, 69, 72
12, 79439, Note_on_c, 4, 69, 0
12, 79440, Note_on_c, 4, 66, 72
12, 79679, Note_on_c, 4, 66, 0
12, 79680, Note_on_c, 4, 67, 72
12, 79799, Note_on_c, 4, 67, 0
12, 79800, Note_on_c, 4, 69, 72
12, 79919, Note_on_c, 4, 69, 0
12, 79920, Note_on_c, 4, 62, 72
12, 80159, Note_on_c, 4, 62, 0
12, 80400, Note_on_c, 4, 72, 72
12, 80879, Note_on_c, 4, 72, 0
12, 80880, Note_on_c, 4, 69, 72
12, 81119, Note_on_c, 4, 69, 0
12, 81120, Note_on_c, 4, 74, 72
12, 81359, Note_on_c, 4, 74, 0
12, 81360, Note_on_c, 4, 64, 72
12, 81839, Note_on_c, 4, 64, 0
12, 81840, Note_on_c, 4, 65, 72
12, 82079, Note_on_c, 4, 65, 0
12, 82080, Note_on_c, 4, 65, 72
12, 82199, Note_on_c, 4, 65, 0
12, 82200, Note_on_c, 4, 65, 72
12, 82319, Note_on_c, 4, 65, 0
12, 82320, Note_on_c, 4, 67, 72
12, 82679, Note_on_c, 4, 67, 0
12, 82680, Note_on_c, 4, 65, 72
12, 82739, Note_on_c, 4, 65, 0
12, 82740, Note_on_c, 4, 67, 72
12, 82799, Note_on_c, 4, 67, 0
12, 82800, Note_on_c, 4, 69, 72
12, 82919, Note_on_c, 4, 69, 0
12, 82920, Note_on_c, 4, 67, 72
12, 82979, Note_on_c, 4, 67, 0
12, 82980, Note_on_c, 4, 69, 72
12, 83039, Note_on_c, 4, 69, 0
12, 83040, Note_on_c, 4, 70, 72
12, 83159, Note_on_c, 4, 70, 0
12, 83160, Note_on_c, 4, 69, 72
12, 83219, Note_on_c, 4, 69, 0
12, 83220, Note_on_c, 4, 70, 72
12, 83279, Note_on_c, 4, 70, 0
12, 83280, Note_on_c, 4, 72, 72
12, 83399, Note_on_c, 4, 72, 0
12, 83400, Note_on_c, 4, 70, 72
12, 83519, Note_on_c, 4, 70, 0
12, 83520, Note_on_c, 4, 69, 72
12, 83639, Note_on_c, 4, 69, 0
12, 83640, Note_on_c, 4, 67, 72
12, 83759, Note_on_c, 4, 67, 0
12, 83760, Note_on_c, 4, 66, 72
12, 83999, Note_on_c, 4, 66, 0
12, 84000, Note_on_c, 4, 67, 72
12, 84119, Note_on_c, 4, 67, 0
12, 84120, Note_on_c, 4, 69, 72
12, 84239, Note_on_c, 4, 69, 0
12, 84240, Note_on_c, 4, 70, 72
12, 84479, Note_on_c, 4, 70, 0
12, 84840, Note_on_c, 4, 69, 72
12, 84959, Note_on_c, 4, 69, 0
12, 84960, Note_on_c, 4, 69, 72
12, 85079, Note_on_c, 4, 69, 0
12, 85080, Note_on_c, 4, 69, 72
12, 85199, Note_on_c, 4, 69, 0
12, 85200, Note_on_c, 4, 70, 72
12, 85259, Note_on_c, 4, 70, 0
12, 85260, Note_on_c, 4, 72, 72
12, 85319, Note_on_c, 4, 72, 0
12, 85320, Note_on_c, 4, 70, 72
12, 85379, Note_on_c, 4, 70, 0
12, 85380, Note_on_c, 4, 69, 72
12, 85439, Note_on_c, 4, 69, 0
12, 85440, Note_on_c, 4, 70, 72
12, 85499, Note_on_c, 4, 70, 0
12, 85500, Note_on_c, 4, 72, 72
12, 85559, Note_on_c, 4, 72, 0
12, 85560, Note_on_c, 4, 69, 72
12, 85619, Note_on_c, 4, 69, 0
12, 85620, Note_on_c, 4, 70, 72
12, 85679, Note_on_c, 4, 70, 0
12, 85680, Note_on_c, 4, 72, 72
12, 85739, Note_on_c, 4, 72, 0
12, 85740, Note_on_c, 4, 74, 72
12, 85799, Note_on_c, 4, 74, 0
12, 85800, Note_on_c, 4, 72, 72
12, 85859, Note_on_c, 4, 72, 0
12, 85860, Note_on_c, 4, 70, 72
12, 85919, Note_on_c, 4, 70, 0
12, 85920, Note_on_c, 4, 72, 72
12, 85979, Note_on_c, 4, 72, 0
12, 85980, Note_on_c, 4, 74, 72
12, 86039, Note_on_c, 4, 74, 0
12, 86040, Note_on_c, 4, 70, 72
12, 86099, Note_on_c, 4, 70, 0
12, 86100, Note_on_c, 4, 72, 72
12, 86159, Note_on_c, 4, 72, 0
12, 86160, Note_on_c, 4, 74, 72
12, 86279, Note_on_c, 4, 74, 0
12, 86280, Note_on_c, 4, 75, 72
12, 86339, Note_on_c, 4, 75, 0
12, 86340, Note_on_c, 4, 74, 72
12, 86399, Note_on_c, 4, 74, 0
12, 86400, Note_on_c, 4, 72, 72
12, 86459, Note_on_c, 4, 72, 0
12, 86460, Note_on_c, 4, 70, 72
12, 86519, Note_on_c, 4, 70, 0
12, 86520, Note_on_c, 4, 69, 72
12, 86579, Note_on_c, 4, 69, 0
12, 86580, Note_on_c, 4, 67, 72
12, 86639, Note_on_c, 4, 67, 0
12, 86640, Note_on_c, 4, 66, 72
12, 86759, Note_on_c, 4, 66, 0
12, 86760, Note_on_c, 4, 69, 72
12, 86879, Note_on_c, 4, 69, 0
12, 86880, Note_on_c, 4, 74, 72
12, 86999, Note_on_c, 4, 74, 0
12, 87000, Note_on_c, 4, 72, 72
12, 87119, Note_on_c, 4, 72, 0
12, 87120, Note_on_c, 4, 70, 72
12, 87239, Note_on_c, 4, 70, 0
12, 87240, Note_on_c, 4, 71, 72
12, 87359, Note_on_c, 4, 71, 0
12, 87360, Note_on_c, 4, 72, 72
12, 87479, Note_on_c, 4, 72, 0
12, 87480, Note_on_c, 4, 74, 72
12, 87599, Note_on_c, 4, 74, 0
12, 87600, Note_on_c, 4, 75, 72
12, 87659, Note_on_c, 4, 75, 0
12, 87660, Note_on_c, 4, 74, 72
12, 87719, Note_on_c, 4, 74, 0
12, 87720, Note_on_c, 4, 72, 72
12, 87839, Note_on_c, 4, 72, 0
12, 90960, Note_on_c, 4, 77, 72
12, 91439, Note_on_c, 4, 77, 0
12, 91440, Note_on_c, 4, 74, 72
12, 91679, Note_on_c, 4, 74, 0
12, 91680, Note_on_c, 4, 79, 72
12, 91919, Note_on_c, 4, 79, 0
12, 91920, Note_on_c, 4, 69, 72
12, 92399, Note_on_c, 4, 69, 0
12, 92400, Note_on_c, 4, 70, 72
12, 92639, Note_on_c, 4, 70, 0
12, 92640, Note_on_c, 4, 70, 72
12, 92759, Note_on_c, 4, 70, 0
12, 92760, Note_on_c, 4, 70, 72
12, 92879, Note_on_c, 4, 70, 0
12, 92880, Note_on_c, 4, 72, 72
12, 93239, Note_on_c, 4, 72, 0
12, 93240, Note_on_c, 4, 70, 72
12, 93299, Note_on_c, 4, 70, 0
12, 93300, Note_on_c, 4, 72, 72
12, 93359, Note_on_c, 4, 72, 0
12, 93360, Note_on_c, 4, 74, 72
12, 93479, Note_on_c, 4, 74, 0
12, 93480, Note_on_c, 4, 72, 72
12, 93539, Note_on_c, 4, 72, 0
12, 93540, Note_on_c, 4, 74, 72
12, 93599, Note_on_c, 4, 74, 0
12, 93600, Note_on_c, 4, 75, 72
12, 93719, Note_on_c, 4, 75, 0
12, 93720, Note_on_c, 4, 74, 72
12, 93779, Note_on_c, 4, 74, 0
12, 93780, Note_on_c, 4, 75, 72
12, 93839, Note_on_c, 4, 75, 0
12, 93840, Note_on_c, 4, 77, 72
12, 93959, Note_on_c, 4, 77, 0
12, 93960, Note_on_c, 4, 72, 72
12, 94079, Note_on_c, 4, 72, 0
12, 94080, Note_on_c, 4, 77, 72
12, 94199, Note_on_c, 4, 77, 0
12, 94200, Note_on_c, 4, 75, 72
12, 94319, Note_on_c, 4, 75, 0
12, 94320, Note_on_c, 4, 74, 72
12, 94439, Note_on_c, 4, 74, 0
12, 94440, Note_on_c, 4, 65, 72
12, 94559, Note_on_c, 4, 65, 0
12, 94560, Note_on_c, 4, 70, 72
12, 95039, Note_on_c, 4, 70, 0
12, 95040, Note_on_c, 4, 69, 72
12, 95279, Note_on_c, 4, 69, 0
12, 95280, Note_on_c, 4, 70, 72
12, 95399, Note_on_c, 4, 70, 0
12, 95400, Note_on_c, 4, 70, 72
12, 95519, Note_on_c, 4, 70, 0
12, 95520, Note_on_c, 4, 70, 72
12, 95999, Note_on_c, 4, 70, 0
12, 96000, Note_on_c, 4, 68, 72
12, 96119, Note_on_c, 4, 68, 0
12, 96120, Note_on_c, 4, 67, 72
12, 96239, Note_on_c, 4, 67, 0
12, 96240, Note_on_c, 4, 68, 72
12, 96479, Note_on_c, 4, 68, 0
12, 96480, Note_on_c, 4, 67, 72
12, 96719, Note_on_c, 4, 67, 0
12, 96720, Note_on_c, 4, 67, 72
12, 96959, Note_on_c, 4, 67, 0
12, 97320, Note_on_c, 4, 65, 72
12, 97379, Note_on_c, 4, 65, 0
12, 97440, Note_on_c, 4, 70, 72
12, 97559, Note_on_c, 4, 70, 0
12, 97560, Note_on_c, 4, 68, 72
12, 97679, Note_on_c, 4, 68, 0
12, 97680, Note_on_c, 4, 67, 72
12, 97739, Note_on_c, 4, 67, 0
12, 97800, Note_on_c, 4, 60, 72
12, 97859, Note_on_c, 4, 60, 0
12, 97920, Note_on_c, 4, 72, 72
12, 98039, Note_on_c, 4, 72, 0
12, 98040, Note_on_c, 4, 70, 72
12, 98159, Note_on_c, 4, 70, 0
12, 98160, Note_on_c, 4, 68, 72
12, 98399, Note_on_c, 4, 68, 0
12, 99720, Note_on_c, 4, 69, 72
12, 99839, Note_on_c, 4, 69, 0
12, 99840, Note_on_c, 4, 69, 72
12, 99959, Note_on_c, 4, 69, 0
12, 99960, Note_on_c, 4, 69, 72
12, 100079, Note_on_c, 4, 69, 0
12, 100080, Note_on_c, 4, 70, 72
12, 100139, Note_on_c, 4, 70, 0
12, 100140, Note_on_c, 4, 72, 72
12, 100199, Note_on_c, 4, 72, 0
12, 100200, Note_on_c, 4, 70, 72
12, 100259, Note_on_c, 4, 70, 0
12, 100260, Note_on_c, 4, 69, 72
12, 100319, Note_on_c, 4, 69, 0
12, 100320, Note_on_c, 4, 71, 72
12, 100379, Note_on_c, 4, 71, 0
12, 100380, Note_on_c, 4, 72, 72
12, 100439, Note_on_c, 4, 72, 0
12, 100440, Note_on_c, 4, 69, 72
12, 100499, Note_on_c, 4, 69, 0
12, 100500, Note_on_c, 4, 71, 72
12, 100559, Note_on_c, 4, 71, 0
12, 100560, Note_on_c, 4, 72, 72
12, 100619, Note_on_c, 4, 72, 0
12, 100620, Note_on_c, 4, 74, 72
12, 100679, Note_on_c, 4, 74, 0
12, 100680, Note_on_c, 4, 72, 72
12, 100739, Note_on_c, 4, 72, 0
12, 100740, Note_on_c, 4, 71, 72
12, 100799, Note_on_c, 4, 71, 0
12, 100800, Note_on_c, 4, 73, 72
12, 100859, Note_on_c, 4, 73, 0
12, 100860, Note_on_c, 4, 74, 72
12, 100919, Note_on_c, 4, 74, 0
12, 100920, Note_on_c, 4, 71, 72
12, 100979, Note_on_c, 4, 71, 0
12, 100980, Note_on_c, 4, 73, 72
12, 101039, Note_on_c, 4, 73, 0
12, 101040, Note_on_c, 4, 74, 72
12, 101159, Note_on_c, 4, 74, 0
12, 101160, Note_on_c, 4, 69, 72
12, 101279, Note_on_c, 4, 69, 0
12, 101280, Note_on_c, 4, 74, 72
12, 101399, Note_on_c, 4, 74, 0
12, 101400, Note_on_c, 4, 72, 72
12, 101519, Note_on_c, 4, 72, 0
12, 101520, Note_on_c, 4, 71, 72
12, 101639, Note_on_c, 4, 71, 0
12, 101640, Note_on_c, 4, 64, 72
12, 101759, Note_on_c, 4, 64, 0
12, 101760, Note_on_c, 4, 76, 72
12, 101879, Note_on_c, 4, 76, 0
12, 101880, Note_on_c, 4, 74, 72
12, 101999, Note_on_c, 4, 74, 0
12, 102000, Note_on_c, 4, 73, 72
12, 102239, Note_on_c, 4, 73, 0
12, 103080, Note_on_c, 4, 76, 72
12, 103199, Note_on_c, 4, 76, 0
12, 103200, Note_on_c, 4, 76, 72
12, 103319, Note_on_c, 4, 76, 0
12, 103320, Note_on_c, 4, 76, 72
12, 103439, Note_on_c, 4, 76, 0
12, 103440, Note_on_c, 4, 77, 72
12, 103499, Note_on_c, 4, 77, 0
12, 103500, Note_on_c, 4, 79, 72
12, 103559, Note_on_c, 4, 79, 0
12, 103560, Note_on_c, 4, 77, 72
12, 103619, Note_on_c, 4, 77, 0
12, 103620, Note_on_c, 4, 76, 72
12, 103679, Note_on_c, 4, 76, 0
12, 103680, Note_on_c, 4, 77, 72
12, 103739, Note_on_c, 4, 77, 0
12, 103740, Note_on_c, 4, 79, 72
12, 103799, Note_on_c, 4, 79, 0
12, 103800, Note_on_c, 4, 76, 72
12, 103859, Note_on_c, 4, 76, 0
12, 103860, Note_on_c, 4, 77, 72
12, 103919, Note_on_c, 4, 77, 0
12, 103920, Note_on_c, 4, 79, 72
12, 103979, Note_on_c, 4, 79, 0
12, 103980, Note_on_c, 4, 81, 72
12, 104039, Note_on_c, 4, 81, 0
12, 104040, Note_on_c, 4, 79, 72
12, 104099, Note_on_c, 4, 79, 0
12, 104100, Note_on_c, 4, 77, 72
12, 104159, Note_on_c, 4, 77, 0
12, 104160, Note_on_c, 4, 79, 72
12, 104219, Note_on_c, 4, 79, 0
12, 104220, Note_on_c, 4, 81, 72
12, 104279, Note_on_c, 4, 81, 0
12, 104280, Note_on_c, 4, 77, 72
12, 104339, Note_on_c, 4, 77, 0
12, 104340, Note_on_c, 4, 79, 72
12, 104399, Note_on_c, 4, 79, 0
12, 104400, Note_on_c, 4, 81, 72
12, 104519, Note_on_c, 4, 81, 0
12, 104520, Note_on_c, 4, 82, 72
12, 104579, Note_on_c, 4, 82, 0
12, 104580, Note_on_c, 4, 81, 72
12, 104639, Note_on_c, 4, 81, 0
12, 104640, Note_on_c, 4, 79, 72
12, 104699, Note_on_c, 4, 79, 0
12, 104700, Note_on_c, 4, 77, 72
12, 104759, Note_on_c, 4, 77, 0
12, 104760, Note_on_c, 4, 76, 72
12, 104819, Note_on_c, 4, 76, 0
12, 104820, Note_on_c, 4, 74, 72
12, 104879, Note_on_c, 4, 74, 0
12, 104880, Note_on_c, 4, 73, 72
12, 104999, Note_on_c, 4, 73, 0
12, 105000, Note_on_c, 4, 74, 72
12, 105119, Note_on_c, 4, 74, 0
12, 105120, Note_on_c, 4, 76, 72
12, 105479, Note_on_c, 4, 76, 0
12, 105480, Note_on_c, 4, 79, 72
12, 105599, Note_on_c, 4, 79, 0
12, 105600, Note_on_c, 4, 77, 72
12, 105719, Note_on_c, 4, 77, 0
12, 105720, Note_on_c, 4, 76, 72
12, 105839, Note_on_c, 4, 76, 0
12, 105840, Note_on_c, 4, 74, 72
12, 106319, Note_on_c, 4, 74, 0
12, 106320, Note_on_c, 4, 73, 72
12, 106559, Note_on_c, 4, 73, 0
12, 106560, Note_on_c, 4, 74, 72
12, 106679, Note_on_c, 4, 74, 0
12, 106680, Note_on_c, 4, 76, 72
12, 106799, Note_on_c, 4, 76, 0
12, 106800, Note_on_c, 4, 69, 72
12, 107039, Note_on_c, 4, 69, 0
12, 108360, Note_on_c, 4, 69, 72
12, 108479, Note_on_c, 4, 69, 0
12, 108480, Note_on_c, 4, 69, 72
12, 108599, Note_on_c, 4, 69, 0
12, 108600, Note_on_c, 4, 69, 72
12, 108719, Note_on_c, 4, 69, 0
12, 108720, Note_on_c, 4, 70, 72
12, 108779, Note_on_c, 4, 70, 0
12, 108780, Note_on_c, 4, 72, 72
12, 108839, Note_on_c, 4, 72, 0
12, 108840, Note_on_c, 4, 70, 72
12, 108899, Note_on_c, 4, 70, 0
12, 108900, Note_on_c, 4, 69, 72
12, 108959, Note_on_c, 4, 69, 0
12, 108960, Note_on_c, 4, 71, 72
12, 109019, Note_on_c, 4, 71, 0
12, 109020, Note_on_c, 4, 72, 72
12, 109079, Note_on_c, 4, 72, 0
12, 109080, Note_on_c, 4, 69, 72
12, 109139, Note_on_c, 4, 69, 0
12, 109140, Note_on_c, 4, 71, 72
12, 109199, Note_on_c, 4, 71, 0
12, 109200, Note_on_c, 4, 72, 72
12, 109259, Note_on_c, 4, 72, 0
12, 109260, Note_on_c, 4, 74, 72
12, 109319, Note_on_c, 4, 74, 0
12, 109320, Note_on_c, 4, 72, 72
12, 109379, Note_on_c, 4, 72, 0
12, 109380, Note_on_c, 4, 71, 72
12, 109439, Note_on_c, 4, 71, 0
12, 109440, Note_on_c, 4, 73, 72
12, 109499, Note_on_c, 4, 73, 0
12, 109500, Note_on_c, 4, 74, 72
12, 109559, Note_on_c, 4, 74, 0
12, 109560, Note_on_c, 4, 71, 72
12, 109619, Note_on_c, 4, 71, 0
12, 109620, Note_on_c, 4, 73, 72
12, 109679, Note_on_c, 4, 73, 0
12, 109680, Note_on_c, 4, 74, 72
12, 109919, Note_on_c, 4, 74, 0
12, 110280, Note_on_c, 4, 76, 72
12, 110399, Note_on_c, 4, 76, 0
12, 110400, Note_on_c, 4, 76, 72
12, 110519, Note_on_c, 4, 76, 0
12, 110520, Note_on_c, 4, 76, 72
12, 110639, Note_on_c, 4, 76, 0
12, 110640, Note_on_c, 4, 77, 72
12, 110699, Note_on_c, 4, 77, 0
12, 110700, Note_on_c, 4, 79, 72
12, 110759, Note_on_c, 4, 79, 0
12, 110760, Note_on_c, 4, 77, 72
12, 110819, Note_on_c, 4, 77, 0
12, 110820, Note_on_c, 4, 76, 72
12, 110879, Note_on_c, 4, 76, 0
12, 110880, Note_on_c, 4, 78, 72
12, 110939, Note_on_c, 4, 78, 0
12, 110940, Note_on_c, 4, 79, 72
12, 110999, Note_on_c, 4, 79, 0
12, 111000, Note_on_c, 4, 76, 72
12, 111059, Note_on_c, 4, 76, 0
12, 111060, Note_on_c, 4, 78, 72
12, 111119, Note_on_c, 4, 78, 0
12, 111120, Note_on_c, 4, 79, 72
12, 111179, Note_on_c, 4, 79, 0
12, 111180, Note_on_c, 4, 81, 72
12, 111239, Note_on_c, 4, 81, 0
12, 111240, Note_on_c, 4, 79, 72
12, 111299, Note_on_c, 4, 79, 0
12, 111300, Note_on_c, 4, 78, 72
12, 111359, Note_on_c, 4, 78, 0
12, 111360, Note_on_c, 4, 80, 72
12, 111419, Note_on_c, 4, 80, 0
12, 111420, Note_on_c, 4, 81, 72
12, 111479, Note_on_c, 4, 81, 0
12, 111480, Note_on_c, 4, 78, 72
12, 111539, Note_on_c, 4, 78, 0
12, 111540, Note_on_c, 4, 80, 72
12, 111599, Note_on_c, 4, 80, 0
12, 111600, Note_on_c, 4, 81, 72
12, 111719, Note_on_c, 4, 81, 0
12, 111720, Note_on_c, 4, 73, 72
12, 111839, Note_on_c, 4, 73, 0
12, 111840, Note_on_c, 4, 74, 72
12, 111959, Note_on_c, 4, 74, 0
12, 111960, Note_on_c, 4, 74, 72
12, 112079, Note_on_c, 4, 74, 0
12, 112080, Note_on_c, 4, 74, 72
12, 112319, Note_on_c, 4, 74, 0
12, 112320, Note_on_c, 4, 73, 72
12, 112559, Note_on_c, 4, 73, 0
12, 112560, Note_on_c, 4, 74, 72
12, 113039, Note_on_c, 4, 74, 0
12, 113280, Note_on_c, 4, 74, 72
12, 113459, Note_on_c, 4, 74, 0
12, 113460, Note_on_c, 4, 74, 72
12, 113519, Note_on_c, 4, 74, 0
12, 113520, Note_on_c, 4, 73, 72
12, 113759, Note_on_c, 4, 73, 0
12, 113760, Note_on_c, 4, 74, 72
12, 114239, Note_on_c, 4, 74, 0
12, 114240, Note_on_c, 4, 73, 72
12, 114479, Note_on_c, 4, 73, 0
12, 114480, Note_on_c, 4, 74, 72
12, 115439, Note_on_c, 4, 74, 0
12, 115439, End_track
13, 0, Start_track
13, 0, Title_t, "Violin II"
13, 0, MIDI_port, 0
13, 0, Program_c, 5, 48
13, 0, Control_c, 5, 7, 96
13, 0, Control_c, 5, 10, 24
13, 0, Control_c, 5, 11, 127
13, 60, Note_on_c, 5, 57, 66
13, 119, Note_on_c, 5, 57, 0
13, 120, Note_on_c, 5, 69, 66
13, 179, Note_on_c, 5, 69, 0
13, 180, Note_on_c, 5, 68, 66
13, 239, Note_on_c, 5, 68, 0
13, 240, Note_on_c, 5, 70, 48
13, 299, Note_on_c, 5, 70, 0
13, 300, Note_on_c, 5, 69, 48
13, 359, Note_on_c, 5, 69, 0
13, 360, Note_on_c, 5, 67, 48
13, 419, Note_on_c, 5, 67, 0
13, 420, Note_on_c, 5, 65, 48
13, 479, Note_on_c, 5, 65, 0
13, 480, Note_on_c, 5, 64, 48
13, 539, Note_on_c, 5, 64, 0
13, 540, Note_on_c, 5, 62, 48
13, 599, Note_on_c, 5, 62, 0
13, 600, Note_on_c, 5, 61, 48
13, 659, Note_on_c, 5, 61, 0
13, 660, Note_on_c, 5, 62, 48
13, 719, Note_on_c, 5, 62, 0
13, 780, Note_on_c, 5, 57, 66
13, 839, Note_on_c, 5, 57, 0
13, 840, Note_on_c, 5, 69, 66
13, 899, Note_on_c, 5, 69, 0
13, 900, Note_on_c, 5, 68, 66
13, 959, Note_on_c, 5, 68, 0
13, 960, Note_on_c, 5, 70, 48
13, 1019, Note_on_c, 5, 70, 0
13, 1020, Note_on_c, 5, 69, 48
13, 1079, Note_on_c, 5, 69, 0
13, 1080, Note_on_c, 5, 67, 48
13, 1139, Note_on_c, 5, 67, 0
13, 1140, Note_on_c, 5, 65, 48
13, 1199, Note_on_c, 5, 65, 0
13, 1200, Note_on_c, 5, 64, 48
13, 1259, Note_on_c, 5, 64, 0
13, 1260, Note_on_c, 5, 62, 48
13, 1319, Note_on_c, 5, 62, 0
13, 1320, Note_on_c, 5, 61, 48
13, 1379, Note_on_c, 5, 61, 0
13, 1380, Note_on_c, 5, 62, 48
13, 1439, Note_on_c, 5, 62, 0
13, 1500, Note_on_c, 5, 58, 66
13, 1559, Note_on_c, 5, 58, 0
13, 1560, Note_on_c, 5, 70, 66
13, 1619, Note_on_c, 5, 70, 0
13, 1620, Note_on_c, 5, 69, 66
13, 1679, Note_on_c, 5, 69, 0
13, 1680, Note_on_c, 5, 72, 48
13, 1739, Note_on_c, 5, 72, 0
13, 1740, Note_on_c, 5, 70, 48
13, 1799, Note_on_c, 5, 70, 0
13, 1800, Note_on_c, 5, 69, 48
13, 1859, Note_on_c, 5, 69, 0
13, 1860, Note_on_c, 5, 67, 48
13, 1919, Note_on_c, 5, 67, 0
13, 1920, Note_on_c, 5, 65, 48
13, 1979, Note_on_c, 5, 65, 0
13, 1980, Note_on_c, 5, 64, 48
13, 2039, Note_on_c, 5, 64, 0
13, 2040, Note_on_c, 5, 62, 48
13, 2099, Note_on_c, 5, 62, 0
13, 2100, Note_on_c, 5, 61, 48
13, 2159, Note_on_c, 5, 61, 0
13, 2220, Note_on_c, 5, 57, 66
13, 2279, Note_on_c, 5, 57, 0
13, 2280, Note_on_c, 5, 69, 66
13, 2339, Note_on_c, 5, 69, 0
13, 2340, Note_on_c, 5, 68, 66
13, 2399, Note_on_c, 5, 68, 0
13, 2400, Note_on_c, 5, 70, 48
13, 2459, Note_on_c, 5, 70, 0
13, 2460, Note_on_c, 5, 69, 48
13, 2519, Note_on_c, 5, 69, 0
13, 2520, Note_on_c, 5, 67, 48
13, 2579, Note_on_c, 5, 67, 0
13, 2580, Note_on_c, 5, 65, 48
13, 2639, Note_on_c, 5, 65, 0
13, 2640, Note_on_c, 5, 64, 48
13, 2699, Note_on_c, 5, 64, 0
13, 2700, Note_on_c, 5, 62, 48
13, 2759, Note_on_c, 5, 62, 0
13, 2760, Note_on_c, 5, 61, 48
13, 2819, Note_on_c, 5, 61, 0
13, 2820, Note_on_c, 5, 62, 48
13, 2879, Note_on_c, 5, 62, 0
13, 2940, Note_on_c, 5, 64, 66
13, 2999, Note_on_c, 5, 64, 0
13, 3000, Note_on_c, 5, 74, 66
13, 3059, Note_on_c, 5, 74, 0
13, 3060, Note_on_c, 5, 73, 66
13, 3119, Note_on_c, 5, 73, 0
13, 3120, Note_on_c, 5, 76, 48
13, 3179, Note_on_c, 5, 76, 0
13, 3180, Note_on_c, 5, 74, 48
13, 3239, Note_on_c, 5, 74, 0
13, 3240, Note_on_c, 5, 73, 48
13, 3299, Note_on_c, 5, 73, 0
13, 3300, Note_on_c, 5, 70, 48
13, 3359, Note_on_c, 5, 70, 0
13, 3360, Note_on_c, 5, 69, 48
13, 3419, Note_on_c, 5, 69, 0
13, 3420, Note_on_c, 5, 67, 48
13, 3479, Note_on_c, 5, 67, 0
13, 3480, Note_on_c, 5, 65, 48
13, 3539, Note_on_c, 5, 65, 0
13, 3540, Note_on_c, 5, 64, 48
13, 3599, Note_on_c, 5, 64, 0
13, 3660, Note_on_c, 5, 62, 66
13, 3719, Note_on_c, 5, 62, 0
13, 3720, Note_on_c, 5, 77, 66
13, 3779, Note_on_c, 5, 77, 0
13, 3780, Note_on_c, 5, 76, 66
13, 3839, Note_on_c, 5, 76, 0
13, 3840, Note_on_c, 5, 74, 48
13, 3899, Note_on_c, 5, 74, 0
13, 3900, Note_on_c, 5, 81, 48
13, 3959, Note_on_c, 5, 81, 0
13, 3960, Note_on_c, 5, 79, 48
13, 4019, Note_on_c, 5, 79, 0
13, 4020, Note_on_c, 5, 77, 48
13, 4079, Note_on_c, 5, 77, 0
13, 4080, Note_on_c, 5, 76, 48
13, 4139, Note_on_c, 5, 76, 0
13, 4140, Note_on_c, 5, 74, 48
13, 4199, Note_on_c, 5, 74, 0
13, 4200, Note_on_c, 5, 73, 48
13, 4259, Note_on_c, 5, 73, 0
13, 4260, Note_on_c, 5, 74, 48
13, 4319, Note_on_c, 5, 74, 0
13, 4380, Note_on_c, 5, 76, 66
13, 4439, Note_on_c, 5, 76, 0
13, 4440, Note_on_c, 5, 79, 66
13, 4499, Note_on_c, 5, 79, 0
13, 4500, Note_on_c, 5, 77, 66
13, 4559, Note_on_c, 5, 77, 0
13, 4560, Note_on_c, 5, 76, 48
13, 4619, Note_on_c, 5, 76, 0
13, 4620, Note_on_c, 5, 82, 48
13, 4679, Note_on_c, 5, 82, 0
13, 4680, Note_on_c, 5, 81, 48
13, 4739, Note_on_c, 5, 81, 0
13, 4740, Note_on_c, 5, 79, 48
13, 4799, Note_on_c, 5, 79, 0
13, 4800, Note_on_c, 5, 77, 48
13, 4859, Note_on_c, 5, 77, 0
13, 4860, Note_on_c, 5, 76, 48
13, 4919, Note_on_c, 5, 76, 0
13, 4920, Note_on_c, 5, 74, 48
13, 4979, Note_on_c, 5, 74, 0
13, 4980, Note_on_c, 5, 76, 48
13, 5039, Note_on_c, 5, 76, 0
13, 5100, Note_on_c, 5, 65, 84
13, 5159, Note_on_c, 5, 65, 0
13, 5160, Note_on_c, 5, 77, 84
13, 5219, Note_on_c, 5, 77, 0
13, 5220, Note_on_c, 5, 76, 84
13, 5279, Note_on_c, 5, 76, 0
13, 5280, Note_on_c, 5, 79, 84
13, 5339, Note_on_c, 5, 79, 0
13, 5340, Note_on_c, 5, 77, 84
13, 5399, Note_on_c, 5, 77, 0
13, 5400, Note_on_c, 5, 76, 84
13, 5459, Note_on_c, 5, 76, 0
13, 5460, Note_on_c, 5, 74, 84
13, 5519, Note_on_c, 5, 74, 0
13, 5520, Note_on_c, 5, 73, 84
13, 5579, Note_on_c, 5, 73, 0
13, 5580, Note_on_c, 5, 74, 84
13, 5639, Note_on_c, 5, 74, 0
13, 5640, Note_on_c, 5, 76, 84
13, 5699, Note_on_c, 5, 76, 0
13, 5700, Note_on_c, 5, 74, 84
13, 5759, Note_on_c, 5, 74, 0
13, 5760, Note_on_c, 5, 81, 84
13, 5760, Note_on_c, 5, 73, 84
13, 5999, Note_on_c, 5, 81, 0
13, 5999, Note_on_c, 5, 73, 0
13, 6000, Note_on_c, 5, 57, 84
13, 6239, Note_on_c, 5, 57, 0
13, 7440, Note_on_c, 5, 65, 48
13, 7679, Note_on_c, 5, 65, 0
13, 7680, Note_on_c, 5, 63, 48
13, 7919, Note_on_c, 5, 63, 0
13, 7920, Note_on_c, 5, 63, 48
13, 8159, Note_on_c, 5, 63, 0
13, 8160, Note_on_c, 5, 62, 48
13, 8279, Note_on_c, 5, 62, 0
13, 8280, Note_on_c, 5, 60, 48
13, 8399, Note_on_c, 5, 60, 0
13, 8400, Note_on_c, 5, 58, 48
13, 8519, Note_on_c, 5, 58, 0
13, 8520, Note_on_c, 5, 57, 48
13, 8639, Note_on_c, 5, 57, 0
13, 8640, Note_on_c, 5, 57, 48
13, 8759, Note_on_c, 5, 57, 0
13, 8760, Note_on_c, 5, 57, 48
13, 8879, Note_on_c, 5, 57, 0
13, 8880, Note_on_c, 5, 57, 48
13, 8999, Note_on_c, 5, 57, 0
13, 9000, Note_on_c, 5, 57, 48
13, 9119, Note_on_c, 5, 57, 0
13, 9120, Note_on_c, 5, 58, 48
13, 9239, Note_on_c, 5, 58, 0
13, 9240, Note_on_c, 5, 58, 48
13, 9359, Note_on_c, 5, 58, 0
13, 9360, Note_on_c, 5, 57, 48
13, 9599, Note_on_c, 5, 57, 0
13, 11580, Note_on_c, 5, 60, 66
13, 11639, Note_on_c, 5, 60, 0
13, 11640, Note_on_c, 5, 72, 66
13, 11699, Note_on_c, 5, 72, 0
13, 11700, Note_on_c, 5, 71, 66
13, 11759, Note_on_c, 5, 71, 0
13, 11760, Note_on_c, 5, 74, 48
13, 11819, Note_on_c, 5, 74, 0
13, 11820, Note_on_c, 5, 72, 48
13, 11879, Note_on_c, 5, 72, 0
13, 11880, Note_on_c, 5, 70, 48
13, 11939, Note_on_c, 5, 70, 0
13, 11940, Note_on_c, 5, 69, 48
13, 11999, Note_on_c, 5, 69, 0
13, 12000, Note_on_c, 5, 67, 48
13, 12059, Note_on_c, 5, 67, 0
13, 12060, Note_on_c, 5, 65, 48
13, 12119, Note_on_c, 5, 65, 0
13, 12120, Note_on_c, 5, 64, 48
13, 12179, Note_on_c, 5, 64, 0
13, 12180, Note_on_c, 5, 65, 48
13, 12239, Note_on_c, 5, 65, 0
13, 12300, Note_on_c, 5, 64, 66
13, 12359, Note_on_c, 5, 64, 0
13, 12360, Note_on_c, 5, 70, 66
13, 12419, Note_on_c, 5, 70, 0
13, 12420, Note_on_c, 5, 69, 66
13, 12479, Note_on_c, 5, 69, 0
13, 12480, Note_on_c, 5, 72, 48
13, 12539, Note_on_c, 5, 72, 0
13, 12540, Note_on_c, 5, 70, 48
13, 12599, Note_on_c, 5, 70, 0
13, 12600, Note_on_c, 5, 69, 48
13, 12659, Note_on_c, 5, 69, 0
13, 12660, Note_on_c, 5, 67, 48
13, 12719, Note_on_c, 5, 67, 0
13, 12720, Note_on_c, 5, 65, 48
13, 12779, Note_on_c, 5, 65, 0
13, 12780, Note_on_c, 5, 64, 48
13, 12839, Note_on_c, 5, 64, 0
13, 12840, Note_on_c, 5, 62, 48
13, 12899, Note_on_c, 5, 62, 0
13, 12900, Note_on_c, 5, 60, 48
13, 12959, Note_on_c, 5, 60, 0
13, 13020, Note_on_c, 5, 60, 66
13, 13079, Note_on_c, 5, 60, 0
13, 13080, Note_on_c, 5, 72, 66
13, 13139, Note_on_c, 5, 72, 0
13, 13140, Note_on_c, 5, 71, 66
13, 13199, Note_on_c, 5, 71, 0
13, 13200, Note_on_c, 5, 74, 48
13, 13259, Note_on_c, 5, 74, 0
13, 13260, Note_on_c, 5, 72, 48
13, 13319, Note_on_c, 5, 72, 0
13, 13320, Note_on_c, 5, 70, 48
13, 13379, Note_on_c, 5, 70, 0
13, 13380, Note_on_c, 5, 69, 48
13, 13439, Note_on_c, 5, 69, 0
13, 13440, Note_on_c, 5, 67, 48
13, 13499, Note_on_c, 5, 67, 0
13, 13500, Note_on_c, 5, 65, 48
13, 13559, Note_on_c, 5, 65, 0
13, 13560, Note_on_c, 5, 64, 48
13, 13619, Note_on_c, 5, 64, 0
13, 13620, Note_on_c, 5, 65, 48
13, 13679, Note_on_c, 5, 65, 0
13, 13740, Note_on_c, 5, 62, 66
13, 13799, Note_on_c, 5, 62, 0
13, 13800, Note_on_c, 5, 74, 66
13, 13859, Note_on_c, 5, 74, 0
13, 13860, Note_on_c, 5, 73, 66
13, 13919, Note_on_c, 5, 73, 0
13, 13920, Note_on_c, 5, 76, 48
13, 13979, Note_on_c, 5, 76, 0
13, 13980, Note_on_c, 5, 74, 48
13, 14039, Note_on_c, 5, 74, 0
13, 14040, Note_on_c, 5, 72, 48
13, 14099, Note_on_c, 5, 72, 0
13, 14100, Note_on_c, 5, 71, 48
13, 14159, Note_on_c, 5, 71, 0
13, 14160, Note_on_c, 5, 69, 48
13, 14219, Note_on_c, 5, 69, 0
13, 14220, Note_on_c, 5, 67, 48
13, 14279, Note_on_c, 5, 67, 0
13, 14280, Note_on_c, 5, 66, 48
13, 14339, Note_on_c, 5, 66, 0
13, 14340, Note_on_c, 5, 67, 48
13, 14399, Note_on_c, 5, 67, 0
13, 14460, Note_on_c, 5, 67, 66
13, 14519, Note_on_c, 5, 67, 0
13, 14520, Note_on_c, 5, 79, 66
13, 14579, Note_on_c, 5, 79, 0
13, 14580, Note_on_c, 5, 78, 66
13, 14639, Note_on_c, 5, 78, 0
13, 14640, Note_on_c, 5, 81, 48
13, 14699, Note_on_c, 5, 81, 0
13, 14700, Note_on_c, 5, 79, 48
13, 14759, Note_on_c, 5, 79, 0
13, 14760, Note_on_c, 5, 77, 48
13, 14819, Note_on_c, 5, 77, 0
13, 14820, Note_on_c, 5, 76, 48
13, 14879, Note_on_c, 5, 76, 0
13, 14880, Note_on_c, 5, 74, 48
13, 14939, Note_on_c, 5, 74, 0
13, 14940, Note_on_c, 5, 72, 48
13, 14999, Note_on_c, 5, 72, 0
13, 15000, Note_on_c, 5, 71, 48
13, 15059, Note_on_c, 5, 71, 0
13, 15060, Note_on_c, 5, 72, 48
13, 15119, Note_on_c, 5, 72, 0
13, 15180, Note_on_c, 5, 70, 66
13, 15239, Note_on_c, 5, 70, 0
13, 15240, Note_on_c, 5, 82, 66
13, 15299, Note_on_c, 5, 82, 0
13, 15300, Note_on_c, 5, 81, 66
13, 15359, Note_on_c, 5, 81, 0
13, 15360, Note_on_c, 5, 84, 48
13, 15419, Note_on_c, 5, 84, 0
13, 15420, Note_on_c, 5, 82, 48
13, 15479, Note_on_c, 5, 82, 0
13, 15480, Note_on_c, 5, 81, 48
13, 15539, Note_on_c, 5, 81, 0
13, 15540, Note_on_c, 5, 82, 48
13, 15599, Note_on_c, 5, 82, 0
13, 15600, Note_on_c, 5, 82, 48
13, 15659, Note_on_c, 5, 82, 0
13, 15660, Note_on_c, 5, 81, 48
13, 15719, Note_on_c, 5, 81, 0
13, 15720, Note_on_c, 5, 80, 48
13, 15779, Note_on_c, 5, 80, 0
13, 15780, Note_on_c, 5, 81, 48
13, 15839, Note_on_c, 5, 81, 0
13, 15900, Note_on_c, 5, 72, 84
13, 15959, Note_on_c, 5, 72, 0
13, 15960, Note_on_c, 5, 84, 84
13, 16019, Note_on_c, 5, 84, 0
13, 16020, Note_on_c, 5, 83, 84
13, 16079, Note_on_c, 5, 83, 0
13, 16080, Note_on_c, 5, 86, 84
13, 16139, Note_on_c, 5, 86, 0
13, 16140, Note_on_c, 5, 84, 84
13, 16199, Note_on_c, 5, 84, 0
13, 16200, Note_on_c, 5, 83, 84
13, 16259, Note_on_c, 5, 83, 0
13, 16260, Note_on_c, 5, 84, 84
13, 16319, Note_on_c, 5, 84, 0
13, 16320, Note_on_c, 5, 83, 84
13, 16379, Note_on_c, 5, 83, 0
13, 16380, Note_on_c, 5, 81, 84
13, 16439, Note_on_c, 5, 81, 0
13, 16440, Note_on_c, 5, 80, 84
13, 16499, Note_on_c, 5, 80, 0
13, 16500, Note_on_c, 5, 81, 84
13, 16559, Note_on_c, 5, 81, 0
13, 16560, Note_on_c, 5, 80, 84
13, 16799, Note_on_c, 5, 80, 0
13, 16800, Note_on_c, 5, 68, 84
13, 16800, Note_on_c, 5, 59, 84
13, 17039, Note_on_c, 5, 68, 0
13, 17039, Note_on_c, 5, 59, 0
13, 17280, Note_on_c, 5, 55, 48
13, 17519, Note_on_c, 5, 55, 0
13, 18240, Note_on_c, 5, 62, 48
13, 18479, Note_on_c, 5, 62, 0
13, 18480, Note_on_c, 5, 65, 48
13, 18719, Note_on_c, 5, 65, 0
13, 18720, Note_on_c, 5, 65, 48
13, 18959, Note_on_c, 5, 65, 0
13, 18960, Note_on_c, 5, 64, 48
13, 19079, Note_on_c, 5, 64, 0
13, 19080, Note_on_c, 5, 62, 48
13, 19199, Note_on_c, 5, 62, 0
13, 19200, Note_on_c, 5, 64, 48
13, 19439, Note_on_c, 5, 64, 0
13, 19440, Note_on_c, 5, 60, 48
13, 19919, Note_on_c, 5, 60, 0
13, 19920, Note_on_c, 5, 62, 48
13, 20399, Note_on_c, 5, 62, 0
13, 20400, Note_on_c, 5, 60, 48
13, 21119, Note_on_c, 5, 60, 0
13, 21120, Note_on_c, 5, 59, 48
13, 21239, Note_on_c, 5, 59, 0
13, 21240, Note_on_c, 5, 57, 48
13, 21359, Note_on_c, 5, 57, 0
13, 21360, Note_on_c, 5, 59, 48
13, 21599, Note_on_c, 5, 59, 0
13, 21600, Note_on_c, 5, 60, 48
13, 21839, Note_on_c, 5, 60, 0
13, 21840, Note_on_c, 5, 72, 48
13, 22079, Note_on_c, 5, 72, 0
13, 22080, Note_on_c, 5, 70, 48
13, 22319, Note_on_c, 5, 70, 0
13, 22320, Note_on_c, 5, 70, 48
13, 22559, Note_on_c, 5, 70, 0
13, 22560, Note_on_c, 5, 69, 48
13, 22679, Note_on_c, 5, 69, 0
13, 22680, Note_on_c, 5, 67, 48
13, 22799, Note_on_c, 5, 67, 0
13, 22800, Note_on_c, 5, 65, 48
13, 22919, Note_on_c, 5, 65, 0
13, 22920, Note_on_c, 5, 64, 48
13, 23039, Note_on_c, 5, 64, 0
13, 23040, Note_on_c, 5, 64, 48
13, 23159, Note_on_c, 5, 64, 0
13, 23160, Note_on_c, 5, 64, 48
13, 23279, Note_on_c, 5, 64, 0
13, 23280, Note_on_c, 5, 64, 48
13, 23399, Note_on_c, 5, 64, 0
13, 23400, Note_on_c, 5, 64, 48
13, 23519, Note_on_c, 5, 64, 0
13, 23520, Note_on_c, 5, 65, 48
13, 23639, Note_on_c, 5, 65, 0
13, 23640, Note_on_c, 5, 65, 48
13, 23759, Note_on_c, 5, 65, 0
13, 23760, Note_on_c, 5, 64, 48
13, 23999, Note_on_c, 5, 64, 0
13, 24540, Note_on_c, 5, 77, 72
13, 24599, Note_on_c, 5, 77, 0
13, 24600, Note_on_c, 5, 76, 72
13, 24659, Note_on_c, 5, 76, 0
13, 24660, Note_on_c, 5, 74, 72
13, 24719, Note_on_c, 5, 74, 0
13, 24720, Note_on_c, 5, 72, 72
13, 24779, Note_on_c, 5, 72, 0
13, 24780, Note_on_c, 5, 71, 72
13, 24839, Note_on_c, 5, 71, 0
13, 24840, Note_on_c, 5, 69, 72
13, 24899, Note_on_c, 5, 69, 0
13, 24900, Note_on_c, 5, 67, 72
13, 24959, Note_on_c, 5, 67, 0
13, 24960, Note_on_c, 5, 66, 72
13, 25019, Note_on_c, 5, 66, 0
13, 25020, Note_on_c, 5, 67, 72
13, 25079, Note_on_c, 5, 67, 0
13, 25080, Note_on_c, 5, 69, 72
13, 25139, Note_on_c, 5, 69, 0
13, 25140, Note_on_c, 5, 67, 72
13, 25199, Note_on_c, 5, 67, 0
13, 25260, Note_on_c, 5, 67, 72
13, 25319, Note_on_c, 5, 67, 0
13, 25320, Note_on_c, 5, 76, 72
13, 25379, Note_on_c, 5, 76, 0
13, 25380, Note_on_c, 5, 74, 72
13, 25439, Note_on_c, 5, 74, 0
13, 25440, Note_on_c, 5, 77, 72
13, 25499, Note_on_c, 5, 77, 0
13, 25500, Note_on_c, 5, 76, 72
13, 25559, Note_on_c, 5, 76, 0
13, 25560, Note_on_c, 5, 74, 72
13, 25619, Note_on_c, 5, 74, 0
13, 25620, Note_on_c, 5, 72, 72
13, 25679, Note_on_c, 5, 72, 0
13, 25680, Note_on_c, 5, 71, 72
13, 25739, Note_on_c, 5, 71, 0
13, 25740, Note_on_c, 5, 72, 72
13, 25799, Note_on_c, 5, 72, 0
13, 25800, Note_on_c, 5, 74, 72
13, 25859, Note_on_c, 5, 74, 0
13, 25860, Note_on_c, 5, 72, 72
13, 25919, Note_on_c, 5, 72, 0
13, 25980, Note_on_c, 5, 68, 72
13, 26039, Note_on_c, 5, 68, 0
13, 26040, Note_on_c, 5, 80, 72
13, 26099, Note_on_c, 5, 80, 0
13, 26100, Note_on_c, 5, 79, 72
13, 26159, Note_on_c, 5, 79, 0
13, 26160, Note_on_c, 5, 82, 72
13, 26219, Note_on_c, 5, 82, 0
13, 26220, Note_on_c, 5, 80, 72
13, 26279, Note_on_c, 5, 80, 0
13, 26280, Note_on_c, 5, 79, 72
13, 26339, Note_on_c, 5, 79, 0
13, 26340, Note_on_c, 5, 77, 72
13, 26399, Note_on_c, 5, 77, 0
13, 26400, Note_on_c, 5, 75, 72
13, 26459, Note_on_c, 5, 75, 0
13, 26460, Note_on_c, 5, 74, 72
13, 26519, Note_on_c, 5, 74, 0
13, 26520, Note_on_c, 5, 72, 72
13, 26579, Note_on_c, 5, 72, 0
13, 26580, Note_on_c, 5, 71, 72
13, 26639, Note_on_c, 5, 71, 0
13, 26700, Note_on_c, 5, 68, 72
13, 26759, Note_on_c, 5, 68, 0
13, 26760, Note_on_c, 5, 80, 72
13, 26819, Note_on_c, 5, 80, 0
13, 26820, Note_on_c, 5, 79, 72
13, 26879, Note_on_c, 5, 79, 0
13, 26880, Note_on_c, 5, 82, 72
13, 26939, Note_on_c, 5, 82, 0
13, 26940, Note_on_c, 5, 80, 72
13, 26999, Note_on_c, 5, 80, 0
13, 27000, Note_on_c, 5, 79, 72
13, 27059, Note_on_c, 5, 79, 0
13, 27060, Note_on_c, 5, 77, 72
13, 27119, Note_on_c, 5, 77, 0
13, 27120, Note_on_c, 5, 75, 72
13, 27179, Note_on_c, 5, 75, 0
13, 27180, Note_on_c, 5, 74, 72
13, 27239, Note_on_c, 5, 74, 0
13, 27240, Note_on_c, 5, 72, 72
13, 27299, Note_on_c, 5, 72, 0
13, 27300, Note_on_c, 5, 70, 72
13, 27359, Note_on_c, 5, 70, 0
13, 27420, Note_on_c, 5, 67, 72
13, 27479, Note_on_c, 5, 67, 0
13, 27480, Note_on_c, 5, 79, 72
13, 27539, Note_on_c, 5, 79, 0
13, 27540, Note_on_c, 5, 77, 72
13, 27599, Note_on_c, 5, 77, 0
13, 27600, Note_on_c, 5, 80, 72
13, 27659, Note_on_c, 5, 80, 0
13, 27660, Note_on_c, 5, 79, 72
13, 27719, Note_on_c, 5, 79, 0
13, 27720, Note_on_c, 5, 77, 72
13, 27779, Note_on_c, 5, 77, 0
13, 27780, Note_on_c, 5, 75, 72
13, 27839, Note_on_c, 5, 75, 0
13, 27840, Note_on_c, 5, 74, 72
13, 27899, Note_on_c, 5, 74, 0
13, 27900, Note_on_c, 5, 75, 72
13, 27959, Note_on_c, 5, 75, 0
13, 27960, Note_on_c, 5, 77, 72
13, 28019, Note_on_c, 5, 77, 0
13, 28020, Note_on_c, 5, 75, 72
13, 28079, Note_on_c, 5, 75, 0
13, 28140, Note_on_c, 5, 66, 72
13, 28199, Note_on_c, 5, 66, 0
13, 28200, Note_on_c, 5, 78, 72
13, 28259, Note_on_c, 5, 78, 0
13, 28260, Note_on_c, 5, 77, 72
13, 28319, Note_on_c, 5, 77, 0
13, 28320, Note_on_c, 5, 80, 72
13, 28379, Note_on_c, 5, 80, 0
13, 28380, Note_on_c, 5, 78, 72
13, 28439, Note_on_c, 5, 78, 0
13, 28440, Note_on_c, 5, 77, 72
13, 28499, Note_on_c, 5, 77, 0
13, 28500, Note_on_c, 5, 75, 72
13, 28559, Note_on_c, 5, 75, 0
13, 28560, Note_on_c, 5, 74, 72
13, 28619, Note_on_c, 5, 74, 0
13, 28620, Note_on_c, 5, 75, 72
13, 28679, Note_on_c, 5, 75, 0
13, 28680, Note_on_c, 5, 77, 72
13, 28739, Note_on_c, 5, 77, 0
13, 28740, Note_on_c, 5, 75, 72
13, 28799, Note_on_c, 5, 75, 0
13, 28800, Note_on_c, 5, 74, 72
13, 29039, Note_on_c, 5, 74, 0
13, 29760, Note_on_c, 5, 70, 48
13, 29999, Note_on_c, 5, 70, 0
13, 30000, Note_on_c, 5, 68, 48
13, 30239, Note_on_c, 5, 68, 0
13, 30240, Note_on_c, 5, 68, 48
13, 30479, Note_on_c, 5, 68, 0
13, 30480, Note_on_c, 5, 67, 48
13, 30599, Note_on_c, 5, 67, 0
13, 30600, Note_on_c, 5, 65, 48
13, 30719, Note_on_c, 5, 65, 0
13, 30720, Note_on_c, 5, 63, 48
13, 30839, Note_on_c, 5, 63, 0
13, 30840, Note_on_c, 5, 62, 48
13, 30959, Note_on_c, 5, 62, 0
13, 30960, Note_on_c, 5, 62, 48
13, 31079, Note_on_c, 5, 62, 0
13, 31080, Note_on_c, 5, 62, 48
13, 31199, Note_on_c, 5, 62, 0
13, 31200, Note_on_c, 5, 62, 48
13, 31319, Note_on_c, 5, 62, 0
13, 31320, Note_on_c, 5, 62, 48
13, 31439, Note_on_c, 5, 62, 0
13, 31440, Note_on_c, 5, 63, 48
13, 31559, Note_on_c, 5, 63, 0
13, 31560, Note_on_c, 5, 63, 48
13, 31679, Note_on_c, 5, 63, 0
13, 31680, Note_on_c, 5, 61, 48
13, 32399, Note_on_c, 5, 61, 0
13, 33360, Note_on_c, 5, 66, 48
13, 33599, Note_on_c, 5, 66, 0
13, 33600, Note_on_c, 5, 66, 48
13, 33839, Note_on_c, 5, 66, 0
13, 33840, Control_c, 5, 11, 80
13, 33840, Note_on_c, 5, 68, 72
13, 34320, Control_c, 5, 11, 96
13, 34559, Note_on_c, 5, 68, 0
13, 34560, Note_on_c, 5, 66, 72
13, 34560, Control_c, 5, 11, 112
13, 34799, Note_on_c, 5, 66, 0
13, 34800, Note_on_c, 5, 65, 72
13, 35039, Note_on_c, 5, 65, 0
13, 35040, Control_c, 5, 11, 120
13, 35040, Note_on_c, 5, 64, 72
13, 35279, Note_on_c, 5, 64, 0
13, 35280, Control_c, 5, 11, 127
13, 35280, Note_on_c, 5, 65, 72
13, 35399, Note_on_c, 5, 65, 0
13, 35400, Note_on_c, 5, 65, 72
13, 35519, Note_on_c, 5, 65, 0
13, 35520, Note_on_c, 5, 65, 72
13, 35639, Note_on_c, 5, 65, 0
13, 35640, Note_on_c, 5, 65, 72
13, 35759, Note_on_c, 5, 65, 0
13, 35760, Note_on_c, 5, 64, 72
13, 35879, Note_on_c, 5, 64, 0
13, 35880, Note_on_c, 5, 64, 72
13, 35999, Note_on_c, 5, 64, 0
13, 36000, Note_on_c, 5, 65, 72
13, 36719, Note_on_c, 5, 65, 0
13, 36840, Note_on_c, 5, 62, 48
13, 36959, Note_on_c, 5, 62, 0
13, 37080, Note_on_c, 5, 65, 48
13, 37199, Note_on_c, 5, 65, 0
13, 37320, Note_on_c, 5, 63, 48
13, 37439, Note_on_c, 5, 63, 0
13, 37560, Note_on_c, 5, 63, 48
13, 37679, Note_on_c, 5, 63, 0
13, 37920, Note_on_c, 5, 72, 48
13, 38279, Note_on_c, 5, 72, 0
13, 38280, Note_on_c, 5, 70, 48
13, 38519, Note_on_c, 5, 70, 0
13, 38520, Note_on_c, 5, 69, 48
13, 38639, Note_on_c, 5, 69, 0
13, 38760, Note_on_c, 5, 58, 48
13, 38879, Note_on_c, 5, 58, 0
13, 38880, Note_on_c, 5, 58, 48
13, 38939, Note_on_c, 5, 58, 0
13, 38940, Note_on_c, 5, 57, 48
13, 38999, Note_on_c, 5, 57, 0
13, 39000, Note_on_c, 5, 58, 48
13, 39059, Note_on_c, 5, 58, 0
13, 39060, Note_on_c, 5, 60, 48
13, 39119, Note_on_c, 5, 60, 0
13, 39120, Note_on_c, 5, 62, 48
13, 39179, Note_on_c, 5, 62, 0
13, 39180, Note_on_c, 5, 60, 48
13, 39239, Note_on_c, 5, 60, 0
13, 39240, Note_on_c, 5, 62, 48
13, 39299, Note_on_c, 5, 62, 0
13, 39300, Note_on_c, 5, 64, 48
13, 39359, Note_on_c, 5, 64, 0
13, 39360, Note_on_c, 5, 65, 48
13, 39479, Note_on_c, 5, 65, 0
13, 39480, Note_on_c, 5, 66, 48
13, 39599, Note_on_c, 5, 66, 0
13, 39600, Note_on_c, 5, 67, 48
13, 39839, Note_on_c, 5, 67, 0
13, 40200, Note_on_c, 5, 65, 48
13, 40379, Note_on_c, 5, 65, 0
13, 40380, Note_on_c, 5, 67, 48
13, 40439, Note_on_c, 5, 67, 0
13, 40440, Note_on_c, 5, 65, 48
13, 40499, Note_on_c, 5, 65, 0
13, 40500, Note_on_c, 5, 63, 48
13, 40559, Note_on_c, 5, 63, 0
13, 40560, Note_on_c, 5, 62, 48
13, 40619, Note_on_c, 5, 62, 0
13, 40620, Note_on_c, 5, 63, 48
13, 40679, Note_on_c, 5, 63, 0
13, 40680, Note_on_c, 5, 62, 48
13, 40739, Note_on_c, 5, 62, 0
13, 40740, Note_on_c, 5, 60, 48
13, 40799, Note_on_c, 5, 60, 0
13, 40800, Note_on_c, 5, 58, 48
13, 40919, Note_on_c, 5, 58, 0
13, 40920, Note_on_c, 5, 74, 48
13, 41099, Note_on_c, 5, 74, 0
13, 41100, Note_on_c, 5, 75, 48
13, 41159, Note_on_c, 5, 75, 0
13, 41160, Note_on_c, 5, 74, 48
13, 41219, Note_on_c, 5, 74, 0
13, 41220, Note_on_c, 5, 72, 48
13, 41279, Note_on_c, 5, 72, 0
13, 41280, Note_on_c, 5, 70, 48
13, 41339, Note_on_c, 5, 70, 0
13, 41340, Note_on_c, 5, 72, 48
13, 41399, Note_on_c, 5, 72, 0
13, 41400, Note_on_c, 5, 70, 48
13, 41459, Note_on_c, 5, 70, 0
13, 41460, Note_on_c, 5, 69, 48
13, 41519, Note_on_c, 5, 69, 0
13, 41520, Note_on_c, 5, 67, 48
13, 41639, Note_on_c, 5, 67, 0
13, 41640, Note_on_c, 5, 72, 48
13, 41819, Note_on_c, 5, 72, 0
13, 41820, Note_on_c, 5, 74, 48
13, 41879, Note_on_c, 5, 74, 0
13, 41880, Note_on_c, 5, 72, 48
13, 41939, Note_on_c, 5, 72, 0
13, 41940, Note_on_c, 5, 70, 48
13, 41999, Note_on_c, 5, 70, 0
13, 42000, Note_on_c, 5, 69, 48
13, 42059, Note_on_c, 5, 69, 0
13, 42060, Note_on_c, 5, 70, 48
13, 42119, Note_on_c, 5, 70, 0
13, 42120, Note_on_c, 5, 69, 48
13, 42179, Note_on_c, 5, 69, 0
13, 42180, Note_on_c, 5, 67, 48
13, 42239, Note_on_c, 5, 67, 0
13, 42240, Note_on_c, 5, 65, 48
13, 42299, Note_on_c, 5, 65, 0
13, 42300, Note_on_c, 5, 64, 48
13, 42359, Note_on_c, 5, 64, 0
13, 42360, Note_on_c, 5, 65, 48
13, 42419, Note_on_c, 5, 65, 0
13, 42420, Note_on_c, 5, 67, 48
13, 42479, Note_on_c, 5, 67, 0
13, 42480, Note_on_c, 5, 69, 48
13, 42719, Note_on_c, 5, 69, 0
13, 42720, Note_on_c, 5, 67, 48
13, 42959, Note_on_c, 5, 67, 0
13, 43080, Note_on_c, 5, 74, 48
13, 43259, Note_on_c, 5, 74, 0
13, 43260, Note_on_c, 5, 75, 48
13, 43319, Note_on_c, 5, 75, 0
13, 43320, Note_on_c, 5, 74, 48
13, 43379, Note_on_c, 5, 74, 0
13, 43380, Note_on_c, 5, 72, 48
13, 43439, Note_on_c, 5, 72, 0
13, 43440, Note_on_c, 5, 70, 72
13, 43529, Note_on_c, 5, 70, 0
13, 43530, Note_on_c, 5, 58, 72
13, 43559, Note_on_c, 5, 58, 0
13, 43560, Note_on_c, 5, 67, 72
13, 43649, Note_on_c, 5, 67, 0
13, 43650, Note_on_c, 5, 62, 72
13, 43679, Note_on_c, 5, 62, 0
13, 43680, Note_on_c, 5, 70, 72
13, 43919, Note_on_c, 5, 70, 0
13, 44010, Note_on_c, 5, 60, 72
13, 44039, Note_on_c, 5, 60, 0
13, 44040, Note_on_c, 5, 69, 72
13, 44129, Note_on_c, 5, 69, 0
13, 44130, Note_on_c, 5, 65, 72
13, 44159, Note_on_c, 5, 65, 0
13, 44160, Note_on_c, 5, 72, 72
13, 44399, Note_on_c, 5, 72, 0
13, 44490, Note_on_c, 5, 70, 72
13, 44519, Note_on_c, 5, 70, 0
13, 44520, Note_on_c, 5, 74, 72
13, 44609, Note_on_c, 5, 74, 0
13, 44610, Note_on_c, 5, 70, 72
13, 44639, Note_on_c, 5, 70, 0
13, 44640, Note_on_c, 5, 74, 72
13, 44879, Note_on_c, 5, 74, 0
13, 44970, Note_on_c, 5, 62, 72
13, 44999, Note_on_c, 5, 62, 0
13, 45000, Note_on_c, 5, 69, 72
13, 45089, Note_on_c, 5, 69, 0
13, 45090, Note_on_c, 5, 66, 72
13, 45119, Note_on_c, 5, 66, 0
13, 45120, Note_on_c, 5, 78, 72
13, 45359, Note_on_c, 5, 78, 0
13, 45450, Note_on_c, 5, 62, 72
13, 45479, Note_on_c, 5, 62, 0
13, 45480, Note_on_c, 5, 70, 72
13, 45569, Note_on_c, 5, 70, 0
13, 45570, Note_on_c, 5, 67, 72
13, 45599, Note_on_c, 5, 67, 0
13, 45600, Note_on_c, 5, 79, 72
13, 45839, Note_on_c, 5, 79, 0
13, 45930, Note_on_c, 5, 75, 72
13, 45959, Note_on_c, 5, 75, 0
13, 45960, Note_on_c, 5, 74, 72
13, 46049, Note_on_c, 5, 74, 0
13, 46050, Note_on_c, 5, 70, 72
13, 46079, Note_on_c, 5, 70, 0
13, 46080, Note_on_c, 5, 70, 72
13, 46169, Note_on_c, 5, 70, 0
13, 46170, Note_on_c, 5, 72, 72
13, 46199, Note_on_c, 5, 72, 0
13, 46200, Note_on_c, 5, 69, 72
13, 46289, Note_on_c, 5, 69, 0
13, 46290, Note_on_c, 5, 72, 72
13, 46319, Note_on_c, 5, 72, 0
13, 46320, Note_on_c, 5, 74, 72
13, 46409, Note_on_c, 5, 74, 0
13, 46410, Note_on_c, 5, 62, 72
13, 46439, Note_on_c, 5, 62, 0
13, 46440, Note_on_c, 5, 65, 72
13, 46529, Note_on_c, 5, 65, 0
13, 46530, Note_on_c, 5, 62, 72
13, 46559, Note_on_c, 5, 62, 0
13, 46560, Note_on_c, 5, 74, 72
13, 46799, Note_on_c, 5, 74, 0
13, 46890, Note_on_c, 5, 70, 72
13, 46919, Note_on_c, 5, 70, 0
13, 46920, Note_on_c, 5, 74, 72
13, 47009, Note_on_c, 5, 74, 0
13, 47010, Note_on_c, 5, 70, 72
13, 47039, Note_on_c, 5, 70, 0
13, 47040, Note_on_c, 5, 82, 72
13, 47279, Note_on_c, 5, 82, 0
13, 47370, Note_on_c, 5, 67, 72
13, 47399, Note_on_c, 5, 67, 0
13, 47400, Note_on_c, 5, 72, 72
13, 47489, Note_on_c, 5, 72, 0
13, 47490, Note_on_c, 5, 67, 72
13, 47519, Note_on_c, 5, 67, 0
13, 47520, Note_on_c, 5, 82, 72
13, 47759, Note_on_c, 5, 82, 0
13, 47850, Note_on_c, 5, 67, 72
13, 47879, Note_on_c, 5, 67, 0
13, 47880, Note_on_c, 5, 72, 72
13, 47969, Note_on_c, 5, 72, 0
13, 47970, Note_on_c, 5, 67, 72
13, 47999, Note_on_c, 5, 67, 0
13, 48000, Note_on_c, 5, 81, 72
13, 48239, Note_on_c, 5, 81, 0
13, 48330, Note_on_c, 5, 69, 72
13, 48359, Note_on_c, 5, 69, 0
13, 48360, Note_on_c, 5, 81, 72
13, 48479, Note_on_c, 5, 81, 0
13, 48570, Note_on_c, 5, 67, 72
13, 48599, Note_on_c, 5, 67, 0
13, 48600, Note_on_c, 5, 79, 72
13, 48719, Note_on_c, 5, 79, 0
13, 48810, Note_on_c, 5, 70, 72
13, 48839, Note_on_c, 5, 70, 0
13, 48840, Note_on_c, 5, 74, 72
13, 48929, Note_on_c, 5, 74, 0
13, 48930, Note_on_c, 5, 81, 72
13, 48959, Note_on_c, 5, 81, 0
13, 48960, Note_on_c, 5, 62, 72
13, 49049, Note_on_c, 5, 62, 0
13, 49050, Note_on_c, 5, 69, 72
13, 49079, Note_on_c, 5, 69, 0
13, 49080, Note_on_c, 5, 72, 72
13, 49169, Note_on_c, 5, 72, 0
13, 49170, Note_on_c, 5, 78, 72
13, 49199, Note_on_c, 5, 78, 0
13, 49200, Note_on_c, 5, 79, 72
13, 49319, Note_on_c, 5, 79, 0
13, 49320, Note_on_c, 5, 58, 48
13, 49439, Note_on_c, 5, 58, 0
13, 49560, Note_on_c, 5, 62, 48
13, 49679, Note_on_c, 5, 62, 0
13, 49800, Note_on_c, 5, 60, 48
13, 49919, Note_on_c, 5, 60, 0
13, 50040, Note_on_c, 5, 60, 48
13, 50159, Note_on_c, 5, 60, 0
13, 50400, Note_on_c, 5, 69, 48
13, 50759, Note_on_c, 5, 69, 0
13, 50760, Note_on_c, 5, 67, 48
13, 50999, Note_on_c, 5, 67, 0
13, 51000, Note_on_c, 5, 66, 48
13, 51119, Note_on_c, 5, 66, 0
13, 51120, Note_on_c, 5, 67, 48
13, 51179, Note_on_c, 5, 67, 0
13, 51180, Note_on_c, 5, 70, 72
13, 51299, Note_on_c, 5, 70, 0
13, 51300, Note_on_c, 5, 82, 72
13, 51359, Note_on_c, 5, 82, 0
13, 51420, Note_on_c, 5, 67, 72
13, 51539, Note_on_c, 5, 67, 0
13, 51540, Note_on_c, 5, 79, 72
13, 51599, Note_on_c, 5, 79, 0
13, 51660, Note_on_c, 5, 64, 72
13, 51779, Note_on_c, 5, 64, 0
13, 51780, Note_on_c, 5, 76, 72
13, 51839, Note_on_c, 5, 76, 0
13, 51900, Note_on_c, 5, 69, 72
13, 52019, Note_on_c, 5, 69, 0
13, 52020, Note_on_c, 5, 81, 72
13, 52079, Note_on_c, 5, 81, 0
13, 52140, Note_on_c, 5, 69, 72
13, 52259, Note_on_c, 5, 69, 0
13, 52260, Note_on_c, 5, 81, 72
13, 52319, Note_on_c, 5, 81, 0
13, 52380, Note_on_c, 5, 73, 72
13, 52499, Note_on_c, 5, 73, 0
13, 52500, Note_on_c, 5, 85, 72
13, 52559, Note_on_c, 5, 85, 0
13, 52620, Note_on_c, 5, 74, 72
13, 52739, Note_on_c, 5, 74, 0
13, 52740, Note_on_c, 5, 86, 72
13, 52799, Note_on_c, 5, 86, 0
13, 52860, Note_on_c, 5, 65, 72
13, 52979, Note_on_c, 5, 65, 0
13, 52980, Note_on_c, 5, 77, 72
13, 53039, Note_on_c, 5, 77, 0
13, 53100, Note_on_c, 5, 64, 72
13, 53219, Note_on_c, 5, 64, 0
13, 53220, Note_on_c, 5, 76, 72
13, 53279, Note_on_c, 5, 76, 0
13, 53340, Note_on_c, 5, 71, 72
13, 53459, Note_on_c, 5, 71, 0
13, 53460, Note_on_c, 5, 83, 72
13, 53519, Note_on_c, 5, 83, 0
13, 53580, Note_on_c, 5, 72, 72
13, 53699, Note_on_c, 5, 72, 0
13, 53700, Note_on_c, 5, 84, 72
13, 53759, Note_on_c, 5, 84, 0
13, 53820, Note_on_c, 5, 68, 72
13, 53939, Note_on_c, 5, 68, 0
13, 53940, Note_on_c, 5, 80, 72
13, 53999, Note_on_c, 5, 80, 0
13, 54000, Note_on_c, 5, 81, 72
13, 54119, Note_on_c, 5, 81, 0
13, 54120, Note_on_c, 5, 64, 72
13, 54239, Note_on_c, 5, 64, 0
13, 54240, Note_on_c, 5, 69, 72
13, 54539, Note_on_c, 5, 69, 0
13, 54540, Note_on_c, 5, 62, 72
13, 54599, Note_on_c, 5, 62, 0
13, 54600, Note_on_c, 5, 64, 72
13, 54659, Note_on_c, 5, 64, 0
13, 54660, Note_on_c, 5, 66, 72
13, 54719, Note_on_c, 5, 66, 0
13, 54720, Note_on_c, 5, 67, 72
13, 55079, Note_on_c, 5, 67, 0
13, 55080, Note_on_c, 5, 67, 72
13, 55199, Note_on_c, 5, 67, 0
13, 55200, Note_on_c, 5, 66, 72
13, 55319, Note_on_c, 5, 66, 0
13, 55320, Note_on_c, 5, 66, 72
13, 55439, Note_on_c, 5, 66, 0
13, 55440, Note_on_c, 5, 67, 72
13, 55679, Note_on_c, 5, 67, 0
13, 55680, Note_on_c, 5, 69, 72
13, 55919, Note_on_c, 5, 69, 0
13, 55920, Note_on_c, 5, 70, 72
13, 55979, Note_on_c, 5, 70, 0
13, 55980, Note_on_c, 5, 69, 72
13, 56039, Note_on_c, 5, 69, 0
13, 56040, Note_on_c, 5, 67, 72
13, 56219, Note_on_c, 5, 67, 0
13, 56220, Note_on_c, 5, 69, 72
13, 56279, Note_on_c, 5, 69, 0
13, 56280, Note_on_c, 5, 70, 72
13, 56339, Note_on_c, 5, 70, 0
13, 56340, Note_on_c, 5, 67, 72
13, 56399, Note_on_c, 5, 67, 0
13, 56400, Note_on_c, 5, 72, 72
13, 56459, Note_on_c, 5, 72, 0
13, 56460, Note_on_c, 5, 70, 72
13, 56519, Note_on_c, 5, 70, 0
13, 56520, Note_on_c, 5, 69, 72
13, 56579, Note_on_c, 5, 69, 0
13, 56580, Note_on_c, 5, 70, 72
13, 56639, Note_on_c, 5, 70, 0
13, 56640, Note_on_c, 5, 72, 72
13, 56699, Note_on_c, 5, 72, 0
13, 56700, Note_on_c, 5, 70, 72
13, 56759, Note_on_c, 5, 70, 0
13, 56760, Note_on_c, 5, 69, 72
13, 56819, Note_on_c, 5, 69, 0
13, 56820, Note_on_c, 5, 70, 72
13, 56879, Note_on_c, 5, 70, 0
13, 56880, Note_on_c, 5, 67, 72
13, 57059, Note_on_c, 5, 67, 0
13, 57060, Note_on_c, 5, 67, 72
13, 57119, Note_on_c, 5, 67, 0
13, 57120, Note_on_c, 5, 67, 72
13, 57239, Note_on_c, 5, 67, 0
13, 57240, Note_on_c, 5, 67, 72
13, 57330, Note_on_c, 5, 60, 72
13, 57359, Note_on_c, 5, 67, 0
13, 57449, Note_on_c, 5, 60, 0
13, 57480, Note_on_c, 5, 72, 72
13, 57719, Note_on_c, 5, 72, 0
13, 57720, Note_on_c, 5, 70, 72
13, 57839, Note_on_c, 5, 70, 0
13, 57840, Note_on_c, 5, 69, 72
13, 57959, Note_on_c, 5, 69, 0
13, 57960, Note_on_c, 5, 67, 72
13, 58019, Note_on_c, 5, 67, 0
13, 58020, Note_on_c, 5, 65, 72
13, 58079, Note_on_c, 5, 65, 0
13, 58080, Note_on_c, 5, 64, 72
13, 58319, Note_on_c, 5, 64, 0
13, 58440, Note_on_c, 5, 69, 72
13, 58679, Note_on_c, 5, 69, 0
13, 58680, Note_on_c, 5, 67, 72
13, 58799, Note_on_c, 5, 67, 0
13, 58800, Note_on_c, 5, 65, 72
13, 58919, Note_on_c, 5, 65, 0
13, 58920, Note_on_c, 5, 63, 72
13, 58979, Note_on_c, 5, 63, 0
13, 58980, Note_on_c, 5, 62, 72
13, 59039, Note_on_c, 5, 62, 0
13, 59040, Note_on_c, 5, 60, 72
13, 59279, Note_on_c, 5, 60, 0
13, 59400, Note_on_c, 5, 65, 72
13, 59639, Note_on_c, 5, 65, 0
13, 59640, Note_on_c, 5, 64, 72
13, 59759, Note_on_c, 5, 64, 0
13, 59760, Note_on_c, 5, 62, 72
13, 59999, Note_on_c, 5, 62, 0
13, 60300, Note_on_c, 5, 72, 72
13, 60314, Note_on_c, 5, 72, 0
13, 60315, Note_on_c, 5, 70, 72
13, 60329, Note_on_c, 5, 70, 0
13, 60330, Note_on_c, 5, 69, 72
13, 60344, Note_on_c, 5, 69, 0
13, 60345, Note_on_c, 5, 70, 72
13, 60359, Note_on_c, 5, 70, 0
13, 60360, Note_on_c, 5, 74, 72
13, 60419, Note_on_c, 5, 74, 0
13, 60420, Note_on_c, 5, 70, 72
13, 60449, Note_on_c, 5, 70, 0
13, 60480, Note_on_c, 5, 65, 72
13, 60509, Note_on_c, 5, 65, 0
13, 60540, Note_on_c, 5, 62, 72
13, 60569, Note_on_c, 5, 62, 0
13, 60600, Note_on_c, 5, 58, 72
13, 60629, Note_on_c, 5, 58, 0
13, 60660, Note_on_c, 5, 65, 72
13, 60689, Note_on_c, 5, 65, 0
13, 60720, Note_on_c, 5, 57, 72
13, 60959, Note_on_c, 5, 57, 0
13, 61260, Note_on_c, 5, 76, 72
13, 61274, Note_on_c, 5, 76, 0
13, 61275, Note_on_c, 5, 74, 72
13, 61289, Note_on_c, 5, 74, 0
13, 61290, Note_on_c, 5, 73, 72
13, 61304, Note_on_c, 5, 73, 0
13, 61305, Note_on_c, 5, 74, 72
13, 61319, Note_on_c, 5, 74, 0
13, 61320, Note_on_c, 5, 77, 72
13, 61379, Note_on_c, 5, 77, 0
13, 61380, Note_on_c, 5, 74, 72
13, 61409, Note_on_c, 5, 74, 0
13, 61440, Note_on_c, 5, 69, 72
13, 61469, Note_on_c, 5, 69, 0
13, 61500, Note_on_c, 5, 65, 72
13, 61529, Note_on_c, 5, 65, 0
13, 61560, Note_on_c, 5, 62, 72
13, 61589, Note_on_c, 5, 62, 0
13, 61620, Note_on_c, 5, 65, 72
13, 61649, Note_on_c, 5, 65, 0
13, 61680, Note_on_c, 5, 56, 72
13, 61799, Note_on_c, 5, 56, 0
13, 61800, Note_on_c, 5, 62, 72
13, 61919, Note_on_c, 5, 62, 0
13, 61920, Note_on_c, 5, 62, 72
13, 62039, Note_on_c, 5, 62, 0
13, 62040, Note_on_c, 5, 62, 72
13, 62159, Note_on_c, 5, 62, 0
13, 62160, Note_on_c, 5, 62, 72
13, 62279, Note_on_c, 5, 62, 0
13, 62280, Note_on_c, 5, 62, 72
13, 62399, Note_on_c, 5, 62, 0
13, 62400, Note_on_c, 5, 64, 72
13, 62519, Note_on_c, 5, 64, 0
13, 62520, Note_on_c, 5, 65, 72
13, 62639, Note_on_c, 5, 65, 0
13, 62640, Note_on_c, 5, 65, 72
13, 62759, Note_on_c, 5, 65, 0
13, 62760, Note_on_c, 5, 64, 72
13, 62879, Note_on_c, 5, 64, 0
13, 63000, Note_on_c, 5, 64, 48
13, 63119, Note_on_c, 5, 64, 0
13, 63120, Note_on_c, 5, 65, 48
13, 63359, Note_on_c, 5, 65, 0
13, 63360, Note_on_c, 5, 67, 48
13, 63599, Note_on_c, 5, 67, 0
13, 63600, Note_on_c, 5, 65, 48
13, 63839, Note_on_c, 5, 65, 0
13, 63840, Note_on_c, 5, 64, 48
13, 64079, Note_on_c, 5, 64, 0
13, 64080, Note_on_c, 5, 62, 48
13, 64319, Note_on_c, 5, 62, 0
13, 64320, Note_on_c, 5, 62, 48
13, 64559, Note_on_c, 5, 62, 0
13, 64560, Note_on_c, 5, 62, 48
13, 64799, Note_on_c, 5, 62, 0
13, 64800, Note_on_c, 5, 61, 48
13, 64919, Note_on_c, 5, 61, 0
13, 64920, Note_on_c, 5, 59, 48
13, 65039, Note_on_c, 5, 59, 0
13, 65040, Note_on_c, 5, 61, 48
13, 65519, Note_on_c, 5, 61, 0
13, 66600, Note_on_c, 5, 64, 72
13, 66719, Note_on_c, 5, 64, 0
13, 66720, Note_on_c, 5, 64, 72
13, 66839, Note_on_c, 5, 64, 0
13, 66840, Note_on_c, 5, 64, 72
13, 66959, Note_on_c, 5, 64, 0
13, 66960, Note_on_c, 5, 65, 72
13, 67019, Note_on_c, 5, 65, 0
13, 67020, Note_on_c, 5, 67, 72
13, 67079, Note_on_c, 5, 67, 0
13, 67080, Note_on_c, 5, 65, 72
13, 67139, Note_on_c, 5, 65, 0
13, 67140, Note_on_c, 5, 64, 72
13, 67199, Note_on_c, 5, 64, 0
13, 67200, Note_on_c, 5, 65, 72
13, 67259, Note_on_c, 5, 65, 0
13, 67260, Note_on_c, 5, 67, 72
13, 67319, Note_on_c, 5, 67, 0
13, 67320, Note_on_c, 5, 64, 72
13, 67379, Note_on_c, 5, 64, 0
13, 67380, Note_on_c, 5, 65, 72
13, 67439, Note_on_c, 5, 65, 0
13, 67440, Note_on_c, 5, 67, 72
13, 67499, Note_on_c, 5, 67, 0
13, 67500, Note_on_c, 5, 69, 72
13, 67559, Note_on_c, 5, 69, 0
13, 67560, Note_on_c, 5, 67, 72
13, 67619, Note_on_c, 5, 67, 0
13, 67620, Note_on_c, 5, 65, 72
13, 67679, Note_on_c, 5, 65, 0
13, 67680, Note_on_c, 5, 67, 72
13, 67739, Note_on_c, 5, 67, 0
13, 67740, Note_on_c, 5, 69, 72
13, 67799, Note_on_c, 5, 69, 0
13, 67800, Note_on_c, 5, 65, 72
13, 67859, Note_on_c, 5, 65, 0
13, 67860, Note_on_c, 5, 67, 72
13, 67919, Note_on_c, 5, 67, 0
13, 67920, Note_on_c, 5, 69, 72
13, 68039, Note_on_c, 5, 69, 0
13, 68040, Note_on_c, 5, 70, 72
13, 68099, Note_on_c, 5, 70, 0
13, 68100, Note_on_c, 5, 69, 72
13, 68159, Note_on_c, 5, 69, 0
13, 68160, Note_on_c, 5, 67, 72
13, 68219, Note_on_c, 5, 67, 0
13, 68220, Note_on_c, 5, 65, 72
13, 68279, Note_on_c, 5, 65, 0
13, 68280, Note_on_c, 5, 64, 72
13, 68339, Note_on_c, 5, 64, 0
13, 68340, Note_on_c, 5, 62, 72
13, 68399, Note_on_c, 5, 62, 0
13, 68400, Note_on_c, 5, 61, 72
13, 68519, Note_on_c, 5, 61, 0
13, 68520, Note_on_c, 5, 64, 72
13, 68639, Note_on_c, 5, 64, 0
13, 68640, Note_on_c, 5, 69, 72
13, 68759, Note_on_c, 5, 69, 0
13, 68760, Note_on_c, 5, 67, 72
13, 68879, Note_on_c, 5, 67, 0
13, 68880, Note_on_c, 5, 65, 72
13, 68999, Note_on_c, 5, 65, 0
13, 69000, Note_on_c, 5, 64, 72
13, 69059, Note_on_c, 5, 64, 0
13, 69060, Note_on_c, 5, 65, 72
13, 69119, Note_on_c, 5, 65, 0
13, 69120, Note_on_c, 5, 62, 72
13, 69179, Note_on_c, 5, 62, 0
13, 69180, Note_on_c, 5, 64, 72
13, 69239, Note_on_c, 5, 64, 0
13, 69240, Note_on_c, 5, 66, 72
13, 69299, Note_on_c, 5, 66, 0
13, 69300, Note_on_c, 5, 68, 72
13, 69359, Note_on_c, 5, 68, 0
13, 69360, Note_on_c, 5, 69, 72
13, 69599, Note_on_c, 5, 69, 0
13, 72240, Note_on_c, 5, 69, 72
13, 72719, Note_on_c, 5, 69, 0
13, 72720, Note_on_c, 5, 65, 72
13, 72959, Note_on_c, 5, 65, 0
13, 72960, Note_on_c, 5, 70, 72
13, 73199, Note_on_c, 5, 70, 0
13, 73200, Note_on_c, 5, 61, 72
13, 73679, Note_on_c, 5, 61, 0
13, 73680, Note_on_c, 5, 62, 72
13, 73919, Note_on_c, 5, 62, 0
13, 73920, Note_on_c, 5, 62, 72
13, 74039, Note_on_c, 5, 62, 0
13, 74040, Note_on_c, 5, 62, 72
13, 74159, Note_on_c, 5, 62, 0
13, 74160, Note_on_c, 5, 64, 72
13, 74519, Note_on_c, 5, 64, 0
13, 74520, Note_on_c, 5, 62, 72
13, 74579, Note_on_c, 5, 62, 0
13, 74580, Note_on_c, 5, 64, 72
13, 74639, Note_on_c, 5, 64, 0
13, 74640, Note_on_c, 5, 65, 72
13, 74759, Note_on_c, 5, 65, 0
13, 74760, Note_on_c, 5, 64, 72
13, 74819, Note_on_c, 5, 64, 0
13, 74820, Note_on_c, 5, 65, 72
13, 74879, Note_on_c, 5, 65, 0
13, 74880, Note_on_c, 5, 67, 72
13, 74999, Note_on_c, 5, 67, 0
13, 75000, Note_on_c, 5, 65, 72
13, 75059, Note_on_c, 5, 65, 0
13, 75060, Note_on_c, 5, 67, 72
13, 75119, Note_on_c, 5, 67, 0
13, 75120, Note_on_c, 5, 69, 72
13, 75239, Note_on_c, 5, 69, 0
13, 75240, Note_on_c, 5, 67, 72
13, 75359, Note_on_c, 5, 67, 0
13, 75360, Note_on_c, 5, 65, 72
13, 75479, Note_on_c, 5, 65, 0
13, 75480, Note_on_c, 5, 64, 72
13, 75599, Note_on_c, 5, 64, 0
13, 75600, Note_on_c, 5, 62, 72
13, 75779, Note_on_c, 5, 62, 0
13, 75780, Note_on_c, 5, 64, 72
13, 75839, Note_on_c, 5, 64, 0
13, 75840, Note_on_c, 5, 66, 72
13, 75959, Note_on_c, 5, 66, 0
13, 75960, Note_on_c, 5, 68, 72
13, 76079, Note_on_c, 5, 68, 0
13, 76080, Note_on_c, 5, 69, 72
13, 76199, Note_on_c, 5, 69, 0
13, 76200, Note_on_c, 5, 64, 72
13, 76439, Note_on_c, 5, 64, 0
13, 76440, Note_on_c, 5, 62, 72
13, 76499, Note_on_c, 5, 62, 0
13, 76500, Note_on_c, 5, 60, 72
13, 76559, Note_on_c, 5, 60, 0
13, 76560, Note_on_c, 5, 59, 72
13, 76799, Note_on_c, 5, 59, 0
13, 77160, Note_on_c, 5, 64, 72
13, 77279, Note_on_c, 5, 64, 0
13, 77280, Note_on_c, 5, 69, 72
13, 77579, Note_on_c, 5, 69, 0
13, 77580, Note_on_c, 5, 67, 72
13, 77639, Note_on_c, 5, 67, 0
13, 77640, Note_on_c, 5, 65, 72
13, 77699, Note_on_c, 5, 65, 0
13, 77700, Note_on_c, 5, 64, 72
13, 77759, Note_on_c, 5, 64, 0
13, 77760, Note_on_c, 5, 65, 72
13, 77879, Note_on_c, 5, 65, 0
13, 77880, Note_on_c, 5, 67, 72
13, 77939, Note_on_c, 5, 67, 0
13, 77940, Note_on_c, 5, 65, 72
13, 77999, Note_on_c, 5, 65, 0
13, 78000, Note_on_c, 5, 64, 72
13, 78239, Note_on_c, 5, 64, 0
13, 78600, Note_on_c, 5, 64, 72
13, 78719, Note_on_c, 5, 64, 0
13, 78720, Note_on_c, 5, 66, 72
13, 78839, Note_on_c, 5, 66, 0
13, 78840, Note_on_c, 5, 68, 72
13, 78959, Note_on_c, 5, 68, 0
13, 78960, Note_on_c, 5, 69, 72
13, 79199, Note_on_c, 5, 69, 0
13, 79560, Note_on_c, 5, 69, 72
13, 79679, Note_on_c, 5, 69, 0
13, 79680, Note_on_c, 5, 74, 72
13, 79799, Note_on_c, 5, 74, 0
13, 79800, Note_on_c, 5, 72, 72
13, 79919, Note_on_c, 5, 72, 0
13, 79920, Note_on_c, 5, 70, 72
13, 79979, Note_on_c, 5, 70, 0
13, 79980, Note_on_c, 5, 69, 72
13, 80039, Note_on_c, 5, 69, 0
13, 80040, Note_on_c, 5, 67, 72
13, 80219, Note_on_c, 5, 67, 0
13, 80220, Note_on_c, 5, 69, 72
13, 80279, Note_on_c, 5, 69, 0
13, 80280, Note_on_c, 5, 65, 72
13, 80339, Note_on_c, 5, 65, 0
13, 80340, Note_on_c, 5, 67, 72
13, 80399, Note_on_c, 5, 67, 0
13, 80400, Note_on_c, 5, 64, 72
13, 80639, Note_on_c, 5, 64, 0
13, 80640, Note_on_c, 5, 65, 72
13, 80759, Note_on_c, 5, 65, 0
13, 80760, Note_on_c, 5, 67, 72
13, 80879, Note_on_c, 5, 67, 0
13, 80880, Note_on_c, 5, 60, 72
13, 81119, Note_on_c, 5, 60, 0
13, 81480, Note_on_c, 5, 60, 72
13, 81599, Note_on_c, 5, 60, 0
13, 81600, Note_on_c, 5, 60, 72
13, 81719, Note_on_c, 5, 60, 0
13, 81720, Note_on_c, 5, 58, 72
13, 81839, Note_on_c, 5, 58, 0
13, 81840, Note_on_c, 5, 57, 72
13, 81959, Note_on_c, 5, 57, 0
13, 81960, Note_on_c, 5, 65, 72
13, 82079, Note_on_c, 5, 65, 0
13, 82080, Note_on_c, 5, 62, 72
13, 82199, Note_on_c, 5, 62, 0
13, 82200, Note_on_c, 5, 58, 72
13, 82319, Note_on_c, 5, 58, 0
13, 82440, Note_on_c, 5, 67, 72
13, 82559, Note_on_c, 5, 67, 0
13, 82560, Note_on_c, 5, 64, 72
13, 82679, Note_on_c, 5, 64, 0
13, 82680, Note_on_c, 5, 60, 72
13, 82799, Note_on_c, 5, 60, 0
13, 82920, Note_on_c, 5, 64, 72
13, 82979, Note_on_c, 5, 64, 0
13, 82980, Note_on_c, 5, 65, 72
13, 83039, Note_on_c, 5, 65, 0
13, 83040, Note_on_c, 5, 67, 72
13, 83159, Note_on_c, 5, 67, 0
13, 83160, Note_on_c, 5, 65, 72
13, 83219, Note_on_c, 5, 65, 0
13, 83220, Note_on_c, 5, 67, 72
13, 83279, Note_on_c, 5, 67, 0
13, 83280, Note_on_c, 5, 69, 72
13, 83399, Note_on_c, 5, 69, 0
13, 83400, Note_on_c, 5, 64, 72
13, 83519, Note_on_c, 5, 64, 0
13, 83520, Note_on_c, 5, 65, 72
13, 83639, Note_on_c, 5, 65, 0
13, 83640, Note_on_c, 5, 61, 72
13, 83759, Note_on_c, 5, 61, 0
13, 83760, Note_on_c, 5, 62, 72
13, 83999, Note_on_c, 5, 62, 0
13, 84000, Note_on_c, 5, 64, 72
13, 84119, Note_on_c, 5, 64, 0
13, 84120, Note_on_c, 5, 66, 72
13, 84239, Note_on_c, 5, 66, 0
13, 84240, Note_on_c, 5, 67, 72
13, 84479, Note_on_c, 5, 67, 0
13, 84840, Note_on_c, 5, 63, 72
13, 84959, Note_on_c, 5, 63, 0
13, 84960, Note_on_c, 5, 62, 72
13, 85079, Note_on_c, 5, 62, 0
13, 85080, Note_on_c, 5, 60, 72
13, 85199, Note_on_c, 5, 60, 0
13, 85200, Note_on_c, 5, 58, 72
13, 85319, Note_on_c, 5, 58, 0
13, 85320, Note_on_c, 5, 55, 72
13, 85439, Note_on_c, 5, 55, 0
13, 85440, Note_on_c, 5, 63, 72
13, 85799, Note_on_c, 5, 63, 0
13, 85800, Note_on_c, 5, 60, 72
13, 85919, Note_on_c, 5, 60, 0
13, 85920, Note_on_c, 5, 65, 72
13, 86399, Note_on_c, 5, 65, 0
13, 86400, Note_on_c, 5, 63, 72
13, 86639, Note_on_c, 5, 63, 0
13, 86640, Note_on_c, 5, 62, 72
13, 86759, Note_on_c, 5, 62, 0
13, 86760, Note_on_c, 5, 66, 72
13, 86879, Note_on_c, 5, 66, 0
13, 86880, Note_on_c, 5, 67, 72
13, 86999, Note_on_c, 5, 67, 0
13, 87000, Note_on_c, 5, 69, 72
13, 87119, Note_on_c, 5, 69, 0
13, 87120, Note_on_c, 5, 62, 72
13, 87239, Note_on_c, 5, 62, 0
13, 87240, Note_on_c, 5, 68, 72
13, 87359, Note_on_c, 5, 68, 0
13, 87360, Note_on_c, 5, 67, 72
13, 87599, Note_on_c, 5, 67, 0
13, 88200, Note_on_c, 5, 62, 72
13, 88319, Note_on_c, 5, 62, 0
13, 88320, Note_on_c, 5, 62, 72
13, 88439, Note_on_c, 5, 62, 0
13, 88440, Note_on_c, 5, 62, 72
13, 88559, Note_on_c, 5, 62, 0
13, 88560, Note_on_c, 5, 63, 72
13, 88619, Note_on_c, 5, 63, 0
13, 88620, Note_on_c, 5, 65, 72
13, 88679, Note_on_c, 5, 65, 0
13, 88680, Note_on_c, 5, 63, 72
13, 88739, Note_on_c, 5, 63, 0
13, 88740, Note_on_c, 5, 62, 72
13, 88799, Note_on_c, 5, 62, 0
13, 88800, Note_on_c, 5, 63, 72
13, 88859, Note_on_c, 5, 63, 0
13, 88860, Note_on_c, 5, 65, 72
13, 88919, Note_on_c, 5, 65, 0
13, 88920, Note_on_c, 5, 62, 72
13, 88979, Note_on_c, 5, 62, 0
13, 88980, Note_on_c, 5, 63, 72
13, 89039, Note_on_c, 5, 63, 0
13, 89040, Note_on_c, 5, 65, 72
13, 89099, Note_on_c, 5, 65, 0
13, 89100, Note_on_c, 5, 67, 72
13, 89159, Note_on_c, 5, 67, 0
13, 89160, Note_on_c, 5, 65, 72
13, 89219, Note_on_c, 5, 65, 0
13, 89220, Note_on_c, 5, 63, 72
13, 89279, Note_on_c, 5, 63, 0
13, 89280, Note_on_c, 5, 65, 72
13, 89339, Note_on_c, 5, 65, 0
13, 89340, Note_on_c, 5, 67, 72
13, 89399, Note_on_c, 5, 67, 0
13, 89400, Note_on_c, 5, 63, 72
13, 89459, Note_on_c, 5, 63, 0
13, 89460, Note_on_c, 5, 65, 72
13, 89519, Note_on_c, 5, 65, 0
13, 89520, Note_on_c, 5, 67, 72
13, 89639, Note_on_c, 5, 67, 0
13, 89640, Note_on_c, 5, 68, 72
13, 89699, Note_on_c, 5, 68, 0
13, 89700, Note_on_c, 5, 67, 72
13, 89759, Note_on_c, 5, 67, 0
13, 89760, Note_on_c, 5, 65, 72
13, 89819, Note_on_c, 5, 65, 0
13, 89820, Note_on_c, 5, 63, 72
13, 89879, Note_on_c, 5, 63, 0
13, 89880, Note_on_c, 5, 62, 72
13, 89939, Note_on_c, 5, 62, 0
13, 89940, Note_on_c, 5, 60, 72
13, 89999, Note_on_c, 5, 60, 0
13, 90000, Note_on_c, 5, 59, 72
13, 90119, Note_on_c, 5, 59, 0
13, 90120, Note_on_c, 5, 62, 72
13, 90239, Note_on_c, 5, 62, 0
13, 90240, Note_on_c, 5, 67, 72
13, 90359, Note_on_c, 5, 67, 0
13, 90360, Note_on_c, 5, 65, 72
13, 90479, Note_on_c, 5, 65, 0
13, 90480, Note_on_c, 5, 63, 72
13, 90839, Note_on_c, 5, 63, 0
13, 90840, Note_on_c, 5, 62, 72
13, 90959, Note_on_c, 5, 62, 0
13, 90960, Note_on_c, 5, 60, 72
13, 91079, Note_on_c, 5, 60, 0
13, 91080, Note_on_c, 5, 65, 72
13, 91199, Note_on_c, 5, 65, 0
13, 91200, Note_on_c, 5, 67, 72
13, 91319, Note_on_c, 5, 67, 0
13, 91320, Note_on_c, 5, 69, 72
13, 91439, Note_on_c, 5, 69, 0
13, 91440, Note_on_c, 5, 70, 72
13, 91559, Note_on_c, 5, 70, 0
13, 91560, Note_on_c, 5, 58, 72
13, 91679, Note_on_c, 5, 58, 0
13, 91680, Note_on_c, 5, 63, 72
13, 91859, Note_on_c, 5, 63, 0
13, 91860, Note_on_c, 5, 62, 72
13, 91919, Note_on_c, 5, 62, 0
13, 91920, Note_on_c, 5, 60, 72
13, 92039, Note_on_c, 5, 60, 0
13, 92040, Note_on_c, 5, 60, 72
13, 92159, Note_on_c, 5, 60, 0
13, 92160, Note_on_c, 5, 65, 72
13, 92519, Note_on_c, 5, 65, 0
13, 92520, Note_on_c, 5, 63, 72
13, 92579, Note_on_c, 5, 63, 0
13, 92580, Note_on_c, 5, 62, 72
13, 92639, Note_on_c, 5, 62, 0
13, 92640, Note_on_c, 5, 63, 72
13, 92699, Note_on_c, 5, 63, 0
13, 92700, Note_on_c, 5, 65, 72
13, 92759, Note_on_c, 5, 65, 0
13, 92760, Note_on_c, 5, 62, 72
13, 92819, Note_on_c, 5, 62, 0
13, 92820, Note_on_c, 5, 63, 72
13, 92879, Note_on_c, 5, 63, 0
13, 92880, Note_on_c, 5, 60, 72
13, 92999, Note_on_c, 5, 60, 0
13, 93000, Note_on_c, 5, 62, 72
13, 93059, Note_on_c, 5, 62, 0
13, 93060, Note_on_c, 5, 63, 72
13, 93119, Note_on_c, 5, 63, 0
13, 93120, Note_on_c, 5, 65, 72
13, 93479, Note_on_c, 5, 65, 0
13, 93480, Note_on_c, 5, 58, 72
13, 93719, Note_on_c, 5, 58, 0
13, 93720, Note_on_c, 5, 67, 72
13, 93839, Note_on_c, 5, 67, 0
13, 93840, Note_on_c, 5, 65, 72
13, 94079, Note_on_c, 5, 65, 0
13, 95760, Note_on_c, 5, 72, 72
13, 96239, Note_on_c, 5, 72, 0
13, 96240, Note_on_c, 5, 68, 72
13, 96479, Note_on_c, 5, 68, 0
13, 96480, Note_on_c, 5, 73, 72
13, 96719, Note_on_c, 5, 73, 0
13, 96720, Note_on_c, 5, 64, 72
13, 97199, Note_on_c, 5, 64, 0
13, 97200, Note_on_c, 5, 65, 72
13, 97439, Note_on_c, 5, 65, 0
13, 98760, Note_on_c, 5, 62, 72
13, 98879, Note_on_c, 5, 62, 0
13, 98880, Note_on_c, 5, 62, 72
13, 98999, Note_on_c, 5, 62, 0
13, 99000, Note_on_c, 5, 62, 72
13, 99119, Note_on_c, 5, 62, 0
13, 99120, Note_on_c, 5, 63, 72
13, 99179, Note_on_c, 5, 63, 0
13, 99180, Note_on_c, 5, 65, 72
13, 99239, Note_on_c, 5, 65, 0
13, 99240, Note_on_c, 5, 63, 72
13, 99299, Note_on_c, 5, 63, 0
13, 99300, Note_on_c, 5, 62, 72
13, 99359, Note_on_c, 5, 62, 0
13, 99360, Note_on_c, 5, 64, 72
13, 99419, Note_on_c, 5, 64, 0
13, 99420, Note_on_c, 5, 65, 72
13, 99479, Note_on_c, 5, 65, 0
13, 99480, Note_on_c, 5, 62, 72
13, 99539, Note_on_c, 5, 62, 0
13, 99540, Note_on_c, 5, 64, 72
13, 99599, Note_on_c, 5, 64, 0
13, 99600, Note_on_c, 5, 65, 72
13, 99659, Note_on_c, 5, 65, 0
13, 99660, Note_on_c, 5, 67, 72
13, 99719, Note_on_c, 5, 67, 0
13, 99720, Note_on_c, 5, 65, 72
13, 99779, Note_on_c, 5, 65, 0
13, 99780, Note_on_c, 5, 64, 72
13, 99839, Note_on_c, 5, 64, 0
13, 99840, Note_on_c, 5, 66, 72
13, 99899, Note_on_c, 5, 66, 0
13, 99900, Note_on_c, 5, 67, 72
13, 99959, Note_on_c, 5, 67, 0
13, 99960, Note_on_c, 5, 64, 72
13, 100019, Note_on_c, 5, 64, 0
13, 100020, Note_on_c, 5, 66, 72
13, 100079, Note_on_c, 5, 66, 0
13, 100080, Note_on_c, 5, 67, 72
13, 100199, Note_on_c, 5, 67, 0
13, 100200, Note_on_c, 5, 62, 72
13, 100319, Note_on_c, 5, 62, 0
13, 100320, Note_on_c, 5, 67, 72
13, 100439, Note_on_c, 5, 67, 0
13, 100440, Note_on_c, 5, 65, 72
13, 100559, Note_on_c, 5, 65, 0
13, 100560, Note_on_c, 5, 64, 72
13, 100679, Note_on_c, 5, 64, 0
13, 100680, Note_on_c, 5, 57, 72
13, 100799, Note_on_c, 5, 57, 0
13, 100800, Note_on_c, 5, 69, 72
13, 100919, Note_on_c, 5, 69, 0
13, 100920, Note_on_c, 5, 67, 72
13, 101039, Note_on_c, 5, 67, 0
13, 101040, Note_on_c, 5, 65, 72
13, 101279, Note_on_c, 5, 65, 0
13, 101280, Note_on_c, 5, 69, 72
13, 101519, Note_on_c, 5, 69, 0
13, 101520, Note_on_c, 5, 62, 72
13, 101639, Note_on_c, 5, 62, 0
13, 101640, Note_on_c, 5, 71, 72
13, 101759, Note_on_c, 5, 71, 0
13, 101760, Note_on_c, 5, 71, 72
13, 101999, Note_on_c, 5, 71, 0
13, 102000, Note_on_c, 5, 64, 72
13, 102119, Note_on_c, 5, 64, 0
13, 102120, Note_on_c, 5, 61, 72
13, 102239, Note_on_c, 5, 61, 0
13, 102240, Note_on_c, 5, 62, 72
13, 102359, Note_on_c, 5, 62, 0
13, 102360, Note_on_c, 5, 64, 72
13, 102479, Note_on_c, 5, 64, 0
13, 102480, Note_on_c, 5, 65, 72
13, 102599, Note_on_c, 5, 65, 0
13, 102600, Note_on_c, 5, 64, 72
13, 102659, Note_on_c, 5, 64, 0
13, 102660, Note_on_c, 5, 65, 72
13, 102719, Note_on_c, 5, 65, 0
13, 102720, Note_on_c, 5, 67, 72
13, 102839, Note_on_c, 5, 67, 0
13, 102840, Note_on_c, 5, 65, 72
13, 102899, Note_on_c, 5, 65, 0
13, 102900, Note_on_c, 5, 67, 72
13, 102959, Note_on_c, 5, 67, 0
13, 102960, Note_on_c, 5, 69, 72
13, 103079, Note_on_c, 5, 69, 0
13, 103080, Note_on_c, 5, 70, 72
13, 103199, Note_on_c, 5, 70, 0
13, 103200, Note_on_c, 5, 69, 72
13, 103319, Note_on_c, 5, 69, 0
13, 103320, Note_on_c, 5, 67, 72
13, 103439, Note_on_c, 5, 67, 0
13, 103440, Note_on_c, 5, 65, 72
13, 103559, Note_on_c, 5, 65, 0
13, 103560, Note_on_c, 5, 69, 72
13, 103679, Note_on_c, 5, 69, 0
13, 103680, Note_on_c, 5, 74, 72
13, 104159, Note_on_c, 5, 74, 0
13, 104160, Note_on_c, 5, 73, 72
13, 104399, Note_on_c, 5, 73, 0
13, 105120, Note_on_c, 5, 70, 72
13, 105359, Note_on_c, 5, 70, 0
13, 105360, Note_on_c, 5, 70, 72
13, 105599, Note_on_c, 5, 70, 0
13, 105600, Note_on_c, 5, 69, 72
13, 105839, Note_on_c, 5, 69, 0
13, 105840, Note_on_c, 5, 69, 72
13, 106079, Note_on_c, 5, 69, 0
13, 106080, Note_on_c, 5, 68, 72
13, 106319, Note_on_c, 5, 68, 0
13, 106320, Note_on_c, 5, 69, 72
13, 106559, Note_on_c, 5, 69, 0
13, 106560, Note_on_c, 5, 69, 72
13, 106799, Note_on_c, 5, 69, 0
13, 106800, Note_on_c, 5, 65, 72
13, 107039, Note_on_c, 5, 65, 0
13, 107040, Note_on_c, 5, 70, 72
13, 107279, Note_on_c, 5, 70, 0
13, 107280, Note_on_c, 5, 61, 72
13, 107759, Note_on_c, 5, 61, 0
13, 107760, Note_on_c, 5, 62, 72
13, 107999, Note_on_c, 5, 62, 0
13, 108000, Note_on_c, 5, 62, 72
13, 108119, Note_on_c, 5, 62, 0
13, 108120, Note_on_c, 5, 62, 72
13, 108239, Note_on_c, 5, 62, 0
13, 108240, Note_on_c, 5, 64, 72
13, 108599, Note_on_c, 5, 64, 0
13, 108600, Note_on_c, 5, 62, 72
13, 108659, Note_on_c, 5, 62, 0
13, 108660, Note_on_c, 5, 64, 72
13, 108719, Note_on_c, 5, 64, 0
13, 108720, Note_on_c, 5, 65, 72
13, 108959, Note_on_c, 5, 65, 0
13, 109320, Note_on_c, 5, 64, 72
13, 109439, Note_on_c, 5, 64, 0
13, 109440, Note_on_c, 5, 64, 72
13, 109559, Note_on_c, 5, 64, 0
13, 109560, Note_on_c, 5, 64, 72
13, 109679, Note_on_c, 5, 64, 0
13, 109680, Note_on_c, 5, 65, 72
13, 109739, Note_on_c, 5, 65, 0
13, 109740, Note_on_c, 5, 67, 72
13, 109799, Note_on_c, 5, 67, 0
13, 109800, Note_on_c, 5, 65, 72
13, 109859, Note_on_c, 5, 65, 0
13, 109860, Note_on_c, 5, 64, 72
13, 109919, Note_on_c, 5, 64, 0
13, 109920, Note_on_c, 5, 66, 72
13, 109979, Note_on_c, 5, 66, 0
13, 109980, Note_on_c, 5, 67, 72
13, 110039, Note_on_c, 5, 67, 0
13, 110040, Note_on_c, 5, 64, 72
13, 110099, Note_on_c, 5, 64, 0
13, 110100, Note_on_c, 5, 66, 72
13, 110159, Note_on_c, 5, 66, 0
13, 110160, Note_on_c, 5, 67, 72
13, 110219, Note_on_c, 5, 67, 0
13, 110220, Note_on_c, 5, 69, 72
13, 110279, Note_on_c, 5, 69, 0
13, 110280, Note_on_c, 5, 67, 72
13, 110339, Note_on_c, 5, 67, 0
13, 110340, Note_on_c, 5, 66, 72
13, 110399, Note_on_c, 5, 66, 0
13, 110400, Note_on_c, 5, 68, 72
13, 110459, Note_on_c, 5, 68, 0
13, 110460, Note_on_c, 5, 69, 72
13, 110519, Note_on_c, 5, 69, 0
13, 110520, Note_on_c, 5, 65, 72
13, 110579, Note_on_c, 5, 65, 0
13, 110580, Note_on_c, 5, 68, 72
13, 110639, Note_on_c, 5, 68, 0
13, 110640, Note_on_c, 5, 69, 72
13, 110879, Note_on_c, 5, 69, 0
13, 110880, Note_on_c, 5, 69, 72
13, 111119, Note_on_c, 5, 69, 0
13, 111120, Note_on_c, 5, 67, 72
13, 111359, Note_on_c, 5, 67, 0
13, 111360, Note_on_c, 5, 71, 72
13, 111599, Note_on_c, 5, 71, 0
13, 111600, Note_on_c, 5, 69, 72
13, 111719, Note_on_c, 5, 69, 0
13, 111720, Note_on_c, 5, 67, 72
13, 111839, Note_on_c, 5, 67, 0
13, 111840, Note_on_c, 5, 65, 72
13, 111959, Note_on_c, 5, 65, 0
13, 111960, Note_on_c, 5, 70, 72
13, 112079, Note_on_c, 5, 70, 0
13, 112080, Note_on_c, 5, 69, 72
13, 112559, Note_on_c, 5, 69, 0
13, 112560, Note_on_c, 5, 71, 72
13, 113039, Note_on_c, 5, 71, 0
13, 113280, Note_on_c, 5, 71, 72
13, 113459, Note_on_c, 5, 71, 0
13, 113460, Note_on_c, 5, 71, 72
13, 113519, Note_on_c, 5, 71, 0
13, 113520, Note_on_c, 5, 69, 72
13, 114239, Note_on_c, 5, 69, 0
13, 114240, Note_on_c, 5, 69, 72
13, 114479, Note_on_c, 5, 69, 0
13, 114480, Note_on_c, 5, 69, 72
13, 115439, Note_on_c, 5, 69, 0
13, 115439, End_track
14, 0, Start_track
14, 0, Title_t, "Viola"
14, 0, MIDI_port, 0
14, 0, Program_c, 6, 48
14, 0, Control_c, 6, 7, 96
14, 0, Control_c, 6, 10, 80
14, 0, Control_c, 6, 11, 127
14, 0, Note_on_c, 6, 53, 66
14, 0, Note_on_c, 6, 57, 66
14, 119, Note_on_c, 6, 53, 0
14, 119, Note_on_c, 6, 57, 0
14, 120, Note_on_c, 6, 53, 66
14, 120, Note_on_c, 6, 57, 66
14, 239, Note_on_c, 6, 53, 0
14, 239, Note_on_c, 6, 57, 0
14, 240, Note_on_c, 6, 53, 48
14, 240, Note_on_c, 6, 57, 48
14, 359, Note_on_c, 6, 53, 0
14, 359, Note_on_c, 6, 57, 0
14, 360, Note_on_c, 6, 57, 48
14, 360, Note_on_c, 6, 53, 48
14, 479, Note_on_c, 6, 57, 0
14, 479, Note_on_c, 6, 53, 0
14, 480, Note_on_c, 6, 57, 48
14, 480, Note_on_c, 6, 53, 48
14, 599, Note_on_c, 6, 57, 0
14, 599, Note_on_c, 6, 53, 0
14, 600, Note_on_c, 6, 53, 48
14, 600, Note_on_c, 6, 57, 48
14, 719, Note_on_c, 6, 53, 0
14, 719, Note_on_c, 6, 57, 0
14, 720, Note_on_c, 6, 53, 66
14, 720, Note_on_c, 6, 57, 66
14, 839, Note_on_c, 6, 53, 0
14, 839, Note_on_c, 6, 57, 0
14, 840, Note_on_c, 6, 57, 66
14, 840, Note_on_c, 6, 53, 66
14, 959, Note_on_c, 6, 57, 0
14, 959, Note_on_c, 6, 53, 0
14, 960, Note_on_c, 6, 57, 48
14, 960, Note_on_c, 6, 53, 48
14, 1079, Note_on_c, 6, 57, 0
14, 1079, Note_on_c, 6, 53, 0
14, 1080, Note_on_c, 6, 53, 48
14, 1080, Note_on_c, 6, 57, 48
14, 1199, Note_on_c, 6, 53, 0
14, 1199, Note_on_c, 6, 57, 0
14, 1200, Note_on_c, 6, 57, 48
14, 1200, Note_on_c, 6, 53, 48
14, 1319, Note_on_c, 6, 57, 0
14, 1319, Note_on_c, 6, 53, 0
14, 1320, Note_on_c, 6, 53, 48
14, 1320, Note_on_c, 6, 57, 48
14, 1439, Note_on_c, 6, 53, 0
14, 1439, Note_on_c, 6, 57, 0
14, 1440, Note_on_c, 6, 52, 66
14, 1440, Note_on_c, 6, 55, 66
14, 1559, Note_on_c, 6, 52, 0
14, 1559, Note_on_c, 6, 55, 0
14, 1560, Note_on_c, 6, 52, 66
14, 1560, Note_on_c, 6, 55, 66
14, 1679, Note_on_c, 6, 52, 0
14, 1679, Note_on_c, 6, 55, 0
14, 1680, Note_on_c, 6, 52, 48
14, 1680, Note_on_c, 6, 55, 48
14, 1799, Note_on_c, 6, 52, 0
14, 1799, Note_on_c, 6, 55, 0
14, 1800, Note_on_c, 6, 55, 48
14, 1800, Note_on_c, 6, 52, 48
14, 1919, Note_on_c, 6, 55, 0
14, 1919, Note_on_c, 6, 52, 0
14, 1920, Note_on_c, 6, 52, 48
14, 1920, Note_on_c, 6, 55, 48
14, 2039, Note_on_c, 6, 52, 0
14, 2039, Note_on_c, 6, 55, 0
14, 2040, Note_on_c, 6, 55, 48
14, 2040, Note_on_c, 6, 52, 48
14, 2159, Note_on_c, 6, 55, 0
14, 2159, Note_on_c, 6, 52, 0
14, 2160, Note_on_c, 6, 53, 66
14, 2279, Note_on_c, 6, 53, 0
14, 2280, Note_on_c, 6, 53, 66
14, 2399, Note_on_c, 6, 53, 0
14, 2400, Note_on_c, 6, 53, 48
14, 2519, Note_on_c, 6, 53, 0
14, 2520, Note_on_c, 6, 53, 48
14, 2639, Note_on_c, 6, 53, 0
14, 2640, Note_on_c, 6, 53, 48
14, 2759, Note_on_c, 6, 53, 0
14, 2760, Note_on_c, 6, 53, 48
14, 2879, Note_on_c, 6, 53, 0
14, 2880, Note_on_c, 6, 55, 66
14, 2880, Note_on_c, 6, 58, 66
14, 2999, Note_on_c, 6, 55, 0
14, 2999, Note_on_c, 6, 58, 0
14, 3000, Note_on_c, 6, 55, 66
14, 3000, Note_on_c, 6, 58, 66
14, 3119, Note_on_c, 6, 55, 0
14, 3119, Note_on_c, 6, 58, 0
14, 3120, Note_on_c, 6, 58, 48
14, 3120, Note_on_c, 6, 55, 48
14, 3239, Note_on_c, 6, 58, 0
14, 3239, Note_on_c, 6, 55, 0
14, 3240, Note_on_c, 6, 58, 48
14, 3240, Note_on_c, 6, 55, 48
14, 3359, Note_on_c, 6, 58, 0
14, 3359, Note_on_c, 6, 55, 0
14, 3360, Note_on_c, 6, 58, 48
14, 3360, Note_on_c, 6, 55, 48
14, 3479, Note_on_c, 6, 58, 0
14, 3479, Note_on_c, 6, 55, 0
14, 3480, Note_on_c, 6, 55, 48
14, 3480, Note_on_c, 6, 58, 48
14, 3599, Note_on_c, 6, 55, 0
14, 3599, Note_on_c, 6, 58, 0
14, 3600, Note_on_c, 6, 57, 66
14, 3600, Note_on_c, 6, 53, 66
14, 3719, Note_on_c, 6, 57, 0
14, 3719, Note_on_c, 6, 53, 0
14, 3720, Note_on_c, 6, 57, 66
14, 3720, Note_on_c, 6, 53, 66
14, 3839, Note_on_c, 6, 57, 0
14, 3839, Note_on_c, 6, 53, 0
14, 3840, Note_on_c, 6, 53, 48
14, 3840, Note_on_c, 6, 57, 48
14, 3959, Note_on_c, 6, 53, 0
14, 3959, Note_on_c, 6, 57, 0
14, 3960, Note_on_c, 6, 53, 48
14, 3960, Note_on_c, 6, 57, 48
14, 4079, Note_on_c, 6, 53, 0
14, 4079, Note_on_c, 6, 57, 0
14, 4080, Note_on_c, 6, 53, 48
14, 4080, Note_on_c, 6, 57, 48
14, 4199, Note_on_c, 6, 53, 0
14, 4199, Note_on_c, 6, 57, 0
14, 4200, Note_on_c, 6, 53, 48
14, 4200, Note_on_c, 6, 57, 48
14, 4319, Note_on_c, 6, 53, 0
14, 4319, Note_on_c, 6, 57, 0
14, 4320, Note_on_c, 6, 58, 66
14, 4320, Note_on_c, 6, 55, 66
14, 4439, Note_on_c, 6, 58, 0
14, 4439, Note_on_c, 6, 55, 0
14, 4440, Note_on_c, 6, 55, 66
14, 4440, Note_on_c, 6, 58, 66
14, 4559, Note_on_c, 6, 55, 0
14, 4559, Note_on_c, 6, 58, 0
14, 4560, Note_on_c, 6, 55, 48
14, 4560, Note_on_c, 6, 58, 48
14, 4679, Note_on_c, 6, 55, 0
14, 4679, Note_on_c, 6, 58, 0
14, 4680, Note_on_c, 6, 58, 48
14, 4680, Note_on_c, 6, 55, 48
14, 4799, Note_on_c, 6, 58, 0
14, 4799, Note_on_c, 6, 55, 0
14, 4800, Note_on_c, 6, 55, 48
14, 4800, Note_on_c, 6, 58, 48
14, 4919, Note_on_c, 6, 55, 0
14, 4919, Note_on_c, 6, 58, 0
14, 4920, Note_on_c, 6, 55, 48
14, 4920, Note_on_c, 6, 58, 48
14, 5039, Note_on_c, 6, 55, 0
14, 5039, Note_on_c, 6, 58, 0
14, 5040, Note_on_c, 6, 59, 84
14, 5159, Note_on_c, 6, 59, 0
14, 5160, Note_on_c, 6, 59, 84
14, 5279, Note_on_c, 6, 59, 0
14, 5280, Note_on_c, 6, 59, 84
14, 5399, Note_on_c, 6, 59, 0
14, 5400, Note_on_c, 6, 65, 84
14, 5519, Note_on_c, 6, 65, 0
14, 5520, Note_on_c, 6, 65, 84
14, 5639, Note_on_c, 6, 65, 0
14, 5640, Note_on_c, 6, 65, 84
14, 5759, Note_on_c, 6, 65, 0
14, 5760, Note_on_c, 6, 64, 84
14, 5999, Note_on_c, 6, 64, 0
14, 7440, Note_on_c, 6, 53, 48
14, 7679, Note_on_c, 6, 53, 0
14, 7680, Note_on_c, 6, 53, 48
14, 7919, Note_on_c, 6, 53, 0
14, 7920, Note_on_c, 6, 53, 48
14, 8039, Note_on_c, 6, 53, 0
14, 8040, Note_on_c, 6, 54, 48
14, 8159, Note_on_c, 6, 54, 0
14, 8160, Note_on_c, 6, 55, 48
14, 8279, Note_on_c, 6, 55, 0
14, 8280, Note_on_c, 6, 57, 48
14, 8399, Note_on_c, 6, 57, 0
14, 8400, Note_on_c, 6, 58, 48
14, 8519, Note_on_c, 6, 58, 0
14, 8520, Note_on_c, 6, 62, 48
14, 8639, Note_on_c, 6, 62, 0
14, 8640, Note_on_c, 6, 60, 48
14, 8759, Note_on_c, 6, 60, 0
14, 8760, Note_on_c, 6, 60, 48
14, 8879, Note_on_c, 6, 60, 0
14, 8880, Note_on_c, 6, 60, 48
14, 8999, Note_on_c, 6, 60, 0
14, 9000, Note_on_c, 6, 60, 48
14, 9119, Note_on_c, 6, 60, 0
14, 9120, Note_on_c, 6, 52, 48
14, 9239, Note_on_c, 6, 52, 0
14, 9240, Note_on_c, 6, 52, 48
14, 9359, Note_on_c, 6, 52, 0
14, 9360, Note_on_c, 6, 53, 48
14, 9599, Note_on_c, 6, 53, 0
14, 11520, Note_on_c, 6, 57, 66
14, 11639, Note_on_c, 6, 57, 0
14, 11640, Note_on_c, 6, 57, 66
14, 11759, Note_on_c, 6, 57, 0
14, 11760, Note_on_c, 6, 57, 48
14, 11879, Note_on_c, 6, 57, 0
14, 11880, Note_on_c, 6, 57, 48
14, 11999, Note_on_c, 6, 57, 0
14, 12000, Note_on_c, 6, 57, 48
14, 12119, Note_on_c, 6, 57, 0
14, 12120, Note_on_c, 6, 57, 48
14, 12239, Note_on_c, 6, 57, 0
14, 12240, Note_on_c, 6, 57, 66
14, 12359, Note_on_c, 6, 57, 0
14, 12360, Note_on_c, 6, 57, 66
14, 12479, Note_on_c, 6, 57, 0
14, 12480, Note_on_c, 6, 57, 48
14, 12599, Note_on_c, 6, 57, 0
14, 12600, Note_on_c, 6, 57, 48
14, 12719, Note_on_c, 6, 57, 0
14, 12720, Note_on_c, 6, 57, 48
14, 12839, Note_on_c, 6, 57, 0
14, 12840, Note_on_c, 6, 57, 48
14, 12959, Note_on_c, 6, 57, 0
14, 12960, Note_on_c, 6, 57, 66
14, 13079, Note_on_c, 6, 57, 0
14, 13080, Note_on_c, 6, 57, 66
14, 13199, Note_on_c, 6, 57, 0
14, 13200, Note_on_c, 6, 57, 48
14, 13319, Note_on_c, 6, 57, 0
14, 13320, Note_on_c, 6, 57, 48
14, 13439, Note_on_c, 6, 57, 0
14, 13440, Note_on_c, 6, 57, 48
14, 13559, Note_on_c, 6, 57, 0
14, 13560, Note_on_c, 6, 57, 48
14, 13679, Note_on_c, 6, 57, 0
14, 13680, Note_on_c, 6, 59, 66
14, 13799, Note_on_c, 6, 59, 0
14, 13800, Note_on_c, 6, 58, 66
14, 13919, Note_on_c, 6, 58, 0
14, 13920, Note_on_c, 6, 58, 48
14, 14039, Note_on_c, 6, 58, 0
14, 14040, Note_on_c, 6, 62, 48
14, 14159, Note_on_c, 6, 62, 0
14, 14160, Note_on_c, 6, 62, 48
14, 14279, Note_on_c, 6, 62, 0
14, 14280, Note_on_c, 6, 62, 48
14, 14399, Note_on_c, 6, 62, 0
14, 14400, Note_on_c, 6, 64, 66
14, 14519, Note_on_c, 6, 64, 0
14, 14520, Note_on_c, 6, 64, 66
14, 14639, Note_on_c, 6, 64, 0
14, 14640, Note_on_c, 6, 64, 48
14, 14759, Note_on_c, 6, 64, 0
14, 14760, Note_on_c, 6, 64, 48
14, 14879, Note_on_c, 6, 64, 0
14, 14880, Note_on_c, 6, 64, 48
14, 14999, Note_on_c, 6, 64, 0
14, 15000, Note_on_c, 6, 64, 48
14, 15119, Note_on_c, 6, 64, 0
14, 15120, Note_on_c, 6, 64, 66
14, 15239, Note_on_c, 6, 64, 0
14, 15240, Note_on_c, 6, 64, 66
14, 15359, Note_on_c, 6, 64, 0
14, 15360, Note_on_c, 6, 64, 48
14, 15479, Note_on_c, 6, 64, 0
14, 15480, Note_on_c, 6, 64, 48
14, 15599, Note_on_c, 6, 64, 0
14, 15600, Note_on_c, 6, 65, 48
14, 15719, Note_on_c, 6, 65, 0
14, 15720, Note_on_c, 6, 65, 48
14, 15839, Note_on_c, 6, 65, 0
14, 15840, Note_on_c, 6, 66, 84
14, 15959, Note_on_c, 6, 66, 0
14, 15960, Note_on_c, 6, 66, 84
14, 16079, Note_on_c, 6, 66, 0
14, 16080, Note_on_c, 6, 66, 84
14, 16199, Note_on_c, 6, 66, 0
14, 16200, Note_on_c, 6, 66, 84
14, 16319, Note_on_c, 6, 66, 0
14, 16320, Note_on_c, 6, 66, 84
14, 16439, Note_on_c, 6, 66, 0
14, 16440, Note_on_c, 6, 66, 84
14, 16559, Note_on_c, 6, 66, 0
14, 16560, Note_on_c, 6, 64, 84
14, 16799, Note_on_c, 6, 64, 0
14, 16800, Note_on_c, 6, 52, 84
14, 17039, Note_on_c, 6, 52, 0
14, 17280, Note_on_c, 6, 55, 48
14, 17519, Note_on_c, 6, 55, 0
14, 18240, Note_on_c, 6, 59, 48
14, 18479, Note_on_c, 6, 59, 0
14, 18480, Note_on_c, 6, 62, 48
14, 18719, Note_on_c, 6, 62, 0
14, 18720, Note_on_c, 6, 62, 48
14, 18959, Note_on_c, 6, 62, 0
14, 18960, Note_on_c, 6, 60, 48
14, 19079, Note_on_c, 6, 60, 0
14, 19080, Note_on_c, 6, 59, 48
14, 19199, Note_on_c, 6, 59, 0
14, 19200, Note_on_c, 6, 60, 48
14, 19439, Note_on_c, 6, 60, 0
14, 19440, Note_on_c, 6, 57, 48
14, 19919, Note_on_c, 6, 57, 0
14, 19920, Note_on_c, 6, 57, 48
14, 20159, Note_on_c, 6, 57, 0
14, 20160, Note_on_c, 6, 56, 48
14, 20399, Note_on_c, 6, 56, 0
14, 20400, Note_on_c, 6, 55, 48
14, 20639, Note_on_c, 6, 55, 0
14, 20640, Note_on_c, 6, 54, 48
14, 20879, Note_on_c, 6, 54, 0
14, 20880, Note_on_c, 6, 55, 48
14, 21359, Note_on_c, 6, 55, 0
14, 21360, Note_on_c, 6, 53, 48
14, 21599, Note_on_c, 6, 53, 0
14, 21600, Note_on_c, 6, 52, 48
14, 21839, Note_on_c, 6, 52, 0
14, 21840, Note_on_c, 6, 60, 48
14, 22079, Note_on_c, 6, 60, 0
14, 22080, Note_on_c, 6, 60, 48
14, 22319, Note_on_c, 6, 60, 0
14, 22320, Note_on_c, 6, 60, 48
14, 22439, Note_on_c, 6, 60, 0
14, 22440, Note_on_c, 6, 61, 48
14, 22559, Note_on_c, 6, 61, 0
14, 22560, Note_on_c, 6, 62, 48
14, 22679, Note_on_c, 6, 62, 0
14, 22680, Note_on_c, 6, 64, 48
14, 22799, Note_on_c, 6, 64, 0
14, 22800, Note_on_c, 6, 65, 48
14, 22919, Note_on_c, 6, 65, 0
14, 22920, Note_on_c, 6, 69, 48
14, 23039, Note_on_c, 6, 69, 0
14, 23040, Note_on_c, 6, 67, 48
14, 23159, Note_on_c, 6, 67, 0
14, 23160, Note_on_c, 6, 67, 48
14, 23279, Note_on_c, 6, 67, 0
14, 23280, Note_on_c, 6, 67, 48
14, 23399, Note_on_c, 6, 67, 0
14, 23400, Note_on_c, 6, 67, 48
14, 23519, Note_on_c, 6, 67, 0
14, 23520, Note_on_c, 6, 59, 48
14, 23639, Note_on_c, 6, 59, 0
14, 23640, Note_on_c, 6, 59, 48
14, 23759, Note_on_c, 6, 59, 0
14, 23760, Note_on_c, 6, 60, 48
14, 23999, Note_on_c, 6, 60, 0
14, 24480, Note_on_c, 6, 62, 72
14, 24480, Note_on_c, 6, 59, 72
14, 24599, Note_on_c, 6, 62, 0
14, 24599, Note_on_c, 6, 59, 0
14, 24600, Note_on_c, 6, 62, 72
14, 24600, Note_on_c, 6, 59, 72
14, 24719, Note_on_c, 6, 62, 0
14, 24719, Note_on_c, 6, 59, 0
14, 24720, Note_on_c, 6, 62, 72
14, 24720, Note_on_c, 6, 59, 72
14, 24839, Note_on_c, 6, 62, 0
14, 24839, Note_on_c, 6, 59, 0
14, 24840, Note_on_c, 6, 62, 72
14, 24840, Note_on_c, 6, 59, 72
14, 24959, Note_on_c, 6, 62, 0
14, 24959, Note_on_c, 6, 59, 0
14, 24960, Note_on_c, 6, 62, 72
14, 24960, Note_on_c, 6, 59, 72
14, 25079, Note_on_c, 6, 62, 0
14, 25079, Note_on_c, 6, 59, 0
14, 25080, Note_on_c, 6, 62, 72
14, 25080, Note_on_c, 6, 59, 72
14, 25199, Note_on_c, 6, 62, 0
14, 25199, Note_on_c, 6, 59, 0
14, 25200, Note_on_c, 6, 64, 72
14, 25200, Note_on_c, 6, 60, 72
14, 25319, Note_on_c, 6, 64, 0
14, 25319, Note_on_c, 6, 60, 0
14, 25320, Note_on_c, 6, 64, 72
14, 25320, Note_on_c, 6, 60, 72
14, 25439, Note_on_c, 6, 64, 0
14, 25439, Note_on_c, 6, 60, 0
14, 25440, Note_on_c, 6, 64, 72
14, 25440, Note_on_c, 6, 60, 72
14, 25559, Note_on_c, 6, 64, 0
14, 25559, Note_on_c, 6, 60, 0
14, 25560, Note_on_c, 6, 64, 72
14, 25560, Note_on_c, 6, 60, 72
14, 25679, Note_on_c, 6, 64, 0
14, 25679, Note_on_c, 6, 60, 0
14, 25680, Note_on_c, 6, 64, 72
14, 25680, Note_on_c, 6, 60, 72
14, 25799, Note_on_c, 6, 64, 0
14, 25799, Note_on_c, 6, 60, 0
14, 25800, Note_on_c, 6, 64, 72
14, 25800, Note_on_c, 6, 60, 72
14, 25919, Note_on_c, 6, 64, 0
14, 25919, Note_on_c, 6, 60, 0
14, 25920, Note_on_c, 6, 62, 72
14, 25920, Note_on_c, 6, 59, 72
14, 26039, Note_on_c, 6, 62, 0
14, 26039, Note_on_c, 6, 59, 0
14, 26040, Note_on_c, 6, 62, 72
14, 26040, Note_on_c, 6, 59, 72
14, 26159, Note_on_c, 6, 62, 0
14, 26159, Note_on_c, 6, 59, 0
14, 26160, Note_on_c, 6, 62, 72
14, 26160, Note_on_c, 6, 59, 72
14, 26279, Note_on_c, 6, 62, 0
14, 26279, Note_on_c, 6, 59, 0
14, 26280, Note_on_c, 6, 62, 72
14, 26280, Note_on_c, 6, 59, 72
14, 26399, Note_on_c, 6, 62, 0
14, 26399, Note_on_c, 6, 59, 0
14, 26400, Note_on_c, 6, 62, 72
14, 26400, Note_on_c, 6, 59, 72
14, 26519, Note_on_c, 6, 62, 0
14, 26519, Note_on_c, 6, 59, 0
14, 26520, Note_on_c, 6, 62, 72
14, 26520, Note_on_c, 6, 59, 72
14, 26639, Note_on_c, 6, 62, 0
14, 26639, Note_on_c, 6, 59, 0
14, 26640, Note_on_c, 6, 62, 72
14, 26640, Note_on_c, 6, 58, 72
14, 26759, Note_on_c, 6, 62, 0
14, 26759, Note_on_c, 6, 58, 0
14, 26760, Note_on_c, 6, 62, 72
14, 26760, Note_on_c, 6, 58, 72
14, 26879, Note_on_c, 6, 62, 0
14, 26879, Note_on_c, 6, 58, 0
14, 26880, Note_on_c, 6, 62, 72
14, 26880, Note_on_c, 6, 58, 72
14, 26999, Note_on_c, 6, 62, 0
14, 26999, Note_on_c, 6, 58, 0
14, 27000, Note_on_c, 6, 62, 72
14, 27000, Note_on_c, 6, 58, 72
14, 27119, Note_on_c, 6, 62, 0
14, 27119, Note_on_c, 6, 58, 0
14, 27120, Note_on_c, 6, 62, 72
14, 27120, Note_on_c, 6, 58, 72
14, 27239, Note_on_c, 6, 62, 0
14, 27239, Note_on_c, 6, 58, 0
14, 27240, Note_on_c, 6, 62, 72
14, 27240, Note_on_c, 6, 58, 72
14, 27359, Note_on_c, 6, 62, 0
14, 27359, Note_on_c, 6, 58, 0
14, 27360, Note_on_c, 6, 63, 72
14, 27479, Note_on_c, 6, 63, 0
14, 27480, Note_on_c, 6, 63, 72
14, 27599, Note_on_c, 6, 63, 0
14, 27600, Note_on_c, 6, 63, 72
14, 27719, Note_on_c, 6, 63, 0
14, 27720, Note_on_c, 6, 63, 72
14, 27839, Note_on_c, 6, 63, 0
14, 27840, Note_on_c, 6, 67, 72
14, 27959, Note_on_c, 6, 67, 0
14, 27960, Note_on_c, 6, 67, 72
14, 28079, Note_on_c, 6, 67, 0
14, 28080, Note_on_c, 6, 60, 72
14, 28199, Note_on_c, 6, 60, 0
14, 28200, Note_on_c, 6, 60, 72
14, 28319, Note_on_c, 6, 60, 0
14, 28320, Note_on_c, 6, 60, 72
14, 28439, Note_on_c, 6, 60, 0
14, 28440, Note_on_c, 6, 60, 72
14, 28559, Note_on_c, 6, 60, 0
14, 28560, Note_on_c, 6, 60, 72
14, 28679, Note_on_c, 6, 60, 0
14, 28680, Note_on_c, 6, 60, 72
14, 28799, Note_on_c, 6, 60, 0
14, 28800, Note_on_c, 6, 58, 72
14, 29039, Note_on_c, 6, 58, 0
14, 29760, Note_on_c, 6, 58, 48
14, 29999, Note_on_c, 6, 58, 0
14, 30000, Note_on_c, 6, 58, 48
14, 30239, Note_on_c, 6, 58, 0
14, 30240, Note_on_c, 6, 58, 48
14, 30359, Note_on_c, 6, 58, 0
14, 30360, Note_on_c, 6, 59, 48
14, 30479, Note_on_c, 6, 59, 0
14, 30480, Note_on_c, 6, 60, 48
14, 30599, Note_on_c, 6, 60, 0
14, 30600, Note_on_c, 6, 62, 48
14, 30719, Note_on_c, 6, 62, 0
14, 30720, Note_on_c, 6, 63, 48
14, 30839, Note_on_c, 6, 63, 0
14, 30840, Note_on_c, 6, 67, 48
14, 30959, Note_on_c, 6, 67, 0
14, 30960, Note_on_c, 6, 65, 48
14, 31079, Note_on_c, 6, 65, 0
14, 31080, Note_on_c, 6, 65, 48
14, 31199, Note_on_c, 6, 65, 0
14, 31200, Note_on_c, 6, 65, 48
14, 31319, Note_on_c, 6, 65, 0
14, 31320, Note_on_c, 6, 65, 48
14, 31439, Note_on_c, 6, 65, 0
14, 31440, Note_on_c, 6, 65, 48
14, 31440, Note_on_c, 6, 57, 48
14, 31559, Note_on_c, 6, 65, 0
14, 31559, Note_on_c, 6, 57, 0
14, 31560, Note_on_c, 6, 65, 48
14, 31560, Note_on_c, 6, 57, 48
14, 31679, Note_on_c, 6, 65, 0
14, 31679, Note_on_c, 6, 57, 0
14, 31680, Note_on_c, 6, 64, 48
14, 31680, Note_on_c, 6, 58, 48
14, 32399, Note_on_c, 6, 64, 0
14, 32399, Note_on_c, 6, 58, 0
14, 33360, Note_on_c, 6, 61, 48
14, 33599, Note_on_c, 6, 61, 0
14, 33600, Note_on_c, 6, 61, 48
14, 33839, Note_on_c, 6, 61, 0
14, 33840, Note_on_c, 6, 61, 48
14, 33959, Note_on_c, 6, 61, 0
14, 33960, Note_on_c, 6, 61, 54
14, 34199, Note_on_c, 6, 61, 0
14, 34200, Note_on_c, 6, 61, 57
14, 34439, Note_on_c, 6, 61, 0
14, 34440, Note_on_c, 6, 61, 60
14, 34679, Note_on_c, 6, 61, 0
14, 34680, Note_on_c, 6, 61, 63
14, 34919, Note_on_c, 6, 61, 0
14, 34920, Note_on_c, 6, 61, 66
14, 35159, Note_on_c, 6, 61, 0
14, 35160, Note_on_c, 6, 61, 69
14, 35399, Note_on_c, 6, 61, 0
14, 35400, Note_on_c, 6, 61, 72
14, 35519, Note_on_c, 6, 61, 0
14, 35520, Note_on_c, 6, 60, 72
14, 35639, Note_on_c, 6, 60, 0
14, 35640, Note_on_c, 6, 60, 72
14, 35759, Note_on_c, 6, 60, 0
14, 35760, Note_on_c, 6, 58, 72
14, 35879, Note_on_c, 6, 58, 0
14, 35880, Note_on_c, 6, 58, 72
14, 35999, Note_on_c, 6, 58, 0
14, 36000, Note_on_c, 6, 60, 72
14, 36719, Note_on_c, 6, 60, 0
14, 36840, Note_on_c, 6, 58, 48
14, 36959, Note_on_c, 6, 58, 0
14, 37080, Note_on_c, 6, 58, 48
14, 37199, Note_on_c, 6, 58, 0
14, 37320, Note_on_c, 6, 60, 48
14, 37439, Note_on_c, 6, 60, 0
14, 37560, Note_on_c, 6, 60, 48
14, 37679, Note_on_c, 6, 60, 0
14, 37680, Note_on_c, 6, 58, 48
14, 37919, Note_on_c, 6, 58, 0
14, 37920, Note_on_c, 6, 57, 48
14, 38159, Note_on_c, 6, 57, 0
14, 38160, Note_on_c, 6, 58, 48
14, 38279, Note_on_c, 6, 58, 0
14, 38280, Note_on_c, 6, 55, 48
14, 38399, Note_on_c, 6, 55, 0
14, 38400, Note_on_c, 6, 51, 48
14, 38519, Note_on_c, 6, 51, 0
14, 38520, Note_on_c, 6, 53, 48
14, 38639, Note_on_c, 6, 53, 0
14, 38640, Note_on_c, 6, 58, 48
14, 38879, Note_on_c, 6, 58, 0
14, 39240, Note_on_c, 6, 62, 48
14, 39419, Note_on_c, 6, 62, 0
14, 39420, Note_on_c, 6, 63, 48
14, 39479, Note_on_c, 6, 63, 0
14, 39480, Note_on_c, 6, 62, 48
14, 39539, Note_on_c, 6, 62, 0
14, 39540, Note_on_c, 6, 60, 48
14, 39599, Note_on_c, 6, 60, 0
14, 39600, Note_on_c, 6, 58, 48
14, 39659, Note_on_c, 6, 58, 0
14, 39660, Note_on_c, 6, 57, 48
14, 39719, Note_on_c, 6, 57, 0
14, 39720, Note_on_c, 6, 55, 48
14, 39779, Note_on_c, 6, 55, 0
14, 39780, Note_on_c, 6, 53, 48
14, 39839, Note_on_c, 6, 53, 0
14, 39840, Note_on_c, 6, 51, 48
14, 40079, Note_on_c, 6, 51, 0
14, 40080, Note_on_c, 6, 53, 48
14, 40319, Note_on_c, 6, 53, 0
14, 40440, Note_on_c, 6, 65, 48
14, 40619, Note_on_c, 6, 65, 0
14, 40620, Note_on_c, 6, 67, 48
14, 40679, Note_on_c, 6, 67, 0
14, 40680, Note_on_c, 6, 65, 48
14, 40739, Note_on_c, 6, 65, 0
14, 40740, Note_on_c, 6, 63, 48
14, 40799, Note_on_c, 6, 63, 0
14, 40800, Note_on_c, 6, 62, 48
14, 40859, Note_on_c, 6, 62, 0
14, 40860, Note_on_c, 6, 63, 48
14, 40919, Note_on_c, 6, 63, 0
14, 40920, Note_on_c, 6, 62, 48
14, 40979, Note_on_c, 6, 62, 0
14, 40980, Note_on_c, 6, 60, 48
14, 41039, Note_on_c, 6, 60, 0
14, 41040, Note_on_c, 6, 58, 48
14, 41099, Note_on_c, 6, 58, 0
14, 41100, Note_on_c, 6, 72, 48
14, 41159, Note_on_c, 6, 72, 0
14, 41160, Note_on_c, 6, 70, 48
14, 41219, Note_on_c, 6, 70, 0
14, 41220, Note_on_c, 6, 69, 48
14, 41279, Note_on_c, 6, 69, 0
14, 41280, Note_on_c, 6, 67, 48
14, 41339, Note_on_c, 6, 67, 0
14, 41340, Note_on_c, 6, 69, 48
14, 41399, Note_on_c, 6, 69, 0
14, 41400, Note_on_c, 6, 67, 48
14, 41459, Note_on_c, 6, 67, 0
14, 41460, Note_on_c, 6, 65, 48
14, 41519, Note_on_c, 6, 65, 0
14, 41520, Note_on_c, 6, 64, 48
14, 41759, Note_on_c, 6, 64, 0
14, 41760, Note_on_c, 6, 65, 48
14, 41999, Note_on_c, 6, 65, 0
14, 42600, Note_on_c, 6, 62, 48
14, 42779, Note_on_c, 6, 62, 0
14, 42780, Note_on_c, 6, 63, 48
14, 42839, Note_on_c, 6, 63, 0
14, 42840, Note_on_c, 6, 62, 48
14, 42899, Note_on_c, 6, 62, 0
14, 42900, Note_on_c, 6, 60, 48
14, 42959, Note_on_c, 6, 60, 0
14, 42960, Note_on_c, 6, 58, 48
14, 43019, Note_on_c, 6, 58, 0
14, 43020, Note_on_c, 6, 57, 48
14, 43079, Note_on_c, 6, 57, 0
14, 43080, Note_on_c, 6, 58, 48
14, 43139, Note_on_c, 6, 58, 0
14, 43140, Note_on_c, 6, 60, 48
14, 43199, Note_on_c, 6, 60, 0
14, 43200, Note_on_c, 6, 62, 48
14, 43679, Note_on_c, 6, 62, 0
14, 43770, Note_on_c, 6, 58, 72
14, 43799, Note_on_c, 6, 58, 0
14, 43800, Note_on_c, 6, 67, 72
14, 43889, Note_on_c, 6, 67, 0
14, 43890, Note_on_c, 6, 63, 72
14, 43919, Note_on_c, 6, 63, 0
14, 43920, Note_on_c, 6, 65, 72
14, 44159, Note_on_c, 6, 65, 0
14, 44250, Note_on_c, 6, 69, 72
14, 44279, Note_on_c, 6, 69, 0
14, 44280, Note_on_c, 6, 72, 72
14, 44369, Note_on_c, 6, 72, 0
14, 44370, Note_on_c, 6, 69, 72
14, 44399, Note_on_c, 6, 69, 0
14, 44400, Note_on_c, 6, 65, 72
14, 44639, Note_on_c, 6, 65, 0
14, 44730, Note_on_c, 6, 62, 72
14, 44759, Note_on_c, 6, 62, 0
14, 44760, Note_on_c, 6, 65, 72
14, 44849, Note_on_c, 6, 65, 0
14, 44850, Note_on_c, 6, 62, 72
14, 44879, Note_on_c, 6, 62, 0
14, 44880, Note_on_c, 6, 69, 72
14, 45119, Note_on_c, 6, 69, 0
14, 45210, Note_on_c, 6, 66, 72
14, 45239, Note_on_c, 6, 66, 0
14, 45240, Note_on_c, 6, 69, 72
14, 45329, Note_on_c, 6, 69, 0
14, 45330, Note_on_c, 6, 66, 72
14, 45359, Note_on_c, 6, 66, 0
14, 45360, Note_on_c, 6, 70, 72
14, 45599, Note_on_c, 6, 70, 0
14, 45690, Note_on_c, 6, 58, 72
14, 45719, Note_on_c, 6, 58, 0
14, 45720, Note_on_c, 6, 62, 72
14, 45809, Note_on_c, 6, 62, 0
14, 45810, Note_on_c, 6, 58, 72
14, 45839, Note_on_c, 6, 58, 0
14, 45840, Note_on_c, 6, 63, 72
14, 45959, Note_on_c, 6, 63, 0
14, 45960, Note_on_c, 6, 65, 72
14, 46199, Note_on_c, 6, 65, 0
14, 46200, Note_on_c, 6, 63, 72
14, 46319, Note_on_c, 6, 63, 0
14, 46320, Note_on_c, 6, 62, 72
14, 46559, Note_on_c, 6, 62, 0
14, 46650, Note_on_c, 6, 62, 72
14, 46679, Note_on_c, 6, 62, 0
14, 46680, Note_on_c, 6, 65, 72
14, 46769, Note_on_c, 6, 65, 0
14, 46770, Note_on_c, 6, 62, 72
14, 46799, Note_on_c, 6, 62, 0
14, 46800, Note_on_c, 6, 58, 72
14, 47039, Note_on_c, 6, 58, 0
14, 47130, Note_on_c, 6, 58, 72
14, 47159, Note_on_c, 6, 58, 0
14, 47160, Note_on_c, 6, 62, 72
14, 47249, Note_on_c, 6, 62, 0
14, 47250, Note_on_c, 6, 58, 72
14, 47279, Note_on_c, 6, 58, 0
14, 47280, Note_on_c, 6, 55, 72
14, 47519, Note_on_c, 6, 55, 0
14, 47610, Note_on_c, 6, 67, 72
14, 47639, Note_on_c, 6, 67, 0
14, 47640, Note_on_c, 6, 70, 72
14, 47729, Note_on_c, 6, 70, 0
14, 47730, Note_on_c, 6, 67, 72
14, 47759, Note_on_c, 6, 67, 0
14, 47760, Note_on_c, 6, 55, 72
14, 47999, Note_on_c, 6, 55, 0
14, 48090, Note_on_c, 6, 63, 72
14, 48119, Note_on_c, 6, 63, 0
14, 48120, Note_on_c, 6, 55, 72
14, 48209, Note_on_c, 6, 55, 0
14, 48210, Note_on_c, 6, 67, 72
14, 48239, Note_on_c, 6, 67, 0
14, 48240, Note_on_c, 6, 66, 72
14, 48359, Note_on_c, 6, 66, 0
14, 48450, Note_on_c, 6, 66, 72
14, 48479, Note_on_c, 6, 66, 0
14, 48480, Note_on_c, 6, 64, 72
14, 48599, Note_on_c, 6, 64, 0
14, 48690, Note_on_c, 6, 64, 72
14, 48719, Note_on_c, 6, 64, 0
14, 48720, Note_on_c, 6, 62, 72
14, 48839, Note_on_c, 6, 62, 0
14, 48840, Note_on_c, 6, 62, 72
14, 48959, Note_on_c, 6, 62, 0
14, 48960, Note_on_c, 6, 62, 72
14, 49079, Note_on_c, 6, 62, 0
14, 49080, Note_on_c, 6, 62, 72
14, 49199, Note_on_c, 6, 62, 0
14, 49200, Note_on_c, 6, 55, 72
14, 49319, Note_on_c, 6, 55, 0
14, 49320, Note_on_c, 6, 55, 48
14, 49439, Note_on_c, 6, 55, 0
14, 49560, Note_on_c, 6, 58, 48
14, 49679, Note_on_c, 6, 58, 0
14, 49800, Note_on_c, 6, 57, 48
14, 49919, Note_on_c, 6, 57, 0
14, 50040, Note_on_c, 6, 57, 48
14, 50159, Note_on_c, 6, 57, 0
14, 50160, Note_on_c, 6, 55, 48
14, 50399, Note_on_c, 6, 55, 0
14, 50400, Note_on_c, 6, 54, 48
14, 50639, Note_on_c, 6, 54, 0
14, 50640, Note_on_c, 6, 55, 48
14, 50759, Note_on_c, 6, 55, 0
14, 50760, Note_on_c, 6, 51, 48
14, 50879, Note_on_c, 6, 51, 0
14, 50880, Note_on_c, 6, 48, 48
14, 50999, Note_on_c, 6, 48, 0
14, 51000, Note_on_c, 6, 50, 48
14, 51119, Note_on_c, 6, 50, 0
14, 51120, Note_on_c, 6, 55, 48
14, 51239, Note_on_c, 6, 55, 0
14, 51360, Note_on_c, 6, 58, 72
14, 51479, Note_on_c, 6, 58, 0
14, 51600, Note_on_c, 6, 57, 72
14, 51719, Note_on_c, 6, 57, 0
14, 51840, Note_on_c, 6, 57, 72
14, 51959, Note_on_c, 6, 57, 0
14, 52080, Note_on_c, 6, 62, 72
14, 52199, Note_on_c, 6, 62, 0
14, 52320, Note_on_c, 6, 64, 72
14, 52439, Note_on_c, 6, 64, 0
14, 52560, Note_on_c, 6, 65, 72
14, 52679, Note_on_c, 6, 65, 0
14, 52800, Note_on_c, 6, 62, 72
14, 52919, Note_on_c, 6, 62, 0
14, 53040, Note_on_c, 6, 52, 72
14, 53159, Note_on_c, 6, 52, 0
14, 53280, Note_on_c, 6, 52, 72
14, 53399, Note_on_c, 6, 52, 0
14, 53520, Note_on_c, 6, 57, 72
14, 53759, Note_on_c, 6, 57, 0
14, 53760, Note_on_c, 6, 59, 72
14, 53999, Note_on_c, 6, 59, 0
14, 54000, Note_on_c, 6, 60, 72
14, 54239, Note_on_c, 6, 60, 0
14, 54240, Note_on_c, 6, 62, 72
14, 54599, Note_on_c, 6, 62, 0
14, 54600, Note_on_c, 6, 62, 72
14, 54839, Note_on_c, 6, 62, 0
14, 54840, Note_on_c, 6, 62, 72
14, 55079, Note_on_c, 6, 62, 0
14, 55080, Note_on_c, 6, 62, 72
14, 55259, Note_on_c, 6, 62, 0
14, 55260, Note_on_c, 6, 63, 72
14, 55319, Note_on_c, 6, 63, 0
14, 55320, Note_on_c, 6, 62, 72
14, 55379, Note_on_c, 6, 62, 0
14, 55380, Note_on_c, 6, 60, 72
14, 55439, Note_on_c, 6, 60, 0
14, 55440, Note_on_c, 6, 58, 72
14, 55499, Note_on_c, 6, 58, 0
14, 55500, Note_on_c, 6, 62, 72
14, 55559, Note_on_c, 6, 62, 0
14, 55560, Note_on_c, 6, 60, 72
14, 55619, Note_on_c, 6, 60, 0
14, 55620, Note_on_c, 6, 58, 72
14, 55679, Note_on_c, 6, 58, 0
14, 55680, Note_on_c, 6, 57, 72
14, 55739, Note_on_c, 6, 57, 0
14, 55740, Note_on_c, 6, 60, 72
14, 55799, Note_on_c, 6, 60, 0
14, 55800, Note_on_c, 6, 58, 72
14, 55859, Note_on_c, 6, 58, 0
14, 55860, Note_on_c, 6, 57, 72
14, 55919, Note_on_c, 6, 57, 0
14, 55920, Note_on_c, 6, 55, 72
14, 56099, Note_on_c, 6, 55, 0
14, 56100, Note_on_c, 6, 57, 72
14, 56159, Note_on_c, 6, 57, 0
14, 56160, Note_on_c, 6, 58, 72
14, 56219, Note_on_c, 6, 58, 0
14, 56220, Note_on_c, 6, 57, 72
14, 56279, Note_on_c, 6, 57, 0
14, 56280, Note_on_c, 6, 55, 72
14, 56339, Note_on_c, 6, 55, 0
14, 56340, Note_on_c, 6, 58, 72
14, 56399, Note_on_c, 6, 58, 0
14, 56400, Note_on_c, 6, 57, 72
14, 56459, Note_on_c, 6, 57, 0
14, 56460, Note_on_c, 6, 55, 72
14, 56519, Note_on_c, 6, 55, 0
14, 56520, Note_on_c, 6, 53, 72
14, 56579, Note_on_c, 6, 53, 0
14, 56580, Note_on_c, 6, 55, 72
14, 56639, Note_on_c, 6, 55, 0
14, 56640, Note_on_c, 6, 57, 72
14, 56699, Note_on_c, 6, 57, 0
14, 56700, Note_on_c, 6, 55, 72
14, 56759, Note_on_c, 6, 55, 0
14, 56760, Note_on_c, 6, 57, 72
14, 56819, Note_on_c, 6, 57, 0
14, 56820, Note_on_c, 6, 53, 72
14, 56879, Note_on_c, 6, 53, 0
14, 56880, Note_on_c, 6, 60, 72
14, 56999, Note_on_c, 6, 60, 0
14, 57000, Note_on_c, 6, 48, 72
14, 57119, Note_on_c, 6, 48, 0
14, 57120, Note_on_c, 6, 60, 72
14, 57599, Note_on_c, 6, 60, 0
14, 57600, Note_on_c, 6, 64, 72
14, 57839, Note_on_c, 6, 64, 0
14, 57840, Note_on_c, 6, 65, 72
14, 58079, Note_on_c, 6, 65, 0
14, 58080, Note_on_c, 6, 57, 72
14, 58199, Note_on_c, 6, 57, 0
14, 58200, Note_on_c, 6, 57, 72
14, 58319, Note_on_c, 6, 57, 0
14, 58320, Note_on_c, 6, 57, 72
14, 58559, Note_on_c, 6, 57, 0
14, 58560, Note_on_c, 6, 61, 72
14, 58799, Note_on_c, 6, 61, 0
14, 58800, Note_on_c, 6, 62, 72
14, 59039, Note_on_c, 6, 62, 0
14, 59040, Note_on_c, 6, 53, 72
14, 59159, Note_on_c, 6, 53, 0
14, 59160, Note_on_c, 6, 53, 72
14, 59279, Note_on_c, 6, 53, 0
14, 59280, Note_on_c, 6, 53, 72
14, 59519, Note_on_c, 6, 53, 0
14, 59520, Note_on_c, 6, 57, 72
14, 59759, Note_on_c, 6, 57, 0
14, 59760, Note_on_c, 6, 58, 72
14, 59999, Note_on_c, 6, 58, 0
14, 60300, Note_on_c, 6, 70, 72
14, 60359, Note_on_c, 6, 70, 0
14, 60360, Note_on_c, 6, 74, 72
14, 60419, Note_on_c, 6, 74, 0
14, 60420, Note_on_c, 6, 70, 72
14, 60449, Note_on_c, 6, 70, 0
14, 60480, Note_on_c, 6, 65, 72
14, 60509, Note_on_c, 6, 65, 0
14, 60540, Note_on_c, 6, 62, 72
14, 60569, Note_on_c, 6, 62, 0
14, 60600, Note_on_c, 6, 58, 72
14, 60629, Note_on_c, 6, 58, 0
14, 60660, Note_on_c, 6, 65, 72
14, 60689, Note_on_c, 6, 65, 0
14, 60720, Note_on_c, 6, 57, 72
14, 60959, Note_on_c, 6, 57, 0
14, 61260, Note_on_c, 6, 74, 72
14, 61319, Note_on_c, 6, 74, 0
14, 61320, Note_on_c, 6, 77, 72
14, 61379, Note_on_c, 6, 77, 0
14, 61380, Note_on_c, 6, 74, 72
14, 61409, Note_on_c, 6, 74, 0
14, 61440, Note_on_c, 6, 69, 72
14, 61469, Note_on_c, 6, 69, 0
14, 61500, Note_on_c, 6, 65, 72
14, 61529, Note_on_c, 6, 65, 0
14, 61560, Note_on_c, 6, 62, 72
14, 61589, Note_on_c, 6, 62, 0
14, 61620, Note_on_c, 6, 65, 72
14, 61649, Note_on_c, 6, 65, 0
14, 61680, Note_on_c, 6, 56, 72
14, 61799, Note_on_c, 6, 56, 0
14, 61800, Note_on_c, 6, 71, 72
14, 61919, Note_on_c, 6, 71, 0
14, 61920, Note_on_c, 6, 71, 72
14, 62039, Note_on_c, 6, 71, 0
14, 62040, Note_on_c, 6, 71, 72
14, 62159, Note_on_c, 6, 71, 0
14, 62160, Note_on_c, 6, 71, 72
14, 62279, Note_on_c, 6, 71, 0
14, 62280, Note_on_c, 6, 71, 72
14, 62399, Note_on_c, 6, 71, 0
14, 62400, Note_on_c, 6, 71, 72
14, 62519, Note_on_c, 6, 71, 0
14, 62520, Note_on_c, 6, 71, 72
14, 62639, Note_on_c, 6, 71, 0
14, 62640, Note_on_c, 6, 69, 72
14, 62759, Note_on_c, 6, 69, 0
14, 62760, Note_on_c, 6, 57, 72
14, 62879, Note_on_c, 6, 57, 0
14, 63000, Note_on_c, 6, 61, 48
14, 63119, Note_on_c, 6, 61, 0
14, 63120, Note_on_c, 6, 62, 48
14, 63359, Note_on_c, 6, 62, 0
14, 63360, Note_on_c, 6, 64, 48
14, 63599, Note_on_c, 6, 64, 0
14, 63600, Note_on_c, 6, 62, 48
14, 63839, Note_on_c, 6, 62, 0
14, 63840, Note_on_c, 6, 57, 48
14, 64079, Note_on_c, 6, 57, 0
14, 64080, Note_on_c, 6, 53, 48
14, 64319, Note_on_c, 6, 53, 0
14, 64320, Note_on_c, 6, 52, 48
14, 64439, Note_on_c, 6, 52, 0
14, 64440, Note_on_c, 6, 50, 48
14, 64559, Note_on_c, 6, 50, 0
14, 64560, Note_on_c, 6, 57, 48
14, 65039, Note_on_c, 6, 57, 0
14, 65040, Note_on_c, 6, 57, 48
14, 65519, Note_on_c, 6, 57, 0
14, 69960, Note_on_c, 6, 59, 72
14, 70079, Note_on_c, 6, 59, 0
14, 70080, Note_on_c, 6, 59, 72
14, 70199, Note_on_c, 6, 59, 0
14, 70200, Note_on_c, 6, 59, 72
14, 70319, Note_on_c, 6, 59, 0
14, 70320, Note_on_c, 6, 60, 72
14, 70379, Note_on_c, 6, 60, 0
14, 70380, Note_on_c, 6, 62, 72
14, 70439, Note_on_c, 6, 62, 0
14, 70440, Note_on_c, 6, 60, 72
14, 70499, Note_on_c, 6, 60, 0
14, 70500, Note_on_c, 6, 59, 72
14, 70559, Note_on_c, 6, 59, 0
14, 70560, Note_on_c, 6, 60, 72
14, 70619, Note_on_c, 6, 60, 0
14, 70620, Note_on_c, 6, 62, 72
14, 70679, Note_on_c, 6, 62, 0
14, 70680, Note_on_c, 6, 59, 72
14, 70739, Note_on_c, 6, 59, 0
14, 70740, Note_on_c, 6, 60, 72
14, 70799, Note_on_c, 6, 60, 0
14, 70800, Note_on_c, 6, 62, 72
14, 70859, Note_on_c, 6, 62, 0
14, 70860, Note_on_c, 6, 64, 72
14, 70919, Note_on_c, 6, 64, 0
14, 70920, Note_on_c, 6, 62, 72
14, 70979, Note_on_c, 6, 62, 0
14, 70980, Note_on_c, 6, 60, 72
14, 71039, Note_on_c, 6, 60, 0
14, 71040, Note_on_c, 6, 62, 72
14, 71099, Note_on_c, 6, 62, 0
14, 71100, Note_on_c, 6, 64, 72
14, 71159, Note_on_c, 6, 64, 0
14, 71160, Note_on_c, 6, 60, 72
14, 71219, Note_on_c, 6, 60, 0
14, 71220, Note_on_c, 6, 62, 72
14, 71279, Note_on_c, 6, 62, 0
14, 71280, Note_on_c, 6, 64, 72
14, 71399, Note_on_c, 6, 64, 0
14, 71400, Note_on_c, 6, 65, 72
14, 71459, Note_on_c, 6, 65, 0
14, 71460, Note_on_c, 6, 64, 72
14, 71519, Note_on_c, 6, 64, 0
14, 71520, Note_on_c, 6, 62, 72
14, 71579, Note_on_c, 6, 62, 0
14, 71580, Note_on_c, 6, 60, 72
14, 71639, Note_on_c, 6, 60, 0
14, 71640, Note_on_c, 6, 59, 72
14, 71699, Note_on_c, 6, 59, 0
14, 71700, Note_on_c, 6, 57, 72
14, 71759, Note_on_c, 6, 57, 0
14, 71760, Note_on_c, 6, 56, 72
14, 71879, Note_on_c, 6, 56, 0
14, 71880, Note_on_c, 6, 59, 72
14, 71999, Note_on_c, 6, 59, 0
14, 72000, Note_on_c, 6, 64, 72
14, 72119, Note_on_c, 6, 64, 0
14, 72120, Note_on_c, 6, 62, 72
14, 72239, Note_on_c, 6, 62, 0
14, 72240, Note_on_c, 6, 60, 72
14, 72359, Note_on_c, 6, 60, 0
14, 72360, Note_on_c, 6, 61, 72
14, 72479, Note_on_c, 6, 61, 0
14, 72480, Note_on_c, 6, 62, 72
14, 72599, Note_on_c, 6, 62, 0
14, 72600, Note_on_c, 6, 64, 72
14, 72719, Note_on_c, 6, 64, 0
14, 72720, Note_on_c, 6, 57, 72
14, 72839, Note_on_c, 6, 57, 0
14, 72840, Note_on_c, 6, 50, 72
14, 72959, Note_on_c, 6, 50, 0
14, 72960, Note_on_c, 6, 55, 72
14, 73079, Note_on_c, 6, 55, 0
14, 73080, Note_on_c, 6, 53, 72
14, 73199, Note_on_c, 6, 53, 0
14, 73200, Note_on_c, 6, 52, 72
14, 73319, Note_on_c, 6, 52, 0
14, 73320, Note_on_c, 6, 55, 72
14, 73439, Note_on_c, 6, 55, 0
14, 73440, Note_on_c, 6, 58, 72
14, 73679, Note_on_c, 6, 58, 0
14, 73680, Note_on_c, 6, 57, 72
14, 73919, Note_on_c, 6, 57, 0
14, 75600, Note_on_c, 6, 62, 72
14, 76079, Note_on_c, 6, 62, 0
14, 76080, Note_on_c, 6, 60, 72
14, 76319, Note_on_c, 6, 60, 0
14, 76320, Note_on_c, 6, 65, 72
14, 76559, Note_on_c, 6, 65, 0
14, 76560, Note_on_c, 6, 56, 72
14, 77039, Note_on_c, 6, 56, 0
14, 77040, Note_on_c, 6, 57, 72
14, 77279, Note_on_c, 6, 57, 0
14, 77280, Note_on_c, 6, 57, 72
14, 77399, Note_on_c, 6, 57, 0
14, 77400, Note_on_c, 6, 57, 72
14, 77519, Note_on_c, 6, 57, 0
14, 77520, Note_on_c, 6, 59, 72
14, 77879, Note_on_c, 6, 59, 0
14, 77880, Note_on_c, 6, 57, 72
14, 77939, Note_on_c, 6, 57, 0
14, 77940, Note_on_c, 6, 59, 72
14, 77999, Note_on_c, 6, 59, 0
14, 78000, Note_on_c, 6, 60, 72
14, 78119, Note_on_c, 6, 60, 0
14, 78120, Note_on_c, 6, 59, 72
14, 78179, Note_on_c, 6, 59, 0
14, 78180, Note_on_c, 6, 60, 72
14, 78239, Note_on_c, 6, 60, 0
14, 78240, Note_on_c, 6, 62, 72
14, 78359, Note_on_c, 6, 62, 0
14, 78360, Note_on_c, 6, 60, 72
14, 78419, Note_on_c, 6, 60, 0
14, 78420, Note_on_c, 6, 62, 72
14, 78479, Note_on_c, 6, 62, 0
14, 78480, Note_on_c, 6, 64, 72
14, 78599, Note_on_c, 6, 64, 0
14, 78600, Note_on_c, 6, 62, 72
14, 78719, Note_on_c, 6, 62, 0
14, 78720, Note_on_c, 6, 60, 72
14, 78839, Note_on_c, 6, 60, 0
14, 78840, Note_on_c, 6, 59, 72
14, 78959, Note_on_c, 6, 59, 0
14, 78960, Note_on_c, 6, 57, 72
14, 79019, Note_on_c, 6, 57, 0
14, 79020, Note_on_c, 6, 59, 72
14, 79079, Note_on_c, 6, 59, 0
14, 79080, Note_on_c, 6, 60, 72
14, 79319, Note_on_c, 6, 60, 0
14, 79320, Note_on_c, 6, 61, 72
14, 79439, Note_on_c, 6, 61, 0
14, 79440, Note_on_c, 6, 62, 72
14, 79559, Note_on_c, 6, 62, 0
14, 79560, Note_on_c, 6, 50, 72
14, 79679, Note_on_c, 6, 50, 0
14, 79680, Note_on_c, 6, 52, 72
14, 79799, Note_on_c, 6, 52, 0
14, 79800, Note_on_c, 6, 54, 72
14, 79919, Note_on_c, 6, 54, 0
14, 79920, Note_on_c, 6, 55, 72
14, 79979, Note_on_c, 6, 55, 0
14, 79980, Note_on_c, 6, 57, 72
14, 80039, Note_on_c, 6, 57, 0
14, 80040, Note_on_c, 6, 58, 72
14, 80279, Note_on_c, 6, 58, 0
14, 80280, Note_on_c, 6, 59, 72
14, 80399, Note_on_c, 6, 59, 0
14, 80400, Note_on_c, 6, 60, 72
14, 80519, Note_on_c, 6, 60, 0
14, 80520, Note_on_c, 6, 58, 72
14, 80639, Note_on_c, 6, 58, 0
14, 80640, Note_on_c, 6, 57, 72
14, 80759, Note_on_c, 6, 57, 0
14, 80760, Note_on_c, 6, 55, 72
14, 80879, Note_on_c, 6, 55, 0
14, 80880, Note_on_c, 6, 57, 72
14, 80939, Note_on_c, 6, 57, 0
14, 80940, Note_on_c, 6, 53, 72
14, 80999, Note_on_c, 6, 53, 0
14, 81000, Note_on_c, 6, 55, 72
14, 81059, Note_on_c, 6, 55, 0
14, 81060, Note_on_c, 6, 57, 72
14, 81119, Note_on_c, 6, 57, 0
14, 81120, Note_on_c, 6, 58, 72
14, 81179, Note_on_c, 6, 58, 0
14, 81180, Note_on_c, 6, 55, 72
14, 81239, Note_on_c, 6, 55, 0
14, 81240, Note_on_c, 6, 57, 72
14, 81299, Note_on_c, 6, 57, 0
14, 81300, Note_on_c, 6, 58, 72
14, 81359, Note_on_c, 6, 58, 0
14, 81360, Note_on_c, 6, 60, 72
14, 81479, Note_on_c, 6, 60, 0
14, 81480, Note_on_c, 6, 55, 72
14, 81599, Note_on_c, 6, 55, 0
14, 81600, Note_on_c, 6, 60, 72
14, 81959, Note_on_c, 6, 60, 0
14, 81960, Note_on_c, 6, 58, 72
14, 82019, Note_on_c, 6, 58, 0
14, 82020, Note_on_c, 6, 57, 72
14, 82079, Note_on_c, 6, 57, 0
14, 82080, Note_on_c, 6, 58, 72
14, 82139, Note_on_c, 6, 58, 0
14, 82140, Note_on_c, 6, 60, 72
14, 82199, Note_on_c, 6, 60, 0
14, 82200, Note_on_c, 6, 57, 72
14, 82259, Note_on_c, 6, 57, 0
14, 82260, Note_on_c, 6, 58, 72
14, 82319, Note_on_c, 6, 58, 0
14, 82320, Note_on_c, 6, 55, 72
14, 82439, Note_on_c, 6, 55, 0
14, 82440, Note_on_c, 6, 57, 72
14, 82499, Note_on_c, 6, 57, 0
14, 82500, Note_on_c, 6, 58, 72
14, 82559, Note_on_c, 6, 58, 0
14, 82560, Note_on_c, 6, 60, 72
14, 82799, Note_on_c, 6, 60, 0
14, 83760, Note_on_c, 6, 62, 72
14, 84239, Note_on_c, 6, 62, 0
14, 84240, Note_on_c, 6, 58, 72
14, 84479, Note_on_c, 6, 58, 0
14, 84480, Note_on_c, 6, 63, 72
14, 84719, Note_on_c, 6, 63, 0
14, 84720, Note_on_c, 6, 54, 72
14, 85199, Note_on_c, 6, 54, 0
14, 85200, Note_on_c, 6, 55, 72
14, 85439, Note_on_c, 6, 55, 0
14, 85440, Note_on_c, 6, 55, 72
14, 85559, Note_on_c, 6, 55, 0
14, 85560, Note_on_c, 6, 55, 72
14, 85679, Note_on_c, 6, 55, 0
14, 85680, Note_on_c, 6, 57, 72
14, 86039, Note_on_c, 6, 57, 0
14, 86040, Note_on_c, 6, 55, 72
14, 86099, Note_on_c, 6, 55, 0
14, 86100, Note_on_c, 6, 57, 72
14, 86159, Note_on_c, 6, 57, 0
14, 86160, Note_on_c, 6, 58, 72
14, 86279, Note_on_c, 6, 58, 0
14, 86280, Note_on_c, 6, 57, 72
14, 86339, Note_on_c, 6, 57, 0
14, 86340, Note_on_c, 6, 58, 72
14, 86399, Note_on_c, 6, 58, 0
14, 86400, Note_on_c, 6, 60, 72
14, 86519, Note_on_c, 6, 60, 0
14, 86520, Note_on_c, 6, 58, 72
14, 86579, Note_on_c, 6, 58, 0
14, 86580, Note_on_c, 6, 60, 72
14, 86639, Note_on_c, 6, 60, 0
14, 86640, Note_on_c, 6, 62, 72
14, 86759, Note_on_c, 6, 62, 0
14, 86760, Note_on_c, 6, 60, 72
14, 86879, Note_on_c, 6, 60, 0
14, 86880, Note_on_c, 6, 58, 72
14, 86999, Note_on_c, 6, 58, 0
14, 87000, Note_on_c, 6, 57, 72
14, 87119, Note_on_c, 6, 57, 0
14, 87120, Note_on_c, 6, 55, 72
14, 87239, Note_on_c, 6, 55, 0
14, 87240, Note_on_c, 6, 65, 72
14, 87359, Note_on_c, 6, 65, 0
14, 87360, Note_on_c, 6, 63, 72
14, 87479, Note_on_c, 6, 63, 0
14, 87480, Note_on_c, 6, 59, 72
14, 87599, Note_on_c, 6, 59, 0
14, 87600, Note_on_c, 6, 60, 72
14, 87719, Note_on_c, 6, 60, 0
14, 87720, Note_on_c, 6, 67, 72
14, 87839, Note_on_c, 6, 67, 0
14, 87840, Note_on_c, 6, 65, 72
14, 87899, Note_on_c, 6, 65, 0
14, 87900, Note_on_c, 6, 63, 72
14, 87959, Note_on_c, 6, 63, 0
14, 87960, Note_on_c, 6, 62, 72
14, 88019, Note_on_c, 6, 62, 0
14, 88020, Note_on_c, 6, 60, 72
14, 88079, Note_on_c, 6, 60, 0
14, 88080, Note_on_c, 6, 62, 72
14, 88139, Note_on_c, 6, 62, 0
14, 88140, Note_on_c, 6, 60, 72
14, 88199, Note_on_c, 6, 60, 0
14, 88200, Note_on_c, 6, 59, 72
14, 88259, Note_on_c, 6, 59, 0
14, 88260, Note_on_c, 6, 57, 72
14, 88319, Note_on_c, 6, 57, 0
14, 88320, Note_on_c, 6, 55, 72
14, 88379, Note_on_c, 6, 55, 0
14, 88380, Note_on_c, 6, 56, 72
14, 88439, Note_on_c, 6, 56, 0
14, 88440, Note_on_c, 6, 53, 72
14, 88499, Note_on_c, 6, 53, 0
14, 88500, Note_on_c, 6, 55, 72
14, 88559, Note_on_c, 6, 55, 0
14, 88560, Note_on_c, 6, 51, 72
14, 88679, Note_on_c, 6, 51, 0
14, 88680, Note_on_c, 6, 48, 72
14, 88799, Note_on_c, 6, 48, 0
14, 88800, Note_on_c, 6, 56, 72
14, 89159, Note_on_c, 6, 56, 0
14, 89160, Note_on_c, 6, 53, 72
14, 89279, Note_on_c, 6, 53, 0
14, 89280, Note_on_c, 6, 58, 72
14, 89759, Note_on_c, 6, 58, 0
14, 89760, Note_on_c, 6, 56, 72
14, 89999, Note_on_c, 6, 56, 0
14, 90000, Note_on_c, 6, 55, 72
14, 90119, Note_on_c, 6, 55, 0
14, 90120, Note_on_c, 6, 57, 72
14, 90179, Note_on_c, 6, 57, 0
14, 90180, Note_on_c, 6, 59, 72
14, 90239, Note_on_c, 6, 59, 0
14, 90240, Note_on_c, 6, 60, 72
14, 90359, Note_on_c, 6, 60, 0
14, 90360, Note_on_c, 6, 62, 72
14, 90479, Note_on_c, 6, 62, 0
14, 90480, Note_on_c, 6, 63, 72
14, 90539, Note_on_c, 6, 63, 0
14, 90540, Note_on_c, 6, 62, 72
14, 90599, Note_on_c, 6, 62, 0
14, 90600, Note_on_c, 6, 60, 72
14, 90659, Note_on_c, 6, 60, 0
14, 90660, Note_on_c, 6, 58, 72
14, 90719, Note_on_c, 6, 58, 0
14, 90720, Note_on_c, 6, 57, 72
14, 90839, Note_on_c, 6, 57, 0
14, 90840, Note_on_c, 6, 58, 72
14, 91079, Note_on_c, 6, 58, 0
14, 91080, Note_on_c, 6, 57, 72
14, 91199, Note_on_c, 6, 57, 0
14, 91200, Note_on_c, 6, 58, 72
14, 91319, Note_on_c, 6, 58, 0
14, 91320, Note_on_c, 6, 60, 72
14, 91439, Note_on_c, 6, 60, 0
14, 91440, Note_on_c, 6, 62, 72
14, 91679, Note_on_c, 6, 62, 0
14, 92040, Note_on_c, 6, 53, 72
14, 92159, Note_on_c, 6, 53, 0
14, 92160, Note_on_c, 6, 53, 72
14, 92279, Note_on_c, 6, 53, 0
14, 92280, Note_on_c, 6, 53, 72
14, 92399, Note_on_c, 6, 53, 0
14, 92400, Note_on_c, 6, 55, 72
14, 92459, Note_on_c, 6, 55, 0
14, 92460, Note_on_c, 6, 57, 72
14, 92519, Note_on_c, 6, 57, 0
14, 92520, Note_on_c, 6, 55, 72
14, 92579, Note_on_c, 6, 55, 0
14, 92580, Note_on_c, 6, 53, 72
14, 92639, Note_on_c, 6, 53, 0
14, 92640, Note_on_c, 6, 55, 72
14, 92699, Note_on_c, 6, 55, 0
14, 92700, Note_on_c, 6, 57, 72
14, 92759, Note_on_c, 6, 57, 0
14, 92760, Note_on_c, 6, 53, 72
14, 92819, Note_on_c, 6, 53, 0
14, 92820, Note_on_c, 6, 55, 72
14, 92879, Note_on_c, 6, 55, 0
14, 92880, Note_on_c, 6, 57, 72
14, 92939, Note_on_c, 6, 57, 0
14, 92940, Note_on_c, 6, 58, 72
14, 92999, Note_on_c, 6, 58, 0
14, 93000, Note_on_c, 6, 57, 72
14, 93059, Note_on_c, 6, 57, 0
14, 93060, Note_on_c, 6, 55, 72
14, 93119, Note_on_c, 6, 55, 0
14, 93120, Note_on_c, 6, 57, 72
14, 93179, Note_on_c, 6, 57, 0
14, 93180, Note_on_c, 6, 58, 72
14, 93239, Note_on_c, 6, 58, 0
14, 93240, Note_on_c, 6, 55, 72
14, 93299, Note_on_c, 6, 55, 0
14, 93300, Note_on_c, 6, 57, 72
14, 93359, Note_on_c, 6, 57, 0
14, 93360, Note_on_c, 6, 58, 72
14, 93599, Note_on_c, 6, 58, 0
14, 93960, Note_on_c, 6, 60, 72
14, 94079, Note_on_c, 6, 60, 0
14, 94080, Note_on_c, 6, 60, 72
14, 94199, Note_on_c, 6, 60, 0
14, 94200, Note_on_c, 6, 60, 72
14, 94319, Note_on_c, 6, 60, 0
14, 94320, Note_on_c, 6, 62, 72
14, 94379, Note_on_c, 6, 62, 0
14, 94380, Note_on_c, 6, 63, 72
14, 94439, Note_on_c, 6, 63, 0
14, 94440, Note_on_c, 6, 62, 72
14, 94499, Note_on_c, 6, 62, 0
14, 94500, Note_on_c, 6, 60, 72
14, 94559, Note_on_c, 6, 60, 0
14, 94560, Note_on_c, 6, 62, 72
14, 94619, Note_on_c, 6, 62, 0
14, 94620, Note_on_c, 6, 63, 72
14, 94679, Note_on_c, 6, 63, 0
14, 94680, Note_on_c, 6, 60, 72
14, 94739, Note_on_c, 6, 60, 0
14, 94740, Note_on_c, 6, 62, 72
14, 94799, Note_on_c, 6, 62, 0
14, 94800, Note_on_c, 6, 63, 72
14, 94859, Note_on_c, 6, 63, 0
14, 94860, Note_on_c, 6, 65, 72
14, 94919, Note_on_c, 6, 65, 0
14, 94920, Note_on_c, 6, 63, 72
14, 94979, Note_on_c, 6, 63, 0
14, 94980, Note_on_c, 6, 62, 72
14, 95039, Note_on_c, 6, 62, 0
14, 95040, Note_on_c, 6, 63, 72
14, 95099, Note_on_c, 6, 63, 0
14, 95100, Note_on_c, 6, 65, 72
14, 95159, Note_on_c, 6, 65, 0
14, 95160, Note_on_c, 6, 62, 72
14, 95219, Note_on_c, 6, 62, 0
14, 95220, Note_on_c, 6, 63, 72
14, 95279, Note_on_c, 6, 63, 0
14, 95280, Note_on_c, 6, 65, 72
14, 95399, Note_on_c, 6, 65, 0
14, 95400, Note_on_c, 6, 62, 72
14, 95519, Note_on_c, 6, 62, 0
14, 95520, Note_on_c, 6, 64, 72
14, 95639, Note_on_c, 6, 64, 0
14, 95640, Note_on_c, 6, 65, 72
14, 95759, Note_on_c, 6, 65, 0
14, 95760, Note_on_c, 6, 67, 72
14, 95999, Note_on_c, 6, 67, 0
14, 96000, Note_on_c, 6, 65, 72
14, 96119, Note_on_c, 6, 65, 0
14, 96120, Note_on_c, 6, 64, 72
14, 96239, Note_on_c, 6, 64, 0
14, 96240, Note_on_c, 6, 65, 72
14, 96359, Note_on_c, 6, 65, 0
14, 96360, Note_on_c, 6, 53, 72
14, 96479, Note_on_c, 6, 53, 0
14, 96480, Note_on_c, 6, 58, 72
14, 96599, Note_on_c, 6, 58, 0
14, 96600, Note_on_c, 6, 55, 72
14, 96719, Note_on_c, 6, 55, 0
14, 96720, Note_on_c, 6, 60, 72
14, 96959, Note_on_c, 6, 60, 0
14, 97800, Note_on_c, 6, 55, 72
14, 97919, Note_on_c, 6, 55, 0
14, 97920, Note_on_c, 6, 55, 72
14, 98039, Note_on_c, 6, 55, 0
14, 98040, Note_on_c, 6, 55, 72
14, 98159, Note_on_c, 6, 55, 0
14, 98160, Note_on_c, 6, 56, 72
14, 98219, Note_on_c, 6, 56, 0
14, 98220, Note_on_c, 6, 58, 72
14, 98279, Note_on_c, 6, 58, 0
14, 98280, Note_on_c, 6, 56, 72
14, 98339, Note_on_c, 6, 56, 0
14, 98340, Note_on_c, 6, 55, 72
14, 98399, Note_on_c, 6, 55, 0
14, 98400, Note_on_c, 6, 57, 72
14, 98459, Note_on_c, 6, 57, 0
14, 98460, Note_on_c, 6, 58, 72
14, 98519, Note_on_c, 6, 58, 0
14, 98520, Note_on_c, 6, 55, 72
14, 98579, Note_on_c, 6, 55, 0
14, 98580, Note_on_c, 6, 57, 72
14, 98639, Note_on_c, 6, 57, 0
14, 98640, Note_on_c, 6, 58, 72
14, 98699, Note_on_c, 6, 58, 0
14, 98700, Note_on_c, 6, 60, 72
14, 98759, Note_on_c, 6, 60, 0
14, 98760, Note_on_c, 6, 58, 72
14, 98819, Note_on_c, 6, 58, 0
14, 98820, Note_on_c, 6, 57, 72
14, 98879, Note_on_c, 6, 57, 0
14, 98880, Note_on_c, 6, 59, 72
14, 98939, Note_on_c, 6, 59, 0
14, 98940, Note_on_c, 6, 60, 72
14, 98999, Note_on_c, 6, 60, 0
14, 99000, Note_on_c, 6, 57, 72
14, 99059, Note_on_c, 6, 57, 0
14, 99060, Note_on_c, 6, 59, 72
14, 99119, Note_on_c, 6, 59, 0
14, 99120, Note_on_c, 6, 60, 72
14, 99239, Note_on_c, 6, 60, 0
14, 99240, Note_on_c, 6, 55, 72
14, 99359, Note_on_c, 6, 55, 0
14, 99360, Note_on_c, 6, 60, 72
14, 99479, Note_on_c, 6, 60, 0
14, 99480, Note_on_c, 6, 58, 72
14, 99599, Note_on_c, 6, 58, 0
14, 99600, Note_on_c, 6, 57, 72
14, 99719, Note_on_c, 6, 57, 0
14, 99720, Note_on_c, 6, 50, 72
14, 99839, Note_on_c, 6, 50, 0
14, 99840, Note_on_c, 6, 62, 72
14, 99959, Note_on_c, 6, 62, 0
14, 99960, Note_on_c, 6, 60, 72
14, 100079, Note_on_c, 6, 60, 0
14, 100080, Note_on_c, 6, 58, 72
14, 100319, Note_on_c, 6, 58, 0
14, 100680, Note_on_c, 6, 55, 72
14, 100799, Note_on_c, 6, 55, 0
14, 100800, Note_on_c, 6, 55, 72
14, 100919, Note_on_c, 6, 55, 0
14, 100920, Note_on_c, 6, 57, 72
14, 101039, Note_on_c, 6, 57, 0
14, 101040, Note_on_c, 6, 57, 72
14, 101159, Note_on_c, 6, 57, 0
14, 101160, Note_on_c, 6, 57, 72
14, 101279, Note_on_c, 6, 57, 0
14, 101280, Note_on_c, 6, 57, 72
14, 101399, Note_on_c, 6, 57, 0
14, 101400, Note_on_c, 6, 57, 72
14, 101519, Note_on_c, 6, 57, 0
14, 101520, Note_on_c, 6, 59, 72
14, 101999, Note_on_c, 6, 59, 0
14, 102000, Note_on_c, 6, 61, 72
14, 102119, Note_on_c, 6, 61, 0
14, 102120, Note_on_c, 6, 57, 72
14, 102239, Note_on_c, 6, 57, 0
14, 102240, Note_on_c, 6, 59, 72
14, 102359, Note_on_c, 6, 59, 0
14, 102360, Note_on_c, 6, 61, 72
14, 102479, Note_on_c, 6, 61, 0
14, 102480, Note_on_c, 6, 62, 72
14, 102959, Note_on_c, 6, 62, 0
14, 102960, Note_on_c, 6, 64, 72
14, 103199, Note_on_c, 6, 64, 0
14, 103200, Note_on_c, 6, 57, 72
14, 103559, Note_on_c, 6, 57, 0
14, 103560, Note_on_c, 6, 53, 72
14, 103679, Note_on_c, 6, 53, 0
14, 103680, Note_on_c, 6, 58, 72
14, 104039, Note_on_c, 6, 58, 0
14, 104040, Note_on_c, 6, 55, 72
14, 104159, Note_on_c, 6, 55, 0
14, 104160, Note_on_c, 6, 64, 72
14, 104279, Note_on_c, 6, 64, 0
14, 104280, Note_on_c, 6, 64, 72
14, 104399, Note_on_c, 6, 64, 0
14, 104400, Note_on_c, 6, 62, 72
14, 104519, Note_on_c, 6, 62, 0
14, 104520, Note_on_c, 6, 61, 72
14, 104579, Note_on_c, 6, 61, 0
14, 104580, Note_on_c, 6, 62, 72
14, 104639, Note_on_c, 6, 62, 0
14, 104640, Note_on_c, 6, 64, 72
14, 104699, Note_on_c, 6, 64, 0
14, 104700, Note_on_c, 6, 65, 72
14, 104759, Note_on_c, 6, 65, 0
14, 104760, Note_on_c, 6, 67, 72
14, 104819, Note_on_c, 6, 67, 0
14, 104820, Note_on_c, 6, 65, 72
14, 104879, Note_on_c, 6, 65, 0
14, 104880, Note_on_c, 6, 64, 72
14, 104999, Note_on_c, 6, 64, 0
14, 105000, Note_on_c, 6, 62, 72
14, 105119, Note_on_c, 6, 62, 0
14, 105120, Note_on_c, 6, 61, 72
14, 105299, Note_on_c, 6, 61, 0
14, 105300, Note_on_c, 6, 62, 72
14, 105359, Note_on_c, 6, 62, 0
14, 105360, Note_on_c, 6, 64, 72
14, 105599, Note_on_c, 6, 64, 0
14, 105600, Note_on_c, 6, 57, 72
14, 105719, Note_on_c, 6, 57, 0
14, 105720, Note_on_c, 6, 60, 72
14, 105839, Note_on_c, 6, 60, 0
14, 105840, Note_on_c, 6, 62, 72
14, 105959, Note_on_c, 6, 62, 0
14, 105960, Note_on_c, 6, 65, 72
14, 106079, Note_on_c, 6, 65, 0
14, 106080, Note_on_c, 6, 64, 72
14, 106199, Note_on_c, 6, 64, 0
14, 106200, Note_on_c, 6, 62, 72
14, 106319, Note_on_c, 6, 62, 0
14, 106320, Note_on_c, 6, 64, 72
14, 106439, Note_on_c, 6, 64, 0
14, 106440, Note_on_c, 6, 57, 72
14, 106559, Note_on_c, 6, 57, 0
14, 106560, Note_on_c, 6, 59, 72
14, 106679, Note_on_c, 6, 59, 0
14, 106680, Note_on_c, 6, 61, 72
14, 106799, Note_on_c, 6, 61, 0
14, 106800, Note_on_c, 6, 62, 72
14, 106919, Note_on_c, 6, 62, 0
14, 106920, Note_on_c, 6, 50, 72
14, 107039, Note_on_c, 6, 50, 0
14, 107040, Note_on_c, 6, 55, 72
14, 107159, Note_on_c, 6, 55, 0
14, 107160, Note_on_c, 6, 52, 72
14, 107279, Note_on_c, 6, 52, 0
14, 107280, Note_on_c, 6, 57, 72
14, 107399, Note_on_c, 6, 57, 0
14, 107400, Note_on_c, 6, 58, 72
14, 107519, Note_on_c, 6, 58, 0
14, 107520, Note_on_c, 6, 57, 72
14, 107639, Note_on_c, 6, 57, 0
14, 107640, Note_on_c, 6, 55, 72
14, 107759, Note_on_c, 6, 55, 0
14, 107760, Note_on_c, 6, 53, 72
14, 107879, Note_on_c, 6, 53, 0
14, 107880, Note_on_c, 6, 50, 72
14, 107999, Note_on_c, 6, 50, 0
14, 108000, Note_on_c, 6, 55, 72
14, 108119, Note_on_c, 6, 55, 0
14, 108120, Note_on_c, 6, 53, 72
14, 108239, Note_on_c, 6, 53, 0
14, 108240, Note_on_c, 6, 52, 72
14, 108359, Note_on_c, 6, 52, 0
14, 108360, Note_on_c, 6, 48, 72
14, 108479, Note_on_c, 6, 48, 0
14, 108480, Note_on_c, 6, 57, 72
14, 108599, Note_on_c, 6, 57, 0
14, 108600, Note_on_c, 6, 57, 72
14, 108719, Note_on_c, 6, 57, 0
14, 108720, Note_on_c, 6, 53, 72
14, 108959, Note_on_c, 6, 53, 0
14, 108960, Note_on_c, 6, 62, 72
14, 109199, Note_on_c, 6, 62, 0
14, 109200, Note_on_c, 6, 55, 72
14, 109439, Note_on_c, 6, 55, 0
14, 109800, Note_on_c, 6, 57, 72
14, 109919, Note_on_c, 6, 57, 0
14, 109920, Note_on_c, 6, 62, 72
14, 110039, Note_on_c, 6, 62, 0
14, 110040, Note_on_c, 6, 60, 72
14, 110159, Note_on_c, 6, 60, 0
14, 110160, Note_on_c, 6, 59, 72
14, 110279, Note_on_c, 6, 59, 0
14, 110280, Note_on_c, 6, 59, 72
14, 110399, Note_on_c, 6, 59, 0
14, 110400, Note_on_c, 6, 64, 72
14, 110519, Note_on_c, 6, 64, 0
14, 110520, Note_on_c, 6, 62, 72
14, 110639, Note_on_c, 6, 62, 0
14, 110640, Note_on_c, 6, 60, 72
14, 110879, Note_on_c, 6, 60, 0
14, 110880, Note_on_c, 6, 62, 72
14, 111119, Note_on_c, 6, 62, 0
14, 111120, Note_on_c, 6, 62, 72
14, 111359, Note_on_c, 6, 62, 0
14, 111360, Note_on_c, 6, 64, 72
14, 111599, Note_on_c, 6, 64, 0
14, 111600, Note_on_c, 6, 64, 72
14, 111719, Note_on_c, 6, 64, 0
14, 111720, Note_on_c, 6, 64, 72
14, 111839, Note_on_c, 6, 64, 0
14, 111840, Note_on_c, 6, 62, 72
14, 111959, Note_on_c, 6, 62, 0
14, 111960, Note_on_c, 6, 65, 72
14, 112079, Note_on_c, 6, 65, 0
14, 112080, Note_on_c, 6, 64, 72
14, 112559, Note_on_c, 6, 64, 0
14, 112560, Note_on_c, 6, 65, 72
14, 113039, Note_on_c, 6, 65, 0
14, 113280, Note_on_c, 6, 65, 72
14, 113459, Note_on_c, 6, 65, 0
14, 113460, Note_on_c, 6, 65, 72
14, 113519, Note_on_c, 6, 65, 0
14, 113520, Note_on_c, 6, 64, 72
14, 113759, Note_on_c, 6, 64, 0
14, 113760, Note_on_c, 6, 65, 72
14, 114239, Note_on_c, 6, 65, 0
14, 114240, Note_on_c, 6, 64, 72
14, 114479, Note_on_c, 6, 64, 0
14, 114480, Note_on_c, 6, 62, 72
14, 115439, Note_on_c, 6, 62, 0
14, 115439, End_track
15, 0, Start_track
15, 0, Title_t, "Cello"
15, 0, MIDI_port, 0
15, 0, Program_c, 7, 48
15, 0, Control_c, 7, 7, 96
15, 0, Control_c, 7, 10, 96
15, 0, Control_c, 7, 11, 127
15, 0, Note_on_c, 7, 50, 66
15, 119, Note_on_c, 7, 50, 0
15, 120, Note_on_c, 7, 50, 66
15, 239, Note_on_c, 7, 50, 0
15, 240, Note_on_c, 7, 50, 48
15, 359, Note_on_c, 7, 50, 0
15, 360, Note_on_c, 7, 50, 48
15, 479, Note_on_c, 7, 50, 0
15, 480, Note_on_c, 7, 50, 48
15, 599, Note_on_c, 7, 50, 0
15, 600, Note_on_c, 7, 50, 48
15, 719, Note_on_c, 7, 50, 0
15, 720, Note_on_c, 7, 50, 66
15, 839, Note_on_c, 7, 50, 0
15, 840, Note_on_c, 7, 50, 66
15, 959, Note_on_c, 7, 50, 0
15, 960, Note_on_c, 7, 50, 48
15, 1079, Note_on_c, 7, 50, 0
15, 1080, Note_on_c, 7, 50, 48
15, 1199, Note_on_c, 7, 50, 0
15, 1200, Note_on_c, 7, 50, 48
15, 1319, Note_on_c, 7, 50, 0
15, 1320, Note_on_c, 7, 50, 48
15, 1439, Note_on_c, 7, 50, 0
15, 1440, Note_on_c, 7, 49, 66
15, 1559, Note_on_c, 7, 49, 0
15, 1560, Note_on_c, 7, 49, 66
15, 1679, Note_on_c, 7, 49, 0
15, 1680, Note_on_c, 7, 49, 48
15, 1799, Note_on_c, 7, 49, 0
15, 1800, Note_on_c, 7, 49, 48
15, 1919, Note_on_c, 7, 49, 0
15, 1920, Note_on_c, 7, 49, 48
15, 2039, Note_on_c, 7, 49, 0
15, 2040, Note_on_c, 7, 49, 48
15, 2159, Note_on_c, 7, 49, 0
15, 2160, Note_on_c, 7, 50, 66
15, 2279, Note_on_c, 7, 50, 0
15, 2280, Note_on_c, 7, 50, 66
15, 2399, Note_on_c, 7, 50, 0
15, 2400, Note_on_c, 7, 50, 48
15, 2519, Note_on_c, 7, 50, 0
15, 2520, Note_on_c, 7, 50, 48
15, 2639, Note_on_c, 7, 50, 0
15, 2640, Note_on_c, 7, 50, 48
15, 2759, Note_on_c, 7, 50, 0
15, 2760, Note_on_c, 7, 50, 48
15, 2879, Note_on_c, 7, 50, 0
15, 2880, Note_on_c, 7, 52, 66
15, 2999, Note_on_c, 7, 52, 0
15, 3000, Note_on_c, 7, 52, 66
15, 3119, Note_on_c, 7, 52, 0
15, 3120, Note_on_c, 7, 52, 48
15, 3239, Note_on_c, 7, 52, 0
15, 3240, Note_on_c, 7, 52, 48
15, 3359, Note_on_c, 7, 52, 0
15, 3360, Note_on_c, 7, 52, 48
15, 3479, Note_on_c, 7, 52, 0
15, 3480, Note_on_c, 7, 52, 48
15, 3599, Note_on_c, 7, 52, 0
15, 3600, Note_on_c, 7, 53, 66
15, 3719, Note_on_c, 7, 53, 0
15, 3720, Note_on_c, 7, 53, 66
15, 3839, Note_on_c, 7, 53, 0
15, 3840, Note_on_c, 7, 53, 48
15, 3959, Note_on_c, 7, 53, 0
15, 3960, Note_on_c, 7, 53, 48
15, 4079, Note_on_c, 7, 53, 0
15, 4080, Note_on_c, 7, 53, 48
15, 4199, Note_on_c, 7, 53, 0
15, 4200, Note_on_c, 7, 53, 48
15, 4319, Note_on_c, 7, 53, 0
15, 4320, Note_on_c, 7, 55, 66
15, 4439, Note_on_c, 7, 55, 0
15, 4440, Note_on_c, 7, 55, 66
15, 4559, Note_on_c, 7, 55, 0
15, 4560, Note_on_c, 7, 55, 48
15, 4679, Note_on_c, 7, 55, 0
15, 4680, Note_on_c, 7, 55, 48
15, 4799, Note_on_c, 7, 55, 0
15, 4800, Note_on_c, 7, 55, 48
15, 4919, Note_on_c, 7, 55, 0
15, 4920, Note_on_c, 7, 55, 48
15, 5039, Note_on_c, 7, 55, 0
15, 5040, Note_on_c, 7, 56, 84
15, 5159, Note_on_c, 7, 56, 0
15, 5160, Note_on_c, 7, 56, 84
15, 5279, Note_on_c, 7, 56, 0
15, 5280, Note_on_c, 7, 56, 84
15, 5399, Note_on_c, 7, 56, 0
15, 5400, Note_on_c, 7, 56, 84
15, 5519, Note_on_c, 7, 56, 0
15, 5520, Note_on_c, 7, 56, 84
15, 5639, Note_on_c, 7, 56, 0
15, 5640, Note_on_c, 7, 56, 84
15, 5759, Note_on_c, 7, 56, 0
15, 5760, Note_on_c, 7, 57, 84
15, 5999, Note_on_c, 7, 57, 0
15, 6480, Note_on_c, 7, 53, 48
15, 6599, Note_on_c, 7, 53, 0
15, 6600, Note_on_c, 7, 53, 48
15, 6719, Note_on_c, 7, 53, 0
15, 6720, Note_on_c, 7, 53, 48
15, 6839, Note_on_c, 7, 53, 0
15, 6840, Note_on_c, 7, 53, 48
15, 6959, Note_on_c, 7, 53, 0
15, 6960, Note_on_c, 7, 53, 48
15, 7079, Note_on_c, 7, 53, 0
15, 7080, Note_on_c, 7, 53, 48
15, 7199, Note_on_c, 7, 53, 0
15, 7200, Note_on_c, 7, 45, 48
15, 7319, Note_on_c, 7, 45, 0
15, 7320, Note_on_c, 7, 45, 48
15, 7439, Note_on_c, 7, 45, 0
15, 7440, Note_on_c, 7, 45, 48
15, 7559, Note_on_c, 7, 45, 0
15, 7560, Note_on_c, 7, 45, 48
15, 7679, Note_on_c, 7, 45, 0
15, 7680, Note_on_c, 7, 45, 48
15, 7799, Note_on_c, 7, 45, 0
15, 7800, Note_on_c, 7, 45, 48
15, 7919, Note_on_c, 7, 45, 0
15, 7920, Note_on_c, 7, 46, 48
15, 8039, Note_on_c, 7, 46, 0
15, 8040, Note_on_c, 7, 46, 48
15, 8159, Note_on_c, 7, 46, 0
15, 8160, Note_on_c, 7, 46, 48
15, 8279, Note_on_c, 7, 46, 0
15, 8280, Note_on_c, 7, 46, 48
15, 8399, Note_on_c, 7, 46, 0
15, 8400, Note_on_c, 7, 46, 48
15, 8519, Note_on_c, 7, 46, 0
15, 8520, Note_on_c, 7, 47, 48
15, 8639, Note_on_c, 7, 47, 0
15, 8640, Note_on_c, 7, 48, 48
15, 8759, Note_on_c, 7, 48, 0
15, 8760, Note_on_c, 7, 48, 48
15, 8879, Note_on_c, 7, 48, 0
15, 8880, Note_on_c, 7, 48, 48
15, 8999, Note_on_c, 7, 48, 0
15, 9000, Note_on_c, 7, 48, 48
15, 9119, Note_on_c, 7, 48, 0
15, 9120, Note_on_c, 7, 48, 48
15, 9239, Note_on_c, 7, 48, 0
15, 9240, Note_on_c, 7, 48, 48
15, 9359, Note_on_c, 7, 48, 0
15, 9360, Note_on_c, 7, 41, 48
15, 9599, Note_on_c, 7, 41, 0
15, 11040, Note_on_c, 7, 48, 48
15, 11279, Note_on_c, 7, 48, 0
15, 11280, Note_on_c, 7, 48, 48
15, 11519, Note_on_c, 7, 48, 0
15, 11520, Note_on_c, 7, 41, 72
15, 11639, Note_on_c, 7, 41, 0
15, 11640, Note_on_c, 7, 53, 48
15, 11759, Note_on_c, 7, 53, 0
15, 11760, Note_on_c, 7, 53, 48
15, 11879, Note_on_c, 7, 53, 0
15, 11880, Note_on_c, 7, 53, 48
15, 11999, Note_on_c, 7, 53, 0
15, 12000, Note_on_c, 7, 53, 48
15, 12119, Note_on_c, 7, 53, 0
15, 12120, Note_on_c, 7, 53, 48
15, 12239, Note_on_c, 7, 53, 0
15, 12240, Note_on_c, 7, 52, 72
15, 12359, Note_on_c, 7, 52, 0
15, 12360, Note_on_c, 7, 52, 72
15, 12479, Note_on_c, 7, 52, 0
15, 12480, Note_on_c, 7, 52, 48
15, 12599, Note_on_c, 7, 52, 0
15, 12600, Note_on_c, 7, 52, 48
15, 12719, Note_on_c, 7, 52, 0
15, 12720, Note_on_c, 7, 52, 48
15, 12839, Note_on_c, 7, 52, 0
15, 12840, Note_on_c, 7, 52, 48
15, 12959, Note_on_c, 7, 52, 0
15, 12960, Note_on_c, 7, 53, 72
15, 13079, Note_on_c, 7, 53, 0
15, 13080, Note_on_c, 7, 53, 72
15, 13199, Note_on_c, 7, 53, 0
15, 13200, Note_on_c, 7, 53, 48
15, 13319, Note_on_c, 7, 53, 0
15, 13320, Note_on_c, 7, 53, 48
15, 13439, Note_on_c, 7, 53, 0
15, 13440, Note_on_c, 7, 50, 48
15, 13559, Note_on_c, 7, 50, 0
15, 13560, Note_on_c, 7, 50, 48
15, 13679, Note_on_c, 7, 50, 0
15, 13680, Note_on_c, 7, 47, 72
15, 13799, Note_on_c, 7, 47, 0
15, 13800, Note_on_c, 7, 47, 72
15, 13919, Note_on_c, 7, 47, 0
15, 13920, Note_on_c, 7, 47, 48
15, 14039, Note_on_c, 7, 47, 0
15, 14040, Note_on_c, 7, 47, 48
15, 14159, Note_on_c, 7, 47, 0
15, 14160, Note_on_c, 7, 47, 48
15, 14279, Note_on_c, 7, 47, 0
15, 14280, Note_on_c, 7, 47, 48
15, 14399, Note_on_c, 7, 47, 0
15, 14400, Note_on_c, 7, 48, 72
15, 14519, Note_on_c, 7, 48, 0
15, 14520, Note_on_c, 7, 48, 72
15, 14639, Note_on_c, 7, 48, 0
15, 14640, Note_on_c, 7, 48, 48
15, 14759, Note_on_c, 7, 48, 0
15, 14760, Note_on_c, 7, 48, 48
15, 14879, Note_on_c, 7, 48, 0
15, 14880, Note_on_c, 7, 48, 48
15, 14999, Note_on_c, 7, 48, 0
15, 15000, Note_on_c, 7, 48, 48
15, 15119, Note_on_c, 7, 48, 0
15, 15120, Note_on_c, 7, 49, 72
15, 15239, Note_on_c, 7, 49, 0
15, 15240, Note_on_c, 7, 49, 72
15, 15359, Note_on_c, 7, 49, 0
15, 15360, Note_on_c, 7, 49, 48
15, 15479, Note_on_c, 7, 49, 0
15, 15480, Note_on_c, 7, 49, 48
15, 15599, Note_on_c, 7, 49, 0
15, 15600, Note_on_c, 7, 50, 48
15, 15719, Note_on_c, 7, 50, 0
15, 15720, Note_on_c, 7, 50, 48
15, 15839, Note_on_c, 7, 50, 0
15, 15840, Note_on_c, 7, 51, 84
15, 15959, Note_on_c, 7, 51, 0
15, 15960, Note_on_c, 7, 51, 84
15, 16079, Note_on_c, 7, 51, 0
15, 16080, Note_on_c, 7, 51, 84
15, 16199, Note_on_c, 7, 51, 0
15, 16200, Note_on_c, 7, 51, 84
15, 16319, Note_on_c, 7, 51, 0
15, 16320, Note_on_c, 7, 51, 84
15, 16439, Note_on_c, 7, 51, 0
15, 16440, Note_on_c, 7, 51, 84
15, 16559, Note_on_c, 7, 51, 0
15, 16560, Note_on_c, 7, 52, 84
15, 16799, Note_on_c, 7, 52, 0
15, 17280, Note_on_c, 7, 43, 48
15, 17519, Note_on_c, 7, 43, 0
15, 18720, Note_on_c, 7, 48, 48
15, 18839, Note_on_c, 7, 48, 0
15, 18840, Note_on_c, 7, 48, 48
15, 18959, Note_on_c, 7, 48, 0
15, 18960, Note_on_c, 7, 48, 48
15, 19079, Note_on_c, 7, 48, 0
15, 19080, Note_on_c, 7, 48, 48
15, 19199, Note_on_c, 7, 48, 0
15, 19200, Note_on_c, 7, 52, 48
15, 19319, Note_on_c, 7, 52, 0
15, 19320, Note_on_c, 7, 52, 48
15, 19439, Note_on_c, 7, 52, 0
15, 19440, Note_on_c, 7, 53, 48
15, 19559, Note_on_c, 7, 53, 0
15, 19560, Note_on_c, 7, 53, 48
15, 19679, Note_on_c, 7, 53, 0
15, 19680, Note_on_c, 7, 53, 48
15, 19799, Note_on_c, 7, 53, 0
15, 19800, Note_on_c, 7, 53, 48
15, 19919, Note_on_c, 7, 53, 0
15, 19920, Note_on_c, 7, 50, 48
15, 20039, Note_on_c, 7, 50, 0
15, 20040, Note_on_c, 7, 50, 48
15, 20159, Note_on_c, 7, 50, 0
15, 20160, Note_on_c, 7, 47, 48
15, 20279, Note_on_c, 7, 47, 0
15, 20280, Note_on_c, 7, 47, 48
15, 20399, Note_on_c, 7, 47, 0
15, 20400, Note_on_c, 7, 48, 48
15, 20519, Note_on_c, 7, 48, 0
15, 20520, Note_on_c, 7, 48, 48
15, 20639, Note_on_c, 7, 48, 0
15, 20640, Note_on_c, 7, 45, 48
15, 20759, Note_on_c, 7, 45, 0
15, 20760, Note_on_c, 7, 45, 48
15, 20879, Note_on_c, 7, 45, 0
15, 20880, Note_on_c, 7, 43, 48
15, 20999, Note_on_c, 7, 43, 0
15, 21000, Note_on_c, 7, 43, 48
15, 21119, Note_on_c, 7, 43, 0
15, 21120, Note_on_c, 7, 43, 48
15, 21239, Note_on_c, 7, 43, 0
15, 21240, Note_on_c, 7, 43, 48
15, 21359, Note_on_c, 7, 43, 0
15, 21360, Note_on_c, 7, 43, 48
15, 21479, Note_on_c, 7, 43, 0
15, 21480, Note_on_c, 7, 43, 48
15, 21599, Note_on_c, 7, 43, 0
15, 21600, Note_on_c, 7, 48, 48
15, 21719, Note_on_c, 7, 48, 0
15, 21720, Note_on_c, 7, 48, 48
15, 21839, Note_on_c, 7, 48, 0
15, 21840, Note_on_c, 7, 52, 48
15, 21959, Note_on_c, 7, 52, 0
15, 21960, Note_on_c, 7, 52, 48
15, 22079, Note_on_c, 7, 52, 0
15, 22080, Note_on_c, 7, 52, 48
15, 22199, Note_on_c, 7, 52, 0
15, 22200, Note_on_c, 7, 52, 48
15, 22319, Note_on_c, 7, 52, 0
15, 22320, Note_on_c, 7, 53, 48
15, 22439, Note_on_c, 7, 53, 0
15, 22440, Note_on_c, 7, 53, 48
15, 22559, Note_on_c, 7, 53, 0
15, 22560, Note_on_c, 7, 53, 48
15, 22679, Note_on_c, 7, 53, 0
15, 22680, Note_on_c, 7, 53, 48
15, 22799, Note_on_c, 7, 53, 0
15, 22800, Note_on_c, 7, 53, 48
15, 22919, Note_on_c, 7, 53, 0
15, 22920, Note_on_c, 7, 53, 48
15, 23039, Note_on_c, 7, 53, 0
15, 23040, Note_on_c, 7, 55, 48
15, 23159, Note_on_c, 7, 55, 0
15, 23160, Note_on_c, 7, 55, 48
15, 23279, Note_on_c, 7, 55, 0
15, 23280, Note_on_c, 7, 55, 48
15, 23399, Note_on_c, 7, 55, 0
15, 23400, Note_on_c, 7, 55, 48
15, 23519, Note_on_c, 7, 55, 0
15, 23520, Note_on_c, 7, 43, 48
15, 23639, Note_on_c, 7, 43, 0
15, 23640, Note_on_c, 7, 43, 48
15, 23759, Note_on_c, 7, 43, 0
15, 23760, Note_on_c, 7, 48, 72
15, 23879, Note_on_c, 7, 48, 0
15, 23880, Note_on_c, 7, 60, 72
15, 23999, Note_on_c, 7, 60, 0
15, 24000, Note_on_c, 7, 60, 72
15, 24119, Note_on_c, 7, 60, 0
15, 24120, Note_on_c, 7, 60, 72
15, 24239, Note_on_c, 7, 60, 0
15, 24240, Note_on_c, 7, 60, 72
15, 24359, Note_on_c, 7, 60, 0
15, 24360, Note_on_c, 7, 60, 72
15, 24479, Note_on_c, 7, 60, 0
15, 24480, Note_on_c, 7, 59, 72
15, 24599, Note_on_c, 7, 59, 0
15, 24600, Note_on_c, 7, 59, 72
15, 24719, Note_on_c, 7, 59, 0
15, 24720, Note_on_c, 7, 59, 72
15, 24839, Note_on_c, 7, 59, 0
15, 24840, Note_on_c, 7, 59, 72
15, 24959, Note_on_c, 7, 59, 0
15, 24960, Note_on_c, 7, 59, 72
15, 25079, Note_on_c, 7, 59, 0
15, 25080, Note_on_c, 7, 59, 72
15, 25199, Note_on_c, 7, 59, 0
15, 25200, Note_on_c, 7, 60, 72
15, 25319, Note_on_c, 7, 60, 0
15, 25320, Note_on_c, 7, 60, 72
15, 25439, Note_on_c, 7, 60, 0
15, 25440, Note_on_c, 7, 60, 72
15, 25559, Note_on_c, 7, 60, 0
15, 25560, Note_on_c, 7, 60, 72
15, 25679, Note_on_c, 7, 60, 0
15, 25680, Note_on_c, 7, 60, 72
15, 25799, Note_on_c, 7, 60, 0
15, 25800, Note_on_c, 7, 60, 72
15, 25919, Note_on_c, 7, 60, 0
15, 25920, Note_on_c, 7, 59, 72
15, 26039, Note_on_c, 7, 59, 0
15, 26040, Note_on_c, 7, 59, 72
15, 26159, Note_on_c, 7, 59, 0
15, 26160, Note_on_c, 7, 59, 72
15, 26279, Note_on_c, 7, 59, 0
15, 26280, Note_on_c, 7, 59, 72
15, 26399, Note_on_c, 7, 59, 0
15, 26400, Note_on_c, 7, 59, 72
15, 26519, Note_on_c, 7, 59, 0
15, 26520, Note_on_c, 7, 59, 72
15, 26639, Note_on_c, 7, 59, 0
15, 26640, Note_on_c, 7, 58, 72
15, 26759, Note_on_c, 7, 58, 0
15, 26760, Note_on_c, 7, 58, 72
15, 26879, Note_on_c, 7, 58, 0
15, 26880, Note_on_c, 7, 58, 72
15, 26999, Note_on_c, 7, 58, 0
15, 27000, Note_on_c, 7, 58, 72
15, 27119, Note_on_c, 7, 58, 0
15, 27120, Note_on_c, 7, 58, 72
15, 27239, Note_on_c, 7, 58, 0
15, 27240, Note_on_c, 7, 58, 72
15, 27359, Note_on_c, 7, 58, 0
15, 27360, Note_on_c, 7, 58, 72
15, 27479, Note_on_c, 7, 58, 0
15, 27480, Note_on_c, 7, 58, 72
15, 27599, Note_on_c, 7, 58, 0
15, 27600, Note_on_c, 7, 58, 72
15, 27719, Note_on_c, 7, 58, 0
15, 27720, Note_on_c, 7, 58, 72
15, 27839, Note_on_c, 7, 58, 0
15, 27840, Note_on_c, 7, 58, 72
15, 27959, Note_on_c, 7, 58, 0
15, 27960, Note_on_c, 7, 58, 72
15, 28079, Note_on_c, 7, 58, 0
15, 28080, Note_on_c, 7, 57, 72
15, 28199, Note_on_c, 7, 57, 0
15, 28200, Note_on_c, 7, 57, 72
15, 28319, Note_on_c, 7, 57, 0
15, 28320, Note_on_c, 7, 57, 72
15, 28439, Note_on_c, 7, 57, 0
15, 28440, Note_on_c, 7, 57, 72
15, 28559, Note_on_c, 7, 57, 0
15, 28560, Note_on_c, 7, 57, 72
15, 28679, Note_on_c, 7, 57, 0
15, 28680, Note_on_c, 7, 57, 72
15, 28799, Note_on_c, 7, 57, 0
15, 28800, Note_on_c, 7, 58, 72
15, 28919, Note_on_c, 7, 58, 0
15, 28920, Note_on_c, 7, 58, 72
15, 29039, Note_on_c, 7, 58, 0
15, 29040, Note_on_c, 7, 58, 48
15, 29159, Note_on_c, 7, 58, 0
15, 29160, Note_on_c, 7, 58, 48
15, 29279, Note_on_c, 7, 58, 0
15, 29280, Note_on_c, 7, 58, 48
15, 29399, Note_on_c, 7, 58, 0
15, 29400, Note_on_c, 7, 58, 48
15, 29519, Note_on_c, 7, 58, 0
15, 29520, Note_on_c, 7, 50, 48
15, 29639, Note_on_c, 7, 50, 0
15, 29640, Note_on_c, 7, 50, 48
15, 29759, Note_on_c, 7, 50, 0
15, 29760, Note_on_c, 7, 50, 48
15, 29879, Note_on_c, 7, 50, 0
15, 29880, Note_on_c, 7, 50, 48
15, 29999, Note_on_c, 7, 50, 0
15, 30000, Note_on_c, 7, 50, 48
15, 30119, Note_on_c, 7, 50, 0
15, 30120, Note_on_c, 7, 50, 48
15, 30239, Note_on_c, 7, 50, 0
15, 30240, Note_on_c, 7, 51, 48
15, 30359, Note_on_c, 7, 51, 0
15, 30360, Note_on_c, 7, 51, 48
15, 30479, Note_on_c, 7, 51, 0
15, 30480, Note_on_c, 7, 51, 48
15, 30599, Note_on_c, 7, 51, 0
15, 30600, Note_on_c, 7, 51, 48
15, 30719, Note_on_c, 7, 51, 0
15, 30720, Note_on_c, 7, 51, 48
15, 30839, Note_on_c, 7, 51, 0
15, 30840, Note_on_c, 7, 52, 48
15, 30959, Note_on_c, 7, 52, 0
15, 30960, Note_on_c, 7, 53, 48
15, 31079, Note_on_c, 7, 53, 0
15, 31080, Note_on_c, 7, 53, 48
15, 31199, Note_on_c, 7, 53, 0
15, 31200, Note_on_c, 7, 53, 48
15, 31319, Note_on_c, 7, 53, 0
15, 31320, Note_on_c, 7, 53, 48
15, 31439, Note_on_c, 7, 53, 0
15, 31440, Note_on_c, 7, 53, 48
15, 31559, Note_on_c, 7, 53, 0
15, 31560, Note_on_c, 7, 53, 48
15, 31679, Note_on_c, 7, 53, 0
15, 31680, Note_on_c, 7, 55, 48
15, 32399, Note_on_c, 7, 55, 0
15, 33360, Note_on_c, 7, 54, 48
15, 33479, Note_on_c, 7, 54, 0
15, 33480, Note_on_c, 7, 54, 48
15, 33599, Note_on_c, 7, 54, 0
15, 33600, Note_on_c, 7, 54, 48
15, 33719, Note_on_c, 7, 54, 0
15, 33720, Note_on_c, 7, 54, 48
15, 33839, Note_on_c, 7, 54, 0
15, 33840, Note_on_c, 7, 53, 48
15, 33959, Note_on_c, 7, 53, 0
15, 33960, Note_on_c, 7, 53, 51
15, 34079, Note_on_c, 7, 53, 0
15, 34080, Note_on_c, 7, 53, 54
15, 34199, Note_on_c, 7, 53, 0
15, 34200, Note_on_c, 7, 53, 54
15, 34319, Note_on_c, 7, 53, 0
15, 34320, Note_on_c, 7, 53, 57
15, 34439, Note_on_c, 7, 53, 0
15, 34440, Note_on_c, 7, 53, 57
15, 34559, Note_on_c, 7, 53, 0
15, 34560, Note_on_c, 7, 54, 60
15, 34679, Note_on_c, 7, 54, 0
15, 34680, Note_on_c, 7, 54, 63
15, 34799, Note_on_c, 7, 54, 0
15, 34800, Note_on_c, 7, 54, 63
15, 34919, Note_on_c, 7, 54, 0
15, 34920, Note_on_c, 7, 54, 66
15, 35039, Note_on_c, 7, 54, 0
15, 35040, Note_on_c, 7, 54, 66
15, 35159, Note_on_c, 7, 54, 0
15, 35160, Note_on_c, 7, 54, 69
15, 35279, Note_on_c, 7, 54, 0
15, 35280, Note_on_c, 7, 53, 72
15, 35399, Note_on_c, 7, 53, 0
15, 35400, Note_on_c, 7, 53, 72
15, 35519, Note_on_c, 7, 53, 0
15, 35520, Note_on_c, 7, 53, 72
15, 35639, Note_on_c, 7, 53, 0
15, 35640, Note_on_c, 7, 53, 72
15, 35759, Note_on_c, 7, 53, 0
15, 35760, Note_on_c, 7, 53, 72
15, 35879, Note_on_c, 7, 53, 0
15, 35880, Note_on_c, 7, 53, 72
15, 35999, Note_on_c, 7, 53, 0
15, 36000, Note_on_c, 7, 53, 72
15, 36719, Note_on_c, 7, 53, 0
15, 39240, Note_on_c, 7, 58, 48
15, 39419, Note_on_c, 7, 58, 0
15, 39420, Note_on_c, 7, 60, 48
15, 39479, Note_on_c, 7, 60, 0
15, 39480, Note_on_c, 7, 58, 48
15, 39539, Note_on_c, 7, 58, 0
15, 39540, Note_on_c, 7, 57, 48
15, 39599, Note_on_c, 7, 57, 0
15, 39600, Note_on_c, 7, 55, 48
15, 39659, Note_on_c, 7, 55, 0
15, 39660, Note_on_c, 7, 53, 48
15, 39719, Note_on_c, 7, 53, 0
15, 39720, Note_on_c, 7, 51, 48
15, 39779, Note_on_c, 7, 51, 0
15, 39780, Note_on_c, 7, 50, 48
15, 39839, Note_on_c, 7, 50, 0
15, 39840, Note_on_c, 7, 48, 48
15, 40079, Note_on_c, 7, 48, 0
15, 40080, Note_on_c, 7, 50, 48
15, 40259, Note_on_c, 7, 50, 0
15, 40260, Note_on_c, 7, 52, 48
15, 40319, Note_on_c, 7, 52, 0
15, 40320, Note_on_c, 7, 53, 48
15, 40559, Note_on_c, 7, 53, 0
15, 40560, Note_on_c, 7, 46, 48
15, 40799, Note_on_c, 7, 46, 0
15, 41400, Note_on_c, 7, 60, 48
15, 41579, Note_on_c, 7, 60, 0
15, 41580, Note_on_c, 7, 62, 48
15, 41639, Note_on_c, 7, 62, 0
15, 41640, Note_on_c, 7, 60, 48
15, 41699, Note_on_c, 7, 60, 0
15, 41700, Note_on_c, 7, 58, 48
15, 41759, Note_on_c, 7, 58, 0
15, 41760, Note_on_c, 7, 57, 48
15, 41819, Note_on_c, 7, 57, 0
15, 41820, Note_on_c, 7, 58, 48
15, 41879, Note_on_c, 7, 58, 0
15, 41880, Note_on_c, 7, 57, 48
15, 41939, Note_on_c, 7, 57, 0
15, 41940, Note_on_c, 7, 55, 48
15, 41999, Note_on_c, 7, 55, 0
15, 42000, Note_on_c, 7, 53, 48
15, 42359, Note_on_c, 7, 53, 0
15, 42360, Note_on_c, 7, 51, 48
15, 42479, Note_on_c, 7, 51, 0
15, 42480, Note_on_c, 7, 50, 48
15, 42539, Note_on_c, 7, 50, 0
15, 42540, Note_on_c, 7, 51, 48
15, 42599, Note_on_c, 7, 51, 0
15, 42600, Note_on_c, 7, 50, 48
15, 42659, Note_on_c, 7, 50, 0
15, 42660, Note_on_c, 7, 48, 48
15, 42719, Note_on_c, 7, 48, 0
15, 42720, Note_on_c, 7, 46, 48
15, 42779, Note_on_c, 7, 46, 0
15, 42780, Note_on_c, 7, 45, 48
15, 42839, Note_on_c, 7, 45, 0
15, 42840, Note_on_c, 7, 46, 48
15, 42899, Note_on_c, 7, 46, 0
15, 42900, Note_on_c, 7, 48, 48
15, 42959, Note_on_c, 7, 48, 0
15, 42960, Note_on_c, 7, 50, 48
15, 43439, Note_on_c, 7, 50, 0
15, 43440, Note_on_c, 7, 55, 48
15, 43679, Note_on_c, 7, 55, 0
15, 53520, Note_on_c, 7, 57, 72
15, 53759, Note_on_c, 7, 57, 0
15, 53760, Note_on_c, 7, 59, 72
15, 53999, Note_on_c, 7, 59, 0
15, 54000, Note_on_c, 7, 60, 72
15, 54119, Note_on_c, 7, 60, 0
15, 55080, Note_on_c, 7, 62, 72
15, 55259, Note_on_c, 7, 62, 0
15, 55260, Note_on_c, 7, 63, 72
15, 55319, Note_on_c, 7, 63, 0
15, 55320, Note_on_c, 7, 62, 72
15, 55379, Note_on_c, 7, 62, 0
15, 55380, Note_on_c, 7, 60, 72
15, 55439, Note_on_c, 7, 60, 0
15, 55440, Note_on_c, 7, 58, 72
15, 55559, Note_on_c, 7, 58, 0
15, 66600, Note_on_c, 7, 64, 72
15, 66719, Note_on_c, 7, 64, 0
15, 66720, Note_on_c, 7, 64, 72
15, 66839, Note_on_c, 7, 64, 0
15, 66840, Note_on_c, 7, 64, 72
15, 66959, Note_on_c, 7, 64, 0
15, 66960, Note_on_c, 7, 65, 72
15, 67019, Note_on_c, 7, 65, 0
15, 67020, Note_on_c, 7, 67, 72
15, 67079, Note_on_c, 7, 67, 0
15, 67080, Note_on_c, 7, 65, 72
15, 67139, Note_on_c, 7, 65, 0
15, 67140, Note_on_c, 7, 64, 72
15, 67199, Note_on_c, 7, 64, 0
15, 67200, Note_on_c, 7, 65, 72
15, 67259, Note_on_c, 7, 65, 0
15, 67260, Note_on_c, 7, 67, 72
15, 67319, Note_on_c, 7, 67, 0
15, 67320, Note_on_c, 7, 64, 72
15, 67379, Note_on_c, 7, 64, 0
15, 67380, Note_on_c, 7, 65, 72
15, 67439, Note_on_c, 7, 65, 0
15, 67440, Note_on_c, 7, 67, 72
15, 67499, Note_on_c, 7, 67, 0
15, 67500, Note_on_c, 7, 69, 72
15, 67559, Note_on_c, 7, 69, 0
15, 67560, Note_on_c, 7, 67, 72
15, 67619, Note_on_c, 7, 67, 0
15, 67620, Note_on_c, 7, 65, 72
15, 67679, Note_on_c, 7, 65, 0
15, 67680, Note_on_c, 7, 67, 72
15, 67739, Note_on_c, 7, 67, 0
15, 67740, Note_on_c, 7, 69, 72
15, 67799, Note_on_c, 7, 69, 0
15, 67800, Note_on_c, 7, 65, 72
15, 67859, Note_on_c, 7, 65, 0
15, 67860, Note_on_c, 7, 67, 72
15, 67919, Note_on_c, 7, 67, 0
15, 67920, Note_on_c, 7, 69, 72
15, 68039, Note_on_c, 7, 69, 0
15, 68040, Note_on_c, 7, 70, 72
15, 68099, Note_on_c, 7, 70, 0
15, 68100, Note_on_c, 7, 69, 72
15, 68159, Note_on_c, 7, 69, 0
15, 68160, Note_on_c, 7, 67, 72
15, 68219, Note_on_c, 7, 67, 0
15, 68220, Note_on_c, 7, 65, 72
15, 68279, Note_on_c, 7, 65, 0
15, 68280, Note_on_c, 7, 64, 72
15, 68339, Note_on_c, 7, 64, 0
15, 68340, Note_on_c, 7, 62, 72
15, 68399, Note_on_c, 7, 62, 0
15, 68400, Note_on_c, 7, 61, 72
15, 68519, Note_on_c, 7, 61, 0
15, 68520, Note_on_c, 7, 64, 72
15, 68639, Note_on_c, 7, 64, 0
15, 68640, Note_on_c, 7, 69, 72
15, 68759, Note_on_c, 7, 69, 0
15, 68760, Note_on_c, 7, 67, 72
15, 68879, Note_on_c, 7, 67, 0
15, 78600, Note_on_c, 7, 62, 72
15, 78719, Note_on_c, 7, 62, 0
15, 78720, Note_on_c, 7, 60, 72
15, 78839, Note_on_c, 7, 60, 0
15, 78840, Note_on_c, 7, 59, 72
15, 78959, Note_on_c, 7, 59, 0
15, 78960, Note_on_c, 7, 57, 72
15, 79079, Note_on_c, 7, 57, 0
15, 79560, Note_on_c, 7, 50, 72
15, 79679, Note_on_c, 7, 50, 0
15, 79680, Note_on_c, 7, 52, 72
15, 79799, Note_on_c, 7, 52, 0
15, 79800, Note_on_c, 7, 54, 72
15, 79919, Note_on_c, 7, 54, 0
15, 79920, Note_on_c, 7, 55, 72
15, 80039, Note_on_c, 7, 55, 0
15, 81000, Note_on_c, 7, 55, 72
15, 81059, Note_on_c, 7, 55, 0
15, 81060, Note_on_c, 7, 57, 72
15, 81119, Note_on_c, 7, 57, 0
15, 81120, Note_on_c, 7, 58, 72
15, 81179, Note_on_c, 7, 58, 0
15, 81180, Note_on_c, 7, 55, 72
15, 81239, Note_on_c, 7, 55, 0
15, 81240, Note_on_c, 7, 57, 72
15, 81299, Note_on_c, 7, 57, 0
15, 81300, Note_on_c, 7, 58, 72
15, 81359, Note_on_c, 7, 58, 0
15, 81360, Note_on_c, 7, 60, 72
15, 81479, Note_on_c, 7, 60, 0
15, 85440, Note_on_c, 7, 55, 72
15, 85559, Note_on_c, 7, 55, 0
15, 85560, Note_on_c, 7, 55, 72
15, 85679, Note_on_c, 7, 55, 0
15, 85680, Note_on_c, 7, 57, 72
15, 86039, Note_on_c, 7, 57, 0
15, 86040, Note_on_c, 7, 55, 72
15, 86099, Note_on_c, 7, 55, 0
15, 86100, Note_on_c, 7, 57, 72
15, 86159, Note_on_c, 7, 57, 0
15, 86160, Note_on_c, 7, 58, 72
15, 86279, Note_on_c, 7, 58, 0
15, 86280, Note_on_c, 7, 57, 72
15, 86339, Note_on_c, 7, 57, 0
15, 86340, Note_on_c, 7, 58, 72
15, 86399, Note_on_c, 7, 58, 0
15, 86400, Note_on_c, 7, 60, 72
15, 86519, Note_on_c, 7, 60, 0
15, 86520, Note_on_c, 7, 58, 72
15, 86579, Note_on_c, 7, 58, 0
15, 86580, Note_on_c, 7, 60, 72
15, 86639, Note_on_c, 7, 60, 0
15, 86640, Note_on_c, 7, 62, 72
15, 86759, Note_on_c, 7, 62, 0
15, 86760, Note_on_c, 7, 60, 72
15, 86879, Note_on_c, 7, 60, 0
15, 86880, Note_on_c, 7, 58, 72
15, 86999, Note_on_c, 7, 58, 0
15, 87000, Note_on_c, 7, 57, 72
15, 87119, Note_on_c, 7, 57, 0
15, 92040, Note_on_c, 7, 53, 72
15, 92159, Note_on_c, 7, 53, 0
15, 92160, Note_on_c, 7, 53, 72
15, 92279, Note_on_c, 7, 53, 0
15, 92280, Note_on_c, 7, 53, 72
15, 92399, Note_on_c, 7, 53, 0
15, 92400, Note_on_c, 7, 55, 72
15, 92459, Note_on_c, 7, 55, 0
15, 92460, Note_on_c, 7, 57, 72
15, 92519, Note_on_c, 7, 57, 0
15, 92520, Note_on_c, 7, 55, 72
15, 92579, Note_on_c, 7, 55, 0
15, 92580, Note_on_c, 7, 53, 72
15, 92639, Note_on_c, 7, 53, 0
15, 92640, Note_on_c, 7, 55, 72
15, 92699, Note_on_c, 7, 55, 0
15, 92700, Note_on_c, 7, 57, 72
15, 92759, Note_on_c, 7, 57, 0
15, 92760, Note_on_c, 7, 53, 72
15, 92819, Note_on_c, 7, 53, 0
15, 92820, Note_on_c, 7, 55, 72
15, 92879, Note_on_c, 7, 55, 0
15, 96360, Note_on_c, 7, 53, 72
15, 96479, Note_on_c, 7, 53, 0
15, 96480, Note_on_c, 7, 58, 72
15, 96599, Note_on_c, 7, 58, 0
15, 96600, Note_on_c, 7, 55, 72
15, 96719, Note_on_c, 7, 55, 0
15, 99240, Note_on_c, 7, 55, 72
15, 99359, Note_on_c, 7, 55, 0
15, 99360, Note_on_c, 7, 60, 72
15, 99479, Note_on_c, 7, 60, 0
15, 99480, Note_on_c, 7, 58, 72
15, 99599, Note_on_c, 7, 58, 0
15, 99600, Note_on_c, 7, 57, 72
15, 99719, Note_on_c, 7, 57, 0
15, 99720, Note_on_c, 7, 50, 72
15, 99839, Note_on_c, 7, 50, 0
15, 99840, Note_on_c, 7, 58, 72
15, 99959, Note_on_c, 7, 58, 0
15, 99960, Note_on_c, 7, 57, 72
15, 100079, Note_on_c, 7, 57, 0
15, 100080, Note_on_c, 7, 54, 72
15, 100199, Note_on_c, 7, 54, 0
15, 100200, Note_on_c, 7, 58, 72
15, 100319, Note_on_c, 7, 58, 0
15, 100320, Note_on_c, 7, 67, 72
15, 100439, Note_on_c, 7, 67, 0
15, 100440, Note_on_c, 7, 65, 72
15, 100559, Note_on_c, 7, 65, 0
15, 100560, Note_on_c, 7, 64, 72
15, 100679, Note_on_c, 7, 64, 0
15, 106440, Note_on_c, 7, 57, 72
15, 106559, Note_on_c, 7, 57, 0
15, 106560, Note_on_c, 7, 59, 72
15, 106679, Note_on_c, 7, 59, 0
15, 106680, Note_on_c, 7, 61, 72
15, 106799, Note_on_c, 7, 61, 0
15, 106800, Note_on_c, 7, 62, 72
15, 106919, Note_on_c, 7, 62, 0
15, 106920, Note_on_c, 7, 50, 72
15, 107039, Note_on_c, 7, 50, 0
15, 107040, Note_on_c, 7, 55, 72
15, 107159, Note_on_c, 7, 55, 0
15, 107160, Note_on_c, 7, 52, 72
15, 107279, Note_on_c, 7, 52, 0
15, 107280, Note_on_c, 7, 57, 72
15, 107399, Note_on_c, 7, 57, 0
15, 109800, Note_on_c, 7, 57, 72
15, 109919, Note_on_c, 7, 57, 0
15, 109920, Note_on_c, 7, 62, 72
15, 110039, Note_on_c, 7, 62, 0
15, 110040, Note_on_c, 7, 60, 72
15, 110159, Note_on_c, 7, 60, 0
15, 110160, Note_on_c, 7, 59, 72
15, 110279, Note_on_c, 7, 59, 0
15, 110280, Note_on_c, 7, 59, 72
15, 110399, Note_on_c, 7, 59, 0
15, 110400, Note_on_c, 7, 64, 72
15, 110519, Note_on_c, 7, 64, 0
15, 110519, End_track
16, 0, Start_track
16, 0, Title_t, "Contrabass"
16, 0, MIDI_port, 0
16, 0, Program_c, 8, 48
16, 0, Control_c, 8, 7, 104
16, 0, Control_c, 8, 10, 112
16, 0, Control_c, 8, 11, 127
16, 0, Note_on_c, 8, 38, 66
16, 119, Note_on_c, 8, 38, 0
16, 120, Note_on_c, 8, 38, 66
16, 239, Note_on_c, 8, 38, 0
16, 240, Note_on_c, 8, 38, 48
16, 359, Note_on_c, 8, 38, 0
16, 360, Note_on_c, 8, 38, 48
16, 479, Note_on_c, 8, 38, 0
16, 480, Note_on_c, 8, 38, 48
16, 599, Note_on_c, 8, 38, 0
16, 600, Note_on_c, 8, 38, 48
16, 719, Note_on_c, 8, 38, 0
16, 720, Note_on_c, 8, 38, 66
16, 839, Note_on_c, 8, 38, 0
16, 840, Note_on_c, 8, 38, 66
16, 959, Note_on_c, 8, 38, 0
16, 960, Note_on_c, 8, 38, 48
16, 1079, Note_on_c, 8, 38, 0
16, 1080, Note_on_c, 8, 38, 48
16, 1199, Note_on_c, 8, 38, 0
16, 1200, Note_on_c, 8, 38, 48
16, 1319, Note_on_c, 8, 38, 0
16, 1320, Note_on_c, 8, 38, 48
16, 1439, Note_on_c, 8, 38, 0
16, 1440, Note_on_c, 8, 37, 66
16, 1559, Note_on_c, 8, 37, 0
16, 1560, Note_on_c, 8, 37, 66
16, 1679, Note_on_c, 8, 37, 0
16, 1680, Note_on_c, 8, 37, 48
16, 1799, Note_on_c, 8, 37, 0
16, 1800, Note_on_c, 8, 37, 48
16, 1919, Note_on_c, 8, 37, 0
16, 1920, Note_on_c, 8, 37, 48
16, 2039, Note_on_c, 8, 37, 0
16, 2040, Note_on_c, 8, 37, 48
16, 2159, Note_on_c, 8, 37, 0
16, 2160, Note_on_c, 8, 38, 66
16, 2279, Note_on_c, 8, 38, 0
16, 2280, Note_on_c, 8, 38, 66
16, 2399, Note_on_c, 8, 38, 0
16, 2400, Note_on_c, 8, 38, 48
16, 2519, Note_on_c, 8, 38, 0
16, 2520, Note_on_c, 8, 38, 48
16, 2639, Note_on_c, 8, 38, 0
16, 2640, Note_on_c, 8, 38, 48
16, 2759, Note_on_c, 8, 38, 0
16, 2760, Note_on_c, 8, 38, 48
16, 2879, Note_on_c, 8, 38, 0
16, 2880, Note_on_c, 8, 40, 66
16, 2999, Note_on_c, 8, 40, 0
16, 3000, Note_on_c, 8, 40, 66
16, 3119, Note_on_c, 8, 40, 0
16, 3120, Note_on_c, 8, 40, 48
16, 3239, Note_on_c, 8, 40, 0
16, 3240, Note_on_c, 8, 40, 48
16, 3359, Note_on_c, 8, 40, 0
16, 3360, Note_on_c, 8, 40, 48
16, 3479, Note_on_c, 8, 40, 0
16, 3480, Note_on_c, 8, 40, 48
16, 3599, Note_on_c, 8, 40, 0
16, 3600, Note_on_c, 8, 41, 66
16, 3719, Note_on_c, 8, 41, 0
16, 3720, Note_on_c, 8, 41, 66
16, 3839, Note_on_c, 8, 41, 0
16, 3840, Note_on_c, 8, 41, 48
16, 3959, Note_on_c, 8, 41, 0
16, 3960, Note_on_c, 8, 41, 48
16, 4079, Note_on_c, 8, 41, 0
16, 4080, Note_on_c, 8, 41, 48
16, 4199, Note_on_c, 8, 41, 0
16, 4200, Note_on_c, 8, 41, 48
16, 4319, Note_on_c, 8, 41, 0
16, 4320, Note_on_c, 8, 43, 66
16, 4439, Note_on_c, 8, 43, 0
16, 4440, Note_on_c, 8, 43, 66
16, 4559, Note_on_c, 8, 43, 0
16, 4560, Note_on_c, 8, 43, 48
16, 4679, Note_on_c, 8, 43, 0
16, 4680, Note_on_c, 8, 43, 48
16, 4799, Note_on_c, 8, 43, 0
16, 4800, Note_on_c, 8, 43, 48
16, 4919, Note_on_c, 8, 43, 0
16, 4920, Note_on_c, 8, 43, 48
16, 5039, Note_on_c, 8, 43, 0
16, 5040, Note_on_c, 8, 44, 84
16, 5159, Note_on_c, 8, 44, 0
16, 5160, Note_on_c, 8, 44, 84
16, 5279, Note_on_c, 8, 44, 0
16, 5280, Note_on_c, 8, 44, 84
16, 5399, Note_on_c, 8, 44, 0
16, 5400, Note_on_c, 8, 44, 84
16, 5519, Note_on_c, 8, 44, 0
16, 5520, Note_on_c, 8, 44, 84
16, 5639, Note_on_c, 8, 44, 0
16, 5640, Note_on_c, 8, 44, 84
16, 5759, Note_on_c, 8, 44, 0
16, 5760, Note_on_c, 8, 45, 84
16, 5999, Note_on_c, 8, 45, 0
16, 6480, Note_on_c, 8, 41, 48
16, 6599, Note_on_c, 8, 41, 0
16, 6600, Note_on_c, 8, 41, 48
16, 6719, Note_on_c, 8, 41, 0
16, 6720, Note_on_c, 8, 41, 48
16, 6839, Note_on_c, 8, 41, 0
16, 6840, Note_on_c, 8, 41, 48
16, 6959, Note_on_c, 8, 41, 0
16, 6960, Note_on_c, 8, 41, 48
16, 7079, Note_on_c, 8, 41, 0
16, 7080, Note_on_c, 8, 41, 48
16, 7199, Note_on_c, 8, 41, 0
16, 7200, Note_on_c, 8, 33, 48
16, 7319, Note_on_c, 8, 33, 0
16, 7320, Note_on_c, 8, 33, 48
16, 7439, Note_on_c, 8, 33, 0
16, 7440, Note_on_c, 8, 33, 48
16, 7559, Note_on_c, 8, 33, 0
16, 7560, Note_on_c, 8, 33, 48
16, 7679, Note_on_c, 8, 33, 0
16, 7680, Note_on_c, 8, 33, 48
16, 7799, Note_on_c, 8, 33, 0
16, 7800, Note_on_c, 8, 33, 48
16, 7919, Note_on_c, 8, 33, 0
16, 7920, Note_on_c, 8, 34, 48
16, 8039, Note_on_c, 8, 34, 0
16, 8040, Note_on_c, 8, 34, 48
16, 8159, Note_on_c, 8, 34, 0
16, 8160, Note_on_c, 8, 34, 48
16, 8279, Note_on_c, 8, 34, 0
16, 8280, Note_on_c, 8, 34, 48
16, 8399, Note_on_c, 8, 34, 0
16, 8400, Note_on_c, 8, 34, 48
16, 8519, Note_on_c, 8, 34, 0
16, 8520, Note_on_c, 8, 35, 48
16, 8639, Note_on_c, 8, 35, 0
16, 8640, Note_on_c, 8, 36, 48
16, 8759, Note_on_c, 8, 36, 0
16, 8760, Note_on_c, 8, 36, 48
16, 8879, Note_on_c, 8, 36, 0
16, 8880, Note_on_c, 8, 36, 48
16, 8999, Note_on_c, 8, 36, 0
16, 9000, Note_on_c, 8, 36, 48
16, 9119, Note_on_c, 8, 36, 0
16, 9120, Note_on_c, 8, 36, 48
16, 9239, Note_on_c, 8, 36, 0
16, 9240, Note_on_c, 8, 36, 48
16, 9359, Note_on_c, 8, 36, 0
16, 9360, Note_on_c, 8, 29, 48
16, 9599, Note_on_c, 8, 29, 0
16, 11040, Note_on_c, 8, 36, 48
16, 11279, Note_on_c, 8, 36, 0
16, 11280, Note_on_c, 8, 36, 48
16, 11519, Note_on_c, 8, 36, 0
16, 11520, Note_on_c, 8, 29, 72
16, 11639, Note_on_c, 8, 29, 0
16, 11640, Note_on_c, 8, 41, 48
16, 11759, Note_on_c, 8, 41, 0
16, 11760, Note_on_c, 8, 41, 48
16, 11879, Note_on_c, 8, 41, 0
16, 11880, Note_on_c, 8, 41, 48
16, 11999, Note_on_c, 8, 41, 0
16, 12000, Note_on_c, 8, 41, 48
16, 12119, Note_on_c, 8, 41, 0
16, 12120, Note_on_c, 8, 41, 48
16, 12239, Note_on_c, 8, 41, 0
16, 12240, Note_on_c, 8, 40, 72
16, 12359, Note_on_c, 8, 40, 0
16, 12360, Note_on_c, 8, 40, 72
16, 12479, Note_on_c, 8, 40, 0
16, 12480, Note_on_c, 8, 40, 48
16, 12599, Note_on_c, 8, 40, 0
16, 12600, Note_on_c, 8, 40, 48
16, 12719, Note_on_c, 8, 40, 0
16, 12720, Note_on_c, 8, 40, 48
16, 12839, Note_on_c, 8, 40, 0
16, 12840, Note_on_c, 8, 40, 48
16, 12959, Note_on_c, 8, 40, 0
16, 12960, Note_on_c, 8, 41, 72
16, 13079, Note_on_c, 8, 41, 0
16, 13080, Note_on_c, 8, 41, 72
16, 13199, Note_on_c, 8, 41, 0
16, 13200, Note_on_c, 8, 41, 48
16, 13319, Note_on_c, 8, 41, 0
16, 13320, Note_on_c, 8, 41, 48
16, 13439, Note_on_c, 8, 41, 0
16, 13440, Note_on_c, 8, 38, 48
16, 13559, Note_on_c, 8, 38, 0
16, 13560, Note_on_c, 8, 38, 48
16, 13679, Note_on_c, 8, 38, 0
16, 13680, Note_on_c, 8, 35, 72
16, 13799, Note_on_c, 8, 35, 0
16, 13800, Note_on_c, 8, 35, 72
16, 13919, Note_on_c, 8, 35, 0
16, 13920, Note_on_c, 8, 35, 48
16, 14039, Note_on_c, 8, 35, 0
16, 14040, Note_on_c, 8, 35, 48
16, 14159, Note_on_c, 8, 35, 0
16, 14160, Note_on_c, 8, 35, 48
16, 14279, Note_on_c, 8, 35, 0
16, 14280, Note_on_c, 8, 35, 48
16, 14399, Note_on_c, 8, 35, 0
16, 14400, Note_on_c, 8, 36, 72
16, 14519, Note_on_c, 8, 36, 0
16, 14520, Note_on_c, 8, 36, 72
16, 14639, Note_on_c, 8, 36, 0
16, 14640, Note_on_c, 8, 36, 48
16, 14759, Note_on_c, 8, 36, 0
16, 14760, Note_on_c, 8, 36, 48
16, 14879, Note_on_c, 8, 36, 0
16, 14880, Note_on_c, 8, 36, 48
16, 14999, Note_on_c, 8, 36, 0
16, 15000, Note_on_c, 8, 36, 48
16, 15119, Note_on_c, 8, 36, 0
16, 15120, Note_on_c, 8, 37, 72
16, 15239, Note_on_c, 8, 37, 0
16, 15240, Note_on_c, 8, 37, 72
16, 15359, Note_on_c, 8, 37, 0
16, 15360, Note_on_c, 8, 37, 48
16, 15479, Note_on_c, 8, 37, 0
16, 15480, Note_on_c, 8, 37, 48
16, 15599, Note_on_c, 8, 37, 0
16, 15600, Note_on_c, 8, 38, 48
16, 15719, Note_on_c, 8, 38, 0
16, 15720, Note_on_c, 8, 38, 48
16, 15839, Note_on_c, 8, 38, 0
16, 15840, Note_on_c, 8, 39, 84
16, 15959, Note_on_c, 8, 39, 0
16, 15960, Note_on_c, 8, 39, 84
16, 16079, Note_on_c, 8, 39, 0
16, 16080, Note_on_c, 8, 39, 84
16, 16199, Note_on_c, 8, 39, 0
16, 16200, Note_on_c, 8, 39, 84
16, 16319, Note_on_c, 8, 39, 0
16, 16320, Note_on_c, 8, 39, 84
16, 16439, Note_on_c, 8, 39, 0
16, 16440, Note_on_c, 8, 39, 84
16, 16559, Note_on_c, 8, 39, 0
16, 16560, Note_on_c, 8, 40, 84
16, 16799, Note_on_c, 8, 40, 0
16, 17280, Note_on_c, 8, 31, 48
16, 17519, Note_on_c, 8, 31, 0
16, 18720, Note_on_c, 8, 36, 48
16, 18839, Note_on_c, 8, 36, 0
16, 18840, Note_on_c, 8, 36, 48
16, 18959, Note_on_c, 8, 36, 0
16, 18960, Note_on_c, 8, 36, 48
16, 19079, Note_on_c, 8, 36, 0
16, 19080, Note_on_c, 8, 36, 48
16, 19199, Note_on_c, 8, 36, 0
16, 19200, Note_on_c, 8, 40, 48
16, 19319, Note_on_c, 8, 40, 0
16, 19320, Note_on_c, 8, 40, 48
16, 19439, Note_on_c, 8, 40, 0
16, 19440, Note_on_c, 8, 41, 48
16, 19559, Note_on_c, 8, 41, 0
16, 19560, Note_on_c, 8, 41, 48
16, 19679, Note_on_c, 8, 41, 0
16, 19680, Note_on_c, 8, 41, 48
16, 19799, Note_on_c, 8, 41, 0
16, 19800, Note_on_c, 8, 41, 48
16, 19919, Note_on_c, 8, 41, 0
16, 19920, Note_on_c, 8, 38, 48
16, 20039, Note_on_c, 8, 38, 0
16, 20040, Note_on_c, 8, 38, 48
16, 20159, Note_on_c, 8, 38, 0
16, 20160, Note_on_c, 8, 35, 48
16, 20279, Note_on_c, 8, 35, 0
16, 20280, Note_on_c, 8, 35, 48
16, 20399, Note_on_c, 8, 35, 0
16, 20400, Note_on_c, 8, 36, 48
16, 20519, Note_on_c, 8, 36, 0
16, 20520, Note_on_c, 8, 36, 48
16, 20639, Note_on_c, 8, 36, 0
16, 20640, Note_on_c, 8, 33, 48
16, 20759, Note_on_c, 8, 33, 0
16, 20760, Note_on_c, 8, 33, 48
16, 20879, Note_on_c, 8, 33, 0
16, 20880, Note_on_c, 8, 31, 48
16, 20999, Note_on_c, 8, 31, 0
16, 21000, Note_on_c, 8, 31, 48
16, 21119, Note_on_c, 8, 31, 0
16, 21120, Note_on_c, 8, 31, 48
16, 21239, Note_on_c, 8, 31, 0
16, 21240, Note_on_c, 8, 31, 48
16, 21359, Note_on_c, 8, 31, 0
16, 21360, Note_on_c, 8, 31, 48
16, 21479, Note_on_c, 8, 31, 0
16, 21480, Note_on_c, 8, 31, 48
16, 21599, Note_on_c, 8, 31, 0
16, 21600, Note_on_c, 8, 36, 48
16, 21719, Note_on_c, 8, 36, 0
16, 21720, Note_on_c, 8, 36, 48
16, 21839, Note_on_c, 8, 36, 0
16, 21840, Note_on_c, 8, 40, 48
16, 21959, Note_on_c, 8, 40, 0
16, 21960, Note_on_c, 8, 40, 48
16, 22079, Note_on_c, 8, 40, 0
16, 22080, Note_on_c, 8, 40, 48
16, 22199, Note_on_c, 8, 40, 0
16, 22200, Note_on_c, 8, 40, 48
16, 22319, Note_on_c, 8, 40, 0
16, 22320, Note_on_c, 8, 41, 48
16, 22439, Note_on_c, 8, 41, 0
16, 22440, Note_on_c, 8, 41, 48
16, 22559, Note_on_c, 8, 41, 0
16, 22560, Note_on_c, 8, 41, 48
16, 22679, Note_on_c, 8, 41, 0
16, 22680, Note_on_c, 8, 41, 48
16, 22799, Note_on_c, 8, 41, 0
16, 22800, Note_on_c, 8, 41, 48
16, 22919, Note_on_c, 8, 41, 0
16, 22920, Note_on_c, 8, 41, 48
16, 23039, Note_on_c, 8, 41, 0
16, 23040, Note_on_c, 8, 43, 48
16, 23159, Note_on_c, 8, 43, 0
16, 23160, Note_on_c, 8, 43, 48
16, 23279, Note_on_c, 8, 43, 0
16, 23280, Note_on_c, 8, 43, 48
16, 23399, Note_on_c, 8, 43, 0
16, 23400, Note_on_c, 8, 43, 48
16, 23519, Note_on_c, 8, 43, 0
16, 23520, Note_on_c, 8, 31, 48
16, 23639, Note_on_c, 8, 31, 0
16, 23640, Note_on_c, 8, 31, 48
16, 23759, Note_on_c, 8, 31, 0
16, 23760, Note_on_c, 8, 36, 72
16, 23879, Note_on_c, 8, 36, 0
16, 23880, Note_on_c, 8, 48, 72
16, 23999, Note_on_c, 8, 48, 0
16, 24000, Note_on_c, 8, 48, 72
16, 24119, Note_on_c, 8, 48, 0
16, 24120, Note_on_c, 8, 48, 72
16, 24239, Note_on_c, 8, 48, 0
16, 24240, Note_on_c, 8, 48, 72
16, 24359, Note_on_c, 8, 48, 0
16, 24360, Note_on_c, 8, 48, 72
16, 24479, Note_on_c, 8, 48, 0
16, 24480, Note_on_c, 8, 47, 72
16, 24599, Note_on_c, 8, 47, 0
16, 24600, Note_on_c, 8, 47, 72
16, 24719, Note_on_c, 8, 47, 0
16, 24720, Note_on_c, 8, 47, 72
16, 24839, Note_on_c, 8, 47, 0
16, 24840, Note_on_c, 8, 47, 72
16, 24959, Note_on_c, 8, 47, 0
16, 24960, Note_on_c, 8, 47, 72
16, 25079, Note_on_c, 8, 47, 0
16, 25080, Note_on_c, 8, 47, 72
16, 25199, Note_on_c, 8, 47, 0
16, 25200, Note_on_c, 8, 48, 72
16, 25319, Note_on_c, 8, 48, 0
16, 25320, Note_on_c, 8, 48, 72
16, 25439, Note_on_c, 8, 48, 0
16, 25440, Note_on_c, 8, 48, 72
16, 25559, Note_on_c, 8, 48, 0
16, 25560, Note_on_c, 8, 48, 72
16, 25679, Note_on_c, 8, 48, 0
16, 25680, Note_on_c, 8, 48, 72
16, 25799, Note_on_c, 8, 48, 0
16, 25800, Note_on_c, 8, 48, 72
16, 25919, Note_on_c, 8, 48, 0
16, 25920, Note_on_c, 8, 47, 72
16, 26039, Note_on_c, 8, 47, 0
16, 26040, Note_on_c, 8, 47, 72
16, 26159, Note_on_c, 8, 47, 0
16, 26160, Note_on_c, 8, 47, 72
16, 26279, Note_on_c, 8, 47, 0
16, 26280, Note_on_c, 8, 47, 72
16, 26399, Note_on_c, 8, 47, 0
16, 26400, Note_on_c, 8, 47, 72
16, 26519, Note_on_c, 8, 47, 0
16, 26520, Note_on_c, 8, 47, 72
16, 26639, Note_on_c, 8, 47, 0
16, 26640, Note_on_c, 8, 46, 72
16, 26759, Note_on_c, 8, 46, 0
16, 26760, Note_on_c, 8, 46, 72
16, 26879, Note_on_c, 8, 46, 0
16, 26880, Note_on_c, 8, 46, 72
16, 26999, Note_on_c, 8, 46, 0
16, 27000, Note_on_c, 8, 46, 72
16, 27119, Note_on_c, 8, 46, 0
16, 27120, Note_on_c, 8, 46, 72
16, 27239, Note_on_c, 8, 46, 0
16, 27240, Note_on_c, 8, 46, 72
16, 27359, Note_on_c, 8, 46, 0
16, 27360, Note_on_c, 8, 46, 72
16, 27479, Note_on_c, 8, 46, 0
16, 27480, Note_on_c, 8, 46, 72
16, 27599, Note_on_c, 8, 46, 0
16, 27600, Note_on_c, 8, 46, 72
16, 27719, Note_on_c, 8, 46, 0
16, 27720, Note_on_c, 8, 46, 72
16, 27839, Note_on_c, 8, 46, 0
16, 27840, Note_on_c, 8, 46, 72
16, 27959, Note_on_c, 8, 46, 0
16, 27960, Note_on_c, 8, 46, 72
16, 28079, Note_on_c, 8, 46, 0
16, 28080, Note_on_c, 8, 45, 72
16, 28199, Note_on_c, 8, 45, 0
16, 28200, Note_on_c, 8, 45, 72
16, 28319, Note_on_c, 8, 45, 0
16, 28320, Note_on_c, 8, 45, 72
16, 28439, Note_on_c, 8, 45, 0
16, 28440, Note_on_c, 8, 45, 72
16, 28559, Note_on_c, 8, 45, 0
16, 28560, Note_on_c, 8, 45, 72
16, 28679, Note_on_c, 8, 45, 0
16, 28680, Note_on_c, 8, 45, 72
16, 28799, Note_on_c, 8, 45, 0
16, 28800, Note_on_c, 8, 46, 72
16, 28919, Note_on_c, 8, 46, 0
16, 28920, Note_on_c, 8, 46, 72
16, 29039, Note_on_c, 8, 46, 0
16, 29040, Note_on_c, 8, 46, 48
16, 29159, Note_on_c, 8, 46, 0
16, 29160, Note_on_c, 8, 46, 48
16, 29279, Note_on_c, 8, 46, 0
16, 29280, Note_on_c, 8, 46, 48
16, 29399, Note_on_c, 8, 46, 0
16, 29400, Note_on_c, 8, 46, 48
16, 29519, Note_on_c, 8, 46, 0
16, 29520, Note_on_c, 8, 38, 48
16, 29639, Note_on_c, 8, 38, 0
16, 29640, Note_on_c, 8, 38, 48
16, 29759, Note_on_c, 8, 38, 0
16, 29760, Note_on_c, 8, 38, 48
16, 29879, Note_on_c, 8, 38, 0
16, 29880, Note_on_c, 8, 38, 48
16, 29999, Note_on_c, 8, 38, 0
16, 30000, Note_on_c, 8, 38, 48
16, 30119, Note_on_c, 8, 38, 0
16, 30120, Note_on_c, 8, 38, 48
16, 30239, Note_on_c, 8, 38, 0
16, 30240, Note_on_c, 8, 39, 48
16, 30359, Note_on_c, 8, 39, 0
16, 30360, Note_on_c, 8, 39, 48
16, 30479, Note_on_c, 8, 39, 0
16, 30480, Note_on_c, 8, 39, 48
16, 30599, Note_on_c, 8, 39, 0
16, 30600, Note_on_c, 8, 39, 48
16, 30719, Note_on_c, 8, 39, 0
16, 30720, Note_on_c, 8, 39, 48
16, 30839, Note_on_c, 8, 39, 0
16, 30840, Note_on_c, 8, 40, 48
16, 30959, Note_on_c, 8, 40, 0
16, 30960, Note_on_c, 8, 41, 48
16, 31079, Note_on_c, 8, 41, 0
16, 31080, Note_on_c, 8, 41, 48
16, 31199, Note_on_c, 8, 41, 0
16, 31200, Note_on_c, 8, 41, 48
16, 31319, Note_on_c, 8, 41, 0
16, 31320, Note_on_c, 8, 41, 48
16, 31439, Note_on_c, 8, 41, 0
16, 31440, Note_on_c, 8, 41, 48
16, 31559, Note_on_c, 8, 41, 0
16, 31560, Note_on_c, 8, 41, 48
16, 31679, Note_on_c, 8, 41, 0
16, 31680, Note_on_c, 8, 43, 48
16, 32399, Note_on_c, 8, 43, 0
16, 33360, Note_on_c, 8, 42, 48
16, 33479, Note_on_c, 8, 42, 0
16, 33480, Note_on_c, 8, 42, 48
16, 33599, Note_on_c, 8, 42, 0
16, 33600, Note_on_c, 8, 42, 48
16, 33719, Note_on_c, 8, 42, 0
16, 33720, Note_on_c, 8, 42, 48
16, 33839, Note_on_c, 8, 42, 0
16, 33840, Note_on_c, 8, 41, 48
16, 33959, Note_on_c, 8, 41, 0
16, 33960, Note_on_c, 8, 41, 51
16, 34079, Note_on_c, 8, 41, 0
16, 34080, Note_on_c, 8, 41, 54
16, 34199, Note_on_c, 8, 41, 0
16, 34200, Note_on_c, 8, 41, 54
16, 34319, Note_on_c, 8, 41, 0
16, 34320, Note_on_c, 8, 41, 57
16, 34439, Note_on_c, 8, 41, 0
16, 34440, Note_on_c, 8, 41, 57
16, 34559, Note_on_c, 8, 41, 0
16, 34560, Note_on_c, 8, 42, 60
16, 34679, Note_on_c, 8, 42, 0
16, 34680, Note_on_c, 8, 42, 63
16, 34799, Note_on_c, 8, 42, 0
16, 34800, Note_on_c, 8, 42, 63
16, 34919, Note_on_c, 8, 42, 0
16, 34920, Note_on_c, 8, 42, 66
16, 35039, Note_on_c, 8, 42, 0
16, 35040, Note_on_c, 8, 42, 66
16, 35159, Note_on_c, 8, 42, 0
16, 35160, Note_on_c, 8, 42, 69
16, 35279, Note_on_c, 8, 42, 0
16, 35280, Note_on_c, 8, 41, 72
16, 35399, Note_on_c, 8, 41, 0
16, 35400, Note_on_c, 8, 41, 72
16, 35519, Note_on_c, 8, 41, 0
16, 35520, Note_on_c, 8, 41, 72
16, 35639, Note_on_c, 8, 41, 0
16, 35640, Note_on_c, 8, 41, 72
16, 35759, Note_on_c, 8, 41, 0
16, 35760, Note_on_c, 8, 41, 72
16, 35879, Note_on_c, 8, 41, 0
16, 35880, Note_on_c, 8, 41, 72
16, 35999, Note_on_c, 8, 41, 0
16, 36000, Note_on_c, 8, 41, 72
16, 36719, Note_on_c, 8, 41, 0
16, 36720, Note_on_c, 8, 34, 48
16, 36839, Note_on_c, 8, 34, 0
16, 36960, Note_on_c, 8, 50, 48
16, 37079, Note_on_c, 8, 50, 0
16, 37200, Note_on_c, 8, 48, 48
16, 37319, Note_on_c, 8, 48, 0
16, 37440, Note_on_c, 8, 41, 48
16, 37559, Note_on_c, 8, 41, 0
16, 37680, Note_on_c, 8, 46, 48
16, 37799, Note_on_c, 8, 46, 0
16, 37920, Note_on_c, 8, 45, 48
16, 38039, Note_on_c, 8, 45, 0
16, 38160, Note_on_c, 8, 46, 48
16, 38279, Note_on_c, 8, 46, 0
16, 38280, Note_on_c, 8, 43, 48
16, 38399, Note_on_c, 8, 43, 0
16, 38400, Note_on_c, 8, 39, 48
16, 38519, Note_on_c, 8, 39, 0
16, 38520, Note_on_c, 8, 41, 48
16, 38639, Note_on_c, 8, 41, 0
16, 38640, Note_on_c, 8, 34, 48
16, 38879, Note_on_c, 8, 34, 0
16, 43770, Note_on_c, 8, 43, 72
16, 43799, Note_on_c, 8, 43, 0
16, 43800, Note_on_c, 8, 46, 72
16, 43889, Note_on_c, 8, 46, 0
16, 43890, Note_on_c, 8, 43, 72
16, 43919, Note_on_c, 8, 43, 0
16, 43920, Note_on_c, 8, 45, 72
16, 44159, Note_on_c, 8, 45, 0
16, 44250, Note_on_c, 8, 41, 72
16, 44279, Note_on_c, 8, 41, 0
16, 44280, Note_on_c, 8, 45, 72
16, 44369, Note_on_c, 8, 45, 0
16, 44370, Note_on_c, 8, 41, 72
16, 44399, Note_on_c, 8, 41, 0
16, 44400, Note_on_c, 8, 46, 72
16, 44639, Note_on_c, 8, 46, 0
16, 44730, Note_on_c, 8, 46, 72
16, 44759, Note_on_c, 8, 46, 0
16, 44760, Note_on_c, 8, 50, 72
16, 44849, Note_on_c, 8, 50, 0
16, 44850, Note_on_c, 8, 46, 72
16, 44879, Note_on_c, 8, 46, 0
16, 44880, Note_on_c, 8, 42, 72
16, 45119, Note_on_c, 8, 42, 0
16, 45210, Note_on_c, 8, 38, 72
16, 45239, Note_on_c, 8, 38, 0
16, 45240, Note_on_c, 8, 42, 72
16, 45329, Note_on_c, 8, 42, 0
16, 45330, Note_on_c, 8, 38, 72
16, 45359, Note_on_c, 8, 38, 0
16, 45360, Note_on_c, 8, 43, 72
16, 45599, Note_on_c, 8, 43, 0
16, 45690, Note_on_c, 8, 43, 72
16, 45719, Note_on_c, 8, 43, 0
16, 45720, Note_on_c, 8, 46, 72
16, 45809, Note_on_c, 8, 46, 0
16, 45810, Note_on_c, 8, 43, 72
16, 45839, Note_on_c, 8, 43, 0
16, 45840, Note_on_c, 8, 36, 72
16, 45959, Note_on_c, 8, 36, 0
16, 45960, Note_on_c, 8, 38, 72
16, 46049, Note_on_c, 8, 38, 0
16, 46050, Note_on_c, 8, 39, 72
16, 46079, Note_on_c, 8, 39, 0
16, 46080, Note_on_c, 8, 41, 72
16, 46199, Note_on_c, 8, 41, 0
16, 46200, Note_on_c, 8, 29, 72
16, 46319, Note_on_c, 8, 29, 0
16, 46320, Note_on_c, 8, 34, 72
16, 46559, Note_on_c, 8, 34, 0
16, 46650, Note_on_c, 8, 46, 72
16, 46679, Note_on_c, 8, 46, 0
16, 46680, Note_on_c, 8, 50, 72
16, 46769, Note_on_c, 8, 50, 0
16, 46770, Note_on_c, 8, 46, 72
16, 46799, Note_on_c, 8, 46, 0
16, 46800, Note_on_c, 8, 43, 72
16, 47039, Note_on_c, 8, 43, 0
16, 47130, Note_on_c, 8, 43, 72
16, 47159, Note_on_c, 8, 43, 0
16, 47160, Note_on_c, 8, 46, 72
16, 47249, Note_on_c, 8, 46, 0
16, 47250, Note_on_c, 8, 43, 72
16, 47279, Note_on_c, 8, 43, 0
16, 47280, Note_on_c, 8, 40, 72
16, 47519, Note_on_c, 8, 40, 0
16, 47610, Note_on_c, 8, 40, 72
16, 47639, Note_on_c, 8, 40, 0
16, 47640, Note_on_c, 8, 43, 72
16, 47729, Note_on_c, 8, 43, 0
16, 47730, Note_on_c, 8, 48, 72
16, 47759, Note_on_c, 8, 48, 0
16, 47760, Note_on_c, 8, 39, 72
16, 47999, Note_on_c, 8, 39, 0
16, 48090, Note_on_c, 8, 39, 72
16, 48119, Note_on_c, 8, 39, 0
16, 48120, Note_on_c, 8, 43, 72
16, 48209, Note_on_c, 8, 43, 0
16, 48210, Note_on_c, 8, 48, 72
16, 48239, Note_on_c, 8, 48, 0
16, 48240, Note_on_c, 8, 38, 72
16, 48359, Note_on_c, 8, 38, 0
16, 48450, Note_on_c, 8, 50, 72
16, 48479, Note_on_c, 8, 50, 0
16, 48480, Note_on_c, 8, 49, 72
16, 48599, Note_on_c, 8, 49, 0
16, 48690, Note_on_c, 8, 37, 72
16, 48719, Note_on_c, 8, 37, 0
16, 48720, Note_on_c, 8, 38, 72
16, 48839, Note_on_c, 8, 38, 0
16, 48840, Note_on_c, 8, 38, 72
16, 48959, Note_on_c, 8, 38, 0
16, 48960, Note_on_c, 8, 38, 72
16, 49079, Note_on_c, 8, 38, 0
16, 49080, Note_on_c, 8, 38, 72
16, 49199, Note_on_c, 8, 38, 0
16, 49200, Note_on_c, 8, 31, 72
16, 49319, Note_on_c, 8, 31, 0
16, 49440, Note_on_c, 8, 46, 48
16, 49559, Note_on_c, 8, 46, 0
16, 49680, Note_on_c, 8, 45, 48
16, 49799, Note_on_c, 8, 45, 0
16, 49920, Note_on_c, 8, 38, 48
16, 50039, Note_on_c, 8, 38, 0
16, 50160, Note_on_c, 8, 43, 48
16, 50279, Note_on_c, 8, 43, 0
16, 50400, Note_on_c, 8, 42, 48
16, 50519, Note_on_c, 8, 42, 0
16, 50640, Note_on_c, 8, 43, 48
16, 50759, Note_on_c, 8, 43, 0
16, 50760, Note_on_c, 8, 39, 48
16, 50879, Note_on_c, 8, 39, 0
16, 50880, Note_on_c, 8, 36, 48
16, 50999, Note_on_c, 8, 36, 0
16, 51000, Note_on_c, 8, 38, 48
16, 51119, Note_on_c, 8, 38, 0
16, 51120, Note_on_c, 8, 31, 48
16, 51239, Note_on_c, 8, 31, 0
16, 51360, Note_on_c, 8, 46, 72
16, 51479, Note_on_c, 8, 46, 0
16, 51600, Note_on_c, 8, 45, 72
16, 51719, Note_on_c, 8, 45, 0
16, 51840, Note_on_c, 8, 33, 72
16, 51959, Note_on_c, 8, 33, 0
16, 52080, Note_on_c, 8, 38, 72
16, 52199, Note_on_c, 8, 38, 0
16, 52320, Note_on_c, 8, 40, 72
16, 52439, Note_on_c, 8, 40, 0
16, 52560, Note_on_c, 8, 41, 72
16, 52679, Note_on_c, 8, 41, 0
16, 52800, Note_on_c, 8, 38, 72
16, 52919, Note_on_c, 8, 38, 0
16, 53040, Note_on_c, 8, 40, 72
16, 53159, Note_on_c, 8, 40, 0
16, 53280, Note_on_c, 8, 40, 72
16, 53399, Note_on_c, 8, 40, 0
16, 54120, Note_on_c, 8, 45, 72
16, 54239, Note_on_c, 8, 45, 0
16, 54240, Note_on_c, 8, 42, 72
16, 54359, Note_on_c, 8, 42, 0
16, 54360, Note_on_c, 8, 38, 72
16, 54479, Note_on_c, 8, 38, 0
16, 54480, Note_on_c, 8, 43, 72
16, 54659, Note_on_c, 8, 43, 0
16, 54660, Note_on_c, 8, 45, 72
16, 54719, Note_on_c, 8, 45, 0
16, 54720, Note_on_c, 8, 46, 72
16, 54839, Note_on_c, 8, 46, 0
16, 54840, Note_on_c, 8, 43, 72
16, 54959, Note_on_c, 8, 43, 0
16, 54960, Note_on_c, 8, 38, 72
16, 55079, Note_on_c, 8, 38, 0
16, 55560, Note_on_c, 8, 43, 72
16, 55799, Note_on_c, 8, 43, 0
16, 55800, Note_on_c, 8, 42, 72
16, 55919, Note_on_c, 8, 42, 0
16, 55920, Note_on_c, 8, 43, 72
16, 56159, Note_on_c, 8, 43, 0
16, 56160, Note_on_c, 8, 31, 72
16, 56279, Note_on_c, 8, 31, 0
16, 56280, Note_on_c, 8, 43, 72
16, 56399, Note_on_c, 8, 43, 0
16, 56400, Note_on_c, 8, 45, 72
16, 56459, Note_on_c, 8, 45, 0
16, 56460, Note_on_c, 8, 43, 72
16, 56519, Note_on_c, 8, 43, 0
16, 56520, Note_on_c, 8, 41, 72
16, 56579, Note_on_c, 8, 41, 0
16, 56580, Note_on_c, 8, 43, 72
16, 56639, Note_on_c, 8, 43, 0
16, 56640, Note_on_c, 8, 45, 72
16, 56699, Note_on_c, 8, 45, 0
16, 56700, Note_on_c, 8, 43, 72
16, 56759, Note_on_c, 8, 43, 0
16, 56760, Note_on_c, 8, 45, 72
16, 56819, Note_on_c, 8, 45, 0
16, 56820, Note_on_c, 8, 41, 72
16, 56879, Note_on_c, 8, 41, 0
16, 56880, Note_on_c, 8, 36, 72
16, 56999, Note_on_c, 8, 36, 0
16, 57000, Note_on_c, 8, 48, 72
16, 57179, Note_on_c, 8, 48, 0
16, 57180, Note_on_c, 8, 50, 72
16, 57239, Note_on_c, 8, 50, 0
16, 57240, Note_on_c, 8, 48, 72
16, 57299, Note_on_c, 8, 48, 0
16, 57300, Note_on_c, 8, 46, 72
16, 57359, Note_on_c, 8, 46, 0
16, 57360, Note_on_c, 8, 45, 72
16, 57419, Note_on_c, 8, 45, 0
16, 57420, Note_on_c, 8, 48, 72
16, 57479, Note_on_c, 8, 48, 0
16, 57480, Note_on_c, 8, 46, 72
16, 57539, Note_on_c, 8, 46, 0
16, 57540, Note_on_c, 8, 45, 72
16, 57599, Note_on_c, 8, 45, 0
16, 57600, Note_on_c, 8, 43, 72
16, 57659, Note_on_c, 8, 43, 0
16, 57660, Note_on_c, 8, 46, 72
16, 57719, Note_on_c, 8, 46, 0
16, 57720, Note_on_c, 8, 45, 72
16, 57779, Note_on_c, 8, 45, 0
16, 57780, Note_on_c, 8, 43, 72
16, 57839, Note_on_c, 8, 43, 0
16, 57840, Note_on_c, 8, 41, 72
16, 57899, Note_on_c, 8, 41, 0
16, 57900, Note_on_c, 8, 43, 72
16, 57959, Note_on_c, 8, 43, 0
16, 57960, Note_on_c, 8, 45, 72
16, 58139, Note_on_c, 8, 45, 0
16, 58140, Note_on_c, 8, 46, 72
16, 58199, Note_on_c, 8, 46, 0
16, 58200, Note_on_c, 8, 45, 72
16, 58259, Note_on_c, 8, 45, 0
16, 58260, Note_on_c, 8, 43, 72
16, 58319, Note_on_c, 8, 43, 0
16, 58320, Note_on_c, 8, 41, 72
16, 58379, Note_on_c, 8, 41, 0
16, 58380, Note_on_c, 8, 45, 72
16, 58439, Note_on_c, 8, 45, 0
16, 58440, Note_on_c, 8, 43, 72
16, 58499, Note_on_c, 8, 43, 0
16, 58500, Note_on_c, 8, 41, 72
16, 58559, Note_on_c, 8, 41, 0
16, 58560, Note_on_c, 8, 40, 72
16, 58619, Note_on_c, 8, 40, 0
16, 58620, Note_on_c, 8, 43, 72
16, 58679, Note_on_c, 8, 43, 0
16, 58680, Note_on_c, 8, 41, 72
16, 58739, Note_on_c, 8, 41, 0
16, 58740, Note_on_c, 8, 40, 72
16, 58799, Note_on_c, 8, 40, 0
16, 58800, Note_on_c, 8, 38, 72
16, 58859, Note_on_c, 8, 38, 0
16, 58860, Note_on_c, 8, 39, 72
16, 58919, Note_on_c, 8, 39, 0
16, 58920, Note_on_c, 8, 41, 72
16, 59099, Note_on_c, 8, 41, 0
16, 59100, Note_on_c, 8, 43, 72
16, 59159, Note_on_c, 8, 43, 0
16, 59160, Note_on_c, 8, 41, 72
16, 59219, Note_on_c, 8, 41, 0
16, 59220, Note_on_c, 8, 39, 72
16, 59279, Note_on_c, 8, 39, 0
16, 59280, Note_on_c, 8, 38, 72
16, 59339, Note_on_c, 8, 38, 0
16, 59340, Note_on_c, 8, 41, 72
16, 59399, Note_on_c, 8, 41, 0
16, 59400, Note_on_c, 8, 39, 72
16, 59459, Note_on_c, 8, 39, 0
16, 59460, Note_on_c, 8, 38, 72
16, 59519, Note_on_c, 8, 38, 0
16, 59520, Note_on_c, 8, 36, 72
16, 59579, Note_on_c, 8, 36, 0
16, 59580, Note_on_c, 8, 39, 72
16, 59639, Note_on_c, 8, 39, 0
16, 59640, Note_on_c, 8, 38, 72
16, 59699, Note_on_c, 8, 38, 0
16, 59700, Note_on_c, 8, 36, 72
16, 59759, Note_on_c, 8, 36, 0
16, 59760, Note_on_c, 8, 34, 72
16, 59999, Note_on_c, 8, 34, 0
16, 60300, Note_on_c, 8, 46, 72
16, 60359, Note_on_c, 8, 46, 0
16, 60360, Note_on_c, 8, 50, 72
16, 60419, Note_on_c, 8, 50, 0
16, 60420, Note_on_c, 8, 46, 72
16, 60449, Note_on_c, 8, 46, 0
16, 60480, Note_on_c, 8, 41, 72
16, 60509, Note_on_c, 8, 41, 0
16, 60540, Note_on_c, 8, 38, 72
16, 60569, Note_on_c, 8, 38, 0
16, 60600, Note_on_c, 8, 34, 72
16, 60629, Note_on_c, 8, 34, 0
16, 60660, Note_on_c, 8, 41, 72
16, 60689, Note_on_c, 8, 41, 0
16, 60720, Note_on_c, 8, 33, 72
16, 60959, Note_on_c, 8, 33, 0
16, 61260, Note_on_c, 8, 50, 72
16, 61319, Note_on_c, 8, 50, 0
16, 61320, Note_on_c, 8, 53, 72
16, 61379, Note_on_c, 8, 53, 0
16, 61380, Note_on_c, 8, 50, 72
16, 61409, Note_on_c, 8, 50, 0
16, 61440, Note_on_c, 8, 45, 72
16, 61469, Note_on_c, 8, 45, 0
16, 61500, Note_on_c, 8, 41, 72
16, 61529, Note_on_c, 8, 41, 0
16, 61560, Note_on_c, 8, 38, 72
16, 61589, Note_on_c, 8, 38, 0
16, 61620, Note_on_c, 8, 41, 72
16, 61649, Note_on_c, 8, 41, 0
16, 61680, Note_on_c, 8, 32, 72
16, 61799, Note_on_c, 8, 32, 0
16, 61800, Note_on_c, 8, 44, 72
16, 61919, Note_on_c, 8, 44, 0
16, 61920, Note_on_c, 8, 44, 72
16, 62039, Note_on_c, 8, 44, 0
16, 62040, Note_on_c, 8, 44, 72
16, 62159, Note_on_c, 8, 44, 0
16, 62160, Note_on_c, 8, 44, 72
16, 62279, Note_on_c, 8, 44, 0
16, 62280, Note_on_c, 8, 44, 72
16, 62399, Note_on_c, 8, 44, 0
16, 62400, Note_on_c, 8, 44, 72
16, 62519, Note_on_c, 8, 44, 0
16, 62520, Note_on_c, 8, 44, 72
16, 62639, Note_on_c, 8, 44, 0
16, 62640, Note_on_c, 8, 45, 72
16, 62759, Note_on_c, 8, 45, 0
16, 62760, Note_on_c, 8, 33, 72
16, 62879, Note_on_c, 8, 33, 0
16, 63000, Note_on_c, 8, 33, 48
16, 63119, Note_on_c, 8, 33, 0
16, 63120, Note_on_c, 8, 38, 48
16, 63359, Note_on_c, 8, 38, 0
16, 63360, Note_on_c, 8, 37, 48
16, 63599, Note_on_c, 8, 37, 0
16, 63600, Note_on_c, 8, 38, 48
16, 63839, Note_on_c, 8, 38, 0
16, 63840, Note_on_c, 8, 36, 48
16, 64079, Note_on_c, 8, 36, 0
16, 64080, Note_on_c, 8, 35, 48
16, 64319, Note_on_c, 8, 35, 0
16, 64320, Note_on_c, 8, 34, 48
16, 64559, Note_on_c, 8, 34, 0
16, 64560, Note_on_c, 8, 33, 48
16, 65039, Note_on_c, 8, 33, 0
16, 65040, Note_on_c, 8, 33, 48
16, 65519, Note_on_c, 8, 33, 0
16, 65520, Note_on_c, 8, 45, 72
16, 65999, Note_on_c, 8, 45, 0
16, 66000, Note_on_c, 8, 41, 72
16, 66239, Note_on_c, 8, 41, 0
16, 66240, Note_on_c, 8, 43, 72
16, 66479, Note_on_c, 8, 43, 0
16, 66480, Note_on_c, 8, 37, 72
16, 66839, Note_on_c, 8, 37, 0
16, 66840, Note_on_c, 8, 37, 72
16, 66959, Note_on_c, 8, 37, 0
16, 66960, Note_on_c, 8, 38, 72
16, 67199, Note_on_c, 8, 38, 0
16, 67320, Note_on_c, 8, 38, 72
16, 67439, Note_on_c, 8, 38, 0
16, 67440, Note_on_c, 8, 40, 72
16, 67799, Note_on_c, 8, 40, 0
16, 67800, Note_on_c, 8, 38, 72
16, 67859, Note_on_c, 8, 38, 0
16, 67860, Note_on_c, 8, 40, 72
16, 67919, Note_on_c, 8, 40, 0
16, 67920, Note_on_c, 8, 41, 72
16, 68039, Note_on_c, 8, 41, 0
16, 68040, Note_on_c, 8, 40, 72
16, 68099, Note_on_c, 8, 40, 0
16, 68100, Note_on_c, 8, 41, 72
16, 68159, Note_on_c, 8, 41, 0
16, 68160, Note_on_c, 8, 43, 72
16, 68279, Note_on_c, 8, 43, 0
16, 68280, Note_on_c, 8, 41, 72
16, 68339, Note_on_c, 8, 41, 0
16, 68340, Note_on_c, 8, 43, 72
16, 68399, Note_on_c, 8, 43, 0
16, 68400, Note_on_c, 8, 45, 72
16, 68519, Note_on_c, 8, 45, 0
16, 68520, Note_on_c, 8, 43, 72
16, 68639, Note_on_c, 8, 43, 0
16, 68640, Note_on_c, 8, 41, 72
16, 68759, Note_on_c, 8, 41, 0
16, 68760, Note_on_c, 8, 40, 72
16, 68879, Note_on_c, 8, 40, 0
16, 68880, Note_on_c, 8, 38, 72
16, 68999, Note_on_c, 8, 38, 0
16, 69000, Note_on_c, 8, 36, 72
16, 69119, Note_on_c, 8, 36, 0
16, 69120, Note_on_c, 8, 35, 72
16, 69239, Note_on_c, 8, 35, 0
16, 69240, Note_on_c, 8, 40, 72
16, 69359, Note_on_c, 8, 40, 0
16, 69360, Note_on_c, 8, 33, 72
16, 69479, Note_on_c, 8, 33, 0
16, 69480, Note_on_c, 8, 41, 72
16, 69539, Note_on_c, 8, 41, 0
16, 69540, Note_on_c, 8, 40, 72
16, 69599, Note_on_c, 8, 40, 0
16, 69600, Note_on_c, 8, 38, 72
16, 69659, Note_on_c, 8, 38, 0
16, 69660, Note_on_c, 8, 35, 72
16, 69719, Note_on_c, 8, 35, 0
16, 69720, Note_on_c, 8, 36, 72
16, 69779, Note_on_c, 8, 36, 0
16, 69780, Note_on_c, 8, 38, 72
16, 69839, Note_on_c, 8, 38, 0
16, 69840, Note_on_c, 8, 40, 72
16, 70079, Note_on_c, 8, 40, 0
16, 70200, Note_on_c, 8, 40, 72
16, 70319, Note_on_c, 8, 40, 0
16, 70320, Note_on_c, 8, 45, 72
16, 70439, Note_on_c, 8, 45, 0
16, 70440, Note_on_c, 8, 33, 72
16, 70559, Note_on_c, 8, 33, 0
16, 70560, Note_on_c, 8, 45, 72
16, 71039, Note_on_c, 8, 45, 0
16, 71040, Note_on_c, 8, 43, 72
16, 71099, Note_on_c, 8, 43, 0
16, 71100, Note_on_c, 8, 41, 72
16, 71159, Note_on_c, 8, 41, 0
16, 71160, Note_on_c, 8, 40, 72
16, 71219, Note_on_c, 8, 40, 0
16, 71220, Note_on_c, 8, 38, 72
16, 71279, Note_on_c, 8, 38, 0
16, 71280, Note_on_c, 8, 36, 72
16, 71519, Note_on_c, 8, 36, 0
16, 71520, Note_on_c, 8, 35, 72
16, 71639, Note_on_c, 8, 35, 0
16, 71640, Note_on_c, 8, 41, 72
16, 71759, Note_on_c, 8, 41, 0
16, 71760, Note_on_c, 8, 40, 72
16, 71939, Note_on_c, 8, 40, 0
16, 71940, Note_on_c, 8, 42, 72
16, 71999, Note_on_c, 8, 42, 0
16, 72000, Note_on_c, 8, 44, 72
16, 72059, Note_on_c, 8, 44, 0
16, 72060, Note_on_c, 8, 45, 72
16, 72119, Note_on_c, 8, 45, 0
16, 72120, Note_on_c, 8, 42, 72
16, 72179, Note_on_c, 8, 42, 0
16, 72180, Note_on_c, 8, 44, 72
16, 72239, Note_on_c, 8, 44, 0
16, 72240, Note_on_c, 8, 45, 72
16, 72359, Note_on_c, 8, 45, 0
16, 72360, Note_on_c, 8, 33, 72
16, 72479, Note_on_c, 8, 33, 0
16, 72480, Note_on_c, 8, 35, 72
16, 72599, Note_on_c, 8, 35, 0
16, 72600, Note_on_c, 8, 37, 72
16, 72719, Note_on_c, 8, 37, 0
16, 72720, Note_on_c, 8, 38, 72
16, 72839, Note_on_c, 8, 38, 0
16, 72840, Note_on_c, 8, 38, 72
16, 72959, Note_on_c, 8, 38, 0
16, 72960, Note_on_c, 8, 43, 72
16, 73079, Note_on_c, 8, 43, 0
16, 73080, Note_on_c, 8, 41, 72
16, 73199, Note_on_c, 8, 41, 0
16, 73200, Note_on_c, 8, 40, 72
16, 73319, Note_on_c, 8, 40, 0
16, 73320, Note_on_c, 8, 40, 72
16, 73439, Note_on_c, 8, 40, 0
16, 73440, Note_on_c, 8, 40, 72
16, 73559, Note_on_c, 8, 40, 0
16, 73560, Note_on_c, 8, 40, 72
16, 73679, Note_on_c, 8, 40, 0
16, 73680, Note_on_c, 8, 41, 72
16, 73739, Note_on_c, 8, 41, 0
16, 73740, Note_on_c, 8, 43, 72
16, 73799, Note_on_c, 8, 43, 0
16, 73800, Note_on_c, 8, 41, 72
16, 73859, Note_on_c, 8, 41, 0
16, 73860, Note_on_c, 8, 40, 72
16, 73919, Note_on_c, 8, 40, 0
16, 73920, Note_on_c, 8, 41, 72
16, 73979, Note_on_c, 8, 41, 0
16, 73980, Note_on_c, 8, 43, 72
16, 74039, Note_on_c, 8, 43, 0
16, 74040, Note_on_c, 8, 40, 72
16, 74099, Note_on_c, 8, 40, 0
16, 74100, Note_on_c, 8, 41, 72
16, 74159, Note_on_c, 8, 41, 0
16, 74160, Note_on_c, 8, 43, 72
16, 74219, Note_on_c, 8, 43, 0
16, 74220, Note_on_c, 8, 45, 72
16, 74279, Note_on_c, 8, 45, 0
16, 74280, Note_on_c, 8, 43, 72
16, 74339, Note_on_c, 8, 43, 0
16, 74340, Note_on_c, 8, 41, 72
16, 74399, Note_on_c, 8, 41, 0
16, 74400, Note_on_c, 8, 43, 72
16, 74459, Note_on_c, 8, 43, 0
16, 74460, Note_on_c, 8, 45, 72
16, 74519, Note_on_c, 8, 45, 0
16, 74520, Note_on_c, 8, 41, 72
16, 74579, Note_on_c, 8, 41, 0
16, 74580, Note_on_c, 8, 43, 72
16, 74639, Note_on_c, 8, 43, 0
16, 74640, Note_on_c, 8, 45, 72
16, 74759, Note_on_c, 8, 45, 0
16, 74760, Note_on_c, 8, 46, 72
16, 74819, Note_on_c, 8, 46, 0
16, 74820, Note_on_c, 8, 45, 72
16, 74879, Note_on_c, 8, 45, 0
16, 74880, Note_on_c, 8, 43, 72
16, 74939, Note_on_c, 8, 43, 0
16, 74940, Note_on_c, 8, 41, 72
16, 74999, Note_on_c, 8, 41, 0
16, 75000, Note_on_c, 8, 40, 72
16, 75059, Note_on_c, 8, 40, 0
16, 75060, Note_on_c, 8, 38, 72
16, 75119, Note_on_c, 8, 38, 0
16, 75120, Note_on_c, 8, 37, 72
16, 75239, Note_on_c, 8, 37, 0
16, 75240, Note_on_c, 8, 40, 72
16, 75359, Note_on_c, 8, 40, 0
16, 75360, Note_on_c, 8, 45, 72
16, 75479, Note_on_c, 8, 45, 0
16, 75480, Note_on_c, 8, 43, 72
16, 75599, Note_on_c, 8, 43, 0
16, 75600, Note_on_c, 8, 41, 72
16, 75659, Note_on_c, 8, 41, 0
16, 75660, Note_on_c, 8, 40, 72
16, 75719, Note_on_c, 8, 40, 0
16, 75720, Note_on_c, 8, 38, 72
16, 75779, Note_on_c, 8, 38, 0
16, 75780, Note_on_c, 8, 36, 72
16, 75839, Note_on_c, 8, 36, 0
16, 75840, Note_on_c, 8, 35, 72
16, 76079, Note_on_c, 8, 35, 0
16, 76080, Note_on_c, 8, 36, 72
16, 76319, Note_on_c, 8, 36, 0
16, 76320, Note_on_c, 8, 38, 72
16, 76559, Note_on_c, 8, 38, 0
16, 76560, Note_on_c, 8, 40, 72
16, 76799, Note_on_c, 8, 40, 0
16, 76920, Note_on_c, 8, 40, 72
16, 77039, Note_on_c, 8, 40, 0
16, 77040, Note_on_c, 8, 45, 72
16, 77339, Note_on_c, 8, 45, 0
16, 77340, Note_on_c, 8, 43, 72
16, 77399, Note_on_c, 8, 43, 0
16, 77400, Note_on_c, 8, 41, 72
16, 77459, Note_on_c, 8, 41, 0
16, 77460, Note_on_c, 8, 40, 72
16, 77519, Note_on_c, 8, 40, 0
16, 77520, Note_on_c, 8, 41, 72
16, 77639, Note_on_c, 8, 41, 0
16, 77640, Note_on_c, 8, 38, 72
16, 77759, Note_on_c, 8, 38, 0
16, 77760, Note_on_c, 8, 43, 72
16, 77999, Note_on_c, 8, 43, 0
16, 78000, Note_on_c, 8, 36, 72
16, 78119, Note_on_c, 8, 36, 0
16, 78120, Note_on_c, 8, 33, 72
16, 78239, Note_on_c, 8, 33, 0
16, 78240, Note_on_c, 8, 41, 72
16, 78479, Note_on_c, 8, 41, 0
16, 78480, Note_on_c, 8, 40, 72
16, 78599, Note_on_c, 8, 40, 0
16, 79080, Note_on_c, 8, 45, 72
16, 79139, Note_on_c, 8, 45, 0
16, 79140, Note_on_c, 8, 43, 72
16, 79199, Note_on_c, 8, 43, 0
16, 79200, Note_on_c, 8, 41, 72
16, 79319, Note_on_c, 8, 41, 0
16, 79320, Note_on_c, 8, 39, 72
16, 79439, Note_on_c, 8, 39, 0
16, 79440, Note_on_c, 8, 38, 72
16, 79559, Note_on_c, 8, 38, 0
16, 80040, Note_on_c, 8, 43, 72
16, 80099, Note_on_c, 8, 43, 0
16, 80100, Note_on_c, 8, 41, 72
16, 80159, Note_on_c, 8, 41, 0
16, 80160, Note_on_c, 8, 40, 72
16, 80279, Note_on_c, 8, 40, 0
16, 80280, Note_on_c, 8, 38, 72
16, 80399, Note_on_c, 8, 38, 0
16, 80400, Note_on_c, 8, 36, 72
16, 80639, Note_on_c, 8, 36, 0
16, 80640, Note_on_c, 8, 38, 72
16, 80759, Note_on_c, 8, 38, 0
16, 80760, Note_on_c, 8, 40, 72
16, 80879, Note_on_c, 8, 40, 0
16, 80880, Note_on_c, 8, 41, 72
16, 80999, Note_on_c, 8, 41, 0
16, 81480, Note_on_c, 8, 36, 72
16, 81599, Note_on_c, 8, 36, 0
16, 81600, Note_on_c, 8, 36, 72
16, 81719, Note_on_c, 8, 36, 0
16, 81720, Note_on_c, 8, 36, 72
16, 81839, Note_on_c, 8, 36, 0
16, 81840, Note_on_c, 8, 38, 72
16, 81899, Note_on_c, 8, 38, 0
16, 81900, Note_on_c, 8, 40, 72
16, 81959, Note_on_c, 8, 40, 0
16, 81960, Note_on_c, 8, 38, 72
16, 82019, Note_on_c, 8, 38, 0
16, 82020, Note_on_c, 8, 36, 72
16, 82079, Note_on_c, 8, 36, 0
16, 82080, Note_on_c, 8, 38, 72
16, 82139, Note_on_c, 8, 38, 0
16, 82140, Note_on_c, 8, 40, 72
16, 82199, Note_on_c, 8, 40, 0
16, 82200, Note_on_c, 8, 36, 72
16, 82259, Note_on_c, 8, 36, 0
16, 82260, Note_on_c, 8, 38, 72
16, 82319, Note_on_c, 8, 38, 0
16, 82320, Note_on_c, 8, 40, 72
16, 82379, Note_on_c, 8, 40, 0
16, 82380, Note_on_c, 8, 41, 72
16, 82439, Note_on_c, 8, 41, 0
16, 82440, Note_on_c, 8, 40, 72
16, 82499, Note_on_c, 8, 40, 0
16, 82500, Note_on_c, 8, 38, 72
16, 82559, Note_on_c, 8, 38, 0
16, 82560, Note_on_c, 8, 40, 72
16, 82619, Note_on_c, 8, 40, 0
16, 82620, Note_on_c, 8, 41, 72
16, 82679, Note_on_c, 8, 41, 0
16, 82680, Note_on_c, 8, 38, 72
16, 82739, Note_on_c, 8, 38, 0
16, 82740, Note_on_c, 8, 40, 72
16, 82799, Note_on_c, 8, 40, 0
16, 82800, Note_on_c, 8, 41, 72
16, 82919, Note_on_c, 8, 41, 0
16, 82920, Note_on_c, 8, 43, 72
16, 82979, Note_on_c, 8, 43, 0
16, 82980, Note_on_c, 8, 41, 72
16, 83039, Note_on_c, 8, 41, 0
16, 83040, Note_on_c, 8, 40, 72
16, 83099, Note_on_c, 8, 40, 0
16, 83100, Note_on_c, 8, 38, 72
16, 83159, Note_on_c, 8, 38, 0
16, 83160, Note_on_c, 8, 36, 72
16, 83219, Note_on_c, 8, 36, 0
16, 83220, Note_on_c, 8, 34, 72
16, 83279, Note_on_c, 8, 34, 0
16, 83280, Note_on_c, 8, 33, 72
16, 83399, Note_on_c, 8, 33, 0
16, 83400, Note_on_c, 8, 36, 72
16, 83519, Note_on_c, 8, 36, 0
16, 83520, Note_on_c, 8, 41, 72
16, 83639, Note_on_c, 8, 41, 0
16, 83640, Note_on_c, 8, 39, 72
16, 83759, Note_on_c, 8, 39, 0
16, 83760, Note_on_c, 8, 38, 72
16, 83879, Note_on_c, 8, 38, 0
16, 83880, Note_on_c, 8, 48, 72
16, 84119, Note_on_c, 8, 48, 0
16, 84120, Note_on_c, 8, 46, 72
16, 84179, Note_on_c, 8, 46, 0
16, 84180, Note_on_c, 8, 45, 72
16, 84239, Note_on_c, 8, 45, 0
16, 84240, Note_on_c, 8, 43, 72
16, 84299, Note_on_c, 8, 43, 0
16, 84300, Note_on_c, 8, 41, 72
16, 84359, Note_on_c, 8, 41, 0
16, 84360, Note_on_c, 8, 39, 72
16, 84419, Note_on_c, 8, 39, 0
16, 84420, Note_on_c, 8, 38, 72
16, 84479, Note_on_c, 8, 38, 0
16, 84480, Note_on_c, 8, 36, 72
16, 84539, Note_on_c, 8, 36, 0
16, 84540, Note_on_c, 8, 38, 72
16, 84599, Note_on_c, 8, 38, 0
16, 84600, Note_on_c, 8, 34, 72
16, 84659, Note_on_c, 8, 34, 0
16, 84660, Note_on_c, 8, 36, 72
16, 84719, Note_on_c, 8, 36, 0
16, 84720, Note_on_c, 8, 38, 72
16, 85199, Note_on_c, 8, 38, 0
16, 85200, Note_on_c, 8, 31, 72
16, 85439, Note_on_c, 8, 31, 0
16, 87120, Note_on_c, 8, 43, 72
16, 87599, Note_on_c, 8, 43, 0
16, 87600, Note_on_c, 8, 39, 72
16, 87839, Note_on_c, 8, 39, 0
16, 87840, Note_on_c, 8, 44, 72
16, 88079, Note_on_c, 8, 44, 0
16, 88080, Note_on_c, 8, 35, 72
16, 88559, Note_on_c, 8, 35, 0
16, 88560, Note_on_c, 8, 36, 72
16, 88799, Note_on_c, 8, 36, 0
16, 88800, Note_on_c, 8, 36, 72
16, 88919, Note_on_c, 8, 36, 0
16, 88920, Note_on_c, 8, 36, 72
16, 89039, Note_on_c, 8, 36, 0
16, 89040, Note_on_c, 8, 38, 72
16, 89399, Note_on_c, 8, 38, 0
16, 89400, Note_on_c, 8, 36, 72
16, 89459, Note_on_c, 8, 36, 0
16, 89460, Note_on_c, 8, 38, 72
16, 89519, Note_on_c, 8, 38, 0
16, 89520, Note_on_c, 8, 39, 72
16, 89639, Note_on_c, 8, 39, 0
16, 89640, Note_on_c, 8, 38, 72
16, 89699, Note_on_c, 8, 38, 0
16, 89700, Note_on_c, 8, 39, 72
16, 89759, Note_on_c, 8, 39, 0
16, 89760, Note_on_c, 8, 41, 72
16, 89879, Note_on_c, 8, 41, 0
16, 89880, Note_on_c, 8, 39, 72
16, 89939, Note_on_c, 8, 39, 0
16, 89940, Note_on_c, 8, 41, 72
16, 89999, Note_on_c, 8, 41, 0
16, 90000, Note_on_c, 8, 43, 72
16, 90119, Note_on_c, 8, 43, 0
16, 90120, Note_on_c, 8, 41, 72
16, 90239, Note_on_c, 8, 41, 0
16, 90240, Note_on_c, 8, 39, 72
16, 90359, Note_on_c, 8, 39, 0
16, 90360, Note_on_c, 8, 38, 72
16, 90479, Note_on_c, 8, 38, 0
16, 90480, Note_on_c, 8, 36, 72
16, 90599, Note_on_c, 8, 36, 0
16, 90600, Note_on_c, 8, 38, 72
16, 90659, Note_on_c, 8, 38, 0
16, 90660, Note_on_c, 8, 39, 72
16, 90719, Note_on_c, 8, 39, 0
16, 90720, Note_on_c, 8, 41, 72
16, 91079, Note_on_c, 8, 41, 0
16, 91080, Note_on_c, 8, 39, 72
16, 91199, Note_on_c, 8, 39, 0
16, 91200, Note_on_c, 8, 38, 72
16, 91319, Note_on_c, 8, 38, 0
16, 91320, Note_on_c, 8, 36, 72
16, 91439, Note_on_c, 8, 36, 0
16, 91440, Note_on_c, 8, 34, 72
16, 91559, Note_on_c, 8, 34, 0
16, 91560, Note_on_c, 8, 43, 72
16, 91619, Note_on_c, 8, 43, 0
16, 91620, Note_on_c, 8, 41, 72
16, 91679, Note_on_c, 8, 41, 0
16, 91680, Note_on_c, 8, 39, 72
16, 91739, Note_on_c, 8, 39, 0
16, 91740, Note_on_c, 8, 36, 72
16, 91799, Note_on_c, 8, 36, 0
16, 91800, Note_on_c, 8, 38, 72
16, 91859, Note_on_c, 8, 38, 0
16, 91860, Note_on_c, 8, 39, 72
16, 91919, Note_on_c, 8, 39, 0
16, 91920, Note_on_c, 8, 41, 72
16, 92039, Note_on_c, 8, 41, 0
16, 92880, Note_on_c, 8, 41, 72
16, 93359, Note_on_c, 8, 41, 0
16, 93360, Note_on_c, 8, 38, 72
16, 93599, Note_on_c, 8, 38, 0
16, 93600, Note_on_c, 8, 43, 72
16, 93839, Note_on_c, 8, 43, 0
16, 93840, Note_on_c, 8, 33, 72
16, 94319, Note_on_c, 8, 33, 0
16, 94320, Note_on_c, 8, 34, 72
16, 94559, Note_on_c, 8, 34, 0
16, 94560, Note_on_c, 8, 34, 72
16, 94679, Note_on_c, 8, 34, 0
16, 94680, Note_on_c, 8, 34, 72
16, 94799, Note_on_c, 8, 34, 0
16, 94800, Note_on_c, 8, 36, 72
16, 95159, Note_on_c, 8, 36, 0
16, 95160, Note_on_c, 8, 34, 72
16, 95219, Note_on_c, 8, 34, 0
16, 95220, Note_on_c, 8, 36, 72
16, 95279, Note_on_c, 8, 36, 0
16, 95280, Note_on_c, 8, 38, 72
16, 95399, Note_on_c, 8, 38, 0
16, 95400, Note_on_c, 8, 46, 72
16, 95459, Note_on_c, 8, 46, 0
16, 95460, Note_on_c, 8, 45, 72
16, 95519, Note_on_c, 8, 45, 0
16, 95520, Note_on_c, 8, 43, 72
16, 95639, Note_on_c, 8, 43, 0
16, 95640, Note_on_c, 8, 41, 72
16, 95759, Note_on_c, 8, 41, 0
16, 95760, Note_on_c, 8, 40, 72
16, 95879, Note_on_c, 8, 40, 0
16, 95880, Note_on_c, 8, 43, 72
16, 95999, Note_on_c, 8, 43, 0
16, 96000, Note_on_c, 8, 36, 72
16, 96239, Note_on_c, 8, 36, 0
16, 96840, Note_on_c, 8, 36, 72
16, 96959, Note_on_c, 8, 36, 0
16, 96960, Note_on_c, 8, 36, 72
16, 97079, Note_on_c, 8, 36, 0
16, 97080, Note_on_c, 8, 36, 72
16, 97199, Note_on_c, 8, 36, 0
16, 97200, Note_on_c, 8, 37, 72
16, 97259, Note_on_c, 8, 37, 0
16, 97260, Note_on_c, 8, 39, 72
16, 97319, Note_on_c, 8, 39, 0
16, 97320, Note_on_c, 8, 37, 72
16, 97379, Note_on_c, 8, 37, 0
16, 97380, Note_on_c, 8, 36, 72
16, 97439, Note_on_c, 8, 36, 0
16, 97440, Note_on_c, 8, 38, 72
16, 97499, Note_on_c, 8, 38, 0
16, 97500, Note_on_c, 8, 39, 72
16, 97559, Note_on_c, 8, 39, 0
16, 97560, Note_on_c, 8, 36, 72
16, 97619, Note_on_c, 8, 36, 0
16, 97620, Note_on_c, 8, 38, 72
16, 97679, Note_on_c, 8, 38, 0
16, 97680, Note_on_c, 8, 39, 72
16, 97739, Note_on_c, 8, 39, 0
16, 97740, Note_on_c, 8, 41, 72
16, 97799, Note_on_c, 8, 41, 0
16, 97800, Note_on_c, 8, 39, 72
16, 97859, Note_on_c, 8, 39, 0
16, 97860, Note_on_c, 8, 38, 72
16, 97919, Note_on_c, 8, 38, 0
16, 97920, Note_on_c, 8, 40, 72
16, 97979, Note_on_c, 8, 40, 0
16, 97980, Note_on_c, 8, 41, 72
16, 98039, Note_on_c, 8, 41, 0
16, 98040, Note_on_c, 8, 38, 72
16, 98099, Note_on_c, 8, 38, 0
16, 98100, Note_on_c, 8, 40, 72
16, 98159, Note_on_c, 8, 40, 0
16, 98160, Note_on_c, 8, 41, 72
16, 98279, Note_on_c, 8, 41, 0
16, 98280, Note_on_c, 8, 36, 72
16, 98399, Note_on_c, 8, 36, 0
16, 98400, Note_on_c, 8, 41, 72
16, 98519, Note_on_c, 8, 41, 0
16, 98520, Note_on_c, 8, 39, 72
16, 98639, Note_on_c, 8, 39, 0
16, 98640, Note_on_c, 8, 38, 72
16, 98759, Note_on_c, 8, 38, 0
16, 98760, Note_on_c, 8, 31, 72
16, 98879, Note_on_c, 8, 31, 0
16, 98880, Note_on_c, 8, 43, 72
16, 98999, Note_on_c, 8, 43, 0
16, 99000, Note_on_c, 8, 41, 72
16, 99119, Note_on_c, 8, 41, 0
16, 99120, Note_on_c, 8, 39, 72
16, 99239, Note_on_c, 8, 39, 0
16, 100680, Note_on_c, 8, 40, 72
16, 100799, Note_on_c, 8, 40, 0
16, 100800, Note_on_c, 8, 40, 72
16, 100919, Note_on_c, 8, 40, 0
16, 100920, Note_on_c, 8, 40, 72
16, 101039, Note_on_c, 8, 40, 0
16, 101040, Note_on_c, 8, 41, 72
16, 101099, Note_on_c, 8, 41, 0
16, 101100, Note_on_c, 8, 43, 72
16, 101159, Note_on_c, 8, 43, 0
16, 101160, Note_on_c, 8, 41, 72
16, 101219, Note_on_c, 8, 41, 0
16, 101220, Note_on_c, 8, 40, 72
16, 101279, Note_on_c, 8, 40, 0
16, 101280, Note_on_c, 8, 42, 72
16, 101339, Note_on_c, 8, 42, 0
16, 101340, Note_on_c, 8, 43, 72
16, 101399, Note_on_c, 8, 43, 0
16, 101400, Note_on_c, 8, 40, 72
16, 101459, Note_on_c, 8, 40, 0
16, 101460, Note_on_c, 8, 42, 72
16, 101519, Note_on_c, 8, 42, 0
16, 101520, Note_on_c, 8, 43, 72
16, 101579, Note_on_c, 8, 43, 0
16, 101580, Note_on_c, 8, 45, 72
16, 101639, Note_on_c, 8, 45, 0
16, 101640, Note_on_c, 8, 43, 72
16, 101699, Note_on_c, 8, 43, 0
16, 101700, Note_on_c, 8, 41, 72
16, 101759, Note_on_c, 8, 41, 0
16, 101760, Note_on_c, 8, 44, 72
16, 101819, Note_on_c, 8, 44, 0
16, 101820, Note_on_c, 8, 45, 72
16, 101879, Note_on_c, 8, 45, 0
16, 101880, Note_on_c, 8, 42, 72
16, 101939, Note_on_c, 8, 42, 0
16, 101940, Note_on_c, 8, 44, 72
16, 101999, Note_on_c, 8, 44, 0
16, 102000, Note_on_c, 8, 45, 72
16, 102239, Note_on_c, 8, 45, 0
16, 102240, Note_on_c, 8, 45, 72
16, 102479, Note_on_c, 8, 45, 0
16, 102480, Note_on_c, 8, 41, 72
16, 102719, Note_on_c, 8, 41, 0
16, 102720, Note_on_c, 8, 46, 72
16, 102959, Note_on_c, 8, 46, 0
16, 102960, Note_on_c, 8, 37, 72
16, 103439, Note_on_c, 8, 37, 0
16, 103440, Note_on_c, 8, 38, 72
16, 103679, Note_on_c, 8, 38, 0
16, 103680, Note_on_c, 8, 38, 72
16, 103799, Note_on_c, 8, 38, 0
16, 103800, Note_on_c, 8, 38, 72
16, 103919, Note_on_c, 8, 38, 0
16, 103920, Note_on_c, 8, 40, 72
16, 104279, Note_on_c, 8, 40, 0
16, 104280, Note_on_c, 8, 38, 72
16, 104339, Note_on_c, 8, 38, 0
16, 104340, Note_on_c, 8, 40, 72
16, 104399, Note_on_c, 8, 40, 0
16, 104400, Note_on_c, 8, 41, 72
16, 104519, Note_on_c, 8, 41, 0
16, 104520, Note_on_c, 8, 40, 72
16, 104579, Note_on_c, 8, 40, 0
16, 104580, Note_on_c, 8, 41, 72
16, 104639, Note_on_c, 8, 41, 0
16, 104640, Note_on_c, 8, 43, 72
16, 104759, Note_on_c, 8, 43, 0
16, 104760, Note_on_c, 8, 41, 72
16, 104819, Note_on_c, 8, 41, 0
16, 104820, Note_on_c, 8, 43, 72
16, 104879, Note_on_c, 8, 43, 0
16, 104880, Note_on_c, 8, 45, 72
16, 104999, Note_on_c, 8, 45, 0
16, 105000, Note_on_c, 8, 46, 72
16, 105059, Note_on_c, 8, 46, 0
16, 105060, Note_on_c, 8, 45, 72
16, 105119, Note_on_c, 8, 45, 0
16, 105120, Note_on_c, 8, 43, 72
16, 105179, Note_on_c, 8, 43, 0
16, 105180, Note_on_c, 8, 41, 72
16, 105239, Note_on_c, 8, 41, 0
16, 105240, Note_on_c, 8, 40, 72
16, 105299, Note_on_c, 8, 40, 0
16, 105300, Note_on_c, 8, 38, 72
16, 105359, Note_on_c, 8, 38, 0
16, 105360, Note_on_c, 8, 37, 72
16, 105599, Note_on_c, 8, 37, 0
16, 105600, Note_on_c, 8, 38, 72
16, 105719, Note_on_c, 8, 38, 0
16, 105720, Note_on_c, 8, 45, 72
16, 105839, Note_on_c, 8, 45, 0
16, 105840, Note_on_c, 8, 46, 72
16, 106079, Note_on_c, 8, 46, 0
16, 106080, Note_on_c, 8, 34, 72
16, 106319, Note_on_c, 8, 34, 0
16, 106320, Note_on_c, 8, 33, 72
16, 106439, Note_on_c, 8, 33, 0
16, 107400, Note_on_c, 8, 33, 72
16, 107519, Note_on_c, 8, 33, 0
16, 107520, Note_on_c, 8, 33, 72
16, 107639, Note_on_c, 8, 33, 0
16, 107640, Note_on_c, 8, 33, 72
16, 107759, Note_on_c, 8, 33, 0
16, 107760, Note_on_c, 8, 34, 72
16, 107819, Note_on_c, 8, 34, 0
16, 107820, Note_on_c, 8, 36, 72
16, 107879, Note_on_c, 8, 36, 0
16, 107880, Note_on_c, 8, 34, 72
16, 107939, Note_on_c, 8, 34, 0
16, 107940, Note_on_c, 8, 33, 72
16, 107999, Note_on_c, 8, 33, 0
16, 108000, Note_on_c, 8, 35, 72
16, 108059, Note_on_c, 8, 35, 0
16, 108060, Note_on_c, 8, 36, 72
16, 108119, Note_on_c, 8, 36, 0
16, 108120, Note_on_c, 8, 33, 72
16, 108179, Note_on_c, 8, 33, 0
16, 108180, Note_on_c, 8, 35, 72
16, 108239, Note_on_c, 8, 35, 0
16, 108240, Note_on_c, 8, 36, 72
16, 108299, Note_on_c, 8, 36, 0
16, 108300, Note_on_c, 8, 38, 72
16, 108359, Note_on_c, 8, 38, 0
16, 108360, Note_on_c, 8, 36, 72
16, 108419, Note_on_c, 8, 36, 0
16, 108420, Note_on_c, 8, 35, 72
16, 108479, Note_on_c, 8, 35, 0
16, 108480, Note_on_c, 8, 37, 72
16, 108539, Note_on_c, 8, 37, 0
16, 108540, Note_on_c, 8, 38, 72
16, 108599, Note_on_c, 8, 38, 0
16, 108600, Note_on_c, 8, 35, 72
16, 108659, Note_on_c, 8, 35, 0
16, 108660, Note_on_c, 8, 37, 72
16, 108719, Note_on_c, 8, 37, 0
16, 108720, Note_on_c, 8, 38, 72
16, 108839, Note_on_c, 8, 38, 0
16, 108840, Note_on_c, 8, 38, 72
16, 108959, Note_on_c, 8, 38, 0
16, 108960, Note_on_c, 8, 43, 72
16, 109079, Note_on_c, 8, 43, 0
16, 109080, Note_on_c, 8, 41, 72
16, 109199, Note_on_c, 8, 41, 0
16, 109200, Note_on_c, 8, 40, 72
16, 109319, Note_on_c, 8, 40, 0
16, 109320, Note_on_c, 8, 40, 72
16, 109439, Note_on_c, 8, 40, 0
16, 109440, Note_on_c, 8, 45, 72
16, 109559, Note_on_c, 8, 45, 0
16, 109560, Note_on_c, 8, 43, 72
16, 109679, Note_on_c, 8, 43, 0
16, 109680, Note_on_c, 8, 41, 72
16, 109799, Note_on_c, 8, 41, 0
16, 110520, Note_on_c, 8, 40, 72
16, 110639, Note_on_c, 8, 40, 0
16, 110640, Note_on_c, 8, 45, 72
16, 110759, Note_on_c, 8, 45, 0
16, 110760, Note_on_c, 8, 33, 72
16, 110879, Note_on_c, 8, 33, 0
16, 110880, Note_on_c, 8, 38, 72
16, 110999, Note_on_c, 8, 38, 0
16, 111000, Note_on_c, 8, 36, 72
16, 111119, Note_on_c, 8, 36, 0
16, 111120, Note_on_c, 8, 35, 72
16, 111239, Note_on_c, 8, 35, 0
16, 111240, Note_on_c, 8, 35, 72
16, 111359, Note_on_c, 8, 35, 0
16, 111360, Note_on_c, 8, 40, 72
16, 111479, Note_on_c, 8, 40, 0
16, 111480, Note_on_c, 8, 38, 72
16, 111599, Note_on_c, 8, 38, 0
16, 111600, Note_on_c, 8, 37, 72
16, 111719, Note_on_c, 8, 37, 0
16, 111720, Note_on_c, 8, 45, 72
16, 111839, Note_on_c, 8, 45, 0
16, 111840, Note_on_c, 8, 46, 72
16, 111959, Note_on_c, 8, 46, 0
16, 111960, Note_on_c, 8, 43, 72
16, 112079, Note_on_c, 8, 43, 0
16, 112080, Note_on_c, 8, 45, 72
16, 112319, Note_on_c, 8, 45, 0
16, 112320, Note_on_c, 8, 33, 72
16, 112559, Note_on_c, 8, 33, 0
16, 112560, Note_on_c, 8, 32, 72
16, 113039, Note_on_c, 8, 32, 0
16, 113280, Note_on_c, 8, 44, 72
16, 113519, Note_on_c, 8, 44, 0
16, 113520, Note_on_c, 8, 45, 72
16, 113759, Note_on_c, 8, 45, 0
16, 113760, Note_on_c, 8, 41, 72
16, 113879, Note_on_c, 8, 41, 0
16, 113880, Note_on_c, 8, 38, 72
16, 113999, Note_on_c, 8, 38, 0
16, 114000, Note_on_c, 8, 33, 72
16, 114239, Note_on_c, 8, 33, 0
16, 114240, Note_on_c, 8, 33, 72
16, 114479, Note_on_c, 8, 33, 0
16, 114480, Note_on_c, 8, 38, 72
16, 115439, Note_on_c, 8, 38, 0
16, 115439, End_track
17, 0, Start_track
17, 0, Title_t, "Soprano "
17, 0, MIDI_port, 0
17, 0, Program_c, 10, 73
17, 0, Control_c, 10, 7, 96
17, 0, Control_c, 10, 10, 24
17, 0, Control_c, 10, 11, 127
17, 960, Note_on_c, 10, 69, 88
17, 1199, Note_on_c, 10, 69, 0
17, 1200, Note_on_c, 10, 69, 88
17, 1439, Note_on_c, 10, 69, 0
17, 1440, Note_on_c, 10, 70, 88
17, 2159, Note_on_c, 10, 70, 0
17, 2160, Note_on_c, 10, 69, 88
17, 2399, Note_on_c, 10, 69, 0
17, 2640, Note_on_c, 10, 69, 88
17, 2879, Note_on_c, 10, 69, 0
17, 2880, Note_on_c, 10, 73, 88
17, 3599, Note_on_c, 10, 73, 0
17, 3600, Note_on_c, 10, 74, 88
17, 3839, Note_on_c, 10, 74, 0
17, 4080, Note_on_c, 10, 74, 88
17, 4319, Note_on_c, 10, 74, 0
17, 4320, Note_on_c, 10, 76, 88
17, 4799, Note_on_c, 10, 76, 0
17, 4800, Note_on_c, 10, 76, 88
17, 5039, Note_on_c, 10, 76, 0
17, 5040, Note_on_c, 10, 77, 88
17, 5759, Note_on_c, 10, 77, 0
17, 5760, Note_on_c, 10, 76, 88
17, 5999, Note_on_c, 10, 76, 0
17, 7440, Note_on_c, 10, 72, 58
17, 7679, Note_on_c, 10, 72, 0
17, 7680, Note_on_c, 10, 72, 58
17, 7919, Note_on_c, 10, 72, 0
17, 7920, Note_on_c, 10, 72, 58
17, 8159, Note_on_c, 10, 72, 0
17, 8160, Note_on_c, 10, 70, 58
17, 8279, Note_on_c, 10, 70, 0
17, 8280, Note_on_c, 10, 69, 58
17, 8399, Note_on_c, 10, 69, 0
17, 8400, Note_on_c, 10, 67, 58
17, 8519, Note_on_c, 10, 67, 0
17, 8520, Note_on_c, 10, 65, 58
17, 8639, Note_on_c, 10, 65, 0
17, 8640, Note_on_c, 10, 65, 58
17, 9119, Note_on_c, 10, 65, 0
17, 9120, Note_on_c, 10, 69, 58
17, 9179, Note_on_c, 10, 69, 0
17, 9180, Note_on_c, 10, 67, 58
17, 9359, Note_on_c, 10, 67, 0
17, 9360, Note_on_c, 10, 65, 58
17, 9599, Note_on_c, 10, 65, 0
17, 11760, Note_on_c, 10, 69, 88
17, 11999, Note_on_c, 10, 69, 0
17, 12000, Note_on_c, 10, 69, 88
17, 12239, Note_on_c, 10, 69, 0
17, 12240, Note_on_c, 10, 70, 88
17, 12959, Note_on_c, 10, 70, 0
17, 12960, Note_on_c, 10, 69, 88
17, 13199, Note_on_c, 10, 69, 0
17, 13440, Note_on_c, 10, 65, 88
17, 13679, Note_on_c, 10, 65, 0
17, 13680, Note_on_c, 10, 74, 88
17, 14399, Note_on_c, 10, 74, 0
17, 14400, Note_on_c, 10, 72, 88
17, 14639, Note_on_c, 10, 72, 0
17, 14880, Note_on_c, 10, 76, 88
17, 15119, Note_on_c, 10, 76, 0
17, 15120, Note_on_c, 10, 76, 88
17, 15599, Note_on_c, 10, 76, 0
17, 15600, Note_on_c, 10, 74, 88
17, 15839, Note_on_c, 10, 74, 0
17, 15840, Note_on_c, 10, 72, 88
17, 16559, Note_on_c, 10, 72, 0
17, 16560, Note_on_c, 10, 71, 88
17, 16799, Note_on_c, 10, 71, 0
17, 17520, Note_on_c, 10, 67, 58
17, 17759, Note_on_c, 10, 67, 0
17, 17760, Note_on_c, 10, 67, 58
17, 17999, Note_on_c, 10, 67, 0
17, 18000, Note_on_c, 10, 67, 58
17, 18479, Note_on_c, 10, 67, 0
17, 18480, Note_on_c, 10, 67, 58
17, 18719, Note_on_c, 10, 67, 0
17, 18720, Note_on_c, 10, 67, 58
17, 19199, Note_on_c, 10, 67, 0
17, 19200, Note_on_c, 10, 67, 58
17, 19439, Note_on_c, 10, 67, 0
17, 19440, Note_on_c, 10, 67, 58
17, 19679, Note_on_c, 10, 67, 0
17, 19680, Note_on_c, 10, 65, 58
17, 19799, Note_on_c, 10, 65, 0
17, 19800, Note_on_c, 10, 64, 58
17, 19919, Note_on_c, 10, 64, 0
17, 19920, Note_on_c, 10, 65, 58
17, 20399, Note_on_c, 10, 65, 0
17, 20400, Note_on_c, 10, 64, 58
17, 20639, Note_on_c, 10, 64, 0
17, 20640, Note_on_c, 10, 63, 58
17, 20879, Note_on_c, 10, 63, 0
17, 20880, Note_on_c, 10, 62, 58
17, 21359, Note_on_c, 10, 62, 0
17, 21360, Note_on_c, 10, 62, 58
17, 21599, Note_on_c, 10, 62, 0
17, 21600, Note_on_c, 10, 60, 58
17, 21839, Note_on_c, 10, 60, 0
17, 24000, Note_on_c, 10, 76, 88
17, 24239, Note_on_c, 10, 76, 0
17, 24240, Note_on_c, 10, 76, 88
17, 24479, Note_on_c, 10, 76, 0
17, 24480, Note_on_c, 10, 77, 88
17, 25199, Note_on_c, 10, 77, 0
17, 25200, Note_on_c, 10, 76, 88
17, 25439, Note_on_c, 10, 76, 0
17, 25680, Note_on_c, 10, 76, 88
17, 25919, Note_on_c, 10, 76, 0
17, 25920, Note_on_c, 10, 77, 88
17, 26639, Note_on_c, 10, 77, 0
17, 26640, Note_on_c, 10, 77, 88
17, 26879, Note_on_c, 10, 77, 0
17, 27120, Note_on_c, 10, 77, 88
17, 27359, Note_on_c, 10, 77, 0
17, 27360, Note_on_c, 10, 79, 88
17, 27839, Note_on_c, 10, 79, 0
17, 27840, Note_on_c, 10, 75, 88
17, 28079, Note_on_c, 10, 75, 0
17, 28080, Note_on_c, 10, 75, 88
17, 28799, Note_on_c, 10, 75, 0
17, 28800, Note_on_c, 10, 74, 88
17, 29039, Note_on_c, 10, 74, 0
17, 29760, Note_on_c, 10, 77, 58
17, 29999, Note_on_c, 10, 77, 0
17, 30000, Note_on_c, 10, 77, 58
17, 30239, Note_on_c, 10, 77, 0
17, 30240, Note_on_c, 10, 77, 58
17, 30479, Note_on_c, 10, 77, 0
17, 30480, Note_on_c, 10, 75, 58
17, 30599, Note_on_c, 10, 75, 0
17, 30600, Note_on_c, 10, 74, 58
17, 30719, Note_on_c, 10, 74, 0
17, 30720, Note_on_c, 10, 72, 58
17, 30839, Note_on_c, 10, 72, 0
17, 30840, Note_on_c, 10, 70, 58
17, 30959, Note_on_c, 10, 70, 0
17, 30960, Note_on_c, 10, 70, 58
17, 31439, Note_on_c, 10, 70, 0
17, 31440, Note_on_c, 10, 74, 58
17, 31499, Note_on_c, 10, 74, 0
17, 31500, Note_on_c, 10, 72, 58
17, 31679, Note_on_c, 10, 72, 0
17, 31680, Note_on_c, 10, 70, 58
17, 32399, Note_on_c, 10, 70, 0
17, 32640, Note_on_c, 10, 70, 58
17, 32879, Note_on_c, 10, 70, 0
17, 32880, Note_on_c, 10, 70, 58
17, 33119, Note_on_c, 10, 70, 0
17, 33120, Note_on_c, 10, 70, 58
17, 33839, Note_on_c, 10, 70, 0
17, 33840, Note_on_c, 10, 71, 68
17, 34559, Note_on_c, 10, 71, 0
17, 34560, Note_on_c, 10, 70, 78
17, 35279, Note_on_c, 10, 70, 0
17, 35280, Note_on_c, 10, 70, 88
17, 35519, Note_on_c, 10, 70, 0
17, 35520, Note_on_c, 10, 69, 88
17, 35759, Note_on_c, 10, 69, 0
17, 35760, Note_on_c, 10, 67, 88
17, 35999, Note_on_c, 10, 67, 0
17, 36000, Note_on_c, 10, 69, 88
17, 36719, Note_on_c, 10, 69, 0
17, 38640, Control_c, 10, 10, 50
17, 38640, Note_on_c, 10, 74, 73
17, 38879, Note_on_c, 10, 74, 0
17, 38880, Note_on_c, 10, 77, 73
17, 39119, Note_on_c, 10, 77, 0
17, 39120, Note_on_c, 10, 74, 73
17, 39239, Note_on_c, 10, 74, 0
17, 39240, Note_on_c, 10, 74, 73
17, 39359, Note_on_c, 10, 74, 0
17, 39360, Note_on_c, 10, 74, 73
17, 39719, Note_on_c, 10, 74, 0
17, 39720, Note_on_c, 10, 74, 73
17, 39839, Note_on_c, 10, 74, 0
17, 39840, Note_on_c, 10, 75, 73
17, 40079, Note_on_c, 10, 75, 0
17, 40080, Note_on_c, 10, 74, 73
17, 40199, Note_on_c, 10, 74, 0
17, 40200, Note_on_c, 10, 74, 73
17, 40319, Note_on_c, 10, 74, 0
17, 40320, Note_on_c, 10, 72, 73
17, 40499, Note_on_c, 10, 72, 0
17, 40500, Note_on_c, 10, 72, 73
17, 40559, Note_on_c, 10, 72, 0
17, 40560, Note_on_c, 10, 70, 73
17, 40799, Note_on_c, 10, 70, 0
17, 41520, Note_on_c, 10, 72, 73
17, 41759, Note_on_c, 10, 72, 0
17, 41760, Note_on_c, 10, 72, 73
17, 41879, Note_on_c, 10, 72, 0
17, 41880, Note_on_c, 10, 72, 73
17, 41999, Note_on_c, 10, 72, 0
17, 42000, Note_on_c, 10, 72, 73
17, 42119, Note_on_c, 10, 72, 0
17, 42120, Note_on_c, 10, 72, 73
17, 42239, Note_on_c, 10, 72, 0
17, 42240, Note_on_c, 10, 72, 73
17, 42419, Note_on_c, 10, 72, 0
17, 42420, Note_on_c, 10, 72, 73
17, 42479, Note_on_c, 10, 72, 0
17, 42480, Note_on_c, 10, 74, 73
17, 42599, Note_on_c, 10, 74, 0
17, 42600, Note_on_c, 10, 74, 73
17, 42719, Note_on_c, 10, 74, 0
17, 42720, Note_on_c, 10, 67, 73
17, 42839, Note_on_c, 10, 67, 0
17, 42840, Note_on_c, 10, 67, 73
17, 42959, Note_on_c, 10, 67, 0
17, 42960, Note_on_c, 10, 70, 73
17, 43199, Note_on_c, 10, 70, 0
17, 43200, Note_on_c, 10, 69, 73
17, 43379, Note_on_c, 10, 69, 0
17, 43380, Note_on_c, 10, 69, 73
17, 43439, Note_on_c, 10, 69, 0
17, 43440, Note_on_c, 10, 67, 73
17, 43679, Note_on_c, 10, 67, 0
17, 44400, Control_c, 10, 10, 24
17, 44400, Note_on_c, 10, 74, 88
17, 44639, Note_on_c, 10, 74, 0
17, 44640, Note_on_c, 10, 77, 88
17, 44879, Note_on_c, 10, 77, 0
17, 44880, Note_on_c, 10, 74, 88
17, 44999, Note_on_c, 10, 74, 0
17, 45000, Note_on_c, 10, 74, 88
17, 45119, Note_on_c, 10, 74, 0
17, 45120, Note_on_c, 10, 74, 88
17, 45599, Note_on_c, 10, 74, 0
17, 45600, Note_on_c, 10, 74, 88
17, 45719, Note_on_c, 10, 74, 0
17, 45720, Note_on_c, 10, 74, 88
17, 45839, Note_on_c, 10, 74, 0
17, 45840, Note_on_c, 10, 75, 88
17, 45959, Note_on_c, 10, 75, 0
17, 45960, Note_on_c, 10, 74, 88
17, 46079, Note_on_c, 10, 74, 0
17, 46080, Note_on_c, 10, 72, 88
17, 46259, Note_on_c, 10, 72, 0
17, 46260, Note_on_c, 10, 72, 88
17, 46319, Note_on_c, 10, 72, 0
17, 46320, Note_on_c, 10, 70, 88
17, 46559, Note_on_c, 10, 70, 0
17, 47280, Note_on_c, 10, 72, 88
17, 47519, Note_on_c, 10, 72, 0
17, 47520, Note_on_c, 10, 72, 88
17, 47639, Note_on_c, 10, 72, 0
17, 47640, Note_on_c, 10, 72, 88
17, 47759, Note_on_c, 10, 72, 0
17, 47760, Note_on_c, 10, 72, 88
17, 47879, Note_on_c, 10, 72, 0
17, 47880, Note_on_c, 10, 72, 88
17, 47999, Note_on_c, 10, 72, 0
17, 48000, Note_on_c, 10, 72, 88
17, 48179, Note_on_c, 10, 72, 0
17, 48180, Note_on_c, 10, 72, 88
17, 48239, Note_on_c, 10, 72, 0
17, 48240, Note_on_c, 10, 74, 88
17, 48359, Note_on_c, 10, 74, 0
17, 48360, Note_on_c, 10, 74, 88
17, 48479, Note_on_c, 10, 74, 0
17, 48480, Note_on_c, 10, 67, 88
17, 48599, Note_on_c, 10, 67, 0
17, 48600, Note_on_c, 10, 67, 88
17, 48719, Note_on_c, 10, 67, 0
17, 48720, Note_on_c, 10, 70, 88
17, 48959, Note_on_c, 10, 70, 0
17, 48960, Note_on_c, 10, 69, 88
17, 49139, Note_on_c, 10, 69, 0
17, 49140, Note_on_c, 10, 69, 88
17, 49199, Note_on_c, 10, 69, 0
17, 49200, Note_on_c, 10, 67, 88
17, 49439, Note_on_c, 10, 67, 0
17, 53160, Note_on_c, 10, 76, 88
17, 53339, Note_on_c, 10, 76, 0
17, 53340, Note_on_c, 10, 77, 88
17, 53399, Note_on_c, 10, 77, 0
17, 53400, Note_on_c, 10, 76, 88
17, 53459, Note_on_c, 10, 76, 0
17, 53460, Note_on_c, 10, 74, 88
17, 53519, Note_on_c, 10, 74, 0
17, 53520, Note_on_c, 10, 72, 88
17, 53579, Note_on_c, 10, 72, 0
17, 53580, Note_on_c, 10, 76, 88
17, 53639, Note_on_c, 10, 76, 0
17, 53640, Note_on_c, 10, 74, 88
17, 53699, Note_on_c, 10, 74, 0
17, 53700, Note_on_c, 10, 72, 88
17, 53759, Note_on_c, 10, 72, 0
17, 53760, Note_on_c, 10, 71, 88
17, 53819, Note_on_c, 10, 71, 0
17, 53820, Note_on_c, 10, 74, 88
17, 53879, Note_on_c, 10, 74, 0
17, 53880, Note_on_c, 10, 72, 88
17, 53939, Note_on_c, 10, 72, 0
17, 53940, Note_on_c, 10, 71, 88
17, 53999, Note_on_c, 10, 71, 0
17, 54000, Note_on_c, 10, 69, 88
17, 54059, Note_on_c, 10, 69, 0
17, 54060, Note_on_c, 10, 71, 88
17, 54119, Note_on_c, 10, 71, 0
17, 54120, Note_on_c, 10, 72, 88
17, 54299, Note_on_c, 10, 72, 0
17, 54300, Note_on_c, 10, 70, 88
17, 54359, Note_on_c, 10, 70, 0
17, 54360, Note_on_c, 10, 72, 88
17, 54419, Note_on_c, 10, 72, 0
17, 54420, Note_on_c, 10, 74, 88
17, 54479, Note_on_c, 10, 74, 0
17, 54480, Note_on_c, 10, 70, 88
17, 54779, Note_on_c, 10, 70, 0
17, 54780, Note_on_c, 10, 69, 88
17, 54839, Note_on_c, 10, 69, 0
17, 54840, Note_on_c, 10, 70, 88
17, 54899, Note_on_c, 10, 70, 0
17, 54900, Note_on_c, 10, 72, 88
17, 54959, Note_on_c, 10, 72, 0
17, 54960, Note_on_c, 10, 69, 88
17, 55139, Note_on_c, 10, 69, 0
17, 55140, Note_on_c, 10, 69, 88
17, 55199, Note_on_c, 10, 69, 0
17, 55200, Note_on_c, 10, 69, 88
17, 55439, Note_on_c, 10, 69, 0
17, 55440, Note_on_c, 10, 74, 88
17, 55799, Note_on_c, 10, 74, 0
17, 55800, Note_on_c, 10, 74, 88
17, 55919, Note_on_c, 10, 74, 0
17, 55920, Note_on_c, 10, 74, 88
17, 55979, Note_on_c, 10, 74, 0
17, 55980, Note_on_c, 10, 72, 88
17, 56039, Note_on_c, 10, 72, 0
17, 56040, Note_on_c, 10, 70, 88
17, 56099, Note_on_c, 10, 70, 0
17, 56100, Note_on_c, 10, 72, 88
17, 56159, Note_on_c, 10, 72, 0
17, 56160, Note_on_c, 10, 74, 88
17, 56219, Note_on_c, 10, 74, 0
17, 56220, Note_on_c, 10, 72, 88
17, 56279, Note_on_c, 10, 72, 0
17, 56280, Note_on_c, 10, 74, 88
17, 56339, Note_on_c, 10, 74, 0
17, 56340, Note_on_c, 10, 76, 88
17, 56399, Note_on_c, 10, 76, 0
17, 56400, Note_on_c, 10, 77, 88
17, 56519, Note_on_c, 10, 77, 0
17, 56520, Note_on_c, 10, 72, 88
17, 56639, Note_on_c, 10, 72, 0
17, 56640, Note_on_c, 10, 77, 88
17, 56999, Note_on_c, 10, 77, 0
17, 57000, Note_on_c, 10, 77, 88
17, 57119, Note_on_c, 10, 77, 0
17, 57120, Note_on_c, 10, 76, 88
17, 57239, Note_on_c, 10, 76, 0
17, 57240, Note_on_c, 10, 76, 88
17, 57359, Note_on_c, 10, 76, 0
17, 57360, Note_on_c, 10, 77, 88
17, 57599, Note_on_c, 10, 77, 0
17, 57600, Note_on_c, 10, 79, 88
17, 57839, Note_on_c, 10, 79, 0
17, 57840, Note_on_c, 10, 81, 88
17, 58079, Note_on_c, 10, 81, 0
17, 58080, Note_on_c, 10, 73, 88
17, 58199, Note_on_c, 10, 73, 0
17, 58200, Note_on_c, 10, 73, 88
17, 58319, Note_on_c, 10, 73, 0
17, 58320, Note_on_c, 10, 74, 88
17, 58559, Note_on_c, 10, 74, 0
17, 58560, Note_on_c, 10, 76, 88
17, 58799, Note_on_c, 10, 76, 0
17, 58800, Note_on_c, 10, 77, 88
17, 59039, Note_on_c, 10, 77, 0
17, 59040, Note_on_c, 10, 69, 88
17, 59159, Note_on_c, 10, 69, 0
17, 59160, Note_on_c, 10, 69, 88
17, 59279, Note_on_c, 10, 69, 0
17, 59280, Note_on_c, 10, 70, 88
17, 59519, Note_on_c, 10, 70, 0
17, 59520, Note_on_c, 10, 72, 88
17, 59759, Note_on_c, 10, 72, 0
17, 59760, Note_on_c, 10, 74, 88
17, 59879, Note_on_c, 10, 74, 0
17, 59880, Note_on_c, 10, 74, 88
17, 59999, Note_on_c, 10, 74, 0
17, 60000, Note_on_c, 10, 74, 88
17, 60119, Note_on_c, 10, 74, 0
17, 60120, Note_on_c, 10, 74, 88
17, 60239, Note_on_c, 10, 74, 0
17, 60240, Note_on_c, 10, 77, 88
17, 60419, Note_on_c, 10, 77, 0
17, 60420, Note_on_c, 10, 76, 88
17, 60479, Note_on_c, 10, 76, 0
17, 60480, Note_on_c, 10, 74, 88
17, 60719, Note_on_c, 10, 74, 0
17, 60840, Note_on_c, 10, 74, 88
17, 60959, Note_on_c, 10, 74, 0
17, 60960, Note_on_c, 10, 74, 88
17, 61079, Note_on_c, 10, 74, 0
17, 61080, Note_on_c, 10, 74, 88
17, 61199, Note_on_c, 10, 74, 0
17, 61200, Note_on_c, 10, 77, 88
17, 61379, Note_on_c, 10, 77, 0
17, 61380, Note_on_c, 10, 76, 88
17, 61439, Note_on_c, 10, 76, 0
17, 61440, Note_on_c, 10, 74, 88
17, 61679, Note_on_c, 10, 74, 0
17, 61920, Note_on_c, 10, 77, 88
17, 62399, Note_on_c, 10, 77, 0
17, 62400, Note_on_c, 10, 76, 88
17, 62519, Note_on_c, 10, 76, 0
17, 62520, Note_on_c, 10, 74, 88
17, 62639, Note_on_c, 10, 74, 0
17, 62640, Note_on_c, 10, 74, 88
17, 62759, Note_on_c, 10, 74, 0
17, 62760, Note_on_c, 10, 73, 88
17, 62879, Note_on_c, 10, 73, 0
17, 63000, Note_on_c, 10, 69, 58
17, 63119, Note_on_c, 10, 69, 0
17, 63120, Note_on_c, 10, 69, 58
17, 63359, Note_on_c, 10, 69, 0
17, 63360, Note_on_c, 10, 69, 58
17, 63599, Note_on_c, 10, 69, 0
17, 63600, Note_on_c, 10, 69, 58
17, 63779, Note_on_c, 10, 69, 0
17, 63780, Note_on_c, 10, 69, 58
17, 63839, Note_on_c, 10, 69, 0
17, 63840, Note_on_c, 10, 69, 58
17, 64079, Note_on_c, 10, 69, 0
17, 64080, Note_on_c, 10, 69, 58
17, 64319, Note_on_c, 10, 69, 0
17, 64320, Note_on_c, 10, 68, 58
17, 64439, Note_on_c, 10, 68, 0
17, 64440, Note_on_c, 10, 69, 58
17, 64559, Note_on_c, 10, 69, 0
17, 64560, Note_on_c, 10, 65, 58
17, 64799, Note_on_c, 10, 65, 0
17, 64800, Note_on_c, 10, 64, 58
17, 64919, Note_on_c, 10, 64, 0
17, 64920, Note_on_c, 10, 62, 58
17, 65039, Note_on_c, 10, 62, 0
17, 65040, Note_on_c, 10, 64, 58
17, 65519, Note_on_c, 10, 64, 0
17, 68880, Note_on_c, 10, 74, 88
17, 69359, Note_on_c, 10, 74, 0
17, 69360, Note_on_c, 10, 72, 88
17, 69599, Note_on_c, 10, 72, 0
17, 69600, Note_on_c, 10, 77, 88
17, 69839, Note_on_c, 10, 77, 0
17, 69840, Note_on_c, 10, 68, 88
17, 70319, Note_on_c, 10, 68, 0
17, 70320, Note_on_c, 10, 69, 88
17, 70559, Note_on_c, 10, 69, 0
17, 70560, Note_on_c, 10, 69, 88
17, 70679, Note_on_c, 10, 69, 0
17, 70680, Note_on_c, 10, 69, 88
17, 70799, Note_on_c, 10, 69, 0
17, 70800, Note_on_c, 10, 71, 88
17, 71159, Note_on_c, 10, 71, 0
17, 71160, Note_on_c, 10, 69, 88
17, 71219, Note_on_c, 10, 69, 0
17, 71220, Note_on_c, 10, 71, 88
17, 71279, Note_on_c, 10, 71, 0
17, 71280, Note_on_c, 10, 72, 88
17, 71399, Note_on_c, 10, 72, 0
17, 71400, Note_on_c, 10, 71, 88
17, 71459, Note_on_c, 10, 71, 0
17, 71460, Note_on_c, 10, 72, 88
17, 71519, Note_on_c, 10, 72, 0
17, 71520, Note_on_c, 10, 74, 88
17, 71639, Note_on_c, 10, 74, 0
17, 71640, Note_on_c, 10, 72, 88
17, 71699, Note_on_c, 10, 72, 0
17, 71700, Note_on_c, 10, 74, 88
17, 71759, Note_on_c, 10, 74, 0
17, 71760, Note_on_c, 10, 76, 88
17, 71879, Note_on_c, 10, 76, 0
17, 71880, Note_on_c, 10, 74, 88
17, 71999, Note_on_c, 10, 74, 0
17, 72000, Note_on_c, 10, 72, 88
17, 72119, Note_on_c, 10, 72, 0
17, 72120, Note_on_c, 10, 71, 88
17, 72239, Note_on_c, 10, 71, 0
17, 72240, Note_on_c, 10, 69, 88
17, 72359, Note_on_c, 10, 69, 0
17, 72360, Note_on_c, 10, 79, 88
17, 72479, Note_on_c, 10, 79, 0
17, 72480, Note_on_c, 10, 77, 88
17, 72599, Note_on_c, 10, 77, 0
17, 72600, Note_on_c, 10, 76, 88
17, 72719, Note_on_c, 10, 76, 0
17, 72720, Note_on_c, 10, 74, 88
17, 72959, Note_on_c, 10, 74, 0
17, 73080, Note_on_c, 10, 62, 88
17, 73199, Note_on_c, 10, 62, 0
17, 73200, Note_on_c, 10, 67, 88
17, 73559, Note_on_c, 10, 67, 0
17, 73560, Note_on_c, 10, 65, 88
17, 73619, Note_on_c, 10, 65, 0
17, 73620, Note_on_c, 10, 64, 88
17, 73679, Note_on_c, 10, 64, 0
17, 73680, Note_on_c, 10, 69, 88
17, 73799, Note_on_c, 10, 69, 0
17, 73800, Note_on_c, 10, 62, 88
17, 73919, Note_on_c, 10, 62, 0
17, 73920, Note_on_c, 10, 74, 88
17, 74399, Note_on_c, 10, 74, 0
17, 74400, Note_on_c, 10, 74, 88
17, 74639, Note_on_c, 10, 74, 0
17, 74640, Note_on_c, 10, 74, 88
17, 74759, Note_on_c, 10, 74, 0
17, 74760, Note_on_c, 10, 73, 88
17, 74819, Note_on_c, 10, 73, 0
17, 74820, Note_on_c, 10, 74, 88
17, 74879, Note_on_c, 10, 74, 0
17, 74880, Note_on_c, 10, 76, 88
17, 75359, Note_on_c, 10, 76, 0
17, 75360, Note_on_c, 10, 74, 88
17, 75479, Note_on_c, 10, 74, 0
17, 75480, Note_on_c, 10, 73, 88
17, 75599, Note_on_c, 10, 73, 0
17, 75600, Note_on_c, 10, 74, 88
17, 75839, Note_on_c, 10, 74, 0
17, 76680, Note_on_c, 10, 71, 88
17, 76799, Note_on_c, 10, 71, 0
17, 76800, Note_on_c, 10, 71, 88
17, 76919, Note_on_c, 10, 71, 0
17, 76920, Note_on_c, 10, 71, 88
17, 77039, Note_on_c, 10, 71, 0
17, 77040, Note_on_c, 10, 72, 88
17, 77099, Note_on_c, 10, 72, 0
17, 77100, Note_on_c, 10, 74, 88
17, 77159, Note_on_c, 10, 74, 0
17, 77160, Note_on_c, 10, 72, 88
17, 77219, Note_on_c, 10, 72, 0
17, 77220, Note_on_c, 10, 71, 88
17, 77279, Note_on_c, 10, 71, 0
17, 77280, Note_on_c, 10, 72, 88
17, 77339, Note_on_c, 10, 72, 0
17, 77340, Note_on_c, 10, 74, 88
17, 77399, Note_on_c, 10, 74, 0
17, 77400, Note_on_c, 10, 71, 88
17, 77459, Note_on_c, 10, 71, 0
17, 77460, Note_on_c, 10, 72, 88
17, 77519, Note_on_c, 10, 72, 0
17, 77520, Note_on_c, 10, 74, 88
17, 77579, Note_on_c, 10, 74, 0
17, 77580, Note_on_c, 10, 76, 88
17, 77639, Note_on_c, 10, 76, 0
17, 77640, Note_on_c, 10, 74, 88
17, 77699, Note_on_c, 10, 74, 0
17, 77700, Note_on_c, 10, 72, 88
17, 77759, Note_on_c, 10, 72, 0
17, 77760, Note_on_c, 10, 74, 88
17, 77819, Note_on_c, 10, 74, 0
17, 77820, Note_on_c, 10, 76, 88
17, 77879, Note_on_c, 10, 76, 0
17, 77880, Note_on_c, 10, 72, 88
17, 77939, Note_on_c, 10, 72, 0
17, 77940, Note_on_c, 10, 74, 88
17, 77999, Note_on_c, 10, 74, 0
17, 78000, Note_on_c, 10, 76, 88
17, 78119, Note_on_c, 10, 76, 0
17, 78120, Note_on_c, 10, 77, 88
17, 78179, Note_on_c, 10, 77, 0
17, 78180, Note_on_c, 10, 76, 88
17, 78239, Note_on_c, 10, 76, 0
17, 78240, Note_on_c, 10, 74, 88
17, 78299, Note_on_c, 10, 74, 0
17, 78300, Note_on_c, 10, 72, 88
17, 78359, Note_on_c, 10, 72, 0
17, 78360, Note_on_c, 10, 71, 88
17, 78419, Note_on_c, 10, 71, 0
17, 78420, Note_on_c, 10, 69, 88
17, 78479, Note_on_c, 10, 69, 0
17, 78480, Note_on_c, 10, 68, 88
17, 78599, Note_on_c, 10, 68, 0
17, 78600, Note_on_c, 10, 71, 88
17, 78719, Note_on_c, 10, 71, 0
17, 78720, Note_on_c, 10, 76, 88
17, 78839, Note_on_c, 10, 76, 0
17, 78840, Note_on_c, 10, 74, 88
17, 78959, Note_on_c, 10, 74, 0
17, 78960, Note_on_c, 10, 72, 88
17, 79019, Note_on_c, 10, 72, 0
17, 79020, Note_on_c, 10, 71, 88
17, 79079, Note_on_c, 10, 71, 0
17, 79080, Note_on_c, 10, 69, 88
17, 79259, Note_on_c, 10, 69, 0
17, 79260, Note_on_c, 10, 70, 88
17, 79319, Note_on_c, 10, 70, 0
17, 79320, Note_on_c, 10, 67, 88
17, 79379, Note_on_c, 10, 67, 0
17, 79380, Note_on_c, 10, 69, 88
17, 79439, Note_on_c, 10, 69, 0
17, 79440, Note_on_c, 10, 66, 88
17, 79679, Note_on_c, 10, 66, 0
17, 79680, Note_on_c, 10, 67, 88
17, 79799, Note_on_c, 10, 67, 0
17, 79800, Note_on_c, 10, 69, 88
17, 79919, Note_on_c, 10, 69, 0
17, 79920, Note_on_c, 10, 62, 88
17, 80159, Note_on_c, 10, 62, 0
17, 80400, Note_on_c, 10, 72, 88
17, 80879, Note_on_c, 10, 72, 0
17, 80880, Note_on_c, 10, 69, 88
17, 81119, Note_on_c, 10, 69, 0
17, 81120, Note_on_c, 10, 74, 88
17, 81359, Note_on_c, 10, 74, 0
17, 81360, Note_on_c, 10, 64, 88
17, 81839, Note_on_c, 10, 64, 0
17, 81840, Note_on_c, 10, 65, 88
17, 82079, Note_on_c, 10, 65, 0
17, 82080, Note_on_c, 10, 65, 88
17, 82199, Note_on_c, 10, 65, 0
17, 82200, Note_on_c, 10, 65, 88
17, 82319, Note_on_c, 10, 65, 0
17, 82320, Note_on_c, 10, 67, 88
17, 82679, Note_on_c, 10, 67, 0
17, 82680, Note_on_c, 10, 65, 88
17, 82739, Note_on_c, 10, 65, 0
17, 82740, Note_on_c, 10, 67, 88
17, 82799, Note_on_c, 10, 67, 0
17, 82800, Note_on_c, 10, 69, 88
17, 82919, Note_on_c, 10, 69, 0
17, 82920, Note_on_c, 10, 67, 88
17, 82979, Note_on_c, 10, 67, 0
17, 82980, Note_on_c, 10, 69, 88
17, 83039, Note_on_c, 10, 69, 0
17, 83040, Note_on_c, 10, 70, 88
17, 83159, Note_on_c, 10, 70, 0
17, 83160, Note_on_c, 10, 69, 88
17, 83219, Note_on_c, 10, 69, 0
17, 83220, Note_on_c, 10, 70, 88
17, 83279, Note_on_c, 10, 70, 0
17, 83280, Note_on_c, 10, 72, 88
17, 83399, Note_on_c, 10, 72, 0
17, 83400, Note_on_c, 10, 70, 88
17, 83519, Note_on_c, 10, 70, 0
17, 83520, Note_on_c, 10, 69, 88
17, 83639, Note_on_c, 10, 69, 0
17, 83640, Note_on_c, 10, 67, 88
17, 83759, Note_on_c, 10, 67, 0
17, 83760, Note_on_c, 10, 66, 88
17, 83999, Note_on_c, 10, 66, 0
17, 84000, Note_on_c, 10, 67, 88
17, 84119, Note_on_c, 10, 67, 0
17, 84120, Note_on_c, 10, 69, 88
17, 84239, Note_on_c, 10, 69, 0
17, 84240, Note_on_c, 10, 70, 88
17, 84479, Note_on_c, 10, 70, 0
17, 84840, Note_on_c, 10, 69, 88
17, 84959, Note_on_c, 10, 69, 0
17, 84960, Note_on_c, 10, 69, 88
17, 85079, Note_on_c, 10, 69, 0
17, 85080, Note_on_c, 10, 69, 88
17, 85199, Note_on_c, 10, 69, 0
17, 85200, Note_on_c, 10, 70, 88
17, 85259, Note_on_c, 10, 70, 0
17, 85260, Note_on_c, 10, 72, 88
17, 85319, Note_on_c, 10, 72, 0
17, 85320, Note_on_c, 10, 70, 88
17, 85379, Note_on_c, 10, 70, 0
17, 85380, Note_on_c, 10, 69, 88
17, 85439, Note_on_c, 10, 69, 0
17, 85440, Note_on_c, 10, 70, 88
17, 85499, Note_on_c, 10, 70, 0
17, 85500, Note_on_c, 10, 72, 88
17, 85559, Note_on_c, 10, 72, 0
17, 85560, Note_on_c, 10, 69, 88
17, 85619, Note_on_c, 10, 69, 0
17, 85620, Note_on_c, 10, 70, 88
17, 85679, Note_on_c, 10, 70, 0
17, 85680, Note_on_c, 10, 72, 88
17, 85739, Note_on_c, 10, 72, 0
17, 85740, Note_on_c, 10, 74, 88
17, 85799, Note_on_c, 10, 74, 0
17, 85800, Note_on_c, 10, 72, 88
17, 85859, Note_on_c, 10, 72, 0
17, 85860, Note_on_c, 10, 70, 88
17, 85919, Note_on_c, 10, 70, 0
17, 85920, Note_on_c, 10, 72, 88
17, 85979, Note_on_c, 10, 72, 0
17, 85980, Note_on_c, 10, 74, 88
17, 86039, Note_on_c, 10, 74, 0
17, 86040, Note_on_c, 10, 70, 88
17, 86099, Note_on_c, 10, 70, 0
17, 86100, Note_on_c, 10, 72, 88
17, 86159, Note_on_c, 10, 72, 0
17, 86160, Note_on_c, 10, 74, 88
17, 86279, Note_on_c, 10, 74, 0
17, 86280, Note_on_c, 10, 75, 88
17, 86339, Note_on_c, 10, 75, 0
17, 86340, Note_on_c, 10, 74, 88
17, 86399, Note_on_c, 10, 74, 0
17, 86400, Note_on_c, 10, 72, 88
17, 86459, Note_on_c, 10, 72, 0
17, 86460, Note_on_c, 10, 70, 88
17, 86519, Note_on_c, 10, 70, 0
17, 86520, Note_on_c, 10, 69, 88
17, 86579, Note_on_c, 10, 69, 0
17, 86580, Note_on_c, 10, 67, 88
17, 86639, Note_on_c, 10, 67, 0
17, 86640, Note_on_c, 10, 66, 88
17, 86759, Note_on_c, 10, 66, 0
17, 86760, Note_on_c, 10, 69, 88
17, 86879, Note_on_c, 10, 69, 0
17, 86880, Note_on_c, 10, 74, 88
17, 86999, Note_on_c, 10, 74, 0
17, 87000, Note_on_c, 10, 72, 88
17, 87119, Note_on_c, 10, 72, 0
17, 87120, Note_on_c, 10, 70, 88
17, 87239, Note_on_c, 10, 70, 0
17, 87240, Note_on_c, 10, 71, 88
17, 87359, Note_on_c, 10, 71, 0
17, 87360, Note_on_c, 10, 72, 88
17, 87479, Note_on_c, 10, 72, 0
17, 87480, Note_on_c, 10, 74, 88
17, 87599, Note_on_c, 10, 74, 0
17, 87600, Note_on_c, 10, 75, 88
17, 87659, Note_on_c, 10, 75, 0
17, 87660, Note_on_c, 10, 74, 88
17, 87719, Note_on_c, 10, 74, 0
17, 87720, Note_on_c, 10, 72, 88
17, 87839, Note_on_c, 10, 72, 0
17, 90960, Note_on_c, 10, 77, 88
17, 91439, Note_on_c, 10, 77, 0
17, 91440, Note_on_c, 10, 74, 88
17, 91679, Note_on_c, 10, 74, 0
17, 91680, Note_on_c, 10, 79, 88
17, 91919, Note_on_c, 10, 79, 0
17, 91920, Note_on_c, 10, 69, 88
17, 92399, Note_on_c, 10, 69, 0
17, 92400, Note_on_c, 10, 70, 88
17, 92639, Note_on_c, 10, 70, 0
17, 92640, Note_on_c, 10, 70, 88
17, 92759, Note_on_c, 10, 70, 0
17, 92760, Note_on_c, 10, 70, 88
17, 92879, Note_on_c, 10, 70, 0
17, 92880, Note_on_c, 10, 72, 88
17, 93239, Note_on_c, 10, 72, 0
17, 93240, Note_on_c, 10, 70, 88
17, 93299, Note_on_c, 10, 70, 0
17, 93300, Note_on_c, 10, 72, 88
17, 93359, Note_on_c, 10, 72, 0
17, 93360, Note_on_c, 10, 74, 88
17, 93479, Note_on_c, 10, 74, 0
17, 93480, Note_on_c, 10, 72, 88
17, 93539, Note_on_c, 10, 72, 0
17, 93540, Note_on_c, 10, 74, 88
17, 93599, Note_on_c, 10, 74, 0
17, 93600, Note_on_c, 10, 75, 88
17, 93719, Note_on_c, 10, 75, 0
17, 93720, Note_on_c, 10, 74, 88
17, 93779, Note_on_c, 10, 74, 0
17, 93780, Note_on_c, 10, 75, 88
17, 93839, Note_on_c, 10, 75, 0
17, 93840, Note_on_c, 10, 77, 88
17, 93959, Note_on_c, 10, 77, 0
17, 93960, Note_on_c, 10, 72, 88
17, 94079, Note_on_c, 10, 72, 0
17, 94080, Note_on_c, 10, 77, 88
17, 94199, Note_on_c, 10, 77, 0
17, 94200, Note_on_c, 10, 75, 88
17, 94319, Note_on_c, 10, 75, 0
17, 94320, Note_on_c, 10, 74, 88
17, 94439, Note_on_c, 10, 74, 0
17, 94440, Note_on_c, 10, 65, 88
17, 94559, Note_on_c, 10, 65, 0
17, 94560, Note_on_c, 10, 70, 88
17, 95039, Note_on_c, 10, 70, 0
17, 95040, Note_on_c, 10, 69, 88
17, 95279, Note_on_c, 10, 69, 0
17, 95280, Note_on_c, 10, 70, 88
17, 95399, Note_on_c, 10, 70, 0
17, 95400, Note_on_c, 10, 70, 88
17, 95519, Note_on_c, 10, 70, 0
17, 95520, Note_on_c, 10, 70, 88
17, 95999, Note_on_c, 10, 70, 0
17, 96000, Note_on_c, 10, 68, 88
17, 96119, Note_on_c, 10, 68, 0
17, 96120, Note_on_c, 10, 67, 88
17, 96239, Note_on_c, 10, 67, 0
17, 96240, Note_on_c, 10, 68, 88
17, 96479, Note_on_c, 10, 68, 0
17, 96480, Note_on_c, 10, 67, 88
17, 96719, Note_on_c, 10, 67, 0
17, 96720, Note_on_c, 10, 67, 88
17, 96959, Note_on_c, 10, 67, 0
17, 97320, Note_on_c, 10, 65, 88
17, 97439, Note_on_c, 10, 65, 0
17, 97440, Note_on_c, 10, 70, 88
17, 97559, Note_on_c, 10, 70, 0
17, 97560, Note_on_c, 10, 68, 88
17, 97679, Note_on_c, 10, 68, 0
17, 97680, Note_on_c, 10, 67, 88
17, 97799, Note_on_c, 10, 67, 0
17, 97800, Note_on_c, 10, 60, 88
17, 97919, Note_on_c, 10, 60, 0
17, 97920, Note_on_c, 10, 72, 88
17, 98039, Note_on_c, 10, 72, 0
17, 98040, Note_on_c, 10, 70, 88
17, 98159, Note_on_c, 10, 70, 0
17, 98160, Note_on_c, 10, 68, 88
17, 98399, Note_on_c, 10, 68, 0
17, 99720, Note_on_c, 10, 69, 88
17, 99839, Note_on_c, 10, 69, 0
17, 99840, Note_on_c, 10, 69, 88
17, 99959, Note_on_c, 10, 69, 0
17, 99960, Note_on_c, 10, 69, 88
17, 100079, Note_on_c, 10, 69, 0
17, 100080, Note_on_c, 10, 70, 88
17, 100139, Note_on_c, 10, 70, 0
17, 100140, Note_on_c, 10, 72, 88
17, 100199, Note_on_c, 10, 72, 0
17, 100200, Note_on_c, 10, 70, 88
17, 100259, Note_on_c, 10, 70, 0
17, 100260, Note_on_c, 10, 69, 88
17, 100319, Note_on_c, 10, 69, 0
17, 100320, Note_on_c, 10, 71, 88
17, 100379, Note_on_c, 10, 71, 0
17, 100380, Note_on_c, 10, 72, 88
17, 100439, Note_on_c, 10, 72, 0
17, 100440, Note_on_c, 10, 69, 88
17, 100499, Note_on_c, 10, 69, 0
17, 100500, Note_on_c, 10, 71, 88
17, 100559, Note_on_c, 10, 71, 0
17, 100560, Note_on_c, 10, 72, 88
17, 100619, Note_on_c, 10, 72, 0
17, 100620, Note_on_c, 10, 74, 88
17, 100679, Note_on_c, 10, 74, 0
17, 100680, Note_on_c, 10, 72, 88
17, 100739, Note_on_c, 10, 72, 0
17, 100740, Note_on_c, 10, 71, 88
17, 100799, Note_on_c, 10, 71, 0
17, 100800, Note_on_c, 10, 73, 88
17, 100859, Note_on_c, 10, 73, 0
17, 100860, Note_on_c, 10, 74, 88
17, 100919, Note_on_c, 10, 74, 0
17, 100920, Note_on_c, 10, 71, 88
17, 100979, Note_on_c, 10, 71, 0
17, 100980, Note_on_c, 10, 73, 88
17, 101039, Note_on_c, 10, 73, 0
17, 101040, Note_on_c, 10, 74, 88
17, 101159, Note_on_c, 10, 74, 0
17, 101160, Note_on_c, 10, 69, 88
17, 101279, Note_on_c, 10, 69, 0
17, 101280, Note_on_c, 10, 74, 88
17, 101399, Note_on_c, 10, 74, 0
17, 101400, Note_on_c, 10, 72, 88
17, 101519, Note_on_c, 10, 72, 0
17, 101520, Note_on_c, 10, 71, 88
17, 101639, Note_on_c, 10, 71, 0
17, 101640, Note_on_c, 10, 64, 88
17, 101759, Note_on_c, 10, 64, 0
17, 101760, Note_on_c, 10, 76, 88
17, 101879, Note_on_c, 10, 76, 0
17, 101880, Note_on_c, 10, 74, 88
17, 101999, Note_on_c, 10, 74, 0
17, 102000, Note_on_c, 10, 73, 88
17, 102239, Note_on_c, 10, 73, 0
17, 103080, Note_on_c, 10, 76, 88
17, 103199, Note_on_c, 10, 76, 0
17, 103200, Note_on_c, 10, 76, 88
17, 103319, Note_on_c, 10, 76, 0
17, 103320, Note_on_c, 10, 76, 88
17, 103439, Note_on_c, 10, 76, 0
17, 103440, Note_on_c, 10, 77, 88
17, 103499, Note_on_c, 10, 77, 0
17, 103500, Note_on_c, 10, 79, 88
17, 103559, Note_on_c, 10, 79, 0
17, 103560, Note_on_c, 10, 77, 88
17, 103619, Note_on_c, 10, 77, 0
17, 103620, Note_on_c, 10, 76, 88
17, 103679, Note_on_c, 10, 76, 0
17, 103680, Note_on_c, 10, 77, 88
17, 103739, Note_on_c, 10, 77, 0
17, 103740, Note_on_c, 10, 79, 88
17, 103799, Note_on_c, 10, 79, 0
17, 103800, Note_on_c, 10, 76, 88
17, 103859, Note_on_c, 10, 76, 0
17, 103860, Note_on_c, 10, 77, 88
17, 103919, Note_on_c, 10, 77, 0
17, 103920, Note_on_c, 10, 79, 88
17, 103979, Note_on_c, 10, 79, 0
17, 103980, Note_on_c, 10, 81, 88
17, 104039, Note_on_c, 10, 81, 0
17, 104040, Note_on_c, 10, 79, 88
17, 104099, Note_on_c, 10, 79, 0
17, 104100, Note_on_c, 10, 77, 88
17, 104159, Note_on_c, 10, 77, 0
17, 104160, Note_on_c, 10, 79, 88
17, 104219, Note_on_c, 10, 79, 0
17, 104220, Note_on_c, 10, 81, 88
17, 104279, Note_on_c, 10, 81, 0
17, 104280, Note_on_c, 10, 77, 88
17, 104339, Note_on_c, 10, 77, 0
17, 104340, Note_on_c, 10, 79, 88
17, 104399, Note_on_c, 10, 79, 0
17, 104400, Note_on_c, 10, 81, 88
17, 104519, Note_on_c, 10, 81, 0
17, 104520, Note_on_c, 10, 82, 88
17, 104579, Note_on_c, 10, 82, 0
17, 104580, Note_on_c, 10, 81, 88
17, 104639, Note_on_c, 10, 81, 0
17, 104640, Note_on_c, 10, 79, 88
17, 104699, Note_on_c, 10, 79, 0
17, 104700, Note_on_c, 10, 77, 88
17, 104759, Note_on_c, 10, 77, 0
17, 104760, Note_on_c, 10, 76, 88
17, 104819, Note_on_c, 10, 76, 0
17, 104820, Note_on_c, 10, 74, 88
17, 104879, Note_on_c, 10, 74, 0
17, 104880, Note_on_c, 10, 73, 88
17, 104999, Note_on_c, 10, 73, 0
17, 105000, Note_on_c, 10, 74, 88
17, 105119, Note_on_c, 10, 74, 0
17, 105120, Note_on_c, 10, 76, 88
17, 105479, Note_on_c, 10, 76, 0
17, 105480, Note_on_c, 10, 79, 88
17, 105599, Note_on_c, 10, 79, 0
17, 105600, Note_on_c, 10, 77, 88
17, 105719, Note_on_c, 10, 77, 0
17, 105720, Note_on_c, 10, 76, 88
17, 105839, Note_on_c, 10, 76, 0
17, 105840, Note_on_c, 10, 74, 88
17, 106319, Note_on_c, 10, 74, 0
17, 106320, Note_on_c, 10, 73, 88
17, 106559, Note_on_c, 10, 73, 0
17, 106560, Note_on_c, 10, 74, 88
17, 106679, Note_on_c, 10, 74, 0
17, 106680, Note_on_c, 10, 76, 88
17, 106799, Note_on_c, 10, 76, 0
17, 106800, Note_on_c, 10, 69, 88
17, 107039, Note_on_c, 10, 69, 0
17, 108360, Note_on_c, 10, 69, 88
17, 108479, Note_on_c, 10, 69, 0
17, 108480, Note_on_c, 10, 69, 88
17, 108599, Note_on_c, 10, 69, 0
17, 108600, Note_on_c, 10, 69, 88
17, 108719, Note_on_c, 10, 69, 0
17, 108720, Note_on_c, 10, 70, 88
17, 108779, Note_on_c, 10, 70, 0
17, 108780, Note_on_c, 10, 72, 88
17, 108839, Note_on_c, 10, 72, 0
17, 108840, Note_on_c, 10, 70, 88
17, 108899, Note_on_c, 10, 70, 0
17, 108900, Note_on_c, 10, 69, 88
17, 108959, Note_on_c, 10, 69, 0
17, 108960, Note_on_c, 10, 71, 88
17, 109019, Note_on_c, 10, 71, 0
17, 109020, Note_on_c, 10, 72, 88
17, 109079, Note_on_c, 10, 72, 0
17, 109080, Note_on_c, 10, 69, 88
17, 109139, Note_on_c, 10, 69, 0
17, 109140, Note_on_c, 10, 71, 88
17, 109199, Note_on_c, 10, 71, 0
17, 109200, Note_on_c, 10, 72, 88
17, 109259, Note_on_c, 10, 72, 0
17, 109260, Note_on_c, 10, 74, 88
17, 109319, Note_on_c, 10, 74, 0
17, 109320, Note_on_c, 10, 72, 88
17, 109379, Note_on_c, 10, 72, 0
17, 109380, Note_on_c, 10, 71, 88
17, 109439, Note_on_c, 10, 71, 0
17, 109440, Note_on_c, 10, 73, 88
17, 109499, Note_on_c, 10, 73, 0
17, 109500, Note_on_c, 10, 74, 88
17, 109559, Note_on_c, 10, 74, 0
17, 109560, Note_on_c, 10, 71, 88
17, 109619, Note_on_c, 10, 71, 0
17, 109620, Note_on_c, 10, 73, 88
17, 109679, Note_on_c, 10, 73, 0
17, 109680, Note_on_c, 10, 74, 88
17, 109919, Note_on_c, 10, 74, 0
17, 110280, Note_on_c, 10, 76, 88
17, 110399, Note_on_c, 10, 76, 0
17, 110400, Note_on_c, 10, 76, 88
17, 110519, Note_on_c, 10, 76, 0
17, 110520, Note_on_c, 10, 76, 88
17, 110639, Note_on_c, 10, 76, 0
17, 110640, Note_on_c, 10, 77, 88
17, 110699, Note_on_c, 10, 77, 0
17, 110700, Note_on_c, 10, 79, 88
17, 110759, Note_on_c, 10, 79, 0
17, 110760, Note_on_c, 10, 77, 88
17, 110819, Note_on_c, 10, 77, 0
17, 110820, Note_on_c, 10, 76, 88
17, 110879, Note_on_c, 10, 76, 0
17, 110880, Note_on_c, 10, 78, 88
17, 110939, Note_on_c, 10, 78, 0
17, 110940, Note_on_c, 10, 79, 88
17, 110999, Note_on_c, 10, 79, 0
17, 111000, Note_on_c, 10, 76, 88
17, 111059, Note_on_c, 10, 76, 0
17, 111060, Note_on_c, 10, 78, 88
17, 111119, Note_on_c, 10, 78, 0
17, 111120, Note_on_c, 10, 79, 88
17, 111179, Note_on_c, 10, 79, 0
17, 111180, Note_on_c, 10, 81, 88
17, 111239, Note_on_c, 10, 81, 0
17, 111240, Note_on_c, 10, 79, 88
17, 111299, Note_on_c, 10, 79, 0
17, 111300, Note_on_c, 10, 78, 88
17, 111359, Note_on_c, 10, 78, 0
17, 111360, Note_on_c, 10, 80, 88
17, 111419, Note_on_c, 10, 80, 0
17, 111420, Note_on_c, 10, 81, 88
17, 111479, Note_on_c, 10, 81, 0
17, 111480, Note_on_c, 10, 78, 88
17, 111539, Note_on_c, 10, 78, 0
17, 111540, Note_on_c, 10, 80, 88
17, 111599, Note_on_c, 10, 80, 0
17, 111600, Note_on_c, 10, 81, 88
17, 111719, Note_on_c, 10, 81, 0
17, 111720, Note_on_c, 10, 73, 88
17, 111839, Note_on_c, 10, 73, 0
17, 111840, Note_on_c, 10, 74, 88
17, 111959, Note_on_c, 10, 74, 0
17, 111960, Note_on_c, 10, 74, 88
17, 112079, Note_on_c, 10, 74, 0
17, 112080, Note_on_c, 10, 74, 88
17, 112319, Note_on_c, 10, 74, 0
17, 112320, Note_on_c, 10, 73, 88
17, 112559, Note_on_c, 10, 73, 0
17, 112560, Note_on_c, 10, 74, 88
17, 113039, Note_on_c, 10, 74, 0
17, 113280, Note_on_c, 10, 74, 88
17, 113459, Note_on_c, 10, 74, 0
17, 113460, Note_on_c, 10, 74, 88
17, 113519, Note_on_c, 10, 74, 0
17, 113520, Note_on_c, 10, 73, 88
17, 113759, Note_on_c, 10, 73, 0
17, 113760, Note_on_c, 10, 74, 88
17, 114239, Note_on_c, 10, 74, 0
17, 114240, Note_on_c, 10, 73, 88
17, 114479, Note_on_c, 10, 73, 0
17, 114480, Note_on_c, 10, 74, 88
17, 115439, Note_on_c, 10, 74, 0
17, 115439, End_track
18, 0, Start_track
18, 0, Title_t, "Alto "
18, 0, MIDI_port, 0
18, 0, Program_c, 11, 73
18, 0, Control_c, 11, 7, 96
18, 0, Control_c, 11, 10, 96
18, 0, Control_c, 11, 11, 127
18, 960, Note_on_c, 11, 65, 88
18, 1199, Note_on_c, 11, 65, 0
18, 1200, Note_on_c, 11, 65, 88
18, 1439, Note_on_c, 11, 65, 0
18, 1440, Note_on_c, 11, 67, 88
18, 2159, Note_on_c, 11, 67, 0
18, 2160, Note_on_c, 11, 65, 88
18, 2399, Note_on_c, 11, 65, 0
18, 2640, Note_on_c, 11, 65, 88
18, 2879, Note_on_c, 11, 65, 0
18, 2880, Note_on_c, 11, 67, 88
18, 3599, Note_on_c, 11, 67, 0
18, 3600, Note_on_c, 11, 65, 88
18, 3839, Note_on_c, 11, 65, 0
18, 4080, Note_on_c, 11, 69, 88
18, 4319, Note_on_c, 11, 69, 0
18, 4320, Note_on_c, 11, 70, 88
18, 4799, Note_on_c, 11, 70, 0
18, 4800, Note_on_c, 11, 70, 88
18, 5039, Note_on_c, 11, 70, 0
18, 5040, Note_on_c, 11, 71, 88
18, 5759, Note_on_c, 11, 71, 0
18, 5760, Note_on_c, 11, 64, 88
18, 5999, Note_on_c, 11, 64, 0
18, 7440, Note_on_c, 11, 65, 58
18, 7679, Note_on_c, 11, 65, 0
18, 7680, Note_on_c, 11, 63, 58
18, 7919, Note_on_c, 11, 63, 0
18, 7920, Note_on_c, 11, 63, 58
18, 8159, Note_on_c, 11, 63, 0
18, 8160, Note_on_c, 11, 62, 58
18, 8279, Note_on_c, 11, 62, 0
18, 8280, Note_on_c, 11, 60, 58
18, 8399, Note_on_c, 11, 60, 0
18, 8400, Note_on_c, 11, 58, 58
18, 8519, Note_on_c, 11, 58, 0
18, 8520, Note_on_c, 11, 57, 58
18, 8639, Note_on_c, 11, 57, 0
18, 8640, Note_on_c, 11, 57, 58
18, 9119, Note_on_c, 11, 57, 0
18, 9120, Note_on_c, 11, 58, 58
18, 9359, Note_on_c, 11, 58, 0
18, 9360, Note_on_c, 11, 57, 58
18, 9599, Note_on_c, 11, 57, 0
18, 11760, Note_on_c, 11, 65, 88
18, 11999, Note_on_c, 11, 65, 0
18, 12000, Note_on_c, 11, 65, 88
18, 12239, Note_on_c, 11, 65, 0
18, 12240, Note_on_c, 11, 67, 88
18, 12959, Note_on_c, 11, 67, 0
18, 12960, Note_on_c, 11, 65, 88
18, 13199, Note_on_c, 11, 65, 0
18, 13440, Note_on_c, 11, 65, 88
18, 13679, Note_on_c, 11, 65, 0
18, 13680, Note_on_c, 11, 67, 88
18, 14399, Note_on_c, 11, 67, 0
18, 14400, Note_on_c, 11, 67, 88
18, 14639, Note_on_c, 11, 67, 0
18, 14880, Note_on_c, 11, 67, 88
18, 15119, Note_on_c, 11, 67, 0
18, 15120, Note_on_c, 11, 67, 88
18, 15599, Note_on_c, 11, 67, 0
18, 15600, Note_on_c, 11, 65, 88
18, 15839, Note_on_c, 11, 65, 0
18, 15840, Note_on_c, 11, 66, 88
18, 16559, Note_on_c, 11, 66, 0
18, 16560, Note_on_c, 11, 68, 88
18, 16799, Note_on_c, 11, 68, 0
18, 18240, Note_on_c, 11, 62, 58
18, 18479, Note_on_c, 11, 62, 0
18, 18480, Note_on_c, 11, 65, 58
18, 18719, Note_on_c, 11, 65, 0
18, 18720, Note_on_c, 11, 65, 58
18, 18959, Note_on_c, 11, 65, 0
18, 18960, Note_on_c, 11, 64, 58
18, 19079, Note_on_c, 11, 64, 0
18, 19080, Note_on_c, 11, 62, 58
18, 19199, Note_on_c, 11, 62, 0
18, 19200, Note_on_c, 11, 64, 58
18, 19439, Note_on_c, 11, 64, 0
18, 19440, Note_on_c, 11, 60, 58
18, 19919, Note_on_c, 11, 60, 0
18, 19920, Note_on_c, 11, 62, 58
18, 20159, Note_on_c, 11, 62, 0
18, 20160, Note_on_c, 11, 62, 58
18, 20399, Note_on_c, 11, 62, 0
18, 20400, Note_on_c, 11, 60, 58
18, 20879, Note_on_c, 11, 60, 0
18, 20880, Note_on_c, 11, 60, 58
18, 21119, Note_on_c, 11, 60, 0
18, 21120, Note_on_c, 11, 59, 58
18, 21239, Note_on_c, 11, 59, 0
18, 21240, Note_on_c, 11, 57, 58
18, 21359, Note_on_c, 11, 57, 0
18, 21360, Note_on_c, 11, 59, 58
18, 21599, Note_on_c, 11, 59, 0
18, 21600, Note_on_c, 11, 60, 58
18, 21839, Note_on_c, 11, 60, 0
18, 24000, Note_on_c, 11, 67, 88
18, 24239, Note_on_c, 11, 67, 0
18, 24240, Note_on_c, 11, 67, 88
18, 24479, Note_on_c, 11, 67, 0
18, 24480, Note_on_c, 11, 67, 88
18, 25199, Note_on_c, 11, 67, 0
18, 25200, Note_on_c, 11, 67, 88
18, 25439, Note_on_c, 11, 67, 0
18, 25680, Note_on_c, 11, 67, 88
18, 25919, Note_on_c, 11, 67, 0
18, 25920, Note_on_c, 11, 68, 88
18, 26639, Note_on_c, 11, 68, 0
18, 26640, Note_on_c, 11, 68, 88
18, 26879, Note_on_c, 11, 68, 0
18, 27120, Note_on_c, 11, 68, 88
18, 27359, Note_on_c, 11, 68, 0
18, 27360, Note_on_c, 11, 67, 88
18, 27839, Note_on_c, 11, 67, 0
18, 27840, Note_on_c, 11, 67, 88
18, 28079, Note_on_c, 11, 67, 0
18, 28080, Note_on_c, 11, 66, 88
18, 28799, Note_on_c, 11, 66, 0
18, 28800, Note_on_c, 11, 65, 88
18, 29039, Note_on_c, 11, 65, 0
18, 29760, Note_on_c, 11, 70, 58
18, 29999, Note_on_c, 11, 70, 0
18, 30000, Note_on_c, 11, 68, 58
18, 30239, Note_on_c, 11, 68, 0
18, 30240, Note_on_c, 11, 68, 58
18, 30479, Note_on_c, 11, 68, 0
18, 30480, Note_on_c, 11, 67, 58
18, 30599, Note_on_c, 11, 67, 0
18, 30600, Note_on_c, 11, 65, 58
18, 30719, Note_on_c, 11, 65, 0
18, 30720, Note_on_c, 11, 63, 58
18, 30839, Note_on_c, 11, 63, 0
18, 30840, Note_on_c, 11, 62, 58
18, 30959, Note_on_c, 11, 62, 0
18, 30960, Note_on_c, 11, 62, 58
18, 31439, Note_on_c, 11, 62, 0
18, 31440, Note_on_c, 11, 65, 58
18, 31679, Note_on_c, 11, 65, 0
18, 31680, Note_on_c, 11, 64, 58
18, 32399, Note_on_c, 11, 64, 0
18, 33360, Note_on_c, 11, 66, 58
18, 33599, Note_on_c, 11, 66, 0
18, 33600, Note_on_c, 11, 66, 58
18, 33839, Note_on_c, 11, 66, 0
18, 33840, Note_on_c, 11, 68, 68
18, 34559, Note_on_c, 11, 68, 0
18, 34560, Note_on_c, 11, 66, 78
18, 34799, Note_on_c, 11, 66, 0
18, 34800, Note_on_c, 11, 65, 83
18, 35039, Note_on_c, 11, 65, 0
18, 35040, Note_on_c, 11, 64, 88
18, 35279, Note_on_c, 11, 64, 0
18, 35280, Note_on_c, 11, 65, 88
18, 35759, Note_on_c, 11, 65, 0
18, 35760, Note_on_c, 11, 64, 88
18, 35999, Note_on_c, 11, 64, 0
18, 36000, Note_on_c, 11, 65, 88
18, 36719, Note_on_c, 11, 65, 0
18, 43920, Note_on_c, 11, 72, 88
18, 44039, Note_on_c, 11, 72, 0
18, 44040, Note_on_c, 11, 72, 88
18, 44159, Note_on_c, 11, 72, 0
18, 44160, Note_on_c, 11, 69, 88
18, 44279, Note_on_c, 11, 69, 0
18, 44280, Note_on_c, 11, 65, 88
18, 44399, Note_on_c, 11, 65, 0
18, 44520, Note_on_c, 11, 65, 88
18, 44639, Note_on_c, 11, 65, 0
18, 44640, Note_on_c, 11, 62, 88
18, 44759, Note_on_c, 11, 62, 0
18, 44760, Note_on_c, 11, 70, 88
18, 44879, Note_on_c, 11, 70, 0
18, 45000, Note_on_c, 11, 69, 88
18, 45119, Note_on_c, 11, 69, 0
18, 45120, Note_on_c, 11, 66, 88
18, 45239, Note_on_c, 11, 66, 0
18, 45240, Note_on_c, 11, 62, 88
18, 45359, Note_on_c, 11, 62, 0
18, 45360, Note_on_c, 11, 70, 88
18, 45599, Note_on_c, 11, 70, 0
18, 45600, Note_on_c, 11, 70, 88
18, 45719, Note_on_c, 11, 70, 0
18, 45720, Note_on_c, 11, 70, 88
18, 45839, Note_on_c, 11, 70, 0
18, 45840, Note_on_c, 11, 69, 88
18, 45959, Note_on_c, 11, 69, 0
18, 45960, Note_on_c, 11, 70, 88
18, 46079, Note_on_c, 11, 70, 0
18, 46080, Note_on_c, 11, 70, 88
18, 46199, Note_on_c, 11, 70, 0
18, 46200, Note_on_c, 11, 69, 88
18, 46319, Note_on_c, 11, 69, 0
18, 46320, Note_on_c, 11, 70, 88
18, 46559, Note_on_c, 11, 70, 0
18, 46920, Note_on_c, 11, 62, 88
18, 47039, Note_on_c, 11, 62, 0
18, 47040, Note_on_c, 11, 62, 88
18, 47159, Note_on_c, 11, 62, 0
18, 47160, Note_on_c, 11, 67, 88
18, 47279, Note_on_c, 11, 67, 0
18, 47400, Note_on_c, 11, 67, 88
18, 47519, Note_on_c, 11, 67, 0
18, 47520, Note_on_c, 11, 67, 88
18, 47639, Note_on_c, 11, 67, 0
18, 47640, Note_on_c, 11, 70, 88
18, 47759, Note_on_c, 11, 70, 0
18, 47760, Note_on_c, 11, 70, 88
18, 47879, Note_on_c, 11, 70, 0
18, 47880, Note_on_c, 11, 70, 88
18, 47999, Note_on_c, 11, 70, 0
18, 48000, Note_on_c, 11, 69, 88
18, 48119, Note_on_c, 11, 69, 0
18, 48120, Note_on_c, 11, 67, 88
18, 48239, Note_on_c, 11, 67, 0
18, 48240, Note_on_c, 11, 66, 88
18, 48479, Note_on_c, 11, 66, 0
18, 48480, Note_on_c, 11, 64, 88
18, 48719, Note_on_c, 11, 64, 0
18, 48720, Note_on_c, 11, 67, 88
18, 48839, Note_on_c, 11, 67, 0
18, 48840, Note_on_c, 11, 67, 88
18, 48959, Note_on_c, 11, 67, 0
18, 48960, Note_on_c, 11, 65, 88
18, 49139, Note_on_c, 11, 65, 0
18, 49140, Note_on_c, 11, 65, 88
18, 49199, Note_on_c, 11, 65, 0
18, 49200, Note_on_c, 11, 67, 88
18, 49439, Note_on_c, 11, 67, 0
18, 51720, Note_on_c, 11, 69, 88
18, 51899, Note_on_c, 11, 69, 0
18, 51900, Note_on_c, 11, 70, 88
18, 51959, Note_on_c, 11, 70, 0
18, 51960, Note_on_c, 11, 69, 88
18, 52019, Note_on_c, 11, 69, 0
18, 52020, Note_on_c, 11, 67, 88
18, 52079, Note_on_c, 11, 67, 0
18, 52080, Note_on_c, 11, 65, 88
18, 52139, Note_on_c, 11, 65, 0
18, 52140, Note_on_c, 11, 69, 88
18, 52199, Note_on_c, 11, 69, 0
18, 52200, Note_on_c, 11, 67, 88
18, 52259, Note_on_c, 11, 67, 0
18, 52260, Note_on_c, 11, 65, 88
18, 52319, Note_on_c, 11, 65, 0
18, 52320, Note_on_c, 11, 64, 88
18, 52379, Note_on_c, 11, 64, 0
18, 52380, Note_on_c, 11, 67, 88
18, 52439, Note_on_c, 11, 67, 0
18, 52440, Note_on_c, 11, 65, 88
18, 52499, Note_on_c, 11, 65, 0
18, 52500, Note_on_c, 11, 64, 88
18, 52559, Note_on_c, 11, 64, 0
18, 52560, Note_on_c, 11, 62, 88
18, 52619, Note_on_c, 11, 62, 0
18, 52620, Note_on_c, 11, 61, 88
18, 52679, Note_on_c, 11, 61, 0
18, 52680, Note_on_c, 11, 62, 88
18, 52739, Note_on_c, 11, 62, 0
18, 52740, Note_on_c, 11, 64, 88
18, 52799, Note_on_c, 11, 64, 0
18, 52800, Note_on_c, 11, 65, 88
18, 52859, Note_on_c, 11, 65, 0
18, 52860, Note_on_c, 11, 64, 88
18, 52919, Note_on_c, 11, 64, 0
18, 52920, Note_on_c, 11, 62, 88
18, 52979, Note_on_c, 11, 62, 0
18, 52980, Note_on_c, 11, 60, 88
18, 53039, Note_on_c, 11, 60, 0
18, 53040, Note_on_c, 11, 59, 88
18, 53219, Note_on_c, 11, 59, 0
18, 53220, Note_on_c, 11, 59, 88
18, 53279, Note_on_c, 11, 59, 0
18, 53280, Note_on_c, 11, 59, 88
18, 53519, Note_on_c, 11, 59, 0
18, 53520, Note_on_c, 11, 60, 88
18, 53759, Note_on_c, 11, 60, 0
18, 53760, Note_on_c, 11, 62, 88
18, 53999, Note_on_c, 11, 62, 0
18, 54000, Note_on_c, 11, 64, 88
18, 54119, Note_on_c, 11, 64, 0
18, 54120, Note_on_c, 11, 64, 88
18, 54239, Note_on_c, 11, 64, 0
18, 54240, Note_on_c, 11, 69, 88
18, 54539, Note_on_c, 11, 69, 0
18, 54540, Note_on_c, 11, 62, 88
18, 54599, Note_on_c, 11, 62, 0
18, 54600, Note_on_c, 11, 64, 88
18, 54659, Note_on_c, 11, 64, 0
18, 54660, Note_on_c, 11, 66, 88
18, 54719, Note_on_c, 11, 66, 0
18, 54720, Note_on_c, 11, 67, 88
18, 55079, Note_on_c, 11, 67, 0
18, 55080, Note_on_c, 11, 67, 88
18, 55199, Note_on_c, 11, 67, 0
18, 55200, Note_on_c, 11, 66, 88
18, 55319, Note_on_c, 11, 66, 0
18, 55320, Note_on_c, 11, 66, 88
18, 55439, Note_on_c, 11, 66, 0
18, 55440, Note_on_c, 11, 67, 88
18, 55679, Note_on_c, 11, 67, 0
18, 55680, Note_on_c, 11, 69, 88
18, 55919, Note_on_c, 11, 69, 0
18, 55920, Note_on_c, 11, 70, 88
18, 55979, Note_on_c, 11, 70, 0
18, 55980, Note_on_c, 11, 69, 88
18, 56039, Note_on_c, 11, 69, 0
18, 56040, Note_on_c, 11, 67, 88
18, 56219, Note_on_c, 11, 67, 0
18, 56220, Note_on_c, 11, 69, 88
18, 56279, Note_on_c, 11, 69, 0
18, 56280, Note_on_c, 11, 70, 88
18, 56339, Note_on_c, 11, 70, 0
18, 56340, Note_on_c, 11, 67, 88
18, 56399, Note_on_c, 11, 67, 0
18, 56400, Note_on_c, 11, 72, 88
18, 56459, Note_on_c, 11, 72, 0
18, 56460, Note_on_c, 11, 70, 88
18, 56519, Note_on_c, 11, 70, 0
18, 56520, Note_on_c, 11, 69, 88
18, 56579, Note_on_c, 11, 69, 0
18, 56580, Note_on_c, 11, 70, 88
18, 56639, Note_on_c, 11, 70, 0
18, 56640, Note_on_c, 11, 72, 88
18, 56699, Note_on_c, 11, 72, 0
18, 56700, Note_on_c, 11, 70, 88
18, 56759, Note_on_c, 11, 70, 0
18, 56760, Note_on_c, 11, 69, 88
18, 56819, Note_on_c, 11, 69, 0
18, 56820, Note_on_c, 11, 70, 88
18, 56879, Note_on_c, 11, 70, 0
18, 56880, Note_on_c, 11, 67, 88
18, 57059, Note_on_c, 11, 67, 0
18, 57060, Note_on_c, 11, 67, 88
18, 57119, Note_on_c, 11, 67, 0
18, 57120, Note_on_c, 11, 67, 88
18, 57359, Note_on_c, 11, 67, 0
18, 57480, Note_on_c, 11, 72, 88
18, 57719, Note_on_c, 11, 72, 0
18, 57720, Note_on_c, 11, 70, 88
18, 57839, Note_on_c, 11, 70, 0
18, 57840, Note_on_c, 11, 69, 88
18, 57959, Note_on_c, 11, 69, 0
18, 57960, Note_on_c, 11, 67, 88
18, 58019, Note_on_c, 11, 67, 0
18, 58020, Note_on_c, 11, 65, 88
18, 58079, Note_on_c, 11, 65, 0
18, 58080, Note_on_c, 11, 64, 88
18, 58319, Note_on_c, 11, 64, 0
18, 58440, Note_on_c, 11, 69, 88
18, 58679, Note_on_c, 11, 69, 0
18, 58680, Note_on_c, 11, 67, 88
18, 58799, Note_on_c, 11, 67, 0
18, 58800, Note_on_c, 11, 65, 88
18, 58919, Note_on_c, 11, 65, 0
18, 58920, Note_on_c, 11, 63, 88
18, 58979, Note_on_c, 11, 63, 0
18, 58980, Note_on_c, 11, 62, 88
18, 59039, Note_on_c, 11, 62, 0
18, 59040, Note_on_c, 11, 60, 88
18, 59279, Note_on_c, 11, 60, 0
18, 59400, Note_on_c, 11, 65, 88
18, 59639, Note_on_c, 11, 65, 0
18, 59640, Note_on_c, 11, 64, 88
18, 59759, Note_on_c, 11, 64, 0
18, 59760, Note_on_c, 11, 62, 88
18, 59999, Note_on_c, 11, 62, 0
18, 60360, Note_on_c, 11, 65, 88
18, 60479, Note_on_c, 11, 65, 0
18, 60480, Note_on_c, 11, 65, 88
18, 60599, Note_on_c, 11, 65, 0
18, 60600, Note_on_c, 11, 65, 88
18, 60719, Note_on_c, 11, 65, 0
18, 60720, Note_on_c, 11, 69, 88
18, 60899, Note_on_c, 11, 69, 0
18, 60900, Note_on_c, 11, 67, 88
18, 60959, Note_on_c, 11, 67, 0
18, 60960, Note_on_c, 11, 65, 88
18, 61199, Note_on_c, 11, 65, 0
18, 61320, Note_on_c, 11, 65, 88
18, 61439, Note_on_c, 11, 65, 0
18, 61440, Note_on_c, 11, 65, 88
18, 61559, Note_on_c, 11, 65, 0
18, 61560, Note_on_c, 11, 65, 88
18, 61679, Note_on_c, 11, 65, 0
18, 61680, Note_on_c, 11, 65, 88
18, 61859, Note_on_c, 11, 65, 0
18, 61860, Note_on_c, 11, 64, 88
18, 61919, Note_on_c, 11, 64, 0
18, 61920, Note_on_c, 11, 62, 88
18, 62159, Note_on_c, 11, 62, 0
18, 62160, Note_on_c, 11, 71, 88
18, 62399, Note_on_c, 11, 71, 0
18, 62400, Note_on_c, 11, 71, 88
18, 62519, Note_on_c, 11, 71, 0
18, 62520, Note_on_c, 11, 71, 88
18, 62639, Note_on_c, 11, 71, 0
18, 62640, Note_on_c, 11, 69, 88
18, 62759, Note_on_c, 11, 69, 0
18, 62760, Note_on_c, 11, 69, 88
18, 62879, Note_on_c, 11, 69, 0
18, 63000, Note_on_c, 11, 64, 58
18, 63119, Note_on_c, 11, 64, 0
18, 63120, Note_on_c, 11, 65, 58
18, 63359, Note_on_c, 11, 65, 0
18, 63360, Note_on_c, 11, 67, 58
18, 63599, Note_on_c, 11, 67, 0
18, 63600, Note_on_c, 11, 65, 58
18, 63779, Note_on_c, 11, 65, 0
18, 63780, Note_on_c, 11, 65, 58
18, 63839, Note_on_c, 11, 65, 0
18, 63840, Note_on_c, 11, 64, 58
18, 64079, Note_on_c, 11, 64, 0
18, 64080, Note_on_c, 11, 62, 58
18, 64319, Note_on_c, 11, 62, 0
18, 64320, Note_on_c, 11, 62, 58
18, 64439, Note_on_c, 11, 62, 0
18, 64440, Note_on_c, 11, 62, 58
18, 64559, Note_on_c, 11, 62, 0
18, 64560, Note_on_c, 11, 62, 58
18, 64799, Note_on_c, 11, 62, 0
18, 64800, Note_on_c, 11, 61, 58
18, 64919, Note_on_c, 11, 61, 0
18, 64920, Note_on_c, 11, 59, 58
18, 65039, Note_on_c, 11, 59, 0
18, 65040, Note_on_c, 11, 61, 58
18, 65519, Note_on_c, 11, 61, 0
18, 66600, Note_on_c, 11, 64, 88
18, 66719, Note_on_c, 11, 64, 0
18, 66720, Note_on_c, 11, 64, 88
18, 66839, Note_on_c, 11, 64, 0
18, 66840, Note_on_c, 11, 64, 88
18, 66959, Note_on_c, 11, 64, 0
18, 66960, Note_on_c, 11, 65, 88
18, 67019, Note_on_c, 11, 65, 0
18, 67020, Note_on_c, 11, 67, 88
18, 67079, Note_on_c, 11, 67, 0
18, 67080, Note_on_c, 11, 65, 88
18, 67139, Note_on_c, 11, 65, 0
18, 67140, Note_on_c, 11, 64, 88
18, 67199, Note_on_c, 11, 64, 0
18, 67200, Note_on_c, 11, 65, 88
18, 67259, Note_on_c, 11, 65, 0
18, 67260, Note_on_c, 11, 67, 88
18, 67319, Note_on_c, 11, 67, 0
18, 67320, Note_on_c, 11, 64, 88
18, 67379, Note_on_c, 11, 64, 0
18, 67380, Note_on_c, 11, 65, 88
18, 67439, Note_on_c, 11, 65, 0
18, 67440, Note_on_c, 11, 67, 88
18, 67499, Note_on_c, 11, 67, 0
18, 67500, Note_on_c, 11, 69, 88
18, 67559, Note_on_c, 11, 69, 0
18, 67560, Note_on_c, 11, 67, 88
18, 67619, Note_on_c, 11, 67, 0
18, 67620, Note_on_c, 11, 65, 88
18, 67679, Note_on_c, 11, 65, 0
18, 67680, Note_on_c, 11, 67, 88
18, 67739, Note_on_c, 11, 67, 0
18, 67740, Note_on_c, 11, 69, 88
18, 67799, Note_on_c, 11, 69, 0
18, 67800, Note_on_c, 11, 65, 88
18, 67859, Note_on_c, 11, 65, 0
18, 67860, Note_on_c, 11, 67, 88
18, 67919, Note_on_c, 11, 67, 0
18, 67920, Note_on_c, 11, 69, 88
18, 68039, Note_on_c, 11, 69, 0
18, 68040, Note_on_c, 11, 70, 88
18, 68099, Note_on_c, 11, 70, 0
18, 68100, Note_on_c, 11, 69, 88
18, 68159, Note_on_c, 11, 69, 0
18, 68160, Note_on_c, 11, 67, 88
18, 68219, Note_on_c, 11, 67, 0
18, 68220, Note_on_c, 11, 65, 88
18, 68279, Note_on_c, 11, 65, 0
18, 68280, Note_on_c, 11, 64, 88
18, 68339, Note_on_c, 11, 64, 0
18, 68340, Note_on_c, 11, 62, 88
18, 68399, Note_on_c, 11, 62, 0
18, 68400, Note_on_c, 11, 61, 88
18, 68519, Note_on_c, 11, 61, 0
18, 68520, Note_on_c, 11, 64, 88
18, 68639, Note_on_c, 11, 64, 0
18, 68640, Note_on_c, 11, 69, 88
18, 68759, Note_on_c, 11, 69, 0
18, 68760, Note_on_c, 11, 67, 88
18, 68879, Note_on_c, 11, 67, 0
18, 68880, Note_on_c, 11, 65, 88
18, 68999, Note_on_c, 11, 65, 0
18, 69000, Note_on_c, 11, 64, 88
18, 69059, Note_on_c, 11, 64, 0
18, 69060, Note_on_c, 11, 65, 88
18, 69119, Note_on_c, 11, 65, 0
18, 69120, Note_on_c, 11, 62, 88
18, 69179, Note_on_c, 11, 62, 0
18, 69180, Note_on_c, 11, 64, 88
18, 69239, Note_on_c, 11, 64, 0
18, 69240, Note_on_c, 11, 66, 88
18, 69299, Note_on_c, 11, 66, 0
18, 69300, Note_on_c, 11, 68, 88
18, 69359, Note_on_c, 11, 68, 0
18, 69360, Note_on_c, 11, 69, 88
18, 69599, Note_on_c, 11, 69, 0
18, 72240, Note_on_c, 11, 69, 88
18, 72719, Note_on_c, 11, 69, 0
18, 72720, Note_on_c, 11, 65, 88
18, 72959, Note_on_c, 11, 65, 0
18, 72960, Note_on_c, 11, 70, 88
18, 73199, Note_on_c, 11, 70, 0
18, 73200, Note_on_c, 11, 61, 88
18, 73679, Note_on_c, 11, 61, 0
18, 73680, Note_on_c, 11, 62, 88
18, 73919, Note_on_c, 11, 62, 0
18, 73920, Note_on_c, 11, 62, 88
18, 74039, Note_on_c, 11, 62, 0
18, 74040, Note_on_c, 11, 62, 88
18, 74159, Note_on_c, 11, 62, 0
18, 74160, Note_on_c, 11, 64, 88
18, 74519, Note_on_c, 11, 64, 0
18, 74520, Note_on_c, 11, 62, 88
18, 74579, Note_on_c, 11, 62, 0
18, 74580, Note_on_c, 11, 64, 88
18, 74639, Note_on_c, 11, 64, 0
18, 74640, Note_on_c, 11, 65, 88
18, 74759, Note_on_c, 11, 65, 0
18, 74760, Note_on_c, 11, 64, 88
18, 74819, Note_on_c, 11, 64, 0
18, 74820, Note_on_c, 11, 65, 88
18, 74879, Note_on_c, 11, 65, 0
18, 74880, Note_on_c, 11, 67, 88
18, 74999, Note_on_c, 11, 67, 0
18, 75000, Note_on_c, 11, 65, 88
18, 75059, Note_on_c, 11, 65, 0
18, 75060, Note_on_c, 11, 67, 88
18, 75119, Note_on_c, 11, 67, 0
18, 75120, Note_on_c, 11, 69, 88
18, 75239, Note_on_c, 11, 69, 0
18, 75240, Note_on_c, 11, 67, 88
18, 75359, Note_on_c, 11, 67, 0
18, 75360, Note_on_c, 11, 65, 88
18, 75479, Note_on_c, 11, 65, 0
18, 75480, Note_on_c, 11, 64, 88
18, 75599, Note_on_c, 11, 64, 0
18, 75600, Note_on_c, 11, 62, 88
18, 75779, Note_on_c, 11, 62, 0
18, 75780, Note_on_c, 11, 64, 88
18, 75839, Note_on_c, 11, 64, 0
18, 75840, Note_on_c, 11, 66, 88
18, 75959, Note_on_c, 11, 66, 0
18, 75960, Note_on_c, 11, 68, 88
18, 76079, Note_on_c, 11, 68, 0
18, 76080, Note_on_c, 11, 69, 88
18, 76199, Note_on_c, 11, 69, 0
18, 76200, Note_on_c, 11, 64, 88
18, 76439, Note_on_c, 11, 64, 0
18, 76440, Note_on_c, 11, 62, 88
18, 76499, Note_on_c, 11, 62, 0
18, 76500, Note_on_c, 11, 60, 88
18, 76559, Note_on_c, 11, 60, 0
18, 76560, Note_on_c, 11, 58, 88
18, 76799, Note_on_c, 11, 58, 0
18, 77160, Note_on_c, 11, 64, 88
18, 77279, Note_on_c, 11, 64, 0
18, 77280, Note_on_c, 11, 69, 88
18, 77579, Note_on_c, 11, 69, 0
18, 77580, Note_on_c, 11, 67, 88
18, 77639, Note_on_c, 11, 67, 0
18, 77640, Note_on_c, 11, 65, 88
18, 77699, Note_on_c, 11, 65, 0
18, 77700, Note_on_c, 11, 64, 88
18, 77759, Note_on_c, 11, 64, 0
18, 77760, Note_on_c, 11, 65, 88
18, 77879, Note_on_c, 11, 65, 0
18, 77880, Note_on_c, 11, 67, 88
18, 77939, Note_on_c, 11, 67, 0
18, 77940, Note_on_c, 11, 65, 88
18, 77999, Note_on_c, 11, 65, 0
18, 78000, Note_on_c, 11, 64, 88
18, 78239, Note_on_c, 11, 64, 0
18, 78600, Note_on_c, 11, 64, 88
18, 78719, Note_on_c, 11, 64, 0
18, 78720, Note_on_c, 11, 66, 88
18, 78839, Note_on_c, 11, 66, 0
18, 78840, Note_on_c, 11, 68, 88
18, 78959, Note_on_c, 11, 68, 0
18, 78960, Note_on_c, 11, 69, 88
18, 79199, Note_on_c, 11, 69, 0
18, 79560, Note_on_c, 11, 69, 88
18, 79679, Note_on_c, 11, 69, 0
18, 79680, Note_on_c, 11, 74, 88
18, 79799, Note_on_c, 11, 74, 0
18, 79800, Note_on_c, 11, 72, 88
18, 79919, Note_on_c, 11, 72, 0
18, 79920, Note_on_c, 11, 70, 88
18, 79979, Note_on_c, 11, 70, 0
18, 79980, Note_on_c, 11, 69, 88
18, 80039, Note_on_c, 11, 69, 0
18, 80040, Note_on_c, 11, 67, 88
18, 80219, Note_on_c, 11, 67, 0
18, 80220, Note_on_c, 11, 69, 88
18, 80279, Note_on_c, 11, 69, 0
18, 80280, Note_on_c, 11, 65, 88
18, 80339, Note_on_c, 11, 65, 0
18, 80340, Note_on_c, 11, 67, 88
18, 80399, Note_on_c, 11, 67, 0
18, 80400, Note_on_c, 11, 64, 88
18, 80639, Note_on_c, 11, 64, 0
18, 80640, Note_on_c, 11, 65, 88
18, 80759, Note_on_c, 11, 65, 0
18, 80760, Note_on_c, 11, 67, 88
18, 80879, Note_on_c, 11, 67, 0
18, 80880, Note_on_c, 11, 60, 88
18, 81119, Note_on_c, 11, 60, 0
18, 81480, Note_on_c, 11, 60, 88
18, 81599, Note_on_c, 11, 60, 0
18, 81600, Note_on_c, 11, 60, 88
18, 81719, Note_on_c, 11, 60, 0
18, 81720, Note_on_c, 11, 58, 88
18, 81839, Note_on_c, 11, 58, 0
18, 81840, Note_on_c, 11, 57, 88
18, 81959, Note_on_c, 11, 57, 0
18, 81960, Note_on_c, 11, 65, 88
18, 82079, Note_on_c, 11, 65, 0
18, 82080, Note_on_c, 11, 62, 88
18, 82199, Note_on_c, 11, 62, 0
18, 82200, Note_on_c, 11, 58, 88
18, 82319, Note_on_c, 11, 58, 0
18, 82440, Note_on_c, 11, 67, 88
18, 82559, Note_on_c, 11, 67, 0
18, 82560, Note_on_c, 11, 64, 88
18, 82679, Note_on_c, 11, 64, 0
18, 82680, Note_on_c, 11, 60, 88
18, 82799, Note_on_c, 11, 60, 0
18, 82920, Note_on_c, 11, 64, 88
18, 82979, Note_on_c, 11, 64, 0
18, 82980, Note_on_c, 11, 65, 88
18, 83039, Note_on_c, 11, 65, 0
18, 83040, Note_on_c, 11, 67, 88
18, 83159, Note_on_c, 11, 67, 0
18, 83160, Note_on_c, 11, 65, 88
18, 83219, Note_on_c, 11, 65, 0
18, 83220, Note_on_c, 11, 67, 88
18, 83279, Note_on_c, 11, 67, 0
18, 83280, Note_on_c, 11, 69, 88
18, 83399, Note_on_c, 11, 69, 0
18, 83400, Note_on_c, 11, 64, 88
18, 83519, Note_on_c, 11, 64, 0
18, 83520, Note_on_c, 11, 65, 88
18, 83639, Note_on_c, 11, 65, 0
18, 83640, Note_on_c, 11, 61, 88
18, 83759, Note_on_c, 11, 61, 0
18, 83760, Note_on_c, 11, 62, 88
18, 83999, Note_on_c, 11, 62, 0
18, 84000, Note_on_c, 11, 64, 88
18, 84119, Note_on_c, 11, 64, 0
18, 84120, Note_on_c, 11, 66, 88
18, 84239, Note_on_c, 11, 66, 0
18, 84240, Note_on_c, 11, 67, 88
18, 84479, Note_on_c, 11, 67, 0
18, 84840, Note_on_c, 11, 63, 88
18, 84959, Note_on_c, 11, 63, 0
18, 84960, Note_on_c, 11, 62, 88
18, 85079, Note_on_c, 11, 62, 0
18, 85080, Note_on_c, 11, 60, 88
18, 85199, Note_on_c, 11, 60, 0
18, 85200, Note_on_c, 11, 58, 88
18, 85319, Note_on_c, 11, 58, 0
18, 85320, Note_on_c, 11, 55, 88
18, 85439, Note_on_c, 11, 55, 0
18, 85440, Note_on_c, 11, 63, 88
18, 85799, Note_on_c, 11, 63, 0
18, 85800, Note_on_c, 11, 60, 88
18, 85919, Note_on_c, 11, 60, 0
18, 85920, Note_on_c, 11, 65, 88
18, 86399, Note_on_c, 11, 65, 0
18, 86400, Note_on_c, 11, 63, 88
18, 86639, Note_on_c, 11, 63, 0
18, 86640, Note_on_c, 11, 62, 88
18, 86759, Note_on_c, 11, 62, 0
18, 86760, Note_on_c, 11, 66, 88
18, 86879, Note_on_c, 11, 66, 0
18, 86880, Note_on_c, 11, 67, 88
18, 86999, Note_on_c, 11, 67, 0
18, 87000, Note_on_c, 11, 69, 88
18, 87119, Note_on_c, 11, 69, 0
18, 87120, Note_on_c, 11, 62, 88
18, 87239, Note_on_c, 11, 62, 0
18, 87240, Note_on_c, 11, 68, 88
18, 87359, Note_on_c, 11, 68, 0
18, 87360, Note_on_c, 11, 67, 88
18, 87599, Note_on_c, 11, 67, 0
18, 88200, Note_on_c, 11, 62, 88
18, 88319, Note_on_c, 11, 62, 0
18, 88320, Note_on_c, 11, 62, 88
18, 88439, Note_on_c, 11, 62, 0
18, 88440, Note_on_c, 11, 62, 88
18, 88559, Note_on_c, 11, 62, 0
18, 88560, Note_on_c, 11, 63, 88
18, 88619, Note_on_c, 11, 63, 0
18, 88620, Note_on_c, 11, 65, 88
18, 88679, Note_on_c, 11, 65, 0
18, 88680, Note_on_c, 11, 63, 88
18, 88739, Note_on_c, 11, 63, 0
18, 88740, Note_on_c, 11, 62, 88
18, 88799, Note_on_c, 11, 62, 0
18, 88800, Note_on_c, 11, 63, 88
18, 88859, Note_on_c, 11, 63, 0
18, 88860, Note_on_c, 11, 65, 88
18, 88919, Note_on_c, 11, 65, 0
18, 88920, Note_on_c, 11, 62, 88
18, 88979, Note_on_c, 11, 62, 0
18, 88980, Note_on_c, 11, 63, 88
18, 89039, Note_on_c, 11, 63, 0
18, 89040, Note_on_c, 11, 65, 88
18, 89099, Note_on_c, 11, 65, 0
18, 89100, Note_on_c, 11, 67, 88
18, 89159, Note_on_c, 11, 67, 0
18, 89160, Note_on_c, 11, 65, 88
18, 89219, Note_on_c, 11, 65, 0
18, 89220, Note_on_c, 11, 63, 88
18, 89279, Note_on_c, 11, 63, 0
18, 89280, Note_on_c, 11, 65, 88
18, 89339, Note_on_c, 11, 65, 0
18, 89340, Note_on_c, 11, 67, 88
18, 89399, Note_on_c, 11, 67, 0
18, 89400, Note_on_c, 11, 63, 88
18, 89459, Note_on_c, 11, 63, 0
18, 89460, Note_on_c, 11, 65, 88
18, 89519, Note_on_c, 11, 65, 0
18, 89520, Note_on_c, 11, 67, 88
18, 89639, Note_on_c, 11, 67, 0
18, 89640, Note_on_c, 11, 68, 88
18, 89699, Note_on_c, 11, 68, 0
18, 89700, Note_on_c, 11, 67, 88
18, 89759, Note_on_c, 11, 67, 0
18, 89760, Note_on_c, 11, 65, 88
18, 89819, Note_on_c, 11, 65, 0
18, 89820, Note_on_c, 11, 63, 88
18, 89879, Note_on_c, 11, 63, 0
18, 89880, Note_on_c, 11, 62, 88
18, 89939, Note_on_c, 11, 62, 0
18, 89940, Note_on_c, 11, 60, 88
18, 89999, Note_on_c, 11, 60, 0
18, 90000, Note_on_c, 11, 59, 88
18, 90119, Note_on_c, 11, 59, 0
18, 90120, Note_on_c, 11, 62, 88
18, 90239, Note_on_c, 11, 62, 0
18, 90240, Note_on_c, 11, 67, 88
18, 90359, Note_on_c, 11, 67, 0
18, 90360, Note_on_c, 11, 65, 88
18, 90479, Note_on_c, 11, 65, 0
18, 90480, Note_on_c, 11, 63, 88
18, 90839, Note_on_c, 11, 63, 0
18, 90840, Note_on_c, 11, 62, 88
18, 90959, Note_on_c, 11, 62, 0
18, 90960, Note_on_c, 11, 60, 88
18, 91079, Note_on_c, 11, 60, 0
18, 91080, Note_on_c, 11, 65, 88
18, 91199, Note_on_c, 11, 65, 0
18, 91200, Note_on_c, 11, 67, 88
18, 91319, Note_on_c, 11, 67, 0
18, 91320, Note_on_c, 11, 69, 88
18, 91439, Note_on_c, 11, 69, 0
18, 91440, Note_on_c, 11, 70, 88
18, 91559, Note_on_c, 11, 70, 0
18, 91560, Note_on_c, 11, 58, 88
18, 91679, Note_on_c, 11, 58, 0
18, 91680, Note_on_c, 11, 63, 88
18, 91859, Note_on_c, 11, 63, 0
18, 91860, Note_on_c, 11, 62, 88
18, 91919, Note_on_c, 11, 62, 0
18, 91920, Note_on_c, 11, 60, 88
18, 92039, Note_on_c, 11, 60, 0
18, 92040, Note_on_c, 11, 60, 88
18, 92159, Note_on_c, 11, 60, 0
18, 92160, Note_on_c, 11, 65, 88
18, 92519, Note_on_c, 11, 65, 0
18, 92520, Note_on_c, 11, 63, 88
18, 92579, Note_on_c, 11, 63, 0
18, 92580, Note_on_c, 11, 62, 88
18, 92639, Note_on_c, 11, 62, 0
18, 92640, Note_on_c, 11, 63, 88
18, 92699, Note_on_c, 11, 63, 0
18, 92700, Note_on_c, 11, 65, 88
18, 92759, Note_on_c, 11, 65, 0
18, 92760, Note_on_c, 11, 62, 88
18, 92819, Note_on_c, 11, 62, 0
18, 92820, Note_on_c, 11, 63, 88
18, 92879, Note_on_c, 11, 63, 0
18, 92880, Note_on_c, 11, 60, 88
18, 92999, Note_on_c, 11, 60, 0
18, 93000, Note_on_c, 11, 62, 88
18, 93059, Note_on_c, 11, 62, 0
18, 93060, Note_on_c, 11, 63, 88
18, 93119, Note_on_c, 11, 63, 0
18, 93120, Note_on_c, 11, 65, 88
18, 93479, Note_on_c, 11, 65, 0
18, 93480, Note_on_c, 11, 58, 88
18, 93719, Note_on_c, 11, 58, 0
18, 93720, Note_on_c, 11, 67, 88
18, 93839, Note_on_c, 11, 67, 0
18, 93840, Note_on_c, 11, 65, 88
18, 94079, Note_on_c, 11, 65, 0
18, 95760, Note_on_c, 11, 72, 88
18, 96239, Note_on_c, 11, 72, 0
18, 96240, Note_on_c, 11, 68, 88
18, 96479, Note_on_c, 11, 68, 0
18, 96480, Note_on_c, 11, 73, 88
18, 96719, Note_on_c, 11, 73, 0
18, 96720, Note_on_c, 11, 64, 88
18, 97199, Note_on_c, 11, 64, 0
18, 97200, Note_on_c, 11, 65, 88
18, 97439, Note_on_c, 11, 65, 0
18, 98760, Note_on_c, 11, 62, 88
18, 98879, Note_on_c, 11, 62, 0
18, 98880, Note_on_c, 11, 62, 88
18, 98999, Note_on_c, 11, 62, 0
18, 99000, Note_on_c, 11, 62, 88
18, 99119, Note_on_c, 11, 62, 0
18, 99120, Note_on_c, 11, 63, 88
18, 99179, Note_on_c, 11, 63, 0
18, 99180, Note_on_c, 11, 65, 88
18, 99239, Note_on_c, 11, 65, 0
18, 99240, Note_on_c, 11, 63, 88
18, 99299, Note_on_c, 11, 63, 0
18, 99300, Note_on_c, 11, 62, 88
18, 99359, Note_on_c, 11, 62, 0
18, 99360, Note_on_c, 11, 64, 88
18, 99419, Note_on_c, 11, 64, 0
18, 99420, Note_on_c, 11, 65, 88
18, 99479, Note_on_c, 11, 65, 0
18, 99480, Note_on_c, 11, 62, 88
18, 99539, Note_on_c, 11, 62, 0
18, 99540, Note_on_c, 11, 64, 88
18, 99599, Note_on_c, 11, 64, 0
18, 99600, Note_on_c, 11, 65, 88
18, 99659, Note_on_c, 11, 65, 0
18, 99660, Note_on_c, 11, 67, 88
18, 99719, Note_on_c, 11, 67, 0
18, 99720, Note_on_c, 11, 65, 88
18, 99779, Note_on_c, 11, 65, 0
18, 99780, Note_on_c, 11, 64, 88
18, 99839, Note_on_c, 11, 64, 0
18, 99840, Note_on_c, 11, 66, 88
18, 99899, Note_on_c, 11, 66, 0
18, 99900, Note_on_c, 11, 67, 88
18, 99959, Note_on_c, 11, 67, 0
18, 99960, Note_on_c, 11, 64, 88
18, 100019, Note_on_c, 11, 64, 0
18, 100020, Note_on_c, 11, 66, 88
18, 100079, Note_on_c, 11, 66, 0
18, 100080, Note_on_c, 11, 67, 88
18, 100199, Note_on_c, 11, 67, 0
18, 100200, Note_on_c, 11, 62, 88
18, 100319, Note_on_c, 11, 62, 0
18, 100320, Note_on_c, 11, 67, 88
18, 100439, Note_on_c, 11, 67, 0
18, 100440, Note_on_c, 11, 65, 88
18, 100559, Note_on_c, 11, 65, 0
18, 100560, Note_on_c, 11, 64, 88
18, 100679, Note_on_c, 11, 64, 0
18, 100680, Note_on_c, 11, 57, 88
18, 100799, Note_on_c, 11, 57, 0
18, 100800, Note_on_c, 11, 69, 88
18, 100919, Note_on_c, 11, 69, 0
18, 100920, Note_on_c, 11, 67, 88
18, 101039, Note_on_c, 11, 67, 0
18, 101040, Note_on_c, 11, 65, 88
18, 101279, Note_on_c, 11, 65, 0
18, 101280, Note_on_c, 11, 69, 88
18, 101519, Note_on_c, 11, 69, 0
18, 101520, Note_on_c, 11, 62, 88
18, 101639, Note_on_c, 11, 62, 0
18, 101640, Note_on_c, 11, 71, 88
18, 101759, Note_on_c, 11, 71, 0
18, 101760, Note_on_c, 11, 71, 88
18, 101999, Note_on_c, 11, 71, 0
18, 102000, Note_on_c, 11, 64, 88
18, 102119, Note_on_c, 11, 64, 0
18, 102120, Note_on_c, 11, 61, 88
18, 102239, Note_on_c, 11, 61, 0
18, 102240, Note_on_c, 11, 62, 88
18, 102359, Note_on_c, 11, 62, 0
18, 102360, Note_on_c, 11, 64, 88
18, 102479, Note_on_c, 11, 64, 0
18, 102480, Note_on_c, 11, 65, 88
18, 102599, Note_on_c, 11, 65, 0
18, 102600, Note_on_c, 11, 64, 88
18, 102659, Note_on_c, 11, 64, 0
18, 102660, Note_on_c, 11, 65, 88
18, 102719, Note_on_c, 11, 65, 0
18, 102720, Note_on_c, 11, 67, 88
18, 102839, Note_on_c, 11, 67, 0
18, 102840, Note_on_c, 11, 65, 88
18, 102899, Note_on_c, 11, 65, 0
18, 102900, Note_on_c, 11, 67, 88
18, 102959, Note_on_c, 11, 67, 0
18, 102960, Note_on_c, 11, 69, 88
18, 103079, Note_on_c, 11, 69, 0
18, 103080, Note_on_c, 11, 70, 88
18, 103199, Note_on_c, 11, 70, 0
18, 103200, Note_on_c, 11, 69, 88
18, 103319, Note_on_c, 11, 69, 0
18, 103320, Note_on_c, 11, 67, 88
18, 103439, Note_on_c, 11, 67, 0
18, 103440, Note_on_c, 11, 65, 88
18, 103559, Note_on_c, 11, 65, 0
18, 103560, Note_on_c, 11, 69, 88
18, 103679, Note_on_c, 11, 69, 0
18, 103680, Note_on_c, 11, 74, 88
18, 104159, Note_on_c, 11, 74, 0
18, 104160, Note_on_c, 11, 73, 88
18, 104399, Note_on_c, 11, 73, 0
18, 105120, Note_on_c, 11, 70, 88
18, 105359, Note_on_c, 11, 70, 0
18, 105360, Note_on_c, 11, 70, 88
18, 105599, Note_on_c, 11, 70, 0
18, 105600, Note_on_c, 11, 69, 88
18, 105839, Note_on_c, 11, 69, 0
18, 105840, Note_on_c, 11, 69, 88
18, 106079, Note_on_c, 11, 69, 0
18, 106080, Note_on_c, 11, 68, 88
18, 106319, Note_on_c, 11, 68, 0
18, 106320, Note_on_c, 11, 69, 88
18, 106559, Note_on_c, 11, 69, 0
18, 106560, Note_on_c, 11, 69, 88
18, 106799, Note_on_c, 11, 69, 0
18, 106800, Note_on_c, 11, 65, 88
18, 107039, Note_on_c, 11, 65, 0
18, 107040, Note_on_c, 11, 70, 88
18, 107279, Note_on_c, 11, 70, 0
18, 107280, Note_on_c, 11, 61, 88
18, 107759, Note_on_c, 11, 61, 0
18, 107760, Note_on_c, 11, 62, 88
18, 107999, Note_on_c, 11, 62, 0
18, 108000, Note_on_c, 11, 62, 88
18, 108119, Note_on_c, 11, 62, 0
18, 108120, Note_on_c, 11, 62, 88
18, 108239, Note_on_c, 11, 62, 0
18, 108240, Note_on_c, 11, 64, 88
18, 108599, Note_on_c, 11, 64, 0
18, 108600, Note_on_c, 11, 62, 88
18, 108659, Note_on_c, 11, 62, 0
18, 108660, Note_on_c, 11, 64, 88
18, 108719, Note_on_c, 11, 64, 0
18, 108720, Note_on_c, 11, 65, 88
18, 108959, Note_on_c, 11, 65, 0
18, 109320, Note_on_c, 11, 64, 88
18, 109439, Note_on_c, 11, 64, 0
18, 109440, Note_on_c, 11, 64, 88
18, 109559, Note_on_c, 11, 64, 0
18, 109560, Note_on_c, 11, 64, 88
18, 109679, Note_on_c, 11, 64, 0
18, 109680, Note_on_c, 11, 65, 88
18, 109739, Note_on_c, 11, 65, 0
18, 109740, Note_on_c, 11, 67, 88
18, 109799, Note_on_c, 11, 67, 0
18, 109800, Note_on_c, 11, 65, 88
18, 109859, Note_on_c, 11, 65, 0
18, 109860, Note_on_c, 11, 64, 88
18, 109919, Note_on_c, 11, 64, 0
18, 109920, Note_on_c, 11, 66, 88
18, 109979, Note_on_c, 11, 66, 0
18, 109980, Note_on_c, 11, 67, 88
18, 110039, Note_on_c, 11, 67, 0
18, 110040, Note_on_c, 11, 64, 88
18, 110099, Note_on_c, 11, 64, 0
18, 110100, Note_on_c, 11, 66, 88
18, 110159, Note_on_c, 11, 66, 0
18, 110160, Note_on_c, 11, 67, 88
18, 110219, Note_on_c, 11, 67, 0
18, 110220, Note_on_c, 11, 69, 88
18, 110279, Note_on_c, 11, 69, 0
18, 110280, Note_on_c, 11, 67, 88
18, 110339, Note_on_c, 11, 67, 0
18, 110340, Note_on_c, 11, 66, 88
18, 110399, Note_on_c, 11, 66, 0
18, 110400, Note_on_c, 11, 68, 88
18, 110459, Note_on_c, 11, 68, 0
18, 110460, Note_on_c, 11, 69, 88
18, 110519, Note_on_c, 11, 69, 0
18, 110520, Note_on_c, 11, 66, 88
18, 110579, Note_on_c, 11, 66, 0
18, 110580, Note_on_c, 11, 68, 88
18, 110639, Note_on_c, 11, 68, 0
18, 110640, Note_on_c, 11, 69, 88
18, 110879, Note_on_c, 11, 69, 0
18, 110880, Note_on_c, 11, 69, 88
18, 111119, Note_on_c, 11, 69, 0
18, 111120, Note_on_c, 11, 67, 88
18, 111359, Note_on_c, 11, 67, 0
18, 111360, Note_on_c, 11, 71, 88
18, 111599, Note_on_c, 11, 71, 0
18, 111600, Note_on_c, 11, 69, 88
18, 111719, Note_on_c, 11, 69, 0
18, 111720, Note_on_c, 11, 67, 88
18, 111839, Note_on_c, 11, 67, 0
18, 111840, Note_on_c, 11, 65, 88
18, 111959, Note_on_c, 11, 65, 0
18, 111960, Note_on_c, 11, 70, 88
18, 112079, Note_on_c, 11, 70, 0
18, 112080, Note_on_c, 11, 69, 88
18, 112559, Note_on_c, 11, 69, 0
18, 112560, Note_on_c, 11, 71, 88
18, 113039, Note_on_c, 11, 71, 0
18, 113280, Note_on_c, 11, 71, 88
18, 113459, Note_on_c, 11, 71, 0
18, 113460, Note_on_c, 11, 71, 88
18, 113519, Note_on_c, 11, 71, 0
18, 113520, Note_on_c, 11, 69, 88
18, 114239, Note_on_c, 11, 69, 0
18, 114240, Note_on_c, 11, 69, 88
18, 114479, Note_on_c, 11, 69, 0
18, 114480, Note_on_c, 11, 69, 88
18, 115439, Note_on_c, 11, 69, 0
18, 115439, End_track
19, 0, Start_track
19, 0, Title_t, "Tenor "
19, 0, MIDI_port, 0
19, 0, Program_c, 12, 70
19, 0, Control_c, 12, 7, 96
19, 0, Control_c, 12, 10, 48
19, 0, Control_c, 12, 11, 127
19, 960, Note_on_c, 12, 62, 88
19, 1199, Note_on_c, 12, 62, 0
19, 1200, Note_on_c, 12, 57, 88
19, 1439, Note_on_c, 12, 57, 0
19, 1440, Note_on_c, 12, 64, 88
19, 2159, Note_on_c, 12, 64, 0
19, 2160, Note_on_c, 12, 57, 88
19, 2399, Note_on_c, 12, 57, 0
19, 2640, Note_on_c, 12, 62, 88
19, 2879, Note_on_c, 12, 62, 0
19, 2880, Note_on_c, 12, 58, 88
19, 3599, Note_on_c, 12, 58, 0
19, 3600, Note_on_c, 12, 57, 88
19, 3839, Note_on_c, 12, 57, 0
19, 4080, Note_on_c, 12, 62, 88
19, 4319, Note_on_c, 12, 62, 0
19, 4320, Note_on_c, 12, 62, 88
19, 4799, Note_on_c, 12, 62, 0
19, 4800, Note_on_c, 12, 62, 88
19, 5039, Note_on_c, 12, 62, 0
19, 5040, Note_on_c, 12, 62, 88
19, 5759, Note_on_c, 12, 62, 0
19, 5760, Note_on_c, 12, 61, 88
19, 5999, Note_on_c, 12, 61, 0
19, 7440, Note_on_c, 12, 53, 58
19, 7679, Note_on_c, 12, 53, 0
19, 7680, Note_on_c, 12, 53, 58
19, 7919, Note_on_c, 12, 53, 0
19, 7920, Note_on_c, 12, 53, 58
19, 8039, Note_on_c, 12, 53, 0
19, 8040, Note_on_c, 12, 54, 58
19, 8159, Note_on_c, 12, 54, 0
19, 8160, Note_on_c, 12, 55, 58
19, 8279, Note_on_c, 12, 55, 0
19, 8280, Note_on_c, 12, 57, 58
19, 8399, Note_on_c, 12, 57, 0
19, 8400, Note_on_c, 12, 58, 58
19, 8519, Note_on_c, 12, 58, 0
19, 8520, Note_on_c, 12, 62, 58
19, 8639, Note_on_c, 12, 62, 0
19, 8640, Note_on_c, 12, 60, 58
19, 9119, Note_on_c, 12, 60, 0
19, 9120, Note_on_c, 12, 52, 58
19, 9359, Note_on_c, 12, 52, 0
19, 9360, Note_on_c, 12, 53, 58
19, 9599, Note_on_c, 12, 53, 0
19, 11760, Note_on_c, 12, 60, 88
19, 11999, Note_on_c, 12, 60, 0
19, 12000, Note_on_c, 12, 60, 88
19, 12239, Note_on_c, 12, 60, 0
19, 12240, Note_on_c, 12, 60, 88
19, 12959, Note_on_c, 12, 60, 0
19, 12960, Note_on_c, 12, 60, 88
19, 13199, Note_on_c, 12, 60, 0
19, 13440, Note_on_c, 12, 62, 88
19, 13679, Note_on_c, 12, 62, 0
19, 13680, Note_on_c, 12, 65, 88
19, 14399, Note_on_c, 12, 65, 0
19, 14400, Note_on_c, 12, 64, 88
19, 14639, Note_on_c, 12, 64, 0
19, 14880, Note_on_c, 12, 60, 88
19, 15119, Note_on_c, 12, 60, 0
19, 15120, Note_on_c, 12, 58, 88
19, 15599, Note_on_c, 12, 58, 0
19, 15600, Note_on_c, 12, 57, 88
19, 15839, Note_on_c, 12, 57, 0
19, 15840, Note_on_c, 12, 57, 88
19, 16559, Note_on_c, 12, 57, 0
19, 16560, Note_on_c, 12, 64, 88
19, 16799, Note_on_c, 12, 64, 0
19, 18240, Note_on_c, 12, 59, 58
19, 18479, Note_on_c, 12, 59, 0
19, 18480, Note_on_c, 12, 62, 58
19, 18719, Note_on_c, 12, 62, 0
19, 18720, Note_on_c, 12, 62, 58
19, 18959, Note_on_c, 12, 62, 0
19, 18960, Note_on_c, 12, 60, 58
19, 19079, Note_on_c, 12, 60, 0
19, 19080, Note_on_c, 12, 59, 58
19, 19199, Note_on_c, 12, 59, 0
19, 19200, Note_on_c, 12, 60, 58
19, 19439, Note_on_c, 12, 60, 0
19, 19440, Note_on_c, 12, 57, 58
19, 19919, Note_on_c, 12, 57, 0
19, 19920, Note_on_c, 12, 57, 58
19, 20159, Note_on_c, 12, 57, 0
19, 20160, Note_on_c, 12, 56, 58
19, 20399, Note_on_c, 12, 56, 0
19, 20400, Note_on_c, 12, 55, 58
19, 20639, Note_on_c, 12, 55, 0
19, 20640, Note_on_c, 12, 54, 58
19, 20879, Note_on_c, 12, 54, 0
19, 20880, Note_on_c, 12, 55, 58
19, 21359, Note_on_c, 12, 55, 0
19, 21360, Note_on_c, 12, 53, 58
19, 21599, Note_on_c, 12, 53, 0
19, 21600, Note_on_c, 12, 52, 58
19, 21839, Note_on_c, 12, 52, 0
19, 24000, Note_on_c, 12, 60, 88
19, 24239, Note_on_c, 12, 60, 0
19, 24240, Note_on_c, 12, 60, 88
19, 24479, Note_on_c, 12, 60, 0
19, 24480, Note_on_c, 12, 62, 88
19, 25199, Note_on_c, 12, 62, 0
19, 25200, Note_on_c, 12, 64, 88
19, 25439, Note_on_c, 12, 64, 0
19, 25680, Note_on_c, 12, 64, 88
19, 25919, Note_on_c, 12, 64, 0
19, 25920, Note_on_c, 12, 62, 88
19, 26639, Note_on_c, 12, 62, 0
19, 26640, Note_on_c, 12, 62, 88
19, 26879, Note_on_c, 12, 62, 0
19, 27120, Note_on_c, 12, 62, 88
19, 27359, Note_on_c, 12, 62, 0
19, 27360, Note_on_c, 12, 63, 88
19, 27839, Note_on_c, 12, 63, 0
19, 27840, Note_on_c, 12, 63, 88
19, 28079, Note_on_c, 12, 63, 0
19, 28080, Note_on_c, 12, 60, 88
19, 28799, Note_on_c, 12, 60, 0
19, 28800, Note_on_c, 12, 62, 88
19, 29039, Note_on_c, 12, 62, 0
19, 29760, Note_on_c, 12, 58, 58
19, 29999, Note_on_c, 12, 58, 0
19, 30000, Note_on_c, 12, 58, 58
19, 30239, Note_on_c, 12, 58, 0
19, 30240, Note_on_c, 12, 58, 58
19, 30359, Note_on_c, 12, 58, 0
19, 30360, Note_on_c, 12, 59, 58
19, 30479, Note_on_c, 12, 59, 0
19, 30480, Note_on_c, 12, 60, 58
19, 30599, Note_on_c, 12, 60, 0
19, 30600, Note_on_c, 12, 62, 58
19, 30719, Note_on_c, 12, 62, 0
19, 30720, Note_on_c, 12, 63, 58
19, 30839, Note_on_c, 12, 63, 0
19, 30840, Note_on_c, 12, 67, 58
19, 30959, Note_on_c, 12, 67, 0
19, 30960, Note_on_c, 12, 65, 58
19, 31439, Note_on_c, 12, 65, 0
19, 31440, Note_on_c, 12, 63, 58
19, 31679, Note_on_c, 12, 63, 0
19, 31680, Note_on_c, 12, 61, 58
19, 32399, Note_on_c, 12, 61, 0
19, 33360, Note_on_c, 12, 61, 58
19, 33599, Note_on_c, 12, 61, 0
19, 33600, Note_on_c, 12, 61, 58
19, 33839, Note_on_c, 12, 61, 0
19, 33840, Note_on_c, 12, 61, 68
19, 34559, Note_on_c, 12, 61, 0
19, 34560, Note_on_c, 12, 61, 78
19, 35279, Note_on_c, 12, 61, 0
19, 35280, Note_on_c, 12, 62, 88
19, 35519, Note_on_c, 12, 62, 0
19, 35520, Note_on_c, 12, 60, 88
19, 35759, Note_on_c, 12, 60, 0
19, 35760, Note_on_c, 12, 58, 88
19, 35999, Note_on_c, 12, 58, 0
19, 36000, Note_on_c, 12, 60, 88
19, 36719, Note_on_c, 12, 60, 0
19, 43680, Note_on_c, 12, 63, 88
19, 43799, Note_on_c, 12, 63, 0
19, 43800, Note_on_c, 12, 63, 88
19, 43919, Note_on_c, 12, 63, 0
19, 43920, Note_on_c, 12, 60, 88
19, 44039, Note_on_c, 12, 60, 0
19, 44040, Note_on_c, 12, 65, 88
19, 44159, Note_on_c, 12, 65, 0
19, 44280, Note_on_c, 12, 65, 88
19, 44399, Note_on_c, 12, 65, 0
19, 44400, Note_on_c, 12, 62, 88
19, 44519, Note_on_c, 12, 62, 0
19, 44520, Note_on_c, 12, 58, 88
19, 44639, Note_on_c, 12, 58, 0
19, 44760, Note_on_c, 12, 62, 88
19, 44879, Note_on_c, 12, 62, 0
19, 44880, Note_on_c, 12, 57, 88
19, 45239, Note_on_c, 12, 57, 0
19, 45240, Note_on_c, 12, 57, 88
19, 45359, Note_on_c, 12, 57, 0
19, 45360, Note_on_c, 12, 58, 88
19, 45479, Note_on_c, 12, 58, 0
19, 45480, Note_on_c, 12, 62, 88
19, 45539, Note_on_c, 12, 62, 0
19, 45540, Note_on_c, 12, 62, 88
19, 45599, Note_on_c, 12, 62, 0
19, 45600, Note_on_c, 12, 67, 88
19, 45719, Note_on_c, 12, 67, 0
19, 45720, Note_on_c, 12, 65, 88
19, 45839, Note_on_c, 12, 65, 0
19, 45840, Note_on_c, 12, 63, 88
19, 45959, Note_on_c, 12, 63, 0
19, 45960, Note_on_c, 12, 65, 88
19, 46199, Note_on_c, 12, 65, 0
19, 46200, Note_on_c, 12, 63, 88
19, 46319, Note_on_c, 12, 63, 0
19, 46320, Note_on_c, 12, 62, 88
19, 46559, Note_on_c, 12, 62, 0
19, 46680, Note_on_c, 12, 62, 88
19, 46799, Note_on_c, 12, 62, 0
19, 46800, Note_on_c, 12, 62, 88
19, 46919, Note_on_c, 12, 62, 0
19, 46920, Note_on_c, 12, 58, 88
19, 47039, Note_on_c, 12, 58, 0
19, 47160, Note_on_c, 12, 58, 88
19, 47279, Note_on_c, 12, 58, 0
19, 47280, Note_on_c, 12, 58, 88
19, 47399, Note_on_c, 12, 58, 0
19, 47400, Note_on_c, 12, 55, 88
19, 47519, Note_on_c, 12, 55, 0
19, 47520, Note_on_c, 12, 55, 88
19, 47879, Note_on_c, 12, 55, 0
19, 47880, Note_on_c, 12, 55, 88
19, 47999, Note_on_c, 12, 55, 0
19, 48000, Note_on_c, 12, 54, 88
19, 48119, Note_on_c, 12, 54, 0
19, 48120, Note_on_c, 12, 55, 88
19, 48239, Note_on_c, 12, 55, 0
19, 48240, Note_on_c, 12, 57, 88
19, 48359, Note_on_c, 12, 57, 0
19, 48360, Note_on_c, 12, 57, 88
19, 48479, Note_on_c, 12, 57, 0
19, 48480, Note_on_c, 12, 58, 88
19, 48599, Note_on_c, 12, 58, 0
19, 48600, Note_on_c, 12, 55, 88
19, 48719, Note_on_c, 12, 55, 0
19, 48720, Note_on_c, 12, 62, 88
19, 49079, Note_on_c, 12, 62, 0
19, 49080, Note_on_c, 12, 60, 88
19, 49199, Note_on_c, 12, 60, 0
19, 49200, Note_on_c, 12, 58, 88
19, 49439, Note_on_c, 12, 58, 0
19, 52800, Note_on_c, 12, 57, 88
19, 53159, Note_on_c, 12, 57, 0
19, 53160, Note_on_c, 12, 57, 88
19, 53279, Note_on_c, 12, 57, 0
19, 53280, Note_on_c, 12, 56, 88
19, 53399, Note_on_c, 12, 56, 0
19, 53400, Note_on_c, 12, 56, 88
19, 53519, Note_on_c, 12, 56, 0
19, 53520, Note_on_c, 12, 57, 88
19, 53759, Note_on_c, 12, 57, 0
19, 53760, Note_on_c, 12, 59, 88
19, 53999, Note_on_c, 12, 59, 0
19, 54000, Note_on_c, 12, 60, 88
19, 54239, Note_on_c, 12, 60, 0
19, 55080, Note_on_c, 12, 62, 88
19, 55259, Note_on_c, 12, 62, 0
19, 55260, Note_on_c, 12, 63, 88
19, 55319, Note_on_c, 12, 63, 0
19, 55320, Note_on_c, 12, 62, 88
19, 55379, Note_on_c, 12, 62, 0
19, 55380, Note_on_c, 12, 60, 88
19, 55439, Note_on_c, 12, 60, 0
19, 55440, Note_on_c, 12, 58, 88
19, 55499, Note_on_c, 12, 58, 0
19, 55500, Note_on_c, 12, 62, 88
19, 55559, Note_on_c, 12, 62, 0
19, 55560, Note_on_c, 12, 60, 88
19, 55619, Note_on_c, 12, 60, 0
19, 55620, Note_on_c, 12, 58, 88
19, 55679, Note_on_c, 12, 58, 0
19, 55680, Note_on_c, 12, 57, 88
19, 55739, Note_on_c, 12, 57, 0
19, 55740, Note_on_c, 12, 60, 88
19, 55799, Note_on_c, 12, 60, 0
19, 55800, Note_on_c, 12, 58, 88
19, 55859, Note_on_c, 12, 58, 0
19, 55860, Note_on_c, 12, 57, 88
19, 55919, Note_on_c, 12, 57, 0
19, 55920, Note_on_c, 12, 55, 88
19, 56099, Note_on_c, 12, 55, 0
19, 56100, Note_on_c, 12, 57, 88
19, 56159, Note_on_c, 12, 57, 0
19, 56160, Note_on_c, 12, 58, 88
19, 56219, Note_on_c, 12, 58, 0
19, 56220, Note_on_c, 12, 57, 88
19, 56279, Note_on_c, 12, 57, 0
19, 56280, Note_on_c, 12, 55, 88
19, 56339, Note_on_c, 12, 55, 0
19, 56340, Note_on_c, 12, 58, 88
19, 56399, Note_on_c, 12, 58, 0
19, 56400, Note_on_c, 12, 57, 88
19, 56459, Note_on_c, 12, 57, 0
19, 56460, Note_on_c, 12, 55, 88
19, 56519, Note_on_c, 12, 55, 0
19, 56520, Note_on_c, 12, 53, 88
19, 56579, Note_on_c, 12, 53, 0
19, 56580, Note_on_c, 12, 55, 88
19, 56639, Note_on_c, 12, 55, 0
19, 56640, Note_on_c, 12, 57, 88
19, 56699, Note_on_c, 12, 57, 0
19, 56700, Note_on_c, 12, 55, 88
19, 56759, Note_on_c, 12, 55, 0
19, 56760, Note_on_c, 12, 57, 88
19, 56819, Note_on_c, 12, 57, 0
19, 56820, Note_on_c, 12, 53, 88
19, 56879, Note_on_c, 12, 53, 0
19, 56880, Note_on_c, 12, 60, 88
19, 56999, Note_on_c, 12, 60, 0
19, 57000, Note_on_c, 12, 48, 88
19, 57119, Note_on_c, 12, 48, 0
19, 57360, Note_on_c, 12, 60, 88
19, 57599, Note_on_c, 12, 60, 0
19, 57600, Note_on_c, 12, 64, 88
19, 57839, Note_on_c, 12, 64, 0
19, 57840, Note_on_c, 12, 65, 88
19, 58079, Note_on_c, 12, 65, 0
19, 58320, Note_on_c, 12, 57, 88
19, 58559, Note_on_c, 12, 57, 0
19, 58560, Note_on_c, 12, 61, 88
19, 58799, Note_on_c, 12, 61, 0
19, 58800, Note_on_c, 12, 62, 88
19, 59039, Note_on_c, 12, 62, 0
19, 59280, Note_on_c, 12, 53, 88
19, 59519, Note_on_c, 12, 53, 0
19, 59520, Note_on_c, 12, 57, 88
19, 59759, Note_on_c, 12, 57, 0
19, 59760, Note_on_c, 12, 58, 88
19, 59999, Note_on_c, 12, 58, 0
19, 60360, Note_on_c, 12, 62, 88
19, 60479, Note_on_c, 12, 62, 0
19, 60480, Note_on_c, 12, 62, 88
19, 60599, Note_on_c, 12, 62, 0
19, 60600, Note_on_c, 12, 62, 88
19, 60719, Note_on_c, 12, 62, 0
19, 60720, Note_on_c, 12, 65, 88
19, 60899, Note_on_c, 12, 65, 0
19, 60900, Note_on_c, 12, 64, 88
19, 60959, Note_on_c, 12, 64, 0
19, 60960, Note_on_c, 12, 62, 88
19, 61199, Note_on_c, 12, 62, 0
19, 61320, Note_on_c, 12, 62, 88
19, 61439, Note_on_c, 12, 62, 0
19, 61440, Note_on_c, 12, 62, 88
19, 61559, Note_on_c, 12, 62, 0
19, 61560, Note_on_c, 12, 62, 88
19, 61679, Note_on_c, 12, 62, 0
19, 61680, Note_on_c, 12, 62, 88
19, 61859, Note_on_c, 12, 62, 0
19, 61860, Note_on_c, 12, 60, 88
19, 61919, Note_on_c, 12, 60, 0
19, 61920, Note_on_c, 12, 59, 88
19, 62159, Note_on_c, 12, 59, 0
19, 62160, Note_on_c, 12, 62, 88
19, 62399, Note_on_c, 12, 62, 0
19, 62400, Note_on_c, 12, 64, 88
19, 62519, Note_on_c, 12, 64, 0
19, 62520, Note_on_c, 12, 65, 88
19, 62639, Note_on_c, 12, 65, 0
19, 62640, Note_on_c, 12, 65, 88
19, 62759, Note_on_c, 12, 65, 0
19, 62760, Note_on_c, 12, 64, 88
19, 62879, Note_on_c, 12, 64, 0
19, 63000, Note_on_c, 12, 61, 58
19, 63119, Note_on_c, 12, 61, 0
19, 63120, Note_on_c, 12, 62, 58
19, 63359, Note_on_c, 12, 62, 0
19, 63360, Note_on_c, 12, 64, 58
19, 63599, Note_on_c, 12, 64, 0
19, 63600, Note_on_c, 12, 62, 58
19, 63779, Note_on_c, 12, 62, 0
19, 63780, Note_on_c, 12, 62, 58
19, 63839, Note_on_c, 12, 62, 0
19, 63840, Note_on_c, 12, 57, 58
19, 64079, Note_on_c, 12, 57, 0
19, 64080, Note_on_c, 12, 53, 58
19, 64319, Note_on_c, 12, 53, 0
19, 64320, Note_on_c, 12, 52, 58
19, 64439, Note_on_c, 12, 52, 0
19, 64440, Note_on_c, 12, 50, 58
19, 64559, Note_on_c, 12, 50, 0
19, 64560, Note_on_c, 12, 57, 58
19, 65039, Note_on_c, 12, 57, 0
19, 65040, Note_on_c, 12, 57, 58
19, 65519, Note_on_c, 12, 57, 0
19, 69960, Note_on_c, 12, 59, 88
19, 70079, Note_on_c, 12, 59, 0
19, 70080, Note_on_c, 12, 59, 88
19, 70199, Note_on_c, 12, 59, 0
19, 70200, Note_on_c, 12, 59, 88
19, 70319, Note_on_c, 12, 59, 0
19, 70320, Note_on_c, 12, 60, 88
19, 70379, Note_on_c, 12, 60, 0
19, 70380, Note_on_c, 12, 62, 88
19, 70439, Note_on_c, 12, 62, 0
19, 70440, Note_on_c, 12, 60, 88
19, 70499, Note_on_c, 12, 60, 0
19, 70500, Note_on_c, 12, 59, 88
19, 70559, Note_on_c, 12, 59, 0
19, 70560, Note_on_c, 12, 60, 88
19, 70619, Note_on_c, 12, 60, 0
19, 70620, Note_on_c, 12, 62, 88
19, 70679, Note_on_c, 12, 62, 0
19, 70680, Note_on_c, 12, 59, 88
19, 70739, Note_on_c, 12, 59, 0
19, 70740, Note_on_c, 12, 60, 88
19, 70799, Note_on_c, 12, 60, 0
19, 70800, Note_on_c, 12, 62, 88
19, 70859, Note_on_c, 12, 62, 0
19, 70860, Note_on_c, 12, 64, 88
19, 70919, Note_on_c, 12, 64, 0
19, 70920, Note_on_c, 12, 62, 88
19, 70979, Note_on_c, 12, 62, 0
19, 70980, Note_on_c, 12, 60, 88
19, 71039, Note_on_c, 12, 60, 0
19, 71040, Note_on_c, 12, 62, 88
19, 71099, Note_on_c, 12, 62, 0
19, 71100, Note_on_c, 12, 64, 88
19, 71159, Note_on_c, 12, 64, 0
19, 71160, Note_on_c, 12, 60, 88
19, 71219, Note_on_c, 12, 60, 0
19, 71220, Note_on_c, 12, 62, 88
19, 71279, Note_on_c, 12, 62, 0
19, 71280, Note_on_c, 12, 64, 88
19, 71399, Note_on_c, 12, 64, 0
19, 71400, Note_on_c, 12, 65, 88
19, 71459, Note_on_c, 12, 65, 0
19, 71460, Note_on_c, 12, 64, 88
19, 71519, Note_on_c, 12, 64, 0
19, 71520, Note_on_c, 12, 62, 88
19, 71579, Note_on_c, 12, 62, 0
19, 71580, Note_on_c, 12, 60, 88
19, 71639, Note_on_c, 12, 60, 0
19, 71640, Note_on_c, 12, 59, 88
19, 71699, Note_on_c, 12, 59, 0
19, 71700, Note_on_c, 12, 57, 88
19, 71759, Note_on_c, 12, 57, 0
19, 71760, Note_on_c, 12, 56, 88
19, 71879, Note_on_c, 12, 56, 0
19, 71880, Note_on_c, 12, 59, 88
19, 71999, Note_on_c, 12, 59, 0
19, 72000, Note_on_c, 12, 64, 88
19, 72119, Note_on_c, 12, 64, 0
19, 72120, Note_on_c, 12, 62, 88
19, 72239, Note_on_c, 12, 62, 0
19, 72240, Note_on_c, 12, 60, 88
19, 72359, Note_on_c, 12, 60, 0
19, 72360, Note_on_c, 12, 61, 88
19, 72479, Note_on_c, 12, 61, 0
19, 72480, Note_on_c, 12, 62, 88
19, 72599, Note_on_c, 12, 62, 0
19, 72600, Note_on_c, 12, 64, 88
19, 72719, Note_on_c, 12, 64, 0
19, 72720, Note_on_c, 12, 57, 88
19, 72839, Note_on_c, 12, 57, 0
19, 72840, Note_on_c, 12, 50, 88
19, 72959, Note_on_c, 12, 50, 0
19, 72960, Note_on_c, 12, 55, 88
19, 73079, Note_on_c, 12, 55, 0
19, 73080, Note_on_c, 12, 53, 88
19, 73199, Note_on_c, 12, 53, 0
19, 73200, Note_on_c, 12, 52, 88
19, 73319, Note_on_c, 12, 52, 0
19, 73320, Note_on_c, 12, 55, 88
19, 73439, Note_on_c, 12, 55, 0
19, 73440, Note_on_c, 12, 58, 88
19, 73679, Note_on_c, 12, 58, 0
19, 73680, Note_on_c, 12, 57, 88
19, 73919, Note_on_c, 12, 57, 0
19, 75600, Note_on_c, 12, 62, 88
19, 76079, Note_on_c, 12, 62, 0
19, 76080, Note_on_c, 12, 60, 88
19, 76319, Note_on_c, 12, 60, 0
19, 76320, Note_on_c, 12, 65, 88
19, 76559, Note_on_c, 12, 65, 0
19, 76560, Note_on_c, 12, 56, 88
19, 77039, Note_on_c, 12, 56, 0
19, 77040, Note_on_c, 12, 57, 88
19, 77279, Note_on_c, 12, 57, 0
19, 77280, Note_on_c, 12, 57, 88
19, 77399, Note_on_c, 12, 57, 0
19, 77400, Note_on_c, 12, 57, 88
19, 77519, Note_on_c, 12, 57, 0
19, 77520, Note_on_c, 12, 59, 88
19, 77879, Note_on_c, 12, 59, 0
19, 77880, Note_on_c, 12, 57, 88
19, 77939, Note_on_c, 12, 57, 0
19, 77940, Note_on_c, 12, 59, 88
19, 77999, Note_on_c, 12, 59, 0
19, 78000, Note_on_c, 12, 60, 88
19, 78119, Note_on_c, 12, 60, 0
19, 78120, Note_on_c, 12, 59, 88
19, 78179, Note_on_c, 12, 59, 0
19, 78180, Note_on_c, 12, 60, 88
19, 78239, Note_on_c, 12, 60, 0
19, 78240, Note_on_c, 12, 62, 88
19, 78359, Note_on_c, 12, 62, 0
19, 78360, Note_on_c, 12, 60, 88
19, 78419, Note_on_c, 12, 60, 0
19, 78420, Note_on_c, 12, 62, 88
19, 78479, Note_on_c, 12, 62, 0
19, 78480, Note_on_c, 12, 64, 88
19, 78599, Note_on_c, 12, 64, 0
19, 78600, Note_on_c, 12, 62, 88
19, 78719, Note_on_c, 12, 62, 0
19, 78720, Note_on_c, 12, 60, 88
19, 78839, Note_on_c, 12, 60, 0
19, 78840, Note_on_c, 12, 59, 88
19, 78959, Note_on_c, 12, 59, 0
19, 78960, Note_on_c, 12, 57, 88
19, 79019, Note_on_c, 12, 57, 0
19, 79020, Note_on_c, 12, 59, 88
19, 79079, Note_on_c, 12, 59, 0
19, 79080, Note_on_c, 12, 60, 88
19, 79319, Note_on_c, 12, 60, 0
19, 79320, Note_on_c, 12, 61, 88
19, 79439, Note_on_c, 12, 61, 0
19, 79440, Note_on_c, 12, 62, 88
19, 79559, Note_on_c, 12, 62, 0
19, 79560, Note_on_c, 12, 50, 88
19, 79679, Note_on_c, 12, 50, 0
19, 79680, Note_on_c, 12, 52, 88
19, 79799, Note_on_c, 12, 52, 0
19, 79800, Note_on_c, 12, 54, 88
19, 79919, Note_on_c, 12, 54, 0
19, 79920, Note_on_c, 12, 55, 88
19, 79979, Note_on_c, 12, 55, 0
19, 79980, Note_on_c, 12, 57, 88
19, 80039, Note_on_c, 12, 57, 0
19, 80040, Note_on_c, 12, 58, 88
19, 80279, Note_on_c, 12, 58, 0
19, 80280, Note_on_c, 12, 59, 88
19, 80399, Note_on_c, 12, 59, 0
19, 80400, Note_on_c, 12, 60, 88
19, 80519, Note_on_c, 12, 60, 0
19, 80520, Note_on_c, 12, 58, 88
19, 80639, Note_on_c, 12, 58, 0
19, 80640, Note_on_c, 12, 57, 88
19, 80759, Note_on_c, 12, 57, 0
19, 80760, Note_on_c, 12, 55, 88
19, 80879, Note_on_c, 12, 55, 0
19, 80880, Note_on_c, 12, 57, 88
19, 80939, Note_on_c, 12, 57, 0
19, 80940, Note_on_c, 12, 53, 88
19, 80999, Note_on_c, 12, 53, 0
19, 81000, Note_on_c, 12, 55, 88
19, 81059, Note_on_c, 12, 55, 0
19, 81060, Note_on_c, 12, 57, 88
19, 81119, Note_on_c, 12, 57, 0
19, 81120, Note_on_c, 12, 58, 88
19, 81179, Note_on_c, 12, 58, 0
19, 81180, Note_on_c, 12, 55, 88
19, 81239, Note_on_c, 12, 55, 0
19, 81240, Note_on_c, 12, 57, 88
19, 81299, Note_on_c, 12, 57, 0
19, 81300, Note_on_c, 12, 58, 88
19, 81359, Note_on_c, 12, 58, 0
19, 81360, Note_on_c, 12, 60, 88
19, 81479, Note_on_c, 12, 60, 0
19, 81480, Note_on_c, 12, 55, 88
19, 81599, Note_on_c, 12, 55, 0
19, 81600, Note_on_c, 12, 60, 88
19, 81959, Note_on_c, 12, 60, 0
19, 81960, Note_on_c, 12, 58, 88
19, 82019, Note_on_c, 12, 58, 0
19, 82020, Note_on_c, 12, 57, 88
19, 82079, Note_on_c, 12, 57, 0
19, 82080, Note_on_c, 12, 58, 88
19, 82139, Note_on_c, 12, 58, 0
19, 82140, Note_on_c, 12, 60, 88
19, 82199, Note_on_c, 12, 60, 0
19, 82200, Note_on_c, 12, 57, 88
19, 82259, Note_on_c, 12, 57, 0
19, 82260, Note_on_c, 12, 58, 88
19, 82319, Note_on_c, 12, 58, 0
19, 82320, Note_on_c, 12, 55, 88
19, 82439, Note_on_c, 12, 55, 0
19, 82440, Note_on_c, 12, 57, 88
19, 82499, Note_on_c, 12, 57, 0
19, 82500, Note_on_c, 12, 58, 88
19, 82559, Note_on_c, 12, 58, 0
19, 82560, Note_on_c, 12, 60, 88
19, 82799, Note_on_c, 12, 60, 0
19, 83760, Note_on_c, 12, 62, 88
19, 84239, Note_on_c, 12, 62, 0
19, 84240, Note_on_c, 12, 58, 88
19, 84479, Note_on_c, 12, 58, 0
19, 84480, Note_on_c, 12, 63, 88
19, 84719, Note_on_c, 12, 63, 0
19, 84720, Note_on_c, 12, 54, 88
19, 85199, Note_on_c, 12, 54, 0
19, 85200, Note_on_c, 12, 55, 88
19, 85439, Note_on_c, 12, 55, 0
19, 85440, Note_on_c, 12, 55, 88
19, 85559, Note_on_c, 12, 55, 0
19, 85560, Note_on_c, 12, 55, 88
19, 85679, Note_on_c, 12, 55, 0
19, 85680, Note_on_c, 12, 57, 88
19, 86039, Note_on_c, 12, 57, 0
19, 86040, Note_on_c, 12, 55, 88
19, 86099, Note_on_c, 12, 55, 0
19, 86100, Note_on_c, 12, 57, 88
19, 86159, Note_on_c, 12, 57, 0
19, 86160, Note_on_c, 12, 58, 88
19, 86279, Note_on_c, 12, 58, 0
19, 86280, Note_on_c, 12, 57, 88
19, 86339, Note_on_c, 12, 57, 0
19, 86340, Note_on_c, 12, 58, 88
19, 86399, Note_on_c, 12, 58, 0
19, 86400, Note_on_c, 12, 60, 88
19, 86519, Note_on_c, 12, 60, 0
19, 86520, Note_on_c, 12, 58, 88
19, 86579, Note_on_c, 12, 58, 0
19, 86580, Note_on_c, 12, 60, 88
19, 86639, Note_on_c, 12, 60, 0
19, 86640, Note_on_c, 12, 62, 88
19, 86759, Note_on_c, 12, 62, 0
19, 86760, Note_on_c, 12, 60, 88
19, 86879, Note_on_c, 12, 60, 0
19, 86880, Note_on_c, 12, 58, 88
19, 86999, Note_on_c, 12, 58, 0
19, 87000, Note_on_c, 12, 57, 88
19, 87119, Note_on_c, 12, 57, 0
19, 87120, Note_on_c, 12, 55, 88
19, 87239, Note_on_c, 12, 55, 0
19, 87240, Note_on_c, 12, 65, 88
19, 87359, Note_on_c, 12, 65, 0
19, 87360, Note_on_c, 12, 63, 88
19, 87479, Note_on_c, 12, 63, 0
19, 87480, Note_on_c, 12, 59, 88
19, 87599, Note_on_c, 12, 59, 0
19, 87600, Note_on_c, 12, 60, 88
19, 87719, Note_on_c, 12, 60, 0
19, 87720, Note_on_c, 12, 67, 88
19, 87839, Note_on_c, 12, 67, 0
19, 87840, Note_on_c, 12, 65, 88
19, 87899, Note_on_c, 12, 65, 0
19, 87900, Note_on_c, 12, 63, 88
19, 87959, Note_on_c, 12, 63, 0
19, 87960, Note_on_c, 12, 62, 88
19, 88019, Note_on_c, 12, 62, 0
19, 88020, Note_on_c, 12, 60, 88
19, 88079, Note_on_c, 12, 60, 0
19, 88080, Note_on_c, 12, 62, 88
19, 88139, Note_on_c, 12, 62, 0
19, 88140, Note_on_c, 12, 60, 88
19, 88199, Note_on_c, 12, 60, 0
19, 88200, Note_on_c, 12, 59, 88
19, 88259, Note_on_c, 12, 59, 0
19, 88260, Note_on_c, 12, 57, 88
19, 88319, Note_on_c, 12, 57, 0
19, 88320, Note_on_c, 12, 55, 88
19, 88379, Note_on_c, 12, 55, 0
19, 88380, Note_on_c, 12, 56, 88
19, 88439, Note_on_c, 12, 56, 0
19, 88440, Note_on_c, 12, 53, 88
19, 88499, Note_on_c, 12, 53, 0
19, 88500, Note_on_c, 12, 55, 88
19, 88559, Note_on_c, 12, 55, 0
19, 88560, Note_on_c, 12, 51, 88
19, 88679, Note_on_c, 12, 51, 0
19, 88680, Note_on_c, 12, 48, 88
19, 88799, Note_on_c, 12, 48, 0
19, 88800, Note_on_c, 12, 56, 88
19, 89159, Note_on_c, 12, 56, 0
19, 89160, Note_on_c, 12, 53, 88
19, 89279, Note_on_c, 12, 53, 0
19, 89280, Note_on_c, 12, 58, 88
19, 89759, Note_on_c, 12, 58, 0
19, 89760, Note_on_c, 12, 56, 88
19, 89999, Note_on_c, 12, 56, 0
19, 90000, Note_on_c, 12, 55, 88
19, 90119, Note_on_c, 12, 55, 0
19, 90120, Note_on_c, 12, 57, 88
19, 90179, Note_on_c, 12, 57, 0
19, 90180, Note_on_c, 12, 59, 88
19, 90239, Note_on_c, 12, 59, 0
19, 90240, Note_on_c, 12, 60, 88
19, 90359, Note_on_c, 12, 60, 0
19, 90360, Note_on_c, 12, 62, 88
19, 90479, Note_on_c, 12, 62, 0
19, 90480, Note_on_c, 12, 63, 88
19, 90539, Note_on_c, 12, 63, 0
19, 90540, Note_on_c, 12, 62, 88
19, 90599, Note_on_c, 12, 62, 0
19, 90600, Note_on_c, 12, 60, 88
19, 90659, Note_on_c, 12, 60, 0
19, 90660, Note_on_c, 12, 58, 88
19, 90719, Note_on_c, 12, 58, 0
19, 90720, Note_on_c, 12, 57, 88
19, 90839, Note_on_c, 12, 57, 0
19, 90840, Note_on_c, 12, 58, 88
19, 91079, Note_on_c, 12, 58, 0
19, 91080, Note_on_c, 12, 57, 88
19, 91199, Note_on_c, 12, 57, 0
19, 91200, Note_on_c, 12, 58, 88
19, 91319, Note_on_c, 12, 58, 0
19, 91320, Note_on_c, 12, 60, 88
19, 91439, Note_on_c, 12, 60, 0
19, 91440, Note_on_c, 12, 62, 88
19, 91679, Note_on_c, 12, 62, 0
19, 92040, Note_on_c, 12, 53, 88
19, 92159, Note_on_c, 12, 53, 0
19, 92160, Note_on_c, 12, 53, 88
19, 92279, Note_on_c, 12, 53, 0
19, 92280, Note_on_c, 12, 53, 88
19, 92399, Note_on_c, 12, 53, 0
19, 92400, Note_on_c, 12, 55, 88
19, 92459, Note_on_c, 12, 55, 0
19, 92460, Note_on_c, 12, 57, 88
19, 92519, Note_on_c, 12, 57, 0
19, 92520, Note_on_c, 12, 55, 88
19, 92579, Note_on_c, 12, 55, 0
19, 92580, Note_on_c, 12, 53, 88
19, 92639, Note_on_c, 12, 53, 0
19, 92640, Note_on_c, 12, 55, 88
19, 92699, Note_on_c, 12, 55, 0
19, 92700, Note_on_c, 12, 57, 88
19, 92759, Note_on_c, 12, 57, 0
19, 92760, Note_on_c, 12, 53, 88
19, 92819, Note_on_c, 12, 53, 0
19, 92820, Note_on_c, 12, 55, 88
19, 92879, Note_on_c, 12, 55, 0
19, 92880, Note_on_c, 12, 57, 88
19, 92939, Note_on_c, 12, 57, 0
19, 92940, Note_on_c, 12, 58, 88
19, 92999, Note_on_c, 12, 58, 0
19, 93000, Note_on_c, 12, 57, 88
19, 93059, Note_on_c, 12, 57, 0
19, 93060, Note_on_c, 12, 55, 88
19, 93119, Note_on_c, 12, 55, 0
19, 93120, Note_on_c, 12, 57, 88
19, 93179, Note_on_c, 12, 57, 0
19, 93180, Note_on_c, 12, 58, 88
19, 93239, Note_on_c, 12, 58, 0
19, 93240, Note_on_c, 12, 55, 88
19, 93299, Note_on_c, 12, 55, 0
19, 93300, Note_on_c, 12, 57, 88
19, 93359, Note_on_c, 12, 57, 0
19, 93360, Note_on_c, 12, 58, 88
19, 93599, Note_on_c, 12, 58, 0
19, 93960, Note_on_c, 12, 60, 88
19, 94079, Note_on_c, 12, 60, 0
19, 94080, Note_on_c, 12, 60, 88
19, 94199, Note_on_c, 12, 60, 0
19, 94200, Note_on_c, 12, 60, 88
19, 94319, Note_on_c, 12, 60, 0
19, 94320, Note_on_c, 12, 62, 88
19, 94379, Note_on_c, 12, 62, 0
19, 94380, Note_on_c, 12, 63, 88
19, 94439, Note_on_c, 12, 63, 0
19, 94440, Note_on_c, 12, 62, 88
19, 94499, Note_on_c, 12, 62, 0
19, 94500, Note_on_c, 12, 60, 88
19, 94559, Note_on_c, 12, 60, 0
19, 94560, Note_on_c, 12, 62, 88
19, 94619, Note_on_c, 12, 62, 0
19, 94620, Note_on_c, 12, 63, 88
19, 94679, Note_on_c, 12, 63, 0
19, 94680, Note_on_c, 12, 60, 88
19, 94739, Note_on_c, 12, 60, 0
19, 94740, Note_on_c, 12, 62, 88
19, 94799, Note_on_c, 12, 62, 0
19, 94800, Note_on_c, 12, 63, 88
19, 94859, Note_on_c, 12, 63, 0
19, 94860, Note_on_c, 12, 65, 88
19, 94919, Note_on_c, 12, 65, 0
19, 94920, Note_on_c, 12, 63, 88
19, 94979, Note_on_c, 12, 63, 0
19, 94980, Note_on_c, 12, 62, 88
19, 95039, Note_on_c, 12, 62, 0
19, 95040, Note_on_c, 12, 63, 88
19, 95099, Note_on_c, 12, 63, 0
19, 95100, Note_on_c, 12, 65, 88
19, 95159, Note_on_c, 12, 65, 0
19, 95160, Note_on_c, 12, 62, 88
19, 95219, Note_on_c, 12, 62, 0
19, 95220, Note_on_c, 12, 63, 88
19, 95279, Note_on_c, 12, 63, 0
19, 95280, Note_on_c, 12, 65, 88
19, 95399, Note_on_c, 12, 65, 0
19, 95400, Note_on_c, 12, 62, 88
19, 95519, Note_on_c, 12, 62, 0
19, 95520, Note_on_c, 12, 64, 88
19, 95639, Note_on_c, 12, 64, 0
19, 95640, Note_on_c, 12, 65, 88
19, 95759, Note_on_c, 12, 65, 0
19, 95760, Note_on_c, 12, 67, 88
19, 95999, Note_on_c, 12, 67, 0
19, 96000, Note_on_c, 12, 65, 88
19, 96119, Note_on_c, 12, 65, 0
19, 96120, Note_on_c, 12, 64, 88
19, 96239, Note_on_c, 12, 64, 0
19, 96240, Note_on_c, 12, 65, 88
19, 96359, Note_on_c, 12, 65, 0
19, 96360, Note_on_c, 12, 53, 88
19, 96479, Note_on_c, 12, 53, 0
19, 96480, Note_on_c, 12, 58, 88
19, 96599, Note_on_c, 12, 58, 0
19, 96600, Note_on_c, 12, 55, 88
19, 96719, Note_on_c, 12, 55, 0
19, 96720, Note_on_c, 12, 60, 88
19, 96959, Note_on_c, 12, 60, 0
19, 97800, Note_on_c, 12, 55, 88
19, 97919, Note_on_c, 12, 55, 0
19, 97920, Note_on_c, 12, 55, 88
19, 98039, Note_on_c, 12, 55, 0
19, 98040, Note_on_c, 12, 55, 88
19, 98159, Note_on_c, 12, 55, 0
19, 98160, Note_on_c, 12, 56, 88
19, 98219, Note_on_c, 12, 56, 0
19, 98220, Note_on_c, 12, 58, 88
19, 98279, Note_on_c, 12, 58, 0
19, 98280, Note_on_c, 12, 56, 88
19, 98339, Note_on_c, 12, 56, 0
19, 98340, Note_on_c, 12, 55, 88
19, 98399, Note_on_c, 12, 55, 0
19, 98400, Note_on_c, 12, 57, 88
19, 98459, Note_on_c, 12, 57, 0
19, 98460, Note_on_c, 12, 58, 88
19, 98519, Note_on_c, 12, 58, 0
19, 98520, Note_on_c, 12, 55, 88
19, 98579, Note_on_c, 12, 55, 0
19, 98580, Note_on_c, 12, 57, 88
19, 98639, Note_on_c, 12, 57, 0
19, 98640, Note_on_c, 12, 58, 88
19, 98699, Note_on_c, 12, 58, 0
19, 98700, Note_on_c, 12, 60, 88
19, 98759, Note_on_c, 12, 60, 0
19, 98760, Note_on_c, 12, 58, 88
19, 98819, Note_on_c, 12, 58, 0
19, 98820, Note_on_c, 12, 57, 88
19, 98879, Note_on_c, 12, 57, 0
19, 98880, Note_on_c, 12, 59, 88
19, 98939, Note_on_c, 12, 59, 0
19, 98940, Note_on_c, 12, 60, 88
19, 98999, Note_on_c, 12, 60, 0
19, 99000, Note_on_c, 12, 57, 88
19, 99059, Note_on_c, 12, 57, 0
19, 99060, Note_on_c, 12, 59, 88
19, 99119, Note_on_c, 12, 59, 0
19, 99120, Note_on_c, 12, 60, 88
19, 99239, Note_on_c, 12, 60, 0
19, 99240, Note_on_c, 12, 55, 88
19, 99359, Note_on_c, 12, 55, 0
19, 99360, Note_on_c, 12, 60, 88
19, 99479, Note_on_c, 12, 60, 0
19, 99480, Note_on_c, 12, 58, 88
19, 99599, Note_on_c, 12, 58, 0
19, 99600, Note_on_c, 12, 57, 88
19, 99719, Note_on_c, 12, 57, 0
19, 99720, Note_on_c, 12, 50, 88
19, 99839, Note_on_c, 12, 50, 0
19, 99840, Note_on_c, 12, 62, 88
19, 99959, Note_on_c, 12, 62, 0
19, 99960, Note_on_c, 12, 60, 88
19, 100079, Note_on_c, 12, 60, 0
19, 100080, Note_on_c, 12, 58, 88
19, 100319, Note_on_c, 12, 58, 0
19, 100680, Note_on_c, 12, 55, 88
19, 100799, Note_on_c, 12, 55, 0
19, 100800, Note_on_c, 12, 55, 88
19, 100919, Note_on_c, 12, 55, 0
19, 100920, Note_on_c, 12, 57, 88
19, 101039, Note_on_c, 12, 57, 0
19, 101040, Note_on_c, 12, 57, 88
19, 101159, Note_on_c, 12, 57, 0
19, 101160, Note_on_c, 12, 57, 88
19, 101279, Note_on_c, 12, 57, 0
19, 101280, Note_on_c, 12, 57, 88
19, 101399, Note_on_c, 12, 57, 0
19, 101400, Note_on_c, 12, 57, 88
19, 101519, Note_on_c, 12, 57, 0
19, 101520, Note_on_c, 12, 59, 88
19, 101999, Note_on_c, 12, 59, 0
19, 102000, Note_on_c, 12, 61, 88
19, 102119, Note_on_c, 12, 61, 0
19, 102120, Note_on_c, 12, 57, 88
19, 102239, Note_on_c, 12, 57, 0
19, 102240, Note_on_c, 12, 59, 88
19, 102359, Note_on_c, 12, 59, 0
19, 102360, Note_on_c, 12, 61, 88
19, 102479, Note_on_c, 12, 61, 0
19, 102480, Note_on_c, 12, 62, 88
19, 102959, Note_on_c, 12, 62, 0
19, 102960, Note_on_c, 12, 64, 88
19, 103199, Note_on_c, 12, 64, 0
19, 103200, Note_on_c, 12, 57, 88
19, 103559, Note_on_c, 12, 57, 0
19, 103560, Note_on_c, 12, 53, 88
19, 103679, Note_on_c, 12, 53, 0
19, 103680, Note_on_c, 12, 58, 88
19, 104039, Note_on_c, 12, 58, 0
19, 104040, Note_on_c, 12, 55, 88
19, 104159, Note_on_c, 12, 55, 0
19, 104160, Note_on_c, 12, 64, 88
19, 104279, Note_on_c, 12, 64, 0
19, 104280, Note_on_c, 12, 64, 88
19, 104399, Note_on_c, 12, 64, 0
19, 104400, Note_on_c, 12, 62, 88
19, 104519, Note_on_c, 12, 62, 0
19, 104520, Note_on_c, 12, 61, 88
19, 104579, Note_on_c, 12, 61, 0
19, 104580, Note_on_c, 12, 62, 88
19, 104639, Note_on_c, 12, 62, 0
19, 104640, Note_on_c, 12, 64, 88
19, 104699, Note_on_c, 12, 64, 0
19, 104700, Note_on_c, 12, 65, 88
19, 104759, Note_on_c, 12, 65, 0
19, 104760, Note_on_c, 12, 67, 88
19, 104819, Note_on_c, 12, 67, 0
19, 104820, Note_on_c, 12, 65, 88
19, 104879, Note_on_c, 12, 65, 0
19, 104880, Note_on_c, 12, 64, 88
19, 104999, Note_on_c, 12, 64, 0
19, 105000, Note_on_c, 12, 62, 88
19, 105119, Note_on_c, 12, 62, 0
19, 105120, Note_on_c, 12, 61, 88
19, 105299, Note_on_c, 12, 61, 0
19, 105300, Note_on_c, 12, 62, 88
19, 105359, Note_on_c, 12, 62, 0
19, 105360, Note_on_c, 12, 64, 88
19, 105599, Note_on_c, 12, 64, 0
19, 105600, Note_on_c, 12, 57, 88
19, 105719, Note_on_c, 12, 57, 0
19, 105720, Note_on_c, 12, 61, 88
19, 105839, Note_on_c, 12, 61, 0
19, 105840, Note_on_c, 12, 62, 88
19, 105959, Note_on_c, 12, 62, 0
19, 105960, Note_on_c, 12, 65, 88
19, 106079, Note_on_c, 12, 65, 0
19, 106080, Note_on_c, 12, 64, 88
19, 106199, Note_on_c, 12, 64, 0
19, 106200, Note_on_c, 12, 62, 88
19, 106319, Note_on_c, 12, 62, 0
19, 106320, Note_on_c, 12, 64, 88
19, 106439, Note_on_c, 12, 64, 0
19, 106440, Note_on_c, 12, 57, 88
19, 106559, Note_on_c, 12, 57, 0
19, 106560, Note_on_c, 12, 59, 88
19, 106679, Note_on_c, 12, 59, 0
19, 106680, Note_on_c, 12, 61, 88
19, 106799, Note_on_c, 12, 61, 0
19, 106800, Note_on_c, 12, 62, 88
19, 106919, Note_on_c, 12, 62, 0
19, 106920, Note_on_c, 12, 50, 88
19, 107039, Note_on_c, 12, 50, 0
19, 107040, Note_on_c, 12, 55, 88
19, 107159, Note_on_c, 12, 55, 0
19, 107160, Note_on_c, 12, 52, 88
19, 107279, Note_on_c, 12, 52, 0
19, 107280, Note_on_c, 12, 57, 88
19, 107399, Note_on_c, 12, 57, 0
19, 107400, Note_on_c, 12, 58, 88
19, 107519, Note_on_c, 12, 58, 0
19, 107520, Note_on_c, 12, 57, 88
19, 107639, Note_on_c, 12, 57, 0
19, 107640, Note_on_c, 12, 55, 88
19, 107759, Note_on_c, 12, 55, 0
19, 107760, Note_on_c, 12, 53, 88
19, 107879, Note_on_c, 12, 53, 0
19, 107880, Note_on_c, 12, 50, 88
19, 107999, Note_on_c, 12, 50, 0
19, 108000, Note_on_c, 12, 55, 88
19, 108119, Note_on_c, 12, 55, 0
19, 108120, Note_on_c, 12, 53, 88
19, 108239, Note_on_c, 12, 53, 0
19, 108240, Note_on_c, 12, 52, 88
19, 108359, Note_on_c, 12, 52, 0
19, 108360, Note_on_c, 12, 48, 88
19, 108479, Note_on_c, 12, 48, 0
19, 108480, Note_on_c, 12, 57, 88
19, 108599, Note_on_c, 12, 57, 0
19, 108600, Note_on_c, 12, 57, 88
19, 108719, Note_on_c, 12, 57, 0
19, 108720, Note_on_c, 12, 53, 88
19, 108959, Note_on_c, 12, 53, 0
19, 108960, Note_on_c, 12, 62, 88
19, 109199, Note_on_c, 12, 62, 0
19, 109200, Note_on_c, 12, 55, 88
19, 109439, Note_on_c, 12, 55, 0
19, 109800, Note_on_c, 12, 57, 88
19, 109919, Note_on_c, 12, 57, 0
19, 109920, Note_on_c, 12, 62, 88
19, 110039, Note_on_c, 12, 62, 0
19, 110040, Note_on_c, 12, 60, 88
19, 110159, Note_on_c, 12, 60, 0
19, 110160, Note_on_c, 12, 59, 88
19, 110279, Note_on_c, 12, 59, 0
19, 110280, Note_on_c, 12, 59, 88
19, 110399, Note_on_c, 12, 59, 0
19, 110400, Note_on_c, 12, 64, 88
19, 110519, Note_on_c, 12, 64, 0
19, 110520, Note_on_c, 12, 62, 88
19, 110639, Note_on_c, 12, 62, 0
19, 110640, Note_on_c, 12, 60, 88
19, 110879, Note_on_c, 12, 60, 0
19, 110880, Note_on_c, 12, 62, 88
19, 111119, Note_on_c, 12, 62, 0
19, 111120, Note_on_c, 12, 62, 88
19, 111359, Note_on_c, 12, 62, 0
19, 111360, Note_on_c, 12, 64, 88
19, 111599, Note_on_c, 12, 64, 0
19, 111600, Note_on_c, 12, 64, 88
19, 111719, Note_on_c, 12, 64, 0
19, 111720, Note_on_c, 12, 64, 88
19, 111839, Note_on_c, 12, 64, 0
19, 111840, Note_on_c, 12, 62, 88
19, 111959, Note_on_c, 12, 62, 0
19, 111960, Note_on_c, 12, 65, 88
19, 112079, Note_on_c, 12, 65, 0
19, 112080, Note_on_c, 12, 64, 88
19, 112559, Note_on_c, 12, 64, 0
19, 112560, Note_on_c, 12, 65, 88
19, 113039, Note_on_c, 12, 65, 0
19, 113280, Note_on_c, 12, 65, 88
19, 113459, Note_on_c, 12, 65, 0
19, 113460, Note_on_c, 12, 65, 88
19, 113519, Note_on_c, 12, 65, 0
19, 113520, Note_on_c, 12, 64, 88
19, 113759, Note_on_c, 12, 64, 0
19, 113760, Note_on_c, 12, 65, 88
19, 114239, Note_on_c, 12, 65, 0
19, 114240, Note_on_c, 12, 64, 88
19, 114479, Note_on_c, 12, 64, 0
19, 114480, Note_on_c, 12, 62, 88
19, 115439, Note_on_c, 12, 62, 0
19, 115439, End_track
20, 0, Start_track
20, 0, Title_t, "Bass "
20, 0, MIDI_port, 0
20, 0, Program_c, 13, 60
20, 0, Control_c, 13, 7, 96
20, 0, Control_c, 13, 10, 80
20, 0, Control_c, 13, 11, 127
20, 960, Note_on_c, 13, 50, 88
20, 1199, Note_on_c, 13, 50, 0
20, 1200, Note_on_c, 13, 50, 88
20, 1439, Note_on_c, 13, 50, 0
20, 1440, Note_on_c, 13, 49, 88
20, 2159, Note_on_c, 13, 49, 0
20, 2160, Note_on_c, 13, 50, 88
20, 2399, Note_on_c, 13, 50, 0
20, 2640, Note_on_c, 13, 50, 88
20, 2879, Note_on_c, 13, 50, 0
20, 2880, Note_on_c, 13, 52, 88
20, 3599, Note_on_c, 13, 52, 0
20, 3600, Note_on_c, 13, 53, 88
20, 3839, Note_on_c, 13, 53, 0
20, 4080, Note_on_c, 13, 53, 88
20, 4319, Note_on_c, 13, 53, 0
20, 4320, Note_on_c, 13, 55, 88
20, 4799, Note_on_c, 13, 55, 0
20, 4800, Note_on_c, 13, 55, 88
20, 5039, Note_on_c, 13, 55, 0
20, 5040, Note_on_c, 13, 56, 88
20, 5759, Note_on_c, 13, 56, 0
20, 5760, Note_on_c, 13, 57, 88
20, 5999, Note_on_c, 13, 57, 0
20, 6720, Note_on_c, 13, 53, 66
20, 6959, Note_on_c, 13, 53, 0
20, 6960, Note_on_c, 13, 53, 66
20, 7199, Note_on_c, 13, 53, 0
20, 7200, Note_on_c, 13, 45, 66
20, 7679, Note_on_c, 13, 45, 0
20, 7680, Note_on_c, 13, 45, 66
20, 7919, Note_on_c, 13, 45, 0
20, 7920, Note_on_c, 13, 46, 66
20, 8399, Note_on_c, 13, 46, 0
20, 8400, Note_on_c, 13, 46, 66
20, 8519, Note_on_c, 13, 46, 0
20, 8520, Note_on_c, 13, 47, 66
20, 8639, Note_on_c, 13, 47, 0
20, 8640, Note_on_c, 13, 48, 66
20, 9119, Note_on_c, 13, 48, 0
20, 9120, Note_on_c, 13, 48, 66
20, 9359, Note_on_c, 13, 48, 0
20, 9360, Note_on_c, 13, 41, 66
20, 9599, Note_on_c, 13, 41, 0
20, 11760, Note_on_c, 13, 53, 88
20, 11999, Note_on_c, 13, 53, 0
20, 12000, Note_on_c, 13, 53, 88
20, 12239, Note_on_c, 13, 53, 0
20, 12240, Note_on_c, 13, 52, 88
20, 12959, Note_on_c, 13, 52, 0
20, 12960, Note_on_c, 13, 53, 88
20, 13199, Note_on_c, 13, 53, 0
20, 13440, Note_on_c, 13, 57, 88
20, 13679, Note_on_c, 13, 57, 0
20, 13680, Note_on_c, 13, 47, 88
20, 14399, Note_on_c, 13, 47, 0
20, 14400, Note_on_c, 13, 48, 88
20, 14639, Note_on_c, 13, 48, 0
20, 14880, Note_on_c, 13, 48, 88
20, 15119, Note_on_c, 13, 48, 0
20, 15120, Note_on_c, 13, 49, 88
20, 15599, Note_on_c, 13, 49, 0
20, 15600, Note_on_c, 13, 50, 88
20, 15839, Note_on_c, 13, 50, 0
20, 15840, Note_on_c, 13, 51, 88
20, 16559, Note_on_c, 13, 51, 0
20, 16560, Note_on_c, 13, 52, 88
20, 16799, Note_on_c, 13, 52, 0
20, 18720, Note_on_c, 13, 48, 58
20, 19199, Note_on_c, 13, 48, 0
20, 19200, Note_on_c, 13, 52, 58
20, 19439, Note_on_c, 13, 52, 0
20, 19440, Note_on_c, 13, 53, 58
20, 19919, Note_on_c, 13, 53, 0
20, 19920, Note_on_c, 13, 50, 58
20, 20159, Note_on_c, 13, 50, 0
20, 20160, Note_on_c, 13, 47, 58
20, 20399, Note_on_c, 13, 47, 0
20, 20400, Note_on_c, 13, 48, 58
20, 20639, Note_on_c, 13, 48, 0
20, 20640, Note_on_c, 13, 45, 58
20, 20879, Note_on_c, 13, 45, 0
20, 20880, Note_on_c, 13, 43, 58
20, 21359, Note_on_c, 13, 43, 0
20, 21360, Note_on_c, 13, 43, 58
20, 21599, Note_on_c, 13, 43, 0
20, 21600, Note_on_c, 13, 48, 58
20, 21839, Note_on_c, 13, 48, 0
20, 24000, Note_on_c, 13, 60, 88
20, 24239, Note_on_c, 13, 60, 0
20, 24240, Note_on_c, 13, 60, 88
20, 24479, Note_on_c, 13, 60, 0
20, 24480, Note_on_c, 13, 59, 88
20, 25199, Note_on_c, 13, 59, 0
20, 25200, Note_on_c, 13, 60, 88
20, 25439, Note_on_c, 13, 60, 0
20, 25680, Note_on_c, 13, 60, 88
20, 25919, Note_on_c, 13, 60, 0
20, 25920, Note_on_c, 13, 59, 88
20, 26639, Note_on_c, 13, 59, 0
20, 26640, Note_on_c, 13, 58, 88
20, 26879, Note_on_c, 13, 58, 0
20, 27120, Note_on_c, 13, 58, 88
20, 27359, Note_on_c, 13, 58, 0
20, 27360, Note_on_c, 13, 58, 88
20, 27839, Note_on_c, 13, 58, 0
20, 27840, Note_on_c, 13, 58, 88
20, 28079, Note_on_c, 13, 58, 0
20, 28080, Note_on_c, 13, 57, 88
20, 28799, Note_on_c, 13, 57, 0
20, 28800, Note_on_c, 13, 58, 88
20, 29039, Note_on_c, 13, 58, 0
20, 29040, Note_on_c, 13, 58, 66
20, 29279, Note_on_c, 13, 58, 0
20, 29280, Note_on_c, 13, 58, 66
20, 29519, Note_on_c, 13, 58, 0
20, 29520, Note_on_c, 13, 50, 66
20, 29999, Note_on_c, 13, 50, 0
20, 30000, Note_on_c, 13, 50, 58
20, 30239, Note_on_c, 13, 50, 0
20, 30240, Note_on_c, 13, 51, 58
20, 30839, Note_on_c, 13, 51, 0
20, 30840, Note_on_c, 13, 52, 58
20, 30959, Note_on_c, 13, 52, 0
20, 30960, Note_on_c, 13, 53, 58
20, 31439, Note_on_c, 13, 53, 0
20, 31440, Note_on_c, 13, 53, 58
20, 31679, Note_on_c, 13, 53, 0
20, 33360, Note_on_c, 13, 54, 58
20, 33599, Note_on_c, 13, 54, 0
20, 33600, Note_on_c, 13, 54, 58
20, 33839, Note_on_c, 13, 54, 0
20, 33840, Note_on_c, 13, 53, 68
20, 34559, Note_on_c, 13, 53, 0
20, 34560, Note_on_c, 13, 54, 78
20, 35279, Note_on_c, 13, 54, 0
20, 35280, Note_on_c, 13, 53, 88
20, 35999, Note_on_c, 13, 53, 0
20, 36000, Note_on_c, 13, 53, 88
20, 36719, Note_on_c, 13, 53, 0
20, 43680, Note_on_c, 13, 55, 88
20, 43799, Note_on_c, 13, 55, 0
20, 43800, Note_on_c, 13, 55, 88
20, 43919, Note_on_c, 13, 55, 0
20, 43920, Note_on_c, 13, 57, 88
20, 44039, Note_on_c, 13, 57, 0
20, 44040, Note_on_c, 13, 57, 88
20, 44159, Note_on_c, 13, 57, 0
20, 44280, Note_on_c, 13, 57, 88
20, 44399, Note_on_c, 13, 57, 0
20, 44400, Note_on_c, 13, 58, 88
20, 44519, Note_on_c, 13, 58, 0
20, 44520, Note_on_c, 13, 46, 88
20, 44639, Note_on_c, 13, 46, 0
20, 44760, Note_on_c, 13, 58, 88
20, 44879, Note_on_c, 13, 58, 0
20, 44880, Note_on_c, 13, 54, 88
20, 45239, Note_on_c, 13, 54, 0
20, 45240, Note_on_c, 13, 54, 88
20, 45359, Note_on_c, 13, 54, 0
20, 45360, Note_on_c, 13, 55, 88
20, 45479, Note_on_c, 13, 55, 0
20, 45480, Note_on_c, 13, 55, 88
20, 45539, Note_on_c, 13, 55, 0
20, 45540, Note_on_c, 13, 55, 88
20, 45599, Note_on_c, 13, 55, 0
20, 45600, Note_on_c, 13, 55, 88
20, 45719, Note_on_c, 13, 55, 0
20, 45720, Note_on_c, 13, 55, 88
20, 45839, Note_on_c, 13, 55, 0
20, 45840, Note_on_c, 13, 48, 88
20, 45959, Note_on_c, 13, 48, 0
20, 45960, Note_on_c, 13, 50, 88
20, 46049, Note_on_c, 13, 50, 0
20, 46050, Note_on_c, 13, 51, 88
20, 46079, Note_on_c, 13, 51, 0
20, 46080, Note_on_c, 13, 53, 88
20, 46199, Note_on_c, 13, 53, 0
20, 46200, Note_on_c, 13, 53, 88
20, 46319, Note_on_c, 13, 53, 0
20, 46320, Note_on_c, 13, 46, 88
20, 46559, Note_on_c, 13, 46, 0
20, 46680, Note_on_c, 13, 58, 88
20, 46799, Note_on_c, 13, 58, 0
20, 46800, Note_on_c, 13, 58, 88
20, 46919, Note_on_c, 13, 58, 0
20, 46920, Note_on_c, 13, 55, 88
20, 47039, Note_on_c, 13, 55, 0
20, 47160, Note_on_c, 13, 55, 88
20, 47279, Note_on_c, 13, 55, 0
20, 47280, Note_on_c, 13, 55, 88
20, 47399, Note_on_c, 13, 55, 0
20, 47400, Note_on_c, 13, 52, 88
20, 47519, Note_on_c, 13, 52, 0
20, 47520, Note_on_c, 13, 52, 88
20, 47759, Note_on_c, 13, 52, 0
20, 47760, Note_on_c, 13, 51, 88
20, 47999, Note_on_c, 13, 51, 0
20, 48000, Note_on_c, 13, 51, 88
20, 48119, Note_on_c, 13, 51, 0
20, 48120, Note_on_c, 13, 51, 88
20, 48239, Note_on_c, 13, 51, 0
20, 48240, Note_on_c, 13, 50, 88
20, 48359, Note_on_c, 13, 50, 0
20, 48360, Note_on_c, 13, 50, 88
20, 48479, Note_on_c, 13, 50, 0
20, 48480, Note_on_c, 13, 49, 88
20, 48599, Note_on_c, 13, 49, 0
20, 48600, Note_on_c, 13, 49, 88
20, 48719, Note_on_c, 13, 49, 0
20, 48720, Note_on_c, 13, 50, 88
20, 49079, Note_on_c, 13, 50, 0
20, 49080, Note_on_c, 13, 50, 88
20, 49199, Note_on_c, 13, 50, 0
20, 49200, Note_on_c, 13, 43, 88
20, 49439, Note_on_c, 13, 43, 0
20, 51360, Note_on_c, 13, 50, 88
20, 51719, Note_on_c, 13, 50, 0
20, 51720, Note_on_c, 13, 50, 88
20, 51839, Note_on_c, 13, 50, 0
20, 51840, Note_on_c, 13, 49, 88
20, 51959, Note_on_c, 13, 49, 0
20, 51960, Note_on_c, 13, 49, 88
20, 52079, Note_on_c, 13, 49, 0
20, 52080, Note_on_c, 13, 50, 88
20, 52319, Note_on_c, 13, 50, 0
20, 52320, Note_on_c, 13, 52, 88
20, 52559, Note_on_c, 13, 52, 0
20, 52560, Note_on_c, 13, 53, 88
20, 52799, Note_on_c, 13, 53, 0
20, 52800, Note_on_c, 13, 50, 88
20, 53039, Note_on_c, 13, 50, 0
20, 53040, Note_on_c, 13, 52, 88
20, 53279, Note_on_c, 13, 52, 0
20, 54120, Note_on_c, 13, 57, 88
20, 54239, Note_on_c, 13, 57, 0
20, 54240, Note_on_c, 13, 54, 88
20, 54359, Note_on_c, 13, 54, 0
20, 54360, Note_on_c, 13, 50, 88
20, 54479, Note_on_c, 13, 50, 0
20, 54480, Note_on_c, 13, 55, 88
20, 54659, Note_on_c, 13, 55, 0
20, 54660, Note_on_c, 13, 57, 88
20, 54719, Note_on_c, 13, 57, 0
20, 54720, Note_on_c, 13, 58, 88
20, 54839, Note_on_c, 13, 58, 0
20, 54840, Note_on_c, 13, 55, 88
20, 54959, Note_on_c, 13, 55, 0
20, 54960, Note_on_c, 13, 62, 88
20, 55079, Note_on_c, 13, 62, 0
20, 55080, Note_on_c, 13, 50, 88
20, 55199, Note_on_c, 13, 50, 0
20, 55560, Note_on_c, 13, 55, 88
20, 55799, Note_on_c, 13, 55, 0
20, 55800, Note_on_c, 13, 54, 88
20, 55919, Note_on_c, 13, 54, 0
20, 55920, Note_on_c, 13, 55, 88
20, 56099, Note_on_c, 13, 55, 0
20, 56100, Note_on_c, 13, 43, 88
20, 56159, Note_on_c, 13, 43, 0
20, 56160, Note_on_c, 13, 43, 88
20, 56399, Note_on_c, 13, 43, 0
20, 57000, Note_on_c, 13, 60, 88
20, 57179, Note_on_c, 13, 60, 0
20, 57180, Note_on_c, 13, 62, 88
20, 57239, Note_on_c, 13, 62, 0
20, 57240, Note_on_c, 13, 60, 88
20, 57299, Note_on_c, 13, 60, 0
20, 57300, Note_on_c, 13, 58, 88
20, 57359, Note_on_c, 13, 58, 0
20, 57360, Note_on_c, 13, 57, 88
20, 57419, Note_on_c, 13, 57, 0
20, 57420, Note_on_c, 13, 60, 88
20, 57479, Note_on_c, 13, 60, 0
20, 57480, Note_on_c, 13, 58, 88
20, 57539, Note_on_c, 13, 58, 0
20, 57540, Note_on_c, 13, 57, 88
20, 57599, Note_on_c, 13, 57, 0
20, 57600, Note_on_c, 13, 55, 88
20, 57659, Note_on_c, 13, 55, 0
20, 57660, Note_on_c, 13, 58, 88
20, 57719, Note_on_c, 13, 58, 0
20, 57720, Note_on_c, 13, 57, 88
20, 57779, Note_on_c, 13, 57, 0
20, 57780, Note_on_c, 13, 55, 88
20, 57839, Note_on_c, 13, 55, 0
20, 57840, Note_on_c, 13, 53, 88
20, 57899, Note_on_c, 13, 53, 0
20, 57900, Note_on_c, 13, 55, 88
20, 57959, Note_on_c, 13, 55, 0
20, 57960, Note_on_c, 13, 57, 88
20, 58139, Note_on_c, 13, 57, 0
20, 58140, Note_on_c, 13, 58, 88
20, 58199, Note_on_c, 13, 58, 0
20, 58200, Note_on_c, 13, 57, 88
20, 58259, Note_on_c, 13, 57, 0
20, 58260, Note_on_c, 13, 55, 88
20, 58319, Note_on_c, 13, 55, 0
20, 58320, Note_on_c, 13, 53, 88
20, 58379, Note_on_c, 13, 53, 0
20, 58380, Note_on_c, 13, 57, 88
20, 58439, Note_on_c, 13, 57, 0
20, 58440, Note_on_c, 13, 55, 88
20, 58499, Note_on_c, 13, 55, 0
20, 58500, Note_on_c, 13, 53, 88
20, 58559, Note_on_c, 13, 53, 0
20, 58560, Note_on_c, 13, 52, 88
20, 58619, Note_on_c, 13, 52, 0
20, 58620, Note_on_c, 13, 55, 88
20, 58679, Note_on_c, 13, 55, 0
20, 58680, Note_on_c, 13, 53, 88
20, 58739, Note_on_c, 13, 53, 0
20, 58740, Note_on_c, 13, 52, 88
20, 58799, Note_on_c, 13, 52, 0
20, 58800, Note_on_c, 13, 50, 88
20, 58859, Note_on_c, 13, 50, 0
20, 58860, Note_on_c, 13, 51, 88
20, 58919, Note_on_c, 13, 51, 0
20, 58920, Note_on_c, 13, 53, 88
20, 59099, Note_on_c, 13, 53, 0
20, 59100, Note_on_c, 13, 55, 88
20, 59159, Note_on_c, 13, 55, 0
20, 59160, Note_on_c, 13, 53, 88
20, 59219, Note_on_c, 13, 53, 0
20, 59220, Note_on_c, 13, 51, 88
20, 59279, Note_on_c, 13, 51, 0
20, 59280, Note_on_c, 13, 50, 88
20, 59339, Note_on_c, 13, 50, 0
20, 59340, Note_on_c, 13, 53, 88
20, 59399, Note_on_c, 13, 53, 0
20, 59400, Note_on_c, 13, 51, 88
20, 59459, Note_on_c, 13, 51, 0
20, 59460, Note_on_c, 13, 50, 88
20, 59519, Note_on_c, 13, 50, 0
20, 59520, Note_on_c, 13, 48, 88
20, 59579, Note_on_c, 13, 48, 0
20, 59580, Note_on_c, 13, 51, 88
20, 59639, Note_on_c, 13, 51, 0
20, 59640, Note_on_c, 13, 50, 88
20, 59699, Note_on_c, 13, 50, 0
20, 59700, Note_on_c, 13, 48, 88
20, 59759, Note_on_c, 13, 48, 0
20, 59760, Note_on_c, 13, 46, 88
20, 59999, Note_on_c, 13, 46, 0
20, 60360, Note_on_c, 13, 58, 88
20, 60479, Note_on_c, 13, 58, 0
20, 60480, Note_on_c, 13, 58, 88
20, 60599, Note_on_c, 13, 58, 0
20, 60600, Note_on_c, 13, 58, 88
20, 60719, Note_on_c, 13, 58, 0
20, 60720, Note_on_c, 13, 57, 88
20, 60899, Note_on_c, 13, 57, 0
20, 60900, Note_on_c, 13, 57, 88
20, 60959, Note_on_c, 13, 57, 0
20, 60960, Note_on_c, 13, 57, 88
20, 61199, Note_on_c, 13, 57, 0
20, 61320, Note_on_c, 13, 57, 88
20, 61439, Note_on_c, 13, 57, 0
20, 61440, Note_on_c, 13, 57, 88
20, 61559, Note_on_c, 13, 57, 0
20, 61560, Note_on_c, 13, 57, 88
20, 61679, Note_on_c, 13, 57, 0
20, 61680, Note_on_c, 13, 56, 88
20, 61859, Note_on_c, 13, 56, 0
20, 61860, Note_on_c, 13, 56, 88
20, 61919, Note_on_c, 13, 56, 0
20, 61920, Note_on_c, 13, 56, 88
20, 62159, Note_on_c, 13, 56, 0
20, 62160, Note_on_c, 13, 56, 88
20, 62399, Note_on_c, 13, 56, 0
20, 62400, Note_on_c, 13, 56, 88
20, 62519, Note_on_c, 13, 56, 0
20, 62520, Note_on_c, 13, 56, 88
20, 62639, Note_on_c, 13, 56, 0
20, 62640, Note_on_c, 13, 57, 88
20, 62759, Note_on_c, 13, 57, 0
20, 62760, Note_on_c, 13, 57, 88
20, 62879, Note_on_c, 13, 57, 0
20, 63000, Note_on_c, 13, 57, 58
20, 63119, Note_on_c, 13, 57, 0
20, 63120, Note_on_c, 13, 50, 58
20, 63359, Note_on_c, 13, 50, 0
20, 63360, Note_on_c, 13, 49, 58
20, 63599, Note_on_c, 13, 49, 0
20, 63600, Note_on_c, 13, 50, 58
20, 63779, Note_on_c, 13, 50, 0
20, 63780, Note_on_c, 13, 50, 58
20, 63839, Note_on_c, 13, 50, 0
20, 63840, Note_on_c, 13, 48, 58
20, 64079, Note_on_c, 13, 48, 0
20, 64080, Note_on_c, 13, 47, 58
20, 64319, Note_on_c, 13, 47, 0
20, 64320, Note_on_c, 13, 46, 58
20, 64559, Note_on_c, 13, 46, 0
20, 64560, Note_on_c, 13, 45, 58
20, 65039, Note_on_c, 13, 45, 0
20, 65040, Note_on_c, 13, 45, 58
20, 65519, Note_on_c, 13, 45, 0
20, 65520, Note_on_c, 13, 57, 91
20, 65999, Note_on_c, 13, 57, 0
20, 66000, Note_on_c, 13, 53, 91
20, 66239, Note_on_c, 13, 53, 0
20, 66240, Note_on_c, 13, 58, 91
20, 66479, Note_on_c, 13, 58, 0
20, 66480, Note_on_c, 13, 49, 91
20, 66959, Note_on_c, 13, 49, 0
20, 66960, Note_on_c, 13, 50, 91
20, 67199, Note_on_c, 13, 50, 0
20, 67200, Note_on_c, 13, 50, 91
20, 67319, Note_on_c, 13, 50, 0
20, 67320, Note_on_c, 13, 50, 91
20, 67439, Note_on_c, 13, 50, 0
20, 67440, Note_on_c, 13, 52, 91
20, 67799, Note_on_c, 13, 52, 0
20, 67800, Note_on_c, 13, 50, 91
20, 67859, Note_on_c, 13, 50, 0
20, 67860, Note_on_c, 13, 52, 91
20, 67919, Note_on_c, 13, 52, 0
20, 67920, Note_on_c, 13, 53, 91
20, 68039, Note_on_c, 13, 53, 0
20, 68040, Note_on_c, 13, 52, 91
20, 68099, Note_on_c, 13, 52, 0
20, 68100, Note_on_c, 13, 53, 91
20, 68159, Note_on_c, 13, 53, 0
20, 68160, Note_on_c, 13, 55, 91
20, 68279, Note_on_c, 13, 55, 0
20, 68280, Note_on_c, 13, 53, 91
20, 68339, Note_on_c, 13, 53, 0
20, 68340, Note_on_c, 13, 55, 91
20, 68399, Note_on_c, 13, 55, 0
20, 68400, Note_on_c, 13, 57, 91
20, 68519, Note_on_c, 13, 57, 0
20, 68520, Note_on_c, 13, 55, 91
20, 68639, Note_on_c, 13, 55, 0
20, 68640, Note_on_c, 13, 53, 91
20, 68759, Note_on_c, 13, 53, 0
20, 68760, Note_on_c, 13, 52, 91
20, 68879, Note_on_c, 13, 52, 0
20, 68880, Note_on_c, 13, 50, 91
20, 68999, Note_on_c, 13, 50, 0
20, 69000, Note_on_c, 13, 48, 91
20, 69119, Note_on_c, 13, 48, 0
20, 69120, Note_on_c, 13, 47, 91
20, 69239, Note_on_c, 13, 47, 0
20, 69240, Note_on_c, 13, 52, 91
20, 69359, Note_on_c, 13, 52, 0
20, 69360, Note_on_c, 13, 45, 91
20, 69479, Note_on_c, 13, 45, 0
20, 69480, Note_on_c, 13, 53, 91
20, 69539, Note_on_c, 13, 53, 0
20, 69540, Note_on_c, 13, 52, 91
20, 69599, Note_on_c, 13, 52, 0
20, 69600, Note_on_c, 13, 50, 91
20, 69659, Note_on_c, 13, 50, 0
20, 69660, Note_on_c, 13, 47, 91
20, 69719, Note_on_c, 13, 47, 0
20, 69720, Note_on_c, 13, 48, 91
20, 69779, Note_on_c, 13, 48, 0
20, 69780, Note_on_c, 13, 50, 91
20, 69839, Note_on_c, 13, 50, 0
20, 69840, Note_on_c, 13, 52, 91
20, 70079, Note_on_c, 13, 52, 0
20, 70560, Note_on_c, 13, 57, 91
20, 71039, Note_on_c, 13, 57, 0
20, 71040, Note_on_c, 13, 55, 91
20, 71099, Note_on_c, 13, 55, 0
20, 71100, Note_on_c, 13, 53, 91
20, 71159, Note_on_c, 13, 53, 0
20, 71160, Note_on_c, 13, 52, 91
20, 71219, Note_on_c, 13, 52, 0
20, 71220, Note_on_c, 13, 50, 91
20, 71279, Note_on_c, 13, 50, 0
20, 71280, Note_on_c, 13, 48, 91
20, 71519, Note_on_c, 13, 48, 0
20, 71520, Note_on_c, 13, 47, 91
20, 71639, Note_on_c, 13, 47, 0
20, 71640, Note_on_c, 13, 53, 91
20, 71759, Note_on_c, 13, 53, 0
20, 71760, Note_on_c, 13, 52, 91
20, 71939, Note_on_c, 13, 52, 0
20, 71940, Note_on_c, 13, 54, 91
20, 71999, Note_on_c, 13, 54, 0
20, 72000, Note_on_c, 13, 56, 91
20, 72059, Note_on_c, 13, 56, 0
20, 72060, Note_on_c, 13, 57, 91
20, 72119, Note_on_c, 13, 57, 0
20, 72120, Note_on_c, 13, 54, 91
20, 72179, Note_on_c, 13, 54, 0
20, 72180, Note_on_c, 13, 56, 91
20, 72239, Note_on_c, 13, 56, 0
20, 72240, Note_on_c, 13, 57, 91
20, 72359, Note_on_c, 13, 57, 0
20, 72360, Note_on_c, 13, 45, 91
20, 72479, Note_on_c, 13, 45, 0
20, 72480, Note_on_c, 13, 47, 91
20, 72599, Note_on_c, 13, 47, 0
20, 72600, Note_on_c, 13, 49, 91
20, 72719, Note_on_c, 13, 49, 0
20, 72720, Note_on_c, 13, 50, 91
20, 72959, Note_on_c, 13, 50, 0
20, 73320, Note_on_c, 13, 52, 91
20, 73439, Note_on_c, 13, 52, 0
20, 73440, Note_on_c, 13, 52, 91
20, 73559, Note_on_c, 13, 52, 0
20, 73560, Note_on_c, 13, 52, 91
20, 73679, Note_on_c, 13, 52, 0
20, 73680, Note_on_c, 13, 53, 91
20, 73739, Note_on_c, 13, 53, 0
20, 73740, Note_on_c, 13, 55, 91
20, 73799, Note_on_c, 13, 55, 0
20, 73800, Note_on_c, 13, 53, 91
20, 73859, Note_on_c, 13, 53, 0
20, 73860, Note_on_c, 13, 52, 91
20, 73919, Note_on_c, 13, 52, 0
20, 73920, Note_on_c, 13, 53, 91
20, 73979, Note_on_c, 13, 53, 0
20, 73980, Note_on_c, 13, 55, 91
20, 74039, Note_on_c, 13, 55, 0
20, 74040, Note_on_c, 13, 52, 91
20, 74099, Note_on_c, 13, 52, 0
20, 74100, Note_on_c, 13, 53, 91
20, 74159, Note_on_c, 13, 53, 0
20, 74160, Note_on_c, 13, 55, 91
20, 74219, Note_on_c, 13, 55, 0
20, 74220, Note_on_c, 13, 57, 91
20, 74279, Note_on_c, 13, 57, 0
20, 74280, Note_on_c, 13, 55, 91
20, 74339, Note_on_c, 13, 55, 0
20, 74340, Note_on_c, 13, 53, 91
20, 74399, Note_on_c, 13, 53, 0
20, 74400, Note_on_c, 13, 55, 91
20, 74459, Note_on_c, 13, 55, 0
20, 74460, Note_on_c, 13, 57, 91
20, 74519, Note_on_c, 13, 57, 0
20, 74520, Note_on_c, 13, 53, 91
20, 74579, Note_on_c, 13, 53, 0
20, 74580, Note_on_c, 13, 55, 91
20, 74639, Note_on_c, 13, 55, 0
20, 74640, Note_on_c, 13, 57, 91
20, 74759, Note_on_c, 13, 57, 0
20, 74760, Note_on_c, 13, 58, 91
20, 74819, Note_on_c, 13, 58, 0
20, 74820, Note_on_c, 13, 57, 91
20, 74879, Note_on_c, 13, 57, 0
20, 74880, Note_on_c, 13, 55, 91
20, 74939, Note_on_c, 13, 55, 0
20, 74940, Note_on_c, 13, 53, 91
20, 74999, Note_on_c, 13, 53, 0
20, 75000, Note_on_c, 13, 52, 91
20, 75059, Note_on_c, 13, 52, 0
20, 75060, Note_on_c, 13, 50, 91
20, 75119, Note_on_c, 13, 50, 0
20, 75120, Note_on_c, 13, 49, 91
20, 75239, Note_on_c, 13, 49, 0
20, 75240, Note_on_c, 13, 52, 91
20, 75359, Note_on_c, 13, 52, 0
20, 75360, Note_on_c, 13, 57, 91
20, 75479, Note_on_c, 13, 57, 0
20, 75480, Note_on_c, 13, 55, 91
20, 75599, Note_on_c, 13, 55, 0
20, 75600, Note_on_c, 13, 53, 91
20, 75659, Note_on_c, 13, 53, 0
20, 75660, Note_on_c, 13, 52, 91
20, 75719, Note_on_c, 13, 52, 0
20, 75720, Note_on_c, 13, 50, 91
20, 75779, Note_on_c, 13, 50, 0
20, 75780, Note_on_c, 13, 48, 91
20, 75839, Note_on_c, 13, 48, 0
20, 75840, Note_on_c, 13, 47, 91
20, 76079, Note_on_c, 13, 47, 0
20, 76080, Note_on_c, 13, 48, 91
20, 76319, Note_on_c, 13, 48, 0
20, 76320, Note_on_c, 13, 50, 91
20, 76559, Note_on_c, 13, 50, 0
20, 76560, Note_on_c, 13, 52, 91
20, 76799, Note_on_c, 13, 52, 0
20, 76800, Note_on_c, 13, 52, 91
20, 76919, Note_on_c, 13, 52, 0
20, 76920, Note_on_c, 13, 52, 91
20, 77039, Note_on_c, 13, 52, 0
20, 77040, Note_on_c, 13, 57, 91
20, 77339, Note_on_c, 13, 57, 0
20, 77340, Note_on_c, 13, 55, 91
20, 77399, Note_on_c, 13, 55, 0
20, 77400, Note_on_c, 13, 53, 91
20, 77459, Note_on_c, 13, 53, 0
20, 77460, Note_on_c, 13, 52, 91
20, 77519, Note_on_c, 13, 52, 0
20, 77520, Note_on_c, 13, 53, 91
20, 77639, Note_on_c, 13, 53, 0
20, 77640, Note_on_c, 13, 50, 91
20, 77759, Note_on_c, 13, 50, 0
20, 77760, Note_on_c, 13, 55, 91
20, 77999, Note_on_c, 13, 55, 0
20, 78000, Note_on_c, 13, 48, 91
20, 78119, Note_on_c, 13, 48, 0
20, 78120, Note_on_c, 13, 45, 91
20, 78239, Note_on_c, 13, 45, 0
20, 78240, Note_on_c, 13, 53, 91
20, 78479, Note_on_c, 13, 53, 0
20, 78480, Note_on_c, 13, 52, 91
20, 78719, Note_on_c, 13, 52, 0
20, 79080, Note_on_c, 13, 57, 91
20, 79139, Note_on_c, 13, 57, 0
20, 79140, Note_on_c, 13, 55, 91
20, 79199, Note_on_c, 13, 55, 0
20, 79200, Note_on_c, 13, 53, 91
20, 79319, Note_on_c, 13, 53, 0
20, 79320, Note_on_c, 13, 51, 91
20, 79439, Note_on_c, 13, 51, 0
20, 79440, Note_on_c, 13, 50, 91
20, 79679, Note_on_c, 13, 50, 0
20, 80040, Note_on_c, 13, 55, 91
20, 80099, Note_on_c, 13, 55, 0
20, 80100, Note_on_c, 13, 53, 91
20, 80159, Note_on_c, 13, 53, 0
20, 80160, Note_on_c, 13, 52, 91
20, 80279, Note_on_c, 13, 52, 0
20, 80280, Note_on_c, 13, 50, 91
20, 80399, Note_on_c, 13, 50, 0
20, 80400, Note_on_c, 13, 48, 91
20, 80639, Note_on_c, 13, 48, 0
20, 80640, Note_on_c, 13, 50, 91
20, 80759, Note_on_c, 13, 50, 0
20, 80760, Note_on_c, 13, 52, 91
20, 80879, Note_on_c, 13, 52, 0
20, 80880, Note_on_c, 13, 53, 91
20, 81119, Note_on_c, 13, 53, 0
20, 81480, Note_on_c, 13, 48, 91
20, 81599, Note_on_c, 13, 48, 0
20, 81600, Note_on_c, 13, 48, 91
20, 81719, Note_on_c, 13, 48, 0
20, 81720, Note_on_c, 13, 48, 91
20, 81839, Note_on_c, 13, 48, 0
20, 81840, Note_on_c, 13, 50, 91
20, 81899, Note_on_c, 13, 50, 0
20, 81900, Note_on_c, 13, 52, 91
20, 81959, Note_on_c, 13, 52, 0
20, 81960, Note_on_c, 13, 50, 91
20, 82019, Note_on_c, 13, 50, 0
20, 82020, Note_on_c, 13, 48, 91
20, 82079, Note_on_c, 13, 48, 0
20, 82080, Note_on_c, 13, 50, 91
20, 82139, Note_on_c, 13, 50, 0
20, 82140, Note_on_c, 13, 52, 91
20, 82199, Note_on_c, 13, 52, 0
20, 82200, Note_on_c, 13, 48, 91
20, 82259, Note_on_c, 13, 48, 0
20, 82260, Note_on_c, 13, 50, 91
20, 82319, Note_on_c, 13, 50, 0
20, 82320, Note_on_c, 13, 52, 91
20, 82379, Note_on_c, 13, 52, 0
20, 82380, Note_on_c, 13, 53, 91
20, 82439, Note_on_c, 13, 53, 0
20, 82440, Note_on_c, 13, 52, 91
20, 82499, Note_on_c, 13, 52, 0
20, 82500, Note_on_c, 13, 50, 91
20, 82559, Note_on_c, 13, 50, 0
20, 82560, Note_on_c, 13, 52, 91
20, 82619, Note_on_c, 13, 52, 0
20, 82620, Note_on_c, 13, 53, 91
20, 82679, Note_on_c, 13, 53, 0
20, 82680, Note_on_c, 13, 50, 91
20, 82739, Note_on_c, 13, 50, 0
20, 82740, Note_on_c, 13, 52, 91
20, 82799, Note_on_c, 13, 52, 0
20, 82800, Note_on_c, 13, 53, 91
20, 82919, Note_on_c, 13, 53, 0
20, 82920, Note_on_c, 13, 55, 91
20, 82979, Note_on_c, 13, 55, 0
20, 82980, Note_on_c, 13, 53, 91
20, 83039, Note_on_c, 13, 53, 0
20, 83040, Note_on_c, 13, 52, 91
20, 83099, Note_on_c, 13, 52, 0
20, 83100, Note_on_c, 13, 50, 91
20, 83159, Note_on_c, 13, 50, 0
20, 83160, Note_on_c, 13, 48, 91
20, 83219, Note_on_c, 13, 48, 0
20, 83220, Note_on_c, 13, 46, 91
20, 83279, Note_on_c, 13, 46, 0
20, 83280, Note_on_c, 13, 45, 91
20, 83399, Note_on_c, 13, 45, 0
20, 83400, Note_on_c, 13, 48, 91
20, 83519, Note_on_c, 13, 48, 0
20, 83520, Note_on_c, 13, 53, 91
20, 83639, Note_on_c, 13, 53, 0
20, 83640, Note_on_c, 13, 51, 91
20, 83759, Note_on_c, 13, 51, 0
20, 83760, Note_on_c, 13, 50, 91
20, 83879, Note_on_c, 13, 50, 0
20, 83880, Note_on_c, 13, 60, 91
20, 84119, Note_on_c, 13, 60, 0
20, 84120, Note_on_c, 13, 58, 91
20, 84179, Note_on_c, 13, 58, 0
20, 84180, Note_on_c, 13, 57, 91
20, 84239, Note_on_c, 13, 57, 0
20, 84240, Note_on_c, 13, 55, 91
20, 84299, Note_on_c, 13, 55, 0
20, 84300, Note_on_c, 13, 53, 91
20, 84359, Note_on_c, 13, 53, 0
20, 84360, Note_on_c, 13, 51, 91
20, 84419, Note_on_c, 13, 51, 0
20, 84420, Note_on_c, 13, 50, 91
20, 84479, Note_on_c, 13, 50, 0
20, 84480, Note_on_c, 13, 48, 91
20, 84539, Note_on_c, 13, 48, 0
20, 84540, Note_on_c, 13, 50, 91
20, 84599, Note_on_c, 13, 50, 0
20, 84600, Note_on_c, 13, 46, 91
20, 84659, Note_on_c, 13, 46, 0
20, 84660, Note_on_c, 13, 48, 91
20, 84719, Note_on_c, 13, 48, 0
20, 84720, Note_on_c, 13, 50, 91
20, 85199, Note_on_c, 13, 50, 0
20, 85200, Note_on_c, 13, 43, 91
20, 85439, Note_on_c, 13, 43, 0
20, 87120, Note_on_c, 13, 55, 91
20, 87599, Note_on_c, 13, 55, 0
20, 87600, Note_on_c, 13, 51, 91
20, 87839, Note_on_c, 13, 51, 0
20, 87840, Note_on_c, 13, 56, 91
20, 88079, Note_on_c, 13, 56, 0
20, 88080, Note_on_c, 13, 47, 91
20, 88559, Note_on_c, 13, 47, 0
20, 88560, Note_on_c, 13, 48, 91
20, 88799, Note_on_c, 13, 48, 0
20, 88800, Note_on_c, 13, 48, 91
20, 88919, Note_on_c, 13, 48, 0
20, 88920, Note_on_c, 13, 48, 91
20, 89039, Note_on_c, 13, 48, 0
20, 89040, Note_on_c, 13, 50, 91
20, 89399, Note_on_c, 13, 50, 0
20, 89400, Note_on_c, 13, 48, 91
20, 89459, Note_on_c, 13, 48, 0
20, 89460, Note_on_c, 13, 50, 91
20, 89519, Note_on_c, 13, 50, 0
20, 89520, Note_on_c, 13, 51, 91
20, 89639, Note_on_c, 13, 51, 0
20, 89640, Note_on_c, 13, 50, 91
20, 89699, Note_on_c, 13, 50, 0
20, 89700, Note_on_c, 13, 51, 91
20, 89759, Note_on_c, 13, 51, 0
20, 89760, Note_on_c, 13, 53, 91
20, 89879, Note_on_c, 13, 53, 0
20, 89880, Note_on_c, 13, 51, 91
20, 89939, Note_on_c, 13, 51, 0
20, 89940, Note_on_c, 13, 53, 91
20, 89999, Note_on_c, 13, 53, 0
20, 90000, Note_on_c, 13, 55, 91
20, 90119, Note_on_c, 13, 55, 0
20, 90120, Note_on_c, 13, 53, 91
20, 90239, Note_on_c, 13, 53, 0
20, 90240, Note_on_c, 13, 51, 91
20, 90359, Note_on_c, 13, 51, 0
20, 90360, Note_on_c, 13, 50, 91
20, 90479, Note_on_c, 13, 50, 0
20, 90480, Note_on_c, 13, 48, 91
20, 90599, Note_on_c, 13, 48, 0
20, 90600, Note_on_c, 13, 50, 91
20, 90659, Note_on_c, 13, 50, 0
20, 90660, Note_on_c, 13, 51, 91
20, 90719, Note_on_c, 13, 51, 0
20, 90720, Note_on_c, 13, 53, 91
20, 91079, Note_on_c, 13, 53, 0
20, 91080, Note_on_c, 13, 51, 91
20, 91199, Note_on_c, 13, 51, 0
20, 91200, Note_on_c, 13, 50, 91
20, 91319, Note_on_c, 13, 50, 0
20, 91320, Note_on_c, 13, 48, 91
20, 91439, Note_on_c, 13, 48, 0
20, 91440, Note_on_c, 13, 46, 91
20, 91559, Note_on_c, 13, 46, 0
20, 91560, Note_on_c, 13, 55, 91
20, 91619, Note_on_c, 13, 55, 0
20, 91620, Note_on_c, 13, 53, 91
20, 91679, Note_on_c, 13, 53, 0
20, 91680, Note_on_c, 13, 51, 91
20, 91739, Note_on_c, 13, 51, 0
20, 91740, Note_on_c, 13, 48, 91
20, 91799, Note_on_c, 13, 48, 0
20, 91800, Note_on_c, 13, 50, 91
20, 91859, Note_on_c, 13, 50, 0
20, 91860, Note_on_c, 13, 51, 91
20, 91919, Note_on_c, 13, 51, 0
20, 91920, Note_on_c, 13, 53, 91
20, 92159, Note_on_c, 13, 53, 0
20, 92880, Note_on_c, 13, 53, 91
20, 93359, Note_on_c, 13, 53, 0
20, 93360, Note_on_c, 13, 50, 91
20, 93599, Note_on_c, 13, 50, 0
20, 93600, Note_on_c, 13, 55, 91
20, 93839, Note_on_c, 13, 55, 0
20, 93840, Note_on_c, 13, 45, 91
20, 94319, Note_on_c, 13, 45, 0
20, 94320, Note_on_c, 13, 46, 91
20, 94559, Note_on_c, 13, 46, 0
20, 94560, Note_on_c, 13, 46, 91
20, 94679, Note_on_c, 13, 46, 0
20, 94680, Note_on_c, 13, 46, 91
20, 94799, Note_on_c, 13, 46, 0
20, 94800, Note_on_c, 13, 48, 91
20, 95159, Note_on_c, 13, 48, 0
20, 95160, Note_on_c, 13, 46, 91
20, 95219, Note_on_c, 13, 46, 0
20, 95220, Note_on_c, 13, 48, 91
20, 95279, Note_on_c, 13, 48, 0
20, 95280, Note_on_c, 13, 50, 91
20, 95399, Note_on_c, 13, 50, 0
20, 95400, Note_on_c, 13, 58, 91
20, 95459, Note_on_c, 13, 58, 0
20, 95460, Note_on_c, 13, 57, 91
20, 95519, Note_on_c, 13, 57, 0
20, 95520, Note_on_c, 13, 55, 91
20, 95639, Note_on_c, 13, 55, 0
20, 95640, Note_on_c, 13, 53, 91
20, 95759, Note_on_c, 13, 53, 0
20, 95760, Note_on_c, 13, 52, 91
20, 95879, Note_on_c, 13, 52, 0
20, 95880, Note_on_c, 13, 55, 91
20, 95999, Note_on_c, 13, 55, 0
20, 96000, Note_on_c, 13, 48, 91
20, 96239, Note_on_c, 13, 48, 0
20, 96840, Note_on_c, 13, 48, 91
20, 96959, Note_on_c, 13, 48, 0
20, 96960, Note_on_c, 13, 48, 91
20, 97079, Note_on_c, 13, 48, 0
20, 97080, Note_on_c, 13, 48, 91
20, 97199, Note_on_c, 13, 48, 0
20, 97200, Note_on_c, 13, 49, 91
20, 97259, Note_on_c, 13, 49, 0
20, 97260, Note_on_c, 13, 51, 91
20, 97319, Note_on_c, 13, 51, 0
20, 97320, Note_on_c, 13, 49, 91
20, 97379, Note_on_c, 13, 49, 0
20, 97380, Note_on_c, 13, 48, 91
20, 97439, Note_on_c, 13, 48, 0
20, 97440, Note_on_c, 13, 50, 91
20, 97499, Note_on_c, 13, 50, 0
20, 97500, Note_on_c, 13, 51, 91
20, 97559, Note_on_c, 13, 51, 0
20, 97560, Note_on_c, 13, 48, 91
20, 97619, Note_on_c, 13, 48, 0
20, 97620, Note_on_c, 13, 50, 91
20, 97679, Note_on_c, 13, 50, 0
20, 97680, Note_on_c, 13, 51, 91
20, 97739, Note_on_c, 13, 51, 0
20, 97740, Note_on_c, 13, 53, 91
20, 97799, Note_on_c, 13, 53, 0
20, 97800, Note_on_c, 13, 51, 91
20, 97859, Note_on_c, 13, 51, 0
20, 97860, Note_on_c, 13, 50, 91
20, 97919, Note_on_c, 13, 50, 0
20, 97920, Note_on_c, 13, 52, 91
20, 97979, Note_on_c, 13, 52, 0
20, 97980, Note_on_c, 13, 53, 91
20, 98039, Note_on_c, 13, 53, 0
20, 98040, Note_on_c, 13, 50, 91
20, 98099, Note_on_c, 13, 50, 0
20, 98100, Note_on_c, 13, 52, 91
20, 98159, Note_on_c, 13, 52, 0
20, 98160, Note_on_c, 13, 53, 91
20, 98279, Note_on_c, 13, 53, 0
20, 98280, Note_on_c, 13, 48, 91
20, 98399, Note_on_c, 13, 48, 0
20, 98400, Note_on_c, 13, 53, 91
20, 98519, Note_on_c, 13, 53, 0
20, 98520, Note_on_c, 13, 51, 91
20, 98639, Note_on_c, 13, 51, 0
20, 98640, Note_on_c, 13, 50, 91
20, 98759, Note_on_c, 13, 50, 0
20, 98760, Note_on_c, 13, 43, 91
20, 98879, Note_on_c, 13, 43, 0
20, 98880, Note_on_c, 13, 55, 91
20, 98999, Note_on_c, 13, 55, 0
20, 99000, Note_on_c, 13, 53, 91
20, 99119, Note_on_c, 13, 53, 0
20, 99120, Note_on_c, 13, 51, 91
20, 99359, Note_on_c, 13, 51, 0
20, 100680, Note_on_c, 13, 52, 91
20, 100799, Note_on_c, 13, 52, 0
20, 100800, Note_on_c, 13, 52, 91
20, 100919, Note_on_c, 13, 52, 0
20, 100920, Note_on_c, 13, 52, 91
20, 101039, Note_on_c, 13, 52, 0
20, 101040, Note_on_c, 13, 53, 91
20, 101099, Note_on_c, 13, 53, 0
20, 101100, Note_on_c, 13, 55, 91
20, 101159, Note_on_c, 13, 55, 0
20, 101160, Note_on_c, 13, 53, 91
20, 101219, Note_on_c, 13, 53, 0
20, 101220, Note_on_c, 13, 52, 91
20, 101279, Note_on_c, 13, 52, 0
20, 101280, Note_on_c, 13, 54, 91
20, 101339, Note_on_c, 13, 54, 0
20, 101340, Note_on_c, 13, 55, 91
20, 101399, Note_on_c, 13, 55, 0
20, 101400, Note_on_c, 13, 52, 91
20, 101459, Note_on_c, 13, 52, 0
20, 101460, Note_on_c, 13, 54, 91
20, 101519, Note_on_c, 13, 54, 0
20, 101520, Note_on_c, 13, 55, 91
20, 101579, Note_on_c, 13, 55, 0
20, 101580, Note_on_c, 13, 57, 91
20, 101639, Note_on_c, 13, 57, 0
20, 101640, Note_on_c, 13, 55, 91
20, 101699, Note_on_c, 13, 55, 0
20, 101700, Note_on_c, 13, 54, 91
20, 101759, Note_on_c, 13, 54, 0
20, 101760, Note_on_c, 13, 56, 91
20, 101819, Note_on_c, 13, 56, 0
20, 101820, Note_on_c, 13, 57, 91
20, 101879, Note_on_c, 13, 57, 0
20, 101880, Note_on_c, 13, 54, 91
20, 101939, Note_on_c, 13, 54, 0
20, 101940, Note_on_c, 13, 56, 91
20, 101999, Note_on_c, 13, 56, 0
20, 102000, Note_on_c, 13, 57, 91
20, 102239, Note_on_c, 13, 57, 0
20, 102240, Note_on_c, 13, 57, 91
20, 102479, Note_on_c, 13, 57, 0
20, 102480, Note_on_c, 13, 53, 91
20, 102719, Note_on_c, 13, 53, 0
20, 102720, Note_on_c, 13, 58, 91
20, 102959, Note_on_c, 13, 58, 0
20, 102960, Note_on_c, 13, 49, 91
20, 103439, Note_on_c, 13, 49, 0
20, 103440, Note_on_c, 13, 50, 91
20, 103679, Note_on_c, 13, 50, 0
20, 103680, Note_on_c, 13, 50, 91
20, 103799, Note_on_c, 13, 50, 0
20, 103800, Note_on_c, 13, 50, 91
20, 103919, Note_on_c, 13, 50, 0
20, 103920, Note_on_c, 13, 52, 91
20, 104279, Note_on_c, 13, 52, 0
20, 104280, Note_on_c, 13, 50, 91
20, 104339, Note_on_c, 13, 50, 0
20, 104340, Note_on_c, 13, 52, 91
20, 104399, Note_on_c, 13, 52, 0
20, 104400, Note_on_c, 13, 53, 91
20, 104519, Note_on_c, 13, 53, 0
20, 104520, Note_on_c, 13, 52, 91
20, 104579, Note_on_c, 13, 52, 0
20, 104580, Note_on_c, 13, 53, 91
20, 104639, Note_on_c, 13, 53, 0
20, 104640, Note_on_c, 13, 55, 91
20, 104759, Note_on_c, 13, 55, 0
20, 104760, Note_on_c, 13, 53, 91
20, 104819, Note_on_c, 13, 53, 0
20, 104820, Note_on_c, 13, 55, 91
20, 104879, Note_on_c, 13, 55, 0
20, 104880, Note_on_c, 13, 57, 91
20, 104999, Note_on_c, 13, 57, 0
20, 105000, Note_on_c, 13, 58, 91
20, 105059, Note_on_c, 13, 58, 0
20, 105060, Note_on_c, 13, 57, 91
20, 105119, Note_on_c, 13, 57, 0
20, 105120, Note_on_c, 13, 55, 91
20, 105179, Note_on_c, 13, 55, 0
20, 105180, Note_on_c, 13, 53, 91
20, 105239, Note_on_c, 13, 53, 0
20, 105240, Note_on_c, 13, 52, 91
20, 105299, Note_on_c, 13, 52, 0
20, 105300, Note_on_c, 13, 50, 91
20, 105359, Note_on_c, 13, 50, 0
20, 105360, Note_on_c, 13, 49, 91
20, 105479, Note_on_c, 13, 49, 0
20, 105480, Note_on_c, 13, 49, 91
20, 105599, Note_on_c, 13, 49, 0
20, 105600, Note_on_c, 13, 50, 91
20, 105719, Note_on_c, 13, 50, 0
20, 105720, Note_on_c, 13, 57, 91
20, 105839, Note_on_c, 13, 57, 0
20, 105840, Note_on_c, 13, 58, 91
20, 106319, Note_on_c, 13, 58, 0
20, 106320, Note_on_c, 13, 57, 91
20, 106559, Note_on_c, 13, 57, 0
20, 107400, Note_on_c, 13, 45, 91
20, 107519, Note_on_c, 13, 45, 0
20, 107520, Note_on_c, 13, 45, 91
20, 107639, Note_on_c, 13, 45, 0
20, 107640, Note_on_c, 13, 45, 91
20, 107759, Note_on_c, 13, 45, 0
20, 107760, Note_on_c, 13, 46, 91
20, 107819, Note_on_c, 13, 46, 0
20, 107820, Note_on_c, 13, 48, 91
20, 107879, Note_on_c, 13, 48, 0
20, 107880, Note_on_c, 13, 46, 91
20, 107939, Note_on_c, 13, 46, 0
20, 107940, Note_on_c, 13, 45, 91
20, 107999, Note_on_c, 13, 45, 0
20, 108000, Note_on_c, 13, 47, 91
20, 108059, Note_on_c, 13, 47, 0
20, 108060, Note_on_c, 13, 48, 91
20, 108119, Note_on_c, 13, 48, 0
20, 108120, Note_on_c, 13, 45, 91
20, 108179, Note_on_c, 13, 45, 0
20, 108180, Note_on_c, 13, 47, 91
20, 108239, Note_on_c, 13, 47, 0
20, 108240, Note_on_c, 13, 48, 91
20, 108299, Note_on_c, 13, 48, 0
20, 108300, Note_on_c, 13, 50, 91
20, 108359, Note_on_c, 13, 50, 0
20, 108360, Note_on_c, 13, 48, 91
20, 108419, Note_on_c, 13, 48, 0
20, 108420, Note_on_c, 13, 47, 91
20, 108479, Note_on_c, 13, 47, 0
20, 108480, Note_on_c, 13, 49, 91
20, 108539, Note_on_c, 13, 49, 0
20, 108540, Note_on_c, 13, 50, 91
20, 108599, Note_on_c, 13, 50, 0
20, 108600, Note_on_c, 13, 47, 91
20, 108659, Note_on_c, 13, 47, 0
20, 108660, Note_on_c, 13, 49, 91
20, 108719, Note_on_c, 13, 49, 0
20, 108720, Note_on_c, 13, 50, 91
20, 108839, Note_on_c, 13, 50, 0
20, 108840, Note_on_c, 13, 50, 91
20, 108959, Note_on_c, 13, 50, 0
20, 108960, Note_on_c, 13, 55, 91
20, 109079, Note_on_c, 13, 55, 0
20, 109080, Note_on_c, 13, 53, 91
20, 109199, Note_on_c, 13, 53, 0
20, 109200, Note_on_c, 13, 52, 91
20, 109319, Note_on_c, 13, 52, 0
20, 109320, Note_on_c, 13, 52, 91
20, 109439, Note_on_c, 13, 52, 0
20, 109440, Note_on_c, 13, 57, 91
20, 109559, Note_on_c, 13, 57, 0
20, 109560, Note_on_c, 13, 55, 91
20, 109679, Note_on_c, 13, 55, 0
20, 109680, Note_on_c, 13, 53, 91
20, 109919, Note_on_c, 13, 53, 0
20, 110520, Note_on_c, 13, 52, 91
20, 110639, Note_on_c, 13, 52, 0
20, 110640, Note_on_c, 13, 57, 91
20, 110759, Note_on_c, 13, 57, 0
20, 110760, Note_on_c, 13, 48, 91
20, 110879, Note_on_c, 13, 48, 0
20, 110880, Note_on_c, 13, 50, 91
20, 110999, Note_on_c, 13, 50, 0
20, 111000, Note_on_c, 13, 48, 91
20, 111119, Note_on_c, 13, 48, 0
20, 111120, Note_on_c, 13, 47, 91
20, 111239, Note_on_c, 13, 47, 0
20, 111240, Note_on_c, 13, 47, 91
20, 111359, Note_on_c, 13, 47, 0
20, 111360, Note_on_c, 13, 52, 91
20, 111479, Note_on_c, 13, 52, 0
20, 111480, Note_on_c, 13, 50, 91
20, 111599, Note_on_c, 13, 50, 0
20, 111600, Note_on_c, 13, 49, 91
20, 111719, Note_on_c, 13, 49, 0
20, 111720, Note_on_c, 13, 57, 91
20, 111839, Note_on_c, 13, 57, 0
20, 111840, Note_on_c, 13, 58, 91
20, 111959, Note_on_c, 13, 58, 0
20, 111960, Note_on_c, 13, 55, 91
20, 112079, Note_on_c, 13, 55, 0
20, 112080, Note_on_c, 13, 57, 91
20, 112559, Note_on_c, 13, 57, 0
20, 112560, Note_on_c, 13, 56, 91
20, 113039, Note_on_c, 13, 56, 0
20, 113280, Note_on_c, 13, 56, 91
20, 113459, Note_on_c, 13, 56, 0
20, 113460, Note_on_c, 13, 56, 91
20, 113519, Note_on_c, 13, 56, 0
20, 113520, Note_on_c, 13, 57, 91
20, 113759, Note_on_c, 13, 57, 0
20, 113760, Note_on_c, 13, 53, 91
20, 113879, Note_on_c, 13, 53, 0
20, 113880, Note_on_c, 13, 50, 91
20, 113999, Note_on_c, 13, 50, 0
20, 114000, Note_on_c, 13, 57, 91
20, 114359, Note_on_c, 13, 57, 0
20, 114360, Note_on_c, 13, 57, 91
20, 114479, Note_on_c, 13, 57, 0
20, 114480, Note_on_c, 13, 50, 91
20, 115439, Note_on_c, 13, 50, 0
20, 115439, End_track
21, 0, Start_track
21, 0, Title_t, "Timpani"
21, 0, MIDI_port, 0
21, 0, Control_c, 14, 7, 96
21, 0, Control_c, 14, 10, 25
21, 0, Control_c, 14, 11, 127
21, 0, Program_c, 14, 47
21, 0, Note_on_c, 14, 50, 72
21, 239, Note_on_c, 14, 50, 0
21, 720, Note_on_c, 14, 50, 72
21, 959, Note_on_c, 14, 50, 0
21, 2160, Note_on_c, 14, 50, 72
21, 2399, Note_on_c, 14, 50, 0
21, 3600, Note_on_c, 14, 50, 72
21, 3839, Note_on_c, 14, 50, 0
21, 4320, Note_on_c, 14, 50, 72
21, 4559, Note_on_c, 14, 50, 0
21, 5040, Note_on_c, 14, 50, 84
21, 5099, Note_on_c, 14, 50, 0
21, 5100, Note_on_c, 14, 50, 84
21, 5159, Note_on_c, 14, 50, 0
21, 5160, Note_on_c, 14, 50, 84
21, 5219, Note_on_c, 14, 50, 0
21, 5220, Note_on_c, 14, 50, 84
21, 5279, Note_on_c, 14, 50, 0
21, 5280, Note_on_c, 14, 50, 84
21, 5309, Note_on_c, 14, 50, 0
21, 5310, Note_on_c, 14, 50, 84
21, 5339, Note_on_c, 14, 50, 0
21, 5340, Note_on_c, 14, 50, 84
21, 5369, Note_on_c, 14, 50, 0
21, 5370, Note_on_c, 14, 50, 84
21, 5399, Note_on_c, 14, 50, 0
21, 5400, Note_on_c, 14, 50, 84
21, 5429, Note_on_c, 14, 50, 0
21, 5430, Note_on_c, 14, 50, 84
21, 5459, Note_on_c, 14, 50, 0
21, 5460, Note_on_c, 14, 50, 84
21, 5489, Note_on_c, 14, 50, 0
21, 5490, Note_on_c, 14, 50, 84
21, 5519, Note_on_c, 14, 50, 0
21, 5520, Note_on_c, 14, 50, 84
21, 5549, Note_on_c, 14, 50, 0
21, 5550, Note_on_c, 14, 50, 84
21, 5579, Note_on_c, 14, 50, 0
21, 5580, Note_on_c, 14, 50, 84
21, 5609, Note_on_c, 14, 50, 0
21, 5610, Note_on_c, 14, 50, 84
21, 5639, Note_on_c, 14, 50, 0
21, 5640, Note_on_c, 14, 50, 84
21, 5669, Note_on_c, 14, 50, 0
21, 5670, Note_on_c, 14, 50, 84
21, 5699, Note_on_c, 14, 50, 0
21, 5700, Note_on_c, 14, 50, 84
21, 5729, Note_on_c, 14, 50, 0
21, 5730, Note_on_c, 14, 50, 84
21, 5759, Note_on_c, 14, 50, 0
21, 5760, Note_on_c, 14, 45, 84
21, 5879, Note_on_c, 14, 45, 0
21, 5880, Note_on_c, 14, 45, 84
21, 5909, Note_on_c, 14, 45, 0
21, 5910, Note_on_c, 14, 45, 84
21, 5939, Note_on_c, 14, 45, 0
21, 5940, Note_on_c, 14, 45, 84
21, 5969, Note_on_c, 14, 45, 0
21, 5970, Note_on_c, 14, 45, 84
21, 5999, Note_on_c, 14, 45, 0
21, 6000, Note_on_c, 14, 45, 84
21, 6239, Note_on_c, 14, 45, 0
21, 59880, Note_on_c, 14, 50, 72
21, 59999, Note_on_c, 14, 50, 0
21, 60000, Note_on_c, 14, 50, 72
21, 60119, Note_on_c, 14, 50, 0
21, 60120, Note_on_c, 14, 50, 72
21, 60239, Note_on_c, 14, 50, 0
21, 60240, Note_on_c, 14, 50, 72
21, 60479, Note_on_c, 14, 50, 0
21, 60840, Note_on_c, 14, 45, 72
21, 60959, Note_on_c, 14, 45, 0
21, 60960, Note_on_c, 14, 45, 72
21, 61079, Note_on_c, 14, 45, 0
21, 61080, Note_on_c, 14, 45, 72
21, 61199, Note_on_c, 14, 45, 0
21, 61200, Note_on_c, 14, 45, 72
21, 61439, Note_on_c, 14, 45, 0
21, 61680, Note_on_c, 14, 50, 72
21, 61919, Note_on_c, 14, 50, 0
21, 61920, Note_on_c, 14, 50, 72
21, 62099, Note_on_c, 14, 50, 0
21, 62100, Note_on_c, 14, 50, 72
21, 62159, Note_on_c, 14, 50, 0
21, 62160, Note_on_c, 14, 50, 72
21, 62399, Note_on_c, 14, 50, 0
21, 62520, Note_on_c, 14, 50, 72
21, 62639, Note_on_c, 14, 50, 0
21, 62640, Note_on_c, 14, 45, 72
21, 62759, Note_on_c, 14, 45, 0
21, 62760, Note_on_c, 14, 45, 72
21, 62879, Note_on_c, 14, 45, 0
21, 64560, Note_on_c, 14, 45, 48
21, 64679, Note_on_c, 14, 45, 0
21, 64680, Note_on_c, 14, 45, 48
21, 64739, Note_on_c, 14, 45, 0
21, 64740, Note_on_c, 14, 45, 48
21, 64799, Note_on_c, 14, 45, 0
21, 64800, Note_on_c, 14, 45, 48
21, 64919, Note_on_c, 14, 45, 0
21, 64920, Note_on_c, 14, 45, 48
21, 65039, Note_on_c, 14, 45, 0
21, 65040, Note_on_c, 14, 45, 48
21, 65519, Note_on_c, 14, 45, 0
21, 72240, Note_on_c, 14, 45, 72
21, 72359, Note_on_c, 14, 45, 0
21, 72360, Note_on_c, 14, 45, 72
21, 72419, Note_on_c, 14, 45, 0
21, 72420, Note_on_c, 14, 45, 72
21, 72479, Note_on_c, 14, 45, 0
21, 72480, Note_on_c, 14, 45, 72
21, 72599, Note_on_c, 14, 45, 0
21, 72600, Note_on_c, 14, 45, 72
21, 72719, Note_on_c, 14, 45, 0
21, 72720, Note_on_c, 14, 50, 72
21, 72959, Note_on_c, 14, 50, 0
21, 75240, Note_on_c, 14, 45, 72
21, 75359, Note_on_c, 14, 45, 0
21, 75360, Note_on_c, 14, 45, 72
21, 75479, Note_on_c, 14, 45, 0
21, 75480, Note_on_c, 14, 45, 72
21, 75599, Note_on_c, 14, 45, 0
21, 75600, Note_on_c, 14, 50, 72
21, 75839, Note_on_c, 14, 50, 0
21, 83760, Note_on_c, 14, 50, 72
21, 83999, Note_on_c, 14, 50, 0
21, 102120, Note_on_c, 14, 45, 72
21, 102239, Note_on_c, 14, 45, 0
21, 102240, Note_on_c, 14, 45, 72
21, 102359, Note_on_c, 14, 45, 0
21, 102360, Note_on_c, 14, 45, 72
21, 102479, Note_on_c, 14, 45, 0
21, 102480, Note_on_c, 14, 50, 72
21, 102719, Note_on_c, 14, 50, 0
21, 105480, Note_on_c, 14, 45, 72
21, 105599, Note_on_c, 14, 45, 0
21, 105600, Note_on_c, 14, 50, 72
21, 105719, Note_on_c, 14, 50, 0
21, 105720, Note_on_c, 14, 45, 72
21, 105839, Note_on_c, 14, 45, 0
21, 105840, Note_on_c, 14, 50, 72
21, 105959, Note_on_c, 14, 50, 0
21, 105960, Note_on_c, 14, 50, 72
21, 106019, Note_on_c, 14, 50, 0
21, 106020, Note_on_c, 14, 50, 72
21, 106079, Note_on_c, 14, 50, 0
21, 106080, Note_on_c, 14, 50, 72
21, 106199, Note_on_c, 14, 50, 0
21, 106200, Note_on_c, 14, 50, 72
21, 106319, Note_on_c, 14, 50, 0
21, 106320, Note_on_c, 14, 45, 72
21, 106559, Note_on_c, 14, 45, 0
21, 111600, Note_on_c, 14, 45, 72
21, 111839, Note_on_c, 14, 45, 0
21, 111840, Note_on_c, 14, 50, 72
21, 111959, Note_on_c, 14, 50, 0
21, 111960, Note_on_c, 14, 50, 72
21, 112079, Note_on_c, 14, 50, 0
21, 112080, Note_on_c, 14, 45, 72
21, 112199, Note_on_c, 14, 45, 0
21, 112200, Note_on_c, 14, 45, 72
21, 112259, Note_on_c, 14, 45, 0
21, 112260, Note_on_c, 14, 45, 72
21, 112319, Note_on_c, 14, 45, 0
21, 112320, Note_on_c, 14, 45, 72
21, 112439, Note_on_c, 14, 45, 0
21, 112440, Note_on_c, 14, 45, 72
21, 112559, Note_on_c, 14, 45, 0
21, 112560, Note_on_c, 14, 50, 72
21, 113039, Note_on_c, 14, 50, 0
21, 113520, Note_on_c, 14, 45, 72
21, 113759, Note_on_c, 14, 45, 0
21, 113760, Note_on_c, 14, 50, 72
21, 113879, Note_on_c, 14, 50, 0
21, 113880, Note_on_c, 14, 50, 72
21, 113999, Note_on_c, 14, 50, 0
21, 114000, Note_on_c, 14, 45, 72
21, 114119, Note_on_c, 14, 45, 0
21, 114120, Note_on_c, 14, 45, 72
21, 114179, Note_on_c, 14, 45, 0
21, 114180, Note_on_c, 14, 45, 72
21, 114239, Note_on_c, 14, 45, 0
21, 114240, Note_on_c, 14, 45, 72
21, 114299, Note_on_c, 14, 45, 0
21, 114300, Note_on_c, 14, 45, 72
21, 114359, Note_on_c, 14, 45, 0
21, 114360, Note_on_c, 14, 45, 72
21, 114419, Note_on_c, 14, 45, 0
21, 114420, Note_on_c, 14, 45, 72
21, 114479, Note_on_c, 14, 45, 0
21, 114480, Note_on_c, 14, 50, 72
21, 115439, Note_on_c, 14, 50, 0
21, 115439, End_track
22, 0, Start_track
22, 0, Title_t, "Organ"
22, 0, MIDI_port, 0
22, 0, Control_c, 15, 7, 96
22, 0, Control_c, 15, 10, 64
22, 0, Control_c, 15, 11, 127
22, 0, Program_c, 15, 19
22, 0, Note_on_c, 15, 50, 66
22, 119, Note_on_c, 15, 50, 0
22, 120, Note_on_c, 15, 50, 66
22, 239, Note_on_c, 15, 50, 0
22, 240, Note_on_c, 15, 50, 48
22, 359, Note_on_c, 15, 50, 0
22, 360, Note_on_c, 15, 50, 48
22, 479, Note_on_c, 15, 50, 0
22, 480, Note_on_c, 15, 50, 48
22, 599, Note_on_c, 15, 50, 0
22, 600, Note_on_c, 15, 50, 48
22, 719, Note_on_c, 15, 50, 0
22, 720, Note_on_c, 15, 50, 66
22, 839, Note_on_c, 15, 50, 0
22, 840, Note_on_c, 15, 50, 66
22, 959, Note_on_c, 15, 50, 0
22, 960, Note_on_c, 15, 50, 48
22, 1079, Note_on_c, 15, 50, 0
22, 1080, Note_on_c, 15, 50, 48
22, 1199, Note_on_c, 15, 50, 0
22, 1200, Note_on_c, 15, 50, 48
22, 1319, Note_on_c, 15, 50, 0
22, 1320, Note_on_c, 15, 50, 48
22, 1439, Note_on_c, 15, 50, 0
22, 1440, Note_on_c, 15, 49, 66
22, 1559, Note_on_c, 15, 49, 0
22, 1560, Note_on_c, 15, 49, 66
22, 1679, Note_on_c, 15, 49, 0
22, 1680, Note_on_c, 15, 49, 48
22, 1799, Note_on_c, 15, 49, 0
22, 1800, Note_on_c, 15, 49, 48
22, 1919, Note_on_c, 15, 49, 0
22, 1920, Note_on_c, 15, 49, 48
22, 2039, Note_on_c, 15, 49, 0
22, 2040, Note_on_c, 15, 49, 48
22, 2159, Note_on_c, 15, 49, 0
22, 2160, Note_on_c, 15, 50, 66
22, 2279, Note_on_c, 15, 50, 0
22, 2280, Note_on_c, 15, 50, 66
22, 2399, Note_on_c, 15, 50, 0
22, 2400, Note_on_c, 15, 50, 48
22, 2519, Note_on_c, 15, 50, 0
22, 2520, Note_on_c, 15, 50, 48
22, 2639, Note_on_c, 15, 50, 0
22, 2640, Note_on_c, 15, 50, 48
22, 2759, Note_on_c, 15, 50, 0
22, 2760, Note_on_c, 15, 50, 48
22, 2879, Note_on_c, 15, 50, 0
22, 2880, Note_on_c, 15, 52, 66
22, 2999, Note_on_c, 15, 52, 0
22, 3000, Note_on_c, 15, 52, 66
22, 3119, Note_on_c, 15, 52, 0
22, 3120, Note_on_c, 15, 52, 48
22, 3239, Note_on_c, 15, 52, 0
22, 3240, Note_on_c, 15, 52, 48
22, 3359, Note_on_c, 15, 52, 0
22, 3360, Note_on_c, 15, 52, 48
22, 3479, Note_on_c, 15, 52, 0
22, 3480, Note_on_c, 15, 52, 48
22, 3599, Note_on_c, 15, 52, 0
22, 3600, Note_on_c, 15, 53, 66
22, 3719, Note_on_c, 15, 53, 0
22, 3720, Note_on_c, 15, 53, 66
22, 3839, Note_on_c, 15, 53, 0
22, 3840, Note_on_c, 15, 53, 48
22, 3959, Note_on_c, 15, 53, 0
22, 3960, Note_on_c, 15, 53, 48
22, 4079, Note_on_c, 15, 53, 0
22, 4080, Note_on_c, 15, 53, 48
22, 4199, Note_on_c, 15, 53, 0
22, 4200, Note_on_c, 15, 53, 48
22, 4319, Note_on_c, 15, 53, 0
22, 4320, Note_on_c, 15, 55, 66
22, 4439, Note_on_c, 15, 55, 0
22, 4440, Note_on_c, 15, 55, 66
22, 4559, Note_on_c, 15, 55, 0
22, 4560, Note_on_c, 15, 55, 48
22, 4679, Note_on_c, 15, 55, 0
22, 4680, Note_on_c, 15, 55, 48
22, 4799, Note_on_c, 15, 55, 0
22, 4800, Note_on_c, 15, 55, 48
22, 4919, Note_on_c, 15, 55, 0
22, 4920, Note_on_c, 15, 55, 48
22, 5039, Note_on_c, 15, 55, 0
22, 5040, Note_on_c, 15, 56, 84
22, 5159, Note_on_c, 15, 56, 0
22, 5160, Note_on_c, 15, 56, 84
22, 5279, Note_on_c, 15, 56, 0
22, 5280, Note_on_c, 15, 56, 84
22, 5399, Note_on_c, 15, 56, 0
22, 5400, Note_on_c, 15, 56, 84
22, 5519, Note_on_c, 15, 56, 0
22, 5520, Note_on_c, 15, 56, 84
22, 5639, Note_on_c, 15, 56, 0
22, 5640, Note_on_c, 15, 56, 84
22, 5759, Note_on_c, 15, 56, 0
22, 5760, Note_on_c, 15, 57, 84
22, 5999, Note_on_c, 15, 57, 0
22, 11520, Note_on_c, 15, 41, 72
22, 11639, Note_on_c, 15, 41, 0
22, 11640, Note_on_c, 15, 53, 48
22, 11759, Note_on_c, 15, 53, 0
22, 11760, Note_on_c, 15, 53, 48
22, 11879, Note_on_c, 15, 53, 0
22, 11880, Note_on_c, 15, 53, 48
22, 11999, Note_on_c, 15, 53, 0
22, 12000, Note_on_c, 15, 53, 48
22, 12119, Note_on_c, 15, 53, 0
22, 12120, Note_on_c, 15, 53, 48
22, 12239, Note_on_c, 15, 53, 0
22, 12240, Note_on_c, 15, 52, 72
22, 12359, Note_on_c, 15, 52, 0
22, 12360, Note_on_c, 15, 52, 72
22, 12479, Note_on_c, 15, 52, 0
22, 12480, Note_on_c, 15, 52, 48
22, 12599, Note_on_c, 15, 52, 0
22, 12600, Note_on_c, 15, 52, 48
22, 12719, Note_on_c, 15, 52, 0
22, 12720, Note_on_c, 15, 52, 48
22, 12839, Note_on_c, 15, 52, 0
22, 12840, Note_on_c, 15, 52, 48
22, 12959, Note_on_c, 15, 52, 0
22, 12960, Note_on_c, 15, 53, 72
22, 13079, Note_on_c, 15, 53, 0
22, 13080, Note_on_c, 15, 53, 72
22, 13199, Note_on_c, 15, 53, 0
22, 13200, Note_on_c, 15, 53, 48
22, 13319, Note_on_c, 15, 53, 0
22, 13320, Note_on_c, 15, 53, 48
22, 13439, Note_on_c, 15, 53, 0
22, 13440, Note_on_c, 15, 50, 48
22, 13559, Note_on_c, 15, 50, 0
22, 13560, Note_on_c, 15, 50, 48
22, 13679, Note_on_c, 15, 50, 0
22, 13680, Note_on_c, 15, 47, 72
22, 13799, Note_on_c, 15, 47, 0
22, 13800, Note_on_c, 15, 47, 72
22, 13919, Note_on_c, 15, 47, 0
22, 13920, Note_on_c, 15, 47, 48
22, 14039, Note_on_c, 15, 47, 0
22, 14040, Note_on_c, 15, 47, 48
22, 14159, Note_on_c, 15, 47, 0
22, 14160, Note_on_c, 15, 47, 48
22, 14279, Note_on_c, 15, 47, 0
22, 14280, Note_on_c, 15, 47, 48
22, 14399, Note_on_c, 15, 47, 0
22, 14400, Note_on_c, 15, 48, 72
22, 14519, Note_on_c, 15, 48, 0
22, 14520, Note_on_c, 15, 48, 72
22, 14639, Note_on_c, 15, 48, 0
22, 14640, Note_on_c, 15, 48, 48
22, 14759, Note_on_c, 15, 48, 0
22, 14760, Note_on_c, 15, 48, 48
22, 14879, Note_on_c, 15, 48, 0
22, 14880, Note_on_c, 15, 48, 48
22, 14999, Note_on_c, 15, 48, 0
22, 15000, Note_on_c, 15, 48, 48
22, 15119, Note_on_c, 15, 48, 0
22, 15120, Note_on_c, 15, 49, 72
22, 15239, Note_on_c, 15, 49, 0
22, 15240, Note_on_c, 15, 49, 72
22, 15359, Note_on_c, 15, 49, 0
22, 15360, Note_on_c, 15, 49, 48
22, 15479, Note_on_c, 15, 49, 0
22, 15480, Note_on_c, 15, 49, 48
22, 15599, Note_on_c, 15, 49, 0
22, 15600, Note_on_c, 15, 50, 48
22, 15719, Note_on_c, 15, 50, 0
22, 15720, Note_on_c, 15, 50, 48
22, 15839, Note_on_c, 15, 50, 0
22, 15840, Note_on_c, 15, 51, 84
22, 15959, Note_on_c, 15, 51, 0
22, 15960, Note_on_c, 15, 51, 84
22, 16079, Note_on_c, 15, 51, 0
22, 16080, Note_on_c, 15, 51, 84
22, 16199, Note_on_c, 15, 51, 0
22, 16200, Note_on_c, 15, 51, 84
22, 16319, Note_on_c, 15, 51, 0
22, 16320, Note_on_c, 15, 51, 84
22, 16439, Note_on_c, 15, 51, 0
22, 16440, Note_on_c, 15, 51, 84
22, 16559, Note_on_c, 15, 51, 0
22, 16560, Note_on_c, 15, 52, 84
22, 16799, Note_on_c, 15, 52, 0
22, 17280, Note_on_c, 15, 43, 48
22, 17519, Note_on_c, 15, 43, 0
22, 23760, Note_on_c, 15, 48, 72
22, 23879, Note_on_c, 15, 48, 0
22, 23880, Note_on_c, 15, 60, 72
22, 23999, Note_on_c, 15, 60, 0
22, 24000, Note_on_c, 15, 60, 72
22, 24119, Note_on_c, 15, 60, 0
22, 24120, Note_on_c, 15, 60, 72
22, 24239, Note_on_c, 15, 60, 0
22, 24240, Note_on_c, 15, 60, 72
22, 24359, Note_on_c, 15, 60, 0
22, 24360, Note_on_c, 15, 60, 72
22, 24479, Note_on_c, 15, 60, 0
22, 24480, Note_on_c, 15, 59, 72
22, 24599, Note_on_c, 15, 59, 0
22, 24600, Note_on_c, 15, 59, 72
22, 24719, Note_on_c, 15, 59, 0
22, 24720, Note_on_c, 15, 59, 72
22, 24839, Note_on_c, 15, 59, 0
22, 24840, Note_on_c, 15, 59, 72
22, 24959, Note_on_c, 15, 59, 0
22, 24960, Note_on_c, 15, 59, 72
22, 25079, Note_on_c, 15, 59, 0
22, 25080, Note_on_c, 15, 59, 72
22, 25199, Note_on_c, 15, 59, 0
22, 25200, Note_on_c, 15, 60, 72
22, 25319, Note_on_c, 15, 60, 0
22, 25320, Note_on_c, 15, 60, 72
22, 25439, Note_on_c, 15, 60, 0
22, 25440, Note_on_c, 15, 60, 72
22, 25559, Note_on_c, 15, 60, 0
22, 25560, Note_on_c, 15, 60, 72
22, 25679, Note_on_c, 15, 60, 0
22, 25680, Note_on_c, 15, 60, 72
22, 25799, Note_on_c, 15, 60, 0
22, 25800, Note_on_c, 15, 60, 72
22, 25919, Note_on_c, 15, 60, 0
22, 25920, Note_on_c, 15, 59, 72
22, 26039, Note_on_c, 15, 59, 0
22, 26040, Note_on_c, 15, 59, 72
22, 26159, Note_on_c, 15, 59, 0
22, 26160, Note_on_c, 15, 59, 72
22, 26279, Note_on_c, 15, 59, 0
22, 26280, Note_on_c, 15, 59, 72
22, 26399, Note_on_c, 15, 59, 0
22, 26400, Note_on_c, 15, 59, 72
22, 26519, Note_on_c, 15, 59, 0
22, 26520, Note_on_c, 15, 59, 72
22, 26639, Note_on_c, 15, 59, 0
22, 26640, Note_on_c, 15, 58, 72
22, 26759, Note_on_c, 15, 58, 0
22, 26760, Note_on_c, 15, 58, 72
22, 26879, Note_on_c, 15, 58, 0
22, 26880, Note_on_c, 15, 58, 72
22, 26999, Note_on_c, 15, 58, 0
22, 27000, Note_on_c, 15, 58, 72
22, 27119, Note_on_c, 15, 58, 0
22, 27120, Note_on_c, 15, 58, 72
22, 27239, Note_on_c, 15, 58, 0
22, 27240, Note_on_c, 15, 58, 72
22, 27359, Note_on_c, 15, 58, 0
22, 27360, Note_on_c, 15, 58, 72
22, 27479, Note_on_c, 15, 58, 0
22, 27480, Note_on_c, 15, 58, 72
22, 27599, Note_on_c, 15, 58, 0
22, 27600, Note_on_c, 15, 58, 72
22, 27719, Note_on_c, 15, 58, 0
22, 27720, Note_on_c, 15, 58, 72
22, 27839, Note_on_c, 15, 58, 0
22, 27840, Note_on_c, 15, 58, 72
22, 27959, Note_on_c, 15, 58, 0
22, 27960, Note_on_c, 15, 58, 72
22, 28079, Note_on_c, 15, 58, 0
22, 28080, Note_on_c, 15, 57, 72
22, 28199, Note_on_c, 15, 57, 0
22, 28200, Note_on_c, 15, 57, 72
22, 28319, Note_on_c, 15, 57, 0
22, 28320, Note_on_c, 15, 57, 72
22, 28439, Note_on_c, 15, 57, 0
22, 28440, Note_on_c, 15, 57, 72
22, 28559, Note_on_c, 15, 57, 0
22, 28560, Note_on_c, 15, 57, 72
22, 28679, Note_on_c, 15, 57, 0
22, 28680, Note_on_c, 15, 57, 72
22, 28799, Note_on_c, 15, 57, 0
22, 28800, Note_on_c, 15, 58, 72
22, 28919, Note_on_c, 15, 58, 0
22, 28920, Note_on_c, 15, 58, 72
22, 29039, Note_on_c, 15, 58, 0
22, 29040, Note_on_c, 15, 58, 48
22, 29159, Note_on_c, 15, 58, 0
22, 29160, Note_on_c, 15, 58, 48
22, 29279, Note_on_c, 15, 58, 0
22, 29280, Note_on_c, 15, 58, 48
22, 29399, Note_on_c, 15, 58, 0
22, 29400, Note_on_c, 15, 58, 48
22, 29519, Note_on_c, 15, 58, 0
22, 29520, Note_on_c, 15, 50, 48
22, 29639, Note_on_c, 15, 50, 0
22, 29640, Note_on_c, 15, 50, 48
22, 29759, Note_on_c, 15, 50, 0
22, 29760, Note_on_c, 15, 50, 48
22, 29879, Note_on_c, 15, 50, 0
22, 29880, Note_on_c, 15, 50, 48
22, 29999, Note_on_c, 15, 50, 0
22, 30000, Note_on_c, 15, 50, 48
22, 30119, Note_on_c, 15, 50, 0
22, 30120, Note_on_c, 15, 50, 48
22, 30239, Note_on_c, 15, 50, 0
22, 30240, Note_on_c, 15, 51, 48
22, 30359, Note_on_c, 15, 51, 0
22, 30360, Note_on_c, 15, 51, 48
22, 30479, Note_on_c, 15, 51, 0
22, 30480, Note_on_c, 15, 51, 48
22, 30599, Note_on_c, 15, 51, 0
22, 30600, Note_on_c, 15, 51, 48
22, 30719, Note_on_c, 15, 51, 0
22, 30720, Note_on_c, 15, 51, 48
22, 30839, Note_on_c, 15, 51, 0
22, 30840, Note_on_c, 15, 52, 48
22, 30959, Note_on_c, 15, 52, 0
22, 30960, Note_on_c, 15, 53, 48
22, 31079, Note_on_c, 15, 53, 0
22, 31080, Note_on_c, 15, 53, 48
22, 31199, Note_on_c, 15, 53, 0
22, 31200, Note_on_c, 15, 53, 48
22, 31319, Note_on_c, 15, 53, 0
22, 31320, Note_on_c, 15, 53, 48
22, 31439, Note_on_c, 15, 53, 0
22, 31440, Note_on_c, 15, 53, 48
22, 31559, Note_on_c, 15, 53, 0
22, 31560, Note_on_c, 15, 53, 48
22, 31679, Note_on_c, 15, 53, 0
22, 31680, Note_on_c, 15, 55, 48
22, 32399, Note_on_c, 15, 55, 0
22, 33360, Note_on_c, 15, 54, 48
22, 33479, Note_on_c, 15, 54, 0
22, 33480, Note_on_c, 15, 54, 48
22, 33599, Note_on_c, 15, 54, 0
22, 33600, Note_on_c, 15, 54, 48
22, 33719, Note_on_c, 15, 54, 0
22, 33720, Note_on_c, 15, 54, 48
22, 33839, Note_on_c, 15, 54, 0
22, 33840, Note_on_c, 15, 53, 48
22, 33959, Note_on_c, 15, 53, 0
22, 33960, Note_on_c, 15, 53, 51
22, 34079, Note_on_c, 15, 53, 0
22, 34080, Note_on_c, 15, 53, 54
22, 34199, Note_on_c, 15, 53, 0
22, 34200, Note_on_c, 15, 53, 54
22, 34319, Note_on_c, 15, 53, 0
22, 34320, Note_on_c, 15, 53, 57
22, 34439, Note_on_c, 15, 53, 0
22, 34440, Note_on_c, 15, 53, 57
22, 34559, Note_on_c, 15, 53, 0
22, 34560, Note_on_c, 15, 54, 60
22, 34679, Note_on_c, 15, 54, 0
22, 34680, Note_on_c, 15, 54, 63
22, 34799, Note_on_c, 15, 54, 0
22, 34800, Note_on_c, 15, 54, 63
22, 34919, Note_on_c, 15, 54, 0
22, 34920, Note_on_c, 15, 54, 66
22, 35039, Note_on_c, 15, 54, 0
22, 35040, Note_on_c, 15, 54, 66
22, 35159, Note_on_c, 15, 54, 0
22, 35160, Note_on_c, 15, 54, 69
22, 35279, Note_on_c, 15, 54, 0
22, 35280, Note_on_c, 15, 53, 72
22, 35399, Note_on_c, 15, 53, 0
22, 35400, Note_on_c, 15, 53, 72
22, 35519, Note_on_c, 15, 53, 0
22, 35520, Note_on_c, 15, 53, 72
22, 35639, Note_on_c, 15, 53, 0
22, 35640, Note_on_c, 15, 53, 72
22, 35759, Note_on_c, 15, 53, 0
22, 35760, Note_on_c, 15, 53, 72
22, 35879, Note_on_c, 15, 53, 0
22, 35880, Note_on_c, 15, 53, 72
22, 35999, Note_on_c, 15, 53, 0
22, 36000, Note_on_c, 15, 53, 72
22, 36719, Note_on_c, 15, 53, 0
22, 43770, Note_on_c, 15, 55, 72
22, 43770, Note_on_c, 15, 70, 72
22, 43770, Note_on_c, 15, 63, 72
22, 43770, Note_on_c, 15, 67, 72
22, 43799, Note_on_c, 15, 55, 0
22, 43800, Note_on_c, 15, 58, 72
22, 43889, Note_on_c, 15, 58, 0
22, 43890, Note_on_c, 15, 55, 72
22, 43919, Note_on_c, 15, 70, 0
22, 43919, Note_on_c, 15, 63, 0
22, 43919, Note_on_c, 15, 67, 0
22, 43919, Note_on_c, 15, 55, 0
22, 43920, Note_on_c, 15, 57, 72
22, 43920, Note_on_c, 15, 60, 72
22, 43920, Note_on_c, 15, 65, 72
22, 44159, Note_on_c, 15, 57, 0
22, 44159, Note_on_c, 15, 60, 0
22, 44159, Note_on_c, 15, 65, 0
22, 44250, Note_on_c, 15, 72, 72
22, 44250, Note_on_c, 15, 53, 72
22, 44250, Note_on_c, 15, 69, 72
22, 44250, Note_on_c, 15, 65, 72
22, 44279, Note_on_c, 15, 53, 0
22, 44280, Note_on_c, 15, 57, 72
22, 44369, Note_on_c, 15, 57, 0
22, 44370, Note_on_c, 15, 53, 72
22, 44399, Note_on_c, 15, 72, 0
22, 44399, Note_on_c, 15, 69, 0
22, 44399, Note_on_c, 15, 65, 0
22, 44399, Note_on_c, 15, 53, 0
22, 44400, Note_on_c, 15, 58, 72
22, 44639, Note_on_c, 15, 58, 0
22, 44730, Note_on_c, 15, 70, 72
22, 44730, Note_on_c, 15, 74, 72
22, 44730, Note_on_c, 15, 77, 72
22, 44730, Note_on_c, 15, 58, 72
22, 44759, Note_on_c, 15, 58, 0
22, 44760, Note_on_c, 15, 62, 72
22, 44849, Note_on_c, 15, 62, 0
22, 44850, Note_on_c, 15, 58, 72
22, 44879, Note_on_c, 15, 70, 0
22, 44879, Note_on_c, 15, 74, 0
22, 44879, Note_on_c, 15, 77, 0
22, 44879, Note_on_c, 15, 58, 0
22, 44880, Note_on_c, 15, 74, 72
22, 44880, Note_on_c, 15, 54, 72
22, 44880, Note_on_c, 15, 69, 72
22, 45119, Note_on_c, 15, 74, 0
22, 45119, Note_on_c, 15, 54, 0
22, 45119, Note_on_c, 15, 69, 0
22, 45210, Note_on_c, 15, 50, 72
22, 45210, Note_on_c, 15, 66, 72
22, 45210, Note_on_c, 15, 69, 72
22, 45210, Note_on_c, 15, 74, 72
22, 45239, Note_on_c, 15, 50, 0
22, 45240, Note_on_c, 15, 53, 72
22, 45329, Note_on_c, 15, 53, 0
22, 45330, Note_on_c, 15, 50, 72
22, 45359, Note_on_c, 15, 66, 0
22, 45359, Note_on_c, 15, 69, 0
22, 45359, Note_on_c, 15, 74, 0
22, 45359, Note_on_c, 15, 50, 0
22, 45360, Note_on_c, 15, 55, 72
22, 45360, Note_on_c, 15, 70, 72
22, 45360, Note_on_c, 15, 74, 72
22, 45360, Note_on_c, 15, 67, 72
22, 45599, Note_on_c, 15, 55, 0
22, 45599, Note_on_c, 15, 70, 0
22, 45599, Note_on_c, 15, 74, 0
22, 45599, Note_on_c, 15, 67, 0
22, 45690, Note_on_c, 15, 74, 72
22, 45690, Note_on_c, 15, 55, 72
22, 45690, Note_on_c, 15, 70, 72
22, 45690, Note_on_c, 15, 65, 72
22, 45719, Note_on_c, 15, 55, 0
22, 45720, Note_on_c, 15, 58, 72
22, 45809, Note_on_c, 15, 58, 0
22, 45810, Note_on_c, 15, 55, 72
22, 45839, Note_on_c, 15, 74, 0
22, 45839, Note_on_c, 15, 70, 0
22, 45839, Note_on_c, 15, 65, 0
22, 45839, Note_on_c, 15, 55, 0
22, 45840, Note_on_c, 15, 75, 72
22, 45840, Note_on_c, 15, 63, 72
22, 45840, Note_on_c, 15, 69, 72
22, 45840, Note_on_c, 15, 48, 72
22, 45959, Note_on_c, 15, 75, 0
22, 45959, Note_on_c, 15, 63, 0
22, 45959, Note_on_c, 15, 69, 0
22, 45959, Note_on_c, 15, 48, 0
22, 45960, Note_on_c, 15, 50, 72
22, 45960, Note_on_c, 15, 65, 72
22, 45960, Note_on_c, 15, 70, 72
22, 45960, Note_on_c, 15, 74, 72
22, 46049, Note_on_c, 15, 50, 0
22, 46049, Note_on_c, 15, 65, 0
22, 46049, Note_on_c, 15, 74, 0
22, 46050, Note_on_c, 15, 67, 72
22, 46050, Note_on_c, 15, 51, 72
22, 46079, Note_on_c, 15, 70, 0
22, 46079, Note_on_c, 15, 67, 0
22, 46079, Note_on_c, 15, 51, 0
22, 46080, Note_on_c, 15, 53, 72
22, 46080, Note_on_c, 15, 70, 72
22, 46080, Note_on_c, 15, 72, 72
22, 46080, Note_on_c, 15, 65, 72
22, 46199, Note_on_c, 15, 53, 0
22, 46199, Note_on_c, 15, 70, 0
22, 46200, Note_on_c, 15, 41, 72
22, 46200, Note_on_c, 15, 69, 72
22, 46319, Note_on_c, 15, 72, 0
22, 46319, Note_on_c, 15, 65, 0
22, 46319, Note_on_c, 15, 41, 0
22, 46319, Note_on_c, 15, 69, 0
22, 46320, Note_on_c, 15, 46, 72
22, 46320, Note_on_c, 15, 62, 72
22, 46320, Note_on_c, 15, 65, 72
22, 46320, Note_on_c, 15, 70, 72
22, 46559, Note_on_c, 15, 46, 0
22, 46559, Note_on_c, 15, 62, 0
22, 46559, Note_on_c, 15, 65, 0
22, 46559, Note_on_c, 15, 70, 0
22, 46650, Note_on_c, 15, 65, 72
22, 46650, Note_on_c, 15, 74, 72
22, 46650, Note_on_c, 15, 58, 72
22, 46650, Note_on_c, 15, 70, 72
22, 46679, Note_on_c, 15, 58, 0
22, 46680, Note_on_c, 15, 62, 72
22, 46769, Note_on_c, 15, 62, 0
22, 46770, Note_on_c, 15, 58, 72
22, 46799, Note_on_c, 15, 65, 0
22, 46799, Note_on_c, 15, 74, 0
22, 46799, Note_on_c, 15, 70, 0
22, 46799, Note_on_c, 15, 58, 0
22, 46800, Note_on_c, 15, 74, 72
22, 46800, Note_on_c, 15, 67, 72
22, 46800, Note_on_c, 15, 70, 72
22, 46800, Note_on_c, 15, 55, 72
22, 47039, Note_on_c, 15, 74, 0
22, 47039, Note_on_c, 15, 67, 0
22, 47039, Note_on_c, 15, 70, 0
22, 47039, Note_on_c, 15, 55, 0
22, 47130, Note_on_c, 15, 70, 72
22, 47130, Note_on_c, 15, 55, 72
22, 47130, Note_on_c, 15, 67, 72
22, 47130, Note_on_c, 15, 74, 72
22, 47159, Note_on_c, 15, 55, 0
22, 47160, Note_on_c, 15, 58, 72
22, 47249, Note_on_c, 15, 58, 0
22, 47250, Note_on_c, 15, 55, 72
22, 47279, Note_on_c, 15, 70, 0
22, 47279, Note_on_c, 15, 67, 0
22, 47279, Note_on_c, 15, 74, 0
22, 47279, Note_on_c, 15, 55, 0
22, 47280, Note_on_c, 15, 70, 72
22, 47280, Note_on_c, 15, 52, 72
22, 47280, Note_on_c, 15, 67, 72
22, 47280, Note_on_c, 15, 72, 72
22, 47519, Note_on_c, 15, 70, 0
22, 47519, Note_on_c, 15, 52, 0
22, 47519, Note_on_c, 15, 67, 0
22, 47519, Note_on_c, 15, 72, 0
22, 47610, Note_on_c, 15, 67, 72
22, 47610, Note_on_c, 15, 72, 72
22, 47610, Note_on_c, 15, 70, 72
22, 47610, Note_on_c, 15, 52, 72
22, 47639, Note_on_c, 15, 52, 0
22, 47640, Note_on_c, 15, 55, 72
22, 47729, Note_on_c, 15, 55, 0
22, 47730, Note_on_c, 15, 60, 72
22, 47759, Note_on_c, 15, 60, 0
22, 47760, Note_on_c, 15, 51, 72
22, 47999, Note_on_c, 15, 67, 0
22, 47999, Note_on_c, 15, 72, 0
22, 47999, Note_on_c, 15, 70, 0
22, 47999, Note_on_c, 15, 51, 0
22, 48090, Note_on_c, 15, 72, 72
22, 48090, Note_on_c, 15, 66, 72
22, 48090, Note_on_c, 15, 69, 72
22, 48090, Note_on_c, 15, 51, 72
22, 48119, Note_on_c, 15, 66, 0
22, 48119, Note_on_c, 15, 69, 0
22, 48119, Note_on_c, 15, 51, 0
22, 48120, Note_on_c, 15, 55, 72
22, 48120, Note_on_c, 15, 63, 72
22, 48120, Note_on_c, 15, 67, 72
22, 48209, Note_on_c, 15, 55, 0
22, 48210, Note_on_c, 15, 60, 72
22, 48239, Note_on_c, 15, 72, 0
22, 48239, Note_on_c, 15, 63, 0
22, 48239, Note_on_c, 15, 67, 0
22, 48239, Note_on_c, 15, 60, 0
22, 48240, Note_on_c, 15, 66, 72
22, 48240, Note_on_c, 15, 69, 72
22, 48240, Note_on_c, 15, 50, 72
22, 48240, Note_on_c, 15, 72, 72
22, 48359, Note_on_c, 15, 66, 0
22, 48359, Note_on_c, 15, 69, 0
22, 48359, Note_on_c, 15, 50, 0
22, 48359, Note_on_c, 15, 72, 0
22, 48450, Note_on_c, 15, 69, 72
22, 48450, Note_on_c, 15, 66, 72
22, 48450, Note_on_c, 15, 62, 72
22, 48450, Note_on_c, 15, 72, 72
22, 48479, Note_on_c, 15, 69, 0
22, 48479, Note_on_c, 15, 66, 0
22, 48479, Note_on_c, 15, 62, 0
22, 48479, Note_on_c, 15, 72, 0
22, 48480, Note_on_c, 15, 61, 72
22, 48480, Note_on_c, 15, 64, 72
22, 48480, Note_on_c, 15, 67, 72
22, 48480, Note_on_c, 15, 70, 72
22, 48599, Note_on_c, 15, 61, 0
22, 48599, Note_on_c, 15, 64, 0
22, 48599, Note_on_c, 15, 67, 0
22, 48599, Note_on_c, 15, 70, 0
22, 48690, Note_on_c, 15, 64, 72
22, 48690, Note_on_c, 15, 70, 72
22, 48690, Note_on_c, 15, 67, 72
22, 48690, Note_on_c, 15, 48, 72
22, 48719, Note_on_c, 15, 64, 0
22, 48719, Note_on_c, 15, 70, 0
22, 48719, Note_on_c, 15, 67, 0
22, 48719, Note_on_c, 15, 48, 0
22, 48720, Note_on_c, 15, 50, 72
22, 48720, Note_on_c, 15, 62, 72
22, 48720, Note_on_c, 15, 67, 72
22, 48720, Note_on_c, 15, 70, 72
22, 48839, Note_on_c, 15, 50, 0
22, 48839, Note_on_c, 15, 62, 0
22, 48839, Note_on_c, 15, 67, 0
22, 48839, Note_on_c, 15, 70, 0
22, 48840, Note_on_c, 15, 62, 72
22, 48840, Note_on_c, 15, 66, 72
22, 48840, Note_on_c, 15, 69, 72
22, 48840, Note_on_c, 15, 50, 72
22, 48959, Note_on_c, 15, 62, 0
22, 48959, Note_on_c, 15, 66, 0
22, 48959, Note_on_c, 15, 69, 0
22, 48959, Note_on_c, 15, 50, 0
22, 48960, Note_on_c, 15, 62, 72
22, 48960, Note_on_c, 15, 66, 72
22, 48960, Note_on_c, 15, 69, 72
22, 48960, Note_on_c, 15, 50, 72
22, 49079, Note_on_c, 15, 62, 0
22, 49079, Note_on_c, 15, 66, 0
22, 49079, Note_on_c, 15, 69, 0
22, 49079, Note_on_c, 15, 50, 0
22, 49080, Note_on_c, 15, 50, 72
22, 49080, Note_on_c, 15, 66, 72
22, 49080, Note_on_c, 15, 69, 72
22, 49080, Note_on_c, 15, 62, 72
22, 49199, Note_on_c, 15, 50, 0
22, 49199, Note_on_c, 15, 66, 0
22, 49199, Note_on_c, 15, 69, 0
22, 49199, Note_on_c, 15, 62, 0
22, 49200, Note_on_c, 15, 58, 72
22, 49200, Note_on_c, 15, 43, 72
22, 49200, Note_on_c, 15, 62, 72
22, 49200, Note_on_c, 15, 67, 72
22, 49319, Note_on_c, 15, 58, 0
22, 49319, Note_on_c, 15, 43, 0
22, 49319, Note_on_c, 15, 62, 0
22, 49319, Note_on_c, 15, 67, 0
22, 51360, Note_on_c, 15, 58, 72
22, 51360, Note_on_c, 15, 67, 72
22, 51360, Note_on_c, 15, 62, 72
22, 51360, Note_on_c, 15, 70, 72
22, 51479, Note_on_c, 15, 58, 0
22, 51479, Note_on_c, 15, 67, 0
22, 51479, Note_on_c, 15, 62, 0
22, 51479, Note_on_c, 15, 70, 0
22, 51600, Note_on_c, 15, 57, 72
22, 51600, Note_on_c, 15, 62, 72
22, 51600, Note_on_c, 15, 64, 72
22, 51600, Note_on_c, 15, 69, 72
22, 51719, Note_on_c, 15, 57, 0
22, 51719, Note_on_c, 15, 62, 0
22, 51719, Note_on_c, 15, 64, 0
22, 51719, Note_on_c, 15, 69, 0
22, 51840, Note_on_c, 15, 64, 72
22, 51840, Note_on_c, 15, 45, 72
22, 51840, Note_on_c, 15, 61, 72
22, 51840, Note_on_c, 15, 69, 72
22, 51959, Note_on_c, 15, 64, 0
22, 51959, Note_on_c, 15, 45, 0
22, 51959, Note_on_c, 15, 61, 0
22, 51959, Note_on_c, 15, 69, 0
22, 52080, Note_on_c, 15, 50, 72
22, 52080, Note_on_c, 15, 65, 72
22, 52080, Note_on_c, 15, 69, 72
22, 52080, Note_on_c, 15, 62, 72
22, 52199, Note_on_c, 15, 50, 0
22, 52199, Note_on_c, 15, 65, 0
22, 52199, Note_on_c, 15, 69, 0
22, 52199, Note_on_c, 15, 62, 0
22, 52320, Note_on_c, 15, 64, 72
22, 52320, Note_on_c, 15, 52, 72
22, 52320, Note_on_c, 15, 67, 72
22, 52320, Note_on_c, 15, 73, 72
22, 52439, Note_on_c, 15, 64, 0
22, 52439, Note_on_c, 15, 52, 0
22, 52439, Note_on_c, 15, 67, 0
22, 52439, Note_on_c, 15, 73, 0
22, 52560, Note_on_c, 15, 65, 72
22, 52560, Note_on_c, 15, 53, 72
22, 52560, Note_on_c, 15, 69, 72
22, 52560, Note_on_c, 15, 74, 72
22, 52679, Note_on_c, 15, 65, 0
22, 52679, Note_on_c, 15, 53, 0
22, 52679, Note_on_c, 15, 69, 0
22, 52679, Note_on_c, 15, 74, 0
22, 52800, Note_on_c, 15, 50, 72
22, 52800, Note_on_c, 15, 65, 72
22, 52800, Note_on_c, 15, 69, 72
22, 52800, Note_on_c, 15, 74, 72
22, 52919, Note_on_c, 15, 50, 0
22, 52919, Note_on_c, 15, 65, 0
22, 52919, Note_on_c, 15, 69, 0
22, 52919, Note_on_c, 15, 74, 0
22, 53040, Note_on_c, 15, 64, 72
22, 53040, Note_on_c, 15, 69, 72
22, 53040, Note_on_c, 15, 59, 72
22, 53040, Note_on_c, 15, 52, 72
22, 53159, Note_on_c, 15, 64, 0
22, 53159, Note_on_c, 15, 69, 0
22, 53159, Note_on_c, 15, 59, 0
22, 53159, Note_on_c, 15, 52, 0
22, 53280, Note_on_c, 15, 52, 72
22, 53280, Note_on_c, 15, 64, 72
22, 53280, Note_on_c, 15, 59, 72
22, 53280, Note_on_c, 15, 68, 72
22, 53399, Note_on_c, 15, 52, 0
22, 53399, Note_on_c, 15, 64, 0
22, 53399, Note_on_c, 15, 59, 0
22, 53399, Note_on_c, 15, 68, 0
22, 53520, Note_on_c, 15, 57, 72
22, 53520, Note_on_c, 15, 69, 72
22, 53520, Note_on_c, 15, 60, 72
22, 53520, Note_on_c, 15, 64, 72
22, 53759, Note_on_c, 15, 57, 0
22, 53759, Note_on_c, 15, 69, 0
22, 53759, Note_on_c, 15, 60, 0
22, 53759, Note_on_c, 15, 64, 0
22, 53760, Note_on_c, 15, 68, 72
22, 53760, Note_on_c, 15, 59, 72
22, 53760, Note_on_c, 15, 62, 72
22, 53999, Note_on_c, 15, 68, 0
22, 53999, Note_on_c, 15, 59, 0
22, 53999, Note_on_c, 15, 62, 0
22, 54000, Note_on_c, 15, 69, 72
22, 54000, Note_on_c, 15, 60, 72
22, 54000, Note_on_c, 15, 64, 72
22, 54119, Note_on_c, 15, 69, 0
22, 54119, Note_on_c, 15, 60, 0
22, 54119, Note_on_c, 15, 64, 0
22, 54120, Note_on_c, 15, 64, 72
22, 54120, Note_on_c, 15, 69, 72
22, 54120, Note_on_c, 15, 57, 72
22, 54120, Note_on_c, 15, 60, 72
22, 54239, Note_on_c, 15, 64, 0
22, 54239, Note_on_c, 15, 69, 0
22, 54239, Note_on_c, 15, 57, 0
22, 54239, Note_on_c, 15, 60, 0
22, 54240, Note_on_c, 15, 72, 72
22, 54240, Note_on_c, 15, 54, 72
22, 54240, Note_on_c, 15, 69, 72
22, 54240, Note_on_c, 15, 62, 72
22, 54359, Note_on_c, 15, 72, 0
22, 54359, Note_on_c, 15, 54, 0
22, 54359, Note_on_c, 15, 69, 0
22, 54359, Note_on_c, 15, 62, 0
22, 54360, Note_on_c, 15, 62, 72
22, 54360, Note_on_c, 15, 70, 72
22, 54360, Note_on_c, 15, 65, 72
22, 54360, Note_on_c, 15, 46, 72
22, 54479, Note_on_c, 15, 62, 0
22, 54479, Note_on_c, 15, 70, 0
22, 54479, Note_on_c, 15, 65, 0
22, 54479, Note_on_c, 15, 46, 0
22, 54480, Note_on_c, 15, 55, 72
22, 54480, Note_on_c, 15, 69, 72
22, 54480, Note_on_c, 15, 70, 72
22, 54659, Note_on_c, 15, 55, 0
22, 54660, Note_on_c, 15, 57, 72
22, 54719, Note_on_c, 15, 69, 0
22, 54719, Note_on_c, 15, 70, 0
22, 54719, Note_on_c, 15, 57, 0
22, 54720, Note_on_c, 15, 58, 72
22, 54720, Note_on_c, 15, 70, 72
22, 54720, Note_on_c, 15, 62, 72
22, 54720, Note_on_c, 15, 67, 72
22, 54839, Note_on_c, 15, 58, 0
22, 54840, Note_on_c, 15, 55, 72
22, 54959, Note_on_c, 15, 70, 0
22, 54959, Note_on_c, 15, 62, 0
22, 54959, Note_on_c, 15, 67, 0
22, 54959, Note_on_c, 15, 55, 0
22, 54960, Note_on_c, 15, 67, 72
22, 54960, Note_on_c, 15, 62, 72
22, 54960, Note_on_c, 15, 69, 72
22, 54960, Note_on_c, 15, 50, 72
22, 55079, Note_on_c, 15, 67, 0
22, 55079, Note_on_c, 15, 62, 0
22, 55079, Note_on_c, 15, 69, 0
22, 55079, Note_on_c, 15, 50, 0
22, 55080, Note_on_c, 15, 62, 72
22, 55080, Note_on_c, 15, 69, 72
22, 55080, Note_on_c, 15, 65, 72
22, 55199, Note_on_c, 15, 69, 0
22, 55199, Note_on_c, 15, 65, 0
22, 55200, Note_on_c, 15, 74, 72
22, 55200, Note_on_c, 15, 69, 72
22, 55200, Note_on_c, 15, 66, 72
22, 55259, Note_on_c, 15, 62, 0
22, 55260, Note_on_c, 15, 63, 72
22, 55319, Note_on_c, 15, 63, 0
22, 55320, Note_on_c, 15, 62, 72
22, 55379, Note_on_c, 15, 62, 0
22, 55380, Note_on_c, 15, 60, 72
22, 55439, Note_on_c, 15, 74, 0
22, 55439, Note_on_c, 15, 69, 0
22, 55439, Note_on_c, 15, 66, 0
22, 55439, Note_on_c, 15, 60, 0
22, 55440, Note_on_c, 15, 58, 72
22, 55440, Note_on_c, 15, 74, 72
22, 55440, Note_on_c, 15, 67, 72
22, 55559, Note_on_c, 15, 58, 0
22, 55559, Note_on_c, 15, 74, 0
22, 55559, Note_on_c, 15, 67, 0
22, 55560, Note_on_c, 15, 55, 72
22, 55560, Note_on_c, 15, 74, 72
22, 55560, Note_on_c, 15, 70, 72
22, 55679, Note_on_c, 15, 70, 0
22, 55680, Note_on_c, 15, 69, 72
22, 55799, Note_on_c, 15, 55, 0
22, 55799, Note_on_c, 15, 74, 0
22, 55800, Note_on_c, 15, 74, 72
22, 55800, Note_on_c, 15, 54, 72
22, 55919, Note_on_c, 15, 69, 0
22, 55919, Note_on_c, 15, 74, 0
22, 55919, Note_on_c, 15, 54, 0
22, 55920, Note_on_c, 15, 67, 72
22, 55920, Note_on_c, 15, 70, 72
22, 55920, Note_on_c, 15, 74, 72
22, 55920, Note_on_c, 15, 55, 72
22, 56159, Note_on_c, 15, 67, 0
22, 56159, Note_on_c, 15, 70, 0
22, 56159, Note_on_c, 15, 74, 0
22, 56159, Note_on_c, 15, 55, 0
22, 56160, Note_on_c, 15, 74, 72
22, 56160, Note_on_c, 15, 67, 72
22, 56160, Note_on_c, 15, 70, 72
22, 56160, Note_on_c, 15, 43, 72
22, 56279, Note_on_c, 15, 74, 0
22, 56279, Note_on_c, 15, 67, 0
22, 56279, Note_on_c, 15, 70, 0
22, 56279, Note_on_c, 15, 43, 0
22, 56280, Note_on_c, 15, 55, 72
22, 56280, Note_on_c, 15, 70, 72
22, 56280, Note_on_c, 15, 76, 72
22, 56399, Note_on_c, 15, 55, 0
22, 56399, Note_on_c, 15, 70, 0
22, 56399, Note_on_c, 15, 76, 0
22, 56400, Note_on_c, 15, 77, 72
22, 56400, Note_on_c, 15, 57, 72
22, 56400, Note_on_c, 15, 72, 72
22, 56459, Note_on_c, 15, 57, 0
22, 56460, Note_on_c, 15, 55, 72
22, 56519, Note_on_c, 15, 55, 0
22, 56520, Note_on_c, 15, 53, 72
22, 56579, Note_on_c, 15, 53, 0
22, 56580, Note_on_c, 15, 55, 72
22, 56639, Note_on_c, 15, 55, 0
22, 56640, Note_on_c, 15, 57, 72
22, 56699, Note_on_c, 15, 57, 0
22, 56700, Note_on_c, 15, 55, 72
22, 56759, Note_on_c, 15, 55, 0
22, 56760, Note_on_c, 15, 57, 72
22, 56819, Note_on_c, 15, 57, 0
22, 56820, Note_on_c, 15, 53, 72
22, 56879, Note_on_c, 15, 77, 0
22, 56879, Note_on_c, 15, 72, 0
22, 56879, Note_on_c, 15, 53, 0
22, 56880, Note_on_c, 15, 48, 72
22, 56880, Note_on_c, 15, 77, 72
22, 56880, Note_on_c, 15, 67, 72
22, 56880, Note_on_c, 15, 60, 72
22, 56999, Note_on_c, 15, 48, 0
22, 56999, Note_on_c, 15, 60, 0
22, 57000, Note_on_c, 15, 60, 72
22, 57119, Note_on_c, 15, 77, 0
22, 57119, Note_on_c, 15, 67, 0
22, 57120, Note_on_c, 15, 76, 72
22, 57120, Note_on_c, 15, 67, 72
22, 57179, Note_on_c, 15, 60, 0
22, 57180, Note_on_c, 15, 62, 72
22, 57239, Note_on_c, 15, 62, 0
22, 57240, Note_on_c, 15, 60, 72
22, 57299, Note_on_c, 15, 60, 0
22, 57300, Note_on_c, 15, 58, 72
22, 57359, Note_on_c, 15, 76, 0
22, 57359, Note_on_c, 15, 67, 0
22, 57359, Note_on_c, 15, 58, 0
22, 57360, Note_on_c, 15, 69, 72
22, 57360, Note_on_c, 15, 72, 72
22, 57360, Note_on_c, 15, 77, 72
22, 57360, Note_on_c, 15, 57, 72
22, 57419, Note_on_c, 15, 57, 0
22, 57420, Note_on_c, 15, 60, 72
22, 57479, Note_on_c, 15, 60, 0
22, 57480, Note_on_c, 15, 58, 72
22, 57539, Note_on_c, 15, 58, 0
22, 57540, Note_on_c, 15, 57, 72
22, 57599, Note_on_c, 15, 69, 0
22, 57599, Note_on_c, 15, 72, 0
22, 57599, Note_on_c, 15, 77, 0
22, 57599, Note_on_c, 15, 57, 0
22, 57600, Note_on_c, 15, 67, 72
22, 57600, Note_on_c, 15, 55, 72
22, 57600, Note_on_c, 15, 70, 72
22, 57600, Note_on_c, 15, 76, 72
22, 57659, Note_on_c, 15, 55, 0
22, 57660, Note_on_c, 15, 58, 72
22, 57719, Note_on_c, 15, 58, 0
22, 57720, Note_on_c, 15, 57, 72
22, 57779, Note_on_c, 15, 57, 0
22, 57780, Note_on_c, 15, 55, 72
22, 57839, Note_on_c, 15, 67, 0
22, 57839, Note_on_c, 15, 70, 0
22, 57839, Note_on_c, 15, 76, 0
22, 57839, Note_on_c, 15, 55, 0
22, 57840, Note_on_c, 15, 53, 72
22, 57840, Note_on_c, 15, 69, 72
22, 57840, Note_on_c, 15, 62, 72
22, 57899, Note_on_c, 15, 53, 0
22, 57899, Note_on_c, 15, 69, 0
22, 57899, Note_on_c, 15, 62, 0
22, 57900, Note_on_c, 15, 55, 72
22, 57900, Note_on_c, 15, 64, 72
22, 57900, Note_on_c, 15, 70, 72
22, 57959, Note_on_c, 15, 55, 0
22, 57959, Note_on_c, 15, 64, 0
22, 57959, Note_on_c, 15, 70, 0
22, 57960, Note_on_c, 15, 72, 72
22, 57960, Note_on_c, 15, 57, 72
22, 57960, Note_on_c, 15, 65, 72
22, 58079, Note_on_c, 15, 72, 0
22, 58079, Note_on_c, 15, 65, 0
22, 58080, Note_on_c, 15, 64, 72
22, 58080, Note_on_c, 15, 73, 72
22, 58139, Note_on_c, 15, 57, 0
22, 58140, Note_on_c, 15, 58, 72
22, 58199, Note_on_c, 15, 58, 0
22, 58200, Note_on_c, 15, 57, 72
22, 58259, Note_on_c, 15, 57, 0
22, 58260, Note_on_c, 15, 55, 72
22, 58319, Note_on_c, 15, 64, 0
22, 58319, Note_on_c, 15, 73, 0
22, 58319, Note_on_c, 15, 55, 0
22, 58320, Note_on_c, 15, 74, 72
22, 58320, Note_on_c, 15, 53, 72
22, 58320, Note_on_c, 15, 69, 72
22, 58379, Note_on_c, 15, 53, 0
22, 58380, Note_on_c, 15, 57, 72
22, 58439, Note_on_c, 15, 57, 0
22, 58440, Note_on_c, 15, 55, 72
22, 58499, Note_on_c, 15, 55, 0
22, 58500, Note_on_c, 15, 53, 72
22, 58559, Note_on_c, 15, 74, 0
22, 58559, Note_on_c, 15, 69, 0
22, 58559, Note_on_c, 15, 53, 0
22, 58560, Note_on_c, 15, 52, 72
22, 58560, Note_on_c, 15, 67, 72
22, 58560, Note_on_c, 15, 61, 72
22, 58619, Note_on_c, 15, 52, 0
22, 58620, Note_on_c, 15, 55, 72
22, 58679, Note_on_c, 15, 55, 0
22, 58680, Note_on_c, 15, 53, 72
22, 58739, Note_on_c, 15, 53, 0
22, 58740, Note_on_c, 15, 52, 72
22, 58799, Note_on_c, 15, 67, 0
22, 58799, Note_on_c, 15, 61, 0
22, 58799, Note_on_c, 15, 52, 0
22, 58800, Note_on_c, 15, 50, 72
22, 58800, Note_on_c, 15, 62, 72
22, 58800, Note_on_c, 15, 65, 72
22, 58800, Note_on_c, 15, 69, 72
22, 58859, Note_on_c, 15, 50, 0
22, 58860, Note_on_c, 15, 51, 72
22, 58919, Note_on_c, 15, 69, 0
22, 58919, Note_on_c, 15, 51, 0
22, 58920, Note_on_c, 15, 69, 72
22, 58920, Note_on_c, 15, 53, 72
22, 59039, Note_on_c, 15, 62, 0
22, 59039, Note_on_c, 15, 65, 0
22, 59039, Note_on_c, 15, 69, 0
22, 59040, Note_on_c, 15, 69, 72
22, 59040, Note_on_c, 15, 60, 72
22, 59040, Note_on_c, 15, 65, 72
22, 59099, Note_on_c, 15, 53, 0
22, 59100, Note_on_c, 15, 55, 72
22, 59159, Note_on_c, 15, 55, 0
22, 59160, Note_on_c, 15, 53, 72
22, 59219, Note_on_c, 15, 53, 0
22, 59220, Note_on_c, 15, 52, 72
22, 59279, Note_on_c, 15, 69, 0
22, 59279, Note_on_c, 15, 60, 0
22, 59279, Note_on_c, 15, 65, 0
22, 59279, Note_on_c, 15, 52, 0
22, 59280, Note_on_c, 15, 50, 72
22, 59280, Note_on_c, 15, 65, 72
22, 59280, Note_on_c, 15, 70, 72
22, 59339, Note_on_c, 15, 50, 0
22, 59340, Note_on_c, 15, 53, 72
22, 59399, Note_on_c, 15, 53, 0
22, 59400, Note_on_c, 15, 52, 72
22, 59459, Note_on_c, 15, 52, 0
22, 59460, Note_on_c, 15, 50, 72
22, 59519, Note_on_c, 15, 65, 0
22, 59519, Note_on_c, 15, 70, 0
22, 59519, Note_on_c, 15, 50, 0
22, 59520, Note_on_c, 15, 69, 72
22, 59520, Note_on_c, 15, 63, 72
22, 59520, Note_on_c, 15, 48, 72
22, 59579, Note_on_c, 15, 48, 0
22, 59580, Note_on_c, 15, 52, 72
22, 59639, Note_on_c, 15, 52, 0
22, 59640, Note_on_c, 15, 50, 72
22, 59699, Note_on_c, 15, 50, 0
22, 59700, Note_on_c, 15, 48, 72
22, 59759, Note_on_c, 15, 69, 0
22, 59759, Note_on_c, 15, 63, 0
22, 59759, Note_on_c, 15, 48, 0
22, 59760, Note_on_c, 15, 58, 72
22, 59760, Note_on_c, 15, 62, 72
22, 59760, Note_on_c, 15, 65, 72
22, 59760, Note_on_c, 15, 46, 72
22, 59999, Note_on_c, 15, 58, 0
22, 59999, Note_on_c, 15, 62, 0
22, 59999, Note_on_c, 15, 65, 0
22, 59999, Note_on_c, 15, 46, 0
22, 60720, Note_on_c, 15, 45, 72
22, 60720, Note_on_c, 15, 62, 72
22, 60720, Note_on_c, 15, 65, 72
22, 60720, Note_on_c, 15, 69, 72
22, 60959, Note_on_c, 15, 45, 0
22, 60959, Note_on_c, 15, 62, 0
22, 60959, Note_on_c, 15, 65, 0
22, 60959, Note_on_c, 15, 69, 0
22, 61680, Note_on_c, 15, 71, 72
22, 61680, Note_on_c, 15, 44, 72
22, 61680, Note_on_c, 15, 77, 72
22, 61680, Note_on_c, 15, 65, 72
22, 61799, Note_on_c, 15, 44, 0
22, 61800, Note_on_c, 15, 56, 72
22, 61919, Note_on_c, 15, 56, 0
22, 61920, Note_on_c, 15, 56, 72
22, 62039, Note_on_c, 15, 56, 0
22, 62040, Note_on_c, 15, 56, 72
22, 62159, Note_on_c, 15, 71, 0
22, 62159, Note_on_c, 15, 77, 0
22, 62159, Note_on_c, 15, 65, 0
22, 62159, Note_on_c, 15, 56, 0
22, 62160, Note_on_c, 15, 56, 72
22, 62160, Note_on_c, 15, 71, 72
22, 62160, Note_on_c, 15, 77, 72
22, 62279, Note_on_c, 15, 56, 0
22, 62280, Note_on_c, 15, 56, 72
22, 62399, Note_on_c, 15, 71, 0
22, 62399, Note_on_c, 15, 77, 0
22, 62399, Note_on_c, 15, 56, 0
22, 62400, Note_on_c, 15, 76, 72
22, 62400, Note_on_c, 15, 56, 72
22, 62400, Note_on_c, 15, 71, 72
22, 62519, Note_on_c, 15, 76, 0
22, 62519, Note_on_c, 15, 56, 0
22, 62519, Note_on_c, 15, 71, 0
22, 62520, Note_on_c, 15, 56, 72
22, 62520, Note_on_c, 15, 74, 72
22, 62520, Note_on_c, 15, 71, 72
22, 62639, Note_on_c, 15, 56, 0
22, 62639, Note_on_c, 15, 74, 0
22, 62639, Note_on_c, 15, 71, 0
22, 62640, Note_on_c, 15, 57, 72
22, 62640, Note_on_c, 15, 74, 72
22, 62640, Note_on_c, 15, 65, 72
22, 62640, Note_on_c, 15, 69, 72
22, 62759, Note_on_c, 15, 57, 0
22, 62759, Note_on_c, 15, 74, 0
22, 62759, Note_on_c, 15, 65, 0
22, 62759, Note_on_c, 15, 69, 0
22, 62760, Note_on_c, 15, 45, 72
22, 62760, Note_on_c, 15, 73, 72
22, 62760, Note_on_c, 15, 64, 72
22, 62760, Note_on_c, 15, 69, 72
22, 62879, Note_on_c, 15, 45, 0
22, 62879, Note_on_c, 15, 73, 0
22, 62879, Note_on_c, 15, 64, 0
22, 62879, Note_on_c, 15, 69, 0
22, 63000, Note_on_c, 15, 64, 48
22, 63000, Note_on_c, 15, 45, 48
22, 63000, Note_on_c, 15, 61, 48
22, 63119, Note_on_c, 15, 64, 0
22, 63119, Note_on_c, 15, 45, 0
22, 63119, Note_on_c, 15, 61, 0
22, 63120, Note_on_c, 15, 50, 48
22, 63120, Note_on_c, 15, 65, 48
22, 63120, Note_on_c, 15, 69, 48
22, 63120, Note_on_c, 15, 62, 48
22, 63359, Note_on_c, 15, 50, 0
22, 63359, Note_on_c, 15, 65, 0
22, 63359, Note_on_c, 15, 69, 0
22, 63359, Note_on_c, 15, 62, 0
22, 63360, Note_on_c, 15, 64, 48
22, 63360, Note_on_c, 15, 67, 48
22, 63360, Note_on_c, 15, 69, 48
22, 63360, Note_on_c, 15, 49, 48
22, 63599, Note_on_c, 15, 64, 0
22, 63599, Note_on_c, 15, 67, 0
22, 63599, Note_on_c, 15, 69, 0
22, 63599, Note_on_c, 15, 49, 0
22, 63600, Note_on_c, 15, 50, 48
22, 63600, Note_on_c, 15, 62, 48
22, 63600, Note_on_c, 15, 65, 48
22, 63600, Note_on_c, 15, 69, 48
22, 63839, Note_on_c, 15, 50, 0
22, 63839, Note_on_c, 15, 62, 0
22, 63839, Note_on_c, 15, 65, 0
22, 63839, Note_on_c, 15, 69, 0
22, 63840, Note_on_c, 15, 57, 48
22, 63840, Note_on_c, 15, 64, 48
22, 63840, Note_on_c, 15, 69, 48
22, 63840, Note_on_c, 15, 48, 48
22, 64079, Note_on_c, 15, 57, 0
22, 64079, Note_on_c, 15, 64, 0
22, 64079, Note_on_c, 15, 69, 0
22, 64079, Note_on_c, 15, 48, 0
22, 64080, Note_on_c, 15, 69, 48
22, 64080, Note_on_c, 15, 62, 48
22, 64080, Note_on_c, 15, 65, 48
22, 64080, Note_on_c, 15, 47, 48
22, 64319, Note_on_c, 15, 69, 0
22, 64319, Note_on_c, 15, 62, 0
22, 64319, Note_on_c, 15, 65, 0
22, 64319, Note_on_c, 15, 47, 0
22, 64320, Note_on_c, 15, 46, 48
22, 64320, Note_on_c, 15, 62, 48
22, 64320, Note_on_c, 15, 68, 48
22, 64559, Note_on_c, 15, 46, 0
22, 64559, Note_on_c, 15, 62, 0
22, 64559, Note_on_c, 15, 68, 0
22, 64560, Note_on_c, 15, 62, 48
22, 64560, Note_on_c, 15, 65, 48
22, 64560, Note_on_c, 15, 45, 48
22, 64560, Note_on_c, 15, 57, 48
22, 64799, Note_on_c, 15, 62, 0
22, 64799, Note_on_c, 15, 65, 0
22, 64800, Note_on_c, 15, 61, 48
22, 64800, Note_on_c, 15, 64, 48
22, 64919, Note_on_c, 15, 61, 0
22, 64919, Note_on_c, 15, 64, 0
22, 64920, Note_on_c, 15, 62, 48
22, 64920, Note_on_c, 15, 59, 48
22, 65039, Note_on_c, 15, 45, 0
22, 65039, Note_on_c, 15, 57, 0
22, 65039, Note_on_c, 15, 62, 0
22, 65039, Note_on_c, 15, 59, 0
22, 65040, Note_on_c, 15, 45, 48
22, 65040, Note_on_c, 15, 64, 48
22, 65040, Note_on_c, 15, 57, 48
22, 65040, Note_on_c, 15, 61, 48
22, 65519, Note_on_c, 15, 45, 0
22, 65519, Note_on_c, 15, 64, 0
22, 65519, Note_on_c, 15, 57, 0
22, 65519, Note_on_c, 15, 61, 0
22, 65520, Note_on_c, 15, 57, 72
22, 65879, Note_on_c, 15, 57, 0
22, 65880, Note_on_c, 15, 57, 72
22, 65999, Note_on_c, 15, 57, 0
22, 66000, Note_on_c, 15, 53, 72
22, 66239, Note_on_c, 15, 53, 0
22, 66240, Note_on_c, 15, 58, 72
22, 66479, Note_on_c, 15, 58, 0
22, 66480, Note_on_c, 15, 49, 72
22, 66600, Note_on_c, 15, 64, 72
22, 66719, Note_on_c, 15, 64, 0
22, 66720, Note_on_c, 15, 64, 72
22, 66839, Note_on_c, 15, 49, 0
22, 66839, Note_on_c, 15, 64, 0
22, 66840, Note_on_c, 15, 64, 72
22, 66840, Note_on_c, 15, 49, 72
22, 66959, Note_on_c, 15, 64, 0
22, 66959, Note_on_c, 15, 49, 0
22, 66960, Note_on_c, 15, 65, 72
22, 66960, Note_on_c, 15, 50, 72
22, 67019, Note_on_c, 15, 65, 0
22, 67020, Note_on_c, 15, 67, 72
22, 67079, Note_on_c, 15, 67, 0
22, 67080, Note_on_c, 15, 65, 72
22, 67139, Note_on_c, 15, 65, 0
22, 67140, Note_on_c, 15, 64, 72
22, 67199, Note_on_c, 15, 50, 0
22, 67199, Note_on_c, 15, 64, 0
22, 67200, Note_on_c, 15, 65, 72
22, 67259, Note_on_c, 15, 65, 0
22, 67260, Note_on_c, 15, 67, 72
22, 67319, Note_on_c, 15, 67, 0
22, 67320, Note_on_c, 15, 64, 72
22, 67320, Note_on_c, 15, 50, 72
22, 67379, Note_on_c, 15, 64, 0
22, 67380, Note_on_c, 15, 65, 72
22, 67439, Note_on_c, 15, 50, 0
22, 67439, Note_on_c, 15, 65, 0
22, 67440, Note_on_c, 15, 52, 72
22, 67440, Note_on_c, 15, 67, 72
22, 67499, Note_on_c, 15, 67, 0
22, 67500, Note_on_c, 15, 69, 72
22, 67559, Note_on_c, 15, 69, 0
22, 67560, Note_on_c, 15, 67, 72
22, 67619, Note_on_c, 15, 67, 0
22, 67620, Note_on_c, 15, 65, 72
22, 67679, Note_on_c, 15, 65, 0
22, 67680, Note_on_c, 15, 67, 72
22, 67739, Note_on_c, 15, 67, 0
22, 67740, Note_on_c, 15, 69, 72
22, 67799, Note_on_c, 15, 52, 0
22, 67799, Note_on_c, 15, 69, 0
22, 67800, Note_on_c, 15, 50, 72
22, 67800, Note_on_c, 15, 65, 72
22, 67859, Note_on_c, 15, 50, 0
22, 67859, Note_on_c, 15, 65, 0
22, 67860, Note_on_c, 15, 67, 72
22, 67860, Note_on_c, 15, 52, 72
22, 67919, Note_on_c, 15, 67, 0
22, 67919, Note_on_c, 15, 52, 0
22, 67920, Note_on_c, 15, 53, 72
22, 67920, Note_on_c, 15, 69, 72
22, 68039, Note_on_c, 15, 53, 0
22, 68039, Note_on_c, 15, 69, 0
22, 68040, Note_on_c, 15, 52, 72
22, 68040, Note_on_c, 15, 70, 72
22, 68099, Note_on_c, 15, 52, 0
22, 68099, Note_on_c, 15, 70, 0
22, 68100, Note_on_c, 15, 69, 72
22, 68100, Note_on_c, 15, 53, 72
22, 68159, Note_on_c, 15, 69, 0
22, 68159, Note_on_c, 15, 53, 0
22, 68160, Note_on_c, 15, 55, 72
22, 68160, Note_on_c, 15, 67, 72
22, 68219, Note_on_c, 15, 67, 0
22, 68220, Note_on_c, 15, 65, 72
22, 68279, Note_on_c, 15, 55, 0
22, 68279, Note_on_c, 15, 65, 0
22, 68280, Note_on_c, 15, 53, 72
22, 68280, Note_on_c, 15, 64, 72
22, 68339, Note_on_c, 15, 53, 0
22, 68339, Note_on_c, 15, 64, 0
22, 68340, Note_on_c, 15, 62, 72
22, 68340, Note_on_c, 15, 55, 72
22, 68399, Note_on_c, 15, 62, 0
22, 68399, Note_on_c, 15, 55, 0
22, 68400, Note_on_c, 15, 57, 72
22, 68400, Note_on_c, 15, 61, 72
22, 68519, Note_on_c, 15, 57, 0
22, 68519, Note_on_c, 15, 61, 0
22, 68520, Note_on_c, 15, 55, 72
22, 68520, Note_on_c, 15, 64, 72
22, 68639, Note_on_c, 15, 55, 0
22, 68639, Note_on_c, 15, 64, 0
22, 68640, Note_on_c, 15, 53, 72
22, 68640, Note_on_c, 15, 65, 72
22, 68759, Note_on_c, 15, 53, 0
22, 68759, Note_on_c, 15, 65, 0
22, 68760, Note_on_c, 15, 64, 72
22, 68760, Note_on_c, 15, 52, 72
22, 68879, Note_on_c, 15, 64, 0
22, 68879, Note_on_c, 15, 52, 0
22, 68880, Note_on_c, 15, 50, 72
22, 68999, Note_on_c, 15, 50, 0
22, 69000, Note_on_c, 15, 67, 72
22, 69000, Note_on_c, 15, 64, 72
22, 69000, Note_on_c, 15, 70, 72
22, 69000, Note_on_c, 15, 74, 72
22, 69000, Note_on_c, 15, 48, 72
22, 69119, Note_on_c, 15, 67, 0
22, 69119, Note_on_c, 15, 64, 0
22, 69119, Note_on_c, 15, 70, 0
22, 69119, Note_on_c, 15, 74, 0
22, 69119, Note_on_c, 15, 48, 0
22, 69120, Note_on_c, 15, 47, 72
22, 69120, Note_on_c, 15, 74, 72
22, 69120, Note_on_c, 15, 66, 72
22, 69239, Note_on_c, 15, 47, 0
22, 69239, Note_on_c, 15, 74, 0
22, 69239, Note_on_c, 15, 66, 0
22, 69240, Note_on_c, 15, 74, 72
22, 69240, Note_on_c, 15, 68, 72
22, 69240, Note_on_c, 15, 71, 72
22, 69240, Note_on_c, 15, 52, 72
22, 69359, Note_on_c, 15, 74, 0
22, 69359, Note_on_c, 15, 68, 0
22, 69359, Note_on_c, 15, 71, 0
22, 69359, Note_on_c, 15, 52, 0
22, 69360, Note_on_c, 15, 45, 72
22, 69360, Note_on_c, 15, 72, 72
22, 69360, Note_on_c, 15, 64, 72
22, 69360, Note_on_c, 15, 69, 72
22, 69479, Note_on_c, 15, 45, 0
22, 69480, Note_on_c, 15, 53, 72
22, 69539, Note_on_c, 15, 53, 0
22, 69540, Note_on_c, 15, 52, 72
22, 69599, Note_on_c, 15, 72, 0
22, 69599, Note_on_c, 15, 64, 0
22, 69599, Note_on_c, 15, 69, 0
22, 69599, Note_on_c, 15, 52, 0
22, 69600, Note_on_c, 15, 50, 72
22, 69600, Note_on_c, 15, 77, 72
22, 69600, Note_on_c, 15, 69, 72
22, 69600, Note_on_c, 15, 74, 72
22, 69659, Note_on_c, 15, 50, 0
22, 69660, Note_on_c, 15, 47, 72
22, 69719, Note_on_c, 15, 47, 0
22, 69720, Note_on_c, 15, 48, 72
22, 69779, Note_on_c, 15, 48, 0
22, 69780, Note_on_c, 15, 50, 72
22, 69839, Note_on_c, 15, 77, 0
22, 69839, Note_on_c, 15, 69, 0
22, 69839, Note_on_c, 15, 74, 0
22, 69839, Note_on_c, 15, 50, 0
22, 69840, Note_on_c, 15, 52, 72
22, 69840, Note_on_c, 15, 68, 72
22, 69840, Note_on_c, 15, 71, 72
22, 70079, Note_on_c, 15, 52, 0
22, 70079, Note_on_c, 15, 68, 0
22, 70079, Note_on_c, 15, 71, 0
22, 70200, Note_on_c, 15, 68, 72
22, 70200, Note_on_c, 15, 52, 72
22, 70200, Note_on_c, 15, 71, 72
22, 70319, Note_on_c, 15, 68, 0
22, 70319, Note_on_c, 15, 52, 0
22, 70319, Note_on_c, 15, 71, 0
22, 70320, Note_on_c, 15, 57, 72
22, 70320, Note_on_c, 15, 60, 72
22, 70320, Note_on_c, 15, 64, 72
22, 70439, Note_on_c, 15, 57, 0
22, 70440, Note_on_c, 15, 45, 72
22, 70559, Note_on_c, 15, 60, 0
22, 70559, Note_on_c, 15, 64, 0
22, 70559, Note_on_c, 15, 45, 0
22, 70560, Note_on_c, 15, 57, 72
22, 70560, Note_on_c, 15, 60, 72
22, 70560, Note_on_c, 15, 64, 72
22, 70799, Note_on_c, 15, 60, 0
22, 70799, Note_on_c, 15, 64, 0
22, 70800, Note_on_c, 15, 71, 72
22, 70800, Note_on_c, 15, 62, 72
22, 70800, Note_on_c, 15, 65, 72
22, 71039, Note_on_c, 15, 57, 0
22, 71039, Note_on_c, 15, 71, 0
22, 71039, Note_on_c, 15, 62, 0
22, 71039, Note_on_c, 15, 65, 0
22, 71040, Note_on_c, 15, 71, 72
22, 71040, Note_on_c, 15, 62, 72
22, 71040, Note_on_c, 15, 55, 72
22, 71040, Note_on_c, 15, 65, 72
22, 71099, Note_on_c, 15, 55, 0
22, 71100, Note_on_c, 15, 53, 72
22, 71159, Note_on_c, 15, 53, 0
22, 71160, Note_on_c, 15, 52, 72
22, 71219, Note_on_c, 15, 52, 0
22, 71220, Note_on_c, 15, 50, 72
22, 71279, Note_on_c, 15, 71, 0
22, 71279, Note_on_c, 15, 62, 0
22, 71279, Note_on_c, 15, 65, 0
22, 71279, Note_on_c, 15, 50, 0
22, 71280, Note_on_c, 15, 64, 72
22, 71280, Note_on_c, 15, 48, 72
22, 71280, Note_on_c, 15, 67, 72
22, 71519, Note_on_c, 15, 64, 0
22, 71519, Note_on_c, 15, 48, 0
22, 71519, Note_on_c, 15, 67, 0
22, 71520, Note_on_c, 15, 62, 72
22, 71520, Note_on_c, 15, 47, 72
22, 71520, Note_on_c, 15, 69, 72
22, 71520, Note_on_c, 15, 65, 72
22, 71639, Note_on_c, 15, 47, 0
22, 71640, Note_on_c, 15, 53, 72
22, 71759, Note_on_c, 15, 62, 0
22, 71759, Note_on_c, 15, 69, 0
22, 71759, Note_on_c, 15, 65, 0
22, 71759, Note_on_c, 15, 53, 0
22, 71760, Note_on_c, 15, 52, 72
22, 71760, Note_on_c, 15, 76, 72
22, 71760, Note_on_c, 15, 68, 72
22, 71760, Note_on_c, 15, 71, 72
22, 71879, Note_on_c, 15, 76, 0
22, 71879, Note_on_c, 15, 68, 0
22, 71879, Note_on_c, 15, 71, 0
22, 71880, Note_on_c, 15, 74, 72
22, 71880, Note_on_c, 15, 68, 72
22, 71880, Note_on_c, 15, 71, 72
22, 71939, Note_on_c, 15, 52, 0
22, 71940, Note_on_c, 15, 54, 72
22, 71999, Note_on_c, 15, 74, 0
22, 71999, Note_on_c, 15, 68, 0
22, 71999, Note_on_c, 15, 71, 0
22, 71999, Note_on_c, 15, 54, 0
22, 72000, Note_on_c, 15, 72, 72
22, 72000, Note_on_c, 15, 56, 72
22, 72000, Note_on_c, 15, 64, 72
22, 72059, Note_on_c, 15, 56, 0
22, 72060, Note_on_c, 15, 57, 72
22, 72119, Note_on_c, 15, 72, 0
22, 72119, Note_on_c, 15, 64, 0
22, 72119, Note_on_c, 15, 57, 0
22, 72120, Note_on_c, 15, 71, 72
22, 72120, Note_on_c, 15, 54, 72
22, 72120, Note_on_c, 15, 62, 72
22, 72179, Note_on_c, 15, 54, 0
22, 72180, Note_on_c, 15, 56, 72
22, 72239, Note_on_c, 15, 71, 0
22, 72239, Note_on_c, 15, 62, 0
22, 72239, Note_on_c, 15, 56, 0
22, 72240, Note_on_c, 15, 57, 72
22, 72240, Note_on_c, 15, 69, 72
22, 72240, Note_on_c, 15, 60, 72
22, 72240, Note_on_c, 15, 64, 72
22, 72359, Note_on_c, 15, 57, 0
22, 72359, Note_on_c, 15, 69, 0
22, 72359, Note_on_c, 15, 60, 0
22, 72359, Note_on_c, 15, 64, 0
22, 72360, Note_on_c, 15, 64, 72
22, 72360, Note_on_c, 15, 45, 72
22, 72360, Note_on_c, 15, 61, 72
22, 72360, Note_on_c, 15, 69, 72
22, 72479, Note_on_c, 15, 64, 0
22, 72479, Note_on_c, 15, 45, 0
22, 72479, Note_on_c, 15, 61, 0
22, 72479, Note_on_c, 15, 69, 0
22, 72480, Note_on_c, 15, 77, 72
22, 72480, Note_on_c, 15, 69, 72
22, 72480, Note_on_c, 15, 47, 72
22, 72480, Note_on_c, 15, 62, 72
22, 72599, Note_on_c, 15, 77, 0
22, 72599, Note_on_c, 15, 69, 0
22, 72599, Note_on_c, 15, 47, 0
22, 72599, Note_on_c, 15, 62, 0
22, 72600, Note_on_c, 15, 49, 72
22, 72600, Note_on_c, 15, 76, 72
22, 72600, Note_on_c, 15, 67, 72
22, 72600, Note_on_c, 15, 69, 72
22, 72719, Note_on_c, 15, 49, 0
22, 72719, Note_on_c, 15, 76, 0
22, 72719, Note_on_c, 15, 67, 0
22, 72719, Note_on_c, 15, 69, 0
22, 72720, Note_on_c, 15, 50, 72
22, 72720, Note_on_c, 15, 65, 72
22, 72720, Note_on_c, 15, 69, 72
22, 72839, Note_on_c, 15, 50, 0
22, 72840, Note_on_c, 15, 50, 72
22, 72959, Note_on_c, 15, 65, 0
22, 72959, Note_on_c, 15, 69, 0
22, 72959, Note_on_c, 15, 50, 0
22, 72960, Note_on_c, 15, 55, 72
22, 72960, Note_on_c, 15, 58, 72
22, 72960, Note_on_c, 15, 62, 72
22, 73079, Note_on_c, 15, 55, 0
22, 73079, Note_on_c, 15, 62, 0
22, 73080, Note_on_c, 15, 67, 72
22, 73080, Note_on_c, 15, 53, 72
22, 73199, Note_on_c, 15, 58, 0
22, 73199, Note_on_c, 15, 67, 0
22, 73199, Note_on_c, 15, 53, 0
22, 73200, Note_on_c, 15, 52, 72
22, 73200, Note_on_c, 15, 58, 72
22, 73200, Note_on_c, 15, 67, 72
22, 73200, Note_on_c, 15, 61, 72
22, 73319, Note_on_c, 15, 52, 0
22, 73320, Note_on_c, 15, 52, 72
22, 73439, Note_on_c, 15, 52, 0
22, 73440, Note_on_c, 15, 52, 72
22, 73559, Note_on_c, 15, 52, 0
22, 73560, Note_on_c, 15, 52, 72
22, 73679, Note_on_c, 15, 58, 0
22, 73679, Note_on_c, 15, 67, 0
22, 73679, Note_on_c, 15, 61, 0
22, 73679, Note_on_c, 15, 52, 0
22, 73680, Note_on_c, 15, 53, 72
22, 73680, Note_on_c, 15, 69, 72
22, 73680, Note_on_c, 15, 62, 72
22, 73739, Note_on_c, 15, 53, 0
22, 73740, Note_on_c, 15, 55, 72
22, 73799, Note_on_c, 15, 55, 0
22, 73800, Note_on_c, 15, 53, 72
22, 73859, Note_on_c, 15, 53, 0
22, 73860, Note_on_c, 15, 52, 72
22, 73919, Note_on_c, 15, 52, 0
22, 73920, Note_on_c, 15, 53, 72
22, 73979, Note_on_c, 15, 53, 0
22, 73980, Note_on_c, 15, 55, 72
22, 74039, Note_on_c, 15, 55, 0
22, 74040, Note_on_c, 15, 52, 72
22, 74099, Note_on_c, 15, 52, 0
22, 74100, Note_on_c, 15, 53, 72
22, 74159, Note_on_c, 15, 69, 0
22, 74159, Note_on_c, 15, 62, 0
22, 74159, Note_on_c, 15, 53, 0
22, 74160, Note_on_c, 15, 65, 72
22, 74160, Note_on_c, 15, 70, 72
22, 74160, Note_on_c, 15, 74, 72
22, 74160, Note_on_c, 15, 55, 72
22, 74219, Note_on_c, 15, 55, 0
22, 74220, Note_on_c, 15, 57, 72
22, 74279, Note_on_c, 15, 57, 0
22, 74280, Note_on_c, 15, 55, 72
22, 74339, Note_on_c, 15, 55, 0
22, 74340, Note_on_c, 15, 53, 72
22, 74399, Note_on_c, 15, 53, 0
22, 74400, Note_on_c, 15, 55, 72
22, 74459, Note_on_c, 15, 55, 0
22, 74460, Note_on_c, 15, 57, 72
22, 74519, Note_on_c, 15, 57, 0
22, 74520, Note_on_c, 15, 53, 72
22, 74579, Note_on_c, 15, 53, 0
22, 74580, Note_on_c, 15, 55, 72
22, 74639, Note_on_c, 15, 65, 0
22, 74639, Note_on_c, 15, 70, 0
22, 74639, Note_on_c, 15, 74, 0
22, 74639, Note_on_c, 15, 55, 0
22, 74640, Note_on_c, 15, 57, 72
22, 74640, Note_on_c, 15, 74, 72
22, 74640, Note_on_c, 15, 65, 72
22, 74640, Note_on_c, 15, 69, 72
22, 74759, Note_on_c, 15, 57, 0
22, 74759, Note_on_c, 15, 74, 0
22, 74759, Note_on_c, 15, 65, 0
22, 74759, Note_on_c, 15, 69, 0
22, 74760, Note_on_c, 15, 58, 72
22, 74760, Note_on_c, 15, 73, 72
22, 74760, Note_on_c, 15, 65, 72
22, 74760, Note_on_c, 15, 69, 72
22, 74819, Note_on_c, 15, 58, 0
22, 74820, Note_on_c, 15, 57, 72
22, 74879, Note_on_c, 15, 73, 0
22, 74879, Note_on_c, 15, 65, 0
22, 74879, Note_on_c, 15, 69, 0
22, 74879, Note_on_c, 15, 57, 0
22, 74880, Note_on_c, 15, 55, 72
22, 74880, Note_on_c, 15, 67, 72
22, 74880, Note_on_c, 15, 70, 72
22, 74880, Note_on_c, 15, 76, 72
22, 74939, Note_on_c, 15, 55, 0
22, 74940, Note_on_c, 15, 53, 72
22, 74999, Note_on_c, 15, 53, 0
22, 75000, Note_on_c, 15, 52, 72
22, 75059, Note_on_c, 15, 52, 0
22, 75060, Note_on_c, 15, 50, 72
22, 75119, Note_on_c, 15, 67, 0
22, 75119, Note_on_c, 15, 70, 0
22, 75119, Note_on_c, 15, 76, 0
22, 75119, Note_on_c, 15, 50, 0
22, 75120, Note_on_c, 15, 69, 72
22, 75120, Note_on_c, 15, 49, 72
22, 75120, Note_on_c, 15, 67, 72
22, 75120, Note_on_c, 15, 76, 72
22, 75239, Note_on_c, 15, 49, 0
22, 75240, Note_on_c, 15, 52, 72
22, 75359, Note_on_c, 15, 69, 0
22, 75359, Note_on_c, 15, 67, 0
22, 75359, Note_on_c, 15, 76, 0
22, 75359, Note_on_c, 15, 52, 0
22, 75360, Note_on_c, 15, 74, 72
22, 75360, Note_on_c, 15, 65, 72
22, 75360, Note_on_c, 15, 57, 72
22, 75479, Note_on_c, 15, 74, 0
22, 75479, Note_on_c, 15, 65, 0
22, 75479, Note_on_c, 15, 57, 0
22, 75480, Note_on_c, 15, 73, 72
22, 75480, Note_on_c, 15, 55, 72
22, 75480, Note_on_c, 15, 69, 72
22, 75599, Note_on_c, 15, 73, 0
22, 75599, Note_on_c, 15, 55, 0
22, 75599, Note_on_c, 15, 69, 0
22, 75600, Note_on_c, 15, 74, 72
22, 75600, Note_on_c, 15, 53, 72
22, 75600, Note_on_c, 15, 69, 72
22, 75659, Note_on_c, 15, 53, 0
22, 75660, Note_on_c, 15, 52, 72
22, 75719, Note_on_c, 15, 52, 0
22, 75720, Note_on_c, 15, 50, 72
22, 75779, Note_on_c, 15, 50, 0
22, 75780, Note_on_c, 15, 48, 72
22, 75839, Note_on_c, 15, 74, 0
22, 75839, Note_on_c, 15, 69, 0
22, 75839, Note_on_c, 15, 48, 0
22, 75840, Note_on_c, 15, 66, 72
22, 75840, Note_on_c, 15, 47, 72
22, 75840, Note_on_c, 15, 62, 72
22, 75959, Note_on_c, 15, 66, 0
22, 75959, Note_on_c, 15, 62, 0
22, 75960, Note_on_c, 15, 68, 72
22, 75960, Note_on_c, 15, 62, 72
22, 76079, Note_on_c, 15, 47, 0
22, 76079, Note_on_c, 15, 68, 0
22, 76079, Note_on_c, 15, 62, 0
22, 76080, Note_on_c, 15, 64, 72
22, 76080, Note_on_c, 15, 48, 72
22, 76080, Note_on_c, 15, 69, 72
22, 76080, Note_on_c, 15, 60, 72
22, 76319, Note_on_c, 15, 64, 0
22, 76319, Note_on_c, 15, 48, 0
22, 76319, Note_on_c, 15, 69, 0
22, 76319, Note_on_c, 15, 60, 0
22, 76320, Note_on_c, 15, 50, 72
22, 76320, Note_on_c, 15, 72, 72
22, 76320, Note_on_c, 15, 65, 72
22, 76320, Note_on_c, 15, 69, 72
22, 76320, Note_on_c, 15, 64, 72
22, 76439, Note_on_c, 15, 72, 0
22, 76439, Note_on_c, 15, 69, 0
22, 76439, Note_on_c, 15, 64, 0
22, 76440, Note_on_c, 15, 71, 72
22, 76440, Note_on_c, 15, 62, 72
22, 76499, Note_on_c, 15, 71, 0
22, 76499, Note_on_c, 15, 62, 0
22, 76500, Note_on_c, 15, 60, 72
22, 76500, Note_on_c, 15, 69, 72
22, 76559, Note_on_c, 15, 50, 0
22, 76559, Note_on_c, 15, 65, 0
22, 76559, Note_on_c, 15, 60, 0
22, 76559, Note_on_c, 15, 69, 0
22, 76560, Note_on_c, 15, 68, 72
22, 76560, Note_on_c, 15, 52, 72
22, 76560, Note_on_c, 15, 71, 72
22, 76799, Note_on_c, 15, 68, 0
22, 76799, Note_on_c, 15, 52, 0
22, 76799, Note_on_c, 15, 71, 0
22, 76920, Note_on_c, 15, 68, 72
22, 76920, Note_on_c, 15, 52, 72
22, 76920, Note_on_c, 15, 71, 72
22, 77039, Note_on_c, 15, 68, 0
22, 77039, Note_on_c, 15, 52, 0
22, 77039, Note_on_c, 15, 71, 0
22, 77040, Note_on_c, 15, 72, 72
22, 77040, Note_on_c, 15, 57, 72
22, 77040, Note_on_c, 15, 64, 72
22, 77339, Note_on_c, 15, 57, 0
22, 77340, Note_on_c, 15, 55, 72
22, 77399, Note_on_c, 15, 55, 0
22, 77400, Note_on_c, 15, 53, 72
22, 77459, Note_on_c, 15, 53, 0
22, 77460, Note_on_c, 15, 52, 72
22, 77519, Note_on_c, 15, 72, 0
22, 77519, Note_on_c, 15, 64, 0
22, 77519, Note_on_c, 15, 52, 0
22, 77520, Note_on_c, 15, 62, 72
22, 77520, Note_on_c, 15, 69, 72
22, 77520, Note_on_c, 15, 59, 72
22, 77520, Note_on_c, 15, 53, 72
22, 77639, Note_on_c, 15, 53, 0
22, 77640, Note_on_c, 15, 50, 72
22, 77759, Note_on_c, 15, 62, 0
22, 77759, Note_on_c, 15, 69, 0
22, 77759, Note_on_c, 15, 59, 0
22, 77759, Note_on_c, 15, 50, 0
22, 77760, Note_on_c, 15, 67, 72
22, 77760, Note_on_c, 15, 59, 72
22, 77760, Note_on_c, 15, 74, 72
22, 77760, Note_on_c, 15, 55, 72
22, 77879, Note_on_c, 15, 67, 0
22, 77880, Note_on_c, 15, 65, 72
22, 77999, Note_on_c, 15, 59, 0
22, 77999, Note_on_c, 15, 74, 0
22, 77999, Note_on_c, 15, 55, 0
22, 77999, Note_on_c, 15, 65, 0
22, 78000, Note_on_c, 15, 69, 72
22, 78000, Note_on_c, 15, 48, 72
22, 78000, Note_on_c, 15, 64, 72
22, 78119, Note_on_c, 15, 48, 0
22, 78120, Note_on_c, 15, 45, 72
22, 78239, Note_on_c, 15, 69, 0
22, 78239, Note_on_c, 15, 64, 0
22, 78239, Note_on_c, 15, 45, 0
22, 78240, Note_on_c, 15, 53, 72
22, 78240, Note_on_c, 15, 69, 72
22, 78240, Note_on_c, 15, 62, 72
22, 78479, Note_on_c, 15, 53, 0
22, 78479, Note_on_c, 15, 69, 0
22, 78479, Note_on_c, 15, 62, 0
22, 78480, Note_on_c, 15, 52, 72
22, 78480, Note_on_c, 15, 68, 72
22, 78480, Note_on_c, 15, 71, 72
22, 78599, Note_on_c, 15, 52, 0
22, 78599, Note_on_c, 15, 68, 0
22, 78599, Note_on_c, 15, 71, 0
22, 78600, Note_on_c, 15, 62, 72
22, 78600, Note_on_c, 15, 64, 72
22, 78600, Note_on_c, 15, 68, 72
22, 78600, Note_on_c, 15, 71, 72
22, 78719, Note_on_c, 15, 62, 0
22, 78719, Note_on_c, 15, 64, 0
22, 78719, Note_on_c, 15, 68, 0
22, 78719, Note_on_c, 15, 71, 0
22, 78720, Note_on_c, 15, 66, 72
22, 78720, Note_on_c, 15, 60, 72
22, 78720, Note_on_c, 15, 76, 72
22, 78720, Note_on_c, 15, 69, 72
22, 78839, Note_on_c, 15, 66, 0
22, 78839, Note_on_c, 15, 60, 0
22, 78839, Note_on_c, 15, 76, 0
22, 78839, Note_on_c, 15, 69, 0
22, 78840, Note_on_c, 15, 59, 72
22, 78840, Note_on_c, 15, 74, 72
22, 78840, Note_on_c, 15, 68, 72
22, 78959, Note_on_c, 15, 59, 0
22, 78959, Note_on_c, 15, 74, 0
22, 78959, Note_on_c, 15, 68, 0
22, 78960, Note_on_c, 15, 69, 72
22, 78960, Note_on_c, 15, 72, 72
22, 78960, Note_on_c, 15, 65, 72
22, 78960, Note_on_c, 15, 57, 72
22, 79079, Note_on_c, 15, 57, 0
22, 79080, Note_on_c, 15, 57, 72
22, 79139, Note_on_c, 15, 57, 0
22, 79140, Note_on_c, 15, 55, 72
22, 79199, Note_on_c, 15, 69, 0
22, 79199, Note_on_c, 15, 72, 0
22, 79199, Note_on_c, 15, 65, 0
22, 79199, Note_on_c, 15, 55, 0
22, 79200, Note_on_c, 15, 72, 72
22, 79200, Note_on_c, 15, 53, 72
22, 79200, Note_on_c, 15, 69, 72
22, 79319, Note_on_c, 15, 72, 0
22, 79319, Note_on_c, 15, 53, 0
22, 79319, Note_on_c, 15, 69, 0
22, 79320, Note_on_c, 15, 51, 72
22, 79320, Note_on_c, 15, 67, 72
22, 79320, Note_on_c, 15, 73, 72
22, 79439, Note_on_c, 15, 51, 0
22, 79439, Note_on_c, 15, 67, 0
22, 79439, Note_on_c, 15, 73, 0
22, 79440, Note_on_c, 15, 50, 72
22, 79440, Note_on_c, 15, 66, 72
22, 79440, Note_on_c, 15, 69, 72
22, 79559, Note_on_c, 15, 50, 0
22, 79559, Note_on_c, 15, 66, 0
22, 79559, Note_on_c, 15, 69, 0
22, 79560, Note_on_c, 15, 50, 72
22, 79560, Note_on_c, 15, 66, 72
22, 79560, Note_on_c, 15, 69, 72
22, 79679, Note_on_c, 15, 50, 0
22, 79679, Note_on_c, 15, 66, 0
22, 79679, Note_on_c, 15, 69, 0
22, 79680, Note_on_c, 15, 74, 72
22, 79680, Note_on_c, 15, 52, 72
22, 79680, Note_on_c, 15, 70, 72
22, 79680, Note_on_c, 15, 67, 72
22, 79799, Note_on_c, 15, 74, 0
22, 79799, Note_on_c, 15, 52, 0
22, 79799, Note_on_c, 15, 70, 0
22, 79799, Note_on_c, 15, 67, 0
22, 79800, Note_on_c, 15, 54, 72
22, 79800, Note_on_c, 15, 72, 72
22, 79800, Note_on_c, 15, 64, 72
22, 79800, Note_on_c, 15, 69, 72
22, 79919, Note_on_c, 15, 54, 0
22, 79919, Note_on_c, 15, 72, 0
22, 79919, Note_on_c, 15, 64, 0
22, 79919, Note_on_c, 15, 69, 0
22, 79920, Note_on_c, 15, 55, 72
22, 79920, Note_on_c, 15, 70, 72
22, 79920, Note_on_c, 15, 62, 72
22, 80039, Note_on_c, 15, 55, 0
22, 80040, Note_on_c, 15, 55, 72
22, 80099, Note_on_c, 15, 55, 0
22, 80100, Note_on_c, 15, 53, 72
22, 80159, Note_on_c, 15, 70, 0
22, 80159, Note_on_c, 15, 62, 0
22, 80159, Note_on_c, 15, 53, 0
22, 80160, Note_on_c, 15, 67, 72
22, 80160, Note_on_c, 15, 70, 72
22, 80160, Note_on_c, 15, 52, 72
22, 80279, Note_on_c, 15, 67, 0
22, 80279, Note_on_c, 15, 70, 0
22, 80279, Note_on_c, 15, 52, 0
22, 80280, Note_on_c, 15, 50, 72
22, 80280, Note_on_c, 15, 65, 72
22, 80280, Note_on_c, 15, 71, 72
22, 80399, Note_on_c, 15, 50, 0
22, 80399, Note_on_c, 15, 65, 0
22, 80399, Note_on_c, 15, 71, 0
22, 80400, Note_on_c, 15, 48, 72
22, 80400, Note_on_c, 15, 64, 72
22, 80400, Note_on_c, 15, 72, 72
22, 80400, Note_on_c, 15, 67, 72
22, 80519, Note_on_c, 15, 72, 0
22, 80520, Note_on_c, 15, 70, 72
22, 80639, Note_on_c, 15, 48, 0
22, 80639, Note_on_c, 15, 64, 0
22, 80639, Note_on_c, 15, 67, 0
22, 80639, Note_on_c, 15, 70, 0
22, 80640, Note_on_c, 15, 65, 72
22, 80640, Note_on_c, 15, 50, 72
22, 80640, Note_on_c, 15, 72, 72
22, 80640, Note_on_c, 15, 69, 72
22, 80759, Note_on_c, 15, 65, 0
22, 80759, Note_on_c, 15, 50, 0
22, 80759, Note_on_c, 15, 72, 0
22, 80759, Note_on_c, 15, 69, 0
22, 80760, Note_on_c, 15, 52, 72
22, 80760, Note_on_c, 15, 72, 72
22, 80760, Note_on_c, 15, 67, 72
22, 80760, Note_on_c, 15, 70, 72
22, 80879, Note_on_c, 15, 52, 0
22, 80879, Note_on_c, 15, 72, 0
22, 80879, Note_on_c, 15, 67, 0
22, 80879, Note_on_c, 15, 70, 0
22, 80880, Note_on_c, 15, 53, 72
22, 80880, Note_on_c, 15, 65, 72
22, 80880, Note_on_c, 15, 69, 72
22, 80880, Note_on_c, 15, 72, 72
22, 80999, Note_on_c, 15, 53, 0
22, 80999, Note_on_c, 15, 65, 0
22, 80999, Note_on_c, 15, 69, 0
22, 80999, Note_on_c, 15, 72, 0
22, 81000, Note_on_c, 15, 62, 72
22, 81000, Note_on_c, 15, 55, 72
22, 81000, Note_on_c, 15, 70, 72
22, 81000, Note_on_c, 15, 67, 72
22, 81059, Note_on_c, 15, 55, 0
22, 81060, Note_on_c, 15, 57, 72
22, 81119, Note_on_c, 15, 62, 0
22, 81119, Note_on_c, 15, 70, 0
22, 81119, Note_on_c, 15, 67, 0
22, 81119, Note_on_c, 15, 57, 0
22, 81120, Note_on_c, 15, 74, 72
22, 81120, Note_on_c, 15, 67, 72
22, 81120, Note_on_c, 15, 65, 72
22, 81120, Note_on_c, 15, 58, 72
22, 81179, Note_on_c, 15, 58, 0
22, 81180, Note_on_c, 15, 55, 72
22, 81239, Note_on_c, 15, 55, 0
22, 81240, Note_on_c, 15, 57, 72
22, 81299, Note_on_c, 15, 57, 0
22, 81300, Note_on_c, 15, 58, 72
22, 81359, Note_on_c, 15, 74, 0
22, 81359, Note_on_c, 15, 67, 0
22, 81359, Note_on_c, 15, 65, 0
22, 81359, Note_on_c, 15, 58, 0
22, 81360, Note_on_c, 15, 60, 72
22, 81360, Note_on_c, 15, 72, 72
22, 81360, Note_on_c, 15, 64, 72
22, 81360, Note_on_c, 15, 67, 72
22, 81479, Note_on_c, 15, 60, 0
22, 81479, Note_on_c, 15, 72, 0
22, 81479, Note_on_c, 15, 64, 0
22, 81479, Note_on_c, 15, 67, 0
22, 81480, Note_on_c, 15, 60, 72
22, 81480, Note_on_c, 15, 67, 72
22, 81480, Note_on_c, 15, 48, 72
22, 81480, Note_on_c, 15, 64, 72
22, 81539, Note_on_c, 15, 48, 0
22, 81600, Note_on_c, 15, 48, 72
22, 81659, Note_on_c, 15, 48, 0
22, 81719, Note_on_c, 15, 60, 0
22, 81719, Note_on_c, 15, 67, 0
22, 81719, Note_on_c, 15, 64, 0
22, 81720, Note_on_c, 15, 48, 72
22, 81720, Note_on_c, 15, 64, 72
22, 81720, Note_on_c, 15, 67, 72
22, 81720, Note_on_c, 15, 58, 72
22, 81779, Note_on_c, 15, 48, 0
22, 81839, Note_on_c, 15, 64, 0
22, 81839, Note_on_c, 15, 67, 0
22, 81839, Note_on_c, 15, 58, 0
22, 81840, Note_on_c, 15, 57, 72
22, 81840, Note_on_c, 15, 69, 72
22, 81840, Note_on_c, 15, 65, 72
22, 81840, Note_on_c, 15, 50, 72
22, 81899, Note_on_c, 15, 50, 0
22, 81900, Note_on_c, 15, 52, 72
22, 81959, Note_on_c, 15, 57, 0
22, 81959, Note_on_c, 15, 69, 0
22, 81959, Note_on_c, 15, 65, 0
22, 81959, Note_on_c, 15, 52, 0
22, 81960, Note_on_c, 15, 70, 72
22, 81960, Note_on_c, 15, 50, 72
22, 81960, Note_on_c, 15, 65, 72
22, 82019, Note_on_c, 15, 50, 0
22, 82020, Note_on_c, 15, 48, 72
22, 82079, Note_on_c, 15, 48, 0
22, 82080, Note_on_c, 15, 50, 72
22, 82139, Note_on_c, 15, 50, 0
22, 82140, Note_on_c, 15, 52, 72
22, 82199, Note_on_c, 15, 52, 0
22, 82200, Note_on_c, 15, 48, 72
22, 82259, Note_on_c, 15, 48, 0
22, 82260, Note_on_c, 15, 50, 72
22, 82319, Note_on_c, 15, 70, 0
22, 82319, Note_on_c, 15, 65, 0
22, 82319, Note_on_c, 15, 50, 0
22, 82320, Note_on_c, 15, 60, 72
22, 82320, Note_on_c, 15, 67, 72
22, 82320, Note_on_c, 15, 70, 72
22, 82320, Note_on_c, 15, 52, 72
22, 82379, Note_on_c, 15, 52, 0
22, 82380, Note_on_c, 15, 53, 72
22, 82439, Note_on_c, 15, 53, 0
22, 82440, Note_on_c, 15, 52, 72
22, 82499, Note_on_c, 15, 52, 0
22, 82500, Note_on_c, 15, 50, 72
22, 82559, Note_on_c, 15, 50, 0
22, 82560, Note_on_c, 15, 52, 72
22, 82619, Note_on_c, 15, 52, 0
22, 82620, Note_on_c, 15, 53, 72
22, 82679, Note_on_c, 15, 53, 0
22, 82680, Note_on_c, 15, 50, 72
22, 82739, Note_on_c, 15, 50, 0
22, 82740, Note_on_c, 15, 52, 72
22, 82799, Note_on_c, 15, 60, 0
22, 82799, Note_on_c, 15, 67, 0
22, 82799, Note_on_c, 15, 70, 0
22, 82799, Note_on_c, 15, 52, 0
22, 82800, Note_on_c, 15, 53, 72
22, 82800, Note_on_c, 15, 69, 72
22, 82800, Note_on_c, 15, 72, 72
22, 82800, Note_on_c, 15, 65, 72
22, 82919, Note_on_c, 15, 53, 0
22, 82919, Note_on_c, 15, 69, 0
22, 82919, Note_on_c, 15, 72, 0
22, 82919, Note_on_c, 15, 65, 0
22, 82920, Note_on_c, 15, 55, 72
22, 82920, Note_on_c, 15, 70, 72
22, 82920, Note_on_c, 15, 64, 72
22, 82979, Note_on_c, 15, 55, 0
22, 82979, Note_on_c, 15, 70, 0
22, 82979, Note_on_c, 15, 64, 0
22, 82980, Note_on_c, 15, 69, 72
22, 82980, Note_on_c, 15, 53, 72
22, 82980, Note_on_c, 15, 72, 72
22, 83039, Note_on_c, 15, 69, 0
22, 83039, Note_on_c, 15, 53, 0
22, 83039, Note_on_c, 15, 72, 0
22, 83040, Note_on_c, 15, 72, 72
22, 83040, Note_on_c, 15, 67, 72
22, 83040, Note_on_c, 15, 70, 72
22, 83040, Note_on_c, 15, 52, 72
22, 83099, Note_on_c, 15, 52, 0
22, 83100, Note_on_c, 15, 50, 72
22, 83159, Note_on_c, 15, 50, 0
22, 83160, Note_on_c, 15, 48, 72
22, 83219, Note_on_c, 15, 48, 0
22, 83220, Note_on_c, 15, 46, 72
22, 83279, Note_on_c, 15, 72, 0
22, 83279, Note_on_c, 15, 67, 0
22, 83279, Note_on_c, 15, 70, 0
22, 83279, Note_on_c, 15, 46, 0
22, 83280, Note_on_c, 15, 45, 72
22, 83280, Note_on_c, 15, 72, 72
22, 83280, Note_on_c, 15, 65, 72
22, 83399, Note_on_c, 15, 45, 0
22, 83399, Note_on_c, 15, 72, 0
22, 83399, Note_on_c, 15, 65, 0
22, 83400, Note_on_c, 15, 70, 72
22, 83400, Note_on_c, 15, 48, 72
22, 83400, Note_on_c, 15, 64, 72
22, 83400, Note_on_c, 15, 67, 72
22, 83519, Note_on_c, 15, 70, 0
22, 83519, Note_on_c, 15, 48, 0
22, 83519, Note_on_c, 15, 64, 0
22, 83519, Note_on_c, 15, 67, 0
22, 83520, Note_on_c, 15, 53, 72
22, 83520, Note_on_c, 15, 69, 72
22, 83520, Note_on_c, 15, 72, 72
22, 83639, Note_on_c, 15, 53, 0
22, 83639, Note_on_c, 15, 69, 0
22, 83639, Note_on_c, 15, 72, 0
22, 83640, Note_on_c, 15, 51, 72
22, 83640, Note_on_c, 15, 67, 72
22, 83640, Note_on_c, 15, 61, 72
22, 83759, Note_on_c, 15, 51, 0
22, 83759, Note_on_c, 15, 67, 0
22, 83759, Note_on_c, 15, 61, 0
22, 83760, Note_on_c, 15, 50, 72
22, 83760, Note_on_c, 15, 66, 72
22, 83760, Note_on_c, 15, 69, 72
22, 83879, Note_on_c, 15, 50, 0
22, 83879, Note_on_c, 15, 66, 0
22, 83879, Note_on_c, 15, 69, 0
22, 83880, Note_on_c, 15, 62, 72
22, 83880, Note_on_c, 15, 60, 72
22, 83880, Note_on_c, 15, 65, 72
22, 83999, Note_on_c, 15, 62, 0
22, 83999, Note_on_c, 15, 65, 0
22, 84000, Note_on_c, 15, 67, 72
22, 84000, Note_on_c, 15, 64, 72
22, 84119, Note_on_c, 15, 60, 0
22, 84119, Note_on_c, 15, 67, 0
22, 84119, Note_on_c, 15, 64, 0
22, 84120, Note_on_c, 15, 64, 72
22, 84120, Note_on_c, 15, 58, 72
22, 84120, Note_on_c, 15, 68, 72
22, 84179, Note_on_c, 15, 58, 0
22, 84180, Note_on_c, 15, 57, 72
22, 84239, Note_on_c, 15, 64, 0
22, 84239, Note_on_c, 15, 68, 0
22, 84239, Note_on_c, 15, 57, 0
22, 84240, Note_on_c, 15, 55, 72
22, 84240, Note_on_c, 15, 70, 72
22, 84240, Note_on_c, 15, 62, 72
22, 84299, Note_on_c, 15, 55, 0
22, 84300, Note_on_c, 15, 53, 72
22, 84359, Note_on_c, 15, 53, 0
22, 84360, Note_on_c, 15, 51, 72
22, 84419, Note_on_c, 15, 51, 0
22, 84420, Note_on_c, 15, 50, 72
22, 84479, Note_on_c, 15, 70, 0
22, 84479, Note_on_c, 15, 62, 0
22, 84479, Note_on_c, 15, 50, 0
22, 84480, Note_on_c, 15, 63, 72
22, 84480, Note_on_c, 15, 48, 72
22, 84480, Note_on_c, 15, 67, 72
22, 84539, Note_on_c, 15, 48, 0
22, 84540, Note_on_c, 15, 50, 72
22, 84599, Note_on_c, 15, 50, 0
22, 84600, Note_on_c, 15, 46, 72
22, 84659, Note_on_c, 15, 46, 0
22, 84660, Note_on_c, 15, 48, 72
22, 84719, Note_on_c, 15, 63, 0
22, 84719, Note_on_c, 15, 67, 0
22, 84719, Note_on_c, 15, 48, 0
22, 84720, Note_on_c, 15, 66, 72
22, 84720, Note_on_c, 15, 50, 72
22, 84720, Note_on_c, 15, 69, 72
22, 84839, Note_on_c, 15, 69, 0
22, 84840, Note_on_c, 15, 69, 72
22, 84840, Note_on_c, 15, 63, 72
22, 84959, Note_on_c, 15, 69, 0
22, 84959, Note_on_c, 15, 63, 0
22, 84960, Note_on_c, 15, 69, 72
22, 84960, Note_on_c, 15, 62, 72
22, 85079, Note_on_c, 15, 50, 0
22, 85079, Note_on_c, 15, 69, 0
22, 85079, Note_on_c, 15, 62, 0
22, 85080, Note_on_c, 15, 69, 72
22, 85080, Note_on_c, 15, 50, 72
22, 85080, Note_on_c, 15, 60, 72
22, 85199, Note_on_c, 15, 66, 0
22, 85199, Note_on_c, 15, 69, 0
22, 85199, Note_on_c, 15, 50, 0
22, 85199, Note_on_c, 15, 60, 0
22, 85200, Note_on_c, 15, 70, 72
22, 85200, Note_on_c, 15, 43, 72
22, 85200, Note_on_c, 15, 62, 72
22, 85200, Note_on_c, 15, 67, 72
22, 85439, Note_on_c, 15, 70, 0
22, 85439, Note_on_c, 15, 43, 0
22, 85439, Note_on_c, 15, 62, 0
22, 85439, Note_on_c, 15, 67, 0
22, 85560, Note_on_c, 15, 70, 72
22, 85560, Note_on_c, 15, 55, 72
22, 85560, Note_on_c, 15, 64, 72
22, 85679, Note_on_c, 15, 70, 0
22, 85679, Note_on_c, 15, 55, 0
22, 85679, Note_on_c, 15, 64, 0
22, 85680, Note_on_c, 15, 57, 72
22, 85680, Note_on_c, 15, 65, 72
22, 85680, Note_on_c, 15, 72, 72
22, 86039, Note_on_c, 15, 57, 0
22, 86039, Note_on_c, 15, 65, 0
22, 86039, Note_on_c, 15, 72, 0
22, 86040, Note_on_c, 15, 74, 72
22, 86040, Note_on_c, 15, 70, 72
22, 86040, Note_on_c, 15, 55, 72
22, 86099, Note_on_c, 15, 55, 0
22, 86100, Note_on_c, 15, 57, 72
22, 86159, Note_on_c, 15, 74, 0
22, 86159, Note_on_c, 15, 70, 0
22, 86159, Note_on_c, 15, 57, 0
22, 86160, Note_on_c, 15, 58, 72
22, 86160, Note_on_c, 15, 74, 72
22, 86160, Note_on_c, 15, 65, 72
22, 86279, Note_on_c, 15, 58, 0
22, 86280, Note_on_c, 15, 57, 72
22, 86339, Note_on_c, 15, 57, 0
22, 86340, Note_on_c, 15, 58, 72
22, 86399, Note_on_c, 15, 74, 0
22, 86399, Note_on_c, 15, 65, 0
22, 86399, Note_on_c, 15, 58, 0
22, 86400, Note_on_c, 15, 60, 72
22, 86400, Note_on_c, 15, 63, 72
22, 86400, Note_on_c, 15, 67, 72
22, 86519, Note_on_c, 15, 60, 0
22, 86520, Note_on_c, 15, 58, 72
22, 86579, Note_on_c, 15, 58, 0
22, 86580, Note_on_c, 15, 60, 72
22, 86639, Note_on_c, 15, 63, 0
22, 86639, Note_on_c, 15, 67, 0
22, 86639, Note_on_c, 15, 60, 0
22, 86640, Note_on_c, 15, 66, 72
22, 86640, Note_on_c, 15, 62, 72
22, 86640, Note_on_c, 15, 69, 72
22, 86759, Note_on_c, 15, 66, 0
22, 86759, Note_on_c, 15, 62, 0
22, 86759, Note_on_c, 15, 69, 0
22, 86760, Note_on_c, 15, 60, 72
22, 86760, Note_on_c, 15, 62, 72
22, 86760, Note_on_c, 15, 66, 72
22, 86879, Note_on_c, 15, 60, 0
22, 86879, Note_on_c, 15, 62, 0
22, 86879, Note_on_c, 15, 66, 0
22, 86880, Note_on_c, 15, 58, 72
22, 86880, Note_on_c, 15, 74, 72
22, 86880, Note_on_c, 15, 67, 72
22, 86999, Note_on_c, 15, 58, 0
22, 86999, Note_on_c, 15, 74, 0
22, 86999, Note_on_c, 15, 67, 0
22, 87000, Note_on_c, 15, 57, 72
22, 87000, Note_on_c, 15, 72, 72
22, 87000, Note_on_c, 15, 66, 72
22, 87119, Note_on_c, 15, 57, 0
22, 87119, Note_on_c, 15, 72, 0
22, 87119, Note_on_c, 15, 66, 0
22, 87120, Note_on_c, 15, 62, 72
22, 87120, Note_on_c, 15, 55, 72
22, 87120, Note_on_c, 15, 70, 72
22, 87239, Note_on_c, 15, 62, 0
22, 87239, Note_on_c, 15, 70, 0
22, 87240, Note_on_c, 15, 68, 72
22, 87240, Note_on_c, 15, 71, 72
22, 87240, Note_on_c, 15, 60, 72
22, 87359, Note_on_c, 15, 68, 0
22, 87359, Note_on_c, 15, 71, 0
22, 87359, Note_on_c, 15, 60, 0
22, 87360, Note_on_c, 15, 67, 72
22, 87360, Note_on_c, 15, 63, 72
22, 87360, Note_on_c, 15, 72, 72
22, 87479, Note_on_c, 15, 55, 0
22, 87479, Note_on_c, 15, 67, 0
22, 87479, Note_on_c, 15, 63, 0
22, 87479, Note_on_c, 15, 72, 0
22, 87480, Note_on_c, 15, 55, 72
22, 87480, Note_on_c, 15, 67, 72
22, 87480, Note_on_c, 15, 74, 72
22, 87480, Note_on_c, 15, 59, 72
22, 87599, Note_on_c, 15, 55, 0
22, 87599, Note_on_c, 15, 67, 0
22, 87599, Note_on_c, 15, 74, 0
22, 87599, Note_on_c, 15, 59, 0
22, 87600, Note_on_c, 15, 72, 72
22, 87600, Note_on_c, 15, 51, 72
22, 87600, Note_on_c, 15, 67, 72
22, 87839, Note_on_c, 15, 72, 0
22, 87839, Note_on_c, 15, 51, 0
22, 87839, Note_on_c, 15, 67, 0
22, 87840, Note_on_c, 15, 56, 72
22, 87840, Note_on_c, 15, 72, 72
22, 87840, Note_on_c, 15, 65, 72
22, 88079, Note_on_c, 15, 56, 0
22, 88079, Note_on_c, 15, 72, 0
22, 88079, Note_on_c, 15, 65, 0
22, 88080, Note_on_c, 15, 71, 72
22, 88080, Note_on_c, 15, 47, 72
22, 88080, Note_on_c, 15, 62, 72
22, 88080, Note_on_c, 15, 65, 72
22, 88319, Note_on_c, 15, 71, 0
22, 88319, Note_on_c, 15, 62, 0
22, 88319, Note_on_c, 15, 65, 0
22, 88320, Note_on_c, 15, 62, 72
22, 88320, Note_on_c, 15, 67, 72
22, 88320, Note_on_c, 15, 71, 72
22, 88439, Note_on_c, 15, 47, 0
22, 88439, Note_on_c, 15, 67, 0
22, 88440, Note_on_c, 15, 65, 72
22, 88440, Note_on_c, 15, 47, 72
22, 88559, Note_on_c, 15, 62, 0
22, 88559, Note_on_c, 15, 71, 0
22, 88559, Note_on_c, 15, 65, 0
22, 88559, Note_on_c, 15, 47, 0
22, 88560, Note_on_c, 15, 48, 72
22, 88560, Note_on_c, 15, 63, 72
22, 88560, Note_on_c, 15, 67, 72
22, 88799, Note_on_c, 15, 48, 0
22, 88799, Note_on_c, 15, 63, 0
22, 88799, Note_on_c, 15, 67, 0
22, 88920, Note_on_c, 15, 48, 72
22, 88920, Note_on_c, 15, 63, 72
22, 88920, Note_on_c, 15, 68, 72
22, 89039, Note_on_c, 15, 48, 0
22, 89039, Note_on_c, 15, 63, 0
22, 89039, Note_on_c, 15, 68, 0
22, 89040, Note_on_c, 15, 50, 72
22, 89040, Note_on_c, 15, 65, 72
22, 89040, Note_on_c, 15, 68, 72
22, 89279, Note_on_c, 15, 65, 0
22, 89279, Note_on_c, 15, 68, 0
22, 89280, Note_on_c, 15, 70, 72
22, 89280, Note_on_c, 15, 65, 72
22, 89399, Note_on_c, 15, 50, 0
22, 89399, Note_on_c, 15, 70, 0
22, 89399, Note_on_c, 15, 65, 0
22, 89400, Note_on_c, 15, 63, 72
22, 89400, Note_on_c, 15, 67, 72
22, 89400, Note_on_c, 15, 48, 72
22, 89459, Note_on_c, 15, 48, 0
22, 89460, Note_on_c, 15, 50, 72
22, 89519, Note_on_c, 15, 63, 0
22, 89519, Note_on_c, 15, 67, 0
22, 89519, Note_on_c, 15, 50, 0
22, 89520, Note_on_c, 15, 67, 72
22, 89520, Note_on_c, 15, 51, 72
22, 89520, Note_on_c, 15, 58, 72
22, 89639, Note_on_c, 15, 51, 0
22, 89640, Note_on_c, 15, 50, 72
22, 89699, Note_on_c, 15, 50, 0
22, 89700, Note_on_c, 15, 51, 72
22, 89759, Note_on_c, 15, 67, 0
22, 89759, Note_on_c, 15, 58, 0
22, 89759, Note_on_c, 15, 51, 0
22, 89760, Note_on_c, 15, 60, 72
22, 89760, Note_on_c, 15, 53, 72
22, 89760, Note_on_c, 15, 56, 72
22, 89879, Note_on_c, 15, 53, 0
22, 89880, Note_on_c, 15, 51, 72
22, 89939, Note_on_c, 15, 51, 0
22, 89940, Note_on_c, 15, 53, 72
22, 89999, Note_on_c, 15, 60, 0
22, 89999, Note_on_c, 15, 56, 0
22, 89999, Note_on_c, 15, 53, 0
22, 90000, Note_on_c, 15, 59, 72
22, 90000, Note_on_c, 15, 55, 72
22, 90000, Note_on_c, 15, 62, 72
22, 90119, Note_on_c, 15, 59, 0
22, 90119, Note_on_c, 15, 55, 0
22, 90119, Note_on_c, 15, 62, 0
22, 90120, Note_on_c, 15, 67, 72
22, 90120, Note_on_c, 15, 53, 72
22, 90120, Note_on_c, 15, 59, 72
22, 90239, Note_on_c, 15, 67, 0
22, 90239, Note_on_c, 15, 53, 0
22, 90239, Note_on_c, 15, 59, 0
22, 90240, Note_on_c, 15, 67, 72
22, 90240, Note_on_c, 15, 51, 72
22, 90240, Note_on_c, 15, 60, 72
22, 90359, Note_on_c, 15, 67, 0
22, 90359, Note_on_c, 15, 51, 0
22, 90359, Note_on_c, 15, 60, 0
22, 90360, Note_on_c, 15, 65, 72
22, 90360, Note_on_c, 15, 50, 72
22, 90360, Note_on_c, 15, 59, 72
22, 90479, Note_on_c, 15, 65, 0
22, 90479, Note_on_c, 15, 50, 0
22, 90479, Note_on_c, 15, 59, 0
22, 90480, Note_on_c, 15, 63, 72
22, 90480, Note_on_c, 15, 67, 72
22, 90480, Note_on_c, 15, 48, 72
22, 90599, Note_on_c, 15, 48, 0
22, 90600, Note_on_c, 15, 50, 72
22, 90659, Note_on_c, 15, 50, 0
22, 90660, Note_on_c, 15, 51, 72
22, 90719, Note_on_c, 15, 63, 0
22, 90719, Note_on_c, 15, 67, 0
22, 90719, Note_on_c, 15, 51, 0
22, 90720, Note_on_c, 15, 53, 72
22, 90720, Note_on_c, 15, 63, 72
22, 90720, Note_on_c, 15, 57, 72
22, 90720, Note_on_c, 15, 60, 72
22, 90839, Note_on_c, 15, 63, 0
22, 90839, Note_on_c, 15, 57, 0
22, 90839, Note_on_c, 15, 60, 0
22, 90840, Note_on_c, 15, 62, 72
22, 90840, Note_on_c, 15, 58, 72
22, 90959, Note_on_c, 15, 62, 0
22, 90959, Note_on_c, 15, 58, 0
22, 90960, Note_on_c, 15, 60, 72
22, 90960, Note_on_c, 15, 57, 72
22, 91079, Note_on_c, 15, 53, 0
22, 91079, Note_on_c, 15, 60, 0
22, 91079, Note_on_c, 15, 57, 0
22, 91080, Note_on_c, 15, 60, 72
22, 91080, Note_on_c, 15, 69, 72
22, 91080, Note_on_c, 15, 51, 72
22, 91080, Note_on_c, 15, 65, 72
22, 91199, Note_on_c, 15, 60, 0
22, 91199, Note_on_c, 15, 69, 0
22, 91199, Note_on_c, 15, 51, 0
22, 91199, Note_on_c, 15, 65, 0
22, 91200, Note_on_c, 15, 50, 72
22, 91200, Note_on_c, 15, 65, 72
22, 91200, Note_on_c, 15, 58, 72
22, 91319, Note_on_c, 15, 50, 0
22, 91319, Note_on_c, 15, 65, 0
22, 91319, Note_on_c, 15, 58, 0
22, 91320, Note_on_c, 15, 60, 72
22, 91320, Note_on_c, 15, 65, 72
22, 91320, Note_on_c, 15, 69, 72
22, 91320, Note_on_c, 15, 48, 72
22, 91439, Note_on_c, 15, 60, 0
22, 91439, Note_on_c, 15, 65, 0
22, 91439, Note_on_c, 15, 69, 0
22, 91439, Note_on_c, 15, 48, 0
22, 91440, Note_on_c, 15, 46, 72
22, 91440, Note_on_c, 15, 74, 72
22, 91440, Note_on_c, 15, 65, 72
22, 91440, Note_on_c, 15, 70, 72
22, 91559, Note_on_c, 15, 46, 0
22, 91560, Note_on_c, 15, 55, 72
22, 91619, Note_on_c, 15, 55, 0
22, 91620, Note_on_c, 15, 53, 72
22, 91679, Note_on_c, 15, 74, 0
22, 91679, Note_on_c, 15, 65, 0
22, 91679, Note_on_c, 15, 70, 0
22, 91679, Note_on_c, 15, 53, 0
22, 91680, Note_on_c, 15, 51, 72
22, 91680, Note_on_c, 15, 67, 72
22, 91680, Note_on_c, 15, 70, 72
22, 91739, Note_on_c, 15, 51, 0
22, 91740, Note_on_c, 15, 48, 72
22, 91799, Note_on_c, 15, 48, 0
22, 91800, Note_on_c, 15, 50, 72
22, 91859, Note_on_c, 15, 67, 0
22, 91859, Note_on_c, 15, 70, 0
22, 91859, Note_on_c, 15, 50, 0
22, 91860, Note_on_c, 15, 62, 72
22, 91860, Note_on_c, 15, 51, 72
22, 91860, Note_on_c, 15, 70, 72
22, 91860, Note_on_c, 15, 67, 72
22, 91919, Note_on_c, 15, 62, 0
22, 91919, Note_on_c, 15, 51, 0
22, 91919, Note_on_c, 15, 70, 0
22, 91919, Note_on_c, 15, 67, 0
22, 91920, Note_on_c, 15, 65, 72
22, 91920, Note_on_c, 15, 53, 72
22, 91920, Note_on_c, 15, 69, 72
22, 91920, Note_on_c, 15, 60, 72
22, 92039, Note_on_c, 15, 65, 0
22, 92039, Note_on_c, 15, 53, 0
22, 92039, Note_on_c, 15, 69, 0
22, 92039, Note_on_c, 15, 60, 0
22, 92040, Note_on_c, 15, 53, 72
22, 92040, Note_on_c, 15, 69, 72
22, 92040, Note_on_c, 15, 60, 72
22, 92040, Note_on_c, 15, 65, 72
22, 92159, Note_on_c, 15, 53, 0
22, 92160, Note_on_c, 15, 53, 72
22, 92279, Note_on_c, 15, 53, 0
22, 92280, Note_on_c, 15, 53, 72
22, 92399, Note_on_c, 15, 69, 0
22, 92399, Note_on_c, 15, 60, 0
22, 92399, Note_on_c, 15, 65, 0
22, 92399, Note_on_c, 15, 53, 0
22, 92400, Note_on_c, 15, 55, 72
22, 92400, Note_on_c, 15, 70, 72
22, 92400, Note_on_c, 15, 74, 72
22, 92400, Note_on_c, 15, 65, 72
22, 92459, Note_on_c, 15, 55, 0
22, 92460, Note_on_c, 15, 57, 72
22, 92519, Note_on_c, 15, 70, 0
22, 92519, Note_on_c, 15, 74, 0
22, 92519, Note_on_c, 15, 65, 0
22, 92519, Note_on_c, 15, 57, 0
22, 92520, Note_on_c, 15, 70, 72
22, 92520, Note_on_c, 15, 55, 72
22, 92520, Note_on_c, 15, 63, 72
22, 92579, Note_on_c, 15, 55, 0
22, 92580, Note_on_c, 15, 53, 72
22, 92639, Note_on_c, 15, 53, 0
22, 92640, Note_on_c, 15, 55, 72
22, 92699, Note_on_c, 15, 55, 0
22, 92700, Note_on_c, 15, 57, 72
22, 92759, Note_on_c, 15, 57, 0
22, 92760, Note_on_c, 15, 53, 72
22, 92819, Note_on_c, 15, 53, 0
22, 92820, Note_on_c, 15, 55, 72
22, 92879, Note_on_c, 15, 70, 0
22, 92879, Note_on_c, 15, 63, 0
22, 92879, Note_on_c, 15, 55, 0
22, 92880, Note_on_c, 15, 53, 72
22, 92880, Note_on_c, 15, 69, 72
22, 92880, Note_on_c, 15, 72, 72
22, 92880, Note_on_c, 15, 65, 72
22, 93239, Note_on_c, 15, 53, 0
22, 93240, Note_on_c, 15, 53, 72
22, 93359, Note_on_c, 15, 69, 0
22, 93359, Note_on_c, 15, 72, 0
22, 93359, Note_on_c, 15, 65, 0
22, 93359, Note_on_c, 15, 53, 0
22, 93360, Note_on_c, 15, 65, 72
22, 93360, Note_on_c, 15, 50, 72
22, 93360, Note_on_c, 15, 70, 72
22, 93360, Note_on_c, 15, 74, 72
22, 93599, Note_on_c, 15, 65, 0
22, 93599, Note_on_c, 15, 50, 0
22, 93599, Note_on_c, 15, 70, 0
22, 93599, Note_on_c, 15, 74, 0
22, 93600, Note_on_c, 15, 55, 72
22, 93600, Note_on_c, 15, 70, 72
22, 93600, Note_on_c, 15, 75, 72
22, 93839, Note_on_c, 15, 55, 0
22, 93839, Note_on_c, 15, 70, 0
22, 93839, Note_on_c, 15, 75, 0
22, 93840, Note_on_c, 15, 45, 72
22, 93840, Note_on_c, 15, 60, 72
22, 93840, Note_on_c, 15, 77, 72
22, 94199, Note_on_c, 15, 45, 0
22, 94199, Note_on_c, 15, 60, 0
22, 94199, Note_on_c, 15, 77, 0
22, 94200, Note_on_c, 15, 45, 72
22, 94200, Note_on_c, 15, 60, 72
22, 94200, Note_on_c, 15, 75, 72
22, 94319, Note_on_c, 15, 45, 0
22, 94319, Note_on_c, 15, 60, 0
22, 94319, Note_on_c, 15, 75, 0
22, 94320, Note_on_c, 15, 74, 72
22, 94320, Note_on_c, 15, 58, 72
22, 94320, Note_on_c, 15, 65, 72
22, 94320, Note_on_c, 15, 46, 72
22, 94559, Note_on_c, 15, 74, 0
22, 94559, Note_on_c, 15, 58, 0
22, 94559, Note_on_c, 15, 65, 0
22, 94559, Note_on_c, 15, 46, 0
22, 94680, Note_on_c, 15, 46, 72
22, 94680, Note_on_c, 15, 74, 72
22, 94680, Note_on_c, 15, 58, 72
22, 94680, Note_on_c, 15, 65, 72
22, 94799, Note_on_c, 15, 46, 0
22, 94799, Note_on_c, 15, 74, 0
22, 94799, Note_on_c, 15, 58, 0
22, 94799, Note_on_c, 15, 65, 0
22, 94800, Note_on_c, 15, 67, 72
22, 94800, Note_on_c, 15, 48, 72
22, 94800, Note_on_c, 15, 64, 72
22, 94800, Note_on_c, 15, 70, 72
22, 95039, Note_on_c, 15, 67, 0
22, 95039, Note_on_c, 15, 64, 0
22, 95039, Note_on_c, 15, 70, 0
22, 95040, Note_on_c, 15, 69, 72
22, 95040, Note_on_c, 15, 64, 72
22, 95159, Note_on_c, 15, 48, 0
22, 95160, Note_on_c, 15, 46, 72
22, 95219, Note_on_c, 15, 46, 0
22, 95220, Note_on_c, 15, 48, 72
22, 95279, Note_on_c, 15, 69, 0
22, 95279, Note_on_c, 15, 64, 0
22, 95279, Note_on_c, 15, 48, 0
22, 95280, Note_on_c, 15, 65, 72
22, 95280, Note_on_c, 15, 50, 72
22, 95280, Note_on_c, 15, 70, 72
22, 95399, Note_on_c, 15, 50, 0
22, 95400, Note_on_c, 15, 58, 72
22, 95459, Note_on_c, 15, 58, 0
22, 95460, Note_on_c, 15, 57, 72
22, 95519, Note_on_c, 15, 65, 0
22, 95519, Note_on_c, 15, 70, 0
22, 95519, Note_on_c, 15, 57, 0
22, 95520, Note_on_c, 15, 64, 72
22, 95520, Note_on_c, 15, 55, 72
22, 95520, Note_on_c, 15, 70, 72
22, 95639, Note_on_c, 15, 64, 0
22, 95639, Note_on_c, 15, 55, 0
22, 95639, Note_on_c, 15, 70, 0
22, 95640, Note_on_c, 15, 65, 72
22, 95640, Note_on_c, 15, 53, 72
22, 95640, Note_on_c, 15, 70, 72
22, 95759, Note_on_c, 15, 65, 0
22, 95759, Note_on_c, 15, 53, 0
22, 95759, Note_on_c, 15, 70, 0
22, 95760, Note_on_c, 15, 52, 72
22, 95760, Note_on_c, 15, 72, 72
22, 95760, Note_on_c, 15, 67, 72
22, 95760, Note_on_c, 15, 70, 72
22, 95879, Note_on_c, 15, 52, 0
22, 95880, Note_on_c, 15, 55, 72
22, 95999, Note_on_c, 15, 72, 0
22, 95999, Note_on_c, 15, 67, 0
22, 95999, Note_on_c, 15, 70, 0
22, 95999, Note_on_c, 15, 55, 0
22, 96000, Note_on_c, 15, 65, 72
22, 96000, Note_on_c, 15, 72, 72
22, 96000, Note_on_c, 15, 68, 72
22, 96000, Note_on_c, 15, 48, 72
22, 96119, Note_on_c, 15, 65, 0
22, 96119, Note_on_c, 15, 72, 0
22, 96119, Note_on_c, 15, 68, 0
22, 96120, Note_on_c, 15, 67, 72
22, 96120, Note_on_c, 15, 72, 72
22, 96120, Note_on_c, 15, 64, 72
22, 96239, Note_on_c, 15, 48, 0
22, 96239, Note_on_c, 15, 67, 0
22, 96239, Note_on_c, 15, 72, 0
22, 96239, Note_on_c, 15, 64, 0
22, 96360, Note_on_c, 15, 72, 72
22, 96360, Note_on_c, 15, 68, 72
22, 96360, Note_on_c, 15, 53, 72
22, 96479, Note_on_c, 15, 72, 0
22, 96479, Note_on_c, 15, 68, 0
22, 96479, Note_on_c, 15, 53, 0
22, 96480, Note_on_c, 15, 58, 72
22, 96480, Note_on_c, 15, 73, 72
22, 96480, Note_on_c, 15, 65, 72
22, 96599, Note_on_c, 15, 58, 0
22, 96600, Note_on_c, 15, 55, 72
22, 96719, Note_on_c, 15, 73, 0
22, 96719, Note_on_c, 15, 65, 0
22, 96719, Note_on_c, 15, 55, 0
22, 96720, Note_on_c, 15, 60, 72
22, 96720, Note_on_c, 15, 64, 72
22, 96720, Note_on_c, 15, 67, 72
22, 96839, Note_on_c, 15, 60, 0
22, 96840, Note_on_c, 15, 48, 72
22, 96840, Note_on_c, 15, 60, 72
22, 96959, Note_on_c, 15, 48, 0
22, 96960, Note_on_c, 15, 48, 72
22, 97079, Note_on_c, 15, 48, 0
22, 97080, Note_on_c, 15, 48, 72
22, 97199, Note_on_c, 15, 64, 0
22, 97199, Note_on_c, 15, 67, 0
22, 97199, Note_on_c, 15, 60, 0
22, 97199, Note_on_c, 15, 48, 0
22, 97200, Note_on_c, 15, 65, 72
22, 97200, Note_on_c, 15, 49, 72
22, 97200, Note_on_c, 15, 69, 72
22, 97259, Note_on_c, 15, 49, 0
22, 97260, Note_on_c, 15, 51, 72
22, 97319, Note_on_c, 15, 51, 0
22, 97320, Note_on_c, 15, 49, 72
22, 97379, Note_on_c, 15, 49, 0
22, 97380, Note_on_c, 15, 48, 72
22, 97439, Note_on_c, 15, 65, 0
22, 97439, Note_on_c, 15, 69, 0
22, 97439, Note_on_c, 15, 48, 0
22, 97440, Note_on_c, 15, 50, 72
22, 97440, Note_on_c, 15, 65, 72
22, 97440, Note_on_c, 15, 70, 72
22, 97499, Note_on_c, 15, 50, 0
22, 97500, Note_on_c, 15, 51, 72
22, 97559, Note_on_c, 15, 65, 0
22, 97559, Note_on_c, 15, 70, 0
22, 97559, Note_on_c, 15, 51, 0
22, 97560, Note_on_c, 15, 48, 72
22, 97560, Note_on_c, 15, 65, 72
22, 97560, Note_on_c, 15, 68, 72
22, 97619, Note_on_c, 15, 48, 0
22, 97620, Note_on_c, 15, 50, 72
22, 97679, Note_on_c, 15, 65, 0
22, 97679, Note_on_c, 15, 68, 0
22, 97679, Note_on_c, 15, 50, 0
22, 97680, Note_on_c, 15, 51, 72
22, 97680, Note_on_c, 15, 67, 72
22, 97680, Note_on_c, 15, 70, 72
22, 97739, Note_on_c, 15, 51, 0
22, 97740, Note_on_c, 15, 53, 72
22, 97799, Note_on_c, 15, 67, 0
22, 97799, Note_on_c, 15, 70, 0
22, 97799, Note_on_c, 15, 53, 0
22, 97800, Note_on_c, 15, 51, 72
22, 97800, Note_on_c, 15, 72, 72
22, 97800, Note_on_c, 15, 67, 72
22, 97859, Note_on_c, 15, 51, 0
22, 97860, Note_on_c, 15, 50, 72
22, 97919, Note_on_c, 15, 72, 0
22, 97919, Note_on_c, 15, 67, 0
22, 97919, Note_on_c, 15, 50, 0
22, 97920, Note_on_c, 15, 52, 72
22, 97920, Note_on_c, 15, 67, 72
22, 97920, Note_on_c, 15, 72, 72
22, 97979, Note_on_c, 15, 52, 0
22, 97980, Note_on_c, 15, 53, 72
22, 98039, Note_on_c, 15, 67, 0
22, 98039, Note_on_c, 15, 72, 0
22, 98039, Note_on_c, 15, 53, 0
22, 98040, Note_on_c, 15, 67, 72
22, 98040, Note_on_c, 15, 50, 72
22, 98040, Note_on_c, 15, 70, 72
22, 98099, Note_on_c, 15, 50, 0
22, 98100, Note_on_c, 15, 52, 72
22, 98159, Note_on_c, 15, 67, 0
22, 98159, Note_on_c, 15, 70, 0
22, 98159, Note_on_c, 15, 52, 0
22, 98160, Note_on_c, 15, 53, 72
22, 98160, Note_on_c, 15, 68, 72
22, 98160, Note_on_c, 15, 72, 72
22, 98160, Note_on_c, 15, 65, 72
22, 98279, Note_on_c, 15, 53, 0
22, 98280, Note_on_c, 15, 48, 72
22, 98399, Note_on_c, 15, 68, 0
22, 98399, Note_on_c, 15, 72, 0
22, 98399, Note_on_c, 15, 65, 0
22, 98399, Note_on_c, 15, 48, 0
22, 98400, Note_on_c, 15, 53, 72
22, 98400, Note_on_c, 15, 69, 72
22, 98400, Note_on_c, 15, 72, 72
22, 98400, Note_on_c, 15, 65, 72
22, 98519, Note_on_c, 15, 53, 0
22, 98520, Note_on_c, 15, 51, 72
22, 98639, Note_on_c, 15, 69, 0
22, 98639, Note_on_c, 15, 72, 0
22, 98639, Note_on_c, 15, 65, 0
22, 98639, Note_on_c, 15, 51, 0
22, 98640, Note_on_c, 15, 50, 72
22, 98640, Note_on_c, 15, 65, 72
22, 98640, Note_on_c, 15, 70, 72
22, 98759, Note_on_c, 15, 50, 0
22, 98760, Note_on_c, 15, 43, 72
22, 98879, Note_on_c, 15, 65, 0
22, 98879, Note_on_c, 15, 70, 0
22, 98879, Note_on_c, 15, 43, 0
22, 98880, Note_on_c, 15, 55, 72
22, 98880, Note_on_c, 15, 71, 72
22, 98880, Note_on_c, 15, 62, 72
22, 98999, Note_on_c, 15, 55, 0
22, 99000, Note_on_c, 15, 53, 72
22, 99119, Note_on_c, 15, 71, 0
22, 99119, Note_on_c, 15, 62, 0
22, 99119, Note_on_c, 15, 53, 0
22, 99120, Note_on_c, 15, 51, 72
22, 99120, Note_on_c, 15, 67, 72
22, 99120, Note_on_c, 15, 60, 72
22, 99239, Note_on_c, 15, 51, 0
22, 99239, Note_on_c, 15, 67, 0
22, 99239, Note_on_c, 15, 60, 0
22, 99240, Note_on_c, 15, 70, 72
22, 99240, Note_on_c, 15, 62, 72
22, 99240, Note_on_c, 15, 55, 72
22, 99359, Note_on_c, 15, 70, 0
22, 99359, Note_on_c, 15, 62, 0
22, 99359, Note_on_c, 15, 55, 0
22, 99360, Note_on_c, 15, 67, 72
22, 99360, Note_on_c, 15, 60, 72
22, 99360, Note_on_c, 15, 64, 72
22, 99479, Note_on_c, 15, 60, 0
22, 99480, Note_on_c, 15, 58, 72
22, 99599, Note_on_c, 15, 67, 0
22, 99599, Note_on_c, 15, 64, 0
22, 99599, Note_on_c, 15, 58, 0
22, 99600, Note_on_c, 15, 60, 72
22, 99600, Note_on_c, 15, 57, 72
22, 99600, Note_on_c, 15, 65, 72
22, 99719, Note_on_c, 15, 57, 0
22, 99720, Note_on_c, 15, 50, 72
22, 99839, Note_on_c, 15, 60, 0
22, 99839, Note_on_c, 15, 65, 0
22, 99839, Note_on_c, 15, 50, 0
22, 99840, Note_on_c, 15, 62, 72
22, 99840, Note_on_c, 15, 69, 72
22, 99840, Note_on_c, 15, 66, 72
22, 99959, Note_on_c, 15, 62, 0
22, 99960, Note_on_c, 15, 60, 72
22, 100079, Note_on_c, 15, 69, 0
22, 100079, Note_on_c, 15, 66, 0
22, 100079, Note_on_c, 15, 60, 0
22, 100080, Note_on_c, 15, 58, 72
22, 100080, Note_on_c, 15, 74, 72
22, 100080, Note_on_c, 15, 67, 72
22, 100199, Note_on_c, 15, 58, 0
22, 100200, Note_on_c, 15, 62, 72
22, 100319, Note_on_c, 15, 74, 0
22, 100319, Note_on_c, 15, 67, 0
22, 100319, Note_on_c, 15, 62, 0
22, 100320, Note_on_c, 15, 74, 72
22, 100320, Note_on_c, 15, 67, 72
22, 100320, Note_on_c, 15, 71, 72
22, 100439, Note_on_c, 15, 67, 0
22, 100440, Note_on_c, 15, 65, 72
22, 100559, Note_on_c, 15, 74, 0
22, 100559, Note_on_c, 15, 71, 0
22, 100559, Note_on_c, 15, 65, 0
22, 100560, Note_on_c, 15, 67, 72
22, 100560, Note_on_c, 15, 64, 72
22, 100560, Note_on_c, 15, 72, 72
22, 100679, Note_on_c, 15, 67, 0
22, 100679, Note_on_c, 15, 64, 0
22, 100679, Note_on_c, 15, 72, 0
22, 100680, Note_on_c, 15, 69, 72
22, 100680, Note_on_c, 15, 72, 72
22, 100680, Note_on_c, 15, 52, 72
22, 100799, Note_on_c, 15, 72, 0
22, 100799, Note_on_c, 15, 52, 0
22, 100800, Note_on_c, 15, 52, 72
22, 100800, Note_on_c, 15, 73, 72
22, 100919, Note_on_c, 15, 69, 0
22, 100919, Note_on_c, 15, 52, 0
22, 100920, Note_on_c, 15, 52, 72
22, 100920, Note_on_c, 15, 67, 72
22, 101039, Note_on_c, 15, 73, 0
22, 101039, Note_on_c, 15, 52, 0
22, 101039, Note_on_c, 15, 67, 0
22, 101040, Note_on_c, 15, 57, 72
22, 101040, Note_on_c, 15, 65, 72
22, 101040, Note_on_c, 15, 74, 72
22, 101040, Note_on_c, 15, 53, 72
22, 101099, Note_on_c, 15, 53, 0
22, 101100, Note_on_c, 15, 55, 72
22, 101159, Note_on_c, 15, 55, 0
22, 101160, Note_on_c, 15, 53, 72
22, 101219, Note_on_c, 15, 53, 0
22, 101220, Note_on_c, 15, 52, 72
22, 101279, Note_on_c, 15, 57, 0
22, 101279, Note_on_c, 15, 65, 0
22, 101279, Note_on_c, 15, 74, 0
22, 101279, Note_on_c, 15, 52, 0
22, 101280, Note_on_c, 15, 74, 72
22, 101280, Note_on_c, 15, 57, 72
22, 101280, Note_on_c, 15, 54, 72
22, 101280, Note_on_c, 15, 69, 72
22, 101339, Note_on_c, 15, 54, 0
22, 101340, Note_on_c, 15, 55, 72
22, 101399, Note_on_c, 15, 74, 0
22, 101399, Note_on_c, 15, 57, 0
22, 101399, Note_on_c, 15, 69, 0
22, 101399, Note_on_c, 15, 55, 0
22, 101400, Note_on_c, 15, 52, 72
22, 101400, Note_on_c, 15, 72, 72
22, 101400, Note_on_c, 15, 69, 72
22, 101400, Note_on_c, 15, 64, 72
22, 101459, Note_on_c, 15, 52, 0
22, 101460, Note_on_c, 15, 54, 72
22, 101519, Note_on_c, 15, 72, 0
22, 101519, Note_on_c, 15, 69, 0
22, 101519, Note_on_c, 15, 64, 0
22, 101519, Note_on_c, 15, 54, 0
22, 101520, Note_on_c, 15, 55, 72
22, 101520, Note_on_c, 15, 59, 72
22, 101520, Note_on_c, 15, 62, 72
22, 101520, Note_on_c, 15, 71, 72
22, 101579, Note_on_c, 15, 55, 0
22, 101580, Note_on_c, 15, 57, 72
22, 101639, Note_on_c, 15, 59, 0
22, 101639, Note_on_c, 15, 62, 0
22, 101639, Note_on_c, 15, 71, 0
22, 101639, Note_on_c, 15, 57, 0
22, 101640, Note_on_c, 15, 64, 72
22, 101640, Note_on_c, 15, 59, 72
22, 101640, Note_on_c, 15, 71, 72
22, 101640, Note_on_c, 15, 55, 72
22, 101699, Note_on_c, 15, 55, 0
22, 101700, Note_on_c, 15, 54, 72
22, 101759, Note_on_c, 15, 64, 0
22, 101759, Note_on_c, 15, 59, 0
22, 101759, Note_on_c, 15, 71, 0
22, 101759, Note_on_c, 15, 54, 0
22, 101760, Note_on_c, 15, 68, 72
22, 101760, Note_on_c, 15, 71, 72
22, 101760, Note_on_c, 15, 74, 72
22, 101760, Note_on_c, 15, 56, 72
22, 101819, Note_on_c, 15, 56, 0
22, 101820, Note_on_c, 15, 57, 72
22, 101879, Note_on_c, 15, 68, 0
22, 101879, Note_on_c, 15, 74, 0
22, 101879, Note_on_c, 15, 57, 0
22, 101880, Note_on_c, 15, 66, 72
22, 101880, Note_on_c, 15, 54, 72
22, 101880, Note_on_c, 15, 74, 72
22, 101939, Note_on_c, 15, 54, 0
22, 101940, Note_on_c, 15, 55, 72
22, 101999, Note_on_c, 15, 71, 0
22, 101999, Note_on_c, 15, 66, 0
22, 101999, Note_on_c, 15, 74, 0
22, 101999, Note_on_c, 15, 55, 0
22, 102000, Note_on_c, 15, 57, 72
22, 102000, Note_on_c, 15, 73, 72
22, 102000, Note_on_c, 15, 64, 72
22, 102000, Note_on_c, 15, 61, 72
22, 102239, Note_on_c, 15, 73, 0
22, 102239, Note_on_c, 15, 64, 0
22, 102239, Note_on_c, 15, 61, 0
22, 102240, Note_on_c, 15, 59, 72
22, 102240, Note_on_c, 15, 62, 72
22, 102359, Note_on_c, 15, 57, 0
22, 102359, Note_on_c, 15, 59, 0
22, 102359, Note_on_c, 15, 62, 0
22, 102360, Note_on_c, 15, 61, 72
22, 102360, Note_on_c, 15, 57, 72
22, 102360, Note_on_c, 15, 64, 72
22, 102479, Note_on_c, 15, 61, 0
22, 102479, Note_on_c, 15, 57, 0
22, 102479, Note_on_c, 15, 64, 0
22, 102480, Note_on_c, 15, 62, 72
22, 102480, Note_on_c, 15, 53, 72
22, 102480, Note_on_c, 15, 69, 72
22, 102719, Note_on_c, 15, 62, 0
22, 102719, Note_on_c, 15, 53, 0
22, 102719, Note_on_c, 15, 69, 0
22, 102720, Note_on_c, 15, 58, 72
22, 102720, Note_on_c, 15, 62, 72
22, 102720, Note_on_c, 15, 67, 72
22, 102959, Note_on_c, 15, 58, 0
22, 102959, Note_on_c, 15, 62, 0
22, 102959, Note_on_c, 15, 67, 0
22, 102960, Note_on_c, 15, 49, 72
22, 102960, Note_on_c, 15, 64, 72
22, 102960, Note_on_c, 15, 69, 72
22, 103079, Note_on_c, 15, 69, 0
22, 103080, Note_on_c, 15, 70, 72
22, 103080, Note_on_c, 15, 76, 72
22, 103199, Note_on_c, 15, 70, 0
22, 103199, Note_on_c, 15, 76, 0
22, 103200, Note_on_c, 15, 69, 72
22, 103200, Note_on_c, 15, 76, 72
22, 103319, Note_on_c, 15, 49, 0
22, 103319, Note_on_c, 15, 69, 0
22, 103319, Note_on_c, 15, 76, 0
22, 103320, Note_on_c, 15, 76, 72
22, 103320, Note_on_c, 15, 49, 72
22, 103320, Note_on_c, 15, 67, 72
22, 103439, Note_on_c, 15, 64, 0
22, 103439, Note_on_c, 15, 76, 0
22, 103439, Note_on_c, 15, 49, 0
22, 103439, Note_on_c, 15, 67, 0
22, 103440, Note_on_c, 15, 77, 72
22, 103440, Note_on_c, 15, 65, 72
22, 103440, Note_on_c, 15, 69, 72
22, 103440, Note_on_c, 15, 50, 72
22, 103679, Note_on_c, 15, 77, 0
22, 103679, Note_on_c, 15, 65, 0
22, 103679, Note_on_c, 15, 69, 0
22, 103679, Note_on_c, 15, 50, 0
22, 103680, Note_on_c, 15, 65, 72
22, 103680, Note_on_c, 15, 70, 72
22, 103799, Note_on_c, 15, 70, 0
22, 103800, Note_on_c, 15, 50, 72
22, 103800, Note_on_c, 15, 69, 72
22, 103919, Note_on_c, 15, 65, 0
22, 103919, Note_on_c, 15, 50, 0
22, 103919, Note_on_c, 15, 69, 0
22, 103920, Note_on_c, 15, 52, 72
22, 103920, Note_on_c, 15, 67, 72
22, 103920, Note_on_c, 15, 74, 72
22, 103920, Note_on_c, 15, 58, 72
22, 104159, Note_on_c, 15, 74, 0
22, 104159, Note_on_c, 15, 58, 0
22, 104160, Note_on_c, 15, 73, 72
22, 104279, Note_on_c, 15, 52, 0
22, 104280, Note_on_c, 15, 50, 72
22, 104339, Note_on_c, 15, 50, 0
22, 104340, Note_on_c, 15, 52, 72
22, 104399, Note_on_c, 15, 67, 0
22, 104399, Note_on_c, 15, 73, 0
22, 104399, Note_on_c, 15, 52, 0
22, 104400, Note_on_c, 15, 69, 72
22, 104400, Note_on_c, 15, 53, 72
22, 104400, Note_on_c, 15, 62, 72
22, 104400, Note_on_c, 15, 65, 72
22, 104519, Note_on_c, 15, 53, 0
22, 104520, Note_on_c, 15, 52, 72
22, 104579, Note_on_c, 15, 52, 0
22, 104580, Note_on_c, 15, 53, 72
22, 104639, Note_on_c, 15, 69, 0
22, 104639, Note_on_c, 15, 62, 0
22, 104639, Note_on_c, 15, 65, 0
22, 104639, Note_on_c, 15, 53, 0
22, 104640, Note_on_c, 15, 64, 72
22, 104640, Note_on_c, 15, 55, 72
22, 104640, Note_on_c, 15, 70, 72
22, 104640, Note_on_c, 15, 67, 72
22, 104759, Note_on_c, 15, 55, 0
22, 104760, Note_on_c, 15, 53, 72
22, 104819, Note_on_c, 15, 53, 0
22, 104820, Note_on_c, 15, 55, 72
22, 104879, Note_on_c, 15, 64, 0
22, 104879, Note_on_c, 15, 70, 0
22, 104879, Note_on_c, 15, 67, 0
22, 104879, Note_on_c, 15, 55, 0
22, 104880, Note_on_c, 15, 64, 72
22, 104880, Note_on_c, 15, 57, 72
22, 104880, Note_on_c, 15, 73, 72
22, 104999, Note_on_c, 15, 64, 0
22, 104999, Note_on_c, 15, 57, 0
22, 104999, Note_on_c, 15, 73, 0
22, 105000, Note_on_c, 15, 65, 72
22, 105000, Note_on_c, 15, 58, 72
22, 105000, Note_on_c, 15, 62, 72
22, 105059, Note_on_c, 15, 58, 0
22, 105060, Note_on_c, 15, 57, 72
22, 105119, Note_on_c, 15, 65, 0
22, 105119, Note_on_c, 15, 62, 0
22, 105119, Note_on_c, 15, 57, 0
22, 105120, Note_on_c, 15, 70, 72
22, 105120, Note_on_c, 15, 55, 72
22, 105120, Note_on_c, 15, 76, 72
22, 105120, Note_on_c, 15, 61, 72
22, 105179, Note_on_c, 15, 55, 0
22, 105180, Note_on_c, 15, 53, 72
22, 105239, Note_on_c, 15, 53, 0
22, 105240, Note_on_c, 15, 52, 72
22, 105299, Note_on_c, 15, 52, 0
22, 105300, Note_on_c, 15, 50, 72
22, 105359, Note_on_c, 15, 70, 0
22, 105359, Note_on_c, 15, 76, 0
22, 105359, Note_on_c, 15, 61, 0
22, 105359, Note_on_c, 15, 50, 0
22, 105360, Note_on_c, 15, 76, 72
22, 105360, Note_on_c, 15, 49, 72
22, 105360, Note_on_c, 15, 67, 72
22, 105360, Note_on_c, 15, 70, 72
22, 105599, Note_on_c, 15, 76, 0
22, 105599, Note_on_c, 15, 49, 0
22, 105599, Note_on_c, 15, 67, 0
22, 105599, Note_on_c, 15, 70, 0
22, 105600, Note_on_c, 15, 50, 72
22, 105600, Note_on_c, 15, 69, 72
22, 105600, Note_on_c, 15, 65, 72
22, 105600, Note_on_c, 15, 57, 72
22, 105719, Note_on_c, 15, 50, 0
22, 105719, Note_on_c, 15, 69, 0
22, 105719, Note_on_c, 15, 65, 0
22, 105719, Note_on_c, 15, 57, 0
22, 105720, Note_on_c, 15, 76, 72
22, 105720, Note_on_c, 15, 57, 72
22, 105720, Note_on_c, 15, 61, 72
22, 105839, Note_on_c, 15, 76, 0
22, 105839, Note_on_c, 15, 57, 0
22, 105839, Note_on_c, 15, 61, 0
22, 105840, Note_on_c, 15, 74, 72
22, 105840, Note_on_c, 15, 58, 72
22, 105840, Note_on_c, 15, 65, 72
22, 105840, Note_on_c, 15, 69, 72
22, 106079, Note_on_c, 15, 58, 0
22, 106079, Note_on_c, 15, 65, 0
22, 106079, Note_on_c, 15, 69, 0
22, 106080, Note_on_c, 15, 46, 72
22, 106080, Note_on_c, 15, 68, 72
22, 106080, Note_on_c, 15, 64, 72
22, 106199, Note_on_c, 15, 74, 0
22, 106199, Note_on_c, 15, 64, 0
22, 106200, Note_on_c, 15, 74, 72
22, 106319, Note_on_c, 15, 46, 0
22, 106319, Note_on_c, 15, 68, 0
22, 106319, Note_on_c, 15, 74, 0
22, 106320, Note_on_c, 15, 45, 72
22, 106320, Note_on_c, 15, 73, 72
22, 106320, Note_on_c, 15, 64, 72
22, 106320, Note_on_c, 15, 69, 72
22, 106439, Note_on_c, 15, 45, 0
22, 106440, Note_on_c, 15, 57, 72
22, 106559, Note_on_c, 15, 73, 0
22, 106559, Note_on_c, 15, 64, 0
22, 106559, Note_on_c, 15, 69, 0
22, 106559, Note_on_c, 15, 57, 0
22, 106560, Note_on_c, 15, 74, 72
22, 106560, Note_on_c, 15, 59, 72
22, 106560, Note_on_c, 15, 65, 72
22, 106560, Note_on_c, 15, 69, 72
22, 106679, Note_on_c, 15, 74, 0
22, 106679, Note_on_c, 15, 59, 0
22, 106679, Note_on_c, 15, 65, 0
22, 106679, Note_on_c, 15, 69, 0
22, 106680, Note_on_c, 15, 61, 72
22, 106680, Note_on_c, 15, 76, 72
22, 106680, Note_on_c, 15, 69, 72
22, 106799, Note_on_c, 15, 61, 0
22, 106799, Note_on_c, 15, 76, 0
22, 106799, Note_on_c, 15, 69, 0
22, 106800, Note_on_c, 15, 62, 72
22, 106800, Note_on_c, 15, 65, 72
22, 106800, Note_on_c, 15, 69, 72
22, 106919, Note_on_c, 15, 62, 0
22, 106920, Note_on_c, 15, 50, 72
22, 107039, Note_on_c, 15, 65, 0
22, 107039, Note_on_c, 15, 69, 0
22, 107039, Note_on_c, 15, 50, 0
22, 107040, Note_on_c, 15, 62, 72
22, 107040, Note_on_c, 15, 55, 72
22, 107040, Note_on_c, 15, 70, 72
22, 107159, Note_on_c, 15, 55, 0
22, 107160, Note_on_c, 15, 52, 72
22, 107279, Note_on_c, 15, 62, 0
22, 107279, Note_on_c, 15, 70, 0
22, 107279, Note_on_c, 15, 52, 0
22, 107280, Note_on_c, 15, 57, 72
22, 107280, Note_on_c, 15, 61, 72
22, 107280, Note_on_c, 15, 64, 72
22, 107399, Note_on_c, 15, 57, 0
22, 107400, Note_on_c, 15, 70, 72
22, 107400, Note_on_c, 15, 45, 72
22, 107519, Note_on_c, 15, 70, 0
22, 107519, Note_on_c, 15, 45, 0
22, 107520, Note_on_c, 15, 69, 72
22, 107520, Note_on_c, 15, 45, 72
22, 107639, Note_on_c, 15, 69, 0
22, 107639, Note_on_c, 15, 45, 0
22, 107640, Note_on_c, 15, 45, 72
22, 107640, Note_on_c, 15, 67, 72
22, 107759, Note_on_c, 15, 61, 0
22, 107759, Note_on_c, 15, 64, 0
22, 107759, Note_on_c, 15, 45, 0
22, 107759, Note_on_c, 15, 67, 0
22, 107760, Note_on_c, 15, 53, 72
22, 107760, Note_on_c, 15, 46, 72
22, 107760, Note_on_c, 15, 62, 72
22, 107819, Note_on_c, 15, 46, 0
22, 107820, Note_on_c, 15, 48, 72
22, 107879, Note_on_c, 15, 48, 0
22, 107880, Note_on_c, 15, 46, 72
22, 107939, Note_on_c, 15, 46, 0
22, 107940, Note_on_c, 15, 45, 72
22, 107999, Note_on_c, 15, 53, 0
22, 107999, Note_on_c, 15, 62, 0
22, 107999, Note_on_c, 15, 45, 0
22, 108000, Note_on_c, 15, 47, 72
22, 108000, Note_on_c, 15, 62, 72
22, 108000, Note_on_c, 15, 55, 72
22, 108059, Note_on_c, 15, 47, 0
22, 108060, Note_on_c, 15, 48, 72
22, 108119, Note_on_c, 15, 62, 0
22, 108119, Note_on_c, 15, 55, 0
22, 108119, Note_on_c, 15, 48, 0
22, 108120, Note_on_c, 15, 45, 72
22, 108120, Note_on_c, 15, 62, 72
22, 108120, Note_on_c, 15, 53, 72
22, 108179, Note_on_c, 15, 45, 0
22, 108180, Note_on_c, 15, 47, 72
22, 108239, Note_on_c, 15, 62, 0
22, 108239, Note_on_c, 15, 53, 0
22, 108239, Note_on_c, 15, 47, 0
22, 108240, Note_on_c, 15, 67, 72
22, 108240, Note_on_c, 15, 48, 72
22, 108240, Note_on_c, 15, 64, 72
22, 108299, Note_on_c, 15, 48, 0
22, 108300, Note_on_c, 15, 50, 72
22, 108359, Note_on_c, 15, 67, 0
22, 108359, Note_on_c, 15, 64, 0
22, 108359, Note_on_c, 15, 50, 0
22, 108360, Note_on_c, 15, 48, 72
22, 108360, Note_on_c, 15, 64, 72
22, 108360, Note_on_c, 15, 69, 72
22, 108419, Note_on_c, 15, 48, 0
22, 108420, Note_on_c, 15, 47, 72
22, 108479, Note_on_c, 15, 47, 0
22, 108480, Note_on_c, 15, 49, 72
22, 108539, Note_on_c, 15, 49, 0
22, 108540, Note_on_c, 15, 50, 72
22, 108599, Note_on_c, 15, 50, 0
22, 108600, Note_on_c, 15, 47, 72
22, 108659, Note_on_c, 15, 47, 0
22, 108660, Note_on_c, 15, 49, 72
22, 108719, Note_on_c, 15, 64, 0
22, 108719, Note_on_c, 15, 69, 0
22, 108719, Note_on_c, 15, 49, 0
22, 108720, Note_on_c, 15, 70, 72
22, 108720, Note_on_c, 15, 53, 72
22, 108720, Note_on_c, 15, 50, 72
22, 108720, Note_on_c, 15, 65, 72
22, 108839, Note_on_c, 15, 50, 0
22, 108840, Note_on_c, 15, 50, 72
22, 108959, Note_on_c, 15, 70, 0
22, 108959, Note_on_c, 15, 53, 0
22, 108959, Note_on_c, 15, 65, 0
22, 108959, Note_on_c, 15, 50, 0
22, 108960, Note_on_c, 15, 71, 72
22, 108960, Note_on_c, 15, 55, 72
22, 108960, Note_on_c, 15, 62, 72
22, 109079, Note_on_c, 15, 55, 0
22, 109080, Note_on_c, 15, 53, 72
22, 109199, Note_on_c, 15, 71, 0
22, 109199, Note_on_c, 15, 62, 0
22, 109199, Note_on_c, 15, 53, 0
22, 109200, Note_on_c, 15, 52, 72
22, 109200, Note_on_c, 15, 55, 72
22, 109200, Note_on_c, 15, 72, 72
22, 109319, Note_on_c, 15, 52, 0
22, 109320, Note_on_c, 15, 52, 72
22, 109439, Note_on_c, 15, 55, 0
22, 109439, Note_on_c, 15, 72, 0
22, 109439, Note_on_c, 15, 52, 0
22, 109440, Note_on_c, 15, 64, 72
22, 109440, Note_on_c, 15, 57, 72
22, 109440, Note_on_c, 15, 73, 72
22, 109559, Note_on_c, 15, 57, 0
22, 109560, Note_on_c, 15, 55, 72
22, 109679, Note_on_c, 15, 64, 0
22, 109679, Note_on_c, 15, 73, 0
22, 109679, Note_on_c, 15, 55, 0
22, 109680, Note_on_c, 15, 74, 72
22, 109680, Note_on_c, 15, 53, 72
22, 109680, Note_on_c, 15, 69, 72
22, 109799, Note_on_c, 15, 53, 0
22, 109800, Note_on_c, 15, 57, 72
22, 109919, Note_on_c, 15, 74, 0
22, 109919, Note_on_c, 15, 69, 0
22, 109919, Note_on_c, 15, 57, 0
22, 109920, Note_on_c, 15, 66, 72
22, 109920, Note_on_c, 15, 62, 72
22, 109920, Note_on_c, 15, 70, 72
22, 110039, Note_on_c, 15, 66, 0
22, 110039, Note_on_c, 15, 62, 0
22, 110039, Note_on_c, 15, 70, 0
22, 110040, Note_on_c, 15, 64, 72
22, 110040, Note_on_c, 15, 60, 72
22, 110040, Note_on_c, 15, 67, 72
22, 110159, Note_on_c, 15, 64, 0
22, 110159, Note_on_c, 15, 60, 0
22, 110159, Note_on_c, 15, 67, 0
22, 110160, Note_on_c, 15, 62, 72
22, 110160, Note_on_c, 15, 67, 72
22, 110160, Note_on_c, 15, 59, 72
22, 110279, Note_on_c, 15, 62, 0
22, 110279, Note_on_c, 15, 59, 0
22, 110280, Note_on_c, 15, 59, 72
22, 110280, Note_on_c, 15, 76, 72
22, 110399, Note_on_c, 15, 67, 0
22, 110399, Note_on_c, 15, 59, 0
22, 110399, Note_on_c, 15, 76, 0
22, 110400, Note_on_c, 15, 64, 72
22, 110400, Note_on_c, 15, 68, 72
22, 110400, Note_on_c, 15, 70, 72
22, 110519, Note_on_c, 15, 64, 0
22, 110520, Note_on_c, 15, 52, 72
22, 110520, Note_on_c, 15, 62, 72
22, 110639, Note_on_c, 15, 68, 0
22, 110639, Note_on_c, 15, 70, 0
22, 110639, Note_on_c, 15, 52, 0
22, 110639, Note_on_c, 15, 62, 0
22, 110640, Note_on_c, 15, 60, 72
22, 110640, Note_on_c, 15, 57, 72
22, 110640, Note_on_c, 15, 77, 72
22, 110759, Note_on_c, 15, 57, 0
22, 110760, Note_on_c, 15, 45, 72
22, 110879, Note_on_c, 15, 60, 0
22, 110879, Note_on_c, 15, 77, 0
22, 110879, Note_on_c, 15, 45, 0
22, 110880, Note_on_c, 15, 69, 72
22, 110880, Note_on_c, 15, 78, 72
22, 110880, Note_on_c, 15, 50, 72
22, 110880, Note_on_c, 15, 62, 72
22, 110999, Note_on_c, 15, 50, 0
22, 111000, Note_on_c, 15, 48, 72
22, 111119, Note_on_c, 15, 69, 0
22, 111119, Note_on_c, 15, 78, 0
22, 111119, Note_on_c, 15, 62, 0
22, 111119, Note_on_c, 15, 48, 0
22, 111120, Note_on_c, 15, 47, 72
22, 111120, Note_on_c, 15, 62, 72
22, 111120, Note_on_c, 15, 67, 72
22, 111120, Note_on_c, 15, 79, 72
22, 111239, Note_on_c, 15, 47, 0
22, 111240, Note_on_c, 15, 47, 72
22, 111359, Note_on_c, 15, 62, 0
22, 111359, Note_on_c, 15, 67, 0
22, 111359, Note_on_c, 15, 79, 0
22, 111359, Note_on_c, 15, 47, 0
22, 111360, Note_on_c, 15, 52, 72
22, 111360, Note_on_c, 15, 80, 72
22, 111479, Note_on_c, 15, 52, 0
22, 111480, Note_on_c, 15, 50, 72
22, 111599, Note_on_c, 15, 80, 0
22, 111599, Note_on_c, 15, 50, 0
22, 111600, Note_on_c, 15, 69, 72
22, 111600, Note_on_c, 15, 49, 72
22, 111600, Note_on_c, 15, 64, 72
22, 111719, Note_on_c, 15, 69, 0
22, 111719, Note_on_c, 15, 49, 0
22, 111719, Note_on_c, 15, 64, 0
22, 111720, Note_on_c, 15, 57, 72
22, 111720, Note_on_c, 15, 73, 72
22, 111720, Note_on_c, 15, 64, 72
22, 111720, Note_on_c, 15, 67, 72
22, 111839, Note_on_c, 15, 57, 0
22, 111839, Note_on_c, 15, 73, 0
22, 111839, Note_on_c, 15, 64, 0
22, 111839, Note_on_c, 15, 67, 0
22, 111840, Note_on_c, 15, 58, 72
22, 111840, Note_on_c, 15, 74, 72
22, 111840, Note_on_c, 15, 65, 72
22, 111959, Note_on_c, 15, 58, 0
22, 111959, Note_on_c, 15, 74, 0
22, 111959, Note_on_c, 15, 65, 0
22, 111960, Note_on_c, 15, 55, 72
22, 111960, Note_on_c, 15, 70, 72
22, 111960, Note_on_c, 15, 74, 72
22, 111960, Note_on_c, 15, 65, 72
22, 112079, Note_on_c, 15, 55, 0
22, 112079, Note_on_c, 15, 70, 0
22, 112079, Note_on_c, 15, 74, 0
22, 112079, Note_on_c, 15, 65, 0
22, 112080, Note_on_c, 15, 74, 72
22, 112080, Note_on_c, 15, 57, 72
22, 112080, Note_on_c, 15, 64, 72
22, 112080, Note_on_c, 15, 69, 72
22, 112319, Note_on_c, 15, 74, 0
22, 112319, Note_on_c, 15, 57, 0
22, 112319, Note_on_c, 15, 64, 0
22, 112319, Note_on_c, 15, 69, 0
22, 112320, Note_on_c, 15, 45, 72
22, 112320, Note_on_c, 15, 73, 72
22, 112320, Note_on_c, 15, 64, 72
22, 112320, Note_on_c, 15, 57, 72
22, 112559, Note_on_c, 15, 45, 0
22, 112559, Note_on_c, 15, 73, 0
22, 112559, Note_on_c, 15, 64, 0
22, 112559, Note_on_c, 15, 57, 0
22, 112560, Note_on_c, 15, 44, 72
22, 112560, Note_on_c, 15, 71, 72
22, 112560, Note_on_c, 15, 74, 72
22, 112560, Note_on_c, 15, 65, 72
22, 113039, Note_on_c, 15, 44, 0
22, 113039, Note_on_c, 15, 71, 0
22, 113039, Note_on_c, 15, 74, 0
22, 113039, Note_on_c, 15, 65, 0
22, 113280, Note_on_c, 15, 74, 72
22, 113280, Note_on_c, 15, 56, 72
22, 113280, Note_on_c, 15, 71, 72
22, 113280, Note_on_c, 15, 65, 72
22, 113519, Note_on_c, 15, 74, 0
22, 113519, Note_on_c, 15, 56, 0
22, 113519, Note_on_c, 15, 71, 0
22, 113519, Note_on_c, 15, 65, 0
22, 113520, Note_on_c, 15, 57, 72
22, 113520, Note_on_c, 15, 73, 72
22, 113520, Note_on_c, 15, 64, 72
22, 113520, Note_on_c, 15, 69, 72
22, 113759, Note_on_c, 15, 57, 0
22, 113759, Note_on_c, 15, 73, 0
22, 113759, Note_on_c, 15, 64, 0
22, 113759, Note_on_c, 15, 69, 0
22, 113760, Note_on_c, 15, 53, 72
22, 113760, Note_on_c, 15, 69, 72
22, 113760, Note_on_c, 15, 74, 72
22, 113879, Note_on_c, 15, 53, 0
22, 113880, Note_on_c, 15, 50, 72
22, 113999, Note_on_c, 15, 69, 0
22, 113999, Note_on_c, 15, 74, 0
22, 113999, Note_on_c, 15, 50, 0
22, 114000, Note_on_c, 15, 69, 72
22, 114000, Note_on_c, 15, 45, 72
22, 114000, Note_on_c, 15, 74, 72
22, 114000, Note_on_c, 15, 65, 72
22, 114239, Note_on_c, 15, 69, 0
22, 114239, Note_on_c, 15, 45, 0
22, 114239, Note_on_c, 15, 74, 0
22, 114239, Note_on_c, 15, 65, 0
22, 114240, Note_on_c, 15, 45, 72
22, 114240, Note_on_c, 15, 73, 72
22, 114240, Note_on_c, 15, 64, 72
22, 114240, Note_on_c, 15, 69, 72
22, 114479, Note_on_c, 15, 45, 0
22, 114479, Note_on_c, 15, 73, 0
22, 114479, Note_on_c, 15, 64, 0
22, 114479, Note_on_c, 15, 69, 0
22, 114480, Note_on_c, 15, 74, 72
22, 114480, Note_on_c, 15, 65, 72
22, 114480, Note_on_c, 15, 62, 72
22, 114480, Note_on_c, 15, 50, 72
22, 114480, Note_on_c, 15, 69, 72
22, 115439, Note_on_c, 15, 74, 0
22, 115439, Note_on_c, 15, 65, 0
22, 115439, Note_on_c, 15, 62, 0
22, 115439, Note_on_c, 15, 50, 0
22, 115439, Note_on_c, 15, 69, 0
22, 115439, End_track
0, 0, End_of_file