0, 0, Header, 1, 2, 384
1, 0, Start_track
1, 0, Time_signature, 4, 2, 96, 8
1, 0, Sequencer_specific, 03, 00, 00, 41
1, 0, Sequencer_specific, 05, 00, 00, 77, 0E, 00
1, 0, Tempo, 500000
1, 0, End_track
2, 0, Start_track
2, 0, Key_signature, 0, "major"
2, 0, Control_c, 0, 64, 127
2, 0, Control_c, 0, 64, 0
2, 0, Control_c, 0, 64, 127
2, 0, Control_c, 0, 64, 0
2, 0, Note_on_c, 0, 38, 29
2, 240, Control_c, 0, 64, 127
2, 248, Note_on_c, 0, 41, 43
2, 428, Note_on_c, 0, 45, 41
2, 616, Note_on_c, 0, 50, 48
2, 800, Note_on_c, 0, 53, 75
2, 944, Note_off_c, 0, 45, 64
2, 952, Note_off_c, 0, 53, 64
2, 956, Note_off_c, 0, 41, 64
2, 972, Note_on_c, 0, 57, 52
2, 1144, Note_off_c, 0, 57, 64
2, 1156, Note_on_c, 0, 62, 55
2, 1284, Note_on_c, 0, 41, 2
2, 1332, Note_on_c, 0, 57, 57
2, 1336, Note_on_c, 0, 45, 2
2, 1372, Note_off_c, 0, 62, 64
2, 1504, Note_off_c, 0, 57, 64
2, 1528, Note_on_c, 0, 65, 46
2, 1544, Control_c, 0, 64, 0
2, 1728, Note_on_c, 0, 62, 40
2, 1740, Control_c, 0, 64, 127
2, 1748, Note_off_c, 0, 65, 64
2, 1872, Note_off_c, 0, 62, 64
2, 1888, Note_off_c, 0, 41, 64
2, 1888, Note_off_c, 0, 45, 64
2, 1928, Note_on_c, 0, 57, 24
2, 1936, Note_off_c, 0, 50, 64
2, 1944, Note_off_c, 0, 38, 64
2, 2080, Note_off_c, 0, 57, 64
2, 2156, Note_on_c, 0, 53, 45
2, 2280, Note_off_c, 0, 53, 64
2, 2380, Note_on_c, 0, 38, 42
2, 2440, Control_c, 0, 64, 0
2, 2624, Note_on_c, 0, 41, 43
2, 2748, Control_c, 0, 64, 127
2, 2816, Note_on_c, 0, 45, 34
2, 3056, Note_on_c, 0, 50, 40
2, 3288, Note_on_c, 0, 53, 54
2, 3432, Note_off_c, 0, 53, 64
2, 3472, Note_on_c, 0, 57, 37
2, 3672, Note_on_c, 0, 62, 60
2, 3688, Note_off_c, 0, 57, 64
2, 3868, Note_on_c, 0, 57, 55
2, 3904, Note_off_c, 0, 62, 64
2, 4048, Note_off_c, 0, 57, 64
2, 4072, Note_on_c, 0, 65, 36
2, 4128, Control_c, 0, 64, 0
2, 4292, Note_on_c, 0, 62, 30
2, 4312, Control_c, 0, 64, 127
2, 4316, Note_off_c, 0, 65, 64
2, 4464, Note_off_c, 0, 62, 64
2, 4512, Note_on_c, 0, 57, 22
2, 4600, Note_off_c, 0, 57, 64
2, 4680, Note_off_c, 0, 38, 64
2, 4696, Note_off_c, 0, 41, 64
2, 4696, Note_off_c, 0, 45, 64
2, 4728, Note_off_c, 0, 50, 64
2, 4772, Note_on_c, 0, 53, 38
2, 4824, Note_off_c, 0, 53, 64
2, 4972, Note_on_c, 0, 38, 52
2, 5196, Note_on_c, 0, 43, 46
2, 5368, Control_c, 0, 64, 0
2, 5380, Note_on_c, 0, 46, 42
2, 5600, Note_on_c, 0, 50, 55
2, 5796, Note_on_c, 0, 55, 49
2, 5980, Control_c, 0, 64, 127
2, 5992, Note_on_c, 0, 58, 47
2, 6192, Note_on_c, 0, 64, 65
2, 6200, Note_off_c, 0, 58, 64
2, 6364, Note_off_c, 0, 55, 64
2, 6368, Note_on_c, 0, 58, 49
2, 6384, Note_off_c, 0, 64, 64
2, 6532, Note_off_c, 0, 58, 64
2, 6564, Note_on_c, 0, 67, 41
2, 6760, Note_off_c, 0, 67, 64
2, 6788, Note_on_c, 0, 64, 32
2, 6968, Note_off_c, 0, 64, 64
2, 6976, Note_on_c, 0, 58, 30
2, 7076, Note_off_c, 0, 38, 64
2, 7216, Note_on_c, 0, 55, 24
2, 7268, Note_off_c, 0, 58, 64
2, 7288, Note_off_c, 0, 43, 64
2, 7312, Note_off_c, 0, 55, 64
2, 7324, Note_off_c, 0, 50, 64
2, 7336, Note_off_c, 0, 46, 64
2, 7428, Note_on_c, 0, 38, 38
2, 7532, Control_c, 0, 64, 0
2, 7632, Note_on_c, 0, 43, 40
2, 7776, Control_c, 0, 64, 127
2, 7816, Note_on_c, 0, 46, 46
2, 8016, Note_on_c, 0, 50, 50
2, 8204, Note_on_c, 0, 55, 42
2, 8316, Note_off_c, 0, 55, 64
2, 8360, Note_on_c, 0, 58, 44
2, 8528, Note_off_c, 0, 58, 64
2, 8560, Note_on_c, 0, 64, 49
2, 8736, Note_off_c, 0, 64, 64
2, 8736, Note_on_c, 0, 58, 43
2, 8888, Note_off_c, 0, 58, 64
2, 8928, Note_on_c, 0, 67, 36
2, 9124, Note_off_c, 0, 67, 64
2, 9140, Note_on_c, 0, 64, 38
2, 9336, Note_on_c, 0, 58, 22
2, 9344, Note_off_c, 0, 64, 64
2, 9348, Note_off_c, 0, 50, 64
2, 9408, Note_off_c, 0, 43, 64
2, 9444, Note_off_c, 0, 46, 64
2, 9544, Note_off_c, 0, 38, 64
2, 9552, Note_on_c, 0, 55, 32
2, 9608, Note_off_c, 0, 58, 64
2, 9748, Note_on_c, 0, 36, 56
2, 9832, Note_off_c, 0, 55, 64
2, 9936, Note_on_c, 0, 42, 52
2, 10108, Note_on_c, 0, 45, 61
2, 10284, Note_on_c, 0, 48, 56
2, 10328, Note_off_c, 0, 45, 64
2, 10368, Control_c, 0, 64, 0
2, 10460, Note_on_c, 0, 57, 50
2, 10516, Control_c, 0, 64, 127
2, 10536, Note_off_c, 0, 42, 64
2, 10644, Note_on_c, 0, 62, 59
2, 10680, Note_off_c, 0, 57, 64
2, 10824, Note_on_c, 0, 66, 52
2, 10852, Note_off_c, 0, 62, 64
2, 10996, Note_on_c, 0, 62, 63
2, 11040, Note_off_c, 0, 66, 64
2, 11164, Note_off_c, 0, 62, 64
2, 11184, Note_on_c, 0, 69, 49
2, 11388, Note_on_c, 0, 66, 39
2, 11392, Note_off_c, 0, 69, 64
2, 11596, Note_off_c, 0, 66, 64
2, 11604, Note_on_c, 0, 62, 34
2, 11620, Note_off_c, 0, 36, 64
2, 11800, Note_off_c, 0, 62, 64
2, 11824, Note_on_c, 0, 57, 28
2, 11872, Note_off_c, 0, 48, 64
2, 12016, Note_on_c, 0, 36, 52
2, 12048, Note_off_c, 0, 57, 64
2, 12056, Control_c, 0, 64, 0
2, 12200, Note_on_c, 0, 42, 46
2, 12276, Control_c, 0, 64, 127
2, 12396, Note_on_c, 0, 45, 39
2, 12456, Note_off_c, 0, 42, 64
2, 12616, Note_on_c, 0, 48, 39
2, 12624, Note_off_c, 0, 45, 64
2, 12804, Note_on_c, 0, 57, 35
2, 12980, Note_off_c, 0, 57, 64
2, 12992, Note_on_c, 0, 62, 39
2, 13200, Note_off_c, 0, 62, 64
2, 13204, Note_on_c, 0, 66, 30
2, 13400, Note_on_c, 0, 62, 41
2, 13408, Note_off_c, 0, 66, 64
2, 13484, Note_off_c, 0, 62, 64
2, 13592, Note_on_c, 0, 69, 36
2, 13772, Note_off_c, 0, 36, 64
2, 13792, Note_on_c, 0, 66, 40
2, 13824, Note_off_c, 0, 69, 64
2, 13984, Note_on_c, 0, 62, 46
2, 14052, Note_off_c, 0, 66, 64
2, 14188, Note_on_c, 0, 57, 43
2, 14264, Note_off_c, 0, 62, 64
2, 14388, Note_on_c, 0, 46, 47
2, 14408, Note_off_c, 0, 48, 64
2, 14436, Note_off_c, 0, 57, 64
2, 14476, Control_c, 0, 64, 0
2, 14600, Note_on_c, 0, 50, 53
2, 14804, Note_on_c, 0, 55, 62
2, 14820, Control_c, 0, 64, 127
2, 15032, Note_on_c, 0, 62, 59
2, 15060, Note_off_c, 0, 50, 64
2, 15264, Note_on_c, 0, 69, 55
2, 15376, Note_off_c, 0, 62, 64
2, 15480, Note_on_c, 0, 67, 67
2, 15584, Note_off_c, 0, 69, 64
2, 15640, Note_on_c, 0, 45, 59
2, 15656, Note_off_c, 0, 55, 64
2, 15680, Note_off_c, 0, 46, 64
2, 15704, Control_c, 0, 64, 0
2, 15836, Note_on_c, 0, 48, 56
2, 15928, Control_c, 0, 64, 127
2, 16024, Note_on_c, 0, 53, 88
2, 16068, Note_off_c, 0, 48, 64
2, 16072, Note_off_c, 0, 67, 64
2, 16204, Note_on_c, 0, 60, 68
2, 16388, Note_on_c, 0, 67, 79
2, 16416, Note_off_c, 0, 60, 64
2, 16584, Note_on_c, 0, 65, 73
2, 16636, Note_off_c, 0, 67, 64
2, 16640, Note_off_c, 0, 53, 64
2, 16764, Note_on_c, 0, 43, 73
2, 16796, Note_off_c, 0, 45, 64
2, 16836, Control_c, 0, 64, 0
2, 16952, Note_on_c, 0, 46, 60
2, 17068, Control_c, 0, 64, 127
2, 17148, Note_on_c, 0, 51, 66
2, 17180, Note_off_c, 0, 46, 64
2, 17236, Note_off_c, 0, 65, 64
2, 17336, Note_on_c, 0, 58, 57
2, 17548, Note_off_c, 0, 58, 64
2, 17552, Note_on_c, 0, 65, 67
2, 17764, Note_on_c, 0, 63, 75
2, 17824, Note_off_c, 0, 65, 64
2, 17924, Note_on_c, 0, 44, 61
2, 17964, Note_off_c, 0, 51, 64
2, 17980, Control_c, 0, 64, 0
2, 18008, Note_off_c, 0, 43, 64
2, 18128, Note_on_c, 0, 47, 53
2, 18224, Control_c, 0, 64, 127
2, 18368, Note_on_c, 0, 53, 65
2, 18432, Note_off_c, 0, 63, 64
2, 18592, Note_on_c, 0, 59, 53
2, 18692, Control_c, 0, 64, 0
2, 18832, Note_on_c, 0, 64, 47
2, 18876, Control_c, 0, 64, 127
2, 19016, Note_off_c, 0, 47, 64
2, 19072, Note_on_c, 0, 62, 46
2, 19104, Note_off_c, 0, 64, 64
2, 19112, Note_off_c, 0, 44, 64
2, 19168, Note_off_c, 0, 59, 64
2, 19188, Note_off_c, 0, 53, 64
2, 19328, Note_on_c, 0, 45, 33
2, 19392, Control_c, 0, 64, 0
2, 19524, Note_off_c, 0, 62, 64
2, 19572, Note_on_c, 0, 49, 43
2, 19800, Control_c, 0, 64, 127
2, 19816, Note_on_c, 0, 52, 47
2, 20060, Note_off_c, 0, 49, 64
2, 20080, Note_on_c, 0, 57, 38
2, 20100, Note_off_c, 0, 52, 64
2, 20252, Note_off_c, 0, 45, 64
2, 20324, Note_on_c, 0, 61, 47
2, 20536, Note_off_c, 0, 61, 64
2, 20548, Note_on_c, 0, 64, 50
2, 20752, Note_off_c, 0, 64, 64
2, 20760, Note_on_c, 0, 69, 51
2, 20960, Note_on_c, 0, 73, 62
2, 20976, Note_off_c, 0, 69, 64
2, 21156, Note_on_c, 0, 76, 67
2, 21172, Note_off_c, 0, 73, 64
2, 21356, Note_on_c, 0, 81, 76
2, 21392, Note_off_c, 0, 76, 64
2, 21556, Note_on_c, 0, 85, 83
2, 21600, Note_off_c, 0, 57, 64
2, 21612, Note_off_c, 0, 81, 64
2, 21776, Note_on_c, 0, 88, 82
2, 21828, Note_off_c, 0, 85, 64
2, 22008, Note_on_c, 0, 87, 76
2, 22048, Note_off_c, 0, 88, 64
2, 22284, Note_on_c, 0, 88, 79
2, 22328, Note_off_c, 0, 87, 64
2, 22516, Control_c, 0, 64, 0
2, 22516, Note_on_c, 0, 84, 86
2, 22568, Note_off_c, 0, 88, 64
2, 22748, Note_on_c, 0, 85, 72
2, 22804, Note_off_c, 0, 84, 64
2, 22956, Note_on_c, 0, 80, 67
2, 23004, Note_off_c, 0, 85, 64
2, 23104, Control_c, 0, 64, 127
2, 23180, Note_on_c, 0, 81, 54
2, 23200, Note_off_c, 0, 80, 64
2, 23228, Control_c, 0, 64, 0
2, 23400, Note_on_c, 0, 75, 50
2, 23444, Note_off_c, 0, 81, 64
2, 23488, Control_c, 0, 64, 127
2, 23512, Control_c, 0, 64, 0
2, 23656, Note_on_c, 0, 76, 47
2, 23708, Control_c, 0, 64, 127
2, 23716, Note_off_c, 0, 75, 64
2, 23744, Control_c, 0, 64, 0
2, 23912, Note_on_c, 0, 72, 45
2, 23936, Note_off_c, 0, 76, 64
2, 24088, Control_c, 0, 64, 127
2, 24184, Note_on_c, 0, 73, 36
2, 24200, Control_c, 0, 64, 0
2, 24220, Note_off_c, 0, 72, 64
2, 24480, Control_c, 0, 64, 127
2, 24480, Note_on_c, 0, 68, 32
2, 24520, Control_c, 0, 64, 0
2, 24544, Note_off_c, 0, 73, 64
2, 24776, Control_c, 0, 64, 127
2, 24860, Note_off_c, 0, 68, 64
2, 24896, Note_on_c, 0, 69, 21
2, 24912, Control_c, 0, 64, 0
2, 25208, Control_c, 0, 64, 127
2, 25600, Note_on_c, 0, 33, 23
2, 25636, Control_c, 0, 64, 0
2, 25716, Note_off_c, 0, 69, 64
2, 26704, Control_c, 0, 64, 127
2, 27936, Note_off_c, 0, 33, 64
2, 28120, Control_c, 0, 64, 0
2, 28936, Note_on_c, 0, 77, 52
2, 28964, Note_on_c, 0, 62, 19
2, 29164, Control_c, 0, 64, 127
2, 29456, Note_on_c, 0, 69, 11
2, 29468, Note_on_c, 0, 65, 9
2, 29616, Note_off_c, 0, 69, 64
2, 29624, Note_off_c, 0, 65, 64
2, 29840, Note_on_c, 0, 69, 18
2, 29844, Note_on_c, 0, 65, 19
2, 29916, Note_off_c, 0, 65, 64
2, 29936, Note_off_c, 0, 69, 64
2, 30216, Note_on_c, 0, 69, 20
2, 30248, Note_on_c, 0, 65, 13
2, 30352, Note_off_c, 0, 62, 64
2, 30356, Note_off_c, 0, 65, 64
2, 30384, Note_on_c, 0, 76, 55
2, 30388, Note_off_c, 0, 77, 64
2, 30416, Note_off_c, 0, 69, 64
2, 30484, Note_on_c, 0, 77, 58
2, 30516, Note_off_c, 0, 76, 64
2, 30616, Control_c, 0, 64, 0
2, 30632, Note_on_c, 0, 79, 81
2, 30656, Note_on_c, 0, 62, 28
2, 30668, Note_off_c, 0, 77, 64
2, 30948, Control_c, 0, 64, 127
2, 31032, Note_on_c, 0, 77, 74
2, 31048, Note_on_c, 0, 69, 22
2, 31072, Note_on_c, 0, 65, 13
2, 31104, Note_off_c, 0, 79, 64
2, 31196, Note_off_c, 0, 65, 64
2, 31212, Note_off_c, 0, 69, 64
2, 31416, Control_c, 0, 64, 0
2, 31416, Note_on_c, 0, 76, 57
2, 31424, Note_on_c, 0, 69, 21
2, 31448, Note_on_c, 0, 65, 17
2, 31500, Note_off_c, 0, 77, 64
2, 31612, Note_off_c, 0, 69, 64
2, 31616, Note_off_c, 0, 65, 64
2, 31624, Control_c, 0, 64, 127
2, 31820, Control_c, 0, 64, 0
2, 31824, Note_on_c, 0, 74, 48
2, 31840, Note_on_c, 0, 69, 22
2, 31856, Note_on_c, 0, 65, 19
2, 31888, Note_off_c, 0, 76, 64
2, 32040, Control_c, 0, 64, 127
2, 32064, Note_off_c, 0, 65, 64
2, 32068, Note_off_c, 0, 69, 64
2, 32224, Control_c, 0, 64, 0
2, 32244, Note_on_c, 0, 73, 37
2, 32256, Note_on_c, 0, 64, 29
2, 32260, Note_off_c, 0, 62, 64
2, 32316, Note_off_c, 0, 74, 64
2, 32648, Note_on_c, 0, 69, 19
2, 32660, Note_on_c, 0, 67, 16
2, 32792, Control_c, 0, 64, 127
2, 32828, Note_off_c, 0, 69, 64
2, 32832, Note_off_c, 0, 67, 64
2, 33052, Note_on_c, 0, 69, 22
2, 33064, Note_on_c, 0, 67, 23
2, 33120, Note_off_c, 0, 73, 64
2, 33144, Note_off_c, 0, 67, 64
2, 33208, Note_off_c, 0, 69, 64
2, 33448, Note_on_c, 0, 69, 18
2, 33472, Note_on_c, 0, 67, 28
2, 33612, Note_off_c, 0, 67, 64
2, 33644, Note_off_c, 0, 69, 64
2, 33656, Note_off_c, 0, 64, 64
2, 33692, Note_on_c, 0, 74, 42
2, 33788, Note_off_c, 0, 74, 64
2, 33936, Control_c, 0, 64, 0
2, 33940, Note_on_c, 0, 75, 34
2, 33956, Note_on_c, 0, 64, 27
2, 34264, Control_c, 0, 64, 127
2, 34352, Control_c, 0, 64, 0
2, 34352, Note_on_c, 0, 76, 25
2, 34364, Note_on_c, 0, 69, 12
2, 34380, Note_on_c, 0, 67, 14
2, 34408, Note_off_c, 0, 75, 64
2, 34556, Note_off_c, 0, 69, 64
2, 34568, Note_off_c, 0, 67, 64
2, 34572, Control_c, 0, 64, 127
2, 34708, Note_off_c, 0, 76, 64
2, 34772, Note_on_c, 0, 69, 17
2, 34780, Note_on_c, 0, 67, 19
2, 34860, Note_off_c, 0, 67, 64
2, 34872, Note_off_c, 0, 69, 64
2, 35156, Note_on_c, 0, 69, 20
2, 35172, Note_on_c, 0, 67, 16
2, 35340, Note_off_c, 0, 64, 64
2, 35396, Note_off_c, 0, 69, 64
2, 35400, Note_off_c, 0, 67, 64
2, 35696, Note_on_c, 0, 79, 68
2, 35704, Note_on_c, 0, 61, 27
2, 35752, Control_c, 0, 64, 0
2, 36128, Note_on_c, 0, 69, 14
2, 36136, Note_on_c, 0, 64, 24
2, 36220, Control_c, 0, 64, 127
2, 36292, Note_off_c, 0, 69, 64
2, 36292, Note_off_c, 0, 64, 64
2, 36528, Note_on_c, 0, 69, 17
2, 36544, Note_on_c, 0, 64, 25
2, 36704, Note_off_c, 0, 69, 64
2, 36712, Note_off_c, 0, 64, 64
2, 36944, Note_on_c, 0, 69, 20
2, 36976, Note_on_c, 0, 64, 24
2, 37128, Note_on_c, 0, 78, 62
2, 37144, Note_off_c, 0, 79, 64
2, 37168, Note_off_c, 0, 61, 64
2, 37240, Note_on_c, 0, 79, 78
2, 37252, Note_off_c, 0, 69, 64
2, 37288, Note_off_c, 0, 78, 64
2, 37340, Note_off_c, 0, 64, 64
2, 37384, Note_on_c, 0, 81, 71
2, 37388, Control_c, 0, 64, 0
2, 37400, Note_on_c, 0, 61, 31
2, 37420, Note_off_c, 0, 79, 64
2, 37660, Control_c, 0, 64, 127
2, 37808, Note_on_c, 0, 79, 72
2, 37824, Note_on_c, 0, 69, 20
2, 37860, Note_on_c, 0, 64, 16
2, 37892, Note_off_c, 0, 81, 64
2, 37952, Control_c, 0, 64, 0
2, 38040, Note_off_c, 0, 69, 64
2, 38040, Note_off_c, 0, 64, 64
2, 38076, Control_c, 0, 64, 127
2, 38180, Note_on_c, 0, 77, 72
2, 38220, Note_on_c, 0, 64, 19
2, 38220, Note_on_c, 0, 69, 18
2, 38260, Note_off_c, 0, 79, 64
2, 38340, Note_off_c, 0, 69, 64
2, 38400, Note_off_c, 0, 64, 64
2, 38580, Note_on_c, 0, 76, 60
2, 38592, Note_on_c, 0, 69, 21
2, 38616, Note_on_c, 0, 64, 31
2, 38640, Control_c, 0, 64, 0
2, 38680, Note_off_c, 0, 77, 64
2, 38816, Control_c, 0, 64, 127
2, 38824, Note_off_c, 0, 69, 64
2, 38844, Note_off_c, 0, 64, 64
2, 39056, Note_on_c, 0, 74, 53
2, 39060, Control_c, 0, 64, 0
2, 39060, Note_on_c, 0, 62, 28
2, 39096, Note_off_c, 0, 61, 64
2, 39096, Note_off_c, 0, 76, 64
2, 39488, Note_on_c, 0, 69, 18
2, 39496, Note_on_c, 0, 65, 23
2, 39612, Control_c, 0, 64, 127
2, 39664, Note_off_c, 0, 69, 64
2, 39676, Note_off_c, 0, 65, 64
2, 39892, Note_on_c, 0, 69, 15
2, 39912, Note_on_c, 0, 65, 16
2, 39996, Note_off_c, 0, 65, 64
2, 40032, Note_off_c, 0, 69, 64
2, 40036, Note_off_c, 0, 74, 64
2, 40172, Note_off_c, 0, 62, 64
2, 40288, Note_on_c, 0, 69, 13
2, 40312, Note_on_c, 0, 65, 8
2, 40452, Note_off_c, 0, 69, 64
2, 40472, Note_off_c, 0, 65, 64
2, 40504, Note_on_c, 0, 76, 31
2, 40632, Note_off_c, 0, 76, 64
2, 40732, Note_on_c, 0, 79, 45
2, 40732, Control_c, 0, 64, 0
2, 40760, Note_on_c, 0, 62, 15
2, 41124, Control_c, 0, 64, 127
2, 41160, Note_on_c, 0, 69, 12
2, 41176, Note_on_c, 0, 77, 32
2, 41188, Note_on_c, 0, 65, 9
2, 41224, Control_c, 0, 64, 0
2, 41240, Note_off_c, 0, 79, 64
2, 41368, Note_off_c, 0, 65, 64
2, 41372, Note_off_c, 0, 69, 64
2, 41384, Control_c, 0, 64, 127
2, 41584, Note_on_c, 0, 69, 17
2, 41596, Note_on_c, 0, 65, 21
2, 41664, Note_off_c, 0, 65, 64
2, 41680, Note_off_c, 0, 69, 64
2, 41764, Note_off_c, 0, 77, 64
2, 41992, Note_on_c, 0, 69, 19
2, 42008, Note_on_c, 0, 65, 16
2, 42060, Note_off_c, 0, 62, 64
2, 42064, Note_off_c, 0, 69, 64
2, 42084, Note_off_c, 0, 65, 64
2, 42472, Note_on_c, 0, 81, 101
2, 42476, Note_on_c, 0, 69, 84
2, 42784, Control_c, 0, 64, 0
2, 43080, Control_c, 0, 64, 127
2, 43232, Note_on_c, 0, 57, 79
2, 43236, Note_on_c, 0, 62, 88
2, 43236, Note_on_c, 0, 53, 100
2, 43728, Note_off_c, 0, 69, 64
2, 43828, Note_off_c, 0, 62, 64
2, 43952, Note_on_c, 0, 82, 85
2, 43960, Note_on_c, 0, 70, 72
2, 43960, Note_on_c, 0, 61, 76
2, 43972, Note_off_c, 0, 53, 64
2, 43980, Note_on_c, 0, 52, 66
2, 43980, Note_on_c, 0, 55, 56
2, 44008, Note_off_c, 0, 57, 64
2, 44012, Note_off_c, 0, 81, 64
2, 44148, Control_c, 0, 64, 0
2, 44456, Control_c, 0, 64, 127
2, 44488, Note_off_c, 0, 61, 64
2, 44520, Note_off_c, 0, 55, 64
2, 44528, Note_off_c, 0, 52, 64
2, 44540, Note_off_c, 0, 70, 64
2, 44716, Note_off_c, 0, 82, 64
2, 44776, Control_c, 0, 64, 0
2, 45304, Note_on_c, 0, 81, 74
2, 45820, Control_c, 0, 64, 127
2, 45928, Note_on_c, 0, 86, 76
2, 45944, Note_off_c, 0, 81, 64
2, 46076, Note_on_c, 0, 85, 77
2, 46092, Control_c, 0, 64, 0
2, 46092, Note_on_c, 0, 74, 38
2, 46112, Note_on_c, 0, 65, 21
2, 46124, Note_off_c, 0, 86, 64
2, 46256, Note_off_c, 0, 85, 64
2, 46276, Control_c, 0, 64, 127
2, 46336, Control_c, 0, 64, 0
2, 46356, Note_on_c, 0, 84, 71
2, 46508, Note_off_c, 0, 84, 64
2, 46508, Control_c, 0, 64, 127
2, 46608, Note_on_c, 0, 83, 80
2, 46608, Control_c, 0, 64, 0
2, 46744, Note_off_c, 0, 65, 64
2, 46756, Control_c, 0, 64, 127
2, 46776, Note_off_c, 0, 83, 64
2, 46944, Note_off_c, 0, 74, 64
2, 46960, Note_on_c, 0, 82, 46
2, 46984, Note_on_c, 0, 73, 18
2, 46988, Control_c, 0, 64, 0
2, 47000, Note_on_c, 0, 67, 20
2, 47552, Control_c, 0, 64, 127
2, 47628, Note_off_c, 0, 73, 64
2, 47644, Note_off_c, 0, 67, 64
2, 47648, Note_off_c, 0, 82, 64
2, 47872, Control_c, 0, 64, 0
2, 48196, Note_on_c, 0, 81, 60
2, 48204, Note_on_c, 0, 74, 24
2, 48216, Note_on_c, 0, 65, 17
2, 48216, Control_c, 0, 64, 127
2, 48264, Note_off_c, 0, 74, 64
2, 48272, Note_off_c, 0, 65, 64
2, 48308, Note_off_c, 0, 81, 64
2, 48392, Note_on_c, 0, 81, 48
2, 48424, Note_on_c, 0, 74, 32
2, 48440, Note_on_c, 0, 64, 31
2, 48560, Control_c, 0, 64, 0
2, 48760, Note_on_c, 0, 80, 50
2, 48800, Note_off_c, 0, 81, 64
2, 48824, Note_off_c, 0, 74, 64
2, 48840, Note_off_c, 0, 64, 64
2, 48904, Control_c, 0, 64, 127
2, 49056, Note_off_c, 0, 80, 64
2, 49068, Note_on_c, 0, 73, 41
2, 49088, Note_on_c, 0, 69, 27
2, 49116, Control_c, 0, 64, 0
2, 49396, Note_off_c, 0, 69, 64
2, 49396, Note_on_c, 0, 79, 73
2, 49444, Note_off_c, 0, 73, 64
2, 49584, Control_c, 0, 64, 127
2, 49692, Note_off_c, 0, 79, 64
2, 49716, Note_on_c, 0, 74, 51
2, 49744, Note_on_c, 0, 62, 29
2, 49804, Control_c, 0, 64, 0
2, 49992, Note_off_c, 0, 62, 64
2, 50016, Note_on_c, 0, 78, 58
2, 50024, Note_off_c, 0, 74, 64
2, 50172, Control_c, 0, 64, 127
2, 50320, Note_off_c, 0, 78, 64
2, 50320, Note_on_c, 0, 71, 38
2, 50320, Note_on_c, 0, 68, 23
2, 50380, Control_c, 0, 64, 0
2, 50612, Note_off_c, 0, 71, 64
2, 50640, Note_off_c, 0, 68, 64
2, 50644, Note_on_c, 0, 77, 39
2, 50648, Note_on_c, 0, 74, 34
2, 50824, Control_c, 0, 64, 127
2, 50864, Note_off_c, 0, 74, 64
2, 50900, Note_off_c, 0, 77, 64
2, 50976, Note_on_c, 0, 69, 18
2, 51008, Control_c, 0, 64, 0
2, 51264, Note_on_c, 0, 73, 30
2, 51264, Note_on_c, 0, 76, 34
2, 51304, Control_c, 0, 64, 127
2, 51352, Note_off_c, 0, 73, 64
2, 51416, Note_off_c, 0, 76, 64
2, 51552, Note_off_c, 0, 69, 64
2, 51572, Note_on_c, 0, 76, 23
2, 51576, Note_on_c, 0, 81, 39
2, 51636, Note_off_c, 0, 76, 64
2, 51640, Note_off_c, 0, 81, 64
2, 51896, Note_on_c, 0, 85, 36
2, 51904, Note_on_c, 0, 81, 33
2, 51984, Note_off_c, 0, 81, 64
2, 52012, Note_off_c, 0, 85, 64
2, 52340, Note_on_c, 0, 85, 28
2, 52344, Note_on_c, 0, 88, 31
2, 52532, Control_c, 0, 64, 0
2, 52728, Control_c, 0, 64, 127
2, 52764, Note_off_c, 0, 88, 64
2, 52784, Note_off_c, 0, 85, 64
2, 53332, Control_c, 0, 64, 0
2, 53884, Note_on_c, 0, 64, 58
2, 54044, Control_c, 0, 64, 127
2, 54140, Note_off_c, 0, 64, 64
2, 54280, Note_on_c, 0, 64, 65
2, 54484, Note_off_c, 0, 64, 64
2, 54604, Note_on_c, 0, 64, 66
2, 54784, Note_off_c, 0, 64, 64
2, 54920, Note_on_c, 0, 64, 59
2, 55112, Note_off_c, 0, 64, 64
2, 55256, Note_on_c, 0, 64, 42
2, 55452, Note_off_c, 0, 64, 64
2, 55608, Note_on_c, 0, 64, 41
2, 55756, Note_off_c, 0, 64, 64
2, 55928, Note_on_c, 0, 60, 45
2, 55932, Note_on_c, 0, 57, 24
2, 55936, Note_on_c, 0, 45, 27
2, 55936, Note_on_c, 0, 64, 39
2, 56128, Note_off_c, 0, 64, 64
2, 56296, Note_on_c, 0, 64, 52
2, 56376, Note_off_c, 0, 57, 64
2, 56452, Note_off_c, 0, 45, 64
2, 56476, Note_off_c, 0, 64, 64
2, 56584, Note_off_c, 0, 60, 64
2, 56604, Note_on_c, 0, 64, 67
2, 56604, Note_on_c, 0, 59, 64
2, 56616, Note_on_c, 0, 56, 56
2, 56616, Note_on_c, 0, 44, 59
2, 56824, Note_off_c, 0, 64, 64
2, 56924, Note_on_c, 0, 64, 64
2, 57108, Note_off_c, 0, 64, 64
2, 57148, Note_off_c, 0, 56, 64
2, 57180, Note_off_c, 0, 44, 64
2, 57228, Note_on_c, 0, 58, 62
2, 57232, Note_on_c, 0, 64, 74
2, 57240, Note_on_c, 0, 55, 56
2, 57244, Note_on_c, 0, 43, 49
2, 57360, Note_off_c, 0, 59, 64
2, 57376, Control_c, 0, 64, 0
2, 57480, Note_off_c, 0, 64, 64
2, 57520, Control_c, 0, 64, 127
2, 57568, Note_on_c, 0, 64, 67
2, 57648, Note_off_c, 0, 55, 64
2, 57716, Note_off_c, 0, 64, 64
2, 57732, Note_off_c, 0, 43, 64
2, 57784, Note_off_c, 0, 58, 64
2, 57896, Note_on_c, 0, 57, 68
2, 57904, Note_on_c, 0, 64, 76
2, 57904, Note_on_c, 0, 54, 73
2, 57912, Note_on_c, 0, 42, 60
2, 58248, Note_on_c, 0, 63, 79
2, 58288, Note_off_c, 0, 64, 64
2, 58484, Note_off_c, 0, 63, 64
2, 58536, Note_off_c, 0, 54, 64
2, 58564, Note_on_c, 0, 63, 59
2, 58568, Note_off_c, 0, 42, 64
2, 58568, Note_on_c, 0, 69, 77
2, 58572, Note_on_c, 0, 53, 85
2, 58572, Note_on_c, 0, 41, 69
2, 58604, Control_c, 0, 64, 0
2, 58736, Note_off_c, 0, 57, 64
2, 58788, Control_c, 0, 64, 127
2, 58848, Note_off_c, 0, 69, 64
2, 58944, Note_on_c, 0, 69, 83
2, 58988, Note_off_c, 0, 53, 64
2, 59012, Note_off_c, 0, 63, 64
2, 59016, Note_off_c, 0, 41, 64
2, 59060, Note_off_c, 0, 69, 64
2, 59460, Note_on_c, 0, 69, 72
2, 59460, Note_on_c, 0, 63, 72
2, 59472, Note_on_c, 0, 52, 73
2, 59472, Note_on_c, 0, 40, 78
2, 59500, Control_c, 0, 64, 0
2, 59820, Control_c, 0, 64, 127
2, 60908, Note_off_c, 0, 69, 64
2, 60920, Note_on_c, 0, 68, 40
2, 61040, Note_on_c, 0, 69, 39
2, 61052, Note_off_c, 0, 68, 64
2, 61148, Note_off_c, 0, 69, 64
2, 61152, Note_on_c, 0, 71, 49
2, 61264, Note_on_c, 0, 69, 37
2, 61296, Note_off_c, 0, 71, 64
2, 61376, Note_off_c, 0, 63, 64
2, 61412, Note_on_c, 0, 68, 42
2, 61424, Note_on_c, 0, 64, 33
2, 61448, Note_off_c, 0, 69, 64
2, 61480, Control_c, 0, 64, 0
2, 61776, Control_c, 0, 64, 127
2, 61780, Note_off_c, 0, 52, 64
2, 61896, Note_off_c, 0, 40, 64
2, 62456, Note_off_c, 0, 64, 64
2, 62544, Note_off_c, 0, 68, 64
2, 62748, Control_c, 0, 64, 0
2, 62952, Note_on_c, 0, 71, 49
2, 63012, Note_off_c, 0, 71, 64
2, 63132, Note_on_c, 0, 69, 49
2, 63296, Note_on_c, 0, 68, 42
2, 63332, Note_off_c, 0, 69, 64
2, 63436, Note_off_c, 0, 68, 64
2, 63460, Note_on_c, 0, 65, 29
2, 63472, Note_on_c, 0, 62, 29
2, 63540, Note_off_c, 0, 62, 64
2, 63584, Note_off_c, 0, 65, 64
2, 63612, Note_on_c, 0, 71, 63
2, 63668, Note_off_c, 0, 71, 64
2, 63776, Note_on_c, 0, 65, 39
2, 63780, Note_on_c, 0, 69, 45
2, 63788, Note_on_c, 0, 62, 35
2, 63948, Note_off_c, 0, 62, 64
2, 63948, Note_on_c, 0, 68, 43
2, 63952, Note_off_c, 0, 65, 64
2, 63964, Note_off_c, 0, 69, 64
2, 64020, Note_off_c, 0, 68, 64
2, 64108, Note_on_c, 0, 65, 34
2, 64116, Note_on_c, 0, 62, 30
2, 64244, Note_off_c, 0, 62, 64
2, 64248, Note_off_c, 0, 65, 64
2, 64260, Note_on_c, 0, 71, 62
2, 64308, Note_off_c, 0, 71, 64
2, 64424, Note_on_c, 0, 69, 54
2, 64428, Note_on_c, 0, 65, 41
2, 64440, Note_on_c, 0, 62, 32
2, 64592, Note_off_c, 0, 65, 64
2, 64596, Note_off_c, 0, 62, 64
2, 64596, Note_on_c, 0, 68, 50
2, 64644, Note_off_c, 0, 69, 64
2, 64720, Note_off_c, 0, 68, 64
2, 64752, Note_on_c, 0, 65, 41
2, 64756, Note_on_c, 0, 62, 32
2, 64888, Note_off_c, 0, 65, 64
2, 64888, Note_off_c, 0, 62, 64
2, 64916, Note_on_c, 0, 71, 55
2, 65060, Note_off_c, 0, 71, 64
2, 65072, Note_on_c, 0, 65, 30
2, 65084, Note_on_c, 0, 62, 31
2, 65212, Note_off_c, 0, 62, 64
2, 65220, Note_off_c, 0, 65, 64
2, 65264, Note_on_c, 0, 74, 42
2, 65404, Note_off_c, 0, 74, 64
2, 65412, Note_on_c, 0, 65, 27
2, 65420, Note_on_c, 0, 62, 22
2, 65536, Note_off_c, 0, 65, 64
2, 65552, Note_on_c, 0, 68, 48
2, 65584, Note_off_c, 0, 62, 64
2, 65616, Note_off_c, 0, 68, 64
2, 65720, Note_on_c, 0, 71, 66
2, 65900, Note_on_c, 0, 69, 29
2, 65912, Note_off_c, 0, 71, 64
2, 66056, Note_off_c, 0, 69, 64
2, 66068, Note_on_c, 0, 64, 29
2, 66076, Note_on_c, 0, 60, 27
2, 66172, Note_off_c, 0, 60, 64
2, 66200, Note_off_c, 0, 64, 64
2, 66204, Note_on_c, 0, 72, 49
2, 66268, Note_off_c, 0, 72, 64
2, 66376, Note_on_c, 0, 71, 61
2, 66384, Note_on_c, 0, 60, 31
2, 66392, Note_on_c, 0, 64, 35
2, 66528, Note_off_c, 0, 64, 64
2, 66548, Note_off_c, 0, 71, 64
2, 66548, Note_on_c, 0, 69, 31
2, 66556, Note_off_c, 0, 60, 64
2, 66668, Note_off_c, 0, 69, 64
2, 66712, Note_on_c, 0, 64, 46
2, 66712, Note_on_c, 0, 60, 26
2, 66852, Note_off_c, 0, 64, 64
2, 66852, Note_on_c, 0, 72, 58
2, 66856, Note_off_c, 0, 60, 64
2, 66920, Note_off_c, 0, 72, 64
2, 67020, Note_on_c, 0, 71, 69
2, 67032, Note_on_c, 0, 64, 43
2, 67036, Note_on_c, 0, 60, 26
2, 67172, Note_off_c, 0, 64, 64
2, 67200, Note_off_c, 0, 60, 64
2, 67208, Note_on_c, 0, 69, 58
2, 67220, Note_off_c, 0, 71, 64
2, 67344, Note_off_c, 0, 69, 64
2, 67360, Note_on_c, 0, 60, 41
2, 67368, Note_on_c, 0, 64, 53
2, 67508, Note_off_c, 0, 64, 64
2, 67516, Control_c, 0, 64, 127
2, 67520, Note_off_c, 0, 60, 64
2, 67528, Note_on_c, 0, 72, 52
2, 67576, Control_c, 0, 64, 0
2, 67684, Note_off_c, 0, 72, 64
2, 67696, Note_on_c, 0, 64, 43
2, 67700, Note_on_c, 0, 60, 23
2, 67808, Control_c, 0, 64, 127
2, 67824, Note_off_c, 0, 60, 64
2, 67832, Note_off_c, 0, 64, 64
2, 67872, Note_on_c, 0, 76, 38
2, 67896, Control_c, 0, 64, 0
2, 68032, Note_on_c, 0, 64, 37
2, 68036, Note_on_c, 0, 60, 20
2, 68040, Note_off_c, 0, 76, 64
2, 68120, Control_c, 0, 64, 127
2, 68136, Note_off_c, 0, 64, 64
2, 68184, Note_on_c, 0, 69, 37
2, 68188, Note_off_c, 0, 60, 64
2, 68216, Control_c, 0, 64, 0
2, 68252, Note_off_c, 0, 69, 64
2, 68360, Note_on_c, 0, 72, 47
2, 68548, Note_on_c, 0, 71, 44
2, 68552, Note_off_c, 0, 72, 64
2, 68692, Note_off_c, 0, 71, 64
2, 68696, Note_on_c, 0, 56, 29
2, 68700, Note_on_c, 0, 64, 35
2, 68792, Note_off_c, 0, 64, 64
2, 68792, Control_c, 0, 64, 127
2, 68828, Note_off_c, 0, 56, 64
2, 68848, Note_on_c, 0, 74, 59
2, 68892, Control_c, 0, 64, 0
2, 68900, Note_off_c, 0, 74, 64
2, 69004, Note_on_c, 0, 72, 56
2, 69020, Note_on_c, 0, 56, 22
2, 69024, Note_on_c, 0, 64, 36
2, 69148, Note_off_c, 0, 64, 64
2, 69168, Note_off_c, 0, 56, 64
2, 69176, Control_c, 0, 64, 127
2, 69192, Note_off_c, 0, 72, 64
2, 69192, Note_on_c, 0, 71, 48
2, 69248, Note_off_c, 0, 71, 64
2, 69272, Control_c, 0, 64, 0
2, 69340, Note_on_c, 0, 56, 36
2, 69352, Note_on_c, 0, 64, 39
2, 69472, Note_off_c, 0, 64, 64
2, 69476, Note_off_c, 0, 56, 64
2, 69496, Note_on_c, 0, 74, 69
2, 69496, Control_c, 0, 64, 127
2, 69552, Note_off_c, 0, 74, 64
2, 69592, Control_c, 0, 64, 0
2, 69652, Note_on_c, 0, 72, 64
2, 69668, Note_on_c, 0, 56, 34
2, 69668, Note_on_c, 0, 64, 39
2, 69796, Note_off_c, 0, 64, 64
2, 69812, Note_off_c, 0, 56, 64
2, 69840, Control_c, 0, 64, 127
2, 69840, Note_on_c, 0, 71, 66
2, 69848, Note_off_c, 0, 72, 64
2, 69904, Note_off_c, 0, 71, 64
2, 69912, Control_c, 0, 64, 0
2, 69984, Note_on_c, 0, 56, 40
2, 69992, Note_on_c, 0, 64, 48
2, 70108, Note_off_c, 0, 64, 64
2, 70116, Note_off_c, 0, 56, 64
2, 70120, Control_c, 0, 64, 127
2, 70148, Note_on_c, 0, 74, 76
2, 70196, Control_c, 0, 64, 0
2, 70308, Note_on_c, 0, 56, 32
2, 70316, Note_off_c, 0, 74, 64
2, 70316, Note_on_c, 0, 64, 45
2, 70404, Control_c, 0, 64, 127
2, 70436, Note_off_c, 0, 56, 64
2, 70440, Note_off_c, 0, 64, 64
2, 70468, Note_on_c, 0, 77, 75
2, 70516, Control_c, 0, 64, 0
2, 70600, Note_off_c, 0, 77, 64
2, 70632, Note_on_c, 0, 56, 35
2, 70632, Note_on_c, 0, 64, 44
2, 70720, Note_off_c, 0, 64, 64
2, 70724, Control_c, 0, 64, 127
2, 70748, Note_off_c, 0, 56, 64
2, 70772, Note_on_c, 0, 71, 71
2, 70824, Note_off_c, 0, 71, 64
2, 70836, Control_c, 0, 64, 0
2, 70936, Note_on_c, 0, 74, 65
2, 70956, Note_on_c, 0, 64, 30
2, 70968, Note_on_c, 0, 57, 20
2, 71048, Note_off_c, 0, 57, 64
2, 71088, Note_off_c, 0, 74, 64
2, 71092, Control_c, 0, 64, 127
2, 71116, Note_off_c, 0, 64, 64
2, 71120, Note_on_c, 0, 72, 48
2, 71164, Note_off_c, 0, 72, 64
2, 71192, Control_c, 0, 64, 0
2, 71264, Note_on_c, 0, 60, 38
2, 71288, Note_on_c, 0, 57, 29
2, 71448, Note_on_c, 0, 81, 38
2, 71488, Control_c, 0, 64, 127
2, 71528, Note_off_c, 0, 81, 64
2, 71536, Note_off_c, 0, 60, 64
2, 71580, Note_off_c, 0, 57, 64
2, 71584, Control_c, 0, 64, 0
2, 71600, Note_on_c, 0, 59, 26
2, 71604, Note_on_c, 0, 62, 41
2, 71752, Note_on_c, 0, 80, 49
2, 71816, Control_c, 0, 64, 127
2, 71864, Note_off_c, 0, 80, 64
2, 71876, Note_off_c, 0, 59, 64
2, 71908, Note_off_c, 0, 62, 64
2, 71908, Note_on_c, 0, 64, 45
2, 71912, Note_on_c, 0, 61, 30
2, 71940, Control_c, 0, 64, 0
2, 72056, Note_on_c, 0, 79, 59
2, 72072, Note_off_c, 0, 61, 64
2, 72100, Control_c, 0, 64, 127
2, 72160, Note_off_c, 0, 79, 64
2, 72216, Note_on_c, 0, 65, 50
2, 72228, Note_on_c, 0, 62, 43
2, 72232, Note_off_c, 0, 64, 64
2, 72236, Control_c, 0, 64, 0
2, 72384, Note_on_c, 0, 77, 66
2, 72420, Control_c, 0, 64, 127
2, 72488, Note_off_c, 0, 77, 64
2, 72496, Note_off_c, 0, 62, 64
2, 72504, Note_off_c, 0, 65, 64
2, 72540, Note_on_c, 0, 68, 55
2, 72552, Note_on_c, 0, 64, 48
2, 72556, Control_c, 0, 64, 0
2, 72704, Note_on_c, 0, 76, 72
2, 72764, Control_c, 0, 64, 127
2, 72828, Note_off_c, 0, 68, 64
2, 72832, Note_off_c, 0, 76, 64
2, 72840, Note_on_c, 0, 69, 57
2, 72852, Note_on_c, 0, 66, 50
2, 72860, Note_off_c, 0, 64, 64
2, 72888, Control_c, 0, 64, 0
2, 73012, Note_on_c, 0, 75, 66
2, 73064, Note_off_c, 0, 69, 64
2, 73084, Control_c, 0, 64, 127
2, 73140, Note_off_c, 0, 75, 64
2, 73172, Note_on_c, 0, 71, 57
2, 73176, Note_on_c, 0, 68, 36
2, 73196, Control_c, 0, 64, 0
2, 73212, Note_off_c, 0, 66, 64
2, 73324, Note_on_c, 0, 74, 56
2, 73364, Note_off_c, 0, 71, 64
2, 73392, Control_c, 0, 64, 127
2, 73400, Note_off_c, 0, 74, 64
2, 73488, Control_c, 0, 64, 0
2, 73500, Note_on_c, 0, 69, 27
2, 73512, Note_on_c, 0, 72, 34
2, 73532, Note_off_c, 0, 68, 64
2, 73672, Control_c, 0, 64, 127
2, 73708, Note_off_c, 0, 69, 64
2, 73720, Note_off_c, 0, 72, 64
2, 73720, Note_on_c, 0, 76, 26
2, 73844, Note_off_c, 0, 76, 64
2, 73892, Note_on_c, 0, 60, 27
2, 73896, Note_on_c, 0, 57, 23
2, 73932, Control_c, 0, 64, 0
2, 74056, Note_on_c, 0, 81, 46
2, 74140, Control_c, 0, 64, 127
2, 74204, Note_off_c, 0, 60, 64
2, 74204, Note_off_c, 0, 81, 64
2, 74228, Note_on_c, 0, 62, 43
2, 74232, Note_off_c, 0, 57, 64
2, 74232, Note_on_c, 0, 59, 39
2, 74324, Control_c, 0, 64, 0
2, 74384, Note_on_c, 0, 80, 69
2, 74520, Note_off_c, 0, 59, 64
2, 74524, Control_c, 0, 64, 127
2, 74528, Note_off_c, 0, 62, 64
2, 74540, Note_on_c, 0, 61, 51
2, 74540, Note_on_c, 0, 64, 70
2, 74584, Note_off_c, 0, 80, 64
2, 74620, Control_c, 0, 64, 0
2, 74704, Note_on_c, 0, 79, 87
2, 74744, Note_off_c, 0, 61, 64
2, 74792, Control_c, 0, 64, 127
2, 74864, Note_on_c, 0, 62, 68
2, 74868, Note_on_c, 0, 65, 49
2, 74884, Note_off_c, 0, 79, 64
2, 74912, Note_off_c, 0, 64, 64
2, 74928, Control_c, 0, 64, 0
2, 75012, Note_on_c, 0, 77, 81
2, 75112, Control_c, 0, 64, 127
2, 75164, Note_off_c, 0, 62, 64
2, 75168, Note_off_c, 0, 65, 64
2, 75168, Note_on_c, 0, 68, 70
2, 75172, Note_off_c, 0, 77, 64
2, 75176, Note_on_c, 0, 64, 62
2, 75236, Control_c, 0, 64, 0
2, 75336, Note_on_c, 0, 76, 69
2, 75432, Control_c, 0, 64, 127
2, 75488, Note_off_c, 0, 76, 64
2, 75492, Note_on_c, 0, 69, 66
2, 75504, Note_on_c, 0, 66, 52
2, 75524, Note_off_c, 0, 68, 64
2, 75528, Note_off_c, 0, 64, 64
2, 75592, Control_c, 0, 64, 0
2, 75688, Note_on_c, 0, 75, 77
2, 75772, Note_off_c, 0, 69, 64
2, 75800, Control_c, 0, 64, 127
2, 75844, Note_off_c, 0, 75, 64
2, 75896, Note_on_c, 0, 71, 64
2, 75904, Note_on_c, 0, 68, 46
2, 75932, Note_off_c, 0, 66, 64
2, 76008, Control_c, 0, 64, 0
2, 76152, Note_on_c, 0, 74, 76
2, 76160, Note_off_c, 0, 68, 64
2, 76212, Note_off_c, 0, 71, 64
2, 76268, Control_c, 0, 64, 127
2, 76384, Note_off_c, 0, 74, 64
2, 76512, Control_c, 0, 64, 0
2, 77968, Note_on_c, 0, 72, 56
2, 77980, Note_on_c, 0, 57, 15
2, 78136, Control_c, 0, 64, 127
2, 78408, Note_on_c, 0, 60, 11
2, 78416, Note_on_c, 0, 64, 14
2, 78548, Note_off_c, 0, 60, 64
2, 78548, Note_off_c, 0, 64, 64
2, 78784, Note_on_c, 0, 64, 22
2, 78792, Note_on_c, 0, 60, 17
2, 78864, Note_off_c, 0, 64, 64
2, 78864, Note_off_c, 0, 60, 64
2, 79048, Note_off_c, 0, 57, 64
2, 79124, Note_on_c, 0, 64, 21
2, 79128, Note_on_c, 0, 60, 14
2, 79248, Note_on_c, 0, 71, 52
2, 79252, Note_off_c, 0, 72, 64
2, 79280, Note_off_c, 0, 64, 64
2, 79292, Note_off_c, 0, 60, 64
2, 79320, Note_on_c, 0, 72, 49
2, 79348, Note_off_c, 0, 71, 64
2, 79416, Control_c, 0, 64, 0
2, 79436, Note_on_c, 0, 74, 75
2, 79456, Note_off_c, 0, 72, 64
2, 79460, Note_on_c, 0, 57, 26
2, 79684, Control_c, 0, 64, 127
2, 79764, Note_on_c, 0, 72, 71
2, 79784, Note_on_c, 0, 64, 27
2, 79800, Note_on_c, 0, 60, 16
2, 79824, Note_off_c, 0, 74, 64
2, 79892, Note_off_c, 0, 64, 64
2, 79908, Note_off_c, 0, 60, 64
2, 80092, Control_c, 0, 64, 0
2, 80096, Note_on_c, 0, 71, 70
2, 80124, Note_on_c, 0, 60, 21
2, 80124, Note_on_c, 0, 64, 26
2, 80216, Note_off_c, 0, 64, 64
2, 80220, Note_off_c, 0, 72, 64
2, 80260, Note_off_c, 0, 60, 64
2, 80288, Control_c, 0, 64, 127
2, 80408, Control_c, 0, 64, 0
2, 80416, Note_on_c, 0, 69, 50
2, 80440, Note_on_c, 0, 64, 27
2, 80456, Note_on_c, 0, 60, 19
2, 80472, Note_off_c, 0, 71, 64
2, 80624, Note_off_c, 0, 60, 64
2, 80644, Note_off_c, 0, 64, 64
2, 80644, Control_c, 0, 64, 127
2, 80784, Note_on_c, 0, 68, 40
2, 80792, Control_c, 0, 64, 0
2, 80812, Note_off_c, 0, 57, 64
2, 80820, Note_off_c, 0, 69, 64
2, 80824, Note_on_c, 0, 59, 24
2, 81152, Note_on_c, 0, 64, 27
2, 81164, Note_on_c, 0, 62, 19
2, 81196, Control_c, 0, 64, 127
2, 81248, Note_off_c, 0, 62, 64
2, 81276, Note_off_c, 0, 64, 64
2, 81536, Note_on_c, 0, 64, 26
2, 81560, Note_on_c, 0, 62, 8
2, 81648, Note_off_c, 0, 64, 64
2, 81656, Note_off_c, 0, 59, 64
2, 81656, Note_off_c, 0, 62, 64
2, 81740, Note_off_c, 0, 68, 64
2, 81904, Note_on_c, 0, 64, 24
2, 81916, Note_on_c, 0, 62, 17
2, 81992, Note_off_c, 0, 62, 64
2, 82032, Note_off_c, 0, 64, 64
2, 82064, Note_on_c, 0, 69, 22
2, 82152, Note_off_c, 0, 69, 64
2, 82216, Control_c, 0, 64, 0
2, 82216, Note_on_c, 0, 70, 31
2, 82240, Note_on_c, 0, 59, 22
2, 82524, Control_c, 0, 64, 127
2, 82548, Control_c, 0, 64, 0
2, 82552, Note_off_c, 0, 70, 64
2, 82552, Note_on_c, 0, 71, 37
2, 82576, Note_on_c, 0, 62, 16
2, 82576, Note_on_c, 0, 64, 21
2, 82688, Note_off_c, 0, 62, 64
2, 82692, Note_off_c, 0, 64, 64
2, 82760, Control_c, 0, 64, 127
2, 82792, Note_off_c, 0, 71, 64
2, 82916, Note_on_c, 0, 64, 24
2, 82932, Note_on_c, 0, 62, 18
2, 82988, Note_off_c, 0, 64, 64
2, 82992, Note_off_c, 0, 62, 64
2, 83020, Note_off_c, 0, 59, 64
2, 83276, Note_on_c, 0, 62, 21
2, 83284, Note_on_c, 0, 64, 27
2, 83332, Note_off_c, 0, 62, 64
2, 83380, Note_off_c, 0, 64, 64
2, 83704, Control_c, 0, 64, 0
2, 83752, Note_on_c, 0, 56, 34
2, 83756, Note_on_c, 0, 77, 44
2, 84024, Control_c, 0, 64, 127
2, 84128, Note_on_c, 0, 62, 27
2, 84144, Note_on_c, 0, 59, 13
2, 84212, Note_off_c, 0, 62, 64
2, 84220, Note_off_c, 0, 59, 64
2, 84460, Note_on_c, 0, 62, 24
2, 84464, Note_on_c, 0, 59, 28
2, 84524, Note_off_c, 0, 59, 64
2, 84548, Note_off_c, 0, 62, 64
2, 84808, Note_on_c, 0, 62, 28
2, 84824, Note_on_c, 0, 59, 22
2, 84948, Note_off_c, 0, 56, 64
2, 84956, Note_on_c, 0, 76, 60
2, 84968, Note_off_c, 0, 77, 64
2, 84992, Note_off_c, 0, 62, 64
2, 85048, Note_on_c, 0, 77, 57
2, 85080, Note_off_c, 0, 76, 64
2, 85144, Note_off_c, 0, 59, 64
2, 85184, Note_on_c, 0, 79, 75
2, 85192, Control_c, 0, 64, 0
2, 85192, Note_on_c, 0, 56, 34
2, 85200, Note_off_c, 0, 77, 64
2, 85424, Control_c, 0, 64, 127
2, 85544, Note_on_c, 0, 77, 75
2, 85560, Note_on_c, 0, 62, 24
2, 85576, Note_on_c, 0, 59, 22
2, 85636, Note_off_c, 0, 79, 64
2, 85648, Note_off_c, 0, 59, 64
2, 85676, Note_off_c, 0, 62, 64
2, 85868, Note_on_c, 0, 76, 65
2, 85896, Note_on_c, 0, 62, 29
2, 85904, Control_c, 0, 64, 0
2, 85912, Note_on_c, 0, 59, 25
2, 85928, Note_off_c, 0, 77, 64
2, 86032, Note_off_c, 0, 59, 64
2, 86048, Note_off_c, 0, 62, 64
2, 86064, Control_c, 0, 64, 127
2, 86096, Note_off_c, 0, 76, 64
2, 86204, Note_on_c, 0, 74, 69
2, 86240, Note_on_c, 0, 62, 24
2, 86268, Note_on_c, 0, 59, 19
2, 86400, Note_off_c, 0, 62, 64
2, 86408, Note_off_c, 0, 59, 64
2, 86428, Note_off_c, 0, 74, 64
2, 86476, Note_off_c, 0, 56, 64
2, 86592, Note_on_c, 0, 73, 49
2, 86612, Note_on_c, 0, 55, 39
2, 86668, Control_c, 0, 64, 0
2, 86960, Note_on_c, 0, 58, 22
2, 86972, Note_on_c, 0, 64, 36
2, 87120, Control_c, 0, 64, 127
2, 87124, Note_off_c, 0, 64, 64
2, 87144, Note_off_c, 0, 58, 64
2, 87320, Note_off_c, 0, 73, 64
2, 87324, Note_on_c, 0, 64, 38
2, 87328, Note_on_c, 0, 58, 22
2, 87456, Note_off_c, 0, 58, 64
2, 87472, Note_off_c, 0, 64, 64
2, 87648, Note_on_c, 0, 58, 28
2, 87652, Note_on_c, 0, 64, 39
2, 87704, Note_off_c, 0, 55, 64
2, 87776, Note_off_c, 0, 64, 64
2, 87808, Note_off_c, 0, 58, 64
2, 87828, Note_on_c, 0, 74, 73
2, 87876, Note_off_c, 0, 74, 64
2, 87984, Note_on_c, 0, 75, 69
2, 88004, Note_on_c, 0, 55, 51
2, 88032, Control_c, 0, 64, 0
2, 88360, Note_on_c, 0, 61, 30
2, 88368, Note_on_c, 0, 58, 18
2, 88372, Note_on_c, 0, 76, 46
2, 88412, Note_off_c, 0, 75, 64
2, 88544, Note_off_c, 0, 61, 64
2, 88548, Control_c, 0, 64, 127
2, 88552, Note_off_c, 0, 58, 64
2, 88684, Note_off_c, 0, 76, 64
2, 88700, Note_on_c, 0, 61, 44
2, 88704, Note_on_c, 0, 58, 35
2, 88832, Note_off_c, 0, 61, 64
2, 88848, Note_off_c, 0, 58, 64
2, 89008, Note_on_c, 0, 61, 59
2, 89016, Note_on_c, 0, 58, 41
2, 89176, Note_off_c, 0, 61, 64
2, 89188, Note_on_c, 0, 77, 87
2, 89196, Note_off_c, 0, 55, 64
2, 89208, Note_off_c, 0, 58, 64
2, 89272, Note_off_c, 0, 77, 64
2, 89352, Note_on_c, 0, 78, 86
2, 89356, Note_on_c, 0, 52, 79
2, 89384, Control_c, 0, 64, 0
2, 89652, Control_c, 0, 64, 127
2, 89684, Note_on_c, 0, 61, 50
2, 89688, Note_on_c, 0, 58, 42
2, 89688, Note_on_c, 0, 79, 92
2, 89752, Note_off_c, 0, 78, 64
2, 89800, Control_c, 0, 64, 0
2, 89904, Note_off_c, 0, 61, 64
2, 89916, Note_off_c, 0, 58, 64
2, 89948, Control_c, 0, 64, 127
2, 90020, Note_off_c, 0, 79, 64
2, 90032, Note_on_c, 0, 61, 67
2, 90040, Note_on_c, 0, 58, 46
2, 90180, Note_off_c, 0, 61, 64
2, 90192, Note_off_c, 0, 52, 64
2, 90192, Note_off_c, 0, 58, 64
2, 90420, Note_on_c, 0, 61, 62
2, 90424, Note_on_c, 0, 58, 54
2, 90508, Note_off_c, 0, 58, 64
2, 90512, Note_off_c, 0, 61, 64
2, 90684, Note_on_c, 0, 81, 94
2, 90860, Note_off_c, 0, 81, 64
2, 90960, Note_on_c, 0, 84, 103
2, 90968, Note_on_c, 0, 52, 73
2, 90968, Note_on_c, 0, 49, 61
2, 90968, Note_on_c, 0, 55, 69
2, 90980, Control_c, 0, 64, 0
2, 91768, Control_c, 0, 64, 127
2, 91980, Note_on_c, 0, 82, 62
2, 92104, Note_off_c, 0, 84, 64
2, 92224, Control_c, 0, 64, 0
2, 92444, Control_c, 0, 64, 127
2, 92504, Note_off_c, 0, 55, 64
2, 92584, Note_off_c, 0, 49, 64
2, 92608, Note_off_c, 0, 52, 64
2, 92764, Note_off_c, 0, 82, 64
2, 93108, Control_c, 0, 64, 0
2, 93376, Note_on_c, 0, 81, 68
2, 93520, Note_on_c, 0, 84, 82
2, 93528, Note_off_c, 0, 81, 64
2, 93628, Note_on_c, 0, 82, 69
2, 93660, Note_off_c, 0, 84, 64
2, 93724, Note_on_c, 0, 81, 79
2, 93760, Note_off_c, 0, 82, 64
2, 93808, Note_on_c, 0, 79, 75
2, 93824, Note_off_c, 0, 81, 64
2, 93880, Note_on_c, 0, 77, 84
2, 93892, Note_off_c, 0, 79, 64
2, 93956, Note_on_c, 0, 76, 74
2, 93988, Note_off_c, 0, 77, 64
2, 94008, Note_off_c, 0, 76, 64
2, 94024, Note_on_c, 0, 74, 71
2, 94100, Note_on_c, 0, 73, 67
2, 94112, Note_off_c, 0, 74, 64
2, 94184, Note_on_c, 0, 76, 67
2, 94204, Note_off_c, 0, 73, 64
2, 94236, Note_on_c, 0, 69, 57
2, 94240, Note_off_c, 0, 76, 64
2, 94284, Note_off_c, 0, 69, 64
2, 94308, Note_on_c, 0, 72, 67
2, 94372, Note_on_c, 0, 70, 62
2, 94408, Note_off_c, 0, 72, 64
2, 94444, Note_on_c, 0, 69, 58
2, 94476, Note_off_c, 0, 70, 64
2, 94488, Note_off_c, 0, 69, 64
2, 94504, Note_on_c, 0, 67, 57
2, 94552, Note_off_c, 0, 67, 64
2, 94560, Note_on_c, 0, 65, 70
2, 94632, Note_on_c, 0, 64, 66
2, 94636, Note_off_c, 0, 65, 64
2, 94668, Note_off_c, 0, 64, 64
2, 94688, Note_on_c, 0, 62, 64
2, 94752, Note_off_c, 0, 62, 64
2, 94760, Note_on_c, 0, 61, 70
2, 94840, Note_on_c, 0, 64, 71
2, 94856, Note_off_c, 0, 61, 64
2, 94884, Note_off_c, 0, 64, 64
2, 94888, Note_on_c, 0, 57, 58
2, 94936, Note_off_c, 0, 57, 64
2, 94948, Note_on_c, 0, 60, 73
2, 95024, Note_on_c, 0, 58, 62
2, 95044, Note_off_c, 0, 60, 64
2, 95084, Note_on_c, 0, 57, 57
2, 95128, Note_off_c, 0, 58, 64
2, 95148, Note_off_c, 0, 57, 64
2, 95156, Note_on_c, 0, 55, 63
2, 95228, Note_on_c, 0, 53, 91
2, 95256, Note_off_c, 0, 55, 64
2, 95296, Note_on_c, 0, 52, 80
2, 95304, Note_off_c, 0, 53, 64
2, 95344, Note_off_c, 0, 52, 64
2, 95368, Note_on_c, 0, 50, 64
2, 95436, Note_on_c, 0, 49, 76
2, 95464, Note_off_c, 0, 50, 64
2, 95520, Note_on_c, 0, 52, 80
2, 95532, Note_off_c, 0, 49, 64
2, 95592, Note_on_c, 0, 45, 76
2, 95608, Note_off_c, 0, 52, 64
2, 95660, Note_off_c, 0, 45, 64
2, 95660, Note_on_c, 0, 48, 73
2, 95744, Note_on_c, 0, 46, 68
2, 95772, Note_off_c, 0, 48, 64
2, 95844, Note_on_c, 0, 45, 64
2, 95880, Note_off_c, 0, 46, 64
2, 95940, Note_off_c, 0, 45, 64
2, 95940, Note_on_c, 0, 43, 65
2, 96068, Note_on_c, 0, 36, 72
2, 96100, Note_off_c, 0, 43, 64
2, 96228, Note_on_c, 0, 39, 66
2, 96332, Note_on_c, 0, 42, 58
2, 96376, Note_off_c, 0, 39, 64
2, 96436, Note_on_c, 0, 45, 63
2, 96444, Note_off_c, 0, 42, 64
2, 96452, Control_c, 0, 64, 127
2, 96476, Note_off_c, 0, 36, 64
2, 96516, Note_off_c, 0, 45, 64
2, 96520, Note_on_c, 0, 48, 63
2, 96616, Note_on_c, 0, 51, 67
2, 96644, Note_off_c, 0, 48, 64
2, 96696, Note_on_c, 0, 54, 72
2, 96724, Note_off_c, 0, 51, 64
2, 96784, Note_on_c, 0, 57, 54
2, 96824, Note_off_c, 0, 54, 64
2, 96848, Note_on_c, 0, 60, 63
2, 96876, Note_off_c, 0, 57, 64
2, 96940, Note_on_c, 0, 63, 64
2, 97012, Note_on_c, 0, 66, 57
2, 97036, Note_off_c, 0, 63, 64
2, 97092, Note_on_c, 0, 69, 56
2, 97108, Note_off_c, 0, 60, 64
2, 97136, Note_off_c, 0, 66, 64
2, 97176, Note_on_c, 0, 72, 72
2, 97184, Note_off_c, 0, 69, 64
2, 97256, Note_on_c, 0, 75, 70
2, 97332, Note_on_c, 0, 78, 72
2, 97344, Note_off_c, 0, 72, 64
2, 97412, Note_off_c, 0, 75, 64
2, 97436, Note_on_c, 0, 81, 66
2, 97532, Note_on_c, 0, 84, 87
2, 97572, Note_off_c, 0, 78, 64
2, 97684, Note_on_c, 0, 87, 67
2, 97708, Note_off_c, 0, 81, 64
2, 98224, Note_off_c, 0, 84, 64
2, 98332, Control_c, 0, 64, 0
2, 98864, Note_off_c, 0, 87, 64
2, 99620, Note_on_c, 0, 62, 65
2, 99920, Control_c, 0, 64, 127
2, 99952, Note_off_c, 0, 62, 64
2, 100048, Note_on_c, 0, 62, 48
2, 100224, Note_off_c, 0, 62, 64
2, 100400, Note_on_c, 0, 62, 40
2, 100520, Note_off_c, 0, 62, 64
2, 100768, Note_on_c, 0, 62, 28
2, 100916, Note_off_c, 0, 62, 64
2, 101112, Note_on_c, 0, 62, 32
2, 101248, Note_off_c, 0, 62, 64
2, 101456, Note_on_c, 0, 62, 38
2, 101536, Note_off_c, 0, 62, 64
2, 101788, Note_on_c, 0, 58, 24
2, 101804, Note_on_c, 0, 62, 38
2, 101804, Note_on_c, 0, 55, 25
2, 101808, Note_on_c, 0, 43, 33
2, 101964, Note_off_c, 0, 62, 64
2, 102148, Note_on_c, 0, 62, 54
2, 102168, Note_off_c, 0, 55, 64
2, 102264, Note_off_c, 0, 43, 64
2, 102268, Note_off_c, 0, 62, 64
2, 102372, Note_off_c, 0, 58, 64
2, 102464, Note_on_c, 0, 57, 55
2, 102468, Note_on_c, 0, 62, 57
2, 102472, Note_on_c, 0, 54, 55
2, 102472, Note_on_c, 0, 42, 48
2, 102680, Note_off_c, 0, 62, 64
2, 102804, Note_on_c, 0, 62, 79
2, 102844, Control_c, 0, 64, 0
2, 102992, Note_off_c, 0, 62, 64
2, 103016, Control_c, 0, 64, 127
2, 103064, Note_off_c, 0, 42, 64
2, 103064, Note_off_c, 0, 54, 64
2, 103116, Note_on_c, 0, 56, 75
2, 103124, Note_on_c, 0, 62, 77
2, 103128, Note_on_c, 0, 41, 68
2, 103128, Note_on_c, 0, 53, 84
2, 103260, Note_off_c, 0, 57, 64
2, 103348, Note_off_c, 0, 62, 64
2, 103464, Note_on_c, 0, 62, 88
2, 103608, Note_off_c, 0, 62, 64
2, 103672, Note_off_c, 0, 53, 64
2, 103680, Note_off_c, 0, 56, 64
2, 103700, Note_off_c, 0, 41, 64
2, 103784, Note_on_c, 0, 55, 80
2, 103784, Note_on_c, 0, 62, 84
2, 103792, Note_on_c, 0, 40, 89
2, 103796, Note_on_c, 0, 52, 74
2, 103888, Control_c, 0, 64, 0
2, 104152, Note_on_c, 0, 61, 79
2, 104192, Note_off_c, 0, 62, 64
2, 104348, Note_off_c, 0, 52, 64
2, 104368, Control_c, 0, 64, 127
2, 104376, Note_off_c, 0, 55, 64
2, 104392, Note_off_c, 0, 40, 64
2, 104416, Note_off_c, 0, 61, 64
2, 104492, Note_on_c, 0, 61, 59
2, 104496, Note_on_c, 0, 67, 81
2, 104504, Note_on_c, 0, 51, 66
2, 104508, Note_on_c, 0, 39, 70
2, 104576, Control_c, 0, 64, 0
2, 104784, Control_c, 0, 64, 127
2, 104812, Note_off_c, 0, 67, 64
2, 104876, Note_on_c, 0, 67, 64
2, 104968, Note_off_c, 0, 61, 64
2, 105004, Note_off_c, 0, 51, 64
2, 105084, Note_off_c, 0, 67, 64
2, 105136, Note_off_c, 0, 39, 64
2, 105400, Note_on_c, 0, 61, 62
2, 105400, Note_on_c, 0, 67, 81
2, 105404, Note_on_c, 0, 50, 70
2, 105412, Note_on_c, 0, 38, 61
2, 105488, Control_c, 0, 64, 0
2, 106200, Control_c, 0, 64, 127
2, 106868, Note_off_c, 0, 67, 64
2, 106888, Note_on_c, 0, 66, 31
2, 107016, Note_on_c, 0, 67, 32
2, 107028, Note_off_c, 0, 66, 64
2, 107116, Note_off_c, 0, 67, 64
2, 107128, Note_on_c, 0, 69, 40
2, 107272, Note_off_c, 0, 69, 64
2, 107272, Note_on_c, 0, 67, 48
2, 107432, Note_off_c, 0, 61, 64
2, 107464, Note_on_c, 0, 66, 33
2, 107476, Note_on_c, 0, 62, 32
2, 107508, Note_off_c, 0, 67, 64
2, 107512, Control_c, 0, 64, 0
2, 108020, Note_off_c, 0, 50, 64
2, 108080, Control_c, 0, 64, 127
2, 108208, Note_off_c, 0, 38, 64
2, 108520, Note_off_c, 0, 62, 64
2, 108600, Note_off_c, 0, 66, 64
2, 108608, Control_c, 0, 64, 0
2, 109036, Note_on_c, 0, 69, 24
2, 109100, Note_off_c, 0, 69, 64
2, 109192, Note_on_c, 0, 67, 49
2, 109364, Note_on_c, 0, 66, 31
2, 109376, Note_off_c, 0, 67, 64
2, 109536, Note_on_c, 0, 63, 35
2, 109544, Note_off_c, 0, 66, 64
2, 109560, Note_on_c, 0, 60, 20
2, 109648, Note_off_c, 0, 60, 64
2, 109680, Note_off_c, 0, 63, 64
2, 109684, Note_on_c, 0, 69, 38
2, 109736, Note_off_c, 0, 69, 64
2, 109848, Note_on_c, 0, 67, 48
2, 109856, Note_on_c, 0, 63, 36
2, 109872, Note_on_c, 0, 60, 34
2, 110040, Note_off_c, 0, 67, 64
2, 110040, Note_on_c, 0, 66, 32
2, 110052, Note_off_c, 0, 60, 64
2, 110060, Note_off_c, 0, 63, 64
2, 110192, Note_off_c, 0, 66, 64
2, 110208, Note_on_c, 0, 63, 46
2, 110216, Note_on_c, 0, 60, 27
2, 110340, Note_on_c, 0, 69, 40
2, 110380, Note_off_c, 0, 63, 64
2, 110388, Note_off_c, 0, 60, 64
2, 110408, Note_off_c, 0, 69, 64
2, 110512, Note_on_c, 0, 67, 62
2, 110532, Note_on_c, 0, 63, 42
2, 110556, Note_on_c, 0, 60, 32
2, 110712, Note_on_c, 0, 66, 46
2, 110736, Note_off_c, 0, 67, 64
2, 110740, Note_off_c, 0, 60, 64
2, 110740, Note_off_c, 0, 63, 64
2, 110748, Control_c, 0, 64, 127
2, 110840, Note_off_c, 0, 66, 64
2, 110880, Control_c, 0, 64, 0
2, 110888, Note_on_c, 0, 63, 44
2, 110904, Note_on_c, 0, 60, 33
2, 111052, Note_on_c, 0, 69, 57
2, 111060, Note_off_c, 0, 60, 64
2, 111064, Note_off_c, 0, 63, 64
2, 111080, Control_c, 0, 64, 127
2, 111164, Control_c, 0, 64, 0
2, 111176, Note_off_c, 0, 69, 64
2, 111212, Note_on_c, 0, 63, 48
2, 111232, Note_on_c, 0, 60, 37
2, 111372, Note_off_c, 0, 60, 64
2, 111384, Control_c, 0, 64, 127
2, 111388, Note_off_c, 0, 63, 64
2, 111404, Note_on_c, 0, 72, 48
2, 111484, Control_c, 0, 64, 0
2, 111552, Note_on_c, 0, 63, 42
2, 111556, Note_off_c, 0, 72, 64
2, 111580, Note_on_c, 0, 60, 31
2, 111696, Note_on_c, 0, 66, 52
2, 111720, Note_off_c, 0, 63, 64
2, 111728, Control_c, 0, 64, 127
2, 111736, Note_off_c, 0, 60, 64
2, 111792, Note_off_c, 0, 66, 64
2, 111852, Control_c, 0, 64, 0
2, 111876, Note_on_c, 0, 69, 48
2, 112064, Note_off_c, 0, 69, 64
2, 112080, Note_on_c, 0, 67, 21
2, 112220, Note_on_c, 0, 62, 29
2, 112228, Note_on_c, 0, 58, 21
2, 112236, Note_off_c, 0, 67, 64
2, 112332, Control_c, 0, 64, 127
2, 112376, Note_off_c, 0, 62, 64
2, 112376, Note_off_c, 0, 58, 64
2, 112376, Note_on_c, 0, 70, 49
2, 112456, Note_off_c, 0, 70, 64
2, 112516, Control_c, 0, 64, 0
2, 112544, Note_on_c, 0, 69, 52
2, 112564, Note_on_c, 0, 58, 21
2, 112568, Note_on_c, 0, 62, 29
2, 112712, Note_off_c, 0, 69, 64
2, 112712, Note_off_c, 0, 62, 64
2, 112712, Note_on_c, 0, 67, 40
2, 112720, Note_off_c, 0, 58, 64
2, 112776, Note_off_c, 0, 67, 64
2, 112776, Control_c, 0, 64, 127
2, 112848, Control_c, 0, 64, 0
2, 112868, Note_on_c, 0, 58, 22
2, 112880, Note_on_c, 0, 62, 40
2, 113020, Note_on_c, 0, 70, 67
2, 113032, Note_off_c, 0, 62, 64
2, 113032, Control_c, 0, 64, 127
2, 113048, Note_off_c, 0, 58, 64
2, 113120, Note_off_c, 0, 70, 64
2, 113188, Note_on_c, 0, 69, 70
2, 113204, Note_on_c, 0, 58, 25
2, 113204, Control_c, 0, 64, 0
2, 113208, Note_on_c, 0, 62, 40
2, 113368, Note_off_c, 0, 62, 64
2, 113368, Note_on_c, 0, 67, 68
2, 113376, Note_off_c, 0, 69, 64
2, 113388, Note_off_c, 0, 58, 64
2, 113424, Control_c, 0, 64, 127
2, 113480, Note_off_c, 0, 67, 64
2, 113500, Control_c, 0, 64, 0
2, 113528, Note_on_c, 0, 58, 38
2, 113544, Note_on_c, 0, 62, 56
2, 113696, Note_off_c, 0, 62, 64
2, 113696, Note_on_c, 0, 70, 66
2, 113708, Note_off_c, 0, 58, 64
2, 113720, Control_c, 0, 64, 127
2, 113840, Note_off_c, 0, 70, 64
2, 113856, Control_c, 0, 64, 0
2, 113856, Note_on_c, 0, 58, 28
2, 113864, Note_on_c, 0, 62, 49
2, 114020, Note_off_c, 0, 62, 64
2, 114028, Note_off_c, 0, 58, 64
2, 114028, Note_on_c, 0, 74, 62
2, 114080, Control_c, 0, 64, 127
2, 114156, Note_off_c, 0, 74, 64
2, 114200, Control_c, 0, 64, 0
2, 114200, Note_on_c, 0, 58, 33
2, 114200, Note_on_c, 0, 62, 42
2, 114348, Note_on_c, 0, 67, 55
2, 114392, Note_off_c, 0, 62, 64
2, 114392, Note_off_c, 0, 67, 64
2, 114396, Control_c, 0, 64, 127
2, 114404, Note_off_c, 0, 58, 64
2, 114512, Note_on_c, 0, 70, 53
2, 114532, Control_c, 0, 64, 0
2, 114704, Note_on_c, 0, 69, 23
2, 114716, Note_off_c, 0, 70, 64
2, 114808, Note_off_c, 0, 69, 64
2, 114844, Note_on_c, 0, 54, 39
2, 114844, Note_on_c, 0, 62, 26
2, 114964, Control_c, 0, 64, 127
2, 114992, Note_off_c, 0, 62, 64
2, 114996, Note_off_c, 0, 54, 64
2, 115008, Note_on_c, 0, 72, 57
2, 115080, Note_off_c, 0, 72, 64
2, 115148, Control_c, 0, 64, 0
2, 115164, Note_on_c, 0, 70, 59
2, 115176, Note_on_c, 0, 62, 44
2, 115180, Note_on_c, 0, 54, 39
2, 115352, Note_off_c, 0, 54, 64
2, 115352, Note_on_c, 0, 69, 31
2, 115356, Note_off_c, 0, 62, 64
2, 115360, Note_off_c, 0, 70, 64
2, 115380, Control_c, 0, 64, 127
2, 115436, Note_off_c, 0, 69, 64
2, 115508, Note_on_c, 0, 62, 43
2, 115512, Note_on_c, 0, 54, 37
2, 115516, Control_c, 0, 64, 0
2, 115652, Note_on_c, 0, 72, 75
2, 115672, Note_off_c, 0, 62, 64
2, 115672, Note_off_c, 0, 54, 64
2, 115700, Control_c, 0, 64, 127
2, 115720, Note_off_c, 0, 72, 64
2, 115824, Note_on_c, 0, 70, 68
2, 115844, Note_on_c, 0, 54, 31
2, 115844, Note_on_c, 0, 62, 39
2, 115848, Control_c, 0, 64, 0
2, 116012, Note_off_c, 0, 62, 64
2, 116020, Note_off_c, 0, 54, 64
2, 116024, Note_on_c, 0, 69, 36
2, 116044, Control_c, 0, 64, 127
2, 116048, Note_off_c, 0, 70, 64
2, 116156, Note_off_c, 0, 69, 64
2, 116156, Control_c, 0, 64, 0
2, 116172, Note_on_c, 0, 54, 37
2, 116172, Note_on_c, 0, 62, 44
2, 116320, Note_off_c, 0, 62, 64
2, 116324, Note_off_c, 0, 54, 64
2, 116328, Note_on_c, 0, 72, 70
2, 116340, Control_c, 0, 64, 127
2, 116456, Note_off_c, 0, 72, 64
2, 116476, Control_c, 0, 64, 0
2, 116492, Note_on_c, 0, 62, 45
2, 116496, Note_on_c, 0, 54, 41
2, 116640, Note_off_c, 0, 62, 64
2, 116648, Note_off_c, 0, 54, 64
2, 116656, Note_on_c, 0, 75, 56
2, 116672, Control_c, 0, 64, 127
2, 116792, Control_c, 0, 64, 0
2, 116796, Note_off_c, 0, 75, 64
2, 116812, Note_on_c, 0, 62, 41
2, 116816, Note_on_c, 0, 54, 33
2, 116924, Note_off_c, 0, 62, 64
2, 116940, Note_off_c, 0, 54, 64
2, 116952, Note_on_c, 0, 69, 44
2, 116980, Control_c, 0, 64, 127
2, 117016, Note_off_c, 0, 69, 64
2, 117100, Control_c, 0, 64, 0
2, 117124, Note_on_c, 0, 62, 31
2, 117132, Note_on_c, 0, 72, 47
2, 117152, Note_on_c, 0, 55, 21
2, 117280, Note_off_c, 0, 55, 64
2, 117296, Note_on_c, 0, 70, 41
2, 117312, Control_c, 0, 64, 127
2, 117320, Note_off_c, 0, 62, 64
2, 117324, Note_off_c, 0, 72, 64
2, 117380, Note_off_c, 0, 70, 64
2, 117432, Control_c, 0, 64, 0
2, 117440, Note_on_c, 0, 55, 34
2, 117440, Note_on_c, 0, 58, 35
2, 117600, Note_on_c, 0, 79, 55
2, 117656, Control_c, 0, 64, 127
2, 117704, Note_off_c, 0, 58, 64
2, 117732, Note_off_c, 0, 79, 64
2, 117740, Note_off_c, 0, 55, 64
2, 117780, Note_on_c, 0, 57, 28
2, 117784, Note_on_c, 0, 60, 30
2, 117852, Control_c, 0, 64, 0
2, 117932, Note_on_c, 0, 78, 50
2, 118060, Control_c, 0, 64, 127
2, 118064, Note_off_c, 0, 57, 64
2, 118072, Note_off_c, 0, 60, 64
2, 118080, Note_on_c, 0, 62, 40
2, 118088, Note_off_c, 0, 78, 64
2, 118096, Note_on_c, 0, 59, 23
2, 118172, Control_c, 0, 64, 0
2, 118248, Note_on_c, 0, 77, 63
2, 118264, Note_off_c, 0, 59, 64
2, 118332, Control_c, 0, 64, 127
2, 118380, Note_off_c, 0, 77, 64
2, 118400, Note_on_c, 0, 63, 47
2, 118408, Note_on_c, 0, 60, 44
2, 118420, Note_off_c, 0, 62, 64
2, 118492, Control_c, 0, 64, 0
2, 118564, Note_on_c, 0, 75, 68
2, 118676, Control_c, 0, 64, 127
2, 118696, Note_off_c, 0, 75, 64
2, 118720, Note_off_c, 0, 63, 64
2, 118720, Note_on_c, 0, 66, 49
2, 118736, Note_on_c, 0, 62, 58
2, 118776, Note_off_c, 0, 60, 64
2, 118784, Control_c, 0, 64, 0
2, 118872, Note_on_c, 0, 74, 83
2, 118968, Control_c, 0, 64, 127
2, 119004, Note_off_c, 0, 74, 64
2, 119032, Note_off_c, 0, 66, 64
2, 119036, Note_on_c, 0, 67, 74
2, 119040, Note_on_c, 0, 64, 66
2, 119060, Note_off_c, 0, 62, 64
2, 119120, Control_c, 0, 64, 0
2, 119188, Note_on_c, 0, 73, 75
2, 119240, Note_off_c, 0, 67, 64
2, 119276, Control_c, 0, 64, 127
2, 119344, Note_off_c, 0, 73, 64
2, 119360, Note_on_c, 0, 69, 53
2, 119364, Note_on_c, 0, 66, 42
2, 119376, Note_off_c, 0, 64, 64
2, 119400, Control_c, 0, 64, 0
2, 119504, Note_on_c, 0, 72, 64
2, 119548, Note_off_c, 0, 69, 64
2, 119572, Control_c, 0, 64, 127
2, 119608, Note_off_c, 0, 72, 64
2, 119672, Note_on_c, 0, 70, 48
2, 119696, Note_on_c, 0, 67, 39
2, 119704, Note_off_c, 0, 66, 64
2, 119708, Control_c, 0, 64, 0
2, 119860, Note_off_c, 0, 70, 64
2, 119860, Note_on_c, 0, 74, 50
2, 119908, Note_off_c, 0, 67, 64
2, 119916, Control_c, 0, 64, 127
2, 119928, Note_off_c, 0, 74, 64
2, 120004, Note_on_c, 0, 58, 34
2, 120004, Note_on_c, 0, 55, 41
2, 120052, Control_c, 0, 64, 0
2, 120164, Note_on_c, 0, 79, 61
2, 120224, Note_off_c, 0, 58, 64
2, 120248, Control_c, 0, 64, 127
2, 120308, Note_off_c, 0, 55, 64
2, 120308, Note_off_c, 0, 79, 64
2, 120320, Note_on_c, 0, 57, 47
2, 120324, Note_on_c, 0, 60, 52
2, 120472, Note_on_c, 0, 78, 75
2, 120596, Note_off_c, 0, 60, 64
2, 120604, Note_on_c, 0, 62, 72
2, 120608, Note_on_c, 0, 59, 63
2, 120616, Note_off_c, 0, 57, 64
2, 120616, Control_c, 0, 64, 0
2, 120664, Note_off_c, 0, 78, 64
2, 120756, Note_on_c, 0, 77, 84
2, 120776, Note_off_c, 0, 62, 64
2, 120776, Control_c, 0, 64, 127
2, 120864, Note_off_c, 0, 59, 64
2, 120864, Note_off_c, 0, 77, 64
2, 120924, Note_on_c, 0, 67, 70
2, 120924, Note_on_c, 0, 74, 83
2, 120932, Note_on_c, 0, 60, 62
2, 120976, Control_c, 0, 64, 0
2, 121096, Note_on_c, 0, 75, 83
2, 121120, Note_off_c, 0, 74, 64
2, 121144, Control_c, 0, 64, 127
2, 121188, Note_off_c, 0, 67, 64
2, 121212, Note_off_c, 0, 75, 64
2, 121232, Note_off_c, 0, 60, 64
2, 121240, Note_on_c, 0, 61, 82
2, 121248, Note_on_c, 0, 58, 54
2, 121304, Control_c, 0, 64, 0
2, 121384, Note_on_c, 0, 76, 88
2, 121464, Control_c, 0, 64, 127
2, 121520, Note_off_c, 0, 61, 64
2, 121540, Note_on_c, 0, 60, 80
2, 121544, Note_on_c, 0, 79, 95
2, 121552, Control_c, 0, 64, 0
2, 121552, Note_on_c, 0, 57, 60
2, 121560, Note_off_c, 0, 58, 64
2, 121592, Note_off_c, 0, 76, 64
2, 121712, Note_on_c, 0, 77, 89
2, 121724, Note_off_c, 0, 57, 64
2, 121736, Note_off_c, 0, 60, 64
2, 121736, Control_c, 0, 64, 127
2, 121768, Note_off_c, 0, 79, 64
2, 121804, Note_off_c, 0, 77, 64
2, 121852, Note_on_c, 0, 63, 81
2, 121856, Note_on_c, 0, 60, 75
2, 121896, Control_c, 0, 64, 0
2, 121992, Note_on_c, 0, 78, 95
2, 122056, Control_c, 0, 64, 127
2, 122116, Note_off_c, 0, 63, 64
2, 122156, Note_on_c, 0, 62, 76
2, 122156, Note_on_c, 0, 58, 59
2, 122156, Note_on_c, 0, 81, 93
2, 122168, Note_off_c, 0, 60, 64
2, 122192, Control_c, 0, 64, 0
2, 122200, Note_off_c, 0, 78, 64
2, 122308, Note_on_c, 0, 79, 96
2, 122340, Note_off_c, 0, 62, 64
2, 122364, Note_off_c, 0, 58, 64
2, 122364, Note_off_c, 0, 81, 64
2, 122364, Control_c, 0, 64, 127
2, 122416, Note_off_c, 0, 79, 64
2, 122448, Note_on_c, 0, 62, 100
2, 122448, Note_on_c, 0, 54, 100
2, 122604, Note_on_c, 0, 81, 97
2, 122620, Control_c, 0, 64, 0
2, 122752, Note_on_c, 0, 84, 106
2, 122760, Note_on_c, 0, 55, 94
2, 122804, Note_off_c, 0, 81, 64
2, 122832, Note_off_c, 0, 54, 64
2, 122920, Note_on_c, 0, 82, 90
2, 122964, Control_c, 0, 64, 127
2, 122980, Note_off_c, 0, 84, 64
2, 123008, Note_off_c, 0, 55, 64
2, 123012, Note_off_c, 0, 62, 64
2, 123044, Note_off_c, 0, 82, 64
2, 123056, Note_on_c, 0, 56, 84
2, 123068, Note_on_c, 0, 53, 106
2, 123112, Control_c, 0, 64, 0
2, 123204, Note_on_c, 0, 83, 115
2, 123284, Control_c, 0, 64, 127
2, 123344, Note_off_c, 0, 53, 64
2, 123348, Note_off_c, 0, 56, 64
2, 123360, Control_c, 0, 64, 0
2, 123376, Note_on_c, 0, 86, 105
2, 123376, Note_on_c, 0, 52, 101
2, 123380, Note_on_c, 0, 55, 92
2, 123408, Note_off_c, 0, 83, 64
2, 123556, Control_c, 0, 64, 127
2, 123560, Note_on_c, 0, 85, 97
2, 123576, Note_off_c, 0, 52, 64
2, 123576, Note_off_c, 0, 55, 64
2, 123612, Note_off_c, 0, 86, 64
2, 123656, Note_off_c, 0, 85, 64
2, 123736, Note_on_c, 0, 58, 76
2, 123740, Control_c, 0, 64, 0
2, 123744, Note_on_c, 0, 55, 84
2, 123752, Note_on_c, 0, 50, 94
2, 123948, Note_on_c, 0, 86, 103
2, 123972, Control_c, 0, 64, 127
2, 123984, Note_off_c, 0, 55, 64
2, 123992, Note_off_c, 0, 58, 64
2, 124032, Note_off_c, 0, 50, 64
2, 124084, Note_off_c, 0, 86, 64
2, 124284, Note_on_c, 0, 58, 53
2, 124288, Note_on_c, 0, 89, 104
2, 124292, Note_on_c, 0, 49, 67
2, 124300, Note_on_c, 0, 55, 69
2, 124428, Control_c, 0, 64, 0
2, 124992, Control_c, 0, 64, 127
2, 125268, Note_on_c, 0, 88, 90
2, 125312, Control_c, 0, 64, 0
2, 125324, Note_off_c, 0, 89, 64
2, 125496, Control_c, 0, 64, 127
2, 125576, Note_off_c, 0, 49, 64
2, 125576, Note_off_c, 0, 55, 64
2, 125576, Note_off_c, 0, 58, 64
2, 126784, Note_off_c, 0, 88, 64
2, 126996, Control_c, 0, 64, 0
2, 127500, Note_on_c, 0, 87, 77
2, 127696, Note_on_c, 0, 88, 82
2, 127724, Note_off_c, 0, 87, 64
2, 127840, Note_on_c, 0, 86, 89
2, 127896, Note_off_c, 0, 88, 64
2, 127944, Note_on_c, 0, 85, 83
2, 127988, Note_off_c, 0, 86, 64
2, 128040, Note_on_c, 0, 83, 98
2, 128084, Note_off_c, 0, 85, 64
2, 128120, Note_off_c, 0, 83, 64
2, 128120, Note_on_c, 0, 81, 78
2, 128208, Note_on_c, 0, 80, 81
2, 128236, Note_off_c, 0, 81, 64
2, 128296, Note_on_c, 0, 82, 69
2, 128304, Note_off_c, 0, 80, 64
2, 128344, Note_off_c, 0, 82, 64
2, 128376, Note_on_c, 0, 81, 70
2, 128440, Note_off_c, 0, 81, 64
2, 128456, Note_on_c, 0, 84, 79
2, 128532, Note_on_c, 0, 82, 64
2, 128552, Note_off_c, 0, 84, 64
2, 128604, Note_on_c, 0, 81, 71
2, 128636, Note_off_c, 0, 82, 64
2, 128680, Note_on_c, 0, 79, 76
2, 128684, Note_off_c, 0, 81, 64
2, 128760, Note_on_c, 0, 77, 73
2, 128764, Note_off_c, 0, 79, 64
2, 128832, Note_on_c, 0, 76, 63
2, 128836, Note_off_c, 0, 77, 64
2, 128872, Note_off_c, 0, 76, 64
2, 128892, Note_on_c, 0, 74, 61
2, 128956, Note_off_c, 0, 74, 64
2, 128960, Note_on_c, 0, 73, 59
2, 129028, Note_on_c, 0, 71, 81
2, 129060, Note_off_c, 0, 73, 64
2, 129064, Note_off_c, 0, 71, 64
2, 129088, Note_on_c, 0, 69, 57
2, 129164, Note_on_c, 0, 68, 65
2, 129192, Note_off_c, 0, 69, 64
2, 129232, Note_on_c, 0, 70, 65
2, 129240, Note_off_c, 0, 68, 64
2, 129304, Note_on_c, 0, 69, 64
2, 129324, Note_off_c, 0, 70, 64
2, 129352, Note_off_c, 0, 69, 64
2, 129364, Note_on_c, 0, 72, 61
2, 129432, Note_on_c, 0, 70, 50
2, 129440, Note_off_c, 0, 72, 64
2, 129484, Note_on_c, 0, 69, 55
2, 129524, Note_off_c, 0, 70, 64
2, 129524, Note_off_c, 0, 69, 64
2, 129548, Note_on_c, 0, 67, 59
2, 129604, Note_off_c, 0, 67, 64
2, 129608, Note_on_c, 0, 65, 66
2, 129672, Note_off_c, 0, 65, 64
2, 129680, Note_on_c, 0, 64, 63
2, 129712, Note_off_c, 0, 64, 64
2, 129728, Note_on_c, 0, 62, 70
2, 129796, Note_on_c, 0, 61, 65
2, 129812, Note_off_c, 0, 62, 64
2, 129864, Note_on_c, 0, 59, 67
2, 129892, Note_off_c, 0, 61, 64
2, 129896, Note_off_c, 0, 59, 64
2, 129928, Note_on_c, 0, 57, 64
2, 129992, Note_on_c, 0, 56, 70
2, 130008, Note_off_c, 0, 57, 64
2, 130060, Note_on_c, 0, 58, 62
2, 130068, Note_off_c, 0, 56, 64
2, 130124, Note_on_c, 0, 57, 70
2, 130152, Note_off_c, 0, 58, 64
2, 130176, Note_off_c, 0, 57, 64
2, 130188, Note_on_c, 0, 60, 65
2, 130248, Note_on_c, 0, 58, 55
2, 130272, Note_off_c, 0, 60, 64
2, 130312, Note_on_c, 0, 57, 62
2, 130352, Note_off_c, 0, 58, 64
2, 130364, Note_off_c, 0, 57, 64
2, 130380, Note_on_c, 0, 55, 63
2, 130440, Note_on_c, 0, 53, 89
2, 130464, Note_off_c, 0, 55, 64
2, 130500, Note_off_c, 0, 53, 64
2, 130504, Note_on_c, 0, 52, 79
2, 130544, Note_off_c, 0, 52, 64
2, 130568, Note_on_c, 0, 50, 69
2, 130632, Note_on_c, 0, 49, 60
2, 130648, Note_off_c, 0, 50, 64
2, 130704, Note_on_c, 0, 47, 69
2, 130736, Note_off_c, 0, 49, 64
2, 130740, Note_off_c, 0, 47, 64
2, 130768, Note_on_c, 0, 45, 69
2, 130840, Note_on_c, 0, 44, 77
2, 130872, Note_off_c, 0, 45, 64
2, 130920, Note_on_c, 0, 46, 67
2, 130932, Note_off_c, 0, 44, 64
2, 130984, Note_on_c, 0, 45, 80
2, 131016, Note_off_c, 0, 46, 64
2, 131040, Note_off_c, 0, 45, 64
2, 131048, Note_on_c, 0, 48, 68
2, 131116, Note_on_c, 0, 46, 71
2, 131136, Note_off_c, 0, 48, 64
2, 131184, Note_on_c, 0, 45, 79
2, 131208, Note_off_c, 0, 46, 64
2, 131264, Note_off_c, 0, 45, 64
2, 131264, Note_on_c, 0, 43, 77
2, 131336, Note_on_c, 0, 41, 86
2, 131352, Note_off_c, 0, 43, 64
2, 131428, Note_on_c, 0, 40, 88
2, 131448, Note_off_c, 0, 41, 64
2, 131504, Note_on_c, 0, 38, 81
2, 131516, Note_off_c, 0, 40, 64
2, 131596, Note_on_c, 0, 33, 97
2, 131644, Note_off_c, 0, 38, 64
2, 132508, Note_on_c, 0, 45, 96
2, 133840, Note_on_c, 0, 47, 78
2, 133904, Note_off_c, 0, 45, 64
2, 134136, Note_on_c, 0, 45, 67
2, 134212, Note_off_c, 0, 47, 64
2, 134348, Note_on_c, 0, 44, 72
2, 134400, Note_off_c, 0, 45, 64
2, 134644, Note_on_c, 0, 45, 57
2, 134696, Note_off_c, 0, 44, 64
2, 134948, Note_on_c, 0, 46, 47
2, 135032, Note_off_c, 0, 45, 64
2, 135144, Control_c, 0, 64, 127
2, 135152, Note_on_c, 0, 47, 43
2, 135192, Note_off_c, 0, 46, 64
2, 135304, Note_on_c, 0, 48, 42
2, 135328, Note_off_c, 0, 47, 64
2, 135432, Note_on_c, 0, 49, 50
2, 135444, Note_off_c, 0, 48, 64
2, 135544, Note_off_c, 0, 49, 64
2, 135548, Note_on_c, 0, 50, 50
2, 135624, Control_c, 0, 64, 0
2, 135644, Note_off_c, 0, 50, 64
2, 135644, Note_on_c, 0, 51, 53
2, 135736, Note_on_c, 0, 52, 62
2, 135744, Note_off_c, 0, 51, 64
2, 135796, Control_c, 0, 64, 127
2, 135832, Note_on_c, 0, 53, 72
2, 135852, Note_off_c, 0, 52, 64
2, 135912, Note_on_c, 0, 54, 64
2, 135920, Note_off_c, 0, 53, 64
2, 135976, Note_off_c, 0, 33, 64
2, 135980, Note_off_c, 0, 54, 64
2, 135992, Note_on_c, 0, 55, 61
2, 136044, Note_off_c, 0, 55, 64
2, 136068, Note_on_c, 0, 56, 63
2, 136152, Note_on_c, 0, 57, 54
2, 136168, Note_off_c, 0, 56, 64
2, 136204, Control_c, 0, 64, 0
2, 136224, Note_on_c, 0, 58, 54
2, 136240, Note_off_c, 0, 57, 64
2, 136276, Note_off_c, 0, 58, 64
2, 136292, Note_on_c, 0, 59, 60
2, 136344, Note_off_c, 0, 59, 64
2, 136364, Note_on_c, 0, 60, 65
2, 136428, Note_off_c, 0, 60, 64
2, 136428, Note_on_c, 0, 61, 63
2, 136472, Note_off_c, 0, 61, 64
2, 136500, Note_on_c, 0, 62, 54
2, 136540, Note_off_c, 0, 62, 64
2, 136548, Control_c, 0, 64, 127
2, 136560, Note_on_c, 0, 63, 69
2, 136584, Control_c, 0, 64, 0
2, 136592, Note_off_c, 0, 63, 64
2, 136632, Note_on_c, 0, 64, 46
2, 136684, Note_off_c, 0, 64, 64
2, 136696, Note_on_c, 0, 65, 61
2, 136760, Note_off_c, 0, 65, 64
2, 136764, Note_on_c, 0, 66, 46
2, 136808, Note_off_c, 0, 66, 64
2, 136832, Note_on_c, 0, 67, 47
2, 136840, Control_c, 0, 64, 127
2, 136888, Note_off_c, 0, 67, 64
2, 136904, Note_on_c, 0, 68, 43
2, 136960, Note_off_c, 0, 68, 64
2, 136972, Note_on_c, 0, 69, 43
2, 137004, Control_c, 0, 64, 0
2, 137044, Note_off_c, 0, 69, 64
2, 137060, Note_on_c, 0, 70, 36
2, 137108, Note_off_c, 0, 70, 64
2, 137128, Note_on_c, 0, 71, 39
2, 137184, Note_off_c, 0, 71, 64
2, 137208, Note_on_c, 0, 72, 31
2, 137264, Note_off_c, 0, 72, 64
2, 137272, Note_on_c, 0, 73, 43
2, 137340, Note_off_c, 0, 73, 64
2, 137380, Note_on_c, 0, 74, 40
2, 137420, Control_c, 0, 64, 127
2, 137440, Note_off_c, 0, 74, 64
2, 137480, Note_on_c, 0, 75, 27
2, 137568, Note_off_c, 0, 75, 64
2, 137596, Note_on_c, 0, 76, 32
2, 137764, Control_c, 0, 64, 0
2, 137800, Note_on_c, 0, 77, 44
2, 137812, Note_off_c, 0, 76, 64
2, 137832, Note_on_c, 0, 62, 22
2, 138340, Note_on_c, 0, 69, 13
2, 138344, Note_on_c, 0, 65, 15
2, 138428, Control_c, 0, 64, 127
2, 138464, Note_off_c, 0, 65, 64
2, 138496, Note_off_c, 0, 69, 64
2, 138700, Note_on_c, 0, 69, 18
2, 138752, Note_on_c, 0, 65, 5
2, 138804, Note_off_c, 0, 69, 64
2, 138816, Note_off_c, 0, 65, 64
2, 139060, Note_on_c, 0, 69, 17
2, 139100, Note_off_c, 0, 62, 64
2, 139108, Note_on_c, 0, 65, 5
2, 139196, Note_off_c, 0, 65, 64
2, 139208, Note_off_c, 0, 69, 64
2, 139236, Note_off_c, 0, 77, 64
2, 139236, Note_on_c, 0, 76, 38
2, 139304, Note_off_c, 0, 76, 64
2, 139324, Note_on_c, 0, 77, 39
2, 139436, Control_c, 0, 64, 0
2, 139440, Note_on_c, 0, 79, 65
2, 139444, Note_off_c, 0, 77, 64
2, 139464, Note_on_c, 0, 62, 24
2, 139780, Control_c, 0, 64, 127
2, 139828, Note_on_c, 0, 77, 69
2, 139856, Note_on_c, 0, 69, 14
2, 139880, Note_on_c, 0, 65, 6
2, 139900, Note_off_c, 0, 79, 64
2, 139904, Control_c, 0, 64, 0
2, 139988, Note_off_c, 0, 69, 64
2, 139996, Note_off_c, 0, 65, 64
2, 140040, Control_c, 0, 64, 127
2, 140068, Note_off_c, 0, 77, 64
2, 140180, Note_on_c, 0, 76, 55
2, 140212, Note_on_c, 0, 69, 16
2, 140236, Note_on_c, 0, 65, 13
2, 140284, Control_c, 0, 64, 0
2, 140344, Note_off_c, 0, 69, 64
2, 140352, Note_off_c, 0, 65, 64
2, 140420, Control_c, 0, 64, 127
2, 140448, Note_off_c, 0, 76, 64
2, 140544, Note_on_c, 0, 74, 47
2, 140564, Note_on_c, 0, 69, 18
2, 140580, Note_on_c, 0, 65, 16
2, 140580, Control_c, 0, 64, 0
2, 140728, Note_off_c, 0, 69, 64
2, 140740, Control_c, 0, 64, 127
2, 140764, Note_off_c, 0, 74, 64
2, 140776, Note_off_c, 0, 65, 64
2, 140832, Note_off_c, 0, 62, 64
2, 140984, Note_on_c, 0, 73, 34
2, 141012, Note_on_c, 0, 64, 15
2, 141096, Control_c, 0, 64, 0
2, 141328, Control_c, 0, 64, 127
2, 141360, Note_on_c, 0, 69, 14
2, 141364, Note_on_c, 0, 67, 19
2, 141464, Note_off_c, 0, 67, 64
2, 141480, Note_off_c, 0, 69, 64
2, 141540, Note_off_c, 0, 64, 64
2, 141716, Note_on_c, 0, 69, 10
2, 141736, Note_on_c, 0, 67, 15
2, 141808, Note_off_c, 0, 67, 64
2, 141828, Note_off_c, 0, 69, 64
2, 141956, Note_off_c, 0, 73, 64
2, 142104, Note_on_c, 0, 69, 11
2, 142104, Note_on_c, 0, 67, 19
2, 142224, Note_off_c, 0, 67, 64
2, 142228, Note_off_c, 0, 69, 64
2, 142328, Note_on_c, 0, 74, 37
2, 142384, Note_off_c, 0, 74, 64
2, 142508, Note_on_c, 0, 75, 39
2, 142536, Control_c, 0, 64, 0
2, 142544, Note_on_c, 0, 64, 24
2, 142896, Note_on_c, 0, 69, 16
2, 142896, Note_on_c, 0, 76, 26
2, 142912, Note_on_c, 0, 67, 14
2, 142916, Note_off_c, 0, 75, 64
2, 143056, Note_off_c, 0, 67, 64
2, 143080, Note_off_c, 0, 69, 64
2, 143088, Control_c, 0, 64, 127
2, 143236, Note_off_c, 0, 76, 64
2, 143256, Note_on_c, 0, 69, 21
2, 143292, Note_on_c, 0, 67, 12
2, 143348, Note_off_c, 0, 69, 64
2, 143364, Note_off_c, 0, 67, 64
2, 143456, Note_off_c, 0, 64, 64
2, 143624, Note_on_c, 0, 69, 23
2, 143632, Note_on_c, 0, 67, 20
2, 143708, Note_off_c, 0, 67, 64
2, 143728, Note_off_c, 0, 69, 64
2, 144140, Note_on_c, 0, 61, 32
2, 144140, Note_on_c, 0, 79, 52
2, 144168, Control_c, 0, 64, 0
2, 144532, Note_on_c, 0, 69, 18
2, 144552, Note_on_c, 0, 64, 19
2, 144560, Control_c, 0, 64, 127
2, 144616, Note_off_c, 0, 64, 64
2, 144660, Note_off_c, 0, 69, 64
2, 144876, Note_on_c, 0, 69, 21
2, 144920, Note_on_c, 0, 64, 12
2, 144988, Note_off_c, 0, 69, 64
2, 144988, Note_off_c, 0, 64, 64
2, 145232, Note_on_c, 0, 69, 22
2, 145260, Note_on_c, 0, 64, 19
2, 145312, Note_off_c, 0, 79, 64
2, 145340, Note_off_c, 0, 64, 64
2, 145368, Note_off_c, 0, 61, 64
2, 145380, Note_off_c, 0, 69, 64
2, 145408, Note_on_c, 0, 78, 53
2, 145504, Note_on_c, 0, 79, 74
2, 145508, Note_off_c, 0, 78, 64
2, 145608, Control_c, 0, 64, 0
2, 145616, Note_on_c, 0, 61, 27
2, 145628, Note_off_c, 0, 79, 64
2, 145632, Note_on_c, 0, 81, 64
2, 145820, Note_off_c, 0, 81, 64
2, 145840, Control_c, 0, 64, 127
2, 145976, Note_on_c, 0, 79, 71
2, 145980, Note_on_c, 0, 69, 13
2, 146016, Note_on_c, 0, 64, 15
2, 146088, Note_off_c, 0, 69, 64
2, 146088, Note_off_c, 0, 64, 64
2, 146160, Note_off_c, 0, 79, 64
2, 146324, Note_on_c, 0, 77, 61
2, 146332, Note_on_c, 0, 69, 19
2, 146356, Control_c, 0, 64, 0
2, 146360, Note_on_c, 0, 64, 21
2, 146480, Note_off_c, 0, 64, 64
2, 146488, Note_off_c, 0, 69, 64
2, 146516, Control_c, 0, 64, 127
2, 146520, Note_off_c, 0, 77, 64
2, 146672, Note_on_c, 0, 69, 22
2, 146680, Note_on_c, 0, 76, 36
2, 146704, Note_on_c, 0, 64, 24
2, 146752, Control_c, 0, 64, 0
2, 146900, Note_off_c, 0, 64, 64
2, 146908, Note_off_c, 0, 69, 64
2, 146912, Control_c, 0, 64, 127
2, 146924, Note_off_c, 0, 76, 64
2, 146952, Note_off_c, 0, 61, 64
2, 147096, Note_on_c, 0, 74, 30
2, 147120, Note_on_c, 0, 62, 22
2, 147156, Control_c, 0, 64, 0
2, 147416, Control_c, 0, 64, 127
2, 147484, Note_on_c, 0, 69, 12
2, 147512, Note_on_c, 0, 65, 7
2, 147624, Note_off_c, 0, 69, 64
2, 147624, Note_off_c, 0, 65, 64
2, 147856, Note_on_c, 0, 69, 13
2, 147880, Note_on_c, 0, 65, 7
2, 147952, Note_off_c, 0, 69, 64
2, 147976, Note_off_c, 0, 65, 64
2, 148056, Note_off_c, 0, 74, 64
2, 148204, Note_on_c, 0, 69, 18
2, 148224, Note_on_c, 0, 65, 16
2, 148248, Note_off_c, 0, 62, 64
2, 148296, Note_off_c, 0, 65, 64
2, 148320, Note_off_c, 0, 69, 64
2, 148448, Note_on_c, 0, 76, 20
2, 148512, Note_off_c, 0, 76, 64
2, 148636, Note_on_c, 0, 79, 43
2, 148660, Note_on_c, 0, 62, 21
2, 148668, Control_c, 0, 64, 0
2, 149020, Note_on_c, 0, 65, 15
2, 149024, Note_on_c, 0, 69, 14
2, 149028, Note_on_c, 0, 77, 35
2, 149064, Note_off_c, 0, 79, 64
2, 149192, Note_off_c, 0, 65, 64
2, 149192, Note_off_c, 0, 69, 64
2, 149220, Control_c, 0, 64, 127
2, 149392, Note_on_c, 0, 69, 14
2, 149416, Note_on_c, 0, 65, 12
2, 149428, Note_off_c, 0, 77, 64
2, 149476, Note_off_c, 0, 69, 64
2, 149484, Note_off_c, 0, 65, 64
2, 149536, Note_off_c, 0, 62, 64
2, 149776, Note_on_c, 0, 65, 20
2, 149780, Note_on_c, 0, 69, 12
2, 149848, Note_off_c, 0, 65, 64
2, 149852, Note_off_c, 0, 69, 64
2, 150272, Note_on_c, 0, 81, 96
2, 150276, Note_on_c, 0, 69, 72
2, 150488, Control_c, 0, 64, 0
2, 150984, Note_on_c, 0, 62, 77
2, 150988, Note_on_c, 0, 57, 60
2, 150988, Note_on_c, 0, 53, 88
2, 151152, Control_c, 0, 64, 127
2, 151324, Note_off_c, 0, 57, 64
2, 151356, Note_off_c, 0, 69, 64
2, 151472, Note_off_c, 0, 53, 64
2, 151476, Note_off_c, 0, 62, 64
2, 151680, Note_on_c, 0, 82, 79
2, 151684, Note_on_c, 0, 70, 60
2, 151684, Note_on_c, 0, 61, 51
2, 151712, Note_on_c, 0, 52, 52
2, 151716, Note_on_c, 0, 55, 38
2, 151760, Note_off_c, 0, 81, 64
2, 151776, Control_c, 0, 64, 0
2, 152048, Control_c, 0, 64, 127
2, 152120, Note_off_c, 0, 61, 64
2, 152172, Note_off_c, 0, 55, 64
2, 152184, Note_off_c, 0, 52, 64
2, 152192, Note_off_c, 0, 70, 64
2, 152340, Note_off_c, 0, 82, 64
2, 152480, Control_c, 0, 64, 0
2, 153180, Note_on_c, 0, 81, 60
2, 153424, Control_c, 0, 64, 127
2, 153704, Note_on_c, 0, 86, 58
2, 153724, Note_off_c, 0, 81, 64
2, 153872, Note_on_c, 0, 85, 64
2, 153880, Control_c, 0, 64, 0
2, 153884, Note_on_c, 0, 74, 34
2, 153904, Note_off_c, 0, 86, 64
2, 153916, Note_on_c, 0, 65, 18
2, 154060, Note_off_c, 0, 85, 64
2, 154064, Control_c, 0, 64, 127
2, 154136, Control_c, 0, 64, 0
2, 154152, Note_on_c, 0, 84, 57
2, 154296, Note_off_c, 0, 84, 64
2, 154312, Control_c, 0, 64, 127
2, 154372, Control_c, 0, 64, 0
2, 154388, Note_on_c, 0, 83, 71
2, 154508, Note_off_c, 0, 74, 64
2, 154544, Control_c, 0, 64, 127
2, 154552, Note_off_c, 0, 65, 64
2, 154552, Note_off_c, 0, 83, 64
2, 154740, Note_on_c, 0, 82, 36
2, 154748, Note_on_c, 0, 73, 17
2, 154776, Note_on_c, 0, 67, 12
2, 154812, Control_c, 0, 64, 0
2, 155316, Control_c, 0, 64, 127
2, 155352, Note_off_c, 0, 73, 64
2, 155400, Note_off_c, 0, 82, 64
2, 155412, Note_off_c, 0, 67, 64
2, 155612, Control_c, 0, 64, 0
2, 155928, Note_on_c, 0, 81, 74
2, 155936, Note_on_c, 0, 74, 31
2, 155952, Note_on_c, 0, 65, 13
2, 155968, Control_c, 0, 64, 127
2, 156020, Note_off_c, 0, 65, 64
2, 156024, Note_off_c, 0, 74, 64
2, 156056, Note_off_c, 0, 81, 64
2, 156156, Note_on_c, 0, 81, 59
2, 156172, Note_on_c, 0, 74, 37
2, 156180, Note_on_c, 0, 64, 30
2, 156276, Control_c, 0, 64, 0
2, 156544, Note_on_c, 0, 80, 50
2, 156600, Note_off_c, 0, 81, 64
2, 156780, Note_off_c, 0, 74, 64
2, 156808, Note_off_c, 0, 64, 64
2, 156816, Control_c, 0, 64, 127
2, 156860, Note_off_c, 0, 80, 64
2, 157052, Control_c, 0, 64, 0
2, 157304, Note_on_c, 0, 80, 56
2, 157344, Control_c, 0, 64, 127
2, 157428, Note_off_c, 0, 80, 64
2, 157540, Note_on_c, 0, 73, 22
2, 157544, Note_on_c, 0, 88, 55
2, 157580, Control_c, 0, 64, 0
2, 157580, Note_on_c, 0, 69, 12
2, 158004, Note_off_c, 0, 88, 64
2, 158004, Note_on_c, 0, 79, 41
2, 158256, Control_c, 0, 64, 127
2, 158312, Note_off_c, 0, 79, 64
2, 158328, Note_off_c, 0, 73, 64
2, 158360, Note_off_c, 0, 69, 64
2, 158648, Control_c, 0, 64, 0
2, 158952, Note_on_c, 0, 79, 31
2, 158968, Control_c, 0, 64, 127
2, 159084, Note_off_c, 0, 79, 64
2, 159272, Note_on_c, 0, 70, 12
2, 159288, Note_on_c, 0, 76, 16
2, 159312, Note_on_c, 0, 74, 14
2, 159336, Control_c, 0, 64, 0
2, 159720, Control_c, 0, 64, 127
2, 159912, Note_off_c, 0, 76, 64
2, 159964, Note_on_c, 0, 77, 10
2, 159988, Control_c, 0, 64, 0
2, 160272, Control_c, 0, 64, 127
2, 160360, Note_off_c, 0, 74, 64
2, 160408, Note_off_c, 0, 70, 64
2, 160424, Note_off_c, 0, 77, 64
2, 161096, Control_c, 0, 64, 0
2, 161352, Note_on_c, 0, 77, 62
2, 161376, Control_c, 0, 64, 127
2, 161484, Note_off_c, 0, 77, 64
2, 161808, Note_on_c, 0, 75, 81
2, 161824, Note_on_c, 0, 63, 57
2, 161828, Note_on_c, 0, 58, 37
2, 161832, Note_on_c, 0, 55, 48
2, 162116, Control_c, 0, 64, 0
2, 162532, Control_c, 0, 64, 127
2, 162944, Note_off_c, 0, 75, 64
2, 162956, Note_on_c, 0, 77, 50
2, 163012, Note_on_c, 0, 75, 33
2, 163048, Note_off_c, 0, 77, 64
2, 163092, Note_on_c, 0, 74, 71
2, 163104, Note_off_c, 0, 75, 64
2, 163160, Note_on_c, 0, 75, 65
2, 163212, Note_off_c, 0, 74, 64
2, 163232, Control_c, 0, 64, 0
2, 163356, Note_on_c, 0, 77, 79
2, 163404, Note_off_c, 0, 75, 64
2, 163404, Control_c, 0, 64, 127
2, 163456, Control_c, 0, 64, 0
2, 163548, Note_on_c, 0, 79, 86
2, 163560, Note_off_c, 0, 77, 64
2, 163736, Note_off_c, 0, 79, 64
2, 163760, Note_on_c, 0, 81, 64
2, 163824, Note_on_c, 0, 79, 56
2, 163832, Note_off_c, 0, 81, 64
2, 163896, Note_off_c, 0, 79, 64
2, 163896, Note_on_c, 0, 78, 57
2, 163984, Note_off_c, 0, 78, 64
2, 163988, Note_on_c, 0, 79, 49
2, 164292, Note_off_c, 0, 79, 64
2, 164292, Note_on_c, 0, 81, 36
2, 164488, Control_c, 0, 64, 127
2, 164584, Control_c, 0, 64, 0
2, 164600, Note_off_c, 0, 81, 64
2, 164800, Note_on_c, 0, 82, 24
2, 165176, Control_c, 0, 64, 127
2, 165352, Note_off_c, 0, 63, 64
2, 165376, Note_off_c, 0, 55, 64
2, 165412, Note_off_c, 0, 58, 64
2, 165804, Control_c, 0, 64, 0
2, 165848, Note_off_c, 0, 82, 64
2, 166196, Note_on_c, 0, 44, 84
2, 166244, Control_c, 0, 64, 127
2, 166444, Note_on_c, 0, 47, 85
2, 166584, Note_on_c, 0, 50, 91
2, 166644, Note_off_c, 0, 47, 64
2, 166704, Note_on_c, 0, 53, 105
2, 166708, Note_off_c, 0, 44, 64
2, 166740, Note_off_c, 0, 50, 64
2, 166788, Note_off_c, 0, 53, 64
2, 166800, Note_on_c, 0, 56, 79
2, 166888, Note_on_c, 0, 59, 87
2, 166920, Note_off_c, 0, 56, 64
2, 166964, Note_on_c, 0, 62, 86
2, 167016, Note_off_c, 0, 59, 64
2, 167028, Note_on_c, 0, 65, 81
2, 167084, Note_on_c, 0, 68, 79
2, 167104, Note_off_c, 0, 62, 64
2, 167128, Note_off_c, 0, 65, 64
2, 167160, Note_on_c, 0, 71, 89
2, 167212, Note_on_c, 0, 74, 92
2, 167272, Note_on_c, 0, 77, 83
2, 167328, Note_on_c, 0, 80, 89
2, 167376, Note_off_c, 0, 74, 64
2, 167376, Note_on_c, 0, 83, 106
2, 167384, Note_off_c, 0, 71, 64
2, 167392, Note_off_c, 0, 77, 64
2, 167432, Note_off_c, 0, 80, 64
2, 167440, Note_on_c, 0, 86, 89
2, 167444, Note_off_c, 0, 68, 64
2, 167520, Note_off_c, 0, 83, 64
2, 167528, Note_on_c, 0, 89, 101
2, 167580, Note_off_c, 0, 86, 64
2, 167600, Note_off_c, 0, 89, 64
2, 168236, Control_c, 0, 64, 0
2, 169176, Note_on_c, 0, 81, 34
2, 169176, Note_on_c, 0, 65, 17
2, 169188, Note_on_c, 0, 69, 17
2, 169192, Note_on_c, 0, 57, 18
2, 169196, Note_on_c, 0, 74, 26
2, 169196, Control_c, 0, 64, 127
2, 169480, Note_off_c, 0, 69, 64
2, 169504, Note_off_c, 0, 65, 64
2, 169512, Note_off_c, 0, 74, 64
2, 169560, Note_off_c, 0, 81, 64
2, 169584, Note_off_c, 0, 57, 64
2, 170328, Control_c, 0, 64, 0
2, 170608, Control_c, 0, 64, 127
2, 171048, Note_on_c, 0, 61, 24
2, 171072, Note_on_c, 0, 55, 19
2, 171084, Note_on_c, 0, 52, 16
2, 171096, Note_on_c, 0, 33, 10
2, 171100, Note_on_c, 0, 45, 4
2, 172232, Note_off_c, 0, 52, 64
2, 172280, Note_off_c, 0, 55, 64
2, 172392, Note_off_c, 0, 61, 64
2, 172508, Note_off_c, 0, 45, 64
2, 172532, Note_off_c, 0, 33, 64
2, 173032, Control_c, 0, 64, 0
2, 173960, Note_on_c, 0, 66, 15
2, 173964, Note_on_c, 0, 69, 31
2, 173976, Note_on_c, 0, 62, 24
2, 174336, Note_on_c, 0, 78, 45
2, 174344, Note_off_c, 0, 69, 64
2, 174532, Note_on_c, 0, 74, 59
2, 174552, Note_off_c, 0, 62, 64
2, 174560, Note_off_c, 0, 78, 64
2, 174628, Control_c, 0, 64, 127
2, 174704, Control_c, 0, 64, 0
2, 174756, Note_on_c, 0, 73, 48
2, 174760, Note_off_c, 0, 66, 64
2, 174776, Note_on_c, 0, 67, 22
2, 174780, Note_on_c, 0, 62, 20
2, 174820, Note_off_c, 0, 74, 64
2, 175152, Note_on_c, 0, 71, 32
2, 175180, Note_off_c, 0, 73, 64
2, 175352, Note_on_c, 0, 79, 61
2, 175384, Note_off_c, 0, 71, 64
2, 175436, Note_on_c, 0, 76, 61
2, 175456, Note_off_c, 0, 79, 64
2, 175544, Note_on_c, 0, 74, 71
2, 175544, Note_on_c, 0, 64, 32
2, 175548, Note_off_c, 0, 76, 64
2, 175736, Note_on_c, 0, 73, 56
2, 175744, Note_off_c, 0, 74, 64
2, 175944, Note_on_c, 0, 83, 83
2, 176144, Note_off_c, 0, 62, 64
2, 176152, Note_on_c, 0, 81, 64
2, 176156, Note_off_c, 0, 83, 64
2, 176200, Control_c, 0, 64, 127
2, 176208, Note_off_c, 0, 73, 64
2, 176232, Note_off_c, 0, 81, 64
2, 176308, Note_off_c, 0, 67, 64
2, 176332, Note_off_c, 0, 64, 64
2, 176348, Note_on_c, 0, 81, 66
2, 176356, Note_on_c, 0, 74, 43
2, 176360, Control_c, 0, 64, 0
2, 176368, Note_on_c, 0, 66, 20
2, 176380, Note_on_c, 0, 62, 20
2, 176644, Note_on_c, 0, 83, 54
2, 176656, Note_off_c, 0, 81, 64
2, 176688, Note_off_c, 0, 83, 64
2, 176692, Note_on_c, 0, 79, 47
2, 176740, Note_off_c, 0, 79, 64
2, 176740, Note_on_c, 0, 78, 41
2, 176912, Note_off_c, 0, 74, 64
2, 176928, Control_c, 0, 64, 127
2, 176952, Note_off_c, 0, 78, 64
2, 176984, Note_on_c, 0, 81, 59
2, 176988, Note_off_c, 0, 62, 64
2, 177020, Note_off_c, 0, 66, 64
2, 177060, Note_on_c, 0, 78, 60
2, 177100, Control_c, 0, 64, 0
2, 177108, Note_off_c, 0, 81, 64
2, 177144, Note_on_c, 0, 74, 63
2, 177148, Note_on_c, 0, 76, 73
2, 177156, Note_on_c, 0, 68, 45
2, 177184, Note_off_c, 0, 74, 64
2, 177192, Note_off_c, 0, 78, 64
2, 177200, Note_off_c, 0, 68, 64
2, 177224, Note_off_c, 0, 76, 64
2, 177336, Note_on_c, 0, 68, 53
2, 177340, Note_on_c, 0, 76, 70
2, 177348, Note_on_c, 0, 74, 56
2, 177376, Note_off_c, 0, 76, 64
2, 177384, Note_off_c, 0, 68, 64
2, 177384, Note_off_c, 0, 74, 64
2, 177512, Note_on_c, 0, 76, 66
2, 177516, Note_on_c, 0, 68, 53
2, 177516, Note_on_c, 0, 74, 68
2, 177556, Note_off_c, 0, 76, 64
2, 177556, Note_off_c, 0, 74, 64
2, 177560, Note_off_c, 0, 68, 64
2, 177688, Note_on_c, 0, 74, 60
2, 177692, Note_on_c, 0, 76, 80
2, 177696, Note_on_c, 0, 68, 41
2, 177728, Note_off_c, 0, 74, 64
2, 177728, Note_off_c, 0, 76, 64
2, 177744, Note_off_c, 0, 68, 64
2, 177872, Note_on_c, 0, 76, 83
2, 177892, Note_on_c, 0, 69, 36
2, 177892, Note_on_c, 0, 73, 37
2, 177984, Note_off_c, 0, 69, 64
2, 177992, Note_off_c, 0, 73, 64
2, 178008, Control_c, 0, 64, 127
2, 178068, Note_off_c, 0, 76, 64
2, 178076, Note_on_c, 0, 81, 71
2, 178108, Control_c, 0, 64, 0
2, 178112, Note_off_c, 0, 81, 64
2, 178264, Note_on_c, 0, 66, 32
2, 178268, Note_on_c, 0, 71, 48
2, 178288, Note_on_c, 0, 62, 25
2, 178352, Note_off_c, 0, 62, 64
2, 178396, Note_off_c, 0, 66, 64
2, 178416, Control_c, 0, 64, 127
2, 178436, Note_off_c, 0, 71, 64
2, 178464, Control_c, 0, 64, 0
2, 178468, Note_on_c, 0, 78, 59
2, 178520, Note_off_c, 0, 78, 64
2, 178660, Note_on_c, 0, 69, 51
2, 178664, Note_on_c, 0, 61, 28
2, 178696, Note_on_c, 0, 52, 23
2, 179016, Note_off_c, 0, 61, 64
2, 179036, Note_on_c, 0, 73, 43
2, 179036, Note_on_c, 0, 68, 31
2, 179044, Note_off_c, 0, 69, 64
2, 179056, Note_on_c, 0, 62, 24
2, 179340, Note_on_c, 0, 71, 43
2, 179344, Note_off_c, 0, 68, 64
2, 179352, Note_off_c, 0, 73, 64
2, 179408, Note_off_c, 0, 62, 64
2, 179408, Note_off_c, 0, 71, 64
2, 179432, Note_on_c, 0, 69, 24
2, 179440, Note_on_c, 0, 61, 24
2, 179452, Note_off_c, 0, 52, 64
2, 179464, Note_on_c, 0, 57, 13
2, 179764, Note_off_c, 0, 61, 64
2, 179780, Control_c, 0, 64, 127
2, 179788, Note_off_c, 0, 57, 64
2, 179808, Note_off_c, 0, 69, 64
2, 179936, Control_c, 0, 64, 0
2, 180188, Note_on_c, 0, 69, 42
2, 180196, Note_on_c, 0, 66, 18
2, 180208, Note_on_c, 0, 62, 13
2, 180416, Control_c, 0, 64, 127
2, 180556, Note_on_c, 0, 78, 54
2, 180592, Note_off_c, 0, 69, 64
2, 180592, Control_c, 0, 64, 0
2, 180736, Note_off_c, 0, 62, 64
2, 180736, Control_c, 0, 64, 127
2, 180748, Note_on_c, 0, 74, 67
2, 180812, Note_off_c, 0, 78, 64
2, 180816, Note_off_c, 0, 66, 64
2, 180944, Note_on_c, 0, 73, 59
2, 180956, Note_on_c, 0, 67, 32
2, 180960, Note_on_c, 0, 62, 27
2, 181024, Note_off_c, 0, 74, 64
2, 181032, Control_c, 0, 64, 0
2, 181324, Note_on_c, 0, 71, 47
2, 181360, Note_off_c, 0, 73, 64
2, 181524, Control_c, 0, 64, 127
2, 181536, Note_off_c, 0, 71, 64
2, 181540, Note_on_c, 0, 79, 54
2, 181584, Note_off_c, 0, 62, 64
2, 181600, Note_off_c, 0, 79, 64
2, 181608, Note_on_c, 0, 76, 59
2, 181712, Note_on_c, 0, 74, 71
2, 181724, Note_off_c, 0, 76, 64
2, 181728, Note_off_c, 0, 67, 64
2, 181728, Note_on_c, 0, 62, 32
2, 181736, Note_on_c, 0, 64, 31
2, 181768, Control_c, 0, 64, 0
2, 181896, Note_off_c, 0, 74, 64
2, 181896, Note_on_c, 0, 73, 60
2, 182116, Note_on_c, 0, 83, 71
2, 182132, Note_off_c, 0, 73, 64
2, 182248, Control_c, 0, 64, 127
2, 182288, Note_off_c, 0, 62, 64
2, 182312, Note_on_c, 0, 81, 55
2, 182328, Note_off_c, 0, 83, 64
2, 182364, Note_off_c, 0, 81, 64
2, 182412, Note_off_c, 0, 64, 64
2, 182492, Note_on_c, 0, 81, 66
2, 182512, Note_on_c, 0, 66, 20
2, 182516, Note_on_c, 0, 74, 35
2, 182536, Note_on_c, 0, 62, 20
2, 182556, Control_c, 0, 64, 0
2, 182772, Note_on_c, 0, 83, 64
2, 182800, Note_off_c, 0, 81, 64
2, 182816, Note_off_c, 0, 83, 64
2, 182828, Note_on_c, 0, 79, 51
2, 182864, Note_off_c, 0, 74, 64
2, 182880, Note_off_c, 0, 79, 64
2, 182892, Note_on_c, 0, 78, 58
2, 182984, Note_off_c, 0, 62, 64
2, 182992, Note_off_c, 0, 66, 64
2, 183012, Control_c, 0, 64, 127
2, 183088, Note_off_c, 0, 78, 64
2, 183108, Note_on_c, 0, 81, 66
2, 183148, Control_c, 0, 64, 0
2, 183160, Note_on_c, 0, 78, 50
2, 183208, Note_off_c, 0, 81, 64
2, 183252, Note_on_c, 0, 76, 70
2, 183264, Note_on_c, 0, 68, 43
2, 183264, Note_on_c, 0, 74, 43
2, 183296, Note_off_c, 0, 78, 64
2, 183308, Note_off_c, 0, 68, 64
2, 183312, Note_off_c, 0, 74, 64
2, 183320, Note_off_c, 0, 76, 64
2, 183440, Note_on_c, 0, 74, 59
2, 183444, Note_on_c, 0, 68, 44
2, 183448, Note_on_c, 0, 76, 57
2, 183484, Note_off_c, 0, 74, 64
2, 183492, Note_off_c, 0, 68, 64
2, 183492, Note_off_c, 0, 76, 64
2, 183616, Note_on_c, 0, 76, 67
2, 183628, Note_on_c, 0, 68, 48
2, 183628, Note_on_c, 0, 74, 57
2, 183664, Note_off_c, 0, 74, 64
2, 183668, Note_off_c, 0, 76, 64
2, 183672, Note_off_c, 0, 68, 64
2, 183796, Note_on_c, 0, 76, 79
2, 183800, Note_on_c, 0, 74, 58
2, 183800, Note_on_c, 0, 68, 50
2, 183832, Note_off_c, 0, 76, 64
2, 183844, Note_off_c, 0, 74, 64
2, 183844, Note_off_c, 0, 68, 64
2, 183980, Note_on_c, 0, 76, 75
2, 184004, Note_on_c, 0, 73, 39
2, 184016, Note_on_c, 0, 69, 31
2, 184104, Control_c, 0, 64, 127
2, 184112, Note_off_c, 0, 73, 64
2, 184116, Note_off_c, 0, 69, 64
2, 184172, Note_off_c, 0, 76, 64
2, 184176, Note_on_c, 0, 81, 68
2, 184216, Note_off_c, 0, 81, 64
2, 184240, Control_c, 0, 64, 0
2, 184364, Note_on_c, 0, 71, 61
2, 184384, Note_on_c, 0, 66, 27
2, 184396, Note_on_c, 0, 62, 26
2, 184468, Note_off_c, 0, 62, 64
2, 184484, Note_off_c, 0, 66, 64
2, 184512, Control_c, 0, 64, 127
2, 184528, Note_off_c, 0, 71, 64
2, 184560, Note_on_c, 0, 78, 56
2, 184572, Control_c, 0, 64, 0
2, 184656, Note_off_c, 0, 78, 64
2, 184768, Note_on_c, 0, 69, 45
2, 184776, Note_on_c, 0, 61, 26
2, 184800, Note_on_c, 0, 52, 34
2, 185168, Note_on_c, 0, 68, 34
2, 185172, Note_off_c, 0, 61, 64
2, 185176, Note_on_c, 0, 73, 34
2, 185180, Note_off_c, 0, 69, 64
2, 185200, Note_on_c, 0, 62, 24
2, 185496, Note_on_c, 0, 71, 38
2, 185500, Note_off_c, 0, 73, 64
2, 185524, Note_off_c, 0, 68, 64
2, 185568, Note_off_c, 0, 62, 64
2, 185584, Note_off_c, 0, 52, 64
2, 185600, Note_off_c, 0, 71, 64
2, 185604, Note_on_c, 0, 61, 19
2, 185604, Note_on_c, 0, 69, 27
2, 185624, Note_on_c, 0, 57, 12
2, 185960, Control_c, 0, 64, 127
2, 185968, Note_off_c, 0, 61, 64
2, 186000, Note_off_c, 0, 57, 64
2, 186036, Note_off_c, 0, 69, 64
2, 186132, Control_c, 0, 64, 0
2, 186336, Note_on_c, 0, 74, 57
2, 186520, Note_on_c, 0, 54, 38
2, 186532, Note_on_c, 0, 57, 32
2, 186712, Note_off_c, 0, 54, 64
2, 186716, Note_on_c, 0, 76, 65
2, 186736, Note_off_c, 0, 57, 64
2, 186740, Note_on_c, 0, 55, 46
2, 186744, Note_on_c, 0, 52, 41
2, 186780, Note_off_c, 0, 74, 64
2, 186852, Note_off_c, 0, 55, 64
2, 186860, Note_off_c, 0, 52, 64
2, 186900, Note_on_c, 0, 50, 46
2, 186900, Note_on_c, 0, 78, 69
2, 186916, Note_on_c, 0, 54, 57
2, 186932, Note_off_c, 0, 76, 64
2, 186960, Note_off_c, 0, 54, 64
2, 186968, Note_off_c, 0, 50, 64
2, 186980, Control_c, 0, 64, 127
2, 187104, Note_on_c, 0, 71, 65
2, 187104, Control_c, 0, 64, 0
2, 187112, Note_on_c, 0, 62, 36
2, 187120, Note_on_c, 0, 55, 28
2, 187136, Note_off_c, 0, 78, 64
2, 187292, Note_on_c, 0, 63, 49
2, 187312, Note_off_c, 0, 62, 64
2, 187524, Note_off_c, 0, 63, 64
2, 187524, Note_on_c, 0, 64, 41
2, 187708, Note_off_c, 0, 71, 64
2, 187716, Note_on_c, 0, 73, 50
2, 187800, Note_on_c, 0, 75, 61
2, 187816, Note_off_c, 0, 73, 64
2, 187856, Note_off_c, 0, 75, 64
2, 187892, Note_on_c, 0, 76, 66
2, 187908, Note_off_c, 0, 64, 64
2, 187948, Note_off_c, 0, 76, 64
2, 187952, Note_off_c, 0, 55, 64
2, 187976, Note_on_c, 0, 78, 63
2, 188040, Note_off_c, 0, 78, 64
2, 188060, Note_on_c, 0, 79, 65
2, 188112, Note_off_c, 0, 79, 64
2, 188132, Note_on_c, 0, 81, 61
2, 188212, Note_off_c, 0, 81, 64
2, 188232, Note_on_c, 0, 83, 94
2, 188268, Note_off_c, 0, 83, 64
2, 188432, Note_on_c, 0, 83, 96
2, 188440, Note_on_c, 0, 56, 33
2, 188440, Note_on_c, 0, 65, 29
2, 188468, Note_off_c, 0, 83, 64
2, 188492, Note_off_c, 0, 56, 64
2, 188496, Note_off_c, 0, 65, 64
2, 188648, Note_on_c, 0, 74, 75
2, 188656, Note_on_c, 0, 66, 38
2, 188672, Note_on_c, 0, 57, 26
2, 189016, Note_off_c, 0, 66, 64
2, 189044, Note_off_c, 0, 74, 64
2, 189052, Note_on_c, 0, 73, 46
2, 189064, Note_on_c, 0, 64, 29
2, 189100, Note_off_c, 0, 73, 64
2, 189140, Note_off_c, 0, 57, 64
2, 189160, Note_off_c, 0, 64, 64
2, 189248, Note_on_c, 0, 81, 75
2, 189440, Note_on_c, 0, 80, 68
2, 189456, Note_off_c, 0, 81, 64
2, 189460, Note_on_c, 0, 62, 37
2, 189472, Note_on_c, 0, 59, 26
2, 189672, Note_on_c, 0, 86, 61
2, 189680, Note_off_c, 0, 80, 64
2, 189860, Note_on_c, 0, 83, 98
2, 189908, Note_off_c, 0, 86, 64
2, 190048, Note_on_c, 0, 80, 81
2, 190064, Note_off_c, 0, 83, 64
2, 190240, Note_off_c, 0, 62, 64
2, 190240, Note_off_c, 0, 59, 64
2, 190256, Note_on_c, 0, 88, 63
2, 190260, Note_on_c, 0, 61, 36
2, 190272, Note_on_c, 0, 57, 37
2, 190284, Note_off_c, 0, 80, 64
2, 190456, Note_off_c, 0, 88, 64
2, 190456, Note_off_c, 0, 57, 64
2, 190464, Note_on_c, 0, 79, 71
2, 190468, Note_on_c, 0, 58, 32
2, 190648, Note_off_c, 0, 58, 64
2, 190656, Note_on_c, 0, 78, 62
2, 190672, Note_on_c, 0, 62, 36
2, 190688, Note_off_c, 0, 61, 64
2, 190688, Note_off_c, 0, 79, 64
2, 190696, Note_on_c, 0, 59, 26
2, 190848, Note_off_c, 0, 59, 64
2, 190856, Note_on_c, 0, 83, 79
2, 190868, Note_on_c, 0, 55, 53
2, 190872, Note_off_c, 0, 78, 64
2, 190884, Note_off_c, 0, 62, 64
2, 190908, Note_off_c, 0, 55, 64
2, 190916, Control_c, 0, 64, 127
2, 191068, Note_on_c, 0, 67, 34
2, 191084, Note_on_c, 0, 57, 40
2, 191084, Note_on_c, 0, 74, 69
2, 191096, Note_off_c, 0, 83, 64
2, 191096, Control_c, 0, 64, 0
2, 191128, Note_off_c, 0, 67, 64
2, 191136, Note_on_c, 0, 66, 30
2, 191468, Note_off_c, 0, 66, 64
2, 191476, Note_off_c, 0, 74, 64
2, 191476, Note_on_c, 0, 73, 38
2, 191476, Note_on_c, 0, 78, 45
2, 191500, Note_on_c, 0, 67, 30
2, 191788, Note_off_c, 0, 78, 64
2, 191800, Note_on_c, 0, 76, 35
2, 191840, Note_off_c, 0, 67, 64
2, 191864, Note_off_c, 0, 73, 64
2, 191872, Note_off_c, 0, 76, 64
2, 191896, Note_on_c, 0, 66, 16
2, 191900, Note_on_c, 0, 74, 42
2, 191920, Note_off_c, 0, 57, 64
2, 191920, Note_on_c, 0, 62, 21
2, 192184, Note_off_c, 0, 66, 64
2, 192224, Note_off_c, 0, 62, 64
2, 192232, Control_c, 0, 64, 127
2, 192260, Note_off_c, 0, 74, 64
2, 192440, Control_c, 0, 64, 0
2, 192636, Note_on_c, 0, 74, 57
2, 192840, Note_on_c, 0, 57, 35
2, 192844, Note_on_c, 0, 54, 46
2, 193044, Note_off_c, 0, 54, 64
2, 193048, Note_on_c, 0, 76, 57
2, 193064, Note_on_c, 0, 55, 41
2, 193068, Note_off_c, 0, 57, 64
2, 193068, Note_on_c, 0, 52, 44
2, 193116, Note_off_c, 0, 74, 64
2, 193168, Note_off_c, 0, 55, 64
2, 193176, Note_off_c, 0, 52, 64
2, 193240, Note_on_c, 0, 78, 62
2, 193240, Note_on_c, 0, 54, 49
2, 193244, Note_on_c, 0, 50, 45
2, 193276, Note_off_c, 0, 76, 64
2, 193284, Note_off_c, 0, 50, 64
2, 193288, Note_off_c, 0, 54, 64
2, 193300, Control_c, 0, 64, 127
2, 193424, Control_c, 0, 64, 0
2, 193436, Note_on_c, 0, 62, 39
2, 193448, Note_on_c, 0, 55, 36
2, 193460, Note_on_c, 0, 71, 64
2, 193484, Note_off_c, 0, 78, 64
2, 193624, Note_on_c, 0, 63, 50
2, 193632, Note_off_c, 0, 62, 64
2, 193824, Note_off_c, 0, 63, 64
2, 193864, Note_on_c, 0, 64, 32
2, 194044, Note_off_c, 0, 71, 64
2, 194048, Note_on_c, 0, 73, 44
2, 194120, Note_off_c, 0, 73, 64
2, 194128, Note_on_c, 0, 75, 50
2, 194180, Note_off_c, 0, 75, 64
2, 194212, Note_off_c, 0, 64, 64
2, 194216, Note_on_c, 0, 76, 61
2, 194256, Note_off_c, 0, 76, 64
2, 194296, Note_on_c, 0, 78, 62
2, 194324, Note_off_c, 0, 55, 64
2, 194340, Note_off_c, 0, 78, 64
2, 194380, Note_on_c, 0, 79, 69
2, 194428, Note_off_c, 0, 79, 64
2, 194464, Note_on_c, 0, 81, 56
2, 194512, Note_off_c, 0, 81, 64
2, 194568, Note_on_c, 0, 83, 65
2, 194608, Note_off_c, 0, 83, 64
2, 194760, Note_on_c, 0, 83, 69
2, 194768, Note_on_c, 0, 65, 25
2, 194768, Note_on_c, 0, 56, 26
2, 194800, Note_off_c, 0, 83, 64
2, 194832, Note_off_c, 0, 56, 64
2, 194848, Note_off_c, 0, 65, 64
2, 194980, Note_on_c, 0, 74, 54
2, 194996, Note_on_c, 0, 66, 26
2, 195008, Note_on_c, 0, 57, 17
2, 195384, Note_on_c, 0, 73, 29
2, 195388, Note_off_c, 0, 74, 64
2, 195396, Note_on_c, 0, 64, 24
2, 195408, Note_off_c, 0, 66, 64
2, 195548, Note_off_c, 0, 73, 64
2, 195596, Note_off_c, 0, 64, 64
2, 195596, Note_on_c, 0, 81, 69
2, 195664, Note_off_c, 0, 57, 64
2, 195768, Control_c, 0, 64, 127
2, 195788, Note_off_c, 0, 81, 64
2, 195788, Note_on_c, 0, 80, 67
2, 195800, Note_on_c, 0, 59, 21
2, 195808, Note_on_c, 0, 62, 26
2, 195844, Control_c, 0, 64, 0
2, 196008, Note_on_c, 0, 86, 51
2, 196024, Note_off_c, 0, 80, 64
2, 196200, Note_on_c, 0, 83, 92
2, 196272, Note_off_c, 0, 86, 64
2, 196392, Note_on_c, 0, 80, 82
2, 196436, Note_off_c, 0, 83, 64
2, 196584, Note_off_c, 0, 59, 64
2, 196584, Note_off_c, 0, 62, 64
2, 196592, Note_on_c, 0, 88, 49
2, 196596, Note_on_c, 0, 61, 32
2, 196608, Note_on_c, 0, 57, 24
2, 196640, Note_off_c, 0, 80, 64
2, 196800, Note_off_c, 0, 57, 64
2, 196816, Note_on_c, 0, 58, 27
2, 196824, Note_off_c, 0, 88, 64
2, 196824, Note_on_c, 0, 79, 68
2, 196928, Control_c, 0, 64, 127
2, 196964, Control_c, 0, 64, 0
2, 197016, Note_on_c, 0, 78, 62
2, 197028, Note_off_c, 0, 58, 64
2, 197044, Note_on_c, 0, 62, 35
2, 197048, Note_off_c, 0, 61, 64
2, 197048, Note_off_c, 0, 79, 64
2, 197056, Note_on_c, 0, 59, 27
2, 197112, Control_c, 0, 64, 127
2, 197136, Control_c, 0, 64, 0
2, 197208, Note_off_c, 0, 62, 64
2, 197212, Note_on_c, 0, 83, 89
2, 197228, Note_off_c, 0, 78, 64
2, 197240, Note_on_c, 0, 55, 45
2, 197248, Note_off_c, 0, 59, 64
2, 197296, Control_c, 0, 64, 127
2, 197360, Note_off_c, 0, 55, 64
2, 197448, Note_on_c, 0, 67, 44
2, 197448, Note_on_c, 0, 57, 45
2, 197464, Note_on_c, 0, 74, 56
2, 197472, Note_off_c, 0, 83, 64
2, 197492, Note_off_c, 0, 57, 64
2, 197556, Note_on_c, 0, 57, 31
2, 197588, Note_off_c, 0, 67, 64
2, 197600, Note_on_c, 0, 66, 44
2, 197688, Control_c, 0, 64, 0
2, 197900, Note_on_c, 0, 73, 33
2, 197904, Note_on_c, 0, 78, 53
2, 197908, Note_off_c, 0, 66, 64
2, 197912, Note_off_c, 0, 74, 64
2, 197912, Note_on_c, 0, 67, 35
2, 198228, Control_c, 0, 64, 127
2, 198300, Note_off_c, 0, 78, 64
2, 198300, Note_on_c, 0, 76, 25
2, 198328, Note_off_c, 0, 73, 64
2, 198352, Control_c, 0, 64, 0
2, 198356, Note_off_c, 0, 67, 64
2, 198372, Note_off_c, 0, 76, 64
2, 198400, Note_on_c, 0, 74, 53
2, 198404, Note_on_c, 0, 62, 33
2, 198408, Note_off_c, 0, 57, 64
2, 198508, Note_on_c, 0, 69, 24
2, 198580, Note_off_c, 0, 69, 64
2, 198616, Note_on_c, 0, 66, 15
2, 198680, Note_off_c, 0, 66, 64
2, 198688, Note_on_c, 0, 69, 22
2, 198756, Note_off_c, 0, 69, 64
2, 198776, Note_on_c, 0, 66, 15
2, 198796, Note_off_c, 0, 74, 64
2, 198796, Note_off_c, 0, 62, 64
2, 198848, Note_off_c, 0, 66, 64
2, 198868, Note_on_c, 0, 69, 25
2, 198928, Note_off_c, 0, 69, 64
2, 198964, Note_on_c, 0, 74, 68
2, 198988, Note_on_c, 0, 66, 13
2, 199036, Note_off_c, 0, 66, 64
2, 199048, Note_on_c, 0, 69, 34
2, 199096, Note_off_c, 0, 74, 64
2, 199100, Note_off_c, 0, 69, 64
2, 199148, Note_on_c, 0, 73, 61
2, 199164, Note_on_c, 0, 67, 41
2, 199284, Note_off_c, 0, 73, 64
2, 199284, Note_off_c, 0, 67, 64
2, 199284, Note_on_c, 0, 69, 27
2, 199340, Note_off_c, 0, 69, 64
2, 199340, Note_on_c, 0, 73, 43
2, 199352, Note_on_c, 0, 81, 67
2, 199404, Note_off_c, 0, 81, 64
2, 199448, Note_off_c, 0, 73, 64
2, 199496, Note_on_c, 0, 69, 9
2, 199528, Note_on_c, 0, 81, 78
2, 199552, Note_off_c, 0, 69, 64
2, 199556, Note_on_c, 0, 67, 48
2, 199580, Note_off_c, 0, 81, 64
2, 199636, Note_off_c, 0, 67, 64
2, 199636, Note_on_c, 0, 69, 20
2, 199696, Note_off_c, 0, 69, 64
2, 199720, Note_on_c, 0, 81, 82
2, 199728, Note_on_c, 0, 73, 43
2, 199752, Note_off_c, 0, 81, 64
2, 199808, Note_off_c, 0, 73, 64
2, 199832, Note_on_c, 0, 69, 17
2, 199892, Note_off_c, 0, 69, 64
2, 199920, Note_on_c, 0, 81, 84
2, 199928, Note_on_c, 0, 66, 29
2, 199984, Note_on_c, 0, 69, 13
2, 200084, Note_off_c, 0, 69, 64
2, 200096, Control_c, 0, 64, 127
2, 200108, Note_on_c, 0, 74, 47
2, 200160, Note_off_c, 0, 74, 64
2, 200188, Note_off_c, 0, 81, 64
2, 200188, Note_off_c, 0, 66, 64
2, 200200, Note_on_c, 0, 83, 52
2, 200220, Note_on_c, 0, 69, 28
2, 200244, Note_off_c, 0, 83, 64
2, 200244, Control_c, 0, 64, 0
2, 200248, Note_on_c, 0, 85, 50
2, 200280, Note_off_c, 0, 69, 64
2, 200324, Note_on_c, 0, 66, 29
2, 200324, Note_on_c, 0, 86, 55
2, 200336, Note_off_c, 0, 85, 64
2, 200384, Note_off_c, 0, 66, 64
2, 200428, Note_on_c, 0, 69, 24
2, 200456, Control_c, 0, 64, 127
2, 200464, Note_off_c, 0, 86, 64
2, 200488, Note_off_c, 0, 69, 64
2, 200524, Note_on_c, 0, 74, 76
2, 200540, Note_on_c, 0, 66, 20
2, 200608, Note_off_c, 0, 66, 64
2, 200624, Note_on_c, 0, 69, 31
2, 200664, Control_c, 0, 64, 0
2, 200680, Note_off_c, 0, 69, 64
2, 200712, Note_on_c, 0, 73, 77
2, 200720, Note_on_c, 0, 67, 44
2, 200732, Note_off_c, 0, 74, 64
2, 200828, Note_on_c, 0, 69, 38
2, 200840, Note_off_c, 0, 73, 64
2, 200840, Note_off_c, 0, 67, 64
2, 200888, Note_off_c, 0, 69, 64
2, 200900, Note_on_c, 0, 73, 43
2, 200900, Note_on_c, 0, 81, 77
2, 200932, Note_off_c, 0, 81, 64
2, 201000, Note_off_c, 0, 73, 64
2, 201024, Note_on_c, 0, 69, 35
2, 201072, Note_on_c, 0, 81, 82
2, 201076, Note_off_c, 0, 69, 64
2, 201112, Note_on_c, 0, 67, 48
2, 201132, Note_off_c, 0, 81, 64
2, 201184, Note_off_c, 0, 67, 64
2, 201208, Note_on_c, 0, 69, 36
2, 201256, Note_on_c, 0, 81, 88
2, 201260, Note_off_c, 0, 69, 64
2, 201272, Note_on_c, 0, 73, 51
2, 201292, Note_off_c, 0, 81, 64
2, 201324, Note_off_c, 0, 73, 64
2, 201368, Note_on_c, 0, 69, 28
2, 201424, Note_off_c, 0, 69, 64
2, 201456, Note_on_c, 0, 81, 92
2, 201472, Note_on_c, 0, 66, 30
2, 201552, Note_on_c, 0, 69, 22
2, 201612, Note_off_c, 0, 69, 64
2, 201620, Control_c, 0, 64, 127
2, 201632, Note_on_c, 0, 74, 44
2, 201668, Note_off_c, 0, 66, 64
2, 201684, Note_off_c, 0, 81, 64
2, 201684, Note_off_c, 0, 74, 64
2, 201700, Note_on_c, 0, 83, 76
2, 201752, Note_on_c, 0, 69, 17
2, 201756, Note_off_c, 0, 83, 64
2, 201772, Note_on_c, 0, 85, 55
2, 201792, Control_c, 0, 64, 0
2, 201808, Note_off_c, 0, 69, 64
2, 201832, Note_on_c, 0, 66, 29
2, 201840, Note_on_c, 0, 86, 71
2, 201852, Note_off_c, 0, 85, 64
2, 201892, Note_off_c, 0, 66, 64
2, 201940, Note_on_c, 0, 69, 21
2, 201968, Note_off_c, 0, 86, 64
2, 201976, Control_c, 0, 64, 127
2, 202008, Note_off_c, 0, 69, 64
2, 202020, Note_on_c, 0, 74, 64
2, 202036, Note_on_c, 0, 66, 39
2, 202056, Note_off_c, 0, 74, 64
2, 202088, Note_off_c, 0, 66, 64
2, 202136, Note_on_c, 0, 69, 40
2, 202176, Control_c, 0, 64, 0
2, 202184, Note_off_c, 0, 69, 64
2, 202196, Note_on_c, 0, 75, 79
2, 202196, Note_on_c, 0, 84, 94
2, 202220, Note_on_c, 0, 66, 50
2, 202232, Note_off_c, 0, 75, 64
2, 202252, Note_off_c, 0, 84, 64
2, 202272, Note_off_c, 0, 66, 64
2, 202308, Note_on_c, 0, 69, 51
2, 202356, Note_off_c, 0, 69, 64
2, 202376, Note_on_c, 0, 84, 94
2, 202376, Note_on_c, 0, 75, 81
2, 202388, Note_on_c, 0, 66, 54
2, 202416, Note_off_c, 0, 75, 64
2, 202436, Note_off_c, 0, 66, 64
2, 202448, Note_off_c, 0, 84, 64
2, 202468, Note_on_c, 0, 69, 58
2, 202516, Note_off_c, 0, 69, 64
2, 202552, Note_on_c, 0, 75, 80
2, 202556, Note_on_c, 0, 84, 95
2, 202556, Note_on_c, 0, 66, 48
2, 202588, Note_off_c, 0, 75, 64
2, 202596, Note_off_c, 0, 84, 64
2, 202604, Note_off_c, 0, 66, 64
2, 202628, Note_on_c, 0, 69, 58
2, 202680, Note_off_c, 0, 69, 64
2, 202728, Note_on_c, 0, 66, 47
2, 202732, Note_on_c, 0, 84, 97
2, 202736, Note_on_c, 0, 75, 79
2, 202768, Note_off_c, 0, 75, 64
2, 202772, Note_off_c, 0, 66, 64
2, 202792, Note_off_c, 0, 84, 64
2, 202808, Note_on_c, 0, 69, 38
2, 202864, Note_off_c, 0, 69, 64
2, 202916, Note_on_c, 0, 84, 88
2, 202936, Note_on_c, 0, 76, 49
2, 202956, Note_on_c, 0, 67, 35
2, 202984, Note_off_c, 0, 76, 64
2, 203020, Note_off_c, 0, 84, 64
2, 203020, Note_on_c, 0, 83, 90
2, 203048, Control_c, 0, 64, 127
2, 203104, Note_off_c, 0, 67, 64
2, 203112, Note_on_c, 0, 82, 64
2, 203120, Note_off_c, 0, 83, 64
2, 203196, Note_on_c, 0, 83, 87
2, 203224, Note_off_c, 0, 82, 64
2, 203256, Control_c, 0, 64, 0
2, 203308, Note_off_c, 0, 83, 64
2, 203308, Note_on_c, 0, 81, 63
2, 203368, Note_off_c, 0, 81, 64
2, 203384, Note_on_c, 0, 79, 68
2, 203460, Note_off_c, 0, 79, 64
2, 203484, Note_on_c, 0, 78, 50
2, 203568, Note_on_c, 0, 76, 46
2, 203576, Note_off_c, 0, 78, 64
2, 203700, Note_on_c, 0, 74, 59
2, 203700, Note_on_c, 0, 66, 20
2, 203704, Note_on_c, 0, 57, 22
2, 203748, Note_off_c, 0, 76, 64
2, 204080, Note_off_c, 0, 66, 64
2, 204084, Note_on_c, 0, 73, 28
2, 204088, Note_on_c, 0, 78, 54
2, 204096, Note_off_c, 0, 74, 64
2, 204104, Note_on_c, 0, 67, 24
2, 204356, Note_off_c, 0, 78, 64
2, 204368, Note_on_c, 0, 76, 31
2, 204376, Note_off_c, 0, 67, 64
2, 204392, Note_off_c, 0, 73, 64
2, 204428, Note_off_c, 0, 76, 64
2, 204448, Note_off_c, 0, 57, 64
2, 204456, Note_on_c, 0, 74, 46
2, 204456, Note_on_c, 0, 62, 19
2, 204576, Note_on_c, 0, 69, 22
2, 204648, Note_off_c, 0, 69, 64
2, 204660, Note_on_c, 0, 66, 32
2, 204716, Note_off_c, 0, 62, 64
2, 204720, Control_c, 0, 64, 127
2, 204744, Note_off_c, 0, 66, 64
2, 204744, Control_c, 0, 64, 0
2, 204764, Note_on_c, 0, 69, 22
2, 204824, Note_off_c, 0, 69, 64
2, 204840, Note_on_c, 0, 66, 40
2, 204876, Note_off_c, 0, 74, 64
2, 204900, Note_off_c, 0, 66, 64
2, 204936, Note_on_c, 0, 69, 34
2, 204988, Note_off_c, 0, 69, 64
2, 205024, Note_on_c, 0, 74, 71
2, 205036, Note_on_c, 0, 66, 16
2, 205088, Note_off_c, 0, 66, 64
2, 205112, Note_on_c, 0, 69, 36
2, 205168, Note_off_c, 0, 69, 64
2, 205188, Note_off_c, 0, 74, 64
2, 205208, Note_on_c, 0, 73, 60
2, 205216, Note_on_c, 0, 67, 47
2, 205280, Note_off_c, 0, 67, 64
2, 205328, Note_off_c, 0, 73, 64
2, 205328, Note_on_c, 0, 69, 27
2, 205384, Note_off_c, 0, 69, 64
2, 205392, Note_on_c, 0, 73, 44
2, 205396, Note_on_c, 0, 81, 74
2, 205456, Note_off_c, 0, 81, 64
2, 205480, Note_off_c, 0, 73, 64
2, 205508, Note_on_c, 0, 69, 18
2, 205564, Note_off_c, 0, 69, 64
2, 205572, Note_on_c, 0, 81, 79
2, 205580, Note_on_c, 0, 67, 45
2, 205636, Note_off_c, 0, 81, 64
2, 205660, Note_off_c, 0, 67, 64
2, 205680, Note_on_c, 0, 69, 28
2, 205736, Note_off_c, 0, 69, 64
2, 205748, Note_on_c, 0, 81, 85
2, 205760, Note_on_c, 0, 73, 45
2, 205788, Note_off_c, 0, 81, 64
2, 205836, Note_off_c, 0, 73, 64
2, 205864, Note_on_c, 0, 69, 21
2, 205920, Note_off_c, 0, 69, 64
2, 205952, Note_on_c, 0, 81, 79
2, 205952, Note_on_c, 0, 66, 28
2, 206028, Note_on_c, 0, 69, 10
2, 206064, Note_off_c, 0, 66, 64
2, 206096, Note_off_c, 0, 69, 64
2, 206128, Note_on_c, 0, 74, 43
2, 206132, Control_c, 0, 64, 127
2, 206188, Note_off_c, 0, 74, 64
2, 206200, Note_on_c, 0, 83, 64
2, 206208, Note_off_c, 0, 81, 64
2, 206240, Note_on_c, 0, 69, 26
2, 206240, Control_c, 0, 64, 0
2, 206248, Note_off_c, 0, 83, 64
2, 206264, Note_on_c, 0, 85, 44
2, 206296, Note_off_c, 0, 69, 64
2, 206312, Note_on_c, 0, 66, 32
2, 206340, Note_off_c, 0, 85, 64
2, 206340, Note_on_c, 0, 86, 49
2, 206380, Note_off_c, 0, 66, 64
2, 206424, Note_off_c, 0, 86, 64
2, 206432, Note_on_c, 0, 69, 31
2, 206484, Note_off_c, 0, 69, 64
2, 206520, Note_on_c, 0, 74, 52
2, 206524, Note_on_c, 0, 66, 28
2, 206580, Note_off_c, 0, 66, 64
2, 206596, Note_on_c, 0, 69, 30
2, 206660, Note_off_c, 0, 69, 64
2, 206696, Note_off_c, 0, 74, 64
2, 206708, Note_on_c, 0, 73, 43
2, 206712, Note_on_c, 0, 67, 33
2, 206816, Note_off_c, 0, 73, 64
2, 206824, Note_off_c, 0, 67, 64
2, 206848, Note_on_c, 0, 69, 14
2, 206856, Control_c, 0, 64, 127
2, 206900, Note_on_c, 0, 81, 51
2, 206904, Note_on_c, 0, 73, 39
2, 206912, Note_off_c, 0, 69, 64
2, 206940, Note_off_c, 0, 81, 64
2, 206944, Control_c, 0, 64, 0
2, 206968, Note_off_c, 0, 73, 64
2, 207000, Note_on_c, 0, 69, 13
2, 207068, Note_off_c, 0, 69, 64
2, 207072, Note_on_c, 0, 81, 60
2, 207108, Note_on_c, 0, 67, 35
2, 207120, Note_off_c, 0, 81, 64
2, 207168, Note_off_c, 0, 67, 64
2, 207192, Note_on_c, 0, 69, 32
2, 207248, Note_off_c, 0, 69, 64
2, 207264, Note_on_c, 0, 81, 67
2, 207272, Note_on_c, 0, 73, 43
2, 207304, Note_off_c, 0, 81, 64
2, 207328, Note_off_c, 0, 73, 64
2, 207372, Note_on_c, 0, 69, 16
2, 207432, Note_off_c, 0, 69, 64
2, 207448, Note_on_c, 0, 81, 71
2, 207464, Note_on_c, 0, 66, 25
2, 207516, Note_on_c, 0, 69, 11
2, 207536, Note_off_c, 0, 66, 64
2, 207600, Note_off_c, 0, 69, 64
2, 207620, Control_c, 0, 64, 127
2, 207632, Note_on_c, 0, 74, 45
2, 207676, Note_off_c, 0, 74, 64
2, 207696, Note_off_c, 0, 81, 64
2, 207716, Note_on_c, 0, 83, 59
2, 207732, Note_on_c, 0, 69, 36
2, 207768, Note_off_c, 0, 83, 64
2, 207776, Note_on_c, 0, 85, 52
2, 207780, Control_c, 0, 64, 0
2, 207792, Note_off_c, 0, 69, 64
2, 207828, Note_on_c, 0, 66, 32
2, 207848, Note_on_c, 0, 86, 63
2, 207856, Note_off_c, 0, 85, 64
2, 207884, Note_off_c, 0, 66, 64
2, 207912, Note_off_c, 0, 86, 64
2, 207920, Note_on_c, 0, 69, 44
2, 207968, Note_off_c, 0, 69, 64
2, 207988, Control_c, 0, 64, 127
2, 208008, Note_on_c, 0, 66, 49
2, 208008, Note_on_c, 0, 74, 68
2, 208040, Note_off_c, 0, 74, 64
2, 208064, Note_off_c, 0, 66, 64
2, 208104, Note_on_c, 0, 69, 45
2, 208176, Note_off_c, 0, 69, 64
2, 208184, Control_c, 0, 64, 0
2, 208188, Note_on_c, 0, 84, 104
2, 208192, Note_on_c, 0, 75, 84
2, 208208, Note_on_c, 0, 66, 60
2, 208300, Note_on_c, 0, 69, 52
2, 208308, Note_off_c, 0, 66, 64
2, 208368, Control_c, 0, 64, 127
2, 208392, Note_on_c, 0, 66, 41
2, 208396, Note_off_c, 0, 69, 64
2, 208472, Note_off_c, 0, 66, 64
2, 208480, Note_on_c, 0, 69, 42
2, 208560, Note_off_c, 0, 69, 64
2, 208584, Note_on_c, 0, 66, 51
2, 208648, Note_off_c, 0, 66, 64
2, 208668, Note_on_c, 0, 69, 62
2, 208728, Note_off_c, 0, 69, 64
2, 208768, Note_on_c, 0, 66, 60
2, 208816, Note_off_c, 0, 75, 64
2, 208840, Note_on_c, 0, 69, 57
2, 208848, Note_off_c, 0, 66, 64
2, 208892, Note_off_c, 0, 69, 64
2, 208900, Control_c, 0, 64, 0
2, 208912, Note_off_c, 0, 84, 64
2, 208944, Note_on_c, 0, 83, 115
2, 208944, Note_on_c, 0, 76, 85
2, 208956, Note_on_c, 0, 67, 95
2, 209108, Control_c, 0, 64, 127
2, 209192, Note_off_c, 0, 67, 64
2, 209208, Note_off_c, 0, 76, 64
2, 209248, Note_off_c, 0, 83, 64
2, 209440, Control_c, 0, 64, 0
2, 209712, Note_on_c, 0, 68, 84
2, 209716, Note_on_c, 0, 86, 103
2, 209720, Note_on_c, 0, 77, 92
2, 209720, Note_on_c, 0, 83, 110
2, 209724, Note_on_c, 0, 56, 78
2, 209808, Control_c, 0, 64, 127
2, 209904, Note_off_c, 0, 68, 64
2, 209964, Note_off_c, 0, 56, 64
2, 209980, Note_off_c, 0, 83, 64
2, 209996, Note_off_c, 0, 77, 64
2, 210008, Note_off_c, 0, 86, 64
2, 210104, Control_c, 0, 64, 0
2, 210680, Note_on_c, 0, 57, 84
2, 210680, Note_on_c, 0, 54, 85
2, 210684, Note_on_c, 0, 50, 85
2, 210684, Note_on_c, 0, 45, 76
2, 212132, Note_on_c, 0, 59, 66
2, 212168, Note_off_c, 0, 57, 64
2, 212292, Control_c, 0, 64, 127
2, 212328, Note_on_c, 0, 57, 71
2, 212360, Note_off_c, 0, 59, 64
2, 212368, Note_off_c, 0, 50, 64
2, 212428, Note_off_c, 0, 54, 64
2, 212464, Note_on_c, 0, 56, 73
2, 212488, Note_off_c, 0, 57, 64
2, 212604, Note_on_c, 0, 57, 73
2, 212608, Control_c, 0, 64, 0
2, 212616, Note_off_c, 0, 56, 64
2, 212724, Note_on_c, 0, 59, 78
2, 212752, Note_off_c, 0, 57, 64
2, 212764, Note_off_c, 0, 45, 64
2, 212824, Note_on_c, 0, 61, 80
2, 212844, Note_off_c, 0, 59, 64
2, 212912, Note_on_c, 0, 62, 70
2, 212924, Note_off_c, 0, 61, 64
2, 212928, Control_c, 0, 64, 127
2, 212992, Control_c, 0, 64, 0
2, 212996, Note_on_c, 0, 64, 82
2, 213016, Note_off_c, 0, 62, 64
2, 213072, Note_on_c, 0, 66, 70
2, 213080, Note_off_c, 0, 64, 64
2, 213148, Note_on_c, 0, 67, 68
2, 213160, Note_off_c, 0, 66, 64
2, 213208, Note_on_c, 0, 69, 72
2, 213216, Note_off_c, 0, 67, 64
2, 213280, Note_on_c, 0, 71, 81
2, 213316, Note_off_c, 0, 69, 64
2, 213340, Note_on_c, 0, 73, 61
2, 213376, Note_off_c, 0, 71, 64
2, 213384, Note_off_c, 0, 73, 64
2, 213404, Note_on_c, 0, 74, 74
2, 213468, Note_on_c, 0, 76, 78
2, 213472, Note_off_c, 0, 74, 64
2, 213532, Note_on_c, 0, 78, 80
2, 213564, Note_off_c, 0, 76, 64
2, 213596, Note_off_c, 0, 78, 64
2, 213604, Note_on_c, 0, 79, 87
2, 213672, Note_off_c, 0, 79, 64
2, 213672, Note_on_c, 0, 81, 85
2, 213720, Note_on_c, 0, 83, 90
2, 213764, Note_off_c, 0, 81, 64
2, 213784, Note_on_c, 0, 85, 76
2, 213832, Note_off_c, 0, 83, 64
2, 213872, Note_on_c, 0, 86, 85
2, 213904, Note_off_c, 0, 85, 64
2, 213992, Note_on_c, 0, 85, 65
2, 214020, Note_off_c, 0, 86, 64
2, 214092, Note_on_c, 0, 88, 78
2, 214112, Note_off_c, 0, 85, 64
2, 214196, Note_on_c, 0, 86, 70
2, 214232, Note_off_c, 0, 88, 64
2, 214268, Note_on_c, 0, 85, 70
2, 214308, Note_off_c, 0, 86, 64
2, 214356, Note_on_c, 0, 83, 94
2, 214376, Note_off_c, 0, 85, 64
2, 214440, Note_on_c, 0, 81, 60
2, 214444, Note_off_c, 0, 83, 64
2, 214504, Note_off_c, 0, 81, 64
2, 214512, Note_on_c, 0, 85, 62
2, 214604, Note_on_c, 0, 83, 91
2, 214624, Note_off_c, 0, 85, 64
2, 214684, Note_on_c, 0, 81, 63
2, 214696, Note_off_c, 0, 83, 64
2, 214760, Note_off_c, 0, 81, 64
2, 214768, Note_on_c, 0, 79, 66
2, 214856, Note_on_c, 0, 78, 59
2, 214868, Note_off_c, 0, 79, 64
2, 214936, Note_off_c, 0, 78, 64
2, 214940, Note_on_c, 0, 81, 59
2, 215008, Note_off_c, 0, 81, 64
2, 215036, Note_on_c, 0, 79, 58
2, 215120, Note_off_c, 0, 79, 64
2, 215128, Note_on_c, 0, 78, 49
2, 215232, Note_off_c, 0, 78, 64
2, 215232, Note_on_c, 0, 76, 37
2, 215328, Note_off_c, 0, 76, 64
2, 215332, Note_on_c, 0, 75, 50
2, 215456, Note_on_c, 0, 76, 51
2, 215460, Note_off_c, 0, 75, 64
2, 215568, Note_on_c, 0, 78, 55
2, 215576, Note_off_c, 0, 76, 64
2, 215676, Note_off_c, 0, 78, 64
2, 215680, Note_on_c, 0, 76, 48
2, 215784, Note_off_c, 0, 76, 64
2, 215792, Note_on_c, 0, 79, 68
2, 215892, Note_off_c, 0, 79, 64
2, 215908, Note_on_c, 0, 76, 49
2, 216036, Note_off_c, 0, 76, 64
2, 216048, Note_on_c, 0, 78, 54
2, 216184, Note_on_c, 0, 76, 42
2, 216192, Note_off_c, 0, 78, 64
2, 216200, Control_c, 0, 64, 127
2, 216296, Note_off_c, 0, 76, 64
2, 216304, Note_on_c, 0, 78, 44
2, 216400, Note_off_c, 0, 78, 64
2, 216412, Note_on_c, 0, 76, 27
2, 216488, Note_off_c, 0, 76, 64
2, 216504, Note_on_c, 0, 78, 41
2, 216576, Note_off_c, 0, 78, 64
2, 216596, Note_on_c, 0, 76, 25
2, 216652, Note_off_c, 0, 76, 64
2, 216664, Note_on_c, 0, 78, 38
2, 216728, Note_off_c, 0, 78, 64
2, 216740, Note_on_c, 0, 76, 24
2, 216800, Note_off_c, 0, 76, 64
2, 216800, Note_on_c, 0, 78, 38
2, 216860, Note_off_c, 0, 78, 64
2, 216872, Note_on_c, 0, 76, 34
2, 216920, Note_off_c, 0, 76, 64
2, 216920, Note_on_c, 0, 78, 52
2, 216968, Note_off_c, 0, 78, 64
2, 216984, Note_on_c, 0, 76, 41
2, 217036, Note_off_c, 0, 76, 64
2, 217040, Note_on_c, 0, 78, 43
2, 217088, Note_off_c, 0, 78, 64
2, 217096, Note_on_c, 0, 76, 47
2, 217136, Note_off_c, 0, 76, 64
2, 217144, Note_on_c, 0, 78, 54
2, 217184, Note_off_c, 0, 78, 64
2, 217196, Note_on_c, 0, 76, 51
2, 217244, Note_off_c, 0, 76, 64
2, 217252, Note_on_c, 0, 78, 47
2, 217300, Note_off_c, 0, 78, 64
2, 217308, Note_on_c, 0, 76, 43
2, 217348, Note_off_c, 0, 76, 64
2, 217352, Note_on_c, 0, 78, 60
2, 217408, Note_off_c, 0, 78, 64
2, 217416, Note_on_c, 0, 76, 40
2, 217460, Note_off_c, 0, 76, 64
2, 217468, Note_on_c, 0, 78, 54
2, 217516, Note_off_c, 0, 78, 64
2, 217528, Note_on_c, 0, 76, 42
2, 217568, Note_off_c, 0, 76, 64
2, 217568, Note_on_c, 0, 78, 55
2, 217616, Note_off_c, 0, 78, 64
2, 217632, Note_on_c, 0, 76, 45
2, 217680, Note_off_c, 0, 76, 64
2, 217684, Note_on_c, 0, 78, 42
2, 217744, Note_off_c, 0, 78, 64
2, 217752, Note_on_c, 0, 76, 27
2, 217800, Note_on_c, 0, 78, 46
2, 217804, Note_off_c, 0, 76, 64
2, 217848, Note_off_c, 0, 78, 64
2, 217852, Note_on_c, 0, 76, 60
2, 217904, Note_off_c, 0, 76, 64
2, 217920, Note_on_c, 0, 78, 31
2, 217984, Note_off_c, 0, 78, 64
2, 217984, Note_on_c, 0, 76, 31
2, 218028, Note_off_c, 0, 76, 64
2, 218040, Note_on_c, 0, 78, 41
2, 218084, Note_on_c, 0, 76, 46
2, 218096, Note_off_c, 0, 78, 64
2, 218148, Note_off_c, 0, 76, 64
2, 218156, Note_on_c, 0, 78, 50
2, 218208, Note_off_c, 0, 78, 64
2, 218216, Note_on_c, 0, 76, 36
2, 218272, Note_off_c, 0, 76, 64
2, 218276, Note_on_c, 0, 78, 44
2, 218324, Note_off_c, 0, 78, 64
2, 218336, Note_on_c, 0, 76, 36
2, 218348, Note_on_c, 0, 67, 26
2, 218348, Note_on_c, 0, 61, 29
2, 218368, Note_on_c, 0, 57, 10
2, 218396, Note_off_c, 0, 76, 64
2, 218400, Note_on_c, 0, 78, 44
2, 218464, Note_off_c, 0, 78, 64
2, 218476, Note_on_c, 0, 76, 19
2, 218528, Note_off_c, 0, 76, 64
2, 218532, Note_on_c, 0, 78, 40
2, 218580, Note_off_c, 0, 78, 64
2, 218600, Note_on_c, 0, 76, 25
2, 218660, Note_off_c, 0, 76, 64
2, 218660, Note_on_c, 0, 78, 39
2, 218708, Note_off_c, 0, 78, 64
2, 218732, Note_on_c, 0, 76, 31
2, 218784, Note_on_c, 0, 78, 40
2, 218788, Note_off_c, 0, 76, 64
2, 218836, Note_off_c, 0, 78, 64
2, 218860, Note_on_c, 0, 76, 28
2, 218912, Note_on_c, 0, 78, 42
2, 218920, Note_off_c, 0, 76, 64
2, 218960, Note_off_c, 0, 78, 64
2, 218984, Note_on_c, 0, 76, 26
2, 219040, Note_off_c, 0, 76, 64
2, 219040, Note_on_c, 0, 78, 38
2, 219088, Note_off_c, 0, 78, 64
2, 219100, Note_on_c, 0, 76, 28
2, 219156, Note_off_c, 0, 76, 64
2, 219168, Note_on_c, 0, 78, 36
2, 219220, Note_off_c, 0, 78, 64
2, 219232, Note_on_c, 0, 76, 32
2, 219288, Note_off_c, 0, 76, 64
2, 219288, Note_on_c, 0, 78, 44
2, 219344, Note_off_c, 0, 78, 64
2, 219352, Note_on_c, 0, 76, 37
2, 219476, Note_off_c, 0, 76, 64
2, 219476, Note_on_c, 0, 75, 50
2, 219644, Note_on_c, 0, 76, 49
2, 219648, Note_off_c, 0, 75, 64
2, 219780, Note_on_c, 0, 78, 43
2, 219788, Note_off_c, 0, 76, 64
2, 219900, Note_on_c, 0, 76, 26
2, 219912, Note_off_c, 0, 78, 64
2, 220008, Note_off_c, 0, 76, 64
2, 220016, Note_on_c, 0, 79, 46
2, 220084, Control_c, 0, 64, 0
2, 220136, Note_off_c, 0, 79, 64
2, 220136, Note_on_c, 0, 78, 44
2, 220304, Note_off_c, 0, 78, 64
2, 220312, Note_on_c, 0, 81, 40
2, 220480, Note_off_c, 0, 81, 64
2, 220488, Note_on_c, 0, 79, 42
2, 220576, Control_c, 0, 64, 127
2, 220592, Note_off_c, 0, 79, 64
2, 220604, Note_on_c, 0, 78, 43
2, 220728, Note_off_c, 0, 78, 64
2, 220736, Note_on_c, 0, 76, 35
2, 220784, Control_c, 0, 64, 0
2, 220832, Note_off_c, 0, 76, 64
2, 220864, Note_on_c, 0, 79, 32
2, 220940, Note_off_c, 0, 79, 64
2, 220972, Note_on_c, 0, 78, 38
2, 221032, Control_c, 0, 64, 127
2, 221072, Note_off_c, 0, 78, 64
2, 221096, Note_on_c, 0, 76, 28
2, 221188, Note_off_c, 0, 76, 64
2, 221208, Note_on_c, 0, 74, 31
2, 221216, Control_c, 0, 64, 0
2, 221292, Note_off_c, 0, 74, 64
2, 221324, Note_off_c, 0, 61, 64
2, 221332, Note_on_c, 0, 78, 34
2, 221336, Note_off_c, 0, 67, 64
2, 221436, Note_off_c, 0, 57, 64
2, 221472, Control_c, 0, 64, 127
2, 221472, Note_on_c, 0, 76, 30
2, 221476, Note_off_c, 0, 78, 64
2, 221604, Note_off_c, 0, 76, 64
2, 221604, Note_on_c, 0, 74, 42
2, 221644, Control_c, 0, 64, 0
2, 221760, Note_on_c, 0, 73, 40
2, 221784, Note_off_c, 0, 74, 64
2, 221828, Control_c, 0, 64, 127
2, 222000, Control_c, 0, 64, 0
2, 222012, Note_off_c, 0, 73, 64
2, 222016, Note_on_c, 0, 76, 31
2, 222272, Control_c, 0, 64, 127
2, 222420, Note_on_c, 0, 74, 26
2, 222488, Note_off_c, 0, 76, 64
2, 222568, Control_c, 0, 64, 0
2, 222764, Control_c, 0, 64, 127
2, 222896, Note_off_c, 0, 74, 64
2, 222908, Note_on_c, 0, 73, 16
2, 223060, Control_c, 0, 64, 0
2, 223280, Control_c, 0, 64, 127
2, 223576, Note_off_c, 0, 73, 64
2, 223620, Note_on_c, 0, 71, 18
2, 223736, Control_c, 0, 64, 0
2, 223968, Control_c, 0, 64, 127
2, 224016, Note_off_c, 0, 71, 64
2, 224120, Note_on_c, 0, 71, 2
2, 224460, Note_off_c, 0, 71, 64
2, 224544, Note_on_c, 0, 69, 25
2, 224556, Note_on_c, 0, 66, 14
2, 224576, Note_on_c, 0, 62, 11
2, 224584, Control_c, 0, 64, 0
2, 224916, Control_c, 0, 64, 127
2, 224952, Control_c, 0, 64, 0
2, 224968, Note_on_c, 0, 78, 35
2, 224992, Note_off_c, 0, 69, 64
2, 225124, Control_c, 0, 64, 127
2, 225148, Note_off_c, 0, 62, 64
2, 225160, Note_off_c, 0, 78, 64
2, 225176, Note_on_c, 0, 74, 38
2, 225216, Note_off_c, 0, 66, 64
2, 225408, Note_on_c, 0, 73, 38
2, 225408, Note_on_c, 0, 67, 25
2, 225432, Control_c, 0, 64, 0
2, 225432, Note_on_c, 0, 62, 27
2, 225468, Note_off_c, 0, 74, 64
2, 225688, Control_c, 0, 64, 127
2, 225752, Control_c, 0, 64, 0
2, 225800, Note_on_c, 0, 71, 36
2, 225820, Note_off_c, 0, 73, 64
2, 225936, Control_c, 0, 64, 127
2, 225996, Note_on_c, 0, 79, 48
2, 226016, Note_off_c, 0, 71, 64
2, 226044, Note_off_c, 0, 79, 64
2, 226072, Note_on_c, 0, 76, 39
2, 226108, Control_c, 0, 64, 0
2, 226132, Note_off_c, 0, 76, 64
2, 226164, Note_on_c, 0, 74, 46
2, 226164, Note_on_c, 0, 64, 41
2, 226184, Note_off_c, 0, 67, 64
2, 226328, Note_off_c, 0, 74, 64
2, 226340, Control_c, 0, 64, 127
2, 226344, Note_on_c, 0, 73, 46
2, 226552, Note_on_c, 0, 83, 82
2, 226656, Note_off_c, 0, 62, 64
2, 226704, Note_off_c, 0, 83, 64
2, 226724, Note_off_c, 0, 73, 64
2, 226728, Note_on_c, 0, 81, 66
2, 226768, Note_off_c, 0, 81, 64
2, 226836, Note_off_c, 0, 64, 64
2, 226936, Note_on_c, 0, 81, 63
2, 226944, Note_on_c, 0, 66, 21
2, 226952, Note_on_c, 0, 74, 28
2, 226964, Note_on_c, 0, 62, 23
2, 226980, Control_c, 0, 64, 0
2, 227200, Note_off_c, 0, 81, 64
2, 227212, Note_on_c, 0, 83, 61
2, 227260, Note_off_c, 0, 83, 64
2, 227272, Note_on_c, 0, 79, 53
2, 227320, Note_off_c, 0, 74, 64
2, 227320, Note_off_c, 0, 79, 64
2, 227328, Note_on_c, 0, 78, 61
2, 227432, Note_off_c, 0, 66, 64
2, 227448, Control_c, 0, 64, 127
2, 227480, Note_off_c, 0, 62, 64
2, 227548, Note_off_c, 0, 78, 64
2, 227556, Note_on_c, 0, 81, 79
2, 227628, Note_on_c, 0, 78, 80
2, 227648, Note_off_c, 0, 81, 64
2, 227716, Control_c, 0, 64, 0
2, 227728, Note_on_c, 0, 54, 90
2, 227732, Note_on_c, 0, 42, 81
2, 227732, Note_on_c, 0, 86, 106
2, 227756, Note_off_c, 0, 42, 64
2, 227760, Note_off_c, 0, 54, 64
2, 227768, Note_off_c, 0, 78, 64
2, 227800, Note_off_c, 0, 86, 64
2, 227920, Note_on_c, 0, 86, 97
2, 227920, Note_on_c, 0, 54, 89
2, 227924, Note_on_c, 0, 81, 91
2, 227928, Note_on_c, 0, 74, 89
2, 227928, Note_on_c, 0, 42, 76
2, 227956, Note_off_c, 0, 54, 64
2, 227956, Note_off_c, 0, 81, 64
2, 227956, Note_off_c, 0, 42, 64
2, 227960, Note_off_c, 0, 74, 64
2, 228016, Note_off_c, 0, 86, 64
2, 228100, Note_on_c, 0, 86, 89
2, 228100, Note_on_c, 0, 42, 72
2, 228100, Note_on_c, 0, 74, 91
2, 228100, Note_on_c, 0, 54, 84
2, 228104, Note_on_c, 0, 81, 89
2, 228136, Note_off_c, 0, 42, 64
2, 228136, Note_off_c, 0, 74, 64
2, 228140, Note_off_c, 0, 81, 64
2, 228144, Note_off_c, 0, 54, 64
2, 228180, Note_off_c, 0, 86, 64
2, 228288, Note_on_c, 0, 86, 96
2, 228292, Note_on_c, 0, 81, 88
2, 228292, Note_on_c, 0, 54, 86
2, 228296, Note_on_c, 0, 42, 78
2, 228296, Note_on_c, 0, 74, 85
2, 228324, Note_off_c, 0, 42, 64
2, 228328, Note_off_c, 0, 81, 64
2, 228328, Note_off_c, 0, 54, 64
2, 228332, Note_off_c, 0, 74, 64
2, 228376, Note_off_c, 0, 86, 64
2, 228512, Note_on_c, 0, 83, 115
2, 228512, Note_on_c, 0, 79, 92
2, 228516, Note_on_c, 0, 74, 93
2, 228520, Note_on_c, 0, 55, 92
2, 228528, Note_on_c, 0, 43, 83
2, 228616, Note_off_c, 0, 43, 64
2, 228616, Control_c, 0, 64, 127
2, 228620, Note_off_c, 0, 55, 64
2, 228656, Note_off_c, 0, 74, 64
2, 228692, Note_off_c, 0, 79, 64
2, 228696, Note_off_c, 0, 83, 64
2, 228872, Control_c, 0, 64, 0
2, 229120, Note_on_c, 0, 79, 83
2, 229232, Note_off_c, 0, 79, 64
2, 229232, Note_on_c, 0, 76, 69
2, 229312, Note_off_c, 0, 76, 64
2, 229320, Note_on_c, 0, 73, 76
2, 229336, Note_on_c, 0, 57, 51
2, 229336, Note_on_c, 0, 64, 56
2, 229376, Note_off_c, 0, 57, 64
2, 229376, Note_off_c, 0, 64, 64
2, 229388, Note_off_c, 0, 73, 64
2, 229528, Note_on_c, 0, 57, 40
2, 229528, Note_on_c, 0, 64, 60
2, 229532, Note_on_c, 0, 73, 62
2, 229536, Note_on_c, 0, 67, 47
2, 229568, Note_off_c, 0, 73, 64
2, 229572, Note_off_c, 0, 64, 64
2, 229576, Note_off_c, 0, 57, 64
2, 229584, Note_off_c, 0, 67, 64
2, 229720, Note_on_c, 0, 67, 54
2, 229724, Note_on_c, 0, 73, 57
2, 229724, Note_on_c, 0, 64, 60
2, 229732, Note_on_c, 0, 57, 31
2, 229768, Note_off_c, 0, 64, 64
2, 229772, Note_off_c, 0, 67, 64
2, 229784, Note_off_c, 0, 57, 64
2, 229800, Note_off_c, 0, 73, 64
2, 229940, Note_on_c, 0, 73, 61
2, 229948, Note_on_c, 0, 57, 47
2, 229948, Note_on_c, 0, 67, 52
2, 229952, Note_on_c, 0, 64, 49
2, 229992, Note_off_c, 0, 64, 64
2, 230000, Note_off_c, 0, 57, 64
2, 230000, Note_off_c, 0, 67, 64
2, 230020, Note_off_c, 0, 73, 64
2, 230228, Note_on_c, 0, 66, 42
2, 230240, Note_on_c, 0, 74, 67
2, 230248, Note_on_c, 0, 62, 37
2, 230264, Note_on_c, 0, 59, 25
2, 230760, Note_off_c, 0, 62, 64
2, 230776, Control_c, 0, 64, 127
2, 230800, Note_off_c, 0, 59, 64
2, 230800, Note_off_c, 0, 66, 64
2, 230820, Note_off_c, 0, 74, 64
2, 230912, Control_c, 0, 64, 0
2, 231124, Note_on_c, 0, 83, 117
2, 231128, Note_on_c, 0, 77, 96
2, 231128, Note_on_c, 0, 74, 100
2, 231132, Note_on_c, 0, 56, 86
2, 231136, Note_on_c, 0, 44, 90
2, 231160, Note_off_c, 0, 56, 64
2, 231164, Note_off_c, 0, 44, 64
2, 231172, Control_c, 0, 64, 127
2, 231300, Note_off_c, 0, 74, 64
2, 231336, Note_off_c, 0, 77, 64
2, 231388, Note_off_c, 0, 83, 64
2, 231624, Control_c, 0, 64, 0
2, 231984, Note_on_c, 0, 81, 95
2, 231984, Note_on_c, 0, 78, 80
2, 231988, Note_on_c, 0, 74, 85
2, 231992, Note_on_c, 0, 57, 83
2, 231996, Note_on_c, 0, 45, 81
2, 232020, Control_c, 0, 64, 127
2, 232140, Note_off_c, 0, 57, 64
2, 232184, Note_off_c, 0, 45, 64
2, 232188, Note_off_c, 0, 74, 64
2, 232228, Note_off_c, 0, 81, 64
2, 232248, Note_off_c, 0, 78, 64
2, 232708, Control_c, 0, 64, 0
2, 233128, Note_on_c, 0, 61, 29
2, 233132, Note_on_c, 0, 45, 27
2, 233136, Note_on_c, 0, 33, 32
2, 233144, Note_on_c, 0, 52, 26
2, 233144, Note_on_c, 0, 55, 30
2, 233176, Control_c, 0, 64, 127
2, 233296, Note_off_c, 0, 45, 64
2, 233344, Note_off_c, 0, 33, 64
2, 233608, Note_off_c, 0, 52, 64
2, 233852, Note_off_c, 0, 55, 64
2, 234064, Note_off_c, 0, 61, 64
2, 234416, Control_c, 0, 64, 0
2, 235000, Note_on_c, 0, 57, 30
2, 235008, Note_on_c, 0, 54, 20
2, 235016, Note_on_c, 0, 50, 24
2, 235192, Control_c, 0, 64, 127
2, 235412, Note_on_c, 0, 66, 29
2, 235464, Note_off_c, 0, 57, 64
2, 235540, Note_off_c, 0, 50, 64
2, 235608, Note_on_c, 0, 62, 37
2, 235636, Note_off_c, 0, 66, 64
2, 235704, Note_off_c, 0, 54, 64
2, 235820, Note_on_c, 0, 61, 45
2, 235856, Control_c, 0, 64, 0
2, 235860, Note_on_c, 0, 55, 21
2, 235880, Note_on_c, 0, 50, 8
2, 235904, Note_off_c, 0, 62, 64
2, 236224, Note_on_c, 0, 59, 27
2, 236276, Note_off_c, 0, 61, 64
2, 236444, Control_c, 0, 64, 127
2, 236448, Note_on_c, 0, 67, 39
2, 236524, Note_off_c, 0, 59, 64
2, 236536, Note_on_c, 0, 64, 55
2, 236540, Note_off_c, 0, 67, 64
2, 236652, Note_on_c, 0, 62, 56
2, 236656, Note_off_c, 0, 55, 64
2, 236668, Note_off_c, 0, 64, 64
2, 236668, Note_on_c, 0, 52, 27
2, 236680, Control_c, 0, 64, 0
2, 236848, Note_on_c, 0, 61, 47
2, 236860, Note_off_c, 0, 62, 64
2, 236912, Control_c, 0, 64, 127
2, 237000, Control_c, 0, 64, 0
2, 237088, Note_on_c, 0, 71, 40
2, 237232, Control_c, 0, 64, 127
2, 237260, Note_off_c, 0, 50, 64
2, 237264, Note_off_c, 0, 61, 64
2, 237288, Note_off_c, 0, 71, 64
2, 237320, Note_on_c, 0, 69, 28
2, 237328, Note_off_c, 0, 52, 64
2, 237380, Note_off_c, 0, 69, 64
2, 237552, Control_c, 0, 64, 0
2, 237576, Note_on_c, 0, 69, 17
2, 237576, Note_on_c, 0, 62, 19
2, 237584, Note_on_c, 0, 54, 25
2, 237604, Note_on_c, 0, 50, 20
2, 237932, Control_c, 0, 64, 127
2, 238020, Note_off_c, 0, 69, 64
2, 238048, Note_on_c, 0, 66, 11
2, 238068, Control_c, 0, 64, 0
2, 238164, Note_off_c, 0, 66, 64
2, 238168, Note_on_c, 0, 69, 24
2, 238352, Note_off_c, 0, 62, 64
2, 238364, Note_off_c, 0, 54, 64
2, 238372, Note_off_c, 0, 50, 64
2, 238400, Control_c, 0, 64, 127
2, 238472, Note_off_c, 0, 69, 64
2, 238536, Control_c, 0, 64, 0
2, 238744, Note_on_c, 0, 69, 87
2, 238744, Note_on_c, 0, 42, 63
2, 238748, Note_on_c, 0, 50, 68
2, 239104, Note_on_c, 0, 78, 84
2, 239208, Note_off_c, 0, 69, 64
2, 239236, Control_c, 0, 64, 127
2, 239296, Note_on_c, 0, 74, 92
2, 239336, Note_off_c, 0, 42, 64
2, 239356, Note_off_c, 0, 78, 64
2, 239500, Note_on_c, 0, 71, 99
2, 239500, Note_on_c, 0, 43, 81
2, 239504, Note_on_c, 0, 55, 81
2, 239528, Note_off_c, 0, 50, 64
2, 239552, Note_off_c, 0, 74, 64
2, 239616, Control_c, 0, 64, 0
2, 240060, Control_c, 0, 64, 127
2, 240064, Note_on_c, 0, 79, 91
2, 240080, Note_off_c, 0, 71, 64
2, 240108, Note_off_c, 0, 43, 64
2, 240116, Note_off_c, 0, 55, 64
2, 240156, Note_on_c, 0, 76, 78
2, 240164, Note_off_c, 0, 79, 64
2, 240232, Note_on_c, 0, 73, 88
2, 240236, Note_on_c, 0, 55, 80
2, 240240, Note_off_c, 0, 76, 64
2, 240244, Note_on_c, 0, 45, 62
2, 240256, Note_on_c, 0, 52, 68
2, 240268, Control_c, 0, 64, 0
2, 240316, Note_on_c, 0, 74, 94
2, 240328, Note_off_c, 0, 73, 64
2, 240400, Note_on_c, 0, 76, 87
2, 240432, Note_off_c, 0, 74, 64
2, 240484, Note_on_c, 0, 78, 88
2, 240508, Note_off_c, 0, 76, 64
2, 240568, Note_off_c, 0, 78, 64
2, 240572, Note_on_c, 0, 79, 101
2, 240656, Note_off_c, 0, 79, 64
2, 240656, Note_on_c, 0, 81, 94
2, 240736, Note_on_c, 0, 83, 111
2, 240760, Note_off_c, 0, 81, 64
2, 240812, Note_off_c, 0, 45, 64
2, 240820, Note_on_c, 0, 85, 85
2, 240848, Note_off_c, 0, 52, 64
2, 240852, Note_off_c, 0, 55, 64
2, 240860, Note_off_c, 0, 83, 64
2, 240904, Note_on_c, 0, 54, 86
2, 240908, Note_on_c, 0, 86, 105
2, 240912, Note_on_c, 0, 50, 79
2, 240944, Note_off_c, 0, 50, 64
2, 240944, Control_c, 0, 64, 127
2, 240960, Note_off_c, 0, 85, 64
2, 240968, Note_off_c, 0, 54, 64
2, 240988, Note_off_c, 0, 86, 64
2, 240992, Control_c, 0, 64, 0
2, 241260, Note_on_c, 0, 69, 72
2, 241260, Note_on_c, 0, 81, 94
2, 241264, Note_on_c, 0, 73, 73
2, 241264, Note_on_c, 0, 45, 84
2, 241264, Note_on_c, 0, 57, 79
2, 241268, Note_on_c, 0, 76, 77
2, 241312, Note_off_c, 0, 57, 64
2, 241328, Note_off_c, 0, 45, 64
2, 241356, Note_off_c, 0, 81, 64
2, 241360, Control_c, 0, 64, 127
2, 241364, Note_off_c, 0, 69, 64
2, 241376, Note_off_c, 0, 76, 64
2, 241392, Note_off_c, 0, 73, 64
2, 241400, Control_c, 0, 64, 0
2, 241616, Note_on_c, 0, 78, 95
2, 241616, Note_on_c, 0, 69, 84
2, 241624, Note_on_c, 0, 74, 90
2, 241624, Note_on_c, 0, 57, 72
2, 241632, Note_on_c, 0, 50, 88
2, 241680, Note_off_c, 0, 57, 64
2, 241692, Note_off_c, 0, 50, 64
2, 241696, Note_off_c, 0, 74, 64
2, 241704, Note_off_c, 0, 69, 64
2, 241704, Control_c, 0, 64, 127
2, 241728, Note_off_c, 0, 78, 64
2, 241792, Control_c, 0, 64, 0
2, 241984, Note_on_c, 0, 73, 86
2, 241988, Note_on_c, 0, 64, 90
2, 241988, Note_on_c, 0, 67, 84
2, 241988, Note_on_c, 0, 69, 75
2, 241992, Note_on_c, 0, 57, 79
2, 241992, Note_on_c, 0, 45, 78
2, 242024, Note_off_c, 0, 64, 64
2, 242036, Note_off_c, 0, 57, 64
2, 242056, Note_off_c, 0, 45, 64
2, 242060, Note_off_c, 0, 67, 64
2, 242064, Note_off_c, 0, 73, 64
2, 242064, Control_c, 0, 64, 127
2, 242080, Note_off_c, 0, 69, 64
2, 242200, Control_c, 0, 64, 0
2, 242436, Note_on_c, 0, 66, 73
2, 242440, Note_on_c, 0, 62, 89
2, 242440, Note_on_c, 0, 74, 95
2, 242440, Note_on_c, 0, 69, 76
2, 242440, Note_on_c, 0, 38, 71
2, 242440, Note_on_c, 0, 50, 65
2, 242604, Control_c, 0, 64, 127
2, 242616, Note_off_c, 0, 50, 64
2, 242632, Note_off_c, 0, 62, 64
2, 242680, Note_off_c, 0, 38, 64
2, 242692, Note_off_c, 0, 66, 64
2, 242700, Note_off_c, 0, 69, 64
2, 242740, Note_off_c, 0, 74, 64
2, 243232, Control_c, 0, 64, 0
2, 245760, Control_c, 0, 64, 0
2, 247296, Control_c, 0, 64, 0
2, 247296, End_track
0, 0, End_of_file