0, 0, Header, 1, 26, 192
1, 0, Start_track
1, 0, Title_t, "Kyrie"
1, 0, Text_t, "By Wolfgang Amadeus Mozart"
1, 0, Text_t, "Generated by NoteWorthy Composer"
1, 0, Tempo, 1000000
1, 37248, Tempo, 2000000
1, 38400, Tempo, 1000000
1, 40704, Tempo, 2000000
1, 41472, Tempo, 1000000
1, 70656, Tempo, 1090909
1, 70944, Tempo, 1200000
1, 71232, Tempo, 1333333
1, 71424, Tempo, 3000000
1, 71424, End_track
2, 0, Start_track
2, 0, MIDI_port, 0
2, 0, Title_t, "Sequenced by:"
2, 0, End_track
3, 0, Start_track
3, 0, MIDI_port, 0
3, 0, Title_t, "S.Radtchenko"
3, 0, End_track
4, 0, Start_track
4, 0, MIDI_port, 0
4, 0, Title_t, "(rslava@geocities.com)"
4, 0, End_track
5, 0, Start_track
5, 0, MIDI_port, 0
5, 0, Title_t, "Oboi"
5, 0, Program_c, 0, 68
5, 0, Control_c, 0, 7, 127
5, 0, Control_c, 0, 10, 64
5, 3840, Note_on_c, 0, 60, 92
5, 4176, Note_on_c, 0, 60, 0
5, 4224, Note_on_c, 0, 60, 92
5, 4224, Note_on_c, 0, 63, 92
5, 4384, Note_on_c, 0, 63, 0
5, 4416, Note_on_c, 0, 67, 92
5, 4560, Note_on_c, 0, 60, 0
5, 4576, Note_on_c, 0, 67, 0
5, 4608, Note_on_c, 0, 63, 92
5, 4608, Note_on_c, 0, 72, 92
5, 4768, Note_on_c, 0, 63, 0
5, 4768, Note_on_c, 0, 72, 0
5, 4800, Note_on_c, 0, 67, 92
5, 4800, Note_on_c, 0, 75, 92
5, 4960, Note_on_c, 0, 67, 0
5, 4960, Note_on_c, 0, 75, 0
5, 4992, Note_on_c, 0, 72, 92
5, 4992, Note_on_c, 0, 79, 92
5, 5152, Note_on_c, 0, 72, 0
5, 5152, Note_on_c, 0, 79, 0
5, 5184, Note_on_c, 0, 67, 92
5, 5184, Note_on_c, 0, 72, 92
5, 5344, Note_on_c, 0, 67, 0
5, 5344, Note_on_c, 0, 72, 0
5, 5376, Note_on_c, 0, 63, 92
5, 5376, Note_on_c, 0, 72, 92
5, 5536, Note_on_c, 0, 72, 0
5, 5568, Note_on_c, 0, 67, 92
5, 5712, Note_on_c, 0, 63, 0
5, 5728, Note_on_c, 0, 67, 0
5, 5760, Note_on_c, 0, 60, 92
5, 5760, Note_on_c, 0, 63, 92
5, 5920, Note_on_c, 0, 60, 0
5, 5920, Note_on_c, 0, 63, 0
5, 5952, Note_on_c, 0, 63, 92
5, 5952, Note_on_c, 0, 67, 92
5, 6112, Note_on_c, 0, 63, 0
5, 6112, Note_on_c, 0, 67, 0
5, 6144, Note_on_c, 0, 67, 92
5, 6144, Note_on_c, 0, 72, 92
5, 6304, Note_on_c, 0, 67, 0
5, 6304, Note_on_c, 0, 72, 0
5, 6528, Note_on_c, 0, 72, 92
5, 7072, Note_on_c, 0, 72, 0
5, 7104, Note_on_c, 0, 71, 92
5, 7264, Note_on_c, 0, 71, 0
5, 7296, Note_on_c, 0, 67, 92
5, 7456, Note_on_c, 0, 67, 0
5, 7488, Note_on_c, 0, 70, 92
5, 7840, Note_on_c, 0, 70, 0
5, 7872, Note_on_c, 0, 69, 92
5, 8032, Note_on_c, 0, 69, 0
5, 8064, Note_on_c, 0, 65, 92
5, 8224, Note_on_c, 0, 65, 0
5, 8256, Note_on_c, 0, 68, 92
5, 8416, Note_on_c, 0, 68, 0
5, 8448, Note_on_c, 0, 67, 92
5, 8608, Note_on_c, 0, 67, 0
5, 8640, Note_on_c, 0, 72, 92
5, 8976, Note_on_c, 0, 72, 0
5, 9024, Note_on_c, 0, 71, 92
5, 9184, Note_on_c, 0, 71, 0
5, 9216, Note_on_c, 0, 72, 92
5, 9376, Note_on_c, 0, 72, 0
5, 9408, Note_on_c, 0, 67, 92
5, 9408, Note_on_c, 0, 75, 92
5, 9568, Note_on_c, 0, 75, 0
5, 9600, Note_on_c, 0, 74, 92
5, 9744, Note_on_c, 0, 67, 0
5, 9760, Note_on_c, 0, 74, 0
5, 9792, Note_on_c, 0, 67, 92
5, 9792, Note_on_c, 0, 70, 92
5, 9952, Note_on_c, 0, 70, 0
5, 9984, Note_on_c, 0, 69, 92
5, 10032, Note_on_c, 0, 69, 0
5, 10032, Note_on_c, 0, 71, 92
5, 10080, Note_on_c, 0, 71, 0
5, 10080, Note_on_c, 0, 72, 92
5, 10128, Note_on_c, 0, 72, 0
5, 10128, Note_on_c, 0, 71, 92
5, 10144, Note_on_c, 0, 67, 0
5, 10176, Note_on_c, 0, 71, 0
5, 10176, Note_on_c, 0, 66, 92
5, 10176, Note_on_c, 0, 72, 92
5, 10336, Note_on_c, 0, 66, 0
5, 10368, Note_on_c, 0, 62, 92
5, 10464, Note_on_c, 0, 72, 0
5, 10464, Note_on_c, 0, 71, 92
5, 10528, Note_on_c, 0, 62, 0
5, 10558, Note_on_c, 0, 71, 0
5, 10560, Note_on_c, 0, 65, 92
5, 10560, Note_on_c, 0, 67, 92
5, 10800, Note_on_c, 0, 67, 0
5, 10800, Note_on_c, 0, 69, 92
5, 10848, Note_on_c, 0, 69, 0
5, 10848, Note_on_c, 0, 70, 92
5, 10896, Note_on_c, 0, 70, 0
5, 10896, Note_on_c, 0, 69, 92
5, 10912, Note_on_c, 0, 65, 0
5, 10944, Note_on_c, 0, 69, 0
5, 10944, Note_on_c, 0, 64, 92
5, 10944, Note_on_c, 0, 70, 92
5, 11104, Note_on_c, 0, 64, 0
5, 11136, Note_on_c, 0, 60, 92
5, 11232, Note_on_c, 0, 70, 0
5, 11232, Note_on_c, 0, 69, 92
5, 11296, Note_on_c, 0, 60, 0
5, 11326, Note_on_c, 0, 69, 0
5, 11328, Note_on_c, 0, 63, 92
5, 11328, Note_on_c, 0, 65, 92
5, 11488, Note_on_c, 0, 63, 0
5, 11488, Note_on_c, 0, 65, 0
5, 11520, Note_on_c, 0, 62, 92
5, 11616, Note_on_c, 0, 74, 92
5, 11680, Note_on_c, 0, 62, 0
5, 11710, Note_on_c, 0, 74, 0
5, 11712, Note_on_c, 0, 67, 92
5, 11712, Note_on_c, 0, 70, 92
5, 11808, Note_on_c, 0, 70, 0
5, 11808, Note_on_c, 0, 75, 92
5, 11904, Note_on_c, 0, 75, 0
5, 12000, Note_on_c, 0, 72, 92
5, 12048, Note_on_c, 0, 67, 0
5, 12096, Note_on_c, 0, 72, 0
5, 12096, Note_on_c, 0, 66, 92
5, 12096, Note_on_c, 0, 69, 92
5, 12190, Note_on_c, 0, 69, 0
5, 12192, Note_on_c, 0, 74, 92
5, 12256, Note_on_c, 0, 66, 0
5, 12286, Note_on_c, 0, 74, 0
5, 12288, Note_on_c, 0, 65, 92
5, 12288, Note_on_c, 0, 71, 92
5, 12448, Note_on_c, 0, 65, 0
5, 12448, Note_on_c, 0, 71, 0
5, 12480, Note_on_c, 0, 63, 92
5, 12480, Note_on_c, 0, 72, 92
5, 12640, Note_on_c, 0, 63, 0
5, 12672, Note_on_c, 0, 69, 92
5, 12816, Note_on_c, 0, 72, 0
5, 12832, Note_on_c, 0, 69, 0
5, 12864, Note_on_c, 0, 71, 92
5, 12864, Note_on_c, 0, 74, 92
5, 13024, Note_on_c, 0, 71, 0
5, 13024, Note_on_c, 0, 74, 0
5, 13056, Note_on_c, 0, 72, 92
5, 13056, Note_on_c, 0, 75, 92
5, 13216, Note_on_c, 0, 72, 0
5, 13216, Note_on_c, 0, 75, 0
5, 13248, Note_on_c, 0, 63, 92
5, 13248, Note_on_c, 0, 72, 92
5, 13390, Note_on_c, 0, 63, 0
5, 13390, Note_on_c, 0, 72, 0
5, 13392, Note_on_c, 0, 63, 92
5, 13392, Note_on_c, 0, 72, 92
5, 13438, Note_on_c, 0, 63, 0
5, 13438, Note_on_c, 0, 72, 0
5, 13440, Note_on_c, 0, 63, 92
5, 13440, Note_on_c, 0, 72, 92
5, 13600, Note_on_c, 0, 63, 0
5, 13600, Note_on_c, 0, 72, 0
5, 14016, Note_on_c, 0, 67, 92
5, 14016, Note_on_c, 0, 74, 92
5, 14176, Note_on_c, 0, 74, 0
5, 14208, Note_on_c, 0, 79, 92
5, 14352, Note_on_c, 0, 67, 0
5, 14368, Note_on_c, 0, 79, 0
5, 14400, Note_on_c, 0, 64, 92
5, 14400, Note_on_c, 0, 67, 92
5, 14560, Note_on_c, 0, 64, 0
5, 14560, Note_on_c, 0, 67, 0
5, 14592, Note_on_c, 0, 60, 92
5, 14752, Note_on_c, 0, 60, 0
5, 14784, Note_on_c, 0, 65, 92
5, 14784, Note_on_c, 0, 72, 92
5, 14944, Note_on_c, 0, 72, 0
5, 14976, Note_on_c, 0, 77, 92
5, 15120, Note_on_c, 0, 65, 0
5, 15168, Note_on_c, 0, 74, 92
5, 15328, Note_on_c, 0, 77, 0
5, 15360, Note_on_c, 0, 75, 92
5, 15520, Note_on_c, 0, 74, 0
5, 15552, Note_on_c, 0, 72, 92
5, 15712, Note_on_c, 0, 75, 0
5, 15744, Note_on_c, 0, 74, 92
5, 15888, Note_on_c, 0, 72, 0
5, 15936, Note_on_c, 0, 71, 92
5, 16096, Note_on_c, 0, 71, 0
5, 16128, Note_on_c, 0, 75, 92
5, 16288, Note_on_c, 0, 74, 0
5, 16320, Note_on_c, 0, 72, 92
5, 16480, Note_on_c, 0, 72, 0
5, 16512, Note_on_c, 0, 77, 92
5, 16672, Note_on_c, 0, 75, 0
5, 16704, Note_on_c, 0, 74, 92
5, 16864, Note_on_c, 0, 74, 0
5, 16896, Note_on_c, 0, 79, 92
5, 17056, Note_on_c, 0, 77, 0
5, 17088, Note_on_c, 0, 75, 92
5, 17248, Note_on_c, 0, 75, 0
5, 17280, Note_on_c, 0, 81, 92
5, 17424, Note_on_c, 0, 79, 0
5, 17472, Note_on_c, 0, 78, 92
5, 17632, Note_on_c, 0, 78, 0
5, 17632, Note_on_c, 0, 81, 0
5, 17664, Note_on_c, 0, 79, 92
5, 17664, Note_on_c, 0, 82, 92
5, 19152, Note_on_c, 0, 79, 0
5, 19152, Note_on_c, 0, 82, 0
5, 19200, Note_on_c, 0, 78, 92
5, 19200, Note_on_c, 0, 81, 92
5, 19296, Note_on_c, 0, 78, 0
5, 19296, Note_on_c, 0, 81, 0
5, 19296, Note_on_c, 0, 79, 92
5, 19296, Note_on_c, 0, 82, 92
5, 19392, Note_on_c, 0, 79, 0
5, 19392, Note_on_c, 0, 82, 0
5, 19392, Note_on_c, 0, 78, 92
5, 19392, Note_on_c, 0, 81, 92
5, 19488, Note_on_c, 0, 78, 0
5, 19488, Note_on_c, 0, 81, 0
5, 19488, Note_on_c, 0, 79, 92
5, 19488, Note_on_c, 0, 82, 92
5, 19582, Note_on_c, 0, 79, 0
5, 19582, Note_on_c, 0, 82, 0
5, 19584, Note_on_c, 0, 78, 92
5, 19584, Note_on_c, 0, 81, 92
5, 19744, Note_on_c, 0, 78, 0
5, 19744, Note_on_c, 0, 81, 0
5, 23904, Note_on_c, 0, 67, 60
5, 23904, Note_on_c, 0, 70, 60
5, 23972, Note_on_c, 0, 67, 0
5, 23972, Note_on_c, 0, 70, 0
5, 24000, Note_on_c, 0, 67, 60
5, 24000, Note_on_c, 0, 70, 60
5, 24068, Note_on_c, 0, 67, 0
5, 24068, Note_on_c, 0, 70, 0
5, 24096, Note_on_c, 0, 67, 60
5, 24096, Note_on_c, 0, 70, 60
5, 24164, Note_on_c, 0, 67, 0
5, 24164, Note_on_c, 0, 70, 0
5, 24192, Note_on_c, 0, 67, 60
5, 24192, Note_on_c, 0, 70, 60
5, 24260, Note_on_c, 0, 67, 0
5, 24260, Note_on_c, 0, 70, 0
5, 24288, Note_on_c, 0, 67, 60
5, 24288, Note_on_c, 0, 70, 60
5, 24356, Note_on_c, 0, 67, 0
5, 24356, Note_on_c, 0, 70, 0
5, 24384, Note_on_c, 0, 67, 60
5, 24384, Note_on_c, 0, 70, 60
5, 24452, Note_on_c, 0, 67, 0
5, 24452, Note_on_c, 0, 70, 0
5, 24480, Note_on_c, 0, 67, 60
5, 24480, Note_on_c, 0, 70, 60
5, 24512, Note_on_c, 0, 67, 0
5, 24512, Note_on_c, 0, 70, 0
5, 24576, Note_on_c, 0, 68, 60
5, 24576, Note_on_c, 0, 70, 60
5, 25296, Note_on_c, 0, 68, 0
5, 25344, Note_on_c, 0, 67, 60
5, 25504, Note_on_c, 0, 67, 0
5, 25504, Note_on_c, 0, 70, 0
5, 34560, Note_on_c, 0, 63, 45
5, 34560, Note_on_c, 0, 67, 45
5, 35280, Note_on_c, 0, 63, 0
5, 35280, Note_on_c, 0, 67, 0
5, 35328, Note_on_c, 0, 67, 45
5, 35328, Note_on_c, 0, 70, 45
5, 36048, Note_on_c, 0, 67, 0
5, 36048, Note_on_c, 0, 70, 0
5, 36096, Note_on_c, 0, 70, 60
5, 36096, Note_on_c, 0, 75, 60
5, 36816, Note_on_c, 0, 70, 0
5, 36816, Note_on_c, 0, 75, 0
5, 36864, Note_on_c, 0, 75, 92
5, 36864, Note_on_c, 0, 79, 92
5, 37200, Note_on_c, 0, 75, 0
5, 37200, Note_on_c, 0, 79, 0
5, 40128, Note_on_c, 0, 62, 92
5, 40128, Note_on_c, 0, 65, 92
5, 40512, Note_on_c, 0, 62, 0
5, 40512, Note_on_c, 0, 65, 0
5, 40512, Note_on_c, 0, 65, 92
5, 40512, Note_on_c, 0, 74, 92
5, 40672, Note_on_c, 0, 65, 0
5, 40672, Note_on_c, 0, 74, 0
5, 40704, Note_on_c, 0, 63, 92
5, 40704, Note_on_c, 0, 75, 92
5, 40864, Note_on_c, 0, 63, 0
5, 40864, Note_on_c, 0, 75, 0
5, 46944, Note_on_c, 0, 70, 60
5, 46944, Note_on_c, 0, 82, 60
5, 47012, Note_on_c, 0, 70, 0
5, 47012, Note_on_c, 0, 82, 0
5, 47040, Note_on_c, 0, 70, 60
5, 47040, Note_on_c, 0, 82, 60
5, 47108, Note_on_c, 0, 70, 0
5, 47108, Note_on_c, 0, 82, 0
5, 47136, Note_on_c, 0, 70, 60
5, 47136, Note_on_c, 0, 82, 60
5, 47168, Note_on_c, 0, 70, 0
5, 47168, Note_on_c, 0, 82, 0
5, 47232, Note_on_c, 0, 70, 60
5, 47232, Note_on_c, 0, 82, 60
5, 47710, Note_on_c, 0, 70, 0
5, 47710, Note_on_c, 0, 82, 0
5, 47712, Note_on_c, 0, 70, 60
5, 47712, Note_on_c, 0, 82, 60
5, 47780, Note_on_c, 0, 70, 0
5, 47780, Note_on_c, 0, 82, 0
5, 47808, Note_on_c, 0, 70, 60
5, 47808, Note_on_c, 0, 82, 60
5, 47876, Note_on_c, 0, 70, 0
5, 47876, Note_on_c, 0, 82, 0
5, 47904, Note_on_c, 0, 70, 60
5, 47904, Note_on_c, 0, 82, 60
5, 47936, Note_on_c, 0, 70, 0
5, 47936, Note_on_c, 0, 82, 0
5, 48000, Note_on_c, 0, 70, 60
5, 48000, Note_on_c, 0, 82, 60
5, 48478, Note_on_c, 0, 70, 0
5, 48478, Note_on_c, 0, 82, 0
5, 48480, Note_on_c, 0, 70, 60
5, 48480, Note_on_c, 0, 82, 60
5, 48548, Note_on_c, 0, 70, 0
5, 48548, Note_on_c, 0, 82, 0
5, 48576, Note_on_c, 0, 70, 60
5, 48576, Note_on_c, 0, 82, 60
5, 48644, Note_on_c, 0, 70, 0
5, 48644, Note_on_c, 0, 82, 0
5, 48672, Note_on_c, 0, 70, 60
5, 48672, Note_on_c, 0, 82, 60
5, 48704, Note_on_c, 0, 70, 0
5, 48704, Note_on_c, 0, 82, 0
5, 48768, Note_on_c, 0, 75, 45
5, 49104, Note_on_c, 0, 75, 0
5, 52608, Note_on_c, 0, 75, 45
5, 52608, Note_on_c, 0, 79, 45
5, 52944, Note_on_c, 0, 79, 0
5, 52992, Note_on_c, 0, 77, 45
5, 53328, Note_on_c, 0, 75, 0
5, 53376, Note_on_c, 0, 74, 45
5, 53712, Note_on_c, 0, 77, 0
5, 53712, Note_on_c, 0, 74, 0
5, 53760, Note_on_c, 0, 75, 92
5, 53920, Note_on_c, 0, 75, 0
5, 54144, Note_on_c, 0, 75, 92
5, 54688, Note_on_c, 0, 75, 0
5, 54720, Note_on_c, 0, 74, 92
5, 54880, Note_on_c, 0, 74, 0
5, 54912, Note_on_c, 0, 70, 92
5, 55072, Note_on_c, 0, 70, 0
5, 55104, Note_on_c, 0, 73, 92
5, 55456, Note_on_c, 0, 73, 0
5, 55488, Note_on_c, 0, 72, 92
5, 55824, Note_on_c, 0, 72, 0
5, 55872, Note_on_c, 0, 77, 92
5, 56224, Note_on_c, 0, 77, 0
5, 56256, Note_on_c, 0, 76, 92
5, 56416, Note_on_c, 0, 76, 0
5, 56448, Note_on_c, 0, 72, 92
5, 56608, Note_on_c, 0, 72, 0
5, 56640, Note_on_c, 0, 75, 92
5, 56992, Note_on_c, 0, 75, 0
5, 57024, Note_on_c, 0, 74, 92
5, 57184, Note_on_c, 0, 74, 0
5, 57744, Note_on_c, 0, 69, 92
5, 57790, Note_on_c, 0, 69, 0
5, 57792, Note_on_c, 0, 62, 92
5, 57934, Note_on_c, 0, 62, 0
5, 57936, Note_on_c, 0, 66, 92
5, 57982, Note_on_c, 0, 66, 0
5, 57984, Note_on_c, 0, 67, 92
5, 58176, Note_on_c, 0, 74, 92
5, 58464, Note_on_c, 0, 74, 0
5, 58464, Note_on_c, 0, 72, 92
5, 58528, Note_on_c, 0, 67, 0
5, 58558, Note_on_c, 0, 72, 0
5, 58560, Note_on_c, 0, 67, 92
5, 58560, Note_on_c, 0, 72, 92
5, 58702, Note_on_c, 0, 67, 0
5, 58702, Note_on_c, 0, 72, 0
5, 58704, Note_on_c, 0, 67, 92
5, 58704, Note_on_c, 0, 72, 92
5, 58750, Note_on_c, 0, 67, 0
5, 58750, Note_on_c, 0, 72, 0
5, 58752, Note_on_c, 0, 67, 92
5, 58752, Note_on_c, 0, 72, 92
5, 58912, Note_on_c, 0, 67, 0
5, 58912, Note_on_c, 0, 72, 0
5, 59328, Note_on_c, 0, 67, 92
5, 59328, Note_on_c, 0, 74, 92
5, 59488, Note_on_c, 0, 74, 0
5, 59520, Note_on_c, 0, 79, 92
5, 59664, Note_on_c, 0, 67, 0
5, 59680, Note_on_c, 0, 79, 0
5, 59712, Note_on_c, 0, 64, 92
5, 59712, Note_on_c, 0, 67, 92
5, 59872, Note_on_c, 0, 64, 0
5, 59872, Note_on_c, 0, 67, 0
5, 59904, Note_on_c, 0, 60, 92
5, 60064, Note_on_c, 0, 60, 0
5, 60096, Note_on_c, 0, 65, 92
5, 60096, Note_on_c, 0, 72, 92
5, 60256, Note_on_c, 0, 72, 0
5, 60288, Note_on_c, 0, 77, 92
5, 60448, Note_on_c, 0, 65, 0
5, 60480, Note_on_c, 0, 74, 92
5, 60624, Note_on_c, 0, 77, 0
5, 60672, Note_on_c, 0, 75, 92
5, 60832, Note_on_c, 0, 74, 0
5, 60864, Note_on_c, 0, 72, 92
5, 61008, Note_on_c, 0, 75, 0
5, 61056, Note_on_c, 0, 74, 92
5, 61216, Note_on_c, 0, 72, 0
5, 61248, Note_on_c, 0, 71, 92
5, 61408, Note_on_c, 0, 71, 0
5, 61440, Note_on_c, 0, 75, 92
5, 61600, Note_on_c, 0, 74, 0
5, 61632, Note_on_c, 0, 72, 92
5, 61792, Note_on_c, 0, 72, 0
5, 61824, Note_on_c, 0, 77, 92
5, 61968, Note_on_c, 0, 75, 0
5, 62016, Note_on_c, 0, 74, 92
5, 62176, Note_on_c, 0, 74, 0
5, 62208, Note_on_c, 0, 79, 92
5, 62368, Note_on_c, 0, 77, 0
5, 62400, Note_on_c, 0, 75, 92
5, 62560, Note_on_c, 0, 75, 0
5, 62592, Note_on_c, 0, 80, 92
5, 62736, Note_on_c, 0, 79, 0
5, 62784, Note_on_c, 0, 77, 92
5, 62944, Note_on_c, 0, 77, 0
5, 62976, Note_on_c, 0, 82, 92
5, 63136, Note_on_c, 0, 80, 0
5, 63168, Note_on_c, 0, 79, 92
5, 63312, Note_on_c, 0, 82, 0
5, 63328, Note_on_c, 0, 79, 0
5, 63360, Note_on_c, 0, 75, 92
5, 63360, Note_on_c, 0, 84, 92
5, 64464, Note_on_c, 0, 75, 0
5, 64464, Note_on_c, 0, 84, 0
5, 64512, Note_on_c, 0, 74, 92
5, 64512, Note_on_c, 0, 83, 92
5, 64606, Note_on_c, 0, 74, 0
5, 64606, Note_on_c, 0, 83, 0
5, 64608, Note_on_c, 0, 72, 92
5, 64608, Note_on_c, 0, 75, 92
5, 64704, Note_on_c, 0, 72, 0
5, 64704, Note_on_c, 0, 75, 0
5, 64704, Note_on_c, 0, 71, 92
5, 64704, Note_on_c, 0, 74, 92
5, 64800, Note_on_c, 0, 71, 0
5, 64800, Note_on_c, 0, 74, 0
5, 64800, Note_on_c, 0, 72, 92
5, 64800, Note_on_c, 0, 75, 92
5, 64894, Note_on_c, 0, 72, 0
5, 64894, Note_on_c, 0, 75, 0
5, 64896, Note_on_c, 0, 71, 92
5, 64896, Note_on_c, 0, 74, 92
5, 65056, Note_on_c, 0, 71, 0
5, 65056, Note_on_c, 0, 74, 0
5, 70656, Note_on_c, 0, 72, 30
5, 70656, Note_on_c, 0, 84, 30
5, 71760, Note_on_c, 0, 72, 0
5, 71760, Note_on_c, 0, 84, 0
5, 71760, End_track
6, 0, Start_track
6, 0, MIDI_port, 0
6, 0, Title_t, "Fagotti"
6, 0, Program_c, 1, 70
6, 0, Control_c, 1, 7, 127
6, 0, Control_c, 1, 10, 64
6, 2304, Note_on_c, 1, 60, 60
6, 2304, Note_on_c, 1, 63, 60
6, 3024, Note_on_c, 1, 63, 0
6, 3072, Note_on_c, 1, 62, 60
6, 3232, Note_on_c, 1, 62, 0
6, 3264, Note_on_c, 1, 63, 60
6, 3424, Note_on_c, 1, 63, 0
6, 3456, Note_on_c, 1, 62, 60
6, 3616, Note_on_c, 1, 60, 0
6, 3648, Note_on_c, 1, 59, 60
6, 3792, Note_on_c, 1, 62, 0
6, 3808, Note_on_c, 1, 59, 0
6, 3840, Note_on_c, 1, 60, 60
6, 4000, Note_on_c, 1, 60, 0
6, 4608, Note_on_c, 1, 48, 92
6, 4944, Note_on_c, 1, 48, 0
6, 4992, Note_on_c, 1, 48, 92
6, 4992, Note_on_c, 1, 51, 92
6, 5152, Note_on_c, 1, 51, 0
6, 5184, Note_on_c, 1, 55, 92
6, 5328, Note_on_c, 1, 48, 0
6, 5344, Note_on_c, 1, 55, 0
6, 5376, Note_on_c, 1, 51, 92
6, 5376, Note_on_c, 1, 60, 92
6, 5536, Note_on_c, 1, 51, 0
6, 5536, Note_on_c, 1, 60, 0
6, 5568, Note_on_c, 1, 55, 92
6, 5568, Note_on_c, 1, 63, 92
6, 5728, Note_on_c, 1, 55, 0
6, 5728, Note_on_c, 1, 63, 0
6, 5760, Note_on_c, 1, 60, 92
6, 5760, Note_on_c, 1, 67, 92
6, 5920, Note_on_c, 1, 60, 0
6, 5920, Note_on_c, 1, 67, 0
6, 5952, Note_on_c, 1, 55, 92
6, 5952, Note_on_c, 1, 63, 92
6, 6096, Note_on_c, 1, 55, 0
6, 6096, Note_on_c, 1, 63, 0
6, 6096, Note_on_c, 1, 51, 92
6, 6096, Note_on_c, 1, 60, 92
6, 6142, Note_on_c, 1, 51, 0
6, 6142, Note_on_c, 1, 60, 0
6, 6144, Note_on_c, 1, 48, 92
6, 6144, Note_on_c, 1, 55, 92
6, 6304, Note_on_c, 1, 48, 0
6, 6304, Note_on_c, 1, 55, 0
6, 7056, Note_on_c, 1, 62, 92
6, 7102, Note_on_c, 1, 62, 0
6, 7104, Note_on_c, 1, 55, 92
6, 7246, Note_on_c, 1, 55, 0
6, 7248, Note_on_c, 1, 59, 92
6, 7294, Note_on_c, 1, 59, 0
6, 7296, Note_on_c, 1, 60, 92
6, 7456, Note_on_c, 1, 60, 0
6, 7824, Note_on_c, 1, 60, 92
6, 7870, Note_on_c, 1, 60, 0
6, 7872, Note_on_c, 1, 53, 92
6, 8014, Note_on_c, 1, 53, 0
6, 8016, Note_on_c, 1, 57, 92
6, 8062, Note_on_c, 1, 57, 0
6, 8064, Note_on_c, 1, 58, 92
6, 8224, Note_on_c, 1, 58, 0
6, 8448, Note_on_c, 1, 51, 92
6, 8496, Note_on_c, 1, 51, 0
6, 8496, Note_on_c, 1, 53, 92
6, 8544, Note_on_c, 1, 53, 0
6, 8544, Note_on_c, 1, 55, 92
6, 8592, Note_on_c, 1, 55, 0
6, 8592, Note_on_c, 1, 51, 92
6, 8638, Note_on_c, 1, 51, 0
6, 8640, Note_on_c, 1, 56, 92
6, 8734, Note_on_c, 1, 56, 0
6, 8736, Note_on_c, 1, 56, 92
6, 8830, Note_on_c, 1, 56, 0
6, 8832, Note_on_c, 1, 50, 92
6, 8880, Note_on_c, 1, 50, 0
6, 8880, Note_on_c, 1, 51, 92
6, 8928, Note_on_c, 1, 51, 0
6, 8928, Note_on_c, 1, 53, 92
6, 8976, Note_on_c, 1, 53, 0
6, 8976, Note_on_c, 1, 50, 92
6, 9022, Note_on_c, 1, 50, 0
6, 9024, Note_on_c, 1, 55, 92
6, 9118, Note_on_c, 1, 55, 0
6, 9120, Note_on_c, 1, 55, 92
6, 9214, Note_on_c, 1, 55, 0
6, 9216, Note_on_c, 1, 51, 92
6, 9376, Note_on_c, 1, 51, 0
6, 9408, Note_on_c, 1, 48, 92
6, 9568, Note_on_c, 1, 48, 0
6, 9600, Note_on_c, 1, 46, 92
6, 9742, Note_on_c, 1, 46, 0
6, 9744, Note_on_c, 1, 43, 92
6, 9790, Note_on_c, 1, 43, 0
6, 9792, Note_on_c, 1, 46, 92
6, 9934, Note_on_c, 1, 46, 0
6, 9936, Note_on_c, 1, 43, 92
6, 9982, Note_on_c, 1, 43, 0
6, 9984, Note_on_c, 1, 50, 92
6, 10126, Note_on_c, 1, 50, 0
6, 10128, Note_on_c, 1, 57, 92
6, 10174, Note_on_c, 1, 57, 0
6, 10176, Note_on_c, 1, 50, 92
6, 10318, Note_on_c, 1, 50, 0
6, 10320, Note_on_c, 1, 54, 92
6, 10366, Note_on_c, 1, 54, 0
6, 10368, Note_on_c, 1, 55, 92
6, 10510, Note_on_c, 1, 55, 0
6, 10512, Note_on_c, 1, 50, 92
6, 10558, Note_on_c, 1, 50, 0
6, 10560, Note_on_c, 1, 47, 92
6, 10702, Note_on_c, 1, 47, 0
6, 10704, Note_on_c, 1, 43, 92
6, 10750, Note_on_c, 1, 43, 0
6, 10752, Note_on_c, 1, 48, 92
6, 10894, Note_on_c, 1, 48, 0
6, 10896, Note_on_c, 1, 55, 92
6, 10942, Note_on_c, 1, 55, 0
6, 10944, Note_on_c, 1, 48, 92
6, 11086, Note_on_c, 1, 48, 0
6, 11088, Note_on_c, 1, 52, 92
6, 11134, Note_on_c, 1, 52, 0
6, 11136, Note_on_c, 1, 53, 92
6, 11278, Note_on_c, 1, 53, 0
6, 11280, Note_on_c, 1, 48, 92
6, 11326, Note_on_c, 1, 48, 0
6, 11328, Note_on_c, 1, 45, 92
6, 11470, Note_on_c, 1, 45, 0
6, 11472, Note_on_c, 1, 41, 92
6, 11518, Note_on_c, 1, 41, 0
6, 11520, Note_on_c, 1, 46, 92
6, 11568, Note_on_c, 1, 46, 0
6, 11568, Note_on_c, 1, 48, 92
6, 11616, Note_on_c, 1, 48, 0
6, 11616, Note_on_c, 1, 50, 92
6, 11664, Note_on_c, 1, 50, 0
6, 11664, Note_on_c, 1, 46, 92
6, 11710, Note_on_c, 1, 46, 0
6, 11712, Note_on_c, 1, 51, 92
6, 11806, Note_on_c, 1, 51, 0
6, 11808, Note_on_c, 1, 51, 92
6, 11902, Note_on_c, 1, 51, 0
6, 11904, Note_on_c, 1, 45, 92
6, 11952, Note_on_c, 1, 45, 0
6, 11952, Note_on_c, 1, 46, 92
6, 12000, Note_on_c, 1, 46, 0
6, 12000, Note_on_c, 1, 48, 92
6, 12048, Note_on_c, 1, 48, 0
6, 12048, Note_on_c, 1, 45, 92
6, 12094, Note_on_c, 1, 45, 0
6, 12096, Note_on_c, 1, 50, 92
6, 12190, Note_on_c, 1, 50, 0
6, 12192, Note_on_c, 1, 50, 92
6, 12286, Note_on_c, 1, 50, 0
6, 12288, Note_on_c, 1, 43, 92
6, 13008, Note_on_c, 1, 43, 0
6, 13056, Note_on_c, 1, 48, 92
6, 13216, Note_on_c, 1, 48, 0
6, 13248, Note_on_c, 1, 51, 92
6, 13248, Note_on_c, 1, 55, 92
6, 13390, Note_on_c, 1, 51, 0
6, 13390, Note_on_c, 1, 55, 0
6, 13392, Note_on_c, 1, 51, 92
6, 13392, Note_on_c, 1, 55, 92
6, 13438, Note_on_c, 1, 51, 0
6, 13438, Note_on_c, 1, 55, 0
6, 13440, Note_on_c, 1, 51, 92
6, 13440, Note_on_c, 1, 55, 92
6, 13600, Note_on_c, 1, 51, 0
6, 13600, Note_on_c, 1, 55, 0
6, 13632, Note_on_c, 1, 60, 92
6, 14016, Note_on_c, 1, 60, 0
6, 14016, Note_on_c, 1, 59, 92
6, 14016, Note_on_c, 1, 67, 92
6, 14176, Note_on_c, 1, 59, 0
6, 14208, Note_on_c, 1, 55, 92
6, 14352, Note_on_c, 1, 67, 0
6, 14368, Note_on_c, 1, 55, 0
6, 14400, Note_on_c, 1, 58, 92
6, 14400, Note_on_c, 1, 64, 92
6, 14560, Note_on_c, 1, 64, 0
6, 14592, Note_on_c, 1, 60, 92
6, 14784, Note_on_c, 1, 58, 0
6, 14784, Note_on_c, 1, 60, 0
6, 14784, Note_on_c, 1, 57, 92
6, 14784, Note_on_c, 1, 65, 92
6, 14944, Note_on_c, 1, 57, 0
6, 14976, Note_on_c, 1, 53, 92
6, 15120, Note_on_c, 1, 65, 0
6, 15136, Note_on_c, 1, 53, 0
6, 15168, Note_on_c, 1, 56, 92
6, 15168, Note_on_c, 1, 62, 92
6, 15328, Note_on_c, 1, 56, 0
6, 15360, Note_on_c, 1, 55, 92
6, 15520, Note_on_c, 1, 55, 0
6, 15520, Note_on_c, 1, 62, 0
6, 15552, Note_on_c, 1, 51, 92
6, 15552, Note_on_c, 1, 60, 92
6, 15646, Note_on_c, 1, 51, 0
6, 15648, Note_on_c, 1, 48, 92
6, 15742, Note_on_c, 1, 48, 0
6, 15744, Note_on_c, 1, 56, 92
6, 15888, Note_on_c, 1, 60, 0
6, 15904, Note_on_c, 1, 56, 0
6, 15936, Note_on_c, 1, 55, 92
6, 15936, Note_on_c, 1, 59, 92
6, 16288, Note_on_c, 1, 59, 0
6, 16320, Note_on_c, 1, 60, 92
6, 16414, Note_on_c, 1, 55, 0
6, 16416, Note_on_c, 1, 56, 92
6, 16510, Note_on_c, 1, 56, 0
6, 16512, Note_on_c, 1, 56, 92
6, 16656, Note_on_c, 1, 60, 0
6, 16704, Note_on_c, 1, 62, 92
6, 16798, Note_on_c, 1, 56, 0
6, 16800, Note_on_c, 1, 58, 92
6, 16864, Note_on_c, 1, 62, 0
6, 16894, Note_on_c, 1, 58, 0
6, 16896, Note_on_c, 1, 58, 92
6, 16896, Note_on_c, 1, 62, 92
6, 17056, Note_on_c, 1, 62, 0
6, 17088, Note_on_c, 1, 63, 92
6, 17184, Note_on_c, 1, 58, 0
6, 17184, Note_on_c, 1, 60, 92
6, 17278, Note_on_c, 1, 60, 0
6, 17280, Note_on_c, 1, 60, 92
6, 17424, Note_on_c, 1, 63, 0
6, 17472, Note_on_c, 1, 66, 92
6, 17568, Note_on_c, 1, 60, 0
6, 17568, Note_on_c, 1, 62, 92
6, 17632, Note_on_c, 1, 66, 0
6, 17662, Note_on_c, 1, 62, 0
6, 17664, Note_on_c, 1, 62, 92
6, 17664, Note_on_c, 1, 67, 92
6, 19152, Note_on_c, 1, 62, 0
6, 19152, Note_on_c, 1, 67, 0
6, 19200, Note_on_c, 1, 57, 92
6, 19200, Note_on_c, 1, 66, 92
6, 19294, Note_on_c, 1, 57, 0
6, 19294, Note_on_c, 1, 66, 0
6, 19296, Note_on_c, 1, 55, 92
6, 19296, Note_on_c, 1, 58, 92
6, 19392, Note_on_c, 1, 55, 0
6, 19392, Note_on_c, 1, 58, 0
6, 19392, Note_on_c, 1, 54, 92
6, 19392, Note_on_c, 1, 57, 92
6, 19488, Note_on_c, 1, 54, 0
6, 19488, Note_on_c, 1, 57, 0
6, 19488, Note_on_c, 1, 55, 92
6, 19488, Note_on_c, 1, 58, 92
6, 19582, Note_on_c, 1, 55, 0
6, 19582, Note_on_c, 1, 58, 0
6, 19584, Note_on_c, 1, 54, 92
6, 19584, Note_on_c, 1, 57, 92
6, 19678, Note_on_c, 1, 54, 0
6, 19678, Note_on_c, 1, 57, 0
6, 19680, Note_on_c, 1, 48, 92
6, 19712, Note_on_c, 1, 48, 0
6, 19776, Note_on_c, 1, 46, 92
6, 19808, Note_on_c, 1, 46, 0
6, 19872, Note_on_c, 1, 45, 92
6, 19904, Note_on_c, 1, 45, 0
6, 19968, Note_on_c, 1, 43, 92
6, 20128, Note_on_c, 1, 43, 0
6, 23904, Note_on_c, 1, 58, 60
6, 23904, Note_on_c, 1, 62, 60
6, 23972, Note_on_c, 1, 58, 0
6, 23972, Note_on_c, 1, 62, 0
6, 24000, Note_on_c, 1, 58, 60
6, 24000, Note_on_c, 1, 62, 60
6, 24068, Note_on_c, 1, 58, 0
6, 24068, Note_on_c, 1, 62, 0
6, 24096, Note_on_c, 1, 58, 60
6, 24096, Note_on_c, 1, 62, 60
6, 24164, Note_on_c, 1, 58, 0
6, 24164, Note_on_c, 1, 62, 0
6, 24192, Note_on_c, 1, 58, 60
6, 24192, Note_on_c, 1, 62, 60
6, 24260, Note_on_c, 1, 58, 0
6, 24260, Note_on_c, 1, 62, 0
6, 24288, Note_on_c, 1, 58, 60
6, 24288, Note_on_c, 1, 62, 60
6, 24356, Note_on_c, 1, 58, 0
6, 24356, Note_on_c, 1, 62, 0
6, 24384, Note_on_c, 1, 58, 60
6, 24384, Note_on_c, 1, 62, 60
6, 24452, Note_on_c, 1, 58, 0
6, 24452, Note_on_c, 1, 62, 0
6, 24480, Note_on_c, 1, 58, 60
6, 24480, Note_on_c, 1, 62, 60
6, 24512, Note_on_c, 1, 58, 0
6, 24512, Note_on_c, 1, 62, 0
6, 24576, Note_on_c, 1, 58, 60
6, 24576, Note_on_c, 1, 62, 60
6, 25296, Note_on_c, 1, 62, 0
6, 25344, Note_on_c, 1, 63, 60
6, 25504, Note_on_c, 1, 58, 0
6, 25504, Note_on_c, 1, 63, 0
6, 31488, Note_on_c, 1, 43, 45
6, 31488, Note_on_c, 1, 51, 45
6, 32256, Note_on_c, 1, 43, 0
6, 32256, Note_on_c, 1, 51, 0
6, 32256, Note_on_c, 1, 46, 45
6, 32256, Note_on_c, 1, 53, 45
6, 32976, Note_on_c, 1, 46, 0
6, 32976, Note_on_c, 1, 53, 0
6, 33024, Note_on_c, 1, 51, 45
6, 33024, Note_on_c, 1, 55, 45
6, 33120, Note_on_c, 1, 51, 0
6, 33120, Note_on_c, 1, 55, 0
6, 33120, Note_on_c, 1, 53, 45
6, 33120, Note_on_c, 1, 56, 45
6, 33214, Note_on_c, 1, 53, 0
6, 33214, Note_on_c, 1, 56, 0
6, 33216, Note_on_c, 1, 55, 45
6, 33216, Note_on_c, 1, 58, 45
6, 33376, Note_on_c, 1, 55, 0
6, 33376, Note_on_c, 1, 58, 0
6, 34560, Note_on_c, 1, 55, 45
6, 34560, Note_on_c, 1, 58, 45
6, 35280, Note_on_c, 1, 55, 0
6, 35280, Note_on_c, 1, 58, 0
6, 35328, Note_on_c, 1, 58, 45
6, 35328, Note_on_c, 1, 63, 45
6, 36048, Note_on_c, 1, 58, 0
6, 36048, Note_on_c, 1, 63, 0
6, 36096, Note_on_c, 1, 63, 60
6, 36096, Note_on_c, 1, 67, 60
6, 36816, Note_on_c, 1, 63, 0
6, 36816, Note_on_c, 1, 67, 0
6, 36864, Note_on_c, 1, 45, 92
6, 37200, Note_on_c, 1, 45, 0
6, 40128, Note_on_c, 1, 56, 92
6, 40128, Note_on_c, 1, 58, 92
6, 40464, Note_on_c, 1, 56, 0
6, 40464, Note_on_c, 1, 58, 0
6, 40512, Note_on_c, 1, 56, 92
6, 40512, Note_on_c, 1, 58, 92
6, 40672, Note_on_c, 1, 56, 0
6, 40672, Note_on_c, 1, 58, 0
6, 40704, Note_on_c, 1, 55, 92
6, 40704, Note_on_c, 1, 58, 92
6, 40864, Note_on_c, 1, 55, 0
6, 40864, Note_on_c, 1, 58, 0
6, 43776, Note_on_c, 1, 58, 45
6, 45648, Note_on_c, 1, 58, 0
6, 46944, Note_on_c, 1, 46, 60
6, 46944, Note_on_c, 1, 58, 60
6, 47012, Note_on_c, 1, 46, 0
6, 47012, Note_on_c, 1, 58, 0
6, 47040, Note_on_c, 1, 46, 60
6, 47040, Note_on_c, 1, 58, 60
6, 47108, Note_on_c, 1, 46, 0
6, 47108, Note_on_c, 1, 58, 0
6, 47136, Note_on_c, 1, 46, 60
6, 47136, Note_on_c, 1, 58, 60
6, 47168, Note_on_c, 1, 46, 0
6, 47168, Note_on_c, 1, 58, 0
6, 47232, Note_on_c, 1, 46, 60
6, 47232, Note_on_c, 1, 58, 60
6, 47710, Note_on_c, 1, 46, 0
6, 47710, Note_on_c, 1, 58, 0
6, 47712, Note_on_c, 1, 46, 60
6, 47712, Note_on_c, 1, 58, 60
6, 47780, Note_on_c, 1, 46, 0
6, 47780, Note_on_c, 1, 58, 0
6, 47808, Note_on_c, 1, 46, 60
6, 47808, Note_on_c, 1, 58, 60
6, 47876, Note_on_c, 1, 46, 0
6, 47876, Note_on_c, 1, 58, 0
6, 47904, Note_on_c, 1, 46, 60
6, 47904, Note_on_c, 1, 58, 60
6, 47936, Note_on_c, 1, 46, 0
6, 47936, Note_on_c, 1, 58, 0
6, 48000, Note_on_c, 1, 46, 60
6, 48000, Note_on_c, 1, 58, 60
6, 48478, Note_on_c, 1, 46, 0
6, 48478, Note_on_c, 1, 58, 0
6, 48480, Note_on_c, 1, 46, 60
6, 48480, Note_on_c, 1, 58, 60
6, 48548, Note_on_c, 1, 46, 0
6, 48548, Note_on_c, 1, 58, 0
6, 48576, Note_on_c, 1, 46, 60
6, 48576, Note_on_c, 1, 58, 60
6, 48644, Note_on_c, 1, 46, 0
6, 48644, Note_on_c, 1, 58, 0
6, 48672, Note_on_c, 1, 46, 60
6, 48672, Note_on_c, 1, 58, 60
6, 48704, Note_on_c, 1, 46, 0
6, 48704, Note_on_c, 1, 58, 0
6, 48768, Note_on_c, 1, 51, 45
6, 48768, Note_on_c, 1, 63, 45
6, 49152, Note_on_c, 1, 51, 0
6, 49152, Note_on_c, 1, 56, 45
6, 49246, Note_on_c, 1, 56, 0
6, 49246, Note_on_c, 1, 63, 0
6, 52224, Note_on_c, 1, 58, 45
6, 53712, Note_on_c, 1, 58, 0
6, 53760, Note_on_c, 1, 51, 92
6, 53760, Note_on_c, 1, 58, 92
6, 53920, Note_on_c, 1, 51, 0
6, 53920, Note_on_c, 1, 58, 0
6, 54672, Note_on_c, 1, 65, 92
6, 54718, Note_on_c, 1, 65, 0
6, 54720, Note_on_c, 1, 58, 92
6, 54862, Note_on_c, 1, 58, 0
6, 54864, Note_on_c, 1, 62, 92
6, 54910, Note_on_c, 1, 62, 0
6, 54912, Note_on_c, 1, 63, 92
6, 55072, Note_on_c, 1, 63, 0
6, 55440, Note_on_c, 1, 55, 92
6, 55486, Note_on_c, 1, 55, 0
6, 55488, Note_on_c, 1, 48, 92
6, 55630, Note_on_c, 1, 48, 0
6, 55632, Note_on_c, 1, 52, 92
6, 55678, Note_on_c, 1, 52, 0
6, 55680, Note_on_c, 1, 53, 92
6, 55840, Note_on_c, 1, 53, 0
6, 56208, Note_on_c, 1, 67, 92
6, 56254, Note_on_c, 1, 67, 0
6, 56256, Note_on_c, 1, 60, 92
6, 56398, Note_on_c, 1, 60, 0
6, 56400, Note_on_c, 1, 64, 92
6, 56446, Note_on_c, 1, 64, 0
6, 56448, Note_on_c, 1, 65, 92
6, 56608, Note_on_c, 1, 65, 0
6, 56976, Note_on_c, 1, 57, 92
6, 57022, Note_on_c, 1, 57, 0
6, 57024, Note_on_c, 1, 50, 92
6, 57166, Note_on_c, 1, 50, 0
6, 57168, Note_on_c, 1, 54, 92
6, 57214, Note_on_c, 1, 54, 0
6, 57216, Note_on_c, 1, 55, 92
6, 57376, Note_on_c, 1, 55, 0
6, 57408, Note_on_c, 1, 67, 92
6, 57760, Note_on_c, 1, 67, 0
6, 57792, Note_on_c, 1, 66, 92
6, 57952, Note_on_c, 1, 66, 0
6, 57984, Note_on_c, 1, 62, 92
6, 58144, Note_on_c, 1, 62, 0
6, 58176, Note_on_c, 1, 65, 92
6, 58464, Note_on_c, 1, 65, 0
6, 58464, Note_on_c, 1, 64, 92
6, 58558, Note_on_c, 1, 64, 0
6, 58560, Note_on_c, 1, 60, 92
6, 58560, Note_on_c, 1, 63, 92
6, 58702, Note_on_c, 1, 60, 0
6, 58702, Note_on_c, 1, 63, 0
6, 58704, Note_on_c, 1, 60, 92
6, 58704, Note_on_c, 1, 63, 92
6, 58750, Note_on_c, 1, 60, 0
6, 58750, Note_on_c, 1, 63, 0
6, 58752, Note_on_c, 1, 60, 92
6, 58752, Note_on_c, 1, 63, 92
6, 58912, Note_on_c, 1, 60, 0
6, 58912, Note_on_c, 1, 63, 0
6, 58944, Note_on_c, 1, 60, 92
6, 59296, Note_on_c, 1, 60, 0
6, 59328, Note_on_c, 1, 59, 92
6, 59328, Note_on_c, 1, 67, 92
6, 59488, Note_on_c, 1, 59, 0
6, 59520, Note_on_c, 1, 55, 92
6, 59664, Note_on_c, 1, 67, 0
6, 59680, Note_on_c, 1, 55, 0
6, 59712, Note_on_c, 1, 58, 92
6, 59712, Note_on_c, 1, 64, 92
6, 59872, Note_on_c, 1, 64, 0
6, 59904, Note_on_c, 1, 60, 92
6, 60096, Note_on_c, 1, 58, 0
6, 60096, Note_on_c, 1, 60, 0
6, 60096, Note_on_c, 1, 57, 92
6, 60096, Note_on_c, 1, 65, 92
6, 60256, Note_on_c, 1, 57, 0
6, 60288, Note_on_c, 1, 53, 92
6, 60432, Note_on_c, 1, 65, 0
6, 60448, Note_on_c, 1, 53, 0
6, 60480, Note_on_c, 1, 56, 92
6, 60480, Note_on_c, 1, 62, 92
6, 60640, Note_on_c, 1, 56, 0
6, 60672, Note_on_c, 1, 55, 92
6, 60832, Note_on_c, 1, 55, 0
6, 60832, Note_on_c, 1, 62, 0
6, 60864, Note_on_c, 1, 51, 92
6, 60864, Note_on_c, 1, 60, 92
6, 60958, Note_on_c, 1, 51, 0
6, 60960, Note_on_c, 1, 48, 92
6, 61054, Note_on_c, 1, 48, 0
6, 61056, Note_on_c, 1, 56, 92
6, 61200, Note_on_c, 1, 60, 0
6, 61216, Note_on_c, 1, 56, 0
6, 61248, Note_on_c, 1, 55, 92
6, 61248, Note_on_c, 1, 59, 92
6, 61632, Note_on_c, 1, 59, 0
6, 61632, Note_on_c, 1, 60, 92
6, 61726, Note_on_c, 1, 55, 0
6, 61728, Note_on_c, 1, 56, 92
6, 61822, Note_on_c, 1, 56, 0
6, 61824, Note_on_c, 1, 56, 92
6, 61968, Note_on_c, 1, 60, 0
6, 62016, Note_on_c, 1, 62, 92
6, 62110, Note_on_c, 1, 56, 0
6, 62112, Note_on_c, 1, 58, 92
6, 62206, Note_on_c, 1, 58, 0
6, 62208, Note_on_c, 1, 58, 92
6, 62368, Note_on_c, 1, 62, 0
6, 62400, Note_on_c, 1, 63, 92
6, 62494, Note_on_c, 1, 58, 0
6, 62496, Note_on_c, 1, 60, 92
6, 62590, Note_on_c, 1, 60, 0
6, 62592, Note_on_c, 1, 60, 92
6, 62736, Note_on_c, 1, 63, 0
6, 62784, Note_on_c, 1, 65, 92
6, 62878, Note_on_c, 1, 60, 0
6, 62880, Note_on_c, 1, 61, 92
6, 62974, Note_on_c, 1, 61, 0
6, 62976, Note_on_c, 1, 61, 92
6, 63136, Note_on_c, 1, 65, 0
6, 63168, Note_on_c, 1, 67, 92
6, 63262, Note_on_c, 1, 61, 0
6, 63264, Note_on_c, 1, 63, 92
6, 63328, Note_on_c, 1, 67, 0
6, 63358, Note_on_c, 1, 63, 0
6, 63360, Note_on_c, 1, 60, 92
6, 63360, Note_on_c, 1, 63, 92
6, 63744, Note_on_c, 1, 60, 0
6, 63744, Note_on_c, 1, 55, 92
6, 64080, Note_on_c, 1, 55, 0
6, 64128, Note_on_c, 1, 57, 92
6, 64464, Note_on_c, 1, 63, 0
6, 64464, Note_on_c, 1, 57, 0
6, 64512, Note_on_c, 1, 59, 92
6, 64512, Note_on_c, 1, 62, 92
6, 64606, Note_on_c, 1, 59, 0
6, 64606, Note_on_c, 1, 62, 0
6, 64608, Note_on_c, 1, 51, 92
6, 64608, Note_on_c, 1, 60, 92
6, 64704, Note_on_c, 1, 51, 0
6, 64704, Note_on_c, 1, 60, 0
6, 64704, Note_on_c, 1, 50, 92
6, 64704, Note_on_c, 1, 59, 92
6, 64800, Note_on_c, 1, 50, 0
6, 64800, Note_on_c, 1, 59, 0
6, 64800, Note_on_c, 1, 51, 92
6, 64800, Note_on_c, 1, 60, 92
6, 64894, Note_on_c, 1, 51, 0
6, 64894, Note_on_c, 1, 60, 0
6, 64896, Note_on_c, 1, 50, 92
6, 64896, Note_on_c, 1, 59, 92
6, 64990, Note_on_c, 1, 50, 0
6, 64990, Note_on_c, 1, 59, 0
6, 64992, Note_on_c, 1, 53, 92
6, 65024, Note_on_c, 1, 53, 0
6, 65088, Note_on_c, 1, 51, 92
6, 65120, Note_on_c, 1, 51, 0
6, 65184, Note_on_c, 1, 50, 92
6, 65216, Note_on_c, 1, 50, 0
6, 65280, Note_on_c, 1, 48, 92
6, 65440, Note_on_c, 1, 48, 0
6, 70656, Note_on_c, 1, 51, 30
6, 70656, Note_on_c, 1, 60, 30
6, 71760, Note_on_c, 1, 51, 0
6, 71760, Note_on_c, 1, 60, 0
6, 71760, End_track
7, 0, Start_track
7, 0, MIDI_port, 0
7, 0, Title_t, "Corni in C"
7, 0, Program_c, 2, 60
7, 0, Control_c, 2, 7, 127
7, 0, Control_c, 2, 10, 64
7, 2304, Note_on_c, 2, 72, 60
7, 2640, Note_on_c, 2, 72, 0
7, 2688, Note_on_c, 2, 72, 60
7, 2848, Note_on_c, 2, 72, 0
7, 2880, Note_on_c, 2, 72, 60
7, 3040, Note_on_c, 2, 72, 0
7, 3072, Note_on_c, 2, 72, 60
7, 3232, Note_on_c, 2, 72, 0
7, 3264, Note_on_c, 2, 67, 60
7, 3424, Note_on_c, 2, 67, 0
7, 3456, Note_on_c, 2, 67, 60
7, 3616, Note_on_c, 2, 67, 0
7, 3648, Note_on_c, 2, 67, 60
7, 3808, Note_on_c, 2, 67, 0
7, 3840, Note_on_c, 2, 60, 60
7, 4000, Note_on_c, 2, 60, 0
7, 6144, Note_on_c, 2, 60, 92
7, 6144, Note_on_c, 2, 72, 92
7, 6304, Note_on_c, 2, 60, 0
7, 6304, Note_on_c, 2, 72, 0
7, 9216, Note_on_c, 2, 67, 92
7, 9216, Note_on_c, 2, 79, 92
7, 9552, Note_on_c, 2, 67, 0
7, 9552, Note_on_c, 2, 79, 0
7, 9600, Note_on_c, 2, 67, 92
7, 9600, Note_on_c, 2, 79, 92
7, 9936, Note_on_c, 2, 67, 0
7, 9936, Note_on_c, 2, 79, 0
7, 9984, Note_on_c, 2, 74, 92
7, 10144, Note_on_c, 2, 74, 0
7, 10368, Note_on_c, 2, 67, 92
7, 10368, Note_on_c, 2, 74, 92
7, 10528, Note_on_c, 2, 67, 0
7, 10528, Note_on_c, 2, 74, 0
7, 10752, Note_on_c, 2, 60, 92
7, 10752, Note_on_c, 2, 72, 92
7, 10912, Note_on_c, 2, 60, 0
7, 10912, Note_on_c, 2, 72, 0
7, 11136, Note_on_c, 2, 60, 92
7, 11136, Note_on_c, 2, 72, 92
7, 11296, Note_on_c, 2, 60, 0
7, 11296, Note_on_c, 2, 72, 0
7, 12288, Note_on_c, 2, 67, 92
7, 12448, Note_on_c, 2, 67, 0
7, 12480, Note_on_c, 2, 67, 92
7, 12640, Note_on_c, 2, 67, 0
7, 12672, Note_on_c, 2, 67, 92
7, 12766, Note_on_c, 2, 67, 0
7, 12768, Note_on_c, 2, 67, 92
7, 12862, Note_on_c, 2, 67, 0
7, 12864, Note_on_c, 2, 67, 92
7, 12958, Note_on_c, 2, 67, 0
7, 12960, Note_on_c, 2, 67, 92
7, 13054, Note_on_c, 2, 67, 0
7, 13056, Note_on_c, 2, 60, 92
7, 13056, Note_on_c, 2, 67, 92
7, 13216, Note_on_c, 2, 60, 0
7, 13216, Note_on_c, 2, 67, 0
7, 13248, Note_on_c, 2, 60, 92
7, 13248, Note_on_c, 2, 67, 92
7, 13390, Note_on_c, 2, 60, 0
7, 13390, Note_on_c, 2, 67, 0
7, 13392, Note_on_c, 2, 60, 92
7, 13392, Note_on_c, 2, 67, 92
7, 13438, Note_on_c, 2, 60, 0
7, 13438, Note_on_c, 2, 67, 0
7, 13440, Note_on_c, 2, 60, 92
7, 13440, Note_on_c, 2, 67, 92
7, 13600, Note_on_c, 2, 60, 0
7, 13600, Note_on_c, 2, 67, 0
7, 17664, Note_on_c, 2, 67, 92
7, 17664, Note_on_c, 2, 74, 92
7, 18000, Note_on_c, 2, 67, 0
7, 18000, Note_on_c, 2, 74, 0
7, 18048, Note_on_c, 2, 67, 92
7, 18048, Note_on_c, 2, 74, 92
7, 18384, Note_on_c, 2, 67, 0
7, 18384, Note_on_c, 2, 74, 0
7, 18432, Note_on_c, 2, 67, 92
7, 18432, Note_on_c, 2, 79, 92
7, 18768, Note_on_c, 2, 67, 0
7, 18768, Note_on_c, 2, 79, 0
7, 18816, Note_on_c, 2, 67, 92
7, 18816, Note_on_c, 2, 76, 92
7, 19152, Note_on_c, 2, 67, 0
7, 19152, Note_on_c, 2, 76, 0
7, 19200, Note_on_c, 2, 74, 92
7, 19360, Note_on_c, 2, 74, 0
7, 19392, Note_on_c, 2, 74, 92
7, 19534, Note_on_c, 2, 74, 0
7, 19536, Note_on_c, 2, 74, 92
7, 19582, Note_on_c, 2, 74, 0
7, 19584, Note_on_c, 2, 74, 92
7, 19744, Note_on_c, 2, 74, 0
7, 22272, Note_on_c, 2, 67, 60
7, 22272, Note_on_c, 2, 79, 60
7, 22608, Note_on_c, 2, 67, 0
7, 22608, Note_on_c, 2, 79, 0
7, 22656, Note_on_c, 2, 67, 60
7, 22656, Note_on_c, 2, 79, 60
7, 22816, Note_on_c, 2, 67, 0
7, 22816, Note_on_c, 2, 79, 0
7, 22848, Note_on_c, 2, 67, 60
7, 22848, Note_on_c, 2, 79, 60
7, 23008, Note_on_c, 2, 67, 0
7, 23008, Note_on_c, 2, 79, 0
7, 23040, Note_on_c, 2, 67, 60
7, 23040, Note_on_c, 2, 79, 60
7, 23200, Note_on_c, 2, 67, 0
7, 23200, Note_on_c, 2, 79, 0
7, 23232, Note_on_c, 2, 74, 60
7, 23392, Note_on_c, 2, 74, 0
7, 23424, Note_on_c, 2, 74, 60
7, 23584, Note_on_c, 2, 74, 0
7, 23616, Note_on_c, 2, 74, 60
7, 23776, Note_on_c, 2, 74, 0
7, 23808, Note_on_c, 2, 67, 60
7, 23808, Note_on_c, 2, 74, 60
7, 23876, Note_on_c, 2, 67, 0
7, 23876, Note_on_c, 2, 74, 0
7, 23904, Note_on_c, 2, 67, 60
7, 23904, Note_on_c, 2, 74, 60
7, 23972, Note_on_c, 2, 67, 0
7, 23972, Note_on_c, 2, 74, 0
7, 24000, Note_on_c, 2, 67, 60
7, 24000, Note_on_c, 2, 74, 60
7, 24068, Note_on_c, 2, 67, 0
7, 24068, Note_on_c, 2, 74, 0
7, 24096, Note_on_c, 2, 67, 60
7, 24096, Note_on_c, 2, 74, 60
7, 24164, Note_on_c, 2, 67, 0
7, 24164, Note_on_c, 2, 74, 0
7, 24192, Note_on_c, 2, 67, 60
7, 24192, Note_on_c, 2, 74, 60
7, 24260, Note_on_c, 2, 67, 0
7, 24260, Note_on_c, 2, 74, 0
7, 24288, Note_on_c, 2, 67, 60
7, 24288, Note_on_c, 2, 74, 60
7, 24356, Note_on_c, 2, 67, 0
7, 24356, Note_on_c, 2, 74, 0
7, 24384, Note_on_c, 2, 67, 60
7, 24384, Note_on_c, 2, 74, 60
7, 24452, Note_on_c, 2, 67, 0
7, 24452, Note_on_c, 2, 74, 0
7, 24480, Note_on_c, 2, 67, 60
7, 24480, Note_on_c, 2, 74, 60
7, 24512, Note_on_c, 2, 67, 0
7, 24512, Note_on_c, 2, 74, 0
7, 58368, Note_on_c, 2, 60, 92
7, 58368, Note_on_c, 2, 67, 92
7, 58528, Note_on_c, 2, 60, 0
7, 58528, Note_on_c, 2, 67, 0
7, 58560, Note_on_c, 2, 60, 92
7, 58560, Note_on_c, 2, 67, 92
7, 58702, Note_on_c, 2, 60, 0
7, 58702, Note_on_c, 2, 67, 0
7, 58704, Note_on_c, 2, 60, 92
7, 58704, Note_on_c, 2, 67, 92
7, 58750, Note_on_c, 2, 60, 0
7, 58750, Note_on_c, 2, 67, 0
7, 58752, Note_on_c, 2, 60, 92
7, 58752, Note_on_c, 2, 67, 92
7, 58912, Note_on_c, 2, 60, 0
7, 58912, Note_on_c, 2, 67, 0
7, 63360, Note_on_c, 2, 60, 92
7, 63360, Note_on_c, 2, 72, 92
7, 63696, Note_on_c, 2, 60, 0
7, 63696, Note_on_c, 2, 72, 0
7, 63744, Note_on_c, 2, 60, 92
7, 63744, Note_on_c, 2, 72, 92
7, 64080, Note_on_c, 2, 60, 0
7, 64080, Note_on_c, 2, 72, 0
7, 64128, Note_on_c, 2, 60, 92
7, 64128, Note_on_c, 2, 72, 92
7, 64464, Note_on_c, 2, 60, 0
7, 64464, Note_on_c, 2, 72, 0
7, 64512, Note_on_c, 2, 67, 92
7, 64672, Note_on_c, 2, 67, 0
7, 64704, Note_on_c, 2, 67, 92
7, 64846, Note_on_c, 2, 67, 0
7, 64848, Note_on_c, 2, 67, 92
7, 64894, Note_on_c, 2, 67, 0
7, 64896, Note_on_c, 2, 67, 92
7, 64990, Note_on_c, 2, 67, 0
7, 64992, Note_on_c, 2, 67, 92
7, 65086, Note_on_c, 2, 67, 0
7, 65088, Note_on_c, 2, 67, 92
7, 65182, Note_on_c, 2, 67, 0
7, 65184, Note_on_c, 2, 67, 92
7, 65278, Note_on_c, 2, 67, 0
7, 65280, Note_on_c, 2, 60, 92
7, 65440, Note_on_c, 2, 60, 0
7, 67584, Note_on_c, 2, 72, 60
7, 67920, Note_on_c, 2, 72, 0
7, 67968, Note_on_c, 2, 72, 60
7, 68128, Note_on_c, 2, 72, 0
7, 68160, Note_on_c, 2, 72, 60
7, 68320, Note_on_c, 2, 72, 0
7, 68352, Note_on_c, 2, 72, 60
7, 68512, Note_on_c, 2, 72, 0
7, 68544, Note_on_c, 2, 67, 60
7, 68704, Note_on_c, 2, 67, 0
7, 68736, Note_on_c, 2, 67, 60
7, 68896, Note_on_c, 2, 67, 0
7, 68928, Note_on_c, 2, 67, 60
7, 69088, Note_on_c, 2, 67, 0
7, 69120, Note_on_c, 2, 60, 60
7, 69280, Note_on_c, 2, 60, 0
7, 70656, Note_on_c, 2, 60, 30
7, 70656, Note_on_c, 2, 67, 30
7, 71760, Note_on_c, 2, 60, 0
7, 71760, Note_on_c, 2, 67, 0
7, 71760, End_track
8, 0, Start_track
8, 0, MIDI_port, 0
8, 0, Title_t, "Trombe in C"
8, 0, Program_c, 3, 56
8, 0, Control_c, 3, 7, 127
8, 0, Control_c, 3, 10, 64
8, 6144, Note_on_c, 3, 60, 92
8, 6144, Note_on_c, 3, 72, 92
8, 6304, Note_on_c, 3, 60, 0
8, 6304, Note_on_c, 3, 72, 0
8, 9216, Note_on_c, 3, 60, 92
8, 9216, Note_on_c, 3, 72, 92
8, 9376, Note_on_c, 3, 60, 0
8, 9376, Note_on_c, 3, 72, 0
8, 9600, Note_on_c, 3, 67, 92
8, 9600, Note_on_c, 3, 74, 92
8, 9760, Note_on_c, 3, 67, 0
8, 9760, Note_on_c, 3, 74, 0
8, 12288, Note_on_c, 3, 67, 92
8, 12448, Note_on_c, 3, 67, 0
8, 12480, Note_on_c, 3, 67, 92
8, 12622, Note_on_c, 3, 67, 0
8, 12624, Note_on_c, 3, 67, 92
8, 12670, Note_on_c, 3, 67, 0
8, 12672, Note_on_c, 3, 67, 92
8, 12832, Note_on_c, 3, 67, 0
8, 12864, Note_on_c, 3, 67, 92
8, 13024, Note_on_c, 3, 67, 0
8, 13056, Note_on_c, 3, 60, 92
8, 13056, Note_on_c, 3, 67, 92
8, 13216, Note_on_c, 3, 60, 0
8, 13216, Note_on_c, 3, 67, 0
8, 13248, Note_on_c, 3, 60, 92
8, 13248, Note_on_c, 3, 67, 92
8, 13390, Note_on_c, 3, 60, 0
8, 13390, Note_on_c, 3, 67, 0
8, 13392, Note_on_c, 3, 60, 92
8, 13392, Note_on_c, 3, 67, 92
8, 13438, Note_on_c, 3, 60, 0
8, 13438, Note_on_c, 3, 67, 0
8, 13440, Note_on_c, 3, 60, 92
8, 13440, Note_on_c, 3, 67, 92
8, 13600, Note_on_c, 3, 60, 0
8, 13600, Note_on_c, 3, 67, 0
8, 17664, Note_on_c, 3, 67, 92
8, 17664, Note_on_c, 3, 74, 92
8, 17824, Note_on_c, 3, 67, 0
8, 17824, Note_on_c, 3, 74, 0
8, 18048, Note_on_c, 3, 67, 92
8, 18048, Note_on_c, 3, 74, 92
8, 18208, Note_on_c, 3, 67, 0
8, 18208, Note_on_c, 3, 74, 0
8, 18432, Note_on_c, 3, 67, 92
8, 18432, Note_on_c, 3, 79, 92
8, 18592, Note_on_c, 3, 67, 0
8, 18592, Note_on_c, 3, 79, 0
8, 18816, Note_on_c, 3, 67, 92
8, 18816, Note_on_c, 3, 79, 92
8, 18976, Note_on_c, 3, 67, 0
8, 18976, Note_on_c, 3, 79, 0
8, 19200, Note_on_c, 3, 74, 92
8, 19360, Note_on_c, 3, 74, 0
8, 19392, Note_on_c, 3, 74, 92
8, 19552, Note_on_c, 3, 74, 0
8, 19584, Note_on_c, 3, 74, 92
8, 19744, Note_on_c, 3, 74, 0
8, 58368, Note_on_c, 3, 60, 92
8, 58368, Note_on_c, 3, 67, 92
8, 58528, Note_on_c, 3, 60, 0
8, 58528, Note_on_c, 3, 67, 0
8, 58560, Note_on_c, 3, 60, 92
8, 58560, Note_on_c, 3, 67, 92
8, 58702, Note_on_c, 3, 60, 0
8, 58702, Note_on_c, 3, 67, 0
8, 58704, Note_on_c, 3, 60, 92
8, 58704, Note_on_c, 3, 67, 92
8, 58750, Note_on_c, 3, 60, 0
8, 58750, Note_on_c, 3, 67, 0
8, 58752, Note_on_c, 3, 60, 92
8, 58752, Note_on_c, 3, 67, 92
8, 58912, Note_on_c, 3, 60, 0
8, 58912, Note_on_c, 3, 67, 0
8, 63360, Note_on_c, 3, 60, 92
8, 63360, Note_on_c, 3, 72, 92
8, 63520, Note_on_c, 3, 60, 0
8, 63520, Note_on_c, 3, 72, 0
8, 63744, Note_on_c, 3, 60, 92
8, 63744, Note_on_c, 3, 72, 92
8, 63904, Note_on_c, 3, 60, 0
8, 63904, Note_on_c, 3, 72, 0
8, 64128, Note_on_c, 3, 60, 92
8, 64128, Note_on_c, 3, 72, 92
8, 64288, Note_on_c, 3, 60, 0
8, 64288, Note_on_c, 3, 72, 0
8, 64320, Note_on_c, 3, 60, 92
8, 64320, Note_on_c, 3, 72, 92
8, 64480, Note_on_c, 3, 60, 0
8, 64480, Note_on_c, 3, 72, 0
8, 64512, Note_on_c, 3, 67, 92
8, 64672, Note_on_c, 3, 67, 0
8, 64704, Note_on_c, 3, 67, 92
8, 64846, Note_on_c, 3, 67, 0
8, 64848, Note_on_c, 3, 67, 92
8, 64894, Note_on_c, 3, 67, 0
8, 64896, Note_on_c, 3, 67, 92
8, 64990, Note_on_c, 3, 67, 0
8, 64992, Note_on_c, 3, 67, 92
8, 65086, Note_on_c, 3, 67, 0
8, 65088, Note_on_c, 3, 67, 92
8, 65182, Note_on_c, 3, 67, 0
8, 65184, Note_on_c, 3, 67, 92
8, 65278, Note_on_c, 3, 67, 0
8, 65280, Note_on_c, 3, 60, 92
8, 65440, Note_on_c, 3, 60, 0
8, 70656, Note_on_c, 3, 60, 30
8, 70656, Note_on_c, 3, 72, 30
8, 71760, Note_on_c, 3, 60, 0
8, 71760, Note_on_c, 3, 72, 0
8, 71760, End_track
9, 0, Start_track
9, 0, MIDI_port, 0
9, 0, Title_t, "Trombone I"
9, 0, Program_c, 4, 57
9, 0, Control_c, 4, 7, 127
9, 0, Control_c, 4, 10, 64
9, 3840, Note_on_c, 4, 60, 92
9, 4174, Note_on_c, 4, 60, 0
9, 4176, Note_on_c, 4, 60, 92
9, 4222, Note_on_c, 4, 60, 0
9, 4224, Note_on_c, 4, 63, 92
9, 4384, Note_on_c, 4, 63, 0
9, 4416, Note_on_c, 4, 67, 92
9, 4576, Note_on_c, 4, 67, 0
9, 4608, Note_on_c, 4, 72, 92
9, 4768, Note_on_c, 4, 72, 0
9, 4800, Note_on_c, 4, 75, 92
9, 4960, Note_on_c, 4, 75, 0
9, 4992, Note_on_c, 4, 79, 92
9, 5152, Note_on_c, 4, 79, 0
9, 5184, Note_on_c, 4, 75, 92
9, 5344, Note_on_c, 4, 75, 0
9, 5376, Note_on_c, 4, 72, 92
9, 5536, Note_on_c, 4, 72, 0
9, 5568, Note_on_c, 4, 67, 92
9, 5728, Note_on_c, 4, 67, 0
9, 5760, Note_on_c, 4, 63, 92
9, 5920, Note_on_c, 4, 63, 0
9, 5952, Note_on_c, 4, 67, 92
9, 6112, Note_on_c, 4, 67, 0
9, 6144, Note_on_c, 4, 72, 92
9, 6304, Note_on_c, 4, 72, 0
9, 6528, Note_on_c, 4, 72, 92
9, 7072, Note_on_c, 4, 72, 0
9, 7104, Note_on_c, 4, 71, 92
9, 7264, Note_on_c, 4, 71, 0
9, 7296, Note_on_c, 4, 67, 92
9, 7456, Note_on_c, 4, 67, 0
9, 7488, Note_on_c, 4, 70, 92
9, 7648, Note_on_c, 4, 70, 0
9, 7680, Note_on_c, 4, 70, 92
9, 7840, Note_on_c, 4, 70, 0
9, 7872, Note_on_c, 4, 69, 92
9, 8032, Note_on_c, 4, 69, 0
9, 8064, Note_on_c, 4, 65, 92
9, 8224, Note_on_c, 4, 65, 0
9, 8256, Note_on_c, 4, 68, 92
9, 8416, Note_on_c, 4, 68, 0
9, 8448, Note_on_c, 4, 67, 92
9, 8608, Note_on_c, 4, 67, 0
9, 8640, Note_on_c, 4, 72, 92
9, 8976, Note_on_c, 4, 72, 0
9, 9024, Note_on_c, 4, 71, 92
9, 9184, Note_on_c, 4, 71, 0
9, 9216, Note_on_c, 4, 72, 92
9, 9310, Note_on_c, 4, 72, 0
9, 9312, Note_on_c, 4, 79, 92
9, 9472, Note_on_c, 4, 79, 0
9, 9504, Note_on_c, 4, 79, 92
9, 9598, Note_on_c, 4, 79, 0
9, 9600, Note_on_c, 4, 79, 92
9, 9696, Note_on_c, 4, 79, 0
9, 9696, Note_on_c, 4, 74, 92
9, 9790, Note_on_c, 4, 74, 0
9, 9792, Note_on_c, 4, 74, 92
9, 9888, Note_on_c, 4, 74, 0
9, 9888, Note_on_c, 4, 70, 92
9, 9982, Note_on_c, 4, 70, 0
9, 9984, Note_on_c, 4, 69, 92
9, 10032, Note_on_c, 4, 69, 0
9, 10032, Note_on_c, 4, 71, 92
9, 10080, Note_on_c, 4, 71, 0
9, 10080, Note_on_c, 4, 72, 92
9, 10128, Note_on_c, 4, 72, 0
9, 10128, Note_on_c, 4, 71, 92
9, 10174, Note_on_c, 4, 71, 0
9, 10176, Note_on_c, 4, 72, 92
9, 10270, Note_on_c, 4, 72, 0
9, 10272, Note_on_c, 4, 72, 92
9, 10366, Note_on_c, 4, 72, 0
9, 10368, Note_on_c, 4, 72, 92
9, 10464, Note_on_c, 4, 72, 0
9, 10464, Note_on_c, 4, 71, 92
9, 10558, Note_on_c, 4, 71, 0
9, 10560, Note_on_c, 4, 67, 92
9, 10654, Note_on_c, 4, 67, 0
9, 10656, Note_on_c, 4, 67, 92
9, 10750, Note_on_c, 4, 67, 0
9, 10752, Note_on_c, 4, 67, 92
9, 10798, Note_on_c, 4, 67, 0
9, 10800, Note_on_c, 4, 69, 92
9, 10846, Note_on_c, 4, 69, 0
9, 10848, Note_on_c, 4, 70, 92
9, 10894, Note_on_c, 4, 70, 0
9, 10896, Note_on_c, 4, 69, 92
9, 10942, Note_on_c, 4, 69, 0
9, 10944, Note_on_c, 4, 70, 92
9, 11038, Note_on_c, 4, 70, 0
9, 11040, Note_on_c, 4, 70, 92
9, 11134, Note_on_c, 4, 70, 0
9, 11136, Note_on_c, 4, 70, 92
9, 11230, Note_on_c, 4, 70, 0
9, 11232, Note_on_c, 4, 69, 92
9, 11326, Note_on_c, 4, 69, 0
9, 11328, Note_on_c, 4, 65, 92
9, 11488, Note_on_c, 4, 65, 0
9, 11616, Note_on_c, 4, 74, 92
9, 11710, Note_on_c, 4, 74, 0
9, 11712, Note_on_c, 4, 70, 92
9, 11806, Note_on_c, 4, 70, 0
9, 11808, Note_on_c, 4, 75, 92
9, 11902, Note_on_c, 4, 75, 0
9, 12000, Note_on_c, 4, 72, 92
9, 12094, Note_on_c, 4, 72, 0
9, 12096, Note_on_c, 4, 69, 92
9, 12192, Note_on_c, 4, 69, 0
9, 12192, Note_on_c, 4, 74, 92
9, 12286, Note_on_c, 4, 74, 0
9, 12288, Note_on_c, 4, 71, 92
9, 12382, Note_on_c, 4, 71, 0
9, 12384, Note_on_c, 4, 67, 92
9, 12478, Note_on_c, 4, 67, 0
9, 12480, Note_on_c, 4, 72, 92
9, 12526, Note_on_c, 4, 72, 0
9, 12528, Note_on_c, 4, 74, 92
9, 12574, Note_on_c, 4, 74, 0
9, 12576, Note_on_c, 4, 75, 92
9, 12622, Note_on_c, 4, 75, 0
9, 12624, Note_on_c, 4, 72, 92
9, 12670, Note_on_c, 4, 72, 0
9, 12672, Note_on_c, 4, 77, 92
9, 13008, Note_on_c, 4, 77, 0
9, 13056, Note_on_c, 4, 75, 92
9, 13216, Note_on_c, 4, 75, 0
9, 13632, Note_on_c, 4, 67, 92
9, 13792, Note_on_c, 4, 67, 0
9, 13824, Note_on_c, 4, 77, 92
9, 14016, Note_on_c, 4, 77, 0
9, 14016, Note_on_c, 4, 74, 92
9, 14176, Note_on_c, 4, 74, 0
9, 14208, Note_on_c, 4, 79, 92
9, 14368, Note_on_c, 4, 79, 0
9, 14400, Note_on_c, 4, 67, 92
9, 14560, Note_on_c, 4, 67, 0
9, 14592, Note_on_c, 4, 75, 92
9, 14784, Note_on_c, 4, 75, 0
9, 14784, Note_on_c, 4, 72, 92
9, 14944, Note_on_c, 4, 72, 0
9, 14976, Note_on_c, 4, 77, 92
9, 15136, Note_on_c, 4, 77, 0
9, 15168, Note_on_c, 4, 65, 92
9, 15328, Note_on_c, 4, 65, 0
9, 15360, Note_on_c, 4, 63, 92
9, 15696, Note_on_c, 4, 63, 0
9, 15744, Note_on_c, 4, 62, 92
9, 16288, Note_on_c, 4, 62, 0
9, 16320, Note_on_c, 4, 60, 92
9, 16414, Note_on_c, 4, 60, 0
9, 16416, Note_on_c, 4, 67, 92
9, 16510, Note_on_c, 4, 67, 0
9, 16512, Note_on_c, 4, 65, 92
9, 17056, Note_on_c, 4, 65, 0
9, 17088, Note_on_c, 4, 63, 92
9, 17182, Note_on_c, 4, 63, 0
9, 17184, Note_on_c, 4, 70, 92
9, 17278, Note_on_c, 4, 70, 0
9, 17280, Note_on_c, 4, 69, 92
9, 17568, Note_on_c, 4, 69, 0
9, 17568, Note_on_c, 4, 72, 92
9, 17662, Note_on_c, 4, 72, 0
9, 17664, Note_on_c, 4, 70, 92
9, 17824, Note_on_c, 4, 70, 0
9, 17856, Note_on_c, 4, 70, 92
9, 17904, Note_on_c, 4, 70, 0
9, 17904, Note_on_c, 4, 72, 92
9, 17952, Note_on_c, 4, 72, 0
9, 17952, Note_on_c, 4, 74, 92
9, 18000, Note_on_c, 4, 74, 0
9, 18000, Note_on_c, 4, 70, 92
9, 18046, Note_on_c, 4, 70, 0
9, 18048, Note_on_c, 4, 79, 92
9, 18208, Note_on_c, 4, 79, 0
9, 18240, Note_on_c, 4, 67, 92
9, 18288, Note_on_c, 4, 67, 0
9, 18288, Note_on_c, 4, 69, 92
9, 18336, Note_on_c, 4, 69, 0
9, 18336, Note_on_c, 4, 70, 92
9, 18384, Note_on_c, 4, 70, 0
9, 18384, Note_on_c, 4, 67, 92
9, 18430, Note_on_c, 4, 67, 0
9, 18432, Note_on_c, 4, 79, 92
9, 18592, Note_on_c, 4, 79, 0
9, 18624, Note_on_c, 4, 67, 92
9, 18672, Note_on_c, 4, 67, 0
9, 18672, Note_on_c, 4, 69, 92
9, 18720, Note_on_c, 4, 69, 0
9, 18720, Note_on_c, 4, 70, 92
9, 18768, Note_on_c, 4, 70, 0
9, 18768, Note_on_c, 4, 67, 92
9, 18814, Note_on_c, 4, 67, 0
9, 18816, Note_on_c, 4, 79, 92
9, 18976, Note_on_c, 4, 79, 0
9, 19008, Note_on_c, 4, 67, 92
9, 19056, Note_on_c, 4, 67, 0
9, 19056, Note_on_c, 4, 69, 92
9, 19104, Note_on_c, 4, 69, 0
9, 19104, Note_on_c, 4, 70, 92
9, 19152, Note_on_c, 4, 70, 0
9, 19152, Note_on_c, 4, 67, 92
9, 19198, Note_on_c, 4, 67, 0
9, 19200, Note_on_c, 4, 74, 92
9, 19360, Note_on_c, 4, 74, 0
9, 54144, Note_on_c, 4, 75, 92
9, 54688, Note_on_c, 4, 75, 0
9, 54720, Note_on_c, 4, 74, 92
9, 54880, Note_on_c, 4, 74, 0
9, 54912, Note_on_c, 4, 70, 92
9, 55072, Note_on_c, 4, 70, 0
9, 55104, Note_on_c, 4, 73, 92
9, 55264, Note_on_c, 4, 73, 0
9, 55296, Note_on_c, 4, 73, 92
9, 55456, Note_on_c, 4, 73, 0
9, 55488, Note_on_c, 4, 72, 92
9, 55824, Note_on_c, 4, 72, 0
9, 55872, Note_on_c, 4, 77, 92
9, 56224, Note_on_c, 4, 77, 0
9, 56256, Note_on_c, 4, 76, 92
9, 56416, Note_on_c, 4, 76, 0
9, 56448, Note_on_c, 4, 72, 92
9, 56608, Note_on_c, 4, 72, 0
9, 56640, Note_on_c, 4, 75, 92
9, 56800, Note_on_c, 4, 75, 0
9, 56832, Note_on_c, 4, 75, 92
9, 56992, Note_on_c, 4, 75, 0
9, 57024, Note_on_c, 4, 74, 92
9, 57360, Note_on_c, 4, 74, 0
9, 57408, Note_on_c, 4, 74, 92
9, 57568, Note_on_c, 4, 74, 0
9, 57600, Note_on_c, 4, 74, 92
9, 57936, Note_on_c, 4, 74, 0
9, 57984, Note_on_c, 4, 74, 92
9, 58144, Note_on_c, 4, 74, 0
9, 58176, Note_on_c, 4, 74, 92
9, 58336, Note_on_c, 4, 74, 0
9, 58368, Note_on_c, 4, 74, 92
9, 58464, Note_on_c, 4, 74, 0
9, 58464, Note_on_c, 4, 72, 92
9, 58558, Note_on_c, 4, 72, 0
9, 58560, Note_on_c, 4, 72, 92
9, 58896, Note_on_c, 4, 72, 0
9, 58944, Note_on_c, 4, 67, 92
9, 59104, Note_on_c, 4, 67, 0
9, 59136, Note_on_c, 4, 77, 92
9, 59296, Note_on_c, 4, 77, 0
9, 59328, Note_on_c, 4, 74, 92
9, 59488, Note_on_c, 4, 74, 0
9, 59520, Note_on_c, 4, 79, 92
9, 59680, Note_on_c, 4, 79, 0
9, 59712, Note_on_c, 4, 67, 92
9, 59872, Note_on_c, 4, 67, 0
9, 59904, Note_on_c, 4, 75, 92
9, 60064, Note_on_c, 4, 75, 0
9, 60096, Note_on_c, 4, 72, 92
9, 60256, Note_on_c, 4, 72, 0
9, 60288, Note_on_c, 4, 77, 92
9, 60448, Note_on_c, 4, 77, 0
9, 60480, Note_on_c, 4, 65, 92
9, 60640, Note_on_c, 4, 65, 0
9, 60672, Note_on_c, 4, 63, 92
9, 61008, Note_on_c, 4, 63, 0
9, 61056, Note_on_c, 4, 62, 92
9, 61600, Note_on_c, 4, 62, 0
9, 61632, Note_on_c, 4, 60, 92
9, 61726, Note_on_c, 4, 60, 0
9, 61728, Note_on_c, 4, 67, 92
9, 61822, Note_on_c, 4, 67, 0
9, 61824, Note_on_c, 4, 65, 92
9, 62368, Note_on_c, 4, 65, 0
9, 62400, Note_on_c, 4, 63, 92
9, 62494, Note_on_c, 4, 63, 0
9, 62496, Note_on_c, 4, 70, 92
9, 62590, Note_on_c, 4, 70, 0
9, 62592, Note_on_c, 4, 68, 92
9, 63136, Note_on_c, 4, 68, 0
9, 63168, Note_on_c, 4, 67, 92
9, 63264, Note_on_c, 4, 67, 0
9, 63264, Note_on_c, 4, 73, 92
9, 63358, Note_on_c, 4, 73, 0
9, 63360, Note_on_c, 4, 72, 92
9, 63520, Note_on_c, 4, 72, 0
9, 63552, Note_on_c, 4, 72, 92
9, 63600, Note_on_c, 4, 72, 0
9, 63600, Note_on_c, 4, 74, 92
9, 63648, Note_on_c, 4, 74, 0
9, 63648, Note_on_c, 4, 75, 92
9, 63696, Note_on_c, 4, 75, 0
9, 63696, Note_on_c, 4, 74, 92
9, 63742, Note_on_c, 4, 74, 0
9, 63744, Note_on_c, 4, 72, 92
9, 63984, Note_on_c, 4, 72, 0
9, 63984, Note_on_c, 4, 74, 92
9, 64032, Note_on_c, 4, 74, 0
9, 64032, Note_on_c, 4, 75, 92
9, 64080, Note_on_c, 4, 75, 0
9, 64080, Note_on_c, 4, 74, 92
9, 64126, Note_on_c, 4, 74, 0
9, 64128, Note_on_c, 4, 72, 92
9, 64368, Note_on_c, 4, 72, 0
9, 64368, Note_on_c, 4, 74, 92
9, 64416, Note_on_c, 4, 74, 0
9, 64416, Note_on_c, 4, 75, 92
9, 64464, Note_on_c, 4, 75, 0
9, 64464, Note_on_c, 4, 72, 92
9, 64510, Note_on_c, 4, 72, 0
9, 64512, Note_on_c, 4, 79, 92
9, 64672, Note_on_c, 4, 79, 0
9, 64672, End_track
10, 0, Start_track
10, 0, MIDI_port, 0
10, 0, Title_t, "Trombone II"
10, 0, Program_c, 5, 57
10, 0, Control_c, 5, 7, 127
10, 0, Control_c, 5, 10, 64
10, 2304, Note_on_c, 5, 60, 60
10, 2640, Note_on_c, 5, 60, 0
10, 2688, Note_on_c, 5, 60, 60
10, 2848, Note_on_c, 5, 60, 0
10, 2880, Note_on_c, 5, 60, 60
10, 3040, Note_on_c, 5, 60, 0
10, 3072, Note_on_c, 5, 60, 60
10, 3232, Note_on_c, 5, 60, 0
10, 3264, Note_on_c, 5, 55, 60
10, 3424, Note_on_c, 5, 55, 0
10, 3456, Note_on_c, 5, 55, 60
10, 3616, Note_on_c, 5, 55, 0
10, 3648, Note_on_c, 5, 55, 60
10, 3808, Note_on_c, 5, 55, 0
10, 3840, Note_on_c, 5, 55, 60
10, 4000, Note_on_c, 5, 55, 0
10, 4224, Note_on_c, 5, 60, 92
10, 4558, Note_on_c, 5, 60, 0
10, 4560, Note_on_c, 5, 60, 92
10, 4606, Note_on_c, 5, 60, 0
10, 4608, Note_on_c, 5, 63, 92
10, 4768, Note_on_c, 5, 63, 0
10, 4800, Note_on_c, 5, 67, 92
10, 4960, Note_on_c, 5, 67, 0
10, 4992, Note_on_c, 5, 72, 92
10, 5152, Note_on_c, 5, 72, 0
10, 5184, Note_on_c, 5, 67, 92
10, 5344, Note_on_c, 5, 67, 0
10, 5376, Note_on_c, 5, 63, 92
10, 5536, Note_on_c, 5, 63, 0
10, 5568, Note_on_c, 5, 60, 92
10, 5728, Note_on_c, 5, 60, 0
10, 5760, Note_on_c, 5, 55, 92
10, 5920, Note_on_c, 5, 55, 0
10, 5952, Note_on_c, 5, 60, 92
10, 6096, Note_on_c, 5, 60, 0
10, 6096, Note_on_c, 5, 63, 92
10, 6142, Note_on_c, 5, 63, 0
10, 6144, Note_on_c, 5, 63, 92
10, 6304, Note_on_c, 5, 63, 0
10, 9600, Note_on_c, 5, 67, 92
10, 10144, Note_on_c, 5, 67, 0
10, 10176, Note_on_c, 5, 66, 92
10, 10336, Note_on_c, 5, 66, 0
10, 10368, Note_on_c, 5, 62, 92
10, 10528, Note_on_c, 5, 62, 0
10, 10560, Note_on_c, 5, 65, 92
10, 10720, Note_on_c, 5, 65, 0
10, 10752, Note_on_c, 5, 65, 92
10, 10944, Note_on_c, 5, 65, 0
10, 10944, Note_on_c, 5, 64, 92
10, 11104, Note_on_c, 5, 64, 0
10, 11136, Note_on_c, 5, 60, 92
10, 11296, Note_on_c, 5, 60, 0
10, 11328, Note_on_c, 5, 63, 92
10, 11488, Note_on_c, 5, 63, 0
10, 11520, Note_on_c, 5, 62, 92
10, 11680, Note_on_c, 5, 62, 0
10, 11712, Note_on_c, 5, 67, 92
10, 12048, Note_on_c, 5, 67, 0
10, 12096, Note_on_c, 5, 66, 92
10, 12256, Note_on_c, 5, 66, 0
10, 12288, Note_on_c, 5, 67, 92
10, 12448, Note_on_c, 5, 67, 0
10, 12768, Note_on_c, 5, 65, 92
10, 12862, Note_on_c, 5, 65, 0
10, 12864, Note_on_c, 5, 67, 92
10, 12912, Note_on_c, 5, 67, 0
10, 12912, Note_on_c, 5, 69, 92
10, 12960, Note_on_c, 5, 69, 0
10, 12960, Note_on_c, 5, 71, 92
10, 13008, Note_on_c, 5, 71, 0
10, 13008, Note_on_c, 5, 67, 92
10, 13054, Note_on_c, 5, 67, 0
10, 13056, Note_on_c, 5, 72, 92
10, 13216, Note_on_c, 5, 72, 0
10, 14016, Note_on_c, 5, 67, 92
10, 14158, Note_on_c, 5, 67, 0
10, 14160, Note_on_c, 5, 67, 92
10, 14206, Note_on_c, 5, 67, 0
10, 14208, Note_on_c, 5, 67, 92
10, 14368, Note_on_c, 5, 67, 0
10, 14784, Note_on_c, 5, 65, 92
10, 14926, Note_on_c, 5, 65, 0
10, 14928, Note_on_c, 5, 65, 92
10, 14974, Note_on_c, 5, 65, 0
10, 14976, Note_on_c, 5, 65, 92
10, 15136, Note_on_c, 5, 65, 0
10, 15168, Note_on_c, 5, 62, 92
10, 15328, Note_on_c, 5, 62, 0
10, 15360, Note_on_c, 5, 62, 92
10, 15520, Note_on_c, 5, 62, 0
10, 15552, Note_on_c, 5, 60, 92
10, 15712, Note_on_c, 5, 60, 0
10, 16320, Note_on_c, 5, 63, 92
10, 16576, Note_on_c, 5, 63, 0
10, 16608, Note_on_c, 5, 63, 92
10, 16702, Note_on_c, 5, 63, 0
10, 16704, Note_on_c, 5, 62, 92
10, 16798, Note_on_c, 5, 62, 0
10, 16800, Note_on_c, 5, 68, 92
10, 16894, Note_on_c, 5, 68, 0
10, 16896, Note_on_c, 5, 67, 92
10, 17424, Note_on_c, 5, 67, 0
10, 17472, Note_on_c, 5, 66, 92
10, 17632, Note_on_c, 5, 66, 0
10, 17664, Note_on_c, 5, 67, 92
10, 17824, Note_on_c, 5, 67, 0
10, 17856, Note_on_c, 5, 67, 92
10, 17904, Note_on_c, 5, 67, 0
10, 17904, Note_on_c, 5, 69, 92
10, 17952, Note_on_c, 5, 69, 0
10, 17952, Note_on_c, 5, 70, 92
10, 18000, Note_on_c, 5, 70, 0
10, 18000, Note_on_c, 5, 67, 92
10, 18046, Note_on_c, 5, 67, 0
10, 18048, Note_on_c, 5, 62, 92
10, 18208, Note_on_c, 5, 62, 0
10, 18240, Note_on_c, 5, 58, 92
10, 18288, Note_on_c, 5, 58, 0
10, 18288, Note_on_c, 5, 60, 92
10, 18336, Note_on_c, 5, 60, 0
10, 18336, Note_on_c, 5, 62, 92
10, 18384, Note_on_c, 5, 62, 0
10, 18384, Note_on_c, 5, 58, 92
10, 18430, Note_on_c, 5, 58, 0
10, 18432, Note_on_c, 5, 55, 92
10, 18592, Note_on_c, 5, 55, 0
10, 18624, Note_on_c, 5, 63, 92
10, 18672, Note_on_c, 5, 63, 0
10, 18672, Note_on_c, 5, 65, 92
10, 18720, Note_on_c, 5, 65, 0
10, 18720, Note_on_c, 5, 67, 92
10, 18768, Note_on_c, 5, 67, 0
10, 18768, Note_on_c, 5, 63, 92
10, 18814, Note_on_c, 5, 63, 0
10, 18816, Note_on_c, 5, 70, 92
10, 18976, Note_on_c, 5, 70, 0
10, 19008, Note_on_c, 5, 64, 92
10, 19056, Note_on_c, 5, 64, 0
10, 19056, Note_on_c, 5, 66, 92
10, 19104, Note_on_c, 5, 66, 0
10, 19104, Note_on_c, 5, 67, 92
10, 19152, Note_on_c, 5, 67, 0
10, 19152, Note_on_c, 5, 64, 92
10, 19198, Note_on_c, 5, 64, 0
10, 19200, Note_on_c, 5, 66, 92
10, 19360, Note_on_c, 5, 66, 0
10, 22272, Note_on_c, 5, 67, 60
10, 22608, Note_on_c, 5, 67, 0
10, 22656, Note_on_c, 5, 67, 60
10, 22816, Note_on_c, 5, 67, 0
10, 22848, Note_on_c, 5, 67, 60
10, 23008, Note_on_c, 5, 67, 0
10, 23040, Note_on_c, 5, 67, 60
10, 23200, Note_on_c, 5, 67, 0
10, 23232, Note_on_c, 5, 62, 60
10, 23392, Note_on_c, 5, 62, 0
10, 23424, Note_on_c, 5, 62, 60
10, 23584, Note_on_c, 5, 62, 0
10, 23616, Note_on_c, 5, 62, 60
10, 23776, Note_on_c, 5, 62, 0
10, 23808, Note_on_c, 5, 62, 60
10, 23968, Note_on_c, 5, 62, 0
10, 57504, Note_on_c, 5, 67, 92
10, 57598, Note_on_c, 5, 67, 0
10, 57600, Note_on_c, 5, 69, 92
10, 57648, Note_on_c, 5, 69, 0
10, 57648, Note_on_c, 5, 71, 92
10, 57696, Note_on_c, 5, 71, 0
10, 57696, Note_on_c, 5, 72, 92
10, 57744, Note_on_c, 5, 72, 0
10, 57744, Note_on_c, 5, 71, 92
10, 57790, Note_on_c, 5, 71, 0
10, 57792, Note_on_c, 5, 72, 92
10, 57886, Note_on_c, 5, 72, 0
10, 57888, Note_on_c, 5, 72, 92
10, 57982, Note_on_c, 5, 72, 0
10, 57984, Note_on_c, 5, 72, 92
10, 58080, Note_on_c, 5, 72, 0
10, 58080, Note_on_c, 5, 71, 92
10, 58174, Note_on_c, 5, 71, 0
10, 58176, Note_on_c, 5, 67, 92
10, 58528, Note_on_c, 5, 67, 0
10, 58560, Note_on_c, 5, 67, 92
10, 58702, Note_on_c, 5, 67, 0
10, 58704, Note_on_c, 5, 67, 92
10, 58750, Note_on_c, 5, 67, 0
10, 58752, Note_on_c, 5, 67, 92
10, 58912, Note_on_c, 5, 67, 0
10, 59328, Note_on_c, 5, 67, 92
10, 59470, Note_on_c, 5, 67, 0
10, 59472, Note_on_c, 5, 67, 92
10, 59518, Note_on_c, 5, 67, 0
10, 59520, Note_on_c, 5, 67, 92
10, 59680, Note_on_c, 5, 67, 0
10, 60096, Note_on_c, 5, 65, 92
10, 60238, Note_on_c, 5, 65, 0
10, 60240, Note_on_c, 5, 65, 92
10, 60286, Note_on_c, 5, 65, 0
10, 60288, Note_on_c, 5, 65, 92
10, 60448, Note_on_c, 5, 65, 0
10, 60480, Note_on_c, 5, 62, 92
10, 60640, Note_on_c, 5, 62, 0
10, 60672, Note_on_c, 5, 62, 92
10, 60832, Note_on_c, 5, 62, 0
10, 60864, Note_on_c, 5, 60, 92
10, 61024, Note_on_c, 5, 60, 0
10, 61632, Note_on_c, 5, 63, 92
10, 61888, Note_on_c, 5, 63, 0
10, 61920, Note_on_c, 5, 63, 92
10, 62014, Note_on_c, 5, 63, 0
10, 62016, Note_on_c, 5, 62, 92
10, 62110, Note_on_c, 5, 62, 0
10, 62112, Note_on_c, 5, 68, 92
10, 62206, Note_on_c, 5, 68, 0
10, 62208, Note_on_c, 5, 67, 92
10, 62736, Note_on_c, 5, 67, 0
10, 62784, Note_on_c, 5, 65, 92
10, 62878, Note_on_c, 5, 65, 0
10, 62880, Note_on_c, 5, 72, 92
10, 62974, Note_on_c, 5, 72, 0
10, 62976, Note_on_c, 5, 70, 92
10, 63312, Note_on_c, 5, 70, 0
10, 63360, Note_on_c, 5, 68, 92
10, 63520, Note_on_c, 5, 68, 0
10, 63552, Note_on_c, 5, 63, 92
10, 63600, Note_on_c, 5, 63, 0
10, 63600, Note_on_c, 5, 62, 92
10, 63648, Note_on_c, 5, 62, 0
10, 63648, Note_on_c, 5, 60, 92
10, 63696, Note_on_c, 5, 60, 0
10, 63696, Note_on_c, 5, 62, 92
10, 63742, Note_on_c, 5, 62, 0
10, 63744, Note_on_c, 5, 63, 92
10, 63984, Note_on_c, 5, 63, 0
10, 63984, Note_on_c, 5, 62, 92
10, 64032, Note_on_c, 5, 62, 0
10, 64032, Note_on_c, 5, 60, 92
10, 64080, Note_on_c, 5, 60, 0
10, 64080, Note_on_c, 5, 62, 92
10, 64126, Note_on_c, 5, 62, 0
10, 64128, Note_on_c, 5, 63, 92
10, 64464, Note_on_c, 5, 63, 0
10, 64512, Note_on_c, 5, 62, 92
10, 64672, Note_on_c, 5, 62, 0
10, 67584, Note_on_c, 5, 60, 60
10, 67920, Note_on_c, 5, 60, 0
10, 67968, Note_on_c, 5, 60, 60
10, 68128, Note_on_c, 5, 60, 0
10, 68160, Note_on_c, 5, 60, 60
10, 68320, Note_on_c, 5, 60, 0
10, 68352, Note_on_c, 5, 60, 60
10, 68512, Note_on_c, 5, 60, 0
10, 68544, Note_on_c, 5, 55, 60
10, 68704, Note_on_c, 5, 55, 0
10, 68736, Note_on_c, 5, 55, 60
10, 68896, Note_on_c, 5, 55, 0
10, 68928, Note_on_c, 5, 55, 60
10, 69088, Note_on_c, 5, 55, 0
10, 69120, Note_on_c, 5, 60, 60
10, 69280, Note_on_c, 5, 60, 0
10, 70656, Note_on_c, 5, 60, 30
10, 70816, Note_on_c, 5, 60, 0
10, 70944, Note_on_c, 5, 60, 30
10, 71038, Note_on_c, 5, 60, 0
10, 71040, Note_on_c, 5, 60, 30
10, 71200, Note_on_c, 5, 60, 0
10, 71328, Note_on_c, 5, 60, 30
10, 71422, Note_on_c, 5, 60, 0
10, 71424, Note_on_c, 5, 60, 30
10, 71760, Note_on_c, 5, 60, 0
10, 71760, End_track
11, 0, Start_track
11, 0, MIDI_port, 0
11, 0, Title_t, "Trombone III"
11, 0, Program_c, 6, 57
11, 0, Control_c, 6, 7, 127
11, 0, Control_c, 6, 10, 64
11, 2304, Note_on_c, 6, 60, 60
11, 2640, Note_on_c, 6, 60, 0
11, 2688, Note_on_c, 6, 60, 60
11, 2848, Note_on_c, 6, 60, 0
11, 2880, Note_on_c, 6, 60, 60
11, 3040, Note_on_c, 6, 60, 0
11, 3072, Note_on_c, 6, 60, 60
11, 3232, Note_on_c, 6, 60, 0
11, 3264, Note_on_c, 6, 55, 60
11, 3424, Note_on_c, 6, 55, 0
11, 3456, Note_on_c, 6, 55, 60
11, 3616, Note_on_c, 6, 55, 0
11, 3648, Note_on_c, 6, 55, 60
11, 3808, Note_on_c, 6, 55, 0
11, 3840, Note_on_c, 6, 48, 60
11, 4000, Note_on_c, 6, 48, 0
11, 4608, Note_on_c, 6, 48, 92
11, 4942, Note_on_c, 6, 48, 0
11, 4944, Note_on_c, 6, 48, 92
11, 4990, Note_on_c, 6, 48, 0
11, 4992, Note_on_c, 6, 51, 92
11, 5152, Note_on_c, 6, 51, 0
11, 5184, Note_on_c, 6, 55, 92
11, 5344, Note_on_c, 6, 55, 0
11, 5376, Note_on_c, 6, 60, 92
11, 5536, Note_on_c, 6, 60, 0
11, 5568, Note_on_c, 6, 63, 92
11, 5728, Note_on_c, 6, 63, 0
11, 5760, Note_on_c, 6, 67, 92
11, 5920, Note_on_c, 6, 67, 0
11, 5952, Note_on_c, 6, 55, 92
11, 6112, Note_on_c, 6, 55, 0
11, 6144, Note_on_c, 6, 55, 92
11, 6304, Note_on_c, 6, 55, 0
11, 13440, Note_on_c, 6, 60, 92
11, 13984, Note_on_c, 6, 60, 0
11, 14016, Note_on_c, 6, 59, 92
11, 14176, Note_on_c, 6, 59, 0
11, 14208, Note_on_c, 6, 55, 92
11, 14368, Note_on_c, 6, 55, 0
11, 14400, Note_on_c, 6, 58, 92
11, 14560, Note_on_c, 6, 58, 0
11, 14592, Note_on_c, 6, 58, 92
11, 14784, Note_on_c, 6, 58, 0
11, 14784, Note_on_c, 6, 57, 92
11, 14944, Note_on_c, 6, 57, 0
11, 14976, Note_on_c, 6, 53, 92
11, 15136, Note_on_c, 6, 53, 0
11, 15168, Note_on_c, 6, 56, 92
11, 15328, Note_on_c, 6, 56, 0
11, 15360, Note_on_c, 6, 55, 92
11, 15520, Note_on_c, 6, 55, 0
11, 15552, Note_on_c, 6, 60, 92
11, 15888, Note_on_c, 6, 60, 0
11, 15936, Note_on_c, 6, 59, 92
11, 16096, Note_on_c, 6, 59, 0
11, 16128, Note_on_c, 6, 63, 92
11, 16288, Note_on_c, 6, 63, 0
11, 16416, Note_on_c, 6, 60, 92
11, 16510, Note_on_c, 6, 60, 0
11, 16512, Note_on_c, 6, 56, 92
11, 16606, Note_on_c, 6, 56, 0
11, 16608, Note_on_c, 6, 53, 92
11, 16702, Note_on_c, 6, 53, 0
11, 16800, Note_on_c, 6, 62, 92
11, 16894, Note_on_c, 6, 62, 0
11, 16896, Note_on_c, 6, 58, 92
11, 16990, Note_on_c, 6, 58, 0
11, 16992, Note_on_c, 6, 55, 92
11, 17086, Note_on_c, 6, 55, 0
11, 17184, Note_on_c, 6, 63, 92
11, 17278, Note_on_c, 6, 63, 0
11, 17280, Note_on_c, 6, 60, 92
11, 17374, Note_on_c, 6, 60, 0
11, 17376, Note_on_c, 6, 57, 92
11, 17470, Note_on_c, 6, 57, 0
11, 17664, Note_on_c, 6, 62, 92
11, 17920, Note_on_c, 6, 62, 0
11, 17952, Note_on_c, 6, 62, 92
11, 18046, Note_on_c, 6, 62, 0
11, 18048, Note_on_c, 6, 58, 92
11, 18208, Note_on_c, 6, 58, 0
11, 18240, Note_on_c, 6, 55, 92
11, 18400, Note_on_c, 6, 55, 0
11, 18432, Note_on_c, 6, 51, 92
11, 18768, Note_on_c, 6, 51, 0
11, 18816, Note_on_c, 6, 52, 92
11, 18912, Note_on_c, 6, 52, 0
11, 18912, Note_on_c, 6, 55, 92
11, 19008, Note_on_c, 6, 55, 0
11, 19008, Note_on_c, 6, 58, 92
11, 19168, Note_on_c, 6, 58, 0
11, 19200, Note_on_c, 6, 57, 92
11, 19360, Note_on_c, 6, 57, 0
11, 22272, Note_on_c, 6, 55, 60
11, 22608, Note_on_c, 6, 55, 0
11, 22656, Note_on_c, 6, 55, 60
11, 22816, Note_on_c, 6, 55, 0
11, 22848, Note_on_c, 6, 55, 60
11, 23008, Note_on_c, 6, 55, 0
11, 23040, Note_on_c, 6, 55, 60
11, 23200, Note_on_c, 6, 55, 0
11, 23232, Note_on_c, 6, 50, 60
11, 23392, Note_on_c, 6, 50, 0
11, 23424, Note_on_c, 6, 50, 60
11, 23584, Note_on_c, 6, 50, 0
11, 23616, Note_on_c, 6, 50, 60
11, 23776, Note_on_c, 6, 50, 0
11, 23808, Note_on_c, 6, 55, 60
11, 23968, Note_on_c, 6, 55, 0
11, 57216, Note_on_c, 6, 67, 92
11, 57760, Note_on_c, 6, 67, 0
11, 57792, Note_on_c, 6, 66, 92
11, 57952, Note_on_c, 6, 66, 0
11, 57984, Note_on_c, 6, 62, 92
11, 58144, Note_on_c, 6, 62, 0
11, 58176, Note_on_c, 6, 65, 92
11, 58336, Note_on_c, 6, 65, 0
11, 58368, Note_on_c, 6, 65, 92
11, 58464, Note_on_c, 6, 65, 0
11, 58464, Note_on_c, 6, 64, 92
11, 58558, Note_on_c, 6, 64, 0
11, 58560, Note_on_c, 6, 63, 92
11, 58720, Note_on_c, 6, 63, 0
11, 58752, Note_on_c, 6, 60, 92
11, 59296, Note_on_c, 6, 60, 0
11, 59328, Note_on_c, 6, 59, 92
11, 59488, Note_on_c, 6, 59, 0
11, 59520, Note_on_c, 6, 55, 92
11, 59680, Note_on_c, 6, 55, 0
11, 59712, Note_on_c, 6, 58, 92
11, 59872, Note_on_c, 6, 58, 0
11, 59904, Note_on_c, 6, 58, 92
11, 60096, Note_on_c, 6, 58, 0
11, 60096, Note_on_c, 6, 57, 92
11, 60256, Note_on_c, 6, 57, 0
11, 60288, Note_on_c, 6, 53, 92
11, 60448, Note_on_c, 6, 53, 0
11, 60480, Note_on_c, 6, 56, 92
11, 60640, Note_on_c, 6, 56, 0
11, 60672, Note_on_c, 6, 55, 92
11, 60832, Note_on_c, 6, 55, 0
11, 60864, Note_on_c, 6, 60, 92
11, 61200, Note_on_c, 6, 60, 0
11, 61248, Note_on_c, 6, 59, 92
11, 61408, Note_on_c, 6, 59, 0
11, 61440, Note_on_c, 6, 63, 92
11, 61600, Note_on_c, 6, 63, 0
11, 61728, Note_on_c, 6, 60, 92
11, 61822, Note_on_c, 6, 60, 0
11, 61824, Note_on_c, 6, 56, 92
11, 61918, Note_on_c, 6, 56, 0
11, 61920, Note_on_c, 6, 53, 92
11, 62014, Note_on_c, 6, 53, 0
11, 62112, Note_on_c, 6, 62, 92
11, 62206, Note_on_c, 6, 62, 0
11, 62208, Note_on_c, 6, 58, 92
11, 62302, Note_on_c, 6, 58, 0
11, 62304, Note_on_c, 6, 55, 92
11, 62398, Note_on_c, 6, 55, 0
11, 62496, Note_on_c, 6, 63, 92
11, 62590, Note_on_c, 6, 63, 0
11, 62592, Note_on_c, 6, 60, 92
11, 62686, Note_on_c, 6, 60, 0
11, 62688, Note_on_c, 6, 56, 92
11, 62782, Note_on_c, 6, 56, 0
11, 62880, Note_on_c, 6, 65, 92
11, 62974, Note_on_c, 6, 65, 0
11, 62976, Note_on_c, 6, 61, 92
11, 63070, Note_on_c, 6, 61, 0
11, 63072, Note_on_c, 6, 58, 92
11, 63166, Note_on_c, 6, 58, 0
11, 63264, Note_on_c, 6, 55, 92
11, 63358, Note_on_c, 6, 55, 0
11, 63360, Note_on_c, 6, 56, 92
11, 63454, Note_on_c, 6, 56, 0
11, 63456, Note_on_c, 6, 51, 92
11, 63550, Note_on_c, 6, 51, 0
11, 63552, Note_on_c, 6, 48, 92
11, 63792, Note_on_c, 6, 48, 0
11, 63792, Note_on_c, 6, 50, 92
11, 63840, Note_on_c, 6, 50, 0
11, 63840, Note_on_c, 6, 51, 92
11, 63888, Note_on_c, 6, 51, 0
11, 63888, Note_on_c, 6, 48, 92
11, 63934, Note_on_c, 6, 48, 0
11, 63936, Note_on_c, 6, 60, 92
11, 64176, Note_on_c, 6, 60, 0
11, 64176, Note_on_c, 6, 62, 92
11, 64224, Note_on_c, 6, 62, 0
11, 64224, Note_on_c, 6, 60, 92
11, 64272, Note_on_c, 6, 60, 0
11, 64272, Note_on_c, 6, 59, 92
11, 64320, Note_on_c, 6, 59, 0
11, 64320, Note_on_c, 6, 57, 92
11, 64368, Note_on_c, 6, 57, 0
11, 64368, Note_on_c, 6, 59, 92
11, 64416, Note_on_c, 6, 59, 0
11, 64416, Note_on_c, 6, 60, 92
11, 64464, Note_on_c, 6, 60, 0
11, 64464, Note_on_c, 6, 57, 92
11, 64510, Note_on_c, 6, 57, 0
11, 64512, Note_on_c, 6, 59, 92
11, 64672, Note_on_c, 6, 59, 0
11, 67584, Note_on_c, 6, 60, 60
11, 67920, Note_on_c, 6, 60, 0
11, 67968, Note_on_c, 6, 60, 60
11, 68128, Note_on_c, 6, 60, 0
11, 68160, Note_on_c, 6, 60, 60
11, 68320, Note_on_c, 6, 60, 0
11, 68352, Note_on_c, 6, 60, 60
11, 68512, Note_on_c, 6, 60, 0
11, 68544, Note_on_c, 6, 55, 60
11, 68704, Note_on_c, 6, 55, 0
11, 68736, Note_on_c, 6, 55, 60
11, 68896, Note_on_c, 6, 55, 0
11, 68928, Note_on_c, 6, 55, 60
11, 69088, Note_on_c, 6, 55, 0
11, 69120, Note_on_c, 6, 48, 60
11, 69280, Note_on_c, 6, 48, 0
11, 70656, Note_on_c, 6, 48, 30
11, 70816, Note_on_c, 6, 48, 0
11, 70944, Note_on_c, 6, 48, 30
11, 71038, Note_on_c, 6, 48, 0
11, 71040, Note_on_c, 6, 48, 30
11, 71200, Note_on_c, 6, 48, 0
11, 71328, Note_on_c, 6, 48, 30
11, 71422, Note_on_c, 6, 48, 0
11, 71424, Note_on_c, 6, 48, 30
11, 71760, Note_on_c, 6, 48, 0
11, 71760, End_track
12, 0, Start_track
12, 0, MIDI_port, 0
12, 0, Title_t, "Trombone IV"
12, 0, Program_c, 7, 57
12, 0, Control_c, 7, 7, 127
12, 0, Control_c, 7, 10, 64
12, 4992, Note_on_c, 7, 48, 92
12, 5326, Note_on_c, 7, 48, 0
12, 5328, Note_on_c, 7, 48, 92
12, 5374, Note_on_c, 7, 48, 0
12, 5376, Note_on_c, 7, 51, 92
12, 5536, Note_on_c, 7, 51, 0
12, 5568, Note_on_c, 7, 55, 92
12, 5728, Note_on_c, 7, 55, 0
12, 5760, Note_on_c, 7, 60, 92
12, 5920, Note_on_c, 7, 60, 0
12, 5952, Note_on_c, 7, 55, 92
12, 6094, Note_on_c, 7, 55, 0
12, 6096, Note_on_c, 7, 51, 92
12, 6142, Note_on_c, 7, 51, 0
12, 6144, Note_on_c, 7, 48, 92
12, 6304, Note_on_c, 7, 48, 0
12, 13056, Note_on_c, 7, 60, 92
12, 13152, Note_on_c, 7, 60, 0
12, 13152, Note_on_c, 7, 55, 92
12, 13312, Note_on_c, 7, 55, 0
12, 13344, Note_on_c, 7, 55, 92
12, 13438, Note_on_c, 7, 55, 0
12, 13440, Note_on_c, 7, 55, 92
12, 13536, Note_on_c, 7, 55, 0
12, 13536, Note_on_c, 7, 51, 92
12, 13696, Note_on_c, 7, 51, 0
12, 13728, Note_on_c, 7, 51, 92
12, 13822, Note_on_c, 7, 51, 0
12, 13824, Note_on_c, 7, 50, 92
12, 13872, Note_on_c, 7, 50, 0
12, 13872, Note_on_c, 7, 52, 92
12, 13920, Note_on_c, 7, 52, 0
12, 13920, Note_on_c, 7, 53, 92
12, 13968, Note_on_c, 7, 53, 0
12, 13968, Note_on_c, 7, 52, 92
12, 14014, Note_on_c, 7, 52, 0
12, 14016, Note_on_c, 7, 53, 92
12, 14110, Note_on_c, 7, 53, 0
12, 14112, Note_on_c, 7, 53, 92
12, 14206, Note_on_c, 7, 53, 0
12, 14208, Note_on_c, 7, 53, 92
12, 14304, Note_on_c, 7, 53, 0
12, 14304, Note_on_c, 7, 52, 92
12, 14398, Note_on_c, 7, 52, 0
12, 14400, Note_on_c, 7, 48, 92
12, 14494, Note_on_c, 7, 48, 0
12, 14496, Note_on_c, 7, 48, 92
12, 14590, Note_on_c, 7, 48, 0
12, 14592, Note_on_c, 7, 48, 92
12, 14640, Note_on_c, 7, 48, 0
12, 14640, Note_on_c, 7, 50, 92
12, 14688, Note_on_c, 7, 50, 0
12, 14688, Note_on_c, 7, 51, 92
12, 14736, Note_on_c, 7, 51, 0
12, 14736, Note_on_c, 7, 50, 92
12, 14782, Note_on_c, 7, 50, 0
12, 14784, Note_on_c, 7, 51, 92
12, 14878, Note_on_c, 7, 51, 0
12, 14880, Note_on_c, 7, 51, 92
12, 14974, Note_on_c, 7, 51, 0
12, 14976, Note_on_c, 7, 51, 92
12, 15072, Note_on_c, 7, 51, 0
12, 15072, Note_on_c, 7, 50, 92
12, 15166, Note_on_c, 7, 50, 0
12, 15168, Note_on_c, 7, 46, 92
12, 15328, Note_on_c, 7, 46, 0
12, 15456, Note_on_c, 7, 55, 92
12, 15550, Note_on_c, 7, 55, 0
12, 15552, Note_on_c, 7, 51, 92
12, 15646, Note_on_c, 7, 51, 0
12, 15648, Note_on_c, 7, 56, 92
12, 15742, Note_on_c, 7, 56, 0
12, 15840, Note_on_c, 7, 53, 92
12, 15934, Note_on_c, 7, 53, 0
12, 15936, Note_on_c, 7, 50, 92
12, 16030, Note_on_c, 7, 50, 0
12, 16032, Note_on_c, 7, 55, 92
12, 16126, Note_on_c, 7, 55, 0
12, 16224, Note_on_c, 7, 55, 92
12, 16318, Note_on_c, 7, 55, 0
12, 16320, Note_on_c, 7, 51, 92
12, 16414, Note_on_c, 7, 51, 0
12, 16416, Note_on_c, 7, 56, 92
12, 16510, Note_on_c, 7, 56, 0
12, 16608, Note_on_c, 7, 56, 92
12, 16702, Note_on_c, 7, 56, 0
12, 16704, Note_on_c, 7, 53, 92
12, 16798, Note_on_c, 7, 53, 0
12, 16800, Note_on_c, 7, 58, 92
12, 16894, Note_on_c, 7, 58, 0
12, 16992, Note_on_c, 7, 58, 92
12, 17086, Note_on_c, 7, 58, 0
12, 17088, Note_on_c, 7, 55, 92
12, 17182, Note_on_c, 7, 55, 0
12, 17184, Note_on_c, 7, 60, 92
12, 17278, Note_on_c, 7, 60, 0
12, 17376, Note_on_c, 7, 60, 92
12, 17470, Note_on_c, 7, 60, 0
12, 17472, Note_on_c, 7, 57, 92
12, 17566, Note_on_c, 7, 57, 0
12, 17568, Note_on_c, 7, 62, 92
12, 17662, Note_on_c, 7, 62, 0
12, 17856, Note_on_c, 7, 55, 92
12, 18112, Note_on_c, 7, 55, 0
12, 18144, Note_on_c, 7, 55, 92
12, 18238, Note_on_c, 7, 55, 0
12, 18240, Note_on_c, 7, 58, 92
12, 18592, Note_on_c, 7, 58, 0
12, 18624, Note_on_c, 7, 55, 92
12, 18720, Note_on_c, 7, 55, 0
12, 18720, Note_on_c, 7, 51, 92
12, 18814, Note_on_c, 7, 51, 0
12, 18816, Note_on_c, 7, 49, 92
12, 19152, Note_on_c, 7, 49, 0
12, 19200, Note_on_c, 7, 50, 92
12, 19360, Note_on_c, 7, 50, 0
12, 58368, Note_on_c, 7, 60, 92
12, 58464, Note_on_c, 7, 60, 0
12, 58464, Note_on_c, 7, 58, 92
12, 58624, Note_on_c, 7, 58, 0
12, 58656, Note_on_c, 7, 55, 92
12, 58750, Note_on_c, 7, 55, 0
12, 58752, Note_on_c, 7, 55, 92
12, 58848, Note_on_c, 7, 55, 0
12, 58848, Note_on_c, 7, 51, 92
12, 59008, Note_on_c, 7, 51, 0
12, 59040, Note_on_c, 7, 51, 92
12, 59134, Note_on_c, 7, 51, 0
12, 59136, Note_on_c, 7, 50, 92
12, 59184, Note_on_c, 7, 50, 0
12, 59184, Note_on_c, 7, 52, 92
12, 59232, Note_on_c, 7, 52, 0
12, 59232, Note_on_c, 7, 53, 92
12, 59280, Note_on_c, 7, 53, 0
12, 59280, Note_on_c, 7, 52, 92
12, 59326, Note_on_c, 7, 52, 0
12, 59328, Note_on_c, 7, 53, 92
12, 59422, Note_on_c, 7, 53, 0
12, 59424, Note_on_c, 7, 53, 92
12, 59518, Note_on_c, 7, 53, 0
12, 59520, Note_on_c, 7, 53, 92
12, 59616, Note_on_c, 7, 53, 0
12, 59616, Note_on_c, 7, 52, 92
12, 59710, Note_on_c, 7, 52, 0
12, 59712, Note_on_c, 7, 48, 92
12, 59806, Note_on_c, 7, 48, 0
12, 59808, Note_on_c, 7, 48, 92
12, 59902, Note_on_c, 7, 48, 0
12, 59904, Note_on_c, 7, 48, 92
12, 59952, Note_on_c, 7, 48, 0
12, 59952, Note_on_c, 7, 50, 92
12, 60000, Note_on_c, 7, 50, 0
12, 60000, Note_on_c, 7, 51, 92
12, 60048, Note_on_c, 7, 51, 0
12, 60048, Note_on_c, 7, 50, 92
12, 60094, Note_on_c, 7, 50, 0
12, 60096, Note_on_c, 7, 51, 92
12, 60190, Note_on_c, 7, 51, 0
12, 60192, Note_on_c, 7, 51, 92
12, 60286, Note_on_c, 7, 51, 0
12, 60288, Note_on_c, 7, 51, 92
12, 60384, Note_on_c, 7, 51, 0
12, 60384, Note_on_c, 7, 50, 92
12, 60478, Note_on_c, 7, 50, 0
12, 60480, Note_on_c, 7, 46, 92
12, 60640, Note_on_c, 7, 46, 0
12, 60768, Note_on_c, 7, 55, 92
12, 60862, Note_on_c, 7, 55, 0
12, 60864, Note_on_c, 7, 51, 92
12, 60958, Note_on_c, 7, 51, 0
12, 60960, Note_on_c, 7, 56, 92
12, 61054, Note_on_c, 7, 56, 0
12, 61152, Note_on_c, 7, 53, 92
12, 61246, Note_on_c, 7, 53, 0
12, 61248, Note_on_c, 7, 50, 92
12, 61342, Note_on_c, 7, 50, 0
12, 61344, Note_on_c, 7, 55, 92
12, 61438, Note_on_c, 7, 55, 0
12, 61536, Note_on_c, 7, 55, 92
12, 61630, Note_on_c, 7, 55, 0
12, 61632, Note_on_c, 7, 51, 92
12, 61726, Note_on_c, 7, 51, 0
12, 61728, Note_on_c, 7, 56, 92
12, 61822, Note_on_c, 7, 56, 0
12, 61920, Note_on_c, 7, 56, 92
12, 62014, Note_on_c, 7, 56, 0
12, 62016, Note_on_c, 7, 53, 92
12, 62110, Note_on_c, 7, 53, 0
12, 62112, Note_on_c, 7, 58, 92
12, 62206, Note_on_c, 7, 58, 0
12, 62304, Note_on_c, 7, 58, 92
12, 62398, Note_on_c, 7, 58, 0
12, 62400, Note_on_c, 7, 55, 92
12, 62494, Note_on_c, 7, 55, 0
12, 62496, Note_on_c, 7, 60, 92
12, 62590, Note_on_c, 7, 60, 0
12, 62688, Note_on_c, 7, 48, 92
12, 62782, Note_on_c, 7, 48, 0
12, 62784, Note_on_c, 7, 44, 92
12, 62878, Note_on_c, 7, 44, 0
12, 62880, Note_on_c, 7, 49, 92
12, 62974, Note_on_c, 7, 49, 0
12, 63072, Note_on_c, 7, 49, 92
12, 63166, Note_on_c, 7, 49, 0
12, 63168, Note_on_c, 7, 46, 92
12, 63262, Note_on_c, 7, 46, 0
12, 63264, Note_on_c, 7, 51, 92
12, 63358, Note_on_c, 7, 51, 0
12, 63360, Note_on_c, 7, 44, 92
12, 63520, Note_on_c, 7, 44, 0
12, 63552, Note_on_c, 7, 44, 92
12, 63694, Note_on_c, 7, 44, 0
12, 63696, Note_on_c, 7, 44, 92
12, 63742, Note_on_c, 7, 44, 0
12, 63744, Note_on_c, 7, 43, 92
12, 64000, Note_on_c, 7, 43, 0
12, 64032, Note_on_c, 7, 55, 92
12, 64126, Note_on_c, 7, 55, 0
12, 64128, Note_on_c, 7, 54, 92
12, 64464, Note_on_c, 7, 54, 0
12, 64512, Note_on_c, 7, 55, 92
12, 64672, Note_on_c, 7, 55, 0
12, 70656, Note_on_c, 7, 48, 30
12, 70816, Note_on_c, 7, 48, 0
12, 70944, Note_on_c, 7, 48, 30
12, 71038, Note_on_c, 7, 48, 0
12, 71040, Note_on_c, 7, 48, 30
12, 71200, Note_on_c, 7, 48, 0
12, 71328, Note_on_c, 7, 48, 30
12, 71422, Note_on_c, 7, 48, 0
12, 71424, Note_on_c, 7, 48, 30
12, 71760, Note_on_c, 7, 48, 0
12, 71760, End_track
13, 0, Start_track
13, 0, MIDI_port, 0
13, 0, Title_t, "Timpani in C.G"
13, 0, Program_c, 8, 47
13, 0, Control_c, 8, 7, 127
13, 0, Control_c, 8, 10, 64
13, 6144, Note_on_c, 8, 48, 92
13, 6304, Note_on_c, 8, 48, 0
13, 9216, Note_on_c, 8, 48, 92
13, 9376, Note_on_c, 8, 48, 0
13, 9600, Note_on_c, 8, 43, 92
13, 9760, Note_on_c, 8, 43, 0
13, 12288, Note_on_c, 8, 43, 92
13, 12448, Note_on_c, 8, 43, 0
13, 12480, Note_on_c, 8, 43, 92
13, 12622, Note_on_c, 8, 43, 0
13, 12624, Note_on_c, 8, 43, 92
13, 12670, Note_on_c, 8, 43, 0
13, 12672, Note_on_c, 8, 43, 92
13, 12832, Note_on_c, 8, 43, 0
13, 12864, Note_on_c, 8, 43, 92
13, 13024, Note_on_c, 8, 43, 0
13, 13056, Note_on_c, 8, 48, 92
13, 13216, Note_on_c, 8, 48, 0
13, 13248, Note_on_c, 8, 48, 92
13, 13390, Note_on_c, 8, 48, 0
13, 13392, Note_on_c, 8, 48, 92
13, 13438, Note_on_c, 8, 48, 0
13, 13440, Note_on_c, 8, 48, 92
13, 13600, Note_on_c, 8, 48, 0
13, 17664, Note_on_c, 8, 43, 92
13, 17824, Note_on_c, 8, 43, 0
13, 18048, Note_on_c, 8, 43, 92
13, 18208, Note_on_c, 8, 43, 0
13, 18432, Note_on_c, 8, 43, 92
13, 18592, Note_on_c, 8, 43, 0
13, 18816, Note_on_c, 8, 43, 92
13, 18976, Note_on_c, 8, 43, 0
13, 58368, Note_on_c, 8, 48, 92
13, 58528, Note_on_c, 8, 48, 0
13, 58560, Note_on_c, 8, 48, 92
13, 58702, Note_on_c, 8, 48, 0
13, 58704, Note_on_c, 8, 48, 92
13, 58750, Note_on_c, 8, 48, 0
13, 58752, Note_on_c, 8, 48, 92
13, 58912, Note_on_c, 8, 48, 0
13, 63360, Note_on_c, 8, 48, 92
13, 63520, Note_on_c, 8, 48, 0
13, 63744, Note_on_c, 8, 48, 92
13, 63904, Note_on_c, 8, 48, 0
13, 64128, Note_on_c, 8, 48, 92
13, 64288, Note_on_c, 8, 48, 0
13, 64320, Note_on_c, 8, 48, 92
13, 64480, Note_on_c, 8, 48, 0
13, 64512, Note_on_c, 8, 43, 92
13, 64672, Note_on_c, 8, 43, 0
13, 64704, Note_on_c, 8, 43, 92
13, 64846, Note_on_c, 8, 43, 0
13, 64848, Note_on_c, 8, 43, 92
13, 64894, Note_on_c, 8, 43, 0
13, 64896, Note_on_c, 8, 43, 92
13, 64990, Note_on_c, 8, 43, 0
13, 64992, Note_on_c, 8, 43, 92
13, 65086, Note_on_c, 8, 43, 0
13, 65088, Note_on_c, 8, 43, 92
13, 65182, Note_on_c, 8, 43, 0
13, 65184, Note_on_c, 8, 43, 92
13, 65278, Note_on_c, 8, 43, 0
13, 65280, Note_on_c, 8, 48, 92
13, 65440, Note_on_c, 8, 48, 0
13, 70656, Note_on_c, 8, 48, 30
13, 70702, Note_on_c, 8, 48, 0
13, 70704, Note_on_c, 8, 48, 30
13, 70750, Note_on_c, 8, 48, 0
13, 70752, Note_on_c, 8, 48, 30
13, 70798, Note_on_c, 8, 48, 0
13, 70800, Note_on_c, 8, 48, 30
13, 70846, Note_on_c, 8, 48, 0
13, 70848, Note_on_c, 8, 48, 30
13, 70894, Note_on_c, 8, 48, 0
13, 70896, Note_on_c, 8, 48, 30
13, 70942, Note_on_c, 8, 48, 0
13, 70944, Note_on_c, 8, 48, 30
13, 70990, Note_on_c, 8, 48, 0
13, 70992, Note_on_c, 8, 48, 30
13, 71038, Note_on_c, 8, 48, 0
13, 71040, Note_on_c, 8, 48, 30
13, 71086, Note_on_c, 8, 48, 0
13, 71088, Note_on_c, 8, 48, 30
13, 71134, Note_on_c, 8, 48, 0
13, 71136, Note_on_c, 8, 48, 30
13, 71182, Note_on_c, 8, 48, 0
13, 71184, Note_on_c, 8, 48, 30
13, 71230, Note_on_c, 8, 48, 0
13, 71232, Note_on_c, 8, 48, 30
13, 71278, Note_on_c, 8, 48, 0
13, 71280, Note_on_c, 8, 48, 30
13, 71326, Note_on_c, 8, 48, 0
13, 71328, Note_on_c, 8, 48, 30
13, 71374, Note_on_c, 8, 48, 0
13, 71376, Note_on_c, 8, 48, 30
13, 71422, Note_on_c, 8, 48, 0
13, 71424, Note_on_c, 8, 48, 30
13, 71760, Note_on_c, 8, 48, 0
13, 71760, End_track
14, 0, Start_track
14, 0, MIDI_port, 0
14, 0, Title_t, "Violino I"
14, 0, Program_c, 10, 40
14, 0, Control_c, 10, 7, 127
14, 0, Control_c, 10, 10, 64
14, 0, Note_on_c, 10, 72, 60
14, 96, Note_on_c, 10, 72, 0
14, 96, Note_on_c, 10, 67, 60
14, 190, Note_on_c, 10, 67, 0
14, 192, Note_on_c, 10, 67, 60
14, 224, Note_on_c, 10, 67, 0
14, 288, Note_on_c, 10, 67, 60
14, 320, Note_on_c, 10, 67, 0
14, 384, Note_on_c, 10, 67, 60
14, 480, Note_on_c, 10, 67, 0
14, 480, Note_on_c, 10, 63, 60
14, 574, Note_on_c, 10, 63, 0
14, 576, Note_on_c, 10, 63, 60
14, 608, Note_on_c, 10, 63, 0
14, 672, Note_on_c, 10, 63, 60
14, 704, Note_on_c, 10, 63, 0
14, 768, Note_on_c, 10, 63, 60
14, 864, Note_on_c, 10, 63, 0
14, 864, Note_on_c, 10, 62, 60
14, 958, Note_on_c, 10, 62, 0
14, 960, Note_on_c, 10, 62, 60
14, 992, Note_on_c, 10, 62, 0
14, 1056, Note_on_c, 10, 62, 60
14, 1088, Note_on_c, 10, 62, 0
14, 1152, Note_on_c, 10, 62, 60
14, 1200, Note_on_c, 10, 62, 0
14, 1200, Note_on_c, 10, 64, 60
14, 1248, Note_on_c, 10, 64, 0
14, 1248, Note_on_c, 10, 65, 60
14, 1296, Note_on_c, 10, 65, 0
14, 1296, Note_on_c, 10, 64, 60
14, 1344, Note_on_c, 10, 64, 0
14, 1344, Note_on_c, 10, 65, 60
14, 1438, Note_on_c, 10, 65, 0
14, 1440, Note_on_c, 10, 65, 60
14, 1472, Note_on_c, 10, 65, 0
14, 1536, Note_on_c, 10, 65, 60
14, 1632, Note_on_c, 10, 65, 0
14, 1632, Note_on_c, 10, 64, 60
14, 1726, Note_on_c, 10, 64, 0
14, 1728, Note_on_c, 10, 64, 60
14, 1760, Note_on_c, 10, 64, 0
14, 1824, Note_on_c, 10, 64, 60
14, 1856, Note_on_c, 10, 64, 0
14, 1920, Note_on_c, 10, 64, 60
14, 1968, Note_on_c, 10, 64, 0
14, 1968, Note_on_c, 10, 66, 60
14, 2016, Note_on_c, 10, 66, 0
14, 2016, Note_on_c, 10, 67, 60
14, 2064, Note_on_c, 10, 67, 0
14, 2064, Note_on_c, 10, 66, 60
14, 2112, Note_on_c, 10, 66, 0
14, 2112, Note_on_c, 10, 67, 60
14, 2206, Note_on_c, 10, 67, 0
14, 2208, Note_on_c, 10, 67, 60
14, 2240, Note_on_c, 10, 67, 0
14, 2304, Note_on_c, 10, 67, 60
14, 2400, Note_on_c, 10, 67, 0
14, 2400, Note_on_c, 10, 66, 60
14, 2494, Note_on_c, 10, 66, 0
14, 2496, Note_on_c, 10, 66, 60
14, 2528, Note_on_c, 10, 66, 0
14, 2592, Note_on_c, 10, 66, 60
14, 2624, Note_on_c, 10, 66, 0
14, 2688, Note_on_c, 10, 66, 60
14, 2736, Note_on_c, 10, 66, 0
14, 2736, Note_on_c, 10, 67, 60
14, 2784, Note_on_c, 10, 67, 0
14, 2784, Note_on_c, 10, 69, 60
14, 2832, Note_on_c, 10, 69, 0
14, 2832, Note_on_c, 10, 67, 60
14, 2878, Note_on_c, 10, 67, 0
14, 2880, Note_on_c, 10, 67, 60
14, 2928, Note_on_c, 10, 67, 0
14, 2928, Note_on_c, 10, 69, 60
14, 2976, Note_on_c, 10, 69, 0
14, 2976, Note_on_c, 10, 70, 60
14, 3024, Note_on_c, 10, 70, 0
14, 3024, Note_on_c, 10, 69, 60
14, 3070, Note_on_c, 10, 69, 0
14, 3072, Note_on_c, 10, 69, 60
14, 3120, Note_on_c, 10, 69, 0
14, 3120, Note_on_c, 10, 71, 60
14, 3168, Note_on_c, 10, 71, 0
14, 3168, Note_on_c, 10, 72, 60
14, 3216, Note_on_c, 10, 72, 0
14, 3216, Note_on_c, 10, 71, 60
14, 3262, Note_on_c, 10, 71, 0
14, 3264, Note_on_c, 10, 71, 60
14, 3312, Note_on_c, 10, 71, 0
14, 3312, Note_on_c, 10, 72, 60
14, 3360, Note_on_c, 10, 72, 0
14, 3360, Note_on_c, 10, 74, 60
14, 3408, Note_on_c, 10, 74, 0
14, 3408, Note_on_c, 10, 72, 60
14, 3454, Note_on_c, 10, 72, 0
14, 3456, Note_on_c, 10, 72, 60
14, 3504, Note_on_c, 10, 72, 0
14, 3504, Note_on_c, 10, 74, 60
14, 3552, Note_on_c, 10, 74, 0
14, 3552, Note_on_c, 10, 75, 60
14, 3600, Note_on_c, 10, 75, 0
14, 3600, Note_on_c, 10, 74, 60
14, 3646, Note_on_c, 10, 74, 0
14, 3648, Note_on_c, 10, 74, 60
14, 3696, Note_on_c, 10, 74, 0
14, 3696, Note_on_c, 10, 72, 60
14, 3744, Note_on_c, 10, 72, 0
14, 3744, Note_on_c, 10, 71, 60
14, 3792, Note_on_c, 10, 71, 0
14, 3792, Note_on_c, 10, 72, 60
14, 3838, Note_on_c, 10, 72, 0
14, 3840, Note_on_c, 10, 72, 60
14, 4000, Note_on_c, 10, 72, 0
14, 6144, Note_on_c, 10, 72, 92
14, 6240, Note_on_c, 10, 72, 0
14, 6240, Note_on_c, 10, 67, 92
14, 6334, Note_on_c, 10, 67, 0
14, 6336, Note_on_c, 10, 67, 92
14, 6368, Note_on_c, 10, 67, 0
14, 6432, Note_on_c, 10, 67, 92
14, 6464, Note_on_c, 10, 67, 0
14, 6528, Note_on_c, 10, 67, 92
14, 6624, Note_on_c, 10, 67, 0
14, 6624, Note_on_c, 10, 63, 92
14, 6718, Note_on_c, 10, 63, 0
14, 6720, Note_on_c, 10, 63, 92
14, 6752, Note_on_c, 10, 63, 0
14, 6816, Note_on_c, 10, 63, 92
14, 6848, Note_on_c, 10, 63, 0
14, 6912, Note_on_c, 10, 62, 92
14, 6960, Note_on_c, 10, 62, 0
14, 6960, Note_on_c, 10, 64, 92
14, 7008, Note_on_c, 10, 64, 0
14, 7008, Note_on_c, 10, 65, 92
14, 7056, Note_on_c, 10, 65, 0
14, 7056, Note_on_c, 10, 64, 92
14, 7102, Note_on_c, 10, 64, 0
14, 7104, Note_on_c, 10, 65, 92
14, 7136, Note_on_c, 10, 65, 0
14, 7200, Note_on_c, 10, 65, 92
14, 7232, Note_on_c, 10, 65, 0
14, 7296, Note_on_c, 10, 65, 92
14, 7392, Note_on_c, 10, 65, 0
14, 7392, Note_on_c, 10, 64, 92
14, 7486, Note_on_c, 10, 64, 0
14, 7488, Note_on_c, 10, 60, 92
14, 7520, Note_on_c, 10, 60, 0
14, 7584, Note_on_c, 10, 60, 92
14, 7616, Note_on_c, 10, 60, 0
14, 7680, Note_on_c, 10, 60, 92
14, 7728, Note_on_c, 10, 60, 0
14, 7728, Note_on_c, 10, 62, 92
14, 7776, Note_on_c, 10, 62, 0
14, 7776, Note_on_c, 10, 63, 92
14, 7824, Note_on_c, 10, 63, 0
14, 7824, Note_on_c, 10, 62, 92
14, 7870, Note_on_c, 10, 62, 0
14, 7872, Note_on_c, 10, 63, 92
14, 7904, Note_on_c, 10, 63, 0
14, 7968, Note_on_c, 10, 63, 92
14, 8000, Note_on_c, 10, 63, 0
14, 8064, Note_on_c, 10, 63, 92
14, 8160, Note_on_c, 10, 63, 0
14, 8160, Note_on_c, 10, 62, 92
14, 8254, Note_on_c, 10, 62, 0
14, 8256, Note_on_c, 10, 58, 92
14, 8288, Note_on_c, 10, 58, 0
14, 8352, Note_on_c, 10, 58, 92
14, 8384, Note_on_c, 10, 58, 0
14, 8544, Note_on_c, 10, 67, 92
14, 8638, Note_on_c, 10, 67, 0
14, 8640, Note_on_c, 10, 63, 92
14, 8734, Note_on_c, 10, 63, 0
14, 8736, Note_on_c, 10, 60, 92
14, 8830, Note_on_c, 10, 60, 0
14, 8928, Note_on_c, 10, 68, 92
14, 9022, Note_on_c, 10, 68, 0
14, 9024, Note_on_c, 10, 62, 92
14, 9118, Note_on_c, 10, 62, 0
14, 9120, Note_on_c, 10, 67, 92
14, 9214, Note_on_c, 10, 67, 0
14, 9360, Note_on_c, 10, 72, 92
14, 9406, Note_on_c, 10, 72, 0
14, 9408, Note_on_c, 10, 75, 92
14, 9550, Note_on_c, 10, 75, 0
14, 9552, Note_on_c, 10, 72, 92
14, 9598, Note_on_c, 10, 72, 0
14, 9600, Note_on_c, 10, 79, 92
14, 9760, Note_on_c, 10, 79, 0
14, 9792, Note_on_c, 10, 67, 92
14, 10176, Note_on_c, 10, 67, 0
14, 10176, Note_on_c, 10, 66, 92
14, 10336, Note_on_c, 10, 66, 0
14, 10368, Note_on_c, 10, 62, 92
14, 10528, Note_on_c, 10, 62, 0
14, 10560, Note_on_c, 10, 65, 92
14, 10944, Note_on_c, 10, 65, 0
14, 10944, Note_on_c, 10, 64, 92
14, 11104, Note_on_c, 10, 64, 0
14, 11136, Note_on_c, 10, 60, 92
14, 11296, Note_on_c, 10, 60, 0
14, 11328, Note_on_c, 10, 63, 92
14, 11488, Note_on_c, 10, 63, 0
14, 11520, Note_on_c, 10, 62, 92
14, 11680, Note_on_c, 10, 62, 0
14, 11712, Note_on_c, 10, 67, 92
14, 12096, Note_on_c, 10, 67, 0
14, 12096, Note_on_c, 10, 66, 92
14, 12256, Note_on_c, 10, 66, 0
14, 12288, Note_on_c, 10, 67, 92
14, 12448, Note_on_c, 10, 67, 0
14, 12480, Note_on_c, 10, 72, 92
14, 12528, Note_on_c, 10, 72, 0
14, 12528, Note_on_c, 10, 74, 92
14, 12576, Note_on_c, 10, 74, 0
14, 12576, Note_on_c, 10, 75, 92
14, 12624, Note_on_c, 10, 75, 0
14, 12624, Note_on_c, 10, 72, 92
14, 12670, Note_on_c, 10, 72, 0
14, 12672, Note_on_c, 10, 77, 92
14, 12704, Note_on_c, 10, 77, 0
14, 12768, Note_on_c, 10, 77, 92
14, 12800, Note_on_c, 10, 77, 0
14, 12864, Note_on_c, 10, 77, 92
14, 12896, Note_on_c, 10, 77, 0
14, 12960, Note_on_c, 10, 77, 92
14, 12992, Note_on_c, 10, 77, 0
14, 13056, Note_on_c, 10, 75, 92
14, 13216, Note_on_c, 10, 75, 0
14, 13248, Note_on_c, 10, 63, 92
14, 13390, Note_on_c, 10, 63, 0
14, 13392, Note_on_c, 10, 67, 92
14, 13438, Note_on_c, 10, 67, 0
14, 13440, Note_on_c, 10, 72, 92
14, 13600, Note_on_c, 10, 72, 0
14, 13632, Note_on_c, 10, 67, 92
14, 13792, Note_on_c, 10, 67, 0
14, 13824, Note_on_c, 10, 77, 92
14, 13984, Note_on_c, 10, 77, 0
14, 14016, Note_on_c, 10, 74, 92
14, 14176, Note_on_c, 10, 74, 0
14, 14208, Note_on_c, 10, 79, 92
14, 14368, Note_on_c, 10, 79, 0
14, 14400, Note_on_c, 10, 67, 92
14, 14560, Note_on_c, 10, 67, 0
14, 14592, Note_on_c, 10, 75, 92
14, 14752, Note_on_c, 10, 75, 0
14, 14784, Note_on_c, 10, 72, 92
14, 14944, Note_on_c, 10, 72, 0
14, 14976, Note_on_c, 10, 77, 92
14, 15136, Note_on_c, 10, 77, 0
14, 15168, Note_on_c, 10, 65, 92
14, 15328, Note_on_c, 10, 65, 0
14, 15360, Note_on_c, 10, 63, 92
14, 15408, Note_on_c, 10, 63, 0
14, 15408, Note_on_c, 10, 65, 92
14, 15456, Note_on_c, 10, 65, 0
14, 15456, Note_on_c, 10, 67, 92
14, 15504, Note_on_c, 10, 67, 0
14, 15504, Note_on_c, 10, 63, 92
14, 15550, Note_on_c, 10, 63, 0
14, 15552, Note_on_c, 10, 72, 92
14, 15584, Note_on_c, 10, 72, 0
14, 15648, Note_on_c, 10, 72, 92
14, 15680, Note_on_c, 10, 72, 0
14, 15744, Note_on_c, 10, 62, 92
14, 15792, Note_on_c, 10, 62, 0
14, 15792, Note_on_c, 10, 63, 92
14, 15840, Note_on_c, 10, 63, 0
14, 15840, Note_on_c, 10, 65, 92
14, 15888, Note_on_c, 10, 65, 0
14, 15888, Note_on_c, 10, 62, 92
14, 15934, Note_on_c, 10, 62, 0
14, 15936, Note_on_c, 10, 74, 92
14, 15968, Note_on_c, 10, 74, 0
14, 16032, Note_on_c, 10, 74, 92
14, 16064, Note_on_c, 10, 74, 0
14, 16128, Note_on_c, 10, 63, 92
14, 16176, Note_on_c, 10, 63, 0
14, 16176, Note_on_c, 10, 65, 92
14, 16224, Note_on_c, 10, 65, 0
14, 16224, Note_on_c, 10, 67, 92
14, 16272, Note_on_c, 10, 67, 0
14, 16272, Note_on_c, 10, 63, 92
14, 16318, Note_on_c, 10, 63, 0
14, 16320, Note_on_c, 10, 75, 92
14, 16352, Note_on_c, 10, 75, 0
14, 16416, Note_on_c, 10, 75, 92
14, 16448, Note_on_c, 10, 75, 0
14, 16512, Note_on_c, 10, 65, 92
14, 16560, Note_on_c, 10, 65, 0
14, 16560, Note_on_c, 10, 67, 92
14, 16608, Note_on_c, 10, 67, 0
14, 16608, Note_on_c, 10, 68, 92
14, 16656, Note_on_c, 10, 68, 0
14, 16656, Note_on_c, 10, 65, 92
14, 16702, Note_on_c, 10, 65, 0
14, 16704, Note_on_c, 10, 77, 92
14, 16736, Note_on_c, 10, 77, 0
14, 16800, Note_on_c, 10, 77, 92
14, 16832, Note_on_c, 10, 77, 0
14, 16896, Note_on_c, 10, 67, 92
14, 16944, Note_on_c, 10, 67, 0
14, 16944, Note_on_c, 10, 68, 92
14, 16992, Note_on_c, 10, 68, 0
14, 16992, Note_on_c, 10, 70, 92
14, 17040, Note_on_c, 10, 70, 0
14, 17040, Note_on_c, 10, 67, 92
14, 17086, Note_on_c, 10, 67, 0
14, 17088, Note_on_c, 10, 79, 92
14, 17120, Note_on_c, 10, 79, 0
14, 17184, Note_on_c, 10, 79, 92
14, 17216, Note_on_c, 10, 79, 0
14, 17280, Note_on_c, 10, 69, 92
14, 17328, Note_on_c, 10, 69, 0
14, 17328, Note_on_c, 10, 70, 92
14, 17376, Note_on_c, 10, 70, 0
14, 17376, Note_on_c, 10, 72, 92
14, 17424, Note_on_c, 10, 72, 0
14, 17424, Note_on_c, 10, 69, 92
14, 17470, Note_on_c, 10, 69, 0
14, 17472, Note_on_c, 10, 81, 92
14, 17504, Note_on_c, 10, 81, 0
14, 17568, Note_on_c, 10, 81, 92
14, 17600, Note_on_c, 10, 81, 0
14, 17664, Note_on_c, 10, 70, 92
14, 17758, Note_on_c, 10, 70, 0
14, 17760, Note_on_c, 10, 82, 92
14, 17920, Note_on_c, 10, 82, 0
14, 17952, Note_on_c, 10, 82, 92
14, 18046, Note_on_c, 10, 82, 0
14, 18048, Note_on_c, 10, 58, 92
14, 18142, Note_on_c, 10, 58, 0
14, 18144, Note_on_c, 10, 82, 92
14, 18304, Note_on_c, 10, 82, 0
14, 18336, Note_on_c, 10, 82, 92
14, 18430, Note_on_c, 10, 82, 0
14, 18432, Note_on_c, 10, 63, 92
14, 18526, Note_on_c, 10, 63, 0
14, 18528, Note_on_c, 10, 82, 92
14, 18688, Note_on_c, 10, 82, 0
14, 18720, Note_on_c, 10, 82, 92
14, 18814, Note_on_c, 10, 82, 0
14, 18816, Note_on_c, 10, 61, 92
14, 18910, Note_on_c, 10, 61, 0
14, 18912, Note_on_c, 10, 82, 92
14, 19072, Note_on_c, 10, 82, 0
14, 19104, Note_on_c, 10, 82, 92
14, 19198, Note_on_c, 10, 82, 0
14, 19200, Note_on_c, 10, 81, 92
14, 19232, Note_on_c, 10, 81, 0
14, 19248, Note_on_c, 10, 74, 92
14, 19296, Note_on_c, 10, 74, 0
14, 19296, Note_on_c, 10, 86, 92
14, 19344, Note_on_c, 10, 86, 0
14, 19344, Note_on_c, 10, 85, 92
14, 19390, Note_on_c, 10, 85, 0
14, 19392, Note_on_c, 10, 86, 92
14, 19440, Note_on_c, 10, 86, 0
14, 19440, Note_on_c, 10, 74, 92
14, 19488, Note_on_c, 10, 74, 0
14, 19488, Note_on_c, 10, 86, 92
14, 19536, Note_on_c, 10, 86, 0
14, 19536, Note_on_c, 10, 85, 92
14, 19584, Note_on_c, 10, 85, 0
14, 19584, Note_on_c, 10, 86, 92
14, 19744, Note_on_c, 10, 86, 0
14, 19968, Note_on_c, 10, 79, 60
14, 20064, Note_on_c, 10, 79, 0
14, 20064, Note_on_c, 10, 74, 60
14, 20158, Note_on_c, 10, 74, 0
14, 20160, Note_on_c, 10, 74, 60
14, 20192, Note_on_c, 10, 74, 0
14, 20256, Note_on_c, 10, 74, 60
14, 20288, Note_on_c, 10, 74, 0
14, 20352, Note_on_c, 10, 74, 60
14, 20448, Note_on_c, 10, 74, 0
14, 20448, Note_on_c, 10, 70, 60
14, 20542, Note_on_c, 10, 70, 0
14, 20544, Note_on_c, 10, 70, 60
14, 20576, Note_on_c, 10, 70, 0
14, 20640, Note_on_c, 10, 70, 60
14, 20672, Note_on_c, 10, 70, 0
14, 20736, Note_on_c, 10, 70, 60
14, 20832, Note_on_c, 10, 70, 0
14, 20832, Note_on_c, 10, 69, 60
14, 20926, Note_on_c, 10, 69, 0
14, 20928, Note_on_c, 10, 69, 60
14, 20960, Note_on_c, 10, 69, 0
14, 21024, Note_on_c, 10, 69, 60
14, 21056, Note_on_c, 10, 69, 0
14, 21120, Note_on_c, 10, 69, 60
14, 21168, Note_on_c, 10, 69, 0
14, 21168, Note_on_c, 10, 71, 60
14, 21216, Note_on_c, 10, 71, 0
14, 21216, Note_on_c, 10, 72, 60
14, 21264, Note_on_c, 10, 72, 0
14, 21264, Note_on_c, 10, 71, 60
14, 21312, Note_on_c, 10, 71, 0
14, 21312, Note_on_c, 10, 72, 60
14, 21406, Note_on_c, 10, 72, 0
14, 21408, Note_on_c, 10, 72, 60
14, 21440, Note_on_c, 10, 72, 0
14, 21504, Note_on_c, 10, 72, 60
14, 21600, Note_on_c, 10, 72, 0
14, 21600, Note_on_c, 10, 71, 60
14, 21694, Note_on_c, 10, 71, 0
14, 21696, Note_on_c, 10, 71, 60
14, 21728, Note_on_c, 10, 71, 0
14, 21792, Note_on_c, 10, 71, 60
14, 21824, Note_on_c, 10, 71, 0
14, 21888, Note_on_c, 10, 71, 60
14, 21936, Note_on_c, 10, 71, 0
14, 21936, Note_on_c, 10, 73, 60
14, 21984, Note_on_c, 10, 73, 0
14, 21984, Note_on_c, 10, 74, 60
14, 22032, Note_on_c, 10, 74, 0
14, 22032, Note_on_c, 10, 73, 60
14, 22080, Note_on_c, 10, 73, 0
14, 22080, Note_on_c, 10, 74, 60
14, 22174, Note_on_c, 10, 74, 0
14, 22176, Note_on_c, 10, 74, 60
14, 22208, Note_on_c, 10, 74, 0
14, 22272, Note_on_c, 10, 74, 60
14, 22368, Note_on_c, 10, 74, 0
14, 22368, Note_on_c, 10, 73, 60
14, 22462, Note_on_c, 10, 73, 0
14, 22464, Note_on_c, 10, 73, 60
14, 22496, Note_on_c, 10, 73, 0
14, 22560, Note_on_c, 10, 73, 60
14, 22592, Note_on_c, 10, 73, 0
14, 22656, Note_on_c, 10, 73, 60
14, 22704, Note_on_c, 10, 73, 0
14, 22704, Note_on_c, 10, 74, 60
14, 22752, Note_on_c, 10, 74, 0
14, 22752, Note_on_c, 10, 76, 60
14, 22800, Note_on_c, 10, 76, 0
14, 22800, Note_on_c, 10, 74, 60
14, 22846, Note_on_c, 10, 74, 0
14, 22848, Note_on_c, 10, 74, 60
14, 22896, Note_on_c, 10, 74, 0
14, 22896, Note_on_c, 10, 76, 60
14, 22944, Note_on_c, 10, 76, 0
14, 22944, Note_on_c, 10, 77, 60
14, 22992, Note_on_c, 10, 77, 0
14, 22992, Note_on_c, 10, 76, 60
14, 23038, Note_on_c, 10, 76, 0
14, 23040, Note_on_c, 10, 76, 60
14, 23088, Note_on_c, 10, 76, 0
14, 23088, Note_on_c, 10, 78, 60
14, 23136, Note_on_c, 10, 78, 0
14, 23136, Note_on_c, 10, 79, 60
14, 23184, Note_on_c, 10, 79, 0
14, 23184, Note_on_c, 10, 78, 60
14, 23230, Note_on_c, 10, 78, 0
14, 23232, Note_on_c, 10, 78, 60
14, 23280, Note_on_c, 10, 78, 0
14, 23280, Note_on_c, 10, 79, 60
14, 23328, Note_on_c, 10, 79, 0
14, 23328, Note_on_c, 10, 81, 60
14, 23376, Note_on_c, 10, 81, 0
14, 23376, Note_on_c, 10, 79, 60
14, 23422, Note_on_c, 10, 79, 0
14, 23424, Note_on_c, 10, 79, 60
14, 23472, Note_on_c, 10, 79, 0
14, 23472, Note_on_c, 10, 81, 60
14, 23520, Note_on_c, 10, 81, 0
14, 23520, Note_on_c, 10, 82, 60
14, 23568, Note_on_c, 10, 82, 0
14, 23568, Note_on_c, 10, 81, 60
14, 23614, Note_on_c, 10, 81, 0
14, 23616, Note_on_c, 10, 81, 60
14, 23664, Note_on_c, 10, 81, 0
14, 23664, Note_on_c, 10, 79, 60
14, 23712, Note_on_c, 10, 79, 0
14, 23712, Note_on_c, 10, 78, 60
14, 23760, Note_on_c, 10, 78, 0
14, 23760, Note_on_c, 10, 79, 60
14, 23806, Note_on_c, 10, 79, 0
14, 23808, Note_on_c, 10, 79, 60
14, 23968, Note_on_c, 10, 79, 0
14, 24576, Note_on_c, 10, 80, 60
14, 24624, Note_on_c, 10, 80, 0
14, 24624, Note_on_c, 10, 79, 60
14, 24670, Note_on_c, 10, 79, 0
14, 24672, Note_on_c, 10, 79, 60
14, 24720, Note_on_c, 10, 79, 0
14, 24720, Note_on_c, 10, 77, 60
14, 24766, Note_on_c, 10, 77, 0
14, 24768, Note_on_c, 10, 77, 60
14, 24816, Note_on_c, 10, 77, 0
14, 24816, Note_on_c, 10, 75, 60
14, 24862, Note_on_c, 10, 75, 0
14, 24864, Note_on_c, 10, 75, 60
14, 24912, Note_on_c, 10, 75, 0
14, 24912, Note_on_c, 10, 74, 60
14, 24958, Note_on_c, 10, 74, 0
14, 24960, Note_on_c, 10, 74, 60
14, 25008, Note_on_c, 10, 74, 0
14, 25008, Note_on_c, 10, 72, 60
14, 25054, Note_on_c, 10, 72, 0
14, 25056, Note_on_c, 10, 72, 60
14, 25104, Note_on_c, 10, 72, 0
14, 25104, Note_on_c, 10, 70, 60
14, 25150, Note_on_c, 10, 70, 0
14, 25152, Note_on_c, 10, 70, 60
14, 25200, Note_on_c, 10, 70, 0
14, 25200, Note_on_c, 10, 68, 60
14, 25246, Note_on_c, 10, 68, 0
14, 25248, Note_on_c, 10, 68, 60
14, 25296, Note_on_c, 10, 68, 0
14, 25296, Note_on_c, 10, 67, 60
14, 25342, Note_on_c, 10, 67, 0
14, 25344, Note_on_c, 10, 67, 60
14, 25438, Note_on_c, 10, 67, 0
14, 25440, Note_on_c, 10, 55, 45
14, 25472, Note_on_c, 10, 55, 0
14, 25536, Note_on_c, 10, 58, 45
14, 25568, Note_on_c, 10, 58, 0
14, 25632, Note_on_c, 10, 63, 45
14, 25664, Note_on_c, 10, 63, 0
14, 25728, Note_on_c, 10, 58, 45
14, 25760, Note_on_c, 10, 58, 0
14, 25824, Note_on_c, 10, 55, 45
14, 25856, Note_on_c, 10, 55, 0
14, 25920, Note_on_c, 10, 58, 45
14, 25952, Note_on_c, 10, 58, 0
14, 26016, Note_on_c, 10, 63, 45
14, 26048, Note_on_c, 10, 63, 0
14, 26208, Note_on_c, 10, 55, 45
14, 26240, Note_on_c, 10, 55, 0
14, 26304, Note_on_c, 10, 58, 45
14, 26336, Note_on_c, 10, 58, 0
14, 26400, Note_on_c, 10, 63, 45
14, 26432, Note_on_c, 10, 63, 0
14, 26496, Note_on_c, 10, 58, 45
14, 26528, Note_on_c, 10, 58, 0
14, 26592, Note_on_c, 10, 55, 45
14, 26624, Note_on_c, 10, 55, 0
14, 26688, Note_on_c, 10, 58, 45
14, 26720, Note_on_c, 10, 58, 0
14, 26784, Note_on_c, 10, 63, 45
14, 26816, Note_on_c, 10, 63, 0
14, 26976, Note_on_c, 10, 56, 45
14, 27008, Note_on_c, 10, 56, 0
14, 27072, Note_on_c, 10, 60, 45
14, 27104, Note_on_c, 10, 60, 0
14, 27168, Note_on_c, 10, 63, 45
14, 27200, Note_on_c, 10, 63, 0
14, 27264, Note_on_c, 10, 65, 45
14, 27296, Note_on_c, 10, 65, 0
14, 27360, Note_on_c, 10, 58, 45
14, 27392, Note_on_c, 10, 58, 0
14, 27456, Note_on_c, 10, 62, 45
14, 27488, Note_on_c, 10, 62, 0
14, 27552, Note_on_c, 10, 65, 45
14, 27584, Note_on_c, 10, 65, 0
14, 27648, Note_on_c, 10, 66, 45
14, 27744, Note_on_c, 10, 66, 0
14, 27744, Note_on_c, 10, 67, 45
14, 27838, Note_on_c, 10, 67, 0
14, 27840, Note_on_c, 10, 67, 45
14, 28000, Note_on_c, 10, 67, 0
14, 28416, Note_on_c, 10, 55, 45
14, 28416, Note_on_c, 10, 63, 45
14, 28510, Note_on_c, 10, 55, 0
14, 28510, Note_on_c, 10, 63, 0
14, 28512, Note_on_c, 10, 55, 45
14, 28512, Note_on_c, 10, 63, 45
14, 28672, Note_on_c, 10, 55, 0
14, 28672, Note_on_c, 10, 63, 0
14, 28704, Note_on_c, 10, 55, 45
14, 28704, Note_on_c, 10, 63, 45
14, 28864, Note_on_c, 10, 55, 0
14, 28864, Note_on_c, 10, 63, 0
14, 28896, Note_on_c, 10, 55, 45
14, 28896, Note_on_c, 10, 63, 45
14, 29056, Note_on_c, 10, 55, 0
14, 29056, Note_on_c, 10, 63, 0
14, 29088, Note_on_c, 10, 55, 45
14, 29088, Note_on_c, 10, 63, 45
14, 29182, Note_on_c, 10, 55, 0
14, 29182, Note_on_c, 10, 63, 0
14, 29184, Note_on_c, 10, 58, 45
14, 29184, Note_on_c, 10, 65, 45
14, 29278, Note_on_c, 10, 58, 0
14, 29278, Note_on_c, 10, 65, 0
14, 29280, Note_on_c, 10, 58, 45
14, 29280, Note_on_c, 10, 65, 45
14, 29440, Note_on_c, 10, 58, 0
14, 29440, Note_on_c, 10, 65, 0
14, 29472, Note_on_c, 10, 58, 45
14, 29472, Note_on_c, 10, 65, 45
14, 29632, Note_on_c, 10, 58, 0
14, 29632, Note_on_c, 10, 65, 0
14, 29664, Note_on_c, 10, 58, 45
14, 29664, Note_on_c, 10, 65, 45
14, 29824, Note_on_c, 10, 58, 0
14, 29824, Note_on_c, 10, 65, 0
14, 29856, Note_on_c, 10, 58, 45
14, 29856, Note_on_c, 10, 65, 45
14, 29950, Note_on_c, 10, 58, 0
14, 29950, Note_on_c, 10, 65, 0
14, 29952, Note_on_c, 10, 67, 45
14, 30336, Note_on_c, 10, 67, 0
14, 30336, Note_on_c, 10, 70, 45
14, 30672, Note_on_c, 10, 70, 0
14, 30720, Note_on_c, 10, 68, 45
14, 31440, Note_on_c, 10, 68, 0
14, 31488, Note_on_c, 10, 67, 45
14, 31582, Note_on_c, 10, 67, 0
14, 31584, Note_on_c, 10, 63, 45
14, 31744, Note_on_c, 10, 63, 0
14, 31776, Note_on_c, 10, 63, 45
14, 31936, Note_on_c, 10, 63, 0
14, 31968, Note_on_c, 10, 63, 45
14, 32128, Note_on_c, 10, 63, 0
14, 32160, Note_on_c, 10, 63, 45
14, 32256, Note_on_c, 10, 63, 0
14, 32256, Note_on_c, 10, 65, 45
14, 32350, Note_on_c, 10, 65, 0
14, 32352, Note_on_c, 10, 65, 45
14, 32512, Note_on_c, 10, 65, 0
14, 32544, Note_on_c, 10, 65, 45
14, 32704, Note_on_c, 10, 65, 0
14, 32736, Note_on_c, 10, 65, 45
14, 32896, Note_on_c, 10, 65, 0
14, 32928, Note_on_c, 10, 65, 45
14, 33022, Note_on_c, 10, 65, 0
14, 33024, Note_on_c, 10, 67, 45
14, 33408, Note_on_c, 10, 67, 0
14, 33408, Note_on_c, 10, 70, 45
14, 33744, Note_on_c, 10, 70, 0
14, 33792, Note_on_c, 10, 68, 45
14, 34512, Note_on_c, 10, 68, 0
14, 34560, Note_on_c, 10, 67, 45
14, 34720, Note_on_c, 10, 67, 0
14, 34752, Note_on_c, 10, 70, 45
14, 34912, Note_on_c, 10, 70, 0
14, 34944, Note_on_c, 10, 70, 45
14, 35104, Note_on_c, 10, 70, 0
14, 35136, Note_on_c, 10, 70, 45
14, 35296, Note_on_c, 10, 70, 0
14, 35520, Note_on_c, 10, 75, 45
14, 35680, Note_on_c, 10, 75, 0
14, 35712, Note_on_c, 10, 75, 45
14, 35872, Note_on_c, 10, 75, 0
14, 35904, Note_on_c, 10, 75, 52
14, 36064, Note_on_c, 10, 75, 0
14, 36288, Note_on_c, 10, 79, 68
14, 36448, Note_on_c, 10, 79, 0
14, 36480, Note_on_c, 10, 79, 76
14, 36640, Note_on_c, 10, 79, 0
14, 36672, Note_on_c, 10, 79, 84
14, 36832, Note_on_c, 10, 79, 0
14, 36864, Note_on_c, 10, 79, 92
14, 37200, Note_on_c, 10, 79, 0
14, 37632, Note_on_c, 10, 67, 45
14, 37726, Note_on_c, 10, 67, 0
14, 38016, Note_on_c, 10, 65, 45
14, 38110, Note_on_c, 10, 65, 0
14, 38592, Note_on_c, 10, 58, 45
14, 38928, Note_on_c, 10, 58, 0
14, 38976, Note_on_c, 10, 58, 45
14, 39136, Note_on_c, 10, 58, 0
14, 39360, Note_on_c, 10, 56, 45
14, 39696, Note_on_c, 10, 56, 0
14, 39744, Note_on_c, 10, 56, 45
14, 39904, Note_on_c, 10, 56, 0
14, 40128, Note_on_c, 10, 65, 92
14, 40128, Note_on_c, 10, 74, 92
14, 40464, Note_on_c, 10, 65, 0
14, 40464, Note_on_c, 10, 74, 0
14, 40512, Note_on_c, 10, 65, 92
14, 40512, Note_on_c, 10, 74, 92
14, 40672, Note_on_c, 10, 65, 0
14, 40672, Note_on_c, 10, 74, 0
14, 40704, Note_on_c, 10, 63, 92
14, 40704, Note_on_c, 10, 75, 92
14, 40864, Note_on_c, 10, 63, 0
14, 40864, Note_on_c, 10, 75, 0
14, 41856, Note_on_c, 10, 71, 45
14, 42192, Note_on_c, 10, 71, 0
14, 42240, Note_on_c, 10, 72, 45
14, 42624, Note_on_c, 10, 72, 0
14, 42624, Note_on_c, 10, 65, 45
14, 42718, Note_on_c, 10, 65, 0
14, 43008, Note_on_c, 10, 67, 45
14, 43344, Note_on_c, 10, 67, 0
14, 43392, Note_on_c, 10, 70, 45
14, 43488, Note_on_c, 10, 70, 0
14, 43488, Note_on_c, 10, 68, 45
14, 43584, Note_on_c, 10, 68, 0
14, 43584, Note_on_c, 10, 67, 45
14, 43680, Note_on_c, 10, 67, 0
14, 43680, Note_on_c, 10, 65, 45
14, 43774, Note_on_c, 10, 65, 0
14, 43776, Note_on_c, 10, 63, 45
14, 44112, Note_on_c, 10, 63, 0
14, 44256, Note_on_c, 10, 63, 45
14, 44352, Note_on_c, 10, 63, 0
14, 44352, Note_on_c, 10, 65, 45
14, 44448, Note_on_c, 10, 65, 0
14, 44448, Note_on_c, 10, 67, 45
14, 44542, Note_on_c, 10, 67, 0
14, 44544, Note_on_c, 10, 67, 45
14, 44640, Note_on_c, 10, 67, 0
14, 44640, Note_on_c, 10, 68, 45
14, 44736, Note_on_c, 10, 68, 0
14, 44736, Note_on_c, 10, 64, 45
14, 44832, Note_on_c, 10, 64, 0
14, 44832, Note_on_c, 10, 65, 45
14, 44926, Note_on_c, 10, 65, 0
14, 45024, Note_on_c, 10, 65, 45
14, 45120, Note_on_c, 10, 65, 0
14, 45120, Note_on_c, 10, 67, 45
14, 45216, Note_on_c, 10, 67, 0
14, 45216, Note_on_c, 10, 68, 45
14, 45310, Note_on_c, 10, 68, 0
14, 45312, Note_on_c, 10, 69, 45
14, 45408, Note_on_c, 10, 69, 0
14, 45408, Note_on_c, 10, 70, 45
14, 45504, Note_on_c, 10, 70, 0
14, 45504, Note_on_c, 10, 66, 45
14, 45600, Note_on_c, 10, 66, 0
14, 45600, Note_on_c, 10, 67, 45
14, 45694, Note_on_c, 10, 67, 0
14, 45792, Note_on_c, 10, 67, 45
14, 45888, Note_on_c, 10, 67, 0
14, 45888, Note_on_c, 10, 68, 45
14, 45984, Note_on_c, 10, 68, 0
14, 45984, Note_on_c, 10, 70, 45
14, 46078, Note_on_c, 10, 70, 0
14, 46080, Note_on_c, 10, 71, 45
14, 46176, Note_on_c, 10, 71, 0
14, 46176, Note_on_c, 10, 72, 45
14, 46272, Note_on_c, 10, 72, 0
14, 46272, Note_on_c, 10, 74, 45
14, 46368, Note_on_c, 10, 74, 0
14, 46368, Note_on_c, 10, 75, 45
14, 46464, Note_on_c, 10, 75, 0
14, 46464, Note_on_c, 10, 74, 45
14, 46560, Note_on_c, 10, 74, 0
14, 46560, Note_on_c, 10, 72, 45
14, 46656, Note_on_c, 10, 72, 0
14, 46656, Note_on_c, 10, 70, 45
14, 46752, Note_on_c, 10, 70, 0
14, 46752, Note_on_c, 10, 68, 45
14, 46846, Note_on_c, 10, 68, 0
14, 46848, Note_on_c, 10, 68, 45
14, 47040, Note_on_c, 10, 68, 0
14, 47040, Note_on_c, 10, 67, 45
14, 47200, Note_on_c, 10, 67, 0
14, 47328, Note_on_c, 10, 75, 60
14, 47424, Note_on_c, 10, 75, 0
14, 47424, Note_on_c, 10, 77, 60
14, 47520, Note_on_c, 10, 77, 0
14, 47520, Note_on_c, 10, 79, 60
14, 47614, Note_on_c, 10, 79, 0
14, 47616, Note_on_c, 10, 79, 60
14, 47712, Note_on_c, 10, 79, 0
14, 47712, Note_on_c, 10, 80, 60
14, 47808, Note_on_c, 10, 80, 0
14, 47808, Note_on_c, 10, 76, 60
14, 47904, Note_on_c, 10, 76, 0
14, 47904, Note_on_c, 10, 77, 60
14, 47998, Note_on_c, 10, 77, 0
14, 48096, Note_on_c, 10, 77, 60
14, 48192, Note_on_c, 10, 77, 0
14, 48192, Note_on_c, 10, 79, 60
14, 48288, Note_on_c, 10, 79, 0
14, 48288, Note_on_c, 10, 80, 60
14, 48382, Note_on_c, 10, 80, 0
14, 48384, Note_on_c, 10, 81, 60
14, 48480, Note_on_c, 10, 81, 0
14, 48480, Note_on_c, 10, 82, 60
14, 48576, Note_on_c, 10, 82, 0
14, 48576, Note_on_c, 10, 78, 60
14, 48672, Note_on_c, 10, 78, 0
14, 48672, Note_on_c, 10, 79, 60
14, 48766, Note_on_c, 10, 79, 0
14, 48864, Note_on_c, 10, 67, 45
14, 48960, Note_on_c, 10, 67, 0
14, 48960, Note_on_c, 10, 68, 45
14, 49056, Note_on_c, 10, 68, 0
14, 49056, Note_on_c, 10, 70, 45
14, 49150, Note_on_c, 10, 70, 0
14, 49248, Note_on_c, 10, 72, 45
14, 49342, Note_on_c, 10, 72, 0
14, 49344, Note_on_c, 10, 72, 45
14, 49438, Note_on_c, 10, 72, 0
14, 49440, Note_on_c, 10, 72, 45
14, 49534, Note_on_c, 10, 72, 0
14, 49632, Note_on_c, 10, 74, 45
14, 49726, Note_on_c, 10, 74, 0
14, 49728, Note_on_c, 10, 74, 45
14, 49822, Note_on_c, 10, 74, 0
14, 49824, Note_on_c, 10, 74, 45
14, 49918, Note_on_c, 10, 74, 0
14, 50016, Note_on_c, 10, 75, 45
14, 50110, Note_on_c, 10, 75, 0
14, 50208, Note_on_c, 10, 76, 45
14, 50302, Note_on_c, 10, 76, 0
14, 50400, Note_on_c, 10, 77, 45
14, 50494, Note_on_c, 10, 77, 0
14, 50592, Note_on_c, 10, 78, 45
14, 50686, Note_on_c, 10, 78, 0
14, 50688, Note_on_c, 10, 79, 45
14, 50782, Note_on_c, 10, 79, 0
14, 50880, Note_on_c, 10, 74, 45
14, 50974, Note_on_c, 10, 74, 0
14, 51072, Note_on_c, 10, 75, 45
14, 51166, Note_on_c, 10, 75, 0
14, 51264, Note_on_c, 10, 73, 45
14, 51358, Note_on_c, 10, 73, 0
14, 51456, Note_on_c, 10, 72, 45
14, 51840, Note_on_c, 10, 72, 0
14, 51840, Note_on_c, 10, 68, 45
14, 52176, Note_on_c, 10, 68, 0
14, 52224, Note_on_c, 10, 67, 45
14, 52318, Note_on_c, 10, 67, 0
14, 52320, Note_on_c, 10, 67, 45
14, 52414, Note_on_c, 10, 67, 0
14, 52416, Note_on_c, 10, 67, 45
14, 52510, Note_on_c, 10, 67, 0
14, 52512, Note_on_c, 10, 67, 45
14, 52606, Note_on_c, 10, 67, 0
14, 52608, Note_on_c, 10, 67, 45
14, 52702, Note_on_c, 10, 67, 0
14, 52704, Note_on_c, 10, 67, 45
14, 52798, Note_on_c, 10, 67, 0
14, 52800, Note_on_c, 10, 67, 45
14, 52894, Note_on_c, 10, 67, 0
14, 52896, Note_on_c, 10, 67, 45
14, 52990, Note_on_c, 10, 67, 0
14, 52992, Note_on_c, 10, 65, 45
14, 53086, Note_on_c, 10, 65, 0
14, 53088, Note_on_c, 10, 65, 45
14, 53182, Note_on_c, 10, 65, 0
14, 53184, Note_on_c, 10, 65, 45
14, 53278, Note_on_c, 10, 65, 0
14, 53280, Note_on_c, 10, 65, 45
14, 53374, Note_on_c, 10, 65, 0
14, 53376, Note_on_c, 10, 65, 45
14, 53470, Note_on_c, 10, 65, 0
14, 53472, Note_on_c, 10, 65, 45
14, 53566, Note_on_c, 10, 65, 0
14, 53568, Note_on_c, 10, 65, 45
14, 53662, Note_on_c, 10, 65, 0
14, 53664, Note_on_c, 10, 65, 45
14, 53758, Note_on_c, 10, 65, 0
14, 53760, Note_on_c, 10, 75, 92
14, 53856, Note_on_c, 10, 75, 0
14, 53856, Note_on_c, 10, 70, 92
14, 53950, Note_on_c, 10, 70, 0
14, 53952, Note_on_c, 10, 70, 92
14, 53984, Note_on_c, 10, 70, 0
14, 54048, Note_on_c, 10, 70, 92
14, 54080, Note_on_c, 10, 70, 0
14, 54144, Note_on_c, 10, 70, 92
14, 54240, Note_on_c, 10, 70, 0
14, 54240, Note_on_c, 10, 67, 92
14, 54334, Note_on_c, 10, 67, 0
14, 54336, Note_on_c, 10, 67, 92
14, 54368, Note_on_c, 10, 67, 0
14, 54432, Note_on_c, 10, 67, 92
14, 54464, Note_on_c, 10, 67, 0
14, 54528, Note_on_c, 10, 65, 92
14, 54576, Note_on_c, 10, 65, 0
14, 54576, Note_on_c, 10, 67, 92
14, 54624, Note_on_c, 10, 67, 0
14, 54624, Note_on_c, 10, 68, 92
14, 54672, Note_on_c, 10, 68, 0
14, 54672, Note_on_c, 10, 67, 92
14, 54718, Note_on_c, 10, 67, 0
14, 54720, Note_on_c, 10, 68, 92
14, 54752, Note_on_c, 10, 68, 0
14, 54816, Note_on_c, 10, 68, 92
14, 54848, Note_on_c, 10, 68, 0
14, 54912, Note_on_c, 10, 68, 92
14, 55008, Note_on_c, 10, 68, 0
14, 55008, Note_on_c, 10, 67, 92
14, 55102, Note_on_c, 10, 67, 0
14, 55104, Note_on_c, 10, 63, 92
14, 55136, Note_on_c, 10, 63, 0
14, 55200, Note_on_c, 10, 63, 92
14, 55232, Note_on_c, 10, 63, 0
14, 55296, Note_on_c, 10, 64, 92
14, 55344, Note_on_c, 10, 64, 0
14, 55344, Note_on_c, 10, 65, 92
14, 55392, Note_on_c, 10, 65, 0
14, 55392, Note_on_c, 10, 67, 92
14, 55440, Note_on_c, 10, 67, 0
14, 55440, Note_on_c, 10, 65, 92
14, 55486, Note_on_c, 10, 65, 0
14, 55488, Note_on_c, 10, 67, 92
14, 55520, Note_on_c, 10, 67, 0
14, 55584, Note_on_c, 10, 67, 92
14, 55616, Note_on_c, 10, 67, 0
14, 55680, Note_on_c, 10, 67, 92
14, 55776, Note_on_c, 10, 67, 0
14, 55776, Note_on_c, 10, 65, 92
14, 55870, Note_on_c, 10, 65, 0
14, 55872, Note_on_c, 10, 72, 92
14, 55968, Note_on_c, 10, 72, 0
14, 55968, Note_on_c, 10, 68, 92
14, 56062, Note_on_c, 10, 68, 0
14, 56064, Note_on_c, 10, 67, 92
14, 56112, Note_on_c, 10, 67, 0
14, 56112, Note_on_c, 10, 69, 92
14, 56160, Note_on_c, 10, 69, 0
14, 56160, Note_on_c, 10, 70, 92
14, 56208, Note_on_c, 10, 70, 0
14, 56208, Note_on_c, 10, 69, 92
14, 56254, Note_on_c, 10, 69, 0
14, 56256, Note_on_c, 10, 70, 92
14, 56288, Note_on_c, 10, 70, 0
14, 56352, Note_on_c, 10, 70, 92
14, 56384, Note_on_c, 10, 70, 0
14, 56448, Note_on_c, 10, 70, 92
14, 56544, Note_on_c, 10, 70, 0
14, 56544, Note_on_c, 10, 69, 92
14, 56638, Note_on_c, 10, 69, 0
14, 56640, Note_on_c, 10, 65, 92
14, 56672, Note_on_c, 10, 65, 0
14, 56736, Note_on_c, 10, 65, 92
14, 56768, Note_on_c, 10, 65, 0
14, 56832, Note_on_c, 10, 66, 92
14, 56880, Note_on_c, 10, 66, 0
14, 56880, Note_on_c, 10, 67, 92
14, 56928, Note_on_c, 10, 67, 0
14, 56928, Note_on_c, 10, 69, 92
14, 56976, Note_on_c, 10, 69, 0
14, 56976, Note_on_c, 10, 67, 92
14, 57022, Note_on_c, 10, 67, 0
14, 57024, Note_on_c, 10, 69, 92
14, 57056, Note_on_c, 10, 69, 0
14, 57120, Note_on_c, 10, 69, 92
14, 57152, Note_on_c, 10, 69, 0
14, 57216, Note_on_c, 10, 69, 92
14, 57312, Note_on_c, 10, 69, 0
14, 57312, Note_on_c, 10, 67, 92
14, 57406, Note_on_c, 10, 67, 0
14, 57408, Note_on_c, 10, 74, 92
14, 57504, Note_on_c, 10, 74, 0
14, 57504, Note_on_c, 10, 70, 92
14, 57598, Note_on_c, 10, 70, 0
14, 57600, Note_on_c, 10, 69, 92
14, 57648, Note_on_c, 10, 69, 0
14, 57648, Note_on_c, 10, 71, 92
14, 57696, Note_on_c, 10, 71, 0
14, 57696, Note_on_c, 10, 72, 92
14, 57744, Note_on_c, 10, 72, 0
14, 57744, Note_on_c, 10, 71, 92
14, 57790, Note_on_c, 10, 71, 0
14, 57792, Note_on_c, 10, 72, 92
14, 57824, Note_on_c, 10, 72, 0
14, 57888, Note_on_c, 10, 72, 92
14, 57920, Note_on_c, 10, 72, 0
14, 57984, Note_on_c, 10, 72, 92
14, 58080, Note_on_c, 10, 72, 0
14, 58080, Note_on_c, 10, 71, 92
14, 58174, Note_on_c, 10, 71, 0
14, 58176, Note_on_c, 10, 67, 92
14, 58208, Note_on_c, 10, 67, 0
14, 58272, Note_on_c, 10, 67, 92
14, 58304, Note_on_c, 10, 67, 0
14, 58368, Note_on_c, 10, 79, 92
14, 58462, Note_on_c, 10, 79, 0
14, 58464, Note_on_c, 10, 79, 92
14, 58624, Note_on_c, 10, 79, 0
14, 58656, Note_on_c, 10, 79, 92
14, 58816, Note_on_c, 10, 79, 0
14, 58848, Note_on_c, 10, 79, 92
14, 59008, Note_on_c, 10, 79, 0
14, 59040, Note_on_c, 10, 67, 92
14, 59134, Note_on_c, 10, 67, 0
14, 59136, Note_on_c, 10, 77, 92
14, 59278, Note_on_c, 10, 77, 0
14, 59280, Note_on_c, 10, 74, 92
14, 59326, Note_on_c, 10, 74, 0
14, 59328, Note_on_c, 10, 74, 92
14, 59344, Note_on_c, 10, 74, 0
14, 59344, Note_on_c, 10, 76, 92
14, 59360, Note_on_c, 10, 76, 0
14, 59360, Note_on_c, 10, 74, 92
14, 59376, Note_on_c, 10, 74, 0
14, 59376, Note_on_c, 10, 76, 92
14, 59392, Note_on_c, 10, 76, 0
14, 59392, Note_on_c, 10, 74, 92
14, 59408, Note_on_c, 10, 74, 0
14, 59408, Note_on_c, 10, 76, 92
14, 59424, Note_on_c, 10, 76, 0
14, 59424, Note_on_c, 10, 74, 92
14, 59440, Note_on_c, 10, 74, 0
14, 59440, Note_on_c, 10, 76, 92
14, 59456, Note_on_c, 10, 76, 0
14, 59456, Note_on_c, 10, 74, 92
14, 59472, Note_on_c, 10, 74, 0
14, 59472, Note_on_c, 10, 72, 92
14, 59496, Note_on_c, 10, 72, 0
14, 59496, Note_on_c, 10, 74, 92
14, 59518, Note_on_c, 10, 74, 0
14, 59520, Note_on_c, 10, 79, 92
14, 59662, Note_on_c, 10, 79, 0
14, 59664, Note_on_c, 10, 67, 92
14, 59710, Note_on_c, 10, 67, 0
14, 59712, Note_on_c, 10, 67, 92
14, 59728, Note_on_c, 10, 67, 0
14, 59728, Note_on_c, 10, 69, 92
14, 59744, Note_on_c, 10, 69, 0
14, 59744, Note_on_c, 10, 67, 92
14, 59760, Note_on_c, 10, 67, 0
14, 59760, Note_on_c, 10, 69, 92
14, 59776, Note_on_c, 10, 69, 0
14, 59776, Note_on_c, 10, 67, 92
14, 59792, Note_on_c, 10, 67, 0
14, 59792, Note_on_c, 10, 69, 92
14, 59808, Note_on_c, 10, 69, 0
14, 59808, Note_on_c, 10, 67, 92
14, 59824, Note_on_c, 10, 67, 0
14, 59824, Note_on_c, 10, 69, 92
14, 59840, Note_on_c, 10, 69, 0
14, 59840, Note_on_c, 10, 67, 92
14, 59856, Note_on_c, 10, 67, 0
14, 59856, Note_on_c, 10, 65, 92
14, 59880, Note_on_c, 10, 65, 0
14, 59880, Note_on_c, 10, 67, 92
14, 59902, Note_on_c, 10, 67, 0
14, 59904, Note_on_c, 10, 75, 92
14, 60046, Note_on_c, 10, 75, 0
14, 60048, Note_on_c, 10, 72, 92
14, 60094, Note_on_c, 10, 72, 0
14, 60096, Note_on_c, 10, 72, 92
14, 60112, Note_on_c, 10, 72, 0
14, 60112, Note_on_c, 10, 74, 92
14, 60128, Note_on_c, 10, 74, 0
14, 60128, Note_on_c, 10, 72, 92
14, 60144, Note_on_c, 10, 72, 0
14, 60144, Note_on_c, 10, 74, 92
14, 60160, Note_on_c, 10, 74, 0
14, 60160, Note_on_c, 10, 72, 92
14, 60176, Note_on_c, 10, 72, 0
14, 60176, Note_on_c, 10, 74, 92
14, 60192, Note_on_c, 10, 74, 0
14, 60192, Note_on_c, 10, 72, 92
14, 60208, Note_on_c, 10, 72, 0
14, 60208, Note_on_c, 10, 74, 92
14, 60224, Note_on_c, 10, 74, 0
14, 60224, Note_on_c, 10, 72, 92
14, 60240, Note_on_c, 10, 72, 0
14, 60240, Note_on_c, 10, 70, 92
14, 60264, Note_on_c, 10, 70, 0
14, 60264, Note_on_c, 10, 72, 92
14, 60286, Note_on_c, 10, 72, 0
14, 60288, Note_on_c, 10, 77, 92
14, 60430, Note_on_c, 10, 77, 0
14, 60432, Note_on_c, 10, 65, 92
14, 60478, Note_on_c, 10, 65, 0
14, 60480, Note_on_c, 10, 65, 92
14, 60496, Note_on_c, 10, 65, 0
14, 60496, Note_on_c, 10, 67, 92
14, 60512, Note_on_c, 10, 67, 0
14, 60512, Note_on_c, 10, 65, 92
14, 60528, Note_on_c, 10, 65, 0
14, 60528, Note_on_c, 10, 67, 92
14, 60544, Note_on_c, 10, 67, 0
14, 60544, Note_on_c, 10, 65, 92
14, 60560, Note_on_c, 10, 65, 0
14, 60560, Note_on_c, 10, 67, 92
14, 60576, Note_on_c, 10, 67, 0
14, 60576, Note_on_c, 10, 65, 92
14, 60592, Note_on_c, 10, 65, 0
14, 60592, Note_on_c, 10, 67, 92
14, 60608, Note_on_c, 10, 67, 0
14, 60608, Note_on_c, 10, 65, 92
14, 60624, Note_on_c, 10, 65, 0
14, 60624, Note_on_c, 10, 63, 92
14, 60648, Note_on_c, 10, 63, 0
14, 60648, Note_on_c, 10, 65, 92
14, 60670, Note_on_c, 10, 65, 0
14, 60672, Note_on_c, 10, 63, 92
14, 60720, Note_on_c, 10, 63, 0
14, 60720, Note_on_c, 10, 65, 92
14, 60768, Note_on_c, 10, 65, 0
14, 60768, Note_on_c, 10, 67, 92
14, 60816, Note_on_c, 10, 67, 0
14, 60816, Note_on_c, 10, 63, 92
14, 60862, Note_on_c, 10, 63, 0
14, 60864, Note_on_c, 10, 72, 92
14, 60896, Note_on_c, 10, 72, 0
14, 60960, Note_on_c, 10, 72, 92
14, 60992, Note_on_c, 10, 72, 0
14, 61056, Note_on_c, 10, 62, 92
14, 61104, Note_on_c, 10, 62, 0
14, 61104, Note_on_c, 10, 63, 92
14, 61152, Note_on_c, 10, 63, 0
14, 61152, Note_on_c, 10, 65, 92
14, 61200, Note_on_c, 10, 65, 0
14, 61200, Note_on_c, 10, 62, 92
14, 61246, Note_on_c, 10, 62, 0
14, 61248, Note_on_c, 10, 74, 92
14, 61280, Note_on_c, 10, 74, 0
14, 61344, Note_on_c, 10, 74, 92
14, 61376, Note_on_c, 10, 74, 0
14, 61440, Note_on_c, 10, 63, 92
14, 61488, Note_on_c, 10, 63, 0
14, 61488, Note_on_c, 10, 65, 92
14, 61536, Note_on_c, 10, 65, 0
14, 61536, Note_on_c, 10, 67, 92
14, 61584, Note_on_c, 10, 67, 0
14, 61584, Note_on_c, 10, 63, 92
14, 61630, Note_on_c, 10, 63, 0
14, 61632, Note_on_c, 10, 75, 92
14, 61664, Note_on_c, 10, 75, 0
14, 61728, Note_on_c, 10, 75, 92
14, 61760, Note_on_c, 10, 75, 0
14, 61824, Note_on_c, 10, 65, 92
14, 61872, Note_on_c, 10, 65, 0
14, 61872, Note_on_c, 10, 67, 92
14, 61920, Note_on_c, 10, 67, 0
14, 61920, Note_on_c, 10, 68, 92
14, 61968, Note_on_c, 10, 68, 0
14, 61968, Note_on_c, 10, 65, 92
14, 62014, Note_on_c, 10, 65, 0
14, 62016, Note_on_c, 10, 77, 92
14, 62048, Note_on_c, 10, 77, 0
14, 62112, Note_on_c, 10, 77, 92
14, 62144, Note_on_c, 10, 77, 0
14, 62208, Note_on_c, 10, 67, 92
14, 62256, Note_on_c, 10, 67, 0
14, 62256, Note_on_c, 10, 68, 92
14, 62304, Note_on_c, 10, 68, 0
14, 62304, Note_on_c, 10, 70, 92
14, 62352, Note_on_c, 10, 70, 0
14, 62352, Note_on_c, 10, 67, 92
14, 62398, Note_on_c, 10, 67, 0
14, 62400, Note_on_c, 10, 79, 92
14, 62432, Note_on_c, 10, 79, 0
14, 62496, Note_on_c, 10, 79, 92
14, 62528, Note_on_c, 10, 79, 0
14, 62592, Note_on_c, 10, 68, 92
14, 62640, Note_on_c, 10, 68, 0
14, 62640, Note_on_c, 10, 70, 92
14, 62688, Note_on_c, 10, 70, 0
14, 62688, Note_on_c, 10, 72, 92
14, 62736, Note_on_c, 10, 72, 0
14, 62736, Note_on_c, 10, 68, 92
14, 62782, Note_on_c, 10, 68, 0
14, 62784, Note_on_c, 10, 80, 92
14, 62816, Note_on_c, 10, 80, 0
14, 62880, Note_on_c, 10, 80, 92
14, 62912, Note_on_c, 10, 80, 0
14, 62976, Note_on_c, 10, 70, 92
14, 63024, Note_on_c, 10, 70, 0
14, 63024, Note_on_c, 10, 72, 92
14, 63072, Note_on_c, 10, 72, 0
14, 63072, Note_on_c, 10, 73, 92
14, 63120, Note_on_c, 10, 73, 0
14, 63120, Note_on_c, 10, 70, 92
14, 63166, Note_on_c, 10, 70, 0
14, 63168, Note_on_c, 10, 82, 92
14, 63200, Note_on_c, 10, 82, 0
14, 63264, Note_on_c, 10, 82, 92
14, 63296, Note_on_c, 10, 82, 0
14, 63360, Note_on_c, 10, 72, 92
14, 63454, Note_on_c, 10, 72, 0
14, 63456, Note_on_c, 10, 84, 92
14, 63616, Note_on_c, 10, 84, 0
14, 63648, Note_on_c, 10, 84, 92
14, 63742, Note_on_c, 10, 84, 0
14, 63744, Note_on_c, 10, 55, 92
14, 63838, Note_on_c, 10, 55, 0
14, 63840, Note_on_c, 10, 84, 92
14, 64000, Note_on_c, 10, 84, 0
14, 64032, Note_on_c, 10, 84, 92
14, 64126, Note_on_c, 10, 84, 0
14, 64128, Note_on_c, 10, 66, 92
14, 64222, Note_on_c, 10, 66, 0
14, 64224, Note_on_c, 10, 84, 92
14, 64384, Note_on_c, 10, 84, 0
14, 64416, Note_on_c, 10, 84, 92
14, 64510, Note_on_c, 10, 84, 0
14, 64512, Note_on_c, 10, 83, 92
14, 64544, Note_on_c, 10, 83, 0
14, 64560, Note_on_c, 10, 67, 92
14, 64592, Note_on_c, 10, 67, 0
14, 64608, Note_on_c, 10, 79, 92
14, 64656, Note_on_c, 10, 79, 0
14, 64656, Note_on_c, 10, 78, 92
14, 64702, Note_on_c, 10, 78, 0
14, 64704, Note_on_c, 10, 79, 92
14, 64736, Note_on_c, 10, 79, 0
14, 64752, Note_on_c, 10, 67, 92
14, 64784, Note_on_c, 10, 67, 0
14, 64800, Note_on_c, 10, 79, 92
14, 64848, Note_on_c, 10, 79, 0
14, 64848, Note_on_c, 10, 78, 92
14, 64894, Note_on_c, 10, 78, 0
14, 64896, Note_on_c, 10, 79, 92
14, 65056, Note_on_c, 10, 79, 0
14, 65280, Note_on_c, 10, 72, 60
14, 65376, Note_on_c, 10, 72, 0
14, 65376, Note_on_c, 10, 67, 60
14, 65470, Note_on_c, 10, 67, 0
14, 65472, Note_on_c, 10, 67, 60
14, 65504, Note_on_c, 10, 67, 0
14, 65568, Note_on_c, 10, 67, 60
14, 65600, Note_on_c, 10, 67, 0
14, 65664, Note_on_c, 10, 67, 60
14, 65760, Note_on_c, 10, 67, 0
14, 65760, Note_on_c, 10, 63, 60
14, 65854, Note_on_c, 10, 63, 0
14, 65856, Note_on_c, 10, 63, 60
14, 65888, Note_on_c, 10, 63, 0
14, 65952, Note_on_c, 10, 63, 60
14, 65984, Note_on_c, 10, 63, 0
14, 66048, Note_on_c, 10, 63, 60
14, 66144, Note_on_c, 10, 63, 0
14, 66144, Note_on_c, 10, 62, 60
14, 66238, Note_on_c, 10, 62, 0
14, 66240, Note_on_c, 10, 62, 60
14, 66272, Note_on_c, 10, 62, 0
14, 66336, Note_on_c, 10, 62, 60
14, 66368, Note_on_c, 10, 62, 0
14, 66432, Note_on_c, 10, 62, 60
14, 66480, Note_on_c, 10, 62, 0
14, 66480, Note_on_c, 10, 64, 60
14, 66528, Note_on_c, 10, 64, 0
14, 66528, Note_on_c, 10, 65, 60
14, 66576, Note_on_c, 10, 65, 0
14, 66576, Note_on_c, 10, 64, 60
14, 66622, Note_on_c, 10, 64, 0
14, 66624, Note_on_c, 10, 65, 60
14, 66656, Note_on_c, 10, 65, 0
14, 66720, Note_on_c, 10, 65, 60
14, 66752, Note_on_c, 10, 65, 0
14, 66816, Note_on_c, 10, 65, 60
14, 66912, Note_on_c, 10, 65, 0
14, 66912, Note_on_c, 10, 64, 60
14, 67006, Note_on_c, 10, 64, 0
14, 67008, Note_on_c, 10, 64, 60
14, 67040, Note_on_c, 10, 64, 0
14, 67104, Note_on_c, 10, 64, 60
14, 67136, Note_on_c, 10, 64, 0
14, 67200, Note_on_c, 10, 64, 60
14, 67248, Note_on_c, 10, 64, 0
14, 67248, Note_on_c, 10, 66, 60
14, 67296, Note_on_c, 10, 66, 0
14, 67296, Note_on_c, 10, 67, 60
14, 67344, Note_on_c, 10, 67, 0
14, 67344, Note_on_c, 10, 66, 60
14, 67390, Note_on_c, 10, 66, 0
14, 67392, Note_on_c, 10, 67, 60
14, 67424, Note_on_c, 10, 67, 0
14, 67488, Note_on_c, 10, 67, 60
14, 67520, Note_on_c, 10, 67, 0
14, 67584, Note_on_c, 10, 67, 60
14, 67680, Note_on_c, 10, 67, 0
14, 67680, Note_on_c, 10, 66, 60
14, 67774, Note_on_c, 10, 66, 0
14, 67776, Note_on_c, 10, 66, 60
14, 67808, Note_on_c, 10, 66, 0
14, 67872, Note_on_c, 10, 66, 60
14, 67904, Note_on_c, 10, 66, 0
14, 67968, Note_on_c, 10, 66, 60
14, 68016, Note_on_c, 10, 66, 0
14, 68016, Note_on_c, 10, 67, 60
14, 68064, Note_on_c, 10, 67, 0
14, 68064, Note_on_c, 10, 69, 60
14, 68112, Note_on_c, 10, 69, 0
14, 68112, Note_on_c, 10, 67, 60
14, 68158, Note_on_c, 10, 67, 0
14, 68160, Note_on_c, 10, 67, 60
14, 68208, Note_on_c, 10, 67, 0
14, 68208, Note_on_c, 10, 69, 60
14, 68256, Note_on_c, 10, 69, 0
14, 68256, Note_on_c, 10, 70, 60
14, 68304, Note_on_c, 10, 70, 0
14, 68304, Note_on_c, 10, 69, 60
14, 68350, Note_on_c, 10, 69, 0
14, 68352, Note_on_c, 10, 69, 60
14, 68400, Note_on_c, 10, 69, 0
14, 68400, Note_on_c, 10, 71, 60
14, 68448, Note_on_c, 10, 71, 0
14, 68448, Note_on_c, 10, 72, 60
14, 68496, Note_on_c, 10, 72, 0
14, 68496, Note_on_c, 10, 71, 60
14, 68542, Note_on_c, 10, 71, 0
14, 68544, Note_on_c, 10, 71, 60
14, 68592, Note_on_c, 10, 71, 0
14, 68592, Note_on_c, 10, 72, 60
14, 68640, Note_on_c, 10, 72, 0
14, 68640, Note_on_c, 10, 74, 60
14, 68688, Note_on_c, 10, 74, 0
14, 68688, Note_on_c, 10, 72, 60
14, 68734, Note_on_c, 10, 72, 0
14, 68736, Note_on_c, 10, 72, 60
14, 68784, Note_on_c, 10, 72, 0
14, 68784, Note_on_c, 10, 74, 60
14, 68832, Note_on_c, 10, 74, 0
14, 68832, Note_on_c, 10, 75, 60
14, 68880, Note_on_c, 10, 75, 0
14, 68880, Note_on_c, 10, 74, 60
14, 68926, Note_on_c, 10, 74, 0
14, 68928, Note_on_c, 10, 74, 60
14, 68976, Note_on_c, 10, 74, 0
14, 68976, Note_on_c, 10, 72, 60
14, 69024, Note_on_c, 10, 72, 0
14, 69024, Note_on_c, 10, 71, 60
14, 69072, Note_on_c, 10, 71, 0
14, 69072, Note_on_c, 10, 72, 60
14, 69118, Note_on_c, 10, 72, 0
14, 69168, Note_on_c, 10, 72, 60
14, 69216, Note_on_c, 10, 72, 0
14, 69216, Note_on_c, 10, 71, 60
14, 69264, Note_on_c, 10, 71, 0
14, 69264, Note_on_c, 10, 72, 60
14, 69312, Note_on_c, 10, 72, 0
14, 69312, Note_on_c, 10, 71, 60
14, 69360, Note_on_c, 10, 71, 0
14, 69360, Note_on_c, 10, 72, 60
14, 69408, Note_on_c, 10, 72, 0
14, 69408, Note_on_c, 10, 74, 60
14, 69456, Note_on_c, 10, 74, 0
14, 69456, Note_on_c, 10, 75, 60
14, 69502, Note_on_c, 10, 75, 0
14, 69552, Note_on_c, 10, 69, 60
14, 69600, Note_on_c, 10, 69, 0
14, 69600, Note_on_c, 10, 68, 60
14, 69648, Note_on_c, 10, 68, 0
14, 69648, Note_on_c, 10, 69, 60
14, 69696, Note_on_c, 10, 69, 0
14, 69696, Note_on_c, 10, 68, 60
14, 69744, Note_on_c, 10, 68, 0
14, 69744, Note_on_c, 10, 69, 60
14, 69792, Note_on_c, 10, 69, 0
14, 69792, Note_on_c, 10, 71, 60
14, 69840, Note_on_c, 10, 71, 0
14, 69840, Note_on_c, 10, 72, 60
14, 69886, Note_on_c, 10, 72, 0
14, 69936, Note_on_c, 10, 63, 60
14, 69984, Note_on_c, 10, 63, 0
14, 69984, Note_on_c, 10, 62, 60
14, 70032, Note_on_c, 10, 62, 0
14, 70032, Note_on_c, 10, 63, 60
14, 70080, Note_on_c, 10, 63, 0
14, 70080, Note_on_c, 10, 67, 60
14, 70128, Note_on_c, 10, 67, 0
14, 70128, Note_on_c, 10, 63, 60
14, 70176, Note_on_c, 10, 63, 0
14, 70176, Note_on_c, 10, 67, 60
14, 70224, Note_on_c, 10, 67, 0
14, 70224, Note_on_c, 10, 63, 60
14, 70270, Note_on_c, 10, 63, 0
14, 70320, Note_on_c, 10, 62, 60
14, 70368, Note_on_c, 10, 62, 0
14, 70368, Note_on_c, 10, 60, 60
14, 70416, Note_on_c, 10, 60, 0
14, 70416, Note_on_c, 10, 62, 60
14, 70464, Note_on_c, 10, 62, 0
14, 70464, Note_on_c, 10, 65, 60
14, 70512, Note_on_c, 10, 65, 0
14, 70512, Note_on_c, 10, 62, 60
14, 70560, Note_on_c, 10, 62, 0
14, 70560, Note_on_c, 10, 65, 60
14, 70608, Note_on_c, 10, 65, 0
14, 70608, Note_on_c, 10, 62, 60
14, 70654, Note_on_c, 10, 62, 0
14, 70656, Note_on_c, 10, 60, 45
14, 70816, Note_on_c, 10, 60, 0
14, 70944, Note_on_c, 10, 60, 30
14, 71038, Note_on_c, 10, 60, 0
14, 71040, Note_on_c, 10, 60, 30
14, 71200, Note_on_c, 10, 60, 0
14, 71328, Note_on_c, 10, 60, 30
14, 71422, Note_on_c, 10, 60, 0
14, 71424, Note_on_c, 10, 60, 30
14, 71760, Note_on_c, 10, 60, 0
14, 71760, End_track
15, 0, Start_track
15, 0, MIDI_port, 0
15, 0, Title_t, "Violino II"
15, 0, Program_c, 10, 40
15, 0, Control_c, 10, 7, 127
15, 0, Control_c, 10, 10, 64
15, 0, Note_on_c, 10, 55, 60
15, 160, Note_on_c, 10, 55, 0
15, 288, Note_on_c, 10, 55, 60
15, 382, Note_on_c, 10, 55, 0
15, 384, Note_on_c, 10, 55, 60
15, 544, Note_on_c, 10, 55, 0
15, 672, Note_on_c, 10, 55, 60
15, 766, Note_on_c, 10, 55, 0
15, 768, Note_on_c, 10, 56, 60
15, 928, Note_on_c, 10, 56, 0
15, 1056, Note_on_c, 10, 56, 60
15, 1150, Note_on_c, 10, 56, 0
15, 1152, Note_on_c, 10, 55, 60
15, 1312, Note_on_c, 10, 55, 0
15, 1440, Note_on_c, 10, 62, 60
15, 1534, Note_on_c, 10, 62, 0
15, 1536, Note_on_c, 10, 61, 60
15, 1696, Note_on_c, 10, 61, 0
15, 1824, Note_on_c, 10, 61, 60
15, 1918, Note_on_c, 10, 61, 0
15, 1920, Note_on_c, 10, 60, 60
15, 2080, Note_on_c, 10, 60, 0
15, 2208, Note_on_c, 10, 60, 60
15, 2302, Note_on_c, 10, 60, 0
15, 2304, Note_on_c, 10, 60, 60
15, 2464, Note_on_c, 10, 60, 0
15, 2592, Note_on_c, 10, 60, 60
15, 2686, Note_on_c, 10, 60, 0
15, 2688, Note_on_c, 10, 63, 60
15, 2848, Note_on_c, 10, 63, 0
15, 2976, Note_on_c, 10, 63, 60
15, 3070, Note_on_c, 10, 63, 0
15, 3072, Note_on_c, 10, 62, 60
15, 3264, Note_on_c, 10, 62, 0
15, 3264, Note_on_c, 10, 63, 60
15, 3424, Note_on_c, 10, 63, 0
15, 3456, Note_on_c, 10, 65, 60
15, 3792, Note_on_c, 10, 65, 0
15, 3840, Note_on_c, 10, 63, 60
15, 4000, Note_on_c, 10, 63, 0
15, 6144, Note_on_c, 10, 72, 92
15, 6240, Note_on_c, 10, 72, 0
15, 6240, Note_on_c, 10, 67, 92
15, 6334, Note_on_c, 10, 67, 0
15, 6336, Note_on_c, 10, 67, 92
15, 6368, Note_on_c, 10, 67, 0
15, 6432, Note_on_c, 10, 67, 92
15, 6464, Note_on_c, 10, 67, 0
15, 6528, Note_on_c, 10, 67, 92
15, 6624, Note_on_c, 10, 67, 0
15, 6624, Note_on_c, 10, 63, 92
15, 6718, Note_on_c, 10, 63, 0
15, 6720, Note_on_c, 10, 63, 92
15, 6752, Note_on_c, 10, 63, 0
15, 6816, Note_on_c, 10, 63, 92
15, 6848, Note_on_c, 10, 63, 0
15, 6912, Note_on_c, 10, 62, 92
15, 6960, Note_on_c, 10, 62, 0
15, 6960, Note_on_c, 10, 64, 92
15, 7008, Note_on_c, 10, 64, 0
15, 7008, Note_on_c, 10, 65, 92
15, 7056, Note_on_c, 10, 65, 0
15, 7056, Note_on_c, 10, 64, 92
15, 7102, Note_on_c, 10, 64, 0
15, 7104, Note_on_c, 10, 65, 92
15, 7136, Note_on_c, 10, 65, 0
15, 7200, Note_on_c, 10, 65, 92
15, 7232, Note_on_c, 10, 65, 0
15, 7296, Note_on_c, 10, 65, 92
15, 7392, Note_on_c, 10, 65, 0
15, 7392, Note_on_c, 10, 64, 92
15, 7486, Note_on_c, 10, 64, 0
15, 7488, Note_on_c, 10, 60, 92
15, 7520, Note_on_c, 10, 60, 0
15, 7584, Note_on_c, 10, 60, 92
15, 7616, Note_on_c, 10, 60, 0
15, 7680, Note_on_c, 10, 60, 92
15, 7728, Note_on_c, 10, 60, 0
15, 7728, Note_on_c, 10, 62, 92
15, 7776, Note_on_c, 10, 62, 0
15, 7776, Note_on_c, 10, 63, 92
15, 7824, Note_on_c, 10, 63, 0
15, 7824, Note_on_c, 10, 62, 92
15, 7870, Note_on_c, 10, 62, 0
15, 7872, Note_on_c, 10, 63, 92
15, 7904, Note_on_c, 10, 63, 0
15, 7968, Note_on_c, 10, 63, 92
15, 8000, Note_on_c, 10, 63, 0
15, 8064, Note_on_c, 10, 63, 92
15, 8160, Note_on_c, 10, 63, 0
15, 8160, Note_on_c, 10, 62, 92
15, 8254, Note_on_c, 10, 62, 0
15, 8256, Note_on_c, 10, 58, 92
15, 8288, Note_on_c, 10, 58, 0
15, 8352, Note_on_c, 10, 58, 92
15, 8384, Note_on_c, 10, 58, 0
15, 8544, Note_on_c, 10, 67, 92
15, 8638, Note_on_c, 10, 67, 0
15, 8640, Note_on_c, 10, 63, 92
15, 8734, Note_on_c, 10, 63, 0
15, 8736, Note_on_c, 10, 60, 92
15, 8830, Note_on_c, 10, 60, 0
15, 8928, Note_on_c, 10, 68, 92
15, 9022, Note_on_c, 10, 68, 0
15, 9024, Note_on_c, 10, 62, 92
15, 9118, Note_on_c, 10, 62, 0
15, 9120, Note_on_c, 10, 67, 92
15, 9310, Note_on_c, 10, 67, 0
15, 9312, Note_on_c, 10, 79, 92
15, 9472, Note_on_c, 10, 79, 0
15, 9504, Note_on_c, 10, 79, 92
15, 9598, Note_on_c, 10, 79, 0
15, 9600, Note_on_c, 10, 79, 92
15, 9696, Note_on_c, 10, 79, 0
15, 9696, Note_on_c, 10, 74, 92
15, 9790, Note_on_c, 10, 74, 0
15, 9792, Note_on_c, 10, 74, 92
15, 9888, Note_on_c, 10, 74, 0
15, 9888, Note_on_c, 10, 70, 92
15, 9982, Note_on_c, 10, 70, 0
15, 9984, Note_on_c, 10, 69, 92
15, 10032, Note_on_c, 10, 69, 0
15, 10032, Note_on_c, 10, 71, 92
15, 10080, Note_on_c, 10, 71, 0
15, 10080, Note_on_c, 10, 72, 92
15, 10128, Note_on_c, 10, 72, 0
15, 10128, Note_on_c, 10, 71, 92
15, 10174, Note_on_c, 10, 71, 0
15, 10176, Note_on_c, 10, 72, 92
15, 10208, Note_on_c, 10, 72, 0
15, 10272, Note_on_c, 10, 72, 92
15, 10304, Note_on_c, 10, 72, 0
15, 10368, Note_on_c, 10, 72, 92
15, 10464, Note_on_c, 10, 72, 0
15, 10464, Note_on_c, 10, 71, 92
15, 10558, Note_on_c, 10, 71, 0
15, 10560, Note_on_c, 10, 67, 92
15, 10592, Note_on_c, 10, 67, 0
15, 10656, Note_on_c, 10, 67, 92
15, 10688, Note_on_c, 10, 67, 0
15, 10752, Note_on_c, 10, 67, 92
15, 10800, Note_on_c, 10, 67, 0
15, 10800, Note_on_c, 10, 69, 92
15, 10848, Note_on_c, 10, 69, 0
15, 10848, Note_on_c, 10, 70, 92
15, 10896, Note_on_c, 10, 70, 0
15, 10896, Note_on_c, 10, 69, 92
15, 10942, Note_on_c, 10, 69, 0
15, 10944, Note_on_c, 10, 70, 92
15, 10976, Note_on_c, 10, 70, 0
15, 11040, Note_on_c, 10, 70, 92
15, 11072, Note_on_c, 10, 70, 0
15, 11136, Note_on_c, 10, 70, 92
15, 11232, Note_on_c, 10, 70, 0
15, 11232, Note_on_c, 10, 69, 92
15, 11326, Note_on_c, 10, 69, 0
15, 11328, Note_on_c, 10, 65, 92
15, 11360, Note_on_c, 10, 65, 0
15, 11424, Note_on_c, 10, 65, 92
15, 11456, Note_on_c, 10, 65, 0
15, 11616, Note_on_c, 10, 74, 92
15, 11710, Note_on_c, 10, 74, 0
15, 11712, Note_on_c, 10, 70, 92
15, 11806, Note_on_c, 10, 70, 0
15, 11808, Note_on_c, 10, 75, 92
15, 11902, Note_on_c, 10, 75, 0
15, 12000, Note_on_c, 10, 72, 92
15, 12094, Note_on_c, 10, 72, 0
15, 12096, Note_on_c, 10, 69, 92
15, 12190, Note_on_c, 10, 69, 0
15, 12192, Note_on_c, 10, 74, 92
15, 12286, Note_on_c, 10, 74, 0
15, 12288, Note_on_c, 10, 71, 92
15, 12336, Note_on_c, 10, 71, 0
15, 12336, Note_on_c, 10, 72, 92
15, 12384, Note_on_c, 10, 72, 0
15, 12384, Note_on_c, 10, 74, 92
15, 12432, Note_on_c, 10, 74, 0
15, 12432, Note_on_c, 10, 71, 92
15, 12478, Note_on_c, 10, 71, 0
15, 12480, Note_on_c, 10, 75, 92
15, 12512, Note_on_c, 10, 75, 0
15, 12576, Note_on_c, 10, 75, 92
15, 12608, Note_on_c, 10, 75, 0
15, 12672, Note_on_c, 10, 75, 92
15, 12704, Note_on_c, 10, 75, 0
15, 12768, Note_on_c, 10, 75, 92
15, 12800, Note_on_c, 10, 75, 0
15, 12864, Note_on_c, 10, 74, 92
15, 12960, Note_on_c, 10, 74, 0
15, 12960, Note_on_c, 10, 71, 92
15, 13054, Note_on_c, 10, 71, 0
15, 13056, Note_on_c, 10, 72, 92
15, 13216, Note_on_c, 10, 72, 0
15, 13248, Note_on_c, 10, 60, 92
15, 13408, Note_on_c, 10, 60, 0
15, 13440, Note_on_c, 10, 63, 92
15, 13600, Note_on_c, 10, 63, 0
15, 13632, Note_on_c, 10, 67, 92
15, 13792, Note_on_c, 10, 67, 0
15, 13824, Note_on_c, 10, 77, 92
15, 13984, Note_on_c, 10, 77, 0
15, 14016, Note_on_c, 10, 74, 92
15, 14176, Note_on_c, 10, 74, 0
15, 14208, Note_on_c, 10, 79, 92
15, 14368, Note_on_c, 10, 79, 0
15, 14400, Note_on_c, 10, 67, 92
15, 14560, Note_on_c, 10, 67, 0
15, 14592, Note_on_c, 10, 75, 92
15, 14752, Note_on_c, 10, 75, 0
15, 14784, Note_on_c, 10, 72, 92
15, 14944, Note_on_c, 10, 72, 0
15, 14976, Note_on_c, 10, 77, 92
15, 15136, Note_on_c, 10, 77, 0
15, 15168, Note_on_c, 10, 65, 92
15, 15328, Note_on_c, 10, 65, 0
15, 15360, Note_on_c, 10, 63, 92
15, 15408, Note_on_c, 10, 63, 0
15, 15408, Note_on_c, 10, 65, 92
15, 15456, Note_on_c, 10, 65, 0
15, 15456, Note_on_c, 10, 67, 92
15, 15504, Note_on_c, 10, 67, 0
15, 15504, Note_on_c, 10, 63, 92
15, 15550, Note_on_c, 10, 63, 0
15, 15552, Note_on_c, 10, 72, 92
15, 15584, Note_on_c, 10, 72, 0
15, 15648, Note_on_c, 10, 72, 92
15, 15680, Note_on_c, 10, 72, 0
15, 15744, Note_on_c, 10, 62, 92
15, 15792, Note_on_c, 10, 62, 0
15, 15792, Note_on_c, 10, 63, 92
15, 15840, Note_on_c, 10, 63, 0
15, 15840, Note_on_c, 10, 65, 92
15, 15888, Note_on_c, 10, 65, 0
15, 15888, Note_on_c, 10, 62, 92
15, 15934, Note_on_c, 10, 62, 0
15, 15936, Note_on_c, 10, 74, 92
15, 15968, Note_on_c, 10, 74, 0
15, 16032, Note_on_c, 10, 74, 92
15, 16064, Note_on_c, 10, 74, 0
15, 16128, Note_on_c, 10, 63, 92
15, 16176, Note_on_c, 10, 63, 0
15, 16176, Note_on_c, 10, 65, 92
15, 16224, Note_on_c, 10, 65, 0
15, 16224, Note_on_c, 10, 67, 92
15, 16272, Note_on_c, 10, 67, 0
15, 16272, Note_on_c, 10, 63, 92
15, 16318, Note_on_c, 10, 63, 0
15, 16320, Note_on_c, 10, 75, 92
15, 16352, Note_on_c, 10, 75, 0
15, 16416, Note_on_c, 10, 75, 92
15, 16448, Note_on_c, 10, 75, 0
15, 16512, Note_on_c, 10, 65, 92
15, 16560, Note_on_c, 10, 65, 0
15, 16560, Note_on_c, 10, 67, 92
15, 16608, Note_on_c, 10, 67, 0
15, 16608, Note_on_c, 10, 68, 92
15, 16656, Note_on_c, 10, 68, 0
15, 16656, Note_on_c, 10, 65, 92
15, 16702, Note_on_c, 10, 65, 0
15, 16704, Note_on_c, 10, 77, 92
15, 16736, Note_on_c, 10, 77, 0
15, 16800, Note_on_c, 10, 77, 92
15, 16832, Note_on_c, 10, 77, 0
15, 16896, Note_on_c, 10, 67, 92
15, 16944, Note_on_c, 10, 67, 0
15, 16944, Note_on_c, 10, 68, 92
15, 16992, Note_on_c, 10, 68, 0
15, 16992, Note_on_c, 10, 70, 92
15, 17040, Note_on_c, 10, 70, 0
15, 17040, Note_on_c, 10, 67, 92
15, 17086, Note_on_c, 10, 67, 0
15, 17088, Note_on_c, 10, 79, 92
15, 17120, Note_on_c, 10, 79, 0
15, 17184, Note_on_c, 10, 79, 92
15, 17216, Note_on_c, 10, 79, 0
15, 17280, Note_on_c, 10, 69, 92
15, 17328, Note_on_c, 10, 69, 0
15, 17328, Note_on_c, 10, 70, 92
15, 17376, Note_on_c, 10, 70, 0
15, 17376, Note_on_c, 10, 72, 92
15, 17424, Note_on_c, 10, 72, 0
15, 17424, Note_on_c, 10, 69, 92
15, 17470, Note_on_c, 10, 69, 0
15, 17472, Note_on_c, 10, 81, 92
15, 17504, Note_on_c, 10, 81, 0
15, 17568, Note_on_c, 10, 81, 92
15, 17600, Note_on_c, 10, 81, 0
15, 17664, Note_on_c, 10, 70, 92
15, 17758, Note_on_c, 10, 70, 0
15, 17760, Note_on_c, 10, 79, 92
15, 17920, Note_on_c, 10, 79, 0
15, 17952, Note_on_c, 10, 79, 92
15, 18046, Note_on_c, 10, 79, 0
15, 18048, Note_on_c, 10, 58, 92
15, 18142, Note_on_c, 10, 58, 0
15, 18144, Note_on_c, 10, 79, 92
15, 18304, Note_on_c, 10, 79, 0
15, 18336, Note_on_c, 10, 79, 92
15, 18430, Note_on_c, 10, 79, 0
15, 18432, Note_on_c, 10, 63, 92
15, 18526, Note_on_c, 10, 63, 0
15, 18528, Note_on_c, 10, 79, 92
15, 18688, Note_on_c, 10, 79, 0
15, 18720, Note_on_c, 10, 79, 92
15, 18814, Note_on_c, 10, 79, 0
15, 18816, Note_on_c, 10, 61, 92
15, 18910, Note_on_c, 10, 61, 0
15, 18912, Note_on_c, 10, 79, 92
15, 19072, Note_on_c, 10, 79, 0
15, 19104, Note_on_c, 10, 79, 92
15, 19198, Note_on_c, 10, 79, 0
15, 19200, Note_on_c, 10, 78, 92
15, 19294, Note_on_c, 10, 78, 0
15, 19296, Note_on_c, 10, 70, 92
15, 19392, Note_on_c, 10, 70, 0
15, 19392, Note_on_c, 10, 69, 92
15, 19488, Note_on_c, 10, 69, 0
15, 19488, Note_on_c, 10, 70, 92
15, 19582, Note_on_c, 10, 70, 0
15, 19584, Note_on_c, 10, 69, 92
15, 19678, Note_on_c, 10, 69, 0
15, 19680, Note_on_c, 10, 60, 92
15, 19712, Note_on_c, 10, 60, 0
15, 19776, Note_on_c, 10, 58, 92
15, 19808, Note_on_c, 10, 58, 0
15, 19872, Note_on_c, 10, 57, 92
15, 19904, Note_on_c, 10, 57, 0
15, 19968, Note_on_c, 10, 55, 92
15, 20128, Note_on_c, 10, 55, 0
15, 20256, Note_on_c, 10, 62, 60
15, 20350, Note_on_c, 10, 62, 0
15, 20352, Note_on_c, 10, 62, 60
15, 20512, Note_on_c, 10, 62, 0
15, 20640, Note_on_c, 10, 62, 60
15, 20734, Note_on_c, 10, 62, 0
15, 20736, Note_on_c, 10, 63, 60
15, 20896, Note_on_c, 10, 63, 0
15, 21024, Note_on_c, 10, 63, 60
15, 21118, Note_on_c, 10, 63, 0
15, 21120, Note_on_c, 10, 62, 60
15, 21280, Note_on_c, 10, 62, 0
15, 21408, Note_on_c, 10, 62, 60
15, 21502, Note_on_c, 10, 62, 0
15, 21504, Note_on_c, 10, 62, 60
15, 21664, Note_on_c, 10, 62, 0
15, 21792, Note_on_c, 10, 62, 60
15, 21886, Note_on_c, 10, 62, 0
15, 21888, Note_on_c, 10, 62, 60
15, 22048, Note_on_c, 10, 62, 0
15, 22176, Note_on_c, 10, 59, 60
15, 22270, Note_on_c, 10, 59, 0
15, 22272, Note_on_c, 10, 58, 60
15, 22432, Note_on_c, 10, 58, 0
15, 22560, Note_on_c, 10, 58, 60
15, 22654, Note_on_c, 10, 58, 0
15, 22656, Note_on_c, 10, 58, 60
15, 22816, Note_on_c, 10, 58, 0
15, 22944, Note_on_c, 10, 67, 60
15, 23038, Note_on_c, 10, 67, 0
15, 23040, Note_on_c, 10, 67, 60
15, 23568, Note_on_c, 10, 67, 0
15, 23616, Note_on_c, 10, 66, 60
15, 23664, Note_on_c, 10, 66, 0
15, 23664, Note_on_c, 10, 67, 60
15, 23712, Note_on_c, 10, 67, 0
15, 23712, Note_on_c, 10, 69, 60
15, 23760, Note_on_c, 10, 69, 0
15, 23760, Note_on_c, 10, 67, 60
15, 23806, Note_on_c, 10, 67, 0
15, 23808, Note_on_c, 10, 67, 60
15, 23968, Note_on_c, 10, 67, 0
15, 24576, Note_on_c, 10, 56, 60
15, 24576, Note_on_c, 10, 62, 60
15, 25296, Note_on_c, 10, 56, 0
15, 25296, Note_on_c, 10, 62, 0
15, 25344, Note_on_c, 10, 55, 60
15, 25344, Note_on_c, 10, 67, 60
15, 25438, Note_on_c, 10, 55, 0
15, 25438, Note_on_c, 10, 67, 0
15, 25440, Note_on_c, 10, 55, 45
15, 25472, Note_on_c, 10, 55, 0
15, 25536, Note_on_c, 10, 58, 45
15, 25568, Note_on_c, 10, 58, 0
15, 25632, Note_on_c, 10, 63, 45
15, 25664, Note_on_c, 10, 63, 0
15, 25728, Note_on_c, 10, 58, 45
15, 25760, Note_on_c, 10, 58, 0
15, 25824, Note_on_c, 10, 55, 45
15, 25856, Note_on_c, 10, 55, 0
15, 25920, Note_on_c, 10, 58, 45
15, 25952, Note_on_c, 10, 58, 0
15, 26016, Note_on_c, 10, 63, 45
15, 26048, Note_on_c, 10, 63, 0
15, 26208, Note_on_c, 10, 55, 45
15, 26240, Note_on_c, 10, 55, 0
15, 26304, Note_on_c, 10, 58, 45
15, 26336, Note_on_c, 10, 58, 0
15, 26400, Note_on_c, 10, 63, 45
15, 26432, Note_on_c, 10, 63, 0
15, 26496, Note_on_c, 10, 58, 45
15, 26528, Note_on_c, 10, 58, 0
15, 26592, Note_on_c, 10, 55, 45
15, 26624, Note_on_c, 10, 55, 0
15, 26688, Note_on_c, 10, 58, 45
15, 26720, Note_on_c, 10, 58, 0
15, 26784, Note_on_c, 10, 63, 45
15, 26816, Note_on_c, 10, 63, 0
15, 26976, Note_on_c, 10, 56, 45
15, 27008, Note_on_c, 10, 56, 0
15, 27072, Note_on_c, 10, 60, 45
15, 27104, Note_on_c, 10, 60, 0
15, 27168, Note_on_c, 10, 63, 45
15, 27200, Note_on_c, 10, 63, 0
15, 27264, Note_on_c, 10, 65, 45
15, 27296, Note_on_c, 10, 65, 0
15, 27360, Note_on_c, 10, 58, 45
15, 27392, Note_on_c, 10, 58, 0
15, 27456, Note_on_c, 10, 62, 45
15, 27488, Note_on_c, 10, 62, 0
15, 27552, Note_on_c, 10, 65, 45
15, 27584, Note_on_c, 10, 65, 0
15, 27648, Note_on_c, 10, 62, 45
15, 27744, Note_on_c, 10, 62, 0
15, 27744, Note_on_c, 10, 63, 45
15, 27838, Note_on_c, 10, 63, 0
15, 27840, Note_on_c, 10, 63, 45
15, 28000, Note_on_c, 10, 63, 0
15, 28416, Note_on_c, 10, 58, 45
15, 29136, Note_on_c, 10, 58, 0
15, 29184, Note_on_c, 10, 62, 45
15, 29904, Note_on_c, 10, 62, 0
15, 29952, Note_on_c, 10, 63, 45
15, 31104, Note_on_c, 10, 63, 0
15, 31104, Note_on_c, 10, 65, 45
15, 31440, Note_on_c, 10, 65, 0
15, 31488, Note_on_c, 10, 63, 45
15, 31582, Note_on_c, 10, 63, 0
15, 31584, Note_on_c, 10, 58, 45
15, 31744, Note_on_c, 10, 58, 0
15, 31776, Note_on_c, 10, 58, 45
15, 31936, Note_on_c, 10, 58, 0
15, 31968, Note_on_c, 10, 58, 45
15, 32128, Note_on_c, 10, 58, 0
15, 32160, Note_on_c, 10, 58, 45
15, 32256, Note_on_c, 10, 58, 0
15, 32256, Note_on_c, 10, 62, 45
15, 32350, Note_on_c, 10, 62, 0
15, 32352, Note_on_c, 10, 62, 45
15, 32512, Note_on_c, 10, 62, 0
15, 32544, Note_on_c, 10, 62, 45
15, 32704, Note_on_c, 10, 62, 0
15, 32736, Note_on_c, 10, 62, 45
15, 32896, Note_on_c, 10, 62, 0
15, 32928, Note_on_c, 10, 62, 45
15, 33022, Note_on_c, 10, 62, 0
15, 33024, Note_on_c, 10, 63, 45
15, 34176, Note_on_c, 10, 63, 0
15, 34176, Note_on_c, 10, 65, 45
15, 34512, Note_on_c, 10, 65, 0
15, 34560, Note_on_c, 10, 63, 45
15, 34720, Note_on_c, 10, 63, 0
15, 34752, Note_on_c, 10, 67, 45
15, 34912, Note_on_c, 10, 67, 0
15, 34944, Note_on_c, 10, 67, 45
15, 35104, Note_on_c, 10, 67, 0
15, 35136, Note_on_c, 10, 67, 45
15, 35296, Note_on_c, 10, 67, 0
15, 35520, Note_on_c, 10, 70, 45
15, 35680, Note_on_c, 10, 70, 0
15, 35712, Note_on_c, 10, 70, 45
15, 35872, Note_on_c, 10, 70, 0
15, 35904, Note_on_c, 10, 70, 52
15, 36064, Note_on_c, 10, 70, 0
15, 36288, Note_on_c, 10, 75, 68
15, 36448, Note_on_c, 10, 75, 0
15, 36480, Note_on_c, 10, 75, 76
15, 36640, Note_on_c, 10, 75, 0
15, 36672, Note_on_c, 10, 75, 84
15, 36832, Note_on_c, 10, 75, 0
15, 36864, Note_on_c, 10, 75, 92
15, 37200, Note_on_c, 10, 75, 0
15, 37632, Note_on_c, 10, 63, 45
15, 37726, Note_on_c, 10, 63, 0
15, 38016, Note_on_c, 10, 62, 45
15, 38110, Note_on_c, 10, 62, 0
15, 38592, Note_on_c, 10, 58, 45
15, 38928, Note_on_c, 10, 58, 0
15, 38976, Note_on_c, 10, 58, 45
15, 39136, Note_on_c, 10, 58, 0
15, 39360, Note_on_c, 10, 56, 45
15, 39696, Note_on_c, 10, 56, 0
15, 39744, Note_on_c, 10, 56, 45
15, 39904, Note_on_c, 10, 56, 0
15, 40128, Note_on_c, 10, 62, 92
15, 40128, Note_on_c, 10, 70, 92
15, 40464, Note_on_c, 10, 62, 0
15, 40464, Note_on_c, 10, 70, 0
15, 40512, Note_on_c, 10, 62, 92
15, 40512, Note_on_c, 10, 70, 92
15, 40672, Note_on_c, 10, 62, 0
15, 40672, Note_on_c, 10, 70, 0
15, 40704, Note_on_c, 10, 63, 92
15, 40704, Note_on_c, 10, 70, 92
15, 40864, Note_on_c, 10, 63, 0
15, 40864, Note_on_c, 10, 70, 0
15, 41856, Note_on_c, 10, 61, 45
15, 42192, Note_on_c, 10, 61, 0
15, 42240, Note_on_c, 10, 60, 45
15, 42718, Note_on_c, 10, 60, 0
15, 43008, Note_on_c, 10, 63, 45
15, 43344, Note_on_c, 10, 63, 0
15, 43392, Note_on_c, 10, 67, 45
15, 43488, Note_on_c, 10, 67, 0
15, 43488, Note_on_c, 10, 65, 45
15, 43584, Note_on_c, 10, 65, 0
15, 43584, Note_on_c, 10, 63, 45
15, 43680, Note_on_c, 10, 63, 0
15, 43680, Note_on_c, 10, 62, 45
15, 43774, Note_on_c, 10, 62, 0
15, 43776, Note_on_c, 10, 63, 45
15, 43870, Note_on_c, 10, 63, 0
15, 43872, Note_on_c, 10, 58, 45
15, 43940, Note_on_c, 10, 58, 0
15, 43968, Note_on_c, 10, 58, 45
15, 44036, Note_on_c, 10, 58, 0
15, 44064, Note_on_c, 10, 58, 45
15, 44096, Note_on_c, 10, 58, 0
15, 44160, Note_on_c, 10, 58, 45
15, 44638, Note_on_c, 10, 58, 0
15, 44640, Note_on_c, 10, 58, 45
15, 44708, Note_on_c, 10, 58, 0
15, 44736, Note_on_c, 10, 58, 45
15, 44804, Note_on_c, 10, 58, 0
15, 44832, Note_on_c, 10, 58, 45
15, 44864, Note_on_c, 10, 58, 0
15, 44928, Note_on_c, 10, 58, 45
15, 45406, Note_on_c, 10, 58, 0
15, 45408, Note_on_c, 10, 58, 45
15, 45476, Note_on_c, 10, 58, 0
15, 45504, Note_on_c, 10, 58, 45
15, 45572, Note_on_c, 10, 58, 0
15, 45600, Note_on_c, 10, 58, 45
15, 45632, Note_on_c, 10, 58, 0
15, 45696, Note_on_c, 10, 63, 45
15, 45888, Note_on_c, 10, 63, 0
15, 45888, Note_on_c, 10, 65, 45
15, 45984, Note_on_c, 10, 65, 0
15, 45984, Note_on_c, 10, 67, 45
15, 46078, Note_on_c, 10, 67, 0
15, 46080, Note_on_c, 10, 67, 45
15, 46176, Note_on_c, 10, 67, 0
15, 46176, Note_on_c, 10, 68, 45
15, 46272, Note_on_c, 10, 68, 0
15, 46272, Note_on_c, 10, 71, 45
15, 46368, Note_on_c, 10, 71, 0
15, 46368, Note_on_c, 10, 72, 45
15, 46462, Note_on_c, 10, 72, 0
15, 46464, Note_on_c, 10, 70, 45
15, 46560, Note_on_c, 10, 70, 0
15, 46560, Note_on_c, 10, 68, 45
15, 46656, Note_on_c, 10, 68, 0
15, 46656, Note_on_c, 10, 67, 45
15, 46752, Note_on_c, 10, 67, 0
15, 46752, Note_on_c, 10, 65, 45
15, 46846, Note_on_c, 10, 65, 0
15, 46848, Note_on_c, 10, 65, 45
15, 47040, Note_on_c, 10, 65, 0
15, 47040, Note_on_c, 10, 63, 45
15, 47200, Note_on_c, 10, 63, 0
15, 47328, Note_on_c, 10, 63, 60
15, 47424, Note_on_c, 10, 63, 0
15, 47424, Note_on_c, 10, 65, 60
15, 47520, Note_on_c, 10, 65, 0
15, 47520, Note_on_c, 10, 67, 60
15, 47614, Note_on_c, 10, 67, 0
15, 47616, Note_on_c, 10, 67, 60
15, 47712, Note_on_c, 10, 67, 0
15, 47712, Note_on_c, 10, 68, 60
15, 47808, Note_on_c, 10, 68, 0
15, 47808, Note_on_c, 10, 64, 60
15, 47904, Note_on_c, 10, 64, 0
15, 47904, Note_on_c, 10, 65, 60
15, 47998, Note_on_c, 10, 65, 0
15, 48096, Note_on_c, 10, 65, 60
15, 48192, Note_on_c, 10, 65, 0
15, 48192, Note_on_c, 10, 67, 60
15, 48288, Note_on_c, 10, 67, 0
15, 48288, Note_on_c, 10, 68, 60
15, 48382, Note_on_c, 10, 68, 0
15, 48384, Note_on_c, 10, 69, 60
15, 48480, Note_on_c, 10, 69, 0
15, 48480, Note_on_c, 10, 70, 60
15, 48576, Note_on_c, 10, 70, 0
15, 48576, Note_on_c, 10, 66, 60
15, 48672, Note_on_c, 10, 66, 0
15, 48672, Note_on_c, 10, 67, 60
15, 48766, Note_on_c, 10, 67, 0
15, 48864, Note_on_c, 10, 63, 45
15, 48960, Note_on_c, 10, 63, 0
15, 48960, Note_on_c, 10, 65, 45
15, 49056, Note_on_c, 10, 65, 0
15, 49056, Note_on_c, 10, 67, 45
15, 49150, Note_on_c, 10, 67, 0
15, 49248, Note_on_c, 10, 68, 45
15, 49342, Note_on_c, 10, 68, 0
15, 49344, Note_on_c, 10, 68, 45
15, 49438, Note_on_c, 10, 68, 0
15, 49440, Note_on_c, 10, 68, 45
15, 49534, Note_on_c, 10, 68, 0
15, 49632, Note_on_c, 10, 70, 45
15, 49726, Note_on_c, 10, 70, 0
15, 49728, Note_on_c, 10, 70, 45
15, 49822, Note_on_c, 10, 70, 0
15, 49824, Note_on_c, 10, 70, 45
15, 49918, Note_on_c, 10, 70, 0
15, 50016, Note_on_c, 10, 70, 45
15, 50110, Note_on_c, 10, 70, 0
15, 50208, Note_on_c, 10, 70, 45
15, 50302, Note_on_c, 10, 70, 0
15, 50400, Note_on_c, 10, 70, 45
15, 50494, Note_on_c, 10, 70, 0
15, 50592, Note_on_c, 10, 70, 45
15, 50686, Note_on_c, 10, 70, 0
15, 50688, Note_on_c, 10, 70, 45
15, 50782, Note_on_c, 10, 70, 0
15, 50880, Note_on_c, 10, 68, 45
15, 50974, Note_on_c, 10, 68, 0
15, 51072, Note_on_c, 10, 70, 45
15, 51166, Note_on_c, 10, 70, 0
15, 51264, Note_on_c, 10, 67, 45
15, 51358, Note_on_c, 10, 67, 0
15, 51456, Note_on_c, 10, 68, 45
15, 51840, Note_on_c, 10, 68, 0
15, 51840, Note_on_c, 10, 65, 45
15, 52176, Note_on_c, 10, 65, 0
15, 52224, Note_on_c, 10, 63, 45
15, 52318, Note_on_c, 10, 63, 0
15, 52320, Note_on_c, 10, 63, 45
15, 52414, Note_on_c, 10, 63, 0
15, 52416, Note_on_c, 10, 63, 45
15, 52510, Note_on_c, 10, 63, 0
15, 52512, Note_on_c, 10, 63, 45
15, 52606, Note_on_c, 10, 63, 0
15, 52608, Note_on_c, 10, 63, 45
15, 52702, Note_on_c, 10, 63, 0
15, 52704, Note_on_c, 10, 63, 45
15, 52798, Note_on_c, 10, 63, 0
15, 52800, Note_on_c, 10, 63, 45
15, 52894, Note_on_c, 10, 63, 0
15, 52896, Note_on_c, 10, 63, 45
15, 52990, Note_on_c, 10, 63, 0
15, 52992, Note_on_c, 10, 63, 45
15, 53086, Note_on_c, 10, 63, 0
15, 53088, Note_on_c, 10, 63, 45
15, 53182, Note_on_c, 10, 63, 0
15, 53184, Note_on_c, 10, 63, 45
15, 53278, Note_on_c, 10, 63, 0
15, 53280, Note_on_c, 10, 63, 45
15, 53374, Note_on_c, 10, 63, 0
15, 53376, Note_on_c, 10, 62, 45
15, 53470, Note_on_c, 10, 62, 0
15, 53472, Note_on_c, 10, 62, 45
15, 53566, Note_on_c, 10, 62, 0
15, 53568, Note_on_c, 10, 62, 45
15, 53662, Note_on_c, 10, 62, 0
15, 53664, Note_on_c, 10, 62, 45
15, 53758, Note_on_c, 10, 62, 0
15, 53760, Note_on_c, 10, 75, 92
15, 53856, Note_on_c, 10, 75, 0
15, 53856, Note_on_c, 10, 70, 92
15, 53950, Note_on_c, 10, 70, 0
15, 53952, Note_on_c, 10, 70, 92
15, 53984, Note_on_c, 10, 70, 0
15, 54048, Note_on_c, 10, 70, 92
15, 54080, Note_on_c, 10, 70, 0
15, 54144, Note_on_c, 10, 70, 92
15, 54240, Note_on_c, 10, 70, 0
15, 54240, Note_on_c, 10, 67, 92
15, 54334, Note_on_c, 10, 67, 0
15, 54336, Note_on_c, 10, 67, 92
15, 54368, Note_on_c, 10, 67, 0
15, 54432, Note_on_c, 10, 67, 92
15, 54464, Note_on_c, 10, 67, 0
15, 54528, Note_on_c, 10, 65, 92
15, 54576, Note_on_c, 10, 65, 0
15, 54576, Note_on_c, 10, 67, 92
15, 54624, Note_on_c, 10, 67, 0
15, 54624, Note_on_c, 10, 68, 92
15, 54672, Note_on_c, 10, 68, 0
15, 54672, Note_on_c, 10, 67, 92
15, 54718, Note_on_c, 10, 67, 0
15, 54720, Note_on_c, 10, 68, 92
15, 54752, Note_on_c, 10, 68, 0
15, 54816, Note_on_c, 10, 68, 92
15, 54848, Note_on_c, 10, 68, 0
15, 54912, Note_on_c, 10, 68, 92
15, 55008, Note_on_c, 10, 68, 0
15, 55008, Note_on_c, 10, 67, 92
15, 55102, Note_on_c, 10, 67, 0
15, 55104, Note_on_c, 10, 67, 92
15, 55136, Note_on_c, 10, 67, 0
15, 55200, Note_on_c, 10, 67, 92
15, 55232, Note_on_c, 10, 67, 0
15, 55296, Note_on_c, 10, 67, 92
15, 55344, Note_on_c, 10, 67, 0
15, 55344, Note_on_c, 10, 68, 92
15, 55392, Note_on_c, 10, 68, 0
15, 55392, Note_on_c, 10, 70, 92
15, 55440, Note_on_c, 10, 70, 0
15, 55440, Note_on_c, 10, 68, 92
15, 55486, Note_on_c, 10, 68, 0
15, 55488, Note_on_c, 10, 70, 92
15, 55520, Note_on_c, 10, 70, 0
15, 55584, Note_on_c, 10, 70, 92
15, 55616, Note_on_c, 10, 70, 0
15, 55680, Note_on_c, 10, 70, 92
15, 55776, Note_on_c, 10, 70, 0
15, 55776, Note_on_c, 10, 69, 92
15, 55870, Note_on_c, 10, 69, 0
15, 55872, Note_on_c, 10, 68, 92
15, 55904, Note_on_c, 10, 68, 0
15, 55968, Note_on_c, 10, 68, 92
15, 56000, Note_on_c, 10, 68, 0
15, 56064, Note_on_c, 10, 67, 92
15, 56112, Note_on_c, 10, 67, 0
15, 56112, Note_on_c, 10, 69, 92
15, 56160, Note_on_c, 10, 69, 0
15, 56160, Note_on_c, 10, 70, 92
15, 56208, Note_on_c, 10, 70, 0
15, 56208, Note_on_c, 10, 69, 92
15, 56254, Note_on_c, 10, 69, 0
15, 56256, Note_on_c, 10, 70, 92
15, 56288, Note_on_c, 10, 70, 0
15, 56352, Note_on_c, 10, 70, 92
15, 56384, Note_on_c, 10, 70, 0
15, 56448, Note_on_c, 10, 70, 92
15, 56544, Note_on_c, 10, 70, 0
15, 56544, Note_on_c, 10, 69, 92
15, 56638, Note_on_c, 10, 69, 0
15, 56640, Note_on_c, 10, 69, 92
15, 56672, Note_on_c, 10, 69, 0
15, 56736, Note_on_c, 10, 69, 92
15, 56768, Note_on_c, 10, 69, 0
15, 56832, Note_on_c, 10, 69, 92
15, 56880, Note_on_c, 10, 69, 0
15, 56880, Note_on_c, 10, 70, 92
15, 56928, Note_on_c, 10, 70, 0
15, 56928, Note_on_c, 10, 72, 92
15, 56976, Note_on_c, 10, 72, 0
15, 56976, Note_on_c, 10, 70, 92
15, 57022, Note_on_c, 10, 70, 0
15, 57024, Note_on_c, 10, 72, 92
15, 57056, Note_on_c, 10, 72, 0
15, 57120, Note_on_c, 10, 72, 92
15, 57152, Note_on_c, 10, 72, 0
15, 57216, Note_on_c, 10, 72, 92
15, 57312, Note_on_c, 10, 72, 0
15, 57312, Note_on_c, 10, 71, 92
15, 57406, Note_on_c, 10, 71, 0
15, 57408, Note_on_c, 10, 70, 92
15, 57440, Note_on_c, 10, 70, 0
15, 57504, Note_on_c, 10, 70, 92
15, 57536, Note_on_c, 10, 70, 0
15, 57600, Note_on_c, 10, 69, 92
15, 57648, Note_on_c, 10, 69, 0
15, 57648, Note_on_c, 10, 71, 92
15, 57696, Note_on_c, 10, 71, 0
15, 57696, Note_on_c, 10, 72, 92
15, 57744, Note_on_c, 10, 72, 0
15, 57744, Note_on_c, 10, 71, 92
15, 57790, Note_on_c, 10, 71, 0
15, 57792, Note_on_c, 10, 72, 92
15, 57824, Note_on_c, 10, 72, 0
15, 57888, Note_on_c, 10, 72, 92
15, 57920, Note_on_c, 10, 72, 0
15, 57984, Note_on_c, 10, 72, 92
15, 58080, Note_on_c, 10, 72, 0
15, 58080, Note_on_c, 10, 71, 92
15, 58174, Note_on_c, 10, 71, 0
15, 58176, Note_on_c, 10, 67, 92
15, 58208, Note_on_c, 10, 67, 0
15, 58272, Note_on_c, 10, 67, 92
15, 58304, Note_on_c, 10, 67, 0
15, 58368, Note_on_c, 10, 65, 92
15, 58464, Note_on_c, 10, 65, 0
15, 58464, Note_on_c, 10, 64, 92
15, 58558, Note_on_c, 10, 64, 0
15, 58560, Note_on_c, 10, 63, 92
15, 58702, Note_on_c, 10, 63, 0
15, 58704, Note_on_c, 10, 67, 92
15, 58750, Note_on_c, 10, 67, 0
15, 58752, Note_on_c, 10, 72, 92
15, 58912, Note_on_c, 10, 72, 0
15, 58944, Note_on_c, 10, 67, 92
15, 59104, Note_on_c, 10, 67, 0
15, 59136, Note_on_c, 10, 77, 92
15, 59278, Note_on_c, 10, 77, 0
15, 59280, Note_on_c, 10, 74, 92
15, 59326, Note_on_c, 10, 74, 0
15, 59328, Note_on_c, 10, 74, 92
15, 59344, Note_on_c, 10, 74, 0
15, 59344, Note_on_c, 10, 76, 92
15, 59360, Note_on_c, 10, 76, 0
15, 59360, Note_on_c, 10, 74, 92
15, 59376, Note_on_c, 10, 74, 0
15, 59376, Note_on_c, 10, 76, 92
15, 59392, Note_on_c, 10, 76, 0
15, 59392, Note_on_c, 10, 74, 92
15, 59408, Note_on_c, 10, 74, 0
15, 59408, Note_on_c, 10, 76, 92
15, 59424, Note_on_c, 10, 76, 0
15, 59424, Note_on_c, 10, 74, 92
15, 59440, Note_on_c, 10, 74, 0
15, 59440, Note_on_c, 10, 76, 92
15, 59456, Note_on_c, 10, 76, 0
15, 59456, Note_on_c, 10, 74, 92
15, 59472, Note_on_c, 10, 74, 0
15, 59472, Note_on_c, 10, 72, 92
15, 59496, Note_on_c, 10, 72, 0
15, 59496, Note_on_c, 10, 74, 92
15, 59518, Note_on_c, 10, 74, 0
15, 59520, Note_on_c, 10, 79, 92
15, 59662, Note_on_c, 10, 79, 0
15, 59664, Note_on_c, 10, 67, 92
15, 59710, Note_on_c, 10, 67, 0
15, 59712, Note_on_c, 10, 67, 92
15, 59728, Note_on_c, 10, 67, 0
15, 59728, Note_on_c, 10, 69, 92
15, 59744, Note_on_c, 10, 69, 0
15, 59744, Note_on_c, 10, 67, 92
15, 59760, Note_on_c, 10, 67, 0
15, 59760, Note_on_c, 10, 69, 92
15, 59776, Note_on_c, 10, 69, 0
15, 59776, Note_on_c, 10, 67, 92
15, 59792, Note_on_c, 10, 67, 0
15, 59792, Note_on_c, 10, 69, 92
15, 59808, Note_on_c, 10, 69, 0
15, 59808, Note_on_c, 10, 67, 92
15, 59824, Note_on_c, 10, 67, 0
15, 59824, Note_on_c, 10, 69, 92
15, 59840, Note_on_c, 10, 69, 0
15, 59840, Note_on_c, 10, 67, 92
15, 59856, Note_on_c, 10, 67, 0
15, 59856, Note_on_c, 10, 65, 92
15, 59880, Note_on_c, 10, 65, 0
15, 59880, Note_on_c, 10, 67, 92
15, 59902, Note_on_c, 10, 67, 0
15, 59904, Note_on_c, 10, 75, 92
15, 60046, Note_on_c, 10, 75, 0
15, 60048, Note_on_c, 10, 72, 92
15, 60094, Note_on_c, 10, 72, 0
15, 60096, Note_on_c, 10, 72, 92
15, 60112, Note_on_c, 10, 72, 0
15, 60112, Note_on_c, 10, 74, 92
15, 60128, Note_on_c, 10, 74, 0
15, 60128, Note_on_c, 10, 72, 92
15, 60144, Note_on_c, 10, 72, 0
15, 60144, Note_on_c, 10, 74, 92
15, 60160, Note_on_c, 10, 74, 0
15, 60160, Note_on_c, 10, 72, 92
15, 60176, Note_on_c, 10, 72, 0
15, 60176, Note_on_c, 10, 74, 92
15, 60192, Note_on_c, 10, 74, 0
15, 60192, Note_on_c, 10, 72, 92
15, 60208, Note_on_c, 10, 72, 0
15, 60208, Note_on_c, 10, 74, 92
15, 60224, Note_on_c, 10, 74, 0
15, 60224, Note_on_c, 10, 72, 92
15, 60240, Note_on_c, 10, 72, 0
15, 60240, Note_on_c, 10, 70, 92
15, 60264, Note_on_c, 10, 70, 0
15, 60264, Note_on_c, 10, 72, 92
15, 60286, Note_on_c, 10, 72, 0
15, 60288, Note_on_c, 10, 77, 92
15, 60430, Note_on_c, 10, 77, 0
15, 60432, Note_on_c, 10, 65, 92
15, 60478, Note_on_c, 10, 65, 0
15, 60480, Note_on_c, 10, 65, 92
15, 60496, Note_on_c, 10, 65, 0
15, 60496, Note_on_c, 10, 67, 92
15, 60512, Note_on_c, 10, 67, 0
15, 60512, Note_on_c, 10, 65, 92
15, 60528, Note_on_c, 10, 65, 0
15, 60528, Note_on_c, 10, 67, 92
15, 60544, Note_on_c, 10, 67, 0
15, 60544, Note_on_c, 10, 65, 92
15, 60560, Note_on_c, 10, 65, 0
15, 60560, Note_on_c, 10, 67, 92
15, 60576, Note_on_c, 10, 67, 0
15, 60576, Note_on_c, 10, 65, 92
15, 60592, Note_on_c, 10, 65, 0
15, 60592, Note_on_c, 10, 67, 92
15, 60608, Note_on_c, 10, 67, 0
15, 60608, Note_on_c, 10, 65, 92
15, 60624, Note_on_c, 10, 65, 0
15, 60624, Note_on_c, 10, 63, 92
15, 60648, Note_on_c, 10, 63, 0
15, 60648, Note_on_c, 10, 65, 92
15, 60670, Note_on_c, 10, 65, 0
15, 60672, Note_on_c, 10, 63, 92
15, 60720, Note_on_c, 10, 63, 0
15, 60720, Note_on_c, 10, 65, 92
15, 60768, Note_on_c, 10, 65, 0
15, 60768, Note_on_c, 10, 67, 92
15, 60816, Note_on_c, 10, 67, 0
15, 60816, Note_on_c, 10, 63, 92
15, 60862, Note_on_c, 10, 63, 0
15, 60864, Note_on_c, 10, 72, 92
15, 60896, Note_on_c, 10, 72, 0
15, 60960, Note_on_c, 10, 72, 92
15, 60992, Note_on_c, 10, 72, 0
15, 61056, Note_on_c, 10, 62, 92
15, 61104, Note_on_c, 10, 62, 0
15, 61104, Note_on_c, 10, 63, 92
15, 61152, Note_on_c, 10, 63, 0
15, 61152, Note_on_c, 10, 65, 92
15, 61200, Note_on_c, 10, 65, 0
15, 61200, Note_on_c, 10, 62, 92
15, 61246, Note_on_c, 10, 62, 0
15, 61248, Note_on_c, 10, 74, 92
15, 61280, Note_on_c, 10, 74, 0
15, 61344, Note_on_c, 10, 74, 92
15, 61376, Note_on_c, 10, 74, 0
15, 61440, Note_on_c, 10, 63, 92
15, 61488, Note_on_c, 10, 63, 0
15, 61488, Note_on_c, 10, 65, 92
15, 61536, Note_on_c, 10, 65, 0
15, 61536, Note_on_c, 10, 67, 92
15, 61584, Note_on_c, 10, 67, 0
15, 61584, Note_on_c, 10, 63, 92
15, 61630, Note_on_c, 10, 63, 0
15, 61632, Note_on_c, 10, 75, 92
15, 61664, Note_on_c, 10, 75, 0
15, 61728, Note_on_c, 10, 75, 92
15, 61760, Note_on_c, 10, 75, 0
15, 61824, Note_on_c, 10, 65, 92
15, 61872, Note_on_c, 10, 65, 0
15, 61872, Note_on_c, 10, 67, 92
15, 61920, Note_on_c, 10, 67, 0
15, 61920, Note_on_c, 10, 68, 92
15, 61968, Note_on_c, 10, 68, 0
15, 61968, Note_on_c, 10, 65, 92
15, 62014, Note_on_c, 10, 65, 0
15, 62016, Note_on_c, 10, 77, 92
15, 62048, Note_on_c, 10, 77, 0
15, 62112, Note_on_c, 10, 77, 92
15, 62144, Note_on_c, 10, 77, 0
15, 62208, Note_on_c, 10, 67, 92
15, 62256, Note_on_c, 10, 67, 0
15, 62256, Note_on_c, 10, 68, 92
15, 62304, Note_on_c, 10, 68, 0
15, 62304, Note_on_c, 10, 70, 92
15, 62352, Note_on_c, 10, 70, 0
15, 62352, Note_on_c, 10, 67, 92
15, 62398, Note_on_c, 10, 67, 0
15, 62400, Note_on_c, 10, 79, 92
15, 62432, Note_on_c, 10, 79, 0
15, 62496, Note_on_c, 10, 79, 92
15, 62528, Note_on_c, 10, 79, 0
15, 62592, Note_on_c, 10, 68, 92
15, 62640, Note_on_c, 10, 68, 0
15, 62640, Note_on_c, 10, 70, 92
15, 62688, Note_on_c, 10, 70, 0
15, 62688, Note_on_c, 10, 72, 92
15, 62736, Note_on_c, 10, 72, 0
15, 62736, Note_on_c, 10, 68, 92
15, 62782, Note_on_c, 10, 68, 0
15, 62784, Note_on_c, 10, 80, 92
15, 62816, Note_on_c, 10, 80, 0
15, 62880, Note_on_c, 10, 80, 92
15, 62912, Note_on_c, 10, 80, 0
15, 62976, Note_on_c, 10, 70, 92
15, 63024, Note_on_c, 10, 70, 0
15, 63024, Note_on_c, 10, 72, 92
15, 63072, Note_on_c, 10, 72, 0
15, 63072, Note_on_c, 10, 73, 92
15, 63120, Note_on_c, 10, 73, 0
15, 63120, Note_on_c, 10, 70, 92
15, 63166, Note_on_c, 10, 70, 0
15, 63168, Note_on_c, 10, 82, 92
15, 63200, Note_on_c, 10, 82, 0
15, 63264, Note_on_c, 10, 82, 92
15, 63296, Note_on_c, 10, 82, 0
15, 63360, Note_on_c, 10, 72, 92
15, 63454, Note_on_c, 10, 72, 0
15, 63456, Note_on_c, 10, 75, 92
15, 63616, Note_on_c, 10, 75, 0
15, 63648, Note_on_c, 10, 75, 92
15, 63742, Note_on_c, 10, 75, 0
15, 63744, Note_on_c, 10, 55, 92
15, 63838, Note_on_c, 10, 55, 0
15, 63840, Note_on_c, 10, 75, 92
15, 64000, Note_on_c, 10, 75, 0
15, 64032, Note_on_c, 10, 75, 92
15, 64126, Note_on_c, 10, 75, 0
15, 64128, Note_on_c, 10, 66, 92
15, 64222, Note_on_c, 10, 66, 0
15, 64224, Note_on_c, 10, 75, 92
15, 64384, Note_on_c, 10, 75, 0
15, 64416, Note_on_c, 10, 75, 92
15, 64510, Note_on_c, 10, 75, 0
15, 64512, Note_on_c, 10, 74, 92
15, 64606, Note_on_c, 10, 74, 0
15, 64608, Note_on_c, 10, 63, 92
15, 64704, Note_on_c, 10, 63, 0
15, 64704, Note_on_c, 10, 62, 92
15, 64800, Note_on_c, 10, 62, 0
15, 64800, Note_on_c, 10, 63, 92
15, 64894, Note_on_c, 10, 63, 0
15, 64896, Note_on_c, 10, 62, 92
15, 64928, Note_on_c, 10, 62, 0
15, 64992, Note_on_c, 10, 65, 92
15, 65024, Note_on_c, 10, 65, 0
15, 65088, Note_on_c, 10, 63, 92
15, 65120, Note_on_c, 10, 63, 0
15, 65184, Note_on_c, 10, 62, 92
15, 65216, Note_on_c, 10, 62, 0
15, 65280, Note_on_c, 10, 60, 92
15, 65440, Note_on_c, 10, 60, 0
15, 65568, Note_on_c, 10, 55, 60
15, 65662, Note_on_c, 10, 55, 0
15, 65664, Note_on_c, 10, 55, 60
15, 65824, Note_on_c, 10, 55, 0
15, 65952, Note_on_c, 10, 55, 60
15, 66046, Note_on_c, 10, 55, 0
15, 66048, Note_on_c, 10, 56, 60
15, 66208, Note_on_c, 10, 56, 0
15, 66336, Note_on_c, 10, 56, 60
15, 66430, Note_on_c, 10, 56, 0
15, 66432, Note_on_c, 10, 55, 60
15, 66592, Note_on_c, 10, 55, 0
15, 66720, Note_on_c, 10, 62, 60
15, 66814, Note_on_c, 10, 62, 0
15, 66816, Note_on_c, 10, 61, 60
15, 66976, Note_on_c, 10, 61, 0
15, 67104, Note_on_c, 10, 61, 60
15, 67198, Note_on_c, 10, 61, 0
15, 67200, Note_on_c, 10, 60, 60
15, 67360, Note_on_c, 10, 60, 0
15, 67488, Note_on_c, 10, 60, 60
15, 67582, Note_on_c, 10, 60, 0
15, 67584, Note_on_c, 10, 60, 60
15, 67744, Note_on_c, 10, 60, 0
15, 67872, Note_on_c, 10, 60, 60
15, 67966, Note_on_c, 10, 60, 0
15, 67968, Note_on_c, 10, 63, 60
15, 68128, Note_on_c, 10, 63, 0
15, 68256, Note_on_c, 10, 63, 60
15, 68350, Note_on_c, 10, 63, 0
15, 68352, Note_on_c, 10, 62, 60
15, 68544, Note_on_c, 10, 62, 0
15, 68544, Note_on_c, 10, 63, 60
15, 68736, Note_on_c, 10, 63, 0
15, 68736, Note_on_c, 10, 65, 60
15, 69072, Note_on_c, 10, 65, 0
15, 69120, Note_on_c, 10, 63, 60
15, 69840, Note_on_c, 10, 63, 0
15, 69888, Note_on_c, 10, 60, 60
15, 70272, Note_on_c, 10, 60, 0
15, 70272, Note_on_c, 10, 59, 60
15, 70608, Note_on_c, 10, 59, 0
15, 70656, Note_on_c, 10, 60, 45
15, 70816, Note_on_c, 10, 60, 0
15, 70944, Note_on_c, 10, 60, 30
15, 71038, Note_on_c, 10, 60, 0
15, 71040, Note_on_c, 10, 60, 30
15, 71136, Note_on_c, 10, 60, 0
15, 71136, Note_on_c, 10, 55, 30
15, 71230, Note_on_c, 10, 55, 0
15, 71232, Note_on_c, 10, 55, 30
15, 71264, Note_on_c, 10, 55, 0
15, 71328, Note_on_c, 10, 55, 30
15, 71360, Note_on_c, 10, 55, 0
15, 71424, Note_on_c, 10, 55, 30
15, 71760, Note_on_c, 10, 55, 0
15, 71760, End_track
16, 0, Start_track
16, 0, MIDI_port, 0
16, 0, Title_t, "Viola"
16, 0, Program_c, 11, 41
16, 0, Control_c, 11, 7, 127
16, 0, Control_c, 11, 10, 64
16, 0, Note_on_c, 11, 51, 60
16, 160, Note_on_c, 11, 51, 0
16, 288, Note_on_c, 11, 51, 60
16, 382, Note_on_c, 11, 51, 0
16, 384, Note_on_c, 11, 51, 60
16, 544, Note_on_c, 11, 51, 0
16, 672, Note_on_c, 11, 51, 60
16, 766, Note_on_c, 11, 51, 0
16, 768, Note_on_c, 11, 53, 60
16, 928, Note_on_c, 11, 53, 0
16, 1056, Note_on_c, 11, 53, 60
16, 1150, Note_on_c, 11, 53, 0
16, 1152, Note_on_c, 11, 50, 60
16, 1312, Note_on_c, 11, 50, 0
16, 1440, Note_on_c, 11, 55, 60
16, 1534, Note_on_c, 11, 55, 0
16, 1536, Note_on_c, 11, 55, 60
16, 1696, Note_on_c, 11, 55, 0
16, 1824, Note_on_c, 11, 55, 60
16, 1918, Note_on_c, 11, 55, 0
16, 1920, Note_on_c, 11, 55, 60
16, 2080, Note_on_c, 11, 55, 0
16, 2208, Note_on_c, 11, 52, 60
16, 2302, Note_on_c, 11, 52, 0
16, 2304, Note_on_c, 11, 57, 60
16, 2464, Note_on_c, 11, 57, 0
16, 2592, Note_on_c, 11, 57, 60
16, 2686, Note_on_c, 11, 57, 0
16, 2688, Note_on_c, 11, 60, 60
16, 2848, Note_on_c, 11, 60, 0
16, 2976, Note_on_c, 11, 60, 60
16, 3070, Note_on_c, 11, 60, 0
16, 3072, Note_on_c, 11, 60, 60
16, 3600, Note_on_c, 11, 60, 0
16, 3648, Note_on_c, 11, 59, 60
16, 3696, Note_on_c, 11, 59, 0
16, 3696, Note_on_c, 11, 60, 60
16, 3744, Note_on_c, 11, 60, 0
16, 3744, Note_on_c, 11, 62, 60
16, 3792, Note_on_c, 11, 62, 0
16, 3792, Note_on_c, 11, 60, 60
16, 3838, Note_on_c, 11, 60, 0
16, 3840, Note_on_c, 11, 60, 60
16, 4000, Note_on_c, 11, 60, 0
16, 6144, Note_on_c, 11, 48, 92
16, 6144, Note_on_c, 11, 55, 92
16, 6144, Note_on_c, 11, 63, 92
16, 6304, Note_on_c, 11, 48, 0
16, 6304, Note_on_c, 11, 55, 0
16, 6304, Note_on_c, 11, 63, 0
16, 7056, Note_on_c, 11, 62, 92
16, 7102, Note_on_c, 11, 62, 0
16, 7104, Note_on_c, 11, 55, 92
16, 7246, Note_on_c, 11, 55, 0
16, 7248, Note_on_c, 11, 59, 92
16, 7294, Note_on_c, 11, 59, 0
16, 7296, Note_on_c, 11, 60, 92
16, 7456, Note_on_c, 11, 60, 0
16, 7824, Note_on_c, 11, 60, 92
16, 7870, Note_on_c, 11, 60, 0
16, 7872, Note_on_c, 11, 53, 92
16, 8014, Note_on_c, 11, 53, 0
16, 8016, Note_on_c, 11, 57, 92
16, 8062, Note_on_c, 11, 57, 0
16, 8064, Note_on_c, 11, 58, 92
16, 8224, Note_on_c, 11, 58, 0
16, 9024, Note_on_c, 11, 67, 92
16, 9376, Note_on_c, 11, 67, 0
16, 9408, Note_on_c, 11, 55, 92
16, 9744, Note_on_c, 11, 55, 0
16, 9792, Note_on_c, 11, 62, 92
16, 10126, Note_on_c, 11, 62, 0
16, 10128, Note_on_c, 11, 57, 92
16, 10174, Note_on_c, 11, 57, 0
16, 10176, Note_on_c, 11, 50, 92
16, 10318, Note_on_c, 11, 50, 0
16, 10320, Note_on_c, 11, 54, 92
16, 10366, Note_on_c, 11, 54, 0
16, 10368, Note_on_c, 11, 55, 92
16, 10528, Note_on_c, 11, 55, 0
16, 10896, Note_on_c, 11, 55, 92
16, 10942, Note_on_c, 11, 55, 0
16, 10944, Note_on_c, 11, 48, 92
16, 11086, Note_on_c, 11, 48, 0
16, 11088, Note_on_c, 11, 52, 92
16, 11134, Note_on_c, 11, 52, 0
16, 11136, Note_on_c, 11, 53, 92
16, 11296, Note_on_c, 11, 53, 0
16, 11712, Note_on_c, 11, 63, 92
16, 12048, Note_on_c, 11, 63, 0
16, 12096, Note_on_c, 11, 62, 92
16, 12288, Note_on_c, 11, 62, 0
16, 12288, Note_on_c, 11, 62, 92
16, 12336, Note_on_c, 11, 62, 0
16, 12336, Note_on_c, 11, 63, 92
16, 12384, Note_on_c, 11, 63, 0
16, 12384, Note_on_c, 11, 65, 92
16, 12432, Note_on_c, 11, 65, 0
16, 12432, Note_on_c, 11, 62, 92
16, 12478, Note_on_c, 11, 62, 0
16, 12480, Note_on_c, 11, 63, 92
16, 12528, Note_on_c, 11, 63, 0
16, 12528, Note_on_c, 11, 65, 92
16, 12576, Note_on_c, 11, 65, 0
16, 12576, Note_on_c, 11, 67, 92
16, 12624, Note_on_c, 11, 67, 0
16, 12624, Note_on_c, 11, 63, 92
16, 12670, Note_on_c, 11, 63, 0
16, 12672, Note_on_c, 11, 69, 92
16, 12720, Note_on_c, 11, 69, 0
16, 12720, Note_on_c, 11, 71, 92
16, 12768, Note_on_c, 11, 71, 0
16, 12768, Note_on_c, 11, 72, 92
16, 12816, Note_on_c, 11, 72, 0
16, 12816, Note_on_c, 11, 69, 92
16, 12862, Note_on_c, 11, 69, 0
16, 12864, Note_on_c, 11, 71, 92
16, 12960, Note_on_c, 11, 71, 0
16, 12960, Note_on_c, 11, 67, 92
16, 13054, Note_on_c, 11, 67, 0
16, 13056, Note_on_c, 11, 67, 92
16, 13216, Note_on_c, 11, 67, 0
16, 13440, Note_on_c, 11, 60, 92
16, 14016, Note_on_c, 11, 60, 0
16, 14016, Note_on_c, 11, 59, 92
16, 14176, Note_on_c, 11, 59, 0
16, 14208, Note_on_c, 11, 55, 92
16, 14368, Note_on_c, 11, 55, 0
16, 14400, Note_on_c, 11, 58, 92
16, 14784, Note_on_c, 11, 58, 0
16, 14784, Note_on_c, 11, 57, 92
16, 14944, Note_on_c, 11, 57, 0
16, 14976, Note_on_c, 11, 53, 92
16, 15136, Note_on_c, 11, 53, 0
16, 15168, Note_on_c, 11, 56, 92
16, 15328, Note_on_c, 11, 56, 0
16, 15360, Note_on_c, 11, 55, 92
16, 15520, Note_on_c, 11, 55, 0
16, 15552, Note_on_c, 11, 60, 92
16, 15552, Note_on_c, 11, 63, 92
16, 15712, Note_on_c, 11, 63, 0
16, 15744, Note_on_c, 11, 62, 92
16, 15904, Note_on_c, 11, 60, 0
16, 15936, Note_on_c, 11, 59, 92
16, 16096, Note_on_c, 11, 59, 0
16, 16128, Note_on_c, 11, 63, 92
16, 16320, Note_on_c, 11, 62, 0
16, 16320, Note_on_c, 11, 60, 92
16, 16416, Note_on_c, 11, 60, 0
16, 16416, Note_on_c, 11, 67, 92
16, 16464, Note_on_c, 11, 63, 0
16, 16510, Note_on_c, 11, 67, 0
16, 16512, Note_on_c, 11, 63, 92
16, 16512, Note_on_c, 11, 65, 92
16, 16704, Note_on_c, 11, 63, 0
16, 16704, Note_on_c, 11, 62, 92
16, 16800, Note_on_c, 11, 62, 0
16, 16800, Note_on_c, 11, 68, 92
16, 16848, Note_on_c, 11, 65, 0
16, 16896, Note_on_c, 11, 68, 0
16, 16896, Note_on_c, 11, 65, 92
16, 16896, Note_on_c, 11, 67, 92
16, 17088, Note_on_c, 11, 65, 0
16, 17088, Note_on_c, 11, 63, 92
16, 17184, Note_on_c, 11, 63, 0
16, 17184, Note_on_c, 11, 70, 92
16, 17232, Note_on_c, 11, 67, 0
16, 17280, Note_on_c, 11, 70, 0
16, 17280, Note_on_c, 11, 67, 92
16, 17280, Note_on_c, 11, 69, 92
16, 17440, Note_on_c, 11, 67, 0
16, 17472, Note_on_c, 11, 66, 92
16, 17616, Note_on_c, 11, 69, 0
16, 17632, Note_on_c, 11, 66, 0
16, 17664, Note_on_c, 11, 58, 92
16, 17712, Note_on_c, 11, 58, 0
16, 17712, Note_on_c, 11, 60, 92
16, 17760, Note_on_c, 11, 60, 0
16, 17760, Note_on_c, 11, 62, 92
16, 17808, Note_on_c, 11, 62, 0
16, 17808, Note_on_c, 11, 58, 92
16, 17854, Note_on_c, 11, 58, 0
16, 17856, Note_on_c, 11, 70, 92
16, 17888, Note_on_c, 11, 70, 0
16, 17952, Note_on_c, 11, 70, 92
16, 17984, Note_on_c, 11, 70, 0
16, 18048, Note_on_c, 11, 55, 92
16, 18096, Note_on_c, 11, 55, 0
16, 18096, Note_on_c, 11, 57, 92
16, 18144, Note_on_c, 11, 57, 0
16, 18144, Note_on_c, 11, 58, 92
16, 18192, Note_on_c, 11, 58, 0
16, 18192, Note_on_c, 11, 55, 92
16, 18238, Note_on_c, 11, 55, 0
16, 18240, Note_on_c, 11, 67, 92
16, 18272, Note_on_c, 11, 67, 0
16, 18336, Note_on_c, 11, 67, 92
16, 18368, Note_on_c, 11, 67, 0
16, 18432, Note_on_c, 11, 55, 92
16, 18480, Note_on_c, 11, 55, 0
16, 18480, Note_on_c, 11, 57, 92
16, 18528, Note_on_c, 11, 57, 0
16, 18528, Note_on_c, 11, 58, 92
16, 18576, Note_on_c, 11, 58, 0
16, 18576, Note_on_c, 11, 55, 92
16, 18622, Note_on_c, 11, 55, 0
16, 18624, Note_on_c, 11, 67, 92
16, 18656, Note_on_c, 11, 67, 0
16, 18720, Note_on_c, 11, 67, 92
16, 18752, Note_on_c, 11, 67, 0
16, 18816, Note_on_c, 11, 52, 92
16, 18864, Note_on_c, 11, 52, 0
16, 18864, Note_on_c, 11, 54, 92
16, 18912, Note_on_c, 11, 54, 0
16, 18912, Note_on_c, 11, 55, 92
16, 18960, Note_on_c, 11, 55, 0
16, 18960, Note_on_c, 11, 52, 92
16, 19006, Note_on_c, 11, 52, 0
16, 19008, Note_on_c, 11, 64, 92
16, 19040, Note_on_c, 11, 64, 0
16, 19104, Note_on_c, 11, 64, 92
16, 19136, Note_on_c, 11, 64, 0
16, 19200, Note_on_c, 11, 66, 92
16, 19296, Note_on_c, 11, 66, 0
16, 19296, Note_on_c, 11, 67, 92
16, 19392, Note_on_c, 11, 67, 0
16, 19392, Note_on_c, 11, 66, 92
16, 19488, Note_on_c, 11, 66, 0
16, 19488, Note_on_c, 11, 67, 92
16, 19582, Note_on_c, 11, 67, 0
16, 19584, Note_on_c, 11, 66, 92
16, 19678, Note_on_c, 11, 66, 0
16, 19680, Note_on_c, 11, 60, 92
16, 19712, Note_on_c, 11, 60, 0
16, 19776, Note_on_c, 11, 58, 92
16, 19808, Note_on_c, 11, 58, 0
16, 19872, Note_on_c, 11, 57, 92
16, 19904, Note_on_c, 11, 57, 0
16, 19968, Note_on_c, 11, 55, 92
16, 20128, Note_on_c, 11, 55, 0
16, 20256, Note_on_c, 11, 58, 60
16, 20350, Note_on_c, 11, 58, 0
16, 20352, Note_on_c, 11, 58, 60
16, 20512, Note_on_c, 11, 58, 0
16, 20640, Note_on_c, 11, 58, 60
16, 20734, Note_on_c, 11, 58, 0
16, 20736, Note_on_c, 11, 60, 60
16, 20896, Note_on_c, 11, 60, 0
16, 21024, Note_on_c, 11, 60, 60
16, 21118, Note_on_c, 11, 60, 0
16, 21120, Note_on_c, 11, 57, 60
16, 21280, Note_on_c, 11, 57, 0
16, 21408, Note_on_c, 11, 57, 60
16, 21502, Note_on_c, 11, 57, 0
16, 21504, Note_on_c, 11, 56, 60
16, 21664, Note_on_c, 11, 56, 0
16, 21792, Note_on_c, 11, 56, 60
16, 21886, Note_on_c, 11, 56, 0
16, 21888, Note_on_c, 11, 55, 60
16, 22048, Note_on_c, 11, 55, 0
16, 22176, Note_on_c, 11, 55, 60
16, 22270, Note_on_c, 11, 55, 0
16, 22272, Note_on_c, 11, 55, 60
16, 22432, Note_on_c, 11, 55, 0
16, 22560, Note_on_c, 11, 55, 60
16, 22654, Note_on_c, 11, 55, 0
16, 22656, Note_on_c, 11, 55, 60
16, 22816, Note_on_c, 11, 55, 0
16, 22944, Note_on_c, 11, 55, 60
16, 23038, Note_on_c, 11, 55, 0
16, 23040, Note_on_c, 11, 64, 60
16, 23232, Note_on_c, 11, 64, 0
16, 23232, Note_on_c, 11, 62, 60
16, 23568, Note_on_c, 11, 62, 0
16, 23616, Note_on_c, 11, 60, 60
16, 23616, Note_on_c, 11, 62, 60
16, 23776, Note_on_c, 11, 60, 0
16, 23776, Note_on_c, 11, 62, 0
16, 23808, Note_on_c, 11, 58, 60
16, 23808, Note_on_c, 11, 62, 60
16, 23968, Note_on_c, 11, 58, 0
16, 23968, Note_on_c, 11, 62, 0
16, 24576, Note_on_c, 11, 53, 60
16, 25296, Note_on_c, 11, 53, 0
16, 25344, Note_on_c, 11, 51, 45
16, 25504, Note_on_c, 11, 51, 0
16, 26112, Note_on_c, 11, 63, 45
16, 26272, Note_on_c, 11, 63, 0
16, 26880, Note_on_c, 11, 60, 45
16, 27040, Note_on_c, 11, 60, 0
16, 27264, Note_on_c, 11, 62, 45
16, 27424, Note_on_c, 11, 62, 0
16, 27840, Note_on_c, 11, 63, 45
16, 28000, Note_on_c, 11, 63, 0
16, 28032, Note_on_c, 11, 58, 45
16, 28320, Note_on_c, 11, 58, 0
16, 28320, Note_on_c, 11, 56, 45
16, 28414, Note_on_c, 11, 56, 0
16, 28416, Note_on_c, 11, 55, 45
16, 29136, Note_on_c, 11, 55, 0
16, 29184, Note_on_c, 11, 58, 45
16, 29904, Note_on_c, 11, 58, 0
16, 29952, Note_on_c, 11, 58, 45
16, 30672, Note_on_c, 11, 58, 0
16, 30720, Note_on_c, 11, 60, 45
16, 31104, Note_on_c, 11, 60, 0
16, 31104, Note_on_c, 11, 62, 45
16, 31440, Note_on_c, 11, 62, 0
16, 31488, Note_on_c, 11, 63, 45
16, 31582, Note_on_c, 11, 63, 0
16, 31584, Note_on_c, 11, 55, 45
16, 31744, Note_on_c, 11, 55, 0
16, 31776, Note_on_c, 11, 55, 45
16, 31936, Note_on_c, 11, 55, 0
16, 31968, Note_on_c, 11, 55, 45
16, 32128, Note_on_c, 11, 55, 0
16, 32160, Note_on_c, 11, 55, 45
16, 32256, Note_on_c, 11, 55, 0
16, 32256, Note_on_c, 11, 58, 45
16, 32350, Note_on_c, 11, 58, 0
16, 32352, Note_on_c, 11, 58, 45
16, 32512, Note_on_c, 11, 58, 0
16, 32544, Note_on_c, 11, 58, 45
16, 32704, Note_on_c, 11, 58, 0
16, 32736, Note_on_c, 11, 58, 45
16, 32896, Note_on_c, 11, 58, 0
16, 32928, Note_on_c, 11, 58, 45
16, 33022, Note_on_c, 11, 58, 0
16, 33024, Note_on_c, 11, 58, 45
16, 33744, Note_on_c, 11, 58, 0
16, 33792, Note_on_c, 11, 60, 45
16, 34176, Note_on_c, 11, 60, 0
16, 34176, Note_on_c, 11, 62, 45
16, 34512, Note_on_c, 11, 62, 0
16, 34752, Note_on_c, 11, 63, 45
16, 34912, Note_on_c, 11, 63, 0
16, 34944, Note_on_c, 11, 63, 45
16, 35104, Note_on_c, 11, 63, 0
16, 35136, Note_on_c, 11, 63, 45
16, 35296, Note_on_c, 11, 63, 0
16, 35520, Note_on_c, 11, 67, 45
16, 35680, Note_on_c, 11, 67, 0
16, 35712, Note_on_c, 11, 67, 45
16, 35872, Note_on_c, 11, 67, 0
16, 35904, Note_on_c, 11, 67, 52
16, 36064, Note_on_c, 11, 67, 0
16, 36288, Note_on_c, 11, 70, 68
16, 36448, Note_on_c, 11, 70, 0
16, 36480, Note_on_c, 11, 70, 76
16, 36640, Note_on_c, 11, 70, 0
16, 36672, Note_on_c, 11, 70, 84
16, 36832, Note_on_c, 11, 70, 0
16, 36864, Note_on_c, 11, 72, 92
16, 37200, Note_on_c, 11, 72, 0
16, 37632, Note_on_c, 11, 58, 45
16, 37726, Note_on_c, 11, 58, 0
16, 38016, Note_on_c, 11, 58, 45
16, 38110, Note_on_c, 11, 58, 0
16, 38592, Note_on_c, 11, 50, 45
16, 38928, Note_on_c, 11, 50, 0
16, 38976, Note_on_c, 11, 50, 45
16, 39136, Note_on_c, 11, 50, 0
16, 39360, Note_on_c, 11, 51, 45
16, 39696, Note_on_c, 11, 51, 0
16, 39744, Note_on_c, 11, 51, 45
16, 39904, Note_on_c, 11, 51, 0
16, 40128, Note_on_c, 11, 56, 92
16, 40288, Note_on_c, 11, 56, 0
16, 40320, Note_on_c, 11, 56, 92
16, 40480, Note_on_c, 11, 56, 0
16, 40512, Note_on_c, 11, 56, 92
16, 40672, Note_on_c, 11, 56, 0
16, 40704, Note_on_c, 11, 55, 92
16, 40864, Note_on_c, 11, 55, 0
16, 41856, Note_on_c, 11, 63, 45
16, 42718, Note_on_c, 11, 63, 0
16, 43008, Note_on_c, 11, 58, 45
16, 43680, Note_on_c, 11, 58, 0
16, 43680, Note_on_c, 11, 56, 45
16, 43774, Note_on_c, 11, 56, 0
16, 43776, Note_on_c, 11, 55, 45
16, 43936, Note_on_c, 11, 55, 0
16, 44544, Note_on_c, 11, 62, 45
16, 44928, Note_on_c, 11, 62, 0
16, 44928, Note_on_c, 11, 65, 45
16, 45264, Note_on_c, 11, 65, 0
16, 45312, Note_on_c, 11, 63, 45
16, 45888, Note_on_c, 11, 63, 0
16, 45888, Note_on_c, 11, 62, 45
16, 46048, Note_on_c, 11, 62, 0
16, 46080, Note_on_c, 11, 60, 45
16, 46464, Note_on_c, 11, 60, 0
16, 46464, Note_on_c, 11, 62, 45
16, 46800, Note_on_c, 11, 62, 0
16, 46848, Note_on_c, 11, 62, 45
16, 47040, Note_on_c, 11, 62, 0
16, 47040, Note_on_c, 11, 63, 45
16, 47200, Note_on_c, 11, 63, 0
16, 47232, Note_on_c, 11, 63, 60
16, 47808, Note_on_c, 11, 63, 0
16, 47808, Note_on_c, 11, 62, 60
16, 48192, Note_on_c, 11, 62, 0
16, 48192, Note_on_c, 11, 65, 60
16, 48544, Note_on_c, 11, 65, 0
16, 48576, Note_on_c, 11, 63, 60
16, 49056, Note_on_c, 11, 63, 0
16, 49056, Note_on_c, 11, 61, 45
16, 49150, Note_on_c, 11, 61, 0
16, 49152, Note_on_c, 11, 60, 45
16, 49246, Note_on_c, 11, 60, 0
16, 49248, Note_on_c, 11, 63, 45
16, 49342, Note_on_c, 11, 63, 0
16, 49344, Note_on_c, 11, 63, 45
16, 49438, Note_on_c, 11, 63, 0
16, 49440, Note_on_c, 11, 63, 45
16, 49534, Note_on_c, 11, 63, 0
16, 49632, Note_on_c, 11, 65, 45
16, 49726, Note_on_c, 11, 65, 0
16, 49728, Note_on_c, 11, 65, 45
16, 49822, Note_on_c, 11, 65, 0
16, 49824, Note_on_c, 11, 65, 45
16, 49918, Note_on_c, 11, 65, 0
16, 50016, Note_on_c, 11, 67, 45
16, 50110, Note_on_c, 11, 67, 0
16, 50208, Note_on_c, 11, 67, 45
16, 50302, Note_on_c, 11, 67, 0
16, 50400, Note_on_c, 11, 68, 45
16, 50494, Note_on_c, 11, 68, 0
16, 50592, Note_on_c, 11, 68, 45
16, 50686, Note_on_c, 11, 68, 0
16, 50688, Note_on_c, 11, 67, 45
16, 50782, Note_on_c, 11, 67, 0
16, 50880, Note_on_c, 11, 65, 45
16, 50974, Note_on_c, 11, 65, 0
16, 51072, Note_on_c, 11, 63, 45
16, 51166, Note_on_c, 11, 63, 0
16, 51264, Note_on_c, 11, 63, 45
16, 51358, Note_on_c, 11, 63, 0
16, 51456, Note_on_c, 11, 63, 45
16, 51840, Note_on_c, 11, 63, 0
16, 51840, Note_on_c, 11, 60, 45
16, 52176, Note_on_c, 11, 60, 0
16, 52224, Note_on_c, 11, 58, 45
16, 52318, Note_on_c, 11, 58, 0
16, 52320, Note_on_c, 11, 58, 45
16, 52414, Note_on_c, 11, 58, 0
16, 52416, Note_on_c, 11, 58, 45
16, 52510, Note_on_c, 11, 58, 0
16, 52512, Note_on_c, 11, 58, 45
16, 52606, Note_on_c, 11, 58, 0
16, 52608, Note_on_c, 11, 58, 45
16, 52702, Note_on_c, 11, 58, 0
16, 52704, Note_on_c, 11, 58, 45
16, 52798, Note_on_c, 11, 58, 0
16, 52800, Note_on_c, 11, 58, 45
16, 52894, Note_on_c, 11, 58, 0
16, 52896, Note_on_c, 11, 58, 45
16, 52990, Note_on_c, 11, 58, 0
16, 52992, Note_on_c, 11, 58, 45
16, 53086, Note_on_c, 11, 58, 0
16, 53088, Note_on_c, 11, 58, 45
16, 53182, Note_on_c, 11, 58, 0
16, 53184, Note_on_c, 11, 58, 45
16, 53278, Note_on_c, 11, 58, 0
16, 53280, Note_on_c, 11, 58, 45
16, 53374, Note_on_c, 11, 58, 0
16, 53376, Note_on_c, 11, 56, 45
16, 53470, Note_on_c, 11, 56, 0
16, 53472, Note_on_c, 11, 56, 45
16, 53566, Note_on_c, 11, 56, 0
16, 53568, Note_on_c, 11, 56, 45
16, 53662, Note_on_c, 11, 56, 0
16, 53664, Note_on_c, 11, 56, 45
16, 53758, Note_on_c, 11, 56, 0
16, 53760, Note_on_c, 11, 55, 92
16, 53760, Note_on_c, 11, 63, 92
16, 53920, Note_on_c, 11, 55, 0
16, 53920, Note_on_c, 11, 63, 0
16, 54672, Note_on_c, 11, 65, 92
16, 54718, Note_on_c, 11, 65, 0
16, 54720, Note_on_c, 11, 58, 92
16, 54862, Note_on_c, 11, 58, 0
16, 54864, Note_on_c, 11, 62, 92
16, 54910, Note_on_c, 11, 62, 0
16, 54912, Note_on_c, 11, 63, 92
16, 55072, Note_on_c, 11, 63, 0
16, 55440, Note_on_c, 11, 55, 92
16, 55486, Note_on_c, 11, 55, 0
16, 55488, Note_on_c, 11, 48, 92
16, 55630, Note_on_c, 11, 48, 0
16, 55632, Note_on_c, 11, 52, 92
16, 55678, Note_on_c, 11, 52, 0
16, 55680, Note_on_c, 11, 53, 92
16, 55840, Note_on_c, 11, 53, 0
16, 56208, Note_on_c, 11, 67, 92
16, 56254, Note_on_c, 11, 67, 0
16, 56256, Note_on_c, 11, 60, 92
16, 56398, Note_on_c, 11, 60, 0
16, 56400, Note_on_c, 11, 64, 92
16, 56446, Note_on_c, 11, 64, 0
16, 56448, Note_on_c, 11, 65, 92
16, 56608, Note_on_c, 11, 65, 0
16, 56976, Note_on_c, 11, 57, 92
16, 57022, Note_on_c, 11, 57, 0
16, 57024, Note_on_c, 11, 50, 92
16, 57166, Note_on_c, 11, 50, 0
16, 57168, Note_on_c, 11, 54, 92
16, 57214, Note_on_c, 11, 54, 0
16, 57216, Note_on_c, 11, 55, 92
16, 57376, Note_on_c, 11, 55, 0
16, 57744, Note_on_c, 11, 69, 92
16, 57790, Note_on_c, 11, 69, 0
16, 57792, Note_on_c, 11, 62, 92
16, 57934, Note_on_c, 11, 62, 0
16, 57936, Note_on_c, 11, 66, 92
16, 57982, Note_on_c, 11, 66, 0
16, 57984, Note_on_c, 11, 67, 92
16, 58126, Note_on_c, 11, 67, 0
16, 58128, Note_on_c, 11, 62, 92
16, 58174, Note_on_c, 11, 62, 0
16, 58176, Note_on_c, 11, 59, 92
16, 58318, Note_on_c, 11, 59, 0
16, 58320, Note_on_c, 11, 55, 92
16, 58366, Note_on_c, 11, 55, 0
16, 58368, Note_on_c, 11, 67, 92
16, 58528, Note_on_c, 11, 67, 0
16, 58752, Note_on_c, 11, 60, 92
16, 59296, Note_on_c, 11, 60, 0
16, 59328, Note_on_c, 11, 59, 92
16, 59488, Note_on_c, 11, 59, 0
16, 59520, Note_on_c, 11, 55, 92
16, 59680, Note_on_c, 11, 55, 0
16, 59712, Note_on_c, 11, 58, 92
16, 60096, Note_on_c, 11, 58, 0
16, 60096, Note_on_c, 11, 57, 92
16, 60256, Note_on_c, 11, 57, 0
16, 60288, Note_on_c, 11, 53, 92
16, 60448, Note_on_c, 11, 53, 0
16, 60480, Note_on_c, 11, 56, 92
16, 60640, Note_on_c, 11, 56, 0
16, 60672, Note_on_c, 11, 55, 92
16, 60832, Note_on_c, 11, 55, 0
16, 60864, Note_on_c, 11, 60, 92
16, 60864, Note_on_c, 11, 63, 92
16, 61024, Note_on_c, 11, 63, 0
16, 61056, Note_on_c, 11, 62, 92
16, 61216, Note_on_c, 11, 60, 0
16, 61248, Note_on_c, 11, 59, 92
16, 61408, Note_on_c, 11, 59, 0
16, 61440, Note_on_c, 11, 63, 92
16, 61632, Note_on_c, 11, 62, 0
16, 61632, Note_on_c, 11, 60, 92
16, 61728, Note_on_c, 11, 60, 0
16, 61728, Note_on_c, 11, 67, 92
16, 61776, Note_on_c, 11, 63, 0
16, 61824, Note_on_c, 11, 67, 0
16, 61824, Note_on_c, 11, 63, 92
16, 61824, Note_on_c, 11, 65, 92
16, 61984, Note_on_c, 11, 63, 0
16, 62016, Note_on_c, 11, 62, 92
16, 62112, Note_on_c, 11, 62, 0
16, 62112, Note_on_c, 11, 68, 92
16, 62206, Note_on_c, 11, 68, 0
16, 62208, Note_on_c, 11, 67, 92
16, 62400, Note_on_c, 11, 65, 0
16, 62400, Note_on_c, 11, 63, 92
16, 62496, Note_on_c, 11, 63, 0
16, 62496, Note_on_c, 11, 70, 92
16, 62544, Note_on_c, 11, 67, 0
16, 62592, Note_on_c, 11, 70, 0
16, 62592, Note_on_c, 11, 67, 92
16, 62592, Note_on_c, 11, 68, 92
16, 62784, Note_on_c, 11, 67, 0
16, 62784, Note_on_c, 11, 65, 92
16, 62880, Note_on_c, 11, 65, 0
16, 62880, Note_on_c, 11, 72, 92
16, 62928, Note_on_c, 11, 68, 0
16, 62976, Note_on_c, 11, 72, 0
16, 62976, Note_on_c, 11, 68, 92
16, 62976, Note_on_c, 11, 70, 92
16, 63136, Note_on_c, 11, 68, 0
16, 63168, Note_on_c, 11, 67, 92
16, 63264, Note_on_c, 11, 67, 0
16, 63264, Note_on_c, 11, 73, 92
16, 63312, Note_on_c, 11, 70, 0
16, 63358, Note_on_c, 11, 73, 0
16, 63360, Note_on_c, 11, 60, 92
16, 63408, Note_on_c, 11, 60, 0
16, 63408, Note_on_c, 11, 61, 92
16, 63456, Note_on_c, 11, 61, 0
16, 63456, Note_on_c, 11, 63, 92
16, 63504, Note_on_c, 11, 63, 0
16, 63504, Note_on_c, 11, 60, 92
16, 63550, Note_on_c, 11, 60, 0
16, 63552, Note_on_c, 11, 72, 92
16, 63584, Note_on_c, 11, 72, 0
16, 63648, Note_on_c, 11, 72, 92
16, 63680, Note_on_c, 11, 72, 0
16, 63744, Note_on_c, 11, 48, 92
16, 63792, Note_on_c, 11, 48, 0
16, 63792, Note_on_c, 11, 50, 92
16, 63840, Note_on_c, 11, 50, 0
16, 63840, Note_on_c, 11, 51, 92
16, 63888, Note_on_c, 11, 51, 0
16, 63888, Note_on_c, 11, 48, 92
16, 63934, Note_on_c, 11, 48, 0
16, 63936, Note_on_c, 11, 60, 92
16, 63968, Note_on_c, 11, 60, 0
16, 64032, Note_on_c, 11, 60, 92
16, 64064, Note_on_c, 11, 60, 0
16, 64128, Note_on_c, 11, 57, 92
16, 64176, Note_on_c, 11, 57, 0
16, 64176, Note_on_c, 11, 59, 92
16, 64224, Note_on_c, 11, 59, 0
16, 64224, Note_on_c, 11, 60, 92
16, 64272, Note_on_c, 11, 60, 0
16, 64272, Note_on_c, 11, 57, 92
16, 64318, Note_on_c, 11, 57, 0
16, 64320, Note_on_c, 11, 60, 92
16, 64352, Note_on_c, 11, 60, 0
16, 64416, Note_on_c, 11, 60, 92
16, 64448, Note_on_c, 11, 60, 0
16, 64512, Note_on_c, 11, 67, 92
16, 64606, Note_on_c, 11, 67, 0
16, 64608, Note_on_c, 11, 60, 92
16, 64704, Note_on_c, 11, 60, 0
16, 64704, Note_on_c, 11, 59, 92
16, 64800, Note_on_c, 11, 59, 0
16, 64800, Note_on_c, 11, 60, 92
16, 64894, Note_on_c, 11, 60, 0
16, 64896, Note_on_c, 11, 59, 92
16, 64928, Note_on_c, 11, 59, 0
16, 64992, Note_on_c, 11, 65, 92
16, 65024, Note_on_c, 11, 65, 0
16, 65088, Note_on_c, 11, 63, 92
16, 65120, Note_on_c, 11, 63, 0
16, 65184, Note_on_c, 11, 62, 92
16, 65216, Note_on_c, 11, 62, 0
16, 65280, Note_on_c, 11, 60, 92
16, 65440, Note_on_c, 11, 60, 0
16, 65568, Note_on_c, 11, 51, 60
16, 65662, Note_on_c, 11, 51, 0
16, 65664, Note_on_c, 11, 51, 60
16, 65824, Note_on_c, 11, 51, 0
16, 65952, Note_on_c, 11, 51, 60
16, 66046, Note_on_c, 11, 51, 0
16, 66048, Note_on_c, 11, 53, 60
16, 66208, Note_on_c, 11, 53, 0
16, 66336, Note_on_c, 11, 53, 60
16, 66430, Note_on_c, 11, 53, 0
16, 66432, Note_on_c, 11, 50, 60
16, 66592, Note_on_c, 11, 50, 0
16, 66720, Note_on_c, 11, 55, 60
16, 66814, Note_on_c, 11, 55, 0
16, 66816, Note_on_c, 11, 55, 60
16, 66976, Note_on_c, 11, 55, 0
16, 67104, Note_on_c, 11, 55, 60
16, 67198, Note_on_c, 11, 55, 0
16, 67200, Note_on_c, 11, 55, 60
16, 67360, Note_on_c, 11, 55, 0
16, 67488, Note_on_c, 11, 52, 60
16, 67582, Note_on_c, 11, 52, 0
16, 67584, Note_on_c, 11, 57, 60
16, 67744, Note_on_c, 11, 57, 0
16, 67872, Note_on_c, 11, 57, 60
16, 67966, Note_on_c, 11, 57, 0
16, 67968, Note_on_c, 11, 60, 60
16, 68128, Note_on_c, 11, 60, 0
16, 68256, Note_on_c, 11, 60, 60
16, 68350, Note_on_c, 11, 60, 0
16, 68352, Note_on_c, 11, 60, 60
16, 68736, Note_on_c, 11, 60, 0
16, 68736, Note_on_c, 11, 62, 60
16, 69072, Note_on_c, 11, 62, 0
16, 69120, Note_on_c, 11, 60, 60
16, 69840, Note_on_c, 11, 60, 0
16, 69888, Note_on_c, 11, 55, 60
16, 70608, Note_on_c, 11, 55, 0
16, 70656, Note_on_c, 11, 55, 45
16, 70656, Note_on_c, 11, 60, 45
16, 70752, Note_on_c, 11, 55, 0
16, 70752, Note_on_c, 11, 60, 0
16, 70752, Note_on_c, 11, 51, 45
16, 70752, Note_on_c, 11, 55, 45
16, 70846, Note_on_c, 11, 51, 0
16, 70846, Note_on_c, 11, 55, 0
16, 70848, Note_on_c, 11, 51, 45
16, 70848, Note_on_c, 11, 55, 45
16, 70880, Note_on_c, 11, 51, 0
16, 70880, Note_on_c, 11, 55, 0
16, 70944, Note_on_c, 11, 51, 30
16, 70944, Note_on_c, 11, 55, 30
16, 70976, Note_on_c, 11, 51, 0
16, 70976, Note_on_c, 11, 55, 0
16, 71040, Note_on_c, 11, 51, 30
16, 71040, Note_on_c, 11, 55, 30
16, 71136, Note_on_c, 11, 51, 0
16, 71136, Note_on_c, 11, 55, 0
16, 71136, Note_on_c, 11, 48, 30
16, 71136, Note_on_c, 11, 51, 30
16, 71230, Note_on_c, 11, 48, 0
16, 71230, Note_on_c, 11, 51, 0
16, 71232, Note_on_c, 11, 48, 30
16, 71232, Note_on_c, 11, 51, 30
16, 71264, Note_on_c, 11, 48, 0
16, 71264, Note_on_c, 11, 51, 0
16, 71328, Note_on_c, 11, 48, 30
16, 71328, Note_on_c, 11, 51, 30
16, 71360, Note_on_c, 11, 48, 0
16, 71360, Note_on_c, 11, 51, 0
16, 71424, Note_on_c, 11, 48, 30
16, 71424, Note_on_c, 11, 51, 30
16, 71760, Note_on_c, 11, 48, 0
16, 71760, Note_on_c, 11, 51, 0
16, 71760, End_track
17, 0, Start_track
17, 0, MIDI_port, 0
17, 0, Title_t, "Soprano Solo"
17, 0, Program_c, 12, 53
17, 0, Control_c, 12, 7, 127
17, 0, Control_c, 12, 10, 127
17, 25344, Note_on_c, 12, 75, 110
17, 25872, Note_on_c, 12, 75, 0
17, 25920, Note_on_c, 12, 74, 110
17, 26016, Note_on_c, 12, 74, 0
17, 26016, Note_on_c, 12, 72, 110
17, 26110, Note_on_c, 12, 72, 0
17, 26112, Note_on_c, 12, 72, 110
17, 26208, Note_on_c, 12, 72, 0
17, 26208, Note_on_c, 12, 70, 110
17, 26656, Note_on_c, 12, 70, 0
17, 26688, Note_on_c, 12, 68, 110
17, 26784, Note_on_c, 12, 68, 0
17, 26784, Note_on_c, 12, 67, 110
17, 26878, Note_on_c, 12, 67, 0
17, 26880, Note_on_c, 12, 68, 110
17, 26904, Note_on_c, 12, 68, 0
17, 26904, Note_on_c, 12, 70, 110
17, 26928, Note_on_c, 12, 70, 0
17, 26928, Note_on_c, 12, 68, 110
17, 26952, Note_on_c, 12, 68, 0
17, 26952, Note_on_c, 12, 70, 110
17, 26976, Note_on_c, 12, 70, 0
17, 26976, Note_on_c, 12, 68, 110
17, 27000, Note_on_c, 12, 68, 0
17, 27000, Note_on_c, 12, 70, 110
17, 27024, Note_on_c, 12, 70, 0
17, 27024, Note_on_c, 12, 68, 110
17, 27048, Note_on_c, 12, 68, 0
17, 27048, Note_on_c, 12, 70, 110
17, 27072, Note_on_c, 12, 70, 0
17, 27072, Note_on_c, 12, 68, 110
17, 27096, Note_on_c, 12, 68, 0
17, 27096, Note_on_c, 12, 70, 110
17, 27120, Note_on_c, 12, 70, 0
17, 27120, Note_on_c, 12, 68, 110
17, 27144, Note_on_c, 12, 68, 0
17, 27144, Note_on_c, 12, 70, 110
17, 27168, Note_on_c, 12, 70, 0
17, 27168, Note_on_c, 12, 67, 110
17, 27216, Note_on_c, 12, 67, 0
17, 27216, Note_on_c, 12, 68, 110
17, 27262, Note_on_c, 12, 68, 0
17, 27264, Note_on_c, 12, 70, 110
17, 27424, Note_on_c, 12, 70, 0
17, 27456, Note_on_c, 12, 68, 110
17, 27616, Note_on_c, 12, 68, 0
17, 27648, Note_on_c, 12, 66, 110
17, 27744, Note_on_c, 12, 66, 0
17, 27744, Note_on_c, 12, 67, 110
17, 27838, Note_on_c, 12, 67, 0
17, 27840, Note_on_c, 12, 67, 110
17, 28000, Note_on_c, 12, 67, 0
17, 28416, Note_on_c, 12, 63, 110
17, 29136, Note_on_c, 12, 63, 0
17, 29184, Note_on_c, 12, 65, 110
17, 29904, Note_on_c, 12, 65, 0
17, 29952, Note_on_c, 12, 67, 110
17, 30240, Note_on_c, 12, 67, 0
17, 30240, Note_on_c, 12, 68, 110
17, 30334, Note_on_c, 12, 68, 0
17, 30336, Note_on_c, 12, 70, 110
17, 30432, Note_on_c, 12, 70, 0
17, 30432, Note_on_c, 12, 72, 110
17, 30526, Note_on_c, 12, 72, 0
17, 30528, Note_on_c, 12, 74, 110
17, 30624, Note_on_c, 12, 74, 0
17, 30624, Note_on_c, 12, 75, 110
17, 30718, Note_on_c, 12, 75, 0
17, 30720, Note_on_c, 12, 77, 110
17, 30816, Note_on_c, 12, 77, 0
17, 30816, Note_on_c, 12, 75, 110
17, 30912, Note_on_c, 12, 75, 0
17, 30912, Note_on_c, 12, 74, 110
17, 31008, Note_on_c, 12, 74, 0
17, 31008, Note_on_c, 12, 72, 110
17, 31104, Note_on_c, 12, 72, 0
17, 31104, Note_on_c, 12, 70, 110
17, 31296, Note_on_c, 12, 70, 0
17, 31296, Note_on_c, 12, 68, 110
17, 31320, Note_on_c, 12, 68, 0
17, 31320, Note_on_c, 12, 70, 110
17, 31344, Note_on_c, 12, 70, 0
17, 31344, Note_on_c, 12, 68, 110
17, 31368, Note_on_c, 12, 68, 0
17, 31368, Note_on_c, 12, 70, 110
17, 31392, Note_on_c, 12, 70, 0
17, 31392, Note_on_c, 12, 68, 110
17, 31416, Note_on_c, 12, 68, 0
17, 31416, Note_on_c, 12, 70, 110
17, 31440, Note_on_c, 12, 70, 0
17, 31440, Note_on_c, 12, 68, 110
17, 31464, Note_on_c, 12, 68, 0
17, 31464, Note_on_c, 12, 70, 110
17, 31486, Note_on_c, 12, 70, 0
17, 31488, Note_on_c, 12, 67, 110
17, 31648, Note_on_c, 12, 67, 0
17, 32832, Note_on_c, 12, 70, 110
17, 32992, Note_on_c, 12, 70, 0
17, 33024, Note_on_c, 12, 70, 110
17, 33472, Note_on_c, 12, 70, 0
17, 33472, Note_on_c, 12, 72, 110
17, 33536, Note_on_c, 12, 72, 0
17, 33536, Note_on_c, 12, 74, 110
17, 33598, Note_on_c, 12, 74, 0
17, 33600, Note_on_c, 12, 75, 110
17, 33664, Note_on_c, 12, 75, 0
17, 33664, Note_on_c, 12, 77, 110
17, 33728, Note_on_c, 12, 77, 0
17, 33728, Note_on_c, 12, 79, 110
17, 33790, Note_on_c, 12, 79, 0
17, 33792, Note_on_c, 12, 80, 110
17, 33888, Note_on_c, 12, 80, 0
17, 33888, Note_on_c, 12, 79, 110
17, 33984, Note_on_c, 12, 79, 0
17, 33984, Note_on_c, 12, 77, 110
17, 34080, Note_on_c, 12, 77, 0
17, 34080, Note_on_c, 12, 75, 110
17, 34176, Note_on_c, 12, 75, 0
17, 34176, Note_on_c, 12, 74, 110
17, 34272, Note_on_c, 12, 74, 0
17, 34272, Note_on_c, 12, 72, 110
17, 34368, Note_on_c, 12, 72, 0
17, 34368, Note_on_c, 12, 70, 110
17, 34464, Note_on_c, 12, 70, 0
17, 34464, Note_on_c, 12, 68, 110
17, 34558, Note_on_c, 12, 68, 0
17, 34560, Note_on_c, 12, 67, 110
17, 34720, Note_on_c, 12, 67, 0
17, 34752, Note_on_c, 12, 70, 110
17, 34912, Note_on_c, 12, 70, 0
17, 35136, Note_on_c, 12, 70, 110
17, 35296, Note_on_c, 12, 70, 0
17, 35328, Note_on_c, 12, 70, 110
17, 35488, Note_on_c, 12, 70, 0
17, 35520, Note_on_c, 12, 75, 110
17, 35680, Note_on_c, 12, 75, 0
17, 35904, Note_on_c, 12, 75, 110
17, 36064, Note_on_c, 12, 75, 0
17, 36096, Note_on_c, 12, 75, 110
17, 36256, Note_on_c, 12, 75, 0
17, 36288, Note_on_c, 12, 79, 110
17, 36448, Note_on_c, 12, 79, 0
17, 36672, Note_on_c, 12, 75, 110
17, 36832, Note_on_c, 12, 75, 0
17, 36864, Note_on_c, 12, 75, 110
17, 37408, Note_on_c, 12, 75, 0
17, 37440, Note_on_c, 12, 67, 110
17, 37600, Note_on_c, 12, 67, 0
17, 37632, Note_on_c, 12, 70, 110
17, 37920, Note_on_c, 12, 70, 0
17, 37920, Note_on_c, 12, 67, 110
17, 38014, Note_on_c, 12, 67, 0
17, 38016, Note_on_c, 12, 65, 110
17, 38176, Note_on_c, 12, 65, 0
17, 38400, Note_on_c, 12, 58, 110
17, 39120, Note_on_c, 12, 58, 0
17, 39168, Note_on_c, 12, 56, 110
17, 39888, Note_on_c, 12, 56, 0
17, 39936, Note_on_c, 12, 74, 110
17, 40080, Note_on_c, 12, 74, 0
17, 40080, Note_on_c, 12, 80, 110
17, 40126, Note_on_c, 12, 80, 0
17, 40128, Note_on_c, 12, 80, 110
17, 40464, Note_on_c, 12, 80, 0
17, 40512, Note_on_c, 12, 74, 110
17, 40672, Note_on_c, 12, 74, 0
17, 40704, Note_on_c, 12, 75, 110
17, 40992, Note_on_c, 12, 75, 0
17, 40992, Note_on_c, 12, 74, 110
17, 41040, Note_on_c, 12, 74, 0
17, 41040, Note_on_c, 12, 72, 110
17, 41086, Note_on_c, 12, 72, 0
17, 41088, Note_on_c, 12, 70, 110
17, 41182, Note_on_c, 12, 70, 0
17, 41472, Note_on_c, 12, 73, 110
17, 41808, Note_on_c, 12, 73, 0
17, 41856, Note_on_c, 12, 71, 110
17, 42192, Note_on_c, 12, 71, 0
17, 42240, Note_on_c, 12, 72, 110
17, 42432, Note_on_c, 12, 72, 0
17, 42432, Note_on_c, 12, 74, 110
17, 42456, Note_on_c, 12, 74, 0
17, 42456, Note_on_c, 12, 72, 110
17, 42480, Note_on_c, 12, 72, 0
17, 42480, Note_on_c, 12, 71, 110
17, 42504, Note_on_c, 12, 71, 0
17, 42504, Note_on_c, 12, 72, 110
17, 42528, Note_on_c, 12, 72, 0
17, 42528, Note_on_c, 12, 74, 110
17, 42622, Note_on_c, 12, 74, 0
17, 42624, Note_on_c, 12, 75, 110
17, 42784, Note_on_c, 12, 75, 0
17, 43200, Note_on_c, 12, 67, 110
17, 43360, Note_on_c, 12, 67, 0
17, 43392, Note_on_c, 12, 70, 110
17, 43488, Note_on_c, 12, 70, 0
17, 43488, Note_on_c, 12, 68, 110
17, 43584, Note_on_c, 12, 68, 0
17, 43584, Note_on_c, 12, 67, 110
17, 43680, Note_on_c, 12, 67, 0
17, 43680, Note_on_c, 12, 65, 110
17, 43774, Note_on_c, 12, 65, 0
17, 43776, Note_on_c, 12, 63, 110
17, 43936, Note_on_c, 12, 63, 0
17, 44256, Note_on_c, 12, 63, 110
17, 44352, Note_on_c, 12, 63, 0
17, 44352, Note_on_c, 12, 65, 110
17, 44448, Note_on_c, 12, 65, 0
17, 44448, Note_on_c, 12, 67, 110
17, 44542, Note_on_c, 12, 67, 0
17, 44544, Note_on_c, 12, 67, 110
17, 44640, Note_on_c, 12, 67, 0
17, 44640, Note_on_c, 12, 68, 110
17, 44734, Note_on_c, 12, 68, 0
17, 44736, Note_on_c, 12, 64, 110
17, 44832, Note_on_c, 12, 64, 0
17, 44832, Note_on_c, 12, 65, 110
17, 44926, Note_on_c, 12, 65, 0
17, 45024, Note_on_c, 12, 65, 110
17, 45120, Note_on_c, 12, 65, 0
17, 45120, Note_on_c, 12, 67, 110
17, 45216, Note_on_c, 12, 67, 0
17, 45216, Note_on_c, 12, 68, 110
17, 45310, Note_on_c, 12, 68, 0
17, 45312, Note_on_c, 12, 69, 110
17, 45408, Note_on_c, 12, 69, 0
17, 45408, Note_on_c, 12, 70, 110
17, 45502, Note_on_c, 12, 70, 0
17, 45504, Note_on_c, 12, 66, 110
17, 45600, Note_on_c, 12, 66, 0
17, 45600, Note_on_c, 12, 67, 110
17, 45694, Note_on_c, 12, 67, 0
17, 45792, Note_on_c, 12, 67, 110
17, 45888, Note_on_c, 12, 67, 0
17, 45888, Note_on_c, 12, 68, 110
17, 45984, Note_on_c, 12, 68, 0
17, 45984, Note_on_c, 12, 70, 110
17, 46078, Note_on_c, 12, 70, 0
17, 46080, Note_on_c, 12, 71, 110
17, 46176, Note_on_c, 12, 71, 0
17, 46176, Note_on_c, 12, 72, 110
17, 46272, Note_on_c, 12, 72, 0
17, 46272, Note_on_c, 12, 74, 110
17, 46368, Note_on_c, 12, 74, 0
17, 46368, Note_on_c, 12, 75, 110
17, 46464, Note_on_c, 12, 75, 0
17, 46464, Note_on_c, 12, 74, 110
17, 46560, Note_on_c, 12, 74, 0
17, 46560, Note_on_c, 12, 72, 110
17, 46656, Note_on_c, 12, 72, 0
17, 46656, Note_on_c, 12, 70, 110
17, 46752, Note_on_c, 12, 70, 0
17, 46752, Note_on_c, 12, 68, 110
17, 46846, Note_on_c, 12, 68, 0
17, 46848, Note_on_c, 12, 70, 110
17, 46944, Note_on_c, 12, 70, 0
17, 46944, Note_on_c, 12, 68, 110
17, 46968, Note_on_c, 12, 68, 0
17, 46968, Note_on_c, 12, 70, 110
17, 46992, Note_on_c, 12, 70, 0
17, 46992, Note_on_c, 12, 68, 110
17, 47016, Note_on_c, 12, 68, 0
17, 47016, Note_on_c, 12, 70, 110
17, 47038, Note_on_c, 12, 70, 0
17, 47040, Note_on_c, 12, 67, 110
17, 47200, Note_on_c, 12, 67, 0
17, 48864, Note_on_c, 12, 67, 110
17, 48958, Note_on_c, 12, 67, 0
17, 48960, Note_on_c, 12, 68, 110
17, 49054, Note_on_c, 12, 68, 0
17, 49056, Note_on_c, 12, 70, 110
17, 49150, Note_on_c, 12, 70, 0
17, 49152, Note_on_c, 12, 72, 110
17, 49414, Note_on_c, 12, 72, 0
17, 49416, Note_on_c, 12, 68, 110
17, 49438, Note_on_c, 12, 68, 0
17, 49440, Note_on_c, 12, 68, 110
17, 49456, Note_on_c, 12, 68, 0
17, 49456, Note_on_c, 12, 70, 110
17, 49472, Note_on_c, 12, 70, 0
17, 49472, Note_on_c, 12, 68, 110
17, 49488, Note_on_c, 12, 68, 0
17, 49488, Note_on_c, 12, 70, 110
17, 49504, Note_on_c, 12, 70, 0
17, 49504, Note_on_c, 12, 68, 110
17, 49520, Note_on_c, 12, 68, 0
17, 49520, Note_on_c, 12, 70, 110
17, 49534, Note_on_c, 12, 70, 0
17, 49536, Note_on_c, 12, 74, 110
17, 49798, Note_on_c, 12, 74, 0
17, 49800, Note_on_c, 12, 70, 110
17, 49822, Note_on_c, 12, 70, 0
17, 49824, Note_on_c, 12, 70, 110
17, 49840, Note_on_c, 12, 70, 0
17, 49840, Note_on_c, 12, 72, 110
17, 49856, Note_on_c, 12, 72, 0
17, 49856, Note_on_c, 12, 70, 110
17, 49872, Note_on_c, 12, 70, 0
17, 49872, Note_on_c, 12, 72, 110
17, 49888, Note_on_c, 12, 72, 0
17, 49888, Note_on_c, 12, 70, 110
17, 49904, Note_on_c, 12, 70, 0
17, 49904, Note_on_c, 12, 72, 110
17, 49918, Note_on_c, 12, 72, 0
17, 49920, Note_on_c, 12, 77, 110
17, 50014, Note_on_c, 12, 77, 0
17, 50016, Note_on_c, 12, 75, 110
17, 50176, Note_on_c, 12, 75, 0
17, 50208, Note_on_c, 12, 76, 110
17, 50368, Note_on_c, 12, 76, 0
17, 50400, Note_on_c, 12, 77, 110
17, 50560, Note_on_c, 12, 77, 0
17, 50592, Note_on_c, 12, 78, 110
17, 50686, Note_on_c, 12, 78, 0
17, 50736, Note_on_c, 12, 79, 110
17, 50784, Note_on_c, 12, 79, 0
17, 50784, Note_on_c, 12, 78, 110
17, 50832, Note_on_c, 12, 78, 0
17, 50832, Note_on_c, 12, 79, 110
17, 50878, Note_on_c, 12, 79, 0
17, 50928, Note_on_c, 12, 77, 110
17, 50976, Note_on_c, 12, 77, 0
17, 50976, Note_on_c, 12, 75, 110
17, 51024, Note_on_c, 12, 75, 0
17, 51024, Note_on_c, 12, 74, 110
17, 51070, Note_on_c, 12, 74, 0
17, 51120, Note_on_c, 12, 75, 110
17, 51168, Note_on_c, 12, 75, 0
17, 51168, Note_on_c, 12, 74, 110
17, 51216, Note_on_c, 12, 74, 0
17, 51216, Note_on_c, 12, 75, 110
17, 51262, Note_on_c, 12, 75, 0
17, 51312, Note_on_c, 12, 73, 110
17, 51360, Note_on_c, 12, 73, 0
17, 51360, Note_on_c, 12, 72, 110
17, 51408, Note_on_c, 12, 72, 0
17, 51408, Note_on_c, 12, 71, 110
17, 51454, Note_on_c, 12, 71, 0
17, 51504, Note_on_c, 12, 72, 110
17, 51552, Note_on_c, 12, 72, 0
17, 51552, Note_on_c, 12, 75, 110
17, 51600, Note_on_c, 12, 75, 0
17, 51600, Note_on_c, 12, 72, 110
17, 51648, Note_on_c, 12, 72, 0
17, 51648, Note_on_c, 12, 70, 110
17, 51696, Note_on_c, 12, 70, 0
17, 51696, Note_on_c, 12, 68, 110
17, 51744, Note_on_c, 12, 68, 0
17, 51744, Note_on_c, 12, 72, 110
17, 51792, Note_on_c, 12, 72, 0
17, 51792, Note_on_c, 12, 68, 110
17, 51840, Note_on_c, 12, 68, 0
17, 51840, Note_on_c, 12, 67, 110
17, 51888, Note_on_c, 12, 67, 0
17, 51888, Note_on_c, 12, 65, 110
17, 51936, Note_on_c, 12, 65, 0
17, 51936, Note_on_c, 12, 68, 110
17, 51984, Note_on_c, 12, 68, 0
17, 51984, Note_on_c, 12, 67, 110
17, 52032, Note_on_c, 12, 67, 0
17, 52032, Note_on_c, 12, 65, 110
17, 52080, Note_on_c, 12, 65, 0
17, 52080, Note_on_c, 12, 63, 110
17, 52128, Note_on_c, 12, 63, 0
17, 52128, Note_on_c, 12, 62, 110
17, 52176, Note_on_c, 12, 62, 0
17, 52176, Note_on_c, 12, 60, 110
17, 52224, Note_on_c, 12, 60, 0
17, 52224, Note_on_c, 12, 58, 110
17, 52384, Note_on_c, 12, 58, 0
17, 52416, Note_on_c, 12, 79, 110
17, 52704, Note_on_c, 12, 79, 0
17, 52704, Note_on_c, 12, 75, 110
17, 52800, Note_on_c, 12, 75, 0
17, 52800, Note_on_c, 12, 70, 110
17, 52896, Note_on_c, 12, 70, 0
17, 52896, Note_on_c, 12, 67, 110
17, 52990, Note_on_c, 12, 67, 0
17, 52992, Note_on_c, 12, 65, 110
17, 53016, Note_on_c, 12, 65, 0
17, 53016, Note_on_c, 12, 67, 110
17, 53040, Note_on_c, 12, 67, 0
17, 53040, Note_on_c, 12, 65, 110
17, 53064, Note_on_c, 12, 65, 0
17, 53064, Note_on_c, 12, 67, 110
17, 53088, Note_on_c, 12, 67, 0
17, 53088, Note_on_c, 12, 65, 110
17, 53112, Note_on_c, 12, 65, 0
17, 53112, Note_on_c, 12, 67, 110
17, 53136, Note_on_c, 12, 67, 0
17, 53136, Note_on_c, 12, 65, 110
17, 53160, Note_on_c, 12, 65, 0
17, 53160, Note_on_c, 12, 67, 110
17, 53184, Note_on_c, 12, 67, 0
17, 53184, Note_on_c, 12, 65, 110
17, 53208, Note_on_c, 12, 65, 0
17, 53208, Note_on_c, 12, 67, 110
17, 53232, Note_on_c, 12, 67, 0
17, 53232, Note_on_c, 12, 65, 110
17, 53256, Note_on_c, 12, 65, 0
17, 53256, Note_on_c, 12, 67, 110
17, 53280, Note_on_c, 12, 67, 0
17, 53280, Note_on_c, 12, 65, 110
17, 53304, Note_on_c, 12, 65, 0
17, 53304, Note_on_c, 12, 67, 110
17, 53328, Note_on_c, 12, 67, 0
17, 53328, Note_on_c, 12, 65, 110
17, 53352, Note_on_c, 12, 65, 0
17, 53352, Note_on_c, 12, 67, 110
17, 53376, Note_on_c, 12, 67, 0
17, 53376, Note_on_c, 12, 65, 110
17, 53400, Note_on_c, 12, 65, 0
17, 53400, Note_on_c, 12, 67, 110
17, 53424, Note_on_c, 12, 67, 0
17, 53424, Note_on_c, 12, 65, 110
17, 53448, Note_on_c, 12, 65, 0
17, 53448, Note_on_c, 12, 67, 110
17, 53472, Note_on_c, 12, 67, 0
17, 53472, Note_on_c, 12, 65, 110
17, 53496, Note_on_c, 12, 65, 0
17, 53496, Note_on_c, 12, 67, 110
17, 53520, Note_on_c, 12, 67, 0
17, 53520, Note_on_c, 12, 65, 110
17, 53544, Note_on_c, 12, 65, 0
17, 53544, Note_on_c, 12, 67, 110
17, 53568, Note_on_c, 12, 67, 0
17, 53568, Note_on_c, 12, 65, 110
17, 53592, Note_on_c, 12, 65, 0
17, 53592, Note_on_c, 12, 67, 110
17, 53616, Note_on_c, 12, 67, 0
17, 53616, Note_on_c, 12, 65, 110
17, 53640, Note_on_c, 12, 65, 0
17, 53640, Note_on_c, 12, 67, 110
17, 53664, Note_on_c, 12, 67, 0
17, 53664, Note_on_c, 12, 65, 110
17, 53688, Note_on_c, 12, 65, 0
17, 53688, Note_on_c, 12, 67, 110
17, 53712, Note_on_c, 12, 67, 0
17, 53712, Note_on_c, 12, 63, 110
17, 53736, Note_on_c, 12, 63, 0
17, 53736, Note_on_c, 12, 65, 110
17, 53758, Note_on_c, 12, 65, 0
17, 53760, Note_on_c, 12, 63, 110
17, 53920, Note_on_c, 12, 63, 0
17, 53920, End_track
18, 0, Start_track
18, 0, MIDI_port, 0
18, 0, Title_t, "Canto"
18, 0, Program_c, 12, 53
18, 0, Control_c, 12, 7, 127
18, 0, Control_c, 12, 10, 127
18, 3840, Note_on_c, 12, 60, 92
18, 4174, Note_on_c, 12, 60, 0
18, 4176, Note_on_c, 12, 60, 92
18, 4222, Note_on_c, 12, 60, 0
18, 4224, Note_on_c, 12, 63, 92
18, 4384, Note_on_c, 12, 63, 0
18, 4416, Note_on_c, 12, 67, 92
18, 4576, Note_on_c, 12, 67, 0
18, 4608, Note_on_c, 12, 72, 92
18, 4768, Note_on_c, 12, 72, 0
18, 4800, Note_on_c, 12, 75, 92
18, 4960, Note_on_c, 12, 75, 0
18, 4992, Note_on_c, 12, 79, 92
18, 5152, Note_on_c, 12, 79, 0
18, 5184, Note_on_c, 12, 75, 92
18, 5344, Note_on_c, 12, 75, 0
18, 5376, Note_on_c, 12, 72, 92
18, 5536, Note_on_c, 12, 72, 0
18, 5568, Note_on_c, 12, 67, 92
18, 5728, Note_on_c, 12, 67, 0
18, 5760, Note_on_c, 12, 63, 92
18, 5920, Note_on_c, 12, 63, 0
18, 5952, Note_on_c, 12, 67, 92
18, 6112, Note_on_c, 12, 67, 0
18, 6144, Note_on_c, 12, 72, 92
18, 6304, Note_on_c, 12, 72, 0
18, 6528, Note_on_c, 12, 72, 92
18, 7072, Note_on_c, 12, 72, 0
18, 7104, Note_on_c, 12, 71, 92
18, 7264, Note_on_c, 12, 71, 0
18, 7296, Note_on_c, 12, 67, 92
18, 7456, Note_on_c, 12, 67, 0
18, 7488, Note_on_c, 12, 70, 92
18, 7648, Note_on_c, 12, 70, 0
18, 7680, Note_on_c, 12, 70, 92
18, 7840, Note_on_c, 12, 70, 0
18, 7872, Note_on_c, 12, 69, 92
18, 8032, Note_on_c, 12, 69, 0
18, 8064, Note_on_c, 12, 65, 92
18, 8224, Note_on_c, 12, 65, 0
18, 8256, Note_on_c, 12, 68, 92
18, 8416, Note_on_c, 12, 68, 0
18, 8448, Note_on_c, 12, 67, 92
18, 8608, Note_on_c, 12, 67, 0
18, 8640, Note_on_c, 12, 72, 92
18, 8976, Note_on_c, 12, 72, 0
18, 9024, Note_on_c, 12, 71, 92
18, 9184, Note_on_c, 12, 71, 0
18, 9216, Note_on_c, 12, 72, 92
18, 9310, Note_on_c, 12, 72, 0
18, 9312, Note_on_c, 12, 79, 92
18, 9472, Note_on_c, 12, 79, 0
18, 9504, Note_on_c, 12, 79, 92
18, 9598, Note_on_c, 12, 79, 0
18, 9600, Note_on_c, 12, 79, 92
18, 9696, Note_on_c, 12, 79, 0
18, 9696, Note_on_c, 12, 74, 92
18, 9790, Note_on_c, 12, 74, 0
18, 9792, Note_on_c, 12, 74, 92
18, 9888, Note_on_c, 12, 74, 0
18, 9888, Note_on_c, 12, 70, 92
18, 9982, Note_on_c, 12, 70, 0
18, 9984, Note_on_c, 12, 69, 92
18, 10032, Note_on_c, 12, 69, 0
18, 10032, Note_on_c, 12, 71, 92
18, 10080, Note_on_c, 12, 71, 0
18, 10080, Note_on_c, 12, 72, 92
18, 10128, Note_on_c, 12, 72, 0
18, 10128, Note_on_c, 12, 71, 92
18, 10174, Note_on_c, 12, 71, 0
18, 10176, Note_on_c, 12, 72, 92
18, 10270, Note_on_c, 12, 72, 0
18, 10272, Note_on_c, 12, 72, 92
18, 10366, Note_on_c, 12, 72, 0
18, 10368, Note_on_c, 12, 72, 92
18, 10464, Note_on_c, 12, 72, 0
18, 10464, Note_on_c, 12, 71, 92
18, 10558, Note_on_c, 12, 71, 0
18, 10560, Note_on_c, 12, 67, 92
18, 10654, Note_on_c, 12, 67, 0
18, 10656, Note_on_c, 12, 67, 92
18, 10750, Note_on_c, 12, 67, 0
18, 10752, Note_on_c, 12, 67, 92
18, 10798, Note_on_c, 12, 67, 0
18, 10800, Note_on_c, 12, 69, 92
18, 10846, Note_on_c, 12, 69, 0
18, 10848, Note_on_c, 12, 70, 92
18, 10894, Note_on_c, 12, 70, 0
18, 10896, Note_on_c, 12, 69, 92
18, 10942, Note_on_c, 12, 69, 0
18, 10944, Note_on_c, 12, 70, 92
18, 11038, Note_on_c, 12, 70, 0
18, 11040, Note_on_c, 12, 70, 92
18, 11134, Note_on_c, 12, 70, 0
18, 11136, Note_on_c, 12, 70, 92
18, 11230, Note_on_c, 12, 70, 0
18, 11232, Note_on_c, 12, 69, 92
18, 11326, Note_on_c, 12, 69, 0
18, 11328, Note_on_c, 12, 65, 92
18, 11488, Note_on_c, 12, 65, 0
18, 11616, Note_on_c, 12, 74, 92
18, 11710, Note_on_c, 12, 74, 0
18, 11712, Note_on_c, 12, 70, 92
18, 11806, Note_on_c, 12, 70, 0
18, 11808, Note_on_c, 12, 75, 92
18, 11902, Note_on_c, 12, 75, 0
18, 12000, Note_on_c, 12, 72, 92
18, 12094, Note_on_c, 12, 72, 0
18, 12096, Note_on_c, 12, 69, 92
18, 12192, Note_on_c, 12, 69, 0
18, 12192, Note_on_c, 12, 74, 92
18, 12286, Note_on_c, 12, 74, 0
18, 12288, Note_on_c, 12, 71, 92
18, 12382, Note_on_c, 12, 71, 0
18, 12384, Note_on_c, 12, 67, 92
18, 12478, Note_on_c, 12, 67, 0
18, 12480, Note_on_c, 12, 72, 92
18, 12528, Note_on_c, 12, 72, 0
18, 12528, Note_on_c, 12, 74, 92
18, 12576, Note_on_c, 12, 74, 0
18, 12576, Note_on_c, 12, 75, 92
18, 12624, Note_on_c, 12, 75, 0
18, 12624, Note_on_c, 12, 72, 92
18, 12670, Note_on_c, 12, 72, 0
18, 12672, Note_on_c, 12, 77, 92
18, 13008, Note_on_c, 12, 77, 0
18, 13056, Note_on_c, 12, 75, 92
18, 13216, Note_on_c, 12, 75, 0
18, 13632, Note_on_c, 12, 67, 92
18, 13792, Note_on_c, 12, 67, 0
18, 13824, Note_on_c, 12, 77, 92
18, 14016, Note_on_c, 12, 77, 0
18, 14016, Note_on_c, 12, 74, 92
18, 14176, Note_on_c, 12, 74, 0
18, 14208, Note_on_c, 12, 79, 92
18, 14368, Note_on_c, 12, 79, 0
18, 14400, Note_on_c, 12, 67, 92
18, 14560, Note_on_c, 12, 67, 0
18, 14592, Note_on_c, 12, 75, 92
18, 14784, Note_on_c, 12, 75, 0
18, 14784, Note_on_c, 12, 72, 92
18, 14944, Note_on_c, 12, 72, 0
18, 14976, Note_on_c, 12, 77, 92
18, 15136, Note_on_c, 12, 77, 0
18, 15168, Note_on_c, 12, 65, 92
18, 15328, Note_on_c, 12, 65, 0
18, 15360, Note_on_c, 12, 63, 92
18, 15696, Note_on_c, 12, 63, 0
18, 15744, Note_on_c, 12, 62, 92
18, 16288, Note_on_c, 12, 62, 0
18, 16320, Note_on_c, 12, 60, 92
18, 16414, Note_on_c, 12, 60, 0
18, 16416, Note_on_c, 12, 67, 92
18, 16510, Note_on_c, 12, 67, 0
18, 16512, Note_on_c, 12, 65, 92
18, 17056, Note_on_c, 12, 65, 0
18, 17088, Note_on_c, 12, 63, 92
18, 17182, Note_on_c, 12, 63, 0
18, 17184, Note_on_c, 12, 70, 92
18, 17278, Note_on_c, 12, 70, 0
18, 17280, Note_on_c, 12, 69, 92
18, 17568, Note_on_c, 12, 69, 0
18, 17568, Note_on_c, 12, 72, 92
18, 17662, Note_on_c, 12, 72, 0
18, 17664, Note_on_c, 12, 70, 92
18, 17824, Note_on_c, 12, 70, 0
18, 17856, Note_on_c, 12, 70, 92
18, 17904, Note_on_c, 12, 70, 0
18, 17904, Note_on_c, 12, 72, 92
18, 17950, Note_on_c, 12, 72, 0
18, 17952, Note_on_c, 12, 74, 92
18, 18000, Note_on_c, 12, 74, 0
18, 18000, Note_on_c, 12, 70, 92
18, 18046, Note_on_c, 12, 70, 0
18, 18048, Note_on_c, 12, 79, 92
18, 18208, Note_on_c, 12, 79, 0
18, 18240, Note_on_c, 12, 67, 92
18, 18288, Note_on_c, 12, 67, 0
18, 18288, Note_on_c, 12, 69, 92
18, 18336, Note_on_c, 12, 69, 0
18, 18336, Note_on_c, 12, 70, 92
18, 18384, Note_on_c, 12, 70, 0
18, 18384, Note_on_c, 12, 67, 92
18, 18430, Note_on_c, 12, 67, 0
18, 18432, Note_on_c, 12, 79, 92
18, 18592, Note_on_c, 12, 79, 0
18, 18624, Note_on_c, 12, 67, 92
18, 18672, Note_on_c, 12, 67, 0
18, 18672, Note_on_c, 12, 69, 92
18, 18720, Note_on_c, 12, 69, 0
18, 18720, Note_on_c, 12, 70, 92
18, 18768, Note_on_c, 12, 70, 0
18, 18768, Note_on_c, 12, 67, 92
18, 18814, Note_on_c, 12, 67, 0
18, 18816, Note_on_c, 12, 79, 92
18, 18976, Note_on_c, 12, 79, 0
18, 19008, Note_on_c, 12, 67, 92
18, 19056, Note_on_c, 12, 67, 0
18, 19056, Note_on_c, 12, 69, 92
18, 19104, Note_on_c, 12, 69, 0
18, 19104, Note_on_c, 12, 70, 92
18, 19152, Note_on_c, 12, 70, 0
18, 19152, Note_on_c, 12, 67, 92
18, 19198, Note_on_c, 12, 67, 0
18, 19200, Note_on_c, 12, 74, 92
18, 19360, Note_on_c, 12, 74, 0
18, 20160, Note_on_c, 12, 74, 60
18, 20496, Note_on_c, 12, 74, 0
18, 20544, Note_on_c, 12, 70, 60
18, 20704, Note_on_c, 12, 70, 0
18, 20736, Note_on_c, 12, 70, 60
18, 20832, Note_on_c, 12, 70, 0
18, 20832, Note_on_c, 12, 69, 60
18, 20992, Note_on_c, 12, 69, 0
18, 21024, Note_on_c, 12, 69, 60
18, 21118, Note_on_c, 12, 69, 0
18, 21120, Note_on_c, 12, 69, 60
18, 21168, Note_on_c, 12, 69, 0
18, 21168, Note_on_c, 12, 71, 60
18, 21216, Note_on_c, 12, 71, 0
18, 21216, Note_on_c, 12, 72, 60
18, 21264, Note_on_c, 12, 72, 0
18, 21264, Note_on_c, 12, 71, 60
18, 21310, Note_on_c, 12, 71, 0
18, 21312, Note_on_c, 12, 72, 60
18, 21406, Note_on_c, 12, 72, 0
18, 21408, Note_on_c, 12, 72, 60
18, 21502, Note_on_c, 12, 72, 0
18, 21504, Note_on_c, 12, 72, 60
18, 21600, Note_on_c, 12, 72, 0
18, 21600, Note_on_c, 12, 71, 60
18, 21694, Note_on_c, 12, 71, 0
18, 21696, Note_on_c, 12, 71, 60
18, 21936, Note_on_c, 12, 71, 0
18, 21936, Note_on_c, 12, 73, 60
18, 21984, Note_on_c, 12, 73, 0
18, 21984, Note_on_c, 12, 74, 60
18, 22032, Note_on_c, 12, 74, 0
18, 22032, Note_on_c, 12, 73, 60
18, 22078, Note_on_c, 12, 73, 0
18, 22080, Note_on_c, 12, 74, 60
18, 22174, Note_on_c, 12, 74, 0
18, 22176, Note_on_c, 12, 74, 60
18, 22270, Note_on_c, 12, 74, 0
18, 22272, Note_on_c, 12, 74, 60
18, 22368, Note_on_c, 12, 74, 0
18, 22368, Note_on_c, 12, 73, 60
18, 22462, Note_on_c, 12, 73, 0
18, 22464, Note_on_c, 12, 73, 60
18, 22752, Note_on_c, 12, 73, 0
18, 22752, Note_on_c, 12, 74, 60
18, 22846, Note_on_c, 12, 74, 0
18, 22848, Note_on_c, 12, 74, 60
18, 22944, Note_on_c, 12, 74, 0
18, 22944, Note_on_c, 12, 76, 60
18, 23038, Note_on_c, 12, 76, 0
18, 23040, Note_on_c, 12, 76, 60
18, 23136, Note_on_c, 12, 76, 0
18, 23136, Note_on_c, 12, 69, 60
18, 23232, Note_on_c, 12, 69, 0
18, 23232, Note_on_c, 12, 70, 60
18, 23328, Note_on_c, 12, 70, 0
18, 23328, Note_on_c, 12, 67, 60
18, 23422, Note_on_c, 12, 67, 0
18, 23424, Note_on_c, 12, 69, 60
18, 23760, Note_on_c, 12, 69, 0
18, 23808, Note_on_c, 12, 67, 60
18, 23968, Note_on_c, 12, 67, 0
18, 27840, Note_on_c, 12, 70, 60
18, 28128, Note_on_c, 12, 70, 0
18, 28128, Note_on_c, 12, 67, 60
18, 28224, Note_on_c, 12, 67, 0
18, 28224, Note_on_c, 12, 68, 60
18, 28320, Note_on_c, 12, 68, 0
18, 28320, Note_on_c, 12, 65, 60
18, 28414, Note_on_c, 12, 65, 0
18, 28416, Note_on_c, 12, 63, 60
18, 28576, Note_on_c, 12, 63, 0
18, 31488, Note_on_c, 12, 63, 60
18, 32256, Note_on_c, 12, 63, 0
18, 32256, Note_on_c, 12, 65, 60
18, 32976, Note_on_c, 12, 65, 0
18, 33024, Note_on_c, 12, 67, 60
18, 33120, Note_on_c, 12, 67, 0
18, 33120, Note_on_c, 12, 68, 60
18, 33214, Note_on_c, 12, 68, 0
18, 33216, Note_on_c, 12, 70, 60
18, 33376, Note_on_c, 12, 70, 0
18, 34752, Note_on_c, 12, 67, 60
18, 34912, Note_on_c, 12, 67, 0
18, 34944, Note_on_c, 12, 67, 60
18, 35104, Note_on_c, 12, 67, 0
18, 35136, Note_on_c, 12, 70, 60
18, 35296, Note_on_c, 12, 70, 0
18, 35520, Note_on_c, 12, 70, 60
18, 35680, Note_on_c, 12, 70, 0
18, 35712, Note_on_c, 12, 70, 60
18, 35872, Note_on_c, 12, 70, 0
18, 35904, Note_on_c, 12, 75, 65
18, 36064, Note_on_c, 12, 75, 0
18, 36288, Note_on_c, 12, 75, 75
18, 36448, Note_on_c, 12, 75, 0
18, 36480, Note_on_c, 12, 75, 80
18, 36672, Note_on_c, 12, 75, 0
18, 36672, Note_on_c, 12, 79, 86
18, 36832, Note_on_c, 12, 79, 0
18, 36864, Note_on_c, 12, 67, 92
18, 37200, Note_on_c, 12, 67, 0
18, 47328, Note_on_c, 12, 63, 75
18, 47424, Note_on_c, 12, 63, 0
18, 47424, Note_on_c, 12, 65, 75
18, 47520, Note_on_c, 12, 65, 0
18, 47520, Note_on_c, 12, 67, 75
18, 47614, Note_on_c, 12, 67, 0
18, 47616, Note_on_c, 12, 67, 75
18, 47712, Note_on_c, 12, 67, 0
18, 47712, Note_on_c, 12, 68, 75
18, 47806, Note_on_c, 12, 68, 0
18, 47808, Note_on_c, 12, 64, 75
18, 47904, Note_on_c, 12, 64, 0
18, 47904, Note_on_c, 12, 65, 75
18, 47998, Note_on_c, 12, 65, 0
18, 48096, Note_on_c, 12, 65, 75
18, 48192, Note_on_c, 12, 65, 0
18, 48192, Note_on_c, 12, 67, 75
18, 48288, Note_on_c, 12, 67, 0
18, 48288, Note_on_c, 12, 68, 75
18, 48382, Note_on_c, 12, 68, 0
18, 48384, Note_on_c, 12, 69, 75
18, 48480, Note_on_c, 12, 69, 0
18, 48480, Note_on_c, 12, 70, 75
18, 48574, Note_on_c, 12, 70, 0
18, 48576, Note_on_c, 12, 66, 75
18, 48672, Note_on_c, 12, 66, 0
18, 48672, Note_on_c, 12, 67, 75
18, 48766, Note_on_c, 12, 67, 0
18, 54144, Note_on_c, 12, 75, 92
18, 54688, Note_on_c, 12, 75, 0
18, 54720, Note_on_c, 12, 74, 92
18, 54880, Note_on_c, 12, 74, 0
18, 54912, Note_on_c, 12, 70, 92
18, 55072, Note_on_c, 12, 70, 0
18, 55104, Note_on_c, 12, 73, 92
18, 55264, Note_on_c, 12, 73, 0
18, 55296, Note_on_c, 12, 73, 92
18, 55456, Note_on_c, 12, 73, 0
18, 55488, Note_on_c, 12, 72, 92
18, 55824, Note_on_c, 12, 72, 0
18, 55872, Note_on_c, 12, 77, 92
18, 56224, Note_on_c, 12, 77, 0
18, 56256, Note_on_c, 12, 76, 92
18, 56416, Note_on_c, 12, 76, 0
18, 56448, Note_on_c, 12, 72, 92
18, 56608, Note_on_c, 12, 72, 0
18, 56640, Note_on_c, 12, 75, 92
18, 56800, Note_on_c, 12, 75, 0
18, 56832, Note_on_c, 12, 75, 92
18, 56992, Note_on_c, 12, 75, 0
18, 57024, Note_on_c, 12, 74, 92
18, 57360, Note_on_c, 12, 74, 0
18, 57408, Note_on_c, 12, 74, 92
18, 57568, Note_on_c, 12, 74, 0
18, 57600, Note_on_c, 12, 74, 92
18, 57936, Note_on_c, 12, 74, 0
18, 57984, Note_on_c, 12, 74, 92
18, 58144, Note_on_c, 12, 74, 0
18, 58176, Note_on_c, 12, 74, 92
18, 58336, Note_on_c, 12, 74, 0
18, 58368, Note_on_c, 12, 74, 92
18, 58464, Note_on_c, 12, 74, 0
18, 58464, Note_on_c, 12, 72, 92
18, 58558, Note_on_c, 12, 72, 0
18, 58560, Note_on_c, 12, 72, 92
18, 58896, Note_on_c, 12, 72, 0
18, 58944, Note_on_c, 12, 67, 92
18, 59104, Note_on_c, 12, 67, 0
18, 59136, Note_on_c, 12, 77, 92
18, 59296, Note_on_c, 12, 77, 0
18, 59328, Note_on_c, 12, 74, 92
18, 59488, Note_on_c, 12, 74, 0
18, 59520, Note_on_c, 12, 79, 92
18, 59680, Note_on_c, 12, 79, 0
18, 59712, Note_on_c, 12, 67, 92
18, 59872, Note_on_c, 12, 67, 0
18, 59904, Note_on_c, 12, 75, 92
18, 60064, Note_on_c, 12, 75, 0
18, 60096, Note_on_c, 12, 72, 92
18, 60256, Note_on_c, 12, 72, 0
18, 60288, Note_on_c, 12, 77, 92
18, 60448, Note_on_c, 12, 77, 0
18, 60480, Note_on_c, 12, 65, 92
18, 60640, Note_on_c, 12, 65, 0
18, 60672, Note_on_c, 12, 63, 92
18, 61008, Note_on_c, 12, 63, 0
18, 61056, Note_on_c, 12, 62, 92
18, 61600, Note_on_c, 12, 62, 0
18, 61632, Note_on_c, 12, 60, 92
18, 61726, Note_on_c, 12, 60, 0
18, 61728, Note_on_c, 12, 67, 92
18, 61822, Note_on_c, 12, 67, 0
18, 61824, Note_on_c, 12, 65, 92
18, 62368, Note_on_c, 12, 65, 0
18, 62400, Note_on_c, 12, 63, 92
18, 62494, Note_on_c, 12, 63, 0
18, 62496, Note_on_c, 12, 70, 92
18, 62590, Note_on_c, 12, 70, 0
18, 62592, Note_on_c, 12, 68, 92
18, 63136, Note_on_c, 12, 68, 0
18, 63168, Note_on_c, 12, 67, 92
18, 63264, Note_on_c, 12, 67, 0
18, 63264, Note_on_c, 12, 73, 92
18, 63358, Note_on_c, 12, 73, 0
18, 63360, Note_on_c, 12, 72, 92
18, 63520, Note_on_c, 12, 72, 0
18, 63552, Note_on_c, 12, 72, 92
18, 63600, Note_on_c, 12, 72, 0
18, 63600, Note_on_c, 12, 74, 92
18, 63646, Note_on_c, 12, 74, 0
18, 63648, Note_on_c, 12, 75, 92
18, 63696, Note_on_c, 12, 75, 0
18, 63696, Note_on_c, 12, 74, 92
18, 63742, Note_on_c, 12, 74, 0
18, 63744, Note_on_c, 12, 72, 92
18, 63984, Note_on_c, 12, 72, 0
18, 63984, Note_on_c, 12, 74, 92
18, 64030, Note_on_c, 12, 74, 0
18, 64032, Note_on_c, 12, 75, 92
18, 64080, Note_on_c, 12, 75, 0
18, 64080, Note_on_c, 12, 74, 92
18, 64126, Note_on_c, 12, 74, 0
18, 64128, Note_on_c, 12, 72, 92
18, 64368, Note_on_c, 12, 72, 0
18, 64368, Note_on_c, 12, 74, 92
18, 64416, Note_on_c, 12, 74, 0
18, 64416, Note_on_c, 12, 75, 92
18, 64464, Note_on_c, 12, 75, 0
18, 64464, Note_on_c, 12, 72, 92
18, 64510, Note_on_c, 12, 72, 0
18, 64512, Note_on_c, 12, 79, 92
18, 64672, Note_on_c, 12, 79, 0
18, 65472, Note_on_c, 12, 67, 60
18, 65808, Note_on_c, 12, 67, 0
18, 65856, Note_on_c, 12, 63, 60
18, 66016, Note_on_c, 12, 63, 0
18, 66048, Note_on_c, 12, 63, 60
18, 66144, Note_on_c, 12, 63, 0
18, 66144, Note_on_c, 12, 62, 60
18, 66304, Note_on_c, 12, 62, 0
18, 66336, Note_on_c, 12, 62, 60
18, 66430, Note_on_c, 12, 62, 0
18, 66432, Note_on_c, 12, 62, 60
18, 66480, Note_on_c, 12, 62, 0
18, 66480, Note_on_c, 12, 64, 60
18, 66528, Note_on_c, 12, 64, 0
18, 66528, Note_on_c, 12, 65, 60
18, 66576, Note_on_c, 12, 65, 0
18, 66576, Note_on_c, 12, 64, 60
18, 66622, Note_on_c, 12, 64, 0
18, 66624, Note_on_c, 12, 65, 60
18, 66718, Note_on_c, 12, 65, 0
18, 66720, Note_on_c, 12, 65, 60
18, 66814, Note_on_c, 12, 65, 0
18, 66816, Note_on_c, 12, 65, 60
18, 66912, Note_on_c, 12, 65, 0
18, 66912, Note_on_c, 12, 64, 60
18, 67006, Note_on_c, 12, 64, 0
18, 67008, Note_on_c, 12, 64, 60
18, 67248, Note_on_c, 12, 64, 0
18, 67248, Note_on_c, 12, 66, 60
18, 67296, Note_on_c, 12, 66, 0
18, 67296, Note_on_c, 12, 67, 60
18, 67344, Note_on_c, 12, 67, 0
18, 67344, Note_on_c, 12, 66, 60
18, 67390, Note_on_c, 12, 66, 0
18, 67392, Note_on_c, 12, 67, 60
18, 67486, Note_on_c, 12, 67, 0
18, 67488, Note_on_c, 12, 67, 60
18, 67582, Note_on_c, 12, 67, 0
18, 67584, Note_on_c, 12, 67, 60
18, 67680, Note_on_c, 12, 67, 0
18, 67680, Note_on_c, 12, 66, 60
18, 67774, Note_on_c, 12, 66, 0
18, 67776, Note_on_c, 12, 66, 60
18, 68064, Note_on_c, 12, 66, 0
18, 68064, Note_on_c, 12, 67, 60
18, 68158, Note_on_c, 12, 67, 0
18, 68160, Note_on_c, 12, 67, 60
18, 68256, Note_on_c, 12, 67, 0
18, 68256, Note_on_c, 12, 69, 60
18, 68350, Note_on_c, 12, 69, 0
18, 68352, Note_on_c, 12, 69, 60
18, 68448, Note_on_c, 12, 69, 0
18, 68448, Note_on_c, 12, 71, 60
18, 68542, Note_on_c, 12, 71, 0
18, 68544, Note_on_c, 12, 71, 60
18, 68638, Note_on_c, 12, 71, 0
18, 68640, Note_on_c, 12, 72, 60
18, 68734, Note_on_c, 12, 72, 0
18, 68736, Note_on_c, 12, 72, 60
18, 68928, Note_on_c, 12, 72, 0
18, 68928, Note_on_c, 12, 71, 60
18, 69088, Note_on_c, 12, 71, 0
18, 69120, Note_on_c, 12, 72, 60
18, 69214, Note_on_c, 12, 72, 0
18, 69504, Note_on_c, 12, 69, 60
18, 69598, Note_on_c, 12, 69, 0
18, 69888, Note_on_c, 12, 63, 60
18, 69982, Note_on_c, 12, 63, 0
18, 70272, Note_on_c, 12, 62, 60
18, 70366, Note_on_c, 12, 62, 0
18, 70656, Note_on_c, 12, 60, 60
18, 70816, Note_on_c, 12, 60, 0
18, 70816, End_track
19, 0, Start_track
19, 0, MIDI_port, 0
19, 0, Title_t, "Alto"
19, 0, Program_c, 13, 53
19, 0, Control_c, 13, 7, 127
19, 0, Control_c, 13, 10, 127
19, 4224, Note_on_c, 13, 60, 92
19, 4558, Note_on_c, 13, 60, 0
19, 4560, Note_on_c, 13, 60, 92
19, 4606, Note_on_c, 13, 60, 0
19, 4608, Note_on_c, 13, 63, 92
19, 4768, Note_on_c, 13, 63, 0
19, 4800, Note_on_c, 13, 67, 92
19, 4960, Note_on_c, 13, 67, 0
19, 4992, Note_on_c, 13, 72, 92
19, 5152, Note_on_c, 13, 72, 0
19, 5184, Note_on_c, 13, 67, 92
19, 5344, Note_on_c, 13, 67, 0
19, 5376, Note_on_c, 13, 63, 92
19, 5536, Note_on_c, 13, 63, 0
19, 5568, Note_on_c, 13, 60, 92
19, 5728, Note_on_c, 13, 60, 0
19, 5760, Note_on_c, 13, 55, 92
19, 5920, Note_on_c, 13, 55, 0
19, 5952, Note_on_c, 13, 60, 92
19, 6096, Note_on_c, 13, 60, 0
19, 6096, Note_on_c, 13, 63, 92
19, 6142, Note_on_c, 13, 63, 0
19, 6144, Note_on_c, 13, 63, 92
19, 6304, Note_on_c, 13, 63, 0
19, 9600, Note_on_c, 13, 67, 92
19, 10144, Note_on_c, 13, 67, 0
19, 10176, Note_on_c, 13, 66, 92
19, 10336, Note_on_c, 13, 66, 0
19, 10368, Note_on_c, 13, 62, 92
19, 10528, Note_on_c, 13, 62, 0
19, 10560, Note_on_c, 13, 65, 92
19, 10720, Note_on_c, 13, 65, 0
19, 10752, Note_on_c, 13, 65, 92
19, 10944, Note_on_c, 13, 65, 0
19, 10944, Note_on_c, 13, 64, 92
19, 11104, Note_on_c, 13, 64, 0
19, 11136, Note_on_c, 13, 60, 92
19, 11296, Note_on_c, 13, 60, 0
19, 11328, Note_on_c, 13, 63, 92
19, 11488, Note_on_c, 13, 63, 0
19, 11520, Note_on_c, 13, 62, 92
19, 11680, Note_on_c, 13, 62, 0
19, 11712, Note_on_c, 13, 67, 92
19, 12048, Note_on_c, 13, 67, 0
19, 12096, Note_on_c, 13, 66, 92
19, 12256, Note_on_c, 13, 66, 0
19, 12288, Note_on_c, 13, 67, 92
19, 12448, Note_on_c, 13, 67, 0
19, 12768, Note_on_c, 13, 65, 92
19, 12862, Note_on_c, 13, 65, 0
19, 12864, Note_on_c, 13, 67, 92
19, 12912, Note_on_c, 13, 67, 0
19, 12912, Note_on_c, 13, 69, 92
19, 12960, Note_on_c, 13, 69, 0
19, 12960, Note_on_c, 13, 71, 92
19, 13008, Note_on_c, 13, 71, 0
19, 13008, Note_on_c, 13, 67, 92
19, 13054, Note_on_c, 13, 67, 0
19, 13056, Note_on_c, 13, 72, 92
19, 13216, Note_on_c, 13, 72, 0
19, 14016, Note_on_c, 13, 67, 92
19, 14158, Note_on_c, 13, 67, 0
19, 14160, Note_on_c, 13, 67, 92
19, 14206, Note_on_c, 13, 67, 0
19, 14208, Note_on_c, 13, 67, 92
19, 14368, Note_on_c, 13, 67, 0
19, 14784, Note_on_c, 13, 65, 92
19, 14926, Note_on_c, 13, 65, 0
19, 14928, Note_on_c, 13, 65, 92
19, 14974, Note_on_c, 13, 65, 0
19, 14976, Note_on_c, 13, 65, 92
19, 15136, Note_on_c, 13, 65, 0
19, 15168, Note_on_c, 13, 62, 92
19, 15328, Note_on_c, 13, 62, 0
19, 15360, Note_on_c, 13, 62, 92
19, 15520, Note_on_c, 13, 62, 0
19, 15552, Note_on_c, 13, 60, 92
19, 15712, Note_on_c, 13, 60, 0
19, 16320, Note_on_c, 13, 63, 92
19, 16576, Note_on_c, 13, 63, 0
19, 16608, Note_on_c, 13, 63, 92
19, 16702, Note_on_c, 13, 63, 0
19, 16704, Note_on_c, 13, 62, 92
19, 16798, Note_on_c, 13, 62, 0
19, 16800, Note_on_c, 13, 68, 92
19, 16894, Note_on_c, 13, 68, 0
19, 16896, Note_on_c, 13, 67, 92
19, 17424, Note_on_c, 13, 67, 0
19, 17472, Note_on_c, 13, 66, 92
19, 17632, Note_on_c, 13, 66, 0
19, 17664, Note_on_c, 13, 67, 92
19, 17824, Note_on_c, 13, 67, 0
19, 17856, Note_on_c, 13, 67, 92
19, 17904, Note_on_c, 13, 67, 0
19, 17904, Note_on_c, 13, 69, 92
19, 17950, Note_on_c, 13, 69, 0
19, 17952, Note_on_c, 13, 70, 92
19, 18000, Note_on_c, 13, 70, 0
19, 18000, Note_on_c, 13, 67, 92
19, 18046, Note_on_c, 13, 67, 0
19, 18048, Note_on_c, 13, 62, 92
19, 18208, Note_on_c, 13, 62, 0
19, 18240, Note_on_c, 13, 58, 92
19, 18288, Note_on_c, 13, 58, 0
19, 18288, Note_on_c, 13, 60, 92
19, 18336, Note_on_c, 13, 60, 0
19, 18336, Note_on_c, 13, 62, 92
19, 18384, Note_on_c, 13, 62, 0
19, 18384, Note_on_c, 13, 58, 92
19, 18430, Note_on_c, 13, 58, 0
19, 18432, Note_on_c, 13, 55, 92
19, 18592, Note_on_c, 13, 55, 0
19, 18624, Note_on_c, 13, 63, 92
19, 18672, Note_on_c, 13, 63, 0
19, 18672, Note_on_c, 13, 65, 92
19, 18720, Note_on_c, 13, 65, 0
19, 18720, Note_on_c, 13, 67, 92
19, 18768, Note_on_c, 13, 67, 0
19, 18768, Note_on_c, 13, 63, 92
19, 18814, Note_on_c, 13, 63, 0
19, 18816, Note_on_c, 13, 70, 92
19, 18976, Note_on_c, 13, 70, 0
19, 19008, Note_on_c, 13, 64, 92
19, 19056, Note_on_c, 13, 64, 0
19, 19056, Note_on_c, 13, 66, 92
19, 19104, Note_on_c, 13, 66, 0
19, 19104, Note_on_c, 13, 67, 92
19, 19152, Note_on_c, 13, 67, 0
19, 19152, Note_on_c, 13, 64, 92
19, 19198, Note_on_c, 13, 64, 0
19, 19200, Note_on_c, 13, 66, 92
19, 19360, Note_on_c, 13, 66, 0
19, 20160, Note_on_c, 13, 67, 60
19, 20496, Note_on_c, 13, 67, 0
19, 20544, Note_on_c, 13, 62, 60
19, 20704, Note_on_c, 13, 62, 0
19, 20736, Note_on_c, 13, 63, 60
19, 21072, Note_on_c, 13, 63, 0
19, 21120, Note_on_c, 13, 62, 60
19, 21456, Note_on_c, 13, 62, 0
19, 21504, Note_on_c, 13, 62, 60
19, 22032, Note_on_c, 13, 62, 0
19, 22080, Note_on_c, 13, 55, 60
19, 22240, Note_on_c, 13, 55, 0
19, 22272, Note_on_c, 13, 67, 60
19, 23568, Note_on_c, 13, 67, 0
19, 23616, Note_on_c, 13, 66, 60
19, 23776, Note_on_c, 13, 66, 0
19, 23808, Note_on_c, 13, 67, 60
19, 23968, Note_on_c, 13, 67, 0
19, 27840, Note_on_c, 13, 67, 60
19, 28128, Note_on_c, 13, 67, 0
19, 28128, Note_on_c, 13, 63, 60
19, 28224, Note_on_c, 13, 63, 0
19, 28224, Note_on_c, 13, 65, 60
19, 28320, Note_on_c, 13, 65, 0
19, 28320, Note_on_c, 13, 62, 60
19, 28414, Note_on_c, 13, 62, 0
19, 28416, Note_on_c, 13, 63, 60
19, 28576, Note_on_c, 13, 63, 0
19, 31488, Note_on_c, 13, 58, 60
19, 32256, Note_on_c, 13, 58, 0
19, 32256, Note_on_c, 13, 62, 60
19, 32976, Note_on_c, 13, 62, 0
19, 33024, Note_on_c, 13, 63, 60
19, 33120, Note_on_c, 13, 63, 0
19, 33120, Note_on_c, 13, 65, 60
19, 33214, Note_on_c, 13, 65, 0
19, 33216, Note_on_c, 13, 67, 60
19, 33376, Note_on_c, 13, 67, 0
19, 34752, Note_on_c, 13, 63, 60
19, 34912, Note_on_c, 13, 63, 0
19, 34944, Note_on_c, 13, 63, 60
19, 35104, Note_on_c, 13, 63, 0
19, 35136, Note_on_c, 13, 63, 60
19, 35296, Note_on_c, 13, 63, 0
19, 35520, Note_on_c, 13, 67, 60
19, 35680, Note_on_c, 13, 67, 0
19, 35712, Note_on_c, 13, 67, 60
19, 35872, Note_on_c, 13, 67, 0
19, 35904, Note_on_c, 13, 67, 65
19, 36064, Note_on_c, 13, 67, 0
19, 36288, Note_on_c, 13, 70, 75
19, 36448, Note_on_c, 13, 70, 0
19, 36480, Note_on_c, 13, 70, 80
19, 36672, Note_on_c, 13, 70, 0
19, 36672, Note_on_c, 13, 67, 86
19, 36832, Note_on_c, 13, 67, 0
19, 36864, Note_on_c, 13, 63, 92
19, 37200, Note_on_c, 13, 63, 0
19, 47232, Note_on_c, 13, 63, 75
19, 47776, Note_on_c, 13, 63, 0
19, 47808, Note_on_c, 13, 62, 75
19, 48144, Note_on_c, 13, 62, 0
19, 48192, Note_on_c, 13, 65, 75
19, 48352, Note_on_c, 13, 65, 0
19, 48384, Note_on_c, 13, 65, 75
19, 48544, Note_on_c, 13, 65, 0
19, 48576, Note_on_c, 13, 63, 75
19, 48736, Note_on_c, 13, 63, 0
19, 57504, Note_on_c, 13, 67, 92
19, 57598, Note_on_c, 13, 67, 0
19, 57600, Note_on_c, 13, 69, 92
19, 57648, Note_on_c, 13, 69, 0
19, 57648, Note_on_c, 13, 71, 92
19, 57696, Note_on_c, 13, 71, 0
19, 57696, Note_on_c, 13, 72, 92
19, 57744, Note_on_c, 13, 72, 0
19, 57744, Note_on_c, 13, 71, 92
19, 57790, Note_on_c, 13, 71, 0
19, 57792, Note_on_c, 13, 72, 92
19, 57886, Note_on_c, 13, 72, 0
19, 57888, Note_on_c, 13, 72, 92
19, 57982, Note_on_c, 13, 72, 0
19, 57984, Note_on_c, 13, 72, 92
19, 58080, Note_on_c, 13, 72, 0
19, 58080, Note_on_c, 13, 71, 92
19, 58174, Note_on_c, 13, 71, 0
19, 58176, Note_on_c, 13, 67, 92
19, 58528, Note_on_c, 13, 67, 0
19, 58560, Note_on_c, 13, 67, 92
19, 58702, Note_on_c, 13, 67, 0
19, 58704, Note_on_c, 13, 67, 92
19, 58750, Note_on_c, 13, 67, 0
19, 58752, Note_on_c, 13, 67, 92
19, 58912, Note_on_c, 13, 67, 0
19, 59328, Note_on_c, 13, 67, 92
19, 59470, Note_on_c, 13, 67, 0
19, 59472, Note_on_c, 13, 67, 92
19, 59518, Note_on_c, 13, 67, 0
19, 59520, Note_on_c, 13, 67, 92
19, 59680, Note_on_c, 13, 67, 0
19, 60096, Note_on_c, 13, 65, 92
19, 60238, Note_on_c, 13, 65, 0
19, 60240, Note_on_c, 13, 65, 92
19, 60286, Note_on_c, 13, 65, 0
19, 60288, Note_on_c, 13, 65, 92
19, 60448, Note_on_c, 13, 65, 0
19, 60480, Note_on_c, 13, 62, 92
19, 60640, Note_on_c, 13, 62, 0
19, 60672, Note_on_c, 13, 62, 92
19, 60832, Note_on_c, 13, 62, 0
19, 60864, Note_on_c, 13, 60, 92
19, 61024, Note_on_c, 13, 60, 0
19, 61632, Note_on_c, 13, 63, 92
19, 61888, Note_on_c, 13, 63, 0
19, 61920, Note_on_c, 13, 63, 92
19, 62014, Note_on_c, 13, 63, 0
19, 62016, Note_on_c, 13, 62, 92
19, 62110, Note_on_c, 13, 62, 0
19, 62112, Note_on_c, 13, 68, 92
19, 62206, Note_on_c, 13, 68, 0
19, 62208, Note_on_c, 13, 67, 92
19, 62736, Note_on_c, 13, 67, 0
19, 62784, Note_on_c, 13, 65, 92
19, 62878, Note_on_c, 13, 65, 0
19, 62880, Note_on_c, 13, 72, 92
19, 62974, Note_on_c, 13, 72, 0
19, 62976, Note_on_c, 13, 70, 92
19, 63312, Note_on_c, 13, 70, 0
19, 63360, Note_on_c, 13, 68, 92
19, 63520, Note_on_c, 13, 68, 0
19, 63552, Note_on_c, 13, 63, 92
19, 63600, Note_on_c, 13, 63, 0
19, 63600, Note_on_c, 13, 62, 92
19, 63646, Note_on_c, 13, 62, 0
19, 63648, Note_on_c, 13, 60, 92
19, 63696, Note_on_c, 13, 60, 0
19, 63696, Note_on_c, 13, 62, 92
19, 63742, Note_on_c, 13, 62, 0
19, 63744, Note_on_c, 13, 63, 92
19, 63984, Note_on_c, 13, 63, 0
19, 63984, Note_on_c, 13, 62, 92
19, 64030, Note_on_c, 13, 62, 0
19, 64032, Note_on_c, 13, 60, 92
19, 64080, Note_on_c, 13, 60, 0
19, 64080, Note_on_c, 13, 62, 92
19, 64126, Note_on_c, 13, 62, 0
19, 64128, Note_on_c, 13, 63, 92
19, 64464, Note_on_c, 13, 63, 0
19, 64512, Note_on_c, 13, 62, 92
19, 64672, Note_on_c, 13, 62, 0
19, 65472, Note_on_c, 13, 60, 60
19, 65808, Note_on_c, 13, 60, 0
19, 65856, Note_on_c, 13, 60, 60
19, 66016, Note_on_c, 13, 60, 0
19, 66048, Note_on_c, 13, 56, 60
19, 66384, Note_on_c, 13, 56, 0
19, 66432, Note_on_c, 13, 55, 60
19, 66624, Note_on_c, 13, 55, 0
19, 66624, Note_on_c, 13, 62, 60
19, 66784, Note_on_c, 13, 62, 0
19, 66816, Note_on_c, 13, 61, 60
19, 67152, Note_on_c, 13, 61, 0
19, 67200, Note_on_c, 13, 60, 60
19, 67744, Note_on_c, 13, 60, 0
19, 67776, Note_on_c, 13, 63, 60
19, 68032, Note_on_c, 13, 63, 0
19, 68064, Note_on_c, 13, 63, 60
19, 68158, Note_on_c, 13, 63, 0
19, 68160, Note_on_c, 13, 63, 60
19, 68254, Note_on_c, 13, 63, 0
19, 68256, Note_on_c, 13, 63, 60
19, 68350, Note_on_c, 13, 63, 0
19, 68352, Note_on_c, 13, 62, 60
19, 68544, Note_on_c, 13, 62, 0
19, 68544, Note_on_c, 13, 63, 60
19, 68736, Note_on_c, 13, 63, 0
19, 68736, Note_on_c, 13, 65, 60
19, 69072, Note_on_c, 13, 65, 0
19, 69120, Note_on_c, 13, 63, 60
19, 69214, Note_on_c, 13, 63, 0
19, 69504, Note_on_c, 13, 63, 60
19, 69598, Note_on_c, 13, 63, 0
19, 69888, Note_on_c, 13, 60, 60
19, 69982, Note_on_c, 13, 60, 0
19, 70272, Note_on_c, 13, 59, 60
19, 70366, Note_on_c, 13, 59, 0
19, 70656, Note_on_c, 13, 60, 60
19, 70816, Note_on_c, 13, 60, 0
19, 70816, End_track
20, 0, Start_track
20, 0, MIDI_port, 0
20, 0, Title_t, "Tenore"
20, 0, Program_c, 14, 53
20, 0, Control_c, 14, 7, 127
20, 0, Control_c, 14, 10, 127
20, 4608, Note_on_c, 14, 48, 92
20, 4942, Note_on_c, 14, 48, 0
20, 4944, Note_on_c, 14, 48, 92
20, 4990, Note_on_c, 14, 48, 0
20, 4992, Note_on_c, 14, 51, 92
20, 5152, Note_on_c, 14, 51, 0
20, 5184, Note_on_c, 14, 55, 92
20, 5344, Note_on_c, 14, 55, 0
20, 5376, Note_on_c, 14, 60, 92
20, 5536, Note_on_c, 14, 60, 0
20, 5568, Note_on_c, 14, 63, 92
20, 5728, Note_on_c, 14, 63, 0
20, 5760, Note_on_c, 14, 67, 92
20, 5920, Note_on_c, 14, 67, 0
20, 5952, Note_on_c, 14, 55, 92
20, 6112, Note_on_c, 14, 55, 0
20, 6144, Note_on_c, 14, 55, 92
20, 6304, Note_on_c, 14, 55, 0
20, 13440, Note_on_c, 14, 60, 92
20, 13984, Note_on_c, 14, 60, 0
20, 14016, Note_on_c, 14, 59, 92
20, 14176, Note_on_c, 14, 59, 0
20, 14208, Note_on_c, 14, 55, 92
20, 14368, Note_on_c, 14, 55, 0
20, 14400, Note_on_c, 14, 58, 92
20, 14560, Note_on_c, 14, 58, 0
20, 14592, Note_on_c, 14, 58, 92
20, 14784, Note_on_c, 14, 58, 0
20, 14784, Note_on_c, 14, 57, 92
20, 14944, Note_on_c, 14, 57, 0
20, 14976, Note_on_c, 14, 53, 92
20, 15136, Note_on_c, 14, 53, 0
20, 15168, Note_on_c, 14, 56, 92
20, 15328, Note_on_c, 14, 56, 0
20, 15360, Note_on_c, 14, 55, 92
20, 15520, Note_on_c, 14, 55, 0
20, 15552, Note_on_c, 14, 60, 92
20, 15888, Note_on_c, 14, 60, 0
20, 15936, Note_on_c, 14, 59, 92
20, 16096, Note_on_c, 14, 59, 0
20, 16128, Note_on_c, 14, 63, 92
20, 16288, Note_on_c, 14, 63, 0
20, 16416, Note_on_c, 14, 60, 92
20, 16510, Note_on_c, 14, 60, 0
20, 16512, Note_on_c, 14, 56, 92
20, 16606, Note_on_c, 14, 56, 0
20, 16608, Note_on_c, 14, 53, 92
20, 16702, Note_on_c, 14, 53, 0
20, 16800, Note_on_c, 14, 62, 92
20, 16894, Note_on_c, 14, 62, 0
20, 16896, Note_on_c, 14, 58, 92
20, 16990, Note_on_c, 14, 58, 0
20, 16992, Note_on_c, 14, 55, 92
20, 17086, Note_on_c, 14, 55, 0
20, 17184, Note_on_c, 14, 63, 92
20, 17278, Note_on_c, 14, 63, 0
20, 17280, Note_on_c, 14, 60, 92
20, 17374, Note_on_c, 14, 60, 0
20, 17376, Note_on_c, 14, 57, 92
20, 17470, Note_on_c, 14, 57, 0
20, 17664, Note_on_c, 14, 62, 92
20, 17920, Note_on_c, 14, 62, 0
20, 17952, Note_on_c, 14, 62, 92
20, 18046, Note_on_c, 14, 62, 0
20, 18048, Note_on_c, 14, 58, 92
20, 18208, Note_on_c, 14, 58, 0
20, 18240, Note_on_c, 14, 55, 92
20, 18400, Note_on_c, 14, 55, 0
20, 18432, Note_on_c, 14, 51, 92
20, 18768, Note_on_c, 14, 51, 0
20, 18816, Note_on_c, 14, 52, 92
20, 18912, Note_on_c, 14, 52, 0
20, 18912, Note_on_c, 14, 55, 92
20, 19008, Note_on_c, 14, 55, 0
20, 19008, Note_on_c, 14, 58, 92
20, 19168, Note_on_c, 14, 58, 0
20, 19200, Note_on_c, 14, 57, 92
20, 19360, Note_on_c, 14, 57, 0
20, 20160, Note_on_c, 14, 58, 60
20, 20496, Note_on_c, 14, 58, 0
20, 20544, Note_on_c, 14, 58, 60
20, 20704, Note_on_c, 14, 58, 0
20, 20736, Note_on_c, 14, 60, 60
20, 21264, Note_on_c, 14, 60, 0
20, 21312, Note_on_c, 14, 57, 60
20, 21472, Note_on_c, 14, 57, 0
20, 21504, Note_on_c, 14, 56, 60
20, 21840, Note_on_c, 14, 56, 0
20, 21888, Note_on_c, 14, 55, 60
20, 22048, Note_on_c, 14, 55, 0
20, 22080, Note_on_c, 14, 59, 60
20, 22240, Note_on_c, 14, 59, 0
20, 22272, Note_on_c, 14, 58, 60
20, 22992, Note_on_c, 14, 58, 0
20, 23040, Note_on_c, 14, 57, 60
20, 23232, Note_on_c, 14, 57, 0
20, 23232, Note_on_c, 14, 55, 60
20, 23424, Note_on_c, 14, 55, 0
20, 23424, Note_on_c, 14, 60, 60
20, 23760, Note_on_c, 14, 60, 0
20, 23808, Note_on_c, 14, 58, 60
20, 23968, Note_on_c, 14, 58, 0
20, 27840, Note_on_c, 14, 58, 60
20, 28000, Note_on_c, 14, 58, 0
20, 28032, Note_on_c, 14, 58, 60
20, 28368, Note_on_c, 14, 58, 0
20, 28416, Note_on_c, 14, 55, 60
20, 28576, Note_on_c, 14, 55, 0
20, 31488, Note_on_c, 14, 55, 60
20, 32256, Note_on_c, 14, 55, 0
20, 32256, Note_on_c, 14, 58, 60
20, 32976, Note_on_c, 14, 58, 0
20, 33024, Note_on_c, 14, 58, 60
20, 33184, Note_on_c, 14, 58, 0
20, 34752, Note_on_c, 14, 58, 60
20, 34912, Note_on_c, 14, 58, 0
20, 34944, Note_on_c, 14, 58, 60
20, 35104, Note_on_c, 14, 58, 0
20, 35136, Note_on_c, 14, 55, 60
20, 35296, Note_on_c, 14, 55, 0
20, 35520, Note_on_c, 14, 63, 60
20, 35680, Note_on_c, 14, 63, 0
20, 35712, Note_on_c, 14, 63, 60
20, 35872, Note_on_c, 14, 63, 0
20, 35904, Note_on_c, 14, 58, 65
20, 36064, Note_on_c, 14, 58, 0
20, 36288, Note_on_c, 14, 67, 75
20, 36448, Note_on_c, 14, 67, 0
20, 36480, Note_on_c, 14, 67, 80
20, 36672, Note_on_c, 14, 67, 0
20, 36672, Note_on_c, 14, 63, 86
20, 36832, Note_on_c, 14, 63, 0
20, 36864, Note_on_c, 14, 60, 92
20, 37200, Note_on_c, 14, 60, 0
20, 47232, Note_on_c, 14, 58, 75
20, 47568, Note_on_c, 14, 58, 0
20, 47616, Note_on_c, 14, 58, 75
20, 48336, Note_on_c, 14, 58, 0
20, 48384, Note_on_c, 14, 58, 75
20, 48720, Note_on_c, 14, 58, 0
20, 57216, Note_on_c, 14, 67, 92
20, 57760, Note_on_c, 14, 67, 0
20, 57792, Note_on_c, 14, 66, 92
20, 57952, Note_on_c, 14, 66, 0
20, 57984, Note_on_c, 14, 62, 92
20, 58144, Note_on_c, 14, 62, 0
20, 58176, Note_on_c, 14, 65, 92
20, 58336, Note_on_c, 14, 65, 0
20, 58368, Note_on_c, 14, 65, 92
20, 58464, Note_on_c, 14, 65, 0
20, 58464, Note_on_c, 14, 64, 92
20, 58558, Note_on_c, 14, 64, 0
20, 58560, Note_on_c, 14, 63, 92
20, 58720, Note_on_c, 14, 63, 0
20, 58752, Note_on_c, 14, 60, 92
20, 59296, Note_on_c, 14, 60, 0
20, 59328, Note_on_c, 14, 59, 92
20, 59488, Note_on_c, 14, 59, 0
20, 59520, Note_on_c, 14, 55, 92
20, 59680, Note_on_c, 14, 55, 0
20, 59712, Note_on_c, 14, 58, 92
20, 59872, Note_on_c, 14, 58, 0
20, 59904, Note_on_c, 14, 58, 92
20, 60096, Note_on_c, 14, 58, 0
20, 60096, Note_on_c, 14, 57, 92
20, 60256, Note_on_c, 14, 57, 0
20, 60288, Note_on_c, 14, 53, 92
20, 60448, Note_on_c, 14, 53, 0
20, 60480, Note_on_c, 14, 56, 92
20, 60640, Note_on_c, 14, 56, 0
20, 60672, Note_on_c, 14, 55, 92
20, 60832, Note_on_c, 14, 55, 0
20, 60864, Note_on_c, 14, 60, 92
20, 61200, Note_on_c, 14, 60, 0
20, 61248, Note_on_c, 14, 59, 92
20, 61408, Note_on_c, 14, 59, 0
20, 61440, Note_on_c, 14, 63, 92
20, 61600, Note_on_c, 14, 63, 0
20, 61728, Note_on_c, 14, 60, 92
20, 61822, Note_on_c, 14, 60, 0
20, 61824, Note_on_c, 14, 56, 92
20, 61918, Note_on_c, 14, 56, 0
20, 61920, Note_on_c, 14, 53, 92
20, 62014, Note_on_c, 14, 53, 0
20, 62112, Note_on_c, 14, 62, 92
20, 62206, Note_on_c, 14, 62, 0
20, 62208, Note_on_c, 14, 58, 92
20, 62302, Note_on_c, 14, 58, 0
20, 62304, Note_on_c, 14, 55, 92
20, 62398, Note_on_c, 14, 55, 0
20, 62496, Note_on_c, 14, 63, 92
20, 62590, Note_on_c, 14, 63, 0
20, 62592, Note_on_c, 14, 60, 92
20, 62686, Note_on_c, 14, 60, 0
20, 62688, Note_on_c, 14, 56, 92
20, 62782, Note_on_c, 14, 56, 0
20, 62880, Note_on_c, 14, 65, 92
20, 62974, Note_on_c, 14, 65, 0
20, 62976, Note_on_c, 14, 61, 92
20, 63070, Note_on_c, 14, 61, 0
20, 63072, Note_on_c, 14, 58, 92
20, 63166, Note_on_c, 14, 58, 0
20, 63264, Note_on_c, 14, 55, 92
20, 63358, Note_on_c, 14, 55, 0
20, 63360, Note_on_c, 14, 56, 92
20, 63456, Note_on_c, 14, 56, 0
20, 63456, Note_on_c, 14, 51, 92
20, 63550, Note_on_c, 14, 51, 0
20, 63552, Note_on_c, 14, 48, 92
20, 63792, Note_on_c, 14, 48, 0
20, 63792, Note_on_c, 14, 50, 92
20, 63840, Note_on_c, 14, 50, 0
20, 63840, Note_on_c, 14, 51, 92
20, 63888, Note_on_c, 14, 51, 0
20, 63888, Note_on_c, 14, 48, 92
20, 63934, Note_on_c, 14, 48, 0
20, 63936, Note_on_c, 14, 60, 92
20, 64176, Note_on_c, 14, 60, 0
20, 64176, Note_on_c, 14, 62, 92
20, 64224, Note_on_c, 14, 62, 0
20, 64224, Note_on_c, 14, 60, 92
20, 64272, Note_on_c, 14, 60, 0
20, 64272, Note_on_c, 14, 59, 92
20, 64320, Note_on_c, 14, 59, 0
20, 64320, Note_on_c, 14, 57, 92
20, 64368, Note_on_c, 14, 57, 0
20, 64368, Note_on_c, 14, 59, 92
20, 64416, Note_on_c, 14, 59, 0
20, 64416, Note_on_c, 14, 60, 92
20, 64464, Note_on_c, 14, 60, 0
20, 64464, Note_on_c, 14, 57, 92
20, 64510, Note_on_c, 14, 57, 0
20, 64512, Note_on_c, 14, 59, 92
20, 64672, Note_on_c, 14, 59, 0
20, 65472, Note_on_c, 14, 51, 60
20, 65808, Note_on_c, 14, 51, 0
20, 65856, Note_on_c, 14, 55, 60
20, 66016, Note_on_c, 14, 55, 0
20, 66048, Note_on_c, 14, 53, 60
20, 66384, Note_on_c, 14, 53, 0
20, 66432, Note_on_c, 14, 50, 60
20, 66624, Note_on_c, 14, 50, 0
20, 66624, Note_on_c, 14, 55, 60
20, 66784, Note_on_c, 14, 55, 0
20, 66816, Note_on_c, 14, 55, 60
20, 67344, Note_on_c, 14, 55, 0
20, 67392, Note_on_c, 14, 52, 60
20, 67552, Note_on_c, 14, 52, 0
20, 67584, Note_on_c, 14, 48, 60
20, 67744, Note_on_c, 14, 48, 0
20, 67776, Note_on_c, 14, 60, 60
20, 68032, Note_on_c, 14, 60, 0
20, 68064, Note_on_c, 14, 60, 60
20, 68158, Note_on_c, 14, 60, 0
20, 68160, Note_on_c, 14, 60, 60
20, 68512, Note_on_c, 14, 60, 0
20, 68544, Note_on_c, 14, 60, 60
20, 68704, Note_on_c, 14, 60, 0
20, 68736, Note_on_c, 14, 62, 60
20, 69072, Note_on_c, 14, 62, 0
20, 69120, Note_on_c, 14, 60, 60
20, 69214, Note_on_c, 14, 60, 0
20, 69504, Note_on_c, 14, 60, 60
20, 69598, Note_on_c, 14, 60, 0
20, 69888, Note_on_c, 14, 55, 60
20, 69982, Note_on_c, 14, 55, 0
20, 70272, Note_on_c, 14, 55, 60
20, 70366, Note_on_c, 14, 55, 0
20, 70656, Note_on_c, 14, 55, 60
20, 70816, Note_on_c, 14, 55, 0
20, 70816, End_track
21, 0, Start_track
21, 0, MIDI_port, 0
21, 0, Title_t, "Basso"
21, 0, Program_c, 15, 53
21, 0, Control_c, 15, 7, 127
21, 0, Control_c, 15, 10, 127
21, 4992, Note_on_c, 15, 48, 92
21, 5326, Note_on_c, 15, 48, 0
21, 5328, Note_on_c, 15, 48, 92
21, 5374, Note_on_c, 15, 48, 0
21, 5376, Note_on_c, 15, 51, 92
21, 5536, Note_on_c, 15, 51, 0
21, 5568, Note_on_c, 15, 55, 92
21, 5728, Note_on_c, 15, 55, 0
21, 5760, Note_on_c, 15, 60, 92
21, 5920, Note_on_c, 15, 60, 0
21, 5952, Note_on_c, 15, 55, 92
21, 6094, Note_on_c, 15, 55, 0
21, 6096, Note_on_c, 15, 51, 92
21, 6142, Note_on_c, 15, 51, 0
21, 6144, Note_on_c, 15, 48, 92
21, 6304, Note_on_c, 15, 48, 0
21, 13056, Note_on_c, 15, 60, 92
21, 13152, Note_on_c, 15, 60, 0
21, 13152, Note_on_c, 15, 55, 92
21, 13312, Note_on_c, 15, 55, 0
21, 13344, Note_on_c, 15, 55, 92
21, 13438, Note_on_c, 15, 55, 0
21, 13440, Note_on_c, 15, 55, 92
21, 13536, Note_on_c, 15, 55, 0
21, 13536, Note_on_c, 15, 51, 92
21, 13696, Note_on_c, 15, 51, 0
21, 13728, Note_on_c, 15, 51, 92
21, 13822, Note_on_c, 15, 51, 0
21, 13824, Note_on_c, 15, 50, 92
21, 13872, Note_on_c, 15, 50, 0
21, 13872, Note_on_c, 15, 52, 92
21, 13920, Note_on_c, 15, 52, 0
21, 13920, Note_on_c, 15, 53, 92
21, 13968, Note_on_c, 15, 53, 0
21, 13968, Note_on_c, 15, 52, 92
21, 14014, Note_on_c, 15, 52, 0
21, 14016, Note_on_c, 15, 53, 92
21, 14110, Note_on_c, 15, 53, 0
21, 14112, Note_on_c, 15, 53, 92
21, 14206, Note_on_c, 15, 53, 0
21, 14208, Note_on_c, 15, 53, 92
21, 14304, Note_on_c, 15, 53, 0
21, 14304, Note_on_c, 15, 52, 92
21, 14398, Note_on_c, 15, 52, 0
21, 14400, Note_on_c, 15, 48, 92
21, 14494, Note_on_c, 15, 48, 0
21, 14496, Note_on_c, 15, 48, 92
21, 14590, Note_on_c, 15, 48, 0
21, 14592, Note_on_c, 15, 48, 92
21, 14640, Note_on_c, 15, 48, 0
21, 14640, Note_on_c, 15, 50, 92
21, 14688, Note_on_c, 15, 50, 0
21, 14688, Note_on_c, 15, 51, 92
21, 14736, Note_on_c, 15, 51, 0
21, 14736, Note_on_c, 15, 50, 92
21, 14782, Note_on_c, 15, 50, 0
21, 14784, Note_on_c, 15, 51, 92
21, 14878, Note_on_c, 15, 51, 0
21, 14880, Note_on_c, 15, 51, 92
21, 14974, Note_on_c, 15, 51, 0
21, 14976, Note_on_c, 15, 51, 92
21, 15072, Note_on_c, 15, 51, 0
21, 15072, Note_on_c, 15, 50, 92
21, 15166, Note_on_c, 15, 50, 0
21, 15168, Note_on_c, 15, 46, 92
21, 15328, Note_on_c, 15, 46, 0
21, 15456, Note_on_c, 15, 55, 92
21, 15550, Note_on_c, 15, 55, 0
21, 15552, Note_on_c, 15, 51, 92
21, 15646, Note_on_c, 15, 51, 0
21, 15648, Note_on_c, 15, 56, 92
21, 15742, Note_on_c, 15, 56, 0
21, 15840, Note_on_c, 15, 53, 92
21, 15934, Note_on_c, 15, 53, 0
21, 15936, Note_on_c, 15, 50, 92
21, 16030, Note_on_c, 15, 50, 0
21, 16032, Note_on_c, 15, 55, 92
21, 16126, Note_on_c, 15, 55, 0
21, 16224, Note_on_c, 15, 55, 92
21, 16318, Note_on_c, 15, 55, 0
21, 16320, Note_on_c, 15, 51, 92
21, 16414, Note_on_c, 15, 51, 0
21, 16416, Note_on_c, 15, 56, 92
21, 16510, Note_on_c, 15, 56, 0
21, 16608, Note_on_c, 15, 56, 92
21, 16702, Note_on_c, 15, 56, 0
21, 16704, Note_on_c, 15, 53, 92
21, 16798, Note_on_c, 15, 53, 0
21, 16800, Note_on_c, 15, 58, 92
21, 16894, Note_on_c, 15, 58, 0
21, 16992, Note_on_c, 15, 58, 92
21, 17086, Note_on_c, 15, 58, 0
21, 17088, Note_on_c, 15, 55, 92
21, 17182, Note_on_c, 15, 55, 0
21, 17184, Note_on_c, 15, 60, 92
21, 17278, Note_on_c, 15, 60, 0
21, 17376, Note_on_c, 15, 60, 92
21, 17470, Note_on_c, 15, 60, 0
21, 17472, Note_on_c, 15, 57, 92
21, 17566, Note_on_c, 15, 57, 0
21, 17568, Note_on_c, 15, 62, 92
21, 17662, Note_on_c, 15, 62, 0
21, 17856, Note_on_c, 15, 55, 92
21, 18112, Note_on_c, 15, 55, 0
21, 18144, Note_on_c, 15, 55, 92
21, 18238, Note_on_c, 15, 55, 0
21, 18240, Note_on_c, 15, 58, 92
21, 18592, Note_on_c, 15, 58, 0
21, 18624, Note_on_c, 15, 55, 92
21, 18720, Note_on_c, 15, 55, 0
21, 18720, Note_on_c, 15, 51, 92
21, 18814, Note_on_c, 15, 51, 0
21, 18816, Note_on_c, 15, 49, 92
21, 19152, Note_on_c, 15, 49, 0
21, 19200, Note_on_c, 15, 50, 92
21, 19360, Note_on_c, 15, 50, 0
21, 20160, Note_on_c, 15, 55, 60
21, 20496, Note_on_c, 15, 55, 0
21, 20544, Note_on_c, 15, 55, 60
21, 20704, Note_on_c, 15, 55, 0
21, 20736, Note_on_c, 15, 55, 60
21, 21072, Note_on_c, 15, 55, 0
21, 21120, Note_on_c, 15, 54, 60
21, 21456, Note_on_c, 15, 54, 0
21, 21504, Note_on_c, 15, 53, 60
21, 22224, Note_on_c, 15, 53, 0
21, 22272, Note_on_c, 15, 52, 60
21, 22608, Note_on_c, 15, 52, 0
21, 22656, Note_on_c, 15, 50, 60
21, 22992, Note_on_c, 15, 50, 0
21, 23040, Note_on_c, 15, 49, 60
21, 23200, Note_on_c, 15, 49, 0
21, 23232, Note_on_c, 15, 50, 60
21, 23760, Note_on_c, 15, 50, 0
21, 23808, Note_on_c, 15, 43, 60
21, 23968, Note_on_c, 15, 43, 0
21, 27840, Note_on_c, 15, 51, 60
21, 28000, Note_on_c, 15, 51, 0
21, 28032, Note_on_c, 15, 55, 60
21, 28224, Note_on_c, 15, 55, 0
21, 28224, Note_on_c, 15, 58, 60
21, 28384, Note_on_c, 15, 58, 0
21, 28416, Note_on_c, 15, 51, 60
21, 28576, Note_on_c, 15, 51, 0
21, 31488, Note_on_c, 15, 51, 60
21, 32256, Note_on_c, 15, 51, 0
21, 32256, Note_on_c, 15, 46, 60
21, 32976, Note_on_c, 15, 46, 0
21, 33024, Note_on_c, 15, 51, 60
21, 33184, Note_on_c, 15, 51, 0
21, 34752, Note_on_c, 15, 51, 60
21, 34912, Note_on_c, 15, 51, 0
21, 34944, Note_on_c, 15, 51, 60
21, 35104, Note_on_c, 15, 51, 0
21, 35136, Note_on_c, 15, 51, 60
21, 35296, Note_on_c, 15, 51, 0
21, 35520, Note_on_c, 15, 51, 60
21, 35680, Note_on_c, 15, 51, 0
21, 35712, Note_on_c, 15, 51, 60
21, 35872, Note_on_c, 15, 51, 0
21, 35904, Note_on_c, 15, 51, 65
21, 36064, Note_on_c, 15, 51, 0
21, 36288, Note_on_c, 15, 51, 75
21, 36448, Note_on_c, 15, 51, 0
21, 36480, Note_on_c, 15, 51, 80
21, 36816, Note_on_c, 15, 51, 0
21, 36864, Note_on_c, 15, 45, 92
21, 37200, Note_on_c, 15, 45, 0
21, 47232, Note_on_c, 15, 55, 75
21, 47568, Note_on_c, 15, 55, 0
21, 47616, Note_on_c, 15, 53, 75
21, 47952, Note_on_c, 15, 53, 0
21, 48000, Note_on_c, 15, 56, 75
21, 48336, Note_on_c, 15, 56, 0
21, 48384, Note_on_c, 15, 55, 75
21, 48720, Note_on_c, 15, 55, 0
21, 58368, Note_on_c, 15, 60, 92
21, 58464, Note_on_c, 15, 60, 0
21, 58464, Note_on_c, 15, 58, 92
21, 58624, Note_on_c, 15, 58, 0
21, 58656, Note_on_c, 15, 55, 92
21, 58750, Note_on_c, 15, 55, 0
21, 58752, Note_on_c, 15, 55, 92
21, 58848, Note_on_c, 15, 55, 0
21, 58848, Note_on_c, 15, 51, 92
21, 59008, Note_on_c, 15, 51, 0
21, 59040, Note_on_c, 15, 51, 92
21, 59134, Note_on_c, 15, 51, 0
21, 59136, Note_on_c, 15, 50, 92
21, 59184, Note_on_c, 15, 50, 0
21, 59184, Note_on_c, 15, 52, 92
21, 59232, Note_on_c, 15, 52, 0
21, 59232, Note_on_c, 15, 53, 92
21, 59280, Note_on_c, 15, 53, 0
21, 59280, Note_on_c, 15, 52, 92
21, 59326, Note_on_c, 15, 52, 0
21, 59328, Note_on_c, 15, 53, 92
21, 59422, Note_on_c, 15, 53, 0
21, 59424, Note_on_c, 15, 53, 92
21, 59518, Note_on_c, 15, 53, 0
21, 59520, Note_on_c, 15, 53, 92
21, 59616, Note_on_c, 15, 53, 0
21, 59616, Note_on_c, 15, 52, 92
21, 59710, Note_on_c, 15, 52, 0
21, 59712, Note_on_c, 15, 48, 92
21, 59806, Note_on_c, 15, 48, 0
21, 59808, Note_on_c, 15, 48, 92
21, 59902, Note_on_c, 15, 48, 0
21, 59904, Note_on_c, 15, 48, 92
21, 59952, Note_on_c, 15, 48, 0
21, 59952, Note_on_c, 15, 50, 92
21, 60000, Note_on_c, 15, 50, 0
21, 60000, Note_on_c, 15, 51, 92
21, 60048, Note_on_c, 15, 51, 0
21, 60048, Note_on_c, 15, 50, 92
21, 60094, Note_on_c, 15, 50, 0
21, 60096, Note_on_c, 15, 51, 92
21, 60190, Note_on_c, 15, 51, 0
21, 60192, Note_on_c, 15, 51, 92
21, 60286, Note_on_c, 15, 51, 0
21, 60288, Note_on_c, 15, 51, 92
21, 60384, Note_on_c, 15, 51, 0
21, 60384, Note_on_c, 15, 50, 92
21, 60478, Note_on_c, 15, 50, 0
21, 60480, Note_on_c, 15, 46, 92
21, 60640, Note_on_c, 15, 46, 0
21, 60768, Note_on_c, 15, 55, 92
21, 60862, Note_on_c, 15, 55, 0
21, 60864, Note_on_c, 15, 51, 92
21, 60958, Note_on_c, 15, 51, 0
21, 60960, Note_on_c, 15, 56, 92
21, 61054, Note_on_c, 15, 56, 0
21, 61152, Note_on_c, 15, 53, 92
21, 61246, Note_on_c, 15, 53, 0
21, 61248, Note_on_c, 15, 50, 92
21, 61342, Note_on_c, 15, 50, 0
21, 61344, Note_on_c, 15, 55, 92
21, 61438, Note_on_c, 15, 55, 0
21, 61536, Note_on_c, 15, 55, 92
21, 61630, Note_on_c, 15, 55, 0
21, 61632, Note_on_c, 15, 51, 92
21, 61726, Note_on_c, 15, 51, 0
21, 61728, Note_on_c, 15, 56, 92
21, 61822, Note_on_c, 15, 56, 0
21, 61920, Note_on_c, 15, 56, 92
21, 62014, Note_on_c, 15, 56, 0
21, 62016, Note_on_c, 15, 53, 92
21, 62110, Note_on_c, 15, 53, 0
21, 62112, Note_on_c, 15, 58, 92
21, 62206, Note_on_c, 15, 58, 0
21, 62304, Note_on_c, 15, 58, 92
21, 62398, Note_on_c, 15, 58, 0
21, 62400, Note_on_c, 15, 55, 92
21, 62494, Note_on_c, 15, 55, 0
21, 62496, Note_on_c, 15, 60, 92
21, 62590, Note_on_c, 15, 60, 0
21, 62688, Note_on_c, 15, 48, 92
21, 62782, Note_on_c, 15, 48, 0
21, 62784, Note_on_c, 15, 44, 92
21, 62878, Note_on_c, 15, 44, 0
21, 62880, Note_on_c, 15, 49, 92
21, 62974, Note_on_c, 15, 49, 0
21, 63072, Note_on_c, 15, 49, 92
21, 63166, Note_on_c, 15, 49, 0
21, 63168, Note_on_c, 15, 46, 92
21, 63264, Note_on_c, 15, 46, 0
21, 63264, Note_on_c, 15, 51, 92
21, 63358, Note_on_c, 15, 51, 0
21, 63360, Note_on_c, 15, 44, 92
21, 63520, Note_on_c, 15, 44, 0
21, 63552, Note_on_c, 15, 44, 92
21, 63694, Note_on_c, 15, 44, 0
21, 63696, Note_on_c, 15, 44, 92
21, 63742, Note_on_c, 15, 44, 0
21, 63744, Note_on_c, 15, 43, 92
21, 64000, Note_on_c, 15, 43, 0
21, 64032, Note_on_c, 15, 55, 92
21, 64126, Note_on_c, 15, 55, 0
21, 64128, Note_on_c, 15, 54, 92
21, 64464, Note_on_c, 15, 54, 0
21, 64512, Note_on_c, 15, 55, 92
21, 64672, Note_on_c, 15, 55, 0
21, 65472, Note_on_c, 15, 48, 60
21, 65808, Note_on_c, 15, 48, 0
21, 65856, Note_on_c, 15, 48, 60
21, 66016, Note_on_c, 15, 48, 0
21, 66048, Note_on_c, 15, 48, 60
21, 66384, Note_on_c, 15, 48, 0
21, 66432, Note_on_c, 15, 47, 60
21, 66768, Note_on_c, 15, 47, 0
21, 66816, Note_on_c, 15, 46, 60
21, 67152, Note_on_c, 15, 46, 0
21, 67200, Note_on_c, 15, 46, 60
21, 67536, Note_on_c, 15, 46, 0
21, 67584, Note_on_c, 15, 45, 60
21, 67840, Note_on_c, 15, 45, 0
21, 67872, Note_on_c, 15, 57, 60
21, 67966, Note_on_c, 15, 57, 0
21, 67968, Note_on_c, 15, 55, 60
21, 68224, Note_on_c, 15, 55, 0
21, 68256, Note_on_c, 15, 55, 60
21, 68350, Note_on_c, 15, 55, 0
21, 68352, Note_on_c, 15, 54, 60
21, 68512, Note_on_c, 15, 54, 0
21, 68544, Note_on_c, 15, 55, 60
21, 68880, Note_on_c, 15, 55, 0
21, 68928, Note_on_c, 15, 55, 60
21, 69088, Note_on_c, 15, 55, 0
21, 69120, Note_on_c, 15, 56, 60
21, 69214, Note_on_c, 15, 56, 0
21, 69504, Note_on_c, 15, 54, 60
21, 69598, Note_on_c, 15, 54, 0
21, 69888, Note_on_c, 15, 55, 60
21, 69982, Note_on_c, 15, 55, 0
21, 70272, Note_on_c, 15, 43, 60
21, 70366, Note_on_c, 15, 43, 0
21, 70656, Note_on_c, 15, 48, 60
21, 70816, Note_on_c, 15, 48, 0
21, 70816, End_track
22, 0, Start_track
22, 0, MIDI_port, 0
22, 0, Title_t, "Organo"
22, 0, Program_c, 15, 19
22, 0, Control_c, 15, 7, 127
22, 0, Control_c, 15, 10, 64
22, 0, Note_on_c, 15, 48, 60
22, 160, Note_on_c, 15, 48, 0
22, 288, Note_on_c, 15, 48, 60
22, 382, Note_on_c, 15, 48, 0
22, 384, Note_on_c, 15, 48, 60
22, 544, Note_on_c, 15, 48, 0
22, 672, Note_on_c, 15, 48, 60
22, 766, Note_on_c, 15, 48, 0
22, 768, Note_on_c, 15, 48, 60
22, 928, Note_on_c, 15, 48, 0
22, 1056, Note_on_c, 15, 48, 60
22, 1150, Note_on_c, 15, 48, 0
22, 1152, Note_on_c, 15, 47, 60
22, 1312, Note_on_c, 15, 47, 0
22, 1440, Note_on_c, 15, 47, 60
22, 1534, Note_on_c, 15, 47, 0
22, 1536, Note_on_c, 15, 46, 60
22, 1696, Note_on_c, 15, 46, 0
22, 1824, Note_on_c, 15, 46, 60
22, 1918, Note_on_c, 15, 46, 0
22, 1920, Note_on_c, 15, 46, 60
22, 2080, Note_on_c, 15, 46, 0
22, 2208, Note_on_c, 15, 46, 60
22, 2302, Note_on_c, 15, 46, 0
22, 2304, Note_on_c, 15, 45, 60
22, 2464, Note_on_c, 15, 45, 0
22, 2592, Note_on_c, 15, 57, 60
22, 2686, Note_on_c, 15, 57, 0
22, 2688, Note_on_c, 15, 55, 60
22, 2848, Note_on_c, 15, 55, 0
22, 2976, Note_on_c, 15, 55, 60
22, 3070, Note_on_c, 15, 55, 0
22, 3072, Note_on_c, 15, 54, 60
22, 3232, Note_on_c, 15, 54, 0
22, 3264, Note_on_c, 15, 55, 60
22, 3600, Note_on_c, 15, 55, 0
22, 3648, Note_on_c, 15, 43, 60
22, 3808, Note_on_c, 15, 43, 0
22, 3840, Note_on_c, 15, 48, 60
22, 4000, Note_on_c, 15, 48, 0
22, 6144, Note_on_c, 15, 48, 92
22, 6304, Note_on_c, 15, 48, 0
22, 6672, Note_on_c, 15, 48, 92
22, 6718, Note_on_c, 15, 48, 0
22, 6720, Note_on_c, 15, 51, 92
22, 6720, Note_on_c, 15, 60, 92
22, 6862, Note_on_c, 15, 51, 0
22, 6862, Note_on_c, 15, 60, 0
22, 6864, Note_on_c, 15, 48, 92
22, 6910, Note_on_c, 15, 48, 0
22, 6912, Note_on_c, 15, 55, 92
22, 6912, Note_on_c, 15, 60, 92
22, 7072, Note_on_c, 15, 55, 0
22, 7072, Note_on_c, 15, 60, 0
22, 7104, Note_on_c, 15, 59, 92
22, 7264, Note_on_c, 15, 59, 0
22, 7440, Note_on_c, 15, 55, 92
22, 7486, Note_on_c, 15, 55, 0
22, 7488, Note_on_c, 15, 52, 92
22, 7488, Note_on_c, 15, 58, 92
22, 7488, Note_on_c, 15, 60, 92
22, 7630, Note_on_c, 15, 52, 0
22, 7630, Note_on_c, 15, 58, 0
22, 7630, Note_on_c, 15, 60, 0
22, 7632, Note_on_c, 15, 48, 92
22, 7632, Note_on_c, 15, 58, 92
22, 7632, Note_on_c, 15, 60, 92
22, 7678, Note_on_c, 15, 48, 0
22, 7678, Note_on_c, 15, 58, 0
22, 7678, Note_on_c, 15, 60, 0
22, 7680, Note_on_c, 15, 53, 92
22, 7680, Note_on_c, 15, 58, 92
22, 7840, Note_on_c, 15, 53, 0
22, 7840, Note_on_c, 15, 58, 0
22, 7872, Note_on_c, 15, 57, 92
22, 8032, Note_on_c, 15, 57, 0
22, 8208, Note_on_c, 15, 53, 92
22, 8254, Note_on_c, 15, 53, 0
22, 8256, Note_on_c, 15, 50, 92
22, 8256, Note_on_c, 15, 56, 92
22, 8256, Note_on_c, 15, 58, 92
22, 8398, Note_on_c, 15, 50, 0
22, 8398, Note_on_c, 15, 56, 0
22, 8398, Note_on_c, 15, 58, 0
22, 8400, Note_on_c, 15, 46, 92
22, 8400, Note_on_c, 15, 56, 92
22, 8400, Note_on_c, 15, 58, 92
22, 8446, Note_on_c, 15, 46, 0
22, 8446, Note_on_c, 15, 56, 0
22, 8446, Note_on_c, 15, 58, 0
22, 8448, Note_on_c, 15, 51, 92
22, 8496, Note_on_c, 15, 51, 0
22, 8496, Note_on_c, 15, 53, 92
22, 8544, Note_on_c, 15, 53, 0
22, 8544, Note_on_c, 15, 55, 92
22, 8592, Note_on_c, 15, 55, 0
22, 8592, Note_on_c, 15, 51, 92
22, 8638, Note_on_c, 15, 51, 0
22, 8640, Note_on_c, 15, 56, 92
22, 8734, Note_on_c, 15, 56, 0
22, 8736, Note_on_c, 15, 56, 92
22, 8830, Note_on_c, 15, 56, 0
22, 8832, Note_on_c, 15, 50, 92
22, 8832, Note_on_c, 15, 60, 92
22, 8880, Note_on_c, 15, 50, 0
22, 8880, Note_on_c, 15, 51, 92
22, 8928, Note_on_c, 15, 51, 0
22, 8928, Note_on_c, 15, 53, 92
22, 8976, Note_on_c, 15, 53, 0
22, 8976, Note_on_c, 15, 50, 92
22, 8992, Note_on_c, 15, 60, 0
22, 9022, Note_on_c, 15, 50, 0
22, 9024, Note_on_c, 15, 55, 92
22, 9024, Note_on_c, 15, 65, 92
22, 9118, Note_on_c, 15, 55, 0
22, 9118, Note_on_c, 15, 65, 0
22, 9120, Note_on_c, 15, 55, 92
22, 9214, Note_on_c, 15, 55, 0
22, 9216, Note_on_c, 15, 51, 92
22, 9216, Note_on_c, 15, 60, 92
22, 9376, Note_on_c, 15, 51, 0
22, 9376, Note_on_c, 15, 60, 0
22, 9408, Note_on_c, 15, 48, 92
22, 9568, Note_on_c, 15, 48, 0
22, 9600, Note_on_c, 15, 46, 92
22, 9600, Note_on_c, 15, 55, 92
22, 9742, Note_on_c, 15, 46, 0
22, 9742, Note_on_c, 15, 55, 0
22, 9744, Note_on_c, 15, 43, 92
22, 9744, Note_on_c, 15, 55, 92
22, 9790, Note_on_c, 15, 43, 0
22, 9790, Note_on_c, 15, 55, 0
22, 9792, Note_on_c, 15, 46, 92
22, 9792, Note_on_c, 15, 55, 92
22, 9934, Note_on_c, 15, 46, 0
22, 9934, Note_on_c, 15, 55, 0
22, 9936, Note_on_c, 15, 43, 92
22, 9936, Note_on_c, 15, 55, 92
22, 9982, Note_on_c, 15, 43, 0
22, 9982, Note_on_c, 15, 55, 0
22, 9984, Note_on_c, 15, 50, 92
22, 9984, Note_on_c, 15, 55, 92
22, 10144, Note_on_c, 15, 50, 0
22, 10144, Note_on_c, 15, 55, 0
22, 10176, Note_on_c, 15, 54, 92
22, 10336, Note_on_c, 15, 54, 0
22, 10512, Note_on_c, 15, 50, 92
22, 10558, Note_on_c, 15, 50, 0
22, 10560, Note_on_c, 15, 47, 92
22, 10560, Note_on_c, 15, 53, 92
22, 10560, Note_on_c, 15, 55, 92
22, 10702, Note_on_c, 15, 47, 0
22, 10702, Note_on_c, 15, 53, 0
22, 10702, Note_on_c, 15, 55, 0
22, 10704, Note_on_c, 15, 43, 92
22, 10704, Note_on_c, 15, 53, 92
22, 10704, Note_on_c, 15, 55, 92
22, 10750, Note_on_c, 15, 43, 0
22, 10750, Note_on_c, 15, 53, 0
22, 10750, Note_on_c, 15, 55, 0
22, 10752, Note_on_c, 15, 48, 92
22, 10752, Note_on_c, 15, 53, 92
22, 10912, Note_on_c, 15, 48, 0
22, 10912, Note_on_c, 15, 53, 0
22, 10944, Note_on_c, 15, 52, 92
22, 11104, Note_on_c, 15, 52, 0
22, 11280, Note_on_c, 15, 48, 92
22, 11326, Note_on_c, 15, 48, 0
22, 11328, Note_on_c, 15, 45, 92
22, 11328, Note_on_c, 15, 52, 92
22, 11328, Note_on_c, 15, 53, 92
22, 11470, Note_on_c, 15, 45, 0
22, 11470, Note_on_c, 15, 52, 0
22, 11470, Note_on_c, 15, 53, 0
22, 11472, Note_on_c, 15, 41, 92
22, 11472, Note_on_c, 15, 52, 92
22, 11472, Note_on_c, 15, 53, 92
22, 11518, Note_on_c, 15, 41, 0
22, 11518, Note_on_c, 15, 52, 0
22, 11518, Note_on_c, 15, 53, 0
22, 11520, Note_on_c, 15, 46, 92
22, 11568, Note_on_c, 15, 46, 0
22, 11568, Note_on_c, 15, 48, 92
22, 11616, Note_on_c, 15, 48, 0
22, 11616, Note_on_c, 15, 50, 92
22, 11664, Note_on_c, 15, 50, 0
22, 11664, Note_on_c, 15, 46, 92
22, 11710, Note_on_c, 15, 46, 0
22, 11712, Note_on_c, 15, 51, 92
22, 11806, Note_on_c, 15, 51, 0
22, 11808, Note_on_c, 15, 51, 92
22, 11902, Note_on_c, 15, 51, 0
22, 11904, Note_on_c, 15, 45, 92
22, 11904, Note_on_c, 15, 55, 92
22, 11952, Note_on_c, 15, 45, 0
22, 11952, Note_on_c, 15, 55, 0
22, 11952, Note_on_c, 15, 46, 92
22, 12000, Note_on_c, 15, 46, 0
22, 12000, Note_on_c, 15, 48, 92
22, 12048, Note_on_c, 15, 48, 0
22, 12048, Note_on_c, 15, 45, 92
22, 12094, Note_on_c, 15, 45, 0
22, 12096, Note_on_c, 15, 50, 92
22, 12096, Note_on_c, 15, 60, 92
22, 12190, Note_on_c, 15, 50, 0
22, 12190, Note_on_c, 15, 60, 0
22, 12192, Note_on_c, 15, 50, 92
22, 12286, Note_on_c, 15, 50, 0
22, 12288, Note_on_c, 15, 43, 92
22, 12288, Note_on_c, 15, 47, 92
22, 12288, Note_on_c, 15, 50, 92
22, 12448, Note_on_c, 15, 47, 0
22, 12448, Note_on_c, 15, 50, 0
22, 12480, Note_on_c, 15, 48, 92
22, 12480, Note_on_c, 15, 51, 92
22, 12640, Note_on_c, 15, 48, 0
22, 12640, Note_on_c, 15, 51, 0
22, 12672, Note_on_c, 15, 45, 92
22, 12672, Note_on_c, 15, 53, 92
22, 12832, Note_on_c, 15, 45, 0
22, 12832, Note_on_c, 15, 53, 0
22, 12864, Note_on_c, 15, 47, 92
22, 13024, Note_on_c, 15, 43, 0
22, 13024, Note_on_c, 15, 47, 0
22, 13056, Note_on_c, 15, 60, 92
22, 13056, Note_on_c, 15, 67, 92
22, 13152, Note_on_c, 15, 60, 0
22, 13152, Note_on_c, 15, 67, 0
22, 13152, Note_on_c, 15, 55, 92
22, 13152, Note_on_c, 15, 67, 92
22, 13246, Note_on_c, 15, 55, 0
22, 13246, Note_on_c, 15, 67, 0
22, 13248, Note_on_c, 15, 55, 92
22, 13248, Note_on_c, 15, 67, 92
22, 13280, Note_on_c, 15, 55, 0
22, 13280, Note_on_c, 15, 67, 0
22, 13344, Note_on_c, 15, 55, 92
22, 13344, Note_on_c, 15, 67, 92
22, 13376, Note_on_c, 15, 55, 0
22, 13376, Note_on_c, 15, 67, 0
22, 13440, Note_on_c, 15, 55, 92
22, 13440, Note_on_c, 15, 67, 92
22, 13536, Note_on_c, 15, 55, 0
22, 13536, Note_on_c, 15, 67, 0
22, 13536, Note_on_c, 15, 51, 92
22, 13536, Note_on_c, 15, 67, 92
22, 13630, Note_on_c, 15, 51, 0
22, 13630, Note_on_c, 15, 67, 0
22, 13632, Note_on_c, 15, 51, 92
22, 13632, Note_on_c, 15, 67, 92
22, 13664, Note_on_c, 15, 51, 0
22, 13664, Note_on_c, 15, 67, 0
22, 13728, Note_on_c, 15, 51, 92
22, 13728, Note_on_c, 15, 67, 92
22, 13760, Note_on_c, 15, 51, 0
22, 13760, Note_on_c, 15, 67, 0
22, 13824, Note_on_c, 15, 50, 92
22, 13824, Note_on_c, 15, 53, 92
22, 13824, Note_on_c, 15, 55, 92
22, 13824, Note_on_c, 15, 60, 92
22, 13872, Note_on_c, 15, 50, 0
22, 13872, Note_on_c, 15, 53, 0
22, 13872, Note_on_c, 15, 55, 0
22, 13872, Note_on_c, 15, 52, 92
22, 13920, Note_on_c, 15, 52, 0
22, 13920, Note_on_c, 15, 53, 92
22, 13968, Note_on_c, 15, 53, 0
22, 13968, Note_on_c, 15, 52, 92
22, 13984, Note_on_c, 15, 60, 0
22, 14014, Note_on_c, 15, 52, 0
22, 14016, Note_on_c, 15, 53, 92
22, 14016, Note_on_c, 15, 59, 92
22, 14110, Note_on_c, 15, 53, 0
22, 14112, Note_on_c, 15, 53, 92
22, 14176, Note_on_c, 15, 59, 0
22, 14206, Note_on_c, 15, 53, 0
22, 14208, Note_on_c, 15, 53, 92
22, 14208, Note_on_c, 15, 55, 92
22, 14208, Note_on_c, 15, 60, 92
22, 14304, Note_on_c, 15, 53, 0
22, 14304, Note_on_c, 15, 60, 0
22, 14304, Note_on_c, 15, 52, 92
22, 14398, Note_on_c, 15, 52, 0
22, 14398, Note_on_c, 15, 55, 0
22, 14400, Note_on_c, 15, 48, 92
22, 14400, Note_on_c, 15, 58, 92
22, 14494, Note_on_c, 15, 48, 0
22, 14494, Note_on_c, 15, 58, 0
22, 14496, Note_on_c, 15, 48, 92
22, 14590, Note_on_c, 15, 48, 0
22, 14592, Note_on_c, 15, 48, 92
22, 14592, Note_on_c, 15, 51, 92
22, 14592, Note_on_c, 15, 53, 92
22, 14592, Note_on_c, 15, 58, 92
22, 14640, Note_on_c, 15, 48, 0
22, 14640, Note_on_c, 15, 50, 92
22, 14688, Note_on_c, 15, 50, 0
22, 14688, Note_on_c, 15, 51, 92
22, 14736, Note_on_c, 15, 51, 0
22, 14736, Note_on_c, 15, 50, 92
22, 14752, Note_on_c, 15, 51, 0
22, 14752, Note_on_c, 15, 53, 0
22, 14752, Note_on_c, 15, 58, 0
22, 14782, Note_on_c, 15, 50, 0
22, 14784, Note_on_c, 15, 51, 92
22, 14784, Note_on_c, 15, 57, 92
22, 14878, Note_on_c, 15, 51, 0
22, 14878, Note_on_c, 15, 57, 0
22, 14880, Note_on_c, 15, 51, 92
22, 14974, Note_on_c, 15, 51, 0
22, 14976, Note_on_c, 15, 51, 92
22, 14976, Note_on_c, 15, 53, 92
22, 14976, Note_on_c, 15, 58, 92
22, 15072, Note_on_c, 15, 51, 0
22, 15072, Note_on_c, 15, 50, 92
22, 15136, Note_on_c, 15, 53, 0
22, 15136, Note_on_c, 15, 58, 0
22, 15166, Note_on_c, 15, 50, 0
22, 15168, Note_on_c, 15, 46, 92
22, 15168, Note_on_c, 15, 56, 92
22, 15262, Note_on_c, 15, 46, 0
22, 15264, Note_on_c, 15, 46, 92
22, 15358, Note_on_c, 15, 46, 0
22, 15358, Note_on_c, 15, 56, 0
22, 15360, Note_on_c, 15, 53, 92
22, 15360, Note_on_c, 15, 55, 92
22, 15456, Note_on_c, 15, 55, 92
22, 15520, Note_on_c, 15, 53, 0
22, 15520, Note_on_c, 15, 55, 0
22, 15550, Note_on_c, 15, 55, 0
22, 15552, Note_on_c, 15, 51, 92
22, 15552, Note_on_c, 15, 60, 92
22, 15552, Note_on_c, 15, 63, 92
22, 15646, Note_on_c, 15, 51, 0
22, 15646, Note_on_c, 15, 60, 0
22, 15646, Note_on_c, 15, 63, 0
22, 15648, Note_on_c, 15, 56, 92
22, 15742, Note_on_c, 15, 56, 0
22, 15744, Note_on_c, 15, 51, 92
22, 15744, Note_on_c, 15, 53, 92
22, 15840, Note_on_c, 15, 53, 92
22, 15904, Note_on_c, 15, 51, 0
22, 15904, Note_on_c, 15, 53, 0
22, 15934, Note_on_c, 15, 53, 0
22, 15936, Note_on_c, 15, 50, 92
22, 15936, Note_on_c, 15, 59, 92
22, 15936, Note_on_c, 15, 62, 92
22, 16030, Note_on_c, 15, 50, 0
22, 16030, Note_on_c, 15, 59, 0
22, 16030, Note_on_c, 15, 62, 0
22, 16032, Note_on_c, 15, 55, 92
22, 16126, Note_on_c, 15, 55, 0
22, 16128, Note_on_c, 15, 50, 92
22, 16128, Note_on_c, 15, 51, 92
22, 16224, Note_on_c, 15, 55, 92
22, 16288, Note_on_c, 15, 50, 0
22, 16288, Note_on_c, 15, 51, 0
22, 16318, Note_on_c, 15, 55, 0
22, 16320, Note_on_c, 15, 51, 92
22, 16320, Note_on_c, 15, 60, 92
22, 16320, Note_on_c, 15, 63, 92
22, 16414, Note_on_c, 15, 51, 0
22, 16414, Note_on_c, 15, 60, 0
22, 16414, Note_on_c, 15, 63, 0
22, 16416, Note_on_c, 15, 56, 92
22, 16510, Note_on_c, 15, 56, 0
22, 16512, Note_on_c, 15, 51, 92
22, 16512, Note_on_c, 15, 53, 92
22, 16608, Note_on_c, 15, 56, 92
22, 16672, Note_on_c, 15, 51, 0
22, 16672, Note_on_c, 15, 53, 0
22, 16702, Note_on_c, 15, 56, 0
22, 16704, Note_on_c, 15, 53, 92
22, 16704, Note_on_c, 15, 62, 92
22, 16704, Note_on_c, 15, 65, 92
22, 16798, Note_on_c, 15, 53, 0
22, 16798, Note_on_c, 15, 62, 0
22, 16798, Note_on_c, 15, 65, 0
22, 16800, Note_on_c, 15, 58, 92
22, 16894, Note_on_c, 15, 58, 0
22, 16896, Note_on_c, 15, 65, 92
22, 16896, Note_on_c, 15, 67, 92
22, 16992, Note_on_c, 15, 58, 92
22, 17056, Note_on_c, 15, 65, 0
22, 17056, Note_on_c, 15, 67, 0
22, 17086, Note_on_c, 15, 58, 0
22, 17088, Note_on_c, 15, 55, 92
22, 17088, Note_on_c, 15, 63, 92
22, 17088, Note_on_c, 15, 67, 92
22, 17182, Note_on_c, 15, 55, 0
22, 17184, Note_on_c, 15, 60, 92
22, 17248, Note_on_c, 15, 63, 0
22, 17248, Note_on_c, 15, 67, 0
22, 17278, Note_on_c, 15, 60, 0
22, 17280, Note_on_c, 15, 67, 92
22, 17280, Note_on_c, 15, 69, 92
22, 17376, Note_on_c, 15, 60, 92
22, 17440, Note_on_c, 15, 67, 0
22, 17440, Note_on_c, 15, 69, 0
22, 17470, Note_on_c, 15, 60, 0
22, 17472, Note_on_c, 15, 57, 92
22, 17472, Note_on_c, 15, 66, 92
22, 17472, Note_on_c, 15, 69, 92
22, 17566, Note_on_c, 15, 57, 0
22, 17568, Note_on_c, 15, 62, 92
22, 17632, Note_on_c, 15, 66, 0
22, 17632, Note_on_c, 15, 69, 0
22, 17662, Note_on_c, 15, 62, 0
22, 17664, Note_on_c, 15, 55, 92
22, 17712, Note_on_c, 15, 55, 0
22, 17712, Note_on_c, 15, 57, 92
22, 17760, Note_on_c, 15, 57, 0
22, 17760, Note_on_c, 15, 58, 92
22, 17808, Note_on_c, 15, 58, 0
22, 17808, Note_on_c, 15, 55, 92
22, 17854, Note_on_c, 15, 55, 0
22, 17856, Note_on_c, 15, 67, 92
22, 17888, Note_on_c, 15, 67, 0
22, 17952, Note_on_c, 15, 67, 92
22, 17984, Note_on_c, 15, 67, 0
22, 18048, Note_on_c, 15, 46, 92
22, 18048, Note_on_c, 15, 55, 92
22, 18096, Note_on_c, 15, 46, 0
22, 18096, Note_on_c, 15, 48, 92
22, 18144, Note_on_c, 15, 48, 0
22, 18144, Note_on_c, 15, 50, 92
22, 18192, Note_on_c, 15, 50, 0
22, 18192, Note_on_c, 15, 46, 92
22, 18208, Note_on_c, 15, 55, 0
22, 18238, Note_on_c, 15, 46, 0
22, 18240, Note_on_c, 15, 55, 92
22, 18240, Note_on_c, 15, 58, 92
22, 18272, Note_on_c, 15, 58, 0
22, 18336, Note_on_c, 15, 58, 92
22, 18368, Note_on_c, 15, 58, 0
22, 18400, Note_on_c, 15, 55, 0
22, 18432, Note_on_c, 15, 51, 92
22, 18480, Note_on_c, 15, 51, 0
22, 18480, Note_on_c, 15, 53, 92
22, 18528, Note_on_c, 15, 53, 0
22, 18528, Note_on_c, 15, 55, 92
22, 18576, Note_on_c, 15, 55, 0
22, 18576, Note_on_c, 15, 51, 92
22, 18622, Note_on_c, 15, 51, 0
22, 18624, Note_on_c, 15, 63, 92
22, 18656, Note_on_c, 15, 63, 0
22, 18720, Note_on_c, 15, 63, 92
22, 18752, Note_on_c, 15, 63, 0
22, 18816, Note_on_c, 15, 49, 92
22, 18816, Note_on_c, 15, 52, 92
22, 18816, Note_on_c, 15, 58, 92
22, 18864, Note_on_c, 15, 49, 0
22, 18864, Note_on_c, 15, 50, 92
22, 18912, Note_on_c, 15, 50, 0
22, 18912, Note_on_c, 15, 52, 92
22, 18960, Note_on_c, 15, 52, 0
22, 18960, Note_on_c, 15, 49, 92
22, 18976, Note_on_c, 15, 52, 0
22, 18976, Note_on_c, 15, 58, 0
22, 19006, Note_on_c, 15, 49, 0
22, 19008, Note_on_c, 15, 52, 92
22, 19008, Note_on_c, 15, 58, 92
22, 19008, Note_on_c, 15, 61, 92
22, 19102, Note_on_c, 15, 61, 0
22, 19104, Note_on_c, 15, 61, 92
22, 19136, Note_on_c, 15, 61, 0
22, 19168, Note_on_c, 15, 52, 0
22, 19168, Note_on_c, 15, 58, 0
22, 19200, Note_on_c, 15, 62, 92
22, 19200, Note_on_c, 15, 66, 92
22, 19200, Note_on_c, 15, 69, 92
22, 19294, Note_on_c, 15, 66, 0
22, 19294, Note_on_c, 15, 69, 0
22, 19296, Note_on_c, 15, 67, 92
22, 19296, Note_on_c, 15, 70, 92
22, 19296, Note_on_c, 15, 73, 92
22, 19390, Note_on_c, 15, 62, 0
22, 19390, Note_on_c, 15, 67, 0
22, 19390, Note_on_c, 15, 70, 0
22, 19390, Note_on_c, 15, 73, 0
22, 19392, Note_on_c, 15, 50, 92
22, 19392, Note_on_c, 15, 62, 92
22, 19486, Note_on_c, 15, 62, 0
22, 19488, Note_on_c, 15, 55, 92
22, 19488, Note_on_c, 15, 58, 92
22, 19488, Note_on_c, 15, 61, 92
22, 19582, Note_on_c, 15, 55, 0
22, 19582, Note_on_c, 15, 58, 0
22, 19582, Note_on_c, 15, 61, 0
22, 19584, Note_on_c, 15, 62, 92
22, 19678, Note_on_c, 15, 50, 0
22, 19678, Note_on_c, 15, 62, 0
22, 19680, Note_on_c, 15, 48, 92
22, 19712, Note_on_c, 15, 48, 0
22, 19776, Note_on_c, 15, 46, 92
22, 19808, Note_on_c, 15, 46, 0
22, 19872, Note_on_c, 15, 45, 92
22, 19904, Note_on_c, 15, 45, 0
22, 19968, Note_on_c, 15, 43, 92
22, 20128, Note_on_c, 15, 43, 0
22, 20256, Note_on_c, 15, 55, 60
22, 20350, Note_on_c, 15, 55, 0
22, 20352, Note_on_c, 15, 55, 60
22, 20512, Note_on_c, 15, 55, 0
22, 20640, Note_on_c, 15, 55, 60
22, 20734, Note_on_c, 15, 55, 0
22, 20736, Note_on_c, 15, 55, 60
22, 20896, Note_on_c, 15, 55, 0
22, 21024, Note_on_c, 15, 55, 60
22, 21118, Note_on_c, 15, 55, 0
22, 21120, Note_on_c, 15, 54, 60
22, 21280, Note_on_c, 15, 54, 0
22, 21408, Note_on_c, 15, 54, 60
22, 21502, Note_on_c, 15, 54, 0
22, 21504, Note_on_c, 15, 53, 60
22, 21664, Note_on_c, 15, 53, 0
22, 21792, Note_on_c, 15, 53, 60
22, 21886, Note_on_c, 15, 53, 0
22, 21888, Note_on_c, 15, 53, 60
22, 22048, Note_on_c, 15, 53, 0
22, 22176, Note_on_c, 15, 53, 60
22, 22270, Note_on_c, 15, 53, 0
22, 22272, Note_on_c, 15, 52, 60
22, 22432, Note_on_c, 15, 52, 0
22, 22560, Note_on_c, 15, 52, 60
22, 22654, Note_on_c, 15, 52, 0
22, 22656, Note_on_c, 15, 50, 60
22, 22816, Note_on_c, 15, 50, 0
22, 22944, Note_on_c, 15, 50, 60
22, 23038, Note_on_c, 15, 50, 0
22, 23040, Note_on_c, 15, 49, 60
22, 23200, Note_on_c, 15, 49, 0
22, 23232, Note_on_c, 15, 50, 60
22, 23568, Note_on_c, 15, 50, 0
22, 23616, Note_on_c, 15, 50, 60
22, 23776, Note_on_c, 15, 50, 0
22, 23808, Note_on_c, 15, 43, 60
22, 23968, Note_on_c, 15, 43, 0
22, 24192, Note_on_c, 15, 55, 60
22, 24352, Note_on_c, 15, 55, 0
22, 24576, Note_on_c, 15, 53, 60
22, 24576, Note_on_c, 15, 56, 60
22, 24576, Note_on_c, 15, 58, 60
22, 24576, Note_on_c, 15, 62, 60
22, 24960, Note_on_c, 15, 53, 0
22, 24960, Note_on_c, 15, 56, 0
22, 24960, Note_on_c, 15, 58, 0
22, 24960, Note_on_c, 15, 62, 0
22, 24960, Note_on_c, 15, 46, 60
22, 24960, Note_on_c, 15, 56, 60
22, 25296, Note_on_c, 15, 46, 0
22, 25296, Note_on_c, 15, 56, 0
22, 25344, Note_on_c, 15, 51, 45
22, 25504, Note_on_c, 15, 51, 0
22, 26112, Note_on_c, 15, 51, 45
22, 26272, Note_on_c, 15, 51, 0
22, 26880, Note_on_c, 15, 48, 45
22, 26880, Note_on_c, 15, 56, 45
22, 27040, Note_on_c, 15, 48, 0
22, 27040, Note_on_c, 15, 56, 0
22, 27264, Note_on_c, 15, 50, 45
22, 27264, Note_on_c, 15, 56, 45
22, 27264, Note_on_c, 15, 58, 45
22, 27424, Note_on_c, 15, 50, 0
22, 27424, Note_on_c, 15, 56, 0
22, 27424, Note_on_c, 15, 58, 0
22, 27840, Note_on_c, 15, 51, 45
22, 28032, Note_on_c, 15, 51, 0
22, 28032, Note_on_c, 15, 55, 45
22, 28032, Note_on_c, 15, 63, 45
22, 28224, Note_on_c, 15, 55, 0
22, 28224, Note_on_c, 15, 63, 0
22, 28224, Note_on_c, 15, 58, 45
22, 28224, Note_on_c, 15, 68, 45
22, 28384, Note_on_c, 15, 58, 0
22, 28384, Note_on_c, 15, 68, 0
22, 28608, Note_on_c, 15, 51, 45
22, 28768, Note_on_c, 15, 51, 0
22, 28800, Note_on_c, 15, 55, 45
22, 28800, Note_on_c, 15, 63, 45
22, 28960, Note_on_c, 15, 55, 0
22, 28960, Note_on_c, 15, 63, 0
22, 28992, Note_on_c, 15, 51, 45
22, 29152, Note_on_c, 15, 51, 0
22, 29376, Note_on_c, 15, 46, 45
22, 29536, Note_on_c, 15, 46, 0
22, 29568, Note_on_c, 15, 50, 45
22, 29568, Note_on_c, 15, 58, 45
22, 29728, Note_on_c, 15, 50, 0
22, 29728, Note_on_c, 15, 58, 0
22, 29760, Note_on_c, 15, 46, 45
22, 29920, Note_on_c, 15, 46, 0
22, 29952, Note_on_c, 15, 51, 45
22, 30336, Note_on_c, 15, 51, 0
22, 30336, Note_on_c, 15, 55, 45
22, 30336, Note_on_c, 15, 63, 45
22, 30720, Note_on_c, 15, 55, 0
22, 30720, Note_on_c, 15, 63, 0
22, 30720, Note_on_c, 15, 53, 45
22, 30720, Note_on_c, 15, 63, 45
22, 31104, Note_on_c, 15, 53, 0
22, 31104, Note_on_c, 15, 63, 0
22, 31104, Note_on_c, 15, 46, 45
22, 31104, Note_on_c, 15, 56, 45
22, 31440, Note_on_c, 15, 46, 0
22, 31440, Note_on_c, 15, 56, 0
22, 31680, Note_on_c, 15, 51, 45
22, 31840, Note_on_c, 15, 51, 0
22, 31872, Note_on_c, 15, 55, 45
22, 31872, Note_on_c, 15, 63, 45
22, 32032, Note_on_c, 15, 55, 0
22, 32032, Note_on_c, 15, 63, 0
22, 32064, Note_on_c, 15, 51, 45
22, 32224, Note_on_c, 15, 51, 0
22, 32448, Note_on_c, 15, 46, 45
22, 32608, Note_on_c, 15, 46, 0
22, 32640, Note_on_c, 15, 50, 45
22, 32640, Note_on_c, 15, 58, 45
22, 32800, Note_on_c, 15, 50, 0
22, 32800, Note_on_c, 15, 58, 0
22, 32832, Note_on_c, 15, 46, 45
22, 32992, Note_on_c, 15, 46, 0
22, 33024, Note_on_c, 15, 51, 45
22, 33408, Note_on_c, 15, 51, 0
22, 33408, Note_on_c, 15, 55, 45
22, 33408, Note_on_c, 15, 63, 45
22, 33792, Note_on_c, 15, 55, 0
22, 33792, Note_on_c, 15, 63, 0
22, 33792, Note_on_c, 15, 53, 45
22, 33792, Note_on_c, 15, 63, 45
22, 34176, Note_on_c, 15, 53, 0
22, 34176, Note_on_c, 15, 63, 0
22, 34176, Note_on_c, 15, 46, 45
22, 34176, Note_on_c, 15, 56, 45
22, 34512, Note_on_c, 15, 46, 0
22, 34512, Note_on_c, 15, 56, 0
22, 34752, Note_on_c, 15, 51, 45
22, 34912, Note_on_c, 15, 51, 0
22, 34944, Note_on_c, 15, 51, 45
22, 35104, Note_on_c, 15, 51, 0
22, 35136, Note_on_c, 15, 51, 45
22, 35296, Note_on_c, 15, 51, 0
22, 35520, Note_on_c, 15, 51, 45
22, 35680, Note_on_c, 15, 51, 0
22, 35712, Note_on_c, 15, 51, 45
22, 35872, Note_on_c, 15, 51, 0
22, 35904, Note_on_c, 15, 51, 52
22, 36064, Note_on_c, 15, 51, 0
22, 36288, Note_on_c, 15, 51, 68
22, 36448, Note_on_c, 15, 51, 0
22, 36480, Note_on_c, 15, 51, 76
22, 36640, Note_on_c, 15, 51, 0
22, 36672, Note_on_c, 15, 51, 84
22, 36832, Note_on_c, 15, 51, 0
22, 36864, Note_on_c, 15, 45, 92
22, 36864, Note_on_c, 15, 55, 92
22, 37200, Note_on_c, 15, 45, 0
22, 37200, Note_on_c, 15, 55, 0
22, 37632, Note_on_c, 15, 46, 45
22, 37632, Note_on_c, 15, 51, 45
22, 37632, Note_on_c, 15, 55, 45
22, 37726, Note_on_c, 15, 46, 0
22, 37726, Note_on_c, 15, 51, 0
22, 37726, Note_on_c, 15, 55, 0
22, 38016, Note_on_c, 15, 46, 45
22, 38016, Note_on_c, 15, 50, 45
22, 38016, Note_on_c, 15, 53, 45
22, 38110, Note_on_c, 15, 46, 0
22, 38110, Note_on_c, 15, 50, 0
22, 38110, Note_on_c, 15, 53, 0
22, 38592, Note_on_c, 15, 46, 45
22, 38752, Note_on_c, 15, 46, 0
22, 38784, Note_on_c, 15, 46, 45
22, 38944, Note_on_c, 15, 46, 0
22, 38976, Note_on_c, 15, 46, 45
22, 39136, Note_on_c, 15, 46, 0
22, 39360, Note_on_c, 15, 48, 45
22, 39360, Note_on_c, 15, 56, 45
22, 39520, Note_on_c, 15, 48, 0
22, 39552, Note_on_c, 15, 48, 45
22, 39712, Note_on_c, 15, 48, 0
22, 39744, Note_on_c, 15, 48, 45
22, 39888, Note_on_c, 15, 56, 0
22, 39904, Note_on_c, 15, 48, 0
22, 40128, Note_on_c, 15, 44, 92
22, 40128, Note_on_c, 15, 46, 92
22, 40128, Note_on_c, 15, 50, 92
22, 40288, Note_on_c, 15, 44, 0
22, 40320, Note_on_c, 15, 44, 92
22, 40480, Note_on_c, 15, 44, 0
22, 40512, Note_on_c, 15, 44, 92
22, 40656, Note_on_c, 15, 46, 0
22, 40656, Note_on_c, 15, 50, 0
22, 40672, Note_on_c, 15, 44, 0
22, 40704, Note_on_c, 15, 43, 92
22, 40704, Note_on_c, 15, 51, 92
22, 40864, Note_on_c, 15, 43, 0
22, 40864, Note_on_c, 15, 51, 0
22, 41856, Note_on_c, 15, 55, 45
22, 42240, Note_on_c, 15, 55, 0
22, 42240, Note_on_c, 15, 56, 45
22, 42624, Note_on_c, 15, 56, 0
22, 42624, Note_on_c, 15, 57, 45
22, 42718, Note_on_c, 15, 57, 0
22, 43008, Note_on_c, 15, 58, 45
22, 43392, Note_on_c, 15, 58, 0
22, 43392, Note_on_c, 15, 46, 45
22, 43728, Note_on_c, 15, 46, 0
22, 43776, Note_on_c, 15, 51, 45
22, 44160, Note_on_c, 15, 51, 0
22, 44160, Note_on_c, 15, 55, 45
22, 44544, Note_on_c, 15, 55, 0
22, 44544, Note_on_c, 15, 53, 45
22, 44928, Note_on_c, 15, 53, 0
22, 44928, Note_on_c, 15, 56, 45
22, 45264, Note_on_c, 15, 56, 0
22, 45312, Note_on_c, 15, 55, 45
22, 45696, Note_on_c, 15, 55, 0
22, 45696, Note_on_c, 15, 60, 45
22, 45888, Note_on_c, 15, 60, 0
22, 45888, Note_on_c, 15, 58, 45
22, 46048, Note_on_c, 15, 58, 0
22, 46080, Note_on_c, 15, 56, 45
22, 46464, Note_on_c, 15, 56, 0
22, 46464, Note_on_c, 15, 58, 45
22, 46800, Note_on_c, 15, 58, 0
22, 46848, Note_on_c, 15, 51, 45
22, 47232, Note_on_c, 15, 51, 0
22, 47232, Note_on_c, 15, 55, 45
22, 47616, Note_on_c, 15, 55, 0
22, 47616, Note_on_c, 15, 53, 45
22, 48000, Note_on_c, 15, 53, 0
22, 48000, Note_on_c, 15, 56, 45
22, 48384, Note_on_c, 15, 56, 0
22, 48384, Note_on_c, 15, 55, 45
22, 48720, Note_on_c, 15, 55, 0
22, 48768, Note_on_c, 15, 61, 75
22, 48768, Note_on_c, 15, 63, 75
22, 48768, Note_on_c, 15, 67, 75
22, 48960, Note_on_c, 15, 61, 0
22, 48960, Note_on_c, 15, 63, 0
22, 48960, Note_on_c, 15, 67, 0
22, 48960, Note_on_c, 15, 60, 75
22, 48960, Note_on_c, 15, 68, 75
22, 49056, Note_on_c, 15, 60, 0
22, 49056, Note_on_c, 15, 68, 0
22, 49056, Note_on_c, 15, 58, 75
22, 49056, Note_on_c, 15, 67, 75
22, 49056, Note_on_c, 15, 70, 75
22, 49150, Note_on_c, 15, 58, 0
22, 49150, Note_on_c, 15, 67, 0
22, 49150, Note_on_c, 15, 70, 0
22, 49152, Note_on_c, 15, 56, 45
22, 49246, Note_on_c, 15, 56, 0
22, 49536, Note_on_c, 15, 56, 45
22, 49536, Note_on_c, 15, 58, 45
22, 49536, Note_on_c, 15, 62, 45
22, 49630, Note_on_c, 15, 56, 0
22, 49630, Note_on_c, 15, 58, 0
22, 49630, Note_on_c, 15, 62, 0
22, 49920, Note_on_c, 15, 55, 45
22, 50014, Note_on_c, 15, 55, 0
22, 50112, Note_on_c, 15, 55, 45
22, 50206, Note_on_c, 15, 55, 0
22, 50304, Note_on_c, 15, 50, 45
22, 50398, Note_on_c, 15, 50, 0
22, 50496, Note_on_c, 15, 50, 45
22, 50590, Note_on_c, 15, 50, 0
22, 50688, Note_on_c, 15, 51, 45
22, 50782, Note_on_c, 15, 51, 0
22, 50880, Note_on_c, 15, 53, 45
22, 50880, Note_on_c, 15, 62, 45
22, 50974, Note_on_c, 15, 53, 0
22, 50974, Note_on_c, 15, 62, 0
22, 51072, Note_on_c, 15, 55, 45
22, 51072, Note_on_c, 15, 63, 45
22, 51166, Note_on_c, 15, 55, 0
22, 51166, Note_on_c, 15, 63, 0
22, 51264, Note_on_c, 15, 51, 45
22, 51264, Note_on_c, 15, 61, 45
22, 51358, Note_on_c, 15, 51, 0
22, 51358, Note_on_c, 15, 61, 0
22, 51456, Note_on_c, 15, 44, 45
22, 51456, Note_on_c, 15, 51, 45
22, 51792, Note_on_c, 15, 51, 0
22, 51840, Note_on_c, 15, 53, 45
22, 51840, Note_on_c, 15, 56, 45
22, 52176, Note_on_c, 15, 44, 0
22, 52176, Note_on_c, 15, 53, 0
22, 52176, Note_on_c, 15, 56, 0
22, 52224, Note_on_c, 15, 46, 45
22, 52224, Note_on_c, 15, 51, 45
22, 52224, Note_on_c, 15, 55, 45
22, 52384, Note_on_c, 15, 46, 0
22, 52416, Note_on_c, 15, 46, 45
22, 52576, Note_on_c, 15, 46, 0
22, 52608, Note_on_c, 15, 46, 45
22, 52768, Note_on_c, 15, 46, 0
22, 52800, Note_on_c, 15, 46, 45
22, 52944, Note_on_c, 15, 51, 0
22, 52944, Note_on_c, 15, 55, 0
22, 52960, Note_on_c, 15, 46, 0
22, 52992, Note_on_c, 15, 46, 45
22, 52992, Note_on_c, 15, 51, 45
22, 52992, Note_on_c, 15, 53, 45
22, 53152, Note_on_c, 15, 46, 0
22, 53184, Note_on_c, 15, 46, 45
22, 53328, Note_on_c, 15, 51, 0
22, 53344, Note_on_c, 15, 46, 0
22, 53376, Note_on_c, 15, 46, 45
22, 53376, Note_on_c, 15, 50, 45
22, 53536, Note_on_c, 15, 46, 0
22, 53568, Note_on_c, 15, 46, 45
22, 53712, Note_on_c, 15, 50, 0
22, 53712, Note_on_c, 15, 53, 0
22, 53728, Note_on_c, 15, 46, 0
22, 53760, Note_on_c, 15, 51, 92
22, 53920, Note_on_c, 15, 51, 0
22, 54288, Note_on_c, 15, 51, 92
22, 54334, Note_on_c, 15, 51, 0
22, 54336, Note_on_c, 15, 55, 92
22, 54336, Note_on_c, 15, 63, 92
22, 54478, Note_on_c, 15, 55, 0
22, 54478, Note_on_c, 15, 63, 0
22, 54480, Note_on_c, 15, 51, 92
22, 54526, Note_on_c, 15, 51, 0
22, 54528, Note_on_c, 15, 58, 92
22, 54528, Note_on_c, 15, 63, 92
22, 54688, Note_on_c, 15, 58, 0
22, 54688, Note_on_c, 15, 63, 0
22, 54720, Note_on_c, 15, 62, 92
22, 54880, Note_on_c, 15, 62, 0
22, 55056, Note_on_c, 15, 58, 92
22, 55102, Note_on_c, 15, 58, 0
22, 55104, Note_on_c, 15, 55, 92
22, 55104, Note_on_c, 15, 61, 92
22, 55104, Note_on_c, 15, 63, 92
22, 55246, Note_on_c, 15, 55, 0
22, 55248, Note_on_c, 15, 51, 92
22, 55264, Note_on_c, 15, 61, 0
22, 55264, Note_on_c, 15, 63, 0
22, 55294, Note_on_c, 15, 51, 0
22, 55296, Note_on_c, 15, 48, 92
22, 55296, Note_on_c, 15, 61, 92
22, 55456, Note_on_c, 15, 48, 0
22, 55456, Note_on_c, 15, 61, 0
22, 55488, Note_on_c, 15, 60, 92
22, 55648, Note_on_c, 15, 60, 0
22, 55824, Note_on_c, 15, 53, 92
22, 55870, Note_on_c, 15, 53, 0
22, 55872, Note_on_c, 15, 56, 92
22, 55872, Note_on_c, 15, 65, 92
22, 56014, Note_on_c, 15, 56, 0
22, 56014, Note_on_c, 15, 65, 0
22, 56016, Note_on_c, 15, 53, 92
22, 56062, Note_on_c, 15, 53, 0
22, 56064, Note_on_c, 15, 60, 92
22, 56064, Note_on_c, 15, 65, 92
22, 56224, Note_on_c, 15, 60, 0
22, 56224, Note_on_c, 15, 65, 0
22, 56256, Note_on_c, 15, 64, 92
22, 56416, Note_on_c, 15, 64, 0
22, 56592, Note_on_c, 15, 60, 92
22, 56638, Note_on_c, 15, 60, 0
22, 56640, Note_on_c, 15, 57, 92
22, 56640, Note_on_c, 15, 63, 92
22, 56640, Note_on_c, 15, 65, 92
22, 56782, Note_on_c, 15, 57, 0
22, 56784, Note_on_c, 15, 53, 92
22, 56800, Note_on_c, 15, 63, 0
22, 56800, Note_on_c, 15, 65, 0
22, 56830, Note_on_c, 15, 53, 0
22, 56832, Note_on_c, 15, 50, 92
22, 56832, Note_on_c, 15, 57, 92
22, 56832, Note_on_c, 15, 63, 92
22, 56992, Note_on_c, 15, 50, 0
22, 56992, Note_on_c, 15, 63, 0
22, 57024, Note_on_c, 15, 62, 92
22, 57184, Note_on_c, 15, 57, 0
22, 57184, Note_on_c, 15, 62, 0
22, 57360, Note_on_c, 15, 55, 92
22, 57406, Note_on_c, 15, 55, 0
22, 57408, Note_on_c, 15, 58, 92
22, 57408, Note_on_c, 15, 67, 92
22, 57550, Note_on_c, 15, 58, 0
22, 57550, Note_on_c, 15, 67, 0
22, 57552, Note_on_c, 15, 55, 92
22, 57598, Note_on_c, 15, 55, 0
22, 57600, Note_on_c, 15, 62, 92
22, 57600, Note_on_c, 15, 67, 92
22, 57600, Note_on_c, 15, 69, 92
22, 57760, Note_on_c, 15, 62, 0
22, 57760, Note_on_c, 15, 67, 0
22, 57792, Note_on_c, 15, 66, 92
22, 57936, Note_on_c, 15, 69, 0
22, 57952, Note_on_c, 15, 66, 0
22, 58128, Note_on_c, 15, 62, 92
22, 58174, Note_on_c, 15, 62, 0
22, 58176, Note_on_c, 15, 59, 92
22, 58176, Note_on_c, 15, 65, 92
22, 58176, Note_on_c, 15, 67, 92
22, 58318, Note_on_c, 15, 59, 0
22, 58320, Note_on_c, 15, 55, 92
22, 58336, Note_on_c, 15, 65, 0
22, 58336, Note_on_c, 15, 67, 0
22, 58366, Note_on_c, 15, 55, 0
22, 58368, Note_on_c, 15, 60, 92
22, 58368, Note_on_c, 15, 65, 92
22, 58368, Note_on_c, 15, 74, 92
22, 58464, Note_on_c, 15, 60, 0
22, 58464, Note_on_c, 15, 65, 0
22, 58464, Note_on_c, 15, 74, 0
22, 58464, Note_on_c, 15, 55, 92
22, 58464, Note_on_c, 15, 60, 92
22, 58464, Note_on_c, 15, 64, 92
22, 58558, Note_on_c, 15, 55, 0
22, 58558, Note_on_c, 15, 64, 0
22, 58560, Note_on_c, 15, 55, 92
22, 58560, Note_on_c, 15, 63, 92
22, 58592, Note_on_c, 15, 55, 0
22, 58656, Note_on_c, 15, 55, 92
22, 58688, Note_on_c, 15, 55, 0
22, 58688, Note_on_c, 15, 60, 0
22, 58720, Note_on_c, 15, 63, 0
22, 58752, Note_on_c, 15, 55, 92
22, 58848, Note_on_c, 15, 55, 0
22, 58848, Note_on_c, 15, 51, 92
22, 58848, Note_on_c, 15, 60, 92
22, 58942, Note_on_c, 15, 51, 0
22, 58944, Note_on_c, 15, 51, 92
22, 58976, Note_on_c, 15, 51, 0
22, 59040, Note_on_c, 15, 51, 92
22, 59072, Note_on_c, 15, 51, 0
22, 59104, Note_on_c, 15, 60, 0
22, 59136, Note_on_c, 15, 50, 92
22, 59136, Note_on_c, 15, 53, 92
22, 59136, Note_on_c, 15, 55, 92
22, 59136, Note_on_c, 15, 60, 92
22, 59184, Note_on_c, 15, 50, 0
22, 59184, Note_on_c, 15, 53, 0
22, 59184, Note_on_c, 15, 55, 0
22, 59184, Note_on_c, 15, 52, 92
22, 59232, Note_on_c, 15, 52, 0
22, 59232, Note_on_c, 15, 53, 92
22, 59280, Note_on_c, 15, 53, 0
22, 59280, Note_on_c, 15, 52, 92
22, 59296, Note_on_c, 15, 60, 0
22, 59326, Note_on_c, 15, 52, 0
22, 59328, Note_on_c, 15, 53, 92
22, 59328, Note_on_c, 15, 59, 92
22, 59360, Note_on_c, 15, 53, 0
22, 59424, Note_on_c, 15, 53, 92
22, 59456, Note_on_c, 15, 53, 0
22, 59488, Note_on_c, 15, 59, 0
22, 59520, Note_on_c, 15, 53, 92
22, 59520, Note_on_c, 15, 55, 92
22, 59520, Note_on_c, 15, 60, 92
22, 59616, Note_on_c, 15, 53, 0
22, 59616, Note_on_c, 15, 52, 92
22, 59680, Note_on_c, 15, 55, 0
22, 59680, Note_on_c, 15, 60, 0
22, 59710, Note_on_c, 15, 52, 0
22, 59712, Note_on_c, 15, 48, 92
22, 59712, Note_on_c, 15, 58, 92
22, 59744, Note_on_c, 15, 48, 0
22, 59744, Note_on_c, 15, 58, 0
22, 59808, Note_on_c, 15, 48, 92
22, 59840, Note_on_c, 15, 48, 0
22, 59904, Note_on_c, 15, 48, 92
22, 59904, Note_on_c, 15, 51, 92
22, 59904, Note_on_c, 15, 53, 92
22, 59904, Note_on_c, 15, 58, 92
22, 59952, Note_on_c, 15, 48, 0
22, 59952, Note_on_c, 15, 50, 92
22, 60000, Note_on_c, 15, 50, 0
22, 60000, Note_on_c, 15, 51, 92
22, 60048, Note_on_c, 15, 51, 0
22, 60048, Note_on_c, 15, 50, 92
22, 60064, Note_on_c, 15, 51, 0
22, 60064, Note_on_c, 15, 53, 0
22, 60064, Note_on_c, 15, 58, 0
22, 60094, Note_on_c, 15, 50, 0
22, 60096, Note_on_c, 15, 51, 92
22, 60096, Note_on_c, 15, 57, 92
22, 60128, Note_on_c, 15, 51, 0
22, 60192, Note_on_c, 15, 51, 92
22, 60224, Note_on_c, 15, 51, 0
22, 60256, Note_on_c, 15, 57, 0
22, 60288, Note_on_c, 15, 51, 92
22, 60288, Note_on_c, 15, 53, 92
22, 60288, Note_on_c, 15, 58, 92
22, 60384, Note_on_c, 15, 51, 0
22, 60384, Note_on_c, 15, 50, 92
22, 60448, Note_on_c, 15, 53, 0
22, 60448, Note_on_c, 15, 58, 0
22, 60478, Note_on_c, 15, 50, 0
22, 60480, Note_on_c, 15, 46, 92
22, 60480, Note_on_c, 15, 56, 92
22, 60512, Note_on_c, 15, 46, 0
22, 60576, Note_on_c, 15, 46, 92
22, 60608, Note_on_c, 15, 46, 0
22, 60608, Note_on_c, 15, 56, 0
22, 60672, Note_on_c, 15, 53, 92
22, 60672, Note_on_c, 15, 55, 92
22, 60768, Note_on_c, 15, 55, 92
22, 60800, Note_on_c, 15, 55, 0
22, 60832, Note_on_c, 15, 53, 0
22, 60832, Note_on_c, 15, 55, 0
22, 60864, Note_on_c, 15, 51, 92
22, 60864, Note_on_c, 15, 60, 92
22, 60864, Note_on_c, 15, 63, 92
22, 60896, Note_on_c, 15, 51, 0
22, 60960, Note_on_c, 15, 56, 92
22, 60992, Note_on_c, 15, 56, 0
22, 61024, Note_on_c, 15, 60, 0
22, 61024, Note_on_c, 15, 63, 0
22, 61056, Note_on_c, 15, 63, 92
22, 61056, Note_on_c, 15, 65, 92
22, 61152, Note_on_c, 15, 53, 92
22, 61184, Note_on_c, 15, 53, 0
22, 61216, Note_on_c, 15, 63, 0
22, 61216, Note_on_c, 15, 65, 0
22, 61248, Note_on_c, 15, 50, 92
22, 61248, Note_on_c, 15, 59, 92
22, 61248, Note_on_c, 15, 62, 92
22, 61280, Note_on_c, 15, 50, 0
22, 61344, Note_on_c, 15, 55, 92
22, 61376, Note_on_c, 15, 55, 0
22, 61408, Note_on_c, 15, 59, 0
22, 61408, Note_on_c, 15, 62, 0
22, 61440, Note_on_c, 15, 62, 92
22, 61440, Note_on_c, 15, 63, 92
22, 61536, Note_on_c, 15, 55, 92
22, 61568, Note_on_c, 15, 55, 0
22, 61600, Note_on_c, 15, 62, 0
22, 61600, Note_on_c, 15, 63, 0
22, 61632, Note_on_c, 15, 51, 92
22, 61632, Note_on_c, 15, 60, 92
22, 61632, Note_on_c, 15, 63, 92
22, 61664, Note_on_c, 15, 51, 0
22, 61728, Note_on_c, 15, 56, 92
22, 61760, Note_on_c, 15, 56, 0
22, 61792, Note_on_c, 15, 60, 0
22, 61792, Note_on_c, 15, 63, 0
22, 61824, Note_on_c, 15, 63, 92
22, 61824, Note_on_c, 15, 65, 92
22, 61920, Note_on_c, 15, 56, 92
22, 61952, Note_on_c, 15, 56, 0
22, 61984, Note_on_c, 15, 63, 0
22, 61984, Note_on_c, 15, 65, 0
22, 62016, Note_on_c, 15, 53, 92
22, 62016, Note_on_c, 15, 62, 92
22, 62016, Note_on_c, 15, 65, 92
22, 62048, Note_on_c, 15, 53, 0
22, 62112, Note_on_c, 15, 58, 92
22, 62144, Note_on_c, 15, 58, 0
22, 62176, Note_on_c, 15, 62, 0
22, 62176, Note_on_c, 15, 65, 0
22, 62208, Note_on_c, 15, 65, 92
22, 62208, Note_on_c, 15, 67, 92
22, 62304, Note_on_c, 15, 58, 92
22, 62336, Note_on_c, 15, 58, 0
22, 62368, Note_on_c, 15, 65, 0
22, 62368, Note_on_c, 15, 67, 0
22, 62400, Note_on_c, 15, 55, 92
22, 62400, Note_on_c, 15, 63, 92
22, 62400, Note_on_c, 15, 67, 92
22, 62432, Note_on_c, 15, 55, 0
22, 62496, Note_on_c, 15, 60, 92
22, 62528, Note_on_c, 15, 60, 0
22, 62560, Note_on_c, 15, 63, 0
22, 62560, Note_on_c, 15, 67, 0
22, 62592, Note_on_c, 15, 67, 92
22, 62592, Note_on_c, 15, 68, 92
22, 62688, Note_on_c, 15, 60, 92
22, 62720, Note_on_c, 15, 60, 0
22, 62752, Note_on_c, 15, 67, 0
22, 62752, Note_on_c, 15, 68, 0
22, 62784, Note_on_c, 15, 56, 92
22, 62784, Note_on_c, 15, 65, 92
22, 62784, Note_on_c, 15, 68, 92
22, 62816, Note_on_c, 15, 56, 0
22, 62880, Note_on_c, 15, 61, 92
22, 62912, Note_on_c, 15, 61, 0
22, 62912, Note_on_c, 15, 65, 0
22, 62912, Note_on_c, 15, 68, 0
22, 62976, Note_on_c, 15, 65, 92
22, 62976, Note_on_c, 15, 67, 92
22, 63072, Note_on_c, 15, 61, 92
22, 63104, Note_on_c, 15, 61, 0
22, 63136, Note_on_c, 15, 65, 0
22, 63136, Note_on_c, 15, 67, 0
22, 63168, Note_on_c, 15, 58, 92
22, 63168, Note_on_c, 15, 67, 92
22, 63168, Note_on_c, 15, 70, 92
22, 63200, Note_on_c, 15, 58, 0
22, 63264, Note_on_c, 15, 63, 92
22, 63296, Note_on_c, 15, 63, 0
22, 63296, Note_on_c, 15, 67, 0
22, 63296, Note_on_c, 15, 70, 0
22, 63360, Note_on_c, 15, 44, 92
22, 63408, Note_on_c, 15, 44, 0
22, 63408, Note_on_c, 15, 46, 92
22, 63456, Note_on_c, 15, 46, 0
22, 63456, Note_on_c, 15, 48, 92
22, 63504, Note_on_c, 15, 48, 0
22, 63504, Note_on_c, 15, 44, 92
22, 63550, Note_on_c, 15, 44, 0
22, 63552, Note_on_c, 15, 56, 92
22, 63584, Note_on_c, 15, 56, 0
22, 63648, Note_on_c, 15, 56, 92
22, 63680, Note_on_c, 15, 56, 0
22, 63744, Note_on_c, 15, 43, 92
22, 63744, Note_on_c, 15, 48, 92
22, 63744, Note_on_c, 15, 51, 92
22, 63792, Note_on_c, 15, 43, 0
22, 63792, Note_on_c, 15, 47, 92
22, 63840, Note_on_c, 15, 47, 0
22, 63888, Note_on_c, 15, 43, 92
22, 63934, Note_on_c, 15, 43, 0
22, 63936, Note_on_c, 15, 55, 92
22, 63968, Note_on_c, 15, 55, 0
22, 64032, Note_on_c, 15, 55, 92
22, 64064, Note_on_c, 15, 48, 0
22, 64064, Note_on_c, 15, 51, 0
22, 64064, Note_on_c, 15, 55, 0
22, 64128, Note_on_c, 15, 42, 92
22, 64128, Note_on_c, 15, 45, 92
22, 64128, Note_on_c, 15, 51, 92
22, 64176, Note_on_c, 15, 42, 0
22, 64176, Note_on_c, 15, 43, 92
22, 64224, Note_on_c, 15, 43, 0
22, 64272, Note_on_c, 15, 42, 92
22, 64318, Note_on_c, 15, 42, 0
22, 64320, Note_on_c, 15, 54, 92
22, 64352, Note_on_c, 15, 54, 0
22, 64416, Note_on_c, 15, 54, 92
22, 64448, Note_on_c, 15, 45, 0
22, 64448, Note_on_c, 15, 51, 0
22, 64448, Note_on_c, 15, 54, 0
22, 64512, Note_on_c, 15, 55, 92
22, 64608, Note_on_c, 15, 60, 92
22, 64608, Note_on_c, 15, 64, 92
22, 64608, Note_on_c, 15, 66, 92
22, 64702, Note_on_c, 15, 55, 0
22, 64702, Note_on_c, 15, 60, 0
22, 64702, Note_on_c, 15, 64, 0
22, 64702, Note_on_c, 15, 66, 0
22, 64704, Note_on_c, 15, 55, 92
22, 64704, Note_on_c, 15, 67, 92
22, 64798, Note_on_c, 15, 67, 0
22, 64800, Note_on_c, 15, 60, 92
22, 64800, Note_on_c, 15, 64, 92
22, 64800, Note_on_c, 15, 66, 92
22, 64894, Note_on_c, 15, 60, 0
22, 64894, Note_on_c, 15, 64, 0
22, 64894, Note_on_c, 15, 66, 0
22, 64896, Note_on_c, 15, 59, 92
22, 64990, Note_on_c, 15, 55, 0
22, 64990, Note_on_c, 15, 59, 0
22, 64992, Note_on_c, 15, 53, 92
22, 65024, Note_on_c, 15, 53, 0
22, 65088, Note_on_c, 15, 51, 92
22, 65120, Note_on_c, 15, 51, 0
22, 65184, Note_on_c, 15, 50, 92
22, 65216, Note_on_c, 15, 50, 0
22, 65280, Note_on_c, 15, 48, 92
22, 65440, Note_on_c, 15, 48, 0
22, 65568, Note_on_c, 15, 48, 60
22, 65662, Note_on_c, 15, 48, 0
22, 65664, Note_on_c, 15, 48, 60
22, 65824, Note_on_c, 15, 48, 0
22, 65952, Note_on_c, 15, 48, 60
22, 66046, Note_on_c, 15, 48, 0
22, 66048, Note_on_c, 15, 48, 60
22, 66208, Note_on_c, 15, 48, 0
22, 66336, Note_on_c, 15, 48, 60
22, 66430, Note_on_c, 15, 48, 0
22, 66432, Note_on_c, 15, 47, 60
22, 66592, Note_on_c, 15, 47, 0
22, 66720, Note_on_c, 15, 47, 60
22, 66814, Note_on_c, 15, 47, 0
22, 66816, Note_on_c, 15, 46, 60
22, 66976, Note_on_c, 15, 46, 0
22, 67104, Note_on_c, 15, 46, 60
22, 67198, Note_on_c, 15, 46, 0
22, 67200, Note_on_c, 15, 46, 60
22, 67360, Note_on_c, 15, 46, 0
22, 67488, Note_on_c, 15, 46, 60
22, 67582, Note_on_c, 15, 46, 0
22, 67584, Note_on_c, 15, 45, 60
22, 67744, Note_on_c, 15, 45, 0
22, 67872, Note_on_c, 15, 45, 60
22, 67966, Note_on_c, 15, 45, 0
22, 67968, Note_on_c, 15, 43, 60
22, 68128, Note_on_c, 15, 43, 0
22, 68256, Note_on_c, 15, 43, 60
22, 68350, Note_on_c, 15, 43, 0
22, 68352, Note_on_c, 15, 42, 60
22, 68512, Note_on_c, 15, 42, 0
22, 68544, Note_on_c, 15, 43, 60
22, 68880, Note_on_c, 15, 43, 0
22, 68928, Note_on_c, 15, 43, 60
22, 69088, Note_on_c, 15, 43, 0
22, 69120, Note_on_c, 15, 44, 60
22, 69214, Note_on_c, 15, 44, 0
22, 69504, Note_on_c, 15, 42, 60
22, 69504, Note_on_c, 15, 51, 60
22, 69598, Note_on_c, 15, 42, 0
22, 69598, Note_on_c, 15, 51, 0
22, 69888, Note_on_c, 15, 43, 60
22, 69888, Note_on_c, 15, 48, 60
22, 69888, Note_on_c, 15, 51, 60
22, 69982, Note_on_c, 15, 43, 0
22, 69982, Note_on_c, 15, 48, 0
22, 69982, Note_on_c, 15, 51, 0
22, 70272, Note_on_c, 15, 43, 60
22, 70272, Note_on_c, 15, 47, 60
22, 70272, Note_on_c, 15, 50, 60
22, 70366, Note_on_c, 15, 43, 0
22, 70366, Note_on_c, 15, 47, 0
22, 70366, Note_on_c, 15, 50, 0
22, 70656, Note_on_c, 15, 48, 60
22, 70656, Note_on_c, 15, 55, 60
22, 70816, Note_on_c, 15, 48, 0
22, 70816, Note_on_c, 15, 55, 0
22, 70944, Note_on_c, 15, 48, 30
22, 70944, Note_on_c, 15, 55, 30
22, 71038, Note_on_c, 15, 48, 0
22, 71038, Note_on_c, 15, 55, 0
22, 71040, Note_on_c, 15, 48, 30
22, 71040, Note_on_c, 15, 55, 30
22, 71200, Note_on_c, 15, 48, 0
22, 71200, Note_on_c, 15, 55, 0
22, 71328, Note_on_c, 15, 48, 30
22, 71328, Note_on_c, 15, 55, 30
22, 71422, Note_on_c, 15, 48, 0
22, 71422, Note_on_c, 15, 55, 0
22, 71424, Note_on_c, 15, 48, 30
22, 71424, Note_on_c, 15, 55, 30
22, 71760, Note_on_c, 15, 48, 0
22, 71760, Note_on_c, 15, 55, 0
22, 71760, End_track
23, 0, Start_track
23, 0, MIDI_port, 0
23, 0, Title_t, "Bassi"
23, 0, Program_c, 15, 43
23, 0, Control_c, 15, 7, 127
23, 0, Control_c, 15, 10, 64
23, 0, Note_on_c, 15, 48, 60
23, 160, Note_on_c, 15, 48, 0
23, 288, Note_on_c, 15, 48, 60
23, 382, Note_on_c, 15, 48, 0
23, 384, Note_on_c, 15, 48, 60
23, 544, Note_on_c, 15, 48, 0
23, 672, Note_on_c, 15, 48, 60
23, 766, Note_on_c, 15, 48, 0
23, 768, Note_on_c, 15, 48, 60
23, 928, Note_on_c, 15, 48, 0
23, 1056, Note_on_c, 15, 48, 60
23, 1150, Note_on_c, 15, 48, 0
23, 1152, Note_on_c, 15, 47, 60
23, 1312, Note_on_c, 15, 47, 0
23, 1440, Note_on_c, 15, 47, 60
23, 1534, Note_on_c, 15, 47, 0
23, 1536, Note_on_c, 15, 46, 60
23, 1696, Note_on_c, 15, 46, 0
23, 1824, Note_on_c, 15, 46, 60
23, 1918, Note_on_c, 15, 46, 0
23, 1920, Note_on_c, 15, 46, 60
23, 2080, Note_on_c, 15, 46, 0
23, 2208, Note_on_c, 15, 46, 60
23, 2302, Note_on_c, 15, 46, 0
23, 2304, Note_on_c, 15, 45, 60
23, 2464, Note_on_c, 15, 45, 0
23, 2592, Note_on_c, 15, 57, 60
23, 2686, Note_on_c, 15, 57, 0
23, 2688, Note_on_c, 15, 55, 60
23, 2848, Note_on_c, 15, 55, 0
23, 2976, Note_on_c, 15, 55, 60
23, 3070, Note_on_c, 15, 55, 0
23, 3072, Note_on_c, 15, 54, 60
23, 3232, Note_on_c, 15, 54, 0
23, 3264, Note_on_c, 15, 55, 60
23, 3600, Note_on_c, 15, 55, 0
23, 3648, Note_on_c, 15, 43, 60
23, 3808, Note_on_c, 15, 43, 0
23, 3840, Note_on_c, 15, 48, 60
23, 4000, Note_on_c, 15, 48, 0
23, 6144, Note_on_c, 15, 48, 92
23, 6304, Note_on_c, 15, 48, 0
23, 6672, Note_on_c, 15, 48, 92
23, 6718, Note_on_c, 15, 48, 0
23, 6720, Note_on_c, 15, 51, 92
23, 6862, Note_on_c, 15, 51, 0
23, 6864, Note_on_c, 15, 48, 92
23, 6910, Note_on_c, 15, 48, 0
23, 6912, Note_on_c, 15, 55, 92
23, 7072, Note_on_c, 15, 55, 0
23, 7440, Note_on_c, 15, 55, 92
23, 7486, Note_on_c, 15, 55, 0
23, 7488, Note_on_c, 15, 52, 92
23, 7630, Note_on_c, 15, 52, 0
23, 7632, Note_on_c, 15, 48, 92
23, 7678, Note_on_c, 15, 48, 0
23, 7680, Note_on_c, 15, 53, 92
23, 7840, Note_on_c, 15, 53, 0
23, 8208, Note_on_c, 15, 53, 92
23, 8254, Note_on_c, 15, 53, 0
23, 8256, Note_on_c, 15, 50, 92
23, 8398, Note_on_c, 15, 50, 0
23, 8400, Note_on_c, 15, 46, 92
23, 8446, Note_on_c, 15, 46, 0
23, 8448, Note_on_c, 15, 51, 92
23, 8496, Note_on_c, 15, 51, 0
23, 8496, Note_on_c, 15, 53, 92
23, 8544, Note_on_c, 15, 53, 0
23, 8544, Note_on_c, 15, 55, 92
23, 8592, Note_on_c, 15, 55, 0
23, 8592, Note_on_c, 15, 51, 92
23, 8638, Note_on_c, 15, 51, 0
23, 8640, Note_on_c, 15, 56, 92
23, 8734, Note_on_c, 15, 56, 0
23, 8736, Note_on_c, 15, 56, 92
23, 8830, Note_on_c, 15, 56, 0
23, 8832, Note_on_c, 15, 50, 92
23, 8880, Note_on_c, 15, 50, 0
23, 8880, Note_on_c, 15, 51, 92
23, 8928, Note_on_c, 15, 51, 0
23, 8928, Note_on_c, 15, 53, 92
23, 8976, Note_on_c, 15, 53, 0
23, 8976, Note_on_c, 15, 50, 92
23, 9022, Note_on_c, 15, 50, 0
23, 9024, Note_on_c, 15, 55, 92
23, 9118, Note_on_c, 15, 55, 0
23, 9120, Note_on_c, 15, 55, 92
23, 9214, Note_on_c, 15, 55, 0
23, 9216, Note_on_c, 15, 51, 92
23, 9376, Note_on_c, 15, 51, 0
23, 9408, Note_on_c, 15, 48, 92
23, 9568, Note_on_c, 15, 48, 0
23, 9600, Note_on_c, 15, 46, 92
23, 9742, Note_on_c, 15, 46, 0
23, 9744, Note_on_c, 15, 43, 92
23, 9790, Note_on_c, 15, 43, 0
23, 9792, Note_on_c, 15, 46, 92
23, 9934, Note_on_c, 15, 46, 0
23, 9936, Note_on_c, 15, 43, 92
23, 9982, Note_on_c, 15, 43, 0
23, 9984, Note_on_c, 15, 50, 92
23, 10144, Note_on_c, 15, 50, 0
23, 10512, Note_on_c, 15, 50, 92
23, 10558, Note_on_c, 15, 50, 0
23, 10560, Note_on_c, 15, 47, 92
23, 10702, Note_on_c, 15, 47, 0
23, 10704, Note_on_c, 15, 43, 92
23, 10750, Note_on_c, 15, 43, 0
23, 10752, Note_on_c, 15, 48, 92
23, 10912, Note_on_c, 15, 48, 0
23, 11280, Note_on_c, 15, 48, 92
23, 11326, Note_on_c, 15, 48, 0
23, 11328, Note_on_c, 15, 45, 92
23, 11470, Note_on_c, 15, 45, 0
23, 11472, Note_on_c, 15, 41, 92
23, 11518, Note_on_c, 15, 41, 0
23, 11520, Note_on_c, 15, 46, 92
23, 11568, Note_on_c, 15, 46, 0
23, 11568, Note_on_c, 15, 48, 92
23, 11616, Note_on_c, 15, 48, 0
23, 11616, Note_on_c, 15, 50, 92
23, 11664, Note_on_c, 15, 50, 0
23, 11664, Note_on_c, 15, 46, 92
23, 11710, Note_on_c, 15, 46, 0
23, 11712, Note_on_c, 15, 51, 92
23, 11806, Note_on_c, 15, 51, 0
23, 11808, Note_on_c, 15, 51, 92
23, 11902, Note_on_c, 15, 51, 0
23, 11904, Note_on_c, 15, 45, 92
23, 11952, Note_on_c, 15, 45, 0
23, 11952, Note_on_c, 15, 46, 92
23, 12000, Note_on_c, 15, 46, 0
23, 12000, Note_on_c, 15, 48, 92
23, 12048, Note_on_c, 15, 48, 0
23, 12048, Note_on_c, 15, 45, 92
23, 12094, Note_on_c, 15, 45, 0
23, 12096, Note_on_c, 15, 50, 92
23, 12190, Note_on_c, 15, 50, 0
23, 12192, Note_on_c, 15, 50, 92
23, 12286, Note_on_c, 15, 50, 0
23, 12288, Note_on_c, 15, 43, 92
23, 13008, Note_on_c, 15, 43, 0
23, 13056, Note_on_c, 15, 60, 92
23, 13152, Note_on_c, 15, 60, 0
23, 13152, Note_on_c, 15, 55, 92
23, 13246, Note_on_c, 15, 55, 0
23, 13248, Note_on_c, 15, 55, 92
23, 13280, Note_on_c, 15, 55, 0
23, 13344, Note_on_c, 15, 55, 92
23, 13376, Note_on_c, 15, 55, 0
23, 13440, Note_on_c, 15, 55, 92
23, 13536, Note_on_c, 15, 55, 0
23, 13536, Note_on_c, 15, 51, 92
23, 13630, Note_on_c, 15, 51, 0
23, 13632, Note_on_c, 15, 51, 92
23, 13664, Note_on_c, 15, 51, 0
23, 13728, Note_on_c, 15, 51, 92
23, 13760, Note_on_c, 15, 51, 0
23, 13824, Note_on_c, 15, 50, 92
23, 13872, Note_on_c, 15, 50, 0
23, 13872, Note_on_c, 15, 52, 92
23, 13920, Note_on_c, 15, 52, 0
23, 13920, Note_on_c, 15, 53, 92
23, 13968, Note_on_c, 15, 53, 0
23, 13968, Note_on_c, 15, 52, 92
23, 14014, Note_on_c, 15, 52, 0
23, 14016, Note_on_c, 15, 53, 92
23, 14110, Note_on_c, 15, 53, 0
23, 14112, Note_on_c, 15, 53, 92
23, 14206, Note_on_c, 15, 53, 0
23, 14208, Note_on_c, 15, 53, 92
23, 14304, Note_on_c, 15, 53, 0
23, 14304, Note_on_c, 15, 52, 92
23, 14398, Note_on_c, 15, 52, 0
23, 14400, Note_on_c, 15, 48, 92
23, 14494, Note_on_c, 15, 48, 0
23, 14496, Note_on_c, 15, 48, 92
23, 14590, Note_on_c, 15, 48, 0
23, 14592, Note_on_c, 15, 48, 92
23, 14640, Note_on_c, 15, 48, 0
23, 14640, Note_on_c, 15, 50, 92
23, 14688, Note_on_c, 15, 50, 0
23, 14688, Note_on_c, 15, 51, 92
23, 14736, Note_on_c, 15, 51, 0
23, 14736, Note_on_c, 15, 50, 92
23, 14782, Note_on_c, 15, 50, 0
23, 14784, Note_on_c, 15, 51, 92
23, 14878, Note_on_c, 15, 51, 0
23, 14880, Note_on_c, 15, 51, 92
23, 14974, Note_on_c, 15, 51, 0
23, 14976, Note_on_c, 15, 51, 92
23, 15072, Note_on_c, 15, 51, 0
23, 15072, Note_on_c, 15, 50, 92
23, 15166, Note_on_c, 15, 50, 0
23, 15168, Note_on_c, 15, 46, 92
23, 15262, Note_on_c, 15, 46, 0
23, 15264, Note_on_c, 15, 46, 92
23, 15358, Note_on_c, 15, 46, 0
23, 15456, Note_on_c, 15, 55, 92
23, 15550, Note_on_c, 15, 55, 0
23, 15552, Note_on_c, 15, 51, 92
23, 15646, Note_on_c, 15, 51, 0
23, 15648, Note_on_c, 15, 56, 92
23, 15742, Note_on_c, 15, 56, 0
23, 15840, Note_on_c, 15, 53, 92
23, 15934, Note_on_c, 15, 53, 0
23, 15936, Note_on_c, 15, 50, 92
23, 16030, Note_on_c, 15, 50, 0
23, 16032, Note_on_c, 15, 55, 92
23, 16126, Note_on_c, 15, 55, 0
23, 16224, Note_on_c, 15, 55, 92
23, 16318, Note_on_c, 15, 55, 0
23, 16320, Note_on_c, 15, 51, 92
23, 16414, Note_on_c, 15, 51, 0
23, 16416, Note_on_c, 15, 56, 92
23, 16510, Note_on_c, 15, 56, 0
23, 16608, Note_on_c, 15, 56, 92
23, 16702, Note_on_c, 15, 56, 0
23, 16704, Note_on_c, 15, 53, 92
23, 16798, Note_on_c, 15, 53, 0
23, 16800, Note_on_c, 15, 58, 92
23, 16894, Note_on_c, 15, 58, 0
23, 16992, Note_on_c, 15, 58, 92
23, 17086, Note_on_c, 15, 58, 0
23, 17088, Note_on_c, 15, 55, 92
23, 17182, Note_on_c, 15, 55, 0
23, 17184, Note_on_c, 15, 60, 92
23, 17278, Note_on_c, 15, 60, 0
23, 17376, Note_on_c, 15, 60, 92
23, 17470, Note_on_c, 15, 60, 0
23, 17472, Note_on_c, 15, 57, 92
23, 17566, Note_on_c, 15, 57, 0
23, 17568, Note_on_c, 15, 62, 92
23, 17662, Note_on_c, 15, 62, 0
23, 17664, Note_on_c, 15, 55, 92
23, 17712, Note_on_c, 15, 55, 0
23, 17712, Note_on_c, 15, 57, 92
23, 17760, Note_on_c, 15, 57, 0
23, 17760, Note_on_c, 15, 58, 92
23, 17808, Note_on_c, 15, 58, 0
23, 17808, Note_on_c, 15, 55, 92
23, 17854, Note_on_c, 15, 55, 0
23, 17856, Note_on_c, 15, 67, 92
23, 17888, Note_on_c, 15, 67, 0
23, 17952, Note_on_c, 15, 67, 92
23, 17984, Note_on_c, 15, 67, 0
23, 18048, Note_on_c, 15, 46, 92
23, 18096, Note_on_c, 15, 46, 0
23, 18096, Note_on_c, 15, 48, 92
23, 18144, Note_on_c, 15, 48, 0
23, 18144, Note_on_c, 15, 50, 92
23, 18192, Note_on_c, 15, 50, 0
23, 18192, Note_on_c, 15, 46, 92
23, 18238, Note_on_c, 15, 46, 0
23, 18240, Note_on_c, 15, 58, 92
23, 18272, Note_on_c, 15, 58, 0
23, 18336, Note_on_c, 15, 58, 92
23, 18368, Note_on_c, 15, 58, 0
23, 18432, Note_on_c, 15, 51, 92
23, 18480, Note_on_c, 15, 51, 0
23, 18480, Note_on_c, 15, 53, 92
23, 18528, Note_on_c, 15, 53, 0
23, 18528, Note_on_c, 15, 55, 92
23, 18576, Note_on_c, 15, 55, 0
23, 18576, Note_on_c, 15, 51, 92
23, 18622, Note_on_c, 15, 51, 0
23, 18624, Note_on_c, 15, 63, 92
23, 18656, Note_on_c, 15, 63, 0
23, 18720, Note_on_c, 15, 63, 92
23, 18752, Note_on_c, 15, 63, 0
23, 18816, Note_on_c, 15, 49, 92
23, 18864, Note_on_c, 15, 49, 0
23, 18864, Note_on_c, 15, 50, 92
23, 18912, Note_on_c, 15, 50, 0
23, 18912, Note_on_c, 15, 52, 92
23, 18960, Note_on_c, 15, 52, 0
23, 18960, Note_on_c, 15, 49, 92
23, 19006, Note_on_c, 15, 49, 0
23, 19008, Note_on_c, 15, 61, 92
23, 19040, Note_on_c, 15, 61, 0
23, 19104, Note_on_c, 15, 61, 92
23, 19136, Note_on_c, 15, 61, 0
23, 19200, Note_on_c, 15, 62, 92
23, 19360, Note_on_c, 15, 62, 0
23, 19392, Note_on_c, 15, 50, 92
23, 19648, Note_on_c, 15, 50, 0
23, 19680, Note_on_c, 15, 48, 92
23, 19774, Note_on_c, 15, 48, 0
23, 19776, Note_on_c, 15, 46, 92
23, 19870, Note_on_c, 15, 46, 0
23, 19872, Note_on_c, 15, 45, 92
23, 19966, Note_on_c, 15, 45, 0
23, 19968, Note_on_c, 15, 43, 92
23, 20128, Note_on_c, 15, 43, 0
23, 20256, Note_on_c, 15, 55, 60
23, 20350, Note_on_c, 15, 55, 0
23, 20352, Note_on_c, 15, 55, 60
23, 20512, Note_on_c, 15, 55, 0
23, 20640, Note_on_c, 15, 55, 60
23, 20734, Note_on_c, 15, 55, 0
23, 20736, Note_on_c, 15, 55, 60
23, 20896, Note_on_c, 15, 55, 0
23, 21024, Note_on_c, 15, 55, 60
23, 21118, Note_on_c, 15, 55, 0
23, 21120, Note_on_c, 15, 54, 60
23, 21280, Note_on_c, 15, 54, 0
23, 21408, Note_on_c, 15, 54, 60
23, 21502, Note_on_c, 15, 54, 0
23, 21504, Note_on_c, 15, 53, 60
23, 21664, Note_on_c, 15, 53, 0
23, 21792, Note_on_c, 15, 53, 60
23, 21886, Note_on_c, 15, 53, 0
23, 21888, Note_on_c, 15, 53, 60
23, 22048, Note_on_c, 15, 53, 0
23, 22176, Note_on_c, 15, 53, 60
23, 22270, Note_on_c, 15, 53, 0
23, 22272, Note_on_c, 15, 52, 60
23, 22432, Note_on_c, 15, 52, 0
23, 22560, Note_on_c, 15, 52, 60
23, 22654, Note_on_c, 15, 52, 0
23, 22656, Note_on_c, 15, 50, 60
23, 22816, Note_on_c, 15, 50, 0
23, 22944, Note_on_c, 15, 50, 60
23, 23038, Note_on_c, 15, 50, 0
23, 23040, Note_on_c, 15, 49, 60
23, 23200, Note_on_c, 15, 49, 0
23, 23232, Note_on_c, 15, 50, 60
23, 23568, Note_on_c, 15, 50, 0
23, 23616, Note_on_c, 15, 50, 60
23, 23776, Note_on_c, 15, 50, 0
23, 23808, Note_on_c, 15, 43, 60
23, 23968, Note_on_c, 15, 43, 0
23, 53760, Note_on_c, 15, 51, 92
23, 53920, Note_on_c, 15, 51, 0
23, 54288, Note_on_c, 15, 51, 92
23, 54334, Note_on_c, 15, 51, 0
23, 54336, Note_on_c, 15, 55, 92
23, 54478, Note_on_c, 15, 55, 0
23, 54480, Note_on_c, 15, 51, 92
23, 54526, Note_on_c, 15, 51, 0
23, 54528, Note_on_c, 15, 58, 92
23, 54688, Note_on_c, 15, 58, 0
23, 55056, Note_on_c, 15, 58, 92
23, 55102, Note_on_c, 15, 58, 0
23, 55104, Note_on_c, 15, 55, 92
23, 55246, Note_on_c, 15, 55, 0
23, 55248, Note_on_c, 15, 51, 92
23, 55294, Note_on_c, 15, 51, 0
23, 55296, Note_on_c, 15, 48, 92
23, 55456, Note_on_c, 15, 48, 0
23, 55824, Note_on_c, 15, 53, 92
23, 55870, Note_on_c, 15, 53, 0
23, 55872, Note_on_c, 15, 56, 92
23, 56014, Note_on_c, 15, 56, 0
23, 56016, Note_on_c, 15, 53, 92
23, 56062, Note_on_c, 15, 53, 0
23, 56064, Note_on_c, 15, 60, 92
23, 56224, Note_on_c, 15, 60, 0
23, 56592, Note_on_c, 15, 60, 92
23, 56638, Note_on_c, 15, 60, 0
23, 56640, Note_on_c, 15, 57, 92
23, 56782, Note_on_c, 15, 57, 0
23, 56784, Note_on_c, 15, 53, 92
23, 56830, Note_on_c, 15, 53, 0
23, 56832, Note_on_c, 15, 50, 92
23, 56992, Note_on_c, 15, 50, 0
23, 57360, Note_on_c, 15, 55, 92
23, 57406, Note_on_c, 15, 55, 0
23, 57408, Note_on_c, 15, 58, 92
23, 57550, Note_on_c, 15, 58, 0
23, 57552, Note_on_c, 15, 55, 92
23, 57598, Note_on_c, 15, 55, 0
23, 57600, Note_on_c, 15, 62, 92
23, 57760, Note_on_c, 15, 62, 0
23, 58128, Note_on_c, 15, 62, 92
23, 58174, Note_on_c, 15, 62, 0
23, 58176, Note_on_c, 15, 59, 92
23, 58318, Note_on_c, 15, 59, 0
23, 58320, Note_on_c, 15, 55, 92
23, 58366, Note_on_c, 15, 55, 0
23, 58368, Note_on_c, 15, 60, 92
23, 58464, Note_on_c, 15, 60, 0
23, 58464, Note_on_c, 15, 55, 92
23, 58558, Note_on_c, 15, 55, 0
23, 58560, Note_on_c, 15, 55, 92
23, 58592, Note_on_c, 15, 55, 0
23, 58656, Note_on_c, 15, 55, 92
23, 58688, Note_on_c, 15, 55, 0
23, 58752, Note_on_c, 15, 55, 92
23, 58848, Note_on_c, 15, 55, 0
23, 58848, Note_on_c, 15, 51, 92
23, 58942, Note_on_c, 15, 51, 0
23, 58944, Note_on_c, 15, 51, 92
23, 58976, Note_on_c, 15, 51, 0
23, 59040, Note_on_c, 15, 51, 92
23, 59072, Note_on_c, 15, 51, 0
23, 59136, Note_on_c, 15, 50, 92
23, 59184, Note_on_c, 15, 50, 0
23, 59184, Note_on_c, 15, 52, 92
23, 59232, Note_on_c, 15, 52, 0
23, 59232, Note_on_c, 15, 53, 92
23, 59280, Note_on_c, 15, 53, 0
23, 59280, Note_on_c, 15, 52, 92
23, 59326, Note_on_c, 15, 52, 0
23, 59328, Note_on_c, 15, 53, 92
23, 59360, Note_on_c, 15, 53, 0
23, 59424, Note_on_c, 15, 53, 92
23, 59456, Note_on_c, 15, 53, 0
23, 59520, Note_on_c, 15, 53, 92
23, 59616, Note_on_c, 15, 53, 0
23, 59616, Note_on_c, 15, 52, 92
23, 59710, Note_on_c, 15, 52, 0
23, 59712, Note_on_c, 15, 48, 92
23, 59744, Note_on_c, 15, 48, 0
23, 59808, Note_on_c, 15, 48, 92
23, 59840, Note_on_c, 15, 48, 0
23, 59904, Note_on_c, 15, 48, 92
23, 59952, Note_on_c, 15, 48, 0
23, 59952, Note_on_c, 15, 50, 92
23, 60000, Note_on_c, 15, 50, 0
23, 60000, Note_on_c, 15, 51, 92
23, 60048, Note_on_c, 15, 51, 0
23, 60048, Note_on_c, 15, 50, 92
23, 60094, Note_on_c, 15, 50, 0
23, 60096, Note_on_c, 15, 51, 92
23, 60128, Note_on_c, 15, 51, 0
23, 60192, Note_on_c, 15, 51, 92
23, 60224, Note_on_c, 15, 51, 0
23, 60288, Note_on_c, 15, 51, 92
23, 60384, Note_on_c, 15, 51, 0
23, 60384, Note_on_c, 15, 50, 92
23, 60478, Note_on_c, 15, 50, 0
23, 60480, Note_on_c, 15, 46, 92
23, 60512, Note_on_c, 15, 46, 0
23, 60576, Note_on_c, 15, 46, 92
23, 60608, Note_on_c, 15, 46, 0
23, 60768, Note_on_c, 15, 55, 92
23, 60800, Note_on_c, 15, 55, 0
23, 60864, Note_on_c, 15, 51, 92
23, 60896, Note_on_c, 15, 51, 0
23, 60960, Note_on_c, 15, 56, 92
23, 60992, Note_on_c, 15, 56, 0
23, 61152, Note_on_c, 15, 53, 92
23, 61184, Note_on_c, 15, 53, 0
23, 61248, Note_on_c, 15, 50, 92
23, 61280, Note_on_c, 15, 50, 0
23, 61344, Note_on_c, 15, 55, 92
23, 61376, Note_on_c, 15, 55, 0
23, 61536, Note_on_c, 15, 55, 92
23, 61568, Note_on_c, 15, 55, 0
23, 61632, Note_on_c, 15, 51, 92
23, 61664, Note_on_c, 15, 51, 0
23, 61728, Note_on_c, 15, 56, 92
23, 61760, Note_on_c, 15, 56, 0
23, 61920, Note_on_c, 15, 56, 92
23, 61952, Note_on_c, 15, 56, 0
23, 62016, Note_on_c, 15, 53, 92
23, 62048, Note_on_c, 15, 53, 0
23, 62112, Note_on_c, 15, 58, 92
23, 62144, Note_on_c, 15, 58, 0
23, 62304, Note_on_c, 15, 58, 92
23, 62336, Note_on_c, 15, 58, 0
23, 62400, Note_on_c, 15, 55, 92
23, 62432, Note_on_c, 15, 55, 0
23, 62496, Note_on_c, 15, 60, 92
23, 62528, Note_on_c, 15, 60, 0
23, 62688, Note_on_c, 15, 60, 92
23, 62720, Note_on_c, 15, 60, 0
23, 62784, Note_on_c, 15, 56, 92
23, 62816, Note_on_c, 15, 56, 0
23, 62880, Note_on_c, 15, 61, 92
23, 62912, Note_on_c, 15, 61, 0
23, 63072, Note_on_c, 15, 61, 92
23, 63104, Note_on_c, 15, 61, 0
23, 63168, Note_on_c, 15, 58, 92
23, 63200, Note_on_c, 15, 58, 0
23, 63264, Note_on_c, 15, 63, 92
23, 63296, Note_on_c, 15, 63, 0
23, 63360, Note_on_c, 15, 44, 92
23, 63408, Note_on_c, 15, 44, 0
23, 63408, Note_on_c, 15, 46, 92
23, 63456, Note_on_c, 15, 46, 0
23, 63456, Note_on_c, 15, 48, 92
23, 63504, Note_on_c, 15, 48, 0
23, 63504, Note_on_c, 15, 44, 92
23, 63550, Note_on_c, 15, 44, 0
23, 63552, Note_on_c, 15, 56, 92
23, 63584, Note_on_c, 15, 56, 0
23, 63648, Note_on_c, 15, 56, 92
23, 63680, Note_on_c, 15, 56, 0
23, 63744, Note_on_c, 15, 43, 92
23, 63792, Note_on_c, 15, 43, 0
23, 63792, Note_on_c, 15, 47, 92
23, 63840, Note_on_c, 15, 47, 0
23, 63840, Note_on_c, 15, 48, 92
23, 63888, Note_on_c, 15, 48, 0
23, 63888, Note_on_c, 15, 43, 92
23, 63934, Note_on_c, 15, 43, 0
23, 63936, Note_on_c, 15, 55, 92
23, 63968, Note_on_c, 15, 55, 0
23, 64032, Note_on_c, 15, 55, 92
23, 64064, Note_on_c, 15, 55, 0
23, 64128, Note_on_c, 15, 42, 92
23, 64176, Note_on_c, 15, 42, 0
23, 64176, Note_on_c, 15, 43, 92
23, 64224, Note_on_c, 15, 43, 0
23, 64224, Note_on_c, 15, 45, 92
23, 64272, Note_on_c, 15, 45, 0
23, 64272, Note_on_c, 15, 42, 92
23, 64318, Note_on_c, 15, 42, 0
23, 64320, Note_on_c, 15, 54, 92
23, 64352, Note_on_c, 15, 54, 0
23, 64416, Note_on_c, 15, 54, 92
23, 64448, Note_on_c, 15, 54, 0
23, 64512, Note_on_c, 15, 55, 92
23, 64672, Note_on_c, 15, 55, 0
23, 64704, Note_on_c, 15, 55, 92
23, 64960, Note_on_c, 15, 55, 0
23, 64992, Note_on_c, 15, 53, 92
23, 65024, Note_on_c, 15, 53, 0
23, 65088, Note_on_c, 15, 51, 92
23, 65120, Note_on_c, 15, 51, 0
23, 65184, Note_on_c, 15, 50, 92
23, 65216, Note_on_c, 15, 50, 0
23, 65280, Note_on_c, 15, 48, 92
23, 65440, Note_on_c, 15, 48, 0
23, 65568, Note_on_c, 15, 48, 60
23, 65662, Note_on_c, 15, 48, 0
23, 65664, Note_on_c, 15, 48, 60
23, 65824, Note_on_c, 15, 48, 0
23, 65952, Note_on_c, 15, 48, 60
23, 66046, Note_on_c, 15, 48, 0
23, 66048, Note_on_c, 15, 48, 60
23, 66208, Note_on_c, 15, 48, 0
23, 66336, Note_on_c, 15, 48, 60
23, 66430, Note_on_c, 15, 48, 0
23, 66432, Note_on_c, 15, 47, 60
23, 66592, Note_on_c, 15, 47, 0
23, 66720, Note_on_c, 15, 47, 60
23, 66814, Note_on_c, 15, 47, 0
23, 66816, Note_on_c, 15, 46, 60
23, 66976, Note_on_c, 15, 46, 0
23, 67104, Note_on_c, 15, 46, 60
23, 67198, Note_on_c, 15, 46, 0
23, 67200, Note_on_c, 15, 46, 60
23, 67360, Note_on_c, 15, 46, 0
23, 67488, Note_on_c, 15, 46, 60
23, 67582, Note_on_c, 15, 46, 0
23, 67584, Note_on_c, 15, 45, 60
23, 67744, Note_on_c, 15, 45, 0
23, 67872, Note_on_c, 15, 45, 60
23, 67966, Note_on_c, 15, 45, 0
23, 67968, Note_on_c, 15, 43, 60
23, 68128, Note_on_c, 15, 43, 0
23, 68256, Note_on_c, 15, 43, 60
23, 68350, Note_on_c, 15, 43, 0
23, 68352, Note_on_c, 15, 42, 60
23, 68512, Note_on_c, 15, 42, 0
23, 68544, Note_on_c, 15, 43, 60
23, 68880, Note_on_c, 15, 43, 0
23, 68928, Note_on_c, 15, 43, 60
23, 69088, Note_on_c, 15, 43, 0
23, 69120, Note_on_c, 15, 44, 60
23, 69214, Note_on_c, 15, 44, 0
23, 69504, Note_on_c, 15, 42, 60
23, 69598, Note_on_c, 15, 42, 0
23, 69888, Note_on_c, 15, 43, 60
23, 69982, Note_on_c, 15, 43, 0
23, 70272, Note_on_c, 15, 43, 60
23, 70366, Note_on_c, 15, 43, 0
23, 70656, Note_on_c, 15, 48, 60
23, 70816, Note_on_c, 15, 48, 0
23, 70944, Note_on_c, 15, 48, 30
23, 71038, Note_on_c, 15, 48, 0
23, 71040, Note_on_c, 15, 48, 30
23, 71200, Note_on_c, 15, 48, 0
23, 71328, Note_on_c, 15, 48, 30
23, 71422, Note_on_c, 15, 48, 0
23, 71424, Note_on_c, 15, 48, 30
23, 71760, Note_on_c, 15, 48, 0
23, 71760, End_track
24, 0, Start_track
24, 0, MIDI_port, 0
24, 0, Title_t, "sequenced by:"
24, 0, End_track
25, 0, Start_track
25, 0, MIDI_port, 0
25, 0, Title_t, "S. Radtchenko"
25, 0, End_track
26, 0, Start_track
26, 0, MIDI_port, 0
26, 0, Title_t, "rslava@geocities.com"
26, 0, End_track
0, 0, End_of_file