0, 0, Header, 1, 12, 120
1, 0, Start_track
1, 0, Title_t, "untitled"
1, 0, Sequencer_specific, 03, 00, 00, 41
1, 0, Time_signature, 3, 2, 24, 8
1, 0, Key_signature, 0, "major"
1, 0, Tempo, 413793
1, 42132, Tempo, 413793
1, 42146, Tempo, 415512
1, 42157, Tempo, 417246
1, 42167, Tempo, 418994
1, 42178, Tempo, 420757
1, 42192, Tempo, 422535
1, 42203, Tempo, 424328
1, 42214, Tempo, 426136
1, 42225, Tempo, 427960
1, 42236, Tempo, 429799
1, 42249, Tempo, 431655
1, 42260, Tempo, 433526
1, 42271, Tempo, 435414
1, 42282, Tempo, 437318
1, 42293, Tempo, 439239
1, 42307, Tempo, 441176
1, 42317, Tempo, 443131
1, 42328, Tempo, 445104
1, 42339, Tempo, 447094
1, 42350, Tempo, 449102
1, 42364, Tempo, 451128
1, 42375, Tempo, 453172
1, 42386, Tempo, 455235
1, 42397, Tempo, 457317
1, 42410, Tempo, 459418
1, 42421, Tempo, 461538
1, 42432, Tempo, 463679
1, 42443, Tempo, 465839
1, 42454, Tempo, 468019
1, 42467, Tempo, 470219
1, 42478, Tempo, 472441
1, 42489, Tempo, 474684
1, 42500, Tempo, 476948
1, 42511, Tempo, 479233
1, 42525, Tempo, 481541
1, 42536, Tempo, 483871
1, 42547, Tempo, 486224
1, 42557, Tempo, 488599
1, 42568, Tempo, 490998
1, 42582, Tempo, 493421
1, 42593, Tempo, 495868
1, 42604, Tempo, 498339
1, 42615, Tempo, 500835
1, 42626, Tempo, 503356
1, 42639, Tempo, 505902
1, 42650, Tempo, 508475
1, 42661, Tempo, 511073
1, 42672, Tempo, 513699
1, 42686, Tempo, 516351
1, 42697, Tempo, 519031
1, 42707, Tempo, 521739
1, 42718, Tempo, 524476
1, 42729, Tempo, 527241
1, 42743, Tempo, 530035
1, 42754, Tempo, 532860
1, 42765, Tempo, 535714
1, 42776, Tempo, 538600
1, 42787, Tempo, 541516
1, 42800, Tempo, 544465
1, 42811, Tempo, 547445
1, 42822, Tempo, 550459
1, 42833, Tempo, 553506
1, 42844, Tempo, 556586
1, 42857, Tempo, 559701
1, 42868, Tempo, 562852
1, 42879, Tempo, 566038
1, 42890, Tempo, 569260
1, 42901, Tempo, 572519
1, 42901, End_track
2, 0, Start_track
2, 0, Title_t, "Flauti"
2, 0, Control_c, 0, 0, 0
2, 0, Control_c, 0, 7, 85
2, 0, Control_c, 0, 10, 80
2, 1, Program_c, 0, 73
2, 3240, Note_on_c, 0, 86, 127
2, 3600, Note_on_c, 0, 86, 0
2, 3600, Note_on_c, 0, 86, 127
2, 3960, Note_on_c, 0, 86, 0
2, 3960, Note_on_c, 0, 86, 127
2, 4320, Note_on_c, 0, 86, 0
2, 4320, Note_on_c, 0, 86, 127
2, 4680, Note_on_c, 0, 86, 0
2, 4680, Note_on_c, 0, 86, 127
2, 4680, Note_on_c, 0, 86, 127
2, 4800, Note_on_c, 0, 86, 0
2, 4800, Note_on_c, 0, 86, 127
2, 4880, Note_on_c, 0, 86, 0
2, 4920, Note_on_c, 0, 86, 0
2, 4920, Note_on_c, 0, 86, 127
2, 5040, Note_on_c, 0, 86, 0
2, 5040, Note_on_c, 0, 84, 127
2, 5120, Note_on_c, 0, 84, 0
2, 5160, Note_on_c, 0, 84, 127
2, 5240, Note_on_c, 0, 84, 0
2, 5280, Note_on_c, 0, 84, 127
2, 5360, Note_on_c, 0, 84, 0
2, 5400, Note_on_c, 0, 81, 127
2, 5480, Note_on_c, 0, 81, 0
2, 5520, Note_on_c, 0, 81, 127
2, 5600, Note_on_c, 0, 81, 0
2, 5640, Note_on_c, 0, 81, 127
2, 5720, Note_on_c, 0, 81, 0
2, 5760, Note_on_c, 0, 79, 127
2, 5840, Note_on_c, 0, 79, 0
2, 9000, Note_on_c, 0, 86, 127
2, 9360, Note_on_c, 0, 86, 0
2, 9360, Note_on_c, 0, 86, 127
2, 9720, Note_on_c, 0, 86, 0
2, 9720, Note_on_c, 0, 86, 127
2, 10080, Note_on_c, 0, 86, 0
2, 10080, Note_on_c, 0, 86, 127
2, 10440, Note_on_c, 0, 86, 0
2, 10440, Note_on_c, 0, 86, 127
2, 10440, Note_on_c, 0, 86, 127
2, 10560, Note_on_c, 0, 86, 0
2, 10560, Note_on_c, 0, 86, 127
2, 10640, Note_on_c, 0, 86, 0
2, 10680, Note_on_c, 0, 86, 0
2, 10680, Note_on_c, 0, 86, 127
2, 10800, Note_on_c, 0, 86, 0
2, 10800, Note_on_c, 0, 84, 127
2, 10880, Note_on_c, 0, 84, 0
2, 10920, Note_on_c, 0, 84, 127
2, 11000, Note_on_c, 0, 84, 0
2, 11040, Note_on_c, 0, 84, 127
2, 11120, Note_on_c, 0, 84, 0
2, 11160, Note_on_c, 0, 81, 127
2, 11240, Note_on_c, 0, 81, 0
2, 11280, Note_on_c, 0, 81, 127
2, 11360, Note_on_c, 0, 81, 0
2, 11400, Note_on_c, 0, 81, 127
2, 11480, Note_on_c, 0, 81, 0
2, 11520, Note_on_c, 0, 79, 127
2, 11600, Note_on_c, 0, 79, 0
2, 13560, Note_on_c, 0, 79, 62
2, 13640, Note_on_c, 0, 79, 0
2, 13680, Note_on_c, 0, 81, 63
2, 13840, Note_on_c, 0, 81, 0
2, 13920, Note_on_c, 0, 83, 65
2, 14000, Note_on_c, 0, 83, 0
2, 14040, Note_on_c, 0, 84, 66
2, 14200, Note_on_c, 0, 84, 0
2, 14280, Note_on_c, 0, 87, 68
2, 14360, Note_on_c, 0, 87, 0
2, 14400, Note_on_c, 0, 86, 69
2, 14480, Note_on_c, 0, 86, 0
2, 15240, Note_on_c, 0, 91, 127
2, 15320, Note_on_c, 0, 91, 0
2, 15360, Note_on_c, 0, 91, 127
2, 15440, Note_on_c, 0, 91, 0
2, 15480, Note_on_c, 0, 91, 127
2, 15640, Note_on_c, 0, 91, 0
2, 15720, Note_on_c, 0, 88, 127
2, 15760, Note_on_c, 0, 88, 0
2, 15780, Note_on_c, 0, 84, 127
2, 15820, Note_on_c, 0, 84, 0
2, 15840, Note_on_c, 0, 79, 127
2, 16000, Note_on_c, 0, 79, 0
2, 16080, Note_on_c, 0, 78, 127
2, 16160, Note_on_c, 0, 78, 0
2, 16200, Note_on_c, 0, 77, 127
2, 16280, Note_on_c, 0, 77, 0
2, 16320, Note_on_c, 0, 76, 127
2, 16400, Note_on_c, 0, 76, 0
2, 16440, Note_on_c, 0, 74, 127
2, 16520, Note_on_c, 0, 74, 0
2, 16560, Note_on_c, 0, 72, 127
2, 16720, Note_on_c, 0, 72, 0
2, 16800, Note_on_c, 0, 74, 127
2, 16840, Note_on_c, 0, 74, 0
2, 16860, Note_on_c, 0, 72, 127
2, 16880, Note_on_c, 0, 72, 0
2, 16890, Note_on_c, 0, 74, 127
2, 16910, Note_on_c, 0, 74, 0
2, 16920, Note_on_c, 0, 76, 127
2, 16980, Note_on_c, 0, 76, 0
2, 17040, Note_on_c, 0, 77, 127
2, 17080, Note_on_c, 0, 77, 0
2, 17160, Note_on_c, 0, 79, 127
2, 17200, Note_on_c, 0, 79, 0
2, 17280, Note_on_c, 0, 81, 127
2, 17440, Note_on_c, 0, 81, 0
2, 17520, Note_on_c, 0, 80, 127
2, 17600, Note_on_c, 0, 80, 0
2, 17640, Note_on_c, 0, 79, 127
2, 17720, Note_on_c, 0, 79, 0
2, 17760, Note_on_c, 0, 78, 127
2, 17840, Note_on_c, 0, 78, 0
2, 17880, Note_on_c, 0, 76, 127
2, 17960, Note_on_c, 0, 76, 0
2, 18000, Note_on_c, 0, 74, 127
2, 18040, Note_on_c, 0, 74, 0
2, 18120, Note_on_c, 0, 78, 127
2, 18160, Note_on_c, 0, 78, 0
2, 18240, Note_on_c, 0, 79, 127
2, 18280, Note_on_c, 0, 79, 0
2, 18300, Note_on_c, 0, 78, 127
2, 18320, Note_on_c, 0, 78, 0
2, 18330, Note_on_c, 0, 79, 127
2, 18350, Note_on_c, 0, 79, 0
2, 18360, Note_on_c, 0, 81, 127
2, 18440, Note_on_c, 0, 81, 0
2, 18480, Note_on_c, 0, 83, 127
2, 18520, Note_on_c, 0, 83, 0
2, 18600, Note_on_c, 0, 84, 127
2, 18640, Note_on_c, 0, 84, 0
2, 18720, Note_on_c, 0, 98, 127
2, 18880, Note_on_c, 0, 98, 0
2, 18960, Note_on_c, 0, 97, 127
2, 19040, Note_on_c, 0, 97, 0
2, 19080, Note_on_c, 0, 96, 127
2, 19160, Note_on_c, 0, 96, 0
2, 19200, Note_on_c, 0, 95, 127
2, 19280, Note_on_c, 0, 95, 0
2, 19320, Note_on_c, 0, 93, 127
2, 19400, Note_on_c, 0, 93, 0
2, 19440, Note_on_c, 0, 91, 127
2, 19600, Note_on_c, 0, 91, 0
2, 19680, Note_on_c, 0, 93, 127
2, 19720, Note_on_c, 0, 93, 0
2, 19740, Note_on_c, 0, 91, 127
2, 19760, Note_on_c, 0, 91, 0
2, 19770, Note_on_c, 0, 93, 127
2, 19790, Note_on_c, 0, 93, 0
2, 19800, Note_on_c, 0, 95, 127
2, 19880, Note_on_c, 0, 95, 0
2, 19920, Note_on_c, 0, 96, 127
2, 19960, Note_on_c, 0, 96, 0
2, 20040, Note_on_c, 0, 98, 127
2, 20080, Note_on_c, 0, 98, 0
2, 20160, Note_on_c, 0, 100, 127
2, 20200, Note_on_c, 0, 100, 0
2, 20280, Note_on_c, 0, 95, 127
2, 20360, Note_on_c, 0, 95, 0
2, 20400, Note_on_c, 0, 96, 127
2, 20480, Note_on_c, 0, 96, 0
2, 20520, Note_on_c, 0, 93, 127
2, 20560, Note_on_c, 0, 93, 0
2, 20640, Note_on_c, 0, 88, 127
2, 20720, Note_on_c, 0, 88, 0
2, 20760, Note_on_c, 0, 89, 127
2, 20840, Note_on_c, 0, 89, 0
2, 20880, Note_on_c, 0, 91, 127
2, 20920, Note_on_c, 0, 91, 0
2, 20940, Note_on_c, 0, 93, 127
2, 20980, Note_on_c, 0, 93, 0
2, 21000, Note_on_c, 0, 91, 127
2, 21020, Note_on_c, 0, 91, 0
2, 21060, Note_on_c, 0, 88, 127
2, 21080, Note_on_c, 0, 88, 0
2, 21120, Note_on_c, 0, 89, 127
2, 21140, Note_on_c, 0, 89, 0
2, 21180, Note_on_c, 0, 86, 127
2, 21200, Note_on_c, 0, 86, 0
2, 21240, Note_on_c, 0, 84, 127
2, 21320, Note_on_c, 0, 84, 0
2, 23040, Note_on_c, 0, 86, 50
2, 23280, Note_on_c, 0, 86, 0
2, 23280, Note_on_c, 0, 85, 50
2, 23400, Note_on_c, 0, 85, 0
2, 23400, Note_on_c, 0, 84, 50
2, 23520, Note_on_c, 0, 84, 0
2, 23520, Note_on_c, 0, 83, 50
2, 23640, Note_on_c, 0, 83, 0
2, 23640, Note_on_c, 0, 81, 50
2, 23760, Note_on_c, 0, 81, 0
2, 23760, Note_on_c, 0, 79, 50
2, 23880, Note_on_c, 0, 79, 0
2, 24480, Note_on_c, 0, 91, 127
2, 24640, Note_on_c, 0, 91, 0
2, 24720, Note_on_c, 0, 90, 127
2, 24800, Note_on_c, 0, 90, 0
2, 24840, Note_on_c, 0, 89, 127
2, 24880, Note_on_c, 0, 89, 0
2, 24960, Note_on_c, 0, 86, 127
2, 24980, Note_on_c, 0, 86, 0
2, 25080, Note_on_c, 0, 83, 127
2, 25100, Note_on_c, 0, 83, 0
2, 25200, Note_on_c, 0, 91, 127
2, 25360, Note_on_c, 0, 91, 0
2, 25440, Note_on_c, 0, 90, 127
2, 25520, Note_on_c, 0, 90, 0
2, 25560, Note_on_c, 0, 89, 127
2, 25600, Note_on_c, 0, 89, 0
2, 25680, Note_on_c, 0, 86, 127
2, 25700, Note_on_c, 0, 86, 0
2, 25800, Note_on_c, 0, 83, 127
2, 25820, Note_on_c, 0, 83, 0
2, 25920, Note_on_c, 0, 84, 127
2, 26000, Note_on_c, 0, 84, 0
2, 26040, Note_on_c, 0, 84, 127
2, 26120, Note_on_c, 0, 84, 0
2, 26160, Note_on_c, 0, 84, 127
2, 26240, Note_on_c, 0, 84, 0
2, 26280, Note_on_c, 0, 89, 127
2, 26360, Note_on_c, 0, 89, 0
2, 26400, Note_on_c, 0, 89, 127
2, 26480, Note_on_c, 0, 89, 0
2, 26520, Note_on_c, 0, 89, 127
2, 26600, Note_on_c, 0, 89, 0
2, 26640, Note_on_c, 0, 86, 127
2, 26720, Note_on_c, 0, 86, 0
2, 26760, Note_on_c, 0, 86, 127
2, 26840, Note_on_c, 0, 86, 0
2, 26880, Note_on_c, 0, 86, 127
2, 26960, Note_on_c, 0, 86, 0
2, 27000, Note_on_c, 0, 84, 127
2, 27080, Note_on_c, 0, 84, 0
2, 27360, Note_on_c, 0, 71, 50
2, 27720, Note_on_c, 0, 71, 0
2, 27720, Note_on_c, 0, 72, 50
2, 27800, Note_on_c, 0, 72, 0
2, 28800, Note_on_c, 0, 71, 50
2, 29160, Note_on_c, 0, 71, 0
2, 29160, Note_on_c, 0, 72, 50
2, 29240, Note_on_c, 0, 72, 0
2, 30240, Note_on_c, 0, 80, 127
2, 30480, Note_on_c, 0, 80, 0
2, 30600, Note_on_c, 0, 81, 127
2, 30840, Note_on_c, 0, 81, 0
2, 30960, Note_on_c, 0, 84, 127
2, 31200, Note_on_c, 0, 84, 0
2, 31320, Note_on_c, 0, 83, 127
2, 31560, Note_on_c, 0, 83, 0
2, 31680, Note_on_c, 0, 86, 127
2, 31920, Note_on_c, 0, 86, 0
2, 32040, Note_on_c, 0, 84, 127
2, 32280, Note_on_c, 0, 84, 0
2, 32400, Note_on_c, 0, 90, 127
2, 32640, Note_on_c, 0, 90, 0
2, 32760, Note_on_c, 0, 88, 127
2, 32840, Note_on_c, 0, 88, 0
2, 34560, Note_on_c, 0, 71, 50
2, 34920, Note_on_c, 0, 71, 0
2, 34920, Note_on_c, 0, 72, 50
2, 35000, Note_on_c, 0, 72, 0
2, 36000, Note_on_c, 0, 83, 50
2, 36360, Note_on_c, 0, 83, 0
2, 36360, Note_on_c, 0, 84, 50
2, 36440, Note_on_c, 0, 84, 0
2, 36780, Note_on_c, 0, 79, 50
2, 36800, Note_on_c, 0, 79, 0
2, 36840, Note_on_c, 0, 83, 50
2, 36860, Note_on_c, 0, 83, 0
2, 36900, Note_on_c, 0, 86, 50
2, 36920, Note_on_c, 0, 86, 0
2, 36960, Note_on_c, 0, 89, 50
2, 36980, Note_on_c, 0, 89, 0
2, 37020, Note_on_c, 0, 86, 50
2, 37040, Note_on_c, 0, 86, 0
2, 37080, Note_on_c, 0, 84, 50
2, 37120, Note_on_c, 0, 84, 0
2, 37200, Note_on_c, 0, 88, 50
2, 37280, Note_on_c, 0, 88, 0
2, 37320, Note_on_c, 0, 84, 50
2, 37400, Note_on_c, 0, 84, 0
2, 40320, Note_on_c, 0, 86, 127
2, 40680, Note_on_c, 0, 86, 0
2, 40680, Note_on_c, 0, 86, 127
2, 41040, Note_on_c, 0, 86, 0
2, 41040, Note_on_c, 0, 86, 127
2, 41400, Note_on_c, 0, 86, 0
2, 41400, Note_on_c, 0, 86, 127
2, 41760, Note_on_c, 0, 86, 0
2, 41760, Note_on_c, 0, 86, 127
2, 41760, Note_on_c, 0, 86, 127
2, 41880, Note_on_c, 0, 86, 0
2, 41880, Note_on_c, 0, 86, 127
2, 41960, Note_on_c, 0, 86, 0
2, 42000, Note_on_c, 0, 86, 0
2, 42000, Note_on_c, 0, 86, 127
2, 42120, Note_on_c, 0, 86, 0
2, 42120, Note_on_c, 0, 84, 127
2, 42200, Note_on_c, 0, 84, 0
2, 42240, Note_on_c, 0, 84, 127
2, 42320, Note_on_c, 0, 84, 0
2, 42360, Note_on_c, 0, 84, 127
2, 42440, Note_on_c, 0, 84, 0
2, 42480, Note_on_c, 0, 81, 127
2, 42560, Note_on_c, 0, 81, 0
2, 42600, Note_on_c, 0, 81, 127
2, 42680, Note_on_c, 0, 81, 0
2, 42720, Note_on_c, 0, 81, 127
2, 42800, Note_on_c, 0, 81, 0
2, 42840, Note_on_c, 0, 79, 127
2, 42920, Note_on_c, 0, 79, 0
2, 42920, End_track
3, 0, Start_track
3, 0, Title_t, "Oboi"
3, 0, Control_c, 1, 0, 0
3, 0, Control_c, 1, 7, 85
3, 0, Control_c, 1, 10, 40
3, 1, Program_c, 1, 68
3, 3240, Note_on_c, 1, 62, 127
3, 3240, Note_on_c, 1, 74, 127
3, 3600, Note_on_c, 1, 74, 0
3, 3600, Note_on_c, 1, 62, 0
3, 3600, Note_on_c, 1, 74, 127
3, 3600, Note_on_c, 1, 62, 127
3, 3960, Note_on_c, 1, 62, 0
3, 3960, Note_on_c, 1, 74, 0
3, 3960, Note_on_c, 1, 62, 127
3, 3960, Note_on_c, 1, 74, 127
3, 4320, Note_on_c, 1, 74, 0
3, 4320, Note_on_c, 1, 62, 0
3, 4680, Note_on_c, 1, 79, 127
3, 4680, Note_on_c, 1, 74, 127
3, 4760, Note_on_c, 1, 74, 0
3, 4760, Note_on_c, 1, 79, 0
3, 4800, Note_on_c, 1, 79, 127
3, 4800, Note_on_c, 1, 74, 127
3, 4880, Note_on_c, 1, 74, 0
3, 4880, Note_on_c, 1, 79, 0
3, 4920, Note_on_c, 1, 79, 127
3, 4920, Note_on_c, 1, 74, 127
3, 5000, Note_on_c, 1, 74, 0
3, 5000, Note_on_c, 1, 79, 0
3, 5040, Note_on_c, 1, 76, 127
3, 5040, Note_on_c, 1, 81, 127
3, 5120, Note_on_c, 1, 81, 0
3, 5120, Note_on_c, 1, 76, 0
3, 5160, Note_on_c, 1, 81, 127
3, 5160, Note_on_c, 1, 76, 127
3, 5240, Note_on_c, 1, 76, 0
3, 5240, Note_on_c, 1, 81, 0
3, 5280, Note_on_c, 1, 81, 127
3, 5280, Note_on_c, 1, 76, 127
3, 5360, Note_on_c, 1, 76, 0
3, 5360, Note_on_c, 1, 81, 0
3, 5400, Note_on_c, 1, 78, 127
3, 5400, Note_on_c, 1, 72, 127
3, 5480, Note_on_c, 1, 72, 0
3, 5480, Note_on_c, 1, 78, 0
3, 5520, Note_on_c, 1, 78, 127
3, 5520, Note_on_c, 1, 72, 127
3, 5600, Note_on_c, 1, 72, 0
3, 5600, Note_on_c, 1, 78, 0
3, 5640, Note_on_c, 1, 78, 127
3, 5640, Note_on_c, 1, 72, 127
3, 5720, Note_on_c, 1, 72, 0
3, 5720, Note_on_c, 1, 78, 0
3, 5760, Note_on_c, 1, 79, 127
3, 5760, Note_on_c, 1, 71, 127
3, 5840, Note_on_c, 1, 71, 0
3, 5840, Note_on_c, 1, 79, 0
3, 9000, Note_on_c, 1, 62, 127
3, 9000, Note_on_c, 1, 74, 127
3, 9360, Note_on_c, 1, 74, 0
3, 9360, Note_on_c, 1, 62, 0
3, 9360, Note_on_c, 1, 62, 127
3, 9360, Note_on_c, 1, 74, 127
3, 9720, Note_on_c, 1, 74, 0
3, 9720, Note_on_c, 1, 62, 0
3, 9720, Note_on_c, 1, 62, 127
3, 9720, Note_on_c, 1, 74, 127
3, 10080, Note_on_c, 1, 74, 0
3, 10080, Note_on_c, 1, 62, 0
3, 10440, Note_on_c, 1, 74, 127
3, 10440, Note_on_c, 1, 79, 127
3, 10520, Note_on_c, 1, 79, 0
3, 10520, Note_on_c, 1, 74, 0
3, 10560, Note_on_c, 1, 79, 127
3, 10560, Note_on_c, 1, 74, 127
3, 10640, Note_on_c, 1, 74, 0
3, 10640, Note_on_c, 1, 79, 0
3, 10680, Note_on_c, 1, 79, 127
3, 10680, Note_on_c, 1, 74, 127
3, 10760, Note_on_c, 1, 74, 0
3, 10760, Note_on_c, 1, 79, 0
3, 10800, Note_on_c, 1, 81, 127
3, 10800, Note_on_c, 1, 76, 127
3, 10880, Note_on_c, 1, 76, 0
3, 10880, Note_on_c, 1, 81, 0
3, 10920, Note_on_c, 1, 76, 127
3, 10920, Note_on_c, 1, 81, 127
3, 11000, Note_on_c, 1, 81, 0
3, 11000, Note_on_c, 1, 76, 0
3, 11040, Note_on_c, 1, 81, 127
3, 11040, Note_on_c, 1, 76, 127
3, 11120, Note_on_c, 1, 76, 0
3, 11120, Note_on_c, 1, 81, 0
3, 11160, Note_on_c, 1, 78, 127
3, 11160, Note_on_c, 1, 72, 127
3, 11240, Note_on_c, 1, 72, 0
3, 11240, Note_on_c, 1, 78, 0
3, 11280, Note_on_c, 1, 72, 127
3, 11280, Note_on_c, 1, 78, 127
3, 11360, Note_on_c, 1, 78, 0
3, 11360, Note_on_c, 1, 72, 0
3, 11400, Note_on_c, 1, 72, 127
3, 11400, Note_on_c, 1, 78, 127
3, 11480, Note_on_c, 1, 78, 0
3, 11480, Note_on_c, 1, 72, 0
3, 11520, Note_on_c, 1, 79, 127
3, 11520, Note_on_c, 1, 71, 127
3, 11600, Note_on_c, 1, 71, 0
3, 11600, Note_on_c, 1, 79, 0
3, 11880, Note_on_c, 1, 74, 50
3, 11880, Note_on_c, 1, 71, 50
3, 12040, Note_on_c, 1, 71, 0
3, 12040, Note_on_c, 1, 74, 0
3, 12120, Note_on_c, 1, 70, 51
3, 12120, Note_on_c, 1, 73, 51
3, 12200, Note_on_c, 1, 73, 0
3, 12200, Note_on_c, 1, 70, 0
3, 12240, Note_on_c, 1, 72, 52
3, 12240, Note_on_c, 1, 69, 52
3, 12320, Note_on_c, 1, 69, 0
3, 12320, Note_on_c, 1, 72, 0
3, 12360, Note_on_c, 1, 66, 53
3, 12440, Note_on_c, 1, 66, 0
3, 12480, Note_on_c, 1, 71, 54
3, 12480, Note_on_c, 1, 67, 54
3, 12560, Note_on_c, 1, 67, 0
3, 12560, Note_on_c, 1, 71, 0
3, 12600, Note_on_c, 1, 77, 55
3, 12600, Note_on_c, 1, 74, 55
3, 12760, Note_on_c, 1, 74, 0
3, 12760, Note_on_c, 1, 77, 0
3, 12840, Note_on_c, 1, 72, 57
3, 12840, Note_on_c, 1, 76, 57
3, 12920, Note_on_c, 1, 76, 0
3, 12920, Note_on_c, 1, 72, 0
3, 12960, Note_on_c, 1, 75, 58
3, 12960, Note_on_c, 1, 72, 58
3, 13040, Note_on_c, 1, 72, 0
3, 13040, Note_on_c, 1, 75, 0
3, 13080, Note_on_c, 1, 69, 59
3, 13160, Note_on_c, 1, 69, 0
3, 13200, Note_on_c, 1, 71, 60
3, 13200, Note_on_c, 1, 74, 60
3, 13280, Note_on_c, 1, 74, 0
3, 13280, Note_on_c, 1, 71, 0
3, 13320, Note_on_c, 1, 77, 60
3, 13320, Note_on_c, 1, 81, 60
3, 13480, Note_on_c, 1, 81, 0
3, 13480, Note_on_c, 1, 77, 0
3, 13560, Note_on_c, 1, 79, 62
3, 13560, Note_on_c, 1, 76, 62
3, 13640, Note_on_c, 1, 76, 0
3, 13640, Note_on_c, 1, 79, 0
3, 13680, Note_on_c, 1, 78, 63
3, 13680, Note_on_c, 1, 75, 63
3, 13760, Note_on_c, 1, 75, 0
3, 13760, Note_on_c, 1, 78, 0
3, 13800, Note_on_c, 1, 74, 64
3, 13880, Note_on_c, 1, 74, 0
3, 13920, Note_on_c, 1, 77, 65
3, 14000, Note_on_c, 1, 77, 0
3, 14040, Note_on_c, 1, 74, 66
3, 14040, Note_on_c, 1, 76, 66
3, 14120, Note_on_c, 1, 76, 0
3, 14120, Note_on_c, 1, 74, 0
3, 14160, Note_on_c, 1, 72, 67
3, 14240, Note_on_c, 1, 72, 0
3, 14280, Note_on_c, 1, 78, 68
3, 14360, Note_on_c, 1, 78, 0
3, 14400, Note_on_c, 1, 79, 69
3, 14400, Note_on_c, 1, 71, 69
3, 14480, Note_on_c, 1, 71, 0
3, 14480, Note_on_c, 1, 79, 0
3, 15240, Note_on_c, 1, 79, 127
3, 15320, Note_on_c, 1, 79, 0
3, 15360, Note_on_c, 1, 79, 127
3, 15440, Note_on_c, 1, 79, 0
3, 15480, Note_on_c, 1, 79, 127
3, 15640, Note_on_c, 1, 79, 0
3, 15720, Note_on_c, 1, 76, 127
3, 15760, Note_on_c, 1, 76, 0
3, 15780, Note_on_c, 1, 72, 127
3, 15820, Note_on_c, 1, 72, 0
3, 15840, Note_on_c, 1, 79, 127
3, 15840, Note_on_c, 1, 67, 127
3, 15920, Note_on_c, 1, 67, 0
3, 15920, Note_on_c, 1, 79, 0
3, 15960, Note_on_c, 1, 79, 127
3, 16040, Note_on_c, 1, 79, 0
3, 16080, Note_on_c, 1, 78, 127
3, 16160, Note_on_c, 1, 78, 0
3, 16200, Note_on_c, 1, 77, 127
3, 16280, Note_on_c, 1, 77, 0
3, 16320, Note_on_c, 1, 76, 127
3, 16400, Note_on_c, 1, 76, 0
3, 16440, Note_on_c, 1, 74, 127
3, 16520, Note_on_c, 1, 74, 0
3, 16560, Note_on_c, 1, 72, 127
3, 16720, Note_on_c, 1, 72, 0
3, 16800, Note_on_c, 1, 74, 127
3, 16840, Note_on_c, 1, 74, 0
3, 16860, Note_on_c, 1, 72, 127
3, 16880, Note_on_c, 1, 72, 0
3, 16890, Note_on_c, 1, 74, 127
3, 16910, Note_on_c, 1, 74, 0
3, 16920, Note_on_c, 1, 76, 127
3, 16980, Note_on_c, 1, 76, 0
3, 17040, Note_on_c, 1, 77, 127
3, 17080, Note_on_c, 1, 77, 0
3, 17160, Note_on_c, 1, 79, 127
3, 17200, Note_on_c, 1, 79, 0
3, 17280, Note_on_c, 1, 81, 127
3, 17440, Note_on_c, 1, 81, 0
3, 17520, Note_on_c, 1, 80, 127
3, 17600, Note_on_c, 1, 80, 0
3, 17640, Note_on_c, 1, 79, 127
3, 17720, Note_on_c, 1, 79, 0
3, 17760, Note_on_c, 1, 78, 127
3, 17840, Note_on_c, 1, 78, 0
3, 17880, Note_on_c, 1, 76, 127
3, 17960, Note_on_c, 1, 76, 0
3, 18000, Note_on_c, 1, 74, 127
3, 18040, Note_on_c, 1, 74, 0
3, 18120, Note_on_c, 1, 78, 127
3, 18160, Note_on_c, 1, 78, 0
3, 18240, Note_on_c, 1, 79, 127
3, 18280, Note_on_c, 1, 79, 0
3, 18300, Note_on_c, 1, 78, 127
3, 18320, Note_on_c, 1, 78, 0
3, 18330, Note_on_c, 1, 79, 127
3, 18350, Note_on_c, 1, 79, 0
3, 18360, Note_on_c, 1, 81, 127
3, 18440, Note_on_c, 1, 81, 0
3, 18480, Note_on_c, 1, 83, 127
3, 18520, Note_on_c, 1, 83, 0
3, 18600, Note_on_c, 1, 84, 127
3, 18640, Note_on_c, 1, 84, 0
3, 18720, Note_on_c, 1, 86, 127
3, 18880, Note_on_c, 1, 86, 0
3, 18960, Note_on_c, 1, 85, 127
3, 19040, Note_on_c, 1, 85, 0
3, 19080, Note_on_c, 1, 84, 127
3, 19160, Note_on_c, 1, 84, 0
3, 19200, Note_on_c, 1, 83, 127
3, 19280, Note_on_c, 1, 83, 0
3, 19320, Note_on_c, 1, 81, 127
3, 19400, Note_on_c, 1, 81, 0
3, 19440, Note_on_c, 1, 79, 127
3, 19600, Note_on_c, 1, 79, 0
3, 19680, Note_on_c, 1, 81, 127
3, 19720, Note_on_c, 1, 81, 0
3, 19740, Note_on_c, 1, 79, 127
3, 19760, Note_on_c, 1, 79, 0
3, 19770, Note_on_c, 1, 81, 127
3, 19790, Note_on_c, 1, 81, 0
3, 19800, Note_on_c, 1, 83, 127
3, 19880, Note_on_c, 1, 83, 0
3, 19920, Note_on_c, 1, 84, 127
3, 19960, Note_on_c, 1, 84, 0
3, 20040, Note_on_c, 1, 77, 127
3, 20040, Note_on_c, 1, 83, 127
3, 20080, Note_on_c, 1, 83, 0
3, 20080, Note_on_c, 1, 77, 0
3, 20160, Note_on_c, 1, 79, 127
3, 20160, Note_on_c, 1, 84, 127
3, 20200, Note_on_c, 1, 84, 0
3, 20200, Note_on_c, 1, 79, 0
3, 20280, Note_on_c, 1, 77, 127
3, 20280, Note_on_c, 1, 74, 127
3, 20360, Note_on_c, 1, 74, 0
3, 20360, Note_on_c, 1, 77, 0
3, 20400, Note_on_c, 1, 76, 127
3, 20400, Note_on_c, 1, 72, 127
3, 20480, Note_on_c, 1, 72, 0
3, 20480, Note_on_c, 1, 76, 0
3, 20640, Note_on_c, 1, 67, 127
3, 20640, Note_on_c, 1, 70, 127
3, 20720, Note_on_c, 1, 70, 0
3, 20720, Note_on_c, 1, 67, 0
3, 20760, Note_on_c, 1, 69, 127
3, 20760, Note_on_c, 1, 65, 127
3, 20840, Note_on_c, 1, 65, 0
3, 20840, Note_on_c, 1, 69, 0
3, 20880, Note_on_c, 1, 79, 127
3, 20880, Note_on_c, 1, 76, 127
3, 20920, Note_on_c, 1, 76, 0
3, 20920, Note_on_c, 1, 79, 0
3, 20940, Note_on_c, 1, 81, 127
3, 20940, Note_on_c, 1, 77, 127
3, 20980, Note_on_c, 1, 77, 0
3, 20980, Note_on_c, 1, 81, 0
3, 21000, Note_on_c, 1, 79, 127
3, 21000, Note_on_c, 1, 76, 127
3, 21020, Note_on_c, 1, 76, 0
3, 21020, Note_on_c, 1, 79, 0
3, 21060, Note_on_c, 1, 76, 127
3, 21060, Note_on_c, 1, 72, 127
3, 21080, Note_on_c, 1, 72, 0
3, 21080, Note_on_c, 1, 76, 0
3, 21120, Note_on_c, 1, 77, 127
3, 21120, Note_on_c, 1, 74, 127
3, 21140, Note_on_c, 1, 74, 0
3, 21140, Note_on_c, 1, 77, 0
3, 21180, Note_on_c, 1, 74, 127
3, 21180, Note_on_c, 1, 71, 127
3, 21200, Note_on_c, 1, 71, 0
3, 21200, Note_on_c, 1, 74, 0
3, 21240, Note_on_c, 1, 72, 127
3, 21280, Note_on_c, 1, 72, 0
3, 21300, Note_on_c, 1, 71, 100
3, 21340, Note_on_c, 1, 71, 0
3, 21360, Note_on_c, 1, 72, 90
3, 21380, Note_on_c, 1, 72, 0
3, 21420, Note_on_c, 1, 74, 80
3, 21440, Note_on_c, 1, 74, 0
3, 21480, Note_on_c, 1, 76, 70
3, 21500, Note_on_c, 1, 76, 0
3, 21540, Note_on_c, 1, 77, 60
3, 21560, Note_on_c, 1, 77, 0
3, 21600, Note_on_c, 1, 79, 50
3, 21840, Note_on_c, 1, 79, 0
3, 21840, Note_on_c, 1, 78, 50
3, 21960, Note_on_c, 1, 78, 0
3, 21960, Note_on_c, 1, 77, 50
3, 22080, Note_on_c, 1, 77, 0
3, 22080, Note_on_c, 1, 76, 50
3, 22200, Note_on_c, 1, 76, 0
3, 22200, Note_on_c, 1, 75, 50
3, 22320, Note_on_c, 1, 75, 0
3, 22320, Note_on_c, 1, 84, 50
3, 22320, Note_on_c, 1, 80, 50
3, 22440, Note_on_c, 1, 80, 0
3, 22440, Note_on_c, 1, 79, 50
3, 22560, Note_on_c, 1, 84, 0
3, 22560, Note_on_c, 1, 83, 50
3, 22680, Note_on_c, 1, 83, 0
3, 22680, Note_on_c, 1, 79, 0
3, 22680, Note_on_c, 1, 82, 50
3, 22680, Note_on_c, 1, 79, 50
3, 22800, Note_on_c, 1, 79, 0
3, 22800, Note_on_c, 1, 82, 0
3, 22800, Note_on_c, 1, 81, 50
3, 22800, Note_on_c, 1, 78, 50
3, 22920, Note_on_c, 1, 78, 0
3, 22920, Note_on_c, 1, 81, 0
3, 22920, Note_on_c, 1, 75, 50
3, 22920, Note_on_c, 1, 80, 50
3, 23040, Note_on_c, 1, 80, 0
3, 23040, Note_on_c, 1, 75, 0
3, 23040, Note_on_c, 1, 74, 50
3, 23040, Note_on_c, 1, 81, 50
3, 23160, Note_on_c, 1, 81, 0
3, 23160, Note_on_c, 1, 79, 50
3, 23280, Note_on_c, 1, 74, 0
3, 23280, Note_on_c, 1, 76, 50
3, 23400, Note_on_c, 1, 76, 0
3, 23400, Note_on_c, 1, 79, 0
3, 23400, Note_on_c, 1, 78, 50
3, 23400, Note_on_c, 1, 74, 50
3, 23520, Note_on_c, 1, 78, 0
3, 23520, Note_on_c, 1, 77, 50
3, 23640, Note_on_c, 1, 77, 0
3, 23640, Note_on_c, 1, 74, 0
3, 23640, Note_on_c, 1, 71, 50
3, 23640, Note_on_c, 1, 74, 50
3, 23640, Note_on_c, 1, 71, 50
3, 23760, Note_on_c, 1, 71, 0
3, 23760, Note_on_c, 1, 74, 0
3, 23760, Note_on_c, 1, 71, 0
3, 23760, Note_on_c, 1, 79, 50
3, 23760, Note_on_c, 1, 72, 50
3, 23880, Note_on_c, 1, 72, 0
3, 23880, Note_on_c, 1, 79, 0
3, 23880, Note_on_c, 1, 71, 50
3, 23880, Note_on_c, 1, 77, 50
3, 24000, Note_on_c, 1, 77, 0
3, 24000, Note_on_c, 1, 71, 0
3, 24000, Note_on_c, 1, 76, 50
3, 24000, Note_on_c, 1, 72, 50
3, 24120, Note_on_c, 1, 72, 0
3, 24120, Note_on_c, 1, 76, 0
3, 24120, Note_on_c, 1, 74, 50
3, 24120, Note_on_c, 1, 69, 50
3, 24240, Note_on_c, 1, 69, 0
3, 24240, Note_on_c, 1, 74, 0
3, 24240, Note_on_c, 1, 77, 50
3, 24360, Note_on_c, 1, 77, 0
3, 24360, Note_on_c, 1, 71, 50
3, 24360, Note_on_c, 1, 65, 50
3, 24420, Note_on_c, 1, 65, 0
3, 24420, Note_on_c, 1, 71, 0
3, 24480, Note_on_c, 1, 79, 127
3, 24480, Note_on_c, 1, 67, 127
3, 24840, Note_on_c, 1, 67, 0
3, 24840, Note_on_c, 1, 79, 0
3, 24840, Note_on_c, 1, 79, 127
3, 24840, Note_on_c, 1, 67, 127
3, 25200, Note_on_c, 1, 67, 0
3, 25200, Note_on_c, 1, 79, 0
3, 25200, Note_on_c, 1, 67, 127
3, 25200, Note_on_c, 1, 79, 127
3, 25560, Note_on_c, 1, 79, 0
3, 25560, Note_on_c, 1, 67, 0
3, 25920, Note_on_c, 1, 79, 127
3, 25920, Note_on_c, 1, 76, 127
3, 26000, Note_on_c, 1, 76, 0
3, 26000, Note_on_c, 1, 79, 0
3, 26040, Note_on_c, 1, 79, 127
3, 26040, Note_on_c, 1, 76, 127
3, 26120, Note_on_c, 1, 76, 0
3, 26120, Note_on_c, 1, 79, 0
3, 26160, Note_on_c, 1, 79, 127
3, 26160, Note_on_c, 1, 76, 127
3, 26240, Note_on_c, 1, 76, 0
3, 26240, Note_on_c, 1, 79, 0
3, 26280, Note_on_c, 1, 74, 127
3, 26280, Note_on_c, 1, 81, 127
3, 26360, Note_on_c, 1, 81, 0
3, 26360, Note_on_c, 1, 74, 0
3, 26400, Note_on_c, 1, 81, 127
3, 26400, Note_on_c, 1, 74, 127
3, 26480, Note_on_c, 1, 74, 0
3, 26480, Note_on_c, 1, 81, 0
3, 26520, Note_on_c, 1, 81, 127
3, 26520, Note_on_c, 1, 74, 127
3, 26600, Note_on_c, 1, 74, 0
3, 26600, Note_on_c, 1, 81, 0
3, 26640, Note_on_c, 1, 77, 127
3, 26640, Note_on_c, 1, 83, 127
3, 26720, Note_on_c, 1, 83, 0
3, 26720, Note_on_c, 1, 77, 0
3, 26760, Note_on_c, 1, 77, 127
3, 26760, Note_on_c, 1, 83, 127
3, 26840, Note_on_c, 1, 83, 0
3, 26840, Note_on_c, 1, 77, 0
3, 26880, Note_on_c, 1, 83, 127
3, 26880, Note_on_c, 1, 77, 127
3, 26960, Note_on_c, 1, 77, 0
3, 26960, Note_on_c, 1, 83, 0
3, 27000, Note_on_c, 1, 76, 127
3, 27000, Note_on_c, 1, 84, 127
3, 27080, Note_on_c, 1, 84, 0
3, 27080, Note_on_c, 1, 76, 0
3, 27960, Note_on_c, 1, 81, 50
3, 28000, Note_on_c, 1, 81, 0
3, 28020, Note_on_c, 1, 79, 50
3, 28060, Note_on_c, 1, 79, 0
3, 28080, Note_on_c, 1, 78, 50
3, 28120, Note_on_c, 1, 78, 0
3, 28140, Note_on_c, 1, 79, 50
3, 28180, Note_on_c, 1, 79, 0
3, 28200, Note_on_c, 1, 77, 50
3, 28220, Note_on_c, 1, 77, 0
3, 28260, Note_on_c, 1, 74, 50
3, 28280, Note_on_c, 1, 74, 0
3, 28320, Note_on_c, 1, 76, 50
3, 28340, Note_on_c, 1, 76, 0
3, 28380, Note_on_c, 1, 72, 50
3, 28400, Note_on_c, 1, 72, 0
3, 28440, Note_on_c, 1, 76, 50
3, 28480, Note_on_c, 1, 76, 0
3, 28500, Note_on_c, 1, 74, 50
3, 28540, Note_on_c, 1, 74, 0
3, 28560, Note_on_c, 1, 72, 50
3, 28580, Note_on_c, 1, 72, 0
3, 28620, Note_on_c, 1, 71, 50
3, 28640, Note_on_c, 1, 71, 0
3, 28680, Note_on_c, 1, 69, 50
3, 28700, Note_on_c, 1, 69, 0
3, 28740, Note_on_c, 1, 67, 50
3, 28760, Note_on_c, 1, 67, 0
3, 29400, Note_on_c, 1, 81, 50
3, 29440, Note_on_c, 1, 81, 0
3, 29460, Note_on_c, 1, 79, 50
3, 29500, Note_on_c, 1, 79, 0
3, 29520, Note_on_c, 1, 78, 50
3, 29560, Note_on_c, 1, 78, 0
3, 29580, Note_on_c, 1, 79, 50
3, 29620, Note_on_c, 1, 79, 0
3, 29640, Note_on_c, 1, 77, 50
3, 29660, Note_on_c, 1, 77, 0
3, 29700, Note_on_c, 1, 74, 50
3, 29720, Note_on_c, 1, 74, 0
3, 29760, Note_on_c, 1, 71, 50
3, 29780, Note_on_c, 1, 71, 0
3, 29820, Note_on_c, 1, 74, 50
3, 29840, Note_on_c, 1, 74, 0
3, 29880, Note_on_c, 1, 72, 50
3, 29920, Note_on_c, 1, 72, 0
3, 30000, Note_on_c, 1, 76, 50
3, 30080, Note_on_c, 1, 76, 0
3, 30120, Note_on_c, 1, 72, 50
3, 30180, Note_on_c, 1, 72, 0
3, 30240, Note_on_c, 1, 71, 127
3, 30240, Note_on_c, 1, 74, 127
3, 30480, Note_on_c, 1, 74, 0
3, 30480, Note_on_c, 1, 71, 0
3, 30600, Note_on_c, 1, 76, 127
3, 30600, Note_on_c, 1, 72, 127
3, 30840, Note_on_c, 1, 72, 0
3, 30840, Note_on_c, 1, 76, 0
3, 30960, Note_on_c, 1, 78, 127
3, 30960, Note_on_c, 1, 75, 127
3, 31200, Note_on_c, 1, 75, 0
3, 31200, Note_on_c, 1, 78, 0
3, 31320, Note_on_c, 1, 76, 127
3, 31320, Note_on_c, 1, 80, 127
3, 31560, Note_on_c, 1, 80, 0
3, 31560, Note_on_c, 1, 76, 0
3, 31680, Note_on_c, 1, 77, 127
3, 31680, Note_on_c, 1, 83, 127
3, 31920, Note_on_c, 1, 83, 0
3, 31920, Note_on_c, 1, 77, 0
3, 32040, Note_on_c, 1, 76, 127
3, 32040, Note_on_c, 1, 81, 127
3, 32280, Note_on_c, 1, 81, 0
3, 32280, Note_on_c, 1, 76, 0
3, 32400, Note_on_c, 1, 84, 127
3, 32400, Note_on_c, 1, 81, 127
3, 32640, Note_on_c, 1, 81, 0
3, 32640, Note_on_c, 1, 84, 0
3, 32760, Note_on_c, 1, 80, 127
3, 32760, Note_on_c, 1, 83, 127
3, 32840, Note_on_c, 1, 83, 0
3, 32840, Note_on_c, 1, 80, 0
3, 35160, Note_on_c, 1, 81, 50
3, 35200, Note_on_c, 1, 81, 0
3, 35220, Note_on_c, 1, 79, 50
3, 35260, Note_on_c, 1, 79, 0
3, 35280, Note_on_c, 1, 78, 50
3, 35320, Note_on_c, 1, 78, 0
3, 35340, Note_on_c, 1, 79, 50
3, 35380, Note_on_c, 1, 79, 0
3, 35400, Note_on_c, 1, 77, 50
3, 35420, Note_on_c, 1, 77, 0
3, 35460, Note_on_c, 1, 74, 50
3, 35480, Note_on_c, 1, 74, 0
3, 35520, Note_on_c, 1, 76, 50
3, 35540, Note_on_c, 1, 76, 0
3, 35580, Note_on_c, 1, 72, 50
3, 35600, Note_on_c, 1, 72, 0
3, 35640, Note_on_c, 1, 76, 50
3, 35680, Note_on_c, 1, 76, 0
3, 35700, Note_on_c, 1, 74, 50
3, 35740, Note_on_c, 1, 74, 0
3, 35760, Note_on_c, 1, 72, 50
3, 35780, Note_on_c, 1, 72, 0
3, 35820, Note_on_c, 1, 71, 50
3, 35840, Note_on_c, 1, 71, 0
3, 35880, Note_on_c, 1, 69, 50
3, 35900, Note_on_c, 1, 69, 0
3, 35940, Note_on_c, 1, 67, 50
3, 35960, Note_on_c, 1, 67, 0
3, 36000, Note_on_c, 1, 71, 50
3, 36360, Note_on_c, 1, 71, 0
3, 36360, Note_on_c, 1, 72, 50
3, 36440, Note_on_c, 1, 72, 0
3, 36600, Note_on_c, 1, 81, 50
3, 36640, Note_on_c, 1, 81, 0
3, 36660, Note_on_c, 1, 79, 50
3, 36700, Note_on_c, 1, 79, 0
3, 36720, Note_on_c, 1, 78, 50
3, 36760, Note_on_c, 1, 78, 0
3, 36780, Note_on_c, 1, 79, 50
3, 36820, Note_on_c, 1, 79, 0
3, 36840, Note_on_c, 1, 77, 50
3, 36860, Note_on_c, 1, 77, 0
3, 36900, Note_on_c, 1, 74, 50
3, 36920, Note_on_c, 1, 74, 0
3, 36960, Note_on_c, 1, 71, 50
3, 36980, Note_on_c, 1, 71, 0
3, 37020, Note_on_c, 1, 74, 50
3, 37040, Note_on_c, 1, 74, 0
3, 37080, Note_on_c, 1, 72, 50
3, 37120, Note_on_c, 1, 72, 0
3, 37200, Note_on_c, 1, 76, 50
3, 37280, Note_on_c, 1, 76, 0
3, 37320, Note_on_c, 1, 72, 50
3, 37400, Note_on_c, 1, 72, 0
3, 40320, Note_on_c, 1, 74, 127
3, 40320, Note_on_c, 1, 62, 127
3, 40680, Note_on_c, 1, 62, 0
3, 40680, Note_on_c, 1, 74, 0
3, 40680, Note_on_c, 1, 74, 127
3, 40680, Note_on_c, 1, 62, 127
3, 41040, Note_on_c, 1, 62, 0
3, 41040, Note_on_c, 1, 74, 0
3, 41040, Note_on_c, 1, 62, 127
3, 41040, Note_on_c, 1, 74, 127
3, 41400, Note_on_c, 1, 74, 0
3, 41400, Note_on_c, 1, 62, 0
3, 41760, Note_on_c, 1, 79, 127
3, 41760, Note_on_c, 1, 74, 127
3, 41840, Note_on_c, 1, 74, 0
3, 41840, Note_on_c, 1, 79, 0
3, 41880, Note_on_c, 1, 79, 127
3, 41880, Note_on_c, 1, 74, 127
3, 41960, Note_on_c, 1, 74, 0
3, 41960, Note_on_c, 1, 79, 0
3, 42000, Note_on_c, 1, 74, 127
3, 42000, Note_on_c, 1, 79, 127
3, 42080, Note_on_c, 1, 79, 0
3, 42080, Note_on_c, 1, 74, 0
3, 42120, Note_on_c, 1, 76, 127
3, 42120, Note_on_c, 1, 81, 127
3, 42200, Note_on_c, 1, 81, 0
3, 42200, Note_on_c, 1, 76, 0
3, 42240, Note_on_c, 1, 76, 127
3, 42240, Note_on_c, 1, 81, 127
3, 42320, Note_on_c, 1, 81, 0
3, 42320, Note_on_c, 1, 76, 0
3, 42360, Note_on_c, 1, 76, 127
3, 42360, Note_on_c, 1, 81, 127
3, 42440, Note_on_c, 1, 81, 0
3, 42440, Note_on_c, 1, 76, 0
3, 42480, Note_on_c, 1, 78, 127
3, 42480, Note_on_c, 1, 72, 127
3, 42560, Note_on_c, 1, 72, 0
3, 42560, Note_on_c, 1, 78, 0
3, 42600, Note_on_c, 1, 72, 127
3, 42600, Note_on_c, 1, 78, 127
3, 42680, Note_on_c, 1, 78, 0
3, 42680, Note_on_c, 1, 72, 0
3, 42720, Note_on_c, 1, 72, 127
3, 42720, Note_on_c, 1, 78, 127
3, 42800, Note_on_c, 1, 78, 0
3, 42800, Note_on_c, 1, 72, 0
3, 42840, Note_on_c, 1, 79, 127
3, 42840, Note_on_c, 1, 71, 127
3, 42920, Note_on_c, 1, 71, 0
3, 42920, Note_on_c, 1, 79, 0
3, 43560, Note_on_c, 1, 72, 1
3, 43680, Note_on_c, 1, 72, 0
3, 43680, End_track
4, 0, Start_track
4, 0, Title_t, "Fagotti"
4, 0, Control_c, 2, 0, 0
4, 0, Control_c, 2, 7, 85
4, 0, Control_c, 2, 10, 70
4, 1, Program_c, 2, 70
4, 3240, Note_on_c, 2, 59, 127
4, 3400, Note_on_c, 2, 59, 0
4, 3480, Note_on_c, 2, 58, 127
4, 3560, Note_on_c, 2, 58, 0
4, 3600, Note_on_c, 2, 57, 127
4, 3640, Note_on_c, 2, 57, 0
4, 3720, Note_on_c, 2, 60, 127
4, 3740, Note_on_c, 2, 60, 0
4, 3840, Note_on_c, 2, 57, 127
4, 3860, Note_on_c, 2, 57, 0
4, 3960, Note_on_c, 2, 59, 127
4, 4120, Note_on_c, 2, 59, 0
4, 4200, Note_on_c, 2, 58, 127
4, 4280, Note_on_c, 2, 58, 0
4, 4320, Note_on_c, 2, 57, 127
4, 4360, Note_on_c, 2, 57, 0
4, 4440, Note_on_c, 2, 60, 127
4, 4460, Note_on_c, 2, 60, 0
4, 4560, Note_on_c, 2, 57, 127
4, 4580, Note_on_c, 2, 57, 0
4, 4680, Note_on_c, 2, 59, 127
4, 4760, Note_on_c, 2, 59, 0
4, 4800, Note_on_c, 2, 47, 127
4, 4880, Note_on_c, 2, 47, 0
4, 4920, Note_on_c, 2, 47, 127
4, 5000, Note_on_c, 2, 47, 0
4, 5040, Note_on_c, 2, 48, 127
4, 5120, Note_on_c, 2, 48, 0
4, 5160, Note_on_c, 2, 48, 127
4, 5240, Note_on_c, 2, 48, 0
4, 5280, Note_on_c, 2, 48, 127
4, 5360, Note_on_c, 2, 48, 0
4, 5400, Note_on_c, 2, 50, 127
4, 5480, Note_on_c, 2, 50, 0
4, 5520, Note_on_c, 2, 50, 127
4, 5600, Note_on_c, 2, 50, 0
4, 5640, Note_on_c, 2, 50, 127
4, 5720, Note_on_c, 2, 50, 0
4, 5760, Note_on_c, 2, 43, 127
4, 5840, Note_on_c, 2, 43, 0
4, 9000, Note_on_c, 2, 59, 127
4, 9160, Note_on_c, 2, 59, 0
4, 9240, Note_on_c, 2, 58, 127
4, 9320, Note_on_c, 2, 58, 0
4, 9360, Note_on_c, 2, 57, 127
4, 9400, Note_on_c, 2, 57, 0
4, 9480, Note_on_c, 2, 60, 127
4, 9500, Note_on_c, 2, 60, 0
4, 9600, Note_on_c, 2, 57, 127
4, 9620, Note_on_c, 2, 57, 0
4, 9720, Note_on_c, 2, 59, 127
4, 9880, Note_on_c, 2, 59, 0
4, 9960, Note_on_c, 2, 58, 127
4, 10040, Note_on_c, 2, 58, 0
4, 10080, Note_on_c, 2, 57, 127
4, 10120, Note_on_c, 2, 57, 0
4, 10200, Note_on_c, 2, 60, 127
4, 10220, Note_on_c, 2, 60, 0
4, 10320, Note_on_c, 2, 57, 127
4, 10340, Note_on_c, 2, 57, 0
4, 10440, Note_on_c, 2, 59, 127
4, 10520, Note_on_c, 2, 59, 0
4, 10560, Note_on_c, 2, 47, 127
4, 10640, Note_on_c, 2, 47, 0
4, 10680, Note_on_c, 2, 47, 127
4, 10760, Note_on_c, 2, 47, 0
4, 10800, Note_on_c, 2, 48, 127
4, 10880, Note_on_c, 2, 48, 0
4, 10920, Note_on_c, 2, 48, 127
4, 11000, Note_on_c, 2, 48, 0
4, 11040, Note_on_c, 2, 48, 127
4, 11120, Note_on_c, 2, 48, 0
4, 11160, Note_on_c, 2, 50, 127
4, 11240, Note_on_c, 2, 50, 0
4, 11280, Note_on_c, 2, 50, 127
4, 11360, Note_on_c, 2, 50, 0
4, 11400, Note_on_c, 2, 50, 127
4, 11480, Note_on_c, 2, 50, 0
4, 11520, Note_on_c, 2, 43, 127
4, 11600, Note_on_c, 2, 43, 0
4, 12360, Note_on_c, 2, 54, 53
4, 12360, Note_on_c, 2, 57, 53
4, 12440, Note_on_c, 2, 57, 0
4, 12440, Note_on_c, 2, 54, 0
4, 12480, Note_on_c, 2, 55, 54
4, 12480, Note_on_c, 2, 59, 54
4, 12560, Note_on_c, 2, 59, 0
4, 12560, Note_on_c, 2, 55, 0
4, 12600, Note_on_c, 2, 62, 55
4, 12600, Note_on_c, 2, 59, 55
4, 12760, Note_on_c, 2, 59, 0
4, 12760, Note_on_c, 2, 62, 0
4, 12840, Note_on_c, 2, 60, 57
4, 12840, Note_on_c, 2, 64, 57
4, 12920, Note_on_c, 2, 64, 0
4, 12920, Note_on_c, 2, 60, 0
4, 13080, Note_on_c, 2, 54, 59
4, 13080, Note_on_c, 2, 60, 59
4, 13160, Note_on_c, 2, 60, 0
4, 13160, Note_on_c, 2, 54, 0
4, 13200, Note_on_c, 2, 59, 60
4, 13200, Note_on_c, 2, 55, 60
4, 13280, Note_on_c, 2, 55, 0
4, 13280, Note_on_c, 2, 59, 0
4, 13320, Note_on_c, 2, 59, 60
4, 13320, Note_on_c, 2, 62, 60
4, 13480, Note_on_c, 2, 62, 0
4, 13480, Note_on_c, 2, 59, 0
4, 13560, Note_on_c, 2, 60, 62
4, 13560, Note_on_c, 2, 64, 62
4, 13640, Note_on_c, 2, 64, 0
4, 13640, Note_on_c, 2, 60, 0
4, 13680, Note_on_c, 2, 63, 63
4, 13760, Note_on_c, 2, 63, 0
4, 13800, Note_on_c, 2, 62, 64
4, 13800, Note_on_c, 2, 57, 64
4, 13880, Note_on_c, 2, 57, 0
4, 13880, Note_on_c, 2, 62, 0
4, 13920, Note_on_c, 2, 59, 65
4, 14000, Note_on_c, 2, 59, 0
4, 14040, Note_on_c, 2, 62, 66
4, 14040, Note_on_c, 2, 60, 66
4, 14120, Note_on_c, 2, 60, 0
4, 14120, Note_on_c, 2, 62, 0
4, 14160, Note_on_c, 2, 52, 67
4, 14160, Note_on_c, 2, 60, 67
4, 14240, Note_on_c, 2, 60, 0
4, 14240, Note_on_c, 2, 52, 0
4, 14280, Note_on_c, 2, 54, 68
4, 14360, Note_on_c, 2, 54, 0
4, 14400, Note_on_c, 2, 59, 69
4, 14400, Note_on_c, 2, 55, 69
4, 14480, Note_on_c, 2, 55, 0
4, 14480, Note_on_c, 2, 59, 0
4, 15240, Note_on_c, 2, 55, 127
4, 15240, Note_on_c, 2, 43, 127
4, 15320, Note_on_c, 2, 43, 0
4, 15320, Note_on_c, 2, 55, 0
4, 15360, Note_on_c, 2, 55, 127
4, 15360, Note_on_c, 2, 43, 127
4, 15440, Note_on_c, 2, 43, 0
4, 15440, Note_on_c, 2, 55, 0
4, 15480, Note_on_c, 2, 43, 127
4, 15480, Note_on_c, 2, 55, 127
4, 15640, Note_on_c, 2, 55, 0
4, 15640, Note_on_c, 2, 43, 0
4, 15720, Note_on_c, 2, 52, 127
4, 15720, Note_on_c, 2, 40, 127
4, 15760, Note_on_c, 2, 40, 0
4, 15760, Note_on_c, 2, 52, 0
4, 15780, Note_on_c, 2, 48, 127
4, 15780, Note_on_c, 2, 36, 127
4, 15820, Note_on_c, 2, 36, 0
4, 15820, Note_on_c, 2, 48, 0
4, 15840, Note_on_c, 2, 43, 127
4, 15840, Note_on_c, 2, 55, 127
4, 15920, Note_on_c, 2, 55, 0
4, 15920, Note_on_c, 2, 43, 0
4, 16560, Note_on_c, 2, 60, 127
4, 16720, Note_on_c, 2, 60, 0
4, 16800, Note_on_c, 2, 59, 127
4, 16880, Note_on_c, 2, 59, 0
4, 16920, Note_on_c, 2, 58, 127
4, 16980, Note_on_c, 2, 58, 0
4, 17040, Note_on_c, 2, 57, 127
4, 17120, Note_on_c, 2, 57, 0
4, 17160, Note_on_c, 2, 55, 127
4, 17240, Note_on_c, 2, 55, 0
4, 17280, Note_on_c, 2, 53, 127
4, 17360, Note_on_c, 2, 53, 0
4, 18000, Note_on_c, 2, 62, 127
4, 18160, Note_on_c, 2, 62, 0
4, 18240, Note_on_c, 2, 61, 127
4, 18320, Note_on_c, 2, 61, 0
4, 18360, Note_on_c, 2, 60, 127
4, 18440, Note_on_c, 2, 60, 0
4, 18480, Note_on_c, 2, 59, 127
4, 18560, Note_on_c, 2, 59, 0
4, 18600, Note_on_c, 2, 57, 127
4, 18680, Note_on_c, 2, 57, 0
4, 18720, Note_on_c, 2, 55, 127
4, 18800, Note_on_c, 2, 55, 0
4, 19440, Note_on_c, 2, 67, 127
4, 19600, Note_on_c, 2, 67, 0
4, 19680, Note_on_c, 2, 66, 127
4, 19760, Note_on_c, 2, 66, 0
4, 19800, Note_on_c, 2, 65, 127
4, 19880, Note_on_c, 2, 65, 0
4, 19920, Note_on_c, 2, 64, 127
4, 20000, Note_on_c, 2, 64, 0
4, 20040, Note_on_c, 2, 62, 127
4, 20120, Note_on_c, 2, 62, 0
4, 20160, Note_on_c, 2, 60, 127
4, 20240, Note_on_c, 2, 60, 0
4, 20280, Note_on_c, 2, 62, 127
4, 20360, Note_on_c, 2, 62, 0
4, 20400, Note_on_c, 2, 64, 127
4, 20480, Note_on_c, 2, 64, 0
4, 20520, Note_on_c, 2, 53, 127
4, 20560, Note_on_c, 2, 53, 0
4, 20640, Note_on_c, 2, 55, 127
4, 20720, Note_on_c, 2, 55, 0
4, 20760, Note_on_c, 2, 57, 127
4, 20840, Note_on_c, 2, 57, 0
4, 20880, Note_on_c, 2, 55, 127
4, 20960, Note_on_c, 2, 55, 0
4, 21000, Note_on_c, 2, 55, 127
4, 21080, Note_on_c, 2, 55, 0
4, 21120, Note_on_c, 2, 55, 127
4, 21200, Note_on_c, 2, 55, 0
4, 21240, Note_on_c, 2, 48, 127
4, 21320, Note_on_c, 2, 48, 0
4, 21960, Note_on_c, 2, 67, 50
4, 22200, Note_on_c, 2, 67, 0
4, 22200, Note_on_c, 2, 66, 50
4, 22320, Note_on_c, 2, 66, 0
4, 22320, Note_on_c, 2, 65, 50
4, 22440, Note_on_c, 2, 65, 0
4, 22440, Note_on_c, 2, 64, 50
4, 22560, Note_on_c, 2, 64, 0
4, 22560, Note_on_c, 2, 62, 50
4, 22680, Note_on_c, 2, 62, 0
4, 22680, Note_on_c, 2, 61, 50
4, 22800, Note_on_c, 2, 61, 0
4, 22800, Note_on_c, 2, 62, 50
4, 22920, Note_on_c, 2, 62, 0
4, 22920, Note_on_c, 2, 60, 50
4, 23040, Note_on_c, 2, 60, 0
4, 23040, Note_on_c, 2, 59, 50
4, 23160, Note_on_c, 2, 59, 0
4, 23160, Note_on_c, 2, 58, 50
4, 23280, Note_on_c, 2, 58, 0
4, 23280, Note_on_c, 2, 57, 50
4, 23400, Note_on_c, 2, 57, 0
4, 23400, Note_on_c, 2, 56, 50
4, 23520, Note_on_c, 2, 56, 0
4, 23520, Note_on_c, 2, 55, 50
4, 23640, Note_on_c, 2, 55, 0
4, 23640, Note_on_c, 2, 53, 50
4, 23760, Note_on_c, 2, 53, 0
4, 23760, Note_on_c, 2, 52, 50
4, 23880, Note_on_c, 2, 52, 0
4, 23880, Note_on_c, 2, 50, 50
4, 24000, Note_on_c, 2, 50, 0
4, 24000, Note_on_c, 2, 48, 50
4, 24120, Note_on_c, 2, 48, 0
4, 24120, Note_on_c, 2, 53, 50
4, 24180, Note_on_c, 2, 53, 0
4, 24240, Note_on_c, 2, 50, 50
4, 24300, Note_on_c, 2, 50, 0
4, 24360, Note_on_c, 2, 55, 50
4, 24420, Note_on_c, 2, 55, 0
4, 24480, Note_on_c, 2, 52, 127
4, 24640, Note_on_c, 2, 52, 0
4, 24720, Note_on_c, 2, 51, 127
4, 24800, Note_on_c, 2, 51, 0
4, 24840, Note_on_c, 2, 50, 127
4, 24880, Note_on_c, 2, 50, 0
4, 24960, Note_on_c, 2, 55, 127
4, 24980, Note_on_c, 2, 55, 0
4, 25080, Note_on_c, 2, 53, 127
4, 25100, Note_on_c, 2, 53, 0
4, 25200, Note_on_c, 2, 52, 127
4, 25360, Note_on_c, 2, 52, 0
4, 25440, Note_on_c, 2, 51, 127
4, 25520, Note_on_c, 2, 51, 0
4, 25560, Note_on_c, 2, 50, 127
4, 25600, Note_on_c, 2, 50, 0
4, 25680, Note_on_c, 2, 55, 127
4, 25700, Note_on_c, 2, 55, 0
4, 25800, Note_on_c, 2, 53, 127
4, 25820, Note_on_c, 2, 53, 0
4, 25920, Note_on_c, 2, 52, 127
4, 26000, Note_on_c, 2, 52, 0
4, 26040, Note_on_c, 2, 52, 127
4, 26120, Note_on_c, 2, 52, 0
4, 26160, Note_on_c, 2, 52, 127
4, 26240, Note_on_c, 2, 52, 0
4, 26280, Note_on_c, 2, 53, 127
4, 26360, Note_on_c, 2, 53, 0
4, 26400, Note_on_c, 2, 53, 127
4, 26480, Note_on_c, 2, 53, 0
4, 26520, Note_on_c, 2, 53, 127
4, 26600, Note_on_c, 2, 53, 0
4, 26640, Note_on_c, 2, 55, 127
4, 26720, Note_on_c, 2, 55, 0
4, 26760, Note_on_c, 2, 55, 127
4, 26840, Note_on_c, 2, 55, 0
4, 26880, Note_on_c, 2, 55, 127
4, 26960, Note_on_c, 2, 55, 0
4, 27000, Note_on_c, 2, 48, 127
4, 27080, Note_on_c, 2, 48, 0
4, 27360, Note_on_c, 2, 65, 50
4, 27360, Note_on_c, 2, 62, 50
4, 27720, Note_on_c, 2, 62, 0
4, 27720, Note_on_c, 2, 65, 0
4, 27720, Note_on_c, 2, 60, 50
4, 27720, Note_on_c, 2, 64, 50
4, 27800, Note_on_c, 2, 64, 0
4, 27800, Note_on_c, 2, 60, 0
4, 28800, Note_on_c, 2, 62, 50
4, 28800, Note_on_c, 2, 65, 50
4, 29160, Note_on_c, 2, 65, 0
4, 29160, Note_on_c, 2, 62, 0
4, 29160, Note_on_c, 2, 64, 50
4, 29160, Note_on_c, 2, 60, 50
4, 29240, Note_on_c, 2, 60, 0
4, 29240, Note_on_c, 2, 64, 0
4, 30240, Note_on_c, 2, 62, 127
4, 30240, Note_on_c, 2, 59, 127
4, 30480, Note_on_c, 2, 59, 0
4, 30480, Note_on_c, 2, 62, 0
4, 30600, Note_on_c, 2, 60, 127
4, 30600, Note_on_c, 2, 57, 127
4, 30840, Note_on_c, 2, 57, 0
4, 30840, Note_on_c, 2, 60, 0
4, 30960, Note_on_c, 2, 60, 127
4, 30960, Note_on_c, 2, 66, 127
4, 31200, Note_on_c, 2, 66, 0
4, 31200, Note_on_c, 2, 60, 0
4, 31320, Note_on_c, 2, 59, 127
4, 31320, Note_on_c, 2, 56, 127
4, 31560, Note_on_c, 2, 56, 0
4, 31560, Note_on_c, 2, 59, 0
4, 31680, Note_on_c, 2, 65, 127
4, 31680, Note_on_c, 2, 55, 127
4, 31920, Note_on_c, 2, 55, 0
4, 31920, Note_on_c, 2, 65, 0
4, 32040, Note_on_c, 2, 55, 127
4, 32040, Note_on_c, 2, 64, 127
4, 32280, Note_on_c, 2, 64, 0
4, 32280, Note_on_c, 2, 55, 0
4, 32400, Note_on_c, 2, 63, 127
4, 32400, Note_on_c, 2, 60, 127
4, 32640, Note_on_c, 2, 60, 0
4, 32640, Note_on_c, 2, 63, 0
4, 32760, Note_on_c, 2, 64, 127
4, 32760, Note_on_c, 2, 59, 127
4, 32840, Note_on_c, 2, 59, 0
4, 32840, Note_on_c, 2, 64, 0
4, 34560, Note_on_c, 2, 62, 50
4, 34560, Note_on_c, 2, 65, 50
4, 34920, Note_on_c, 2, 65, 0
4, 34920, Note_on_c, 2, 62, 0
4, 34920, Note_on_c, 2, 64, 50
4, 34920, Note_on_c, 2, 60, 50
4, 35000, Note_on_c, 2, 60, 0
4, 35000, Note_on_c, 2, 64, 0
4, 36000, Note_on_c, 2, 65, 50
4, 36000, Note_on_c, 2, 62, 50
4, 36360, Note_on_c, 2, 62, 0
4, 36360, Note_on_c, 2, 65, 0
4, 36360, Note_on_c, 2, 60, 50
4, 36360, Note_on_c, 2, 64, 50
4, 36440, Note_on_c, 2, 64, 0
4, 36440, Note_on_c, 2, 60, 0
4, 36780, Note_on_c, 2, 59, 50
4, 36800, Note_on_c, 2, 59, 0
4, 36840, Note_on_c, 2, 62, 50
4, 36860, Note_on_c, 2, 62, 0
4, 36900, Note_on_c, 2, 65, 50
4, 36920, Note_on_c, 2, 65, 0
4, 36960, Note_on_c, 2, 55, 50
4, 37000, Note_on_c, 2, 55, 0
4, 37020, Note_on_c, 2, 59, 50
4, 37060, Note_on_c, 2, 59, 0
4, 37080, Note_on_c, 2, 60, 50
4, 37120, Note_on_c, 2, 60, 0
4, 37200, Note_on_c, 2, 64, 50
4, 37280, Note_on_c, 2, 64, 0
4, 37320, Note_on_c, 2, 60, 50
4, 37400, Note_on_c, 2, 60, 0
4, 40320, Note_on_c, 2, 59, 127
4, 40480, Note_on_c, 2, 59, 0
4, 40560, Note_on_c, 2, 58, 127
4, 40640, Note_on_c, 2, 58, 0
4, 40680, Note_on_c, 2, 57, 127
4, 40720, Note_on_c, 2, 57, 0
4, 40800, Note_on_c, 2, 60, 127
4, 40820, Note_on_c, 2, 60, 0
4, 40920, Note_on_c, 2, 57, 127
4, 40940, Note_on_c, 2, 57, 0
4, 41040, Note_on_c, 2, 59, 127
4, 41200, Note_on_c, 2, 59, 0
4, 41280, Note_on_c, 2, 58, 127
4, 41360, Note_on_c, 2, 58, 0
4, 41400, Note_on_c, 2, 57, 127
4, 41440, Note_on_c, 2, 57, 0
4, 41520, Note_on_c, 2, 60, 127
4, 41540, Note_on_c, 2, 60, 0
4, 41640, Note_on_c, 2, 57, 127
4, 41660, Note_on_c, 2, 57, 0
4, 41760, Note_on_c, 2, 59, 127
4, 41840, Note_on_c, 2, 59, 0
4, 41880, Note_on_c, 2, 47, 127
4, 41960, Note_on_c, 2, 47, 0
4, 42000, Note_on_c, 2, 47, 127
4, 42080, Note_on_c, 2, 47, 0
4, 42120, Note_on_c, 2, 48, 127
4, 42200, Note_on_c, 2, 48, 0
4, 42240, Note_on_c, 2, 48, 127
4, 42320, Note_on_c, 2, 48, 0
4, 42360, Note_on_c, 2, 48, 127
4, 42440, Note_on_c, 2, 48, 0
4, 42480, Note_on_c, 2, 50, 127
4, 42560, Note_on_c, 2, 50, 0
4, 42600, Note_on_c, 2, 50, 127
4, 42680, Note_on_c, 2, 50, 0
4, 42720, Note_on_c, 2, 50, 127
4, 42800, Note_on_c, 2, 50, 0
4, 42840, Note_on_c, 2, 43, 127
4, 42920, Note_on_c, 2, 43, 0
4, 42920, End_track
5, 0, Start_track
5, 0, Title_t, "Corni"
5, 0, Control_c, 3, 0, 0
5, 0, Control_c, 3, 7, 85
5, 0, Control_c, 3, 10, 31
5, 1, Program_c, 3, 60
5, 1080, Note_on_c, 3, 64, 50
5, 1080, Note_on_c, 3, 72, 50
5, 1140, Note_on_c, 3, 72, 0
5, 1140, Note_on_c, 3, 64, 0
5, 1200, Note_on_c, 3, 67, 56
5, 1260, Note_on_c, 3, 67, 0
5, 1320, Note_on_c, 3, 64, 63
5, 1320, Note_on_c, 3, 72, 63
5, 1380, Note_on_c, 3, 72, 0
5, 1380, Note_on_c, 3, 64, 0
5, 1440, Note_on_c, 3, 76, 70
5, 1440, Note_on_c, 3, 72, 70
5, 1680, Note_on_c, 3, 72, 0
5, 1680, Note_on_c, 3, 76, 0
5, 1680, Note_on_c, 3, 74, 50
5, 1680, Note_on_c, 3, 67, 50
5, 1710, Note_on_c, 3, 67, 0
5, 1710, Note_on_c, 3, 74, 0
5, 2520, Note_on_c, 3, 67, 50
5, 2520, Note_on_c, 3, 74, 50
5, 2580, Note_on_c, 3, 74, 0
5, 2580, Note_on_c, 3, 67, 0
5, 2640, Note_on_c, 3, 72, 56
5, 2640, Note_on_c, 3, 67, 56
5, 2700, Note_on_c, 3, 67, 0
5, 2700, Note_on_c, 3, 72, 0
5, 2760, Note_on_c, 3, 67, 63
5, 2760, Note_on_c, 3, 74, 63
5, 2820, Note_on_c, 3, 74, 0
5, 2820, Note_on_c, 3, 67, 0
5, 2880, Note_on_c, 3, 74, 70
5, 2880, Note_on_c, 3, 77, 70
5, 3120, Note_on_c, 3, 77, 0
5, 3120, Note_on_c, 3, 74, 0
5, 3120, Note_on_c, 3, 76, 60
5, 3120, Note_on_c, 3, 72, 60
5, 3240, Note_on_c, 3, 72, 0
5, 3240, Note_on_c, 3, 76, 0
5, 3240, Note_on_c, 3, 74, 127
5, 3600, Note_on_c, 3, 74, 0
5, 3600, Note_on_c, 3, 74, 127
5, 3720, Note_on_c, 3, 74, 0
5, 3720, Note_on_c, 3, 74, 127
5, 3840, Note_on_c, 3, 74, 0
5, 3840, Note_on_c, 3, 74, 127
5, 3960, Note_on_c, 3, 74, 0
5, 3960, Note_on_c, 3, 74, 127
5, 4320, Note_on_c, 3, 74, 0
5, 4320, Note_on_c, 3, 74, 127
5, 4440, Note_on_c, 3, 74, 0
5, 4440, Note_on_c, 3, 74, 127
5, 4560, Note_on_c, 3, 74, 0
5, 4560, Note_on_c, 3, 74, 127
5, 4680, Note_on_c, 3, 74, 0
5, 4680, Note_on_c, 3, 74, 127
5, 4680, Note_on_c, 3, 67, 127
5, 4800, Note_on_c, 3, 67, 0
5, 4800, Note_on_c, 3, 74, 0
5, 4800, Note_on_c, 3, 74, 127
5, 4800, Note_on_c, 3, 67, 127
5, 4920, Note_on_c, 3, 67, 0
5, 4920, Note_on_c, 3, 74, 0
5, 4920, Note_on_c, 3, 74, 127
5, 4920, Note_on_c, 3, 67, 127
5, 5040, Note_on_c, 3, 67, 0
5, 5040, Note_on_c, 3, 74, 0
5, 5040, Note_on_c, 3, 76, 127
5, 5040, Note_on_c, 3, 72, 127
5, 5160, Note_on_c, 3, 72, 0
5, 5160, Note_on_c, 3, 76, 0
5, 5160, Note_on_c, 3, 76, 127
5, 5160, Note_on_c, 3, 72, 127
5, 5280, Note_on_c, 3, 72, 0
5, 5280, Note_on_c, 3, 76, 0
5, 5280, Note_on_c, 3, 76, 127
5, 5280, Note_on_c, 3, 72, 127
5, 5400, Note_on_c, 3, 72, 0
5, 5400, Note_on_c, 3, 76, 0
5, 5400, Note_on_c, 3, 74, 127
5, 5520, Note_on_c, 3, 74, 0
5, 5520, Note_on_c, 3, 74, 127
5, 5640, Note_on_c, 3, 74, 0
5, 5640, Note_on_c, 3, 74, 127
5, 5760, Note_on_c, 3, 74, 0
5, 5760, Note_on_c, 3, 74, 127
5, 5760, Note_on_c, 3, 67, 127
5, 5880, Note_on_c, 3, 67, 0
5, 5880, Note_on_c, 3, 74, 0
5, 6840, Note_on_c, 3, 64, 50
5, 6840, Note_on_c, 3, 72, 50
5, 6900, Note_on_c, 3, 72, 0
5, 6900, Note_on_c, 3, 64, 0
5, 6960, Note_on_c, 3, 67, 56
5, 7020, Note_on_c, 3, 67, 0
5, 7080, Note_on_c, 3, 64, 63
5, 7080, Note_on_c, 3, 72, 63
5, 7140, Note_on_c, 3, 72, 0
5, 7140, Note_on_c, 3, 64, 0
5, 7200, Note_on_c, 3, 72, 70
5, 7200, Note_on_c, 3, 76, 70
5, 7440, Note_on_c, 3, 76, 0
5, 7440, Note_on_c, 3, 72, 0
5, 7440, Note_on_c, 3, 74, 50
5, 7440, Note_on_c, 3, 67, 50
5, 7470, Note_on_c, 3, 67, 0
5, 7470, Note_on_c, 3, 74, 0
5, 8280, Note_on_c, 3, 74, 50
5, 8280, Note_on_c, 3, 67, 50
5, 8340, Note_on_c, 3, 67, 0
5, 8340, Note_on_c, 3, 74, 0
5, 8400, Note_on_c, 3, 67, 56
5, 8400, Note_on_c, 3, 72, 56
5, 8460, Note_on_c, 3, 72, 0
5, 8460, Note_on_c, 3, 67, 0
5, 8520, Note_on_c, 3, 74, 63
5, 8520, Note_on_c, 3, 67, 63
5, 8580, Note_on_c, 3, 67, 0
5, 8580, Note_on_c, 3, 74, 0
5, 8640, Note_on_c, 3, 77, 70
5, 8640, Note_on_c, 3, 74, 70
5, 8880, Note_on_c, 3, 74, 0
5, 8880, Note_on_c, 3, 77, 0
5, 8880, Note_on_c, 3, 72, 60
5, 8880, Note_on_c, 3, 76, 60
5, 9000, Note_on_c, 3, 76, 0
5, 9000, Note_on_c, 3, 72, 0
5, 9000, Note_on_c, 3, 74, 127
5, 9360, Note_on_c, 3, 74, 0
5, 9360, Note_on_c, 3, 74, 127
5, 9480, Note_on_c, 3, 74, 0
5, 9480, Note_on_c, 3, 74, 127
5, 9600, Note_on_c, 3, 74, 0
5, 9600, Note_on_c, 3, 74, 127
5, 9720, Note_on_c, 3, 74, 0
5, 9720, Note_on_c, 3, 74, 127
5, 10080, Note_on_c, 3, 74, 0
5, 10080, Note_on_c, 3, 74, 127
5, 10200, Note_on_c, 3, 74, 0
5, 10200, Note_on_c, 3, 74, 127
5, 10320, Note_on_c, 3, 74, 0
5, 10320, Note_on_c, 3, 74, 127
5, 10440, Note_on_c, 3, 74, 0
5, 10440, Note_on_c, 3, 74, 127
5, 10440, Note_on_c, 3, 67, 127
5, 10560, Note_on_c, 3, 67, 0
5, 10560, Note_on_c, 3, 74, 0
5, 10560, Note_on_c, 3, 67, 127
5, 10560, Note_on_c, 3, 74, 127
5, 10680, Note_on_c, 3, 74, 0
5, 10680, Note_on_c, 3, 67, 0
5, 10680, Note_on_c, 3, 67, 127
5, 10680, Note_on_c, 3, 74, 127
5, 10800, Note_on_c, 3, 74, 0
5, 10800, Note_on_c, 3, 67, 0
5, 10800, Note_on_c, 3, 76, 127
5, 10800, Note_on_c, 3, 72, 127
5, 10920, Note_on_c, 3, 72, 0
5, 10920, Note_on_c, 3, 76, 0
5, 10920, Note_on_c, 3, 72, 127
5, 10920, Note_on_c, 3, 76, 127
5, 11040, Note_on_c, 3, 76, 0
5, 11040, Note_on_c, 3, 72, 0
5, 11040, Note_on_c, 3, 72, 127
5, 11040, Note_on_c, 3, 76, 127
5, 11160, Note_on_c, 3, 76, 0
5, 11160, Note_on_c, 3, 72, 0
5, 11160, Note_on_c, 3, 74, 127
5, 11280, Note_on_c, 3, 74, 0
5, 11280, Note_on_c, 3, 74, 127
5, 11400, Note_on_c, 3, 74, 0
5, 11400, Note_on_c, 3, 74, 127
5, 11520, Note_on_c, 3, 74, 0
5, 11520, Note_on_c, 3, 67, 127
5, 11520, Note_on_c, 3, 74, 127
5, 11640, Note_on_c, 3, 74, 0
5, 11640, Note_on_c, 3, 67, 0
5, 11880, Note_on_c, 3, 55, 50
5, 11880, Note_on_c, 3, 67, 50
5, 12000, Note_on_c, 3, 67, 0
5, 12000, Note_on_c, 3, 55, 0
5, 12000, Note_on_c, 3, 55, 50
5, 12000, Note_on_c, 3, 67, 50
5, 12120, Note_on_c, 3, 67, 0
5, 12120, Note_on_c, 3, 55, 0
5, 12120, Note_on_c, 3, 55, 51
5, 12120, Note_on_c, 3, 67, 51
5, 12240, Note_on_c, 3, 67, 0
5, 12240, Note_on_c, 3, 55, 0
5, 12240, Note_on_c, 3, 55, 52
5, 12240, Note_on_c, 3, 67, 52
5, 12360, Note_on_c, 3, 67, 0
5, 12360, Note_on_c, 3, 55, 0
5, 12360, Note_on_c, 3, 55, 53
5, 12360, Note_on_c, 3, 67, 53
5, 12480, Note_on_c, 3, 67, 0
5, 12480, Note_on_c, 3, 55, 0
5, 12480, Note_on_c, 3, 55, 54
5, 12480, Note_on_c, 3, 67, 54
5, 12600, Note_on_c, 3, 67, 0
5, 12600, Note_on_c, 3, 55, 0
5, 12600, Note_on_c, 3, 55, 55
5, 12600, Note_on_c, 3, 67, 55
5, 12720, Note_on_c, 3, 67, 0
5, 12720, Note_on_c, 3, 55, 0
5, 12720, Note_on_c, 3, 55, 56
5, 12720, Note_on_c, 3, 67, 56
5, 12840, Note_on_c, 3, 67, 0
5, 12840, Note_on_c, 3, 55, 0
5, 12840, Note_on_c, 3, 67, 57
5, 12840, Note_on_c, 3, 55, 57
5, 12960, Note_on_c, 3, 55, 0
5, 12960, Note_on_c, 3, 67, 0
5, 12960, Note_on_c, 3, 67, 58
5, 12960, Note_on_c, 3, 55, 58
5, 13080, Note_on_c, 3, 55, 0
5, 13080, Note_on_c, 3, 67, 0
5, 13080, Note_on_c, 3, 67, 59
5, 13080, Note_on_c, 3, 55, 59
5, 13200, Note_on_c, 3, 55, 0
5, 13200, Note_on_c, 3, 67, 0
5, 13200, Note_on_c, 3, 67, 60
5, 13200, Note_on_c, 3, 55, 60
5, 13320, Note_on_c, 3, 55, 0
5, 13320, Note_on_c, 3, 67, 0
5, 13320, Note_on_c, 3, 67, 60
5, 13320, Note_on_c, 3, 55, 60
5, 13440, Note_on_c, 3, 55, 0
5, 13440, Note_on_c, 3, 67, 0
5, 13440, Note_on_c, 3, 67, 61
5, 13440, Note_on_c, 3, 55, 61
5, 13560, Note_on_c, 3, 55, 0
5, 13560, Note_on_c, 3, 67, 0
5, 13560, Note_on_c, 3, 67, 62
5, 13560, Note_on_c, 3, 55, 62
5, 13680, Note_on_c, 3, 55, 0
5, 13680, Note_on_c, 3, 67, 0
5, 13680, Note_on_c, 3, 55, 63
5, 13680, Note_on_c, 3, 67, 63
5, 13800, Note_on_c, 3, 67, 0
5, 13800, Note_on_c, 3, 55, 0
5, 13800, Note_on_c, 3, 67, 64
5, 13800, Note_on_c, 3, 55, 64
5, 13920, Note_on_c, 3, 55, 0
5, 13920, Note_on_c, 3, 67, 0
5, 13920, Note_on_c, 3, 55, 65
5, 13920, Note_on_c, 3, 67, 65
5, 14040, Note_on_c, 3, 67, 0
5, 14040, Note_on_c, 3, 55, 0
5, 14040, Note_on_c, 3, 55, 66
5, 14040, Note_on_c, 3, 67, 66
5, 14160, Note_on_c, 3, 67, 0
5, 14160, Note_on_c, 3, 55, 0
5, 14160, Note_on_c, 3, 67, 67
5, 14160, Note_on_c, 3, 55, 67
5, 14280, Note_on_c, 3, 55, 0
5, 14280, Note_on_c, 3, 67, 0
5, 14280, Note_on_c, 3, 67, 68
5, 14280, Note_on_c, 3, 55, 68
5, 14400, Note_on_c, 3, 55, 0
5, 14400, Note_on_c, 3, 67, 0
5, 14400, Note_on_c, 3, 67, 69
5, 14400, Note_on_c, 3, 55, 69
5, 14520, Note_on_c, 3, 55, 0
5, 14520, Note_on_c, 3, 67, 0
5, 14520, Note_on_c, 3, 79, 127
5, 14520, Note_on_c, 3, 67, 127
5, 14640, Note_on_c, 3, 67, 0
5, 14640, Note_on_c, 3, 79, 0
5, 14640, Note_on_c, 3, 79, 127
5, 14640, Note_on_c, 3, 67, 127
5, 14760, Note_on_c, 3, 67, 0
5, 14760, Note_on_c, 3, 79, 0
5, 14760, Note_on_c, 3, 79, 127
5, 14760, Note_on_c, 3, 67, 127
5, 15000, Note_on_c, 3, 67, 0
5, 15000, Note_on_c, 3, 79, 0
5, 15000, Note_on_c, 3, 76, 127
5, 15000, Note_on_c, 3, 64, 127
5, 15060, Note_on_c, 3, 64, 0
5, 15060, Note_on_c, 3, 76, 0
5, 15060, Note_on_c, 3, 72, 127
5, 15060, Note_on_c, 3, 60, 127
5, 15120, Note_on_c, 3, 60, 0
5, 15120, Note_on_c, 3, 72, 0
5, 15120, Note_on_c, 3, 67, 127
5, 15120, Note_on_c, 3, 79, 127
5, 15240, Note_on_c, 3, 79, 0
5, 15240, Note_on_c, 3, 67, 0
5, 15240, Note_on_c, 3, 67, 127
5, 15360, Note_on_c, 3, 67, 0
5, 15360, Note_on_c, 3, 67, 127
5, 15480, Note_on_c, 3, 67, 0
5, 15480, Note_on_c, 3, 67, 127
5, 15720, Note_on_c, 3, 67, 0
5, 15720, Note_on_c, 3, 64, 127
5, 15780, Note_on_c, 3, 64, 0
5, 15780, Note_on_c, 3, 60, 127
5, 15840, Note_on_c, 3, 60, 0
5, 15840, Note_on_c, 3, 67, 127
5, 15960, Note_on_c, 3, 67, 0
5, 16560, Note_on_c, 3, 60, 127
5, 16560, Note_on_c, 3, 72, 127
5, 16680, Note_on_c, 3, 72, 0
5, 16680, Note_on_c, 3, 60, 0
5, 16680, Note_on_c, 3, 60, 127
5, 16680, Note_on_c, 3, 72, 127
5, 16800, Note_on_c, 3, 72, 0
5, 16800, Note_on_c, 3, 60, 0
5, 16800, Note_on_c, 3, 60, 127
5, 16800, Note_on_c, 3, 72, 127
5, 16920, Note_on_c, 3, 72, 0
5, 16920, Note_on_c, 3, 60, 0
5, 16920, Note_on_c, 3, 60, 127
5, 16920, Note_on_c, 3, 72, 127
5, 16980, Note_on_c, 3, 72, 0
5, 16980, Note_on_c, 3, 60, 0
5, 17040, Note_on_c, 3, 60, 127
5, 17040, Note_on_c, 3, 72, 127
5, 17160, Note_on_c, 3, 72, 0
5, 17160, Note_on_c, 3, 60, 0
5, 17160, Note_on_c, 3, 60, 127
5, 17160, Note_on_c, 3, 72, 127
5, 17280, Note_on_c, 3, 72, 0
5, 17280, Note_on_c, 3, 60, 0
5, 17280, Note_on_c, 3, 72, 127
5, 17280, Note_on_c, 3, 60, 127
5, 17400, Note_on_c, 3, 60, 0
5, 17400, Note_on_c, 3, 72, 0
5, 18000, Note_on_c, 3, 74, 127
5, 18360, Note_on_c, 3, 74, 0
5, 18360, Note_on_c, 3, 74, 127
5, 18480, Note_on_c, 3, 74, 0
5, 18480, Note_on_c, 3, 74, 127
5, 18600, Note_on_c, 3, 74, 0
5, 18600, Note_on_c, 3, 74, 127
5, 18720, Note_on_c, 3, 74, 0
5, 18720, Note_on_c, 3, 74, 127
5, 18720, Note_on_c, 3, 67, 127
5, 18840, Note_on_c, 3, 67, 0
5, 18840, Note_on_c, 3, 74, 0
5, 19440, Note_on_c, 3, 67, 127
5, 19560, Note_on_c, 3, 67, 0
5, 19560, Note_on_c, 3, 67, 127
5, 19680, Note_on_c, 3, 67, 0
5, 19680, Note_on_c, 3, 67, 127
5, 19800, Note_on_c, 3, 67, 0
5, 19800, Note_on_c, 3, 67, 127
5, 19920, Note_on_c, 3, 67, 0
5, 19920, Note_on_c, 3, 67, 127
5, 20040, Note_on_c, 3, 67, 0
5, 20040, Note_on_c, 3, 67, 127
5, 20160, Note_on_c, 3, 67, 0
5, 20160, Note_on_c, 3, 72, 127
5, 20160, Note_on_c, 3, 60, 127
5, 20280, Note_on_c, 3, 60, 0
5, 20280, Note_on_c, 3, 72, 0
5, 20520, Note_on_c, 3, 72, 127
5, 20520, Note_on_c, 3, 60, 127
5, 20640, Note_on_c, 3, 60, 0
5, 20640, Note_on_c, 3, 72, 0
5, 20880, Note_on_c, 3, 67, 127
5, 21000, Note_on_c, 3, 67, 0
5, 21000, Note_on_c, 3, 67, 127
5, 21120, Note_on_c, 3, 67, 0
5, 21120, Note_on_c, 3, 67, 127
5, 21240, Note_on_c, 3, 67, 0
5, 21240, Note_on_c, 3, 67, 127
5, 21240, Note_on_c, 3, 64, 127
5, 21360, Note_on_c, 3, 64, 0
5, 21360, Note_on_c, 3, 67, 0
5, 24480, Note_on_c, 3, 67, 127
5, 24840, Note_on_c, 3, 67, 0
5, 24840, Note_on_c, 3, 67, 127
5, 24960, Note_on_c, 3, 67, 0
5, 24960, Note_on_c, 3, 67, 127
5, 25080, Note_on_c, 3, 67, 0
5, 25080, Note_on_c, 3, 67, 127
5, 25200, Note_on_c, 3, 67, 0
5, 25200, Note_on_c, 3, 67, 127
5, 25560, Note_on_c, 3, 67, 0
5, 25560, Note_on_c, 3, 67, 127
5, 25680, Note_on_c, 3, 67, 0
5, 25680, Note_on_c, 3, 67, 127
5, 25800, Note_on_c, 3, 67, 0
5, 25800, Note_on_c, 3, 67, 127
5, 25920, Note_on_c, 3, 67, 0
5, 25920, Note_on_c, 3, 60, 127
5, 25920, Note_on_c, 3, 72, 127
5, 26040, Note_on_c, 3, 72, 0
5, 26040, Note_on_c, 3, 60, 0
5, 26040, Note_on_c, 3, 60, 127
5, 26040, Note_on_c, 3, 72, 127
5, 26160, Note_on_c, 3, 72, 0
5, 26160, Note_on_c, 3, 60, 0
5, 26160, Note_on_c, 3, 60, 127
5, 26160, Note_on_c, 3, 72, 127
5, 26280, Note_on_c, 3, 72, 0
5, 26280, Note_on_c, 3, 60, 0
5, 26280, Note_on_c, 3, 60, 127
5, 26280, Note_on_c, 3, 72, 127
5, 26400, Note_on_c, 3, 72, 0
5, 26400, Note_on_c, 3, 60, 0
5, 26640, Note_on_c, 3, 74, 127
5, 26640, Note_on_c, 3, 67, 127
5, 26760, Note_on_c, 3, 67, 0
5, 26760, Note_on_c, 3, 74, 0
5, 27000, Note_on_c, 3, 64, 127
5, 27000, Note_on_c, 3, 72, 127
5, 27120, Note_on_c, 3, 72, 0
5, 27120, Note_on_c, 3, 64, 0
5, 27360, Note_on_c, 3, 67, 50
5, 27720, Note_on_c, 3, 67, 0
5, 27720, Note_on_c, 3, 60, 50
5, 27840, Note_on_c, 3, 60, 0
5, 28800, Note_on_c, 3, 67, 50
5, 29160, Note_on_c, 3, 67, 0
5, 29160, Note_on_c, 3, 60, 50
5, 29280, Note_on_c, 3, 60, 0
5, 30240, Note_on_c, 3, 64, 127
5, 30360, Note_on_c, 3, 64, 0
5, 30480, Note_on_c, 3, 64, 127
5, 30540, Note_on_c, 3, 64, 0
5, 30540, Note_on_c, 3, 64, 127
5, 30600, Note_on_c, 3, 64, 0
5, 30600, Note_on_c, 3, 64, 127
5, 30720, Note_on_c, 3, 64, 0
5, 30840, Note_on_c, 3, 64, 127
5, 30900, Note_on_c, 3, 64, 0
5, 30900, Note_on_c, 3, 64, 127
5, 30960, Note_on_c, 3, 64, 0
5, 30960, Note_on_c, 3, 64, 127
5, 31080, Note_on_c, 3, 64, 0
5, 31200, Note_on_c, 3, 64, 127
5, 31260, Note_on_c, 3, 64, 0
5, 31260, Note_on_c, 3, 64, 127
5, 31320, Note_on_c, 3, 64, 0
5, 31320, Note_on_c, 3, 64, 127
5, 31440, Note_on_c, 3, 64, 0
5, 31560, Note_on_c, 3, 64, 127
5, 31620, Note_on_c, 3, 64, 0
5, 31620, Note_on_c, 3, 64, 127
5, 31680, Note_on_c, 3, 64, 0
5, 31680, Note_on_c, 3, 64, 127
5, 31800, Note_on_c, 3, 64, 0
5, 31920, Note_on_c, 3, 64, 127
5, 31980, Note_on_c, 3, 64, 0
5, 31980, Note_on_c, 3, 64, 127
5, 32040, Note_on_c, 3, 64, 0
5, 32040, Note_on_c, 3, 64, 127
5, 32160, Note_on_c, 3, 64, 0
5, 32280, Note_on_c, 3, 64, 127
5, 32340, Note_on_c, 3, 64, 0
5, 32340, Note_on_c, 3, 64, 127
5, 32400, Note_on_c, 3, 64, 0
5, 32400, Note_on_c, 3, 64, 127
5, 32520, Note_on_c, 3, 64, 0
5, 32640, Note_on_c, 3, 64, 127
5, 32700, Note_on_c, 3, 64, 0
5, 32700, Note_on_c, 3, 64, 127
5, 32760, Note_on_c, 3, 64, 0
5, 32760, Note_on_c, 3, 64, 127
5, 32880, Note_on_c, 3, 64, 0
5, 34560, Note_on_c, 3, 67, 50
5, 34920, Note_on_c, 3, 67, 0
5, 34920, Note_on_c, 3, 60, 50
5, 35040, Note_on_c, 3, 60, 0
5, 36000, Note_on_c, 3, 43, 50
5, 36360, Note_on_c, 3, 43, 0
5, 36360, Note_on_c, 3, 36, 50
5, 36480, Note_on_c, 3, 36, 0
5, 38160, Note_on_c, 3, 72, 50
5, 38160, Note_on_c, 3, 64, 50
5, 38220, Note_on_c, 3, 64, 0
5, 38220, Note_on_c, 3, 72, 0
5, 38280, Note_on_c, 3, 67, 56
5, 38340, Note_on_c, 3, 67, 0
5, 38400, Note_on_c, 3, 64, 63
5, 38400, Note_on_c, 3, 72, 63
5, 38460, Note_on_c, 3, 72, 0
5, 38460, Note_on_c, 3, 64, 0
5, 38520, Note_on_c, 3, 72, 70
5, 38520, Note_on_c, 3, 76, 70
5, 38760, Note_on_c, 3, 76, 0
5, 38760, Note_on_c, 3, 72, 0
5, 38760, Note_on_c, 3, 74, 50
5, 38760, Note_on_c, 3, 67, 50
5, 38790, Note_on_c, 3, 67, 0
5, 38790, Note_on_c, 3, 74, 0
5, 39600, Note_on_c, 3, 74, 50
5, 39600, Note_on_c, 3, 67, 50
5, 39660, Note_on_c, 3, 67, 0
5, 39660, Note_on_c, 3, 74, 0
5, 39720, Note_on_c, 3, 72, 56
5, 39720, Note_on_c, 3, 67, 56
5, 39780, Note_on_c, 3, 67, 0
5, 39780, Note_on_c, 3, 72, 0
5, 39840, Note_on_c, 3, 67, 63
5, 39840, Note_on_c, 3, 74, 63
5, 39900, Note_on_c, 3, 74, 0
5, 39900, Note_on_c, 3, 67, 0
5, 39960, Note_on_c, 3, 74, 70
5, 39960, Note_on_c, 3, 77, 70
5, 40200, Note_on_c, 3, 77, 0
5, 40200, Note_on_c, 3, 74, 0
5, 40200, Note_on_c, 3, 76, 60
5, 40200, Note_on_c, 3, 72, 60
5, 40320, Note_on_c, 3, 72, 0
5, 40320, Note_on_c, 3, 76, 0
5, 40320, Note_on_c, 3, 74, 127
5, 40680, Note_on_c, 3, 74, 0
5, 40680, Note_on_c, 3, 74, 127
5, 40800, Note_on_c, 3, 74, 0
5, 40800, Note_on_c, 3, 74, 127
5, 40920, Note_on_c, 3, 74, 0
5, 40920, Note_on_c, 3, 74, 127
5, 41040, Note_on_c, 3, 74, 0
5, 41040, Note_on_c, 3, 74, 127
5, 41400, Note_on_c, 3, 74, 0
5, 41400, Note_on_c, 3, 74, 127
5, 41520, Note_on_c, 3, 74, 0
5, 41520, Note_on_c, 3, 74, 127
5, 41640, Note_on_c, 3, 74, 0
5, 41640, Note_on_c, 3, 74, 127
5, 41760, Note_on_c, 3, 74, 0
5, 41760, Note_on_c, 3, 74, 127
5, 41760, Note_on_c, 3, 67, 127
5, 41880, Note_on_c, 3, 67, 0
5, 41880, Note_on_c, 3, 74, 0
5, 41880, Note_on_c, 3, 74, 127
5, 41880, Note_on_c, 3, 67, 127
5, 42000, Note_on_c, 3, 67, 0
5, 42000, Note_on_c, 3, 74, 0
5, 42000, Note_on_c, 3, 74, 127
5, 42000, Note_on_c, 3, 67, 127
5, 42120, Note_on_c, 3, 67, 0
5, 42120, Note_on_c, 3, 74, 0
5, 42120, Note_on_c, 3, 76, 127
5, 42120, Note_on_c, 3, 72, 127
5, 42240, Note_on_c, 3, 72, 0
5, 42240, Note_on_c, 3, 76, 0
5, 42240, Note_on_c, 3, 76, 127
5, 42240, Note_on_c, 3, 72, 127
5, 42360, Note_on_c, 3, 72, 0
5, 42360, Note_on_c, 3, 76, 0
5, 42360, Note_on_c, 3, 72, 127
5, 42360, Note_on_c, 3, 76, 127
5, 42480, Note_on_c, 3, 76, 0
5, 42480, Note_on_c, 3, 72, 0
5, 42480, Note_on_c, 3, 74, 127
5, 42600, Note_on_c, 3, 74, 0
5, 42600, Note_on_c, 3, 74, 127
5, 42720, Note_on_c, 3, 74, 0
5, 42720, Note_on_c, 3, 74, 127
5, 42840, Note_on_c, 3, 74, 0
5, 42840, Note_on_c, 3, 67, 127
5, 42840, Note_on_c, 3, 74, 127
5, 42960, Note_on_c, 3, 74, 0
5, 42960, Note_on_c, 3, 67, 0
5, 42960, End_track
6, 0, Start_track
6, 0, Title_t, "Trombe"
6, 0, Control_c, 4, 0, 0
6, 0, Control_c, 4, 7, 127
6, 0, Control_c, 4, 10, 115
6, 1, Program_c, 4, 56
6, 1080, Note_on_c, 4, 72, 50
6, 1080, Note_on_c, 4, 60, 50
6, 1160, Note_on_c, 4, 60, 0
6, 1160, Note_on_c, 4, 72, 0
6, 1440, Note_on_c, 4, 55, 70
6, 1440, Note_on_c, 4, 67, 70
6, 1520, Note_on_c, 4, 67, 0
6, 1520, Note_on_c, 4, 55, 0
6, 2520, Note_on_c, 4, 55, 50
6, 2520, Note_on_c, 4, 67, 50
6, 2600, Note_on_c, 4, 67, 0
6, 2600, Note_on_c, 4, 55, 0
6, 2880, Note_on_c, 4, 48, 70
6, 2880, Note_on_c, 4, 36, 70
6, 2960, Note_on_c, 4, 36, 0
6, 2960, Note_on_c, 4, 48, 0
6, 3240, Note_on_c, 4, 67, 127
6, 3320, Note_on_c, 4, 67, 0
6, 3600, Note_on_c, 4, 74, 127
6, 3680, Note_on_c, 4, 74, 0
6, 3960, Note_on_c, 4, 67, 127
6, 4040, Note_on_c, 4, 67, 0
6, 4320, Note_on_c, 4, 74, 127
6, 4400, Note_on_c, 4, 74, 0
6, 4680, Note_on_c, 4, 74, 127
6, 4680, Note_on_c, 4, 67, 127
6, 4760, Note_on_c, 4, 67, 0
6, 4760, Note_on_c, 4, 74, 0
6, 5040, Note_on_c, 4, 72, 127
6, 5040, Note_on_c, 4, 76, 127
6, 5120, Note_on_c, 4, 76, 0
6, 5120, Note_on_c, 4, 72, 0
6, 5400, Note_on_c, 4, 74, 127
6, 5480, Note_on_c, 4, 74, 0
6, 5760, Note_on_c, 4, 67, 127
6, 5760, Note_on_c, 4, 74, 127
6, 5840, Note_on_c, 4, 74, 0
6, 5840, Note_on_c, 4, 67, 0
6, 6840, Note_on_c, 4, 72, 50
6, 6840, Note_on_c, 4, 60, 50
6, 6920, Note_on_c, 4, 60, 0
6, 6920, Note_on_c, 4, 72, 0
6, 7200, Note_on_c, 4, 55, 70
6, 7200, Note_on_c, 4, 67, 70
6, 7280, Note_on_c, 4, 67, 0
6, 7280, Note_on_c, 4, 55, 0
6, 8280, Note_on_c, 4, 55, 50
6, 8280, Note_on_c, 4, 67, 50
6, 8360, Note_on_c, 4, 67, 0
6, 8360, Note_on_c, 4, 55, 0
6, 8640, Note_on_c, 4, 48, 70
6, 8640, Note_on_c, 4, 36, 70
6, 8720, Note_on_c, 4, 36, 0
6, 8720, Note_on_c, 4, 48, 0
6, 9000, Note_on_c, 4, 67, 127
6, 9080, Note_on_c, 4, 67, 0
6, 9360, Note_on_c, 4, 74, 127
6, 9440, Note_on_c, 4, 74, 0
6, 9720, Note_on_c, 4, 67, 127
6, 9800, Note_on_c, 4, 67, 0
6, 10080, Note_on_c, 4, 74, 127
6, 10160, Note_on_c, 4, 74, 0
6, 10440, Note_on_c, 4, 74, 127
6, 10440, Note_on_c, 4, 67, 127
6, 10520, Note_on_c, 4, 67, 0
6, 10520, Note_on_c, 4, 74, 0
6, 10800, Note_on_c, 4, 72, 127
6, 10800, Note_on_c, 4, 76, 127
6, 10880, Note_on_c, 4, 76, 0
6, 10880, Note_on_c, 4, 72, 0
6, 11160, Note_on_c, 4, 74, 127
6, 11240, Note_on_c, 4, 74, 0
6, 11520, Note_on_c, 4, 67, 127
6, 11520, Note_on_c, 4, 74, 127
6, 11600, Note_on_c, 4, 74, 0
6, 11600, Note_on_c, 4, 67, 0
6, 11880, Note_on_c, 4, 55, 50
6, 11880, Note_on_c, 4, 67, 50
6, 11960, Note_on_c, 4, 67, 0
6, 11960, Note_on_c, 4, 55, 0
6, 12600, Note_on_c, 4, 55, 55
6, 12600, Note_on_c, 4, 67, 55
6, 12680, Note_on_c, 4, 67, 0
6, 12680, Note_on_c, 4, 55, 0
6, 13320, Note_on_c, 4, 55, 60
6, 13320, Note_on_c, 4, 67, 60
6, 13400, Note_on_c, 4, 67, 0
6, 13400, Note_on_c, 4, 55, 0
6, 13680, Note_on_c, 4, 55, 63
6, 13680, Note_on_c, 4, 67, 63
6, 13760, Note_on_c, 4, 67, 0
6, 13760, Note_on_c, 4, 55, 0
6, 14040, Note_on_c, 4, 67, 66
6, 14040, Note_on_c, 4, 55, 66
6, 14120, Note_on_c, 4, 55, 0
6, 14120, Note_on_c, 4, 67, 0
6, 14400, Note_on_c, 4, 67, 69
6, 14400, Note_on_c, 4, 55, 69
6, 14480, Note_on_c, 4, 55, 0
6, 14480, Note_on_c, 4, 67, 0
6, 15240, Note_on_c, 4, 67, 127
6, 15320, Note_on_c, 4, 67, 0
6, 15360, Note_on_c, 4, 67, 127
6, 15440, Note_on_c, 4, 67, 0
6, 15480, Note_on_c, 4, 67, 127
6, 15640, Note_on_c, 4, 67, 0
6, 15720, Note_on_c, 4, 64, 127
6, 15760, Note_on_c, 4, 64, 0
6, 15780, Note_on_c, 4, 60, 127
6, 15820, Note_on_c, 4, 60, 0
6, 15840, Note_on_c, 4, 67, 127
6, 15920, Note_on_c, 4, 67, 0
6, 16560, Note_on_c, 4, 72, 127
6, 16560, Note_on_c, 4, 60, 127
6, 16640, Note_on_c, 4, 60, 0
6, 16640, Note_on_c, 4, 72, 0
6, 16680, Note_on_c, 4, 72, 127
6, 16680, Note_on_c, 4, 60, 127
6, 16760, Note_on_c, 4, 60, 0
6, 16760, Note_on_c, 4, 72, 0
6, 16800, Note_on_c, 4, 60, 127
6, 16800, Note_on_c, 4, 72, 127
6, 16880, Note_on_c, 4, 72, 0
6, 16880, Note_on_c, 4, 60, 0
6, 16920, Note_on_c, 4, 72, 127
6, 16920, Note_on_c, 4, 60, 127
6, 17000, Note_on_c, 4, 60, 0
6, 17000, Note_on_c, 4, 72, 0
6, 17040, Note_on_c, 4, 72, 127
6, 17040, Note_on_c, 4, 60, 127
6, 17120, Note_on_c, 4, 60, 0
6, 17120, Note_on_c, 4, 72, 0
6, 17160, Note_on_c, 4, 72, 127
6, 17160, Note_on_c, 4, 60, 127
6, 17240, Note_on_c, 4, 60, 0
6, 17240, Note_on_c, 4, 72, 0
6, 17280, Note_on_c, 4, 72, 127
6, 17280, Note_on_c, 4, 60, 127
6, 17360, Note_on_c, 4, 60, 0
6, 17360, Note_on_c, 4, 72, 0
6, 18000, Note_on_c, 4, 74, 127
6, 18240, Note_on_c, 4, 74, 0
6, 18360, Note_on_c, 4, 74, 127
6, 18440, Note_on_c, 4, 74, 0
6, 18480, Note_on_c, 4, 74, 127
6, 18560, Note_on_c, 4, 74, 0
6, 18600, Note_on_c, 4, 74, 127
6, 18680, Note_on_c, 4, 74, 0
6, 18720, Note_on_c, 4, 67, 127
6, 18720, Note_on_c, 4, 74, 127
6, 18800, Note_on_c, 4, 74, 0
6, 18800, Note_on_c, 4, 67, 0
6, 19440, Note_on_c, 4, 67, 127
6, 19520, Note_on_c, 4, 67, 0
6, 19560, Note_on_c, 4, 67, 127
6, 19640, Note_on_c, 4, 67, 0
6, 19680, Note_on_c, 4, 67, 127
6, 19760, Note_on_c, 4, 67, 0
6, 19800, Note_on_c, 4, 67, 127
6, 19880, Note_on_c, 4, 67, 0
6, 19920, Note_on_c, 4, 67, 127
6, 20000, Note_on_c, 4, 67, 0
6, 20040, Note_on_c, 4, 67, 127
6, 20120, Note_on_c, 4, 67, 0
6, 20160, Note_on_c, 4, 72, 127
6, 20160, Note_on_c, 4, 60, 127
6, 20240, Note_on_c, 4, 60, 0
6, 20240, Note_on_c, 4, 72, 0
6, 20520, Note_on_c, 4, 72, 127
6, 20520, Note_on_c, 4, 60, 127
6, 20600, Note_on_c, 4, 60, 0
6, 20600, Note_on_c, 4, 72, 0
6, 20880, Note_on_c, 4, 67, 127
6, 20960, Note_on_c, 4, 67, 0
6, 21000, Note_on_c, 4, 67, 127
6, 21080, Note_on_c, 4, 67, 0
6, 21120, Note_on_c, 4, 67, 127
6, 21200, Note_on_c, 4, 67, 0
6, 21240, Note_on_c, 4, 64, 127
6, 21240, Note_on_c, 4, 67, 127
6, 21320, Note_on_c, 4, 67, 0
6, 21320, Note_on_c, 4, 64, 0
6, 24480, Note_on_c, 4, 67, 127
6, 24720, Note_on_c, 4, 67, 0
6, 24840, Note_on_c, 4, 67, 127
6, 24920, Note_on_c, 4, 67, 0
6, 24960, Note_on_c, 4, 67, 127
6, 25040, Note_on_c, 4, 67, 0
6, 25080, Note_on_c, 4, 67, 127
6, 25160, Note_on_c, 4, 67, 0
6, 25200, Note_on_c, 4, 67, 127
6, 25440, Note_on_c, 4, 67, 0
6, 25560, Note_on_c, 4, 67, 127
6, 25640, Note_on_c, 4, 67, 0
6, 25680, Note_on_c, 4, 67, 127
6, 25760, Note_on_c, 4, 67, 0
6, 25800, Note_on_c, 4, 67, 127
6, 25880, Note_on_c, 4, 67, 0
6, 25920, Note_on_c, 4, 60, 127
6, 25920, Note_on_c, 4, 72, 127
6, 26000, Note_on_c, 4, 72, 0
6, 26000, Note_on_c, 4, 60, 0
6, 26040, Note_on_c, 4, 60, 127
6, 26040, Note_on_c, 4, 72, 127
6, 26120, Note_on_c, 4, 72, 0
6, 26120, Note_on_c, 4, 60, 0
6, 26160, Note_on_c, 4, 60, 127
6, 26160, Note_on_c, 4, 72, 127
6, 26240, Note_on_c, 4, 72, 0
6, 26240, Note_on_c, 4, 60, 0
6, 26280, Note_on_c, 4, 60, 127
6, 26280, Note_on_c, 4, 72, 127
6, 26360, Note_on_c, 4, 72, 0
6, 26360, Note_on_c, 4, 60, 0
6, 26640, Note_on_c, 4, 67, 127
6, 26640, Note_on_c, 4, 74, 127
6, 26720, Note_on_c, 4, 74, 0
6, 26720, Note_on_c, 4, 67, 0
6, 27000, Note_on_c, 4, 64, 127
6, 27000, Note_on_c, 4, 72, 127
6, 27080, Note_on_c, 4, 72, 0
6, 27080, Note_on_c, 4, 64, 0
6, 30240, Note_on_c, 4, 64, 127
6, 30320, Note_on_c, 4, 64, 0
6, 30480, Note_on_c, 4, 64, 127
6, 30520, Note_on_c, 4, 64, 0
6, 30540, Note_on_c, 4, 64, 127
6, 30580, Note_on_c, 4, 64, 0
6, 30600, Note_on_c, 4, 64, 127
6, 30680, Note_on_c, 4, 64, 0
6, 30840, Note_on_c, 4, 64, 127
6, 30880, Note_on_c, 4, 64, 0
6, 30900, Note_on_c, 4, 64, 127
6, 30940, Note_on_c, 4, 64, 0
6, 30960, Note_on_c, 4, 64, 127
6, 31040, Note_on_c, 4, 64, 0
6, 31200, Note_on_c, 4, 64, 127
6, 31240, Note_on_c, 4, 64, 0
6, 31260, Note_on_c, 4, 64, 127
6, 31300, Note_on_c, 4, 64, 0
6, 31320, Note_on_c, 4, 64, 127
6, 31400, Note_on_c, 4, 64, 0
6, 31560, Note_on_c, 4, 64, 127
6, 31600, Note_on_c, 4, 64, 0
6, 31620, Note_on_c, 4, 64, 127
6, 31660, Note_on_c, 4, 64, 0
6, 31680, Note_on_c, 4, 64, 127
6, 31760, Note_on_c, 4, 64, 0
6, 31920, Note_on_c, 4, 64, 127
6, 31960, Note_on_c, 4, 64, 0
6, 31980, Note_on_c, 4, 64, 127
6, 32020, Note_on_c, 4, 64, 0
6, 32040, Note_on_c, 4, 64, 127
6, 32120, Note_on_c, 4, 64, 0
6, 32280, Note_on_c, 4, 64, 127
6, 32320, Note_on_c, 4, 64, 0
6, 32340, Note_on_c, 4, 64, 127
6, 32380, Note_on_c, 4, 64, 0
6, 32400, Note_on_c, 4, 64, 127
6, 32480, Note_on_c, 4, 64, 0
6, 32640, Note_on_c, 4, 64, 127
6, 32680, Note_on_c, 4, 64, 0
6, 32700, Note_on_c, 4, 64, 127
6, 32740, Note_on_c, 4, 64, 0
6, 32760, Note_on_c, 4, 64, 127
6, 32840, Note_on_c, 4, 64, 0
6, 38160, Note_on_c, 4, 60, 50
6, 38160, Note_on_c, 4, 72, 50
6, 38240, Note_on_c, 4, 72, 0
6, 38240, Note_on_c, 4, 60, 0
6, 38520, Note_on_c, 4, 55, 70
6, 38520, Note_on_c, 4, 67, 70
6, 38600, Note_on_c, 4, 67, 0
6, 38600, Note_on_c, 4, 55, 0
6, 39600, Note_on_c, 4, 55, 50
6, 39600, Note_on_c, 4, 67, 50
6, 39680, Note_on_c, 4, 67, 0
6, 39680, Note_on_c, 4, 55, 0
6, 39960, Note_on_c, 4, 36, 70
6, 39960, Note_on_c, 4, 48, 70
6, 40040, Note_on_c, 4, 48, 0
6, 40040, Note_on_c, 4, 36, 0
6, 40320, Note_on_c, 4, 67, 127
6, 40400, Note_on_c, 4, 67, 0
6, 40680, Note_on_c, 4, 74, 127
6, 40760, Note_on_c, 4, 74, 0
6, 41040, Note_on_c, 4, 67, 127
6, 41120, Note_on_c, 4, 67, 0
6, 41400, Note_on_c, 4, 74, 127
6, 41480, Note_on_c, 4, 74, 0
6, 41760, Note_on_c, 4, 67, 127
6, 41760, Note_on_c, 4, 74, 127
6, 41840, Note_on_c, 4, 74, 0
6, 41840, Note_on_c, 4, 67, 0
6, 42120, Note_on_c, 4, 72, 127
6, 42120, Note_on_c, 4, 76, 127
6, 42200, Note_on_c, 4, 76, 0
6, 42200, Note_on_c, 4, 72, 0
6, 42480, Note_on_c, 4, 74, 127
6, 42560, Note_on_c, 4, 74, 0
6, 42840, Note_on_c, 4, 74, 127
6, 42840, Note_on_c, 4, 67, 127
6, 42920, Note_on_c, 4, 67, 0
6, 42920, Note_on_c, 4, 74, 0
6, 42920, End_track
7, 0, Start_track
7, 0, Title_t, "Timpani"
7, 0, Control_c, 5, 0, 0
7, 0, Control_c, 5, 7, 127
7, 0, Control_c, 5, 10, 64
7, 1, Program_c, 5, 47
7, 1080, Note_on_c, 5, 48, 50
7, 1160, Note_on_c, 5, 48, 0
7, 1440, Note_on_c, 5, 43, 70
7, 1520, Note_on_c, 5, 43, 0
7, 2520, Note_on_c, 5, 43, 50
7, 2600, Note_on_c, 5, 43, 0
7, 2880, Note_on_c, 5, 48, 70
7, 2960, Note_on_c, 5, 48, 0
7, 3240, Note_on_c, 5, 43, 127
7, 3320, Note_on_c, 5, 43, 0
7, 3960, Note_on_c, 5, 43, 127
7, 4040, Note_on_c, 5, 43, 0
7, 4680, Note_on_c, 5, 43, 127
7, 4760, Note_on_c, 5, 43, 0
7, 5040, Note_on_c, 5, 48, 127
7, 5120, Note_on_c, 5, 48, 0
7, 5760, Note_on_c, 5, 43, 127
7, 5840, Note_on_c, 5, 43, 0
7, 6840, Note_on_c, 5, 48, 50
7, 6920, Note_on_c, 5, 48, 0
7, 7200, Note_on_c, 5, 43, 70
7, 7280, Note_on_c, 5, 43, 0
7, 8280, Note_on_c, 5, 43, 50
7, 8360, Note_on_c, 5, 43, 0
7, 8640, Note_on_c, 5, 48, 70
7, 8720, Note_on_c, 5, 48, 0
7, 9000, Note_on_c, 5, 43, 127
7, 9080, Note_on_c, 5, 43, 0
7, 9720, Note_on_c, 5, 43, 127
7, 9800, Note_on_c, 5, 43, 0
7, 10440, Note_on_c, 5, 43, 127
7, 10520, Note_on_c, 5, 43, 0
7, 10800, Note_on_c, 5, 48, 127
7, 10880, Note_on_c, 5, 48, 0
7, 11520, Note_on_c, 5, 43, 127
7, 11600, Note_on_c, 5, 43, 0
7, 11880, Note_on_c, 5, 43, 50
7, 11960, Note_on_c, 5, 43, 0
7, 12600, Note_on_c, 5, 43, 55
7, 12680, Note_on_c, 5, 43, 0
7, 13320, Note_on_c, 5, 43, 60
7, 13400, Note_on_c, 5, 43, 0
7, 13680, Note_on_c, 5, 43, 63
7, 13760, Note_on_c, 5, 43, 0
7, 14040, Note_on_c, 5, 43, 66
7, 14120, Note_on_c, 5, 43, 0
7, 14400, Note_on_c, 5, 43, 69
7, 14480, Note_on_c, 5, 43, 0
7, 15240, Note_on_c, 5, 43, 127
7, 15320, Note_on_c, 5, 43, 0
7, 15360, Note_on_c, 5, 43, 127
7, 15440, Note_on_c, 5, 43, 0
7, 15480, Note_on_c, 5, 43, 127
7, 15560, Note_on_c, 5, 43, 0
7, 15600, Note_on_c, 5, 43, 127
7, 15680, Note_on_c, 5, 43, 0
7, 15720, Note_on_c, 5, 48, 127
7, 15800, Note_on_c, 5, 48, 0
7, 15840, Note_on_c, 5, 43, 127
7, 15920, Note_on_c, 5, 43, 0
7, 16560, Note_on_c, 5, 48, 127
7, 16720, Note_on_c, 5, 48, 0
7, 16800, Note_on_c, 5, 48, 127
7, 16840, Note_on_c, 5, 48, 0
7, 16860, Note_on_c, 5, 48, 127
7, 16900, Note_on_c, 5, 48, 0
7, 16920, Note_on_c, 5, 48, 127
7, 17000, Note_on_c, 5, 48, 0
7, 17040, Note_on_c, 5, 48, 127
7, 17120, Note_on_c, 5, 48, 0
7, 17160, Note_on_c, 5, 48, 127
7, 17240, Note_on_c, 5, 48, 0
7, 17280, Note_on_c, 5, 48, 127
7, 17360, Note_on_c, 5, 48, 0
7, 19440, Note_on_c, 5, 43, 127
7, 19600, Note_on_c, 5, 43, 0
7, 19680, Note_on_c, 5, 43, 127
7, 19720, Note_on_c, 5, 43, 0
7, 19740, Note_on_c, 5, 43, 127
7, 19780, Note_on_c, 5, 43, 0
7, 19800, Note_on_c, 5, 43, 127
7, 19880, Note_on_c, 5, 43, 0
7, 19920, Note_on_c, 5, 43, 127
7, 20000, Note_on_c, 5, 43, 0
7, 20040, Note_on_c, 5, 43, 127
7, 20120, Note_on_c, 5, 43, 0
7, 20160, Note_on_c, 5, 48, 127
7, 20240, Note_on_c, 5, 48, 0
7, 20520, Note_on_c, 5, 48, 127
7, 20600, Note_on_c, 5, 48, 0
7, 20880, Note_on_c, 5, 43, 127
7, 20960, Note_on_c, 5, 43, 0
7, 21000, Note_on_c, 5, 43, 127
7, 21080, Note_on_c, 5, 43, 0
7, 21120, Note_on_c, 5, 43, 127
7, 21200, Note_on_c, 5, 43, 0
7, 21240, Note_on_c, 5, 48, 127
7, 21320, Note_on_c, 5, 48, 0
7, 24480, Note_on_c, 5, 48, 127
7, 24560, Note_on_c, 5, 48, 0
7, 24720, Note_on_c, 5, 48, 127
7, 24760, Note_on_c, 5, 48, 0
7, 24780, Note_on_c, 5, 48, 127
7, 24820, Note_on_c, 5, 48, 0
7, 24840, Note_on_c, 5, 43, 127
7, 24920, Note_on_c, 5, 43, 0
7, 24960, Note_on_c, 5, 43, 127
7, 25040, Note_on_c, 5, 43, 0
7, 25080, Note_on_c, 5, 43, 127
7, 25160, Note_on_c, 5, 43, 0
7, 25200, Note_on_c, 5, 48, 127
7, 25280, Note_on_c, 5, 48, 0
7, 25440, Note_on_c, 5, 48, 127
7, 25480, Note_on_c, 5, 48, 0
7, 25500, Note_on_c, 5, 48, 127
7, 25540, Note_on_c, 5, 48, 0
7, 25560, Note_on_c, 5, 43, 127
7, 25640, Note_on_c, 5, 43, 0
7, 25680, Note_on_c, 5, 43, 127
7, 25760, Note_on_c, 5, 43, 0
7, 25800, Note_on_c, 5, 43, 127
7, 25880, Note_on_c, 5, 43, 0
7, 25920, Note_on_c, 5, 48, 127
7, 26000, Note_on_c, 5, 48, 0
7, 26040, Note_on_c, 5, 48, 127
7, 26120, Note_on_c, 5, 48, 0
7, 26160, Note_on_c, 5, 48, 127
7, 26240, Note_on_c, 5, 48, 0
7, 26280, Note_on_c, 5, 48, 127
7, 26360, Note_on_c, 5, 48, 0
7, 26640, Note_on_c, 5, 43, 127
7, 26720, Note_on_c, 5, 43, 0
7, 27000, Note_on_c, 5, 48, 127
7, 27080, Note_on_c, 5, 48, 0
7, 38160, Note_on_c, 5, 48, 50
7, 38240, Note_on_c, 5, 48, 0
7, 38520, Note_on_c, 5, 43, 70
7, 38600, Note_on_c, 5, 43, 0
7, 39600, Note_on_c, 5, 43, 50
7, 39680, Note_on_c, 5, 43, 0
7, 39960, Note_on_c, 5, 48, 70
7, 40040, Note_on_c, 5, 48, 0
7, 40320, Note_on_c, 5, 43, 127
7, 40400, Note_on_c, 5, 43, 0
7, 41040, Note_on_c, 5, 43, 127
7, 41120, Note_on_c, 5, 43, 0
7, 41760, Note_on_c, 5, 43, 127
7, 41840, Note_on_c, 5, 43, 0
7, 42120, Note_on_c, 5, 48, 127
7, 42200, Note_on_c, 5, 48, 0
7, 42840, Note_on_c, 5, 43, 127
7, 42920, Note_on_c, 5, 43, 0
7, 42920, End_track
8, 0, Start_track
8, 0, Title_t, "Violini I."
8, 0, Control_c, 6, 0, 0
8, 0, Control_c, 6, 7, 127
8, 0, Control_c, 6, 10, 25
8, 1, Program_c, 6, 48
8, 360, Note_on_c, 6, 79, 50
8, 600, Note_on_c, 6, 79, 0
8, 600, Note_on_c, 6, 78, 50
8, 720, Note_on_c, 6, 78, 0
8, 720, Note_on_c, 6, 77, 50
8, 840, Note_on_c, 6, 77, 0
8, 840, Note_on_c, 6, 76, 50
8, 960, Note_on_c, 6, 76, 0
8, 960, Note_on_c, 6, 74, 50
8, 1080, Note_on_c, 6, 74, 0
8, 1080, Note_on_c, 6, 72, 50
8, 1140, Note_on_c, 6, 72, 0
8, 1200, Note_on_c, 6, 71, 56
8, 1260, Note_on_c, 6, 71, 0
8, 1320, Note_on_c, 6, 72, 63
8, 1380, Note_on_c, 6, 72, 0
8, 1440, Note_on_c, 6, 76, 70
8, 1680, Note_on_c, 6, 76, 0
8, 1680, Note_on_c, 6, 74, 50
8, 1740, Note_on_c, 6, 74, 0
8, 1800, Note_on_c, 6, 81, 50
8, 2040, Note_on_c, 6, 81, 0
8, 2040, Note_on_c, 6, 79, 50
8, 2160, Note_on_c, 6, 79, 0
8, 2160, Note_on_c, 6, 78, 50
8, 2280, Note_on_c, 6, 78, 0
8, 2280, Note_on_c, 6, 77, 50
8, 2400, Note_on_c, 6, 77, 0
8, 2400, Note_on_c, 6, 76, 50
8, 2520, Note_on_c, 6, 76, 0
8, 2520, Note_on_c, 6, 74, 50
8, 2580, Note_on_c, 6, 74, 0
8, 2640, Note_on_c, 6, 72, 56
8, 2700, Note_on_c, 6, 72, 0
8, 2760, Note_on_c, 6, 74, 63
8, 2820, Note_on_c, 6, 74, 0
8, 2880, Note_on_c, 6, 77, 70
8, 3120, Note_on_c, 6, 77, 0
8, 3120, Note_on_c, 6, 76, 60
8, 3180, Note_on_c, 6, 76, 0
8, 3240, Note_on_c, 6, 86, 127
8, 3480, Note_on_c, 6, 86, 0
8, 3480, Note_on_c, 6, 85, 127
8, 3600, Note_on_c, 6, 85, 0
8, 3600, Note_on_c, 6, 84, 127
8, 3660, Note_on_c, 6, 84, 0
8, 3720, Note_on_c, 6, 81, 127
8, 3780, Note_on_c, 6, 81, 0
8, 3840, Note_on_c, 6, 78, 127
8, 3900, Note_on_c, 6, 78, 0
8, 3960, Note_on_c, 6, 86, 127
8, 4200, Note_on_c, 6, 86, 0
8, 4200, Note_on_c, 6, 85, 127
8, 4320, Note_on_c, 6, 85, 0
8, 4320, Note_on_c, 6, 84, 127
8, 4380, Note_on_c, 6, 84, 0
8, 4440, Note_on_c, 6, 81, 127
8, 4500, Note_on_c, 6, 81, 0
8, 4560, Note_on_c, 6, 78, 127
8, 4620, Note_on_c, 6, 78, 0
8, 4680, Note_on_c, 6, 86, 127
8, 4740, Note_on_c, 6, 86, 0
8, 4800, Note_on_c, 6, 86, 127
8, 4860, Note_on_c, 6, 86, 0
8, 4920, Note_on_c, 6, 86, 127
8, 4980, Note_on_c, 6, 86, 0
8, 5040, Note_on_c, 6, 88, 127
8, 5280, Note_on_c, 6, 88, 0
8, 5280, Note_on_c, 6, 84, 127
8, 5340, Note_on_c, 6, 84, 0
8, 5340, Note_on_c, 6, 81, 127
8, 5400, Note_on_c, 6, 81, 0
8, 5400, Note_on_c, 6, 84, 127
8, 5640, Note_on_c, 6, 84, 0
8, 5640, Note_on_c, 6, 81, 127
8, 5700, Note_on_c, 6, 81, 0
8, 5700, Note_on_c, 6, 78, 127
8, 5760, Note_on_c, 6, 78, 0
8, 5760, Note_on_c, 6, 79, 127
8, 5880, Note_on_c, 6, 79, 0
8, 6120, Note_on_c, 6, 79, 50
8, 6360, Note_on_c, 6, 79, 0
8, 6360, Note_on_c, 6, 78, 50
8, 6480, Note_on_c, 6, 78, 0
8, 6480, Note_on_c, 6, 77, 50
8, 6600, Note_on_c, 6, 77, 0
8, 6600, Note_on_c, 6, 76, 50
8, 6720, Note_on_c, 6, 76, 0
8, 6720, Note_on_c, 6, 74, 50
8, 6840, Note_on_c, 6, 74, 0
8, 6840, Note_on_c, 6, 72, 50
8, 6900, Note_on_c, 6, 72, 0
8, 6960, Note_on_c, 6, 71, 56
8, 7020, Note_on_c, 6, 71, 0
8, 7080, Note_on_c, 6, 72, 63
8, 7140, Note_on_c, 6, 72, 0
8, 7200, Note_on_c, 6, 76, 70
8, 7440, Note_on_c, 6, 76, 0
8, 7440, Note_on_c, 6, 74, 50
8, 7500, Note_on_c, 6, 74, 0
8, 7560, Note_on_c, 6, 81, 50
8, 7800, Note_on_c, 6, 81, 0
8, 7800, Note_on_c, 6, 79, 50
8, 7920, Note_on_c, 6, 79, 0
8, 7920, Note_on_c, 6, 78, 50
8, 8040, Note_on_c, 6, 78, 0
8, 8040, Note_on_c, 6, 77, 50
8, 8160, Note_on_c, 6, 77, 0
8, 8160, Note_on_c, 6, 76, 50
8, 8280, Note_on_c, 6, 76, 0
8, 8280, Note_on_c, 6, 74, 50
8, 8340, Note_on_c, 6, 74, 0
8, 8400, Note_on_c, 6, 72, 56
8, 8460, Note_on_c, 6, 72, 0
8, 8520, Note_on_c, 6, 74, 63
8, 8580, Note_on_c, 6, 74, 0
8, 8640, Note_on_c, 6, 77, 70
8, 8880, Note_on_c, 6, 77, 0
8, 8880, Note_on_c, 6, 76, 60
8, 8940, Note_on_c, 6, 76, 0
8, 9000, Note_on_c, 6, 86, 127
8, 9240, Note_on_c, 6, 86, 0
8, 9240, Note_on_c, 6, 85, 127
8, 9360, Note_on_c, 6, 85, 0
8, 9360, Note_on_c, 6, 84, 127
8, 9420, Note_on_c, 6, 84, 0
8, 9480, Note_on_c, 6, 81, 127
8, 9540, Note_on_c, 6, 81, 0
8, 9600, Note_on_c, 6, 78, 127
8, 9660, Note_on_c, 6, 78, 0
8, 9720, Note_on_c, 6, 86, 127
8, 9960, Note_on_c, 6, 86, 0
8, 9960, Note_on_c, 6, 85, 127
8, 10080, Note_on_c, 6, 85, 0
8, 10080, Note_on_c, 6, 84, 127
8, 10140, Note_on_c, 6, 84, 0
8, 10200, Note_on_c, 6, 81, 127
8, 10260, Note_on_c, 6, 81, 0
8, 10320, Note_on_c, 6, 78, 127
8, 10380, Note_on_c, 6, 78, 0
8, 10440, Note_on_c, 6, 86, 127
8, 10500, Note_on_c, 6, 86, 0
8, 10560, Note_on_c, 6, 86, 127
8, 10620, Note_on_c, 6, 86, 0
8, 10680, Note_on_c, 6, 86, 127
8, 10740, Note_on_c, 6, 86, 0
8, 10800, Note_on_c, 6, 88, 127
8, 11040, Note_on_c, 6, 88, 0
8, 11040, Note_on_c, 6, 84, 127
8, 11100, Note_on_c, 6, 84, 0
8, 11100, Note_on_c, 6, 81, 127
8, 11160, Note_on_c, 6, 81, 0
8, 11160, Note_on_c, 6, 84, 127
8, 11400, Note_on_c, 6, 84, 0
8, 11400, Note_on_c, 6, 81, 127
8, 11460, Note_on_c, 6, 81, 0
8, 11460, Note_on_c, 6, 78, 127
8, 11520, Note_on_c, 6, 78, 0
8, 11520, Note_on_c, 6, 79, 127
8, 11640, Note_on_c, 6, 79, 0
8, 11880, Note_on_c, 6, 62, 50
8, 12120, Note_on_c, 6, 62, 0
8, 12120, Note_on_c, 6, 61, 51
8, 12240, Note_on_c, 6, 61, 0
8, 12240, Note_on_c, 6, 60, 52
8, 12480, Note_on_c, 6, 60, 0
8, 12480, Note_on_c, 6, 59, 54
8, 12600, Note_on_c, 6, 59, 0
8, 12600, Note_on_c, 6, 65, 55
8, 12840, Note_on_c, 6, 65, 0
8, 12840, Note_on_c, 6, 64, 57
8, 12960, Note_on_c, 6, 64, 0
8, 12960, Note_on_c, 6, 63, 58
8, 13200, Note_on_c, 6, 63, 0
8, 13200, Note_on_c, 6, 62, 60
8, 13320, Note_on_c, 6, 62, 0
8, 13320, Note_on_c, 6, 69, 60
8, 13560, Note_on_c, 6, 69, 0
8, 13560, Note_on_c, 6, 67, 62
8, 13680, Note_on_c, 6, 67, 0
8, 13680, Note_on_c, 6, 66, 63
8, 13800, Note_on_c, 6, 66, 0
8, 13800, Note_on_c, 6, 74, 64
8, 13920, Note_on_c, 6, 74, 0
8, 13920, Note_on_c, 6, 65, 65
8, 14040, Note_on_c, 6, 65, 0
8, 14040, Note_on_c, 6, 64, 66
8, 14160, Note_on_c, 6, 64, 0
8, 14160, Note_on_c, 6, 72, 67
8, 14280, Note_on_c, 6, 72, 0
8, 14280, Note_on_c, 6, 63, 68
8, 14400, Note_on_c, 6, 63, 0
8, 14400, Note_on_c, 6, 62, 69
8, 14520, Note_on_c, 6, 62, 0
8, 14520, Note_on_c, 6, 67, 127
8, 14640, Note_on_c, 6, 67, 0
8, 14640, Note_on_c, 6, 67, 127
8, 14760, Note_on_c, 6, 67, 0
8, 14760, Note_on_c, 6, 67, 127
8, 15000, Note_on_c, 6, 67, 0
8, 15000, Note_on_c, 6, 64, 127
8, 15060, Note_on_c, 6, 64, 0
8, 15060, Note_on_c, 6, 60, 127
8, 15120, Note_on_c, 6, 60, 0
8, 15120, Note_on_c, 6, 67, 127
8, 15240, Note_on_c, 6, 67, 0
8, 15840, Note_on_c, 6, 79, 127
8, 16080, Note_on_c, 6, 79, 0
8, 16080, Note_on_c, 6, 78, 127
8, 16200, Note_on_c, 6, 78, 0
8, 16200, Note_on_c, 6, 77, 127
8, 16320, Note_on_c, 6, 77, 0
8, 16320, Note_on_c, 6, 76, 127
8, 16440, Note_on_c, 6, 76, 0
8, 16440, Note_on_c, 6, 74, 127
8, 16560, Note_on_c, 6, 74, 0
8, 16560, Note_on_c, 6, 72, 127
8, 16620, Note_on_c, 6, 72, 0
8, 16680, Note_on_c, 6, 60, 127
8, 16740, Note_on_c, 6, 60, 0
8, 16800, Note_on_c, 6, 74, 127
8, 16860, Note_on_c, 6, 74, 0
8, 16860, Note_on_c, 6, 72, 127
8, 16890, Note_on_c, 6, 72, 0
8, 16890, Note_on_c, 6, 74, 127
8, 16920, Note_on_c, 6, 74, 0
8, 16920, Note_on_c, 6, 76, 127
8, 16980, Note_on_c, 6, 76, 0
8, 17040, Note_on_c, 6, 77, 127
8, 17100, Note_on_c, 6, 77, 0
8, 17160, Note_on_c, 6, 79, 127
8, 17220, Note_on_c, 6, 79, 0
8, 17280, Note_on_c, 6, 81, 127
8, 17520, Note_on_c, 6, 81, 0
8, 17520, Note_on_c, 6, 80, 127
8, 17640, Note_on_c, 6, 80, 0
8, 17640, Note_on_c, 6, 79, 127
8, 17760, Note_on_c, 6, 79, 0
8, 17760, Note_on_c, 6, 78, 127
8, 17880, Note_on_c, 6, 78, 0
8, 17880, Note_on_c, 6, 76, 127
8, 18000, Note_on_c, 6, 76, 0
8, 18000, Note_on_c, 6, 74, 127
8, 18060, Note_on_c, 6, 74, 0
8, 18120, Note_on_c, 6, 62, 127
8, 18180, Note_on_c, 6, 62, 0
8, 18240, Note_on_c, 6, 79, 127
8, 18300, Note_on_c, 6, 79, 0
8, 18300, Note_on_c, 6, 78, 127
8, 18330, Note_on_c, 6, 78, 0
8, 18330, Note_on_c, 6, 79, 127
8, 18360, Note_on_c, 6, 79, 0
8, 18360, Note_on_c, 6, 81, 127
8, 18420, Note_on_c, 6, 81, 0
8, 18480, Note_on_c, 6, 83, 127
8, 18540, Note_on_c, 6, 83, 0
8, 18600, Note_on_c, 6, 84, 127
8, 18660, Note_on_c, 6, 84, 0
8, 18720, Note_on_c, 6, 86, 127
8, 18960, Note_on_c, 6, 86, 0
8, 18960, Note_on_c, 6, 85, 127
8, 19080, Note_on_c, 6, 85, 0
8, 19080, Note_on_c, 6, 84, 127
8, 19200, Note_on_c, 6, 84, 0
8, 19200, Note_on_c, 6, 83, 127
8, 19320, Note_on_c, 6, 83, 0
8, 19320, Note_on_c, 6, 81, 127
8, 19440, Note_on_c, 6, 81, 0
8, 19440, Note_on_c, 6, 79, 127
8, 19500, Note_on_c, 6, 79, 0
8, 19560, Note_on_c, 6, 67, 127
8, 19620, Note_on_c, 6, 67, 0
8, 19680, Note_on_c, 6, 81, 127
8, 19740, Note_on_c, 6, 81, 0
8, 19740, Note_on_c, 6, 79, 127
8, 19770, Note_on_c, 6, 79, 0
8, 19770, Note_on_c, 6, 81, 127
8, 19800, Note_on_c, 6, 81, 0
8, 19800, Note_on_c, 6, 83, 127
8, 19860, Note_on_c, 6, 83, 0
8, 19920, Note_on_c, 6, 84, 127
8, 19980, Note_on_c, 6, 84, 0
8, 20040, Note_on_c, 6, 86, 127
8, 20100, Note_on_c, 6, 86, 0
8, 20160, Note_on_c, 6, 88, 127
8, 20220, Note_on_c, 6, 88, 0
8, 20280, Note_on_c, 6, 83, 127
8, 20400, Note_on_c, 6, 83, 0
8, 20400, Note_on_c, 6, 84, 127
8, 20520, Note_on_c, 6, 84, 0
8, 20520, Note_on_c, 6, 81, 127
8, 20580, Note_on_c, 6, 81, 0
8, 20640, Note_on_c, 6, 76, 127
8, 20760, Note_on_c, 6, 76, 0
8, 20760, Note_on_c, 6, 77, 127
8, 20880, Note_on_c, 6, 77, 0
8, 20880, Note_on_c, 6, 79, 127
8, 20940, Note_on_c, 6, 79, 0
8, 20940, Note_on_c, 6, 81, 127
8, 21000, Note_on_c, 6, 81, 0
8, 21000, Note_on_c, 6, 79, 127
8, 21030, Note_on_c, 6, 79, 0
8, 21060, Note_on_c, 6, 76, 127
8, 21120, Note_on_c, 6, 76, 0
8, 21120, Note_on_c, 6, 77, 127
8, 21150, Note_on_c, 6, 77, 0
8, 21180, Note_on_c, 6, 74, 127
8, 21210, Note_on_c, 6, 74, 0
8, 21240, Note_on_c, 6, 72, 127
8, 21360, Note_on_c, 6, 72, 0
8, 24480, Note_on_c, 6, 79, 127
8, 24720, Note_on_c, 6, 79, 0
8, 24720, Note_on_c, 6, 78, 127
8, 24840, Note_on_c, 6, 78, 0
8, 24840, Note_on_c, 6, 77, 127
8, 24900, Note_on_c, 6, 77, 0
8, 24960, Note_on_c, 6, 74, 127
8, 25020, Note_on_c, 6, 74, 0
8, 25080, Note_on_c, 6, 71, 127
8, 25140, Note_on_c, 6, 71, 0
8, 25200, Note_on_c, 6, 79, 127
8, 25440, Note_on_c, 6, 79, 0
8, 25440, Note_on_c, 6, 78, 127
8, 25560, Note_on_c, 6, 78, 0
8, 25560, Note_on_c, 6, 77, 127
8, 25620, Note_on_c, 6, 77, 0
8, 25680, Note_on_c, 6, 86, 127
8, 25740, Note_on_c, 6, 86, 0
8, 25800, Note_on_c, 6, 83, 127
8, 25860, Note_on_c, 6, 83, 0
8, 25920, Note_on_c, 6, 84, 127
8, 25980, Note_on_c, 6, 84, 0
8, 26040, Note_on_c, 6, 84, 127
8, 26100, Note_on_c, 6, 84, 0
8, 26160, Note_on_c, 6, 84, 127
8, 26220, Note_on_c, 6, 84, 0
8, 26280, Note_on_c, 6, 81, 127
8, 26520, Note_on_c, 6, 81, 0
8, 26520, Note_on_c, 6, 77, 127
8, 26580, Note_on_c, 6, 77, 0
8, 26580, Note_on_c, 6, 74, 127
8, 26640, Note_on_c, 6, 74, 0
8, 26640, Note_on_c, 6, 77, 127
8, 26880, Note_on_c, 6, 77, 0
8, 26880, Note_on_c, 6, 74, 127
8, 26940, Note_on_c, 6, 74, 0
8, 26940, Note_on_c, 6, 71, 127
8, 27000, Note_on_c, 6, 71, 0
8, 27000, Note_on_c, 6, 72, 127
8, 27120, Note_on_c, 6, 72, 0
8, 27960, Note_on_c, 6, 69, 50
8, 28020, Note_on_c, 6, 69, 0
8, 28020, Note_on_c, 6, 67, 50
8, 28080, Note_on_c, 6, 67, 0
8, 28080, Note_on_c, 6, 66, 50
8, 28140, Note_on_c, 6, 66, 0
8, 28140, Note_on_c, 6, 67, 50
8, 28200, Note_on_c, 6, 67, 0
8, 28200, Note_on_c, 6, 65, 50
8, 28230, Note_on_c, 6, 65, 0
8, 28260, Note_on_c, 6, 62, 50
8, 28290, Note_on_c, 6, 62, 0
8, 28320, Note_on_c, 6, 64, 50
8, 28350, Note_on_c, 6, 64, 0
8, 28380, Note_on_c, 6, 60, 50
8, 28410, Note_on_c, 6, 60, 0
8, 28440, Note_on_c, 6, 64, 50
8, 28500, Note_on_c, 6, 64, 0
8, 28500, Note_on_c, 6, 62, 50
8, 28560, Note_on_c, 6, 62, 0
8, 28560, Note_on_c, 6, 60, 50
8, 28590, Note_on_c, 6, 60, 0
8, 28620, Note_on_c, 6, 59, 50
8, 28650, Note_on_c, 6, 59, 0
8, 28680, Note_on_c, 6, 57, 50
8, 28710, Note_on_c, 6, 57, 0
8, 28740, Note_on_c, 6, 55, 50
8, 28770, Note_on_c, 6, 55, 0
8, 29400, Note_on_c, 6, 69, 50
8, 29460, Note_on_c, 6, 69, 0
8, 29460, Note_on_c, 6, 67, 50
8, 29520, Note_on_c, 6, 67, 0
8, 29520, Note_on_c, 6, 66, 50
8, 29580, Note_on_c, 6, 66, 0
8, 29580, Note_on_c, 6, 67, 50
8, 29640, Note_on_c, 6, 67, 0
8, 29640, Note_on_c, 6, 65, 50
8, 29670, Note_on_c, 6, 65, 0
8, 29700, Note_on_c, 6, 62, 50
8, 29730, Note_on_c, 6, 62, 0
8, 29760, Note_on_c, 6, 59, 50
8, 29790, Note_on_c, 6, 59, 0
8, 29820, Note_on_c, 6, 62, 50
8, 29850, Note_on_c, 6, 62, 0
8, 29880, Note_on_c, 6, 60, 50
8, 29940, Note_on_c, 6, 60, 0
8, 30000, Note_on_c, 6, 64, 50
8, 30120, Note_on_c, 6, 64, 0
8, 30120, Note_on_c, 6, 60, 50
8, 30180, Note_on_c, 6, 60, 0
8, 30240, Note_on_c, 6, 80, 127
8, 30600, Note_on_c, 6, 80, 0
8, 30600, Note_on_c, 6, 81, 127
8, 30960, Note_on_c, 6, 81, 0
8, 30960, Note_on_c, 6, 84, 127
8, 31320, Note_on_c, 6, 84, 0
8, 31320, Note_on_c, 6, 83, 127
8, 31680, Note_on_c, 6, 83, 0
8, 31680, Note_on_c, 6, 86, 127
8, 32040, Note_on_c, 6, 86, 0
8, 32040, Note_on_c, 6, 84, 127
8, 32400, Note_on_c, 6, 84, 0
8, 32400, Note_on_c, 6, 75, 127
8, 32760, Note_on_c, 6, 75, 0
8, 32760, Note_on_c, 6, 76, 70
8, 33120, Note_on_c, 6, 76, 0
8, 33120, Note_on_c, 6, 75, 50
8, 33480, Note_on_c, 6, 75, 0
8, 33480, Note_on_c, 6, 76, 50
8, 33840, Note_on_c, 6, 76, 0
8, 33840, Note_on_c, 6, 73, 50
8, 34200, Note_on_c, 6, 73, 0
8, 34200, Note_on_c, 6, 74, 50
8, 34560, Note_on_c, 6, 74, 0
8, 35160, Note_on_c, 6, 69, 50
8, 35220, Note_on_c, 6, 69, 0
8, 35220, Note_on_c, 6, 67, 50
8, 35280, Note_on_c, 6, 67, 0
8, 35280, Note_on_c, 6, 66, 50
8, 35340, Note_on_c, 6, 66, 0
8, 35340, Note_on_c, 6, 67, 50
8, 35400, Note_on_c, 6, 67, 0
8, 35400, Note_on_c, 6, 65, 50
8, 35430, Note_on_c, 6, 65, 0
8, 35460, Note_on_c, 6, 62, 50
8, 35490, Note_on_c, 6, 62, 0
8, 35520, Note_on_c, 6, 64, 50
8, 35550, Note_on_c, 6, 64, 0
8, 35580, Note_on_c, 6, 60, 50
8, 35610, Note_on_c, 6, 60, 0
8, 35640, Note_on_c, 6, 64, 50
8, 35700, Note_on_c, 6, 64, 0
8, 35700, Note_on_c, 6, 62, 50
8, 35760, Note_on_c, 6, 62, 0
8, 35760, Note_on_c, 6, 60, 50
8, 35790, Note_on_c, 6, 60, 0
8, 35820, Note_on_c, 6, 59, 50
8, 35850, Note_on_c, 6, 59, 0
8, 35880, Note_on_c, 6, 57, 50
8, 35910, Note_on_c, 6, 57, 0
8, 35940, Note_on_c, 6, 55, 50
8, 35970, Note_on_c, 6, 55, 0
8, 36600, Note_on_c, 6, 69, 50
8, 36660, Note_on_c, 6, 69, 0
8, 36660, Note_on_c, 6, 67, 50
8, 36720, Note_on_c, 6, 67, 0
8, 36720, Note_on_c, 6, 66, 50
8, 36780, Note_on_c, 6, 66, 0
8, 36780, Note_on_c, 6, 67, 50
8, 36840, Note_on_c, 6, 67, 0
8, 36840, Note_on_c, 6, 65, 50
8, 36870, Note_on_c, 6, 65, 0
8, 36900, Note_on_c, 6, 62, 50
8, 36930, Note_on_c, 6, 62, 0
8, 36960, Note_on_c, 6, 59, 50
8, 37020, Note_on_c, 6, 59, 0
8, 37020, Note_on_c, 6, 62, 50
8, 37080, Note_on_c, 6, 62, 0
8, 37080, Note_on_c, 6, 60, 50
8, 37140, Note_on_c, 6, 60, 0
8, 37200, Note_on_c, 6, 64, 50
8, 37320, Note_on_c, 6, 64, 0
8, 37320, Note_on_c, 6, 60, 50
8, 37380, Note_on_c, 6, 60, 0
8, 37440, Note_on_c, 6, 79, 50
8, 37680, Note_on_c, 6, 79, 0
8, 37680, Note_on_c, 6, 78, 50
8, 37800, Note_on_c, 6, 78, 0
8, 37800, Note_on_c, 6, 77, 50
8, 37920, Note_on_c, 6, 77, 0
8, 37920, Note_on_c, 6, 76, 50
8, 38040, Note_on_c, 6, 76, 0
8, 38040, Note_on_c, 6, 74, 50
8, 38160, Note_on_c, 6, 74, 0
8, 38160, Note_on_c, 6, 72, 50
8, 38220, Note_on_c, 6, 72, 0
8, 38280, Note_on_c, 6, 71, 56
8, 38340, Note_on_c, 6, 71, 0
8, 38400, Note_on_c, 6, 72, 63
8, 38460, Note_on_c, 6, 72, 0
8, 38520, Note_on_c, 6, 76, 70
8, 38760, Note_on_c, 6, 76, 0
8, 38760, Note_on_c, 6, 74, 50
8, 38820, Note_on_c, 6, 74, 0
8, 38880, Note_on_c, 6, 81, 50
8, 39120, Note_on_c, 6, 81, 0
8, 39120, Note_on_c, 6, 79, 50
8, 39240, Note_on_c, 6, 79, 0
8, 39240, Note_on_c, 6, 78, 50
8, 39360, Note_on_c, 6, 78, 0
8, 39360, Note_on_c, 6, 77, 50
8, 39480, Note_on_c, 6, 77, 0
8, 39480, Note_on_c, 6, 76, 50
8, 39600, Note_on_c, 6, 76, 0
8, 39600, Note_on_c, 6, 74, 50
8, 39660, Note_on_c, 6, 74, 0
8, 39720, Note_on_c, 6, 72, 56
8, 39780, Note_on_c, 6, 72, 0
8, 39840, Note_on_c, 6, 74, 63
8, 39900, Note_on_c, 6, 74, 0
8, 39960, Note_on_c, 6, 77, 70
8, 40200, Note_on_c, 6, 77, 0
8, 40200, Note_on_c, 6, 76, 60
8, 40260, Note_on_c, 6, 76, 0
8, 40320, Note_on_c, 6, 86, 127
8, 40560, Note_on_c, 6, 86, 0
8, 40560, Note_on_c, 6, 85, 127
8, 40680, Note_on_c, 6, 85, 0
8, 40680, Note_on_c, 6, 84, 127
8, 40740, Note_on_c, 6, 84, 0
8, 40800, Note_on_c, 6, 81, 127
8, 40860, Note_on_c, 6, 81, 0
8, 40920, Note_on_c, 6, 78, 127
8, 40980, Note_on_c, 6, 78, 0
8, 41040, Note_on_c, 6, 86, 127
8, 41280, Note_on_c, 6, 86, 0
8, 41280, Note_on_c, 6, 85, 127
8, 41400, Note_on_c, 6, 85, 0
8, 41400, Note_on_c, 6, 84, 127
8, 41460, Note_on_c, 6, 84, 0
8, 41520, Note_on_c, 6, 81, 127
8, 41580, Note_on_c, 6, 81, 0
8, 41640, Note_on_c, 6, 78, 127
8, 41700, Note_on_c, 6, 78, 0
8, 41760, Note_on_c, 6, 86, 127
8, 41820, Note_on_c, 6, 86, 0
8, 41880, Note_on_c, 6, 86, 127
8, 41940, Note_on_c, 6, 86, 0
8, 42000, Note_on_c, 6, 86, 127
8, 42060, Note_on_c, 6, 86, 0
8, 42120, Note_on_c, 6, 88, 127
8, 42360, Note_on_c, 6, 88, 0
8, 42360, Note_on_c, 6, 84, 127
8, 42420, Note_on_c, 6, 84, 0
8, 42420, Note_on_c, 6, 81, 127
8, 42480, Note_on_c, 6, 81, 0
8, 42480, Note_on_c, 6, 84, 127
8, 42720, Note_on_c, 6, 84, 0
8, 42720, Note_on_c, 6, 81, 127
8, 42780, Note_on_c, 6, 81, 0
8, 42780, Note_on_c, 6, 78, 127
8, 42840, Note_on_c, 6, 78, 0
8, 42840, Note_on_c, 6, 79, 127
8, 42960, Note_on_c, 6, 79, 0
8, 42960, End_track
9, 0, Start_track
9, 0, Title_t, "Violini II."
9, 0, Control_c, 7, 0, 0
9, 0, Control_c, 7, 7, 105
9, 0, Control_c, 7, 10, 44
9, 1, Program_c, 7, 49
9, 360, Note_on_c, 7, 64, 50
9, 400, Note_on_c, 7, 64, 0
9, 420, Note_on_c, 7, 67, 50
9, 460, Note_on_c, 7, 67, 0
9, 480, Note_on_c, 7, 64, 50
9, 520, Note_on_c, 7, 64, 0
9, 540, Note_on_c, 7, 67, 50
9, 580, Note_on_c, 7, 67, 0
9, 600, Note_on_c, 7, 62, 50
9, 640, Note_on_c, 7, 62, 0
9, 660, Note_on_c, 7, 67, 50
9, 700, Note_on_c, 7, 67, 0
9, 720, Note_on_c, 7, 60, 50
9, 760, Note_on_c, 7, 60, 0
9, 780, Note_on_c, 7, 67, 50
9, 820, Note_on_c, 7, 67, 0
9, 840, Note_on_c, 7, 60, 50
9, 880, Note_on_c, 7, 60, 0
9, 900, Note_on_c, 7, 67, 50
9, 940, Note_on_c, 7, 67, 0
9, 960, Note_on_c, 7, 65, 50
9, 1000, Note_on_c, 7, 65, 0
9, 1020, Note_on_c, 7, 67, 50
9, 1060, Note_on_c, 7, 67, 0
9, 1080, Note_on_c, 7, 64, 50
9, 1120, Note_on_c, 7, 64, 0
9, 1140, Note_on_c, 7, 67, 53
9, 1180, Note_on_c, 7, 67, 0
9, 1200, Note_on_c, 7, 62, 56
9, 1240, Note_on_c, 7, 62, 0
9, 1260, Note_on_c, 7, 67, 60
9, 1300, Note_on_c, 7, 67, 0
9, 1320, Note_on_c, 7, 64, 63
9, 1360, Note_on_c, 7, 64, 0
9, 1380, Note_on_c, 7, 67, 66
9, 1420, Note_on_c, 7, 67, 0
9, 1440, Note_on_c, 7, 60, 70
9, 1480, Note_on_c, 7, 60, 0
9, 1500, Note_on_c, 7, 67, 70
9, 1540, Note_on_c, 7, 67, 0
9, 1560, Note_on_c, 7, 60, 70
9, 1600, Note_on_c, 7, 60, 0
9, 1620, Note_on_c, 7, 67, 70
9, 1660, Note_on_c, 7, 67, 0
9, 1680, Note_on_c, 7, 59, 50
9, 1720, Note_on_c, 7, 59, 0
9, 1740, Note_on_c, 7, 67, 50
9, 1780, Note_on_c, 7, 67, 0
9, 1800, Note_on_c, 7, 65, 50
9, 1840, Note_on_c, 7, 65, 0
9, 1860, Note_on_c, 7, 67, 50
9, 1900, Note_on_c, 7, 67, 0
9, 1920, Note_on_c, 7, 65, 50
9, 1960, Note_on_c, 7, 65, 0
9, 1980, Note_on_c, 7, 67, 50
9, 2020, Note_on_c, 7, 67, 0
9, 2040, Note_on_c, 7, 64, 50
9, 2080, Note_on_c, 7, 64, 0
9, 2100, Note_on_c, 7, 67, 50
9, 2140, Note_on_c, 7, 67, 0
9, 2160, Note_on_c, 7, 62, 50
9, 2200, Note_on_c, 7, 62, 0
9, 2220, Note_on_c, 7, 67, 50
9, 2260, Note_on_c, 7, 67, 0
9, 2280, Note_on_c, 7, 62, 50
9, 2320, Note_on_c, 7, 62, 0
9, 2340, Note_on_c, 7, 67, 50
9, 2380, Note_on_c, 7, 67, 0
9, 2400, Note_on_c, 7, 59, 50
9, 2440, Note_on_c, 7, 59, 0
9, 2460, Note_on_c, 7, 67, 50
9, 2500, Note_on_c, 7, 67, 0
9, 2520, Note_on_c, 7, 59, 50
9, 2560, Note_on_c, 7, 59, 0
9, 2580, Note_on_c, 7, 67, 53
9, 2620, Note_on_c, 7, 67, 0
9, 2640, Note_on_c, 7, 57, 56
9, 2680, Note_on_c, 7, 57, 0
9, 2700, Note_on_c, 7, 67, 60
9, 2740, Note_on_c, 7, 67, 0
9, 2760, Note_on_c, 7, 59, 63
9, 2800, Note_on_c, 7, 59, 0
9, 2820, Note_on_c, 7, 67, 66
9, 2860, Note_on_c, 7, 67, 0
9, 2880, Note_on_c, 7, 62, 70
9, 2920, Note_on_c, 7, 62, 0
9, 2940, Note_on_c, 7, 67, 65
9, 2980, Note_on_c, 7, 67, 0
9, 3000, Note_on_c, 7, 62, 60
9, 3040, Note_on_c, 7, 62, 0
9, 3060, Note_on_c, 7, 67, 55
9, 3100, Note_on_c, 7, 67, 0
9, 3120, Note_on_c, 7, 60, 60
9, 3160, Note_on_c, 7, 60, 0
9, 3180, Note_on_c, 7, 67, 60
9, 3220, Note_on_c, 7, 67, 0
9, 3240, Note_on_c, 7, 74, 127
9, 3400, Note_on_c, 7, 74, 0
9, 3480, Note_on_c, 7, 73, 127
9, 3560, Note_on_c, 7, 73, 0
9, 3600, Note_on_c, 7, 72, 127
9, 3640, Note_on_c, 7, 72, 0
9, 3720, Note_on_c, 7, 69, 127
9, 3740, Note_on_c, 7, 69, 0
9, 3840, Note_on_c, 7, 66, 127
9, 3860, Note_on_c, 7, 66, 0
9, 3960, Note_on_c, 7, 74, 127
9, 4120, Note_on_c, 7, 74, 0
9, 4200, Note_on_c, 7, 73, 127
9, 4280, Note_on_c, 7, 73, 0
9, 4320, Note_on_c, 7, 72, 127
9, 4360, Note_on_c, 7, 72, 0
9, 4440, Note_on_c, 7, 69, 127
9, 4460, Note_on_c, 7, 69, 0
9, 4560, Note_on_c, 7, 66, 127
9, 4580, Note_on_c, 7, 66, 0
9, 4680, Note_on_c, 7, 55, 127
9, 4720, Note_on_c, 7, 55, 0
9, 4740, Note_on_c, 7, 67, 127
9, 4780, Note_on_c, 7, 67, 0
9, 4800, Note_on_c, 7, 55, 127
9, 4840, Note_on_c, 7, 55, 0
9, 4860, Note_on_c, 7, 67, 127
9, 4900, Note_on_c, 7, 67, 0
9, 4920, Note_on_c, 7, 55, 127
9, 4960, Note_on_c, 7, 55, 0
9, 4980, Note_on_c, 7, 67, 127
9, 5020, Note_on_c, 7, 67, 0
9, 5040, Note_on_c, 7, 57, 127
9, 5080, Note_on_c, 7, 57, 0
9, 5100, Note_on_c, 7, 67, 127
9, 5140, Note_on_c, 7, 67, 0
9, 5160, Note_on_c, 7, 57, 127
9, 5200, Note_on_c, 7, 57, 0
9, 5220, Note_on_c, 7, 67, 127
9, 5260, Note_on_c, 7, 67, 0
9, 5280, Note_on_c, 7, 57, 127
9, 5320, Note_on_c, 7, 57, 0
9, 5340, Note_on_c, 7, 67, 127
9, 5380, Note_on_c, 7, 67, 0
9, 5400, Note_on_c, 7, 57, 127
9, 5440, Note_on_c, 7, 57, 0
9, 5460, Note_on_c, 7, 66, 127
9, 5500, Note_on_c, 7, 66, 0
9, 5520, Note_on_c, 7, 57, 127
9, 5560, Note_on_c, 7, 57, 0
9, 5580, Note_on_c, 7, 66, 127
9, 5620, Note_on_c, 7, 66, 0
9, 5640, Note_on_c, 7, 57, 127
9, 5680, Note_on_c, 7, 57, 0
9, 5700, Note_on_c, 7, 66, 127
9, 5740, Note_on_c, 7, 66, 0
9, 5760, Note_on_c, 7, 67, 127
9, 5760, Note_on_c, 7, 55, 127
9, 5840, Note_on_c, 7, 55, 0
9, 5840, Note_on_c, 7, 67, 0
9, 6120, Note_on_c, 7, 64, 50
9, 6160, Note_on_c, 7, 64, 0
9, 6180, Note_on_c, 7, 67, 50
9, 6220, Note_on_c, 7, 67, 0
9, 6240, Note_on_c, 7, 64, 50
9, 6280, Note_on_c, 7, 64, 0
9, 6300, Note_on_c, 7, 67, 50
9, 6340, Note_on_c, 7, 67, 0
9, 6360, Note_on_c, 7, 62, 50
9, 6400, Note_on_c, 7, 62, 0
9, 6420, Note_on_c, 7, 67, 50
9, 6460, Note_on_c, 7, 67, 0
9, 6480, Note_on_c, 7, 60, 50
9, 6520, Note_on_c, 7, 60, 0
9, 6540, Note_on_c, 7, 67, 50
9, 6580, Note_on_c, 7, 67, 0
9, 6600, Note_on_c, 7, 60, 50
9, 6640, Note_on_c, 7, 60, 0
9, 6660, Note_on_c, 7, 67, 50
9, 6700, Note_on_c, 7, 67, 0
9, 6720, Note_on_c, 7, 65, 50
9, 6760, Note_on_c, 7, 65, 0
9, 6780, Note_on_c, 7, 67, 50
9, 6820, Note_on_c, 7, 67, 0
9, 6840, Note_on_c, 7, 64, 50
9, 6880, Note_on_c, 7, 64, 0
9, 6900, Note_on_c, 7, 67, 53
9, 6940, Note_on_c, 7, 67, 0
9, 6960, Note_on_c, 7, 62, 56
9, 7000, Note_on_c, 7, 62, 0
9, 7020, Note_on_c, 7, 67, 60
9, 7060, Note_on_c, 7, 67, 0
9, 7080, Note_on_c, 7, 64, 63
9, 7120, Note_on_c, 7, 64, 0
9, 7140, Note_on_c, 7, 67, 66
9, 7180, Note_on_c, 7, 67, 0
9, 7200, Note_on_c, 7, 60, 70
9, 7240, Note_on_c, 7, 60, 0
9, 7260, Note_on_c, 7, 67, 70
9, 7300, Note_on_c, 7, 67, 0
9, 7320, Note_on_c, 7, 60, 70
9, 7360, Note_on_c, 7, 60, 0
9, 7380, Note_on_c, 7, 67, 70
9, 7420, Note_on_c, 7, 67, 0
9, 7440, Note_on_c, 7, 59, 50
9, 7480, Note_on_c, 7, 59, 0
9, 7500, Note_on_c, 7, 67, 50
9, 7540, Note_on_c, 7, 67, 0
9, 7560, Note_on_c, 7, 65, 50
9, 7600, Note_on_c, 7, 65, 0
9, 7620, Note_on_c, 7, 67, 50
9, 7660, Note_on_c, 7, 67, 0
9, 7680, Note_on_c, 7, 65, 50
9, 7720, Note_on_c, 7, 65, 0
9, 7740, Note_on_c, 7, 67, 50
9, 7780, Note_on_c, 7, 67, 0
9, 7800, Note_on_c, 7, 64, 50
9, 7840, Note_on_c, 7, 64, 0
9, 7860, Note_on_c, 7, 67, 50
9, 7900, Note_on_c, 7, 67, 0
9, 7920, Note_on_c, 7, 62, 50
9, 7960, Note_on_c, 7, 62, 0
9, 7980, Note_on_c, 7, 67, 50
9, 8020, Note_on_c, 7, 67, 0
9, 8040, Note_on_c, 7, 62, 50
9, 8080, Note_on_c, 7, 62, 0
9, 8100, Note_on_c, 7, 67, 50
9, 8140, Note_on_c, 7, 67, 0
9, 8160, Note_on_c, 7, 59, 50
9, 8200, Note_on_c, 7, 59, 0
9, 8220, Note_on_c, 7, 67, 50
9, 8260, Note_on_c, 7, 67, 0
9, 8280, Note_on_c, 7, 59, 50
9, 8320, Note_on_c, 7, 59, 0
9, 8340, Note_on_c, 7, 67, 53
9, 8380, Note_on_c, 7, 67, 0
9, 8400, Note_on_c, 7, 57, 56
9, 8440, Note_on_c, 7, 57, 0
9, 8460, Note_on_c, 7, 67, 60
9, 8500, Note_on_c, 7, 67, 0
9, 8520, Note_on_c, 7, 59, 63
9, 8560, Note_on_c, 7, 59, 0
9, 8580, Note_on_c, 7, 67, 66
9, 8620, Note_on_c, 7, 67, 0
9, 8640, Note_on_c, 7, 62, 70
9, 8680, Note_on_c, 7, 62, 0
9, 8700, Note_on_c, 7, 67, 65
9, 8740, Note_on_c, 7, 67, 0
9, 8760, Note_on_c, 7, 62, 60
9, 8800, Note_on_c, 7, 62, 0
9, 8820, Note_on_c, 7, 67, 55
9, 8860, Note_on_c, 7, 67, 0
9, 8880, Note_on_c, 7, 60, 60
9, 8920, Note_on_c, 7, 60, 0
9, 8940, Note_on_c, 7, 67, 60
9, 8980, Note_on_c, 7, 67, 0
9, 9000, Note_on_c, 7, 74, 127
9, 9160, Note_on_c, 7, 74, 0
9, 9240, Note_on_c, 7, 73, 127
9, 9320, Note_on_c, 7, 73, 0
9, 9360, Note_on_c, 7, 72, 127
9, 9400, Note_on_c, 7, 72, 0
9, 9480, Note_on_c, 7, 69, 127
9, 9500, Note_on_c, 7, 69, 0
9, 9600, Note_on_c, 7, 66, 127
9, 9620, Note_on_c, 7, 66, 0
9, 9720, Note_on_c, 7, 74, 127
9, 9880, Note_on_c, 7, 74, 0
9, 9960, Note_on_c, 7, 73, 127
9, 10040, Note_on_c, 7, 73, 0
9, 10080, Note_on_c, 7, 72, 127
9, 10120, Note_on_c, 7, 72, 0
9, 10200, Note_on_c, 7, 69, 127
9, 10220, Note_on_c, 7, 69, 0
9, 10320, Note_on_c, 7, 66, 127
9, 10340, Note_on_c, 7, 66, 0
9, 10440, Note_on_c, 7, 55, 127
9, 10480, Note_on_c, 7, 55, 0
9, 10500, Note_on_c, 7, 67, 127
9, 10540, Note_on_c, 7, 67, 0
9, 10560, Note_on_c, 7, 55, 127
9, 10600, Note_on_c, 7, 55, 0
9, 10620, Note_on_c, 7, 67, 127
9, 10660, Note_on_c, 7, 67, 0
9, 10680, Note_on_c, 7, 55, 127
9, 10720, Note_on_c, 7, 55, 0
9, 10740, Note_on_c, 7, 67, 127
9, 10780, Note_on_c, 7, 67, 0
9, 10800, Note_on_c, 7, 57, 127
9, 10840, Note_on_c, 7, 57, 0
9, 10860, Note_on_c, 7, 67, 127
9, 10900, Note_on_c, 7, 67, 0
9, 10920, Note_on_c, 7, 57, 127
9, 10960, Note_on_c, 7, 57, 0
9, 10980, Note_on_c, 7, 67, 127
9, 11020, Note_on_c, 7, 67, 0
9, 11040, Note_on_c, 7, 57, 127
9, 11080, Note_on_c, 7, 57, 0
9, 11100, Note_on_c, 7, 67, 127
9, 11140, Note_on_c, 7, 67, 0
9, 11160, Note_on_c, 7, 57, 127
9, 11200, Note_on_c, 7, 57, 0
9, 11220, Note_on_c, 7, 66, 127
9, 11260, Note_on_c, 7, 66, 0
9, 11280, Note_on_c, 7, 57, 127
9, 11320, Note_on_c, 7, 57, 0
9, 11340, Note_on_c, 7, 66, 127
9, 11380, Note_on_c, 7, 66, 0
9, 11400, Note_on_c, 7, 57, 127
9, 11440, Note_on_c, 7, 57, 0
9, 11460, Note_on_c, 7, 66, 127
9, 11500, Note_on_c, 7, 66, 0
9, 11520, Note_on_c, 7, 67, 127
9, 11520, Note_on_c, 7, 55, 127
9, 11600, Note_on_c, 7, 55, 0
9, 11600, Note_on_c, 7, 67, 0
9, 11880, Note_on_c, 7, 59, 50
9, 12040, Note_on_c, 7, 59, 0
9, 12120, Note_on_c, 7, 58, 51
9, 12200, Note_on_c, 7, 58, 0
9, 12240, Note_on_c, 7, 57, 52
9, 12400, Note_on_c, 7, 57, 0
9, 12480, Note_on_c, 7, 55, 54
9, 12560, Note_on_c, 7, 55, 0
9, 12600, Note_on_c, 7, 62, 55
9, 12760, Note_on_c, 7, 62, 0
9, 12840, Note_on_c, 7, 60, 57
9, 12920, Note_on_c, 7, 60, 0
9, 12960, Note_on_c, 7, 60, 58
9, 13040, Note_on_c, 7, 60, 0
9, 13080, Note_on_c, 7, 57, 59
9, 13160, Note_on_c, 7, 57, 0
9, 13200, Note_on_c, 7, 59, 60
9, 13280, Note_on_c, 7, 59, 0
9, 13320, Note_on_c, 7, 65, 60
9, 13480, Note_on_c, 7, 65, 0
9, 13560, Note_on_c, 7, 64, 62
9, 13640, Note_on_c, 7, 64, 0
9, 13680, Note_on_c, 7, 57, 63
9, 13720, Note_on_c, 7, 57, 0
9, 13740, Note_on_c, 7, 60, 64
9, 13780, Note_on_c, 7, 60, 0
9, 13800, Note_on_c, 7, 62, 64
9, 13840, Note_on_c, 7, 62, 0
9, 13860, Note_on_c, 7, 60, 65
9, 13900, Note_on_c, 7, 60, 0
9, 13920, Note_on_c, 7, 59, 65
9, 13960, Note_on_c, 7, 59, 0
9, 13980, Note_on_c, 7, 62, 65
9, 14020, Note_on_c, 7, 62, 0
9, 14040, Note_on_c, 7, 55, 66
9, 14080, Note_on_c, 7, 55, 0
9, 14100, Note_on_c, 7, 60, 66
9, 14140, Note_on_c, 7, 60, 0
9, 14160, Note_on_c, 7, 64, 67
9, 14200, Note_on_c, 7, 64, 0
9, 14220, Note_on_c, 7, 60, 67
9, 14260, Note_on_c, 7, 60, 0
9, 14280, Note_on_c, 7, 57, 68
9, 14320, Note_on_c, 7, 57, 0
9, 14340, Note_on_c, 7, 60, 68
9, 14380, Note_on_c, 7, 60, 0
9, 14400, Note_on_c, 7, 59, 69
9, 14480, Note_on_c, 7, 59, 0
9, 14520, Note_on_c, 7, 67, 127
9, 14600, Note_on_c, 7, 67, 0
9, 14640, Note_on_c, 7, 67, 127
9, 14720, Note_on_c, 7, 67, 0
9, 14760, Note_on_c, 7, 67, 127
9, 14920, Note_on_c, 7, 67, 0
9, 15000, Note_on_c, 7, 64, 127
9, 15040, Note_on_c, 7, 64, 0
9, 15060, Note_on_c, 7, 60, 127
9, 15100, Note_on_c, 7, 60, 0
9, 15120, Note_on_c, 7, 67, 127
9, 15200, Note_on_c, 7, 67, 0
9, 15840, Note_on_c, 7, 55, 127
9, 15880, Note_on_c, 7, 55, 0
9, 15900, Note_on_c, 7, 67, 127
9, 15940, Note_on_c, 7, 67, 0
9, 15960, Note_on_c, 7, 55, 127
9, 16000, Note_on_c, 7, 55, 0
9, 16020, Note_on_c, 7, 67, 127
9, 16060, Note_on_c, 7, 67, 0
9, 16080, Note_on_c, 7, 57, 127
9, 16120, Note_on_c, 7, 57, 0
9, 16140, Note_on_c, 7, 67, 127
9, 16180, Note_on_c, 7, 67, 0
9, 16200, Note_on_c, 7, 59, 127
9, 16240, Note_on_c, 7, 59, 0
9, 16260, Note_on_c, 7, 67, 127
9, 16300, Note_on_c, 7, 67, 0
9, 16320, Note_on_c, 7, 60, 127
9, 16360, Note_on_c, 7, 60, 0
9, 16380, Note_on_c, 7, 67, 127
9, 16420, Note_on_c, 7, 67, 0
9, 16440, Note_on_c, 7, 62, 127
9, 16480, Note_on_c, 7, 62, 0
9, 16500, Note_on_c, 7, 67, 127
9, 16540, Note_on_c, 7, 67, 0
9, 16560, Note_on_c, 7, 64, 127
9, 16600, Note_on_c, 7, 64, 0
9, 16620, Note_on_c, 7, 67, 127
9, 16660, Note_on_c, 7, 67, 0
9, 16680, Note_on_c, 7, 64, 127
9, 16720, Note_on_c, 7, 64, 0
9, 16740, Note_on_c, 7, 67, 127
9, 16780, Note_on_c, 7, 67, 0
9, 16800, Note_on_c, 7, 65, 127
9, 16840, Note_on_c, 7, 65, 0
9, 16860, Note_on_c, 7, 62, 127
9, 16900, Note_on_c, 7, 62, 0
9, 16920, Note_on_c, 7, 67, 127
9, 16960, Note_on_c, 7, 67, 0
9, 16980, Note_on_c, 7, 72, 127
9, 17020, Note_on_c, 7, 72, 0
9, 17040, Note_on_c, 7, 65, 127
9, 17080, Note_on_c, 7, 65, 0
9, 17100, Note_on_c, 7, 72, 127
9, 17140, Note_on_c, 7, 72, 0
9, 17160, Note_on_c, 7, 64, 127
9, 17200, Note_on_c, 7, 64, 0
9, 17220, Note_on_c, 7, 72, 127
9, 17260, Note_on_c, 7, 72, 0
9, 17280, Note_on_c, 7, 65, 127
9, 17320, Note_on_c, 7, 65, 0
9, 17340, Note_on_c, 7, 72, 127
9, 17380, Note_on_c, 7, 72, 0
9, 17400, Note_on_c, 7, 65, 127
9, 17440, Note_on_c, 7, 65, 0
9, 17460, Note_on_c, 7, 69, 127
9, 17500, Note_on_c, 7, 69, 0
9, 17520, Note_on_c, 7, 64, 127
9, 17560, Note_on_c, 7, 64, 0
9, 17580, Note_on_c, 7, 69, 127
9, 17620, Note_on_c, 7, 69, 0
9, 17640, Note_on_c, 7, 61, 127
9, 17680, Note_on_c, 7, 61, 0
9, 17700, Note_on_c, 7, 69, 127
9, 17740, Note_on_c, 7, 69, 0
9, 17760, Note_on_c, 7, 62, 127
9, 17800, Note_on_c, 7, 62, 0
9, 17820, Note_on_c, 7, 69, 127
9, 17860, Note_on_c, 7, 69, 0
9, 17880, Note_on_c, 7, 67, 127
9, 17920, Note_on_c, 7, 67, 0
9, 17940, Note_on_c, 7, 69, 127
9, 17980, Note_on_c, 7, 69, 0
9, 18000, Note_on_c, 7, 66, 127
9, 18040, Note_on_c, 7, 66, 0
9, 18060, Note_on_c, 7, 69, 127
9, 18100, Note_on_c, 7, 69, 0
9, 18120, Note_on_c, 7, 74, 127
9, 18160, Note_on_c, 7, 74, 0
9, 18180, Note_on_c, 7, 69, 127
9, 18220, Note_on_c, 7, 69, 0
9, 18240, Note_on_c, 7, 76, 127
9, 18280, Note_on_c, 7, 76, 0
9, 18300, Note_on_c, 7, 69, 127
9, 18340, Note_on_c, 7, 69, 0
9, 18360, Note_on_c, 7, 78, 127
9, 18400, Note_on_c, 7, 78, 0
9, 18420, Note_on_c, 7, 74, 127
9, 18460, Note_on_c, 7, 74, 0
9, 18480, Note_on_c, 7, 79, 127
9, 18520, Note_on_c, 7, 79, 0
9, 18540, Note_on_c, 7, 74, 127
9, 18580, Note_on_c, 7, 74, 0
9, 18600, Note_on_c, 7, 81, 127
9, 18640, Note_on_c, 7, 81, 0
9, 18660, Note_on_c, 7, 74, 127
9, 18700, Note_on_c, 7, 74, 0
9, 18720, Note_on_c, 7, 83, 127
9, 18760, Note_on_c, 7, 83, 0
9, 18780, Note_on_c, 7, 74, 127
9, 18820, Note_on_c, 7, 74, 0
9, 18840, Note_on_c, 7, 71, 127
9, 18880, Note_on_c, 7, 71, 0
9, 18900, Note_on_c, 7, 74, 127
9, 18940, Note_on_c, 7, 74, 0
9, 18960, Note_on_c, 7, 70, 127
9, 19000, Note_on_c, 7, 70, 0
9, 19020, Note_on_c, 7, 74, 127
9, 19060, Note_on_c, 7, 74, 0
9, 19080, Note_on_c, 7, 69, 127
9, 19120, Note_on_c, 7, 69, 0
9, 19140, Note_on_c, 7, 74, 127
9, 19180, Note_on_c, 7, 74, 0
9, 19200, Note_on_c, 7, 67, 127
9, 19240, Note_on_c, 7, 67, 0
9, 19260, Note_on_c, 7, 74, 127
9, 19300, Note_on_c, 7, 74, 0
9, 19320, Note_on_c, 7, 72, 127
9, 19360, Note_on_c, 7, 72, 0
9, 19380, Note_on_c, 7, 74, 127
9, 19420, Note_on_c, 7, 74, 0
9, 19440, Note_on_c, 7, 71, 127
9, 19480, Note_on_c, 7, 71, 0
9, 19500, Note_on_c, 7, 74, 127
9, 19540, Note_on_c, 7, 74, 0
9, 19560, Note_on_c, 7, 71, 127
9, 19600, Note_on_c, 7, 71, 0
9, 19620, Note_on_c, 7, 62, 127
9, 19660, Note_on_c, 7, 62, 0
9, 19680, Note_on_c, 7, 72, 127
9, 19720, Note_on_c, 7, 72, 0
9, 19740, Note_on_c, 7, 62, 127
9, 19780, Note_on_c, 7, 62, 0
9, 19800, Note_on_c, 7, 74, 127
9, 19840, Note_on_c, 7, 74, 0
9, 19860, Note_on_c, 7, 79, 127
9, 19900, Note_on_c, 7, 79, 0
9, 19920, Note_on_c, 7, 72, 127
9, 19960, Note_on_c, 7, 72, 0
9, 19980, Note_on_c, 7, 79, 127
9, 20020, Note_on_c, 7, 79, 0
9, 20040, Note_on_c, 7, 71, 127
9, 20080, Note_on_c, 7, 71, 0
9, 20100, Note_on_c, 7, 79, 127
9, 20140, Note_on_c, 7, 79, 0
9, 20160, Note_on_c, 7, 72, 127
9, 20200, Note_on_c, 7, 72, 0
9, 20280, Note_on_c, 7, 71, 127
9, 20360, Note_on_c, 7, 71, 0
9, 20400, Note_on_c, 7, 72, 127
9, 20480, Note_on_c, 7, 72, 0
9, 20520, Note_on_c, 7, 69, 127
9, 20560, Note_on_c, 7, 69, 0
9, 20640, Note_on_c, 7, 64, 127
9, 20720, Note_on_c, 7, 64, 0
9, 20760, Note_on_c, 7, 65, 127
9, 20840, Note_on_c, 7, 65, 0
9, 20880, Note_on_c, 7, 64, 127
9, 20920, Note_on_c, 7, 64, 0
9, 20940, Note_on_c, 7, 65, 127
9, 20980, Note_on_c, 7, 65, 0
9, 21000, Note_on_c, 7, 64, 127
9, 21020, Note_on_c, 7, 64, 0
9, 21060, Note_on_c, 7, 60, 127
9, 21080, Note_on_c, 7, 60, 0
9, 21120, Note_on_c, 7, 62, 127
9, 21140, Note_on_c, 7, 62, 0
9, 21180, Note_on_c, 7, 59, 127
9, 21200, Note_on_c, 7, 59, 0
9, 21240, Note_on_c, 7, 60, 127
9, 21320, Note_on_c, 7, 60, 0
9, 24480, Note_on_c, 7, 67, 127
9, 24640, Note_on_c, 7, 67, 0
9, 24720, Note_on_c, 7, 66, 127
9, 24800, Note_on_c, 7, 66, 0
9, 24840, Note_on_c, 7, 65, 127
9, 24880, Note_on_c, 7, 65, 0
9, 24960, Note_on_c, 7, 62, 127
9, 24980, Note_on_c, 7, 62, 0
9, 25080, Note_on_c, 7, 59, 127
9, 25100, Note_on_c, 7, 59, 0
9, 25200, Note_on_c, 7, 67, 127
9, 25360, Note_on_c, 7, 67, 0
9, 25440, Note_on_c, 7, 66, 127
9, 25520, Note_on_c, 7, 66, 0
9, 25560, Note_on_c, 7, 65, 127
9, 25600, Note_on_c, 7, 65, 0
9, 25680, Note_on_c, 7, 74, 127
9, 25700, Note_on_c, 7, 74, 0
9, 25800, Note_on_c, 7, 71, 127
9, 25820, Note_on_c, 7, 71, 0
9, 25920, Note_on_c, 7, 64, 127
9, 25960, Note_on_c, 7, 64, 0
9, 25980, Note_on_c, 7, 72, 127
9, 26020, Note_on_c, 7, 72, 0
9, 26040, Note_on_c, 7, 64, 127
9, 26080, Note_on_c, 7, 64, 0
9, 26100, Note_on_c, 7, 72, 127
9, 26140, Note_on_c, 7, 72, 0
9, 26160, Note_on_c, 7, 64, 127
9, 26200, Note_on_c, 7, 64, 0
9, 26220, Note_on_c, 7, 72, 127
9, 26260, Note_on_c, 7, 72, 0
9, 26280, Note_on_c, 7, 62, 127
9, 26320, Note_on_c, 7, 62, 0
9, 26340, Note_on_c, 7, 72, 127
9, 26380, Note_on_c, 7, 72, 0
9, 26400, Note_on_c, 7, 62, 127
9, 26440, Note_on_c, 7, 62, 0
9, 26460, Note_on_c, 7, 72, 127
9, 26500, Note_on_c, 7, 72, 0
9, 26520, Note_on_c, 7, 62, 127
9, 26560, Note_on_c, 7, 62, 0
9, 26580, Note_on_c, 7, 72, 127
9, 26620, Note_on_c, 7, 72, 0
9, 26640, Note_on_c, 7, 62, 127
9, 26680, Note_on_c, 7, 62, 0
9, 26700, Note_on_c, 7, 71, 127
9, 26740, Note_on_c, 7, 71, 0
9, 26760, Note_on_c, 7, 62, 127
9, 26800, Note_on_c, 7, 62, 0
9, 26820, Note_on_c, 7, 71, 127
9, 26860, Note_on_c, 7, 71, 0
9, 26880, Note_on_c, 7, 62, 127
9, 26920, Note_on_c, 7, 62, 0
9, 26940, Note_on_c, 7, 71, 127
9, 26980, Note_on_c, 7, 71, 0
9, 27000, Note_on_c, 7, 72, 127
9, 27000, Note_on_c, 7, 64, 127
9, 27080, Note_on_c, 7, 64, 0
9, 27080, Note_on_c, 7, 72, 0
9, 28200, Note_on_c, 7, 62, 50
9, 28240, Note_on_c, 7, 62, 0
9, 28320, Note_on_c, 7, 60, 50
9, 28360, Note_on_c, 7, 60, 0
9, 28440, Note_on_c, 7, 59, 50
9, 28480, Note_on_c, 7, 59, 0
9, 29760, Note_on_c, 7, 55, 50
9, 29800, Note_on_c, 7, 55, 0
9, 29880, Note_on_c, 7, 55, 50
9, 29920, Note_on_c, 7, 55, 0
9, 30240, Note_on_c, 7, 62, 127
9, 30320, Note_on_c, 7, 62, 0
9, 30360, Note_on_c, 7, 62, 127
9, 30400, Note_on_c, 7, 62, 0
9, 30420, Note_on_c, 7, 62, 127
9, 30460, Note_on_c, 7, 62, 0
9, 30480, Note_on_c, 7, 62, 127
9, 30560, Note_on_c, 7, 62, 0
9, 30600, Note_on_c, 7, 60, 127
9, 30680, Note_on_c, 7, 60, 0
9, 30720, Note_on_c, 7, 60, 127
9, 30760, Note_on_c, 7, 60, 0
9, 30780, Note_on_c, 7, 60, 127
9, 30820, Note_on_c, 7, 60, 0
9, 30840, Note_on_c, 7, 60, 127
9, 30920, Note_on_c, 7, 60, 0
9, 30960, Note_on_c, 7, 63, 127
9, 31040, Note_on_c, 7, 63, 0
9, 31080, Note_on_c, 7, 63, 127
9, 31120, Note_on_c, 7, 63, 0
9, 31140, Note_on_c, 7, 63, 127
9, 31180, Note_on_c, 7, 63, 0
9, 31200, Note_on_c, 7, 63, 127
9, 31280, Note_on_c, 7, 63, 0
9, 31320, Note_on_c, 7, 64, 127
9, 31400, Note_on_c, 7, 64, 0
9, 31440, Note_on_c, 7, 64, 127
9, 31480, Note_on_c, 7, 64, 0
9, 31500, Note_on_c, 7, 64, 127
9, 31540, Note_on_c, 7, 64, 0
9, 31560, Note_on_c, 7, 64, 127
9, 31640, Note_on_c, 7, 64, 0
9, 31680, Note_on_c, 7, 59, 127
9, 31760, Note_on_c, 7, 59, 0
9, 31800, Note_on_c, 7, 59, 127
9, 31840, Note_on_c, 7, 59, 0
9, 31860, Note_on_c, 7, 59, 127
9, 31900, Note_on_c, 7, 59, 0
9, 31920, Note_on_c, 7, 59, 127
9, 32000, Note_on_c, 7, 59, 0
9, 32040, Note_on_c, 7, 60, 127
9, 32120, Note_on_c, 7, 60, 0
9, 32160, Note_on_c, 7, 60, 127
9, 32200, Note_on_c, 7, 60, 0
9, 32220, Note_on_c, 7, 60, 127
9, 32260, Note_on_c, 7, 60, 0
9, 32280, Note_on_c, 7, 60, 127
9, 32360, Note_on_c, 7, 60, 0
9, 32400, Note_on_c, 7, 60, 127
9, 32480, Note_on_c, 7, 60, 0
9, 32520, Note_on_c, 7, 60, 127
9, 32560, Note_on_c, 7, 60, 0
9, 32580, Note_on_c, 7, 60, 127
9, 32620, Note_on_c, 7, 60, 0
9, 32640, Note_on_c, 7, 60, 127
9, 32720, Note_on_c, 7, 60, 0
9, 32760, Note_on_c, 7, 59, 127
9, 32840, Note_on_c, 7, 59, 0
9, 32880, Note_on_c, 7, 71, 50
9, 32960, Note_on_c, 7, 71, 0
9, 33000, Note_on_c, 7, 71, 50
9, 33080, Note_on_c, 7, 71, 0
9, 33240, Note_on_c, 7, 69, 50
9, 33320, Note_on_c, 7, 69, 0
9, 33360, Note_on_c, 7, 69, 50
9, 33440, Note_on_c, 7, 69, 0
9, 33600, Note_on_c, 7, 68, 50
9, 33680, Note_on_c, 7, 68, 0
9, 33720, Note_on_c, 7, 68, 50
9, 33800, Note_on_c, 7, 68, 0
9, 33960, Note_on_c, 7, 67, 50
9, 34040, Note_on_c, 7, 67, 0
9, 34080, Note_on_c, 7, 67, 50
9, 34160, Note_on_c, 7, 67, 0
9, 34320, Note_on_c, 7, 66, 50
9, 34400, Note_on_c, 7, 66, 0
9, 34440, Note_on_c, 7, 66, 50
9, 34520, Note_on_c, 7, 66, 0
9, 35280, Note_on_c, 7, 62, 50
9, 35440, Note_on_c, 7, 62, 0
9, 35520, Note_on_c, 7, 60, 50
9, 35600, Note_on_c, 7, 60, 0
9, 35640, Note_on_c, 7, 59, 50
9, 35720, Note_on_c, 7, 59, 0
9, 36720, Note_on_c, 7, 59, 50
9, 36880, Note_on_c, 7, 59, 0
9, 36960, Note_on_c, 7, 62, 50
9, 37000, Note_on_c, 7, 62, 0
9, 37020, Note_on_c, 7, 59, 50
9, 37060, Note_on_c, 7, 59, 0
9, 37080, Note_on_c, 7, 60, 50
9, 37120, Note_on_c, 7, 60, 0
9, 37440, Note_on_c, 7, 64, 50
9, 37480, Note_on_c, 7, 64, 0
9, 37500, Note_on_c, 7, 67, 50
9, 37540, Note_on_c, 7, 67, 0
9, 37560, Note_on_c, 7, 64, 50
9, 37600, Note_on_c, 7, 64, 0
9, 37620, Note_on_c, 7, 67, 50
9, 37660, Note_on_c, 7, 67, 0
9, 37680, Note_on_c, 7, 62, 50
9, 37720, Note_on_c, 7, 62, 0
9, 37740, Note_on_c, 7, 67, 50
9, 37780, Note_on_c, 7, 67, 0
9, 37800, Note_on_c, 7, 60, 50
9, 37840, Note_on_c, 7, 60, 0
9, 37860, Note_on_c, 7, 67, 50
9, 37900, Note_on_c, 7, 67, 0
9, 37920, Note_on_c, 7, 60, 50
9, 37960, Note_on_c, 7, 60, 0
9, 37980, Note_on_c, 7, 67, 50
9, 38020, Note_on_c, 7, 67, 0
9, 38040, Note_on_c, 7, 65, 50
9, 38080, Note_on_c, 7, 65, 0
9, 38100, Note_on_c, 7, 67, 50
9, 38140, Note_on_c, 7, 67, 0
9, 38160, Note_on_c, 7, 64, 50
9, 38200, Note_on_c, 7, 64, 0
9, 38220, Note_on_c, 7, 67, 53
9, 38260, Note_on_c, 7, 67, 0
9, 38280, Note_on_c, 7, 62, 56
9, 38320, Note_on_c, 7, 62, 0
9, 38340, Note_on_c, 7, 67, 60
9, 38380, Note_on_c, 7, 67, 0
9, 38400, Note_on_c, 7, 64, 63
9, 38440, Note_on_c, 7, 64, 0
9, 38460, Note_on_c, 7, 67, 66
9, 38500, Note_on_c, 7, 67, 0
9, 38520, Note_on_c, 7, 60, 70
9, 38560, Note_on_c, 7, 60, 0
9, 38580, Note_on_c, 7, 67, 70
9, 38620, Note_on_c, 7, 67, 0
9, 38640, Note_on_c, 7, 60, 70
9, 38680, Note_on_c, 7, 60, 0
9, 38700, Note_on_c, 7, 67, 70
9, 38740, Note_on_c, 7, 67, 0
9, 38760, Note_on_c, 7, 59, 50
9, 38800, Note_on_c, 7, 59, 0
9, 38820, Note_on_c, 7, 67, 50
9, 38860, Note_on_c, 7, 67, 0
9, 38880, Note_on_c, 7, 65, 50
9, 38920, Note_on_c, 7, 65, 0
9, 38940, Note_on_c, 7, 67, 50
9, 38980, Note_on_c, 7, 67, 0
9, 39000, Note_on_c, 7, 65, 50
9, 39040, Note_on_c, 7, 65, 0
9, 39060, Note_on_c, 7, 67, 50
9, 39100, Note_on_c, 7, 67, 0
9, 39120, Note_on_c, 7, 64, 50
9, 39160, Note_on_c, 7, 64, 0
9, 39180, Note_on_c, 7, 67, 50
9, 39220, Note_on_c, 7, 67, 0
9, 39240, Note_on_c, 7, 62, 50
9, 39280, Note_on_c, 7, 62, 0
9, 39300, Note_on_c, 7, 67, 50
9, 39340, Note_on_c, 7, 67, 0
9, 39360, Note_on_c, 7, 62, 50
9, 39400, Note_on_c, 7, 62, 0
9, 39420, Note_on_c, 7, 67, 50
9, 39460, Note_on_c, 7, 67, 0
9, 39480, Note_on_c, 7, 59, 50
9, 39520, Note_on_c, 7, 59, 0
9, 39540, Note_on_c, 7, 67, 50
9, 39580, Note_on_c, 7, 67, 0
9, 39600, Note_on_c, 7, 59, 50
9, 39640, Note_on_c, 7, 59, 0
9, 39660, Note_on_c, 7, 67, 53
9, 39700, Note_on_c, 7, 67, 0
9, 39720, Note_on_c, 7, 57, 56
9, 39760, Note_on_c, 7, 57, 0
9, 39780, Note_on_c, 7, 67, 60
9, 39820, Note_on_c, 7, 67, 0
9, 39840, Note_on_c, 7, 59, 63
9, 39880, Note_on_c, 7, 59, 0
9, 39900, Note_on_c, 7, 67, 66
9, 39940, Note_on_c, 7, 67, 0
9, 39960, Note_on_c, 7, 62, 70
9, 40000, Note_on_c, 7, 62, 0
9, 40020, Note_on_c, 7, 67, 65
9, 40060, Note_on_c, 7, 67, 0
9, 40080, Note_on_c, 7, 62, 60
9, 40120, Note_on_c, 7, 62, 0
9, 40140, Note_on_c, 7, 67, 55
9, 40180, Note_on_c, 7, 67, 0
9, 40200, Note_on_c, 7, 60, 60
9, 40240, Note_on_c, 7, 60, 0
9, 40260, Note_on_c, 7, 67, 60
9, 40300, Note_on_c, 7, 67, 0
9, 40320, Note_on_c, 7, 74, 127
9, 40480, Note_on_c, 7, 74, 0
9, 40560, Note_on_c, 7, 73, 127
9, 40640, Note_on_c, 7, 73, 0
9, 40680, Note_on_c, 7, 72, 127
9, 40720, Note_on_c, 7, 72, 0
9, 40800, Note_on_c, 7, 69, 127
9, 40820, Note_on_c, 7, 69, 0
9, 40920, Note_on_c, 7, 66, 127
9, 40940, Note_on_c, 7, 66, 0
9, 41040, Note_on_c, 7, 74, 127
9, 41200, Note_on_c, 7, 74, 0
9, 41280, Note_on_c, 7, 73, 127
9, 41360, Note_on_c, 7, 73, 0
9, 41400, Note_on_c, 7, 72, 127
9, 41440, Note_on_c, 7, 72, 0
9, 41520, Note_on_c, 7, 69, 127
9, 41540, Note_on_c, 7, 69, 0
9, 41640, Note_on_c, 7, 66, 127
9, 41660, Note_on_c, 7, 66, 0
9, 41760, Note_on_c, 7, 55, 127
9, 41800, Note_on_c, 7, 55, 0
9, 41820, Note_on_c, 7, 67, 127
9, 41860, Note_on_c, 7, 67, 0
9, 41880, Note_on_c, 7, 55, 127
9, 41920, Note_on_c, 7, 55, 0
9, 41940, Note_on_c, 7, 67, 127
9, 41980, Note_on_c, 7, 67, 0
9, 42000, Note_on_c, 7, 55, 127
9, 42040, Note_on_c, 7, 55, 0
9, 42060, Note_on_c, 7, 67, 127
9, 42100, Note_on_c, 7, 67, 0
9, 42120, Note_on_c, 7, 57, 127
9, 42160, Note_on_c, 7, 57, 0
9, 42180, Note_on_c, 7, 67, 127
9, 42220, Note_on_c, 7, 67, 0
9, 42240, Note_on_c, 7, 57, 127
9, 42280, Note_on_c, 7, 57, 0
9, 42300, Note_on_c, 7, 67, 127
9, 42340, Note_on_c, 7, 67, 0
9, 42360, Note_on_c, 7, 57, 127
9, 42400, Note_on_c, 7, 57, 0
9, 42420, Note_on_c, 7, 67, 127
9, 42460, Note_on_c, 7, 67, 0
9, 42480, Note_on_c, 7, 57, 127
9, 42520, Note_on_c, 7, 57, 0
9, 42540, Note_on_c, 7, 66, 127
9, 42580, Note_on_c, 7, 66, 0
9, 42600, Note_on_c, 7, 57, 127
9, 42640, Note_on_c, 7, 57, 0
9, 42660, Note_on_c, 7, 66, 127
9, 42700, Note_on_c, 7, 66, 0
9, 42720, Note_on_c, 7, 57, 127
9, 42760, Note_on_c, 7, 57, 0
9, 42780, Note_on_c, 7, 66, 127
9, 42820, Note_on_c, 7, 66, 0
9, 42840, Note_on_c, 7, 67, 127
9, 42840, Note_on_c, 7, 55, 127
9, 42920, Note_on_c, 7, 55, 0
9, 42920, Note_on_c, 7, 67, 0
9, 42920, End_track
10, 0, Start_track
10, 0, Title_t, "Viole"
10, 0, Control_c, 8, 0, 0
10, 0, Control_c, 8, 7, 105
10, 0, Control_c, 8, 10, 86
10, 1, Program_c, 8, 48
10, 1080, Note_on_c, 8, 72, 50
10, 1160, Note_on_c, 8, 72, 0
10, 1440, Note_on_c, 8, 67, 70
10, 1520, Note_on_c, 8, 67, 0
10, 2520, Note_on_c, 8, 67, 50
10, 2600, Note_on_c, 8, 67, 0
10, 2880, Note_on_c, 8, 60, 70
10, 2960, Note_on_c, 8, 60, 0
10, 3240, Note_on_c, 8, 59, 127
10, 3280, Note_on_c, 8, 59, 0
10, 3300, Note_on_c, 8, 62, 127
10, 3340, Note_on_c, 8, 62, 0
10, 3360, Note_on_c, 8, 59, 127
10, 3400, Note_on_c, 8, 59, 0
10, 3420, Note_on_c, 8, 62, 127
10, 3460, Note_on_c, 8, 62, 0
10, 3480, Note_on_c, 8, 58, 127
10, 3520, Note_on_c, 8, 58, 0
10, 3540, Note_on_c, 8, 62, 127
10, 3580, Note_on_c, 8, 62, 0
10, 3600, Note_on_c, 8, 57, 127
10, 3640, Note_on_c, 8, 57, 0
10, 3660, Note_on_c, 8, 62, 127
10, 3700, Note_on_c, 8, 62, 0
10, 3720, Note_on_c, 8, 60, 127
10, 3760, Note_on_c, 8, 60, 0
10, 3780, Note_on_c, 8, 62, 127
10, 3820, Note_on_c, 8, 62, 0
10, 3840, Note_on_c, 8, 57, 127
10, 3880, Note_on_c, 8, 57, 0
10, 3900, Note_on_c, 8, 62, 127
10, 3940, Note_on_c, 8, 62, 0
10, 3960, Note_on_c, 8, 59, 127
10, 4000, Note_on_c, 8, 59, 0
10, 4020, Note_on_c, 8, 62, 127
10, 4060, Note_on_c, 8, 62, 0
10, 4080, Note_on_c, 8, 59, 127
10, 4120, Note_on_c, 8, 59, 0
10, 4140, Note_on_c, 8, 62, 127
10, 4180, Note_on_c, 8, 62, 0
10, 4200, Note_on_c, 8, 58, 127
10, 4240, Note_on_c, 8, 58, 0
10, 4260, Note_on_c, 8, 62, 127
10, 4300, Note_on_c, 8, 62, 0
10, 4320, Note_on_c, 8, 57, 127
10, 4360, Note_on_c, 8, 57, 0
10, 4380, Note_on_c, 8, 62, 127
10, 4420, Note_on_c, 8, 62, 0
10, 4440, Note_on_c, 8, 60, 127
10, 4480, Note_on_c, 8, 60, 0
10, 4500, Note_on_c, 8, 62, 127
10, 4540, Note_on_c, 8, 62, 0
10, 4560, Note_on_c, 8, 57, 127
10, 4600, Note_on_c, 8, 57, 0
10, 4620, Note_on_c, 8, 62, 127
10, 4660, Note_on_c, 8, 62, 0
10, 4680, Note_on_c, 8, 59, 127
10, 4720, Note_on_c, 8, 59, 0
10, 4740, Note_on_c, 8, 62, 127
10, 4780, Note_on_c, 8, 62, 0
10, 4800, Note_on_c, 8, 59, 127
10, 4840, Note_on_c, 8, 59, 0
10, 4860, Note_on_c, 8, 62, 127
10, 4900, Note_on_c, 8, 62, 0
10, 4920, Note_on_c, 8, 59, 127
10, 4960, Note_on_c, 8, 59, 0
10, 4980, Note_on_c, 8, 62, 127
10, 5020, Note_on_c, 8, 62, 0
10, 5040, Note_on_c, 8, 60, 127
10, 5080, Note_on_c, 8, 60, 0
10, 5100, Note_on_c, 8, 64, 127
10, 5140, Note_on_c, 8, 64, 0
10, 5160, Note_on_c, 8, 60, 127
10, 5200, Note_on_c, 8, 60, 0
10, 5220, Note_on_c, 8, 64, 127
10, 5260, Note_on_c, 8, 64, 0
10, 5280, Note_on_c, 8, 60, 127
10, 5320, Note_on_c, 8, 60, 0
10, 5340, Note_on_c, 8, 64, 127
10, 5380, Note_on_c, 8, 64, 0
10, 5400, Note_on_c, 8, 60, 127
10, 5440, Note_on_c, 8, 60, 0
10, 5460, Note_on_c, 8, 62, 127
10, 5500, Note_on_c, 8, 62, 0
10, 5520, Note_on_c, 8, 60, 127
10, 5560, Note_on_c, 8, 60, 0
10, 5580, Note_on_c, 8, 62, 127
10, 5620, Note_on_c, 8, 62, 0
10, 5640, Note_on_c, 8, 60, 127
10, 5680, Note_on_c, 8, 60, 0
10, 5700, Note_on_c, 8, 62, 127
10, 5740, Note_on_c, 8, 62, 0
10, 5760, Note_on_c, 8, 59, 127
10, 5760, Note_on_c, 8, 62, 127
10, 5800, Note_on_c, 8, 62, 0
10, 5800, Note_on_c, 8, 59, 0
10, 6840, Note_on_c, 8, 72, 50
10, 6920, Note_on_c, 8, 72, 0
10, 7200, Note_on_c, 8, 67, 70
10, 7280, Note_on_c, 8, 67, 0
10, 8280, Note_on_c, 8, 67, 50
10, 8360, Note_on_c, 8, 67, 0
10, 8640, Note_on_c, 8, 60, 70
10, 8720, Note_on_c, 8, 60, 0
10, 9000, Note_on_c, 8, 59, 127
10, 9040, Note_on_c, 8, 59, 0
10, 9060, Note_on_c, 8, 62, 127
10, 9100, Note_on_c, 8, 62, 0
10, 9120, Note_on_c, 8, 59, 127
10, 9160, Note_on_c, 8, 59, 0
10, 9180, Note_on_c, 8, 62, 127
10, 9220, Note_on_c, 8, 62, 0
10, 9240, Note_on_c, 8, 58, 127
10, 9280, Note_on_c, 8, 58, 0
10, 9300, Note_on_c, 8, 62, 127
10, 9340, Note_on_c, 8, 62, 0
10, 9360, Note_on_c, 8, 57, 127
10, 9400, Note_on_c, 8, 57, 0
10, 9420, Note_on_c, 8, 62, 127
10, 9460, Note_on_c, 8, 62, 0
10, 9480, Note_on_c, 8, 60, 127
10, 9520, Note_on_c, 8, 60, 0
10, 9540, Note_on_c, 8, 62, 127
10, 9580, Note_on_c, 8, 62, 0
10, 9600, Note_on_c, 8, 57, 127
10, 9640, Note_on_c, 8, 57, 0
10, 9660, Note_on_c, 8, 62, 127
10, 9700, Note_on_c, 8, 62, 0
10, 9720, Note_on_c, 8, 59, 127
10, 9760, Note_on_c, 8, 59, 0
10, 9780, Note_on_c, 8, 62, 127
10, 9820, Note_on_c, 8, 62, 0
10, 9840, Note_on_c, 8, 59, 127
10, 9880, Note_on_c, 8, 59, 0
10, 9900, Note_on_c, 8, 62, 127
10, 9940, Note_on_c, 8, 62, 0
10, 9960, Note_on_c, 8, 58, 127
10, 10000, Note_on_c, 8, 58, 0
10, 10020, Note_on_c, 8, 62, 127
10, 10060, Note_on_c, 8, 62, 0
10, 10080, Note_on_c, 8, 57, 127
10, 10120, Note_on_c, 8, 57, 0
10, 10140, Note_on_c, 8, 62, 127
10, 10180, Note_on_c, 8, 62, 0
10, 10200, Note_on_c, 8, 60, 127
10, 10240, Note_on_c, 8, 60, 0
10, 10260, Note_on_c, 8, 62, 127
10, 10300, Note_on_c, 8, 62, 0
10, 10320, Note_on_c, 8, 57, 127
10, 10360, Note_on_c, 8, 57, 0
10, 10380, Note_on_c, 8, 62, 127
10, 10420, Note_on_c, 8, 62, 0
10, 10440, Note_on_c, 8, 59, 127
10, 10480, Note_on_c, 8, 59, 0
10, 10500, Note_on_c, 8, 62, 127
10, 10540, Note_on_c, 8, 62, 0
10, 10560, Note_on_c, 8, 59, 127
10, 10600, Note_on_c, 8, 59, 0
10, 10620, Note_on_c, 8, 62, 127
10, 10660, Note_on_c, 8, 62, 0
10, 10680, Note_on_c, 8, 59, 127
10, 10720, Note_on_c, 8, 59, 0
10, 10740, Note_on_c, 8, 62, 127
10, 10780, Note_on_c, 8, 62, 0
10, 10800, Note_on_c, 8, 60, 127
10, 10840, Note_on_c, 8, 60, 0
10, 10860, Note_on_c, 8, 64, 127
10, 10900, Note_on_c, 8, 64, 0
10, 10920, Note_on_c, 8, 60, 127
10, 10960, Note_on_c, 8, 60, 0
10, 10980, Note_on_c, 8, 64, 127
10, 11020, Note_on_c, 8, 64, 0
10, 11040, Note_on_c, 8, 60, 127
10, 11080, Note_on_c, 8, 60, 0
10, 11100, Note_on_c, 8, 64, 127
10, 11140, Note_on_c, 8, 64, 0
10, 11160, Note_on_c, 8, 60, 127
10, 11200, Note_on_c, 8, 60, 0
10, 11220, Note_on_c, 8, 62, 127
10, 11260, Note_on_c, 8, 62, 0
10, 11280, Note_on_c, 8, 60, 127
10, 11320, Note_on_c, 8, 60, 0
10, 11340, Note_on_c, 8, 62, 127
10, 11380, Note_on_c, 8, 62, 0
10, 11400, Note_on_c, 8, 60, 127
10, 11440, Note_on_c, 8, 60, 0
10, 11460, Note_on_c, 8, 62, 127
10, 11500, Note_on_c, 8, 62, 0
10, 11520, Note_on_c, 8, 62, 127
10, 11520, Note_on_c, 8, 59, 127
10, 11560, Note_on_c, 8, 59, 0
10, 11560, Note_on_c, 8, 62, 0
10, 12360, Note_on_c, 8, 54, 53
10, 12440, Note_on_c, 8, 54, 0
10, 12480, Note_on_c, 8, 55, 54
10, 12560, Note_on_c, 8, 55, 0
10, 12600, Note_on_c, 8, 59, 55
10, 12760, Note_on_c, 8, 59, 0
10, 12840, Note_on_c, 8, 60, 57
10, 12920, Note_on_c, 8, 60, 0
10, 13080, Note_on_c, 8, 54, 59
10, 13160, Note_on_c, 8, 54, 0
10, 13200, Note_on_c, 8, 55, 60
10, 13280, Note_on_c, 8, 55, 0
10, 13320, Note_on_c, 8, 59, 60
10, 13480, Note_on_c, 8, 59, 0
10, 13560, Note_on_c, 8, 60, 62
10, 13640, Note_on_c, 8, 60, 0
10, 13800, Note_on_c, 8, 57, 64
10, 13880, Note_on_c, 8, 57, 0
10, 13920, Note_on_c, 8, 59, 65
10, 14000, Note_on_c, 8, 59, 0
10, 14040, Note_on_c, 8, 60, 66
10, 14120, Note_on_c, 8, 60, 0
10, 14160, Note_on_c, 8, 52, 67
10, 14240, Note_on_c, 8, 52, 0
10, 14280, Note_on_c, 8, 54, 68
10, 14360, Note_on_c, 8, 54, 0
10, 14400, Note_on_c, 8, 55, 69
10, 14480, Note_on_c, 8, 55, 0
10, 14520, Note_on_c, 8, 67, 127
10, 14600, Note_on_c, 8, 67, 0
10, 14640, Note_on_c, 8, 67, 127
10, 14720, Note_on_c, 8, 67, 0
10, 14760, Note_on_c, 8, 67, 127
10, 14920, Note_on_c, 8, 67, 0
10, 15000, Note_on_c, 8, 64, 127
10, 15040, Note_on_c, 8, 64, 0
10, 15060, Note_on_c, 8, 60, 127
10, 15100, Note_on_c, 8, 60, 0
10, 15120, Note_on_c, 8, 67, 127
10, 15200, Note_on_c, 8, 67, 0
10, 15840, Note_on_c, 8, 55, 127
10, 16000, Note_on_c, 8, 55, 0
10, 16080, Note_on_c, 8, 57, 127
10, 16160, Note_on_c, 8, 57, 0
10, 16200, Note_on_c, 8, 59, 127
10, 16280, Note_on_c, 8, 59, 0
10, 16320, Note_on_c, 8, 60, 127
10, 16400, Note_on_c, 8, 60, 0
10, 16440, Note_on_c, 8, 62, 127
10, 16520, Note_on_c, 8, 62, 0
10, 16560, Note_on_c, 8, 64, 127
10, 16720, Note_on_c, 8, 64, 0
10, 16800, Note_on_c, 8, 65, 127
10, 16880, Note_on_c, 8, 65, 0
10, 16920, Note_on_c, 8, 67, 127
10, 17000, Note_on_c, 8, 67, 0
10, 17040, Note_on_c, 8, 65, 127
10, 17120, Note_on_c, 8, 65, 0
10, 17160, Note_on_c, 8, 64, 127
10, 17240, Note_on_c, 8, 64, 0
10, 17280, Note_on_c, 8, 65, 127
10, 17440, Note_on_c, 8, 65, 0
10, 17520, Note_on_c, 8, 64, 127
10, 17600, Note_on_c, 8, 64, 0
10, 17640, Note_on_c, 8, 61, 127
10, 17720, Note_on_c, 8, 61, 0
10, 17760, Note_on_c, 8, 62, 127
10, 17840, Note_on_c, 8, 62, 0
10, 17880, Note_on_c, 8, 67, 127
10, 17960, Note_on_c, 8, 67, 0
10, 18000, Note_on_c, 8, 66, 127
10, 18160, Note_on_c, 8, 66, 0
10, 18240, Note_on_c, 8, 69, 127
10, 18320, Note_on_c, 8, 69, 0
10, 18360, Note_on_c, 8, 69, 127
10, 18440, Note_on_c, 8, 69, 0
10, 18480, Note_on_c, 8, 67, 127
10, 18560, Note_on_c, 8, 67, 0
10, 18600, Note_on_c, 8, 66, 127
10, 18680, Note_on_c, 8, 66, 0
10, 18720, Note_on_c, 8, 67, 127
10, 18800, Note_on_c, 8, 67, 0
10, 18840, Note_on_c, 8, 71, 127
10, 18920, Note_on_c, 8, 71, 0
10, 18960, Note_on_c, 8, 70, 127
10, 19040, Note_on_c, 8, 70, 0
10, 19080, Note_on_c, 8, 69, 127
10, 19160, Note_on_c, 8, 69, 0
10, 19200, Note_on_c, 8, 67, 127
10, 19280, Note_on_c, 8, 67, 0
10, 19320, Note_on_c, 8, 71, 127
10, 19400, Note_on_c, 8, 71, 0
10, 19440, Note_on_c, 8, 71, 127
10, 19520, Note_on_c, 8, 71, 0
10, 19560, Note_on_c, 8, 62, 127
10, 19720, Note_on_c, 8, 62, 0
10, 19800, Note_on_c, 8, 67, 127
10, 19880, Note_on_c, 8, 67, 0
10, 19920, Note_on_c, 8, 69, 127
10, 20000, Note_on_c, 8, 69, 0
10, 20040, Note_on_c, 8, 71, 127
10, 20120, Note_on_c, 8, 71, 0
10, 20160, Note_on_c, 8, 72, 127
10, 20200, Note_on_c, 8, 72, 0
10, 20280, Note_on_c, 8, 65, 127
10, 20360, Note_on_c, 8, 65, 0
10, 20400, Note_on_c, 8, 67, 127
10, 20480, Note_on_c, 8, 67, 0
10, 20520, Note_on_c, 8, 60, 127
10, 20560, Note_on_c, 8, 60, 0
10, 20640, Note_on_c, 8, 58, 127
10, 20720, Note_on_c, 8, 58, 0
10, 20760, Note_on_c, 8, 57, 127
10, 20840, Note_on_c, 8, 57, 0
10, 20880, Note_on_c, 8, 55, 127
10, 20960, Note_on_c, 8, 55, 0
10, 21000, Note_on_c, 8, 55, 127
10, 21080, Note_on_c, 8, 55, 0
10, 21120, Note_on_c, 8, 55, 127
10, 21200, Note_on_c, 8, 55, 0
10, 21240, Note_on_c, 8, 52, 127
10, 21320, Note_on_c, 8, 52, 0
10, 24480, Note_on_c, 8, 52, 127
10, 24520, Note_on_c, 8, 52, 0
10, 24540, Note_on_c, 8, 55, 127
10, 24580, Note_on_c, 8, 55, 0
10, 24600, Note_on_c, 8, 60, 127
10, 24640, Note_on_c, 8, 60, 0
10, 24660, Note_on_c, 8, 55, 127
10, 24700, Note_on_c, 8, 55, 0
10, 24720, Note_on_c, 8, 51, 127
10, 24760, Note_on_c, 8, 51, 0
10, 24780, Note_on_c, 8, 55, 127
10, 24820, Note_on_c, 8, 55, 0
10, 24840, Note_on_c, 8, 50, 127
10, 24880, Note_on_c, 8, 50, 0
10, 24900, Note_on_c, 8, 55, 127
10, 24940, Note_on_c, 8, 55, 0
10, 24960, Note_on_c, 8, 59, 127
10, 25000, Note_on_c, 8, 59, 0
10, 25020, Note_on_c, 8, 55, 127
10, 25060, Note_on_c, 8, 55, 0
10, 25080, Note_on_c, 8, 53, 127
10, 25120, Note_on_c, 8, 53, 0
10, 25140, Note_on_c, 8, 55, 127
10, 25180, Note_on_c, 8, 55, 0
10, 25200, Note_on_c, 8, 52, 127
10, 25240, Note_on_c, 8, 52, 0
10, 25260, Note_on_c, 8, 55, 127
10, 25300, Note_on_c, 8, 55, 0
10, 25320, Note_on_c, 8, 60, 127
10, 25360, Note_on_c, 8, 60, 0
10, 25380, Note_on_c, 8, 55, 127
10, 25420, Note_on_c, 8, 55, 0
10, 25440, Note_on_c, 8, 51, 127
10, 25480, Note_on_c, 8, 51, 0
10, 25500, Note_on_c, 8, 55, 127
10, 25540, Note_on_c, 8, 55, 0
10, 25560, Note_on_c, 8, 50, 127
10, 25600, Note_on_c, 8, 50, 0
10, 25620, Note_on_c, 8, 55, 127
10, 25660, Note_on_c, 8, 55, 0
10, 25680, Note_on_c, 8, 59, 127
10, 25720, Note_on_c, 8, 59, 0
10, 25740, Note_on_c, 8, 55, 127
10, 25780, Note_on_c, 8, 55, 0
10, 25800, Note_on_c, 8, 53, 127
10, 25840, Note_on_c, 8, 53, 0
10, 25860, Note_on_c, 8, 55, 127
10, 25900, Note_on_c, 8, 55, 0
10, 25920, Note_on_c, 8, 52, 127
10, 26000, Note_on_c, 8, 52, 0
10, 26040, Note_on_c, 8, 60, 127
10, 26080, Note_on_c, 8, 60, 0
10, 26100, Note_on_c, 8, 67, 127
10, 26140, Note_on_c, 8, 67, 0
10, 26160, Note_on_c, 8, 60, 127
10, 26200, Note_on_c, 8, 60, 0
10, 26220, Note_on_c, 8, 67, 127
10, 26260, Note_on_c, 8, 67, 0
10, 26280, Note_on_c, 8, 57, 127
10, 26320, Note_on_c, 8, 57, 0
10, 26340, Note_on_c, 8, 65, 127
10, 26380, Note_on_c, 8, 65, 0
10, 26400, Note_on_c, 8, 57, 127
10, 26440, Note_on_c, 8, 57, 0
10, 26460, Note_on_c, 8, 65, 127
10, 26500, Note_on_c, 8, 65, 0
10, 26520, Note_on_c, 8, 57, 127
10, 26560, Note_on_c, 8, 57, 0
10, 26580, Note_on_c, 8, 65, 127
10, 26620, Note_on_c, 8, 65, 0
10, 26640, Note_on_c, 8, 55, 127
10, 26680, Note_on_c, 8, 55, 0
10, 26700, Note_on_c, 8, 65, 127
10, 26740, Note_on_c, 8, 65, 0
10, 26760, Note_on_c, 8, 55, 127
10, 26800, Note_on_c, 8, 55, 0
10, 26820, Note_on_c, 8, 65, 127
10, 26860, Note_on_c, 8, 65, 0
10, 26880, Note_on_c, 8, 55, 127
10, 26920, Note_on_c, 8, 55, 0
10, 26940, Note_on_c, 8, 65, 127
10, 26980, Note_on_c, 8, 65, 0
10, 27000, Note_on_c, 8, 55, 127
10, 27000, Note_on_c, 8, 64, 127
10, 27080, Note_on_c, 8, 64, 0
10, 27080, Note_on_c, 8, 55, 0
10, 28200, Note_on_c, 8, 55, 50
10, 28240, Note_on_c, 8, 55, 0
10, 28320, Note_on_c, 8, 55, 50
10, 28360, Note_on_c, 8, 55, 0
10, 28440, Note_on_c, 8, 55, 50
10, 28480, Note_on_c, 8, 55, 0
10, 29760, Note_on_c, 8, 53, 50
10, 29800, Note_on_c, 8, 53, 0
10, 29880, Note_on_c, 8, 53, 50
10, 29920, Note_on_c, 8, 53, 0
10, 30240, Note_on_c, 8, 59, 127
10, 30320, Note_on_c, 8, 59, 0
10, 30360, Note_on_c, 8, 59, 127
10, 30400, Note_on_c, 8, 59, 0
10, 30420, Note_on_c, 8, 59, 127
10, 30460, Note_on_c, 8, 59, 0
10, 30480, Note_on_c, 8, 59, 127
10, 30560, Note_on_c, 8, 59, 0
10, 30600, Note_on_c, 8, 57, 127
10, 30680, Note_on_c, 8, 57, 0
10, 30720, Note_on_c, 8, 57, 127
10, 30760, Note_on_c, 8, 57, 0
10, 30780, Note_on_c, 8, 57, 127
10, 30820, Note_on_c, 8, 57, 0
10, 30840, Note_on_c, 8, 57, 127
10, 30920, Note_on_c, 8, 57, 0
10, 30960, Note_on_c, 8, 57, 127
10, 31040, Note_on_c, 8, 57, 0
10, 31080, Note_on_c, 8, 57, 127
10, 31120, Note_on_c, 8, 57, 0
10, 31140, Note_on_c, 8, 57, 127
10, 31180, Note_on_c, 8, 57, 0
10, 31200, Note_on_c, 8, 57, 127
10, 31280, Note_on_c, 8, 57, 0
10, 31320, Note_on_c, 8, 56, 127
10, 31400, Note_on_c, 8, 56, 0
10, 31440, Note_on_c, 8, 56, 127
10, 31480, Note_on_c, 8, 56, 0
10, 31500, Note_on_c, 8, 56, 127
10, 31540, Note_on_c, 8, 56, 0
10, 31560, Note_on_c, 8, 56, 127
10, 31640, Note_on_c, 8, 56, 0
10, 31680, Note_on_c, 8, 56, 127
10, 31760, Note_on_c, 8, 56, 0
10, 31800, Note_on_c, 8, 56, 127
10, 31840, Note_on_c, 8, 56, 0
10, 31860, Note_on_c, 8, 56, 127
10, 31900, Note_on_c, 8, 56, 0
10, 31920, Note_on_c, 8, 56, 127
10, 32000, Note_on_c, 8, 56, 0
10, 32040, Note_on_c, 8, 57, 127
10, 32120, Note_on_c, 8, 57, 0
10, 32160, Note_on_c, 8, 57, 127
10, 32200, Note_on_c, 8, 57, 0
10, 32220, Note_on_c, 8, 57, 127
10, 32260, Note_on_c, 8, 57, 0
10, 32280, Note_on_c, 8, 57, 127
10, 32360, Note_on_c, 8, 57, 0
10, 32400, Note_on_c, 8, 57, 127
10, 32480, Note_on_c, 8, 57, 0
10, 32520, Note_on_c, 8, 57, 127
10, 32560, Note_on_c, 8, 57, 0
10, 32580, Note_on_c, 8, 57, 127
10, 32620, Note_on_c, 8, 57, 0
10, 32640, Note_on_c, 8, 57, 127
10, 32720, Note_on_c, 8, 57, 0
10, 32760, Note_on_c, 8, 56, 127
10, 32840, Note_on_c, 8, 56, 0
10, 32880, Note_on_c, 8, 68, 50
10, 32960, Note_on_c, 8, 68, 0
10, 33000, Note_on_c, 8, 68, 50
10, 33080, Note_on_c, 8, 68, 0
10, 33240, Note_on_c, 8, 66, 50
10, 33320, Note_on_c, 8, 66, 0
10, 33360, Note_on_c, 8, 66, 50
10, 33440, Note_on_c, 8, 66, 0
10, 33600, Note_on_c, 8, 64, 50
10, 33680, Note_on_c, 8, 64, 0
10, 33720, Note_on_c, 8, 64, 50
10, 33800, Note_on_c, 8, 64, 0
10, 33960, Note_on_c, 8, 64, 50
10, 34040, Note_on_c, 8, 64, 0
10, 34080, Note_on_c, 8, 64, 50
10, 34160, Note_on_c, 8, 64, 0
10, 34320, Note_on_c, 8, 62, 50
10, 34400, Note_on_c, 8, 62, 0
10, 34440, Note_on_c, 8, 62, 50
10, 34520, Note_on_c, 8, 62, 0
10, 35280, Note_on_c, 8, 55, 50
10, 35280, Note_on_c, 8, 55, 50
10, 35280, Note_on_c, 8, 55, 50
10, 35520, Note_on_c, 8, 55, 0
10, 35520, Note_on_c, 8, 55, 0
10, 35761, Note_on_c, 8, 55, 0
10, 36720, Note_on_c, 8, 50, 50
10, 36880, Note_on_c, 8, 50, 0
10, 36960, Note_on_c, 8, 53, 50
10, 37040, Note_on_c, 8, 53, 0
10, 37080, Note_on_c, 8, 52, 50
10, 37120, Note_on_c, 8, 52, 0
10, 38160, Note_on_c, 8, 72, 50
10, 38240, Note_on_c, 8, 72, 0
10, 38520, Note_on_c, 8, 67, 70
10, 38600, Note_on_c, 8, 67, 0
10, 39600, Note_on_c, 8, 67, 50
10, 39680, Note_on_c, 8, 67, 0
10, 39960, Note_on_c, 8, 60, 70
10, 40040, Note_on_c, 8, 60, 0
10, 40320, Note_on_c, 8, 59, 127
10, 40360, Note_on_c, 8, 59, 0
10, 40380, Note_on_c, 8, 62, 127
10, 40420, Note_on_c, 8, 62, 0
10, 40440, Note_on_c, 8, 59, 127
10, 40480, Note_on_c, 8, 59, 0
10, 40500, Note_on_c, 8, 62, 127
10, 40540, Note_on_c, 8, 62, 0
10, 40560, Note_on_c, 8, 58, 127
10, 40600, Note_on_c, 8, 58, 0
10, 40620, Note_on_c, 8, 62, 127
10, 40660, Note_on_c, 8, 62, 0
10, 40680, Note_on_c, 8, 57, 127
10, 40720, Note_on_c, 8, 57, 0
10, 40740, Note_on_c, 8, 62, 127
10, 40780, Note_on_c, 8, 62, 0
10, 40800, Note_on_c, 8, 60, 127
10, 40840, Note_on_c, 8, 60, 0
10, 40860, Note_on_c, 8, 62, 127
10, 40900, Note_on_c, 8, 62, 0
10, 40920, Note_on_c, 8, 57, 127
10, 40960, Note_on_c, 8, 57, 0
10, 40980, Note_on_c, 8, 62, 127
10, 41020, Note_on_c, 8, 62, 0
10, 41040, Note_on_c, 8, 59, 127
10, 41080, Note_on_c, 8, 59, 0
10, 41100, Note_on_c, 8, 62, 127
10, 41140, Note_on_c, 8, 62, 0
10, 41160, Note_on_c, 8, 59, 127
10, 41200, Note_on_c, 8, 59, 0
10, 41220, Note_on_c, 8, 62, 127
10, 41260, Note_on_c, 8, 62, 0
10, 41280, Note_on_c, 8, 58, 127
10, 41320, Note_on_c, 8, 58, 0
10, 41340, Note_on_c, 8, 62, 127
10, 41380, Note_on_c, 8, 62, 0
10, 41400, Note_on_c, 8, 57, 127
10, 41440, Note_on_c, 8, 57, 0
10, 41460, Note_on_c, 8, 62, 127
10, 41500, Note_on_c, 8, 62, 0
10, 41520, Note_on_c, 8, 60, 127
10, 41560, Note_on_c, 8, 60, 0
10, 41580, Note_on_c, 8, 62, 127
10, 41620, Note_on_c, 8, 62, 0
10, 41640, Note_on_c, 8, 57, 127
10, 41680, Note_on_c, 8, 57, 0
10, 41700, Note_on_c, 8, 62, 127
10, 41740, Note_on_c, 8, 62, 0
10, 41760, Note_on_c, 8, 59, 127
10, 41800, Note_on_c, 8, 59, 0
10, 41820, Note_on_c, 8, 62, 127
10, 41860, Note_on_c, 8, 62, 0
10, 41880, Note_on_c, 8, 59, 127
10, 41920, Note_on_c, 8, 59, 0
10, 41940, Note_on_c, 8, 62, 127
10, 41980, Note_on_c, 8, 62, 0
10, 42000, Note_on_c, 8, 59, 127
10, 42040, Note_on_c, 8, 59, 0
10, 42060, Note_on_c, 8, 62, 127
10, 42100, Note_on_c, 8, 62, 0
10, 42120, Note_on_c, 8, 60, 127
10, 42160, Note_on_c, 8, 60, 0
10, 42180, Note_on_c, 8, 64, 127
10, 42220, Note_on_c, 8, 64, 0
10, 42240, Note_on_c, 8, 60, 127
10, 42280, Note_on_c, 8, 60, 0
10, 42300, Note_on_c, 8, 64, 127
10, 42340, Note_on_c, 8, 64, 0
10, 42360, Note_on_c, 8, 60, 127
10, 42400, Note_on_c, 8, 60, 0
10, 42420, Note_on_c, 8, 64, 127
10, 42460, Note_on_c, 8, 64, 0
10, 42480, Note_on_c, 8, 60, 127
10, 42520, Note_on_c, 8, 60, 0
10, 42540, Note_on_c, 8, 62, 127
10, 42580, Note_on_c, 8, 62, 0
10, 42600, Note_on_c, 8, 60, 127
10, 42640, Note_on_c, 8, 60, 0
10, 42660, Note_on_c, 8, 62, 127
10, 42700, Note_on_c, 8, 62, 0
10, 42720, Note_on_c, 8, 60, 127
10, 42760, Note_on_c, 8, 60, 0
10, 42780, Note_on_c, 8, 62, 127
10, 42820, Note_on_c, 8, 62, 0
10, 42840, Note_on_c, 8, 62, 127
10, 42840, Note_on_c, 8, 59, 127
10, 42880, Note_on_c, 8, 59, 0
10, 42880, Note_on_c, 8, 62, 0
10, 42880, End_track
11, 0, Start_track
11, 0, Title_t, "Violoncelli"
11, 0, Control_c, 10, 0, 0
11, 0, Control_c, 10, 7, 105
11, 0, Control_c, 10, 10, 105
11, 1, Program_c, 10, 48
11, 1080, Note_on_c, 10, 60, 50
11, 1160, Note_on_c, 10, 60, 0
11, 1440, Note_on_c, 10, 55, 70
11, 1520, Note_on_c, 10, 55, 0
11, 2520, Note_on_c, 10, 55, 50
11, 2600, Note_on_c, 10, 55, 0
11, 2880, Note_on_c, 10, 48, 70
11, 2960, Note_on_c, 10, 48, 0
11, 3240, Note_on_c, 10, 59, 127
11, 3280, Note_on_c, 10, 59, 0
11, 3300, Note_on_c, 10, 62, 127
11, 3340, Note_on_c, 10, 62, 0
11, 3360, Note_on_c, 10, 59, 127
11, 3400, Note_on_c, 10, 59, 0
11, 3420, Note_on_c, 10, 62, 127
11, 3460, Note_on_c, 10, 62, 0
11, 3480, Note_on_c, 10, 58, 127
11, 3520, Note_on_c, 10, 58, 0
11, 3540, Note_on_c, 10, 62, 127
11, 3580, Note_on_c, 10, 62, 0
11, 3600, Note_on_c, 10, 57, 127
11, 3640, Note_on_c, 10, 57, 0
11, 3660, Note_on_c, 10, 62, 127
11, 3700, Note_on_c, 10, 62, 0
11, 3720, Note_on_c, 10, 60, 127
11, 3760, Note_on_c, 10, 60, 0
11, 3780, Note_on_c, 10, 62, 127
11, 3820, Note_on_c, 10, 62, 0
11, 3840, Note_on_c, 10, 57, 127
11, 3880, Note_on_c, 10, 57, 0
11, 3900, Note_on_c, 10, 62, 127
11, 3940, Note_on_c, 10, 62, 0
11, 3960, Note_on_c, 10, 59, 127
11, 4000, Note_on_c, 10, 59, 0
11, 4020, Note_on_c, 10, 62, 127
11, 4060, Note_on_c, 10, 62, 0
11, 4080, Note_on_c, 10, 59, 127
11, 4120, Note_on_c, 10, 59, 0
11, 4140, Note_on_c, 10, 62, 127
11, 4180, Note_on_c, 10, 62, 0
11, 4200, Note_on_c, 10, 58, 127
11, 4240, Note_on_c, 10, 58, 0
11, 4260, Note_on_c, 10, 62, 127
11, 4300, Note_on_c, 10, 62, 0
11, 4320, Note_on_c, 10, 57, 127
11, 4360, Note_on_c, 10, 57, 0
11, 4380, Note_on_c, 10, 62, 127
11, 4420, Note_on_c, 10, 62, 0
11, 4440, Note_on_c, 10, 60, 127
11, 4480, Note_on_c, 10, 60, 0
11, 4500, Note_on_c, 10, 62, 127
11, 4540, Note_on_c, 10, 62, 0
11, 4560, Note_on_c, 10, 57, 127
11, 4600, Note_on_c, 10, 57, 0
11, 4620, Note_on_c, 10, 62, 127
11, 4660, Note_on_c, 10, 62, 0
11, 4680, Note_on_c, 10, 59, 127
11, 4760, Note_on_c, 10, 59, 0
11, 4800, Note_on_c, 10, 47, 127
11, 4880, Note_on_c, 10, 47, 0
11, 4920, Note_on_c, 10, 47, 127
11, 5000, Note_on_c, 10, 47, 0
11, 5040, Note_on_c, 10, 48, 127
11, 5120, Note_on_c, 10, 48, 0
11, 5160, Note_on_c, 10, 48, 127
11, 5240, Note_on_c, 10, 48, 0
11, 5280, Note_on_c, 10, 48, 127
11, 5360, Note_on_c, 10, 48, 0
11, 5400, Note_on_c, 10, 50, 127
11, 5480, Note_on_c, 10, 50, 0
11, 5520, Note_on_c, 10, 50, 127
11, 5600, Note_on_c, 10, 50, 0
11, 5640, Note_on_c, 10, 50, 127
11, 5720, Note_on_c, 10, 50, 0
11, 5760, Note_on_c, 10, 43, 127
11, 5840, Note_on_c, 10, 43, 0
11, 6840, Note_on_c, 10, 60, 50
11, 6920, Note_on_c, 10, 60, 0
11, 7200, Note_on_c, 10, 55, 70
11, 7280, Note_on_c, 10, 55, 0
11, 8280, Note_on_c, 10, 55, 50
11, 8360, Note_on_c, 10, 55, 0
11, 8640, Note_on_c, 10, 48, 70
11, 8720, Note_on_c, 10, 48, 0
11, 9000, Note_on_c, 10, 59, 127
11, 9040, Note_on_c, 10, 59, 0
11, 9060, Note_on_c, 10, 62, 127
11, 9100, Note_on_c, 10, 62, 0
11, 9120, Note_on_c, 10, 59, 127
11, 9160, Note_on_c, 10, 59, 0
11, 9180, Note_on_c, 10, 62, 127
11, 9220, Note_on_c, 10, 62, 0
11, 9240, Note_on_c, 10, 58, 127
11, 9280, Note_on_c, 10, 58, 0
11, 9300, Note_on_c, 10, 62, 127
11, 9340, Note_on_c, 10, 62, 0
11, 9360, Note_on_c, 10, 57, 127
11, 9400, Note_on_c, 10, 57, 0
11, 9420, Note_on_c, 10, 62, 127
11, 9460, Note_on_c, 10, 62, 0
11, 9480, Note_on_c, 10, 60, 127
11, 9520, Note_on_c, 10, 60, 0
11, 9540, Note_on_c, 10, 62, 127
11, 9580, Note_on_c, 10, 62, 0
11, 9600, Note_on_c, 10, 57, 127
11, 9640, Note_on_c, 10, 57, 0
11, 9660, Note_on_c, 10, 62, 127
11, 9700, Note_on_c, 10, 62, 0
11, 9720, Note_on_c, 10, 59, 127
11, 9760, Note_on_c, 10, 59, 0
11, 9780, Note_on_c, 10, 62, 127
11, 9820, Note_on_c, 10, 62, 0
11, 9840, Note_on_c, 10, 59, 127
11, 9880, Note_on_c, 10, 59, 0
11, 9900, Note_on_c, 10, 62, 127
11, 9940, Note_on_c, 10, 62, 0
11, 9960, Note_on_c, 10, 58, 127
11, 10000, Note_on_c, 10, 58, 0
11, 10020, Note_on_c, 10, 62, 127
11, 10060, Note_on_c, 10, 62, 0
11, 10080, Note_on_c, 10, 57, 127
11, 10120, Note_on_c, 10, 57, 0
11, 10140, Note_on_c, 10, 62, 127
11, 10180, Note_on_c, 10, 62, 0
11, 10200, Note_on_c, 10, 60, 127
11, 10240, Note_on_c, 10, 60, 0
11, 10260, Note_on_c, 10, 62, 127
11, 10300, Note_on_c, 10, 62, 0
11, 10320, Note_on_c, 10, 57, 127
11, 10360, Note_on_c, 10, 57, 0
11, 10380, Note_on_c, 10, 62, 127
11, 10420, Note_on_c, 10, 62, 0
11, 10440, Note_on_c, 10, 59, 127
11, 10520, Note_on_c, 10, 59, 0
11, 10560, Note_on_c, 10, 47, 127
11, 10640, Note_on_c, 10, 47, 0
11, 10680, Note_on_c, 10, 47, 127
11, 10760, Note_on_c, 10, 47, 0
11, 10800, Note_on_c, 10, 48, 127
11, 10880, Note_on_c, 10, 48, 0
11, 10920, Note_on_c, 10, 48, 127
11, 11000, Note_on_c, 10, 48, 0
11, 11040, Note_on_c, 10, 48, 127
11, 11120, Note_on_c, 10, 48, 0
11, 11160, Note_on_c, 10, 50, 127
11, 11240, Note_on_c, 10, 50, 0
11, 11280, Note_on_c, 10, 50, 127
11, 11360, Note_on_c, 10, 50, 0
11, 11400, Note_on_c, 10, 50, 127
11, 11480, Note_on_c, 10, 50, 0
11, 11520, Note_on_c, 10, 43, 127
11, 11600, Note_on_c, 10, 43, 0
11, 11880, Note_on_c, 10, 43, 50
11, 11960, Note_on_c, 10, 43, 0
11, 12600, Note_on_c, 10, 43, 55
11, 12680, Note_on_c, 10, 43, 0
11, 13320, Note_on_c, 10, 43, 60
11, 13400, Note_on_c, 10, 43, 0
11, 13680, Note_on_c, 10, 43, 63
11, 13760, Note_on_c, 10, 43, 0
11, 14040, Note_on_c, 10, 43, 66
11, 14120, Note_on_c, 10, 43, 0
11, 14400, Note_on_c, 10, 43, 69
11, 14480, Note_on_c, 10, 43, 0
11, 14520, Note_on_c, 10, 55, 127
11, 14600, Note_on_c, 10, 55, 0
11, 14640, Note_on_c, 10, 55, 127
11, 14720, Note_on_c, 10, 55, 0
11, 14760, Note_on_c, 10, 55, 127
11, 14920, Note_on_c, 10, 55, 0
11, 15000, Note_on_c, 10, 52, 127
11, 15040, Note_on_c, 10, 52, 0
11, 15060, Note_on_c, 10, 48, 127
11, 15100, Note_on_c, 10, 48, 0
11, 15120, Note_on_c, 10, 55, 127
11, 15200, Note_on_c, 10, 55, 0
11, 16560, Note_on_c, 10, 60, 127
11, 16720, Note_on_c, 10, 60, 0
11, 16800, Note_on_c, 10, 59, 127
11, 16880, Note_on_c, 10, 59, 0
11, 16920, Note_on_c, 10, 58, 127
11, 17000, Note_on_c, 10, 58, 0
11, 17040, Note_on_c, 10, 57, 127
11, 17120, Note_on_c, 10, 57, 0
11, 17160, Note_on_c, 10, 55, 127
11, 17240, Note_on_c, 10, 55, 0
11, 17280, Note_on_c, 10, 53, 127
11, 17360, Note_on_c, 10, 53, 0
11, 18000, Note_on_c, 10, 62, 127
11, 18160, Note_on_c, 10, 62, 0
11, 18240, Note_on_c, 10, 61, 127
11, 18320, Note_on_c, 10, 61, 0
11, 18360, Note_on_c, 10, 60, 127
11, 18440, Note_on_c, 10, 60, 0
11, 18480, Note_on_c, 10, 59, 127
11, 18560, Note_on_c, 10, 59, 0
11, 18600, Note_on_c, 10, 57, 127
11, 18680, Note_on_c, 10, 57, 0
11, 18720, Note_on_c, 10, 55, 127
11, 18800, Note_on_c, 10, 55, 0
11, 19440, Note_on_c, 10, 67, 127
11, 19600, Note_on_c, 10, 67, 0
11, 19680, Note_on_c, 10, 66, 127
11, 19760, Note_on_c, 10, 66, 0
11, 19800, Note_on_c, 10, 65, 127
11, 19880, Note_on_c, 10, 65, 0
11, 19920, Note_on_c, 10, 64, 127
11, 20000, Note_on_c, 10, 64, 0
11, 20040, Note_on_c, 10, 62, 127
11, 20120, Note_on_c, 10, 62, 0
11, 20160, Note_on_c, 10, 60, 127
11, 20200, Note_on_c, 10, 60, 0
11, 20280, Note_on_c, 10, 62, 127
11, 20360, Note_on_c, 10, 62, 0
11, 20400, Note_on_c, 10, 64, 127
11, 20480, Note_on_c, 10, 64, 0
11, 20520, Note_on_c, 10, 53, 127
11, 20560, Note_on_c, 10, 53, 0
11, 20640, Note_on_c, 10, 55, 127
11, 20720, Note_on_c, 10, 55, 0
11, 20760, Note_on_c, 10, 57, 127
11, 20840, Note_on_c, 10, 57, 0
11, 20880, Note_on_c, 10, 55, 127
11, 20960, Note_on_c, 10, 55, 0
11, 21000, Note_on_c, 10, 55, 127
11, 21080, Note_on_c, 10, 55, 0
11, 21120, Note_on_c, 10, 55, 127
11, 21200, Note_on_c, 10, 55, 0
11, 21240, Note_on_c, 10, 48, 127
11, 21320, Note_on_c, 10, 48, 0
11, 24480, Note_on_c, 10, 52, 127
11, 24520, Note_on_c, 10, 52, 0
11, 24540, Note_on_c, 10, 55, 127
11, 24580, Note_on_c, 10, 55, 0
11, 24600, Note_on_c, 10, 60, 127
11, 24640, Note_on_c, 10, 60, 0
11, 24660, Note_on_c, 10, 55, 127
11, 24700, Note_on_c, 10, 55, 0
11, 24720, Note_on_c, 10, 51, 127
11, 24760, Note_on_c, 10, 51, 0
11, 24780, Note_on_c, 10, 55, 127
11, 24820, Note_on_c, 10, 55, 0
11, 24840, Note_on_c, 10, 50, 127
11, 24880, Note_on_c, 10, 50, 0
11, 24900, Note_on_c, 10, 55, 127
11, 24940, Note_on_c, 10, 55, 0
11, 24960, Note_on_c, 10, 59, 127
11, 25000, Note_on_c, 10, 59, 0
11, 25020, Note_on_c, 10, 55, 127
11, 25060, Note_on_c, 10, 55, 0
11, 25080, Note_on_c, 10, 53, 127
11, 25120, Note_on_c, 10, 53, 0
11, 25140, Note_on_c, 10, 55, 127
11, 25180, Note_on_c, 10, 55, 0
11, 25200, Note_on_c, 10, 52, 127
11, 25240, Note_on_c, 10, 52, 0
11, 25260, Note_on_c, 10, 55, 127
11, 25300, Note_on_c, 10, 55, 0
11, 25320, Note_on_c, 10, 60, 127
11, 25360, Note_on_c, 10, 60, 0
11, 25380, Note_on_c, 10, 55, 127
11, 25420, Note_on_c, 10, 55, 0
11, 25440, Note_on_c, 10, 51, 127
11, 25480, Note_on_c, 10, 51, 0
11, 25500, Note_on_c, 10, 55, 127
11, 25540, Note_on_c, 10, 55, 0
11, 25560, Note_on_c, 10, 50, 127
11, 25600, Note_on_c, 10, 50, 0
11, 25620, Note_on_c, 10, 55, 127
11, 25660, Note_on_c, 10, 55, 0
11, 25680, Note_on_c, 10, 59, 127
11, 25720, Note_on_c, 10, 59, 0
11, 25740, Note_on_c, 10, 55, 127
11, 25780, Note_on_c, 10, 55, 0
11, 25800, Note_on_c, 10, 53, 127
11, 25840, Note_on_c, 10, 53, 0
11, 25860, Note_on_c, 10, 55, 127
11, 25900, Note_on_c, 10, 55, 0
11, 25920, Note_on_c, 10, 52, 127
11, 26000, Note_on_c, 10, 52, 0
11, 26040, Note_on_c, 10, 52, 127
11, 26120, Note_on_c, 10, 52, 0
11, 26160, Note_on_c, 10, 52, 127
11, 26240, Note_on_c, 10, 52, 0
11, 26280, Note_on_c, 10, 53, 127
11, 26360, Note_on_c, 10, 53, 0
11, 26400, Note_on_c, 10, 53, 127
11, 26480, Note_on_c, 10, 53, 0
11, 26520, Note_on_c, 10, 53, 127
11, 26600, Note_on_c, 10, 53, 0
11, 26640, Note_on_c, 10, 55, 127
11, 26720, Note_on_c, 10, 55, 0
11, 26760, Note_on_c, 10, 55, 127
11, 26840, Note_on_c, 10, 55, 0
11, 26880, Note_on_c, 10, 55, 127
11, 26960, Note_on_c, 10, 55, 0
11, 27000, Note_on_c, 10, 48, 127
11, 27080, Note_on_c, 10, 48, 0
11, 28200, Note_on_c, 10, 59, 50
11, 28240, Note_on_c, 10, 59, 0
11, 28320, Note_on_c, 10, 60, 50
11, 28360, Note_on_c, 10, 60, 0
11, 28440, Note_on_c, 10, 55, 50
11, 28480, Note_on_c, 10, 55, 0
11, 29760, Note_on_c, 10, 55, 50
11, 29800, Note_on_c, 10, 55, 0
11, 29880, Note_on_c, 10, 48, 50
11, 29920, Note_on_c, 10, 48, 0
11, 30240, Note_on_c, 10, 52, 127
11, 30320, Note_on_c, 10, 52, 0
11, 30360, Note_on_c, 10, 64, 127
11, 30400, Note_on_c, 10, 64, 0
11, 30420, Note_on_c, 10, 64, 127
11, 30460, Note_on_c, 10, 64, 0
11, 30480, Note_on_c, 10, 64, 127
11, 30560, Note_on_c, 10, 64, 0
11, 30600, Note_on_c, 10, 52, 127
11, 30680, Note_on_c, 10, 52, 0
11, 30720, Note_on_c, 10, 64, 127
11, 30760, Note_on_c, 10, 64, 0
11, 30780, Note_on_c, 10, 64, 127
11, 30820, Note_on_c, 10, 64, 0
11, 30840, Note_on_c, 10, 64, 127
11, 30920, Note_on_c, 10, 64, 0
11, 30960, Note_on_c, 10, 52, 127
11, 31040, Note_on_c, 10, 52, 0
11, 31080, Note_on_c, 10, 64, 127
11, 31120, Note_on_c, 10, 64, 0
11, 31140, Note_on_c, 10, 64, 127
11, 31180, Note_on_c, 10, 64, 0
11, 31200, Note_on_c, 10, 64, 127
11, 31280, Note_on_c, 10, 64, 0
11, 31320, Note_on_c, 10, 52, 127
11, 31400, Note_on_c, 10, 52, 0
11, 31440, Note_on_c, 10, 64, 127
11, 31480, Note_on_c, 10, 64, 0
11, 31500, Note_on_c, 10, 64, 127
11, 31540, Note_on_c, 10, 64, 0
11, 31560, Note_on_c, 10, 64, 127
11, 31640, Note_on_c, 10, 64, 0
11, 31680, Note_on_c, 10, 52, 127
11, 31760, Note_on_c, 10, 52, 0
11, 31800, Note_on_c, 10, 64, 127
11, 31840, Note_on_c, 10, 64, 0
11, 31860, Note_on_c, 10, 64, 127
11, 31900, Note_on_c, 10, 64, 0
11, 31920, Note_on_c, 10, 64, 127
11, 32000, Note_on_c, 10, 64, 0
11, 32040, Note_on_c, 10, 52, 127
11, 32120, Note_on_c, 10, 52, 0
11, 32160, Note_on_c, 10, 64, 127
11, 32200, Note_on_c, 10, 64, 0
11, 32220, Note_on_c, 10, 64, 127
11, 32260, Note_on_c, 10, 64, 0
11, 32280, Note_on_c, 10, 64, 127
11, 32360, Note_on_c, 10, 64, 0
11, 32400, Note_on_c, 10, 52, 127
11, 32480, Note_on_c, 10, 52, 0
11, 32520, Note_on_c, 10, 64, 127
11, 32560, Note_on_c, 10, 64, 0
11, 32580, Note_on_c, 10, 64, 127
11, 32620, Note_on_c, 10, 64, 0
11, 32640, Note_on_c, 10, 64, 127
11, 32720, Note_on_c, 10, 64, 0
11, 32760, Note_on_c, 10, 52, 127
11, 32840, Note_on_c, 10, 52, 0
11, 33120, Note_on_c, 10, 59, 50
11, 33200, Note_on_c, 10, 59, 0
11, 33480, Note_on_c, 10, 64, 50
11, 33560, Note_on_c, 10, 64, 0
11, 33840, Note_on_c, 10, 57, 50
11, 33920, Note_on_c, 10, 57, 0
11, 34200, Note_on_c, 10, 62, 50
11, 34280, Note_on_c, 10, 62, 0
11, 35280, Note_on_c, 10, 59, 50
11, 35440, Note_on_c, 10, 59, 0
11, 35520, Note_on_c, 10, 60, 50
11, 35600, Note_on_c, 10, 60, 0
11, 35640, Note_on_c, 10, 55, 50
11, 35720, Note_on_c, 10, 55, 0
11, 36720, Note_on_c, 10, 55, 50
11, 36960, Note_on_c, 10, 55, 0
11, 37080, Note_on_c, 10, 48, 50
11, 37120, Note_on_c, 10, 48, 0
11, 38160, Note_on_c, 10, 60, 50
11, 38240, Note_on_c, 10, 60, 0
11, 38520, Note_on_c, 10, 55, 70
11, 38600, Note_on_c, 10, 55, 0
11, 39600, Note_on_c, 10, 55, 50
11, 39680, Note_on_c, 10, 55, 0
11, 39960, Note_on_c, 10, 48, 70
11, 40040, Note_on_c, 10, 48, 0
11, 40320, Note_on_c, 10, 59, 127
11, 40360, Note_on_c, 10, 59, 0
11, 40380, Note_on_c, 10, 62, 127
11, 40420, Note_on_c, 10, 62, 0
11, 40440, Note_on_c, 10, 59, 127
11, 40480, Note_on_c, 10, 59, 0
11, 40500, Note_on_c, 10, 62, 127
11, 40540, Note_on_c, 10, 62, 0
11, 40560, Note_on_c, 10, 58, 127
11, 40600, Note_on_c, 10, 58, 0
11, 40620, Note_on_c, 10, 62, 127
11, 40660, Note_on_c, 10, 62, 0
11, 40680, Note_on_c, 10, 57, 127
11, 40720, Note_on_c, 10, 57, 0
11, 40740, Note_on_c, 10, 62, 127
11, 40780, Note_on_c, 10, 62, 0
11, 40800, Note_on_c, 10, 60, 127
11, 40840, Note_on_c, 10, 60, 0
11, 40860, Note_on_c, 10, 62, 127
11, 40900, Note_on_c, 10, 62, 0
11, 40920, Note_on_c, 10, 57, 127
11, 40960, Note_on_c, 10, 57, 0
11, 40980, Note_on_c, 10, 62, 127
11, 41020, Note_on_c, 10, 62, 0
11, 41040, Note_on_c, 10, 59, 127
11, 41080, Note_on_c, 10, 59, 0
11, 41100, Note_on_c, 10, 62, 127
11, 41140, Note_on_c, 10, 62, 0
11, 41160, Note_on_c, 10, 59, 127
11, 41200, Note_on_c, 10, 59, 0
11, 41220, Note_on_c, 10, 62, 127
11, 41260, Note_on_c, 10, 62, 0
11, 41280, Note_on_c, 10, 58, 127
11, 41320, Note_on_c, 10, 58, 0
11, 41340, Note_on_c, 10, 62, 127
11, 41380, Note_on_c, 10, 62, 0
11, 41400, Note_on_c, 10, 57, 127
11, 41440, Note_on_c, 10, 57, 0
11, 41460, Note_on_c, 10, 62, 127
11, 41500, Note_on_c, 10, 62, 0
11, 41520, Note_on_c, 10, 60, 127
11, 41560, Note_on_c, 10, 60, 0
11, 41580, Note_on_c, 10, 62, 127
11, 41620, Note_on_c, 10, 62, 0
11, 41640, Note_on_c, 10, 57, 127
11, 41680, Note_on_c, 10, 57, 0
11, 41700, Note_on_c, 10, 62, 127
11, 41740, Note_on_c, 10, 62, 0
11, 41760, Note_on_c, 10, 59, 127
11, 41840, Note_on_c, 10, 59, 0
11, 41880, Note_on_c, 10, 47, 127
11, 41960, Note_on_c, 10, 47, 0
11, 42000, Note_on_c, 10, 47, 127
11, 42080, Note_on_c, 10, 47, 0
11, 42120, Note_on_c, 10, 48, 127
11, 42200, Note_on_c, 10, 48, 0
11, 42240, Note_on_c, 10, 48, 127
11, 42320, Note_on_c, 10, 48, 0
11, 42360, Note_on_c, 10, 48, 127
11, 42440, Note_on_c, 10, 48, 0
11, 42480, Note_on_c, 10, 50, 127
11, 42560, Note_on_c, 10, 50, 0
11, 42600, Note_on_c, 10, 50, 127
11, 42680, Note_on_c, 10, 50, 0
11, 42720, Note_on_c, 10, 50, 127
11, 42800, Note_on_c, 10, 50, 0
11, 42840, Note_on_c, 10, 43, 127
11, 42920, Note_on_c, 10, 43, 0
11, 42920, End_track
12, 0, Start_track
12, 0, Title_t, "Contrabassi"
12, 0, Control_c, 11, 0, 0
12, 0, Control_c, 11, 7, 105
12, 0, Control_c, 11, 10, 120
12, 1, Program_c, 11, 48
12, 1080, Note_on_c, 11, 48, 50
12, 1160, Note_on_c, 11, 48, 0
12, 1440, Note_on_c, 11, 43, 70
12, 1520, Note_on_c, 11, 43, 0
12, 2520, Note_on_c, 11, 43, 50
12, 2600, Note_on_c, 11, 43, 0
12, 2880, Note_on_c, 11, 36, 70
12, 2960, Note_on_c, 11, 36, 0
12, 3240, Note_on_c, 11, 43, 127
12, 3320, Note_on_c, 11, 43, 0
12, 3600, Note_on_c, 11, 38, 127
12, 3680, Note_on_c, 11, 38, 0
12, 3960, Note_on_c, 11, 43, 127
12, 4040, Note_on_c, 11, 43, 0
12, 4320, Note_on_c, 11, 38, 127
12, 4400, Note_on_c, 11, 38, 0
12, 4680, Note_on_c, 11, 35, 127
12, 4760, Note_on_c, 11, 35, 0
12, 4800, Note_on_c, 11, 35, 127
12, 4880, Note_on_c, 11, 35, 0
12, 4920, Note_on_c, 11, 35, 127
12, 5000, Note_on_c, 11, 35, 0
12, 5040, Note_on_c, 11, 36, 127
12, 5120, Note_on_c, 11, 36, 0
12, 5160, Note_on_c, 11, 36, 127
12, 5240, Note_on_c, 11, 36, 0
12, 5280, Note_on_c, 11, 36, 127
12, 5360, Note_on_c, 11, 36, 0
12, 5400, Note_on_c, 11, 38, 127
12, 5480, Note_on_c, 11, 38, 0
12, 5520, Note_on_c, 11, 38, 127
12, 5600, Note_on_c, 11, 38, 0
12, 5640, Note_on_c, 11, 38, 127
12, 5720, Note_on_c, 11, 38, 0
12, 5760, Note_on_c, 11, 31, 127
12, 5840, Note_on_c, 11, 31, 0
12, 6840, Note_on_c, 11, 48, 50
12, 6920, Note_on_c, 11, 48, 0
12, 7200, Note_on_c, 11, 43, 70
12, 7280, Note_on_c, 11, 43, 0
12, 8280, Note_on_c, 11, 43, 50
12, 8360, Note_on_c, 11, 43, 0
12, 8640, Note_on_c, 11, 36, 70
12, 8720, Note_on_c, 11, 36, 0
12, 9000, Note_on_c, 11, 43, 127
12, 9080, Note_on_c, 11, 43, 0
12, 9360, Note_on_c, 11, 38, 127
12, 9440, Note_on_c, 11, 38, 0
12, 9720, Note_on_c, 11, 43, 127
12, 9800, Note_on_c, 11, 43, 0
12, 10080, Note_on_c, 11, 38, 127
12, 10160, Note_on_c, 11, 38, 0
12, 10440, Note_on_c, 11, 35, 127
12, 10520, Note_on_c, 11, 35, 0
12, 10560, Note_on_c, 11, 35, 127
12, 10640, Note_on_c, 11, 35, 0
12, 10680, Note_on_c, 11, 35, 127
12, 10760, Note_on_c, 11, 35, 0
12, 10800, Note_on_c, 11, 36, 127
12, 10880, Note_on_c, 11, 36, 0
12, 10920, Note_on_c, 11, 36, 127
12, 11000, Note_on_c, 11, 36, 0
12, 11040, Note_on_c, 11, 36, 127
12, 11120, Note_on_c, 11, 36, 0
12, 11160, Note_on_c, 11, 38, 127
12, 11240, Note_on_c, 11, 38, 0
12, 11280, Note_on_c, 11, 38, 127
12, 11360, Note_on_c, 11, 38, 0
12, 11400, Note_on_c, 11, 38, 127
12, 11480, Note_on_c, 11, 38, 0
12, 11520, Note_on_c, 11, 31, 127
12, 11600, Note_on_c, 11, 31, 0
12, 11880, Note_on_c, 11, 31, 50
12, 11960, Note_on_c, 11, 31, 0
12, 12600, Note_on_c, 11, 31, 55
12, 12680, Note_on_c, 11, 31, 0
12, 13320, Note_on_c, 11, 31, 60
12, 13400, Note_on_c, 11, 31, 0
12, 13680, Note_on_c, 11, 31, 63
12, 13760, Note_on_c, 11, 31, 0
12, 14040, Note_on_c, 11, 31, 66
12, 14120, Note_on_c, 11, 31, 0
12, 14400, Note_on_c, 11, 31, 69
12, 14480, Note_on_c, 11, 31, 0
12, 14520, Note_on_c, 11, 43, 127
12, 14600, Note_on_c, 11, 43, 0
12, 14640, Note_on_c, 11, 43, 127
12, 14720, Note_on_c, 11, 43, 0
12, 14760, Note_on_c, 11, 43, 127
12, 14920, Note_on_c, 11, 43, 0
12, 15000, Note_on_c, 11, 40, 127
12, 15040, Note_on_c, 11, 40, 0
12, 15060, Note_on_c, 11, 36, 127
12, 15100, Note_on_c, 11, 36, 0
12, 15120, Note_on_c, 11, 43, 127
12, 15200, Note_on_c, 11, 43, 0
12, 16560, Note_on_c, 11, 48, 127
12, 16720, Note_on_c, 11, 48, 0
12, 16800, Note_on_c, 11, 47, 127
12, 16880, Note_on_c, 11, 47, 0
12, 16920, Note_on_c, 11, 46, 127
12, 17000, Note_on_c, 11, 46, 0
12, 17040, Note_on_c, 11, 45, 127
12, 17120, Note_on_c, 11, 45, 0
12, 17160, Note_on_c, 11, 43, 127
12, 17240, Note_on_c, 11, 43, 0
12, 17280, Note_on_c, 11, 41, 127
12, 17360, Note_on_c, 11, 41, 0
12, 18000, Note_on_c, 11, 50, 127
12, 18160, Note_on_c, 11, 50, 0
12, 18240, Note_on_c, 11, 49, 127
12, 18320, Note_on_c, 11, 49, 0
12, 18360, Note_on_c, 11, 48, 127
12, 18440, Note_on_c, 11, 48, 0
12, 18480, Note_on_c, 11, 47, 127
12, 18560, Note_on_c, 11, 47, 0
12, 18600, Note_on_c, 11, 45, 127
12, 18680, Note_on_c, 11, 45, 0
12, 18720, Note_on_c, 11, 43, 127
12, 18800, Note_on_c, 11, 43, 0
12, 19440, Note_on_c, 11, 55, 127
12, 19600, Note_on_c, 11, 55, 0
12, 19680, Note_on_c, 11, 54, 127
12, 19760, Note_on_c, 11, 54, 0
12, 19800, Note_on_c, 11, 53, 127
12, 19880, Note_on_c, 11, 53, 0
12, 19920, Note_on_c, 11, 52, 127
12, 20000, Note_on_c, 11, 52, 0
12, 20040, Note_on_c, 11, 50, 127
12, 20120, Note_on_c, 11, 50, 0
12, 20160, Note_on_c, 11, 48, 127
12, 20200, Note_on_c, 11, 48, 0
12, 20280, Note_on_c, 11, 50, 127
12, 20360, Note_on_c, 11, 50, 0
12, 20400, Note_on_c, 11, 52, 127
12, 20480, Note_on_c, 11, 52, 0
12, 20520, Note_on_c, 11, 41, 127
12, 20560, Note_on_c, 11, 41, 0
12, 20640, Note_on_c, 11, 43, 127
12, 20720, Note_on_c, 11, 43, 0
12, 20760, Note_on_c, 11, 45, 127
12, 20840, Note_on_c, 11, 45, 0
12, 20880, Note_on_c, 11, 43, 127
12, 20960, Note_on_c, 11, 43, 0
12, 21000, Note_on_c, 11, 43, 127
12, 21080, Note_on_c, 11, 43, 0
12, 21120, Note_on_c, 11, 43, 127
12, 21200, Note_on_c, 11, 43, 0
12, 21240, Note_on_c, 11, 36, 127
12, 21320, Note_on_c, 11, 36, 0
12, 24480, Note_on_c, 11, 36, 127
12, 24560, Note_on_c, 11, 36, 0
12, 24840, Note_on_c, 11, 31, 127
12, 24920, Note_on_c, 11, 31, 0
12, 25200, Note_on_c, 11, 36, 127
12, 25280, Note_on_c, 11, 36, 0
12, 25560, Note_on_c, 11, 31, 127
12, 25640, Note_on_c, 11, 31, 0
12, 25920, Note_on_c, 11, 40, 127
12, 26000, Note_on_c, 11, 40, 0
12, 26040, Note_on_c, 11, 40, 127
12, 26120, Note_on_c, 11, 40, 0
12, 26160, Note_on_c, 11, 40, 127
12, 26240, Note_on_c, 11, 40, 0
12, 26280, Note_on_c, 11, 41, 127
12, 26360, Note_on_c, 11, 41, 0
12, 26400, Note_on_c, 11, 41, 127
12, 26480, Note_on_c, 11, 41, 0
12, 26520, Note_on_c, 11, 41, 127
12, 26600, Note_on_c, 11, 41, 0
12, 26640, Note_on_c, 11, 43, 127
12, 26720, Note_on_c, 11, 43, 0
12, 26760, Note_on_c, 11, 43, 127
12, 26840, Note_on_c, 11, 43, 0
12, 26880, Note_on_c, 11, 43, 127
12, 26960, Note_on_c, 11, 43, 0
12, 27000, Note_on_c, 11, 36, 127
12, 27080, Note_on_c, 11, 36, 0
12, 28200, Note_on_c, 11, 47, 50
12, 28240, Note_on_c, 11, 47, 0
12, 28320, Note_on_c, 11, 48, 50
12, 28360, Note_on_c, 11, 48, 0
12, 28440, Note_on_c, 11, 43, 50
12, 28480, Note_on_c, 11, 43, 0
12, 29760, Note_on_c, 11, 43, 50
12, 29800, Note_on_c, 11, 43, 0
12, 29880, Note_on_c, 11, 36, 50
12, 29920, Note_on_c, 11, 36, 0
12, 30240, Note_on_c, 11, 40, 127
12, 30320, Note_on_c, 11, 40, 0
12, 30360, Note_on_c, 11, 52, 127
12, 30400, Note_on_c, 11, 52, 0
12, 30420, Note_on_c, 11, 52, 127
12, 30460, Note_on_c, 11, 52, 0
12, 30480, Note_on_c, 11, 52, 127
12, 30560, Note_on_c, 11, 52, 0
12, 30600, Note_on_c, 11, 40, 127
12, 30680, Note_on_c, 11, 40, 0
12, 30720, Note_on_c, 11, 52, 127
12, 30760, Note_on_c, 11, 52, 0
12, 30780, Note_on_c, 11, 52, 127
12, 30820, Note_on_c, 11, 52, 0
12, 30840, Note_on_c, 11, 52, 127
12, 30920, Note_on_c, 11, 52, 0
12, 30960, Note_on_c, 11, 40, 127
12, 31040, Note_on_c, 11, 40, 0
12, 31080, Note_on_c, 11, 52, 127
12, 31120, Note_on_c, 11, 52, 0
12, 31140, Note_on_c, 11, 52, 127
12, 31180, Note_on_c, 11, 52, 0
12, 31200, Note_on_c, 11, 52, 127
12, 31280, Note_on_c, 11, 52, 0
12, 31320, Note_on_c, 11, 40, 127
12, 31400, Note_on_c, 11, 40, 0
12, 31440, Note_on_c, 11, 52, 127
12, 31480, Note_on_c, 11, 52, 0
12, 31500, Note_on_c, 11, 52, 127
12, 31540, Note_on_c, 11, 52, 0
12, 31560, Note_on_c, 11, 52, 127
12, 31640, Note_on_c, 11, 52, 0
12, 31680, Note_on_c, 11, 40, 127
12, 31760, Note_on_c, 11, 40, 0
12, 31800, Note_on_c, 11, 52, 127
12, 31840, Note_on_c, 11, 52, 0
12, 31860, Note_on_c, 11, 52, 127
12, 31900, Note_on_c, 11, 52, 0
12, 31920, Note_on_c, 11, 52, 127
12, 32000, Note_on_c, 11, 52, 0
12, 32040, Note_on_c, 11, 40, 127
12, 32120, Note_on_c, 11, 40, 0
12, 32160, Note_on_c, 11, 52, 127
12, 32200, Note_on_c, 11, 52, 0
12, 32220, Note_on_c, 11, 52, 127
12, 32260, Note_on_c, 11, 52, 0
12, 32280, Note_on_c, 11, 52, 127
12, 32360, Note_on_c, 11, 52, 0
12, 32400, Note_on_c, 11, 40, 127
12, 32480, Note_on_c, 11, 40, 0
12, 32520, Note_on_c, 11, 52, 127
12, 32560, Note_on_c, 11, 52, 0
12, 32580, Note_on_c, 11, 52, 127
12, 32620, Note_on_c, 11, 52, 0
12, 32640, Note_on_c, 11, 52, 127
12, 32720, Note_on_c, 11, 52, 0
12, 32760, Note_on_c, 11, 40, 127
12, 32840, Note_on_c, 11, 40, 0
12, 33120, Note_on_c, 11, 47, 50
12, 33200, Note_on_c, 11, 47, 0
12, 33480, Note_on_c, 11, 52, 50
12, 33560, Note_on_c, 11, 52, 0
12, 33840, Note_on_c, 11, 45, 50
12, 33920, Note_on_c, 11, 45, 0
12, 34200, Note_on_c, 11, 50, 50
12, 34280, Note_on_c, 11, 50, 0
12, 35280, Note_on_c, 11, 47, 50
12, 35440, Note_on_c, 11, 47, 0
12, 35520, Note_on_c, 11, 48, 50
12, 35600, Note_on_c, 11, 48, 0
12, 35640, Note_on_c, 11, 43, 50
12, 35720, Note_on_c, 11, 43, 0
12, 36720, Note_on_c, 11, 43, 50
12, 36960, Note_on_c, 11, 43, 0
12, 37080, Note_on_c, 11, 36, 50
12, 37120, Note_on_c, 11, 36, 0
12, 38160, Note_on_c, 11, 48, 50
12, 38240, Note_on_c, 11, 48, 0
12, 38520, Note_on_c, 11, 43, 70
12, 38600, Note_on_c, 11, 43, 0
12, 39600, Note_on_c, 11, 43, 50
12, 39680, Note_on_c, 11, 43, 0
12, 39960, Note_on_c, 11, 36, 70
12, 40040, Note_on_c, 11, 36, 0
12, 40320, Note_on_c, 11, 43, 127
12, 40400, Note_on_c, 11, 43, 0
12, 40680, Note_on_c, 11, 38, 127
12, 40760, Note_on_c, 11, 38, 0
12, 41040, Note_on_c, 11, 43, 127
12, 41120, Note_on_c, 11, 43, 0
12, 41400, Note_on_c, 11, 38, 127
12, 41480, Note_on_c, 11, 38, 0
12, 41760, Note_on_c, 11, 35, 127
12, 41840, Note_on_c, 11, 35, 0
12, 41880, Note_on_c, 11, 35, 127
12, 41960, Note_on_c, 11, 35, 0
12, 42000, Note_on_c, 11, 35, 127
12, 42080, Note_on_c, 11, 35, 0
12, 42120, Note_on_c, 11, 36, 127
12, 42200, Note_on_c, 11, 36, 0
12, 42240, Note_on_c, 11, 36, 127
12, 42320, Note_on_c, 11, 36, 0
12, 42360, Note_on_c, 11, 36, 127
12, 42440, Note_on_c, 11, 36, 0
12, 42480, Note_on_c, 11, 38, 127
12, 42560, Note_on_c, 11, 38, 0
12, 42600, Note_on_c, 11, 38, 127
12, 42680, Note_on_c, 11, 38, 0
12, 42720, Note_on_c, 11, 38, 127
12, 42800, Note_on_c, 11, 38, 0
12, 42840, Note_on_c, 11, 31, 127
12, 42920, Note_on_c, 11, 31, 0
12, 42920, End_track
0, 0, End_of_file